0, 0, Header, 1, 18, 120
1, 0, Start_track
1, 0, Time_signature, 6, 3, 12, 8
1, 0, Key_signature, 0, "major"
1, 0, Tempo, 666667
1, 93958, Tempo, 674157
1, 94014, Tempo, 681818
1, 94070, Tempo, 689655
1, 94126, Tempo, 697674
1, 94182, Tempo, 705882
1, 94236, Tempo, 714286
1, 94292, Tempo, 722892
1, 94348, Tempo, 731707
1, 94404, Tempo, 740741
1, 94458, Tempo, 750000
1, 94514, Tempo, 759494
1, 94570, Tempo, 769231
1, 94626, Tempo, 779221
1, 94680, Tempo, 789474
1, 94710, Tempo, 666667
1, 94740, Tempo, 674157
1, 94770, Tempo, 681818
1, 94800, Tempo, 689655
1, 94830, Tempo, 697674
1, 94860, Tempo, 705882
1, 94890, Tempo, 714286
1, 94920, Tempo, 722892
1, 94950, Tempo, 731707
1, 94980, Tempo, 740741
1, 95010, Tempo, 750000
1, 95040, Tempo, 759494
1, 95070, Tempo, 769231
1, 95100, Tempo, 779221
1, 95130, Tempo, 789474
1, 95160, Tempo, 800000
1, 95190, Tempo, 810811
1, 95220, Tempo, 821918
1, 95250, Tempo, 833333
1, 95280, Tempo, 845070
1, 95310, Tempo, 857143
1, 95340, Tempo, 869565
1, 95370, Tempo, 882353
1, 95400, Tempo, 895522
1, 95400, End_track
2, 0, Start_track
2, 0, MIDI_port, 0
2, 0, Title_t, "Flute"
2, 0, Program_c, 0, 73
2, 0, Control_c, 0, 7, 126
2, 0, Note_on_c, 0, 84, 80
2, 112, Note_on_c, 0, 84, 0
2, 8520, Note_on_c, 0, 84, 105
2, 8520, Note_on_c, 0, 91, 116
2, 8568, Note_on_c, 0, 91, 0
2, 8568, Note_on_c, 0, 84, 0
2, 8580, Note_on_c, 0, 91, 111
2, 8580, Note_on_c, 0, 84, 102
2, 8628, Note_on_c, 0, 84, 0
2, 8628, Note_on_c, 0, 91, 0
2, 8640, Note_on_c, 0, 91, 118
2, 8640, Note_on_c, 0, 84, 97
2, 8928, Note_on_c, 0, 84, 0
2, 8928, Note_on_c, 0, 91, 0
2, 9000, Note_on_c, 0, 91, 107
2, 9000, Note_on_c, 0, 84, 107
2, 9288, Note_on_c, 0, 84, 0
2, 9288, Note_on_c, 0, 91, 0
2, 9360, Note_on_c, 0, 91, 111
2, 9360, Note_on_c, 0, 84, 107
2, 9648, Note_on_c, 0, 84, 0
2, 9648, Note_on_c, 0, 91, 0
2, 9720, Note_on_c, 0, 86, 107
2, 9720, Note_on_c, 0, 89, 108
2, 9996, Note_on_c, 0, 89, 0
2, 9996, Note_on_c, 0, 86, 0
2, 10020, Note_on_c, 0, 91, 101
2, 10020, Note_on_c, 0, 84, 100
2, 10068, Note_on_c, 0, 84, 0
2, 10068, Note_on_c, 0, 91, 0
2, 10080, Note_on_c, 0, 91, 112
2, 10080, Note_on_c, 0, 84, 109
2, 10368, Note_on_c, 0, 84, 0
2, 10368, Note_on_c, 0, 91, 0
2, 10440, Note_on_c, 0, 84, 103
2, 10440, Note_on_c, 0, 91, 127
2, 10488, Note_on_c, 0, 91, 0
2, 10500, Note_on_c, 0, 89, 114
2, 10584, Note_on_c, 0, 84, 0
2, 10612, Note_on_c, 0, 89, 0
2, 10620, Note_on_c, 0, 86, 118
2, 10620, Note_on_c, 0, 89, 127
2, 10716, Note_on_c, 0, 89, 0
2, 10740, Note_on_c, 0, 84, 100
2, 10740, Note_on_c, 0, 89, 127
2, 10764, Note_on_c, 0, 86, 0
2, 10788, Note_on_c, 0, 89, 0
2, 10788, Note_on_c, 0, 84, 0
2, 10800, Note_on_c, 0, 86, 107
2, 10800, Note_on_c, 0, 89, 99
2, 10944, Note_on_c, 0, 89, 0
2, 10944, Note_on_c, 0, 86, 0
2, 10980, Note_on_c, 0, 88, 107
2, 10980, Note_on_c, 0, 84, 103
2, 11124, Note_on_c, 0, 84, 0
2, 11124, Note_on_c, 0, 88, 0
2, 11160, Note_on_c, 0, 84, 103
2, 11160, Note_on_c, 0, 89, 118
2, 11208, Note_on_c, 0, 89, 0
2, 11208, Note_on_c, 0, 84, 0
2, 11820, Note_on_c, 0, 72, 104
2, 11820, Note_on_c, 0, 84, 99
2, 11868, Note_on_c, 0, 84, 0
2, 11868, Note_on_c, 0, 72, 0
2, 11880, Note_on_c, 0, 72, 103
2, 11880, Note_on_c, 0, 84, 98
2, 12384, Note_on_c, 0, 84, 0
2, 12384, Note_on_c, 0, 72, 0
2, 12420, Note_on_c, 0, 72, 99
2, 12420, Note_on_c, 0, 84, 98
2, 12516, Note_on_c, 0, 84, 0
2, 12516, Note_on_c, 0, 72, 0
2, 12540, Note_on_c, 0, 72, 102
2, 12540, Note_on_c, 0, 84, 103
2, 12588, Note_on_c, 0, 84, 0
2, 12588, Note_on_c, 0, 72, 0
2, 13260, Note_on_c, 0, 84, 101
2, 13260, Note_on_c, 0, 72, 100
2, 13308, Note_on_c, 0, 72, 0
2, 13308, Note_on_c, 0, 84, 0
2, 13320, Note_on_c, 0, 84, 103
2, 13320, Note_on_c, 0, 72, 98
2, 13824, Note_on_c, 0, 72, 0
2, 13824, Note_on_c, 0, 84, 0
2, 13860, Note_on_c, 0, 84, 98
2, 13860, Note_on_c, 0, 72, 102
2, 13956, Note_on_c, 0, 72, 0
2, 13956, Note_on_c, 0, 84, 0
2, 13980, Note_on_c, 0, 84, 102
2, 13980, Note_on_c, 0, 72, 100
2, 14028, Note_on_c, 0, 72, 0
2, 14028, Note_on_c, 0, 84, 0
2, 14040, Note_on_c, 0, 84, 106
2, 14040, Note_on_c, 0, 72, 103
2, 14184, Note_on_c, 0, 72, 0
2, 14184, Note_on_c, 0, 84, 0
2, 14220, Note_on_c, 0, 84, 106
2, 14220, Note_on_c, 0, 72, 106
2, 14316, Note_on_c, 0, 72, 0
2, 14316, Note_on_c, 0, 84, 0
2, 14340, Note_on_c, 0, 84, 107
2, 14340, Note_on_c, 0, 72, 108
2, 14388, Note_on_c, 0, 72, 0
2, 14388, Note_on_c, 0, 84, 0
2, 14400, Note_on_c, 0, 84, 117
2, 14400, Note_on_c, 0, 88, 109
2, 14544, Note_on_c, 0, 88, 0
2, 14544, Note_on_c, 0, 84, 0
2, 14580, Note_on_c, 0, 83, 101
2, 14580, Note_on_c, 0, 88, 109
2, 14676, Note_on_c, 0, 88, 0
2, 14676, Note_on_c, 0, 83, 0
2, 14700, Note_on_c, 0, 88, 109
2, 14700, Note_on_c, 0, 83, 99
2, 14748, Note_on_c, 0, 83, 0
2, 14748, Note_on_c, 0, 88, 0
2, 14760, Note_on_c, 0, 91, 101
2, 14760, Note_on_c, 0, 84, 93
2, 15036, Note_on_c, 0, 84, 0
2, 15036, Note_on_c, 0, 91, 0
2, 15060, Note_on_c, 0, 84, 113
2, 15060, Note_on_c, 0, 88, 108
2, 15108, Note_on_c, 0, 88, 0
2, 15108, Note_on_c, 0, 84, 0
2, 15120, Note_on_c, 0, 88, 100
2, 15120, Note_on_c, 0, 84, 102
2, 15216, Note_on_c, 0, 84, 0
2, 15216, Note_on_c, 0, 88, 0
2, 15240, Note_on_c, 0, 84, 102
2, 15240, Note_on_c, 0, 88, 103
2, 15288, Note_on_c, 0, 88, 0
2, 15288, Note_on_c, 0, 84, 0
2, 15300, Note_on_c, 0, 84, 100
2, 15300, Note_on_c, 0, 88, 103
2, 15396, Note_on_c, 0, 88, 0
2, 15396, Note_on_c, 0, 84, 0
2, 15420, Note_on_c, 0, 84, 107
2, 15420, Note_on_c, 0, 88, 108
2, 15468, Note_on_c, 0, 88, 0
2, 15468, Note_on_c, 0, 84, 0
2, 15480, Note_on_c, 0, 89, 107
2, 15480, Note_on_c, 0, 86, 105
2, 15756, Note_on_c, 0, 86, 0
2, 15756, Note_on_c, 0, 89, 0
2, 15780, Note_on_c, 0, 86, 112
2, 15780, Note_on_c, 0, 83, 93
2, 15828, Note_on_c, 0, 83, 0
2, 15828, Note_on_c, 0, 86, 0
2, 15840, Note_on_c, 0, 86, 117
2, 15840, Note_on_c, 0, 83, 103
2, 15936, Note_on_c, 0, 83, 0
2, 15936, Note_on_c, 0, 86, 0
2, 15960, Note_on_c, 0, 83, 107
2, 15960, Note_on_c, 0, 86, 121
2, 16008, Note_on_c, 0, 86, 0
2, 16008, Note_on_c, 0, 83, 0
2, 16020, Note_on_c, 0, 86, 125
2, 16020, Note_on_c, 0, 83, 113
2, 16116, Note_on_c, 0, 83, 0
2, 16116, Note_on_c, 0, 86, 0
2, 16140, Note_on_c, 0, 86, 121
2, 16140, Note_on_c, 0, 83, 110
2, 16188, Note_on_c, 0, 83, 0
2, 16188, Note_on_c, 0, 86, 0
2, 16200, Note_on_c, 0, 91, 101
2, 16200, Note_on_c, 0, 88, 103
2, 16296, Note_on_c, 0, 88, 0
2, 16296, Note_on_c, 0, 91, 0
2, 16320, Note_on_c, 0, 91, 104
2, 16320, Note_on_c, 0, 88, 103
2, 16368, Note_on_c, 0, 88, 0
2, 16368, Note_on_c, 0, 91, 0
2, 16380, Note_on_c, 0, 91, 116
2, 16380, Note_on_c, 0, 88, 111
2, 16476, Note_on_c, 0, 88, 0
2, 16476, Note_on_c, 0, 91, 0
2, 16500, Note_on_c, 0, 88, 106
2, 16500, Note_on_c, 0, 91, 107
2, 16548, Note_on_c, 0, 91, 0
2, 16548, Note_on_c, 0, 88, 0
2, 16560, Note_on_c, 0, 91, 107
2, 16560, Note_on_c, 0, 88, 105
2, 16656, Note_on_c, 0, 88, 0
2, 16656, Note_on_c, 0, 91, 0
2, 16680, Note_on_c, 0, 88, 111
2, 16680, Note_on_c, 0, 84, 98
2, 16728, Note_on_c, 0, 84, 0
2, 16728, Note_on_c, 0, 88, 0
2, 16740, Note_on_c, 0, 88, 117
2, 16740, Note_on_c, 0, 84, 100
2, 16836, Note_on_c, 0, 84, 0
2, 16836, Note_on_c, 0, 88, 0
2, 16860, Note_on_c, 0, 84, 101
2, 16860, Note_on_c, 0, 88, 110
2, 16908, Note_on_c, 0, 88, 0
2, 16908, Note_on_c, 0, 84, 0
2, 16920, Note_on_c, 0, 86, 104
2, 16920, Note_on_c, 0, 89, 104
2, 17016, Note_on_c, 0, 89, 0
2, 17016, Note_on_c, 0, 86, 0
2, 17040, Note_on_c, 0, 89, 114
2, 17040, Note_on_c, 0, 86, 116
2, 17088, Note_on_c, 0, 86, 0
2, 17088, Note_on_c, 0, 89, 0
2, 17100, Note_on_c, 0, 89, 114
2, 17100, Note_on_c, 0, 86, 110
2, 17196, Note_on_c, 0, 86, 0
2, 17196, Note_on_c, 0, 89, 0
2, 17220, Note_on_c, 0, 86, 116
2, 17220, Note_on_c, 0, 89, 123
2, 17268, Note_on_c, 0, 89, 0
2, 17268, Note_on_c, 0, 86, 0
2, 17280, Note_on_c, 0, 89, 127
2, 17280, Note_on_c, 0, 86, 117
2, 17376, Note_on_c, 0, 86, 0
2, 17376, Note_on_c, 0, 89, 0
2, 17400, Note_on_c, 0, 86, 123
2, 17400, Note_on_c, 0, 83, 102
2, 17448, Note_on_c, 0, 83, 0
2, 17448, Note_on_c, 0, 86, 0
2, 17460, Note_on_c, 0, 86, 116
2, 17460, Note_on_c, 0, 83, 106
2, 17556, Note_on_c, 0, 83, 0
2, 17556, Note_on_c, 0, 86, 0
2, 17580, Note_on_c, 0, 86, 125
2, 17580, Note_on_c, 0, 83, 109
2, 17628, Note_on_c, 0, 83, 0
2, 17628, Note_on_c, 0, 86, 0
2, 17640, Note_on_c, 0, 84, 111
2, 17640, Note_on_c, 0, 88, 123
2, 17736, Note_on_c, 0, 88, 0
2, 17736, Note_on_c, 0, 84, 0
2, 18120, Note_on_c, 0, 88, 103
2, 18120, Note_on_c, 0, 84, 103
2, 18168, Note_on_c, 0, 84, 0
2, 18168, Note_on_c, 0, 88, 0
2, 18180, Note_on_c, 0, 89, 100
2, 18180, Note_on_c, 0, 86, 102
2, 18276, Note_on_c, 0, 86, 0
2, 18276, Note_on_c, 0, 89, 0
2, 18300, Note_on_c, 0, 86, 117
2, 18300, Note_on_c, 0, 89, 114
2, 18348, Note_on_c, 0, 89, 0
2, 18348, Note_on_c, 0, 86, 0
2, 18360, Note_on_c, 0, 84, 103
2, 18360, Note_on_c, 0, 88, 125
2, 18408, Note_on_c, 0, 88, 0
2, 18408, Note_on_c, 0, 84, 0
2, 18660, Note_on_c, 0, 84, 106
2, 18768, Note_on_c, 0, 84, 0
2, 18780, Note_on_c, 0, 89, 113
2, 18828, Note_on_c, 0, 89, 0
2, 18840, Note_on_c, 0, 88, 101
2, 18840, Note_on_c, 0, 84, 112
2, 18888, Note_on_c, 0, 84, 0
2, 18888, Note_on_c, 0, 88, 0
2, 18900, Note_on_c, 0, 86, 127
2, 18900, Note_on_c, 0, 89, 120
2, 18996, Note_on_c, 0, 89, 0
2, 18996, Note_on_c, 0, 86, 0
2, 19020, Note_on_c, 0, 89, 127
2, 19020, Note_on_c, 0, 86, 127
2, 19068, Note_on_c, 0, 86, 0
2, 19068, Note_on_c, 0, 89, 0
2, 19080, Note_on_c, 0, 84, 107
2, 19080, Note_on_c, 0, 88, 104
2, 19224, Note_on_c, 0, 88, 0
2, 19224, Note_on_c, 0, 84, 0
2, 19260, Note_on_c, 0, 84, 110
2, 19260, Note_on_c, 0, 88, 107
2, 19308, Note_on_c, 0, 88, 0
2, 19308, Note_on_c, 0, 84, 0
2, 19380, Note_on_c, 0, 88, 121
2, 19380, Note_on_c, 0, 84, 114
2, 19428, Note_on_c, 0, 84, 0
2, 19428, Note_on_c, 0, 88, 0
2, 19440, Note_on_c, 0, 86, 103
2, 19440, Note_on_c, 0, 89, 100
2, 19584, Note_on_c, 0, 89, 0
2, 19584, Note_on_c, 0, 86, 0
2, 19620, Note_on_c, 0, 86, 105
2, 19620, Note_on_c, 0, 89, 103
2, 19668, Note_on_c, 0, 89, 0
2, 19668, Note_on_c, 0, 86, 0
2, 19740, Note_on_c, 0, 89, 127
2, 19740, Note_on_c, 0, 86, 118
2, 19788, Note_on_c, 0, 86, 0
2, 19788, Note_on_c, 0, 89, 0
2, 19800, Note_on_c, 0, 88, 127
2, 19800, Note_on_c, 0, 84, 111
2, 19848, Note_on_c, 0, 84, 0
2, 19848, Note_on_c, 0, 88, 0
2, 20400, Note_on_c, 0, 79, 98
2, 20448, Note_on_c, 0, 79, 0
2, 20460, Note_on_c, 0, 88, 125
2, 20508, Note_on_c, 0, 88, 0
2, 20520, Note_on_c, 0, 84, 127
2, 20568, Note_on_c, 0, 84, 0
2, 20580, Note_on_c, 0, 79, 104
2, 20628, Note_on_c, 0, 79, 0
2, 20640, Note_on_c, 0, 88, 100
2, 20688, Note_on_c, 0, 88, 0
2, 20700, Note_on_c, 0, 79, 127
2, 20748, Note_on_c, 0, 79, 0
2, 20760, Note_on_c, 0, 76, 105
2, 20808, Note_on_c, 0, 76, 0
2, 20820, Note_on_c, 0, 84, 121
2, 20868, Note_on_c, 0, 84, 0
2, 20880, Note_on_c, 0, 79, 127
2, 20928, Note_on_c, 0, 79, 0
2, 20940, Note_on_c, 0, 76, 109
2, 20988, Note_on_c, 0, 76, 0
2, 21000, Note_on_c, 0, 84, 99
2, 21048, Note_on_c, 0, 84, 0
2, 21960, Note_on_c, 0, 84, 106
2, 21960, Note_on_c, 0, 76, 111
2, 22104, Note_on_c, 0, 84, 0
2, 22140, Note_on_c, 0, 84, 127
2, 22236, Note_on_c, 0, 84, 0
2, 22248, Note_on_c, 0, 76, 0
2, 22260, Note_on_c, 0, 79, 123
2, 22308, Note_on_c, 0, 79, 0
2, 22320, Note_on_c, 0, 77, 99
2, 22320, Note_on_c, 0, 81, 116
2, 22416, Note_on_c, 0, 81, 0
2, 22416, Note_on_c, 0, 77, 0
2, 27360, Note_on_c, 0, 84, 112
2, 27360, Note_on_c, 0, 81, 110
2, 27408, Note_on_c, 0, 81, 0
2, 27408, Note_on_c, 0, 84, 0
2, 27420, Note_on_c, 0, 81, 102
2, 27420, Note_on_c, 0, 84, 107
2, 27468, Note_on_c, 0, 84, 0
2, 27468, Note_on_c, 0, 81, 0
2, 27480, Note_on_c, 0, 81, 104
2, 27480, Note_on_c, 0, 84, 108
2, 27528, Note_on_c, 0, 84, 0
2, 27528, Note_on_c, 0, 81, 0
2, 27540, Note_on_c, 0, 81, 103
2, 27540, Note_on_c, 0, 84, 110
2, 27588, Note_on_c, 0, 84, 0
2, 27588, Note_on_c, 0, 81, 0
2, 27600, Note_on_c, 0, 84, 99
2, 27600, Note_on_c, 0, 81, 109
2, 27648, Note_on_c, 0, 81, 0
2, 27648, Note_on_c, 0, 84, 0
2, 27660, Note_on_c, 0, 89, 127
2, 27660, Note_on_c, 0, 81, 127
2, 27708, Note_on_c, 0, 81, 0
2, 27708, Note_on_c, 0, 89, 0
2, 27720, Note_on_c, 0, 89, 109
2, 27720, Note_on_c, 0, 81, 97
2, 27816, Note_on_c, 0, 81, 0
2, 27816, Note_on_c, 0, 89, 0
2, 27840, Note_on_c, 0, 81, 111
2, 27840, Note_on_c, 0, 89, 112
2, 27888, Note_on_c, 0, 89, 0
2, 27888, Note_on_c, 0, 81, 0
2, 27900, Note_on_c, 0, 89, 123
2, 27900, Note_on_c, 0, 81, 112
2, 27996, Note_on_c, 0, 81, 0
2, 27996, Note_on_c, 0, 89, 0
2, 28020, Note_on_c, 0, 89, 116
2, 28020, Note_on_c, 0, 81, 107
2, 28068, Note_on_c, 0, 81, 0
2, 28068, Note_on_c, 0, 89, 0
2, 28080, Note_on_c, 0, 81, 102
2, 28080, Note_on_c, 0, 89, 106
2, 28176, Note_on_c, 0, 89, 0
2, 28176, Note_on_c, 0, 81, 0
2, 28200, Note_on_c, 0, 89, 104
2, 28200, Note_on_c, 0, 81, 103
2, 28248, Note_on_c, 0, 81, 0
2, 28248, Note_on_c, 0, 89, 0
2, 28260, Note_on_c, 0, 89, 105
2, 28260, Note_on_c, 0, 81, 104
2, 28356, Note_on_c, 0, 81, 0
2, 28356, Note_on_c, 0, 89, 0
2, 28380, Note_on_c, 0, 89, 108
2, 28380, Note_on_c, 0, 81, 95
2, 28428, Note_on_c, 0, 81, 0
2, 28428, Note_on_c, 0, 89, 0
2, 28440, Note_on_c, 0, 82, 94
2, 28440, Note_on_c, 0, 86, 109
2, 28536, Note_on_c, 0, 86, 0
2, 28536, Note_on_c, 0, 82, 0
2, 29100, Note_on_c, 0, 82, 109
2, 29100, Note_on_c, 0, 77, 116
2, 29148, Note_on_c, 0, 77, 0
2, 29148, Note_on_c, 0, 82, 0
2, 29160, Note_on_c, 0, 82, 100
2, 29160, Note_on_c, 0, 77, 101
2, 29256, Note_on_c, 0, 77, 0
2, 29256, Note_on_c, 0, 82, 0
2, 29280, Note_on_c, 0, 81, 117
2, 29328, Note_on_c, 0, 81, 0
2, 29820, Note_on_c, 0, 86, 113
2, 29820, Note_on_c, 0, 83, 121
2, 29868, Note_on_c, 0, 83, 0
2, 29868, Note_on_c, 0, 86, 0
2, 29880, Note_on_c, 0, 86, 116
2, 29880, Note_on_c, 0, 83, 112
2, 29976, Note_on_c, 0, 83, 0
2, 29976, Note_on_c, 0, 86, 0
2, 30000, Note_on_c, 0, 84, 116
2, 30000, Note_on_c, 0, 87, 115
2, 30048, Note_on_c, 0, 87, 0
2, 30048, Note_on_c, 0, 84, 0
2, 30540, Note_on_c, 0, 81, 103
2, 30540, Note_on_c, 0, 89, 107
2, 30588, Note_on_c, 0, 89, 0
2, 30588, Note_on_c, 0, 81, 0
2, 30600, Note_on_c, 0, 82, 95
2, 30600, Note_on_c, 0, 86, 114
2, 30696, Note_on_c, 0, 86, 0
2, 30696, Note_on_c, 0, 82, 0
2, 30900, Note_on_c, 0, 86, 120
2, 30900, Note_on_c, 0, 89, 113
2, 30948, Note_on_c, 0, 89, 0
2, 30948, Note_on_c, 0, 86, 0
2, 30960, Note_on_c, 0, 87, 103
2, 30960, Note_on_c, 0, 91, 127
2, 31056, Note_on_c, 0, 91, 0
2, 31056, Note_on_c, 0, 87, 0
2, 31260, Note_on_c, 0, 87, 116
2, 31260, Note_on_c, 0, 91, 118
2, 31308, Note_on_c, 0, 91, 0
2, 31308, Note_on_c, 0, 87, 0
2, 31320, Note_on_c, 0, 86, 121
2, 31320, Note_on_c, 0, 89, 118
2, 31416, Note_on_c, 0, 89, 0
2, 31416, Note_on_c, 0, 86, 0
2, 31620, Note_on_c, 0, 86, 121
2, 31620, Note_on_c, 0, 89, 127
2, 31668, Note_on_c, 0, 89, 0
2, 31668, Note_on_c, 0, 86, 0
2, 31680, Note_on_c, 0, 87, 80
2, 31680, Note_on_c, 0, 84, 100
2, 31776, Note_on_c, 0, 84, 0
2, 31776, Note_on_c, 0, 87, 0
2, 31980, Note_on_c, 0, 84, 127
2, 31980, Note_on_c, 0, 87, 118
2, 32028, Note_on_c, 0, 87, 0
2, 32028, Note_on_c, 0, 84, 0
2, 32040, Note_on_c, 0, 82, 100
2, 32040, Note_on_c, 0, 86, 127
2, 32136, Note_on_c, 0, 86, 0
2, 32136, Note_on_c, 0, 82, 0
2, 32160, Note_on_c, 0, 82, 94
2, 32160, Note_on_c, 0, 86, 121
2, 32208, Note_on_c, 0, 86, 0
2, 32208, Note_on_c, 0, 82, 0
2, 32220, Note_on_c, 0, 84, 127
2, 32220, Note_on_c, 0, 87, 88
2, 32316, Note_on_c, 0, 87, 0
2, 32316, Note_on_c, 0, 84, 0
2, 32340, Note_on_c, 0, 86, 121
2, 32340, Note_on_c, 0, 89, 117
2, 32388, Note_on_c, 0, 89, 0
2, 32388, Note_on_c, 0, 86, 0
2, 32400, Note_on_c, 0, 87, 105
2, 32400, Note_on_c, 0, 91, 127
2, 32688, Note_on_c, 0, 91, 0
2, 32688, Note_on_c, 0, 87, 0
2, 32760, Note_on_c, 0, 86, 116
2, 32760, Note_on_c, 0, 89, 116
2, 33048, Note_on_c, 0, 89, 0
2, 33048, Note_on_c, 0, 86, 0
2, 33120, Note_on_c, 0, 88, 100
2, 33120, Note_on_c, 0, 76, 106
2, 33408, Note_on_c, 0, 76, 0
2, 33408, Note_on_c, 0, 88, 0
2, 33480, Note_on_c, 0, 77, 110
2, 33480, Note_on_c, 0, 89, 113
2, 33576, Note_on_c, 0, 89, 0
2, 33576, Note_on_c, 0, 77, 0
2, 33660, Note_on_c, 0, 84, 99
2, 33660, Note_on_c, 0, 72, 104
2, 33756, Note_on_c, 0, 72, 0
2, 33756, Note_on_c, 0, 84, 0
2, 35940, Note_on_c, 0, 86, 127
2, 35940, Note_on_c, 0, 89, 127
2, 35988, Note_on_c, 0, 89, 0
2, 35988, Note_on_c, 0, 86, 0
2, 36000, Note_on_c, 0, 83, 127
2, 36144, Note_on_c, 0, 83, 0
2, 36180, Note_on_c, 0, 79, 121
2, 36228, Note_on_c, 0, 79, 0
2, 36300, Note_on_c, 0, 86, 117
2, 36348, Note_on_c, 0, 86, 0
2, 36360, Note_on_c, 0, 84, 127
2, 36504, Note_on_c, 0, 84, 0
2, 36540, Note_on_c, 0, 79, 127
2, 36588, Note_on_c, 0, 79, 0
2, 36660, Note_on_c, 0, 88, 125
2, 36708, Note_on_c, 0, 88, 0
2, 37380, Note_on_c, 0, 86, 127
2, 37380, Note_on_c, 0, 89, 127
2, 37428, Note_on_c, 0, 89, 0
2, 37428, Note_on_c, 0, 86, 0
2, 37440, Note_on_c, 0, 83, 127
2, 37584, Note_on_c, 0, 83, 0
2, 37620, Note_on_c, 0, 79, 109
2, 37668, Note_on_c, 0, 79, 0
2, 37740, Note_on_c, 0, 86, 120
2, 37788, Note_on_c, 0, 86, 0
2, 37800, Note_on_c, 0, 84, 127
2, 37944, Note_on_c, 0, 84, 0
2, 37980, Note_on_c, 0, 79, 127
2, 38028, Note_on_c, 0, 79, 0
2, 38100, Note_on_c, 0, 88, 120
2, 38148, Note_on_c, 0, 88, 0
2, 38160, Note_on_c, 0, 84, 127
2, 38304, Note_on_c, 0, 84, 0
2, 38340, Note_on_c, 0, 79, 127
2, 38388, Note_on_c, 0, 79, 0
2, 38460, Note_on_c, 0, 88, 127
2, 38508, Note_on_c, 0, 88, 0
2, 38520, Note_on_c, 0, 84, 127
2, 38664, Note_on_c, 0, 84, 0
2, 38700, Note_on_c, 0, 79, 127
2, 38748, Note_on_c, 0, 79, 0
2, 38820, Note_on_c, 0, 88, 127
2, 38868, Note_on_c, 0, 88, 0
2, 38880, Note_on_c, 0, 84, 127
2, 39024, Note_on_c, 0, 84, 0
2, 39060, Note_on_c, 0, 79, 116
2, 39156, Note_on_c, 0, 79, 0
2, 39180, Note_on_c, 0, 88, 127
2, 39228, Note_on_c, 0, 88, 0
2, 39240, Note_on_c, 0, 84, 127
2, 39384, Note_on_c, 0, 84, 0
2, 39420, Note_on_c, 0, 79, 127
2, 39516, Note_on_c, 0, 79, 0
2, 39540, Note_on_c, 0, 88, 127
2, 39588, Note_on_c, 0, 88, 0
2, 39600, Note_on_c, 0, 84, 127
2, 39648, Note_on_c, 0, 84, 0
2, 39660, Note_on_c, 0, 79, 107
2, 39708, Note_on_c, 0, 79, 0
2, 39720, Note_on_c, 0, 88, 127
2, 39768, Note_on_c, 0, 88, 0
2, 39780, Note_on_c, 0, 84, 127
2, 39828, Note_on_c, 0, 84, 0
2, 39840, Note_on_c, 0, 79, 123
2, 39888, Note_on_c, 0, 79, 0
2, 39900, Note_on_c, 0, 88, 127
2, 39948, Note_on_c, 0, 88, 0
2, 39960, Note_on_c, 0, 84, 127
2, 40008, Note_on_c, 0, 84, 0
2, 40020, Note_on_c, 0, 79, 111
2, 40068, Note_on_c, 0, 79, 0
2, 40080, Note_on_c, 0, 88, 127
2, 40128, Note_on_c, 0, 88, 0
2, 40140, Note_on_c, 0, 84, 125
2, 40188, Note_on_c, 0, 84, 0
2, 40200, Note_on_c, 0, 79, 112
2, 40248, Note_on_c, 0, 79, 0
2, 40260, Note_on_c, 0, 88, 127
2, 40308, Note_on_c, 0, 88, 0
2, 40320, Note_on_c, 0, 88, 127
2, 40824, Note_on_c, 0, 88, 0
2, 40860, Note_on_c, 0, 88, 104
2, 40860, Note_on_c, 0, 84, 107
2, 41688, Note_on_c, 0, 84, 0
2, 41688, Note_on_c, 0, 88, 0
2, 41760, Note_on_c, 0, 89, 109
2, 41760, Note_on_c, 0, 84, 127
2, 41856, Note_on_c, 0, 84, 0
2, 41856, Note_on_c, 0, 89, 0
2, 47400, Note_on_c, 0, 89, 102
2, 47400, Note_on_c, 0, 84, 103
2, 47448, Note_on_c, 0, 84, 0
2, 47448, Note_on_c, 0, 89, 0
2, 47460, Note_on_c, 0, 84, 109
2, 47460, Note_on_c, 0, 89, 108
2, 47508, Note_on_c, 0, 89, 0
2, 47508, Note_on_c, 0, 84, 0
2, 47520, Note_on_c, 0, 84, 114
2, 47520, Note_on_c, 0, 89, 112
2, 47796, Note_on_c, 0, 89, 0
2, 47796, Note_on_c, 0, 84, 0
2, 47820, Note_on_c, 0, 84, 127
2, 47820, Note_on_c, 0, 89, 113
2, 47868, Note_on_c, 0, 89, 0
2, 47868, Note_on_c, 0, 84, 0
2, 47880, Note_on_c, 0, 89, 106
2, 47880, Note_on_c, 0, 84, 121
2, 48156, Note_on_c, 0, 84, 0
2, 48156, Note_on_c, 0, 89, 0
2, 48180, Note_on_c, 0, 89, 109
2, 48180, Note_on_c, 0, 84, 113
2, 48228, Note_on_c, 0, 84, 0
2, 48228, Note_on_c, 0, 89, 0
2, 48240, Note_on_c, 0, 84, 105
2, 48240, Note_on_c, 0, 89, 109
2, 48516, Note_on_c, 0, 89, 0
2, 48516, Note_on_c, 0, 84, 0
2, 48540, Note_on_c, 0, 89, 112
2, 48540, Note_on_c, 0, 84, 111
2, 48588, Note_on_c, 0, 84, 0
2, 48588, Note_on_c, 0, 89, 0
2, 48600, Note_on_c, 0, 89, 100
2, 48600, Note_on_c, 0, 86, 103
2, 48876, Note_on_c, 0, 86, 0
2, 48876, Note_on_c, 0, 89, 0
2, 48900, Note_on_c, 0, 84, 120
2, 48900, Note_on_c, 0, 91, 102
2, 48948, Note_on_c, 0, 91, 0
2, 48948, Note_on_c, 0, 84, 0
2, 48960, Note_on_c, 0, 91, 105
2, 48960, Note_on_c, 0, 84, 109
2, 49236, Note_on_c, 0, 84, 0
2, 49236, Note_on_c, 0, 91, 0
2, 49260, Note_on_c, 0, 91, 103
2, 49260, Note_on_c, 0, 84, 109
2, 49308, Note_on_c, 0, 84, 0
2, 49308, Note_on_c, 0, 91, 0
2, 49320, Note_on_c, 0, 91, 114
2, 49320, Note_on_c, 0, 84, 107
2, 49368, Note_on_c, 0, 91, 0
2, 49380, Note_on_c, 0, 89, 123
2, 49464, Note_on_c, 0, 84, 0
2, 49500, Note_on_c, 0, 86, 101
2, 49596, Note_on_c, 0, 86, 0
2, 49596, Note_on_c, 0, 89, 0
2, 49620, Note_on_c, 0, 84, 111
2, 49620, Note_on_c, 0, 89, 114
2, 49668, Note_on_c, 0, 89, 0
2, 49668, Note_on_c, 0, 84, 0
2, 49680, Note_on_c, 0, 77, 108
2, 49680, Note_on_c, 0, 89, 110
2, 49728, Note_on_c, 0, 77, 0
2, 49740, Note_on_c, 0, 86, 123
2, 49824, Note_on_c, 0, 89, 0
2, 49836, Note_on_c, 0, 86, 0
2, 49860, Note_on_c, 0, 84, 114
2, 49860, Note_on_c, 0, 88, 123
2, 50004, Note_on_c, 0, 88, 0
2, 50004, Note_on_c, 0, 84, 0
2, 50040, Note_on_c, 0, 84, 104
2, 50040, Note_on_c, 0, 89, 107
2, 50088, Note_on_c, 0, 89, 0
2, 50088, Note_on_c, 0, 84, 0
2, 50700, Note_on_c, 0, 84, 108
2, 50700, Note_on_c, 0, 72, 107
2, 50748, Note_on_c, 0, 72, 0
2, 50748, Note_on_c, 0, 84, 0
2, 50760, Note_on_c, 0, 84, 127
2, 50760, Note_on_c, 0, 72, 116
2, 51264, Note_on_c, 0, 72, 0
2, 51264, Note_on_c, 0, 84, 0
2, 51300, Note_on_c, 0, 84, 114
2, 51300, Note_on_c, 0, 72, 108
2, 51396, Note_on_c, 0, 72, 0
2, 51396, Note_on_c, 0, 84, 0
2, 51420, Note_on_c, 0, 84, 105
2, 51420, Note_on_c, 0, 72, 112
2, 51468, Note_on_c, 0, 72, 0
2, 51468, Note_on_c, 0, 84, 0
2, 52500, Note_on_c, 0, 79, 125
2, 52548, Note_on_c, 0, 79, 0
2, 52560, Note_on_c, 0, 79, 125
2, 52704, Note_on_c, 0, 79, 0
2, 52740, Note_on_c, 0, 79, 110
2, 52740, Note_on_c, 0, 83, 112
2, 52836, Note_on_c, 0, 83, 0
2, 52836, Note_on_c, 0, 79, 0
2, 52860, Note_on_c, 0, 79, 112
2, 52860, Note_on_c, 0, 83, 117
2, 52908, Note_on_c, 0, 83, 0
2, 52908, Note_on_c, 0, 79, 0
2, 52920, Note_on_c, 0, 84, 127
2, 52920, Note_on_c, 0, 79, 106
2, 53064, Note_on_c, 0, 79, 0
2, 53064, Note_on_c, 0, 84, 0
2, 53100, Note_on_c, 0, 81, 127
2, 53100, Note_on_c, 0, 84, 109
2, 53244, Note_on_c, 0, 84, 0
2, 53244, Note_on_c, 0, 81, 0
2, 53280, Note_on_c, 0, 82, 101
2, 53280, Note_on_c, 0, 84, 123
2, 53376, Note_on_c, 0, 84, 0
2, 53376, Note_on_c, 0, 82, 0
2, 53580, Note_on_c, 0, 86, 127
2, 53628, Note_on_c, 0, 86, 0
2, 53640, Note_on_c, 0, 84, 123
2, 53868, Note_on_c, 0, 84, 0
2, 54120, Note_on_c, 0, 89, 113
2, 54120, Note_on_c, 0, 84, 110
2, 54168, Note_on_c, 0, 84, 0
2, 54168, Note_on_c, 0, 89, 0
2, 54180, Note_on_c, 0, 89, 120
2, 54180, Note_on_c, 0, 84, 111
2, 54276, Note_on_c, 0, 84, 0
2, 54276, Note_on_c, 0, 89, 0
2, 54300, Note_on_c, 0, 89, 111
2, 54300, Note_on_c, 0, 84, 112
2, 54348, Note_on_c, 0, 84, 0
2, 54348, Note_on_c, 0, 89, 0
2, 54360, Note_on_c, 0, 84, 111
2, 54360, Note_on_c, 0, 88, 112
2, 54456, Note_on_c, 0, 88, 0
2, 54456, Note_on_c, 0, 84, 0
2, 54840, Note_on_c, 0, 84, 118
2, 54840, Note_on_c, 0, 91, 105
2, 54888, Note_on_c, 0, 91, 0
2, 54888, Note_on_c, 0, 84, 0
2, 54900, Note_on_c, 0, 91, 106
2, 54900, Note_on_c, 0, 84, 110
2, 54996, Note_on_c, 0, 84, 0
2, 54996, Note_on_c, 0, 91, 0
2, 55020, Note_on_c, 0, 91, 103
2, 55020, Note_on_c, 0, 84, 107
2, 55068, Note_on_c, 0, 84, 0
2, 55068, Note_on_c, 0, 91, 0
2, 55080, Note_on_c, 0, 84, 111
2, 55080, Note_on_c, 0, 89, 107
2, 55176, Note_on_c, 0, 89, 0
2, 55176, Note_on_c, 0, 84, 0
2, 55560, Note_on_c, 0, 84, 120
2, 55560, Note_on_c, 0, 89, 107
2, 55608, Note_on_c, 0, 89, 0
2, 55608, Note_on_c, 0, 84, 0
2, 55620, Note_on_c, 0, 84, 118
2, 55620, Note_on_c, 0, 89, 110
2, 55716, Note_on_c, 0, 89, 0
2, 55716, Note_on_c, 0, 84, 0
2, 55740, Note_on_c, 0, 84, 123
2, 55740, Note_on_c, 0, 89, 107
2, 55788, Note_on_c, 0, 89, 0
2, 55788, Note_on_c, 0, 84, 0
2, 55800, Note_on_c, 0, 84, 123
2, 55800, Note_on_c, 0, 88, 127
2, 55896, Note_on_c, 0, 88, 0
2, 55896, Note_on_c, 0, 84, 0
2, 56280, Note_on_c, 0, 84, 114
2, 56280, Note_on_c, 0, 91, 100
2, 56328, Note_on_c, 0, 91, 0
2, 56328, Note_on_c, 0, 84, 0
2, 56340, Note_on_c, 0, 91, 109
2, 56340, Note_on_c, 0, 84, 107
2, 56436, Note_on_c, 0, 84, 0
2, 56436, Note_on_c, 0, 91, 0
2, 56460, Note_on_c, 0, 91, 103
2, 56460, Note_on_c, 0, 84, 105
2, 56508, Note_on_c, 0, 84, 0
2, 56508, Note_on_c, 0, 91, 0
2, 56520, Note_on_c, 0, 84, 113
2, 56520, Note_on_c, 0, 89, 117
2, 56616, Note_on_c, 0, 89, 0
2, 56616, Note_on_c, 0, 84, 0
2, 57000, Note_on_c, 0, 89, 111
2, 57000, Note_on_c, 0, 84, 125
2, 57048, Note_on_c, 0, 84, 0
2, 57048, Note_on_c, 0, 89, 0
2, 57060, Note_on_c, 0, 91, 117
2, 57060, Note_on_c, 0, 84, 110
2, 57156, Note_on_c, 0, 84, 0
2, 57156, Note_on_c, 0, 91, 0
2, 57180, Note_on_c, 0, 91, 116
2, 57180, Note_on_c, 0, 84, 111
2, 57228, Note_on_c, 0, 84, 0
2, 57228, Note_on_c, 0, 91, 0
2, 57240, Note_on_c, 0, 89, 118
2, 57240, Note_on_c, 0, 84, 105
2, 57336, Note_on_c, 0, 84, 0
2, 57336, Note_on_c, 0, 89, 0
2, 57540, Note_on_c, 0, 86, 127
2, 57588, Note_on_c, 0, 86, 0
2, 57600, Note_on_c, 0, 84, 118
2, 57648, Note_on_c, 0, 84, 0
2, 57660, Note_on_c, 0, 88, 104
2, 57660, Note_on_c, 0, 82, 87
2, 57708, Note_on_c, 0, 82, 0
2, 57708, Note_on_c, 0, 88, 0
2, 57720, Note_on_c, 0, 89, 113
2, 57720, Note_on_c, 0, 81, 117
2, 57768, Note_on_c, 0, 81, 0
2, 57768, Note_on_c, 0, 89, 0
2, 57780, Note_on_c, 0, 88, 96
2, 57780, Note_on_c, 0, 91, 97
2, 57876, Note_on_c, 0, 91, 0
2, 57876, Note_on_c, 0, 88, 0
2, 57900, Note_on_c, 0, 88, 127
2, 57900, Note_on_c, 0, 91, 127
2, 57948, Note_on_c, 0, 91, 0
2, 57948, Note_on_c, 0, 88, 0
2, 57960, Note_on_c, 0, 89, 102
2, 57960, Note_on_c, 0, 93, 98
2, 58104, Note_on_c, 0, 93, 0
2, 58104, Note_on_c, 0, 89, 0
2, 58140, Note_on_c, 0, 89, 109
2, 58140, Note_on_c, 0, 93, 108
2, 58188, Note_on_c, 0, 93, 0
2, 58188, Note_on_c, 0, 89, 0
2, 58260, Note_on_c, 0, 89, 108
2, 58260, Note_on_c, 0, 93, 107
2, 58308, Note_on_c, 0, 93, 0
2, 58308, Note_on_c, 0, 89, 0
2, 58320, Note_on_c, 0, 91, 123
2, 58320, Note_on_c, 0, 86, 99
2, 58464, Note_on_c, 0, 86, 0
2, 58464, Note_on_c, 0, 91, 0
2, 58500, Note_on_c, 0, 82, 103
2, 58500, Note_on_c, 0, 91, 104
2, 58548, Note_on_c, 0, 91, 0
2, 58548, Note_on_c, 0, 82, 0
2, 58620, Note_on_c, 0, 91, 116
2, 58620, Note_on_c, 0, 86, 109
2, 58668, Note_on_c, 0, 86, 0
2, 58668, Note_on_c, 0, 91, 0
2, 58680, Note_on_c, 0, 93, 112
2, 58680, Note_on_c, 0, 81, 108
2, 58728, Note_on_c, 0, 81, 0
2, 58728, Note_on_c, 0, 93, 0
2, 62100, Note_on_c, 0, 82, 113
2, 62196, Note_on_c, 0, 82, 0
2, 62280, Note_on_c, 0, 82, 118
2, 62376, Note_on_c, 0, 82, 0
2, 62460, Note_on_c, 0, 82, 118
2, 62508, Note_on_c, 0, 82, 0
2, 62580, Note_on_c, 0, 84, 103
2, 62580, Note_on_c, 0, 72, 103
2, 62976, Note_on_c, 0, 72, 0
2, 62976, Note_on_c, 0, 84, 0
2, 63120, Note_on_c, 0, 84, 109
2, 63120, Note_on_c, 0, 72, 110
2, 63276, Note_on_c, 0, 72, 0
2, 63276, Note_on_c, 0, 84, 0
2, 63300, Note_on_c, 0, 84, 114
2, 63300, Note_on_c, 0, 72, 107
2, 63348, Note_on_c, 0, 72, 0
2, 63348, Note_on_c, 0, 84, 0
2, 63360, Note_on_c, 0, 81, 110
2, 63360, Note_on_c, 0, 69, 102
2, 63408, Note_on_c, 0, 69, 0
2, 63408, Note_on_c, 0, 81, 0
2, 65520, Note_on_c, 0, 79, 127
2, 65808, Note_on_c, 0, 79, 0
2, 65880, Note_on_c, 0, 82, 127
2, 65976, Note_on_c, 0, 82, 0
2, 66240, Note_on_c, 0, 79, 127
2, 66528, Note_on_c, 0, 79, 0
2, 66600, Note_on_c, 0, 81, 127
2, 66696, Note_on_c, 0, 81, 0
2, 67020, Note_on_c, 0, 81, 127
2, 67068, Note_on_c, 0, 81, 0
2, 67080, Note_on_c, 0, 81, 123
2, 67128, Note_on_c, 0, 81, 0
2, 67140, Note_on_c, 0, 81, 120
2, 67188, Note_on_c, 0, 81, 0
2, 67200, Note_on_c, 0, 81, 121
2, 67248, Note_on_c, 0, 81, 0
2, 67260, Note_on_c, 0, 81, 127
2, 67308, Note_on_c, 0, 81, 0
2, 67320, Note_on_c, 0, 82, 107
2, 67416, Note_on_c, 0, 82, 0
2, 67740, Note_on_c, 0, 88, 125
2, 67788, Note_on_c, 0, 88, 0
2, 67800, Note_on_c, 0, 88, 121
2, 67848, Note_on_c, 0, 88, 0
2, 67860, Note_on_c, 0, 88, 117
2, 67908, Note_on_c, 0, 88, 0
2, 67920, Note_on_c, 0, 88, 96
2, 67968, Note_on_c, 0, 88, 0
2, 67980, Note_on_c, 0, 88, 112
2, 67980, Note_on_c, 0, 84, 102
2, 68028, Note_on_c, 0, 84, 0
2, 68028, Note_on_c, 0, 88, 0
2, 68040, Note_on_c, 0, 89, 107
2, 68040, Note_on_c, 0, 84, 103
2, 68676, Note_on_c, 0, 84, 0
2, 68676, Note_on_c, 0, 89, 0
2, 68700, Note_on_c, 0, 84, 109
2, 68700, Note_on_c, 0, 89, 106
2, 68748, Note_on_c, 0, 89, 0
2, 68748, Note_on_c, 0, 84, 0
2, 68760, Note_on_c, 0, 86, 117
2, 68760, Note_on_c, 0, 89, 106
2, 69396, Note_on_c, 0, 89, 0
2, 69396, Note_on_c, 0, 86, 0
2, 69420, Note_on_c, 0, 86, 108
2, 69420, Note_on_c, 0, 89, 109
2, 69468, Note_on_c, 0, 89, 0
2, 69468, Note_on_c, 0, 86, 0
2, 69480, Note_on_c, 0, 86, 102
2, 69480, Note_on_c, 0, 89, 109
2, 70116, Note_on_c, 0, 89, 0
2, 70116, Note_on_c, 0, 86, 0
2, 70140, Note_on_c, 0, 86, 106
2, 70140, Note_on_c, 0, 89, 109
2, 70188, Note_on_c, 0, 89, 0
2, 70188, Note_on_c, 0, 86, 0
2, 72300, Note_on_c, 0, 82, 118
2, 72324, Note_on_c, 0, 82, 0
2, 72330, Note_on_c, 0, 82, 127
2, 72354, Note_on_c, 0, 82, 0
2, 72360, Note_on_c, 0, 82, 113
2, 72408, Note_on_c, 0, 82, 0
2, 72480, Note_on_c, 0, 82, 123
2, 72504, Note_on_c, 0, 82, 0
2, 72510, Note_on_c, 0, 82, 127
2, 72534, Note_on_c, 0, 82, 0
2, 72540, Note_on_c, 0, 82, 127
2, 72588, Note_on_c, 0, 82, 0
2, 72660, Note_on_c, 0, 82, 126
2, 72684, Note_on_c, 0, 82, 0
2, 72690, Note_on_c, 0, 82, 126
2, 72714, Note_on_c, 0, 82, 0
2, 72720, Note_on_c, 0, 82, 127
2, 72768, Note_on_c, 0, 82, 0
2, 72840, Note_on_c, 0, 82, 126
2, 72864, Note_on_c, 0, 82, 0
2, 72870, Note_on_c, 0, 82, 127
2, 72894, Note_on_c, 0, 82, 0
2, 72900, Note_on_c, 0, 82, 123
2, 72948, Note_on_c, 0, 82, 0
2, 73020, Note_on_c, 0, 84, 105
2, 73020, Note_on_c, 0, 72, 117
2, 73356, Note_on_c, 0, 72, 0
2, 73356, Note_on_c, 0, 84, 0
2, 73380, Note_on_c, 0, 72, 105
2, 73380, Note_on_c, 0, 84, 98
2, 73536, Note_on_c, 0, 84, 0
2, 73536, Note_on_c, 0, 72, 0
2, 73560, Note_on_c, 0, 84, 102
2, 73560, Note_on_c, 0, 72, 109
2, 73716, Note_on_c, 0, 72, 0
2, 73716, Note_on_c, 0, 84, 0
2, 73740, Note_on_c, 0, 84, 112
2, 73740, Note_on_c, 0, 72, 107
2, 73788, Note_on_c, 0, 72, 0
2, 73788, Note_on_c, 0, 84, 0
2, 73800, Note_on_c, 0, 81, 103
2, 73800, Note_on_c, 0, 69, 105
2, 73896, Note_on_c, 0, 69, 0
2, 73896, Note_on_c, 0, 81, 0
2, 75900, Note_on_c, 0, 72, 113
2, 75948, Note_on_c, 0, 72, 0
2, 75960, Note_on_c, 0, 78, 107
2, 76056, Note_on_c, 0, 78, 0
2, 76080, Note_on_c, 0, 81, 127
2, 76128, Note_on_c, 0, 81, 0
2, 76140, Note_on_c, 0, 84, 120
2, 76236, Note_on_c, 0, 84, 0
2, 76260, Note_on_c, 0, 81, 106
2, 76308, Note_on_c, 0, 81, 0
2, 76320, Note_on_c, 0, 82, 118
2, 76416, Note_on_c, 0, 82, 0
2, 77340, Note_on_c, 0, 72, 127
2, 77388, Note_on_c, 0, 72, 0
2, 77400, Note_on_c, 0, 78, 113
2, 77496, Note_on_c, 0, 78, 0
2, 77520, Note_on_c, 0, 81, 127
2, 77568, Note_on_c, 0, 81, 0
2, 77580, Note_on_c, 0, 84, 127
2, 77676, Note_on_c, 0, 84, 0
2, 77700, Note_on_c, 0, 74, 125
2, 77748, Note_on_c, 0, 74, 0
2, 77760, Note_on_c, 0, 79, 127
2, 77856, Note_on_c, 0, 79, 0
2, 77880, Note_on_c, 0, 82, 111
2, 77928, Note_on_c, 0, 82, 0
2, 77940, Note_on_c, 0, 86, 127
2, 77988, Note_on_c, 0, 86, 0
2, 78060, Note_on_c, 0, 74, 125
2, 78108, Note_on_c, 0, 74, 0
2, 78120, Note_on_c, 0, 76, 120
2, 78216, Note_on_c, 0, 76, 0
2, 78240, Note_on_c, 0, 79, 127
2, 78288, Note_on_c, 0, 79, 0
2, 78300, Note_on_c, 0, 82, 115
2, 78396, Note_on_c, 0, 82, 0
2, 78420, Note_on_c, 0, 88, 104
2, 78420, Note_on_c, 0, 84, 114
2, 78468, Note_on_c, 0, 84, 0
2, 78468, Note_on_c, 0, 88, 0
2, 78480, Note_on_c, 0, 89, 111
2, 78480, Note_on_c, 0, 84, 125
2, 79116, Note_on_c, 0, 84, 0
2, 79116, Note_on_c, 0, 89, 0
2, 79140, Note_on_c, 0, 89, 110
2, 79140, Note_on_c, 0, 84, 123
2, 79188, Note_on_c, 0, 84, 0
2, 79188, Note_on_c, 0, 89, 0
2, 79200, Note_on_c, 0, 89, 103
2, 79200, Note_on_c, 0, 86, 107
2, 79836, Note_on_c, 0, 86, 0
2, 79836, Note_on_c, 0, 89, 0
2, 79860, Note_on_c, 0, 86, 118
2, 79860, Note_on_c, 0, 89, 113
2, 79908, Note_on_c, 0, 89, 0
2, 79908, Note_on_c, 0, 86, 0
2, 79920, Note_on_c, 0, 89, 108
2, 80100, Note_on_c, 0, 91, 107
2, 80556, Note_on_c, 0, 91, 0
2, 80556, Note_on_c, 0, 89, 0
2, 80580, Note_on_c, 0, 91, 120
2, 80580, Note_on_c, 0, 89, 116
2, 80628, Note_on_c, 0, 89, 0
2, 80628, Note_on_c, 0, 91, 0
2, 80640, Note_on_c, 0, 91, 110
2, 80640, Note_on_c, 0, 89, 107
2, 80928, Note_on_c, 0, 89, 0
2, 81000, Note_on_c, 0, 88, 104
2, 81276, Note_on_c, 0, 88, 0
2, 81276, Note_on_c, 0, 91, 0
2, 81300, Note_on_c, 0, 88, 116
2, 81300, Note_on_c, 0, 91, 101
2, 81348, Note_on_c, 0, 91, 0
2, 81348, Note_on_c, 0, 88, 0
2, 81360, Note_on_c, 0, 87, 95
2, 81360, Note_on_c, 0, 91, 120
2, 81648, Note_on_c, 0, 91, 0
2, 81648, Note_on_c, 0, 87, 0
2, 81720, Note_on_c, 0, 89, 111
2, 81720, Note_on_c, 0, 84, 98
2, 82008, Note_on_c, 0, 84, 0
2, 82008, Note_on_c, 0, 89, 0
2, 82080, Note_on_c, 0, 87, 118
2, 82224, Note_on_c, 0, 87, 0
2, 82260, Note_on_c, 0, 86, 125
2, 82404, Note_on_c, 0, 86, 0
2, 82440, Note_on_c, 0, 84, 109
2, 82584, Note_on_c, 0, 84, 0
2, 82620, Note_on_c, 0, 82, 111
2, 82764, Note_on_c, 0, 82, 0
2, 82800, Note_on_c, 0, 81, 127
2, 82944, Note_on_c, 0, 81, 0
2, 82980, Note_on_c, 0, 91, 127
2, 83124, Note_on_c, 0, 91, 0
2, 83160, Note_on_c, 0, 89, 123
2, 83304, Note_on_c, 0, 89, 0
2, 83340, Note_on_c, 0, 88, 121
2, 83484, Note_on_c, 0, 88, 0
2, 83520, Note_on_c, 0, 86, 123
2, 83664, Note_on_c, 0, 86, 0
2, 83700, Note_on_c, 0, 84, 100
2, 84744, Note_on_c, 0, 84, 0
2, 84780, Note_on_c, 0, 82, 100
2, 84876, Note_on_c, 0, 82, 0
2, 84900, Note_on_c, 0, 79, 125
2, 84948, Note_on_c, 0, 79, 0
2, 84960, Note_on_c, 0, 77, 127
2, 85008, Note_on_c, 0, 77, 0
2, 87840, Note_on_c, 0, 89, 125
2, 87840, Note_on_c, 0, 81, 113
2, 87984, Note_on_c, 0, 81, 0
2, 87984, Note_on_c, 0, 89, 0
2, 88020, Note_on_c, 0, 89, 127
2, 88020, Note_on_c, 0, 82, 103
2, 88068, Note_on_c, 0, 82, 0
2, 88068, Note_on_c, 0, 89, 0
2, 88140, Note_on_c, 0, 84, 121
2, 88140, Note_on_c, 0, 89, 117
2, 88188, Note_on_c, 0, 89, 0
2, 88188, Note_on_c, 0, 84, 0
2, 88200, Note_on_c, 0, 89, 105
2, 88200, Note_on_c, 0, 86, 110
2, 88476, Note_on_c, 0, 86, 0
2, 88476, Note_on_c, 0, 89, 0
2, 91020, Note_on_c, 0, 79, 127
2, 91020, Note_on_c, 0, 82, 126
2, 91068, Note_on_c, 0, 82, 0
2, 91068, Note_on_c, 0, 79, 0
2, 91080, Note_on_c, 0, 88, 127
2, 91080, Note_on_c, 0, 79, 116
2, 92448, Note_on_c, 0, 79, 0
2, 92448, Note_on_c, 0, 88, 0
2, 92520, Note_on_c, 0, 89, 116
2, 92808, Note_on_c, 0, 89, 0
2, 92880, Note_on_c, 0, 89, 125
2, 93168, Note_on_c, 0, 89, 0
2, 93240, Note_on_c, 0, 89, 127
2, 94596, Note_on_c, 0, 89, 0
2, 94620, Note_on_c, 0, 93, 106
2, 94620, Note_on_c, 0, 84, 108
2, 94668, Note_on_c, 0, 84, 0
2, 94668, Note_on_c, 0, 93, 0
2, 94680, Note_on_c, 0, 89, 108
2, 94680, Note_on_c, 0, 81, 101
2, 94776, Note_on_c, 0, 81, 0
2, 94776, Note_on_c, 0, 89, 0
2, 94776, End_track
3, 0, Start_track
3, 0, MIDI_port, 0
3, 0, Title_t, "Oboe"
3, 0, Program_c, 1, 68
3, 0, Control_c, 1, 7, 126
3, 0, Note_on_c, 1, 72, 104
3, 0, Note_on_c, 1, 64, 95
3, 96, Note_on_c, 1, 64, 0
3, 96, Note_on_c, 1, 72, 0
3, 8340, Note_on_c, 1, 77, 114
3, 8340, Note_on_c, 1, 81, 120
3, 8388, Note_on_c, 1, 81, 0
3, 8388, Note_on_c, 1, 77, 0
3, 8400, Note_on_c, 1, 77, 109
3, 8400, Note_on_c, 1, 81, 104
3, 8448, Note_on_c, 1, 81, 0
3, 8448, Note_on_c, 1, 77, 0
3, 8460, Note_on_c, 1, 77, 108
3, 8460, Note_on_c, 1, 81, 106
3, 8508, Note_on_c, 1, 81, 0
3, 8508, Note_on_c, 1, 77, 0
3, 8520, Note_on_c, 1, 81, 104
3, 8520, Note_on_c, 1, 77, 109
3, 8568, Note_on_c, 1, 77, 0
3, 8568, Note_on_c, 1, 81, 0
3, 8580, Note_on_c, 1, 77, 113
3, 8580, Note_on_c, 1, 81, 114
3, 8628, Note_on_c, 1, 81, 0
3, 8628, Note_on_c, 1, 77, 0
3, 8640, Note_on_c, 1, 77, 120
3, 8640, Note_on_c, 1, 81, 112
3, 8928, Note_on_c, 1, 81, 0
3, 8928, Note_on_c, 1, 77, 0
3, 9000, Note_on_c, 1, 77, 116
3, 9000, Note_on_c, 1, 81, 108
3, 9288, Note_on_c, 1, 81, 0
3, 9288, Note_on_c, 1, 77, 0
3, 9360, Note_on_c, 1, 81, 118
3, 9360, Note_on_c, 1, 77, 120
3, 9648, Note_on_c, 1, 77, 0
3, 9648, Note_on_c, 1, 81, 0
3, 9720, Note_on_c, 1, 82, 83
3, 9720, Note_on_c, 1, 77, 120
3, 9996, Note_on_c, 1, 77, 0
3, 9996, Note_on_c, 1, 82, 0
3, 10020, Note_on_c, 1, 79, 127
3, 10020, Note_on_c, 1, 82, 97
3, 10068, Note_on_c, 1, 82, 0
3, 10068, Note_on_c, 1, 79, 0
3, 10080, Note_on_c, 1, 79, 127
3, 10080, Note_on_c, 1, 82, 107
3, 10368, Note_on_c, 1, 82, 0
3, 10368, Note_on_c, 1, 79, 0
3, 10440, Note_on_c, 1, 77, 121
3, 10440, Note_on_c, 1, 81, 111
3, 10716, Note_on_c, 1, 81, 0
3, 10716, Note_on_c, 1, 77, 0
3, 10740, Note_on_c, 1, 81, 118
3, 10740, Note_on_c, 1, 77, 127
3, 10788, Note_on_c, 1, 77, 0
3, 10788, Note_on_c, 1, 81, 0
3, 10800, Note_on_c, 1, 77, 127
3, 10800, Note_on_c, 1, 79, 127
3, 10944, Note_on_c, 1, 79, 0
3, 10944, Note_on_c, 1, 77, 0
3, 10980, Note_on_c, 1, 76, 123
3, 10980, Note_on_c, 1, 79, 121
3, 11124, Note_on_c, 1, 79, 0
3, 11124, Note_on_c, 1, 76, 0
3, 11160, Note_on_c, 1, 77, 127
3, 11160, Note_on_c, 1, 81, 117
3, 11208, Note_on_c, 1, 81, 0
3, 11208, Note_on_c, 1, 77, 0
3, 11820, Note_on_c, 1, 76, 121
3, 11820, Note_on_c, 1, 79, 116
3, 11868, Note_on_c, 1, 79, 0
3, 11868, Note_on_c, 1, 76, 0
3, 11880, Note_on_c, 1, 77, 127
3, 12024, Note_on_c, 1, 77, 0
3, 12060, Note_on_c, 1, 79, 127
3, 12204, Note_on_c, 1, 79, 0
3, 12240, Note_on_c, 1, 81, 127
3, 12240, Note_on_c, 1, 77, 127
3, 12384, Note_on_c, 1, 77, 0
3, 12384, Note_on_c, 1, 81, 0
3, 12420, Note_on_c, 1, 82, 107
3, 12420, Note_on_c, 1, 79, 127
3, 12516, Note_on_c, 1, 79, 0
3, 12516, Note_on_c, 1, 82, 0
3, 12540, Note_on_c, 1, 76, 114
3, 12540, Note_on_c, 1, 79, 110
3, 12588, Note_on_c, 1, 79, 0
3, 12588, Note_on_c, 1, 76, 0
3, 13260, Note_on_c, 1, 76, 127
3, 13260, Note_on_c, 1, 79, 127
3, 13308, Note_on_c, 1, 79, 0
3, 13308, Note_on_c, 1, 76, 0
3, 13320, Note_on_c, 1, 77, 127
3, 13464, Note_on_c, 1, 77, 0
3, 13500, Note_on_c, 1, 79, 127
3, 13644, Note_on_c, 1, 79, 0
3, 13680, Note_on_c, 1, 81, 127
3, 13680, Note_on_c, 1, 77, 127
3, 13824, Note_on_c, 1, 77, 0
3, 13824, Note_on_c, 1, 81, 0
3, 13860, Note_on_c, 1, 82, 113
3, 13860, Note_on_c, 1, 76, 114
3, 13956, Note_on_c, 1, 76, 0
3, 13956, Note_on_c, 1, 82, 0
3, 13980, Note_on_c, 1, 82, 107
3, 13980, Note_on_c, 1, 76, 117
3, 14028, Note_on_c, 1, 76, 0
3, 14028, Note_on_c, 1, 82, 0
3, 14040, Note_on_c, 1, 81, 127
3, 14040, Note_on_c, 1, 77, 125
3, 14184, Note_on_c, 1, 77, 0
3, 14184, Note_on_c, 1, 81, 0
3, 14220, Note_on_c, 1, 77, 127
3, 14220, Note_on_c, 1, 79, 121
3, 14316, Note_on_c, 1, 79, 0
3, 14316, Note_on_c, 1, 77, 0
3, 14340, Note_on_c, 1, 77, 125
3, 14340, Note_on_c, 1, 79, 127
3, 14388, Note_on_c, 1, 79, 0
3, 14388, Note_on_c, 1, 77, 0
3, 14400, Note_on_c, 1, 79, 125
3, 14400, Note_on_c, 1, 76, 127
3, 14544, Note_on_c, 1, 76, 0
3, 14544, Note_on_c, 1, 79, 0
3, 14580, Note_on_c, 1, 77, 127
3, 14580, Note_on_c, 1, 79, 120
3, 14676, Note_on_c, 1, 79, 0
3, 14676, Note_on_c, 1, 77, 0
3, 14700, Note_on_c, 1, 79, 107
3, 14700, Note_on_c, 1, 71, 111
3, 14748, Note_on_c, 1, 71, 0
3, 14748, Note_on_c, 1, 79, 0
3, 14760, Note_on_c, 1, 79, 105
3, 14760, Note_on_c, 1, 72, 117
3, 15036, Note_on_c, 1, 72, 0
3, 15036, Note_on_c, 1, 79, 0
3, 15060, Note_on_c, 1, 76, 110
3, 15060, Note_on_c, 1, 72, 108
3, 15108, Note_on_c, 1, 72, 0
3, 15108, Note_on_c, 1, 76, 0
3, 15120, Note_on_c, 1, 76, 118
3, 15120, Note_on_c, 1, 72, 113
3, 15216, Note_on_c, 1, 72, 0
3, 15216, Note_on_c, 1, 76, 0
3, 15240, Note_on_c, 1, 72, 116
3, 15240, Note_on_c, 1, 76, 118
3, 15288, Note_on_c, 1, 76, 0
3, 15288, Note_on_c, 1, 72, 0
3, 15300, Note_on_c, 1, 72, 109
3, 15300, Note_on_c, 1, 76, 118
3, 15396, Note_on_c, 1, 76, 0
3, 15396, Note_on_c, 1, 72, 0
3, 15420, Note_on_c, 1, 76, 121
3, 15420, Note_on_c, 1, 72, 118
3, 15468, Note_on_c, 1, 72, 0
3, 15468, Note_on_c, 1, 76, 0
3, 15480, Note_on_c, 1, 74, 104
3, 15480, Note_on_c, 1, 77, 112
3, 15756, Note_on_c, 1, 77, 0
3, 15756, Note_on_c, 1, 74, 0
3, 15780, Note_on_c, 1, 74, 96
3, 15780, Note_on_c, 1, 71, 105
3, 15828, Note_on_c, 1, 71, 0
3, 15828, Note_on_c, 1, 74, 0
3, 15840, Note_on_c, 1, 71, 113
3, 15840, Note_on_c, 1, 74, 113
3, 15936, Note_on_c, 1, 74, 0
3, 15936, Note_on_c, 1, 71, 0
3, 15960, Note_on_c, 1, 71, 113
3, 15960, Note_on_c, 1, 74, 113
3, 16008, Note_on_c, 1, 74, 0
3, 16008, Note_on_c, 1, 71, 0
3, 16020, Note_on_c, 1, 74, 111
3, 16020, Note_on_c, 1, 71, 113
3, 16116, Note_on_c, 1, 71, 0
3, 16116, Note_on_c, 1, 74, 0
3, 16140, Note_on_c, 1, 74, 118
3, 16140, Note_on_c, 1, 71, 120
3, 16188, Note_on_c, 1, 71, 0
3, 16188, Note_on_c, 1, 74, 0
3, 16200, Note_on_c, 1, 76, 125
3, 16200, Note_on_c, 1, 79, 127
3, 16296, Note_on_c, 1, 79, 0
3, 16296, Note_on_c, 1, 76, 0
3, 16320, Note_on_c, 1, 76, 117
3, 16320, Note_on_c, 1, 79, 117
3, 16368, Note_on_c, 1, 79, 0
3, 16368, Note_on_c, 1, 76, 0
3, 16380, Note_on_c, 1, 76, 112
3, 16380, Note_on_c, 1, 79, 112
3, 16476, Note_on_c, 1, 79, 0
3, 16476, Note_on_c, 1, 76, 0
3, 16500, Note_on_c, 1, 79, 118
3, 16500, Note_on_c, 1, 76, 114
3, 16548, Note_on_c, 1, 76, 0
3, 16548, Note_on_c, 1, 79, 0
3, 16560, Note_on_c, 1, 79, 106
3, 16560, Note_on_c, 1, 76, 105
3, 16656, Note_on_c, 1, 76, 0
3, 16656, Note_on_c, 1, 79, 0
3, 16680, Note_on_c, 1, 76, 113
3, 16680, Note_on_c, 1, 72, 111
3, 16728, Note_on_c, 1, 72, 0
3, 16728, Note_on_c, 1, 76, 0
3, 16740, Note_on_c, 1, 76, 117
3, 16740, Note_on_c, 1, 72, 108
3, 16836, Note_on_c, 1, 72, 0
3, 16836, Note_on_c, 1, 76, 0
3, 16860, Note_on_c, 1, 76, 120
3, 16860, Note_on_c, 1, 72, 106
3, 16908, Note_on_c, 1, 72, 0
3, 16908, Note_on_c, 1, 76, 0
3, 16920, Note_on_c, 1, 77, 107
3, 16920, Note_on_c, 1, 74, 114
3, 17016, Note_on_c, 1, 74, 0
3, 17016, Note_on_c, 1, 77, 0
3, 17040, Note_on_c, 1, 77, 121
3, 17040, Note_on_c, 1, 74, 125
3, 17088, Note_on_c, 1, 74, 0
3, 17088, Note_on_c, 1, 77, 0
3, 17100, Note_on_c, 1, 77, 121
3, 17100, Note_on_c, 1, 74, 120
3, 17196, Note_on_c, 1, 74, 0
3, 17196, Note_on_c, 1, 77, 0
3, 17220, Note_on_c, 1, 77, 125
3, 17220, Note_on_c, 1, 74, 120
3, 17268, Note_on_c, 1, 74, 0
3, 17268, Note_on_c, 1, 77, 0
3, 17280, Note_on_c, 1, 77, 113
3, 17280, Note_on_c, 1, 74, 110
3, 17376, Note_on_c, 1, 74, 0
3, 17376, Note_on_c, 1, 77, 0
3, 17400, Note_on_c, 1, 74, 123
3, 17400, Note_on_c, 1, 71, 110
3, 17448, Note_on_c, 1, 71, 0
3, 17448, Note_on_c, 1, 74, 0
3, 17460, Note_on_c, 1, 74, 120
3, 17460, Note_on_c, 1, 71, 109
3, 17556, Note_on_c, 1, 71, 0
3, 17556, Note_on_c, 1, 74, 0
3, 17580, Note_on_c, 1, 74, 125
3, 17580, Note_on_c, 1, 71, 117
3, 17628, Note_on_c, 1, 71, 0
3, 17628, Note_on_c, 1, 74, 0
3, 17640, Note_on_c, 1, 72, 120
3, 17640, Note_on_c, 1, 76, 127
3, 17736, Note_on_c, 1, 76, 0
3, 17736, Note_on_c, 1, 72, 0
3, 17940, Note_on_c, 1, 72, 97
3, 18048, Note_on_c, 1, 72, 0
3, 18060, Note_on_c, 1, 77, 101
3, 18108, Note_on_c, 1, 77, 0
3, 18120, Note_on_c, 1, 76, 98
3, 18168, Note_on_c, 1, 76, 0
3, 18180, Note_on_c, 1, 77, 50
3, 18180, Note_on_c, 1, 74, 50
3, 18276, Note_on_c, 1, 74, 0
3, 18276, Note_on_c, 1, 77, 0
3, 18300, Note_on_c, 1, 74, 103
3, 18300, Note_on_c, 1, 77, 109
3, 18348, Note_on_c, 1, 77, 0
3, 18348, Note_on_c, 1, 74, 0
3, 18360, Note_on_c, 1, 76, 103
3, 18360, Note_on_c, 1, 72, 103
3, 18408, Note_on_c, 1, 72, 0
3, 18408, Note_on_c, 1, 76, 0
3, 18660, Note_on_c, 1, 72, 99
3, 18768, Note_on_c, 1, 72, 0
3, 18780, Note_on_c, 1, 77, 107
3, 18828, Note_on_c, 1, 77, 0
3, 18840, Note_on_c, 1, 76, 100
3, 18840, Note_on_c, 1, 72, 100
3, 18888, Note_on_c, 1, 72, 0
3, 18888, Note_on_c, 1, 76, 0
3, 18900, Note_on_c, 1, 77, 104
3, 18900, Note_on_c, 1, 74, 106
3, 18996, Note_on_c, 1, 74, 0
3, 18996, Note_on_c, 1, 77, 0
3, 19020, Note_on_c, 1, 77, 103
3, 19020, Note_on_c, 1, 74, 105
3, 19068, Note_on_c, 1, 74, 0
3, 19068, Note_on_c, 1, 77, 0
3, 19080, Note_on_c, 1, 76, 98
3, 19080, Note_on_c, 1, 72, 99
3, 19224, Note_on_c, 1, 72, 0
3, 19224, Note_on_c, 1, 76, 0
3, 19260, Note_on_c, 1, 72, 101
3, 19260, Note_on_c, 1, 76, 101
3, 19308, Note_on_c, 1, 76, 0
3, 19308, Note_on_c, 1, 72, 0
3, 19380, Note_on_c, 1, 72, 118
3, 19380, Note_on_c, 1, 76, 120
3, 19428, Note_on_c, 1, 76, 0
3, 19428, Note_on_c, 1, 72, 0
3, 19440, Note_on_c, 1, 74, 108
3, 19440, Note_on_c, 1, 77, 108
3, 19584, Note_on_c, 1, 77, 0
3, 19584, Note_on_c, 1, 74, 0
3, 19620, Note_on_c, 1, 74, 98
3, 19620, Note_on_c, 1, 77, 98
3, 19668, Note_on_c, 1, 77, 0
3, 19668, Note_on_c, 1, 74, 0
3, 19740, Note_on_c, 1, 74, 110
3, 19740, Note_on_c, 1, 77, 113
3, 19788, Note_on_c, 1, 77, 0
3, 19788, Note_on_c, 1, 74, 0
3, 19800, Note_on_c, 1, 76, 112
3, 19800, Note_on_c, 1, 72, 121
3, 19848, Note_on_c, 1, 72, 0
3, 19848, Note_on_c, 1, 76, 0
3, 21060, Note_on_c, 1, 76, 109
3, 21108, Note_on_c, 1, 76, 0
3, 21120, Note_on_c, 1, 72, 121
3, 21168, Note_on_c, 1, 72, 0
3, 21180, Note_on_c, 1, 79, 120
3, 21228, Note_on_c, 1, 79, 0
3, 21240, Note_on_c, 1, 76, 100
3, 21288, Note_on_c, 1, 76, 0
3, 21300, Note_on_c, 1, 72, 109
3, 21348, Note_on_c, 1, 72, 0
3, 21360, Note_on_c, 1, 79, 112
3, 21408, Note_on_c, 1, 79, 0
3, 22140, Note_on_c, 1, 70, 81
3, 22608, Note_on_c, 1, 70, 0
3, 22680, Note_on_c, 1, 69, 103
3, 22776, Note_on_c, 1, 69, 0
3, 27000, Note_on_c, 1, 75, 95
3, 27000, Note_on_c, 1, 72, 107
3, 27048, Note_on_c, 1, 72, 0
3, 27048, Note_on_c, 1, 75, 0
3, 27060, Note_on_c, 1, 72, 102
3, 27060, Note_on_c, 1, 75, 85
3, 27108, Note_on_c, 1, 75, 0
3, 27108, Note_on_c, 1, 72, 0
3, 27120, Note_on_c, 1, 72, 105
3, 27120, Note_on_c, 1, 75, 82
3, 27168, Note_on_c, 1, 75, 0
3, 27168, Note_on_c, 1, 72, 0
3, 27180, Note_on_c, 1, 72, 107
3, 27180, Note_on_c, 1, 75, 85
3, 27228, Note_on_c, 1, 75, 0
3, 27228, Note_on_c, 1, 72, 0
3, 27240, Note_on_c, 1, 72, 101
3, 27240, Note_on_c, 1, 75, 81
3, 27288, Note_on_c, 1, 75, 0
3, 27288, Note_on_c, 1, 72, 0
3, 27300, Note_on_c, 1, 72, 103
3, 27300, Note_on_c, 1, 75, 82
3, 27348, Note_on_c, 1, 75, 0
3, 27348, Note_on_c, 1, 72, 0
3, 27360, Note_on_c, 1, 75, 82
3, 27360, Note_on_c, 1, 72, 102
3, 27408, Note_on_c, 1, 72, 0
3, 27408, Note_on_c, 1, 75, 0
3, 27420, Note_on_c, 1, 72, 101
3, 27420, Note_on_c, 1, 75, 84
3, 27468, Note_on_c, 1, 75, 0
3, 27468, Note_on_c, 1, 72, 0
3, 27480, Note_on_c, 1, 72, 104
3, 27480, Note_on_c, 1, 75, 89
3, 27528, Note_on_c, 1, 75, 0
3, 27528, Note_on_c, 1, 72, 0
3, 27540, Note_on_c, 1, 72, 105
3, 27540, Note_on_c, 1, 75, 91
3, 27588, Note_on_c, 1, 75, 0
3, 27588, Note_on_c, 1, 72, 0
3, 27600, Note_on_c, 1, 75, 101
3, 27600, Note_on_c, 1, 72, 104
3, 27648, Note_on_c, 1, 72, 0
3, 27648, Note_on_c, 1, 75, 0
3, 27660, Note_on_c, 1, 77, 127
3, 27660, Note_on_c, 1, 69, 121
3, 27708, Note_on_c, 1, 69, 0
3, 27708, Note_on_c, 1, 77, 0
3, 27720, Note_on_c, 1, 77, 114
3, 27720, Note_on_c, 1, 69, 107
3, 27816, Note_on_c, 1, 69, 0
3, 27816, Note_on_c, 1, 77, 0
3, 27840, Note_on_c, 1, 69, 113
3, 27840, Note_on_c, 1, 77, 112
3, 27888, Note_on_c, 1, 77, 0
3, 27888, Note_on_c, 1, 69, 0
3, 27900, Note_on_c, 1, 77, 110
3, 27900, Note_on_c, 1, 69, 109
3, 27996, Note_on_c, 1, 69, 0
3, 27996, Note_on_c, 1, 77, 0
3, 28020, Note_on_c, 1, 77, 107
3, 28020, Note_on_c, 1, 69, 112
3, 28068, Note_on_c, 1, 69, 0
3, 28068, Note_on_c, 1, 77, 0
3, 28080, Note_on_c, 1, 77, 105
3, 28080, Note_on_c, 1, 69, 109
3, 28176, Note_on_c, 1, 69, 0
3, 28176, Note_on_c, 1, 77, 0
3, 28200, Note_on_c, 1, 77, 102
3, 28200, Note_on_c, 1, 69, 102
3, 28248, Note_on_c, 1, 69, 0
3, 28248, Note_on_c, 1, 77, 0
3, 28260, Note_on_c, 1, 77, 102
3, 28260, Note_on_c, 1, 69, 102
3, 28356, Note_on_c, 1, 69, 0
3, 28356, Note_on_c, 1, 77, 0
3, 28380, Note_on_c, 1, 69, 104
3, 28380, Note_on_c, 1, 77, 101
3, 28428, Note_on_c, 1, 77, 0
3, 28428, Note_on_c, 1, 69, 0
3, 28440, Note_on_c, 1, 70, 82
3, 28440, Note_on_c, 1, 74, 102
3, 28536, Note_on_c, 1, 74, 0
3, 28536, Note_on_c, 1, 70, 0
3, 29100, Note_on_c, 1, 70, 94
3, 29100, Note_on_c, 1, 74, 120
3, 29148, Note_on_c, 1, 74, 0
3, 29148, Note_on_c, 1, 70, 0
3, 29160, Note_on_c, 1, 75, 93
3, 29160, Note_on_c, 1, 70, 83
3, 29256, Note_on_c, 1, 70, 0
3, 29256, Note_on_c, 1, 75, 0
3, 29280, Note_on_c, 1, 69, 110
3, 29328, Note_on_c, 1, 69, 0
3, 29820, Note_on_c, 1, 71, 104
3, 29820, Note_on_c, 1, 74, 101
3, 29868, Note_on_c, 1, 74, 0
3, 29868, Note_on_c, 1, 71, 0
3, 29880, Note_on_c, 1, 71, 117
3, 29880, Note_on_c, 1, 74, 114
3, 29976, Note_on_c, 1, 74, 0
3, 29976, Note_on_c, 1, 71, 0
3, 30000, Note_on_c, 1, 72, 109
3, 30000, Note_on_c, 1, 75, 79
3, 30048, Note_on_c, 1, 75, 0
3, 30048, Note_on_c, 1, 72, 0
3, 30540, Note_on_c, 1, 69, 113
3, 30540, Note_on_c, 1, 72, 116
3, 30588, Note_on_c, 1, 72, 0
3, 30588, Note_on_c, 1, 69, 0
3, 30600, Note_on_c, 1, 70, 85
3, 30600, Note_on_c, 1, 74, 120
3, 30696, Note_on_c, 1, 74, 0
3, 30696, Note_on_c, 1, 70, 0
3, 30900, Note_on_c, 1, 82, 103
3, 30900, Note_on_c, 1, 70, 101
3, 30948, Note_on_c, 1, 70, 0
3, 30948, Note_on_c, 1, 82, 0
3, 30960, Note_on_c, 1, 82, 96
3, 30960, Note_on_c, 1, 70, 99
3, 31056, Note_on_c, 1, 70, 0
3, 31056, Note_on_c, 1, 82, 0
3, 31260, Note_on_c, 1, 82, 107
3, 31260, Note_on_c, 1, 70, 100
3, 31308, Note_on_c, 1, 70, 0
3, 31308, Note_on_c, 1, 82, 0
3, 31320, Note_on_c, 1, 82, 118
3, 31320, Note_on_c, 1, 70, 90
3, 31416, Note_on_c, 1, 70, 0
3, 31416, Note_on_c, 1, 82, 0
3, 31620, Note_on_c, 1, 77, 98
3, 31620, Note_on_c, 1, 65, 103
3, 31668, Note_on_c, 1, 65, 0
3, 31668, Note_on_c, 1, 77, 0
3, 31680, Note_on_c, 1, 77, 106
3, 31680, Note_on_c, 1, 65, 106
3, 31776, Note_on_c, 1, 65, 0
3, 31776, Note_on_c, 1, 77, 0
3, 31980, Note_on_c, 1, 77, 103
3, 31980, Note_on_c, 1, 65, 109
3, 32028, Note_on_c, 1, 65, 0
3, 32028, Note_on_c, 1, 77, 0
3, 32040, Note_on_c, 1, 77, 104
3, 32040, Note_on_c, 1, 65, 99
3, 32136, Note_on_c, 1, 65, 0
3, 32136, Note_on_c, 1, 77, 0
3, 32160, Note_on_c, 1, 70, 93
3, 32160, Note_on_c, 1, 82, 85
3, 32208, Note_on_c, 1, 82, 0
3, 32208, Note_on_c, 1, 70, 0
3, 32220, Note_on_c, 1, 70, 100
3, 32220, Note_on_c, 1, 82, 94
3, 32316, Note_on_c, 1, 82, 0
3, 32316, Note_on_c, 1, 70, 0
3, 32340, Note_on_c, 1, 82, 100
3, 32340, Note_on_c, 1, 70, 92
3, 32388, Note_on_c, 1, 70, 0
3, 32388, Note_on_c, 1, 82, 0
3, 32400, Note_on_c, 1, 82, 81
3, 32400, Note_on_c, 1, 70, 85
3, 32688, Note_on_c, 1, 70, 0
3, 32688, Note_on_c, 1, 82, 0
3, 32760, Note_on_c, 1, 70, 93
3, 32760, Note_on_c, 1, 82, 85
3, 33048, Note_on_c, 1, 82, 0
3, 33048, Note_on_c, 1, 70, 0
3, 33120, Note_on_c, 1, 82, 97
3, 33120, Note_on_c, 1, 73, 86
3, 33408, Note_on_c, 1, 82, 0
3, 33480, Note_on_c, 1, 80, 123
3, 33576, Note_on_c, 1, 80, 0
3, 33576, Note_on_c, 1, 73, 0
3, 35940, Note_on_c, 1, 74, 113
3, 35940, Note_on_c, 1, 77, 121
3, 35988, Note_on_c, 1, 77, 0
3, 35988, Note_on_c, 1, 74, 0
3, 36000, Note_on_c, 1, 71, 121
3, 36144, Note_on_c, 1, 71, 0
3, 36180, Note_on_c, 1, 67, 103
3, 36228, Note_on_c, 1, 67, 0
3, 36300, Note_on_c, 1, 74, 114
3, 36348, Note_on_c, 1, 74, 0
3, 36360, Note_on_c, 1, 72, 125
3, 36504, Note_on_c, 1, 72, 0
3, 36540, Note_on_c, 1, 67, 99
3, 36588, Note_on_c, 1, 67, 0
3, 36660, Note_on_c, 1, 76, 121
3, 36708, Note_on_c, 1, 76, 0
3, 37380, Note_on_c, 1, 77, 114
3, 37380, Note_on_c, 1, 74, 104
3, 37428, Note_on_c, 1, 74, 0
3, 37428, Note_on_c, 1, 77, 0
3, 37440, Note_on_c, 1, 71, 112
3, 37584, Note_on_c, 1, 71, 0
3, 37620, Note_on_c, 1, 67, 99
3, 37668, Note_on_c, 1, 67, 0
3, 37740, Note_on_c, 1, 74, 127
3, 37788, Note_on_c, 1, 74, 0
3, 37800, Note_on_c, 1, 72, 112
3, 37944, Note_on_c, 1, 72, 0
3, 37980, Note_on_c, 1, 67, 101
3, 38028, Note_on_c, 1, 67, 0
3, 38100, Note_on_c, 1, 76, 116
3, 38148, Note_on_c, 1, 76, 0
3, 38160, Note_on_c, 1, 72, 123
3, 38304, Note_on_c, 1, 72, 0
3, 38340, Note_on_c, 1, 67, 101
3, 38388, Note_on_c, 1, 67, 0
3, 38460, Note_on_c, 1, 76, 108
3, 38508, Note_on_c, 1, 76, 0
3, 38520, Note_on_c, 1, 72, 106
3, 38664, Note_on_c, 1, 72, 0
3, 38700, Note_on_c, 1, 67, 103
3, 38748, Note_on_c, 1, 67, 0
3, 38820, Note_on_c, 1, 76, 123
3, 38868, Note_on_c, 1, 76, 0
3, 38880, Note_on_c, 1, 72, 116
3, 39024, Note_on_c, 1, 72, 0
3, 39060, Note_on_c, 1, 67, 108
3, 39156, Note_on_c, 1, 67, 0
3, 39180, Note_on_c, 1, 76, 127
3, 39228, Note_on_c, 1, 76, 0
3, 39240, Note_on_c, 1, 72, 110
3, 39384, Note_on_c, 1, 72, 0
3, 39420, Note_on_c, 1, 67, 99
3, 39516, Note_on_c, 1, 67, 0
3, 39540, Note_on_c, 1, 76, 110
3, 39588, Note_on_c, 1, 76, 0
3, 40320, Note_on_c, 1, 72, 102
3, 40320, Note_on_c, 1, 76, 105
3, 41004, Note_on_c, 1, 76, 0
3, 41004, Note_on_c, 1, 72, 0
3, 41040, Note_on_c, 1, 76, 112
3, 41040, Note_on_c, 1, 79, 106
3, 41688, Note_on_c, 1, 79, 0
3, 41688, Note_on_c, 1, 76, 0
3, 41760, Note_on_c, 1, 77, 99
3, 41760, Note_on_c, 1, 81, 103
3, 41856, Note_on_c, 1, 81, 0
3, 41856, Note_on_c, 1, 77, 0
3, 47220, Note_on_c, 1, 81, 99
3, 47220, Note_on_c, 1, 77, 101
3, 47268, Note_on_c, 1, 77, 0
3, 47268, Note_on_c, 1, 81, 0
3, 47280, Note_on_c, 1, 81, 102
3, 47280, Note_on_c, 1, 77, 104
3, 47328, Note_on_c, 1, 77, 0
3, 47328, Note_on_c, 1, 81, 0
3, 47340, Note_on_c, 1, 81, 103
3, 47340, Note_on_c, 1, 77, 105
3, 47388, Note_on_c, 1, 77, 0
3, 47388, Note_on_c, 1, 81, 0
3, 47400, Note_on_c, 1, 81, 104
3, 47400, Note_on_c, 1, 77, 105
3, 47448, Note_on_c, 1, 77, 0
3, 47448, Note_on_c, 1, 81, 0
3, 47460, Note_on_c, 1, 77, 112
3, 47460, Note_on_c, 1, 81, 109
3, 47508, Note_on_c, 1, 81, 0
3, 47508, Note_on_c, 1, 77, 0
3, 47520, Note_on_c, 1, 81, 109
3, 47520, Note_on_c, 1, 77, 109
3, 47796, Note_on_c, 1, 77, 0
3, 47796, Note_on_c, 1, 81, 0
3, 47820, Note_on_c, 1, 81, 111
3, 47820, Note_on_c, 1, 77, 114
3, 47868, Note_on_c, 1, 77, 0
3, 47868, Note_on_c, 1, 81, 0
3, 47880, Note_on_c, 1, 81, 102
3, 47880, Note_on_c, 1, 77, 104
3, 48156, Note_on_c, 1, 77, 0
3, 48156, Note_on_c, 1, 81, 0
3, 48180, Note_on_c, 1, 81, 106
3, 48180, Note_on_c, 1, 77, 107
3, 48228, Note_on_c, 1, 77, 0
3, 48228, Note_on_c, 1, 81, 0
3, 48240, Note_on_c, 1, 81, 107
3, 48240, Note_on_c, 1, 77, 109
3, 48516, Note_on_c, 1, 77, 0
3, 48516, Note_on_c, 1, 81, 0
3, 48540, Note_on_c, 1, 77, 110
3, 48540, Note_on_c, 1, 81, 107
3, 48588, Note_on_c, 1, 81, 0
3, 48588, Note_on_c, 1, 77, 0
3, 48600, Note_on_c, 1, 77, 100
3, 48600, Note_on_c, 1, 82, 80
3, 48876, Note_on_c, 1, 82, 0
3, 48876, Note_on_c, 1, 77, 0
3, 48900, Note_on_c, 1, 82, 76
3, 48900, Note_on_c, 1, 79, 103
3, 48948, Note_on_c, 1, 79, 0
3, 48948, Note_on_c, 1, 82, 0
3, 48960, Note_on_c, 1, 82, 78
3, 48960, Note_on_c, 1, 79, 108
3, 49236, Note_on_c, 1, 79, 0
3, 49236, Note_on_c, 1, 82, 0
3, 49260, Note_on_c, 1, 79, 112
3, 49260, Note_on_c, 1, 82, 95
3, 49308, Note_on_c, 1, 82, 0
3, 49308, Note_on_c, 1, 79, 0
3, 49320, Note_on_c, 1, 79, 105
3, 49320, Note_on_c, 1, 81, 107
3, 49368, Note_on_c, 1, 79, 0
3, 49380, Note_on_c, 1, 77, 104
3, 49416, Note_on_c, 1, 81, 0
3, 49440, Note_on_c, 1, 81, 121
3, 49488, Note_on_c, 1, 81, 0
3, 49596, Note_on_c, 1, 77, 0
3, 49620, Note_on_c, 1, 77, 104
3, 49668, Note_on_c, 1, 77, 0
3, 49680, Note_on_c, 1, 77, 107
3, 49680, Note_on_c, 1, 79, 113
3, 49824, Note_on_c, 1, 79, 0
3, 49824, Note_on_c, 1, 77, 0
3, 49860, Note_on_c, 1, 76, 100
3, 49860, Note_on_c, 1, 79, 108
3, 50004, Note_on_c, 1, 79, 0
3, 50004, Note_on_c, 1, 76, 0
3, 50040, Note_on_c, 1, 81, 102
3, 50040, Note_on_c, 1, 77, 105
3, 50088, Note_on_c, 1, 77, 0
3, 50088, Note_on_c, 1, 81, 0
3, 50700, Note_on_c, 1, 76, 123
3, 50700, Note_on_c, 1, 79, 111
3, 50760, Note_on_c, 1, 77, 109
3, 50796, Note_on_c, 1, 79, 0
3, 50796, Note_on_c, 1, 76, 0
3, 50904, Note_on_c, 1, 77, 0
3, 50940, Note_on_c, 1, 79, 118
3, 51084, Note_on_c, 1, 79, 0
3, 51120, Note_on_c, 1, 81, 102
3, 51120, Note_on_c, 1, 77, 116
3, 51264, Note_on_c, 1, 77, 0
3, 51264, Note_on_c, 1, 81, 0
3, 51300, Note_on_c, 1, 82, 83
3, 51300, Note_on_c, 1, 79, 125
3, 51396, Note_on_c, 1, 79, 0
3, 51396, Note_on_c, 1, 82, 0
3, 51420, Note_on_c, 1, 76, 109
3, 51420, Note_on_c, 1, 79, 108
3, 51468, Note_on_c, 1, 79, 0
3, 51468, Note_on_c, 1, 76, 0
3, 52140, Note_on_c, 1, 71, 107
3, 52140, Note_on_c, 1, 77, 107
3, 52188, Note_on_c, 1, 77, 0
3, 52188, Note_on_c, 1, 71, 0
3, 52200, Note_on_c, 1, 72, 123
3, 52200, Note_on_c, 1, 77, 112
3, 52344, Note_on_c, 1, 77, 0
3, 52344, Note_on_c, 1, 72, 0
3, 52380, Note_on_c, 1, 74, 116
3, 52380, Note_on_c, 1, 77, 107
3, 52476, Note_on_c, 1, 77, 0
3, 52476, Note_on_c, 1, 74, 0
3, 52500, Note_on_c, 1, 74, 111
3, 52500, Note_on_c, 1, 77, 107
3, 52548, Note_on_c, 1, 77, 0
3, 52548, Note_on_c, 1, 74, 0
3, 52560, Note_on_c, 1, 72, 104
3, 52560, Note_on_c, 1, 76, 99
3, 52704, Note_on_c, 1, 76, 0
3, 52704, Note_on_c, 1, 72, 0
3, 52740, Note_on_c, 1, 71, 109
3, 52740, Note_on_c, 1, 77, 103
3, 52836, Note_on_c, 1, 77, 0
3, 52836, Note_on_c, 1, 71, 0
3, 52860, Note_on_c, 1, 71, 110
3, 52860, Note_on_c, 1, 67, 98
3, 52908, Note_on_c, 1, 67, 0
3, 52908, Note_on_c, 1, 71, 0
3, 52920, Note_on_c, 1, 67, 102
3, 52920, Note_on_c, 1, 72, 120
3, 53064, Note_on_c, 1, 72, 0
3, 53064, Note_on_c, 1, 67, 0
3, 53100, Note_on_c, 1, 69, 118
3, 53100, Note_on_c, 1, 72, 121
3, 53244, Note_on_c, 1, 72, 0
3, 53244, Note_on_c, 1, 69, 0
3, 53280, Note_on_c, 1, 72, 118
3, 53280, Note_on_c, 1, 70, 92
3, 53376, Note_on_c, 1, 70, 0
3, 53376, Note_on_c, 1, 72, 0
3, 53400, Note_on_c, 1, 79, 127
3, 53400, Note_on_c, 1, 82, 95
3, 53448, Note_on_c, 1, 82, 0
3, 53448, Note_on_c, 1, 79, 0
3, 53460, Note_on_c, 1, 80, 95
3, 53460, Note_on_c, 1, 83, 116
3, 53556, Note_on_c, 1, 83, 0
3, 53556, Note_on_c, 1, 80, 0
3, 53580, Note_on_c, 1, 83, 103
3, 53580, Note_on_c, 1, 80, 85
3, 53628, Note_on_c, 1, 80, 0
3, 53628, Note_on_c, 1, 83, 0
3, 53640, Note_on_c, 1, 81, 103
3, 53640, Note_on_c, 1, 84, 104
3, 53916, Note_on_c, 1, 84, 0
3, 53916, Note_on_c, 1, 81, 0
3, 53940, Note_on_c, 1, 81, 101
3, 53940, Note_on_c, 1, 77, 102
3, 53988, Note_on_c, 1, 77, 0
3, 53988, Note_on_c, 1, 81, 0
3, 54000, Note_on_c, 1, 81, 102
3, 54000, Note_on_c, 1, 77, 103
3, 54096, Note_on_c, 1, 77, 0
3, 54096, Note_on_c, 1, 81, 0
3, 54120, Note_on_c, 1, 77, 105
3, 54120, Note_on_c, 1, 81, 108
3, 54168, Note_on_c, 1, 81, 0
3, 54168, Note_on_c, 1, 77, 0
3, 54180, Note_on_c, 1, 81, 102
3, 54180, Note_on_c, 1, 77, 103
3, 54276, Note_on_c, 1, 77, 0
3, 54276, Note_on_c, 1, 81, 0
3, 54300, Note_on_c, 1, 81, 107
3, 54300, Note_on_c, 1, 77, 108
3, 54348, Note_on_c, 1, 77, 0
3, 54348, Note_on_c, 1, 81, 0
3, 54360, Note_on_c, 1, 82, 80
3, 54360, Note_on_c, 1, 79, 109
3, 54636, Note_on_c, 1, 79, 0
3, 54636, Note_on_c, 1, 82, 0
3, 54660, Note_on_c, 1, 79, 110
3, 54660, Note_on_c, 1, 76, 101
3, 54708, Note_on_c, 1, 76, 0
3, 54708, Note_on_c, 1, 79, 0
3, 54720, Note_on_c, 1, 76, 105
3, 54720, Note_on_c, 1, 79, 102
3, 54816, Note_on_c, 1, 79, 0
3, 54816, Note_on_c, 1, 76, 0
3, 54840, Note_on_c, 1, 79, 107
3, 54840, Note_on_c, 1, 76, 111
3, 54888, Note_on_c, 1, 76, 0
3, 54888, Note_on_c, 1, 79, 0
3, 54900, Note_on_c, 1, 79, 105
3, 54900, Note_on_c, 1, 76, 107
3, 54996, Note_on_c, 1, 76, 0
3, 54996, Note_on_c, 1, 79, 0
3, 55020, Note_on_c, 1, 76, 107
3, 55020, Note_on_c, 1, 79, 110
3, 55068, Note_on_c, 1, 79, 0
3, 55068, Note_on_c, 1, 76, 0
3, 55080, Note_on_c, 1, 81, 113
3, 55080, Note_on_c, 1, 84, 117
3, 55176, Note_on_c, 1, 84, 0
3, 55176, Note_on_c, 1, 81, 0
3, 55200, Note_on_c, 1, 81, 116
3, 55200, Note_on_c, 1, 84, 109
3, 55248, Note_on_c, 1, 84, 0
3, 55248, Note_on_c, 1, 81, 0
3, 55260, Note_on_c, 1, 81, 111
3, 55260, Note_on_c, 1, 84, 110
3, 55356, Note_on_c, 1, 84, 0
3, 55356, Note_on_c, 1, 81, 0
3, 55380, Note_on_c, 1, 81, 113
3, 55380, Note_on_c, 1, 84, 113
3, 55428, Note_on_c, 1, 84, 0
3, 55428, Note_on_c, 1, 81, 0
3, 55440, Note_on_c, 1, 81, 112
3, 55440, Note_on_c, 1, 84, 112
3, 55536, Note_on_c, 1, 84, 0
3, 55536, Note_on_c, 1, 81, 0
3, 55560, Note_on_c, 1, 77, 104
3, 55560, Note_on_c, 1, 81, 102
3, 55608, Note_on_c, 1, 81, 0
3, 55608, Note_on_c, 1, 77, 0
3, 55620, Note_on_c, 1, 77, 109
3, 55620, Note_on_c, 1, 81, 107
3, 55716, Note_on_c, 1, 81, 0
3, 55716, Note_on_c, 1, 77, 0
3, 55740, Note_on_c, 1, 81, 104
3, 55740, Note_on_c, 1, 77, 109
3, 55788, Note_on_c, 1, 77, 0
3, 55788, Note_on_c, 1, 81, 0
3, 55800, Note_on_c, 1, 82, 79
3, 55800, Note_on_c, 1, 79, 117
3, 55896, Note_on_c, 1, 79, 0
3, 55896, Note_on_c, 1, 82, 0
3, 55920, Note_on_c, 1, 82, 81
3, 55920, Note_on_c, 1, 79, 112
3, 55968, Note_on_c, 1, 79, 0
3, 55968, Note_on_c, 1, 82, 0
3, 55980, Note_on_c, 1, 82, 86
3, 55980, Note_on_c, 1, 79, 117
3, 56076, Note_on_c, 1, 79, 0
3, 56076, Note_on_c, 1, 82, 0
3, 56100, Note_on_c, 1, 82, 91
3, 56100, Note_on_c, 1, 79, 118
3, 56148, Note_on_c, 1, 79, 0
3, 56148, Note_on_c, 1, 82, 0
3, 56160, Note_on_c, 1, 82, 78
3, 56160, Note_on_c, 1, 79, 104
3, 56256, Note_on_c, 1, 79, 0
3, 56256, Note_on_c, 1, 82, 0
3, 56280, Note_on_c, 1, 79, 113
3, 56280, Note_on_c, 1, 76, 99
3, 56328, Note_on_c, 1, 76, 0
3, 56328, Note_on_c, 1, 79, 0
3, 56340, Note_on_c, 1, 79, 112
3, 56340, Note_on_c, 1, 76, 104
3, 56436, Note_on_c, 1, 76, 0
3, 56436, Note_on_c, 1, 79, 0
3, 56460, Note_on_c, 1, 79, 113
3, 56460, Note_on_c, 1, 76, 102
3, 56508, Note_on_c, 1, 76, 0
3, 56508, Note_on_c, 1, 79, 0
3, 56520, Note_on_c, 1, 77, 111
3, 56520, Note_on_c, 1, 81, 107
3, 56616, Note_on_c, 1, 81, 0
3, 56616, Note_on_c, 1, 77, 0
3, 57000, Note_on_c, 1, 77, 107
3, 57000, Note_on_c, 1, 81, 112
3, 57048, Note_on_c, 1, 81, 0
3, 57048, Note_on_c, 1, 77, 0
3, 57060, Note_on_c, 1, 82, 103
3, 57060, Note_on_c, 1, 79, 127
3, 57156, Note_on_c, 1, 79, 0
3, 57156, Note_on_c, 1, 82, 0
3, 57180, Note_on_c, 1, 79, 118
3, 57180, Note_on_c, 1, 82, 97
3, 57228, Note_on_c, 1, 82, 0
3, 57228, Note_on_c, 1, 79, 0
3, 57240, Note_on_c, 1, 81, 110
3, 57240, Note_on_c, 1, 77, 106
3, 57336, Note_on_c, 1, 77, 0
3, 57336, Note_on_c, 1, 81, 0
3, 57540, Note_on_c, 1, 74, 100
3, 57588, Note_on_c, 1, 74, 0
3, 57600, Note_on_c, 1, 72, 107
3, 57648, Note_on_c, 1, 72, 0
3, 57660, Note_on_c, 1, 76, 118
3, 57708, Note_on_c, 1, 76, 0
3, 57720, Note_on_c, 1, 77, 105
3, 57720, Note_on_c, 1, 69, 102
3, 57768, Note_on_c, 1, 69, 0
3, 57768, Note_on_c, 1, 77, 0
3, 57780, Note_on_c, 1, 82, 80
3, 57780, Note_on_c, 1, 79, 113
3, 57876, Note_on_c, 1, 79, 0
3, 57876, Note_on_c, 1, 82, 0
3, 57900, Note_on_c, 1, 79, 120
3, 57900, Note_on_c, 1, 84, 116
3, 57948, Note_on_c, 1, 84, 0
3, 57948, Note_on_c, 1, 79, 0
3, 57960, Note_on_c, 1, 81, 111
3, 57960, Note_on_c, 1, 77, 116
3, 58104, Note_on_c, 1, 77, 0
3, 58104, Note_on_c, 1, 81, 0
3, 58140, Note_on_c, 1, 77, 127
3, 58140, Note_on_c, 1, 72, 114
3, 58188, Note_on_c, 1, 72, 0
3, 58188, Note_on_c, 1, 77, 0
3, 58260, Note_on_c, 1, 81, 114
3, 58260, Note_on_c, 1, 84, 112
3, 58308, Note_on_c, 1, 84, 0
3, 58308, Note_on_c, 1, 81, 0
3, 58320, Note_on_c, 1, 82, 109
3, 58320, Note_on_c, 1, 79, 127
3, 58464, Note_on_c, 1, 79, 0
3, 58464, Note_on_c, 1, 82, 0
3, 58500, Note_on_c, 1, 79, 125
3, 58500, Note_on_c, 1, 74, 104
3, 58548, Note_on_c, 1, 74, 0
3, 58548, Note_on_c, 1, 79, 0
3, 58620, Note_on_c, 1, 86, 120
3, 58620, Note_on_c, 1, 82, 100
3, 58668, Note_on_c, 1, 82, 0
3, 58668, Note_on_c, 1, 86, 0
3, 58680, Note_on_c, 1, 77, 120
3, 58680, Note_on_c, 1, 81, 120
3, 58728, Note_on_c, 1, 81, 0
3, 58728, Note_on_c, 1, 77, 0
3, 61200, Control_c, 1, 7, 100
3, 61380, Note_on_c, 1, 79, 106
3, 61476, Note_on_c, 1, 79, 0
3, 61560, Note_on_c, 1, 79, 103
3, 61672, Note_on_c, 1, 79, 0
3, 61740, Note_on_c, 1, 79, 127
3, 61852, Note_on_c, 1, 79, 0
3, 61920, Note_on_c, 1, 79, 103
3, 62032, Note_on_c, 1, 79, 0
3, 62100, Note_on_c, 1, 79, 127
3, 62212, Note_on_c, 1, 79, 0
3, 62280, Note_on_c, 1, 79, 111
3, 62376, Note_on_c, 1, 79, 0
3, 62460, Note_on_c, 1, 79, 117
3, 62508, Note_on_c, 1, 79, 0
3, 62580, Note_on_c, 1, 82, 93
3, 62580, Note_on_c, 1, 79, 105
3, 62880, Control_c, 1, 7, 124
3, 62916, Note_on_c, 1, 79, 0
3, 62916, Note_on_c, 1, 82, 0
3, 62940, Note_on_c, 1, 82, 86
3, 62940, Note_on_c, 1, 79, 113
3, 63096, Note_on_c, 1, 79, 0
3, 63096, Note_on_c, 1, 82, 0
3, 63120, Note_on_c, 1, 79, 108
3, 63120, Note_on_c, 1, 82, 85
3, 63276, Note_on_c, 1, 82, 0
3, 63276, Note_on_c, 1, 79, 0
3, 63300, Note_on_c, 1, 82, 95
3, 63300, Note_on_c, 1, 79, 116
3, 63348, Note_on_c, 1, 79, 0
3, 63348, Note_on_c, 1, 82, 0
3, 63360, Note_on_c, 1, 77, 103
3, 63360, Note_on_c, 1, 81, 100
3, 63408, Note_on_c, 1, 81, 0
3, 63408, Note_on_c, 1, 77, 0
3, 64618, Control_c, 1, 7, 90
3, 65520, Note_on_c, 1, 78, 107
3, 65808, Note_on_c, 1, 78, 0
3, 65880, Note_on_c, 1, 79, 127
3, 65976, Note_on_c, 1, 79, 0
3, 66240, Note_on_c, 1, 76, 118
3, 66528, Note_on_c, 1, 76, 0
3, 66600, Note_on_c, 1, 77, 118
3, 66696, Note_on_c, 1, 77, 0
3, 67020, Note_on_c, 1, 78, 94
3, 67068, Note_on_c, 1, 78, 0
3, 67080, Note_on_c, 1, 78, 101
3, 67128, Note_on_c, 1, 78, 0
3, 67140, Note_on_c, 1, 78, 100
3, 67188, Note_on_c, 1, 78, 0
3, 67200, Note_on_c, 1, 78, 103
3, 67248, Note_on_c, 1, 78, 0
3, 67260, Note_on_c, 1, 78, 105
3, 67308, Note_on_c, 1, 78, 0
3, 67320, Note_on_c, 1, 79, 127
3, 67416, Note_on_c, 1, 79, 0
3, 67680, Control_c, 1, 7, 105
3, 67698, Control_c, 1, 7, 106
3, 67714, Control_c, 1, 7, 107
3, 67730, Control_c, 1, 7, 108
3, 67740, Note_on_c, 1, 76, 108
3, 67740, Note_on_c, 1, 79, 104
3, 67746, Control_c, 1, 7, 109
3, 67764, Control_c, 1, 7, 110
3, 67780, Control_c, 1, 7, 111
3, 67788, Note_on_c, 1, 79, 0
3, 67788, Note_on_c, 1, 76, 0
3, 67796, Control_c, 1, 7, 112
3, 67800, Note_on_c, 1, 76, 109
3, 67800, Note_on_c, 1, 79, 112
3, 67812, Control_c, 1, 7, 113
3, 67830, Control_c, 1, 7, 114
3, 67846, Control_c, 1, 7, 115
3, 67848, Note_on_c, 1, 79, 0
3, 67848, Note_on_c, 1, 76, 0
3, 67860, Note_on_c, 1, 76, 108
3, 67860, Note_on_c, 1, 79, 112
3, 67862, Control_c, 1, 7, 116
3, 67878, Control_c, 1, 7, 117
3, 67894, Control_c, 1, 7, 118
3, 67908, Note_on_c, 1, 79, 0
3, 67908, Note_on_c, 1, 76, 0
3, 67912, Control_c, 1, 7, 119
3, 67920, Note_on_c, 1, 76, 111
3, 67920, Note_on_c, 1, 79, 118
3, 67928, Control_c, 1, 7, 120
3, 67944, Control_c, 1, 7, 121
3, 67960, Control_c, 1, 7, 122
3, 67968, Note_on_c, 1, 79, 0
3, 67968, Note_on_c, 1, 76, 0
3, 67978, Control_c, 1, 7, 123
3, 67980, Note_on_c, 1, 79, 121
3, 67980, Note_on_c, 1, 76, 114
3, 67994, Control_c, 1, 7, 124
3, 68010, Control_c, 1, 7, 125
3, 68026, Control_c, 1, 7, 126
3, 68028, Note_on_c, 1, 76, 0
3, 68028, Note_on_c, 1, 79, 0
3, 68040, Note_on_c, 1, 77, 120
3, 68040, Note_on_c, 1, 81, 114
3, 68042, Control_c, 1, 7, 127
3, 68676, Note_on_c, 1, 81, 0
3, 68676, Note_on_c, 1, 77, 0
3, 68700, Note_on_c, 1, 77, 105
3, 68700, Note_on_c, 1, 81, 100
3, 68748, Note_on_c, 1, 81, 0
3, 68748, Note_on_c, 1, 77, 0
3, 68760, Note_on_c, 1, 77, 106
3, 68760, Note_on_c, 1, 81, 104
3, 69396, Note_on_c, 1, 81, 0
3, 69396, Note_on_c, 1, 77, 0
3, 69420, Note_on_c, 1, 81, 120
3, 69420, Note_on_c, 1, 77, 121
3, 69468, Note_on_c, 1, 77, 0
3, 69468, Note_on_c, 1, 81, 0
3, 69480, Note_on_c, 1, 83, 99
3, 69480, Note_on_c, 1, 71, 103
3, 70116, Note_on_c, 1, 71, 0
3, 70116, Note_on_c, 1, 83, 0
3, 70140, Note_on_c, 1, 83, 114
3, 70140, Note_on_c, 1, 71, 102
3, 70188, Note_on_c, 1, 71, 0
3, 70188, Note_on_c, 1, 83, 0
3, 71580, Note_on_c, 1, 79, 105
3, 71604, Note_on_c, 1, 79, 0
3, 71610, Note_on_c, 1, 79, 108
3, 71634, Note_on_c, 1, 79, 0
3, 71640, Note_on_c, 1, 79, 114
3, 71688, Note_on_c, 1, 79, 0
3, 71760, Note_on_c, 1, 79, 103
3, 71784, Note_on_c, 1, 79, 0
3, 71790, Note_on_c, 1, 79, 127
3, 71814, Note_on_c, 1, 79, 0
3, 71820, Note_on_c, 1, 79, 121
3, 71868, Note_on_c, 1, 79, 0
3, 71940, Note_on_c, 1, 79, 103
3, 71964, Note_on_c, 1, 79, 0
3, 71970, Note_on_c, 1, 79, 123
3, 71994, Note_on_c, 1, 79, 0
3, 72000, Note_on_c, 1, 79, 125
3, 72048, Note_on_c, 1, 79, 0
3, 72120, Note_on_c, 1, 79, 125
3, 72144, Note_on_c, 1, 79, 0
3, 72150, Note_on_c, 1, 79, 127
3, 72174, Note_on_c, 1, 79, 0
3, 72180, Note_on_c, 1, 79, 125
3, 72228, Note_on_c, 1, 79, 0
3, 72300, Note_on_c, 1, 76, 103
3, 72300, Note_on_c, 1, 79, 102
3, 72324, Note_on_c, 1, 79, 0
3, 72324, Note_on_c, 1, 76, 0
3, 72330, Note_on_c, 1, 79, 109
3, 72330, Note_on_c, 1, 76, 110
3, 72354, Note_on_c, 1, 76, 0
3, 72354, Note_on_c, 1, 79, 0
3, 72360, Note_on_c, 1, 76, 110
3, 72360, Note_on_c, 1, 79, 109
3, 72408, Note_on_c, 1, 79, 0
3, 72408, Note_on_c, 1, 76, 0
3, 72480, Note_on_c, 1, 79, 103
3, 72480, Note_on_c, 1, 76, 107
3, 72504, Note_on_c, 1, 76, 0
3, 72504, Note_on_c, 1, 79, 0
3, 72510, Note_on_c, 1, 76, 112
3, 72510, Note_on_c, 1, 79, 107
3, 72534, Note_on_c, 1, 79, 0
3, 72534, Note_on_c, 1, 76, 0
3, 72540, Note_on_c, 1, 76, 113
3, 72540, Note_on_c, 1, 79, 107
3, 72588, Note_on_c, 1, 79, 0
3, 72588, Note_on_c, 1, 76, 0
3, 72660, Note_on_c, 1, 76, 92
3, 72660, Note_on_c, 1, 79, 102
3, 72684, Note_on_c, 1, 79, 0
3, 72684, Note_on_c, 1, 76, 0
3, 72690, Note_on_c, 1, 76, 120
3, 72690, Note_on_c, 1, 79, 107
3, 72714, Note_on_c, 1, 79, 0
3, 72714, Note_on_c, 1, 76, 0
3, 72720, Note_on_c, 1, 79, 118
3, 72720, Note_on_c, 1, 76, 117
3, 72768, Note_on_c, 1, 76, 0
3, 72768, Note_on_c, 1, 79, 0
3, 72840, Note_on_c, 1, 76, 109
3, 72840, Note_on_c, 1, 79, 123
3, 72864, Note_on_c, 1, 79, 0
3, 72864, Note_on_c, 1, 76, 0
3, 72870, Note_on_c, 1, 79, 120
3, 72870, Note_on_c, 1, 76, 120
3, 72894, Note_on_c, 1, 76, 0
3, 72894, Note_on_c, 1, 79, 0
3, 72900, Note_on_c, 1, 79, 121
3, 72900, Note_on_c, 1, 76, 116
3, 72948, Note_on_c, 1, 76, 0
3, 72948, Note_on_c, 1, 79, 0
3, 73020, Note_on_c, 1, 82, 86
3, 73020, Note_on_c, 1, 79, 117
3, 73356, Note_on_c, 1, 79, 0
3, 73356, Note_on_c, 1, 82, 0
3, 73380, Note_on_c, 1, 82, 88
3, 73380, Note_on_c, 1, 79, 118
3, 73536, Note_on_c, 1, 79, 0
3, 73536, Note_on_c, 1, 82, 0
3, 73560, Note_on_c, 1, 82, 82
3, 73560, Note_on_c, 1, 79, 116
3, 73716, Note_on_c, 1, 79, 0
3, 73716, Note_on_c, 1, 82, 0
3, 73740, Note_on_c, 1, 79, 125
3, 73740, Note_on_c, 1, 82, 94
3, 73788, Note_on_c, 1, 82, 0
3, 73788, Note_on_c, 1, 79, 0
3, 73800, Note_on_c, 1, 81, 113
3, 73800, Note_on_c, 1, 77, 110
3, 73896, Note_on_c, 1, 77, 0
3, 73896, Note_on_c, 1, 81, 0
3, 75238, Control_c, 1, 7, 90
3, 76620, Note_on_c, 1, 74, 120
3, 76668, Note_on_c, 1, 74, 0
3, 76680, Note_on_c, 1, 76, 118
3, 76776, Note_on_c, 1, 76, 0
3, 76800, Note_on_c, 1, 79, 127
3, 76848, Note_on_c, 1, 79, 0
3, 76860, Note_on_c, 1, 82, 113
3, 76956, Note_on_c, 1, 82, 0
3, 76980, Note_on_c, 1, 79, 118
3, 77028, Note_on_c, 1, 79, 0
3, 77040, Note_on_c, 1, 81, 112
3, 77136, Note_on_c, 1, 81, 0
3, 78240, Note_on_c, 1, 76, 117
3, 78240, Note_on_c, 1, 79, 123
3, 78288, Note_on_c, 1, 79, 0
3, 78288, Note_on_c, 1, 76, 0
3, 78300, Note_on_c, 1, 82, 111
3, 78300, Note_on_c, 1, 79, 127
3, 78396, Note_on_c, 1, 79, 0
3, 78396, Note_on_c, 1, 82, 0
3, 78420, Note_on_c, 1, 79, 118
3, 78420, Note_on_c, 1, 82, 99
3, 78468, Note_on_c, 1, 82, 0
3, 78468, Note_on_c, 1, 79, 0
3, 78480, Note_on_c, 1, 81, 114
3, 78480, Note_on_c, 1, 77, 105
3, 79116, Note_on_c, 1, 77, 0
3, 79116, Note_on_c, 1, 81, 0
3, 79140, Note_on_c, 1, 81, 116
3, 79140, Note_on_c, 1, 77, 114
3, 79188, Note_on_c, 1, 77, 0
3, 79188, Note_on_c, 1, 81, 0
3, 79200, Note_on_c, 1, 81, 105
3, 79200, Note_on_c, 1, 77, 108
3, 79836, Note_on_c, 1, 77, 0
3, 79836, Note_on_c, 1, 81, 0
3, 79860, Note_on_c, 1, 86, 110
3, 79860, Note_on_c, 1, 77, 102
3, 79908, Note_on_c, 1, 77, 0
3, 79908, Note_on_c, 1, 86, 0
3, 79920, Note_on_c, 1, 86, 103
3, 79920, Note_on_c, 1, 83, 104
3, 80556, Note_on_c, 1, 83, 0
3, 80556, Note_on_c, 1, 86, 0
3, 80580, Note_on_c, 1, 83, 111
3, 80580, Note_on_c, 1, 86, 109
3, 80628, Note_on_c, 1, 86, 0
3, 80628, Note_on_c, 1, 83, 0
3, 80640, Note_on_c, 1, 84, 117
3, 80640, Note_on_c, 1, 82, 83
3, 81276, Note_on_c, 1, 82, 0
3, 81276, Note_on_c, 1, 84, 0
3, 81300, Note_on_c, 1, 82, 79
3, 81300, Note_on_c, 1, 84, 103
3, 81348, Note_on_c, 1, 84, 0
3, 81348, Note_on_c, 1, 82, 0
3, 81360, Note_on_c, 1, 84, 99
3, 81360, Note_on_c, 1, 81, 105
3, 81648, Note_on_c, 1, 81, 0
3, 81648, Note_on_c, 1, 84, 0
3, 81720, Note_on_c, 1, 81, 108
3, 81720, Note_on_c, 1, 84, 107
3, 82008, Note_on_c, 1, 84, 0
3, 82008, Note_on_c, 1, 81, 0
3, 82080, Note_on_c, 1, 82, 99
3, 82080, Note_on_c, 1, 77, 101
3, 82224, Note_on_c, 1, 77, 0
3, 82224, Note_on_c, 1, 82, 0
3, 82260, Note_on_c, 1, 77, 114
3, 82260, Note_on_c, 1, 74, 102
3, 82404, Note_on_c, 1, 74, 0
3, 82404, Note_on_c, 1, 77, 0
3, 82440, Note_on_c, 1, 74, 96
3, 82440, Note_on_c, 1, 77, 104
3, 82584, Note_on_c, 1, 77, 0
3, 82584, Note_on_c, 1, 74, 0
3, 82620, Note_on_c, 1, 74, 104
3, 82620, Note_on_c, 1, 77, 121
3, 82764, Note_on_c, 1, 77, 0
3, 82764, Note_on_c, 1, 74, 0
3, 82800, Note_on_c, 1, 81, 127
3, 82944, Note_on_c, 1, 81, 0
3, 82980, Note_on_c, 1, 79, 114
3, 83124, Note_on_c, 1, 79, 0
3, 83160, Note_on_c, 1, 77, 101
3, 83304, Note_on_c, 1, 77, 0
3, 83340, Note_on_c, 1, 76, 108
3, 83484, Note_on_c, 1, 76, 0
3, 83520, Note_on_c, 1, 74, 113
3, 83664, Note_on_c, 1, 74, 0
3, 83700, Note_on_c, 1, 72, 107
3, 84024, Note_on_c, 1, 72, 0
3, 84060, Note_on_c, 1, 82, 84
3, 84384, Note_on_c, 1, 82, 0
3, 84420, Note_on_c, 1, 79, 102
3, 84744, Note_on_c, 1, 79, 0
3, 84780, Note_on_c, 1, 76, 101
3, 84924, Note_on_c, 1, 76, 0
3, 84960, Note_on_c, 1, 77, 107
3, 84960, Control_c, 1, 7, 89
3, 85008, Note_on_c, 1, 77, 0
3, 87840, Note_on_c, 1, 77, 99
3, 87840, Note_on_c, 1, 69, 94
3, 87984, Note_on_c, 1, 69, 0
3, 87984, Note_on_c, 1, 77, 0
3, 88020, Note_on_c, 1, 77, 127
3, 88020, Note_on_c, 1, 70, 116
3, 88068, Note_on_c, 1, 70, 0
3, 88068, Note_on_c, 1, 77, 0
3, 88140, Note_on_c, 1, 77, 125
3, 88140, Note_on_c, 1, 69, 107
3, 88188, Note_on_c, 1, 69, 0
3, 88188, Note_on_c, 1, 77, 0
3, 88200, Note_on_c, 1, 74, 100
3, 88200, Note_on_c, 1, 77, 103
3, 88476, Note_on_c, 1, 77, 0
3, 88476, Note_on_c, 1, 74, 0
3, 88500, Note_on_c, 1, 74, 111
3, 88500, Note_on_c, 1, 79, 118
3, 88502, Control_c, 1, 7, 94
3, 88548, Note_on_c, 1, 79, 0
3, 88548, Note_on_c, 1, 74, 0
3, 88560, Note_on_c, 1, 79, 103
3, 88704, Note_on_c, 1, 79, 0
3, 88740, Note_on_c, 1, 79, 121
3, 88788, Note_on_c, 1, 79, 0
3, 88800, Note_on_c, 1, 81, 109
3, 88848, Note_on_c, 1, 81, 0
3, 88860, Note_on_c, 1, 84, 99
3, 88872, Note_on_c, 1, 84, 0
3, 88875, Note_on_c, 1, 82, 80
3, 88899, Note_on_c, 1, 82, 0
3, 88905, Note_on_c, 1, 81, 102
3, 88920, Note_on_c, 1, 81, 111
3, 88920, Note_on_c, 1, 77, 112
3, 88929, Note_on_c, 1, 81, 0
3, 89016, Note_on_c, 1, 77, 0
3, 89016, Note_on_c, 1, 81, 0
3, 89940, Note_on_c, 1, 81, 112
3, 89940, Note_on_c, 1, 77, 123
3, 89988, Note_on_c, 1, 77, 0
3, 89988, Note_on_c, 1, 81, 0
3, 90000, Note_on_c, 1, 82, 87
3, 90000, Note_on_c, 1, 76, 100
3, 90276, Note_on_c, 1, 76, 0
3, 90276, Note_on_c, 1, 82, 0
3, 90300, Note_on_c, 1, 76, 105
3, 90300, Note_on_c, 1, 82, 96
3, 90348, Note_on_c, 1, 82, 0
3, 90348, Note_on_c, 1, 76, 0
3, 90360, Note_on_c, 1, 81, 107
3, 90360, Note_on_c, 1, 77, 109
3, 90456, Note_on_c, 1, 77, 0
3, 90456, Note_on_c, 1, 81, 0
3, 90660, Note_on_c, 1, 77, 104
3, 90660, Note_on_c, 1, 81, 103
3, 90708, Note_on_c, 1, 81, 0
3, 90708, Note_on_c, 1, 77, 0
3, 90720, Note_on_c, 1, 82, 79
3, 90720, Note_on_c, 1, 76, 99
3, 90720, Control_c, 1, 7, 97
3, 90738, Control_c, 1, 7, 98
3, 90756, Control_c, 1, 7, 99
3, 90772, Control_c, 1, 7, 100
3, 90790, Control_c, 1, 7, 101
3, 90806, Control_c, 1, 7, 102
3, 90824, Control_c, 1, 7, 103
3, 90840, Control_c, 1, 7, 104
3, 90858, Control_c, 1, 7, 105
3, 90874, Control_c, 1, 7, 106
3, 90892, Control_c, 1, 7, 107
3, 90908, Control_c, 1, 7, 108
3, 90926, Control_c, 1, 7, 109
3, 90942, Control_c, 1, 7, 110
3, 90960, Control_c, 1, 7, 111
3, 90976, Control_c, 1, 7, 112
3, 90994, Control_c, 1, 7, 113
3, 91010, Control_c, 1, 7, 114
3, 91012, Note_on_c, 1, 76, 0
3, 91012, Note_on_c, 1, 82, 0
3, 91020, Note_on_c, 1, 82, 82
3, 91020, Note_on_c, 1, 76, 107
3, 91028, Control_c, 1, 7, 115
3, 91044, Control_c, 1, 7, 116
3, 91062, Control_c, 1, 7, 117
3, 91068, Note_on_c, 1, 76, 0
3, 91068, Note_on_c, 1, 82, 0
3, 91078, Control_c, 1, 7, 118
3, 91080, Note_on_c, 1, 79, 101
3, 91080, Note_on_c, 1, 82, 79
3, 92448, Note_on_c, 1, 82, 0
3, 92448, Note_on_c, 1, 79, 0
3, 92518, Control_c, 1, 7, 96
3, 92520, Note_on_c, 1, 77, 104
3, 92520, Note_on_c, 1, 81, 110
3, 92808, Note_on_c, 1, 81, 0
3, 92808, Note_on_c, 1, 77, 0
3, 92880, Note_on_c, 1, 81, 125
3, 92880, Note_on_c, 1, 77, 113
3, 93168, Note_on_c, 1, 77, 0
3, 93168, Note_on_c, 1, 81, 0
3, 93240, Note_on_c, 1, 77, 125
3, 94596, Note_on_c, 1, 77, 0
3, 94620, Note_on_c, 1, 81, 101
3, 94620, Note_on_c, 1, 72, 105
3, 94622, Control_c, 1, 7, 127
3, 94668, Note_on_c, 1, 72, 0
3, 94668, Note_on_c, 1, 81, 0
3, 94680, Note_on_c, 1, 77, 113
3, 94680, Note_on_c, 1, 69, 101
3, 94776, Note_on_c, 1, 69, 0
3, 94776, Note_on_c, 1, 77, 0
3, 94776, End_track
4, 0, Start_track
4, 0, MIDI_port, 0
4, 0, Title_t, "Clarinet"
4, 0, Program_c, 2, 71
4, 0, Control_c, 2, 7, 119
4, 0, Note_on_c, 2, 76, 107
4, 144, Note_on_c, 2, 76, 0
4, 180, Note_on_c, 2, 67, 100
4, 276, Note_on_c, 2, 67, 0
4, 300, Note_on_c, 2, 76, 101
4, 348, Note_on_c, 2, 76, 0
4, 360, Note_on_c, 2, 72, 118
4, 504, Note_on_c, 2, 72, 0
4, 540, Note_on_c, 2, 67, 100
4, 636, Note_on_c, 2, 67, 0
4, 660, Note_on_c, 2, 76, 87
4, 708, Note_on_c, 2, 76, 0
4, 720, Note_on_c, 2, 72, 127
4, 768, Note_on_c, 2, 72, 0
4, 780, Note_on_c, 2, 67, 120
4, 828, Note_on_c, 2, 67, 0
4, 840, Note_on_c, 2, 76, 111
4, 888, Note_on_c, 2, 76, 0
4, 900, Note_on_c, 2, 72, 116
4, 948, Note_on_c, 2, 72, 0
4, 960, Note_on_c, 2, 67, 113
4, 1008, Note_on_c, 2, 67, 0
4, 1020, Note_on_c, 2, 76, 115
4, 1068, Note_on_c, 2, 76, 0
4, 1080, Note_on_c, 2, 72, 123
4, 1128, Note_on_c, 2, 72, 0
4, 1140, Note_on_c, 2, 67, 109
4, 1188, Note_on_c, 2, 67, 0
4, 1200, Note_on_c, 2, 76, 115
4, 1248, Note_on_c, 2, 76, 0
4, 1260, Note_on_c, 2, 72, 127
4, 1308, Note_on_c, 2, 72, 0
4, 1320, Note_on_c, 2, 67, 114
4, 1368, Note_on_c, 2, 67, 0
4, 1380, Note_on_c, 2, 72, 127
4, 1428, Note_on_c, 2, 72, 0
4, 1440, Note_on_c, 2, 72, 110
4, 1668, Note_on_c, 2, 72, 0
4, 1800, Note_on_c, 2, 67, 107
4, 2160, Note_on_c, 2, 67, 109
4, 2184, Note_on_c, 2, 67, 0
4, 2520, Note_on_c, 2, 67, 120
4, 2544, Note_on_c, 2, 67, 0
4, 2879, Control_c, 2, 7, 84
4, 2880, Note_on_c, 2, 65, 109
4, 2880, Note_on_c, 2, 69, 101
4, 2904, Note_on_c, 2, 67, 0
4, 3888, Note_on_c, 2, 69, 0
4, 3888, Note_on_c, 2, 65, 0
4, 3960, Note_on_c, 2, 65, 102
4, 3960, Note_on_c, 2, 70, 100
4, 4236, Note_on_c, 2, 70, 0
4, 4236, Note_on_c, 2, 65, 0
4, 4260, Note_on_c, 2, 70, 106
4, 4260, Note_on_c, 2, 67, 112
4, 4308, Note_on_c, 2, 67, 0
4, 4308, Note_on_c, 2, 70, 0
4, 4320, Note_on_c, 2, 67, 117
4, 4320, Note_on_c, 2, 70, 116
4, 4608, Note_on_c, 2, 70, 0
4, 4608, Note_on_c, 2, 67, 0
4, 4680, Note_on_c, 2, 65, 111
4, 4680, Note_on_c, 2, 69, 109
4, 4968, Note_on_c, 2, 69, 0
4, 4968, Note_on_c, 2, 65, 0
4, 5040, Note_on_c, 2, 65, 116
4, 5040, Note_on_c, 2, 67, 120
4, 5184, Note_on_c, 2, 67, 0
4, 5184, Note_on_c, 2, 65, 0
4, 5220, Note_on_c, 2, 64, 109
4, 5220, Note_on_c, 2, 67, 118
4, 5364, Note_on_c, 2, 67, 0
4, 5364, Note_on_c, 2, 64, 0
4, 5400, Note_on_c, 2, 65, 117
4, 5400, Note_on_c, 2, 69, 117
4, 5688, Note_on_c, 2, 69, 0
4, 5688, Note_on_c, 2, 65, 0
4, 5760, Note_on_c, 2, 57, 103
4, 5760, Note_on_c, 2, 60, 104
4, 5808, Note_on_c, 2, 60, 0
4, 5808, Note_on_c, 2, 57, 0
4, 5820, Note_on_c, 2, 57, 110
4, 5820, Note_on_c, 2, 60, 125
4, 5868, Note_on_c, 2, 60, 0
4, 5868, Note_on_c, 2, 57, 0
4, 5880, Note_on_c, 2, 60, 109
4, 5880, Note_on_c, 2, 57, 117
4, 5928, Note_on_c, 2, 57, 0
4, 5928, Note_on_c, 2, 60, 0
4, 5940, Note_on_c, 2, 60, 104
4, 5940, Note_on_c, 2, 57, 104
4, 5988, Note_on_c, 2, 57, 0
4, 5988, Note_on_c, 2, 60, 0
4, 6000, Note_on_c, 2, 57, 109
4, 6000, Note_on_c, 2, 60, 110
4, 6048, Note_on_c, 2, 60, 0
4, 6048, Note_on_c, 2, 57, 0
4, 6060, Note_on_c, 2, 57, 118
4, 6060, Note_on_c, 2, 60, 127
4, 6108, Note_on_c, 2, 60, 0
4, 6108, Note_on_c, 2, 57, 0
4, 6120, Note_on_c, 2, 60, 123
4, 6120, Note_on_c, 2, 57, 120
4, 6168, Note_on_c, 2, 57, 0
4, 6168, Note_on_c, 2, 60, 0
4, 6180, Note_on_c, 2, 60, 123
4, 6180, Note_on_c, 2, 57, 116
4, 6228, Note_on_c, 2, 57, 0
4, 6228, Note_on_c, 2, 60, 0
4, 6240, Note_on_c, 2, 57, 114
4, 6240, Note_on_c, 2, 60, 118
4, 6288, Note_on_c, 2, 60, 0
4, 6288, Note_on_c, 2, 57, 0
4, 6300, Note_on_c, 2, 60, 127
4, 6300, Note_on_c, 2, 57, 127
4, 6348, Note_on_c, 2, 57, 0
4, 6348, Note_on_c, 2, 60, 0
4, 6360, Note_on_c, 2, 60, 105
4, 6360, Note_on_c, 2, 57, 114
4, 6408, Note_on_c, 2, 57, 0
4, 6408, Note_on_c, 2, 60, 0
4, 6420, Note_on_c, 2, 57, 116
4, 6420, Note_on_c, 2, 60, 108
4, 6468, Note_on_c, 2, 60, 0
4, 6468, Note_on_c, 2, 57, 0
4, 6480, Note_on_c, 2, 57, 114
4, 6480, Note_on_c, 2, 60, 120
4, 6528, Note_on_c, 2, 60, 0
4, 6528, Note_on_c, 2, 57, 0
4, 6540, Note_on_c, 2, 57, 111
4, 6540, Note_on_c, 2, 60, 116
4, 6588, Note_on_c, 2, 60, 0
4, 6588, Note_on_c, 2, 57, 0
4, 6600, Note_on_c, 2, 57, 105
4, 6600, Note_on_c, 2, 60, 109
4, 6648, Note_on_c, 2, 60, 0
4, 6648, Note_on_c, 2, 57, 0
4, 6660, Note_on_c, 2, 60, 110
4, 6660, Note_on_c, 2, 57, 107
4, 6708, Note_on_c, 2, 57, 0
4, 6708, Note_on_c, 2, 60, 0
4, 6720, Note_on_c, 2, 60, 109
4, 6720, Note_on_c, 2, 57, 105
4, 6768, Note_on_c, 2, 57, 0
4, 6768, Note_on_c, 2, 60, 0
4, 6780, Note_on_c, 2, 60, 125
4, 6780, Note_on_c, 2, 57, 118
4, 6828, Note_on_c, 2, 57, 0
4, 6828, Note_on_c, 2, 60, 0
4, 6840, Note_on_c, 2, 58, 116
4, 6840, Note_on_c, 2, 62, 117
4, 6888, Note_on_c, 2, 62, 0
4, 6888, Note_on_c, 2, 58, 0
4, 6900, Note_on_c, 2, 58, 110
4, 6900, Note_on_c, 2, 62, 113
4, 6948, Note_on_c, 2, 62, 0
4, 6948, Note_on_c, 2, 58, 0
4, 6960, Note_on_c, 2, 58, 105
4, 6960, Note_on_c, 2, 62, 109
4, 7008, Note_on_c, 2, 62, 0
4, 7008, Note_on_c, 2, 58, 0
4, 7020, Note_on_c, 2, 62, 112
4, 7020, Note_on_c, 2, 58, 109
4, 7068, Note_on_c, 2, 58, 0
4, 7068, Note_on_c, 2, 62, 0
4, 7080, Note_on_c, 2, 62, 120
4, 7080, Note_on_c, 2, 58, 110
4, 7128, Note_on_c, 2, 58, 0
4, 7128, Note_on_c, 2, 62, 0
4, 7140, Note_on_c, 2, 58, 99
4, 7140, Note_on_c, 2, 60, 121
4, 7188, Note_on_c, 2, 60, 0
4, 7188, Note_on_c, 2, 58, 0
4, 7200, Note_on_c, 2, 58, 116
4, 7200, Note_on_c, 2, 60, 121
4, 7210, Control_c, 2, 7, 92
4, 7244, Control_c, 2, 7, 93
4, 7248, Note_on_c, 2, 60, 0
4, 7248, Note_on_c, 2, 58, 0
4, 7260, Note_on_c, 2, 58, 117
4, 7260, Note_on_c, 2, 60, 120
4, 7276, Control_c, 2, 7, 94
4, 7308, Note_on_c, 2, 60, 0
4, 7308, Note_on_c, 2, 58, 0
4, 7308, Control_c, 2, 7, 95
4, 7320, Note_on_c, 2, 58, 111
4, 7320, Note_on_c, 2, 60, 118
4, 7342, Control_c, 2, 7, 96
4, 7368, Note_on_c, 2, 60, 0
4, 7368, Note_on_c, 2, 58, 0
4, 7374, Control_c, 2, 7, 97
4, 7380, Note_on_c, 2, 58, 112
4, 7380, Note_on_c, 2, 60, 114
4, 7406, Control_c, 2, 7, 98
4, 7428, Note_on_c, 2, 60, 0
4, 7428, Note_on_c, 2, 58, 0
4, 7438, Control_c, 2, 7, 99
4, 7440, Note_on_c, 2, 58, 120
4, 7440, Note_on_c, 2, 60, 121
4, 7472, Control_c, 2, 7, 100
4, 7488, Note_on_c, 2, 60, 0
4, 7488, Note_on_c, 2, 58, 0
4, 7500, Note_on_c, 2, 64, 88
4, 7500, Note_on_c, 2, 60, 112
4, 7504, Control_c, 2, 7, 101
4, 7536, Control_c, 2, 7, 102
4, 7548, Note_on_c, 2, 60, 0
4, 7548, Note_on_c, 2, 64, 0
4, 7560, Note_on_c, 2, 65, 123
4, 7560, Note_on_c, 2, 60, 127
4, 7570, Control_c, 2, 7, 103
4, 7602, Control_c, 2, 7, 104
4, 7608, Note_on_c, 2, 60, 0
4, 7608, Note_on_c, 2, 65, 0
4, 7620, Note_on_c, 2, 60, 109
4, 7620, Note_on_c, 2, 57, 111
4, 7634, Control_c, 2, 7, 105
4, 7666, Control_c, 2, 7, 106
4, 7668, Note_on_c, 2, 57, 0
4, 7668, Note_on_c, 2, 60, 0
4, 7680, Note_on_c, 2, 60, 113
4, 7680, Note_on_c, 2, 57, 109
4, 7700, Control_c, 2, 7, 107
4, 7728, Note_on_c, 2, 57, 0
4, 7728, Note_on_c, 2, 60, 0
4, 7732, Control_c, 2, 7, 108
4, 7740, Note_on_c, 2, 57, 104
4, 7740, Note_on_c, 2, 62, 102
4, 7764, Control_c, 2, 7, 109
4, 7788, Note_on_c, 2, 62, 0
4, 7788, Note_on_c, 2, 57, 0
4, 7798, Control_c, 2, 7, 110
4, 7800, Note_on_c, 2, 62, 107
4, 7800, Note_on_c, 2, 57, 108
4, 7830, Control_c, 2, 7, 111
4, 7848, Note_on_c, 2, 57, 0
4, 7848, Note_on_c, 2, 62, 0
4, 7860, Note_on_c, 2, 60, 116
4, 7860, Note_on_c, 2, 57, 110
4, 7862, Control_c, 2, 7, 112
4, 7894, Control_c, 2, 7, 113
4, 7908, Note_on_c, 2, 57, 0
4, 7908, Note_on_c, 2, 60, 0
4, 7920, Note_on_c, 2, 62, 103
4, 7920, Note_on_c, 2, 55, 102
4, 7928, Control_c, 2, 7, 114
4, 7960, Control_c, 2, 7, 115
4, 7968, Note_on_c, 2, 55, 0
4, 7968, Note_on_c, 2, 62, 0
4, 7980, Note_on_c, 2, 62, 104
4, 7980, Note_on_c, 2, 55, 104
4, 7992, Control_c, 2, 7, 116
4, 8026, Control_c, 2, 7, 117
4, 8028, Note_on_c, 2, 55, 0
4, 8028, Note_on_c, 2, 62, 0
4, 8040, Note_on_c, 2, 62, 101
4, 8040, Note_on_c, 2, 55, 100
4, 8058, Control_c, 2, 7, 118
4, 8088, Note_on_c, 2, 55, 0
4, 8088, Note_on_c, 2, 62, 0
4, 8090, Control_c, 2, 7, 119
4, 8100, Note_on_c, 2, 60, 106
4, 8100, Note_on_c, 2, 55, 101
4, 8122, Control_c, 2, 7, 120
4, 8148, Note_on_c, 2, 55, 0
4, 8148, Note_on_c, 2, 60, 0
4, 8156, Control_c, 2, 7, 121
4, 8160, Note_on_c, 2, 60, 103
4, 8160, Note_on_c, 2, 55, 103
4, 8188, Control_c, 2, 7, 122
4, 8208, Note_on_c, 2, 55, 0
4, 8208, Note_on_c, 2, 60, 0
4, 8220, Note_on_c, 2, 60, 107
4, 8220, Note_on_c, 2, 55, 107
4, 8220, Control_c, 2, 7, 123
4, 8254, Control_c, 2, 7, 124
4, 8268, Note_on_c, 2, 55, 0
4, 8268, Note_on_c, 2, 60, 0
4, 8280, Note_on_c, 2, 60, 104
4, 8280, Note_on_c, 2, 57, 100
4, 8286, Control_c, 2, 7, 125
4, 8318, Control_c, 2, 7, 126
4, 8328, Note_on_c, 2, 57, 0
4, 8328, Note_on_c, 2, 60, 0
4, 8340, Note_on_c, 2, 60, 108
4, 8340, Note_on_c, 2, 57, 103
4, 8350, Control_c, 2, 7, 127
4, 8388, Note_on_c, 2, 57, 0
4, 8388, Note_on_c, 2, 60, 0
4, 8400, Note_on_c, 2, 60, 109
4, 8400, Note_on_c, 2, 57, 106
4, 8448, Note_on_c, 2, 57, 0
4, 8448, Note_on_c, 2, 60, 0
4, 8460, Note_on_c, 2, 60, 112
4, 8460, Note_on_c, 2, 57, 103
4, 8508, Note_on_c, 2, 57, 0
4, 8508, Note_on_c, 2, 60, 0
4, 8520, Note_on_c, 2, 60, 108
4, 8520, Note_on_c, 2, 57, 105
4, 8568, Note_on_c, 2, 57, 0
4, 8568, Note_on_c, 2, 60, 0
4, 8580, Note_on_c, 2, 60, 99
4, 8580, Note_on_c, 2, 57, 103
4, 8628, Note_on_c, 2, 57, 0
4, 8628, Note_on_c, 2, 60, 0
4, 8640, Note_on_c, 2, 69, 127
4, 8784, Note_on_c, 2, 69, 0
4, 8820, Note_on_c, 2, 65, 118
4, 8916, Note_on_c, 2, 65, 0
4, 8940, Note_on_c, 2, 72, 127
4, 8988, Note_on_c, 2, 72, 0
4, 9000, Note_on_c, 2, 69, 127
4, 9144, Note_on_c, 2, 69, 0
4, 9180, Note_on_c, 2, 65, 114
4, 9276, Note_on_c, 2, 65, 0
4, 9300, Note_on_c, 2, 60, 125
4, 9348, Note_on_c, 2, 60, 0
4, 9360, Note_on_c, 2, 65, 127
4, 9456, Note_on_c, 2, 65, 0
4, 9480, Note_on_c, 2, 69, 109
4, 9528, Note_on_c, 2, 69, 0
4, 9540, Note_on_c, 2, 72, 127
4, 9636, Note_on_c, 2, 72, 0
4, 9660, Note_on_c, 2, 69, 117
4, 9708, Note_on_c, 2, 69, 0
4, 9720, Note_on_c, 2, 70, 102
4, 9996, Note_on_c, 2, 70, 0
4, 10020, Note_on_c, 2, 67, 127
4, 10068, Note_on_c, 2, 67, 0
4, 10080, Note_on_c, 2, 70, 127
4, 10224, Note_on_c, 2, 70, 0
4, 10260, Note_on_c, 2, 67, 112
4, 10356, Note_on_c, 2, 67, 0
4, 10380, Note_on_c, 2, 72, 104
4, 10428, Note_on_c, 2, 72, 0
4, 10440, Note_on_c, 2, 69, 120
4, 10584, Note_on_c, 2, 69, 0
4, 10620, Note_on_c, 2, 65, 125
4, 10716, Note_on_c, 2, 65, 0
4, 10740, Note_on_c, 2, 69, 127
4, 10788, Note_on_c, 2, 69, 0
4, 10800, Note_on_c, 2, 67, 127
4, 10896, Note_on_c, 2, 67, 0
4, 10920, Note_on_c, 2, 62, 127
4, 10968, Note_on_c, 2, 62, 0
4, 10980, Note_on_c, 2, 64, 113
4, 11076, Note_on_c, 2, 64, 0
4, 11100, Note_on_c, 2, 60, 117
4, 11148, Note_on_c, 2, 60, 0
4, 11160, Note_on_c, 2, 65, 113
4, 11208, Note_on_c, 2, 65, 0
4, 11820, Note_on_c, 2, 64, 96
4, 11820, Note_on_c, 2, 67, 127
4, 11868, Note_on_c, 2, 67, 0
4, 11868, Note_on_c, 2, 64, 0
4, 11880, Note_on_c, 2, 65, 116
4, 12024, Note_on_c, 2, 65, 0
4, 12060, Note_on_c, 2, 67, 127
4, 12204, Note_on_c, 2, 67, 0
4, 12240, Note_on_c, 2, 65, 112
4, 12240, Note_on_c, 2, 69, 107
4, 12384, Note_on_c, 2, 69, 0
4, 12384, Note_on_c, 2, 65, 0
4, 12420, Note_on_c, 2, 70, 100
4, 12420, Note_on_c, 2, 67, 123
4, 12516, Note_on_c, 2, 67, 0
4, 12516, Note_on_c, 2, 70, 0
4, 12540, Note_on_c, 2, 64, 96
4, 12540, Note_on_c, 2, 67, 127
4, 12588, Note_on_c, 2, 67, 0
4, 12588, Note_on_c, 2, 64, 0
4, 13260, Note_on_c, 2, 64, 94
4, 13260, Note_on_c, 2, 67, 123
4, 13308, Note_on_c, 2, 67, 0
4, 13308, Note_on_c, 2, 64, 0
4, 13320, Note_on_c, 2, 65, 127
4, 13464, Note_on_c, 2, 65, 0
4, 13500, Note_on_c, 2, 67, 118
4, 13644, Note_on_c, 2, 67, 0
4, 13680, Note_on_c, 2, 69, 120
4, 13680, Note_on_c, 2, 65, 111
4, 13824, Note_on_c, 2, 65, 0
4, 13824, Note_on_c, 2, 69, 0
4, 13860, Note_on_c, 2, 64, 101
4, 13860, Note_on_c, 2, 70, 127
4, 13956, Note_on_c, 2, 70, 0
4, 13956, Note_on_c, 2, 64, 0
4, 13980, Note_on_c, 2, 64, 99
4, 13980, Note_on_c, 2, 67, 127
4, 14028, Note_on_c, 2, 67, 0
4, 14028, Note_on_c, 2, 64, 0
4, 14040, Note_on_c, 2, 72, 102
4, 14040, Note_on_c, 2, 65, 109
4, 14184, Note_on_c, 2, 65, 0
4, 14184, Note_on_c, 2, 72, 0
4, 14220, Note_on_c, 2, 74, 127
4, 14220, Note_on_c, 2, 65, 101
4, 14316, Note_on_c, 2, 65, 0
4, 14316, Note_on_c, 2, 74, 0
4, 14340, Note_on_c, 2, 62, 127
4, 14340, Note_on_c, 2, 59, 90
4, 14388, Note_on_c, 2, 59, 0
4, 14388, Note_on_c, 2, 62, 0
4, 14400, Note_on_c, 2, 64, 90
4, 14400, Note_on_c, 2, 60, 103
4, 14544, Note_on_c, 2, 60, 0
4, 14544, Note_on_c, 2, 64, 0
4, 14580, Note_on_c, 2, 62, 121
4, 14580, Note_on_c, 2, 65, 114
4, 14676, Note_on_c, 2, 65, 0
4, 14676, Note_on_c, 2, 62, 0
4, 14700, Note_on_c, 2, 62, 112
4, 14700, Note_on_c, 2, 65, 118
4, 14748, Note_on_c, 2, 65, 0
4, 14748, Note_on_c, 2, 62, 0
4, 14760, Note_on_c, 2, 64, 95
4, 14760, Note_on_c, 2, 67, 112
4, 15036, Note_on_c, 2, 67, 0
4, 15036, Note_on_c, 2, 64, 0
4, 15060, Note_on_c, 2, 64, 99
4, 15060, Note_on_c, 2, 60, 114
4, 15108, Note_on_c, 2, 60, 0
4, 15108, Note_on_c, 2, 64, 0
4, 15120, Note_on_c, 2, 64, 99
4, 15120, Note_on_c, 2, 60, 104
4, 15216, Note_on_c, 2, 60, 0
4, 15216, Note_on_c, 2, 64, 0
4, 15240, Note_on_c, 2, 60, 112
4, 15240, Note_on_c, 2, 64, 97
4, 15288, Note_on_c, 2, 64, 0
4, 15288, Note_on_c, 2, 60, 0
4, 15300, Note_on_c, 2, 60, 107
4, 15300, Note_on_c, 2, 64, 96
4, 15396, Note_on_c, 2, 64, 0
4, 15396, Note_on_c, 2, 60, 0
4, 15420, Note_on_c, 2, 60, 109
4, 15420, Note_on_c, 2, 64, 94
4, 15420, Note_on_c, 2, 60, 123
4, 15420, Note_on_c, 2, 64, 105
4, 15468, Note_on_c, 2, 64, 0
4, 15468, Note_on_c, 2, 60, 0
4, 15468, Note_on_c, 2, 64, 0
4, 15468, Note_on_c, 2, 60, 0
4, 15480, Note_on_c, 2, 62, 110
4, 15480, Note_on_c, 2, 65, 107
4, 15756, Note_on_c, 2, 65, 0
4, 15756, Note_on_c, 2, 62, 0
4, 15780, Note_on_c, 2, 62, 114
4, 15780, Note_on_c, 2, 59, 87
4, 15828, Note_on_c, 2, 59, 0
4, 15828, Note_on_c, 2, 62, 0
4, 15840, Note_on_c, 2, 59, 101
4, 15840, Note_on_c, 2, 62, 113
4, 15936, Note_on_c, 2, 62, 0
4, 15936, Note_on_c, 2, 59, 0
4, 15960, Note_on_c, 2, 59, 99
4, 15960, Note_on_c, 2, 62, 127
4, 16008, Note_on_c, 2, 62, 0
4, 16008, Note_on_c, 2, 59, 0
4, 16020, Note_on_c, 2, 59, 99
4, 16020, Note_on_c, 2, 62, 121
4, 16116, Note_on_c, 2, 62, 0
4, 16116, Note_on_c, 2, 59, 0
4, 16140, Note_on_c, 2, 59, 105
4, 16140, Note_on_c, 2, 62, 121
4, 16188, Note_on_c, 2, 62, 0
4, 16188, Note_on_c, 2, 59, 0
4, 16200, Note_on_c, 2, 64, 81
4, 16200, Note_on_c, 2, 67, 109
4, 16296, Note_on_c, 2, 67, 0
4, 16296, Note_on_c, 2, 64, 0
4, 16320, Note_on_c, 2, 64, 93
4, 16320, Note_on_c, 2, 67, 113
4, 16368, Note_on_c, 2, 67, 0
4, 16368, Note_on_c, 2, 64, 0
4, 16380, Note_on_c, 2, 64, 85
4, 16380, Note_on_c, 2, 67, 114
4, 16476, Note_on_c, 2, 67, 0
4, 16476, Note_on_c, 2, 64, 0
4, 16500, Note_on_c, 2, 64, 94
4, 16500, Note_on_c, 2, 67, 114
4, 16548, Note_on_c, 2, 67, 0
4, 16548, Note_on_c, 2, 64, 0
4, 16560, Note_on_c, 2, 64, 88
4, 16560, Note_on_c, 2, 67, 114
4, 16656, Note_on_c, 2, 67, 0
4, 16656, Note_on_c, 2, 64, 0
4, 16680, Note_on_c, 2, 64, 93
4, 16680, Note_on_c, 2, 60, 111
4, 16728, Note_on_c, 2, 60, 0
4, 16728, Note_on_c, 2, 64, 0
4, 16740, Note_on_c, 2, 60, 107
4, 16740, Note_on_c, 2, 64, 92
4, 16836, Note_on_c, 2, 64, 0
4, 16836, Note_on_c, 2, 60, 0
4, 16860, Note_on_c, 2, 64, 88
4, 16860, Note_on_c, 2, 60, 103
4, 16908, Note_on_c, 2, 60, 0
4, 16908, Note_on_c, 2, 64, 0
4, 16920, Note_on_c, 2, 62, 104
4, 16920, Note_on_c, 2, 65, 104
4, 17016, Note_on_c, 2, 65, 0
4, 17016, Note_on_c, 2, 62, 0
4, 17040, Note_on_c, 2, 62, 114
4, 17040, Note_on_c, 2, 65, 112
4, 17088, Note_on_c, 2, 65, 0
4, 17088, Note_on_c, 2, 62, 0
4, 17100, Note_on_c, 2, 62, 114
4, 17100, Note_on_c, 2, 65, 114
4, 17196, Note_on_c, 2, 65, 0
4, 17196, Note_on_c, 2, 62, 0
4, 17220, Note_on_c, 2, 65, 127
4, 17220, Note_on_c, 2, 62, 125
4, 17268, Note_on_c, 2, 62, 0
4, 17268, Note_on_c, 2, 65, 0
4, 17280, Note_on_c, 2, 65, 120
4, 17280, Note_on_c, 2, 62, 123
4, 17376, Note_on_c, 2, 62, 0
4, 17376, Note_on_c, 2, 65, 0
4, 17400, Note_on_c, 2, 59, 90
4, 17400, Note_on_c, 2, 62, 118
4, 17448, Note_on_c, 2, 62, 0
4, 17448, Note_on_c, 2, 59, 0
4, 17460, Note_on_c, 2, 59, 105
4, 17460, Note_on_c, 2, 62, 121
4, 17556, Note_on_c, 2, 62, 0
4, 17556, Note_on_c, 2, 59, 0
4, 17580, Note_on_c, 2, 62, 127
4, 17580, Note_on_c, 2, 59, 92
4, 17628, Note_on_c, 2, 59, 0
4, 17628, Note_on_c, 2, 62, 0
4, 17640, Note_on_c, 2, 64, 109
4, 17640, Note_on_c, 2, 60, 121
4, 17736, Note_on_c, 2, 60, 0
4, 17736, Note_on_c, 2, 64, 0
4, 18120, Note_on_c, 2, 60, 109
4, 18120, Note_on_c, 2, 72, 103
4, 18168, Note_on_c, 2, 72, 0
4, 18168, Note_on_c, 2, 60, 0
4, 18180, Note_on_c, 2, 71, 118
4, 18180, Note_on_c, 2, 62, 117
4, 18276, Note_on_c, 2, 62, 0
4, 18276, Note_on_c, 2, 71, 0
4, 18300, Note_on_c, 2, 71, 118
4, 18300, Note_on_c, 2, 62, 107
4, 18348, Note_on_c, 2, 62, 0
4, 18348, Note_on_c, 2, 71, 0
4, 18360, Note_on_c, 2, 64, 96
4, 18360, Note_on_c, 2, 72, 127
4, 18408, Note_on_c, 2, 72, 0
4, 18408, Note_on_c, 2, 64, 0
4, 18840, Note_on_c, 2, 72, 112
4, 18840, Note_on_c, 2, 64, 91
4, 18888, Note_on_c, 2, 64, 0
4, 18888, Note_on_c, 2, 72, 0
4, 18900, Note_on_c, 2, 71, 94
4, 18900, Note_on_c, 2, 62, 106
4, 18996, Note_on_c, 2, 62, 0
4, 18996, Note_on_c, 2, 71, 0
4, 19020, Note_on_c, 2, 71, 107
4, 19020, Note_on_c, 2, 62, 107
4, 19068, Note_on_c, 2, 62, 0
4, 19068, Note_on_c, 2, 71, 0
4, 19080, Note_on_c, 2, 72, 127
4, 19224, Note_on_c, 2, 72, 0
4, 19260, Note_on_c, 2, 67, 127
4, 19308, Note_on_c, 2, 67, 0
4, 19380, Note_on_c, 2, 76, 107
4, 19428, Note_on_c, 2, 76, 0
4, 19440, Note_on_c, 2, 74, 127
4, 19584, Note_on_c, 2, 74, 0
4, 19620, Note_on_c, 2, 69, 121
4, 19668, Note_on_c, 2, 69, 0
4, 19740, Note_on_c, 2, 77, 127
4, 19788, Note_on_c, 2, 77, 0
4, 19800, Note_on_c, 2, 72, 123
4, 19848, Note_on_c, 2, 72, 0
4, 21420, Note_on_c, 2, 72, 127
4, 21468, Note_on_c, 2, 72, 0
4, 21480, Note_on_c, 2, 67, 109
4, 21528, Note_on_c, 2, 67, 0
4, 21540, Note_on_c, 2, 76, 123
4, 21588, Note_on_c, 2, 76, 0
4, 21600, Note_on_c, 2, 72, 127
4, 21648, Note_on_c, 2, 72, 0
4, 21660, Note_on_c, 2, 67, 112
4, 21708, Note_on_c, 2, 67, 0
4, 21720, Note_on_c, 2, 76, 115
4, 21768, Note_on_c, 2, 76, 0
4, 21780, Note_on_c, 2, 72, 117
4, 21828, Note_on_c, 2, 72, 0
4, 21840, Note_on_c, 2, 67, 106
4, 21888, Note_on_c, 2, 67, 0
4, 21900, Note_on_c, 2, 72, 127
4, 21948, Note_on_c, 2, 72, 0
4, 21960, Note_on_c, 2, 72, 113
4, 22608, Note_on_c, 2, 72, 0
4, 22678, Control_c, 2, 7, 85
4, 22680, Note_on_c, 2, 69, 103
4, 22680, Note_on_c, 2, 65, 100
4, 23688, Note_on_c, 2, 65, 0
4, 23688, Note_on_c, 2, 69, 0
4, 23760, Note_on_c, 2, 70, 104
4, 23760, Note_on_c, 2, 65, 106
4, 24036, Note_on_c, 2, 65, 0
4, 24036, Note_on_c, 2, 70, 0
4, 24060, Note_on_c, 2, 67, 116
4, 24060, Note_on_c, 2, 70, 101
4, 24108, Note_on_c, 2, 70, 0
4, 24108, Note_on_c, 2, 67, 0
4, 24120, Note_on_c, 2, 67, 123
4, 24120, Note_on_c, 2, 70, 121
4, 24408, Note_on_c, 2, 70, 0
4, 24408, Note_on_c, 2, 67, 0
4, 24480, Note_on_c, 2, 69, 117
4, 24480, Note_on_c, 2, 65, 106
4, 24768, Note_on_c, 2, 69, 0
4, 24840, Note_on_c, 2, 67, 123
4, 24984, Note_on_c, 2, 67, 0
4, 24984, Note_on_c, 2, 65, 0
4, 25020, Note_on_c, 2, 64, 103
4, 25020, Note_on_c, 2, 67, 127
4, 25164, Note_on_c, 2, 67, 0
4, 25164, Note_on_c, 2, 64, 0
4, 25200, Note_on_c, 2, 69, 102
4, 25200, Note_on_c, 2, 65, 106
4, 25488, Note_on_c, 2, 65, 0
4, 25488, Note_on_c, 2, 69, 0
4, 25560, Note_on_c, 2, 60, 103
4, 25560, Note_on_c, 2, 57, 103
4, 25608, Note_on_c, 2, 57, 0
4, 25608, Note_on_c, 2, 60, 0
4, 25620, Note_on_c, 2, 60, 101
4, 25620, Note_on_c, 2, 57, 102
4, 25668, Note_on_c, 2, 57, 0
4, 25668, Note_on_c, 2, 60, 0
4, 25680, Note_on_c, 2, 60, 103
4, 25680, Note_on_c, 2, 57, 103
4, 25728, Note_on_c, 2, 57, 0
4, 25728, Note_on_c, 2, 60, 0
4, 25740, Note_on_c, 2, 57, 104
4, 25740, Note_on_c, 2, 60, 105
4, 25788, Note_on_c, 2, 60, 0
4, 25788, Note_on_c, 2, 57, 0
4, 25800, Note_on_c, 2, 60, 105
4, 25800, Note_on_c, 2, 57, 103
4, 25848, Note_on_c, 2, 57, 0
4, 25848, Note_on_c, 2, 60, 0
4, 25860, Note_on_c, 2, 60, 104
4, 25860, Note_on_c, 2, 57, 105
4, 25908, Note_on_c, 2, 57, 0
4, 25908, Note_on_c, 2, 60, 0
4, 25920, Note_on_c, 2, 57, 112
4, 25920, Note_on_c, 2, 60, 112
4, 25968, Note_on_c, 2, 60, 0
4, 25968, Note_on_c, 2, 57, 0
4, 25980, Note_on_c, 2, 57, 117
4, 25980, Note_on_c, 2, 60, 120
4, 26028, Note_on_c, 2, 60, 0
4, 26028, Note_on_c, 2, 57, 0
4, 26040, Note_on_c, 2, 60, 113
4, 26040, Note_on_c, 2, 57, 110
4, 26088, Note_on_c, 2, 57, 0
4, 26088, Note_on_c, 2, 60, 0
4, 26100, Note_on_c, 2, 57, 118
4, 26100, Note_on_c, 2, 60, 121
4, 26102, Control_c, 2, 7, 84
4, 26130, Control_c, 2, 7, 85
4, 26148, Note_on_c, 2, 60, 0
4, 26148, Note_on_c, 2, 57, 0
4, 26156, Control_c, 2, 7, 86
4, 26160, Note_on_c, 2, 60, 117
4, 26160, Note_on_c, 2, 57, 113
4, 26182, Control_c, 2, 7, 87
4, 26208, Note_on_c, 2, 57, 0
4, 26208, Note_on_c, 2, 60, 0
4, 26208, Control_c, 2, 7, 88
4, 26220, Note_on_c, 2, 60, 109
4, 26220, Note_on_c, 2, 57, 109
4, 26234, Control_c, 2, 7, 89
4, 26260, Control_c, 2, 7, 90
4, 26268, Note_on_c, 2, 57, 0
4, 26268, Note_on_c, 2, 60, 0
4, 26280, Note_on_c, 2, 57, 112
4, 26280, Note_on_c, 2, 60, 114
4, 26288, Control_c, 2, 7, 91
4, 26314, Control_c, 2, 7, 92
4, 26328, Note_on_c, 2, 60, 0
4, 26328, Note_on_c, 2, 57, 0
4, 26340, Note_on_c, 2, 60, 123
4, 26340, Note_on_c, 2, 57, 118
4, 26340, Control_c, 2, 7, 93
4, 26366, Control_c, 2, 7, 94
4, 26388, Note_on_c, 2, 57, 0
4, 26388, Note_on_c, 2, 60, 0
4, 26392, Control_c, 2, 7, 95
4, 26400, Note_on_c, 2, 60, 111
4, 26400, Note_on_c, 2, 57, 111
4, 26418, Control_c, 2, 7, 96
4, 26444, Control_c, 2, 7, 97
4, 26448, Note_on_c, 2, 57, 0
4, 26448, Note_on_c, 2, 60, 0
4, 26460, Note_on_c, 2, 57, 118
4, 26460, Note_on_c, 2, 60, 118
4, 26472, Control_c, 2, 7, 98
4, 26498, Control_c, 2, 7, 99
4, 26508, Note_on_c, 2, 60, 0
4, 26508, Note_on_c, 2, 57, 0
4, 26520, Note_on_c, 2, 60, 117
4, 26520, Note_on_c, 2, 57, 114
4, 26524, Control_c, 2, 7, 100
4, 26550, Control_c, 2, 7, 101
4, 26568, Note_on_c, 2, 57, 0
4, 26568, Note_on_c, 2, 60, 0
4, 26576, Control_c, 2, 7, 102
4, 26580, Note_on_c, 2, 57, 113
4, 26580, Note_on_c, 2, 60, 118
4, 26602, Control_c, 2, 7, 103
4, 26628, Note_on_c, 2, 60, 0
4, 26628, Note_on_c, 2, 57, 0
4, 26628, Control_c, 2, 7, 104
4, 26640, Note_on_c, 2, 60, 123
4, 26640, Note_on_c, 2, 57, 117
4, 26656, Control_c, 2, 7, 105
4, 26682, Control_c, 2, 7, 106
4, 26688, Note_on_c, 2, 57, 0
4, 26688, Note_on_c, 2, 60, 0
4, 26700, Note_on_c, 2, 60, 121
4, 26700, Note_on_c, 2, 57, 117
4, 26708, Control_c, 2, 7, 107
4, 26734, Control_c, 2, 7, 108
4, 26748, Note_on_c, 2, 57, 0
4, 26748, Note_on_c, 2, 60, 0
4, 26760, Note_on_c, 2, 57, 114
4, 26760, Note_on_c, 2, 60, 120
4, 26760, Control_c, 2, 7, 109
4, 26786, Control_c, 2, 7, 110
4, 26808, Note_on_c, 2, 60, 0
4, 26808, Note_on_c, 2, 57, 0
4, 26812, Control_c, 2, 7, 111
4, 26820, Note_on_c, 2, 57, 118
4, 26820, Note_on_c, 2, 60, 123
4, 26840, Control_c, 2, 7, 112
4, 26866, Control_c, 2, 7, 113
4, 26868, Note_on_c, 2, 60, 0
4, 26868, Note_on_c, 2, 57, 0
4, 26880, Note_on_c, 2, 57, 117
4, 26880, Note_on_c, 2, 60, 123
4, 26892, Control_c, 2, 7, 114
4, 26918, Control_c, 2, 7, 115
4, 26928, Note_on_c, 2, 60, 0
4, 26928, Note_on_c, 2, 57, 0
4, 26940, Note_on_c, 2, 57, 123
4, 26940, Note_on_c, 2, 60, 127
4, 26944, Control_c, 2, 7, 116
4, 26970, Control_c, 2, 7, 117
4, 26988, Note_on_c, 2, 60, 0
4, 26988, Note_on_c, 2, 57, 0
4, 26996, Control_c, 2, 7, 118
4, 27000, Note_on_c, 2, 57, 109
4, 27000, Note_on_c, 2, 60, 112
4, 27024, Control_c, 2, 7, 119
4, 27048, Note_on_c, 2, 60, 0
4, 27048, Note_on_c, 2, 57, 0
4, 27050, Control_c, 2, 7, 120
4, 27060, Note_on_c, 2, 60, 123
4, 27060, Note_on_c, 2, 57, 117
4, 27076, Control_c, 2, 7, 121
4, 27102, Control_c, 2, 7, 122
4, 27108, Note_on_c, 2, 57, 0
4, 27108, Note_on_c, 2, 60, 0
4, 27120, Note_on_c, 2, 57, 118
4, 27120, Note_on_c, 2, 60, 123
4, 27128, Control_c, 2, 7, 123
4, 27154, Control_c, 2, 7, 124
4, 27168, Note_on_c, 2, 60, 0
4, 27168, Note_on_c, 2, 57, 0
4, 27180, Note_on_c, 2, 60, 121
4, 27180, Note_on_c, 2, 57, 113
4, 27180, Control_c, 2, 7, 125
4, 27228, Note_on_c, 2, 57, 0
4, 27228, Note_on_c, 2, 60, 0
4, 27240, Note_on_c, 2, 57, 127
4, 27240, Note_on_c, 2, 60, 127
4, 27288, Note_on_c, 2, 60, 0
4, 27288, Note_on_c, 2, 57, 0
4, 27300, Note_on_c, 2, 57, 116
4, 27300, Note_on_c, 2, 60, 123
4, 27348, Note_on_c, 2, 60, 0
4, 27348, Note_on_c, 2, 57, 0
4, 27360, Note_on_c, 2, 57, 114
4, 27360, Note_on_c, 2, 60, 101
4, 27408, Note_on_c, 2, 60, 0
4, 27408, Note_on_c, 2, 57, 0
4, 27420, Note_on_c, 2, 57, 111
4, 27420, Note_on_c, 2, 60, 101
4, 27468, Note_on_c, 2, 60, 0
4, 27468, Note_on_c, 2, 57, 0
4, 27480, Note_on_c, 2, 57, 103
4, 27480, Note_on_c, 2, 60, 106
4, 27528, Note_on_c, 2, 60, 0
4, 27528, Note_on_c, 2, 57, 0
4, 27540, Note_on_c, 2, 60, 113
4, 27540, Note_on_c, 2, 57, 104
4, 27588, Note_on_c, 2, 57, 0
4, 27588, Note_on_c, 2, 60, 0
4, 27600, Note_on_c, 2, 60, 102
4, 27600, Note_on_c, 2, 57, 102
4, 27648, Note_on_c, 2, 57, 0
4, 27648, Note_on_c, 2, 60, 0
4, 27660, Note_on_c, 2, 69, 125
4, 27660, Note_on_c, 2, 72, 127
4, 27708, Note_on_c, 2, 72, 0
4, 27708, Note_on_c, 2, 69, 0
4, 27720, Note_on_c, 2, 69, 120
4, 27720, Note_on_c, 2, 72, 127
4, 27816, Note_on_c, 2, 72, 0
4, 27816, Note_on_c, 2, 69, 0
4, 27840, Note_on_c, 2, 72, 123
4, 27840, Note_on_c, 2, 69, 116
4, 27888, Note_on_c, 2, 69, 0
4, 27888, Note_on_c, 2, 72, 0
4, 27900, Note_on_c, 2, 69, 101
4, 27900, Note_on_c, 2, 72, 102
4, 27996, Note_on_c, 2, 72, 0
4, 27996, Note_on_c, 2, 69, 0
4, 28020, Note_on_c, 2, 72, 118
4, 28020, Note_on_c, 2, 69, 118
4, 28068, Note_on_c, 2, 69, 0
4, 28068, Note_on_c, 2, 72, 0
4, 28080, Note_on_c, 2, 72, 113
4, 28080, Note_on_c, 2, 69, 113
4, 28176, Note_on_c, 2, 69, 0
4, 28176, Note_on_c, 2, 72, 0
4, 28200, Note_on_c, 2, 72, 100
4, 28200, Note_on_c, 2, 69, 105
4, 28248, Note_on_c, 2, 69, 0
4, 28248, Note_on_c, 2, 72, 0
4, 28260, Note_on_c, 2, 72, 123
4, 28260, Note_on_c, 2, 69, 113
4, 28356, Note_on_c, 2, 69, 0
4, 28356, Note_on_c, 2, 72, 0
4, 28380, Note_on_c, 2, 77, 123
4, 28380, Note_on_c, 2, 69, 105
4, 28428, Note_on_c, 2, 69, 0
4, 28428, Note_on_c, 2, 77, 0
4, 28440, Note_on_c, 2, 74, 121
4, 28440, Note_on_c, 2, 70, 127
4, 28536, Note_on_c, 2, 70, 0
4, 28536, Note_on_c, 2, 74, 0
4, 28560, Note_on_c, 2, 74, 110
4, 28560, Note_on_c, 2, 65, 98
4, 28608, Note_on_c, 2, 65, 0
4, 28608, Note_on_c, 2, 74, 0
4, 28620, Note_on_c, 2, 74, 113
4, 28620, Note_on_c, 2, 65, 107
4, 28716, Note_on_c, 2, 65, 0
4, 28716, Note_on_c, 2, 74, 0
4, 28740, Note_on_c, 2, 72, 120
4, 28740, Note_on_c, 2, 63, 105
4, 28788, Note_on_c, 2, 63, 0
4, 28788, Note_on_c, 2, 72, 0
4, 28800, Note_on_c, 2, 70, 127
4, 28800, Note_on_c, 2, 62, 105
4, 28896, Note_on_c, 2, 62, 0
4, 28896, Note_on_c, 2, 70, 0
4, 28920, Note_on_c, 2, 63, 116
4, 28920, Note_on_c, 2, 72, 125
4, 28968, Note_on_c, 2, 72, 0
4, 28968, Note_on_c, 2, 63, 0
4, 28980, Note_on_c, 2, 74, 127
4, 28980, Note_on_c, 2, 65, 100
4, 29076, Note_on_c, 2, 65, 0
4, 29076, Note_on_c, 2, 74, 0
4, 29100, Note_on_c, 2, 70, 127
4, 29100, Note_on_c, 2, 62, 108
4, 29148, Note_on_c, 2, 62, 0
4, 29148, Note_on_c, 2, 70, 0
4, 29160, Note_on_c, 2, 72, 127
4, 29160, Note_on_c, 2, 63, 121
4, 29256, Note_on_c, 2, 63, 0
4, 29256, Note_on_c, 2, 72, 0
4, 29280, Note_on_c, 2, 69, 127
4, 29328, Note_on_c, 2, 69, 0
4, 29340, Note_on_c, 2, 65, 105
4, 29340, Note_on_c, 2, 69, 114
4, 29340, Control_c, 2, 7, 84
4, 29436, Note_on_c, 2, 69, 0
4, 29436, Note_on_c, 2, 65, 0
4, 29460, Note_on_c, 2, 71, 99
4, 29460, Note_on_c, 2, 67, 127
4, 29508, Note_on_c, 2, 67, 0
4, 29508, Note_on_c, 2, 71, 0
4, 29520, Note_on_c, 2, 72, 116
4, 29520, Note_on_c, 2, 69, 109
4, 29616, Note_on_c, 2, 69, 0
4, 29616, Note_on_c, 2, 72, 0
4, 29640, Note_on_c, 2, 67, 120
4, 29640, Note_on_c, 2, 71, 105
4, 29688, Note_on_c, 2, 71, 0
4, 29688, Note_on_c, 2, 67, 0
4, 29700, Note_on_c, 2, 72, 123
4, 29700, Note_on_c, 2, 69, 117
4, 29796, Note_on_c, 2, 69, 0
4, 29796, Note_on_c, 2, 72, 0
4, 29820, Note_on_c, 2, 74, 110
4, 29820, Note_on_c, 2, 71, 96
4, 29820, Control_c, 2, 7, 115
4, 29822, Control_c, 2, 7, 125
4, 29868, Note_on_c, 2, 71, 0
4, 29868, Note_on_c, 2, 74, 0
4, 29880, Note_on_c, 2, 74, 112
4, 29880, Note_on_c, 2, 71, 93
4, 29976, Note_on_c, 2, 71, 0
4, 29976, Note_on_c, 2, 74, 0
4, 30000, Note_on_c, 2, 75, 117
4, 30000, Note_on_c, 2, 72, 121
4, 30048, Note_on_c, 2, 72, 0
4, 30048, Note_on_c, 2, 75, 0
4, 30060, Note_on_c, 2, 75, 118
4, 30060, Note_on_c, 2, 72, 117
4, 30060, Control_c, 2, 7, 85
4, 30156, Note_on_c, 2, 72, 0
4, 30156, Note_on_c, 2, 75, 0
4, 30180, Note_on_c, 2, 74, 114
4, 30180, Note_on_c, 2, 70, 109
4, 30228, Note_on_c, 2, 70, 0
4, 30228, Note_on_c, 2, 74, 0
4, 30240, Note_on_c, 2, 72, 127
4, 30240, Note_on_c, 2, 69, 101
4, 30336, Note_on_c, 2, 69, 0
4, 30336, Note_on_c, 2, 72, 0
4, 30360, Note_on_c, 2, 70, 123
4, 30360, Note_on_c, 2, 74, 125
4, 30408, Note_on_c, 2, 74, 0
4, 30408, Note_on_c, 2, 70, 0
4, 30420, Note_on_c, 2, 75, 127
4, 30420, Note_on_c, 2, 72, 127
4, 30516, Note_on_c, 2, 72, 0
4, 30516, Note_on_c, 2, 75, 0
4, 30540, Note_on_c, 2, 69, 112
4, 30540, Note_on_c, 2, 77, 127
4, 30540, Control_c, 2, 7, 115
4, 30542, Control_c, 2, 7, 126
4, 30588, Note_on_c, 2, 77, 0
4, 30588, Note_on_c, 2, 69, 0
4, 30600, Note_on_c, 2, 74, 120
4, 30600, Note_on_c, 2, 70, 105
4, 30696, Note_on_c, 2, 70, 0
4, 30696, Note_on_c, 2, 74, 0
4, 30720, Note_on_c, 2, 70, 104
4, 30720, Note_on_c, 2, 74, 120
4, 30722, Control_c, 2, 7, 85
4, 30768, Note_on_c, 2, 74, 0
4, 30768, Note_on_c, 2, 70, 0
4, 30780, Note_on_c, 2, 75, 127
4, 30780, Note_on_c, 2, 72, 127
4, 30876, Note_on_c, 2, 72, 0
4, 30876, Note_on_c, 2, 75, 0
4, 30898, Control_c, 2, 7, 127
4, 30900, Note_on_c, 2, 77, 125
4, 30900, Note_on_c, 2, 74, 114
4, 30948, Note_on_c, 2, 74, 0
4, 30948, Note_on_c, 2, 77, 0
4, 30960, Note_on_c, 2, 79, 118
4, 30960, Note_on_c, 2, 75, 127
4, 31056, Note_on_c, 2, 75, 0
4, 31056, Note_on_c, 2, 79, 0
4, 31080, Note_on_c, 2, 75, 125
4, 31080, Note_on_c, 2, 79, 116
4, 31128, Note_on_c, 2, 79, 0
4, 31128, Note_on_c, 2, 75, 0
4, 31140, Note_on_c, 2, 82, 127
4, 31140, Note_on_c, 2, 79, 120
4, 31236, Note_on_c, 2, 79, 0
4, 31236, Note_on_c, 2, 82, 0
4, 31260, Note_on_c, 2, 79, 113
4, 31260, Note_on_c, 2, 75, 107
4, 31308, Note_on_c, 2, 75, 0
4, 31308, Note_on_c, 2, 79, 0
4, 31320, Note_on_c, 2, 77, 120
4, 31320, Note_on_c, 2, 74, 118
4, 31416, Note_on_c, 2, 74, 0
4, 31416, Note_on_c, 2, 77, 0
4, 31440, Note_on_c, 2, 77, 121
4, 31440, Note_on_c, 2, 74, 120
4, 31488, Note_on_c, 2, 74, 0
4, 31488, Note_on_c, 2, 77, 0
4, 31500, Note_on_c, 2, 82, 127
4, 31500, Note_on_c, 2, 77, 121
4, 31596, Note_on_c, 2, 77, 0
4, 31596, Note_on_c, 2, 82, 0
4, 31620, Note_on_c, 2, 77, 109
4, 31620, Note_on_c, 2, 74, 102
4, 31668, Note_on_c, 2, 74, 0
4, 31668, Note_on_c, 2, 77, 0
4, 31680, Note_on_c, 2, 75, 117
4, 31680, Note_on_c, 2, 72, 125
4, 31776, Note_on_c, 2, 72, 0
4, 31776, Note_on_c, 2, 75, 0
4, 31800, Note_on_c, 2, 75, 112
4, 31800, Note_on_c, 2, 72, 109
4, 31848, Note_on_c, 2, 72, 0
4, 31848, Note_on_c, 2, 75, 0
4, 31860, Note_on_c, 2, 77, 113
4, 31860, Note_on_c, 2, 74, 116
4, 31956, Note_on_c, 2, 74, 0
4, 31956, Note_on_c, 2, 77, 0
4, 31980, Note_on_c, 2, 75, 127
4, 31980, Note_on_c, 2, 72, 127
4, 32028, Note_on_c, 2, 72, 0
4, 32028, Note_on_c, 2, 75, 0
4, 32040, Note_on_c, 2, 74, 120
4, 32040, Note_on_c, 2, 70, 109
4, 32136, Note_on_c, 2, 70, 0
4, 32136, Note_on_c, 2, 74, 0
4, 32160, Note_on_c, 2, 74, 114
4, 32160, Note_on_c, 2, 70, 105
4, 32208, Note_on_c, 2, 70, 0
4, 32208, Note_on_c, 2, 74, 0
4, 32220, Note_on_c, 2, 72, 127
4, 32220, Note_on_c, 2, 75, 127
4, 32316, Note_on_c, 2, 75, 0
4, 32316, Note_on_c, 2, 72, 0
4, 32340, Note_on_c, 2, 74, 120
4, 32340, Note_on_c, 2, 77, 127
4, 32388, Note_on_c, 2, 77, 0
4, 32388, Note_on_c, 2, 74, 0
4, 32400, Note_on_c, 2, 79, 116
4, 32400, Note_on_c, 2, 75, 120
4, 32676, Note_on_c, 2, 75, 0
4, 32676, Note_on_c, 2, 79, 0
4, 32700, Note_on_c, 2, 79, 110
4, 32700, Note_on_c, 2, 75, 107
4, 32748, Note_on_c, 2, 75, 0
4, 32748, Note_on_c, 2, 79, 0
4, 32760, Note_on_c, 2, 74, 100
4, 32760, Note_on_c, 2, 77, 111
4, 33036, Note_on_c, 2, 77, 0
4, 33036, Note_on_c, 2, 74, 0
4, 33060, Note_on_c, 2, 74, 105
4, 33060, Note_on_c, 2, 77, 111
4, 33108, Note_on_c, 2, 77, 0
4, 33108, Note_on_c, 2, 74, 0
4, 33120, Note_on_c, 2, 76, 74
4, 33120, Note_on_c, 2, 70, 100
4, 33264, Note_on_c, 2, 70, 0
4, 33264, Note_on_c, 2, 76, 0
4, 33300, Note_on_c, 2, 76, 91
4, 33300, Note_on_c, 2, 70, 106
4, 33396, Note_on_c, 2, 70, 0
4, 33396, Note_on_c, 2, 76, 0
4, 33420, Note_on_c, 2, 76, 109
4, 33420, Note_on_c, 2, 70, 106
4, 33468, Note_on_c, 2, 70, 0
4, 33468, Note_on_c, 2, 76, 0
4, 33480, Note_on_c, 2, 77, 112
4, 33480, Note_on_c, 2, 73, 95
4, 33480, Control_c, 2, 7, 112
4, 33494, Control_c, 2, 7, 111
4, 33506, Control_c, 2, 7, 110
4, 33520, Control_c, 2, 7, 109
4, 33532, Control_c, 2, 7, 108
4, 33546, Control_c, 2, 7, 107
4, 33558, Control_c, 2, 7, 106
4, 33572, Control_c, 2, 7, 105
4, 33576, Note_on_c, 2, 73, 0
4, 33576, Note_on_c, 2, 77, 0
4, 33584, Control_c, 2, 7, 104
4, 33598, Control_c, 2, 7, 103
4, 33600, Note_on_c, 2, 73, 95
4, 33600, Note_on_c, 2, 77, 111
4, 33610, Control_c, 2, 7, 102
4, 33624, Control_c, 2, 7, 101
4, 33636, Control_c, 2, 7, 100
4, 33648, Note_on_c, 2, 77, 0
4, 33648, Note_on_c, 2, 73, 0
4, 33650, Control_c, 2, 7, 99
4, 33660, Note_on_c, 2, 78, 109
4, 33660, Note_on_c, 2, 75, 114
4, 33662, Control_c, 2, 7, 98
4, 33676, Control_c, 2, 7, 97
4, 33688, Control_c, 2, 7, 96
4, 33702, Control_c, 2, 7, 95
4, 33714, Control_c, 2, 7, 94
4, 33728, Control_c, 2, 7, 93
4, 33740, Control_c, 2, 7, 92
4, 33754, Control_c, 2, 7, 91
4, 33756, Note_on_c, 2, 75, 0
4, 33756, Note_on_c, 2, 78, 0
4, 33766, Control_c, 2, 7, 90
4, 33780, Note_on_c, 2, 78, 105
4, 33780, Note_on_c, 2, 75, 107
4, 33780, Control_c, 2, 7, 89
4, 33792, Control_c, 2, 7, 88
4, 33806, Control_c, 2, 7, 87
4, 33818, Control_c, 2, 7, 86
4, 33828, Note_on_c, 2, 75, 0
4, 33828, Note_on_c, 2, 78, 0
4, 33832, Control_c, 2, 7, 85
4, 33840, Note_on_c, 2, 73, 95
4, 33840, Note_on_c, 2, 77, 114
4, 33844, Control_c, 2, 7, 84
4, 34128, Note_on_c, 2, 73, 0
4, 34200, Note_on_c, 2, 75, 109
4, 34488, Note_on_c, 2, 75, 0
4, 34560, Note_on_c, 2, 73, 94
4, 34848, Note_on_c, 2, 73, 0
4, 34920, Note_on_c, 2, 68, 83
4, 35064, Note_on_c, 2, 68, 0
4, 35100, Note_on_c, 2, 67, 100
4, 35244, Note_on_c, 2, 67, 0
4, 35244, Note_on_c, 2, 77, 0
4, 35280, Note_on_c, 2, 76, 113
4, 35280, Note_on_c, 2, 67, 112
4, 35376, Note_on_c, 2, 67, 0
4, 35376, Note_on_c, 2, 76, 0
4, 35822, Control_c, 2, 7, 115
4, 35940, Note_on_c, 2, 77, 102
4, 35940, Note_on_c, 2, 74, 111
4, 35988, Note_on_c, 2, 74, 0
4, 35988, Note_on_c, 2, 77, 0
4, 36000, Note_on_c, 2, 74, 113
4, 36000, Note_on_c, 2, 71, 83
4, 36228, Note_on_c, 2, 71, 0
4, 36228, Note_on_c, 2, 74, 0
4, 36300, Note_on_c, 2, 74, 127
4, 36300, Note_on_c, 2, 71, 92
4, 36348, Note_on_c, 2, 71, 0
4, 36348, Note_on_c, 2, 74, 0
4, 36360, Note_on_c, 2, 72, 101
4, 36360, Note_on_c, 2, 76, 98
4, 36588, Note_on_c, 2, 76, 0
4, 36588, Note_on_c, 2, 72, 0
4, 36660, Note_on_c, 2, 76, 88
4, 36660, Note_on_c, 2, 72, 103
4, 36708, Note_on_c, 2, 72, 0
4, 36708, Note_on_c, 2, 76, 0
4, 37440, Note_on_c, 2, 71, 90
4, 37440, Note_on_c, 2, 74, 104
4, 37668, Note_on_c, 2, 74, 0
4, 37668, Note_on_c, 2, 71, 0
4, 37740, Note_on_c, 2, 71, 87
4, 37740, Note_on_c, 2, 74, 107
4, 37788, Note_on_c, 2, 74, 0
4, 37788, Note_on_c, 2, 71, 0
4, 37800, Note_on_c, 2, 72, 109
4, 37800, Note_on_c, 2, 76, 86
4, 38028, Note_on_c, 2, 76, 0
4, 38028, Note_on_c, 2, 72, 0
4, 38100, Note_on_c, 2, 76, 96
4, 38100, Note_on_c, 2, 72, 100
4, 38148, Note_on_c, 2, 72, 0
4, 38148, Note_on_c, 2, 76, 0
4, 38160, Note_on_c, 2, 72, 112
4, 38160, Note_on_c, 2, 76, 91
4, 38436, Note_on_c, 2, 76, 0
4, 38436, Note_on_c, 2, 72, 0
4, 38460, Note_on_c, 2, 72, 107
4, 38460, Note_on_c, 2, 76, 83
4, 38508, Note_on_c, 2, 76, 0
4, 38508, Note_on_c, 2, 72, 0
4, 38520, Note_on_c, 2, 72, 112
4, 38520, Note_on_c, 2, 76, 101
4, 38796, Note_on_c, 2, 76, 0
4, 38796, Note_on_c, 2, 72, 0
4, 38820, Note_on_c, 2, 76, 101
4, 38820, Note_on_c, 2, 72, 114
4, 38868, Note_on_c, 2, 72, 0
4, 38868, Note_on_c, 2, 76, 0
4, 38880, Note_on_c, 2, 76, 80
4, 38880, Note_on_c, 2, 72, 99
4, 39528, Note_on_c, 2, 72, 0
4, 39528, Note_on_c, 2, 76, 0
4, 39600, Note_on_c, 2, 76, 80
4, 39600, Note_on_c, 2, 72, 102
4, 39600, Control_c, 2, 7, 100
4, 40236, Note_on_c, 2, 76, 0
4, 40260, Note_on_c, 2, 76, 86
4, 40308, Note_on_c, 2, 76, 0
4, 40308, Note_on_c, 2, 72, 0
4, 40318, Control_c, 2, 7, 89
4, 40320, Note_on_c, 2, 72, 121
4, 40368, Note_on_c, 2, 72, 0
4, 40380, Note_on_c, 2, 67, 109
4, 40428, Note_on_c, 2, 67, 0
4, 40440, Note_on_c, 2, 76, 113
4, 40488, Note_on_c, 2, 76, 0
4, 40500, Note_on_c, 2, 72, 127
4, 40548, Note_on_c, 2, 72, 0
4, 40560, Note_on_c, 2, 67, 98
4, 40608, Note_on_c, 2, 67, 0
4, 40620, Note_on_c, 2, 76, 115
4, 40668, Note_on_c, 2, 76, 0
4, 40680, Note_on_c, 2, 72, 123
4, 40728, Note_on_c, 2, 72, 0
4, 40740, Note_on_c, 2, 67, 113
4, 40788, Note_on_c, 2, 67, 0
4, 40800, Note_on_c, 2, 76, 118
4, 40848, Note_on_c, 2, 76, 0
4, 40860, Note_on_c, 2, 70, 109
4, 40860, Note_on_c, 2, 72, 121
4, 40908, Note_on_c, 2, 72, 0
4, 40920, Note_on_c, 2, 67, 102
4, 40968, Note_on_c, 2, 67, 0
4, 40980, Note_on_c, 2, 72, 99
4, 41184, Note_on_c, 2, 72, 0
4, 41220, Note_on_c, 2, 82, 87
4, 41364, Note_on_c, 2, 82, 0
4, 41400, Note_on_c, 2, 82, 112
4, 41688, Note_on_c, 2, 82, 0
4, 41688, Note_on_c, 2, 70, 0
4, 41760, Note_on_c, 2, 81, 98
4, 41760, Note_on_c, 2, 69, 103
4, 41760, Control_c, 2, 7, 105
4, 41904, Note_on_c, 2, 69, 0
4, 41904, Note_on_c, 2, 81, 0
4, 41940, Note_on_c, 2, 69, 111
4, 41940, Note_on_c, 2, 65, 103
4, 42768, Note_on_c, 2, 65, 0
4, 42768, Note_on_c, 2, 69, 0
4, 42840, Note_on_c, 2, 70, 104
4, 42840, Note_on_c, 2, 65, 102
4, 43116, Note_on_c, 2, 65, 0
4, 43116, Note_on_c, 2, 70, 0
4, 43140, Note_on_c, 2, 70, 110
4, 43140, Note_on_c, 2, 67, 114
4, 43188, Note_on_c, 2, 67, 0
4, 43188, Note_on_c, 2, 70, 0
4, 43200, Note_on_c, 2, 67, 114
4, 43200, Note_on_c, 2, 70, 102
4, 43488, Note_on_c, 2, 70, 0
4, 43488, Note_on_c, 2, 67, 0
4, 43560, Note_on_c, 2, 65, 106
4, 43560, Note_on_c, 2, 69, 104
4, 43848, Note_on_c, 2, 69, 0
4, 43920, Note_on_c, 2, 67, 113
4, 44064, Note_on_c, 2, 67, 0
4, 44064, Note_on_c, 2, 65, 0
4, 44100, Note_on_c, 2, 64, 81
4, 44100, Note_on_c, 2, 67, 110
4, 44244, Note_on_c, 2, 67, 0
4, 44244, Note_on_c, 2, 64, 0
4, 44280, Note_on_c, 2, 65, 110
4, 44280, Note_on_c, 2, 69, 103
4, 44568, Note_on_c, 2, 69, 0
4, 44568, Note_on_c, 2, 65, 0
4, 44640, Note_on_c, 2, 57, 112
4, 44640, Note_on_c, 2, 60, 108
4, 44688, Note_on_c, 2, 60, 0
4, 44688, Note_on_c, 2, 57, 0
4, 44700, Note_on_c, 2, 57, 103
4, 44700, Note_on_c, 2, 60, 109
4, 44748, Note_on_c, 2, 60, 0
4, 44748, Note_on_c, 2, 57, 0
4, 44760, Note_on_c, 2, 57, 103
4, 44760, Note_on_c, 2, 60, 108
4, 44808, Note_on_c, 2, 60, 0
4, 44808, Note_on_c, 2, 57, 0
4, 44820, Note_on_c, 2, 60, 104
4, 44820, Note_on_c, 2, 57, 102
4, 44868, Note_on_c, 2, 57, 0
4, 44868, Note_on_c, 2, 60, 0
4, 44880, Note_on_c, 2, 57, 99
4, 44880, Note_on_c, 2, 60, 100
4, 44928, Note_on_c, 2, 60, 0
4, 44928, Note_on_c, 2, 57, 0
4, 44940, Note_on_c, 2, 57, 98
4, 44940, Note_on_c, 2, 60, 99
4, 44988, Note_on_c, 2, 60, 0
4, 44988, Note_on_c, 2, 57, 0
4, 45000, Note_on_c, 2, 57, 108
4, 45000, Note_on_c, 2, 60, 108
4, 45048, Note_on_c, 2, 60, 0
4, 45048, Note_on_c, 2, 57, 0
4, 45060, Note_on_c, 2, 57, 103
4, 45060, Note_on_c, 2, 60, 104
4, 45108, Note_on_c, 2, 60, 0
4, 45108, Note_on_c, 2, 57, 0
4, 45120, Note_on_c, 2, 57, 101
4, 45120, Note_on_c, 2, 60, 101
4, 45168, Note_on_c, 2, 60, 0
4, 45168, Note_on_c, 2, 57, 0
4, 45180, Note_on_c, 2, 57, 110
4, 45180, Note_on_c, 2, 60, 111
4, 45228, Note_on_c, 2, 60, 0
4, 45228, Note_on_c, 2, 57, 0
4, 45240, Note_on_c, 2, 57, 101
4, 45240, Note_on_c, 2, 60, 102
4, 45288, Note_on_c, 2, 60, 0
4, 45288, Note_on_c, 2, 57, 0
4, 45300, Note_on_c, 2, 60, 100
4, 45300, Note_on_c, 2, 57, 99
4, 45348, Note_on_c, 2, 57, 0
4, 45348, Note_on_c, 2, 60, 0
4, 45360, Note_on_c, 2, 57, 110
4, 45360, Note_on_c, 2, 60, 109
4, 45408, Note_on_c, 2, 60, 0
4, 45408, Note_on_c, 2, 57, 0
4, 45420, Note_on_c, 2, 60, 103
4, 45420, Note_on_c, 2, 57, 102
4, 45468, Note_on_c, 2, 57, 0
4, 45468, Note_on_c, 2, 60, 0
4, 45480, Note_on_c, 2, 60, 100
4, 45480, Note_on_c, 2, 57, 99
4, 45528, Note_on_c, 2, 57, 0
4, 45528, Note_on_c, 2, 60, 0
4, 45540, Note_on_c, 2, 57, 104
4, 45540, Note_on_c, 2, 60, 105
4, 45588, Note_on_c, 2, 60, 0
4, 45588, Note_on_c, 2, 57, 0
4, 45600, Note_on_c, 2, 60, 101
4, 45600, Note_on_c, 2, 57, 100
4, 45648, Note_on_c, 2, 57, 0
4, 45648, Note_on_c, 2, 60, 0
4, 45660, Note_on_c, 2, 60, 99
4, 45660, Note_on_c, 2, 57, 98
4, 45708, Note_on_c, 2, 57, 0
4, 45708, Note_on_c, 2, 60, 0
4, 45720, Note_on_c, 2, 58, 99
4, 45720, Note_on_c, 2, 62, 102
4, 45768, Note_on_c, 2, 62, 0
4, 45768, Note_on_c, 2, 58, 0
4, 45780, Note_on_c, 2, 62, 101
4, 45780, Note_on_c, 2, 58, 98
4, 45828, Note_on_c, 2, 58, 0
4, 45828, Note_on_c, 2, 62, 0
4, 45840, Note_on_c, 2, 62, 99
4, 45840, Note_on_c, 2, 58, 98
4, 45888, Note_on_c, 2, 58, 0
4, 45888, Note_on_c, 2, 62, 0
4, 45900, Note_on_c, 2, 58, 106
4, 45900, Note_on_c, 2, 62, 107
4, 45948, Note_on_c, 2, 62, 0
4, 45948, Note_on_c, 2, 58, 0
4, 45960, Note_on_c, 2, 58, 99
4, 45960, Note_on_c, 2, 62, 103
4, 46008, Note_on_c, 2, 62, 0
4, 46008, Note_on_c, 2, 58, 0
4, 46020, Note_on_c, 2, 58, 94
4, 46020, Note_on_c, 2, 60, 106
4, 46068, Note_on_c, 2, 60, 0
4, 46068, Note_on_c, 2, 58, 0
4, 46080, Note_on_c, 2, 58, 103
4, 46080, Note_on_c, 2, 60, 106
4, 46128, Note_on_c, 2, 60, 0
4, 46128, Note_on_c, 2, 58, 0
4, 46140, Note_on_c, 2, 58, 99
4, 46140, Note_on_c, 2, 60, 100
4, 46188, Note_on_c, 2, 60, 0
4, 46188, Note_on_c, 2, 58, 0
4, 46200, Note_on_c, 2, 58, 98
4, 46200, Note_on_c, 2, 60, 96
4, 46248, Note_on_c, 2, 60, 0
4, 46248, Note_on_c, 2, 58, 0
4, 46260, Note_on_c, 2, 58, 105
4, 46260, Note_on_c, 2, 60, 106
4, 46308, Note_on_c, 2, 60, 0
4, 46308, Note_on_c, 2, 58, 0
4, 46320, Note_on_c, 2, 58, 99
4, 46320, Note_on_c, 2, 60, 104
4, 46368, Note_on_c, 2, 60, 0
4, 46368, Note_on_c, 2, 58, 0
4, 46380, Note_on_c, 2, 64, 84
4, 46380, Note_on_c, 2, 60, 123
4, 46428, Note_on_c, 2, 60, 0
4, 46428, Note_on_c, 2, 64, 0
4, 46440, Note_on_c, 2, 65, 114
4, 46440, Note_on_c, 2, 60, 114
4, 46488, Note_on_c, 2, 60, 0
4, 46488, Note_on_c, 2, 65, 0
4, 46500, Note_on_c, 2, 60, 112
4, 46500, Note_on_c, 2, 57, 105
4, 46548, Note_on_c, 2, 57, 0
4, 46548, Note_on_c, 2, 60, 0
4, 46560, Note_on_c, 2, 60, 102
4, 46560, Note_on_c, 2, 57, 100
4, 46608, Note_on_c, 2, 57, 0
4, 46608, Note_on_c, 2, 60, 0
4, 46620, Note_on_c, 2, 62, 109
4, 46620, Note_on_c, 2, 57, 99
4, 46668, Note_on_c, 2, 57, 0
4, 46668, Note_on_c, 2, 62, 0
4, 46680, Note_on_c, 2, 62, 108
4, 46680, Note_on_c, 2, 57, 105
4, 46728, Note_on_c, 2, 57, 0
4, 46728, Note_on_c, 2, 62, 0
4, 46740, Note_on_c, 2, 60, 112
4, 46740, Note_on_c, 2, 57, 104
4, 46788, Note_on_c, 2, 57, 0
4, 46788, Note_on_c, 2, 60, 0
4, 46800, Note_on_c, 2, 62, 103
4, 46800, Note_on_c, 2, 55, 103
4, 46848, Note_on_c, 2, 55, 0
4, 46848, Note_on_c, 2, 62, 0
4, 46860, Note_on_c, 2, 62, 106
4, 46860, Note_on_c, 2, 55, 99
4, 46908, Note_on_c, 2, 55, 0
4, 46908, Note_on_c, 2, 62, 0
4, 46920, Note_on_c, 2, 62, 114
4, 46920, Note_on_c, 2, 55, 110
4, 46968, Note_on_c, 2, 55, 0
4, 46968, Note_on_c, 2, 62, 0
4, 46980, Note_on_c, 2, 60, 107
4, 46980, Note_on_c, 2, 55, 102
4, 47028, Note_on_c, 2, 55, 0
4, 47028, Note_on_c, 2, 60, 0
4, 47040, Note_on_c, 2, 60, 105
4, 47040, Note_on_c, 2, 55, 99
4, 47088, Note_on_c, 2, 55, 0
4, 47088, Note_on_c, 2, 60, 0
4, 47100, Note_on_c, 2, 60, 110
4, 47100, Note_on_c, 2, 55, 104
4, 47148, Note_on_c, 2, 55, 0
4, 47148, Note_on_c, 2, 60, 0
4, 47160, Note_on_c, 2, 60, 96
4, 47160, Note_on_c, 2, 57, 106
4, 47208, Note_on_c, 2, 57, 0
4, 47208, Note_on_c, 2, 60, 0
4, 47220, Note_on_c, 2, 60, 101
4, 47220, Note_on_c, 2, 57, 99
4, 47268, Note_on_c, 2, 57, 0
4, 47268, Note_on_c, 2, 60, 0
4, 47280, Note_on_c, 2, 60, 100
4, 47280, Note_on_c, 2, 57, 100
4, 47328, Note_on_c, 2, 57, 0
4, 47328, Note_on_c, 2, 60, 0
4, 47340, Note_on_c, 2, 60, 107
4, 47340, Note_on_c, 2, 57, 100
4, 47388, Note_on_c, 2, 57, 0
4, 47388, Note_on_c, 2, 60, 0
4, 47400, Note_on_c, 2, 60, 104
4, 47400, Note_on_c, 2, 57, 101
4, 47448, Note_on_c, 2, 57, 0
4, 47448, Note_on_c, 2, 60, 0
4, 47460, Note_on_c, 2, 60, 107
4, 47460, Note_on_c, 2, 57, 105
4, 47508, Note_on_c, 2, 57, 0
4, 47508, Note_on_c, 2, 60, 0
4, 47520, Note_on_c, 2, 65, 103
4, 47520, Note_on_c, 2, 69, 106
4, 47796, Note_on_c, 2, 69, 0
4, 47796, Note_on_c, 2, 65, 0
4, 47820, Note_on_c, 2, 65, 110
4, 47820, Note_on_c, 2, 69, 111
4, 47868, Note_on_c, 2, 69, 0
4, 47868, Note_on_c, 2, 65, 0
4, 47880, Note_on_c, 2, 65, 109
4, 47880, Note_on_c, 2, 69, 104
4, 48156, Note_on_c, 2, 69, 0
4, 48156, Note_on_c, 2, 65, 0
4, 48180, Note_on_c, 2, 65, 116
4, 48180, Note_on_c, 2, 69, 114
4, 48228, Note_on_c, 2, 69, 0
4, 48228, Note_on_c, 2, 65, 0
4, 48240, Note_on_c, 2, 65, 109
4, 48240, Note_on_c, 2, 69, 108
4, 48516, Note_on_c, 2, 69, 0
4, 48516, Note_on_c, 2, 65, 0
4, 48540, Note_on_c, 2, 65, 112
4, 48540, Note_on_c, 2, 69, 120
4, 48588, Note_on_c, 2, 69, 0
4, 48588, Note_on_c, 2, 65, 0
4, 48600, Note_on_c, 2, 65, 101
4, 48600, Note_on_c, 2, 70, 117
4, 48876, Note_on_c, 2, 70, 0
4, 48876, Note_on_c, 2, 65, 0
4, 48900, Note_on_c, 2, 67, 108
4, 48900, Note_on_c, 2, 70, 104
4, 48948, Note_on_c, 2, 70, 0
4, 48948, Note_on_c, 2, 67, 0
4, 48960, Note_on_c, 2, 70, 108
4, 48960, Note_on_c, 2, 67, 112
4, 49236, Note_on_c, 2, 67, 0
4, 49236, Note_on_c, 2, 70, 0
4, 49260, Note_on_c, 2, 67, 121
4, 49260, Note_on_c, 2, 70, 127
4, 49308, Note_on_c, 2, 70, 0
4, 49308, Note_on_c, 2, 67, 0
4, 49320, Note_on_c, 2, 69, 107
4, 49320, Note_on_c, 2, 67, 127
4, 49368, Note_on_c, 2, 67, 0
4, 49380, Note_on_c, 2, 65, 103
4, 49596, Note_on_c, 2, 65, 0
4, 49596, Note_on_c, 2, 69, 0
4, 49620, Note_on_c, 2, 65, 103
4, 49620, Note_on_c, 2, 69, 125
4, 49668, Note_on_c, 2, 69, 0
4, 49668, Note_on_c, 2, 65, 0
4, 49680, Note_on_c, 2, 65, 117
4, 49680, Note_on_c, 2, 65, 108
4, 49680, Note_on_c, 2, 67, 111
4, 49776, Note_on_c, 2, 65, 0
4, 49824, Note_on_c, 2, 67, 0
4, 49824, Note_on_c, 2, 65, 0
4, 49860, Note_on_c, 2, 64, 90
4, 49860, Note_on_c, 2, 67, 123
4, 50004, Note_on_c, 2, 67, 0
4, 50004, Note_on_c, 2, 64, 0
4, 50040, Note_on_c, 2, 65, 120
4, 50040, Note_on_c, 2, 69, 123
4, 50088, Note_on_c, 2, 69, 0
4, 50088, Note_on_c, 2, 65, 0
4, 50700, Note_on_c, 2, 67, 121
4, 50700, Note_on_c, 2, 64, 97
4, 50748, Note_on_c, 2, 64, 0
4, 50748, Note_on_c, 2, 67, 0
4, 50760, Note_on_c, 2, 65, 125
4, 50904, Note_on_c, 2, 65, 0
4, 50940, Note_on_c, 2, 67, 125
4, 51084, Note_on_c, 2, 67, 0
4, 51120, Note_on_c, 2, 69, 116
4, 51120, Note_on_c, 2, 65, 121
4, 51264, Note_on_c, 2, 65, 0
4, 51264, Note_on_c, 2, 69, 0
4, 51300, Note_on_c, 2, 67, 123
4, 51300, Note_on_c, 2, 70, 113
4, 51396, Note_on_c, 2, 70, 0
4, 51396, Note_on_c, 2, 67, 0
4, 51420, Note_on_c, 2, 67, 127
4, 51420, Note_on_c, 2, 64, 80
4, 51468, Note_on_c, 2, 64, 0
4, 51468, Note_on_c, 2, 67, 0
4, 52860, Note_on_c, 2, 65, 116
4, 52860, Note_on_c, 2, 62, 117
4, 52908, Note_on_c, 2, 62, 0
4, 52908, Note_on_c, 2, 65, 0
4, 52920, Note_on_c, 2, 64, 107
4, 52920, Note_on_c, 2, 67, 127
4, 53064, Note_on_c, 2, 67, 0
4, 53064, Note_on_c, 2, 64, 0
4, 53100, Note_on_c, 2, 69, 123
4, 53100, Note_on_c, 2, 65, 106
4, 53244, Note_on_c, 2, 65, 0
4, 53244, Note_on_c, 2, 69, 0
4, 53280, Note_on_c, 2, 70, 114
4, 53280, Note_on_c, 2, 67, 127
4, 53424, Note_on_c, 2, 67, 0
4, 53424, Note_on_c, 2, 70, 0
4, 53460, Note_on_c, 2, 71, 94
4, 53460, Note_on_c, 2, 68, 103
4, 53556, Note_on_c, 2, 68, 0
4, 53556, Note_on_c, 2, 71, 0
4, 53580, Note_on_c, 2, 71, 113
4, 53580, Note_on_c, 2, 68, 111
4, 53628, Note_on_c, 2, 68, 0
4, 53628, Note_on_c, 2, 71, 0
4, 53640, Note_on_c, 2, 72, 106
4, 53640, Note_on_c, 2, 69, 117
4, 53916, Note_on_c, 2, 69, 0
4, 53916, Note_on_c, 2, 72, 0
4, 53940, Note_on_c, 2, 69, 120
4, 53940, Note_on_c, 2, 65, 105
4, 53988, Note_on_c, 2, 65, 0
4, 53988, Note_on_c, 2, 69, 0
4, 54000, Note_on_c, 2, 65, 108
4, 54000, Note_on_c, 2, 69, 114
4, 54096, Note_on_c, 2, 69, 0
4, 54096, Note_on_c, 2, 65, 0
4, 54120, Note_on_c, 2, 65, 104
4, 54120, Note_on_c, 2, 69, 114
4, 54168, Note_on_c, 2, 69, 0
4, 54168, Note_on_c, 2, 65, 0
4, 54180, Note_on_c, 2, 65, 111
4, 54180, Note_on_c, 2, 69, 117
4, 54276, Note_on_c, 2, 69, 0
4, 54276, Note_on_c, 2, 65, 0
4, 54300, Note_on_c, 2, 65, 104
4, 54300, Note_on_c, 2, 69, 116
4, 54348, Note_on_c, 2, 69, 0
4, 54348, Note_on_c, 2, 65, 0
4, 54360, Note_on_c, 2, 70, 110
4, 54360, Note_on_c, 2, 67, 113
4, 54636, Note_on_c, 2, 67, 0
4, 54636, Note_on_c, 2, 70, 0
4, 54660, Note_on_c, 2, 64, 94
4, 54660, Note_on_c, 2, 67, 110
4, 54708, Note_on_c, 2, 67, 0
4, 54708, Note_on_c, 2, 64, 0
4, 54720, Note_on_c, 2, 67, 112
4, 54720, Note_on_c, 2, 64, 94
4, 54816, Note_on_c, 2, 64, 0
4, 54816, Note_on_c, 2, 67, 0
4, 54840, Note_on_c, 2, 64, 97
4, 54840, Note_on_c, 2, 67, 117
4, 54888, Note_on_c, 2, 67, 0
4, 54888, Note_on_c, 2, 64, 0
4, 54900, Note_on_c, 2, 64, 101
4, 54900, Note_on_c, 2, 67, 120
4, 54996, Note_on_c, 2, 67, 0
4, 54996, Note_on_c, 2, 64, 0
4, 55020, Note_on_c, 2, 64, 109
4, 55020, Note_on_c, 2, 67, 127
4, 55068, Note_on_c, 2, 67, 0
4, 55068, Note_on_c, 2, 64, 0
4, 55080, Note_on_c, 2, 69, 127
4, 55080, Note_on_c, 2, 72, 127
4, 55176, Note_on_c, 2, 72, 0
4, 55176, Note_on_c, 2, 69, 0
4, 55200, Note_on_c, 2, 69, 121
4, 55200, Note_on_c, 2, 72, 114
4, 55248, Note_on_c, 2, 72, 0
4, 55248, Note_on_c, 2, 69, 0
4, 55260, Note_on_c, 2, 69, 121
4, 55260, Note_on_c, 2, 72, 112
4, 55356, Note_on_c, 2, 72, 0
4, 55356, Note_on_c, 2, 69, 0
4, 55380, Note_on_c, 2, 72, 112
4, 55380, Note_on_c, 2, 69, 117
4, 55428, Note_on_c, 2, 69, 0
4, 55428, Note_on_c, 2, 72, 0
4, 55440, Note_on_c, 2, 72, 107
4, 55440, Note_on_c, 2, 69, 113
4, 55536, Note_on_c, 2, 69, 0
4, 55536, Note_on_c, 2, 72, 0
4, 55560, Note_on_c, 2, 65, 105
4, 55560, Note_on_c, 2, 69, 108
4, 55608, Note_on_c, 2, 69, 0
4, 55608, Note_on_c, 2, 65, 0
4, 55620, Note_on_c, 2, 65, 105
4, 55620, Note_on_c, 2, 69, 114
4, 55716, Note_on_c, 2, 69, 0
4, 55716, Note_on_c, 2, 65, 0
4, 55740, Note_on_c, 2, 65, 103
4, 55740, Note_on_c, 2, 69, 113
4, 55788, Note_on_c, 2, 69, 0
4, 55788, Note_on_c, 2, 65, 0
4, 55800, Note_on_c, 2, 70, 105
4, 55800, Note_on_c, 2, 67, 109
4, 55896, Note_on_c, 2, 67, 0
4, 55896, Note_on_c, 2, 70, 0
4, 55920, Note_on_c, 2, 67, 116
4, 55920, Note_on_c, 2, 70, 112
4, 55968, Note_on_c, 2, 70, 0
4, 55968, Note_on_c, 2, 67, 0
4, 55980, Note_on_c, 2, 70, 118
4, 55980, Note_on_c, 2, 67, 121
4, 56076, Note_on_c, 2, 67, 0
4, 56076, Note_on_c, 2, 70, 0
4, 56100, Note_on_c, 2, 70, 113
4, 56100, Note_on_c, 2, 67, 116
4, 56148, Note_on_c, 2, 67, 0
4, 56148, Note_on_c, 2, 70, 0
4, 56160, Note_on_c, 2, 70, 121
4, 56160, Note_on_c, 2, 67, 123
4, 56256, Note_on_c, 2, 67, 0
4, 56256, Note_on_c, 2, 70, 0
4, 56280, Note_on_c, 2, 64, 96
4, 56280, Note_on_c, 2, 67, 125
4, 56328, Note_on_c, 2, 67, 0
4, 56328, Note_on_c, 2, 64, 0
4, 56340, Note_on_c, 2, 64, 86
4, 56340, Note_on_c, 2, 67, 117
4, 56436, Note_on_c, 2, 67, 0
4, 56436, Note_on_c, 2, 64, 0
4, 56460, Note_on_c, 2, 64, 100
4, 56460, Note_on_c, 2, 67, 127
4, 56508, Note_on_c, 2, 67, 0
4, 56508, Note_on_c, 2, 64, 0
4, 56520, Note_on_c, 2, 65, 106
4, 56520, Note_on_c, 2, 69, 111
4, 56616, Note_on_c, 2, 69, 0
4, 56616, Note_on_c, 2, 65, 0
4, 57000, Note_on_c, 2, 69, 127
4, 57000, Note_on_c, 2, 65, 106
4, 57048, Note_on_c, 2, 65, 0
4, 57048, Note_on_c, 2, 69, 0
4, 57060, Note_on_c, 2, 64, 81
4, 57060, Note_on_c, 2, 70, 117
4, 57156, Note_on_c, 2, 70, 0
4, 57156, Note_on_c, 2, 64, 0
4, 57180, Note_on_c, 2, 70, 127
4, 57180, Note_on_c, 2, 64, 96
4, 57228, Note_on_c, 2, 64, 0
4, 57228, Note_on_c, 2, 70, 0
4, 57240, Note_on_c, 2, 65, 103
4, 57240, Note_on_c, 2, 69, 114
4, 57336, Note_on_c, 2, 69, 0
4, 57336, Note_on_c, 2, 65, 0
4, 57540, Note_on_c, 2, 65, 120
4, 57648, Note_on_c, 2, 65, 0
4, 57660, Note_on_c, 2, 70, 127
4, 57708, Note_on_c, 2, 70, 0
4, 57720, Note_on_c, 2, 69, 118
4, 57720, Note_on_c, 2, 65, 106
4, 57768, Note_on_c, 2, 65, 0
4, 57768, Note_on_c, 2, 69, 0
4, 57780, Note_on_c, 2, 67, 111
4, 57780, Note_on_c, 2, 70, 109
4, 57876, Note_on_c, 2, 70, 0
4, 57876, Note_on_c, 2, 67, 0
4, 57900, Note_on_c, 2, 72, 127
4, 57900, Note_on_c, 2, 67, 127
4, 57948, Note_on_c, 2, 67, 0
4, 57948, Note_on_c, 2, 72, 0
4, 57960, Note_on_c, 2, 69, 109
4, 57960, Note_on_c, 2, 72, 113
4, 58104, Note_on_c, 2, 72, 0
4, 58104, Note_on_c, 2, 69, 0
4, 58140, Note_on_c, 2, 69, 113
4, 58140, Note_on_c, 2, 65, 107
4, 58188, Note_on_c, 2, 65, 0
4, 58188, Note_on_c, 2, 69, 0
4, 58260, Note_on_c, 2, 69, 107
4, 58260, Note_on_c, 2, 81, 111
4, 58308, Note_on_c, 2, 81, 0
4, 58308, Note_on_c, 2, 69, 0
4, 58320, Note_on_c, 2, 82, 94
4, 58320, Note_on_c, 2, 74, 92
4, 58464, Note_on_c, 2, 74, 0
4, 58464, Note_on_c, 2, 82, 0
4, 58500, Note_on_c, 2, 79, 71
4, 58500, Note_on_c, 2, 70, 105
4, 58548, Note_on_c, 2, 70, 0
4, 58548, Note_on_c, 2, 79, 0
4, 58620, Note_on_c, 2, 74, 120
4, 58620, Note_on_c, 2, 70, 113
4, 58668, Note_on_c, 2, 70, 0
4, 58668, Note_on_c, 2, 74, 0
4, 58680, Note_on_c, 2, 65, 100
4, 58680, Note_on_c, 2, 69, 99
4, 58728, Note_on_c, 2, 69, 0
4, 58728, Note_on_c, 2, 65, 0
4, 59938, Control_c, 2, 7, 85
4, 60300, Note_on_c, 2, 77, 103
4, 60300, Note_on_c, 2, 71, 80
4, 60576, Note_on_c, 2, 71, 0
4, 60576, Note_on_c, 2, 77, 0
4, 60660, Note_on_c, 2, 71, 89
4, 60660, Note_on_c, 2, 77, 104
4, 60756, Note_on_c, 2, 77, 0
4, 60756, Note_on_c, 2, 71, 0
4, 60840, Note_on_c, 2, 77, 107
4, 60840, Note_on_c, 2, 71, 81
4, 60936, Note_on_c, 2, 71, 0
4, 60936, Note_on_c, 2, 77, 0
4, 61020, Note_on_c, 2, 77, 111
4, 61020, Note_on_c, 2, 71, 86
4, 61116, Note_on_c, 2, 71, 0
4, 61116, Note_on_c, 2, 77, 0
4, 61200, Note_on_c, 2, 71, 81
4, 61200, Note_on_c, 2, 77, 107
4, 61296, Note_on_c, 2, 77, 0
4, 61296, Note_on_c, 2, 71, 0
4, 61380, Note_on_c, 2, 71, 86
4, 61380, Note_on_c, 2, 77, 111
4, 61476, Note_on_c, 2, 77, 0
4, 61476, Note_on_c, 2, 71, 0
4, 61560, Note_on_c, 2, 71, 81
4, 61560, Note_on_c, 2, 77, 107
4, 61560, Control_c, 2, 7, 86
4, 61586, Control_c, 2, 7, 87
4, 61610, Control_c, 2, 7, 88
4, 61636, Control_c, 2, 7, 89
4, 61656, Note_on_c, 2, 77, 0
4, 61656, Note_on_c, 2, 71, 0
4, 61660, Control_c, 2, 7, 90
4, 61686, Control_c, 2, 7, 91
4, 61710, Control_c, 2, 7, 92
4, 61736, Control_c, 2, 7, 93
4, 61740, Note_on_c, 2, 71, 86
4, 61740, Note_on_c, 2, 77, 111
4, 61760, Control_c, 2, 7, 94
4, 61784, Control_c, 2, 7, 95
4, 61810, Control_c, 2, 7, 96
4, 61834, Control_c, 2, 7, 97
4, 61836, Note_on_c, 2, 77, 0
4, 61836, Note_on_c, 2, 71, 0
4, 61860, Control_c, 2, 7, 98
4, 61884, Control_c, 2, 7, 99
4, 61910, Control_c, 2, 7, 100
4, 61920, Note_on_c, 2, 76, 80
4, 61920, Note_on_c, 2, 70, 86
4, 61934, Control_c, 2, 7, 101
4, 61960, Control_c, 2, 7, 102
4, 61984, Control_c, 2, 7, 103
4, 62008, Control_c, 2, 7, 104
4, 62016, Note_on_c, 2, 70, 0
4, 62016, Note_on_c, 2, 76, 0
4, 62034, Control_c, 2, 7, 105
4, 62058, Control_c, 2, 7, 106
4, 62084, Control_c, 2, 7, 107
4, 62100, Note_on_c, 2, 70, 102
4, 62100, Note_on_c, 2, 76, 84
4, 62108, Control_c, 2, 7, 108
4, 62134, Control_c, 2, 7, 109
4, 62158, Control_c, 2, 7, 110
4, 62182, Control_c, 2, 7, 111
4, 62196, Note_on_c, 2, 76, 0
4, 62196, Note_on_c, 2, 70, 0
4, 62208, Control_c, 2, 7, 112
4, 62232, Control_c, 2, 7, 113
4, 62258, Control_c, 2, 7, 114
4, 62280, Note_on_c, 2, 76, 83
4, 62280, Note_on_c, 2, 70, 107
4, 62282, Control_c, 2, 7, 115
4, 62308, Control_c, 2, 7, 116
4, 62332, Control_c, 2, 7, 117
4, 62358, Control_c, 2, 7, 118
4, 62376, Note_on_c, 2, 70, 0
4, 62376, Note_on_c, 2, 76, 0
4, 62382, Control_c, 2, 7, 119
4, 62406, Control_c, 2, 7, 120
4, 62432, Control_c, 2, 7, 121
4, 62456, Control_c, 2, 7, 122
4, 62460, Note_on_c, 2, 76, 81
4, 62460, Note_on_c, 2, 70, 103
4, 62482, Control_c, 2, 7, 123
4, 62506, Control_c, 2, 7, 124
4, 62508, Note_on_c, 2, 70, 0
4, 62508, Note_on_c, 2, 76, 0
4, 62532, Control_c, 2, 7, 125
4, 62556, Control_c, 2, 7, 126
4, 62580, Note_on_c, 2, 67, 106
4, 62580, Note_on_c, 2, 76, 82
4, 62580, Control_c, 2, 7, 127
4, 62916, Note_on_c, 2, 76, 0
4, 62916, Note_on_c, 2, 67, 0
4, 62940, Note_on_c, 2, 67, 104
4, 62940, Note_on_c, 2, 76, 83
4, 63096, Note_on_c, 2, 76, 0
4, 63096, Note_on_c, 2, 67, 0
4, 63120, Note_on_c, 2, 67, 103
4, 63120, Note_on_c, 2, 76, 84
4, 63276, Note_on_c, 2, 76, 0
4, 63276, Note_on_c, 2, 67, 0
4, 63300, Note_on_c, 2, 76, 89
4, 63300, Note_on_c, 2, 67, 110
4, 63348, Note_on_c, 2, 67, 0
4, 63348, Note_on_c, 2, 76, 0
4, 63360, Note_on_c, 2, 77, 114
4, 63360, Note_on_c, 2, 69, 100
4, 63408, Note_on_c, 2, 69, 0
4, 63408, Note_on_c, 2, 77, 0
4, 65520, Control_c, 2, 7, 99
4, 66778, Control_c, 2, 7, 90
4, 66810, Control_c, 2, 7, 91
4, 66840, Control_c, 2, 7, 92
4, 66870, Control_c, 2, 7, 93
4, 66900, Control_c, 2, 7, 94
4, 66930, Control_c, 2, 7, 95
4, 66960, Control_c, 2, 7, 96
4, 66990, Control_c, 2, 7, 97
4, 67020, Control_c, 2, 7, 98
4, 67050, Control_c, 2, 7, 99
4, 67080, Control_c, 2, 7, 100
4, 67110, Control_c, 2, 7, 101
4, 67140, Control_c, 2, 7, 102
4, 67170, Control_c, 2, 7, 103
4, 67200, Control_c, 2, 7, 104
4, 67230, Control_c, 2, 7, 105
4, 67260, Control_c, 2, 7, 106
4, 67290, Control_c, 2, 7, 107
4, 67320, Control_c, 2, 7, 108
4, 67350, Control_c, 2, 7, 109
4, 67380, Control_c, 2, 7, 110
4, 67410, Control_c, 2, 7, 111
4, 67440, Control_c, 2, 7, 112
4, 67470, Control_c, 2, 7, 113
4, 67500, Control_c, 2, 7, 114
4, 67530, Control_c, 2, 7, 115
4, 67560, Control_c, 2, 7, 116
4, 67590, Control_c, 2, 7, 117
4, 67620, Control_c, 2, 7, 118
4, 67650, Control_c, 2, 7, 119
4, 67680, Control_c, 2, 7, 107
4, 67698, Control_c, 2, 7, 108
4, 67716, Control_c, 2, 7, 109
4, 67734, Control_c, 2, 7, 110
4, 67740, Note_on_c, 2, 76, 86
4, 67740, Note_on_c, 2, 67, 108
4, 67752, Control_c, 2, 7, 111
4, 67770, Control_c, 2, 7, 112
4, 67788, Note_on_c, 2, 67, 0
4, 67788, Note_on_c, 2, 76, 0
4, 67788, Control_c, 2, 7, 113
4, 67800, Note_on_c, 2, 76, 84
4, 67800, Note_on_c, 2, 67, 103
4, 67806, Control_c, 2, 7, 114
4, 67824, Control_c, 2, 7, 115
4, 67842, Control_c, 2, 7, 116
4, 67848, Note_on_c, 2, 67, 0
4, 67848, Note_on_c, 2, 76, 0
4, 67860, Note_on_c, 2, 76, 84
4, 67860, Note_on_c, 2, 67, 107
4, 67860, Control_c, 2, 7, 117
4, 67878, Control_c, 2, 7, 118
4, 67896, Control_c, 2, 7, 119
4, 67908, Note_on_c, 2, 67, 0
4, 67908, Note_on_c, 2, 76, 0
4, 67914, Control_c, 2, 7, 120
4, 67920, Note_on_c, 2, 76, 103
4, 67920, Note_on_c, 2, 67, 116
4, 67932, Control_c, 2, 7, 121
4, 67950, Control_c, 2, 7, 122
4, 67968, Note_on_c, 2, 67, 0
4, 67968, Note_on_c, 2, 76, 0
4, 67968, Control_c, 2, 7, 123
4, 67980, Note_on_c, 2, 76, 101
4, 67980, Note_on_c, 2, 67, 105
4, 67986, Control_c, 2, 7, 124
4, 68004, Control_c, 2, 7, 125
4, 68022, Control_c, 2, 7, 126
4, 68028, Note_on_c, 2, 67, 0
4, 68028, Note_on_c, 2, 76, 0
4, 68040, Note_on_c, 2, 69, 98
4, 68040, Note_on_c, 2, 77, 99
4, 68040, Control_c, 2, 7, 127
4, 68676, Note_on_c, 2, 77, 0
4, 68676, Note_on_c, 2, 69, 0
4, 68700, Note_on_c, 2, 69, 104
4, 68700, Note_on_c, 2, 77, 110
4, 68748, Note_on_c, 2, 77, 0
4, 68748, Note_on_c, 2, 69, 0
4, 68760, Note_on_c, 2, 69, 100
4, 68760, Note_on_c, 2, 65, 93
4, 69396, Note_on_c, 2, 65, 0
4, 69396, Note_on_c, 2, 69, 0
4, 69420, Note_on_c, 2, 65, 101
4, 69420, Note_on_c, 2, 69, 101
4, 69468, Note_on_c, 2, 69, 0
4, 69468, Note_on_c, 2, 65, 0
4, 69480, Note_on_c, 2, 62, 100
4, 69480, Note_on_c, 2, 77, 99
4, 70116, Note_on_c, 2, 77, 0
4, 70116, Note_on_c, 2, 62, 0
4, 70140, Note_on_c, 2, 77, 101
4, 70140, Note_on_c, 2, 62, 101
4, 70188, Note_on_c, 2, 62, 0
4, 70188, Note_on_c, 2, 77, 0
4, 70200, Control_c, 2, 7, 86
4, 70500, Note_on_c, 2, 77, 103
4, 70500, Note_on_c, 2, 71, 82
4, 70524, Note_on_c, 2, 71, 0
4, 70524, Note_on_c, 2, 77, 0
4, 70530, Note_on_c, 2, 77, 105
4, 70530, Note_on_c, 2, 71, 86
4, 70554, Note_on_c, 2, 71, 0
4, 70554, Note_on_c, 2, 77, 0
4, 70560, Note_on_c, 2, 71, 85
4, 70560, Note_on_c, 2, 77, 117
4, 70608, Note_on_c, 2, 77, 0
4, 70608, Note_on_c, 2, 71, 0
4, 70860, Note_on_c, 2, 77, 104
4, 70860, Note_on_c, 2, 71, 81
4, 70884, Note_on_c, 2, 71, 0
4, 70884, Note_on_c, 2, 77, 0
4, 70890, Note_on_c, 2, 71, 87
4, 70890, Note_on_c, 2, 77, 106
4, 70914, Note_on_c, 2, 77, 0
4, 70914, Note_on_c, 2, 71, 0
4, 70920, Note_on_c, 2, 77, 113
4, 70920, Note_on_c, 2, 71, 90
4, 70968, Note_on_c, 2, 71, 0
4, 70968, Note_on_c, 2, 77, 0
4, 71040, Note_on_c, 2, 77, 100
4, 71040, Note_on_c, 2, 71, 83
4, 71064, Note_on_c, 2, 71, 0
4, 71064, Note_on_c, 2, 77, 0
4, 71070, Note_on_c, 2, 77, 101
4, 71070, Note_on_c, 2, 71, 81
4, 71094, Note_on_c, 2, 71, 0
4, 71094, Note_on_c, 2, 77, 0
4, 71100, Note_on_c, 2, 77, 109
4, 71100, Note_on_c, 2, 71, 89
4, 71148, Note_on_c, 2, 71, 0
4, 71148, Note_on_c, 2, 77, 0
4, 71220, Note_on_c, 2, 77, 103
4, 71220, Note_on_c, 2, 71, 82
4, 71244, Note_on_c, 2, 71, 0
4, 71244, Note_on_c, 2, 77, 0
4, 71250, Note_on_c, 2, 77, 107
4, 71250, Note_on_c, 2, 71, 88
4, 71274, Note_on_c, 2, 71, 0
4, 71274, Note_on_c, 2, 77, 0
4, 71280, Note_on_c, 2, 71, 78
4, 71280, Note_on_c, 2, 77, 104
4, 71328, Note_on_c, 2, 77, 0
4, 71328, Note_on_c, 2, 71, 0
4, 71400, Note_on_c, 2, 71, 83
4, 71400, Note_on_c, 2, 77, 107
4, 71424, Note_on_c, 2, 77, 0
4, 71424, Note_on_c, 2, 71, 0
4, 71430, Note_on_c, 2, 77, 108
4, 71430, Note_on_c, 2, 71, 85
4, 71454, Note_on_c, 2, 71, 0
4, 71454, Note_on_c, 2, 77, 0
4, 71460, Note_on_c, 2, 71, 86
4, 71460, Note_on_c, 2, 77, 109
4, 71508, Note_on_c, 2, 77, 0
4, 71508, Note_on_c, 2, 71, 0
4, 71580, Note_on_c, 2, 77, 103
4, 71580, Note_on_c, 2, 71, 84
4, 71604, Note_on_c, 2, 71, 0
4, 71604, Note_on_c, 2, 77, 0
4, 71610, Note_on_c, 2, 77, 111
4, 71610, Note_on_c, 2, 71, 88
4, 71634, Note_on_c, 2, 71, 0
4, 71634, Note_on_c, 2, 77, 0
4, 71640, Note_on_c, 2, 72, 108
4, 71640, Note_on_c, 2, 76, 90
4, 71688, Note_on_c, 2, 76, 0
4, 71688, Note_on_c, 2, 72, 0
4, 71760, Note_on_c, 2, 72, 111
4, 71760, Note_on_c, 2, 76, 101
4, 71784, Note_on_c, 2, 76, 0
4, 71784, Note_on_c, 2, 72, 0
4, 71790, Note_on_c, 2, 72, 107
4, 71790, Note_on_c, 2, 76, 88
4, 71814, Note_on_c, 2, 76, 0
4, 71814, Note_on_c, 2, 72, 0
4, 71820, Note_on_c, 2, 72, 105
4, 71820, Note_on_c, 2, 76, 89
4, 71868, Note_on_c, 2, 76, 0
4, 71868, Note_on_c, 2, 72, 0
4, 71940, Note_on_c, 2, 72, 107
4, 71940, Note_on_c, 2, 76, 89
4, 71964, Note_on_c, 2, 76, 0
4, 71964, Note_on_c, 2, 72, 0
4, 71970, Note_on_c, 2, 72, 109
4, 71970, Note_on_c, 2, 76, 92
4, 71994, Note_on_c, 2, 76, 0
4, 71994, Note_on_c, 2, 72, 0
4, 72000, Note_on_c, 2, 76, 99
4, 72000, Note_on_c, 2, 72, 113
4, 72048, Note_on_c, 2, 72, 0
4, 72048, Note_on_c, 2, 76, 0
4, 72120, Note_on_c, 2, 72, 100
4, 72120, Note_on_c, 2, 76, 78
4, 72144, Note_on_c, 2, 76, 0
4, 72144, Note_on_c, 2, 72, 0
4, 72150, Note_on_c, 2, 72, 118
4, 72150, Note_on_c, 2, 76, 90
4, 72174, Note_on_c, 2, 76, 0
4, 72174, Note_on_c, 2, 72, 0
4, 72180, Note_on_c, 2, 72, 120
4, 72180, Note_on_c, 2, 76, 95
4, 72228, Note_on_c, 2, 76, 0
4, 72228, Note_on_c, 2, 72, 0
4, 72300, Note_on_c, 2, 71, 84
4, 72300, Note_on_c, 2, 67, 99
4, 72324, Note_on_c, 2, 67, 0
4, 72324, Note_on_c, 2, 71, 0
4, 72330, Note_on_c, 2, 67, 102
4, 72330, Note_on_c, 2, 71, 90
4, 72354, Note_on_c, 2, 71, 0
4, 72354, Note_on_c, 2, 67, 0
4, 72360, Note_on_c, 2, 67, 109
4, 72360, Note_on_c, 2, 71, 97
4, 72408, Note_on_c, 2, 71, 0
4, 72408, Note_on_c, 2, 67, 0
4, 72480, Note_on_c, 2, 71, 80
4, 72480, Note_on_c, 2, 67, 103
4, 72504, Note_on_c, 2, 67, 0
4, 72504, Note_on_c, 2, 71, 0
4, 72510, Note_on_c, 2, 67, 111
4, 72510, Note_on_c, 2, 71, 93
4, 72534, Note_on_c, 2, 71, 0
4, 72534, Note_on_c, 2, 67, 0
4, 72540, Note_on_c, 2, 67, 109
4, 72540, Note_on_c, 2, 71, 93
4, 72588, Note_on_c, 2, 71, 0
4, 72588, Note_on_c, 2, 67, 0
4, 72660, Note_on_c, 2, 67, 103
4, 72660, Note_on_c, 2, 71, 84
4, 72684, Note_on_c, 2, 71, 0
4, 72684, Note_on_c, 2, 67, 0
4, 72690, Note_on_c, 2, 67, 111
4, 72690, Note_on_c, 2, 71, 96
4, 72714, Note_on_c, 2, 71, 0
4, 72714, Note_on_c, 2, 67, 0
4, 72720, Note_on_c, 2, 67, 116
4, 72720, Note_on_c, 2, 71, 103
4, 72768, Note_on_c, 2, 71, 0
4, 72768, Note_on_c, 2, 67, 0
4, 72840, Note_on_c, 2, 71, 88
4, 72840, Note_on_c, 2, 67, 111
4, 72864, Note_on_c, 2, 67, 0
4, 72864, Note_on_c, 2, 71, 0
4, 72870, Note_on_c, 2, 67, 105
4, 72870, Note_on_c, 2, 71, 86
4, 72894, Note_on_c, 2, 71, 0
4, 72894, Note_on_c, 2, 67, 0
4, 72900, Note_on_c, 2, 71, 99
4, 72900, Note_on_c, 2, 67, 113
4, 72948, Note_on_c, 2, 67, 0
4, 72948, Note_on_c, 2, 71, 0
4, 73020, Note_on_c, 2, 76, 83
4, 73020, Note_on_c, 2, 67, 111
4, 73356, Note_on_c, 2, 67, 0
4, 73356, Note_on_c, 2, 76, 0
4, 73380, Note_on_c, 2, 76, 81
4, 73380, Note_on_c, 2, 67, 103
4, 73536, Note_on_c, 2, 67, 0
4, 73536, Note_on_c, 2, 76, 0
4, 73560, Note_on_c, 2, 76, 94
4, 73560, Note_on_c, 2, 67, 109
4, 73716, Note_on_c, 2, 67, 0
4, 73716, Note_on_c, 2, 76, 0
4, 73740, Note_on_c, 2, 76, 91
4, 73740, Note_on_c, 2, 67, 107
4, 73788, Note_on_c, 2, 67, 0
4, 73788, Note_on_c, 2, 76, 0
4, 73800, Note_on_c, 2, 77, 127
4, 73800, Note_on_c, 2, 69, 114
4, 73896, Note_on_c, 2, 69, 0
4, 73896, Note_on_c, 2, 77, 0
4, 77700, Note_on_c, 2, 62, 103
4, 77748, Note_on_c, 2, 62, 0
4, 77760, Note_on_c, 2, 67, 116
4, 77856, Note_on_c, 2, 67, 0
4, 77880, Note_on_c, 2, 70, 120
4, 77928, Note_on_c, 2, 70, 0
4, 77940, Note_on_c, 2, 74, 104
4, 77988, Note_on_c, 2, 74, 0
4, 78240, Note_on_c, 2, 64, 109
4, 78240, Note_on_c, 2, 67, 110
4, 78288, Note_on_c, 2, 67, 0
4, 78288, Note_on_c, 2, 64, 0
4, 78300, Note_on_c, 2, 70, 106
4, 78300, Note_on_c, 2, 67, 109
4, 78396, Note_on_c, 2, 67, 0
4, 78396, Note_on_c, 2, 70, 0
4, 78420, Note_on_c, 2, 70, 101
4, 78420, Note_on_c, 2, 67, 99
4, 78468, Note_on_c, 2, 67, 0
4, 78468, Note_on_c, 2, 70, 0
4, 78480, Note_on_c, 2, 65, 105
4, 78480, Note_on_c, 2, 69, 107
4, 79116, Note_on_c, 2, 69, 0
4, 79116, Note_on_c, 2, 65, 0
4, 79140, Note_on_c, 2, 65, 102
4, 79140, Note_on_c, 2, 69, 102
4, 79188, Note_on_c, 2, 69, 0
4, 79188, Note_on_c, 2, 65, 0
4, 79200, Note_on_c, 2, 65, 103
4, 79200, Note_on_c, 2, 69, 105
4, 79836, Note_on_c, 2, 69, 0
4, 79836, Note_on_c, 2, 65, 0
4, 79860, Note_on_c, 2, 77, 102
4, 79860, Note_on_c, 2, 69, 97
4, 79908, Note_on_c, 2, 69, 0
4, 79908, Note_on_c, 2, 77, 0
4, 79920, Note_on_c, 2, 74, 103
4, 79920, Note_on_c, 2, 77, 105
4, 80556, Note_on_c, 2, 77, 0
4, 80556, Note_on_c, 2, 74, 0
4, 80580, Note_on_c, 2, 74, 102
4, 80580, Note_on_c, 2, 77, 103
4, 80628, Note_on_c, 2, 77, 0
4, 80628, Note_on_c, 2, 74, 0
4, 80640, Note_on_c, 2, 70, 110
4, 80640, Note_on_c, 2, 77, 116
4, 80928, Note_on_c, 2, 77, 0
4, 81000, Note_on_c, 2, 76, 94
4, 81276, Note_on_c, 2, 76, 0
4, 81276, Note_on_c, 2, 70, 0
4, 81300, Note_on_c, 2, 70, 100
4, 81300, Note_on_c, 2, 76, 95
4, 81348, Note_on_c, 2, 76, 0
4, 81348, Note_on_c, 2, 70, 0
4, 81360, Note_on_c, 2, 75, 105
4, 81360, Note_on_c, 2, 72, 107
4, 81648, Note_on_c, 2, 72, 0
4, 81648, Note_on_c, 2, 75, 0
4, 81720, Note_on_c, 2, 75, 109
4, 81720, Note_on_c, 2, 72, 109
4, 82008, Note_on_c, 2, 72, 0
4, 82008, Note_on_c, 2, 75, 0
4, 82080, Note_on_c, 2, 70, 109
4, 82080, Note_on_c, 2, 75, 118
4, 82224, Note_on_c, 2, 75, 0
4, 82224, Note_on_c, 2, 70, 0
4, 82260, Note_on_c, 2, 74, 110
4, 82404, Note_on_c, 2, 74, 0
4, 82440, Note_on_c, 2, 72, 123
4, 82584, Note_on_c, 2, 72, 0
4, 82620, Note_on_c, 2, 70, 107
4, 82764, Note_on_c, 2, 70, 0
4, 82800, Note_on_c, 2, 69, 127
4, 82944, Note_on_c, 2, 69, 0
4, 82980, Note_on_c, 2, 67, 102
4, 82980, Note_on_c, 2, 70, 102
4, 83304, Note_on_c, 2, 70, 0
4, 83304, Note_on_c, 2, 67, 0
4, 83340, Note_on_c, 2, 70, 103
4, 83340, Note_on_c, 2, 67, 102
4, 83664, Note_on_c, 2, 67, 0
4, 83664, Note_on_c, 2, 70, 0
4, 83700, Note_on_c, 2, 72, 97
4, 84024, Note_on_c, 2, 72, 0
4, 84060, Note_on_c, 2, 70, 99
4, 84384, Note_on_c, 2, 70, 0
4, 84420, Note_on_c, 2, 67, 104
4, 84744, Note_on_c, 2, 67, 0
4, 84780, Note_on_c, 2, 64, 79
4, 84924, Note_on_c, 2, 64, 0
4, 84960, Note_on_c, 2, 65, 104
4, 85008, Note_on_c, 2, 65, 0
4, 87840, Note_on_c, 2, 69, 105
4, 87840, Note_on_c, 2, 65, 101
4, 87984, Note_on_c, 2, 65, 0
4, 87984, Note_on_c, 2, 69, 0
4, 88020, Note_on_c, 2, 70, 127
4, 88020, Note_on_c, 2, 65, 114
4, 88068, Note_on_c, 2, 65, 0
4, 88068, Note_on_c, 2, 70, 0
4, 88140, Note_on_c, 2, 72, 118
4, 88140, Note_on_c, 2, 65, 112
4, 88188, Note_on_c, 2, 65, 0
4, 88188, Note_on_c, 2, 72, 0
4, 88200, Note_on_c, 2, 74, 99
4, 88200, Note_on_c, 2, 65, 95
4, 88492, Note_on_c, 2, 65, 0
4, 88492, Note_on_c, 2, 74, 0
4, 89640, Control_c, 2, 7, 94
4, 89940, Note_on_c, 2, 69, 123
4, 89940, Note_on_c, 2, 72, 110
4, 89988, Note_on_c, 2, 72, 0
4, 89988, Note_on_c, 2, 69, 0
4, 90000, Note_on_c, 2, 67, 104
4, 90000, Note_on_c, 2, 72, 105
4, 90276, Note_on_c, 2, 72, 0
4, 90276, Note_on_c, 2, 67, 0
4, 90300, Note_on_c, 2, 72, 114
4, 90300, Note_on_c, 2, 67, 110
4, 90348, Note_on_c, 2, 67, 0
4, 90348, Note_on_c, 2, 72, 0
4, 90360, Note_on_c, 2, 69, 99
4, 90360, Note_on_c, 2, 72, 99
4, 90456, Note_on_c, 2, 72, 0
4, 90456, Note_on_c, 2, 69, 0
4, 90660, Note_on_c, 2, 69, 104
4, 90660, Note_on_c, 2, 72, 104
4, 90708, Note_on_c, 2, 72, 0
4, 90708, Note_on_c, 2, 69, 0
4, 90720, Note_on_c, 2, 67, 102
4, 90720, Note_on_c, 2, 72, 109
4, 90720, Control_c, 2, 7, 95
4, 90738, Control_c, 2, 7, 96
4, 90756, Control_c, 2, 7, 97
4, 90774, Control_c, 2, 7, 98
4, 90792, Control_c, 2, 7, 99
4, 90810, Control_c, 2, 7, 100
4, 90828, Control_c, 2, 7, 101
4, 90846, Control_c, 2, 7, 102
4, 90864, Control_c, 2, 7, 103
4, 90882, Control_c, 2, 7, 104
4, 90900, Control_c, 2, 7, 105
4, 90918, Control_c, 2, 7, 106
4, 90936, Control_c, 2, 7, 107
4, 90954, Control_c, 2, 7, 108
4, 90972, Control_c, 2, 7, 109
4, 90990, Control_c, 2, 7, 110
4, 90996, Note_on_c, 2, 72, 0
4, 90996, Note_on_c, 2, 67, 0
4, 91008, Control_c, 2, 7, 111
4, 91020, Note_on_c, 2, 72, 121
4, 91020, Note_on_c, 2, 67, 105
4, 91026, Control_c, 2, 7, 112
4, 91044, Control_c, 2, 7, 113
4, 91062, Control_c, 2, 7, 114
4, 91068, Note_on_c, 2, 67, 0
4, 91068, Note_on_c, 2, 72, 0
4, 91080, Note_on_c, 2, 76, 105
4, 91080, Note_on_c, 2, 67, 106
4, 91080, Control_c, 2, 7, 115
4, 92448, Note_on_c, 2, 67, 0
4, 92448, Note_on_c, 2, 76, 0
4, 92520, Note_on_c, 2, 77, 99
4, 92520, Note_on_c, 2, 69, 103
4, 92522, Control_c, 2, 7, 91
4, 92808, Note_on_c, 2, 69, 0
4, 92808, Note_on_c, 2, 77, 0
4, 92880, Note_on_c, 2, 77, 100
4, 92880, Note_on_c, 2, 69, 102
4, 93168, Note_on_c, 2, 69, 0
4, 93168, Note_on_c, 2, 77, 0
4, 93240, Note_on_c, 2, 65, 105
4, 94596, Note_on_c, 2, 65, 0
4, 94620, Note_on_c, 2, 60, 108
4, 94620, Note_on_c, 2, 69, 103
4, 94620, Control_c, 2, 7, 127
4, 94668, Note_on_c, 2, 69, 0
4, 94668, Note_on_c, 2, 60, 0
4, 94680, Note_on_c, 2, 65, 96
4, 94680, Note_on_c, 2, 57, 96
4, 94776, Note_on_c, 2, 57, 0
4, 94776, Note_on_c, 2, 65, 0
4, 94776, End_track
5, 0, Start_track
5, 0, MIDI_port, 0
5, 0, Title_t, "Bassoon"
5, 0, Program_c, 3, 70
5, 0, Control_c, 3, 7, 126
5, 0, Note_on_c, 3, 48, 109
5, 0, Note_on_c, 3, 52, 97
5, 96, Note_on_c, 3, 52, 0
5, 96, Note_on_c, 3, 48, 0
5, 2879, Control_c, 3, 7, 84
5, 2880, Note_on_c, 3, 53, 105
5, 2880, Note_on_c, 3, 57, 102
5, 3888, Note_on_c, 3, 57, 0
5, 3888, Note_on_c, 3, 53, 0
5, 3960, Note_on_c, 3, 53, 101
5, 3960, Note_on_c, 3, 50, 101
5, 4252, Note_on_c, 3, 50, 0
5, 4252, Note_on_c, 3, 53, 0
5, 4260, Note_on_c, 3, 55, 105
5, 4260, Note_on_c, 3, 52, 104
5, 4308, Note_on_c, 3, 52, 0
5, 4308, Note_on_c, 3, 55, 0
5, 4320, Note_on_c, 3, 55, 117
5, 4320, Note_on_c, 3, 52, 116
5, 4320, Note_on_c, 3, 55, 104
5, 4320, Note_on_c, 3, 52, 107
5, 4368, Note_on_c, 3, 52, 0
5, 4368, Note_on_c, 3, 55, 0
5, 4608, Note_on_c, 3, 52, 0
5, 4608, Note_on_c, 3, 55, 0
5, 4680, Note_on_c, 3, 57, 120
5, 4680, Note_on_c, 3, 53, 125
5, 4968, Note_on_c, 3, 57, 0
5, 5040, Note_on_c, 3, 55, 118
5, 5184, Note_on_c, 3, 55, 0
5, 5184, Note_on_c, 3, 53, 0
5, 5220, Note_on_c, 3, 55, 107
5, 5220, Note_on_c, 3, 52, 105
5, 5364, Note_on_c, 3, 52, 0
5, 5364, Note_on_c, 3, 55, 0
5, 5400, Note_on_c, 3, 57, 111
5, 5400, Note_on_c, 3, 53, 109
5, 5688, Note_on_c, 3, 53, 0
5, 5688, Note_on_c, 3, 57, 0
5, 5760, Note_on_c, 3, 53, 104
5, 5760, Note_on_c, 3, 57, 104
5, 5808, Note_on_c, 3, 57, 0
5, 5808, Note_on_c, 3, 53, 0
5, 5820, Note_on_c, 3, 53, 104
5, 5820, Note_on_c, 3, 57, 103
5, 5868, Note_on_c, 3, 57, 0
5, 5868, Note_on_c, 3, 53, 0
5, 5880, Note_on_c, 3, 53, 103
5, 5880, Note_on_c, 3, 57, 104
5, 5928, Note_on_c, 3, 57, 0
5, 5928, Note_on_c, 3, 53, 0
5, 5940, Note_on_c, 3, 53, 109
5, 5940, Note_on_c, 3, 57, 106
5, 5988, Note_on_c, 3, 57, 0
5, 5988, Note_on_c, 3, 53, 0
5, 6000, Note_on_c, 3, 53, 103
5, 6000, Note_on_c, 3, 57, 101
5, 6048, Note_on_c, 3, 57, 0
5, 6048, Note_on_c, 3, 53, 0
5, 6060, Note_on_c, 3, 53, 101
5, 6060, Note_on_c, 3, 57, 101
5, 6108, Note_on_c, 3, 57, 0
5, 6108, Note_on_c, 3, 53, 0
5, 6120, Note_on_c, 3, 53, 108
5, 6120, Note_on_c, 3, 57, 109
5, 6168, Note_on_c, 3, 57, 0
5, 6168, Note_on_c, 3, 53, 0
5, 6180, Note_on_c, 3, 53, 104
5, 6180, Note_on_c, 3, 57, 103
5, 6228, Note_on_c, 3, 57, 0
5, 6228, Note_on_c, 3, 53, 0
5, 6240, Note_on_c, 3, 53, 103
5, 6240, Note_on_c, 3, 57, 103
5, 6288, Note_on_c, 3, 57, 0
5, 6288, Note_on_c, 3, 53, 0
5, 6300, Note_on_c, 3, 53, 104
5, 6300, Note_on_c, 3, 57, 105
5, 6348, Note_on_c, 3, 57, 0
5, 6348, Note_on_c, 3, 53, 0
5, 6360, Note_on_c, 3, 53, 106
5, 6360, Note_on_c, 3, 57, 108
5, 6408, Note_on_c, 3, 57, 0
5, 6408, Note_on_c, 3, 53, 0
5, 6420, Note_on_c, 3, 53, 105
5, 6420, Note_on_c, 3, 57, 105
5, 6468, Note_on_c, 3, 57, 0
5, 6468, Note_on_c, 3, 53, 0
5, 6480, Note_on_c, 3, 53, 116
5, 6480, Note_on_c, 3, 57, 118
5, 6528, Note_on_c, 3, 57, 0
5, 6528, Note_on_c, 3, 53, 0
5, 6540, Note_on_c, 3, 53, 111
5, 6540, Note_on_c, 3, 57, 111
5, 6588, Note_on_c, 3, 57, 0
5, 6588, Note_on_c, 3, 53, 0
5, 6600, Note_on_c, 3, 53, 112
5, 6600, Note_on_c, 3, 57, 117
5, 6648, Note_on_c, 3, 57, 0
5, 6648, Note_on_c, 3, 53, 0
5, 6660, Note_on_c, 3, 53, 118
5, 6660, Note_on_c, 3, 57, 123
5, 6708, Note_on_c, 3, 57, 0
5, 6708, Note_on_c, 3, 53, 0
5, 6720, Note_on_c, 3, 53, 117
5, 6720, Note_on_c, 3, 57, 121
5, 6768, Note_on_c, 3, 57, 0
5, 6768, Note_on_c, 3, 53, 0
5, 6780, Note_on_c, 3, 57, 111
5, 6780, Note_on_c, 3, 53, 104
5, 6828, Note_on_c, 3, 53, 0
5, 6828, Note_on_c, 3, 57, 0
5, 6840, Note_on_c, 3, 53, 117
5, 6840, Note_on_c, 3, 50, 98
5, 6888, Note_on_c, 3, 50, 0
5, 6888, Note_on_c, 3, 53, 0
5, 6900, Note_on_c, 3, 53, 123
5, 6900, Note_on_c, 3, 50, 103
5, 6948, Note_on_c, 3, 50, 0
5, 6948, Note_on_c, 3, 53, 0
5, 6960, Note_on_c, 3, 53, 117
5, 6960, Note_on_c, 3, 50, 111
5, 7008, Note_on_c, 3, 50, 0
5, 7008, Note_on_c, 3, 53, 0
5, 7020, Note_on_c, 3, 53, 121
5, 7020, Note_on_c, 3, 50, 106
5, 7068, Note_on_c, 3, 50, 0
5, 7068, Note_on_c, 3, 53, 0
5, 7080, Note_on_c, 3, 53, 125
5, 7080, Note_on_c, 3, 50, 110
5, 7128, Note_on_c, 3, 50, 0
5, 7128, Note_on_c, 3, 53, 0
5, 7140, Note_on_c, 3, 52, 100
5, 7140, Note_on_c, 3, 55, 109
5, 7188, Note_on_c, 3, 55, 0
5, 7188, Note_on_c, 3, 52, 0
5, 7200, Note_on_c, 3, 52, 121
5, 7200, Note_on_c, 3, 55, 107
5, 7220, Control_c, 3, 7, 89
5, 7248, Note_on_c, 3, 55, 0
5, 7248, Note_on_c, 3, 52, 0
5, 7250, Control_c, 3, 7, 90
5, 7260, Note_on_c, 3, 52, 107
5, 7260, Note_on_c, 3, 55, 112
5, 7280, Control_c, 3, 7, 91
5, 7308, Note_on_c, 3, 55, 0
5, 7308, Note_on_c, 3, 52, 0
5, 7310, Control_c, 3, 7, 92
5, 7320, Note_on_c, 3, 52, 108
5, 7320, Note_on_c, 3, 55, 116
5, 7340, Control_c, 3, 7, 93
5, 7368, Note_on_c, 3, 55, 0
5, 7368, Note_on_c, 3, 52, 0
5, 7370, Control_c, 3, 7, 94
5, 7380, Note_on_c, 3, 55, 112
5, 7380, Note_on_c, 3, 52, 109
5, 7400, Control_c, 3, 7, 95
5, 7428, Note_on_c, 3, 52, 0
5, 7428, Note_on_c, 3, 55, 0
5, 7430, Control_c, 3, 7, 96
5, 7440, Note_on_c, 3, 55, 125
5, 7440, Note_on_c, 3, 52, 110
5, 7458, Control_c, 3, 7, 97
5, 7488, Note_on_c, 3, 52, 0
5, 7488, Note_on_c, 3, 55, 0
5, 7488, Control_c, 3, 7, 98
5, 7500, Note_on_c, 3, 55, 107
5, 7500, Note_on_c, 3, 48, 103
5, 7518, Control_c, 3, 7, 99
5, 7548, Note_on_c, 3, 48, 0
5, 7548, Note_on_c, 3, 55, 0
5, 7548, Control_c, 3, 7, 100
5, 7560, Note_on_c, 3, 53, 117
5, 7560, Note_on_c, 3, 57, 108
5, 7578, Control_c, 3, 7, 101
5, 7608, Note_on_c, 3, 57, 0
5, 7608, Note_on_c, 3, 53, 0
5, 7608, Control_c, 3, 7, 102
5, 7620, Note_on_c, 3, 53, 109
5, 7620, Note_on_c, 3, 57, 112
5, 7638, Control_c, 3, 7, 103
5, 7668, Note_on_c, 3, 57, 0
5, 7668, Note_on_c, 3, 53, 0
5, 7668, Control_c, 3, 7, 104
5, 7680, Note_on_c, 3, 53, 109
5, 7680, Note_on_c, 3, 57, 113
5, 7696, Control_c, 3, 7, 105
5, 7726, Control_c, 3, 7, 106
5, 7728, Note_on_c, 3, 57, 0
5, 7728, Note_on_c, 3, 53, 0
5, 7740, Note_on_c, 3, 53, 114
5, 7740, Note_on_c, 3, 50, 103
5, 7756, Control_c, 3, 7, 107
5, 7786, Control_c, 3, 7, 108
5, 7788, Note_on_c, 3, 50, 0
5, 7788, Note_on_c, 3, 53, 0
5, 7800, Note_on_c, 3, 53, 127
5, 7800, Note_on_c, 3, 50, 109
5, 7816, Control_c, 3, 7, 109
5, 7846, Control_c, 3, 7, 110
5, 7848, Note_on_c, 3, 50, 0
5, 7848, Note_on_c, 3, 53, 0
5, 7860, Note_on_c, 3, 53, 127
5, 7860, Note_on_c, 3, 45, 109
5, 7876, Control_c, 3, 7, 111
5, 7904, Control_c, 3, 7, 112
5, 7908, Note_on_c, 3, 45, 0
5, 7908, Note_on_c, 3, 53, 0
5, 7920, Note_on_c, 3, 53, 127
5, 7920, Note_on_c, 3, 46, 100
5, 7934, Control_c, 3, 7, 113
5, 7964, Control_c, 3, 7, 114
5, 7968, Note_on_c, 3, 46, 0
5, 7968, Note_on_c, 3, 53, 0
5, 7980, Note_on_c, 3, 46, 95
5, 7980, Note_on_c, 3, 53, 110
5, 7994, Control_c, 3, 7, 115
5, 8024, Control_c, 3, 7, 116
5, 8028, Note_on_c, 3, 53, 0
5, 8028, Note_on_c, 3, 46, 0
5, 8040, Note_on_c, 3, 53, 116
5, 8040, Note_on_c, 3, 46, 88
5, 8054, Control_c, 3, 7, 117
5, 8084, Control_c, 3, 7, 118
5, 8088, Note_on_c, 3, 46, 0
5, 8088, Note_on_c, 3, 53, 0
5, 8100, Note_on_c, 3, 48, 96
5, 8100, Note_on_c, 3, 52, 118
5, 8114, Control_c, 3, 7, 119
5, 8142, Control_c, 3, 7, 120
5, 8148, Note_on_c, 3, 52, 0
5, 8148, Note_on_c, 3, 48, 0
5, 8160, Note_on_c, 3, 48, 110
5, 8160, Note_on_c, 3, 52, 112
5, 8172, Control_c, 3, 7, 121
5, 8202, Control_c, 3, 7, 122
5, 8208, Note_on_c, 3, 52, 0
5, 8208, Note_on_c, 3, 48, 0
5, 8220, Note_on_c, 3, 48, 109
5, 8220, Note_on_c, 3, 52, 118
5, 8232, Control_c, 3, 7, 123
5, 8262, Control_c, 3, 7, 124
5, 8268, Note_on_c, 3, 52, 0
5, 8268, Note_on_c, 3, 48, 0
5, 8280, Note_on_c, 3, 41, 112
5, 8280, Note_on_c, 3, 53, 98
5, 8292, Control_c, 3, 7, 125
5, 8322, Control_c, 3, 7, 126
5, 8328, Note_on_c, 3, 53, 0
5, 8328, Note_on_c, 3, 41, 0
5, 8340, Note_on_c, 3, 53, 104
5, 8340, Note_on_c, 3, 41, 108
5, 8350, Control_c, 3, 7, 127
5, 8388, Note_on_c, 3, 41, 0
5, 8388, Note_on_c, 3, 53, 0
5, 8400, Note_on_c, 3, 53, 118
5, 8400, Note_on_c, 3, 41, 104
5, 8448, Note_on_c, 3, 41, 0
5, 8448, Note_on_c, 3, 53, 0
5, 8460, Note_on_c, 3, 53, 104
5, 8460, Note_on_c, 3, 41, 103
5, 8508, Note_on_c, 3, 41, 0
5, 8508, Note_on_c, 3, 53, 0
5, 8520, Note_on_c, 3, 53, 111
5, 8520, Note_on_c, 3, 41, 107
5, 8568, Note_on_c, 3, 41, 0
5, 8568, Note_on_c, 3, 53, 0
5, 8580, Note_on_c, 3, 53, 103
5, 8580, Note_on_c, 3, 41, 102
5, 8628, Note_on_c, 3, 41, 0
5, 8628, Note_on_c, 3, 53, 0
5, 8640, Note_on_c, 3, 53, 107
5, 8640, Note_on_c, 3, 41, 107
5, 8688, Note_on_c, 3, 41, 0
5, 8688, Note_on_c, 3, 53, 0
5, 8700, Note_on_c, 3, 53, 103
5, 8700, Note_on_c, 3, 41, 100
5, 8748, Note_on_c, 3, 41, 0
5, 8748, Note_on_c, 3, 53, 0
5, 8760, Note_on_c, 3, 41, 106
5, 8760, Note_on_c, 3, 53, 103
5, 8808, Note_on_c, 3, 53, 0
5, 8808, Note_on_c, 3, 41, 0
5, 8820, Note_on_c, 3, 53, 103
5, 8820, Note_on_c, 3, 41, 105
5, 8868, Note_on_c, 3, 41, 0
5, 8868, Note_on_c, 3, 53, 0
5, 8880, Note_on_c, 3, 53, 94
5, 8880, Note_on_c, 3, 41, 105
5, 8928, Note_on_c, 3, 41, 0
5, 8928, Note_on_c, 3, 53, 0
5, 8940, Note_on_c, 3, 41, 102
5, 8940, Note_on_c, 3, 53, 101
5, 8988, Note_on_c, 3, 53, 0
5, 8988, Note_on_c, 3, 41, 0
5, 9000, Note_on_c, 3, 53, 117
5, 9000, Note_on_c, 3, 41, 109
5, 9048, Note_on_c, 3, 41, 0
5, 9048, Note_on_c, 3, 53, 0
5, 9060, Note_on_c, 3, 53, 118
5, 9060, Note_on_c, 3, 41, 107
5, 9108, Note_on_c, 3, 41, 0
5, 9108, Note_on_c, 3, 53, 0
5, 9120, Note_on_c, 3, 53, 127
5, 9120, Note_on_c, 3, 41, 120
5, 9168, Note_on_c, 3, 41, 0
5, 9168, Note_on_c, 3, 53, 0
5, 9180, Note_on_c, 3, 41, 120
5, 9180, Note_on_c, 3, 53, 118
5, 9228, Note_on_c, 3, 53, 0
5, 9228, Note_on_c, 3, 41, 0
5, 9240, Note_on_c, 3, 53, 112
5, 9240, Note_on_c, 3, 41, 107
5, 9288, Note_on_c, 3, 41, 0
5, 9288, Note_on_c, 3, 53, 0
5, 9300, Note_on_c, 3, 41, 117
5, 9300, Note_on_c, 3, 53, 113
5, 9348, Note_on_c, 3, 53, 0
5, 9348, Note_on_c, 3, 41, 0
5, 9360, Note_on_c, 3, 41, 117
5, 9360, Note_on_c, 3, 53, 123
5, 9408, Note_on_c, 3, 53, 0
5, 9408, Note_on_c, 3, 41, 0
5, 9420, Note_on_c, 3, 53, 117
5, 9420, Note_on_c, 3, 41, 111
5, 9468, Note_on_c, 3, 41, 0
5, 9468, Note_on_c, 3, 53, 0
5, 9480, Note_on_c, 3, 53, 127
5, 9480, Note_on_c, 3, 41, 117
5, 9528, Note_on_c, 3, 41, 0
5, 9528, Note_on_c, 3, 53, 0
5, 9540, Note_on_c, 3, 53, 123
5, 9540, Note_on_c, 3, 41, 118
5, 9588, Note_on_c, 3, 41, 0
5, 9588, Note_on_c, 3, 53, 0
5, 9600, Note_on_c, 3, 53, 120
5, 9600, Note_on_c, 3, 41, 109
5, 9648, Note_on_c, 3, 41, 0
5, 9648, Note_on_c, 3, 53, 0
5, 9660, Note_on_c, 3, 53, 110
5, 9660, Note_on_c, 3, 41, 109
5, 9708, Note_on_c, 3, 41, 0
5, 9708, Note_on_c, 3, 53, 0
5, 9720, Note_on_c, 3, 38, 120
5, 9720, Note_on_c, 3, 50, 112
5, 9768, Note_on_c, 3, 50, 0
5, 9768, Note_on_c, 3, 38, 0
5, 9780, Note_on_c, 3, 38, 125
5, 9780, Note_on_c, 3, 50, 111
5, 9828, Note_on_c, 3, 50, 0
5, 9828, Note_on_c, 3, 38, 0
5, 9840, Note_on_c, 3, 38, 114
5, 9840, Note_on_c, 3, 50, 107
5, 9888, Note_on_c, 3, 50, 0
5, 9888, Note_on_c, 3, 38, 0
5, 9900, Note_on_c, 3, 38, 127
5, 9900, Note_on_c, 3, 50, 117
5, 9948, Note_on_c, 3, 50, 0
5, 9948, Note_on_c, 3, 38, 0
5, 9960, Note_on_c, 3, 38, 114
5, 9960, Note_on_c, 3, 50, 109
5, 10008, Note_on_c, 3, 50, 0
5, 10008, Note_on_c, 3, 38, 0
5, 10020, Note_on_c, 3, 40, 108
5, 10020, Note_on_c, 3, 52, 103
5, 10068, Note_on_c, 3, 52, 0
5, 10068, Note_on_c, 3, 40, 0
5, 10080, Note_on_c, 3, 40, 118
5, 10080, Note_on_c, 3, 52, 118
5, 10128, Note_on_c, 3, 52, 0
5, 10128, Note_on_c, 3, 40, 0
5, 10140, Note_on_c, 3, 40, 110
5, 10140, Note_on_c, 3, 52, 100
5, 10188, Note_on_c, 3, 52, 0
5, 10188, Note_on_c, 3, 40, 0
5, 10200, Note_on_c, 3, 40, 123
5, 10200, Note_on_c, 3, 52, 109
5, 10248, Note_on_c, 3, 52, 0
5, 10248, Note_on_c, 3, 40, 0
5, 10260, Note_on_c, 3, 40, 125
5, 10260, Note_on_c, 3, 52, 107
5, 10308, Note_on_c, 3, 52, 0
5, 10308, Note_on_c, 3, 40, 0
5, 10320, Note_on_c, 3, 52, 114
5, 10320, Note_on_c, 3, 40, 117
5, 10368, Note_on_c, 3, 40, 0
5, 10368, Note_on_c, 3, 52, 0
5, 10380, Note_on_c, 3, 36, 120
5, 10380, Note_on_c, 3, 48, 121
5, 10428, Note_on_c, 3, 48, 0
5, 10428, Note_on_c, 3, 36, 0
5, 10440, Note_on_c, 3, 41, 103
5, 10440, Note_on_c, 3, 53, 114
5, 10488, Note_on_c, 3, 53, 0
5, 10488, Note_on_c, 3, 41, 0
5, 10500, Note_on_c, 3, 41, 107
5, 10500, Note_on_c, 3, 53, 112
5, 10548, Note_on_c, 3, 53, 0
5, 10548, Note_on_c, 3, 41, 0
5, 10560, Note_on_c, 3, 41, 105
5, 10560, Note_on_c, 3, 53, 109
5, 10608, Note_on_c, 3, 53, 0
5, 10608, Note_on_c, 3, 41, 0
5, 10620, Note_on_c, 3, 50, 104
5, 10620, Note_on_c, 3, 38, 100
5, 10668, Note_on_c, 3, 38, 0
5, 10668, Note_on_c, 3, 50, 0
5, 10680, Note_on_c, 3, 38, 105
5, 10680, Note_on_c, 3, 50, 111
5, 10728, Note_on_c, 3, 50, 0
5, 10728, Note_on_c, 3, 38, 0
5, 10740, Note_on_c, 3, 45, 127
5, 10788, Note_on_c, 3, 45, 0
5, 10800, Note_on_c, 3, 46, 115
5, 10800, Note_on_c, 3, 34, 115
5, 10848, Note_on_c, 3, 34, 0
5, 10848, Note_on_c, 3, 46, 0
5, 10860, Note_on_c, 3, 34, 123
5, 10860, Note_on_c, 3, 46, 113
5, 10908, Note_on_c, 3, 46, 0
5, 10908, Note_on_c, 3, 34, 0
5, 10920, Note_on_c, 3, 34, 113
5, 10920, Note_on_c, 3, 46, 121
5, 10968, Note_on_c, 3, 46, 0
5, 10968, Note_on_c, 3, 34, 0
5, 10980, Note_on_c, 3, 36, 118
5, 10980, Note_on_c, 3, 48, 105
5, 11028, Note_on_c, 3, 48, 0
5, 11028, Note_on_c, 3, 36, 0
5, 11040, Note_on_c, 3, 48, 107
5, 11040, Note_on_c, 3, 36, 127
5, 11088, Note_on_c, 3, 36, 0
5, 11088, Note_on_c, 3, 48, 0
5, 11100, Note_on_c, 3, 36, 125
5, 11100, Note_on_c, 3, 48, 112
5, 11148, Note_on_c, 3, 48, 0
5, 11148, Note_on_c, 3, 36, 0
5, 11160, Note_on_c, 3, 41, 127
5, 11208, Note_on_c, 3, 41, 0
5, 11820, Note_on_c, 3, 55, 112
5, 11820, Note_on_c, 3, 52, 110
5, 11880, Note_on_c, 3, 53, 127
5, 11916, Note_on_c, 3, 52, 0
5, 11916, Note_on_c, 3, 55, 0
5, 12024, Note_on_c, 3, 53, 0
5, 12060, Note_on_c, 3, 52, 108
5, 12060, Note_on_c, 3, 55, 109
5, 12204, Note_on_c, 3, 55, 0
5, 12204, Note_on_c, 3, 52, 0
5, 12240, Note_on_c, 3, 57, 125
5, 12240, Note_on_c, 3, 53, 125
5, 12384, Note_on_c, 3, 53, 0
5, 12384, Note_on_c, 3, 57, 0
5, 12420, Note_on_c, 3, 58, 86
5, 12420, Note_on_c, 3, 55, 117
5, 12516, Note_on_c, 3, 55, 0
5, 12516, Note_on_c, 3, 58, 0
5, 12540, Note_on_c, 3, 55, 107
5, 12540, Note_on_c, 3, 52, 101
5, 12588, Note_on_c, 3, 52, 0
5, 12588, Note_on_c, 3, 55, 0
5, 13260, Note_on_c, 3, 52, 109
5, 13260, Note_on_c, 3, 55, 123
5, 13320, Note_on_c, 3, 53, 127
5, 13356, Note_on_c, 3, 55, 0
5, 13356, Note_on_c, 3, 52, 0
5, 13464, Note_on_c, 3, 53, 0
5, 13500, Note_on_c, 3, 52, 125
5, 13500, Note_on_c, 3, 55, 121
5, 13644, Note_on_c, 3, 55, 0
5, 13644, Note_on_c, 3, 52, 0
5, 13680, Note_on_c, 3, 53, 110
5, 13680, Note_on_c, 3, 57, 111
5, 13824, Note_on_c, 3, 57, 0
5, 13824, Note_on_c, 3, 53, 0
5, 13860, Note_on_c, 3, 58, 105
5, 13860, Note_on_c, 3, 55, 116
5, 13956, Note_on_c, 3, 55, 0
5, 13956, Note_on_c, 3, 58, 0
5, 13980, Note_on_c, 3, 55, 127
5, 13980, Note_on_c, 3, 58, 118
5, 14028, Note_on_c, 3, 58, 0
5, 14028, Note_on_c, 3, 55, 0
5, 14040, Note_on_c, 3, 57, 118
5, 14040, Note_on_c, 3, 60, 123
5, 14184, Note_on_c, 3, 60, 0
5, 14184, Note_on_c, 3, 57, 0
5, 14220, Note_on_c, 3, 62, 127
5, 14220, Note_on_c, 3, 59, 127
5, 14316, Note_on_c, 3, 59, 0
5, 14316, Note_on_c, 3, 62, 0
5, 14340, Note_on_c, 3, 47, 106
5, 14340, Note_on_c, 3, 50, 127
5, 14388, Note_on_c, 3, 50, 0
5, 14388, Note_on_c, 3, 47, 0
5, 14400, Note_on_c, 3, 48, 109
5, 14400, Note_on_c, 3, 52, 120
5, 14544, Note_on_c, 3, 52, 0
5, 14544, Note_on_c, 3, 48, 0
5, 14580, Note_on_c, 3, 53, 125
5, 14580, Note_on_c, 3, 50, 123
5, 14676, Note_on_c, 3, 50, 0
5, 14676, Note_on_c, 3, 53, 0
5, 14700, Note_on_c, 3, 53, 121
5, 14700, Note_on_c, 3, 50, 117
5, 14748, Note_on_c, 3, 50, 0
5, 14748, Note_on_c, 3, 53, 0
5, 14760, Note_on_c, 3, 55, 112
5, 14760, Note_on_c, 3, 52, 109
5, 15036, Note_on_c, 3, 52, 0
5, 15036, Note_on_c, 3, 55, 0
5, 15060, Note_on_c, 3, 48, 108
5, 15060, Note_on_c, 3, 52, 120
5, 15108, Note_on_c, 3, 52, 0
5, 15108, Note_on_c, 3, 48, 0
5, 15120, Note_on_c, 3, 52, 116
5, 15120, Note_on_c, 3, 48, 116
5, 15216, Note_on_c, 3, 48, 0
5, 15216, Note_on_c, 3, 52, 0
5, 15240, Note_on_c, 3, 52, 114
5, 15240, Note_on_c, 3, 48, 114
5, 15288, Note_on_c, 3, 48, 0
5, 15288, Note_on_c, 3, 52, 0
5, 15300, Note_on_c, 3, 52, 116
5, 15300, Note_on_c, 3, 48, 113
5, 15396, Note_on_c, 3, 48, 0
5, 15396, Note_on_c, 3, 52, 0
5, 15420, Note_on_c, 3, 48, 116
5, 15420, Note_on_c, 3, 52, 120
5, 15468, Note_on_c, 3, 52, 0
5, 15468, Note_on_c, 3, 48, 0
5, 15480, Note_on_c, 3, 53, 107
5, 15480, Note_on_c, 3, 50, 113
5, 15756, Note_on_c, 3, 50, 0
5, 15756, Note_on_c, 3, 53, 0
5, 15780, Note_on_c, 3, 43, 99
5, 15780, Note_on_c, 3, 50, 109
5, 15828, Note_on_c, 3, 50, 0
5, 15828, Note_on_c, 3, 43, 0
5, 15840, Note_on_c, 3, 43, 107
5, 15840, Note_on_c, 3, 50, 118
5, 15936, Note_on_c, 3, 50, 0
5, 15936, Note_on_c, 3, 43, 0
5, 15960, Note_on_c, 3, 43, 98
5, 15960, Note_on_c, 3, 50, 105
5, 16008, Note_on_c, 3, 50, 0
5, 16008, Note_on_c, 3, 43, 0
5, 16020, Note_on_c, 3, 43, 106
5, 16020, Note_on_c, 3, 50, 111
5, 16116, Note_on_c, 3, 50, 0
5, 16116, Note_on_c, 3, 43, 0
5, 16140, Note_on_c, 3, 43, 103
5, 16140, Note_on_c, 3, 50, 109
5, 16188, Note_on_c, 3, 50, 0
5, 16188, Note_on_c, 3, 43, 0
5, 16200, Note_on_c, 3, 52, 112
5, 16200, Note_on_c, 3, 55, 114
5, 16296, Note_on_c, 3, 55, 0
5, 16296, Note_on_c, 3, 52, 0
5, 16320, Note_on_c, 3, 52, 113
5, 16320, Note_on_c, 3, 55, 121
5, 16368, Note_on_c, 3, 55, 0
5, 16368, Note_on_c, 3, 52, 0
5, 16380, Note_on_c, 3, 52, 108
5, 16380, Note_on_c, 3, 55, 118
5, 16476, Note_on_c, 3, 55, 0
5, 16476, Note_on_c, 3, 52, 0
5, 16500, Note_on_c, 3, 55, 127
5, 16500, Note_on_c, 3, 52, 125
5, 16548, Note_on_c, 3, 52, 0
5, 16548, Note_on_c, 3, 55, 0
5, 16560, Note_on_c, 3, 52, 105
5, 16560, Note_on_c, 3, 55, 116
5, 16656, Note_on_c, 3, 55, 0
5, 16656, Note_on_c, 3, 52, 0
5, 16680, Note_on_c, 3, 48, 100
5, 16680, Note_on_c, 3, 52, 99
5, 16728, Note_on_c, 3, 52, 0
5, 16728, Note_on_c, 3, 48, 0
5, 16740, Note_on_c, 3, 52, 110
5, 16740, Note_on_c, 3, 48, 107
5, 16836, Note_on_c, 3, 48, 0
5, 16836, Note_on_c, 3, 52, 0
5, 16860, Note_on_c, 3, 52, 109
5, 16860, Note_on_c, 3, 48, 109
5, 16908, Note_on_c, 3, 48, 0
5, 16908, Note_on_c, 3, 52, 0
5, 16920, Note_on_c, 3, 53, 102
5, 16920, Note_on_c, 3, 50, 105
5, 17016, Note_on_c, 3, 50, 0
5, 17016, Note_on_c, 3, 53, 0
5, 17040, Note_on_c, 3, 53, 108
5, 17040, Note_on_c, 3, 50, 109
5, 17088, Note_on_c, 3, 50, 0
5, 17088, Note_on_c, 3, 53, 0
5, 17100, Note_on_c, 3, 53, 105
5, 17100, Note_on_c, 3, 50, 106
5, 17196, Note_on_c, 3, 50, 0
5, 17196, Note_on_c, 3, 53, 0
5, 17220, Note_on_c, 3, 53, 108
5, 17220, Note_on_c, 3, 50, 107
5, 17268, Note_on_c, 3, 50, 0
5, 17268, Note_on_c, 3, 53, 0
5, 17280, Note_on_c, 3, 53, 114
5, 17280, Note_on_c, 3, 50, 117
5, 17376, Note_on_c, 3, 50, 0
5, 17376, Note_on_c, 3, 53, 0
5, 17400, Note_on_c, 3, 50, 113
5, 17400, Note_on_c, 3, 43, 100
5, 17448, Note_on_c, 3, 43, 0
5, 17448, Note_on_c, 3, 50, 0
5, 17460, Note_on_c, 3, 50, 107
5, 17460, Note_on_c, 3, 43, 100
5, 17556, Note_on_c, 3, 43, 0
5, 17556, Note_on_c, 3, 50, 0
5, 17580, Note_on_c, 3, 50, 107
5, 17580, Note_on_c, 3, 43, 102
5, 17628, Note_on_c, 3, 43, 0
5, 17628, Note_on_c, 3, 50, 0
5, 17640, Note_on_c, 3, 48, 109
5, 17640, Note_on_c, 3, 52, 113
5, 17736, Note_on_c, 3, 52, 0
5, 17736, Note_on_c, 3, 48, 0
5, 17940, Note_on_c, 3, 60, 103
5, 18048, Note_on_c, 3, 60, 0
5, 18060, Note_on_c, 3, 65, 103
5, 18108, Note_on_c, 3, 65, 0
5, 18120, Note_on_c, 3, 48, 121
5, 18120, Note_on_c, 3, 64, 125
5, 18168, Note_on_c, 3, 64, 0
5, 18168, Note_on_c, 3, 48, 0
5, 18180, Note_on_c, 3, 43, 117
5, 18180, Note_on_c, 3, 59, 121
5, 18276, Note_on_c, 3, 59, 0
5, 18276, Note_on_c, 3, 43, 0
5, 18300, Note_on_c, 3, 59, 111
5, 18300, Note_on_c, 3, 43, 97
5, 18348, Note_on_c, 3, 43, 0
5, 18348, Note_on_c, 3, 59, 0
5, 18360, Note_on_c, 3, 60, 118
5, 18360, Note_on_c, 3, 48, 120
5, 18408, Note_on_c, 3, 48, 0
5, 18408, Note_on_c, 3, 60, 0
5, 18660, Note_on_c, 3, 60, 107
5, 18768, Note_on_c, 3, 60, 0
5, 18780, Note_on_c, 3, 65, 111
5, 18828, Note_on_c, 3, 65, 0
5, 18840, Note_on_c, 3, 48, 127
5, 18840, Note_on_c, 3, 64, 127
5, 18888, Note_on_c, 3, 64, 0
5, 18888, Note_on_c, 3, 48, 0
5, 18900, Note_on_c, 3, 59, 113
5, 18900, Note_on_c, 3, 43, 108
5, 18996, Note_on_c, 3, 43, 0
5, 18996, Note_on_c, 3, 59, 0
5, 19020, Note_on_c, 3, 59, 127
5, 19020, Note_on_c, 3, 43, 127
5, 19068, Note_on_c, 3, 43, 0
5, 19068, Note_on_c, 3, 59, 0
5, 19080, Note_on_c, 3, 48, 127
5, 19080, Note_on_c, 3, 60, 121
5, 19224, Note_on_c, 3, 60, 0
5, 19224, Note_on_c, 3, 48, 0
5, 19260, Note_on_c, 3, 55, 110
5, 19260, Note_on_c, 3, 48, 107
5, 19308, Note_on_c, 3, 48, 0
5, 19308, Note_on_c, 3, 55, 0
5, 19380, Note_on_c, 3, 64, 123
5, 19380, Note_on_c, 3, 55, 125
5, 19428, Note_on_c, 3, 55, 0
5, 19428, Note_on_c, 3, 64, 0
5, 19440, Note_on_c, 3, 62, 113
5, 19440, Note_on_c, 3, 53, 117
5, 19584, Note_on_c, 3, 53, 0
5, 19584, Note_on_c, 3, 62, 0
5, 19620, Note_on_c, 3, 53, 104
5, 19620, Note_on_c, 3, 50, 105
5, 19668, Note_on_c, 3, 50, 0
5, 19668, Note_on_c, 3, 53, 0
5, 19740, Note_on_c, 3, 65, 117
5, 19740, Note_on_c, 3, 57, 106
5, 19788, Note_on_c, 3, 57, 0
5, 19788, Note_on_c, 3, 65, 0
5, 19800, Note_on_c, 3, 60, 117
5, 19800, Note_on_c, 3, 64, 123
5, 19848, Note_on_c, 3, 64, 0
5, 19848, Note_on_c, 3, 60, 0
5, 21960, Note_on_c, 3, 58, 100
5, 22608, Note_on_c, 3, 58, 0
5, 22680, Note_on_c, 3, 53, 109
5, 22680, Note_on_c, 3, 57, 105
5, 22680, Control_c, 3, 7, 85
5, 23688, Note_on_c, 3, 57, 0
5, 23688, Note_on_c, 3, 53, 0
5, 23760, Note_on_c, 3, 53, 106
5, 23760, Note_on_c, 3, 50, 105
5, 23904, Note_on_c, 3, 50, 0
5, 23904, Note_on_c, 3, 53, 0
5, 23940, Note_on_c, 3, 53, 114
5, 23940, Note_on_c, 3, 50, 109
5, 24036, Note_on_c, 3, 50, 0
5, 24036, Note_on_c, 3, 53, 0
5, 24060, Note_on_c, 3, 55, 121
5, 24060, Note_on_c, 3, 52, 111
5, 24108, Note_on_c, 3, 52, 0
5, 24108, Note_on_c, 3, 55, 0
5, 24120, Note_on_c, 3, 55, 107
5, 24120, Note_on_c, 3, 52, 108
5, 24408, Note_on_c, 3, 52, 0
5, 24408, Note_on_c, 3, 55, 0
5, 24480, Note_on_c, 3, 53, 112
5, 24480, Note_on_c, 3, 57, 117
5, 24768, Note_on_c, 3, 57, 0
5, 24840, Note_on_c, 3, 55, 104
5, 24984, Note_on_c, 3, 55, 0
5, 24984, Note_on_c, 3, 53, 0
5, 25020, Note_on_c, 3, 55, 107
5, 25020, Note_on_c, 3, 52, 107
5, 25164, Note_on_c, 3, 52, 0
5, 25164, Note_on_c, 3, 55, 0
5, 25200, Note_on_c, 3, 57, 123
5, 25200, Note_on_c, 3, 53, 127
5, 25488, Note_on_c, 3, 53, 0
5, 25488, Note_on_c, 3, 57, 0
5, 25560, Note_on_c, 3, 53, 106
5, 25560, Note_on_c, 3, 57, 105
5, 25608, Note_on_c, 3, 57, 0
5, 25608, Note_on_c, 3, 53, 0
5, 25620, Note_on_c, 3, 53, 105
5, 25620, Note_on_c, 3, 57, 109
5, 25668, Note_on_c, 3, 57, 0
5, 25668, Note_on_c, 3, 53, 0
5, 25680, Note_on_c, 3, 53, 103
5, 25680, Note_on_c, 3, 57, 104
5, 25728, Note_on_c, 3, 57, 0
5, 25728, Note_on_c, 3, 53, 0
5, 25740, Note_on_c, 3, 53, 109
5, 25740, Note_on_c, 3, 57, 111
5, 25788, Note_on_c, 3, 57, 0
5, 25788, Note_on_c, 3, 53, 0
5, 25800, Note_on_c, 3, 53, 107
5, 25800, Note_on_c, 3, 57, 109
5, 25848, Note_on_c, 3, 57, 0
5, 25848, Note_on_c, 3, 53, 0
5, 25860, Note_on_c, 3, 53, 108
5, 25860, Note_on_c, 3, 57, 112
5, 25908, Note_on_c, 3, 57, 0
5, 25908, Note_on_c, 3, 53, 0
5, 25920, Note_on_c, 3, 53, 109
5, 25920, Note_on_c, 3, 57, 114
5, 25968, Note_on_c, 3, 57, 0
5, 25968, Note_on_c, 3, 53, 0
5, 25980, Note_on_c, 3, 53, 104
5, 25980, Note_on_c, 3, 57, 106
5, 26028, Note_on_c, 3, 57, 0
5, 26028, Note_on_c, 3, 53, 0
5, 26040, Note_on_c, 3, 53, 109
5, 26040, Note_on_c, 3, 57, 120
5, 26088, Note_on_c, 3, 57, 0
5, 26088, Note_on_c, 3, 53, 0
5, 26100, Note_on_c, 3, 53, 104
5, 26100, Note_on_c, 3, 57, 110
5, 26100, Control_c, 3, 7, 85
5, 26102, Control_c, 3, 7, 84
5, 26126, Control_c, 3, 7, 85
5, 26148, Note_on_c, 3, 57, 0
5, 26148, Note_on_c, 3, 53, 0
5, 26150, Control_c, 3, 7, 86
5, 26160, Note_on_c, 3, 53, 106
5, 26160, Note_on_c, 3, 57, 107
5, 26174, Control_c, 3, 7, 87
5, 26196, Control_c, 3, 7, 88
5, 26208, Note_on_c, 3, 57, 0
5, 26208, Note_on_c, 3, 53, 0
5, 26220, Note_on_c, 3, 53, 101
5, 26220, Note_on_c, 3, 57, 105
5, 26220, Control_c, 3, 7, 89
5, 26244, Control_c, 3, 7, 90
5, 26268, Note_on_c, 3, 57, 0
5, 26268, Note_on_c, 3, 53, 0
5, 26268, Control_c, 3, 7, 91
5, 26280, Note_on_c, 3, 53, 105
5, 26280, Note_on_c, 3, 57, 114
5, 26290, Control_c, 3, 7, 92
5, 26314, Control_c, 3, 7, 93
5, 26328, Note_on_c, 3, 57, 0
5, 26328, Note_on_c, 3, 53, 0
5, 26338, Control_c, 3, 7, 94
5, 26340, Note_on_c, 3, 53, 103
5, 26340, Note_on_c, 3, 57, 107
5, 26360, Control_c, 3, 7, 95
5, 26384, Control_c, 3, 7, 96
5, 26388, Note_on_c, 3, 57, 0
5, 26388, Note_on_c, 3, 53, 0
5, 26400, Note_on_c, 3, 53, 102
5, 26400, Note_on_c, 3, 57, 104
5, 26408, Control_c, 3, 7, 97
5, 26432, Control_c, 3, 7, 98
5, 26448, Note_on_c, 3, 57, 0
5, 26448, Note_on_c, 3, 53, 0
5, 26454, Control_c, 3, 7, 99
5, 26460, Note_on_c, 3, 53, 103
5, 26460, Note_on_c, 3, 57, 108
5, 26478, Control_c, 3, 7, 100
5, 26502, Control_c, 3, 7, 101
5, 26508, Note_on_c, 3, 57, 0
5, 26508, Note_on_c, 3, 53, 0
5, 26520, Note_on_c, 3, 53, 102
5, 26520, Note_on_c, 3, 57, 104
5, 26524, Control_c, 3, 7, 102
5, 26548, Control_c, 3, 7, 103
5, 26568, Note_on_c, 3, 57, 0
5, 26568, Note_on_c, 3, 53, 0
5, 26572, Control_c, 3, 7, 104
5, 26580, Note_on_c, 3, 53, 104
5, 26580, Note_on_c, 3, 57, 105
5, 26596, Control_c, 3, 7, 105
5, 26618, Control_c, 3, 7, 106
5, 26628, Note_on_c, 3, 57, 0
5, 26628, Note_on_c, 3, 53, 0
5, 26640, Note_on_c, 3, 53, 103
5, 26640, Note_on_c, 3, 57, 102
5, 26642, Control_c, 3, 7, 107
5, 26666, Control_c, 3, 7, 108
5, 26688, Note_on_c, 3, 57, 0
5, 26688, Note_on_c, 3, 53, 0
5, 26690, Control_c, 3, 7, 109
5, 26700, Note_on_c, 3, 53, 102
5, 26700, Note_on_c, 3, 57, 104
5, 26712, Control_c, 3, 7, 110
5, 26736, Control_c, 3, 7, 111
5, 26748, Note_on_c, 3, 57, 0
5, 26748, Note_on_c, 3, 53, 0
5, 26760, Note_on_c, 3, 53, 99
5, 26760, Note_on_c, 3, 57, 100
5, 26760, Control_c, 3, 7, 112
5, 26782, Control_c, 3, 7, 113
5, 26806, Control_c, 3, 7, 114
5, 26808, Note_on_c, 3, 57, 0
5, 26808, Note_on_c, 3, 53, 0
5, 26820, Note_on_c, 3, 53, 110
5, 26820, Note_on_c, 3, 57, 111
5, 26830, Control_c, 3, 7, 115
5, 26854, Control_c, 3, 7, 116
5, 26868, Note_on_c, 3, 57, 0
5, 26868, Note_on_c, 3, 53, 0
5, 26876, Control_c, 3, 7, 117
5, 26880, Note_on_c, 3, 53, 102
5, 26880, Note_on_c, 3, 57, 104
5, 26900, Control_c, 3, 7, 118
5, 26924, Control_c, 3, 7, 119
5, 26928, Note_on_c, 3, 57, 0
5, 26928, Note_on_c, 3, 53, 0
5, 26940, Note_on_c, 3, 53, 105
5, 26940, Note_on_c, 3, 57, 111
5, 26946, Control_c, 3, 7, 120
5, 26970, Control_c, 3, 7, 121
5, 26988, Note_on_c, 3, 57, 0
5, 26988, Note_on_c, 3, 53, 0
5, 26994, Control_c, 3, 7, 122
5, 27000, Note_on_c, 3, 63, 100
5, 27000, Note_on_c, 3, 57, 116
5, 27018, Control_c, 3, 7, 123
5, 27040, Control_c, 3, 7, 124
5, 27048, Note_on_c, 3, 57, 0
5, 27048, Note_on_c, 3, 63, 0
5, 27060, Note_on_c, 3, 63, 96
5, 27060, Note_on_c, 3, 57, 93
5, 27064, Control_c, 3, 7, 125
5, 27088, Control_c, 3, 7, 126
5, 27108, Note_on_c, 3, 57, 0
5, 27108, Note_on_c, 3, 63, 0
5, 27110, Control_c, 3, 7, 127
5, 27120, Note_on_c, 3, 63, 88
5, 27120, Note_on_c, 3, 57, 104
5, 27168, Note_on_c, 3, 57, 0
5, 27168, Note_on_c, 3, 63, 0
5, 27180, Note_on_c, 3, 63, 103
5, 27180, Note_on_c, 3, 57, 110
5, 27228, Note_on_c, 3, 57, 0
5, 27228, Note_on_c, 3, 63, 0
5, 27240, Note_on_c, 3, 63, 101
5, 27240, Note_on_c, 3, 57, 105
5, 27288, Note_on_c, 3, 57, 0
5, 27288, Note_on_c, 3, 63, 0
5, 27300, Note_on_c, 3, 63, 111
5, 27300, Note_on_c, 3, 57, 112
5, 27348, Note_on_c, 3, 57, 0
5, 27348, Note_on_c, 3, 63, 0
5, 27360, Note_on_c, 3, 63, 107
5, 27360, Note_on_c, 3, 57, 109
5, 27408, Note_on_c, 3, 57, 0
5, 27408, Note_on_c, 3, 63, 0
5, 27420, Note_on_c, 3, 63, 99
5, 27420, Note_on_c, 3, 57, 106
5, 27468, Note_on_c, 3, 57, 0
5, 27468, Note_on_c, 3, 63, 0
5, 27480, Note_on_c, 3, 63, 96
5, 27480, Note_on_c, 3, 57, 100
5, 27528, Note_on_c, 3, 57, 0
5, 27528, Note_on_c, 3, 63, 0
5, 27540, Note_on_c, 3, 63, 89
5, 27540, Note_on_c, 3, 57, 102
5, 27588, Note_on_c, 3, 57, 0
5, 27588, Note_on_c, 3, 63, 0
5, 27600, Note_on_c, 3, 63, 83
5, 27600, Note_on_c, 3, 57, 101
5, 27648, Note_on_c, 3, 57, 0
5, 27648, Note_on_c, 3, 63, 0
5, 27660, Note_on_c, 3, 57, 102
5, 27660, Note_on_c, 3, 65, 104
5, 27708, Note_on_c, 3, 65, 0
5, 27708, Note_on_c, 3, 57, 0
5, 27720, Note_on_c, 3, 65, 99
5, 27720, Note_on_c, 3, 57, 92
5, 27816, Note_on_c, 3, 57, 0
5, 27816, Note_on_c, 3, 65, 0
5, 27840, Note_on_c, 3, 65, 108
5, 27840, Note_on_c, 3, 57, 101
5, 27888, Note_on_c, 3, 57, 0
5, 27888, Note_on_c, 3, 65, 0
5, 27900, Note_on_c, 3, 65, 102
5, 27900, Note_on_c, 3, 57, 98
5, 27996, Note_on_c, 3, 57, 0
5, 27996, Note_on_c, 3, 65, 0
5, 28020, Note_on_c, 3, 57, 102
5, 28020, Note_on_c, 3, 65, 105
5, 28068, Note_on_c, 3, 65, 0
5, 28068, Note_on_c, 3, 57, 0
5, 28080, Note_on_c, 3, 65, 100
5, 28080, Note_on_c, 3, 57, 99
5, 28176, Note_on_c, 3, 57, 0
5, 28176, Note_on_c, 3, 65, 0
5, 28200, Note_on_c, 3, 65, 102
5, 28200, Note_on_c, 3, 57, 99
5, 28248, Note_on_c, 3, 57, 0
5, 28248, Note_on_c, 3, 65, 0
5, 28260, Note_on_c, 3, 57, 100
5, 28260, Note_on_c, 3, 65, 101
5, 28356, Note_on_c, 3, 65, 0
5, 28356, Note_on_c, 3, 57, 0
5, 28380, Note_on_c, 3, 65, 98
5, 28380, Note_on_c, 3, 57, 96
5, 28428, Note_on_c, 3, 57, 0
5, 28428, Note_on_c, 3, 65, 0
5, 28440, Note_on_c, 3, 62, 106
5, 28440, Note_on_c, 3, 58, 87
5, 28536, Note_on_c, 3, 58, 0
5, 28536, Note_on_c, 3, 62, 0
5, 28560, Note_on_c, 3, 62, 104
5, 28560, Note_on_c, 3, 53, 104
5, 28608, Note_on_c, 3, 53, 0
5, 28608, Note_on_c, 3, 62, 0
5, 28620, Note_on_c, 3, 62, 107
5, 28620, Note_on_c, 3, 53, 102
5, 28716, Note_on_c, 3, 53, 0
5, 28716, Note_on_c, 3, 62, 0
5, 28740, Note_on_c, 3, 60, 109
5, 28740, Note_on_c, 3, 51, 81
5, 28788, Note_on_c, 3, 51, 0
5, 28788, Note_on_c, 3, 60, 0
5, 28800, Note_on_c, 3, 58, 96
5, 28800, Note_on_c, 3, 50, 102
5, 28896, Note_on_c, 3, 50, 0
5, 28896, Note_on_c, 3, 58, 0
5, 28920, Note_on_c, 3, 51, 99
5, 28920, Note_on_c, 3, 60, 118
5, 28968, Note_on_c, 3, 60, 0
5, 28968, Note_on_c, 3, 51, 0
5, 28980, Note_on_c, 3, 62, 116
5, 28980, Note_on_c, 3, 53, 101
5, 29076, Note_on_c, 3, 53, 0
5, 29076, Note_on_c, 3, 62, 0
5, 29100, Note_on_c, 3, 58, 99
5, 29100, Note_on_c, 3, 41, 127
5, 29148, Note_on_c, 3, 41, 0
5, 29148, Note_on_c, 3, 58, 0
5, 29160, Note_on_c, 3, 48, 127
5, 29160, Note_on_c, 3, 58, 107
5, 29256, Note_on_c, 3, 58, 0
5, 29256, Note_on_c, 3, 48, 0
5, 29280, Note_on_c, 3, 57, 118
5, 29328, Note_on_c, 3, 57, 0
5, 29340, Note_on_c, 3, 53, 104
5, 29340, Note_on_c, 3, 57, 112
5, 29340, Control_c, 3, 7, 85
5, 29436, Note_on_c, 3, 57, 0
5, 29436, Note_on_c, 3, 53, 0
5, 29460, Note_on_c, 3, 55, 114
5, 29460, Note_on_c, 3, 59, 99
5, 29508, Note_on_c, 3, 59, 0
5, 29508, Note_on_c, 3, 55, 0
5, 29520, Note_on_c, 3, 59, 96
5, 29520, Note_on_c, 3, 62, 96
5, 29532, Note_on_c, 3, 62, 0
5, 29532, Note_on_c, 3, 59, 0
5, 29535, Note_on_c, 3, 60, 106
5, 29535, Note_on_c, 3, 57, 109
5, 29631, Note_on_c, 3, 57, 0
5, 29631, Note_on_c, 3, 60, 0
5, 29655, Note_on_c, 3, 55, 101
5, 29655, Note_on_c, 3, 59, 101
5, 29703, Note_on_c, 3, 59, 0
5, 29703, Note_on_c, 3, 55, 0
5, 29715, Note_on_c, 3, 57, 121
5, 29715, Note_on_c, 3, 60, 101
5, 29811, Note_on_c, 3, 60, 0
5, 29811, Note_on_c, 3, 57, 0
5, 29820, Control_c, 3, 7, 126
5, 29835, Note_on_c, 3, 59, 105
5, 29835, Note_on_c, 3, 62, 102
5, 29880, Note_on_c, 3, 62, 101
5, 29880, Note_on_c, 3, 59, 103
5, 29883, Note_on_c, 3, 59, 0
5, 29883, Note_on_c, 3, 62, 0
5, 29976, Note_on_c, 3, 62, 0
5, 29976, Note_on_c, 3, 59, 0
5, 30000, Note_on_c, 3, 63, 91
5, 30000, Note_on_c, 3, 60, 118
5, 30048, Note_on_c, 3, 60, 0
5, 30048, Note_on_c, 3, 63, 0
5, 30060, Note_on_c, 3, 63, 99
5, 30060, Note_on_c, 3, 60, 123
5, 30060, Control_c, 3, 7, 85
5, 30172, Note_on_c, 3, 60, 0
5, 30172, Note_on_c, 3, 63, 0
5, 30180, Note_on_c, 3, 58, 85
5, 30180, Note_on_c, 3, 62, 101
5, 30228, Note_on_c, 3, 62, 0
5, 30228, Note_on_c, 3, 58, 0
5, 30240, Note_on_c, 3, 60, 100
5, 30240, Note_on_c, 3, 57, 114
5, 30336, Note_on_c, 3, 57, 0
5, 30336, Note_on_c, 3, 60, 0
5, 30360, Note_on_c, 3, 58, 95
5, 30360, Note_on_c, 3, 62, 125
5, 30408, Note_on_c, 3, 62, 0
5, 30408, Note_on_c, 3, 58, 0
5, 30420, Note_on_c, 3, 63, 103
5, 30420, Note_on_c, 3, 60, 127
5, 30516, Note_on_c, 3, 60, 0
5, 30516, Note_on_c, 3, 63, 0
5, 30540, Note_on_c, 3, 57, 105
5, 30540, Note_on_c, 3, 65, 102
5, 30540, Control_c, 3, 7, 126
5, 30588, Note_on_c, 3, 65, 0
5, 30588, Note_on_c, 3, 57, 0
5, 30600, Note_on_c, 3, 58, 101
5, 30600, Note_on_c, 3, 62, 120
5, 30696, Note_on_c, 3, 62, 0
5, 30696, Note_on_c, 3, 58, 0
5, 30720, Note_on_c, 3, 58, 97
5, 30720, Note_on_c, 3, 62, 112
5, 30722, Control_c, 3, 7, 85
5, 30768, Note_on_c, 3, 62, 0
5, 30768, Note_on_c, 3, 58, 0
5, 30780, Note_on_c, 3, 63, 107
5, 30780, Note_on_c, 3, 60, 127
5, 30876, Note_on_c, 3, 60, 0
5, 30876, Note_on_c, 3, 63, 0
5, 30900, Note_on_c, 3, 62, 113
5, 30900, Note_on_c, 3, 65, 111
5, 30902, Control_c, 3, 7, 120
5, 30948, Note_on_c, 3, 65, 0
5, 30948, Note_on_c, 3, 62, 0
5, 30960, Note_on_c, 3, 67, 107
5, 30960, Note_on_c, 3, 63, 84
5, 31236, Note_on_c, 3, 63, 0
5, 31236, Note_on_c, 3, 67, 0
5, 31260, Note_on_c, 3, 63, 89
5, 31260, Note_on_c, 3, 67, 112
5, 31308, Note_on_c, 3, 67, 0
5, 31308, Note_on_c, 3, 63, 0
5, 31320, Note_on_c, 3, 65, 110
5, 31320, Note_on_c, 3, 62, 102
5, 31596, Note_on_c, 3, 62, 0
5, 31596, Note_on_c, 3, 65, 0
5, 31620, Note_on_c, 3, 65, 102
5, 31620, Note_on_c, 3, 62, 103
5, 31668, Note_on_c, 3, 62, 0
5, 31668, Note_on_c, 3, 65, 0
5, 31680, Note_on_c, 3, 63, 80
5, 31680, Note_on_c, 3, 60, 104
5, 31776, Note_on_c, 3, 60, 0
5, 31776, Note_on_c, 3, 63, 0
5, 31800, Note_on_c, 3, 63, 91
5, 31800, Note_on_c, 3, 60, 114
5, 31848, Note_on_c, 3, 60, 0
5, 31848, Note_on_c, 3, 63, 0
5, 31860, Note_on_c, 3, 65, 104
5, 31860, Note_on_c, 3, 62, 105
5, 31956, Note_on_c, 3, 62, 0
5, 31956, Note_on_c, 3, 65, 0
5, 31980, Note_on_c, 3, 63, 86
5, 31980, Note_on_c, 3, 60, 111
5, 32028, Note_on_c, 3, 60, 0
5, 32028, Note_on_c, 3, 63, 0
5, 32040, Note_on_c, 3, 58, 103
5, 32040, Note_on_c, 3, 62, 116
5, 32136, Note_on_c, 3, 62, 0
5, 32136, Note_on_c, 3, 58, 0
5, 32160, Note_on_c, 3, 50, 127
5, 32160, Note_on_c, 3, 46, 80
5, 32208, Note_on_c, 3, 46, 0
5, 32208, Note_on_c, 3, 50, 0
5, 32220, Note_on_c, 3, 51, 109
5, 32220, Note_on_c, 3, 48, 127
5, 32316, Note_on_c, 3, 48, 0
5, 32316, Note_on_c, 3, 51, 0
5, 32340, Note_on_c, 3, 50, 104
5, 32340, Note_on_c, 3, 53, 117
5, 32388, Note_on_c, 3, 53, 0
5, 32388, Note_on_c, 3, 50, 0
5, 32400, Note_on_c, 3, 51, 85
5, 32400, Note_on_c, 3, 55, 101
5, 32676, Note_on_c, 3, 55, 0
5, 32676, Note_on_c, 3, 51, 0
5, 32700, Note_on_c, 3, 55, 105
5, 32700, Note_on_c, 3, 51, 90
5, 32748, Note_on_c, 3, 51, 0
5, 32748, Note_on_c, 3, 55, 0
5, 32760, Note_on_c, 3, 53, 104
5, 32760, Note_on_c, 3, 58, 81
5, 33036, Note_on_c, 3, 58, 0
5, 33036, Note_on_c, 3, 53, 0
5, 33060, Note_on_c, 3, 53, 110
5, 33060, Note_on_c, 3, 58, 86
5, 33108, Note_on_c, 3, 58, 0
5, 33108, Note_on_c, 3, 53, 0
5, 33120, Note_on_c, 3, 61, 85
5, 33120, Note_on_c, 3, 54, 84
5, 33396, Note_on_c, 3, 54, 0
5, 33396, Note_on_c, 3, 61, 0
5, 33420, Note_on_c, 3, 61, 82
5, 33420, Note_on_c, 3, 55, 100
5, 33468, Note_on_c, 3, 55, 0
5, 33468, Note_on_c, 3, 61, 0
5, 33478, Control_c, 3, 7, 119
5, 33480, Note_on_c, 3, 61, 85
5, 33480, Note_on_c, 3, 56, 96
5, 33490, Control_c, 3, 7, 118
5, 33500, Control_c, 3, 7, 117
5, 33510, Control_c, 3, 7, 116
5, 33520, Control_c, 3, 7, 115
5, 33530, Control_c, 3, 7, 114
5, 33542, Control_c, 3, 7, 113
5, 33552, Control_c, 3, 7, 112
5, 33562, Control_c, 3, 7, 111
5, 33572, Control_c, 3, 7, 110
5, 33576, Note_on_c, 3, 56, 0
5, 33576, Note_on_c, 3, 61, 0
5, 33582, Control_c, 3, 7, 109
5, 33594, Control_c, 3, 7, 108
5, 33600, Note_on_c, 3, 61, 91
5, 33600, Note_on_c, 3, 56, 99
5, 33604, Control_c, 3, 7, 107
5, 33614, Control_c, 3, 7, 106
5, 33624, Control_c, 3, 7, 105
5, 33634, Control_c, 3, 7, 104
5, 33646, Control_c, 3, 7, 103
5, 33648, Note_on_c, 3, 56, 0
5, 33648, Note_on_c, 3, 61, 0
5, 33656, Control_c, 3, 7, 102
5, 33660, Note_on_c, 3, 57, 109
5, 33660, Note_on_c, 3, 60, 103
5, 33666, Control_c, 3, 7, 101
5, 33676, Control_c, 3, 7, 100
5, 33686, Control_c, 3, 7, 99
5, 33698, Control_c, 3, 7, 98
5, 33708, Control_c, 3, 7, 97
5, 33718, Control_c, 3, 7, 96
5, 33728, Control_c, 3, 7, 95
5, 33738, Control_c, 3, 7, 94
5, 33750, Control_c, 3, 7, 93
5, 33756, Note_on_c, 3, 60, 0
5, 33756, Note_on_c, 3, 57, 0
5, 33760, Control_c, 3, 7, 92
5, 33770, Control_c, 3, 7, 91
5, 33780, Note_on_c, 3, 57, 108
5, 33780, Note_on_c, 3, 60, 106
5, 33780, Control_c, 3, 7, 90
5, 33790, Control_c, 3, 7, 89
5, 33802, Control_c, 3, 7, 88
5, 33812, Control_c, 3, 7, 87
5, 33822, Control_c, 3, 7, 86
5, 33828, Note_on_c, 3, 60, 0
5, 33828, Note_on_c, 3, 57, 0
5, 33832, Control_c, 3, 7, 85
5, 33840, Note_on_c, 3, 61, 107
5, 33840, Note_on_c, 3, 56, 111
5, 33842, Control_c, 3, 7, 84
5, 34128, Note_on_c, 3, 56, 0
5, 34128, Note_on_c, 3, 61, 0
5, 34200, Note_on_c, 3, 57, 118
5, 34200, Note_on_c, 3, 60, 118
5, 34488, Note_on_c, 3, 60, 0
5, 34488, Note_on_c, 3, 57, 0
5, 34560, Note_on_c, 3, 61, 100
5, 34560, Note_on_c, 3, 58, 93
5, 34848, Note_on_c, 3, 58, 0
5, 34848, Note_on_c, 3, 61, 0
5, 34920, Note_on_c, 3, 59, 116
5, 34920, Note_on_c, 3, 62, 116
5, 35208, Note_on_c, 3, 62, 0
5, 35208, Note_on_c, 3, 59, 0
5, 35280, Note_on_c, 3, 60, 114
5, 35280, Note_on_c, 3, 64, 108
5, 35376, Note_on_c, 3, 64, 0
5, 35376, Note_on_c, 3, 60, 0
5, 35940, Note_on_c, 3, 62, 101
5, 35940, Note_on_c, 3, 65, 103
5, 35988, Note_on_c, 3, 65, 0
5, 35988, Note_on_c, 3, 62, 0
5, 36000, Note_on_c, 3, 59, 112
5, 36144, Note_on_c, 3, 59, 0
5, 36180, Note_on_c, 3, 55, 106
5, 36228, Note_on_c, 3, 55, 0
5, 36300, Note_on_c, 3, 62, 111
5, 36348, Note_on_c, 3, 62, 0
5, 36360, Note_on_c, 3, 60, 121
5, 36504, Note_on_c, 3, 60, 0
5, 36540, Note_on_c, 3, 55, 121
5, 36588, Note_on_c, 3, 55, 0
5, 36660, Note_on_c, 3, 64, 116
5, 36708, Note_on_c, 3, 64, 0
5, 37380, Note_on_c, 3, 65, 109
5, 37380, Note_on_c, 3, 62, 109
5, 37428, Note_on_c, 3, 62, 0
5, 37428, Note_on_c, 3, 65, 0
5, 37440, Note_on_c, 3, 59, 67
5, 37584, Note_on_c, 3, 59, 0
5, 37620, Note_on_c, 3, 55, 123
5, 37668, Note_on_c, 3, 55, 0
5, 37740, Note_on_c, 3, 62, 127
5, 37788, Note_on_c, 3, 62, 0
5, 37800, Note_on_c, 3, 60, 127
5, 37944, Note_on_c, 3, 60, 0
5, 37980, Note_on_c, 3, 55, 112
5, 38028, Note_on_c, 3, 55, 0
5, 38100, Note_on_c, 3, 64, 121
5, 38148, Note_on_c, 3, 64, 0
5, 38160, Note_on_c, 3, 60, 114
5, 38304, Note_on_c, 3, 60, 0
5, 38340, Note_on_c, 3, 55, 120
5, 38388, Note_on_c, 3, 55, 0
5, 38460, Note_on_c, 3, 64, 118
5, 38508, Note_on_c, 3, 64, 0
5, 38520, Note_on_c, 3, 60, 127
5, 38664, Note_on_c, 3, 60, 0
5, 38700, Note_on_c, 3, 55, 107
5, 38748, Note_on_c, 3, 55, 0
5, 38820, Note_on_c, 3, 64, 105
5, 38868, Note_on_c, 3, 64, 0
5, 38880, Note_on_c, 3, 48, 102
5, 38880, Note_on_c, 3, 55, 106
5, 39528, Note_on_c, 3, 55, 0
5, 39528, Note_on_c, 3, 48, 0
5, 39600, Note_on_c, 3, 48, 101
5, 39600, Note_on_c, 3, 55, 99
5, 39602, Control_c, 3, 7, 99
5, 40318, Control_c, 3, 7, 89
5, 40824, Note_on_c, 3, 55, 0
5, 40824, Note_on_c, 3, 48, 0
5, 40860, Note_on_c, 3, 55, 120
5, 40860, Note_on_c, 3, 58, 92
5, 41688, Note_on_c, 3, 58, 0
5, 41688, Note_on_c, 3, 55, 0
5, 41758, Control_c, 3, 7, 100
5, 41760, Note_on_c, 3, 57, 105
5, 41760, Note_on_c, 3, 53, 104
5, 42768, Note_on_c, 3, 53, 0
5, 42768, Note_on_c, 3, 57, 0
5, 42840, Note_on_c, 3, 50, 107
5, 42840, Note_on_c, 3, 53, 106
5, 43116, Note_on_c, 3, 53, 0
5, 43116, Note_on_c, 3, 50, 0
5, 43140, Note_on_c, 3, 55, 110
5, 43140, Note_on_c, 3, 52, 114
5, 43188, Note_on_c, 3, 52, 0
5, 43188, Note_on_c, 3, 55, 0
5, 43200, Note_on_c, 3, 52, 112
5, 43200, Note_on_c, 3, 55, 114
5, 43488, Note_on_c, 3, 55, 0
5, 43488, Note_on_c, 3, 52, 0
5, 43560, Note_on_c, 3, 57, 106
5, 43560, Note_on_c, 3, 53, 112
5, 43848, Note_on_c, 3, 57, 0
5, 43920, Note_on_c, 3, 55, 120
5, 44064, Note_on_c, 3, 55, 0
5, 44064, Note_on_c, 3, 53, 0
5, 44100, Note_on_c, 3, 55, 113
5, 44100, Note_on_c, 3, 52, 112
5, 44244, Note_on_c, 3, 52, 0
5, 44244, Note_on_c, 3, 55, 0
5, 44280, Note_on_c, 3, 57, 110
5, 44280, Note_on_c, 3, 53, 106
5, 44568, Note_on_c, 3, 53, 0
5, 44568, Note_on_c, 3, 57, 0
5, 44640, Note_on_c, 3, 57, 103
5, 44640, Note_on_c, 3, 53, 102
5, 44688, Note_on_c, 3, 53, 0
5, 44688, Note_on_c, 3, 57, 0
5, 44700, Note_on_c, 3, 53, 108
5, 44700, Note_on_c, 3, 57, 110
5, 44748, Note_on_c, 3, 57, 0
5, 44748, Note_on_c, 3, 53, 0
5, 44760, Note_on_c, 3, 53, 108
5, 44760, Note_on_c, 3, 57, 110
5, 44808, Note_on_c, 3, 57, 0
5, 44808, Note_on_c, 3, 53, 0
5, 44820, Note_on_c, 3, 53, 108
5, 44820, Note_on_c, 3, 57, 110
5, 44868, Note_on_c, 3, 57, 0
5, 44868, Note_on_c, 3, 53, 0
5, 44880, Note_on_c, 3, 53, 109
5, 44880, Note_on_c, 3, 57, 109
5, 44928, Note_on_c, 3, 57, 0
5, 44928, Note_on_c, 3, 53, 0
5, 44940, Note_on_c, 3, 53, 111
5, 44940, Note_on_c, 3, 57, 112
5, 44988, Note_on_c, 3, 57, 0
5, 44988, Note_on_c, 3, 53, 0
5, 45000, Note_on_c, 3, 53, 109
5, 45000, Note_on_c, 3, 57, 109
5, 45048, Note_on_c, 3, 57, 0
5, 45048, Note_on_c, 3, 53, 0
5, 45060, Note_on_c, 3, 53, 105
5, 45060, Note_on_c, 3, 57, 106
5, 45108, Note_on_c, 3, 57, 0
5, 45108, Note_on_c, 3, 53, 0
5, 45120, Note_on_c, 3, 53, 107
5, 45120, Note_on_c, 3, 57, 108
5, 45168, Note_on_c, 3, 57, 0
5, 45168, Note_on_c, 3, 53, 0
5, 45180, Note_on_c, 3, 53, 104
5, 45180, Note_on_c, 3, 57, 106
5, 45228, Note_on_c, 3, 57, 0
5, 45228, Note_on_c, 3, 53, 0
5, 45240, Note_on_c, 3, 53, 104
5, 45240, Note_on_c, 3, 57, 105
5, 45288, Note_on_c, 3, 57, 0
5, 45288, Note_on_c, 3, 53, 0
5, 45300, Note_on_c, 3, 53, 107
5, 45300, Note_on_c, 3, 57, 107
5, 45348, Note_on_c, 3, 57, 0
5, 45348, Note_on_c, 3, 53, 0
5, 45360, Note_on_c, 3, 53, 114
5, 45360, Note_on_c, 3, 57, 114
5, 45408, Note_on_c, 3, 57, 0
5, 45408, Note_on_c, 3, 53, 0
5, 45420, Note_on_c, 3, 53, 105
5, 45420, Note_on_c, 3, 57, 109
5, 45468, Note_on_c, 3, 57, 0
5, 45468, Note_on_c, 3, 53, 0
5, 45480, Note_on_c, 3, 57, 106
5, 45480, Note_on_c, 3, 53, 109
5, 45528, Note_on_c, 3, 53, 0
5, 45528, Note_on_c, 3, 57, 0
5, 45540, Note_on_c, 3, 53, 112
5, 45540, Note_on_c, 3, 57, 116
5, 45588, Note_on_c, 3, 57, 0
5, 45588, Note_on_c, 3, 53, 0
5, 45600, Note_on_c, 3, 53, 106
5, 45600, Note_on_c, 3, 57, 109
5, 45648, Note_on_c, 3, 57, 0
5, 45648, Note_on_c, 3, 53, 0
5, 45660, Note_on_c, 3, 53, 105
5, 45660, Note_on_c, 3, 57, 107
5, 45708, Note_on_c, 3, 57, 0
5, 45708, Note_on_c, 3, 53, 0
5, 45720, Note_on_c, 3, 50, 109
5, 45720, Note_on_c, 3, 53, 108
5, 45768, Note_on_c, 3, 53, 0
5, 45768, Note_on_c, 3, 50, 0
5, 45780, Note_on_c, 3, 50, 105
5, 45780, Note_on_c, 3, 53, 107
5, 45828, Note_on_c, 3, 53, 0
5, 45828, Note_on_c, 3, 50, 0
5, 45840, Note_on_c, 3, 50, 103
5, 45840, Note_on_c, 3, 53, 105
5, 45888, Note_on_c, 3, 53, 0
5, 45888, Note_on_c, 3, 50, 0
5, 45900, Note_on_c, 3, 50, 105
5, 45900, Note_on_c, 3, 53, 107
5, 45948, Note_on_c, 3, 53, 0
5, 45948, Note_on_c, 3, 50, 0
5, 45960, Note_on_c, 3, 50, 109
5, 45960, Note_on_c, 3, 53, 116
5, 46008, Note_on_c, 3, 53, 0
5, 46008, Note_on_c, 3, 50, 0
5, 46020, Note_on_c, 3, 55, 102
5, 46020, Note_on_c, 3, 52, 103
5, 46068, Note_on_c, 3, 52, 0
5, 46068, Note_on_c, 3, 55, 0
5, 46080, Note_on_c, 3, 55, 110
5, 46080, Note_on_c, 3, 52, 109
5, 46128, Note_on_c, 3, 52, 0
5, 46128, Note_on_c, 3, 55, 0
5, 46140, Note_on_c, 3, 52, 104
5, 46140, Note_on_c, 3, 55, 105
5, 46188, Note_on_c, 3, 55, 0
5, 46188, Note_on_c, 3, 52, 0
5, 46200, Note_on_c, 3, 55, 104
5, 46200, Note_on_c, 3, 52, 104
5, 46248, Note_on_c, 3, 52, 0
5, 46248, Note_on_c, 3, 55, 0
5, 46260, Note_on_c, 3, 55, 106
5, 46260, Note_on_c, 3, 52, 105
5, 46308, Note_on_c, 3, 52, 0
5, 46308, Note_on_c, 3, 55, 0
5, 46320, Note_on_c, 3, 52, 103
5, 46320, Note_on_c, 3, 55, 105
5, 46368, Note_on_c, 3, 55, 0
5, 46368, Note_on_c, 3, 52, 0
5, 46380, Note_on_c, 3, 48, 100
5, 46380, Note_on_c, 3, 55, 102
5, 46428, Note_on_c, 3, 55, 0
5, 46428, Note_on_c, 3, 48, 0
5, 46440, Note_on_c, 3, 53, 103
5, 46440, Note_on_c, 3, 57, 109
5, 46440, Note_on_c, 3, 53, 113
5, 46440, Note_on_c, 3, 50, 100
5, 46440, Note_on_c, 3, 53, 106
5, 46440, Note_on_c, 3, 53, 113
5, 46440, Note_on_c, 3, 50, 109
5, 46440, Note_on_c, 3, 53, 107
5, 46440, Note_on_c, 3, 57, 110
5, 46488, Note_on_c, 3, 57, 0
5, 46488, Note_on_c, 3, 50, 0
5, 46488, Note_on_c, 3, 53, 0
5, 46488, Note_on_c, 3, 53, 0
5, 46488, Note_on_c, 3, 57, 0
5, 46488, Note_on_c, 3, 53, 0
5, 46488, Note_on_c, 3, 50, 0
5, 46488, Note_on_c, 3, 53, 0
5, 46488, Note_on_c, 3, 53, 0
5, 46500, Note_on_c, 3, 53, 107
5, 46500, Note_on_c, 3, 57, 114
5, 46548, Note_on_c, 3, 57, 0
5, 46548, Note_on_c, 3, 53, 0
5, 46560, Note_on_c, 3, 53, 110
5, 46560, Note_on_c, 3, 57, 116
5, 46608, Note_on_c, 3, 57, 0
5, 46608, Note_on_c, 3, 53, 0
5, 46620, Note_on_c, 3, 53, 112
5, 46620, Note_on_c, 3, 50, 101
5, 46668, Note_on_c, 3, 50, 0
5, 46668, Note_on_c, 3, 53, 0
5, 46680, Note_on_c, 3, 53, 125
5, 46680, Note_on_c, 3, 50, 107
5, 46728, Note_on_c, 3, 50, 0
5, 46728, Note_on_c, 3, 53, 0
5, 46740, Note_on_c, 3, 45, 107
5, 46740, Note_on_c, 3, 53, 103
5, 46788, Note_on_c, 3, 53, 0
5, 46788, Note_on_c, 3, 45, 0
5, 46800, Note_on_c, 3, 46, 89
5, 46800, Note_on_c, 3, 53, 114
5, 46848, Note_on_c, 3, 53, 0
5, 46848, Note_on_c, 3, 46, 0
5, 46860, Note_on_c, 3, 46, 82
5, 46860, Note_on_c, 3, 53, 107
5, 46908, Note_on_c, 3, 53, 0
5, 46908, Note_on_c, 3, 46, 0
5, 46920, Note_on_c, 3, 53, 116
5, 46920, Note_on_c, 3, 46, 99
5, 46968, Note_on_c, 3, 46, 0
5, 46968, Note_on_c, 3, 53, 0
5, 46980, Note_on_c, 3, 48, 99
5, 46980, Note_on_c, 3, 52, 101
5, 47028, Note_on_c, 3, 52, 0
5, 47028, Note_on_c, 3, 48, 0
5, 47040, Note_on_c, 3, 52, 103
5, 47040, Note_on_c, 3, 48, 104
5, 47088, Note_on_c, 3, 48, 0
5, 47088, Note_on_c, 3, 52, 0
5, 47100, Note_on_c, 3, 52, 114
5, 47100, Note_on_c, 3, 48, 114
5, 47148, Note_on_c, 3, 48, 0
5, 47148, Note_on_c, 3, 52, 0
5, 47160, Note_on_c, 3, 53, 104
5, 47160, Note_on_c, 3, 41, 98
5, 47208, Note_on_c, 3, 41, 0
5, 47208, Note_on_c, 3, 53, 0
5, 47220, Note_on_c, 3, 53, 101
5, 47220, Note_on_c, 3, 41, 107
5, 47268, Note_on_c, 3, 41, 0
5, 47268, Note_on_c, 3, 53, 0
5, 47280, Note_on_c, 3, 53, 101
5, 47280, Note_on_c, 3, 41, 106
5, 47328, Note_on_c, 3, 41, 0
5, 47328, Note_on_c, 3, 53, 0
5, 47340, Note_on_c, 3, 53, 107
5, 47340, Note_on_c, 3, 41, 106
5, 47388, Note_on_c, 3, 41, 0
5, 47388, Note_on_c, 3, 53, 0
5, 47400, Note_on_c, 3, 53, 108
5, 47400, Note_on_c, 3, 41, 107
5, 47448, Note_on_c, 3, 41, 0
5, 47448, Note_on_c, 3, 53, 0
5, 47460, Note_on_c, 3, 53, 108
5, 47460, Note_on_c, 3, 41, 105
5, 47508, Note_on_c, 3, 41, 0
5, 47508, Note_on_c, 3, 53, 0
5, 47520, Note_on_c, 3, 53, 111
5, 47520, Note_on_c, 3, 41, 109
5, 47568, Note_on_c, 3, 41, 0
5, 47568, Note_on_c, 3, 53, 0
5, 47580, Note_on_c, 3, 53, 109
5, 47580, Note_on_c, 3, 41, 107
5, 47628, Note_on_c, 3, 41, 0
5, 47628, Note_on_c, 3, 53, 0
5, 47640, Note_on_c, 3, 53, 101
5, 47640, Note_on_c, 3, 41, 104
5, 47688, Note_on_c, 3, 41, 0
5, 47688, Note_on_c, 3, 53, 0
5, 47700, Note_on_c, 3, 41, 107
5, 47700, Note_on_c, 3, 53, 101
5, 47748, Note_on_c, 3, 53, 0
5, 47748, Note_on_c, 3, 41, 0
5, 47760, Note_on_c, 3, 53, 103
5, 47760, Note_on_c, 3, 41, 116
5, 47808, Note_on_c, 3, 41, 0
5, 47808, Note_on_c, 3, 53, 0
5, 47820, Note_on_c, 3, 41, 107
5, 47820, Note_on_c, 3, 53, 101
5, 47868, Note_on_c, 3, 53, 0
5, 47868, Note_on_c, 3, 41, 0
5, 47880, Note_on_c, 3, 53, 101
5, 47880, Note_on_c, 3, 41, 104
5, 47928, Note_on_c, 3, 41, 0
5, 47928, Note_on_c, 3, 53, 0
5, 47940, Note_on_c, 3, 53, 107
5, 47940, Note_on_c, 3, 41, 106
5, 47988, Note_on_c, 3, 41, 0
5, 47988, Note_on_c, 3, 53, 0
5, 48000, Note_on_c, 3, 53, 109
5, 48000, Note_on_c, 3, 41, 101
5, 48048, Note_on_c, 3, 41, 0
5, 48048, Note_on_c, 3, 53, 0
5, 48060, Note_on_c, 3, 53, 118
5, 48060, Note_on_c, 3, 41, 110
5, 48108, Note_on_c, 3, 41, 0
5, 48108, Note_on_c, 3, 53, 0
5, 48120, Note_on_c, 3, 53, 110
5, 48120, Note_on_c, 3, 41, 105
5, 48168, Note_on_c, 3, 41, 0
5, 48168, Note_on_c, 3, 53, 0
5, 48180, Note_on_c, 3, 53, 120
5, 48180, Note_on_c, 3, 41, 113
5, 48228, Note_on_c, 3, 41, 0
5, 48228, Note_on_c, 3, 53, 0
5, 48240, Note_on_c, 3, 53, 123
5, 48240, Note_on_c, 3, 41, 111
5, 48288, Note_on_c, 3, 41, 0
5, 48288, Note_on_c, 3, 53, 0
5, 48300, Note_on_c, 3, 53, 117
5, 48300, Note_on_c, 3, 41, 110
5, 48348, Note_on_c, 3, 41, 0
5, 48348, Note_on_c, 3, 53, 0
5, 48360, Note_on_c, 3, 53, 112
5, 48360, Note_on_c, 3, 41, 112
5, 48408, Note_on_c, 3, 41, 0
5, 48408, Note_on_c, 3, 53, 0
5, 48420, Note_on_c, 3, 53, 118
5, 48420, Note_on_c, 3, 41, 110
5, 48468, Note_on_c, 3, 41, 0
5, 48468, Note_on_c, 3, 53, 0
5, 48480, Note_on_c, 3, 53, 117
5, 48480, Note_on_c, 3, 41, 113
5, 48528, Note_on_c, 3, 41, 0
5, 48528, Note_on_c, 3, 53, 0
5, 48540, Note_on_c, 3, 41, 105
5, 48540, Note_on_c, 3, 53, 108
5, 48588, Note_on_c, 3, 53, 0
5, 48588, Note_on_c, 3, 41, 0
5, 48600, Note_on_c, 3, 38, 120
5, 48600, Note_on_c, 3, 50, 127
5, 48648, Note_on_c, 3, 50, 0
5, 48648, Note_on_c, 3, 38, 0
5, 48660, Note_on_c, 3, 38, 127
5, 48660, Note_on_c, 3, 50, 121
5, 48708, Note_on_c, 3, 50, 0
5, 48708, Note_on_c, 3, 38, 0
5, 48720, Note_on_c, 3, 50, 116
5, 48720, Note_on_c, 3, 38, 127
5, 48768, Note_on_c, 3, 38, 0
5, 48768, Note_on_c, 3, 50, 0
5, 48780, Note_on_c, 3, 38, 123
5, 48780, Note_on_c, 3, 50, 118
5, 48828, Note_on_c, 3, 50, 0
5, 48828, Note_on_c, 3, 38, 0
5, 48840, Note_on_c, 3, 38, 127
5, 48840, Note_on_c, 3, 50, 118
5, 48888, Note_on_c, 3, 50, 0
5, 48888, Note_on_c, 3, 38, 0
5, 48900, Note_on_c, 3, 40, 120
5, 48900, Note_on_c, 3, 52, 113
5, 48948, Note_on_c, 3, 52, 0
5, 48948, Note_on_c, 3, 40, 0
5, 48960, Note_on_c, 3, 52, 117
5, 48960, Note_on_c, 3, 40, 111
5, 49008, Note_on_c, 3, 40, 0
5, 49008, Note_on_c, 3, 52, 0
5, 49020, Note_on_c, 3, 52, 109
5, 49020, Note_on_c, 3, 40, 121
5, 49068, Note_on_c, 3, 40, 0
5, 49068, Note_on_c, 3, 52, 0
5, 49080, Note_on_c, 3, 52, 114
5, 49080, Note_on_c, 3, 40, 127
5, 49128, Note_on_c, 3, 40, 0
5, 49128, Note_on_c, 3, 52, 0
5, 49140, Note_on_c, 3, 52, 116
5, 49140, Note_on_c, 3, 40, 121
5, 49188, Note_on_c, 3, 40, 0
5, 49188, Note_on_c, 3, 52, 0
5, 49200, Note_on_c, 3, 40, 118
5, 49200, Note_on_c, 3, 52, 106
5, 49248, Note_on_c, 3, 52, 0
5, 49248, Note_on_c, 3, 40, 0
5, 49260, Note_on_c, 3, 36, 127
5, 49260, Note_on_c, 3, 48, 127
5, 49308, Note_on_c, 3, 48, 0
5, 49308, Note_on_c, 3, 36, 0
5, 49320, Note_on_c, 3, 41, 123
5, 49320, Note_on_c, 3, 53, 120
5, 49368, Note_on_c, 3, 53, 0
5, 49368, Note_on_c, 3, 41, 0
5, 49380, Note_on_c, 3, 53, 114
5, 49380, Note_on_c, 3, 41, 127
5, 49428, Note_on_c, 3, 41, 0
5, 49428, Note_on_c, 3, 53, 0
5, 49440, Note_on_c, 3, 41, 127
5, 49440, Note_on_c, 3, 53, 123
5, 49488, Note_on_c, 3, 53, 0
5, 49488, Note_on_c, 3, 41, 0
5, 49500, Note_on_c, 3, 50, 112
5, 49500, Note_on_c, 3, 38, 127
5, 49548, Note_on_c, 3, 38, 0
5, 49548, Note_on_c, 3, 50, 0
5, 49560, Note_on_c, 3, 50, 127
5, 49560, Note_on_c, 3, 38, 127
5, 49608, Note_on_c, 3, 38, 0
5, 49608, Note_on_c, 3, 50, 0
5, 49620, Note_on_c, 3, 45, 127
5, 49668, Note_on_c, 3, 45, 0
5, 49680, Note_on_c, 3, 34, 113
5, 49680, Note_on_c, 3, 46, 109
5, 49728, Note_on_c, 3, 46, 0
5, 49728, Note_on_c, 3, 34, 0
5, 49740, Note_on_c, 3, 46, 103
5, 49740, Note_on_c, 3, 34, 113
5, 49788, Note_on_c, 3, 34, 0
5, 49788, Note_on_c, 3, 46, 0
5, 49800, Note_on_c, 3, 34, 123
5, 49800, Note_on_c, 3, 46, 109
5, 49848, Note_on_c, 3, 46, 0
5, 49848, Note_on_c, 3, 34, 0
5, 49860, Note_on_c, 3, 48, 118
5, 49860, Note_on_c, 3, 36, 121
5, 49908, Note_on_c, 3, 36, 0
5, 49908, Note_on_c, 3, 48, 0
5, 49920, Note_on_c, 3, 36, 127
5, 49920, Note_on_c, 3, 48, 109
5, 49968, Note_on_c, 3, 48, 0
5, 49968, Note_on_c, 3, 36, 0
5, 49980, Note_on_c, 3, 48, 113
5, 49980, Note_on_c, 3, 36, 127
5, 50028, Note_on_c, 3, 36, 0
5, 50028, Note_on_c, 3, 48, 0
5, 50040, Note_on_c, 3, 41, 123
5, 50040, Note_on_c, 3, 53, 117
5, 50088, Note_on_c, 3, 53, 0
5, 50088, Note_on_c, 3, 41, 0
5, 50700, Note_on_c, 3, 55, 107
5, 50700, Note_on_c, 3, 52, 112
5, 50748, Note_on_c, 3, 52, 0
5, 50748, Note_on_c, 3, 55, 0
5, 50760, Note_on_c, 3, 53, 125
5, 50904, Note_on_c, 3, 53, 0
5, 50940, Note_on_c, 3, 55, 112
5, 50940, Note_on_c, 3, 52, 116
5, 51084, Note_on_c, 3, 52, 0
5, 51084, Note_on_c, 3, 55, 0
5, 51120, Note_on_c, 3, 57, 125
5, 51120, Note_on_c, 3, 53, 105
5, 51264, Note_on_c, 3, 53, 0
5, 51264, Note_on_c, 3, 57, 0
5, 51300, Note_on_c, 3, 58, 96
5, 51300, Note_on_c, 3, 55, 114
5, 51396, Note_on_c, 3, 55, 0
5, 51396, Note_on_c, 3, 58, 0
5, 51420, Note_on_c, 3, 52, 107
5, 51420, Note_on_c, 3, 55, 107
5, 51468, Note_on_c, 3, 55, 0
5, 51468, Note_on_c, 3, 52, 0
5, 51780, Note_on_c, 3, 55, 105
5, 51780, Note_on_c, 3, 48, 102
5, 51828, Note_on_c, 3, 48, 0
5, 51828, Note_on_c, 3, 55, 0
5, 51840, Note_on_c, 3, 53, 112
5, 51840, Note_on_c, 3, 57, 113
5, 51984, Note_on_c, 3, 57, 0
5, 51984, Note_on_c, 3, 53, 0
5, 52020, Note_on_c, 3, 55, 107
5, 52020, Note_on_c, 3, 59, 107
5, 52116, Note_on_c, 3, 59, 0
5, 52116, Note_on_c, 3, 55, 0
5, 52140, Note_on_c, 3, 55, 114
5, 52140, Note_on_c, 3, 59, 114
5, 52188, Note_on_c, 3, 59, 0
5, 52188, Note_on_c, 3, 55, 0
5, 52200, Note_on_c, 3, 60, 107
5, 52200, Note_on_c, 3, 57, 105
5, 52344, Note_on_c, 3, 57, 0
5, 52344, Note_on_c, 3, 60, 0
5, 52380, Note_on_c, 3, 59, 102
5, 52380, Note_on_c, 3, 62, 100
5, 52476, Note_on_c, 3, 62, 0
5, 52476, Note_on_c, 3, 59, 0
5, 52500, Note_on_c, 3, 62, 106
5, 52500, Note_on_c, 3, 59, 104
5, 52548, Note_on_c, 3, 59, 0
5, 52548, Note_on_c, 3, 62, 0
5, 52560, Note_on_c, 3, 64, 98
5, 52560, Note_on_c, 3, 60, 104
5, 52704, Note_on_c, 3, 60, 0
5, 52704, Note_on_c, 3, 64, 0
5, 52740, Note_on_c, 3, 65, 127
5, 52740, Note_on_c, 3, 62, 105
5, 52836, Note_on_c, 3, 62, 0
5, 52836, Note_on_c, 3, 65, 0
5, 52860, Note_on_c, 3, 50, 112
5, 52860, Note_on_c, 3, 53, 113
5, 52908, Note_on_c, 3, 53, 0
5, 52908, Note_on_c, 3, 50, 0
5, 52920, Note_on_c, 3, 55, 110
5, 52920, Note_on_c, 3, 52, 103
5, 53064, Note_on_c, 3, 52, 0
5, 53064, Note_on_c, 3, 55, 0
5, 53100, Note_on_c, 3, 53, 116
5, 53100, Note_on_c, 3, 57, 113
5, 53244, Note_on_c, 3, 57, 0
5, 53244, Note_on_c, 3, 53, 0
5, 53280, Note_on_c, 3, 58, 107
5, 53280, Note_on_c, 3, 55, 123
5, 53424, Note_on_c, 3, 55, 0
5, 53424, Note_on_c, 3, 58, 0
5, 53460, Note_on_c, 3, 56, 93
5, 53460, Note_on_c, 3, 59, 107
5, 53556, Note_on_c, 3, 59, 0
5, 53556, Note_on_c, 3, 56, 0
5, 53580, Note_on_c, 3, 56, 90
5, 53580, Note_on_c, 3, 59, 113
5, 53628, Note_on_c, 3, 59, 0
5, 53628, Note_on_c, 3, 56, 0
5, 53640, Note_on_c, 3, 60, 107
5, 53640, Note_on_c, 3, 57, 112
5, 53916, Note_on_c, 3, 57, 0
5, 53916, Note_on_c, 3, 60, 0
5, 53940, Note_on_c, 3, 53, 103
5, 53940, Note_on_c, 3, 57, 104
5, 53988, Note_on_c, 3, 57, 0
5, 53988, Note_on_c, 3, 53, 0
5, 54000, Note_on_c, 3, 53, 107
5, 54000, Note_on_c, 3, 57, 105
5, 54096, Note_on_c, 3, 57, 0
5, 54096, Note_on_c, 3, 53, 0
5, 54120, Note_on_c, 3, 53, 107
5, 54120, Note_on_c, 3, 57, 108
5, 54168, Note_on_c, 3, 57, 0
5, 54168, Note_on_c, 3, 53, 0
5, 54180, Note_on_c, 3, 53, 104
5, 54180, Note_on_c, 3, 57, 103
5, 54276, Note_on_c, 3, 57, 0
5, 54276, Note_on_c, 3, 53, 0
5, 54300, Note_on_c, 3, 57, 109
5, 54300, Note_on_c, 3, 53, 109
5, 54348, Note_on_c, 3, 53, 0
5, 54348, Note_on_c, 3, 57, 0
5, 54360, Note_on_c, 3, 55, 110
5, 54360, Note_on_c, 3, 58, 92
5, 54636, Note_on_c, 3, 58, 0
5, 54636, Note_on_c, 3, 55, 0
5, 54660, Note_on_c, 3, 52, 102
5, 54660, Note_on_c, 3, 55, 105
5, 54708, Note_on_c, 3, 55, 0
5, 54708, Note_on_c, 3, 52, 0
5, 54720, Note_on_c, 3, 55, 116
5, 54720, Note_on_c, 3, 52, 111
5, 54816, Note_on_c, 3, 52, 0
5, 54816, Note_on_c, 3, 55, 0
5, 54840, Note_on_c, 3, 52, 113
5, 54840, Note_on_c, 3, 55, 118
5, 54888, Note_on_c, 3, 55, 0
5, 54888, Note_on_c, 3, 52, 0
5, 54900, Note_on_c, 3, 52, 108
5, 54900, Note_on_c, 3, 55, 116
5, 54996, Note_on_c, 3, 55, 0
5, 54996, Note_on_c, 3, 52, 0
5, 55020, Note_on_c, 3, 55, 123
5, 55020, Note_on_c, 3, 52, 117
5, 55068, Note_on_c, 3, 52, 0
5, 55068, Note_on_c, 3, 55, 0
5, 55080, Note_on_c, 3, 57, 120
5, 55080, Note_on_c, 3, 60, 127
5, 55176, Note_on_c, 3, 60, 0
5, 55176, Note_on_c, 3, 57, 0
5, 55200, Note_on_c, 3, 60, 116
5, 55200, Note_on_c, 3, 57, 121
5, 55248, Note_on_c, 3, 57, 0
5, 55248, Note_on_c, 3, 60, 0
5, 55260, Note_on_c, 3, 60, 113
5, 55260, Note_on_c, 3, 57, 113
5, 55356, Note_on_c, 3, 57, 0
5, 55356, Note_on_c, 3, 60, 0
5, 55380, Note_on_c, 3, 60, 107
5, 55380, Note_on_c, 3, 57, 111
5, 55428, Note_on_c, 3, 57, 0
5, 55428, Note_on_c, 3, 60, 0
5, 55440, Note_on_c, 3, 60, 113
5, 55440, Note_on_c, 3, 57, 114
5, 55536, Note_on_c, 3, 57, 0
5, 55536, Note_on_c, 3, 60, 0
5, 55560, Note_on_c, 3, 53, 107
5, 55560, Note_on_c, 3, 57, 107
5, 55608, Note_on_c, 3, 57, 0
5, 55608, Note_on_c, 3, 53, 0
5, 55620, Note_on_c, 3, 53, 107
5, 55620, Note_on_c, 3, 57, 108
5, 55716, Note_on_c, 3, 57, 0
5, 55716, Note_on_c, 3, 53, 0
5, 55740, Note_on_c, 3, 57, 111
5, 55740, Note_on_c, 3, 53, 109
5, 55788, Note_on_c, 3, 53, 0
5, 55788, Note_on_c, 3, 57, 0
5, 55800, Note_on_c, 3, 58, 81
5, 55800, Note_on_c, 3, 55, 101
5, 55896, Note_on_c, 3, 55, 0
5, 55896, Note_on_c, 3, 58, 0
5, 55920, Note_on_c, 3, 55, 109
5, 55920, Note_on_c, 3, 58, 83
5, 55968, Note_on_c, 3, 58, 0
5, 55968, Note_on_c, 3, 55, 0
5, 55980, Note_on_c, 3, 55, 110
5, 55980, Note_on_c, 3, 58, 88
5, 56076, Note_on_c, 3, 58, 0
5, 56076, Note_on_c, 3, 55, 0
5, 56100, Note_on_c, 3, 55, 111
5, 56100, Note_on_c, 3, 58, 90
5, 56148, Note_on_c, 3, 58, 0
5, 56148, Note_on_c, 3, 55, 0
5, 56160, Note_on_c, 3, 58, 90
5, 56160, Note_on_c, 3, 55, 118
5, 56256, Note_on_c, 3, 55, 0
5, 56256, Note_on_c, 3, 58, 0
5, 56280, Note_on_c, 3, 52, 100
5, 56280, Note_on_c, 3, 55, 111
5, 56328, Note_on_c, 3, 55, 0
5, 56328, Note_on_c, 3, 52, 0
5, 56340, Note_on_c, 3, 55, 109
5, 56340, Note_on_c, 3, 52, 104
5, 56436, Note_on_c, 3, 52, 0
5, 56436, Note_on_c, 3, 55, 0
5, 56460, Note_on_c, 3, 55, 108
5, 56460, Note_on_c, 3, 52, 106
5, 56508, Note_on_c, 3, 52, 0
5, 56508, Note_on_c, 3, 55, 0
5, 56520, Note_on_c, 3, 53, 108
5, 56520, Note_on_c, 3, 57, 109
5, 56616, Note_on_c, 3, 57, 0
5, 56616, Note_on_c, 3, 53, 0
5, 57000, Note_on_c, 3, 53, 103
5, 57000, Note_on_c, 3, 57, 107
5, 57048, Note_on_c, 3, 57, 0
5, 57048, Note_on_c, 3, 53, 0
5, 57060, Note_on_c, 3, 55, 117
5, 57060, Note_on_c, 3, 52, 107
5, 57156, Note_on_c, 3, 52, 0
5, 57156, Note_on_c, 3, 55, 0
5, 57180, Note_on_c, 3, 55, 110
5, 57180, Note_on_c, 3, 52, 114
5, 57228, Note_on_c, 3, 52, 0
5, 57228, Note_on_c, 3, 55, 0
5, 57240, Note_on_c, 3, 53, 109
5, 57240, Note_on_c, 3, 57, 107
5, 57336, Note_on_c, 3, 57, 0
5, 57336, Note_on_c, 3, 53, 0
5, 57540, Note_on_c, 3, 62, 103
5, 57540, Note_on_c, 3, 53, 103
5, 57588, Note_on_c, 3, 53, 0
5, 57588, Note_on_c, 3, 62, 0
5, 57600, Note_on_c, 3, 53, 111
5, 57600, Note_on_c, 3, 60, 125
5, 57648, Note_on_c, 3, 60, 0
5, 57648, Note_on_c, 3, 53, 0
5, 57660, Note_on_c, 3, 58, 109
5, 57660, Note_on_c, 3, 64, 127
5, 57708, Note_on_c, 3, 64, 0
5, 57708, Note_on_c, 3, 58, 0
5, 57720, Note_on_c, 3, 65, 127
5, 57720, Note_on_c, 3, 57, 127
5, 57768, Note_on_c, 3, 57, 0
5, 57768, Note_on_c, 3, 65, 0
5, 57780, Note_on_c, 3, 58, 92
5, 57780, Note_on_c, 3, 55, 120
5, 57876, Note_on_c, 3, 55, 0
5, 57876, Note_on_c, 3, 58, 0
5, 57900, Note_on_c, 3, 60, 103
5, 57900, Note_on_c, 3, 55, 120
5, 57948, Note_on_c, 3, 55, 0
5, 57948, Note_on_c, 3, 60, 0
5, 57960, Note_on_c, 3, 57, 109
5, 57960, Note_on_c, 3, 60, 109
5, 58104, Note_on_c, 3, 60, 0
5, 58104, Note_on_c, 3, 57, 0
5, 58140, Note_on_c, 3, 53, 103
5, 58140, Note_on_c, 3, 57, 103
5, 58188, Note_on_c, 3, 57, 0
5, 58188, Note_on_c, 3, 53, 0
5, 58260, Note_on_c, 3, 57, 120
5, 58260, Note_on_c, 3, 60, 121
5, 58308, Note_on_c, 3, 60, 0
5, 58308, Note_on_c, 3, 57, 0
5, 58320, Note_on_c, 3, 62, 121
5, 58320, Note_on_c, 3, 58, 83
5, 58464, Note_on_c, 3, 58, 0
5, 58464, Note_on_c, 3, 62, 0
5, 58500, Note_on_c, 3, 58, 80
5, 58500, Note_on_c, 3, 55, 104
5, 58548, Note_on_c, 3, 55, 0
5, 58548, Note_on_c, 3, 58, 0
5, 58620, Note_on_c, 3, 58, 99
5, 58620, Note_on_c, 3, 62, 116
5, 58668, Note_on_c, 3, 62, 0
5, 58668, Note_on_c, 3, 58, 0
5, 58680, Note_on_c, 3, 53, 112
5, 58680, Note_on_c, 3, 57, 111
5, 58728, Note_on_c, 3, 57, 0
5, 58728, Note_on_c, 3, 53, 0
5, 59942, Control_c, 3, 7, 85
5, 60300, Note_on_c, 3, 62, 101
5, 60300, Note_on_c, 3, 55, 105
5, 60592, Note_on_c, 3, 55, 0
5, 60592, Note_on_c, 3, 62, 0
5, 60660, Note_on_c, 3, 62, 113
5, 60660, Note_on_c, 3, 55, 109
5, 60756, Note_on_c, 3, 55, 0
5, 60756, Note_on_c, 3, 62, 0
5, 60840, Note_on_c, 3, 62, 123
5, 60840, Note_on_c, 3, 55, 123
5, 60936, Note_on_c, 3, 55, 0
5, 60936, Note_on_c, 3, 62, 0
5, 61020, Note_on_c, 3, 62, 125
5, 61020, Note_on_c, 3, 55, 120
5, 61116, Note_on_c, 3, 55, 0
5, 61116, Note_on_c, 3, 62, 0
5, 61200, Note_on_c, 3, 62, 127
5, 61200, Note_on_c, 3, 55, 121
5, 61296, Note_on_c, 3, 55, 0
5, 61296, Note_on_c, 3, 62, 0
5, 61380, Note_on_c, 3, 55, 113
5, 61380, Note_on_c, 3, 62, 123
5, 61476, Note_on_c, 3, 62, 0
5, 61476, Note_on_c, 3, 55, 0
5, 61560, Note_on_c, 3, 62, 127
5, 61560, Note_on_c, 3, 55, 113
5, 61560, Control_c, 3, 7, 85
5, 61586, Control_c, 3, 7, 86
5, 61610, Control_c, 3, 7, 87
5, 61634, Control_c, 3, 7, 88
5, 61656, Note_on_c, 3, 55, 0
5, 61656, Note_on_c, 3, 62, 0
5, 61658, Control_c, 3, 7, 89
5, 61682, Control_c, 3, 7, 90
5, 61706, Control_c, 3, 7, 91
5, 61730, Control_c, 3, 7, 92
5, 61740, Note_on_c, 3, 55, 109
5, 61740, Note_on_c, 3, 62, 117
5, 61756, Control_c, 3, 7, 93
5, 61780, Control_c, 3, 7, 94
5, 61804, Control_c, 3, 7, 95
5, 61828, Control_c, 3, 7, 96
5, 61836, Note_on_c, 3, 62, 0
5, 61836, Note_on_c, 3, 55, 0
5, 61852, Control_c, 3, 7, 97
5, 61876, Control_c, 3, 7, 98
5, 61900, Control_c, 3, 7, 99
5, 61920, Note_on_c, 3, 64, 121
5, 61920, Note_on_c, 3, 55, 105
5, 61926, Control_c, 3, 7, 100
5, 61950, Control_c, 3, 7, 101
5, 61974, Control_c, 3, 7, 102
5, 61998, Control_c, 3, 7, 103
5, 62016, Note_on_c, 3, 55, 0
5, 62016, Note_on_c, 3, 64, 0
5, 62022, Control_c, 3, 7, 104
5, 62046, Control_c, 3, 7, 105
5, 62070, Control_c, 3, 7, 106
5, 62096, Control_c, 3, 7, 107
5, 62100, Note_on_c, 3, 64, 127
5, 62100, Note_on_c, 3, 55, 105
5, 62120, Control_c, 3, 7, 108
5, 62144, Control_c, 3, 7, 109
5, 62168, Control_c, 3, 7, 110
5, 62192, Control_c, 3, 7, 111
5, 62196, Note_on_c, 3, 55, 0
5, 62196, Note_on_c, 3, 64, 0
5, 62216, Control_c, 3, 7, 112
5, 62240, Control_c, 3, 7, 113
5, 62266, Control_c, 3, 7, 114
5, 62280, Note_on_c, 3, 64, 113
5, 62280, Note_on_c, 3, 55, 110
5, 62290, Control_c, 3, 7, 115
5, 62314, Control_c, 3, 7, 116
5, 62338, Control_c, 3, 7, 117
5, 62362, Control_c, 3, 7, 118
5, 62376, Note_on_c, 3, 55, 0
5, 62376, Note_on_c, 3, 64, 0
5, 62386, Control_c, 3, 7, 119
5, 62410, Control_c, 3, 7, 120
5, 62436, Control_c, 3, 7, 121
5, 62460, Note_on_c, 3, 64, 125
5, 62460, Note_on_c, 3, 55, 113
5, 62460, Control_c, 3, 7, 122
5, 62484, Control_c, 3, 7, 123
5, 62508, Note_on_c, 3, 55, 0
5, 62508, Note_on_c, 3, 64, 0
5, 62508, Control_c, 3, 7, 124
5, 62532, Control_c, 3, 7, 125
5, 62556, Control_c, 3, 7, 126
5, 62580, Note_on_c, 3, 58, 109
5, 62580, Note_on_c, 3, 55, 120
5, 62580, Control_c, 3, 7, 127
5, 62916, Note_on_c, 3, 55, 0
5, 62916, Note_on_c, 3, 58, 0
5, 62940, Note_on_c, 3, 58, 107
5, 62940, Note_on_c, 3, 55, 123
5, 63096, Note_on_c, 3, 55, 0
5, 63096, Note_on_c, 3, 58, 0
5, 63120, Note_on_c, 3, 58, 101
5, 63120, Note_on_c, 3, 55, 113
5, 63276, Note_on_c, 3, 55, 0
5, 63276, Note_on_c, 3, 58, 0
5, 63300, Note_on_c, 3, 58, 115
5, 63300, Note_on_c, 3, 55, 127
5, 63348, Note_on_c, 3, 55, 0
5, 63348, Note_on_c, 3, 58, 0
5, 63360, Note_on_c, 3, 57, 127
5, 63504, Note_on_c, 3, 57, 0
5, 63540, Note_on_c, 3, 53, 114
5, 63588, Note_on_c, 3, 53, 0
5, 63660, Note_on_c, 3, 60, 127
5, 63708, Note_on_c, 3, 60, 0
5, 63720, Note_on_c, 3, 57, 112
5, 63996, Note_on_c, 3, 57, 0
5, 64002, Control_c, 3, 7, 84
5, 64020, Note_on_c, 3, 48, 127
5, 64068, Note_on_c, 3, 48, 0
5, 64080, Note_on_c, 3, 53, 127
5, 64176, Note_on_c, 3, 53, 0
5, 64200, Note_on_c, 3, 57, 127
5, 64248, Note_on_c, 3, 57, 0
5, 64260, Note_on_c, 3, 60, 127
5, 64356, Note_on_c, 3, 60, 0
5, 64380, Note_on_c, 3, 57, 127
5, 64428, Note_on_c, 3, 57, 0
5, 64440, Note_on_c, 3, 58, 111
5, 64716, Note_on_c, 3, 58, 0
5, 64740, Note_on_c, 3, 48, 127
5, 64788, Note_on_c, 3, 48, 0
5, 64800, Note_on_c, 3, 52, 127
5, 64896, Note_on_c, 3, 52, 0
5, 64920, Note_on_c, 3, 55, 123
5, 64968, Note_on_c, 3, 55, 0
5, 64980, Note_on_c, 3, 58, 115
5, 65076, Note_on_c, 3, 58, 0
5, 65100, Note_on_c, 3, 55, 127
5, 65148, Note_on_c, 3, 55, 0
5, 65160, Note_on_c, 3, 57, 123
5, 65256, Note_on_c, 3, 57, 0
5, 65520, Note_on_c, 3, 57, 127
5, 65520, Note_on_c, 3, 54, 109
5, 65520, Control_c, 3, 7, 99
5, 65808, Note_on_c, 3, 54, 0
5, 65808, Note_on_c, 3, 57, 0
5, 65880, Note_on_c, 3, 55, 127
5, 65880, Note_on_c, 3, 58, 118
5, 65976, Note_on_c, 3, 58, 0
5, 65976, Note_on_c, 3, 55, 0
5, 66240, Note_on_c, 3, 52, 117
5, 66240, Note_on_c, 3, 55, 127
5, 66528, Note_on_c, 3, 55, 0
5, 66528, Note_on_c, 3, 52, 0
5, 66600, Note_on_c, 3, 53, 121
5, 66600, Note_on_c, 3, 57, 127
5, 66696, Note_on_c, 3, 57, 0
5, 66696, Note_on_c, 3, 53, 0
5, 66778, Control_c, 3, 7, 95
5, 66814, Control_c, 3, 7, 96
5, 66850, Control_c, 3, 7, 97
5, 66886, Control_c, 3, 7, 98
5, 66922, Control_c, 3, 7, 99
5, 66958, Control_c, 3, 7, 100
5, 66994, Control_c, 3, 7, 101
5, 67020, Note_on_c, 3, 54, 111
5, 67020, Note_on_c, 3, 57, 127
5, 67030, Control_c, 3, 7, 102
5, 67066, Control_c, 3, 7, 103
5, 67068, Note_on_c, 3, 57, 0
5, 67068, Note_on_c, 3, 54, 0
5, 67080, Note_on_c, 3, 57, 123
5, 67080, Note_on_c, 3, 54, 103
5, 67102, Control_c, 3, 7, 104
5, 67128, Note_on_c, 3, 54, 0
5, 67128, Note_on_c, 3, 57, 0
5, 67138, Control_c, 3, 7, 105
5, 67140, Note_on_c, 3, 54, 100
5, 67140, Note_on_c, 3, 57, 118
5, 67174, Control_c, 3, 7, 106
5, 67188, Note_on_c, 3, 57, 0
5, 67188, Note_on_c, 3, 54, 0
5, 67200, Note_on_c, 3, 54, 101
5, 67200, Note_on_c, 3, 57, 121
5, 67210, Control_c, 3, 7, 107
5, 67246, Control_c, 3, 7, 108
5, 67248, Note_on_c, 3, 57, 0
5, 67248, Note_on_c, 3, 54, 0
5, 67260, Note_on_c, 3, 57, 114
5, 67260, Note_on_c, 3, 54, 100
5, 67282, Control_c, 3, 7, 109
5, 67308, Note_on_c, 3, 54, 0
5, 67308, Note_on_c, 3, 57, 0
5, 67318, Control_c, 3, 7, 110
5, 67320, Note_on_c, 3, 55, 125
5, 67320, Note_on_c, 3, 58, 113
5, 67352, Control_c, 3, 7, 111
5, 67388, Control_c, 3, 7, 112
5, 67416, Note_on_c, 3, 58, 0
5, 67416, Note_on_c, 3, 55, 0
5, 67424, Control_c, 3, 7, 113
5, 67460, Control_c, 3, 7, 114
5, 67496, Control_c, 3, 7, 115
5, 67532, Control_c, 3, 7, 116
5, 67568, Control_c, 3, 7, 117
5, 67604, Control_c, 3, 7, 118
5, 67640, Control_c, 3, 7, 119
5, 67676, Control_c, 3, 7, 120
5, 67680, Control_c, 3, 7, 102
5, 67696, Control_c, 3, 7, 103
5, 67710, Control_c, 3, 7, 104
5, 67724, Control_c, 3, 7, 105
5, 67738, Control_c, 3, 7, 106
5, 67740, Note_on_c, 3, 52, 127
5, 67740, Note_on_c, 3, 55, 127
5, 67752, Control_c, 3, 7, 107
5, 67766, Control_c, 3, 7, 108
5, 67780, Control_c, 3, 7, 109
5, 67788, Note_on_c, 3, 55, 0
5, 67788, Note_on_c, 3, 52, 0
5, 67794, Control_c, 3, 7, 110
5, 67800, Note_on_c, 3, 55, 110
5, 67800, Note_on_c, 3, 52, 109
5, 67810, Control_c, 3, 7, 111
5, 67824, Control_c, 3, 7, 112
5, 67838, Control_c, 3, 7, 113
5, 67848, Note_on_c, 3, 52, 0
5, 67848, Note_on_c, 3, 55, 0
5, 67852, Control_c, 3, 7, 114
5, 67860, Note_on_c, 3, 55, 107
5, 67860, Note_on_c, 3, 52, 112
5, 67866, Control_c, 3, 7, 115
5, 67880, Control_c, 3, 7, 116
5, 67894, Control_c, 3, 7, 117
5, 67908, Note_on_c, 3, 52, 0
5, 67908, Note_on_c, 3, 55, 0
5, 67908, Control_c, 3, 7, 118
5, 67920, Note_on_c, 3, 55, 121
5, 67920, Note_on_c, 3, 52, 118
5, 67924, Control_c, 3, 7, 119
5, 67938, Control_c, 3, 7, 120
5, 67952, Control_c, 3, 7, 121
5, 67966, Control_c, 3, 7, 122
5, 67968, Note_on_c, 3, 52, 0
5, 67968, Note_on_c, 3, 55, 0
5, 67980, Note_on_c, 3, 55, 117
5, 67980, Note_on_c, 3, 52, 116
5, 67980, Control_c, 3, 7, 123
5, 67994, Control_c, 3, 7, 124
5, 68008, Control_c, 3, 7, 125
5, 68022, Control_c, 3, 7, 126
5, 68028, Note_on_c, 3, 52, 0
5, 68028, Note_on_c, 3, 55, 0
5, 68036, Control_c, 3, 7, 127
5, 68040, Note_on_c, 3, 57, 114
5, 68040, Note_on_c, 3, 53, 116
5, 68676, Note_on_c, 3, 53, 0
5, 68676, Note_on_c, 3, 57, 0
5, 68700, Note_on_c, 3, 57, 117
5, 68700, Note_on_c, 3, 53, 114
5, 68748, Note_on_c, 3, 53, 0
5, 68748, Note_on_c, 3, 57, 0
5, 68760, Note_on_c, 3, 57, 114
5, 68760, Note_on_c, 3, 53, 120
5, 69396, Note_on_c, 3, 53, 0
5, 69396, Note_on_c, 3, 57, 0
5, 69420, Note_on_c, 3, 57, 108
5, 69420, Note_on_c, 3, 53, 112
5, 69468, Note_on_c, 3, 53, 0
5, 69468, Note_on_c, 3, 57, 0
5, 69480, Note_on_c, 3, 59, 110
5, 69480, Note_on_c, 3, 55, 113
5, 70116, Note_on_c, 3, 55, 0
5, 70116, Note_on_c, 3, 59, 0
5, 70140, Note_on_c, 3, 55, 116
5, 70140, Note_on_c, 3, 59, 113
5, 70188, Note_on_c, 3, 59, 0
5, 70188, Note_on_c, 3, 55, 0
5, 70202, Control_c, 3, 7, 91
5, 70500, Note_on_c, 3, 62, 101
5, 70500, Note_on_c, 3, 55, 101
5, 70524, Note_on_c, 3, 55, 0
5, 70524, Note_on_c, 3, 62, 0
5, 70530, Note_on_c, 3, 62, 110
5, 70530, Note_on_c, 3, 55, 106
5, 70554, Note_on_c, 3, 55, 0
5, 70554, Note_on_c, 3, 62, 0
5, 70560, Note_on_c, 3, 62, 112
5, 70560, Note_on_c, 3, 55, 105
5, 70608, Note_on_c, 3, 55, 0
5, 70608, Note_on_c, 3, 62, 0
5, 70860, Note_on_c, 3, 62, 118
5, 70860, Note_on_c, 3, 55, 107
5, 70884, Note_on_c, 3, 55, 0
5, 70884, Note_on_c, 3, 62, 0
5, 70890, Note_on_c, 3, 62, 118
5, 70890, Note_on_c, 3, 55, 107
5, 70914, Note_on_c, 3, 55, 0
5, 70914, Note_on_c, 3, 62, 0
5, 70920, Note_on_c, 3, 62, 120
5, 70920, Note_on_c, 3, 55, 107
5, 70922, Control_c, 3, 7, 97
5, 70968, Note_on_c, 3, 55, 0
5, 70968, Note_on_c, 3, 62, 0
5, 71032, Control_c, 3, 7, 98
5, 71040, Note_on_c, 3, 62, 127
5, 71040, Note_on_c, 3, 55, 113
5, 71064, Note_on_c, 3, 55, 0
5, 71064, Note_on_c, 3, 62, 0
5, 71070, Note_on_c, 3, 62, 127
5, 71070, Note_on_c, 3, 55, 110
5, 71094, Note_on_c, 3, 55, 0
5, 71094, Note_on_c, 3, 62, 0
5, 71100, Note_on_c, 3, 62, 120
5, 71100, Note_on_c, 3, 55, 107
5, 71140, Control_c, 3, 7, 99
5, 71148, Note_on_c, 3, 55, 0
5, 71148, Note_on_c, 3, 62, 0
5, 71220, Note_on_c, 3, 62, 118
5, 71220, Note_on_c, 3, 55, 103
5, 71244, Note_on_c, 3, 55, 0
5, 71244, Note_on_c, 3, 62, 0
5, 71248, Control_c, 3, 7, 100
5, 71250, Note_on_c, 3, 62, 111
5, 71250, Note_on_c, 3, 55, 104
5, 71274, Note_on_c, 3, 55, 0
5, 71274, Note_on_c, 3, 62, 0
5, 71280, Note_on_c, 3, 62, 125
5, 71280, Note_on_c, 3, 55, 112
5, 71328, Note_on_c, 3, 55, 0
5, 71328, Note_on_c, 3, 62, 0
5, 71358, Control_c, 3, 7, 101
5, 71400, Note_on_c, 3, 62, 117
5, 71400, Note_on_c, 3, 55, 106
5, 71424, Note_on_c, 3, 55, 0
5, 71424, Note_on_c, 3, 62, 0
5, 71430, Note_on_c, 3, 62, 117
5, 71430, Note_on_c, 3, 55, 107
5, 71454, Note_on_c, 3, 55, 0
5, 71454, Note_on_c, 3, 62, 0
5, 71460, Note_on_c, 3, 62, 116
5, 71460, Note_on_c, 3, 55, 104
5, 71466, Control_c, 3, 7, 102
5, 71508, Note_on_c, 3, 55, 0
5, 71508, Note_on_c, 3, 62, 0
5, 71574, Control_c, 3, 7, 103
5, 71580, Note_on_c, 3, 62, 127
5, 71580, Note_on_c, 3, 55, 101
5, 71604, Note_on_c, 3, 55, 0
5, 71604, Note_on_c, 3, 62, 0
5, 71610, Note_on_c, 3, 62, 107
5, 71610, Note_on_c, 3, 55, 110
5, 71634, Note_on_c, 3, 55, 0
5, 71634, Note_on_c, 3, 62, 0
5, 71640, Note_on_c, 3, 60, 112
5, 71640, Note_on_c, 3, 64, 114
5, 71684, Control_c, 3, 7, 104
5, 71688, Note_on_c, 3, 64, 0
5, 71688, Note_on_c, 3, 60, 0
5, 71760, Note_on_c, 3, 60, 113
5, 71760, Note_on_c, 3, 64, 111
5, 71784, Note_on_c, 3, 64, 0
5, 71784, Note_on_c, 3, 60, 0
5, 71790, Note_on_c, 3, 60, 109
5, 71790, Note_on_c, 3, 64, 114
5, 71792, Control_c, 3, 7, 105
5, 71814, Note_on_c, 3, 64, 0
5, 71814, Note_on_c, 3, 60, 0
5, 71820, Note_on_c, 3, 64, 109
5, 71820, Note_on_c, 3, 60, 108
5, 71868, Note_on_c, 3, 60, 0
5, 71868, Note_on_c, 3, 64, 0
5, 71900, Control_c, 3, 7, 106
5, 71940, Note_on_c, 3, 60, 112
5, 71940, Note_on_c, 3, 64, 113
5, 71964, Note_on_c, 3, 64, 0
5, 71964, Note_on_c, 3, 60, 0
5, 71970, Note_on_c, 3, 60, 106
5, 71970, Note_on_c, 3, 64, 105
5, 71994, Note_on_c, 3, 64, 0
5, 71994, Note_on_c, 3, 60, 0
5, 72000, Note_on_c, 3, 64, 114
5, 72000, Note_on_c, 3, 60, 112
5, 72000, Control_c, 3, 7, 105
5, 72048, Note_on_c, 3, 60, 0
5, 72048, Note_on_c, 3, 64, 0
5, 72050, Control_c, 3, 7, 106
5, 72100, Control_c, 3, 7, 107
5, 72120, Note_on_c, 3, 60, 109
5, 72120, Note_on_c, 3, 64, 117
5, 72144, Note_on_c, 3, 64, 0
5, 72144, Note_on_c, 3, 60, 0
5, 72150, Note_on_c, 3, 60, 109
5, 72150, Note_on_c, 3, 64, 108
5, 72150, Control_c, 3, 7, 108
5, 72174, Note_on_c, 3, 64, 0
5, 72174, Note_on_c, 3, 60, 0
5, 72180, Note_on_c, 3, 64, 107
5, 72180, Note_on_c, 3, 60, 109
5, 72200, Control_c, 3, 7, 109
5, 72228, Note_on_c, 3, 60, 0
5, 72228, Note_on_c, 3, 64, 0
5, 72250, Control_c, 3, 7, 110
5, 72300, Note_on_c, 3, 58, 109
5, 72300, Note_on_c, 3, 55, 114
5, 72300, Control_c, 3, 7, 111
5, 72324, Note_on_c, 3, 55, 0
5, 72324, Note_on_c, 3, 58, 0
5, 72330, Note_on_c, 3, 58, 105
5, 72330, Note_on_c, 3, 55, 114
5, 72350, Control_c, 3, 7, 112
5, 72354, Note_on_c, 3, 55, 0
5, 72354, Note_on_c, 3, 58, 0
5, 72360, Note_on_c, 3, 58, 94
5, 72360, Note_on_c, 3, 55, 121
5, 72400, Control_c, 3, 7, 113
5, 72408, Note_on_c, 3, 55, 0
5, 72408, Note_on_c, 3, 58, 0
5, 72450, Control_c, 3, 7, 114
5, 72480, Note_on_c, 3, 58, 111
5, 72480, Note_on_c, 3, 55, 121
5, 72500, Control_c, 3, 7, 115
5, 72504, Note_on_c, 3, 55, 0
5, 72504, Note_on_c, 3, 58, 0
5, 72510, Note_on_c, 3, 58, 109
5, 72510, Note_on_c, 3, 55, 123
5, 72534, Note_on_c, 3, 55, 0
5, 72534, Note_on_c, 3, 58, 0
5, 72540, Note_on_c, 3, 55, 121
5, 72540, Note_on_c, 3, 58, 105
5, 72550, Control_c, 3, 7, 116
5, 72588, Note_on_c, 3, 58, 0
5, 72588, Note_on_c, 3, 55, 0
5, 72600, Control_c, 3, 7, 117
5, 72650, Control_c, 3, 7, 118
5, 72660, Note_on_c, 3, 58, 103
5, 72660, Note_on_c, 3, 55, 120
5, 72684, Note_on_c, 3, 55, 0
5, 72684, Note_on_c, 3, 58, 0
5, 72690, Note_on_c, 3, 55, 121
5, 72690, Note_on_c, 3, 58, 105
5, 72700, Control_c, 3, 7, 119
5, 72714, Note_on_c, 3, 58, 0
5, 72714, Note_on_c, 3, 55, 0
5, 72720, Note_on_c, 3, 55, 112
5, 72720, Note_on_c, 3, 58, 95
5, 72750, Control_c, 3, 7, 120
5, 72768, Note_on_c, 3, 58, 0
5, 72768, Note_on_c, 3, 55, 0
5, 72800, Control_c, 3, 7, 121
5, 72840, Note_on_c, 3, 55, 121
5, 72840, Note_on_c, 3, 58, 100
5, 72850, Control_c, 3, 7, 122
5, 72864, Note_on_c, 3, 58, 0
5, 72864, Note_on_c, 3, 55, 0
5, 72870, Note_on_c, 3, 55, 121
5, 72870, Note_on_c, 3, 58, 103
5, 72894, Note_on_c, 3, 58, 0
5, 72894, Note_on_c, 3, 55, 0
5, 72900, Note_on_c, 3, 58, 88
5, 72900, Note_on_c, 3, 55, 109
5, 72900, Control_c, 3, 7, 123
5, 72948, Note_on_c, 3, 55, 0
5, 72948, Note_on_c, 3, 58, 0
5, 72950, Control_c, 3, 7, 124
5, 73000, Control_c, 3, 7, 125
5, 73020, Note_on_c, 3, 58, 101
5, 73020, Note_on_c, 3, 55, 112
5, 73050, Control_c, 3, 7, 126
5, 73100, Control_c, 3, 7, 127
5, 73356, Note_on_c, 3, 55, 0
5, 73356, Note_on_c, 3, 58, 0
5, 73380, Note_on_c, 3, 58, 105
5, 73380, Note_on_c, 3, 55, 110
5, 73536, Note_on_c, 3, 55, 0
5, 73536, Note_on_c, 3, 58, 0
5, 73560, Note_on_c, 3, 55, 121
5, 73560, Note_on_c, 3, 58, 105
5, 73716, Note_on_c, 3, 58, 0
5, 73716, Note_on_c, 3, 55, 0
5, 73740, Note_on_c, 3, 55, 117
5, 73740, Note_on_c, 3, 52, 101
5, 73788, Note_on_c, 3, 52, 0
5, 73788, Note_on_c, 3, 55, 0
5, 73800, Note_on_c, 3, 57, 127
5, 73824, Note_on_c, 3, 57, 0
5, 73830, Note_on_c, 3, 58, 118
5, 73854, Note_on_c, 3, 58, 0
5, 73860, Note_on_c, 3, 57, 127
5, 73884, Note_on_c, 3, 57, 0
5, 73890, Note_on_c, 3, 55, 116
5, 73914, Note_on_c, 3, 55, 0
5, 73920, Note_on_c, 3, 53, 112
5, 73944, Note_on_c, 3, 53, 0
5, 73950, Note_on_c, 3, 52, 112
5, 73974, Note_on_c, 3, 52, 0
5, 73980, Note_on_c, 3, 53, 110
5, 74004, Note_on_c, 3, 53, 0
5, 74010, Note_on_c, 3, 55, 110
5, 74034, Note_on_c, 3, 55, 0
5, 74040, Note_on_c, 3, 57, 127
5, 74064, Note_on_c, 3, 57, 0
5, 74070, Note_on_c, 3, 58, 115
5, 74094, Note_on_c, 3, 58, 0
5, 74100, Note_on_c, 3, 60, 116
5, 74124, Note_on_c, 3, 60, 0
5, 74130, Note_on_c, 3, 58, 109
5, 74154, Note_on_c, 3, 58, 0
5, 74160, Note_on_c, 3, 57, 127
5, 74184, Note_on_c, 3, 57, 0
5, 74190, Note_on_c, 3, 58, 115
5, 74214, Note_on_c, 3, 58, 0
5, 74220, Note_on_c, 3, 57, 127
5, 74244, Note_on_c, 3, 57, 0
5, 74250, Note_on_c, 3, 55, 116
5, 74274, Note_on_c, 3, 55, 0
5, 74280, Note_on_c, 3, 53, 114
5, 74304, Note_on_c, 3, 53, 0
5, 74310, Note_on_c, 3, 52, 121
5, 74334, Note_on_c, 3, 52, 0
5, 74340, Note_on_c, 3, 53, 121
5, 74364, Note_on_c, 3, 53, 0
5, 74370, Note_on_c, 3, 52, 118
5, 74394, Note_on_c, 3, 52, 0
5, 74400, Note_on_c, 3, 53, 121
5, 74424, Note_on_c, 3, 53, 0
5, 74430, Note_on_c, 3, 48, 113
5, 74454, Note_on_c, 3, 48, 0
5, 74460, Note_on_c, 3, 50, 127
5, 74484, Note_on_c, 3, 50, 0
5, 74490, Note_on_c, 3, 52, 127
5, 74514, Note_on_c, 3, 52, 0
5, 74518, Control_c, 3, 7, 97
5, 74520, Note_on_c, 3, 53, 127
5, 74544, Note_on_c, 3, 53, 0
5, 74550, Note_on_c, 3, 55, 125
5, 74574, Note_on_c, 3, 55, 0
5, 74580, Note_on_c, 3, 53, 118
5, 74604, Note_on_c, 3, 53, 0
5, 74610, Note_on_c, 3, 52, 116
5, 74634, Note_on_c, 3, 52, 0
5, 74640, Note_on_c, 3, 53, 123
5, 74664, Note_on_c, 3, 53, 0
5, 74670, Note_on_c, 3, 55, 123
5, 74694, Note_on_c, 3, 55, 0
5, 74700, Note_on_c, 3, 57, 121
5, 74724, Note_on_c, 3, 57, 0
5, 74730, Note_on_c, 3, 58, 93
5, 74754, Note_on_c, 3, 58, 0
5, 74760, Note_on_c, 3, 60, 100
5, 74784, Note_on_c, 3, 60, 0
5, 74790, Note_on_c, 3, 59, 121
5, 74814, Note_on_c, 3, 59, 0
5, 74820, Note_on_c, 3, 60, 118
5, 74844, Note_on_c, 3, 60, 0
5, 74850, Note_on_c, 3, 57, 118
5, 74874, Note_on_c, 3, 57, 0
5, 74880, Note_on_c, 3, 58, 107
5, 74904, Note_on_c, 3, 58, 0
5, 74910, Note_on_c, 3, 60, 111
5, 74934, Note_on_c, 3, 60, 0
5, 74940, Note_on_c, 3, 62, 120
5, 74964, Note_on_c, 3, 62, 0
5, 74970, Note_on_c, 3, 60, 121
5, 74994, Note_on_c, 3, 60, 0
5, 75000, Note_on_c, 3, 58, 107
5, 75024, Note_on_c, 3, 58, 0
5, 75030, Note_on_c, 3, 60, 117
5, 75054, Note_on_c, 3, 60, 0
5, 75060, Note_on_c, 3, 58, 109
5, 75084, Note_on_c, 3, 58, 0
5, 75090, Note_on_c, 3, 60, 111
5, 75114, Note_on_c, 3, 60, 0
5, 75120, Note_on_c, 3, 58, 103
5, 75144, Note_on_c, 3, 58, 0
5, 75150, Note_on_c, 3, 57, 118
5, 75174, Note_on_c, 3, 57, 0
5, 75180, Note_on_c, 3, 55, 107
5, 75204, Note_on_c, 3, 55, 0
5, 75210, Note_on_c, 3, 53, 99
5, 75234, Note_on_c, 3, 53, 0
5, 75240, Note_on_c, 3, 52, 111
5, 75264, Note_on_c, 3, 52, 0
5, 75270, Note_on_c, 3, 53, 123
5, 75294, Note_on_c, 3, 53, 0
5, 75300, Note_on_c, 3, 52, 105
5, 75324, Note_on_c, 3, 52, 0
5, 75330, Note_on_c, 3, 50, 99
5, 75354, Note_on_c, 3, 50, 0
5, 75360, Note_on_c, 3, 52, 108
5, 75384, Note_on_c, 3, 52, 0
5, 75390, Note_on_c, 3, 53, 127
5, 75414, Note_on_c, 3, 53, 0
5, 75420, Note_on_c, 3, 55, 127
5, 75444, Note_on_c, 3, 55, 0
5, 75450, Note_on_c, 3, 57, 123
5, 75474, Note_on_c, 3, 57, 0
5, 75480, Note_on_c, 3, 58, 87
5, 75504, Note_on_c, 3, 58, 0
5, 75510, Note_on_c, 3, 57, 118
5, 75534, Note_on_c, 3, 57, 0
5, 75540, Note_on_c, 3, 58, 126
5, 75564, Note_on_c, 3, 58, 0
5, 75570, Note_on_c, 3, 55, 127
5, 75594, Note_on_c, 3, 55, 0
5, 75600, Note_on_c, 3, 57, 127
5, 75696, Note_on_c, 3, 57, 0
5, 76320, Note_on_c, 3, 58, 93
5, 76320, Note_on_c, 3, 55, 114
5, 76464, Note_on_c, 3, 55, 0
5, 76464, Note_on_c, 3, 58, 0
5, 76500, Note_on_c, 3, 55, 127
5, 76596, Note_on_c, 3, 55, 0
5, 76620, Note_on_c, 3, 53, 113
5, 76620, Note_on_c, 3, 62, 127
5, 76668, Note_on_c, 3, 62, 0
5, 76668, Note_on_c, 3, 53, 0
5, 76680, Note_on_c, 3, 60, 114
5, 76680, Note_on_c, 3, 52, 98
5, 76776, Note_on_c, 3, 52, 0
5, 76776, Note_on_c, 3, 60, 0
5, 77700, Note_on_c, 3, 50, 113
5, 77748, Note_on_c, 3, 50, 0
5, 77760, Note_on_c, 3, 55, 127
5, 77856, Note_on_c, 3, 55, 0
5, 77880, Note_on_c, 3, 58, 118
5, 77928, Note_on_c, 3, 58, 0
5, 77940, Note_on_c, 3, 62, 127
5, 77988, Note_on_c, 3, 62, 0
5, 78060, Note_on_c, 3, 50, 104
5, 78108, Note_on_c, 3, 50, 0
5, 78120, Note_on_c, 3, 52, 127
5, 78216, Note_on_c, 3, 52, 0
5, 78240, Note_on_c, 3, 52, 105
5, 78240, Note_on_c, 3, 55, 123
5, 78288, Note_on_c, 3, 55, 0
5, 78288, Note_on_c, 3, 52, 0
5, 78300, Note_on_c, 3, 58, 109
5, 78300, Note_on_c, 3, 55, 121
5, 78396, Note_on_c, 3, 55, 0
5, 78396, Note_on_c, 3, 58, 0
5, 78420, Note_on_c, 3, 58, 109
5, 78420, Note_on_c, 3, 55, 111
5, 78468, Note_on_c, 3, 55, 0
5, 78468, Note_on_c, 3, 58, 0
5, 78480, Note_on_c, 3, 53, 116
5, 78480, Note_on_c, 3, 57, 114
5, 79116, Note_on_c, 3, 57, 0
5, 79116, Note_on_c, 3, 53, 0
5, 79140, Note_on_c, 3, 57, 105
5, 79140, Note_on_c, 3, 53, 107
5, 79188, Note_on_c, 3, 53, 0
5, 79188, Note_on_c, 3, 57, 0
5, 79200, Note_on_c, 3, 58, 94
5, 79200, Note_on_c, 3, 55, 110
5, 79836, Note_on_c, 3, 55, 0
5, 79836, Note_on_c, 3, 58, 0
5, 79860, Note_on_c, 3, 62, 127
5, 79860, Note_on_c, 3, 53, 118
5, 79908, Note_on_c, 3, 53, 0
5, 79908, Note_on_c, 3, 62, 0
5, 79920, Note_on_c, 3, 59, 111
5, 79920, Note_on_c, 3, 62, 100
5, 80556, Note_on_c, 3, 62, 0
5, 80556, Note_on_c, 3, 59, 0
5, 80580, Note_on_c, 3, 59, 106
5, 80580, Note_on_c, 3, 62, 109
5, 80628, Note_on_c, 3, 62, 0
5, 80628, Note_on_c, 3, 59, 0
5, 80640, Note_on_c, 3, 65, 110
5, 80640, Note_on_c, 3, 58, 90
5, 81144, Note_on_c, 3, 65, 0
5, 81180, Note_on_c, 3, 64, 127
5, 81276, Note_on_c, 3, 64, 0
5, 81276, Note_on_c, 3, 58, 0
5, 81300, Note_on_c, 3, 58, 89
5, 81300, Note_on_c, 3, 64, 125
5, 81348, Note_on_c, 3, 64, 0
5, 81348, Note_on_c, 3, 58, 0
5, 81360, Note_on_c, 3, 63, 111
5, 81360, Note_on_c, 3, 60, 127
5, 81648, Note_on_c, 3, 60, 0
5, 81648, Note_on_c, 3, 63, 0
5, 81720, Note_on_c, 3, 57, 123
5, 81720, Note_on_c, 3, 60, 123
5, 82008, Note_on_c, 3, 60, 0
5, 82008, Note_on_c, 3, 57, 0
5, 82080, Note_on_c, 3, 58, 111
5, 82080, Note_on_c, 3, 46, 113
5, 82224, Note_on_c, 3, 46, 0
5, 82224, Note_on_c, 3, 58, 0
5, 82260, Note_on_c, 3, 46, 113
5, 82260, Note_on_c, 3, 62, 127
5, 82404, Note_on_c, 3, 62, 0
5, 82404, Note_on_c, 3, 46, 0
5, 82440, Note_on_c, 3, 46, 113
5, 82440, Note_on_c, 3, 62, 127
5, 82584, Note_on_c, 3, 62, 0
5, 82584, Note_on_c, 3, 46, 0
5, 82620, Note_on_c, 3, 46, 111
5, 82620, Note_on_c, 3, 62, 127
5, 82764, Note_on_c, 3, 62, 0
5, 82764, Note_on_c, 3, 46, 0
5, 82800, Note_on_c, 3, 57, 121
5, 82944, Note_on_c, 3, 57, 0
5, 82980, Note_on_c, 3, 55, 110
5, 82980, Note_on_c, 3, 58, 97
5, 83304, Note_on_c, 3, 58, 0
5, 83304, Note_on_c, 3, 55, 0
5, 83340, Note_on_c, 3, 58, 113
5, 83340, Note_on_c, 3, 55, 118
5, 83484, Note_on_c, 3, 55, 0
5, 83484, Note_on_c, 3, 58, 0
5, 83520, Note_on_c, 3, 58, 107
5, 83520, Note_on_c, 3, 55, 125
5, 84888, Note_on_c, 3, 55, 0
5, 84888, Note_on_c, 3, 58, 0
5, 84960, Note_on_c, 3, 53, 113
5, 84960, Note_on_c, 3, 57, 110
5, 85008, Note_on_c, 3, 57, 0
5, 85008, Note_on_c, 3, 53, 0
5, 87840, Note_on_c, 3, 53, 120
5, 87984, Note_on_c, 3, 53, 0
5, 88020, Note_on_c, 3, 50, 127
5, 88068, Note_on_c, 3, 50, 0
5, 88140, Note_on_c, 3, 45, 127
5, 88188, Note_on_c, 3, 45, 0
5, 88200, Note_on_c, 3, 46, 103
5, 88476, Note_on_c, 3, 46, 0
5, 88500, Note_on_c, 3, 58, 126
5, 88500, Note_on_c, 3, 46, 105
5, 88500, Control_c, 3, 7, 90
5, 88548, Note_on_c, 3, 46, 0
5, 88548, Note_on_c, 3, 58, 0
5, 88560, Note_on_c, 3, 60, 107
5, 88560, Note_on_c, 3, 48, 106
5, 88848, Note_on_c, 3, 48, 0
5, 88848, Note_on_c, 3, 60, 0
5, 88920, Note_on_c, 3, 60, 125
5, 88920, Note_on_c, 3, 53, 116
5, 89016, Note_on_c, 3, 53, 0
5, 89016, Note_on_c, 3, 60, 0
5, 89940, Note_on_c, 3, 65, 120
5, 89940, Note_on_c, 3, 57, 121
5, 89988, Note_on_c, 3, 57, 0
5, 89988, Note_on_c, 3, 65, 0
5, 90000, Note_on_c, 3, 64, 102
5, 90000, Note_on_c, 3, 57, 101
5, 90276, Note_on_c, 3, 57, 0
5, 90276, Note_on_c, 3, 64, 0
5, 90300, Note_on_c, 3, 64, 109
5, 90300, Note_on_c, 3, 57, 106
5, 90348, Note_on_c, 3, 57, 0
5, 90348, Note_on_c, 3, 64, 0
5, 90360, Note_on_c, 3, 65, 121
5, 90360, Note_on_c, 3, 57, 105
5, 90456, Note_on_c, 3, 57, 0
5, 90456, Note_on_c, 3, 65, 0
5, 90660, Note_on_c, 3, 57, 116
5, 90660, Note_on_c, 3, 53, 112
5, 90708, Note_on_c, 3, 53, 0
5, 90708, Note_on_c, 3, 57, 0
5, 90720, Note_on_c, 3, 55, 117
5, 90720, Note_on_c, 3, 48, 111
5, 90720, Control_c, 3, 7, 97
5, 90740, Control_c, 3, 7, 98
5, 90758, Control_c, 3, 7, 99
5, 90776, Control_c, 3, 7, 100
5, 90794, Control_c, 3, 7, 101
5, 90812, Control_c, 3, 7, 102
5, 90830, Control_c, 3, 7, 103
5, 90848, Control_c, 3, 7, 104
5, 90864, Note_on_c, 3, 48, 0
5, 90864, Note_on_c, 3, 55, 0
5, 90866, Control_c, 3, 7, 105
5, 90884, Control_c, 3, 7, 106
5, 90900, Note_on_c, 3, 55, 110
5, 90900, Note_on_c, 3, 48, 107
5, 90902, Control_c, 3, 7, 107
5, 90920, Control_c, 3, 7, 108
5, 90938, Control_c, 3, 7, 109
5, 90956, Control_c, 3, 7, 110
5, 90974, Control_c, 3, 7, 111
5, 90992, Control_c, 3, 7, 112
5, 90996, Note_on_c, 3, 48, 0
5, 90996, Note_on_c, 3, 55, 0
5, 91010, Control_c, 3, 7, 113
5, 91020, Note_on_c, 3, 55, 108
5, 91020, Note_on_c, 3, 48, 107
5, 91028, Control_c, 3, 7, 114
5, 91046, Control_c, 3, 7, 115
5, 91064, Control_c, 3, 7, 116
5, 91068, Note_on_c, 3, 48, 0
5, 91068, Note_on_c, 3, 55, 0
5, 91080, Note_on_c, 3, 55, 104
5, 91080, Note_on_c, 3, 48, 101
5, 91082, Control_c, 3, 7, 117
5, 92448, Note_on_c, 3, 48, 0
5, 92448, Note_on_c, 3, 55, 0
5, 92520, Note_on_c, 3, 53, 110
5, 92520, Note_on_c, 3, 45, 101
5, 92520, Control_c, 3, 7, 90
5, 92808, Note_on_c, 3, 45, 0
5, 92808, Note_on_c, 3, 53, 0
5, 92880, Note_on_c, 3, 45, 101
5, 92880, Note_on_c, 3, 53, 113
5, 93168, Note_on_c, 3, 53, 0
5, 93168, Note_on_c, 3, 45, 0
5, 93240, Note_on_c, 3, 41, 110
5, 93240, Note_on_c, 3, 53, 121
5, 94596, Note_on_c, 3, 53, 0
5, 94596, Note_on_c, 3, 41, 0
5, 94620, Note_on_c, 3, 53, 104
5, 94620, Note_on_c, 3, 41, 102
5, 94620, Control_c, 3, 7, 126
5, 94668, Note_on_c, 3, 41, 0
5, 94668, Note_on_c, 3, 53, 0
5, 94680, Note_on_c, 3, 53, 109
5, 94680, Note_on_c, 3, 41, 101
5, 94776, Note_on_c, 3, 41, 0
5, 94776, Note_on_c, 3, 53, 0
5, 94776, End_track
6, 0, Start_track
6, 0, MIDI_port, 0
6, 0, Title_t, "Horns"
6, 0, Program_c, 4, 60
6, 0, Control_c, 4, 7, 110
6, 1440, Note_on_c, 4, 67, 107
6, 1584, Note_on_c, 4, 67, 0
6, 1620, Note_on_c, 4, 60, 96
6, 1716, Note_on_c, 4, 60, 0
6, 1740, Note_on_c, 4, 72, 107
6, 1788, Note_on_c, 4, 72, 0
6, 1800, Note_on_c, 4, 67, 109
6, 1944, Note_on_c, 4, 67, 0
6, 1980, Note_on_c, 4, 60, 113
6, 2076, Note_on_c, 4, 60, 0
6, 2100, Note_on_c, 4, 72, 117
6, 2148, Note_on_c, 4, 72, 0
6, 2160, Note_on_c, 4, 67, 127
6, 2208, Note_on_c, 4, 67, 0
6, 2220, Note_on_c, 4, 60, 107
6, 2268, Note_on_c, 4, 60, 0
6, 2280, Note_on_c, 4, 72, 127
6, 2328, Note_on_c, 4, 72, 0
6, 2340, Note_on_c, 4, 67, 127
6, 2388, Note_on_c, 4, 67, 0
6, 2400, Note_on_c, 4, 60, 107
6, 2448, Note_on_c, 4, 60, 0
6, 2460, Note_on_c, 4, 72, 127
6, 2508, Note_on_c, 4, 72, 0
6, 2520, Note_on_c, 4, 67, 127
6, 2568, Note_on_c, 4, 67, 0
6, 2580, Note_on_c, 4, 60, 111
6, 2628, Note_on_c, 4, 60, 0
6, 2640, Note_on_c, 4, 72, 120
6, 2688, Note_on_c, 4, 72, 0
6, 2700, Note_on_c, 4, 69, 118
6, 2748, Note_on_c, 4, 69, 0
6, 2760, Note_on_c, 4, 60, 112
6, 2808, Note_on_c, 4, 60, 0
6, 2820, Note_on_c, 4, 72, 127
6, 2868, Note_on_c, 4, 72, 0
6, 2880, Note_on_c, 4, 69, 116
6, 3108, Note_on_c, 4, 69, 0
6, 5220, Note_on_c, 4, 60, 98
6, 5220, Note_on_c, 4, 48, 102
6, 5222, Control_c, 4, 7, 94
6, 5364, Note_on_c, 4, 48, 0
6, 5364, Note_on_c, 4, 60, 0
6, 5400, Note_on_c, 4, 60, 102
6, 5400, Note_on_c, 4, 53, 107
6, 5688, Note_on_c, 4, 53, 0
6, 5688, Note_on_c, 4, 60, 0
6, 5760, Note_on_c, 4, 65, 102
6, 5760, Note_on_c, 4, 69, 102
6, 5808, Note_on_c, 4, 69, 0
6, 5808, Note_on_c, 4, 65, 0
6, 5820, Note_on_c, 4, 69, 100
6, 5820, Note_on_c, 4, 65, 100
6, 5868, Note_on_c, 4, 65, 0
6, 5868, Note_on_c, 4, 69, 0
6, 5880, Note_on_c, 4, 69, 102
6, 5880, Note_on_c, 4, 65, 100
6, 5928, Note_on_c, 4, 65, 0
6, 5928, Note_on_c, 4, 69, 0
6, 5940, Note_on_c, 4, 69, 100
6, 5940, Note_on_c, 4, 65, 101
6, 5988, Note_on_c, 4, 65, 0
6, 5988, Note_on_c, 4, 69, 0
6, 6000, Note_on_c, 4, 65, 101
6, 6000, Note_on_c, 4, 69, 102
6, 6048, Note_on_c, 4, 69, 0
6, 6048, Note_on_c, 4, 65, 0
6, 6060, Note_on_c, 4, 65, 101
6, 6060, Note_on_c, 4, 69, 103
6, 6108, Note_on_c, 4, 69, 0
6, 6108, Note_on_c, 4, 65, 0
6, 6120, Note_on_c, 4, 65, 100
6, 6120, Note_on_c, 4, 69, 101
6, 6168, Note_on_c, 4, 69, 0
6, 6168, Note_on_c, 4, 65, 0
6, 6180, Note_on_c, 4, 65, 101
6, 6180, Note_on_c, 4, 69, 101
6, 6228, Note_on_c, 4, 69, 0
6, 6228, Note_on_c, 4, 65, 0
6, 6240, Note_on_c, 4, 69, 101
6, 6240, Note_on_c, 4, 65, 100
6, 6288, Note_on_c, 4, 65, 0
6, 6288, Note_on_c, 4, 69, 0
6, 6300, Note_on_c, 4, 65, 101
6, 6300, Note_on_c, 4, 69, 102
6, 6348, Note_on_c, 4, 69, 0
6, 6348, Note_on_c, 4, 65, 0
6, 6360, Note_on_c, 4, 65, 101
6, 6360, Note_on_c, 4, 69, 103
6, 6408, Note_on_c, 4, 69, 0
6, 6408, Note_on_c, 4, 65, 0
6, 6420, Note_on_c, 4, 65, 102
6, 6420, Note_on_c, 4, 69, 104
6, 6468, Note_on_c, 4, 69, 0
6, 6468, Note_on_c, 4, 65, 0
6, 6480, Note_on_c, 4, 65, 106
6, 6480, Note_on_c, 4, 69, 112
6, 6528, Note_on_c, 4, 69, 0
6, 6528, Note_on_c, 4, 65, 0
6, 6540, Note_on_c, 4, 65, 101
6, 6540, Note_on_c, 4, 69, 103
6, 6588, Note_on_c, 4, 69, 0
6, 6588, Note_on_c, 4, 65, 0
6, 6600, Note_on_c, 4, 65, 103
6, 6600, Note_on_c, 4, 69, 104
6, 6648, Note_on_c, 4, 69, 0
6, 6648, Note_on_c, 4, 65, 0
6, 6660, Note_on_c, 4, 69, 109
6, 6660, Note_on_c, 4, 65, 107
6, 6708, Note_on_c, 4, 65, 0
6, 6708, Note_on_c, 4, 69, 0
6, 6720, Note_on_c, 4, 65, 105
6, 6720, Note_on_c, 4, 69, 108
6, 6768, Note_on_c, 4, 69, 0
6, 6768, Note_on_c, 4, 65, 0
6, 6780, Note_on_c, 4, 65, 102
6, 6780, Note_on_c, 4, 69, 109
6, 6828, Note_on_c, 4, 69, 0
6, 6828, Note_on_c, 4, 65, 0
6, 6840, Note_on_c, 4, 70, 109
6, 6840, Note_on_c, 4, 65, 104
6, 6888, Note_on_c, 4, 65, 0
6, 6888, Note_on_c, 4, 70, 0
6, 6900, Note_on_c, 4, 70, 113
6, 6900, Note_on_c, 4, 65, 108
6, 6948, Note_on_c, 4, 65, 0
6, 6948, Note_on_c, 4, 70, 0
6, 6960, Note_on_c, 4, 70, 108
6, 6960, Note_on_c, 4, 65, 100
6, 7008, Note_on_c, 4, 65, 0
6, 7008, Note_on_c, 4, 70, 0
6, 7020, Note_on_c, 4, 70, 106
6, 7020, Note_on_c, 4, 65, 101
6, 7068, Note_on_c, 4, 65, 0
6, 7068, Note_on_c, 4, 70, 0
6, 7080, Note_on_c, 4, 70, 107
6, 7080, Note_on_c, 4, 65, 100
6, 7128, Note_on_c, 4, 65, 0
6, 7128, Note_on_c, 4, 70, 0
6, 7140, Note_on_c, 4, 70, 114
6, 7140, Note_on_c, 4, 65, 103
6, 7188, Note_on_c, 4, 65, 0
6, 7188, Note_on_c, 4, 70, 0
6, 7200, Note_on_c, 4, 70, 103
6, 7200, Note_on_c, 4, 67, 106
6, 7202, Control_c, 4, 7, 96
6, 7240, Control_c, 4, 7, 97
6, 7248, Note_on_c, 4, 67, 0
6, 7248, Note_on_c, 4, 70, 0
6, 7260, Note_on_c, 4, 67, 102
6, 7260, Note_on_c, 4, 70, 102
6, 7276, Control_c, 4, 7, 98
6, 7308, Note_on_c, 4, 70, 0
6, 7308, Note_on_c, 4, 67, 0
6, 7312, Control_c, 4, 7, 99
6, 7320, Note_on_c, 4, 67, 102
6, 7320, Note_on_c, 4, 70, 105
6, 7348, Control_c, 4, 7, 100
6, 7368, Note_on_c, 4, 70, 0
6, 7368, Note_on_c, 4, 67, 0
6, 7380, Note_on_c, 4, 70, 105
6, 7380, Note_on_c, 4, 67, 104
6, 7384, Control_c, 4, 7, 101
6, 7420, Control_c, 4, 7, 102
6, 7428, Note_on_c, 4, 67, 0
6, 7428, Note_on_c, 4, 70, 0
6, 7440, Note_on_c, 4, 67, 105
6, 7440, Note_on_c, 4, 70, 109
6, 7456, Control_c, 4, 7, 103
6, 7488, Note_on_c, 4, 70, 0
6, 7488, Note_on_c, 4, 67, 0
6, 7492, Control_c, 4, 7, 104
6, 7500, Note_on_c, 4, 70, 105
6, 7500, Note_on_c, 4, 67, 102
6, 7528, Control_c, 4, 7, 105
6, 7548, Note_on_c, 4, 67, 0
6, 7548, Note_on_c, 4, 70, 0
6, 7560, Note_on_c, 4, 69, 109
6, 7560, Note_on_c, 4, 65, 99
6, 7564, Control_c, 4, 7, 106
6, 7600, Control_c, 4, 7, 107
6, 7608, Note_on_c, 4, 65, 0
6, 7608, Note_on_c, 4, 69, 0
6, 7620, Note_on_c, 4, 69, 106
6, 7620, Note_on_c, 4, 65, 100
6, 7636, Control_c, 4, 7, 108
6, 7668, Note_on_c, 4, 65, 0
6, 7668, Note_on_c, 4, 69, 0
6, 7672, Control_c, 4, 7, 109
6, 7680, Note_on_c, 4, 69, 110
6, 7680, Note_on_c, 4, 65, 104
6, 7708, Control_c, 4, 7, 110
6, 7728, Note_on_c, 4, 65, 0
6, 7728, Note_on_c, 4, 69, 0
6, 7740, Note_on_c, 4, 69, 107
6, 7740, Note_on_c, 4, 65, 101
6, 7744, Control_c, 4, 7, 111
6, 7780, Control_c, 4, 7, 112
6, 7788, Note_on_c, 4, 65, 0
6, 7788, Note_on_c, 4, 69, 0
6, 7800, Note_on_c, 4, 65, 99
6, 7800, Note_on_c, 4, 69, 111
6, 7816, Control_c, 4, 7, 113
6, 7848, Note_on_c, 4, 69, 0
6, 7848, Note_on_c, 4, 65, 0
6, 7852, Control_c, 4, 7, 114
6, 7860, Note_on_c, 4, 69, 117
6, 7860, Note_on_c, 4, 65, 105
6, 7888, Control_c, 4, 7, 115
6, 7908, Note_on_c, 4, 65, 0
6, 7908, Note_on_c, 4, 69, 0
6, 7920, Note_on_c, 4, 67, 120
6, 7920, Note_on_c, 4, 65, 102
6, 7924, Control_c, 4, 7, 116
6, 7960, Control_c, 4, 7, 117
6, 7968, Note_on_c, 4, 65, 0
6, 7968, Note_on_c, 4, 67, 0
6, 7980, Note_on_c, 4, 67, 109
6, 7980, Note_on_c, 4, 65, 103
6, 7996, Control_c, 4, 7, 118
6, 8028, Note_on_c, 4, 65, 0
6, 8028, Note_on_c, 4, 67, 0
6, 8032, Control_c, 4, 7, 119
6, 8040, Note_on_c, 4, 67, 114
6, 8040, Note_on_c, 4, 65, 107
6, 8068, Control_c, 4, 7, 120
6, 8088, Note_on_c, 4, 65, 0
6, 8088, Note_on_c, 4, 67, 0
6, 8100, Note_on_c, 4, 67, 103
6, 8100, Note_on_c, 4, 60, 75
6, 8104, Control_c, 4, 7, 121
6, 8140, Control_c, 4, 7, 122
6, 8148, Note_on_c, 4, 60, 0
6, 8148, Note_on_c, 4, 67, 0
6, 8160, Note_on_c, 4, 67, 111
6, 8160, Note_on_c, 4, 60, 107
6, 8176, Control_c, 4, 7, 123
6, 8208, Note_on_c, 4, 60, 0
6, 8208, Note_on_c, 4, 67, 0
6, 8212, Control_c, 4, 7, 124
6, 8220, Note_on_c, 4, 67, 116
6, 8220, Note_on_c, 4, 60, 112
6, 8248, Control_c, 4, 7, 125
6, 8268, Note_on_c, 4, 60, 0
6, 8268, Note_on_c, 4, 67, 0
6, 8280, Note_on_c, 4, 65, 116
6, 8280, Note_on_c, 4, 69, 103
6, 8284, Control_c, 4, 7, 126
6, 8320, Control_c, 4, 7, 127
6, 8328, Note_on_c, 4, 69, 0
6, 8328, Note_on_c, 4, 65, 0
6, 8340, Note_on_c, 4, 69, 109
6, 8340, Note_on_c, 4, 65, 112
6, 8388, Note_on_c, 4, 65, 0
6, 8388, Note_on_c, 4, 69, 0
6, 8400, Note_on_c, 4, 69, 107
6, 8400, Note_on_c, 4, 65, 109
6, 8448, Note_on_c, 4, 65, 0
6, 8448, Note_on_c, 4, 69, 0
6, 8460, Note_on_c, 4, 69, 102
6, 8460, Note_on_c, 4, 65, 104
6, 8508, Note_on_c, 4, 65, 0
6, 8508, Note_on_c, 4, 69, 0
6, 8520, Note_on_c, 4, 65, 102
6, 8520, Note_on_c, 4, 69, 104
6, 8568, Note_on_c, 4, 69, 0
6, 8568, Note_on_c, 4, 65, 0
6, 8580, Note_on_c, 4, 65, 108
6, 8580, Note_on_c, 4, 69, 105
6, 8628, Note_on_c, 4, 69, 0
6, 8628, Note_on_c, 4, 65, 0
6, 8640, Note_on_c, 4, 69, 50
6, 8640, Note_on_c, 4, 57, 50
6, 8784, Note_on_c, 4, 57, 0
6, 8784, Note_on_c, 4, 69, 0
6, 8820, Note_on_c, 4, 65, 103
6, 8820, Note_on_c, 4, 53, 102
6, 8916, Note_on_c, 4, 53, 0
6, 8916, Note_on_c, 4, 65, 0
6, 8940, Note_on_c, 4, 72, 101
6, 8940, Note_on_c, 4, 60, 99
6, 8988, Note_on_c, 4, 60, 0
6, 8988, Note_on_c, 4, 72, 0
6, 9000, Note_on_c, 4, 69, 99
6, 9000, Note_on_c, 4, 57, 97
6, 9144, Note_on_c, 4, 57, 0
6, 9144, Note_on_c, 4, 69, 0
6, 9180, Note_on_c, 4, 65, 104
6, 9180, Note_on_c, 4, 53, 92
6, 9276, Note_on_c, 4, 53, 0
6, 9276, Note_on_c, 4, 65, 0
6, 9300, Note_on_c, 4, 60, 99
6, 9300, Note_on_c, 4, 48, 99
6, 9348, Note_on_c, 4, 48, 0
6, 9348, Note_on_c, 4, 60, 0
6, 9360, Note_on_c, 4, 65, 96
6, 9360, Note_on_c, 4, 53, 92
6, 9456, Note_on_c, 4, 53, 0
6, 9456, Note_on_c, 4, 65, 0
6, 9480, Note_on_c, 4, 57, 98
6, 9480, Note_on_c, 4, 69, 93
6, 9528, Note_on_c, 4, 69, 0
6, 9528, Note_on_c, 4, 57, 0
6, 9540, Note_on_c, 4, 60, 99
6, 9540, Note_on_c, 4, 72, 99
6, 9636, Note_on_c, 4, 72, 0
6, 9636, Note_on_c, 4, 60, 0
6, 9660, Note_on_c, 4, 69, 102
6, 9660, Note_on_c, 4, 57, 101
6, 9708, Note_on_c, 4, 57, 0
6, 9708, Note_on_c, 4, 69, 0
6, 9720, Note_on_c, 4, 53, 98
6, 9720, Note_on_c, 4, 70, 98
6, 9864, Note_on_c, 4, 70, 0
6, 9864, Note_on_c, 4, 53, 0
6, 9900, Note_on_c, 4, 53, 105
6, 9900, Note_on_c, 4, 70, 101
6, 9996, Note_on_c, 4, 70, 0
6, 9996, Note_on_c, 4, 53, 0
6, 10020, Note_on_c, 4, 48, 107
6, 10020, Note_on_c, 4, 67, 114
6, 10068, Note_on_c, 4, 67, 0
6, 10068, Note_on_c, 4, 48, 0
6, 10080, Note_on_c, 4, 48, 101
6, 10080, Note_on_c, 4, 70, 104
6, 10224, Note_on_c, 4, 70, 0
6, 10260, Note_on_c, 4, 67, 114
6, 10356, Note_on_c, 4, 67, 0
6, 10356, Note_on_c, 4, 48, 0
6, 10380, Note_on_c, 4, 72, 100
6, 10380, Note_on_c, 4, 48, 100
6, 10428, Note_on_c, 4, 48, 0
6, 10428, Note_on_c, 4, 72, 0
6, 10440, Note_on_c, 4, 69, 102
6, 10440, Note_on_c, 4, 53, 94
6, 10584, Note_on_c, 4, 53, 0
6, 10584, Note_on_c, 4, 69, 0
6, 10620, Note_on_c, 4, 65, 100
6, 10620, Note_on_c, 4, 53, 99
6, 10716, Note_on_c, 4, 53, 0
6, 10716, Note_on_c, 4, 65, 0
6, 10740, Note_on_c, 4, 65, 108
6, 10740, Note_on_c, 4, 69, 103
6, 10788, Note_on_c, 4, 69, 0
6, 10788, Note_on_c, 4, 65, 0
6, 10800, Note_on_c, 4, 65, 105
6, 10800, Note_on_c, 4, 67, 108
6, 10896, Note_on_c, 4, 67, 0
6, 10896, Note_on_c, 4, 65, 0
6, 10920, Note_on_c, 4, 65, 103
6, 10920, Note_on_c, 4, 67, 105
6, 10968, Note_on_c, 4, 67, 0
6, 10968, Note_on_c, 4, 65, 0
6, 10980, Note_on_c, 4, 67, 109
6, 10980, Note_on_c, 4, 60, 103
6, 11076, Note_on_c, 4, 60, 0
6, 11076, Note_on_c, 4, 67, 0
6, 11100, Note_on_c, 4, 60, 103
6, 11100, Note_on_c, 4, 67, 100
6, 11148, Note_on_c, 4, 67, 0
6, 11148, Note_on_c, 4, 60, 0
6, 11160, Note_on_c, 4, 65, 99
6, 11160, Note_on_c, 4, 57, 102
6, 11208, Note_on_c, 4, 57, 0
6, 11208, Note_on_c, 4, 65, 0
6, 11820, Note_on_c, 4, 60, 98
6, 11820, Note_on_c, 4, 48, 99
6, 11868, Note_on_c, 4, 48, 0
6, 11868, Note_on_c, 4, 60, 0
6, 11880, Note_on_c, 4, 60, 98
6, 11880, Note_on_c, 4, 48, 96
6, 12384, Note_on_c, 4, 48, 0
6, 12384, Note_on_c, 4, 60, 0
6, 12420, Note_on_c, 4, 60, 99
6, 12420, Note_on_c, 4, 48, 96
6, 12516, Note_on_c, 4, 48, 0
6, 12516, Note_on_c, 4, 60, 0
6, 12540, Note_on_c, 4, 48, 99
6, 12540, Note_on_c, 4, 60, 101
6, 12588, Note_on_c, 4, 60, 0
6, 12588, Note_on_c, 4, 48, 0
6, 13260, Note_on_c, 4, 60, 104
6, 13260, Note_on_c, 4, 48, 104
6, 13308, Note_on_c, 4, 48, 0
6, 13308, Note_on_c, 4, 60, 0
6, 13320, Note_on_c, 4, 60, 102
6, 13320, Note_on_c, 4, 48, 100
6, 13824, Note_on_c, 4, 48, 0
6, 13824, Note_on_c, 4, 60, 0
6, 13860, Note_on_c, 4, 60, 100
6, 13860, Note_on_c, 4, 48, 99
6, 13956, Note_on_c, 4, 48, 0
6, 13956, Note_on_c, 4, 60, 0
6, 13980, Note_on_c, 4, 60, 103
6, 13980, Note_on_c, 4, 48, 99
6, 14028, Note_on_c, 4, 48, 0
6, 14028, Note_on_c, 4, 60, 0
6, 14040, Note_on_c, 4, 60, 98
6, 14040, Note_on_c, 4, 48, 98
6, 14184, Note_on_c, 4, 48, 0
6, 14184, Note_on_c, 4, 60, 0
6, 14220, Note_on_c, 4, 67, 103
6, 14316, Note_on_c, 4, 67, 0
6, 14340, Note_on_c, 4, 67, 105
6, 14388, Note_on_c, 4, 67, 0
6, 14400, Note_on_c, 4, 67, 103
6, 14544, Note_on_c, 4, 67, 0
6, 14580, Note_on_c, 4, 67, 106
6, 14676, Note_on_c, 4, 67, 0
6, 14700, Note_on_c, 4, 67, 105
6, 14748, Note_on_c, 4, 67, 0
6, 14760, Note_on_c, 4, 67, 105
6, 15036, Note_on_c, 4, 67, 0
6, 15060, Note_on_c, 4, 67, 98
6, 15084, Note_on_c, 4, 67, 0
6, 15090, Note_on_c, 4, 67, 103
6, 15114, Note_on_c, 4, 67, 0
6, 15120, Note_on_c, 4, 67, 105
6, 15216, Note_on_c, 4, 67, 0
6, 15240, Note_on_c, 4, 67, 109
6, 15288, Note_on_c, 4, 67, 0
6, 15300, Note_on_c, 4, 67, 112
6, 15396, Note_on_c, 4, 67, 0
6, 15420, Note_on_c, 4, 67, 110
6, 15468, Note_on_c, 4, 67, 0
6, 15480, Note_on_c, 4, 67, 102
6, 15756, Note_on_c, 4, 67, 0
6, 15780, Note_on_c, 4, 67, 103
6, 15804, Note_on_c, 4, 67, 0
6, 15810, Note_on_c, 4, 67, 108
6, 15834, Note_on_c, 4, 67, 0
6, 15840, Note_on_c, 4, 67, 103
6, 15936, Note_on_c, 4, 67, 0
6, 15960, Note_on_c, 4, 67, 106
6, 16008, Note_on_c, 4, 67, 0
6, 16020, Note_on_c, 4, 67, 106
6, 16116, Note_on_c, 4, 67, 0
6, 16140, Note_on_c, 4, 67, 110
6, 16188, Note_on_c, 4, 67, 0
6, 16200, Note_on_c, 4, 67, 109
6, 16296, Note_on_c, 4, 67, 0
6, 16320, Note_on_c, 4, 67, 111
6, 16368, Note_on_c, 4, 67, 0
6, 16380, Note_on_c, 4, 67, 107
6, 16476, Note_on_c, 4, 67, 0
6, 16500, Note_on_c, 4, 67, 107
6, 16524, Note_on_c, 4, 67, 0
6, 16530, Note_on_c, 4, 67, 106
6, 16554, Note_on_c, 4, 67, 0
6, 16560, Note_on_c, 4, 67, 111
6, 16656, Note_on_c, 4, 67, 0
6, 16680, Note_on_c, 4, 67, 114
6, 16728, Note_on_c, 4, 67, 0
6, 16740, Note_on_c, 4, 67, 113
6, 16836, Note_on_c, 4, 67, 0
6, 16860, Note_on_c, 4, 67, 110
6, 16908, Note_on_c, 4, 67, 0
6, 16920, Note_on_c, 4, 67, 106
6, 17016, Note_on_c, 4, 67, 0
6, 17040, Note_on_c, 4, 67, 107
6, 17088, Note_on_c, 4, 67, 0
6, 17100, Note_on_c, 4, 67, 105
6, 17196, Note_on_c, 4, 67, 0
6, 17220, Note_on_c, 4, 67, 101
6, 17244, Note_on_c, 4, 67, 0
6, 17250, Note_on_c, 4, 67, 106
6, 17274, Note_on_c, 4, 67, 0
6, 17280, Note_on_c, 4, 67, 111
6, 17376, Note_on_c, 4, 67, 0
6, 17400, Note_on_c, 4, 67, 109
6, 17448, Note_on_c, 4, 67, 0
6, 17460, Note_on_c, 4, 67, 110
6, 17556, Note_on_c, 4, 67, 0
6, 17580, Note_on_c, 4, 67, 117
6, 17628, Note_on_c, 4, 67, 0
6, 17640, Note_on_c, 4, 60, 100
6, 17640, Note_on_c, 4, 48, 101
6, 17736, Note_on_c, 4, 48, 0
6, 17736, Note_on_c, 4, 60, 0
6, 18120, Note_on_c, 4, 60, 103
6, 18120, Note_on_c, 4, 48, 102
6, 18168, Note_on_c, 4, 48, 0
6, 18168, Note_on_c, 4, 60, 0
6, 18180, Note_on_c, 4, 67, 100
6, 18276, Note_on_c, 4, 67, 0
6, 18300, Note_on_c, 4, 67, 102
6, 18348, Note_on_c, 4, 67, 0
6, 18360, Note_on_c, 4, 60, 108
6, 18360, Note_on_c, 4, 48, 110
6, 18408, Note_on_c, 4, 48, 0
6, 18408, Note_on_c, 4, 60, 0
6, 18840, Note_on_c, 4, 60, 123
6, 18840, Note_on_c, 4, 48, 102
6, 18888, Note_on_c, 4, 48, 0
6, 18888, Note_on_c, 4, 60, 0
6, 18900, Note_on_c, 4, 67, 118
6, 18996, Note_on_c, 4, 67, 0
6, 19020, Note_on_c, 4, 67, 127
6, 19068, Note_on_c, 4, 67, 0
6, 19080, Note_on_c, 4, 60, 98
6, 19080, Note_on_c, 4, 48, 102
6, 19224, Note_on_c, 4, 48, 0
6, 19224, Note_on_c, 4, 60, 0
6, 19260, Note_on_c, 4, 60, 101
6, 19260, Note_on_c, 4, 48, 100
6, 19308, Note_on_c, 4, 48, 0
6, 19308, Note_on_c, 4, 60, 0
6, 19380, Note_on_c, 4, 60, 99
6, 19380, Note_on_c, 4, 48, 95
6, 19428, Note_on_c, 4, 48, 0
6, 19428, Note_on_c, 4, 60, 0
6, 19440, Note_on_c, 4, 69, 97
6, 19440, Note_on_c, 4, 57, 99
6, 19584, Note_on_c, 4, 57, 0
6, 19584, Note_on_c, 4, 69, 0
6, 19620, Note_on_c, 4, 69, 102
6, 19620, Note_on_c, 4, 57, 100
6, 19668, Note_on_c, 4, 57, 0
6, 19668, Note_on_c, 4, 69, 0
6, 19740, Note_on_c, 4, 69, 101
6, 19740, Note_on_c, 4, 57, 105
6, 19788, Note_on_c, 4, 57, 0
6, 19788, Note_on_c, 4, 69, 0
6, 19800, Note_on_c, 4, 67, 107
6, 19848, Note_on_c, 4, 67, 0
6, 21420, Note_on_c, 4, 48, 99
6, 21960, Note_on_c, 4, 67, 104
6, 22008, Note_on_c, 4, 67, 0
6, 22020, Note_on_c, 4, 60, 98
6, 22068, Note_on_c, 4, 60, 0
6, 22080, Note_on_c, 4, 72, 123
6, 22128, Note_on_c, 4, 72, 0
6, 22140, Note_on_c, 4, 67, 110
6, 22188, Note_on_c, 4, 67, 0
6, 22200, Note_on_c, 4, 60, 108
6, 22248, Note_on_c, 4, 60, 0
6, 22260, Note_on_c, 4, 72, 116
6, 22308, Note_on_c, 4, 72, 0
6, 22320, Note_on_c, 4, 67, 116
6, 22368, Note_on_c, 4, 67, 0
6, 22380, Note_on_c, 4, 60, 104
6, 22428, Note_on_c, 4, 60, 0
6, 22440, Note_on_c, 4, 72, 127
6, 22488, Note_on_c, 4, 72, 0
6, 22500, Note_on_c, 4, 67, 118
6, 22548, Note_on_c, 4, 67, 0
6, 22560, Note_on_c, 4, 60, 110
6, 22608, Note_on_c, 4, 60, 0
6, 22608, Note_on_c, 4, 48, 0
6, 22620, Note_on_c, 4, 72, 118
6, 22668, Note_on_c, 4, 72, 0
6, 22680, Note_on_c, 4, 53, 101
6, 22680, Note_on_c, 4, 69, 98
6, 22776, Note_on_c, 4, 69, 0
6, 22776, Note_on_c, 4, 53, 0
6, 25020, Note_on_c, 4, 60, 97
6, 25020, Note_on_c, 4, 48, 98
6, 25164, Note_on_c, 4, 48, 0
6, 25164, Note_on_c, 4, 60, 0
6, 25200, Note_on_c, 4, 60, 101
6, 25200, Note_on_c, 4, 53, 103
6, 25488, Note_on_c, 4, 53, 0
6, 25488, Note_on_c, 4, 60, 0
6, 25560, Note_on_c, 4, 65, 101
6, 25560, Note_on_c, 4, 69, 101
6, 25608, Note_on_c, 4, 69, 0
6, 25608, Note_on_c, 4, 65, 0
6, 25620, Note_on_c, 4, 65, 101
6, 25620, Note_on_c, 4, 69, 101
6, 25668, Note_on_c, 4, 69, 0
6, 25668, Note_on_c, 4, 65, 0
6, 25680, Note_on_c, 4, 65, 100
6, 25680, Note_on_c, 4, 69, 103
6, 25728, Note_on_c, 4, 69, 0
6, 25728, Note_on_c, 4, 65, 0
6, 25740, Note_on_c, 4, 65, 109
6, 25740, Note_on_c, 4, 69, 112
6, 25788, Note_on_c, 4, 69, 0
6, 25788, Note_on_c, 4, 65, 0
6, 25800, Note_on_c, 4, 65, 104
6, 25800, Note_on_c, 4, 69, 105
6, 25848, Note_on_c, 4, 69, 0
6, 25848, Note_on_c, 4, 65, 0
6, 25860, Note_on_c, 4, 69, 105
6, 25860, Note_on_c, 4, 65, 105
6, 25908, Note_on_c, 4, 65, 0
6, 25908, Note_on_c, 4, 69, 0
6, 25920, Note_on_c, 4, 65, 113
6, 25920, Note_on_c, 4, 69, 111
6, 25968, Note_on_c, 4, 69, 0
6, 25968, Note_on_c, 4, 65, 0
6, 25980, Note_on_c, 4, 65, 116
6, 25980, Note_on_c, 4, 69, 110
6, 26028, Note_on_c, 4, 69, 0
6, 26028, Note_on_c, 4, 65, 0
6, 26040, Note_on_c, 4, 65, 104
6, 26040, Note_on_c, 4, 69, 109
6, 26088, Note_on_c, 4, 69, 0
6, 26088, Note_on_c, 4, 65, 0
6, 26100, Note_on_c, 4, 69, 117
6, 26100, Note_on_c, 4, 65, 110
6, 26148, Note_on_c, 4, 65, 0
6, 26148, Note_on_c, 4, 69, 0
6, 26160, Note_on_c, 4, 69, 103
6, 26160, Note_on_c, 4, 65, 103
6, 26208, Note_on_c, 4, 65, 0
6, 26208, Note_on_c, 4, 69, 0
6, 26220, Note_on_c, 4, 65, 107
6, 26220, Note_on_c, 4, 69, 112
6, 26268, Note_on_c, 4, 69, 0
6, 26268, Note_on_c, 4, 65, 0
6, 26280, Note_on_c, 4, 65, 111
6, 26280, Note_on_c, 4, 69, 114
6, 26328, Note_on_c, 4, 69, 0
6, 26328, Note_on_c, 4, 65, 0
6, 26340, Note_on_c, 4, 65, 107
6, 26340, Note_on_c, 4, 69, 109
6, 26388, Note_on_c, 4, 69, 0
6, 26388, Note_on_c, 4, 65, 0
6, 26400, Note_on_c, 4, 65, 107
6, 26400, Note_on_c, 4, 69, 109
6, 26448, Note_on_c, 4, 69, 0
6, 26448, Note_on_c, 4, 65, 0
6, 26460, Note_on_c, 4, 65, 110
6, 26460, Note_on_c, 4, 69, 114
6, 26508, Note_on_c, 4, 69, 0
6, 26508, Note_on_c, 4, 65, 0
6, 26520, Note_on_c, 4, 65, 107
6, 26520, Note_on_c, 4, 69, 110
6, 26568, Note_on_c, 4, 69, 0
6, 26568, Note_on_c, 4, 65, 0
6, 26580, Note_on_c, 4, 65, 107
6, 26580, Note_on_c, 4, 69, 108
6, 26628, Note_on_c, 4, 69, 0
6, 26628, Note_on_c, 4, 65, 0
6, 26640, Note_on_c, 4, 65, 118
6, 26640, Note_on_c, 4, 69, 121
6, 26688, Note_on_c, 4, 69, 0
6, 26688, Note_on_c, 4, 65, 0
6, 26700, Note_on_c, 4, 65, 109
6, 26700, Note_on_c, 4, 69, 110
6, 26748, Note_on_c, 4, 69, 0
6, 26748, Note_on_c, 4, 65, 0
6, 26760, Note_on_c, 4, 65, 109
6, 26760, Note_on_c, 4, 69, 111
6, 26808, Note_on_c, 4, 69, 0
6, 26808, Note_on_c, 4, 65, 0
6, 26820, Note_on_c, 4, 65, 118
6, 26820, Note_on_c, 4, 69, 118
6, 26868, Note_on_c, 4, 69, 0
6, 26868, Note_on_c, 4, 65, 0
6, 26880, Note_on_c, 4, 65, 106
6, 26880, Note_on_c, 4, 69, 108
6, 26928, Note_on_c, 4, 69, 0
6, 26928, Note_on_c, 4, 65, 0
6, 26940, Note_on_c, 4, 65, 105
6, 26940, Note_on_c, 4, 69, 105
6, 26988, Note_on_c, 4, 69, 0
6, 26988, Note_on_c, 4, 65, 0
6, 27000, Note_on_c, 4, 65, 112
6, 27000, Note_on_c, 4, 69, 104
6, 27048, Note_on_c, 4, 69, 0
6, 27048, Note_on_c, 4, 65, 0
6, 27060, Note_on_c, 4, 65, 105
6, 27060, Note_on_c, 4, 69, 101
6, 27108, Note_on_c, 4, 69, 0
6, 27108, Note_on_c, 4, 65, 0
6, 27120, Note_on_c, 4, 65, 103
6, 27120, Note_on_c, 4, 69, 101
6, 27168, Note_on_c, 4, 69, 0
6, 27168, Note_on_c, 4, 65, 0
6, 27180, Note_on_c, 4, 65, 102
6, 27180, Note_on_c, 4, 69, 103
6, 27228, Note_on_c, 4, 69, 0
6, 27228, Note_on_c, 4, 65, 0
6, 27240, Note_on_c, 4, 69, 104
6, 27240, Note_on_c, 4, 65, 105
6, 27288, Note_on_c, 4, 65, 0
6, 27288, Note_on_c, 4, 69, 0
6, 27300, Note_on_c, 4, 65, 103
6, 27300, Note_on_c, 4, 69, 102
6, 27348, Note_on_c, 4, 69, 0
6, 27348, Note_on_c, 4, 65, 0
6, 27360, Note_on_c, 4, 69, 105
6, 27360, Note_on_c, 4, 65, 105
6, 27408, Note_on_c, 4, 65, 0
6, 27408, Note_on_c, 4, 69, 0
6, 27420, Note_on_c, 4, 65, 102
6, 27420, Note_on_c, 4, 69, 102
6, 27468, Note_on_c, 4, 69, 0
6, 27468, Note_on_c, 4, 65, 0
6, 27480, Note_on_c, 4, 65, 102
6, 27480, Note_on_c, 4, 69, 105
6, 27528, Note_on_c, 4, 69, 0
6, 27528, Note_on_c, 4, 65, 0
6, 27540, Note_on_c, 4, 69, 104
6, 27540, Note_on_c, 4, 65, 103
6, 27588, Note_on_c, 4, 65, 0
6, 27588, Note_on_c, 4, 69, 0
6, 27600, Note_on_c, 4, 69, 114
6, 27600, Note_on_c, 4, 65, 109
6, 27648, Note_on_c, 4, 65, 0
6, 27648, Note_on_c, 4, 69, 0
6, 27660, Note_on_c, 4, 65, 112
6, 27660, Note_on_c, 4, 53, 100
6, 27708, Note_on_c, 4, 53, 0
6, 27708, Note_on_c, 4, 65, 0
6, 27720, Note_on_c, 4, 65, 101
6, 27720, Note_on_c, 4, 53, 103
6, 27816, Note_on_c, 4, 53, 0
6, 27816, Note_on_c, 4, 65, 0
6, 27840, Note_on_c, 4, 53, 102
6, 27840, Note_on_c, 4, 65, 103
6, 27888, Note_on_c, 4, 65, 0
6, 27888, Note_on_c, 4, 53, 0
6, 27900, Note_on_c, 4, 65, 101
6, 27900, Note_on_c, 4, 53, 103
6, 27996, Note_on_c, 4, 53, 0
6, 27996, Note_on_c, 4, 65, 0
6, 28020, Note_on_c, 4, 65, 101
6, 28020, Note_on_c, 4, 53, 104
6, 28068, Note_on_c, 4, 53, 0
6, 28068, Note_on_c, 4, 65, 0
6, 28080, Note_on_c, 4, 53, 98
6, 28080, Note_on_c, 4, 65, 98
6, 28176, Note_on_c, 4, 65, 0
6, 28176, Note_on_c, 4, 53, 0
6, 28200, Note_on_c, 4, 65, 102
6, 28200, Note_on_c, 4, 53, 100
6, 28248, Note_on_c, 4, 53, 0
6, 28248, Note_on_c, 4, 65, 0
6, 28260, Note_on_c, 4, 65, 100
6, 28260, Note_on_c, 4, 53, 98
6, 28356, Note_on_c, 4, 53, 0
6, 28356, Note_on_c, 4, 65, 0
6, 28380, Note_on_c, 4, 65, 98
6, 28380, Note_on_c, 4, 53, 101
6, 28428, Note_on_c, 4, 53, 0
6, 28428, Note_on_c, 4, 65, 0
6, 28440, Note_on_c, 4, 65, 99
6, 28440, Note_on_c, 4, 53, 99
6, 28536, Note_on_c, 4, 53, 0
6, 28536, Note_on_c, 4, 65, 0
6, 29100, Note_on_c, 4, 65, 98
6, 29100, Note_on_c, 4, 53, 99
6, 29148, Note_on_c, 4, 53, 0
6, 29148, Note_on_c, 4, 65, 0
6, 29160, Note_on_c, 4, 65, 103
6, 29160, Note_on_c, 4, 53, 104
6, 29256, Note_on_c, 4, 53, 0
6, 29256, Note_on_c, 4, 65, 0
6, 29820, Note_on_c, 4, 53, 100
6, 29820, Note_on_c, 4, 65, 97
6, 29868, Note_on_c, 4, 65, 0
6, 29868, Note_on_c, 4, 53, 0
6, 29880, Note_on_c, 4, 65, 98
6, 29880, Note_on_c, 4, 53, 100
6, 29928, Note_on_c, 4, 53, 0
6, 29928, Note_on_c, 4, 65, 0
6, 30060, Note_on_c, 4, 53, 98
6, 30060, Note_on_c, 4, 65, 100
6, 30156, Note_on_c, 4, 65, 0
6, 30156, Note_on_c, 4, 53, 0
6, 30180, Note_on_c, 4, 65, 98
6, 30180, Note_on_c, 4, 53, 99
6, 30228, Note_on_c, 4, 53, 0
6, 30228, Note_on_c, 4, 65, 0
6, 30240, Note_on_c, 4, 65, 98
6, 30240, Note_on_c, 4, 53, 102
6, 30336, Note_on_c, 4, 53, 0
6, 30336, Note_on_c, 4, 65, 0
6, 30360, Note_on_c, 4, 65, 99
6, 30360, Note_on_c, 4, 53, 98
6, 30408, Note_on_c, 4, 53, 0
6, 30408, Note_on_c, 4, 65, 0
6, 30420, Note_on_c, 4, 65, 101
6, 30420, Note_on_c, 4, 53, 99
6, 30516, Note_on_c, 4, 53, 0
6, 30516, Note_on_c, 4, 65, 0
6, 30540, Note_on_c, 4, 65, 99
6, 30540, Note_on_c, 4, 53, 101
6, 30588, Note_on_c, 4, 53, 0
6, 30588, Note_on_c, 4, 65, 0
6, 30600, Note_on_c, 4, 65, 100
6, 30600, Note_on_c, 4, 53, 102
6, 30696, Note_on_c, 4, 53, 0
6, 30696, Note_on_c, 4, 65, 0
6, 30900, Note_on_c, 4, 70, 100
6, 30948, Note_on_c, 4, 70, 0
6, 30960, Note_on_c, 4, 70, 107
6, 31056, Note_on_c, 4, 70, 0
6, 31260, Note_on_c, 4, 70, 105
6, 31308, Note_on_c, 4, 70, 0
6, 31320, Note_on_c, 4, 70, 120
6, 31416, Note_on_c, 4, 70, 0
6, 31620, Note_on_c, 4, 70, 108
6, 31668, Note_on_c, 4, 70, 0
6, 31680, Note_on_c, 4, 65, 98
6, 31680, Note_on_c, 4, 53, 98
6, 31776, Note_on_c, 4, 53, 0
6, 31776, Note_on_c, 4, 65, 0
6, 31980, Note_on_c, 4, 65, 102
6, 31980, Note_on_c, 4, 53, 95
6, 32028, Note_on_c, 4, 53, 0
6, 32028, Note_on_c, 4, 65, 0
6, 32040, Note_on_c, 4, 53, 101
6, 32040, Note_on_c, 4, 65, 97
6, 32136, Note_on_c, 4, 65, 0
6, 32136, Note_on_c, 4, 53, 0
6, 32340, Note_on_c, 4, 70, 102
6, 32388, Note_on_c, 4, 70, 0
6, 32400, Note_on_c, 4, 70, 127
6, 32496, Note_on_c, 4, 70, 0
6, 32700, Note_on_c, 4, 70, 103
6, 32748, Note_on_c, 4, 70, 0
6, 32760, Note_on_c, 4, 70, 108
6, 32856, Note_on_c, 4, 70, 0
6, 33060, Note_on_c, 4, 70, 117
6, 33108, Note_on_c, 4, 70, 0
6, 33120, Note_on_c, 4, 70, 123
6, 33408, Note_on_c, 4, 70, 0
6, 33480, Note_on_c, 4, 65, 92
6, 33480, Note_on_c, 4, 53, 82
6, 33576, Note_on_c, 4, 53, 0
6, 33576, Note_on_c, 4, 65, 0
6, 35100, Note_on_c, 4, 67, 112
6, 35244, Note_on_c, 4, 67, 0
6, 35280, Note_on_c, 4, 67, 103
6, 35784, Note_on_c, 4, 67, 0
6, 35940, Note_on_c, 4, 67, 104
6, 35988, Note_on_c, 4, 67, 0
6, 36000, Note_on_c, 4, 67, 104
6, 36144, Note_on_c, 4, 67, 0
6, 36180, Note_on_c, 4, 67, 103
6, 36228, Note_on_c, 4, 67, 0
6, 36300, Note_on_c, 4, 67, 103
6, 36348, Note_on_c, 4, 67, 0
6, 36360, Note_on_c, 4, 67, 116
6, 36504, Note_on_c, 4, 67, 0
6, 36540, Note_on_c, 4, 67, 106
6, 36588, Note_on_c, 4, 67, 0
6, 36660, Note_on_c, 4, 67, 99
6, 36708, Note_on_c, 4, 67, 0
6, 36720, Note_on_c, 4, 67, 107
6, 37080, Control_c, 4, 7, 126
6, 37356, Note_on_c, 4, 67, 0
6, 37380, Note_on_c, 4, 67, 98
6, 37428, Note_on_c, 4, 67, 0
6, 37440, Note_on_c, 4, 67, 113
6, 37584, Note_on_c, 4, 67, 0
6, 37620, Note_on_c, 4, 67, 102
6, 37668, Note_on_c, 4, 67, 0
6, 37740, Note_on_c, 4, 67, 101
6, 37788, Note_on_c, 4, 67, 0
6, 37800, Note_on_c, 4, 67, 110
6, 37944, Note_on_c, 4, 67, 0
6, 37980, Note_on_c, 4, 67, 107
6, 38028, Note_on_c, 4, 67, 0
6, 38100, Note_on_c, 4, 67, 109
6, 38100, Note_on_c, 4, 60, 102
6, 38148, Note_on_c, 4, 60, 0
6, 38148, Note_on_c, 4, 67, 0
6, 38160, Note_on_c, 4, 60, 103
6, 38160, Note_on_c, 4, 67, 104
6, 38304, Note_on_c, 4, 67, 0
6, 38304, Note_on_c, 4, 60, 0
6, 38340, Note_on_c, 4, 67, 109
6, 38340, Note_on_c, 4, 60, 112
6, 38388, Note_on_c, 4, 60, 0
6, 38388, Note_on_c, 4, 67, 0
6, 38460, Note_on_c, 4, 67, 109
6, 38460, Note_on_c, 4, 60, 98
6, 38508, Note_on_c, 4, 60, 0
6, 38508, Note_on_c, 4, 67, 0
6, 38520, Note_on_c, 4, 67, 116
6, 38520, Note_on_c, 4, 60, 102
6, 38664, Note_on_c, 4, 60, 0
6, 38664, Note_on_c, 4, 67, 0
6, 38700, Note_on_c, 4, 67, 113
6, 38700, Note_on_c, 4, 60, 101
6, 38748, Note_on_c, 4, 60, 0
6, 38748, Note_on_c, 4, 67, 0
6, 38820, Note_on_c, 4, 67, 111
6, 38820, Note_on_c, 4, 60, 102
6, 38868, Note_on_c, 4, 60, 0
6, 38868, Note_on_c, 4, 67, 0
6, 38880, Note_on_c, 4, 67, 104
6, 38880, Note_on_c, 4, 60, 101
6, 40956, Note_on_c, 4, 60, 0
6, 40956, Note_on_c, 4, 67, 0
6, 40980, Note_on_c, 4, 72, 112
6, 41028, Note_on_c, 4, 72, 0
6, 41040, Note_on_c, 4, 60, 102
6, 41040, Note_on_c, 4, 67, 127
6, 41088, Note_on_c, 4, 67, 0
6, 41100, Note_on_c, 4, 60, 103
6, 41148, Note_on_c, 4, 60, 0
6, 41160, Note_on_c, 4, 72, 127
6, 41208, Note_on_c, 4, 72, 0
6, 41220, Note_on_c, 4, 67, 121
6, 41268, Note_on_c, 4, 67, 0
6, 41280, Note_on_c, 4, 60, 108
6, 41328, Note_on_c, 4, 60, 0
6, 41340, Note_on_c, 4, 72, 121
6, 41388, Note_on_c, 4, 72, 0
6, 41400, Note_on_c, 4, 67, 114
6, 41448, Note_on_c, 4, 67, 0
6, 41460, Note_on_c, 4, 60, 101
6, 41508, Note_on_c, 4, 60, 0
6, 41520, Note_on_c, 4, 72, 109
6, 41568, Note_on_c, 4, 72, 0
6, 41580, Note_on_c, 4, 67, 114
6, 41628, Note_on_c, 4, 67, 0
6, 41640, Note_on_c, 4, 60, 103
6, 41688, Note_on_c, 4, 60, 0
6, 41688, Note_on_c, 4, 60, 0
6, 41700, Note_on_c, 4, 72, 112
6, 41748, Note_on_c, 4, 72, 0
6, 41760, Note_on_c, 4, 65, 50
6, 41760, Note_on_c, 4, 53, 100
6, 41856, Note_on_c, 4, 53, 0
6, 41856, Note_on_c, 4, 65, 0
6, 44100, Note_on_c, 4, 60, 50
6, 44100, Note_on_c, 4, 48, 98
6, 44196, Note_on_c, 4, 48, 0
6, 44196, Note_on_c, 4, 60, 0
6, 44220, Note_on_c, 4, 60, 102
6, 44220, Note_on_c, 4, 48, 99
6, 44268, Note_on_c, 4, 48, 0
6, 44268, Note_on_c, 4, 60, 0
6, 44280, Note_on_c, 4, 60, 103
6, 44280, Note_on_c, 4, 53, 99
6, 44556, Note_on_c, 4, 53, 0
6, 44556, Note_on_c, 4, 60, 0
6, 44580, Note_on_c, 4, 65, 98
6, 44580, Note_on_c, 4, 69, 96
6, 44628, Note_on_c, 4, 69, 0
6, 44628, Note_on_c, 4, 65, 0
6, 44640, Note_on_c, 4, 65, 105
6, 44640, Note_on_c, 4, 69, 103
6, 44688, Note_on_c, 4, 69, 0
6, 44688, Note_on_c, 4, 65, 0
6, 44700, Note_on_c, 4, 65, 99
6, 44700, Note_on_c, 4, 69, 100
6, 44748, Note_on_c, 4, 69, 0
6, 44748, Note_on_c, 4, 65, 0
6, 44760, Note_on_c, 4, 65, 100
6, 44760, Note_on_c, 4, 69, 101
6, 44808, Note_on_c, 4, 69, 0
6, 44808, Note_on_c, 4, 65, 0
6, 44820, Note_on_c, 4, 69, 101
6, 44820, Note_on_c, 4, 65, 101
6, 44868, Note_on_c, 4, 65, 0
6, 44868, Note_on_c, 4, 69, 0
6, 44880, Note_on_c, 4, 65, 104
6, 44880, Note_on_c, 4, 69, 104
6, 44928, Note_on_c, 4, 69, 0
6, 44928, Note_on_c, 4, 65, 0
6, 44940, Note_on_c, 4, 65, 100
6, 44940, Note_on_c, 4, 69, 101
6, 44988, Note_on_c, 4, 69, 0
6, 44988, Note_on_c, 4, 65, 0
6, 45000, Note_on_c, 4, 65, 100
6, 45000, Note_on_c, 4, 69, 103
6, 45048, Note_on_c, 4, 69, 0
6, 45048, Note_on_c, 4, 65, 0
6, 45060, Note_on_c, 4, 65, 102
6, 45060, Note_on_c, 4, 69, 112
6, 45108, Note_on_c, 4, 69, 0
6, 45108, Note_on_c, 4, 65, 0
6, 45120, Note_on_c, 4, 65, 103
6, 45120, Note_on_c, 4, 69, 105
6, 45168, Note_on_c, 4, 69, 0
6, 45168, Note_on_c, 4, 65, 0
6, 45180, Note_on_c, 4, 65, 101
6, 45180, Note_on_c, 4, 69, 101
6, 45228, Note_on_c, 4, 69, 0
6, 45228, Note_on_c, 4, 65, 0
6, 45240, Note_on_c, 4, 69, 101
6, 45240, Note_on_c, 4, 65, 101
6, 45288, Note_on_c, 4, 65, 0
6, 45288, Note_on_c, 4, 69, 0
6, 45300, Note_on_c, 4, 65, 104
6, 45300, Note_on_c, 4, 69, 105
6, 45348, Note_on_c, 4, 69, 0
6, 45348, Note_on_c, 4, 65, 0
6, 45360, Note_on_c, 4, 65, 105
6, 45360, Note_on_c, 4, 69, 110
6, 45408, Note_on_c, 4, 69, 0
6, 45408, Note_on_c, 4, 65, 0
6, 45420, Note_on_c, 4, 65, 98
6, 45420, Note_on_c, 4, 69, 99
6, 45468, Note_on_c, 4, 69, 0
6, 45468, Note_on_c, 4, 65, 0
6, 45480, Note_on_c, 4, 65, 100
6, 45480, Note_on_c, 4, 69, 102
6, 45528, Note_on_c, 4, 69, 0
6, 45528, Note_on_c, 4, 65, 0
6, 45540, Note_on_c, 4, 65, 108
6, 45540, Note_on_c, 4, 69, 110
6, 45588, Note_on_c, 4, 69, 0
6, 45588, Note_on_c, 4, 65, 0
6, 45600, Note_on_c, 4, 65, 101
6, 45600, Note_on_c, 4, 69, 102
6, 45648, Note_on_c, 4, 69, 0
6, 45648, Note_on_c, 4, 65, 0
6, 45660, Note_on_c, 4, 65, 105
6, 45660, Note_on_c, 4, 69, 107
6, 45708, Note_on_c, 4, 69, 0
6, 45708, Note_on_c, 4, 65, 0
6, 45720, Note_on_c, 4, 70, 111
6, 45720, Note_on_c, 4, 65, 99
6, 45768, Note_on_c, 4, 65, 0
6, 45768, Note_on_c, 4, 70, 0
6, 45780, Note_on_c, 4, 70, 103
6, 45780, Note_on_c, 4, 65, 101
6, 45828, Note_on_c, 4, 65, 0
6, 45828, Note_on_c, 4, 70, 0
6, 45840, Note_on_c, 4, 70, 107
6, 45840, Note_on_c, 4, 65, 103
6, 45888, Note_on_c, 4, 65, 0
6, 45888, Note_on_c, 4, 70, 0
6, 45900, Note_on_c, 4, 70, 102
6, 45900, Note_on_c, 4, 65, 98
6, 45948, Note_on_c, 4, 65, 0
6, 45948, Note_on_c, 4, 70, 0
6, 45960, Note_on_c, 4, 70, 107
6, 45960, Note_on_c, 4, 65, 100
6, 46008, Note_on_c, 4, 65, 0
6, 46008, Note_on_c, 4, 70, 0
6, 46020, Note_on_c, 4, 67, 104
6, 46020, Note_on_c, 4, 70, 103
6, 46068, Note_on_c, 4, 70, 0
6, 46068, Note_on_c, 4, 67, 0
6, 46080, Note_on_c, 4, 67, 102
6, 46080, Note_on_c, 4, 70, 103
6, 46128, Note_on_c, 4, 70, 0
6, 46128, Note_on_c, 4, 67, 0
6, 46140, Note_on_c, 4, 67, 103
6, 46140, Note_on_c, 4, 70, 103
6, 46188, Note_on_c, 4, 70, 0
6, 46188, Note_on_c, 4, 67, 0
6, 46200, Note_on_c, 4, 67, 103
6, 46200, Note_on_c, 4, 70, 103
6, 46248, Note_on_c, 4, 70, 0
6, 46248, Note_on_c, 4, 67, 0
6, 46260, Note_on_c, 4, 67, 105
6, 46260, Note_on_c, 4, 70, 107
6, 46308, Note_on_c, 4, 70, 0
6, 46308, Note_on_c, 4, 67, 0
6, 46320, Note_on_c, 4, 67, 102
6, 46320, Note_on_c, 4, 70, 103
6, 46368, Note_on_c, 4, 70, 0
6, 46368, Note_on_c, 4, 67, 0
6, 46380, Note_on_c, 4, 67, 102
6, 46380, Note_on_c, 4, 70, 103
6, 46428, Note_on_c, 4, 70, 0
6, 46428, Note_on_c, 4, 67, 0
6, 46440, Note_on_c, 4, 65, 96
6, 46440, Note_on_c, 4, 69, 99
6, 46488, Note_on_c, 4, 69, 0
6, 46488, Note_on_c, 4, 65, 0
6, 46500, Note_on_c, 4, 69, 106
6, 46500, Note_on_c, 4, 65, 101
6, 46548, Note_on_c, 4, 65, 0
6, 46548, Note_on_c, 4, 69, 0
6, 46560, Note_on_c, 4, 69, 105
6, 46560, Note_on_c, 4, 65, 99
6, 46608, Note_on_c, 4, 65, 0
6, 46608, Note_on_c, 4, 69, 0
6, 46620, Note_on_c, 4, 69, 104
6, 46620, Note_on_c, 4, 65, 99
6, 46668, Note_on_c, 4, 65, 0
6, 46668, Note_on_c, 4, 69, 0
6, 46680, Note_on_c, 4, 69, 106
6, 46680, Note_on_c, 4, 65, 98
6, 46728, Note_on_c, 4, 65, 0
6, 46728, Note_on_c, 4, 69, 0
6, 46740, Note_on_c, 4, 69, 112
6, 46740, Note_on_c, 4, 65, 101
6, 46788, Note_on_c, 4, 65, 0
6, 46788, Note_on_c, 4, 69, 0
6, 46800, Note_on_c, 4, 67, 117
6, 46800, Note_on_c, 4, 65, 103
6, 46848, Note_on_c, 4, 65, 0
6, 46848, Note_on_c, 4, 67, 0
6, 46860, Note_on_c, 4, 67, 109
6, 46860, Note_on_c, 4, 65, 100
6, 46908, Note_on_c, 4, 65, 0
6, 46908, Note_on_c, 4, 67, 0
6, 46920, Note_on_c, 4, 67, 114
6, 46920, Note_on_c, 4, 65, 105
6, 46968, Note_on_c, 4, 65, 0
6, 46968, Note_on_c, 4, 67, 0
6, 46980, Note_on_c, 4, 67, 105
6, 46980, Note_on_c, 4, 60, 87
6, 47028, Note_on_c, 4, 60, 0
6, 47028, Note_on_c, 4, 67, 0
6, 47040, Note_on_c, 4, 60, 99
6, 47040, Note_on_c, 4, 67, 103
6, 47088, Note_on_c, 4, 67, 0
6, 47088, Note_on_c, 4, 60, 0
6, 47100, Note_on_c, 4, 60, 112
6, 47100, Note_on_c, 4, 67, 109
6, 47148, Note_on_c, 4, 67, 0
6, 47148, Note_on_c, 4, 60, 0
6, 47160, Note_on_c, 4, 65, 101
6, 47160, Note_on_c, 4, 69, 100
6, 47208, Note_on_c, 4, 69, 0
6, 47208, Note_on_c, 4, 65, 0
6, 47220, Note_on_c, 4, 65, 105
6, 47220, Note_on_c, 4, 69, 102
6, 47268, Note_on_c, 4, 69, 0
6, 47268, Note_on_c, 4, 65, 0
6, 47280, Note_on_c, 4, 65, 102
6, 47280, Note_on_c, 4, 69, 101
6, 47328, Note_on_c, 4, 69, 0
6, 47328, Note_on_c, 4, 65, 0
6, 47340, Note_on_c, 4, 65, 101
6, 47340, Note_on_c, 4, 69, 101
6, 47388, Note_on_c, 4, 69, 0
6, 47388, Note_on_c, 4, 65, 0
6, 47400, Note_on_c, 4, 65, 101
6, 47400, Note_on_c, 4, 69, 102
6, 47448, Note_on_c, 4, 69, 0
6, 47448, Note_on_c, 4, 65, 0
6, 47460, Note_on_c, 4, 65, 105
6, 47460, Note_on_c, 4, 69, 104
6, 47508, Note_on_c, 4, 69, 0
6, 47508, Note_on_c, 4, 65, 0
6, 47520, Note_on_c, 4, 69, 97
6, 47520, Note_on_c, 4, 57, 98
6, 47616, Note_on_c, 4, 57, 0
6, 47616, Note_on_c, 4, 69, 0
6, 47640, Note_on_c, 4, 69, 116
6, 47640, Note_on_c, 4, 57, 112
6, 47688, Note_on_c, 4, 57, 0
6, 47688, Note_on_c, 4, 69, 0
6, 47700, Note_on_c, 4, 69, 123
6, 47700, Note_on_c, 4, 57, 113
6, 47748, Note_on_c, 4, 57, 0
6, 47748, Note_on_c, 4, 69, 0
6, 47760, Note_on_c, 4, 53, 120
6, 47760, Note_on_c, 4, 65, 127
6, 47808, Note_on_c, 4, 65, 0
6, 47808, Note_on_c, 4, 53, 0
6, 47820, Note_on_c, 4, 72, 125
6, 47820, Note_on_c, 4, 60, 125
6, 47868, Note_on_c, 4, 60, 0
6, 47868, Note_on_c, 4, 72, 0
6, 48000, Note_on_c, 4, 57, 127
6, 48000, Note_on_c, 4, 69, 117
6, 48048, Note_on_c, 4, 69, 0
6, 48048, Note_on_c, 4, 57, 0
6, 48060, Note_on_c, 4, 69, 127
6, 48060, Note_on_c, 4, 57, 127
6, 48108, Note_on_c, 4, 57, 0
6, 48108, Note_on_c, 4, 69, 0
6, 48120, Note_on_c, 4, 48, 127
6, 48120, Note_on_c, 4, 60, 127
6, 48168, Note_on_c, 4, 60, 0
6, 48168, Note_on_c, 4, 48, 0
6, 48180, Note_on_c, 4, 65, 114
6, 48180, Note_on_c, 4, 53, 127
6, 48228, Note_on_c, 4, 53, 0
6, 48228, Note_on_c, 4, 65, 0
6, 48360, Note_on_c, 4, 69, 127
6, 48360, Note_on_c, 4, 57, 109
6, 48408, Note_on_c, 4, 57, 0
6, 48408, Note_on_c, 4, 69, 0
6, 48420, Note_on_c, 4, 69, 127
6, 48420, Note_on_c, 4, 57, 127
6, 48468, Note_on_c, 4, 57, 0
6, 48468, Note_on_c, 4, 69, 0
6, 48480, Note_on_c, 4, 53, 127
6, 48480, Note_on_c, 4, 65, 127
6, 48528, Note_on_c, 4, 65, 0
6, 48528, Note_on_c, 4, 53, 0
6, 48540, Note_on_c, 4, 72, 127
6, 48540, Note_on_c, 4, 60, 127
6, 48588, Note_on_c, 4, 60, 0
6, 48588, Note_on_c, 4, 72, 0
6, 48720, Note_on_c, 4, 70, 107
6, 48720, Note_on_c, 4, 65, 100
6, 48768, Note_on_c, 4, 65, 0
6, 48768, Note_on_c, 4, 70, 0
6, 48780, Note_on_c, 4, 70, 123
6, 48780, Note_on_c, 4, 65, 113
6, 48828, Note_on_c, 4, 65, 0
6, 48828, Note_on_c, 4, 70, 0
6, 48840, Note_on_c, 4, 53, 127
6, 48840, Note_on_c, 4, 65, 127
6, 48888, Note_on_c, 4, 65, 0
6, 48888, Note_on_c, 4, 53, 0
6, 48900, Note_on_c, 4, 67, 127
6, 48900, Note_on_c, 4, 48, 116
6, 48948, Note_on_c, 4, 48, 0
6, 48948, Note_on_c, 4, 67, 0
6, 49080, Note_on_c, 4, 67, 113
6, 49080, Note_on_c, 4, 70, 121
6, 49128, Note_on_c, 4, 70, 0
6, 49128, Note_on_c, 4, 67, 0
6, 49140, Note_on_c, 4, 70, 120
6, 49140, Note_on_c, 4, 67, 109
6, 49188, Note_on_c, 4, 67, 0
6, 49188, Note_on_c, 4, 70, 0
6, 49200, Note_on_c, 4, 67, 127
6, 49200, Note_on_c, 4, 60, 111
6, 49248, Note_on_c, 4, 60, 0
6, 49248, Note_on_c, 4, 67, 0
6, 49260, Note_on_c, 4, 60, 127
6, 49260, Note_on_c, 4, 72, 127
6, 49308, Note_on_c, 4, 72, 0
6, 49308, Note_on_c, 4, 60, 0
6, 49440, Note_on_c, 4, 65, 117
6, 49440, Note_on_c, 4, 69, 121
6, 49488, Note_on_c, 4, 69, 0
6, 49488, Note_on_c, 4, 65, 0
6, 49500, Note_on_c, 4, 69, 111
6, 49500, Note_on_c, 4, 65, 112
6, 49548, Note_on_c, 4, 65, 0
6, 49548, Note_on_c, 4, 69, 0
6, 49560, Note_on_c, 4, 65, 127
6, 49560, Note_on_c, 4, 57, 103
6, 49608, Note_on_c, 4, 57, 0
6, 49608, Note_on_c, 4, 65, 0
6, 49620, Note_on_c, 4, 65, 127
6, 49620, Note_on_c, 4, 69, 127
6, 49668, Note_on_c, 4, 69, 0
6, 49668, Note_on_c, 4, 65, 0
6, 49800, Note_on_c, 4, 67, 127
6, 49800, Note_on_c, 4, 65, 127
6, 49848, Note_on_c, 4, 65, 0
6, 49848, Note_on_c, 4, 67, 0
6, 49860, Note_on_c, 4, 67, 121
6, 49860, Note_on_c, 4, 60, 114
6, 49908, Note_on_c, 4, 60, 0
6, 49908, Note_on_c, 4, 67, 0
6, 49920, Note_on_c, 4, 60, 116
6, 49968, Note_on_c, 4, 60, 0
6, 49980, Note_on_c, 4, 67, 120
6, 49980, Note_on_c, 4, 60, 116
6, 50028, Note_on_c, 4, 60, 0
6, 50028, Note_on_c, 4, 67, 0
6, 50040, Note_on_c, 4, 65, 112
6, 50040, Note_on_c, 4, 57, 113
6, 50088, Note_on_c, 4, 57, 0
6, 50088, Note_on_c, 4, 65, 0
6, 50700, Note_on_c, 4, 60, 92
6, 50700, Note_on_c, 4, 48, 100
6, 50748, Note_on_c, 4, 48, 0
6, 50748, Note_on_c, 4, 60, 0
6, 50760, Note_on_c, 4, 60, 105
6, 50760, Note_on_c, 4, 48, 103
6, 51264, Note_on_c, 4, 48, 0
6, 51264, Note_on_c, 4, 60, 0
6, 51300, Note_on_c, 4, 60, 104
6, 51300, Note_on_c, 4, 48, 102
6, 51396, Note_on_c, 4, 48, 0
6, 51396, Note_on_c, 4, 60, 0
6, 51420, Note_on_c, 4, 60, 104
6, 51420, Note_on_c, 4, 48, 104
6, 51468, Note_on_c, 4, 48, 0
6, 51468, Note_on_c, 4, 60, 0
6, 52380, Note_on_c, 4, 67, 102
6, 52476, Note_on_c, 4, 67, 0
6, 52500, Note_on_c, 4, 67, 107
6, 52548, Note_on_c, 4, 67, 0
6, 52560, Note_on_c, 4, 67, 108
6, 52704, Note_on_c, 4, 67, 0
6, 52740, Note_on_c, 4, 67, 102
6, 52836, Note_on_c, 4, 67, 0
6, 52860, Note_on_c, 4, 67, 106
6, 52908, Note_on_c, 4, 67, 0
6, 52920, Note_on_c, 4, 67, 111
6, 53064, Note_on_c, 4, 67, 0
6, 53100, Note_on_c, 4, 60, 105
6, 53100, Note_on_c, 4, 48, 104
6, 53244, Note_on_c, 4, 48, 0
6, 53244, Note_on_c, 4, 60, 0
6, 53280, Note_on_c, 4, 60, 108
6, 53280, Note_on_c, 4, 48, 102
6, 53424, Note_on_c, 4, 48, 0
6, 53424, Note_on_c, 4, 60, 0
6, 53460, Note_on_c, 4, 65, 100
6, 53460, Note_on_c, 4, 53, 99
6, 53556, Note_on_c, 4, 53, 0
6, 53556, Note_on_c, 4, 65, 0
6, 53580, Note_on_c, 4, 65, 104
6, 53580, Note_on_c, 4, 53, 103
6, 53628, Note_on_c, 4, 53, 0
6, 53628, Note_on_c, 4, 65, 0
6, 53640, Note_on_c, 4, 60, 98
6, 53640, Note_on_c, 4, 48, 98
6, 53916, Note_on_c, 4, 48, 0
6, 53916, Note_on_c, 4, 60, 0
6, 53940, Note_on_c, 4, 60, 102
6, 53940, Note_on_c, 4, 48, 100
6, 53964, Note_on_c, 4, 48, 0
6, 53964, Note_on_c, 4, 60, 0
6, 53970, Note_on_c, 4, 60, 109
6, 53970, Note_on_c, 4, 48, 104
6, 53994, Note_on_c, 4, 48, 0
6, 53994, Note_on_c, 4, 60, 0
6, 54000, Note_on_c, 4, 60, 105
6, 54000, Note_on_c, 4, 48, 99
6, 54096, Note_on_c, 4, 48, 0
6, 54096, Note_on_c, 4, 60, 0
6, 54120, Note_on_c, 4, 60, 101
6, 54120, Note_on_c, 4, 48, 99
6, 54168, Note_on_c, 4, 48, 0
6, 54168, Note_on_c, 4, 60, 0
6, 54180, Note_on_c, 4, 60, 100
6, 54180, Note_on_c, 4, 48, 99
6, 54276, Note_on_c, 4, 48, 0
6, 54276, Note_on_c, 4, 60, 0
6, 54300, Note_on_c, 4, 60, 102
6, 54300, Note_on_c, 4, 48, 103
6, 54348, Note_on_c, 4, 48, 0
6, 54348, Note_on_c, 4, 60, 0
6, 54360, Note_on_c, 4, 60, 102
6, 54360, Note_on_c, 4, 48, 103
6, 54636, Note_on_c, 4, 48, 0
6, 54636, Note_on_c, 4, 60, 0
6, 54660, Note_on_c, 4, 60, 99
6, 54660, Note_on_c, 4, 48, 99
6, 54684, Note_on_c, 4, 48, 0
6, 54684, Note_on_c, 4, 60, 0
6, 54690, Note_on_c, 4, 60, 102
6, 54690, Note_on_c, 4, 48, 100
6, 54714, Note_on_c, 4, 48, 0
6, 54714, Note_on_c, 4, 60, 0
6, 54720, Note_on_c, 4, 60, 101
6, 54720, Note_on_c, 4, 48, 101
6, 54816, Note_on_c, 4, 48, 0
6, 54816, Note_on_c, 4, 60, 0
6, 54840, Note_on_c, 4, 60, 103
6, 54840, Note_on_c, 4, 48, 100
6, 54888, Note_on_c, 4, 48, 0
6, 54888, Note_on_c, 4, 60, 0
6, 54900, Note_on_c, 4, 60, 102
6, 54900, Note_on_c, 4, 48, 96
6, 54996, Note_on_c, 4, 48, 0
6, 54996, Note_on_c, 4, 60, 0
6, 55020, Note_on_c, 4, 60, 103
6, 55020, Note_on_c, 4, 48, 100
6, 55068, Note_on_c, 4, 48, 0
6, 55068, Note_on_c, 4, 60, 0
6, 55080, Note_on_c, 4, 60, 102
6, 55080, Note_on_c, 4, 48, 99
6, 55176, Note_on_c, 4, 48, 0
6, 55176, Note_on_c, 4, 60, 0
6, 55200, Note_on_c, 4, 60, 102
6, 55200, Note_on_c, 4, 48, 100
6, 55248, Note_on_c, 4, 48, 0
6, 55248, Note_on_c, 4, 60, 0
6, 55260, Note_on_c, 4, 60, 103
6, 55260, Note_on_c, 4, 48, 101
6, 55356, Note_on_c, 4, 48, 0
6, 55356, Note_on_c, 4, 60, 0
6, 55380, Note_on_c, 4, 60, 101
6, 55380, Note_on_c, 4, 48, 100
6, 55404, Note_on_c, 4, 48, 0
6, 55404, Note_on_c, 4, 60, 0
6, 55410, Note_on_c, 4, 60, 106
6, 55410, Note_on_c, 4, 48, 105
6, 55434, Note_on_c, 4, 48, 0
6, 55434, Note_on_c, 4, 60, 0
6, 55440, Note_on_c, 4, 60, 103
6, 55440, Note_on_c, 4, 48, 106
6, 55536, Note_on_c, 4, 48, 0
6, 55536, Note_on_c, 4, 60, 0
6, 55560, Note_on_c, 4, 60, 101
6, 55560, Note_on_c, 4, 48, 101
6, 55608, Note_on_c, 4, 48, 0
6, 55608, Note_on_c, 4, 60, 0
6, 55620, Note_on_c, 4, 60, 101
6, 55620, Note_on_c, 4, 48, 101
6, 55716, Note_on_c, 4, 48, 0
6, 55716, Note_on_c, 4, 60, 0
6, 55740, Note_on_c, 4, 60, 101
6, 55740, Note_on_c, 4, 48, 104
6, 55788, Note_on_c, 4, 48, 0
6, 55788, Note_on_c, 4, 60, 0
6, 55800, Note_on_c, 4, 48, 101
6, 55800, Note_on_c, 4, 60, 101
6, 55896, Note_on_c, 4, 60, 0
6, 55896, Note_on_c, 4, 48, 0
6, 55920, Note_on_c, 4, 48, 101
6, 55920, Note_on_c, 4, 60, 101
6, 55968, Note_on_c, 4, 60, 0
6, 55968, Note_on_c, 4, 48, 0
6, 55980, Note_on_c, 4, 60, 102
6, 55980, Note_on_c, 4, 48, 100
6, 56076, Note_on_c, 4, 48, 0
6, 56076, Note_on_c, 4, 60, 0
6, 56100, Note_on_c, 4, 60, 100
6, 56100, Note_on_c, 4, 48, 98
6, 56124, Note_on_c, 4, 48, 0
6, 56124, Note_on_c, 4, 60, 0
6, 56130, Note_on_c, 4, 60, 102
6, 56130, Note_on_c, 4, 48, 99
6, 56154, Note_on_c, 4, 48, 0
6, 56154, Note_on_c, 4, 60, 0
6, 56160, Note_on_c, 4, 60, 99
6, 56160, Note_on_c, 4, 48, 97
6, 56256, Note_on_c, 4, 48, 0
6, 56256, Note_on_c, 4, 60, 0
6, 56280, Note_on_c, 4, 60, 104
6, 56280, Note_on_c, 4, 48, 100
6, 56328, Note_on_c, 4, 48, 0
6, 56328, Note_on_c, 4, 60, 0
6, 56340, Note_on_c, 4, 60, 102
6, 56340, Note_on_c, 4, 48, 100
6, 56436, Note_on_c, 4, 48, 0
6, 56436, Note_on_c, 4, 60, 0
6, 56460, Note_on_c, 4, 60, 101
6, 56460, Note_on_c, 4, 48, 101
6, 56508, Note_on_c, 4, 48, 0
6, 56508, Note_on_c, 4, 60, 0
6, 56520, Note_on_c, 4, 65, 98
6, 56520, Note_on_c, 4, 53, 99
6, 56616, Note_on_c, 4, 53, 0
6, 56616, Note_on_c, 4, 65, 0
6, 57000, Note_on_c, 4, 60, 110
6, 57000, Note_on_c, 4, 53, 104
6, 57048, Note_on_c, 4, 53, 0
6, 57048, Note_on_c, 4, 60, 0
6, 57060, Note_on_c, 4, 60, 102
6, 57060, Note_on_c, 4, 48, 101
6, 57156, Note_on_c, 4, 48, 0
6, 57156, Note_on_c, 4, 60, 0
6, 57180, Note_on_c, 4, 60, 117
6, 57180, Note_on_c, 4, 48, 104
6, 57228, Note_on_c, 4, 48, 0
6, 57228, Note_on_c, 4, 60, 0
6, 57240, Note_on_c, 4, 53, 107
6, 57240, Note_on_c, 4, 60, 109
6, 57336, Note_on_c, 4, 60, 0
6, 57336, Note_on_c, 4, 53, 0
6, 57360, Note_on_c, 4, 65, 101
6, 57360, Note_on_c, 4, 53, 103
6, 57648, Note_on_c, 4, 53, 0
6, 57648, Note_on_c, 4, 65, 0
6, 57660, Note_on_c, 4, 60, 99
6, 57660, Note_on_c, 4, 48, 98
6, 57708, Note_on_c, 4, 48, 0
6, 57708, Note_on_c, 4, 60, 0
6, 57720, Note_on_c, 4, 60, 107
6, 57720, Note_on_c, 4, 48, 102
6, 57768, Note_on_c, 4, 48, 0
6, 57768, Note_on_c, 4, 60, 0
6, 57780, Note_on_c, 4, 60, 100
6, 57780, Note_on_c, 4, 48, 98
6, 57876, Note_on_c, 4, 48, 0
6, 57876, Note_on_c, 4, 60, 0
6, 57900, Note_on_c, 4, 60, 104
6, 57900, Note_on_c, 4, 48, 99
6, 57948, Note_on_c, 4, 48, 0
6, 57948, Note_on_c, 4, 60, 0
6, 57960, Note_on_c, 4, 65, 94
6, 57960, Note_on_c, 4, 53, 50
6, 58104, Note_on_c, 4, 53, 0
6, 58104, Note_on_c, 4, 65, 0
6, 58140, Note_on_c, 4, 65, 98
6, 58140, Note_on_c, 4, 53, 99
6, 58188, Note_on_c, 4, 53, 0
6, 58188, Note_on_c, 4, 65, 0
6, 58260, Note_on_c, 4, 53, 112
6, 58260, Note_on_c, 4, 65, 109
6, 58308, Note_on_c, 4, 65, 0
6, 58308, Note_on_c, 4, 53, 0
6, 58320, Note_on_c, 4, 67, 111
6, 58464, Note_on_c, 4, 67, 0
6, 58500, Note_on_c, 4, 67, 105
6, 58548, Note_on_c, 4, 67, 0
6, 58620, Note_on_c, 4, 67, 106
6, 58668, Note_on_c, 4, 67, 0
6, 58680, Note_on_c, 4, 60, 109
6, 58680, Note_on_c, 4, 48, 116
6, 58728, Note_on_c, 4, 48, 0
6, 58728, Note_on_c, 4, 60, 0
6, 61920, Note_on_c, 4, 60, 101
6, 61920, Note_on_c, 4, 48, 102
6, 62016, Note_on_c, 4, 48, 0
6, 62016, Note_on_c, 4, 60, 0
6, 62100, Note_on_c, 4, 60, 105
6, 62100, Note_on_c, 4, 48, 102
6, 62196, Note_on_c, 4, 48, 0
6, 62196, Note_on_c, 4, 60, 0
6, 62280, Note_on_c, 4, 60, 106
6, 62280, Note_on_c, 4, 48, 102
6, 62376, Note_on_c, 4, 48, 0
6, 62376, Note_on_c, 4, 60, 0
6, 62460, Note_on_c, 4, 60, 99
6, 62460, Note_on_c, 4, 48, 99
6, 62508, Note_on_c, 4, 48, 0
6, 62508, Note_on_c, 4, 60, 0
6, 62580, Note_on_c, 4, 60, 100
6, 62580, Note_on_c, 4, 48, 97
6, 62916, Note_on_c, 4, 48, 0
6, 62916, Note_on_c, 4, 60, 0
6, 62940, Note_on_c, 4, 60, 99
6, 62940, Note_on_c, 4, 48, 101
6, 63096, Note_on_c, 4, 48, 0
6, 63096, Note_on_c, 4, 60, 0
6, 63120, Note_on_c, 4, 60, 102
6, 63120, Note_on_c, 4, 48, 101
6, 63276, Note_on_c, 4, 48, 0
6, 63276, Note_on_c, 4, 60, 0
6, 63300, Note_on_c, 4, 60, 99
6, 63300, Note_on_c, 4, 48, 100
6, 63348, Note_on_c, 4, 48, 0
6, 63348, Note_on_c, 4, 60, 0
6, 63360, Note_on_c, 4, 69, 118
6, 63360, Note_on_c, 4, 53, 114
6, 63408, Note_on_c, 4, 53, 0
6, 63408, Note_on_c, 4, 69, 0
6, 67740, Note_on_c, 4, 67, 102
6, 67740, Note_on_c, 4, 60, 99
6, 67788, Note_on_c, 4, 60, 0
6, 67788, Note_on_c, 4, 67, 0
6, 67800, Note_on_c, 4, 60, 101
6, 67800, Note_on_c, 4, 67, 104
6, 67848, Note_on_c, 4, 67, 0
6, 67848, Note_on_c, 4, 60, 0
6, 67860, Note_on_c, 4, 60, 104
6, 67860, Note_on_c, 4, 67, 106
6, 67908, Note_on_c, 4, 67, 0
6, 67908, Note_on_c, 4, 60, 0
6, 67920, Note_on_c, 4, 60, 106
6, 67920, Note_on_c, 4, 67, 108
6, 67968, Note_on_c, 4, 67, 0
6, 67968, Note_on_c, 4, 60, 0
6, 67980, Note_on_c, 4, 67, 102
6, 67980, Note_on_c, 4, 60, 100
6, 68028, Note_on_c, 4, 60, 0
6, 68028, Note_on_c, 4, 67, 0
6, 68040, Note_on_c, 4, 65, 123
6, 68040, Note_on_c, 4, 57, 102
6, 68580, Note_on_c, 4, 65, 121
6, 68580, Note_on_c, 4, 57, 109
6, 68676, Note_on_c, 4, 57, 0
6, 68676, Note_on_c, 4, 65, 0
6, 68700, Note_on_c, 4, 57, 103
6, 68700, Note_on_c, 4, 65, 111
6, 68748, Note_on_c, 4, 65, 0
6, 68748, Note_on_c, 4, 57, 0
6, 68760, Note_on_c, 4, 65, 114
6, 68760, Note_on_c, 4, 57, 102
6, 69396, Note_on_c, 4, 57, 0
6, 69396, Note_on_c, 4, 65, 0
6, 69420, Note_on_c, 4, 65, 116
6, 69420, Note_on_c, 4, 53, 103
6, 69468, Note_on_c, 4, 53, 0
6, 69468, Note_on_c, 4, 65, 0
6, 69480, Note_on_c, 4, 67, 117
6, 70116, Note_on_c, 4, 67, 0
6, 70140, Note_on_c, 4, 67, 127
6, 70188, Note_on_c, 4, 67, 0
6, 71640, Note_on_c, 4, 48, 100
6, 71928, Note_on_c, 4, 48, 0
6, 72000, Note_on_c, 4, 48, 105
6, 72144, Note_on_c, 4, 48, 0
6, 72180, Note_on_c, 4, 48, 112
6, 72276, Note_on_c, 4, 48, 0
6, 72300, Note_on_c, 4, 60, 104
6, 72300, Note_on_c, 4, 48, 103
6, 72324, Note_on_c, 4, 48, 0
6, 72324, Note_on_c, 4, 60, 0
6, 72330, Note_on_c, 4, 60, 114
6, 72330, Note_on_c, 4, 48, 109
6, 72354, Note_on_c, 4, 48, 0
6, 72354, Note_on_c, 4, 60, 0
6, 72360, Note_on_c, 4, 60, 100
6, 72360, Note_on_c, 4, 48, 98
6, 72408, Note_on_c, 4, 48, 0
6, 72408, Note_on_c, 4, 60, 0
6, 72480, Note_on_c, 4, 60, 110
6, 72480, Note_on_c, 4, 48, 101
6, 72504, Note_on_c, 4, 48, 0
6, 72504, Note_on_c, 4, 60, 0
6, 72510, Note_on_c, 4, 60, 112
6, 72510, Note_on_c, 4, 48, 103
6, 72534, Note_on_c, 4, 48, 0
6, 72534, Note_on_c, 4, 60, 0
6, 72540, Note_on_c, 4, 60, 107
6, 72540, Note_on_c, 4, 48, 100
6, 72588, Note_on_c, 4, 48, 0
6, 72588, Note_on_c, 4, 60, 0
6, 72660, Note_on_c, 4, 60, 118
6, 72660, Note_on_c, 4, 48, 100
6, 72684, Note_on_c, 4, 48, 0
6, 72684, Note_on_c, 4, 60, 0
6, 72690, Note_on_c, 4, 48, 116
6, 72690, Note_on_c, 4, 60, 114
6, 72714, Note_on_c, 4, 60, 0
6, 72714, Note_on_c, 4, 48, 0
6, 72720, Note_on_c, 4, 60, 108
6, 72720, Note_on_c, 4, 48, 107
6, 72768, Note_on_c, 4, 48, 0
6, 72768, Note_on_c, 4, 60, 0
6, 72840, Note_on_c, 4, 48, 101
6, 72840, Note_on_c, 4, 60, 102
6, 72864, Note_on_c, 4, 60, 0
6, 72864, Note_on_c, 4, 48, 0
6, 72870, Note_on_c, 4, 60, 111
6, 72870, Note_on_c, 4, 48, 102
6, 72894, Note_on_c, 4, 48, 0
6, 72894, Note_on_c, 4, 60, 0
6, 72900, Note_on_c, 4, 60, 105
6, 72900, Note_on_c, 4, 48, 105
6, 72948, Note_on_c, 4, 48, 0
6, 72948, Note_on_c, 4, 60, 0
6, 73020, Note_on_c, 4, 60, 106
6, 73020, Note_on_c, 4, 48, 99
6, 73356, Note_on_c, 4, 48, 0
6, 73356, Note_on_c, 4, 60, 0
6, 73380, Note_on_c, 4, 60, 101
6, 73380, Note_on_c, 4, 48, 100
6, 73536, Note_on_c, 4, 48, 0
6, 73536, Note_on_c, 4, 60, 0
6, 73560, Note_on_c, 4, 60, 106
6, 73560, Note_on_c, 4, 48, 100
6, 73716, Note_on_c, 4, 48, 0
6, 73716, Note_on_c, 4, 60, 0
6, 73740, Note_on_c, 4, 60, 106
6, 73740, Note_on_c, 4, 48, 108
6, 73788, Note_on_c, 4, 48, 0
6, 73788, Note_on_c, 4, 60, 0
6, 73800, Note_on_c, 4, 53, 117
6, 73800, Note_on_c, 4, 57, 121
6, 73896, Note_on_c, 4, 57, 0
6, 73896, Note_on_c, 4, 53, 0
6, 75600, Note_on_c, 4, 69, 121
6, 75744, Note_on_c, 4, 69, 0
6, 75780, Note_on_c, 4, 65, 127
6, 75876, Note_on_c, 4, 65, 0
6, 75900, Note_on_c, 4, 72, 127
6, 75948, Note_on_c, 4, 72, 0
6, 75960, Note_on_c, 4, 69, 118
6, 76056, Note_on_c, 4, 69, 0
6, 76980, Note_on_c, 4, 60, 120
6, 77028, Note_on_c, 4, 60, 0
6, 77040, Note_on_c, 4, 65, 127
6, 77136, Note_on_c, 4, 65, 0
6, 77160, Note_on_c, 4, 69, 121
6, 77208, Note_on_c, 4, 69, 0
6, 77220, Note_on_c, 4, 72, 127
6, 77268, Note_on_c, 4, 72, 0
6, 78240, Note_on_c, 4, 60, 114
6, 78240, Note_on_c, 4, 48, 111
6, 78288, Note_on_c, 4, 48, 0
6, 78288, Note_on_c, 4, 60, 0
6, 78300, Note_on_c, 4, 67, 108
6, 78300, Note_on_c, 4, 60, 110
6, 78396, Note_on_c, 4, 60, 0
6, 78396, Note_on_c, 4, 67, 0
6, 78420, Note_on_c, 4, 67, 104
6, 78420, Note_on_c, 4, 60, 107
6, 78468, Note_on_c, 4, 60, 0
6, 78468, Note_on_c, 4, 67, 0
6, 78480, Note_on_c, 4, 65, 105
6, 78480, Note_on_c, 4, 57, 107
6, 79116, Note_on_c, 4, 57, 0
6, 79116, Note_on_c, 4, 65, 0
6, 79140, Note_on_c, 4, 65, 114
6, 79140, Note_on_c, 4, 57, 106
6, 79188, Note_on_c, 4, 57, 0
6, 79188, Note_on_c, 4, 65, 0
6, 79200, Note_on_c, 4, 65, 103
6, 79200, Note_on_c, 4, 53, 98
6, 79836, Note_on_c, 4, 53, 0
6, 79836, Note_on_c, 4, 65, 0
6, 79860, Note_on_c, 4, 65, 121
6, 79860, Note_on_c, 4, 69, 118
6, 79908, Note_on_c, 4, 69, 0
6, 79908, Note_on_c, 4, 65, 0
6, 79920, Note_on_c, 4, 65, 116
6, 79920, Note_on_c, 4, 67, 108
6, 80556, Note_on_c, 4, 67, 0
6, 80556, Note_on_c, 4, 65, 0
6, 80580, Note_on_c, 4, 65, 111
6, 80580, Note_on_c, 4, 67, 117
6, 80628, Note_on_c, 4, 67, 0
6, 80628, Note_on_c, 4, 65, 0
6, 80640, Note_on_c, 4, 67, 108
6, 80640, Note_on_c, 4, 60, 103
6, 81276, Note_on_c, 4, 60, 0
6, 81276, Note_on_c, 4, 67, 0
6, 81300, Note_on_c, 4, 67, 107
6, 81348, Note_on_c, 4, 67, 0
6, 81360, Note_on_c, 4, 69, 101
6, 81360, Note_on_c, 4, 57, 98
6, 81648, Note_on_c, 4, 57, 0
6, 81648, Note_on_c, 4, 69, 0
6, 81720, Note_on_c, 4, 69, 110
6, 81720, Note_on_c, 4, 57, 100
6, 82008, Note_on_c, 4, 57, 0
6, 82008, Note_on_c, 4, 69, 0
6, 82080, Note_on_c, 4, 65, 98
6, 82080, Note_on_c, 4, 53, 76
6, 82224, Note_on_c, 4, 53, 0
6, 82224, Note_on_c, 4, 65, 0
6, 82260, Note_on_c, 4, 65, 102
6, 82260, Note_on_c, 4, 53, 99
6, 82404, Note_on_c, 4, 53, 0
6, 82404, Note_on_c, 4, 65, 0
6, 82440, Note_on_c, 4, 65, 101
6, 82440, Note_on_c, 4, 53, 94
6, 82584, Note_on_c, 4, 53, 0
6, 82584, Note_on_c, 4, 65, 0
6, 82620, Note_on_c, 4, 53, 99
6, 82620, Note_on_c, 4, 65, 105
6, 82764, Note_on_c, 4, 65, 0
6, 82764, Note_on_c, 4, 53, 0
6, 82800, Note_on_c, 4, 60, 50
6, 82800, Note_on_c, 4, 48, 84
6, 82944, Note_on_c, 4, 48, 0
6, 82944, Note_on_c, 4, 60, 0
6, 82980, Note_on_c, 4, 60, 103
6, 82980, Note_on_c, 4, 48, 104
6, 83124, Note_on_c, 4, 48, 0
6, 83124, Note_on_c, 4, 60, 0
6, 83160, Note_on_c, 4, 60, 105
6, 83160, Note_on_c, 4, 48, 101
6, 83304, Note_on_c, 4, 48, 0
6, 83304, Note_on_c, 4, 60, 0
6, 83340, Note_on_c, 4, 48, 101
6, 83340, Note_on_c, 4, 60, 107
6, 83484, Note_on_c, 4, 60, 0
6, 83484, Note_on_c, 4, 48, 0
6, 83520, Note_on_c, 4, 60, 101
6, 83520, Note_on_c, 4, 48, 99
6, 84888, Note_on_c, 4, 48, 0
6, 84888, Note_on_c, 4, 60, 0
6, 84960, Note_on_c, 4, 53, 110
6, 85008, Note_on_c, 4, 53, 0
6, 87840, Note_on_c, 4, 65, 101
6, 87840, Note_on_c, 4, 53, 105
6, 87984, Note_on_c, 4, 53, 0
6, 87984, Note_on_c, 4, 65, 0
6, 88020, Note_on_c, 4, 65, 117
6, 88020, Note_on_c, 4, 53, 112
6, 88068, Note_on_c, 4, 53, 0
6, 88068, Note_on_c, 4, 65, 0
6, 88140, Note_on_c, 4, 65, 103
6, 88140, Note_on_c, 4, 53, 103
6, 88188, Note_on_c, 4, 53, 0
6, 88188, Note_on_c, 4, 65, 0
6, 88200, Note_on_c, 4, 65, 106
6, 88200, Note_on_c, 4, 53, 103
6, 88476, Note_on_c, 4, 53, 0
6, 88476, Note_on_c, 4, 65, 0
6, 88500, Note_on_c, 4, 65, 105
6, 88500, Note_on_c, 4, 67, 108
6, 88502, Control_c, 4, 7, 98
6, 88548, Note_on_c, 4, 67, 0
6, 88548, Note_on_c, 4, 65, 0
6, 88560, Note_on_c, 4, 67, 107
6, 88560, Note_on_c, 4, 60, 103
6, 88848, Note_on_c, 4, 60, 0
6, 88848, Note_on_c, 4, 67, 0
6, 88920, Note_on_c, 4, 65, 123
6, 88920, Note_on_c, 4, 69, 121
6, 89016, Note_on_c, 4, 69, 0
6, 89016, Note_on_c, 4, 65, 0
6, 89940, Note_on_c, 4, 60, 116
6, 89940, Note_on_c, 4, 53, 109
6, 89988, Note_on_c, 4, 53, 0
6, 89988, Note_on_c, 4, 60, 0
6, 90000, Note_on_c, 4, 60, 98
6, 90000, Note_on_c, 4, 48, 98
6, 90276, Note_on_c, 4, 48, 0
6, 90276, Note_on_c, 4, 60, 0
6, 90300, Note_on_c, 4, 60, 107
6, 90300, Note_on_c, 4, 48, 96
6, 90348, Note_on_c, 4, 48, 0
6, 90348, Note_on_c, 4, 60, 0
6, 90360, Note_on_c, 4, 53, 112
6, 90360, Note_on_c, 4, 60, 117
6, 90456, Note_on_c, 4, 60, 0
6, 90456, Note_on_c, 4, 53, 0
6, 90660, Note_on_c, 4, 60, 101
6, 90660, Note_on_c, 4, 53, 99
6, 90708, Note_on_c, 4, 53, 0
6, 90708, Note_on_c, 4, 60, 0
6, 90720, Note_on_c, 4, 60, 98
6, 90720, Note_on_c, 4, 48, 104
6, 90996, Note_on_c, 4, 48, 0
6, 90996, Note_on_c, 4, 60, 0
6, 91020, Note_on_c, 4, 60, 121
6, 91020, Note_on_c, 4, 48, 109
6, 91068, Note_on_c, 4, 48, 0
6, 91068, Note_on_c, 4, 60, 0
6, 91080, Note_on_c, 4, 67, 102
6, 91080, Note_on_c, 4, 60, 105
6, 92448, Note_on_c, 4, 60, 0
6, 92448, Note_on_c, 4, 67, 0
6, 92520, Note_on_c, 4, 65, 107
6, 92520, Note_on_c, 4, 57, 101
6, 92522, Control_c, 4, 7, 109
6, 92616, Note_on_c, 4, 57, 0
6, 92616, Note_on_c, 4, 65, 0
6, 93240, Note_on_c, 4, 65, 127
6, 93384, Note_on_c, 4, 65, 0
6, 93420, Note_on_c, 4, 60, 116
6, 93516, Note_on_c, 4, 60, 0
6, 93540, Note_on_c, 4, 69, 127
6, 93588, Note_on_c, 4, 69, 0
6, 93600, Note_on_c, 4, 65, 125
6, 93744, Note_on_c, 4, 65, 0
6, 93780, Note_on_c, 4, 60, 116
6, 93876, Note_on_c, 4, 60, 0
6, 93900, Note_on_c, 4, 69, 118
6, 93948, Note_on_c, 4, 69, 0
6, 93960, Note_on_c, 4, 65, 127
6, 94008, Note_on_c, 4, 65, 0
6, 94020, Note_on_c, 4, 60, 116
6, 94068, Note_on_c, 4, 60, 0
6, 94080, Note_on_c, 4, 69, 120
6, 94128, Note_on_c, 4, 69, 0
6, 94140, Note_on_c, 4, 65, 120
6, 94188, Note_on_c, 4, 65, 0
6, 94200, Note_on_c, 4, 60, 121
6, 94248, Note_on_c, 4, 60, 0
6, 94260, Note_on_c, 4, 69, 121
6, 94308, Note_on_c, 4, 69, 0
6, 94320, Note_on_c, 4, 65, 118
6, 94368, Note_on_c, 4, 65, 0
6, 94380, Note_on_c, 4, 60, 108
6, 94428, Note_on_c, 4, 60, 0
6, 94440, Note_on_c, 4, 69, 125
6, 94488, Note_on_c, 4, 69, 0
6, 94500, Note_on_c, 4, 65, 116
6, 94548, Note_on_c, 4, 65, 0
6, 94560, Note_on_c, 4, 60, 112
6, 94608, Note_on_c, 4, 60, 0
6, 94620, Note_on_c, 4, 69, 123
6, 94622, Control_c, 4, 7, 127
6, 94668, Note_on_c, 4, 69, 0
6, 94680, Note_on_c, 4, 53, 107
6, 94680, Note_on_c, 4, 65, 99
6, 94776, Note_on_c, 4, 65, 0
6, 94776, Note_on_c, 4, 53, 0
6, 100807, Note_on_c, 4, 57, 0
6, 100807, Note_on_c, 4, 65, 0
6, 100807, End_track
7, 0, Start_track
7, 0, MIDI_port, 0
7, 0, Title_t, "Trumpets"
7, 0, Program_c, 5, 56
7, 0, Control_c, 5, 7, 109
7, 8640, Note_on_c, 5, 72, 101
7, 8640, Note_on_c, 5, 60, 102
7, 8928, Note_on_c, 5, 60, 0
7, 8928, Note_on_c, 5, 72, 0
7, 9000, Note_on_c, 5, 60, 101
7, 9000, Note_on_c, 5, 72, 105
7, 9288, Note_on_c, 5, 72, 0
7, 9288, Note_on_c, 5, 60, 0
7, 9360, Note_on_c, 5, 60, 110
7, 9360, Note_on_c, 5, 72, 107
7, 9648, Note_on_c, 5, 72, 0
7, 9648, Note_on_c, 5, 60, 0
7, 9720, Note_on_c, 5, 74, 117
7, 9996, Note_on_c, 5, 74, 0
7, 10020, Note_on_c, 5, 72, 98
7, 10020, Note_on_c, 5, 60, 102
7, 10068, Note_on_c, 5, 60, 0
7, 10068, Note_on_c, 5, 72, 0
7, 10080, Note_on_c, 5, 72, 102
7, 10080, Note_on_c, 5, 60, 105
7, 10356, Note_on_c, 5, 60, 0
7, 10356, Note_on_c, 5, 72, 0
7, 10380, Note_on_c, 5, 72, 103
7, 10380, Note_on_c, 5, 60, 105
7, 10428, Note_on_c, 5, 60, 0
7, 10428, Note_on_c, 5, 72, 0
7, 10440, Note_on_c, 5, 72, 102
7, 10440, Note_on_c, 5, 60, 104
7, 10584, Note_on_c, 5, 60, 0
7, 10584, Note_on_c, 5, 72, 0
7, 10620, Note_on_c, 5, 72, 103
7, 10620, Note_on_c, 5, 60, 105
7, 10716, Note_on_c, 5, 60, 0
7, 10716, Note_on_c, 5, 72, 0
7, 10740, Note_on_c, 5, 72, 103
7, 10740, Note_on_c, 5, 60, 101
7, 10788, Note_on_c, 5, 60, 0
7, 10788, Note_on_c, 5, 72, 0
7, 10920, Note_on_c, 5, 74, 125
7, 10944, Note_on_c, 5, 74, 0
7, 10950, Note_on_c, 5, 74, 125
7, 10974, Note_on_c, 5, 74, 0
7, 10980, Note_on_c, 5, 72, 101
7, 10980, Note_on_c, 5, 60, 101
7, 11076, Note_on_c, 5, 60, 0
7, 11076, Note_on_c, 5, 72, 0
7, 11100, Note_on_c, 5, 60, 103
7, 11100, Note_on_c, 5, 72, 100
7, 11148, Note_on_c, 5, 72, 0
7, 11148, Note_on_c, 5, 60, 0
7, 11820, Note_on_c, 5, 72, 105
7, 11820, Note_on_c, 5, 60, 107
7, 11868, Note_on_c, 5, 60, 0
7, 11868, Note_on_c, 5, 72, 0
7, 11880, Note_on_c, 5, 72, 103
7, 11880, Note_on_c, 5, 60, 103
7, 12384, Note_on_c, 5, 60, 0
7, 12384, Note_on_c, 5, 72, 0
7, 12420, Note_on_c, 5, 72, 105
7, 12420, Note_on_c, 5, 60, 107
7, 12516, Note_on_c, 5, 60, 0
7, 12516, Note_on_c, 5, 72, 0
7, 12540, Note_on_c, 5, 72, 97
7, 12540, Note_on_c, 5, 60, 100
7, 12588, Note_on_c, 5, 60, 0
7, 12588, Note_on_c, 5, 72, 0
7, 13260, Note_on_c, 5, 72, 104
7, 13260, Note_on_c, 5, 60, 103
7, 13308, Note_on_c, 5, 60, 0
7, 13308, Note_on_c, 5, 72, 0
7, 13320, Note_on_c, 5, 72, 102
7, 13320, Note_on_c, 5, 60, 101
7, 13824, Note_on_c, 5, 60, 0
7, 13824, Note_on_c, 5, 72, 0
7, 13860, Note_on_c, 5, 72, 103
7, 13860, Note_on_c, 5, 60, 104
7, 13956, Note_on_c, 5, 60, 0
7, 13956, Note_on_c, 5, 72, 0
7, 13980, Note_on_c, 5, 72, 106
7, 13980, Note_on_c, 5, 60, 102
7, 14028, Note_on_c, 5, 60, 0
7, 14028, Note_on_c, 5, 72, 0
7, 14760, Note_on_c, 5, 67, 107
7, 14760, Note_on_c, 5, 55, 102
7, 15036, Note_on_c, 5, 55, 0
7, 15036, Note_on_c, 5, 67, 0
7, 15480, Note_on_c, 5, 67, 102
7, 15480, Note_on_c, 5, 55, 106
7, 15756, Note_on_c, 5, 55, 0
7, 15756, Note_on_c, 5, 67, 0
7, 16380, Note_on_c, 5, 67, 116
7, 16380, Note_on_c, 5, 55, 99
7, 16656, Note_on_c, 5, 55, 0
7, 16656, Note_on_c, 5, 67, 0
7, 16680, Note_on_c, 5, 67, 112
7, 16680, Note_on_c, 5, 55, 108
7, 16728, Note_on_c, 5, 55, 0
7, 16728, Note_on_c, 5, 67, 0
7, 16740, Note_on_c, 5, 67, 109
7, 16740, Note_on_c, 5, 55, 104
7, 16836, Note_on_c, 5, 55, 0
7, 16836, Note_on_c, 5, 67, 0
7, 16860, Note_on_c, 5, 67, 103
7, 16860, Note_on_c, 5, 55, 105
7, 16908, Note_on_c, 5, 55, 0
7, 16908, Note_on_c, 5, 67, 0
7, 17100, Note_on_c, 5, 57, 102
7, 17100, Note_on_c, 5, 67, 121
7, 17392, Note_on_c, 5, 67, 0
7, 17392, Note_on_c, 5, 57, 0
7, 17400, Note_on_c, 5, 57, 113
7, 17400, Note_on_c, 5, 67, 113
7, 17448, Note_on_c, 5, 67, 0
7, 17448, Note_on_c, 5, 57, 0
7, 17460, Note_on_c, 5, 55, 109
7, 17460, Note_on_c, 5, 67, 107
7, 17556, Note_on_c, 5, 67, 0
7, 17556, Note_on_c, 5, 55, 0
7, 17580, Note_on_c, 5, 55, 108
7, 17580, Note_on_c, 5, 67, 117
7, 17628, Note_on_c, 5, 67, 0
7, 17628, Note_on_c, 5, 55, 0
7, 17640, Note_on_c, 5, 60, 127
7, 17736, Note_on_c, 5, 60, 0
7, 18180, Note_on_c, 5, 67, 127
7, 18180, Note_on_c, 5, 55, 113
7, 18276, Note_on_c, 5, 55, 0
7, 18276, Note_on_c, 5, 67, 0
7, 18300, Note_on_c, 5, 67, 113
7, 18300, Note_on_c, 5, 55, 108
7, 18348, Note_on_c, 5, 55, 0
7, 18348, Note_on_c, 5, 67, 0
7, 18360, Note_on_c, 5, 60, 127
7, 18408, Note_on_c, 5, 60, 0
7, 18900, Note_on_c, 5, 67, 103
7, 18900, Note_on_c, 5, 55, 103
7, 18996, Note_on_c, 5, 55, 0
7, 18996, Note_on_c, 5, 67, 0
7, 19020, Note_on_c, 5, 67, 127
7, 19020, Note_on_c, 5, 55, 109
7, 19068, Note_on_c, 5, 55, 0
7, 19068, Note_on_c, 5, 67, 0
7, 19080, Note_on_c, 5, 64, 113
7, 19080, Note_on_c, 5, 72, 112
7, 19224, Note_on_c, 5, 72, 0
7, 19224, Note_on_c, 5, 64, 0
7, 19260, Note_on_c, 5, 64, 105
7, 19260, Note_on_c, 5, 67, 109
7, 19308, Note_on_c, 5, 67, 0
7, 19308, Note_on_c, 5, 64, 0
7, 19380, Note_on_c, 5, 72, 125
7, 19380, Note_on_c, 5, 60, 121
7, 19428, Note_on_c, 5, 60, 0
7, 19428, Note_on_c, 5, 72, 0
7, 19440, Note_on_c, 5, 72, 102
7, 19440, Note_on_c, 5, 60, 98
7, 19584, Note_on_c, 5, 60, 0
7, 19584, Note_on_c, 5, 72, 0
7, 19620, Note_on_c, 5, 72, 117
7, 19620, Note_on_c, 5, 60, 112
7, 19668, Note_on_c, 5, 60, 0
7, 19668, Note_on_c, 5, 72, 0
7, 19740, Note_on_c, 5, 72, 127
7, 19740, Note_on_c, 5, 60, 116
7, 19788, Note_on_c, 5, 60, 0
7, 19788, Note_on_c, 5, 72, 0
7, 19800, Note_on_c, 5, 67, 127
7, 19800, Note_on_c, 5, 55, 110
7, 19848, Note_on_c, 5, 55, 0
7, 19848, Note_on_c, 5, 67, 0
7, 27660, Note_on_c, 5, 60, 111
7, 27660, Note_on_c, 5, 72, 100
7, 27708, Note_on_c, 5, 72, 0
7, 27708, Note_on_c, 5, 60, 0
7, 27720, Note_on_c, 5, 72, 110
7, 27720, Note_on_c, 5, 60, 107
7, 27768, Note_on_c, 5, 60, 0
7, 27768, Note_on_c, 5, 72, 0
7, 27840, Note_on_c, 5, 72, 108
7, 27840, Note_on_c, 5, 60, 100
7, 27888, Note_on_c, 5, 60, 0
7, 27888, Note_on_c, 5, 72, 0
7, 27900, Note_on_c, 5, 72, 125
7, 27900, Note_on_c, 5, 60, 118
7, 27948, Note_on_c, 5, 60, 0
7, 27948, Note_on_c, 5, 72, 0
7, 28020, Note_on_c, 5, 72, 105
7, 28020, Note_on_c, 5, 60, 104
7, 28068, Note_on_c, 5, 60, 0
7, 28068, Note_on_c, 5, 72, 0
7, 28080, Note_on_c, 5, 72, 127
7, 28080, Note_on_c, 5, 60, 118
7, 28192, Note_on_c, 5, 60, 0
7, 28192, Note_on_c, 5, 72, 0
7, 35940, Note_on_c, 5, 67, 121
7, 35940, Note_on_c, 5, 55, 109
7, 35988, Note_on_c, 5, 55, 0
7, 35988, Note_on_c, 5, 67, 0
7, 36000, Note_on_c, 5, 67, 111
7, 36000, Note_on_c, 5, 55, 99
7, 36144, Note_on_c, 5, 55, 0
7, 36144, Note_on_c, 5, 67, 0
7, 36180, Note_on_c, 5, 67, 103
7, 36180, Note_on_c, 5, 55, 101
7, 36228, Note_on_c, 5, 55, 0
7, 36228, Note_on_c, 5, 67, 0
7, 36300, Note_on_c, 5, 67, 103
7, 36300, Note_on_c, 5, 55, 102
7, 36348, Note_on_c, 5, 55, 0
7, 36348, Note_on_c, 5, 67, 0
7, 36360, Note_on_c, 5, 72, 111
7, 36360, Note_on_c, 5, 60, 103
7, 36504, Note_on_c, 5, 60, 0
7, 36504, Note_on_c, 5, 72, 0
7, 36540, Note_on_c, 5, 67, 107
7, 36540, Note_on_c, 5, 55, 104
7, 36588, Note_on_c, 5, 55, 0
7, 36588, Note_on_c, 5, 67, 0
7, 37380, Note_on_c, 5, 67, 101
7, 37380, Note_on_c, 5, 55, 101
7, 37428, Note_on_c, 5, 55, 0
7, 37428, Note_on_c, 5, 67, 0
7, 37440, Note_on_c, 5, 67, 127
7, 37440, Note_on_c, 5, 55, 111
7, 37584, Note_on_c, 5, 55, 0
7, 37584, Note_on_c, 5, 67, 0
7, 37620, Note_on_c, 5, 67, 110
7, 37620, Note_on_c, 5, 55, 102
7, 37668, Note_on_c, 5, 55, 0
7, 37668, Note_on_c, 5, 67, 0
7, 37740, Note_on_c, 5, 67, 127
7, 37740, Note_on_c, 5, 55, 107
7, 37788, Note_on_c, 5, 55, 0
7, 37788, Note_on_c, 5, 67, 0
7, 37800, Note_on_c, 5, 60, 105
7, 37800, Note_on_c, 5, 72, 109
7, 37944, Note_on_c, 5, 72, 0
7, 37944, Note_on_c, 5, 60, 0
7, 37980, Note_on_c, 5, 67, 114
7, 37980, Note_on_c, 5, 55, 102
7, 38028, Note_on_c, 5, 55, 0
7, 38028, Note_on_c, 5, 67, 0
7, 38100, Note_on_c, 5, 76, 111
7, 38100, Note_on_c, 5, 64, 104
7, 38148, Note_on_c, 5, 64, 0
7, 38148, Note_on_c, 5, 76, 0
7, 38160, Note_on_c, 5, 72, 105
7, 38160, Note_on_c, 5, 60, 103
7, 38304, Note_on_c, 5, 60, 0
7, 38304, Note_on_c, 5, 72, 0
7, 38340, Note_on_c, 5, 67, 110
7, 38340, Note_on_c, 5, 55, 116
7, 38388, Note_on_c, 5, 55, 0
7, 38388, Note_on_c, 5, 67, 0
7, 38460, Note_on_c, 5, 76, 108
7, 38460, Note_on_c, 5, 64, 103
7, 38508, Note_on_c, 5, 64, 0
7, 38508, Note_on_c, 5, 76, 0
7, 38520, Note_on_c, 5, 72, 107
7, 38520, Note_on_c, 5, 60, 102
7, 38664, Note_on_c, 5, 60, 0
7, 38664, Note_on_c, 5, 72, 0
7, 38700, Note_on_c, 5, 67, 108
7, 38700, Note_on_c, 5, 55, 114
7, 38748, Note_on_c, 5, 55, 0
7, 38748, Note_on_c, 5, 67, 0
7, 38820, Note_on_c, 5, 76, 114
7, 38820, Note_on_c, 5, 64, 96
7, 38868, Note_on_c, 5, 64, 0
7, 38868, Note_on_c, 5, 76, 0
7, 41400, Note_on_c, 5, 60, 100
7, 41400, Note_on_c, 5, 72, 100
7, 41760, Note_on_c, 5, 72, 0
7, 41760, Note_on_c, 5, 60, 0
7, 41760, Note_on_c, 5, 72, 120
7, 41760, Note_on_c, 5, 60, 118
7, 41856, Note_on_c, 5, 60, 0
7, 41856, Note_on_c, 5, 72, 0
7, 47520, Note_on_c, 5, 72, 102
7, 47520, Note_on_c, 5, 60, 102
7, 47520, Control_c, 5, 7, 124
7, 47664, Note_on_c, 5, 60, 0
7, 47664, Note_on_c, 5, 72, 0
7, 47700, Note_on_c, 5, 72, 102
7, 47700, Note_on_c, 5, 60, 104
7, 47796, Note_on_c, 5, 60, 0
7, 47796, Note_on_c, 5, 72, 0
7, 47820, Note_on_c, 5, 60, 107
7, 47820, Note_on_c, 5, 72, 105
7, 47868, Note_on_c, 5, 72, 0
7, 47868, Note_on_c, 5, 60, 0
7, 47880, Note_on_c, 5, 72, 103
7, 47880, Note_on_c, 5, 60, 98
7, 48024, Note_on_c, 5, 60, 0
7, 48024, Note_on_c, 5, 72, 0
7, 48060, Note_on_c, 5, 72, 99
7, 48060, Note_on_c, 5, 60, 98
7, 48156, Note_on_c, 5, 60, 0
7, 48156, Note_on_c, 5, 72, 0
7, 48180, Note_on_c, 5, 72, 102
7, 48180, Note_on_c, 5, 60, 104
7, 48228, Note_on_c, 5, 60, 0
7, 48228, Note_on_c, 5, 72, 0
7, 48240, Note_on_c, 5, 72, 101
7, 48240, Note_on_c, 5, 60, 103
7, 48384, Note_on_c, 5, 60, 0
7, 48384, Note_on_c, 5, 72, 0
7, 48420, Note_on_c, 5, 72, 105
7, 48420, Note_on_c, 5, 60, 102
7, 48516, Note_on_c, 5, 60, 0
7, 48516, Note_on_c, 5, 72, 0
7, 48540, Note_on_c, 5, 72, 106
7, 48540, Note_on_c, 5, 60, 109
7, 48588, Note_on_c, 5, 60, 0
7, 48588, Note_on_c, 5, 72, 0
7, 48600, Note_on_c, 5, 74, 127
7, 48696, Note_on_c, 5, 74, 0
7, 48900, Note_on_c, 5, 72, 107
7, 48900, Note_on_c, 5, 60, 104
7, 48948, Note_on_c, 5, 60, 0
7, 48948, Note_on_c, 5, 72, 0
7, 48960, Note_on_c, 5, 72, 101
7, 48960, Note_on_c, 5, 60, 103
7, 49236, Note_on_c, 5, 60, 0
7, 49236, Note_on_c, 5, 72, 0
7, 49260, Note_on_c, 5, 72, 120
7, 49260, Note_on_c, 5, 60, 108
7, 49308, Note_on_c, 5, 60, 0
7, 49308, Note_on_c, 5, 72, 0
7, 49320, Note_on_c, 5, 72, 104
7, 49320, Note_on_c, 5, 60, 101
7, 49464, Note_on_c, 5, 60, 0
7, 49464, Note_on_c, 5, 72, 0
7, 49500, Note_on_c, 5, 74, 127
7, 49548, Note_on_c, 5, 74, 0
7, 49860, Note_on_c, 5, 72, 99
7, 49860, Note_on_c, 5, 60, 107
7, 49956, Note_on_c, 5, 60, 0
7, 49956, Note_on_c, 5, 72, 0
7, 49980, Note_on_c, 5, 72, 106
7, 49980, Note_on_c, 5, 60, 104
7, 50028, Note_on_c, 5, 60, 0
7, 50028, Note_on_c, 5, 72, 0
7, 50040, Note_on_c, 5, 72, 105
7, 50040, Note_on_c, 5, 60, 101
7, 50088, Note_on_c, 5, 60, 0
7, 50088, Note_on_c, 5, 72, 0
7, 50700, Note_on_c, 5, 72, 110
7, 50700, Note_on_c, 5, 60, 113
7, 50748, Note_on_c, 5, 60, 0
7, 50748, Note_on_c, 5, 72, 0
7, 50760, Note_on_c, 5, 72, 113
7, 50760, Note_on_c, 5, 60, 100
7, 51264, Note_on_c, 5, 60, 0
7, 51264, Note_on_c, 5, 72, 0
7, 51300, Note_on_c, 5, 72, 101
7, 51300, Note_on_c, 5, 60, 100
7, 51396, Note_on_c, 5, 60, 0
7, 51396, Note_on_c, 5, 72, 0
7, 51420, Note_on_c, 5, 72, 105
7, 51420, Note_on_c, 5, 60, 111
7, 51468, Note_on_c, 5, 60, 0
7, 51468, Note_on_c, 5, 72, 0
7, 53640, Note_on_c, 5, 72, 105
7, 53640, Note_on_c, 5, 60, 102
7, 53916, Note_on_c, 5, 60, 0
7, 53916, Note_on_c, 5, 72, 0
7, 54360, Note_on_c, 5, 72, 103
7, 54360, Note_on_c, 5, 60, 100
7, 54636, Note_on_c, 5, 60, 0
7, 54636, Note_on_c, 5, 72, 0
7, 55080, Note_on_c, 5, 72, 103
7, 55080, Note_on_c, 5, 60, 109
7, 55176, Note_on_c, 5, 60, 0
7, 55176, Note_on_c, 5, 72, 0
7, 55260, Note_on_c, 5, 72, 117
7, 55260, Note_on_c, 5, 60, 109
7, 55356, Note_on_c, 5, 60, 0
7, 55356, Note_on_c, 5, 72, 0
7, 55800, Note_on_c, 5, 72, 106
7, 55800, Note_on_c, 5, 60, 107
7, 55896, Note_on_c, 5, 60, 0
7, 55896, Note_on_c, 5, 72, 0
7, 55980, Note_on_c, 5, 60, 109
7, 55980, Note_on_c, 5, 72, 100
7, 56076, Note_on_c, 5, 72, 0
7, 56076, Note_on_c, 5, 60, 0
7, 57060, Note_on_c, 5, 72, 103
7, 57060, Note_on_c, 5, 60, 105
7, 57156, Note_on_c, 5, 60, 0
7, 57156, Note_on_c, 5, 72, 0
7, 57180, Note_on_c, 5, 72, 104
7, 57180, Note_on_c, 5, 60, 103
7, 57228, Note_on_c, 5, 60, 0
7, 57228, Note_on_c, 5, 72, 0
7, 57780, Note_on_c, 5, 72, 99
7, 57780, Note_on_c, 5, 60, 104
7, 57876, Note_on_c, 5, 60, 0
7, 57876, Note_on_c, 5, 72, 0
7, 57900, Note_on_c, 5, 72, 127
7, 57900, Note_on_c, 5, 60, 123
7, 57948, Note_on_c, 5, 60, 0
7, 57948, Note_on_c, 5, 72, 0
7, 57960, Note_on_c, 5, 72, 127
7, 57960, Note_on_c, 5, 60, 109
7, 58104, Note_on_c, 5, 60, 0
7, 58104, Note_on_c, 5, 72, 0
7, 58140, Note_on_c, 5, 72, 112
7, 58140, Note_on_c, 5, 60, 118
7, 58188, Note_on_c, 5, 60, 0
7, 58188, Note_on_c, 5, 72, 0
7, 58680, Note_on_c, 5, 72, 121
7, 58680, Note_on_c, 5, 60, 109
7, 58728, Note_on_c, 5, 60, 0
7, 58728, Note_on_c, 5, 72, 0
7, 62580, Note_on_c, 5, 72, 113
7, 62580, Note_on_c, 5, 60, 107
7, 62916, Note_on_c, 5, 60, 0
7, 62916, Note_on_c, 5, 72, 0
7, 62940, Note_on_c, 5, 72, 116
7, 62940, Note_on_c, 5, 60, 100
7, 63096, Note_on_c, 5, 60, 0
7, 63096, Note_on_c, 5, 72, 0
7, 63120, Note_on_c, 5, 72, 101
7, 63120, Note_on_c, 5, 60, 106
7, 63276, Note_on_c, 5, 60, 0
7, 63276, Note_on_c, 5, 72, 0
7, 63300, Note_on_c, 5, 72, 102
7, 63300, Note_on_c, 5, 60, 105
7, 63348, Note_on_c, 5, 60, 0
7, 63348, Note_on_c, 5, 72, 0
7, 68040, Note_on_c, 5, 72, 116
7, 68040, Note_on_c, 5, 60, 110
7, 68676, Note_on_c, 5, 60, 0
7, 68676, Note_on_c, 5, 72, 0
7, 68760, Note_on_c, 5, 74, 127
7, 69396, Note_on_c, 5, 74, 0
7, 69480, Note_on_c, 5, 67, 118
7, 69480, Note_on_c, 5, 55, 112
7, 70068, Note_on_c, 5, 55, 0
7, 70068, Note_on_c, 5, 67, 0
7, 72660, Note_on_c, 5, 72, 127
7, 72660, Note_on_c, 5, 60, 118
7, 72996, Note_on_c, 5, 60, 0
7, 72996, Note_on_c, 5, 72, 0
7, 73020, Note_on_c, 5, 72, 121
7, 73020, Note_on_c, 5, 60, 118
7, 73176, Note_on_c, 5, 60, 0
7, 73176, Note_on_c, 5, 72, 0
7, 73200, Note_on_c, 5, 72, 116
7, 73200, Note_on_c, 5, 60, 112
7, 73356, Note_on_c, 5, 60, 0
7, 73356, Note_on_c, 5, 72, 0
7, 73380, Note_on_c, 5, 60, 117
7, 73380, Note_on_c, 5, 72, 116
7, 73428, Note_on_c, 5, 72, 0
7, 73428, Note_on_c, 5, 60, 0
7, 78480, Note_on_c, 5, 60, 107
7, 78480, Note_on_c, 5, 72, 104
7, 79116, Note_on_c, 5, 72, 0
7, 79116, Note_on_c, 5, 60, 0
7, 79200, Note_on_c, 5, 74, 127
7, 79836, Note_on_c, 5, 74, 0
7, 79920, Note_on_c, 5, 67, 102
7, 79920, Note_on_c, 5, 55, 114
7, 80556, Note_on_c, 5, 55, 0
7, 80556, Note_on_c, 5, 67, 0
7, 80640, Note_on_c, 5, 72, 121
7, 80640, Note_on_c, 5, 60, 120
7, 81276, Note_on_c, 5, 60, 0
7, 81276, Note_on_c, 5, 72, 0
7, 81360, Note_on_c, 5, 72, 108
7, 81360, Note_on_c, 5, 60, 109
7, 81996, Note_on_c, 5, 60, 0
7, 81996, Note_on_c, 5, 72, 0
7, 82260, Note_on_c, 5, 74, 127
7, 82404, Note_on_c, 5, 74, 0
7, 82620, Note_on_c, 5, 74, 127
7, 82764, Note_on_c, 5, 74, 0
7, 91080, Note_on_c, 5, 60, 108
7, 91080, Note_on_c, 5, 72, 127
7, 92448, Note_on_c, 5, 72, 0
7, 92448, Note_on_c, 5, 60, 0
7, 94620, Note_on_c, 5, 72, 105
7, 94620, Note_on_c, 5, 60, 103
7, 94668, Note_on_c, 5, 60, 0
7, 94668, Note_on_c, 5, 72, 0
7, 94680, Note_on_c, 5, 72, 102
7, 94680, Note_on_c, 5, 60, 109
7, 94776, Note_on_c, 5, 60, 0
7, 94776, Note_on_c, 5, 72, 0
7, 94776, End_track
8, 0, Start_track
8, 0, MIDI_port, 0
8, 0, Title_t, "Trombone"
8, 0, Program_c, 6, 57
8, 0, Control_c, 6, 7, 109
8, 8640, Note_on_c, 6, 57, 127
8, 8640, Note_on_c, 6, 69, 127
8, 8928, Note_on_c, 6, 69, 0
8, 8928, Note_on_c, 6, 57, 0
8, 9000, Note_on_c, 6, 57, 127
8, 9000, Note_on_c, 6, 69, 127
8, 9288, Note_on_c, 6, 69, 0
8, 9288, Note_on_c, 6, 57, 0
8, 9360, Note_on_c, 6, 69, 118
8, 9360, Note_on_c, 6, 57, 123
8, 9648, Note_on_c, 6, 57, 0
8, 9648, Note_on_c, 6, 69, 0
8, 9720, Note_on_c, 6, 70, 115
8, 9720, Note_on_c, 6, 58, 100
8, 9996, Note_on_c, 6, 58, 0
8, 9996, Note_on_c, 6, 70, 0
8, 10080, Note_on_c, 6, 67, 118
8, 10080, Note_on_c, 6, 70, 101
8, 10224, Note_on_c, 6, 70, 0
8, 10224, Note_on_c, 6, 67, 0
8, 10260, Note_on_c, 6, 67, 112
8, 10356, Note_on_c, 6, 67, 0
8, 10440, Note_on_c, 6, 65, 123
8, 10440, Note_on_c, 6, 69, 117
8, 10584, Note_on_c, 6, 69, 0
8, 10584, Note_on_c, 6, 65, 0
8, 10620, Note_on_c, 6, 65, 127
8, 10716, Note_on_c, 6, 65, 0
8, 10980, Note_on_c, 6, 67, 113
8, 10980, Note_on_c, 6, 48, 125
8, 11124, Note_on_c, 6, 48, 0
8, 11124, Note_on_c, 6, 67, 0
8, 11160, Note_on_c, 6, 53, 113
8, 11160, Note_on_c, 6, 65, 123
8, 11272, Note_on_c, 6, 65, 0
8, 11272, Note_on_c, 6, 53, 0
8, 14760, Note_on_c, 6, 67, 113
8, 14760, Note_on_c, 6, 64, 110
8, 15036, Note_on_c, 6, 64, 0
8, 15036, Note_on_c, 6, 67, 0
8, 15480, Note_on_c, 6, 65, 107
8, 15480, Note_on_c, 6, 62, 110
8, 15756, Note_on_c, 6, 62, 0
8, 15756, Note_on_c, 6, 65, 0
8, 16200, Note_on_c, 6, 60, 108
8, 16200, Note_on_c, 6, 64, 106
8, 16656, Note_on_c, 6, 64, 0
8, 16656, Note_on_c, 6, 60, 0
8, 16920, Note_on_c, 6, 62, 109
8, 16920, Note_on_c, 6, 65, 111
8, 17376, Note_on_c, 6, 65, 0
8, 17376, Note_on_c, 6, 62, 0
8, 19080, Note_on_c, 6, 72, 103
8, 19080, Note_on_c, 6, 64, 112
8, 19224, Note_on_c, 6, 64, 0
8, 19224, Note_on_c, 6, 72, 0
8, 19260, Note_on_c, 6, 67, 102
8, 19260, Note_on_c, 6, 64, 99
8, 19356, Note_on_c, 6, 64, 0
8, 19356, Note_on_c, 6, 67, 0
8, 19440, Note_on_c, 6, 74, 103
8, 19440, Note_on_c, 6, 65, 98
8, 19584, Note_on_c, 6, 65, 0
8, 19584, Note_on_c, 6, 74, 0
8, 19620, Note_on_c, 6, 69, 114
8, 19620, Note_on_c, 6, 65, 109
8, 19668, Note_on_c, 6, 65, 0
8, 19668, Note_on_c, 6, 69, 0
8, 36000, Note_on_c, 6, 71, 118
8, 36000, Note_on_c, 6, 62, 108
8, 36096, Note_on_c, 6, 62, 0
8, 36096, Note_on_c, 6, 71, 0
8, 36360, Note_on_c, 6, 72, 127
8, 36360, Note_on_c, 6, 64, 116
8, 36456, Note_on_c, 6, 64, 0
8, 36456, Note_on_c, 6, 72, 0
8, 37440, Note_on_c, 6, 71, 127
8, 37440, Note_on_c, 6, 62, 111
8, 37536, Note_on_c, 6, 62, 0
8, 37536, Note_on_c, 6, 71, 0
8, 37800, Note_on_c, 6, 72, 127
8, 37800, Note_on_c, 6, 64, 120
8, 37896, Note_on_c, 6, 64, 0
8, 37896, Note_on_c, 6, 72, 0
8, 38160, Note_on_c, 6, 72, 127
8, 38160, Note_on_c, 6, 64, 108
8, 38436, Note_on_c, 6, 64, 0
8, 38436, Note_on_c, 6, 72, 0
8, 38520, Note_on_c, 6, 72, 104
8, 38520, Note_on_c, 6, 64, 98
8, 38796, Note_on_c, 6, 64, 0
8, 38796, Note_on_c, 6, 72, 0
8, 47520, Note_on_c, 6, 69, 127
8, 47520, Note_on_c, 6, 65, 127
8, 47616, Note_on_c, 6, 65, 0
8, 47616, Note_on_c, 6, 69, 0
8, 47880, Note_on_c, 6, 65, 127
8, 47880, Note_on_c, 6, 69, 127
8, 47976, Note_on_c, 6, 69, 0
8, 47976, Note_on_c, 6, 65, 0
8, 48240, Note_on_c, 6, 65, 127
8, 48240, Note_on_c, 6, 69, 127
8, 48336, Note_on_c, 6, 69, 0
8, 48336, Note_on_c, 6, 65, 0
8, 48600, Note_on_c, 6, 65, 127
8, 48600, Note_on_c, 6, 70, 127
8, 48696, Note_on_c, 6, 70, 0
8, 48696, Note_on_c, 6, 65, 0
8, 48960, Note_on_c, 6, 67, 127
8, 48960, Note_on_c, 6, 70, 123
8, 49056, Note_on_c, 6, 70, 0
8, 49056, Note_on_c, 6, 67, 0
8, 49320, Note_on_c, 6, 69, 127
8, 49320, Note_on_c, 6, 57, 127
8, 49416, Note_on_c, 6, 57, 0
8, 49416, Note_on_c, 6, 69, 0
8, 49500, Note_on_c, 6, 69, 113
8, 49500, Note_on_c, 6, 62, 108
8, 49596, Note_on_c, 6, 62, 0
8, 49596, Note_on_c, 6, 69, 0
8, 49680, Note_on_c, 6, 67, 127
8, 49680, Note_on_c, 6, 58, 99
8, 49776, Note_on_c, 6, 58, 0
8, 49776, Note_on_c, 6, 67, 0
8, 49860, Note_on_c, 6, 67, 127
8, 49860, Note_on_c, 6, 60, 110
8, 49956, Note_on_c, 6, 60, 0
8, 49956, Note_on_c, 6, 67, 0
8, 50040, Note_on_c, 6, 65, 127
8, 50040, Note_on_c, 6, 53, 127
8, 50136, Note_on_c, 6, 53, 0
8, 50136, Note_on_c, 6, 65, 0
8, 53640, Note_on_c, 6, 65, 121
8, 53640, Note_on_c, 6, 69, 116
8, 53916, Note_on_c, 6, 69, 0
8, 53916, Note_on_c, 6, 65, 0
8, 54360, Note_on_c, 6, 70, 93
8, 54360, Note_on_c, 6, 64, 127
8, 54636, Note_on_c, 6, 64, 0
8, 54636, Note_on_c, 6, 70, 0
8, 55080, Note_on_c, 6, 65, 127
8, 55080, Note_on_c, 6, 69, 127
8, 55176, Note_on_c, 6, 69, 0
8, 55176, Note_on_c, 6, 65, 0
8, 55260, Note_on_c, 6, 65, 127
8, 55260, Note_on_c, 6, 69, 127
8, 55356, Note_on_c, 6, 69, 0
8, 55356, Note_on_c, 6, 65, 0
8, 55800, Note_on_c, 6, 70, 113
8, 55800, Note_on_c, 6, 64, 123
8, 55896, Note_on_c, 6, 64, 0
8, 55896, Note_on_c, 6, 70, 0
8, 55980, Note_on_c, 6, 70, 113
8, 55980, Note_on_c, 6, 64, 97
8, 56092, Note_on_c, 6, 64, 0
8, 56092, Note_on_c, 6, 70, 0
8, 56520, Note_on_c, 6, 65, 127
8, 56520, Note_on_c, 6, 53, 113
8, 56616, Note_on_c, 6, 53, 0
8, 56616, Note_on_c, 6, 65, 0
8, 57240, Note_on_c, 6, 65, 127
8, 57240, Note_on_c, 6, 53, 118
8, 57336, Note_on_c, 6, 53, 0
8, 57336, Note_on_c, 6, 65, 0
8, 57960, Note_on_c, 6, 65, 114
8, 57960, Note_on_c, 6, 69, 114
8, 58104, Note_on_c, 6, 69, 0
8, 58104, Note_on_c, 6, 65, 0
8, 58140, Note_on_c, 6, 65, 116
8, 58140, Note_on_c, 6, 69, 127
8, 58236, Note_on_c, 6, 69, 0
8, 58236, Note_on_c, 6, 65, 0
8, 58320, Note_on_c, 6, 70, 107
8, 58320, Note_on_c, 6, 58, 97
8, 58464, Note_on_c, 6, 58, 0
8, 58464, Note_on_c, 6, 70, 0
8, 58500, Note_on_c, 6, 70, 107
8, 58500, Note_on_c, 6, 58, 97
8, 58596, Note_on_c, 6, 58, 0
8, 58596, Note_on_c, 6, 70, 0
8, 58680, Note_on_c, 6, 60, 109
8, 58680, Note_on_c, 6, 69, 125
8, 58776, Note_on_c, 6, 69, 0
8, 58776, Note_on_c, 6, 60, 0
8, 68040, Note_on_c, 6, 53, 127
8, 68040, Note_on_c, 6, 69, 127
8, 68676, Note_on_c, 6, 69, 0
8, 68676, Note_on_c, 6, 53, 0
8, 68760, Note_on_c, 6, 69, 120
8, 68760, Note_on_c, 6, 62, 109
8, 69396, Note_on_c, 6, 62, 0
8, 69396, Note_on_c, 6, 69, 0
8, 69480, Note_on_c, 6, 74, 101
8, 69480, Note_on_c, 6, 62, 105
8, 69936, Note_on_c, 6, 62, 0
8, 69936, Note_on_c, 6, 74, 0
8, 78480, Note_on_c, 6, 53, 127
8, 78480, Note_on_c, 6, 69, 127
8, 79116, Note_on_c, 6, 69, 0
8, 79116, Note_on_c, 6, 53, 0
8, 79200, Note_on_c, 6, 69, 127
8, 79200, Note_on_c, 6, 50, 127
8, 79836, Note_on_c, 6, 50, 0
8, 79836, Note_on_c, 6, 69, 0
8, 79920, Note_on_c, 6, 71, 127
8, 79920, Note_on_c, 6, 55, 127
8, 80208, Note_on_c, 6, 55, 0
8, 80208, Note_on_c, 6, 71, 0
8, 80280, Note_on_c, 6, 55, 127
8, 80280, Note_on_c, 6, 71, 127
8, 80424, Note_on_c, 6, 71, 0
8, 80460, Note_on_c, 6, 71, 127
8, 80556, Note_on_c, 6, 71, 0
8, 80556, Note_on_c, 6, 55, 0
8, 80640, Note_on_c, 6, 72, 127
8, 80640, Note_on_c, 6, 48, 125
8, 81276, Note_on_c, 6, 48, 0
8, 81276, Note_on_c, 6, 72, 0
8, 81360, Note_on_c, 6, 72, 127
8, 81360, Note_on_c, 6, 53, 127
8, 82008, Note_on_c, 6, 53, 0
8, 82008, Note_on_c, 6, 72, 0
8, 82080, Note_on_c, 6, 70, 115
8, 82080, Note_on_c, 6, 53, 127
8, 82224, Note_on_c, 6, 53, 0
8, 82224, Note_on_c, 6, 70, 0
8, 82260, Note_on_c, 6, 62, 118
8, 82260, Note_on_c, 6, 65, 120
8, 82404, Note_on_c, 6, 65, 0
8, 82404, Note_on_c, 6, 62, 0
8, 82440, Note_on_c, 6, 62, 123
8, 82440, Note_on_c, 6, 65, 127
8, 82584, Note_on_c, 6, 65, 0
8, 82584, Note_on_c, 6, 62, 0
8, 82620, Note_on_c, 6, 65, 127
8, 82620, Note_on_c, 6, 62, 123
8, 82764, Note_on_c, 6, 62, 0
8, 82764, Note_on_c, 6, 65, 0
8, 91440, Note_on_c, 6, 67, 120
8, 91440, Note_on_c, 6, 70, 113
8, 91896, Note_on_c, 6, 70, 0
8, 91896, Note_on_c, 6, 67, 0
8, 94680, Note_on_c, 6, 53, 127
8, 94680, Note_on_c, 6, 65, 97
8, 94776, Note_on_c, 6, 65, 0
8, 94776, Note_on_c, 6, 53, 0
8, 94776, End_track
9, 0, Start_track
9, 0, MIDI_port, 0
9, 0, Title_t, "Violin I"
9, 0, Program_c, 10, 48
9, 0, Control_c, 10, 7, 80
9, 0, Note_on_c, 10, 60, 102
9, 96, Note_on_c, 10, 60, 0
9, 2880, Note_on_c, 10, 81, 107
9, 3024, Note_on_c, 10, 81, 0
9, 3060, Note_on_c, 10, 77, 114
9, 3156, Note_on_c, 10, 77, 0
9, 3180, Note_on_c, 10, 84, 102
9, 3228, Note_on_c, 10, 84, 0
9, 3240, Note_on_c, 10, 81, 105
9, 3384, Note_on_c, 10, 81, 0
9, 3420, Note_on_c, 10, 77, 104
9, 3516, Note_on_c, 10, 77, 0
9, 3540, Note_on_c, 10, 72, 100
9, 3588, Note_on_c, 10, 72, 0
9, 3600, Note_on_c, 10, 77, 114
9, 3696, Note_on_c, 10, 77, 0
9, 3720, Note_on_c, 10, 81, 117
9, 3768, Note_on_c, 10, 81, 0
9, 3780, Note_on_c, 10, 84, 120
9, 3876, Note_on_c, 10, 84, 0
9, 3900, Note_on_c, 10, 81, 98
9, 3948, Note_on_c, 10, 81, 0
9, 3960, Note_on_c, 10, 82, 79
9, 4236, Note_on_c, 10, 82, 0
9, 4260, Note_on_c, 10, 79, 112
9, 4308, Note_on_c, 10, 79, 0
9, 4320, Note_on_c, 10, 82, 99
9, 4464, Note_on_c, 10, 82, 0
9, 4500, Note_on_c, 10, 79, 109
9, 4596, Note_on_c, 10, 79, 0
9, 4620, Note_on_c, 10, 84, 79
9, 4668, Note_on_c, 10, 84, 0
9, 4680, Note_on_c, 10, 81, 116
9, 4824, Note_on_c, 10, 81, 0
9, 4860, Note_on_c, 10, 77, 109
9, 4956, Note_on_c, 10, 77, 0
9, 4980, Note_on_c, 10, 81, 106
9, 5028, Note_on_c, 10, 81, 0
9, 5040, Note_on_c, 10, 79, 127
9, 5136, Note_on_c, 10, 79, 0
9, 5160, Note_on_c, 10, 74, 117
9, 5208, Note_on_c, 10, 74, 0
9, 5220, Note_on_c, 10, 76, 112
9, 5316, Note_on_c, 10, 76, 0
9, 5340, Note_on_c, 10, 72, 112
9, 5388, Note_on_c, 10, 72, 0
9, 5400, Note_on_c, 10, 72, 99
9, 5448, Note_on_c, 10, 72, 0
9, 5460, Note_on_c, 10, 77, 98
9, 5676, Note_on_c, 10, 77, 0
9, 5700, Note_on_c, 10, 81, 107
9, 5748, Note_on_c, 10, 81, 0
9, 5760, Note_on_c, 10, 77, 109
9, 5784, Note_on_c, 10, 77, 0
9, 5790, Note_on_c, 10, 81, 109
9, 5814, Note_on_c, 10, 81, 0
9, 5820, Note_on_c, 10, 77, 118
9, 5844, Note_on_c, 10, 77, 0
9, 5850, Note_on_c, 10, 81, 123
9, 5874, Note_on_c, 10, 81, 0
9, 5880, Note_on_c, 10, 77, 116
9, 5904, Note_on_c, 10, 77, 0
9, 5910, Note_on_c, 10, 81, 125
9, 5934, Note_on_c, 10, 81, 0
9, 5940, Note_on_c, 10, 77, 112
9, 5964, Note_on_c, 10, 77, 0
9, 5970, Note_on_c, 10, 81, 118
9, 5994, Note_on_c, 10, 81, 0
9, 6000, Note_on_c, 10, 77, 112
9, 6024, Note_on_c, 10, 77, 0
9, 6030, Note_on_c, 10, 81, 125
9, 6054, Note_on_c, 10, 81, 0
9, 6060, Note_on_c, 10, 77, 111
9, 6084, Note_on_c, 10, 77, 0
9, 6090, Note_on_c, 10, 81, 120
9, 6114, Note_on_c, 10, 81, 0
9, 6120, Note_on_c, 10, 77, 123
9, 6144, Note_on_c, 10, 77, 0
9, 6150, Note_on_c, 10, 81, 111
9, 6174, Note_on_c, 10, 81, 0
9, 6180, Note_on_c, 10, 77, 117
9, 6204, Note_on_c, 10, 77, 0
9, 6210, Note_on_c, 10, 81, 117
9, 6234, Note_on_c, 10, 81, 0
9, 6240, Note_on_c, 10, 77, 106
9, 6264, Note_on_c, 10, 77, 0
9, 6270, Note_on_c, 10, 81, 108
9, 6294, Note_on_c, 10, 81, 0
9, 6300, Note_on_c, 10, 77, 117
9, 6324, Note_on_c, 10, 77, 0
9, 6330, Note_on_c, 10, 81, 117
9, 6354, Note_on_c, 10, 81, 0
9, 6360, Note_on_c, 10, 77, 113
9, 6384, Note_on_c, 10, 77, 0
9, 6390, Note_on_c, 10, 81, 112
9, 6414, Note_on_c, 10, 81, 0
9, 6420, Note_on_c, 10, 77, 112
9, 6444, Note_on_c, 10, 77, 0
9, 6450, Note_on_c, 10, 81, 118
9, 6474, Note_on_c, 10, 81, 0
9, 6480, Note_on_c, 10, 77, 114
9, 6504, Note_on_c, 10, 77, 0
9, 6510, Note_on_c, 10, 81, 123
9, 6534, Note_on_c, 10, 81, 0
9, 6540, Note_on_c, 10, 77, 111
9, 6564, Note_on_c, 10, 77, 0
9, 6570, Note_on_c, 10, 81, 113
9, 6594, Note_on_c, 10, 81, 0
9, 6600, Note_on_c, 10, 77, 107
9, 6624, Note_on_c, 10, 77, 0
9, 6630, Note_on_c, 10, 81, 121
9, 6654, Note_on_c, 10, 81, 0
9, 6660, Note_on_c, 10, 77, 109
9, 6684, Note_on_c, 10, 77, 0
9, 6690, Note_on_c, 10, 81, 118
9, 6714, Note_on_c, 10, 81, 0
9, 6720, Note_on_c, 10, 77, 109
9, 6744, Note_on_c, 10, 77, 0
9, 6750, Note_on_c, 10, 81, 117
9, 6774, Note_on_c, 10, 81, 0
9, 6780, Note_on_c, 10, 77, 109
9, 6804, Note_on_c, 10, 77, 0
9, 6810, Note_on_c, 10, 81, 112
9, 6834, Note_on_c, 10, 81, 0
9, 6840, Note_on_c, 10, 77, 112
9, 6864, Note_on_c, 10, 77, 0
9, 6870, Note_on_c, 10, 82, 94
9, 6894, Note_on_c, 10, 82, 0
9, 6900, Note_on_c, 10, 77, 111
9, 6924, Note_on_c, 10, 77, 0
9, 6930, Note_on_c, 10, 82, 97
9, 6954, Note_on_c, 10, 82, 0
9, 6960, Note_on_c, 10, 77, 110
9, 6984, Note_on_c, 10, 77, 0
9, 6990, Note_on_c, 10, 82, 95
9, 7014, Note_on_c, 10, 82, 0
9, 7020, Note_on_c, 10, 77, 107
9, 7044, Note_on_c, 10, 77, 0
9, 7050, Note_on_c, 10, 82, 96
9, 7074, Note_on_c, 10, 82, 0
9, 7080, Note_on_c, 10, 77, 106
9, 7104, Note_on_c, 10, 77, 0
9, 7110, Note_on_c, 10, 82, 95
9, 7134, Note_on_c, 10, 82, 0
9, 7140, Note_on_c, 10, 79, 111
9, 7164, Note_on_c, 10, 79, 0
9, 7170, Note_on_c, 10, 84, 123
9, 7194, Note_on_c, 10, 84, 0
9, 7200, Note_on_c, 10, 79, 109
9, 7224, Note_on_c, 10, 79, 0
9, 7230, Note_on_c, 10, 82, 105
9, 7254, Note_on_c, 10, 82, 0
9, 7260, Note_on_c, 10, 79, 105
9, 7284, Note_on_c, 10, 79, 0
9, 7290, Note_on_c, 10, 82, 99
9, 7314, Note_on_c, 10, 82, 0
9, 7320, Note_on_c, 10, 79, 104
9, 7344, Note_on_c, 10, 79, 0
9, 7350, Note_on_c, 10, 82, 90
9, 7374, Note_on_c, 10, 82, 0
9, 7380, Note_on_c, 10, 79, 102
9, 7404, Note_on_c, 10, 79, 0
9, 7410, Note_on_c, 10, 82, 94
9, 7434, Note_on_c, 10, 82, 0
9, 7440, Note_on_c, 10, 79, 106
9, 7464, Note_on_c, 10, 79, 0
9, 7470, Note_on_c, 10, 82, 96
9, 7494, Note_on_c, 10, 82, 0
9, 7500, Note_on_c, 10, 79, 114
9, 7524, Note_on_c, 10, 79, 0
9, 7530, Note_on_c, 10, 84, 112
9, 7554, Note_on_c, 10, 84, 0
9, 7560, Note_on_c, 10, 81, 101
9, 7584, Note_on_c, 10, 81, 0
9, 7590, Note_on_c, 10, 84, 106
9, 7614, Note_on_c, 10, 84, 0
9, 7620, Note_on_c, 10, 81, 109
9, 7644, Note_on_c, 10, 81, 0
9, 7650, Note_on_c, 10, 84, 120
9, 7674, Note_on_c, 10, 84, 0
9, 7680, Note_on_c, 10, 81, 116
9, 7704, Note_on_c, 10, 81, 0
9, 7710, Note_on_c, 10, 84, 118
9, 7734, Note_on_c, 10, 84, 0
9, 7740, Note_on_c, 10, 81, 108
9, 7764, Note_on_c, 10, 81, 0
9, 7770, Note_on_c, 10, 86, 114
9, 7794, Note_on_c, 10, 86, 0
9, 7800, Note_on_c, 10, 81, 125
9, 7824, Note_on_c, 10, 81, 0
9, 7830, Note_on_c, 10, 86, 117
9, 7854, Note_on_c, 10, 86, 0
9, 7860, Note_on_c, 10, 81, 116
9, 7884, Note_on_c, 10, 81, 0
9, 7890, Note_on_c, 10, 84, 101
9, 7914, Note_on_c, 10, 84, 0
9, 7920, Note_on_c, 10, 79, 113
9, 7944, Note_on_c, 10, 79, 0
9, 7950, Note_on_c, 10, 86, 117
9, 7974, Note_on_c, 10, 86, 0
9, 7980, Note_on_c, 10, 79, 120
9, 8004, Note_on_c, 10, 79, 0
9, 8010, Note_on_c, 10, 86, 118
9, 8034, Note_on_c, 10, 86, 0
9, 8040, Note_on_c, 10, 79, 105
9, 8064, Note_on_c, 10, 79, 0
9, 8070, Note_on_c, 10, 86, 117
9, 8094, Note_on_c, 10, 86, 0
9, 8100, Note_on_c, 10, 79, 127
9, 8124, Note_on_c, 10, 79, 0
9, 8130, Note_on_c, 10, 84, 110
9, 8154, Note_on_c, 10, 84, 0
9, 8160, Note_on_c, 10, 79, 116
9, 8184, Note_on_c, 10, 79, 0
9, 8190, Note_on_c, 10, 84, 101
9, 8214, Note_on_c, 10, 84, 0
9, 8220, Note_on_c, 10, 79, 101
9, 8244, Note_on_c, 10, 79, 0
9, 8250, Note_on_c, 10, 84, 111
9, 8274, Note_on_c, 10, 84, 0
9, 8280, Note_on_c, 10, 81, 125
9, 8304, Note_on_c, 10, 81, 0
9, 8310, Note_on_c, 10, 84, 101
9, 8334, Note_on_c, 10, 84, 0
9, 8340, Note_on_c, 10, 81, 101
9, 8364, Note_on_c, 10, 81, 0
9, 8370, Note_on_c, 10, 84, 113
9, 8394, Note_on_c, 10, 84, 0
9, 8400, Note_on_c, 10, 81, 103
9, 8424, Note_on_c, 10, 81, 0
9, 8430, Note_on_c, 10, 84, 121
9, 8454, Note_on_c, 10, 84, 0
9, 8460, Note_on_c, 10, 81, 104
9, 8484, Note_on_c, 10, 81, 0
9, 8490, Note_on_c, 10, 84, 117
9, 8514, Note_on_c, 10, 84, 0
9, 8520, Note_on_c, 10, 81, 102
9, 8544, Note_on_c, 10, 81, 0
9, 8550, Note_on_c, 10, 84, 103
9, 8574, Note_on_c, 10, 84, 0
9, 8580, Note_on_c, 10, 81, 121
9, 8604, Note_on_c, 10, 81, 0
9, 8610, Note_on_c, 10, 84, 109
9, 8634, Note_on_c, 10, 84, 0
9, 8640, Note_on_c, 10, 89, 101
9, 8640, Note_on_c, 10, 77, 102
9, 8656, Note_on_c, 10, 77, 0
9, 8656, Note_on_c, 10, 89, 0
9, 8660, Note_on_c, 10, 77, 110
9, 8660, Note_on_c, 10, 89, 105
9, 8676, Note_on_c, 10, 89, 0
9, 8676, Note_on_c, 10, 77, 0
9, 8680, Note_on_c, 10, 89, 107
9, 8680, Note_on_c, 10, 77, 99
9, 8696, Note_on_c, 10, 77, 0
9, 8696, Note_on_c, 10, 89, 0
9, 8700, Note_on_c, 10, 89, 105
9, 8700, Note_on_c, 10, 77, 102
9, 8716, Note_on_c, 10, 77, 0
9, 8716, Note_on_c, 10, 89, 0
9, 8720, Note_on_c, 10, 77, 112
9, 8720, Note_on_c, 10, 89, 105
9, 8736, Note_on_c, 10, 89, 0
9, 8736, Note_on_c, 10, 77, 0
9, 8740, Note_on_c, 10, 89, 110
9, 8740, Note_on_c, 10, 77, 109
9, 8756, Note_on_c, 10, 77, 0
9, 8756, Note_on_c, 10, 89, 0
9, 8760, Note_on_c, 10, 89, 103
9, 8760, Note_on_c, 10, 77, 101
9, 8776, Note_on_c, 10, 77, 0
9, 8776, Note_on_c, 10, 89, 0
9, 8780, Note_on_c, 10, 89, 110
9, 8780, Note_on_c, 10, 77, 108
9, 8796, Note_on_c, 10, 77, 0
9, 8796, Note_on_c, 10, 89, 0
9, 8800, Note_on_c, 10, 89, 108
9, 8800, Note_on_c, 10, 77, 109
9, 8816, Note_on_c, 10, 77, 0
9, 8816, Note_on_c, 10, 89, 0
9, 8820, Note_on_c, 10, 77, 100
9, 8820, Note_on_c, 10, 89, 101
9, 8836, Note_on_c, 10, 89, 0
9, 8836, Note_on_c, 10, 77, 0
9, 8840, Note_on_c, 10, 89, 103
9, 8840, Note_on_c, 10, 77, 101
9, 8856, Note_on_c, 10, 77, 0
9, 8856, Note_on_c, 10, 89, 0
9, 8860, Note_on_c, 10, 89, 104
9, 8860, Note_on_c, 10, 77, 103
9, 8876, Note_on_c, 10, 77, 0
9, 8876, Note_on_c, 10, 89, 0
9, 8880, Note_on_c, 10, 89, 103
9, 8880, Note_on_c, 10, 77, 103
9, 8896, Note_on_c, 10, 77, 0
9, 8896, Note_on_c, 10, 89, 0
9, 8900, Note_on_c, 10, 77, 105
9, 8900, Note_on_c, 10, 89, 105
9, 8916, Note_on_c, 10, 89, 0
9, 8916, Note_on_c, 10, 77, 0
9, 8920, Note_on_c, 10, 89, 112
9, 8920, Note_on_c, 10, 77, 109
9, 8936, Note_on_c, 10, 77, 0
9, 8936, Note_on_c, 10, 89, 0
9, 8940, Note_on_c, 10, 77, 104
9, 8940, Note_on_c, 10, 89, 101
9, 8956, Note_on_c, 10, 89, 0
9, 8956, Note_on_c, 10, 77, 0
9, 8960, Note_on_c, 10, 89, 104
9, 8960, Note_on_c, 10, 77, 103
9, 8976, Note_on_c, 10, 77, 0
9, 8976, Note_on_c, 10, 89, 0
9, 8980, Note_on_c, 10, 77, 105
9, 8980, Note_on_c, 10, 89, 102
9, 8996, Note_on_c, 10, 89, 0
9, 8996, Note_on_c, 10, 77, 0
9, 9000, Note_on_c, 10, 89, 101
9, 9000, Note_on_c, 10, 77, 99
9, 9048, Note_on_c, 10, 77, 0
9, 9048, Note_on_c, 10, 89, 0
9, 9060, Note_on_c, 10, 77, 107
9, 9060, Note_on_c, 10, 89, 106
9, 9108, Note_on_c, 10, 89, 0
9, 9108, Note_on_c, 10, 77, 0
9, 9120, Note_on_c, 10, 77, 111
9, 9120, Note_on_c, 10, 89, 103
9, 9168, Note_on_c, 10, 89, 0
9, 9168, Note_on_c, 10, 77, 0
9, 9180, Note_on_c, 10, 89, 101
9, 9180, Note_on_c, 10, 77, 98
9, 9228, Note_on_c, 10, 77, 0
9, 9228, Note_on_c, 10, 89, 0
9, 9240, Note_on_c, 10, 77, 102
9, 9240, Note_on_c, 10, 89, 101
9, 9288, Note_on_c, 10, 89, 0
9, 9288, Note_on_c, 10, 77, 0
9, 9300, Note_on_c, 10, 89, 107
9, 9300, Note_on_c, 10, 77, 102
9, 9348, Note_on_c, 10, 77, 0
9, 9348, Note_on_c, 10, 89, 0
9, 9360, Note_on_c, 10, 89, 121
9, 9360, Note_on_c, 10, 77, 108
9, 9408, Note_on_c, 10, 77, 0
9, 9408, Note_on_c, 10, 89, 0
9, 9420, Note_on_c, 10, 77, 125
9, 9420, Note_on_c, 10, 89, 114
9, 9468, Note_on_c, 10, 89, 0
9, 9468, Note_on_c, 10, 77, 0
9, 9480, Note_on_c, 10, 89, 110
9, 9480, Note_on_c, 10, 77, 106
9, 9528, Note_on_c, 10, 77, 0
9, 9528, Note_on_c, 10, 89, 0
9, 9540, Note_on_c, 10, 89, 113
9, 9540, Note_on_c, 10, 77, 111
9, 9588, Note_on_c, 10, 77, 0
9, 9588, Note_on_c, 10, 89, 0
9, 9600, Note_on_c, 10, 89, 116
9, 9600, Note_on_c, 10, 77, 110
9, 9648, Note_on_c, 10, 77, 0
9, 9648, Note_on_c, 10, 89, 0
9, 9660, Note_on_c, 10, 89, 120
9, 9660, Note_on_c, 10, 77, 116
9, 9708, Note_on_c, 10, 77, 0
9, 9708, Note_on_c, 10, 89, 0
9, 9720, Note_on_c, 10, 89, 118
9, 9720, Note_on_c, 10, 77, 117
9, 9768, Note_on_c, 10, 77, 0
9, 9768, Note_on_c, 10, 89, 0
9, 9780, Note_on_c, 10, 89, 120
9, 9780, Note_on_c, 10, 77, 107
9, 9828, Note_on_c, 10, 77, 0
9, 9828, Note_on_c, 10, 89, 0
9, 9840, Note_on_c, 10, 89, 104
9, 9840, Note_on_c, 10, 77, 103
9, 9888, Note_on_c, 10, 77, 0
9, 9888, Note_on_c, 10, 89, 0
9, 9900, Note_on_c, 10, 89, 103
9, 9900, Note_on_c, 10, 77, 103
9, 9948, Note_on_c, 10, 77, 0
9, 9948, Note_on_c, 10, 89, 0
9, 9960, Note_on_c, 10, 89, 103
9, 9960, Note_on_c, 10, 77, 112
9, 10008, Note_on_c, 10, 77, 0
9, 10008, Note_on_c, 10, 89, 0
9, 10020, Note_on_c, 10, 91, 98
9, 10020, Note_on_c, 10, 79, 50
9, 10068, Note_on_c, 10, 79, 0
9, 10068, Note_on_c, 10, 91, 0
9, 10080, Note_on_c, 10, 79, 111
9, 10080, Note_on_c, 10, 91, 103
9, 10128, Note_on_c, 10, 91, 0
9, 10128, Note_on_c, 10, 79, 0
9, 10140, Note_on_c, 10, 79, 113
9, 10140, Note_on_c, 10, 91, 108
9, 10188, Note_on_c, 10, 91, 0
9, 10188, Note_on_c, 10, 79, 0
9, 10200, Note_on_c, 10, 91, 114
9, 10200, Note_on_c, 10, 79, 111
9, 10248, Note_on_c, 10, 79, 0
9, 10248, Note_on_c, 10, 91, 0
9, 10260, Note_on_c, 10, 91, 108
9, 10260, Note_on_c, 10, 79, 103
9, 10308, Note_on_c, 10, 79, 0
9, 10308, Note_on_c, 10, 91, 0
9, 10320, Note_on_c, 10, 91, 118
9, 10320, Note_on_c, 10, 79, 106
9, 10368, Note_on_c, 10, 79, 0
9, 10368, Note_on_c, 10, 91, 0
9, 10380, Note_on_c, 10, 91, 107
9, 10380, Note_on_c, 10, 79, 109
9, 10428, Note_on_c, 10, 79, 0
9, 10428, Note_on_c, 10, 91, 0
9, 10440, Note_on_c, 10, 91, 105
9, 10440, Note_on_c, 10, 79, 100
9, 10488, Note_on_c, 10, 79, 0
9, 10488, Note_on_c, 10, 91, 0
9, 10500, Note_on_c, 10, 89, 102
9, 10500, Note_on_c, 10, 77, 107
9, 10548, Note_on_c, 10, 77, 0
9, 10548, Note_on_c, 10, 89, 0
9, 10560, Note_on_c, 10, 77, 105
9, 10560, Note_on_c, 10, 89, 102
9, 10608, Note_on_c, 10, 89, 0
9, 10608, Note_on_c, 10, 77, 0
9, 10620, Note_on_c, 10, 89, 103
9, 10620, Note_on_c, 10, 77, 106
9, 10668, Note_on_c, 10, 77, 0
9, 10668, Note_on_c, 10, 89, 0
9, 10680, Note_on_c, 10, 77, 102
9, 10680, Note_on_c, 10, 89, 103
9, 10728, Note_on_c, 10, 89, 0
9, 10728, Note_on_c, 10, 77, 0
9, 10740, Note_on_c, 10, 89, 116
9, 10740, Note_on_c, 10, 77, 107
9, 10788, Note_on_c, 10, 77, 0
9, 10788, Note_on_c, 10, 89, 0
9, 10800, Note_on_c, 10, 89, 116
9, 10800, Note_on_c, 10, 77, 108
9, 10848, Note_on_c, 10, 77, 0
9, 10848, Note_on_c, 10, 89, 0
9, 10860, Note_on_c, 10, 89, 111
9, 10860, Note_on_c, 10, 77, 107
9, 10908, Note_on_c, 10, 77, 0
9, 10908, Note_on_c, 10, 89, 0
9, 10920, Note_on_c, 10, 89, 109
9, 10920, Note_on_c, 10, 77, 110
9, 10968, Note_on_c, 10, 77, 0
9, 10968, Note_on_c, 10, 89, 0
9, 10980, Note_on_c, 10, 88, 89
9, 10980, Note_on_c, 10, 76, 67
9, 11028, Note_on_c, 10, 76, 0
9, 11028, Note_on_c, 10, 88, 0
9, 11040, Note_on_c, 10, 88, 102
9, 11040, Note_on_c, 10, 76, 99
9, 11088, Note_on_c, 10, 76, 0
9, 11088, Note_on_c, 10, 88, 0
9, 11100, Note_on_c, 10, 88, 103
9, 11100, Note_on_c, 10, 76, 102
9, 11148, Note_on_c, 10, 76, 0
9, 11148, Note_on_c, 10, 88, 0
9, 11160, Note_on_c, 10, 77, 105
9, 11160, Note_on_c, 10, 89, 102
9, 11208, Note_on_c, 10, 77, 0
9, 11272, Note_on_c, 10, 89, 0
9, 11820, Note_on_c, 10, 72, 99
9, 11868, Note_on_c, 10, 72, 0
9, 11880, Note_on_c, 10, 72, 101
9, 11928, Note_on_c, 10, 72, 0
9, 11940, Note_on_c, 10, 77, 100
9, 12036, Note_on_c, 10, 77, 0
9, 12060, Note_on_c, 10, 72, 127
9, 12108, Note_on_c, 10, 72, 0
9, 12120, Note_on_c, 10, 79, 99
9, 12216, Note_on_c, 10, 79, 0
9, 12240, Note_on_c, 10, 72, 107
9, 12288, Note_on_c, 10, 72, 0
9, 12300, Note_on_c, 10, 81, 108
9, 12396, Note_on_c, 10, 81, 0
9, 12420, Note_on_c, 10, 84, 116
9, 12468, Note_on_c, 10, 84, 0
9, 12480, Note_on_c, 10, 82, 101
9, 12528, Note_on_c, 10, 82, 0
9, 12540, Note_on_c, 10, 79, 108
9, 12564, Note_on_c, 10, 79, 0
9, 12570, Note_on_c, 10, 76, 118
9, 12594, Note_on_c, 10, 76, 0
9, 13260, Note_on_c, 10, 72, 99
9, 13308, Note_on_c, 10, 72, 0
9, 13320, Note_on_c, 10, 72, 104
9, 13368, Note_on_c, 10, 72, 0
9, 13380, Note_on_c, 10, 77, 100
9, 13428, Note_on_c, 10, 77, 0
9, 13440, Note_on_c, 10, 77, 101
9, 13452, Note_on_c, 10, 77, 0
9, 13455, Note_on_c, 10, 79, 107
9, 13467, Note_on_c, 10, 79, 0
9, 13470, Note_on_c, 10, 77, 104
9, 13482, Note_on_c, 10, 77, 0
9, 13485, Note_on_c, 10, 79, 102
9, 13497, Note_on_c, 10, 79, 0
9, 13500, Note_on_c, 10, 72, 109
9, 13548, Note_on_c, 10, 72, 0
9, 13560, Note_on_c, 10, 79, 104
9, 13608, Note_on_c, 10, 79, 0
9, 13620, Note_on_c, 10, 79, 103
9, 13632, Note_on_c, 10, 79, 0
9, 13635, Note_on_c, 10, 81, 106
9, 13647, Note_on_c, 10, 81, 0
9, 13650, Note_on_c, 10, 79, 102
9, 13662, Note_on_c, 10, 79, 0
9, 13665, Note_on_c, 10, 81, 101
9, 13677, Note_on_c, 10, 81, 0
9, 13680, Note_on_c, 10, 72, 101
9, 13728, Note_on_c, 10, 72, 0
9, 13740, Note_on_c, 10, 81, 101
9, 13788, Note_on_c, 10, 81, 0
9, 13800, Note_on_c, 10, 81, 105
9, 13812, Note_on_c, 10, 81, 0
9, 13815, Note_on_c, 10, 82, 103
9, 13827, Note_on_c, 10, 82, 0
9, 13830, Note_on_c, 10, 81, 120
9, 13842, Note_on_c, 10, 81, 0
9, 13845, Note_on_c, 10, 82, 81
9, 13857, Note_on_c, 10, 82, 0
9, 13860, Note_on_c, 10, 84, 127
9, 13908, Note_on_c, 10, 84, 0
9, 13920, Note_on_c, 10, 82, 105
9, 13968, Note_on_c, 10, 82, 0
9, 13980, Note_on_c, 10, 79, 114
9, 14004, Note_on_c, 10, 79, 0
9, 14010, Note_on_c, 10, 76, 104
9, 14034, Note_on_c, 10, 76, 0
9, 14220, Note_on_c, 10, 76, 125
9, 14268, Note_on_c, 10, 76, 0
9, 14280, Note_on_c, 10, 74, 112
9, 14328, Note_on_c, 10, 74, 0
9, 14340, Note_on_c, 10, 71, 102
9, 14364, Note_on_c, 10, 71, 0
9, 14370, Note_on_c, 10, 67, 107
9, 14394, Note_on_c, 10, 67, 0
9, 14580, Note_on_c, 10, 79, 109
9, 14628, Note_on_c, 10, 79, 0
9, 14640, Note_on_c, 10, 77, 106
9, 14688, Note_on_c, 10, 77, 0
9, 14700, Note_on_c, 10, 74, 112
9, 14724, Note_on_c, 10, 74, 0
9, 14730, Note_on_c, 10, 71, 112
9, 14754, Note_on_c, 10, 71, 0
9, 14760, Note_on_c, 10, 81, 113
9, 14808, Note_on_c, 10, 81, 0
9, 14820, Note_on_c, 10, 79, 104
9, 14868, Note_on_c, 10, 79, 0
9, 14880, Note_on_c, 10, 76, 109
9, 14904, Note_on_c, 10, 76, 0
9, 14910, Note_on_c, 10, 72, 116
9, 14934, Note_on_c, 10, 72, 0
9, 14940, Note_on_c, 10, 69, 118
9, 14988, Note_on_c, 10, 69, 0
9, 15000, Note_on_c, 10, 67, 105
9, 15048, Note_on_c, 10, 67, 0
9, 15060, Note_on_c, 10, 64, 109
9, 15084, Note_on_c, 10, 64, 0
9, 15090, Note_on_c, 10, 60, 103
9, 15114, Note_on_c, 10, 60, 0
9, 15120, Note_on_c, 10, 55, 95
9, 15216, Note_on_c, 10, 55, 0
9, 15240, Note_on_c, 10, 76, 88
9, 15288, Note_on_c, 10, 76, 0
9, 15300, Note_on_c, 10, 76, 104
9, 15348, Note_on_c, 10, 76, 0
9, 15360, Note_on_c, 10, 76, 107
9, 15408, Note_on_c, 10, 76, 0
9, 15420, Note_on_c, 10, 76, 101
9, 15432, Note_on_c, 10, 76, 0
9, 15435, Note_on_c, 10, 77, 99
9, 15447, Note_on_c, 10, 77, 0
9, 15450, Note_on_c, 10, 76, 101
9, 15462, Note_on_c, 10, 76, 0
9, 15465, Note_on_c, 10, 77, 102
9, 15477, Note_on_c, 10, 77, 0
9, 15480, Note_on_c, 10, 79, 127
9, 15528, Note_on_c, 10, 79, 0
9, 15540, Note_on_c, 10, 77, 125
9, 15588, Note_on_c, 10, 77, 0
9, 15600, Note_on_c, 10, 74, 118
9, 15624, Note_on_c, 10, 74, 0
9, 15630, Note_on_c, 10, 71, 121
9, 15654, Note_on_c, 10, 71, 0
9, 15660, Note_on_c, 10, 67, 99
9, 15708, Note_on_c, 10, 67, 0
9, 15720, Note_on_c, 10, 65, 123
9, 15768, Note_on_c, 10, 65, 0
9, 15780, Note_on_c, 10, 62, 125
9, 15804, Note_on_c, 10, 62, 0
9, 15810, Note_on_c, 10, 59, 117
9, 15834, Note_on_c, 10, 59, 0
9, 15840, Note_on_c, 10, 55, 101
9, 15936, Note_on_c, 10, 55, 0
9, 15960, Note_on_c, 10, 74, 100
9, 16008, Note_on_c, 10, 74, 0
9, 16020, Note_on_c, 10, 74, 113
9, 16068, Note_on_c, 10, 74, 0
9, 16080, Note_on_c, 10, 74, 105
9, 16128, Note_on_c, 10, 74, 0
9, 16140, Note_on_c, 10, 74, 112
9, 16152, Note_on_c, 10, 74, 0
9, 16155, Note_on_c, 10, 76, 105
9, 16167, Note_on_c, 10, 76, 0
9, 16170, Note_on_c, 10, 74, 111
9, 16182, Note_on_c, 10, 74, 0
9, 16185, Note_on_c, 10, 76, 105
9, 16197, Note_on_c, 10, 76, 0
9, 16200, Note_on_c, 10, 81, 127
9, 16224, Note_on_c, 10, 81, 0
9, 16230, Note_on_c, 10, 79, 127
9, 16254, Note_on_c, 10, 79, 0
9, 16260, Note_on_c, 10, 78, 93
9, 16284, Note_on_c, 10, 78, 0
9, 16290, Note_on_c, 10, 79, 123
9, 16314, Note_on_c, 10, 79, 0
9, 16320, Note_on_c, 10, 76, 121
9, 16344, Note_on_c, 10, 76, 0
9, 16350, Note_on_c, 10, 72, 125
9, 16374, Note_on_c, 10, 72, 0
9, 16380, Note_on_c, 10, 69, 123
9, 16404, Note_on_c, 10, 69, 0
9, 16410, Note_on_c, 10, 67, 114
9, 16434, Note_on_c, 10, 67, 0
9, 16440, Note_on_c, 10, 66, 113
9, 16464, Note_on_c, 10, 66, 0
9, 16470, Note_on_c, 10, 67, 127
9, 16494, Note_on_c, 10, 67, 0
9, 16500, Note_on_c, 10, 64, 110
9, 16524, Note_on_c, 10, 64, 0
9, 16530, Note_on_c, 10, 60, 116
9, 16554, Note_on_c, 10, 60, 0
9, 16560, Note_on_c, 10, 55, 127
9, 16656, Note_on_c, 10, 55, 0
9, 16680, Note_on_c, 10, 76, 104
9, 16728, Note_on_c, 10, 76, 0
9, 16740, Note_on_c, 10, 76, 111
9, 16788, Note_on_c, 10, 76, 0
9, 16800, Note_on_c, 10, 76, 113
9, 16848, Note_on_c, 10, 76, 0
9, 16860, Note_on_c, 10, 76, 127
9, 16872, Note_on_c, 10, 76, 0
9, 16875, Note_on_c, 10, 77, 109
9, 16887, Note_on_c, 10, 77, 0
9, 16890, Note_on_c, 10, 76, 107
9, 16902, Note_on_c, 10, 76, 0
9, 16905, Note_on_c, 10, 77, 117
9, 16917, Note_on_c, 10, 77, 0
9, 16920, Note_on_c, 10, 79, 121
9, 16944, Note_on_c, 10, 79, 0
9, 16950, Note_on_c, 10, 77, 127
9, 16974, Note_on_c, 10, 77, 0
9, 16980, Note_on_c, 10, 76, 120
9, 17004, Note_on_c, 10, 76, 0
9, 17010, Note_on_c, 10, 77, 108
9, 17034, Note_on_c, 10, 77, 0
9, 17040, Note_on_c, 10, 74, 111
9, 17064, Note_on_c, 10, 74, 0
9, 17070, Note_on_c, 10, 71, 127
9, 17094, Note_on_c, 10, 71, 0
9, 17100, Note_on_c, 10, 67, 118
9, 17124, Note_on_c, 10, 67, 0
9, 17130, Note_on_c, 10, 65, 111
9, 17154, Note_on_c, 10, 65, 0
9, 17160, Note_on_c, 10, 64, 102
9, 17184, Note_on_c, 10, 64, 0
9, 17190, Note_on_c, 10, 65, 127
9, 17214, Note_on_c, 10, 65, 0
9, 17220, Note_on_c, 10, 62, 121
9, 17244, Note_on_c, 10, 62, 0
9, 17250, Note_on_c, 10, 59, 127
9, 17274, Note_on_c, 10, 59, 0
9, 17280, Note_on_c, 10, 55, 121
9, 17376, Note_on_c, 10, 55, 0
9, 17400, Note_on_c, 10, 74, 104
9, 17448, Note_on_c, 10, 74, 0
9, 17460, Note_on_c, 10, 74, 106
9, 17508, Note_on_c, 10, 74, 0
9, 17520, Note_on_c, 10, 74, 110
9, 17568, Note_on_c, 10, 74, 0
9, 17580, Note_on_c, 10, 74, 113
9, 17592, Note_on_c, 10, 74, 0
9, 17595, Note_on_c, 10, 76, 111
9, 17607, Note_on_c, 10, 76, 0
9, 17610, Note_on_c, 10, 74, 123
9, 17622, Note_on_c, 10, 74, 0
9, 17625, Note_on_c, 10, 76, 108
9, 17637, Note_on_c, 10, 76, 0
9, 17640, Note_on_c, 10, 76, 88
9, 17640, Note_on_c, 10, 72, 107
9, 17640, Note_on_c, 10, 64, 101
9, 17736, Note_on_c, 10, 64, 0
9, 17736, Note_on_c, 10, 72, 0
9, 17736, Note_on_c, 10, 76, 0
9, 17820, Note_on_c, 10, 77, 106
9, 17868, Note_on_c, 10, 77, 0
9, 17880, Note_on_c, 10, 76, 120
9, 17928, Note_on_c, 10, 76, 0
9, 17940, Note_on_c, 10, 81, 123
9, 17988, Note_on_c, 10, 81, 0
9, 18000, Note_on_c, 10, 79, 123
9, 18048, Note_on_c, 10, 79, 0
9, 18060, Note_on_c, 10, 83, 104
9, 18108, Note_on_c, 10, 83, 0
9, 18120, Note_on_c, 10, 84, 127
9, 18168, Note_on_c, 10, 84, 0
9, 18180, Note_on_c, 10, 86, 99
9, 18180, Note_on_c, 10, 77, 99
9, 18180, Note_on_c, 10, 67, 105
9, 18276, Note_on_c, 10, 67, 0
9, 18276, Note_on_c, 10, 77, 0
9, 18276, Note_on_c, 10, 86, 0
9, 18300, Note_on_c, 10, 86, 100
9, 18300, Note_on_c, 10, 77, 102
9, 18300, Note_on_c, 10, 67, 107
9, 18348, Note_on_c, 10, 67, 0
9, 18348, Note_on_c, 10, 77, 0
9, 18348, Note_on_c, 10, 86, 0
9, 18360, Note_on_c, 10, 84, 99
9, 18360, Note_on_c, 10, 67, 99
9, 18360, Note_on_c, 10, 76, 99
9, 18408, Note_on_c, 10, 76, 0
9, 18408, Note_on_c, 10, 67, 0
9, 18408, Note_on_c, 10, 84, 0
9, 18480, Note_on_c, 10, 76, 121
9, 18528, Note_on_c, 10, 76, 0
9, 18540, Note_on_c, 10, 77, 120
9, 18588, Note_on_c, 10, 77, 0
9, 18600, Note_on_c, 10, 76, 105
9, 18648, Note_on_c, 10, 76, 0
9, 18660, Note_on_c, 10, 81, 118
9, 18708, Note_on_c, 10, 81, 0
9, 18720, Note_on_c, 10, 79, 112
9, 18768, Note_on_c, 10, 79, 0
9, 18780, Note_on_c, 10, 83, 127
9, 18828, Note_on_c, 10, 83, 0
9, 18840, Note_on_c, 10, 84, 109
9, 18888, Note_on_c, 10, 84, 0
9, 18900, Note_on_c, 10, 86, 99
9, 18900, Note_on_c, 10, 67, 106
9, 18900, Note_on_c, 10, 77, 98
9, 18996, Note_on_c, 10, 77, 0
9, 18996, Note_on_c, 10, 67, 0
9, 18996, Note_on_c, 10, 86, 0
9, 19020, Note_on_c, 10, 86, 100
9, 19020, Note_on_c, 10, 67, 98
9, 19020, Note_on_c, 10, 77, 101
9, 19068, Note_on_c, 10, 77, 0
9, 19068, Note_on_c, 10, 67, 0
9, 19068, Note_on_c, 10, 86, 0
9, 19080, Note_on_c, 10, 84, 116
9, 19224, Note_on_c, 10, 84, 0
9, 19260, Note_on_c, 10, 79, 109
9, 19308, Note_on_c, 10, 79, 0
9, 19380, Note_on_c, 10, 88, 107
9, 19428, Note_on_c, 10, 88, 0
9, 19440, Note_on_c, 10, 86, 116
9, 19584, Note_on_c, 10, 86, 0
9, 19620, Note_on_c, 10, 81, 109
9, 19668, Note_on_c, 10, 81, 0
9, 19740, Note_on_c, 10, 89, 113
9, 19788, Note_on_c, 10, 89, 0
9, 19800, Note_on_c, 10, 84, 99
9, 19944, Note_on_c, 10, 84, 0
9, 19980, Note_on_c, 10, 84, 117
9, 20028, Note_on_c, 10, 84, 0
9, 20040, Note_on_c, 10, 79, 109
9, 20088, Note_on_c, 10, 79, 0
9, 20100, Note_on_c, 10, 88, 111
9, 20148, Note_on_c, 10, 88, 0
9, 20160, Note_on_c, 10, 84, 127
9, 20208, Note_on_c, 10, 84, 0
9, 20220, Note_on_c, 10, 79, 103
9, 20268, Note_on_c, 10, 79, 0
9, 20280, Note_on_c, 10, 88, 102
9, 20328, Note_on_c, 10, 88, 0
9, 20340, Note_on_c, 10, 84, 127
9, 20388, Note_on_c, 10, 84, 0
9, 20400, Note_on_c, 10, 79, 107
9, 20448, Note_on_c, 10, 79, 0
9, 20460, Note_on_c, 10, 88, 117
9, 20508, Note_on_c, 10, 88, 0
9, 20520, Note_on_c, 10, 84, 125
9, 20568, Note_on_c, 10, 84, 0
9, 20580, Note_on_c, 10, 79, 104
9, 20628, Note_on_c, 10, 79, 0
9, 20640, Note_on_c, 10, 88, 120
9, 20688, Note_on_c, 10, 88, 0
9, 20700, Note_on_c, 10, 79, 127
9, 20748, Note_on_c, 10, 79, 0
9, 20760, Note_on_c, 10, 76, 89
9, 20808, Note_on_c, 10, 76, 0
9, 20820, Note_on_c, 10, 84, 112
9, 20868, Note_on_c, 10, 84, 0
9, 20880, Note_on_c, 10, 79, 107
9, 20928, Note_on_c, 10, 79, 0
9, 20940, Note_on_c, 10, 76, 104
9, 20988, Note_on_c, 10, 76, 0
9, 21000, Note_on_c, 10, 84, 114
9, 21048, Note_on_c, 10, 84, 0
9, 21060, Note_on_c, 10, 76, 127
9, 21108, Note_on_c, 10, 76, 0
9, 21120, Note_on_c, 10, 72, 107
9, 21168, Note_on_c, 10, 72, 0
9, 21180, Note_on_c, 10, 79, 123
9, 21228, Note_on_c, 10, 79, 0
9, 21240, Note_on_c, 10, 76, 113
9, 21288, Note_on_c, 10, 76, 0
9, 21300, Note_on_c, 10, 72, 109
9, 21348, Note_on_c, 10, 72, 0
9, 21360, Note_on_c, 10, 79, 121
9, 21408, Note_on_c, 10, 79, 0
9, 21420, Note_on_c, 10, 72, 120
9, 21468, Note_on_c, 10, 72, 0
9, 21480, Note_on_c, 10, 67, 95
9, 21528, Note_on_c, 10, 67, 0
9, 21540, Note_on_c, 10, 76, 117
9, 21588, Note_on_c, 10, 76, 0
9, 21600, Note_on_c, 10, 72, 110
9, 21648, Note_on_c, 10, 72, 0
9, 21660, Note_on_c, 10, 67, 107
9, 21708, Note_on_c, 10, 67, 0
9, 21720, Note_on_c, 10, 76, 116
9, 21768, Note_on_c, 10, 76, 0
9, 21780, Note_on_c, 10, 72, 111
9, 21828, Note_on_c, 10, 72, 0
9, 21840, Note_on_c, 10, 67, 113
9, 21888, Note_on_c, 10, 67, 0
9, 21900, Note_on_c, 10, 72, 123
9, 21948, Note_on_c, 10, 72, 0
9, 22140, Note_on_c, 10, 60, 103
9, 22284, Note_on_c, 10, 60, 0
9, 22320, Note_on_c, 10, 60, 100
9, 22344, Note_on_c, 10, 60, 0
9, 22350, Note_on_c, 10, 62, 120
9, 22374, Note_on_c, 10, 62, 0
9, 22380, Note_on_c, 10, 64, 116
9, 22404, Note_on_c, 10, 64, 0
9, 22410, Note_on_c, 10, 65, 120
9, 22434, Note_on_c, 10, 65, 0
9, 22440, Note_on_c, 10, 67, 103
9, 22464, Note_on_c, 10, 67, 0
9, 22470, Note_on_c, 10, 69, 127
9, 22494, Note_on_c, 10, 69, 0
9, 22500, Note_on_c, 10, 70, 115
9, 22524, Note_on_c, 10, 70, 0
9, 22530, Note_on_c, 10, 72, 100
9, 22554, Note_on_c, 10, 72, 0
9, 22560, Note_on_c, 10, 74, 127
9, 22584, Note_on_c, 10, 74, 0
9, 22590, Note_on_c, 10, 76, 113
9, 22614, Note_on_c, 10, 76, 0
9, 22620, Note_on_c, 10, 77, 117
9, 22644, Note_on_c, 10, 77, 0
9, 22650, Note_on_c, 10, 79, 50
9, 22674, Note_on_c, 10, 79, 0
9, 22680, Note_on_c, 10, 81, 108
9, 22824, Note_on_c, 10, 81, 0
9, 22860, Note_on_c, 10, 77, 117
9, 22956, Note_on_c, 10, 77, 0
9, 22980, Note_on_c, 10, 84, 127
9, 23028, Note_on_c, 10, 84, 0
9, 23040, Note_on_c, 10, 81, 96
9, 23184, Note_on_c, 10, 81, 0
9, 23220, Note_on_c, 10, 77, 109
9, 23316, Note_on_c, 10, 77, 0
9, 23340, Note_on_c, 10, 72, 101
9, 23388, Note_on_c, 10, 72, 0
9, 23400, Note_on_c, 10, 77, 101
9, 23412, Note_on_c, 10, 77, 0
9, 23415, Note_on_c, 10, 79, 105
9, 23427, Note_on_c, 10, 79, 0
9, 23430, Note_on_c, 10, 77, 101
9, 23442, Note_on_c, 10, 77, 0
9, 23445, Note_on_c, 10, 79, 112
9, 23457, Note_on_c, 10, 79, 0
9, 23460, Note_on_c, 10, 77, 97
9, 23472, Note_on_c, 10, 77, 0
9, 23475, Note_on_c, 10, 79, 83
9, 23487, Note_on_c, 10, 79, 0
9, 23490, Note_on_c, 10, 77, 101
9, 23502, Note_on_c, 10, 77, 0
9, 23505, Note_on_c, 10, 79, 99
9, 23517, Note_on_c, 10, 79, 0
9, 23520, Note_on_c, 10, 81, 109
9, 23568, Note_on_c, 10, 81, 0
9, 23580, Note_on_c, 10, 84, 127
9, 23676, Note_on_c, 10, 84, 0
9, 23700, Note_on_c, 10, 81, 111
9, 23748, Note_on_c, 10, 81, 0
9, 23760, Note_on_c, 10, 82, 92
9, 24036, Note_on_c, 10, 82, 0
9, 24060, Note_on_c, 10, 79, 121
9, 24108, Note_on_c, 10, 79, 0
9, 24120, Note_on_c, 10, 82, 95
9, 24264, Note_on_c, 10, 82, 0
9, 24300, Note_on_c, 10, 79, 123
9, 24396, Note_on_c, 10, 79, 0
9, 24420, Note_on_c, 10, 84, 125
9, 24468, Note_on_c, 10, 84, 0
9, 24480, Note_on_c, 10, 81, 116
9, 24624, Note_on_c, 10, 81, 0
9, 24660, Note_on_c, 10, 77, 116
9, 24756, Note_on_c, 10, 77, 0
9, 24780, Note_on_c, 10, 81, 123
9, 24828, Note_on_c, 10, 81, 0
9, 24840, Note_on_c, 10, 79, 101
9, 24936, Note_on_c, 10, 79, 0
9, 24960, Note_on_c, 10, 74, 116
9, 25008, Note_on_c, 10, 74, 0
9, 25020, Note_on_c, 10, 76, 123
9, 25116, Note_on_c, 10, 76, 0
9, 25140, Note_on_c, 10, 72, 101
9, 25188, Note_on_c, 10, 72, 0
9, 25200, Note_on_c, 10, 72, 99
9, 25248, Note_on_c, 10, 72, 0
9, 25260, Note_on_c, 10, 77, 107
9, 25476, Note_on_c, 10, 77, 0
9, 25500, Note_on_c, 10, 81, 105
9, 25548, Note_on_c, 10, 81, 0
9, 25560, Note_on_c, 10, 77, 104
9, 25584, Note_on_c, 10, 77, 0
9, 25590, Note_on_c, 10, 81, 103
9, 25614, Note_on_c, 10, 81, 0
9, 25620, Note_on_c, 10, 77, 109
9, 25644, Note_on_c, 10, 77, 0
9, 25650, Note_on_c, 10, 81, 121
9, 25674, Note_on_c, 10, 81, 0
9, 25680, Note_on_c, 10, 77, 106
9, 25704, Note_on_c, 10, 77, 0
9, 25710, Note_on_c, 10, 81, 116
9, 25734, Note_on_c, 10, 81, 0
9, 25740, Note_on_c, 10, 77, 105
9, 25764, Note_on_c, 10, 77, 0
9, 25770, Note_on_c, 10, 81, 114
9, 25794, Note_on_c, 10, 81, 0
9, 25800, Note_on_c, 10, 77, 107
9, 25824, Note_on_c, 10, 77, 0
9, 25830, Note_on_c, 10, 81, 117
9, 25854, Note_on_c, 10, 81, 0
9, 25860, Note_on_c, 10, 77, 109
9, 25884, Note_on_c, 10, 77, 0
9, 25890, Note_on_c, 10, 81, 116
9, 25914, Note_on_c, 10, 81, 0
9, 25920, Note_on_c, 10, 77, 108
9, 25944, Note_on_c, 10, 77, 0
9, 25950, Note_on_c, 10, 81, 113
9, 25974, Note_on_c, 10, 81, 0
9, 25980, Note_on_c, 10, 77, 110
9, 26004, Note_on_c, 10, 77, 0
9, 26010, Note_on_c, 10, 81, 111
9, 26034, Note_on_c, 10, 81, 0
9, 26040, Note_on_c, 10, 77, 109
9, 26064, Note_on_c, 10, 77, 0
9, 26070, Note_on_c, 10, 81, 110
9, 26094, Note_on_c, 10, 81, 0
9, 26100, Note_on_c, 10, 77, 104
9, 26124, Note_on_c, 10, 77, 0
9, 26130, Note_on_c, 10, 81, 110
9, 26154, Note_on_c, 10, 81, 0
9, 26160, Note_on_c, 10, 77, 109
9, 26184, Note_on_c, 10, 77, 0
9, 26190, Note_on_c, 10, 81, 108
9, 26214, Note_on_c, 10, 81, 0
9, 26220, Note_on_c, 10, 77, 113
9, 26244, Note_on_c, 10, 77, 0
9, 26250, Note_on_c, 10, 81, 110
9, 26274, Note_on_c, 10, 81, 0
9, 26280, Note_on_c, 10, 77, 121
9, 26304, Note_on_c, 10, 77, 0
9, 26310, Note_on_c, 10, 81, 125
9, 26334, Note_on_c, 10, 81, 0
9, 26340, Note_on_c, 10, 77, 113
9, 26364, Note_on_c, 10, 77, 0
9, 26370, Note_on_c, 10, 81, 120
9, 26394, Note_on_c, 10, 81, 0
9, 26400, Note_on_c, 10, 77, 107
9, 26424, Note_on_c, 10, 77, 0
9, 26430, Note_on_c, 10, 81, 116
9, 26454, Note_on_c, 10, 81, 0
9, 26460, Note_on_c, 10, 77, 113
9, 26484, Note_on_c, 10, 77, 0
9, 26490, Note_on_c, 10, 81, 113
9, 26514, Note_on_c, 10, 81, 0
9, 26520, Note_on_c, 10, 77, 116
9, 26544, Note_on_c, 10, 77, 0
9, 26550, Note_on_c, 10, 81, 111
9, 26574, Note_on_c, 10, 81, 0
9, 26580, Note_on_c, 10, 77, 111
9, 26604, Note_on_c, 10, 77, 0
9, 26610, Note_on_c, 10, 81, 116
9, 26634, Note_on_c, 10, 81, 0
9, 26640, Note_on_c, 10, 77, 121
9, 26664, Note_on_c, 10, 77, 0
9, 26670, Note_on_c, 10, 81, 113
9, 26694, Note_on_c, 10, 81, 0
9, 26700, Note_on_c, 10, 77, 106
9, 26724, Note_on_c, 10, 77, 0
9, 26730, Note_on_c, 10, 81, 110
9, 26754, Note_on_c, 10, 81, 0
9, 26760, Note_on_c, 10, 77, 105
9, 26784, Note_on_c, 10, 77, 0
9, 26790, Note_on_c, 10, 81, 113
9, 26814, Note_on_c, 10, 81, 0
9, 26820, Note_on_c, 10, 77, 105
9, 26844, Note_on_c, 10, 77, 0
9, 26850, Note_on_c, 10, 81, 113
9, 26874, Note_on_c, 10, 81, 0
9, 26880, Note_on_c, 10, 77, 118
9, 26904, Note_on_c, 10, 77, 0
9, 26910, Note_on_c, 10, 81, 123
9, 26934, Note_on_c, 10, 81, 0
9, 26940, Note_on_c, 10, 77, 111
9, 26964, Note_on_c, 10, 77, 0
9, 26970, Note_on_c, 10, 81, 127
9, 26994, Note_on_c, 10, 81, 0
9, 27000, Note_on_c, 10, 77, 127
9, 27024, Note_on_c, 10, 77, 0
9, 27030, Note_on_c, 10, 81, 118
9, 27054, Note_on_c, 10, 81, 0
9, 27060, Note_on_c, 10, 77, 114
9, 27084, Note_on_c, 10, 77, 0
9, 27090, Note_on_c, 10, 81, 123
9, 27114, Note_on_c, 10, 81, 0
9, 27120, Note_on_c, 10, 77, 113
9, 27144, Note_on_c, 10, 77, 0
9, 27150, Note_on_c, 10, 81, 116
9, 27174, Note_on_c, 10, 81, 0
9, 27180, Note_on_c, 10, 77, 109
9, 27204, Note_on_c, 10, 77, 0
9, 27210, Note_on_c, 10, 81, 117
9, 27234, Note_on_c, 10, 81, 0
9, 27240, Note_on_c, 10, 77, 118
9, 27264, Note_on_c, 10, 77, 0
9, 27270, Note_on_c, 10, 81, 114
9, 27294, Note_on_c, 10, 81, 0
9, 27300, Note_on_c, 10, 77, 111
9, 27324, Note_on_c, 10, 77, 0
9, 27330, Note_on_c, 10, 81, 109
9, 27354, Note_on_c, 10, 81, 0
9, 27360, Note_on_c, 10, 77, 127
9, 27384, Note_on_c, 10, 77, 0
9, 27390, Note_on_c, 10, 81, 118
9, 27414, Note_on_c, 10, 81, 0
9, 27420, Note_on_c, 10, 77, 117
9, 27444, Note_on_c, 10, 77, 0
9, 27450, Note_on_c, 10, 81, 121
9, 27474, Note_on_c, 10, 81, 0
9, 27480, Note_on_c, 10, 77, 120
9, 27504, Note_on_c, 10, 77, 0
9, 27510, Note_on_c, 10, 81, 116
9, 27534, Note_on_c, 10, 81, 0
9, 27540, Note_on_c, 10, 77, 125
9, 27564, Note_on_c, 10, 77, 0
9, 27570, Note_on_c, 10, 81, 123
9, 27594, Note_on_c, 10, 81, 0
9, 27600, Note_on_c, 10, 77, 127
9, 27624, Note_on_c, 10, 77, 0
9, 27630, Note_on_c, 10, 81, 127
9, 27654, Note_on_c, 10, 81, 0
9, 27660, Note_on_c, 10, 65, 113
9, 27708, Note_on_c, 10, 65, 0
9, 27720, Note_on_c, 10, 69, 127
9, 27816, Note_on_c, 10, 69, 0
9, 27840, Note_on_c, 10, 72, 127
9, 27888, Note_on_c, 10, 72, 0
9, 27900, Note_on_c, 10, 75, 118
9, 27996, Note_on_c, 10, 75, 0
9, 28020, Note_on_c, 10, 77, 125
9, 28068, Note_on_c, 10, 77, 0
9, 28080, Note_on_c, 10, 81, 118
9, 28176, Note_on_c, 10, 81, 0
9, 28200, Note_on_c, 10, 84, 127
9, 28248, Note_on_c, 10, 84, 0
9, 28260, Note_on_c, 10, 87, 92
9, 28356, Note_on_c, 10, 87, 0
9, 28380, Note_on_c, 10, 65, 98
9, 28380, Note_on_c, 10, 81, 100
9, 28380, Note_on_c, 10, 72, 99
9, 28428, Note_on_c, 10, 72, 0
9, 28428, Note_on_c, 10, 81, 0
9, 28428, Note_on_c, 10, 65, 0
9, 28440, Note_on_c, 10, 65, 110
9, 28440, Note_on_c, 10, 74, 107
9, 28440, Note_on_c, 10, 82, 85
9, 28536, Note_on_c, 10, 82, 0
9, 28536, Note_on_c, 10, 74, 0
9, 28536, Note_on_c, 10, 65, 0
9, 29100, Note_on_c, 10, 70, 82
9, 29148, Note_on_c, 10, 70, 0
9, 29160, Note_on_c, 10, 70, 105
9, 29272, Note_on_c, 10, 70, 0
9, 29280, Note_on_c, 10, 69, 121
9, 29328, Note_on_c, 10, 69, 0
9, 29820, Note_on_c, 10, 74, 107
9, 29868, Note_on_c, 10, 74, 0
9, 29880, Note_on_c, 10, 74, 107
9, 29976, Note_on_c, 10, 74, 0
9, 30000, Note_on_c, 10, 75, 113
9, 30048, Note_on_c, 10, 75, 0
9, 30540, Note_on_c, 10, 77, 121
9, 30588, Note_on_c, 10, 77, 0
9, 30600, Note_on_c, 10, 74, 104
9, 30696, Note_on_c, 10, 74, 0
9, 30900, Note_on_c, 10, 77, 125
9, 30948, Note_on_c, 10, 77, 0
9, 30960, Note_on_c, 10, 79, 127
9, 31056, Note_on_c, 10, 79, 0
9, 31260, Note_on_c, 10, 79, 120
9, 31308, Note_on_c, 10, 79, 0
9, 31320, Note_on_c, 10, 77, 123
9, 31416, Note_on_c, 10, 77, 0
9, 31620, Note_on_c, 10, 77, 105
9, 31668, Note_on_c, 10, 77, 0
9, 31680, Note_on_c, 10, 75, 111
9, 31776, Note_on_c, 10, 75, 0
9, 31980, Note_on_c, 10, 75, 91
9, 32028, Note_on_c, 10, 75, 0
9, 32040, Note_on_c, 10, 74, 117
9, 32064, Note_on_c, 10, 74, 0
9, 32070, Note_on_c, 10, 70, 93
9, 32094, Note_on_c, 10, 70, 0
9, 32100, Note_on_c, 10, 69, 113
9, 32124, Note_on_c, 10, 69, 0
9, 32130, Note_on_c, 10, 70, 96
9, 32154, Note_on_c, 10, 70, 0
9, 32160, Note_on_c, 10, 74, 101
9, 32184, Note_on_c, 10, 74, 0
9, 32190, Note_on_c, 10, 70, 109
9, 32214, Note_on_c, 10, 70, 0
9, 32220, Note_on_c, 10, 75, 99
9, 32244, Note_on_c, 10, 75, 0
9, 32250, Note_on_c, 10, 70, 91
9, 32274, Note_on_c, 10, 70, 0
9, 32280, Note_on_c, 10, 75, 101
9, 32304, Note_on_c, 10, 75, 0
9, 32310, Note_on_c, 10, 70, 83
9, 32334, Note_on_c, 10, 70, 0
9, 32340, Note_on_c, 10, 77, 121
9, 32364, Note_on_c, 10, 77, 0
9, 32370, Note_on_c, 10, 70, 109
9, 32394, Note_on_c, 10, 70, 0
9, 32400, Note_on_c, 10, 79, 127
9, 32400, Note_on_c, 10, 70, 89
9, 32496, Note_on_c, 10, 70, 0
9, 32496, Note_on_c, 10, 79, 0
9, 32520, Note_on_c, 10, 79, 109
9, 32568, Note_on_c, 10, 79, 0
9, 32580, Note_on_c, 10, 82, 109
9, 32676, Note_on_c, 10, 82, 0
9, 32700, Note_on_c, 10, 79, 127
9, 32748, Note_on_c, 10, 79, 0
9, 32760, Note_on_c, 10, 70, 83
9, 32760, Note_on_c, 10, 77, 127
9, 32856, Note_on_c, 10, 77, 0
9, 32856, Note_on_c, 10, 70, 0
9, 32880, Note_on_c, 10, 77, 120
9, 32928, Note_on_c, 10, 77, 0
9, 32940, Note_on_c, 10, 82, 109
9, 33036, Note_on_c, 10, 82, 0
9, 33060, Note_on_c, 10, 77, 102
9, 33108, Note_on_c, 10, 77, 0
9, 33120, Note_on_c, 10, 71, 103
9, 33120, Note_on_c, 10, 76, 98
9, 33216, Note_on_c, 10, 76, 0
9, 33216, Note_on_c, 10, 71, 0
9, 33240, Note_on_c, 10, 76, 116
9, 33288, Note_on_c, 10, 76, 0
9, 33300, Note_on_c, 10, 82, 105
9, 33396, Note_on_c, 10, 82, 0
9, 33420, Note_on_c, 10, 76, 121
9, 33468, Note_on_c, 10, 76, 0
9, 33480, Note_on_c, 10, 77, 110
9, 33576, Note_on_c, 10, 77, 0
9, 33600, Note_on_c, 10, 77, 110
9, 33648, Note_on_c, 10, 77, 0
9, 33660, Note_on_c, 10, 78, 109
9, 33756, Note_on_c, 10, 78, 0
9, 33780, Note_on_c, 10, 75, 80
9, 33828, Note_on_c, 10, 75, 0
9, 33840, Note_on_c, 10, 73, 85
9, 33984, Note_on_c, 10, 73, 0
9, 34020, Note_on_c, 10, 68, 107
9, 34116, Note_on_c, 10, 68, 0
9, 34140, Note_on_c, 10, 77, 121
9, 34188, Note_on_c, 10, 77, 0
9, 34200, Note_on_c, 10, 69, 108
9, 34344, Note_on_c, 10, 69, 0
9, 34380, Note_on_c, 10, 65, 118
9, 34476, Note_on_c, 10, 65, 0
9, 34500, Note_on_c, 10, 72, 103
9, 34548, Note_on_c, 10, 72, 0
9, 34560, Note_on_c, 10, 70, 103
9, 34704, Note_on_c, 10, 70, 0
9, 34740, Note_on_c, 10, 65, 127
9, 34836, Note_on_c, 10, 65, 0
9, 34860, Note_on_c, 10, 73, 105
9, 34908, Note_on_c, 10, 73, 0
9, 34920, Note_on_c, 10, 68, 99
9, 35064, Note_on_c, 10, 68, 0
9, 35100, Note_on_c, 10, 67, 121
9, 35196, Note_on_c, 10, 67, 0
9, 35220, Note_on_c, 10, 74, 99
9, 35268, Note_on_c, 10, 74, 0
9, 35280, Note_on_c, 10, 76, 106
9, 35376, Note_on_c, 10, 76, 0
9, 35940, Note_on_c, 10, 77, 97
9, 35964, Note_on_c, 10, 77, 0
9, 35970, Note_on_c, 10, 74, 109
9, 35994, Note_on_c, 10, 74, 0
9, 36000, Note_on_c, 10, 71, 112
9, 36024, Note_on_c, 10, 71, 0
9, 36030, Note_on_c, 10, 72, 125
9, 36054, Note_on_c, 10, 72, 0
9, 36060, Note_on_c, 10, 74, 123
9, 36084, Note_on_c, 10, 74, 0
9, 36090, Note_on_c, 10, 76, 109
9, 36114, Note_on_c, 10, 76, 0
9, 36120, Note_on_c, 10, 77, 105
9, 36144, Note_on_c, 10, 77, 0
9, 36150, Note_on_c, 10, 76, 113
9, 36174, Note_on_c, 10, 76, 0
9, 36180, Note_on_c, 10, 79, 78
9, 36204, Note_on_c, 10, 79, 0
9, 36210, Note_on_c, 10, 77, 127
9, 36234, Note_on_c, 10, 77, 0
9, 36240, Note_on_c, 10, 76, 102
9, 36264, Note_on_c, 10, 76, 0
9, 36270, Note_on_c, 10, 74, 106
9, 36294, Note_on_c, 10, 74, 0
9, 36300, Note_on_c, 10, 72, 107
9, 36324, Note_on_c, 10, 72, 0
9, 36330, Note_on_c, 10, 71, 105
9, 36354, Note_on_c, 10, 71, 0
9, 36360, Note_on_c, 10, 72, 111
9, 36384, Note_on_c, 10, 72, 0
9, 36390, Note_on_c, 10, 74, 127
9, 36414, Note_on_c, 10, 74, 0
9, 36420, Note_on_c, 10, 76, 120
9, 36444, Note_on_c, 10, 76, 0
9, 36450, Note_on_c, 10, 77, 111
9, 36474, Note_on_c, 10, 77, 0
9, 36480, Note_on_c, 10, 79, 121
9, 36504, Note_on_c, 10, 79, 0
9, 36510, Note_on_c, 10, 78, 80
9, 36534, Note_on_c, 10, 78, 0
9, 36540, Note_on_c, 10, 81, 101
9, 36564, Note_on_c, 10, 81, 0
9, 36570, Note_on_c, 10, 79, 111
9, 36594, Note_on_c, 10, 79, 0
9, 36600, Note_on_c, 10, 77, 110
9, 36624, Note_on_c, 10, 77, 0
9, 36630, Note_on_c, 10, 76, 112
9, 36654, Note_on_c, 10, 76, 0
9, 36660, Note_on_c, 10, 74, 103
9, 36684, Note_on_c, 10, 74, 0
9, 36690, Note_on_c, 10, 72, 101
9, 36714, Note_on_c, 10, 72, 0
9, 37380, Note_on_c, 10, 77, 127
9, 37404, Note_on_c, 10, 77, 0
9, 37410, Note_on_c, 10, 74, 117
9, 37434, Note_on_c, 10, 74, 0
9, 37440, Note_on_c, 10, 71, 123
9, 37464, Note_on_c, 10, 71, 0
9, 37470, Note_on_c, 10, 72, 127
9, 37494, Note_on_c, 10, 72, 0
9, 37500, Note_on_c, 10, 74, 116
9, 37524, Note_on_c, 10, 74, 0
9, 37530, Note_on_c, 10, 76, 109
9, 37554, Note_on_c, 10, 76, 0
9, 37560, Note_on_c, 10, 77, 113
9, 37584, Note_on_c, 10, 77, 0
9, 37590, Note_on_c, 10, 76, 121
9, 37614, Note_on_c, 10, 76, 0
9, 37620, Note_on_c, 10, 79, 108
9, 37644, Note_on_c, 10, 79, 0
9, 37650, Note_on_c, 10, 77, 114
9, 37674, Note_on_c, 10, 77, 0
9, 37680, Note_on_c, 10, 76, 101
9, 37704, Note_on_c, 10, 76, 0
9, 37710, Note_on_c, 10, 74, 109
9, 37734, Note_on_c, 10, 74, 0
9, 37740, Note_on_c, 10, 72, 103
9, 37764, Note_on_c, 10, 72, 0
9, 37770, Note_on_c, 10, 71, 106
9, 37794, Note_on_c, 10, 71, 0
9, 37800, Note_on_c, 10, 72, 114
9, 37824, Note_on_c, 10, 72, 0
9, 37830, Note_on_c, 10, 74, 120
9, 37854, Note_on_c, 10, 74, 0
9, 37860, Note_on_c, 10, 76, 112
9, 37884, Note_on_c, 10, 76, 0
9, 37890, Note_on_c, 10, 77, 110
9, 37914, Note_on_c, 10, 77, 0
9, 37920, Note_on_c, 10, 79, 109
9, 37944, Note_on_c, 10, 79, 0
9, 37950, Note_on_c, 10, 78, 83
9, 37974, Note_on_c, 10, 78, 0
9, 37980, Note_on_c, 10, 81, 113
9, 38004, Note_on_c, 10, 81, 0
9, 38010, Note_on_c, 10, 79, 127
9, 38034, Note_on_c, 10, 79, 0
9, 38040, Note_on_c, 10, 77, 96
9, 38064, Note_on_c, 10, 77, 0
9, 38070, Note_on_c, 10, 76, 102
9, 38094, Note_on_c, 10, 76, 0
9, 38100, Note_on_c, 10, 74, 104
9, 38124, Note_on_c, 10, 74, 0
9, 38130, Note_on_c, 10, 72, 114
9, 38154, Note_on_c, 10, 72, 0
9, 38160, Note_on_c, 10, 72, 93
9, 38184, Note_on_c, 10, 72, 0
9, 38190, Note_on_c, 10, 74, 116
9, 38214, Note_on_c, 10, 74, 0
9, 38220, Note_on_c, 10, 76, 100
9, 38244, Note_on_c, 10, 76, 0
9, 38250, Note_on_c, 10, 77, 113
9, 38274, Note_on_c, 10, 77, 0
9, 38280, Note_on_c, 10, 79, 125
9, 38304, Note_on_c, 10, 79, 0
9, 38310, Note_on_c, 10, 78, 81
9, 38334, Note_on_c, 10, 78, 0
9, 38340, Note_on_c, 10, 81, 110
9, 38364, Note_on_c, 10, 81, 0
9, 38370, Note_on_c, 10, 79, 123
9, 38394, Note_on_c, 10, 79, 0
9, 38400, Note_on_c, 10, 77, 99
9, 38424, Note_on_c, 10, 77, 0
9, 38430, Note_on_c, 10, 76, 111
9, 38454, Note_on_c, 10, 76, 0
9, 38460, Note_on_c, 10, 74, 104
9, 38484, Note_on_c, 10, 74, 0
9, 38490, Note_on_c, 10, 72, 117
9, 38514, Note_on_c, 10, 72, 0
9, 38520, Note_on_c, 10, 72, 114
9, 38544, Note_on_c, 10, 72, 0
9, 38550, Note_on_c, 10, 74, 121
9, 38574, Note_on_c, 10, 74, 0
9, 38580, Note_on_c, 10, 76, 117
9, 38604, Note_on_c, 10, 76, 0
9, 38610, Note_on_c, 10, 77, 123
9, 38634, Note_on_c, 10, 77, 0
9, 38640, Note_on_c, 10, 79, 117
9, 38664, Note_on_c, 10, 79, 0
9, 38670, Note_on_c, 10, 78, 94
9, 38694, Note_on_c, 10, 78, 0
9, 38700, Note_on_c, 10, 81, 110
9, 38724, Note_on_c, 10, 81, 0
9, 38730, Note_on_c, 10, 79, 123
9, 38754, Note_on_c, 10, 79, 0
9, 38760, Note_on_c, 10, 77, 107
9, 38784, Note_on_c, 10, 77, 0
9, 38790, Note_on_c, 10, 76, 113
9, 38814, Note_on_c, 10, 76, 0
9, 38820, Note_on_c, 10, 74, 109
9, 38844, Note_on_c, 10, 74, 0
9, 38850, Note_on_c, 10, 72, 102
9, 38874, Note_on_c, 10, 72, 0
9, 38880, Note_on_c, 10, 72, 108
9, 38904, Note_on_c, 10, 72, 0
9, 38910, Note_on_c, 10, 74, 116
9, 38934, Note_on_c, 10, 74, 0
9, 38940, Note_on_c, 10, 76, 116
9, 38964, Note_on_c, 10, 76, 0
9, 38970, Note_on_c, 10, 77, 105
9, 38994, Note_on_c, 10, 77, 0
9, 39000, Note_on_c, 10, 79, 117
9, 39024, Note_on_c, 10, 79, 0
9, 39030, Note_on_c, 10, 78, 82
9, 39054, Note_on_c, 10, 78, 0
9, 39060, Note_on_c, 10, 81, 113
9, 39084, Note_on_c, 10, 81, 0
9, 39090, Note_on_c, 10, 79, 125
9, 39114, Note_on_c, 10, 79, 0
9, 39120, Note_on_c, 10, 77, 101
9, 39144, Note_on_c, 10, 77, 0
9, 39150, Note_on_c, 10, 76, 123
9, 39174, Note_on_c, 10, 76, 0
9, 39180, Note_on_c, 10, 74, 106
9, 39204, Note_on_c, 10, 74, 0
9, 39210, Note_on_c, 10, 72, 116
9, 39234, Note_on_c, 10, 72, 0
9, 39240, Note_on_c, 10, 72, 120
9, 39264, Note_on_c, 10, 72, 0
9, 39270, Note_on_c, 10, 74, 127
9, 39294, Note_on_c, 10, 74, 0
9, 39300, Note_on_c, 10, 76, 114
9, 39324, Note_on_c, 10, 76, 0
9, 39330, Note_on_c, 10, 77, 123
9, 39354, Note_on_c, 10, 77, 0
9, 39360, Note_on_c, 10, 79, 114
9, 39384, Note_on_c, 10, 79, 0
9, 39390, Note_on_c, 10, 78, 82
9, 39414, Note_on_c, 10, 78, 0
9, 39420, Note_on_c, 10, 81, 112
9, 39444, Note_on_c, 10, 81, 0
9, 39450, Note_on_c, 10, 79, 107
9, 39474, Note_on_c, 10, 79, 0
9, 39480, Note_on_c, 10, 77, 104
9, 39504, Note_on_c, 10, 77, 0
9, 39510, Note_on_c, 10, 76, 117
9, 39534, Note_on_c, 10, 76, 0
9, 39540, Note_on_c, 10, 74, 107
9, 39564, Note_on_c, 10, 74, 0
9, 39570, Note_on_c, 10, 72, 121
9, 39594, Note_on_c, 10, 72, 0
9, 39600, Note_on_c, 10, 81, 127
9, 39624, Note_on_c, 10, 81, 0
9, 39630, Note_on_c, 10, 79, 120
9, 39654, Note_on_c, 10, 79, 0
9, 39660, Note_on_c, 10, 77, 123
9, 39684, Note_on_c, 10, 77, 0
9, 39690, Note_on_c, 10, 76, 117
9, 39714, Note_on_c, 10, 76, 0
9, 39720, Note_on_c, 10, 74, 105
9, 39744, Note_on_c, 10, 74, 0
9, 39750, Note_on_c, 10, 72, 96
9, 39774, Note_on_c, 10, 72, 0
9, 39780, Note_on_c, 10, 81, 104
9, 39804, Note_on_c, 10, 81, 0
9, 39810, Note_on_c, 10, 79, 103
9, 39834, Note_on_c, 10, 79, 0
9, 39840, Note_on_c, 10, 77, 127
9, 39864, Note_on_c, 10, 77, 0
9, 39870, Note_on_c, 10, 76, 108
9, 39894, Note_on_c, 10, 76, 0
9, 39900, Note_on_c, 10, 74, 102
9, 39924, Note_on_c, 10, 74, 0
9, 39930, Note_on_c, 10, 72, 101
9, 39954, Note_on_c, 10, 72, 0
9, 39960, Note_on_c, 10, 81, 127
9, 39984, Note_on_c, 10, 81, 0
9, 39990, Note_on_c, 10, 79, 103
9, 40014, Note_on_c, 10, 79, 0
9, 40020, Note_on_c, 10, 77, 121
9, 40044, Note_on_c, 10, 77, 0
9, 40050, Note_on_c, 10, 76, 112
9, 40074, Note_on_c, 10, 76, 0
9, 40080, Note_on_c, 10, 74, 116
9, 40104, Note_on_c, 10, 74, 0
9, 40110, Note_on_c, 10, 72, 109
9, 40134, Note_on_c, 10, 72, 0
9, 40140, Note_on_c, 10, 81, 127
9, 40164, Note_on_c, 10, 81, 0
9, 40170, Note_on_c, 10, 79, 123
9, 40194, Note_on_c, 10, 79, 0
9, 40200, Note_on_c, 10, 77, 113
9, 40224, Note_on_c, 10, 77, 0
9, 40230, Note_on_c, 10, 76, 103
9, 40254, Note_on_c, 10, 76, 0
9, 40260, Note_on_c, 10, 74, 109
9, 40284, Note_on_c, 10, 74, 0
9, 40290, Note_on_c, 10, 72, 110
9, 40314, Note_on_c, 10, 72, 0
9, 40320, Note_on_c, 10, 81, 127
9, 40344, Note_on_c, 10, 81, 0
9, 40350, Note_on_c, 10, 79, 111
9, 40374, Note_on_c, 10, 79, 0
9, 40380, Note_on_c, 10, 77, 113
9, 40404, Note_on_c, 10, 77, 0
9, 40410, Note_on_c, 10, 76, 102
9, 40434, Note_on_c, 10, 76, 0
9, 40440, Note_on_c, 10, 74, 107
9, 40464, Note_on_c, 10, 74, 0
9, 40470, Note_on_c, 10, 72, 103
9, 40494, Note_on_c, 10, 72, 0
9, 40500, Note_on_c, 10, 81, 120
9, 40524, Note_on_c, 10, 81, 0
9, 40530, Note_on_c, 10, 79, 114
9, 40554, Note_on_c, 10, 79, 0
9, 40560, Note_on_c, 10, 77, 120
9, 40584, Note_on_c, 10, 77, 0
9, 40590, Note_on_c, 10, 76, 102
9, 40614, Note_on_c, 10, 76, 0
9, 40620, Note_on_c, 10, 74, 105
9, 40644, Note_on_c, 10, 74, 0
9, 40650, Note_on_c, 10, 72, 105
9, 40674, Note_on_c, 10, 72, 0
9, 40680, Note_on_c, 10, 81, 127
9, 40704, Note_on_c, 10, 81, 0
9, 40710, Note_on_c, 10, 79, 123
9, 40734, Note_on_c, 10, 79, 0
9, 40740, Note_on_c, 10, 77, 113
9, 40764, Note_on_c, 10, 77, 0
9, 40770, Note_on_c, 10, 76, 103
9, 40794, Note_on_c, 10, 76, 0
9, 40800, Note_on_c, 10, 74, 101
9, 40824, Note_on_c, 10, 74, 0
9, 40830, Note_on_c, 10, 72, 104
9, 40854, Note_on_c, 10, 72, 0
9, 40860, Note_on_c, 10, 84, 125
9, 40884, Note_on_c, 10, 84, 0
9, 40890, Note_on_c, 10, 82, 101
9, 40914, Note_on_c, 10, 82, 0
9, 40920, Note_on_c, 10, 81, 98
9, 40944, Note_on_c, 10, 81, 0
9, 40950, Note_on_c, 10, 79, 105
9, 40974, Note_on_c, 10, 79, 0
9, 40980, Note_on_c, 10, 77, 101
9, 41004, Note_on_c, 10, 77, 0
9, 41010, Note_on_c, 10, 76, 121
9, 41034, Note_on_c, 10, 76, 0
9, 41040, Note_on_c, 10, 74, 127
9, 41064, Note_on_c, 10, 74, 0
9, 41070, Note_on_c, 10, 72, 127
9, 41094, Note_on_c, 10, 72, 0
9, 41100, Note_on_c, 10, 70, 107
9, 41124, Note_on_c, 10, 70, 0
9, 41130, Note_on_c, 10, 69, 109
9, 41154, Note_on_c, 10, 69, 0
9, 41160, Note_on_c, 10, 67, 101
9, 41184, Note_on_c, 10, 67, 0
9, 41190, Note_on_c, 10, 65, 114
9, 41214, Note_on_c, 10, 65, 0
9, 41220, Note_on_c, 10, 64, 101
9, 41244, Note_on_c, 10, 64, 0
9, 41250, Note_on_c, 10, 62, 113
9, 41274, Note_on_c, 10, 62, 0
9, 41280, Note_on_c, 10, 60, 121
9, 41304, Note_on_c, 10, 60, 0
9, 41310, Note_on_c, 10, 58, 99
9, 41334, Note_on_c, 10, 58, 0
9, 41340, Note_on_c, 10, 57, 112
9, 41364, Note_on_c, 10, 57, 0
9, 41370, Note_on_c, 10, 55, 111
9, 41394, Note_on_c, 10, 55, 0
9, 41400, Note_on_c, 10, 58, 115
9, 41424, Note_on_c, 10, 58, 0
9, 41430, Note_on_c, 10, 60, 107
9, 41454, Note_on_c, 10, 60, 0
9, 41460, Note_on_c, 10, 64, 127
9, 41484, Note_on_c, 10, 64, 0
9, 41490, Note_on_c, 10, 67, 127
9, 41514, Note_on_c, 10, 67, 0
9, 41520, Note_on_c, 10, 70, 109
9, 41544, Note_on_c, 10, 70, 0
9, 41550, Note_on_c, 10, 72, 127
9, 41574, Note_on_c, 10, 72, 0
9, 41580, Note_on_c, 10, 76, 127
9, 41604, Note_on_c, 10, 76, 0
9, 41610, Note_on_c, 10, 79, 123
9, 41634, Note_on_c, 10, 79, 0
9, 41640, Note_on_c, 10, 82, 84
9, 41664, Note_on_c, 10, 82, 0
9, 41670, Note_on_c, 10, 79, 103
9, 41694, Note_on_c, 10, 79, 0
9, 41700, Note_on_c, 10, 84, 127
9, 41724, Note_on_c, 10, 84, 0
9, 41730, Note_on_c, 10, 82, 111
9, 41754, Note_on_c, 10, 82, 0
9, 41760, Note_on_c, 10, 81, 120
9, 41784, Note_on_c, 10, 81, 0
9, 41790, Note_on_c, 10, 82, 95
9, 41814, Note_on_c, 10, 82, 0
9, 41820, Note_on_c, 10, 81, 102
9, 41844, Note_on_c, 10, 81, 0
9, 41850, Note_on_c, 10, 79, 111
9, 41874, Note_on_c, 10, 79, 0
9, 41880, Note_on_c, 10, 77, 109
9, 41904, Note_on_c, 10, 77, 0
9, 41910, Note_on_c, 10, 76, 101
9, 41934, Note_on_c, 10, 76, 0
9, 41940, Note_on_c, 10, 77, 112
9, 41964, Note_on_c, 10, 77, 0
9, 41970, Note_on_c, 10, 79, 109
9, 41994, Note_on_c, 10, 79, 0
9, 42000, Note_on_c, 10, 81, 120
9, 42024, Note_on_c, 10, 81, 0
9, 42030, Note_on_c, 10, 82, 80
9, 42054, Note_on_c, 10, 82, 0
9, 42060, Note_on_c, 10, 84, 116
9, 42084, Note_on_c, 10, 84, 0
9, 42090, Note_on_c, 10, 82, 103
9, 42114, Note_on_c, 10, 82, 0
9, 42120, Note_on_c, 10, 81, 102
9, 42144, Note_on_c, 10, 81, 0
9, 42150, Note_on_c, 10, 82, 109
9, 42174, Note_on_c, 10, 82, 0
9, 42180, Note_on_c, 10, 81, 110
9, 42204, Note_on_c, 10, 81, 0
9, 42210, Note_on_c, 10, 79, 111
9, 42234, Note_on_c, 10, 79, 0
9, 42240, Note_on_c, 10, 77, 105
9, 42264, Note_on_c, 10, 77, 0
9, 42270, Note_on_c, 10, 76, 102
9, 42294, Note_on_c, 10, 76, 0
9, 42300, Note_on_c, 10, 77, 109
9, 42324, Note_on_c, 10, 77, 0
9, 42330, Note_on_c, 10, 76, 101
9, 42354, Note_on_c, 10, 76, 0
9, 42360, Note_on_c, 10, 77, 103
9, 42384, Note_on_c, 10, 77, 0
9, 42390, Note_on_c, 10, 72, 99
9, 42414, Note_on_c, 10, 72, 0
9, 42420, Note_on_c, 10, 74, 125
9, 42444, Note_on_c, 10, 74, 0
9, 42450, Note_on_c, 10, 76, 112
9, 42474, Note_on_c, 10, 76, 0
9, 42480, Note_on_c, 10, 77, 123
9, 42504, Note_on_c, 10, 77, 0
9, 42510, Note_on_c, 10, 79, 112
9, 42534, Note_on_c, 10, 79, 0
9, 42540, Note_on_c, 10, 77, 110
9, 42564, Note_on_c, 10, 77, 0
9, 42570, Note_on_c, 10, 76, 109
9, 42594, Note_on_c, 10, 76, 0
9, 42600, Note_on_c, 10, 77, 121
9, 42624, Note_on_c, 10, 77, 0
9, 42630, Note_on_c, 10, 79, 107
9, 42654, Note_on_c, 10, 79, 0
9, 42660, Note_on_c, 10, 81, 113
9, 42684, Note_on_c, 10, 81, 0
9, 42690, Note_on_c, 10, 82, 84
9, 42714, Note_on_c, 10, 82, 0
9, 42720, Note_on_c, 10, 84, 117
9, 42744, Note_on_c, 10, 84, 0
9, 42750, Note_on_c, 10, 83, 109
9, 42774, Note_on_c, 10, 83, 0
9, 42780, Note_on_c, 10, 84, 109
9, 42804, Note_on_c, 10, 84, 0
9, 42810, Note_on_c, 10, 81, 112
9, 42834, Note_on_c, 10, 81, 0
9, 42840, Note_on_c, 10, 82, 101
9, 42864, Note_on_c, 10, 82, 0
9, 42870, Note_on_c, 10, 84, 99
9, 42894, Note_on_c, 10, 84, 0
9, 42900, Note_on_c, 10, 86, 121
9, 42924, Note_on_c, 10, 86, 0
9, 42930, Note_on_c, 10, 84, 107
9, 42954, Note_on_c, 10, 84, 0
9, 42960, Note_on_c, 10, 82, 97
9, 42984, Note_on_c, 10, 82, 0
9, 42990, Note_on_c, 10, 84, 103
9, 43014, Note_on_c, 10, 84, 0
9, 43020, Note_on_c, 10, 82, 111
9, 43044, Note_on_c, 10, 82, 0
9, 43050, Note_on_c, 10, 84, 108
9, 43074, Note_on_c, 10, 84, 0
9, 43080, Note_on_c, 10, 82, 97
9, 43104, Note_on_c, 10, 82, 0
9, 43110, Note_on_c, 10, 81, 102
9, 43134, Note_on_c, 10, 81, 0
9, 43140, Note_on_c, 10, 79, 107
9, 43164, Note_on_c, 10, 79, 0
9, 43170, Note_on_c, 10, 81, 116
9, 43194, Note_on_c, 10, 81, 0
9, 43200, Note_on_c, 10, 82, 103
9, 43224, Note_on_c, 10, 82, 0
9, 43230, Note_on_c, 10, 84, 107
9, 43254, Note_on_c, 10, 84, 0
9, 43260, Note_on_c, 10, 82, 95
9, 43284, Note_on_c, 10, 82, 0
9, 43290, Note_on_c, 10, 81, 101
9, 43314, Note_on_c, 10, 81, 0
9, 43320, Note_on_c, 10, 79, 101
9, 43344, Note_on_c, 10, 79, 0
9, 43350, Note_on_c, 10, 78, 85
9, 43374, Note_on_c, 10, 78, 0
9, 43380, Note_on_c, 10, 79, 102
9, 43404, Note_on_c, 10, 79, 0
9, 43410, Note_on_c, 10, 81, 121
9, 43434, Note_on_c, 10, 81, 0
9, 43440, Note_on_c, 10, 82, 95
9, 43464, Note_on_c, 10, 82, 0
9, 43470, Note_on_c, 10, 83, 97
9, 43494, Note_on_c, 10, 83, 0
9, 43500, Note_on_c, 10, 84, 118
9, 43524, Note_on_c, 10, 84, 0
9, 43530, Note_on_c, 10, 82, 92
9, 43554, Note_on_c, 10, 82, 0
9, 43560, Note_on_c, 10, 81, 108
9, 43584, Note_on_c, 10, 81, 0
9, 43590, Note_on_c, 10, 82, 99
9, 43614, Note_on_c, 10, 82, 0
9, 43620, Note_on_c, 10, 81, 109
9, 43644, Note_on_c, 10, 81, 0
9, 43650, Note_on_c, 10, 79, 105
9, 43674, Note_on_c, 10, 79, 0
9, 43680, Note_on_c, 10, 81, 109
9, 43704, Note_on_c, 10, 81, 0
9, 43710, Note_on_c, 10, 79, 112
9, 43734, Note_on_c, 10, 79, 0
9, 43740, Note_on_c, 10, 77, 123
9, 43764, Note_on_c, 10, 77, 0
9, 43770, Note_on_c, 10, 79, 105
9, 43794, Note_on_c, 10, 79, 0
9, 43800, Note_on_c, 10, 77, 117
9, 43824, Note_on_c, 10, 77, 0
9, 43830, Note_on_c, 10, 76, 102
9, 43854, Note_on_c, 10, 76, 0
9, 43860, Note_on_c, 10, 77, 113
9, 43884, Note_on_c, 10, 77, 0
9, 43890, Note_on_c, 10, 81, 105
9, 43914, Note_on_c, 10, 81, 0
9, 43920, Note_on_c, 10, 81, 121
9, 43944, Note_on_c, 10, 81, 0
9, 43950, Note_on_c, 10, 79, 109
9, 43974, Note_on_c, 10, 79, 0
9, 43980, Note_on_c, 10, 77, 105
9, 44004, Note_on_c, 10, 77, 0
9, 44010, Note_on_c, 10, 79, 101
9, 44034, Note_on_c, 10, 79, 0
9, 44040, Note_on_c, 10, 74, 103
9, 44064, Note_on_c, 10, 74, 0
9, 44070, Note_on_c, 10, 79, 116
9, 44094, Note_on_c, 10, 79, 0
9, 44100, Note_on_c, 10, 77, 102
9, 44124, Note_on_c, 10, 77, 0
9, 44130, Note_on_c, 10, 76, 100
9, 44154, Note_on_c, 10, 76, 0
9, 44160, Note_on_c, 10, 74, 104
9, 44184, Note_on_c, 10, 74, 0
9, 44190, Note_on_c, 10, 76, 102
9, 44214, Note_on_c, 10, 76, 0
9, 44220, Note_on_c, 10, 72, 98
9, 44244, Note_on_c, 10, 72, 0
9, 44250, Note_on_c, 10, 76, 98
9, 44274, Note_on_c, 10, 76, 0
9, 44280, Note_on_c, 10, 72, 104
9, 44304, Note_on_c, 10, 72, 0
9, 44310, Note_on_c, 10, 77, 127
9, 44334, Note_on_c, 10, 77, 0
9, 44340, Note_on_c, 10, 72, 123
9, 44364, Note_on_c, 10, 72, 0
9, 44370, Note_on_c, 10, 70, 99
9, 44394, Note_on_c, 10, 70, 0
9, 44400, Note_on_c, 10, 69, 120
9, 44424, Note_on_c, 10, 69, 0
9, 44430, Note_on_c, 10, 70, 92
9, 44454, Note_on_c, 10, 70, 0
9, 44460, Note_on_c, 10, 72, 102
9, 44484, Note_on_c, 10, 72, 0
9, 44490, Note_on_c, 10, 74, 120
9, 44514, Note_on_c, 10, 74, 0
9, 44520, Note_on_c, 10, 76, 123
9, 44544, Note_on_c, 10, 76, 0
9, 44550, Note_on_c, 10, 77, 98
9, 44574, Note_on_c, 10, 77, 0
9, 44580, Note_on_c, 10, 79, 111
9, 44604, Note_on_c, 10, 79, 0
9, 44610, Note_on_c, 10, 81, 123
9, 44634, Note_on_c, 10, 81, 0
9, 44640, Note_on_c, 10, 77, 123
9, 44736, Note_on_c, 10, 77, 0
9, 44760, Note_on_c, 10, 81, 110
9, 44808, Note_on_c, 10, 81, 0
9, 44820, Note_on_c, 10, 81, 112
9, 44868, Note_on_c, 10, 81, 0
9, 44880, Note_on_c, 10, 77, 106
9, 44928, Note_on_c, 10, 77, 0
9, 44940, Note_on_c, 10, 84, 127
9, 44988, Note_on_c, 10, 84, 0
9, 45120, Note_on_c, 10, 81, 109
9, 45168, Note_on_c, 10, 81, 0
9, 45180, Note_on_c, 10, 81, 110
9, 45228, Note_on_c, 10, 81, 0
9, 45240, Note_on_c, 10, 72, 108
9, 45288, Note_on_c, 10, 72, 0
9, 45300, Note_on_c, 10, 77, 127
9, 45348, Note_on_c, 10, 77, 0
9, 45480, Note_on_c, 10, 81, 105
9, 45528, Note_on_c, 10, 81, 0
9, 45540, Note_on_c, 10, 81, 118
9, 45588, Note_on_c, 10, 81, 0
9, 45600, Note_on_c, 10, 77, 102
9, 45648, Note_on_c, 10, 77, 0
9, 45660, Note_on_c, 10, 84, 127
9, 45708, Note_on_c, 10, 84, 0
9, 45840, Note_on_c, 10, 82, 111
9, 45888, Note_on_c, 10, 82, 0
9, 45900, Note_on_c, 10, 82, 101
9, 45948, Note_on_c, 10, 82, 0
9, 45960, Note_on_c, 10, 77, 116
9, 46008, Note_on_c, 10, 77, 0
9, 46020, Note_on_c, 10, 79, 127
9, 46068, Note_on_c, 10, 79, 0
9, 46200, Note_on_c, 10, 82, 111
9, 46248, Note_on_c, 10, 82, 0
9, 46260, Note_on_c, 10, 82, 111
9, 46308, Note_on_c, 10, 82, 0
9, 46320, Note_on_c, 10, 79, 113
9, 46368, Note_on_c, 10, 79, 0
9, 46380, Note_on_c, 10, 84, 127
9, 46428, Note_on_c, 10, 84, 0
9, 46560, Note_on_c, 10, 81, 123
9, 46608, Note_on_c, 10, 81, 0
9, 46620, Note_on_c, 10, 81, 100
9, 46668, Note_on_c, 10, 81, 0
9, 46680, Note_on_c, 10, 77, 103
9, 46728, Note_on_c, 10, 77, 0
9, 46740, Note_on_c, 10, 84, 127
9, 46788, Note_on_c, 10, 84, 0
9, 46920, Note_on_c, 10, 79, 118
9, 46968, Note_on_c, 10, 79, 0
9, 46980, Note_on_c, 10, 79, 127
9, 47028, Note_on_c, 10, 79, 0
9, 47040, Note_on_c, 10, 76, 79
9, 47088, Note_on_c, 10, 76, 0
9, 47100, Note_on_c, 10, 84, 127
9, 47148, Note_on_c, 10, 84, 0
9, 47280, Note_on_c, 10, 77, 105
9, 47296, Note_on_c, 10, 77, 0
9, 47300, Note_on_c, 10, 77, 110
9, 47316, Note_on_c, 10, 77, 0
9, 47320, Note_on_c, 10, 77, 105
9, 47336, Note_on_c, 10, 77, 0
9, 47340, Note_on_c, 10, 77, 114
9, 47356, Note_on_c, 10, 77, 0
9, 47360, Note_on_c, 10, 77, 100
9, 47376, Note_on_c, 10, 77, 0
9, 47380, Note_on_c, 10, 77, 114
9, 47396, Note_on_c, 10, 77, 0
9, 47400, Note_on_c, 10, 81, 106
9, 47416, Note_on_c, 10, 81, 0
9, 47420, Note_on_c, 10, 81, 110
9, 47436, Note_on_c, 10, 81, 0
9, 47440, Note_on_c, 10, 81, 98
9, 47456, Note_on_c, 10, 81, 0
9, 47460, Note_on_c, 10, 84, 112
9, 47476, Note_on_c, 10, 84, 0
9, 47480, Note_on_c, 10, 84, 106
9, 47496, Note_on_c, 10, 84, 0
9, 47500, Note_on_c, 10, 84, 118
9, 47516, Note_on_c, 10, 84, 0
9, 47520, Note_on_c, 10, 77, 101
9, 47520, Note_on_c, 10, 89, 93
9, 47568, Note_on_c, 10, 89, 0
9, 47568, Note_on_c, 10, 77, 0
9, 47580, Note_on_c, 10, 89, 111
9, 47580, Note_on_c, 10, 77, 104
9, 47628, Note_on_c, 10, 77, 0
9, 47628, Note_on_c, 10, 89, 0
9, 47640, Note_on_c, 10, 89, 108
9, 47640, Note_on_c, 10, 77, 102
9, 47688, Note_on_c, 10, 77, 0
9, 47688, Note_on_c, 10, 89, 0
9, 47700, Note_on_c, 10, 89, 101
9, 47700, Note_on_c, 10, 77, 100
9, 47748, Note_on_c, 10, 77, 0
9, 47748, Note_on_c, 10, 89, 0
9, 47760, Note_on_c, 10, 89, 104
9, 47760, Note_on_c, 10, 77, 101
9, 47808, Note_on_c, 10, 77, 0
9, 47808, Note_on_c, 10, 89, 0
9, 47820, Note_on_c, 10, 77, 103
9, 47820, Note_on_c, 10, 89, 105
9, 47868, Note_on_c, 10, 89, 0
9, 47868, Note_on_c, 10, 77, 0
9, 47880, Note_on_c, 10, 77, 108
9, 47880, Note_on_c, 10, 89, 102
9, 47928, Note_on_c, 10, 89, 0
9, 47928, Note_on_c, 10, 77, 0
9, 47940, Note_on_c, 10, 77, 105
9, 47940, Note_on_c, 10, 89, 108
9, 47988, Note_on_c, 10, 89, 0
9, 47988, Note_on_c, 10, 77, 0
9, 48000, Note_on_c, 10, 89, 110
9, 48000, Note_on_c, 10, 77, 103
9, 48048, Note_on_c, 10, 77, 0
9, 48048, Note_on_c, 10, 89, 0
9, 48060, Note_on_c, 10, 89, 116
9, 48060, Note_on_c, 10, 77, 101
9, 48108, Note_on_c, 10, 77, 0
9, 48108, Note_on_c, 10, 89, 0
9, 48120, Note_on_c, 10, 89, 107
9, 48120, Note_on_c, 10, 77, 103
9, 48168, Note_on_c, 10, 77, 0
9, 48168, Note_on_c, 10, 89, 0
9, 48180, Note_on_c, 10, 89, 114
9, 48180, Note_on_c, 10, 77, 109
9, 48228, Note_on_c, 10, 77, 0
9, 48228, Note_on_c, 10, 89, 0
9, 48240, Note_on_c, 10, 89, 123
9, 48240, Note_on_c, 10, 77, 109
9, 48288, Note_on_c, 10, 77, 0
9, 48288, Note_on_c, 10, 89, 0
9, 48300, Note_on_c, 10, 89, 116
9, 48300, Note_on_c, 10, 77, 107
9, 48348, Note_on_c, 10, 77, 0
9, 48348, Note_on_c, 10, 89, 0
9, 48360, Note_on_c, 10, 89, 127
9, 48360, Note_on_c, 10, 77, 112
9, 48408, Note_on_c, 10, 77, 0
9, 48408, Note_on_c, 10, 89, 0
9, 48420, Note_on_c, 10, 89, 121
9, 48420, Note_on_c, 10, 77, 108
9, 48468, Note_on_c, 10, 77, 0
9, 48468, Note_on_c, 10, 89, 0
9, 48480, Note_on_c, 10, 89, 113
9, 48480, Note_on_c, 10, 77, 108
9, 48528, Note_on_c, 10, 77, 0
9, 48528, Note_on_c, 10, 89, 0
9, 48540, Note_on_c, 10, 89, 125
9, 48540, Note_on_c, 10, 77, 113
9, 48588, Note_on_c, 10, 77, 0
9, 48588, Note_on_c, 10, 89, 0
9, 48600, Note_on_c, 10, 77, 116
9, 48600, Note_on_c, 10, 89, 111
9, 48648, Note_on_c, 10, 89, 0
9, 48648, Note_on_c, 10, 77, 0
9, 48660, Note_on_c, 10, 89, 120
9, 48660, Note_on_c, 10, 77, 111
9, 48708, Note_on_c, 10, 77, 0
9, 48708, Note_on_c, 10, 89, 0
9, 48720, Note_on_c, 10, 89, 114
9, 48720, Note_on_c, 10, 77, 105
9, 48768, Note_on_c, 10, 77, 0
9, 48768, Note_on_c, 10, 89, 0
9, 48780, Note_on_c, 10, 89, 103
9, 48780, Note_on_c, 10, 77, 104
9, 48828, Note_on_c, 10, 77, 0
9, 48828, Note_on_c, 10, 89, 0
9, 48840, Note_on_c, 10, 89, 111
9, 48840, Note_on_c, 10, 77, 110
9, 48888, Note_on_c, 10, 77, 0
9, 48888, Note_on_c, 10, 89, 0
9, 48900, Note_on_c, 10, 91, 97
9, 48900, Note_on_c, 10, 79, 98
9, 48948, Note_on_c, 10, 79, 0
9, 48948, Note_on_c, 10, 91, 0
9, 48960, Note_on_c, 10, 91, 100
9, 48960, Note_on_c, 10, 79, 99
9, 49008, Note_on_c, 10, 79, 0
9, 49008, Note_on_c, 10, 91, 0
9, 49020, Note_on_c, 10, 91, 102
9, 49020, Note_on_c, 10, 79, 104
9, 49068, Note_on_c, 10, 79, 0
9, 49068, Note_on_c, 10, 91, 0
9, 49080, Note_on_c, 10, 91, 103
9, 49080, Note_on_c, 10, 79, 101
9, 49128, Note_on_c, 10, 79, 0
9, 49128, Note_on_c, 10, 91, 0
9, 49140, Note_on_c, 10, 91, 118
9, 49140, Note_on_c, 10, 79, 110
9, 49188, Note_on_c, 10, 79, 0
9, 49188, Note_on_c, 10, 91, 0
9, 49200, Note_on_c, 10, 91, 116
9, 49200, Note_on_c, 10, 79, 107
9, 49248, Note_on_c, 10, 79, 0
9, 49248, Note_on_c, 10, 91, 0
9, 49260, Note_on_c, 10, 91, 103
9, 49260, Note_on_c, 10, 79, 101
9, 49308, Note_on_c, 10, 79, 0
9, 49308, Note_on_c, 10, 91, 0
9, 49320, Note_on_c, 10, 91, 101
9, 49320, Note_on_c, 10, 79, 98
9, 49368, Note_on_c, 10, 79, 0
9, 49368, Note_on_c, 10, 91, 0
9, 49380, Note_on_c, 10, 89, 99
9, 49380, Note_on_c, 10, 77, 97
9, 49428, Note_on_c, 10, 77, 0
9, 49428, Note_on_c, 10, 89, 0
9, 49440, Note_on_c, 10, 89, 100
9, 49440, Note_on_c, 10, 77, 101
9, 49488, Note_on_c, 10, 77, 0
9, 49488, Note_on_c, 10, 89, 0
9, 49500, Note_on_c, 10, 89, 102
9, 49500, Note_on_c, 10, 77, 103
9, 49548, Note_on_c, 10, 77, 0
9, 49548, Note_on_c, 10, 89, 0
9, 49560, Note_on_c, 10, 89, 103
9, 49560, Note_on_c, 10, 77, 101
9, 49608, Note_on_c, 10, 77, 0
9, 49608, Note_on_c, 10, 89, 0
9, 49620, Note_on_c, 10, 89, 100
9, 49620, Note_on_c, 10, 77, 100
9, 49668, Note_on_c, 10, 77, 0
9, 49668, Note_on_c, 10, 89, 0
9, 49680, Note_on_c, 10, 89, 100
9, 49680, Note_on_c, 10, 77, 99
9, 49728, Note_on_c, 10, 77, 0
9, 49728, Note_on_c, 10, 89, 0
9, 49740, Note_on_c, 10, 89, 104
9, 49740, Note_on_c, 10, 77, 103
9, 49788, Note_on_c, 10, 77, 0
9, 49788, Note_on_c, 10, 89, 0
9, 49800, Note_on_c, 10, 89, 102
9, 49800, Note_on_c, 10, 77, 99
9, 49848, Note_on_c, 10, 77, 0
9, 49848, Note_on_c, 10, 89, 0
9, 49860, Note_on_c, 10, 88, 101
9, 49860, Note_on_c, 10, 76, 98
9, 49908, Note_on_c, 10, 76, 0
9, 49908, Note_on_c, 10, 88, 0
9, 49920, Note_on_c, 10, 88, 99
9, 49920, Note_on_c, 10, 76, 101
9, 49968, Note_on_c, 10, 76, 0
9, 49968, Note_on_c, 10, 88, 0
9, 49980, Note_on_c, 10, 88, 100
9, 49980, Note_on_c, 10, 76, 100
9, 50028, Note_on_c, 10, 76, 0
9, 50028, Note_on_c, 10, 88, 0
9, 50040, Note_on_c, 10, 77, 100
9, 50040, Note_on_c, 10, 89, 104
9, 50088, Note_on_c, 10, 89, 0
9, 50088, Note_on_c, 10, 77, 0
9, 50700, Note_on_c, 10, 72, 99
9, 50748, Note_on_c, 10, 72, 0
9, 50760, Note_on_c, 10, 72, 109
9, 50808, Note_on_c, 10, 72, 0
9, 50820, Note_on_c, 10, 77, 100
9, 50916, Note_on_c, 10, 77, 0
9, 50940, Note_on_c, 10, 72, 117
9, 50988, Note_on_c, 10, 72, 0
9, 51000, Note_on_c, 10, 79, 123
9, 51096, Note_on_c, 10, 79, 0
9, 51120, Note_on_c, 10, 72, 101
9, 51168, Note_on_c, 10, 72, 0
9, 51180, Note_on_c, 10, 81, 100
9, 51276, Note_on_c, 10, 81, 0
9, 51300, Note_on_c, 10, 84, 110
9, 51348, Note_on_c, 10, 84, 0
9, 51360, Note_on_c, 10, 82, 97
9, 51408, Note_on_c, 10, 82, 0
9, 51420, Note_on_c, 10, 79, 120
9, 51444, Note_on_c, 10, 79, 0
9, 51450, Note_on_c, 10, 72, 99
9, 51474, Note_on_c, 10, 72, 0
9, 52200, Note_on_c, 10, 77, 105
9, 52248, Note_on_c, 10, 77, 0
9, 52260, Note_on_c, 10, 72, 116
9, 52308, Note_on_c, 10, 72, 0
9, 52320, Note_on_c, 10, 69, 117
9, 52344, Note_on_c, 10, 69, 0
9, 52350, Note_on_c, 10, 65, 116
9, 52374, Note_on_c, 10, 65, 0
9, 52560, Note_on_c, 10, 77, 121
9, 52608, Note_on_c, 10, 77, 0
9, 52620, Note_on_c, 10, 76, 101
9, 52668, Note_on_c, 10, 76, 0
9, 52680, Note_on_c, 10, 72, 108
9, 52704, Note_on_c, 10, 72, 0
9, 52710, Note_on_c, 10, 67, 127
9, 52734, Note_on_c, 10, 67, 0
9, 52920, Note_on_c, 10, 81, 121
9, 52968, Note_on_c, 10, 81, 0
9, 52980, Note_on_c, 10, 79, 127
9, 53028, Note_on_c, 10, 79, 0
9, 53040, Note_on_c, 10, 76, 110
9, 53064, Note_on_c, 10, 76, 0
9, 53070, Note_on_c, 10, 72, 121
9, 53094, Note_on_c, 10, 72, 0
9, 53100, Note_on_c, 10, 82, 93
9, 53148, Note_on_c, 10, 82, 0
9, 53160, Note_on_c, 10, 81, 109
9, 53208, Note_on_c, 10, 81, 0
9, 53220, Note_on_c, 10, 77, 117
9, 53244, Note_on_c, 10, 77, 0
9, 53250, Note_on_c, 10, 72, 121
9, 53274, Note_on_c, 10, 72, 0
9, 53280, Note_on_c, 10, 84, 127
9, 53328, Note_on_c, 10, 84, 0
9, 53340, Note_on_c, 10, 82, 113
9, 53388, Note_on_c, 10, 82, 0
9, 53400, Note_on_c, 10, 79, 121
9, 53424, Note_on_c, 10, 79, 0
9, 53430, Note_on_c, 10, 76, 127
9, 53454, Note_on_c, 10, 76, 0
9, 53460, Note_on_c, 10, 84, 127
9, 53508, Note_on_c, 10, 84, 0
9, 53520, Note_on_c, 10, 83, 98
9, 53568, Note_on_c, 10, 83, 0
9, 53580, Note_on_c, 10, 83, 103
9, 53604, Note_on_c, 10, 83, 0
9, 53610, Note_on_c, 10, 83, 112
9, 53634, Note_on_c, 10, 83, 0
9, 53640, Note_on_c, 10, 86, 117
9, 53688, Note_on_c, 10, 86, 0
9, 53700, Note_on_c, 10, 84, 114
9, 53748, Note_on_c, 10, 84, 0
9, 53760, Note_on_c, 10, 81, 114
9, 53784, Note_on_c, 10, 81, 0
9, 53790, Note_on_c, 10, 77, 121
9, 53814, Note_on_c, 10, 77, 0
9, 53820, Note_on_c, 10, 74, 109
9, 53868, Note_on_c, 10, 74, 0
9, 53880, Note_on_c, 10, 72, 121
9, 53928, Note_on_c, 10, 72, 0
9, 53940, Note_on_c, 10, 69, 127
9, 53964, Note_on_c, 10, 69, 0
9, 53970, Note_on_c, 10, 65, 113
9, 53994, Note_on_c, 10, 65, 0
9, 54000, Note_on_c, 10, 60, 125
9, 54096, Note_on_c, 10, 60, 0
9, 54120, Note_on_c, 10, 81, 107
9, 54168, Note_on_c, 10, 81, 0
9, 54180, Note_on_c, 10, 81, 102
9, 54228, Note_on_c, 10, 81, 0
9, 54240, Note_on_c, 10, 81, 103
9, 54288, Note_on_c, 10, 81, 0
9, 54300, Note_on_c, 10, 81, 108
9, 54312, Note_on_c, 10, 81, 0
9, 54315, Note_on_c, 10, 82, 87
9, 54327, Note_on_c, 10, 82, 0
9, 54330, Note_on_c, 10, 81, 107
9, 54342, Note_on_c, 10, 81, 0
9, 54345, Note_on_c, 10, 82, 91
9, 54357, Note_on_c, 10, 82, 0
9, 54360, Note_on_c, 10, 84, 107
9, 54408, Note_on_c, 10, 84, 0
9, 54420, Note_on_c, 10, 82, 91
9, 54468, Note_on_c, 10, 82, 0
9, 54480, Note_on_c, 10, 79, 96
9, 54504, Note_on_c, 10, 79, 0
9, 54510, Note_on_c, 10, 76, 99
9, 54534, Note_on_c, 10, 76, 0
9, 54540, Note_on_c, 10, 72, 111
9, 54588, Note_on_c, 10, 72, 0
9, 54600, Note_on_c, 10, 70, 101
9, 54648, Note_on_c, 10, 70, 0
9, 54660, Note_on_c, 10, 67, 117
9, 54684, Note_on_c, 10, 67, 0
9, 54690, Note_on_c, 10, 64, 127
9, 54714, Note_on_c, 10, 64, 0
9, 54720, Note_on_c, 10, 60, 123
9, 54816, Note_on_c, 10, 60, 0
9, 54840, Note_on_c, 10, 79, 103
9, 54888, Note_on_c, 10, 79, 0
9, 54900, Note_on_c, 10, 79, 107
9, 54948, Note_on_c, 10, 79, 0
9, 54960, Note_on_c, 10, 79, 106
9, 55008, Note_on_c, 10, 79, 0
9, 55020, Note_on_c, 10, 79, 127
9, 55032, Note_on_c, 10, 79, 0
9, 55035, Note_on_c, 10, 81, 112
9, 55047, Note_on_c, 10, 81, 0
9, 55050, Note_on_c, 10, 79, 114
9, 55062, Note_on_c, 10, 79, 0
9, 55065, Note_on_c, 10, 81, 105
9, 55077, Note_on_c, 10, 81, 0
9, 55080, Note_on_c, 10, 86, 127
9, 55104, Note_on_c, 10, 86, 0
9, 55110, Note_on_c, 10, 84, 123
9, 55134, Note_on_c, 10, 84, 0
9, 55140, Note_on_c, 10, 83, 114
9, 55164, Note_on_c, 10, 83, 0
9, 55170, Note_on_c, 10, 84, 127
9, 55194, Note_on_c, 10, 84, 0
9, 55200, Note_on_c, 10, 81, 116
9, 55224, Note_on_c, 10, 81, 0
9, 55230, Note_on_c, 10, 77, 100
9, 55254, Note_on_c, 10, 77, 0
9, 55260, Note_on_c, 10, 74, 127
9, 55284, Note_on_c, 10, 74, 0
9, 55290, Note_on_c, 10, 72, 113
9, 55314, Note_on_c, 10, 72, 0
9, 55320, Note_on_c, 10, 71, 105
9, 55344, Note_on_c, 10, 71, 0
9, 55350, Note_on_c, 10, 72, 108
9, 55374, Note_on_c, 10, 72, 0
9, 55380, Note_on_c, 10, 69, 113
9, 55404, Note_on_c, 10, 69, 0
9, 55410, Note_on_c, 10, 65, 106
9, 55434, Note_on_c, 10, 65, 0
9, 55440, Note_on_c, 10, 60, 121
9, 55536, Note_on_c, 10, 60, 0
9, 55560, Note_on_c, 10, 81, 109
9, 55608, Note_on_c, 10, 81, 0
9, 55620, Note_on_c, 10, 81, 111
9, 55668, Note_on_c, 10, 81, 0
9, 55680, Note_on_c, 10, 81, 103
9, 55728, Note_on_c, 10, 81, 0
9, 55740, Note_on_c, 10, 81, 120
9, 55752, Note_on_c, 10, 81, 0
9, 55755, Note_on_c, 10, 82, 105
9, 55767, Note_on_c, 10, 82, 0
9, 55770, Note_on_c, 10, 81, 127
9, 55782, Note_on_c, 10, 81, 0
9, 55785, Note_on_c, 10, 82, 97
9, 55797, Note_on_c, 10, 82, 0
9, 55800, Note_on_c, 10, 84, 127
9, 55824, Note_on_c, 10, 84, 0
9, 55830, Note_on_c, 10, 82, 92
9, 55854, Note_on_c, 10, 82, 0
9, 55860, Note_on_c, 10, 81, 117
9, 55884, Note_on_c, 10, 81, 0
9, 55890, Note_on_c, 10, 82, 111
9, 55914, Note_on_c, 10, 82, 0
9, 55920, Note_on_c, 10, 79, 123
9, 55944, Note_on_c, 10, 79, 0
9, 55950, Note_on_c, 10, 76, 112
9, 55974, Note_on_c, 10, 76, 0
9, 55980, Note_on_c, 10, 72, 107
9, 56004, Note_on_c, 10, 72, 0
9, 56010, Note_on_c, 10, 70, 107
9, 56034, Note_on_c, 10, 70, 0
9, 56040, Note_on_c, 10, 69, 127
9, 56064, Note_on_c, 10, 69, 0
9, 56070, Note_on_c, 10, 70, 100
9, 56094, Note_on_c, 10, 70, 0
9, 56100, Note_on_c, 10, 67, 114
9, 56124, Note_on_c, 10, 67, 0
9, 56130, Note_on_c, 10, 64, 96
9, 56154, Note_on_c, 10, 64, 0
9, 56160, Note_on_c, 10, 60, 123
9, 56256, Note_on_c, 10, 60, 0
9, 56280, Note_on_c, 10, 79, 109
9, 56328, Note_on_c, 10, 79, 0
9, 56340, Note_on_c, 10, 79, 106
9, 56388, Note_on_c, 10, 79, 0
9, 56400, Note_on_c, 10, 79, 114
9, 56448, Note_on_c, 10, 79, 0
9, 56460, Note_on_c, 10, 79, 127
9, 56472, Note_on_c, 10, 79, 0
9, 56475, Note_on_c, 10, 81, 118
9, 56487, Note_on_c, 10, 81, 0
9, 56490, Note_on_c, 10, 79, 127
9, 56502, Note_on_c, 10, 79, 0
9, 56505, Note_on_c, 10, 81, 113
9, 56517, Note_on_c, 10, 81, 0
9, 56520, Note_on_c, 10, 81, 106
9, 56520, Note_on_c, 10, 69, 103
9, 56616, Note_on_c, 10, 69, 0
9, 56616, Note_on_c, 10, 81, 0
9, 56700, Note_on_c, 10, 70, 105
9, 56748, Note_on_c, 10, 70, 0
9, 56760, Note_on_c, 10, 69, 103
9, 56808, Note_on_c, 10, 69, 0
9, 56820, Note_on_c, 10, 74, 112
9, 56868, Note_on_c, 10, 74, 0
9, 56880, Note_on_c, 10, 72, 105
9, 56928, Note_on_c, 10, 72, 0
9, 56940, Note_on_c, 10, 76, 109
9, 56988, Note_on_c, 10, 76, 0
9, 57000, Note_on_c, 10, 77, 110
9, 57048, Note_on_c, 10, 77, 0
9, 57060, Note_on_c, 10, 79, 111
9, 57060, Note_on_c, 10, 72, 102
9, 57156, Note_on_c, 10, 72, 0
9, 57156, Note_on_c, 10, 79, 0
9, 57180, Note_on_c, 10, 79, 108
9, 57180, Note_on_c, 10, 72, 108
9, 57228, Note_on_c, 10, 72, 0
9, 57228, Note_on_c, 10, 79, 0
9, 57240, Note_on_c, 10, 72, 113
9, 57240, Note_on_c, 10, 81, 127
9, 57336, Note_on_c, 10, 81, 0
9, 57336, Note_on_c, 10, 72, 0
9, 57360, Note_on_c, 10, 69, 127
9, 57408, Note_on_c, 10, 69, 0
9, 57420, Note_on_c, 10, 70, 97
9, 57468, Note_on_c, 10, 70, 0
9, 57480, Note_on_c, 10, 69, 120
9, 57528, Note_on_c, 10, 69, 0
9, 57540, Note_on_c, 10, 74, 123
9, 57588, Note_on_c, 10, 74, 0
9, 57600, Note_on_c, 10, 72, 103
9, 57648, Note_on_c, 10, 72, 0
9, 57660, Note_on_c, 10, 76, 123
9, 57708, Note_on_c, 10, 76, 0
9, 57720, Note_on_c, 10, 77, 117
9, 57768, Note_on_c, 10, 77, 0
9, 57780, Note_on_c, 10, 79, 113
9, 57780, Note_on_c, 10, 72, 99
9, 57876, Note_on_c, 10, 72, 0
9, 57876, Note_on_c, 10, 79, 0
9, 57900, Note_on_c, 10, 79, 106
9, 57900, Note_on_c, 10, 72, 107
9, 57900, Note_on_c, 10, 64, 103
9, 57948, Note_on_c, 10, 64, 0
9, 57948, Note_on_c, 10, 72, 0
9, 57948, Note_on_c, 10, 79, 0
9, 57960, Note_on_c, 10, 65, 117
9, 57960, Note_on_c, 10, 81, 117
9, 57960, Note_on_c, 10, 72, 108
9, 58104, Note_on_c, 10, 72, 0
9, 58104, Note_on_c, 10, 81, 0
9, 58104, Note_on_c, 10, 65, 0
9, 58140, Note_on_c, 10, 77, 118
9, 58140, Note_on_c, 10, 69, 107
9, 58188, Note_on_c, 10, 69, 0
9, 58188, Note_on_c, 10, 77, 0
9, 58260, Note_on_c, 10, 69, 121
9, 58260, Note_on_c, 10, 84, 127
9, 58308, Note_on_c, 10, 84, 0
9, 58308, Note_on_c, 10, 69, 0
9, 58320, Note_on_c, 10, 62, 106
9, 58320, Note_on_c, 10, 82, 84
9, 58320, Note_on_c, 10, 74, 101
9, 58464, Note_on_c, 10, 74, 0
9, 58464, Note_on_c, 10, 82, 0
9, 58464, Note_on_c, 10, 62, 0
9, 58500, Note_on_c, 10, 79, 125
9, 58548, Note_on_c, 10, 79, 0
9, 58620, Note_on_c, 10, 86, 127
9, 58668, Note_on_c, 10, 86, 0
9, 58680, Note_on_c, 10, 81, 125
9, 58908, Note_on_c, 10, 81, 0
9, 58920, Note_on_c, 10, 77, 114
9, 58968, Note_on_c, 10, 77, 0
9, 58980, Note_on_c, 10, 84, 127
9, 59028, Note_on_c, 10, 84, 0
9, 59040, Note_on_c, 10, 81, 112
9, 59088, Note_on_c, 10, 81, 0
9, 59100, Note_on_c, 10, 77, 104
9, 59148, Note_on_c, 10, 77, 0
9, 59160, Note_on_c, 10, 84, 127
9, 59208, Note_on_c, 10, 84, 0
9, 59220, Note_on_c, 10, 77, 112
9, 59268, Note_on_c, 10, 77, 0
9, 59280, Note_on_c, 10, 72, 108
9, 59328, Note_on_c, 10, 72, 0
9, 59340, Note_on_c, 10, 81, 120
9, 59388, Note_on_c, 10, 81, 0
9, 59400, Note_on_c, 10, 77, 123
9, 59448, Note_on_c, 10, 77, 0
9, 59460, Note_on_c, 10, 72, 111
9, 59508, Note_on_c, 10, 72, 0
9, 59520, Note_on_c, 10, 81, 127
9, 59568, Note_on_c, 10, 81, 0
9, 59580, Note_on_c, 10, 72, 114
9, 59628, Note_on_c, 10, 72, 0
9, 59640, Note_on_c, 10, 69, 100
9, 59688, Note_on_c, 10, 69, 0
9, 59700, Note_on_c, 10, 77, 123
9, 59748, Note_on_c, 10, 77, 0
9, 59760, Note_on_c, 10, 72, 104
9, 59808, Note_on_c, 10, 72, 0
9, 59820, Note_on_c, 10, 69, 113
9, 59868, Note_on_c, 10, 69, 0
9, 59880, Note_on_c, 10, 77, 125
9, 59928, Note_on_c, 10, 77, 0
9, 59940, Note_on_c, 10, 74, 120
9, 59988, Note_on_c, 10, 74, 0
9, 60000, Note_on_c, 10, 71, 105
9, 60048, Note_on_c, 10, 71, 0
9, 60060, Note_on_c, 10, 77, 123
9, 60108, Note_on_c, 10, 77, 0
9, 60120, Note_on_c, 10, 74, 113
9, 60168, Note_on_c, 10, 74, 0
9, 60180, Note_on_c, 10, 71, 106
9, 60228, Note_on_c, 10, 71, 0
9, 60240, Note_on_c, 10, 77, 123
9, 60288, Note_on_c, 10, 77, 0
9, 60300, Note_on_c, 10, 74, 116
9, 60348, Note_on_c, 10, 74, 0
9, 60360, Note_on_c, 10, 71, 107
9, 60408, Note_on_c, 10, 71, 0
9, 60420, Note_on_c, 10, 77, 118
9, 60468, Note_on_c, 10, 77, 0
9, 60480, Note_on_c, 10, 74, 123
9, 60504, Note_on_c, 10, 74, 0
9, 60510, Note_on_c, 10, 71, 100
9, 60534, Note_on_c, 10, 71, 0
9, 60540, Note_on_c, 10, 79, 121
9, 60564, Note_on_c, 10, 79, 0
9, 60570, Note_on_c, 10, 77, 127
9, 60594, Note_on_c, 10, 77, 0
9, 60600, Note_on_c, 10, 74, 109
9, 60624, Note_on_c, 10, 74, 0
9, 60630, Note_on_c, 10, 71, 100
9, 60654, Note_on_c, 10, 71, 0
9, 60690, Note_on_c, 10, 71, 114
9, 60714, Note_on_c, 10, 71, 0
9, 60720, Note_on_c, 10, 79, 127
9, 60744, Note_on_c, 10, 79, 0
9, 60750, Note_on_c, 10, 77, 125
9, 60774, Note_on_c, 10, 77, 0
9, 60780, Note_on_c, 10, 74, 103
9, 60804, Note_on_c, 10, 74, 0
9, 60810, Note_on_c, 10, 71, 107
9, 60834, Note_on_c, 10, 71, 0
9, 60870, Note_on_c, 10, 71, 109
9, 60894, Note_on_c, 10, 71, 0
9, 60900, Note_on_c, 10, 79, 102
9, 60924, Note_on_c, 10, 79, 0
9, 60930, Note_on_c, 10, 77, 127
9, 60954, Note_on_c, 10, 77, 0
9, 60960, Note_on_c, 10, 74, 120
9, 60984, Note_on_c, 10, 74, 0
9, 60990, Note_on_c, 10, 71, 108
9, 61014, Note_on_c, 10, 71, 0
9, 61050, Note_on_c, 10, 71, 118
9, 61074, Note_on_c, 10, 71, 0
9, 61080, Note_on_c, 10, 79, 125
9, 61104, Note_on_c, 10, 79, 0
9, 61110, Note_on_c, 10, 77, 127
9, 61134, Note_on_c, 10, 77, 0
9, 61140, Note_on_c, 10, 74, 102
9, 61164, Note_on_c, 10, 74, 0
9, 61170, Note_on_c, 10, 71, 109
9, 61194, Note_on_c, 10, 71, 0
9, 61230, Note_on_c, 10, 71, 109
9, 61254, Note_on_c, 10, 71, 0
9, 61260, Note_on_c, 10, 79, 102
9, 61284, Note_on_c, 10, 79, 0
9, 61290, Note_on_c, 10, 77, 127
9, 61314, Note_on_c, 10, 77, 0
9, 61320, Note_on_c, 10, 74, 120
9, 61344, Note_on_c, 10, 74, 0
9, 61350, Note_on_c, 10, 71, 108
9, 61374, Note_on_c, 10, 71, 0
9, 61410, Note_on_c, 10, 71, 118
9, 61434, Note_on_c, 10, 71, 0
9, 61440, Note_on_c, 10, 79, 125
9, 61464, Note_on_c, 10, 79, 0
9, 61470, Note_on_c, 10, 77, 127
9, 61494, Note_on_c, 10, 77, 0
9, 61500, Note_on_c, 10, 74, 102
9, 61524, Note_on_c, 10, 74, 0
9, 61530, Note_on_c, 10, 71, 109
9, 61554, Note_on_c, 10, 71, 0
9, 61590, Note_on_c, 10, 71, 109
9, 61614, Note_on_c, 10, 71, 0
9, 61620, Note_on_c, 10, 79, 102
9, 61644, Note_on_c, 10, 79, 0
9, 61650, Note_on_c, 10, 77, 127
9, 61674, Note_on_c, 10, 77, 0
9, 61680, Note_on_c, 10, 74, 120
9, 61704, Note_on_c, 10, 74, 0
9, 61710, Note_on_c, 10, 71, 108
9, 61734, Note_on_c, 10, 71, 0
9, 61770, Note_on_c, 10, 71, 118
9, 61794, Note_on_c, 10, 71, 0
9, 61800, Note_on_c, 10, 79, 125
9, 61824, Note_on_c, 10, 79, 0
9, 61830, Note_on_c, 10, 77, 127
9, 61854, Note_on_c, 10, 77, 0
9, 61860, Note_on_c, 10, 74, 102
9, 61884, Note_on_c, 10, 74, 0
9, 61890, Note_on_c, 10, 71, 109
9, 61914, Note_on_c, 10, 71, 0
9, 61950, Note_on_c, 10, 70, 111
9, 61974, Note_on_c, 10, 70, 0
9, 61980, Note_on_c, 10, 79, 127
9, 62004, Note_on_c, 10, 79, 0
9, 62010, Note_on_c, 10, 76, 121
9, 62034, Note_on_c, 10, 76, 0
9, 62040, Note_on_c, 10, 72, 102
9, 62064, Note_on_c, 10, 72, 0
9, 62070, Note_on_c, 10, 70, 101
9, 62094, Note_on_c, 10, 70, 0
9, 62130, Note_on_c, 10, 70, 115
9, 62154, Note_on_c, 10, 70, 0
9, 62160, Note_on_c, 10, 79, 127
9, 62184, Note_on_c, 10, 79, 0
9, 62190, Note_on_c, 10, 76, 109
9, 62214, Note_on_c, 10, 76, 0
9, 62220, Note_on_c, 10, 72, 120
9, 62244, Note_on_c, 10, 72, 0
9, 62250, Note_on_c, 10, 70, 96
9, 62274, Note_on_c, 10, 70, 0
9, 62310, Note_on_c, 10, 70, 111
9, 62334, Note_on_c, 10, 70, 0
9, 62340, Note_on_c, 10, 79, 111
9, 62364, Note_on_c, 10, 79, 0
9, 62370, Note_on_c, 10, 76, 104
9, 62394, Note_on_c, 10, 76, 0
9, 62400, Note_on_c, 10, 72, 120
9, 62424, Note_on_c, 10, 72, 0
9, 62430, Note_on_c, 10, 70, 86
9, 62454, Note_on_c, 10, 70, 0
9, 62490, Note_on_c, 10, 70, 115
9, 62514, Note_on_c, 10, 70, 0
9, 62520, Note_on_c, 10, 79, 125
9, 62544, Note_on_c, 10, 79, 0
9, 62550, Note_on_c, 10, 76, 117
9, 62574, Note_on_c, 10, 76, 0
9, 62580, Note_on_c, 10, 72, 112
9, 62604, Note_on_c, 10, 72, 0
9, 62610, Note_on_c, 10, 70, 97
9, 62634, Note_on_c, 10, 70, 0
9, 62640, Note_on_c, 10, 82, 118
9, 62664, Note_on_c, 10, 82, 0
9, 62670, Note_on_c, 10, 79, 85
9, 62694, Note_on_c, 10, 79, 0
9, 62700, Note_on_c, 10, 76, 127
9, 62724, Note_on_c, 10, 76, 0
9, 62730, Note_on_c, 10, 70, 99
9, 62754, Note_on_c, 10, 70, 0
9, 62760, Note_on_c, 10, 82, 109
9, 62784, Note_on_c, 10, 82, 0
9, 62790, Note_on_c, 10, 79, 104
9, 62814, Note_on_c, 10, 79, 0
9, 62820, Note_on_c, 10, 76, 127
9, 62844, Note_on_c, 10, 76, 0
9, 62850, Note_on_c, 10, 70, 103
9, 62874, Note_on_c, 10, 70, 0
9, 62880, Note_on_c, 10, 82, 118
9, 62904, Note_on_c, 10, 82, 0
9, 62910, Note_on_c, 10, 79, 127
9, 62934, Note_on_c, 10, 79, 0
9, 62940, Note_on_c, 10, 76, 127
9, 62964, Note_on_c, 10, 76, 0
9, 62970, Note_on_c, 10, 70, 95
9, 62994, Note_on_c, 10, 70, 0
9, 63000, Note_on_c, 10, 82, 115
9, 63024, Note_on_c, 10, 82, 0
9, 63030, Note_on_c, 10, 79, 127
9, 63054, Note_on_c, 10, 79, 0
9, 63060, Note_on_c, 10, 76, 118
9, 63084, Note_on_c, 10, 76, 0
9, 63090, Note_on_c, 10, 70, 105
9, 63114, Note_on_c, 10, 70, 0
9, 63120, Note_on_c, 10, 82, 115
9, 63144, Note_on_c, 10, 82, 0
9, 63150, Note_on_c, 10, 79, 127
9, 63174, Note_on_c, 10, 79, 0
9, 63180, Note_on_c, 10, 76, 127
9, 63204, Note_on_c, 10, 76, 0
9, 63210, Note_on_c, 10, 70, 101
9, 63234, Note_on_c, 10, 70, 0
9, 63240, Note_on_c, 10, 82, 99
9, 63264, Note_on_c, 10, 82, 0
9, 63270, Note_on_c, 10, 79, 120
9, 63294, Note_on_c, 10, 79, 0
9, 63300, Note_on_c, 10, 76, 127
9, 63324, Note_on_c, 10, 76, 0
9, 63330, Note_on_c, 10, 72, 102
9, 63354, Note_on_c, 10, 72, 0
9, 63360, Note_on_c, 10, 81, 98
9, 63360, Note_on_c, 10, 65, 98
9, 63360, Note_on_c, 10, 72, 75
9, 63408, Note_on_c, 10, 72, 0
9, 63408, Note_on_c, 10, 65, 0
9, 63408, Note_on_c, 10, 81, 0
9, 66900, Note_on_c, 10, 72, 100
9, 66948, Note_on_c, 10, 72, 0
9, 66960, Note_on_c, 10, 78, 111
9, 67056, Note_on_c, 10, 78, 0
9, 67080, Note_on_c, 10, 81, 127
9, 67128, Note_on_c, 10, 81, 0
9, 67140, Note_on_c, 10, 84, 127
9, 67236, Note_on_c, 10, 84, 0
9, 67260, Note_on_c, 10, 81, 121
9, 67308, Note_on_c, 10, 81, 0
9, 67320, Note_on_c, 10, 82, 86
9, 67464, Note_on_c, 10, 82, 0
9, 67500, Note_on_c, 10, 82, 103
9, 67596, Note_on_c, 10, 82, 0
9, 67620, Note_on_c, 10, 72, 107
9, 67668, Note_on_c, 10, 72, 0
9, 67680, Note_on_c, 10, 76, 127
9, 67776, Note_on_c, 10, 76, 0
9, 67800, Note_on_c, 10, 79, 127
9, 67848, Note_on_c, 10, 79, 0
9, 67860, Note_on_c, 10, 82, 111
9, 67956, Note_on_c, 10, 82, 0
9, 67980, Note_on_c, 10, 79, 116
9, 68028, Note_on_c, 10, 79, 0
9, 68040, Note_on_c, 10, 81, 113
9, 68056, Note_on_c, 10, 81, 0
9, 68060, Note_on_c, 10, 81, 105
9, 68076, Note_on_c, 10, 81, 0
9, 68080, Note_on_c, 10, 81, 106
9, 68096, Note_on_c, 10, 81, 0
9, 68100, Note_on_c, 10, 81, 107
9, 68116, Note_on_c, 10, 81, 0
9, 68120, Note_on_c, 10, 81, 104
9, 68136, Note_on_c, 10, 81, 0
9, 68140, Note_on_c, 10, 81, 111
9, 68156, Note_on_c, 10, 81, 0
9, 68160, Note_on_c, 10, 84, 98
9, 68176, Note_on_c, 10, 84, 0
9, 68180, Note_on_c, 10, 84, 101
9, 68196, Note_on_c, 10, 84, 0
9, 68200, Note_on_c, 10, 84, 112
9, 68216, Note_on_c, 10, 84, 0
9, 68220, Note_on_c, 10, 89, 97
9, 68236, Note_on_c, 10, 89, 0
9, 68240, Note_on_c, 10, 89, 99
9, 68256, Note_on_c, 10, 89, 0
9, 68260, Note_on_c, 10, 89, 101
9, 68276, Note_on_c, 10, 89, 0
9, 68280, Note_on_c, 10, 89, 106
9, 68296, Note_on_c, 10, 89, 0
9, 68300, Note_on_c, 10, 89, 109
9, 68316, Note_on_c, 10, 89, 0
9, 68320, Note_on_c, 10, 89, 105
9, 68336, Note_on_c, 10, 89, 0
9, 68340, Note_on_c, 10, 89, 109
9, 68356, Note_on_c, 10, 89, 0
9, 68360, Note_on_c, 10, 89, 104
9, 68376, Note_on_c, 10, 89, 0
9, 68380, Note_on_c, 10, 89, 109
9, 68396, Note_on_c, 10, 89, 0
9, 68400, Note_on_c, 10, 89, 102
9, 68448, Note_on_c, 10, 89, 0
9, 68460, Note_on_c, 10, 89, 104
9, 68508, Note_on_c, 10, 89, 0
9, 68520, Note_on_c, 10, 89, 105
9, 68568, Note_on_c, 10, 89, 0
9, 68580, Note_on_c, 10, 89, 113
9, 68628, Note_on_c, 10, 89, 0
9, 68640, Note_on_c, 10, 89, 102
9, 68688, Note_on_c, 10, 89, 0
9, 68700, Note_on_c, 10, 89, 108
9, 68748, Note_on_c, 10, 89, 0
9, 68760, Note_on_c, 10, 81, 111
9, 68808, Note_on_c, 10, 81, 0
9, 68820, Note_on_c, 10, 81, 114
9, 68868, Note_on_c, 10, 81, 0
9, 68880, Note_on_c, 10, 86, 125
9, 68928, Note_on_c, 10, 86, 0
9, 68940, Note_on_c, 10, 89, 127
9, 68988, Note_on_c, 10, 89, 0
9, 69000, Note_on_c, 10, 89, 118
9, 69048, Note_on_c, 10, 89, 0
9, 69060, Note_on_c, 10, 89, 103
9, 69108, Note_on_c, 10, 89, 0
9, 69120, Note_on_c, 10, 89, 111
9, 69168, Note_on_c, 10, 89, 0
9, 69180, Note_on_c, 10, 89, 110
9, 69228, Note_on_c, 10, 89, 0
9, 69240, Note_on_c, 10, 89, 111
9, 69288, Note_on_c, 10, 89, 0
9, 69300, Note_on_c, 10, 89, 111
9, 69348, Note_on_c, 10, 89, 0
9, 69360, Note_on_c, 10, 89, 113
9, 69408, Note_on_c, 10, 89, 0
9, 69420, Note_on_c, 10, 89, 125
9, 69468, Note_on_c, 10, 89, 0
9, 69480, Note_on_c, 10, 83, 98
9, 69528, Note_on_c, 10, 83, 0
9, 69540, Note_on_c, 10, 83, 103
9, 69588, Note_on_c, 10, 83, 0
9, 69600, Note_on_c, 10, 86, 108
9, 69648, Note_on_c, 10, 86, 0
9, 69660, Note_on_c, 10, 89, 112
9, 69708, Note_on_c, 10, 89, 0
9, 69720, Note_on_c, 10, 89, 112
9, 69768, Note_on_c, 10, 89, 0
9, 69780, Note_on_c, 10, 89, 113
9, 69828, Note_on_c, 10, 89, 0
9, 69840, Note_on_c, 10, 89, 112
9, 69888, Note_on_c, 10, 89, 0
9, 69900, Note_on_c, 10, 89, 107
9, 69948, Note_on_c, 10, 89, 0
9, 69960, Note_on_c, 10, 89, 118
9, 70008, Note_on_c, 10, 89, 0
9, 70020, Note_on_c, 10, 89, 116
9, 70068, Note_on_c, 10, 89, 0
9, 70080, Note_on_c, 10, 89, 105
9, 70128, Note_on_c, 10, 89, 0
9, 70140, Note_on_c, 10, 89, 120
9, 70188, Note_on_c, 10, 89, 0
9, 70200, Note_on_c, 10, 71, 116
9, 70344, Note_on_c, 10, 71, 0
9, 70380, Note_on_c, 10, 67, 120
9, 70476, Note_on_c, 10, 67, 0
9, 70500, Note_on_c, 10, 74, 127
9, 70548, Note_on_c, 10, 74, 0
9, 70560, Note_on_c, 10, 71, 116
9, 70704, Note_on_c, 10, 71, 0
9, 70740, Note_on_c, 10, 67, 120
9, 70836, Note_on_c, 10, 67, 0
9, 70860, Note_on_c, 10, 77, 120
9, 70908, Note_on_c, 10, 77, 0
9, 70920, Note_on_c, 10, 74, 108
9, 70968, Note_on_c, 10, 74, 0
9, 70980, Note_on_c, 10, 71, 112
9, 71028, Note_on_c, 10, 71, 0
9, 71040, Note_on_c, 10, 83, 123
9, 71088, Note_on_c, 10, 83, 0
9, 71100, Note_on_c, 10, 77, 114
9, 71148, Note_on_c, 10, 77, 0
9, 71160, Note_on_c, 10, 74, 105
9, 71208, Note_on_c, 10, 74, 0
9, 71220, Note_on_c, 10, 86, 99
9, 71268, Note_on_c, 10, 86, 0
9, 71280, Note_on_c, 10, 83, 105
9, 71328, Note_on_c, 10, 83, 0
9, 71340, Note_on_c, 10, 79, 103
9, 71388, Note_on_c, 10, 79, 0
9, 71400, Note_on_c, 10, 86, 121
9, 71448, Note_on_c, 10, 86, 0
9, 71460, Note_on_c, 10, 83, 110
9, 71508, Note_on_c, 10, 83, 0
9, 71520, Note_on_c, 10, 79, 102
9, 71568, Note_on_c, 10, 79, 0
9, 71580, Note_on_c, 10, 86, 111
9, 71628, Note_on_c, 10, 86, 0
9, 71640, Note_on_c, 10, 88, 123
9, 71688, Note_on_c, 10, 88, 0
9, 71700, Note_on_c, 10, 84, 96
9, 71748, Note_on_c, 10, 84, 0
9, 71760, Note_on_c, 10, 88, 112
9, 71808, Note_on_c, 10, 88, 0
9, 71820, Note_on_c, 10, 84, 109
9, 71868, Note_on_c, 10, 84, 0
9, 71880, Note_on_c, 10, 79, 105
9, 71928, Note_on_c, 10, 79, 0
9, 71940, Note_on_c, 10, 84, 116
9, 71988, Note_on_c, 10, 84, 0
9, 72000, Note_on_c, 10, 79, 125
9, 72048, Note_on_c, 10, 79, 0
9, 72060, Note_on_c, 10, 76, 100
9, 72108, Note_on_c, 10, 76, 0
9, 72120, Note_on_c, 10, 79, 127
9, 72168, Note_on_c, 10, 79, 0
9, 72180, Note_on_c, 10, 76, 118
9, 72228, Note_on_c, 10, 76, 0
9, 72240, Note_on_c, 10, 72, 101
9, 72288, Note_on_c, 10, 72, 0
9, 72300, Note_on_c, 10, 76, 116
9, 72348, Note_on_c, 10, 76, 0
9, 72360, Note_on_c, 10, 72, 116
9, 72408, Note_on_c, 10, 72, 0
9, 72420, Note_on_c, 10, 70, 109
9, 72468, Note_on_c, 10, 70, 0
9, 72480, Note_on_c, 10, 72, 107
9, 72528, Note_on_c, 10, 72, 0
9, 72540, Note_on_c, 10, 70, 86
9, 72588, Note_on_c, 10, 70, 0
9, 72600, Note_on_c, 10, 67, 111
9, 72648, Note_on_c, 10, 67, 0
9, 72660, Note_on_c, 10, 70, 105
9, 72708, Note_on_c, 10, 70, 0
9, 72720, Note_on_c, 10, 67, 112
9, 72768, Note_on_c, 10, 67, 0
9, 72780, Note_on_c, 10, 64, 101
9, 72828, Note_on_c, 10, 64, 0
9, 72840, Note_on_c, 10, 67, 107
9, 72888, Note_on_c, 10, 67, 0
9, 72900, Note_on_c, 10, 64, 102
9, 72948, Note_on_c, 10, 64, 0
9, 72960, Note_on_c, 10, 60, 127
9, 73008, Note_on_c, 10, 60, 0
9, 73020, Note_on_c, 10, 64, 106
9, 73044, Note_on_c, 10, 64, 0
9, 73050, Note_on_c, 10, 60, 101
9, 73074, Note_on_c, 10, 60, 0
9, 73080, Note_on_c, 10, 58, 111
9, 73104, Note_on_c, 10, 58, 0
9, 73110, Note_on_c, 10, 60, 121
9, 73134, Note_on_c, 10, 60, 0
9, 73140, Note_on_c, 10, 64, 111
9, 73164, Note_on_c, 10, 64, 0
9, 73170, Note_on_c, 10, 67, 116
9, 73194, Note_on_c, 10, 67, 0
9, 73200, Note_on_c, 10, 70, 92
9, 73224, Note_on_c, 10, 70, 0
9, 73230, Note_on_c, 10, 67, 107
9, 73254, Note_on_c, 10, 67, 0
9, 73260, Note_on_c, 10, 64, 108
9, 73284, Note_on_c, 10, 64, 0
9, 73290, Note_on_c, 10, 67, 127
9, 73314, Note_on_c, 10, 67, 0
9, 73320, Note_on_c, 10, 70, 88
9, 73344, Note_on_c, 10, 70, 0
9, 73350, Note_on_c, 10, 72, 87
9, 73374, Note_on_c, 10, 72, 0
9, 73380, Note_on_c, 10, 76, 103
9, 73404, Note_on_c, 10, 76, 0
9, 73410, Note_on_c, 10, 72, 105
9, 73434, Note_on_c, 10, 72, 0
9, 73440, Note_on_c, 10, 70, 82
9, 73464, Note_on_c, 10, 70, 0
9, 73470, Note_on_c, 10, 72, 109
9, 73494, Note_on_c, 10, 72, 0
9, 73500, Note_on_c, 10, 76, 116
9, 73524, Note_on_c, 10, 76, 0
9, 73530, Note_on_c, 10, 79, 120
9, 73554, Note_on_c, 10, 79, 0
9, 73560, Note_on_c, 10, 82, 85
9, 73584, Note_on_c, 10, 82, 0
9, 73590, Note_on_c, 10, 79, 109
9, 73614, Note_on_c, 10, 79, 0
9, 73620, Note_on_c, 10, 82, 100
9, 73644, Note_on_c, 10, 82, 0
9, 73650, Note_on_c, 10, 79, 104
9, 73674, Note_on_c, 10, 79, 0
9, 73680, Note_on_c, 10, 82, 101
9, 73704, Note_on_c, 10, 82, 0
9, 73710, Note_on_c, 10, 79, 103
9, 73734, Note_on_c, 10, 79, 0
9, 73740, Note_on_c, 10, 82, 103
9, 73764, Note_on_c, 10, 82, 0
9, 73770, Note_on_c, 10, 79, 111
9, 73794, Note_on_c, 10, 79, 0
9, 73800, Note_on_c, 10, 69, 104
9, 73800, Note_on_c, 10, 81, 107
9, 73896, Note_on_c, 10, 81, 0
9, 73896, Note_on_c, 10, 69, 0
9, 77310, Note_on_c, 10, 72, 107
9, 77334, Note_on_c, 10, 72, 0
9, 77340, Note_on_c, 10, 74, 127
9, 77364, Note_on_c, 10, 74, 0
9, 77370, Note_on_c, 10, 76, 107
9, 77394, Note_on_c, 10, 76, 0
9, 77400, Note_on_c, 10, 78, 86
9, 77424, Note_on_c, 10, 78, 0
9, 77430, Note_on_c, 10, 79, 109
9, 77454, Note_on_c, 10, 79, 0
9, 77460, Note_on_c, 10, 78, 99
9, 77484, Note_on_c, 10, 78, 0
9, 77490, Note_on_c, 10, 76, 110
9, 77514, Note_on_c, 10, 76, 0
9, 77520, Note_on_c, 10, 78, 94
9, 77544, Note_on_c, 10, 78, 0
9, 77550, Note_on_c, 10, 79, 101
9, 77574, Note_on_c, 10, 79, 0
9, 77580, Note_on_c, 10, 81, 107
9, 77604, Note_on_c, 10, 81, 0
9, 77610, Note_on_c, 10, 82, 50
9, 77634, Note_on_c, 10, 82, 0
9, 77640, Note_on_c, 10, 84, 105
9, 77664, Note_on_c, 10, 84, 0
9, 77670, Note_on_c, 10, 82, 111
9, 77694, Note_on_c, 10, 82, 0
9, 77700, Note_on_c, 10, 84, 116
9, 77724, Note_on_c, 10, 84, 0
9, 77730, Note_on_c, 10, 81, 127
9, 77754, Note_on_c, 10, 81, 0
9, 77760, Note_on_c, 10, 82, 93
9, 77784, Note_on_c, 10, 82, 0
9, 77790, Note_on_c, 10, 84, 113
9, 77814, Note_on_c, 10, 84, 0
9, 77820, Note_on_c, 10, 82, 99
9, 77844, Note_on_c, 10, 82, 0
9, 77850, Note_on_c, 10, 81, 112
9, 77874, Note_on_c, 10, 81, 0
9, 77880, Note_on_c, 10, 82, 96
9, 77904, Note_on_c, 10, 82, 0
9, 77910, Note_on_c, 10, 81, 111
9, 77934, Note_on_c, 10, 81, 0
9, 77940, Note_on_c, 10, 79, 116
9, 77964, Note_on_c, 10, 79, 0
9, 77970, Note_on_c, 10, 81, 110
9, 77994, Note_on_c, 10, 81, 0
9, 78000, Note_on_c, 10, 79, 109
9, 78024, Note_on_c, 10, 79, 0
9, 78030, Note_on_c, 10, 77, 106
9, 78054, Note_on_c, 10, 77, 0
9, 78060, Note_on_c, 10, 79, 107
9, 78084, Note_on_c, 10, 79, 0
9, 78090, Note_on_c, 10, 77, 114
9, 78114, Note_on_c, 10, 77, 0
9, 78120, Note_on_c, 10, 76, 104
9, 78144, Note_on_c, 10, 76, 0
9, 78150, Note_on_c, 10, 77, 105
9, 78174, Note_on_c, 10, 77, 0
9, 78180, Note_on_c, 10, 76, 107
9, 78204, Note_on_c, 10, 76, 0
9, 78210, Note_on_c, 10, 74, 98
9, 78234, Note_on_c, 10, 74, 0
9, 78240, Note_on_c, 10, 76, 111
9, 78264, Note_on_c, 10, 76, 0
9, 78270, Note_on_c, 10, 77, 120
9, 78294, Note_on_c, 10, 77, 0
9, 78300, Note_on_c, 10, 79, 99
9, 78324, Note_on_c, 10, 79, 0
9, 78330, Note_on_c, 10, 81, 99
9, 78354, Note_on_c, 10, 81, 0
9, 78360, Note_on_c, 10, 82, 84
9, 78384, Note_on_c, 10, 82, 0
9, 78390, Note_on_c, 10, 84, 101
9, 78414, Note_on_c, 10, 84, 0
9, 78420, Note_on_c, 10, 86, 107
9, 78444, Note_on_c, 10, 86, 0
9, 78450, Note_on_c, 10, 88, 99
9, 78474, Note_on_c, 10, 88, 0
9, 78480, Note_on_c, 10, 89, 108
9, 78528, Note_on_c, 10, 89, 0
9, 78540, Note_on_c, 10, 89, 106
9, 78588, Note_on_c, 10, 89, 0
9, 78600, Note_on_c, 10, 89, 103
9, 78648, Note_on_c, 10, 89, 0
9, 78660, Note_on_c, 10, 89, 109
9, 78708, Note_on_c, 10, 89, 0
9, 78720, Note_on_c, 10, 89, 110
9, 78768, Note_on_c, 10, 89, 0
9, 78780, Note_on_c, 10, 89, 110
9, 78828, Note_on_c, 10, 89, 0
9, 78840, Note_on_c, 10, 89, 107
9, 78888, Note_on_c, 10, 89, 0
9, 78900, Note_on_c, 10, 89, 105
9, 78948, Note_on_c, 10, 89, 0
9, 78960, Note_on_c, 10, 89, 105
9, 79008, Note_on_c, 10, 89, 0
9, 79020, Note_on_c, 10, 89, 117
9, 79068, Note_on_c, 10, 89, 0
9, 79080, Note_on_c, 10, 89, 109
9, 79128, Note_on_c, 10, 89, 0
9, 79140, Note_on_c, 10, 89, 109
9, 79188, Note_on_c, 10, 89, 0
9, 79200, Note_on_c, 10, 89, 120
9, 79248, Note_on_c, 10, 89, 0
9, 79260, Note_on_c, 10, 89, 109
9, 79308, Note_on_c, 10, 89, 0
9, 79320, Note_on_c, 10, 89, 107
9, 79368, Note_on_c, 10, 89, 0
9, 79380, Note_on_c, 10, 89, 125
9, 79428, Note_on_c, 10, 89, 0
9, 79440, Note_on_c, 10, 89, 120
9, 79488, Note_on_c, 10, 89, 0
9, 79500, Note_on_c, 10, 89, 108
9, 79548, Note_on_c, 10, 89, 0
9, 79560, Note_on_c, 10, 89, 110
9, 79608, Note_on_c, 10, 89, 0
9, 79620, Note_on_c, 10, 89, 116
9, 79668, Note_on_c, 10, 89, 0
9, 79680, Note_on_c, 10, 89, 110
9, 79728, Note_on_c, 10, 89, 0
9, 79740, Note_on_c, 10, 89, 110
9, 79788, Note_on_c, 10, 89, 0
9, 79800, Note_on_c, 10, 89, 120
9, 79848, Note_on_c, 10, 89, 0
9, 79860, Note_on_c, 10, 89, 107
9, 79908, Note_on_c, 10, 89, 0
9, 79920, Note_on_c, 10, 89, 113
9, 79968, Note_on_c, 10, 89, 0
9, 79980, Note_on_c, 10, 89, 114
9, 80028, Note_on_c, 10, 89, 0
9, 80040, Note_on_c, 10, 89, 107
9, 80088, Note_on_c, 10, 89, 0
9, 80100, Note_on_c, 10, 91, 120
9, 80148, Note_on_c, 10, 91, 0
9, 80160, Note_on_c, 10, 91, 110
9, 80208, Note_on_c, 10, 91, 0
9, 80220, Note_on_c, 10, 91, 118
9, 80268, Note_on_c, 10, 91, 0
9, 80280, Note_on_c, 10, 91, 112
9, 80328, Note_on_c, 10, 91, 0
9, 80340, Note_on_c, 10, 91, 109
9, 80388, Note_on_c, 10, 91, 0
9, 80400, Note_on_c, 10, 91, 101
9, 80448, Note_on_c, 10, 91, 0
9, 80460, Note_on_c, 10, 91, 101
9, 80508, Note_on_c, 10, 91, 0
9, 80520, Note_on_c, 10, 91, 106
9, 80568, Note_on_c, 10, 91, 0
9, 80580, Note_on_c, 10, 91, 111
9, 80628, Note_on_c, 10, 91, 0
9, 80640, Note_on_c, 10, 91, 112
9, 80688, Note_on_c, 10, 91, 0
9, 80700, Note_on_c, 10, 91, 112
9, 80748, Note_on_c, 10, 91, 0
9, 80760, Note_on_c, 10, 91, 110
9, 80808, Note_on_c, 10, 91, 0
9, 80820, Note_on_c, 10, 91, 112
9, 80868, Note_on_c, 10, 91, 0
9, 80880, Note_on_c, 10, 91, 105
9, 80928, Note_on_c, 10, 91, 0
9, 80940, Note_on_c, 10, 91, 117
9, 80988, Note_on_c, 10, 91, 0
9, 81000, Note_on_c, 10, 91, 118
9, 81048, Note_on_c, 10, 91, 0
9, 81060, Note_on_c, 10, 91, 105
9, 81108, Note_on_c, 10, 91, 0
9, 81120, Note_on_c, 10, 91, 120
9, 81168, Note_on_c, 10, 91, 0
9, 81180, Note_on_c, 10, 91, 116
9, 81228, Note_on_c, 10, 91, 0
9, 81240, Note_on_c, 10, 91, 107
9, 81288, Note_on_c, 10, 91, 0
9, 81300, Note_on_c, 10, 91, 112
9, 81348, Note_on_c, 10, 91, 0
9, 81360, Note_on_c, 10, 91, 112
9, 81408, Note_on_c, 10, 91, 0
9, 81420, Note_on_c, 10, 91, 113
9, 81468, Note_on_c, 10, 91, 0
9, 81480, Note_on_c, 10, 91, 116
9, 81528, Note_on_c, 10, 91, 0
9, 81540, Note_on_c, 10, 91, 117
9, 81588, Note_on_c, 10, 91, 0
9, 81600, Note_on_c, 10, 91, 118
9, 81648, Note_on_c, 10, 91, 0
9, 81660, Note_on_c, 10, 91, 105
9, 81708, Note_on_c, 10, 91, 0
9, 81720, Note_on_c, 10, 89, 127
9, 81768, Note_on_c, 10, 89, 0
9, 81780, Note_on_c, 10, 89, 113
9, 81828, Note_on_c, 10, 89, 0
9, 81840, Note_on_c, 10, 89, 109
9, 81888, Note_on_c, 10, 89, 0
9, 81900, Note_on_c, 10, 89, 113
9, 81948, Note_on_c, 10, 89, 0
9, 81960, Note_on_c, 10, 89, 118
9, 82008, Note_on_c, 10, 89, 0
9, 82020, Note_on_c, 10, 89, 125
9, 82068, Note_on_c, 10, 89, 0
9, 82080, Note_on_c, 10, 87, 90
9, 82128, Note_on_c, 10, 87, 0
9, 82140, Note_on_c, 10, 87, 103
9, 82188, Note_on_c, 10, 87, 0
9, 82200, Note_on_c, 10, 87, 101
9, 82248, Note_on_c, 10, 87, 0
9, 82260, Note_on_c, 10, 86, 118
9, 82308, Note_on_c, 10, 86, 0
9, 82320, Note_on_c, 10, 86, 104
9, 82368, Note_on_c, 10, 86, 0
9, 82380, Note_on_c, 10, 86, 110
9, 82428, Note_on_c, 10, 86, 0
9, 82440, Note_on_c, 10, 84, 103
9, 82488, Note_on_c, 10, 84, 0
9, 82500, Note_on_c, 10, 84, 113
9, 82548, Note_on_c, 10, 84, 0
9, 82560, Note_on_c, 10, 84, 110
9, 82608, Note_on_c, 10, 84, 0
9, 82620, Note_on_c, 10, 82, 82
9, 82668, Note_on_c, 10, 82, 0
9, 82680, Note_on_c, 10, 82, 93
9, 82728, Note_on_c, 10, 82, 0
9, 82740, Note_on_c, 10, 82, 105
9, 82788, Note_on_c, 10, 82, 0
9, 82800, Note_on_c, 10, 81, 107
9, 82848, Note_on_c, 10, 81, 0
9, 82860, Note_on_c, 10, 81, 103
9, 82908, Note_on_c, 10, 81, 0
9, 82920, Note_on_c, 10, 81, 50
9, 82968, Note_on_c, 10, 81, 0
9, 82980, Note_on_c, 10, 79, 109
9, 83028, Note_on_c, 10, 79, 0
9, 83040, Note_on_c, 10, 79, 114
9, 83088, Note_on_c, 10, 79, 0
9, 83100, Note_on_c, 10, 79, 113
9, 83148, Note_on_c, 10, 79, 0
9, 83160, Note_on_c, 10, 77, 109
9, 83208, Note_on_c, 10, 77, 0
9, 83220, Note_on_c, 10, 77, 102
9, 83268, Note_on_c, 10, 77, 0
9, 83280, Note_on_c, 10, 77, 102
9, 83328, Note_on_c, 10, 77, 0
9, 83340, Note_on_c, 10, 76, 100
9, 83388, Note_on_c, 10, 76, 0
9, 83400, Note_on_c, 10, 76, 105
9, 83448, Note_on_c, 10, 76, 0
9, 83460, Note_on_c, 10, 76, 113
9, 83508, Note_on_c, 10, 76, 0
9, 83520, Note_on_c, 10, 74, 103
9, 83568, Note_on_c, 10, 74, 0
9, 83580, Note_on_c, 10, 74, 105
9, 83628, Note_on_c, 10, 74, 0
9, 83640, Note_on_c, 10, 74, 104
9, 83688, Note_on_c, 10, 74, 0
9, 83700, Note_on_c, 10, 72, 102
9, 83748, Note_on_c, 10, 72, 0
9, 83760, Note_on_c, 10, 72, 109
9, 83808, Note_on_c, 10, 72, 0
9, 83820, Note_on_c, 10, 72, 117
9, 83868, Note_on_c, 10, 72, 0
9, 83880, Note_on_c, 10, 72, 110
9, 83928, Note_on_c, 10, 72, 0
9, 83940, Note_on_c, 10, 72, 110
9, 83988, Note_on_c, 10, 72, 0
9, 84000, Note_on_c, 10, 72, 120
9, 84048, Note_on_c, 10, 72, 0
9, 84060, Note_on_c, 10, 70, 94
9, 84108, Note_on_c, 10, 70, 0
9, 84120, Note_on_c, 10, 70, 95
9, 84168, Note_on_c, 10, 70, 0
9, 84180, Note_on_c, 10, 70, 100
9, 84228, Note_on_c, 10, 70, 0
9, 84240, Note_on_c, 10, 70, 113
9, 84288, Note_on_c, 10, 70, 0
9, 84300, Note_on_c, 10, 70, 97
9, 84348, Note_on_c, 10, 70, 0
9, 84360, Note_on_c, 10, 70, 105
9, 84408, Note_on_c, 10, 70, 0
9, 84420, Note_on_c, 10, 67, 98
9, 84468, Note_on_c, 10, 67, 0
9, 84480, Note_on_c, 10, 67, 109
9, 84528, Note_on_c, 10, 67, 0
9, 84540, Note_on_c, 10, 67, 109
9, 84588, Note_on_c, 10, 67, 0
9, 84600, Note_on_c, 10, 67, 117
9, 84648, Note_on_c, 10, 67, 0
9, 84660, Note_on_c, 10, 67, 108
9, 84708, Note_on_c, 10, 67, 0
9, 84720, Note_on_c, 10, 67, 118
9, 84768, Note_on_c, 10, 67, 0
9, 84780, Note_on_c, 10, 64, 107
9, 84828, Note_on_c, 10, 64, 0
9, 84840, Note_on_c, 10, 64, 99
9, 84888, Note_on_c, 10, 64, 0
9, 84900, Note_on_c, 10, 64, 102
9, 84948, Note_on_c, 10, 64, 0
9, 84960, Note_on_c, 10, 65, 116
9, 85104, Note_on_c, 10, 65, 0
9, 85140, Note_on_c, 10, 60, 101
9, 85236, Note_on_c, 10, 60, 0
9, 85260, Note_on_c, 10, 69, 111
9, 85308, Note_on_c, 10, 69, 0
9, 85320, Note_on_c, 10, 67, 127
9, 85608, Note_on_c, 10, 67, 0
9, 85680, Note_on_c, 10, 67, 121
9, 85824, Note_on_c, 10, 67, 0
9, 85860, Note_on_c, 10, 60, 104
9, 85956, Note_on_c, 10, 60, 0
9, 85980, Note_on_c, 10, 70, 111
9, 86028, Note_on_c, 10, 70, 0
9, 86040, Note_on_c, 10, 69, 106
9, 86328, Note_on_c, 10, 69, 0
9, 86400, Note_on_c, 10, 69, 113
9, 86544, Note_on_c, 10, 69, 0
9, 86580, Note_on_c, 10, 70, 99
9, 86676, Note_on_c, 10, 70, 0
9, 86700, Note_on_c, 10, 72, 108
9, 86748, Note_on_c, 10, 72, 0
9, 86760, Note_on_c, 10, 74, 107
9, 87036, Note_on_c, 10, 74, 0
9, 87060, Note_on_c, 10, 67, 110
9, 87108, Note_on_c, 10, 67, 0
9, 87120, Note_on_c, 10, 67, 109
9, 87264, Note_on_c, 10, 67, 0
9, 87300, Note_on_c, 10, 67, 120
9, 87348, Note_on_c, 10, 67, 0
9, 87360, Note_on_c, 10, 69, 112
9, 87408, Note_on_c, 10, 69, 0
9, 87420, Note_on_c, 10, 70, 109
9, 87444, Note_on_c, 10, 70, 0
9, 87450, Note_on_c, 10, 69, 104
9, 87474, Note_on_c, 10, 69, 0
9, 87480, Note_on_c, 10, 69, 105
9, 87576, Note_on_c, 10, 69, 0
9, 87840, Note_on_c, 10, 81, 103
9, 87984, Note_on_c, 10, 81, 0
9, 88020, Note_on_c, 10, 82, 107
9, 88068, Note_on_c, 10, 82, 0
9, 88140, Note_on_c, 10, 84, 110
9, 88188, Note_on_c, 10, 84, 0
9, 88200, Note_on_c, 10, 86, 104
9, 88476, Note_on_c, 10, 86, 0
9, 89220, Note_on_c, 10, 69, 120
9, 89268, Note_on_c, 10, 69, 0
9, 89280, Note_on_c, 10, 70, 105
9, 89556, Note_on_c, 10, 70, 0
9, 89580, Note_on_c, 10, 70, 100
9, 89628, Note_on_c, 10, 70, 0
9, 89640, Note_on_c, 10, 69, 121
9, 89736, Note_on_c, 10, 69, 0
9, 90660, Note_on_c, 10, 69, 117
9, 90708, Note_on_c, 10, 69, 0
9, 90720, Note_on_c, 10, 70, 109
9, 90996, Note_on_c, 10, 70, 0
9, 91020, Note_on_c, 10, 70, 115
9, 91068, Note_on_c, 10, 70, 0
9, 91080, Note_on_c, 10, 76, 101
9, 92448, Note_on_c, 10, 76, 0
9, 92520, Note_on_c, 10, 77, 100
9, 92808, Note_on_c, 10, 77, 0
9, 92880, Note_on_c, 10, 77, 103
9, 93168, Note_on_c, 10, 77, 0
9, 93240, Note_on_c, 10, 77, 112
9, 93264, Note_on_c, 10, 77, 0
9, 93270, Note_on_c, 10, 79, 125
9, 93294, Note_on_c, 10, 79, 0
9, 93300, Note_on_c, 10, 81, 121
9, 93324, Note_on_c, 10, 81, 0
9, 93330, Note_on_c, 10, 82, 113
9, 93354, Note_on_c, 10, 82, 0
9, 93360, Note_on_c, 10, 84, 127
9, 93384, Note_on_c, 10, 84, 0
9, 93390, Note_on_c, 10, 83, 100
9, 93414, Note_on_c, 10, 83, 0
9, 93420, Note_on_c, 10, 86, 109
9, 93444, Note_on_c, 10, 86, 0
9, 93450, Note_on_c, 10, 84, 125
9, 93474, Note_on_c, 10, 84, 0
9, 93480, Note_on_c, 10, 82, 97
9, 93504, Note_on_c, 10, 82, 0
9, 93510, Note_on_c, 10, 81, 118
9, 93534, Note_on_c, 10, 81, 0
9, 93540, Note_on_c, 10, 79, 102
9, 93564, Note_on_c, 10, 79, 0
9, 93570, Note_on_c, 10, 77, 113
9, 93594, Note_on_c, 10, 77, 0
9, 94620, Note_on_c, 10, 69, 101
9, 94620, Note_on_c, 10, 81, 110
9, 94668, Note_on_c, 10, 81, 0
9, 94668, Note_on_c, 10, 69, 0
9, 94680, Note_on_c, 10, 77, 114
9, 94680, Note_on_c, 10, 69, 104
9, 94776, Note_on_c, 10, 69, 0
9, 94776, Note_on_c, 10, 77, 0
9, 94776, End_track
10, 0, Start_track
10, 0, MIDI_port, 0
10, 0, Title_t, "Violin II"
10, 0, Program_c, 10, 48
10, 0, Control_c, 10, 7, 80
10, 2160, Note_on_c, 10, 69, 127
10, 2256, Note_on_c, 10, 69, 0
10, 2280, Note_on_c, 10, 67, 121
10, 2328, Note_on_c, 10, 67, 0
10, 2340, Note_on_c, 10, 69, 103
10, 2340, Note_on_c, 10, 65, 109
10, 2568, Note_on_c, 10, 65, 0
10, 2568, Note_on_c, 10, 69, 0
10, 5760, Note_on_c, 10, 69, 127
10, 5904, Note_on_c, 10, 69, 0
10, 5940, Note_on_c, 10, 65, 127
10, 6036, Note_on_c, 10, 65, 0
10, 6060, Note_on_c, 10, 72, 127
10, 6108, Note_on_c, 10, 72, 0
10, 6120, Note_on_c, 10, 69, 123
10, 6264, Note_on_c, 10, 69, 0
10, 6300, Note_on_c, 10, 65, 125
10, 6396, Note_on_c, 10, 65, 0
10, 6420, Note_on_c, 10, 60, 114
10, 6468, Note_on_c, 10, 60, 0
10, 6480, Note_on_c, 10, 65, 127
10, 6576, Note_on_c, 10, 65, 0
10, 6600, Note_on_c, 10, 69, 127
10, 6648, Note_on_c, 10, 69, 0
10, 6660, Note_on_c, 10, 72, 127
10, 6756, Note_on_c, 10, 72, 0
10, 6780, Note_on_c, 10, 69, 127
10, 6828, Note_on_c, 10, 69, 0
10, 6840, Note_on_c, 10, 70, 105
10, 7116, Note_on_c, 10, 70, 0
10, 7140, Note_on_c, 10, 67, 127
10, 7188, Note_on_c, 10, 67, 0
10, 7200, Note_on_c, 10, 70, 109
10, 7344, Note_on_c, 10, 70, 0
10, 7380, Note_on_c, 10, 67, 114
10, 7476, Note_on_c, 10, 67, 0
10, 7500, Note_on_c, 10, 72, 118
10, 7548, Note_on_c, 10, 72, 0
10, 7560, Note_on_c, 10, 69, 121
10, 7704, Note_on_c, 10, 69, 0
10, 7740, Note_on_c, 10, 65, 109
10, 7836, Note_on_c, 10, 65, 0
10, 7860, Note_on_c, 10, 69, 109
10, 7908, Note_on_c, 10, 69, 0
10, 7920, Note_on_c, 10, 67, 127
10, 8016, Note_on_c, 10, 67, 0
10, 8040, Note_on_c, 10, 62, 127
10, 8088, Note_on_c, 10, 62, 0
10, 8100, Note_on_c, 10, 64, 127
10, 8196, Note_on_c, 10, 64, 0
10, 8220, Note_on_c, 10, 60, 125
10, 8268, Note_on_c, 10, 60, 0
10, 8280, Note_on_c, 10, 60, 113
10, 8328, Note_on_c, 10, 60, 0
10, 8340, Note_on_c, 10, 65, 121
10, 8556, Note_on_c, 10, 65, 0
10, 8580, Note_on_c, 10, 69, 100
10, 8628, Note_on_c, 10, 69, 0
10, 8640, Note_on_c, 10, 81, 101
10, 8640, Note_on_c, 10, 72, 92
10, 8656, Note_on_c, 10, 72, 0
10, 8656, Note_on_c, 10, 81, 0
10, 8660, Note_on_c, 10, 81, 104
10, 8660, Note_on_c, 10, 72, 103
10, 8676, Note_on_c, 10, 72, 0
10, 8676, Note_on_c, 10, 81, 0
10, 8680, Note_on_c, 10, 72, 103
10, 8680, Note_on_c, 10, 81, 103
10, 8696, Note_on_c, 10, 81, 0
10, 8696, Note_on_c, 10, 72, 0
10, 8700, Note_on_c, 10, 72, 106
10, 8700, Note_on_c, 10, 81, 103
10, 8716, Note_on_c, 10, 81, 0
10, 8716, Note_on_c, 10, 72, 0
10, 8720, Note_on_c, 10, 81, 109
10, 8720, Note_on_c, 10, 72, 109
10, 8736, Note_on_c, 10, 72, 0
10, 8736, Note_on_c, 10, 81, 0
10, 8740, Note_on_c, 10, 72, 111
10, 8740, Note_on_c, 10, 81, 112
10, 8756, Note_on_c, 10, 81, 0
10, 8756, Note_on_c, 10, 72, 0
10, 8760, Note_on_c, 10, 81, 112
10, 8760, Note_on_c, 10, 72, 107
10, 8776, Note_on_c, 10, 72, 0
10, 8776, Note_on_c, 10, 81, 0
10, 8780, Note_on_c, 10, 81, 106
10, 8780, Note_on_c, 10, 72, 103
10, 8796, Note_on_c, 10, 72, 0
10, 8796, Note_on_c, 10, 81, 0
10, 8800, Note_on_c, 10, 81, 113
10, 8800, Note_on_c, 10, 72, 110
10, 8816, Note_on_c, 10, 72, 0
10, 8816, Note_on_c, 10, 81, 0
10, 8820, Note_on_c, 10, 81, 117
10, 8820, Note_on_c, 10, 72, 111
10, 8836, Note_on_c, 10, 72, 0
10, 8836, Note_on_c, 10, 81, 0
10, 8840, Note_on_c, 10, 81, 112
10, 8840, Note_on_c, 10, 72, 109
10, 8856, Note_on_c, 10, 72, 0
10, 8856, Note_on_c, 10, 81, 0
10, 8860, Note_on_c, 10, 81, 111
10, 8860, Note_on_c, 10, 72, 105
10, 8876, Note_on_c, 10, 72, 0
10, 8876, Note_on_c, 10, 81, 0
10, 8880, Note_on_c, 10, 81, 121
10, 8880, Note_on_c, 10, 72, 111
10, 8896, Note_on_c, 10, 72, 0
10, 8896, Note_on_c, 10, 81, 0
10, 8900, Note_on_c, 10, 81, 118
10, 8900, Note_on_c, 10, 72, 113
10, 8916, Note_on_c, 10, 72, 0
10, 8916, Note_on_c, 10, 81, 0
10, 8920, Note_on_c, 10, 81, 118
10, 8920, Note_on_c, 10, 72, 113
10, 8936, Note_on_c, 10, 72, 0
10, 8936, Note_on_c, 10, 81, 0
10, 8940, Note_on_c, 10, 81, 112
10, 8940, Note_on_c, 10, 72, 112
10, 8956, Note_on_c, 10, 72, 0
10, 8956, Note_on_c, 10, 81, 0
10, 8960, Note_on_c, 10, 81, 106
10, 8960, Note_on_c, 10, 72, 106
10, 8976, Note_on_c, 10, 72, 0
10, 8976, Note_on_c, 10, 81, 0
10, 8980, Note_on_c, 10, 81, 113
10, 8980, Note_on_c, 10, 72, 111
10, 8996, Note_on_c, 10, 72, 0
10, 8996, Note_on_c, 10, 81, 0
10, 9000, Note_on_c, 10, 81, 111
10, 9000, Note_on_c, 10, 72, 107
10, 9048, Note_on_c, 10, 72, 0
10, 9048, Note_on_c, 10, 81, 0
10, 9060, Note_on_c, 10, 81, 117
10, 9060, Note_on_c, 10, 72, 104
10, 9108, Note_on_c, 10, 72, 0
10, 9108, Note_on_c, 10, 81, 0
10, 9120, Note_on_c, 10, 81, 117
10, 9120, Note_on_c, 10, 72, 107
10, 9168, Note_on_c, 10, 72, 0
10, 9168, Note_on_c, 10, 81, 0
10, 9180, Note_on_c, 10, 81, 120
10, 9180, Note_on_c, 10, 72, 111
10, 9228, Note_on_c, 10, 72, 0
10, 9228, Note_on_c, 10, 81, 0
10, 9240, Note_on_c, 10, 81, 123
10, 9240, Note_on_c, 10, 72, 110
10, 9288, Note_on_c, 10, 72, 0
10, 9288, Note_on_c, 10, 81, 0
10, 9300, Note_on_c, 10, 81, 125
10, 9300, Note_on_c, 10, 72, 113
10, 9348, Note_on_c, 10, 72, 0
10, 9348, Note_on_c, 10, 81, 0
10, 9360, Note_on_c, 10, 81, 120
10, 9360, Note_on_c, 10, 72, 108
10, 9408, Note_on_c, 10, 72, 0
10, 9408, Note_on_c, 10, 81, 0
10, 9420, Note_on_c, 10, 72, 114
10, 9420, Note_on_c, 10, 81, 121
10, 9468, Note_on_c, 10, 81, 0
10, 9468, Note_on_c, 10, 72, 0
10, 9480, Note_on_c, 10, 81, 112
10, 9480, Note_on_c, 10, 72, 107
10, 9528, Note_on_c, 10, 72, 0
10, 9528, Note_on_c, 10, 81, 0
10, 9540, Note_on_c, 10, 81, 121
10, 9540, Note_on_c, 10, 72, 108
10, 9588, Note_on_c, 10, 72, 0
10, 9588, Note_on_c, 10, 81, 0
10, 9600, Note_on_c, 10, 81, 103
10, 9600, Note_on_c, 10, 72, 104
10, 9648, Note_on_c, 10, 72, 0
10, 9648, Note_on_c, 10, 81, 0
10, 9660, Note_on_c, 10, 84, 111
10, 9660, Note_on_c, 10, 72, 104
10, 9708, Note_on_c, 10, 72, 0
10, 9708, Note_on_c, 10, 84, 0
10, 9720, Note_on_c, 10, 82, 113
10, 9720, Note_on_c, 10, 74, 102
10, 9768, Note_on_c, 10, 74, 0
10, 9768, Note_on_c, 10, 82, 0
10, 9780, Note_on_c, 10, 74, 103
10, 9780, Note_on_c, 10, 82, 111
10, 9828, Note_on_c, 10, 82, 0
10, 9828, Note_on_c, 10, 74, 0
10, 9840, Note_on_c, 10, 82, 118
10, 9840, Note_on_c, 10, 74, 117
10, 9888, Note_on_c, 10, 74, 0
10, 9888, Note_on_c, 10, 82, 0
10, 9900, Note_on_c, 10, 82, 113
10, 9900, Note_on_c, 10, 74, 114
10, 9948, Note_on_c, 10, 74, 0
10, 9948, Note_on_c, 10, 82, 0
10, 9960, Note_on_c, 10, 82, 113
10, 9960, Note_on_c, 10, 74, 118
10, 10008, Note_on_c, 10, 74, 0
10, 10008, Note_on_c, 10, 82, 0
10, 10020, Note_on_c, 10, 82, 115
10, 10020, Note_on_c, 10, 72, 113
10, 10068, Note_on_c, 10, 72, 0
10, 10068, Note_on_c, 10, 82, 0
10, 10080, Note_on_c, 10, 82, 118
10, 10080, Note_on_c, 10, 72, 114
10, 10128, Note_on_c, 10, 72, 0
10, 10128, Note_on_c, 10, 82, 0
10, 10140, Note_on_c, 10, 82, 96
10, 10140, Note_on_c, 10, 72, 106
10, 10188, Note_on_c, 10, 72, 0
10, 10188, Note_on_c, 10, 82, 0
10, 10200, Note_on_c, 10, 82, 107
10, 10200, Note_on_c, 10, 72, 113
10, 10248, Note_on_c, 10, 72, 0
10, 10248, Note_on_c, 10, 82, 0
10, 10260, Note_on_c, 10, 82, 113
10, 10260, Note_on_c, 10, 72, 114
10, 10308, Note_on_c, 10, 72, 0
10, 10308, Note_on_c, 10, 82, 0
10, 10320, Note_on_c, 10, 82, 111
10, 10320, Note_on_c, 10, 72, 116
10, 10368, Note_on_c, 10, 72, 0
10, 10368, Note_on_c, 10, 82, 0
10, 10380, Note_on_c, 10, 82, 115
10, 10380, Note_on_c, 10, 72, 114
10, 10428, Note_on_c, 10, 72, 0
10, 10428, Note_on_c, 10, 82, 0
10, 10440, Note_on_c, 10, 81, 120
10, 10440, Note_on_c, 10, 72, 104
10, 10488, Note_on_c, 10, 72, 0
10, 10488, Note_on_c, 10, 81, 0
10, 10500, Note_on_c, 10, 81, 101
10, 10500, Note_on_c, 10, 69, 100
10, 10548, Note_on_c, 10, 69, 0
10, 10548, Note_on_c, 10, 81, 0
10, 10560, Note_on_c, 10, 81, 101
10, 10560, Note_on_c, 10, 69, 105
10, 10608, Note_on_c, 10, 69, 0
10, 10608, Note_on_c, 10, 81, 0
10, 10620, Note_on_c, 10, 81, 118
10, 10620, Note_on_c, 10, 69, 110
10, 10668, Note_on_c, 10, 69, 0
10, 10668, Note_on_c, 10, 81, 0
10, 10680, Note_on_c, 10, 81, 102
10, 10680, Note_on_c, 10, 69, 106
10, 10728, Note_on_c, 10, 69, 0
10, 10728, Note_on_c, 10, 81, 0
10, 10740, Note_on_c, 10, 72, 106
10, 10740, Note_on_c, 10, 77, 109
10, 10788, Note_on_c, 10, 77, 0
10, 10788, Note_on_c, 10, 72, 0
10, 10800, Note_on_c, 10, 74, 96
10, 10800, Note_on_c, 10, 79, 84
10, 10848, Note_on_c, 10, 79, 0
10, 10848, Note_on_c, 10, 74, 0
10, 10860, Note_on_c, 10, 74, 100
10, 10860, Note_on_c, 10, 79, 106
10, 10908, Note_on_c, 10, 79, 0
10, 10908, Note_on_c, 10, 74, 0
10, 10920, Note_on_c, 10, 74, 100
10, 10920, Note_on_c, 10, 79, 105
10, 10968, Note_on_c, 10, 79, 0
10, 10968, Note_on_c, 10, 74, 0
10, 10980, Note_on_c, 10, 72, 104
10, 10980, Note_on_c, 10, 79, 96
10, 11028, Note_on_c, 10, 79, 0
10, 11028, Note_on_c, 10, 72, 0
10, 11040, Note_on_c, 10, 72, 101
10, 11040, Note_on_c, 10, 79, 107
10, 11088, Note_on_c, 10, 79, 0
10, 11088, Note_on_c, 10, 72, 0
10, 11100, Note_on_c, 10, 79, 105
10, 11100, Note_on_c, 10, 72, 100
10, 11148, Note_on_c, 10, 72, 0
10, 11148, Note_on_c, 10, 79, 0
10, 11160, Note_on_c, 10, 81, 100
10, 11160, Note_on_c, 10, 69, 103
10, 11184, Note_on_c, 10, 69, 0
10, 11184, Note_on_c, 10, 81, 0
10, 11190, Note_on_c, 10, 60, 121
10, 11214, Note_on_c, 10, 60, 0
10, 11220, Note_on_c, 10, 65, 127
10, 11244, Note_on_c, 10, 65, 0
10, 11250, Note_on_c, 10, 60, 118
10, 11274, Note_on_c, 10, 60, 0
10, 11280, Note_on_c, 10, 57, 102
10, 11304, Note_on_c, 10, 57, 0
10, 11310, Note_on_c, 10, 60, 117
10, 11334, Note_on_c, 10, 60, 0
10, 11340, Note_on_c, 10, 58, 101
10, 11364, Note_on_c, 10, 58, 0
10, 11370, Note_on_c, 10, 60, 103
10, 11394, Note_on_c, 10, 60, 0
10, 11400, Note_on_c, 10, 64, 111
10, 11424, Note_on_c, 10, 64, 0
10, 11430, Note_on_c, 10, 60, 104
10, 11454, Note_on_c, 10, 60, 0
10, 11460, Note_on_c, 10, 58, 100
10, 11484, Note_on_c, 10, 58, 0
10, 11490, Note_on_c, 10, 60, 127
10, 11514, Note_on_c, 10, 60, 0
10, 11520, Note_on_c, 10, 57, 105
10, 11544, Note_on_c, 10, 57, 0
10, 11550, Note_on_c, 10, 60, 127
10, 11574, Note_on_c, 10, 60, 0
10, 11580, Note_on_c, 10, 65, 117
10, 11604, Note_on_c, 10, 65, 0
10, 11610, Note_on_c, 10, 60, 117
10, 11634, Note_on_c, 10, 60, 0
10, 11640, Note_on_c, 10, 57, 107
10, 11664, Note_on_c, 10, 57, 0
10, 11670, Note_on_c, 10, 60, 105
10, 11694, Note_on_c, 10, 60, 0
10, 11700, Note_on_c, 10, 55, 114
10, 11724, Note_on_c, 10, 55, 0
10, 11730, Note_on_c, 10, 60, 109
10, 11754, Note_on_c, 10, 60, 0
10, 11760, Note_on_c, 10, 64, 117
10, 11784, Note_on_c, 10, 64, 0
10, 11790, Note_on_c, 10, 60, 104
10, 11814, Note_on_c, 10, 60, 0
10, 11820, Note_on_c, 10, 64, 121
10, 11844, Note_on_c, 10, 64, 0
10, 11850, Note_on_c, 10, 67, 123
10, 11874, Note_on_c, 10, 67, 0
10, 11880, Note_on_c, 10, 60, 107
10, 11880, Note_on_c, 10, 69, 116
10, 11976, Note_on_c, 10, 69, 0
10, 11976, Note_on_c, 10, 60, 0
10, 12540, Note_on_c, 10, 58, 109
10, 12564, Note_on_c, 10, 58, 0
10, 12570, Note_on_c, 10, 60, 116
10, 12594, Note_on_c, 10, 60, 0
10, 12600, Note_on_c, 10, 57, 118
10, 12624, Note_on_c, 10, 57, 0
10, 12630, Note_on_c, 10, 60, 110
10, 12654, Note_on_c, 10, 60, 0
10, 12660, Note_on_c, 10, 65, 117
10, 12684, Note_on_c, 10, 65, 0
10, 12690, Note_on_c, 10, 60, 127
10, 12714, Note_on_c, 10, 60, 0
10, 12720, Note_on_c, 10, 57, 113
10, 12744, Note_on_c, 10, 57, 0
10, 12750, Note_on_c, 10, 60, 117
10, 12774, Note_on_c, 10, 60, 0
10, 12780, Note_on_c, 10, 55, 116
10, 12804, Note_on_c, 10, 55, 0
10, 12810, Note_on_c, 10, 60, 127
10, 12834, Note_on_c, 10, 60, 0
10, 12840, Note_on_c, 10, 64, 121
10, 12864, Note_on_c, 10, 64, 0
10, 12870, Note_on_c, 10, 60, 117
10, 12894, Note_on_c, 10, 60, 0
10, 12900, Note_on_c, 10, 55, 102
10, 12924, Note_on_c, 10, 55, 0
10, 12930, Note_on_c, 10, 60, 127
10, 12954, Note_on_c, 10, 60, 0
10, 12960, Note_on_c, 10, 57, 110
10, 12984, Note_on_c, 10, 57, 0
10, 12990, Note_on_c, 10, 60, 127
10, 13014, Note_on_c, 10, 60, 0
10, 13020, Note_on_c, 10, 65, 99
10, 13044, Note_on_c, 10, 65, 0
10, 13050, Note_on_c, 10, 60, 114
10, 13074, Note_on_c, 10, 60, 0
10, 13080, Note_on_c, 10, 65, 102
10, 13104, Note_on_c, 10, 65, 0
10, 13110, Note_on_c, 10, 60, 123
10, 13134, Note_on_c, 10, 60, 0
10, 13140, Note_on_c, 10, 55, 103
10, 13164, Note_on_c, 10, 55, 0
10, 13170, Note_on_c, 10, 60, 121
10, 13194, Note_on_c, 10, 60, 0
10, 13200, Note_on_c, 10, 64, 117
10, 13224, Note_on_c, 10, 64, 0
10, 13230, Note_on_c, 10, 60, 103
10, 13254, Note_on_c, 10, 60, 0
10, 13260, Note_on_c, 10, 64, 127
10, 13284, Note_on_c, 10, 64, 0
10, 13290, Note_on_c, 10, 67, 127
10, 13314, Note_on_c, 10, 67, 0
10, 13320, Note_on_c, 10, 72, 101
10, 13320, Note_on_c, 10, 60, 107
10, 13416, Note_on_c, 10, 60, 0
10, 13416, Note_on_c, 10, 72, 0
10, 13980, Note_on_c, 10, 58, 118
10, 14004, Note_on_c, 10, 58, 0
10, 14010, Note_on_c, 10, 60, 111
10, 14034, Note_on_c, 10, 60, 0
10, 14040, Note_on_c, 10, 57, 50
10, 14064, Note_on_c, 10, 57, 0
10, 14070, Note_on_c, 10, 60, 113
10, 14094, Note_on_c, 10, 60, 0
10, 14100, Note_on_c, 10, 55, 109
10, 14124, Note_on_c, 10, 55, 0
10, 14130, Note_on_c, 10, 60, 118
10, 14154, Note_on_c, 10, 60, 0
10, 14160, Note_on_c, 10, 57, 107
10, 14184, Note_on_c, 10, 57, 0
10, 14190, Note_on_c, 10, 60, 111
10, 14214, Note_on_c, 10, 60, 0
10, 14220, Note_on_c, 10, 59, 116
10, 14244, Note_on_c, 10, 59, 0
10, 14250, Note_on_c, 10, 62, 114
10, 14274, Note_on_c, 10, 62, 0
10, 14280, Note_on_c, 10, 59, 109
10, 14304, Note_on_c, 10, 59, 0
10, 14310, Note_on_c, 10, 62, 116
10, 14334, Note_on_c, 10, 62, 0
10, 14340, Note_on_c, 10, 59, 110
10, 14364, Note_on_c, 10, 59, 0
10, 14370, Note_on_c, 10, 62, 125
10, 14394, Note_on_c, 10, 62, 0
10, 14400, Note_on_c, 10, 60, 125
10, 14424, Note_on_c, 10, 60, 0
10, 14430, Note_on_c, 10, 64, 109
10, 14454, Note_on_c, 10, 64, 0
10, 14460, Note_on_c, 10, 60, 109
10, 14484, Note_on_c, 10, 60, 0
10, 14490, Note_on_c, 10, 64, 120
10, 14514, Note_on_c, 10, 64, 0
10, 14520, Note_on_c, 10, 60, 114
10, 14544, Note_on_c, 10, 60, 0
10, 14550, Note_on_c, 10, 64, 118
10, 14574, Note_on_c, 10, 64, 0
10, 14580, Note_on_c, 10, 62, 121
10, 14604, Note_on_c, 10, 62, 0
10, 14610, Note_on_c, 10, 65, 110
10, 14634, Note_on_c, 10, 65, 0
10, 14640, Note_on_c, 10, 62, 107
10, 14664, Note_on_c, 10, 62, 0
10, 14670, Note_on_c, 10, 65, 114
10, 14694, Note_on_c, 10, 65, 0
10, 14700, Note_on_c, 10, 62, 113
10, 14724, Note_on_c, 10, 62, 0
10, 14730, Note_on_c, 10, 65, 111
10, 14754, Note_on_c, 10, 65, 0
10, 14760, Note_on_c, 10, 55, 103
10, 14760, Note_on_c, 10, 67, 102
10, 14904, Note_on_c, 10, 67, 0
10, 14904, Note_on_c, 10, 55, 0
10, 14940, Note_on_c, 10, 69, 127
10, 14988, Note_on_c, 10, 69, 0
10, 15000, Note_on_c, 10, 67, 114
10, 15048, Note_on_c, 10, 67, 0
10, 15060, Note_on_c, 10, 64, 117
10, 15084, Note_on_c, 10, 64, 0
10, 15090, Note_on_c, 10, 60, 117
10, 15114, Note_on_c, 10, 60, 0
10, 15120, Note_on_c, 10, 72, 111
10, 15120, Note_on_c, 10, 64, 111
10, 15216, Note_on_c, 10, 64, 0
10, 15216, Note_on_c, 10, 72, 0
10, 15240, Note_on_c, 10, 72, 105
10, 15288, Note_on_c, 10, 72, 0
10, 15300, Note_on_c, 10, 72, 103
10, 15348, Note_on_c, 10, 72, 0
10, 15360, Note_on_c, 10, 72, 105
10, 15408, Note_on_c, 10, 72, 0
10, 15420, Note_on_c, 10, 72, 113
10, 15432, Note_on_c, 10, 72, 0
10, 15435, Note_on_c, 10, 74, 107
10, 15447, Note_on_c, 10, 74, 0
10, 15450, Note_on_c, 10, 72, 106
10, 15462, Note_on_c, 10, 72, 0
10, 15465, Note_on_c, 10, 74, 103
10, 15477, Note_on_c, 10, 74, 0
10, 15480, Note_on_c, 10, 71, 105
10, 15480, Note_on_c, 10, 62, 113
10, 15624, Note_on_c, 10, 62, 0
10, 15624, Note_on_c, 10, 71, 0
10, 15660, Note_on_c, 10, 67, 114
10, 15708, Note_on_c, 10, 67, 0
10, 15720, Note_on_c, 10, 65, 118
10, 15768, Note_on_c, 10, 65, 0
10, 15780, Note_on_c, 10, 62, 127
10, 15804, Note_on_c, 10, 62, 0
10, 15810, Note_on_c, 10, 59, 127
10, 15834, Note_on_c, 10, 59, 0
10, 15840, Note_on_c, 10, 62, 103
10, 15840, Note_on_c, 10, 71, 102
10, 15936, Note_on_c, 10, 71, 0
10, 15936, Note_on_c, 10, 62, 0
10, 15960, Note_on_c, 10, 71, 105
10, 16008, Note_on_c, 10, 71, 0
10, 16020, Note_on_c, 10, 71, 107
10, 16068, Note_on_c, 10, 71, 0
10, 16080, Note_on_c, 10, 71, 106
10, 16128, Note_on_c, 10, 71, 0
10, 16140, Note_on_c, 10, 71, 120
10, 16152, Note_on_c, 10, 71, 0
10, 16155, Note_on_c, 10, 72, 125
10, 16167, Note_on_c, 10, 72, 0
10, 16170, Note_on_c, 10, 71, 110
10, 16182, Note_on_c, 10, 71, 0
10, 16185, Note_on_c, 10, 72, 100
10, 16197, Note_on_c, 10, 72, 0
10, 16200, Note_on_c, 10, 64, 120
10, 16200, Note_on_c, 10, 72, 120
10, 16344, Note_on_c, 10, 72, 0
10, 16344, Note_on_c, 10, 64, 0
10, 16380, Note_on_c, 10, 69, 127
10, 16404, Note_on_c, 10, 69, 0
10, 16410, Note_on_c, 10, 67, 127
10, 16434, Note_on_c, 10, 67, 0
10, 16440, Note_on_c, 10, 66, 118
10, 16464, Note_on_c, 10, 66, 0
10, 16470, Note_on_c, 10, 67, 127
10, 16494, Note_on_c, 10, 67, 0
10, 16500, Note_on_c, 10, 64, 117
10, 16524, Note_on_c, 10, 64, 0
10, 16530, Note_on_c, 10, 60, 105
10, 16554, Note_on_c, 10, 60, 0
10, 16560, Note_on_c, 10, 72, 109
10, 16656, Note_on_c, 10, 72, 0
10, 16680, Note_on_c, 10, 72, 104
10, 16728, Note_on_c, 10, 72, 0
10, 16740, Note_on_c, 10, 72, 107
10, 16788, Note_on_c, 10, 72, 0
10, 16800, Note_on_c, 10, 72, 107
10, 16848, Note_on_c, 10, 72, 0
10, 16860, Note_on_c, 10, 72, 125
10, 16872, Note_on_c, 10, 72, 0
10, 16875, Note_on_c, 10, 74, 125
10, 16887, Note_on_c, 10, 74, 0
10, 16890, Note_on_c, 10, 72, 121
10, 16902, Note_on_c, 10, 72, 0
10, 16905, Note_on_c, 10, 74, 127
10, 16917, Note_on_c, 10, 74, 0
10, 16920, Note_on_c, 10, 71, 107
10, 16920, Note_on_c, 10, 62, 100
10, 17064, Note_on_c, 10, 62, 0
10, 17064, Note_on_c, 10, 71, 0
10, 17100, Note_on_c, 10, 67, 127
10, 17124, Note_on_c, 10, 67, 0
10, 17130, Note_on_c, 10, 65, 118
10, 17154, Note_on_c, 10, 65, 0
10, 17160, Note_on_c, 10, 64, 123
10, 17184, Note_on_c, 10, 64, 0
10, 17190, Note_on_c, 10, 65, 127
10, 17214, Note_on_c, 10, 65, 0
10, 17220, Note_on_c, 10, 62, 127
10, 17244, Note_on_c, 10, 62, 0
10, 17250, Note_on_c, 10, 59, 120
10, 17274, Note_on_c, 10, 59, 0
10, 17280, Note_on_c, 10, 71, 110
10, 17376, Note_on_c, 10, 71, 0
10, 17400, Note_on_c, 10, 71, 109
10, 17448, Note_on_c, 10, 71, 0
10, 17460, Note_on_c, 10, 71, 110
10, 17508, Note_on_c, 10, 71, 0
10, 17520, Note_on_c, 10, 71, 101
10, 17568, Note_on_c, 10, 71, 0
10, 17580, Note_on_c, 10, 71, 117
10, 17592, Note_on_c, 10, 71, 0
10, 17595, Note_on_c, 10, 72, 116
10, 17607, Note_on_c, 10, 72, 0
10, 17610, Note_on_c, 10, 71, 127
10, 17622, Note_on_c, 10, 71, 0
10, 17625, Note_on_c, 10, 72, 108
10, 17637, Note_on_c, 10, 72, 0
10, 17640, Note_on_c, 10, 72, 116
10, 17736, Note_on_c, 10, 72, 0
10, 17820, Note_on_c, 10, 65, 113
10, 17868, Note_on_c, 10, 65, 0
10, 17880, Note_on_c, 10, 64, 101
10, 17928, Note_on_c, 10, 64, 0
10, 17940, Note_on_c, 10, 69, 120
10, 17988, Note_on_c, 10, 69, 0
10, 18000, Note_on_c, 10, 67, 104
10, 18048, Note_on_c, 10, 67, 0
10, 18060, Note_on_c, 10, 71, 121
10, 18108, Note_on_c, 10, 71, 0
10, 18120, Note_on_c, 10, 72, 121
10, 18168, Note_on_c, 10, 72, 0
10, 18180, Note_on_c, 10, 74, 111
10, 18180, Note_on_c, 10, 65, 105
10, 18276, Note_on_c, 10, 65, 0
10, 18276, Note_on_c, 10, 74, 0
10, 18300, Note_on_c, 10, 74, 110
10, 18300, Note_on_c, 10, 65, 102
10, 18348, Note_on_c, 10, 65, 0
10, 18348, Note_on_c, 10, 74, 0
10, 18360, Note_on_c, 10, 72, 107
10, 18360, Note_on_c, 10, 64, 109
10, 18408, Note_on_c, 10, 64, 0
10, 18408, Note_on_c, 10, 72, 0
10, 18480, Note_on_c, 10, 64, 117
10, 18528, Note_on_c, 10, 64, 0
10, 18540, Note_on_c, 10, 65, 120
10, 18588, Note_on_c, 10, 65, 0
10, 18600, Note_on_c, 10, 64, 98
10, 18648, Note_on_c, 10, 64, 0
10, 18660, Note_on_c, 10, 69, 127
10, 18708, Note_on_c, 10, 69, 0
10, 18720, Note_on_c, 10, 67, 105
10, 18768, Note_on_c, 10, 67, 0
10, 18780, Note_on_c, 10, 71, 110
10, 18828, Note_on_c, 10, 71, 0
10, 18840, Note_on_c, 10, 72, 120
10, 18888, Note_on_c, 10, 72, 0
10, 18900, Note_on_c, 10, 65, 106
10, 18900, Note_on_c, 10, 74, 102
10, 18996, Note_on_c, 10, 74, 0
10, 18996, Note_on_c, 10, 65, 0
10, 19020, Note_on_c, 10, 74, 120
10, 19020, Note_on_c, 10, 65, 113
10, 19068, Note_on_c, 10, 65, 0
10, 19068, Note_on_c, 10, 74, 0
10, 19080, Note_on_c, 10, 76, 107
10, 19080, Note_on_c, 10, 64, 103
10, 19224, Note_on_c, 10, 64, 0
10, 19224, Note_on_c, 10, 76, 0
10, 19260, Note_on_c, 10, 72, 127
10, 19260, Note_on_c, 10, 64, 103
10, 19308, Note_on_c, 10, 64, 0
10, 19308, Note_on_c, 10, 72, 0
10, 19380, Note_on_c, 10, 76, 113
10, 19428, Note_on_c, 10, 76, 0
10, 19440, Note_on_c, 10, 77, 121
10, 19584, Note_on_c, 10, 77, 0
10, 19620, Note_on_c, 10, 74, 111
10, 19668, Note_on_c, 10, 74, 0
10, 19740, Note_on_c, 10, 69, 127
10, 19788, Note_on_c, 10, 69, 0
10, 19800, Note_on_c, 10, 60, 99
10, 19800, Note_on_c, 10, 64, 103
10, 22608, Note_on_c, 10, 64, 0
10, 22608, Note_on_c, 10, 60, 0
10, 22680, Note_on_c, 10, 60, 105
10, 22680, Note_on_c, 10, 65, 116
10, 22776, Note_on_c, 10, 65, 0
10, 22776, Note_on_c, 10, 60, 0
10, 22890, Note_on_c, 10, 57, 103
10, 22914, Note_on_c, 10, 57, 0
10, 22920, Note_on_c, 10, 60, 127
10, 22944, Note_on_c, 10, 60, 0
10, 22950, Note_on_c, 10, 65, 127
10, 22974, Note_on_c, 10, 65, 0
10, 22980, Note_on_c, 10, 69, 127
10, 23004, Note_on_c, 10, 69, 0
10, 23010, Note_on_c, 10, 65, 116
10, 23034, Note_on_c, 10, 65, 0
10, 23250, Note_on_c, 10, 57, 109
10, 23274, Note_on_c, 10, 57, 0
10, 23280, Note_on_c, 10, 60, 127
10, 23304, Note_on_c, 10, 60, 0
10, 23310, Note_on_c, 10, 65, 114
10, 23334, Note_on_c, 10, 65, 0
10, 23340, Note_on_c, 10, 69, 127
10, 23364, Note_on_c, 10, 69, 0
10, 23370, Note_on_c, 10, 65, 125
10, 23394, Note_on_c, 10, 65, 0
10, 23610, Note_on_c, 10, 60, 80
10, 23634, Note_on_c, 10, 60, 0
10, 23640, Note_on_c, 10, 65, 118
10, 23664, Note_on_c, 10, 65, 0
10, 23670, Note_on_c, 10, 69, 127
10, 23694, Note_on_c, 10, 69, 0
10, 23700, Note_on_c, 10, 72, 125
10, 23724, Note_on_c, 10, 72, 0
10, 23730, Note_on_c, 10, 69, 118
10, 23754, Note_on_c, 10, 69, 0
10, 23970, Note_on_c, 10, 58, 121
10, 23994, Note_on_c, 10, 58, 0
10, 24000, Note_on_c, 10, 62, 127
10, 24024, Note_on_c, 10, 62, 0
10, 24030, Note_on_c, 10, 65, 127
10, 24054, Note_on_c, 10, 65, 0
10, 24060, Note_on_c, 10, 70, 96
10, 24084, Note_on_c, 10, 70, 0
10, 24090, Note_on_c, 10, 67, 97
10, 24114, Note_on_c, 10, 67, 0
10, 24330, Note_on_c, 10, 60, 104
10, 24354, Note_on_c, 10, 60, 0
10, 24360, Note_on_c, 10, 64, 125
10, 24384, Note_on_c, 10, 64, 0
10, 24390, Note_on_c, 10, 67, 109
10, 24414, Note_on_c, 10, 67, 0
10, 24420, Note_on_c, 10, 72, 127
10, 24444, Note_on_c, 10, 72, 0
10, 24450, Note_on_c, 10, 67, 127
10, 24474, Note_on_c, 10, 67, 0
10, 24690, Note_on_c, 10, 57, 120
10, 24714, Note_on_c, 10, 57, 0
10, 24720, Note_on_c, 10, 62, 127
10, 24744, Note_on_c, 10, 62, 0
10, 24750, Note_on_c, 10, 65, 118
10, 24774, Note_on_c, 10, 65, 0
10, 24780, Note_on_c, 10, 69, 125
10, 24804, Note_on_c, 10, 69, 0
10, 24810, Note_on_c, 10, 65, 127
10, 24834, Note_on_c, 10, 65, 0
10, 25050, Note_on_c, 10, 55, 121
10, 25074, Note_on_c, 10, 55, 0
10, 25080, Note_on_c, 10, 60, 125
10, 25104, Note_on_c, 10, 60, 0
10, 25110, Note_on_c, 10, 64, 118
10, 25134, Note_on_c, 10, 64, 0
10, 25140, Note_on_c, 10, 67, 127
10, 25164, Note_on_c, 10, 67, 0
10, 25170, Note_on_c, 10, 64, 121
10, 25194, Note_on_c, 10, 64, 0
10, 25410, Note_on_c, 10, 57, 111
10, 25434, Note_on_c, 10, 57, 0
10, 25440, Note_on_c, 10, 60, 127
10, 25464, Note_on_c, 10, 60, 0
10, 25470, Note_on_c, 10, 65, 102
10, 25494, Note_on_c, 10, 65, 0
10, 25500, Note_on_c, 10, 69, 112
10, 25524, Note_on_c, 10, 69, 0
10, 25530, Note_on_c, 10, 65, 123
10, 25554, Note_on_c, 10, 65, 0
10, 25560, Note_on_c, 10, 69, 117
10, 25704, Note_on_c, 10, 69, 0
10, 25740, Note_on_c, 10, 65, 123
10, 25836, Note_on_c, 10, 65, 0
10, 25860, Note_on_c, 10, 72, 127
10, 25908, Note_on_c, 10, 72, 0
10, 25920, Note_on_c, 10, 69, 121
10, 26064, Note_on_c, 10, 69, 0
10, 26100, Note_on_c, 10, 65, 123
10, 26196, Note_on_c, 10, 65, 0
10, 26220, Note_on_c, 10, 60, 125
10, 26268, Note_on_c, 10, 60, 0
10, 26280, Note_on_c, 10, 65, 125
10, 26376, Note_on_c, 10, 65, 0
10, 26400, Note_on_c, 10, 69, 125
10, 26448, Note_on_c, 10, 69, 0
10, 26460, Note_on_c, 10, 72, 127
10, 26556, Note_on_c, 10, 72, 0
10, 26580, Note_on_c, 10, 69, 127
10, 26628, Note_on_c, 10, 69, 0
10, 26640, Note_on_c, 10, 72, 116
10, 26916, Note_on_c, 10, 72, 0
10, 26940, Note_on_c, 10, 65, 109
10, 26988, Note_on_c, 10, 65, 0
10, 27000, Note_on_c, 10, 69, 127
10, 27096, Note_on_c, 10, 69, 0
10, 27120, Note_on_c, 10, 72, 127
10, 27168, Note_on_c, 10, 72, 0
10, 27180, Note_on_c, 10, 75, 109
10, 27276, Note_on_c, 10, 75, 0
10, 27300, Note_on_c, 10, 72, 109
10, 27348, Note_on_c, 10, 72, 0
10, 27360, Note_on_c, 10, 75, 100
10, 27504, Note_on_c, 10, 75, 0
10, 27540, Note_on_c, 10, 75, 109
10, 27636, Note_on_c, 10, 75, 0
10, 27660, Note_on_c, 10, 75, 99
10, 27660, Note_on_c, 10, 65, 110
10, 27676, Note_on_c, 10, 65, 0
10, 27676, Note_on_c, 10, 75, 0
10, 27680, Note_on_c, 10, 75, 89
10, 27680, Note_on_c, 10, 65, 105
10, 27696, Note_on_c, 10, 65, 0
10, 27696, Note_on_c, 10, 75, 0
10, 27700, Note_on_c, 10, 75, 96
10, 27700, Note_on_c, 10, 65, 114
10, 27716, Note_on_c, 10, 65, 0
10, 27716, Note_on_c, 10, 75, 0
10, 27720, Note_on_c, 10, 75, 109
10, 27720, Note_on_c, 10, 65, 99
10, 27736, Note_on_c, 10, 65, 0
10, 27736, Note_on_c, 10, 75, 0
10, 27740, Note_on_c, 10, 75, 99
10, 27740, Note_on_c, 10, 65, 108
10, 27756, Note_on_c, 10, 65, 0
10, 27756, Note_on_c, 10, 75, 0
10, 27760, Note_on_c, 10, 65, 113
10, 27760, Note_on_c, 10, 75, 97
10, 27776, Note_on_c, 10, 75, 0
10, 27776, Note_on_c, 10, 65, 0
10, 27780, Note_on_c, 10, 75, 113
10, 27780, Note_on_c, 10, 65, 118
10, 27796, Note_on_c, 10, 65, 0
10, 27796, Note_on_c, 10, 75, 0
10, 27800, Note_on_c, 10, 75, 97
10, 27800, Note_on_c, 10, 65, 111
10, 27816, Note_on_c, 10, 65, 0
10, 27816, Note_on_c, 10, 75, 0
10, 27820, Note_on_c, 10, 75, 96
10, 27820, Note_on_c, 10, 65, 110
10, 27836, Note_on_c, 10, 65, 0
10, 27836, Note_on_c, 10, 75, 0
10, 27840, Note_on_c, 10, 75, 113
10, 27840, Note_on_c, 10, 65, 116
10, 27856, Note_on_c, 10, 65, 0
10, 27856, Note_on_c, 10, 75, 0
10, 27860, Note_on_c, 10, 75, 95
10, 27860, Note_on_c, 10, 65, 107
10, 27876, Note_on_c, 10, 65, 0
10, 27876, Note_on_c, 10, 75, 0
10, 27880, Note_on_c, 10, 75, 105
10, 27880, Note_on_c, 10, 65, 117
10, 27896, Note_on_c, 10, 65, 0
10, 27896, Note_on_c, 10, 75, 0
10, 27900, Note_on_c, 10, 75, 115
10, 27900, Note_on_c, 10, 65, 114
10, 27916, Note_on_c, 10, 65, 0
10, 27916, Note_on_c, 10, 75, 0
10, 27920, Note_on_c, 10, 75, 97
10, 27920, Note_on_c, 10, 65, 110
10, 27936, Note_on_c, 10, 65, 0
10, 27936, Note_on_c, 10, 75, 0
10, 27940, Note_on_c, 10, 75, 105
10, 27940, Note_on_c, 10, 65, 113
10, 27956, Note_on_c, 10, 65, 0
10, 27956, Note_on_c, 10, 75, 0
10, 27960, Note_on_c, 10, 75, 113
10, 27960, Note_on_c, 10, 65, 112
10, 27976, Note_on_c, 10, 65, 0
10, 27976, Note_on_c, 10, 75, 0
10, 27980, Note_on_c, 10, 75, 111
10, 27980, Note_on_c, 10, 65, 121
10, 27996, Note_on_c, 10, 65, 0
10, 27996, Note_on_c, 10, 75, 0
10, 28000, Note_on_c, 10, 75, 109
10, 28000, Note_on_c, 10, 65, 114
10, 28016, Note_on_c, 10, 65, 0
10, 28016, Note_on_c, 10, 75, 0
10, 28020, Note_on_c, 10, 75, 101
10, 28020, Note_on_c, 10, 65, 112
10, 28036, Note_on_c, 10, 65, 0
10, 28036, Note_on_c, 10, 75, 0
10, 28040, Note_on_c, 10, 75, 109
10, 28040, Note_on_c, 10, 65, 116
10, 28056, Note_on_c, 10, 65, 0
10, 28056, Note_on_c, 10, 75, 0
10, 28060, Note_on_c, 10, 75, 105
10, 28060, Note_on_c, 10, 65, 109
10, 28076, Note_on_c, 10, 65, 0
10, 28076, Note_on_c, 10, 75, 0
10, 28080, Note_on_c, 10, 75, 113
10, 28080, Note_on_c, 10, 65, 103
10, 28128, Note_on_c, 10, 65, 0
10, 28128, Note_on_c, 10, 75, 0
10, 28140, Note_on_c, 10, 65, 109
10, 28140, Note_on_c, 10, 75, 97
10, 28188, Note_on_c, 10, 75, 0
10, 28188, Note_on_c, 10, 65, 0
10, 28200, Note_on_c, 10, 75, 101
10, 28200, Note_on_c, 10, 65, 110
10, 28248, Note_on_c, 10, 65, 0
10, 28248, Note_on_c, 10, 75, 0
10, 28260, Note_on_c, 10, 75, 99
10, 28260, Note_on_c, 10, 65, 107
10, 28308, Note_on_c, 10, 65, 0
10, 28308, Note_on_c, 10, 75, 0
10, 28320, Note_on_c, 10, 75, 101
10, 28320, Note_on_c, 10, 65, 105
10, 28368, Note_on_c, 10, 65, 0
10, 28368, Note_on_c, 10, 75, 0
10, 28380, Note_on_c, 10, 65, 105
10, 28380, Note_on_c, 10, 72, 123
10, 28428, Note_on_c, 10, 72, 0
10, 28428, Note_on_c, 10, 65, 0
10, 28440, Note_on_c, 10, 58, 105
10, 28440, Note_on_c, 10, 65, 105
10, 28440, Note_on_c, 10, 74, 108
10, 28536, Note_on_c, 10, 74, 0
10, 28536, Note_on_c, 10, 65, 0
10, 28536, Note_on_c, 10, 58, 0
10, 29100, Note_on_c, 10, 58, 111
10, 29160, Note_on_c, 10, 63, 109
10, 29196, Note_on_c, 10, 58, 0
10, 29256, Note_on_c, 10, 63, 0
10, 29820, Note_on_c, 10, 71, 107
10, 29868, Note_on_c, 10, 71, 0
10, 29880, Note_on_c, 10, 71, 111
10, 29976, Note_on_c, 10, 71, 0
10, 30000, Note_on_c, 10, 72, 118
10, 30048, Note_on_c, 10, 72, 0
10, 30540, Note_on_c, 10, 69, 109
10, 30588, Note_on_c, 10, 69, 0
10, 30600, Note_on_c, 10, 70, 107
10, 30696, Note_on_c, 10, 70, 0
10, 30900, Note_on_c, 10, 70, 87
10, 30900, Note_on_c, 10, 62, 103
10, 30948, Note_on_c, 10, 62, 0
10, 30948, Note_on_c, 10, 70, 0
10, 30960, Note_on_c, 10, 63, 115
10, 30960, Note_on_c, 10, 70, 123
10, 31056, Note_on_c, 10, 70, 0
10, 31056, Note_on_c, 10, 63, 0
10, 31260, Note_on_c, 10, 70, 113
10, 31260, Note_on_c, 10, 64, 113
10, 31308, Note_on_c, 10, 64, 0
10, 31308, Note_on_c, 10, 70, 0
10, 31320, Note_on_c, 10, 70, 107
10, 31320, Note_on_c, 10, 62, 110
10, 31416, Note_on_c, 10, 62, 0
10, 31416, Note_on_c, 10, 70, 0
10, 31620, Note_on_c, 10, 62, 111
10, 31668, Note_on_c, 10, 62, 0
10, 31680, Note_on_c, 10, 57, 117
10, 31776, Note_on_c, 10, 57, 0
10, 31980, Note_on_c, 10, 57, 103
10, 31980, Note_on_c, 10, 65, 107
10, 32028, Note_on_c, 10, 65, 0
10, 32028, Note_on_c, 10, 57, 0
10, 32040, Note_on_c, 10, 58, 123
10, 32064, Note_on_c, 10, 58, 0
10, 32070, Note_on_c, 10, 70, 105
10, 32094, Note_on_c, 10, 70, 0
10, 32100, Note_on_c, 10, 69, 116
10, 32124, Note_on_c, 10, 69, 0
10, 32130, Note_on_c, 10, 70, 107
10, 32154, Note_on_c, 10, 70, 0
10, 32160, Note_on_c, 10, 62, 116
10, 32184, Note_on_c, 10, 62, 0
10, 32190, Note_on_c, 10, 70, 113
10, 32214, Note_on_c, 10, 70, 0
10, 32220, Note_on_c, 10, 63, 109
10, 32244, Note_on_c, 10, 63, 0
10, 32250, Note_on_c, 10, 70, 113
10, 32274, Note_on_c, 10, 70, 0
10, 32280, Note_on_c, 10, 63, 93
10, 32304, Note_on_c, 10, 63, 0
10, 32310, Note_on_c, 10, 70, 121
10, 32334, Note_on_c, 10, 70, 0
10, 32340, Note_on_c, 10, 65, 127
10, 32364, Note_on_c, 10, 65, 0
10, 32370, Note_on_c, 10, 70, 95
10, 32394, Note_on_c, 10, 70, 0
10, 32400, Note_on_c, 10, 67, 125
10, 32424, Note_on_c, 10, 67, 0
10, 32430, Note_on_c, 10, 70, 105
10, 32454, Note_on_c, 10, 70, 0
10, 32460, Note_on_c, 10, 67, 127
10, 32484, Note_on_c, 10, 67, 0
10, 32490, Note_on_c, 10, 70, 113
10, 32514, Note_on_c, 10, 70, 0
10, 32520, Note_on_c, 10, 67, 123
10, 32544, Note_on_c, 10, 67, 0
10, 32550, Note_on_c, 10, 70, 107
10, 32574, Note_on_c, 10, 70, 0
10, 32580, Note_on_c, 10, 67, 127
10, 32604, Note_on_c, 10, 67, 0
10, 32610, Note_on_c, 10, 70, 113
10, 32634, Note_on_c, 10, 70, 0
10, 32640, Note_on_c, 10, 67, 120
10, 32664, Note_on_c, 10, 67, 0
10, 32670, Note_on_c, 10, 70, 111
10, 32694, Note_on_c, 10, 70, 0
10, 32700, Note_on_c, 10, 67, 127
10, 32724, Note_on_c, 10, 67, 0
10, 32730, Note_on_c, 10, 70, 113
10, 32754, Note_on_c, 10, 70, 0
10, 32760, Note_on_c, 10, 65, 103
10, 32784, Note_on_c, 10, 65, 0
10, 32790, Note_on_c, 10, 70, 107
10, 32814, Note_on_c, 10, 70, 0
10, 32820, Note_on_c, 10, 65, 121
10, 32844, Note_on_c, 10, 65, 0
10, 32850, Note_on_c, 10, 70, 101
10, 32874, Note_on_c, 10, 70, 0
10, 32880, Note_on_c, 10, 65, 112
10, 32904, Note_on_c, 10, 65, 0
10, 32910, Note_on_c, 10, 70, 107
10, 32934, Note_on_c, 10, 70, 0
10, 32940, Note_on_c, 10, 65, 104
10, 32964, Note_on_c, 10, 65, 0
10, 32970, Note_on_c, 10, 70, 103
10, 32994, Note_on_c, 10, 70, 0
10, 33000, Note_on_c, 10, 65, 109
10, 33024, Note_on_c, 10, 65, 0
10, 33030, Note_on_c, 10, 70, 97
10, 33054, Note_on_c, 10, 70, 0
10, 33060, Note_on_c, 10, 65, 112
10, 33084, Note_on_c, 10, 65, 0
10, 33090, Note_on_c, 10, 70, 109
10, 33114, Note_on_c, 10, 70, 0
10, 33120, Note_on_c, 10, 64, 113
10, 33144, Note_on_c, 10, 64, 0
10, 33150, Note_on_c, 10, 63, 107
10, 33174, Note_on_c, 10, 63, 0
10, 33180, Note_on_c, 10, 58, 111
10, 33204, Note_on_c, 10, 58, 0
10, 33210, Note_on_c, 10, 61, 86
10, 33234, Note_on_c, 10, 61, 0
10, 33240, Note_on_c, 10, 58, 93
10, 33264, Note_on_c, 10, 58, 0
10, 33270, Note_on_c, 10, 61, 100
10, 33294, Note_on_c, 10, 61, 0
10, 33300, Note_on_c, 10, 58, 94
10, 33324, Note_on_c, 10, 58, 0
10, 33330, Note_on_c, 10, 61, 84
10, 33354, Note_on_c, 10, 61, 0
10, 33360, Note_on_c, 10, 58, 99
10, 33384, Note_on_c, 10, 58, 0
10, 33390, Note_on_c, 10, 61, 109
10, 33414, Note_on_c, 10, 61, 0
10, 33420, Note_on_c, 10, 58, 103
10, 33444, Note_on_c, 10, 58, 0
10, 33450, Note_on_c, 10, 61, 107
10, 33474, Note_on_c, 10, 61, 0
10, 33480, Note_on_c, 10, 61, 92
10, 33504, Note_on_c, 10, 61, 0
10, 33510, Note_on_c, 10, 65, 113
10, 33534, Note_on_c, 10, 65, 0
10, 33540, Note_on_c, 10, 61, 95
10, 33564, Note_on_c, 10, 61, 0
10, 33570, Note_on_c, 10, 65, 113
10, 33594, Note_on_c, 10, 65, 0
10, 33600, Note_on_c, 10, 61, 88
10, 33624, Note_on_c, 10, 61, 0
10, 33630, Note_on_c, 10, 65, 103
10, 33654, Note_on_c, 10, 65, 0
10, 33660, Note_on_c, 10, 60, 109
10, 33684, Note_on_c, 10, 60, 0
10, 33690, Note_on_c, 10, 66, 105
10, 33714, Note_on_c, 10, 66, 0
10, 33720, Note_on_c, 10, 60, 98
10, 33744, Note_on_c, 10, 60, 0
10, 33750, Note_on_c, 10, 66, 103
10, 33774, Note_on_c, 10, 66, 0
10, 33780, Note_on_c, 10, 60, 110
10, 33804, Note_on_c, 10, 60, 0
10, 33810, Note_on_c, 10, 66, 78
10, 33834, Note_on_c, 10, 66, 0
10, 33840, Note_on_c, 10, 61, 85
10, 33864, Note_on_c, 10, 61, 0
10, 33870, Note_on_c, 10, 65, 121
10, 33894, Note_on_c, 10, 65, 0
10, 33900, Note_on_c, 10, 61, 103
10, 33924, Note_on_c, 10, 61, 0
10, 33930, Note_on_c, 10, 65, 123
10, 33954, Note_on_c, 10, 65, 0
10, 33960, Note_on_c, 10, 61, 99
10, 33984, Note_on_c, 10, 61, 0
10, 33990, Note_on_c, 10, 65, 125
10, 34014, Note_on_c, 10, 65, 0
10, 34020, Note_on_c, 10, 61, 100
10, 34044, Note_on_c, 10, 61, 0
10, 34050, Note_on_c, 10, 65, 121
10, 34074, Note_on_c, 10, 65, 0
10, 34080, Note_on_c, 10, 61, 94
10, 34104, Note_on_c, 10, 61, 0
10, 34110, Note_on_c, 10, 65, 125
10, 34134, Note_on_c, 10, 65, 0
10, 34140, Note_on_c, 10, 61, 84
10, 34164, Note_on_c, 10, 61, 0
10, 34170, Note_on_c, 10, 65, 127
10, 34194, Note_on_c, 10, 65, 0
10, 34200, Note_on_c, 10, 63, 93
10, 34224, Note_on_c, 10, 63, 0
10, 34230, Note_on_c, 10, 65, 121
10, 34254, Note_on_c, 10, 65, 0
10, 34260, Note_on_c, 10, 63, 105
10, 34284, Note_on_c, 10, 63, 0
10, 34290, Note_on_c, 10, 65, 116
10, 34314, Note_on_c, 10, 65, 0
10, 34320, Note_on_c, 10, 63, 101
10, 34344, Note_on_c, 10, 63, 0
10, 34350, Note_on_c, 10, 65, 117
10, 34374, Note_on_c, 10, 65, 0
10, 34380, Note_on_c, 10, 63, 101
10, 34404, Note_on_c, 10, 63, 0
10, 34410, Note_on_c, 10, 65, 123
10, 34434, Note_on_c, 10, 65, 0
10, 34440, Note_on_c, 10, 63, 101
10, 34464, Note_on_c, 10, 63, 0
10, 34470, Note_on_c, 10, 65, 116
10, 34494, Note_on_c, 10, 65, 0
10, 34500, Note_on_c, 10, 63, 100
10, 34524, Note_on_c, 10, 63, 0
10, 34530, Note_on_c, 10, 65, 107
10, 34554, Note_on_c, 10, 65, 0
10, 34560, Note_on_c, 10, 61, 107
10, 34584, Note_on_c, 10, 61, 0
10, 34590, Note_on_c, 10, 65, 127
10, 34614, Note_on_c, 10, 65, 0
10, 34620, Note_on_c, 10, 61, 105
10, 34644, Note_on_c, 10, 61, 0
10, 34650, Note_on_c, 10, 65, 114
10, 34674, Note_on_c, 10, 65, 0
10, 34680, Note_on_c, 10, 61, 101
10, 34704, Note_on_c, 10, 61, 0
10, 34710, Note_on_c, 10, 65, 125
10, 34734, Note_on_c, 10, 65, 0
10, 34740, Note_on_c, 10, 61, 107
10, 34764, Note_on_c, 10, 61, 0
10, 34770, Note_on_c, 10, 65, 120
10, 34794, Note_on_c, 10, 65, 0
10, 34800, Note_on_c, 10, 61, 99
10, 34824, Note_on_c, 10, 61, 0
10, 34830, Note_on_c, 10, 65, 116
10, 34854, Note_on_c, 10, 65, 0
10, 34860, Note_on_c, 10, 61, 92
10, 34884, Note_on_c, 10, 61, 0
10, 34890, Note_on_c, 10, 65, 125
10, 34914, Note_on_c, 10, 65, 0
10, 34920, Note_on_c, 10, 62, 127
10, 34944, Note_on_c, 10, 62, 0
10, 34950, Note_on_c, 10, 65, 127
10, 34974, Note_on_c, 10, 65, 0
10, 34980, Note_on_c, 10, 62, 127
10, 35004, Note_on_c, 10, 62, 0
10, 35010, Note_on_c, 10, 65, 127
10, 35034, Note_on_c, 10, 65, 0
10, 35040, Note_on_c, 10, 62, 121
10, 35064, Note_on_c, 10, 62, 0
10, 35070, Note_on_c, 10, 65, 127
10, 35094, Note_on_c, 10, 65, 0
10, 35100, Note_on_c, 10, 62, 120
10, 35124, Note_on_c, 10, 62, 0
10, 35130, Note_on_c, 10, 65, 123
10, 35154, Note_on_c, 10, 65, 0
10, 35160, Note_on_c, 10, 62, 116
10, 35184, Note_on_c, 10, 62, 0
10, 35190, Note_on_c, 10, 65, 118
10, 35214, Note_on_c, 10, 65, 0
10, 35220, Note_on_c, 10, 62, 113
10, 35244, Note_on_c, 10, 62, 0
10, 35250, Note_on_c, 10, 65, 121
10, 35274, Note_on_c, 10, 65, 0
10, 35280, Note_on_c, 10, 60, 114
10, 35304, Note_on_c, 10, 60, 0
10, 35310, Note_on_c, 10, 62, 127
10, 35334, Note_on_c, 10, 62, 0
10, 35340, Note_on_c, 10, 64, 110
10, 35364, Note_on_c, 10, 64, 0
10, 35370, Note_on_c, 10, 65, 112
10, 35394, Note_on_c, 10, 65, 0
10, 35400, Note_on_c, 10, 67, 127
10, 35424, Note_on_c, 10, 67, 0
10, 35430, Note_on_c, 10, 66, 89
10, 35454, Note_on_c, 10, 66, 0
10, 35460, Note_on_c, 10, 69, 120
10, 35484, Note_on_c, 10, 69, 0
10, 35490, Note_on_c, 10, 67, 114
10, 35514, Note_on_c, 10, 67, 0
10, 35520, Note_on_c, 10, 65, 114
10, 35544, Note_on_c, 10, 65, 0
10, 35550, Note_on_c, 10, 64, 107
10, 35574, Note_on_c, 10, 64, 0
10, 35580, Note_on_c, 10, 62, 112
10, 35604, Note_on_c, 10, 62, 0
10, 35610, Note_on_c, 10, 60, 117
10, 35634, Note_on_c, 10, 60, 0
10, 35640, Note_on_c, 10, 59, 110
10, 35664, Note_on_c, 10, 59, 0
10, 35670, Note_on_c, 10, 60, 120
10, 35694, Note_on_c, 10, 60, 0
10, 35700, Note_on_c, 10, 62, 112
10, 35724, Note_on_c, 10, 62, 0
10, 35730, Note_on_c, 10, 64, 103
10, 35754, Note_on_c, 10, 64, 0
10, 35760, Note_on_c, 10, 65, 109
10, 35784, Note_on_c, 10, 65, 0
10, 35790, Note_on_c, 10, 64, 100
10, 35814, Note_on_c, 10, 64, 0
10, 35820, Note_on_c, 10, 67, 107
10, 35844, Note_on_c, 10, 67, 0
10, 35850, Note_on_c, 10, 65, 112
10, 35874, Note_on_c, 10, 65, 0
10, 35880, Note_on_c, 10, 64, 118
10, 35904, Note_on_c, 10, 64, 0
10, 35910, Note_on_c, 10, 62, 107
10, 35934, Note_on_c, 10, 62, 0
10, 35940, Note_on_c, 10, 60, 103
10, 35964, Note_on_c, 10, 60, 0
10, 35970, Note_on_c, 10, 59, 110
10, 35994, Note_on_c, 10, 59, 0
10, 36000, Note_on_c, 10, 59, 112
10, 36024, Note_on_c, 10, 59, 0
10, 36030, Note_on_c, 10, 60, 125
10, 36054, Note_on_c, 10, 60, 0
10, 36060, Note_on_c, 10, 62, 123
10, 36084, Note_on_c, 10, 62, 0
10, 36090, Note_on_c, 10, 64, 109
10, 36114, Note_on_c, 10, 64, 0
10, 36120, Note_on_c, 10, 65, 105
10, 36144, Note_on_c, 10, 65, 0
10, 36150, Note_on_c, 10, 64, 113
10, 36174, Note_on_c, 10, 64, 0
10, 36180, Note_on_c, 10, 67, 78
10, 36204, Note_on_c, 10, 67, 0
10, 36210, Note_on_c, 10, 65, 127
10, 36234, Note_on_c, 10, 65, 0
10, 36240, Note_on_c, 10, 64, 102
10, 36264, Note_on_c, 10, 64, 0
10, 36270, Note_on_c, 10, 62, 106
10, 36294, Note_on_c, 10, 62, 0
10, 36300, Note_on_c, 10, 60, 107
10, 36324, Note_on_c, 10, 60, 0
10, 36330, Note_on_c, 10, 59, 105
10, 36354, Note_on_c, 10, 59, 0
10, 36360, Note_on_c, 10, 60, 111
10, 36384, Note_on_c, 10, 60, 0
10, 36390, Note_on_c, 10, 62, 127
10, 36414, Note_on_c, 10, 62, 0
10, 36420, Note_on_c, 10, 64, 120
10, 36444, Note_on_c, 10, 64, 0
10, 36450, Note_on_c, 10, 65, 111
10, 36474, Note_on_c, 10, 65, 0
10, 36480, Note_on_c, 10, 67, 121
10, 36504, Note_on_c, 10, 67, 0
10, 36510, Note_on_c, 10, 66, 80
10, 36534, Note_on_c, 10, 66, 0
10, 36540, Note_on_c, 10, 69, 101
10, 36564, Note_on_c, 10, 69, 0
10, 36570, Note_on_c, 10, 67, 111
10, 36594, Note_on_c, 10, 67, 0
10, 36600, Note_on_c, 10, 65, 110
10, 36624, Note_on_c, 10, 65, 0
10, 36630, Note_on_c, 10, 64, 112
10, 36654, Note_on_c, 10, 64, 0
10, 36660, Note_on_c, 10, 62, 103
10, 36684, Note_on_c, 10, 62, 0
10, 36690, Note_on_c, 10, 60, 101
10, 36714, Note_on_c, 10, 60, 0
10, 36720, Note_on_c, 10, 60, 109
10, 36744, Note_on_c, 10, 60, 0
10, 36750, Note_on_c, 10, 62, 117
10, 36774, Note_on_c, 10, 62, 0
10, 36780, Note_on_c, 10, 64, 111
10, 36804, Note_on_c, 10, 64, 0
10, 36810, Note_on_c, 10, 65, 123
10, 36834, Note_on_c, 10, 65, 0
10, 36840, Note_on_c, 10, 67, 116
10, 36864, Note_on_c, 10, 67, 0
10, 36870, Note_on_c, 10, 66, 74
10, 36894, Note_on_c, 10, 66, 0
10, 36900, Note_on_c, 10, 69, 112
10, 36924, Note_on_c, 10, 69, 0
10, 36930, Note_on_c, 10, 67, 125
10, 36954, Note_on_c, 10, 67, 0
10, 36960, Note_on_c, 10, 65, 107
10, 36984, Note_on_c, 10, 65, 0
10, 36990, Note_on_c, 10, 64, 105
10, 37014, Note_on_c, 10, 64, 0
10, 37020, Note_on_c, 10, 62, 105
10, 37044, Note_on_c, 10, 62, 0
10, 37050, Note_on_c, 10, 60, 101
10, 37074, Note_on_c, 10, 60, 0
10, 37080, Note_on_c, 10, 59, 110
10, 37104, Note_on_c, 10, 59, 0
10, 37110, Note_on_c, 10, 60, 102
10, 37134, Note_on_c, 10, 60, 0
10, 37140, Note_on_c, 10, 62, 121
10, 37164, Note_on_c, 10, 62, 0
10, 37170, Note_on_c, 10, 64, 127
10, 37194, Note_on_c, 10, 64, 0
10, 37200, Note_on_c, 10, 65, 125
10, 37224, Note_on_c, 10, 65, 0
10, 37230, Note_on_c, 10, 64, 102
10, 37254, Note_on_c, 10, 64, 0
10, 37260, Note_on_c, 10, 67, 98
10, 37284, Note_on_c, 10, 67, 0
10, 37290, Note_on_c, 10, 65, 123
10, 37314, Note_on_c, 10, 65, 0
10, 37320, Note_on_c, 10, 64, 101
10, 37344, Note_on_c, 10, 64, 0
10, 37350, Note_on_c, 10, 62, 97
10, 37374, Note_on_c, 10, 62, 0
10, 37380, Note_on_c, 10, 60, 110
10, 37404, Note_on_c, 10, 60, 0
10, 37410, Note_on_c, 10, 59, 111
10, 37434, Note_on_c, 10, 59, 0
10, 37440, Note_on_c, 10, 59, 123
10, 37464, Note_on_c, 10, 59, 0
10, 37470, Note_on_c, 10, 60, 127
10, 37494, Note_on_c, 10, 60, 0
10, 37500, Note_on_c, 10, 62, 116
10, 37524, Note_on_c, 10, 62, 0
10, 37530, Note_on_c, 10, 64, 109
10, 37554, Note_on_c, 10, 64, 0
10, 37560, Note_on_c, 10, 65, 113
10, 37584, Note_on_c, 10, 65, 0
10, 37590, Note_on_c, 10, 64, 121
10, 37614, Note_on_c, 10, 64, 0
10, 37620, Note_on_c, 10, 67, 108
10, 37644, Note_on_c, 10, 67, 0
10, 37650, Note_on_c, 10, 65, 114
10, 37674, Note_on_c, 10, 65, 0
10, 37680, Note_on_c, 10, 64, 101
10, 37704, Note_on_c, 10, 64, 0
10, 37710, Note_on_c, 10, 62, 109
10, 37734, Note_on_c, 10, 62, 0
10, 37740, Note_on_c, 10, 60, 103
10, 37764, Note_on_c, 10, 60, 0
10, 37770, Note_on_c, 10, 59, 106
10, 37794, Note_on_c, 10, 59, 0
10, 37800, Note_on_c, 10, 60, 114
10, 37824, Note_on_c, 10, 60, 0
10, 37830, Note_on_c, 10, 62, 120
10, 37854, Note_on_c, 10, 62, 0
10, 37860, Note_on_c, 10, 64, 112
10, 37884, Note_on_c, 10, 64, 0
10, 37890, Note_on_c, 10, 65, 110
10, 37914, Note_on_c, 10, 65, 0
10, 37920, Note_on_c, 10, 67, 109
10, 37944, Note_on_c, 10, 67, 0
10, 37950, Note_on_c, 10, 66, 83
10, 37974, Note_on_c, 10, 66, 0
10, 37980, Note_on_c, 10, 69, 113
10, 38004, Note_on_c, 10, 69, 0
10, 38010, Note_on_c, 10, 67, 127
10, 38034, Note_on_c, 10, 67, 0
10, 38040, Note_on_c, 10, 65, 96
10, 38064, Note_on_c, 10, 65, 0
10, 38070, Note_on_c, 10, 64, 102
10, 38094, Note_on_c, 10, 64, 0
10, 38100, Note_on_c, 10, 62, 104
10, 38124, Note_on_c, 10, 62, 0
10, 38130, Note_on_c, 10, 60, 114
10, 38154, Note_on_c, 10, 60, 0
10, 38160, Note_on_c, 10, 60, 93
10, 38184, Note_on_c, 10, 60, 0
10, 38190, Note_on_c, 10, 62, 116
10, 38214, Note_on_c, 10, 62, 0
10, 38220, Note_on_c, 10, 64, 100
10, 38244, Note_on_c, 10, 64, 0
10, 38250, Note_on_c, 10, 65, 113
10, 38274, Note_on_c, 10, 65, 0
10, 38280, Note_on_c, 10, 67, 125
10, 38304, Note_on_c, 10, 67, 0
10, 38310, Note_on_c, 10, 66, 81
10, 38334, Note_on_c, 10, 66, 0
10, 38340, Note_on_c, 10, 69, 110
10, 38364, Note_on_c, 10, 69, 0
10, 38370, Note_on_c, 10, 67, 123
10, 38394, Note_on_c, 10, 67, 0
10, 38400, Note_on_c, 10, 65, 99
10, 38424, Note_on_c, 10, 65, 0
10, 38430, Note_on_c, 10, 64, 111
10, 38454, Note_on_c, 10, 64, 0
10, 38460, Note_on_c, 10, 62, 104
10, 38484, Note_on_c, 10, 62, 0
10, 38490, Note_on_c, 10, 60, 117
10, 38514, Note_on_c, 10, 60, 0
10, 38520, Note_on_c, 10, 60, 114
10, 38544, Note_on_c, 10, 60, 0
10, 38550, Note_on_c, 10, 62, 121
10, 38574, Note_on_c, 10, 62, 0
10, 38580, Note_on_c, 10, 64, 117
10, 38604, Note_on_c, 10, 64, 0
10, 38610, Note_on_c, 10, 65, 123
10, 38634, Note_on_c, 10, 65, 0
10, 38640, Note_on_c, 10, 67, 117
10, 38664, Note_on_c, 10, 67, 0
10, 38670, Note_on_c, 10, 66, 94
10, 38694, Note_on_c, 10, 66, 0
10, 38700, Note_on_c, 10, 69, 110
10, 38724, Note_on_c, 10, 69, 0
10, 38730, Note_on_c, 10, 67, 123
10, 38754, Note_on_c, 10, 67, 0
10, 38760, Note_on_c, 10, 65, 107
10, 38784, Note_on_c, 10, 65, 0
10, 38790, Note_on_c, 10, 64, 113
10, 38814, Note_on_c, 10, 64, 0
10, 38820, Note_on_c, 10, 62, 109
10, 38844, Note_on_c, 10, 62, 0
10, 38850, Note_on_c, 10, 60, 102
10, 38874, Note_on_c, 10, 60, 0
10, 38880, Note_on_c, 10, 60, 108
10, 38904, Note_on_c, 10, 60, 0
10, 38910, Note_on_c, 10, 62, 116
10, 38934, Note_on_c, 10, 62, 0
10, 38940, Note_on_c, 10, 64, 116
10, 38964, Note_on_c, 10, 64, 0
10, 38970, Note_on_c, 10, 65, 105
10, 38994, Note_on_c, 10, 65, 0
10, 39000, Note_on_c, 10, 67, 117
10, 39024, Note_on_c, 10, 67, 0
10, 39030, Note_on_c, 10, 66, 82
10, 39054, Note_on_c, 10, 66, 0
10, 39060, Note_on_c, 10, 69, 113
10, 39084, Note_on_c, 10, 69, 0
10, 39090, Note_on_c, 10, 67, 125
10, 39114, Note_on_c, 10, 67, 0
10, 39120, Note_on_c, 10, 65, 101
10, 39144, Note_on_c, 10, 65, 0
10, 39150, Note_on_c, 10, 64, 123
10, 39174, Note_on_c, 10, 64, 0
10, 39180, Note_on_c, 10, 62, 106
10, 39204, Note_on_c, 10, 62, 0
10, 39210, Note_on_c, 10, 60, 116
10, 39234, Note_on_c, 10, 60, 0
10, 40140, Note_on_c, 10, 69, 127
10, 40164, Note_on_c, 10, 69, 0
10, 40170, Note_on_c, 10, 67, 87
10, 40194, Note_on_c, 10, 67, 0
10, 40200, Note_on_c, 10, 65, 127
10, 40224, Note_on_c, 10, 65, 0
10, 40230, Note_on_c, 10, 64, 99
10, 40254, Note_on_c, 10, 64, 0
10, 40260, Note_on_c, 10, 62, 98
10, 40284, Note_on_c, 10, 62, 0
10, 40290, Note_on_c, 10, 60, 94
10, 40314, Note_on_c, 10, 60, 0
10, 40320, Note_on_c, 10, 69, 50
10, 40344, Note_on_c, 10, 69, 0
10, 40350, Note_on_c, 10, 67, 113
10, 40374, Note_on_c, 10, 67, 0
10, 40380, Note_on_c, 10, 65, 104
10, 40404, Note_on_c, 10, 65, 0
10, 40410, Note_on_c, 10, 64, 99
10, 40434, Note_on_c, 10, 64, 0
10, 40440, Note_on_c, 10, 62, 97
10, 40464, Note_on_c, 10, 62, 0
10, 40470, Note_on_c, 10, 60, 104
10, 40494, Note_on_c, 10, 60, 0
10, 40500, Note_on_c, 10, 69, 127
10, 40524, Note_on_c, 10, 69, 0
10, 40530, Note_on_c, 10, 67, 117
10, 40554, Note_on_c, 10, 67, 0
10, 40560, Note_on_c, 10, 65, 99
10, 40584, Note_on_c, 10, 65, 0
10, 40590, Note_on_c, 10, 64, 98
10, 40614, Note_on_c, 10, 64, 0
10, 40620, Note_on_c, 10, 62, 67
10, 40644, Note_on_c, 10, 62, 0
10, 40650, Note_on_c, 10, 60, 75
10, 40674, Note_on_c, 10, 60, 0
10, 40680, Note_on_c, 10, 69, 116
10, 40704, Note_on_c, 10, 69, 0
10, 40710, Note_on_c, 10, 67, 114
10, 40734, Note_on_c, 10, 67, 0
10, 40740, Note_on_c, 10, 65, 104
10, 40764, Note_on_c, 10, 65, 0
10, 40770, Note_on_c, 10, 64, 98
10, 40794, Note_on_c, 10, 64, 0
10, 40800, Note_on_c, 10, 62, 99
10, 40824, Note_on_c, 10, 62, 0
10, 40830, Note_on_c, 10, 60, 95
10, 40854, Note_on_c, 10, 60, 0
10, 40860, Note_on_c, 10, 72, 111
10, 40884, Note_on_c, 10, 72, 0
10, 40890, Note_on_c, 10, 70, 90
10, 40914, Note_on_c, 10, 70, 0
10, 40920, Note_on_c, 10, 69, 112
10, 40944, Note_on_c, 10, 69, 0
10, 40950, Note_on_c, 10, 67, 105
10, 40974, Note_on_c, 10, 67, 0
10, 40980, Note_on_c, 10, 65, 102
10, 41004, Note_on_c, 10, 65, 0
10, 41010, Note_on_c, 10, 64, 102
10, 41034, Note_on_c, 10, 64, 0
10, 44580, Note_on_c, 10, 60, 99
10, 44604, Note_on_c, 10, 60, 0
10, 44610, Note_on_c, 10, 65, 114
10, 44634, Note_on_c, 10, 65, 0
10, 44640, Note_on_c, 10, 69, 114
10, 44664, Note_on_c, 10, 69, 0
10, 44670, Note_on_c, 10, 70, 82
10, 44694, Note_on_c, 10, 70, 0
10, 44700, Note_on_c, 10, 69, 120
10, 44724, Note_on_c, 10, 69, 0
10, 44730, Note_on_c, 10, 67, 116
10, 44754, Note_on_c, 10, 67, 0
10, 44760, Note_on_c, 10, 65, 110
10, 44784, Note_on_c, 10, 65, 0
10, 44790, Note_on_c, 10, 64, 99
10, 44814, Note_on_c, 10, 64, 0
10, 44820, Note_on_c, 10, 65, 108
10, 44844, Note_on_c, 10, 65, 0
10, 44850, Note_on_c, 10, 67, 101
10, 44874, Note_on_c, 10, 67, 0
10, 44880, Note_on_c, 10, 69, 106
10, 44904, Note_on_c, 10, 69, 0
10, 44910, Note_on_c, 10, 70, 96
10, 44934, Note_on_c, 10, 70, 0
10, 44940, Note_on_c, 10, 72, 105
10, 44964, Note_on_c, 10, 72, 0
10, 44970, Note_on_c, 10, 70, 103
10, 44994, Note_on_c, 10, 70, 0
10, 45000, Note_on_c, 10, 69, 109
10, 45024, Note_on_c, 10, 69, 0
10, 45030, Note_on_c, 10, 70, 92
10, 45054, Note_on_c, 10, 70, 0
10, 45060, Note_on_c, 10, 69, 108
10, 45084, Note_on_c, 10, 69, 0
10, 45090, Note_on_c, 10, 67, 101
10, 45114, Note_on_c, 10, 67, 0
10, 45120, Note_on_c, 10, 65, 109
10, 45144, Note_on_c, 10, 65, 0
10, 45150, Note_on_c, 10, 64, 100
10, 45174, Note_on_c, 10, 64, 0
10, 45180, Note_on_c, 10, 65, 110
10, 45204, Note_on_c, 10, 65, 0
10, 45210, Note_on_c, 10, 64, 104
10, 45234, Note_on_c, 10, 64, 0
10, 45240, Note_on_c, 10, 65, 116
10, 45264, Note_on_c, 10, 65, 0
10, 45270, Note_on_c, 10, 60, 96
10, 45294, Note_on_c, 10, 60, 0
10, 45300, Note_on_c, 10, 62, 107
10, 45324, Note_on_c, 10, 62, 0
10, 45330, Note_on_c, 10, 64, 112
10, 45354, Note_on_c, 10, 64, 0
10, 45360, Note_on_c, 10, 65, 118
10, 45384, Note_on_c, 10, 65, 0
10, 45390, Note_on_c, 10, 67, 105
10, 45414, Note_on_c, 10, 67, 0
10, 45420, Note_on_c, 10, 65, 114
10, 45444, Note_on_c, 10, 65, 0
10, 45450, Note_on_c, 10, 64, 101
10, 45474, Note_on_c, 10, 64, 0
10, 45480, Note_on_c, 10, 65, 111
10, 45504, Note_on_c, 10, 65, 0
10, 45510, Note_on_c, 10, 67, 120
10, 45534, Note_on_c, 10, 67, 0
10, 45540, Note_on_c, 10, 69, 97
10, 45564, Note_on_c, 10, 69, 0
10, 45570, Note_on_c, 10, 70, 85
10, 45594, Note_on_c, 10, 70, 0
10, 45600, Note_on_c, 10, 72, 114
10, 45624, Note_on_c, 10, 72, 0
10, 45630, Note_on_c, 10, 71, 109
10, 45654, Note_on_c, 10, 71, 0
10, 45660, Note_on_c, 10, 72, 105
10, 45684, Note_on_c, 10, 72, 0
10, 45690, Note_on_c, 10, 69, 113
10, 45714, Note_on_c, 10, 69, 0
10, 45720, Note_on_c, 10, 70, 87
10, 45744, Note_on_c, 10, 70, 0
10, 45750, Note_on_c, 10, 72, 105
10, 45774, Note_on_c, 10, 72, 0
10, 45780, Note_on_c, 10, 74, 103
10, 45804, Note_on_c, 10, 74, 0
10, 45810, Note_on_c, 10, 72, 118
10, 45834, Note_on_c, 10, 72, 0
10, 45840, Note_on_c, 10, 70, 93
10, 45864, Note_on_c, 10, 70, 0
10, 45870, Note_on_c, 10, 72, 109
10, 45894, Note_on_c, 10, 72, 0
10, 45900, Note_on_c, 10, 70, 105
10, 45924, Note_on_c, 10, 70, 0
10, 45930, Note_on_c, 10, 72, 108
10, 45954, Note_on_c, 10, 72, 0
10, 45960, Note_on_c, 10, 70, 99
10, 45984, Note_on_c, 10, 70, 0
10, 45990, Note_on_c, 10, 69, 109
10, 46014, Note_on_c, 10, 69, 0
10, 46020, Note_on_c, 10, 67, 113
10, 46044, Note_on_c, 10, 67, 0
10, 46050, Note_on_c, 10, 69, 127
10, 46074, Note_on_c, 10, 69, 0
10, 46080, Note_on_c, 10, 70, 78
10, 46104, Note_on_c, 10, 70, 0
10, 46110, Note_on_c, 10, 72, 92
10, 46134, Note_on_c, 10, 72, 0
10, 46140, Note_on_c, 10, 70, 95
10, 46164, Note_on_c, 10, 70, 0
10, 46170, Note_on_c, 10, 69, 103
10, 46194, Note_on_c, 10, 69, 0
10, 46200, Note_on_c, 10, 67, 103
10, 46224, Note_on_c, 10, 67, 0
10, 46230, Note_on_c, 10, 66, 81
10, 46254, Note_on_c, 10, 66, 0
10, 46260, Note_on_c, 10, 67, 112
10, 46284, Note_on_c, 10, 67, 0
10, 46290, Note_on_c, 10, 69, 113
10, 46314, Note_on_c, 10, 69, 0
10, 46320, Note_on_c, 10, 70, 95
10, 46344, Note_on_c, 10, 70, 0
10, 46350, Note_on_c, 10, 71, 99
10, 46374, Note_on_c, 10, 71, 0
10, 46380, Note_on_c, 10, 72, 102
10, 46404, Note_on_c, 10, 72, 0
10, 46410, Note_on_c, 10, 70, 109
10, 46434, Note_on_c, 10, 70, 0
10, 46440, Note_on_c, 10, 69, 116
10, 46464, Note_on_c, 10, 69, 0
10, 46470, Note_on_c, 10, 70, 86
10, 46494, Note_on_c, 10, 70, 0
10, 46500, Note_on_c, 10, 69, 118
10, 46524, Note_on_c, 10, 69, 0
10, 46530, Note_on_c, 10, 67, 103
10, 46554, Note_on_c, 10, 67, 0
10, 46560, Note_on_c, 10, 69, 117
10, 46584, Note_on_c, 10, 69, 0
10, 46590, Note_on_c, 10, 67, 114
10, 46614, Note_on_c, 10, 67, 0
10, 46620, Note_on_c, 10, 65, 118
10, 46644, Note_on_c, 10, 65, 0
10, 46650, Note_on_c, 10, 67, 105
10, 46674, Note_on_c, 10, 67, 0
10, 46680, Note_on_c, 10, 65, 109
10, 46704, Note_on_c, 10, 65, 0
10, 46710, Note_on_c, 10, 64, 116
10, 46734, Note_on_c, 10, 64, 0
10, 46740, Note_on_c, 10, 65, 127
10, 46764, Note_on_c, 10, 65, 0
10, 46770, Note_on_c, 10, 69, 104
10, 46794, Note_on_c, 10, 69, 0
10, 46800, Note_on_c, 10, 69, 111
10, 46824, Note_on_c, 10, 69, 0
10, 46830, Note_on_c, 10, 67, 120
10, 46854, Note_on_c, 10, 67, 0
10, 46860, Note_on_c, 10, 65, 109
10, 46884, Note_on_c, 10, 65, 0
10, 46890, Note_on_c, 10, 67, 105
10, 46914, Note_on_c, 10, 67, 0
10, 46920, Note_on_c, 10, 62, 101
10, 46944, Note_on_c, 10, 62, 0
10, 46950, Note_on_c, 10, 67, 107
10, 46974, Note_on_c, 10, 67, 0
10, 46980, Note_on_c, 10, 65, 110
10, 47004, Note_on_c, 10, 65, 0
10, 47010, Note_on_c, 10, 64, 100
10, 47034, Note_on_c, 10, 64, 0
10, 47040, Note_on_c, 10, 62, 99
10, 47064, Note_on_c, 10, 62, 0
10, 47070, Note_on_c, 10, 64, 101
10, 47094, Note_on_c, 10, 64, 0
10, 47100, Note_on_c, 10, 60, 101
10, 47124, Note_on_c, 10, 60, 0
10, 47130, Note_on_c, 10, 64, 114
10, 47154, Note_on_c, 10, 64, 0
10, 47160, Note_on_c, 10, 60, 108
10, 47184, Note_on_c, 10, 60, 0
10, 47190, Note_on_c, 10, 65, 121
10, 47214, Note_on_c, 10, 65, 0
10, 47220, Note_on_c, 10, 60, 118
10, 47244, Note_on_c, 10, 60, 0
10, 47250, Note_on_c, 10, 58, 86
10, 47274, Note_on_c, 10, 58, 0
10, 47280, Note_on_c, 10, 57, 105
10, 47304, Note_on_c, 10, 57, 0
10, 47310, Note_on_c, 10, 58, 89
10, 47334, Note_on_c, 10, 58, 0
10, 47340, Note_on_c, 10, 60, 82
10, 47364, Note_on_c, 10, 60, 0
10, 47370, Note_on_c, 10, 62, 125
10, 47394, Note_on_c, 10, 62, 0
10, 47400, Note_on_c, 10, 64, 101
10, 47424, Note_on_c, 10, 64, 0
10, 47430, Note_on_c, 10, 65, 50
10, 47454, Note_on_c, 10, 65, 0
10, 47460, Note_on_c, 10, 67, 127
10, 47484, Note_on_c, 10, 67, 0
10, 47490, Note_on_c, 10, 69, 103
10, 47514, Note_on_c, 10, 69, 0
10, 47520, Note_on_c, 10, 81, 99
10, 47520, Note_on_c, 10, 72, 100
10, 47568, Note_on_c, 10, 72, 0
10, 47568, Note_on_c, 10, 81, 0
10, 47580, Note_on_c, 10, 72, 98
10, 47580, Note_on_c, 10, 81, 103
10, 47628, Note_on_c, 10, 81, 0
10, 47628, Note_on_c, 10, 72, 0
10, 47640, Note_on_c, 10, 72, 100
10, 47640, Note_on_c, 10, 81, 98
10, 47688, Note_on_c, 10, 81, 0
10, 47688, Note_on_c, 10, 72, 0
10, 47700, Note_on_c, 10, 81, 99
10, 47700, Note_on_c, 10, 72, 102
10, 47748, Note_on_c, 10, 72, 0
10, 47748, Note_on_c, 10, 81, 0
10, 47760, Note_on_c, 10, 81, 102
10, 47760, Note_on_c, 10, 72, 101
10, 47808, Note_on_c, 10, 72, 0
10, 47808, Note_on_c, 10, 81, 0
10, 47820, Note_on_c, 10, 81, 106
10, 47820, Note_on_c, 10, 72, 103
10, 47868, Note_on_c, 10, 72, 0
10, 47868, Note_on_c, 10, 81, 0
10, 47880, Note_on_c, 10, 81, 99
10, 47880, Note_on_c, 10, 72, 97
10, 47928, Note_on_c, 10, 72, 0
10, 47928, Note_on_c, 10, 81, 0
10, 47940, Note_on_c, 10, 72, 98
10, 47940, Note_on_c, 10, 81, 98
10, 47988, Note_on_c, 10, 81, 0
10, 47988, Note_on_c, 10, 72, 0
10, 48000, Note_on_c, 10, 81, 99
10, 48000, Note_on_c, 10, 72, 99
10, 48048, Note_on_c, 10, 72, 0
10, 48048, Note_on_c, 10, 81, 0
10, 48060, Note_on_c, 10, 72, 100
10, 48060, Note_on_c, 10, 81, 99
10, 48108, Note_on_c, 10, 81, 0
10, 48108, Note_on_c, 10, 72, 0
10, 48120, Note_on_c, 10, 72, 95
10, 48120, Note_on_c, 10, 81, 98
10, 48168, Note_on_c, 10, 81, 0
10, 48168, Note_on_c, 10, 72, 0
10, 48180, Note_on_c, 10, 81, 105
10, 48180, Note_on_c, 10, 72, 99
10, 48228, Note_on_c, 10, 72, 0
10, 48228, Note_on_c, 10, 81, 0
10, 48240, Note_on_c, 10, 81, 100
10, 48240, Note_on_c, 10, 72, 98
10, 48288, Note_on_c, 10, 72, 0
10, 48288, Note_on_c, 10, 81, 0
10, 48300, Note_on_c, 10, 81, 100
10, 48300, Note_on_c, 10, 72, 101
10, 48348, Note_on_c, 10, 72, 0
10, 48348, Note_on_c, 10, 81, 0
10, 48360, Note_on_c, 10, 81, 100
10, 48360, Note_on_c, 10, 72, 99
10, 48408, Note_on_c, 10, 72, 0
10, 48408, Note_on_c, 10, 81, 0
10, 48420, Note_on_c, 10, 81, 99
10, 48420, Note_on_c, 10, 72, 100
10, 48468, Note_on_c, 10, 72, 0
10, 48468, Note_on_c, 10, 81, 0
10, 48480, Note_on_c, 10, 81, 102
10, 48480, Note_on_c, 10, 72, 103
10, 48528, Note_on_c, 10, 72, 0
10, 48528, Note_on_c, 10, 81, 0
10, 48540, Note_on_c, 10, 72, 101
10, 48588, Note_on_c, 10, 72, 0
10, 48600, Note_on_c, 10, 74, 112
10, 48616, Note_on_c, 10, 74, 0
10, 48620, Note_on_c, 10, 82, 92
10, 48620, Note_on_c, 10, 74, 109
10, 48636, Note_on_c, 10, 74, 0
10, 48636, Note_on_c, 10, 82, 0
10, 48640, Note_on_c, 10, 82, 85
10, 48640, Note_on_c, 10, 74, 104
10, 48656, Note_on_c, 10, 74, 0
10, 48656, Note_on_c, 10, 82, 0
10, 48660, Note_on_c, 10, 74, 103
10, 48660, Note_on_c, 10, 82, 82
10, 48708, Note_on_c, 10, 82, 0
10, 48708, Note_on_c, 10, 74, 0
10, 48720, Note_on_c, 10, 82, 81
10, 48720, Note_on_c, 10, 74, 98
10, 48768, Note_on_c, 10, 74, 0
10, 48768, Note_on_c, 10, 82, 0
10, 48780, Note_on_c, 10, 82, 87
10, 48780, Note_on_c, 10, 74, 101
10, 48828, Note_on_c, 10, 74, 0
10, 48828, Note_on_c, 10, 82, 0
10, 48840, Note_on_c, 10, 82, 92
10, 48840, Note_on_c, 10, 74, 109
10, 48888, Note_on_c, 10, 74, 0
10, 48888, Note_on_c, 10, 82, 0
10, 48900, Note_on_c, 10, 74, 107
10, 48900, Note_on_c, 10, 82, 90
10, 48948, Note_on_c, 10, 82, 0
10, 48948, Note_on_c, 10, 74, 0
10, 48960, Note_on_c, 10, 72, 104
10, 48960, Note_on_c, 10, 82, 79
10, 49008, Note_on_c, 10, 82, 0
10, 49008, Note_on_c, 10, 72, 0
10, 49020, Note_on_c, 10, 72, 102
10, 49020, Note_on_c, 10, 82, 83
10, 49068, Note_on_c, 10, 82, 0
10, 49068, Note_on_c, 10, 72, 0
10, 49080, Note_on_c, 10, 82, 107
10, 49080, Note_on_c, 10, 72, 106
10, 49128, Note_on_c, 10, 72, 0
10, 49128, Note_on_c, 10, 82, 0
10, 49140, Note_on_c, 10, 82, 99
10, 49140, Note_on_c, 10, 72, 108
10, 49188, Note_on_c, 10, 72, 0
10, 49188, Note_on_c, 10, 82, 0
10, 49200, Note_on_c, 10, 82, 81
10, 49200, Note_on_c, 10, 72, 104
10, 49248, Note_on_c, 10, 72, 0
10, 49248, Note_on_c, 10, 82, 0
10, 49260, Note_on_c, 10, 76, 127
10, 49308, Note_on_c, 10, 76, 0
10, 49320, Note_on_c, 10, 81, 95
10, 49320, Note_on_c, 10, 69, 95
10, 49368, Note_on_c, 10, 69, 0
10, 49368, Note_on_c, 10, 81, 0
10, 49380, Note_on_c, 10, 81, 98
10, 49380, Note_on_c, 10, 69, 89
10, 49428, Note_on_c, 10, 69, 0
10, 49428, Note_on_c, 10, 81, 0
10, 49440, Note_on_c, 10, 69, 99
10, 49440, Note_on_c, 10, 81, 101
10, 49488, Note_on_c, 10, 81, 0
10, 49488, Note_on_c, 10, 69, 0
10, 49500, Note_on_c, 10, 81, 103
10, 49500, Note_on_c, 10, 69, 101
10, 49548, Note_on_c, 10, 69, 0
10, 49548, Note_on_c, 10, 81, 0
10, 49560, Note_on_c, 10, 81, 101
10, 49560, Note_on_c, 10, 69, 103
10, 49608, Note_on_c, 10, 69, 0
10, 49608, Note_on_c, 10, 81, 0
10, 49620, Note_on_c, 10, 81, 100
10, 49620, Note_on_c, 10, 69, 101
10, 49668, Note_on_c, 10, 69, 0
10, 49668, Note_on_c, 10, 81, 0
10, 49680, Note_on_c, 10, 77, 118
10, 49680, Note_on_c, 10, 74, 103
10, 49696, Note_on_c, 10, 74, 0
10, 49696, Note_on_c, 10, 77, 0
10, 49700, Note_on_c, 10, 79, 111
10, 49716, Note_on_c, 10, 79, 0
10, 49720, Note_on_c, 10, 79, 107
10, 49736, Note_on_c, 10, 79, 0
10, 49740, Note_on_c, 10, 79, 100
10, 49788, Note_on_c, 10, 79, 0
10, 49800, Note_on_c, 10, 79, 99
10, 49848, Note_on_c, 10, 79, 0
10, 49860, Note_on_c, 10, 70, 81
10, 49860, Note_on_c, 10, 79, 117
10, 49908, Note_on_c, 10, 79, 0
10, 49908, Note_on_c, 10, 70, 0
10, 49920, Note_on_c, 10, 79, 116
10, 49920, Note_on_c, 10, 70, 82
10, 49968, Note_on_c, 10, 70, 0
10, 49968, Note_on_c, 10, 79, 0
10, 49980, Note_on_c, 10, 79, 125
10, 49980, Note_on_c, 10, 70, 85
10, 50028, Note_on_c, 10, 70, 0
10, 50028, Note_on_c, 10, 79, 0
10, 50040, Note_on_c, 10, 77, 103
10, 50040, Note_on_c, 10, 69, 96
10, 50064, Note_on_c, 10, 69, 0
10, 50064, Note_on_c, 10, 77, 0
10, 50070, Note_on_c, 10, 60, 121
10, 50094, Note_on_c, 10, 60, 0
10, 50100, Note_on_c, 10, 65, 112
10, 50124, Note_on_c, 10, 65, 0
10, 50130, Note_on_c, 10, 60, 111
10, 50154, Note_on_c, 10, 60, 0
10, 50160, Note_on_c, 10, 57, 95
10, 50184, Note_on_c, 10, 57, 0
10, 50190, Note_on_c, 10, 60, 114
10, 50214, Note_on_c, 10, 60, 0
10, 50220, Note_on_c, 10, 58, 93
10, 50244, Note_on_c, 10, 58, 0
10, 50250, Note_on_c, 10, 60, 111
10, 50274, Note_on_c, 10, 60, 0
10, 50280, Note_on_c, 10, 64, 123
10, 50304, Note_on_c, 10, 64, 0
10, 50310, Note_on_c, 10, 60, 101
10, 50334, Note_on_c, 10, 60, 0
10, 50340, Note_on_c, 10, 58, 96
10, 50364, Note_on_c, 10, 58, 0
10, 50370, Note_on_c, 10, 60, 100
10, 50394, Note_on_c, 10, 60, 0
10, 50400, Note_on_c, 10, 57, 106
10, 50424, Note_on_c, 10, 57, 0
10, 50430, Note_on_c, 10, 60, 121
10, 50454, Note_on_c, 10, 60, 0
10, 50460, Note_on_c, 10, 65, 109
10, 50484, Note_on_c, 10, 65, 0
10, 50490, Note_on_c, 10, 60, 103
10, 50514, Note_on_c, 10, 60, 0
10, 50520, Note_on_c, 10, 57, 107
10, 50544, Note_on_c, 10, 57, 0
10, 50550, Note_on_c, 10, 60, 107
10, 50574, Note_on_c, 10, 60, 0
10, 50580, Note_on_c, 10, 55, 103
10, 50604, Note_on_c, 10, 55, 0
10, 50610, Note_on_c, 10, 60, 125
10, 50634, Note_on_c, 10, 60, 0
10, 50640, Note_on_c, 10, 64, 127
10, 50664, Note_on_c, 10, 64, 0
10, 50670, Note_on_c, 10, 60, 98
10, 50694, Note_on_c, 10, 60, 0
10, 50700, Note_on_c, 10, 64, 101
10, 50724, Note_on_c, 10, 64, 0
10, 50730, Note_on_c, 10, 67, 121
10, 50754, Note_on_c, 10, 67, 0
10, 50760, Note_on_c, 10, 69, 105
10, 50760, Note_on_c, 10, 60, 99
10, 50856, Note_on_c, 10, 60, 0
10, 50856, Note_on_c, 10, 69, 0
10, 51360, Note_on_c, 10, 58, 111
10, 51384, Note_on_c, 10, 58, 0
10, 51390, Note_on_c, 10, 60, 113
10, 51414, Note_on_c, 10, 60, 0
10, 51420, Note_on_c, 10, 58, 109
10, 51444, Note_on_c, 10, 58, 0
10, 51450, Note_on_c, 10, 60, 109
10, 51474, Note_on_c, 10, 60, 0
10, 51480, Note_on_c, 10, 57, 50
10, 51504, Note_on_c, 10, 57, 0
10, 51510, Note_on_c, 10, 60, 125
10, 51534, Note_on_c, 10, 60, 0
10, 51540, Note_on_c, 10, 65, 121
10, 51564, Note_on_c, 10, 65, 0
10, 51570, Note_on_c, 10, 60, 127
10, 51594, Note_on_c, 10, 60, 0
10, 51600, Note_on_c, 10, 57, 116
10, 51624, Note_on_c, 10, 57, 0
10, 51630, Note_on_c, 10, 60, 104
10, 51654, Note_on_c, 10, 60, 0
10, 51660, Note_on_c, 10, 58, 113
10, 51684, Note_on_c, 10, 58, 0
10, 51690, Note_on_c, 10, 60, 95
10, 51714, Note_on_c, 10, 60, 0
10, 51720, Note_on_c, 10, 64, 125
10, 51744, Note_on_c, 10, 64, 0
10, 51750, Note_on_c, 10, 60, 102
10, 51774, Note_on_c, 10, 60, 0
10, 51780, Note_on_c, 10, 58, 100
10, 51804, Note_on_c, 10, 58, 0
10, 51810, Note_on_c, 10, 60, 101
10, 51834, Note_on_c, 10, 60, 0
10, 51840, Note_on_c, 10, 57, 116
10, 51864, Note_on_c, 10, 57, 0
10, 51870, Note_on_c, 10, 60, 121
10, 51894, Note_on_c, 10, 60, 0
10, 51900, Note_on_c, 10, 65, 118
10, 51924, Note_on_c, 10, 65, 0
10, 51930, Note_on_c, 10, 57, 113
10, 51954, Note_on_c, 10, 57, 0
10, 51960, Note_on_c, 10, 65, 125
10, 51984, Note_on_c, 10, 65, 0
10, 51990, Note_on_c, 10, 57, 117
10, 52014, Note_on_c, 10, 57, 0
10, 52020, Note_on_c, 10, 65, 118
10, 52044, Note_on_c, 10, 65, 0
10, 52050, Note_on_c, 10, 59, 125
10, 52074, Note_on_c, 10, 59, 0
10, 52080, Note_on_c, 10, 65, 99
10, 52104, Note_on_c, 10, 65, 0
10, 52110, Note_on_c, 10, 59, 120
10, 52134, Note_on_c, 10, 59, 0
10, 52140, Note_on_c, 10, 65, 102
10, 52164, Note_on_c, 10, 65, 0
10, 52170, Note_on_c, 10, 59, 109
10, 52194, Note_on_c, 10, 59, 0
10, 52200, Note_on_c, 10, 65, 112
10, 52224, Note_on_c, 10, 65, 0
10, 52230, Note_on_c, 10, 60, 116
10, 52254, Note_on_c, 10, 60, 0
10, 52260, Note_on_c, 10, 65, 118
10, 52284, Note_on_c, 10, 65, 0
10, 52290, Note_on_c, 10, 60, 111
10, 52314, Note_on_c, 10, 60, 0
10, 52320, Note_on_c, 10, 65, 109
10, 52344, Note_on_c, 10, 65, 0
10, 52350, Note_on_c, 10, 60, 120
10, 52374, Note_on_c, 10, 60, 0
10, 52380, Note_on_c, 10, 65, 114
10, 52404, Note_on_c, 10, 65, 0
10, 52410, Note_on_c, 10, 62, 109
10, 52434, Note_on_c, 10, 62, 0
10, 52440, Note_on_c, 10, 67, 104
10, 52464, Note_on_c, 10, 67, 0
10, 52470, Note_on_c, 10, 62, 104
10, 52494, Note_on_c, 10, 62, 0
10, 52500, Note_on_c, 10, 67, 103
10, 52524, Note_on_c, 10, 67, 0
10, 52530, Note_on_c, 10, 62, 101
10, 52554, Note_on_c, 10, 62, 0
10, 52560, Note_on_c, 10, 67, 125
10, 52584, Note_on_c, 10, 67, 0
10, 52590, Note_on_c, 10, 64, 118
10, 52614, Note_on_c, 10, 64, 0
10, 52620, Note_on_c, 10, 67, 105
10, 52644, Note_on_c, 10, 67, 0
10, 52650, Note_on_c, 10, 64, 118
10, 52674, Note_on_c, 10, 64, 0
10, 52680, Note_on_c, 10, 67, 101
10, 52704, Note_on_c, 10, 67, 0
10, 52710, Note_on_c, 10, 64, 103
10, 52734, Note_on_c, 10, 64, 0
10, 52740, Note_on_c, 10, 67, 113
10, 52764, Note_on_c, 10, 67, 0
10, 52770, Note_on_c, 10, 65, 110
10, 52794, Note_on_c, 10, 65, 0
10, 52800, Note_on_c, 10, 67, 127
10, 52824, Note_on_c, 10, 67, 0
10, 52830, Note_on_c, 10, 65, 103
10, 52854, Note_on_c, 10, 65, 0
10, 52860, Note_on_c, 10, 67, 125
10, 52884, Note_on_c, 10, 67, 0
10, 52890, Note_on_c, 10, 65, 109
10, 52914, Note_on_c, 10, 65, 0
10, 52920, Note_on_c, 10, 67, 127
10, 52944, Note_on_c, 10, 67, 0
10, 52950, Note_on_c, 10, 55, 106
10, 52974, Note_on_c, 10, 55, 0
10, 52980, Note_on_c, 10, 60, 113
10, 53004, Note_on_c, 10, 60, 0
10, 53010, Note_on_c, 10, 55, 109
10, 53034, Note_on_c, 10, 55, 0
10, 53040, Note_on_c, 10, 60, 113
10, 53064, Note_on_c, 10, 60, 0
10, 53070, Note_on_c, 10, 55, 110
10, 53094, Note_on_c, 10, 55, 0
10, 53100, Note_on_c, 10, 60, 120
10, 53124, Note_on_c, 10, 60, 0
10, 53130, Note_on_c, 10, 57, 108
10, 53154, Note_on_c, 10, 57, 0
10, 53160, Note_on_c, 10, 60, 105
10, 53184, Note_on_c, 10, 60, 0
10, 53190, Note_on_c, 10, 57, 108
10, 53214, Note_on_c, 10, 57, 0
10, 53220, Note_on_c, 10, 60, 118
10, 53244, Note_on_c, 10, 60, 0
10, 53250, Note_on_c, 10, 57, 101
10, 53274, Note_on_c, 10, 57, 0
10, 53280, Note_on_c, 10, 60, 121
10, 53304, Note_on_c, 10, 60, 0
10, 53310, Note_on_c, 10, 58, 105
10, 53334, Note_on_c, 10, 58, 0
10, 53340, Note_on_c, 10, 64, 118
10, 53364, Note_on_c, 10, 64, 0
10, 53370, Note_on_c, 10, 55, 92
10, 53394, Note_on_c, 10, 55, 0
10, 53400, Note_on_c, 10, 64, 105
10, 53424, Note_on_c, 10, 64, 0
10, 53430, Note_on_c, 10, 55, 104
10, 53454, Note_on_c, 10, 55, 0
10, 53460, Note_on_c, 10, 65, 121
10, 53484, Note_on_c, 10, 65, 0
10, 53490, Note_on_c, 10, 56, 100
10, 53514, Note_on_c, 10, 56, 0
10, 53520, Note_on_c, 10, 65, 101
10, 53544, Note_on_c, 10, 65, 0
10, 53550, Note_on_c, 10, 56, 99
10, 53574, Note_on_c, 10, 56, 0
10, 53580, Note_on_c, 10, 65, 109
10, 53604, Note_on_c, 10, 65, 0
10, 53610, Note_on_c, 10, 56, 80
10, 53634, Note_on_c, 10, 56, 0
10, 53640, Note_on_c, 10, 65, 103
10, 53640, Note_on_c, 10, 57, 108
10, 53784, Note_on_c, 10, 57, 0
10, 53784, Note_on_c, 10, 65, 0
10, 53820, Note_on_c, 10, 74, 125
10, 53868, Note_on_c, 10, 74, 0
10, 53880, Note_on_c, 10, 72, 116
10, 53928, Note_on_c, 10, 72, 0
10, 53940, Note_on_c, 10, 69, 110
10, 53964, Note_on_c, 10, 69, 0
10, 53970, Note_on_c, 10, 65, 116
10, 53994, Note_on_c, 10, 65, 0
10, 54000, Note_on_c, 10, 77, 118
10, 54096, Note_on_c, 10, 77, 0
10, 54120, Note_on_c, 10, 77, 116
10, 54168, Note_on_c, 10, 77, 0
10, 54180, Note_on_c, 10, 77, 102
10, 54228, Note_on_c, 10, 77, 0
10, 54240, Note_on_c, 10, 77, 110
10, 54288, Note_on_c, 10, 77, 0
10, 54300, Note_on_c, 10, 77, 101
10, 54312, Note_on_c, 10, 77, 0
10, 54315, Note_on_c, 10, 79, 101
10, 54327, Note_on_c, 10, 79, 0
10, 54330, Note_on_c, 10, 77, 108
10, 54342, Note_on_c, 10, 77, 0
10, 54345, Note_on_c, 10, 79, 107
10, 54357, Note_on_c, 10, 79, 0
10, 54360, Note_on_c, 10, 76, 106
10, 54504, Note_on_c, 10, 76, 0
10, 54540, Note_on_c, 10, 72, 110
10, 54588, Note_on_c, 10, 72, 0
10, 54600, Note_on_c, 10, 70, 94
10, 54648, Note_on_c, 10, 70, 0
10, 54660, Note_on_c, 10, 67, 113
10, 54684, Note_on_c, 10, 67, 0
10, 54690, Note_on_c, 10, 64, 94
10, 54714, Note_on_c, 10, 64, 0
10, 55440, Note_on_c, 10, 77, 114
10, 55440, Note_on_c, 10, 69, 116
10, 55536, Note_on_c, 10, 69, 0
10, 55536, Note_on_c, 10, 77, 0
10, 55560, Note_on_c, 10, 77, 103
10, 55608, Note_on_c, 10, 77, 0
10, 55620, Note_on_c, 10, 77, 102
10, 55668, Note_on_c, 10, 77, 0
10, 55680, Note_on_c, 10, 77, 105
10, 55728, Note_on_c, 10, 77, 0
10, 55740, Note_on_c, 10, 77, 105
10, 55752, Note_on_c, 10, 77, 0
10, 55755, Note_on_c, 10, 79, 112
10, 55767, Note_on_c, 10, 79, 0
10, 55770, Note_on_c, 10, 77, 114
10, 55782, Note_on_c, 10, 77, 0
10, 55785, Note_on_c, 10, 79, 116
10, 55797, Note_on_c, 10, 79, 0
10, 55800, Note_on_c, 10, 76, 105
10, 55800, Note_on_c, 10, 67, 102
10, 55944, Note_on_c, 10, 67, 0
10, 55944, Note_on_c, 10, 76, 0
10, 55980, Note_on_c, 10, 72, 121
10, 56004, Note_on_c, 10, 72, 0
10, 56010, Note_on_c, 10, 70, 101
10, 56034, Note_on_c, 10, 70, 0
10, 56040, Note_on_c, 10, 69, 107
10, 56064, Note_on_c, 10, 69, 0
10, 56070, Note_on_c, 10, 70, 82
10, 56094, Note_on_c, 10, 70, 0
10, 56100, Note_on_c, 10, 67, 107
10, 56124, Note_on_c, 10, 67, 0
10, 56130, Note_on_c, 10, 64, 96
10, 56154, Note_on_c, 10, 64, 0
10, 56160, Note_on_c, 10, 76, 100
10, 56160, Note_on_c, 10, 67, 99
10, 56256, Note_on_c, 10, 67, 0
10, 56256, Note_on_c, 10, 76, 0
10, 56280, Note_on_c, 10, 76, 111
10, 56328, Note_on_c, 10, 76, 0
10, 56340, Note_on_c, 10, 76, 101
10, 56388, Note_on_c, 10, 76, 0
10, 56400, Note_on_c, 10, 76, 106
10, 56448, Note_on_c, 10, 76, 0
10, 56460, Note_on_c, 10, 76, 101
10, 56472, Note_on_c, 10, 76, 0
10, 56475, Note_on_c, 10, 77, 110
10, 56487, Note_on_c, 10, 77, 0
10, 56490, Note_on_c, 10, 76, 104
10, 56502, Note_on_c, 10, 76, 0
10, 56505, Note_on_c, 10, 77, 100
10, 56517, Note_on_c, 10, 77, 0
10, 56520, Note_on_c, 10, 77, 104
10, 56520, Note_on_c, 10, 69, 108
10, 56616, Note_on_c, 10, 69, 0
10, 56616, Note_on_c, 10, 77, 0
10, 56820, Note_on_c, 10, 65, 107
10, 56928, Note_on_c, 10, 65, 0
10, 56940, Note_on_c, 10, 70, 85
10, 56988, Note_on_c, 10, 70, 0
10, 57000, Note_on_c, 10, 69, 100
10, 57048, Note_on_c, 10, 69, 0
10, 57060, Note_on_c, 10, 67, 113
10, 57060, Note_on_c, 10, 70, 94
10, 57156, Note_on_c, 10, 70, 0
10, 57156, Note_on_c, 10, 67, 0
10, 57180, Note_on_c, 10, 67, 99
10, 57180, Note_on_c, 10, 70, 78
10, 57228, Note_on_c, 10, 70, 0
10, 57228, Note_on_c, 10, 67, 0
10, 57240, Note_on_c, 10, 65, 113
10, 57240, Note_on_c, 10, 69, 113
10, 57336, Note_on_c, 10, 69, 0
10, 57336, Note_on_c, 10, 65, 0
10, 57360, Note_on_c, 10, 57, 110
10, 57408, Note_on_c, 10, 57, 0
10, 57420, Note_on_c, 10, 58, 107
10, 57468, Note_on_c, 10, 58, 0
10, 57480, Note_on_c, 10, 57, 100
10, 57528, Note_on_c, 10, 57, 0
10, 57540, Note_on_c, 10, 62, 120
10, 57588, Note_on_c, 10, 62, 0
10, 57600, Note_on_c, 10, 60, 50
10, 57648, Note_on_c, 10, 60, 0
10, 57660, Note_on_c, 10, 70, 92
10, 57708, Note_on_c, 10, 70, 0
10, 57720, Note_on_c, 10, 69, 102
10, 57768, Note_on_c, 10, 69, 0
10, 57780, Note_on_c, 10, 76, 102
10, 57780, Note_on_c, 10, 67, 101
10, 57876, Note_on_c, 10, 67, 0
10, 57876, Note_on_c, 10, 76, 0
10, 57900, Note_on_c, 10, 76, 127
10, 57900, Note_on_c, 10, 67, 116
10, 57948, Note_on_c, 10, 67, 0
10, 57948, Note_on_c, 10, 76, 0
10, 57960, Note_on_c, 10, 77, 109
10, 57960, Note_on_c, 10, 69, 111
10, 58104, Note_on_c, 10, 69, 0
10, 58104, Note_on_c, 10, 77, 0
10, 58140, Note_on_c, 10, 65, 103
10, 58140, Note_on_c, 10, 69, 104
10, 58188, Note_on_c, 10, 69, 0
10, 58188, Note_on_c, 10, 65, 0
10, 58260, Note_on_c, 10, 69, 127
10, 58308, Note_on_c, 10, 69, 0
10, 58320, Note_on_c, 10, 70, 99
10, 58320, Note_on_c, 10, 62, 116
10, 58464, Note_on_c, 10, 70, 0
10, 58500, Note_on_c, 10, 74, 114
10, 58548, Note_on_c, 10, 74, 0
10, 58548, Note_on_c, 10, 62, 0
10, 58620, Note_on_c, 10, 62, 127
10, 58620, Note_on_c, 10, 74, 127
10, 58668, Note_on_c, 10, 74, 0
10, 58668, Note_on_c, 10, 62, 0
10, 58680, Note_on_c, 10, 65, 114
10, 58680, Note_on_c, 10, 69, 123
10, 58776, Note_on_c, 10, 69, 0
10, 58776, Note_on_c, 10, 65, 0
10, 59580, Note_on_c, 10, 57, 105
10, 59904, Note_on_c, 10, 57, 0
10, 59940, Note_on_c, 10, 59, 106
10, 60408, Note_on_c, 10, 59, 0
10, 60480, Note_on_c, 10, 59, 121
10, 60624, Note_on_c, 10, 59, 0
10, 60660, Note_on_c, 10, 55, 99
10, 60756, Note_on_c, 10, 55, 0
10, 60780, Note_on_c, 10, 62, 114
10, 60828, Note_on_c, 10, 62, 0
10, 60840, Note_on_c, 10, 59, 112
10, 60984, Note_on_c, 10, 59, 0
10, 61020, Note_on_c, 10, 55, 103
10, 61116, Note_on_c, 10, 55, 0
10, 61140, Note_on_c, 10, 65, 118
10, 61188, Note_on_c, 10, 65, 0
10, 61200, Note_on_c, 10, 62, 123
10, 61248, Note_on_c, 10, 62, 0
10, 61260, Note_on_c, 10, 59, 110
10, 61308, Note_on_c, 10, 59, 0
10, 61320, Note_on_c, 10, 71, 127
10, 61368, Note_on_c, 10, 71, 0
10, 61380, Note_on_c, 10, 65, 116
10, 61428, Note_on_c, 10, 65, 0
10, 61440, Note_on_c, 10, 62, 98
10, 61488, Note_on_c, 10, 62, 0
10, 61500, Note_on_c, 10, 74, 99
10, 61548, Note_on_c, 10, 74, 0
10, 61560, Note_on_c, 10, 71, 99
10, 61608, Note_on_c, 10, 71, 0
10, 61620, Note_on_c, 10, 67, 99
10, 61668, Note_on_c, 10, 67, 0
10, 61680, Note_on_c, 10, 77, 125
10, 61728, Note_on_c, 10, 77, 0
10, 61740, Note_on_c, 10, 74, 101
10, 61788, Note_on_c, 10, 74, 0
10, 61800, Note_on_c, 10, 71, 105
10, 61848, Note_on_c, 10, 71, 0
10, 61860, Note_on_c, 10, 79, 123
10, 61908, Note_on_c, 10, 79, 0
10, 61920, Note_on_c, 10, 79, 107
10, 61920, Note_on_c, 10, 70, 86
10, 62556, Note_on_c, 10, 70, 0
10, 62556, Note_on_c, 10, 79, 0
10, 62580, Note_on_c, 10, 64, 101
10, 62580, Note_on_c, 10, 55, 103
10, 62596, Note_on_c, 10, 55, 0
10, 62596, Note_on_c, 10, 64, 0
10, 62600, Note_on_c, 10, 55, 104
10, 62600, Note_on_c, 10, 64, 101
10, 62616, Note_on_c, 10, 64, 0
10, 62616, Note_on_c, 10, 55, 0
10, 62620, Note_on_c, 10, 64, 103
10, 62620, Note_on_c, 10, 55, 101
10, 62636, Note_on_c, 10, 55, 0
10, 62636, Note_on_c, 10, 64, 0
10, 62640, Note_on_c, 10, 64, 112
10, 62640, Note_on_c, 10, 55, 113
10, 62688, Note_on_c, 10, 55, 0
10, 62688, Note_on_c, 10, 64, 0
10, 62700, Note_on_c, 10, 64, 108
10, 62700, Note_on_c, 10, 55, 107
10, 62748, Note_on_c, 10, 55, 0
10, 62748, Note_on_c, 10, 64, 0
10, 62760, Note_on_c, 10, 64, 109
10, 62760, Note_on_c, 10, 55, 104
10, 62808, Note_on_c, 10, 55, 0
10, 62808, Note_on_c, 10, 64, 0
10, 62820, Note_on_c, 10, 64, 106
10, 62820, Note_on_c, 10, 55, 101
10, 62868, Note_on_c, 10, 55, 0
10, 62868, Note_on_c, 10, 64, 0
10, 62880, Note_on_c, 10, 64, 102
10, 62880, Note_on_c, 10, 55, 103
10, 62928, Note_on_c, 10, 55, 0
10, 62928, Note_on_c, 10, 64, 0
10, 62940, Note_on_c, 10, 64, 118
10, 62940, Note_on_c, 10, 55, 111
10, 62988, Note_on_c, 10, 55, 0
10, 62988, Note_on_c, 10, 64, 0
10, 63000, Note_on_c, 10, 64, 120
10, 63000, Note_on_c, 10, 55, 106
10, 63048, Note_on_c, 10, 55, 0
10, 63048, Note_on_c, 10, 64, 0
10, 63060, Note_on_c, 10, 64, 102
10, 63060, Note_on_c, 10, 55, 105
10, 63108, Note_on_c, 10, 55, 0
10, 63108, Note_on_c, 10, 64, 0
10, 63120, Note_on_c, 10, 64, 116
10, 63120, Note_on_c, 10, 55, 110
10, 63168, Note_on_c, 10, 55, 0
10, 63168, Note_on_c, 10, 64, 0
10, 63180, Note_on_c, 10, 64, 117
10, 63180, Note_on_c, 10, 55, 107
10, 63228, Note_on_c, 10, 55, 0
10, 63228, Note_on_c, 10, 64, 0
10, 63240, Note_on_c, 10, 64, 105
10, 63240, Note_on_c, 10, 55, 103
10, 63288, Note_on_c, 10, 55, 0
10, 63288, Note_on_c, 10, 64, 0
10, 63300, Note_on_c, 10, 55, 113
10, 63300, Note_on_c, 10, 64, 116
10, 63348, Note_on_c, 10, 64, 0
10, 63348, Note_on_c, 10, 55, 0
10, 63360, Note_on_c, 10, 65, 114
10, 63360, Note_on_c, 10, 57, 120
10, 63408, Note_on_c, 10, 57, 0
10, 63408, Note_on_c, 10, 65, 0
10, 65460, Note_on_c, 10, 60, 104
10, 65508, Note_on_c, 10, 60, 0
10, 65520, Note_on_c, 10, 66, 100
10, 65616, Note_on_c, 10, 66, 0
10, 65640, Note_on_c, 10, 69, 107
10, 65688, Note_on_c, 10, 69, 0
10, 65700, Note_on_c, 10, 72, 125
10, 65796, Note_on_c, 10, 72, 0
10, 65820, Note_on_c, 10, 69, 120
10, 65868, Note_on_c, 10, 69, 0
10, 65880, Note_on_c, 10, 70, 94
10, 66156, Note_on_c, 10, 70, 0
10, 66180, Note_on_c, 10, 60, 103
10, 66228, Note_on_c, 10, 60, 0
10, 66240, Note_on_c, 10, 64, 120
10, 66336, Note_on_c, 10, 64, 0
10, 66360, Note_on_c, 10, 67, 121
10, 66408, Note_on_c, 10, 67, 0
10, 66420, Note_on_c, 10, 70, 113
10, 66516, Note_on_c, 10, 70, 0
10, 66540, Note_on_c, 10, 67, 104
10, 66588, Note_on_c, 10, 67, 0
10, 66600, Note_on_c, 10, 69, 127
10, 66648, Note_on_c, 10, 69, 0
10, 66660, Note_on_c, 10, 84, 109
10, 66708, Note_on_c, 10, 84, 0
10, 66720, Note_on_c, 10, 84, 113
10, 66768, Note_on_c, 10, 84, 0
10, 66780, Note_on_c, 10, 84, 125
10, 66828, Note_on_c, 10, 84, 0
10, 66840, Note_on_c, 10, 81, 120
10, 66888, Note_on_c, 10, 81, 0
10, 66900, Note_on_c, 10, 81, 100
10, 66948, Note_on_c, 10, 81, 0
10, 66960, Note_on_c, 10, 81, 112
10, 67008, Note_on_c, 10, 81, 0
10, 67020, Note_on_c, 10, 78, 80
10, 67068, Note_on_c, 10, 78, 0
10, 67080, Note_on_c, 10, 78, 89
10, 67128, Note_on_c, 10, 78, 0
10, 67140, Note_on_c, 10, 78, 96
10, 67188, Note_on_c, 10, 78, 0
10, 67200, Note_on_c, 10, 74, 127
10, 67248, Note_on_c, 10, 74, 0
10, 67260, Note_on_c, 10, 74, 121
10, 67308, Note_on_c, 10, 74, 0
10, 67320, Note_on_c, 10, 74, 100
10, 67368, Note_on_c, 10, 74, 0
10, 67380, Note_on_c, 10, 82, 82
10, 67428, Note_on_c, 10, 82, 0
10, 67440, Note_on_c, 10, 82, 95
10, 67488, Note_on_c, 10, 82, 0
10, 67500, Note_on_c, 10, 82, 99
10, 67548, Note_on_c, 10, 82, 0
10, 67560, Note_on_c, 10, 79, 117
10, 67608, Note_on_c, 10, 79, 0
10, 67620, Note_on_c, 10, 79, 101
10, 67668, Note_on_c, 10, 79, 0
10, 67680, Note_on_c, 10, 79, 99
10, 67728, Note_on_c, 10, 79, 0
10, 67740, Note_on_c, 10, 76, 121
10, 67788, Note_on_c, 10, 76, 0
10, 67800, Note_on_c, 10, 76, 107
10, 67848, Note_on_c, 10, 76, 0
10, 67860, Note_on_c, 10, 76, 117
10, 67908, Note_on_c, 10, 76, 0
10, 67920, Note_on_c, 10, 72, 91
10, 67968, Note_on_c, 10, 72, 0
10, 67980, Note_on_c, 10, 76, 98
10, 68028, Note_on_c, 10, 76, 0
10, 68040, Note_on_c, 10, 77, 104
10, 68056, Note_on_c, 10, 77, 0
10, 68060, Note_on_c, 10, 77, 106
10, 68076, Note_on_c, 10, 77, 0
10, 68080, Note_on_c, 10, 77, 101
10, 68096, Note_on_c, 10, 77, 0
10, 68100, Note_on_c, 10, 77, 101
10, 68116, Note_on_c, 10, 77, 0
10, 68120, Note_on_c, 10, 77, 108
10, 68136, Note_on_c, 10, 77, 0
10, 68140, Note_on_c, 10, 77, 98
10, 68156, Note_on_c, 10, 77, 0
10, 68160, Note_on_c, 10, 81, 118
10, 68176, Note_on_c, 10, 81, 0
10, 68180, Note_on_c, 10, 81, 109
10, 68196, Note_on_c, 10, 81, 0
10, 68200, Note_on_c, 10, 81, 109
10, 68216, Note_on_c, 10, 81, 0
10, 68220, Note_on_c, 10, 81, 107
10, 68236, Note_on_c, 10, 81, 0
10, 68240, Note_on_c, 10, 81, 104
10, 68256, Note_on_c, 10, 81, 0
10, 68260, Note_on_c, 10, 81, 106
10, 68276, Note_on_c, 10, 81, 0
10, 68280, Note_on_c, 10, 81, 117
10, 68296, Note_on_c, 10, 81, 0
10, 68300, Note_on_c, 10, 81, 114
10, 68316, Note_on_c, 10, 81, 0
10, 68320, Note_on_c, 10, 81, 113
10, 68336, Note_on_c, 10, 81, 0
10, 68340, Note_on_c, 10, 81, 111
10, 68356, Note_on_c, 10, 81, 0
10, 68360, Note_on_c, 10, 81, 105
10, 68376, Note_on_c, 10, 81, 0
10, 68380, Note_on_c, 10, 81, 107
10, 68396, Note_on_c, 10, 81, 0
10, 68400, Note_on_c, 10, 81, 112
10, 68448, Note_on_c, 10, 81, 0
10, 68460, Note_on_c, 10, 81, 109
10, 68508, Note_on_c, 10, 81, 0
10, 68520, Note_on_c, 10, 81, 108
10, 68568, Note_on_c, 10, 81, 0
10, 68580, Note_on_c, 10, 81, 110
10, 68628, Note_on_c, 10, 81, 0
10, 68640, Note_on_c, 10, 81, 110
10, 68688, Note_on_c, 10, 81, 0
10, 68700, Note_on_c, 10, 81, 118
10, 68748, Note_on_c, 10, 81, 0
10, 68760, Note_on_c, 10, 77, 116
10, 68808, Note_on_c, 10, 77, 0
10, 68820, Note_on_c, 10, 77, 107
10, 68868, Note_on_c, 10, 77, 0
10, 68880, Note_on_c, 10, 77, 112
10, 68928, Note_on_c, 10, 77, 0
10, 68940, Note_on_c, 10, 81, 127
10, 68988, Note_on_c, 10, 81, 0
10, 69000, Note_on_c, 10, 81, 117
10, 69048, Note_on_c, 10, 81, 0
10, 69060, Note_on_c, 10, 81, 117
10, 69108, Note_on_c, 10, 81, 0
10, 69120, Note_on_c, 10, 81, 114
10, 69168, Note_on_c, 10, 81, 0
10, 69180, Note_on_c, 10, 81, 117
10, 69228, Note_on_c, 10, 81, 0
10, 69240, Note_on_c, 10, 81, 112
10, 69288, Note_on_c, 10, 81, 0
10, 69300, Note_on_c, 10, 81, 118
10, 69348, Note_on_c, 10, 81, 0
10, 69360, Note_on_c, 10, 81, 125
10, 69408, Note_on_c, 10, 81, 0
10, 69420, Note_on_c, 10, 81, 123
10, 69468, Note_on_c, 10, 81, 0
10, 69480, Note_on_c, 10, 74, 102
10, 69528, Note_on_c, 10, 74, 0
10, 69540, Note_on_c, 10, 74, 109
10, 69588, Note_on_c, 10, 74, 0
10, 69600, Note_on_c, 10, 83, 102
10, 69648, Note_on_c, 10, 83, 0
10, 69660, Note_on_c, 10, 86, 102
10, 69708, Note_on_c, 10, 86, 0
10, 69720, Note_on_c, 10, 86, 112
10, 69768, Note_on_c, 10, 86, 0
10, 69780, Note_on_c, 10, 86, 104
10, 69828, Note_on_c, 10, 86, 0
10, 69840, Note_on_c, 10, 86, 100
10, 69888, Note_on_c, 10, 86, 0
10, 69900, Note_on_c, 10, 86, 111
10, 69948, Note_on_c, 10, 86, 0
10, 69960, Note_on_c, 10, 86, 120
10, 70008, Note_on_c, 10, 86, 0
10, 70020, Note_on_c, 10, 86, 112
10, 70068, Note_on_c, 10, 86, 0
10, 70080, Note_on_c, 10, 86, 112
10, 70128, Note_on_c, 10, 86, 0
10, 70140, Note_on_c, 10, 86, 118
10, 70188, Note_on_c, 10, 86, 0
10, 70200, Note_on_c, 10, 65, 118
10, 70224, Note_on_c, 10, 65, 0
10, 70230, Note_on_c, 10, 62, 110
10, 70254, Note_on_c, 10, 62, 0
10, 70260, Note_on_c, 10, 65, 116
10, 70284, Note_on_c, 10, 65, 0
10, 70290, Note_on_c, 10, 62, 109
10, 70314, Note_on_c, 10, 62, 0
10, 70320, Note_on_c, 10, 65, 118
10, 70344, Note_on_c, 10, 65, 0
10, 70350, Note_on_c, 10, 62, 104
10, 70374, Note_on_c, 10, 62, 0
10, 70380, Note_on_c, 10, 65, 116
10, 70404, Note_on_c, 10, 65, 0
10, 70410, Note_on_c, 10, 62, 111
10, 70434, Note_on_c, 10, 62, 0
10, 70440, Note_on_c, 10, 65, 116
10, 70464, Note_on_c, 10, 65, 0
10, 70470, Note_on_c, 10, 62, 111
10, 70494, Note_on_c, 10, 62, 0
10, 70500, Note_on_c, 10, 65, 117
10, 70524, Note_on_c, 10, 65, 0
10, 70530, Note_on_c, 10, 62, 112
10, 70554, Note_on_c, 10, 62, 0
10, 70560, Note_on_c, 10, 65, 123
10, 70584, Note_on_c, 10, 65, 0
10, 70590, Note_on_c, 10, 62, 116
10, 70614, Note_on_c, 10, 62, 0
10, 70620, Note_on_c, 10, 65, 121
10, 70644, Note_on_c, 10, 65, 0
10, 70650, Note_on_c, 10, 62, 111
10, 70674, Note_on_c, 10, 62, 0
10, 70680, Note_on_c, 10, 65, 114
10, 70704, Note_on_c, 10, 65, 0
10, 70710, Note_on_c, 10, 62, 116
10, 70734, Note_on_c, 10, 62, 0
10, 70740, Note_on_c, 10, 65, 112
10, 70764, Note_on_c, 10, 65, 0
10, 70770, Note_on_c, 10, 62, 112
10, 70794, Note_on_c, 10, 62, 0
10, 70800, Note_on_c, 10, 65, 118
10, 70824, Note_on_c, 10, 65, 0
10, 70830, Note_on_c, 10, 62, 101
10, 70854, Note_on_c, 10, 62, 0
10, 70860, Note_on_c, 10, 65, 121
10, 70884, Note_on_c, 10, 65, 0
10, 70890, Note_on_c, 10, 62, 109
10, 70914, Note_on_c, 10, 62, 0
10, 70920, Note_on_c, 10, 65, 120
10, 70944, Note_on_c, 10, 65, 0
10, 70950, Note_on_c, 10, 62, 121
10, 70974, Note_on_c, 10, 62, 0
10, 70980, Note_on_c, 10, 65, 120
10, 71004, Note_on_c, 10, 65, 0
10, 71010, Note_on_c, 10, 62, 125
10, 71034, Note_on_c, 10, 62, 0
10, 71040, Note_on_c, 10, 65, 114
10, 71064, Note_on_c, 10, 65, 0
10, 71070, Note_on_c, 10, 62, 107
10, 71094, Note_on_c, 10, 62, 0
10, 71100, Note_on_c, 10, 65, 113
10, 71124, Note_on_c, 10, 65, 0
10, 71130, Note_on_c, 10, 62, 108
10, 71154, Note_on_c, 10, 62, 0
10, 71160, Note_on_c, 10, 65, 118
10, 71184, Note_on_c, 10, 65, 0
10, 71190, Note_on_c, 10, 62, 108
10, 71214, Note_on_c, 10, 62, 0
10, 71220, Note_on_c, 10, 65, 116
10, 71244, Note_on_c, 10, 65, 0
10, 71250, Note_on_c, 10, 62, 127
10, 71274, Note_on_c, 10, 62, 0
10, 71280, Note_on_c, 10, 65, 123
10, 71304, Note_on_c, 10, 65, 0
10, 71310, Note_on_c, 10, 62, 111
10, 71334, Note_on_c, 10, 62, 0
10, 71340, Note_on_c, 10, 65, 117
10, 71364, Note_on_c, 10, 65, 0
10, 71370, Note_on_c, 10, 62, 121
10, 71394, Note_on_c, 10, 62, 0
10, 71400, Note_on_c, 10, 65, 118
10, 71424, Note_on_c, 10, 65, 0
10, 71430, Note_on_c, 10, 62, 109
10, 71454, Note_on_c, 10, 62, 0
10, 71460, Note_on_c, 10, 65, 114
10, 71484, Note_on_c, 10, 65, 0
10, 71490, Note_on_c, 10, 62, 107
10, 71514, Note_on_c, 10, 62, 0
10, 71520, Note_on_c, 10, 65, 117
10, 71544, Note_on_c, 10, 65, 0
10, 71550, Note_on_c, 10, 62, 108
10, 71574, Note_on_c, 10, 62, 0
10, 71580, Note_on_c, 10, 65, 120
10, 71604, Note_on_c, 10, 65, 0
10, 71610, Note_on_c, 10, 62, 112
10, 71634, Note_on_c, 10, 62, 0
10, 71640, Note_on_c, 10, 64, 120
10, 71664, Note_on_c, 10, 64, 0
10, 71670, Note_on_c, 10, 60, 112
10, 71694, Note_on_c, 10, 60, 0
10, 71700, Note_on_c, 10, 64, 120
10, 71724, Note_on_c, 10, 64, 0
10, 71730, Note_on_c, 10, 60, 108
10, 71754, Note_on_c, 10, 60, 0
10, 71760, Note_on_c, 10, 64, 118
10, 71784, Note_on_c, 10, 64, 0
10, 71790, Note_on_c, 10, 60, 105
10, 71814, Note_on_c, 10, 60, 0
10, 71820, Note_on_c, 10, 64, 120
10, 71844, Note_on_c, 10, 64, 0
10, 71850, Note_on_c, 10, 60, 112
10, 71874, Note_on_c, 10, 60, 0
10, 71880, Note_on_c, 10, 64, 114
10, 71904, Note_on_c, 10, 64, 0
10, 71910, Note_on_c, 10, 60, 105
10, 71934, Note_on_c, 10, 60, 0
10, 71940, Note_on_c, 10, 64, 123
10, 71964, Note_on_c, 10, 64, 0
10, 71970, Note_on_c, 10, 60, 117
10, 71994, Note_on_c, 10, 60, 0
10, 72000, Note_on_c, 10, 64, 127
10, 72024, Note_on_c, 10, 64, 0
10, 72030, Note_on_c, 10, 60, 113
10, 72054, Note_on_c, 10, 60, 0
10, 72060, Note_on_c, 10, 64, 116
10, 72084, Note_on_c, 10, 64, 0
10, 72090, Note_on_c, 10, 60, 111
10, 72114, Note_on_c, 10, 60, 0
10, 72120, Note_on_c, 10, 64, 112
10, 72144, Note_on_c, 10, 64, 0
10, 72150, Note_on_c, 10, 60, 108
10, 72174, Note_on_c, 10, 60, 0
10, 72180, Note_on_c, 10, 64, 117
10, 72204, Note_on_c, 10, 64, 0
10, 72210, Note_on_c, 10, 60, 109
10, 72234, Note_on_c, 10, 60, 0
10, 72240, Note_on_c, 10, 64, 120
10, 72264, Note_on_c, 10, 64, 0
10, 72270, Note_on_c, 10, 60, 110
10, 72294, Note_on_c, 10, 60, 0
10, 72300, Note_on_c, 10, 64, 120
10, 72324, Note_on_c, 10, 64, 0
10, 72330, Note_on_c, 10, 60, 112
10, 72354, Note_on_c, 10, 60, 0
10, 72360, Note_on_c, 10, 64, 112
10, 72384, Note_on_c, 10, 64, 0
10, 72390, Note_on_c, 10, 58, 115
10, 72414, Note_on_c, 10, 58, 0
10, 72420, Note_on_c, 10, 64, 121
10, 72444, Note_on_c, 10, 64, 0
10, 72450, Note_on_c, 10, 58, 103
10, 72474, Note_on_c, 10, 58, 0
10, 72480, Note_on_c, 10, 64, 127
10, 72504, Note_on_c, 10, 64, 0
10, 72510, Note_on_c, 10, 58, 100
10, 72534, Note_on_c, 10, 58, 0
10, 72540, Note_on_c, 10, 64, 127
10, 72564, Note_on_c, 10, 64, 0
10, 72570, Note_on_c, 10, 58, 105
10, 72594, Note_on_c, 10, 58, 0
10, 72600, Note_on_c, 10, 64, 123
10, 72624, Note_on_c, 10, 64, 0
10, 72630, Note_on_c, 10, 58, 100
10, 72654, Note_on_c, 10, 58, 0
10, 72660, Note_on_c, 10, 64, 109
10, 72684, Note_on_c, 10, 64, 0
10, 72690, Note_on_c, 10, 58, 101
10, 72714, Note_on_c, 10, 58, 0
10, 72720, Note_on_c, 10, 64, 127
10, 72744, Note_on_c, 10, 64, 0
10, 72750, Note_on_c, 10, 58, 101
10, 72774, Note_on_c, 10, 58, 0
10, 72780, Note_on_c, 10, 64, 123
10, 72804, Note_on_c, 10, 64, 0
10, 72810, Note_on_c, 10, 58, 101
10, 72834, Note_on_c, 10, 58, 0
10, 72840, Note_on_c, 10, 64, 120
10, 72864, Note_on_c, 10, 64, 0
10, 72870, Note_on_c, 10, 58, 109
10, 72894, Note_on_c, 10, 58, 0
10, 72900, Note_on_c, 10, 64, 111
10, 72924, Note_on_c, 10, 64, 0
10, 72930, Note_on_c, 10, 58, 86
10, 72954, Note_on_c, 10, 58, 0
10, 72960, Note_on_c, 10, 64, 103
10, 72984, Note_on_c, 10, 64, 0
10, 72990, Note_on_c, 10, 58, 101
10, 73014, Note_on_c, 10, 58, 0
10, 73020, Note_on_c, 10, 64, 101
10, 73020, Note_on_c, 10, 55, 98
10, 73036, Note_on_c, 10, 55, 0
10, 73036, Note_on_c, 10, 64, 0
10, 73040, Note_on_c, 10, 64, 105
10, 73040, Note_on_c, 10, 55, 101
10, 73056, Note_on_c, 10, 55, 0
10, 73056, Note_on_c, 10, 64, 0
10, 73060, Note_on_c, 10, 64, 107
10, 73060, Note_on_c, 10, 55, 103
10, 73076, Note_on_c, 10, 55, 0
10, 73076, Note_on_c, 10, 64, 0
10, 73080, Note_on_c, 10, 64, 99
10, 73080, Note_on_c, 10, 55, 98
10, 73128, Note_on_c, 10, 55, 0
10, 73128, Note_on_c, 10, 64, 0
10, 73140, Note_on_c, 10, 64, 106
10, 73140, Note_on_c, 10, 55, 103
10, 73188, Note_on_c, 10, 55, 0
10, 73188, Note_on_c, 10, 64, 0
10, 73200, Note_on_c, 10, 64, 103
10, 73200, Note_on_c, 10, 55, 100
10, 73248, Note_on_c, 10, 55, 0
10, 73248, Note_on_c, 10, 64, 0
10, 73260, Note_on_c, 10, 64, 104
10, 73260, Note_on_c, 10, 55, 103
10, 73308, Note_on_c, 10, 55, 0
10, 73308, Note_on_c, 10, 64, 0
10, 73320, Note_on_c, 10, 55, 102
10, 73320, Note_on_c, 10, 64, 103
10, 73368, Note_on_c, 10, 64, 0
10, 73368, Note_on_c, 10, 55, 0
10, 73380, Note_on_c, 10, 64, 102
10, 73380, Note_on_c, 10, 55, 101
10, 73428, Note_on_c, 10, 55, 0
10, 73428, Note_on_c, 10, 64, 0
10, 73440, Note_on_c, 10, 64, 100
10, 73440, Note_on_c, 10, 55, 95
10, 73488, Note_on_c, 10, 55, 0
10, 73488, Note_on_c, 10, 64, 0
10, 73500, Note_on_c, 10, 55, 98
10, 73500, Note_on_c, 10, 64, 101
10, 73548, Note_on_c, 10, 64, 0
10, 73548, Note_on_c, 10, 55, 0
10, 73560, Note_on_c, 10, 55, 100
10, 73560, Note_on_c, 10, 64, 102
10, 73608, Note_on_c, 10, 64, 0
10, 73608, Note_on_c, 10, 55, 0
10, 73620, Note_on_c, 10, 64, 99
10, 73620, Note_on_c, 10, 55, 103
10, 73668, Note_on_c, 10, 55, 0
10, 73668, Note_on_c, 10, 64, 0
10, 73680, Note_on_c, 10, 64, 101
10, 73680, Note_on_c, 10, 55, 103
10, 73728, Note_on_c, 10, 55, 0
10, 73728, Note_on_c, 10, 64, 0
10, 73740, Note_on_c, 10, 64, 100
10, 73740, Note_on_c, 10, 55, 104
10, 73788, Note_on_c, 10, 55, 0
10, 73788, Note_on_c, 10, 64, 0
10, 73800, Note_on_c, 10, 65, 105
10, 73800, Note_on_c, 10, 57, 104
10, 73896, Note_on_c, 10, 57, 0
10, 73896, Note_on_c, 10, 65, 0
10, 75870, Note_on_c, 10, 60, 116
10, 75894, Note_on_c, 10, 60, 0
10, 75900, Note_on_c, 10, 62, 127
10, 75924, Note_on_c, 10, 62, 0
10, 75930, Note_on_c, 10, 64, 123
10, 75954, Note_on_c, 10, 64, 0
10, 75960, Note_on_c, 10, 66, 97
10, 75984, Note_on_c, 10, 66, 0
10, 75990, Note_on_c, 10, 67, 114
10, 76014, Note_on_c, 10, 67, 0
10, 76020, Note_on_c, 10, 66, 99
10, 76044, Note_on_c, 10, 66, 0
10, 76050, Note_on_c, 10, 64, 109
10, 76074, Note_on_c, 10, 64, 0
10, 76080, Note_on_c, 10, 66, 93
10, 76104, Note_on_c, 10, 66, 0
10, 76110, Note_on_c, 10, 67, 99
10, 76134, Note_on_c, 10, 67, 0
10, 76140, Note_on_c, 10, 69, 111
10, 76164, Note_on_c, 10, 69, 0
10, 76170, Note_on_c, 10, 70, 91
10, 76194, Note_on_c, 10, 70, 0
10, 76200, Note_on_c, 10, 72, 111
10, 76224, Note_on_c, 10, 72, 0
10, 76230, Note_on_c, 10, 70, 94
10, 76254, Note_on_c, 10, 70, 0
10, 76260, Note_on_c, 10, 72, 102
10, 76284, Note_on_c, 10, 72, 0
10, 76290, Note_on_c, 10, 69, 118
10, 76314, Note_on_c, 10, 69, 0
10, 76320, Note_on_c, 10, 70, 109
10, 76344, Note_on_c, 10, 70, 0
10, 76350, Note_on_c, 10, 72, 118
10, 76374, Note_on_c, 10, 72, 0
10, 76380, Note_on_c, 10, 70, 94
10, 76404, Note_on_c, 10, 70, 0
10, 76410, Note_on_c, 10, 69, 110
10, 76434, Note_on_c, 10, 69, 0
10, 76440, Note_on_c, 10, 70, 93
10, 76464, Note_on_c, 10, 70, 0
10, 76470, Note_on_c, 10, 69, 109
10, 76494, Note_on_c, 10, 69, 0
10, 76500, Note_on_c, 10, 67, 118
10, 76524, Note_on_c, 10, 67, 0
10, 76530, Note_on_c, 10, 69, 109
10, 76554, Note_on_c, 10, 69, 0
10, 76560, Note_on_c, 10, 67, 107
10, 76584, Note_on_c, 10, 67, 0
10, 76590, Note_on_c, 10, 65, 110
10, 76614, Note_on_c, 10, 65, 0
10, 76620, Note_on_c, 10, 67, 109
10, 76644, Note_on_c, 10, 67, 0
10, 76650, Note_on_c, 10, 65, 116
10, 76674, Note_on_c, 10, 65, 0
10, 76680, Note_on_c, 10, 64, 102
10, 76704, Note_on_c, 10, 64, 0
10, 76710, Note_on_c, 10, 65, 118
10, 76734, Note_on_c, 10, 65, 0
10, 76740, Note_on_c, 10, 64, 108
10, 76764, Note_on_c, 10, 64, 0
10, 76770, Note_on_c, 10, 62, 120
10, 76794, Note_on_c, 10, 62, 0
10, 76800, Note_on_c, 10, 64, 116
10, 76824, Note_on_c, 10, 64, 0
10, 76830, Note_on_c, 10, 65, 110
10, 76854, Note_on_c, 10, 65, 0
10, 76860, Note_on_c, 10, 67, 118
10, 76884, Note_on_c, 10, 67, 0
10, 76890, Note_on_c, 10, 69, 114
10, 76914, Note_on_c, 10, 69, 0
10, 76920, Note_on_c, 10, 70, 91
10, 76944, Note_on_c, 10, 70, 0
10, 76950, Note_on_c, 10, 69, 109
10, 76974, Note_on_c, 10, 69, 0
10, 76980, Note_on_c, 10, 70, 101
10, 77004, Note_on_c, 10, 70, 0
10, 77010, Note_on_c, 10, 67, 127
10, 77034, Note_on_c, 10, 67, 0
10, 77040, Note_on_c, 10, 69, 95
10, 77064, Note_on_c, 10, 69, 0
10, 77070, Note_on_c, 10, 70, 103
10, 77094, Note_on_c, 10, 70, 0
10, 77100, Note_on_c, 10, 72, 113
10, 77124, Note_on_c, 10, 72, 0
10, 77130, Note_on_c, 10, 70, 97
10, 77154, Note_on_c, 10, 70, 0
10, 77160, Note_on_c, 10, 69, 114
10, 77184, Note_on_c, 10, 69, 0
10, 77190, Note_on_c, 10, 67, 117
10, 77214, Note_on_c, 10, 67, 0
10, 77220, Note_on_c, 10, 66, 90
10, 77244, Note_on_c, 10, 66, 0
10, 77250, Note_on_c, 10, 67, 112
10, 77274, Note_on_c, 10, 67, 0
10, 77280, Note_on_c, 10, 69, 121
10, 77304, Note_on_c, 10, 69, 0
10, 77310, Note_on_c, 10, 67, 103
10, 77334, Note_on_c, 10, 67, 0
10, 77340, Note_on_c, 10, 66, 82
10, 77364, Note_on_c, 10, 66, 0
10, 77370, Note_on_c, 10, 64, 99
10, 77394, Note_on_c, 10, 64, 0
10, 77400, Note_on_c, 10, 62, 101
10, 77424, Note_on_c, 10, 62, 0
10, 77430, Note_on_c, 10, 64, 110
10, 77454, Note_on_c, 10, 64, 0
10, 77460, Note_on_c, 10, 62, 111
10, 77484, Note_on_c, 10, 62, 0
10, 77490, Note_on_c, 10, 61, 90
10, 77514, Note_on_c, 10, 61, 0
10, 77520, Note_on_c, 10, 62, 104
10, 77544, Note_on_c, 10, 62, 0
10, 77550, Note_on_c, 10, 64, 116
10, 77574, Note_on_c, 10, 64, 0
10, 77580, Note_on_c, 10, 66, 90
10, 77604, Note_on_c, 10, 66, 0
10, 77610, Note_on_c, 10, 67, 113
10, 77634, Note_on_c, 10, 67, 0
10, 77640, Note_on_c, 10, 69, 125
10, 77664, Note_on_c, 10, 69, 0
10, 77670, Note_on_c, 10, 67, 107
10, 77694, Note_on_c, 10, 67, 0
10, 77700, Note_on_c, 10, 69, 107
10, 77724, Note_on_c, 10, 69, 0
10, 77730, Note_on_c, 10, 66, 88
10, 77754, Note_on_c, 10, 66, 0
10, 77760, Note_on_c, 10, 67, 107
10, 77784, Note_on_c, 10, 67, 0
10, 77790, Note_on_c, 10, 66, 100
10, 77814, Note_on_c, 10, 66, 0
10, 77820, Note_on_c, 10, 67, 113
10, 77844, Note_on_c, 10, 67, 0
10, 77850, Note_on_c, 10, 69, 116
10, 77874, Note_on_c, 10, 69, 0
10, 77880, Note_on_c, 10, 67, 108
10, 77904, Note_on_c, 10, 67, 0
10, 77910, Note_on_c, 10, 69, 121
10, 77934, Note_on_c, 10, 69, 0
10, 77940, Note_on_c, 10, 70, 94
10, 77964, Note_on_c, 10, 70, 0
10, 77970, Note_on_c, 10, 69, 107
10, 77994, Note_on_c, 10, 69, 0
10, 78000, Note_on_c, 10, 70, 107
10, 78024, Note_on_c, 10, 70, 0
10, 78030, Note_on_c, 10, 71, 105
10, 78054, Note_on_c, 10, 71, 0
10, 78060, Note_on_c, 10, 69, 104
10, 78084, Note_on_c, 10, 69, 0
10, 78090, Note_on_c, 10, 71, 107
10, 78114, Note_on_c, 10, 71, 0
10, 78120, Note_on_c, 10, 72, 121
10, 78144, Note_on_c, 10, 72, 0
10, 78150, Note_on_c, 10, 74, 113
10, 78174, Note_on_c, 10, 74, 0
10, 78180, Note_on_c, 10, 72, 106
10, 78204, Note_on_c, 10, 72, 0
10, 78210, Note_on_c, 10, 71, 109
10, 78234, Note_on_c, 10, 71, 0
10, 78240, Note_on_c, 10, 72, 127
10, 78264, Note_on_c, 10, 72, 0
10, 78270, Note_on_c, 10, 74, 116
10, 78294, Note_on_c, 10, 74, 0
10, 78300, Note_on_c, 10, 76, 98
10, 78324, Note_on_c, 10, 76, 0
10, 78330, Note_on_c, 10, 77, 102
10, 78354, Note_on_c, 10, 77, 0
10, 78360, Note_on_c, 10, 79, 120
10, 78384, Note_on_c, 10, 79, 0
10, 78390, Note_on_c, 10, 76, 106
10, 78414, Note_on_c, 10, 76, 0
10, 78420, Note_on_c, 10, 77, 127
10, 78444, Note_on_c, 10, 77, 0
10, 78450, Note_on_c, 10, 79, 101
10, 78474, Note_on_c, 10, 79, 0
10, 78480, Note_on_c, 10, 81, 107
10, 78528, Note_on_c, 10, 81, 0
10, 78540, Note_on_c, 10, 81, 105
10, 78588, Note_on_c, 10, 81, 0
10, 78600, Note_on_c, 10, 81, 102
10, 78648, Note_on_c, 10, 81, 0
10, 78660, Note_on_c, 10, 81, 106
10, 78708, Note_on_c, 10, 81, 0
10, 78720, Note_on_c, 10, 81, 104
10, 78768, Note_on_c, 10, 81, 0
10, 78780, Note_on_c, 10, 81, 107
10, 78828, Note_on_c, 10, 81, 0
10, 78840, Note_on_c, 10, 81, 111
10, 78888, Note_on_c, 10, 81, 0
10, 78900, Note_on_c, 10, 81, 108
10, 78948, Note_on_c, 10, 81, 0
10, 78960, Note_on_c, 10, 81, 105
10, 79008, Note_on_c, 10, 81, 0
10, 79020, Note_on_c, 10, 81, 110
10, 79068, Note_on_c, 10, 81, 0
10, 79080, Note_on_c, 10, 81, 108
10, 79128, Note_on_c, 10, 81, 0
10, 79140, Note_on_c, 10, 81, 105
10, 79188, Note_on_c, 10, 81, 0
10, 79200, Note_on_c, 10, 81, 118
10, 79248, Note_on_c, 10, 81, 0
10, 79260, Note_on_c, 10, 81, 110
10, 79308, Note_on_c, 10, 81, 0
10, 79320, Note_on_c, 10, 81, 106
10, 79368, Note_on_c, 10, 81, 0
10, 79380, Note_on_c, 10, 81, 116
10, 79428, Note_on_c, 10, 81, 0
10, 79440, Note_on_c, 10, 81, 108
10, 79488, Note_on_c, 10, 81, 0
10, 79500, Note_on_c, 10, 81, 113
10, 79548, Note_on_c, 10, 81, 0
10, 79560, Note_on_c, 10, 81, 116
10, 79608, Note_on_c, 10, 81, 0
10, 79620, Note_on_c, 10, 81, 105
10, 79668, Note_on_c, 10, 81, 0
10, 79680, Note_on_c, 10, 81, 105
10, 79728, Note_on_c, 10, 81, 0
10, 79740, Note_on_c, 10, 81, 112
10, 79788, Note_on_c, 10, 81, 0
10, 79800, Note_on_c, 10, 81, 104
10, 79848, Note_on_c, 10, 81, 0
10, 79860, Note_on_c, 10, 81, 121
10, 79908, Note_on_c, 10, 81, 0
10, 79920, Note_on_c, 10, 83, 107
10, 79968, Note_on_c, 10, 83, 0
10, 79980, Note_on_c, 10, 83, 102
10, 80028, Note_on_c, 10, 83, 0
10, 80040, Note_on_c, 10, 83, 104
10, 80088, Note_on_c, 10, 83, 0
10, 80100, Note_on_c, 10, 83, 109
10, 80148, Note_on_c, 10, 83, 0
10, 80160, Note_on_c, 10, 83, 101
10, 80208, Note_on_c, 10, 83, 0
10, 80220, Note_on_c, 10, 83, 109
10, 80268, Note_on_c, 10, 83, 0
10, 80280, Note_on_c, 10, 83, 111
10, 80328, Note_on_c, 10, 83, 0
10, 80340, Note_on_c, 10, 83, 104
10, 80388, Note_on_c, 10, 83, 0
10, 80400, Note_on_c, 10, 83, 105
10, 80448, Note_on_c, 10, 83, 0
10, 80460, Note_on_c, 10, 83, 107
10, 80508, Note_on_c, 10, 83, 0
10, 80520, Note_on_c, 10, 83, 110
10, 80568, Note_on_c, 10, 83, 0
10, 80580, Note_on_c, 10, 83, 98
10, 80628, Note_on_c, 10, 83, 0
10, 80640, Note_on_c, 10, 82, 95
10, 80688, Note_on_c, 10, 82, 0
10, 80700, Note_on_c, 10, 82, 85
10, 80748, Note_on_c, 10, 82, 0
10, 80760, Note_on_c, 10, 82, 88
10, 80808, Note_on_c, 10, 82, 0
10, 80820, Note_on_c, 10, 82, 93
10, 80868, Note_on_c, 10, 82, 0
10, 80880, Note_on_c, 10, 82, 88
10, 80928, Note_on_c, 10, 82, 0
10, 80940, Note_on_c, 10, 82, 95
10, 80988, Note_on_c, 10, 82, 0
10, 81000, Note_on_c, 10, 82, 115
10, 81048, Note_on_c, 10, 82, 0
10, 81060, Note_on_c, 10, 82, 95
10, 81108, Note_on_c, 10, 82, 0
10, 81120, Note_on_c, 10, 82, 91
10, 81168, Note_on_c, 10, 82, 0
10, 81180, Note_on_c, 10, 82, 96
10, 81228, Note_on_c, 10, 82, 0
10, 81240, Note_on_c, 10, 82, 100
10, 81288, Note_on_c, 10, 82, 0
10, 81300, Note_on_c, 10, 82, 111
10, 81348, Note_on_c, 10, 82, 0
10, 81360, Note_on_c, 10, 81, 110
10, 81408, Note_on_c, 10, 81, 0
10, 81420, Note_on_c, 10, 81, 103
10, 81468, Note_on_c, 10, 81, 0
10, 81480, Note_on_c, 10, 81, 103
10, 81528, Note_on_c, 10, 81, 0
10, 81540, Note_on_c, 10, 81, 105
10, 81588, Note_on_c, 10, 81, 0
10, 81600, Note_on_c, 10, 81, 101
10, 81648, Note_on_c, 10, 81, 0
10, 81660, Note_on_c, 10, 81, 109
10, 81708, Note_on_c, 10, 81, 0
10, 81720, Note_on_c, 10, 81, 116
10, 81768, Note_on_c, 10, 81, 0
10, 81780, Note_on_c, 10, 81, 109
10, 81828, Note_on_c, 10, 81, 0
10, 81840, Note_on_c, 10, 81, 100
10, 81888, Note_on_c, 10, 81, 0
10, 81900, Note_on_c, 10, 81, 109
10, 81948, Note_on_c, 10, 81, 0
10, 81960, Note_on_c, 10, 81, 109
10, 82008, Note_on_c, 10, 81, 0
10, 82020, Note_on_c, 10, 81, 117
10, 82068, Note_on_c, 10, 81, 0
10, 82080, Note_on_c, 10, 82, 109
10, 82128, Note_on_c, 10, 82, 0
10, 82140, Note_on_c, 10, 82, 93
10, 82188, Note_on_c, 10, 82, 0
10, 82200, Note_on_c, 10, 82, 96
10, 82248, Note_on_c, 10, 82, 0
10, 82260, Note_on_c, 10, 82, 107
10, 82308, Note_on_c, 10, 82, 0
10, 82320, Note_on_c, 10, 82, 115
10, 82368, Note_on_c, 10, 82, 0
10, 82380, Note_on_c, 10, 82, 101
10, 82428, Note_on_c, 10, 82, 0
10, 82440, Note_on_c, 10, 77, 106
10, 82488, Note_on_c, 10, 77, 0
10, 82500, Note_on_c, 10, 77, 104
10, 82548, Note_on_c, 10, 77, 0
10, 82560, Note_on_c, 10, 77, 107
10, 82608, Note_on_c, 10, 77, 0
10, 82620, Note_on_c, 10, 77, 113
10, 82668, Note_on_c, 10, 77, 0
10, 82680, Note_on_c, 10, 77, 111
10, 82728, Note_on_c, 10, 77, 0
10, 82740, Note_on_c, 10, 77, 104
10, 82788, Note_on_c, 10, 77, 0
10, 82800, Note_on_c, 10, 76, 127
10, 82848, Note_on_c, 10, 76, 0
10, 82860, Note_on_c, 10, 76, 105
10, 82908, Note_on_c, 10, 76, 0
10, 82920, Note_on_c, 10, 76, 116
10, 82968, Note_on_c, 10, 76, 0
10, 82980, Note_on_c, 10, 76, 107
10, 83028, Note_on_c, 10, 76, 0
10, 83040, Note_on_c, 10, 76, 104
10, 83088, Note_on_c, 10, 76, 0
10, 83100, Note_on_c, 10, 76, 127
10, 83148, Note_on_c, 10, 76, 0
10, 83160, Note_on_c, 10, 70, 97
10, 83208, Note_on_c, 10, 70, 0
10, 83220, Note_on_c, 10, 70, 99
10, 83268, Note_on_c, 10, 70, 0
10, 83280, Note_on_c, 10, 70, 100
10, 83328, Note_on_c, 10, 70, 0
10, 83340, Note_on_c, 10, 70, 99
10, 83388, Note_on_c, 10, 70, 0
10, 83400, Note_on_c, 10, 70, 93
10, 83448, Note_on_c, 10, 70, 0
10, 83460, Note_on_c, 10, 70, 97
10, 83508, Note_on_c, 10, 70, 0
10, 83520, Note_on_c, 10, 70, 100
10, 83568, Note_on_c, 10, 70, 0
10, 83580, Note_on_c, 10, 70, 107
10, 83628, Note_on_c, 10, 70, 0
10, 83640, Note_on_c, 10, 70, 97
10, 83688, Note_on_c, 10, 70, 0
10, 83700, Note_on_c, 10, 67, 125
10, 83748, Note_on_c, 10, 67, 0
10, 83760, Note_on_c, 10, 67, 112
10, 83808, Note_on_c, 10, 67, 0
10, 83820, Note_on_c, 10, 67, 117
10, 83868, Note_on_c, 10, 67, 0
10, 83880, Note_on_c, 10, 67, 113
10, 83928, Note_on_c, 10, 67, 0
10, 83940, Note_on_c, 10, 67, 105
10, 83988, Note_on_c, 10, 67, 0
10, 84000, Note_on_c, 10, 67, 107
10, 84048, Note_on_c, 10, 67, 0
10, 84060, Note_on_c, 10, 64, 107
10, 84108, Note_on_c, 10, 64, 0
10, 84120, Note_on_c, 10, 64, 118
10, 84168, Note_on_c, 10, 64, 0
10, 84180, Note_on_c, 10, 64, 120
10, 84228, Note_on_c, 10, 64, 0
10, 84240, Note_on_c, 10, 64, 107
10, 84288, Note_on_c, 10, 64, 0
10, 84300, Note_on_c, 10, 64, 112
10, 84348, Note_on_c, 10, 64, 0
10, 84360, Note_on_c, 10, 64, 102
10, 84408, Note_on_c, 10, 64, 0
10, 84420, Note_on_c, 10, 60, 117
10, 84468, Note_on_c, 10, 60, 0
10, 84480, Note_on_c, 10, 60, 107
10, 84528, Note_on_c, 10, 60, 0
10, 84540, Note_on_c, 10, 60, 127
10, 84588, Note_on_c, 10, 60, 0
10, 84600, Note_on_c, 10, 60, 50
10, 84648, Note_on_c, 10, 60, 0
10, 84660, Note_on_c, 10, 60, 101
10, 84708, Note_on_c, 10, 60, 0
10, 84720, Note_on_c, 10, 60, 105
10, 84768, Note_on_c, 10, 60, 0
10, 84780, Note_on_c, 10, 58, 105
10, 84828, Note_on_c, 10, 58, 0
10, 84840, Note_on_c, 10, 58, 95
10, 84888, Note_on_c, 10, 58, 0
10, 84900, Note_on_c, 10, 58, 107
10, 84948, Note_on_c, 10, 58, 0
10, 84960, Note_on_c, 10, 57, 109
10, 85236, Note_on_c, 10, 57, 0
10, 85260, Note_on_c, 10, 65, 105
10, 85308, Note_on_c, 10, 65, 0
10, 85320, Note_on_c, 10, 64, 111
10, 85608, Note_on_c, 10, 64, 0
10, 85680, Note_on_c, 10, 64, 107
10, 85956, Note_on_c, 10, 64, 0
10, 85980, Note_on_c, 10, 67, 123
10, 86028, Note_on_c, 10, 67, 0
10, 86040, Note_on_c, 10, 65, 116
10, 86328, Note_on_c, 10, 65, 0
10, 86400, Note_on_c, 10, 65, 127
10, 86544, Note_on_c, 10, 65, 0
10, 86580, Note_on_c, 10, 65, 117
10, 86676, Note_on_c, 10, 65, 0
10, 86700, Note_on_c, 10, 65, 108
10, 86748, Note_on_c, 10, 65, 0
10, 86760, Note_on_c, 10, 65, 116
10, 87048, Note_on_c, 10, 65, 0
10, 87120, Note_on_c, 10, 64, 118
10, 87408, Note_on_c, 10, 64, 0
10, 87480, Note_on_c, 10, 65, 117
10, 87576, Note_on_c, 10, 65, 0
10, 87840, Note_on_c, 10, 77, 105
10, 87840, Note_on_c, 10, 69, 106
10, 87984, Note_on_c, 10, 69, 0
10, 87984, Note_on_c, 10, 77, 0
10, 88020, Note_on_c, 10, 77, 127
10, 88020, Note_on_c, 10, 70, 111
10, 88068, Note_on_c, 10, 70, 0
10, 88068, Note_on_c, 10, 77, 0
10, 88140, Note_on_c, 10, 77, 118
10, 88140, Note_on_c, 10, 72, 127
10, 88188, Note_on_c, 10, 72, 0
10, 88188, Note_on_c, 10, 77, 0
10, 88200, Note_on_c, 10, 77, 100
10, 88200, Note_on_c, 10, 74, 103
10, 88476, Note_on_c, 10, 74, 0
10, 88476, Note_on_c, 10, 77, 0
10, 89220, Note_on_c, 10, 65, 107
10, 89220, Note_on_c, 10, 60, 114
10, 89268, Note_on_c, 10, 60, 0
10, 89268, Note_on_c, 10, 65, 0
10, 89280, Note_on_c, 10, 60, 107
10, 89280, Note_on_c, 10, 64, 105
10, 89556, Note_on_c, 10, 64, 0
10, 89556, Note_on_c, 10, 60, 0
10, 89580, Note_on_c, 10, 60, 109
10, 89580, Note_on_c, 10, 64, 109
10, 89628, Note_on_c, 10, 64, 0
10, 89628, Note_on_c, 10, 60, 0
10, 89640, Note_on_c, 10, 65, 105
10, 89640, Note_on_c, 10, 60, 103
10, 89752, Note_on_c, 10, 60, 0
10, 89752, Note_on_c, 10, 65, 0
10, 90660, Note_on_c, 10, 65, 100
10, 90660, Note_on_c, 10, 60, 99
10, 90708, Note_on_c, 10, 60, 0
10, 90708, Note_on_c, 10, 65, 0
10, 90720, Note_on_c, 10, 60, 101
10, 90720, Note_on_c, 10, 64, 103
10, 90996, Note_on_c, 10, 64, 0
10, 90996, Note_on_c, 10, 60, 0
10, 91020, Note_on_c, 10, 60, 109
10, 91020, Note_on_c, 10, 64, 106
10, 91068, Note_on_c, 10, 64, 0
10, 91068, Note_on_c, 10, 60, 0
10, 91080, Note_on_c, 10, 67, 111
10, 91080, Note_on_c, 10, 70, 89
10, 92448, Note_on_c, 10, 70, 0
10, 92448, Note_on_c, 10, 67, 0
10, 92520, Note_on_c, 10, 65, 99
10, 92520, Note_on_c, 10, 69, 106
10, 92808, Note_on_c, 10, 69, 0
10, 92808, Note_on_c, 10, 65, 0
10, 92880, Note_on_c, 10, 69, 109
10, 92880, Note_on_c, 10, 65, 104
10, 93168, Note_on_c, 10, 65, 0
10, 93168, Note_on_c, 10, 69, 0
10, 93240, Note_on_c, 10, 65, 102
10, 93240, Note_on_c, 10, 69, 105
10, 93336, Note_on_c, 10, 69, 0
10, 93336, Note_on_c, 10, 65, 0
10, 93600, Note_on_c, 10, 65, 127
10, 93624, Note_on_c, 10, 65, 0
10, 93630, Note_on_c, 10, 67, 125
10, 93654, Note_on_c, 10, 67, 0
10, 93660, Note_on_c, 10, 69, 114
10, 93684, Note_on_c, 10, 69, 0
10, 93690, Note_on_c, 10, 70, 109
10, 93714, Note_on_c, 10, 70, 0
10, 93720, Note_on_c, 10, 72, 112
10, 93744, Note_on_c, 10, 72, 0
10, 93750, Note_on_c, 10, 71, 110
10, 93774, Note_on_c, 10, 71, 0
10, 93780, Note_on_c, 10, 74, 121
10, 93804, Note_on_c, 10, 74, 0
10, 93810, Note_on_c, 10, 72, 121
10, 93834, Note_on_c, 10, 72, 0
10, 93840, Note_on_c, 10, 70, 82
10, 93864, Note_on_c, 10, 70, 0
10, 93870, Note_on_c, 10, 69, 103
10, 93894, Note_on_c, 10, 69, 0
10, 93900, Note_on_c, 10, 67, 106
10, 93924, Note_on_c, 10, 67, 0
10, 93930, Note_on_c, 10, 65, 111
10, 93954, Note_on_c, 10, 65, 0
10, 94620, Note_on_c, 10, 77, 100
10, 94620, Note_on_c, 10, 72, 111
10, 94620, Note_on_c, 10, 65, 101
10, 94668, Note_on_c, 10, 65, 0
10, 94668, Note_on_c, 10, 72, 0
10, 94668, Note_on_c, 10, 77, 0
10, 94680, Note_on_c, 10, 65, 100
10, 94680, Note_on_c, 10, 57, 100
10, 94776, Note_on_c, 10, 57, 0
10, 94776, Note_on_c, 10, 65, 0
10, 94776, End_track
11, 0, Start_track
11, 0, MIDI_port, 0
11, 0, Title_t, "Viola"
11, 0, Program_c, 10, 48
11, 0, Control_c, 10, 7, 80
11, 0, Note_on_c, 10, 55, 102
11, 0, Note_on_c, 10, 48, 105
11, 288, Note_on_c, 10, 48, 0
11, 288, Note_on_c, 10, 55, 0
11, 360, Note_on_c, 10, 48, 114
11, 360, Note_on_c, 10, 55, 114
11, 648, Note_on_c, 10, 55, 0
11, 648, Note_on_c, 10, 48, 0
11, 720, Note_on_c, 10, 48, 114
11, 720, Note_on_c, 10, 55, 107
11, 2664, Note_on_c, 10, 55, 0
11, 2664, Note_on_c, 10, 48, 0
11, 2700, Note_on_c, 10, 48, 108
11, 2700, Note_on_c, 10, 57, 108
11, 2844, Note_on_c, 10, 57, 0
11, 2844, Note_on_c, 10, 48, 0
11, 2880, Note_on_c, 10, 48, 108
11, 2880, Note_on_c, 10, 57, 108
11, 2928, Note_on_c, 10, 57, 0
11, 2928, Note_on_c, 10, 48, 0
11, 2940, Note_on_c, 10, 60, 123
11, 3888, Note_on_c, 10, 60, 0
11, 3960, Note_on_c, 10, 62, 111
11, 4236, Note_on_c, 10, 62, 0
11, 4260, Note_on_c, 10, 60, 103
11, 4308, Note_on_c, 10, 60, 0
11, 4320, Note_on_c, 10, 60, 109
11, 4824, Note_on_c, 10, 60, 0
11, 4860, Note_on_c, 10, 62, 104
11, 5184, Note_on_c, 10, 62, 0
11, 5220, Note_on_c, 10, 55, 107
11, 5316, Note_on_c, 10, 55, 0
11, 5340, Note_on_c, 10, 60, 102
11, 5388, Note_on_c, 10, 60, 0
11, 5400, Note_on_c, 10, 60, 116
11, 5688, Note_on_c, 10, 60, 0
11, 5702, Control_c, 10, 7, 90
11, 6720, Control_c, 10, 7, 90
11, 6750, Control_c, 10, 7, 91
11, 6780, Control_c, 10, 7, 92
11, 6810, Control_c, 10, 7, 93
11, 6838, Control_c, 10, 7, 94
11, 6868, Control_c, 10, 7, 95
11, 6898, Control_c, 10, 7, 96
11, 6926, Control_c, 10, 7, 97
11, 6956, Control_c, 10, 7, 98
11, 6986, Control_c, 10, 7, 99
11, 7016, Control_c, 10, 7, 100
11, 7044, Control_c, 10, 7, 101
11, 7074, Control_c, 10, 7, 102
11, 7104, Control_c, 10, 7, 103
11, 7132, Control_c, 10, 7, 104
11, 7162, Control_c, 10, 7, 105
11, 7192, Control_c, 10, 7, 106
11, 7222, Control_c, 10, 7, 107
11, 7250, Control_c, 10, 7, 108
11, 7280, Control_c, 10, 7, 109
11, 7310, Control_c, 10, 7, 110
11, 7338, Control_c, 10, 7, 111
11, 7368, Control_c, 10, 7, 112
11, 7398, Control_c, 10, 7, 113
11, 7428, Control_c, 10, 7, 114
11, 7456, Control_c, 10, 7, 115
11, 7486, Control_c, 10, 7, 116
11, 7516, Control_c, 10, 7, 117
11, 7544, Control_c, 10, 7, 118
11, 7574, Control_c, 10, 7, 119
11, 7604, Control_c, 10, 7, 120
11, 7634, Control_c, 10, 7, 121
11, 7662, Control_c, 10, 7, 122
11, 7692, Control_c, 10, 7, 123
11, 7722, Control_c, 10, 7, 124
11, 7750, Control_c, 10, 7, 125
11, 8340, Note_on_c, 10, 57, 101
11, 8340, Note_on_c, 10, 53, 107
11, 8388, Note_on_c, 10, 53, 0
11, 8388, Note_on_c, 10, 57, 0
11, 8400, Note_on_c, 10, 53, 116
11, 8400, Note_on_c, 10, 57, 127
11, 8448, Note_on_c, 10, 57, 0
11, 8448, Note_on_c, 10, 53, 0
11, 8460, Note_on_c, 10, 57, 127
11, 8460, Note_on_c, 10, 53, 109
11, 8508, Note_on_c, 10, 53, 0
11, 8508, Note_on_c, 10, 57, 0
11, 8520, Note_on_c, 10, 53, 111
11, 8520, Note_on_c, 10, 57, 121
11, 8568, Note_on_c, 10, 57, 0
11, 8568, Note_on_c, 10, 53, 0
11, 8580, Note_on_c, 10, 57, 121
11, 8580, Note_on_c, 10, 53, 120
11, 8628, Note_on_c, 10, 53, 0
11, 8628, Note_on_c, 10, 57, 0
11, 8640, Note_on_c, 10, 57, 127
11, 8784, Note_on_c, 10, 57, 0
11, 8820, Note_on_c, 10, 53, 127
11, 8916, Note_on_c, 10, 53, 0
11, 8940, Note_on_c, 10, 60, 111
11, 8988, Note_on_c, 10, 60, 0
11, 9000, Note_on_c, 10, 57, 127
11, 9144, Note_on_c, 10, 57, 0
11, 9180, Note_on_c, 10, 53, 127
11, 9276, Note_on_c, 10, 53, 0
11, 9300, Note_on_c, 10, 48, 118
11, 9348, Note_on_c, 10, 48, 0
11, 9360, Note_on_c, 10, 53, 117
11, 9456, Note_on_c, 10, 53, 0
11, 9480, Note_on_c, 10, 57, 113
11, 9528, Note_on_c, 10, 57, 0
11, 9540, Note_on_c, 10, 60, 123
11, 9636, Note_on_c, 10, 60, 0
11, 9660, Note_on_c, 10, 57, 97
11, 9708, Note_on_c, 10, 57, 0
11, 9720, Note_on_c, 10, 58, 94
11, 9864, Note_on_c, 10, 58, 0
11, 9900, Note_on_c, 10, 58, 95
11, 9996, Note_on_c, 10, 58, 0
11, 10020, Note_on_c, 10, 55, 113
11, 10068, Note_on_c, 10, 55, 0
11, 10080, Note_on_c, 10, 58, 111
11, 10224, Note_on_c, 10, 58, 0
11, 10260, Note_on_c, 10, 55, 112
11, 10356, Note_on_c, 10, 55, 0
11, 10380, Note_on_c, 10, 60, 100
11, 10428, Note_on_c, 10, 60, 0
11, 10440, Note_on_c, 10, 57, 116
11, 10584, Note_on_c, 10, 57, 0
11, 10620, Note_on_c, 10, 53, 123
11, 10716, Note_on_c, 10, 53, 0
11, 10740, Note_on_c, 10, 57, 121
11, 10788, Note_on_c, 10, 57, 0
11, 10800, Note_on_c, 10, 55, 125
11, 10896, Note_on_c, 10, 55, 0
11, 10920, Note_on_c, 10, 50, 127
11, 10968, Note_on_c, 10, 50, 0
11, 10980, Note_on_c, 10, 52, 114
11, 11076, Note_on_c, 10, 52, 0
11, 11100, Note_on_c, 10, 48, 106
11, 11148, Note_on_c, 10, 48, 0
11, 11160, Note_on_c, 10, 48, 50
11, 11208, Note_on_c, 10, 48, 0
11, 11220, Note_on_c, 10, 53, 111
11, 11316, Note_on_c, 10, 53, 0
11, 11340, Note_on_c, 10, 48, 112
11, 11388, Note_on_c, 10, 48, 0
11, 11400, Note_on_c, 10, 55, 107
11, 11496, Note_on_c, 10, 55, 0
11, 11520, Note_on_c, 10, 48, 123
11, 11568, Note_on_c, 10, 48, 0
11, 11580, Note_on_c, 10, 57, 100
11, 11676, Note_on_c, 10, 57, 0
11, 11700, Note_on_c, 10, 60, 123
11, 11748, Note_on_c, 10, 60, 0
11, 11760, Note_on_c, 10, 58, 103
11, 11808, Note_on_c, 10, 58, 0
11, 11820, Note_on_c, 10, 55, 102
11, 11844, Note_on_c, 10, 55, 0
11, 11850, Note_on_c, 10, 52, 116
11, 11874, Note_on_c, 10, 52, 0
11, 11880, Note_on_c, 10, 48, 125
11, 11904, Note_on_c, 10, 48, 0
11, 11910, Note_on_c, 10, 53, 127
11, 11934, Note_on_c, 10, 53, 0
11, 11940, Note_on_c, 10, 57, 125
11, 11964, Note_on_c, 10, 57, 0
11, 11970, Note_on_c, 10, 60, 112
11, 11994, Note_on_c, 10, 60, 0
11, 12000, Note_on_c, 10, 57, 109
11, 12024, Note_on_c, 10, 57, 0
11, 12030, Note_on_c, 10, 53, 93
11, 12054, Note_on_c, 10, 53, 0
11, 12060, Note_on_c, 10, 48, 108
11, 12084, Note_on_c, 10, 48, 0
11, 12090, Note_on_c, 10, 55, 111
11, 12114, Note_on_c, 10, 55, 0
11, 12120, Note_on_c, 10, 58, 99
11, 12144, Note_on_c, 10, 58, 0
11, 12150, Note_on_c, 10, 62, 103
11, 12174, Note_on_c, 10, 62, 0
11, 12180, Note_on_c, 10, 58, 99
11, 12204, Note_on_c, 10, 58, 0
11, 12210, Note_on_c, 10, 55, 101
11, 12234, Note_on_c, 10, 55, 0
11, 12240, Note_on_c, 10, 48, 103
11, 12264, Note_on_c, 10, 48, 0
11, 12270, Note_on_c, 10, 53, 118
11, 12294, Note_on_c, 10, 53, 0
11, 12300, Note_on_c, 10, 57, 108
11, 12324, Note_on_c, 10, 57, 0
11, 12330, Note_on_c, 10, 60, 118
11, 12354, Note_on_c, 10, 60, 0
11, 12360, Note_on_c, 10, 57, 110
11, 12384, Note_on_c, 10, 57, 0
11, 12390, Note_on_c, 10, 53, 120
11, 12414, Note_on_c, 10, 53, 0
11, 12420, Note_on_c, 10, 48, 101
11, 12444, Note_on_c, 10, 48, 0
11, 12450, Note_on_c, 10, 55, 106
11, 12474, Note_on_c, 10, 55, 0
11, 12480, Note_on_c, 10, 58, 88
11, 12504, Note_on_c, 10, 58, 0
11, 12510, Note_on_c, 10, 60, 106
11, 12534, Note_on_c, 10, 60, 0
11, 12540, Note_on_c, 10, 48, 98
11, 12588, Note_on_c, 10, 48, 0
11, 12600, Note_on_c, 10, 48, 113
11, 12648, Note_on_c, 10, 48, 0
11, 12660, Note_on_c, 10, 53, 100
11, 12708, Note_on_c, 10, 53, 0
11, 12720, Note_on_c, 10, 53, 118
11, 12732, Note_on_c, 10, 53, 0
11, 12735, Note_on_c, 10, 55, 105
11, 12747, Note_on_c, 10, 55, 0
11, 12750, Note_on_c, 10, 53, 109
11, 12762, Note_on_c, 10, 53, 0
11, 12765, Note_on_c, 10, 55, 105
11, 12777, Note_on_c, 10, 55, 0
11, 12780, Note_on_c, 10, 48, 111
11, 12828, Note_on_c, 10, 48, 0
11, 12840, Note_on_c, 10, 55, 117
11, 12888, Note_on_c, 10, 55, 0
11, 12900, Note_on_c, 10, 55, 110
11, 12912, Note_on_c, 10, 55, 0
11, 12915, Note_on_c, 10, 57, 116
11, 12927, Note_on_c, 10, 57, 0
11, 12930, Note_on_c, 10, 55, 110
11, 12942, Note_on_c, 10, 55, 0
11, 12945, Note_on_c, 10, 57, 108
11, 12957, Note_on_c, 10, 57, 0
11, 12960, Note_on_c, 10, 48, 107
11, 13008, Note_on_c, 10, 48, 0
11, 13020, Note_on_c, 10, 57, 100
11, 13068, Note_on_c, 10, 57, 0
11, 13080, Note_on_c, 10, 57, 104
11, 13092, Note_on_c, 10, 57, 0
11, 13095, Note_on_c, 10, 58, 91
11, 13107, Note_on_c, 10, 58, 0
11, 13110, Note_on_c, 10, 57, 105
11, 13122, Note_on_c, 10, 57, 0
11, 13125, Note_on_c, 10, 58, 93
11, 13137, Note_on_c, 10, 58, 0
11, 13140, Note_on_c, 10, 60, 104
11, 13188, Note_on_c, 10, 60, 0
11, 13200, Note_on_c, 10, 58, 103
11, 13248, Note_on_c, 10, 58, 0
11, 13260, Note_on_c, 10, 55, 114
11, 13284, Note_on_c, 10, 55, 0
11, 13290, Note_on_c, 10, 52, 118
11, 13314, Note_on_c, 10, 52, 0
11, 13320, Note_on_c, 10, 50, 116
11, 13344, Note_on_c, 10, 50, 0
11, 13350, Note_on_c, 10, 53, 113
11, 13374, Note_on_c, 10, 53, 0
11, 13380, Note_on_c, 10, 57, 101
11, 13404, Note_on_c, 10, 57, 0
11, 13410, Note_on_c, 10, 60, 100
11, 13434, Note_on_c, 10, 60, 0
11, 13440, Note_on_c, 10, 57, 110
11, 13464, Note_on_c, 10, 57, 0
11, 13470, Note_on_c, 10, 53, 114
11, 13494, Note_on_c, 10, 53, 0
11, 13500, Note_on_c, 10, 48, 105
11, 13524, Note_on_c, 10, 48, 0
11, 13530, Note_on_c, 10, 55, 118
11, 13554, Note_on_c, 10, 55, 0
11, 13560, Note_on_c, 10, 58, 99
11, 13584, Note_on_c, 10, 58, 0
11, 13590, Note_on_c, 10, 60, 105
11, 13614, Note_on_c, 10, 60, 0
11, 13620, Note_on_c, 10, 58, 103
11, 13644, Note_on_c, 10, 58, 0
11, 13650, Note_on_c, 10, 55, 127
11, 13674, Note_on_c, 10, 55, 0
11, 13680, Note_on_c, 10, 48, 109
11, 13704, Note_on_c, 10, 48, 0
11, 13710, Note_on_c, 10, 53, 127
11, 13734, Note_on_c, 10, 53, 0
11, 13740, Note_on_c, 10, 57, 114
11, 13764, Note_on_c, 10, 57, 0
11, 13770, Note_on_c, 10, 60, 114
11, 13794, Note_on_c, 10, 60, 0
11, 13800, Note_on_c, 10, 57, 127
11, 13824, Note_on_c, 10, 57, 0
11, 13830, Note_on_c, 10, 53, 121
11, 13854, Note_on_c, 10, 53, 0
11, 13860, Note_on_c, 10, 48, 99
11, 13884, Note_on_c, 10, 48, 0
11, 13890, Note_on_c, 10, 52, 104
11, 13914, Note_on_c, 10, 52, 0
11, 13920, Note_on_c, 10, 58, 79
11, 13944, Note_on_c, 10, 58, 0
11, 13950, Note_on_c, 10, 60, 98
11, 13974, Note_on_c, 10, 60, 0
11, 14040, Note_on_c, 10, 62, 108
11, 14088, Note_on_c, 10, 62, 0
11, 14100, Note_on_c, 10, 60, 100
11, 14148, Note_on_c, 10, 60, 0
11, 14160, Note_on_c, 10, 57, 99
11, 14184, Note_on_c, 10, 57, 0
11, 14190, Note_on_c, 10, 53, 123
11, 14214, Note_on_c, 10, 53, 0
11, 14400, Note_on_c, 10, 65, 105
11, 14448, Note_on_c, 10, 65, 0
11, 14460, Note_on_c, 10, 64, 103
11, 14508, Note_on_c, 10, 64, 0
11, 14520, Note_on_c, 10, 60, 113
11, 14544, Note_on_c, 10, 60, 0
11, 14550, Note_on_c, 10, 55, 120
11, 14574, Note_on_c, 10, 55, 0
11, 15120, Note_on_c, 10, 57, 113
11, 15168, Note_on_c, 10, 57, 0
11, 15180, Note_on_c, 10, 55, 114
11, 15228, Note_on_c, 10, 55, 0
11, 15240, Note_on_c, 10, 52, 103
11, 15264, Note_on_c, 10, 52, 0
11, 15270, Note_on_c, 10, 48, 50
11, 15294, Note_on_c, 10, 48, 0
11, 15330, Note_on_c, 10, 55, 117
11, 15354, Note_on_c, 10, 55, 0
11, 15360, Note_on_c, 10, 60, 123
11, 15384, Note_on_c, 10, 60, 0
11, 15390, Note_on_c, 10, 64, 108
11, 15414, Note_on_c, 10, 64, 0
11, 15420, Note_on_c, 10, 67, 102
11, 15444, Note_on_c, 10, 67, 0
11, 15450, Note_on_c, 10, 67, 110
11, 15474, Note_on_c, 10, 67, 0
11, 15480, Note_on_c, 10, 67, 107
11, 15480, Note_on_c, 10, 55, 99
11, 15768, Note_on_c, 10, 55, 0
11, 15768, Note_on_c, 10, 67, 0
11, 15840, Note_on_c, 10, 55, 112
11, 15888, Note_on_c, 10, 55, 0
11, 15900, Note_on_c, 10, 53, 121
11, 15948, Note_on_c, 10, 53, 0
11, 15960, Note_on_c, 10, 50, 118
11, 15984, Note_on_c, 10, 50, 0
11, 15990, Note_on_c, 10, 59, 104
11, 16014, Note_on_c, 10, 59, 0
11, 16050, Note_on_c, 10, 55, 116
11, 16074, Note_on_c, 10, 55, 0
11, 16080, Note_on_c, 10, 58, 113
11, 16104, Note_on_c, 10, 58, 0
11, 16110, Note_on_c, 10, 62, 121
11, 16134, Note_on_c, 10, 62, 0
11, 16140, Note_on_c, 10, 67, 127
11, 16164, Note_on_c, 10, 67, 0
11, 16170, Note_on_c, 10, 67, 121
11, 16194, Note_on_c, 10, 67, 0
11, 16200, Note_on_c, 10, 67, 102
11, 16200, Note_on_c, 10, 55, 102
11, 16488, Note_on_c, 10, 55, 0
11, 16488, Note_on_c, 10, 67, 0
11, 16560, Note_on_c, 10, 57, 123
11, 16584, Note_on_c, 10, 57, 0
11, 16590, Note_on_c, 10, 55, 104
11, 16614, Note_on_c, 10, 55, 0
11, 16620, Note_on_c, 10, 54, 103
11, 16644, Note_on_c, 10, 54, 0
11, 16650, Note_on_c, 10, 55, 127
11, 16674, Note_on_c, 10, 55, 0
11, 16680, Note_on_c, 10, 52, 123
11, 16704, Note_on_c, 10, 52, 0
11, 16710, Note_on_c, 10, 48, 103
11, 16734, Note_on_c, 10, 48, 0
11, 16770, Note_on_c, 10, 55, 110
11, 16794, Note_on_c, 10, 55, 0
11, 16800, Note_on_c, 10, 60, 125
11, 16824, Note_on_c, 10, 60, 0
11, 16830, Note_on_c, 10, 64, 116
11, 16854, Note_on_c, 10, 64, 0
11, 16860, Note_on_c, 10, 67, 107
11, 16884, Note_on_c, 10, 67, 0
11, 16890, Note_on_c, 10, 67, 111
11, 16914, Note_on_c, 10, 67, 0
11, 16920, Note_on_c, 10, 67, 100
11, 16920, Note_on_c, 10, 55, 100
11, 17208, Note_on_c, 10, 55, 0
11, 17208, Note_on_c, 10, 67, 0
11, 17280, Note_on_c, 10, 57, 121
11, 17304, Note_on_c, 10, 57, 0
11, 17310, Note_on_c, 10, 55, 116
11, 17334, Note_on_c, 10, 55, 0
11, 17340, Note_on_c, 10, 54, 103
11, 17364, Note_on_c, 10, 54, 0
11, 17370, Note_on_c, 10, 55, 118
11, 17394, Note_on_c, 10, 55, 0
11, 17400, Note_on_c, 10, 53, 76
11, 17424, Note_on_c, 10, 53, 0
11, 17430, Note_on_c, 10, 50, 104
11, 17454, Note_on_c, 10, 50, 0
11, 17490, Note_on_c, 10, 55, 118
11, 17514, Note_on_c, 10, 55, 0
11, 17520, Note_on_c, 10, 59, 120
11, 17544, Note_on_c, 10, 59, 0
11, 17550, Note_on_c, 10, 62, 120
11, 17574, Note_on_c, 10, 62, 0
11, 17580, Note_on_c, 10, 67, 127
11, 17604, Note_on_c, 10, 67, 0
11, 17610, Note_on_c, 10, 55, 108
11, 17634, Note_on_c, 10, 55, 0
11, 17640, Note_on_c, 10, 60, 103
11, 17698, Control_c, 10, 7, 90
11, 17718, Control_c, 10, 7, 91
11, 17736, Note_on_c, 10, 60, 0
11, 17736, Control_c, 10, 7, 92
11, 17756, Control_c, 10, 7, 93
11, 17774, Control_c, 10, 7, 94
11, 17794, Control_c, 10, 7, 95
11, 17812, Control_c, 10, 7, 96
11, 17830, Control_c, 10, 7, 97
11, 17850, Control_c, 10, 7, 98
11, 17868, Control_c, 10, 7, 99
11, 17888, Control_c, 10, 7, 100
11, 17906, Control_c, 10, 7, 101
11, 17926, Control_c, 10, 7, 102
11, 17944, Control_c, 10, 7, 103
11, 17962, Control_c, 10, 7, 104
11, 17982, Control_c, 10, 7, 105
11, 18000, Control_c, 10, 7, 106
11, 18020, Control_c, 10, 7, 107
11, 18038, Control_c, 10, 7, 108
11, 18058, Control_c, 10, 7, 109
11, 18076, Control_c, 10, 7, 110
11, 18094, Control_c, 10, 7, 111
11, 18114, Control_c, 10, 7, 112
11, 18120, Note_on_c, 10, 60, 110
11, 18132, Control_c, 10, 7, 113
11, 18152, Control_c, 10, 7, 114
11, 18168, Note_on_c, 10, 60, 0
11, 18170, Control_c, 10, 7, 115
11, 18180, Note_on_c, 10, 55, 109
11, 18188, Control_c, 10, 7, 116
11, 18276, Note_on_c, 10, 55, 0
11, 18300, Note_on_c, 10, 55, 108
11, 18348, Note_on_c, 10, 55, 0
11, 18360, Note_on_c, 10, 60, 116
11, 18408, Note_on_c, 10, 60, 0
11, 18478, Control_c, 10, 7, 82
11, 18490, Control_c, 10, 7, 83
11, 18502, Control_c, 10, 7, 84
11, 18514, Control_c, 10, 7, 85
11, 18526, Control_c, 10, 7, 86
11, 18536, Control_c, 10, 7, 87
11, 18548, Control_c, 10, 7, 88
11, 18560, Control_c, 10, 7, 89
11, 18572, Control_c, 10, 7, 90
11, 18582, Control_c, 10, 7, 91
11, 18594, Control_c, 10, 7, 92
11, 18606, Control_c, 10, 7, 93
11, 18618, Control_c, 10, 7, 94
11, 18628, Control_c, 10, 7, 95
11, 18640, Control_c, 10, 7, 96
11, 18652, Control_c, 10, 7, 97
11, 18660, Note_on_c, 10, 53, 101
11, 18664, Control_c, 10, 7, 98
11, 18674, Control_c, 10, 7, 99
11, 18684, Note_on_c, 10, 53, 0
11, 18686, Control_c, 10, 7, 100
11, 18690, Note_on_c, 10, 48, 107
11, 18698, Control_c, 10, 7, 101
11, 18710, Control_c, 10, 7, 102
11, 18714, Note_on_c, 10, 48, 0
11, 18720, Note_on_c, 10, 55, 105
11, 18720, Control_c, 10, 7, 103
11, 18732, Control_c, 10, 7, 104
11, 18744, Note_on_c, 10, 55, 0
11, 18744, Control_c, 10, 7, 105
11, 18750, Note_on_c, 10, 48, 111
11, 18756, Control_c, 10, 7, 106
11, 18766, Control_c, 10, 7, 107
11, 18774, Note_on_c, 10, 48, 0
11, 18778, Control_c, 10, 7, 108
11, 18780, Note_on_c, 10, 59, 103
11, 18790, Control_c, 10, 7, 109
11, 18802, Control_c, 10, 7, 110
11, 18804, Note_on_c, 10, 59, 0
11, 18810, Note_on_c, 10, 55, 108
11, 18812, Control_c, 10, 7, 111
11, 18824, Control_c, 10, 7, 112
11, 18834, Note_on_c, 10, 55, 0
11, 18836, Control_c, 10, 7, 113
11, 18840, Note_on_c, 10, 60, 105
11, 18848, Control_c, 10, 7, 114
11, 18858, Control_c, 10, 7, 115
11, 18864, Note_on_c, 10, 60, 0
11, 18870, Note_on_c, 10, 55, 103
11, 18870, Control_c, 10, 7, 116
11, 18882, Control_c, 10, 7, 117
11, 18894, Note_on_c, 10, 55, 0
11, 18894, Control_c, 10, 7, 118
11, 18900, Note_on_c, 10, 59, 100
11, 18904, Control_c, 10, 7, 119
11, 18924, Note_on_c, 10, 59, 0
11, 18930, Note_on_c, 10, 55, 101
11, 18954, Note_on_c, 10, 55, 0
11, 18960, Note_on_c, 10, 59, 102
11, 18984, Note_on_c, 10, 59, 0
11, 18990, Note_on_c, 10, 62, 117
11, 19014, Note_on_c, 10, 62, 0
11, 19020, Note_on_c, 10, 67, 112
11, 19044, Note_on_c, 10, 67, 0
11, 19050, Note_on_c, 10, 67, 113
11, 19074, Note_on_c, 10, 67, 0
11, 19080, Note_on_c, 10, 67, 116
11, 19224, Note_on_c, 10, 67, 0
11, 19260, Note_on_c, 10, 64, 101
11, 19308, Note_on_c, 10, 64, 0
11, 19380, Note_on_c, 10, 67, 127
11, 19428, Note_on_c, 10, 67, 0
11, 19440, Note_on_c, 10, 69, 116
11, 19584, Note_on_c, 10, 69, 0
11, 19620, Note_on_c, 10, 65, 102
11, 19668, Note_on_c, 10, 65, 0
11, 19740, Note_on_c, 10, 53, 127
11, 19788, Note_on_c, 10, 53, 0
11, 19800, Note_on_c, 10, 55, 118
11, 19800, Control_c, 10, 7, 114
11, 19804, Control_c, 10, 7, 113
11, 19808, Control_c, 10, 7, 112
11, 19812, Control_c, 10, 7, 111
11, 19816, Control_c, 10, 7, 110
11, 19820, Control_c, 10, 7, 109
11, 19824, Control_c, 10, 7, 108
11, 19828, Control_c, 10, 7, 107
11, 19832, Control_c, 10, 7, 106
11, 19836, Control_c, 10, 7, 105
11, 19840, Control_c, 10, 7, 104
11, 19844, Control_c, 10, 7, 103
11, 19848, Control_c, 10, 7, 102
11, 19852, Control_c, 10, 7, 101
11, 19856, Control_c, 10, 7, 100
11, 19860, Control_c, 10, 7, 99
11, 19864, Control_c, 10, 7, 98
11, 19868, Control_c, 10, 7, 97
11, 19872, Control_c, 10, 7, 96
11, 19876, Control_c, 10, 7, 95
11, 19880, Control_c, 10, 7, 94
11, 19884, Control_c, 10, 7, 93
11, 19888, Control_c, 10, 7, 92
11, 19892, Control_c, 10, 7, 91
11, 19896, Control_c, 10, 7, 90
11, 19900, Control_c, 10, 7, 89
11, 19904, Control_c, 10, 7, 88
11, 19908, Control_c, 10, 7, 87
11, 19912, Control_c, 10, 7, 86
11, 19916, Control_c, 10, 7, 85
11, 19920, Control_c, 10, 7, 84
11, 19924, Control_c, 10, 7, 83
11, 19928, Control_c, 10, 7, 82
11, 19930, Control_c, 10, 7, 81
11, 21960, Note_on_c, 10, 48, 99
11, 22596, Note_on_c, 10, 48, 0
11, 22596, Note_on_c, 10, 55, 0
11, 22620, Note_on_c, 10, 60, 108
11, 22668, Note_on_c, 10, 60, 0
11, 22680, Note_on_c, 10, 60, 117
11, 22680, Control_c, 10, 7, 90
11, 23688, Note_on_c, 10, 60, 0
11, 23760, Note_on_c, 10, 62, 105
11, 24036, Note_on_c, 10, 62, 0
11, 24060, Note_on_c, 10, 60, 101
11, 24108, Note_on_c, 10, 60, 0
11, 24120, Note_on_c, 10, 60, 98
11, 24624, Note_on_c, 10, 60, 0
11, 24660, Note_on_c, 10, 62, 102
11, 24984, Note_on_c, 10, 62, 0
11, 25020, Note_on_c, 10, 55, 100
11, 25116, Note_on_c, 10, 55, 0
11, 25140, Note_on_c, 10, 60, 102
11, 25188, Note_on_c, 10, 60, 0
11, 25200, Note_on_c, 10, 60, 73
11, 25488, Note_on_c, 10, 60, 0
11, 25770, Note_on_c, 10, 48, 101
11, 25794, Note_on_c, 10, 48, 0
11, 25800, Note_on_c, 10, 53, 83
11, 25824, Note_on_c, 10, 53, 0
11, 25830, Note_on_c, 10, 57, 99
11, 25854, Note_on_c, 10, 57, 0
11, 25860, Note_on_c, 10, 60, 106
11, 25884, Note_on_c, 10, 60, 0
11, 25890, Note_on_c, 10, 57, 103
11, 25914, Note_on_c, 10, 57, 0
11, 25932, Control_c, 10, 7, 88
11, 25974, Control_c, 10, 7, 89
11, 26016, Control_c, 10, 7, 90
11, 26060, Control_c, 10, 7, 91
11, 26102, Control_c, 10, 7, 92
11, 26130, Note_on_c, 10, 48, 102
11, 26144, Control_c, 10, 7, 93
11, 26154, Note_on_c, 10, 48, 0
11, 26160, Note_on_c, 10, 53, 127
11, 26184, Note_on_c, 10, 53, 0
11, 26186, Control_c, 10, 7, 94
11, 26190, Note_on_c, 10, 57, 105
11, 26214, Note_on_c, 10, 57, 0
11, 26220, Note_on_c, 10, 60, 110
11, 26228, Control_c, 10, 7, 95
11, 26244, Note_on_c, 10, 60, 0
11, 26250, Note_on_c, 10, 57, 104
11, 26270, Control_c, 10, 7, 96
11, 26274, Note_on_c, 10, 57, 0
11, 26274, Control_c, 10, 7, 96
11, 26300, Control_c, 10, 7, 97
11, 26324, Control_c, 10, 7, 98
11, 26348, Control_c, 10, 7, 99
11, 26374, Control_c, 10, 7, 100
11, 26398, Control_c, 10, 7, 101
11, 26422, Control_c, 10, 7, 102
11, 26448, Control_c, 10, 7, 103
11, 26472, Control_c, 10, 7, 104
11, 26490, Note_on_c, 10, 48, 104
11, 26496, Control_c, 10, 7, 105
11, 26514, Note_on_c, 10, 48, 0
11, 26520, Note_on_c, 10, 53, 121
11, 26522, Control_c, 10, 7, 106
11, 26544, Note_on_c, 10, 53, 0
11, 26546, Control_c, 10, 7, 107
11, 26550, Note_on_c, 10, 57, 99
11, 26570, Control_c, 10, 7, 108
11, 26574, Note_on_c, 10, 57, 0
11, 26580, Note_on_c, 10, 60, 98
11, 26596, Control_c, 10, 7, 109
11, 26604, Note_on_c, 10, 60, 0
11, 26610, Note_on_c, 10, 57, 97
11, 26620, Control_c, 10, 7, 110
11, 26634, Note_on_c, 10, 57, 0
11, 26644, Control_c, 10, 7, 111
11, 26670, Control_c, 10, 7, 112
11, 26694, Control_c, 10, 7, 113
11, 26718, Control_c, 10, 7, 114
11, 26744, Control_c, 10, 7, 115
11, 26768, Control_c, 10, 7, 116
11, 26792, Control_c, 10, 7, 117
11, 26818, Control_c, 10, 7, 118
11, 26842, Control_c, 10, 7, 119
11, 26850, Note_on_c, 10, 53, 99
11, 26866, Control_c, 10, 7, 120
11, 26874, Note_on_c, 10, 53, 0
11, 26880, Note_on_c, 10, 57, 107
11, 26892, Control_c, 10, 7, 121
11, 26904, Note_on_c, 10, 57, 0
11, 26910, Note_on_c, 10, 60, 99
11, 26916, Control_c, 10, 7, 122
11, 26934, Note_on_c, 10, 60, 0
11, 26940, Note_on_c, 10, 65, 98
11, 26940, Control_c, 10, 7, 123
11, 26964, Note_on_c, 10, 65, 0
11, 26966, Control_c, 10, 7, 124
11, 26970, Note_on_c, 10, 60, 100
11, 26990, Control_c, 10, 7, 125
11, 26994, Note_on_c, 10, 60, 0
11, 27014, Control_c, 10, 7, 126
11, 27030, Note_on_c, 10, 53, 93
11, 27038, Control_c, 10, 7, 127
11, 27054, Note_on_c, 10, 53, 0
11, 27060, Note_on_c, 10, 57, 109
11, 27084, Note_on_c, 10, 57, 0
11, 27090, Note_on_c, 10, 60, 101
11, 27114, Note_on_c, 10, 60, 0
11, 27120, Note_on_c, 10, 65, 88
11, 27144, Note_on_c, 10, 65, 0
11, 27150, Note_on_c, 10, 60, 109
11, 27174, Note_on_c, 10, 60, 0
11, 27210, Note_on_c, 10, 53, 105
11, 27234, Note_on_c, 10, 53, 0
11, 27240, Note_on_c, 10, 57, 118
11, 27264, Note_on_c, 10, 57, 0
11, 27270, Note_on_c, 10, 60, 112
11, 27294, Note_on_c, 10, 60, 0
11, 27300, Note_on_c, 10, 65, 108
11, 27324, Note_on_c, 10, 65, 0
11, 27330, Note_on_c, 10, 65, 99
11, 27354, Note_on_c, 10, 65, 0
11, 27360, Note_on_c, 10, 69, 94
11, 27456, Note_on_c, 10, 69, 0
11, 27480, Note_on_c, 10, 72, 97
11, 27528, Note_on_c, 10, 72, 0
11, 27540, Note_on_c, 10, 75, 88
11, 27636, Note_on_c, 10, 75, 0
11, 27660, Note_on_c, 10, 53, 102
11, 27708, Note_on_c, 10, 53, 0
11, 27720, Note_on_c, 10, 57, 127
11, 27816, Note_on_c, 10, 57, 0
11, 27840, Note_on_c, 10, 60, 120
11, 27888, Note_on_c, 10, 60, 0
11, 27900, Note_on_c, 10, 63, 103
11, 27996, Note_on_c, 10, 63, 0
11, 28020, Note_on_c, 10, 65, 117
11, 28068, Note_on_c, 10, 65, 0
11, 28080, Note_on_c, 10, 69, 100
11, 28176, Note_on_c, 10, 69, 0
11, 28200, Note_on_c, 10, 72, 109
11, 28248, Note_on_c, 10, 72, 0
11, 28260, Note_on_c, 10, 75, 113
11, 28356, Note_on_c, 10, 75, 0
11, 28380, Note_on_c, 10, 53, 114
11, 28428, Note_on_c, 10, 53, 0
11, 28440, Note_on_c, 10, 50, 107
11, 28464, Note_on_c, 10, 50, 0
11, 28470, Note_on_c, 10, 53, 102
11, 28494, Note_on_c, 10, 53, 0
11, 28500, Note_on_c, 10, 58, 111
11, 28524, Note_on_c, 10, 58, 0
11, 28530, Note_on_c, 10, 53, 104
11, 28554, Note_on_c, 10, 53, 0
11, 28560, Note_on_c, 10, 50, 104
11, 28584, Note_on_c, 10, 50, 0
11, 28590, Note_on_c, 10, 53, 111
11, 28614, Note_on_c, 10, 53, 0
11, 28620, Note_on_c, 10, 50, 96
11, 28644, Note_on_c, 10, 50, 0
11, 28650, Note_on_c, 10, 53, 121
11, 28674, Note_on_c, 10, 53, 0
11, 28680, Note_on_c, 10, 58, 79
11, 28704, Note_on_c, 10, 58, 0
11, 28710, Note_on_c, 10, 62, 101
11, 28734, Note_on_c, 10, 62, 0
11, 28740, Note_on_c, 10, 51, 77
11, 28764, Note_on_c, 10, 51, 0
11, 28770, Note_on_c, 10, 60, 100
11, 28794, Note_on_c, 10, 60, 0
11, 28800, Note_on_c, 10, 50, 100
11, 28824, Note_on_c, 10, 50, 0
11, 28830, Note_on_c, 10, 53, 118
11, 28854, Note_on_c, 10, 53, 0
11, 28860, Note_on_c, 10, 58, 97
11, 28884, Note_on_c, 10, 58, 0
11, 28890, Note_on_c, 10, 50, 107
11, 28914, Note_on_c, 10, 50, 0
11, 28920, Note_on_c, 10, 51, 99
11, 28944, Note_on_c, 10, 51, 0
11, 28950, Note_on_c, 10, 60, 116
11, 28974, Note_on_c, 10, 60, 0
11, 28980, Note_on_c, 10, 53, 99
11, 29004, Note_on_c, 10, 53, 0
11, 29010, Note_on_c, 10, 58, 88
11, 29034, Note_on_c, 10, 58, 0
11, 29040, Note_on_c, 10, 62, 100
11, 29064, Note_on_c, 10, 62, 0
11, 29070, Note_on_c, 10, 50, 109
11, 29094, Note_on_c, 10, 50, 0
11, 29100, Note_on_c, 10, 53, 112
11, 29124, Note_on_c, 10, 53, 0
11, 29130, Note_on_c, 10, 58, 101
11, 29154, Note_on_c, 10, 58, 0
11, 29160, Note_on_c, 10, 51, 84
11, 29184, Note_on_c, 10, 51, 0
11, 29190, Note_on_c, 10, 53, 92
11, 29214, Note_on_c, 10, 53, 0
11, 29220, Note_on_c, 10, 58, 103
11, 29244, Note_on_c, 10, 58, 0
11, 29250, Note_on_c, 10, 51, 91
11, 29274, Note_on_c, 10, 51, 0
11, 29280, Note_on_c, 10, 53, 103
11, 29304, Note_on_c, 10, 53, 0
11, 29310, Note_on_c, 10, 58, 115
11, 29334, Note_on_c, 10, 58, 0
11, 29340, Note_on_c, 10, 48, 96
11, 29364, Note_on_c, 10, 48, 0
11, 29370, Note_on_c, 10, 53, 112
11, 29394, Note_on_c, 10, 53, 0
11, 29400, Note_on_c, 10, 57, 104
11, 29424, Note_on_c, 10, 57, 0
11, 29430, Note_on_c, 10, 53, 110
11, 29454, Note_on_c, 10, 53, 0
11, 29460, Note_on_c, 10, 55, 89
11, 29484, Note_on_c, 10, 55, 0
11, 29490, Note_on_c, 10, 59, 96
11, 29514, Note_on_c, 10, 59, 0
11, 29520, Note_on_c, 10, 53, 102
11, 29544, Note_on_c, 10, 53, 0
11, 29550, Note_on_c, 10, 57, 107
11, 29574, Note_on_c, 10, 57, 0
11, 29580, Note_on_c, 10, 60, 109
11, 29604, Note_on_c, 10, 60, 0
11, 29610, Note_on_c, 10, 53, 104
11, 29634, Note_on_c, 10, 53, 0
11, 29640, Note_on_c, 10, 55, 107
11, 29664, Note_on_c, 10, 55, 0
11, 29670, Note_on_c, 10, 59, 98
11, 29694, Note_on_c, 10, 59, 0
11, 29700, Note_on_c, 10, 53, 100
11, 29724, Note_on_c, 10, 53, 0
11, 29730, Note_on_c, 10, 57, 108
11, 29754, Note_on_c, 10, 57, 0
11, 29760, Note_on_c, 10, 60, 110
11, 29784, Note_on_c, 10, 60, 0
11, 29790, Note_on_c, 10, 53, 106
11, 29814, Note_on_c, 10, 53, 0
11, 29820, Note_on_c, 10, 59, 98
11, 29820, Control_c, 10, 7, 109
11, 29844, Note_on_c, 10, 59, 0
11, 29850, Note_on_c, 10, 62, 110
11, 29874, Note_on_c, 10, 62, 0
11, 29880, Note_on_c, 10, 53, 105
11, 29904, Note_on_c, 10, 53, 0
11, 29910, Note_on_c, 10, 59, 103
11, 29934, Note_on_c, 10, 59, 0
11, 29940, Note_on_c, 10, 62, 111
11, 29964, Note_on_c, 10, 62, 0
11, 29970, Note_on_c, 10, 53, 98
11, 29994, Note_on_c, 10, 53, 0
11, 30000, Note_on_c, 10, 60, 104
11, 30024, Note_on_c, 10, 60, 0
11, 30030, Note_on_c, 10, 63, 109
11, 30054, Note_on_c, 10, 63, 0
11, 30058, Control_c, 10, 7, 85
11, 30060, Note_on_c, 10, 53, 111
11, 30084, Note_on_c, 10, 53, 0
11, 30090, Note_on_c, 10, 60, 106
11, 30114, Note_on_c, 10, 60, 0
11, 30120, Note_on_c, 10, 63, 83
11, 30144, Note_on_c, 10, 63, 0
11, 30150, Note_on_c, 10, 53, 91
11, 30174, Note_on_c, 10, 53, 0
11, 30180, Note_on_c, 10, 58, 94
11, 30204, Note_on_c, 10, 58, 0
11, 30210, Note_on_c, 10, 62, 116
11, 30234, Note_on_c, 10, 62, 0
11, 30240, Note_on_c, 10, 53, 94
11, 30264, Note_on_c, 10, 53, 0
11, 30270, Note_on_c, 10, 57, 113
11, 30294, Note_on_c, 10, 57, 0
11, 30300, Note_on_c, 10, 60, 105
11, 30324, Note_on_c, 10, 60, 0
11, 30330, Note_on_c, 10, 53, 107
11, 30354, Note_on_c, 10, 53, 0
11, 30360, Note_on_c, 10, 58, 82
11, 30384, Note_on_c, 10, 58, 0
11, 30390, Note_on_c, 10, 62, 112
11, 30414, Note_on_c, 10, 62, 0
11, 30420, Note_on_c, 10, 53, 98
11, 30444, Note_on_c, 10, 53, 0
11, 30450, Note_on_c, 10, 60, 109
11, 30474, Note_on_c, 10, 60, 0
11, 30480, Note_on_c, 10, 63, 50
11, 30504, Note_on_c, 10, 63, 0
11, 30510, Note_on_c, 10, 53, 110
11, 30534, Note_on_c, 10, 53, 0
11, 30538, Control_c, 10, 7, 115
11, 30540, Note_on_c, 10, 57, 99
11, 30564, Note_on_c, 10, 57, 0
11, 30570, Note_on_c, 10, 60, 117
11, 30594, Note_on_c, 10, 60, 0
11, 30600, Note_on_c, 10, 53, 111
11, 30600, Control_c, 10, 7, 110
11, 30624, Note_on_c, 10, 53, 0
11, 30630, Note_on_c, 10, 58, 82
11, 30654, Note_on_c, 10, 58, 0
11, 30660, Note_on_c, 10, 62, 113
11, 30684, Note_on_c, 10, 62, 0
11, 30690, Note_on_c, 10, 50, 116
11, 30714, Note_on_c, 10, 50, 0
11, 30720, Note_on_c, 10, 53, 127
11, 30744, Note_on_c, 10, 53, 0
11, 30750, Note_on_c, 10, 58, 101
11, 30774, Note_on_c, 10, 58, 0
11, 30778, Control_c, 10, 7, 85
11, 30780, Note_on_c, 10, 48, 117
11, 30804, Note_on_c, 10, 48, 0
11, 30810, Note_on_c, 10, 51, 92
11, 30834, Note_on_c, 10, 51, 0
11, 30840, Note_on_c, 10, 58, 81
11, 30864, Note_on_c, 10, 58, 0
11, 30870, Note_on_c, 10, 50, 94
11, 30894, Note_on_c, 10, 50, 0
11, 30900, Note_on_c, 10, 53, 100
11, 30924, Note_on_c, 10, 53, 0
11, 30930, Note_on_c, 10, 58, 103
11, 30954, Note_on_c, 10, 58, 0
11, 30960, Note_on_c, 10, 51, 97
11, 30984, Note_on_c, 10, 51, 0
11, 30990, Note_on_c, 10, 55, 102
11, 31014, Note_on_c, 10, 55, 0
11, 31020, Note_on_c, 10, 58, 90
11, 31044, Note_on_c, 10, 58, 0
11, 31050, Note_on_c, 10, 51, 97
11, 31074, Note_on_c, 10, 51, 0
11, 31080, Note_on_c, 10, 55, 118
11, 31104, Note_on_c, 10, 55, 0
11, 31110, Note_on_c, 10, 58, 99
11, 31134, Note_on_c, 10, 58, 0
11, 31140, Note_on_c, 10, 51, 103
11, 31164, Note_on_c, 10, 51, 0
11, 31170, Note_on_c, 10, 55, 118
11, 31194, Note_on_c, 10, 55, 0
11, 31200, Note_on_c, 10, 58, 121
11, 31224, Note_on_c, 10, 58, 0
11, 31230, Note_on_c, 10, 51, 101
11, 31254, Note_on_c, 10, 51, 0
11, 31258, Control_c, 10, 7, 110
11, 31260, Note_on_c, 10, 55, 118
11, 31284, Note_on_c, 10, 55, 0
11, 31290, Note_on_c, 10, 58, 109
11, 31314, Note_on_c, 10, 58, 0
11, 31320, Note_on_c, 10, 50, 95
11, 31344, Note_on_c, 10, 50, 0
11, 31350, Note_on_c, 10, 53, 123
11, 31374, Note_on_c, 10, 53, 0
11, 31380, Note_on_c, 10, 58, 99
11, 31404, Note_on_c, 10, 58, 0
11, 31410, Note_on_c, 10, 50, 109
11, 31434, Note_on_c, 10, 50, 0
11, 31440, Note_on_c, 10, 53, 125
11, 31464, Note_on_c, 10, 53, 0
11, 31470, Note_on_c, 10, 58, 97
11, 31494, Note_on_c, 10, 58, 0
11, 31500, Note_on_c, 10, 50, 50
11, 31524, Note_on_c, 10, 50, 0
11, 31530, Note_on_c, 10, 53, 114
11, 31554, Note_on_c, 10, 53, 0
11, 31560, Note_on_c, 10, 58, 93
11, 31584, Note_on_c, 10, 58, 0
11, 31590, Note_on_c, 10, 50, 98
11, 31614, Note_on_c, 10, 50, 0
11, 31620, Note_on_c, 10, 53, 111
11, 31644, Note_on_c, 10, 53, 0
11, 31650, Note_on_c, 10, 58, 87
11, 31674, Note_on_c, 10, 58, 0
11, 31680, Note_on_c, 10, 48, 110
11, 31704, Note_on_c, 10, 48, 0
11, 31710, Note_on_c, 10, 53, 113
11, 31734, Note_on_c, 10, 53, 0
11, 31740, Note_on_c, 10, 57, 98
11, 31764, Note_on_c, 10, 57, 0
11, 31770, Note_on_c, 10, 48, 94
11, 31794, Note_on_c, 10, 48, 0
11, 31800, Note_on_c, 10, 53, 109
11, 31824, Note_on_c, 10, 53, 0
11, 31830, Note_on_c, 10, 57, 112
11, 31854, Note_on_c, 10, 57, 0
11, 31860, Note_on_c, 10, 48, 109
11, 31884, Note_on_c, 10, 48, 0
11, 31890, Note_on_c, 10, 53, 125
11, 31914, Note_on_c, 10, 53, 0
11, 31920, Note_on_c, 10, 57, 100
11, 31944, Note_on_c, 10, 57, 0
11, 31950, Note_on_c, 10, 48, 102
11, 31974, Note_on_c, 10, 48, 0
11, 31980, Note_on_c, 10, 53, 101
11, 32004, Note_on_c, 10, 53, 0
11, 32010, Note_on_c, 10, 57, 109
11, 32034, Note_on_c, 10, 57, 0
11, 32040, Note_on_c, 10, 50, 86
11, 32064, Note_on_c, 10, 50, 0
11, 32070, Note_on_c, 10, 58, 101
11, 32094, Note_on_c, 10, 58, 0
11, 32100, Note_on_c, 10, 57, 109
11, 32124, Note_on_c, 10, 57, 0
11, 32130, Note_on_c, 10, 58, 83
11, 32154, Note_on_c, 10, 58, 0
11, 32160, Note_on_c, 10, 57, 106
11, 32184, Note_on_c, 10, 57, 0
11, 32190, Note_on_c, 10, 58, 76
11, 32214, Note_on_c, 10, 58, 0
11, 32220, Note_on_c, 10, 60, 97
11, 32244, Note_on_c, 10, 60, 0
11, 32250, Note_on_c, 10, 58, 99
11, 32274, Note_on_c, 10, 58, 0
11, 32280, Note_on_c, 10, 60, 98
11, 32304, Note_on_c, 10, 60, 0
11, 32310, Note_on_c, 10, 58, 94
11, 32334, Note_on_c, 10, 58, 0
11, 32340, Note_on_c, 10, 62, 112
11, 32364, Note_on_c, 10, 62, 0
11, 32370, Note_on_c, 10, 58, 96
11, 32394, Note_on_c, 10, 58, 0
11, 32400, Note_on_c, 10, 63, 97
11, 32424, Note_on_c, 10, 63, 0
11, 32430, Note_on_c, 10, 58, 88
11, 32454, Note_on_c, 10, 58, 0
11, 32460, Note_on_c, 10, 63, 88
11, 32484, Note_on_c, 10, 63, 0
11, 32490, Note_on_c, 10, 58, 82
11, 32514, Note_on_c, 10, 58, 0
11, 32520, Note_on_c, 10, 63, 90
11, 32544, Note_on_c, 10, 63, 0
11, 32550, Note_on_c, 10, 58, 91
11, 32574, Note_on_c, 10, 58, 0
11, 32580, Note_on_c, 10, 63, 101
11, 32604, Note_on_c, 10, 63, 0
11, 32610, Note_on_c, 10, 58, 89
11, 32634, Note_on_c, 10, 58, 0
11, 32640, Note_on_c, 10, 63, 101
11, 32664, Note_on_c, 10, 63, 0
11, 32670, Note_on_c, 10, 58, 88
11, 32694, Note_on_c, 10, 58, 0
11, 32700, Note_on_c, 10, 63, 103
11, 32724, Note_on_c, 10, 63, 0
11, 32730, Note_on_c, 10, 58, 80
11, 32754, Note_on_c, 10, 58, 0
11, 32760, Note_on_c, 10, 62, 106
11, 32784, Note_on_c, 10, 62, 0
11, 32790, Note_on_c, 10, 58, 87
11, 32814, Note_on_c, 10, 58, 0
11, 32820, Note_on_c, 10, 62, 97
11, 32844, Note_on_c, 10, 62, 0
11, 32850, Note_on_c, 10, 58, 81
11, 32874, Note_on_c, 10, 58, 0
11, 32880, Note_on_c, 10, 62, 100
11, 32904, Note_on_c, 10, 62, 0
11, 32910, Note_on_c, 10, 58, 90
11, 32934, Note_on_c, 10, 58, 0
11, 32940, Note_on_c, 10, 62, 105
11, 32964, Note_on_c, 10, 62, 0
11, 32970, Note_on_c, 10, 58, 94
11, 32994, Note_on_c, 10, 58, 0
11, 33000, Note_on_c, 10, 62, 105
11, 33024, Note_on_c, 10, 62, 0
11, 33030, Note_on_c, 10, 58, 79
11, 33054, Note_on_c, 10, 58, 0
11, 33060, Note_on_c, 10, 62, 99
11, 33084, Note_on_c, 10, 62, 0
11, 33090, Note_on_c, 10, 58, 83
11, 33114, Note_on_c, 10, 58, 0
11, 33120, Note_on_c, 10, 61, 93
11, 33144, Note_on_c, 10, 61, 0
11, 33150, Note_on_c, 10, 58, 100
11, 33174, Note_on_c, 10, 58, 0
11, 33180, Note_on_c, 10, 54, 96
11, 33204, Note_on_c, 10, 54, 0
11, 33210, Note_on_c, 10, 58, 78
11, 33234, Note_on_c, 10, 58, 0
11, 33240, Note_on_c, 10, 54, 82
11, 33264, Note_on_c, 10, 54, 0
11, 33270, Note_on_c, 10, 58, 83
11, 33294, Note_on_c, 10, 58, 0
11, 33300, Note_on_c, 10, 54, 90
11, 33324, Note_on_c, 10, 54, 0
11, 33330, Note_on_c, 10, 58, 80
11, 33354, Note_on_c, 10, 58, 0
11, 33360, Note_on_c, 10, 54, 89
11, 33384, Note_on_c, 10, 54, 0
11, 33390, Note_on_c, 10, 58, 99
11, 33414, Note_on_c, 10, 58, 0
11, 33420, Note_on_c, 10, 55, 99
11, 33444, Note_on_c, 10, 55, 0
11, 33450, Note_on_c, 10, 58, 101
11, 33474, Note_on_c, 10, 58, 0
11, 33480, Note_on_c, 10, 56, 103
11, 33480, Control_c, 10, 7, 121
11, 33492, Control_c, 10, 7, 120
11, 33502, Control_c, 10, 7, 119
11, 33504, Note_on_c, 10, 56, 0
11, 33510, Note_on_c, 10, 61, 80
11, 33512, Control_c, 10, 7, 118
11, 33522, Control_c, 10, 7, 117
11, 33532, Control_c, 10, 7, 116
11, 33534, Note_on_c, 10, 61, 0
11, 33540, Note_on_c, 10, 56, 79
11, 33542, Control_c, 10, 7, 115
11, 33552, Control_c, 10, 7, 114
11, 33562, Control_c, 10, 7, 113
11, 33564, Note_on_c, 10, 56, 0
11, 33570, Note_on_c, 10, 61, 82
11, 33572, Control_c, 10, 7, 112
11, 33582, Control_c, 10, 7, 111
11, 33592, Control_c, 10, 7, 110
11, 33594, Note_on_c, 10, 61, 0
11, 33600, Note_on_c, 10, 56, 82
11, 33602, Control_c, 10, 7, 109
11, 33612, Control_c, 10, 7, 108
11, 33622, Control_c, 10, 7, 107
11, 33624, Note_on_c, 10, 56, 0
11, 33630, Note_on_c, 10, 60, 110
11, 33632, Control_c, 10, 7, 106
11, 33642, Control_c, 10, 7, 105
11, 33652, Control_c, 10, 7, 104
11, 33654, Note_on_c, 10, 60, 0
11, 33660, Note_on_c, 10, 56, 86
11, 33662, Control_c, 10, 7, 103
11, 33672, Control_c, 10, 7, 102
11, 33682, Control_c, 10, 7, 101
11, 33684, Note_on_c, 10, 56, 0
11, 33690, Note_on_c, 10, 60, 102
11, 33692, Control_c, 10, 7, 100
11, 33702, Control_c, 10, 7, 99
11, 33712, Control_c, 10, 7, 98
11, 33714, Note_on_c, 10, 60, 0
11, 33720, Note_on_c, 10, 56, 88
11, 33722, Control_c, 10, 7, 97
11, 33732, Control_c, 10, 7, 96
11, 33742, Control_c, 10, 7, 95
11, 33744, Note_on_c, 10, 56, 0
11, 33750, Note_on_c, 10, 60, 109
11, 33752, Control_c, 10, 7, 94
11, 33762, Control_c, 10, 7, 93
11, 33772, Control_c, 10, 7, 92
11, 33774, Note_on_c, 10, 60, 0
11, 33780, Note_on_c, 10, 56, 91
11, 33782, Control_c, 10, 7, 91
11, 33792, Control_c, 10, 7, 90
11, 33802, Control_c, 10, 7, 89
11, 33804, Note_on_c, 10, 56, 0
11, 33810, Note_on_c, 10, 60, 99
11, 33812, Control_c, 10, 7, 88
11, 33822, Control_c, 10, 7, 87
11, 33832, Control_c, 10, 7, 86
11, 33834, Note_on_c, 10, 60, 0
11, 33840, Note_on_c, 10, 56, 83
11, 33842, Control_c, 10, 7, 85
11, 33864, Note_on_c, 10, 56, 0
11, 33870, Note_on_c, 10, 53, 111
11, 33894, Note_on_c, 10, 53, 0
11, 33900, Note_on_c, 10, 56, 83
11, 33924, Note_on_c, 10, 56, 0
11, 33930, Note_on_c, 10, 53, 103
11, 33954, Note_on_c, 10, 53, 0
11, 33960, Note_on_c, 10, 56, 80
11, 33984, Note_on_c, 10, 56, 0
11, 33990, Note_on_c, 10, 53, 101
11, 34014, Note_on_c, 10, 53, 0
11, 34020, Note_on_c, 10, 56, 81
11, 34044, Note_on_c, 10, 56, 0
11, 34050, Note_on_c, 10, 53, 105
11, 34074, Note_on_c, 10, 53, 0
11, 34080, Note_on_c, 10, 56, 86
11, 34104, Note_on_c, 10, 56, 0
11, 34110, Note_on_c, 10, 53, 98
11, 34134, Note_on_c, 10, 53, 0
11, 34140, Note_on_c, 10, 56, 81
11, 34164, Note_on_c, 10, 56, 0
11, 34170, Note_on_c, 10, 53, 105
11, 34194, Note_on_c, 10, 53, 0
11, 34200, Note_on_c, 10, 57, 106
11, 34224, Note_on_c, 10, 57, 0
11, 34230, Note_on_c, 10, 53, 99
11, 34254, Note_on_c, 10, 53, 0
11, 34260, Note_on_c, 10, 57, 96
11, 34284, Note_on_c, 10, 57, 0
11, 34290, Note_on_c, 10, 53, 100
11, 34314, Note_on_c, 10, 53, 0
11, 34320, Note_on_c, 10, 57, 99
11, 34344, Note_on_c, 10, 57, 0
11, 34350, Note_on_c, 10, 53, 101
11, 34374, Note_on_c, 10, 53, 0
11, 34380, Note_on_c, 10, 57, 101
11, 34404, Note_on_c, 10, 57, 0
11, 34410, Note_on_c, 10, 53, 109
11, 34434, Note_on_c, 10, 53, 0
11, 34440, Note_on_c, 10, 57, 107
11, 34464, Note_on_c, 10, 57, 0
11, 34470, Note_on_c, 10, 53, 105
11, 34494, Note_on_c, 10, 53, 0
11, 34500, Note_on_c, 10, 57, 98
11, 34524, Note_on_c, 10, 57, 0
11, 34530, Note_on_c, 10, 53, 98
11, 34554, Note_on_c, 10, 53, 0
11, 34560, Note_on_c, 10, 58, 107
11, 34584, Note_on_c, 10, 58, 0
11, 34590, Note_on_c, 10, 53, 100
11, 34614, Note_on_c, 10, 53, 0
11, 34620, Note_on_c, 10, 58, 100
11, 34644, Note_on_c, 10, 58, 0
11, 34650, Note_on_c, 10, 53, 108
11, 34674, Note_on_c, 10, 53, 0
11, 34680, Note_on_c, 10, 58, 99
11, 34704, Note_on_c, 10, 58, 0
11, 34710, Note_on_c, 10, 53, 105
11, 34734, Note_on_c, 10, 53, 0
11, 34740, Note_on_c, 10, 58, 97
11, 34764, Note_on_c, 10, 58, 0
11, 34770, Note_on_c, 10, 53, 101
11, 34794, Note_on_c, 10, 53, 0
11, 34800, Note_on_c, 10, 58, 99
11, 34824, Note_on_c, 10, 58, 0
11, 34830, Note_on_c, 10, 53, 109
11, 34854, Note_on_c, 10, 53, 0
11, 34860, Note_on_c, 10, 58, 93
11, 34884, Note_on_c, 10, 58, 0
11, 34890, Note_on_c, 10, 53, 94
11, 34914, Note_on_c, 10, 53, 0
11, 34920, Note_on_c, 10, 56, 105
11, 34944, Note_on_c, 10, 56, 0
11, 34950, Note_on_c, 10, 53, 104
11, 34974, Note_on_c, 10, 53, 0
11, 34980, Note_on_c, 10, 56, 96
11, 35004, Note_on_c, 10, 56, 0
11, 35010, Note_on_c, 10, 53, 105
11, 35034, Note_on_c, 10, 53, 0
11, 35040, Note_on_c, 10, 56, 85
11, 35064, Note_on_c, 10, 56, 0
11, 35070, Note_on_c, 10, 53, 108
11, 35094, Note_on_c, 10, 53, 0
11, 35100, Note_on_c, 10, 55, 108
11, 35124, Note_on_c, 10, 55, 0
11, 35130, Note_on_c, 10, 53, 98
11, 35154, Note_on_c, 10, 53, 0
11, 35160, Note_on_c, 10, 55, 103
11, 35184, Note_on_c, 10, 55, 0
11, 35190, Note_on_c, 10, 53, 99
11, 35214, Note_on_c, 10, 53, 0
11, 35220, Note_on_c, 10, 55, 101
11, 35244, Note_on_c, 10, 55, 0
11, 35250, Note_on_c, 10, 53, 95
11, 35274, Note_on_c, 10, 53, 0
11, 35280, Note_on_c, 10, 52, 103
11, 35280, Note_on_c, 10, 55, 105
11, 35568, Note_on_c, 10, 55, 0
11, 35568, Note_on_c, 10, 52, 0
11, 35640, Note_on_c, 10, 53, 102
11, 35640, Note_on_c, 10, 55, 103
11, 35916, Note_on_c, 10, 55, 0
11, 35916, Note_on_c, 10, 53, 0
11, 35940, Note_on_c, 10, 53, 101
11, 35940, Note_on_c, 10, 55, 101
11, 35940, Control_c, 10, 7, 110
11, 35988, Note_on_c, 10, 55, 0
11, 35988, Note_on_c, 10, 53, 0
11, 36000, Note_on_c, 10, 55, 95
11, 36000, Note_on_c, 10, 53, 96
11, 36228, Note_on_c, 10, 53, 0
11, 36228, Note_on_c, 10, 55, 0
11, 36300, Note_on_c, 10, 53, 105
11, 36300, Note_on_c, 10, 55, 104
11, 36348, Note_on_c, 10, 55, 0
11, 36348, Note_on_c, 10, 53, 0
11, 36360, Note_on_c, 10, 55, 108
11, 36360, Note_on_c, 10, 52, 103
11, 36588, Note_on_c, 10, 52, 0
11, 36588, Note_on_c, 10, 55, 0
11, 36660, Note_on_c, 10, 55, 109
11, 36660, Note_on_c, 10, 52, 106
11, 36708, Note_on_c, 10, 52, 0
11, 36708, Note_on_c, 10, 55, 0
11, 36720, Note_on_c, 10, 55, 121
11, 36720, Note_on_c, 10, 52, 110
11, 36720, Control_c, 10, 7, 90
11, 37008, Note_on_c, 10, 52, 0
11, 37008, Note_on_c, 10, 55, 0
11, 37080, Note_on_c, 10, 55, 103
11, 37080, Note_on_c, 10, 53, 102
11, 37372, Note_on_c, 10, 53, 0
11, 37372, Note_on_c, 10, 55, 0
11, 37380, Note_on_c, 10, 53, 111
11, 37380, Note_on_c, 10, 55, 110
11, 37382, Control_c, 10, 7, 110
11, 37428, Note_on_c, 10, 55, 0
11, 37428, Note_on_c, 10, 53, 0
11, 37440, Note_on_c, 10, 55, 97
11, 37440, Note_on_c, 10, 53, 101
11, 37668, Note_on_c, 10, 53, 0
11, 37668, Note_on_c, 10, 55, 0
11, 37740, Note_on_c, 10, 55, 100
11, 37740, Note_on_c, 10, 53, 101
11, 37788, Note_on_c, 10, 53, 0
11, 37788, Note_on_c, 10, 55, 0
11, 37800, Note_on_c, 10, 55, 100
11, 37800, Note_on_c, 10, 52, 102
11, 38028, Note_on_c, 10, 52, 0
11, 38028, Note_on_c, 10, 55, 0
11, 38100, Note_on_c, 10, 55, 107
11, 38100, Note_on_c, 10, 52, 107
11, 38148, Note_on_c, 10, 52, 0
11, 38148, Note_on_c, 10, 55, 0
11, 38160, Note_on_c, 10, 48, 116
11, 38184, Note_on_c, 10, 48, 0
11, 38190, Note_on_c, 10, 50, 125
11, 38214, Note_on_c, 10, 50, 0
11, 38220, Note_on_c, 10, 52, 118
11, 38244, Note_on_c, 10, 52, 0
11, 38250, Note_on_c, 10, 53, 109
11, 38274, Note_on_c, 10, 53, 0
11, 38280, Note_on_c, 10, 55, 120
11, 38304, Note_on_c, 10, 55, 0
11, 38310, Note_on_c, 10, 54, 97
11, 38334, Note_on_c, 10, 54, 0
11, 38340, Note_on_c, 10, 57, 117
11, 38364, Note_on_c, 10, 57, 0
11, 38370, Note_on_c, 10, 55, 127
11, 38394, Note_on_c, 10, 55, 0
11, 38400, Note_on_c, 10, 53, 112
11, 38424, Note_on_c, 10, 53, 0
11, 38430, Note_on_c, 10, 52, 101
11, 38454, Note_on_c, 10, 52, 0
11, 38460, Note_on_c, 10, 50, 101
11, 38484, Note_on_c, 10, 50, 0
11, 38490, Note_on_c, 10, 48, 98
11, 38514, Note_on_c, 10, 48, 0
11, 38520, Note_on_c, 10, 48, 120
11, 38544, Note_on_c, 10, 48, 0
11, 38550, Note_on_c, 10, 50, 120
11, 38574, Note_on_c, 10, 50, 0
11, 38580, Note_on_c, 10, 52, 111
11, 38604, Note_on_c, 10, 52, 0
11, 38610, Note_on_c, 10, 53, 110
11, 38634, Note_on_c, 10, 53, 0
11, 38640, Note_on_c, 10, 55, 117
11, 38664, Note_on_c, 10, 55, 0
11, 38670, Note_on_c, 10, 54, 81
11, 38694, Note_on_c, 10, 54, 0
11, 38700, Note_on_c, 10, 57, 113
11, 38724, Note_on_c, 10, 57, 0
11, 38730, Note_on_c, 10, 55, 105
11, 38754, Note_on_c, 10, 55, 0
11, 38760, Note_on_c, 10, 53, 127
11, 38784, Note_on_c, 10, 53, 0
11, 38790, Note_on_c, 10, 52, 105
11, 38814, Note_on_c, 10, 52, 0
11, 38820, Note_on_c, 10, 50, 98
11, 38844, Note_on_c, 10, 50, 0
11, 38850, Note_on_c, 10, 48, 104
11, 38874, Note_on_c, 10, 48, 0
11, 39600, Control_c, 10, 7, 90
11, 40320, Note_on_c, 10, 57, 127
11, 40322, Control_c, 10, 7, 85
11, 40344, Note_on_c, 10, 57, 0
11, 40350, Note_on_c, 10, 55, 120
11, 40374, Note_on_c, 10, 55, 0
11, 40380, Note_on_c, 10, 53, 111
11, 40404, Note_on_c, 10, 53, 0
11, 40410, Note_on_c, 10, 52, 103
11, 40434, Note_on_c, 10, 52, 0
11, 40440, Note_on_c, 10, 50, 95
11, 40464, Note_on_c, 10, 50, 0
11, 40470, Note_on_c, 10, 48, 109
11, 40494, Note_on_c, 10, 48, 0
11, 40500, Note_on_c, 10, 57, 127
11, 40524, Note_on_c, 10, 57, 0
11, 40530, Note_on_c, 10, 55, 116
11, 40554, Note_on_c, 10, 55, 0
11, 40560, Note_on_c, 10, 53, 104
11, 40584, Note_on_c, 10, 53, 0
11, 40590, Note_on_c, 10, 52, 106
11, 40614, Note_on_c, 10, 52, 0
11, 40620, Note_on_c, 10, 50, 99
11, 40644, Note_on_c, 10, 50, 0
11, 40650, Note_on_c, 10, 48, 97
11, 40674, Note_on_c, 10, 48, 0
11, 40680, Note_on_c, 10, 57, 107
11, 40704, Note_on_c, 10, 57, 0
11, 40710, Note_on_c, 10, 55, 123
11, 40734, Note_on_c, 10, 55, 0
11, 40740, Note_on_c, 10, 53, 110
11, 40764, Note_on_c, 10, 53, 0
11, 40770, Note_on_c, 10, 52, 92
11, 40794, Note_on_c, 10, 52, 0
11, 40800, Note_on_c, 10, 50, 101
11, 40824, Note_on_c, 10, 50, 0
11, 40830, Note_on_c, 10, 48, 99
11, 40854, Note_on_c, 10, 48, 0
11, 40860, Note_on_c, 10, 48, 106
11, 40860, Note_on_c, 10, 55, 97
11, 41688, Note_on_c, 10, 48, 0
11, 41692, Note_on_c, 10, 55, 0
11, 41700, Note_on_c, 10, 60, 96
11, 41748, Note_on_c, 10, 60, 0
11, 41760, Note_on_c, 10, 60, 92
11, 42756, Note_on_c, 10, 60, 0
11, 42780, Note_on_c, 10, 60, 103
11, 42828, Note_on_c, 10, 60, 0
11, 42840, Note_on_c, 10, 62, 102
11, 43116, Note_on_c, 10, 62, 0
11, 43140, Note_on_c, 10, 60, 100
11, 43188, Note_on_c, 10, 60, 0
11, 43200, Note_on_c, 10, 60, 101
11, 43476, Note_on_c, 10, 60, 0
11, 43500, Note_on_c, 10, 60, 116
11, 43548, Note_on_c, 10, 60, 0
11, 43560, Note_on_c, 10, 60, 113
11, 43704, Note_on_c, 10, 60, 0
11, 43740, Note_on_c, 10, 62, 50
11, 43836, Note_on_c, 10, 62, 0
11, 43860, Note_on_c, 10, 62, 105
11, 43908, Note_on_c, 10, 62, 0
11, 43920, Note_on_c, 10, 62, 117
11, 44064, Note_on_c, 10, 62, 0
11, 44100, Note_on_c, 10, 55, 125
11, 44196, Note_on_c, 10, 55, 0
11, 44220, Note_on_c, 10, 60, 100
11, 44268, Note_on_c, 10, 60, 0
11, 44280, Note_on_c, 10, 60, 99
11, 44568, Note_on_c, 10, 60, 0
11, 44640, Note_on_c, 10, 60, 102
11, 44640, Note_on_c, 10, 53, 101
11, 44736, Note_on_c, 10, 53, 0
11, 44736, Note_on_c, 10, 60, 0
11, 46380, Control_c, 10, 7, 83
11, 46406, Control_c, 10, 7, 84
11, 46432, Control_c, 10, 7, 85
11, 46458, Control_c, 10, 7, 86
11, 46484, Control_c, 10, 7, 87
11, 46510, Control_c, 10, 7, 88
11, 46536, Control_c, 10, 7, 89
11, 46562, Control_c, 10, 7, 90
11, 46588, Control_c, 10, 7, 91
11, 46614, Control_c, 10, 7, 92
11, 46640, Control_c, 10, 7, 93
11, 46666, Control_c, 10, 7, 94
11, 46692, Control_c, 10, 7, 95
11, 46718, Control_c, 10, 7, 96
11, 46744, Control_c, 10, 7, 97
11, 46770, Control_c, 10, 7, 98
11, 46796, Control_c, 10, 7, 99
11, 46822, Control_c, 10, 7, 100
11, 46848, Control_c, 10, 7, 101
11, 46874, Control_c, 10, 7, 102
11, 46900, Control_c, 10, 7, 103
11, 46926, Control_c, 10, 7, 104
11, 46950, Control_c, 10, 7, 105
11, 46976, Control_c, 10, 7, 106
11, 47002, Control_c, 10, 7, 107
11, 47028, Control_c, 10, 7, 108
11, 47054, Control_c, 10, 7, 109
11, 47080, Control_c, 10, 7, 110
11, 47100, Note_on_c, 10, 48, 103
11, 47106, Control_c, 10, 7, 111
11, 47132, Control_c, 10, 7, 112
11, 47148, Note_on_c, 10, 48, 0
11, 47158, Control_c, 10, 7, 113
11, 47160, Note_on_c, 10, 57, 105
11, 47160, Note_on_c, 10, 53, 104
11, 47176, Note_on_c, 10, 53, 0
11, 47176, Note_on_c, 10, 57, 0
11, 47180, Note_on_c, 10, 57, 109
11, 47180, Note_on_c, 10, 53, 109
11, 47184, Control_c, 10, 7, 114
11, 47196, Note_on_c, 10, 53, 0
11, 47196, Note_on_c, 10, 57, 0
11, 47200, Note_on_c, 10, 53, 103
11, 47200, Note_on_c, 10, 57, 102
11, 47210, Control_c, 10, 7, 115
11, 47216, Note_on_c, 10, 57, 0
11, 47216, Note_on_c, 10, 53, 0
11, 47220, Note_on_c, 10, 53, 107
11, 47220, Note_on_c, 10, 57, 117
11, 47236, Note_on_c, 10, 57, 0
11, 47236, Note_on_c, 10, 53, 0
11, 47236, Control_c, 10, 7, 116
11, 47240, Note_on_c, 10, 53, 104
11, 47240, Note_on_c, 10, 57, 109
11, 47256, Note_on_c, 10, 57, 0
11, 47256, Note_on_c, 10, 53, 0
11, 47260, Note_on_c, 10, 53, 103
11, 47260, Note_on_c, 10, 57, 110
11, 47262, Control_c, 10, 7, 117
11, 47276, Note_on_c, 10, 57, 0
11, 47276, Note_on_c, 10, 53, 0
11, 47280, Note_on_c, 10, 57, 112
11, 47280, Note_on_c, 10, 53, 103
11, 47288, Control_c, 10, 7, 118
11, 47296, Note_on_c, 10, 53, 0
11, 47296, Note_on_c, 10, 57, 0
11, 47300, Note_on_c, 10, 53, 106
11, 47300, Note_on_c, 10, 57, 109
11, 47314, Control_c, 10, 7, 119
11, 47316, Note_on_c, 10, 57, 0
11, 47316, Note_on_c, 10, 53, 0
11, 47320, Note_on_c, 10, 53, 101
11, 47320, Note_on_c, 10, 57, 108
11, 47336, Note_on_c, 10, 57, 0
11, 47336, Note_on_c, 10, 53, 0
11, 47340, Note_on_c, 10, 53, 105
11, 47340, Note_on_c, 10, 57, 109
11, 47340, Control_c, 10, 7, 120
11, 47356, Note_on_c, 10, 57, 0
11, 47356, Note_on_c, 10, 53, 0
11, 47360, Note_on_c, 10, 53, 108
11, 47360, Note_on_c, 10, 57, 114
11, 47366, Control_c, 10, 7, 121
11, 47376, Note_on_c, 10, 57, 0
11, 47376, Note_on_c, 10, 53, 0
11, 47380, Note_on_c, 10, 57, 108
11, 47380, Note_on_c, 10, 53, 103
11, 47392, Control_c, 10, 7, 122
11, 47396, Note_on_c, 10, 53, 0
11, 47396, Note_on_c, 10, 57, 0
11, 47400, Note_on_c, 10, 57, 113
11, 47400, Note_on_c, 10, 53, 104
11, 47416, Note_on_c, 10, 53, 0
11, 47416, Note_on_c, 10, 57, 0
11, 47418, Control_c, 10, 7, 123
11, 47420, Note_on_c, 10, 53, 109
11, 47420, Note_on_c, 10, 57, 114
11, 47436, Note_on_c, 10, 57, 0
11, 47436, Note_on_c, 10, 53, 0
11, 47440, Note_on_c, 10, 53, 101
11, 47440, Note_on_c, 10, 57, 110
11, 47444, Control_c, 10, 7, 124
11, 47456, Note_on_c, 10, 57, 0
11, 47456, Note_on_c, 10, 53, 0
11, 47460, Note_on_c, 10, 57, 121
11, 47460, Note_on_c, 10, 53, 109
11, 47470, Control_c, 10, 7, 125
11, 47476, Note_on_c, 10, 53, 0
11, 47476, Note_on_c, 10, 57, 0
11, 47480, Note_on_c, 10, 53, 107
11, 47480, Note_on_c, 10, 57, 111
11, 47496, Note_on_c, 10, 57, 0
11, 47496, Note_on_c, 10, 53, 0
11, 47496, Control_c, 10, 7, 126
11, 47500, Note_on_c, 10, 53, 102
11, 47500, Note_on_c, 10, 57, 114
11, 47516, Note_on_c, 10, 57, 0
11, 47516, Note_on_c, 10, 53, 0
11, 47520, Note_on_c, 10, 57, 109
11, 47520, Control_c, 10, 7, 127
11, 47544, Note_on_c, 10, 57, 0
11, 47550, Note_on_c, 10, 58, 99
11, 47574, Note_on_c, 10, 58, 0
11, 47580, Note_on_c, 10, 57, 111
11, 47604, Note_on_c, 10, 57, 0
11, 47610, Note_on_c, 10, 55, 108
11, 47634, Note_on_c, 10, 55, 0
11, 47640, Note_on_c, 10, 53, 102
11, 47664, Note_on_c, 10, 53, 0
11, 47670, Note_on_c, 10, 52, 103
11, 47694, Note_on_c, 10, 52, 0
11, 47700, Note_on_c, 10, 53, 102
11, 47724, Note_on_c, 10, 53, 0
11, 47730, Note_on_c, 10, 55, 99
11, 47754, Note_on_c, 10, 55, 0
11, 47760, Note_on_c, 10, 57, 125
11, 47784, Note_on_c, 10, 57, 0
11, 47790, Note_on_c, 10, 58, 101
11, 47814, Note_on_c, 10, 58, 0
11, 47820, Note_on_c, 10, 60, 118
11, 47844, Note_on_c, 10, 60, 0
11, 47850, Note_on_c, 10, 58, 113
11, 47874, Note_on_c, 10, 58, 0
11, 47880, Note_on_c, 10, 57, 125
11, 47904, Note_on_c, 10, 57, 0
11, 47910, Note_on_c, 10, 58, 105
11, 47934, Note_on_c, 10, 58, 0
11, 47940, Note_on_c, 10, 57, 107
11, 47964, Note_on_c, 10, 57, 0
11, 47970, Note_on_c, 10, 55, 108
11, 47994, Note_on_c, 10, 55, 0
11, 48000, Note_on_c, 10, 53, 106
11, 48024, Note_on_c, 10, 53, 0
11, 48030, Note_on_c, 10, 52, 106
11, 48054, Note_on_c, 10, 52, 0
11, 48060, Note_on_c, 10, 53, 102
11, 48084, Note_on_c, 10, 53, 0
11, 48090, Note_on_c, 10, 52, 103
11, 48114, Note_on_c, 10, 52, 0
11, 48120, Note_on_c, 10, 53, 107
11, 48144, Note_on_c, 10, 53, 0
11, 48150, Note_on_c, 10, 48, 103
11, 48174, Note_on_c, 10, 48, 0
11, 48180, Note_on_c, 10, 50, 127
11, 48204, Note_on_c, 10, 50, 0
11, 48210, Note_on_c, 10, 52, 127
11, 48234, Note_on_c, 10, 52, 0
11, 48240, Note_on_c, 10, 53, 125
11, 48264, Note_on_c, 10, 53, 0
11, 48270, Note_on_c, 10, 55, 107
11, 48294, Note_on_c, 10, 55, 0
11, 48300, Note_on_c, 10, 53, 113
11, 48324, Note_on_c, 10, 53, 0
11, 48330, Note_on_c, 10, 52, 104
11, 48354, Note_on_c, 10, 52, 0
11, 48360, Note_on_c, 10, 53, 117
11, 48384, Note_on_c, 10, 53, 0
11, 48390, Note_on_c, 10, 55, 113
11, 48414, Note_on_c, 10, 55, 0
11, 48420, Note_on_c, 10, 57, 127
11, 48444, Note_on_c, 10, 57, 0
11, 48450, Note_on_c, 10, 58, 97
11, 48474, Note_on_c, 10, 58, 0
11, 48480, Note_on_c, 10, 60, 108
11, 48504, Note_on_c, 10, 60, 0
11, 48510, Note_on_c, 10, 59, 117
11, 48534, Note_on_c, 10, 59, 0
11, 48540, Note_on_c, 10, 60, 108
11, 48564, Note_on_c, 10, 60, 0
11, 48570, Note_on_c, 10, 57, 127
11, 48594, Note_on_c, 10, 57, 0
11, 48600, Note_on_c, 10, 58, 105
11, 48624, Note_on_c, 10, 58, 0
11, 48630, Note_on_c, 10, 60, 114
11, 48654, Note_on_c, 10, 60, 0
11, 48660, Note_on_c, 10, 62, 114
11, 48684, Note_on_c, 10, 62, 0
11, 48690, Note_on_c, 10, 60, 118
11, 48714, Note_on_c, 10, 60, 0
11, 48720, Note_on_c, 10, 58, 92
11, 48744, Note_on_c, 10, 58, 0
11, 48750, Note_on_c, 10, 60, 127
11, 48774, Note_on_c, 10, 60, 0
11, 48780, Note_on_c, 10, 58, 75
11, 48804, Note_on_c, 10, 58, 0
11, 48810, Note_on_c, 10, 60, 112
11, 48834, Note_on_c, 10, 60, 0
11, 48840, Note_on_c, 10, 58, 105
11, 48864, Note_on_c, 10, 58, 0
11, 48870, Note_on_c, 10, 57, 108
11, 48894, Note_on_c, 10, 57, 0
11, 48900, Note_on_c, 10, 55, 110
11, 48924, Note_on_c, 10, 55, 0
11, 48930, Note_on_c, 10, 57, 114
11, 48954, Note_on_c, 10, 57, 0
11, 48960, Note_on_c, 10, 58, 115
11, 48984, Note_on_c, 10, 58, 0
11, 48990, Note_on_c, 10, 60, 100
11, 49014, Note_on_c, 10, 60, 0
11, 49020, Note_on_c, 10, 58, 96
11, 49044, Note_on_c, 10, 58, 0
11, 49050, Note_on_c, 10, 57, 113
11, 49074, Note_on_c, 10, 57, 0
11, 49080, Note_on_c, 10, 55, 107
11, 49104, Note_on_c, 10, 55, 0
11, 49110, Note_on_c, 10, 54, 92
11, 49134, Note_on_c, 10, 54, 0
11, 49140, Note_on_c, 10, 55, 108
11, 49164, Note_on_c, 10, 55, 0
11, 49170, Note_on_c, 10, 57, 125
11, 49194, Note_on_c, 10, 57, 0
11, 49200, Note_on_c, 10, 58, 113
11, 49224, Note_on_c, 10, 58, 0
11, 49230, Note_on_c, 10, 59, 107
11, 49254, Note_on_c, 10, 59, 0
11, 49260, Note_on_c, 10, 60, 108
11, 49284, Note_on_c, 10, 60, 0
11, 49290, Note_on_c, 10, 58, 84
11, 49314, Note_on_c, 10, 58, 0
11, 49320, Note_on_c, 10, 57, 125
11, 49344, Note_on_c, 10, 57, 0
11, 49350, Note_on_c, 10, 58, 105
11, 49374, Note_on_c, 10, 58, 0
11, 49380, Note_on_c, 10, 57, 113
11, 49404, Note_on_c, 10, 57, 0
11, 49410, Note_on_c, 10, 55, 110
11, 49434, Note_on_c, 10, 55, 0
11, 49440, Note_on_c, 10, 53, 102
11, 49464, Note_on_c, 10, 53, 0
11, 49470, Note_on_c, 10, 55, 114
11, 49494, Note_on_c, 10, 55, 0
11, 49500, Note_on_c, 10, 53, 108
11, 49524, Note_on_c, 10, 53, 0
11, 49530, Note_on_c, 10, 55, 127
11, 49554, Note_on_c, 10, 55, 0
11, 49560, Note_on_c, 10, 53, 114
11, 49584, Note_on_c, 10, 53, 0
11, 49590, Note_on_c, 10, 52, 112
11, 49614, Note_on_c, 10, 52, 0
11, 49620, Note_on_c, 10, 53, 125
11, 49644, Note_on_c, 10, 53, 0
11, 49650, Note_on_c, 10, 57, 108
11, 49674, Note_on_c, 10, 57, 0
11, 49680, Note_on_c, 10, 57, 127
11, 49704, Note_on_c, 10, 57, 0
11, 49710, Note_on_c, 10, 55, 127
11, 49734, Note_on_c, 10, 55, 0
11, 49740, Note_on_c, 10, 53, 127
11, 49764, Note_on_c, 10, 53, 0
11, 49770, Note_on_c, 10, 55, 121
11, 49794, Note_on_c, 10, 55, 0
11, 49800, Note_on_c, 10, 50, 101
11, 49824, Note_on_c, 10, 50, 0
11, 49830, Note_on_c, 10, 55, 109
11, 49854, Note_on_c, 10, 55, 0
11, 49860, Note_on_c, 10, 53, 127
11, 49884, Note_on_c, 10, 53, 0
11, 49890, Note_on_c, 10, 52, 125
11, 49914, Note_on_c, 10, 52, 0
11, 49920, Note_on_c, 10, 50, 101
11, 49944, Note_on_c, 10, 50, 0
11, 49950, Note_on_c, 10, 52, 114
11, 49974, Note_on_c, 10, 52, 0
11, 49980, Note_on_c, 10, 48, 104
11, 50004, Note_on_c, 10, 48, 0
11, 50010, Note_on_c, 10, 52, 118
11, 50034, Note_on_c, 10, 52, 0
11, 50040, Note_on_c, 10, 48, 106
11, 50088, Note_on_c, 10, 48, 0
11, 50100, Note_on_c, 10, 53, 120
11, 50196, Note_on_c, 10, 53, 0
11, 50220, Note_on_c, 10, 48, 103
11, 50268, Note_on_c, 10, 48, 0
11, 50280, Note_on_c, 10, 55, 111
11, 50376, Note_on_c, 10, 55, 0
11, 50400, Note_on_c, 10, 48, 116
11, 50448, Note_on_c, 10, 48, 0
11, 50460, Note_on_c, 10, 57, 100
11, 50556, Note_on_c, 10, 57, 0
11, 50580, Note_on_c, 10, 60, 117
11, 50628, Note_on_c, 10, 60, 0
11, 50640, Note_on_c, 10, 58, 100
11, 50688, Note_on_c, 10, 58, 0
11, 50700, Note_on_c, 10, 55, 99
11, 50724, Note_on_c, 10, 55, 0
11, 50730, Note_on_c, 10, 52, 125
11, 50754, Note_on_c, 10, 52, 0
11, 50760, Note_on_c, 10, 48, 109
11, 50784, Note_on_c, 10, 48, 0
11, 50790, Note_on_c, 10, 53, 127
11, 50814, Note_on_c, 10, 53, 0
11, 50820, Note_on_c, 10, 57, 109
11, 50844, Note_on_c, 10, 57, 0
11, 50850, Note_on_c, 10, 60, 110
11, 50874, Note_on_c, 10, 60, 0
11, 50880, Note_on_c, 10, 57, 112
11, 50904, Note_on_c, 10, 57, 0
11, 50910, Note_on_c, 10, 53, 109
11, 50934, Note_on_c, 10, 53, 0
11, 50940, Note_on_c, 10, 48, 118
11, 50964, Note_on_c, 10, 48, 0
11, 50970, Note_on_c, 10, 55, 98
11, 50994, Note_on_c, 10, 55, 0
11, 51000, Note_on_c, 10, 58, 94
11, 51024, Note_on_c, 10, 58, 0
11, 51030, Note_on_c, 10, 60, 107
11, 51054, Note_on_c, 10, 60, 0
11, 51060, Note_on_c, 10, 58, 81
11, 51084, Note_on_c, 10, 58, 0
11, 51090, Note_on_c, 10, 55, 114
11, 51114, Note_on_c, 10, 55, 0
11, 51120, Note_on_c, 10, 48, 123
11, 51144, Note_on_c, 10, 48, 0
11, 51150, Note_on_c, 10, 53, 127
11, 51174, Note_on_c, 10, 53, 0
11, 51180, Note_on_c, 10, 57, 110
11, 51204, Note_on_c, 10, 57, 0
11, 51210, Note_on_c, 10, 60, 108
11, 51234, Note_on_c, 10, 60, 0
11, 51240, Note_on_c, 10, 57, 114
11, 51264, Note_on_c, 10, 57, 0
11, 51270, Note_on_c, 10, 53, 114
11, 51294, Note_on_c, 10, 53, 0
11, 51300, Note_on_c, 10, 48, 109
11, 51324, Note_on_c, 10, 48, 0
11, 51330, Note_on_c, 10, 55, 105
11, 51354, Note_on_c, 10, 55, 0
11, 51360, Note_on_c, 10, 58, 111
11, 51384, Note_on_c, 10, 58, 0
11, 51390, Note_on_c, 10, 60, 123
11, 51414, Note_on_c, 10, 60, 0
11, 51420, Note_on_c, 10, 48, 96
11, 51468, Note_on_c, 10, 48, 0
11, 51480, Note_on_c, 10, 48, 113
11, 51528, Note_on_c, 10, 48, 0
11, 51540, Note_on_c, 10, 53, 120
11, 51588, Note_on_c, 10, 53, 0
11, 51600, Note_on_c, 10, 53, 110
11, 51612, Note_on_c, 10, 53, 0
11, 51615, Note_on_c, 10, 55, 99
11, 51627, Note_on_c, 10, 55, 0
11, 51630, Note_on_c, 10, 53, 113
11, 51642, Note_on_c, 10, 53, 0
11, 51645, Note_on_c, 10, 55, 107
11, 51657, Note_on_c, 10, 55, 0
11, 51660, Note_on_c, 10, 48, 107
11, 51708, Note_on_c, 10, 48, 0
11, 51720, Note_on_c, 10, 55, 116
11, 51768, Note_on_c, 10, 55, 0
11, 51780, Note_on_c, 10, 55, 103
11, 51792, Note_on_c, 10, 55, 0
11, 51795, Note_on_c, 10, 57, 107
11, 51807, Note_on_c, 10, 57, 0
11, 51810, Note_on_c, 10, 55, 100
11, 51822, Note_on_c, 10, 55, 0
11, 51825, Note_on_c, 10, 57, 114
11, 51837, Note_on_c, 10, 57, 0
11, 51840, Note_on_c, 10, 48, 103
11, 51888, Note_on_c, 10, 48, 0
11, 51900, Note_on_c, 10, 53, 116
11, 51948, Note_on_c, 10, 53, 0
11, 51960, Note_on_c, 10, 57, 107
11, 51972, Note_on_c, 10, 57, 0
11, 51975, Note_on_c, 10, 58, 100
11, 51987, Note_on_c, 10, 58, 0
11, 51990, Note_on_c, 10, 57, 109
11, 52002, Note_on_c, 10, 57, 0
11, 52005, Note_on_c, 10, 58, 105
11, 52017, Note_on_c, 10, 58, 0
11, 52020, Note_on_c, 10, 60, 104
11, 52068, Note_on_c, 10, 60, 0
11, 52080, Note_on_c, 10, 59, 103
11, 52128, Note_on_c, 10, 59, 0
11, 52140, Note_on_c, 10, 53, 105
11, 52164, Note_on_c, 10, 53, 0
11, 52170, Note_on_c, 10, 50, 97
11, 52194, Note_on_c, 10, 50, 0
11, 52380, Note_on_c, 10, 64, 103
11, 52428, Note_on_c, 10, 64, 0
11, 52440, Note_on_c, 10, 62, 97
11, 52488, Note_on_c, 10, 62, 0
11, 52500, Note_on_c, 10, 59, 99
11, 52524, Note_on_c, 10, 59, 0
11, 52530, Note_on_c, 10, 55, 94
11, 52554, Note_on_c, 10, 55, 0
11, 52740, Note_on_c, 10, 67, 50
11, 52788, Note_on_c, 10, 67, 0
11, 52800, Note_on_c, 10, 65, 98
11, 52848, Note_on_c, 10, 65, 0
11, 52860, Note_on_c, 10, 62, 114
11, 52884, Note_on_c, 10, 62, 0
11, 52890, Note_on_c, 10, 59, 102
11, 52914, Note_on_c, 10, 59, 0
11, 52920, Note_on_c, 10, 52, 100
11, 52944, Note_on_c, 10, 52, 0
11, 52950, Note_on_c, 10, 55, 127
11, 52974, Note_on_c, 10, 55, 0
11, 52980, Note_on_c, 10, 52, 118
11, 53004, Note_on_c, 10, 52, 0
11, 53010, Note_on_c, 10, 55, 120
11, 53034, Note_on_c, 10, 55, 0
11, 53040, Note_on_c, 10, 52, 117
11, 53064, Note_on_c, 10, 52, 0
11, 53070, Note_on_c, 10, 55, 118
11, 53094, Note_on_c, 10, 55, 0
11, 53100, Note_on_c, 10, 53, 113
11, 53124, Note_on_c, 10, 53, 0
11, 53130, Note_on_c, 10, 57, 113
11, 53154, Note_on_c, 10, 57, 0
11, 53160, Note_on_c, 10, 53, 112
11, 53184, Note_on_c, 10, 53, 0
11, 53190, Note_on_c, 10, 57, 125
11, 53214, Note_on_c, 10, 57, 0
11, 53220, Note_on_c, 10, 53, 114
11, 53244, Note_on_c, 10, 53, 0
11, 53250, Note_on_c, 10, 57, 123
11, 53274, Note_on_c, 10, 57, 0
11, 53280, Note_on_c, 10, 55, 112
11, 53304, Note_on_c, 10, 55, 0
11, 53310, Note_on_c, 10, 58, 105
11, 53334, Note_on_c, 10, 58, 0
11, 53340, Note_on_c, 10, 55, 109
11, 53364, Note_on_c, 10, 55, 0
11, 53370, Note_on_c, 10, 58, 94
11, 53394, Note_on_c, 10, 58, 0
11, 53400, Note_on_c, 10, 55, 109
11, 53424, Note_on_c, 10, 55, 0
11, 53430, Note_on_c, 10, 58, 78
11, 53454, Note_on_c, 10, 58, 0
11, 53460, Note_on_c, 10, 56, 92
11, 53484, Note_on_c, 10, 56, 0
11, 53490, Note_on_c, 10, 59, 101
11, 53514, Note_on_c, 10, 59, 0
11, 53520, Note_on_c, 10, 56, 86
11, 53544, Note_on_c, 10, 56, 0
11, 53550, Note_on_c, 10, 59, 101
11, 53574, Note_on_c, 10, 59, 0
11, 53580, Note_on_c, 10, 56, 87
11, 53604, Note_on_c, 10, 56, 0
11, 53610, Note_on_c, 10, 59, 107
11, 53634, Note_on_c, 10, 59, 0
11, 53640, Note_on_c, 10, 60, 101
11, 53640, Note_on_c, 10, 48, 109
11, 53928, Note_on_c, 10, 48, 0
11, 53928, Note_on_c, 10, 60, 0
11, 54000, Note_on_c, 10, 62, 117
11, 54048, Note_on_c, 10, 62, 0
11, 54060, Note_on_c, 10, 60, 112
11, 54108, Note_on_c, 10, 60, 0
11, 54120, Note_on_c, 10, 57, 105
11, 54144, Note_on_c, 10, 57, 0
11, 54150, Note_on_c, 10, 53, 98
11, 54174, Note_on_c, 10, 53, 0
11, 54210, Note_on_c, 10, 48, 112
11, 54234, Note_on_c, 10, 48, 0
11, 54240, Note_on_c, 10, 53, 102
11, 54264, Note_on_c, 10, 53, 0
11, 54270, Note_on_c, 10, 57, 107
11, 54294, Note_on_c, 10, 57, 0
11, 54300, Note_on_c, 10, 60, 104
11, 54324, Note_on_c, 10, 60, 0
11, 54330, Note_on_c, 10, 60, 120
11, 54354, Note_on_c, 10, 60, 0
11, 54360, Note_on_c, 10, 60, 111
11, 54360, Note_on_c, 10, 48, 109
11, 54648, Note_on_c, 10, 48, 0
11, 54648, Note_on_c, 10, 60, 0
11, 54720, Note_on_c, 10, 60, 121
11, 54768, Note_on_c, 10, 60, 0
11, 54780, Note_on_c, 10, 58, 103
11, 54828, Note_on_c, 10, 58, 0
11, 54840, Note_on_c, 10, 55, 102
11, 54864, Note_on_c, 10, 55, 0
11, 54870, Note_on_c, 10, 52, 104
11, 54894, Note_on_c, 10, 52, 0
11, 54930, Note_on_c, 10, 48, 101
11, 54954, Note_on_c, 10, 48, 0
11, 54960, Note_on_c, 10, 53, 123
11, 54984, Note_on_c, 10, 53, 0
11, 54990, Note_on_c, 10, 57, 116
11, 55014, Note_on_c, 10, 57, 0
11, 55020, Note_on_c, 10, 60, 111
11, 55044, Note_on_c, 10, 60, 0
11, 55050, Note_on_c, 10, 60, 127
11, 55074, Note_on_c, 10, 60, 0
11, 55080, Note_on_c, 10, 60, 109
11, 55080, Note_on_c, 10, 48, 104
11, 55368, Note_on_c, 10, 48, 0
11, 55368, Note_on_c, 10, 60, 0
11, 55440, Note_on_c, 10, 62, 123
11, 55464, Note_on_c, 10, 62, 0
11, 55470, Note_on_c, 10, 60, 118
11, 55494, Note_on_c, 10, 60, 0
11, 55500, Note_on_c, 10, 59, 121
11, 55524, Note_on_c, 10, 59, 0
11, 55530, Note_on_c, 10, 60, 107
11, 55554, Note_on_c, 10, 60, 0
11, 55560, Note_on_c, 10, 57, 113
11, 55584, Note_on_c, 10, 57, 0
11, 55590, Note_on_c, 10, 53, 107
11, 55614, Note_on_c, 10, 53, 0
11, 55650, Note_on_c, 10, 48, 103
11, 55674, Note_on_c, 10, 48, 0
11, 55680, Note_on_c, 10, 53, 121
11, 55704, Note_on_c, 10, 53, 0
11, 55710, Note_on_c, 10, 57, 123
11, 55734, Note_on_c, 10, 57, 0
11, 55740, Note_on_c, 10, 60, 116
11, 55764, Note_on_c, 10, 60, 0
11, 55770, Note_on_c, 10, 60, 125
11, 55794, Note_on_c, 10, 60, 0
11, 55800, Note_on_c, 10, 60, 114
11, 55800, Note_on_c, 10, 48, 116
11, 56088, Note_on_c, 10, 48, 0
11, 56088, Note_on_c, 10, 60, 0
11, 56160, Note_on_c, 10, 60, 121
11, 56184, Note_on_c, 10, 60, 0
11, 56190, Note_on_c, 10, 58, 101
11, 56214, Note_on_c, 10, 58, 0
11, 56220, Note_on_c, 10, 55, 109
11, 56244, Note_on_c, 10, 55, 0
11, 56250, Note_on_c, 10, 58, 107
11, 56274, Note_on_c, 10, 58, 0
11, 56280, Note_on_c, 10, 55, 127
11, 56304, Note_on_c, 10, 55, 0
11, 56310, Note_on_c, 10, 52, 104
11, 56334, Note_on_c, 10, 52, 0
11, 56340, Note_on_c, 10, 48, 113
11, 56364, Note_on_c, 10, 48, 0
11, 56370, Note_on_c, 10, 58, 97
11, 56394, Note_on_c, 10, 58, 0
11, 56400, Note_on_c, 10, 55, 111
11, 56424, Note_on_c, 10, 55, 0
11, 56430, Note_on_c, 10, 52, 107
11, 56454, Note_on_c, 10, 52, 0
11, 56460, Note_on_c, 10, 48, 107
11, 56484, Note_on_c, 10, 48, 0
11, 56490, Note_on_c, 10, 60, 86
11, 56514, Note_on_c, 10, 60, 0
11, 56520, Note_on_c, 10, 53, 109
11, 56616, Note_on_c, 10, 53, 0
11, 56698, Control_c, 10, 7, 87
11, 56708, Control_c, 10, 7, 88
11, 56718, Control_c, 10, 7, 89
11, 56726, Control_c, 10, 7, 90
11, 56736, Control_c, 10, 7, 91
11, 56746, Control_c, 10, 7, 92
11, 56754, Control_c, 10, 7, 93
11, 56764, Control_c, 10, 7, 94
11, 56772, Control_c, 10, 7, 95
11, 56782, Control_c, 10, 7, 96
11, 56792, Control_c, 10, 7, 97
11, 56800, Control_c, 10, 7, 98
11, 56810, Control_c, 10, 7, 99
11, 56820, Control_c, 10, 7, 100
11, 56828, Control_c, 10, 7, 101
11, 56838, Control_c, 10, 7, 102
11, 56846, Control_c, 10, 7, 103
11, 56856, Control_c, 10, 7, 104
11, 56866, Control_c, 10, 7, 105
11, 56874, Control_c, 10, 7, 106
11, 56884, Control_c, 10, 7, 107
11, 56894, Control_c, 10, 7, 108
11, 56902, Control_c, 10, 7, 109
11, 56912, Control_c, 10, 7, 110
11, 56920, Control_c, 10, 7, 111
11, 56930, Control_c, 10, 7, 112
11, 56940, Control_c, 10, 7, 113
11, 56948, Control_c, 10, 7, 114
11, 56958, Control_c, 10, 7, 115
11, 56968, Control_c, 10, 7, 116
11, 56976, Control_c, 10, 7, 117
11, 56986, Control_c, 10, 7, 118
11, 56994, Control_c, 10, 7, 119
11, 57004, Control_c, 10, 7, 120
11, 57014, Control_c, 10, 7, 121
11, 57022, Control_c, 10, 7, 122
11, 57032, Control_c, 10, 7, 123
11, 57042, Control_c, 10, 7, 124
11, 57050, Control_c, 10, 7, 125
11, 57060, Control_c, 10, 7, 126
11, 57068, Control_c, 10, 7, 127
11, 57240, Note_on_c, 10, 53, 102
11, 57264, Note_on_c, 10, 53, 0
11, 57270, Note_on_c, 10, 65, 117
11, 57294, Note_on_c, 10, 65, 0
11, 57300, Note_on_c, 10, 64, 111
11, 57324, Note_on_c, 10, 64, 0
11, 57330, Note_on_c, 10, 65, 117
11, 57354, Note_on_c, 10, 65, 0
11, 57360, Note_on_c, 10, 67, 107
11, 57360, Control_c, 10, 7, 87
11, 57372, Control_c, 10, 7, 88
11, 57382, Control_c, 10, 7, 89
11, 57384, Note_on_c, 10, 67, 0
11, 57390, Note_on_c, 10, 65, 111
11, 57392, Control_c, 10, 7, 90
11, 57404, Control_c, 10, 7, 91
11, 57414, Note_on_c, 10, 65, 0
11, 57414, Control_c, 10, 7, 92
11, 57420, Note_on_c, 10, 62, 99
11, 57424, Control_c, 10, 7, 93
11, 57434, Control_c, 10, 7, 94
11, 57444, Note_on_c, 10, 62, 0
11, 57446, Control_c, 10, 7, 95
11, 57450, Note_on_c, 10, 65, 117
11, 57456, Control_c, 10, 7, 96
11, 57466, Control_c, 10, 7, 97
11, 57474, Note_on_c, 10, 65, 0
11, 57478, Control_c, 10, 7, 98
11, 57480, Note_on_c, 10, 60, 108
11, 57488, Control_c, 10, 7, 99
11, 57498, Control_c, 10, 7, 100
11, 57504, Note_on_c, 10, 60, 0
11, 57508, Control_c, 10, 7, 101
11, 57510, Note_on_c, 10, 65, 120
11, 57520, Control_c, 10, 7, 102
11, 57530, Control_c, 10, 7, 103
11, 57534, Note_on_c, 10, 65, 0
11, 57540, Note_on_c, 10, 58, 90
11, 57540, Control_c, 10, 7, 104
11, 57550, Control_c, 10, 7, 105
11, 57562, Control_c, 10, 7, 106
11, 57564, Note_on_c, 10, 58, 0
11, 57570, Note_on_c, 10, 65, 107
11, 57572, Control_c, 10, 7, 107
11, 57582, Control_c, 10, 7, 108
11, 57594, Note_on_c, 10, 65, 0
11, 57594, Control_c, 10, 7, 109
11, 57600, Note_on_c, 10, 57, 118
11, 57604, Control_c, 10, 7, 110
11, 57614, Control_c, 10, 7, 111
11, 57624, Note_on_c, 10, 57, 0
11, 57624, Control_c, 10, 7, 112
11, 57630, Note_on_c, 10, 60, 109
11, 57636, Control_c, 10, 7, 113
11, 57646, Control_c, 10, 7, 114
11, 57654, Note_on_c, 10, 60, 0
11, 57656, Control_c, 10, 7, 115
11, 57660, Note_on_c, 10, 55, 106
11, 57666, Control_c, 10, 7, 116
11, 57678, Control_c, 10, 7, 117
11, 57684, Note_on_c, 10, 55, 0
11, 57688, Control_c, 10, 7, 118
11, 57690, Note_on_c, 10, 60, 106
11, 57698, Control_c, 10, 7, 119
11, 57710, Control_c, 10, 7, 120
11, 57714, Note_on_c, 10, 60, 0
11, 57720, Note_on_c, 10, 53, 100
11, 57720, Control_c, 10, 7, 121
11, 57730, Control_c, 10, 7, 122
11, 57740, Control_c, 10, 7, 123
11, 57744, Note_on_c, 10, 53, 0
11, 57750, Note_on_c, 10, 60, 120
11, 57752, Control_c, 10, 7, 124
11, 57762, Control_c, 10, 7, 125
11, 57772, Control_c, 10, 7, 126
11, 57774, Note_on_c, 10, 60, 0
11, 57780, Note_on_c, 10, 48, 105
11, 57782, Control_c, 10, 7, 127
11, 57804, Note_on_c, 10, 48, 0
11, 57810, Note_on_c, 10, 52, 116
11, 57834, Note_on_c, 10, 52, 0
11, 57840, Note_on_c, 10, 55, 99
11, 57864, Note_on_c, 10, 55, 0
11, 57870, Note_on_c, 10, 60, 114
11, 57894, Note_on_c, 10, 60, 0
11, 57900, Note_on_c, 10, 48, 105
11, 57924, Note_on_c, 10, 48, 0
11, 57930, Note_on_c, 10, 60, 108
11, 57954, Note_on_c, 10, 60, 0
11, 57960, Note_on_c, 10, 60, 125
11, 58104, Note_on_c, 10, 60, 0
11, 58140, Note_on_c, 10, 57, 101
11, 58188, Note_on_c, 10, 57, 0
11, 58260, Note_on_c, 10, 60, 112
11, 58308, Note_on_c, 10, 60, 0
11, 58320, Note_on_c, 10, 62, 125
11, 58464, Note_on_c, 10, 62, 0
11, 58500, Note_on_c, 10, 58, 80
11, 58548, Note_on_c, 10, 58, 0
11, 58620, Note_on_c, 10, 58, 126
11, 58668, Note_on_c, 10, 58, 0
11, 58680, Note_on_c, 10, 53, 111
11, 58680, Control_c, 10, 7, 117
11, 58690, Control_c, 10, 7, 116
11, 58700, Control_c, 10, 7, 115
11, 58708, Control_c, 10, 7, 114
11, 58718, Control_c, 10, 7, 113
11, 58726, Control_c, 10, 7, 112
11, 58728, Control_c, 10, 7, 125
11, 58736, Control_c, 10, 7, 124
11, 58742, Control_c, 10, 7, 123
11, 58750, Control_c, 10, 7, 122
11, 58756, Control_c, 10, 7, 121
11, 58762, Control_c, 10, 7, 120
11, 58770, Control_c, 10, 7, 119
11, 58776, Control_c, 10, 7, 118
11, 58784, Control_c, 10, 7, 117
11, 58790, Control_c, 10, 7, 116
11, 58796, Control_c, 10, 7, 115
11, 58804, Control_c, 10, 7, 114
11, 58810, Control_c, 10, 7, 113
11, 58816, Control_c, 10, 7, 112
11, 58824, Control_c, 10, 7, 111
11, 58830, Control_c, 10, 7, 110
11, 58838, Control_c, 10, 7, 109
11, 58844, Control_c, 10, 7, 108
11, 58850, Control_c, 10, 7, 107
11, 58858, Control_c, 10, 7, 106
11, 58864, Control_c, 10, 7, 105
11, 58870, Control_c, 10, 7, 104
11, 58878, Control_c, 10, 7, 103
11, 58884, Control_c, 10, 7, 102
11, 58892, Control_c, 10, 7, 101
11, 58898, Control_c, 10, 7, 100
11, 58904, Control_c, 10, 7, 99
11, 58912, Control_c, 10, 7, 98
11, 58918, Control_c, 10, 7, 97
11, 58924, Control_c, 10, 7, 96
11, 58932, Control_c, 10, 7, 95
11, 58938, Control_c, 10, 7, 94
11, 58946, Control_c, 10, 7, 93
11, 58952, Control_c, 10, 7, 92
11, 58958, Control_c, 10, 7, 91
11, 58966, Control_c, 10, 7, 90
11, 58972, Control_c, 10, 7, 89
11, 58978, Control_c, 10, 7, 88
11, 58982, Control_c, 10, 7, 84
11, 59760, Control_c, 10, 7, 85
11, 60576, Note_on_c, 10, 53, 0
11, 61560, Control_c, 10, 7, 84
11, 61588, Control_c, 10, 7, 85
11, 61614, Control_c, 10, 7, 86
11, 61640, Control_c, 10, 7, 87
11, 61668, Control_c, 10, 7, 88
11, 61694, Control_c, 10, 7, 89
11, 61720, Control_c, 10, 7, 90
11, 61746, Control_c, 10, 7, 91
11, 61774, Control_c, 10, 7, 92
11, 61800, Control_c, 10, 7, 93
11, 61826, Control_c, 10, 7, 94
11, 61852, Control_c, 10, 7, 95
11, 61860, Note_on_c, 10, 55, 120
11, 61880, Control_c, 10, 7, 96
11, 61906, Control_c, 10, 7, 97
11, 61908, Note_on_c, 10, 55, 0
11, 61920, Note_on_c, 10, 52, 116
11, 61932, Control_c, 10, 7, 98
11, 61958, Control_c, 10, 7, 99
11, 61968, Note_on_c, 10, 52, 0
11, 61980, Note_on_c, 10, 48, 103
11, 61986, Control_c, 10, 7, 100
11, 62012, Control_c, 10, 7, 101
11, 62028, Note_on_c, 10, 48, 0
11, 62038, Control_c, 10, 7, 102
11, 62040, Note_on_c, 10, 55, 87
11, 62064, Control_c, 10, 7, 103
11, 62088, Note_on_c, 10, 55, 0
11, 62092, Control_c, 10, 7, 104
11, 62100, Note_on_c, 10, 52, 91
11, 62118, Control_c, 10, 7, 105
11, 62144, Control_c, 10, 7, 106
11, 62148, Note_on_c, 10, 52, 0
11, 62160, Note_on_c, 10, 48, 106
11, 62170, Control_c, 10, 7, 107
11, 62198, Control_c, 10, 7, 108
11, 62208, Note_on_c, 10, 48, 0
11, 62220, Note_on_c, 10, 60, 99
11, 62224, Control_c, 10, 7, 109
11, 62250, Control_c, 10, 7, 110
11, 62268, Note_on_c, 10, 60, 0
11, 62276, Control_c, 10, 7, 111
11, 62280, Note_on_c, 10, 55, 105
11, 62304, Control_c, 10, 7, 112
11, 62328, Note_on_c, 10, 55, 0
11, 62330, Control_c, 10, 7, 113
11, 62340, Note_on_c, 10, 52, 118
11, 62356, Control_c, 10, 7, 114
11, 62382, Control_c, 10, 7, 115
11, 62388, Note_on_c, 10, 52, 0
11, 62400, Note_on_c, 10, 64, 98
11, 62410, Control_c, 10, 7, 116
11, 62436, Control_c, 10, 7, 117
11, 62448, Note_on_c, 10, 64, 0
11, 62460, Note_on_c, 10, 60, 109
11, 62462, Control_c, 10, 7, 118
11, 62488, Control_c, 10, 7, 119
11, 62508, Note_on_c, 10, 60, 0
11, 62516, Control_c, 10, 7, 120
11, 62520, Note_on_c, 10, 55, 101
11, 62542, Control_c, 10, 7, 121
11, 62568, Note_on_c, 10, 55, 0
11, 62568, Control_c, 10, 7, 122
11, 62580, Note_on_c, 10, 48, 103
11, 62580, Note_on_c, 10, 60, 100
11, 62594, Control_c, 10, 7, 123
11, 62596, Note_on_c, 10, 60, 0
11, 62596, Note_on_c, 10, 48, 0
11, 62600, Note_on_c, 10, 60, 104
11, 62600, Note_on_c, 10, 48, 111
11, 62616, Note_on_c, 10, 48, 0
11, 62616, Note_on_c, 10, 60, 0
11, 62620, Note_on_c, 10, 48, 114
11, 62620, Note_on_c, 10, 60, 103
11, 62622, Control_c, 10, 7, 124
11, 62636, Note_on_c, 10, 60, 0
11, 62636, Note_on_c, 10, 48, 0
11, 62640, Note_on_c, 10, 60, 102
11, 62640, Note_on_c, 10, 48, 116
11, 62648, Control_c, 10, 7, 125
11, 62674, Control_c, 10, 7, 126
11, 62688, Note_on_c, 10, 48, 0
11, 62688, Note_on_c, 10, 60, 0
11, 62700, Note_on_c, 10, 48, 125
11, 62700, Note_on_c, 10, 60, 107
11, 62700, Control_c, 10, 7, 127
11, 62748, Note_on_c, 10, 60, 0
11, 62748, Note_on_c, 10, 48, 0
11, 62760, Note_on_c, 10, 60, 105
11, 62760, Note_on_c, 10, 48, 118
11, 62808, Note_on_c, 10, 48, 0
11, 62808, Note_on_c, 10, 60, 0
11, 62820, Note_on_c, 10, 48, 116
11, 62820, Note_on_c, 10, 60, 109
11, 62868, Note_on_c, 10, 60, 0
11, 62868, Note_on_c, 10, 48, 0
11, 62880, Note_on_c, 10, 48, 121
11, 62880, Note_on_c, 10, 60, 105
11, 62928, Note_on_c, 10, 60, 0
11, 62928, Note_on_c, 10, 48, 0
11, 62940, Note_on_c, 10, 48, 123
11, 62940, Note_on_c, 10, 60, 105
11, 62988, Note_on_c, 10, 60, 0
11, 62988, Note_on_c, 10, 48, 0
11, 63000, Note_on_c, 10, 48, 120
11, 63000, Note_on_c, 10, 60, 108
11, 63048, Note_on_c, 10, 60, 0
11, 63048, Note_on_c, 10, 48, 0
11, 63060, Note_on_c, 10, 48, 121
11, 63060, Note_on_c, 10, 60, 108
11, 63108, Note_on_c, 10, 60, 0
11, 63108, Note_on_c, 10, 48, 0
11, 63120, Note_on_c, 10, 48, 117
11, 63120, Note_on_c, 10, 60, 106
11, 63168, Note_on_c, 10, 60, 0
11, 63168, Note_on_c, 10, 48, 0
11, 63180, Note_on_c, 10, 60, 102
11, 63180, Note_on_c, 10, 48, 127
11, 63228, Note_on_c, 10, 48, 0
11, 63228, Note_on_c, 10, 60, 0
11, 63240, Note_on_c, 10, 60, 107
11, 63240, Note_on_c, 10, 48, 127
11, 63288, Note_on_c, 10, 48, 0
11, 63288, Note_on_c, 10, 60, 0
11, 63300, Note_on_c, 10, 60, 114
11, 63300, Note_on_c, 10, 48, 117
11, 63348, Note_on_c, 10, 48, 0
11, 63348, Note_on_c, 10, 60, 0
11, 63360, Note_on_c, 10, 57, 114
11, 63408, Note_on_c, 10, 57, 0
11, 65160, Control_c, 10, 7, 85
11, 66660, Note_on_c, 10, 72, 99
11, 66708, Note_on_c, 10, 72, 0
11, 66720, Note_on_c, 10, 72, 102
11, 66768, Note_on_c, 10, 72, 0
11, 66778, Control_c, 10, 7, 112
11, 66780, Note_on_c, 10, 72, 112
11, 66828, Note_on_c, 10, 72, 0
11, 66840, Note_on_c, 10, 69, 102
11, 66854, Control_c, 10, 7, 113
11, 66888, Note_on_c, 10, 69, 0
11, 66900, Note_on_c, 10, 69, 111
11, 66928, Control_c, 10, 7, 114
11, 66948, Note_on_c, 10, 69, 0
11, 66960, Note_on_c, 10, 69, 103
11, 67004, Control_c, 10, 7, 115
11, 67008, Note_on_c, 10, 69, 0
11, 67020, Note_on_c, 10, 66, 80
11, 67068, Note_on_c, 10, 66, 0
11, 67078, Control_c, 10, 7, 116
11, 67080, Note_on_c, 10, 66, 87
11, 67128, Note_on_c, 10, 66, 0
11, 67140, Note_on_c, 10, 66, 86
11, 67154, Control_c, 10, 7, 117
11, 67188, Note_on_c, 10, 66, 0
11, 67200, Note_on_c, 10, 62, 104
11, 67228, Control_c, 10, 7, 118
11, 67248, Note_on_c, 10, 62, 0
11, 67260, Note_on_c, 10, 62, 105
11, 67304, Control_c, 10, 7, 119
11, 67308, Note_on_c, 10, 62, 0
11, 67320, Note_on_c, 10, 62, 121
11, 67368, Note_on_c, 10, 62, 0
11, 67378, Control_c, 10, 7, 120
11, 67380, Note_on_c, 10, 70, 81
11, 67428, Note_on_c, 10, 70, 0
11, 67440, Note_on_c, 10, 70, 94
11, 67454, Control_c, 10, 7, 121
11, 67488, Note_on_c, 10, 70, 0
11, 67500, Note_on_c, 10, 70, 105
11, 67528, Control_c, 10, 7, 122
11, 67548, Note_on_c, 10, 70, 0
11, 67560, Note_on_c, 10, 67, 101
11, 67604, Control_c, 10, 7, 123
11, 67608, Note_on_c, 10, 67, 0
11, 67620, Note_on_c, 10, 67, 109
11, 67668, Note_on_c, 10, 67, 0
11, 67678, Control_c, 10, 7, 124
11, 67680, Note_on_c, 10, 67, 118
11, 67728, Note_on_c, 10, 67, 0
11, 67740, Note_on_c, 10, 64, 103
11, 67754, Control_c, 10, 7, 125
11, 67788, Note_on_c, 10, 64, 0
11, 67800, Note_on_c, 10, 64, 102
11, 67828, Control_c, 10, 7, 126
11, 67848, Note_on_c, 10, 64, 0
11, 67860, Note_on_c, 10, 64, 117
11, 67902, Control_c, 10, 7, 127
11, 67908, Note_on_c, 10, 64, 0
11, 67920, Note_on_c, 10, 60, 113
11, 67968, Note_on_c, 10, 60, 0
11, 67980, Note_on_c, 10, 60, 118
11, 68028, Note_on_c, 10, 60, 0
11, 68040, Note_on_c, 10, 65, 104
11, 68040, Note_on_c, 10, 69, 103
11, 68056, Note_on_c, 10, 69, 0
11, 68056, Note_on_c, 10, 65, 0
11, 68060, Note_on_c, 10, 65, 101
11, 68060, Note_on_c, 10, 69, 101
11, 68076, Note_on_c, 10, 69, 0
11, 68076, Note_on_c, 10, 65, 0
11, 68080, Note_on_c, 10, 65, 104
11, 68080, Note_on_c, 10, 69, 104
11, 68096, Note_on_c, 10, 69, 0
11, 68096, Note_on_c, 10, 65, 0
11, 68100, Note_on_c, 10, 65, 103
11, 68100, Note_on_c, 10, 69, 105
11, 68116, Note_on_c, 10, 69, 0
11, 68116, Note_on_c, 10, 65, 0
11, 68120, Note_on_c, 10, 65, 103
11, 68120, Note_on_c, 10, 69, 105
11, 68136, Note_on_c, 10, 69, 0
11, 68136, Note_on_c, 10, 65, 0
11, 68140, Note_on_c, 10, 65, 100
11, 68140, Note_on_c, 10, 69, 103
11, 68156, Note_on_c, 10, 69, 0
11, 68156, Note_on_c, 10, 65, 0
11, 68160, Note_on_c, 10, 65, 102
11, 68160, Note_on_c, 10, 69, 105
11, 68176, Note_on_c, 10, 69, 0
11, 68176, Note_on_c, 10, 65, 0
11, 68180, Note_on_c, 10, 65, 101
11, 68180, Note_on_c, 10, 69, 103
11, 68196, Note_on_c, 10, 69, 0
11, 68196, Note_on_c, 10, 65, 0
11, 68200, Note_on_c, 10, 65, 104
11, 68200, Note_on_c, 10, 69, 107
11, 68216, Note_on_c, 10, 69, 0
11, 68216, Note_on_c, 10, 65, 0
11, 68220, Note_on_c, 10, 65, 106
11, 68220, Note_on_c, 10, 69, 106
11, 68236, Note_on_c, 10, 69, 0
11, 68236, Note_on_c, 10, 65, 0
11, 68240, Note_on_c, 10, 69, 103
11, 68240, Note_on_c, 10, 65, 101
11, 68256, Note_on_c, 10, 65, 0
11, 68256, Note_on_c, 10, 69, 0
11, 68260, Note_on_c, 10, 65, 101
11, 68260, Note_on_c, 10, 69, 103
11, 68276, Note_on_c, 10, 69, 0
11, 68276, Note_on_c, 10, 65, 0
11, 68280, Note_on_c, 10, 65, 109
11, 68280, Note_on_c, 10, 69, 109
11, 68296, Note_on_c, 10, 69, 0
11, 68296, Note_on_c, 10, 65, 0
11, 68300, Note_on_c, 10, 65, 100
11, 68300, Note_on_c, 10, 69, 101
11, 68316, Note_on_c, 10, 69, 0
11, 68316, Note_on_c, 10, 65, 0
11, 68320, Note_on_c, 10, 65, 103
11, 68320, Note_on_c, 10, 69, 103
11, 68336, Note_on_c, 10, 69, 0
11, 68336, Note_on_c, 10, 65, 0
11, 68340, Note_on_c, 10, 65, 104
11, 68340, Note_on_c, 10, 69, 106
11, 68356, Note_on_c, 10, 69, 0
11, 68356, Note_on_c, 10, 65, 0
11, 68360, Note_on_c, 10, 65, 100
11, 68360, Note_on_c, 10, 69, 103
11, 68376, Note_on_c, 10, 69, 0
11, 68376, Note_on_c, 10, 65, 0
11, 68380, Note_on_c, 10, 65, 109
11, 68380, Note_on_c, 10, 69, 111
11, 68396, Note_on_c, 10, 69, 0
11, 68396, Note_on_c, 10, 65, 0
11, 68400, Note_on_c, 10, 65, 102
11, 68400, Note_on_c, 10, 69, 103
11, 68448, Note_on_c, 10, 69, 0
11, 68448, Note_on_c, 10, 65, 0
11, 68460, Note_on_c, 10, 65, 100
11, 68460, Note_on_c, 10, 69, 100
11, 68508, Note_on_c, 10, 69, 0
11, 68508, Note_on_c, 10, 65, 0
11, 68520, Note_on_c, 10, 65, 102
11, 68520, Note_on_c, 10, 69, 108
11, 68568, Note_on_c, 10, 69, 0
11, 68568, Note_on_c, 10, 65, 0
11, 68580, Note_on_c, 10, 65, 108
11, 68580, Note_on_c, 10, 69, 110
11, 68628, Note_on_c, 10, 69, 0
11, 68628, Note_on_c, 10, 65, 0
11, 68640, Note_on_c, 10, 65, 104
11, 68640, Note_on_c, 10, 69, 103
11, 68688, Note_on_c, 10, 69, 0
11, 68688, Note_on_c, 10, 65, 0
11, 68700, Note_on_c, 10, 65, 110
11, 68700, Note_on_c, 10, 69, 111
11, 68748, Note_on_c, 10, 69, 0
11, 68748, Note_on_c, 10, 65, 0
11, 68760, Note_on_c, 10, 62, 97
11, 68808, Note_on_c, 10, 62, 0
11, 68820, Note_on_c, 10, 62, 106
11, 68868, Note_on_c, 10, 62, 0
11, 68880, Note_on_c, 10, 65, 111
11, 68928, Note_on_c, 10, 65, 0
11, 68940, Note_on_c, 10, 65, 105
11, 68940, Note_on_c, 10, 69, 104
11, 68988, Note_on_c, 10, 69, 0
11, 68988, Note_on_c, 10, 65, 0
11, 69000, Note_on_c, 10, 69, 107
11, 69000, Note_on_c, 10, 65, 107
11, 69048, Note_on_c, 10, 65, 0
11, 69048, Note_on_c, 10, 69, 0
11, 69060, Note_on_c, 10, 65, 105
11, 69060, Note_on_c, 10, 69, 107
11, 69108, Note_on_c, 10, 69, 0
11, 69108, Note_on_c, 10, 65, 0
11, 69120, Note_on_c, 10, 69, 112
11, 69120, Note_on_c, 10, 65, 105
11, 69168, Note_on_c, 10, 65, 0
11, 69168, Note_on_c, 10, 69, 0
11, 69180, Note_on_c, 10, 65, 103
11, 69180, Note_on_c, 10, 69, 104
11, 69228, Note_on_c, 10, 69, 0
11, 69228, Note_on_c, 10, 65, 0
11, 69240, Note_on_c, 10, 65, 107
11, 69240, Note_on_c, 10, 69, 109
11, 69288, Note_on_c, 10, 69, 0
11, 69288, Note_on_c, 10, 65, 0
11, 69300, Note_on_c, 10, 69, 103
11, 69300, Note_on_c, 10, 65, 100
11, 69348, Note_on_c, 10, 65, 0
11, 69348, Note_on_c, 10, 69, 0
11, 69360, Note_on_c, 10, 69, 101
11, 69360, Note_on_c, 10, 65, 99
11, 69408, Note_on_c, 10, 65, 0
11, 69408, Note_on_c, 10, 69, 0
11, 69420, Note_on_c, 10, 74, 104
11, 69420, Note_on_c, 10, 65, 102
11, 69468, Note_on_c, 10, 65, 0
11, 69468, Note_on_c, 10, 74, 0
11, 69480, Note_on_c, 10, 65, 100
11, 69480, Note_on_c, 10, 62, 99
11, 69528, Note_on_c, 10, 62, 0
11, 69528, Note_on_c, 10, 65, 0
11, 69540, Note_on_c, 10, 65, 99
11, 69540, Note_on_c, 10, 62, 99
11, 69588, Note_on_c, 10, 62, 0
11, 69588, Note_on_c, 10, 65, 0
11, 69600, Note_on_c, 10, 71, 112
11, 69600, Note_on_c, 10, 65, 109
11, 69648, Note_on_c, 10, 65, 0
11, 69648, Note_on_c, 10, 71, 0
11, 69660, Note_on_c, 10, 74, 100
11, 69660, Note_on_c, 10, 71, 95
11, 69708, Note_on_c, 10, 71, 0
11, 69708, Note_on_c, 10, 74, 0
11, 69720, Note_on_c, 10, 71, 100
11, 69720, Note_on_c, 10, 74, 107
11, 69768, Note_on_c, 10, 74, 0
11, 69768, Note_on_c, 10, 71, 0
11, 69780, Note_on_c, 10, 71, 99
11, 69780, Note_on_c, 10, 74, 98
11, 69828, Note_on_c, 10, 74, 0
11, 69828, Note_on_c, 10, 71, 0
11, 69840, Note_on_c, 10, 74, 105
11, 69840, Note_on_c, 10, 71, 102
11, 69888, Note_on_c, 10, 71, 0
11, 69888, Note_on_c, 10, 74, 0
11, 69900, Note_on_c, 10, 74, 105
11, 69900, Note_on_c, 10, 71, 101
11, 69948, Note_on_c, 10, 71, 0
11, 69948, Note_on_c, 10, 74, 0
11, 69960, Note_on_c, 10, 74, 107
11, 69960, Note_on_c, 10, 71, 101
11, 70008, Note_on_c, 10, 71, 0
11, 70008, Note_on_c, 10, 74, 0
11, 70020, Note_on_c, 10, 74, 103
11, 70020, Note_on_c, 10, 71, 99
11, 70068, Note_on_c, 10, 71, 0
11, 70068, Note_on_c, 10, 74, 0
11, 70080, Note_on_c, 10, 71, 101
11, 70080, Note_on_c, 10, 74, 106
11, 70128, Note_on_c, 10, 74, 0
11, 70128, Note_on_c, 10, 71, 0
11, 70140, Note_on_c, 10, 74, 114
11, 70140, Note_on_c, 10, 71, 101
11, 70188, Note_on_c, 10, 71, 0
11, 70188, Note_on_c, 10, 74, 0
11, 70198, Control_c, 10, 7, 85
11, 70200, Note_on_c, 10, 55, 104
11, 70224, Note_on_c, 10, 55, 0
11, 70230, Note_on_c, 10, 59, 120
11, 70254, Note_on_c, 10, 59, 0
11, 70260, Note_on_c, 10, 55, 99
11, 70284, Note_on_c, 10, 55, 0
11, 70290, Note_on_c, 10, 59, 117
11, 70314, Note_on_c, 10, 59, 0
11, 70320, Note_on_c, 10, 55, 104
11, 70344, Note_on_c, 10, 55, 0
11, 70350, Note_on_c, 10, 59, 118
11, 70374, Note_on_c, 10, 59, 0
11, 70380, Note_on_c, 10, 55, 111
11, 70404, Note_on_c, 10, 55, 0
11, 70410, Note_on_c, 10, 59, 121
11, 70434, Note_on_c, 10, 59, 0
11, 70440, Note_on_c, 10, 55, 106
11, 70464, Note_on_c, 10, 55, 0
11, 70470, Note_on_c, 10, 59, 120
11, 70494, Note_on_c, 10, 59, 0
11, 70500, Note_on_c, 10, 55, 104
11, 70524, Note_on_c, 10, 55, 0
11, 70530, Note_on_c, 10, 59, 114
11, 70554, Note_on_c, 10, 59, 0
11, 70560, Note_on_c, 10, 55, 109
11, 70584, Note_on_c, 10, 55, 0
11, 70590, Note_on_c, 10, 59, 109
11, 70614, Note_on_c, 10, 59, 0
11, 70620, Note_on_c, 10, 55, 101
11, 70644, Note_on_c, 10, 55, 0
11, 70650, Note_on_c, 10, 59, 105
11, 70674, Note_on_c, 10, 59, 0
11, 70680, Note_on_c, 10, 55, 100
11, 70704, Note_on_c, 10, 55, 0
11, 70710, Note_on_c, 10, 59, 107
11, 70734, Note_on_c, 10, 59, 0
11, 70740, Note_on_c, 10, 55, 102
11, 70764, Note_on_c, 10, 55, 0
11, 70770, Note_on_c, 10, 59, 106
11, 70794, Note_on_c, 10, 59, 0
11, 70800, Note_on_c, 10, 55, 99
11, 70824, Note_on_c, 10, 55, 0
11, 70830, Note_on_c, 10, 59, 111
11, 70854, Note_on_c, 10, 59, 0
11, 70860, Note_on_c, 10, 55, 100
11, 70884, Note_on_c, 10, 55, 0
11, 70890, Note_on_c, 10, 59, 110
11, 70914, Note_on_c, 10, 59, 0
11, 70920, Note_on_c, 10, 55, 112
11, 70944, Note_on_c, 10, 55, 0
11, 70950, Note_on_c, 10, 59, 121
11, 70974, Note_on_c, 10, 59, 0
11, 70980, Note_on_c, 10, 55, 103
11, 71004, Note_on_c, 10, 55, 0
11, 71010, Note_on_c, 10, 59, 114
11, 71034, Note_on_c, 10, 59, 0
11, 71040, Note_on_c, 10, 55, 104
11, 71064, Note_on_c, 10, 55, 0
11, 71070, Note_on_c, 10, 59, 118
11, 71094, Note_on_c, 10, 59, 0
11, 71100, Note_on_c, 10, 55, 104
11, 71124, Note_on_c, 10, 55, 0
11, 71130, Note_on_c, 10, 59, 108
11, 71154, Note_on_c, 10, 59, 0
11, 71160, Note_on_c, 10, 55, 104
11, 71184, Note_on_c, 10, 55, 0
11, 71190, Note_on_c, 10, 59, 116
11, 71214, Note_on_c, 10, 59, 0
11, 71220, Note_on_c, 10, 55, 105
11, 71244, Note_on_c, 10, 55, 0
11, 71250, Note_on_c, 10, 59, 114
11, 71274, Note_on_c, 10, 59, 0
11, 71280, Note_on_c, 10, 55, 107
11, 71280, Control_c, 10, 7, 86
11, 71304, Note_on_c, 10, 55, 0
11, 71310, Note_on_c, 10, 59, 114
11, 71334, Note_on_c, 10, 59, 0
11, 71340, Note_on_c, 10, 55, 103
11, 71350, Control_c, 10, 7, 87
11, 71364, Note_on_c, 10, 55, 0
11, 71370, Note_on_c, 10, 59, 112
11, 71394, Note_on_c, 10, 59, 0
11, 71400, Note_on_c, 10, 55, 100
11, 71420, Control_c, 10, 7, 88
11, 71424, Note_on_c, 10, 55, 0
11, 71430, Note_on_c, 10, 59, 114
11, 71454, Note_on_c, 10, 59, 0
11, 71460, Note_on_c, 10, 55, 100
11, 71484, Note_on_c, 10, 55, 0
11, 71488, Control_c, 10, 7, 89
11, 71490, Note_on_c, 10, 59, 110
11, 71514, Note_on_c, 10, 59, 0
11, 71520, Note_on_c, 10, 55, 99
11, 71544, Note_on_c, 10, 55, 0
11, 71550, Note_on_c, 10, 59, 116
11, 71558, Control_c, 10, 7, 90
11, 71574, Note_on_c, 10, 59, 0
11, 71580, Note_on_c, 10, 55, 114
11, 71604, Note_on_c, 10, 55, 0
11, 71610, Note_on_c, 10, 59, 107
11, 71628, Control_c, 10, 7, 91
11, 71634, Note_on_c, 10, 59, 0
11, 71640, Note_on_c, 10, 48, 105
11, 71664, Note_on_c, 10, 48, 0
11, 71670, Note_on_c, 10, 55, 117
11, 71694, Note_on_c, 10, 55, 0
11, 71696, Control_c, 10, 7, 92
11, 71700, Note_on_c, 10, 48, 103
11, 71724, Note_on_c, 10, 48, 0
11, 71730, Note_on_c, 10, 55, 116
11, 71754, Note_on_c, 10, 55, 0
11, 71760, Note_on_c, 10, 48, 103
11, 71766, Control_c, 10, 7, 93
11, 71784, Note_on_c, 10, 48, 0
11, 71790, Note_on_c, 10, 55, 121
11, 71814, Note_on_c, 10, 55, 0
11, 71820, Note_on_c, 10, 48, 111
11, 71834, Control_c, 10, 7, 94
11, 71844, Note_on_c, 10, 48, 0
11, 71850, Note_on_c, 10, 55, 117
11, 71874, Note_on_c, 10, 55, 0
11, 71880, Note_on_c, 10, 48, 103
11, 71904, Note_on_c, 10, 48, 0
11, 71904, Control_c, 10, 7, 95
11, 71910, Note_on_c, 10, 55, 120
11, 71934, Note_on_c, 10, 55, 0
11, 71940, Note_on_c, 10, 48, 107
11, 71964, Note_on_c, 10, 48, 0
11, 71970, Note_on_c, 10, 55, 125
11, 71974, Control_c, 10, 7, 96
11, 71994, Note_on_c, 10, 55, 0
11, 72000, Note_on_c, 10, 48, 109
11, 72024, Note_on_c, 10, 48, 0
11, 72030, Note_on_c, 10, 55, 125
11, 72042, Control_c, 10, 7, 97
11, 72054, Note_on_c, 10, 55, 0
11, 72060, Note_on_c, 10, 48, 107
11, 72084, Note_on_c, 10, 48, 0
11, 72090, Note_on_c, 10, 55, 121
11, 72112, Control_c, 10, 7, 98
11, 72114, Note_on_c, 10, 55, 0
11, 72120, Note_on_c, 10, 48, 117
11, 72144, Note_on_c, 10, 48, 0
11, 72150, Note_on_c, 10, 55, 120
11, 72174, Note_on_c, 10, 55, 0
11, 72180, Note_on_c, 10, 48, 109
11, 72180, Control_c, 10, 7, 99
11, 72204, Note_on_c, 10, 48, 0
11, 72210, Note_on_c, 10, 55, 113
11, 72234, Note_on_c, 10, 55, 0
11, 72240, Note_on_c, 10, 48, 106
11, 72240, Control_c, 10, 7, 99
11, 72264, Note_on_c, 10, 48, 0
11, 72270, Note_on_c, 10, 55, 117
11, 72294, Note_on_c, 10, 55, 0
11, 72300, Note_on_c, 10, 48, 120
11, 72320, Control_c, 10, 7, 100
11, 72324, Note_on_c, 10, 48, 0
11, 72330, Note_on_c, 10, 55, 127
11, 72354, Note_on_c, 10, 55, 0
11, 72360, Note_on_c, 10, 48, 112
11, 72384, Note_on_c, 10, 48, 0
11, 72390, Note_on_c, 10, 55, 120
11, 72398, Control_c, 10, 7, 101
11, 72414, Note_on_c, 10, 55, 0
11, 72420, Note_on_c, 10, 48, 104
11, 72444, Note_on_c, 10, 48, 0
11, 72450, Note_on_c, 10, 55, 117
11, 72474, Note_on_c, 10, 55, 0
11, 72476, Control_c, 10, 7, 102
11, 72480, Note_on_c, 10, 48, 110
11, 72504, Note_on_c, 10, 48, 0
11, 72510, Note_on_c, 10, 55, 123
11, 72534, Note_on_c, 10, 55, 0
11, 72540, Note_on_c, 10, 48, 112
11, 72554, Control_c, 10, 7, 103
11, 72564, Note_on_c, 10, 48, 0
11, 72570, Note_on_c, 10, 55, 125
11, 72594, Note_on_c, 10, 55, 0
11, 72600, Note_on_c, 10, 48, 103
11, 72624, Note_on_c, 10, 48, 0
11, 72630, Note_on_c, 10, 55, 116
11, 72634, Control_c, 10, 7, 104
11, 72654, Note_on_c, 10, 55, 0
11, 72660, Note_on_c, 10, 48, 109
11, 72684, Note_on_c, 10, 48, 0
11, 72690, Note_on_c, 10, 55, 125
11, 72712, Control_c, 10, 7, 105
11, 72714, Note_on_c, 10, 55, 0
11, 72720, Note_on_c, 10, 48, 107
11, 72744, Note_on_c, 10, 48, 0
11, 72750, Note_on_c, 10, 55, 125
11, 72774, Note_on_c, 10, 55, 0
11, 72780, Note_on_c, 10, 48, 113
11, 72790, Control_c, 10, 7, 106
11, 72804, Note_on_c, 10, 48, 0
11, 72810, Note_on_c, 10, 55, 123
11, 72834, Note_on_c, 10, 55, 0
11, 72840, Note_on_c, 10, 48, 109
11, 72864, Note_on_c, 10, 48, 0
11, 72868, Control_c, 10, 7, 107
11, 72870, Note_on_c, 10, 55, 111
11, 72894, Note_on_c, 10, 55, 0
11, 72900, Note_on_c, 10, 48, 113
11, 72924, Note_on_c, 10, 48, 0
11, 72930, Note_on_c, 10, 55, 120
11, 72948, Control_c, 10, 7, 108
11, 72954, Note_on_c, 10, 55, 0
11, 72960, Note_on_c, 10, 48, 101
11, 72984, Note_on_c, 10, 48, 0
11, 72990, Note_on_c, 10, 55, 118
11, 73014, Note_on_c, 10, 55, 0
11, 73020, Note_on_c, 10, 48, 116
11, 73020, Note_on_c, 10, 60, 117
11, 73026, Control_c, 10, 7, 109
11, 73036, Note_on_c, 10, 60, 0
11, 73036, Note_on_c, 10, 48, 0
11, 73040, Note_on_c, 10, 60, 101
11, 73040, Note_on_c, 10, 48, 116
11, 73056, Note_on_c, 10, 48, 0
11, 73056, Note_on_c, 10, 60, 0
11, 73060, Note_on_c, 10, 60, 109
11, 73060, Note_on_c, 10, 48, 121
11, 73076, Note_on_c, 10, 48, 0
11, 73076, Note_on_c, 10, 60, 0
11, 73080, Note_on_c, 10, 48, 116
11, 73080, Note_on_c, 10, 60, 117
11, 73104, Control_c, 10, 7, 110
11, 73128, Note_on_c, 10, 60, 0
11, 73128, Note_on_c, 10, 48, 0
11, 73140, Note_on_c, 10, 60, 109
11, 73140, Note_on_c, 10, 48, 125
11, 73182, Control_c, 10, 7, 111
11, 73188, Note_on_c, 10, 48, 0
11, 73188, Note_on_c, 10, 60, 0
11, 73200, Note_on_c, 10, 60, 117
11, 73200, Note_on_c, 10, 48, 127
11, 73248, Note_on_c, 10, 48, 0
11, 73248, Note_on_c, 10, 60, 0
11, 73260, Note_on_c, 10, 48, 127
11, 73260, Note_on_c, 10, 60, 125
11, 73260, Control_c, 10, 7, 112
11, 73288, Control_c, 10, 7, 111
11, 73308, Note_on_c, 10, 60, 0
11, 73308, Note_on_c, 10, 48, 0
11, 73320, Note_on_c, 10, 48, 127
11, 73320, Note_on_c, 10, 60, 118
11, 73322, Control_c, 10, 7, 112
11, 73354, Control_c, 10, 7, 113
11, 73368, Note_on_c, 10, 60, 0
11, 73368, Note_on_c, 10, 48, 0
11, 73380, Note_on_c, 10, 48, 127
11, 73380, Note_on_c, 10, 60, 125
11, 73386, Control_c, 10, 7, 114
11, 73418, Control_c, 10, 7, 115
11, 73428, Note_on_c, 10, 60, 0
11, 73428, Note_on_c, 10, 48, 0
11, 73440, Note_on_c, 10, 48, 120
11, 73440, Note_on_c, 10, 60, 120
11, 73450, Control_c, 10, 7, 116
11, 73482, Control_c, 10, 7, 117
11, 73488, Note_on_c, 10, 60, 0
11, 73488, Note_on_c, 10, 48, 0
11, 73500, Note_on_c, 10, 48, 123
11, 73500, Note_on_c, 10, 60, 120
11, 73514, Control_c, 10, 7, 118
11, 73546, Control_c, 10, 7, 119
11, 73548, Note_on_c, 10, 60, 0
11, 73548, Note_on_c, 10, 48, 0
11, 73560, Note_on_c, 10, 60, 112
11, 73560, Note_on_c, 10, 48, 125
11, 73578, Control_c, 10, 7, 120
11, 73608, Note_on_c, 10, 48, 0
11, 73608, Note_on_c, 10, 60, 0
11, 73610, Control_c, 10, 7, 121
11, 73620, Note_on_c, 10, 48, 127
11, 73620, Note_on_c, 10, 60, 108
11, 73642, Control_c, 10, 7, 122
11, 73668, Note_on_c, 10, 60, 0
11, 73668, Note_on_c, 10, 48, 0
11, 73674, Control_c, 10, 7, 123
11, 73680, Note_on_c, 10, 48, 127
11, 73680, Note_on_c, 10, 60, 113
11, 73706, Control_c, 10, 7, 124
11, 73728, Note_on_c, 10, 60, 0
11, 73728, Note_on_c, 10, 48, 0
11, 73738, Control_c, 10, 7, 125
11, 73740, Note_on_c, 10, 60, 118
11, 73740, Note_on_c, 10, 48, 127
11, 73770, Control_c, 10, 7, 126
11, 73788, Note_on_c, 10, 48, 0
11, 73788, Note_on_c, 10, 60, 0
11, 73800, Note_on_c, 10, 53, 114
11, 73802, Control_c, 10, 7, 127
11, 73896, Note_on_c, 10, 53, 0
11, 74522, Control_c, 10, 7, 81
11, 75510, Note_on_c, 10, 48, 98
11, 75534, Note_on_c, 10, 48, 0
11, 75540, Note_on_c, 10, 50, 121
11, 75564, Note_on_c, 10, 50, 0
11, 75570, Note_on_c, 10, 52, 127
11, 75594, Note_on_c, 10, 52, 0
11, 75600, Note_on_c, 10, 53, 103
11, 75624, Note_on_c, 10, 53, 0
11, 75630, Note_on_c, 10, 55, 120
11, 75654, Note_on_c, 10, 55, 0
11, 75660, Note_on_c, 10, 57, 123
11, 75684, Note_on_c, 10, 57, 0
11, 75690, Note_on_c, 10, 58, 92
11, 75714, Note_on_c, 10, 58, 0
11, 75720, Note_on_c, 10, 60, 111
11, 75744, Note_on_c, 10, 60, 0
11, 75750, Note_on_c, 10, 58, 105
11, 75774, Note_on_c, 10, 58, 0
11, 75780, Note_on_c, 10, 57, 111
11, 75804, Note_on_c, 10, 57, 0
11, 75810, Note_on_c, 10, 58, 81
11, 75834, Note_on_c, 10, 58, 0
11, 75840, Note_on_c, 10, 57, 107
11, 75864, Note_on_c, 10, 57, 0
11, 75870, Note_on_c, 10, 55, 113
11, 75894, Note_on_c, 10, 55, 0
11, 75900, Note_on_c, 10, 54, 109
11, 75924, Note_on_c, 10, 54, 0
11, 75930, Note_on_c, 10, 52, 102
11, 75954, Note_on_c, 10, 52, 0
11, 75960, Note_on_c, 10, 50, 101
11, 75984, Note_on_c, 10, 50, 0
11, 75990, Note_on_c, 10, 52, 92
11, 76014, Note_on_c, 10, 52, 0
11, 76020, Note_on_c, 10, 50, 98
11, 76044, Note_on_c, 10, 50, 0
11, 76050, Note_on_c, 10, 49, 93
11, 76074, Note_on_c, 10, 49, 0
11, 76080, Note_on_c, 10, 50, 107
11, 76104, Note_on_c, 10, 50, 0
11, 76110, Note_on_c, 10, 52, 107
11, 76134, Note_on_c, 10, 52, 0
11, 76140, Note_on_c, 10, 54, 103
11, 76164, Note_on_c, 10, 54, 0
11, 76170, Note_on_c, 10, 55, 98
11, 76194, Note_on_c, 10, 55, 0
11, 76200, Note_on_c, 10, 57, 114
11, 76224, Note_on_c, 10, 57, 0
11, 76230, Note_on_c, 10, 55, 99
11, 76254, Note_on_c, 10, 55, 0
11, 76260, Note_on_c, 10, 57, 110
11, 76284, Note_on_c, 10, 57, 0
11, 76290, Note_on_c, 10, 54, 96
11, 76314, Note_on_c, 10, 54, 0
11, 76320, Note_on_c, 10, 55, 125
11, 76344, Note_on_c, 10, 55, 0
11, 76350, Note_on_c, 10, 54, 97
11, 76374, Note_on_c, 10, 54, 0
11, 76380, Note_on_c, 10, 55, 123
11, 76404, Note_on_c, 10, 55, 0
11, 76410, Note_on_c, 10, 57, 110
11, 76434, Note_on_c, 10, 57, 0
11, 76440, Note_on_c, 10, 55, 125
11, 76464, Note_on_c, 10, 55, 0
11, 76470, Note_on_c, 10, 57, 118
11, 76494, Note_on_c, 10, 57, 0
11, 76500, Note_on_c, 10, 58, 90
11, 76524, Note_on_c, 10, 58, 0
11, 76530, Note_on_c, 10, 57, 116
11, 76554, Note_on_c, 10, 57, 0
11, 76560, Note_on_c, 10, 58, 105
11, 76584, Note_on_c, 10, 58, 0
11, 76590, Note_on_c, 10, 59, 114
11, 76614, Note_on_c, 10, 59, 0
11, 76620, Note_on_c, 10, 57, 95
11, 76630, Control_c, 10, 7, 89
11, 76632, Control_c, 10, 7, 90
11, 76644, Note_on_c, 10, 57, 0
11, 76650, Note_on_c, 10, 59, 103
11, 76674, Note_on_c, 10, 59, 0
11, 76680, Note_on_c, 10, 60, 104
11, 76680, Control_c, 10, 7, 91
11, 76704, Note_on_c, 10, 60, 0
11, 76710, Note_on_c, 10, 62, 109
11, 76730, Control_c, 10, 7, 92
11, 76734, Note_on_c, 10, 62, 0
11, 76740, Note_on_c, 10, 60, 117
11, 76764, Note_on_c, 10, 60, 0
11, 76770, Note_on_c, 10, 59, 110
11, 76778, Control_c, 10, 7, 93
11, 76794, Note_on_c, 10, 59, 0
11, 76800, Note_on_c, 10, 60, 121
11, 76824, Note_on_c, 10, 60, 0
11, 76828, Control_c, 10, 7, 94
11, 76830, Note_on_c, 10, 62, 108
11, 76854, Note_on_c, 10, 62, 0
11, 76860, Note_on_c, 10, 64, 109
11, 76876, Control_c, 10, 7, 95
11, 76884, Note_on_c, 10, 64, 0
11, 76890, Note_on_c, 10, 65, 118
11, 76914, Note_on_c, 10, 65, 0
11, 76920, Note_on_c, 10, 67, 50
11, 76926, Control_c, 10, 7, 96
11, 76944, Note_on_c, 10, 67, 0
11, 76950, Note_on_c, 10, 65, 108
11, 76974, Note_on_c, 10, 65, 0
11, 76976, Control_c, 10, 7, 97
11, 76980, Note_on_c, 10, 67, 105
11, 77004, Note_on_c, 10, 67, 0
11, 77010, Note_on_c, 10, 64, 116
11, 77024, Control_c, 10, 7, 98
11, 77034, Note_on_c, 10, 64, 0
11, 77040, Note_on_c, 10, 65, 108
11, 77064, Note_on_c, 10, 65, 0
11, 77070, Note_on_c, 10, 72, 99
11, 77074, Control_c, 10, 7, 99
11, 77094, Note_on_c, 10, 72, 0
11, 77100, Note_on_c, 10, 72, 100
11, 77122, Control_c, 10, 7, 100
11, 77124, Note_on_c, 10, 72, 0
11, 77130, Note_on_c, 10, 72, 102
11, 77154, Note_on_c, 10, 72, 0
11, 77160, Note_on_c, 10, 72, 103
11, 77172, Control_c, 10, 7, 101
11, 77184, Note_on_c, 10, 72, 0
11, 77190, Note_on_c, 10, 72, 107
11, 77214, Note_on_c, 10, 72, 0
11, 77220, Note_on_c, 10, 72, 116
11, 77222, Control_c, 10, 7, 102
11, 77244, Note_on_c, 10, 72, 0
11, 77250, Note_on_c, 10, 69, 103
11, 77270, Control_c, 10, 7, 103
11, 77274, Note_on_c, 10, 69, 0
11, 77280, Note_on_c, 10, 69, 104
11, 77304, Note_on_c, 10, 69, 0
11, 77310, Note_on_c, 10, 69, 105
11, 77320, Control_c, 10, 7, 104
11, 77334, Note_on_c, 10, 69, 0
11, 77340, Note_on_c, 10, 69, 103
11, 77364, Note_on_c, 10, 69, 0
11, 77368, Control_c, 10, 7, 105
11, 77370, Note_on_c, 10, 69, 113
11, 77394, Note_on_c, 10, 69, 0
11, 77400, Note_on_c, 10, 69, 110
11, 77418, Control_c, 10, 7, 106
11, 77424, Note_on_c, 10, 69, 0
11, 77430, Note_on_c, 10, 66, 83
11, 77454, Note_on_c, 10, 66, 0
11, 77460, Note_on_c, 10, 66, 100
11, 77468, Control_c, 10, 7, 107
11, 77484, Note_on_c, 10, 66, 0
11, 77490, Note_on_c, 10, 66, 80
11, 77514, Note_on_c, 10, 66, 0
11, 77516, Control_c, 10, 7, 108
11, 77520, Note_on_c, 10, 66, 93
11, 77544, Note_on_c, 10, 66, 0
11, 77550, Note_on_c, 10, 66, 97
11, 77566, Control_c, 10, 7, 109
11, 77574, Note_on_c, 10, 66, 0
11, 77580, Note_on_c, 10, 66, 115
11, 77604, Note_on_c, 10, 66, 0
11, 77610, Note_on_c, 10, 62, 116
11, 77614, Control_c, 10, 7, 110
11, 77634, Note_on_c, 10, 62, 0
11, 77640, Note_on_c, 10, 62, 109
11, 77664, Note_on_c, 10, 62, 0
11, 77664, Control_c, 10, 7, 111
11, 77670, Note_on_c, 10, 62, 105
11, 77694, Note_on_c, 10, 62, 0
11, 77700, Note_on_c, 10, 62, 107
11, 77724, Note_on_c, 10, 62, 0
11, 77730, Note_on_c, 10, 62, 111
11, 77754, Note_on_c, 10, 62, 0
11, 77760, Note_on_c, 10, 62, 127
11, 77782, Control_c, 10, 7, 113
11, 77784, Note_on_c, 10, 62, 0
11, 77790, Note_on_c, 10, 70, 105
11, 77814, Note_on_c, 10, 70, 0
11, 77820, Note_on_c, 10, 70, 90
11, 77844, Note_on_c, 10, 70, 0
11, 77850, Note_on_c, 10, 70, 99
11, 77852, Control_c, 10, 7, 114
11, 77874, Note_on_c, 10, 70, 0
11, 77880, Note_on_c, 10, 70, 94
11, 77904, Note_on_c, 10, 70, 0
11, 77910, Note_on_c, 10, 70, 100
11, 77922, Control_c, 10, 7, 115
11, 77934, Note_on_c, 10, 70, 0
11, 77940, Note_on_c, 10, 70, 111
11, 77964, Note_on_c, 10, 70, 0
11, 77970, Note_on_c, 10, 67, 114
11, 77994, Note_on_c, 10, 67, 0
11, 77994, Control_c, 10, 7, 116
11, 78000, Note_on_c, 10, 67, 109
11, 78024, Note_on_c, 10, 67, 0
11, 78030, Note_on_c, 10, 67, 111
11, 78054, Note_on_c, 10, 67, 0
11, 78060, Note_on_c, 10, 67, 110
11, 78064, Control_c, 10, 7, 117
11, 78084, Note_on_c, 10, 67, 0
11, 78090, Note_on_c, 10, 67, 111
11, 78114, Note_on_c, 10, 67, 0
11, 78120, Note_on_c, 10, 67, 109
11, 78134, Control_c, 10, 7, 118
11, 78144, Note_on_c, 10, 67, 0
11, 78150, Note_on_c, 10, 64, 111
11, 78174, Note_on_c, 10, 64, 0
11, 78180, Note_on_c, 10, 64, 109
11, 78204, Note_on_c, 10, 64, 0
11, 78204, Control_c, 10, 7, 119
11, 78210, Note_on_c, 10, 64, 107
11, 78234, Note_on_c, 10, 64, 0
11, 78240, Note_on_c, 10, 64, 112
11, 78264, Note_on_c, 10, 64, 0
11, 78270, Note_on_c, 10, 64, 113
11, 78276, Control_c, 10, 7, 120
11, 78294, Note_on_c, 10, 64, 0
11, 78300, Note_on_c, 10, 64, 117
11, 78324, Note_on_c, 10, 64, 0
11, 78330, Note_on_c, 10, 62, 117
11, 78346, Control_c, 10, 7, 121
11, 78354, Note_on_c, 10, 62, 0
11, 78360, Note_on_c, 10, 60, 125
11, 78384, Note_on_c, 10, 60, 0
11, 78390, Note_on_c, 10, 58, 105
11, 78414, Note_on_c, 10, 58, 0
11, 78416, Control_c, 10, 7, 122
11, 78420, Note_on_c, 10, 57, 110
11, 78444, Note_on_c, 10, 57, 0
11, 78450, Note_on_c, 10, 55, 97
11, 78474, Note_on_c, 10, 55, 0
11, 78480, Note_on_c, 10, 53, 101
11, 78486, Control_c, 10, 7, 123
11, 78496, Note_on_c, 10, 53, 0
11, 78500, Note_on_c, 10, 65, 102
11, 78516, Note_on_c, 10, 65, 0
11, 78520, Note_on_c, 10, 65, 101
11, 78536, Note_on_c, 10, 65, 0
11, 78540, Note_on_c, 10, 65, 94
11, 78558, Control_c, 10, 7, 124
11, 78588, Note_on_c, 10, 65, 0
11, 78600, Note_on_c, 10, 65, 95
11, 78628, Control_c, 10, 7, 125
11, 78648, Note_on_c, 10, 65, 0
11, 78660, Note_on_c, 10, 65, 103
11, 78698, Control_c, 10, 7, 126
11, 78708, Note_on_c, 10, 65, 0
11, 78720, Note_on_c, 10, 65, 103
11, 78768, Note_on_c, 10, 65, 0
11, 78768, Control_c, 10, 7, 127
11, 78780, Note_on_c, 10, 65, 107
11, 78828, Note_on_c, 10, 65, 0
11, 78840, Note_on_c, 10, 65, 106
11, 78888, Note_on_c, 10, 65, 0
11, 78900, Note_on_c, 10, 65, 107
11, 78948, Note_on_c, 10, 65, 0
11, 78960, Note_on_c, 10, 65, 107
11, 79008, Note_on_c, 10, 65, 0
11, 79020, Note_on_c, 10, 65, 113
11, 79068, Note_on_c, 10, 65, 0
11, 79080, Note_on_c, 10, 65, 113
11, 79128, Note_on_c, 10, 65, 0
11, 79140, Note_on_c, 10, 65, 104
11, 79188, Note_on_c, 10, 65, 0
11, 79200, Note_on_c, 10, 74, 97
11, 79200, Note_on_c, 10, 62, 98
11, 79248, Note_on_c, 10, 62, 0
11, 79248, Note_on_c, 10, 74, 0
11, 79260, Note_on_c, 10, 62, 104
11, 79260, Note_on_c, 10, 74, 98
11, 79308, Note_on_c, 10, 74, 0
11, 79308, Note_on_c, 10, 62, 0
11, 79320, Note_on_c, 10, 74, 101
11, 79368, Note_on_c, 10, 74, 0
11, 79380, Note_on_c, 10, 74, 98
11, 79380, Note_on_c, 10, 62, 101
11, 79428, Note_on_c, 10, 62, 0
11, 79428, Note_on_c, 10, 74, 0
11, 79440, Note_on_c, 10, 74, 100
11, 79440, Note_on_c, 10, 62, 100
11, 79488, Note_on_c, 10, 62, 0
11, 79488, Note_on_c, 10, 74, 0
11, 79500, Note_on_c, 10, 74, 99
11, 79500, Note_on_c, 10, 62, 100
11, 79548, Note_on_c, 10, 62, 0
11, 79548, Note_on_c, 10, 74, 0
11, 79560, Note_on_c, 10, 74, 100
11, 79560, Note_on_c, 10, 62, 100
11, 79608, Note_on_c, 10, 62, 0
11, 79608, Note_on_c, 10, 74, 0
11, 79620, Note_on_c, 10, 74, 103
11, 79620, Note_on_c, 10, 62, 103
11, 79668, Note_on_c, 10, 62, 0
11, 79668, Note_on_c, 10, 74, 0
11, 79680, Note_on_c, 10, 62, 108
11, 79680, Note_on_c, 10, 74, 101
11, 79728, Note_on_c, 10, 74, 0
11, 79728, Note_on_c, 10, 62, 0
11, 79740, Note_on_c, 10, 74, 102
11, 79740, Note_on_c, 10, 62, 107
11, 79788, Note_on_c, 10, 62, 0
11, 79788, Note_on_c, 10, 74, 0
11, 79800, Note_on_c, 10, 62, 104
11, 79800, Note_on_c, 10, 74, 99
11, 79848, Note_on_c, 10, 74, 0
11, 79848, Note_on_c, 10, 62, 0
11, 79860, Note_on_c, 10, 62, 101
11, 79860, Note_on_c, 10, 74, 94
11, 79908, Note_on_c, 10, 74, 0
11, 79908, Note_on_c, 10, 62, 0
11, 79920, Note_on_c, 10, 74, 118
11, 79968, Note_on_c, 10, 74, 0
11, 79980, Note_on_c, 10, 77, 118
11, 80028, Note_on_c, 10, 77, 0
11, 80040, Note_on_c, 10, 77, 120
11, 80088, Note_on_c, 10, 77, 0
11, 80100, Note_on_c, 10, 77, 107
11, 80148, Note_on_c, 10, 77, 0
11, 80160, Note_on_c, 10, 77, 108
11, 80208, Note_on_c, 10, 77, 0
11, 80220, Note_on_c, 10, 77, 116
11, 80268, Note_on_c, 10, 77, 0
11, 80280, Note_on_c, 10, 77, 116
11, 80328, Note_on_c, 10, 77, 0
11, 80340, Note_on_c, 10, 77, 109
11, 80388, Note_on_c, 10, 77, 0
11, 80400, Note_on_c, 10, 77, 120
11, 80448, Note_on_c, 10, 77, 0
11, 80460, Note_on_c, 10, 77, 120
11, 80508, Note_on_c, 10, 77, 0
11, 80520, Note_on_c, 10, 77, 116
11, 80568, Note_on_c, 10, 77, 0
11, 80580, Note_on_c, 10, 77, 113
11, 80628, Note_on_c, 10, 77, 0
11, 80640, Note_on_c, 10, 77, 125
11, 80688, Note_on_c, 10, 77, 0
11, 80700, Note_on_c, 10, 77, 121
11, 80748, Note_on_c, 10, 77, 0
11, 80760, Note_on_c, 10, 77, 121
11, 80808, Note_on_c, 10, 77, 0
11, 80820, Note_on_c, 10, 77, 127
11, 80868, Note_on_c, 10, 77, 0
11, 80880, Note_on_c, 10, 77, 125
11, 80928, Note_on_c, 10, 77, 0
11, 80940, Note_on_c, 10, 77, 113
11, 80988, Note_on_c, 10, 77, 0
11, 81000, Note_on_c, 10, 76, 114
11, 81048, Note_on_c, 10, 76, 0
11, 81060, Note_on_c, 10, 76, 114
11, 81108, Note_on_c, 10, 76, 0
11, 81120, Note_on_c, 10, 76, 120
11, 81168, Note_on_c, 10, 76, 0
11, 81180, Note_on_c, 10, 76, 117
11, 81228, Note_on_c, 10, 76, 0
11, 81240, Note_on_c, 10, 76, 117
11, 81288, Note_on_c, 10, 76, 0
11, 81300, Note_on_c, 10, 76, 117
11, 81348, Note_on_c, 10, 76, 0
11, 81360, Note_on_c, 10, 75, 111
11, 81408, Note_on_c, 10, 75, 0
11, 81420, Note_on_c, 10, 75, 95
11, 81468, Note_on_c, 10, 75, 0
11, 81480, Note_on_c, 10, 75, 91
11, 81528, Note_on_c, 10, 75, 0
11, 81540, Note_on_c, 10, 75, 103
11, 81588, Note_on_c, 10, 75, 0
11, 81600, Note_on_c, 10, 75, 113
11, 81648, Note_on_c, 10, 75, 0
11, 81660, Note_on_c, 10, 75, 126
11, 81708, Note_on_c, 10, 75, 0
11, 81720, Note_on_c, 10, 60, 107
11, 81768, Note_on_c, 10, 60, 0
11, 81780, Note_on_c, 10, 60, 109
11, 81828, Note_on_c, 10, 60, 0
11, 81840, Note_on_c, 10, 60, 113
11, 81888, Note_on_c, 10, 60, 0
11, 81900, Note_on_c, 10, 60, 116
11, 81948, Note_on_c, 10, 60, 0
11, 81960, Note_on_c, 10, 60, 118
11, 82008, Note_on_c, 10, 60, 0
11, 82020, Note_on_c, 10, 60, 127
11, 82068, Note_on_c, 10, 60, 0
11, 82080, Note_on_c, 10, 58, 96
11, 82128, Note_on_c, 10, 58, 0
11, 82140, Note_on_c, 10, 58, 97
11, 82188, Note_on_c, 10, 58, 0
11, 82200, Note_on_c, 10, 58, 79
11, 82248, Note_on_c, 10, 58, 0
11, 82260, Note_on_c, 10, 65, 111
11, 82308, Note_on_c, 10, 65, 0
11, 82320, Note_on_c, 10, 65, 105
11, 82368, Note_on_c, 10, 65, 0
11, 82380, Note_on_c, 10, 65, 109
11, 82428, Note_on_c, 10, 65, 0
11, 82438, Control_c, 10, 7, 125
11, 82440, Note_on_c, 10, 62, 110
11, 82440, Control_c, 10, 7, 126
11, 82488, Note_on_c, 10, 62, 0
11, 82500, Note_on_c, 10, 62, 110
11, 82510, Control_c, 10, 7, 124
11, 82512, Control_c, 10, 7, 122
11, 82542, Control_c, 10, 7, 121
11, 82548, Note_on_c, 10, 62, 0
11, 82560, Note_on_c, 10, 62, 118
11, 82570, Control_c, 10, 7, 120
11, 82600, Control_c, 10, 7, 119
11, 82608, Note_on_c, 10, 62, 0
11, 82620, Note_on_c, 10, 74, 107
11, 82628, Control_c, 10, 7, 118
11, 82658, Control_c, 10, 7, 117
11, 82668, Note_on_c, 10, 74, 0
11, 82680, Note_on_c, 10, 74, 111
11, 82686, Control_c, 10, 7, 116
11, 82714, Control_c, 10, 7, 115
11, 82728, Note_on_c, 10, 74, 0
11, 82740, Note_on_c, 10, 74, 100
11, 82744, Control_c, 10, 7, 114
11, 82772, Control_c, 10, 7, 113
11, 82788, Note_on_c, 10, 74, 0
11, 82800, Note_on_c, 10, 70, 100
11, 82802, Control_c, 10, 7, 112
11, 82830, Control_c, 10, 7, 111
11, 82848, Note_on_c, 10, 70, 0
11, 82858, Control_c, 10, 7, 110
11, 82860, Note_on_c, 10, 70, 92
11, 82888, Control_c, 10, 7, 109
11, 82908, Note_on_c, 10, 70, 0
11, 82916, Control_c, 10, 7, 108
11, 82920, Note_on_c, 10, 70, 95
11, 82946, Control_c, 10, 7, 107
11, 82968, Note_on_c, 10, 70, 0
11, 82974, Control_c, 10, 7, 106
11, 82980, Note_on_c, 10, 70, 109
11, 83002, Control_c, 10, 7, 105
11, 83028, Note_on_c, 10, 70, 0
11, 83032, Control_c, 10, 7, 104
11, 83040, Note_on_c, 10, 70, 105
11, 83060, Control_c, 10, 7, 103
11, 83088, Note_on_c, 10, 70, 0
11, 83090, Control_c, 10, 7, 102
11, 83100, Note_on_c, 10, 70, 99
11, 83118, Control_c, 10, 7, 101
11, 83146, Control_c, 10, 7, 100
11, 83148, Note_on_c, 10, 70, 0
11, 83160, Note_on_c, 10, 67, 109
11, 83176, Control_c, 10, 7, 99
11, 83204, Control_c, 10, 7, 98
11, 83208, Note_on_c, 10, 67, 0
11, 83220, Note_on_c, 10, 67, 102
11, 83234, Control_c, 10, 7, 97
11, 83262, Control_c, 10, 7, 96
11, 83268, Note_on_c, 10, 67, 0
11, 83280, Note_on_c, 10, 67, 118
11, 83290, Control_c, 10, 7, 95
11, 83320, Control_c, 10, 7, 94
11, 83328, Note_on_c, 10, 67, 0
11, 83340, Note_on_c, 10, 67, 116
11, 83348, Control_c, 10, 7, 93
11, 83378, Control_c, 10, 7, 92
11, 83388, Note_on_c, 10, 67, 0
11, 83400, Note_on_c, 10, 67, 110
11, 83406, Control_c, 10, 7, 91
11, 83434, Control_c, 10, 7, 90
11, 83448, Note_on_c, 10, 67, 0
11, 83460, Note_on_c, 10, 67, 116
11, 83464, Control_c, 10, 7, 89
11, 83492, Control_c, 10, 7, 88
11, 83508, Note_on_c, 10, 67, 0
11, 83520, Note_on_c, 10, 67, 112
11, 83522, Control_c, 10, 7, 87
11, 83550, Control_c, 10, 7, 86
11, 83568, Note_on_c, 10, 67, 0
11, 83578, Control_c, 10, 7, 85
11, 83580, Note_on_c, 10, 67, 110
11, 83628, Note_on_c, 10, 67, 0
11, 83640, Note_on_c, 10, 67, 116
11, 83688, Note_on_c, 10, 67, 0
11, 83700, Note_on_c, 10, 64, 127
11, 83748, Note_on_c, 10, 64, 0
11, 83760, Note_on_c, 10, 64, 112
11, 83808, Note_on_c, 10, 64, 0
11, 83820, Note_on_c, 10, 64, 112
11, 83868, Note_on_c, 10, 64, 0
11, 83880, Note_on_c, 10, 64, 127
11, 83928, Note_on_c, 10, 64, 0
11, 83940, Note_on_c, 10, 64, 117
11, 83988, Note_on_c, 10, 64, 0
11, 84000, Note_on_c, 10, 64, 125
11, 84048, Note_on_c, 10, 64, 0
11, 84060, Note_on_c, 10, 60, 127
11, 84108, Note_on_c, 10, 60, 0
11, 84120, Note_on_c, 10, 60, 116
11, 84168, Note_on_c, 10, 60, 0
11, 84180, Note_on_c, 10, 60, 118
11, 84228, Note_on_c, 10, 60, 0
11, 84240, Note_on_c, 10, 60, 118
11, 84288, Note_on_c, 10, 60, 0
11, 84300, Note_on_c, 10, 60, 116
11, 84348, Note_on_c, 10, 60, 0
11, 84360, Note_on_c, 10, 60, 118
11, 84408, Note_on_c, 10, 60, 0
11, 84420, Note_on_c, 10, 58, 96
11, 84468, Note_on_c, 10, 58, 0
11, 84480, Note_on_c, 10, 58, 105
11, 84528, Note_on_c, 10, 58, 0
11, 84540, Note_on_c, 10, 58, 111
11, 84588, Note_on_c, 10, 58, 0
11, 84600, Note_on_c, 10, 58, 118
11, 84648, Note_on_c, 10, 58, 0
11, 84660, Note_on_c, 10, 58, 113
11, 84708, Note_on_c, 10, 58, 0
11, 84720, Note_on_c, 10, 58, 123
11, 84768, Note_on_c, 10, 58, 0
11, 84780, Note_on_c, 10, 55, 123
11, 84828, Note_on_c, 10, 55, 0
11, 84840, Note_on_c, 10, 55, 123
11, 84888, Note_on_c, 10, 55, 0
11, 84900, Note_on_c, 10, 55, 127
11, 84948, Note_on_c, 10, 55, 0
11, 84960, Note_on_c, 10, 53, 118
11, 84960, Control_c, 10, 7, 85
11, 85248, Note_on_c, 10, 53, 0
11, 85320, Note_on_c, 10, 55, 105
11, 85608, Note_on_c, 10, 55, 0
11, 85680, Note_on_c, 10, 55, 106
11, 85680, Note_on_c, 10, 52, 99
11, 85968, Note_on_c, 10, 52, 0
11, 85968, Note_on_c, 10, 55, 0
11, 86040, Note_on_c, 10, 57, 101
11, 86040, Note_on_c, 10, 53, 100
11, 86328, Note_on_c, 10, 53, 0
11, 86328, Note_on_c, 10, 57, 0
11, 86400, Note_on_c, 10, 57, 116
11, 86400, Note_on_c, 10, 53, 113
11, 86544, Note_on_c, 10, 53, 0
11, 86544, Note_on_c, 10, 57, 0
11, 86580, Note_on_c, 10, 58, 94
11, 86580, Note_on_c, 10, 53, 98
11, 86676, Note_on_c, 10, 53, 0
11, 86676, Note_on_c, 10, 58, 0
11, 86700, Note_on_c, 10, 57, 114
11, 86700, Note_on_c, 10, 53, 101
11, 86748, Note_on_c, 10, 53, 0
11, 86748, Note_on_c, 10, 57, 0
11, 86760, Note_on_c, 10, 53, 104
11, 86760, Note_on_c, 10, 55, 113
11, 87048, Note_on_c, 10, 55, 0
11, 87048, Note_on_c, 10, 53, 0
11, 87120, Note_on_c, 10, 55, 113
11, 87120, Note_on_c, 10, 52, 101
11, 87408, Note_on_c, 10, 52, 0
11, 87408, Note_on_c, 10, 55, 0
11, 87480, Note_on_c, 10, 57, 105
11, 87480, Note_on_c, 10, 53, 101
11, 87576, Note_on_c, 10, 53, 0
11, 87576, Note_on_c, 10, 57, 0
11, 87778, Control_c, 10, 7, 113
11, 87840, Note_on_c, 10, 60, 106
11, 87984, Note_on_c, 10, 60, 0
11, 88020, Note_on_c, 10, 62, 117
11, 88068, Note_on_c, 10, 62, 0
11, 88140, Note_on_c, 10, 57, 118
11, 88188, Note_on_c, 10, 57, 0
11, 88200, Note_on_c, 10, 58, 99
11, 88476, Note_on_c, 10, 58, 0
11, 88558, Control_c, 10, 7, 83
11, 89220, Note_on_c, 10, 53, 127
11, 89220, Note_on_c, 10, 50, 98
11, 89268, Note_on_c, 10, 50, 0
11, 89268, Note_on_c, 10, 53, 0
11, 89280, Note_on_c, 10, 55, 109
11, 89280, Note_on_c, 10, 48, 102
11, 89616, Note_on_c, 10, 48, 0
11, 89616, Note_on_c, 10, 55, 0
11, 89640, Note_on_c, 10, 53, 103
11, 89640, Note_on_c, 10, 57, 102
11, 89736, Note_on_c, 10, 57, 0
11, 89736, Note_on_c, 10, 53, 0
11, 90660, Note_on_c, 10, 57, 103
11, 90660, Note_on_c, 10, 53, 98
11, 90708, Note_on_c, 10, 53, 0
11, 90708, Note_on_c, 10, 57, 0
11, 90718, Control_c, 10, 7, 87
11, 90720, Note_on_c, 10, 58, 85
11, 90720, Note_on_c, 10, 55, 114
11, 90732, Control_c, 10, 7, 88
11, 90746, Control_c, 10, 7, 89
11, 90760, Control_c, 10, 7, 90
11, 90772, Control_c, 10, 7, 91
11, 90786, Control_c, 10, 7, 92
11, 90800, Control_c, 10, 7, 93
11, 90814, Control_c, 10, 7, 94
11, 90826, Control_c, 10, 7, 95
11, 90840, Control_c, 10, 7, 96
11, 90854, Control_c, 10, 7, 97
11, 90868, Control_c, 10, 7, 98
11, 90880, Control_c, 10, 7, 99
11, 90894, Control_c, 10, 7, 100
11, 90908, Control_c, 10, 7, 101
11, 90922, Control_c, 10, 7, 102
11, 90934, Control_c, 10, 7, 103
11, 90948, Control_c, 10, 7, 104
11, 90962, Control_c, 10, 7, 105
11, 90976, Control_c, 10, 7, 106
11, 90988, Control_c, 10, 7, 107
11, 90996, Note_on_c, 10, 55, 0
11, 90996, Note_on_c, 10, 58, 0
11, 91002, Control_c, 10, 7, 108
11, 91016, Control_c, 10, 7, 109
11, 91020, Note_on_c, 10, 58, 84
11, 91020, Note_on_c, 10, 55, 108
11, 91030, Control_c, 10, 7, 110
11, 91042, Control_c, 10, 7, 111
11, 91056, Control_c, 10, 7, 112
11, 91068, Note_on_c, 10, 55, 0
11, 91068, Note_on_c, 10, 58, 0
11, 91070, Control_c, 10, 7, 113
11, 91080, Note_on_c, 10, 55, 104
11, 91080, Note_on_c, 10, 58, 83
11, 91082, Control_c, 10, 7, 114
11, 92448, Note_on_c, 10, 58, 0
11, 92448, Note_on_c, 10, 55, 0
11, 92520, Note_on_c, 10, 57, 102
11, 92520, Note_on_c, 10, 48, 99
11, 92520, Control_c, 10, 7, 90
11, 92808, Note_on_c, 10, 48, 0
11, 92808, Note_on_c, 10, 57, 0
11, 92880, Note_on_c, 10, 48, 100
11, 92880, Note_on_c, 10, 57, 99
11, 93168, Note_on_c, 10, 57, 0
11, 93168, Note_on_c, 10, 48, 0
11, 93240, Note_on_c, 10, 57, 105
11, 93240, Note_on_c, 10, 53, 104
11, 93336, Note_on_c, 10, 53, 0
11, 93336, Note_on_c, 10, 57, 0
11, 93960, Note_on_c, 10, 53, 109
11, 93984, Note_on_c, 10, 53, 0
11, 93990, Note_on_c, 10, 55, 120
11, 94014, Note_on_c, 10, 55, 0
11, 94020, Note_on_c, 10, 57, 116
11, 94044, Note_on_c, 10, 57, 0
11, 94050, Note_on_c, 10, 58, 113
11, 94074, Note_on_c, 10, 58, 0
11, 94080, Note_on_c, 10, 60, 108
11, 94104, Note_on_c, 10, 60, 0
11, 94110, Note_on_c, 10, 59, 112
11, 94134, Note_on_c, 10, 59, 0
11, 94140, Note_on_c, 10, 62, 127
11, 94164, Note_on_c, 10, 62, 0
11, 94170, Note_on_c, 10, 60, 106
11, 94194, Note_on_c, 10, 60, 0
11, 94200, Note_on_c, 10, 58, 81
11, 94224, Note_on_c, 10, 58, 0
11, 94230, Note_on_c, 10, 57, 116
11, 94254, Note_on_c, 10, 57, 0
11, 94260, Note_on_c, 10, 55, 105
11, 94284, Note_on_c, 10, 55, 0
11, 94290, Note_on_c, 10, 53, 121
11, 94314, Note_on_c, 10, 53, 0
11, 94620, Note_on_c, 10, 65, 99
11, 94622, Control_c, 10, 7, 127
11, 94668, Note_on_c, 10, 65, 0
11, 94680, Note_on_c, 10, 53, 102
11, 94776, Note_on_c, 10, 53, 0
11, 94776, End_track
12, 0, Start_track
12, 0, MIDI_port, 0
12, 0, Title_t, "Cello"
12, 0, Program_c, 11, 42
12, 0, Control_c, 11, 7, 114
12, 1440, Note_on_c, 11, 41, 127
12, 1440, Note_on_c, 11, 48, 107
12, 1728, Note_on_c, 11, 48, 0
12, 1728, Note_on_c, 11, 41, 0
12, 1800, Note_on_c, 11, 41, 111
12, 1800, Note_on_c, 11, 48, 100
12, 2088, Note_on_c, 11, 48, 0
12, 2088, Note_on_c, 11, 41, 0
12, 2160, Note_on_c, 11, 41, 123
12, 2160, Note_on_c, 11, 48, 117
12, 2664, Note_on_c, 11, 48, 0
12, 2664, Note_on_c, 11, 41, 0
12, 2700, Note_on_c, 11, 41, 104
12, 2700, Note_on_c, 11, 48, 111
12, 2844, Note_on_c, 11, 48, 0
12, 2844, Note_on_c, 11, 41, 0
12, 2880, Note_on_c, 11, 48, 102
12, 2880, Note_on_c, 11, 41, 98
12, 2928, Note_on_c, 11, 41, 0
12, 2928, Note_on_c, 11, 48, 0
12, 8640, Note_on_c, 11, 57, 123
12, 8784, Note_on_c, 11, 57, 0
12, 8820, Note_on_c, 11, 53, 127
12, 8916, Note_on_c, 11, 53, 0
12, 8940, Note_on_c, 11, 60, 114
12, 8988, Note_on_c, 11, 60, 0
12, 9000, Note_on_c, 11, 57, 120
12, 9144, Note_on_c, 11, 57, 0
12, 9180, Note_on_c, 11, 53, 127
12, 9276, Note_on_c, 11, 53, 0
12, 9300, Note_on_c, 11, 48, 123
12, 9348, Note_on_c, 11, 48, 0
12, 9360, Note_on_c, 11, 53, 125
12, 9456, Note_on_c, 11, 53, 0
12, 9480, Note_on_c, 11, 57, 114
12, 9528, Note_on_c, 11, 57, 0
12, 9540, Note_on_c, 11, 60, 127
12, 9636, Note_on_c, 11, 60, 0
12, 9660, Note_on_c, 11, 57, 120
12, 9708, Note_on_c, 11, 57, 0
12, 9720, Note_on_c, 11, 58, 97
12, 9864, Note_on_c, 11, 58, 0
12, 9900, Note_on_c, 11, 58, 86
12, 9996, Note_on_c, 11, 58, 0
12, 10020, Note_on_c, 11, 55, 127
12, 10068, Note_on_c, 11, 55, 0
12, 10080, Note_on_c, 11, 58, 103
12, 10224, Note_on_c, 11, 58, 0
12, 10260, Note_on_c, 11, 55, 101
12, 10356, Note_on_c, 11, 55, 0
12, 10380, Note_on_c, 11, 60, 95
12, 10428, Note_on_c, 11, 60, 0
12, 10440, Note_on_c, 11, 57, 114
12, 10584, Note_on_c, 11, 57, 0
12, 10620, Note_on_c, 11, 53, 121
12, 10716, Note_on_c, 11, 53, 0
12, 10740, Note_on_c, 11, 57, 127
12, 10788, Note_on_c, 11, 57, 0
12, 10800, Note_on_c, 11, 55, 104
12, 10896, Note_on_c, 11, 55, 0
12, 10920, Note_on_c, 11, 50, 100
12, 10968, Note_on_c, 11, 50, 0
12, 10980, Note_on_c, 11, 52, 116
12, 11076, Note_on_c, 11, 52, 0
12, 11100, Note_on_c, 11, 48, 103
12, 11148, Note_on_c, 11, 48, 0
12, 11160, Note_on_c, 11, 48, 102
12, 11208, Note_on_c, 11, 48, 0
12, 11220, Note_on_c, 11, 53, 109
12, 11316, Note_on_c, 11, 53, 0
12, 11340, Note_on_c, 11, 48, 103
12, 11388, Note_on_c, 11, 48, 0
12, 11400, Note_on_c, 11, 55, 100
12, 11496, Note_on_c, 11, 55, 0
12, 11520, Note_on_c, 11, 48, 106
12, 11568, Note_on_c, 11, 48, 0
12, 11580, Note_on_c, 11, 57, 105
12, 11676, Note_on_c, 11, 57, 0
12, 11700, Note_on_c, 11, 60, 105
12, 11748, Note_on_c, 11, 60, 0
12, 11760, Note_on_c, 11, 58, 93
12, 11808, Note_on_c, 11, 58, 0
12, 11820, Note_on_c, 11, 55, 121
12, 11844, Note_on_c, 11, 55, 0
12, 11850, Note_on_c, 11, 52, 103
12, 11874, Note_on_c, 11, 52, 0
12, 11880, Note_on_c, 11, 48, 103
12, 11904, Note_on_c, 11, 48, 0
12, 11910, Note_on_c, 11, 53, 117
12, 11934, Note_on_c, 11, 53, 0
12, 11940, Note_on_c, 11, 57, 107
12, 11964, Note_on_c, 11, 57, 0
12, 11970, Note_on_c, 11, 60, 104
12, 11994, Note_on_c, 11, 60, 0
12, 12000, Note_on_c, 11, 57, 123
12, 12024, Note_on_c, 11, 57, 0
12, 12030, Note_on_c, 11, 53, 98
12, 12054, Note_on_c, 11, 53, 0
12, 12060, Note_on_c, 11, 48, 110
12, 12084, Note_on_c, 11, 48, 0
12, 12090, Note_on_c, 11, 55, 117
12, 12114, Note_on_c, 11, 55, 0
12, 12120, Note_on_c, 11, 58, 113
12, 12144, Note_on_c, 11, 58, 0
12, 12150, Note_on_c, 11, 60, 127
12, 12174, Note_on_c, 11, 60, 0
12, 12180, Note_on_c, 11, 58, 109
12, 12204, Note_on_c, 11, 58, 0
12, 12210, Note_on_c, 11, 55, 127
12, 12234, Note_on_c, 11, 55, 0
12, 12240, Note_on_c, 11, 48, 118
12, 12264, Note_on_c, 11, 48, 0
12, 12270, Note_on_c, 11, 53, 121
12, 12294, Note_on_c, 11, 53, 0
12, 12300, Note_on_c, 11, 57, 118
12, 12324, Note_on_c, 11, 57, 0
12, 12330, Note_on_c, 11, 60, 120
12, 12354, Note_on_c, 11, 60, 0
12, 12360, Note_on_c, 11, 57, 123
12, 12384, Note_on_c, 11, 57, 0
12, 12390, Note_on_c, 11, 53, 100
12, 12414, Note_on_c, 11, 53, 0
12, 12420, Note_on_c, 11, 48, 110
12, 12444, Note_on_c, 11, 48, 0
12, 12450, Note_on_c, 11, 55, 127
12, 12474, Note_on_c, 11, 55, 0
12, 12480, Note_on_c, 11, 58, 99
12, 12504, Note_on_c, 11, 58, 0
12, 12510, Note_on_c, 11, 60, 117
12, 12534, Note_on_c, 11, 60, 0
12, 12540, Note_on_c, 11, 48, 97
12, 12588, Note_on_c, 11, 48, 0
12, 12600, Note_on_c, 11, 48, 109
12, 12648, Note_on_c, 11, 48, 0
12, 12660, Note_on_c, 11, 53, 107
12, 12708, Note_on_c, 11, 53, 0
12, 12720, Note_on_c, 11, 53, 108
12, 12732, Note_on_c, 11, 53, 0
12, 12735, Note_on_c, 11, 55, 113
12, 12747, Note_on_c, 11, 55, 0
12, 12750, Note_on_c, 11, 53, 121
12, 12762, Note_on_c, 11, 53, 0
12, 12765, Note_on_c, 11, 55, 107
12, 12777, Note_on_c, 11, 55, 0
12, 12780, Note_on_c, 11, 48, 108
12, 12828, Note_on_c, 11, 48, 0
12, 12840, Note_on_c, 11, 55, 101
12, 12888, Note_on_c, 11, 55, 0
12, 12900, Note_on_c, 11, 55, 102
12, 12912, Note_on_c, 11, 55, 0
12, 12915, Note_on_c, 11, 57, 107
12, 12927, Note_on_c, 11, 57, 0
12, 12930, Note_on_c, 11, 55, 99
12, 12942, Note_on_c, 11, 55, 0
12, 12945, Note_on_c, 11, 57, 100
12, 12957, Note_on_c, 11, 57, 0
12, 12960, Note_on_c, 11, 48, 104
12, 13008, Note_on_c, 11, 48, 0
12, 13020, Note_on_c, 11, 57, 112
12, 13068, Note_on_c, 11, 57, 0
12, 13080, Note_on_c, 11, 57, 101
12, 13092, Note_on_c, 11, 57, 0
12, 13095, Note_on_c, 11, 58, 101
12, 13107, Note_on_c, 11, 58, 0
12, 13110, Note_on_c, 11, 57, 118
12, 13122, Note_on_c, 11, 57, 0
12, 13125, Note_on_c, 11, 58, 101
12, 13137, Note_on_c, 11, 58, 0
12, 13140, Note_on_c, 11, 60, 114
12, 13196, Note_on_c, 11, 60, 0
12, 13200, Note_on_c, 11, 58, 105
12, 13256, Note_on_c, 11, 58, 0
12, 13260, Note_on_c, 11, 55, 96
12, 13284, Note_on_c, 11, 55, 0
12, 13290, Note_on_c, 11, 52, 103
12, 13314, Note_on_c, 11, 52, 0
12, 13320, Note_on_c, 11, 48, 107
12, 13344, Note_on_c, 11, 48, 0
12, 13350, Note_on_c, 11, 53, 127
12, 13374, Note_on_c, 11, 53, 0
12, 13380, Note_on_c, 11, 57, 112
12, 13404, Note_on_c, 11, 57, 0
12, 13410, Note_on_c, 11, 60, 116
12, 13434, Note_on_c, 11, 60, 0
12, 13440, Note_on_c, 11, 57, 118
12, 13464, Note_on_c, 11, 57, 0
12, 13470, Note_on_c, 11, 53, 109
12, 13494, Note_on_c, 11, 53, 0
12, 13500, Note_on_c, 11, 48, 92
12, 13524, Note_on_c, 11, 48, 0
12, 13530, Note_on_c, 11, 55, 111
12, 13554, Note_on_c, 11, 55, 0
12, 13560, Note_on_c, 11, 58, 97
12, 13584, Note_on_c, 11, 58, 0
12, 13590, Note_on_c, 11, 60, 123
12, 13614, Note_on_c, 11, 60, 0
12, 13620, Note_on_c, 11, 58, 111
12, 13644, Note_on_c, 11, 58, 0
12, 13650, Note_on_c, 11, 55, 104
12, 13674, Note_on_c, 11, 55, 0
12, 13680, Note_on_c, 11, 48, 104
12, 13704, Note_on_c, 11, 48, 0
12, 13710, Note_on_c, 11, 53, 110
12, 13734, Note_on_c, 11, 53, 0
12, 13740, Note_on_c, 11, 57, 106
12, 13764, Note_on_c, 11, 57, 0
12, 13770, Note_on_c, 11, 60, 109
12, 13794, Note_on_c, 11, 60, 0
12, 13800, Note_on_c, 11, 57, 105
12, 13824, Note_on_c, 11, 57, 0
12, 13830, Note_on_c, 11, 53, 121
12, 13854, Note_on_c, 11, 53, 0
12, 13860, Note_on_c, 11, 48, 109
12, 13884, Note_on_c, 11, 48, 0
12, 13890, Note_on_c, 11, 52, 121
12, 13914, Note_on_c, 11, 52, 0
12, 13920, Note_on_c, 11, 58, 100
12, 13944, Note_on_c, 11, 58, 0
12, 13950, Note_on_c, 11, 60, 118
12, 13974, Note_on_c, 11, 60, 0
12, 14040, Note_on_c, 11, 62, 118
12, 14088, Note_on_c, 11, 62, 0
12, 14100, Note_on_c, 11, 60, 116
12, 14148, Note_on_c, 11, 60, 0
12, 14160, Note_on_c, 11, 57, 127
12, 14184, Note_on_c, 11, 57, 0
12, 14190, Note_on_c, 11, 53, 127
12, 14214, Note_on_c, 11, 53, 0
12, 14400, Note_on_c, 11, 65, 120
12, 14448, Note_on_c, 11, 65, 0
12, 14460, Note_on_c, 11, 64, 103
12, 14508, Note_on_c, 11, 64, 0
12, 14520, Note_on_c, 11, 60, 117
12, 14544, Note_on_c, 11, 60, 0
12, 14550, Note_on_c, 11, 55, 127
12, 14574, Note_on_c, 11, 55, 0
12, 14700, Note_on_c, 11, 50, 107
12, 14748, Note_on_c, 11, 50, 0
12, 14760, Note_on_c, 11, 52, 99
12, 14856, Note_on_c, 11, 52, 0
12, 15120, Note_on_c, 11, 57, 127
12, 15168, Note_on_c, 11, 57, 0
12, 15180, Note_on_c, 11, 55, 114
12, 15228, Note_on_c, 11, 55, 0
12, 15240, Note_on_c, 11, 52, 127
12, 15264, Note_on_c, 11, 52, 0
12, 15270, Note_on_c, 11, 48, 96
12, 15294, Note_on_c, 11, 48, 0
12, 15300, Note_on_c, 11, 45, 110
12, 15348, Note_on_c, 11, 45, 0
12, 15360, Note_on_c, 11, 43, 112
12, 15408, Note_on_c, 11, 43, 0
12, 15420, Note_on_c, 11, 40, 114
12, 15444, Note_on_c, 11, 40, 0
12, 15450, Note_on_c, 11, 36, 100
12, 15474, Note_on_c, 11, 36, 0
12, 15480, Note_on_c, 11, 43, 118
12, 15768, Note_on_c, 11, 43, 0
12, 15840, Note_on_c, 11, 55, 125
12, 15888, Note_on_c, 11, 55, 0
12, 15900, Note_on_c, 11, 53, 106
12, 15948, Note_on_c, 11, 53, 0
12, 15960, Note_on_c, 11, 50, 110
12, 15984, Note_on_c, 11, 50, 0
12, 15990, Note_on_c, 11, 47, 105
12, 16014, Note_on_c, 11, 47, 0
12, 16020, Note_on_c, 11, 45, 104
12, 16068, Note_on_c, 11, 45, 0
12, 16080, Note_on_c, 11, 43, 105
12, 16128, Note_on_c, 11, 43, 0
12, 16140, Note_on_c, 11, 41, 127
12, 16164, Note_on_c, 11, 41, 0
12, 16170, Note_on_c, 11, 38, 111
12, 16194, Note_on_c, 11, 38, 0
12, 16200, Note_on_c, 11, 43, 117
12, 16488, Note_on_c, 11, 43, 0
12, 16560, Note_on_c, 11, 57, 107
12, 16584, Note_on_c, 11, 57, 0
12, 16590, Note_on_c, 11, 55, 127
12, 16614, Note_on_c, 11, 55, 0
12, 16620, Note_on_c, 11, 54, 103
12, 16644, Note_on_c, 11, 54, 0
12, 16650, Note_on_c, 11, 55, 120
12, 16674, Note_on_c, 11, 55, 0
12, 16680, Note_on_c, 11, 52, 120
12, 16704, Note_on_c, 11, 52, 0
12, 16710, Note_on_c, 11, 48, 93
12, 16734, Note_on_c, 11, 48, 0
12, 16740, Note_on_c, 11, 45, 113
12, 16764, Note_on_c, 11, 45, 0
12, 16770, Note_on_c, 11, 43, 112
12, 16794, Note_on_c, 11, 43, 0
12, 16800, Note_on_c, 11, 42, 99
12, 16824, Note_on_c, 11, 42, 0
12, 16830, Note_on_c, 11, 43, 105
12, 16854, Note_on_c, 11, 43, 0
12, 16860, Note_on_c, 11, 40, 120
12, 16884, Note_on_c, 11, 40, 0
12, 16890, Note_on_c, 11, 36, 114
12, 16914, Note_on_c, 11, 36, 0
12, 16920, Note_on_c, 11, 43, 110
12, 17208, Note_on_c, 11, 43, 0
12, 17280, Note_on_c, 11, 57, 127
12, 17304, Note_on_c, 11, 57, 0
12, 17310, Note_on_c, 11, 55, 121
12, 17334, Note_on_c, 11, 55, 0
12, 17340, Note_on_c, 11, 54, 109
12, 17364, Note_on_c, 11, 54, 0
12, 17370, Note_on_c, 11, 55, 127
12, 17394, Note_on_c, 11, 55, 0
12, 17400, Note_on_c, 11, 53, 120
12, 17424, Note_on_c, 11, 53, 0
12, 17430, Note_on_c, 11, 50, 127
12, 17454, Note_on_c, 11, 50, 0
12, 17460, Note_on_c, 11, 45, 120
12, 17484, Note_on_c, 11, 45, 0
12, 17490, Note_on_c, 11, 43, 111
12, 17514, Note_on_c, 11, 43, 0
12, 17520, Note_on_c, 11, 41, 127
12, 17544, Note_on_c, 11, 41, 0
12, 17550, Note_on_c, 11, 38, 127
12, 17574, Note_on_c, 11, 38, 0
12, 17580, Note_on_c, 11, 43, 113
12, 17604, Note_on_c, 11, 43, 0
12, 17610, Note_on_c, 11, 43, 114
12, 17634, Note_on_c, 11, 43, 0
12, 17640, Note_on_c, 11, 48, 125
12, 17664, Note_on_c, 11, 48, 0
12, 17670, Note_on_c, 11, 60, 121
12, 17694, Note_on_c, 11, 60, 0
12, 17700, Note_on_c, 11, 59, 118
12, 17724, Note_on_c, 11, 59, 0
12, 17730, Note_on_c, 11, 60, 123
12, 17754, Note_on_c, 11, 60, 0
12, 17760, Note_on_c, 11, 62, 121
12, 17784, Note_on_c, 11, 62, 0
12, 17790, Note_on_c, 11, 60, 111
12, 17814, Note_on_c, 11, 60, 0
12, 17820, Note_on_c, 11, 57, 116
12, 17844, Note_on_c, 11, 57, 0
12, 17850, Note_on_c, 11, 60, 120
12, 17874, Note_on_c, 11, 60, 0
12, 17880, Note_on_c, 11, 55, 101
12, 17904, Note_on_c, 11, 55, 0
12, 17910, Note_on_c, 11, 60, 125
12, 17934, Note_on_c, 11, 60, 0
12, 17940, Note_on_c, 11, 53, 112
12, 17964, Note_on_c, 11, 53, 0
12, 17970, Note_on_c, 11, 60, 117
12, 17994, Note_on_c, 11, 60, 0
12, 18000, Note_on_c, 11, 52, 127
12, 18024, Note_on_c, 11, 52, 0
12, 18030, Note_on_c, 11, 55, 120
12, 18054, Note_on_c, 11, 55, 0
12, 18060, Note_on_c, 11, 50, 100
12, 18084, Note_on_c, 11, 50, 0
12, 18090, Note_on_c, 11, 55, 121
12, 18114, Note_on_c, 11, 55, 0
12, 18120, Note_on_c, 11, 48, 102
12, 18144, Note_on_c, 11, 48, 0
12, 18150, Note_on_c, 11, 55, 127
12, 18174, Note_on_c, 11, 55, 0
12, 18180, Note_on_c, 11, 47, 127
12, 18204, Note_on_c, 11, 47, 0
12, 18210, Note_on_c, 11, 43, 109
12, 18234, Note_on_c, 11, 43, 0
12, 18240, Note_on_c, 11, 47, 127
12, 18264, Note_on_c, 11, 47, 0
12, 18270, Note_on_c, 11, 50, 127
12, 18294, Note_on_c, 11, 50, 0
12, 18300, Note_on_c, 11, 55, 127
12, 18324, Note_on_c, 11, 55, 0
12, 18330, Note_on_c, 11, 59, 127
12, 18354, Note_on_c, 11, 59, 0
12, 18360, Note_on_c, 11, 60, 123
12, 18384, Note_on_c, 11, 60, 0
12, 18390, Note_on_c, 11, 60, 123
12, 18414, Note_on_c, 11, 60, 0
12, 18420, Note_on_c, 11, 59, 103
12, 18444, Note_on_c, 11, 59, 0
12, 18450, Note_on_c, 11, 60, 118
12, 18474, Note_on_c, 11, 60, 0
12, 18480, Note_on_c, 11, 62, 109
12, 18504, Note_on_c, 11, 62, 0
12, 18510, Note_on_c, 11, 60, 127
12, 18534, Note_on_c, 11, 60, 0
12, 18540, Note_on_c, 11, 57, 120
12, 18564, Note_on_c, 11, 57, 0
12, 18570, Note_on_c, 11, 60, 109
12, 18594, Note_on_c, 11, 60, 0
12, 18600, Note_on_c, 11, 55, 109
12, 18624, Note_on_c, 11, 55, 0
12, 18630, Note_on_c, 11, 60, 120
12, 18654, Note_on_c, 11, 60, 0
12, 18660, Note_on_c, 11, 53, 104
12, 18684, Note_on_c, 11, 53, 0
12, 18690, Note_on_c, 11, 60, 112
12, 18714, Note_on_c, 11, 60, 0
12, 18720, Note_on_c, 11, 52, 50
12, 18744, Note_on_c, 11, 52, 0
12, 18750, Note_on_c, 11, 55, 118
12, 18774, Note_on_c, 11, 55, 0
12, 18780, Note_on_c, 11, 50, 121
12, 18804, Note_on_c, 11, 50, 0
12, 18810, Note_on_c, 11, 55, 118
12, 18834, Note_on_c, 11, 55, 0
12, 18840, Note_on_c, 11, 48, 118
12, 18864, Note_on_c, 11, 48, 0
12, 18870, Note_on_c, 11, 55, 118
12, 18894, Note_on_c, 11, 55, 0
12, 18900, Note_on_c, 11, 47, 114
12, 18924, Note_on_c, 11, 47, 0
12, 18930, Note_on_c, 11, 43, 106
12, 18954, Note_on_c, 11, 43, 0
12, 18960, Note_on_c, 11, 47, 127
12, 18984, Note_on_c, 11, 47, 0
12, 18990, Note_on_c, 11, 50, 101
12, 19014, Note_on_c, 11, 50, 0
12, 19020, Note_on_c, 11, 55, 97
12, 19044, Note_on_c, 11, 55, 0
12, 19050, Note_on_c, 11, 59, 107
12, 19074, Note_on_c, 11, 59, 0
12, 19080, Note_on_c, 11, 48, 113
12, 19308, Note_on_c, 11, 48, 0
12, 19380, Note_on_c, 11, 48, 107
12, 19428, Note_on_c, 11, 48, 0
12, 19440, Note_on_c, 11, 41, 107
12, 19668, Note_on_c, 11, 41, 0
12, 19740, Note_on_c, 11, 41, 121
12, 19788, Note_on_c, 11, 41, 0
12, 19800, Note_on_c, 11, 43, 117
12, 19912, Note_on_c, 11, 43, 0
12, 21780, Note_on_c, 11, 48, 117
12, 21780, Note_on_c, 11, 41, 117
12, 22608, Note_on_c, 11, 41, 0
12, 22608, Note_on_c, 11, 48, 0
12, 22680, Note_on_c, 11, 41, 123
12, 22680, Note_on_c, 11, 48, 100
12, 22776, Note_on_c, 11, 48, 0
12, 22776, Note_on_c, 11, 41, 0
12, 26940, Note_on_c, 11, 53, 100
12, 26988, Note_on_c, 11, 53, 0
12, 27000, Note_on_c, 11, 53, 107
12, 27096, Note_on_c, 11, 53, 0
12, 27300, Note_on_c, 11, 53, 111
12, 27348, Note_on_c, 11, 53, 0
12, 27360, Note_on_c, 11, 57, 120
12, 27456, Note_on_c, 11, 57, 0
12, 27480, Note_on_c, 11, 60, 127
12, 27528, Note_on_c, 11, 60, 0
12, 27540, Note_on_c, 11, 63, 123
12, 27636, Note_on_c, 11, 63, 0
12, 27660, Note_on_c, 11, 60, 111
12, 27708, Note_on_c, 11, 60, 0
12, 27720, Note_on_c, 11, 63, 118
12, 27816, Note_on_c, 11, 63, 0
12, 27840, Note_on_c, 11, 60, 127
12, 27888, Note_on_c, 11, 60, 0
12, 27900, Note_on_c, 11, 57, 127
12, 27996, Note_on_c, 11, 57, 0
12, 28020, Note_on_c, 11, 53, 127
12, 28068, Note_on_c, 11, 53, 0
12, 28080, Note_on_c, 11, 51, 123
12, 28176, Note_on_c, 11, 51, 0
12, 28200, Note_on_c, 11, 48, 127
12, 28248, Note_on_c, 11, 48, 0
12, 28260, Note_on_c, 11, 45, 127
12, 28356, Note_on_c, 11, 45, 0
12, 28380, Note_on_c, 11, 41, 118
12, 28428, Note_on_c, 11, 41, 0
12, 28440, Note_on_c, 11, 46, 93
12, 28536, Note_on_c, 11, 46, 0
12, 29100, Note_on_c, 11, 41, 107
12, 29148, Note_on_c, 11, 41, 0
12, 29160, Note_on_c, 11, 48, 113
12, 29256, Note_on_c, 11, 48, 0
12, 29820, Note_on_c, 11, 41, 127
12, 29868, Note_on_c, 11, 41, 0
12, 29880, Note_on_c, 11, 53, 117
12, 29976, Note_on_c, 11, 53, 0
12, 30540, Note_on_c, 11, 41, 127
12, 30588, Note_on_c, 11, 41, 0
12, 30600, Note_on_c, 11, 46, 113
12, 30696, Note_on_c, 11, 46, 0
12, 30900, Note_on_c, 11, 46, 115
12, 30948, Note_on_c, 11, 46, 0
12, 30960, Note_on_c, 11, 51, 127
12, 31056, Note_on_c, 11, 51, 0
12, 31260, Note_on_c, 11, 51, 112
12, 31308, Note_on_c, 11, 51, 0
12, 31320, Note_on_c, 11, 46, 121
12, 31416, Note_on_c, 11, 46, 0
12, 31620, Note_on_c, 11, 46, 121
12, 31668, Note_on_c, 11, 46, 0
12, 31680, Note_on_c, 11, 41, 127
12, 31776, Note_on_c, 11, 41, 0
12, 31980, Note_on_c, 11, 41, 127
12, 32028, Note_on_c, 11, 41, 0
12, 32040, Note_on_c, 11, 46, 127
12, 32136, Note_on_c, 11, 46, 0
12, 32340, Note_on_c, 11, 46, 126
12, 32388, Note_on_c, 11, 46, 0
12, 32400, Note_on_c, 11, 51, 115
12, 32496, Note_on_c, 11, 51, 0
12, 32700, Note_on_c, 11, 51, 123
12, 32748, Note_on_c, 11, 51, 0
12, 32760, Note_on_c, 11, 53, 127
12, 32856, Note_on_c, 11, 53, 0
12, 33060, Note_on_c, 11, 53, 127
12, 33108, Note_on_c, 11, 53, 0
12, 33120, Note_on_c, 11, 54, 115
12, 33396, Note_on_c, 11, 54, 0
12, 33420, Note_on_c, 11, 55, 121
12, 33468, Note_on_c, 11, 55, 0
12, 33480, Note_on_c, 11, 56, 113
12, 33936, Note_on_c, 11, 56, 0
12, 35220, Note_on_c, 11, 43, 117
12, 35222, Control_c, 11, 7, 94
12, 35268, Note_on_c, 11, 43, 0
12, 35280, Note_on_c, 11, 48, 127
12, 35424, Note_on_c, 11, 48, 0
12, 35460, Note_on_c, 11, 43, 127
12, 35556, Note_on_c, 11, 43, 0
12, 35580, Note_on_c, 11, 52, 107
12, 35628, Note_on_c, 11, 52, 0
12, 35640, Note_on_c, 11, 50, 117
12, 35784, Note_on_c, 11, 50, 0
12, 35820, Note_on_c, 11, 43, 110
12, 35916, Note_on_c, 11, 43, 0
12, 35940, Note_on_c, 11, 53, 123
12, 35988, Note_on_c, 11, 53, 0
12, 36000, Note_on_c, 11, 47, 111
12, 36144, Note_on_c, 11, 47, 0
12, 36180, Note_on_c, 11, 43, 101
12, 36228, Note_on_c, 11, 43, 0
12, 36300, Note_on_c, 11, 50, 114
12, 36348, Note_on_c, 11, 50, 0
12, 36360, Note_on_c, 11, 48, 120
12, 36504, Note_on_c, 11, 48, 0
12, 36540, Note_on_c, 11, 43, 109
12, 36588, Note_on_c, 11, 43, 0
12, 36660, Note_on_c, 11, 52, 107
12, 36708, Note_on_c, 11, 52, 0
12, 36720, Note_on_c, 11, 48, 125
12, 36864, Note_on_c, 11, 48, 0
12, 36900, Note_on_c, 11, 43, 100
12, 36996, Note_on_c, 11, 43, 0
12, 37020, Note_on_c, 11, 52, 114
12, 37068, Note_on_c, 11, 52, 0
12, 37080, Note_on_c, 11, 50, 127
12, 37224, Note_on_c, 11, 50, 0
12, 37260, Note_on_c, 11, 43, 101
12, 37356, Note_on_c, 11, 43, 0
12, 37380, Note_on_c, 11, 53, 104
12, 37380, Control_c, 11, 7, 105
12, 37428, Note_on_c, 11, 53, 0
12, 37440, Note_on_c, 11, 47, 107
12, 37584, Note_on_c, 11, 47, 0
12, 37620, Note_on_c, 11, 43, 109
12, 37668, Note_on_c, 11, 43, 0
12, 37740, Note_on_c, 11, 50, 125
12, 37788, Note_on_c, 11, 50, 0
12, 37800, Note_on_c, 11, 48, 127
12, 37944, Note_on_c, 11, 48, 0
12, 37980, Note_on_c, 11, 43, 107
12, 38028, Note_on_c, 11, 43, 0
12, 38100, Note_on_c, 11, 52, 116
12, 38148, Note_on_c, 11, 52, 0
12, 38160, Note_on_c, 11, 48, 109
12, 38162, Control_c, 11, 7, 115
12, 38304, Note_on_c, 11, 48, 0
12, 38340, Note_on_c, 11, 43, 112
12, 38388, Note_on_c, 11, 43, 0
12, 38460, Note_on_c, 11, 52, 114
12, 38508, Note_on_c, 11, 52, 0
12, 38520, Note_on_c, 11, 48, 120
12, 38664, Note_on_c, 11, 48, 0
12, 38700, Note_on_c, 11, 43, 112
12, 38748, Note_on_c, 11, 43, 0
12, 38820, Note_on_c, 11, 52, 112
12, 38868, Note_on_c, 11, 52, 0
12, 38880, Note_on_c, 11, 48, 109
12, 39602, Control_c, 11, 7, 95
12, 40824, Note_on_c, 11, 48, 0
12, 40860, Note_on_c, 11, 48, 113
12, 40860, Note_on_c, 11, 41, 107
12, 41688, Note_on_c, 11, 41, 0
12, 41688, Note_on_c, 11, 48, 0
12, 41760, Note_on_c, 11, 41, 123
12, 41760, Note_on_c, 11, 48, 112
12, 41856, Note_on_c, 11, 48, 0
12, 41856, Note_on_c, 11, 41, 0
12, 46620, Control_c, 11, 7, 95
12, 46678, Control_c, 11, 7, 96
12, 46734, Control_c, 11, 7, 97
12, 46792, Control_c, 11, 7, 98
12, 46848, Control_c, 11, 7, 99
12, 46904, Control_c, 11, 7, 100
12, 46962, Control_c, 11, 7, 101
12, 47018, Control_c, 11, 7, 102
12, 47074, Control_c, 11, 7, 103
12, 47132, Control_c, 11, 7, 104
12, 47188, Control_c, 11, 7, 105
12, 47246, Control_c, 11, 7, 106
12, 47302, Control_c, 11, 7, 107
12, 47358, Control_c, 11, 7, 108
12, 47416, Control_c, 11, 7, 109
12, 47472, Control_c, 11, 7, 110
12, 47520, Note_on_c, 11, 57, 123
12, 47528, Control_c, 11, 7, 111
12, 47544, Note_on_c, 11, 57, 0
12, 47550, Note_on_c, 11, 58, 99
12, 47574, Note_on_c, 11, 58, 0
12, 47580, Note_on_c, 11, 57, 123
12, 47586, Control_c, 11, 7, 112
12, 47604, Note_on_c, 11, 57, 0
12, 47610, Note_on_c, 11, 55, 113
12, 47634, Note_on_c, 11, 55, 0
12, 47640, Note_on_c, 11, 53, 114
12, 47642, Control_c, 11, 7, 113
12, 47664, Note_on_c, 11, 53, 0
12, 47670, Note_on_c, 11, 52, 116
12, 47694, Note_on_c, 11, 52, 0
12, 47698, Control_c, 11, 7, 114
12, 47700, Note_on_c, 11, 53, 121
12, 47724, Note_on_c, 11, 53, 0
12, 47730, Note_on_c, 11, 55, 98
12, 47754, Note_on_c, 11, 55, 0
12, 47760, Note_on_c, 11, 57, 111
12, 47784, Note_on_c, 11, 57, 0
12, 47790, Note_on_c, 11, 58, 100
12, 47814, Note_on_c, 11, 58, 0
12, 47820, Note_on_c, 11, 60, 105
12, 47844, Note_on_c, 11, 60, 0
12, 47850, Note_on_c, 11, 58, 101
12, 47874, Note_on_c, 11, 58, 0
12, 47880, Note_on_c, 11, 57, 127
12, 47904, Note_on_c, 11, 57, 0
12, 47910, Note_on_c, 11, 58, 113
12, 47934, Note_on_c, 11, 58, 0
12, 47940, Note_on_c, 11, 57, 112
12, 47964, Note_on_c, 11, 57, 0
12, 47970, Note_on_c, 11, 55, 109
12, 47994, Note_on_c, 11, 55, 0
12, 48000, Note_on_c, 11, 53, 111
12, 48024, Note_on_c, 11, 53, 0
12, 48030, Note_on_c, 11, 52, 116
12, 48054, Note_on_c, 11, 52, 0
12, 48060, Note_on_c, 11, 53, 107
12, 48084, Note_on_c, 11, 53, 0
12, 48090, Note_on_c, 11, 52, 110
12, 48114, Note_on_c, 11, 52, 0
12, 48120, Note_on_c, 11, 53, 125
12, 48144, Note_on_c, 11, 53, 0
12, 48150, Note_on_c, 11, 48, 120
12, 48174, Note_on_c, 11, 48, 0
12, 48180, Note_on_c, 11, 50, 120
12, 48204, Note_on_c, 11, 50, 0
12, 48210, Note_on_c, 11, 52, 96
12, 48234, Note_on_c, 11, 52, 0
12, 48240, Note_on_c, 11, 53, 104
12, 48264, Note_on_c, 11, 53, 0
12, 48270, Note_on_c, 11, 55, 118
12, 48294, Note_on_c, 11, 55, 0
12, 48300, Note_on_c, 11, 53, 109
12, 48324, Note_on_c, 11, 53, 0
12, 48330, Note_on_c, 11, 52, 108
12, 48354, Note_on_c, 11, 52, 0
12, 48360, Note_on_c, 11, 53, 107
12, 48384, Note_on_c, 11, 53, 0
12, 48390, Note_on_c, 11, 55, 109
12, 48414, Note_on_c, 11, 55, 0
12, 48420, Note_on_c, 11, 57, 112
12, 48444, Note_on_c, 11, 57, 0
12, 48450, Note_on_c, 11, 58, 87
12, 48474, Note_on_c, 11, 58, 0
12, 48480, Note_on_c, 11, 60, 108
12, 48504, Note_on_c, 11, 60, 0
12, 48510, Note_on_c, 11, 59, 127
12, 48534, Note_on_c, 11, 59, 0
12, 48540, Note_on_c, 11, 60, 108
12, 48564, Note_on_c, 11, 60, 0
12, 48570, Note_on_c, 11, 57, 117
12, 48594, Note_on_c, 11, 57, 0
12, 48600, Note_on_c, 11, 58, 100
12, 48624, Note_on_c, 11, 58, 0
12, 48630, Note_on_c, 11, 60, 121
12, 48654, Note_on_c, 11, 60, 0
12, 48660, Note_on_c, 11, 62, 107
12, 48684, Note_on_c, 11, 62, 0
12, 48690, Note_on_c, 11, 60, 109
12, 48714, Note_on_c, 11, 60, 0
12, 48720, Note_on_c, 11, 58, 101
12, 48744, Note_on_c, 11, 58, 0
12, 48750, Note_on_c, 11, 60, 114
12, 48774, Note_on_c, 11, 60, 0
12, 48780, Note_on_c, 11, 58, 93
12, 48804, Note_on_c, 11, 58, 0
12, 48810, Note_on_c, 11, 60, 103
12, 48834, Note_on_c, 11, 60, 0
12, 48840, Note_on_c, 11, 58, 97
12, 48864, Note_on_c, 11, 58, 0
12, 48870, Note_on_c, 11, 57, 107
12, 48894, Note_on_c, 11, 57, 0
12, 48900, Note_on_c, 11, 55, 104
12, 48924, Note_on_c, 11, 55, 0
12, 48930, Note_on_c, 11, 57, 111
12, 48954, Note_on_c, 11, 57, 0
12, 48960, Note_on_c, 11, 58, 109
12, 48984, Note_on_c, 11, 58, 0
12, 48990, Note_on_c, 11, 60, 121
12, 49014, Note_on_c, 11, 60, 0
12, 49020, Note_on_c, 11, 58, 100
12, 49044, Note_on_c, 11, 58, 0
12, 49050, Note_on_c, 11, 57, 109
12, 49074, Note_on_c, 11, 57, 0
12, 49080, Note_on_c, 11, 55, 106
12, 49104, Note_on_c, 11, 55, 0
12, 49110, Note_on_c, 11, 54, 90
12, 49134, Note_on_c, 11, 54, 0
12, 49140, Note_on_c, 11, 55, 106
12, 49164, Note_on_c, 11, 55, 0
12, 49170, Note_on_c, 11, 57, 109
12, 49194, Note_on_c, 11, 57, 0
12, 49200, Note_on_c, 11, 58, 91
12, 49224, Note_on_c, 11, 58, 0
12, 49230, Note_on_c, 11, 59, 103
12, 49254, Note_on_c, 11, 59, 0
12, 49260, Note_on_c, 11, 60, 112
12, 49284, Note_on_c, 11, 60, 0
12, 49290, Note_on_c, 11, 58, 95
12, 49314, Note_on_c, 11, 58, 0
12, 49320, Note_on_c, 11, 57, 114
12, 49344, Note_on_c, 11, 57, 0
12, 49350, Note_on_c, 11, 58, 103
12, 49374, Note_on_c, 11, 58, 0
12, 49380, Note_on_c, 11, 57, 120
12, 49404, Note_on_c, 11, 57, 0
12, 49410, Note_on_c, 11, 55, 110
12, 49434, Note_on_c, 11, 55, 0
12, 49440, Note_on_c, 11, 57, 105
12, 49464, Note_on_c, 11, 57, 0
12, 49470, Note_on_c, 11, 55, 117
12, 49494, Note_on_c, 11, 55, 0
12, 49500, Note_on_c, 11, 53, 104
12, 49524, Note_on_c, 11, 53, 0
12, 49530, Note_on_c, 11, 55, 109
12, 49554, Note_on_c, 11, 55, 0
12, 49560, Note_on_c, 11, 53, 101
12, 49584, Note_on_c, 11, 53, 0
12, 49590, Note_on_c, 11, 52, 103
12, 49614, Note_on_c, 11, 52, 0
12, 49620, Note_on_c, 11, 53, 113
12, 49644, Note_on_c, 11, 53, 0
12, 49650, Note_on_c, 11, 57, 103
12, 49674, Note_on_c, 11, 57, 0
12, 49680, Note_on_c, 11, 57, 120
12, 49704, Note_on_c, 11, 57, 0
12, 49710, Note_on_c, 11, 55, 109
12, 49734, Note_on_c, 11, 55, 0
12, 49740, Note_on_c, 11, 53, 101
12, 49764, Note_on_c, 11, 53, 0
12, 49770, Note_on_c, 11, 55, 114
12, 49794, Note_on_c, 11, 55, 0
12, 49800, Note_on_c, 11, 50, 100
12, 49824, Note_on_c, 11, 50, 0
12, 49830, Note_on_c, 11, 55, 107
12, 49854, Note_on_c, 11, 55, 0
12, 49860, Note_on_c, 11, 53, 106
12, 49884, Note_on_c, 11, 53, 0
12, 49890, Note_on_c, 11, 52, 98
12, 49914, Note_on_c, 11, 52, 0
12, 49920, Note_on_c, 11, 50, 99
12, 49944, Note_on_c, 11, 50, 0
12, 49950, Note_on_c, 11, 52, 98
12, 49974, Note_on_c, 11, 52, 0
12, 49980, Note_on_c, 11, 48, 85
12, 50004, Note_on_c, 11, 48, 0
12, 50010, Note_on_c, 11, 52, 110
12, 50034, Note_on_c, 11, 52, 0
12, 50040, Note_on_c, 11, 48, 103
12, 50096, Note_on_c, 11, 48, 0
12, 50100, Note_on_c, 11, 53, 107
12, 50196, Note_on_c, 11, 53, 0
12, 50220, Note_on_c, 11, 48, 98
12, 50268, Note_on_c, 11, 48, 0
12, 50280, Note_on_c, 11, 55, 112
12, 50376, Note_on_c, 11, 55, 0
12, 50400, Note_on_c, 11, 48, 104
12, 50448, Note_on_c, 11, 48, 0
12, 50460, Note_on_c, 11, 57, 105
12, 50556, Note_on_c, 11, 57, 0
12, 50580, Note_on_c, 11, 60, 121
12, 50628, Note_on_c, 11, 60, 0
12, 50640, Note_on_c, 11, 58, 101
12, 50688, Note_on_c, 11, 58, 0
12, 50700, Note_on_c, 11, 55, 118
12, 50724, Note_on_c, 11, 55, 0
12, 50730, Note_on_c, 11, 52, 117
12, 50754, Note_on_c, 11, 52, 0
12, 50760, Note_on_c, 11, 48, 110
12, 50784, Note_on_c, 11, 48, 0
12, 50790, Note_on_c, 11, 53, 127
12, 50814, Note_on_c, 11, 53, 0
12, 50820, Note_on_c, 11, 57, 109
12, 50844, Note_on_c, 11, 57, 0
12, 50850, Note_on_c, 11, 60, 109
12, 50874, Note_on_c, 11, 60, 0
12, 50880, Note_on_c, 11, 57, 113
12, 50904, Note_on_c, 11, 57, 0
12, 50910, Note_on_c, 11, 53, 114
12, 50934, Note_on_c, 11, 53, 0
12, 50940, Note_on_c, 11, 48, 100
12, 50964, Note_on_c, 11, 48, 0
12, 50970, Note_on_c, 11, 55, 114
12, 50994, Note_on_c, 11, 55, 0
12, 51000, Note_on_c, 11, 58, 92
12, 51024, Note_on_c, 11, 58, 0
12, 51030, Note_on_c, 11, 60, 120
12, 51054, Note_on_c, 11, 60, 0
12, 51060, Note_on_c, 11, 58, 109
12, 51084, Note_on_c, 11, 58, 0
12, 51090, Note_on_c, 11, 55, 127
12, 51114, Note_on_c, 11, 55, 0
12, 51120, Note_on_c, 11, 48, 108
12, 51144, Note_on_c, 11, 48, 0
12, 51150, Note_on_c, 11, 53, 127
12, 51174, Note_on_c, 11, 53, 0
12, 51180, Note_on_c, 11, 57, 114
12, 51204, Note_on_c, 11, 57, 0
12, 51210, Note_on_c, 11, 60, 112
12, 51234, Note_on_c, 11, 60, 0
12, 51240, Note_on_c, 11, 57, 127
12, 51264, Note_on_c, 11, 57, 0
12, 51270, Note_on_c, 11, 53, 116
12, 51294, Note_on_c, 11, 53, 0
12, 51300, Note_on_c, 11, 48, 100
12, 51324, Note_on_c, 11, 48, 0
12, 51330, Note_on_c, 11, 55, 121
12, 51354, Note_on_c, 11, 55, 0
12, 51360, Note_on_c, 11, 58, 103
12, 51384, Note_on_c, 11, 58, 0
12, 51390, Note_on_c, 11, 60, 127
12, 51414, Note_on_c, 11, 60, 0
12, 51420, Note_on_c, 11, 48, 103
12, 51468, Note_on_c, 11, 48, 0
12, 51480, Note_on_c, 11, 48, 118
12, 51528, Note_on_c, 11, 48, 0
12, 51540, Note_on_c, 11, 53, 114
12, 51588, Note_on_c, 11, 53, 0
12, 51600, Note_on_c, 11, 53, 118
12, 51612, Note_on_c, 11, 53, 0
12, 51615, Note_on_c, 11, 55, 113
12, 51627, Note_on_c, 11, 55, 0
12, 51630, Note_on_c, 11, 53, 112
12, 51642, Note_on_c, 11, 53, 0
12, 51645, Note_on_c, 11, 55, 102
12, 51657, Note_on_c, 11, 55, 0
12, 51660, Note_on_c, 11, 48, 102
12, 51708, Note_on_c, 11, 48, 0
12, 51720, Note_on_c, 11, 55, 116
12, 51768, Note_on_c, 11, 55, 0
12, 51780, Note_on_c, 11, 55, 125
12, 51792, Note_on_c, 11, 55, 0
12, 51795, Note_on_c, 11, 57, 108
12, 51807, Note_on_c, 11, 57, 0
12, 51810, Note_on_c, 11, 55, 116
12, 51822, Note_on_c, 11, 55, 0
12, 51825, Note_on_c, 11, 57, 111
12, 51837, Note_on_c, 11, 57, 0
12, 51840, Note_on_c, 11, 48, 107
12, 51888, Note_on_c, 11, 48, 0
12, 51900, Note_on_c, 11, 57, 120
12, 51948, Note_on_c, 11, 57, 0
12, 51960, Note_on_c, 11, 57, 117
12, 51972, Note_on_c, 11, 57, 0
12, 51975, Note_on_c, 11, 58, 97
12, 51987, Note_on_c, 11, 58, 0
12, 51990, Note_on_c, 11, 57, 118
12, 52002, Note_on_c, 11, 57, 0
12, 52005, Note_on_c, 11, 58, 91
12, 52017, Note_on_c, 11, 58, 0
12, 52020, Note_on_c, 11, 60, 109
12, 52068, Note_on_c, 11, 60, 0
12, 52080, Note_on_c, 11, 59, 98
12, 52128, Note_on_c, 11, 59, 0
12, 52140, Note_on_c, 11, 53, 108
12, 52164, Note_on_c, 11, 53, 0
12, 52170, Note_on_c, 11, 50, 127
12, 52194, Note_on_c, 11, 50, 0
12, 52380, Note_on_c, 11, 64, 108
12, 52428, Note_on_c, 11, 64, 0
12, 52440, Note_on_c, 11, 62, 125
12, 52488, Note_on_c, 11, 62, 0
12, 52500, Note_on_c, 11, 59, 105
12, 52524, Note_on_c, 11, 59, 0
12, 52530, Note_on_c, 11, 55, 121
12, 52554, Note_on_c, 11, 55, 0
12, 52740, Note_on_c, 11, 67, 103
12, 52788, Note_on_c, 11, 67, 0
12, 52800, Note_on_c, 11, 65, 102
12, 52848, Note_on_c, 11, 65, 0
12, 52860, Note_on_c, 11, 62, 108
12, 52884, Note_on_c, 11, 62, 0
12, 52890, Note_on_c, 11, 59, 111
12, 52914, Note_on_c, 11, 59, 0
12, 52920, Note_on_c, 11, 52, 110
12, 53016, Note_on_c, 11, 52, 0
12, 53220, Note_on_c, 11, 53, 110
12, 53268, Note_on_c, 11, 53, 0
12, 53280, Note_on_c, 11, 55, 123
12, 53376, Note_on_c, 11, 55, 0
12, 53400, Note_on_c, 11, 48, 105
12, 53448, Note_on_c, 11, 48, 0
12, 53460, Note_on_c, 11, 48, 102
12, 53556, Note_on_c, 11, 48, 0
12, 53580, Note_on_c, 11, 48, 111
12, 53628, Note_on_c, 11, 48, 0
12, 53640, Note_on_c, 11, 48, 100
12, 53928, Note_on_c, 11, 48, 0
12, 54000, Note_on_c, 11, 62, 116
12, 54048, Note_on_c, 11, 62, 0
12, 54060, Note_on_c, 11, 60, 108
12, 54108, Note_on_c, 11, 60, 0
12, 54120, Note_on_c, 11, 57, 112
12, 54144, Note_on_c, 11, 57, 0
12, 54150, Note_on_c, 11, 53, 125
12, 54174, Note_on_c, 11, 53, 0
12, 54180, Note_on_c, 11, 50, 120
12, 54228, Note_on_c, 11, 50, 0
12, 54240, Note_on_c, 11, 48, 99
12, 54288, Note_on_c, 11, 48, 0
12, 54300, Note_on_c, 11, 45, 109
12, 54324, Note_on_c, 11, 45, 0
12, 54330, Note_on_c, 11, 41, 98
12, 54354, Note_on_c, 11, 41, 0
12, 54360, Note_on_c, 11, 36, 82
12, 54648, Note_on_c, 11, 36, 0
12, 54720, Note_on_c, 11, 60, 127
12, 54768, Note_on_c, 11, 60, 0
12, 54780, Note_on_c, 11, 58, 95
12, 54828, Note_on_c, 11, 58, 0
12, 54840, Note_on_c, 11, 55, 123
12, 54864, Note_on_c, 11, 55, 0
12, 54870, Note_on_c, 11, 52, 105
12, 54894, Note_on_c, 11, 52, 0
12, 54900, Note_on_c, 11, 48, 125
12, 54948, Note_on_c, 11, 48, 0
12, 54960, Note_on_c, 11, 45, 106
12, 55008, Note_on_c, 11, 45, 0
12, 55020, Note_on_c, 11, 43, 120
12, 55044, Note_on_c, 11, 43, 0
12, 55050, Note_on_c, 11, 40, 127
12, 55074, Note_on_c, 11, 40, 0
12, 55080, Note_on_c, 11, 36, 127
12, 55368, Note_on_c, 11, 36, 0
12, 55440, Note_on_c, 11, 62, 127
12, 55464, Note_on_c, 11, 62, 0
12, 55470, Note_on_c, 11, 60, 125
12, 55494, Note_on_c, 11, 60, 0
12, 55500, Note_on_c, 11, 59, 116
12, 55524, Note_on_c, 11, 59, 0
12, 55530, Note_on_c, 11, 60, 118
12, 55554, Note_on_c, 11, 60, 0
12, 55560, Note_on_c, 11, 57, 109
12, 55584, Note_on_c, 11, 57, 0
12, 55590, Note_on_c, 11, 53, 106
12, 55614, Note_on_c, 11, 53, 0
12, 55620, Note_on_c, 11, 50, 127
12, 55644, Note_on_c, 11, 50, 0
12, 55650, Note_on_c, 11, 48, 121
12, 55674, Note_on_c, 11, 48, 0
12, 55680, Note_on_c, 11, 47, 107
12, 55704, Note_on_c, 11, 47, 0
12, 55710, Note_on_c, 11, 48, 120
12, 55734, Note_on_c, 11, 48, 0
12, 55740, Note_on_c, 11, 45, 112
12, 55764, Note_on_c, 11, 45, 0
12, 55770, Note_on_c, 11, 41, 109
12, 55794, Note_on_c, 11, 41, 0
12, 55800, Note_on_c, 11, 36, 120
12, 56088, Note_on_c, 11, 36, 0
12, 56160, Note_on_c, 11, 60, 127
12, 56184, Note_on_c, 11, 60, 0
12, 56190, Note_on_c, 11, 58, 86
12, 56214, Note_on_c, 11, 58, 0
12, 56220, Note_on_c, 11, 57, 127
12, 56244, Note_on_c, 11, 57, 0
12, 56250, Note_on_c, 11, 58, 97
12, 56274, Note_on_c, 11, 58, 0
12, 56280, Note_on_c, 11, 55, 112
12, 56304, Note_on_c, 11, 55, 0
12, 56310, Note_on_c, 11, 52, 110
12, 56334, Note_on_c, 11, 52, 0
12, 56340, Note_on_c, 11, 48, 127
12, 56364, Note_on_c, 11, 48, 0
12, 56370, Note_on_c, 11, 46, 90
12, 56394, Note_on_c, 11, 46, 0
12, 56400, Note_on_c, 11, 43, 127
12, 56424, Note_on_c, 11, 43, 0
12, 56430, Note_on_c, 11, 40, 121
12, 56454, Note_on_c, 11, 40, 0
12, 56460, Note_on_c, 11, 36, 127
12, 56484, Note_on_c, 11, 36, 0
12, 56490, Note_on_c, 11, 48, 111
12, 56514, Note_on_c, 11, 48, 0
12, 56520, Note_on_c, 11, 41, 127
12, 56544, Note_on_c, 11, 41, 0
12, 56550, Note_on_c, 11, 65, 111
12, 56574, Note_on_c, 11, 65, 0
12, 56580, Note_on_c, 11, 64, 123
12, 56604, Note_on_c, 11, 64, 0
12, 56610, Note_on_c, 11, 65, 118
12, 56634, Note_on_c, 11, 65, 0
12, 56640, Note_on_c, 11, 67, 108
12, 56664, Note_on_c, 11, 67, 0
12, 56670, Note_on_c, 11, 65, 118
12, 56694, Note_on_c, 11, 65, 0
12, 56700, Note_on_c, 11, 62, 112
12, 56724, Note_on_c, 11, 62, 0
12, 56730, Note_on_c, 11, 65, 118
12, 56754, Note_on_c, 11, 65, 0
12, 56760, Note_on_c, 11, 60, 102
12, 56784, Note_on_c, 11, 60, 0
12, 56790, Note_on_c, 11, 65, 99
12, 56814, Note_on_c, 11, 65, 0
12, 56820, Note_on_c, 11, 58, 84
12, 56844, Note_on_c, 11, 58, 0
12, 56850, Note_on_c, 11, 65, 107
12, 56874, Note_on_c, 11, 65, 0
12, 56880, Note_on_c, 11, 57, 106
12, 56904, Note_on_c, 11, 57, 0
12, 56910, Note_on_c, 11, 60, 125
12, 56934, Note_on_c, 11, 60, 0
12, 56940, Note_on_c, 11, 55, 106
12, 56964, Note_on_c, 11, 55, 0
12, 56970, Note_on_c, 11, 60, 127
12, 56994, Note_on_c, 11, 60, 0
12, 57000, Note_on_c, 11, 53, 105
12, 57024, Note_on_c, 11, 53, 0
12, 57030, Note_on_c, 11, 60, 103
12, 57054, Note_on_c, 11, 60, 0
12, 57060, Note_on_c, 11, 48, 105
12, 57084, Note_on_c, 11, 48, 0
12, 57090, Note_on_c, 11, 52, 127
12, 57114, Note_on_c, 11, 52, 0
12, 57120, Note_on_c, 11, 55, 127
12, 57144, Note_on_c, 11, 55, 0
12, 57150, Note_on_c, 11, 60, 127
12, 57174, Note_on_c, 11, 60, 0
12, 57180, Note_on_c, 11, 48, 106
12, 57204, Note_on_c, 11, 48, 0
12, 57210, Note_on_c, 11, 60, 105
12, 57234, Note_on_c, 11, 60, 0
12, 57240, Note_on_c, 11, 41, 112
12, 57264, Note_on_c, 11, 41, 0
12, 57270, Note_on_c, 11, 53, 125
12, 57294, Note_on_c, 11, 53, 0
12, 57300, Note_on_c, 11, 52, 98
12, 57324, Note_on_c, 11, 52, 0
12, 57330, Note_on_c, 11, 53, 112
12, 57354, Note_on_c, 11, 53, 0
12, 57360, Note_on_c, 11, 55, 107
12, 57384, Note_on_c, 11, 55, 0
12, 57390, Note_on_c, 11, 53, 109
12, 57414, Note_on_c, 11, 53, 0
12, 57420, Note_on_c, 11, 50, 111
12, 57444, Note_on_c, 11, 50, 0
12, 57450, Note_on_c, 11, 53, 111
12, 57474, Note_on_c, 11, 53, 0
12, 57480, Note_on_c, 11, 48, 101
12, 57504, Note_on_c, 11, 48, 0
12, 57510, Note_on_c, 11, 53, 123
12, 57534, Note_on_c, 11, 53, 0
12, 57540, Note_on_c, 11, 46, 115
12, 57564, Note_on_c, 11, 46, 0
12, 57570, Note_on_c, 11, 53, 116
12, 57594, Note_on_c, 11, 53, 0
12, 57600, Note_on_c, 11, 45, 117
12, 57624, Note_on_c, 11, 45, 0
12, 57630, Note_on_c, 11, 48, 114
12, 57654, Note_on_c, 11, 48, 0
12, 57660, Note_on_c, 11, 43, 120
12, 57684, Note_on_c, 11, 43, 0
12, 57690, Note_on_c, 11, 48, 117
12, 57714, Note_on_c, 11, 48, 0
12, 57720, Note_on_c, 11, 41, 105
12, 57744, Note_on_c, 11, 41, 0
12, 57750, Note_on_c, 11, 48, 123
12, 57774, Note_on_c, 11, 48, 0
12, 57780, Note_on_c, 11, 36, 100
12, 57804, Note_on_c, 11, 36, 0
12, 57810, Note_on_c, 11, 40, 127
12, 57834, Note_on_c, 11, 40, 0
12, 57840, Note_on_c, 11, 43, 121
12, 57864, Note_on_c, 11, 43, 0
12, 57870, Note_on_c, 11, 48, 108
12, 57894, Note_on_c, 11, 48, 0
12, 57900, Note_on_c, 11, 36, 127
12, 57924, Note_on_c, 11, 36, 0
12, 57930, Note_on_c, 11, 48, 125
12, 57954, Note_on_c, 11, 48, 0
12, 57960, Note_on_c, 11, 41, 108
12, 58104, Note_on_c, 11, 41, 0
12, 58140, Note_on_c, 11, 41, 106
12, 58188, Note_on_c, 11, 41, 0
12, 58260, Note_on_c, 11, 41, 111
12, 58308, Note_on_c, 11, 41, 0
12, 58320, Note_on_c, 11, 46, 78
12, 58464, Note_on_c, 11, 46, 0
12, 58500, Note_on_c, 11, 46, 82
12, 58548, Note_on_c, 11, 46, 0
12, 58620, Note_on_c, 11, 46, 113
12, 58668, Note_on_c, 11, 46, 0
12, 58678, Control_c, 11, 7, 113
12, 58680, Note_on_c, 11, 48, 106
12, 58700, Control_c, 11, 7, 112
12, 58720, Control_c, 11, 7, 111
12, 58740, Control_c, 11, 7, 110
12, 58760, Control_c, 11, 7, 109
12, 58780, Control_c, 11, 7, 108
12, 58800, Control_c, 11, 7, 107
12, 58820, Control_c, 11, 7, 106
12, 58840, Control_c, 11, 7, 105
12, 58860, Control_c, 11, 7, 104
12, 58882, Control_c, 11, 7, 103
12, 58902, Control_c, 11, 7, 102
12, 58922, Control_c, 11, 7, 101
12, 58942, Control_c, 11, 7, 100
12, 58962, Control_c, 11, 7, 99
12, 58982, Control_c, 11, 7, 98
12, 59002, Control_c, 11, 7, 97
12, 59022, Control_c, 11, 7, 96
12, 59042, Control_c, 11, 7, 95
12, 59544, Note_on_c, 11, 48, 0
12, 59580, Note_on_c, 11, 50, 114
12, 59904, Note_on_c, 11, 50, 0
12, 59940, Note_on_c, 11, 43, 113
12, 60576, Note_on_c, 11, 43, 0
12, 61212, Control_c, 11, 7, 95
12, 61270, Control_c, 11, 7, 96
12, 61326, Control_c, 11, 7, 97
12, 61384, Control_c, 11, 7, 98
12, 61440, Control_c, 11, 7, 99
12, 61498, Control_c, 11, 7, 100
12, 61554, Control_c, 11, 7, 101
12, 61612, Control_c, 11, 7, 102
12, 61668, Control_c, 11, 7, 103
12, 61726, Control_c, 11, 7, 104
12, 61782, Control_c, 11, 7, 105
12, 61838, Control_c, 11, 7, 106
12, 61896, Control_c, 11, 7, 107
12, 61952, Control_c, 11, 7, 108
12, 62010, Control_c, 11, 7, 109
12, 62066, Control_c, 11, 7, 110
12, 62124, Control_c, 11, 7, 111
12, 62180, Control_c, 11, 7, 112
12, 62238, Control_c, 11, 7, 113
12, 62294, Control_c, 11, 7, 114
12, 62350, Control_c, 11, 7, 115
12, 62580, Note_on_c, 11, 43, 127
12, 62628, Note_on_c, 11, 43, 0
12, 62640, Note_on_c, 11, 40, 127
12, 62688, Note_on_c, 11, 40, 0
12, 62700, Note_on_c, 11, 36, 111
12, 62748, Note_on_c, 11, 36, 0
12, 62760, Note_on_c, 11, 43, 113
12, 62808, Note_on_c, 11, 43, 0
12, 62820, Note_on_c, 11, 40, 111
12, 62868, Note_on_c, 11, 40, 0
12, 62880, Note_on_c, 11, 52, 98
12, 62928, Note_on_c, 11, 52, 0
12, 62940, Note_on_c, 11, 43, 109
12, 62988, Note_on_c, 11, 43, 0
12, 63000, Note_on_c, 11, 55, 116
12, 63048, Note_on_c, 11, 55, 0
12, 63060, Note_on_c, 11, 48, 121
12, 63108, Note_on_c, 11, 48, 0
12, 63120, Note_on_c, 11, 60, 108
12, 63168, Note_on_c, 11, 60, 0
12, 63180, Note_on_c, 11, 36, 118
12, 63228, Note_on_c, 11, 36, 0
12, 63240, Note_on_c, 11, 48, 108
12, 63288, Note_on_c, 11, 48, 0
12, 63300, Note_on_c, 11, 36, 100
12, 63348, Note_on_c, 11, 36, 0
12, 63360, Note_on_c, 11, 57, 113
12, 63504, Note_on_c, 11, 57, 0
12, 63540, Note_on_c, 11, 53, 120
12, 63588, Note_on_c, 11, 53, 0
12, 63660, Note_on_c, 11, 60, 108
12, 63708, Note_on_c, 11, 60, 0
12, 63720, Note_on_c, 11, 57, 102
12, 63996, Note_on_c, 11, 57, 0
12, 63998, Control_c, 11, 7, 75
12, 64020, Note_on_c, 11, 48, 110
12, 64068, Note_on_c, 11, 48, 0
12, 64080, Note_on_c, 11, 53, 101
12, 64192, Note_on_c, 11, 53, 0
12, 64200, Note_on_c, 11, 57, 123
12, 64248, Note_on_c, 11, 57, 0
12, 64260, Note_on_c, 11, 60, 121
12, 64356, Note_on_c, 11, 60, 0
12, 64380, Note_on_c, 11, 57, 116
12, 64428, Note_on_c, 11, 57, 0
12, 64440, Note_on_c, 11, 58, 107
12, 64716, Note_on_c, 11, 58, 0
12, 64740, Note_on_c, 11, 48, 97
12, 64788, Note_on_c, 11, 48, 0
12, 64800, Note_on_c, 11, 52, 105
12, 64896, Note_on_c, 11, 52, 0
12, 64920, Note_on_c, 11, 55, 127
12, 64968, Note_on_c, 11, 55, 0
12, 64980, Note_on_c, 11, 58, 111
12, 65076, Note_on_c, 11, 58, 0
12, 65100, Note_on_c, 11, 55, 121
12, 65148, Note_on_c, 11, 55, 0
12, 65160, Note_on_c, 11, 57, 111
12, 65208, Note_on_c, 11, 57, 0
12, 65220, Note_on_c, 11, 60, 127
12, 65268, Note_on_c, 11, 60, 0
12, 65280, Note_on_c, 11, 60, 103
12, 65328, Note_on_c, 11, 60, 0
12, 65340, Note_on_c, 11, 60, 109
12, 65388, Note_on_c, 11, 60, 0
12, 65400, Note_on_c, 11, 57, 107
12, 65448, Note_on_c, 11, 57, 0
12, 65460, Note_on_c, 11, 57, 107
12, 65508, Note_on_c, 11, 57, 0
12, 65520, Note_on_c, 11, 57, 123
12, 65568, Note_on_c, 11, 57, 0
12, 65580, Note_on_c, 11, 54, 96
12, 65628, Note_on_c, 11, 54, 0
12, 65640, Note_on_c, 11, 54, 103
12, 65688, Note_on_c, 11, 54, 0
12, 65700, Note_on_c, 11, 54, 91
12, 65748, Note_on_c, 11, 54, 0
12, 65760, Note_on_c, 11, 50, 111
12, 65808, Note_on_c, 11, 50, 0
12, 65818, Control_c, 11, 7, 80
12, 65820, Note_on_c, 11, 50, 110
12, 65850, Control_c, 11, 7, 81
12, 65868, Note_on_c, 11, 50, 0
12, 65880, Note_on_c, 11, 50, 108
12, 65880, Control_c, 11, 7, 82
12, 65910, Control_c, 11, 7, 83
12, 65928, Note_on_c, 11, 50, 0
12, 65940, Note_on_c, 11, 58, 75
12, 65940, Control_c, 11, 7, 84
12, 65970, Control_c, 11, 7, 85
12, 65988, Note_on_c, 11, 58, 0
12, 66000, Note_on_c, 11, 58, 99
12, 66000, Control_c, 11, 7, 86
12, 66030, Control_c, 11, 7, 87
12, 66048, Note_on_c, 11, 58, 0
12, 66060, Note_on_c, 11, 58, 97
12, 66060, Control_c, 11, 7, 88
12, 66090, Control_c, 11, 7, 89
12, 66108, Note_on_c, 11, 58, 0
12, 66120, Note_on_c, 11, 55, 98
12, 66120, Control_c, 11, 7, 90
12, 66150, Control_c, 11, 7, 91
12, 66168, Note_on_c, 11, 55, 0
12, 66180, Note_on_c, 11, 55, 102
12, 66180, Control_c, 11, 7, 92
12, 66210, Control_c, 11, 7, 93
12, 66228, Note_on_c, 11, 55, 0
12, 66240, Note_on_c, 11, 55, 125
12, 66240, Control_c, 11, 7, 94
12, 66270, Control_c, 11, 7, 95
12, 66288, Note_on_c, 11, 55, 0
12, 66300, Note_on_c, 11, 52, 123
12, 66300, Control_c, 11, 7, 96
12, 66330, Control_c, 11, 7, 97
12, 66348, Note_on_c, 11, 52, 0
12, 66360, Note_on_c, 11, 52, 114
12, 66360, Control_c, 11, 7, 98
12, 66390, Control_c, 11, 7, 99
12, 66408, Note_on_c, 11, 52, 0
12, 66420, Note_on_c, 11, 52, 120
12, 66420, Control_c, 11, 7, 100
12, 66450, Control_c, 11, 7, 101
12, 66468, Note_on_c, 11, 52, 0
12, 66480, Note_on_c, 11, 48, 103
12, 66480, Control_c, 11, 7, 102
12, 66510, Control_c, 11, 7, 103
12, 66528, Note_on_c, 11, 48, 0
12, 66540, Note_on_c, 11, 48, 109
12, 66540, Control_c, 11, 7, 104
12, 66570, Control_c, 11, 7, 105
12, 66588, Note_on_c, 11, 48, 0
12, 66600, Note_on_c, 11, 53, 120
12, 66600, Control_c, 11, 7, 106
12, 66630, Control_c, 11, 7, 107
12, 66660, Control_c, 11, 7, 108
12, 66690, Control_c, 11, 7, 109
12, 66696, Note_on_c, 11, 53, 0
12, 66720, Note_on_c, 11, 48, 109
12, 66720, Control_c, 11, 7, 110
12, 66750, Control_c, 11, 7, 111
12, 66768, Note_on_c, 11, 48, 0
12, 66780, Note_on_c, 11, 53, 123
12, 66828, Note_on_c, 11, 53, 0
12, 66840, Note_on_c, 11, 57, 120
12, 66936, Note_on_c, 11, 57, 0
12, 66960, Note_on_c, 11, 60, 112
12, 67248, Note_on_c, 11, 60, 0
12, 67320, Note_on_c, 11, 58, 101
12, 67416, Note_on_c, 11, 58, 0
12, 67440, Note_on_c, 11, 46, 96
12, 67488, Note_on_c, 11, 46, 0
12, 67500, Note_on_c, 11, 52, 107
12, 67596, Note_on_c, 11, 52, 0
12, 67620, Note_on_c, 11, 55, 114
12, 67668, Note_on_c, 11, 55, 0
12, 67680, Note_on_c, 11, 58, 97
12, 67956, Note_on_c, 11, 58, 0
12, 67980, Note_on_c, 11, 48, 108
12, 68028, Note_on_c, 11, 48, 0
12, 68040, Note_on_c, 11, 41, 103
12, 68316, Note_on_c, 11, 41, 0
12, 68340, Note_on_c, 11, 53, 99
12, 68388, Note_on_c, 11, 53, 0
12, 68400, Note_on_c, 11, 57, 127
12, 68496, Note_on_c, 11, 57, 0
12, 68520, Note_on_c, 11, 60, 123
12, 68568, Note_on_c, 11, 60, 0
12, 68580, Note_on_c, 11, 65, 127
12, 68676, Note_on_c, 11, 65, 0
12, 68700, Note_on_c, 11, 41, 127
12, 68748, Note_on_c, 11, 41, 0
12, 68760, Note_on_c, 11, 38, 114
12, 69036, Note_on_c, 11, 38, 0
12, 69060, Note_on_c, 11, 50, 127
12, 69108, Note_on_c, 11, 50, 0
12, 69120, Note_on_c, 11, 53, 127
12, 69216, Note_on_c, 11, 53, 0
12, 69240, Note_on_c, 11, 57, 125
12, 69288, Note_on_c, 11, 57, 0
12, 69300, Note_on_c, 11, 62, 127
12, 69396, Note_on_c, 11, 62, 0
12, 69420, Note_on_c, 11, 50, 125
12, 69468, Note_on_c, 11, 50, 0
12, 69480, Note_on_c, 11, 43, 114
12, 69756, Note_on_c, 11, 43, 0
12, 69780, Note_on_c, 11, 55, 127
12, 69828, Note_on_c, 11, 55, 0
12, 69840, Note_on_c, 11, 59, 111
12, 69936, Note_on_c, 11, 59, 0
12, 69960, Note_on_c, 11, 62, 127
12, 70008, Note_on_c, 11, 62, 0
12, 70020, Note_on_c, 11, 67, 127
12, 70116, Note_on_c, 11, 67, 0
12, 70140, Note_on_c, 11, 55, 116
12, 70188, Note_on_c, 11, 55, 0
12, 70200, Note_on_c, 11, 43, 114
12, 70488, Note_on_c, 11, 43, 0
12, 70560, Note_on_c, 11, 43, 116
12, 71568, Note_on_c, 11, 43, 0
12, 71640, Note_on_c, 11, 36, 127
12, 72276, Note_on_c, 11, 36, 0
12, 72300, Note_on_c, 11, 64, 127
12, 72348, Note_on_c, 11, 64, 0
12, 72360, Note_on_c, 11, 60, 127
12, 72408, Note_on_c, 11, 60, 0
12, 72420, Note_on_c, 11, 58, 95
12, 72468, Note_on_c, 11, 58, 0
12, 72480, Note_on_c, 11, 60, 112
12, 72528, Note_on_c, 11, 60, 0
12, 72540, Note_on_c, 11, 58, 96
12, 72588, Note_on_c, 11, 58, 0
12, 72600, Note_on_c, 11, 55, 109
12, 72648, Note_on_c, 11, 55, 0
12, 72660, Note_on_c, 11, 58, 101
12, 72708, Note_on_c, 11, 58, 0
12, 72720, Note_on_c, 11, 55, 118
12, 72768, Note_on_c, 11, 55, 0
12, 72780, Note_on_c, 11, 52, 107
12, 72828, Note_on_c, 11, 52, 0
12, 72840, Note_on_c, 11, 55, 116
12, 72888, Note_on_c, 11, 55, 0
12, 72900, Note_on_c, 11, 52, 116
12, 72948, Note_on_c, 11, 52, 0
12, 72960, Note_on_c, 11, 48, 116
12, 73008, Note_on_c, 11, 48, 0
12, 73020, Note_on_c, 11, 52, 121
12, 73068, Note_on_c, 11, 52, 0
12, 73080, Note_on_c, 11, 48, 127
12, 73128, Note_on_c, 11, 48, 0
12, 73140, Note_on_c, 11, 46, 97
12, 73188, Note_on_c, 11, 46, 0
12, 73200, Note_on_c, 11, 48, 118
12, 73248, Note_on_c, 11, 48, 0
12, 73260, Note_on_c, 11, 46, 113
12, 73308, Note_on_c, 11, 46, 0
12, 73320, Note_on_c, 11, 43, 102
12, 73368, Note_on_c, 11, 43, 0
12, 73380, Note_on_c, 11, 58, 118
12, 73428, Note_on_c, 11, 58, 0
12, 73440, Note_on_c, 11, 55, 120
12, 73488, Note_on_c, 11, 55, 0
12, 73500, Note_on_c, 11, 52, 113
12, 73548, Note_on_c, 11, 52, 0
12, 73560, Note_on_c, 11, 48, 127
12, 73608, Note_on_c, 11, 48, 0
12, 73620, Note_on_c, 11, 43, 127
12, 73668, Note_on_c, 11, 43, 0
12, 73680, Note_on_c, 11, 36, 123
12, 73728, Note_on_c, 11, 36, 0
12, 73740, Note_on_c, 11, 48, 120
12, 73788, Note_on_c, 11, 48, 0
12, 73800, Note_on_c, 11, 57, 127
12, 73824, Note_on_c, 11, 57, 0
12, 73830, Note_on_c, 11, 58, 111
12, 73854, Note_on_c, 11, 58, 0
12, 73860, Note_on_c, 11, 57, 109
12, 73884, Note_on_c, 11, 57, 0
12, 73890, Note_on_c, 11, 55, 113
12, 73914, Note_on_c, 11, 55, 0
12, 73920, Note_on_c, 11, 53, 109
12, 73944, Note_on_c, 11, 53, 0
12, 73950, Note_on_c, 11, 52, 114
12, 73974, Note_on_c, 11, 52, 0
12, 73980, Note_on_c, 11, 53, 116
12, 74004, Note_on_c, 11, 53, 0
12, 74010, Note_on_c, 11, 55, 118
12, 74034, Note_on_c, 11, 55, 0
12, 74040, Note_on_c, 11, 57, 99
12, 74064, Note_on_c, 11, 57, 0
12, 74070, Note_on_c, 11, 58, 92
12, 74094, Note_on_c, 11, 58, 0
12, 74100, Note_on_c, 11, 60, 114
12, 74124, Note_on_c, 11, 60, 0
12, 74130, Note_on_c, 11, 58, 94
12, 74154, Note_on_c, 11, 58, 0
12, 74160, Note_on_c, 11, 57, 109
12, 74184, Note_on_c, 11, 57, 0
12, 74190, Note_on_c, 11, 58, 101
12, 74214, Note_on_c, 11, 58, 0
12, 74220, Note_on_c, 11, 57, 127
12, 74244, Note_on_c, 11, 57, 0
12, 74250, Note_on_c, 11, 55, 123
12, 74274, Note_on_c, 11, 55, 0
12, 74280, Note_on_c, 11, 53, 112
12, 74304, Note_on_c, 11, 53, 0
12, 74310, Note_on_c, 11, 52, 116
12, 74334, Note_on_c, 11, 52, 0
12, 74340, Note_on_c, 11, 53, 106
12, 74364, Note_on_c, 11, 53, 0
12, 74370, Note_on_c, 11, 52, 106
12, 74394, Note_on_c, 11, 52, 0
12, 74400, Note_on_c, 11, 53, 109
12, 74424, Note_on_c, 11, 53, 0
12, 74430, Note_on_c, 11, 48, 104
12, 74454, Note_on_c, 11, 48, 0
12, 74458, Control_c, 11, 7, 88
12, 74460, Note_on_c, 11, 50, 127
12, 74484, Note_on_c, 11, 50, 0
12, 74490, Note_on_c, 11, 52, 117
12, 74514, Note_on_c, 11, 52, 0
12, 74520, Note_on_c, 11, 53, 110
12, 74544, Note_on_c, 11, 53, 0
12, 74550, Note_on_c, 11, 55, 121
12, 74574, Note_on_c, 11, 55, 0
12, 74580, Note_on_c, 11, 53, 111
12, 74604, Note_on_c, 11, 53, 0
12, 74610, Note_on_c, 11, 52, 108
12, 74634, Note_on_c, 11, 52, 0
12, 74640, Note_on_c, 11, 53, 109
12, 74664, Note_on_c, 11, 53, 0
12, 74670, Note_on_c, 11, 55, 113
12, 74694, Note_on_c, 11, 55, 0
12, 74700, Note_on_c, 11, 57, 109
12, 74724, Note_on_c, 11, 57, 0
12, 74730, Note_on_c, 11, 58, 113
12, 74754, Note_on_c, 11, 58, 0
12, 74760, Note_on_c, 11, 60, 125
12, 74784, Note_on_c, 11, 60, 0
12, 74790, Note_on_c, 11, 59, 114
12, 74814, Note_on_c, 11, 59, 0
12, 74820, Note_on_c, 11, 60, 108
12, 74844, Note_on_c, 11, 60, 0
12, 74850, Note_on_c, 11, 57, 113
12, 74874, Note_on_c, 11, 57, 0
12, 74880, Note_on_c, 11, 58, 101
12, 74904, Note_on_c, 11, 58, 0
12, 74910, Note_on_c, 11, 60, 123
12, 74934, Note_on_c, 11, 60, 0
12, 74940, Note_on_c, 11, 62, 106
12, 74964, Note_on_c, 11, 62, 0
12, 74970, Note_on_c, 11, 60, 106
12, 74994, Note_on_c, 11, 60, 0
12, 75000, Note_on_c, 11, 58, 101
12, 75024, Note_on_c, 11, 58, 0
12, 75030, Note_on_c, 11, 60, 113
12, 75054, Note_on_c, 11, 60, 0
12, 75060, Note_on_c, 11, 58, 96
12, 75084, Note_on_c, 11, 58, 0
12, 75090, Note_on_c, 11, 60, 108
12, 75114, Note_on_c, 11, 60, 0
12, 75120, Note_on_c, 11, 58, 88
12, 75144, Note_on_c, 11, 58, 0
12, 75150, Note_on_c, 11, 57, 100
12, 75174, Note_on_c, 11, 57, 0
12, 75180, Note_on_c, 11, 55, 102
12, 75204, Note_on_c, 11, 55, 0
12, 75210, Note_on_c, 11, 53, 105
12, 75234, Note_on_c, 11, 53, 0
12, 75240, Note_on_c, 11, 52, 105
12, 75264, Note_on_c, 11, 52, 0
12, 75270, Note_on_c, 11, 53, 94
12, 75294, Note_on_c, 11, 53, 0
12, 75300, Note_on_c, 11, 52, 98
12, 75324, Note_on_c, 11, 52, 0
12, 75330, Note_on_c, 11, 50, 107
12, 75354, Note_on_c, 11, 50, 0
12, 75360, Note_on_c, 11, 52, 106
12, 75384, Note_on_c, 11, 52, 0
12, 75390, Note_on_c, 11, 53, 105
12, 75414, Note_on_c, 11, 53, 0
12, 75420, Note_on_c, 11, 55, 114
12, 75444, Note_on_c, 11, 55, 0
12, 75450, Note_on_c, 11, 57, 120
12, 75474, Note_on_c, 11, 57, 0
12, 75480, Note_on_c, 11, 58, 123
12, 75504, Note_on_c, 11, 58, 0
12, 75510, Note_on_c, 11, 57, 107
12, 75534, Note_on_c, 11, 57, 0
12, 75540, Note_on_c, 11, 58, 100
12, 75564, Note_on_c, 11, 58, 0
12, 75570, Note_on_c, 11, 55, 100
12, 75594, Note_on_c, 11, 55, 0
12, 75600, Note_on_c, 11, 57, 123
12, 75624, Note_on_c, 11, 57, 0
12, 75630, Note_on_c, 11, 60, 123
12, 75654, Note_on_c, 11, 60, 0
12, 75660, Note_on_c, 11, 60, 106
12, 75684, Note_on_c, 11, 60, 0
12, 75690, Note_on_c, 11, 60, 111
12, 75714, Note_on_c, 11, 60, 0
12, 75720, Note_on_c, 11, 60, 104
12, 75744, Note_on_c, 11, 60, 0
12, 75750, Note_on_c, 11, 60, 103
12, 75774, Note_on_c, 11, 60, 0
12, 75780, Note_on_c, 11, 60, 112
12, 75804, Note_on_c, 11, 60, 0
12, 75810, Note_on_c, 11, 57, 105
12, 75834, Note_on_c, 11, 57, 0
12, 75840, Note_on_c, 11, 57, 109
12, 75864, Note_on_c, 11, 57, 0
12, 75870, Note_on_c, 11, 57, 114
12, 75894, Note_on_c, 11, 57, 0
12, 75900, Note_on_c, 11, 57, 109
12, 75924, Note_on_c, 11, 57, 0
12, 75930, Note_on_c, 11, 57, 109
12, 75954, Note_on_c, 11, 57, 0
12, 75960, Note_on_c, 11, 57, 118
12, 75962, Control_c, 11, 7, 93
12, 75984, Note_on_c, 11, 57, 0
12, 75990, Note_on_c, 11, 54, 111
12, 76004, Control_c, 11, 7, 94
12, 76014, Note_on_c, 11, 54, 0
12, 76020, Note_on_c, 11, 54, 93
12, 76044, Note_on_c, 11, 54, 0
12, 76046, Control_c, 11, 7, 95
12, 76050, Note_on_c, 11, 54, 96
12, 76074, Note_on_c, 11, 54, 0
12, 76080, Note_on_c, 11, 54, 94
12, 76088, Control_c, 11, 7, 96
12, 76104, Note_on_c, 11, 54, 0
12, 76110, Note_on_c, 11, 54, 93
12, 76130, Control_c, 11, 7, 97
12, 76134, Note_on_c, 11, 54, 0
12, 76140, Note_on_c, 11, 54, 109
12, 76164, Note_on_c, 11, 54, 0
12, 76170, Note_on_c, 11, 50, 114
12, 76172, Control_c, 11, 7, 98
12, 76194, Note_on_c, 11, 50, 0
12, 76200, Note_on_c, 11, 50, 106
12, 76214, Control_c, 11, 7, 99
12, 76224, Note_on_c, 11, 50, 0
12, 76230, Note_on_c, 11, 50, 106
12, 76254, Note_on_c, 11, 50, 0
12, 76256, Control_c, 11, 7, 100
12, 76260, Note_on_c, 11, 50, 108
12, 76284, Note_on_c, 11, 50, 0
12, 76290, Note_on_c, 11, 50, 108
12, 76296, Control_c, 11, 7, 101
12, 76314, Note_on_c, 11, 50, 0
12, 76320, Note_on_c, 11, 50, 107
12, 76338, Control_c, 11, 7, 102
12, 76344, Note_on_c, 11, 50, 0
12, 76350, Note_on_c, 11, 58, 92
12, 76374, Note_on_c, 11, 58, 0
12, 76380, Note_on_c, 11, 58, 100
12, 76380, Control_c, 11, 7, 103
12, 76404, Note_on_c, 11, 58, 0
12, 76410, Note_on_c, 11, 58, 105
12, 76422, Control_c, 11, 7, 104
12, 76434, Note_on_c, 11, 58, 0
12, 76440, Note_on_c, 11, 58, 91
12, 76464, Note_on_c, 11, 58, 0
12, 76464, Control_c, 11, 7, 105
12, 76470, Note_on_c, 11, 58, 96
12, 76494, Note_on_c, 11, 58, 0
12, 76500, Note_on_c, 11, 58, 113
12, 76506, Control_c, 11, 7, 106
12, 76524, Note_on_c, 11, 58, 0
12, 76530, Note_on_c, 11, 55, 123
12, 76548, Control_c, 11, 7, 107
12, 76554, Note_on_c, 11, 55, 0
12, 76560, Note_on_c, 11, 55, 109
12, 76584, Note_on_c, 11, 55, 0
12, 76590, Note_on_c, 11, 55, 111
12, 76590, Control_c, 11, 7, 108
12, 76614, Note_on_c, 11, 55, 0
12, 76620, Note_on_c, 11, 55, 114
12, 76630, Control_c, 11, 7, 109
12, 76644, Note_on_c, 11, 55, 0
12, 76650, Note_on_c, 11, 55, 109
12, 76674, Note_on_c, 11, 55, 0
12, 76680, Note_on_c, 11, 55, 127
12, 76682, Control_c, 11, 7, 110
12, 76704, Note_on_c, 11, 55, 0
12, 76710, Note_on_c, 11, 52, 127
12, 76734, Note_on_c, 11, 52, 0
12, 76740, Note_on_c, 11, 52, 113
12, 76756, Control_c, 11, 7, 111
12, 76764, Note_on_c, 11, 52, 0
12, 76770, Note_on_c, 11, 52, 114
12, 76794, Note_on_c, 11, 52, 0
12, 76800, Note_on_c, 11, 52, 107
12, 76824, Note_on_c, 11, 52, 0
12, 76830, Note_on_c, 11, 52, 108
12, 76830, Control_c, 11, 7, 112
12, 76854, Note_on_c, 11, 52, 0
12, 76860, Note_on_c, 11, 52, 117
12, 76884, Note_on_c, 11, 52, 0
12, 76890, Note_on_c, 11, 48, 101
12, 76904, Control_c, 11, 7, 113
12, 76914, Note_on_c, 11, 48, 0
12, 76920, Note_on_c, 11, 48, 114
12, 76944, Note_on_c, 11, 48, 0
12, 76950, Note_on_c, 11, 48, 109
12, 76974, Note_on_c, 11, 48, 0
12, 76976, Control_c, 11, 7, 114
12, 76980, Note_on_c, 11, 48, 113
12, 77004, Note_on_c, 11, 48, 0
12, 77010, Note_on_c, 11, 48, 120
12, 77034, Note_on_c, 11, 48, 0
12, 77040, Note_on_c, 11, 41, 127
12, 77050, Control_c, 11, 7, 115
12, 77064, Note_on_c, 11, 41, 0
12, 77070, Note_on_c, 11, 53, 104
12, 77094, Note_on_c, 11, 53, 0
12, 77100, Note_on_c, 11, 53, 104
12, 77124, Note_on_c, 11, 53, 0
12, 77124, Control_c, 11, 7, 116
12, 77130, Note_on_c, 11, 53, 116
12, 77154, Note_on_c, 11, 53, 0
12, 77160, Note_on_c, 11, 51, 113
12, 77184, Note_on_c, 11, 51, 0
12, 77190, Note_on_c, 11, 51, 113
12, 77196, Control_c, 11, 7, 117
12, 77214, Note_on_c, 11, 51, 0
12, 77220, Note_on_c, 11, 50, 118
12, 77244, Note_on_c, 11, 50, 0
12, 77250, Note_on_c, 11, 50, 117
12, 77270, Control_c, 11, 7, 118
12, 77274, Note_on_c, 11, 50, 0
12, 77280, Note_on_c, 11, 50, 117
12, 77304, Note_on_c, 11, 50, 0
12, 77310, Note_on_c, 11, 50, 111
12, 77334, Note_on_c, 11, 50, 0
12, 77340, Note_on_c, 11, 50, 117
12, 77344, Control_c, 11, 7, 119
12, 77364, Note_on_c, 11, 50, 0
12, 77370, Note_on_c, 11, 50, 109
12, 77394, Note_on_c, 11, 50, 0
12, 77400, Note_on_c, 11, 50, 123
12, 77418, Control_c, 11, 7, 120
12, 77424, Note_on_c, 11, 50, 0
12, 77430, Note_on_c, 11, 62, 113
12, 77454, Note_on_c, 11, 62, 0
12, 77460, Note_on_c, 11, 62, 110
12, 77484, Note_on_c, 11, 62, 0
12, 77490, Note_on_c, 11, 62, 108
12, 77490, Control_c, 11, 7, 121
12, 77514, Note_on_c, 11, 62, 0
12, 77520, Note_on_c, 11, 62, 104
12, 77544, Note_on_c, 11, 62, 0
12, 77550, Note_on_c, 11, 62, 102
12, 77564, Control_c, 11, 7, 122
12, 77574, Note_on_c, 11, 62, 0
12, 77580, Note_on_c, 11, 62, 120
12, 77604, Note_on_c, 11, 62, 0
12, 77610, Note_on_c, 11, 50, 111
12, 77634, Note_on_c, 11, 50, 0
12, 77638, Control_c, 11, 7, 123
12, 77640, Note_on_c, 11, 50, 109
12, 77664, Note_on_c, 11, 50, 0
12, 77670, Note_on_c, 11, 50, 103
12, 77694, Note_on_c, 11, 50, 0
12, 77700, Note_on_c, 11, 50, 111
12, 77710, Control_c, 11, 7, 124
12, 77724, Note_on_c, 11, 50, 0
12, 77730, Note_on_c, 11, 50, 121
12, 77754, Note_on_c, 11, 50, 0
12, 77760, Note_on_c, 11, 43, 127
12, 77784, Note_on_c, 11, 43, 0
12, 77790, Note_on_c, 11, 55, 112
12, 77814, Note_on_c, 11, 55, 0
12, 77820, Note_on_c, 11, 55, 108
12, 77844, Note_on_c, 11, 55, 0
12, 77850, Note_on_c, 11, 55, 105
12, 77874, Note_on_c, 11, 55, 0
12, 77880, Note_on_c, 11, 55, 105
12, 77904, Note_on_c, 11, 55, 0
12, 77910, Note_on_c, 11, 55, 108
12, 77934, Note_on_c, 11, 55, 0
12, 77940, Note_on_c, 11, 55, 125
12, 77964, Note_on_c, 11, 55, 0
12, 77970, Note_on_c, 11, 43, 101
12, 77994, Note_on_c, 11, 43, 0
12, 78000, Note_on_c, 11, 43, 103
12, 78024, Note_on_c, 11, 43, 0
12, 78030, Note_on_c, 11, 43, 103
12, 78054, Note_on_c, 11, 43, 0
12, 78060, Note_on_c, 11, 43, 100
12, 78084, Note_on_c, 11, 43, 0
12, 78090, Note_on_c, 11, 43, 110
12, 78114, Note_on_c, 11, 43, 0
12, 78120, Note_on_c, 11, 48, 123
12, 78144, Note_on_c, 11, 48, 0
12, 78150, Note_on_c, 11, 60, 112
12, 78174, Note_on_c, 11, 60, 0
12, 78180, Note_on_c, 11, 60, 105
12, 78204, Note_on_c, 11, 60, 0
12, 78210, Note_on_c, 11, 60, 107
12, 78234, Note_on_c, 11, 60, 0
12, 78240, Note_on_c, 11, 60, 111
12, 78264, Note_on_c, 11, 60, 0
12, 78270, Note_on_c, 11, 60, 103
12, 78294, Note_on_c, 11, 60, 0
12, 78300, Note_on_c, 11, 60, 113
12, 78324, Note_on_c, 11, 60, 0
12, 78330, Note_on_c, 11, 48, 112
12, 78354, Note_on_c, 11, 48, 0
12, 78360, Note_on_c, 11, 48, 109
12, 78384, Note_on_c, 11, 48, 0
12, 78390, Note_on_c, 11, 46, 103
12, 78414, Note_on_c, 11, 46, 0
12, 78420, Note_on_c, 11, 45, 125
12, 78444, Note_on_c, 11, 45, 0
12, 78450, Note_on_c, 11, 43, 101
12, 78474, Note_on_c, 11, 43, 0
12, 78480, Note_on_c, 11, 41, 127
12, 78576, Note_on_c, 11, 41, 0
12, 78600, Note_on_c, 11, 45, 121
12, 78648, Note_on_c, 11, 45, 0
12, 78660, Note_on_c, 11, 48, 127
12, 78756, Note_on_c, 11, 48, 0
12, 78780, Note_on_c, 11, 53, 127
12, 78828, Note_on_c, 11, 53, 0
12, 78840, Note_on_c, 11, 57, 117
12, 78936, Note_on_c, 11, 57, 0
12, 78960, Note_on_c, 11, 60, 127
12, 79008, Note_on_c, 11, 60, 0
12, 79020, Note_on_c, 11, 65, 127
12, 79068, Note_on_c, 11, 65, 0
12, 79140, Note_on_c, 11, 41, 120
12, 79188, Note_on_c, 11, 41, 0
12, 79200, Note_on_c, 11, 38, 111
12, 79296, Note_on_c, 11, 38, 0
12, 79320, Note_on_c, 11, 41, 127
12, 79368, Note_on_c, 11, 41, 0
12, 79380, Note_on_c, 11, 45, 127
12, 79476, Note_on_c, 11, 45, 0
12, 79500, Note_on_c, 11, 50, 127
12, 79548, Note_on_c, 11, 50, 0
12, 79560, Note_on_c, 11, 53, 125
12, 79656, Note_on_c, 11, 53, 0
12, 79680, Note_on_c, 11, 57, 118
12, 79728, Note_on_c, 11, 57, 0
12, 79740, Note_on_c, 11, 62, 127
12, 79788, Note_on_c, 11, 62, 0
12, 79860, Note_on_c, 11, 50, 123
12, 79908, Note_on_c, 11, 50, 0
12, 79920, Note_on_c, 11, 43, 127
12, 80016, Note_on_c, 11, 43, 0
12, 80040, Note_on_c, 11, 47, 127
12, 80088, Note_on_c, 11, 47, 0
12, 80100, Note_on_c, 11, 50, 127
12, 80196, Note_on_c, 11, 50, 0
12, 80220, Note_on_c, 11, 55, 127
12, 80268, Note_on_c, 11, 55, 0
12, 80280, Note_on_c, 11, 59, 127
12, 80376, Note_on_c, 11, 59, 0
12, 80400, Note_on_c, 11, 62, 127
12, 80448, Note_on_c, 11, 62, 0
12, 80460, Note_on_c, 11, 67, 127
12, 80508, Note_on_c, 11, 67, 0
12, 80580, Note_on_c, 11, 43, 117
12, 80628, Note_on_c, 11, 43, 0
12, 80640, Note_on_c, 11, 36, 116
12, 80736, Note_on_c, 11, 36, 0
12, 80760, Note_on_c, 11, 43, 127
12, 80808, Note_on_c, 11, 43, 0
12, 80820, Note_on_c, 11, 48, 127
12, 80916, Note_on_c, 11, 48, 0
12, 80940, Note_on_c, 11, 55, 127
12, 80988, Note_on_c, 11, 55, 0
12, 81000, Note_on_c, 11, 60, 127
12, 81096, Note_on_c, 11, 60, 0
12, 81120, Note_on_c, 11, 64, 127
12, 81168, Note_on_c, 11, 64, 0
12, 81180, Note_on_c, 11, 67, 127
12, 81228, Note_on_c, 11, 67, 0
12, 81300, Note_on_c, 11, 48, 127
12, 81348, Note_on_c, 11, 48, 0
12, 81360, Note_on_c, 11, 41, 127
12, 81456, Note_on_c, 11, 41, 0
12, 81480, Note_on_c, 11, 45, 127
12, 81528, Note_on_c, 11, 45, 0
12, 81540, Note_on_c, 11, 48, 127
12, 81636, Note_on_c, 11, 48, 0
12, 81660, Note_on_c, 11, 53, 127
12, 81708, Note_on_c, 11, 53, 0
12, 81720, Note_on_c, 11, 57, 127
12, 81816, Note_on_c, 11, 57, 0
12, 81840, Note_on_c, 11, 60, 121
12, 81888, Note_on_c, 11, 60, 0
12, 81900, Note_on_c, 11, 65, 127
12, 81948, Note_on_c, 11, 65, 0
12, 82020, Note_on_c, 11, 41, 120
12, 82068, Note_on_c, 11, 41, 0
12, 82080, Note_on_c, 11, 41, 127
12, 82176, Note_on_c, 11, 41, 0
12, 82200, Note_on_c, 11, 46, 111
12, 82248, Note_on_c, 11, 46, 0
12, 82260, Note_on_c, 11, 50, 127
12, 82356, Note_on_c, 11, 50, 0
12, 82380, Note_on_c, 11, 53, 127
12, 82428, Note_on_c, 11, 53, 0
12, 82440, Note_on_c, 11, 58, 113
12, 82536, Note_on_c, 11, 58, 0
12, 82560, Note_on_c, 11, 62, 127
12, 82608, Note_on_c, 11, 62, 0
12, 82620, Note_on_c, 11, 65, 127
12, 82668, Note_on_c, 11, 65, 0
12, 82740, Note_on_c, 11, 41, 116
12, 82788, Note_on_c, 11, 41, 0
12, 82800, Note_on_c, 11, 41, 127
12, 82896, Note_on_c, 11, 41, 0
12, 82920, Note_on_c, 11, 46, 111
12, 82968, Note_on_c, 11, 46, 0
12, 82980, Note_on_c, 11, 48, 127
12, 83076, Note_on_c, 11, 48, 0
12, 83100, Note_on_c, 11, 52, 103
12, 83148, Note_on_c, 11, 52, 0
12, 83160, Note_on_c, 11, 55, 127
12, 83256, Note_on_c, 11, 55, 0
12, 83280, Note_on_c, 11, 58, 94
12, 83328, Note_on_c, 11, 58, 0
12, 83340, Note_on_c, 11, 64, 127
12, 83436, Note_on_c, 11, 64, 0
12, 83460, Note_on_c, 11, 53, 127
12, 83508, Note_on_c, 11, 53, 0
12, 83520, Note_on_c, 11, 58, 103
12, 83616, Note_on_c, 11, 58, 0
12, 83640, Note_on_c, 11, 60, 111
12, 83688, Note_on_c, 11, 60, 0
12, 83700, Note_on_c, 11, 64, 127
12, 83796, Note_on_c, 11, 64, 0
12, 83820, Note_on_c, 11, 41, 127
12, 83868, Note_on_c, 11, 41, 0
12, 83880, Note_on_c, 11, 46, 115
12, 83976, Note_on_c, 11, 46, 0
12, 84000, Note_on_c, 11, 48, 127
12, 84048, Note_on_c, 11, 48, 0
12, 84060, Note_on_c, 11, 52, 99
12, 84108, Note_on_c, 11, 52, 0
12, 84120, Note_on_c, 11, 41, 116
12, 84168, Note_on_c, 11, 41, 0
12, 84180, Note_on_c, 11, 46, 121
12, 84228, Note_on_c, 11, 46, 0
12, 84240, Note_on_c, 11, 48, 102
12, 84288, Note_on_c, 11, 48, 0
12, 84300, Note_on_c, 11, 52, 113
12, 84348, Note_on_c, 11, 52, 0
12, 84360, Note_on_c, 11, 41, 101
12, 84408, Note_on_c, 11, 41, 0
12, 84420, Note_on_c, 11, 46, 118
12, 84468, Note_on_c, 11, 46, 0
12, 84480, Note_on_c, 11, 48, 117
12, 84528, Note_on_c, 11, 48, 0
12, 84540, Note_on_c, 11, 52, 103
12, 84588, Note_on_c, 11, 52, 0
12, 84600, Note_on_c, 11, 41, 98
12, 84648, Note_on_c, 11, 41, 0
12, 84660, Note_on_c, 11, 46, 118
12, 84708, Note_on_c, 11, 46, 0
12, 84720, Note_on_c, 11, 48, 109
12, 84768, Note_on_c, 11, 48, 0
12, 84780, Note_on_c, 11, 52, 101
12, 84828, Note_on_c, 11, 52, 0
12, 84840, Note_on_c, 11, 46, 107
12, 84888, Note_on_c, 11, 46, 0
12, 84900, Note_on_c, 11, 48, 118
12, 84948, Note_on_c, 11, 48, 0
12, 84960, Note_on_c, 11, 53, 108
12, 84960, Control_c, 11, 7, 91
12, 85248, Note_on_c, 11, 53, 0
12, 85320, Note_on_c, 11, 48, 116
12, 85608, Note_on_c, 11, 48, 0
12, 85680, Note_on_c, 11, 48, 123
12, 85968, Note_on_c, 11, 48, 0
12, 86040, Note_on_c, 11, 53, 118
12, 86328, Note_on_c, 11, 53, 0
12, 86400, Note_on_c, 11, 53, 123
12, 86544, Note_on_c, 11, 53, 0
12, 86580, Note_on_c, 11, 50, 123
12, 86676, Note_on_c, 11, 50, 0
12, 86700, Note_on_c, 11, 45, 120
12, 86748, Note_on_c, 11, 45, 0
12, 86760, Note_on_c, 11, 46, 111
12, 87048, Note_on_c, 11, 46, 0
12, 87120, Note_on_c, 11, 48, 127
12, 87408, Note_on_c, 11, 48, 0
12, 87480, Note_on_c, 11, 41, 103
12, 87576, Note_on_c, 11, 41, 0
12, 87840, Note_on_c, 11, 53, 114
12, 87984, Note_on_c, 11, 53, 0
12, 88020, Note_on_c, 11, 50, 127
12, 88068, Note_on_c, 11, 50, 0
12, 88140, Note_on_c, 11, 45, 118
12, 88188, Note_on_c, 11, 45, 0
12, 88200, Note_on_c, 11, 46, 118
12, 88476, Note_on_c, 11, 46, 0
12, 89220, Note_on_c, 11, 53, 114
12, 89268, Note_on_c, 11, 53, 0
12, 89280, Note_on_c, 11, 48, 116
12, 89508, Note_on_c, 11, 48, 0
12, 89520, Note_on_c, 11, 48, 127
12, 89568, Note_on_c, 11, 48, 0
12, 89640, Note_on_c, 11, 53, 99
12, 89736, Note_on_c, 11, 53, 0
12, 90660, Note_on_c, 11, 53, 127
12, 90708, Note_on_c, 11, 53, 0
12, 90720, Note_on_c, 11, 48, 109
12, 90996, Note_on_c, 11, 48, 0
12, 91020, Note_on_c, 11, 48, 99
12, 91068, Note_on_c, 11, 48, 0
12, 91080, Note_on_c, 11, 48, 107
12, 91176, Note_on_c, 11, 48, 0
12, 91200, Note_on_c, 11, 36, 108
12, 91248, Note_on_c, 11, 36, 0
12, 91260, Note_on_c, 11, 40, 127
12, 91356, Note_on_c, 11, 40, 0
12, 91380, Note_on_c, 11, 43, 127
12, 91428, Note_on_c, 11, 43, 0
12, 91440, Note_on_c, 11, 46, 123
12, 91536, Note_on_c, 11, 46, 0
12, 91560, Note_on_c, 11, 48, 127
12, 91608, Note_on_c, 11, 48, 0
12, 91620, Note_on_c, 11, 52, 127
12, 91716, Note_on_c, 11, 52, 0
12, 91740, Note_on_c, 11, 55, 123
12, 91788, Note_on_c, 11, 55, 0
12, 91800, Note_on_c, 11, 58, 105
12, 91896, Note_on_c, 11, 58, 0
12, 91920, Note_on_c, 11, 55, 127
12, 91968, Note_on_c, 11, 55, 0
12, 91980, Note_on_c, 11, 52, 123
12, 92076, Note_on_c, 11, 52, 0
12, 92100, Note_on_c, 11, 48, 127
12, 92148, Note_on_c, 11, 48, 0
12, 92160, Note_on_c, 11, 46, 113
12, 92256, Note_on_c, 11, 46, 0
12, 92280, Note_on_c, 11, 43, 127
12, 92328, Note_on_c, 11, 43, 0
12, 92340, Note_on_c, 11, 40, 127
12, 92436, Note_on_c, 11, 40, 0
12, 92460, Note_on_c, 11, 36, 127
12, 92508, Note_on_c, 11, 36, 0
12, 92520, Note_on_c, 11, 41, 120
12, 92808, Note_on_c, 11, 41, 0
12, 92880, Note_on_c, 11, 41, 103
12, 93168, Note_on_c, 11, 41, 0
12, 93240, Note_on_c, 11, 41, 127
12, 93336, Note_on_c, 11, 41, 0
12, 94320, Note_on_c, 11, 41, 127
12, 94344, Note_on_c, 11, 41, 0
12, 94350, Note_on_c, 11, 43, 123
12, 94374, Note_on_c, 11, 43, 0
12, 94380, Note_on_c, 11, 45, 127
12, 94404, Note_on_c, 11, 45, 0
12, 94410, Note_on_c, 11, 46, 109
12, 94434, Note_on_c, 11, 46, 0
12, 94440, Note_on_c, 11, 48, 127
12, 94464, Note_on_c, 11, 48, 0
12, 94470, Note_on_c, 11, 47, 105
12, 94494, Note_on_c, 11, 47, 0
12, 94500, Note_on_c, 11, 50, 112
12, 94524, Note_on_c, 11, 50, 0
12, 94530, Note_on_c, 11, 48, 118
12, 94554, Note_on_c, 11, 48, 0
12, 94560, Note_on_c, 11, 46, 88
12, 94584, Note_on_c, 11, 46, 0
12, 94590, Note_on_c, 11, 45, 111
12, 94614, Note_on_c, 11, 45, 0
12, 94620, Note_on_c, 11, 43, 109
12, 94644, Note_on_c, 11, 43, 0
12, 94650, Note_on_c, 11, 41, 116
12, 94674, Note_on_c, 11, 41, 0
12, 94680, Note_on_c, 11, 41, 127
12, 94776, Note_on_c, 11, 41, 0
12, 94776, End_track
13, 0, Start_track
13, 0, MIDI_port, 0
13, 0, Title_t, "Bass"
13, 0, Program_c, 12, 43
13, 0, Control_c, 12, 7, 114
13, 8640, Note_on_c, 12, 41, 120
13, 8688, Note_on_c, 12, 41, 0
13, 8700, Note_on_c, 12, 53, 110
13, 8748, Note_on_c, 12, 53, 0
13, 8760, Note_on_c, 12, 53, 120
13, 8808, Note_on_c, 12, 53, 0
13, 8820, Note_on_c, 12, 53, 113
13, 8868, Note_on_c, 12, 53, 0
13, 8880, Note_on_c, 12, 41, 125
13, 8928, Note_on_c, 12, 41, 0
13, 8940, Note_on_c, 12, 41, 106
13, 8988, Note_on_c, 12, 41, 0
13, 9000, Note_on_c, 12, 41, 50
13, 9048, Note_on_c, 12, 41, 0
13, 9060, Note_on_c, 12, 53, 107
13, 9108, Note_on_c, 12, 53, 0
13, 9120, Note_on_c, 12, 53, 111
13, 9168, Note_on_c, 12, 53, 0
13, 9180, Note_on_c, 12, 53, 120
13, 9228, Note_on_c, 12, 53, 0
13, 9240, Note_on_c, 12, 41, 121
13, 9288, Note_on_c, 12, 41, 0
13, 9300, Note_on_c, 12, 41, 127
13, 9348, Note_on_c, 12, 41, 0
13, 9360, Note_on_c, 12, 41, 127
13, 9408, Note_on_c, 12, 41, 0
13, 9420, Note_on_c, 12, 53, 127
13, 9468, Note_on_c, 12, 53, 0
13, 9480, Note_on_c, 12, 53, 121
13, 9528, Note_on_c, 12, 53, 0
13, 9540, Note_on_c, 12, 53, 121
13, 9588, Note_on_c, 12, 53, 0
13, 9600, Note_on_c, 12, 41, 127
13, 9648, Note_on_c, 12, 41, 0
13, 9660, Note_on_c, 12, 41, 127
13, 9708, Note_on_c, 12, 41, 0
13, 9720, Note_on_c, 12, 50, 127
13, 9768, Note_on_c, 12, 50, 0
13, 9780, Note_on_c, 12, 62, 107
13, 9828, Note_on_c, 12, 62, 0
13, 9840, Note_on_c, 12, 62, 104
13, 9888, Note_on_c, 12, 62, 0
13, 9900, Note_on_c, 12, 62, 103
13, 9948, Note_on_c, 12, 62, 0
13, 9960, Note_on_c, 12, 52, 110
13, 10008, Note_on_c, 12, 52, 0
13, 10020, Note_on_c, 12, 52, 114
13, 10068, Note_on_c, 12, 52, 0
13, 10080, Note_on_c, 12, 52, 123
13, 10128, Note_on_c, 12, 52, 0
13, 10140, Note_on_c, 12, 64, 113
13, 10188, Note_on_c, 12, 64, 0
13, 10200, Note_on_c, 12, 52, 121
13, 10248, Note_on_c, 12, 52, 0
13, 10260, Note_on_c, 12, 52, 103
13, 10308, Note_on_c, 12, 52, 0
13, 10320, Note_on_c, 12, 52, 104
13, 10368, Note_on_c, 12, 52, 0
13, 10380, Note_on_c, 12, 48, 117
13, 10428, Note_on_c, 12, 48, 0
13, 10440, Note_on_c, 12, 41, 116
13, 10488, Note_on_c, 12, 41, 0
13, 10500, Note_on_c, 12, 53, 101
13, 10548, Note_on_c, 12, 53, 0
13, 10560, Note_on_c, 12, 53, 120
13, 10608, Note_on_c, 12, 53, 0
13, 10620, Note_on_c, 12, 50, 116
13, 10668, Note_on_c, 12, 50, 0
13, 10680, Note_on_c, 12, 50, 121
13, 10728, Note_on_c, 12, 50, 0
13, 10740, Note_on_c, 12, 45, 125
13, 10788, Note_on_c, 12, 45, 0
13, 10800, Note_on_c, 12, 46, 123
13, 10848, Note_on_c, 12, 46, 0
13, 10860, Note_on_c, 12, 58, 101
13, 10908, Note_on_c, 12, 58, 0
13, 10920, Note_on_c, 12, 46, 118
13, 10968, Note_on_c, 12, 46, 0
13, 10980, Note_on_c, 12, 48, 120
13, 11028, Note_on_c, 12, 48, 0
13, 11040, Note_on_c, 12, 48, 113
13, 11088, Note_on_c, 12, 48, 0
13, 11100, Note_on_c, 12, 48, 107
13, 11148, Note_on_c, 12, 48, 0
13, 11160, Note_on_c, 12, 41, 110
13, 11208, Note_on_c, 12, 41, 0
13, 11820, Note_on_c, 12, 46, 118
13, 11868, Note_on_c, 12, 46, 0
13, 11880, Note_on_c, 12, 45, 123
13, 12024, Note_on_c, 12, 45, 0
13, 12060, Note_on_c, 12, 52, 127
13, 12204, Note_on_c, 12, 52, 0
13, 12240, Note_on_c, 12, 53, 121
13, 12384, Note_on_c, 12, 53, 0
13, 12420, Note_on_c, 12, 48, 112
13, 12516, Note_on_c, 12, 48, 0
13, 12540, Note_on_c, 12, 48, 104
13, 12588, Note_on_c, 12, 48, 0
13, 13260, Note_on_c, 12, 46, 109
13, 13308, Note_on_c, 12, 46, 0
13, 13320, Note_on_c, 12, 45, 127
13, 13464, Note_on_c, 12, 45, 0
13, 13500, Note_on_c, 12, 52, 118
13, 13644, Note_on_c, 12, 52, 0
13, 13680, Note_on_c, 12, 53, 123
13, 13824, Note_on_c, 12, 53, 0
13, 13860, Note_on_c, 12, 55, 127
13, 13956, Note_on_c, 12, 55, 0
13, 13980, Note_on_c, 12, 43, 106
13, 14028, Note_on_c, 12, 43, 0
13, 14040, Note_on_c, 12, 45, 109
13, 14136, Note_on_c, 12, 45, 0
13, 14340, Note_on_c, 12, 47, 127
13, 14388, Note_on_c, 12, 47, 0
13, 14400, Note_on_c, 12, 48, 113
13, 14496, Note_on_c, 12, 48, 0
13, 14700, Note_on_c, 12, 50, 107
13, 14748, Note_on_c, 12, 50, 0
13, 14760, Note_on_c, 12, 52, 104
13, 14856, Note_on_c, 12, 52, 0
13, 15300, Note_on_c, 12, 45, 107
13, 15348, Note_on_c, 12, 45, 0
13, 15360, Note_on_c, 12, 43, 111
13, 15408, Note_on_c, 12, 43, 0
13, 15420, Note_on_c, 12, 52, 105
13, 15444, Note_on_c, 12, 52, 0
13, 15450, Note_on_c, 12, 48, 116
13, 15474, Note_on_c, 12, 48, 0
13, 15480, Note_on_c, 12, 43, 113
13, 15768, Note_on_c, 12, 43, 0
13, 16020, Note_on_c, 12, 45, 121
13, 16068, Note_on_c, 12, 45, 0
13, 16080, Note_on_c, 12, 43, 103
13, 16128, Note_on_c, 12, 43, 0
13, 16140, Note_on_c, 12, 53, 114
13, 16164, Note_on_c, 12, 53, 0
13, 16170, Note_on_c, 12, 50, 110
13, 16194, Note_on_c, 12, 50, 0
13, 16200, Note_on_c, 12, 43, 114
13, 16488, Note_on_c, 12, 43, 0
13, 16740, Note_on_c, 12, 45, 109
13, 16764, Note_on_c, 12, 45, 0
13, 16770, Note_on_c, 12, 43, 127
13, 16794, Note_on_c, 12, 43, 0
13, 16800, Note_on_c, 12, 42, 107
13, 16824, Note_on_c, 12, 42, 0
13, 16830, Note_on_c, 12, 43, 123
13, 16854, Note_on_c, 12, 43, 0
13, 16860, Note_on_c, 12, 52, 114
13, 16884, Note_on_c, 12, 52, 0
13, 16890, Note_on_c, 12, 48, 94
13, 16914, Note_on_c, 12, 48, 0
13, 16920, Note_on_c, 12, 43, 100
13, 17208, Note_on_c, 12, 43, 0
13, 17460, Note_on_c, 12, 45, 127
13, 17484, Note_on_c, 12, 45, 0
13, 17490, Note_on_c, 12, 43, 112
13, 17514, Note_on_c, 12, 43, 0
13, 17520, Note_on_c, 12, 41, 125
13, 17544, Note_on_c, 12, 41, 0
13, 17550, Note_on_c, 12, 50, 78
13, 17574, Note_on_c, 12, 50, 0
13, 17580, Note_on_c, 12, 43, 113
13, 17604, Note_on_c, 12, 43, 0
13, 17610, Note_on_c, 12, 43, 121
13, 17634, Note_on_c, 12, 43, 0
13, 17640, Note_on_c, 12, 48, 105
13, 17736, Note_on_c, 12, 48, 0
13, 18120, Note_on_c, 12, 48, 123
13, 18168, Note_on_c, 12, 48, 0
13, 18180, Note_on_c, 12, 43, 120
13, 18276, Note_on_c, 12, 43, 0
13, 18300, Note_on_c, 12, 43, 117
13, 18356, Note_on_c, 12, 43, 0
13, 18360, Note_on_c, 12, 48, 111
13, 18456, Note_on_c, 12, 48, 0
13, 18840, Note_on_c, 12, 48, 127
13, 18888, Note_on_c, 12, 48, 0
13, 18900, Note_on_c, 12, 43, 121
13, 18996, Note_on_c, 12, 43, 0
13, 19020, Note_on_c, 12, 43, 116
13, 19068, Note_on_c, 12, 43, 0
13, 19080, Note_on_c, 12, 48, 107
13, 19308, Note_on_c, 12, 48, 0
13, 19380, Note_on_c, 12, 48, 120
13, 19428, Note_on_c, 12, 48, 0
13, 19440, Note_on_c, 12, 41, 107
13, 19668, Note_on_c, 12, 41, 0
13, 19740, Note_on_c, 12, 41, 121
13, 19788, Note_on_c, 12, 41, 0
13, 19800, Note_on_c, 12, 43, 117
13, 19912, Note_on_c, 12, 43, 0
13, 26940, Note_on_c, 12, 53, 100
13, 26988, Note_on_c, 12, 53, 0
13, 27000, Note_on_c, 12, 53, 107
13, 27096, Note_on_c, 12, 53, 0
13, 27300, Note_on_c, 12, 53, 111
13, 27348, Note_on_c, 12, 53, 0
13, 27360, Note_on_c, 12, 57, 120
13, 27456, Note_on_c, 12, 57, 0
13, 27480, Note_on_c, 12, 60, 127
13, 27528, Note_on_c, 12, 60, 0
13, 27540, Note_on_c, 12, 63, 123
13, 27636, Note_on_c, 12, 63, 0
13, 27660, Note_on_c, 12, 60, 111
13, 27708, Note_on_c, 12, 60, 0
13, 27720, Note_on_c, 12, 63, 118
13, 27816, Note_on_c, 12, 63, 0
13, 27840, Note_on_c, 12, 60, 127
13, 27888, Note_on_c, 12, 60, 0
13, 27900, Note_on_c, 12, 57, 127
13, 27996, Note_on_c, 12, 57, 0
13, 28020, Note_on_c, 12, 53, 127
13, 28068, Note_on_c, 12, 53, 0
13, 28080, Note_on_c, 12, 51, 123
13, 28176, Note_on_c, 12, 51, 0
13, 28200, Note_on_c, 12, 48, 127
13, 28248, Note_on_c, 12, 48, 0
13, 28260, Note_on_c, 12, 45, 127
13, 28356, Note_on_c, 12, 45, 0
13, 28380, Note_on_c, 12, 41, 118
13, 28428, Note_on_c, 12, 41, 0
13, 28440, Note_on_c, 12, 46, 93
13, 28536, Note_on_c, 12, 46, 0
13, 29100, Note_on_c, 12, 41, 107
13, 29148, Note_on_c, 12, 41, 0
13, 29160, Note_on_c, 12, 48, 113
13, 29256, Note_on_c, 12, 48, 0
13, 29820, Note_on_c, 12, 41, 127
13, 29868, Note_on_c, 12, 41, 0
13, 29880, Note_on_c, 12, 53, 117
13, 29976, Note_on_c, 12, 53, 0
13, 30540, Note_on_c, 12, 41, 127
13, 30588, Note_on_c, 12, 41, 0
13, 30600, Note_on_c, 12, 46, 113
13, 30696, Note_on_c, 12, 46, 0
13, 30900, Note_on_c, 12, 46, 115
13, 30948, Note_on_c, 12, 46, 0
13, 30960, Note_on_c, 12, 51, 127
13, 31056, Note_on_c, 12, 51, 0
13, 31260, Note_on_c, 12, 51, 112
13, 31308, Note_on_c, 12, 51, 0
13, 31320, Note_on_c, 12, 46, 121
13, 31416, Note_on_c, 12, 46, 0
13, 31620, Note_on_c, 12, 46, 121
13, 31668, Note_on_c, 12, 46, 0
13, 31680, Note_on_c, 12, 41, 127
13, 31776, Note_on_c, 12, 41, 0
13, 31980, Note_on_c, 12, 41, 127
13, 32028, Note_on_c, 12, 41, 0
13, 32040, Note_on_c, 12, 46, 127
13, 32136, Note_on_c, 12, 46, 0
13, 32340, Note_on_c, 12, 46, 126
13, 32388, Note_on_c, 12, 46, 0
13, 32400, Note_on_c, 12, 51, 115
13, 32496, Note_on_c, 12, 51, 0
13, 32700, Note_on_c, 12, 51, 123
13, 32748, Note_on_c, 12, 51, 0
13, 32760, Note_on_c, 12, 53, 127
13, 32856, Note_on_c, 12, 53, 0
13, 33060, Note_on_c, 12, 53, 127
13, 33108, Note_on_c, 12, 53, 0
13, 33120, Note_on_c, 12, 54, 115
13, 33396, Note_on_c, 12, 54, 0
13, 33420, Note_on_c, 12, 55, 121
13, 33468, Note_on_c, 12, 55, 0
13, 33480, Note_on_c, 12, 56, 113
13, 33936, Note_on_c, 12, 56, 0
13, 35220, Note_on_c, 12, 43, 125
13, 35268, Note_on_c, 12, 43, 0
13, 35280, Note_on_c, 12, 48, 104
13, 35556, Note_on_c, 12, 48, 0
13, 35580, Note_on_c, 12, 48, 113
13, 35628, Note_on_c, 12, 48, 0
13, 35640, Note_on_c, 12, 48, 112
13, 35916, Note_on_c, 12, 48, 0
13, 35940, Note_on_c, 12, 48, 127
13, 35988, Note_on_c, 12, 48, 0
13, 36000, Note_on_c, 12, 48, 105
13, 36228, Note_on_c, 12, 48, 0
13, 36300, Note_on_c, 12, 48, 127
13, 36348, Note_on_c, 12, 48, 0
13, 36360, Note_on_c, 12, 48, 103
13, 36588, Note_on_c, 12, 48, 0
13, 36660, Note_on_c, 12, 48, 127
13, 36708, Note_on_c, 12, 48, 0
13, 36720, Note_on_c, 12, 48, 103
13, 36948, Note_on_c, 12, 48, 0
13, 37020, Note_on_c, 12, 48, 127
13, 37068, Note_on_c, 12, 48, 0
13, 37080, Note_on_c, 12, 48, 103
13, 37308, Note_on_c, 12, 48, 0
13, 37380, Note_on_c, 12, 48, 127
13, 37428, Note_on_c, 12, 48, 0
13, 37440, Note_on_c, 12, 48, 103
13, 37668, Note_on_c, 12, 48, 0
13, 37740, Note_on_c, 12, 48, 127
13, 37788, Note_on_c, 12, 48, 0
13, 37800, Note_on_c, 12, 48, 103
13, 38028, Note_on_c, 12, 48, 0
13, 38100, Note_on_c, 12, 48, 127
13, 38148, Note_on_c, 12, 48, 0
13, 38160, Note_on_c, 12, 48, 103
13, 38388, Note_on_c, 12, 48, 0
13, 38460, Note_on_c, 12, 48, 127
13, 38508, Note_on_c, 12, 48, 0
13, 38520, Note_on_c, 12, 48, 103
13, 38748, Note_on_c, 12, 48, 0
13, 38820, Note_on_c, 12, 48, 127
13, 38868, Note_on_c, 12, 48, 0
13, 38880, Note_on_c, 12, 48, 109
13, 40824, Note_on_c, 12, 48, 0
13, 40860, Note_on_c, 12, 41, 107
13, 41688, Note_on_c, 12, 41, 0
13, 41760, Note_on_c, 12, 41, 123
13, 41856, Note_on_c, 12, 41, 0
13, 47520, Note_on_c, 12, 41, 127
13, 47568, Note_on_c, 12, 41, 0
13, 47580, Note_on_c, 12, 53, 108
13, 47628, Note_on_c, 12, 53, 0
13, 47640, Note_on_c, 12, 53, 109
13, 47688, Note_on_c, 12, 53, 0
13, 47700, Note_on_c, 12, 53, 116
13, 47748, Note_on_c, 12, 53, 0
13, 47760, Note_on_c, 12, 41, 123
13, 47808, Note_on_c, 12, 41, 0
13, 47820, Note_on_c, 12, 41, 109
13, 47868, Note_on_c, 12, 41, 0
13, 47880, Note_on_c, 12, 41, 100
13, 47928, Note_on_c, 12, 41, 0
13, 47940, Note_on_c, 12, 53, 102
13, 47988, Note_on_c, 12, 53, 0
13, 48000, Note_on_c, 12, 53, 103
13, 48048, Note_on_c, 12, 53, 0
13, 48060, Note_on_c, 12, 53, 106
13, 48108, Note_on_c, 12, 53, 0
13, 48120, Note_on_c, 12, 41, 112
13, 48168, Note_on_c, 12, 41, 0
13, 48180, Note_on_c, 12, 41, 116
13, 48228, Note_on_c, 12, 41, 0
13, 48240, Note_on_c, 12, 41, 127
13, 48288, Note_on_c, 12, 41, 0
13, 48300, Note_on_c, 12, 53, 104
13, 48348, Note_on_c, 12, 53, 0
13, 48360, Note_on_c, 12, 53, 110
13, 48408, Note_on_c, 12, 53, 0
13, 48420, Note_on_c, 12, 53, 112
13, 48468, Note_on_c, 12, 53, 0
13, 48480, Note_on_c, 12, 41, 120
13, 48528, Note_on_c, 12, 41, 0
13, 48540, Note_on_c, 12, 41, 127
13, 48588, Note_on_c, 12, 41, 0
13, 48600, Note_on_c, 12, 50, 121
13, 48648, Note_on_c, 12, 50, 0
13, 48660, Note_on_c, 12, 62, 102
13, 48708, Note_on_c, 12, 62, 0
13, 48720, Note_on_c, 12, 62, 98
13, 48768, Note_on_c, 12, 62, 0
13, 48780, Note_on_c, 12, 62, 111
13, 48828, Note_on_c, 12, 62, 0
13, 48840, Note_on_c, 12, 50, 113
13, 48888, Note_on_c, 12, 50, 0
13, 48900, Note_on_c, 12, 52, 120
13, 48948, Note_on_c, 12, 52, 0
13, 48960, Note_on_c, 12, 52, 100
13, 49008, Note_on_c, 12, 52, 0
13, 49020, Note_on_c, 12, 64, 114
13, 49068, Note_on_c, 12, 64, 0
13, 49080, Note_on_c, 12, 52, 125
13, 49128, Note_on_c, 12, 52, 0
13, 49140, Note_on_c, 12, 52, 109
13, 49188, Note_on_c, 12, 52, 0
13, 49200, Note_on_c, 12, 52, 110
13, 49248, Note_on_c, 12, 52, 0
13, 49260, Note_on_c, 12, 48, 127
13, 49308, Note_on_c, 12, 48, 0
13, 49320, Note_on_c, 12, 41, 127
13, 49368, Note_on_c, 12, 41, 0
13, 49380, Note_on_c, 12, 53, 109
13, 49428, Note_on_c, 12, 53, 0
13, 49440, Note_on_c, 12, 53, 109
13, 49488, Note_on_c, 12, 53, 0
13, 49500, Note_on_c, 12, 50, 125
13, 49548, Note_on_c, 12, 50, 0
13, 49560, Note_on_c, 12, 50, 108
13, 49608, Note_on_c, 12, 50, 0
13, 49620, Note_on_c, 12, 45, 111
13, 49668, Note_on_c, 12, 45, 0
13, 49680, Note_on_c, 12, 46, 118
13, 49728, Note_on_c, 12, 46, 0
13, 49740, Note_on_c, 12, 58, 115
13, 49788, Note_on_c, 12, 58, 0
13, 49800, Note_on_c, 12, 46, 118
13, 49848, Note_on_c, 12, 46, 0
13, 49860, Note_on_c, 12, 48, 113
13, 49908, Note_on_c, 12, 48, 0
13, 49920, Note_on_c, 12, 48, 110
13, 49968, Note_on_c, 12, 48, 0
13, 49980, Note_on_c, 12, 48, 118
13, 50028, Note_on_c, 12, 48, 0
13, 50040, Note_on_c, 12, 41, 107
13, 50136, Note_on_c, 12, 41, 0
13, 50700, Note_on_c, 12, 46, 113
13, 50748, Note_on_c, 12, 46, 0
13, 50760, Note_on_c, 12, 45, 127
13, 50904, Note_on_c, 12, 45, 0
13, 50940, Note_on_c, 12, 52, 127
13, 51084, Note_on_c, 12, 52, 0
13, 51120, Note_on_c, 12, 53, 127
13, 51264, Note_on_c, 12, 53, 0
13, 51300, Note_on_c, 12, 48, 127
13, 51396, Note_on_c, 12, 48, 0
13, 51420, Note_on_c, 12, 48, 127
13, 51468, Note_on_c, 12, 48, 0
13, 51780, Note_on_c, 12, 48, 125
13, 51828, Note_on_c, 12, 48, 0
13, 51840, Note_on_c, 12, 53, 120
13, 51984, Note_on_c, 12, 53, 0
13, 52020, Note_on_c, 12, 55, 125
13, 52116, Note_on_c, 12, 55, 0
13, 52140, Note_on_c, 12, 43, 107
13, 52188, Note_on_c, 12, 43, 0
13, 52200, Note_on_c, 12, 45, 114
13, 52296, Note_on_c, 12, 45, 0
13, 52500, Note_on_c, 12, 47, 127
13, 52548, Note_on_c, 12, 47, 0
13, 52560, Note_on_c, 12, 48, 117
13, 52656, Note_on_c, 12, 48, 0
13, 52860, Note_on_c, 12, 50, 123
13, 52908, Note_on_c, 12, 50, 0
13, 52920, Note_on_c, 12, 52, 120
13, 53016, Note_on_c, 12, 52, 0
13, 53220, Note_on_c, 12, 53, 118
13, 53268, Note_on_c, 12, 53, 0
13, 53280, Note_on_c, 12, 55, 123
13, 53376, Note_on_c, 12, 55, 0
13, 53400, Note_on_c, 12, 48, 108
13, 53448, Note_on_c, 12, 48, 0
13, 53460, Note_on_c, 12, 48, 113
13, 53556, Note_on_c, 12, 48, 0
13, 53580, Note_on_c, 12, 48, 113
13, 53628, Note_on_c, 12, 48, 0
13, 53640, Note_on_c, 12, 48, 117
13, 53928, Note_on_c, 12, 48, 0
13, 54180, Note_on_c, 12, 50, 127
13, 54228, Note_on_c, 12, 50, 0
13, 54240, Note_on_c, 12, 48, 106
13, 54288, Note_on_c, 12, 48, 0
13, 54300, Note_on_c, 12, 45, 113
13, 54324, Note_on_c, 12, 45, 0
13, 54330, Note_on_c, 12, 41, 127
13, 54354, Note_on_c, 12, 41, 0
13, 54360, Note_on_c, 12, 48, 127
13, 54648, Note_on_c, 12, 48, 0
13, 54900, Note_on_c, 12, 48, 127
13, 54948, Note_on_c, 12, 48, 0
13, 54960, Note_on_c, 12, 46, 111
13, 55008, Note_on_c, 12, 46, 0
13, 55020, Note_on_c, 12, 43, 127
13, 55044, Note_on_c, 12, 43, 0
13, 55050, Note_on_c, 12, 40, 127
13, 55074, Note_on_c, 12, 40, 0
13, 55080, Note_on_c, 12, 48, 120
13, 55368, Note_on_c, 12, 48, 0
13, 55620, Note_on_c, 12, 50, 127
13, 55644, Note_on_c, 12, 50, 0
13, 55650, Note_on_c, 12, 48, 117
13, 55674, Note_on_c, 12, 48, 0
13, 55680, Note_on_c, 12, 47, 99
13, 55704, Note_on_c, 12, 47, 0
13, 55710, Note_on_c, 12, 48, 112
13, 55734, Note_on_c, 12, 48, 0
13, 55740, Note_on_c, 12, 45, 120
13, 55764, Note_on_c, 12, 45, 0
13, 55770, Note_on_c, 12, 41, 127
13, 55794, Note_on_c, 12, 41, 0
13, 55800, Note_on_c, 12, 48, 111
13, 56088, Note_on_c, 12, 48, 0
13, 56340, Note_on_c, 12, 48, 123
13, 56364, Note_on_c, 12, 48, 0
13, 56370, Note_on_c, 12, 46, 111
13, 56394, Note_on_c, 12, 46, 0
13, 56400, Note_on_c, 12, 43, 127
13, 56424, Note_on_c, 12, 43, 0
13, 56430, Note_on_c, 12, 52, 101
13, 56454, Note_on_c, 12, 52, 0
13, 56460, Note_on_c, 12, 48, 102
13, 56484, Note_on_c, 12, 48, 0
13, 56490, Note_on_c, 12, 48, 116
13, 56514, Note_on_c, 12, 48, 0
13, 56520, Note_on_c, 12, 41, 109
13, 56616, Note_on_c, 12, 41, 0
13, 57000, Note_on_c, 12, 53, 114
13, 57048, Note_on_c, 12, 53, 0
13, 57060, Note_on_c, 12, 48, 112
13, 57156, Note_on_c, 12, 48, 0
13, 57180, Note_on_c, 12, 48, 110
13, 57228, Note_on_c, 12, 48, 0
13, 57240, Note_on_c, 12, 53, 103
13, 57336, Note_on_c, 12, 53, 0
13, 57720, Note_on_c, 12, 41, 121
13, 57768, Note_on_c, 12, 41, 0
13, 57780, Note_on_c, 12, 48, 107
13, 57876, Note_on_c, 12, 48, 0
13, 57900, Note_on_c, 12, 48, 127
13, 57948, Note_on_c, 12, 48, 0
13, 57960, Note_on_c, 12, 41, 107
13, 58188, Note_on_c, 12, 41, 0
13, 58260, Note_on_c, 12, 41, 127
13, 58308, Note_on_c, 12, 41, 0
13, 58320, Note_on_c, 12, 46, 88
13, 58548, Note_on_c, 12, 46, 0
13, 58620, Note_on_c, 12, 46, 126
13, 58668, Note_on_c, 12, 46, 0
13, 58680, Note_on_c, 12, 48, 102
13, 58792, Note_on_c, 12, 48, 0
13, 62580, Note_on_c, 12, 43, 127
13, 62628, Note_on_c, 12, 43, 0
13, 62640, Note_on_c, 12, 40, 127
13, 62688, Note_on_c, 12, 40, 0
13, 62700, Note_on_c, 12, 36, 111
13, 62748, Note_on_c, 12, 36, 0
13, 62760, Note_on_c, 12, 43, 113
13, 62808, Note_on_c, 12, 43, 0
13, 62820, Note_on_c, 12, 40, 111
13, 62868, Note_on_c, 12, 40, 0
13, 62880, Note_on_c, 12, 52, 98
13, 62928, Note_on_c, 12, 52, 0
13, 62940, Note_on_c, 12, 43, 109
13, 62988, Note_on_c, 12, 43, 0
13, 63000, Note_on_c, 12, 55, 116
13, 63048, Note_on_c, 12, 55, 0
13, 63060, Note_on_c, 12, 48, 121
13, 63108, Note_on_c, 12, 48, 0
13, 63120, Note_on_c, 12, 60, 108
13, 63168, Note_on_c, 12, 60, 0
13, 63180, Note_on_c, 12, 36, 118
13, 63228, Note_on_c, 12, 36, 0
13, 63240, Note_on_c, 12, 48, 108
13, 63288, Note_on_c, 12, 48, 0
13, 63300, Note_on_c, 12, 36, 100
13, 63348, Note_on_c, 12, 36, 0
13, 63360, Note_on_c, 12, 41, 127
13, 63456, Note_on_c, 12, 41, 0
13, 66540, Note_on_c, 12, 48, 116
13, 66588, Note_on_c, 12, 48, 0
13, 66600, Note_on_c, 12, 41, 118
13, 66648, Note_on_c, 12, 41, 0
13, 66660, Note_on_c, 12, 53, 125
13, 66708, Note_on_c, 12, 53, 0
13, 66720, Note_on_c, 12, 53, 118
13, 66768, Note_on_c, 12, 53, 0
13, 66780, Note_on_c, 12, 53, 121
13, 66828, Note_on_c, 12, 53, 0
13, 66840, Note_on_c, 12, 53, 121
13, 66888, Note_on_c, 12, 53, 0
13, 66900, Note_on_c, 12, 53, 127
13, 66948, Note_on_c, 12, 53, 0
13, 66960, Note_on_c, 12, 50, 116
13, 67008, Note_on_c, 12, 50, 0
13, 67020, Note_on_c, 12, 50, 113
13, 67068, Note_on_c, 12, 50, 0
13, 67080, Note_on_c, 12, 50, 123
13, 67128, Note_on_c, 12, 50, 0
13, 67140, Note_on_c, 12, 50, 120
13, 67188, Note_on_c, 12, 50, 0
13, 67200, Note_on_c, 12, 50, 125
13, 67248, Note_on_c, 12, 50, 0
13, 67260, Note_on_c, 12, 50, 118
13, 67308, Note_on_c, 12, 50, 0
13, 67320, Note_on_c, 12, 43, 109
13, 67368, Note_on_c, 12, 43, 0
13, 67380, Note_on_c, 12, 55, 121
13, 67428, Note_on_c, 12, 55, 0
13, 67440, Note_on_c, 12, 55, 127
13, 67488, Note_on_c, 12, 55, 0
13, 67500, Note_on_c, 12, 55, 123
13, 67548, Note_on_c, 12, 55, 0
13, 67560, Note_on_c, 12, 55, 127
13, 67608, Note_on_c, 12, 55, 0
13, 67620, Note_on_c, 12, 55, 125
13, 67668, Note_on_c, 12, 55, 0
13, 67680, Note_on_c, 12, 48, 127
13, 67728, Note_on_c, 12, 48, 0
13, 67740, Note_on_c, 12, 48, 116
13, 67788, Note_on_c, 12, 48, 0
13, 67800, Note_on_c, 12, 48, 121
13, 67848, Note_on_c, 12, 48, 0
13, 67860, Note_on_c, 12, 48, 123
13, 67908, Note_on_c, 12, 48, 0
13, 67920, Note_on_c, 12, 48, 113
13, 67968, Note_on_c, 12, 48, 0
13, 67980, Note_on_c, 12, 48, 116
13, 68028, Note_on_c, 12, 48, 0
13, 68040, Note_on_c, 12, 41, 103
13, 68316, Note_on_c, 12, 41, 0
13, 68340, Note_on_c, 12, 53, 99
13, 68388, Note_on_c, 12, 53, 0
13, 68400, Note_on_c, 12, 57, 127
13, 68496, Note_on_c, 12, 57, 0
13, 68520, Note_on_c, 12, 60, 123
13, 68568, Note_on_c, 12, 60, 0
13, 68580, Note_on_c, 12, 65, 127
13, 68676, Note_on_c, 12, 65, 0
13, 68700, Note_on_c, 12, 41, 127
13, 68748, Note_on_c, 12, 41, 0
13, 68760, Note_on_c, 12, 38, 114
13, 69036, Note_on_c, 12, 38, 0
13, 69060, Note_on_c, 12, 50, 127
13, 69108, Note_on_c, 12, 50, 0
13, 69120, Note_on_c, 12, 53, 127
13, 69216, Note_on_c, 12, 53, 0
13, 69240, Note_on_c, 12, 57, 125
13, 69288, Note_on_c, 12, 57, 0
13, 69300, Note_on_c, 12, 62, 127
13, 69396, Note_on_c, 12, 62, 0
13, 69420, Note_on_c, 12, 50, 125
13, 69468, Note_on_c, 12, 50, 0
13, 69480, Note_on_c, 12, 43, 114
13, 69756, Note_on_c, 12, 43, 0
13, 69780, Note_on_c, 12, 55, 127
13, 69828, Note_on_c, 12, 55, 0
13, 69840, Note_on_c, 12, 59, 111
13, 69936, Note_on_c, 12, 59, 0
13, 69960, Note_on_c, 12, 62, 127
13, 70008, Note_on_c, 12, 62, 0
13, 70020, Note_on_c, 12, 67, 127
13, 70116, Note_on_c, 12, 67, 0
13, 70140, Note_on_c, 12, 55, 116
13, 70188, Note_on_c, 12, 55, 0
13, 70200, Note_on_c, 12, 43, 114
13, 70488, Note_on_c, 12, 43, 0
13, 72300, Note_on_c, 12, 64, 107
13, 72360, Note_on_c, 12, 60, 127
13, 72396, Note_on_c, 12, 64, 0
13, 72408, Note_on_c, 12, 60, 0
13, 72420, Note_on_c, 12, 58, 95
13, 72468, Note_on_c, 12, 58, 0
13, 72480, Note_on_c, 12, 60, 112
13, 72528, Note_on_c, 12, 60, 0
13, 72540, Note_on_c, 12, 58, 96
13, 72588, Note_on_c, 12, 58, 0
13, 72600, Note_on_c, 12, 55, 109
13, 72648, Note_on_c, 12, 55, 0
13, 72660, Note_on_c, 12, 58, 101
13, 72708, Note_on_c, 12, 58, 0
13, 72720, Note_on_c, 12, 55, 118
13, 72768, Note_on_c, 12, 55, 0
13, 72780, Note_on_c, 12, 52, 107
13, 72828, Note_on_c, 12, 52, 0
13, 72840, Note_on_c, 12, 55, 116
13, 72888, Note_on_c, 12, 55, 0
13, 72900, Note_on_c, 12, 52, 116
13, 72948, Note_on_c, 12, 52, 0
13, 72960, Note_on_c, 12, 48, 116
13, 73008, Note_on_c, 12, 48, 0
13, 73020, Note_on_c, 12, 52, 121
13, 73068, Note_on_c, 12, 52, 0
13, 73080, Note_on_c, 12, 48, 127
13, 73128, Note_on_c, 12, 48, 0
13, 73140, Note_on_c, 12, 46, 97
13, 73188, Note_on_c, 12, 46, 0
13, 73200, Note_on_c, 12, 48, 118
13, 73248, Note_on_c, 12, 48, 0
13, 73260, Note_on_c, 12, 46, 113
13, 73308, Note_on_c, 12, 46, 0
13, 73320, Note_on_c, 12, 43, 102
13, 73368, Note_on_c, 12, 43, 0
13, 73380, Note_on_c, 12, 58, 118
13, 73428, Note_on_c, 12, 58, 0
13, 73440, Note_on_c, 12, 55, 120
13, 73488, Note_on_c, 12, 55, 0
13, 73500, Note_on_c, 12, 52, 113
13, 73548, Note_on_c, 12, 52, 0
13, 73560, Note_on_c, 12, 48, 127
13, 73608, Note_on_c, 12, 48, 0
13, 73620, Note_on_c, 12, 43, 127
13, 73668, Note_on_c, 12, 43, 0
13, 73680, Note_on_c, 12, 36, 123
13, 73728, Note_on_c, 12, 36, 0
13, 73740, Note_on_c, 12, 48, 120
13, 73788, Note_on_c, 12, 48, 0
13, 73800, Note_on_c, 12, 53, 127
13, 73896, Note_on_c, 12, 53, 0
13, 77040, Note_on_c, 12, 53, 106
13, 77064, Note_on_c, 12, 53, 0
13, 77070, Note_on_c, 12, 53, 102
13, 77094, Note_on_c, 12, 53, 0
13, 77100, Note_on_c, 12, 53, 107
13, 77124, Note_on_c, 12, 53, 0
13, 77130, Note_on_c, 12, 53, 109
13, 77154, Note_on_c, 12, 53, 0
13, 77160, Note_on_c, 12, 51, 97
13, 77184, Note_on_c, 12, 51, 0
13, 77190, Note_on_c, 12, 51, 88
13, 77214, Note_on_c, 12, 51, 0
13, 77220, Note_on_c, 12, 50, 118
13, 77244, Note_on_c, 12, 50, 0
13, 77250, Note_on_c, 12, 50, 110
13, 77274, Note_on_c, 12, 50, 0
13, 77280, Note_on_c, 12, 50, 107
13, 77304, Note_on_c, 12, 50, 0
13, 77310, Note_on_c, 12, 50, 108
13, 77334, Note_on_c, 12, 50, 0
13, 77340, Note_on_c, 12, 50, 114
13, 77364, Note_on_c, 12, 50, 0
13, 77370, Note_on_c, 12, 50, 109
13, 77394, Note_on_c, 12, 50, 0
13, 77400, Note_on_c, 12, 50, 117
13, 77424, Note_on_c, 12, 50, 0
13, 77430, Note_on_c, 12, 62, 109
13, 77454, Note_on_c, 12, 62, 0
13, 77460, Note_on_c, 12, 62, 100
13, 77484, Note_on_c, 12, 62, 0
13, 77490, Note_on_c, 12, 62, 105
13, 77514, Note_on_c, 12, 62, 0
13, 77520, Note_on_c, 12, 62, 103
13, 77544, Note_on_c, 12, 62, 0
13, 77550, Note_on_c, 12, 62, 107
13, 77574, Note_on_c, 12, 62, 0
13, 77580, Note_on_c, 12, 62, 118
13, 77604, Note_on_c, 12, 62, 0
13, 77610, Note_on_c, 12, 50, 111
13, 77634, Note_on_c, 12, 50, 0
13, 77640, Note_on_c, 12, 50, 106
13, 77664, Note_on_c, 12, 50, 0
13, 77670, Note_on_c, 12, 50, 105
13, 77694, Note_on_c, 12, 50, 0
13, 77700, Note_on_c, 12, 50, 104
13, 77724, Note_on_c, 12, 50, 0
13, 77730, Note_on_c, 12, 50, 111
13, 77754, Note_on_c, 12, 50, 0
13, 77760, Note_on_c, 12, 43, 118
13, 77784, Note_on_c, 12, 43, 0
13, 77790, Note_on_c, 12, 55, 107
13, 77814, Note_on_c, 12, 55, 0
13, 77820, Note_on_c, 12, 55, 105
13, 77844, Note_on_c, 12, 55, 0
13, 77850, Note_on_c, 12, 55, 102
13, 77874, Note_on_c, 12, 55, 0
13, 77880, Note_on_c, 12, 55, 101
13, 77904, Note_on_c, 12, 55, 0
13, 77910, Note_on_c, 12, 55, 106
13, 77934, Note_on_c, 12, 55, 0
13, 77940, Note_on_c, 12, 55, 120
13, 77964, Note_on_c, 12, 55, 0
13, 77970, Note_on_c, 12, 43, 103
13, 77994, Note_on_c, 12, 43, 0
13, 78000, Note_on_c, 12, 43, 103
13, 78024, Note_on_c, 12, 43, 0
13, 78030, Note_on_c, 12, 43, 100
13, 78054, Note_on_c, 12, 43, 0
13, 78060, Note_on_c, 12, 43, 102
13, 78084, Note_on_c, 12, 43, 0
13, 78090, Note_on_c, 12, 43, 105
13, 78114, Note_on_c, 12, 43, 0
13, 78120, Note_on_c, 12, 48, 127
13, 78144, Note_on_c, 12, 48, 0
13, 78150, Note_on_c, 12, 60, 107
13, 78174, Note_on_c, 12, 60, 0
13, 78180, Note_on_c, 12, 60, 106
13, 78204, Note_on_c, 12, 60, 0
13, 78210, Note_on_c, 12, 60, 105
13, 78234, Note_on_c, 12, 60, 0
13, 78240, Note_on_c, 12, 60, 102
13, 78264, Note_on_c, 12, 60, 0
13, 78270, Note_on_c, 12, 60, 107
13, 78294, Note_on_c, 12, 60, 0
13, 78300, Note_on_c, 12, 60, 123
13, 78324, Note_on_c, 12, 60, 0
13, 78330, Note_on_c, 12, 48, 125
13, 78354, Note_on_c, 12, 48, 0
13, 78360, Note_on_c, 12, 48, 113
13, 78384, Note_on_c, 12, 48, 0
13, 78390, Note_on_c, 12, 46, 86
13, 78414, Note_on_c, 12, 46, 0
13, 78420, Note_on_c, 12, 45, 117
13, 78444, Note_on_c, 12, 45, 0
13, 78450, Note_on_c, 12, 43, 109
13, 78474, Note_on_c, 12, 43, 0
13, 78480, Note_on_c, 12, 41, 116
13, 78576, Note_on_c, 12, 41, 0
13, 78600, Note_on_c, 12, 45, 120
13, 78648, Note_on_c, 12, 45, 0
13, 78660, Note_on_c, 12, 48, 127
13, 78756, Note_on_c, 12, 48, 0
13, 78780, Note_on_c, 12, 53, 125
13, 78828, Note_on_c, 12, 53, 0
13, 78840, Note_on_c, 12, 57, 127
13, 78936, Note_on_c, 12, 57, 0
13, 78960, Note_on_c, 12, 60, 105
13, 79008, Note_on_c, 12, 60, 0
13, 79020, Note_on_c, 12, 65, 127
13, 79068, Note_on_c, 12, 65, 0
13, 79140, Note_on_c, 12, 41, 125
13, 79188, Note_on_c, 12, 41, 0
13, 79200, Note_on_c, 12, 38, 99
13, 79296, Note_on_c, 12, 38, 0
13, 79320, Note_on_c, 12, 41, 123
13, 79368, Note_on_c, 12, 41, 0
13, 79380, Note_on_c, 12, 45, 127
13, 79476, Note_on_c, 12, 45, 0
13, 79500, Note_on_c, 12, 50, 127
13, 79548, Note_on_c, 12, 50, 0
13, 79560, Note_on_c, 12, 53, 127
13, 79656, Note_on_c, 12, 53, 0
13, 79680, Note_on_c, 12, 57, 127
13, 79728, Note_on_c, 12, 57, 0
13, 79740, Note_on_c, 12, 62, 127
13, 79788, Note_on_c, 12, 62, 0
13, 79860, Note_on_c, 12, 50, 112
13, 79908, Note_on_c, 12, 50, 0
13, 79920, Note_on_c, 12, 43, 127
13, 80016, Note_on_c, 12, 43, 0
13, 80040, Note_on_c, 12, 47, 107
13, 80088, Note_on_c, 12, 47, 0
13, 80100, Note_on_c, 12, 50, 123
13, 80196, Note_on_c, 12, 50, 0
13, 80220, Note_on_c, 12, 55, 127
13, 80268, Note_on_c, 12, 55, 0
13, 80280, Note_on_c, 12, 59, 127
13, 80376, Note_on_c, 12, 59, 0
13, 80400, Note_on_c, 12, 62, 127
13, 80448, Note_on_c, 12, 62, 0
13, 80460, Note_on_c, 12, 67, 127
13, 80508, Note_on_c, 12, 67, 0
13, 80580, Note_on_c, 12, 43, 110
13, 80628, Note_on_c, 12, 43, 0
13, 80640, Note_on_c, 12, 36, 116
13, 80736, Note_on_c, 12, 36, 0
13, 80760, Note_on_c, 12, 43, 127
13, 80808, Note_on_c, 12, 43, 0
13, 80820, Note_on_c, 12, 48, 127
13, 80916, Note_on_c, 12, 48, 0
13, 80940, Note_on_c, 12, 55, 127
13, 80988, Note_on_c, 12, 55, 0
13, 81000, Note_on_c, 12, 60, 127
13, 81096, Note_on_c, 12, 60, 0
13, 81120, Note_on_c, 12, 64, 127
13, 81168, Note_on_c, 12, 64, 0
13, 81180, Note_on_c, 12, 67, 127
13, 81228, Note_on_c, 12, 67, 0
13, 81300, Note_on_c, 12, 48, 127
13, 81348, Note_on_c, 12, 48, 0
13, 81360, Note_on_c, 12, 41, 127
13, 81456, Note_on_c, 12, 41, 0
13, 81480, Note_on_c, 12, 45, 127
13, 81528, Note_on_c, 12, 45, 0
13, 81540, Note_on_c, 12, 48, 127
13, 81636, Note_on_c, 12, 48, 0
13, 81660, Note_on_c, 12, 53, 127
13, 81708, Note_on_c, 12, 53, 0
13, 81720, Note_on_c, 12, 57, 127
13, 81816, Note_on_c, 12, 57, 0
13, 81840, Note_on_c, 12, 60, 121
13, 81888, Note_on_c, 12, 60, 0
13, 81900, Note_on_c, 12, 65, 127
13, 81948, Note_on_c, 12, 65, 0
13, 82020, Note_on_c, 12, 41, 120
13, 82068, Note_on_c, 12, 41, 0
13, 82080, Note_on_c, 12, 41, 127
13, 82176, Note_on_c, 12, 41, 0
13, 82200, Note_on_c, 12, 46, 111
13, 82248, Note_on_c, 12, 46, 0
13, 82260, Note_on_c, 12, 50, 127
13, 82356, Note_on_c, 12, 50, 0
13, 82380, Note_on_c, 12, 53, 127
13, 82428, Note_on_c, 12, 53, 0
13, 82440, Note_on_c, 12, 58, 113
13, 82536, Note_on_c, 12, 58, 0
13, 82560, Note_on_c, 12, 62, 127
13, 82608, Note_on_c, 12, 62, 0
13, 82620, Note_on_c, 12, 65, 127
13, 82668, Note_on_c, 12, 65, 0
13, 82740, Note_on_c, 12, 41, 116
13, 82788, Note_on_c, 12, 41, 0
13, 82800, Note_on_c, 12, 41, 127
13, 82896, Note_on_c, 12, 41, 0
13, 82920, Note_on_c, 12, 46, 111
13, 82968, Note_on_c, 12, 46, 0
13, 82980, Note_on_c, 12, 48, 127
13, 83076, Note_on_c, 12, 48, 0
13, 83100, Note_on_c, 12, 52, 103
13, 83148, Note_on_c, 12, 52, 0
13, 83160, Note_on_c, 12, 55, 127
13, 83256, Note_on_c, 12, 55, 0
13, 83280, Note_on_c, 12, 58, 94
13, 83328, Note_on_c, 12, 58, 0
13, 83340, Note_on_c, 12, 64, 127
13, 83436, Note_on_c, 12, 64, 0
13, 83460, Note_on_c, 12, 53, 127
13, 83508, Note_on_c, 12, 53, 0
13, 83520, Note_on_c, 12, 58, 103
13, 83616, Note_on_c, 12, 58, 0
13, 83640, Note_on_c, 12, 60, 111
13, 83688, Note_on_c, 12, 60, 0
13, 83700, Note_on_c, 12, 64, 127
13, 83796, Note_on_c, 12, 64, 0
13, 83820, Note_on_c, 12, 41, 127
13, 83868, Note_on_c, 12, 41, 0
13, 83880, Note_on_c, 12, 46, 115
13, 83976, Note_on_c, 12, 46, 0
13, 84000, Note_on_c, 12, 48, 127
13, 84048, Note_on_c, 12, 48, 0
13, 84060, Note_on_c, 12, 52, 99
13, 84108, Note_on_c, 12, 52, 0
13, 84120, Note_on_c, 12, 41, 116
13, 84168, Note_on_c, 12, 41, 0
13, 84180, Note_on_c, 12, 46, 121
13, 84228, Note_on_c, 12, 46, 0
13, 84240, Note_on_c, 12, 48, 102
13, 84288, Note_on_c, 12, 48, 0
13, 84300, Note_on_c, 12, 52, 113
13, 84348, Note_on_c, 12, 52, 0
13, 84360, Note_on_c, 12, 41, 101
13, 84408, Note_on_c, 12, 41, 0
13, 84420, Note_on_c, 12, 46, 118
13, 84468, Note_on_c, 12, 46, 0
13, 84480, Note_on_c, 12, 48, 117
13, 84528, Note_on_c, 12, 48, 0
13, 84540, Note_on_c, 12, 52, 103
13, 84588, Note_on_c, 12, 52, 0
13, 84600, Note_on_c, 12, 41, 98
13, 84648, Note_on_c, 12, 41, 0
13, 84660, Note_on_c, 12, 46, 118
13, 84708, Note_on_c, 12, 46, 0
13, 84720, Note_on_c, 12, 48, 109
13, 84768, Note_on_c, 12, 48, 0
13, 84780, Note_on_c, 12, 52, 101
13, 84828, Note_on_c, 12, 52, 0
13, 84840, Note_on_c, 12, 46, 107
13, 84888, Note_on_c, 12, 46, 0
13, 84900, Note_on_c, 12, 48, 118
13, 84948, Note_on_c, 12, 48, 0
13, 84960, Note_on_c, 12, 41, 114
13, 85056, Note_on_c, 12, 41, 0
13, 87840, Note_on_c, 12, 53, 114
13, 87984, Note_on_c, 12, 53, 0
13, 88020, Note_on_c, 12, 50, 127
13, 88068, Note_on_c, 12, 50, 0
13, 88140, Note_on_c, 12, 45, 118
13, 88188, Note_on_c, 12, 45, 0
13, 88200, Note_on_c, 12, 46, 118
13, 88476, Note_on_c, 12, 46, 0
13, 89220, Note_on_c, 12, 53, 114
13, 89268, Note_on_c, 12, 53, 0
13, 89280, Note_on_c, 12, 48, 116
13, 89508, Note_on_c, 12, 48, 0
13, 89520, Note_on_c, 12, 48, 127
13, 89568, Note_on_c, 12, 48, 0
13, 89640, Note_on_c, 12, 53, 99
13, 89736, Note_on_c, 12, 53, 0
13, 90660, Note_on_c, 12, 53, 127
13, 90708, Note_on_c, 12, 53, 0
13, 90720, Note_on_c, 12, 48, 109
13, 90996, Note_on_c, 12, 48, 0
13, 91020, Note_on_c, 12, 48, 99
13, 91068, Note_on_c, 12, 48, 0
13, 91080, Note_on_c, 12, 48, 107
13, 91176, Note_on_c, 12, 48, 0
13, 91200, Note_on_c, 12, 36, 108
13, 91248, Note_on_c, 12, 36, 0
13, 91260, Note_on_c, 12, 40, 127
13, 91356, Note_on_c, 12, 40, 0
13, 91380, Note_on_c, 12, 43, 127
13, 91428, Note_on_c, 12, 43, 0
13, 91440, Note_on_c, 12, 46, 123
13, 91536, Note_on_c, 12, 46, 0
13, 91560, Note_on_c, 12, 48, 127
13, 91608, Note_on_c, 12, 48, 0
13, 91620, Note_on_c, 12, 52, 127
13, 91716, Note_on_c, 12, 52, 0
13, 91740, Note_on_c, 12, 55, 123
13, 91788, Note_on_c, 12, 55, 0
13, 91800, Note_on_c, 12, 58, 105
13, 91896, Note_on_c, 12, 58, 0
13, 91920, Note_on_c, 12, 55, 127
13, 91968, Note_on_c, 12, 55, 0
13, 91980, Note_on_c, 12, 52, 123
13, 92076, Note_on_c, 12, 52, 0
13, 92100, Note_on_c, 12, 48, 127
13, 92148, Note_on_c, 12, 48, 0
13, 92160, Note_on_c, 12, 46, 113
13, 92256, Note_on_c, 12, 46, 0
13, 92280, Note_on_c, 12, 43, 127
13, 92328, Note_on_c, 12, 43, 0
13, 92340, Note_on_c, 12, 40, 127
13, 92436, Note_on_c, 12, 40, 0
13, 92460, Note_on_c, 12, 36, 127
13, 92508, Note_on_c, 12, 36, 0
13, 92520, Note_on_c, 12, 41, 120
13, 92808, Note_on_c, 12, 41, 0
13, 92880, Note_on_c, 12, 41, 103
13, 93168, Note_on_c, 12, 41, 0
13, 93240, Note_on_c, 12, 41, 127
13, 93336, Note_on_c, 12, 41, 0
13, 94320, Note_on_c, 12, 41, 127
13, 94344, Note_on_c, 12, 41, 0
13, 94350, Note_on_c, 12, 43, 123
13, 94374, Note_on_c, 12, 43, 0
13, 94380, Note_on_c, 12, 45, 127
13, 94404, Note_on_c, 12, 45, 0
13, 94410, Note_on_c, 12, 46, 109
13, 94434, Note_on_c, 12, 46, 0
13, 94440, Note_on_c, 12, 48, 127
13, 94464, Note_on_c, 12, 48, 0
13, 94470, Note_on_c, 12, 47, 105
13, 94494, Note_on_c, 12, 47, 0
13, 94500, Note_on_c, 12, 50, 112
13, 94524, Note_on_c, 12, 50, 0
13, 94530, Note_on_c, 12, 48, 118
13, 94554, Note_on_c, 12, 48, 0
13, 94560, Note_on_c, 12, 46, 88
13, 94584, Note_on_c, 12, 46, 0
13, 94590, Note_on_c, 12, 45, 111
13, 94614, Note_on_c, 12, 45, 0
13, 94620, Note_on_c, 12, 43, 109
13, 94644, Note_on_c, 12, 43, 0
13, 94650, Note_on_c, 12, 41, 116
13, 94674, Note_on_c, 12, 41, 0
13, 94680, Note_on_c, 12, 41, 127
13, 94776, Note_on_c, 12, 41, 0
13, 94776, End_track
14, 0, Start_track
14, 0, MIDI_port, 0
14, 0, Title_t, "Pizz Strings"
14, 0, Program_c, 13, 45
14, 0, Control_c, 13, 7, 114
14, 41220, Note_on_c, 13, 55, 98
14, 41220, Note_on_c, 13, 64, 98
14, 41220, Note_on_c, 13, 70, 75
14, 41316, Note_on_c, 13, 70, 0
14, 41316, Note_on_c, 13, 64, 0
14, 41316, Note_on_c, 13, 55, 0
14, 41460, Note_on_c, 13, 55, 100
14, 41508, Note_on_c, 13, 55, 0
14, 41520, Note_on_c, 13, 58, 111
14, 41568, Note_on_c, 13, 58, 0
14, 41580, Note_on_c, 13, 64, 90
14, 41628, Note_on_c, 13, 64, 0
14, 41640, Note_on_c, 13, 67, 94
14, 41688, Note_on_c, 13, 67, 0
14, 41700, Note_on_c, 13, 70, 100
14, 41748, Note_on_c, 13, 70, 0
14, 41760, Note_on_c, 13, 69, 98
14, 41856, Note_on_c, 13, 69, 0
14, 41880, Note_on_c, 13, 69, 107
14, 41928, Note_on_c, 13, 69, 0
14, 41940, Note_on_c, 13, 69, 120
14, 41988, Note_on_c, 13, 69, 0
14, 42000, Note_on_c, 13, 65, 107
14, 42048, Note_on_c, 13, 65, 0
14, 42060, Note_on_c, 13, 72, 108
14, 42108, Note_on_c, 13, 72, 0
14, 42240, Note_on_c, 13, 69, 114
14, 42288, Note_on_c, 13, 69, 0
14, 42300, Note_on_c, 13, 69, 117
14, 42348, Note_on_c, 13, 69, 0
14, 42360, Note_on_c, 13, 60, 105
14, 42408, Note_on_c, 13, 60, 0
14, 42420, Note_on_c, 13, 65, 103
14, 42468, Note_on_c, 13, 65, 0
14, 42600, Note_on_c, 13, 69, 118
14, 42648, Note_on_c, 13, 69, 0
14, 42660, Note_on_c, 13, 69, 104
14, 42708, Note_on_c, 13, 69, 0
14, 42720, Note_on_c, 13, 65, 102
14, 42768, Note_on_c, 13, 65, 0
14, 42780, Note_on_c, 13, 72, 102
14, 42828, Note_on_c, 13, 72, 0
14, 42960, Note_on_c, 13, 70, 96
14, 43008, Note_on_c, 13, 70, 0
14, 43020, Note_on_c, 13, 70, 80
14, 43068, Note_on_c, 13, 70, 0
14, 43080, Note_on_c, 13, 65, 89
14, 43128, Note_on_c, 13, 65, 0
14, 43140, Note_on_c, 13, 70, 92
14, 43188, Note_on_c, 13, 70, 0
14, 43320, Note_on_c, 13, 70, 88
14, 43368, Note_on_c, 13, 70, 0
14, 43380, Note_on_c, 13, 70, 85
14, 43428, Note_on_c, 13, 70, 0
14, 43440, Note_on_c, 13, 67, 100
14, 43488, Note_on_c, 13, 67, 0
14, 43500, Note_on_c, 13, 72, 102
14, 43548, Note_on_c, 13, 72, 0
14, 43680, Note_on_c, 13, 69, 110
14, 43728, Note_on_c, 13, 69, 0
14, 43740, Note_on_c, 13, 69, 103
14, 43788, Note_on_c, 13, 69, 0
14, 43800, Note_on_c, 13, 65, 99
14, 43848, Note_on_c, 13, 65, 0
14, 43860, Note_on_c, 13, 72, 125
14, 43908, Note_on_c, 13, 72, 0
14, 44040, Note_on_c, 13, 67, 110
14, 44088, Note_on_c, 13, 67, 0
14, 44100, Note_on_c, 13, 67, 105
14, 44148, Note_on_c, 13, 67, 0
14, 44160, Note_on_c, 13, 60, 99
14, 44208, Note_on_c, 13, 60, 0
14, 44220, Note_on_c, 13, 72, 120
14, 44268, Note_on_c, 13, 72, 0
14, 44280, Note_on_c, 13, 69, 98
14, 44376, Note_on_c, 13, 69, 0
14, 44940, Note_on_c, 13, 69, 100
14, 44988, Note_on_c, 13, 69, 0
14, 45000, Note_on_c, 13, 69, 104
14, 45048, Note_on_c, 13, 69, 0
14, 45060, Note_on_c, 13, 65, 109
14, 45108, Note_on_c, 13, 65, 0
14, 45120, Note_on_c, 13, 72, 121
14, 45168, Note_on_c, 13, 72, 0
14, 45300, Note_on_c, 13, 65, 104
14, 45348, Note_on_c, 13, 65, 0
14, 45360, Note_on_c, 13, 65, 110
14, 45408, Note_on_c, 13, 65, 0
14, 45420, Note_on_c, 13, 60, 102
14, 45468, Note_on_c, 13, 60, 0
14, 45480, Note_on_c, 13, 69, 114
14, 45528, Note_on_c, 13, 69, 0
14, 45660, Note_on_c, 13, 65, 103
14, 45708, Note_on_c, 13, 65, 0
14, 45720, Note_on_c, 13, 65, 108
14, 45768, Note_on_c, 13, 65, 0
14, 45780, Note_on_c, 13, 62, 104
14, 45828, Note_on_c, 13, 62, 0
14, 45840, Note_on_c, 13, 70, 95
14, 45888, Note_on_c, 13, 70, 0
14, 46020, Note_on_c, 13, 58, 100
14, 46068, Note_on_c, 13, 58, 0
14, 46080, Note_on_c, 13, 55, 110
14, 46128, Note_on_c, 13, 55, 0
14, 46140, Note_on_c, 13, 48, 97
14, 46188, Note_on_c, 13, 48, 0
14, 46200, Note_on_c, 13, 60, 105
14, 46248, Note_on_c, 13, 60, 0
14, 46380, Note_on_c, 13, 67, 101
14, 46428, Note_on_c, 13, 67, 0
14, 46440, Note_on_c, 13, 69, 94
14, 46488, Note_on_c, 13, 69, 0
14, 46500, Note_on_c, 13, 65, 98
14, 46548, Note_on_c, 13, 65, 0
14, 46560, Note_on_c, 13, 72, 111
14, 46608, Note_on_c, 13, 72, 0
14, 46740, Note_on_c, 13, 60, 123
14, 46788, Note_on_c, 13, 60, 0
14, 46800, Note_on_c, 13, 62, 120
14, 46848, Note_on_c, 13, 62, 0
14, 46860, Note_on_c, 13, 58, 109
14, 46908, Note_on_c, 13, 58, 0
14, 46920, Note_on_c, 13, 67, 113
14, 46968, Note_on_c, 13, 67, 0
14, 46968, End_track
15, 0, Start_track
15, 0, MIDI_port, 0
15, 0, Title_t, "Pizz Strings"
15, 0, Program_c, 13, 45
15, 0, Control_c, 13, 7, 114
15, 3180, Note_on_c, 13, 53, 101
15, 3228, Note_on_c, 13, 53, 0
15, 3240, Note_on_c, 13, 53, 107
15, 3336, Note_on_c, 13, 53, 0
15, 3540, Note_on_c, 13, 53, 102
15, 3588, Note_on_c, 13, 53, 0
15, 3600, Note_on_c, 13, 53, 107
15, 3696, Note_on_c, 13, 53, 0
15, 3900, Note_on_c, 13, 53, 102
15, 3948, Note_on_c, 13, 53, 0
15, 3960, Note_on_c, 13, 50, 106
15, 4056, Note_on_c, 13, 50, 0
15, 4260, Note_on_c, 13, 52, 100
15, 4308, Note_on_c, 13, 52, 0
15, 4320, Note_on_c, 13, 52, 104
15, 4416, Note_on_c, 13, 52, 0
15, 4620, Note_on_c, 13, 48, 101
15, 4668, Note_on_c, 13, 48, 0
15, 4680, Note_on_c, 13, 53, 107
15, 4776, Note_on_c, 13, 53, 0
15, 4800, Note_on_c, 13, 53, 109
15, 4848, Note_on_c, 13, 53, 0
15, 4860, Note_on_c, 13, 50, 114
15, 4956, Note_on_c, 13, 50, 0
15, 4980, Note_on_c, 13, 45, 105
15, 5028, Note_on_c, 13, 45, 0
15, 5040, Note_on_c, 13, 46, 105
15, 5136, Note_on_c, 13, 46, 0
15, 5220, Note_on_c, 13, 48, 118
15, 5316, Note_on_c, 13, 48, 0
15, 5340, Note_on_c, 13, 36, 109
15, 5388, Note_on_c, 13, 36, 0
15, 5400, Note_on_c, 13, 41, 104
15, 5496, Note_on_c, 13, 41, 0
15, 5760, Note_on_c, 13, 53, 114
15, 5856, Note_on_c, 13, 53, 0
15, 5940, Note_on_c, 13, 57, 102
15, 5940, Note_on_c, 13, 65, 98
15, 6036, Note_on_c, 13, 65, 0
15, 6036, Note_on_c, 13, 57, 0
15, 6060, Note_on_c, 13, 53, 82
15, 6108, Note_on_c, 13, 53, 0
15, 6120, Note_on_c, 13, 53, 100
15, 6216, Note_on_c, 13, 53, 0
15, 6300, Note_on_c, 13, 65, 127
15, 6300, Note_on_c, 13, 57, 110
15, 6396, Note_on_c, 13, 57, 0
15, 6396, Note_on_c, 13, 65, 0
15, 6420, Note_on_c, 13, 53, 105
15, 6468, Note_on_c, 13, 53, 0
15, 6480, Note_on_c, 13, 53, 113
15, 6576, Note_on_c, 13, 53, 0
15, 6660, Note_on_c, 13, 65, 127
15, 6660, Note_on_c, 13, 57, 118
15, 6756, Note_on_c, 13, 57, 0
15, 6756, Note_on_c, 13, 65, 0
15, 6780, Note_on_c, 13, 53, 112
15, 6828, Note_on_c, 13, 53, 0
15, 6840, Note_on_c, 13, 50, 127
15, 6952, Note_on_c, 13, 50, 0
15, 7020, Note_on_c, 13, 62, 113
15, 7020, Note_on_c, 13, 58, 95
15, 7116, Note_on_c, 13, 58, 0
15, 7116, Note_on_c, 13, 62, 0
15, 7140, Note_on_c, 13, 52, 113
15, 7188, Note_on_c, 13, 52, 0
15, 7200, Note_on_c, 13, 52, 127
15, 7296, Note_on_c, 13, 52, 0
15, 7380, Note_on_c, 13, 60, 110
15, 7380, Note_on_c, 13, 52, 104
15, 7476, Note_on_c, 13, 52, 0
15, 7476, Note_on_c, 13, 60, 0
15, 7500, Note_on_c, 13, 48, 111
15, 7548, Note_on_c, 13, 48, 0
15, 7560, Note_on_c, 13, 53, 107
15, 7656, Note_on_c, 13, 53, 0
15, 7740, Note_on_c, 13, 50, 111
15, 7740, Note_on_c, 13, 53, 100
15, 7740, Note_on_c, 13, 57, 101
15, 7836, Note_on_c, 13, 57, 0
15, 7836, Note_on_c, 13, 53, 0
15, 7836, Note_on_c, 13, 50, 0
15, 7860, Note_on_c, 13, 45, 99
15, 7908, Note_on_c, 13, 45, 0
15, 7920, Note_on_c, 13, 46, 111
15, 8016, Note_on_c, 13, 46, 0
15, 8040, Note_on_c, 13, 55, 108
15, 8040, Note_on_c, 13, 53, 109
15, 8088, Note_on_c, 13, 53, 0
15, 8088, Note_on_c, 13, 55, 0
15, 8100, Note_on_c, 13, 48, 123
15, 8196, Note_on_c, 13, 48, 0
15, 8220, Note_on_c, 13, 60, 96
15, 8220, Note_on_c, 13, 48, 101
15, 8268, Note_on_c, 13, 48, 0
15, 8268, Note_on_c, 13, 60, 0
15, 8280, Note_on_c, 13, 53, 127
15, 8376, Note_on_c, 13, 53, 0
15, 22680, Note_on_c, 13, 41, 80
15, 22776, Note_on_c, 13, 41, 0
15, 22980, Note_on_c, 13, 53, 106
15, 23028, Note_on_c, 13, 53, 0
15, 23040, Note_on_c, 13, 53, 117
15, 23136, Note_on_c, 13, 53, 0
15, 23340, Note_on_c, 13, 53, 109
15, 23388, Note_on_c, 13, 53, 0
15, 23400, Note_on_c, 13, 53, 113
15, 23496, Note_on_c, 13, 53, 0
15, 23700, Note_on_c, 13, 53, 109
15, 23748, Note_on_c, 13, 53, 0
15, 23760, Note_on_c, 13, 50, 123
15, 23856, Note_on_c, 13, 50, 0
15, 24060, Note_on_c, 13, 52, 117
15, 24108, Note_on_c, 13, 52, 0
15, 24120, Note_on_c, 13, 52, 107
15, 24216, Note_on_c, 13, 52, 0
15, 24420, Note_on_c, 13, 48, 110
15, 24468, Note_on_c, 13, 48, 0
15, 24480, Note_on_c, 13, 53, 116
15, 24576, Note_on_c, 13, 53, 0
15, 24660, Note_on_c, 13, 50, 103
15, 24772, Note_on_c, 13, 50, 0
15, 24780, Note_on_c, 13, 45, 116
15, 24828, Note_on_c, 13, 45, 0
15, 24840, Note_on_c, 13, 46, 113
15, 24936, Note_on_c, 13, 46, 0
15, 25020, Note_on_c, 13, 48, 112
15, 25116, Note_on_c, 13, 48, 0
15, 25140, Note_on_c, 13, 36, 109
15, 25188, Note_on_c, 13, 36, 0
15, 25200, Note_on_c, 13, 41, 114
15, 25296, Note_on_c, 13, 41, 0
15, 25560, Note_on_c, 13, 53, 112
15, 25656, Note_on_c, 13, 53, 0
15, 25860, Note_on_c, 13, 53, 113
15, 25908, Note_on_c, 13, 53, 0
15, 25920, Note_on_c, 13, 53, 117
15, 26016, Note_on_c, 13, 53, 0
15, 26220, Note_on_c, 13, 53, 111
15, 26268, Note_on_c, 13, 53, 0
15, 26280, Note_on_c, 13, 53, 117
15, 26376, Note_on_c, 13, 53, 0
15, 26580, Note_on_c, 13, 53, 108
15, 26628, Note_on_c, 13, 53, 0
15, 26640, Note_on_c, 13, 53, 118
15, 26736, Note_on_c, 13, 53, 0
15, 34140, Note_on_c, 13, 44, 118
15, 34188, Note_on_c, 13, 44, 0
15, 34200, Note_on_c, 13, 45, 111
15, 34296, Note_on_c, 13, 45, 0
15, 34500, Note_on_c, 13, 45, 127
15, 34548, Note_on_c, 13, 45, 0
15, 34560, Note_on_c, 13, 46, 121
15, 34656, Note_on_c, 13, 46, 0
15, 34860, Note_on_c, 13, 46, 118
15, 34908, Note_on_c, 13, 46, 0
15, 34920, Note_on_c, 13, 47, 127
15, 35016, Note_on_c, 13, 47, 0
15, 42060, Note_on_c, 13, 53, 110
15, 42108, Note_on_c, 13, 53, 0
15, 42120, Note_on_c, 13, 53, 116
15, 42216, Note_on_c, 13, 53, 0
15, 42420, Note_on_c, 13, 53, 123
15, 42468, Note_on_c, 13, 53, 0
15, 42480, Note_on_c, 13, 53, 116
15, 42576, Note_on_c, 13, 53, 0
15, 42780, Note_on_c, 13, 53, 125
15, 42828, Note_on_c, 13, 53, 0
15, 42840, Note_on_c, 13, 50, 118
15, 42936, Note_on_c, 13, 50, 0
15, 43140, Note_on_c, 13, 52, 123
15, 43188, Note_on_c, 13, 52, 0
15, 43200, Note_on_c, 13, 52, 127
15, 43296, Note_on_c, 13, 52, 0
15, 43500, Note_on_c, 13, 48, 107
15, 43548, Note_on_c, 13, 48, 0
15, 43560, Note_on_c, 13, 53, 127
15, 43656, Note_on_c, 13, 53, 0
15, 43740, Note_on_c, 13, 50, 127
15, 43836, Note_on_c, 13, 50, 0
15, 43860, Note_on_c, 13, 45, 127
15, 43908, Note_on_c, 13, 45, 0
15, 43920, Note_on_c, 13, 46, 115
15, 44032, Note_on_c, 13, 46, 0
15, 44100, Note_on_c, 13, 48, 125
15, 44196, Note_on_c, 13, 48, 0
15, 44220, Note_on_c, 13, 36, 127
15, 44268, Note_on_c, 13, 36, 0
15, 44280, Note_on_c, 13, 41, 127
15, 44376, Note_on_c, 13, 41, 0
15, 44580, Note_on_c, 13, 53, 107
15, 44628, Note_on_c, 13, 53, 0
15, 44640, Note_on_c, 13, 53, 104
15, 44736, Note_on_c, 13, 53, 0
15, 44940, Note_on_c, 13, 53, 105
15, 44988, Note_on_c, 13, 53, 0
15, 45000, Note_on_c, 13, 53, 114
15, 45096, Note_on_c, 13, 53, 0
15, 45300, Note_on_c, 13, 53, 85
15, 45348, Note_on_c, 13, 53, 0
15, 45360, Note_on_c, 13, 53, 114
15, 45456, Note_on_c, 13, 53, 0
15, 45660, Note_on_c, 13, 53, 85
15, 45708, Note_on_c, 13, 53, 0
15, 45720, Note_on_c, 13, 53, 114
15, 45816, Note_on_c, 13, 53, 0
15, 46020, Note_on_c, 13, 52, 85
15, 46068, Note_on_c, 13, 52, 0
15, 46080, Note_on_c, 13, 52, 114
15, 46176, Note_on_c, 13, 52, 0
15, 46380, Note_on_c, 13, 48, 85
15, 46428, Note_on_c, 13, 48, 0
15, 46440, Note_on_c, 13, 53, 109
15, 46536, Note_on_c, 13, 53, 0
15, 46620, Note_on_c, 13, 50, 127
15, 46716, Note_on_c, 13, 50, 0
15, 46740, Note_on_c, 13, 45, 109
15, 46788, Note_on_c, 13, 45, 0
15, 46800, Note_on_c, 13, 46, 111
15, 46896, Note_on_c, 13, 46, 0
15, 46980, Note_on_c, 13, 48, 118
15, 47076, Note_on_c, 13, 48, 0
15, 47100, Note_on_c, 13, 48, 112
15, 47148, Note_on_c, 13, 48, 0
15, 47160, Note_on_c, 13, 53, 112
15, 47256, Note_on_c, 13, 53, 0
15, 65100, Note_on_c, 13, 48, 127
15, 65148, Note_on_c, 13, 48, 0
15, 65160, Note_on_c, 13, 53, 118
15, 65256, Note_on_c, 13, 53, 0
15, 65460, Note_on_c, 13, 53, 127
15, 65508, Note_on_c, 13, 53, 0
15, 65520, Note_on_c, 13, 50, 123
15, 65616, Note_on_c, 13, 50, 0
15, 65820, Note_on_c, 13, 50, 108
15, 65868, Note_on_c, 13, 50, 0
15, 65880, Note_on_c, 13, 43, 127
15, 65976, Note_on_c, 13, 43, 0
15, 66180, Note_on_c, 13, 43, 123
15, 66228, Note_on_c, 13, 43, 0
15, 66240, Note_on_c, 13, 48, 125
15, 66336, Note_on_c, 13, 48, 0
15, 75540, Note_on_c, 13, 48, 107
15, 75588, Note_on_c, 13, 48, 0
15, 75600, Note_on_c, 13, 53, 127
15, 75696, Note_on_c, 13, 53, 0
15, 75900, Note_on_c, 13, 50, 121
15, 75948, Note_on_c, 13, 50, 0
15, 75960, Note_on_c, 13, 50, 127
15, 76056, Note_on_c, 13, 50, 0
15, 76260, Note_on_c, 13, 50, 127
15, 76308, Note_on_c, 13, 50, 0
15, 76320, Note_on_c, 13, 55, 120
15, 76416, Note_on_c, 13, 55, 0
15, 76620, Note_on_c, 13, 55, 105
15, 76668, Note_on_c, 13, 55, 0
15, 76680, Note_on_c, 13, 48, 127
15, 76776, Note_on_c, 13, 48, 0
15, 76980, Note_on_c, 13, 48, 116
15, 77028, Note_on_c, 13, 48, 0
15, 77028, End_track
16, 0, Start_track
16, 0, MIDI_port, 0
16, 0, Title_t, "arranged by"
16, 0, End_track
17, 0, Start_track
17, 0, MIDI_port, 0
17, 0, Title_t, "Greg Breed"
17, 0, End_track
18, 0, Start_track
18, 0, MIDI_port, 0
18, 0, Title_t, "10/96"
18, 0, End_track
0, 0, End_of_file
