0, 0, Header, 1, 17, 480
1, 0, Start_track
1, 0, Time_signature, 2, 2, 24, 8
1, 0, Key_signature, 0, "major"
1, 0, SMPTE_offset, 104, 8, 24, 25, 15
1, 0, Tempo, 1200000
1, 2880, Tempo, 857142
1, 10080, Tempo, 1090909
1, 10560, Tempo, 857142
1, 17760, Tempo, 1090909
1, 18240, Tempo, 857142
1, 25680, Tempo, 1090909
1, 25920, Tempo, 857142
1, 138240, Tempo, 821917
1, 215040, Key_signature, 3, "major"
1, 238800, Tempo, 1200000
1, 239029, Tempo, 821917
1, 240720, Tempo, 1250000
1, 240949, Tempo, 857142
1, 242640, Tempo, 1200000
1, 242869, Tempo, 821917
1, 244800, Tempo, 857142
1, 265920, Tempo, 1000000
1, 265920, End_track
2, 0, Start_track
2, 0, Channel_prefix, 0
2, 0, Title_t, "Flute   "
2, 0, Instrument_name_t, "Flauti  "
2, 70080, Program_c, 0, 73
2, 70084, Control_c, 0, 7, 127
2, 70560, Note_on_c, 0, 80, 76
2, 71043, Note_on_c, 0, 80, 0
2, 71519, Note_on_c, 0, 81, 72
2, 71998, Note_on_c, 0, 76, 72
2, 71998, Note_on_c, 0, 88, 72
2, 71999, Note_on_c, 0, 81, 0
2, 72392, Note_on_c, 0, 88, 0
2, 72410, Note_on_c, 0, 76, 0
2, 72475, Note_on_c, 0, 88, 90
2, 72476, Note_on_c, 0, 76, 88
2, 72559, Note_on_c, 0, 88, 0
2, 72561, Note_on_c, 0, 76, 0
2, 72720, Note_on_c, 0, 88, 90
2, 72721, Note_on_c, 0, 76, 84
2, 72805, Note_on_c, 0, 88, 0
2, 72808, Note_on_c, 0, 76, 0
2, 72958, Note_on_c, 0, 88, 89
2, 72961, Note_on_c, 0, 76, 87
2, 73355, Note_on_c, 0, 88, 0
2, 73359, Note_on_c, 0, 76, 0
2, 73438, Note_on_c, 0, 76, 78
2, 73438, Note_on_c, 0, 88, 82
2, 73821, Note_on_c, 0, 88, 0
2, 73826, Note_on_c, 0, 76, 0
2, 73917, Note_on_c, 0, 76, 88
2, 73923, Note_on_c, 0, 88, 84
2, 74323, Note_on_c, 0, 76, 0
2, 74334, Note_on_c, 0, 88, 0
2, 74398, Note_on_c, 0, 76, 87
2, 74403, Note_on_c, 0, 88, 81
2, 74473, Note_on_c, 0, 76, 0
2, 74479, Note_on_c, 0, 88, 0
2, 74639, Note_on_c, 0, 76, 80
2, 74640, Note_on_c, 0, 88, 86
2, 74720, Note_on_c, 0, 76, 0
2, 74731, Note_on_c, 0, 88, 0
2, 74876, Note_on_c, 0, 76, 84
2, 74882, Note_on_c, 0, 88, 88
2, 75245, Note_on_c, 0, 88, 0
2, 75249, Note_on_c, 0, 76, 0
2, 75360, Note_on_c, 0, 76, 78
2, 75361, Note_on_c, 0, 88, 85
2, 75750, Note_on_c, 0, 88, 0
2, 75753, Note_on_c, 0, 76, 0
2, 75836, Note_on_c, 0, 76, 89
2, 75842, Note_on_c, 0, 88, 84
2, 76284, Note_on_c, 0, 76, 0
2, 76285, Note_on_c, 0, 88, 0
2, 76315, Note_on_c, 0, 88, 78
2, 76324, Note_on_c, 0, 76, 85
2, 76402, Note_on_c, 0, 88, 0
2, 76410, Note_on_c, 0, 76, 0
2, 76561, Note_on_c, 0, 90, 89
2, 76564, Note_on_c, 0, 78, 82
2, 76679, Note_on_c, 0, 90, 0
2, 76685, Note_on_c, 0, 78, 0
2, 76800, Note_on_c, 0, 91, 80
2, 76801, Note_on_c, 0, 79, 82
2, 77160, Note_on_c, 0, 79, 0
2, 77162, Note_on_c, 0, 91, 0
2, 77280, Note_on_c, 0, 91, 85
2, 77281, Note_on_c, 0, 79, 84
2, 77640, Note_on_c, 0, 91, 0
2, 77642, Note_on_c, 0, 79, 0
2, 77757, Note_on_c, 0, 79, 81
2, 77763, Note_on_c, 0, 91, 86
2, 78157, Note_on_c, 0, 79, 0
2, 78159, Note_on_c, 0, 91, 0
2, 78235, Note_on_c, 0, 79, 80
2, 78237, Note_on_c, 0, 91, 79
2, 78332, Note_on_c, 0, 79, 0
2, 78339, Note_on_c, 0, 91, 0
2, 78477, Note_on_c, 0, 79, 85
2, 78483, Note_on_c, 0, 91, 80
2, 78578, Note_on_c, 0, 91, 0
2, 78591, Note_on_c, 0, 79, 0
2, 78716, Note_on_c, 0, 91, 80
2, 78717, Note_on_c, 0, 79, 87
2, 79145, Note_on_c, 0, 91, 0
2, 79148, Note_on_c, 0, 79, 0
2, 79677, Note_on_c, 0, 79, 90
2, 80073, Note_on_c, 0, 79, 0
2, 80161, Note_on_c, 0, 79, 88
2, 80263, Note_on_c, 0, 79, 0
2, 80403, Note_on_c, 0, 81, 87
2, 80500, Note_on_c, 0, 81, 0
2, 80643, Note_on_c, 0, 83, 83
2, 81063, Note_on_c, 0, 83, 0
2, 81120, Note_on_c, 0, 83, 80
2, 81502, Note_on_c, 0, 83, 0
2, 81598, Note_on_c, 0, 78, 88
2, 81603, Note_on_c, 0, 90, 92
2, 82000, Note_on_c, 0, 78, 0
2, 82007, Note_on_c, 0, 90, 0
2, 82077, Note_on_c, 0, 90, 96
2, 82083, Note_on_c, 0, 78, 82
2, 82167, Note_on_c, 0, 90, 0
2, 82181, Note_on_c, 0, 78, 0
2, 82319, Note_on_c, 0, 80, 83
2, 82323, Note_on_c, 0, 92, 82
2, 82438, Note_on_c, 0, 80, 0
2, 82438, Note_on_c, 0, 92, 0
2, 82558, Note_on_c, 0, 81, 85
2, 82559, Note_on_c, 0, 93, 84
2, 82963, Note_on_c, 0, 81, 0
2, 82975, Note_on_c, 0, 93, 0
2, 83041, Note_on_c, 0, 81, 89
2, 83042, Note_on_c, 0, 93, 97
2, 83383, Note_on_c, 0, 93, 0
2, 83389, Note_on_c, 0, 81, 0
2, 83518, Note_on_c, 0, 88, 80
2, 83520, Note_on_c, 0, 76, 95
2, 83881, Note_on_c, 0, 88, 0
2, 83898, Note_on_c, 0, 76, 0
2, 83996, Note_on_c, 0, 88, 84
2, 83999, Note_on_c, 0, 76, 81
2, 84086, Note_on_c, 0, 88, 0
2, 84092, Note_on_c, 0, 76, 0
2, 84241, Note_on_c, 0, 88, 83
2, 84243, Note_on_c, 0, 76, 89
2, 84327, Note_on_c, 0, 88, 0
2, 84345, Note_on_c, 0, 76, 0
2, 84481, Note_on_c, 0, 88, 85
2, 84482, Note_on_c, 0, 76, 96
2, 84874, Note_on_c, 0, 88, 0
2, 84881, Note_on_c, 0, 76, 0
2, 84959, Note_on_c, 0, 88, 97
2, 84960, Note_on_c, 0, 76, 86
2, 85358, Note_on_c, 0, 76, 0
2, 85366, Note_on_c, 0, 88, 0
2, 85441, Note_on_c, 0, 76, 80
2, 85441, Note_on_c, 0, 88, 86
2, 85814, Note_on_c, 0, 76, 0
2, 85815, Note_on_c, 0, 88, 0
2, 85916, Note_on_c, 0, 78, 95
2, 85918, Note_on_c, 0, 90, 92
2, 86019, Note_on_c, 0, 78, 0
2, 86027, Note_on_c, 0, 90, 0
2, 86161, Note_on_c, 0, 80, 90
2, 86162, Note_on_c, 0, 92, 89
2, 86253, Note_on_c, 0, 80, 0
2, 86271, Note_on_c, 0, 92, 0
2, 86397, Note_on_c, 0, 93, 83
2, 86398, Note_on_c, 0, 81, 83
2, 86846, Note_on_c, 0, 93, 0
2, 86849, Note_on_c, 0, 81, 0
2, 89277, Note_on_c, 0, 90, 88
2, 89277, Control_c, 0, 7, 127
2, 89284, Note_on_c, 0, 78, 88
2, 89399, Control_c, 0, 7, 127
2, 89521, Control_c, 0, 7, 126
2, 89640, Control_c, 0, 7, 125
2, 89673, Note_on_c, 0, 78, 0
2, 89677, Note_on_c, 0, 90, 0
2, 89759, Note_on_c, 0, 90, 87
2, 89759, Control_c, 0, 7, 125
2, 89760, Note_on_c, 0, 78, 87
2, 89845, Note_on_c, 0, 78, 0
2, 89858, Note_on_c, 0, 90, 0
2, 89882, Control_c, 0, 7, 124
2, 90000, Note_on_c, 0, 80, 86
2, 90001, Note_on_c, 0, 92, 86
2, 90002, Control_c, 0, 7, 123
2, 90083, Note_on_c, 0, 80, 0
2, 90103, Note_on_c, 0, 92, 0
2, 90119, Control_c, 0, 7, 123
2, 90235, Control_c, 0, 7, 122
2, 90239, Note_on_c, 0, 93, 85
2, 90240, Note_on_c, 0, 81, 85
2, 90364, Control_c, 0, 7, 121
2, 90481, Control_c, 0, 7, 121
2, 90603, Control_c, 0, 7, 120
2, 90608, Note_on_c, 0, 81, 0
2, 90615, Note_on_c, 0, 93, 0
2, 90718, Control_c, 0, 7, 119
2, 90719, Note_on_c, 0, 81, 84
2, 90723, Note_on_c, 0, 93, 84
2, 90843, Control_c, 0, 7, 119
2, 90959, Control_c, 0, 7, 118
2, 91080, Note_on_c, 0, 93, 0
2, 91083, Control_c, 0, 7, 117
2, 91100, Note_on_c, 0, 81, 0
2, 91197, Control_c, 0, 7, 117
2, 91199, Note_on_c, 0, 88, 82
2, 91203, Note_on_c, 0, 76, 82
2, 91320, Control_c, 0, 7, 116
2, 91438, Control_c, 0, 7, 115
2, 91558, Control_c, 0, 7, 115
2, 91565, Note_on_c, 0, 88, 0
2, 91572, Note_on_c, 0, 76, 0
2, 91676, Note_on_c, 0, 76, 81
2, 91683, Note_on_c, 0, 88, 81
2, 91683, Control_c, 0, 7, 114
2, 91747, Note_on_c, 0, 88, 0
2, 91753, Note_on_c, 0, 76, 0
2, 91797, Control_c, 0, 7, 113
2, 91919, Control_c, 0, 7, 113
2, 91921, Note_on_c, 0, 76, 80
2, 91921, Note_on_c, 0, 88, 80
2, 92006, Note_on_c, 0, 76, 0
2, 92012, Note_on_c, 0, 88, 0
2, 92040, Control_c, 0, 7, 112
2, 92157, Control_c, 0, 7, 111
2, 92160, Note_on_c, 0, 76, 79
2, 92163, Note_on_c, 0, 88, 79
2, 92275, Control_c, 0, 7, 111
2, 92400, Control_c, 0, 7, 110
2, 92523, Control_c, 0, 7, 109
2, 92528, Note_on_c, 0, 88, 0
2, 92535, Note_on_c, 0, 76, 0
2, 92635, Control_c, 0, 7, 109
2, 92643, Note_on_c, 0, 88, 78
2, 92644, Note_on_c, 0, 76, 78
2, 92762, Control_c, 0, 7, 108
2, 92882, Control_c, 0, 7, 107
2, 93000, Control_c, 0, 7, 107
2, 93049, Note_on_c, 0, 88, 0
2, 93057, Note_on_c, 0, 76, 0
2, 93118, Control_c, 0, 7, 106
2, 93120, Note_on_c, 0, 88, 76
2, 93123, Note_on_c, 0, 76, 76
2, 93237, Control_c, 0, 7, 105
2, 93360, Control_c, 0, 7, 105
2, 93472, Note_on_c, 0, 76, 0
2, 93479, Note_on_c, 0, 88, 0
2, 93484, Control_c, 0, 7, 104
2, 93596, Control_c, 0, 7, 103
2, 93598, Note_on_c, 0, 90, 75
2, 93601, Note_on_c, 0, 78, 75
2, 93702, Note_on_c, 0, 78, 0
2, 93702, Note_on_c, 0, 90, 0
2, 93724, Control_c, 0, 7, 103
2, 93840, Note_on_c, 0, 92, 74
2, 93843, Note_on_c, 0, 80, 74
2, 93844, Control_c, 0, 7, 102
2, 93945, Note_on_c, 0, 92, 0
2, 93951, Note_on_c, 0, 80, 0
2, 93955, Control_c, 0, 7, 101
2, 94046, Control_c, 0, 7, 100
2, 94078, Note_on_c, 0, 81, 73
2, 94084, Note_on_c, 0, 93, 63
2, 94509, Note_on_c, 0, 81, 0
2, 94513, Note_on_c, 0, 93, 0
2, 105600, System_exclusive, 10, 65, 16, 66, 18, 64, 17, 52, 69, 54, 247
2, 106079, Note_on_c, 0, 88, 56
2, 106083, Note_on_c, 0, 91, 58
2, 107995, Note_on_c, 0, 86, 57
2, 108000, Note_on_c, 0, 90, 56
2, 108090, Note_on_c, 0, 88, 0
2, 108098, Note_on_c, 0, 91, 0
2, 108960, Note_on_c, 0, 88, 55
2, 108962, Note_on_c, 0, 85, 57
2, 109051, Note_on_c, 0, 86, 0
2, 109058, Note_on_c, 0, 90, 0
2, 109434, Note_on_c, 0, 83, 59
2, 109437, Note_on_c, 0, 86, 57
2, 109531, Note_on_c, 0, 88, 0
2, 109534, Note_on_c, 0, 85, 0
2, 109921, Note_on_c, 0, 81, 56
2, 109921, Note_on_c, 0, 85, 54
2, 110006, Note_on_c, 0, 86, 0
2, 110007, Note_on_c, 0, 83, 0
2, 110399, Note_on_c, 0, 80, 56
2, 110400, Note_on_c, 0, 83, 59
2, 110494, Note_on_c, 0, 85, 0
2, 110496, Note_on_c, 0, 81, 0
2, 110877, Note_on_c, 0, 78, 58
2, 110880, Note_on_c, 0, 87, 57
2, 110969, Note_on_c, 0, 83, 0
2, 110973, Note_on_c, 0, 80, 0
2, 111354, Note_on_c, 0, 88, 54
2, 111356, Note_on_c, 0, 76, 56
2, 111455, Note_on_c, 0, 78, 0
2, 111455, Note_on_c, 0, 87, 0
2, 111930, Note_on_c, 0, 76, 0
2, 111930, Note_on_c, 0, 88, 0
2, 129602, Note_on_c, 0, 88, 66
2, 130719, Note_on_c, 0, 89, 63
2, 130816, Note_on_c, 0, 88, 0
2, 130880, Note_on_c, 0, 88, 65
2, 130936, Note_on_c, 0, 89, 0
2, 131041, Note_on_c, 0, 91, 67
2, 131101, Note_on_c, 0, 88, 0
2, 131203, Note_on_c, 0, 89, 63
2, 131258, Note_on_c, 0, 91, 0
2, 131363, Note_on_c, 0, 81, 67
2, 131425, Note_on_c, 0, 89, 0
2, 131517, Note_on_c, 0, 81, 0
2, 131519, Note_on_c, 0, 84, 65
2, 132000, Note_on_c, 0, 88, 65
2, 132097, Note_on_c, 0, 84, 0
2, 132234, Note_on_c, 0, 86, 69
2, 132323, Note_on_c, 0, 88, 0
2, 132476, Note_on_c, 0, 84, 68
2, 132480, System_exclusive, 10, 65, 16, 66, 18, 64, 17, 52, 64, 59, 247
2, 132560, Note_on_c, 0, 86, 0
2, 133054, Note_on_c, 0, 84, 0
2, 133443, Note_on_c, 0, 89, 70
2, 134109, Note_on_c, 0, 89, 0
2, 134159, Note_on_c, 0, 89, 70
2, 134330, Note_on_c, 0, 89, 0
2, 134400, Note_on_c, 0, 89, 75
2, 134560, Note_on_c, 0, 88, 65
2, 134580, Note_on_c, 0, 89, 0
2, 134651, Note_on_c, 0, 88, 0
2, 134717, Note_on_c, 0, 86, 75
2, 134793, Note_on_c, 0, 86, 0
2, 134880, Note_on_c, 0, 84, 73
2, 134956, Note_on_c, 0, 84, 0
2, 135039, Note_on_c, 0, 83, 65
2, 135115, Note_on_c, 0, 83, 0
2, 135201, Note_on_c, 0, 81, 73
2, 135287, Note_on_c, 0, 81, 0
2, 135359, Note_on_c, 0, 79, 72
2, 135843, Note_on_c, 0, 81, 71
2, 135886, Note_on_c, 0, 79, 0
2, 136083, Note_on_c, 0, 83, 71
2, 136127, Note_on_c, 0, 81, 0
2, 136160, Note_on_c, 0, 83, 0
2, 136319, Note_on_c, 0, 84, 70
2, 136957, Note_on_c, 0, 86, 73
2, 137037, Note_on_c, 0, 84, 0
2, 137122, Note_on_c, 0, 88, 65
2, 137147, Note_on_c, 0, 86, 0
2, 137278, Note_on_c, 0, 89, 75
2, 137280, Control_c, 0, 7, 100
2, 137327, Note_on_c, 0, 88, 0
2, 137400, Control_c, 0, 7, 103
2, 137520, Control_c, 0, 7, 106
2, 137640, Control_c, 0, 7, 110
2, 137760, Control_c, 0, 7, 113
2, 137880, Control_c, 0, 7, 116
2, 137956, Note_on_c, 0, 89, 0
2, 138000, Control_c, 0, 7, 120
2, 138078, Note_on_c, 0, 89, 74
2, 138120, Control_c, 0, 7, 123
2, 138228, Note_on_c, 0, 89, 0
2, 138239, Note_on_c, 0, 89, 67
2, 138240, Control_c, 0, 7, 127
2, 138350, Note_on_c, 0, 89, 0
2, 138403, Note_on_c, 0, 88, 70
2, 138473, Note_on_c, 0, 88, 0
2, 138558, Note_on_c, 0, 86, 65
2, 138620, Note_on_c, 0, 86, 0
2, 138719, Note_on_c, 0, 84, 68
2, 138795, Note_on_c, 0, 84, 0
2, 138878, Note_on_c, 0, 83, 66
2, 138949, Note_on_c, 0, 83, 0
2, 139036, Note_on_c, 0, 81, 74
2, 139109, Note_on_c, 0, 81, 0
2, 139196, Note_on_c, 0, 79, 65
2, 139371, Note_on_c, 0, 79, 0
2, 143518, Note_on_c, 0, 88, 80
2, 143521, Note_on_c, 0, 76, 81
2, 143617, Note_on_c, 0, 88, 0
2, 143619, Note_on_c, 0, 76, 0
2, 143758, Note_on_c, 0, 76, 81
2, 143762, Note_on_c, 0, 88, 76
2, 143856, Note_on_c, 0, 76, 0
2, 143858, Note_on_c, 0, 88, 0
2, 144000, Control_c, 0, 7, 100
2, 144000, System_exclusive, 10, 65, 16, 66, 18, 64, 17, 52, 69, 54, 247
2, 144002, Note_on_c, 0, 84, 62
2, 144959, Note_on_c, 0, 83, 62
2, 144994, Note_on_c, 0, 84, 0
2, 145837, Note_on_c, 0, 83, 0
2, 145908, Note_on_c, 0, 83, 65
2, 145954, Note_on_c, 0, 84, 60
2, 145985, Note_on_c, 0, 83, 0
2, 146039, Note_on_c, 0, 86, 68
2, 146073, Note_on_c, 0, 84, 0
2, 146562, Note_on_c, 0, 84, 64
2, 146582, Note_on_c, 0, 86, 0
2, 146721, Note_on_c, 0, 83, 68
2, 146748, Note_on_c, 0, 84, 0
2, 146843, Note_on_c, 0, 83, 0
2, 146878, Note_on_c, 0, 83, 61
2, 147118, Note_on_c, 0, 84, 68
2, 147190, Note_on_c, 0, 83, 0
2, 147327, Note_on_c, 0, 84, 0
2, 147363, Note_on_c, 0, 84, 64
2, 147677, Note_on_c, 0, 84, 0
2, 147841, Note_on_c, 0, 84, 68
2, 148560, Note_on_c, 0, 86, 61
2, 148587, Note_on_c, 0, 84, 0
2, 148785, Note_on_c, 0, 86, 0
2, 148798, Note_on_c, 0, 87, 64
2, 149041, Note_on_c, 0, 88, 64
2, 149072, Note_on_c, 0, 87, 0
2, 149195, Note_on_c, 0, 88, 0
2, 149280, Note_on_c, 0, 88, 63
2, 149410, Note_on_c, 0, 88, 0
2, 149517, Note_on_c, 0, 88, 67
2, 149629, Note_on_c, 0, 88, 0
2, 149748, Note_on_c, 0, 86, 62
2, 149790, Note_on_c, 0, 88, 60
2, 149821, Note_on_c, 0, 86, 0
2, 149869, Note_on_c, 0, 89, 68
2, 149893, Note_on_c, 0, 88, 0
2, 150398, Note_on_c, 0, 88, 64
2, 150458, Note_on_c, 0, 89, 0
2, 150559, Note_on_c, 0, 86, 65
2, 150581, Note_on_c, 0, 88, 0
2, 150711, Note_on_c, 0, 86, 0
2, 150718, Note_on_c, 0, 86, 60
2, 150959, Note_on_c, 0, 88, 67
2, 150999, Note_on_c, 0, 86, 0
2, 151154, Note_on_c, 0, 88, 0
2, 151197, Note_on_c, 0, 88, 68
2, 151593, Note_on_c, 0, 88, 0
2, 151681, Note_on_c, 0, 88, 62
2, 152398, Note_on_c, 0, 90, 65
2, 152407, Note_on_c, 0, 88, 0
2, 152638, Note_on_c, 0, 88, 66
2, 152660, Note_on_c, 0, 90, 0
2, 153117, Note_on_c, 0, 87, 66
2, 153164, Note_on_c, 0, 88, 0
2, 153478, Note_on_c, 0, 87, 0
2, 153600, Note_on_c, 0, 86, 65
2, 154312, Note_on_c, 0, 86, 0
2, 154319, Note_on_c, 0, 88, 64
2, 154563, Note_on_c, 0, 86, 68
2, 154576, Note_on_c, 0, 88, 0
2, 154800, Note_on_c, 0, 85, 64
2, 154844, Note_on_c, 0, 86, 0
2, 155040, Note_on_c, 0, 84, 65
2, 155080, Note_on_c, 0, 85, 0
2, 155379, Note_on_c, 0, 84, 0
2, 155519, Note_on_c, 0, 84, 65
2, 156460, Note_on_c, 0, 84, 0
2, 156477, Note_on_c, 0, 83, 60
2, 156957, Note_on_c, 0, 84, 61
2, 157005, Note_on_c, 0, 83, 0
2, 157371, Note_on_c, 0, 84, 0
2, 157451, Note_on_c, 0, 83, 64
2, 157501, Note_on_c, 0, 84, 66
2, 157533, Note_on_c, 0, 83, 0
2, 157588, Note_on_c, 0, 86, 64
2, 157623, Note_on_c, 0, 84, 0
2, 158078, Note_on_c, 0, 84, 68
2, 158101, Note_on_c, 0, 86, 0
2, 158238, Note_on_c, 0, 83, 63
2, 158256, Note_on_c, 0, 84, 0
2, 158356, Note_on_c, 0, 83, 0
2, 158403, Note_on_c, 0, 81, 62
2, 158491, Note_on_c, 0, 81, 0
2, 158562, Note_on_c, 0, 81, 60
2, 158722, Note_on_c, 0, 83, 64
2, 158739, Note_on_c, 0, 81, 0
2, 158869, Note_on_c, 0, 83, 0
2, 158879, Note_on_c, 0, 84, 60
2, 158966, Note_on_c, 0, 84, 0
2, 159040, Note_on_c, 0, 84, 64
2, 159197, Note_on_c, 0, 86, 67
2, 159220, Note_on_c, 0, 84, 0
2, 159345, Note_on_c, 0, 86, 0
2, 159359, Note_on_c, 0, 88, 61
2, 160079, Note_on_c, 0, 90, 65
2, 160128, Note_on_c, 0, 88, 0
2, 160319, Note_on_c, 0, 88, 66
2, 160370, Note_on_c, 0, 90, 0
2, 160798, Note_on_c, 0, 87, 68
2, 160884, Note_on_c, 0, 88, 0
2, 161050, Note_on_c, 0, 87, 0
2, 161277, Note_on_c, 0, 86, 61
2, 161440, Note_on_c, 0, 83, 63
2, 161458, Note_on_c, 0, 86, 0
2, 161597, Note_on_c, 0, 85, 62
2, 161605, Note_on_c, 0, 83, 0
2, 161759, Note_on_c, 0, 86, 62
2, 161804, Note_on_c, 0, 85, 0
2, 161917, Note_on_c, 0, 88, 68
2, 161949, Note_on_c, 0, 86, 0
2, 162077, Note_on_c, 0, 86, 63
2, 162114, Note_on_c, 0, 88, 0
2, 162227, Note_on_c, 0, 86, 0
2, 162240, Note_on_c, 0, 86, 65
2, 162477, Note_on_c, 0, 85, 64
2, 162551, Note_on_c, 0, 86, 0
2, 162720, Note_on_c, 0, 84, 64
2, 162766, Note_on_c, 0, 85, 0
2, 163041, Note_on_c, 0, 84, 0
2, 163198, Note_on_c, 0, 84, 68
2, 164142, Note_on_c, 0, 84, 0
2, 164160, Note_on_c, 0, 83, 64
2, 164640, Note_on_c, 0, 84, 62
2, 164683, Note_on_c, 0, 83, 0
2, 165064, Note_on_c, 0, 84, 0
2, 165101, Note_on_c, 0, 83, 67
2, 165170, Note_on_c, 0, 84, 63
2, 165203, Note_on_c, 0, 83, 0
2, 165262, Note_on_c, 0, 86, 64
2, 165297, Note_on_c, 0, 84, 0
2, 165758, Note_on_c, 0, 84, 60
2, 165760, Note_on_c, 0, 86, 0
2, 165918, Note_on_c, 0, 83, 63
2, 165967, Note_on_c, 0, 84, 0
2, 166066, Note_on_c, 0, 83, 0
2, 166082, Note_on_c, 0, 81, 67
2, 166560, System_exclusive, 10, 65, 16, 66, 18, 64, 17, 52, 64, 59, 247
2, 166600, Note_on_c, 0, 81, 0
2, 167036, Note_on_c, 0, 81, 68
2, 167676, Note_on_c, 0, 83, 70
2, 167688, Note_on_c, 0, 81, 0
2, 167839, Note_on_c, 0, 85, 62
2, 167851, Note_on_c, 0, 83, 0
2, 167961, Note_on_c, 0, 85, 0
2, 167996, Note_on_c, 0, 85, 68
2, 168242, Note_on_c, 0, 86, 61
2, 168298, Note_on_c, 0, 85, 0
2, 168455, Note_on_c, 0, 86, 0
2, 168480, Note_on_c, 0, 86, 62
2, 168724, Note_on_c, 0, 86, 0
2, 168965, Note_on_c, 0, 86, 68
2, 169605, Note_on_c, 0, 88, 57
2, 169629, Note_on_c, 0, 86, 0
2, 169759, Note_on_c, 0, 89, 63
2, 169779, Note_on_c, 0, 88, 0
2, 169882, Note_on_c, 0, 89, 0
2, 169919, Note_on_c, 0, 89, 64
2, 170157, Note_on_c, 0, 88, 68
2, 170215, Note_on_c, 0, 89, 0
2, 170359, Note_on_c, 0, 88, 0
2, 170397, Note_on_c, 0, 88, 65
2, 170637, Note_on_c, 0, 88, 0
2, 170882, Note_on_c, 0, 81, 68
2, 171006, Note_on_c, 0, 81, 0
2, 171044, Note_on_c, 0, 81, 61
2, 171168, Note_on_c, 0, 81, 0
2, 171202, Note_on_c, 0, 81, 70
2, 171320, Note_on_c, 0, 81, 0
2, 171360, Note_on_c, 0, 81, 61
2, 171519, Note_on_c, 0, 83, 69
2, 171542, Note_on_c, 0, 81, 0
2, 171637, Note_on_c, 0, 83, 0
2, 171684, Note_on_c, 0, 85, 74
2, 171800, Note_on_c, 0, 85, 0
2, 171836, Note_on_c, 0, 85, 69
2, 171995, Note_on_c, 0, 86, 70
2, 172046, Note_on_c, 0, 85, 0
2, 172118, Note_on_c, 0, 86, 0
2, 172158, Note_on_c, 0, 86, 74
2, 172253, Note_on_c, 0, 86, 0
2, 172325, Note_on_c, 0, 86, 71
2, 172556, Note_on_c, 0, 86, 0
2, 172800, Note_on_c, 0, 86, 72
2, 172916, Note_on_c, 0, 86, 0
2, 172958, Note_on_c, 0, 86, 79
2, 173081, Note_on_c, 0, 86, 0
2, 173117, Note_on_c, 0, 86, 75
2, 173236, Note_on_c, 0, 86, 0
2, 173278, Note_on_c, 0, 86, 77
2, 173435, Note_on_c, 0, 88, 73
2, 173461, Note_on_c, 0, 86, 0
2, 173553, Note_on_c, 0, 88, 0
2, 173598, Note_on_c, 0, 89, 80
2, 173711, Note_on_c, 0, 89, 0
2, 173761, Note_on_c, 0, 89, 76
2, 173914, Note_on_c, 0, 88, 78
2, 173977, Note_on_c, 0, 89, 0
2, 174033, Note_on_c, 0, 88, 0
2, 174073, Note_on_c, 0, 88, 69
2, 174193, Note_on_c, 0, 88, 0
2, 174722, Note_on_c, 0, 88, 70
2, 174885, Note_on_c, 0, 89, 64
2, 174936, Note_on_c, 0, 88, 0
2, 175002, Note_on_c, 0, 89, 0
2, 175040, Note_on_c, 0, 89, 61
2, 175158, Note_on_c, 0, 89, 0
2, 175683, Note_on_c, 0, 89, 49
2, 175844, Note_on_c, 0, 88, 50
2, 175899, Note_on_c, 0, 89, 0
2, 175966, Note_on_c, 0, 88, 0
2, 175994, Note_on_c, 0, 88, 49
2, 176113, Note_on_c, 0, 88, 0
2, 201600, Note_on_c, 0, 80, 50
2, 202049, Note_on_c, 0, 80, 0
2, 202080, Note_on_c, 0, 80, 57
2, 202197, Note_on_c, 0, 80, 0
2, 202320, Note_on_c, 0, 81, 61
2, 202436, Note_on_c, 0, 81, 0
2, 202560, Note_on_c, 0, 83, 65
2, 203011, Note_on_c, 0, 83, 0
2, 203040, Note_on_c, 0, 83, 72
2, 203159, Note_on_c, 0, 83, 0
2, 203280, Note_on_c, 0, 84, 76
2, 203399, Note_on_c, 0, 84, 0
2, 203520, Note_on_c, 0, 86, 80
2, 203969, Note_on_c, 0, 86, 0
2, 204000, Note_on_c, 0, 86, 87
2, 204123, Note_on_c, 0, 86, 0
2, 204240, Note_on_c, 0, 88, 91
2, 204356, Note_on_c, 0, 88, 0
2, 204480, Note_on_c, 0, 89, 95
2, 204693, Note_on_c, 0, 89, 0
2, 204720, Note_on_c, 0, 88, 98
2, 204781, Note_on_c, 0, 88, 0
2, 204840, Note_on_c, 0, 87, 100
2, 204902, Note_on_c, 0, 87, 0
2, 204960, Note_on_c, 0, 88, 102
2, 205025, Note_on_c, 0, 88, 0
2, 205080, Note_on_c, 0, 76, 104
2, 205139, Note_on_c, 0, 76, 0
2, 205200, Note_on_c, 0, 78, 106
2, 205264, Note_on_c, 0, 78, 0
2, 205320, Note_on_c, 0, 80, 108
2, 205381, Note_on_c, 0, 80, 0
2, 205440, Note_on_c, 0, 81, 110
2, 205501, Note_on_c, 0, 81, 0
2, 205560, Note_on_c, 0, 83, 110
2, 205618, Note_on_c, 0, 83, 0
2, 205680, Note_on_c, 0, 84, 110
2, 205744, Note_on_c, 0, 84, 0
2, 205800, Note_on_c, 0, 83, 110
2, 205865, Note_on_c, 0, 83, 0
2, 205920, Note_on_c, 0, 81, 110
2, 205977, Note_on_c, 0, 81, 0
2, 206040, Note_on_c, 0, 84, 110
2, 206104, Note_on_c, 0, 84, 0
2, 206160, Note_on_c, 0, 83, 110
2, 206223, Note_on_c, 0, 83, 0
2, 206280, Note_on_c, 0, 81, 110
2, 206344, Note_on_c, 0, 81, 0
2, 206400, Note_on_c, 0, 76, 110
2, 206460, Note_on_c, 0, 76, 0
2, 206518, Note_on_c, 0, 78, 110
2, 206577, Note_on_c, 0, 78, 0
2, 206640, Note_on_c, 0, 80, 110
2, 206709, Note_on_c, 0, 80, 0
2, 206761, Note_on_c, 0, 81, 110
2, 206820, Note_on_c, 0, 81, 0
2, 206883, Note_on_c, 0, 83, 110
2, 206942, Note_on_c, 0, 83, 0
2, 206998, Note_on_c, 0, 84, 110
2, 207059, Note_on_c, 0, 84, 0
2, 207121, Note_on_c, 0, 86, 110
2, 207184, Note_on_c, 0, 86, 0
2, 207241, Note_on_c, 0, 88, 110
2, 207302, Note_on_c, 0, 88, 0
2, 207361, Note_on_c, 0, 86, 110
2, 207421, Note_on_c, 0, 86, 0
2, 207480, Note_on_c, 0, 83, 110
2, 207535, Note_on_c, 0, 83, 0
2, 207598, Note_on_c, 0, 84, 110
2, 207665, Note_on_c, 0, 84, 0
2, 207720, Note_on_c, 0, 86, 110
2, 207786, Note_on_c, 0, 86, 0
2, 207839, Note_on_c, 0, 88, 110
2, 207900, Note_on_c, 0, 88, 0
2, 207962, Note_on_c, 0, 86, 110
2, 208025, Note_on_c, 0, 86, 0
2, 208079, Note_on_c, 0, 84, 110
2, 208148, Note_on_c, 0, 84, 0
2, 208197, Note_on_c, 0, 83, 110
2, 208263, Note_on_c, 0, 83, 0
2, 208317, Note_on_c, 0, 84, 110
2, 208383, Note_on_c, 0, 84, 0
2, 208440, Note_on_c, 0, 83, 110
2, 208498, Note_on_c, 0, 83, 0
2, 208560, Note_on_c, 0, 84, 110
2, 208628, Note_on_c, 0, 84, 0
2, 208678, Note_on_c, 0, 86, 110
2, 208738, Note_on_c, 0, 86, 0
2, 208803, Note_on_c, 0, 88, 110
2, 208861, Note_on_c, 0, 88, 0
2, 208920, Note_on_c, 0, 76, 110
2, 208984, Note_on_c, 0, 76, 0
2, 209041, Note_on_c, 0, 78, 110
2, 209104, Note_on_c, 0, 78, 0
2, 209163, Note_on_c, 0, 80, 110
2, 209226, Note_on_c, 0, 80, 0
2, 209280, Note_on_c, 0, 81, 110
2, 209344, Note_on_c, 0, 81, 0
2, 209397, Note_on_c, 0, 83, 110
2, 209458, Note_on_c, 0, 83, 0
2, 209517, Note_on_c, 0, 84, 110
2, 209582, Note_on_c, 0, 84, 0
2, 209640, Note_on_c, 0, 83, 110
2, 209704, Note_on_c, 0, 83, 0
2, 209762, Note_on_c, 0, 81, 110
2, 209822, Note_on_c, 0, 81, 0
2, 209877, Note_on_c, 0, 84, 110
2, 209939, Note_on_c, 0, 84, 0
2, 209997, Note_on_c, 0, 83, 110
2, 210064, Note_on_c, 0, 83, 0
2, 210118, Note_on_c, 0, 81, 110
2, 210180, Note_on_c, 0, 81, 0
2, 210240, Note_on_c, 0, 76, 110
2, 210305, Note_on_c, 0, 76, 0
2, 210362, Note_on_c, 0, 78, 110
2, 210422, Note_on_c, 0, 78, 0
2, 210478, Note_on_c, 0, 80, 110
2, 210543, Note_on_c, 0, 80, 0
2, 210600, Note_on_c, 0, 81, 110
2, 210663, Note_on_c, 0, 81, 0
2, 210722, Note_on_c, 0, 83, 110
2, 210784, Note_on_c, 0, 83, 0
2, 210838, Note_on_c, 0, 84, 110
2, 210903, Note_on_c, 0, 84, 0
2, 210962, Note_on_c, 0, 86, 110
2, 211028, Note_on_c, 0, 86, 0
2, 211083, Note_on_c, 0, 88, 110
2, 211145, Note_on_c, 0, 88, 0
2, 211201, Note_on_c, 0, 86, 110
2, 211264, Note_on_c, 0, 86, 0
2, 211322, Note_on_c, 0, 83, 110
2, 211382, Note_on_c, 0, 83, 0
2, 211438, Note_on_c, 0, 84, 110
2, 211503, Note_on_c, 0, 84, 0
2, 211562, Note_on_c, 0, 86, 110
2, 211626, Note_on_c, 0, 86, 0
2, 211680, Note_on_c, 0, 88, 110
2, 211741, Note_on_c, 0, 88, 0
2, 211802, Note_on_c, 0, 86, 110
2, 211864, Note_on_c, 0, 86, 0
2, 211917, Note_on_c, 0, 84, 110
2, 211980, Note_on_c, 0, 84, 0
2, 212040, Note_on_c, 0, 83, 110
2, 212105, Note_on_c, 0, 83, 0
2, 212159, Note_on_c, 0, 81, 110
2, 212611, Note_on_c, 0, 81, 0
2, 223680, System_exclusive, 10, 65, 16, 66, 18, 64, 17, 52, 69, 54, 247
2, 224160, Note_on_c, 0, 88, 53
2, 224162, Note_on_c, 0, 91, 45
2, 226078, Note_on_c, 0, 86, 46
2, 226081, Note_on_c, 0, 90, 53
2, 226263, Note_on_c, 0, 88, 0
2, 226264, Note_on_c, 0, 91, 0
2, 227040, Note_on_c, 0, 88, 54
2, 227041, Note_on_c, 0, 85, 44
2, 227197, Note_on_c, 0, 86, 0
2, 227200, Note_on_c, 0, 90, 0
2, 227518, Note_on_c, 0, 86, 45
2, 227520, Note_on_c, 0, 78, 49
2, 227613, Note_on_c, 0, 88, 0
2, 227616, Note_on_c, 0, 85, 0
2, 227998, Note_on_c, 0, 85, 54
2, 227999, Note_on_c, 0, 76, 48
2, 228084, Note_on_c, 0, 86, 0
2, 228094, Note_on_c, 0, 78, 0
2, 228479, Note_on_c, 0, 78, 49
2, 228481, Note_on_c, 0, 86, 51
2, 228570, Note_on_c, 0, 85, 0
2, 228571, Note_on_c, 0, 76, 0
2, 228960, Note_on_c, 0, 80, 50
2, 228962, Note_on_c, 0, 88, 45
2, 229050, Note_on_c, 0, 78, 0
2, 229051, Note_on_c, 0, 86, 0
2, 229438, Note_on_c, 0, 85, 45
2, 229440, Note_on_c, 0, 81, 54
2, 229536, Note_on_c, 0, 80, 0
2, 229540, Note_on_c, 0, 88, 0
2, 230399, Note_on_c, 0, 86, 52
2, 230401, Note_on_c, 0, 78, 45
2, 230406, Note_on_c, 0, 81, 0
2, 230406, Note_on_c, 0, 85, 0
2, 230878, Note_on_c, 0, 88, 48
2, 230880, Note_on_c, 0, 80, 46
2, 230905, Note_on_c, 0, 86, 0
2, 230906, Note_on_c, 0, 78, 0
2, 231359, Note_on_c, 0, 81, 44
2, 231360, Note_on_c, 0, 85, 47
2, 231384, Note_on_c, 0, 80, 0
2, 231385, Note_on_c, 0, 88, 0
2, 232282, Note_on_c, 0, 81, 0
2, 232285, Note_on_c, 0, 85, 0
2, 232320, Note_on_c, 0, 86, 39
2, 232321, Note_on_c, 0, 78, 46
2, 232799, Note_on_c, 0, 80, 43
2, 232799, Note_on_c, 0, 88, 46
2, 232824, Note_on_c, 0, 78, 0
2, 232825, Note_on_c, 0, 86, 0
2, 233274, System_exclusive, 10, 65, 16, 66, 18, 64, 17, 52, 64, 59, 247
2, 233281, Note_on_c, 0, 81, 38
2, 233302, Note_on_c, 0, 80, 0
2, 233306, Note_on_c, 0, 88, 0
2, 233729, Note_on_c, 0, 81, 0
2, 233761, Note_on_c, 0, 81, 43
2, 233876, Note_on_c, 0, 81, 0
2, 233998, Note_on_c, 0, 81, 45
2, 234115, Note_on_c, 0, 81, 0
2, 234240, Note_on_c, 0, 81, 42
2, 234704, Note_on_c, 0, 81, 0
2, 234718, Note_on_c, 0, 81, 36
2, 235160, Note_on_c, 0, 81, 0
2, 235201, Note_on_c, 0, 81, 41
2, 235646, Note_on_c, 0, 81, 0
2, 235682, Note_on_c, 0, 81, 44
2, 235797, Note_on_c, 0, 81, 0
2, 235920, Note_on_c, 0, 81, 42
2, 236032, Note_on_c, 0, 81, 0
2, 236160, Note_on_c, 0, 81, 38
2, 236622, Note_on_c, 0, 81, 0
2, 236639, Note_on_c, 0, 81, 40
2, 237081, Note_on_c, 0, 81, 0
2, 237120, Note_on_c, 0, 74, 80
2, 237122, Note_on_c, 0, 83, 81
2, 237564, Note_on_c, 0, 74, 0
2, 237569, Note_on_c, 0, 83, 0
2, 237598, Note_on_c, 0, 81, 82
2, 237599, Note_on_c, 0, 72, 82
2, 237714, Note_on_c, 0, 72, 0
2, 237715, Note_on_c, 0, 81, 0
2, 237838, Note_on_c, 0, 83, 75
2, 237840, Note_on_c, 0, 74, 75
2, 237952, Note_on_c, 0, 83, 0
2, 237957, Note_on_c, 0, 74, 0
2, 238078, Note_on_c, 0, 76, 80
2, 238079, Note_on_c, 0, 84, 77
2, 238372, Note_on_c, 0, 84, 0
2, 238373, Note_on_c, 0, 76, 0
2, 240962, Note_on_c, 0, 83, 63
2, 240963, Note_on_c, 0, 74, 63
2, 241404, Note_on_c, 0, 83, 0
2, 241405, Note_on_c, 0, 74, 0
2, 241438, Note_on_c, 0, 72, 57
2, 241442, Note_on_c, 0, 81, 65
2, 241553, Note_on_c, 0, 72, 0
2, 241557, Note_on_c, 0, 81, 0
2, 241679, Note_on_c, 0, 74, 67
2, 241680, Note_on_c, 0, 83, 67
2, 241790, Note_on_c, 0, 74, 0
2, 241794, Note_on_c, 0, 83, 0
2, 241921, Note_on_c, 0, 76, 62
2, 241921, Note_on_c, 0, 84, 64
2, 242212, Note_on_c, 0, 84, 0
2, 242217, Note_on_c, 0, 76, 0
2, 243843, Note_on_c, 0, 83, 64
2, 244290, Note_on_c, 0, 83, 0
2, 244323, Note_on_c, 0, 81, 63
2, 244434, Note_on_c, 0, 81, 0
2, 244559, Note_on_c, 0, 83, 60
2, 244561, Note_on_c, 0, 88, 64
2, 244671, Note_on_c, 0, 83, 0
2, 244677, Note_on_c, 0, 88, 0
2, 244801, Note_on_c, 0, 88, 50
2, 244803, Note_on_c, 0, 84, 49
2, 245244, Note_on_c, 0, 88, 0
2, 245247, Note_on_c, 0, 84, 0
2, 245278, Note_on_c, 0, 88, 45
2, 245280, Note_on_c, 0, 84, 45
2, 245393, Note_on_c, 0, 88, 0
2, 245394, Note_on_c, 0, 84, 0
2, 245520, Note_on_c, 0, 88, 45
2, 245523, Note_on_c, 0, 84, 40
2, 245634, Note_on_c, 0, 88, 0
2, 245637, Note_on_c, 0, 84, 0
2, 245756, Note_on_c, 0, 83, 45
2, 245756, Note_on_c, 0, 88, 45
2, 246198, Note_on_c, 0, 83, 0
2, 246203, Note_on_c, 0, 88, 0
2, 246239, Note_on_c, 0, 88, 43
2, 246240, Note_on_c, 0, 83, 45
2, 246681, Note_on_c, 0, 83, 0
2, 246681, Note_on_c, 0, 88, 0
2, 252476, Note_on_c, 0, 88, 50
2, 252919, Note_on_c, 0, 88, 0
2, 252961, Note_on_c, 0, 88, 48
2, 253076, Note_on_c, 0, 88, 0
2, 253197, Note_on_c, 0, 88, 49
2, 253309, Note_on_c, 0, 88, 0
2, 253443, Note_on_c, 0, 87, 45
2, 253887, Note_on_c, 0, 87, 0
2, 253921, Note_on_c, 0, 86, 44
2, 254364, Note_on_c, 0, 86, 0
2, 254364, End_track
3, 0, Start_track
3, 0, Channel_prefix, 1
3, 0, Title_t, "Oboe    "
3, 0, Instrument_name_t, "Oboi    "
3, 957, Control_c, 1, 99, 1
3, 958, Control_c, 1, 98, 9
3, 959, Control_c, 1, 6, 14
3, 960, Program_c, 1, 70
3, 960, System_exclusive, 10, 65, 16, 66, 18, 64, 18, 52, 74, 48, 247
3, 961, Note_on_c, 1, 72, 97
3, 963, Note_on_c, 1, 76, 90
3, 1080, Control_c, 1, 7, 97
3, 1200, Control_c, 1, 7, 93
3, 1320, Control_c, 1, 7, 90
3, 1440, Control_c, 1, 7, 86
3, 1560, Control_c, 1, 7, 83
3, 1680, Control_c, 1, 7, 79
3, 1800, Control_c, 1, 7, 76
3, 1920, Control_c, 1, 7, 72
3, 2040, Control_c, 1, 7, 69
3, 2160, Control_c, 1, 7, 65
3, 2280, Control_c, 1, 7, 62
3, 2400, Control_c, 1, 7, 58
3, 2520, Control_c, 1, 7, 55
3, 2640, Control_c, 1, 7, 51
3, 2760, Control_c, 1, 7, 48
3, 2880, Control_c, 1, 7, 44
3, 3000, Control_c, 1, 7, 41
3, 3120, Control_c, 1, 7, 37
3, 3240, Control_c, 1, 7, 34
3, 3360, Control_c, 1, 7, 30
3, 3364, Note_on_c, 1, 72, 0
3, 3367, Note_on_c, 1, 76, 0
3, 3810, System_exclusive, 10, 65, 16, 66, 18, 64, 18, 52, 64, 58, 247
3, 64322, Control_c, 1, 7, 127
3, 64800, Note_on_c, 1, 79, 87
3, 64804, Note_on_c, 1, 76, 84
3, 65277, Note_on_c, 1, 79, 0
3, 65287, Note_on_c, 1, 76, 0
3, 65757, Note_on_c, 1, 75, 86
3, 65759, Note_on_c, 1, 83, 89
3, 66234, Note_on_c, 1, 75, 0
3, 66242, Note_on_c, 1, 83, 0
3, 66719, Note_on_c, 1, 78, 84
3, 66724, Note_on_c, 1, 74, 82
3, 67200, Note_on_c, 1, 78, 0
3, 67207, Note_on_c, 1, 74, 0
3, 67678, Note_on_c, 1, 81, 85
3, 67683, Note_on_c, 1, 72, 87
3, 68159, Note_on_c, 1, 72, 0
3, 68161, Note_on_c, 1, 81, 0
3, 68640, Note_on_c, 1, 76, 86
3, 68641, Note_on_c, 1, 72, 82
3, 69120, Note_on_c, 1, 76, 0
3, 69121, Note_on_c, 1, 72, 0
3, 69595, Note_on_c, 1, 72, 82
3, 69599, Note_on_c, 1, 76, 87
3, 70074, Note_on_c, 1, 72, 0
3, 70080, Note_on_c, 1, 76, 0
3, 70557, Note_on_c, 1, 76, 85
3, 70563, Note_on_c, 1, 71, 83
3, 71037, Note_on_c, 1, 76, 0
3, 71042, Note_on_c, 1, 71, 0
3, 71519, Note_on_c, 1, 72, 85
3, 71520, Note_on_c, 1, 76, 86
3, 71999, Note_on_c, 1, 76, 0
3, 72001, Note_on_c, 1, 76, 85
3, 72004, Note_on_c, 1, 72, 0
3, 72343, Note_on_c, 1, 76, 0
3, 72475, Note_on_c, 1, 76, 84
3, 72577, Note_on_c, 1, 76, 0
3, 72719, Note_on_c, 1, 76, 84
3, 72828, Note_on_c, 1, 76, 0
3, 72956, Note_on_c, 1, 76, 82
3, 73326, Note_on_c, 1, 76, 0
3, 73435, Note_on_c, 1, 76, 88
3, 73823, Note_on_c, 1, 76, 0
3, 73916, Note_on_c, 1, 76, 81
3, 74328, Note_on_c, 1, 76, 0
3, 74401, Note_on_c, 1, 76, 84
3, 74500, Note_on_c, 1, 76, 0
3, 74640, Note_on_c, 1, 76, 88
3, 74755, Note_on_c, 1, 76, 0
3, 74883, Note_on_c, 1, 76, 82
3, 75281, Note_on_c, 1, 76, 0
3, 75362, Note_on_c, 1, 76, 78
3, 75712, Note_on_c, 1, 76, 0
3, 75843, Note_on_c, 1, 76, 85
3, 76279, Note_on_c, 1, 76, 0
3, 76324, Note_on_c, 1, 76, 89
3, 76430, Note_on_c, 1, 76, 0
3, 76560, Note_on_c, 1, 78, 78
3, 76651, Note_on_c, 1, 78, 0
3, 76798, Note_on_c, 1, 79, 81
3, 77170, Note_on_c, 1, 79, 0
3, 77277, Note_on_c, 1, 79, 78
3, 77651, Note_on_c, 1, 79, 0
3, 77758, Note_on_c, 1, 79, 85
3, 78154, Note_on_c, 1, 79, 0
3, 78238, Note_on_c, 1, 79, 78
3, 78323, Note_on_c, 1, 79, 0
3, 78476, Note_on_c, 1, 79, 79
3, 78572, Note_on_c, 1, 79, 0
3, 78718, Note_on_c, 1, 79, 79
3, 79185, Note_on_c, 1, 79, 0
3, 79677, Note_on_c, 1, 67, 84
3, 79678, Note_on_c, 1, 79, 79
3, 80134, Note_on_c, 1, 67, 0
3, 80137, Note_on_c, 1, 79, 0
3, 80158, Note_on_c, 1, 67, 82
3, 80162, Note_on_c, 1, 79, 84
3, 80235, Note_on_c, 1, 67, 0
3, 80239, Note_on_c, 1, 79, 0
3, 80396, Note_on_c, 1, 69, 86
3, 80396, Note_on_c, 1, 81, 79
3, 80477, Note_on_c, 1, 81, 0
3, 80478, Note_on_c, 1, 69, 0
3, 80638, Note_on_c, 1, 83, 95
3, 80641, Note_on_c, 1, 71, 89
3, 81034, Note_on_c, 1, 83, 0
3, 81047, Note_on_c, 1, 71, 0
3, 81116, Note_on_c, 1, 83, 85
3, 81119, Note_on_c, 1, 71, 95
3, 81443, Note_on_c, 1, 83, 0
3, 81460, Note_on_c, 1, 71, 0
3, 81599, Note_on_c, 1, 66, 84
3, 81603, Note_on_c, 1, 78, 79
3, 81991, Note_on_c, 1, 78, 0
3, 82004, Note_on_c, 1, 66, 0
3, 82077, Note_on_c, 1, 78, 81
3, 82078, Note_on_c, 1, 66, 84
3, 82162, Note_on_c, 1, 78, 0
3, 82163, Note_on_c, 1, 66, 0
3, 82318, Note_on_c, 1, 68, 81
3, 82323, Note_on_c, 1, 80, 87
3, 82410, Note_on_c, 1, 68, 0
3, 82425, Note_on_c, 1, 80, 0
3, 82557, Note_on_c, 1, 69, 88
3, 82558, Note_on_c, 1, 81, 87
3, 82928, Note_on_c, 1, 69, 0
3, 82934, Note_on_c, 1, 81, 0
3, 83042, Note_on_c, 1, 69, 82
3, 83042, Note_on_c, 1, 81, 82
3, 83412, Note_on_c, 1, 69, 0
3, 83450, Note_on_c, 1, 81, 0
3, 83521, Note_on_c, 1, 76, 81
3, 83894, Note_on_c, 1, 76, 0
3, 84000, Note_on_c, 1, 76, 88
3, 84096, Note_on_c, 1, 76, 0
3, 84243, Note_on_c, 1, 76, 88
3, 84361, Note_on_c, 1, 76, 0
3, 84477, Note_on_c, 1, 76, 79
3, 84849, Note_on_c, 1, 76, 0
3, 84961, Note_on_c, 1, 76, 89
3, 85364, Note_on_c, 1, 76, 0
3, 85439, Note_on_c, 1, 76, 90
3, 85817, Note_on_c, 1, 76, 0
3, 85918, Note_on_c, 1, 78, 87
3, 85997, Note_on_c, 1, 78, 0
3, 86159, Note_on_c, 1, 80, 86
3, 86235, Note_on_c, 1, 80, 0
3, 86400, Note_on_c, 1, 81, 81
3, 86867, Note_on_c, 1, 81, 0
3, 87357, Note_on_c, 1, 79, 88
3, 87359, Control_c, 1, 7, 127
3, 87479, Control_c, 1, 7, 127
3, 87599, Control_c, 1, 7, 127
3, 87718, Control_c, 1, 7, 126
3, 87777, Note_on_c, 1, 79, 0
3, 87835, Control_c, 1, 7, 126
3, 87843, Note_on_c, 1, 79, 87
3, 87947, Note_on_c, 1, 79, 0
3, 87960, Control_c, 1, 7, 125
3, 88080, Note_on_c, 1, 81, 87
3, 88080, Control_c, 1, 7, 125
3, 88171, Note_on_c, 1, 81, 0
3, 88198, Control_c, 1, 7, 124
3, 88317, Control_c, 1, 7, 124
3, 88324, Note_on_c, 1, 83, 86
3, 88442, Control_c, 1, 7, 123
3, 88560, Control_c, 1, 7, 123
3, 88684, Control_c, 1, 7, 122
3, 88737, Note_on_c, 1, 83, 0
3, 88801, Note_on_c, 1, 83, 85
3, 88802, Control_c, 1, 7, 122
3, 88919, Control_c, 1, 7, 121
3, 89043, Control_c, 1, 7, 121
3, 89157, Control_c, 1, 7, 120
3, 89165, Note_on_c, 1, 83, 0
3, 89275, Control_c, 1, 7, 120
3, 89277, Note_on_c, 1, 78, 83
3, 89397, Control_c, 1, 7, 119
3, 89522, Control_c, 1, 7, 119
3, 89636, Control_c, 1, 7, 118
3, 89658, Note_on_c, 1, 78, 0
3, 89760, Control_c, 1, 7, 118
3, 89764, Note_on_c, 1, 78, 82
3, 89844, Note_on_c, 1, 78, 0
3, 89884, Control_c, 1, 7, 117
3, 89998, Control_c, 1, 7, 117
3, 90004, Note_on_c, 1, 80, 81
3, 90084, Note_on_c, 1, 80, 0
3, 90118, Control_c, 1, 7, 116
3, 90241, Note_on_c, 1, 81, 81
3, 90242, Control_c, 1, 7, 116
3, 90358, Control_c, 1, 7, 115
3, 90477, Control_c, 1, 7, 115
3, 90601, Control_c, 1, 7, 114
3, 90647, Note_on_c, 1, 81, 0
3, 90720, Control_c, 1, 7, 114
3, 90722, Note_on_c, 1, 81, 79
3, 90843, Control_c, 1, 7, 114
3, 90960, Control_c, 1, 7, 113
3, 91083, Control_c, 1, 7, 113
3, 91143, Note_on_c, 1, 81, 0
3, 91198, Control_c, 1, 7, 112
3, 91200, Note_on_c, 1, 76, 78
3, 91323, Control_c, 1, 7, 112
3, 91440, Control_c, 1, 7, 111
3, 91558, Control_c, 1, 7, 111
3, 91612, Note_on_c, 1, 76, 0
3, 91676, Control_c, 1, 7, 110
3, 91677, Note_on_c, 1, 76, 77
3, 91764, Note_on_c, 1, 76, 0
3, 91799, Control_c, 1, 7, 110
3, 91917, Note_on_c, 1, 76, 76
3, 91924, Control_c, 1, 7, 109
3, 92025, Note_on_c, 1, 76, 0
3, 92038, Control_c, 1, 7, 109
3, 92160, Note_on_c, 1, 76, 76
3, 92161, Control_c, 1, 7, 108
3, 92278, Control_c, 1, 7, 108
3, 92396, Control_c, 1, 7, 107
3, 92517, Control_c, 1, 7, 107
3, 92560, Note_on_c, 1, 76, 0
3, 92638, Note_on_c, 1, 76, 74
3, 92639, Control_c, 1, 7, 106
3, 92757, Control_c, 1, 7, 106
3, 92883, Control_c, 1, 7, 105
3, 93003, Control_c, 1, 7, 105
3, 93036, Note_on_c, 1, 76, 0
3, 93121, Control_c, 1, 7, 104
3, 93123, Note_on_c, 1, 76, 73
3, 93241, Control_c, 1, 7, 104
3, 93358, Control_c, 1, 7, 103
3, 93481, Control_c, 1, 7, 103
3, 93549, Note_on_c, 1, 76, 0
3, 93598, Control_c, 1, 7, 102
3, 93603, Note_on_c, 1, 78, 72
3, 93670, Note_on_c, 1, 78, 0
3, 93723, Control_c, 1, 7, 102
3, 93843, Control_c, 1, 7, 101
3, 93844, Note_on_c, 1, 80, 71
3, 93944, Note_on_c, 1, 80, 0
3, 93960, Control_c, 1, 7, 101
3, 94080, Note_on_c, 1, 81, 70
3, 94083, Control_c, 1, 7, 100
3, 94508, Note_on_c, 1, 81, 0
3, 95041, Note_on_c, 1, 76, 62
3, 95430, Note_on_c, 1, 76, 0
3, 95518, Note_on_c, 1, 78, 63
3, 95522, Note_on_c, 1, 76, 63
3, 95604, Note_on_c, 1, 78, 0
3, 95615, Note_on_c, 1, 76, 0
3, 95758, Note_on_c, 1, 80, 64
3, 95764, Note_on_c, 1, 76, 64
3, 95844, Note_on_c, 1, 80, 0
3, 95866, Note_on_c, 1, 76, 0
3, 95997, Note_on_c, 1, 76, 65
3, 95997, Note_on_c, 1, 81, 65
3, 96363, Note_on_c, 1, 81, 0
3, 96365, Note_on_c, 1, 76, 0
3, 105600, System_exclusive, 10, 65, 16, 66, 18, 64, 18, 52, 69, 53, 247
3, 105600, System_exclusive, 10, 65, 16, 66, 18, 64, 18, 53, 114, 7, 247
3, 106109, Note_on_c, 1, 76, 47
3, 106113, Note_on_c, 1, 79, 45
3, 107995, Note_on_c, 1, 78, 46
3, 107997, Note_on_c, 1, 74, 47
3, 108060, Note_on_c, 1, 76, 0
3, 108069, Note_on_c, 1, 79, 0
3, 108281, Note_on_c, 1, 78, 0
3, 108286, Note_on_c, 1, 74, 0
3, 109919, Note_on_c, 1, 85, 47
3, 109920, Note_on_c, 1, 81, 43
3, 110398, Note_on_c, 1, 80, 44
3, 110399, Note_on_c, 1, 83, 48
3, 110463, Note_on_c, 1, 85, 0
3, 110465, Note_on_c, 1, 81, 0
3, 110882, Note_on_c, 1, 81, 45
3, 110883, Note_on_c, 1, 78, 46
3, 110973, Note_on_c, 1, 83, 0
3, 110975, Note_on_c, 1, 80, 0
3, 111357, Note_on_c, 1, 80, 46
3, 111360, Note_on_c, 1, 76, 47
3, 111429, Note_on_c, 1, 78, 0
3, 111432, Note_on_c, 1, 81, 0
3, 111898, Note_on_c, 1, 80, 0
3, 111903, Note_on_c, 1, 76, 0
3, 118077, Note_on_c, 1, 76, 47
3, 118078, Note_on_c, 1, 70, 45
3, 119039, Note_on_c, 1, 71, 48
3, 119164, Note_on_c, 1, 70, 0
3, 119516, Note_on_c, 1, 78, 47
3, 119678, Note_on_c, 1, 76, 0
3, 119763, Note_on_c, 1, 76, 48
3, 119841, Note_on_c, 1, 78, 0
3, 119994, Note_on_c, 1, 76, 0
3, 120001, Note_on_c, 1, 76, 46
3, 120002, Note_on_c, 1, 70, 47
3, 120033, Note_on_c, 1, 71, 0
3, 120963, Note_on_c, 1, 71, 46
3, 121094, Note_on_c, 1, 70, 0
3, 121439, Note_on_c, 1, 80, 45
3, 121595, Note_on_c, 1, 78, 46
3, 121602, Note_on_c, 1, 76, 0
3, 121656, Note_on_c, 1, 80, 0
3, 121762, Note_on_c, 1, 76, 43
3, 121810, Note_on_c, 1, 78, 0
3, 121916, Note_on_c, 1, 76, 0
3, 121954, Note_on_c, 1, 71, 0
3, 125761, Note_on_c, 1, 70, 48
3, 125761, Note_on_c, 1, 76, 46
3, 126720, Note_on_c, 1, 71, 45
3, 126848, Note_on_c, 1, 70, 0
3, 127202, Note_on_c, 1, 78, 47
3, 127360, Note_on_c, 1, 76, 0
3, 127441, Note_on_c, 1, 76, 45
3, 127527, Note_on_c, 1, 78, 0
3, 127664, Note_on_c, 1, 76, 0
3, 127677, Note_on_c, 1, 70, 42
3, 127681, Note_on_c, 1, 76, 46
3, 127713, Note_on_c, 1, 71, 0
3, 128646, Note_on_c, 1, 71, 50
3, 128766, Note_on_c, 1, 70, 0
3, 129122, Note_on_c, 1, 80, 45
3, 129278, Note_on_c, 1, 78, 46
3, 129281, Note_on_c, 1, 76, 0
3, 129339, Note_on_c, 1, 80, 0
3, 129439, Note_on_c, 1, 76, 48
3, 129499, Note_on_c, 1, 78, 0
3, 129595, Note_on_c, 1, 76, 0
3, 129601, Note_on_c, 1, 76, 46
3, 129644, Note_on_c, 1, 71, 0
3, 130723, Note_on_c, 1, 77, 43
3, 130848, Note_on_c, 1, 76, 0
3, 130879, Note_on_c, 1, 76, 45
3, 130939, Note_on_c, 1, 77, 0
3, 131036, Note_on_c, 1, 76, 0
3, 131041, Note_on_c, 1, 79, 44
3, 131205, Note_on_c, 1, 77, 46
3, 131254, Note_on_c, 1, 79, 0
3, 131359, Note_on_c, 1, 69, 45
3, 131420, Note_on_c, 1, 77, 0
3, 131512, Note_on_c, 1, 69, 0
3, 131524, Note_on_c, 1, 72, 47
3, 131998, Note_on_c, 1, 76, 49
3, 132107, Note_on_c, 1, 72, 0
3, 132240, Note_on_c, 1, 74, 46
3, 132321, Note_on_c, 1, 76, 0
3, 132480, Note_on_c, 1, 72, 49
3, 132528, Note_on_c, 1, 74, 0
3, 132960, System_exclusive, 10, 65, 16, 66, 18, 64, 18, 52, 64, 58, 247
3, 132960, System_exclusive, 10, 65, 16, 66, 18, 64, 18, 53, 64, 57, 247
3, 133056, Note_on_c, 1, 72, 0
3, 133441, Note_on_c, 1, 77, 68
3, 134111, Note_on_c, 1, 77, 0
3, 134160, Note_on_c, 1, 77, 61
3, 134328, Note_on_c, 1, 77, 0
3, 134403, Note_on_c, 1, 77, 67
3, 134561, Note_on_c, 1, 76, 67
3, 134578, Note_on_c, 1, 77, 0
3, 134654, Note_on_c, 1, 76, 0
3, 134721, Note_on_c, 1, 74, 68
3, 134796, Note_on_c, 1, 74, 0
3, 134878, Note_on_c, 1, 72, 64
3, 134956, Note_on_c, 1, 72, 0
3, 135043, Note_on_c, 1, 71, 66
3, 135118, Note_on_c, 1, 71, 0
3, 135198, Note_on_c, 1, 69, 67
3, 135288, Note_on_c, 1, 69, 0
3, 135361, Note_on_c, 1, 67, 65
3, 135840, Note_on_c, 1, 69, 59
3, 135888, Note_on_c, 1, 67, 0
3, 136082, Note_on_c, 1, 71, 65
3, 136089, Note_on_c, 1, 69, 0
3, 136160, Note_on_c, 1, 71, 0
3, 136318, Note_on_c, 1, 72, 62
3, 136962, Note_on_c, 1, 74, 64
3, 136977, Note_on_c, 1, 72, 0
3, 137118, Note_on_c, 1, 76, 66
3, 137177, Note_on_c, 1, 74, 0
3, 137280, Note_on_c, 1, 77, 64
3, 137280, Control_c, 1, 7, 100
3, 137320, Note_on_c, 1, 76, 0
3, 137400, Control_c, 1, 7, 103
3, 137520, Control_c, 1, 7, 106
3, 137640, Control_c, 1, 7, 110
3, 137760, Control_c, 1, 7, 113
3, 137880, Control_c, 1, 7, 116
3, 137962, Note_on_c, 1, 77, 0
3, 138000, Control_c, 1, 7, 120
3, 138082, Note_on_c, 1, 77, 68
3, 138120, Control_c, 1, 7, 123
3, 138232, Note_on_c, 1, 77, 0
3, 138238, Note_on_c, 1, 77, 65
3, 138240, Control_c, 1, 7, 127
3, 138350, Note_on_c, 1, 77, 0
3, 138403, Note_on_c, 1, 76, 63
3, 138470, Note_on_c, 1, 76, 0
3, 138563, Note_on_c, 1, 74, 63
3, 138623, Note_on_c, 1, 74, 0
3, 138723, Note_on_c, 1, 72, 66
3, 138794, Note_on_c, 1, 72, 0
3, 138882, Note_on_c, 1, 71, 60
3, 138954, Note_on_c, 1, 71, 0
3, 139040, Note_on_c, 1, 69, 66
3, 139112, Note_on_c, 1, 69, 0
3, 139200, Note_on_c, 1, 67, 69
3, 139373, Note_on_c, 1, 67, 0
3, 143520, Note_on_c, 1, 76, 80
3, 143616, Note_on_c, 1, 76, 0
3, 143762, Note_on_c, 1, 76, 84
3, 143861, Note_on_c, 1, 76, 0
3, 144000, Control_c, 1, 7, 100
3, 144000, System_exclusive, 10, 65, 16, 66, 18, 64, 18, 52, 69, 53, 247
3, 144000, System_exclusive, 10, 65, 16, 66, 18, 64, 18, 53, 114, 7, 247
3, 144001, Note_on_c, 1, 72, 64
3, 144960, Note_on_c, 1, 71, 67
3, 144990, Note_on_c, 1, 72, 0
3, 145834, Note_on_c, 1, 71, 0
3, 145907, Note_on_c, 1, 71, 68
3, 145953, Note_on_c, 1, 72, 61
3, 145986, Note_on_c, 1, 71, 0
3, 146038, Note_on_c, 1, 74, 67
3, 146066, Note_on_c, 1, 72, 0
3, 146558, Note_on_c, 1, 72, 61
3, 146581, Note_on_c, 1, 74, 0
3, 146719, Note_on_c, 1, 71, 64
3, 146740, Note_on_c, 1, 72, 0
3, 146840, Note_on_c, 1, 71, 0
3, 146880, Note_on_c, 1, 71, 64
3, 147119, Note_on_c, 1, 72, 66
3, 147194, Note_on_c, 1, 71, 0
3, 147328, Note_on_c, 1, 72, 0
3, 147357, Note_on_c, 1, 72, 68
3, 147669, Note_on_c, 1, 72, 0
3, 147842, Note_on_c, 1, 72, 60
3, 148562, Note_on_c, 1, 74, 65
3, 148588, Note_on_c, 1, 72, 0
3, 148787, Note_on_c, 1, 74, 0
3, 148800, Note_on_c, 1, 75, 67
3, 149039, Note_on_c, 1, 76, 62
3, 149072, Note_on_c, 1, 75, 0
3, 149162, Note_on_c, 1, 76, 0
3, 149282, Note_on_c, 1, 76, 66
3, 149412, Note_on_c, 1, 76, 0
3, 149519, Note_on_c, 1, 76, 60
3, 149629, Note_on_c, 1, 76, 0
3, 149747, Note_on_c, 1, 74, 65
3, 149788, Note_on_c, 1, 76, 65
3, 149823, Note_on_c, 1, 74, 0
3, 149863, Note_on_c, 1, 77, 64
3, 149894, Note_on_c, 1, 76, 0
3, 150400, Note_on_c, 1, 76, 65
3, 150452, Note_on_c, 1, 77, 0
3, 150557, Note_on_c, 1, 74, 65
3, 150584, Note_on_c, 1, 76, 0
3, 150708, Note_on_c, 1, 74, 0
3, 150722, Note_on_c, 1, 74, 61
3, 150962, Note_on_c, 1, 76, 64
3, 151006, Note_on_c, 1, 74, 0
3, 151171, Note_on_c, 1, 76, 0
3, 151197, Note_on_c, 1, 76, 61
3, 151592, Note_on_c, 1, 76, 0
3, 151682, Note_on_c, 1, 76, 64
3, 152400, Note_on_c, 1, 78, 64
3, 152407, Note_on_c, 1, 76, 0
3, 152638, Note_on_c, 1, 76, 64
3, 152658, Note_on_c, 1, 78, 0
3, 153121, Note_on_c, 1, 75, 65
3, 153162, Note_on_c, 1, 76, 0
3, 153484, Note_on_c, 1, 75, 0
3, 153602, Note_on_c, 1, 74, 62
3, 154320, Note_on_c, 1, 74, 0
3, 154320, Note_on_c, 1, 76, 64
3, 154559, Note_on_c, 1, 74, 64
3, 154578, Note_on_c, 1, 76, 0
3, 154800, Note_on_c, 1, 73, 62
3, 154843, Note_on_c, 1, 74, 0
3, 155038, Note_on_c, 1, 72, 62
3, 155078, Note_on_c, 1, 73, 0
3, 155378, Note_on_c, 1, 72, 0
3, 155519, Note_on_c, 1, 72, 60
3, 156457, Note_on_c, 1, 72, 0
3, 156479, Note_on_c, 1, 71, 66
3, 156959, Note_on_c, 1, 72, 60
3, 157008, Note_on_c, 1, 71, 0
3, 157373, Note_on_c, 1, 72, 0
3, 157451, Note_on_c, 1, 71, 61
3, 157506, Note_on_c, 1, 72, 67
3, 157533, Note_on_c, 1, 71, 0
3, 157586, Note_on_c, 1, 74, 62
3, 157625, Note_on_c, 1, 72, 0
3, 158077, Note_on_c, 1, 72, 65
3, 158099, Note_on_c, 1, 74, 0
3, 158238, Note_on_c, 1, 71, 61
3, 158254, Note_on_c, 1, 72, 0
3, 158356, Note_on_c, 1, 71, 0
3, 158400, Note_on_c, 1, 69, 60
3, 158485, Note_on_c, 1, 69, 0
3, 158558, Note_on_c, 1, 69, 64
3, 158718, Note_on_c, 1, 71, 61
3, 158737, Note_on_c, 1, 69, 0
3, 158866, Note_on_c, 1, 71, 0
3, 158879, Note_on_c, 1, 72, 61
3, 158966, Note_on_c, 1, 72, 0
3, 159037, Note_on_c, 1, 72, 62
3, 159199, Note_on_c, 1, 74, 68
3, 159215, Note_on_c, 1, 72, 0
3, 159347, Note_on_c, 1, 74, 0
3, 159363, Note_on_c, 1, 76, 60
3, 160082, Note_on_c, 1, 78, 66
3, 160132, Note_on_c, 1, 76, 0
3, 160319, Note_on_c, 1, 76, 64
3, 160375, Note_on_c, 1, 78, 0
3, 160800, Note_on_c, 1, 75, 64
3, 160885, Note_on_c, 1, 76, 0
3, 161047, Note_on_c, 1, 75, 0
3, 161280, Note_on_c, 1, 74, 64
3, 161437, Note_on_c, 1, 71, 68
3, 161456, Note_on_c, 1, 74, 0
3, 161598, Note_on_c, 1, 73, 64
3, 161599, Note_on_c, 1, 71, 0
3, 161761, Note_on_c, 1, 74, 67
3, 161809, Note_on_c, 1, 73, 0
3, 161921, Note_on_c, 1, 76, 60
3, 161955, Note_on_c, 1, 74, 0
3, 162081, Note_on_c, 1, 74, 60
3, 162117, Note_on_c, 1, 76, 0
3, 162228, Note_on_c, 1, 74, 0
3, 162240, Note_on_c, 1, 74, 63
3, 162478, Note_on_c, 1, 73, 62
3, 162548, Note_on_c, 1, 74, 0
3, 162720, Note_on_c, 1, 72, 63
3, 162770, Note_on_c, 1, 73, 0
3, 163042, Note_on_c, 1, 72, 0
3, 163200, Note_on_c, 1, 72, 60
3, 164140, Note_on_c, 1, 72, 0
3, 164160, Note_on_c, 1, 71, 68
3, 164638, Note_on_c, 1, 72, 64
3, 164683, Note_on_c, 1, 71, 0
3, 165059, Note_on_c, 1, 72, 0
3, 165104, Note_on_c, 1, 71, 62
3, 165174, Note_on_c, 1, 72, 64
3, 165203, Note_on_c, 1, 71, 0
3, 165265, Note_on_c, 1, 74, 60
3, 165302, Note_on_c, 1, 72, 0
3, 165758, Note_on_c, 1, 74, 0
3, 165760, Note_on_c, 1, 72, 65
3, 165920, Note_on_c, 1, 71, 67
3, 165971, Note_on_c, 1, 72, 0
3, 166069, Note_on_c, 1, 71, 0
3, 166079, Note_on_c, 1, 69, 66
3, 166560, System_exclusive, 10, 65, 16, 66, 18, 64, 18, 52, 64, 58, 247
3, 166560, System_exclusive, 10, 65, 16, 66, 18, 64, 18, 53, 64, 57, 247
3, 166601, Note_on_c, 1, 69, 0
3, 167040, Note_on_c, 1, 69, 65
3, 167683, Note_on_c, 1, 71, 64
3, 167702, Note_on_c, 1, 69, 0
3, 167837, Note_on_c, 1, 73, 57
3, 167871, Note_on_c, 1, 71, 0
3, 167960, Note_on_c, 1, 73, 0
3, 168003, Note_on_c, 1, 73, 59
3, 168244, Note_on_c, 1, 74, 59
3, 168303, Note_on_c, 1, 73, 0
3, 168484, Note_on_c, 1, 74, 0
3, 168486, Note_on_c, 1, 74, 67
3, 168762, Note_on_c, 1, 74, 0
3, 168961, Note_on_c, 1, 74, 63
3, 169603, Note_on_c, 1, 76, 65
3, 169623, Note_on_c, 1, 74, 0
3, 169757, Note_on_c, 1, 77, 57
3, 169781, Note_on_c, 1, 76, 0
3, 169876, Note_on_c, 1, 77, 0
3, 169921, Note_on_c, 1, 77, 66
3, 170162, Note_on_c, 1, 76, 66
3, 170220, Note_on_c, 1, 77, 0
3, 170379, Note_on_c, 1, 76, 0
3, 170394, Note_on_c, 1, 76, 68
3, 170662, Note_on_c, 1, 76, 0
3, 170877, Note_on_c, 1, 69, 62
3, 170988, Note_on_c, 1, 69, 0
3, 171040, Note_on_c, 1, 69, 63
3, 171153, Note_on_c, 1, 69, 0
3, 171201, Note_on_c, 1, 69, 73
3, 171325, Note_on_c, 1, 69, 0
3, 171358, Note_on_c, 1, 69, 64
3, 171525, Note_on_c, 1, 71, 64
3, 171535, Note_on_c, 1, 69, 0
3, 171644, Note_on_c, 1, 71, 0
3, 171677, Note_on_c, 1, 73, 72
3, 171803, Note_on_c, 1, 73, 0
3, 171838, Note_on_c, 1, 73, 67
3, 172000, Note_on_c, 1, 74, 70
3, 172043, Note_on_c, 1, 73, 0
3, 172119, Note_on_c, 1, 74, 0
3, 172162, Note_on_c, 1, 74, 69
3, 172255, Note_on_c, 1, 74, 0
3, 172319, Note_on_c, 1, 74, 77
3, 172469, Note_on_c, 1, 74, 0
3, 172799, Note_on_c, 1, 74, 68
3, 172912, Note_on_c, 1, 74, 0
3, 172965, Note_on_c, 1, 74, 73
3, 173079, Note_on_c, 1, 74, 0
3, 173123, Note_on_c, 1, 74, 80
3, 173235, Note_on_c, 1, 74, 0
3, 173282, Note_on_c, 1, 74, 79
3, 173438, Note_on_c, 1, 76, 83
3, 173460, Note_on_c, 1, 74, 0
3, 173558, Note_on_c, 1, 76, 0
3, 173603, Note_on_c, 1, 77, 79
3, 173720, Note_on_c, 1, 77, 0
3, 173756, Note_on_c, 1, 77, 75
3, 173918, Note_on_c, 1, 76, 75
3, 173965, Note_on_c, 1, 77, 0
3, 174040, Note_on_c, 1, 76, 0
3, 174081, Note_on_c, 1, 76, 70
3, 174232, Note_on_c, 1, 76, 0
3, 174715, Note_on_c, 1, 76, 64
3, 174876, Note_on_c, 1, 77, 56
3, 174918, Note_on_c, 1, 76, 0
3, 174998, Note_on_c, 1, 77, 0
3, 175033, Note_on_c, 1, 77, 56
3, 175175, Note_on_c, 1, 77, 0
3, 175679, Note_on_c, 1, 77, 48
3, 175838, Note_on_c, 1, 76, 46
3, 175893, Note_on_c, 1, 77, 0
3, 175957, Note_on_c, 1, 76, 0
3, 175997, Note_on_c, 1, 76, 48
3, 176143, Note_on_c, 1, 76, 0
3, 200639, Note_on_c, 1, 74, 51
3, 201088, Note_on_c, 1, 74, 0
3, 201120, Note_on_c, 1, 74, 46
3, 201236, Note_on_c, 1, 74, 0
3, 201360, Note_on_c, 1, 76, 50
3, 201480, Note_on_c, 1, 76, 0
3, 201600, Note_on_c, 1, 77, 50
3, 204720, Note_on_c, 1, 76, 99
3, 204747, Note_on_c, 1, 77, 0
3, 204780, Note_on_c, 1, 76, 0
3, 204840, Note_on_c, 1, 75, 100
3, 204901, Note_on_c, 1, 75, 0
3, 204960, Note_on_c, 1, 76, 102
3, 205021, Note_on_c, 1, 76, 0
3, 205080, Note_on_c, 1, 64, 104
3, 205080, Note_on_c, 1, 76, 104
3, 205138, Note_on_c, 1, 76, 0
3, 205139, Note_on_c, 1, 64, 0
3, 205200, Note_on_c, 1, 66, 106
3, 205200, Note_on_c, 1, 78, 106
3, 205263, Note_on_c, 1, 78, 0
3, 205266, Note_on_c, 1, 66, 0
3, 205320, Note_on_c, 1, 68, 108
3, 205320, Note_on_c, 1, 80, 108
3, 205377, Note_on_c, 1, 68, 0
3, 205383, Note_on_c, 1, 80, 0
3, 205440, Note_on_c, 1, 69, 110
3, 205440, Note_on_c, 1, 81, 110
3, 205500, Note_on_c, 1, 69, 0
3, 205500, Note_on_c, 1, 81, 0
3, 205560, Note_on_c, 1, 71, 110
3, 205560, Note_on_c, 1, 83, 110
3, 205616, Note_on_c, 1, 71, 0
3, 205617, Note_on_c, 1, 83, 0
3, 205680, Note_on_c, 1, 72, 110
3, 205680, Note_on_c, 1, 84, 110
3, 205742, Note_on_c, 1, 84, 0
3, 205748, Note_on_c, 1, 72, 0
3, 205800, Note_on_c, 1, 71, 110
3, 205800, Note_on_c, 1, 83, 110
3, 205860, Note_on_c, 1, 83, 0
3, 205863, Note_on_c, 1, 71, 0
3, 205920, Note_on_c, 1, 69, 110
3, 205920, Note_on_c, 1, 81, 110
3, 205977, Note_on_c, 1, 81, 0
3, 205982, Note_on_c, 1, 69, 0
3, 206040, Note_on_c, 1, 72, 110
3, 206040, Note_on_c, 1, 84, 110
3, 206101, Note_on_c, 1, 72, 0
3, 206102, Note_on_c, 1, 84, 0
3, 206160, Note_on_c, 1, 71, 110
3, 206160, Note_on_c, 1, 83, 110
3, 206224, Note_on_c, 1, 83, 0
3, 206225, Note_on_c, 1, 71, 0
3, 206280, Note_on_c, 1, 69, 110
3, 206280, Note_on_c, 1, 81, 110
3, 206346, Note_on_c, 1, 81, 0
3, 206347, Note_on_c, 1, 69, 0
3, 206400, Note_on_c, 1, 76, 110
3, 206401, Note_on_c, 1, 64, 110
3, 206460, Note_on_c, 1, 76, 0
3, 206464, Note_on_c, 1, 64, 0
3, 206520, Note_on_c, 1, 66, 110
3, 206520, Note_on_c, 1, 78, 110
3, 206576, Note_on_c, 1, 78, 0
3, 206578, Note_on_c, 1, 66, 0
3, 206637, Note_on_c, 1, 80, 110
3, 206641, Note_on_c, 1, 68, 110
3, 206700, Note_on_c, 1, 80, 0
3, 206706, Note_on_c, 1, 68, 0
3, 206759, Note_on_c, 1, 69, 110
3, 206760, Note_on_c, 1, 81, 110
3, 206822, Note_on_c, 1, 69, 0
3, 206823, Note_on_c, 1, 81, 0
3, 206877, Note_on_c, 1, 83, 110
3, 206878, Note_on_c, 1, 71, 110
3, 206936, Note_on_c, 1, 83, 0
3, 206939, Note_on_c, 1, 71, 0
3, 206999, Note_on_c, 1, 72, 110
3, 207062, Note_on_c, 1, 72, 0
3, 207122, Note_on_c, 1, 74, 110
3, 207191, Note_on_c, 1, 74, 0
3, 207240, Note_on_c, 1, 76, 110
3, 207306, Note_on_c, 1, 76, 0
3, 207363, Note_on_c, 1, 74, 110
3, 207427, Note_on_c, 1, 74, 0
3, 207477, Note_on_c, 1, 71, 110
3, 207536, Note_on_c, 1, 71, 0
3, 207601, Note_on_c, 1, 72, 110
3, 207664, Note_on_c, 1, 72, 0
3, 207719, Note_on_c, 1, 74, 110
3, 207784, Note_on_c, 1, 74, 0
3, 207837, Note_on_c, 1, 76, 110
3, 207899, Note_on_c, 1, 76, 0
3, 207961, Note_on_c, 1, 74, 110
3, 208025, Note_on_c, 1, 74, 0
3, 208080, Note_on_c, 1, 72, 110
3, 208144, Note_on_c, 1, 72, 0
3, 208199, Note_on_c, 1, 71, 110
3, 208265, Note_on_c, 1, 71, 0
3, 208321, Note_on_c, 1, 72, 110
3, 208380, Note_on_c, 1, 72, 0
3, 208441, Note_on_c, 1, 71, 110
3, 208496, Note_on_c, 1, 71, 0
3, 208560, Note_on_c, 1, 72, 110
3, 208627, Note_on_c, 1, 72, 0
3, 208679, Note_on_c, 1, 74, 110
3, 208742, Note_on_c, 1, 74, 0
3, 208801, Note_on_c, 1, 76, 110
3, 208862, Note_on_c, 1, 76, 0
3, 208920, Note_on_c, 1, 76, 110
3, 208921, Note_on_c, 1, 64, 110
3, 208983, Note_on_c, 1, 64, 0
3, 208985, Note_on_c, 1, 76, 0
3, 209037, Note_on_c, 1, 78, 110
3, 209041, Note_on_c, 1, 66, 110
3, 209101, Note_on_c, 1, 78, 0
3, 209106, Note_on_c, 1, 66, 0
3, 209157, Note_on_c, 1, 68, 110
3, 209159, Note_on_c, 1, 80, 110
3, 209221, Note_on_c, 1, 68, 0
3, 209225, Note_on_c, 1, 80, 0
3, 209278, Note_on_c, 1, 81, 110
3, 209279, Note_on_c, 1, 69, 110
3, 209340, Note_on_c, 1, 81, 0
3, 209342, Note_on_c, 1, 69, 0
3, 209398, Note_on_c, 1, 83, 110
3, 209400, Note_on_c, 1, 71, 110
3, 209453, Note_on_c, 1, 83, 0
3, 209457, Note_on_c, 1, 71, 0
3, 209517, Note_on_c, 1, 72, 110
3, 209522, Note_on_c, 1, 84, 110
3, 209580, Note_on_c, 1, 72, 0
3, 209587, Note_on_c, 1, 84, 0
3, 209639, Note_on_c, 1, 83, 110
3, 209641, Note_on_c, 1, 71, 110
3, 209702, Note_on_c, 1, 83, 0
3, 209705, Note_on_c, 1, 71, 0
3, 209761, Note_on_c, 1, 69, 110
3, 209763, Note_on_c, 1, 81, 110
3, 209819, Note_on_c, 1, 69, 0
3, 209825, Note_on_c, 1, 81, 0
3, 209877, Note_on_c, 1, 72, 110
3, 209881, Note_on_c, 1, 84, 110
3, 209940, Note_on_c, 1, 72, 0
3, 209940, Note_on_c, 1, 84, 0
3, 210000, Note_on_c, 1, 71, 110
3, 210003, Note_on_c, 1, 83, 110
3, 210068, Note_on_c, 1, 71, 0
3, 210068, Note_on_c, 1, 83, 0
3, 210119, Note_on_c, 1, 69, 110
3, 210119, Note_on_c, 1, 81, 110
3, 210182, Note_on_c, 1, 69, 0
3, 210183, Note_on_c, 1, 81, 0
3, 210237, Note_on_c, 1, 76, 110
3, 210297, Note_on_c, 1, 76, 0
3, 210357, Note_on_c, 1, 78, 110
3, 210412, Note_on_c, 1, 78, 0
3, 210483, Note_on_c, 1, 80, 110
3, 210545, Note_on_c, 1, 80, 0
3, 210603, Note_on_c, 1, 81, 110
3, 210662, Note_on_c, 1, 81, 0
3, 210720, Note_on_c, 1, 83, 110
3, 210777, Note_on_c, 1, 83, 0
3, 210837, Note_on_c, 1, 72, 110
3, 210897, Note_on_c, 1, 72, 0
3, 210961, Note_on_c, 1, 74, 110
3, 211026, Note_on_c, 1, 74, 0
3, 211079, Note_on_c, 1, 76, 110
3, 211142, Note_on_c, 1, 76, 0
3, 211197, Note_on_c, 1, 74, 110
3, 211260, Note_on_c, 1, 74, 0
3, 211321, Note_on_c, 1, 71, 110
3, 211376, Note_on_c, 1, 71, 0
3, 211441, Note_on_c, 1, 72, 110
3, 211503, Note_on_c, 1, 72, 0
3, 211562, Note_on_c, 1, 74, 110
3, 211622, Note_on_c, 1, 74, 0
3, 211678, Note_on_c, 1, 76, 110
3, 211736, Note_on_c, 1, 76, 0
3, 211800, Note_on_c, 1, 74, 110
3, 211862, Note_on_c, 1, 74, 0
3, 211918, Note_on_c, 1, 72, 110
3, 211985, Note_on_c, 1, 72, 0
3, 212038, Note_on_c, 1, 71, 110
3, 212101, Note_on_c, 1, 71, 0
3, 212160, Note_on_c, 1, 69, 110
3, 212615, Note_on_c, 1, 69, 0
3, 213119, Note_on_c, 1, 76, 67
3, 213568, Note_on_c, 1, 76, 0
3, 213597, Note_on_c, 1, 76, 67
3, 213600, Note_on_c, 1, 78, 61
3, 213700, Note_on_c, 1, 76, 0
3, 213708, Note_on_c, 1, 78, 0
3, 213838, Note_on_c, 1, 76, 67
3, 213842, Note_on_c, 1, 80, 61
3, 213941, Note_on_c, 1, 76, 0
3, 213947, Note_on_c, 1, 80, 0
3, 214077, Note_on_c, 1, 76, 67
3, 214082, Note_on_c, 1, 81, 62
3, 214373, Note_on_c, 1, 76, 0
3, 214381, Note_on_c, 1, 81, 0
3, 223680, System_exclusive, 10, 65, 16, 66, 18, 64, 18, 52, 69, 53, 247
3, 223680, System_exclusive, 10, 65, 16, 66, 18, 64, 18, 53, 114, 7, 247
3, 224158, Note_on_c, 1, 79, 26
3, 224159, Note_on_c, 1, 76, 34
3, 226078, Note_on_c, 1, 74, 30
3, 226081, Note_on_c, 1, 78, 30
3, 226112, Note_on_c, 1, 76, 0
3, 226116, Note_on_c, 1, 79, 0
3, 226365, Note_on_c, 1, 78, 0
3, 226369, Note_on_c, 1, 74, 0
3, 226560, System_exclusive, 10, 65, 16, 66, 18, 64, 18, 52, 64, 58, 247
3, 226560, System_exclusive, 10, 65, 16, 66, 18, 64, 18, 53, 64, 57, 247
3, 237118, Note_on_c, 1, 83, 56
3, 237119, Note_on_c, 1, 74, 64
3, 237564, Note_on_c, 1, 83, 0
3, 237567, Note_on_c, 1, 74, 0
3, 237599, Note_on_c, 1, 72, 63
3, 237599, Note_on_c, 1, 81, 56
3, 237714, Note_on_c, 1, 72, 0
3, 237716, Note_on_c, 1, 81, 0
3, 237840, Note_on_c, 1, 74, 63
3, 237840, Note_on_c, 1, 83, 59
3, 237954, Note_on_c, 1, 74, 0
3, 237956, Note_on_c, 1, 83, 0
3, 238078, Note_on_c, 1, 76, 60
3, 238080, Note_on_c, 1, 84, 60
3, 238371, Note_on_c, 1, 76, 0
3, 238374, Note_on_c, 1, 84, 0
3, 240959, Note_on_c, 1, 74, 61
3, 240962, Note_on_c, 1, 83, 65
3, 241400, Note_on_c, 1, 74, 0
3, 241408, Note_on_c, 1, 83, 0
3, 241437, Note_on_c, 1, 72, 65
3, 241440, Note_on_c, 1, 81, 67
3, 241551, Note_on_c, 1, 72, 0
3, 241553, Note_on_c, 1, 81, 0
3, 241678, Note_on_c, 1, 83, 69
3, 241680, Note_on_c, 1, 74, 60
3, 241794, Note_on_c, 1, 74, 0
3, 241794, Note_on_c, 1, 83, 0
3, 241920, Note_on_c, 1, 76, 60
3, 241921, Note_on_c, 1, 84, 60
3, 242214, Note_on_c, 1, 76, 0
3, 242215, Note_on_c, 1, 84, 0
3, 243841, Note_on_c, 1, 80, 54
3, 244284, Note_on_c, 1, 80, 0
3, 244319, Note_on_c, 1, 78, 60
3, 244431, Note_on_c, 1, 78, 0
3, 244562, Note_on_c, 1, 80, 59
3, 244675, Note_on_c, 1, 80, 0
3, 244803, Note_on_c, 1, 81, 55
3, 245249, Note_on_c, 1, 81, 0
3, 245278, Note_on_c, 1, 81, 45
3, 245372, Note_on_c, 1, 81, 0
3, 245516, Note_on_c, 1, 81, 47
3, 245616, Note_on_c, 1, 81, 0
3, 245763, Note_on_c, 1, 80, 45
3, 246208, Note_on_c, 1, 80, 0
3, 246241, Note_on_c, 1, 80, 46
3, 246685, Note_on_c, 1, 80, 0
3, 246723, Note_on_c, 1, 71, 47
3, 247165, Note_on_c, 1, 71, 0
3, 247200, Note_on_c, 1, 71, 49
3, 247320, Note_on_c, 1, 71, 0
3, 247439, Note_on_c, 1, 71, 50
3, 247556, Note_on_c, 1, 71, 0
3, 247679, Note_on_c, 1, 72, 46
3, 248124, Note_on_c, 1, 72, 0
3, 248161, Note_on_c, 1, 72, 48
3, 248603, Note_on_c, 1, 72, 0
3, 252480, Note_on_c, 1, 79, 49
3, 252921, Note_on_c, 1, 79, 0
3, 252962, Note_on_c, 1, 79, 51
3, 253090, Note_on_c, 1, 79, 0
3, 253201, Note_on_c, 1, 81, 49
3, 253329, Note_on_c, 1, 81, 0
3, 253436, Note_on_c, 1, 83, 55
3, 253883, Note_on_c, 1, 83, 0
3, 253919, Note_on_c, 1, 83, 45
3, 254366, Note_on_c, 1, 83, 0
3, 254398, Note_on_c, 1, 74, 50
3, 254839, Note_on_c, 1, 74, 0
3, 254877, Note_on_c, 1, 74, 47
3, 254983, Note_on_c, 1, 74, 0
3, 255116, Note_on_c, 1, 74, 55
3, 255227, Note_on_c, 1, 74, 0
3, 255361, Note_on_c, 1, 73, 48
3, 255808, Note_on_c, 1, 73, 0
3, 255839, Note_on_c, 1, 72, 51
3, 256283, Note_on_c, 1, 72, 0
3, 260159, Note_on_c, 1, 76, 51
3, 260603, Note_on_c, 1, 76, 0
3, 260640, Note_on_c, 1, 78, 47
3, 260641, Note_on_c, 1, 76, 50
3, 260747, Note_on_c, 1, 78, 0
3, 260748, Note_on_c, 1, 76, 0
3, 260878, Note_on_c, 1, 80, 51
3, 260879, Note_on_c, 1, 76, 48
3, 260985, Note_on_c, 1, 76, 0
3, 260987, Note_on_c, 1, 80, 0
3, 261120, Note_on_c, 1, 76, 50
3, 261123, Note_on_c, 1, 81, 45
3, 261564, Note_on_c, 1, 76, 0
3, 261567, Note_on_c, 1, 81, 0
3, 264960, Note_on_c, 1, 72, 69
3, 264960, Control_c, 1, 7, 100
3, 264962, Note_on_c, 1, 76, 64
3, 265000, Control_c, 1, 7, 99
3, 265020, Control_c, 1, 7, 98
3, 265060, Control_c, 1, 7, 96
3, 265080, Control_c, 1, 7, 95
3, 265100, Control_c, 1, 7, 94
3, 265140, Control_c, 1, 7, 92
3, 265160, Control_c, 1, 7, 91
3, 265180, Control_c, 1, 7, 90
3, 265220, Control_c, 1, 7, 88
3, 265240, Control_c, 1, 7, 88
3, 265280, Control_c, 1, 7, 86
3, 265300, Control_c, 1, 7, 85
3, 265320, Control_c, 1, 7, 84
3, 265360, Control_c, 1, 7, 82
3, 265380, Control_c, 1, 7, 81
3, 265400, Control_c, 1, 7, 80
3, 265440, Control_c, 1, 7, 78
3, 265460, Control_c, 1, 7, 77
3, 265500, Control_c, 1, 7, 75
3, 265520, Control_c, 1, 7, 75
3, 265540, Control_c, 1, 7, 74
3, 265580, Control_c, 1, 7, 72
3, 265600, Control_c, 1, 7, 71
3, 265620, Control_c, 1, 7, 70
3, 265660, Control_c, 1, 7, 68
3, 265680, Control_c, 1, 7, 67
3, 265720, Control_c, 1, 7, 65
3, 265740, Control_c, 1, 7, 64
3, 265760, Control_c, 1, 7, 63
3, 265800, Control_c, 1, 7, 62
3, 265820, Control_c, 1, 7, 61
3, 265840, Control_c, 1, 7, 60
3, 265880, Control_c, 1, 7, 58
3, 265900, Control_c, 1, 7, 57
3, 265920, Control_c, 1, 7, 56
3, 265960, Control_c, 1, 7, 54
3, 265980, Control_c, 1, 7, 53
3, 266020, Control_c, 1, 7, 51
3, 266040, Control_c, 1, 7, 50
3, 266060, Control_c, 1, 7, 50
3, 266100, Control_c, 1, 7, 48
3, 266120, Control_c, 1, 7, 47
3, 266140, Control_c, 1, 7, 46
3, 266180, Control_c, 1, 7, 44
3, 266200, Control_c, 1, 7, 43
3, 266240, Control_c, 1, 7, 41
3, 266260, Control_c, 1, 7, 40
3, 266280, Control_c, 1, 7, 39
3, 266320, Control_c, 1, 7, 38
3, 266340, Control_c, 1, 7, 37
3, 266360, Control_c, 1, 7, 36
3, 266400, Control_c, 1, 7, 34
3, 266420, Control_c, 1, 7, 33
3, 266460, Control_c, 1, 7, 31
3, 266480, Control_c, 1, 7, 30
3, 266500, Control_c, 1, 7, 29
3, 266540, Control_c, 1, 7, 27
3, 266560, Control_c, 1, 7, 26
3, 266580, Control_c, 1, 7, 25
3, 267205, Note_on_c, 1, 72, 0
3, 267207, Note_on_c, 1, 76, 0
3, 267207, End_track
4, 0, Start_track
4, 0, Channel_prefix, 2
4, 0, Title_t, "Clarinet"
4, 0, Instrument_name_t, "Clarinetti (A)"
4, 957, Control_c, 2, 99, 1
4, 958, Control_c, 2, 98, 9
4, 959, Control_c, 2, 6, 14
4, 960, Program_c, 2, 71
4, 960, System_exclusive, 10, 65, 16, 66, 18, 64, 19, 52, 74, 47, 247
4, 961, Note_on_c, 2, 69, 85
4, 962, Note_on_c, 2, 64, 82
4, 1080, Control_c, 2, 7, 97
4, 1200, Control_c, 2, 7, 93
4, 1320, Control_c, 2, 7, 90
4, 1440, Control_c, 2, 7, 86
4, 1560, Control_c, 2, 7, 83
4, 1680, Control_c, 2, 7, 79
4, 1800, Control_c, 2, 7, 76
4, 1920, Control_c, 2, 7, 72
4, 2040, Control_c, 2, 7, 69
4, 2160, Control_c, 2, 7, 65
4, 2280, Control_c, 2, 7, 62
4, 2400, Control_c, 2, 7, 58
4, 2520, Control_c, 2, 7, 55
4, 2640, Control_c, 2, 7, 51
4, 2760, Control_c, 2, 7, 48
4, 2880, Control_c, 2, 7, 44
4, 3000, Control_c, 2, 7, 41
4, 3120, Control_c, 2, 7, 37
4, 3240, Control_c, 2, 7, 34
4, 3360, Note_on_c, 2, 69, 0
4, 3360, Control_c, 2, 7, 30
4, 3366, Note_on_c, 2, 64, 0
4, 3810, System_exclusive, 10, 65, 16, 66, 18, 64, 19, 52, 64, 57, 247
4, 72001, Control_c, 2, 7, 127
4, 72003, Note_on_c, 2, 64, 82
4, 72004, Note_on_c, 2, 76, 82
4, 72346, Note_on_c, 2, 64, 0
4, 72360, Note_on_c, 2, 76, 0
4, 72476, Note_on_c, 2, 76, 80
4, 72480, Note_on_c, 2, 64, 85
4, 72558, Note_on_c, 2, 76, 0
4, 72571, Note_on_c, 2, 64, 0
4, 72718, Note_on_c, 2, 76, 85
4, 72719, Note_on_c, 2, 64, 78
4, 72807, Note_on_c, 2, 76, 0
4, 72810, Note_on_c, 2, 64, 0
4, 72960, Note_on_c, 2, 64, 80
4, 72963, Note_on_c, 2, 76, 79
4, 73315, Note_on_c, 2, 76, 0
4, 73317, Note_on_c, 2, 64, 0
4, 73435, Note_on_c, 2, 76, 87
4, 73439, Note_on_c, 2, 64, 82
4, 73812, Note_on_c, 2, 76, 0
4, 73813, Note_on_c, 2, 64, 0
4, 73922, Note_on_c, 2, 64, 84
4, 73923, Note_on_c, 2, 76, 87
4, 74317, Note_on_c, 2, 76, 0
4, 74321, Note_on_c, 2, 64, 0
4, 74400, Note_on_c, 2, 76, 87
4, 74402, Note_on_c, 2, 64, 87
4, 74482, Note_on_c, 2, 64, 0
4, 74488, Note_on_c, 2, 76, 0
4, 74636, Note_on_c, 2, 76, 83
4, 74641, Note_on_c, 2, 64, 84
4, 74737, Note_on_c, 2, 76, 0
4, 74739, Note_on_c, 2, 64, 0
4, 74877, Note_on_c, 2, 76, 83
4, 74879, Note_on_c, 2, 64, 78
4, 75232, Note_on_c, 2, 76, 0
4, 75235, Note_on_c, 2, 64, 0
4, 75358, Note_on_c, 2, 76, 84
4, 75362, Note_on_c, 2, 64, 84
4, 75757, Note_on_c, 2, 64, 0
4, 75758, Note_on_c, 2, 76, 0
4, 75837, Note_on_c, 2, 76, 88
4, 75840, Note_on_c, 2, 64, 90
4, 76245, Note_on_c, 2, 76, 0
4, 76251, Note_on_c, 2, 64, 0
4, 76315, Note_on_c, 2, 76, 81
4, 76320, Note_on_c, 2, 64, 87
4, 76414, Note_on_c, 2, 64, 0
4, 76423, Note_on_c, 2, 76, 0
4, 76558, Note_on_c, 2, 78, 81
4, 76564, Note_on_c, 2, 66, 80
4, 76654, Note_on_c, 2, 78, 0
4, 76658, Note_on_c, 2, 66, 0
4, 76799, Note_on_c, 2, 67, 85
4, 76802, Note_on_c, 2, 79, 83
4, 77169, Note_on_c, 2, 67, 0
4, 77174, Note_on_c, 2, 79, 0
4, 77279, Note_on_c, 2, 67, 84
4, 77280, Note_on_c, 2, 79, 84
4, 77669, Note_on_c, 2, 67, 0
4, 77671, Note_on_c, 2, 79, 0
4, 77756, Note_on_c, 2, 67, 79
4, 77758, Note_on_c, 2, 79, 81
4, 78146, Note_on_c, 2, 67, 0
4, 78154, Note_on_c, 2, 79, 0
4, 78236, Note_on_c, 2, 67, 80
4, 78239, Note_on_c, 2, 79, 90
4, 78332, Note_on_c, 2, 67, 0
4, 78344, Note_on_c, 2, 79, 0
4, 78480, Note_on_c, 2, 79, 78
4, 78484, Note_on_c, 2, 67, 90
4, 78589, Note_on_c, 2, 67, 0
4, 78594, Note_on_c, 2, 79, 0
4, 78717, Note_on_c, 2, 67, 82
4, 78723, Note_on_c, 2, 79, 82
4, 79216, Note_on_c, 2, 67, 0
4, 79237, Note_on_c, 2, 79, 0
4, 79679, Note_on_c, 2, 79, 80
4, 79680, Note_on_c, 2, 67, 90
4, 80091, Note_on_c, 2, 67, 0
4, 80091, Note_on_c, 2, 79, 0
4, 80160, Note_on_c, 2, 67, 91
4, 80160, Note_on_c, 2, 79, 83
4, 80239, Note_on_c, 2, 67, 0
4, 80244, Note_on_c, 2, 79, 0
4, 80397, Note_on_c, 2, 69, 93
4, 80397, Note_on_c, 2, 81, 84
4, 80489, Note_on_c, 2, 81, 0
4, 80490, Note_on_c, 2, 69, 0
4, 80639, Note_on_c, 2, 71, 87
4, 80639, Note_on_c, 2, 83, 94
4, 81044, Note_on_c, 2, 83, 0
4, 81045, Note_on_c, 2, 71, 0
4, 81119, Note_on_c, 2, 71, 92
4, 81120, Note_on_c, 2, 83, 80
4, 81507, Note_on_c, 2, 83, 0
4, 81521, Note_on_c, 2, 71, 0
4, 81598, Note_on_c, 2, 78, 96
4, 81603, Note_on_c, 2, 66, 88
4, 81952, Note_on_c, 2, 78, 0
4, 81968, Note_on_c, 2, 66, 0
4, 82079, Note_on_c, 2, 66, 81
4, 82083, Note_on_c, 2, 78, 88
4, 82180, Note_on_c, 2, 66, 0
4, 82185, Note_on_c, 2, 78, 0
4, 82321, Note_on_c, 2, 68, 93
4, 82321, Note_on_c, 2, 80, 93
4, 82430, Note_on_c, 2, 80, 0
4, 82441, Note_on_c, 2, 68, 0
4, 82558, Note_on_c, 2, 81, 94
4, 82560, Note_on_c, 2, 69, 97
4, 82924, Note_on_c, 2, 81, 0
4, 82948, Note_on_c, 2, 69, 0
4, 83039, Note_on_c, 2, 81, 86
4, 83042, Note_on_c, 2, 69, 88
4, 83410, Note_on_c, 2, 81, 0
4, 83423, Note_on_c, 2, 69, 0
4, 83519, Note_on_c, 2, 64, 91
4, 83519, Note_on_c, 2, 76, 86
4, 83885, Note_on_c, 2, 76, 0
4, 83893, Note_on_c, 2, 64, 0
4, 83999, Note_on_c, 2, 76, 88
4, 84003, Note_on_c, 2, 64, 86
4, 84077, Note_on_c, 2, 76, 0
4, 84081, Note_on_c, 2, 64, 0
4, 84240, Note_on_c, 2, 64, 97
4, 84240, Note_on_c, 2, 76, 97
4, 84322, Note_on_c, 2, 64, 0
4, 84337, Note_on_c, 2, 76, 0
4, 84477, Note_on_c, 2, 64, 93
4, 84477, Note_on_c, 2, 76, 96
4, 84835, Note_on_c, 2, 76, 0
4, 84852, Note_on_c, 2, 64, 0
4, 84958, Note_on_c, 2, 76, 80
4, 84960, Note_on_c, 2, 64, 83
4, 85341, Note_on_c, 2, 76, 0
4, 85349, Note_on_c, 2, 64, 0
4, 85440, Note_on_c, 2, 76, 96
4, 85443, Note_on_c, 2, 64, 89
4, 85809, Note_on_c, 2, 64, 0
4, 85810, Note_on_c, 2, 76, 0
4, 85919, Note_on_c, 2, 78, 88
4, 85920, Note_on_c, 2, 66, 97
4, 86015, Note_on_c, 2, 66, 0
4, 86015, Note_on_c, 2, 78, 0
4, 86161, Note_on_c, 2, 68, 81
4, 86162, Note_on_c, 2, 80, 96
4, 86261, Note_on_c, 2, 68, 0
4, 86264, Note_on_c, 2, 80, 0
4, 86398, Note_on_c, 2, 69, 84
4, 86400, Note_on_c, 2, 81, 91
4, 86799, Note_on_c, 2, 69, 0
4, 86805, Note_on_c, 2, 81, 0
4, 87357, Note_on_c, 2, 67, 88
4, 87357, Note_on_c, 2, 79, 88
4, 87357, Control_c, 2, 7, 127
4, 87483, Control_c, 2, 7, 127
4, 87604, Control_c, 2, 7, 127
4, 87719, Control_c, 2, 7, 126
4, 87771, Note_on_c, 2, 67, 0
4, 87778, Note_on_c, 2, 79, 0
4, 87836, Note_on_c, 2, 79, 88
4, 87837, Control_c, 2, 7, 126
4, 87842, Note_on_c, 2, 67, 88
4, 87944, Note_on_c, 2, 79, 0
4, 87951, Note_on_c, 2, 67, 0
4, 87956, Control_c, 2, 7, 125
4, 88079, Note_on_c, 2, 81, 87
4, 88083, Note_on_c, 2, 69, 87
4, 88083, Control_c, 2, 7, 125
4, 88181, Note_on_c, 2, 81, 0
4, 88185, Note_on_c, 2, 69, 0
4, 88199, Control_c, 2, 7, 124
4, 88318, Note_on_c, 2, 71, 87
4, 88320, Note_on_c, 2, 83, 87
4, 88323, Control_c, 2, 7, 124
4, 88438, Control_c, 2, 7, 123
4, 88559, Control_c, 2, 7, 123
4, 88675, Control_c, 2, 7, 122
4, 88712, Note_on_c, 2, 83, 0
4, 88715, Note_on_c, 2, 71, 0
4, 88796, Note_on_c, 2, 71, 86
4, 88796, Note_on_c, 2, 83, 86
4, 88797, Control_c, 2, 7, 122
4, 88915, Control_c, 2, 7, 121
4, 89040, Control_c, 2, 7, 121
4, 89161, Control_c, 2, 7, 120
4, 89166, Note_on_c, 2, 83, 0
4, 89182, Note_on_c, 2, 71, 0
4, 89275, Note_on_c, 2, 78, 85
4, 89276, Note_on_c, 2, 66, 85
4, 89276, Control_c, 2, 7, 120
4, 89396, Control_c, 2, 7, 119
4, 89515, Control_c, 2, 7, 119
4, 89640, Control_c, 2, 7, 118
4, 89663, Note_on_c, 2, 78, 0
4, 89681, Note_on_c, 2, 66, 0
4, 89759, Control_c, 2, 7, 118
4, 89763, Note_on_c, 2, 66, 84
4, 89763, Note_on_c, 2, 78, 84
4, 89854, Note_on_c, 2, 78, 0
4, 89859, Note_on_c, 2, 66, 0
4, 89883, Control_c, 2, 7, 117
4, 89997, Control_c, 2, 7, 117
4, 90003, Note_on_c, 2, 68, 83
4, 90004, Note_on_c, 2, 80, 83
4, 90106, Note_on_c, 2, 80, 0
4, 90111, Note_on_c, 2, 68, 0
4, 90116, Control_c, 2, 7, 116
4, 90238, Note_on_c, 2, 69, 83
4, 90240, Control_c, 2, 7, 116
4, 90244, Note_on_c, 2, 81, 83
4, 90360, Control_c, 2, 7, 115
4, 90480, Control_c, 2, 7, 115
4, 90601, Control_c, 2, 7, 114
4, 90627, Note_on_c, 2, 81, 0
4, 90628, Note_on_c, 2, 69, 0
4, 90716, Note_on_c, 2, 69, 82
4, 90718, Note_on_c, 2, 81, 82
4, 90724, Control_c, 2, 7, 114
4, 90836, Control_c, 2, 7, 114
4, 90962, Control_c, 2, 7, 113
4, 91078, Control_c, 2, 7, 113
4, 91087, Note_on_c, 2, 81, 0
4, 91107, Note_on_c, 2, 69, 0
4, 91198, Note_on_c, 2, 76, 81
4, 91199, Control_c, 2, 7, 112
4, 91203, Note_on_c, 2, 64, 81
4, 91316, Control_c, 2, 7, 112
4, 91443, Control_c, 2, 7, 111
4, 91559, Control_c, 2, 7, 111
4, 91598, Note_on_c, 2, 76, 0
4, 91610, Note_on_c, 2, 64, 0
4, 91676, Note_on_c, 2, 64, 80
4, 91679, Control_c, 2, 7, 110
4, 91681, Note_on_c, 2, 76, 80
4, 91756, Note_on_c, 2, 76, 0
4, 91766, Note_on_c, 2, 64, 0
4, 91800, Control_c, 2, 7, 110
4, 91918, Control_c, 2, 7, 109
4, 91919, Note_on_c, 2, 76, 80
4, 91923, Note_on_c, 2, 64, 80
4, 92015, Note_on_c, 2, 76, 0
4, 92032, Note_on_c, 2, 64, 0
4, 92042, Control_c, 2, 7, 109
4, 92160, Note_on_c, 2, 64, 79
4, 92161, Note_on_c, 2, 76, 79
4, 92162, Control_c, 2, 7, 108
4, 92278, Control_c, 2, 7, 108
4, 92401, Control_c, 2, 7, 107
4, 92518, Note_on_c, 2, 76, 0
4, 92520, Control_c, 2, 7, 107
4, 92541, Note_on_c, 2, 64, 0
4, 92641, Note_on_c, 2, 76, 78
4, 92642, Note_on_c, 2, 64, 78
4, 92644, Control_c, 2, 7, 106
4, 92764, Control_c, 2, 7, 106
4, 92880, Control_c, 2, 7, 105
4, 92998, Control_c, 2, 7, 105
4, 93025, Note_on_c, 2, 76, 0
4, 93041, Note_on_c, 2, 64, 0
4, 93120, Control_c, 2, 7, 104
4, 93121, Note_on_c, 2, 76, 77
4, 93124, Note_on_c, 2, 64, 77
4, 93241, Control_c, 2, 7, 104
4, 93363, Control_c, 2, 7, 103
4, 93483, Control_c, 2, 7, 103
4, 93524, Note_on_c, 2, 76, 0
4, 93527, Note_on_c, 2, 64, 0
4, 93597, Control_c, 2, 7, 102
4, 93598, Note_on_c, 2, 78, 76
4, 93604, Note_on_c, 2, 66, 76
4, 93686, Note_on_c, 2, 78, 0
4, 93696, Note_on_c, 2, 66, 0
4, 93720, Control_c, 2, 7, 102
4, 93837, Control_c, 2, 7, 101
4, 93839, Note_on_c, 2, 80, 76
4, 93843, Note_on_c, 2, 68, 76
4, 93935, Note_on_c, 2, 80, 0
4, 93947, Note_on_c, 2, 68, 0
4, 93958, Control_c, 2, 7, 101
4, 94078, Note_on_c, 2, 69, 75
4, 94078, Note_on_c, 2, 81, 75
4, 94081, Control_c, 2, 7, 100
4, 94526, Note_on_c, 2, 81, 0
4, 94535, Note_on_c, 2, 69, 0
4, 95041, Note_on_c, 2, 74, 63
4, 95044, Note_on_c, 2, 71, 63
4, 95462, Note_on_c, 2, 74, 0
4, 95480, Note_on_c, 2, 71, 0
4, 95520, Note_on_c, 2, 74, 64
4, 95522, Note_on_c, 2, 71, 64
4, 95606, Note_on_c, 2, 74, 0
4, 95625, Note_on_c, 2, 71, 0
4, 95759, Note_on_c, 2, 74, 65
4, 95764, Note_on_c, 2, 71, 65
4, 95836, Note_on_c, 2, 74, 0
4, 95874, Note_on_c, 2, 71, 0
4, 95997, Note_on_c, 2, 69, 65
4, 95999, Note_on_c, 2, 72, 65
4, 96308, Note_on_c, 2, 72, 0
4, 96338, Note_on_c, 2, 69, 0
4, 96960, System_exclusive, 10, 65, 16, 66, 18, 64, 19, 52, 69, 52, 247
4, 96960, System_exclusive, 10, 65, 16, 66, 18, 64, 19, 53, 114, 6, 247
4, 97435, Note_on_c, 2, 76, 69
4, 98395, Note_on_c, 2, 73, 68
4, 98456, Note_on_c, 2, 76, 0
4, 98876, Note_on_c, 2, 69, 65
4, 98929, Note_on_c, 2, 73, 0
4, 99356, Note_on_c, 2, 73, 66
4, 99410, Note_on_c, 2, 69, 0
4, 99835, Note_on_c, 2, 73, 0
4, 99843, Note_on_c, 2, 73, 65
4, 100315, Note_on_c, 2, 71, 68
4, 100319, Note_on_c, 2, 62, 67
4, 100357, Note_on_c, 2, 73, 0
4, 101276, Note_on_c, 2, 61, 69
4, 101284, Note_on_c, 2, 69, 67
4, 101415, Note_on_c, 2, 71, 0
4, 101421, Note_on_c, 2, 62, 0
4, 101760, Note_on_c, 2, 59, 69
4, 101763, Note_on_c, 2, 68, 65
4, 101817, Note_on_c, 2, 61, 0
4, 101824, Note_on_c, 2, 69, 0
4, 102238, Note_on_c, 2, 69, 65
4, 102239, Note_on_c, 2, 61, 68
4, 102272, Note_on_c, 2, 59, 0
4, 102278, Note_on_c, 2, 68, 0
4, 102719, Note_on_c, 2, 62, 65
4, 102721, Note_on_c, 2, 71, 66
4, 102809, Note_on_c, 2, 69, 0
4, 102815, Note_on_c, 2, 61, 0
4, 103200, Note_on_c, 2, 73, 65
4, 103205, Note_on_c, 2, 64, 69
4, 103289, Note_on_c, 2, 71, 0
4, 103291, Note_on_c, 2, 62, 0
4, 103682, Note_on_c, 2, 66, 66
4, 103682, Note_on_c, 2, 74, 63
4, 103741, Note_on_c, 2, 73, 0
4, 103752, Note_on_c, 2, 64, 0
4, 104155, Note_on_c, 2, 76, 70
4, 104162, Note_on_c, 2, 68, 67
4, 104241, Note_on_c, 2, 66, 0
4, 104243, Note_on_c, 2, 74, 0
4, 104640, Note_on_c, 2, 71, 68
4, 104640, Note_on_c, 2, 74, 67
4, 104740, Note_on_c, 2, 76, 0
4, 104745, Note_on_c, 2, 68, 0
4, 105117, Note_on_c, 2, 69, 69
4, 105117, Note_on_c, 2, 73, 65
4, 105224, Note_on_c, 2, 71, 0
4, 105224, Note_on_c, 2, 74, 0
4, 105377, Note_on_c, 2, 69, 0
4, 105390, Note_on_c, 2, 81, 65
4, 105598, Note_on_c, 2, 81, 0
4, 105599, Note_on_c, 2, 73, 0
4, 105603, Note_on_c, 2, 81, 66
4, 105604, Note_on_c, 2, 73, 65
4, 106078, Note_on_c, 2, 76, 67
4, 106129, Note_on_c, 2, 81, 0
4, 106555, Note_on_c, 2, 69, 67
4, 106629, Note_on_c, 2, 76, 0
4, 107041, Note_on_c, 2, 76, 67
4, 107098, Note_on_c, 2, 69, 0
4, 107513, Note_on_c, 2, 76, 0
4, 107520, Note_on_c, 2, 73, 0
4, 107520, Note_on_c, 2, 76, 66
4, 107523, Note_on_c, 2, 73, 65
4, 108001, Note_on_c, 2, 74, 68
4, 108003, Note_on_c, 2, 78, 65
4, 108082, Note_on_c, 2, 73, 0
4, 108083, Note_on_c, 2, 76, 0
4, 108958, Note_on_c, 2, 73, 67
4, 108959, Note_on_c, 2, 76, 66
4, 109106, Note_on_c, 2, 74, 0
4, 109107, Note_on_c, 2, 78, 0
4, 109438, Note_on_c, 2, 74, 67
4, 109447, Note_on_c, 2, 71, 68
4, 109503, Note_on_c, 2, 73, 0
4, 109505, Note_on_c, 2, 76, 0
4, 109917, Note_on_c, 2, 69, 67
4, 109919, Note_on_c, 2, 73, 67
4, 109955, Note_on_c, 2, 74, 0
4, 109968, Note_on_c, 2, 71, 0
4, 110401, Note_on_c, 2, 71, 66
4, 110402, Note_on_c, 2, 68, 67
4, 110485, Note_on_c, 2, 69, 0
4, 110490, Note_on_c, 2, 73, 0
4, 110874, Note_on_c, 2, 66, 69
4, 110882, Note_on_c, 2, 75, 66
4, 110967, Note_on_c, 2, 68, 0
4, 110967, Note_on_c, 2, 71, 0
4, 111354, Note_on_c, 2, 76, 70
4, 111363, Note_on_c, 2, 68, 69
4, 111430, Note_on_c, 2, 66, 0
4, 111440, Note_on_c, 2, 75, 0
4, 112320, Note_on_c, 2, 81, 66
4, 112330, Note_on_c, 2, 76, 0
4, 112338, Note_on_c, 2, 68, 0
4, 113031, Note_on_c, 2, 81, 0
4, 113041, Note_on_c, 2, 81, 65
4, 113278, Note_on_c, 2, 81, 0
4, 113280, System_exclusive, 10, 65, 16, 66, 18, 64, 19, 52, 64, 57, 247
4, 113286, Note_on_c, 2, 81, 67
4, 113438, Note_on_c, 2, 80, 63
4, 113463, Note_on_c, 2, 81, 0
4, 113497, Note_on_c, 2, 80, 0
4, 113598, Note_on_c, 2, 78, 65
4, 113656, Note_on_c, 2, 78, 0
4, 113762, Note_on_c, 2, 76, 69
4, 113819, Note_on_c, 2, 76, 0
4, 113924, Note_on_c, 2, 75, 69
4, 113981, Note_on_c, 2, 75, 0
4, 114077, Note_on_c, 2, 73, 66
4, 114133, Note_on_c, 2, 73, 0
4, 114240, System_exclusive, 10, 65, 16, 66, 18, 64, 19, 52, 69, 52, 247
4, 114245, Note_on_c, 2, 71, 65
4, 114715, Note_on_c, 2, 73, 65
4, 114799, Note_on_c, 2, 71, 0
4, 114956, Note_on_c, 2, 75, 67
4, 114989, Note_on_c, 2, 73, 0
4, 115167, Note_on_c, 2, 75, 0
4, 115201, Note_on_c, 2, 76, 67
4, 115841, Note_on_c, 2, 78, 71
4, 115917, Note_on_c, 2, 76, 0
4, 115998, Note_on_c, 2, 80, 67
4, 116065, Note_on_c, 2, 78, 0
4, 116147, Note_on_c, 2, 80, 0
4, 116162, Note_on_c, 2, 81, 66
4, 116870, Note_on_c, 2, 81, 0
4, 116878, Note_on_c, 2, 81, 65
4, 117113, Note_on_c, 2, 81, 0
4, 117116, Note_on_c, 2, 81, 71
4, 117277, Note_on_c, 2, 80, 66
4, 117333, Note_on_c, 2, 81, 0
4, 117441, Note_on_c, 2, 78, 67
4, 117496, Note_on_c, 2, 80, 0
4, 117598, Note_on_c, 2, 76, 67
4, 117653, Note_on_c, 2, 78, 0
4, 117757, Note_on_c, 2, 75, 66
4, 117813, Note_on_c, 2, 76, 0
4, 117926, Note_on_c, 2, 76, 65
4, 117980, Note_on_c, 2, 75, 0
4, 118079, Note_on_c, 2, 76, 0
4, 118080, Note_on_c, 2, 70, 68
4, 118083, Note_on_c, 2, 76, 67
4, 119042, Note_on_c, 2, 71, 69
4, 119148, Note_on_c, 2, 70, 0
4, 119516, Note_on_c, 2, 78, 67
4, 119659, Note_on_c, 2, 76, 0
4, 119762, Note_on_c, 2, 76, 69
4, 119821, Note_on_c, 2, 78, 0
4, 119996, Note_on_c, 2, 76, 0
4, 119999, Note_on_c, 2, 70, 68
4, 120001, Note_on_c, 2, 76, 66
4, 120046, Note_on_c, 2, 71, 0
4, 120964, Note_on_c, 2, 71, 67
4, 121065, Note_on_c, 2, 70, 0
4, 121445, Note_on_c, 2, 80, 67
4, 121578, Note_on_c, 2, 76, 0
4, 121601, Note_on_c, 2, 78, 68
4, 121663, Note_on_c, 2, 80, 0
4, 121759, Note_on_c, 2, 76, 67
4, 121819, Note_on_c, 2, 78, 0
4, 121914, Note_on_c, 2, 76, 0
4, 121920, Note_on_c, 2, 76, 66
4, 121921, Note_on_c, 2, 70, 66
4, 121968, Note_on_c, 2, 71, 0
4, 122638, Note_on_c, 2, 67, 71
4, 122671, Note_on_c, 2, 70, 0
4, 122875, Note_on_c, 2, 67, 0
4, 122881, Note_on_c, 2, 66, 69
4, 123040, Note_on_c, 2, 74, 67
4, 123150, Note_on_c, 2, 76, 0
4, 123199, Note_on_c, 2, 73, 63
4, 123260, Note_on_c, 2, 74, 0
4, 123345, Note_on_c, 2, 66, 0
4, 123358, Note_on_c, 2, 76, 64
4, 123359, Note_on_c, 2, 66, 69
4, 123411, Note_on_c, 2, 73, 0
4, 123517, Note_on_c, 2, 74, 66
4, 123572, Note_on_c, 2, 76, 0
4, 123596, Note_on_c, 2, 62, 70
4, 123597, Note_on_c, 2, 66, 0
4, 123678, Note_on_c, 2, 66, 65
4, 123738, Note_on_c, 2, 74, 0
4, 123832, Note_on_c, 2, 66, 0
4, 123836, Note_on_c, 2, 62, 0
4, 123843, Note_on_c, 2, 61, 68
4, 123845, Note_on_c, 2, 69, 66
4, 124318, Note_on_c, 2, 68, 69
4, 124319, Note_on_c, 2, 71, 69
4, 124404, Note_on_c, 2, 61, 0
4, 124406, Note_on_c, 2, 69, 0
4, 124798, Note_on_c, 2, 69, 63
4, 124800, Note_on_c, 2, 73, 68
4, 124879, Note_on_c, 2, 71, 0
4, 124881, Note_on_c, 2, 68, 0
4, 125277, Note_on_c, 2, 74, 67
4, 125279, Note_on_c, 2, 71, 66
4, 125354, Note_on_c, 2, 73, 0
4, 125357, Note_on_c, 2, 69, 0
4, 125442, Note_on_c, 2, 72, 68
4, 125442, Note_on_c, 2, 75, 68
4, 125497, Note_on_c, 2, 71, 0
4, 125498, Note_on_c, 2, 74, 0
4, 125598, Note_on_c, 2, 76, 65
4, 125604, Note_on_c, 2, 73, 69
4, 125661, Note_on_c, 2, 72, 0
4, 125662, Note_on_c, 2, 75, 0
4, 125747, Note_on_c, 2, 76, 0
4, 125758, Note_on_c, 2, 73, 0
4, 125762, Note_on_c, 2, 70, 65
4, 125762, Note_on_c, 2, 76, 64
4, 126721, Note_on_c, 2, 71, 69
4, 126828, Note_on_c, 2, 70, 0
4, 127201, Note_on_c, 2, 78, 69
4, 127337, Note_on_c, 2, 76, 0
4, 127440, Note_on_c, 2, 76, 65
4, 127509, Note_on_c, 2, 78, 0
4, 127676, Note_on_c, 2, 76, 0
4, 127680, Note_on_c, 2, 70, 67
4, 127682, Note_on_c, 2, 76, 70
4, 127721, Note_on_c, 2, 71, 0
4, 128643, Note_on_c, 2, 71, 61
4, 128747, Note_on_c, 2, 70, 0
4, 129121, Note_on_c, 2, 80, 64
4, 129261, Note_on_c, 2, 76, 0
4, 129281, Note_on_c, 2, 78, 61
4, 129341, Note_on_c, 2, 80, 0
4, 129446, Note_on_c, 2, 76, 62
4, 129502, Note_on_c, 2, 78, 0
4, 129600, System_exclusive, 10, 65, 16, 66, 18, 64, 19, 52, 64, 57, 247
4, 129600, System_exclusive, 10, 65, 16, 66, 18, 64, 19, 53, 64, 56, 247
4, 129604, Note_on_c, 2, 76, 0
4, 129649, Note_on_c, 2, 71, 0
4, 143040, Control_c, 2, 7, 127
4, 143041, Note_on_c, 2, 64, 80
4, 143044, Note_on_c, 2, 76, 79
4, 143139, Note_on_c, 2, 64, 0
4, 143142, Note_on_c, 2, 76, 0
4, 143277, Note_on_c, 2, 76, 77
4, 143283, Note_on_c, 2, 64, 81
4, 143374, Note_on_c, 2, 76, 0
4, 143377, Note_on_c, 2, 64, 0
4, 144000, Control_c, 2, 7, 100
4, 201600, Note_on_c, 2, 68, 35
4, 202053, Note_on_c, 2, 68, 0
4, 202080, Note_on_c, 2, 68, 44
4, 202202, Note_on_c, 2, 68, 0
4, 202320, Note_on_c, 2, 69, 49
4, 202439, Note_on_c, 2, 69, 0
4, 202560, Note_on_c, 2, 71, 53
4, 203008, Note_on_c, 2, 71, 0
4, 203040, Note_on_c, 2, 71, 63
4, 203159, Note_on_c, 2, 71, 0
4, 203280, Note_on_c, 2, 72, 67
4, 203399, Note_on_c, 2, 72, 0
4, 203520, Note_on_c, 2, 74, 72
4, 203968, Note_on_c, 2, 74, 0
4, 204000, Note_on_c, 2, 74, 81
4, 204121, Note_on_c, 2, 74, 0
4, 204240, Note_on_c, 2, 76, 86
4, 204356, Note_on_c, 2, 76, 0
4, 204480, Note_on_c, 2, 77, 91
4, 204720, Note_on_c, 2, 76, 95
4, 204747, Note_on_c, 2, 77, 0
4, 204840, Note_on_c, 2, 75, 98
4, 204878, Note_on_c, 2, 76, 0
4, 204960, Note_on_c, 2, 76, 100
4, 204989, Note_on_c, 2, 75, 0
4, 205080, Note_on_c, 2, 64, 102
4, 205081, Note_on_c, 2, 76, 0
4, 205145, Note_on_c, 2, 64, 0
4, 205200, Note_on_c, 2, 66, 105
4, 205262, Note_on_c, 2, 66, 0
4, 205320, Note_on_c, 2, 68, 107
4, 205384, Note_on_c, 2, 68, 0
4, 205440, Note_on_c, 2, 69, 110
4, 205500, Note_on_c, 2, 69, 0
4, 205560, Note_on_c, 2, 71, 110
4, 205617, Note_on_c, 2, 71, 0
4, 205680, Note_on_c, 2, 72, 110
4, 205748, Note_on_c, 2, 72, 0
4, 205800, Note_on_c, 2, 71, 110
4, 205860, Note_on_c, 2, 71, 0
4, 205920, Note_on_c, 2, 69, 110
4, 205981, Note_on_c, 2, 69, 0
4, 206040, Note_on_c, 2, 72, 110
4, 206102, Note_on_c, 2, 72, 0
4, 206160, Note_on_c, 2, 71, 110
4, 206224, Note_on_c, 2, 71, 0
4, 206280, Note_on_c, 2, 69, 110
4, 206343, Note_on_c, 2, 69, 0
4, 206401, Note_on_c, 2, 64, 110
4, 206464, Note_on_c, 2, 64, 0
4, 206520, Note_on_c, 2, 66, 110
4, 206579, Note_on_c, 2, 66, 0
4, 206639, Note_on_c, 2, 68, 110
4, 206705, Note_on_c, 2, 68, 0
4, 206761, Note_on_c, 2, 69, 110
4, 206825, Note_on_c, 2, 69, 0
4, 206882, Note_on_c, 2, 71, 110
4, 206942, Note_on_c, 2, 71, 0
4, 207001, Note_on_c, 2, 72, 110
4, 207064, Note_on_c, 2, 72, 0
4, 207119, Note_on_c, 2, 74, 110
4, 207185, Note_on_c, 2, 74, 0
4, 207243, Note_on_c, 2, 76, 110
4, 207308, Note_on_c, 2, 76, 0
4, 207359, Note_on_c, 2, 74, 110
4, 207423, Note_on_c, 2, 74, 0
4, 207483, Note_on_c, 2, 71, 110
4, 207545, Note_on_c, 2, 71, 0
4, 207597, Note_on_c, 2, 72, 110
4, 207666, Note_on_c, 2, 72, 0
4, 207722, Note_on_c, 2, 74, 110
4, 207788, Note_on_c, 2, 74, 0
4, 207840, Note_on_c, 2, 76, 110
4, 207901, Note_on_c, 2, 76, 0
4, 207960, Note_on_c, 2, 74, 110
4, 208022, Note_on_c, 2, 74, 0
4, 208078, Note_on_c, 2, 72, 110
4, 208147, Note_on_c, 2, 72, 0
4, 208200, Note_on_c, 2, 71, 110
4, 208261, Note_on_c, 2, 71, 0
4, 208319, Note_on_c, 2, 72, 110
4, 208381, Note_on_c, 2, 72, 0
4, 208442, Note_on_c, 2, 71, 110
4, 208497, Note_on_c, 2, 71, 0
4, 208561, Note_on_c, 2, 72, 110
4, 208624, Note_on_c, 2, 72, 0
4, 208680, Note_on_c, 2, 74, 110
4, 208740, Note_on_c, 2, 74, 0
4, 208799, Note_on_c, 2, 76, 110
4, 208858, Note_on_c, 2, 76, 0
4, 208922, Note_on_c, 2, 64, 110
4, 208987, Note_on_c, 2, 64, 0
4, 209038, Note_on_c, 2, 66, 110
4, 209103, Note_on_c, 2, 66, 0
4, 209161, Note_on_c, 2, 68, 110
4, 209223, Note_on_c, 2, 68, 0
4, 209280, Note_on_c, 2, 69, 110
4, 209342, Note_on_c, 2, 69, 0
4, 209398, Note_on_c, 2, 71, 110
4, 209453, Note_on_c, 2, 71, 0
4, 209519, Note_on_c, 2, 72, 110
4, 209587, Note_on_c, 2, 72, 0
4, 209639, Note_on_c, 2, 71, 110
4, 209705, Note_on_c, 2, 71, 0
4, 209757, Note_on_c, 2, 69, 110
4, 209814, Note_on_c, 2, 69, 0
4, 209879, Note_on_c, 2, 72, 110
4, 209939, Note_on_c, 2, 72, 0
4, 210000, Note_on_c, 2, 71, 110
4, 210062, Note_on_c, 2, 71, 0
4, 210122, Note_on_c, 2, 69, 110
4, 210187, Note_on_c, 2, 69, 0
4, 210240, Note_on_c, 2, 64, 110
4, 210306, Note_on_c, 2, 64, 0
4, 210361, Note_on_c, 2, 66, 110
4, 210421, Note_on_c, 2, 66, 0
4, 210480, Note_on_c, 2, 68, 110
4, 210545, Note_on_c, 2, 68, 0
4, 210602, Note_on_c, 2, 69, 110
4, 210662, Note_on_c, 2, 69, 0
4, 210718, Note_on_c, 2, 71, 110
4, 210776, Note_on_c, 2, 71, 0
4, 210840, Note_on_c, 2, 72, 110
4, 210901, Note_on_c, 2, 72, 0
4, 210963, Note_on_c, 2, 74, 110
4, 211025, Note_on_c, 2, 74, 0
4, 211081, Note_on_c, 2, 76, 110
4, 211146, Note_on_c, 2, 76, 0
4, 211199, Note_on_c, 2, 74, 110
4, 211261, Note_on_c, 2, 74, 0
4, 211320, Note_on_c, 2, 71, 110
4, 211377, Note_on_c, 2, 71, 0
4, 211442, Note_on_c, 2, 72, 110
4, 211509, Note_on_c, 2, 72, 0
4, 211562, Note_on_c, 2, 74, 110
4, 211628, Note_on_c, 2, 74, 0
4, 211677, Note_on_c, 2, 76, 110
4, 211740, Note_on_c, 2, 76, 0
4, 211800, Note_on_c, 2, 74, 110
4, 211859, Note_on_c, 2, 74, 0
4, 211917, Note_on_c, 2, 72, 110
4, 211982, Note_on_c, 2, 72, 0
4, 212041, Note_on_c, 2, 71, 110
4, 212108, Note_on_c, 2, 71, 0
4, 212157, Note_on_c, 2, 69, 110
4, 212611, Note_on_c, 2, 69, 0
4, 213119, Note_on_c, 2, 74, 52
4, 213121, Note_on_c, 2, 71, 50
4, 213569, Note_on_c, 2, 71, 0
4, 213571, Note_on_c, 2, 74, 0
4, 213600, Note_on_c, 2, 71, 50
4, 213601, Note_on_c, 2, 74, 51
4, 213706, Note_on_c, 2, 71, 0
4, 213706, Note_on_c, 2, 74, 0
4, 213837, Note_on_c, 2, 74, 49
4, 213839, Note_on_c, 2, 71, 51
4, 213941, Note_on_c, 2, 71, 0
4, 213943, Note_on_c, 2, 74, 0
4, 214082, Note_on_c, 2, 69, 47
4, 214083, Note_on_c, 2, 72, 50
4, 214379, Note_on_c, 2, 69, 0
4, 214383, Note_on_c, 2, 72, 0
4, 215040, System_exclusive, 10, 65, 16, 66, 18, 64, 19, 52, 69, 52, 247
4, 215040, System_exclusive, 10, 65, 16, 66, 18, 64, 19, 53, 114, 6, 247
4, 215519, Note_on_c, 2, 76, 48
4, 216478, Note_on_c, 2, 73, 65
4, 216568, Note_on_c, 2, 76, 0
4, 216959, Note_on_c, 2, 69, 61
4, 217013, Note_on_c, 2, 73, 0
4, 217441, Note_on_c, 2, 73, 62
4, 217494, Note_on_c, 2, 69, 0
4, 217919, Note_on_c, 2, 73, 0
4, 217921, Note_on_c, 2, 73, 56
4, 218399, Note_on_c, 2, 62, 63
4, 218400, Note_on_c, 2, 71, 60
4, 218475, Note_on_c, 2, 73, 0
4, 219360, Note_on_c, 2, 69, 57
4, 219361, Note_on_c, 2, 61, 59
4, 219500, Note_on_c, 2, 62, 0
4, 219502, Note_on_c, 2, 71, 0
4, 219841, Note_on_c, 2, 59, 65
4, 219841, Note_on_c, 2, 68, 61
4, 219899, Note_on_c, 2, 69, 0
4, 219902, Note_on_c, 2, 61, 0
4, 220319, Note_on_c, 2, 61, 61
4, 220319, Note_on_c, 2, 69, 64
4, 220353, Note_on_c, 2, 59, 0
4, 220354, Note_on_c, 2, 68, 0
4, 220798, Note_on_c, 2, 71, 57
4, 220799, Note_on_c, 2, 62, 56
4, 220893, Note_on_c, 2, 69, 0
4, 220897, Note_on_c, 2, 61, 0
4, 221278, Note_on_c, 2, 64, 65
4, 221279, Note_on_c, 2, 73, 62
4, 221369, Note_on_c, 2, 62, 0
4, 221369, Note_on_c, 2, 71, 0
4, 221758, Note_on_c, 2, 66, 58
4, 221760, Note_on_c, 2, 74, 62
4, 221819, Note_on_c, 2, 73, 0
4, 221827, Note_on_c, 2, 64, 0
4, 222240, Note_on_c, 2, 68, 62
4, 222241, Note_on_c, 2, 76, 64
4, 222319, Note_on_c, 2, 66, 0
4, 222323, Note_on_c, 2, 74, 0
4, 222720, Note_on_c, 2, 74, 64
4, 222722, Note_on_c, 2, 71, 61
4, 222822, Note_on_c, 2, 68, 0
4, 222826, Note_on_c, 2, 76, 0
4, 223198, Note_on_c, 2, 69, 66
4, 223198, Note_on_c, 2, 73, 63
4, 223306, Note_on_c, 2, 74, 0
4, 223308, Note_on_c, 2, 71, 0
4, 223440, Note_on_c, 2, 81, 61
4, 223456, Note_on_c, 2, 69, 0
4, 223649, Note_on_c, 2, 81, 0
4, 223674, Note_on_c, 2, 73, 0
4, 223678, Note_on_c, 2, 73, 65
4, 223678, Note_on_c, 2, 81, 59
4, 224158, Note_on_c, 2, 76, 65
4, 224202, Note_on_c, 2, 81, 0
4, 224638, Note_on_c, 2, 69, 57
4, 224709, Note_on_c, 2, 76, 0
4, 225118, Note_on_c, 2, 76, 66
4, 225181, Note_on_c, 2, 69, 0
4, 225592, Note_on_c, 2, 76, 0
4, 225595, Note_on_c, 2, 73, 0
4, 225600, Note_on_c, 2, 76, 59
4, 225602, Note_on_c, 2, 73, 63
4, 226078, Note_on_c, 2, 78, 65
4, 226079, Note_on_c, 2, 74, 59
4, 226160, Note_on_c, 2, 73, 0
4, 226160, Note_on_c, 2, 76, 0
4, 227041, Note_on_c, 2, 73, 59
4, 227041, Note_on_c, 2, 76, 66
4, 227118, Note_on_c, 2, 78, 0
4, 227122, Note_on_c, 2, 74, 0
4, 227520, Note_on_c, 2, 66, 63
4, 227522, Note_on_c, 2, 74, 64
4, 227528, Note_on_c, 2, 73, 0
4, 227528, Note_on_c, 2, 76, 0
4, 227998, Note_on_c, 2, 73, 59
4, 227999, Note_on_c, 2, 64, 65
4, 228040, Note_on_c, 2, 74, 0
4, 228043, Note_on_c, 2, 66, 0
4, 228480, Note_on_c, 2, 66, 61
4, 228480, Note_on_c, 2, 74, 58
4, 228569, Note_on_c, 2, 73, 0
4, 228570, Note_on_c, 2, 64, 0
4, 228958, Note_on_c, 2, 76, 61
4, 228960, Note_on_c, 2, 68, 58
4, 229045, Note_on_c, 2, 74, 0
4, 229046, Note_on_c, 2, 66, 0
4, 229426, Note_on_c, 2, 76, 0
4, 229440, Note_on_c, 2, 73, 62
4, 229441, Note_on_c, 2, 68, 0
4, 229442, Note_on_c, 2, 69, 60
4, 230385, Note_on_c, 2, 73, 0
4, 230390, Note_on_c, 2, 69, 0
4, 230399, Note_on_c, 2, 66, 57
4, 230402, Note_on_c, 2, 74, 61
4, 230880, Note_on_c, 2, 76, 58
4, 230882, Note_on_c, 2, 68, 56
4, 230906, Note_on_c, 2, 66, 0
4, 230910, Note_on_c, 2, 74, 0
4, 231360, Note_on_c, 2, 69, 54
4, 231361, Note_on_c, 2, 73, 49
4, 231384, Note_on_c, 2, 76, 0
4, 231386, Note_on_c, 2, 68, 0
4, 232283, Note_on_c, 2, 73, 0
4, 232288, Note_on_c, 2, 69, 0
4, 232320, Note_on_c, 2, 66, 46
4, 232320, Note_on_c, 2, 74, 47
4, 232798, Note_on_c, 2, 76, 44
4, 232799, Note_on_c, 2, 68, 49
4, 232824, Note_on_c, 2, 66, 0
4, 232826, Note_on_c, 2, 74, 0
4, 233274, System_exclusive, 10, 65, 16, 66, 18, 64, 19, 52, 64, 57, 247
4, 233275, System_exclusive, 10, 65, 16, 66, 18, 64, 19, 53, 64, 56, 247
4, 233280, Note_on_c, 2, 69, 40
4, 233303, Note_on_c, 2, 76, 0
4, 233304, Note_on_c, 2, 68, 0
4, 233726, Note_on_c, 2, 69, 0
4, 233760, Note_on_c, 2, 69, 35
4, 233873, Note_on_c, 2, 69, 0
4, 234002, Note_on_c, 2, 69, 45
4, 234115, Note_on_c, 2, 69, 0
4, 234239, Note_on_c, 2, 69, 37
4, 234714, Note_on_c, 2, 69, 0
4, 234722, Note_on_c, 2, 69, 45
4, 235170, Note_on_c, 2, 69, 0
4, 235198, Note_on_c, 2, 69, 44
4, 235642, Note_on_c, 2, 69, 0
4, 235680, Note_on_c, 2, 69, 44
4, 235794, Note_on_c, 2, 69, 0
4, 235920, Note_on_c, 2, 69, 38
4, 236032, Note_on_c, 2, 69, 0
4, 236162, Note_on_c, 2, 69, 43
4, 236638, Note_on_c, 2, 69, 0
4, 236642, Note_on_c, 2, 69, 38
4, 237088, Note_on_c, 2, 69, 0
4, 237119, Note_on_c, 2, 71, 64
4, 237120, Note_on_c, 2, 74, 69
4, 237561, Note_on_c, 2, 71, 0
4, 237567, Note_on_c, 2, 74, 0
4, 237598, Note_on_c, 2, 69, 64
4, 237600, Note_on_c, 2, 72, 70
4, 237715, Note_on_c, 2, 72, 0
4, 237716, Note_on_c, 2, 69, 0
4, 237839, Note_on_c, 2, 71, 60
4, 237841, Note_on_c, 2, 74, 70
4, 237953, Note_on_c, 2, 74, 0
4, 237956, Note_on_c, 2, 71, 0
4, 238078, Note_on_c, 2, 72, 65
4, 238081, Note_on_c, 2, 76, 66
4, 238373, Note_on_c, 2, 72, 0
4, 238373, Note_on_c, 2, 76, 0
4, 240962, Note_on_c, 2, 71, 59
4, 240962, Note_on_c, 2, 74, 61
4, 241405, Note_on_c, 2, 71, 0
4, 241405, Note_on_c, 2, 74, 0
4, 241440, Note_on_c, 2, 72, 58
4, 241443, Note_on_c, 2, 69, 62
4, 241556, Note_on_c, 2, 72, 0
4, 241559, Note_on_c, 2, 69, 0
4, 241681, Note_on_c, 2, 74, 67
4, 241683, Note_on_c, 2, 71, 58
4, 241796, Note_on_c, 2, 74, 0
4, 241797, Note_on_c, 2, 71, 0
4, 241920, Note_on_c, 2, 76, 59
4, 241922, Note_on_c, 2, 72, 68
4, 242216, Note_on_c, 2, 72, 0
4, 242216, Note_on_c, 2, 76, 0
4, 246719, Note_on_c, 2, 68, 36
4, 246720, Note_on_c, 2, 76, 43
4, 247163, Note_on_c, 2, 76, 0
4, 247164, Note_on_c, 2, 68, 0
4, 247200, Note_on_c, 2, 68, 41
4, 247203, Note_on_c, 2, 76, 35
4, 247298, Note_on_c, 2, 68, 0
4, 247300, Note_on_c, 2, 76, 0
4, 247439, Note_on_c, 2, 68, 42
4, 247439, Note_on_c, 2, 76, 45
4, 247538, Note_on_c, 2, 76, 0
4, 247539, Note_on_c, 2, 68, 0
4, 247676, Note_on_c, 2, 69, 42
4, 247682, Note_on_c, 2, 76, 41
4, 248119, Note_on_c, 2, 69, 0
4, 248129, Note_on_c, 2, 76, 0
4, 248159, Note_on_c, 2, 76, 45
4, 248160, Note_on_c, 2, 69, 38
4, 248603, Note_on_c, 2, 76, 0
4, 248604, Note_on_c, 2, 69, 0
4, 254400, Note_on_c, 2, 78, 39
4, 254401, Note_on_c, 2, 71, 35
4, 254842, Note_on_c, 2, 71, 0
4, 254846, Note_on_c, 2, 78, 0
4, 254881, Note_on_c, 2, 71, 40
4, 254883, Note_on_c, 2, 78, 42
4, 254990, Note_on_c, 2, 71, 0
4, 254990, Note_on_c, 2, 78, 0
4, 255117, Note_on_c, 2, 80, 42
4, 255120, Note_on_c, 2, 71, 36
4, 255227, Note_on_c, 2, 80, 0
4, 255229, Note_on_c, 2, 71, 0
4, 255361, Note_on_c, 2, 81, 39
4, 255363, Note_on_c, 2, 69, 40
4, 255805, Note_on_c, 2, 81, 0
4, 255806, Note_on_c, 2, 69, 0
4, 255838, Note_on_c, 2, 81, 43
4, 255842, Note_on_c, 2, 69, 41
4, 256284, Note_on_c, 2, 81, 0
4, 256286, Note_on_c, 2, 69, 0
4, 260158, Note_on_c, 2, 74, 43
4, 260160, Note_on_c, 2, 71, 42
4, 260602, Note_on_c, 2, 74, 0
4, 260603, Note_on_c, 2, 71, 0
4, 260639, Note_on_c, 2, 71, 36
4, 260640, Note_on_c, 2, 74, 40
4, 260748, Note_on_c, 2, 71, 0
4, 260750, Note_on_c, 2, 74, 0
4, 260881, Note_on_c, 2, 74, 39
4, 260882, Note_on_c, 2, 71, 40
4, 260990, Note_on_c, 2, 71, 0
4, 260990, Note_on_c, 2, 74, 0
4, 261121, Note_on_c, 2, 69, 39
4, 261122, Note_on_c, 2, 72, 35
4, 261562, Note_on_c, 2, 69, 0
4, 261565, Note_on_c, 2, 72, 0
4, 264960, Note_on_c, 2, 64, 63
4, 264960, Note_on_c, 2, 69, 63
4, 264960, Control_c, 2, 7, 100
4, 265000, Control_c, 2, 7, 99
4, 265020, Control_c, 2, 7, 98
4, 265060, Control_c, 2, 7, 96
4, 265080, Control_c, 2, 7, 95
4, 265100, Control_c, 2, 7, 94
4, 265140, Control_c, 2, 7, 92
4, 265160, Control_c, 2, 7, 91
4, 265180, Control_c, 2, 7, 90
4, 265220, Control_c, 2, 7, 88
4, 265240, Control_c, 2, 7, 88
4, 265280, Control_c, 2, 7, 86
4, 265300, Control_c, 2, 7, 85
4, 265320, Control_c, 2, 7, 84
4, 265360, Control_c, 2, 7, 82
4, 265380, Control_c, 2, 7, 81
4, 265400, Control_c, 2, 7, 80
4, 265440, Control_c, 2, 7, 78
4, 265460, Control_c, 2, 7, 77
4, 265500, Control_c, 2, 7, 75
4, 265520, Control_c, 2, 7, 75
4, 265540, Control_c, 2, 7, 74
4, 265580, Control_c, 2, 7, 72
4, 265600, Control_c, 2, 7, 71
4, 265620, Control_c, 2, 7, 70
4, 265660, Control_c, 2, 7, 68
4, 265680, Control_c, 2, 7, 67
4, 265720, Control_c, 2, 7, 65
4, 265740, Control_c, 2, 7, 64
4, 265760, Control_c, 2, 7, 63
4, 265800, Control_c, 2, 7, 62
4, 265820, Control_c, 2, 7, 61
4, 265840, Control_c, 2, 7, 60
4, 265880, Control_c, 2, 7, 58
4, 265900, Control_c, 2, 7, 57
4, 265920, Control_c, 2, 7, 56
4, 265960, Control_c, 2, 7, 54
4, 265980, Control_c, 2, 7, 53
4, 266020, Control_c, 2, 7, 51
4, 266040, Control_c, 2, 7, 50
4, 266060, Control_c, 2, 7, 50
4, 266100, Control_c, 2, 7, 48
4, 266120, Control_c, 2, 7, 47
4, 266140, Control_c, 2, 7, 46
4, 266180, Control_c, 2, 7, 44
4, 266200, Control_c, 2, 7, 43
4, 266240, Control_c, 2, 7, 41
4, 266260, Control_c, 2, 7, 40
4, 266280, Control_c, 2, 7, 39
4, 266320, Control_c, 2, 7, 38
4, 266340, Control_c, 2, 7, 37
4, 266360, Control_c, 2, 7, 36
4, 266400, Control_c, 2, 7, 34
4, 266420, Control_c, 2, 7, 33
4, 266460, Control_c, 2, 7, 31
4, 266480, Control_c, 2, 7, 30
4, 266500, Control_c, 2, 7, 29
4, 266540, Control_c, 2, 7, 27
4, 266560, Control_c, 2, 7, 26
4, 266580, Control_c, 2, 7, 25
4, 267233, Note_on_c, 2, 64, 0
4, 267235, Note_on_c, 2, 69, 0
4, 267235, End_track
5, 0, Start_track
5, 0, Channel_prefix, 3
5, 0, Title_t, "Bassoon "
5, 0, Instrument_name_t, "Fagotti "
5, 957, Control_c, 3, 99, 1
5, 958, Control_c, 3, 98, 9
5, 959, Control_c, 3, 6, 14
5, 960, Program_c, 3, 70
5, 960, System_exclusive, 10, 65, 16, 66, 18, 64, 20, 52, 74, 46, 247
5, 961, Note_on_c, 3, 60, 40
5, 964, Note_on_c, 3, 57, 49
5, 1080, Control_c, 3, 7, 97
5, 1200, Control_c, 3, 7, 93
5, 1320, Control_c, 3, 7, 90
5, 1440, Control_c, 3, 7, 86
5, 1560, Control_c, 3, 7, 83
5, 1680, Control_c, 3, 7, 79
5, 1800, Control_c, 3, 7, 76
5, 1920, Control_c, 3, 7, 72
5, 2040, Control_c, 3, 7, 69
5, 2160, Control_c, 3, 7, 65
5, 2280, Control_c, 3, 7, 62
5, 2400, Control_c, 3, 7, 58
5, 2520, Control_c, 3, 7, 55
5, 2640, Control_c, 3, 7, 51
5, 2760, Control_c, 3, 7, 48
5, 2880, Control_c, 3, 7, 44
5, 3000, Control_c, 3, 7, 41
5, 3120, Control_c, 3, 7, 37
5, 3240, Control_c, 3, 7, 34
5, 3359, Note_on_c, 3, 60, 0
5, 3360, Control_c, 3, 7, 30
5, 3364, Note_on_c, 3, 57, 0
5, 3810, System_exclusive, 10, 65, 16, 66, 18, 64, 20, 52, 64, 56, 247
5, 64317, Control_c, 3, 7, 127
5, 64801, Note_on_c, 3, 60, 82
5, 64804, Note_on_c, 3, 64, 87
5, 65280, Note_on_c, 3, 64, 0
5, 65282, Note_on_c, 3, 60, 0
5, 65758, Note_on_c, 3, 66, 83
5, 65764, Note_on_c, 3, 59, 86
5, 66234, Note_on_c, 3, 66, 0
5, 66244, Note_on_c, 3, 59, 0
5, 66716, Note_on_c, 3, 62, 84
5, 66720, Note_on_c, 3, 59, 84
5, 67196, Note_on_c, 3, 62, 0
5, 67201, Note_on_c, 3, 59, 0
5, 67679, Note_on_c, 3, 64, 89
5, 67683, Note_on_c, 3, 57, 82
5, 68157, Note_on_c, 3, 64, 0
5, 68162, Note_on_c, 3, 57, 0
5, 68638, Note_on_c, 3, 64, 87
5, 68642, Note_on_c, 3, 57, 89
5, 69122, Note_on_c, 3, 64, 0
5, 69124, Note_on_c, 3, 57, 0
5, 69600, Note_on_c, 3, 64, 87
5, 69601, Note_on_c, 3, 57, 88
5, 70079, Note_on_c, 3, 57, 0
5, 70082, Note_on_c, 3, 64, 0
5, 70558, Note_on_c, 3, 62, 89
5, 70564, Note_on_c, 3, 59, 81
5, 71041, Note_on_c, 3, 62, 0
5, 71042, Note_on_c, 3, 59, 0
5, 71517, Note_on_c, 3, 57, 85
5, 71523, Note_on_c, 3, 60, 82
5, 71996, Note_on_c, 3, 57, 0
5, 72000, Note_on_c, 3, 60, 0
5, 72002, Note_on_c, 3, 52, 82
5, 72004, Note_on_c, 3, 64, 84
5, 72367, Note_on_c, 3, 52, 0
5, 72381, Note_on_c, 3, 64, 0
5, 72482, Note_on_c, 3, 52, 89
5, 72482, Note_on_c, 3, 64, 79
5, 72566, Note_on_c, 3, 52, 0
5, 72568, Note_on_c, 3, 64, 0
5, 72722, Note_on_c, 3, 64, 88
5, 72723, Note_on_c, 3, 52, 87
5, 72822, Note_on_c, 3, 52, 0
5, 72829, Note_on_c, 3, 64, 0
5, 72956, Note_on_c, 3, 52, 83
5, 72962, Note_on_c, 3, 64, 85
5, 73324, Note_on_c, 3, 64, 0
5, 73327, Note_on_c, 3, 52, 0
5, 73440, Note_on_c, 3, 52, 86
5, 73441, Note_on_c, 3, 64, 80
5, 73805, Note_on_c, 3, 52, 0
5, 73805, Note_on_c, 3, 64, 0
5, 73919, Note_on_c, 3, 52, 85
5, 73924, Note_on_c, 3, 64, 84
5, 74320, Note_on_c, 3, 52, 0
5, 74327, Note_on_c, 3, 64, 0
5, 74396, Note_on_c, 3, 52, 85
5, 74400, Note_on_c, 3, 64, 89
5, 74469, Note_on_c, 3, 52, 0
5, 74480, Note_on_c, 3, 64, 0
5, 74636, Note_on_c, 3, 52, 90
5, 74641, Note_on_c, 3, 64, 88
5, 74723, Note_on_c, 3, 52, 0
5, 74740, Note_on_c, 3, 64, 0
5, 74878, Note_on_c, 3, 64, 79
5, 74881, Note_on_c, 3, 52, 79
5, 75246, Note_on_c, 3, 52, 0
5, 75250, Note_on_c, 3, 64, 0
5, 75357, Note_on_c, 3, 52, 78
5, 75360, Note_on_c, 3, 64, 90
5, 75715, Note_on_c, 3, 52, 0
5, 75717, Note_on_c, 3, 64, 0
5, 75840, Note_on_c, 3, 52, 83
5, 75843, Note_on_c, 3, 64, 85
5, 76253, Note_on_c, 3, 52, 0
5, 76264, Note_on_c, 3, 64, 0
5, 76317, Note_on_c, 3, 64, 85
5, 76320, Note_on_c, 3, 52, 85
5, 76406, Note_on_c, 3, 52, 0
5, 76411, Note_on_c, 3, 64, 0
5, 76558, Note_on_c, 3, 54, 84
5, 76560, Note_on_c, 3, 66, 83
5, 76664, Note_on_c, 3, 54, 0
5, 76675, Note_on_c, 3, 66, 0
5, 76799, Note_on_c, 3, 55, 89
5, 76804, Note_on_c, 3, 67, 81
5, 77158, Note_on_c, 3, 55, 0
5, 77172, Note_on_c, 3, 67, 0
5, 77278, Note_on_c, 3, 67, 86
5, 77283, Note_on_c, 3, 55, 86
5, 77647, Note_on_c, 3, 67, 0
5, 77649, Note_on_c, 3, 55, 0
5, 77755, Note_on_c, 3, 67, 87
5, 77757, Note_on_c, 3, 55, 78
5, 78138, Note_on_c, 3, 55, 0
5, 78144, Note_on_c, 3, 67, 0
5, 78237, Note_on_c, 3, 67, 84
5, 78242, Note_on_c, 3, 55, 84
5, 78325, Note_on_c, 3, 55, 0
5, 78331, Note_on_c, 3, 67, 0
5, 78476, Note_on_c, 3, 67, 87
5, 78483, Note_on_c, 3, 55, 88
5, 78575, Note_on_c, 3, 67, 0
5, 78586, Note_on_c, 3, 55, 0
5, 78721, Note_on_c, 3, 55, 90
5, 78723, Note_on_c, 3, 67, 85
5, 79179, Note_on_c, 3, 55, 0
5, 79198, Note_on_c, 3, 67, 0
5, 79677, Note_on_c, 3, 55, 84
5, 80101, Note_on_c, 3, 55, 0
5, 80158, Note_on_c, 3, 55, 85
5, 80267, Note_on_c, 3, 55, 0
5, 80400, Note_on_c, 3, 57, 95
5, 80505, Note_on_c, 3, 57, 0
5, 80639, Note_on_c, 3, 59, 83
5, 81054, Note_on_c, 3, 59, 0
5, 81118, Note_on_c, 3, 59, 88
5, 81558, Note_on_c, 3, 59, 0
5, 81599, Note_on_c, 3, 54, 81
5, 81986, Note_on_c, 3, 54, 0
5, 82079, Note_on_c, 3, 54, 85
5, 82172, Note_on_c, 3, 54, 0
5, 82321, Note_on_c, 3, 56, 95
5, 82428, Note_on_c, 3, 56, 0
5, 82557, Note_on_c, 3, 57, 88
5, 82957, Note_on_c, 3, 57, 0
5, 83039, Note_on_c, 3, 57, 81
5, 83433, Note_on_c, 3, 57, 0
5, 83519, Note_on_c, 3, 52, 90
5, 83519, Note_on_c, 3, 64, 97
5, 83900, Note_on_c, 3, 52, 0
5, 83905, Note_on_c, 3, 64, 0
5, 83998, Note_on_c, 3, 64, 80
5, 84001, Note_on_c, 3, 52, 93
5, 84093, Note_on_c, 3, 52, 0
5, 84095, Note_on_c, 3, 64, 0
5, 84241, Note_on_c, 3, 64, 90
5, 84243, Note_on_c, 3, 52, 96
5, 84354, Note_on_c, 3, 52, 0
5, 84360, Note_on_c, 3, 64, 0
5, 84477, Note_on_c, 3, 52, 88
5, 84478, Note_on_c, 3, 64, 88
5, 84861, Note_on_c, 3, 52, 0
5, 84870, Note_on_c, 3, 64, 0
5, 84959, Note_on_c, 3, 52, 95
5, 84961, Note_on_c, 3, 64, 97
5, 85378, Note_on_c, 3, 52, 0
5, 85390, Note_on_c, 3, 64, 0
5, 85436, Note_on_c, 3, 64, 82
5, 85439, Note_on_c, 3, 52, 90
5, 85797, Note_on_c, 3, 64, 0
5, 85808, Note_on_c, 3, 52, 0
5, 85918, Note_on_c, 3, 54, 87
5, 86022, Note_on_c, 3, 54, 0
5, 86156, Note_on_c, 3, 56, 93
5, 86250, Note_on_c, 3, 56, 0
5, 86400, Note_on_c, 3, 57, 88
5, 86758, Note_on_c, 3, 57, 0
5, 87359, Control_c, 3, 7, 127
5, 87364, Note_on_c, 3, 55, 88
5, 87480, Control_c, 3, 7, 127
5, 87599, Control_c, 3, 7, 127
5, 87720, Control_c, 3, 7, 126
5, 87779, Note_on_c, 3, 55, 0
5, 87842, Note_on_c, 3, 55, 87
5, 87844, Control_c, 3, 7, 126
5, 87949, Note_on_c, 3, 55, 0
5, 87960, Control_c, 3, 7, 125
5, 88079, Note_on_c, 3, 57, 87
5, 88081, Control_c, 3, 7, 125
5, 88175, Note_on_c, 3, 57, 0
5, 88204, Control_c, 3, 7, 124
5, 88316, Note_on_c, 3, 59, 86
5, 88319, Control_c, 3, 7, 124
5, 88441, Control_c, 3, 7, 123
5, 88564, Control_c, 3, 7, 123
5, 88683, Control_c, 3, 7, 122
5, 88745, Note_on_c, 3, 59, 0
5, 88799, Note_on_c, 3, 59, 85
5, 88803, Control_c, 3, 7, 122
5, 88920, Control_c, 3, 7, 121
5, 89044, Control_c, 3, 7, 121
5, 89160, Control_c, 3, 7, 120
5, 89179, Note_on_c, 3, 59, 0
5, 89277, Note_on_c, 3, 54, 84
5, 89279, Control_c, 3, 7, 120
5, 89403, Control_c, 3, 7, 119
5, 89523, Control_c, 3, 7, 119
5, 89644, Control_c, 3, 7, 118
5, 89665, Note_on_c, 3, 54, 0
5, 89758, Control_c, 3, 7, 118
5, 89764, Note_on_c, 3, 54, 83
5, 89857, Note_on_c, 3, 54, 0
5, 89879, Control_c, 3, 7, 117
5, 89995, Control_c, 3, 7, 117
5, 90001, Note_on_c, 3, 56, 82
5, 90095, Note_on_c, 3, 56, 0
5, 90119, Control_c, 3, 7, 116
5, 90239, Note_on_c, 3, 57, 82
5, 90240, Control_c, 3, 7, 116
5, 90364, Control_c, 3, 7, 115
5, 90478, Control_c, 3, 7, 115
5, 90604, Control_c, 3, 7, 114
5, 90614, Note_on_c, 3, 57, 0
5, 90715, Note_on_c, 3, 57, 80
5, 90724, Control_c, 3, 7, 114
5, 90841, Control_c, 3, 7, 114
5, 90956, Control_c, 3, 7, 113
5, 91083, Control_c, 3, 7, 113
5, 91108, Note_on_c, 3, 57, 0
5, 91196, Note_on_c, 3, 52, 79
5, 91197, Note_on_c, 3, 64, 79
5, 91204, Control_c, 3, 7, 112
5, 91315, Control_c, 3, 7, 112
5, 91437, Control_c, 3, 7, 111
5, 91563, Control_c, 3, 7, 111
5, 91585, Note_on_c, 3, 52, 0
5, 91606, Note_on_c, 3, 64, 0
5, 91675, Note_on_c, 3, 52, 78
5, 91680, Note_on_c, 3, 64, 78
5, 91684, Control_c, 3, 7, 110
5, 91771, Note_on_c, 3, 52, 0
5, 91772, Note_on_c, 3, 64, 0
5, 91800, Control_c, 3, 7, 110
5, 91919, Note_on_c, 3, 64, 78
5, 91919, Control_c, 3, 7, 109
5, 91920, Note_on_c, 3, 52, 78
5, 92040, Note_on_c, 3, 64, 0
5, 92041, Note_on_c, 3, 52, 0
5, 92044, Control_c, 3, 7, 109
5, 92157, Control_c, 3, 7, 108
5, 92159, Note_on_c, 3, 52, 77
5, 92164, Note_on_c, 3, 64, 77
5, 92279, Control_c, 3, 7, 108
5, 92397, Control_c, 3, 7, 107
5, 92518, Control_c, 3, 7, 107
5, 92530, Note_on_c, 3, 64, 0
5, 92539, Note_on_c, 3, 52, 0
5, 92636, Control_c, 3, 7, 106
5, 92638, Note_on_c, 3, 64, 76
5, 92639, Note_on_c, 3, 52, 76
5, 92760, Control_c, 3, 7, 106
5, 92876, Control_c, 3, 7, 105
5, 92999, Control_c, 3, 7, 105
5, 93024, Note_on_c, 3, 64, 0
5, 93032, Note_on_c, 3, 52, 0
5, 93116, Control_c, 3, 7, 104
5, 93122, Note_on_c, 3, 52, 75
5, 93240, Control_c, 3, 7, 104
5, 93364, Control_c, 3, 7, 103
5, 93484, Control_c, 3, 7, 102
5, 93504, Note_on_c, 3, 52, 0
5, 93600, Control_c, 3, 7, 101
5, 93603, Note_on_c, 3, 54, 74
5, 93699, Note_on_c, 3, 54, 0
5, 93717, Control_c, 3, 7, 101
5, 93836, Note_on_c, 3, 56, 73
5, 93836, Control_c, 3, 7, 100
5, 93925, Note_on_c, 3, 56, 0
5, 94080, Note_on_c, 3, 57, 70
5, 94508, Note_on_c, 3, 57, 0
5, 95042, Note_on_c, 3, 59, 62
5, 95042, Note_on_c, 3, 62, 62
5, 95431, Note_on_c, 3, 59, 0
5, 95431, Note_on_c, 3, 62, 0
5, 95519, Note_on_c, 3, 62, 63
5, 95523, Note_on_c, 3, 59, 63
5, 95604, Note_on_c, 3, 62, 0
5, 95615, Note_on_c, 3, 59, 0
5, 95759, Note_on_c, 3, 62, 64
5, 95765, Note_on_c, 3, 59, 64
5, 95845, Note_on_c, 3, 62, 0
5, 95867, Note_on_c, 3, 59, 0
5, 95998, Note_on_c, 3, 57, 65
5, 95998, Note_on_c, 3, 60, 65
5, 96364, Note_on_c, 3, 60, 0
5, 96365, Note_on_c, 3, 57, 0
5, 97444, Note_on_c, 3, 64, 52
5, 98394, Note_on_c, 3, 61, 52
5, 98453, Note_on_c, 3, 64, 0
5, 98879, Note_on_c, 3, 57, 49
5, 98915, Note_on_c, 3, 61, 0
5, 99363, Note_on_c, 3, 61, 53
5, 99442, Note_on_c, 3, 57, 0
5, 99840, Note_on_c, 3, 61, 0
5, 99844, Note_on_c, 3, 61, 50
5, 100324, Note_on_c, 3, 50, 54
5, 100324, Note_on_c, 3, 59, 50
5, 100392, Note_on_c, 3, 61, 0
5, 101275, Note_on_c, 3, 57, 51
5, 101277, Note_on_c, 3, 49, 51
5, 101396, Note_on_c, 3, 50, 0
5, 101399, Note_on_c, 3, 59, 0
5, 101760, Note_on_c, 3, 47, 48
5, 101761, Note_on_c, 3, 56, 49
5, 101847, Note_on_c, 3, 49, 0
5, 101847, Note_on_c, 3, 57, 0
5, 102239, Note_on_c, 3, 49, 55
5, 102240, Note_on_c, 3, 57, 50
5, 102282, Note_on_c, 3, 47, 0
5, 102282, Note_on_c, 3, 56, 0
5, 102715, Note_on_c, 3, 59, 52
5, 102718, Note_on_c, 3, 50, 49
5, 102772, Note_on_c, 3, 49, 0
5, 102772, Note_on_c, 3, 57, 0
5, 103199, Note_on_c, 3, 52, 51
5, 103202, Note_on_c, 3, 61, 50
5, 103281, Note_on_c, 3, 59, 0
5, 103286, Note_on_c, 3, 50, 0
5, 103678, Note_on_c, 3, 54, 50
5, 103682, Note_on_c, 3, 62, 53
5, 103760, Note_on_c, 3, 52, 0
5, 103766, Note_on_c, 3, 61, 0
5, 104158, Note_on_c, 3, 64, 48
5, 104164, Note_on_c, 3, 56, 51
5, 104217, Note_on_c, 3, 54, 0
5, 104223, Note_on_c, 3, 62, 0
5, 104635, Note_on_c, 3, 59, 51
5, 104642, Note_on_c, 3, 62, 47
5, 104721, Note_on_c, 3, 64, 0
5, 104731, Note_on_c, 3, 56, 0
5, 105123, Note_on_c, 3, 57, 51
5, 105125, Note_on_c, 3, 61, 51
5, 105207, Note_on_c, 3, 59, 0
5, 105221, Note_on_c, 3, 62, 0
5, 105365, Note_on_c, 3, 64, 52
5, 105449, Note_on_c, 3, 57, 0
5, 105597, Note_on_c, 3, 64, 0
5, 105600, Note_on_c, 3, 61, 0
5, 105602, Note_on_c, 3, 61, 50
5, 105602, Note_on_c, 3, 64, 53
5, 106559, Note_on_c, 3, 57, 54
5, 106608, Note_on_c, 3, 64, 0
5, 107036, Note_on_c, 3, 64, 52
5, 107129, Note_on_c, 3, 57, 0
5, 107431, Note_on_c, 3, 64, 0
5, 107516, Note_on_c, 3, 61, 0
5, 107521, Note_on_c, 3, 61, 53
5, 107525, Note_on_c, 3, 64, 51
5, 108001, Note_on_c, 3, 62, 48
5, 108003, Note_on_c, 3, 66, 51
5, 108086, Note_on_c, 3, 64, 0
5, 108088, Note_on_c, 3, 61, 0
5, 108959, Note_on_c, 3, 64, 51
5, 108961, Note_on_c, 3, 61, 50
5, 109111, Note_on_c, 3, 66, 0
5, 109112, Note_on_c, 3, 62, 0
5, 109439, Note_on_c, 3, 59, 53
5, 109442, Note_on_c, 3, 62, 49
5, 109498, Note_on_c, 3, 64, 0
5, 109500, Note_on_c, 3, 61, 0
5, 109919, Note_on_c, 3, 61, 52
5, 109923, Note_on_c, 3, 57, 51
5, 109999, Note_on_c, 3, 59, 0
5, 110003, Note_on_c, 3, 62, 0
5, 110395, Note_on_c, 3, 56, 50
5, 110397, Note_on_c, 3, 59, 54
5, 110462, Note_on_c, 3, 57, 0
5, 110465, Note_on_c, 3, 61, 0
5, 110878, Note_on_c, 3, 54, 52
5, 110882, Note_on_c, 3, 63, 51
5, 110960, Note_on_c, 3, 56, 0
5, 110963, Note_on_c, 3, 59, 0
5, 111355, Note_on_c, 3, 56, 51
5, 111360, Note_on_c, 3, 64, 49
5, 111421, Note_on_c, 3, 54, 0
5, 111427, Note_on_c, 3, 63, 0
5, 111844, Note_on_c, 3, 52, 51
5, 111921, Note_on_c, 3, 64, 0
5, 112302, Note_on_c, 3, 52, 0
5, 112318, Note_on_c, 3, 57, 49
5, 112320, Note_on_c, 3, 54, 54
5, 112335, Note_on_c, 3, 56, 0
5, 113283, Note_on_c, 3, 52, 51
5, 113286, Note_on_c, 3, 56, 49
5, 113407, Note_on_c, 3, 57, 0
5, 113414, Note_on_c, 3, 54, 0
5, 114236, Note_on_c, 3, 57, 51
5, 114242, Note_on_c, 3, 54, 50
5, 114369, Note_on_c, 3, 52, 0
5, 114371, Note_on_c, 3, 56, 0
5, 115198, Note_on_c, 3, 52, 52
5, 115203, Note_on_c, 3, 56, 51
5, 115324, Note_on_c, 3, 57, 0
5, 115329, Note_on_c, 3, 54, 0
5, 116154, Note_on_c, 3, 57, 54
5, 116160, Note_on_c, 3, 54, 51
5, 116283, Note_on_c, 3, 52, 0
5, 116291, Note_on_c, 3, 56, 0
5, 117115, Note_on_c, 3, 56, 54
5, 117119, Note_on_c, 3, 52, 52
5, 117151, Note_on_c, 3, 57, 0
5, 117157, Note_on_c, 3, 54, 0
5, 117595, Note_on_c, 3, 59, 50
5, 117695, Note_on_c, 3, 52, 0
5, 117696, Note_on_c, 3, 56, 0
5, 118078, Note_on_c, 3, 59, 0
5, 118085, Note_on_c, 3, 58, 52
5, 119037, Note_on_c, 3, 59, 52
5, 119172, Note_on_c, 3, 58, 0
5, 119999, Note_on_c, 3, 58, 54
5, 120033, Note_on_c, 3, 59, 0
5, 120960, Note_on_c, 3, 59, 49
5, 121090, Note_on_c, 3, 58, 0
5, 121917, Note_on_c, 3, 58, 51
5, 121948, Note_on_c, 3, 59, 0
5, 122394, Note_on_c, 3, 64, 51
5, 122396, Note_on_c, 3, 58, 0
5, 122406, Note_on_c, 3, 49, 50
5, 122873, Note_on_c, 3, 50, 50
5, 122888, Note_on_c, 3, 49, 0
5, 123043, Note_on_c, 3, 62, 50
5, 123104, Note_on_c, 3, 64, 0
5, 123197, Note_on_c, 3, 61, 48
5, 123262, Note_on_c, 3, 62, 0
5, 123359, Note_on_c, 3, 64, 54
5, 123411, Note_on_c, 3, 61, 0
5, 123519, Note_on_c, 3, 62, 53
5, 123573, Note_on_c, 3, 64, 0
5, 123680, Note_on_c, 3, 54, 52
5, 123735, Note_on_c, 3, 62, 0
5, 123831, Note_on_c, 3, 54, 0
5, 123836, Note_on_c, 3, 57, 52
5, 123837, Note_on_c, 3, 49, 49
5, 123866, Note_on_c, 3, 50, 0
5, 124314, Note_on_c, 3, 59, 52
5, 124320, Note_on_c, 3, 52, 52
5, 124413, Note_on_c, 3, 57, 0
5, 124417, Note_on_c, 3, 49, 0
5, 124798, Note_on_c, 3, 57, 52
5, 124800, Note_on_c, 3, 61, 52
5, 124889, Note_on_c, 3, 59, 0
5, 124902, Note_on_c, 3, 52, 0
5, 125282, Note_on_c, 3, 59, 49
5, 125282, Note_on_c, 3, 62, 54
5, 125375, Note_on_c, 3, 61, 0
5, 125382, Note_on_c, 3, 57, 0
5, 125438, Note_on_c, 3, 60, 52
5, 125442, Note_on_c, 3, 63, 51
5, 125498, Note_on_c, 3, 59, 0
5, 125502, Note_on_c, 3, 62, 0
5, 125596, Note_on_c, 3, 64, 51
5, 125600, Note_on_c, 3, 61, 53
5, 125658, Note_on_c, 3, 63, 0
5, 125659, Note_on_c, 3, 60, 0
5, 125754, Note_on_c, 3, 64, 0
5, 125755, Note_on_c, 3, 61, 0
5, 125758, Note_on_c, 3, 58, 52
5, 126727, Note_on_c, 3, 59, 48
5, 126850, Note_on_c, 3, 58, 0
5, 127681, Note_on_c, 3, 58, 53
5, 127817, Note_on_c, 3, 59, 0
5, 128642, Note_on_c, 3, 59, 51
5, 128772, Note_on_c, 3, 58, 0
5, 129598, Note_on_c, 3, 58, 50
5, 129635, Note_on_c, 3, 59, 0
5, 130076, Note_on_c, 3, 64, 52
5, 130559, Note_on_c, 3, 65, 51
5, 130563, Note_on_c, 3, 57, 52
5, 130658, Note_on_c, 3, 64, 0
5, 130688, Note_on_c, 3, 58, 0
5, 131034, Note_on_c, 3, 57, 0
5, 131041, Note_on_c, 3, 57, 53
5, 131042, Note_on_c, 3, 65, 0
5, 131043, Note_on_c, 3, 53, 55
5, 131515, Note_on_c, 3, 55, 52
5, 131520, Note_on_c, 3, 52, 50
5, 131527, Note_on_c, 3, 53, 0
5, 131530, Note_on_c, 3, 57, 0
5, 132001, Note_on_c, 3, 53, 49
5, 132001, Note_on_c, 3, 55, 0
5, 132001, Note_on_c, 3, 59, 47
5, 132003, Note_on_c, 3, 52, 0
5, 132480, Note_on_c, 3, 60, 50
5, 132483, Note_on_c, 3, 52, 52
5, 132485, Note_on_c, 3, 53, 0
5, 132486, Note_on_c, 3, 59, 0
5, 132967, Note_on_c, 3, 60, 0
5, 132969, Note_on_c, 3, 52, 0
5, 135362, Note_on_c, 3, 65, 80
5, 136067, Note_on_c, 3, 65, 0
5, 136081, Note_on_c, 3, 65, 80
5, 136296, Note_on_c, 3, 65, 0
5, 136317, Note_on_c, 3, 65, 77
5, 136479, Note_on_c, 3, 64, 83
5, 136513, Note_on_c, 3, 65, 0
5, 136552, Note_on_c, 3, 64, 0
5, 136639, Note_on_c, 3, 62, 85
5, 136701, Note_on_c, 3, 62, 0
5, 136798, Note_on_c, 3, 60, 81
5, 136873, Note_on_c, 3, 60, 0
5, 136961, Note_on_c, 3, 59, 85
5, 137032, Note_on_c, 3, 59, 0
5, 137118, Note_on_c, 3, 57, 79
5, 137190, Note_on_c, 3, 57, 0
5, 137280, Note_on_c, 3, 55, 85
5, 137280, Control_c, 3, 7, 100
5, 137400, Control_c, 3, 7, 103
5, 137520, Control_c, 3, 7, 106
5, 137640, Control_c, 3, 7, 110
5, 137760, Control_c, 3, 7, 113
5, 137762, Note_on_c, 3, 59, 82
5, 137815, Note_on_c, 3, 55, 0
5, 137880, Control_c, 3, 7, 116
5, 137998, Note_on_c, 3, 62, 75
5, 138000, Control_c, 3, 7, 120
5, 138053, Note_on_c, 3, 59, 0
5, 138120, Control_c, 3, 7, 123
5, 138231, Note_on_c, 3, 62, 0
5, 138240, Control_c, 3, 7, 127
5, 138241, Note_on_c, 3, 65, 80
5, 138351, Note_on_c, 3, 65, 0
5, 138397, Note_on_c, 3, 64, 80
5, 138471, Note_on_c, 3, 64, 0
5, 138559, Note_on_c, 3, 62, 85
5, 138621, Note_on_c, 3, 62, 0
5, 138720, Note_on_c, 3, 60, 84
5, 138793, Note_on_c, 3, 60, 0
5, 138879, Note_on_c, 3, 59, 75
5, 138954, Note_on_c, 3, 59, 0
5, 139043, Note_on_c, 3, 57, 84
5, 139118, Note_on_c, 3, 57, 0
5, 139197, Note_on_c, 3, 55, 80
5, 139460, Note_on_c, 3, 55, 0
5, 143522, Note_on_c, 3, 64, 77
5, 143619, Note_on_c, 3, 64, 0
5, 143759, Note_on_c, 3, 64, 82
5, 143855, Note_on_c, 3, 64, 0
5, 144000, Control_c, 3, 7, 100
5, 144002, Note_on_c, 3, 60, 66
5, 144961, Note_on_c, 3, 59, 61
5, 144997, Note_on_c, 3, 60, 0
5, 145840, Note_on_c, 3, 59, 0
5, 145907, Note_on_c, 3, 59, 66
5, 145958, Note_on_c, 3, 60, 62
5, 145987, Note_on_c, 3, 59, 0
5, 146035, Note_on_c, 3, 62, 63
5, 146071, Note_on_c, 3, 60, 0
5, 146561, Note_on_c, 3, 60, 64
5, 146576, Note_on_c, 3, 62, 0
5, 146720, Note_on_c, 3, 59, 68
5, 146748, Note_on_c, 3, 60, 0
5, 146841, Note_on_c, 3, 59, 0
5, 146878, Note_on_c, 3, 59, 61
5, 147121, Note_on_c, 3, 60, 64
5, 147192, Note_on_c, 3, 59, 0
5, 147331, Note_on_c, 3, 60, 0
5, 147357, Note_on_c, 3, 60, 66
5, 147667, Note_on_c, 3, 60, 0
5, 147837, Note_on_c, 3, 60, 60
5, 148559, Note_on_c, 3, 62, 63
5, 148582, Note_on_c, 3, 60, 0
5, 148786, Note_on_c, 3, 62, 0
5, 148800, Note_on_c, 3, 63, 60
5, 149040, Note_on_c, 3, 64, 62
5, 149074, Note_on_c, 3, 63, 0
5, 149166, Note_on_c, 3, 64, 0
5, 149281, Note_on_c, 3, 64, 62
5, 149416, Note_on_c, 3, 64, 0
5, 149519, Note_on_c, 3, 64, 60
5, 149629, Note_on_c, 3, 64, 0
5, 149745, Note_on_c, 3, 62, 66
5, 149792, Note_on_c, 3, 64, 64
5, 149821, Note_on_c, 3, 62, 0
5, 149866, Note_on_c, 3, 65, 66
5, 149894, Note_on_c, 3, 64, 0
5, 150397, Note_on_c, 3, 64, 60
5, 150455, Note_on_c, 3, 65, 0
5, 150559, Note_on_c, 3, 62, 64
5, 150580, Note_on_c, 3, 64, 0
5, 150710, Note_on_c, 3, 62, 0
5, 150722, Note_on_c, 3, 62, 66
5, 150957, Note_on_c, 3, 64, 61
5, 151003, Note_on_c, 3, 62, 0
5, 151185, Note_on_c, 3, 64, 0
5, 151200, Note_on_c, 3, 64, 67
5, 151596, Note_on_c, 3, 64, 0
5, 151680, Note_on_c, 3, 64, 63
5, 152403, Note_on_c, 3, 66, 65
5, 152404, Note_on_c, 3, 64, 0
5, 152637, Note_on_c, 3, 64, 63
5, 152662, Note_on_c, 3, 66, 0
5, 153123, Note_on_c, 3, 63, 68
5, 153161, Note_on_c, 3, 64, 0
5, 153481, Note_on_c, 3, 63, 0
5, 153600, Note_on_c, 3, 62, 64
5, 154312, Note_on_c, 3, 62, 0
5, 154320, Note_on_c, 3, 64, 64
5, 154561, Note_on_c, 3, 62, 62
5, 154575, Note_on_c, 3, 64, 0
5, 154799, Note_on_c, 3, 61, 63
5, 154848, Note_on_c, 3, 62, 0
5, 155039, Note_on_c, 3, 60, 63
5, 155079, Note_on_c, 3, 61, 0
5, 155379, Note_on_c, 3, 60, 0
5, 155522, Note_on_c, 3, 60, 62
5, 156466, Note_on_c, 3, 60, 0
5, 156477, Note_on_c, 3, 59, 64
5, 156963, Note_on_c, 3, 60, 60
5, 157008, Note_on_c, 3, 59, 0
5, 157379, Note_on_c, 3, 60, 0
5, 157449, Note_on_c, 3, 59, 67
5, 157504, Note_on_c, 3, 60, 67
5, 157528, Note_on_c, 3, 59, 0
5, 157587, Note_on_c, 3, 62, 64
5, 157624, Note_on_c, 3, 60, 0
5, 158082, Note_on_c, 3, 60, 68
5, 158098, Note_on_c, 3, 62, 0
5, 158240, Note_on_c, 3, 59, 64
5, 158260, Note_on_c, 3, 60, 0
5, 158360, Note_on_c, 3, 59, 0
5, 158397, Note_on_c, 3, 57, 62
5, 158486, Note_on_c, 3, 57, 0
5, 158562, Note_on_c, 3, 57, 61
5, 158722, Note_on_c, 3, 59, 68
5, 158737, Note_on_c, 3, 57, 0
5, 158869, Note_on_c, 3, 59, 0
5, 158881, Note_on_c, 3, 60, 65
5, 158969, Note_on_c, 3, 60, 0
5, 159040, Note_on_c, 3, 60, 61
5, 159200, Note_on_c, 3, 62, 66
5, 159219, Note_on_c, 3, 60, 0
5, 159346, Note_on_c, 3, 62, 0
5, 159362, Note_on_c, 3, 64, 60
5, 160082, Note_on_c, 3, 66, 62
5, 160131, Note_on_c, 3, 64, 0
5, 160317, Note_on_c, 3, 64, 61
5, 160376, Note_on_c, 3, 66, 0
5, 160802, Note_on_c, 3, 63, 62
5, 160883, Note_on_c, 3, 64, 0
5, 161050, Note_on_c, 3, 63, 0
5, 161278, Note_on_c, 3, 62, 62
5, 161442, Note_on_c, 3, 59, 67
5, 161458, Note_on_c, 3, 62, 0
5, 161601, Note_on_c, 3, 61, 65
5, 161604, Note_on_c, 3, 59, 0
5, 161762, Note_on_c, 3, 62, 60
5, 161811, Note_on_c, 3, 61, 0
5, 161921, Note_on_c, 3, 64, 62
5, 161955, Note_on_c, 3, 62, 0
5, 162083, Note_on_c, 3, 62, 63
5, 162118, Note_on_c, 3, 64, 0
5, 162230, Note_on_c, 3, 62, 0
5, 162238, Note_on_c, 3, 62, 62
5, 162483, Note_on_c, 3, 61, 65
5, 162544, Note_on_c, 3, 62, 0
5, 162722, Note_on_c, 3, 60, 67
5, 162772, Note_on_c, 3, 61, 0
5, 163042, Note_on_c, 3, 60, 0
5, 163199, Note_on_c, 3, 60, 63
5, 164142, Note_on_c, 3, 60, 0
5, 164159, Note_on_c, 3, 59, 67
5, 164642, Note_on_c, 3, 60, 62
5, 164680, Note_on_c, 3, 59, 0
5, 165063, Note_on_c, 3, 60, 0
5, 165100, Note_on_c, 3, 59, 68
5, 165174, Note_on_c, 3, 60, 67
5, 165201, Note_on_c, 3, 59, 0
5, 165265, Note_on_c, 3, 62, 64
5, 165299, Note_on_c, 3, 60, 0
5, 165758, Note_on_c, 3, 60, 62
5, 165762, Note_on_c, 3, 62, 0
5, 165923, Note_on_c, 3, 59, 61
5, 165967, Note_on_c, 3, 60, 0
5, 166073, Note_on_c, 3, 59, 0
5, 166077, Note_on_c, 3, 57, 63
5, 166597, Note_on_c, 3, 57, 0
5, 167040, Note_on_c, 3, 57, 69
5, 167680, Note_on_c, 3, 59, 67
5, 167699, Note_on_c, 3, 57, 0
5, 167843, Note_on_c, 3, 61, 64
5, 167856, Note_on_c, 3, 59, 0
5, 167960, Note_on_c, 3, 61, 0
5, 167995, Note_on_c, 3, 61, 62
5, 168240, Note_on_c, 3, 62, 68
5, 168291, Note_on_c, 3, 61, 0
5, 168451, Note_on_c, 3, 62, 0
5, 168483, Note_on_c, 3, 62, 68
5, 168690, Note_on_c, 3, 62, 0
5, 168961, Note_on_c, 3, 62, 63
5, 169599, Note_on_c, 3, 64, 62
5, 169623, Note_on_c, 3, 62, 0
5, 169766, Note_on_c, 3, 65, 60
5, 169778, Note_on_c, 3, 64, 0
5, 169883, Note_on_c, 3, 65, 0
5, 169920, Note_on_c, 3, 65, 67
5, 170155, Note_on_c, 3, 64, 61
5, 170217, Note_on_c, 3, 65, 0
5, 170367, Note_on_c, 3, 64, 0
5, 170400, Note_on_c, 3, 64, 58
5, 170636, Note_on_c, 3, 64, 0
5, 170877, Note_on_c, 3, 57, 64
5, 170995, Note_on_c, 3, 57, 0
5, 171043, Note_on_c, 3, 57, 67
5, 171160, Note_on_c, 3, 57, 0
5, 171206, Note_on_c, 3, 57, 70
5, 171320, Note_on_c, 3, 57, 0
5, 171359, Note_on_c, 3, 57, 63
5, 171525, Note_on_c, 3, 59, 67
5, 171538, Note_on_c, 3, 57, 0
5, 171645, Note_on_c, 3, 59, 0
5, 171678, Note_on_c, 3, 61, 72
5, 171801, Note_on_c, 3, 61, 0
5, 171840, Note_on_c, 3, 61, 65
5, 172003, Note_on_c, 3, 62, 67
5, 172046, Note_on_c, 3, 61, 0
5, 172122, Note_on_c, 3, 62, 0
5, 172156, Note_on_c, 3, 62, 66
5, 172244, Note_on_c, 3, 62, 0
5, 172315, Note_on_c, 3, 62, 72
5, 172530, Note_on_c, 3, 62, 0
5, 172799, Note_on_c, 3, 62, 68
5, 172925, Note_on_c, 3, 62, 0
5, 172955, Note_on_c, 3, 62, 75
5, 173077, Note_on_c, 3, 62, 0
5, 173122, Note_on_c, 3, 62, 84
5, 173243, Note_on_c, 3, 62, 0
5, 173276, Note_on_c, 3, 62, 81
5, 173445, Note_on_c, 3, 64, 76
5, 173460, Note_on_c, 3, 62, 0
5, 173568, Note_on_c, 3, 64, 0
5, 173601, Note_on_c, 3, 65, 79
5, 173721, Note_on_c, 3, 65, 0
5, 173761, Note_on_c, 3, 65, 81
5, 173922, Note_on_c, 3, 64, 78
5, 173973, Note_on_c, 3, 65, 0
5, 174041, Note_on_c, 3, 64, 0
5, 174078, Note_on_c, 3, 64, 67
5, 174200, Note_on_c, 3, 64, 0
5, 174722, Note_on_c, 3, 64, 59
5, 174884, Note_on_c, 3, 65, 65
5, 174925, Note_on_c, 3, 64, 0
5, 175000, Note_on_c, 3, 65, 0
5, 175037, Note_on_c, 3, 65, 57
5, 175157, Note_on_c, 3, 65, 0
5, 175678, Note_on_c, 3, 65, 51
5, 175834, Note_on_c, 3, 64, 47
5, 175890, Note_on_c, 3, 65, 0
5, 175960, Note_on_c, 3, 64, 0
5, 175997, Note_on_c, 3, 64, 51
5, 176118, Note_on_c, 3, 64, 0
5, 200640, Note_on_c, 3, 62, 48
5, 201090, Note_on_c, 3, 62, 0
5, 201120, Note_on_c, 3, 62, 54
5, 201240, Note_on_c, 3, 62, 0
5, 201360, Note_on_c, 3, 64, 50
5, 201479, Note_on_c, 3, 64, 0
5, 201600, Note_on_c, 3, 65, 55
5, 204720, Note_on_c, 3, 64, 99
5, 204747, Note_on_c, 3, 65, 0
5, 204785, Note_on_c, 3, 64, 0
5, 204840, Note_on_c, 3, 63, 101
5, 204903, Note_on_c, 3, 63, 0
5, 204960, Note_on_c, 3, 64, 103
5, 205023, Note_on_c, 3, 64, 0
5, 205080, Note_on_c, 3, 52, 104
5, 205145, Note_on_c, 3, 52, 0
5, 205200, Note_on_c, 3, 54, 106
5, 205265, Note_on_c, 3, 54, 0
5, 205320, Note_on_c, 3, 56, 108
5, 205380, Note_on_c, 3, 56, 0
5, 205440, Note_on_c, 3, 57, 110
5, 205505, Note_on_c, 3, 57, 0
5, 205560, Note_on_c, 3, 59, 110
5, 205620, Note_on_c, 3, 59, 0
5, 205680, Note_on_c, 3, 60, 110
5, 205748, Note_on_c, 3, 60, 0
5, 205800, Note_on_c, 3, 59, 110
5, 205859, Note_on_c, 3, 59, 0
5, 205920, Note_on_c, 3, 57, 110
5, 205981, Note_on_c, 3, 57, 0
5, 206040, Note_on_c, 3, 60, 110
5, 206099, Note_on_c, 3, 60, 0
5, 206160, Note_on_c, 3, 59, 110
5, 206227, Note_on_c, 3, 59, 0
5, 206280, Note_on_c, 3, 57, 110
5, 206347, Note_on_c, 3, 57, 0
5, 206400, Note_on_c, 3, 52, 110
5, 206466, Note_on_c, 3, 52, 0
5, 206518, Note_on_c, 3, 54, 110
5, 206576, Note_on_c, 3, 54, 0
5, 206641, Note_on_c, 3, 56, 110
5, 206706, Note_on_c, 3, 56, 0
5, 206760, Note_on_c, 3, 57, 110
5, 206823, Note_on_c, 3, 57, 0
5, 206878, Note_on_c, 3, 59, 110
5, 206937, Note_on_c, 3, 59, 0
5, 207000, Note_on_c, 3, 60, 110
5, 207063, Note_on_c, 3, 60, 0
5, 207122, Note_on_c, 3, 62, 110
5, 207189, Note_on_c, 3, 62, 0
5, 207239, Note_on_c, 3, 64, 110
5, 207299, Note_on_c, 3, 64, 0
5, 207360, Note_on_c, 3, 62, 110
5, 207422, Note_on_c, 3, 62, 0
5, 207480, Note_on_c, 3, 59, 110
5, 207535, Note_on_c, 3, 59, 0
5, 207598, Note_on_c, 3, 60, 110
5, 207666, Note_on_c, 3, 60, 0
5, 207719, Note_on_c, 3, 62, 110
5, 207781, Note_on_c, 3, 62, 0
5, 207839, Note_on_c, 3, 64, 110
5, 207900, Note_on_c, 3, 64, 0
5, 207959, Note_on_c, 3, 62, 110
5, 208023, Note_on_c, 3, 62, 0
5, 208079, Note_on_c, 3, 60, 110
5, 208145, Note_on_c, 3, 60, 0
5, 208202, Note_on_c, 3, 59, 110
5, 208268, Note_on_c, 3, 59, 0
5, 208317, Note_on_c, 3, 60, 110
5, 208377, Note_on_c, 3, 60, 0
5, 208442, Note_on_c, 3, 59, 110
5, 208501, Note_on_c, 3, 59, 0
5, 208557, Note_on_c, 3, 60, 110
5, 208622, Note_on_c, 3, 60, 0
5, 208680, Note_on_c, 3, 62, 110
5, 208746, Note_on_c, 3, 62, 0
5, 208799, Note_on_c, 3, 64, 110
5, 208856, Note_on_c, 3, 64, 0
5, 208922, Note_on_c, 3, 52, 110
5, 208985, Note_on_c, 3, 52, 0
5, 209038, Note_on_c, 3, 54, 110
5, 209103, Note_on_c, 3, 54, 0
5, 209159, Note_on_c, 3, 56, 110
5, 209223, Note_on_c, 3, 56, 0
5, 209282, Note_on_c, 3, 57, 110
5, 209344, Note_on_c, 3, 57, 0
5, 209401, Note_on_c, 3, 59, 110
5, 209463, Note_on_c, 3, 59, 0
5, 209520, Note_on_c, 3, 60, 110
5, 209586, Note_on_c, 3, 60, 0
5, 209643, Note_on_c, 3, 59, 110
5, 209706, Note_on_c, 3, 59, 0
5, 209760, Note_on_c, 3, 57, 110
5, 209818, Note_on_c, 3, 57, 0
5, 209880, Note_on_c, 3, 60, 110
5, 209939, Note_on_c, 3, 60, 0
5, 210002, Note_on_c, 3, 59, 110
5, 210067, Note_on_c, 3, 59, 0
5, 210120, Note_on_c, 3, 57, 110
5, 210184, Note_on_c, 3, 57, 0
5, 210239, Note_on_c, 3, 52, 110
5, 210302, Note_on_c, 3, 52, 0
5, 210361, Note_on_c, 3, 54, 110
5, 210420, Note_on_c, 3, 54, 0
5, 210483, Note_on_c, 3, 56, 110
5, 210545, Note_on_c, 3, 56, 0
5, 210601, Note_on_c, 3, 57, 110
5, 210664, Note_on_c, 3, 57, 0
5, 210720, Note_on_c, 3, 59, 110
5, 210784, Note_on_c, 3, 59, 0
5, 210840, Note_on_c, 3, 60, 110
5, 210905, Note_on_c, 3, 60, 0
5, 210959, Note_on_c, 3, 62, 110
5, 211023, Note_on_c, 3, 62, 0
5, 211080, Note_on_c, 3, 64, 110
5, 211143, Note_on_c, 3, 64, 0
5, 211203, Note_on_c, 3, 62, 110
5, 211262, Note_on_c, 3, 62, 0
5, 211319, Note_on_c, 3, 59, 110
5, 211374, Note_on_c, 3, 59, 0
5, 211440, Note_on_c, 3, 60, 110
5, 211504, Note_on_c, 3, 60, 0
5, 211560, Note_on_c, 3, 62, 110
5, 211624, Note_on_c, 3, 62, 0
5, 211681, Note_on_c, 3, 64, 110
5, 211742, Note_on_c, 3, 64, 0
5, 211802, Note_on_c, 3, 62, 110
5, 211864, Note_on_c, 3, 62, 0
5, 211922, Note_on_c, 3, 60, 110
5, 211986, Note_on_c, 3, 60, 0
5, 212037, Note_on_c, 3, 59, 110
5, 212098, Note_on_c, 3, 59, 0
5, 212159, Note_on_c, 3, 57, 110
5, 212614, Note_on_c, 3, 57, 0
5, 213119, Note_on_c, 3, 62, 65
5, 213120, Note_on_c, 3, 59, 62
5, 213570, Note_on_c, 3, 62, 0
5, 213571, Note_on_c, 3, 59, 0
5, 213599, Note_on_c, 3, 59, 67
5, 213602, Note_on_c, 3, 62, 63
5, 213702, Note_on_c, 3, 59, 0
5, 213704, Note_on_c, 3, 62, 0
5, 213837, Note_on_c, 3, 59, 65
5, 213842, Note_on_c, 3, 62, 63
5, 213943, Note_on_c, 3, 59, 0
5, 213945, Note_on_c, 3, 62, 0
5, 214079, Note_on_c, 3, 57, 66
5, 214081, Note_on_c, 3, 60, 65
5, 214379, Note_on_c, 3, 60, 0
5, 214381, Note_on_c, 3, 57, 0
5, 215517, Note_on_c, 3, 64, 66
5, 215968, Note_on_c, 3, 64, 0
5, 215999, Note_on_c, 3, 64, 50
5, 216478, Note_on_c, 3, 61, 52
5, 216521, Note_on_c, 3, 64, 0
5, 216958, Note_on_c, 3, 57, 53
5, 217001, Note_on_c, 3, 61, 0
5, 217442, Note_on_c, 3, 61, 49
5, 217519, Note_on_c, 3, 57, 0
5, 217916, Note_on_c, 3, 61, 0
5, 217923, Note_on_c, 3, 61, 49
5, 218398, Note_on_c, 3, 59, 49
5, 218402, Note_on_c, 3, 50, 44
5, 218469, Note_on_c, 3, 61, 0
5, 219361, Note_on_c, 3, 57, 47
5, 219362, Note_on_c, 3, 49, 48
5, 219414, Note_on_c, 3, 50, 0
5, 219414, Note_on_c, 3, 59, 0
5, 219840, Note_on_c, 3, 47, 49
5, 219840, Note_on_c, 3, 56, 44
5, 219929, Note_on_c, 3, 49, 0
5, 219933, Note_on_c, 3, 57, 0
5, 220320, Note_on_c, 3, 57, 52
5, 220321, Note_on_c, 3, 49, 44
5, 220362, Note_on_c, 3, 56, 0
5, 220365, Note_on_c, 3, 47, 0
5, 220801, Note_on_c, 3, 50, 50
5, 220802, Note_on_c, 3, 59, 51
5, 220854, Note_on_c, 3, 49, 0
5, 220855, Note_on_c, 3, 57, 0
5, 221279, Note_on_c, 3, 52, 46
5, 221280, Note_on_c, 3, 61, 49
5, 221369, Note_on_c, 3, 50, 0
5, 221369, Note_on_c, 3, 59, 0
5, 221758, Note_on_c, 3, 54, 45
5, 221758, Note_on_c, 3, 62, 54
5, 221839, Note_on_c, 3, 52, 0
5, 221845, Note_on_c, 3, 61, 0
5, 222239, Note_on_c, 3, 64, 47
5, 222241, Note_on_c, 3, 56, 46
5, 222296, Note_on_c, 3, 54, 0
5, 222299, Note_on_c, 3, 62, 0
5, 222718, Note_on_c, 3, 59, 44
5, 222721, Note_on_c, 3, 62, 48
5, 222800, Note_on_c, 3, 64, 0
5, 222810, Note_on_c, 3, 56, 0
5, 223198, Note_on_c, 3, 57, 45
5, 223198, Note_on_c, 3, 61, 50
5, 223287, Note_on_c, 3, 59, 0
5, 223297, Note_on_c, 3, 62, 0
5, 223440, Note_on_c, 3, 64, 53
5, 223522, Note_on_c, 3, 57, 0
5, 223663, Note_on_c, 3, 64, 0
5, 223671, Note_on_c, 3, 61, 0
5, 223678, Note_on_c, 3, 61, 45
5, 223682, Note_on_c, 3, 64, 48
5, 224639, Note_on_c, 3, 57, 54
5, 224686, Note_on_c, 3, 64, 0
5, 225120, Note_on_c, 3, 64, 44
5, 225208, Note_on_c, 3, 57, 0
5, 225578, Note_on_c, 3, 64, 0
5, 225595, Note_on_c, 3, 61, 0
5, 225599, Note_on_c, 3, 61, 45
5, 225601, Note_on_c, 3, 64, 49
5, 226080, Note_on_c, 3, 66, 45
5, 226081, Note_on_c, 3, 62, 50
5, 226161, Note_on_c, 3, 64, 0
5, 226168, Note_on_c, 3, 61, 0
5, 227038, Note_on_c, 3, 64, 49
5, 227040, Note_on_c, 3, 61, 48
5, 227126, Note_on_c, 3, 66, 0
5, 227133, Note_on_c, 3, 62, 0
5, 227518, Note_on_c, 3, 54, 44
5, 227520, Note_on_c, 3, 62, 50
5, 227579, Note_on_c, 3, 61, 0
5, 227580, Note_on_c, 3, 64, 0
5, 228000, Note_on_c, 3, 52, 48
5, 228000, Note_on_c, 3, 61, 45
5, 228076, Note_on_c, 3, 54, 0
5, 228084, Note_on_c, 3, 62, 0
5, 228478, Note_on_c, 3, 62, 48
5, 228479, Note_on_c, 3, 54, 45
5, 228539, Note_on_c, 3, 52, 0
5, 228549, Note_on_c, 3, 61, 0
5, 228958, Note_on_c, 3, 56, 46
5, 228961, Note_on_c, 3, 64, 44
5, 229046, Note_on_c, 3, 54, 0
5, 229046, Note_on_c, 3, 62, 0
5, 229439, Note_on_c, 3, 61, 51
5, 229440, Note_on_c, 3, 57, 54
5, 229500, Note_on_c, 3, 56, 0
5, 229509, Note_on_c, 3, 64, 0
5, 230363, Note_on_c, 3, 61, 0
5, 230391, Note_on_c, 3, 57, 0
5, 230398, Note_on_c, 3, 54, 28
5, 230401, Note_on_c, 3, 62, 31
5, 230880, Note_on_c, 3, 64, 32
5, 230881, Note_on_c, 3, 56, 32
5, 230905, Note_on_c, 3, 54, 0
5, 230906, Note_on_c, 3, 62, 0
5, 231359, Note_on_c, 3, 57, 24
5, 231362, Note_on_c, 3, 61, 28
5, 231382, Note_on_c, 3, 64, 0
5, 231386, Note_on_c, 3, 56, 0
5, 232283, Note_on_c, 3, 57, 0
5, 232284, Note_on_c, 3, 61, 0
5, 232320, Note_on_c, 3, 62, 27
5, 232322, Note_on_c, 3, 54, 24
5, 232798, Note_on_c, 3, 64, 25
5, 232800, Note_on_c, 3, 56, 22
5, 232822, Note_on_c, 3, 62, 0
5, 232828, Note_on_c, 3, 54, 0
5, 233281, Note_on_c, 3, 45, 16
5, 233282, Note_on_c, 3, 57, 20
5, 233302, Note_on_c, 3, 56, 0
5, 233302, Note_on_c, 3, 64, 0
5, 233724, Note_on_c, 3, 57, 0
5, 233725, Note_on_c, 3, 45, 0
5, 233758, Note_on_c, 3, 45, 25
5, 233759, Note_on_c, 3, 57, 19
5, 233873, Note_on_c, 3, 45, 0
5, 233877, Note_on_c, 3, 57, 0
5, 233998, Note_on_c, 3, 45, 15
5, 233998, Note_on_c, 3, 57, 25
5, 234116, Note_on_c, 3, 45, 0
5, 234116, Note_on_c, 3, 57, 0
5, 234238, Note_on_c, 3, 57, 16
5, 234240, Note_on_c, 3, 45, 25
5, 234714, Note_on_c, 3, 57, 0
5, 234717, Note_on_c, 3, 45, 0
5, 234720, Note_on_c, 3, 45, 25
5, 234720, Note_on_c, 3, 57, 20
5, 235165, Note_on_c, 3, 45, 0
5, 235166, Note_on_c, 3, 57, 0
5, 235200, Note_on_c, 3, 45, 17
5, 235202, Note_on_c, 3, 57, 20
5, 235648, Note_on_c, 3, 45, 0
5, 235649, Note_on_c, 3, 57, 0
5, 235680, Note_on_c, 3, 45, 17
5, 235681, Note_on_c, 3, 57, 16
5, 235793, Note_on_c, 3, 45, 0
5, 235794, Note_on_c, 3, 57, 0
5, 235920, Note_on_c, 3, 45, 17
5, 235921, Note_on_c, 3, 57, 24
5, 236032, Note_on_c, 3, 45, 0
5, 236034, Note_on_c, 3, 57, 0
5, 236160, Note_on_c, 3, 45, 17
5, 236160, Note_on_c, 3, 57, 17
5, 236632, Note_on_c, 3, 57, 0
5, 236634, Note_on_c, 3, 45, 0
5, 236641, Note_on_c, 3, 45, 15
5, 236642, Note_on_c, 3, 57, 22
5, 237086, Note_on_c, 3, 57, 0
5, 237087, Note_on_c, 3, 45, 0
5, 237121, Note_on_c, 3, 59, 52
5, 237122, Note_on_c, 3, 62, 57
5, 237565, Note_on_c, 3, 62, 0
5, 237566, Note_on_c, 3, 59, 0
5, 237600, Note_on_c, 3, 57, 57
5, 237600, Note_on_c, 3, 60, 57
5, 237716, Note_on_c, 3, 60, 0
5, 237717, Note_on_c, 3, 57, 0
5, 237838, Note_on_c, 3, 59, 58
5, 237840, Note_on_c, 3, 62, 57
5, 237952, Note_on_c, 3, 62, 0
5, 237953, Note_on_c, 3, 59, 0
5, 238078, Note_on_c, 3, 60, 57
5, 238082, Note_on_c, 3, 64, 55
5, 238374, Note_on_c, 3, 64, 0
5, 238376, Note_on_c, 3, 60, 0
5, 240962, Note_on_c, 3, 59, 55
5, 240963, Note_on_c, 3, 62, 56
5, 241403, Note_on_c, 3, 59, 0
5, 241405, Note_on_c, 3, 62, 0
5, 241437, Note_on_c, 3, 57, 59
5, 241439, Note_on_c, 3, 60, 54
5, 241549, Note_on_c, 3, 57, 0
5, 241552, Note_on_c, 3, 60, 0
5, 241677, Note_on_c, 3, 59, 50
5, 241680, Note_on_c, 3, 62, 50
5, 241792, Note_on_c, 3, 59, 0
5, 241792, Note_on_c, 3, 62, 0
5, 241919, Note_on_c, 3, 60, 60
5, 241920, Note_on_c, 3, 64, 57
5, 242212, Note_on_c, 3, 60, 0
5, 242214, Note_on_c, 3, 64, 0
5, 248636, Note_on_c, 3, 57, 48
5, 248637, Note_on_c, 3, 60, 47
5, 249081, Note_on_c, 3, 57, 0
5, 249082, Note_on_c, 3, 60, 0
5, 249119, Note_on_c, 3, 57, 51
5, 249120, Note_on_c, 3, 60, 45
5, 249246, Note_on_c, 3, 57, 0
5, 249250, Note_on_c, 3, 60, 0
5, 249359, Note_on_c, 3, 57, 48
5, 249362, Note_on_c, 3, 60, 45
5, 249488, Note_on_c, 3, 57, 0
5, 249491, Note_on_c, 3, 60, 0
5, 249600, Note_on_c, 3, 55, 48
5, 249600, Note_on_c, 3, 60, 50
5, 250042, Note_on_c, 3, 60, 0
5, 250047, Note_on_c, 3, 55, 0
5, 250077, Note_on_c, 3, 60, 44
5, 250082, Note_on_c, 3, 55, 49
5, 250518, Note_on_c, 3, 60, 0
5, 250523, Note_on_c, 3, 55, 0
5, 256320, Note_on_c, 3, 57, 48
5, 256320, Note_on_c, 3, 60, 51
5, 256762, Note_on_c, 3, 60, 0
5, 256765, Note_on_c, 3, 57, 0
5, 256802, Note_on_c, 3, 60, 47
5, 256803, Note_on_c, 3, 57, 45
5, 256941, Note_on_c, 3, 60, 0
5, 256944, Note_on_c, 3, 57, 0
5, 257039, Note_on_c, 3, 57, 48
5, 257043, Note_on_c, 3, 60, 51
5, 257178, Note_on_c, 3, 57, 0
5, 257184, Note_on_c, 3, 60, 0
5, 257280, Note_on_c, 3, 62, 46
5, 257281, Note_on_c, 3, 56, 52
5, 257694, Note_on_c, 3, 56, 0
5, 257696, Note_on_c, 3, 62, 0
5, 257759, Note_on_c, 3, 60, 48
5, 257763, Note_on_c, 3, 57, 45
5, 258206, Note_on_c, 3, 60, 0
5, 258207, Note_on_c, 3, 57, 0
5, 260159, Note_on_c, 3, 59, 52
5, 260161, Note_on_c, 3, 62, 48
5, 260604, Note_on_c, 3, 59, 0
5, 260605, Note_on_c, 3, 62, 0
5, 260641, Note_on_c, 3, 59, 46
5, 260642, Note_on_c, 3, 62, 53
5, 260751, Note_on_c, 3, 59, 0
5, 260754, Note_on_c, 3, 62, 0
5, 260880, Note_on_c, 3, 59, 45
5, 260880, Note_on_c, 3, 62, 49
5, 260986, Note_on_c, 3, 59, 0
5, 260991, Note_on_c, 3, 62, 0
5, 261118, Note_on_c, 3, 60, 53
5, 261122, Note_on_c, 3, 57, 53
5, 261560, Note_on_c, 3, 60, 0
5, 261569, Note_on_c, 3, 57, 0
5, 264959, Note_on_c, 3, 60, 72
5, 264960, Control_c, 3, 7, 100
5, 264963, Note_on_c, 3, 57, 70
5, 265000, Control_c, 3, 7, 99
5, 265020, Control_c, 3, 7, 98
5, 265060, Control_c, 3, 7, 96
5, 265080, Control_c, 3, 7, 95
5, 265100, Control_c, 3, 7, 94
5, 265140, Control_c, 3, 7, 92
5, 265160, Control_c, 3, 7, 91
5, 265180, Control_c, 3, 7, 90
5, 265220, Control_c, 3, 7, 88
5, 265240, Control_c, 3, 7, 88
5, 265280, Control_c, 3, 7, 86
5, 265300, Control_c, 3, 7, 85
5, 265320, Control_c, 3, 7, 84
5, 265360, Control_c, 3, 7, 82
5, 265380, Control_c, 3, 7, 81
5, 265400, Control_c, 3, 7, 80
5, 265440, Control_c, 3, 7, 78
5, 265460, Control_c, 3, 7, 77
5, 265500, Control_c, 3, 7, 75
5, 265520, Control_c, 3, 7, 75
5, 265540, Control_c, 3, 7, 74
5, 265580, Control_c, 3, 7, 72
5, 265600, Control_c, 3, 7, 71
5, 265620, Control_c, 3, 7, 70
5, 265660, Control_c, 3, 7, 68
5, 265680, Control_c, 3, 7, 67
5, 265720, Control_c, 3, 7, 65
5, 265740, Control_c, 3, 7, 64
5, 265760, Control_c, 3, 7, 63
5, 265800, Control_c, 3, 7, 62
5, 265820, Control_c, 3, 7, 61
5, 265840, Control_c, 3, 7, 60
5, 265880, Control_c, 3, 7, 58
5, 265900, Control_c, 3, 7, 57
5, 265920, Control_c, 3, 7, 56
5, 265960, Control_c, 3, 7, 54
5, 265980, Control_c, 3, 7, 53
5, 266020, Control_c, 3, 7, 51
5, 266040, Control_c, 3, 7, 50
5, 266060, Control_c, 3, 7, 50
5, 266100, Control_c, 3, 7, 48
5, 266120, Control_c, 3, 7, 47
5, 266140, Control_c, 3, 7, 46
5, 266180, Control_c, 3, 7, 44
5, 266200, Control_c, 3, 7, 43
5, 266240, Control_c, 3, 7, 41
5, 266260, Control_c, 3, 7, 40
5, 266280, Control_c, 3, 7, 39
5, 266320, Control_c, 3, 7, 38
5, 266340, Control_c, 3, 7, 37
5, 266360, Control_c, 3, 7, 36
5, 266400, Control_c, 3, 7, 34
5, 266420, Control_c, 3, 7, 33
5, 266460, Control_c, 3, 7, 31
5, 266480, Control_c, 3, 7, 30
5, 266500, Control_c, 3, 7, 29
5, 266540, Control_c, 3, 7, 27
5, 266560, Control_c, 3, 7, 26
5, 266580, Control_c, 3, 7, 25
5, 267236, Note_on_c, 3, 60, 0
5, 267240, Note_on_c, 3, 57, 0
5, 267240, End_track
6, 0, Start_track
6, 0, Channel_prefix, 4
6, 0, Title_t, "Horn    "
6, 0, Instrument_name_t, "Corni (E)"
6, 960, Program_c, 4, 60
6, 963, Note_on_c, 4, 52, 19
6, 964, Note_on_c, 4, 64, 40
6, 1080, Control_c, 4, 7, 97
6, 1200, Control_c, 4, 7, 93
6, 1320, Control_c, 4, 7, 90
6, 1440, Control_c, 4, 7, 86
6, 1560, Control_c, 4, 7, 83
6, 1680, Control_c, 4, 7, 79
6, 1800, Control_c, 4, 7, 76
6, 1920, Control_c, 4, 7, 72
6, 2040, Control_c, 4, 7, 69
6, 2160, Control_c, 4, 7, 65
6, 2280, Control_c, 4, 7, 62
6, 2400, Control_c, 4, 7, 58
6, 2520, Control_c, 4, 7, 55
6, 2640, Control_c, 4, 7, 51
6, 2760, Control_c, 4, 7, 48
6, 2880, Control_c, 4, 7, 44
6, 3000, Control_c, 4, 7, 41
6, 3120, Control_c, 4, 7, 37
6, 3240, Control_c, 4, 7, 34
6, 3360, Control_c, 4, 7, 30
6, 3362, Note_on_c, 4, 52, 0
6, 3362, Note_on_c, 4, 64, 0
6, 70076, Control_c, 4, 7, 127
6, 70560, Note_on_c, 4, 52, 85
6, 70564, Note_on_c, 4, 64, 84
6, 71042, Note_on_c, 4, 69, 82
6, 71043, Note_on_c, 4, 52, 0
6, 71046, Note_on_c, 4, 64, 0
6, 71526, Note_on_c, 4, 69, 0
6, 71997, Note_on_c, 4, 64, 89
6, 72003, Note_on_c, 4, 52, 103
6, 72371, Note_on_c, 4, 52, 0
6, 72374, Note_on_c, 4, 64, 0
6, 72480, Note_on_c, 4, 64, 104
6, 72483, Note_on_c, 4, 52, 110
6, 72555, Note_on_c, 4, 64, 0
6, 72560, Note_on_c, 4, 52, 0
6, 72717, Note_on_c, 4, 52, 107
6, 72724, Note_on_c, 4, 64, 105
6, 72810, Note_on_c, 4, 52, 0
6, 72823, Note_on_c, 4, 64, 0
6, 72956, Note_on_c, 4, 64, 104
6, 72957, Note_on_c, 4, 52, 98
6, 73313, Note_on_c, 4, 52, 0
6, 73323, Note_on_c, 4, 64, 0
6, 73439, Note_on_c, 4, 52, 99
6, 73440, Note_on_c, 4, 64, 99
6, 73809, Note_on_c, 4, 52, 0
6, 73811, Note_on_c, 4, 64, 0
6, 73920, Note_on_c, 4, 52, 108
6, 73924, Note_on_c, 4, 64, 106
6, 74334, Note_on_c, 4, 52, 0
6, 74337, Note_on_c, 4, 64, 0
6, 74396, Note_on_c, 4, 52, 100
6, 74403, Note_on_c, 4, 64, 103
6, 74474, Note_on_c, 4, 52, 0
6, 74485, Note_on_c, 4, 64, 0
6, 74640, Note_on_c, 4, 52, 98
6, 74643, Note_on_c, 4, 64, 109
6, 74729, Note_on_c, 4, 52, 0
6, 74734, Note_on_c, 4, 64, 0
6, 74880, Note_on_c, 4, 64, 104
6, 74882, Note_on_c, 4, 52, 105
6, 75231, Note_on_c, 4, 64, 0
6, 75242, Note_on_c, 4, 52, 0
6, 75356, Note_on_c, 4, 52, 102
6, 75357, Note_on_c, 4, 64, 108
6, 75721, Note_on_c, 4, 52, 0
6, 75727, Note_on_c, 4, 64, 0
6, 75842, Note_on_c, 4, 52, 104
6, 75844, Note_on_c, 4, 64, 104
6, 76238, Note_on_c, 4, 52, 0
6, 76279, Note_on_c, 4, 64, 0
6, 76317, Note_on_c, 4, 64, 110
6, 76418, Note_on_c, 4, 64, 0
6, 76564, Note_on_c, 4, 66, 107
6, 76670, Note_on_c, 4, 66, 0
6, 76800, Note_on_c, 4, 67, 109
6, 77153, Note_on_c, 4, 67, 0
6, 77275, Note_on_c, 4, 67, 104
6, 77669, Note_on_c, 4, 67, 0
6, 77757, Note_on_c, 4, 67, 105
6, 78149, Note_on_c, 4, 67, 0
6, 78242, Note_on_c, 4, 67, 105
6, 78333, Note_on_c, 4, 67, 0
6, 78477, Note_on_c, 4, 67, 104
6, 78573, Note_on_c, 4, 67, 0
6, 78715, Note_on_c, 4, 67, 107
6, 79120, Note_on_c, 4, 67, 0
6, 79681, Note_on_c, 4, 67, 108
6, 80089, Note_on_c, 4, 67, 0
6, 80161, Note_on_c, 4, 67, 105
6, 80270, Note_on_c, 4, 67, 0
6, 80403, Note_on_c, 4, 69, 108
6, 80500, Note_on_c, 4, 69, 0
6, 80640, Note_on_c, 4, 71, 113
6, 81048, Note_on_c, 4, 71, 0
6, 81121, Note_on_c, 4, 71, 107
6, 81478, Note_on_c, 4, 71, 0
6, 81603, Note_on_c, 4, 66, 117
6, 81998, Note_on_c, 4, 66, 0
6, 82083, Note_on_c, 4, 66, 103
6, 82177, Note_on_c, 4, 66, 0
6, 82319, Note_on_c, 4, 68, 111
6, 82406, Note_on_c, 4, 68, 0
6, 82557, Note_on_c, 4, 69, 102
6, 82948, Note_on_c, 4, 69, 0
6, 83039, Note_on_c, 4, 69, 117
6, 83351, Note_on_c, 4, 69, 0
6, 83520, Note_on_c, 4, 52, 107
6, 83520, Note_on_c, 4, 64, 113
6, 83890, Note_on_c, 4, 64, 0
6, 83896, Note_on_c, 4, 52, 0
6, 83999, Note_on_c, 4, 52, 109
6, 84002, Note_on_c, 4, 64, 108
6, 84085, Note_on_c, 4, 52, 0
6, 84091, Note_on_c, 4, 64, 0
6, 84238, Note_on_c, 4, 64, 108
6, 84241, Note_on_c, 4, 52, 116
6, 84343, Note_on_c, 4, 64, 0
6, 84351, Note_on_c, 4, 52, 0
6, 84478, Note_on_c, 4, 64, 108
6, 84483, Note_on_c, 4, 52, 116
6, 84840, Note_on_c, 4, 64, 0
6, 84853, Note_on_c, 4, 52, 0
6, 84957, Note_on_c, 4, 64, 108
6, 84961, Note_on_c, 4, 52, 108
6, 85366, Note_on_c, 4, 52, 0
6, 85367, Note_on_c, 4, 64, 0
6, 85441, Note_on_c, 4, 64, 117
6, 85442, Note_on_c, 4, 52, 108
6, 85812, Note_on_c, 4, 52, 0
6, 85830, Note_on_c, 4, 64, 0
6, 85921, Note_on_c, 4, 66, 108
6, 86011, Note_on_c, 4, 66, 0
6, 86157, Note_on_c, 4, 68, 107
6, 86253, Note_on_c, 4, 68, 0
6, 86399, Note_on_c, 4, 69, 105
6, 86807, Note_on_c, 4, 69, 0
6, 87355, Note_on_c, 4, 67, 108
6, 87360, Control_c, 4, 7, 127
6, 87477, Control_c, 4, 7, 127
6, 87597, Control_c, 4, 7, 127
6, 87715, Control_c, 4, 7, 126
6, 87802, Note_on_c, 4, 67, 0
6, 87842, Note_on_c, 4, 67, 107
6, 87842, Control_c, 4, 7, 126
6, 87948, Note_on_c, 4, 67, 0
6, 87960, Control_c, 4, 7, 125
6, 88076, Note_on_c, 4, 69, 107
6, 88083, Control_c, 4, 7, 125
6, 88171, Note_on_c, 4, 69, 0
6, 88199, Control_c, 4, 7, 124
6, 88319, Note_on_c, 4, 71, 106
6, 88319, Control_c, 4, 7, 124
6, 88439, Control_c, 4, 7, 123
6, 88557, Control_c, 4, 7, 123
6, 88681, Control_c, 4, 7, 122
6, 88710, Note_on_c, 4, 71, 0
6, 88798, Control_c, 4, 7, 122
6, 88802, Note_on_c, 4, 71, 105
6, 88919, Control_c, 4, 7, 121
6, 89037, Control_c, 4, 7, 121
6, 89159, Control_c, 4, 7, 120
6, 89183, Note_on_c, 4, 71, 0
6, 89276, Control_c, 4, 7, 120
6, 89278, Note_on_c, 4, 66, 104
6, 89398, Control_c, 4, 7, 119
6, 89518, Control_c, 4, 7, 119
6, 89635, Control_c, 4, 7, 118
6, 89685, Note_on_c, 4, 66, 0
6, 89761, Control_c, 4, 7, 118
6, 89763, Note_on_c, 4, 66, 103
6, 89843, Note_on_c, 4, 66, 0
6, 89883, Control_c, 4, 7, 117
6, 89995, Note_on_c, 4, 68, 103
6, 89996, Control_c, 4, 7, 117
6, 90076, Note_on_c, 4, 68, 0
6, 90122, Control_c, 4, 7, 116
6, 90240, Note_on_c, 4, 69, 102
6, 90241, Control_c, 4, 7, 116
6, 90361, Control_c, 4, 7, 115
6, 90476, Control_c, 4, 7, 115
6, 90597, Control_c, 4, 7, 114
6, 90621, Note_on_c, 4, 69, 0
6, 90717, Note_on_c, 4, 69, 101
6, 90724, Control_c, 4, 7, 114
6, 90839, Control_c, 4, 7, 114
6, 90956, Control_c, 4, 7, 113
6, 91068, Note_on_c, 4, 69, 0
6, 91078, Control_c, 4, 7, 113
6, 91197, Note_on_c, 4, 64, 100
6, 91198, Note_on_c, 4, 52, 100
6, 91202, Control_c, 4, 7, 112
6, 91321, Control_c, 4, 7, 112
6, 91444, Control_c, 4, 7, 111
6, 91561, Control_c, 4, 7, 111
6, 91585, Note_on_c, 4, 52, 0
6, 91593, Note_on_c, 4, 64, 0
6, 91675, Control_c, 4, 7, 110
6, 91678, Note_on_c, 4, 52, 99
6, 91680, Note_on_c, 4, 64, 99
6, 91770, Note_on_c, 4, 52, 0
6, 91781, Note_on_c, 4, 64, 0
6, 91799, Control_c, 4, 7, 110
6, 91917, Control_c, 4, 7, 109
6, 91918, Note_on_c, 4, 64, 99
6, 91924, Note_on_c, 4, 52, 99
6, 92033, Note_on_c, 4, 64, 0
6, 92035, Note_on_c, 4, 52, 0
6, 92035, Control_c, 4, 7, 109
6, 92161, Note_on_c, 4, 52, 98
6, 92163, Control_c, 4, 7, 108
6, 92164, Note_on_c, 4, 64, 98
6, 92280, Control_c, 4, 7, 108
6, 92396, Control_c, 4, 7, 107
6, 92517, Control_c, 4, 7, 107
6, 92544, Note_on_c, 4, 64, 0
6, 92548, Note_on_c, 4, 52, 0
6, 92636, Note_on_c, 4, 64, 97
6, 92636, Control_c, 4, 7, 106
6, 92639, Note_on_c, 4, 52, 97
6, 92756, Control_c, 4, 7, 106
6, 92880, Control_c, 4, 7, 105
6, 93000, Control_c, 4, 7, 105
6, 93034, Note_on_c, 4, 64, 0
6, 93035, Note_on_c, 4, 52, 0
6, 93117, Control_c, 4, 7, 104
6, 93118, Note_on_c, 4, 52, 96
6, 93122, Note_on_c, 4, 64, 96
6, 93240, Control_c, 4, 7, 104
6, 93363, Control_c, 4, 7, 103
6, 93455, Note_on_c, 4, 52, 0
6, 93476, Note_on_c, 4, 64, 0
6, 93484, Control_c, 4, 7, 103
6, 93599, Note_on_c, 4, 66, 95
6, 93601, Control_c, 4, 7, 102
6, 93685, Note_on_c, 4, 66, 0
6, 93717, Control_c, 4, 7, 102
6, 93835, Control_c, 4, 7, 101
6, 93844, Note_on_c, 4, 68, 95
6, 93936, Note_on_c, 4, 68, 0
6, 93959, Control_c, 4, 7, 101
6, 94079, Note_on_c, 4, 69, 94
6, 94080, Control_c, 4, 7, 100
6, 94587, Note_on_c, 4, 69, 0
6, 95038, Note_on_c, 4, 52, 49
6, 95039, Note_on_c, 4, 64, 49
6, 95443, Note_on_c, 4, 52, 0
6, 95445, Note_on_c, 4, 64, 0
6, 95521, Note_on_c, 4, 52, 47
6, 95521, Note_on_c, 4, 64, 47
6, 95611, Note_on_c, 4, 52, 0
6, 95616, Note_on_c, 4, 64, 0
6, 95758, Note_on_c, 4, 64, 46
6, 95760, Note_on_c, 4, 52, 46
6, 95860, Note_on_c, 4, 52, 0
6, 95864, Note_on_c, 4, 64, 0
6, 95996, Note_on_c, 4, 64, 45
6, 96350, Note_on_c, 4, 64, 0
6, 110400, Note_on_c, 4, 59, 76
6, 110402, Note_on_c, 4, 71, 75
6, 111354, Note_on_c, 4, 52, 45
6, 111358, Note_on_c, 4, 64, 78
6, 111418, Note_on_c, 4, 59, 0
6, 111423, Note_on_c, 4, 71, 0
6, 114235, Note_on_c, 4, 69, 77
6, 114385, Note_on_c, 4, 52, 0
6, 114385, Note_on_c, 4, 64, 0
6, 114955, Note_on_c, 4, 69, 0
6, 114955, Note_on_c, 4, 69, 77
6, 115181, Note_on_c, 4, 69, 0
6, 115197, Note_on_c, 4, 69, 75
6, 115359, Note_on_c, 4, 68, 77
6, 115411, Note_on_c, 4, 69, 0
6, 115417, Note_on_c, 4, 68, 0
6, 115520, Note_on_c, 4, 66, 77
6, 115578, Note_on_c, 4, 66, 0
6, 115681, Note_on_c, 4, 64, 74
6, 115738, Note_on_c, 4, 64, 0
6, 115836, Note_on_c, 4, 63, 74
6, 115896, Note_on_c, 4, 63, 0
6, 116006, Note_on_c, 4, 61, 77
6, 116069, Note_on_c, 4, 61, 0
6, 116159, Note_on_c, 4, 59, 75
6, 116642, Note_on_c, 4, 61, 74
6, 116738, Note_on_c, 4, 59, 0
6, 116869, Note_on_c, 4, 61, 0
6, 116885, Note_on_c, 4, 63, 80
6, 117090, Note_on_c, 4, 63, 0
6, 117118, Note_on_c, 4, 64, 74
6, 117760, Note_on_c, 4, 63, 78
6, 117858, Note_on_c, 4, 64, 0
6, 117926, Note_on_c, 4, 64, 75
6, 117977, Note_on_c, 4, 63, 0
6, 118078, Note_on_c, 4, 64, 0
6, 118083, Note_on_c, 4, 64, 80
6, 119523, Note_on_c, 4, 66, 79
6, 119679, Note_on_c, 4, 64, 0
6, 119763, Note_on_c, 4, 64, 77
6, 119814, Note_on_c, 4, 66, 0
6, 119992, Note_on_c, 4, 64, 0
6, 120000, Note_on_c, 4, 64, 75
6, 121441, Note_on_c, 4, 68, 74
6, 121598, Note_on_c, 4, 64, 0
6, 121599, Note_on_c, 4, 66, 78
6, 121658, Note_on_c, 4, 68, 0
6, 121757, Note_on_c, 4, 64, 75
6, 121817, Note_on_c, 4, 66, 0
6, 121913, Note_on_c, 4, 64, 0
6, 121921, Note_on_c, 4, 64, 74
6, 122879, Note_on_c, 4, 66, 77
6, 122913, Note_on_c, 4, 64, 0
6, 123839, Note_on_c, 4, 64, 76
6, 123874, Note_on_c, 4, 66, 0
6, 124318, Note_on_c, 4, 64, 0
6, 124319, Note_on_c, 4, 64, 78
6, 124323, Note_on_c, 4, 52, 76
6, 124796, Note_on_c, 4, 64, 0
6, 124799, Note_on_c, 4, 52, 0
6, 124799, Note_on_c, 4, 64, 76
6, 124805, Note_on_c, 4, 52, 75
6, 125757, Note_on_c, 4, 64, 79
6, 125758, Note_on_c, 4, 64, 0
6, 125758, Note_on_c, 4, 64, 0
6, 125797, Note_on_c, 4, 52, 0
6, 127197, Note_on_c, 4, 66, 76
6, 127438, Note_on_c, 4, 64, 80
6, 127490, Note_on_c, 4, 66, 0
6, 127669, Note_on_c, 4, 64, 0
6, 127680, Note_on_c, 4, 64, 74
6, 129122, Note_on_c, 4, 68, 78
6, 129274, Note_on_c, 4, 64, 0
6, 129279, Note_on_c, 4, 66, 72
6, 129339, Note_on_c, 4, 68, 0
6, 129440, Note_on_c, 4, 64, 77
6, 129497, Note_on_c, 4, 66, 0
6, 129591, Note_on_c, 4, 64, 0
6, 129597, Note_on_c, 4, 64, 74
6, 130078, Note_on_c, 4, 52, 75
6, 130560, Note_on_c, 4, 52, 0
6, 130562, Note_on_c, 4, 69, 75
6, 130586, Note_on_c, 4, 64, 0
6, 131519, Note_on_c, 4, 67, 78
6, 131554, Note_on_c, 4, 69, 0
6, 131997, Note_on_c, 4, 67, 0
6, 131999, Note_on_c, 4, 67, 76
6, 132473, Note_on_c, 4, 67, 0
6, 132475, Note_on_c, 4, 67, 75
6, 134402, Note_on_c, 4, 64, 68
6, 134913, Note_on_c, 4, 64, 0
6, 136318, Note_on_c, 4, 64, 64
6, 136829, Note_on_c, 4, 64, 0
6, 137251, Note_on_c, 4, 67, 0
6, 137278, Note_on_c, 4, 67, 67
6, 137969, Note_on_c, 4, 67, 0
6, 138000, Note_on_c, 4, 67, 61
6, 138237, Note_on_c, 4, 67, 0
6, 142560, Control_c, 4, 7, 127
6, 143040, Note_on_c, 4, 52, 98
6, 143040, Note_on_c, 4, 64, 100
6, 143137, Note_on_c, 4, 52, 0
6, 143137, Note_on_c, 4, 64, 0
6, 143276, Note_on_c, 4, 64, 104
6, 143280, Note_on_c, 4, 52, 100
6, 143370, Note_on_c, 4, 64, 0
6, 143373, Note_on_c, 4, 52, 0
6, 144000, Control_c, 4, 7, 100
6, 204480, Control_c, 4, 7, 100
6, 204520, Control_c, 4, 7, 101
6, 204560, Control_c, 4, 7, 102
6, 204600, Control_c, 4, 7, 103
6, 204620, Control_c, 4, 7, 104
6, 204660, Control_c, 4, 7, 105
6, 204700, Control_c, 4, 7, 106
6, 204720, Note_on_c, 4, 52, 79
6, 204720, Note_on_c, 4, 64, 75
6, 204740, Control_c, 4, 7, 107
6, 204760, Control_c, 4, 7, 108
6, 204800, Control_c, 4, 7, 109
6, 204840, Control_c, 4, 7, 110
6, 204880, Control_c, 4, 7, 111
6, 204900, Control_c, 4, 7, 112
6, 204940, Control_c, 4, 7, 113
6, 204980, Control_c, 4, 7, 114
6, 205020, Control_c, 4, 7, 115
6, 205040, Control_c, 4, 7, 116
6, 205080, Control_c, 4, 7, 117
6, 205120, Control_c, 4, 7, 118
6, 205160, Control_c, 4, 7, 119
6, 205180, Control_c, 4, 7, 120
6, 205220, Control_c, 4, 7, 121
6, 205260, Control_c, 4, 7, 122
6, 205300, Control_c, 4, 7, 123
6, 205320, Control_c, 4, 7, 124
6, 205360, Control_c, 4, 7, 125
6, 205400, Control_c, 4, 7, 126
6, 205409, Note_on_c, 4, 52, 0
6, 205415, Note_on_c, 4, 64, 0
6, 205440, Note_on_c, 4, 64, 110
6, 205888, Note_on_c, 4, 64, 0
6, 205920, Note_on_c, 4, 64, 110
6, 206015, Note_on_c, 4, 64, 0
6, 206160, Note_on_c, 4, 64, 110
6, 206256, Note_on_c, 4, 64, 0
6, 206402, Note_on_c, 4, 64, 110
6, 206800, Note_on_c, 4, 64, 0
6, 206878, Note_on_c, 4, 64, 110
6, 207267, Note_on_c, 4, 64, 0
6, 207358, Note_on_c, 4, 64, 110
6, 207782, Note_on_c, 4, 64, 0
6, 207842, Note_on_c, 4, 64, 110
6, 207940, Note_on_c, 4, 64, 0
6, 208078, Note_on_c, 4, 64, 110
6, 208185, Note_on_c, 4, 64, 0
6, 208319, Note_on_c, 4, 64, 110
6, 208724, Note_on_c, 4, 64, 0
6, 208800, Note_on_c, 4, 64, 110
6, 209225, Note_on_c, 4, 64, 0
6, 209279, Note_on_c, 4, 64, 110
6, 209686, Note_on_c, 4, 64, 0
6, 209760, Note_on_c, 4, 64, 110
6, 209873, Note_on_c, 4, 64, 0
6, 209998, Note_on_c, 4, 64, 110
6, 210124, Note_on_c, 4, 64, 0
6, 210241, Note_on_c, 4, 64, 110
6, 210654, Note_on_c, 4, 64, 0
6, 210721, Note_on_c, 4, 64, 110
6, 211127, Note_on_c, 4, 64, 0
6, 211202, Note_on_c, 4, 64, 110
6, 211602, Note_on_c, 4, 64, 0
6, 211681, Note_on_c, 4, 66, 110
6, 211773, Note_on_c, 4, 66, 0
6, 211921, Note_on_c, 4, 68, 110
6, 212023, Note_on_c, 4, 68, 0
6, 212161, Note_on_c, 4, 69, 110
6, 212607, Note_on_c, 4, 69, 0
6, 212640, Control_c, 4, 7, 100
6, 213120, Note_on_c, 4, 64, 63
6, 213121, Note_on_c, 4, 52, 46
6, 213567, Note_on_c, 4, 52, 0
6, 213569, Note_on_c, 4, 64, 0
6, 213597, Note_on_c, 4, 64, 66
6, 213602, Note_on_c, 4, 52, 45
6, 213698, Note_on_c, 4, 64, 0
6, 213710, Note_on_c, 4, 52, 0
6, 213839, Note_on_c, 4, 52, 46
6, 213842, Note_on_c, 4, 64, 62
6, 213940, Note_on_c, 4, 52, 0
6, 213947, Note_on_c, 4, 64, 0
6, 214077, Note_on_c, 4, 64, 64
6, 214378, Note_on_c, 4, 64, 0
6, 237121, Note_on_c, 4, 67, 64
6, 237564, Note_on_c, 4, 67, 0
6, 237599, Note_on_c, 4, 67, 68
6, 237712, Note_on_c, 4, 67, 0
6, 237840, Note_on_c, 4, 67, 63
6, 237953, Note_on_c, 4, 67, 0
6, 238080, Note_on_c, 4, 67, 72
6, 238376, Note_on_c, 4, 67, 0
6, 240961, Note_on_c, 4, 67, 72
6, 241407, Note_on_c, 4, 67, 0
6, 241439, Note_on_c, 4, 67, 68
6, 241555, Note_on_c, 4, 67, 0
6, 241679, Note_on_c, 4, 67, 63
6, 241794, Note_on_c, 4, 67, 0
6, 241918, Note_on_c, 4, 67, 71
6, 242209, Note_on_c, 4, 67, 0
6, 248637, Note_on_c, 4, 64, 52
6, 249078, Note_on_c, 4, 64, 0
6, 249122, Note_on_c, 4, 64, 59
6, 249309, Note_on_c, 4, 64, 0
6, 249358, Note_on_c, 4, 66, 59
6, 249548, Note_on_c, 4, 66, 0
6, 249602, Note_on_c, 4, 64, 61
6, 249602, Note_on_c, 4, 67, 56
6, 250044, Note_on_c, 4, 64, 0
6, 250047, Note_on_c, 4, 67, 0
6, 250078, Note_on_c, 4, 64, 55
6, 250081, Note_on_c, 4, 67, 56
6, 250523, Note_on_c, 4, 64, 0
6, 250523, Note_on_c, 4, 67, 0
6, 256322, Note_on_c, 4, 64, 52
6, 256766, Note_on_c, 4, 64, 0
6, 256802, Note_on_c, 4, 64, 50
6, 256974, Note_on_c, 4, 64, 0
6, 257043, Note_on_c, 4, 64, 51
6, 257211, Note_on_c, 4, 64, 0
6, 257277, Note_on_c, 4, 64, 58
6, 257283, Note_on_c, 4, 59, 56
6, 257694, Note_on_c, 4, 64, 0
6, 257696, Note_on_c, 4, 59, 0
6, 257763, Note_on_c, 4, 64, 55
6, 258206, Note_on_c, 4, 64, 0
6, 260157, Note_on_c, 4, 52, 34
6, 260160, Note_on_c, 4, 64, 48
6, 260603, Note_on_c, 4, 52, 0
6, 260606, Note_on_c, 4, 64, 0
6, 260639, Note_on_c, 4, 52, 31
6, 260640, Note_on_c, 4, 64, 55
6, 260748, Note_on_c, 4, 52, 0
6, 260750, Note_on_c, 4, 64, 0
6, 260881, Note_on_c, 4, 52, 38
6, 260881, Note_on_c, 4, 64, 52
6, 260990, Note_on_c, 4, 52, 0
6, 260991, Note_on_c, 4, 64, 0
6, 261122, Note_on_c, 4, 64, 49
6, 261565, Note_on_c, 4, 64, 0
6, 264960, Control_c, 4, 7, 100
6, 264961, Note_on_c, 4, 52, 58
6, 264962, Note_on_c, 4, 64, 79
6, 265000, Control_c, 4, 7, 99
6, 265020, Control_c, 4, 7, 98
6, 265060, Control_c, 4, 7, 96
6, 265080, Control_c, 4, 7, 95
6, 265100, Control_c, 4, 7, 94
6, 265140, Control_c, 4, 7, 92
6, 265160, Control_c, 4, 7, 91
6, 265180, Control_c, 4, 7, 90
6, 265220, Control_c, 4, 7, 88
6, 265240, Control_c, 4, 7, 88
6, 265280, Control_c, 4, 7, 86
6, 265300, Control_c, 4, 7, 85
6, 265320, Control_c, 4, 7, 84
6, 265360, Control_c, 4, 7, 82
6, 265380, Control_c, 4, 7, 81
6, 265400, Control_c, 4, 7, 80
6, 265440, Control_c, 4, 7, 78
6, 265460, Control_c, 4, 7, 77
6, 265500, Control_c, 4, 7, 75
6, 265520, Control_c, 4, 7, 75
6, 265540, Control_c, 4, 7, 74
6, 265580, Control_c, 4, 7, 72
6, 265600, Control_c, 4, 7, 71
6, 265620, Control_c, 4, 7, 70
6, 265660, Control_c, 4, 7, 68
6, 265680, Control_c, 4, 7, 67
6, 265720, Control_c, 4, 7, 65
6, 265740, Control_c, 4, 7, 64
6, 265760, Control_c, 4, 7, 63
6, 265800, Control_c, 4, 7, 62
6, 265820, Control_c, 4, 7, 61
6, 265840, Control_c, 4, 7, 60
6, 265880, Control_c, 4, 7, 58
6, 265900, Control_c, 4, 7, 57
6, 265920, Control_c, 4, 7, 56
6, 265960, Control_c, 4, 7, 54
6, 265980, Control_c, 4, 7, 53
6, 266020, Control_c, 4, 7, 51
6, 266040, Control_c, 4, 7, 50
6, 266060, Control_c, 4, 7, 50
6, 266100, Control_c, 4, 7, 48
6, 266120, Control_c, 4, 7, 47
6, 266140, Control_c, 4, 7, 46
6, 266180, Control_c, 4, 7, 44
6, 266200, Control_c, 4, 7, 43
6, 266240, Control_c, 4, 7, 41
6, 266260, Control_c, 4, 7, 40
6, 266280, Control_c, 4, 7, 39
6, 266320, Control_c, 4, 7, 38
6, 266340, Control_c, 4, 7, 37
6, 266360, Control_c, 4, 7, 36
6, 266400, Control_c, 4, 7, 34
6, 266420, Control_c, 4, 7, 33
6, 266460, Control_c, 4, 7, 31
6, 266480, Control_c, 4, 7, 30
6, 266500, Control_c, 4, 7, 29
6, 266540, Control_c, 4, 7, 27
6, 266560, Control_c, 4, 7, 26
6, 266580, Control_c, 4, 7, 25
6, 267205, Note_on_c, 4, 64, 0
6, 267206, Note_on_c, 4, 52, 0
6, 267206, End_track
7, 0, Start_track
7, 0, Channel_prefix, 5
7, 0, Title_t, "Trumpet "
7, 0, Instrument_name_t, "Trombe (D)"
7, 72000, Program_c, 5, 56
7, 72000, Control_c, 5, 7, 127
7, 72001, Note_on_c, 5, 57, 89
7, 72001, Note_on_c, 5, 69, 83
7, 72494, Note_on_c, 5, 69, 0
7, 72498, Note_on_c, 5, 57, 0
7, 72960, Note_on_c, 5, 76, 84
7, 73454, Note_on_c, 5, 76, 0
7, 73919, Note_on_c, 5, 76, 79
7, 74413, Note_on_c, 5, 76, 0
7, 74880, Note_on_c, 5, 57, 85
7, 74880, Note_on_c, 5, 69, 85
7, 75376, Note_on_c, 5, 69, 0
7, 75378, Note_on_c, 5, 57, 0
7, 75835, Note_on_c, 5, 69, 80
7, 75841, Note_on_c, 5, 57, 87
7, 76337, Note_on_c, 5, 69, 0
7, 76338, Note_on_c, 5, 57, 0
7, 77276, Note_on_c, 5, 76, 79
7, 77777, Note_on_c, 5, 76, 0
7, 78717, Note_on_c, 5, 76, 78
7, 79211, Note_on_c, 5, 76, 0
7, 79681, Note_on_c, 5, 76, 87
7, 80131, Note_on_c, 5, 76, 0
7, 81600, Note_on_c, 5, 76, 90
7, 82047, Note_on_c, 5, 76, 0
7, 82561, Note_on_c, 5, 69, 87
7, 82562, Note_on_c, 5, 57, 95
7, 83008, Note_on_c, 5, 69, 0
7, 83013, Note_on_c, 5, 57, 0
7, 83520, Note_on_c, 5, 57, 96
7, 83521, Note_on_c, 5, 69, 91
7, 83966, Note_on_c, 5, 57, 0
7, 83969, Note_on_c, 5, 69, 0
7, 84477, Note_on_c, 5, 76, 80
7, 84923, Note_on_c, 5, 76, 0
7, 84960, Note_on_c, 5, 69, 79
7, 84963, Note_on_c, 5, 57, 94
7, 85412, Note_on_c, 5, 69, 0
7, 85413, Note_on_c, 5, 57, 0
7, 85439, Note_on_c, 5, 76, 86
7, 85888, Note_on_c, 5, 76, 0
7, 85917, Note_on_c, 5, 76, 95
7, 86123, Note_on_c, 5, 76, 0
7, 86161, Note_on_c, 5, 76, 82
7, 86373, Note_on_c, 5, 76, 0
7, 86400, Note_on_c, 5, 69, 92
7, 86402, Note_on_c, 5, 57, 84
7, 86848, Note_on_c, 5, 69, 0
7, 86852, Note_on_c, 5, 57, 0
7, 87359, Note_on_c, 5, 76, 88
7, 87362, Control_c, 5, 7, 127
7, 87483, Control_c, 5, 7, 127
7, 87602, Control_c, 5, 7, 126
7, 87718, Control_c, 5, 7, 125
7, 87819, Note_on_c, 5, 76, 0
7, 87837, Control_c, 5, 7, 125
7, 87956, Control_c, 5, 7, 124
7, 88082, Control_c, 5, 7, 123
7, 88199, Control_c, 5, 7, 123
7, 88316, Control_c, 5, 7, 122
7, 88440, Control_c, 5, 7, 121
7, 88557, Control_c, 5, 7, 121
7, 88678, Control_c, 5, 7, 120
7, 88798, Control_c, 5, 7, 119
7, 88917, Control_c, 5, 7, 119
7, 89038, Control_c, 5, 7, 118
7, 89158, Control_c, 5, 7, 117
7, 89276, Control_c, 5, 7, 117
7, 89279, Note_on_c, 5, 76, 84
7, 89403, Control_c, 5, 7, 116
7, 89518, Control_c, 5, 7, 115
7, 89640, Control_c, 5, 7, 115
7, 89739, Note_on_c, 5, 76, 0
7, 89759, Control_c, 5, 7, 114
7, 89875, Control_c, 5, 7, 113
7, 90000, Control_c, 5, 7, 113
7, 90115, Control_c, 5, 7, 112
7, 90243, Note_on_c, 5, 57, 82
7, 90243, Control_c, 5, 7, 111
7, 90244, Note_on_c, 5, 69, 82
7, 90358, Control_c, 5, 7, 111
7, 90483, Control_c, 5, 7, 110
7, 90600, Control_c, 5, 7, 109
7, 90704, Note_on_c, 5, 57, 0
7, 90709, Note_on_c, 5, 69, 0
7, 90721, Control_c, 5, 7, 109
7, 90844, Control_c, 5, 7, 108
7, 90956, Control_c, 5, 7, 107
7, 91078, Control_c, 5, 7, 107
7, 91196, Note_on_c, 5, 69, 80
7, 91198, Note_on_c, 5, 57, 80
7, 91204, Control_c, 5, 7, 106
7, 91317, Control_c, 5, 7, 105
7, 91438, Control_c, 5, 7, 105
7, 91560, Control_c, 5, 7, 104
7, 91655, Note_on_c, 5, 69, 0
7, 91665, Note_on_c, 5, 57, 0
7, 91680, Control_c, 5, 7, 103
7, 91803, Control_c, 5, 7, 103
7, 91924, Control_c, 5, 7, 102
7, 92037, Control_c, 5, 7, 101
7, 92162, Control_c, 5, 7, 100
7, 92164, Note_on_c, 5, 76, 78
7, 92601, Note_on_c, 5, 76, 0
7, 92637, Note_on_c, 5, 69, 77
7, 92641, Note_on_c, 5, 57, 77
7, 93098, Note_on_c, 5, 69, 0
7, 93107, Note_on_c, 5, 57, 0
7, 93121, Note_on_c, 5, 76, 76
7, 93557, Note_on_c, 5, 76, 0
7, 93597, Note_on_c, 5, 76, 75
7, 93762, Note_on_c, 5, 76, 0
7, 93837, Note_on_c, 5, 76, 74
7, 93999, Note_on_c, 5, 76, 0
7, 94076, Note_on_c, 5, 69, 73
7, 94081, Note_on_c, 5, 57, 63
7, 94540, Note_on_c, 5, 69, 0
7, 94545, Note_on_c, 5, 57, 0
7, 106075, Note_on_c, 5, 69, 55
7, 106079, Note_on_c, 5, 57, 52
7, 110365, Note_on_c, 5, 69, 0
7, 110371, Note_on_c, 5, 57, 0
7, 134397, Note_on_c, 5, 78, 61
7, 134903, Note_on_c, 5, 78, 0
7, 136316, Note_on_c, 5, 78, 59
7, 136821, Note_on_c, 5, 78, 0
7, 137280, Control_c, 5, 7, 100
7, 137400, Control_c, 5, 7, 103
7, 137520, Control_c, 5, 7, 106
7, 137640, Control_c, 5, 7, 110
7, 137760, Control_c, 5, 7, 113
7, 137880, Control_c, 5, 7, 116
7, 138000, Control_c, 5, 7, 120
7, 138120, Control_c, 5, 7, 123
7, 138240, Control_c, 5, 7, 127
7, 143041, Note_on_c, 5, 76, 88
7, 143136, Note_on_c, 5, 76, 0
7, 143282, Note_on_c, 5, 76, 91
7, 143376, Note_on_c, 5, 76, 0
7, 144000, Control_c, 5, 7, 100
7, 167037, Note_on_c, 5, 57, 76
7, 167039, Note_on_c, 5, 69, 78
7, 167550, Note_on_c, 5, 57, 0
7, 167550, Note_on_c, 5, 69, 0
7, 168477, Note_on_c, 5, 57, 73
7, 168477, Note_on_c, 5, 69, 74
7, 168686, Note_on_c, 5, 57, 0
7, 168687, Note_on_c, 5, 69, 0
7, 168719, Note_on_c, 5, 69, 73
7, 168720, Note_on_c, 5, 57, 72
7, 168928, Note_on_c, 5, 69, 0
7, 168931, Note_on_c, 5, 57, 0
7, 168957, Note_on_c, 5, 69, 74
7, 168963, Note_on_c, 5, 57, 75
7, 169467, Note_on_c, 5, 69, 0
7, 169470, Note_on_c, 5, 57, 0
7, 170397, Note_on_c, 5, 57, 70
7, 170398, Note_on_c, 5, 69, 76
7, 170607, Note_on_c, 5, 57, 0
7, 170607, Note_on_c, 5, 69, 0
7, 170638, Note_on_c, 5, 57, 78
7, 170641, Note_on_c, 5, 69, 72
7, 170849, Note_on_c, 5, 57, 0
7, 170852, Note_on_c, 5, 69, 0
7, 170877, Note_on_c, 5, 57, 73
7, 170880, Note_on_c, 5, 69, 75
7, 171087, Note_on_c, 5, 57, 0
7, 171088, Note_on_c, 5, 69, 0
7, 171356, Note_on_c, 5, 57, 78
7, 171356, Note_on_c, 5, 69, 82
7, 171563, Note_on_c, 5, 57, 0
7, 171567, Note_on_c, 5, 69, 0
7, 171598, Note_on_c, 5, 57, 82
7, 171598, Note_on_c, 5, 69, 80
7, 171807, Note_on_c, 5, 69, 0
7, 171811, Note_on_c, 5, 57, 0
7, 171840, Note_on_c, 5, 57, 79
7, 171842, Note_on_c, 5, 69, 85
7, 172051, Note_on_c, 5, 57, 0
7, 172054, Note_on_c, 5, 69, 0
7, 172317, Note_on_c, 5, 57, 88
7, 172319, Note_on_c, 5, 69, 84
7, 172525, Note_on_c, 5, 57, 0
7, 172531, Note_on_c, 5, 69, 0
7, 172557, Note_on_c, 5, 69, 92
7, 172560, Note_on_c, 5, 57, 90
7, 172767, Note_on_c, 5, 69, 0
7, 172773, Note_on_c, 5, 57, 0
7, 172800, Note_on_c, 5, 69, 86
7, 172803, Note_on_c, 5, 57, 90
7, 173010, Note_on_c, 5, 69, 0
7, 173015, Note_on_c, 5, 57, 0
7, 173277, Note_on_c, 5, 57, 88
7, 173281, Note_on_c, 5, 69, 80
7, 173488, Note_on_c, 5, 57, 0
7, 173492, Note_on_c, 5, 69, 0
7, 173520, Note_on_c, 5, 57, 76
7, 173523, Note_on_c, 5, 69, 78
7, 173733, Note_on_c, 5, 57, 0
7, 173733, Note_on_c, 5, 69, 0
7, 173757, Note_on_c, 5, 69, 74
7, 173763, Note_on_c, 5, 57, 77
7, 173969, Note_on_c, 5, 69, 0
7, 173976, Note_on_c, 5, 57, 0
7, 174001, Note_on_c, 5, 57, 75
7, 174001, Note_on_c, 5, 69, 72
7, 174211, Note_on_c, 5, 69, 0
7, 174214, Note_on_c, 5, 57, 0
7, 174723, Note_on_c, 5, 57, 62
7, 174723, Note_on_c, 5, 69, 64
7, 174934, Note_on_c, 5, 57, 0
7, 174934, Note_on_c, 5, 69, 0
7, 174959, Note_on_c, 5, 69, 62
7, 174960, Note_on_c, 5, 57, 64
7, 175168, Note_on_c, 5, 57, 0
7, 175169, Note_on_c, 5, 69, 0
7, 175677, Note_on_c, 5, 69, 47
7, 175682, Note_on_c, 5, 57, 47
7, 175888, Note_on_c, 5, 69, 0
7, 175892, Note_on_c, 5, 57, 0
7, 175916, Note_on_c, 5, 69, 50
7, 175922, Note_on_c, 5, 57, 50
7, 176124, Note_on_c, 5, 69, 0
7, 176132, Note_on_c, 5, 57, 0
7, 204480, Control_c, 5, 7, 100
7, 204520, Control_c, 5, 7, 101
7, 204560, Control_c, 5, 7, 102
7, 204600, Control_c, 5, 7, 103
7, 204620, Control_c, 5, 7, 104
7, 204660, Control_c, 5, 7, 105
7, 204700, Control_c, 5, 7, 106
7, 204720, Note_on_c, 5, 76, 70
7, 204720, Control_c, 5, 7, 107
7, 204760, Control_c, 5, 7, 108
7, 204800, Control_c, 5, 7, 109
7, 204840, Control_c, 5, 7, 110
7, 204860, Control_c, 5, 7, 111
7, 204900, Control_c, 5, 7, 112
7, 204940, Control_c, 5, 7, 113
7, 204960, Control_c, 5, 7, 114
7, 205000, Control_c, 5, 7, 115
7, 205040, Control_c, 5, 7, 116
7, 205060, Control_c, 5, 7, 117
7, 205100, Control_c, 5, 7, 118
7, 205140, Control_c, 5, 7, 119
7, 205180, Control_c, 5, 7, 120
7, 205200, Control_c, 5, 7, 121
7, 205240, Control_c, 5, 7, 122
7, 205280, Control_c, 5, 7, 123
7, 205300, Control_c, 5, 7, 124
7, 205340, Control_c, 5, 7, 125
7, 205380, Control_c, 5, 7, 126
7, 205411, Note_on_c, 5, 76, 0
7, 205440, Note_on_c, 5, 76, 110
7, 205891, Note_on_c, 5, 76, 0
7, 205920, Note_on_c, 5, 76, 110
7, 206018, Note_on_c, 5, 76, 0
7, 206160, Note_on_c, 5, 76, 110
7, 206254, Note_on_c, 5, 76, 0
7, 206402, Note_on_c, 5, 76, 110
7, 206800, Note_on_c, 5, 76, 0
7, 206880, Note_on_c, 5, 76, 110
7, 207272, Note_on_c, 5, 76, 0
7, 207358, Note_on_c, 5, 76, 110
7, 207787, Note_on_c, 5, 76, 0
7, 207837, Note_on_c, 5, 76, 110
7, 207937, Note_on_c, 5, 76, 0
7, 208080, Note_on_c, 5, 76, 110
7, 208189, Note_on_c, 5, 76, 0
7, 208320, Note_on_c, 5, 76, 110
7, 208729, Note_on_c, 5, 76, 0
7, 208802, Note_on_c, 5, 76, 110
7, 209224, Note_on_c, 5, 76, 0
7, 209281, Note_on_c, 5, 76, 110
7, 209687, Note_on_c, 5, 76, 0
7, 209760, Note_on_c, 5, 76, 110
7, 209873, Note_on_c, 5, 76, 0
7, 209997, Note_on_c, 5, 76, 110
7, 210125, Note_on_c, 5, 76, 0
7, 210237, Note_on_c, 5, 76, 110
7, 210650, Note_on_c, 5, 76, 0
7, 210722, Note_on_c, 5, 76, 110
7, 211128, Note_on_c, 5, 76, 0
7, 211198, Note_on_c, 5, 76, 110
7, 211601, Note_on_c, 5, 76, 0
7, 211683, Note_on_c, 5, 76, 110
7, 211774, Note_on_c, 5, 76, 0
7, 211919, Note_on_c, 5, 76, 110
7, 212021, Note_on_c, 5, 76, 0
7, 212158, Note_on_c, 5, 69, 110
7, 212161, Note_on_c, 5, 57, 110
7, 212604, Note_on_c, 5, 69, 0
7, 212610, Note_on_c, 5, 57, 0
7, 212640, Control_c, 5, 7, 100
7, 224158, Note_on_c, 5, 69, 57
7, 224161, Note_on_c, 5, 57, 53
7, 228447, Note_on_c, 5, 69, 0
7, 228452, Note_on_c, 5, 57, 0
7, 234238, Note_on_c, 5, 69, 45
7, 234242, Note_on_c, 5, 57, 38
7, 234684, Note_on_c, 5, 69, 0
7, 234687, Note_on_c, 5, 57, 0
7, 234720, Note_on_c, 5, 57, 44
7, 234720, Note_on_c, 5, 69, 36
7, 234833, Note_on_c, 5, 69, 0
7, 234834, Note_on_c, 5, 57, 0
7, 234959, Note_on_c, 5, 69, 36
7, 234960, Note_on_c, 5, 57, 38
7, 235074, Note_on_c, 5, 69, 0
7, 235077, Note_on_c, 5, 57, 0
7, 235198, Note_on_c, 5, 69, 39
7, 235200, Note_on_c, 5, 57, 35
7, 235731, Note_on_c, 5, 69, 0
7, 235737, Note_on_c, 5, 57, 0
7, 236161, Note_on_c, 5, 57, 38
7, 236161, Note_on_c, 5, 69, 45
7, 236606, Note_on_c, 5, 57, 0
7, 236607, Note_on_c, 5, 69, 0
7, 236638, Note_on_c, 5, 69, 37
7, 236640, Note_on_c, 5, 57, 44
7, 236753, Note_on_c, 5, 57, 0
7, 236755, Note_on_c, 5, 69, 0
7, 236878, Note_on_c, 5, 57, 39
7, 236880, Note_on_c, 5, 69, 39
7, 236992, Note_on_c, 5, 57, 0
7, 236994, Note_on_c, 5, 69, 0
7, 238080, Note_on_c, 5, 76, 70
7, 238372, Note_on_c, 5, 76, 0
7, 241921, Note_on_c, 5, 76, 76
7, 242212, Note_on_c, 5, 76, 0
7, 242212, End_track
8, 0, Start_track
8, 0, Channel_prefix, 6
8, 0, Title_t, "Timpani "
8, 0, Instrument_name_t, "Timpani "
8, 72000, Program_c, 6, 47
8, 72000, Control_c, 6, 7, 127
8, 72001, Note_on_c, 6, 45, 127
8, 72497, Note_on_c, 6, 45, 0
8, 72960, Note_on_c, 6, 52, 127
8, 73453, Note_on_c, 6, 52, 0
8, 73917, Note_on_c, 6, 52, 127
8, 74413, Note_on_c, 6, 52, 0
8, 74879, Note_on_c, 6, 45, 127
8, 75376, Note_on_c, 6, 45, 0
8, 75842, Note_on_c, 6, 45, 127
8, 76335, Note_on_c, 6, 45, 0
8, 77276, Note_on_c, 6, 52, 127
8, 77776, Note_on_c, 6, 52, 0
8, 78724, Note_on_c, 6, 52, 127
8, 79222, Note_on_c, 6, 52, 0
8, 79681, Note_on_c, 6, 52, 127
8, 80131, Note_on_c, 6, 52, 0
8, 81600, Note_on_c, 6, 52, 127
8, 82047, Note_on_c, 6, 52, 0
8, 82558, Note_on_c, 6, 45, 127
8, 83012, Note_on_c, 6, 45, 0
8, 83522, Note_on_c, 6, 45, 127
8, 83968, Note_on_c, 6, 45, 0
8, 84483, Note_on_c, 6, 52, 127
8, 84937, Note_on_c, 6, 52, 0
8, 84961, Note_on_c, 6, 45, 127
8, 85407, Note_on_c, 6, 45, 0
8, 85440, Note_on_c, 6, 52, 127
8, 85886, Note_on_c, 6, 52, 0
8, 85923, Note_on_c, 6, 52, 127
8, 86107, Note_on_c, 6, 52, 0
8, 86160, Note_on_c, 6, 52, 127
8, 86336, Note_on_c, 6, 52, 0
8, 86400, Note_on_c, 6, 45, 127
8, 86848, Note_on_c, 6, 45, 0
8, 87357, Note_on_c, 6, 51, 127
8, 87358, Control_c, 6, 7, 127
8, 87480, Control_c, 6, 7, 127
8, 87601, Control_c, 6, 7, 126
8, 87716, Control_c, 6, 7, 125
8, 87787, Note_on_c, 6, 51, 0
8, 87838, Control_c, 6, 7, 125
8, 87964, Control_c, 6, 7, 124
8, 88081, Control_c, 6, 7, 123
8, 88199, Control_c, 6, 7, 123
8, 88318, Control_c, 6, 7, 122
8, 88444, Control_c, 6, 7, 121
8, 88561, Control_c, 6, 7, 121
8, 88683, Control_c, 6, 7, 120
8, 88798, Control_c, 6, 7, 119
8, 88918, Control_c, 6, 7, 119
8, 89037, Control_c, 6, 7, 118
8, 89160, Control_c, 6, 7, 117
8, 89276, Control_c, 6, 7, 117
8, 89283, Note_on_c, 6, 51, 103
8, 89402, Control_c, 6, 7, 116
8, 89523, Control_c, 6, 7, 115
8, 89642, Control_c, 6, 7, 115
8, 89719, Note_on_c, 6, 51, 0
8, 89758, Control_c, 6, 7, 114
8, 89881, Control_c, 6, 7, 113
8, 90001, Control_c, 6, 7, 113
8, 90117, Control_c, 6, 7, 112
8, 90235, Control_c, 6, 7, 111
8, 90240, Note_on_c, 6, 45, 91
8, 90357, Control_c, 6, 7, 111
8, 90483, Control_c, 6, 7, 110
8, 90602, Control_c, 6, 7, 109
8, 90676, Note_on_c, 6, 45, 0
8, 90719, Control_c, 6, 7, 109
8, 90839, Control_c, 6, 7, 108
8, 90964, Control_c, 6, 7, 107
8, 91080, Control_c, 6, 7, 107
8, 91201, Control_c, 6, 7, 106
8, 91203, Note_on_c, 6, 45, 79
8, 91322, Control_c, 6, 7, 105
8, 91442, Control_c, 6, 7, 105
8, 91561, Control_c, 6, 7, 104
8, 91635, Note_on_c, 6, 45, 0
8, 91679, Control_c, 6, 7, 103
8, 91797, Control_c, 6, 7, 103
8, 91924, Control_c, 6, 7, 102
8, 92038, Control_c, 6, 7, 101
8, 92155, Control_c, 6, 7, 100
8, 92163, Note_on_c, 6, 51, 66
8, 92596, Note_on_c, 6, 51, 0
8, 92641, Note_on_c, 6, 45, 65
8, 93073, Note_on_c, 6, 45, 0
8, 93122, Note_on_c, 6, 51, 65
8, 93555, Note_on_c, 6, 51, 0
8, 93602, Note_on_c, 6, 51, 65
8, 93826, Note_on_c, 6, 51, 0
8, 93843, Note_on_c, 6, 51, 65
8, 94067, Note_on_c, 6, 51, 0
8, 94079, Note_on_c, 6, 45, 65
8, 94515, Note_on_c, 6, 45, 0
8, 134400, Note_on_c, 6, 52, 61
8, 134906, Note_on_c, 6, 52, 0
8, 136322, Note_on_c, 6, 52, 65
8, 136830, Note_on_c, 6, 52, 0
8, 142560, Control_c, 6, 7, 127
8, 143036, Note_on_c, 6, 52, 103
8, 143223, Note_on_c, 6, 52, 0
8, 143278, Note_on_c, 6, 52, 101
8, 143461, Note_on_c, 6, 52, 0
8, 144000, Control_c, 6, 7, 100
8, 167039, Note_on_c, 6, 45, 68
8, 167489, Note_on_c, 6, 45, 0
8, 168482, Note_on_c, 6, 45, 64
8, 168694, Note_on_c, 6, 45, 0
8, 168716, Note_on_c, 6, 45, 61
8, 168928, Note_on_c, 6, 45, 0
8, 168959, Note_on_c, 6, 45, 66
8, 169409, Note_on_c, 6, 45, 0
8, 170398, Note_on_c, 6, 45, 66
8, 170609, Note_on_c, 6, 45, 0
8, 170642, Note_on_c, 6, 45, 60
8, 170849, Note_on_c, 6, 45, 0
8, 170882, Note_on_c, 6, 45, 62
8, 171095, Note_on_c, 6, 45, 0
8, 171357, Note_on_c, 6, 45, 64
8, 171567, Note_on_c, 6, 45, 0
8, 171599, Note_on_c, 6, 45, 67
8, 171810, Note_on_c, 6, 45, 0
8, 171841, Note_on_c, 6, 45, 72
8, 172051, Note_on_c, 6, 45, 0
8, 172322, Note_on_c, 6, 45, 69
8, 172533, Note_on_c, 6, 45, 0
8, 172562, Note_on_c, 6, 45, 69
8, 172770, Note_on_c, 6, 45, 0
8, 172797, Note_on_c, 6, 45, 72
8, 173004, Note_on_c, 6, 45, 0
8, 173279, Note_on_c, 6, 45, 77
8, 173489, Note_on_c, 6, 45, 0
8, 173523, Note_on_c, 6, 45, 81
8, 173735, Note_on_c, 6, 45, 0
8, 173760, Note_on_c, 6, 45, 79
8, 173972, Note_on_c, 6, 45, 0
8, 173997, Note_on_c, 6, 45, 77
8, 174205, Note_on_c, 6, 45, 0
8, 174718, Note_on_c, 6, 45, 62
8, 174930, Note_on_c, 6, 45, 0
8, 174961, Note_on_c, 6, 45, 65
8, 175172, Note_on_c, 6, 45, 0
8, 175676, Note_on_c, 6, 45, 53
8, 175888, Note_on_c, 6, 45, 0
8, 175920, Note_on_c, 6, 45, 48
8, 176128, Note_on_c, 6, 45, 0
8, 204480, Control_c, 6, 7, 100
8, 204520, Control_c, 6, 7, 101
8, 204560, Control_c, 6, 7, 102
8, 204580, Control_c, 6, 7, 103
8, 204620, Control_c, 6, 7, 104
8, 204660, Control_c, 6, 7, 105
8, 204680, Control_c, 6, 7, 106
8, 204717, Note_on_c, 6, 52, 60
8, 204720, Control_c, 6, 7, 107
8, 204760, Control_c, 6, 7, 108
8, 204780, Control_c, 6, 7, 109
8, 204781, Note_on_c, 6, 52, 0
8, 204820, Control_c, 6, 7, 110
8, 204837, Note_on_c, 6, 52, 75
8, 204860, Control_c, 6, 7, 111
8, 204880, Control_c, 6, 7, 112
8, 204898, Note_on_c, 6, 52, 0
8, 204920, Control_c, 6, 7, 113
8, 204957, Note_on_c, 6, 52, 75
8, 204960, Control_c, 6, 7, 114
8, 204980, Control_c, 6, 7, 115
8, 205020, Control_c, 6, 7, 116
8, 205022, Note_on_c, 6, 52, 0
8, 205060, Control_c, 6, 7, 117
8, 205077, Note_on_c, 6, 52, 85
8, 205080, Control_c, 6, 7, 118
8, 205120, Control_c, 6, 7, 119
8, 205137, Note_on_c, 6, 52, 0
8, 205160, Control_c, 6, 7, 120
8, 205180, Control_c, 6, 7, 121
8, 205197, Note_on_c, 6, 52, 90
8, 205220, Control_c, 6, 7, 122
8, 205260, Control_c, 6, 7, 123
8, 205265, Note_on_c, 6, 52, 0
8, 205280, Control_c, 6, 7, 124
8, 205317, Note_on_c, 6, 52, 98
8, 205320, Control_c, 6, 7, 125
8, 205360, Control_c, 6, 7, 126
8, 205376, Note_on_c, 6, 52, 0
8, 205437, Note_on_c, 6, 52, 127
8, 205888, Note_on_c, 6, 52, 0
8, 205917, Note_on_c, 6, 52, 127
8, 206018, Note_on_c, 6, 52, 0
8, 206157, Note_on_c, 6, 52, 127
8, 206251, Note_on_c, 6, 52, 0
8, 206403, Note_on_c, 6, 52, 124
8, 206794, Note_on_c, 6, 52, 0
8, 206883, Note_on_c, 6, 52, 126
8, 207273, Note_on_c, 6, 52, 0
8, 207357, Note_on_c, 6, 52, 127
8, 207783, Note_on_c, 6, 52, 0
8, 207838, Note_on_c, 6, 52, 124
8, 207937, Note_on_c, 6, 52, 0
8, 208081, Note_on_c, 6, 52, 127
8, 208189, Note_on_c, 6, 52, 0
8, 208317, Note_on_c, 6, 52, 124
8, 208729, Note_on_c, 6, 52, 0
8, 208803, Note_on_c, 6, 52, 124
8, 209221, Note_on_c, 6, 52, 0
8, 209280, Note_on_c, 6, 52, 127
8, 209688, Note_on_c, 6, 52, 0
8, 209761, Note_on_c, 6, 52, 127
8, 209877, Note_on_c, 6, 52, 0
8, 210001, Note_on_c, 6, 52, 127
8, 210123, Note_on_c, 6, 52, 0
8, 210238, Note_on_c, 6, 52, 127
8, 210651, Note_on_c, 6, 52, 0
8, 210717, Note_on_c, 6, 52, 127
8, 211118, Note_on_c, 6, 52, 0
8, 211200, Note_on_c, 6, 52, 126
8, 211605, Note_on_c, 6, 52, 0
8, 211682, Note_on_c, 6, 52, 126
8, 211777, Note_on_c, 6, 52, 0
8, 211920, Note_on_c, 6, 52, 127
8, 212025, Note_on_c, 6, 52, 0
8, 212162, Note_on_c, 6, 45, 127
8, 212612, Note_on_c, 6, 45, 0
8, 212640, Control_c, 6, 7, 100
8, 234239, Note_on_c, 6, 45, 67
8, 234684, Note_on_c, 6, 45, 0
8, 234721, Note_on_c, 6, 45, 68
8, 234838, Note_on_c, 6, 45, 0
8, 234961, Note_on_c, 6, 45, 68
8, 235076, Note_on_c, 6, 45, 0
8, 235198, Note_on_c, 6, 45, 66
8, 235735, Note_on_c, 6, 45, 0
8, 236160, Note_on_c, 6, 45, 60
8, 236607, Note_on_c, 6, 45, 0
8, 236641, Note_on_c, 6, 45, 62
8, 236754, Note_on_c, 6, 45, 0
8, 236880, Note_on_c, 6, 45, 63
8, 236997, Note_on_c, 6, 45, 0
8, 238080, Note_on_c, 6, 52, 110
8, 238373, Note_on_c, 6, 52, 0
8, 241925, Note_on_c, 6, 52, 110
8, 242217, Note_on_c, 6, 52, 0
8, 242217, End_track
9, 0, Start_track
9, 0, Channel_prefix, 7
9, 0, Title_t, "Violin I"
9, 0, Instrument_name_t, "Violino I"
9, 48960, Program_c, 7, 48
9, 48960, Note_on_c, 7, 76, 63
9, 49076, Control_c, 7, 7, 100
9, 49200, Control_c, 7, 7, 100
9, 49317, Control_c, 7, 7, 100
9, 49375, Note_on_c, 7, 76, 0
9, 49438, Control_c, 7, 7, 100
9, 49440, Note_on_c, 7, 76, 64
9, 49511, Note_on_c, 7, 76, 0
9, 49559, Control_c, 7, 7, 101
9, 49676, Control_c, 7, 7, 101
9, 49680, Note_on_c, 7, 76, 65
9, 49759, Note_on_c, 7, 76, 0
9, 49800, Control_c, 7, 7, 101
9, 49923, Note_on_c, 7, 76, 65
9, 49923, Control_c, 7, 7, 101
9, 50042, Control_c, 7, 7, 101
9, 50158, Control_c, 7, 7, 102
9, 50276, Control_c, 7, 7, 102
9, 50329, Note_on_c, 7, 76, 0
9, 50396, Note_on_c, 7, 76, 67
9, 50397, Control_c, 7, 7, 102
9, 50521, Control_c, 7, 7, 102
9, 50642, Control_c, 7, 7, 102
9, 50759, Control_c, 7, 7, 103
9, 50779, Note_on_c, 7, 76, 0
9, 50881, Note_on_c, 7, 76, 68
9, 50882, Control_c, 7, 7, 103
9, 50999, Control_c, 7, 7, 103
9, 51118, Control_c, 7, 7, 103
9, 51241, Control_c, 7, 7, 104
9, 51310, Note_on_c, 7, 76, 0
9, 51358, Note_on_c, 7, 76, 70
9, 51361, Control_c, 7, 7, 104
9, 51430, Note_on_c, 7, 76, 0
9, 51478, Control_c, 7, 7, 104
9, 51596, Control_c, 7, 7, 104
9, 51604, Note_on_c, 7, 76, 71
9, 51675, Note_on_c, 7, 76, 0
9, 51718, Control_c, 7, 7, 104
9, 51835, Note_on_c, 7, 76, 71
9, 51842, Control_c, 7, 7, 105
9, 51962, Control_c, 7, 7, 105
9, 52082, Control_c, 7, 7, 105
9, 52201, Control_c, 7, 7, 105
9, 52227, Note_on_c, 7, 76, 0
9, 52316, Control_c, 7, 7, 105
9, 52317, Note_on_c, 7, 76, 73
9, 52443, Control_c, 7, 7, 106
9, 52562, Control_c, 7, 7, 106
9, 52684, Control_c, 7, 7, 106
9, 52692, Note_on_c, 7, 76, 0
9, 52800, Note_on_c, 7, 76, 74
9, 52800, Control_c, 7, 7, 106
9, 52921, Control_c, 7, 7, 106
9, 53035, Control_c, 7, 7, 107
9, 53161, Control_c, 7, 7, 107
9, 53223, Note_on_c, 7, 76, 0
9, 53275, Note_on_c, 7, 76, 76
9, 53281, Control_c, 7, 7, 107
9, 53353, Note_on_c, 7, 76, 0
9, 53404, Control_c, 7, 7, 107
9, 53515, Control_c, 7, 7, 108
9, 53518, Note_on_c, 7, 78, 76
9, 53599, Note_on_c, 7, 78, 0
9, 53641, Control_c, 7, 7, 108
9, 53758, Note_on_c, 7, 79, 77
9, 53759, Control_c, 7, 7, 108
9, 53884, Control_c, 7, 7, 108
9, 54000, Control_c, 7, 7, 108
9, 54118, Control_c, 7, 7, 109
9, 54142, Note_on_c, 7, 79, 0
9, 54243, Note_on_c, 7, 79, 79
9, 54243, Control_c, 7, 7, 109
9, 54364, Control_c, 7, 7, 109
9, 54480, Control_c, 7, 7, 109
9, 54599, Control_c, 7, 7, 109
9, 54637, Note_on_c, 7, 79, 0
9, 54721, Control_c, 7, 7, 110
9, 54722, Note_on_c, 7, 79, 80
9, 54839, Control_c, 7, 7, 110
9, 54956, Control_c, 7, 7, 110
9, 55080, Control_c, 7, 7, 110
9, 55132, Note_on_c, 7, 79, 0
9, 55196, Note_on_c, 7, 79, 82
9, 55204, Control_c, 7, 7, 110
9, 55281, Note_on_c, 7, 79, 0
9, 55319, Control_c, 7, 7, 111
9, 55437, Note_on_c, 7, 79, 82
9, 55439, Control_c, 7, 7, 111
9, 55538, Note_on_c, 7, 79, 0
9, 55562, Control_c, 7, 7, 111
9, 55677, Control_c, 7, 7, 111
9, 55680, Note_on_c, 7, 79, 83
9, 55796, Control_c, 7, 7, 112
9, 55919, Control_c, 7, 7, 112
9, 56039, Control_c, 7, 7, 112
9, 56131, Note_on_c, 7, 79, 0
9, 56156, Control_c, 7, 7, 112
9, 56280, Control_c, 7, 7, 112
9, 56399, Control_c, 7, 7, 113
9, 56517, Control_c, 7, 7, 113
9, 56638, Control_c, 7, 7, 113
9, 56639, Note_on_c, 7, 79, 86
9, 56757, Control_c, 7, 7, 113
9, 56882, Control_c, 7, 7, 113
9, 57002, Control_c, 7, 7, 114
9, 57027, Note_on_c, 7, 79, 0
9, 57117, Note_on_c, 7, 79, 87
9, 57120, Control_c, 7, 7, 114
9, 57225, Note_on_c, 7, 79, 0
9, 57237, Control_c, 7, 7, 114
9, 57361, Control_c, 7, 7, 114
9, 57363, Note_on_c, 7, 81, 88
9, 57462, Note_on_c, 7, 81, 0
9, 57483, Control_c, 7, 7, 114
9, 57598, Note_on_c, 7, 83, 89
9, 57602, Control_c, 7, 7, 115
9, 57719, Control_c, 7, 7, 115
9, 57840, Control_c, 7, 7, 115
9, 57963, Control_c, 7, 7, 115
9, 58011, Note_on_c, 7, 83, 0
9, 58082, Note_on_c, 7, 83, 90
9, 58083, Control_c, 7, 7, 116
9, 58201, Control_c, 7, 7, 116
9, 58322, Control_c, 7, 7, 116
9, 58441, Control_c, 7, 7, 116
9, 58481, Note_on_c, 7, 83, 0
9, 58557, Control_c, 7, 7, 116
9, 58564, Note_on_c, 7, 78, 92
9, 58679, Control_c, 7, 7, 117
9, 58802, Control_c, 7, 7, 117
9, 58916, Control_c, 7, 7, 117
9, 58965, Note_on_c, 7, 78, 0
9, 59041, Note_on_c, 7, 78, 93
9, 59043, Control_c, 7, 7, 117
9, 59121, Note_on_c, 7, 78, 0
9, 59157, Control_c, 7, 7, 117
9, 59275, Note_on_c, 7, 80, 94
9, 59276, Control_c, 7, 7, 118
9, 59376, Note_on_c, 7, 80, 0
9, 59402, Control_c, 7, 7, 118
9, 59517, Control_c, 7, 7, 118
9, 59520, Note_on_c, 7, 81, 95
9, 59643, Control_c, 7, 7, 118
9, 59756, Control_c, 7, 7, 118
9, 59877, Control_c, 7, 7, 119
9, 59926, Note_on_c, 7, 81, 0
9, 60004, Note_on_c, 7, 81, 96
9, 60004, Control_c, 7, 7, 119
9, 60121, Control_c, 7, 7, 119
9, 60241, Control_c, 7, 7, 119
9, 60360, Control_c, 7, 7, 120
9, 60385, Note_on_c, 7, 81, 0
9, 60477, Control_c, 7, 7, 120
9, 60480, Note_on_c, 7, 76, 98
9, 60600, Control_c, 7, 7, 120
9, 60724, Control_c, 7, 7, 120
9, 60843, Control_c, 7, 7, 120
9, 60892, Note_on_c, 7, 76, 0
9, 60955, Note_on_c, 7, 76, 99
9, 60958, Control_c, 7, 7, 121
9, 61064, Note_on_c, 7, 76, 0
9, 61078, Control_c, 7, 7, 121
9, 61199, Note_on_c, 7, 76, 100
9, 61204, Control_c, 7, 7, 121
9, 61313, Note_on_c, 7, 76, 0
9, 61319, Control_c, 7, 7, 121
9, 61439, Control_c, 7, 7, 121
9, 61440, Note_on_c, 7, 76, 101
9, 61560, Control_c, 7, 7, 122
9, 61675, Control_c, 7, 7, 122
9, 61804, Control_c, 7, 7, 122
9, 61840, Note_on_c, 7, 76, 0
9, 61916, Note_on_c, 7, 76, 102
9, 61922, Control_c, 7, 7, 122
9, 62036, Control_c, 7, 7, 122
9, 62162, Control_c, 7, 7, 123
9, 62281, Control_c, 7, 7, 123
9, 62336, Note_on_c, 7, 76, 0
9, 62398, Note_on_c, 7, 76, 104
9, 62400, Control_c, 7, 7, 123
9, 62524, Control_c, 7, 7, 123
9, 62644, Control_c, 7, 7, 124
9, 62763, Control_c, 7, 7, 124
9, 62796, Note_on_c, 7, 76, 0
9, 62877, Note_on_c, 7, 78, 105
9, 62877, Control_c, 7, 7, 124
9, 62956, Note_on_c, 7, 78, 0
9, 62997, Control_c, 7, 7, 124
9, 63120, Control_c, 7, 7, 124
9, 63121, Note_on_c, 7, 80, 106
9, 63215, Note_on_c, 7, 80, 0
9, 63244, Control_c, 7, 7, 125
9, 63359, Control_c, 7, 7, 125
9, 63360, Note_on_c, 7, 81, 107
9, 63479, Control_c, 7, 7, 125
9, 63597, Control_c, 7, 7, 125
9, 63721, Control_c, 7, 7, 125
9, 63769, Note_on_c, 7, 81, 0
9, 63840, Control_c, 7, 7, 126
9, 63962, Control_c, 7, 7, 126
9, 64079, Control_c, 7, 7, 126
9, 64198, Control_c, 7, 7, 126
9, 64316, Control_c, 7, 7, 127
9, 64319, Note_on_c, 7, 79, 109
9, 64702, Note_on_c, 7, 79, 0
9, 64800, Note_on_c, 7, 79, 108
9, 64908, Note_on_c, 7, 79, 0
9, 65039, Note_on_c, 7, 81, 112
9, 65138, Note_on_c, 7, 81, 0
9, 65280, Note_on_c, 7, 83, 109
9, 65699, Note_on_c, 7, 83, 0
9, 65762, Note_on_c, 7, 83, 109
9, 66163, Note_on_c, 7, 83, 0
9, 66242, Note_on_c, 7, 78, 111
9, 66646, Note_on_c, 7, 78, 0
9, 66722, Note_on_c, 7, 78, 107
9, 66803, Note_on_c, 7, 78, 0
9, 66962, Note_on_c, 7, 80, 113
9, 67065, Note_on_c, 7, 80, 0
9, 67200, Note_on_c, 7, 81, 107
9, 67610, Note_on_c, 7, 81, 0
9, 67680, Note_on_c, 7, 81, 108
9, 68057, Note_on_c, 7, 81, 0
9, 68160, Note_on_c, 7, 76, 112
9, 68573, Note_on_c, 7, 76, 0
9, 68638, Note_on_c, 7, 76, 112
9, 68744, Note_on_c, 7, 76, 0
9, 68883, Note_on_c, 7, 76, 110
9, 68999, Note_on_c, 7, 76, 0
9, 69122, Note_on_c, 7, 76, 110
9, 69519, Note_on_c, 7, 76, 0
9, 69602, Note_on_c, 7, 76, 110
9, 70017, Note_on_c, 7, 76, 0
9, 70078, Note_on_c, 7, 76, 112
9, 70477, Note_on_c, 7, 76, 0
9, 70555, Note_on_c, 7, 78, 110
9, 70641, Note_on_c, 7, 78, 0
9, 70798, Note_on_c, 7, 80, 108
9, 70888, Note_on_c, 7, 80, 0
9, 71037, Note_on_c, 7, 81, 112
9, 71447, Note_on_c, 7, 81, 0
9, 72017, Note_on_c, 7, 84, 127
9, 72979, Note_on_c, 7, 83, 127
9, 72987, Note_on_c, 7, 84, 0
9, 73824, Note_on_c, 7, 83, 0
9, 73941, Note_on_c, 7, 83, 127
9, 74018, Note_on_c, 7, 84, 127
9, 74034, Note_on_c, 7, 83, 0
9, 74105, Note_on_c, 7, 86, 127
9, 74137, Note_on_c, 7, 84, 0
9, 74642, Note_on_c, 7, 84, 127
9, 74684, Note_on_c, 7, 86, 0
9, 74732, Note_on_c, 7, 83, 127
9, 74780, Note_on_c, 7, 84, 0
9, 74844, Note_on_c, 7, 83, 0
9, 74905, Note_on_c, 7, 83, 127
9, 75131, Note_on_c, 7, 84, 127
9, 75163, Note_on_c, 7, 83, 0
9, 75342, Note_on_c, 7, 84, 0
9, 75391, Note_on_c, 7, 84, 127
9, 75714, Note_on_c, 7, 84, 0
9, 75859, Note_on_c, 7, 84, 127
9, 76539, Note_on_c, 7, 84, 0
9, 76552, Note_on_c, 7, 72, 127
9, 76677, Note_on_c, 7, 74, 127
9, 76717, Note_on_c, 7, 72, 0
9, 76769, Note_on_c, 7, 75, 127
9, 76803, Note_on_c, 7, 74, 0
9, 77101, Note_on_c, 7, 76, 127
9, 77133, Note_on_c, 7, 75, 0
9, 77225, Note_on_c, 7, 76, 0
9, 77305, Note_on_c, 7, 76, 127
9, 77437, Note_on_c, 7, 76, 0
9, 77517, Note_on_c, 7, 76, 127
9, 77621, Note_on_c, 7, 76, 0
9, 77761, Note_on_c, 7, 74, 127
9, 77813, Note_on_c, 7, 76, 127
9, 77843, Note_on_c, 7, 74, 0
9, 77921, Note_on_c, 7, 77, 127
9, 77942, Note_on_c, 7, 76, 0
9, 78472, Note_on_c, 7, 76, 127
9, 78511, Note_on_c, 7, 77, 0
9, 78559, Note_on_c, 7, 74, 127
9, 78599, Note_on_c, 7, 76, 0
9, 78670, Note_on_c, 7, 74, 0
9, 78717, Note_on_c, 7, 74, 127
9, 78983, Note_on_c, 7, 76, 127
9, 79010, Note_on_c, 7, 74, 0
9, 79188, Note_on_c, 7, 76, 0
9, 79235, Note_on_c, 7, 76, 127
9, 79545, Note_on_c, 7, 76, 0
9, 79684, Note_on_c, 7, 76, 127
9, 80139, Note_on_c, 7, 88, 127
9, 80296, Note_on_c, 7, 76, 0
9, 80664, Note_on_c, 7, 87, 127
9, 80679, Note_on_c, 7, 88, 0
9, 81476, Note_on_c, 7, 87, 0
9, 81599, Note_on_c, 7, 86, 127
9, 81881, Note_on_c, 7, 83, 127
9, 81922, Note_on_c, 7, 86, 0
9, 82008, Note_on_c, 7, 85, 127
9, 82053, Note_on_c, 7, 83, 0
9, 82116, Note_on_c, 7, 86, 127
9, 82136, Note_on_c, 7, 85, 0
9, 82335, Note_on_c, 7, 88, 127
9, 82363, Note_on_c, 7, 86, 0
9, 82427, Note_on_c, 7, 86, 127
9, 82484, Note_on_c, 7, 88, 0
9, 82534, Note_on_c, 7, 86, 0
9, 82569, Note_on_c, 7, 86, 127
9, 82854, Note_on_c, 7, 85, 127
9, 82879, Note_on_c, 7, 86, 0
9, 83081, Note_on_c, 7, 84, 127
9, 83103, Note_on_c, 7, 85, 0
9, 83445, Note_on_c, 7, 84, 0
9, 83523, Note_on_c, 7, 84, 127
9, 84482, Note_on_c, 7, 83, 127
9, 84507, Note_on_c, 7, 84, 0
9, 84979, Note_on_c, 7, 84, 127
9, 85021, Note_on_c, 7, 83, 0
9, 85414, Note_on_c, 7, 84, 0
9, 85465, Note_on_c, 7, 83, 127
9, 85520, Note_on_c, 7, 84, 127
9, 85550, Note_on_c, 7, 83, 0
9, 85623, Note_on_c, 7, 86, 127
9, 85651, Note_on_c, 7, 84, 0
9, 86152, Note_on_c, 7, 84, 127
9, 86200, Note_on_c, 7, 86, 0
9, 86267, Note_on_c, 7, 83, 127
9, 86315, Note_on_c, 7, 84, 0
9, 86450, Note_on_c, 7, 81, 127
9, 86492, Note_on_c, 7, 83, 0
9, 86550, Note_on_c, 7, 81, 0
9, 86656, Note_on_c, 7, 69, 127
9, 86765, Note_on_c, 7, 71, 127
9, 86794, Note_on_c, 7, 69, 0
9, 86920, Note_on_c, 7, 72, 127
9, 86952, Note_on_c, 7, 71, 0
9, 87041, Note_on_c, 7, 72, 0
9, 87127, Note_on_c, 7, 72, 127
9, 87245, Note_on_c, 7, 74, 127
9, 87291, Note_on_c, 7, 72, 0
9, 87358, Control_c, 7, 7, 127
9, 87375, Note_on_c, 7, 74, 0
9, 87385, Note_on_c, 7, 76, 127
9, 87484, Control_c, 7, 7, 127
9, 87597, Control_c, 7, 7, 127
9, 87721, Control_c, 7, 7, 126
9, 87841, Control_c, 7, 7, 126
9, 87868, Note_on_c, 7, 88, 123
9, 87939, Note_on_c, 7, 76, 0
9, 87960, Control_c, 7, 7, 125
9, 88081, Control_c, 7, 7, 125
9, 88196, Control_c, 7, 7, 124
9, 88321, Control_c, 7, 7, 124
9, 88338, Note_on_c, 7, 87, 119
9, 88373, Note_on_c, 7, 88, 0
9, 88437, Control_c, 7, 7, 123
9, 88560, Control_c, 7, 7, 123
9, 88678, Control_c, 7, 7, 122
9, 88799, Control_c, 7, 7, 122
9, 88921, Control_c, 7, 7, 121
9, 89040, Control_c, 7, 7, 121
9, 89157, Note_on_c, 7, 87, 0
9, 89157, Control_c, 7, 7, 120
9, 89274, Note_on_c, 7, 86, 110
9, 89279, Control_c, 7, 7, 120
9, 89396, Control_c, 7, 7, 119
9, 89515, Control_c, 7, 7, 119
9, 89563, Note_on_c, 7, 83, 108
9, 89599, Note_on_c, 7, 86, 0
9, 89637, Control_c, 7, 7, 118
9, 89668, Note_on_c, 7, 85, 107
9, 89717, Note_on_c, 7, 83, 0
9, 89763, Control_c, 7, 7, 118
9, 89799, Note_on_c, 7, 86, 106
9, 89818, Note_on_c, 7, 85, 0
9, 89883, Control_c, 7, 7, 117
9, 90000, Control_c, 7, 7, 117
9, 90016, Note_on_c, 7, 88, 104
9, 90056, Note_on_c, 7, 86, 0
9, 90116, Control_c, 7, 7, 116
9, 90132, Note_on_c, 7, 86, 103
9, 90183, Note_on_c, 7, 88, 0
9, 90238, Control_c, 7, 7, 116
9, 90239, Note_on_c, 7, 86, 0
9, 90253, Note_on_c, 7, 86, 102
9, 90363, Control_c, 7, 7, 115
9, 90484, Control_c, 7, 7, 115
9, 90513, Note_on_c, 7, 85, 99
9, 90546, Note_on_c, 7, 86, 0
9, 90599, Control_c, 7, 7, 114
9, 90722, Control_c, 7, 7, 114
9, 90744, Note_on_c, 7, 84, 97
9, 90770, Note_on_c, 7, 85, 0
9, 90840, Control_c, 7, 7, 114
9, 90961, Control_c, 7, 7, 113
9, 91077, Control_c, 7, 7, 113
9, 91107, Note_on_c, 7, 84, 0
9, 91201, Note_on_c, 7, 84, 93
9, 91202, Control_c, 7, 7, 112
9, 91324, Control_c, 7, 7, 112
9, 91439, Control_c, 7, 7, 111
9, 91561, Control_c, 7, 7, 111
9, 91683, Control_c, 7, 7, 110
9, 91795, Control_c, 7, 7, 110
9, 91917, Control_c, 7, 7, 109
9, 92040, Control_c, 7, 7, 109
9, 92155, Note_on_c, 7, 83, 85
9, 92157, Control_c, 7, 7, 108
9, 92177, Note_on_c, 7, 84, 0
9, 92282, Control_c, 7, 7, 108
9, 92398, Control_c, 7, 7, 107
9, 92523, Control_c, 7, 7, 107
9, 92637, Note_on_c, 7, 84, 80
9, 92640, Control_c, 7, 7, 106
9, 92668, Note_on_c, 7, 83, 0
9, 92764, Control_c, 7, 7, 106
9, 92883, Control_c, 7, 7, 105
9, 93000, Control_c, 7, 7, 105
9, 93034, Note_on_c, 7, 84, 0
9, 93120, Control_c, 7, 7, 104
9, 93131, Note_on_c, 7, 83, 76
9, 93204, Note_on_c, 7, 84, 75
9, 93230, Note_on_c, 7, 83, 0
9, 93243, Control_c, 7, 7, 104
9, 93314, Note_on_c, 7, 86, 74
9, 93339, Note_on_c, 7, 84, 0
9, 93359, Control_c, 7, 7, 103
9, 93482, Control_c, 7, 7, 103
9, 93603, Control_c, 7, 7, 102
9, 93722, Control_c, 7, 7, 102
9, 93822, Note_on_c, 7, 84, 70
9, 93840, Control_c, 7, 7, 101
9, 93865, Note_on_c, 7, 86, 0
9, 93936, Note_on_c, 7, 83, 69
9, 93964, Control_c, 7, 7, 101
9, 93974, Note_on_c, 7, 84, 0
9, 94079, Note_on_c, 7, 81, 68
9, 94082, Control_c, 7, 7, 100
9, 94114, Note_on_c, 7, 83, 0
9, 94532, Note_on_c, 7, 81, 0
9, 95013, Note_on_c, 7, 71, 65
9, 95123, Note_on_c, 7, 72, 65
9, 95160, Note_on_c, 7, 71, 0
9, 95259, Note_on_c, 7, 74, 64
9, 95283, Note_on_c, 7, 72, 0
9, 95736, Note_on_c, 7, 72, 64
9, 95784, Note_on_c, 7, 74, 0
9, 95849, Note_on_c, 7, 71, 63
9, 95905, Note_on_c, 7, 72, 0
9, 96009, Note_on_c, 7, 69, 63
9, 96047, Note_on_c, 7, 71, 0
9, 96430, Note_on_c, 7, 69, 0
9, 97446, Note_on_c, 7, 76, 55
9, 97601, Note_on_c, 7, 74, 56
9, 97645, Note_on_c, 7, 76, 0
9, 97757, Note_on_c, 7, 71, 54
9, 97820, Note_on_c, 7, 74, 0
9, 97904, Note_on_c, 7, 71, 0
9, 97923, Note_on_c, 7, 76, 56
9, 98077, Note_on_c, 7, 73, 55
9, 98125, Note_on_c, 7, 76, 0
9, 98239, Note_on_c, 7, 69, 57
9, 98296, Note_on_c, 7, 73, 0
9, 98405, Note_on_c, 7, 73, 55
9, 98440, Note_on_c, 7, 69, 0
9, 98559, Note_on_c, 7, 69, 55
9, 98612, Note_on_c, 7, 73, 0
9, 98718, Note_on_c, 7, 64, 59
9, 98775, Note_on_c, 7, 69, 0
9, 98856, Note_on_c, 7, 64, 0
9, 98880, Note_on_c, 7, 69, 55
9, 99039, Note_on_c, 7, 64, 56
9, 99084, Note_on_c, 7, 69, 0
9, 99197, Note_on_c, 7, 61, 56
9, 99255, Note_on_c, 7, 64, 0
9, 99358, Note_on_c, 7, 73, 53
9, 99396, Note_on_c, 7, 61, 0
9, 99525, Note_on_c, 7, 69, 59
9, 99558, Note_on_c, 7, 73, 0
9, 99679, Note_on_c, 7, 64, 55
9, 99737, Note_on_c, 7, 69, 0
9, 99823, Note_on_c, 7, 64, 0
9, 99839, Note_on_c, 7, 73, 56
9, 100002, Note_on_c, 7, 66, 56
9, 100039, Note_on_c, 7, 73, 0
9, 100156, Note_on_c, 7, 62, 58
9, 100216, Note_on_c, 7, 66, 0
9, 100319, Note_on_c, 7, 71, 57
9, 100356, Note_on_c, 7, 62, 0
9, 100482, Note_on_c, 7, 66, 54
9, 100525, Note_on_c, 7, 71, 0
9, 100638, Note_on_c, 7, 62, 60
9, 100700, Note_on_c, 7, 66, 0
9, 100783, Note_on_c, 7, 62, 0
9, 100802, Note_on_c, 7, 71, 59
9, 100963, Note_on_c, 7, 66, 57
9, 101005, Note_on_c, 7, 71, 0
9, 101117, Note_on_c, 7, 62, 54
9, 101182, Note_on_c, 7, 66, 0
9, 101286, Note_on_c, 7, 69, 56
9, 101319, Note_on_c, 7, 62, 0
9, 101435, Note_on_c, 7, 61, 60
9, 101488, Note_on_c, 7, 69, 0
9, 101600, Note_on_c, 7, 69, 56
9, 101651, Note_on_c, 7, 61, 0
9, 101744, Note_on_c, 7, 69, 0
9, 101760, Note_on_c, 7, 59, 54
9, 101917, Note_on_c, 7, 62, 58
9, 101966, Note_on_c, 7, 59, 0
9, 102084, Note_on_c, 7, 68, 57
9, 102132, Note_on_c, 7, 62, 0
9, 102238, Note_on_c, 7, 69, 56
9, 102285, Note_on_c, 7, 68, 0
9, 102400, Note_on_c, 7, 61, 56
9, 102439, Note_on_c, 7, 69, 0
9, 102558, Note_on_c, 7, 69, 56
9, 102618, Note_on_c, 7, 61, 0
9, 102719, Note_on_c, 7, 62, 56
9, 102761, Note_on_c, 7, 69, 0
9, 102878, Note_on_c, 7, 66, 58
9, 102922, Note_on_c, 7, 62, 0
9, 103037, Note_on_c, 7, 71, 56
9, 103095, Note_on_c, 7, 66, 0
9, 103195, Note_on_c, 7, 73, 56
9, 103239, Note_on_c, 7, 71, 0
9, 103361, Note_on_c, 7, 64, 58
9, 103401, Note_on_c, 7, 73, 0
9, 103522, Note_on_c, 7, 73, 55
9, 103579, Note_on_c, 7, 64, 0
9, 103683, Note_on_c, 7, 66, 58
9, 103753, Note_on_c, 7, 73, 0
9, 103835, Note_on_c, 7, 69, 52
9, 103887, Note_on_c, 7, 66, 0
9, 104002, Note_on_c, 7, 74, 60
9, 104049, Note_on_c, 7, 69, 0
9, 104157, Note_on_c, 7, 76, 58
9, 104205, Note_on_c, 7, 74, 0
9, 104320, Note_on_c, 7, 68, 56
9, 104365, Note_on_c, 7, 76, 0
9, 104476, Note_on_c, 7, 76, 60
9, 104539, Note_on_c, 7, 68, 0
9, 104619, Note_on_c, 7, 76, 0
9, 104645, Note_on_c, 7, 74, 57
9, 104794, Note_on_c, 7, 68, 58
9, 104853, Note_on_c, 7, 74, 0
9, 104965, Note_on_c, 7, 71, 56
9, 105010, Note_on_c, 7, 68, 0
9, 105119, Note_on_c, 7, 69, 56
9, 105168, Note_on_c, 7, 71, 0
9, 105277, Note_on_c, 7, 73, 56
9, 105324, Note_on_c, 7, 69, 0
9, 105442, Note_on_c, 7, 81, 54
9, 105494, Note_on_c, 7, 73, 0
9, 105581, Note_on_c, 7, 81, 0
9, 105601, Note_on_c, 7, 81, 55
9, 105765, Note_on_c, 7, 73, 56
9, 105802, Note_on_c, 7, 81, 0
9, 105918, Note_on_c, 7, 69, 56
9, 105985, Note_on_c, 7, 73, 0
9, 106085, Note_on_c, 7, 76, 56
9, 106121, Note_on_c, 7, 69, 0
9, 106243, Note_on_c, 7, 73, 54
9, 106291, Note_on_c, 7, 76, 0
9, 106398, Note_on_c, 7, 67, 58
9, 106461, Note_on_c, 7, 73, 0
9, 106561, Note_on_c, 7, 73, 56
9, 106627, Note_on_c, 7, 67, 0
9, 106718, Note_on_c, 7, 67, 55
9, 106763, Note_on_c, 7, 73, 0
9, 106879, Note_on_c, 7, 64, 56
9, 106937, Note_on_c, 7, 67, 0
9, 107036, Note_on_c, 7, 76, 57
9, 107082, Note_on_c, 7, 64, 0
9, 107200, Note_on_c, 7, 73, 56
9, 107245, Note_on_c, 7, 76, 0
9, 107362, Note_on_c, 7, 67, 53
9, 107416, Note_on_c, 7, 73, 0
9, 107504, Note_on_c, 7, 67, 0
9, 107517, Note_on_c, 7, 76, 56
9, 107683, Note_on_c, 7, 73, 56
9, 107715, Note_on_c, 7, 76, 0
9, 107838, Note_on_c, 7, 67, 54
9, 107899, Note_on_c, 7, 73, 0
9, 107999, Note_on_c, 7, 66, 54
9, 108041, Note_on_c, 7, 67, 0
9, 108162, Note_on_c, 7, 74, 55
9, 108208, Note_on_c, 7, 66, 0
9, 108320, Note_on_c, 7, 76, 56
9, 108379, Note_on_c, 7, 74, 0
9, 108464, Note_on_c, 7, 76, 0
9, 108480, Note_on_c, 7, 78, 56
9, 108643, Note_on_c, 7, 74, 53
9, 108683, Note_on_c, 7, 78, 0
9, 108797, Note_on_c, 7, 66, 56
9, 108860, Note_on_c, 7, 74, 0
9, 108965, Note_on_c, 7, 64, 56
9, 109002, Note_on_c, 7, 66, 0
9, 109121, Note_on_c, 7, 73, 55
9, 109170, Note_on_c, 7, 64, 0
9, 109286, Note_on_c, 7, 76, 57
9, 109339, Note_on_c, 7, 73, 0
9, 109437, Note_on_c, 7, 74, 57
9, 109521, Note_on_c, 7, 76, 0
9, 109597, Note_on_c, 7, 71, 58
9, 109643, Note_on_c, 7, 74, 0
9, 109754, Note_on_c, 7, 64, 56
9, 109808, Note_on_c, 7, 71, 0
9, 109892, Note_on_c, 7, 64, 0
9, 109918, Note_on_c, 7, 64, 53
9, 110077, Note_on_c, 7, 69, 57
9, 110119, Note_on_c, 7, 64, 0
9, 110243, Note_on_c, 7, 73, 56
9, 110293, Note_on_c, 7, 69, 0
9, 110389, Note_on_c, 7, 73, 0
9, 110401, Note_on_c, 7, 71, 56
9, 110557, Note_on_c, 7, 68, 54
9, 110604, Note_on_c, 7, 71, 0
9, 110718, Note_on_c, 7, 64, 56
9, 110772, Note_on_c, 7, 68, 0
9, 110876, Note_on_c, 7, 66, 56
9, 110953, Note_on_c, 7, 64, 0
9, 111038, Note_on_c, 7, 69, 57
9, 111082, Note_on_c, 7, 66, 0
9, 111200, Note_on_c, 7, 75, 55
9, 111252, Note_on_c, 7, 69, 0
9, 111343, Note_on_c, 7, 75, 0
9, 111361, Note_on_c, 7, 76, 53
9, 111520, Note_on_c, 7, 71, 56
9, 111565, Note_on_c, 7, 76, 0
9, 111673, Note_on_c, 7, 68, 54
9, 111739, Note_on_c, 7, 71, 0
9, 111843, Note_on_c, 7, 76, 57
9, 111906, Note_on_c, 7, 68, 0
9, 111994, Note_on_c, 7, 71, 56
9, 112049, Note_on_c, 7, 76, 0
9, 112159, Note_on_c, 7, 68, 55
9, 112213, Note_on_c, 7, 71, 0
9, 112322, Note_on_c, 7, 78, 56
9, 112394, Note_on_c, 7, 68, 0
9, 112480, Note_on_c, 7, 71, 58
9, 112525, Note_on_c, 7, 78, 0
9, 112642, Note_on_c, 7, 69, 57
9, 112695, Note_on_c, 7, 71, 0
9, 112800, Note_on_c, 7, 78, 57
9, 112875, Note_on_c, 7, 69, 0
9, 112959, Note_on_c, 7, 71, 55
9, 113002, Note_on_c, 7, 78, 0
9, 113124, Note_on_c, 7, 69, 55
9, 113173, Note_on_c, 7, 71, 0
9, 113265, Note_on_c, 7, 69, 0
9, 113280, Note_on_c, 7, 76, 57
9, 113442, Note_on_c, 7, 71, 57
9, 113486, Note_on_c, 7, 76, 0
9, 113601, Note_on_c, 7, 68, 55
9, 113661, Note_on_c, 7, 71, 0
9, 113761, Note_on_c, 7, 76, 57
9, 113836, Note_on_c, 7, 68, 0
9, 113924, Note_on_c, 7, 71, 54
9, 113968, Note_on_c, 7, 76, 0
9, 114074, Note_on_c, 7, 68, 52
9, 114143, Note_on_c, 7, 71, 0
9, 114239, Note_on_c, 7, 75, 55
9, 114309, Note_on_c, 7, 68, 0
9, 114403, Note_on_c, 7, 69, 57
9, 114444, Note_on_c, 7, 75, 0
9, 114560, Note_on_c, 7, 66, 57
9, 114619, Note_on_c, 7, 69, 0
9, 114726, Note_on_c, 7, 71, 55
9, 114793, Note_on_c, 7, 66, 0
9, 114878, Note_on_c, 7, 69, 56
9, 114933, Note_on_c, 7, 71, 0
9, 115043, Note_on_c, 7, 66, 57
9, 115093, Note_on_c, 7, 69, 0
9, 115189, Note_on_c, 7, 66, 0
9, 115202, Note_on_c, 7, 64, 56
9, 115359, Note_on_c, 7, 68, 54
9, 115401, Note_on_c, 7, 64, 0
9, 115525, Note_on_c, 7, 71, 56
9, 115577, Note_on_c, 7, 68, 0
9, 115680, Note_on_c, 7, 68, 60
9, 115759, Note_on_c, 7, 71, 0
9, 115838, Note_on_c, 7, 71, 58
9, 115886, Note_on_c, 7, 68, 0
9, 115997, Note_on_c, 7, 76, 56
9, 116052, Note_on_c, 7, 71, 0
9, 116137, Note_on_c, 7, 76, 0
9, 116162, Note_on_c, 7, 78, 58
9, 116317, Note_on_c, 7, 71, 54
9, 116364, Note_on_c, 7, 78, 0
9, 116477, Note_on_c, 7, 69, 57
9, 116532, Note_on_c, 7, 71, 0
9, 116640, Note_on_c, 7, 78, 54
9, 116709, Note_on_c, 7, 69, 0
9, 116795, Note_on_c, 7, 71, 56
9, 116842, Note_on_c, 7, 78, 0
9, 116957, Note_on_c, 7, 69, 58
9, 117013, Note_on_c, 7, 71, 0
9, 117105, Note_on_c, 7, 69, 0
9, 117149, Note_on_c, 7, 76, 57
9, 117280, Note_on_c, 7, 71, 54
9, 117349, Note_on_c, 7, 76, 0
9, 117439, Note_on_c, 7, 68, 55
9, 117500, Note_on_c, 7, 71, 0
9, 117602, Note_on_c, 7, 76, 56
9, 117673, Note_on_c, 7, 68, 0
9, 117761, Note_on_c, 7, 71, 57
9, 117810, Note_on_c, 7, 76, 0
9, 117915, Note_on_c, 7, 68, 58
9, 117981, Note_on_c, 7, 71, 0
9, 118056, Note_on_c, 7, 68, 0
9, 118081, Note_on_c, 7, 76, 53
9, 118237, Note_on_c, 7, 70, 57
9, 118285, Note_on_c, 7, 76, 0
9, 118394, Note_on_c, 7, 67, 58
9, 118451, Note_on_c, 7, 70, 0
9, 118563, Note_on_c, 7, 64, 56
9, 118629, Note_on_c, 7, 67, 0
9, 118725, Note_on_c, 7, 67, 56
9, 118766, Note_on_c, 7, 64, 0
9, 118884, Note_on_c, 7, 70, 52
9, 118944, Note_on_c, 7, 67, 0
9, 119038, Note_on_c, 7, 64, 56
9, 119118, Note_on_c, 7, 70, 0
9, 119199, Note_on_c, 7, 68, 54
9, 119242, Note_on_c, 7, 64, 0
9, 119359, Note_on_c, 7, 71, 58
9, 119414, Note_on_c, 7, 68, 0
9, 119520, Note_on_c, 7, 76, 60
9, 119593, Note_on_c, 7, 71, 0
9, 119678, Note_on_c, 7, 71, 55
9, 119722, Note_on_c, 7, 76, 0
9, 119840, Note_on_c, 7, 68, 55
9, 119893, Note_on_c, 7, 71, 0
9, 119986, Note_on_c, 7, 68, 0
9, 119997, Note_on_c, 7, 76, 56
9, 120157, Note_on_c, 7, 70, 57
9, 120199, Note_on_c, 7, 76, 0
9, 120322, Note_on_c, 7, 67, 58
9, 120372, Note_on_c, 7, 70, 0
9, 120478, Note_on_c, 7, 64, 59
9, 120552, Note_on_c, 7, 67, 0
9, 120641, Note_on_c, 7, 67, 59
9, 120679, Note_on_c, 7, 64, 0
9, 120797, Note_on_c, 7, 70, 54
9, 120857, Note_on_c, 7, 67, 0
9, 120956, Note_on_c, 7, 64, 55
9, 121062, Note_on_c, 7, 70, 0
9, 121124, Note_on_c, 7, 68, 54
9, 121161, Note_on_c, 7, 64, 0
9, 121278, Note_on_c, 7, 71, 56
9, 121343, Note_on_c, 7, 68, 0
9, 121445, Note_on_c, 7, 76, 58
9, 121509, Note_on_c, 7, 71, 0
9, 121594, Note_on_c, 7, 71, 56
9, 121652, Note_on_c, 7, 76, 0
9, 121759, Note_on_c, 7, 68, 53
9, 121808, Note_on_c, 7, 71, 0
9, 121899, Note_on_c, 7, 68, 0
9, 121922, Note_on_c, 7, 76, 56
9, 122078, Note_on_c, 7, 70, 55
9, 122127, Note_on_c, 7, 76, 0
9, 122239, Note_on_c, 7, 67, 60
9, 122294, Note_on_c, 7, 70, 0
9, 122398, Note_on_c, 7, 64, 53
9, 122467, Note_on_c, 7, 67, 0
9, 122560, Note_on_c, 7, 67, 54
9, 122602, Note_on_c, 7, 64, 0
9, 122717, Note_on_c, 7, 70, 54
9, 122776, Note_on_c, 7, 67, 0
9, 122859, Note_on_c, 7, 70, 0
9, 122877, Note_on_c, 7, 64, 52
9, 123037, Note_on_c, 7, 71, 57
9, 123083, Note_on_c, 7, 64, 0
9, 123204, Note_on_c, 7, 64, 54
9, 123252, Note_on_c, 7, 71, 0
9, 123343, Note_on_c, 7, 64, 0
9, 123361, Note_on_c, 7, 64, 56
9, 123523, Note_on_c, 7, 71, 57
9, 123562, Note_on_c, 7, 64, 0
9, 123676, Note_on_c, 7, 74, 56
9, 123736, Note_on_c, 7, 71, 0
9, 123842, Note_on_c, 7, 73, 57
9, 123905, Note_on_c, 7, 74, 0
9, 123999, Note_on_c, 7, 69, 57
9, 124048, Note_on_c, 7, 73, 0
9, 124160, Note_on_c, 7, 64, 57
9, 124215, Note_on_c, 7, 69, 0
9, 124319, Note_on_c, 7, 62, 56
9, 124391, Note_on_c, 7, 64, 0
9, 124477, Note_on_c, 7, 68, 56
9, 124525, Note_on_c, 7, 62, 0
9, 124647, Note_on_c, 7, 71, 56
9, 124691, Note_on_c, 7, 68, 0
9, 124790, Note_on_c, 7, 71, 0
9, 124797, Note_on_c, 7, 64, 56
9, 124961, Note_on_c, 7, 69, 55
9, 125000, Note_on_c, 7, 64, 0
9, 125120, Note_on_c, 7, 73, 52
9, 125174, Note_on_c, 7, 69, 0
9, 125276, Note_on_c, 7, 74, 56
9, 125356, Note_on_c, 7, 73, 0
9, 125440, Note_on_c, 7, 75, 58
9, 125481, Note_on_c, 7, 74, 0
9, 125597, Note_on_c, 7, 76, 58
9, 125658, Note_on_c, 7, 75, 0
9, 125741, Note_on_c, 7, 76, 0
9, 125757, Note_on_c, 7, 76, 56
9, 125916, Note_on_c, 7, 70, 57
9, 125960, Note_on_c, 7, 76, 0
9, 126075, Note_on_c, 7, 67, 57
9, 126131, Note_on_c, 7, 70, 0
9, 126243, Note_on_c, 7, 64, 57
9, 126308, Note_on_c, 7, 67, 0
9, 126405, Note_on_c, 7, 67, 55
9, 126451, Note_on_c, 7, 64, 0
9, 126556, Note_on_c, 7, 70, 58
9, 126616, Note_on_c, 7, 67, 0
9, 126718, Note_on_c, 7, 64, 58
9, 126817, Note_on_c, 7, 70, 0
9, 126880, Note_on_c, 7, 68, 55
9, 126919, Note_on_c, 7, 64, 0
9, 127038, Note_on_c, 7, 71, 54
9, 127095, Note_on_c, 7, 68, 0
9, 127202, Note_on_c, 7, 76, 59
9, 127274, Note_on_c, 7, 71, 0
9, 127355, Note_on_c, 7, 71, 59
9, 127409, Note_on_c, 7, 76, 0
9, 127519, Note_on_c, 7, 68, 55
9, 127571, Note_on_c, 7, 71, 0
9, 127660, Note_on_c, 7, 68, 0
9, 127679, Note_on_c, 7, 76, 52
9, 127837, Note_on_c, 7, 70, 58
9, 127882, Note_on_c, 7, 76, 0
9, 128001, Note_on_c, 7, 67, 57
9, 128056, Note_on_c, 7, 70, 0
9, 128164, Note_on_c, 7, 64, 58
9, 128233, Note_on_c, 7, 67, 0
9, 128320, Note_on_c, 7, 67, 58
9, 128369, Note_on_c, 7, 64, 0
9, 128477, Note_on_c, 7, 70, 54
9, 128539, Note_on_c, 7, 67, 0
9, 128640, Note_on_c, 7, 64, 52
9, 128710, Note_on_c, 7, 70, 0
9, 128797, Note_on_c, 7, 68, 54
9, 128849, Note_on_c, 7, 64, 0
9, 128957, Note_on_c, 7, 71, 54
9, 129014, Note_on_c, 7, 68, 0
9, 129117, Note_on_c, 7, 76, 54
9, 129187, Note_on_c, 7, 71, 0
9, 129281, Note_on_c, 7, 71, 55
9, 129326, Note_on_c, 7, 76, 0
9, 129445, Note_on_c, 7, 68, 57
9, 129495, Note_on_c, 7, 71, 0
9, 129587, Note_on_c, 7, 68, 0
9, 129598, Note_on_c, 7, 76, 56
9, 129761, Note_on_c, 7, 70, 58
9, 129797, Note_on_c, 7, 76, 0
9, 129920, Note_on_c, 7, 67, 56
9, 129979, Note_on_c, 7, 70, 0
9, 130077, Note_on_c, 7, 64, 60
9, 130157, Note_on_c, 7, 67, 0
9, 130241, Note_on_c, 7, 67, 58
9, 130279, Note_on_c, 7, 64, 0
9, 130399, Note_on_c, 7, 70, 58
9, 130454, Note_on_c, 7, 67, 0
9, 130560, Note_on_c, 7, 69, 58
9, 130633, Note_on_c, 7, 70, 0
9, 130723, Note_on_c, 7, 77, 56
9, 130763, Note_on_c, 7, 69, 0
9, 130875, Note_on_c, 7, 69, 58
9, 130934, Note_on_c, 7, 77, 0
9, 130987, Note_on_c, 7, 69, 0
9, 131038, Note_on_c, 7, 69, 57
9, 131195, Note_on_c, 7, 74, 57
9, 131240, Note_on_c, 7, 69, 0
9, 131364, Note_on_c, 7, 77, 55
9, 131414, Note_on_c, 7, 74, 0
9, 131518, Note_on_c, 7, 76, 57
9, 131625, Note_on_c, 7, 77, 0
9, 131677, Note_on_c, 7, 72, 54
9, 131727, Note_on_c, 7, 76, 0
9, 131833, Note_on_c, 7, 67, 55
9, 131894, Note_on_c, 7, 72, 0
9, 132003, Note_on_c, 7, 65, 57
9, 132067, Note_on_c, 7, 67, 0
9, 132160, Note_on_c, 7, 71, 57
9, 132207, Note_on_c, 7, 65, 0
9, 132322, Note_on_c, 7, 74, 56
9, 132376, Note_on_c, 7, 71, 0
9, 132462, Note_on_c, 7, 74, 0
9, 132475, Note_on_c, 7, 64, 59
9, 132645, Note_on_c, 7, 72, 57
9, 132673, Note_on_c, 7, 64, 0
9, 132795, Note_on_c, 7, 76, 57
9, 132866, Note_on_c, 7, 72, 0
9, 132965, Note_on_c, 7, 72, 56
9, 133027, Note_on_c, 7, 76, 0
9, 133122, Note_on_c, 7, 76, 53
9, 133170, Note_on_c, 7, 72, 0
9, 133280, Note_on_c, 7, 79, 56
9, 133334, Note_on_c, 7, 76, 0
9, 133425, Note_on_c, 7, 79, 0
9, 133438, Note_on_c, 7, 71, 64
9, 133596, Note_on_c, 7, 74, 64
9, 133636, Note_on_c, 7, 71, 0
9, 133759, Note_on_c, 7, 79, 69
9, 133818, Note_on_c, 7, 74, 0
9, 133920, Note_on_c, 7, 71, 64
9, 133991, Note_on_c, 7, 79, 0
9, 134082, Note_on_c, 7, 74, 64
9, 134126, Note_on_c, 7, 71, 0
9, 134240, Note_on_c, 7, 79, 63
9, 134295, Note_on_c, 7, 74, 0
9, 134382, Note_on_c, 7, 79, 0
9, 134400, Note_on_c, 7, 72, 69
9, 134563, Note_on_c, 7, 76, 63
9, 134598, Note_on_c, 7, 72, 0
9, 134720, Note_on_c, 7, 79, 61
9, 134787, Note_on_c, 7, 76, 0
9, 134880, Note_on_c, 7, 72, 62
9, 134950, Note_on_c, 7, 79, 0
9, 135043, Note_on_c, 7, 76, 67
9, 135084, Note_on_c, 7, 72, 0
9, 135197, Note_on_c, 7, 79, 61
9, 135252, Note_on_c, 7, 76, 0
9, 135342, Note_on_c, 7, 79, 0
9, 135360, Note_on_c, 7, 71, 63
9, 135519, Note_on_c, 7, 74, 66
9, 135556, Note_on_c, 7, 71, 0
9, 135680, Note_on_c, 7, 79, 64
9, 135739, Note_on_c, 7, 74, 0
9, 135836, Note_on_c, 7, 71, 59
9, 135908, Note_on_c, 7, 79, 0
9, 136003, Note_on_c, 7, 74, 59
9, 136040, Note_on_c, 7, 71, 0
9, 136160, Note_on_c, 7, 79, 67
9, 136212, Note_on_c, 7, 74, 0
9, 136301, Note_on_c, 7, 79, 0
9, 136316, Note_on_c, 7, 72, 69
9, 136482, Note_on_c, 7, 76, 60
9, 136511, Note_on_c, 7, 72, 0
9, 136641, Note_on_c, 7, 79, 62
9, 136700, Note_on_c, 7, 76, 0
9, 136799, Note_on_c, 7, 72, 68
9, 136876, Note_on_c, 7, 79, 0
9, 136963, Note_on_c, 7, 76, 60
9, 137005, Note_on_c, 7, 72, 0
9, 137117, Note_on_c, 7, 79, 67
9, 137177, Note_on_c, 7, 76, 0
9, 137264, Note_on_c, 7, 79, 0
9, 137280, Control_c, 7, 7, 100
9, 137281, Note_on_c, 7, 71, 68
9, 137400, Control_c, 7, 7, 103
9, 137439, Note_on_c, 7, 74, 65
9, 137480, Note_on_c, 7, 71, 0
9, 137520, Control_c, 7, 7, 106
9, 137598, Note_on_c, 7, 79, 60
9, 137640, Control_c, 7, 7, 110
9, 137663, Note_on_c, 7, 74, 0
9, 137760, Control_c, 7, 7, 113
9, 137761, Note_on_c, 7, 71, 68
9, 137833, Note_on_c, 7, 79, 0
9, 137880, Control_c, 7, 7, 116
9, 137917, Note_on_c, 7, 74, 59
9, 137969, Note_on_c, 7, 71, 0
9, 138000, Control_c, 7, 7, 120
9, 138081, Note_on_c, 7, 79, 67
9, 138120, Control_c, 7, 7, 123
9, 138130, Note_on_c, 7, 74, 0
9, 138223, Note_on_c, 7, 79, 0
9, 138240, Control_c, 7, 7, 127
9, 139037, Note_on_c, 7, 81, 80
9, 139128, Note_on_c, 7, 81, 0
9, 139197, Note_on_c, 7, 79, 75
9, 139286, Note_on_c, 7, 79, 0
9, 139363, Note_on_c, 7, 77, 75
9, 139458, Note_on_c, 7, 77, 0
9, 139517, Note_on_c, 7, 76, 80
9, 139609, Note_on_c, 7, 76, 0
9, 139678, Note_on_c, 7, 74, 75
9, 139772, Note_on_c, 7, 74, 0
9, 139840, Note_on_c, 7, 72, 83
9, 139928, Note_on_c, 7, 72, 0
9, 140003, Note_on_c, 7, 71, 80
9, 140091, Note_on_c, 7, 71, 0
9, 140163, Note_on_c, 7, 69, 77
9, 140253, Note_on_c, 7, 69, 0
9, 140320, Note_on_c, 7, 67, 82
9, 140408, Note_on_c, 7, 67, 0
9, 140481, Note_on_c, 7, 65, 75
9, 140568, Note_on_c, 7, 65, 0
9, 140640, Note_on_c, 7, 64, 77
9, 140730, Note_on_c, 7, 64, 0
9, 140796, Note_on_c, 7, 62, 76
9, 140890, Note_on_c, 7, 62, 0
9, 140960, Note_on_c, 7, 60, 84
9, 141048, Note_on_c, 7, 60, 0
9, 141121, Note_on_c, 7, 59, 85
9, 141245, Note_on_c, 7, 59, 0
9, 142559, Note_on_c, 7, 64, 107
9, 142647, Note_on_c, 7, 64, 0
9, 142798, Note_on_c, 7, 64, 105
9, 142888, Note_on_c, 7, 64, 0
9, 144000, Control_c, 7, 7, 100
9, 144123, Note_on_c, 7, 72, 75
9, 144182, Note_on_c, 7, 72, 0
9, 144239, Note_on_c, 7, 69, 75
9, 144302, Note_on_c, 7, 69, 0
9, 144358, Note_on_c, 7, 72, 75
9, 144419, Note_on_c, 7, 72, 0
9, 144480, Note_on_c, 7, 76, 75
9, 144544, Note_on_c, 7, 76, 0
9, 144598, Note_on_c, 7, 72, 75
9, 144657, Note_on_c, 7, 72, 0
9, 144721, Note_on_c, 7, 69, 75
9, 144786, Note_on_c, 7, 69, 0
9, 144841, Note_on_c, 7, 72, 75
9, 144903, Note_on_c, 7, 72, 0
9, 144959, Note_on_c, 7, 64, 75
9, 145231, Note_on_c, 7, 64, 0
9, 146041, Note_on_c, 7, 71, 75
9, 146103, Note_on_c, 7, 71, 0
9, 146158, Note_on_c, 7, 68, 75
9, 146221, Note_on_c, 7, 68, 0
9, 146282, Note_on_c, 7, 71, 75
9, 146347, Note_on_c, 7, 71, 0
9, 146398, Note_on_c, 7, 76, 75
9, 146459, Note_on_c, 7, 76, 0
9, 146519, Note_on_c, 7, 71, 75
9, 146579, Note_on_c, 7, 71, 0
9, 146643, Note_on_c, 7, 68, 75
9, 146705, Note_on_c, 7, 68, 0
9, 146762, Note_on_c, 7, 71, 75
9, 146826, Note_on_c, 7, 71, 0
9, 146879, Note_on_c, 7, 64, 75
9, 147152, Note_on_c, 7, 64, 0
9, 147958, Note_on_c, 7, 72, 75
9, 148022, Note_on_c, 7, 72, 0
9, 148081, Note_on_c, 7, 67, 75
9, 148143, Note_on_c, 7, 67, 0
9, 148200, Note_on_c, 7, 72, 75
9, 148261, Note_on_c, 7, 72, 0
9, 148317, Note_on_c, 7, 76, 75
9, 148379, Note_on_c, 7, 76, 0
9, 148438, Note_on_c, 7, 72, 75
9, 148502, Note_on_c, 7, 72, 0
9, 148561, Note_on_c, 7, 69, 75
9, 148624, Note_on_c, 7, 69, 0
9, 148680, Note_on_c, 7, 72, 75
9, 148744, Note_on_c, 7, 72, 0
9, 148797, Note_on_c, 7, 55, 75
9, 149069, Note_on_c, 7, 55, 0
9, 149879, Note_on_c, 7, 74, 75
9, 149941, Note_on_c, 7, 74, 0
9, 149999, Note_on_c, 7, 71, 75
9, 150061, Note_on_c, 7, 71, 0
9, 150121, Note_on_c, 7, 74, 75
9, 150186, Note_on_c, 7, 74, 0
9, 150238, Note_on_c, 7, 79, 75
9, 150302, Note_on_c, 7, 79, 0
9, 150361, Note_on_c, 7, 74, 75
9, 150423, Note_on_c, 7, 74, 0
9, 150478, Note_on_c, 7, 71, 75
9, 150539, Note_on_c, 7, 71, 0
9, 150601, Note_on_c, 7, 74, 75
9, 150660, Note_on_c, 7, 74, 0
9, 150721, Note_on_c, 7, 67, 75
9, 150991, Note_on_c, 7, 67, 0
9, 151798, Note_on_c, 7, 67, 75
9, 151860, Note_on_c, 7, 67, 0
9, 151920, Note_on_c, 7, 64, 75
9, 151983, Note_on_c, 7, 64, 0
9, 152041, Note_on_c, 7, 67, 75
9, 152101, Note_on_c, 7, 67, 0
9, 152158, Note_on_c, 7, 72, 75
9, 152220, Note_on_c, 7, 72, 0
9, 152282, Note_on_c, 7, 64, 75
9, 152343, Note_on_c, 7, 64, 0
9, 152397, Note_on_c, 7, 60, 75
9, 152458, Note_on_c, 7, 60, 0
9, 152518, Note_on_c, 7, 66, 75
9, 152580, Note_on_c, 7, 66, 0
9, 152640, Note_on_c, 7, 66, 75
9, 152912, Note_on_c, 7, 66, 0
9, 153720, Note_on_c, 7, 69, 75
9, 153782, Note_on_c, 7, 69, 0
9, 153840, Note_on_c, 7, 66, 75
9, 153902, Note_on_c, 7, 66, 0
9, 153960, Note_on_c, 7, 69, 75
9, 154020, Note_on_c, 7, 69, 0
9, 154081, Note_on_c, 7, 74, 75
9, 154145, Note_on_c, 7, 74, 0
9, 154203, Note_on_c, 7, 69, 75
9, 154265, Note_on_c, 7, 69, 0
9, 154320, Note_on_c, 7, 64, 75
9, 154383, Note_on_c, 7, 64, 0
9, 154442, Note_on_c, 7, 71, 75
9, 154504, Note_on_c, 7, 71, 0
9, 154557, Note_on_c, 7, 64, 75
9, 154827, Note_on_c, 7, 64, 0
9, 155639, Note_on_c, 7, 72, 75
9, 155702, Note_on_c, 7, 72, 0
9, 155761, Note_on_c, 7, 69, 75
9, 155823, Note_on_c, 7, 69, 0
9, 155881, Note_on_c, 7, 72, 75
9, 155941, Note_on_c, 7, 72, 0
9, 155997, Note_on_c, 7, 76, 75
9, 156059, Note_on_c, 7, 76, 0
9, 156120, Note_on_c, 7, 72, 75
9, 156180, Note_on_c, 7, 72, 0
9, 156237, Note_on_c, 7, 69, 75
9, 156299, Note_on_c, 7, 69, 0
9, 156357, Note_on_c, 7, 72, 75
9, 156419, Note_on_c, 7, 72, 0
9, 156480, Note_on_c, 7, 64, 75
9, 156754, Note_on_c, 7, 64, 0
9, 157557, Note_on_c, 7, 71, 75
9, 157619, Note_on_c, 7, 71, 0
9, 157677, Note_on_c, 7, 64, 75
9, 157737, Note_on_c, 7, 64, 0
9, 157801, Note_on_c, 7, 71, 75
9, 157863, Note_on_c, 7, 71, 0
9, 157919, Note_on_c, 7, 76, 75
9, 157978, Note_on_c, 7, 76, 0
9, 158037, Note_on_c, 7, 71, 75
9, 158099, Note_on_c, 7, 71, 0
9, 158160, Note_on_c, 7, 64, 75
9, 158225, Note_on_c, 7, 64, 0
9, 158280, Note_on_c, 7, 74, 75
9, 158342, Note_on_c, 7, 74, 0
9, 158398, Note_on_c, 7, 72, 75
9, 158399, Note_on_c, 7, 64, 75
9, 158668, Note_on_c, 7, 72, 0
9, 158669, Note_on_c, 7, 64, 0
9, 159477, Note_on_c, 7, 64, 75
9, 159539, Note_on_c, 7, 64, 0
9, 159597, Note_on_c, 7, 59, 75
9, 159658, Note_on_c, 7, 59, 0
9, 159721, Note_on_c, 7, 64, 75
9, 159785, Note_on_c, 7, 64, 0
9, 159838, Note_on_c, 7, 71, 75
9, 159901, Note_on_c, 7, 71, 0
9, 159959, Note_on_c, 7, 64, 75
9, 160018, Note_on_c, 7, 64, 0
9, 160081, Note_on_c, 7, 60, 75
9, 160140, Note_on_c, 7, 60, 0
9, 160199, Note_on_c, 7, 66, 75
9, 160259, Note_on_c, 7, 66, 0
9, 160320, Note_on_c, 7, 66, 75
9, 160592, Note_on_c, 7, 66, 0
9, 161397, Note_on_c, 7, 66, 75
9, 161460, Note_on_c, 7, 66, 0
9, 161523, Note_on_c, 7, 62, 75
9, 161585, Note_on_c, 7, 62, 0
9, 161642, Note_on_c, 7, 66, 75
9, 161701, Note_on_c, 7, 66, 0
9, 161760, Note_on_c, 7, 69, 75
9, 161820, Note_on_c, 7, 69, 0
9, 161880, Note_on_c, 7, 62, 75
9, 161941, Note_on_c, 7, 62, 0
9, 161998, Note_on_c, 7, 59, 75
9, 162060, Note_on_c, 7, 59, 0
9, 162119, Note_on_c, 7, 64, 75
9, 162184, Note_on_c, 7, 64, 0
9, 162241, Note_on_c, 7, 64, 75
9, 162512, Note_on_c, 7, 64, 0
9, 163320, Note_on_c, 7, 72, 75
9, 163384, Note_on_c, 7, 72, 0
9, 163437, Note_on_c, 7, 69, 75
9, 163502, Note_on_c, 7, 69, 0
9, 163562, Note_on_c, 7, 72, 75
9, 163622, Note_on_c, 7, 72, 0
9, 163680, Note_on_c, 7, 76, 75
9, 163744, Note_on_c, 7, 76, 0
9, 163800, Note_on_c, 7, 72, 75
9, 163863, Note_on_c, 7, 72, 0
9, 163920, Note_on_c, 7, 69, 75
9, 163980, Note_on_c, 7, 69, 0
9, 164039, Note_on_c, 7, 72, 75
9, 164104, Note_on_c, 7, 72, 0
9, 164161, Note_on_c, 7, 64, 75
9, 164433, Note_on_c, 7, 64, 0
9, 165240, Note_on_c, 7, 71, 75
9, 165302, Note_on_c, 7, 71, 0
9, 165357, Note_on_c, 7, 64, 75
9, 165421, Note_on_c, 7, 64, 0
9, 165478, Note_on_c, 7, 71, 75
9, 165538, Note_on_c, 7, 71, 0
9, 165598, Note_on_c, 7, 76, 75
9, 165658, Note_on_c, 7, 76, 0
9, 165721, Note_on_c, 7, 71, 75
9, 165782, Note_on_c, 7, 71, 0
9, 165842, Note_on_c, 7, 64, 75
9, 165904, Note_on_c, 7, 64, 0
9, 165961, Note_on_c, 7, 74, 75
9, 166023, Note_on_c, 7, 74, 0
9, 166077, Note_on_c, 7, 73, 75
9, 166080, Note_on_c, 7, 64, 75
9, 166349, Note_on_c, 7, 73, 0
9, 166352, Note_on_c, 7, 64, 0
9, 167159, Note_on_c, 7, 73, 75
9, 167224, Note_on_c, 7, 73, 0
9, 167276, Note_on_c, 7, 67, 75
9, 167343, Note_on_c, 7, 67, 0
9, 167397, Note_on_c, 7, 73, 75
9, 167456, Note_on_c, 7, 73, 0
9, 167522, Note_on_c, 7, 76, 75
9, 167584, Note_on_c, 7, 76, 0
9, 167639, Note_on_c, 7, 73, 75
9, 167705, Note_on_c, 7, 73, 0
9, 167758, Note_on_c, 7, 67, 75
9, 167820, Note_on_c, 7, 67, 0
9, 167883, Note_on_c, 7, 73, 75
9, 167948, Note_on_c, 7, 73, 0
9, 167999, Note_on_c, 7, 77, 75
9, 168237, Note_on_c, 7, 77, 0
9, 169077, Note_on_c, 7, 65, 75
9, 169139, Note_on_c, 7, 65, 0
9, 169200, Note_on_c, 7, 62, 75
9, 169265, Note_on_c, 7, 62, 0
9, 169320, Note_on_c, 7, 65, 75
9, 169380, Note_on_c, 7, 65, 0
9, 169440, Note_on_c, 7, 71, 75
9, 169502, Note_on_c, 7, 71, 0
9, 169561, Note_on_c, 7, 65, 75
9, 169626, Note_on_c, 7, 65, 0
9, 169678, Note_on_c, 7, 62, 75
9, 169739, Note_on_c, 7, 62, 0
9, 169803, Note_on_c, 7, 74, 75
9, 169870, Note_on_c, 7, 74, 0
9, 169918, Note_on_c, 7, 64, 75
9, 169918, Note_on_c, 7, 73, 75
9, 170161, Note_on_c, 7, 64, 0
9, 170161, Note_on_c, 7, 73, 0
9, 170998, Note_on_c, 7, 73, 75
9, 171059, Note_on_c, 7, 73, 0
9, 171117, Note_on_c, 7, 67, 75
9, 171182, Note_on_c, 7, 67, 0
9, 171237, Note_on_c, 7, 73, 75
9, 171297, Note_on_c, 7, 73, 0
9, 171362, Note_on_c, 7, 76, 75
9, 171425, Note_on_c, 7, 76, 0
9, 171483, Note_on_c, 7, 73, 75
9, 171549, Note_on_c, 7, 73, 0
9, 171602, Note_on_c, 7, 67, 75
9, 171662, Note_on_c, 7, 67, 0
9, 171721, Note_on_c, 7, 73, 75
9, 171785, Note_on_c, 7, 73, 0
9, 171840, Note_on_c, 7, 77, 75
9, 172083, Note_on_c, 7, 77, 0
9, 172918, Note_on_c, 7, 65, 75
9, 172980, Note_on_c, 7, 65, 0
9, 173041, Note_on_c, 7, 62, 75
9, 173105, Note_on_c, 7, 62, 0
9, 173159, Note_on_c, 7, 65, 75
9, 173217, Note_on_c, 7, 65, 0
9, 173282, Note_on_c, 7, 71, 75
9, 173345, Note_on_c, 7, 71, 0
9, 173400, Note_on_c, 7, 65, 75
9, 173464, Note_on_c, 7, 65, 0
9, 173521, Note_on_c, 7, 62, 75
9, 173582, Note_on_c, 7, 62, 0
9, 173638, Note_on_c, 7, 74, 75
9, 173706, Note_on_c, 7, 74, 0
9, 173760, Note_on_c, 7, 73, 75
9, 173997, Note_on_c, 7, 73, 0
9, 174840, Note_on_c, 7, 65, 60
9, 174901, Note_on_c, 7, 65, 0
9, 174956, Note_on_c, 7, 62, 59
9, 175021, Note_on_c, 7, 62, 0
9, 175080, Note_on_c, 7, 65, 58
9, 175140, Note_on_c, 7, 65, 0
9, 175198, Note_on_c, 7, 71, 62
9, 175265, Note_on_c, 7, 71, 0
9, 175321, Note_on_c, 7, 65, 58
9, 175383, Note_on_c, 7, 65, 0
9, 175443, Note_on_c, 7, 62, 50
9, 175503, Note_on_c, 7, 62, 0
9, 175559, Note_on_c, 7, 68, 52
9, 175625, Note_on_c, 7, 68, 0
9, 175679, Note_on_c, 7, 69, 51
9, 176130, Note_on_c, 7, 69, 0
9, 176156, Note_on_c, 7, 69, 50
9, 176248, Note_on_c, 7, 69, 0
9, 176397, Note_on_c, 7, 71, 50
9, 176489, Note_on_c, 7, 71, 0
9, 176641, Note_on_c, 7, 72, 46
9, 177057, Note_on_c, 7, 72, 0
9, 177120, Note_on_c, 7, 72, 51
9, 177532, Note_on_c, 7, 72, 0
9, 177601, Note_on_c, 7, 71, 51
9, 178008, Note_on_c, 7, 71, 0
9, 178079, Note_on_c, 7, 71, 46
9, 178184, Note_on_c, 7, 71, 0
9, 178320, Note_on_c, 7, 73, 50
9, 178406, Note_on_c, 7, 73, 0
9, 178562, Note_on_c, 7, 74, 54
9, 178645, Note_on_c, 7, 74, 0
9, 178797, Note_on_c, 7, 72, 47
9, 178874, Note_on_c, 7, 72, 0
9, 179043, Note_on_c, 7, 71, 45
9, 179124, Note_on_c, 7, 71, 0
9, 179283, Note_on_c, 7, 69, 49
9, 179359, Note_on_c, 7, 69, 0
9, 179521, Note_on_c, 7, 67, 46
9, 179583, Note_on_c, 7, 67, 0
9, 179642, Note_on_c, 7, 69, 47
9, 179706, Note_on_c, 7, 69, 0
9, 179758, Note_on_c, 7, 71, 46
9, 179825, Note_on_c, 7, 71, 0
9, 179877, Note_on_c, 7, 69, 45
9, 179935, Note_on_c, 7, 69, 0
9, 180002, Note_on_c, 7, 67, 54
9, 180071, Note_on_c, 7, 67, 0
9, 180119, Note_on_c, 7, 69, 49
9, 180180, Note_on_c, 7, 69, 0
9, 180240, Note_on_c, 7, 67, 48
9, 180302, Note_on_c, 7, 67, 0
9, 180360, Note_on_c, 7, 66, 53
9, 180428, Note_on_c, 7, 66, 0
9, 180483, Note_on_c, 7, 64, 50
9, 180544, Note_on_c, 7, 64, 0
9, 180597, Note_on_c, 7, 66, 55
9, 180659, Note_on_c, 7, 66, 0
9, 180717, Note_on_c, 7, 67, 47
9, 180784, Note_on_c, 7, 67, 0
9, 180840, Note_on_c, 7, 69, 55
9, 180899, Note_on_c, 7, 69, 0
9, 180962, Note_on_c, 7, 71, 54
9, 181032, Note_on_c, 7, 71, 0
9, 181082, Note_on_c, 7, 73, 48
9, 181142, Note_on_c, 7, 73, 0
9, 181199, Note_on_c, 7, 75, 45
9, 181258, Note_on_c, 7, 75, 0
9, 181318, Note_on_c, 7, 76, 46
9, 181384, Note_on_c, 7, 76, 0
9, 181438, Note_on_c, 7, 76, 51
9, 181499, Note_on_c, 7, 76, 0
9, 181559, Note_on_c, 7, 69, 55
9, 181618, Note_on_c, 7, 69, 0
9, 181680, Note_on_c, 7, 71, 45
9, 181744, Note_on_c, 7, 71, 0
9, 181800, Note_on_c, 7, 73, 48
9, 181861, Note_on_c, 7, 73, 0
9, 181919, Note_on_c, 7, 74, 52
9, 181982, Note_on_c, 7, 74, 0
9, 182037, Note_on_c, 7, 71, 49
9, 182098, Note_on_c, 7, 71, 0
9, 182160, Note_on_c, 7, 76, 55
9, 182218, Note_on_c, 7, 76, 0
9, 182282, Note_on_c, 7, 74, 50
9, 182346, Note_on_c, 7, 74, 0
9, 182397, Note_on_c, 7, 72, 50
9, 182462, Note_on_c, 7, 72, 0
9, 182517, Note_on_c, 7, 71, 50
9, 182575, Note_on_c, 7, 71, 0
9, 182637, Note_on_c, 7, 72, 45
9, 182702, Note_on_c, 7, 72, 0
9, 182760, Note_on_c, 7, 74, 50
9, 182822, Note_on_c, 7, 74, 0
9, 182883, Note_on_c, 7, 76, 49
9, 182947, Note_on_c, 7, 76, 0
9, 182998, Note_on_c, 7, 64, 46
9, 183061, Note_on_c, 7, 64, 0
9, 183119, Note_on_c, 7, 66, 54
9, 183175, Note_on_c, 7, 66, 0
9, 183237, Note_on_c, 7, 68, 51
9, 183304, Note_on_c, 7, 68, 0
9, 183359, Note_on_c, 7, 69, 46
9, 183811, Note_on_c, 7, 69, 0
9, 186961, Note_on_c, 7, 78, 45
9, 187411, Note_on_c, 7, 78, 0
9, 187438, Note_on_c, 7, 76, 47
9, 187888, Note_on_c, 7, 76, 0
9, 187917, Note_on_c, 7, 83, 47
9, 188369, Note_on_c, 7, 83, 0
9, 188398, Note_on_c, 7, 76, 54
9, 188852, Note_on_c, 7, 76, 0
9, 188879, Note_on_c, 7, 83, 51
9, 189329, Note_on_c, 7, 83, 0
9, 189358, Note_on_c, 7, 81, 55
9, 189810, Note_on_c, 7, 81, 0
9, 189840, Note_on_c, 7, 83, 52
9, 190054, Note_on_c, 7, 83, 0
9, 190082, Note_on_c, 7, 84, 50
9, 190292, Note_on_c, 7, 84, 0
9, 190321, Note_on_c, 7, 81, 51
9, 190531, Note_on_c, 7, 81, 0
9, 190559, Note_on_c, 7, 80, 51
9, 190623, Note_on_c, 7, 80, 0
9, 190679, Note_on_c, 7, 80, 52
9, 190742, Note_on_c, 7, 80, 0
9, 190799, Note_on_c, 7, 81, 45
9, 190867, Note_on_c, 7, 81, 0
9, 190917, Note_on_c, 7, 83, 54
9, 190981, Note_on_c, 7, 83, 0
9, 191038, Note_on_c, 7, 81, 50
9, 191486, Note_on_c, 7, 81, 0
9, 192597, Note_on_c, 7, 78, 50
9, 192660, Note_on_c, 7, 78, 0
9, 192719, Note_on_c, 7, 79, 51
9, 192784, Note_on_c, 7, 79, 0
9, 192839, Note_on_c, 7, 81, 54
9, 192900, Note_on_c, 7, 81, 0
9, 192961, Note_on_c, 7, 79, 51
9, 193175, Note_on_c, 7, 79, 0
9, 193202, Note_on_c, 7, 67, 54
9, 193412, Note_on_c, 7, 67, 0
9, 193438, Note_on_c, 7, 72, 50
9, 194369, Note_on_c, 7, 72, 0
9, 194401, Note_on_c, 7, 72, 50
9, 194505, Note_on_c, 7, 72, 0
9, 194639, Note_on_c, 7, 74, 53
9, 194725, Note_on_c, 7, 74, 0
9, 194879, Note_on_c, 7, 76, 53
9, 195287, Note_on_c, 7, 76, 0
9, 195360, Note_on_c, 7, 76, 51
9, 195768, Note_on_c, 7, 76, 0
9, 195843, Note_on_c, 7, 71, 55
9, 195906, Note_on_c, 7, 71, 0
9, 195962, Note_on_c, 7, 72, 51
9, 196022, Note_on_c, 7, 72, 0
9, 196080, Note_on_c, 7, 74, 53
9, 196142, Note_on_c, 7, 74, 0
9, 196200, Note_on_c, 7, 72, 53
9, 196263, Note_on_c, 7, 72, 0
9, 196323, Note_on_c, 7, 71, 51
9, 196387, Note_on_c, 7, 71, 0
9, 196443, Note_on_c, 7, 74, 55
9, 196506, Note_on_c, 7, 74, 0
9, 196557, Note_on_c, 7, 72, 45
9, 196620, Note_on_c, 7, 72, 0
9, 196682, Note_on_c, 7, 71, 46
9, 196743, Note_on_c, 7, 71, 0
9, 196802, Note_on_c, 7, 69, 50
9, 196863, Note_on_c, 7, 69, 0
9, 196920, Note_on_c, 7, 71, 47
9, 196984, Note_on_c, 7, 71, 0
9, 197040, Note_on_c, 7, 72, 54
9, 197102, Note_on_c, 7, 72, 0
9, 197160, Note_on_c, 7, 74, 51
9, 197222, Note_on_c, 7, 74, 0
9, 197278, Note_on_c, 7, 76, 46
9, 197338, Note_on_c, 7, 76, 0
9, 197397, Note_on_c, 7, 78, 46
9, 197460, Note_on_c, 7, 78, 0
9, 197520, Note_on_c, 7, 80, 46
9, 197585, Note_on_c, 7, 80, 0
9, 197642, Note_on_c, 7, 81, 52
9, 197706, Note_on_c, 7, 81, 0
9, 197762, Note_on_c, 7, 67, 50
9, 197823, Note_on_c, 7, 67, 0
9, 197878, Note_on_c, 7, 69, 54
9, 197937, Note_on_c, 7, 69, 0
9, 197997, Note_on_c, 7, 70, 49
9, 198061, Note_on_c, 7, 70, 0
9, 198119, Note_on_c, 7, 69, 51
9, 198181, Note_on_c, 7, 69, 0
9, 198242, Note_on_c, 7, 67, 45
9, 198303, Note_on_c, 7, 67, 0
9, 198361, Note_on_c, 7, 70, 46
9, 198424, Note_on_c, 7, 70, 0
9, 198477, Note_on_c, 7, 69, 50
9, 198543, Note_on_c, 7, 69, 0
9, 198599, Note_on_c, 7, 67, 55
9, 198660, Note_on_c, 7, 67, 0
9, 198718, Note_on_c, 7, 65, 53
9, 198780, Note_on_c, 7, 65, 0
9, 198839, Note_on_c, 7, 67, 45
9, 198897, Note_on_c, 7, 67, 0
9, 198962, Note_on_c, 7, 69, 47
9, 199027, Note_on_c, 7, 69, 0
9, 199081, Note_on_c, 7, 70, 47
9, 199139, Note_on_c, 7, 70, 0
9, 199200, Note_on_c, 7, 72, 54
9, 199411, Note_on_c, 7, 72, 0
9, 199442, Note_on_c, 7, 81, 49
9, 199892, Note_on_c, 7, 81, 0
9, 199921, Note_on_c, 7, 79, 45
9, 200373, Note_on_c, 7, 79, 0
9, 200399, Note_on_c, 7, 79, 55
9, 200852, Note_on_c, 7, 79, 0
9, 200877, Note_on_c, 7, 77, 50
9, 201327, Note_on_c, 7, 77, 0
9, 201357, Note_on_c, 7, 77, 46
9, 201568, Note_on_c, 7, 77, 0
9, 201597, Note_on_c, 7, 77, 50
9, 201600, Control_c, 7, 7, 100
9, 201660, Note_on_c, 7, 77, 0
9, 201717, Note_on_c, 7, 74, 50
9, 201776, Note_on_c, 7, 74, 0
9, 201837, Note_on_c, 7, 76, 50
9, 201840, Control_c, 7, 7, 101
9, 201903, Note_on_c, 7, 76, 0
9, 201957, Note_on_c, 7, 77, 54
9, 201960, Control_c, 7, 7, 102
9, 202020, Note_on_c, 7, 77, 0
9, 202077, Note_on_c, 7, 74, 56
9, 202080, Control_c, 7, 7, 103
9, 202138, Note_on_c, 7, 74, 0
9, 202197, Note_on_c, 7, 71, 65
9, 202200, Control_c, 7, 7, 104
9, 202260, Note_on_c, 7, 71, 0
9, 202317, Note_on_c, 7, 72, 64
9, 202320, Control_c, 7, 7, 105
9, 202383, Note_on_c, 7, 72, 0
9, 202437, Note_on_c, 7, 74, 62
9, 202440, Control_c, 7, 7, 106
9, 202501, Note_on_c, 7, 74, 0
9, 202557, Note_on_c, 7, 71, 68
9, 202619, Note_on_c, 7, 71, 0
9, 202677, Note_on_c, 7, 68, 76
9, 202680, Control_c, 7, 7, 107
9, 202740, Note_on_c, 7, 68, 0
9, 202797, Note_on_c, 7, 69, 74
9, 202800, Control_c, 7, 7, 108
9, 202865, Note_on_c, 7, 69, 0
9, 202917, Note_on_c, 7, 71, 81
9, 202920, Control_c, 7, 7, 109
9, 202978, Note_on_c, 7, 71, 0
9, 203037, Note_on_c, 7, 68, 78
9, 203040, Control_c, 7, 7, 110
9, 203098, Note_on_c, 7, 68, 0
9, 203157, Note_on_c, 7, 69, 79
9, 203160, Control_c, 7, 7, 111
9, 203215, Note_on_c, 7, 69, 0
9, 203277, Note_on_c, 7, 71, 87
9, 203280, Control_c, 7, 7, 112
9, 203345, Note_on_c, 7, 71, 0
9, 203397, Note_on_c, 7, 72, 81
9, 203400, Control_c, 7, 7, 113
9, 203459, Note_on_c, 7, 72, 0
9, 203517, Note_on_c, 7, 74, 86
9, 203578, Note_on_c, 7, 74, 0
9, 203637, Note_on_c, 7, 76, 88
9, 203640, Control_c, 7, 7, 114
9, 203698, Note_on_c, 7, 76, 0
9, 203757, Note_on_c, 7, 77, 99
9, 203760, Control_c, 7, 7, 115
9, 203822, Note_on_c, 7, 77, 0
9, 203877, Note_on_c, 7, 80, 97
9, 203880, Control_c, 7, 7, 116
9, 203936, Note_on_c, 7, 80, 0
9, 203997, Note_on_c, 7, 81, 99
9, 204000, Control_c, 7, 7, 117
9, 204058, Note_on_c, 7, 81, 0
9, 204117, Note_on_c, 7, 83, 101
9, 204120, Control_c, 7, 7, 118
9, 204180, Note_on_c, 7, 83, 0
9, 204237, Note_on_c, 7, 84, 104
9, 204240, Control_c, 7, 7, 119
9, 204305, Note_on_c, 7, 84, 0
9, 204357, Note_on_c, 7, 85, 103
9, 204360, Control_c, 7, 7, 120
9, 204417, Note_on_c, 7, 85, 0
9, 204477, Note_on_c, 7, 86, 103
9, 204538, Note_on_c, 7, 86, 0
9, 204597, Note_on_c, 7, 88, 114
9, 204600, Control_c, 7, 7, 121
9, 204660, Note_on_c, 7, 88, 0
9, 204717, Note_on_c, 7, 88, 110
9, 204720, Control_c, 7, 7, 122
9, 204786, Note_on_c, 7, 88, 0
9, 204837, Note_on_c, 7, 88, 119
9, 204840, Control_c, 7, 7, 123
9, 204896, Note_on_c, 7, 88, 0
9, 204957, Note_on_c, 7, 88, 118
9, 204960, Control_c, 7, 7, 124
9, 205015, Note_on_c, 7, 88, 0
9, 205077, Note_on_c, 7, 88, 114
9, 205080, Control_c, 7, 7, 125
9, 205138, Note_on_c, 7, 88, 0
9, 205197, Note_on_c, 7, 88, 116
9, 205200, Control_c, 7, 7, 126
9, 205260, Note_on_c, 7, 88, 0
9, 205317, Note_on_c, 7, 88, 115
9, 205376, Note_on_c, 7, 88, 0
9, 205437, Note_on_c, 7, 76, 106
9, 205437, Note_on_c, 7, 88, 110
9, 205885, Note_on_c, 7, 76, 0
9, 205888, Note_on_c, 7, 88, 0
9, 205917, Note_on_c, 7, 76, 110
9, 205917, Note_on_c, 7, 88, 113
9, 205999, Note_on_c, 7, 76, 0
9, 206017, Note_on_c, 7, 88, 0
9, 206157, Note_on_c, 7, 76, 112
9, 206157, Note_on_c, 7, 88, 111
9, 206249, Note_on_c, 7, 88, 0
9, 206285, Note_on_c, 7, 76, 0
9, 206397, Note_on_c, 7, 76, 110
9, 206402, Note_on_c, 7, 88, 106
9, 206791, Note_on_c, 7, 76, 0
9, 206798, Note_on_c, 7, 88, 0
9, 206877, Note_on_c, 7, 88, 112
9, 206880, Note_on_c, 7, 76, 113
9, 207262, Note_on_c, 7, 88, 0
9, 207269, Note_on_c, 7, 76, 0
9, 207358, Note_on_c, 7, 76, 110
9, 207362, Note_on_c, 7, 88, 106
9, 207786, Note_on_c, 7, 76, 0
9, 207787, Note_on_c, 7, 88, 0
9, 207840, Note_on_c, 7, 88, 112
9, 207842, Note_on_c, 7, 76, 108
9, 207924, Note_on_c, 7, 76, 0
9, 207935, Note_on_c, 7, 88, 0
9, 208080, Note_on_c, 7, 88, 109
9, 208082, Note_on_c, 7, 76, 110
9, 208163, Note_on_c, 7, 76, 0
9, 208190, Note_on_c, 7, 88, 0
9, 208318, Note_on_c, 7, 88, 110
9, 208320, Note_on_c, 7, 76, 111
9, 208724, Note_on_c, 7, 88, 0
9, 208731, Note_on_c, 7, 76, 0
9, 208798, Note_on_c, 7, 88, 109
9, 208802, Note_on_c, 7, 76, 111
9, 209222, Note_on_c, 7, 88, 0
9, 209225, Note_on_c, 7, 76, 0
9, 209281, Note_on_c, 7, 76, 113
9, 209281, Note_on_c, 7, 88, 113
9, 209689, Note_on_c, 7, 88, 0
9, 209694, Note_on_c, 7, 76, 0
9, 209760, Note_on_c, 7, 76, 111
9, 209760, Note_on_c, 7, 88, 107
9, 209865, Note_on_c, 7, 76, 0
9, 209876, Note_on_c, 7, 88, 0
9, 209997, Note_on_c, 7, 88, 111
9, 210002, Note_on_c, 7, 76, 110
9, 210109, Note_on_c, 7, 76, 0
9, 210118, Note_on_c, 7, 88, 0
9, 210241, Note_on_c, 7, 76, 112
9, 210241, Note_on_c, 7, 88, 112
9, 210653, Note_on_c, 7, 76, 0
9, 210654, Note_on_c, 7, 88, 0
9, 210717, Note_on_c, 7, 88, 112
9, 210720, Note_on_c, 7, 76, 114
9, 211122, Note_on_c, 7, 88, 0
9, 211126, Note_on_c, 7, 76, 0
9, 211200, Note_on_c, 7, 76, 110
9, 211200, Note_on_c, 7, 88, 107
9, 211602, Note_on_c, 7, 88, 0
9, 211629, Note_on_c, 7, 76, 0
9, 211679, Note_on_c, 7, 78, 108
9, 211768, Note_on_c, 7, 78, 0
9, 211921, Note_on_c, 7, 80, 113
9, 212027, Note_on_c, 7, 80, 0
9, 212160, Note_on_c, 7, 81, 107
9, 212610, Note_on_c, 7, 81, 0
9, 212640, Control_c, 7, 7, 100
9, 213121, Note_on_c, 7, 74, 71
9, 213184, Note_on_c, 7, 74, 0
9, 213239, Note_on_c, 7, 71, 70
9, 213299, Note_on_c, 7, 71, 0
9, 213363, Note_on_c, 7, 72, 67
9, 213429, Note_on_c, 7, 72, 0
9, 213480, Note_on_c, 7, 74, 69
9, 213542, Note_on_c, 7, 74, 0
9, 213597, Note_on_c, 7, 76, 69
9, 213658, Note_on_c, 7, 76, 0
9, 213723, Note_on_c, 7, 74, 70
9, 213786, Note_on_c, 7, 74, 0
9, 213842, Note_on_c, 7, 72, 70
9, 213907, Note_on_c, 7, 72, 0
9, 213959, Note_on_c, 7, 71, 69
9, 214024, Note_on_c, 7, 71, 0
9, 214081, Note_on_c, 7, 69, 69
9, 214534, Note_on_c, 7, 69, 0
9, 215517, Note_on_c, 7, 76, 68
9, 215681, Note_on_c, 7, 74, 70
9, 215693, Note_on_c, 7, 76, 0
9, 215841, Note_on_c, 7, 71, 69
9, 215863, Note_on_c, 7, 74, 0
9, 215991, Note_on_c, 7, 71, 0
9, 215998, Note_on_c, 7, 76, 55
9, 216162, Note_on_c, 7, 73, 55
9, 216203, Note_on_c, 7, 76, 0
9, 216320, Note_on_c, 7, 69, 62
9, 216378, Note_on_c, 7, 73, 0
9, 216478, Note_on_c, 7, 73, 55
9, 216519, Note_on_c, 7, 69, 0
9, 216638, Note_on_c, 7, 69, 60
9, 216684, Note_on_c, 7, 73, 0
9, 216799, Note_on_c, 7, 64, 63
9, 216853, Note_on_c, 7, 69, 0
9, 216940, Note_on_c, 7, 64, 0
9, 216961, Note_on_c, 7, 69, 62
9, 217118, Note_on_c, 7, 64, 64
9, 217168, Note_on_c, 7, 69, 0
9, 217278, Note_on_c, 7, 61, 58
9, 217336, Note_on_c, 7, 64, 0
9, 217442, Note_on_c, 7, 73, 63
9, 217480, Note_on_c, 7, 61, 0
9, 217600, Note_on_c, 7, 69, 62
9, 217642, Note_on_c, 7, 73, 0
9, 217761, Note_on_c, 7, 64, 57
9, 217814, Note_on_c, 7, 69, 0
9, 217908, Note_on_c, 7, 64, 0
9, 217921, Note_on_c, 7, 73, 59
9, 218081, Note_on_c, 7, 66, 62
9, 218122, Note_on_c, 7, 73, 0
9, 218241, Note_on_c, 7, 62, 58
9, 218295, Note_on_c, 7, 66, 0
9, 218400, Note_on_c, 7, 71, 56
9, 218445, Note_on_c, 7, 62, 0
9, 218562, Note_on_c, 7, 66, 61
9, 218607, Note_on_c, 7, 71, 0
9, 218722, Note_on_c, 7, 62, 61
9, 218782, Note_on_c, 7, 66, 0
9, 218867, Note_on_c, 7, 62, 0
9, 218879, Note_on_c, 7, 71, 59
9, 219038, Note_on_c, 7, 66, 57
9, 219085, Note_on_c, 7, 71, 0
9, 219202, Note_on_c, 7, 62, 59
9, 219259, Note_on_c, 7, 66, 0
9, 219361, Note_on_c, 7, 69, 56
9, 219400, Note_on_c, 7, 62, 0
9, 219520, Note_on_c, 7, 61, 64
9, 219565, Note_on_c, 7, 69, 0
9, 219679, Note_on_c, 7, 69, 59
9, 219733, Note_on_c, 7, 61, 0
9, 219824, Note_on_c, 7, 69, 0
9, 219839, Note_on_c, 7, 59, 63
9, 220001, Note_on_c, 7, 62, 62
9, 220047, Note_on_c, 7, 59, 0
9, 220160, Note_on_c, 7, 68, 60
9, 220214, Note_on_c, 7, 62, 0
9, 220320, Note_on_c, 7, 69, 58
9, 220361, Note_on_c, 7, 68, 0
9, 220480, Note_on_c, 7, 61, 59
9, 220521, Note_on_c, 7, 69, 0
9, 220640, Note_on_c, 7, 69, 63
9, 220697, Note_on_c, 7, 61, 0
9, 220798, Note_on_c, 7, 62, 57
9, 220840, Note_on_c, 7, 69, 0
9, 220960, Note_on_c, 7, 66, 60
9, 221002, Note_on_c, 7, 62, 0
9, 221119, Note_on_c, 7, 71, 58
9, 221176, Note_on_c, 7, 66, 0
9, 221282, Note_on_c, 7, 73, 61
9, 221318, Note_on_c, 7, 71, 0
9, 221440, Note_on_c, 7, 64, 64
9, 221490, Note_on_c, 7, 73, 0
9, 221601, Note_on_c, 7, 73, 59
9, 221657, Note_on_c, 7, 64, 0
9, 221761, Note_on_c, 7, 66, 63
9, 221830, Note_on_c, 7, 73, 0
9, 221918, Note_on_c, 7, 69, 61
9, 221966, Note_on_c, 7, 66, 0
9, 222078, Note_on_c, 7, 74, 59
9, 222134, Note_on_c, 7, 69, 0
9, 222242, Note_on_c, 7, 76, 59
9, 222279, Note_on_c, 7, 74, 0
9, 222398, Note_on_c, 7, 68, 59
9, 222450, Note_on_c, 7, 76, 0
9, 222560, Note_on_c, 7, 76, 59
9, 222618, Note_on_c, 7, 68, 0
9, 222704, Note_on_c, 7, 76, 0
9, 222720, Note_on_c, 7, 74, 64
9, 222880, Note_on_c, 7, 68, 60
9, 222928, Note_on_c, 7, 74, 0
9, 223041, Note_on_c, 7, 71, 60
9, 223098, Note_on_c, 7, 68, 0
9, 223199, Note_on_c, 7, 69, 62
9, 223244, Note_on_c, 7, 71, 0
9, 223360, Note_on_c, 7, 73, 59
9, 223402, Note_on_c, 7, 69, 0
9, 223518, Note_on_c, 7, 81, 59
9, 223580, Note_on_c, 7, 73, 0
9, 223656, Note_on_c, 7, 81, 0
9, 223680, Note_on_c, 7, 81, 62
9, 223841, Note_on_c, 7, 73, 58
9, 223881, Note_on_c, 7, 81, 0
9, 224001, Note_on_c, 7, 69, 56
9, 224062, Note_on_c, 7, 73, 0
9, 224160, Note_on_c, 7, 76, 54
9, 224202, Note_on_c, 7, 69, 0
9, 224322, Note_on_c, 7, 73, 59
9, 224364, Note_on_c, 7, 76, 0
9, 224479, Note_on_c, 7, 67, 59
9, 224539, Note_on_c, 7, 73, 0
9, 224638, Note_on_c, 7, 73, 59
9, 224709, Note_on_c, 7, 67, 0
9, 224800, Note_on_c, 7, 67, 59
9, 224841, Note_on_c, 7, 73, 0
9, 224959, Note_on_c, 7, 64, 59
9, 225016, Note_on_c, 7, 67, 0
9, 225119, Note_on_c, 7, 76, 60
9, 225159, Note_on_c, 7, 64, 0
9, 225279, Note_on_c, 7, 73, 56
9, 225326, Note_on_c, 7, 76, 0
9, 225438, Note_on_c, 7, 67, 59
9, 225491, Note_on_c, 7, 73, 0
9, 225581, Note_on_c, 7, 67, 0
9, 225600, Note_on_c, 7, 76, 54
9, 225762, Note_on_c, 7, 73, 59
9, 225800, Note_on_c, 7, 76, 0
9, 225920, Note_on_c, 7, 67, 59
9, 225976, Note_on_c, 7, 73, 0
9, 226079, Note_on_c, 7, 66, 61
9, 226125, Note_on_c, 7, 67, 0
9, 226240, Note_on_c, 7, 74, 60
9, 226290, Note_on_c, 7, 66, 0
9, 226400, Note_on_c, 7, 76, 63
9, 226457, Note_on_c, 7, 74, 0
9, 226544, Note_on_c, 7, 76, 0
9, 226558, Note_on_c, 7, 78, 54
9, 226720, Note_on_c, 7, 74, 55
9, 226761, Note_on_c, 7, 78, 0
9, 226881, Note_on_c, 7, 66, 58
9, 226937, Note_on_c, 7, 74, 0
9, 227039, Note_on_c, 7, 64, 61
9, 227086, Note_on_c, 7, 66, 0
9, 227198, Note_on_c, 7, 73, 60
9, 227244, Note_on_c, 7, 64, 0
9, 227359, Note_on_c, 7, 76, 61
9, 227414, Note_on_c, 7, 73, 0
9, 227520, Note_on_c, 7, 74, 61
9, 227593, Note_on_c, 7, 76, 0
9, 227681, Note_on_c, 7, 69, 62
9, 227726, Note_on_c, 7, 74, 0
9, 227841, Note_on_c, 7, 66, 55
9, 227892, Note_on_c, 7, 69, 0
9, 227981, Note_on_c, 7, 66, 0
9, 227998, Note_on_c, 7, 64, 57
9, 228160, Note_on_c, 7, 67, 61
9, 228200, Note_on_c, 7, 64, 0
9, 228320, Note_on_c, 7, 73, 54
9, 228378, Note_on_c, 7, 67, 0
9, 228464, Note_on_c, 7, 73, 0
9, 228479, Note_on_c, 7, 74, 61
9, 228641, Note_on_c, 7, 69, 59
9, 228682, Note_on_c, 7, 74, 0
9, 228798, Note_on_c, 7, 66, 55
9, 228858, Note_on_c, 7, 69, 0
9, 228960, Note_on_c, 7, 64, 61
9, 229032, Note_on_c, 7, 66, 0
9, 229120, Note_on_c, 7, 71, 54
9, 229163, Note_on_c, 7, 64, 0
9, 229280, Note_on_c, 7, 76, 62
9, 229334, Note_on_c, 7, 71, 0
9, 229424, Note_on_c, 7, 76, 0
9, 229442, Note_on_c, 7, 73, 63
9, 229601, Note_on_c, 7, 69, 63
9, 229647, Note_on_c, 7, 73, 0
9, 229760, Note_on_c, 7, 64, 62
9, 229820, Note_on_c, 7, 69, 0
9, 229918, Note_on_c, 7, 73, 61
9, 229993, Note_on_c, 7, 64, 0
9, 230078, Note_on_c, 7, 69, 60
9, 230124, Note_on_c, 7, 73, 0
9, 230241, Note_on_c, 7, 64, 59
9, 230296, Note_on_c, 7, 69, 0
9, 230400, Note_on_c, 7, 74, 60
9, 230444, Note_on_c, 7, 64, 0
9, 230561, Note_on_c, 7, 69, 64
9, 230603, Note_on_c, 7, 74, 0
9, 230720, Note_on_c, 7, 66, 61
9, 230782, Note_on_c, 7, 69, 0
9, 230879, Note_on_c, 7, 76, 60
9, 230952, Note_on_c, 7, 66, 0
9, 231042, Note_on_c, 7, 71, 59
9, 231084, Note_on_c, 7, 76, 0
9, 231198, Note_on_c, 7, 64, 56
9, 231259, Note_on_c, 7, 71, 0
9, 231360, Note_on_c, 7, 73, 55
9, 231403, Note_on_c, 7, 64, 0
9, 231518, Note_on_c, 7, 69, 54
9, 231564, Note_on_c, 7, 73, 0
9, 231679, Note_on_c, 7, 64, 60
9, 231736, Note_on_c, 7, 69, 0
9, 231840, Note_on_c, 7, 73, 54
9, 231911, Note_on_c, 7, 64, 0
9, 232001, Note_on_c, 7, 69, 50
9, 232047, Note_on_c, 7, 73, 0
9, 232160, Note_on_c, 7, 64, 55
9, 232219, Note_on_c, 7, 69, 0
9, 232318, Note_on_c, 7, 74, 49
9, 232335, Note_on_c, 7, 64, 0
9, 232479, Note_on_c, 7, 69, 50
9, 232524, Note_on_c, 7, 74, 0
9, 232640, Note_on_c, 7, 66, 51
9, 232696, Note_on_c, 7, 69, 0
9, 232800, Note_on_c, 7, 76, 51
9, 232877, Note_on_c, 7, 66, 0
9, 232959, Note_on_c, 7, 71, 48
9, 233003, Note_on_c, 7, 76, 0
9, 233118, Note_on_c, 7, 76, 47
9, 233176, Note_on_c, 7, 71, 0
9, 233279, Note_on_c, 7, 69, 49
9, 233291, Note_on_c, 7, 76, 0
9, 237086, Note_on_c, 7, 69, 0
9, 237118, Note_on_c, 7, 71, 101
9, 237119, Note_on_c, 7, 62, 98
9, 237323, Note_on_c, 7, 62, 0
9, 237325, Note_on_c, 7, 71, 0
9, 237598, Note_on_c, 7, 74, 98
9, 237599, Note_on_c, 7, 83, 103
9, 237803, Note_on_c, 7, 74, 0
9, 237806, Note_on_c, 7, 83, 0
9, 238078, Note_on_c, 7, 76, 103
9, 238080, Note_on_c, 7, 84, 102
9, 238583, Note_on_c, 7, 76, 0
9, 238588, Note_on_c, 7, 84, 0
9, 239043, Note_on_c, 7, 68, 56
9, 239514, Note_on_c, 7, 68, 0
9, 239522, Note_on_c, 7, 66, 57
9, 239628, Note_on_c, 7, 66, 0
9, 239762, Note_on_c, 7, 68, 60
9, 239872, Note_on_c, 7, 68, 0
9, 240000, Note_on_c, 7, 69, 61
9, 240408, Note_on_c, 7, 69, 0
9, 240957, Note_on_c, 7, 71, 96
9, 240961, Note_on_c, 7, 62, 94
9, 241247, Note_on_c, 7, 71, 0
9, 241248, Note_on_c, 7, 62, 0
9, 241438, Note_on_c, 7, 83, 94
9, 241441, Note_on_c, 7, 74, 100
9, 241726, Note_on_c, 7, 83, 0
9, 241731, Note_on_c, 7, 74, 0
9, 241918, Note_on_c, 7, 76, 93
9, 241923, Note_on_c, 7, 84, 98
9, 242417, Note_on_c, 7, 76, 0
9, 242420, Note_on_c, 7, 84, 0
9, 242880, Note_on_c, 7, 68, 59
9, 243348, Note_on_c, 7, 68, 0
9, 243357, Note_on_c, 7, 66, 59
9, 243466, Note_on_c, 7, 66, 0
9, 243601, Note_on_c, 7, 68, 63
9, 243707, Note_on_c, 7, 68, 0
9, 244320, Program_c, 7, 45
9, 245281, Note_on_c, 7, 69, 50
9, 245749, Note_on_c, 7, 69, 0
9, 246238, Note_on_c, 7, 64, 54
9, 246704, Note_on_c, 7, 64, 0
9, 247199, Note_on_c, 7, 64, 51
9, 247670, Note_on_c, 7, 64, 0
9, 248162, Note_on_c, 7, 69, 48
9, 248629, Note_on_c, 7, 69, 0
9, 249117, Note_on_c, 7, 64, 47
9, 249588, Note_on_c, 7, 64, 0
9, 250082, Note_on_c, 7, 64, 54
9, 250553, Note_on_c, 7, 64, 0
9, 250560, Note_on_c, 7, 62, 53
9, 251032, Note_on_c, 7, 62, 0
9, 251037, Note_on_c, 7, 60, 50
9, 251269, Note_on_c, 7, 60, 0
9, 251283, Note_on_c, 7, 62, 51
9, 251510, Note_on_c, 7, 62, 0
9, 251521, Note_on_c, 7, 64, 48
9, 251993, Note_on_c, 7, 64, 0
9, 252956, Note_on_c, 7, 60, 50
9, 253425, Note_on_c, 7, 60, 0
9, 253922, Note_on_c, 7, 71, 44
9, 254390, Note_on_c, 7, 71, 0
9, 254877, Note_on_c, 7, 64, 51
9, 255348, Note_on_c, 7, 64, 0
9, 255837, Note_on_c, 7, 69, 44
9, 256308, Note_on_c, 7, 69, 0
9, 256802, Note_on_c, 7, 60, 48
9, 257273, Note_on_c, 7, 60, 0
9, 257282, Note_on_c, 7, 62, 50
9, 257754, Note_on_c, 7, 62, 0
9, 257761, Note_on_c, 7, 60, 45
9, 258228, Note_on_c, 7, 60, 0
9, 258240, Note_on_c, 7, 62, 48
9, 258709, Note_on_c, 7, 62, 0
9, 258726, Note_on_c, 7, 62, 50
9, 258952, Note_on_c, 7, 62, 0
9, 258961, Note_on_c, 7, 62, 51
9, 259189, Note_on_c, 7, 62, 0
9, 259198, Note_on_c, 7, 60, 46
9, 259664, Note_on_c, 7, 60, 0
9, 262081, Note_on_c, 7, 62, 44
9, 262548, Note_on_c, 7, 62, 0
9, 262561, Note_on_c, 7, 62, 52
9, 262791, Note_on_c, 7, 62, 0
9, 262803, Note_on_c, 7, 62, 51
9, 263030, Note_on_c, 7, 62, 0
9, 263041, Note_on_c, 7, 60, 51
9, 263509, Note_on_c, 7, 60, 0
9, 264002, Note_on_c, 7, 60, 49
9, 264348, Program_c, 7, 48
9, 264472, Note_on_c, 7, 60, 0
9, 264480, Note_on_c, 7, 76, 48
9, 264946, Note_on_c, 7, 76, 0
9, 264950, Control_c, 7, 7, 100
9, 264959, Note_on_c, 7, 78, 72
9, 264970, Control_c, 7, 7, 100
9, 264990, Control_c, 7, 7, 99
9, 265010, Control_c, 7, 7, 99
9, 265030, Control_c, 7, 7, 98
9, 265050, Control_c, 7, 7, 98
9, 265070, Control_c, 7, 7, 97
9, 265090, Control_c, 7, 7, 97
9, 265110, Control_c, 7, 7, 96
9, 265130, Control_c, 7, 7, 96
9, 265150, Control_c, 7, 7, 95
9, 265170, Control_c, 7, 7, 95
9, 265187, Note_on_c, 7, 78, 0
9, 265190, Control_c, 7, 7, 94
9, 265198, Note_on_c, 7, 80, 62
9, 265210, Control_c, 7, 7, 94
9, 265230, Control_c, 7, 7, 93
9, 265250, Control_c, 7, 7, 93
9, 265270, Control_c, 7, 7, 92
9, 265290, Control_c, 7, 7, 92
9, 265310, Control_c, 7, 7, 91
9, 265330, Control_c, 7, 7, 91
9, 265350, Control_c, 7, 7, 90
9, 265370, Control_c, 7, 7, 90
9, 265390, Control_c, 7, 7, 89
9, 265410, Control_c, 7, 7, 89
9, 265428, Note_on_c, 7, 80, 0
9, 265430, Control_c, 7, 7, 88
9, 265437, Note_on_c, 7, 81, 55
9, 265450, Control_c, 7, 7, 88
9, 265470, Control_c, 7, 7, 87
9, 265490, Control_c, 7, 7, 87
9, 265510, Control_c, 7, 7, 86
9, 265530, Control_c, 7, 7, 86
9, 265550, Control_c, 7, 7, 85
9, 265570, Control_c, 7, 7, 85
9, 265590, Control_c, 7, 7, 84
9, 265610, Control_c, 7, 7, 84
9, 265630, Control_c, 7, 7, 83
9, 265650, Control_c, 7, 7, 83
9, 265670, Control_c, 7, 7, 82
9, 265690, Control_c, 7, 7, 82
9, 265710, Control_c, 7, 7, 81
9, 265730, Control_c, 7, 7, 81
9, 265750, Control_c, 7, 7, 80
9, 265770, Control_c, 7, 7, 80
9, 265790, Control_c, 7, 7, 79
9, 265810, Control_c, 7, 7, 79
9, 265830, Control_c, 7, 7, 78
9, 265850, Control_c, 7, 7, 78
9, 265870, Control_c, 7, 7, 77
9, 265890, Control_c, 7, 7, 77
9, 265910, Control_c, 7, 7, 76
9, 265930, Control_c, 7, 7, 76
9, 266203, Note_on_c, 7, 81, 0
9, 266203, End_track
10, 0, Start_track
10, 0, Channel_prefix, 8
10, 0, Title_t, "Violin II"
10, 0, Instrument_name_t, "Violino II"
10, 25920, Program_c, 8, 48
10, 25921, Note_on_c, 8, 64, 66
10, 26330, Note_on_c, 8, 64, 0
10, 26396, Note_on_c, 8, 64, 68
10, 26506, Note_on_c, 8, 64, 0
10, 26644, Note_on_c, 8, 64, 64
10, 26760, Note_on_c, 8, 64, 0
10, 26881, Note_on_c, 8, 64, 67
10, 27291, Note_on_c, 8, 64, 0
10, 27358, Note_on_c, 8, 64, 63
10, 27750, Note_on_c, 8, 64, 0
10, 27841, Note_on_c, 8, 64, 68
10, 28244, Note_on_c, 8, 64, 0
10, 28318, Note_on_c, 8, 64, 62
10, 28435, Note_on_c, 8, 64, 0
10, 28559, Note_on_c, 8, 64, 62
10, 28688, Note_on_c, 8, 64, 0
10, 28797, Note_on_c, 8, 64, 64
10, 29196, Note_on_c, 8, 64, 0
10, 29281, Note_on_c, 8, 64, 67
10, 29682, Note_on_c, 8, 64, 0
10, 29761, Note_on_c, 8, 64, 64
10, 30172, Note_on_c, 8, 64, 0
10, 30239, Note_on_c, 8, 64, 64
10, 30346, Note_on_c, 8, 64, 0
10, 30477, Note_on_c, 8, 66, 61
10, 30596, Note_on_c, 8, 66, 0
10, 30723, Note_on_c, 8, 67, 65
10, 31101, Note_on_c, 8, 67, 0
10, 31196, Note_on_c, 8, 67, 68
10, 31570, Note_on_c, 8, 67, 0
10, 31684, Note_on_c, 8, 67, 61
10, 32078, Note_on_c, 8, 67, 0
10, 32163, Note_on_c, 8, 67, 64
10, 32280, Note_on_c, 8, 67, 0
10, 32404, Note_on_c, 8, 67, 66
10, 32525, Note_on_c, 8, 67, 0
10, 32643, Note_on_c, 8, 67, 65
10, 33094, Note_on_c, 8, 67, 0
10, 33599, Note_on_c, 8, 67, 64
10, 33974, Note_on_c, 8, 67, 0
10, 34080, Note_on_c, 8, 67, 67
10, 34197, Note_on_c, 8, 67, 0
10, 34319, Note_on_c, 8, 69, 62
10, 34415, Note_on_c, 8, 69, 0
10, 34559, Note_on_c, 8, 71, 64
10, 34918, Note_on_c, 8, 71, 0
10, 35044, Note_on_c, 8, 71, 64
10, 35440, Note_on_c, 8, 71, 0
10, 35516, Note_on_c, 8, 66, 62
10, 35920, Note_on_c, 8, 66, 0
10, 36002, Note_on_c, 8, 66, 65
10, 36081, Note_on_c, 8, 66, 0
10, 36237, Note_on_c, 8, 68, 64
10, 36318, Note_on_c, 8, 68, 0
10, 36478, Note_on_c, 8, 69, 64
10, 36877, Note_on_c, 8, 69, 0
10, 36957, Note_on_c, 8, 69, 68
10, 37363, Note_on_c, 8, 69, 0
10, 37435, Note_on_c, 8, 64, 64
10, 37831, Note_on_c, 8, 64, 0
10, 37919, Note_on_c, 8, 64, 64
10, 38021, Note_on_c, 8, 64, 0
10, 38157, Note_on_c, 8, 64, 63
10, 38277, Note_on_c, 8, 64, 0
10, 38403, Note_on_c, 8, 64, 62
10, 38820, Note_on_c, 8, 64, 0
10, 38880, Note_on_c, 8, 64, 62
10, 39298, Note_on_c, 8, 64, 0
10, 39358, Note_on_c, 8, 64, 64
10, 39759, Note_on_c, 8, 64, 0
10, 39842, Note_on_c, 8, 66, 64
10, 39937, Note_on_c, 8, 66, 0
10, 40082, Note_on_c, 8, 68, 64
10, 40205, Note_on_c, 8, 68, 0
10, 40317, Note_on_c, 8, 69, 63
10, 40733, Note_on_c, 8, 69, 0
10, 41280, Note_on_c, 8, 67, 45
10, 41656, Note_on_c, 8, 67, 0
10, 41763, Note_on_c, 8, 67, 45
10, 41880, Note_on_c, 8, 67, 0
10, 41998, Note_on_c, 8, 69, 45
10, 42094, Note_on_c, 8, 69, 0
10, 42244, Note_on_c, 8, 71, 45
10, 42603, Note_on_c, 8, 71, 0
10, 42724, Note_on_c, 8, 71, 45
10, 43120, Note_on_c, 8, 71, 0
10, 43196, Note_on_c, 8, 66, 45
10, 43600, Note_on_c, 8, 66, 0
10, 43682, Note_on_c, 8, 66, 45
10, 43761, Note_on_c, 8, 66, 0
10, 43917, Note_on_c, 8, 68, 45
10, 43998, Note_on_c, 8, 68, 0
10, 44158, Note_on_c, 8, 69, 45
10, 44557, Note_on_c, 8, 69, 0
10, 44637, Note_on_c, 8, 69, 45
10, 45043, Note_on_c, 8, 69, 0
10, 45115, Note_on_c, 8, 64, 45
10, 45511, Note_on_c, 8, 64, 0
10, 45599, Note_on_c, 8, 64, 45
10, 45701, Note_on_c, 8, 64, 0
10, 45837, Note_on_c, 8, 64, 45
10, 45957, Note_on_c, 8, 64, 0
10, 46083, Note_on_c, 8, 64, 45
10, 46500, Note_on_c, 8, 64, 0
10, 46560, Note_on_c, 8, 64, 45
10, 46978, Note_on_c, 8, 64, 0
10, 47038, Note_on_c, 8, 64, 45
10, 47439, Note_on_c, 8, 64, 0
10, 47522, Note_on_c, 8, 66, 45
10, 47617, Note_on_c, 8, 66, 0
10, 47762, Note_on_c, 8, 68, 45
10, 47885, Note_on_c, 8, 68, 0
10, 47997, Note_on_c, 8, 69, 45
10, 48413, Note_on_c, 8, 69, 0
10, 48960, Note_on_c, 8, 72, 64
10, 48961, Control_c, 8, 7, 100
10, 49077, Control_c, 8, 7, 100
10, 49204, Control_c, 8, 7, 100
10, 49319, Control_c, 8, 7, 100
10, 49440, Control_c, 8, 7, 100
10, 49558, Control_c, 8, 7, 101
10, 49678, Control_c, 8, 7, 101
10, 49797, Control_c, 8, 7, 101
10, 49901, Note_on_c, 8, 71, 65
10, 49924, Control_c, 8, 7, 101
10, 49934, Note_on_c, 8, 72, 0
10, 50036, Control_c, 8, 7, 101
10, 50157, Control_c, 8, 7, 102
10, 50277, Control_c, 8, 7, 102
10, 50399, Control_c, 8, 7, 102
10, 50524, Control_c, 8, 7, 102
10, 50641, Control_c, 8, 7, 102
10, 50763, Control_c, 8, 7, 103
10, 50780, Note_on_c, 8, 71, 0
10, 50880, Control_c, 8, 7, 103
10, 50901, Note_on_c, 8, 71, 68
10, 50955, Note_on_c, 8, 72, 69
10, 50993, Note_on_c, 8, 71, 0
10, 51002, Control_c, 8, 7, 103
10, 51052, Note_on_c, 8, 74, 69
10, 51095, Note_on_c, 8, 72, 0
10, 51120, Control_c, 8, 7, 103
10, 51239, Control_c, 8, 7, 104
10, 51362, Control_c, 8, 7, 104
10, 51477, Control_c, 8, 7, 104
10, 51597, Note_on_c, 8, 72, 71
10, 51599, Control_c, 8, 7, 104
10, 51631, Note_on_c, 8, 74, 0
10, 51679, Note_on_c, 8, 71, 71
10, 51720, Control_c, 8, 7, 104
10, 51740, Note_on_c, 8, 72, 0
10, 51784, Note_on_c, 8, 71, 0
10, 51831, Note_on_c, 8, 71, 71
10, 51840, Control_c, 8, 7, 105
10, 51963, Control_c, 8, 7, 105
10, 52082, Control_c, 8, 7, 105
10, 52091, Note_on_c, 8, 72, 72
10, 52115, Note_on_c, 8, 71, 0
10, 52198, Control_c, 8, 7, 105
10, 52270, Note_on_c, 8, 72, 0
10, 52315, Note_on_c, 8, 72, 73
10, 52323, Control_c, 8, 7, 105
10, 52444, Control_c, 8, 7, 106
10, 52557, Control_c, 8, 7, 106
10, 52640, Note_on_c, 8, 72, 0
10, 52683, Control_c, 8, 7, 106
10, 52784, Note_on_c, 8, 72, 74
10, 52800, Control_c, 8, 7, 106
10, 52919, Control_c, 8, 7, 106
10, 53043, Control_c, 8, 7, 107
10, 53155, Control_c, 8, 7, 107
10, 53284, Control_c, 8, 7, 107
10, 53395, Control_c, 8, 7, 107
10, 53433, Note_on_c, 8, 72, 0
10, 53501, Note_on_c, 8, 72, 76
10, 53522, Control_c, 8, 7, 108
10, 53590, Note_on_c, 8, 74, 77
10, 53616, Note_on_c, 8, 72, 0
10, 53639, Control_c, 8, 7, 108
10, 53745, Note_on_c, 8, 75, 77
10, 53756, Control_c, 8, 7, 108
10, 53761, Note_on_c, 8, 74, 0
10, 53879, Control_c, 8, 7, 108
10, 53990, Note_on_c, 8, 76, 78
10, 54000, Control_c, 8, 7, 108
10, 54024, Note_on_c, 8, 75, 0
10, 54106, Note_on_c, 8, 76, 0
10, 54120, Control_c, 8, 7, 109
10, 54210, Note_on_c, 8, 76, 79
10, 54235, Control_c, 8, 7, 109
10, 54306, Note_on_c, 8, 76, 0
10, 54363, Control_c, 8, 7, 109
10, 54435, Note_on_c, 8, 76, 79
10, 54479, Control_c, 8, 7, 109
10, 54514, Note_on_c, 8, 76, 0
10, 54604, Control_c, 8, 7, 109
10, 54671, Note_on_c, 8, 74, 80
10, 54724, Control_c, 8, 7, 110
10, 54728, Note_on_c, 8, 76, 80
10, 54762, Note_on_c, 8, 74, 0
10, 54824, Note_on_c, 8, 77, 80
10, 54841, Control_c, 8, 7, 110
10, 54849, Note_on_c, 8, 76, 0
10, 54964, Control_c, 8, 7, 110
10, 55077, Control_c, 8, 7, 110
10, 55203, Control_c, 8, 7, 110
10, 55321, Control_c, 8, 7, 111
10, 55402, Note_on_c, 8, 76, 82
10, 55437, Control_c, 8, 7, 111
10, 55445, Note_on_c, 8, 77, 0
10, 55507, Note_on_c, 8, 74, 83
10, 55558, Control_c, 8, 7, 111
10, 55567, Note_on_c, 8, 76, 0
10, 55619, Note_on_c, 8, 74, 0
10, 55655, Note_on_c, 8, 74, 83
10, 55677, Control_c, 8, 7, 111
10, 55799, Control_c, 8, 7, 112
10, 55917, Control_c, 8, 7, 112
10, 55921, Note_on_c, 8, 76, 84
10, 55939, Note_on_c, 8, 74, 0
10, 56043, Control_c, 8, 7, 112
10, 56121, Note_on_c, 8, 76, 0
10, 56158, Control_c, 8, 7, 112
10, 56170, Note_on_c, 8, 76, 85
10, 56279, Control_c, 8, 7, 112
10, 56398, Control_c, 8, 7, 113
10, 56435, Note_on_c, 8, 76, 0
10, 56517, Control_c, 8, 7, 113
10, 56643, Note_on_c, 8, 76, 86
10, 56643, Control_c, 8, 7, 113
10, 56759, Control_c, 8, 7, 113
10, 56878, Control_c, 8, 7, 113
10, 57002, Control_c, 8, 7, 114
10, 57115, Control_c, 8, 7, 114
10, 57235, Control_c, 8, 7, 114
10, 57355, Control_c, 8, 7, 114
10, 57476, Control_c, 8, 7, 114
10, 57604, Control_c, 8, 7, 115
10, 57605, Note_on_c, 8, 75, 89
10, 57637, Note_on_c, 8, 76, 0
10, 57716, Control_c, 8, 7, 115
10, 57838, Control_c, 8, 7, 115
10, 57959, Control_c, 8, 7, 115
10, 58084, Control_c, 8, 7, 116
10, 58202, Control_c, 8, 7, 116
10, 58317, Control_c, 8, 7, 116
10, 58407, Note_on_c, 8, 75, 0
10, 58436, Control_c, 8, 7, 116
10, 58561, Control_c, 8, 7, 116
10, 58564, Note_on_c, 8, 74, 92
10, 58684, Control_c, 8, 7, 117
10, 58803, Control_c, 8, 7, 117
10, 58811, Note_on_c, 8, 71, 93
10, 58823, Note_on_c, 8, 74, 0
10, 58919, Note_on_c, 8, 73, 93
10, 58923, Control_c, 8, 7, 117
10, 58963, Note_on_c, 8, 71, 0
10, 59035, Note_on_c, 8, 74, 93
10, 59035, Control_c, 8, 7, 117
10, 59059, Note_on_c, 8, 73, 0
10, 59156, Control_c, 8, 7, 117
10, 59261, Note_on_c, 8, 76, 94
10, 59280, Control_c, 8, 7, 118
10, 59297, Note_on_c, 8, 74, 0
10, 59366, Note_on_c, 8, 74, 94
10, 59397, Control_c, 8, 7, 118
10, 59435, Note_on_c, 8, 76, 0
10, 59475, Note_on_c, 8, 74, 0
10, 59496, Note_on_c, 8, 74, 95
10, 59524, Control_c, 8, 7, 118
10, 59643, Control_c, 8, 7, 118
10, 59755, Control_c, 8, 7, 118
10, 59767, Note_on_c, 8, 73, 96
10, 59796, Note_on_c, 8, 74, 0
10, 59878, Control_c, 8, 7, 119
10, 59969, Note_on_c, 8, 73, 0
10, 59999, Note_on_c, 8, 72, 96
10, 59999, Control_c, 8, 7, 119
10, 60120, Control_c, 8, 7, 119
10, 60237, Control_c, 8, 7, 119
10, 60357, Control_c, 8, 7, 120
10, 60404, Note_on_c, 8, 72, 0
10, 60477, Control_c, 8, 7, 120
10, 60488, Note_on_c, 8, 72, 98
10, 60597, Control_c, 8, 7, 120
10, 60716, Control_c, 8, 7, 120
10, 60844, Control_c, 8, 7, 120
10, 60958, Control_c, 8, 7, 121
10, 61079, Control_c, 8, 7, 121
10, 61198, Control_c, 8, 7, 121
10, 61316, Control_c, 8, 7, 121
10, 61411, Note_on_c, 8, 71, 101
10, 61437, Note_on_c, 8, 72, 0
10, 61440, Control_c, 8, 7, 121
10, 61558, Control_c, 8, 7, 122
10, 61682, Control_c, 8, 7, 122
10, 61795, Control_c, 8, 7, 122
10, 61873, Note_on_c, 8, 72, 102
10, 61901, Note_on_c, 8, 71, 0
10, 61921, Control_c, 8, 7, 122
10, 62043, Control_c, 8, 7, 122
10, 62161, Control_c, 8, 7, 123
10, 62284, Control_c, 8, 7, 123
10, 62292, Note_on_c, 8, 72, 0
10, 62396, Control_c, 8, 7, 123
10, 62399, Note_on_c, 8, 71, 104
10, 62465, Note_on_c, 8, 72, 104
10, 62487, Note_on_c, 8, 71, 0
10, 62518, Control_c, 8, 7, 123
10, 62553, Note_on_c, 8, 74, 104
10, 62587, Note_on_c, 8, 72, 0
10, 62640, Control_c, 8, 7, 124
10, 62760, Control_c, 8, 7, 124
10, 62877, Control_c, 8, 7, 124
10, 62996, Control_c, 8, 7, 124
10, 63087, Note_on_c, 8, 72, 106
10, 63120, Control_c, 8, 7, 124
10, 63138, Note_on_c, 8, 74, 0
10, 63204, Note_on_c, 8, 71, 106
10, 63240, Control_c, 8, 7, 125
10, 63254, Note_on_c, 8, 72, 0
10, 63356, Control_c, 8, 7, 125
10, 63402, Note_on_c, 8, 69, 107
10, 63441, Note_on_c, 8, 71, 0
10, 63480, Control_c, 8, 7, 125
10, 63483, Note_on_c, 8, 69, 0
10, 63597, Control_c, 8, 7, 125
10, 63606, Note_on_c, 8, 69, 107
10, 63721, Control_c, 8, 7, 125
10, 63728, Note_on_c, 8, 71, 108
10, 63760, Note_on_c, 8, 69, 0
10, 63840, Control_c, 8, 7, 126
10, 63881, Note_on_c, 8, 72, 108
10, 63919, Note_on_c, 8, 71, 0
10, 63957, Control_c, 8, 7, 126
10, 63990, Note_on_c, 8, 72, 0
10, 64078, Note_on_c, 8, 72, 109
10, 64084, Control_c, 8, 7, 126
10, 64188, Note_on_c, 8, 74, 109
10, 64201, Control_c, 8, 7, 126
10, 64220, Note_on_c, 8, 72, 0
10, 64316, Control_c, 8, 7, 127
10, 64321, Note_on_c, 8, 76, 110
10, 64372, Note_on_c, 8, 74, 0
10, 65282, Note_on_c, 8, 75, 111
10, 65308, Note_on_c, 8, 76, 0
10, 66108, Note_on_c, 8, 75, 0
10, 66242, Note_on_c, 8, 74, 110
10, 66494, Note_on_c, 8, 71, 109
10, 66499, Note_on_c, 8, 74, 0
10, 66592, Note_on_c, 8, 73, 109
10, 66646, Note_on_c, 8, 71, 0
10, 66710, Note_on_c, 8, 74, 110
10, 66741, Note_on_c, 8, 73, 0
10, 66943, Note_on_c, 8, 76, 107
10, 66974, Note_on_c, 8, 74, 0
10, 67037, Note_on_c, 8, 74, 111
10, 67112, Note_on_c, 8, 76, 0
10, 67150, Note_on_c, 8, 74, 0
10, 67174, Note_on_c, 8, 74, 109
10, 67432, Note_on_c, 8, 73, 107
10, 67463, Note_on_c, 8, 74, 0
10, 67673, Note_on_c, 8, 72, 109
10, 67673, Note_on_c, 8, 73, 0
10, 68041, Note_on_c, 8, 72, 0
10, 68170, Note_on_c, 8, 72, 112
10, 69100, Note_on_c, 8, 71, 110
10, 69132, Note_on_c, 8, 72, 0
10, 69570, Note_on_c, 8, 72, 111
10, 69600, Note_on_c, 8, 71, 0
10, 69968, Note_on_c, 8, 72, 0
10, 70081, Note_on_c, 8, 71, 111
10, 70149, Note_on_c, 8, 72, 113
10, 70174, Note_on_c, 8, 71, 0
10, 70234, Note_on_c, 8, 74, 109
10, 70265, Note_on_c, 8, 72, 0
10, 70779, Note_on_c, 8, 72, 107
10, 70831, Note_on_c, 8, 74, 0
10, 70878, Note_on_c, 8, 71, 109
10, 70927, Note_on_c, 8, 72, 0
10, 71041, Note_on_c, 8, 69, 111
10, 71105, Note_on_c, 8, 71, 0
10, 71411, Note_on_c, 8, 69, 0
10, 72239, Note_on_c, 8, 69, 127
10, 72480, Note_on_c, 8, 72, 127
10, 72493, Note_on_c, 8, 69, 0
10, 72723, Note_on_c, 8, 64, 127
10, 72740, Note_on_c, 8, 72, 0
10, 72980, Note_on_c, 8, 64, 0
10, 73200, Note_on_c, 8, 71, 127
10, 73435, Note_on_c, 8, 74, 127
10, 73476, Note_on_c, 8, 71, 0
10, 73682, Note_on_c, 8, 64, 127
10, 73722, Note_on_c, 8, 74, 0
10, 73978, Note_on_c, 8, 64, 0
10, 74157, Note_on_c, 8, 71, 127
10, 74395, Note_on_c, 8, 74, 127
10, 74411, Note_on_c, 8, 71, 0
10, 74637, Note_on_c, 8, 68, 127
10, 74712, Note_on_c, 8, 74, 0
10, 74901, Note_on_c, 8, 68, 0
10, 75116, Note_on_c, 8, 72, 127
10, 75353, Note_on_c, 8, 72, 0
10, 75364, Note_on_c, 8, 76, 127
10, 75596, Note_on_c, 8, 69, 127
10, 75631, Note_on_c, 8, 76, 0
10, 75879, Note_on_c, 8, 69, 0
10, 76084, Note_on_c, 8, 69, 127
10, 76324, Note_on_c, 8, 72, 127
10, 76333, Note_on_c, 8, 69, 0
10, 76560, Note_on_c, 8, 60, 127
10, 76604, Note_on_c, 8, 72, 0
10, 76841, Note_on_c, 8, 60, 0
10, 77035, Note_on_c, 8, 72, 127
10, 77278, Note_on_c, 8, 76, 127
10, 77314, Note_on_c, 8, 72, 0
10, 77524, Note_on_c, 8, 64, 127
10, 77549, Note_on_c, 8, 76, 0
10, 77843, Note_on_c, 8, 64, 0
10, 77996, Note_on_c, 8, 71, 127
10, 78241, Note_on_c, 8, 74, 127
10, 78270, Note_on_c, 8, 71, 0
10, 78476, Note_on_c, 8, 67, 127
10, 78518, Note_on_c, 8, 74, 0
10, 78778, Note_on_c, 8, 67, 0
10, 78958, Note_on_c, 8, 72, 127
10, 79200, Note_on_c, 8, 76, 127
10, 79220, Note_on_c, 8, 72, 0
10, 79436, Note_on_c, 8, 67, 127
10, 79459, Note_on_c, 8, 76, 0
10, 79662, Note_on_c, 8, 67, 0
10, 79917, Note_on_c, 8, 72, 127
10, 80159, Note_on_c, 8, 76, 127
10, 80169, Note_on_c, 8, 72, 0
10, 80396, Note_on_c, 8, 64, 127
10, 80408, Note_on_c, 8, 76, 0
10, 80649, Note_on_c, 8, 64, 0
10, 80880, Note_on_c, 8, 75, 127
10, 81119, Note_on_c, 8, 83, 127
10, 81132, Note_on_c, 8, 75, 0
10, 81358, Note_on_c, 8, 71, 127
10, 81366, Note_on_c, 8, 83, 0
10, 81606, Note_on_c, 8, 71, 0
10, 81840, Note_on_c, 8, 71, 127
10, 82079, Note_on_c, 8, 74, 127
10, 82092, Note_on_c, 8, 71, 0
10, 82323, Note_on_c, 8, 62, 127
10, 82327, Note_on_c, 8, 74, 0
10, 82572, Note_on_c, 8, 62, 0
10, 82802, Note_on_c, 8, 73, 127
10, 83038, Note_on_c, 8, 81, 127
10, 83052, Note_on_c, 8, 73, 0
10, 83279, Note_on_c, 8, 69, 127
10, 83292, Note_on_c, 8, 81, 0
10, 83532, Note_on_c, 8, 69, 0
10, 83761, Note_on_c, 8, 72, 127
10, 84000, Note_on_c, 8, 76, 127
10, 84012, Note_on_c, 8, 72, 0
10, 84238, Note_on_c, 8, 64, 127
10, 84249, Note_on_c, 8, 76, 0
10, 84491, Note_on_c, 8, 64, 0
10, 84716, Note_on_c, 8, 71, 127
10, 84958, Note_on_c, 8, 76, 127
10, 84968, Note_on_c, 8, 71, 0
10, 85202, Note_on_c, 8, 64, 127
10, 85204, Note_on_c, 8, 76, 0
10, 85455, Note_on_c, 8, 64, 0
10, 85678, Note_on_c, 8, 71, 127
10, 85918, Note_on_c, 8, 76, 127
10, 85931, Note_on_c, 8, 71, 0
10, 86158, Note_on_c, 8, 64, 127
10, 86169, Note_on_c, 8, 76, 0
10, 86412, Note_on_c, 8, 64, 0
10, 86637, Note_on_c, 8, 72, 127
10, 86880, Note_on_c, 8, 76, 127
10, 86887, Note_on_c, 8, 72, 0
10, 87121, Note_on_c, 8, 64, 127
10, 87126, Note_on_c, 8, 76, 0
10, 87359, Control_c, 8, 7, 127
10, 87376, Note_on_c, 8, 64, 0
10, 87476, Control_c, 8, 7, 127
10, 87595, Control_c, 8, 7, 127
10, 87603, Note_on_c, 8, 72, 125
10, 87719, Control_c, 8, 7, 126
10, 87841, Note_on_c, 8, 76, 123
10, 87842, Note_on_c, 8, 72, 0
10, 87842, Control_c, 8, 7, 126
10, 87962, Control_c, 8, 7, 125
10, 88073, Note_on_c, 8, 76, 0
10, 88080, Control_c, 8, 7, 125
10, 88082, Note_on_c, 8, 64, 121
10, 88202, Control_c, 8, 7, 124
10, 88320, Note_on_c, 8, 64, 0
10, 88320, Control_c, 8, 7, 124
10, 88441, Control_c, 8, 7, 123
10, 88557, Control_c, 8, 7, 123
10, 88560, Note_on_c, 8, 75, 117
10, 88681, Control_c, 8, 7, 122
10, 88795, Note_on_c, 8, 75, 0
10, 88801, Control_c, 8, 7, 122
10, 88803, Note_on_c, 8, 83, 114
10, 88917, Control_c, 8, 7, 121
10, 89036, Note_on_c, 8, 83, 0
10, 89040, Note_on_c, 8, 71, 112
10, 89040, Control_c, 8, 7, 121
10, 89157, Control_c, 8, 7, 120
10, 89272, Note_on_c, 8, 71, 0
10, 89282, Control_c, 8, 7, 120
10, 89400, Control_c, 8, 7, 119
10, 89516, Note_on_c, 8, 71, 108
10, 89522, Control_c, 8, 7, 119
10, 89640, Control_c, 8, 7, 118
10, 89751, Note_on_c, 8, 71, 0
10, 89762, Control_c, 8, 7, 118
10, 89763, Note_on_c, 8, 74, 106
10, 89877, Control_c, 8, 7, 117
10, 89999, Note_on_c, 8, 62, 104
10, 90000, Control_c, 8, 7, 117
10, 90003, Note_on_c, 8, 74, 0
10, 90120, Control_c, 8, 7, 116
10, 90240, Note_on_c, 8, 62, 0
10, 90244, Control_c, 8, 7, 116
10, 90359, Control_c, 8, 7, 115
10, 90476, Control_c, 8, 7, 115
10, 90483, Note_on_c, 8, 73, 99
10, 90596, Control_c, 8, 7, 114
10, 90717, Note_on_c, 8, 81, 97
10, 90718, Note_on_c, 8, 73, 0
10, 90722, Control_c, 8, 7, 114
10, 90838, Control_c, 8, 7, 114
10, 90953, Note_on_c, 8, 81, 0
10, 90957, Control_c, 8, 7, 113
10, 90959, Note_on_c, 8, 69, 95
10, 91079, Control_c, 8, 7, 113
10, 91195, Note_on_c, 8, 69, 0
10, 91195, Control_c, 8, 7, 112
10, 91320, Control_c, 8, 7, 112
10, 91443, Note_on_c, 8, 72, 90
10, 91444, Control_c, 8, 7, 111
10, 91555, Control_c, 8, 7, 111
10, 91675, Note_on_c, 8, 72, 0
10, 91676, Control_c, 8, 7, 110
10, 91677, Note_on_c, 8, 76, 88
10, 91798, Control_c, 8, 7, 110
10, 91910, Note_on_c, 8, 76, 0
10, 91916, Note_on_c, 8, 64, 86
10, 91924, Control_c, 8, 7, 109
10, 92044, Control_c, 8, 7, 109
10, 92153, Note_on_c, 8, 64, 0
10, 92164, Control_c, 8, 7, 108
10, 92278, Control_c, 8, 7, 108
10, 92396, Control_c, 8, 7, 107
10, 92397, Note_on_c, 8, 71, 82
10, 92520, Control_c, 8, 7, 107
10, 92635, Note_on_c, 8, 71, 0
10, 92639, Control_c, 8, 7, 106
10, 92643, Note_on_c, 8, 76, 80
10, 92760, Control_c, 8, 7, 106
10, 92875, Note_on_c, 8, 76, 0
10, 92882, Control_c, 8, 7, 105
10, 92883, Note_on_c, 8, 64, 77
10, 93002, Control_c, 8, 7, 105
10, 93121, Control_c, 8, 7, 104
10, 93122, Note_on_c, 8, 64, 0
10, 93238, Control_c, 8, 7, 104
10, 93362, Control_c, 8, 7, 103
10, 93364, Note_on_c, 8, 71, 73
10, 93476, Control_c, 8, 7, 103
10, 93598, Note_on_c, 8, 76, 71
10, 93600, Note_on_c, 8, 71, 0
10, 93604, Control_c, 8, 7, 102
10, 93717, Control_c, 8, 7, 102
10, 93831, Note_on_c, 8, 76, 0
10, 93836, Note_on_c, 8, 74, 69
10, 93843, Control_c, 8, 7, 101
10, 93844, Note_on_c, 8, 64, 69
10, 93963, Control_c, 8, 7, 101
10, 94045, Note_on_c, 8, 74, 0
10, 94051, Note_on_c, 8, 64, 0
10, 94080, Note_on_c, 8, 64, 66
10, 94080, Control_c, 8, 7, 100
10, 94084, Note_on_c, 8, 72, 66
10, 94559, Note_on_c, 8, 64, 0
10, 94562, Note_on_c, 8, 72, 0
10, 96963, Note_on_c, 8, 59, 55
10, 96999, Note_on_c, 8, 60, 54
10, 97036, Note_on_c, 8, 59, 0
10, 97087, Note_on_c, 8, 62, 57
10, 97138, Note_on_c, 8, 60, 0
10, 97659, Note_on_c, 8, 60, 57
10, 97699, Note_on_c, 8, 62, 0
10, 97746, Note_on_c, 8, 59, 54
10, 97790, Note_on_c, 8, 60, 0
10, 97916, Note_on_c, 8, 57, 54
10, 97947, Note_on_c, 8, 59, 0
10, 99830, Note_on_c, 8, 57, 0
10, 99835, Note_on_c, 8, 59, 56
10, 101282, Note_on_c, 8, 57, 54
10, 101364, Note_on_c, 8, 59, 0
10, 101759, Note_on_c, 8, 56, 57
10, 101821, Note_on_c, 8, 57, 0
10, 102244, Note_on_c, 8, 57, 58
10, 102296, Note_on_c, 8, 56, 0
10, 102692, Note_on_c, 8, 57, 0
10, 102717, Note_on_c, 8, 57, 54
10, 103199, Note_on_c, 8, 55, 55
10, 103248, Note_on_c, 8, 57, 0
10, 103678, Note_on_c, 8, 57, 55
10, 103734, Note_on_c, 8, 55, 0
10, 104157, Note_on_c, 8, 59, 52
10, 104212, Note_on_c, 8, 57, 0
10, 104600, Note_on_c, 8, 59, 0
10, 104634, Note_on_c, 8, 59, 59
10, 105080, Note_on_c, 8, 59, 0
10, 105120, Note_on_c, 8, 57, 58
10, 105355, Note_on_c, 8, 55, 55
10, 105362, Note_on_c, 8, 67, 57
10, 105411, Note_on_c, 8, 57, 0
10, 105578, Note_on_c, 8, 55, 0
10, 105586, Note_on_c, 8, 67, 0
10, 105602, Note_on_c, 8, 55, 56
10, 105602, Note_on_c, 8, 67, 55
10, 106036, Note_on_c, 8, 55, 0
10, 106036, Note_on_c, 8, 67, 0
10, 106080, Note_on_c, 8, 55, 57
10, 106082, Note_on_c, 8, 67, 54
10, 107711, Note_on_c, 8, 55, 0
10, 107718, Note_on_c, 8, 67, 0
10, 107760, Note_on_c, 8, 57, 57
10, 107760, Note_on_c, 8, 67, 59
10, 107982, Note_on_c, 8, 57, 0
10, 107988, Note_on_c, 8, 67, 0
10, 107997, Note_on_c, 8, 57, 56
10, 108000, Note_on_c, 8, 66, 53
10, 108944, Note_on_c, 8, 57, 0
10, 108948, Note_on_c, 8, 66, 0
10, 108960, Note_on_c, 8, 57, 54
10, 109404, Note_on_c, 8, 57, 0
10, 109445, Note_on_c, 8, 57, 53
10, 109685, Note_on_c, 8, 59, 55
10, 109731, Note_on_c, 8, 57, 0
10, 109920, Note_on_c, 8, 61, 56
10, 109968, Note_on_c, 8, 59, 0
10, 110143, Note_on_c, 8, 61, 0
10, 110161, Note_on_c, 8, 61, 57
10, 110392, Note_on_c, 8, 61, 0
10, 110402, Note_on_c, 8, 56, 55
10, 110644, Note_on_c, 8, 59, 54
10, 110683, Note_on_c, 8, 56, 0
10, 110874, Note_on_c, 8, 59, 0
10, 110881, Note_on_c, 8, 59, 58
10, 111117, Note_on_c, 8, 57, 54
10, 111170, Note_on_c, 8, 59, 0
10, 111345, Note_on_c, 8, 57, 0
10, 111363, Note_on_c, 8, 56, 53
10, 111839, Note_on_c, 8, 68, 55
10, 111841, Note_on_c, 8, 59, 55
10, 111924, Note_on_c, 8, 56, 0
10, 112319, Note_on_c, 8, 69, 57
10, 112399, Note_on_c, 8, 68, 0
10, 113242, Note_on_c, 8, 69, 0
10, 113251, Note_on_c, 8, 59, 0
10, 113275, Note_on_c, 8, 68, 57
10, 113282, Note_on_c, 8, 59, 56
10, 114240, Note_on_c, 8, 69, 55
10, 114291, Note_on_c, 8, 68, 0
10, 115166, Note_on_c, 8, 59, 0
10, 115166, Note_on_c, 8, 69, 0
10, 115196, Note_on_c, 8, 59, 57
10, 115203, Note_on_c, 8, 68, 54
10, 116162, Note_on_c, 8, 69, 56
10, 116215, Note_on_c, 8, 68, 0
10, 117080, Note_on_c, 8, 59, 0
10, 117087, Note_on_c, 8, 69, 0
10, 117117, Note_on_c, 8, 68, 57
10, 117121, Note_on_c, 8, 59, 54
10, 117602, Note_on_c, 8, 56, 57
10, 117654, Note_on_c, 8, 68, 0
10, 117658, Note_on_c, 8, 59, 0
10, 118043, Note_on_c, 8, 56, 0
10, 118084, Note_on_c, 8, 55, 57
10, 119039, Note_on_c, 8, 56, 53
10, 119127, Note_on_c, 8, 55, 0
10, 119965, Note_on_c, 8, 56, 0
10, 120004, Note_on_c, 8, 55, 58
10, 120958, Note_on_c, 8, 56, 56
10, 121047, Note_on_c, 8, 55, 0
10, 121876, Note_on_c, 8, 56, 0
10, 121919, Note_on_c, 8, 55, 54
10, 122400, Note_on_c, 8, 67, 57
10, 122486, Note_on_c, 8, 55, 0
10, 122884, Note_on_c, 8, 66, 57
10, 122963, Note_on_c, 8, 67, 0
10, 123085, Note_on_c, 8, 66, 0
10, 123115, Note_on_c, 8, 66, 58
10, 123360, Note_on_c, 8, 62, 56
10, 123410, Note_on_c, 8, 66, 0
10, 123600, Note_on_c, 8, 66, 58
10, 123653, Note_on_c, 8, 62, 0
10, 123802, Note_on_c, 8, 66, 0
10, 123843, Note_on_c, 8, 61, 56
10, 124079, Note_on_c, 8, 64, 57
10, 124137, Note_on_c, 8, 61, 0
10, 124284, Note_on_c, 8, 64, 0
10, 124319, Note_on_c, 8, 64, 55
10, 124557, Note_on_c, 8, 62, 56
10, 124616, Note_on_c, 8, 64, 0
10, 124799, Note_on_c, 8, 61, 54
10, 124884, Note_on_c, 8, 62, 0
10, 125004, Note_on_c, 8, 61, 0
10, 125041, Note_on_c, 8, 61, 56
10, 125275, Note_on_c, 8, 62, 55
10, 125337, Note_on_c, 8, 61, 0
10, 125439, Note_on_c, 8, 63, 57
10, 125481, Note_on_c, 8, 62, 0
10, 125603, Note_on_c, 8, 64, 56
10, 125654, Note_on_c, 8, 63, 0
10, 125741, Note_on_c, 8, 64, 0
10, 125760, Note_on_c, 8, 55, 54
10, 126723, Note_on_c, 8, 56, 56
10, 126772, Note_on_c, 8, 55, 0
10, 127646, Note_on_c, 8, 56, 0
10, 127682, Note_on_c, 8, 55, 56
10, 128642, Note_on_c, 8, 56, 58
10, 128697, Note_on_c, 8, 55, 0
10, 129566, Note_on_c, 8, 56, 0
10, 129606, Note_on_c, 8, 55, 57
10, 130085, Note_on_c, 8, 67, 56
10, 130141, Note_on_c, 8, 55, 0
10, 130557, Note_on_c, 8, 69, 56
10, 130621, Note_on_c, 8, 67, 0
10, 130792, Note_on_c, 8, 69, 0
10, 130797, Note_on_c, 8, 57, 56
10, 131040, Note_on_c, 8, 65, 55
10, 131124, Note_on_c, 8, 57, 0
10, 131277, Note_on_c, 8, 69, 56
10, 131364, Note_on_c, 8, 65, 0
10, 131482, Note_on_c, 8, 69, 0
10, 131515, Note_on_c, 8, 64, 56
10, 131756, Note_on_c, 8, 67, 53
10, 131838, Note_on_c, 8, 64, 0
10, 131964, Note_on_c, 8, 67, 0
10, 132003, Note_on_c, 8, 67, 55
10, 132238, Note_on_c, 8, 59, 58
10, 132329, Note_on_c, 8, 67, 0
10, 132442, Note_on_c, 8, 59, 0
10, 132483, Note_on_c, 8, 60, 57
10, 132929, Note_on_c, 8, 60, 0
10, 132959, Note_on_c, 8, 55, 57
10, 132964, Note_on_c, 8, 64, 54
10, 133437, Note_on_c, 8, 65, 66
10, 133470, Note_on_c, 8, 64, 0
10, 134400, Note_on_c, 8, 64, 68
10, 134455, Note_on_c, 8, 65, 0
10, 135321, Note_on_c, 8, 55, 0
10, 135329, Note_on_c, 8, 64, 0
10, 135357, Note_on_c, 8, 55, 68
10, 135358, Note_on_c, 8, 65, 59
10, 136316, Note_on_c, 8, 64, 61
10, 136375, Note_on_c, 8, 65, 0
10, 137280, Control_c, 8, 7, 100
10, 137281, Note_on_c, 8, 65, 64
10, 137367, Note_on_c, 8, 64, 0
10, 137400, Control_c, 8, 7, 103
10, 137520, Control_c, 8, 7, 106
10, 137640, Control_c, 8, 7, 110
10, 137760, Control_c, 8, 7, 113
10, 137880, Control_c, 8, 7, 116
10, 138000, Control_c, 8, 7, 120
10, 138120, Control_c, 8, 7, 123
10, 138205, Note_on_c, 8, 55, 0
10, 138213, Note_on_c, 8, 65, 0
10, 139039, Note_on_c, 8, 69, 75
10, 139127, Note_on_c, 8, 69, 0
10, 139198, Note_on_c, 8, 67, 82
10, 139291, Note_on_c, 8, 67, 0
10, 139360, Note_on_c, 8, 65, 81
10, 139452, Note_on_c, 8, 65, 0
10, 139516, Note_on_c, 8, 64, 75
10, 139611, Note_on_c, 8, 64, 0
10, 139678, Note_on_c, 8, 62, 76
10, 139771, Note_on_c, 8, 62, 0
10, 139838, Note_on_c, 8, 60, 77
10, 139929, Note_on_c, 8, 60, 0
10, 140001, Note_on_c, 8, 59, 82
10, 140095, Note_on_c, 8, 59, 0
10, 140157, Note_on_c, 8, 57, 82
10, 140245, Note_on_c, 8, 57, 0
10, 142563, Note_on_c, 8, 59, 99
10, 142658, Note_on_c, 8, 59, 0
10, 142801, Note_on_c, 8, 59, 104
10, 142900, Note_on_c, 8, 59, 0
10, 144000, Program_c, 8, 45
10, 144000, Note_on_c, 8, 57, 66
10, 144000, Control_c, 8, 7, 100
10, 144389, Note_on_c, 8, 57, 0
10, 144477, Note_on_c, 8, 57, 64
10, 144690, Note_on_c, 8, 57, 0
10, 144721, Note_on_c, 8, 57, 64
10, 144932, Note_on_c, 8, 57, 0
10, 144957, Note_on_c, 8, 56, 60
10, 145347, Note_on_c, 8, 56, 0
10, 145437, Note_on_c, 8, 56, 68
10, 145826, Note_on_c, 8, 56, 0
10, 145920, Note_on_c, 8, 67, 62
10, 145923, Note_on_c, 8, 59, 67
10, 146313, Note_on_c, 8, 59, 0
10, 146313, Note_on_c, 8, 67, 0
10, 146397, Note_on_c, 8, 59, 68
10, 146401, Note_on_c, 8, 67, 68
10, 146607, Note_on_c, 8, 59, 0
10, 146612, Note_on_c, 8, 67, 0
10, 146638, Note_on_c, 8, 59, 63
10, 146638, Note_on_c, 8, 67, 62
10, 146846, Note_on_c, 8, 59, 0
10, 146849, Note_on_c, 8, 67, 0
10, 146877, Note_on_c, 8, 60, 60
10, 146877, Note_on_c, 8, 69, 66
10, 147266, Note_on_c, 8, 60, 0
10, 147269, Note_on_c, 8, 69, 0
10, 147358, Note_on_c, 8, 60, 60
10, 147360, Note_on_c, 8, 69, 62
10, 147749, Note_on_c, 8, 60, 0
10, 147750, Note_on_c, 8, 69, 0
10, 147841, Note_on_c, 8, 55, 68
10, 148231, Note_on_c, 8, 55, 0
10, 148323, Note_on_c, 8, 55, 60
10, 148530, Note_on_c, 8, 55, 0
10, 148560, Note_on_c, 8, 57, 61
10, 148562, Note_on_c, 8, 69, 63
10, 148769, Note_on_c, 8, 57, 0
10, 148775, Note_on_c, 8, 69, 0
10, 148800, Note_on_c, 8, 64, 60
10, 148802, Note_on_c, 8, 60, 64
10, 149190, Note_on_c, 8, 64, 0
10, 149191, Note_on_c, 8, 60, 0
10, 149278, Note_on_c, 8, 60, 61
10, 149282, Note_on_c, 8, 64, 63
10, 149669, Note_on_c, 8, 60, 0
10, 149673, Note_on_c, 8, 64, 0
10, 149757, Note_on_c, 8, 59, 63
10, 149763, Note_on_c, 8, 62, 65
10, 150148, Note_on_c, 8, 59, 0
10, 150153, Note_on_c, 8, 62, 0
10, 150237, Note_on_c, 8, 62, 64
10, 150240, Note_on_c, 8, 59, 61
10, 150445, Note_on_c, 8, 62, 0
10, 150450, Note_on_c, 8, 59, 0
10, 150477, Note_on_c, 8, 59, 62
10, 150480, Note_on_c, 8, 62, 63
10, 150687, Note_on_c, 8, 59, 0
10, 150689, Note_on_c, 8, 62, 0
10, 150717, Note_on_c, 8, 60, 62
10, 150723, Note_on_c, 8, 64, 68
10, 151105, Note_on_c, 8, 60, 0
10, 151112, Note_on_c, 8, 64, 0
10, 151680, Note_on_c, 8, 60, 64
10, 151680, Note_on_c, 8, 64, 64
10, 152070, Note_on_c, 8, 60, 0
10, 152070, Note_on_c, 8, 64, 0
10, 152161, Note_on_c, 8, 60, 61
10, 152161, Note_on_c, 8, 64, 65
10, 152371, Note_on_c, 8, 60, 0
10, 152371, Note_on_c, 8, 64, 0
10, 152400, Note_on_c, 8, 66, 60
10, 152402, Note_on_c, 8, 60, 67
10, 152610, Note_on_c, 8, 66, 0
10, 152611, Note_on_c, 8, 60, 0
10, 152639, Note_on_c, 8, 66, 64
10, 152642, Note_on_c, 8, 59, 64
10, 153029, Note_on_c, 8, 66, 0
10, 153035, Note_on_c, 8, 59, 0
10, 153119, Note_on_c, 8, 59, 64
10, 153119, Note_on_c, 8, 66, 64
10, 153120, Note_on_c, 8, 71, 63
10, 153507, Note_on_c, 8, 59, 0
10, 153508, Note_on_c, 8, 66, 0
10, 153513, Note_on_c, 8, 71, 0
10, 153599, Note_on_c, 8, 62, 68
10, 153600, Note_on_c, 8, 57, 63
10, 153991, Note_on_c, 8, 62, 0
10, 153992, Note_on_c, 8, 57, 0
10, 154078, Note_on_c, 8, 57, 64
10, 154080, Note_on_c, 8, 62, 62
10, 154285, Note_on_c, 8, 57, 0
10, 154290, Note_on_c, 8, 62, 0
10, 154320, Note_on_c, 8, 59, 66
10, 154320, Note_on_c, 8, 64, 62
10, 154527, Note_on_c, 8, 64, 0
10, 154533, Note_on_c, 8, 59, 0
10, 154560, Note_on_c, 8, 64, 64
10, 154562, Note_on_c, 8, 57, 60
10, 154951, Note_on_c, 8, 64, 0
10, 154953, Note_on_c, 8, 57, 0
10, 155039, Note_on_c, 8, 64, 68
10, 155039, Note_on_c, 8, 69, 68
10, 155040, Note_on_c, 8, 57, 62
10, 155428, Note_on_c, 8, 57, 0
10, 155429, Note_on_c, 8, 64, 0
10, 155432, Note_on_c, 8, 69, 0
10, 155517, Note_on_c, 8, 60, 67
10, 155519, Note_on_c, 8, 69, 66
10, 155907, Note_on_c, 8, 69, 0
10, 155910, Note_on_c, 8, 60, 0
10, 155999, Note_on_c, 8, 60, 60
10, 156002, Note_on_c, 8, 69, 61
10, 156208, Note_on_c, 8, 60, 0
10, 156210, Note_on_c, 8, 69, 0
10, 156242, Note_on_c, 8, 57, 66
10, 156451, Note_on_c, 8, 57, 0
10, 156482, Note_on_c, 8, 56, 65
10, 156692, Note_on_c, 8, 56, 0
10, 156959, Note_on_c, 8, 60, 66
10, 156961, Note_on_c, 8, 69, 63
10, 157169, Note_on_c, 8, 60, 0
10, 157171, Note_on_c, 8, 69, 0
10, 157200, Note_on_c, 8, 57, 62
10, 157412, Note_on_c, 8, 57, 0
10, 157438, Note_on_c, 8, 68, 62
10, 157441, Note_on_c, 8, 59, 60
10, 157830, Note_on_c, 8, 68, 0
10, 157834, Note_on_c, 8, 59, 0
10, 157918, Note_on_c, 8, 69, 60
10, 158128, Note_on_c, 8, 69, 0
10, 158157, Note_on_c, 8, 71, 66
10, 158367, Note_on_c, 8, 71, 0
10, 158398, Note_on_c, 8, 60, 62
10, 158398, Note_on_c, 8, 64, 66
10, 158606, Note_on_c, 8, 60, 0
10, 158608, Note_on_c, 8, 64, 0
10, 159362, Note_on_c, 8, 59, 66
10, 159362, Note_on_c, 8, 64, 60
10, 159749, Note_on_c, 8, 59, 0
10, 159755, Note_on_c, 8, 64, 0
10, 159838, Note_on_c, 8, 64, 61
10, 159842, Note_on_c, 8, 59, 66
10, 160048, Note_on_c, 8, 64, 0
10, 160051, Note_on_c, 8, 59, 0
10, 160080, Note_on_c, 8, 60, 62
10, 160081, Note_on_c, 8, 66, 60
10, 160291, Note_on_c, 8, 66, 0
10, 160293, Note_on_c, 8, 60, 0
10, 160317, Note_on_c, 8, 59, 65
10, 160321, Note_on_c, 8, 66, 65
10, 160707, Note_on_c, 8, 59, 0
10, 160711, Note_on_c, 8, 66, 0
10, 160797, Note_on_c, 8, 59, 60
10, 160797, Note_on_c, 8, 66, 66
10, 160801, Note_on_c, 8, 71, 65
10, 161186, Note_on_c, 8, 66, 0
10, 161188, Note_on_c, 8, 59, 0
10, 161189, Note_on_c, 8, 71, 0
10, 161280, Note_on_c, 8, 57, 64
10, 161280, Note_on_c, 8, 62, 65
10, 161671, Note_on_c, 8, 62, 0
10, 161672, Note_on_c, 8, 57, 0
10, 161761, Note_on_c, 8, 57, 67
10, 161762, Note_on_c, 8, 62, 65
10, 161970, Note_on_c, 8, 57, 0
10, 161973, Note_on_c, 8, 62, 0
10, 161997, Note_on_c, 8, 59, 65
10, 162000, Note_on_c, 8, 64, 60
10, 162208, Note_on_c, 8, 59, 0
10, 162213, Note_on_c, 8, 64, 0
10, 162239, Note_on_c, 8, 57, 64
10, 162241, Note_on_c, 8, 64, 66
10, 162627, Note_on_c, 8, 57, 0
10, 162632, Note_on_c, 8, 64, 0
10, 162717, Note_on_c, 8, 69, 61
10, 162720, Note_on_c, 8, 64, 61
10, 162721, Note_on_c, 8, 57, 68
10, 163104, Note_on_c, 8, 69, 0
10, 163109, Note_on_c, 8, 57, 0
10, 163112, Note_on_c, 8, 64, 0
10, 163197, Note_on_c, 8, 69, 67
10, 163199, Note_on_c, 8, 60, 64
10, 163585, Note_on_c, 8, 69, 0
10, 163590, Note_on_c, 8, 60, 0
10, 163677, Note_on_c, 8, 69, 64
10, 163682, Note_on_c, 8, 60, 66
10, 163884, Note_on_c, 8, 69, 0
10, 163891, Note_on_c, 8, 60, 0
10, 163919, Note_on_c, 8, 57, 63
10, 164126, Note_on_c, 8, 57, 0
10, 164161, Note_on_c, 8, 56, 61
10, 164368, Note_on_c, 8, 56, 0
10, 164642, Note_on_c, 8, 60, 66
10, 164642, Note_on_c, 8, 69, 63
10, 164850, Note_on_c, 8, 60, 0
10, 164851, Note_on_c, 8, 69, 0
10, 164881, Note_on_c, 8, 57, 68
10, 165093, Note_on_c, 8, 57, 0
10, 165118, Note_on_c, 8, 68, 63
10, 165122, Note_on_c, 8, 59, 66
10, 165507, Note_on_c, 8, 68, 0
10, 165513, Note_on_c, 8, 59, 0
10, 165601, Note_on_c, 8, 69, 68
10, 165809, Note_on_c, 8, 69, 0
10, 165839, Note_on_c, 8, 71, 64
10, 166051, Note_on_c, 8, 71, 0
10, 166082, Note_on_c, 8, 61, 67
10, 166082, Note_on_c, 8, 64, 64
10, 166471, Note_on_c, 8, 61, 0
10, 166473, Note_on_c, 8, 64, 0
10, 167040, Note_on_c, 8, 61, 63
10, 167041, Note_on_c, 8, 64, 63
10, 167490, Note_on_c, 8, 61, 0
10, 167491, Note_on_c, 8, 64, 0
10, 167522, Note_on_c, 8, 64, 61
10, 167523, Note_on_c, 8, 61, 62
10, 167732, Note_on_c, 8, 64, 0
10, 167734, Note_on_c, 8, 61, 0
10, 167762, Note_on_c, 8, 64, 61
10, 167763, Note_on_c, 8, 61, 61
10, 167971, Note_on_c, 8, 61, 0
10, 167974, Note_on_c, 8, 64, 0
10, 167998, Note_on_c, 8, 65, 64
10, 168000, Note_on_c, 8, 62, 66
10, 168447, Note_on_c, 8, 65, 0
10, 168451, Note_on_c, 8, 62, 0
10, 168957, Note_on_c, 8, 62, 64
10, 168959, Note_on_c, 8, 65, 68
10, 169407, Note_on_c, 8, 62, 0
10, 169410, Note_on_c, 8, 65, 0
10, 169436, Note_on_c, 8, 65, 64
10, 169443, Note_on_c, 8, 62, 67
10, 169646, Note_on_c, 8, 65, 0
10, 169651, Note_on_c, 8, 62, 0
10, 169677, Note_on_c, 8, 62, 60
10, 169682, Note_on_c, 8, 65, 64
10, 169886, Note_on_c, 8, 62, 0
10, 169890, Note_on_c, 8, 65, 0
10, 169919, Note_on_c, 8, 61, 68
10, 169921, Note_on_c, 8, 64, 68
10, 170370, Note_on_c, 8, 61, 0
10, 170370, Note_on_c, 8, 64, 0
10, 170877, Note_on_c, 8, 64, 63
10, 170878, Note_on_c, 8, 61, 64
10, 171088, Note_on_c, 8, 64, 0
10, 171089, Note_on_c, 8, 61, 0
10, 171119, Note_on_c, 8, 61, 62
10, 171123, Note_on_c, 8, 64, 66
10, 171330, Note_on_c, 8, 64, 0
10, 171331, Note_on_c, 8, 61, 0
10, 171356, Note_on_c, 8, 64, 66
10, 171362, Note_on_c, 8, 61, 70
10, 171563, Note_on_c, 8, 64, 0
10, 171572, Note_on_c, 8, 61, 0
10, 171837, Note_on_c, 8, 62, 66
10, 171843, Note_on_c, 8, 65, 66
10, 172044, Note_on_c, 8, 62, 0
10, 172050, Note_on_c, 8, 65, 0
10, 172079, Note_on_c, 8, 65, 70
10, 172081, Note_on_c, 8, 62, 74
10, 172290, Note_on_c, 8, 65, 0
10, 172293, Note_on_c, 8, 62, 0
10, 172316, Note_on_c, 8, 65, 75
10, 172317, Note_on_c, 8, 62, 73
10, 172526, Note_on_c, 8, 65, 0
10, 172527, Note_on_c, 8, 62, 0
10, 172798, Note_on_c, 8, 62, 77
10, 172801, Note_on_c, 8, 65, 74
10, 173008, Note_on_c, 8, 62, 0
10, 173009, Note_on_c, 8, 65, 0
10, 173039, Note_on_c, 8, 65, 74
10, 173041, Note_on_c, 8, 62, 74
10, 173246, Note_on_c, 8, 65, 0
10, 173253, Note_on_c, 8, 62, 0
10, 173283, Note_on_c, 8, 62, 77
10, 173283, Note_on_c, 8, 65, 75
10, 173491, Note_on_c, 8, 62, 0
10, 173493, Note_on_c, 8, 65, 0
10, 174236, Note_on_c, 8, 64, 74
10, 174241, Note_on_c, 8, 61, 73
10, 174448, Note_on_c, 8, 61, 0
10, 174448, Note_on_c, 8, 64, 0
10, 174482, Note_on_c, 8, 61, 68
10, 174483, Note_on_c, 8, 64, 73
10, 174693, Note_on_c, 8, 61, 0
10, 174693, Note_on_c, 8, 64, 0
10, 174720, Program_c, 8, 48
10, 175198, Note_on_c, 8, 65, 58
10, 175203, Note_on_c, 8, 62, 60
10, 175411, Note_on_c, 8, 65, 0
10, 175415, Note_on_c, 8, 62, 0
10, 175440, Note_on_c, 8, 74, 58
10, 175648, Note_on_c, 8, 74, 0
10, 175679, Note_on_c, 8, 72, 53
10, 175740, Note_on_c, 8, 72, 0
10, 175797, Note_on_c, 8, 74, 53
10, 175861, Note_on_c, 8, 74, 0
10, 175922, Note_on_c, 8, 76, 51
10, 175990, Note_on_c, 8, 76, 0
10, 176040, Note_on_c, 8, 74, 53
10, 176100, Note_on_c, 8, 74, 0
10, 176160, Note_on_c, 8, 72, 49
10, 176222, Note_on_c, 8, 72, 0
10, 176279, Note_on_c, 8, 74, 48
10, 176340, Note_on_c, 8, 74, 0
10, 176403, Note_on_c, 8, 72, 47
10, 176466, Note_on_c, 8, 72, 0
10, 176517, Note_on_c, 8, 71, 47
10, 176580, Note_on_c, 8, 71, 0
10, 176638, Note_on_c, 8, 69, 52
10, 176702, Note_on_c, 8, 69, 0
10, 176760, Note_on_c, 8, 71, 51
10, 176823, Note_on_c, 8, 71, 0
10, 176878, Note_on_c, 8, 72, 52
10, 176946, Note_on_c, 8, 72, 0
10, 176999, Note_on_c, 8, 74, 48
10, 177062, Note_on_c, 8, 74, 0
10, 177123, Note_on_c, 8, 76, 52
10, 177185, Note_on_c, 8, 76, 0
10, 177240, Note_on_c, 8, 78, 49
10, 177301, Note_on_c, 8, 78, 0
10, 177358, Note_on_c, 8, 80, 49
10, 177421, Note_on_c, 8, 80, 0
10, 177479, Note_on_c, 8, 81, 49
10, 177536, Note_on_c, 8, 81, 0
10, 177600, Note_on_c, 8, 80, 54
10, 177661, Note_on_c, 8, 80, 0
10, 177717, Note_on_c, 8, 76, 49
10, 177776, Note_on_c, 8, 76, 0
10, 177842, Note_on_c, 8, 78, 49
10, 177905, Note_on_c, 8, 78, 0
10, 177962, Note_on_c, 8, 80, 52
10, 178025, Note_on_c, 8, 80, 0
10, 178083, Note_on_c, 8, 81, 50
10, 178143, Note_on_c, 8, 81, 0
10, 178202, Note_on_c, 8, 83, 49
10, 178264, Note_on_c, 8, 83, 0
10, 178323, Note_on_c, 8, 81, 50
10, 178388, Note_on_c, 8, 81, 0
10, 178441, Note_on_c, 8, 79, 46
10, 178503, Note_on_c, 8, 79, 0
10, 178562, Note_on_c, 8, 78, 49
10, 178620, Note_on_c, 8, 78, 0
10, 178677, Note_on_c, 8, 78, 47
10, 178739, Note_on_c, 8, 78, 0
10, 178802, Note_on_c, 8, 79, 47
10, 178867, Note_on_c, 8, 79, 0
10, 178922, Note_on_c, 8, 81, 53
10, 178984, Note_on_c, 8, 81, 0
10, 179041, Note_on_c, 8, 83, 45
10, 179102, Note_on_c, 8, 83, 0
10, 179158, Note_on_c, 8, 71, 49
10, 179222, Note_on_c, 8, 71, 0
10, 179278, Note_on_c, 8, 73, 50
10, 179344, Note_on_c, 8, 73, 0
10, 179397, Note_on_c, 8, 75, 55
10, 179460, Note_on_c, 8, 75, 0
10, 179520, Note_on_c, 8, 76, 49
10, 179972, Note_on_c, 8, 76, 0
10, 180000, Note_on_c, 8, 76, 53
10, 180091, Note_on_c, 8, 76, 0
10, 180237, Note_on_c, 8, 78, 45
10, 180332, Note_on_c, 8, 78, 0
10, 180478, Note_on_c, 8, 79, 45
10, 180929, Note_on_c, 8, 79, 0
10, 180959, Note_on_c, 8, 79, 52
10, 181411, Note_on_c, 8, 79, 0
10, 181442, Note_on_c, 8, 78, 49
10, 181897, Note_on_c, 8, 78, 0
10, 181918, Note_on_c, 8, 78, 55
10, 182007, Note_on_c, 8, 78, 0
10, 182163, Note_on_c, 8, 80, 48
10, 182254, Note_on_c, 8, 80, 0
10, 182402, Note_on_c, 8, 81, 49
10, 182497, Note_on_c, 8, 81, 0
10, 182638, Note_on_c, 8, 77, 54
10, 182729, Note_on_c, 8, 77, 0
10, 183123, Note_on_c, 8, 74, 55
10, 183543, Note_on_c, 8, 74, 0
10, 183600, Note_on_c, 8, 72, 50
10, 184018, Note_on_c, 8, 72, 0
10, 184082, Note_on_c, 8, 76, 48
10, 184507, Note_on_c, 8, 76, 0
10, 184560, Note_on_c, 8, 69, 49
10, 184979, Note_on_c, 8, 69, 0
10, 185038, Note_on_c, 8, 76, 53
10, 185462, Note_on_c, 8, 76, 0
10, 185521, Note_on_c, 8, 74, 50
10, 185946, Note_on_c, 8, 74, 0
10, 186000, Note_on_c, 8, 76, 46
10, 186215, Note_on_c, 8, 76, 0
10, 186241, Note_on_c, 8, 78, 48
10, 186335, Note_on_c, 8, 78, 0
10, 186478, Note_on_c, 8, 76, 45
10, 186568, Note_on_c, 8, 76, 0
10, 186723, Note_on_c, 8, 75, 50
10, 186788, Note_on_c, 8, 75, 0
10, 186837, Note_on_c, 8, 75, 45
10, 186896, Note_on_c, 8, 75, 0
10, 186958, Note_on_c, 8, 76, 54
10, 187020, Note_on_c, 8, 76, 0
10, 187078, Note_on_c, 8, 78, 49
10, 187136, Note_on_c, 8, 78, 0
10, 187197, Note_on_c, 8, 79, 47
10, 187617, Note_on_c, 8, 79, 0
10, 191640, Note_on_c, 8, 73, 54
10, 191701, Note_on_c, 8, 73, 0
10, 191760, Note_on_c, 8, 74, 52
10, 191828, Note_on_c, 8, 74, 0
10, 191883, Note_on_c, 8, 76, 46
10, 191940, Note_on_c, 8, 76, 0
10, 191999, Note_on_c, 8, 74, 48
10, 192424, Note_on_c, 8, 74, 0
10, 193560, Note_on_c, 8, 71, 55
10, 193622, Note_on_c, 8, 71, 0
10, 193678, Note_on_c, 8, 72, 50
10, 193743, Note_on_c, 8, 72, 0
10, 193798, Note_on_c, 8, 74, 52
10, 193862, Note_on_c, 8, 74, 0
10, 193921, Note_on_c, 8, 76, 54
10, 193983, Note_on_c, 8, 76, 0
10, 194039, Note_on_c, 8, 77, 46
10, 194099, Note_on_c, 8, 77, 0
10, 194158, Note_on_c, 8, 79, 51
10, 194223, Note_on_c, 8, 79, 0
10, 194278, Note_on_c, 8, 77, 50
10, 194342, Note_on_c, 8, 77, 0
10, 194402, Note_on_c, 8, 76, 55
10, 194461, Note_on_c, 8, 76, 0
10, 194522, Note_on_c, 8, 77, 52
10, 194583, Note_on_c, 8, 77, 0
10, 194642, Note_on_c, 8, 76, 52
10, 194709, Note_on_c, 8, 76, 0
10, 194757, Note_on_c, 8, 74, 51
10, 194814, Note_on_c, 8, 74, 0
10, 194880, Note_on_c, 8, 72, 50
10, 194939, Note_on_c, 8, 72, 0
10, 195001, Note_on_c, 8, 74, 48
10, 195064, Note_on_c, 8, 74, 0
10, 195119, Note_on_c, 8, 76, 55
10, 195182, Note_on_c, 8, 76, 0
10, 195242, Note_on_c, 8, 77, 51
10, 195303, Note_on_c, 8, 77, 0
10, 195361, Note_on_c, 8, 79, 47
10, 195423, Note_on_c, 8, 79, 0
10, 195480, Note_on_c, 8, 81, 46
10, 195541, Note_on_c, 8, 81, 0
10, 195599, Note_on_c, 8, 83, 50
10, 195667, Note_on_c, 8, 83, 0
10, 195718, Note_on_c, 8, 84, 52
10, 195777, Note_on_c, 8, 84, 0
10, 195839, Note_on_c, 8, 78, 49
10, 196258, Note_on_c, 8, 78, 0
10, 196323, Note_on_c, 8, 78, 51
10, 196413, Note_on_c, 8, 78, 0
10, 196559, Note_on_c, 8, 80, 49
10, 196651, Note_on_c, 8, 80, 0
10, 196802, Note_on_c, 8, 81, 47
10, 197223, Note_on_c, 8, 81, 0
10, 197280, Note_on_c, 8, 81, 51
10, 197942, Note_on_c, 8, 81, 0
10, 197998, Note_on_c, 8, 79, 51
10, 198416, Note_on_c, 8, 79, 0
10, 198480, Note_on_c, 8, 79, 50
10, 198901, Note_on_c, 8, 79, 0
10, 198962, Note_on_c, 8, 77, 45
10, 199387, Note_on_c, 8, 77, 0
10, 199441, Note_on_c, 8, 77, 49
10, 199656, Note_on_c, 8, 77, 0
10, 199682, Note_on_c, 8, 79, 55
10, 199743, Note_on_c, 8, 79, 0
10, 199802, Note_on_c, 8, 67, 48
10, 199865, Note_on_c, 8, 67, 0
10, 199919, Note_on_c, 8, 64, 54
10, 199987, Note_on_c, 8, 64, 0
10, 200043, Note_on_c, 8, 62, 47
10, 200103, Note_on_c, 8, 62, 0
10, 200163, Note_on_c, 8, 61, 52
10, 200221, Note_on_c, 8, 61, 0
10, 200281, Note_on_c, 8, 64, 47
10, 200343, Note_on_c, 8, 64, 0
10, 200397, Note_on_c, 8, 69, 46
10, 200464, Note_on_c, 8, 69, 0
10, 200521, Note_on_c, 8, 67, 54
10, 200581, Note_on_c, 8, 67, 0
10, 200637, Note_on_c, 8, 65, 50
10, 200702, Note_on_c, 8, 65, 0
10, 200757, Note_on_c, 8, 67, 50
10, 200820, Note_on_c, 8, 67, 0
10, 200877, Note_on_c, 8, 69, 48
10, 200943, Note_on_c, 8, 69, 0
10, 200997, Note_on_c, 8, 71, 46
10, 201059, Note_on_c, 8, 71, 0
10, 201117, Note_on_c, 8, 73, 50
10, 201181, Note_on_c, 8, 73, 0
10, 201237, Note_on_c, 8, 74, 54
10, 201300, Note_on_c, 8, 74, 0
10, 201357, Note_on_c, 8, 76, 49
10, 201419, Note_on_c, 8, 76, 0
10, 201477, Note_on_c, 8, 77, 45
10, 201541, Note_on_c, 8, 77, 0
10, 201597, Note_on_c, 8, 77, 51
10, 201600, Control_c, 8, 7, 100
10, 201655, Note_on_c, 8, 77, 0
10, 201717, Note_on_c, 8, 56, 52
10, 201717, Note_on_c, 8, 65, 57
10, 201780, Note_on_c, 8, 56, 0
10, 201781, Note_on_c, 8, 65, 0
10, 201837, Note_on_c, 8, 56, 56
10, 201837, Note_on_c, 8, 65, 52
10, 201840, Control_c, 8, 7, 101
10, 201899, Note_on_c, 8, 56, 0
10, 201899, Note_on_c, 8, 65, 0
10, 201957, Note_on_c, 8, 56, 61
10, 201957, Note_on_c, 8, 65, 57
10, 201960, Control_c, 8, 7, 102
10, 202015, Note_on_c, 8, 65, 0
10, 202018, Note_on_c, 8, 56, 0
10, 202077, Note_on_c, 8, 56, 57
10, 202077, Note_on_c, 8, 65, 62
10, 202080, Control_c, 8, 7, 103
10, 202140, Note_on_c, 8, 56, 0
10, 202141, Note_on_c, 8, 65, 0
10, 202197, Note_on_c, 8, 56, 63
10, 202197, Note_on_c, 8, 65, 59
10, 202200, Control_c, 8, 7, 104
10, 202256, Note_on_c, 8, 56, 0
10, 202257, Note_on_c, 8, 65, 0
10, 202317, Note_on_c, 8, 56, 66
10, 202317, Note_on_c, 8, 65, 63
10, 202320, Control_c, 8, 7, 105
10, 202380, Note_on_c, 8, 56, 0
10, 202383, Note_on_c, 8, 65, 0
10, 202437, Note_on_c, 8, 56, 68
10, 202437, Note_on_c, 8, 65, 64
10, 202440, Control_c, 8, 7, 106
10, 202494, Note_on_c, 8, 56, 0
10, 202501, Note_on_c, 8, 65, 0
10, 202557, Note_on_c, 8, 56, 69
10, 202557, Note_on_c, 8, 65, 64
10, 202615, Note_on_c, 8, 65, 0
10, 202622, Note_on_c, 8, 56, 0
10, 202677, Note_on_c, 8, 56, 67
10, 202677, Note_on_c, 8, 65, 66
10, 202680, Control_c, 8, 7, 107
10, 202737, Note_on_c, 8, 56, 0
10, 202740, Note_on_c, 8, 65, 0
10, 202797, Note_on_c, 8, 56, 70
10, 202797, Note_on_c, 8, 65, 71
10, 202800, Control_c, 8, 7, 108
10, 202860, Note_on_c, 8, 65, 0
10, 202866, Note_on_c, 8, 56, 0
10, 202917, Note_on_c, 8, 56, 81
10, 202917, Note_on_c, 8, 65, 80
10, 202920, Control_c, 8, 7, 109
10, 202975, Note_on_c, 8, 65, 0
10, 202976, Note_on_c, 8, 56, 0
10, 203037, Note_on_c, 8, 56, 82
10, 203037, Note_on_c, 8, 65, 74
10, 203040, Control_c, 8, 7, 110
10, 203096, Note_on_c, 8, 56, 0
10, 203101, Note_on_c, 8, 65, 0
10, 203157, Note_on_c, 8, 56, 85
10, 203157, Note_on_c, 8, 65, 83
10, 203160, Control_c, 8, 7, 111
10, 203216, Note_on_c, 8, 65, 0
10, 203218, Note_on_c, 8, 56, 0
10, 203277, Note_on_c, 8, 56, 88
10, 203277, Note_on_c, 8, 65, 82
10, 203280, Control_c, 8, 7, 112
10, 203344, Note_on_c, 8, 56, 0
10, 203344, Note_on_c, 8, 65, 0
10, 203397, Note_on_c, 8, 56, 89
10, 203397, Note_on_c, 8, 65, 86
10, 203400, Control_c, 8, 7, 113
10, 203456, Note_on_c, 8, 65, 0
10, 203458, Note_on_c, 8, 56, 0
10, 203517, Note_on_c, 8, 56, 90
10, 203517, Note_on_c, 8, 65, 91
10, 203579, Note_on_c, 8, 56, 0
10, 203579, Note_on_c, 8, 65, 0
10, 203637, Note_on_c, 8, 56, 92
10, 203637, Note_on_c, 8, 65, 91
10, 203640, Control_c, 8, 7, 114
10, 203698, Note_on_c, 8, 65, 0
10, 203699, Note_on_c, 8, 56, 0
10, 203757, Note_on_c, 8, 56, 95
10, 203757, Note_on_c, 8, 65, 96
10, 203760, Control_c, 8, 7, 115
10, 203819, Note_on_c, 8, 56, 0
10, 203820, Note_on_c, 8, 65, 0
10, 203877, Note_on_c, 8, 56, 92
10, 203877, Note_on_c, 8, 65, 95
10, 203880, Control_c, 8, 7, 116
10, 203938, Note_on_c, 8, 65, 0
10, 203941, Note_on_c, 8, 56, 0
10, 203997, Note_on_c, 8, 56, 101
10, 203997, Note_on_c, 8, 65, 98
10, 204000, Control_c, 8, 7, 117
10, 204057, Note_on_c, 8, 65, 0
10, 204061, Note_on_c, 8, 56, 0
10, 204117, Note_on_c, 8, 56, 97
10, 204117, Note_on_c, 8, 65, 97
10, 204120, Control_c, 8, 7, 118
10, 204177, Note_on_c, 8, 56, 0
10, 204179, Note_on_c, 8, 65, 0
10, 204237, Note_on_c, 8, 56, 108
10, 204237, Note_on_c, 8, 65, 107
10, 204240, Control_c, 8, 7, 119
10, 204303, Note_on_c, 8, 56, 0
10, 204306, Note_on_c, 8, 65, 0
10, 204357, Note_on_c, 8, 56, 107
10, 204357, Note_on_c, 8, 65, 106
10, 204360, Control_c, 8, 7, 120
10, 204415, Note_on_c, 8, 65, 0
10, 204418, Note_on_c, 8, 56, 0
10, 204477, Note_on_c, 8, 56, 105
10, 204477, Note_on_c, 8, 65, 113
10, 204538, Note_on_c, 8, 56, 0
10, 204542, Note_on_c, 8, 65, 0
10, 204597, Note_on_c, 8, 71, 110
10, 204600, Control_c, 8, 7, 121
10, 204662, Note_on_c, 8, 71, 0
10, 204717, Note_on_c, 8, 71, 112
10, 204720, Control_c, 8, 7, 122
10, 204784, Note_on_c, 8, 71, 0
10, 204837, Note_on_c, 8, 71, 113
10, 204840, Control_c, 8, 7, 123
10, 204895, Note_on_c, 8, 71, 0
10, 204957, Note_on_c, 8, 71, 113
10, 204960, Control_c, 8, 7, 124
10, 205022, Note_on_c, 8, 71, 0
10, 205077, Note_on_c, 8, 71, 111
10, 205080, Control_c, 8, 7, 125
10, 205136, Note_on_c, 8, 71, 0
10, 205197, Note_on_c, 8, 76, 106
10, 205200, Control_c, 8, 7, 126
10, 205259, Note_on_c, 8, 76, 0
10, 205317, Note_on_c, 8, 74, 109
10, 205378, Note_on_c, 8, 74, 0
10, 205437, Note_on_c, 8, 64, 112
10, 205437, Note_on_c, 8, 72, 107
10, 205886, Note_on_c, 8, 72, 0
10, 205887, Note_on_c, 8, 64, 0
10, 205917, Note_on_c, 8, 64, 109
10, 205917, Note_on_c, 8, 72, 106
10, 206000, Note_on_c, 8, 64, 0
10, 206016, Note_on_c, 8, 72, 0
10, 206157, Note_on_c, 8, 64, 107
10, 206157, Note_on_c, 8, 72, 113
10, 206248, Note_on_c, 8, 72, 0
10, 206289, Note_on_c, 8, 64, 0
10, 206397, Note_on_c, 8, 64, 109
10, 206397, Note_on_c, 8, 71, 113
10, 206791, Note_on_c, 8, 71, 0
10, 206792, Note_on_c, 8, 64, 0
10, 206877, Note_on_c, 8, 64, 109
10, 206882, Note_on_c, 8, 71, 114
10, 207266, Note_on_c, 8, 64, 0
10, 207268, Note_on_c, 8, 71, 0
10, 207360, Note_on_c, 8, 80, 106
10, 207363, Note_on_c, 8, 71, 109
10, 207787, Note_on_c, 8, 80, 0
10, 207790, Note_on_c, 8, 71, 0
10, 207837, Note_on_c, 8, 80, 111
10, 207839, Note_on_c, 8, 71, 108
10, 207922, Note_on_c, 8, 71, 0
10, 207934, Note_on_c, 8, 80, 0
10, 208077, Note_on_c, 8, 80, 107
10, 208081, Note_on_c, 8, 71, 110
10, 208165, Note_on_c, 8, 71, 0
10, 208185, Note_on_c, 8, 80, 0
10, 208318, Note_on_c, 8, 72, 106
10, 208318, Note_on_c, 8, 81, 112
10, 208725, Note_on_c, 8, 81, 0
10, 208728, Note_on_c, 8, 72, 0
10, 208800, Note_on_c, 8, 81, 106
10, 208801, Note_on_c, 8, 72, 109
10, 209217, Note_on_c, 8, 72, 0
10, 209222, Note_on_c, 8, 81, 0
10, 209278, Note_on_c, 8, 81, 112
10, 209282, Note_on_c, 8, 72, 108
10, 209688, Note_on_c, 8, 81, 0
10, 209696, Note_on_c, 8, 72, 0
10, 209761, Note_on_c, 8, 72, 110
10, 209761, Note_on_c, 8, 81, 110
10, 209860, Note_on_c, 8, 72, 0
10, 209877, Note_on_c, 8, 81, 0
10, 210000, Note_on_c, 8, 81, 108
10, 210001, Note_on_c, 8, 72, 107
10, 210106, Note_on_c, 8, 72, 0
10, 210123, Note_on_c, 8, 81, 0
10, 210239, Note_on_c, 8, 83, 107
10, 210242, Note_on_c, 8, 74, 111
10, 210648, Note_on_c, 8, 74, 0
10, 210653, Note_on_c, 8, 83, 0
10, 210722, Note_on_c, 8, 72, 113
10, 210722, Note_on_c, 8, 81, 113
10, 211128, Note_on_c, 8, 72, 0
10, 211128, Note_on_c, 8, 81, 0
10, 211197, Note_on_c, 8, 71, 110
10, 211200, Note_on_c, 8, 80, 108
10, 211603, Note_on_c, 8, 80, 0
10, 211620, Note_on_c, 8, 71, 0
10, 211681, Note_on_c, 8, 69, 109
10, 211776, Note_on_c, 8, 69, 0
10, 211921, Note_on_c, 8, 71, 109
10, 212024, Note_on_c, 8, 71, 0
10, 212160, Note_on_c, 8, 72, 112
10, 212606, Note_on_c, 8, 72, 0
10, 212640, Control_c, 8, 7, 100
10, 215042, Note_on_c, 8, 62, 69
10, 215102, Note_on_c, 8, 62, 0
10, 215160, Note_on_c, 8, 59, 69
10, 215218, Note_on_c, 8, 59, 0
10, 215279, Note_on_c, 8, 61, 72
10, 215345, Note_on_c, 8, 61, 0
10, 215400, Note_on_c, 8, 62, 70
10, 215459, Note_on_c, 8, 62, 0
10, 215519, Note_on_c, 8, 64, 68
10, 215579, Note_on_c, 8, 64, 0
10, 215642, Note_on_c, 8, 62, 71
10, 215705, Note_on_c, 8, 62, 0
10, 215763, Note_on_c, 8, 61, 69
10, 215829, Note_on_c, 8, 61, 0
10, 215879, Note_on_c, 8, 59, 72
10, 215943, Note_on_c, 8, 59, 0
10, 216001, Note_on_c, 8, 57, 59
10, 217915, Note_on_c, 8, 57, 0
10, 217920, Note_on_c, 8, 59, 49
10, 219362, Note_on_c, 8, 57, 52
10, 219448, Note_on_c, 8, 59, 0
10, 219839, Note_on_c, 8, 56, 58
10, 219900, Note_on_c, 8, 57, 0
10, 220322, Note_on_c, 8, 57, 57
10, 220377, Note_on_c, 8, 56, 0
10, 220768, Note_on_c, 8, 57, 0
10, 220801, Note_on_c, 8, 57, 55
10, 221282, Note_on_c, 8, 55, 57
10, 221328, Note_on_c, 8, 57, 0
10, 221758, Note_on_c, 8, 57, 54
10, 221817, Note_on_c, 8, 55, 0
10, 222241, Note_on_c, 8, 59, 50
10, 222291, Note_on_c, 8, 57, 0
10, 222682, Note_on_c, 8, 59, 0
10, 222718, Note_on_c, 8, 59, 58
10, 223164, Note_on_c, 8, 59, 0
10, 223199, Note_on_c, 8, 57, 56
10, 223438, Note_on_c, 8, 55, 49
10, 223438, Note_on_c, 8, 67, 59
10, 223490, Note_on_c, 8, 57, 0
10, 223660, Note_on_c, 8, 67, 0
10, 223661, Note_on_c, 8, 55, 0
10, 223678, Note_on_c, 8, 55, 54
10, 223681, Note_on_c, 8, 67, 50
10, 224114, Note_on_c, 8, 55, 0
10, 224118, Note_on_c, 8, 67, 0
10, 224160, Note_on_c, 8, 55, 59
10, 224161, Note_on_c, 8, 67, 56
10, 225794, Note_on_c, 8, 55, 0
10, 225796, Note_on_c, 8, 67, 0
10, 225839, Note_on_c, 8, 57, 51
10, 225842, Note_on_c, 8, 67, 57
10, 226062, Note_on_c, 8, 57, 0
10, 226070, Note_on_c, 8, 67, 0
10, 226078, Note_on_c, 8, 66, 53
10, 226081, Note_on_c, 8, 57, 53
10, 227027, Note_on_c, 8, 57, 0
10, 227029, Note_on_c, 8, 66, 0
10, 227041, Note_on_c, 8, 57, 55
10, 227487, Note_on_c, 8, 57, 0
10, 227521, Note_on_c, 8, 57, 54
10, 228001, Note_on_c, 8, 55, 54
10, 228076, Note_on_c, 8, 57, 0
10, 228478, Note_on_c, 8, 57, 51
10, 228555, Note_on_c, 8, 55, 0
10, 228959, Note_on_c, 8, 59, 58
10, 229039, Note_on_c, 8, 57, 0
10, 229441, Note_on_c, 8, 57, 53
10, 229502, Note_on_c, 8, 59, 0
10, 230160, Note_on_c, 8, 55, 54
10, 230239, Note_on_c, 8, 57, 0
10, 230400, Note_on_c, 8, 57, 52
10, 230452, Note_on_c, 8, 55, 0
10, 230878, Note_on_c, 8, 59, 58
10, 230905, Note_on_c, 8, 57, 0
10, 231325, Note_on_c, 8, 59, 0
10, 231358, Note_on_c, 8, 57, 55
10, 232080, Note_on_c, 8, 55, 53
10, 232101, Note_on_c, 8, 57, 0
10, 232321, Note_on_c, 8, 57, 48
10, 232345, Note_on_c, 8, 55, 0
10, 232799, Note_on_c, 8, 59, 51
10, 232825, Note_on_c, 8, 57, 0
10, 233243, Note_on_c, 8, 59, 0
10, 233281, Note_on_c, 8, 61, 49
10, 234242, Note_on_c, 8, 62, 46
10, 234267, Note_on_c, 8, 61, 0
10, 235201, Note_on_c, 8, 61, 45
10, 235229, Note_on_c, 8, 62, 0
10, 236160, Note_on_c, 8, 62, 48
10, 236187, Note_on_c, 8, 61, 0
10, 237082, Note_on_c, 8, 62, 0
10, 237118, Note_on_c, 8, 62, 102
10, 237385, Note_on_c, 8, 62, 0
10, 237599, Note_on_c, 8, 74, 102
10, 237600, Note_on_c, 8, 62, 102
10, 237600, Note_on_c, 8, 71, 102
10, 237863, Note_on_c, 8, 74, 0
10, 237864, Note_on_c, 8, 62, 0
10, 237864, Note_on_c, 8, 71, 0
10, 238080, Note_on_c, 8, 72, 100
10, 238081, Note_on_c, 8, 64, 102
10, 238081, Note_on_c, 8, 76, 99
10, 238584, Note_on_c, 8, 64, 0
10, 238586, Note_on_c, 8, 72, 0
10, 238586, Note_on_c, 8, 76, 0
10, 239042, Note_on_c, 8, 62, 58
10, 239513, Note_on_c, 8, 62, 0
10, 239523, Note_on_c, 8, 62, 56
10, 239630, Note_on_c, 8, 62, 0
10, 239760, Note_on_c, 8, 62, 55
10, 239870, Note_on_c, 8, 62, 0
10, 239998, Note_on_c, 8, 60, 55
10, 240409, Note_on_c, 8, 60, 0
10, 240956, Note_on_c, 8, 62, 96
10, 240960, Note_on_c, 8, 71, 100
10, 241246, Note_on_c, 8, 62, 0
10, 241249, Note_on_c, 8, 71, 0
10, 241438, Note_on_c, 8, 71, 100
10, 241439, Note_on_c, 8, 79, 104
10, 241442, Note_on_c, 8, 62, 98
10, 241728, Note_on_c, 8, 71, 0
10, 241728, Note_on_c, 8, 79, 0
10, 241733, Note_on_c, 8, 62, 0
10, 241916, Note_on_c, 8, 72, 99
10, 241918, Note_on_c, 8, 64, 102
10, 241921, Note_on_c, 8, 76, 96
10, 242413, Note_on_c, 8, 72, 0
10, 242417, Note_on_c, 8, 64, 0
10, 242419, Note_on_c, 8, 76, 0
10, 242880, Note_on_c, 8, 62, 58
10, 243350, Note_on_c, 8, 62, 0
10, 243361, Note_on_c, 8, 62, 56
10, 243472, Note_on_c, 8, 62, 0
10, 243601, Note_on_c, 8, 62, 56
10, 243710, Note_on_c, 8, 62, 0
10, 244320, Program_c, 8, 45
10, 245278, Note_on_c, 8, 57, 44
10, 245748, Note_on_c, 8, 57, 0
10, 246240, Note_on_c, 8, 64, 54
10, 246708, Note_on_c, 8, 64, 0
10, 247198, Note_on_c, 8, 64, 50
10, 247670, Note_on_c, 8, 64, 0
10, 248162, Note_on_c, 8, 57, 45
10, 248630, Note_on_c, 8, 57, 0
10, 249117, Note_on_c, 8, 60, 44
10, 249587, Note_on_c, 8, 60, 0
10, 250082, Note_on_c, 8, 60, 51
10, 250550, Note_on_c, 8, 60, 0
10, 250563, Note_on_c, 8, 59, 53
10, 251035, Note_on_c, 8, 59, 0
10, 251043, Note_on_c, 8, 57, 48
10, 251272, Note_on_c, 8, 57, 0
10, 251277, Note_on_c, 8, 59, 52
10, 251506, Note_on_c, 8, 59, 0
10, 251518, Note_on_c, 8, 60, 49
10, 251988, Note_on_c, 8, 60, 0
10, 252962, Note_on_c, 8, 60, 47
10, 253432, Note_on_c, 8, 60, 0
10, 253919, Note_on_c, 8, 59, 49
10, 254391, Note_on_c, 8, 59, 0
10, 254882, Note_on_c, 8, 64, 49
10, 255351, Note_on_c, 8, 64, 0
10, 255839, Note_on_c, 8, 57, 49
10, 256308, Note_on_c, 8, 57, 0
10, 256803, Note_on_c, 8, 57, 51
10, 257271, Note_on_c, 8, 57, 0
10, 257281, Note_on_c, 8, 59, 45
10, 257753, Note_on_c, 8, 59, 0
10, 257759, Note_on_c, 8, 57, 46
10, 258226, Note_on_c, 8, 57, 0
10, 258242, Note_on_c, 8, 59, 47
10, 258708, Note_on_c, 8, 59, 0
10, 258722, Note_on_c, 8, 59, 47
10, 258951, Note_on_c, 8, 59, 0
10, 258961, Note_on_c, 8, 59, 49
10, 259190, Note_on_c, 8, 59, 0
10, 259198, Note_on_c, 8, 57, 44
10, 259667, Note_on_c, 8, 57, 0
10, 262080, Note_on_c, 8, 59, 49
10, 262551, Note_on_c, 8, 59, 0
10, 262560, Note_on_c, 8, 59, 50
10, 262786, Note_on_c, 8, 59, 0
10, 262799, Note_on_c, 8, 59, 51
10, 263029, Note_on_c, 8, 59, 0
10, 263040, Note_on_c, 8, 57, 44
10, 263509, Note_on_c, 8, 57, 0
10, 263640, Program_c, 8, 48
10, 264003, Note_on_c, 8, 64, 45
10, 264473, Note_on_c, 8, 64, 0
10, 264480, Note_on_c, 8, 66, 46
10, 264709, Note_on_c, 8, 66, 0
10, 264717, Note_on_c, 8, 68, 54
10, 264949, Note_on_c, 8, 68, 0
10, 264960, Note_on_c, 8, 57, 63
10, 264961, Note_on_c, 8, 69, 64
10, 265426, Note_on_c, 8, 57, 0
10, 265431, Note_on_c, 8, 69, 0
10, 265431, End_track
11, 0, Start_track
11, 0, Channel_prefix, 10
11, 0, Title_t, "Viola   "
11, 0, Instrument_name_t, "Viola   "
11, 2880, Program_c, 10, 48
11, 2881, Note_on_c, 10, 52, 60
11, 3347, Note_on_c, 10, 52, 0
11, 3360, Note_on_c, 10, 52, 64
11, 3491, Note_on_c, 10, 52, 0
11, 3597, Note_on_c, 10, 52, 69
11, 3709, Note_on_c, 10, 52, 0
11, 3835, Note_on_c, 10, 52, 64
11, 4213, Note_on_c, 10, 52, 0
11, 4315, Note_on_c, 10, 52, 59
11, 4693, Note_on_c, 10, 52, 0
11, 4797, Note_on_c, 10, 52, 71
11, 5184, Note_on_c, 10, 52, 0
11, 5282, Note_on_c, 10, 52, 59
11, 5402, Note_on_c, 10, 52, 0
11, 5524, Note_on_c, 10, 52, 71
11, 5634, Note_on_c, 10, 52, 0
11, 5762, Note_on_c, 10, 52, 69
11, 6166, Note_on_c, 10, 52, 0
11, 6243, Note_on_c, 10, 52, 70
11, 6603, Note_on_c, 10, 52, 0
11, 6716, Note_on_c, 10, 52, 64
11, 7113, Note_on_c, 10, 52, 0
11, 7200, Note_on_c, 10, 52, 68
11, 7314, Note_on_c, 10, 52, 0
11, 7436, Note_on_c, 10, 50, 64
11, 7443, Note_on_c, 10, 54, 64
11, 7592, Note_on_c, 10, 50, 0
11, 7597, Note_on_c, 10, 54, 0
11, 7678, Note_on_c, 10, 55, 61
11, 7683, Note_on_c, 10, 52, 64
11, 8062, Note_on_c, 10, 52, 0
11, 8075, Note_on_c, 10, 55, 0
11, 8160, Note_on_c, 10, 55, 63
11, 8163, Note_on_c, 10, 52, 64
11, 8532, Note_on_c, 10, 52, 0
11, 8547, Note_on_c, 10, 55, 0
11, 8642, Note_on_c, 10, 50, 62
11, 8643, Note_on_c, 10, 55, 67
11, 9044, Note_on_c, 10, 50, 0
11, 9057, Note_on_c, 10, 55, 0
11, 9115, Note_on_c, 10, 55, 66
11, 9119, Note_on_c, 10, 48, 63
11, 9258, Note_on_c, 10, 55, 0
11, 9260, Note_on_c, 10, 48, 0
11, 9357, Note_on_c, 10, 50, 60
11, 9360, Note_on_c, 10, 55, 66
11, 9485, Note_on_c, 10, 50, 0
11, 9522, Note_on_c, 10, 55, 0
11, 9599, Note_on_c, 10, 55, 67
11, 9602, Note_on_c, 10, 52, 65
11, 10092, Note_on_c, 10, 52, 0
11, 10096, Note_on_c, 10, 55, 0
11, 10560, Note_on_c, 10, 55, 71
11, 10956, Note_on_c, 10, 55, 0
11, 11035, Note_on_c, 10, 55, 68
11, 11134, Note_on_c, 10, 55, 0
11, 11276, Note_on_c, 10, 57, 61
11, 11380, Note_on_c, 10, 57, 0
11, 11516, Note_on_c, 10, 59, 61
11, 11931, Note_on_c, 10, 59, 0
11, 11995, Note_on_c, 10, 59, 67
11, 12352, Note_on_c, 10, 59, 0
11, 12480, Note_on_c, 10, 54, 58
11, 12880, Note_on_c, 10, 54, 0
11, 12960, Note_on_c, 10, 54, 61
11, 13060, Note_on_c, 10, 54, 0
11, 13199, Note_on_c, 10, 56, 70
11, 13282, Note_on_c, 10, 56, 0
11, 13435, Note_on_c, 10, 57, 64
11, 13834, Note_on_c, 10, 57, 0
11, 13921, Note_on_c, 10, 57, 70
11, 14229, Note_on_c, 10, 57, 0
11, 14396, Note_on_c, 10, 52, 61
11, 14787, Note_on_c, 10, 52, 0
11, 14877, Note_on_c, 10, 52, 68
11, 14982, Note_on_c, 10, 52, 0
11, 15119, Note_on_c, 10, 52, 63
11, 15240, Note_on_c, 10, 52, 0
11, 15362, Note_on_c, 10, 52, 58
11, 15742, Note_on_c, 10, 52, 0
11, 15843, Note_on_c, 10, 52, 64
11, 16250, Note_on_c, 10, 52, 0
11, 16320, Note_on_c, 10, 52, 58
11, 16714, Note_on_c, 10, 52, 0
11, 16798, Note_on_c, 10, 54, 61
11, 16799, Note_on_c, 10, 52, 61
11, 16897, Note_on_c, 10, 54, 0
11, 16916, Note_on_c, 10, 52, 0
11, 17038, Note_on_c, 10, 56, 64
11, 17044, Note_on_c, 10, 52, 66
11, 17149, Note_on_c, 10, 56, 0
11, 17173, Note_on_c, 10, 52, 0
11, 17277, Note_on_c, 10, 52, 58
11, 17284, Note_on_c, 10, 57, 63
11, 17749, Note_on_c, 10, 52, 0
11, 17756, Note_on_c, 10, 57, 0
11, 18240, Note_on_c, 10, 55, 39
11, 18636, Note_on_c, 10, 55, 0
11, 18723, Note_on_c, 10, 55, 40
11, 18823, Note_on_c, 10, 55, 0
11, 18963, Note_on_c, 10, 57, 37
11, 19061, Note_on_c, 10, 57, 0
11, 19204, Note_on_c, 10, 59, 38
11, 19618, Note_on_c, 10, 59, 0
11, 19683, Note_on_c, 10, 59, 38
11, 20037, Note_on_c, 10, 59, 0
11, 20163, Note_on_c, 10, 54, 38
11, 20556, Note_on_c, 10, 54, 0
11, 20641, Note_on_c, 10, 54, 40
11, 20747, Note_on_c, 10, 54, 0
11, 20878, Note_on_c, 10, 56, 39
11, 20995, Note_on_c, 10, 56, 0
11, 21122, Note_on_c, 10, 57, 36
11, 21519, Note_on_c, 10, 57, 0
11, 21602, Note_on_c, 10, 57, 37
11, 21904, Note_on_c, 10, 57, 0
11, 22078, Note_on_c, 10, 52, 37
11, 22464, Note_on_c, 10, 52, 0
11, 22557, Note_on_c, 10, 52, 40
11, 22665, Note_on_c, 10, 52, 0
11, 22796, Note_on_c, 10, 52, 36
11, 22917, Note_on_c, 10, 52, 0
11, 23042, Note_on_c, 10, 52, 38
11, 23429, Note_on_c, 10, 52, 0
11, 23524, Note_on_c, 10, 52, 36
11, 23884, Note_on_c, 10, 52, 0
11, 24001, Note_on_c, 10, 52, 36
11, 24393, Note_on_c, 10, 52, 0
11, 24476, Note_on_c, 10, 52, 40
11, 24481, Note_on_c, 10, 54, 39
11, 24580, Note_on_c, 10, 54, 0
11, 24594, Note_on_c, 10, 52, 0
11, 24717, Note_on_c, 10, 56, 36
11, 24720, Note_on_c, 10, 52, 36
11, 24826, Note_on_c, 10, 56, 0
11, 24857, Note_on_c, 10, 52, 0
11, 24958, Note_on_c, 10, 57, 40
11, 24959, Note_on_c, 10, 52, 38
11, 25430, Note_on_c, 10, 57, 0
11, 25431, Note_on_c, 10, 52, 0
11, 25942, Note_on_c, 10, 60, 66
11, 26893, Note_on_c, 10, 59, 67
11, 26906, Note_on_c, 10, 60, 0
11, 27732, Note_on_c, 10, 59, 0
11, 27887, Note_on_c, 10, 59, 64
11, 27947, Note_on_c, 10, 60, 61
11, 27989, Note_on_c, 10, 59, 0
11, 28019, Note_on_c, 10, 62, 66
11, 28072, Note_on_c, 10, 60, 0
11, 28568, Note_on_c, 10, 60, 64
11, 28610, Note_on_c, 10, 62, 0
11, 28643, Note_on_c, 10, 59, 66
11, 28694, Note_on_c, 10, 60, 0
11, 28740, Note_on_c, 10, 59, 0
11, 28795, Note_on_c, 10, 59, 68
11, 29063, Note_on_c, 10, 60, 62
11, 29103, Note_on_c, 10, 59, 0
11, 29259, Note_on_c, 10, 60, 0
11, 29310, Note_on_c, 10, 60, 62
11, 29570, Note_on_c, 10, 60, 0
11, 29790, Note_on_c, 10, 60, 64
11, 30422, Note_on_c, 10, 60, 0
11, 30505, Note_on_c, 10, 60, 60
11, 30571, Note_on_c, 10, 62, 65
11, 30607, Note_on_c, 10, 60, 0
11, 30678, Note_on_c, 10, 63, 67
11, 30712, Note_on_c, 10, 62, 0
11, 30976, Note_on_c, 10, 64, 65
11, 30991, Note_on_c, 10, 63, 0
11, 31131, Note_on_c, 10, 64, 0
11, 31175, Note_on_c, 10, 64, 67
11, 31325, Note_on_c, 10, 64, 0
11, 31418, Note_on_c, 10, 64, 65
11, 31576, Note_on_c, 10, 64, 0
11, 31659, Note_on_c, 10, 62, 66
11, 31715, Note_on_c, 10, 64, 62
11, 31764, Note_on_c, 10, 62, 0
11, 31804, Note_on_c, 10, 65, 64
11, 31884, Note_on_c, 10, 64, 0
11, 32403, Note_on_c, 10, 65, 0
11, 32435, Note_on_c, 10, 64, 63
11, 32526, Note_on_c, 10, 62, 63
11, 32607, Note_on_c, 10, 64, 0
11, 32629, Note_on_c, 10, 62, 0
11, 32660, Note_on_c, 10, 62, 64
11, 32950, Note_on_c, 10, 64, 61
11, 32989, Note_on_c, 10, 62, 0
11, 33121, Note_on_c, 10, 64, 0
11, 33121, Note_on_c, 10, 64, 63
11, 33410, Note_on_c, 10, 64, 0
11, 33599, Note_on_c, 10, 64, 64
11, 34570, Note_on_c, 10, 63, 67
11, 34571, Note_on_c, 10, 64, 0
11, 35498, Note_on_c, 10, 63, 0
11, 35541, Note_on_c, 10, 62, 60
11, 35792, Note_on_c, 10, 59, 64
11, 35825, Note_on_c, 10, 62, 0
11, 35889, Note_on_c, 10, 61, 64
11, 35932, Note_on_c, 10, 59, 0
11, 35988, Note_on_c, 10, 62, 61
11, 36008, Note_on_c, 10, 61, 0
11, 36241, Note_on_c, 10, 64, 62
11, 36261, Note_on_c, 10, 62, 0
11, 36347, Note_on_c, 10, 62, 64
11, 36380, Note_on_c, 10, 64, 0
11, 36430, Note_on_c, 10, 62, 0
11, 36455, Note_on_c, 10, 62, 62
11, 36705, Note_on_c, 10, 61, 62
11, 36740, Note_on_c, 10, 62, 0
11, 36940, Note_on_c, 10, 60, 60
11, 36972, Note_on_c, 10, 61, 0
11, 37321, Note_on_c, 10, 60, 0
11, 37420, Note_on_c, 10, 60, 68
11, 38365, Note_on_c, 10, 59, 68
11, 38387, Note_on_c, 10, 60, 0
11, 38881, Note_on_c, 10, 60, 66
11, 38887, Note_on_c, 10, 59, 0
11, 39289, Note_on_c, 10, 60, 0
11, 39388, Note_on_c, 10, 59, 67
11, 39442, Note_on_c, 10, 60, 64
11, 39466, Note_on_c, 10, 59, 0
11, 39521, Note_on_c, 10, 62, 68
11, 39550, Note_on_c, 10, 60, 0
11, 40066, Note_on_c, 10, 62, 0
11, 40076, Note_on_c, 10, 60, 60
11, 40206, Note_on_c, 10, 59, 66
11, 40217, Note_on_c, 10, 60, 0
11, 40312, Note_on_c, 10, 57, 60
11, 40342, Note_on_c, 10, 59, 0
11, 40472, Note_on_c, 10, 57, 0
11, 40539, Note_on_c, 10, 57, 67
11, 40641, Note_on_c, 10, 59, 60
11, 40671, Note_on_c, 10, 57, 0
11, 40816, Note_on_c, 10, 60, 60
11, 40832, Note_on_c, 10, 59, 0
11, 40925, Note_on_c, 10, 60, 0
11, 41015, Note_on_c, 10, 60, 61
11, 41158, Note_on_c, 10, 62, 63
11, 41171, Note_on_c, 10, 60, 0
11, 41281, Note_on_c, 10, 64, 46
11, 41284, Note_on_c, 10, 62, 0
11, 42250, Note_on_c, 10, 63, 49
11, 42253, Note_on_c, 10, 64, 0
11, 43178, Note_on_c, 10, 63, 0
11, 43221, Note_on_c, 10, 62, 52
11, 43472, Note_on_c, 10, 59, 49
11, 43505, Note_on_c, 10, 62, 0
11, 43569, Note_on_c, 10, 61, 52
11, 43612, Note_on_c, 10, 59, 0
11, 43668, Note_on_c, 10, 62, 51
11, 43688, Note_on_c, 10, 61, 0
11, 43921, Note_on_c, 10, 64, 49
11, 43941, Note_on_c, 10, 62, 0
11, 44027, Note_on_c, 10, 62, 49
11, 44060, Note_on_c, 10, 64, 0
11, 44110, Note_on_c, 10, 62, 0
11, 44135, Note_on_c, 10, 62, 48
11, 44385, Note_on_c, 10, 61, 46
11, 44420, Note_on_c, 10, 62, 0
11, 44620, Note_on_c, 10, 60, 52
11, 44652, Note_on_c, 10, 61, 0
11, 45001, Note_on_c, 10, 60, 0
11, 45100, Note_on_c, 10, 60, 49
11, 46045, Note_on_c, 10, 59, 46
11, 46067, Note_on_c, 10, 60, 0
11, 46561, Note_on_c, 10, 60, 49
11, 46567, Note_on_c, 10, 59, 0
11, 46969, Note_on_c, 10, 60, 0
11, 47068, Note_on_c, 10, 59, 48
11, 47122, Note_on_c, 10, 60, 48
11, 47146, Note_on_c, 10, 59, 0
11, 47201, Note_on_c, 10, 62, 49
11, 47230, Note_on_c, 10, 60, 0
11, 47726, Note_on_c, 10, 60, 49
11, 47746, Note_on_c, 10, 62, 0
11, 47856, Note_on_c, 10, 59, 49
11, 47897, Note_on_c, 10, 60, 0
11, 47992, Note_on_c, 10, 57, 50
11, 47992, Note_on_c, 10, 59, 0
11, 48452, Note_on_c, 10, 57, 0
11, 48959, Control_c, 10, 7, 100
11, 49082, Control_c, 10, 7, 100
11, 49201, Note_on_c, 10, 57, 63
11, 49202, Control_c, 10, 7, 100
11, 49320, Control_c, 10, 7, 100
11, 49436, Note_on_c, 10, 60, 64
11, 49437, Control_c, 10, 7, 100
11, 49476, Note_on_c, 10, 57, 0
11, 49560, Control_c, 10, 7, 101
11, 49679, Control_c, 10, 7, 101
11, 49682, Note_on_c, 10, 52, 65
11, 49751, Note_on_c, 10, 60, 0
11, 49803, Control_c, 10, 7, 101
11, 49826, Note_on_c, 10, 52, 0
11, 49920, Control_c, 10, 7, 101
11, 50043, Control_c, 10, 7, 101
11, 50157, Note_on_c, 10, 56, 66
11, 50157, Control_c, 10, 7, 102
11, 50280, Control_c, 10, 7, 102
11, 50396, Note_on_c, 10, 59, 67
11, 50396, Control_c, 10, 7, 102
11, 50406, Note_on_c, 10, 56, 0
11, 50517, Control_c, 10, 7, 102
11, 50639, Note_on_c, 10, 52, 68
11, 50640, Control_c, 10, 7, 102
11, 50680, Note_on_c, 10, 59, 0
11, 50760, Control_c, 10, 7, 103
11, 50762, Note_on_c, 10, 52, 0
11, 50882, Control_c, 10, 7, 103
11, 51004, Control_c, 10, 7, 103
11, 51119, Control_c, 10, 7, 103
11, 51121, Note_on_c, 10, 56, 69
11, 51244, Control_c, 10, 7, 104
11, 51363, Note_on_c, 10, 59, 70
11, 51364, Control_c, 10, 7, 104
11, 51380, Note_on_c, 10, 56, 0
11, 51484, Control_c, 10, 7, 104
11, 51597, Control_c, 10, 7, 104
11, 51603, Note_on_c, 10, 52, 71
11, 51643, Note_on_c, 10, 59, 0
11, 51717, Control_c, 10, 7, 104
11, 51762, Note_on_c, 10, 52, 0
11, 51837, Control_c, 10, 7, 105
11, 51960, Control_c, 10, 7, 105
11, 52079, Note_on_c, 10, 57, 72
11, 52082, Control_c, 10, 7, 105
11, 52201, Control_c, 10, 7, 105
11, 52322, Note_on_c, 10, 60, 73
11, 52324, Control_c, 10, 7, 105
11, 52349, Note_on_c, 10, 57, 0
11, 52438, Control_c, 10, 7, 106
11, 52555, Note_on_c, 10, 60, 0
11, 52557, Control_c, 10, 7, 106
11, 52561, Note_on_c, 10, 52, 74
11, 52677, Control_c, 10, 7, 106
11, 52717, Note_on_c, 10, 52, 0
11, 52796, Control_c, 10, 7, 106
11, 52918, Control_c, 10, 7, 106
11, 53040, Note_on_c, 10, 57, 75
11, 53044, Control_c, 10, 7, 107
11, 53157, Control_c, 10, 7, 107
11, 53276, Note_on_c, 10, 57, 0
11, 53281, Control_c, 10, 7, 107
11, 53283, Note_on_c, 10, 60, 76
11, 53402, Control_c, 10, 7, 107
11, 53520, Control_c, 10, 7, 108
11, 53524, Note_on_c, 10, 48, 76
11, 53560, Note_on_c, 10, 60, 0
11, 53640, Note_on_c, 10, 48, 0
11, 53640, Control_c, 10, 7, 108
11, 53757, Control_c, 10, 7, 108
11, 53884, Control_c, 10, 7, 108
11, 53998, Control_c, 10, 7, 108
11, 53999, Note_on_c, 10, 55, 78
11, 54123, Control_c, 10, 7, 109
11, 54243, Control_c, 10, 7, 109
11, 54244, Note_on_c, 10, 60, 79
11, 54245, Note_on_c, 10, 55, 0
11, 54359, Control_c, 10, 7, 109
11, 54477, Note_on_c, 10, 48, 79
11, 54479, Control_c, 10, 7, 109
11, 54526, Note_on_c, 10, 60, 0
11, 54600, Control_c, 10, 7, 109
11, 54628, Note_on_c, 10, 48, 0
11, 54721, Control_c, 10, 7, 110
11, 54838, Control_c, 10, 7, 110
11, 54959, Control_c, 10, 7, 110
11, 54960, Note_on_c, 10, 59, 81
11, 55077, Control_c, 10, 7, 110
11, 55196, Control_c, 10, 7, 110
11, 55201, Note_on_c, 10, 62, 82
11, 55209, Note_on_c, 10, 59, 0
11, 55320, Control_c, 10, 7, 111
11, 55441, Control_c, 10, 7, 111
11, 55443, Note_on_c, 10, 55, 82
11, 55498, Note_on_c, 10, 62, 0
11, 55557, Control_c, 10, 7, 111
11, 55566, Note_on_c, 10, 55, 0
11, 55684, Control_c, 10, 7, 111
11, 55800, Control_c, 10, 7, 112
11, 55916, Control_c, 10, 7, 112
11, 55921, Note_on_c, 10, 55, 84
11, 56036, Control_c, 10, 7, 112
11, 56158, Note_on_c, 10, 60, 85
11, 56160, Control_c, 10, 7, 112
11, 56172, Note_on_c, 10, 55, 0
11, 56280, Control_c, 10, 7, 112
11, 56395, Note_on_c, 10, 48, 85
11, 56400, Control_c, 10, 7, 113
11, 56405, Note_on_c, 10, 60, 0
11, 56522, Control_c, 10, 7, 113
11, 56558, Note_on_c, 10, 48, 0
11, 56643, Control_c, 10, 7, 113
11, 56759, Control_c, 10, 7, 113
11, 56879, Control_c, 10, 7, 113
11, 56880, Note_on_c, 10, 60, 87
11, 57002, Control_c, 10, 7, 114
11, 57117, Control_c, 10, 7, 114
11, 57120, Note_on_c, 10, 64, 87
11, 57136, Note_on_c, 10, 60, 0
11, 57241, Control_c, 10, 7, 114
11, 57360, Note_on_c, 10, 52, 88
11, 57360, Control_c, 10, 7, 114
11, 57376, Note_on_c, 10, 64, 0
11, 57482, Control_c, 10, 7, 114
11, 57586, Note_on_c, 10, 52, 0
11, 57597, Control_c, 10, 7, 115
11, 57724, Control_c, 10, 7, 115
11, 57839, Control_c, 10, 7, 115
11, 57840, Note_on_c, 10, 54, 90
11, 57956, Control_c, 10, 7, 115
11, 58080, Note_on_c, 10, 59, 90
11, 58084, Control_c, 10, 7, 116
11, 58096, Note_on_c, 10, 54, 0
11, 58203, Control_c, 10, 7, 116
11, 58316, Control_c, 10, 7, 116
11, 58320, Note_on_c, 10, 47, 91
11, 58336, Note_on_c, 10, 59, 0
11, 58438, Control_c, 10, 7, 116
11, 58546, Note_on_c, 10, 47, 0
11, 58563, Control_c, 10, 7, 116
11, 58682, Control_c, 10, 7, 117
11, 58798, Control_c, 10, 7, 117
11, 58800, Note_on_c, 10, 59, 93
11, 58922, Control_c, 10, 7, 117
11, 59040, Note_on_c, 10, 62, 93
11, 59043, Control_c, 10, 7, 117
11, 59056, Note_on_c, 10, 59, 0
11, 59156, Control_c, 10, 7, 117
11, 59280, Note_on_c, 10, 50, 94
11, 59283, Control_c, 10, 7, 118
11, 59296, Note_on_c, 10, 62, 0
11, 59404, Control_c, 10, 7, 118
11, 59506, Note_on_c, 10, 50, 0
11, 59521, Control_c, 10, 7, 118
11, 59637, Control_c, 10, 7, 118
11, 59757, Control_c, 10, 7, 118
11, 59760, Note_on_c, 10, 52, 96
11, 59878, Control_c, 10, 7, 119
11, 60000, Note_on_c, 10, 57, 96
11, 60000, Control_c, 10, 7, 119
11, 60016, Note_on_c, 10, 52, 0
11, 60121, Control_c, 10, 7, 119
11, 60240, Note_on_c, 10, 45, 97
11, 60244, Control_c, 10, 7, 119
11, 60256, Note_on_c, 10, 57, 0
11, 60361, Control_c, 10, 7, 120
11, 60466, Note_on_c, 10, 45, 0
11, 60482, Control_c, 10, 7, 120
11, 60604, Control_c, 10, 7, 120
11, 60720, Note_on_c, 10, 57, 98
11, 60720, Control_c, 10, 7, 120
11, 60844, Control_c, 10, 7, 120
11, 60960, Note_on_c, 10, 64, 99
11, 60963, Control_c, 10, 7, 121
11, 60976, Note_on_c, 10, 57, 0
11, 61083, Control_c, 10, 7, 121
11, 61200, Note_on_c, 10, 52, 100
11, 61201, Control_c, 10, 7, 121
11, 61216, Note_on_c, 10, 64, 0
11, 61318, Control_c, 10, 7, 121
11, 61426, Note_on_c, 10, 52, 0
11, 61442, Control_c, 10, 7, 121
11, 61564, Control_c, 10, 7, 122
11, 61677, Control_c, 10, 7, 122
11, 61680, Note_on_c, 10, 59, 101
11, 61803, Control_c, 10, 7, 122
11, 61917, Control_c, 10, 7, 122
11, 61920, Note_on_c, 10, 64, 102
11, 61936, Note_on_c, 10, 59, 0
11, 62040, Control_c, 10, 7, 122
11, 62159, Control_c, 10, 7, 123
11, 62160, Note_on_c, 10, 52, 103
11, 62176, Note_on_c, 10, 64, 0
11, 62282, Control_c, 10, 7, 123
11, 62386, Note_on_c, 10, 52, 0
11, 62399, Control_c, 10, 7, 123
11, 62515, Control_c, 10, 7, 123
11, 62640, Note_on_c, 10, 59, 104
11, 62640, Control_c, 10, 7, 124
11, 62756, Control_c, 10, 7, 124
11, 62878, Control_c, 10, 7, 124
11, 62880, Note_on_c, 10, 64, 105
11, 62896, Note_on_c, 10, 59, 0
11, 62996, Control_c, 10, 7, 124
11, 63119, Control_c, 10, 7, 124
11, 63120, Note_on_c, 10, 52, 106
11, 63136, Note_on_c, 10, 64, 0
11, 63237, Control_c, 10, 7, 125
11, 63346, Note_on_c, 10, 52, 0
11, 63360, Control_c, 10, 7, 125
11, 63476, Control_c, 10, 7, 125
11, 63600, Note_on_c, 10, 60, 107
11, 63600, Control_c, 10, 7, 125
11, 63723, Control_c, 10, 7, 125
11, 63837, Control_c, 10, 7, 126
11, 63840, Note_on_c, 10, 64, 108
11, 63856, Note_on_c, 10, 60, 0
11, 63958, Control_c, 10, 7, 126
11, 64080, Note_on_c, 10, 57, 109
11, 64081, Control_c, 10, 7, 126
11, 64096, Note_on_c, 10, 64, 0
11, 64196, Control_c, 10, 7, 126
11, 64306, Note_on_c, 10, 57, 0
11, 64320, Control_c, 10, 7, 127
11, 64560, Note_on_c, 10, 60, 109
11, 64800, Note_on_c, 10, 64, 110
11, 64816, Note_on_c, 10, 60, 0
11, 65040, Note_on_c, 10, 52, 107
11, 65056, Note_on_c, 10, 64, 0
11, 65266, Note_on_c, 10, 52, 0
11, 65520, Note_on_c, 10, 54, 112
11, 65760, Note_on_c, 10, 59, 108
11, 65776, Note_on_c, 10, 54, 0
11, 66000, Note_on_c, 10, 47, 109
11, 66016, Note_on_c, 10, 59, 0
11, 66226, Note_on_c, 10, 47, 0
11, 66480, Note_on_c, 10, 59, 109
11, 66720, Note_on_c, 10, 62, 110
11, 66736, Note_on_c, 10, 59, 0
11, 66960, Note_on_c, 10, 50, 108
11, 66976, Note_on_c, 10, 62, 0
11, 67186, Note_on_c, 10, 50, 0
11, 67440, Note_on_c, 10, 52, 107
11, 67680, Note_on_c, 10, 57, 111
11, 67696, Note_on_c, 10, 52, 0
11, 67920, Note_on_c, 10, 45, 110
11, 67936, Note_on_c, 10, 57, 0
11, 68146, Note_on_c, 10, 45, 0
11, 68400, Note_on_c, 10, 57, 110
11, 68640, Note_on_c, 10, 64, 110
11, 68656, Note_on_c, 10, 57, 0
11, 68880, Note_on_c, 10, 52, 110
11, 68896, Note_on_c, 10, 64, 0
11, 69106, Note_on_c, 10, 52, 0
11, 69360, Note_on_c, 10, 59, 110
11, 69600, Note_on_c, 10, 64, 109
11, 69616, Note_on_c, 10, 59, 0
11, 69840, Note_on_c, 10, 52, 110
11, 69856, Note_on_c, 10, 64, 0
11, 70066, Note_on_c, 10, 52, 0
11, 70320, Note_on_c, 10, 59, 113
11, 70560, Note_on_c, 10, 64, 112
11, 70576, Note_on_c, 10, 59, 0
11, 70800, Note_on_c, 10, 52, 108
11, 70816, Note_on_c, 10, 64, 0
11, 71026, Note_on_c, 10, 52, 0
11, 71280, Note_on_c, 10, 60, 109
11, 71520, Note_on_c, 10, 64, 108
11, 71536, Note_on_c, 10, 60, 0
11, 71760, Note_on_c, 10, 57, 112
11, 71776, Note_on_c, 10, 64, 0
11, 71986, Note_on_c, 10, 57, 0
11, 72159, Note_on_c, 10, 57, 127
11, 72256, Note_on_c, 10, 57, 0
11, 72321, Note_on_c, 10, 60, 127
11, 72409, Note_on_c, 10, 60, 0
11, 72483, Note_on_c, 10, 52, 127
11, 72801, Note_on_c, 10, 52, 0
11, 73116, Note_on_c, 10, 56, 127
11, 73208, Note_on_c, 10, 56, 0
11, 73282, Note_on_c, 10, 59, 127
11, 73377, Note_on_c, 10, 59, 0
11, 73444, Note_on_c, 10, 52, 127
11, 73752, Note_on_c, 10, 52, 0
11, 74076, Note_on_c, 10, 56, 127
11, 74172, Note_on_c, 10, 56, 0
11, 74241, Note_on_c, 10, 59, 127
11, 74328, Note_on_c, 10, 59, 0
11, 74401, Note_on_c, 10, 52, 127
11, 74715, Note_on_c, 10, 52, 0
11, 75035, Note_on_c, 10, 57, 127
11, 75128, Note_on_c, 10, 57, 0
11, 75196, Note_on_c, 10, 60, 127
11, 75289, Note_on_c, 10, 60, 0
11, 75363, Note_on_c, 10, 52, 127
11, 75676, Note_on_c, 10, 52, 0
11, 76001, Note_on_c, 10, 57, 127
11, 76094, Note_on_c, 10, 57, 0
11, 76162, Note_on_c, 10, 60, 127
11, 76255, Note_on_c, 10, 60, 0
11, 76324, Note_on_c, 10, 48, 127
11, 76637, Note_on_c, 10, 48, 0
11, 76959, Note_on_c, 10, 55, 127
11, 77051, Note_on_c, 10, 55, 0
11, 77123, Note_on_c, 10, 60, 127
11, 77212, Note_on_c, 10, 60, 0
11, 77279, Note_on_c, 10, 48, 127
11, 77282, Note_on_c, 10, 55, 127
11, 77594, Note_on_c, 10, 48, 0
11, 77596, Note_on_c, 10, 55, 0
11, 77924, Note_on_c, 10, 59, 127
11, 78022, Note_on_c, 10, 59, 0
11, 78082, Note_on_c, 10, 62, 127
11, 78172, Note_on_c, 10, 62, 0
11, 78244, Note_on_c, 10, 55, 127
11, 78556, Note_on_c, 10, 55, 0
11, 78879, Note_on_c, 10, 55, 127
11, 78975, Note_on_c, 10, 55, 0
11, 79036, Note_on_c, 10, 60, 127
11, 79126, Note_on_c, 10, 60, 0
11, 79199, Note_on_c, 10, 48, 127
11, 79511, Note_on_c, 10, 48, 0
11, 79842, Note_on_c, 10, 55, 127
11, 79939, Note_on_c, 10, 55, 0
11, 80000, Note_on_c, 10, 60, 127
11, 80094, Note_on_c, 10, 60, 0
11, 80160, Note_on_c, 10, 48, 127
11, 80472, Note_on_c, 10, 48, 0
11, 80797, Note_on_c, 10, 59, 127
11, 80890, Note_on_c, 10, 59, 0
11, 80959, Note_on_c, 10, 71, 127
11, 81052, Note_on_c, 10, 71, 0
11, 81120, Note_on_c, 10, 59, 127
11, 81427, Note_on_c, 10, 59, 0
11, 81756, Note_on_c, 10, 59, 127
11, 81851, Note_on_c, 10, 59, 0
11, 81915, Note_on_c, 10, 62, 127
11, 82001, Note_on_c, 10, 62, 0
11, 82077, Note_on_c, 10, 50, 127
11, 82387, Note_on_c, 10, 50, 0
11, 82723, Note_on_c, 10, 57, 127
11, 82822, Note_on_c, 10, 57, 0
11, 82875, Note_on_c, 10, 69, 127
11, 82963, Note_on_c, 10, 69, 0
11, 83041, Note_on_c, 10, 57, 127
11, 83351, Note_on_c, 10, 57, 0
11, 83682, Note_on_c, 10, 57, 127
11, 83782, Note_on_c, 10, 57, 0
11, 83838, Note_on_c, 10, 60, 127
11, 83929, Note_on_c, 10, 60, 0
11, 83997, Note_on_c, 10, 52, 127
11, 84307, Note_on_c, 10, 52, 0
11, 84642, Note_on_c, 10, 56, 127
11, 84734, Note_on_c, 10, 56, 0
11, 84794, Note_on_c, 10, 59, 127
11, 84886, Note_on_c, 10, 59, 0
11, 84960, Note_on_c, 10, 57, 127
11, 84961, Note_on_c, 10, 52, 127
11, 85274, Note_on_c, 10, 57, 0
11, 85275, Note_on_c, 10, 52, 0
11, 85603, Note_on_c, 10, 56, 127
11, 85704, Note_on_c, 10, 56, 0
11, 85757, Note_on_c, 10, 59, 127
11, 85843, Note_on_c, 10, 59, 0
11, 85919, Note_on_c, 10, 52, 127
11, 86232, Note_on_c, 10, 52, 0
11, 86561, Note_on_c, 10, 57, 127
11, 86662, Note_on_c, 10, 57, 0
11, 86718, Note_on_c, 10, 69, 127
11, 86804, Note_on_c, 10, 69, 0
11, 86880, Note_on_c, 10, 57, 127
11, 86967, Note_on_c, 10, 57, 0
11, 87036, Note_on_c, 10, 57, 127
11, 87134, Note_on_c, 10, 57, 0
11, 87194, Note_on_c, 10, 59, 127
11, 87281, Note_on_c, 10, 59, 0
11, 87358, Note_on_c, 10, 60, 127
11, 87363, Control_c, 10, 7, 127
11, 87445, Note_on_c, 10, 60, 0
11, 87479, Control_c, 10, 7, 127
11, 87518, Note_on_c, 10, 55, 126
11, 87604, Control_c, 10, 7, 127
11, 87612, Note_on_c, 10, 55, 0
11, 87673, Note_on_c, 10, 60, 125
11, 87716, Control_c, 10, 7, 126
11, 87760, Note_on_c, 10, 60, 0
11, 87842, Control_c, 10, 7, 126
11, 87843, Note_on_c, 10, 48, 123
11, 87962, Control_c, 10, 7, 125
11, 88079, Control_c, 10, 7, 125
11, 88202, Control_c, 10, 7, 124
11, 88295, Note_on_c, 10, 48, 0
11, 88316, Control_c, 10, 7, 124
11, 88436, Control_c, 10, 7, 123
11, 88479, Note_on_c, 10, 59, 117
11, 88563, Control_c, 10, 7, 123
11, 88573, Note_on_c, 10, 59, 0
11, 88632, Note_on_c, 10, 71, 115
11, 88679, Control_c, 10, 7, 122
11, 88716, Note_on_c, 10, 71, 0
11, 88799, Note_on_c, 10, 59, 114
11, 88801, Control_c, 10, 7, 122
11, 88919, Control_c, 10, 7, 121
11, 89039, Control_c, 10, 7, 121
11, 89161, Control_c, 10, 7, 120
11, 89246, Note_on_c, 10, 59, 0
11, 89280, Control_c, 10, 7, 120
11, 89402, Control_c, 10, 7, 119
11, 89438, Note_on_c, 10, 59, 108
11, 89518, Control_c, 10, 7, 119
11, 89538, Note_on_c, 10, 59, 0
11, 89590, Note_on_c, 10, 62, 106
11, 89638, Control_c, 10, 7, 118
11, 89680, Note_on_c, 10, 62, 0
11, 89758, Control_c, 10, 7, 118
11, 89762, Note_on_c, 10, 50, 105
11, 89877, Control_c, 10, 7, 117
11, 89997, Control_c, 10, 7, 117
11, 90115, Control_c, 10, 7, 116
11, 90213, Note_on_c, 10, 50, 0
11, 90240, Control_c, 10, 7, 116
11, 90356, Control_c, 10, 7, 115
11, 90395, Note_on_c, 10, 57, 99
11, 90477, Control_c, 10, 7, 115
11, 90491, Note_on_c, 10, 57, 0
11, 90556, Note_on_c, 10, 69, 97
11, 90600, Control_c, 10, 7, 114
11, 90644, Note_on_c, 10, 69, 0
11, 90724, Note_on_c, 10, 57, 95
11, 90724, Control_c, 10, 7, 114
11, 90836, Control_c, 10, 7, 114
11, 90958, Control_c, 10, 7, 113
11, 91079, Control_c, 10, 7, 113
11, 91169, Note_on_c, 10, 57, 0
11, 91198, Control_c, 10, 7, 112
11, 91324, Control_c, 10, 7, 112
11, 91358, Note_on_c, 10, 57, 89
11, 91444, Control_c, 10, 7, 111
11, 91458, Note_on_c, 10, 57, 0
11, 91509, Note_on_c, 10, 60, 88
11, 91556, Control_c, 10, 7, 111
11, 91601, Note_on_c, 10, 60, 0
11, 91679, Control_c, 10, 7, 110
11, 91681, Note_on_c, 10, 52, 86
11, 91800, Control_c, 10, 7, 110
11, 91922, Control_c, 10, 7, 109
11, 92039, Control_c, 10, 7, 109
11, 92129, Note_on_c, 10, 52, 0
11, 92156, Control_c, 10, 7, 108
11, 92283, Control_c, 10, 7, 108
11, 92317, Note_on_c, 10, 56, 80
11, 92398, Control_c, 10, 7, 107
11, 92418, Note_on_c, 10, 56, 0
11, 92472, Note_on_c, 10, 59, 79
11, 92517, Control_c, 10, 7, 107
11, 92561, Note_on_c, 10, 59, 0
11, 92639, Note_on_c, 10, 52, 77
11, 92640, Control_c, 10, 7, 106
11, 92762, Control_c, 10, 7, 106
11, 92880, Control_c, 10, 7, 105
11, 93002, Control_c, 10, 7, 105
11, 93085, Note_on_c, 10, 52, 0
11, 93122, Control_c, 10, 7, 104
11, 93235, Control_c, 10, 7, 104
11, 93275, Note_on_c, 10, 56, 71
11, 93357, Control_c, 10, 7, 103
11, 93373, Note_on_c, 10, 56, 0
11, 93436, Note_on_c, 10, 64, 70
11, 93482, Control_c, 10, 7, 103
11, 93519, Note_on_c, 10, 64, 0
11, 93598, Note_on_c, 10, 52, 68
11, 93602, Control_c, 10, 7, 102
11, 93685, Note_on_c, 10, 52, 0
11, 93721, Control_c, 10, 7, 102
11, 93755, Note_on_c, 10, 52, 67
11, 93840, Control_c, 10, 7, 101
11, 93855, Note_on_c, 10, 52, 0
11, 93913, Note_on_c, 10, 64, 65
11, 93964, Control_c, 10, 7, 101
11, 94002, Note_on_c, 10, 64, 0
11, 94077, Note_on_c, 10, 57, 63
11, 94082, Control_c, 10, 7, 100
11, 94528, Note_on_c, 10, 57, 0
11, 97920, Note_on_c, 10, 52, 56
11, 97921, Note_on_c, 10, 49, 56
11, 99802, Note_on_c, 10, 52, 0
11, 99807, Note_on_c, 10, 49, 0
11, 99835, Note_on_c, 10, 50, 56
11, 99840, Note_on_c, 10, 54, 57
11, 101280, Note_on_c, 10, 49, 52
11, 101281, Note_on_c, 10, 52, 58
11, 101328, Note_on_c, 10, 50, 0
11, 101336, Note_on_c, 10, 54, 0
11, 101520, Note_on_c, 10, 61, 56
11, 101575, Note_on_c, 10, 49, 0
11, 101577, Note_on_c, 10, 52, 0
11, 101719, Note_on_c, 10, 61, 0
11, 101759, Note_on_c, 10, 59, 56
11, 101762, Note_on_c, 10, 62, 54
11, 102237, Note_on_c, 10, 61, 56
11, 102239, Note_on_c, 10, 57, 54
11, 102289, Note_on_c, 10, 59, 0
11, 102300, Note_on_c, 10, 62, 0
11, 102476, Note_on_c, 10, 49, 58
11, 102482, Note_on_c, 10, 52, 55
11, 102532, Note_on_c, 10, 61, 0
11, 102534, Note_on_c, 10, 57, 0
11, 102722, Note_on_c, 10, 50, 59
11, 102724, Note_on_c, 10, 54, 59
11, 102773, Note_on_c, 10, 49, 0
11, 102775, Note_on_c, 10, 52, 0
11, 103195, Note_on_c, 10, 52, 56
11, 103260, Note_on_c, 10, 54, 0
11, 103261, Note_on_c, 10, 50, 0
11, 103681, Note_on_c, 10, 54, 58
11, 103723, Note_on_c, 10, 52, 0
11, 104159, Note_on_c, 10, 56, 60
11, 104214, Note_on_c, 10, 54, 0
11, 104604, Note_on_c, 10, 56, 0
11, 104639, Note_on_c, 10, 56, 57
11, 105118, Note_on_c, 10, 52, 55
11, 105175, Note_on_c, 10, 56, 0
11, 105325, Note_on_c, 10, 52, 0
11, 105363, Note_on_c, 10, 52, 54
11, 105567, Note_on_c, 10, 52, 0
11, 105599, Note_on_c, 10, 52, 57
11, 106078, Note_on_c, 10, 49, 57
11, 106135, Note_on_c, 10, 52, 0
11, 107962, Note_on_c, 10, 49, 0
11, 108001, Note_on_c, 10, 50, 54
11, 108961, Note_on_c, 10, 52, 58
11, 109012, Note_on_c, 10, 50, 0
11, 109408, Note_on_c, 10, 52, 0
11, 109440, Note_on_c, 10, 54, 57
11, 109685, Note_on_c, 10, 56, 58
11, 109736, Note_on_c, 10, 54, 0
11, 109919, Note_on_c, 10, 57, 58
11, 109984, Note_on_c, 10, 56, 0
11, 110162, Note_on_c, 10, 52, 56
11, 110214, Note_on_c, 10, 57, 0
11, 110360, Note_on_c, 10, 52, 0
11, 110402, Note_on_c, 10, 52, 57
11, 110646, Note_on_c, 10, 56, 56
11, 110696, Note_on_c, 10, 52, 0
11, 110876, Note_on_c, 10, 57, 58
11, 110939, Note_on_c, 10, 56, 0
11, 111124, Note_on_c, 10, 54, 57
11, 111168, Note_on_c, 10, 57, 0
11, 111297, Note_on_c, 10, 54, 0
11, 111362, Note_on_c, 10, 52, 57
11, 111837, Note_on_c, 10, 64, 55
11, 111925, Note_on_c, 10, 52, 0
11, 112322, Note_on_c, 10, 66, 58
11, 112402, Note_on_c, 10, 64, 0
11, 113242, Note_on_c, 10, 66, 0
11, 113277, Note_on_c, 10, 64, 58
11, 114234, Note_on_c, 10, 66, 56
11, 114292, Note_on_c, 10, 64, 0
11, 115161, Note_on_c, 10, 66, 0
11, 115201, Note_on_c, 10, 64, 59
11, 116159, Note_on_c, 10, 66, 56
11, 116217, Note_on_c, 10, 64, 0
11, 117120, Note_on_c, 10, 64, 57
11, 117176, Note_on_c, 10, 66, 0
11, 117566, Note_on_c, 10, 64, 0
11, 117601, Note_on_c, 10, 52, 57
11, 121888, Note_on_c, 10, 52, 0
11, 121917, Note_on_c, 10, 52, 57
11, 122402, Note_on_c, 10, 55, 55
11, 122477, Note_on_c, 10, 52, 0
11, 122880, Note_on_c, 10, 54, 55
11, 122971, Note_on_c, 10, 55, 0
11, 123085, Note_on_c, 10, 54, 0
11, 123123, Note_on_c, 10, 54, 56
11, 123356, Note_on_c, 10, 50, 54
11, 123418, Note_on_c, 10, 54, 0
11, 123599, Note_on_c, 10, 54, 56
11, 123646, Note_on_c, 10, 50, 0
11, 123805, Note_on_c, 10, 54, 0
11, 123835, Note_on_c, 10, 49, 56
11, 124075, Note_on_c, 10, 52, 58
11, 124126, Note_on_c, 10, 49, 0
11, 124281, Note_on_c, 10, 52, 0
11, 124315, Note_on_c, 10, 52, 56
11, 124562, Note_on_c, 10, 50, 56
11, 124610, Note_on_c, 10, 52, 0
11, 124798, Note_on_c, 10, 49, 56
11, 124886, Note_on_c, 10, 50, 0
11, 125003, Note_on_c, 10, 49, 0
11, 125040, Note_on_c, 10, 57, 53
11, 125280, Note_on_c, 10, 59, 60
11, 125339, Note_on_c, 10, 57, 0
11, 125433, Note_on_c, 10, 60, 60
11, 125486, Note_on_c, 10, 59, 0
11, 125593, Note_on_c, 10, 61, 56
11, 125650, Note_on_c, 10, 60, 0
11, 125740, Note_on_c, 10, 61, 0
11, 125759, Note_on_c, 10, 52, 53
11, 129567, Note_on_c, 10, 52, 0
11, 129601, Note_on_c, 10, 52, 58
11, 130078, Note_on_c, 10, 55, 57
11, 130133, Note_on_c, 10, 52, 0
11, 130558, Note_on_c, 10, 57, 54
11, 130612, Note_on_c, 10, 55, 0
11, 130758, Note_on_c, 10, 57, 0
11, 130800, Note_on_c, 10, 57, 58
11, 131039, Note_on_c, 10, 53, 55
11, 131126, Note_on_c, 10, 57, 0
11, 131285, Note_on_c, 10, 57, 57
11, 131364, Note_on_c, 10, 53, 0
11, 131485, Note_on_c, 10, 57, 0
11, 131516, Note_on_c, 10, 52, 56
11, 131761, Note_on_c, 10, 55, 54
11, 131841, Note_on_c, 10, 52, 0
11, 131970, Note_on_c, 10, 55, 0
11, 132000, Note_on_c, 10, 55, 58
11, 132237, Note_on_c, 10, 53, 57
11, 132320, Note_on_c, 10, 55, 0
11, 132439, Note_on_c, 10, 53, 0
11, 132475, Note_on_c, 10, 52, 55
11, 132954, Note_on_c, 10, 60, 55
11, 133042, Note_on_c, 10, 52, 0
11, 133439, Note_on_c, 10, 62, 69
11, 133519, Note_on_c, 10, 60, 0
11, 134397, Note_on_c, 10, 60, 65
11, 134469, Note_on_c, 10, 62, 0
11, 135338, Note_on_c, 10, 60, 0
11, 135359, Note_on_c, 10, 62, 66
11, 136322, Note_on_c, 10, 60, 61
11, 136384, Note_on_c, 10, 62, 0
11, 137280, Note_on_c, 10, 62, 67
11, 137280, Control_c, 10, 7, 100
11, 137353, Note_on_c, 10, 60, 0
11, 137400, Control_c, 10, 7, 103
11, 137520, Control_c, 10, 7, 106
11, 137640, Control_c, 10, 7, 110
11, 137760, Control_c, 10, 7, 113
11, 137880, Control_c, 10, 7, 116
11, 138000, Control_c, 10, 7, 120
11, 138120, Control_c, 10, 7, 123
11, 138217, Note_on_c, 10, 62, 0
11, 140000, Note_on_c, 10, 59, 77
11, 140091, Note_on_c, 10, 59, 0
11, 140320, Note_on_c, 10, 55, 80
11, 140413, Note_on_c, 10, 55, 0
11, 140480, Note_on_c, 10, 53, 81
11, 140568, Note_on_c, 10, 53, 0
11, 140636, Note_on_c, 10, 52, 77
11, 140730, Note_on_c, 10, 52, 0
11, 140799, Note_on_c, 10, 50, 84
11, 140892, Note_on_c, 10, 50, 0
11, 141280, Note_on_c, 10, 57, 81
11, 141372, Note_on_c, 10, 57, 0
11, 141438, Note_on_c, 10, 55, 80
11, 141527, Note_on_c, 10, 55, 0
11, 141596, Note_on_c, 10, 53, 77
11, 141687, Note_on_c, 10, 53, 0
11, 141759, Note_on_c, 10, 52, 81
11, 141852, Note_on_c, 10, 52, 0
11, 141917, Note_on_c, 10, 50, 84
11, 142009, Note_on_c, 10, 50, 0
11, 142082, Note_on_c, 10, 48, 85
11, 142274, Note_on_c, 10, 48, 0
11, 142560, Note_on_c, 10, 52, 105
11, 142656, Note_on_c, 10, 52, 0
11, 142803, Note_on_c, 10, 52, 107
11, 142904, Note_on_c, 10, 52, 0
11, 144000, Control_c, 10, 7, 100
11, 145080, Note_on_c, 10, 59, 83
11, 145142, Note_on_c, 10, 59, 0
11, 145201, Note_on_c, 10, 56, 88
11, 145260, Note_on_c, 10, 56, 0
11, 145317, Note_on_c, 10, 59, 80
11, 145379, Note_on_c, 10, 59, 0
11, 145443, Note_on_c, 10, 64, 88
11, 145503, Note_on_c, 10, 64, 0
11, 145562, Note_on_c, 10, 59, 82
11, 145626, Note_on_c, 10, 59, 0
11, 145681, Note_on_c, 10, 56, 86
11, 145741, Note_on_c, 10, 56, 0
11, 145801, Note_on_c, 10, 59, 88
11, 145861, Note_on_c, 10, 59, 0
11, 145922, Note_on_c, 10, 52, 83
11, 146195, Note_on_c, 10, 52, 0
11, 147000, Note_on_c, 10, 60, 84
11, 147060, Note_on_c, 10, 60, 0
11, 147118, Note_on_c, 10, 57, 84
11, 147177, Note_on_c, 10, 57, 0
11, 147239, Note_on_c, 10, 60, 82
11, 147301, Note_on_c, 10, 60, 0
11, 147360, Note_on_c, 10, 64, 84
11, 147419, Note_on_c, 10, 64, 0
11, 147479, Note_on_c, 10, 60, 84
11, 147542, Note_on_c, 10, 60, 0
11, 147597, Note_on_c, 10, 57, 84
11, 147658, Note_on_c, 10, 57, 0
11, 147722, Note_on_c, 10, 60, 85
11, 147784, Note_on_c, 10, 60, 0
11, 147840, Note_on_c, 10, 52, 88
11, 148113, Note_on_c, 10, 52, 0
11, 148920, Note_on_c, 10, 64, 82
11, 148980, Note_on_c, 10, 64, 0
11, 149041, Note_on_c, 10, 60, 81
11, 149104, Note_on_c, 10, 60, 0
11, 149157, Note_on_c, 10, 64, 81
11, 149217, Note_on_c, 10, 64, 0
11, 149277, Note_on_c, 10, 67, 80
11, 149338, Note_on_c, 10, 67, 0
11, 149398, Note_on_c, 10, 64, 81
11, 149459, Note_on_c, 10, 64, 0
11, 149523, Note_on_c, 10, 60, 86
11, 149583, Note_on_c, 10, 60, 0
11, 149640, Note_on_c, 10, 64, 85
11, 149699, Note_on_c, 10, 64, 0
11, 149758, Note_on_c, 10, 55, 83
11, 150029, Note_on_c, 10, 55, 0
11, 150837, Note_on_c, 10, 64, 87
11, 150897, Note_on_c, 10, 64, 0
11, 150963, Note_on_c, 10, 60, 84
11, 151024, Note_on_c, 10, 60, 0
11, 151080, Note_on_c, 10, 64, 81
11, 151145, Note_on_c, 10, 64, 0
11, 151198, Note_on_c, 10, 67, 80
11, 151260, Note_on_c, 10, 67, 0
11, 151322, Note_on_c, 10, 64, 88
11, 151381, Note_on_c, 10, 64, 0
11, 151440, Note_on_c, 10, 60, 88
11, 151504, Note_on_c, 10, 60, 0
11, 151558, Note_on_c, 10, 64, 86
11, 151619, Note_on_c, 10, 64, 0
11, 151683, Note_on_c, 10, 55, 83
11, 151954, Note_on_c, 10, 55, 0
11, 152762, Note_on_c, 10, 66, 81
11, 152824, Note_on_c, 10, 66, 0
11, 152880, Note_on_c, 10, 63, 87
11, 152942, Note_on_c, 10, 63, 0
11, 153000, Note_on_c, 10, 66, 85
11, 153062, Note_on_c, 10, 66, 0
11, 153121, Note_on_c, 10, 71, 80
11, 153183, Note_on_c, 10, 71, 0
11, 153237, Note_on_c, 10, 66, 84
11, 153301, Note_on_c, 10, 66, 0
11, 153360, Note_on_c, 10, 63, 81
11, 153420, Note_on_c, 10, 63, 0
11, 153481, Note_on_c, 10, 66, 84
11, 153540, Note_on_c, 10, 66, 0
11, 153599, Note_on_c, 10, 57, 85
11, 153873, Note_on_c, 10, 57, 0
11, 154682, Note_on_c, 10, 61, 84
11, 154747, Note_on_c, 10, 61, 0
11, 154801, Note_on_c, 10, 57, 81
11, 154860, Note_on_c, 10, 57, 0
11, 154920, Note_on_c, 10, 61, 85
11, 154981, Note_on_c, 10, 61, 0
11, 155039, Note_on_c, 10, 64, 84
11, 155099, Note_on_c, 10, 64, 0
11, 155162, Note_on_c, 10, 60, 84
11, 155221, Note_on_c, 10, 60, 0
11, 155279, Note_on_c, 10, 57, 81
11, 155342, Note_on_c, 10, 57, 0
11, 155398, Note_on_c, 10, 60, 81
11, 155463, Note_on_c, 10, 60, 0
11, 155520, Note_on_c, 10, 52, 84
11, 155790, Note_on_c, 10, 52, 0
11, 156601, Note_on_c, 10, 59, 83
11, 156666, Note_on_c, 10, 59, 0
11, 156720, Note_on_c, 10, 56, 84
11, 156780, Note_on_c, 10, 56, 0
11, 156839, Note_on_c, 10, 59, 88
11, 156902, Note_on_c, 10, 59, 0
11, 156963, Note_on_c, 10, 64, 81
11, 157023, Note_on_c, 10, 64, 0
11, 157078, Note_on_c, 10, 60, 88
11, 157140, Note_on_c, 10, 60, 0
11, 157201, Note_on_c, 10, 57, 85
11, 157266, Note_on_c, 10, 57, 0
11, 157320, Note_on_c, 10, 60, 80
11, 157382, Note_on_c, 10, 60, 0
11, 157438, Note_on_c, 10, 52, 80
11, 157712, Note_on_c, 10, 52, 0
11, 158520, Note_on_c, 10, 60, 87
11, 158584, Note_on_c, 10, 60, 0
11, 158640, Note_on_c, 10, 57, 84
11, 158699, Note_on_c, 10, 57, 0
11, 158758, Note_on_c, 10, 60, 85
11, 158818, Note_on_c, 10, 60, 0
11, 158881, Note_on_c, 10, 64, 80
11, 158944, Note_on_c, 10, 64, 0
11, 159003, Note_on_c, 10, 60, 85
11, 159065, Note_on_c, 10, 60, 0
11, 159120, Note_on_c, 10, 57, 85
11, 159182, Note_on_c, 10, 57, 0
11, 159240, Note_on_c, 10, 60, 88
11, 159301, Note_on_c, 10, 60, 0
11, 159357, Note_on_c, 10, 52, 80
11, 159626, Note_on_c, 10, 52, 0
11, 160438, Note_on_c, 10, 66, 86
11, 160498, Note_on_c, 10, 66, 0
11, 160558, Note_on_c, 10, 63, 81
11, 160620, Note_on_c, 10, 63, 0
11, 160683, Note_on_c, 10, 66, 88
11, 160742, Note_on_c, 10, 66, 0
11, 160798, Note_on_c, 10, 71, 81
11, 160861, Note_on_c, 10, 71, 0
11, 160921, Note_on_c, 10, 66, 85
11, 160980, Note_on_c, 10, 66, 0
11, 161042, Note_on_c, 10, 63, 84
11, 161106, Note_on_c, 10, 63, 0
11, 161160, Note_on_c, 10, 66, 87
11, 161224, Note_on_c, 10, 66, 0
11, 161278, Note_on_c, 10, 57, 80
11, 161550, Note_on_c, 10, 57, 0
11, 162357, Note_on_c, 10, 61, 80
11, 162419, Note_on_c, 10, 61, 0
11, 162481, Note_on_c, 10, 57, 86
11, 162545, Note_on_c, 10, 57, 0
11, 162603, Note_on_c, 10, 61, 83
11, 162664, Note_on_c, 10, 61, 0
11, 162720, Note_on_c, 10, 64, 85
11, 162780, Note_on_c, 10, 64, 0
11, 162837, Note_on_c, 10, 60, 84
11, 162901, Note_on_c, 10, 60, 0
11, 162962, Note_on_c, 10, 57, 85
11, 163023, Note_on_c, 10, 57, 0
11, 163077, Note_on_c, 10, 60, 86
11, 163141, Note_on_c, 10, 60, 0
11, 163200, Note_on_c, 10, 52, 83
11, 163472, Note_on_c, 10, 52, 0
11, 164280, Note_on_c, 10, 59, 83
11, 164342, Note_on_c, 10, 59, 0
11, 164399, Note_on_c, 10, 56, 82
11, 164461, Note_on_c, 10, 56, 0
11, 164519, Note_on_c, 10, 59, 88
11, 164582, Note_on_c, 10, 59, 0
11, 164639, Note_on_c, 10, 64, 85
11, 164701, Note_on_c, 10, 64, 0
11, 164761, Note_on_c, 10, 60, 86
11, 164823, Note_on_c, 10, 60, 0
11, 164879, Note_on_c, 10, 57, 88
11, 164939, Note_on_c, 10, 57, 0
11, 164998, Note_on_c, 10, 60, 84
11, 165062, Note_on_c, 10, 60, 0
11, 165117, Note_on_c, 10, 52, 87
11, 165390, Note_on_c, 10, 52, 0
11, 166198, Note_on_c, 10, 64, 83
11, 166260, Note_on_c, 10, 64, 0
11, 166320, Note_on_c, 10, 61, 87
11, 166382, Note_on_c, 10, 61, 0
11, 166440, Note_on_c, 10, 64, 82
11, 166502, Note_on_c, 10, 64, 0
11, 166559, Note_on_c, 10, 67, 81
11, 166623, Note_on_c, 10, 67, 0
11, 166680, Note_on_c, 10, 64, 87
11, 166745, Note_on_c, 10, 64, 0
11, 166797, Note_on_c, 10, 61, 84
11, 166856, Note_on_c, 10, 61, 0
11, 166918, Note_on_c, 10, 64, 88
11, 166979, Note_on_c, 10, 64, 0
11, 167042, Note_on_c, 10, 55, 78
11, 167311, Note_on_c, 10, 55, 0
11, 168122, Note_on_c, 10, 53, 76
11, 168186, Note_on_c, 10, 53, 0
11, 168239, Note_on_c, 10, 50, 78
11, 168303, Note_on_c, 10, 50, 0
11, 168360, Note_on_c, 10, 53, 79
11, 168418, Note_on_c, 10, 53, 0
11, 168482, Note_on_c, 10, 57, 82
11, 168546, Note_on_c, 10, 57, 0
11, 168598, Note_on_c, 10, 53, 76
11, 168661, Note_on_c, 10, 53, 0
11, 168717, Note_on_c, 10, 50, 83
11, 168777, Note_on_c, 10, 50, 0
11, 168842, Note_on_c, 10, 62, 82
11, 168904, Note_on_c, 10, 62, 0
11, 168960, Note_on_c, 10, 56, 84
11, 169227, Note_on_c, 10, 56, 0
11, 170038, Note_on_c, 10, 64, 81
11, 170100, Note_on_c, 10, 64, 0
11, 170159, Note_on_c, 10, 61, 79
11, 170225, Note_on_c, 10, 61, 0
11, 170280, Note_on_c, 10, 64, 83
11, 170340, Note_on_c, 10, 64, 0
11, 170400, Note_on_c, 10, 67, 84
11, 170462, Note_on_c, 10, 67, 0
11, 170521, Note_on_c, 10, 64, 82
11, 170585, Note_on_c, 10, 64, 0
11, 170638, Note_on_c, 10, 61, 84
11, 170695, Note_on_c, 10, 61, 0
11, 170757, Note_on_c, 10, 64, 81
11, 170819, Note_on_c, 10, 64, 0
11, 170877, Note_on_c, 10, 55, 83
11, 171145, Note_on_c, 10, 55, 0
11, 171962, Note_on_c, 10, 53, 80
11, 172026, Note_on_c, 10, 53, 0
11, 172083, Note_on_c, 10, 50, 81
11, 172147, Note_on_c, 10, 50, 0
11, 172202, Note_on_c, 10, 53, 83
11, 172264, Note_on_c, 10, 53, 0
11, 172322, Note_on_c, 10, 57, 86
11, 172385, Note_on_c, 10, 57, 0
11, 172436, Note_on_c, 10, 53, 85
11, 172497, Note_on_c, 10, 53, 0
11, 172561, Note_on_c, 10, 50, 84
11, 172618, Note_on_c, 10, 50, 0
11, 172678, Note_on_c, 10, 62, 83
11, 172740, Note_on_c, 10, 62, 0
11, 172800, Note_on_c, 10, 56, 86
11, 173069, Note_on_c, 10, 56, 0
11, 173877, Note_on_c, 10, 64, 92
11, 173943, Note_on_c, 10, 64, 0
11, 174002, Note_on_c, 10, 61, 81
11, 174064, Note_on_c, 10, 61, 0
11, 174118, Note_on_c, 10, 64, 83
11, 174178, Note_on_c, 10, 64, 0
11, 174237, Note_on_c, 10, 67, 76
11, 174299, Note_on_c, 10, 67, 0
11, 174360, Note_on_c, 10, 64, 78
11, 174423, Note_on_c, 10, 64, 0
11, 174479, Note_on_c, 10, 61, 78
11, 174538, Note_on_c, 10, 61, 0
11, 174597, Note_on_c, 10, 55, 74
11, 174664, Note_on_c, 10, 55, 0
11, 174723, Note_on_c, 10, 56, 74
11, 174990, Note_on_c, 10, 56, 0
11, 183362, Note_on_c, 10, 60, 64
11, 183424, Note_on_c, 10, 60, 0
11, 183480, Note_on_c, 10, 62, 60
11, 183544, Note_on_c, 10, 62, 0
11, 183603, Note_on_c, 10, 64, 62
11, 183670, Note_on_c, 10, 64, 0
11, 183720, Note_on_c, 10, 62, 65
11, 183779, Note_on_c, 10, 62, 0
11, 183838, Note_on_c, 10, 60, 60
11, 183900, Note_on_c, 10, 60, 0
11, 183959, Note_on_c, 10, 62, 55
11, 184022, Note_on_c, 10, 62, 0
11, 184079, Note_on_c, 10, 60, 55
11, 184141, Note_on_c, 10, 60, 0
11, 184203, Note_on_c, 10, 59, 60
11, 184262, Note_on_c, 10, 59, 0
11, 184321, Note_on_c, 10, 57, 60
11, 184379, Note_on_c, 10, 57, 0
11, 184439, Note_on_c, 10, 59, 62
11, 184501, Note_on_c, 10, 59, 0
11, 184562, Note_on_c, 10, 60, 61
11, 184626, Note_on_c, 10, 60, 0
11, 184679, Note_on_c, 10, 62, 65
11, 184737, Note_on_c, 10, 62, 0
11, 184797, Note_on_c, 10, 64, 57
11, 184859, Note_on_c, 10, 64, 0
11, 184917, Note_on_c, 10, 66, 56
11, 184978, Note_on_c, 10, 66, 0
11, 185039, Note_on_c, 10, 68, 57
11, 185100, Note_on_c, 10, 68, 0
11, 185159, Note_on_c, 10, 69, 55
11, 185221, Note_on_c, 10, 69, 0
11, 185280, Note_on_c, 10, 68, 62
11, 185343, Note_on_c, 10, 68, 0
11, 185398, Note_on_c, 10, 64, 63
11, 185461, Note_on_c, 10, 64, 0
11, 185520, Note_on_c, 10, 66, 59
11, 185588, Note_on_c, 10, 66, 0
11, 185642, Note_on_c, 10, 68, 57
11, 185701, Note_on_c, 10, 68, 0
11, 185761, Note_on_c, 10, 69, 55
11, 185826, Note_on_c, 10, 69, 0
11, 185880, Note_on_c, 10, 71, 59
11, 185942, Note_on_c, 10, 71, 0
11, 185997, Note_on_c, 10, 69, 60
11, 186061, Note_on_c, 10, 69, 0
11, 186121, Note_on_c, 10, 67, 63
11, 186180, Note_on_c, 10, 67, 0
11, 186237, Note_on_c, 10, 66, 59
11, 186296, Note_on_c, 10, 66, 0
11, 186357, Note_on_c, 10, 66, 60
11, 186421, Note_on_c, 10, 66, 0
11, 186480, Note_on_c, 10, 67, 60
11, 186544, Note_on_c, 10, 67, 0
11, 186597, Note_on_c, 10, 69, 63
11, 186654, Note_on_c, 10, 69, 0
11, 186719, Note_on_c, 10, 71, 58
11, 186779, Note_on_c, 10, 71, 0
11, 186841, Note_on_c, 10, 59, 65
11, 186902, Note_on_c, 10, 59, 0
11, 186960, Note_on_c, 10, 61, 65
11, 187026, Note_on_c, 10, 61, 0
11, 187082, Note_on_c, 10, 63, 55
11, 187139, Note_on_c, 10, 63, 0
11, 187197, Note_on_c, 10, 64, 62
11, 187648, Note_on_c, 10, 64, 0
11, 187681, Note_on_c, 10, 64, 62
11, 187775, Note_on_c, 10, 64, 0
11, 187917, Note_on_c, 10, 66, 62
11, 188007, Note_on_c, 10, 66, 0
11, 188157, Note_on_c, 10, 67, 57
11, 188606, Note_on_c, 10, 67, 0
11, 188640, Note_on_c, 10, 67, 62
11, 189092, Note_on_c, 10, 67, 0
11, 189120, Note_on_c, 10, 66, 63
11, 189574, Note_on_c, 10, 66, 0
11, 189598, Note_on_c, 10, 66, 59
11, 189689, Note_on_c, 10, 66, 0
11, 189842, Note_on_c, 10, 68, 60
11, 189935, Note_on_c, 10, 68, 0
11, 190083, Note_on_c, 10, 69, 63
11, 190176, Note_on_c, 10, 69, 0
11, 190320, Note_on_c, 10, 65, 62
11, 190408, Note_on_c, 10, 65, 0
11, 190561, Note_on_c, 10, 64, 65
11, 190653, Note_on_c, 10, 64, 0
11, 190799, Note_on_c, 10, 62, 63
11, 190893, Note_on_c, 10, 62, 0
11, 191040, Note_on_c, 10, 61, 60
11, 191098, Note_on_c, 10, 61, 0
11, 191160, Note_on_c, 10, 61, 64
11, 191218, Note_on_c, 10, 61, 0
11, 191277, Note_on_c, 10, 62, 62
11, 191341, Note_on_c, 10, 62, 0
11, 191398, Note_on_c, 10, 64, 57
11, 191458, Note_on_c, 10, 64, 0
11, 191517, Note_on_c, 10, 57, 60
11, 191577, Note_on_c, 10, 57, 0
11, 191637, Note_on_c, 10, 57, 58
11, 191700, Note_on_c, 10, 57, 0
11, 191757, Note_on_c, 10, 59, 61
11, 191822, Note_on_c, 10, 59, 0
11, 191880, Note_on_c, 10, 61, 60
11, 191939, Note_on_c, 10, 61, 0
11, 191998, Note_on_c, 10, 62, 56
11, 192090, Note_on_c, 10, 62, 0
11, 192237, Note_on_c, 10, 60, 56
11, 192329, Note_on_c, 10, 60, 0
11, 192477, Note_on_c, 10, 58, 63
11, 192565, Note_on_c, 10, 58, 0
11, 192720, Note_on_c, 10, 57, 62
11, 192814, Note_on_c, 10, 57, 0
11, 192961, Note_on_c, 10, 59, 62
11, 193020, Note_on_c, 10, 59, 0
11, 193082, Note_on_c, 10, 59, 63
11, 193147, Note_on_c, 10, 59, 0
11, 193197, Note_on_c, 10, 60, 60
11, 193265, Note_on_c, 10, 60, 0
11, 193322, Note_on_c, 10, 62, 63
11, 193386, Note_on_c, 10, 62, 0
11, 193442, Note_on_c, 10, 55, 61
11, 193500, Note_on_c, 10, 55, 0
11, 193562, Note_on_c, 10, 55, 60
11, 193625, Note_on_c, 10, 55, 0
11, 193682, Note_on_c, 10, 57, 60
11, 193745, Note_on_c, 10, 57, 0
11, 193800, Note_on_c, 10, 59, 60
11, 193861, Note_on_c, 10, 59, 0
11, 193918, Note_on_c, 10, 60, 57
11, 194367, Note_on_c, 10, 60, 0
11, 195600, Note_on_c, 10, 64, 62
11, 196051, Note_on_c, 10, 64, 0
11, 196081, Note_on_c, 10, 62, 65
11, 196531, Note_on_c, 10, 62, 0
11, 196561, Note_on_c, 10, 62, 55
11, 197016, Note_on_c, 10, 62, 0
11, 197038, Note_on_c, 10, 60, 65
11, 197486, Note_on_c, 10, 60, 0
11, 197520, Note_on_c, 10, 72, 63
11, 197730, Note_on_c, 10, 72, 0
11, 197760, Note_on_c, 10, 58, 58
11, 197822, Note_on_c, 10, 58, 0
11, 197882, Note_on_c, 10, 60, 64
11, 197940, Note_on_c, 10, 60, 0
11, 198000, Note_on_c, 10, 62, 65
11, 198065, Note_on_c, 10, 62, 0
11, 198121, Note_on_c, 10, 60, 61
11, 198178, Note_on_c, 10, 60, 0
11, 198237, Note_on_c, 10, 58, 57
11, 198298, Note_on_c, 10, 58, 0
11, 198360, Note_on_c, 10, 62, 60
11, 198422, Note_on_c, 10, 62, 0
11, 198478, Note_on_c, 10, 60, 55
11, 198544, Note_on_c, 10, 60, 0
11, 198601, Note_on_c, 10, 58, 65
11, 198662, Note_on_c, 10, 58, 0
11, 198717, Note_on_c, 10, 57, 60
11, 198782, Note_on_c, 10, 57, 0
11, 198839, Note_on_c, 10, 58, 60
11, 198900, Note_on_c, 10, 58, 0
11, 198963, Note_on_c, 10, 60, 65
11, 199031, Note_on_c, 10, 60, 0
11, 199080, Note_on_c, 10, 62, 62
11, 199141, Note_on_c, 10, 62, 0
11, 199198, Note_on_c, 10, 64, 55
11, 199258, Note_on_c, 10, 64, 0
11, 199319, Note_on_c, 10, 65, 59
11, 199378, Note_on_c, 10, 65, 0
11, 199437, Note_on_c, 10, 67, 56
11, 199500, Note_on_c, 10, 67, 0
11, 199559, Note_on_c, 10, 69, 60
11, 199619, Note_on_c, 10, 69, 0
11, 199682, Note_on_c, 10, 59, 59
11, 200132, Note_on_c, 10, 59, 0
11, 200160, Note_on_c, 10, 59, 55
11, 200255, Note_on_c, 10, 59, 0
11, 200399, Note_on_c, 10, 61, 61
11, 200491, Note_on_c, 10, 61, 0
11, 200637, Note_on_c, 10, 62, 57
11, 201088, Note_on_c, 10, 62, 0
11, 201117, Note_on_c, 10, 62, 63
11, 201569, Note_on_c, 10, 62, 0
11, 201597, Note_on_c, 10, 59, 62
11, 201597, Note_on_c, 10, 62, 57
11, 201600, Control_c, 10, 7, 100
11, 201658, Note_on_c, 10, 59, 0
11, 201658, Note_on_c, 10, 62, 0
11, 201717, Note_on_c, 10, 59, 65
11, 201717, Note_on_c, 10, 62, 64
11, 201778, Note_on_c, 10, 62, 0
11, 201780, Note_on_c, 10, 59, 0
11, 201837, Note_on_c, 10, 59, 60
11, 201837, Note_on_c, 10, 62, 67
11, 201840, Control_c, 10, 7, 101
11, 201901, Note_on_c, 10, 62, 0
11, 201902, Note_on_c, 10, 59, 0
11, 201957, Note_on_c, 10, 59, 66
11, 201957, Note_on_c, 10, 62, 63
11, 201960, Control_c, 10, 7, 102
11, 202020, Note_on_c, 10, 62, 0
11, 202021, Note_on_c, 10, 59, 0
11, 202077, Note_on_c, 10, 59, 63
11, 202077, Note_on_c, 10, 62, 66
11, 202080, Control_c, 10, 7, 103
11, 202139, Note_on_c, 10, 59, 0
11, 202142, Note_on_c, 10, 62, 0
11, 202197, Note_on_c, 10, 59, 67
11, 202197, Note_on_c, 10, 62, 72
11, 202200, Control_c, 10, 7, 104
11, 202261, Note_on_c, 10, 62, 0
11, 202262, Note_on_c, 10, 59, 0
11, 202317, Note_on_c, 10, 59, 77
11, 202317, Note_on_c, 10, 62, 68
11, 202320, Control_c, 10, 7, 105
11, 202379, Note_on_c, 10, 62, 0
11, 202381, Note_on_c, 10, 59, 0
11, 202437, Note_on_c, 10, 59, 78
11, 202437, Note_on_c, 10, 62, 71
11, 202440, Control_c, 10, 7, 106
11, 202496, Note_on_c, 10, 59, 0
11, 202500, Note_on_c, 10, 62, 0
11, 202557, Note_on_c, 10, 59, 73
11, 202557, Note_on_c, 10, 62, 77
11, 202619, Note_on_c, 10, 59, 0
11, 202619, Note_on_c, 10, 62, 0
11, 202677, Note_on_c, 10, 59, 78
11, 202677, Note_on_c, 10, 62, 77
11, 202680, Control_c, 10, 7, 107
11, 202740, Note_on_c, 10, 59, 0
11, 202741, Note_on_c, 10, 62, 0
11, 202797, Note_on_c, 10, 59, 76
11, 202797, Note_on_c, 10, 62, 77
11, 202800, Control_c, 10, 7, 108
11, 202860, Note_on_c, 10, 62, 0
11, 202865, Note_on_c, 10, 59, 0
11, 202917, Note_on_c, 10, 59, 84
11, 202917, Note_on_c, 10, 62, 83
11, 202920, Control_c, 10, 7, 109
11, 202978, Note_on_c, 10, 62, 0
11, 202979, Note_on_c, 10, 59, 0
11, 203037, Note_on_c, 10, 59, 84
11, 203037, Note_on_c, 10, 62, 87
11, 203040, Control_c, 10, 7, 110
11, 203098, Note_on_c, 10, 62, 0
11, 203099, Note_on_c, 10, 59, 0
11, 203157, Note_on_c, 10, 59, 86
11, 203157, Note_on_c, 10, 62, 87
11, 203160, Control_c, 10, 7, 111
11, 203215, Note_on_c, 10, 59, 0
11, 203221, Note_on_c, 10, 62, 0
11, 203277, Note_on_c, 10, 59, 91
11, 203277, Note_on_c, 10, 62, 85
11, 203280, Control_c, 10, 7, 112
11, 203340, Note_on_c, 10, 62, 0
11, 203345, Note_on_c, 10, 59, 0
11, 203397, Note_on_c, 10, 59, 96
11, 203397, Note_on_c, 10, 62, 91
11, 203400, Control_c, 10, 7, 113
11, 203455, Note_on_c, 10, 62, 0
11, 203456, Note_on_c, 10, 59, 0
11, 203517, Note_on_c, 10, 59, 91
11, 203517, Note_on_c, 10, 62, 94
11, 203579, Note_on_c, 10, 62, 0
11, 203582, Note_on_c, 10, 59, 0
11, 203637, Note_on_c, 10, 59, 100
11, 203637, Note_on_c, 10, 62, 95
11, 203640, Control_c, 10, 7, 114
11, 203695, Note_on_c, 10, 62, 0
11, 203702, Note_on_c, 10, 59, 0
11, 203757, Note_on_c, 10, 59, 100
11, 203757, Note_on_c, 10, 62, 101
11, 203760, Control_c, 10, 7, 115
11, 203823, Note_on_c, 10, 59, 0
11, 203825, Note_on_c, 10, 62, 0
11, 203877, Note_on_c, 10, 59, 102
11, 203877, Note_on_c, 10, 62, 103
11, 203880, Control_c, 10, 7, 116
11, 203938, Note_on_c, 10, 59, 0
11, 203939, Note_on_c, 10, 62, 0
11, 203997, Note_on_c, 10, 59, 99
11, 203997, Note_on_c, 10, 62, 106
11, 204000, Control_c, 10, 7, 117
11, 204057, Note_on_c, 10, 59, 0
11, 204061, Note_on_c, 10, 62, 0
11, 204117, Note_on_c, 10, 59, 106
11, 204117, Note_on_c, 10, 62, 105
11, 204120, Control_c, 10, 7, 118
11, 204175, Note_on_c, 10, 62, 0
11, 204181, Note_on_c, 10, 59, 0
11, 204237, Note_on_c, 10, 59, 110
11, 204237, Note_on_c, 10, 62, 111
11, 204240, Control_c, 10, 7, 119
11, 204300, Note_on_c, 10, 59, 0
11, 204301, Note_on_c, 10, 62, 0
11, 204357, Note_on_c, 10, 59, 111
11, 204357, Note_on_c, 10, 62, 103
11, 204360, Control_c, 10, 7, 120
11, 204418, Note_on_c, 10, 62, 0
11, 204419, Note_on_c, 10, 59, 0
11, 204477, Note_on_c, 10, 59, 115
11, 204477, Note_on_c, 10, 62, 111
11, 204538, Note_on_c, 10, 59, 0
11, 204540, Note_on_c, 10, 62, 0
11, 204597, Note_on_c, 10, 59, 115
11, 204600, Control_c, 10, 7, 121
11, 204657, Note_on_c, 10, 59, 0
11, 204717, Note_on_c, 10, 59, 116
11, 204720, Control_c, 10, 7, 122
11, 204786, Note_on_c, 10, 59, 0
11, 204837, Note_on_c, 10, 59, 115
11, 204840, Control_c, 10, 7, 123
11, 204900, Note_on_c, 10, 59, 0
11, 204957, Note_on_c, 10, 59, 116
11, 204960, Control_c, 10, 7, 124
11, 205015, Note_on_c, 10, 59, 0
11, 205077, Note_on_c, 10, 59, 113
11, 205080, Control_c, 10, 7, 125
11, 205136, Note_on_c, 10, 59, 0
11, 205197, Note_on_c, 10, 64, 117
11, 205200, Control_c, 10, 7, 126
11, 205263, Note_on_c, 10, 64, 0
11, 205317, Note_on_c, 10, 62, 114
11, 205376, Note_on_c, 10, 62, 0
11, 205437, Note_on_c, 10, 52, 108
11, 205437, Note_on_c, 10, 60, 107
11, 205887, Note_on_c, 10, 52, 0
11, 205888, Note_on_c, 10, 60, 0
11, 205917, Note_on_c, 10, 52, 114
11, 205917, Note_on_c, 10, 60, 111
11, 205997, Note_on_c, 10, 52, 0
11, 206011, Note_on_c, 10, 60, 0
11, 206157, Note_on_c, 10, 52, 112
11, 206157, Note_on_c, 10, 60, 106
11, 206250, Note_on_c, 10, 60, 0
11, 206283, Note_on_c, 10, 52, 0
11, 206397, Note_on_c, 10, 52, 112
11, 206402, Note_on_c, 10, 59, 106
11, 206792, Note_on_c, 10, 52, 0
11, 206801, Note_on_c, 10, 59, 0
11, 206878, Note_on_c, 10, 52, 112
11, 206880, Note_on_c, 10, 59, 108
11, 207272, Note_on_c, 10, 59, 0
11, 207273, Note_on_c, 10, 52, 0
11, 207357, Note_on_c, 10, 59, 110
11, 207358, Note_on_c, 10, 52, 110
11, 207784, Note_on_c, 10, 59, 0
11, 207785, Note_on_c, 10, 52, 0
11, 207837, Note_on_c, 10, 52, 110
11, 207837, Note_on_c, 10, 59, 107
11, 207915, Note_on_c, 10, 52, 0
11, 207937, Note_on_c, 10, 59, 0
11, 208078, Note_on_c, 10, 59, 114
11, 208082, Note_on_c, 10, 52, 114
11, 208166, Note_on_c, 10, 52, 0
11, 208184, Note_on_c, 10, 59, 0
11, 208319, Note_on_c, 10, 60, 113
11, 208322, Note_on_c, 10, 52, 114
11, 208724, Note_on_c, 10, 60, 0
11, 208736, Note_on_c, 10, 52, 0
11, 208798, Note_on_c, 10, 52, 114
11, 208800, Note_on_c, 10, 60, 108
11, 209218, Note_on_c, 10, 52, 0
11, 209218, Note_on_c, 10, 60, 0
11, 209280, Note_on_c, 10, 52, 112
11, 209280, Note_on_c, 10, 60, 108
11, 209690, Note_on_c, 10, 52, 0
11, 209691, Note_on_c, 10, 60, 0
11, 209757, Note_on_c, 10, 60, 107
11, 209759, Note_on_c, 10, 52, 112
11, 209858, Note_on_c, 10, 52, 0
11, 209870, Note_on_c, 10, 60, 0
11, 210000, Note_on_c, 10, 52, 111
11, 210000, Note_on_c, 10, 60, 113
11, 210104, Note_on_c, 10, 52, 0
11, 210125, Note_on_c, 10, 60, 0
11, 210238, Note_on_c, 10, 62, 106
11, 210240, Note_on_c, 10, 52, 111
11, 210649, Note_on_c, 10, 62, 0
11, 210652, Note_on_c, 10, 52, 0
11, 210718, Note_on_c, 10, 60, 106
11, 210719, Note_on_c, 10, 52, 113
11, 211119, Note_on_c, 10, 60, 0
11, 211123, Note_on_c, 10, 52, 0
11, 211197, Note_on_c, 10, 59, 110
11, 211202, Note_on_c, 10, 52, 106
11, 211597, Note_on_c, 10, 59, 0
11, 211632, Note_on_c, 10, 52, 0
11, 211679, Note_on_c, 10, 52, 109
11, 211679, Note_on_c, 10, 57, 110
11, 211767, Note_on_c, 10, 57, 0
11, 211769, Note_on_c, 10, 52, 0
11, 211918, Note_on_c, 10, 52, 114
11, 211923, Note_on_c, 10, 59, 110
11, 212022, Note_on_c, 10, 52, 0
11, 212029, Note_on_c, 10, 59, 0
11, 212157, Note_on_c, 10, 52, 110
11, 212157, Note_on_c, 10, 60, 110
11, 212602, Note_on_c, 10, 60, 0
11, 212606, Note_on_c, 10, 52, 0
11, 212640, Control_c, 10, 7, 100
11, 215998, Note_on_c, 10, 52, 55
11, 216001, Note_on_c, 10, 49, 60
11, 217882, Note_on_c, 10, 52, 0
11, 217883, Note_on_c, 10, 49, 0
11, 217918, Note_on_c, 10, 54, 59
11, 217920, Note_on_c, 10, 50, 54
11, 219358, Note_on_c, 10, 49, 60
11, 219362, Note_on_c, 10, 52, 59
11, 219412, Note_on_c, 10, 50, 0
11, 219415, Note_on_c, 10, 54, 0
11, 219600, Note_on_c, 10, 61, 63
11, 219656, Note_on_c, 10, 49, 0
11, 219658, Note_on_c, 10, 52, 0
11, 219801, Note_on_c, 10, 61, 0
11, 219838, Note_on_c, 10, 59, 54
11, 219841, Note_on_c, 10, 62, 55
11, 220318, Note_on_c, 10, 57, 58
11, 220322, Note_on_c, 10, 61, 63
11, 220370, Note_on_c, 10, 59, 0
11, 220378, Note_on_c, 10, 62, 0
11, 220558, Note_on_c, 10, 52, 61
11, 220560, Note_on_c, 10, 49, 58
11, 220613, Note_on_c, 10, 57, 0
11, 220617, Note_on_c, 10, 61, 0
11, 220799, Note_on_c, 10, 54, 56
11, 220800, Note_on_c, 10, 50, 59
11, 220855, Note_on_c, 10, 52, 0
11, 220856, Note_on_c, 10, 49, 0
11, 221278, Note_on_c, 10, 52, 56
11, 221336, Note_on_c, 10, 54, 0
11, 221338, Note_on_c, 10, 50, 0
11, 221759, Note_on_c, 10, 54, 63
11, 221807, Note_on_c, 10, 52, 0
11, 222240, Note_on_c, 10, 56, 59
11, 222292, Note_on_c, 10, 54, 0
11, 222685, Note_on_c, 10, 56, 0
11, 222721, Note_on_c, 10, 56, 59
11, 223200, Note_on_c, 10, 52, 64
11, 223259, Note_on_c, 10, 56, 0
11, 223404, Note_on_c, 10, 52, 0
11, 223440, Note_on_c, 10, 52, 63
11, 223642, Note_on_c, 10, 52, 0
11, 223682, Note_on_c, 10, 52, 63
11, 224160, Note_on_c, 10, 49, 56
11, 224217, Note_on_c, 10, 52, 0
11, 226080, Note_on_c, 10, 50, 59
11, 226131, Note_on_c, 10, 49, 0
11, 227040, Note_on_c, 10, 52, 55
11, 227089, Note_on_c, 10, 50, 0
11, 227486, Note_on_c, 10, 52, 0
11, 227522, Note_on_c, 10, 54, 58
11, 227998, Note_on_c, 10, 52, 61
11, 228055, Note_on_c, 10, 54, 0
11, 228479, Note_on_c, 10, 54, 56
11, 228537, Note_on_c, 10, 52, 0
11, 228961, Note_on_c, 10, 56, 59
11, 229014, Note_on_c, 10, 54, 0
11, 229438, Note_on_c, 10, 52, 59
11, 229497, Note_on_c, 10, 56, 0
11, 230398, Note_on_c, 10, 54, 60
11, 230452, Note_on_c, 10, 52, 0
11, 230878, Note_on_c, 10, 56, 60
11, 230907, Note_on_c, 10, 54, 0
11, 231361, Note_on_c, 10, 52, 55
11, 231381, Note_on_c, 10, 56, 0
11, 232321, Note_on_c, 10, 54, 65
11, 232404, Note_on_c, 10, 52, 0
11, 232825, Note_on_c, 10, 54, 0
11, 233281, Note_on_c, 10, 52, 64
11, 234241, Note_on_c, 10, 57, 61
11, 234327, Note_on_c, 10, 52, 0
11, 235200, Note_on_c, 10, 55, 60
11, 235286, Note_on_c, 10, 57, 0
11, 236159, Note_on_c, 10, 53, 58
11, 236248, Note_on_c, 10, 55, 0
11, 237084, Note_on_c, 10, 53, 0
11, 237122, Note_on_c, 10, 55, 98
11, 237388, Note_on_c, 10, 55, 0
11, 237599, Note_on_c, 10, 55, 98
11, 237600, Note_on_c, 10, 67, 98
11, 237864, Note_on_c, 10, 67, 0
11, 237868, Note_on_c, 10, 55, 0
11, 238078, Note_on_c, 10, 60, 95
11, 238080, Note_on_c, 10, 48, 98
11, 238610, Note_on_c, 10, 60, 0
11, 238615, Note_on_c, 10, 48, 0
11, 239042, Note_on_c, 10, 59, 59
11, 239512, Note_on_c, 10, 59, 0
11, 239522, Note_on_c, 10, 59, 56
11, 239633, Note_on_c, 10, 59, 0
11, 239756, Note_on_c, 10, 59, 60
11, 239868, Note_on_c, 10, 59, 0
11, 240002, Note_on_c, 10, 57, 59
11, 240413, Note_on_c, 10, 57, 0
11, 240962, Note_on_c, 10, 55, 97
11, 241254, Note_on_c, 10, 55, 0
11, 241437, Note_on_c, 10, 55, 101
11, 241439, Note_on_c, 10, 67, 100
11, 241725, Note_on_c, 10, 55, 0
11, 241728, Note_on_c, 10, 67, 0
11, 241916, Note_on_c, 10, 60, 98
11, 241923, Note_on_c, 10, 48, 96
11, 242417, Note_on_c, 10, 60, 0
11, 242423, Note_on_c, 10, 48, 0
11, 242877, Note_on_c, 10, 59, 60
11, 243348, Note_on_c, 10, 59, 0
11, 243356, Note_on_c, 10, 59, 58
11, 243462, Note_on_c, 10, 59, 0
11, 243599, Note_on_c, 10, 59, 56
11, 243709, Note_on_c, 10, 59, 0
11, 244320, Program_c, 10, 45
11, 245280, Note_on_c, 10, 57, 54
11, 245749, Note_on_c, 10, 57, 0
11, 246240, Note_on_c, 10, 52, 49
11, 246709, Note_on_c, 10, 52, 0
11, 247198, Note_on_c, 10, 52, 48
11, 247666, Note_on_c, 10, 52, 0
11, 248159, Note_on_c, 10, 57, 54
11, 248626, Note_on_c, 10, 57, 0
11, 249118, Note_on_c, 10, 57, 53
11, 249590, Note_on_c, 10, 57, 0
11, 250077, Note_on_c, 10, 55, 51
11, 250548, Note_on_c, 10, 55, 0
11, 250562, Note_on_c, 10, 55, 45
11, 251033, Note_on_c, 10, 55, 0
11, 251041, Note_on_c, 10, 55, 44
11, 251270, Note_on_c, 10, 55, 0
11, 251280, Note_on_c, 10, 55, 54
11, 251508, Note_on_c, 10, 55, 0
11, 251523, Note_on_c, 10, 55, 52
11, 251990, Note_on_c, 10, 55, 0
11, 252959, Note_on_c, 10, 60, 48
11, 253431, Note_on_c, 10, 60, 0
11, 253917, Note_on_c, 10, 59, 46
11, 254387, Note_on_c, 10, 59, 0
11, 254879, Note_on_c, 10, 64, 48
11, 255350, Note_on_c, 10, 64, 0
11, 255841, Note_on_c, 10, 57, 52
11, 256309, Note_on_c, 10, 57, 0
11, 256800, Note_on_c, 10, 52, 45
11, 257266, Note_on_c, 10, 52, 0
11, 257283, Note_on_c, 10, 52, 50
11, 257750, Note_on_c, 10, 52, 0
11, 257760, Note_on_c, 10, 52, 50
11, 258226, Note_on_c, 10, 52, 0
11, 258236, Note_on_c, 10, 52, 52
11, 258705, Note_on_c, 10, 52, 0
11, 258723, Note_on_c, 10, 52, 48
11, 258954, Note_on_c, 10, 52, 0
11, 258963, Note_on_c, 10, 52, 47
11, 259194, Note_on_c, 10, 52, 0
11, 259202, Note_on_c, 10, 52, 47
11, 259674, Note_on_c, 10, 52, 0
11, 262078, Note_on_c, 10, 52, 49
11, 262545, Note_on_c, 10, 52, 0
11, 262557, Note_on_c, 10, 52, 50
11, 262787, Note_on_c, 10, 52, 0
11, 262797, Note_on_c, 10, 52, 44
11, 263028, Note_on_c, 10, 52, 0
11, 263043, Note_on_c, 10, 52, 48
11, 263512, Note_on_c, 10, 52, 0
11, 263516, Note_on_c, 10, 54, 49
11, 263744, Note_on_c, 10, 54, 0
11, 263762, Note_on_c, 10, 56, 47
11, 263988, Note_on_c, 10, 56, 0
11, 264000, Note_on_c, 10, 57, 54
11, 264469, Note_on_c, 10, 57, 0
11, 264600, Program_c, 10, 48
11, 264959, Note_on_c, 10, 57, 46
11, 265430, Note_on_c, 10, 57, 0
11, 265430, End_track
12, 0, Start_track
12, 0, Channel_prefix, 11
12, 0, Title_t, "Cello I "
12, 0, Instrument_name_t, "Violoncello I"
12, 2880, Program_c, 11, 48
12, 2882, Note_on_c, 11, 48, 61
12, 3329, Note_on_c, 11, 48, 0
12, 3359, Note_on_c, 11, 48, 63
12, 3461, Note_on_c, 11, 48, 0
12, 3600, Note_on_c, 11, 48, 60
12, 3719, Note_on_c, 11, 48, 0
12, 3841, Note_on_c, 11, 47, 60
12, 4203, Note_on_c, 11, 47, 0
12, 4320, Note_on_c, 11, 47, 63
12, 4722, Note_on_c, 11, 47, 0
12, 4804, Note_on_c, 11, 47, 65
12, 5210, Note_on_c, 11, 47, 0
12, 5278, Note_on_c, 11, 47, 66
12, 5393, Note_on_c, 11, 47, 0
12, 5517, Note_on_c, 11, 47, 61
12, 5645, Note_on_c, 11, 47, 0
12, 5757, Note_on_c, 11, 48, 58
12, 6147, Note_on_c, 11, 48, 0
12, 6241, Note_on_c, 11, 48, 61
12, 6601, Note_on_c, 11, 48, 0
12, 6718, Note_on_c, 11, 48, 64
12, 7128, Note_on_c, 11, 48, 0
12, 7202, Note_on_c, 11, 48, 68
12, 7322, Note_on_c, 11, 48, 0
12, 7440, Note_on_c, 11, 48, 70
12, 7576, Note_on_c, 11, 48, 0
12, 7680, Note_on_c, 11, 48, 64
12, 8068, Note_on_c, 11, 48, 0
12, 8161, Note_on_c, 11, 48, 69
12, 8529, Note_on_c, 11, 48, 0
12, 8636, Note_on_c, 11, 47, 71
12, 9063, Note_on_c, 11, 47, 0
12, 9120, Note_on_c, 11, 45, 71
12, 9261, Note_on_c, 11, 45, 0
12, 9364, Note_on_c, 11, 47, 59
12, 9514, Note_on_c, 11, 47, 0
12, 9603, Note_on_c, 11, 48, 64
12, 10150, Note_on_c, 11, 48, 0
12, 10557, Note_on_c, 11, 52, 68
12, 10994, Note_on_c, 11, 52, 0
12, 11038, Note_on_c, 11, 52, 69
12, 11133, Note_on_c, 11, 52, 0
12, 11275, Note_on_c, 11, 52, 61
12, 11409, Note_on_c, 11, 52, 0
12, 11519, Note_on_c, 11, 51, 65
12, 11930, Note_on_c, 11, 51, 0
12, 11999, Note_on_c, 11, 51, 63
12, 12400, Note_on_c, 11, 51, 0
12, 12477, Note_on_c, 11, 50, 61
12, 12882, Note_on_c, 11, 50, 0
12, 12957, Note_on_c, 11, 50, 61
12, 13075, Note_on_c, 11, 50, 0
12, 13202, Note_on_c, 11, 50, 68
12, 13319, Note_on_c, 11, 50, 0
12, 13438, Note_on_c, 11, 49, 61
12, 13853, Note_on_c, 11, 49, 0
12, 13922, Note_on_c, 11, 48, 65
12, 14273, Note_on_c, 11, 48, 0
12, 14403, Note_on_c, 11, 48, 71
12, 14808, Note_on_c, 11, 48, 0
12, 14883, Note_on_c, 11, 48, 65
12, 14999, Note_on_c, 11, 48, 0
12, 15120, Note_on_c, 11, 48, 65
12, 15247, Note_on_c, 11, 48, 0
12, 15360, Note_on_c, 11, 47, 70
12, 15716, Note_on_c, 11, 47, 0
12, 15844, Note_on_c, 11, 48, 64
12, 16253, Note_on_c, 11, 48, 0
12, 16317, Note_on_c, 11, 47, 67
12, 16725, Note_on_c, 11, 47, 0
12, 16795, Note_on_c, 11, 47, 64
12, 16908, Note_on_c, 11, 47, 0
12, 17039, Note_on_c, 11, 47, 58
12, 17154, Note_on_c, 11, 47, 0
12, 17281, Note_on_c, 11, 48, 58
12, 17725, Note_on_c, 11, 48, 0
12, 18242, Note_on_c, 11, 52, 35
12, 18675, Note_on_c, 11, 52, 0
12, 18719, Note_on_c, 11, 52, 37
12, 18817, Note_on_c, 11, 52, 0
12, 18955, Note_on_c, 11, 52, 38
12, 19091, Note_on_c, 11, 52, 0
12, 19198, Note_on_c, 11, 51, 39
12, 19605, Note_on_c, 11, 51, 0
12, 19681, Note_on_c, 11, 51, 37
12, 20084, Note_on_c, 11, 51, 0
12, 20157, Note_on_c, 11, 50, 38
12, 20564, Note_on_c, 11, 50, 0
12, 20643, Note_on_c, 11, 50, 38
12, 20764, Note_on_c, 11, 50, 0
12, 20877, Note_on_c, 11, 50, 36
12, 21057, Note_on_c, 11, 50, 0
12, 21121, Note_on_c, 11, 49, 37
12, 21533, Note_on_c, 11, 49, 0
12, 21600, Note_on_c, 11, 48, 36
12, 21921, Note_on_c, 11, 48, 0
12, 22075, Note_on_c, 11, 48, 37
12, 22480, Note_on_c, 11, 48, 0
12, 22560, Note_on_c, 11, 48, 37
12, 22676, Note_on_c, 11, 48, 0
12, 22797, Note_on_c, 11, 48, 36
12, 22926, Note_on_c, 11, 48, 0
12, 23039, Note_on_c, 11, 47, 38
12, 23396, Note_on_c, 11, 47, 0
12, 23519, Note_on_c, 11, 48, 36
12, 23879, Note_on_c, 11, 48, 0
12, 24006, Note_on_c, 11, 47, 39
12, 24418, Note_on_c, 11, 47, 0
12, 24480, Note_on_c, 11, 47, 37
12, 24592, Note_on_c, 11, 47, 0
12, 24719, Note_on_c, 11, 47, 39
12, 24835, Note_on_c, 11, 47, 0
12, 24961, Note_on_c, 11, 48, 37
12, 25410, Note_on_c, 11, 48, 0
12, 72001, Control_c, 11, 7, 127
12, 72004, Note_on_c, 11, 45, 127
12, 72067, Note_on_c, 11, 45, 0
12, 72162, Note_on_c, 11, 57, 127
12, 72229, Note_on_c, 11, 57, 0
12, 72318, Note_on_c, 11, 60, 127
12, 72377, Note_on_c, 11, 60, 0
12, 72483, Note_on_c, 11, 45, 127
12, 72931, Note_on_c, 11, 45, 0
12, 72957, Note_on_c, 11, 44, 127
12, 73019, Note_on_c, 11, 44, 0
12, 73120, Note_on_c, 11, 56, 127
12, 73186, Note_on_c, 11, 56, 0
12, 73277, Note_on_c, 11, 59, 127
12, 73341, Note_on_c, 11, 59, 0
12, 73436, Note_on_c, 11, 44, 127
12, 73885, Note_on_c, 11, 44, 0
12, 73919, Note_on_c, 11, 40, 127
12, 73980, Note_on_c, 11, 40, 0
12, 74078, Note_on_c, 11, 56, 127
12, 74140, Note_on_c, 11, 56, 0
12, 74243, Note_on_c, 11, 59, 127
12, 74310, Note_on_c, 11, 59, 0
12, 74402, Note_on_c, 11, 40, 127
12, 74848, Note_on_c, 11, 40, 0
12, 74882, Note_on_c, 11, 45, 127
12, 74947, Note_on_c, 11, 45, 0
12, 75042, Note_on_c, 11, 57, 127
12, 75105, Note_on_c, 11, 57, 0
12, 75196, Note_on_c, 11, 60, 127
12, 75258, Note_on_c, 11, 60, 0
12, 75357, Note_on_c, 11, 45, 127
12, 75806, Note_on_c, 11, 45, 0
12, 75841, Note_on_c, 11, 45, 127
12, 75901, Note_on_c, 11, 45, 0
12, 76003, Note_on_c, 11, 57, 127
12, 76065, Note_on_c, 11, 57, 0
12, 76162, Note_on_c, 11, 60, 127
12, 76226, Note_on_c, 11, 60, 0
12, 76316, Note_on_c, 11, 45, 127
12, 76764, Note_on_c, 11, 45, 0
12, 76797, Note_on_c, 11, 43, 127
12, 76858, Note_on_c, 11, 43, 0
12, 76962, Note_on_c, 11, 55, 127
12, 77023, Note_on_c, 11, 55, 0
12, 77118, Note_on_c, 11, 60, 127
12, 77182, Note_on_c, 11, 60, 0
12, 77280, Note_on_c, 11, 43, 127
12, 77734, Note_on_c, 11, 43, 0
12, 77762, Note_on_c, 11, 43, 127
12, 77819, Note_on_c, 11, 43, 0
12, 77917, Note_on_c, 11, 59, 127
12, 77985, Note_on_c, 11, 59, 0
12, 78078, Note_on_c, 11, 62, 127
12, 78139, Note_on_c, 11, 62, 0
12, 78236, Note_on_c, 11, 43, 127
12, 78689, Note_on_c, 11, 43, 0
12, 78717, Note_on_c, 11, 36, 127
12, 78774, Note_on_c, 11, 36, 0
12, 78882, Note_on_c, 11, 55, 127
12, 78948, Note_on_c, 11, 55, 0
12, 79040, Note_on_c, 11, 60, 127
12, 79104, Note_on_c, 11, 60, 0
12, 79202, Note_on_c, 11, 36, 127
12, 79649, Note_on_c, 11, 36, 0
12, 79681, Note_on_c, 11, 36, 127
12, 79771, Note_on_c, 11, 36, 0
12, 79838, Note_on_c, 11, 55, 127
12, 79932, Note_on_c, 11, 55, 0
12, 79997, Note_on_c, 11, 60, 127
12, 80087, Note_on_c, 11, 60, 0
12, 80160, Note_on_c, 11, 36, 127
12, 80584, Note_on_c, 11, 36, 0
12, 80637, Note_on_c, 11, 47, 127
12, 80730, Note_on_c, 11, 47, 0
12, 80801, Note_on_c, 11, 47, 127
12, 80894, Note_on_c, 11, 47, 0
12, 80957, Note_on_c, 11, 59, 127
12, 81047, Note_on_c, 11, 59, 0
12, 81120, Note_on_c, 11, 47, 127
12, 81541, Note_on_c, 11, 47, 0
12, 81597, Note_on_c, 11, 47, 127
12, 81683, Note_on_c, 11, 47, 0
12, 81758, Note_on_c, 11, 59, 127
12, 81852, Note_on_c, 11, 59, 0
12, 81920, Note_on_c, 11, 62, 127
12, 82011, Note_on_c, 11, 62, 0
12, 82078, Note_on_c, 11, 47, 127
12, 82499, Note_on_c, 11, 47, 0
12, 82561, Note_on_c, 11, 45, 127
12, 82682, Note_on_c, 11, 45, 0
12, 82722, Note_on_c, 11, 45, 127
12, 82814, Note_on_c, 11, 45, 0
12, 82878, Note_on_c, 11, 57, 127
12, 82970, Note_on_c, 11, 57, 0
12, 83039, Note_on_c, 11, 45, 127
12, 83459, Note_on_c, 11, 45, 0
12, 83517, Note_on_c, 11, 45, 127
12, 83637, Note_on_c, 11, 45, 0
12, 83681, Note_on_c, 11, 57, 127
12, 83777, Note_on_c, 11, 57, 0
12, 83838, Note_on_c, 11, 60, 127
12, 83926, Note_on_c, 11, 60, 0
12, 84002, Note_on_c, 11, 45, 127
12, 84420, Note_on_c, 11, 45, 0
12, 84483, Note_on_c, 11, 44, 127
12, 84603, Note_on_c, 11, 44, 0
12, 84643, Note_on_c, 11, 56, 127
12, 84743, Note_on_c, 11, 56, 0
12, 84796, Note_on_c, 11, 59, 127
12, 84890, Note_on_c, 11, 59, 0
12, 84963, Note_on_c, 11, 45, 127
12, 85385, Note_on_c, 11, 45, 0
12, 85441, Note_on_c, 11, 40, 127
12, 85557, Note_on_c, 11, 40, 0
12, 85597, Note_on_c, 11, 56, 127
12, 85690, Note_on_c, 11, 56, 0
12, 85760, Note_on_c, 11, 59, 127
12, 85850, Note_on_c, 11, 59, 0
12, 85921, Note_on_c, 11, 40, 127
12, 86342, Note_on_c, 11, 40, 0
12, 86397, Note_on_c, 11, 45, 127
12, 86518, Note_on_c, 11, 45, 0
12, 86558, Note_on_c, 11, 45, 127
12, 86653, Note_on_c, 11, 45, 0
12, 86720, Note_on_c, 11, 57, 127
12, 86813, Note_on_c, 11, 57, 0
12, 86882, Note_on_c, 11, 45, 127
12, 87004, Note_on_c, 11, 45, 0
12, 87037, Note_on_c, 11, 45, 127
12, 87136, Note_on_c, 11, 45, 0
12, 87194, Note_on_c, 11, 47, 127
12, 87287, Note_on_c, 11, 47, 0
12, 87355, Note_on_c, 11, 48, 127
12, 87356, Control_c, 11, 7, 127
12, 87441, Note_on_c, 11, 48, 0
12, 87482, Control_c, 11, 7, 127
12, 87515, Note_on_c, 11, 55, 126
12, 87598, Control_c, 11, 7, 127
12, 87613, Note_on_c, 11, 55, 0
12, 87677, Note_on_c, 11, 60, 124
12, 87719, Control_c, 11, 7, 126
12, 87765, Note_on_c, 11, 60, 0
12, 87839, Control_c, 11, 7, 126
12, 87841, Note_on_c, 11, 36, 123
12, 87964, Control_c, 11, 7, 125
12, 88078, Control_c, 11, 7, 125
12, 88200, Control_c, 11, 7, 124
12, 88288, Note_on_c, 11, 36, 0
12, 88317, Note_on_c, 11, 47, 118
12, 88317, Control_c, 11, 7, 124
12, 88406, Note_on_c, 11, 47, 0
12, 88436, Control_c, 11, 7, 123
12, 88472, Note_on_c, 11, 47, 116
12, 88558, Control_c, 11, 7, 123
12, 88574, Note_on_c, 11, 47, 0
12, 88629, Note_on_c, 11, 59, 115
12, 88681, Control_c, 11, 7, 122
12, 88715, Note_on_c, 11, 59, 0
12, 88796, Note_on_c, 11, 47, 113
12, 88796, Control_c, 11, 7, 122
12, 88916, Control_c, 11, 7, 121
12, 89035, Control_c, 11, 7, 121
12, 89156, Control_c, 11, 7, 120
12, 89244, Note_on_c, 11, 47, 0
12, 89279, Note_on_c, 11, 47, 108
12, 89279, Control_c, 11, 7, 120
12, 89364, Note_on_c, 11, 47, 0
12, 89400, Control_c, 11, 7, 119
12, 89439, Note_on_c, 11, 59, 107
12, 89520, Control_c, 11, 7, 119
12, 89534, Note_on_c, 11, 59, 0
12, 89589, Note_on_c, 11, 62, 105
12, 89640, Control_c, 11, 7, 118
12, 89679, Note_on_c, 11, 62, 0
12, 89760, Control_c, 11, 7, 118
12, 89761, Note_on_c, 11, 47, 104
12, 89880, Control_c, 11, 7, 117
12, 90001, Control_c, 11, 7, 117
12, 90122, Control_c, 11, 7, 116
12, 90209, Note_on_c, 11, 47, 0
12, 90240, Control_c, 11, 7, 116
12, 90243, Note_on_c, 11, 45, 99
12, 90334, Note_on_c, 11, 45, 0
12, 90362, Control_c, 11, 7, 115
12, 90395, Note_on_c, 11, 45, 97
12, 90481, Control_c, 11, 7, 115
12, 90494, Note_on_c, 11, 45, 0
12, 90555, Note_on_c, 11, 57, 96
12, 90598, Control_c, 11, 7, 114
12, 90640, Note_on_c, 11, 57, 0
12, 90717, Control_c, 11, 7, 114
12, 90722, Note_on_c, 11, 45, 94
12, 90843, Control_c, 11, 7, 114
12, 90963, Control_c, 11, 7, 113
12, 91078, Control_c, 11, 7, 113
12, 91169, Note_on_c, 11, 45, 0
12, 91198, Control_c, 11, 7, 112
12, 91204, Note_on_c, 11, 45, 89
12, 91287, Note_on_c, 11, 45, 0
12, 91324, Control_c, 11, 7, 112
12, 91351, Note_on_c, 11, 57, 88
12, 91439, Control_c, 11, 7, 111
12, 91449, Note_on_c, 11, 57, 0
12, 91511, Note_on_c, 11, 60, 86
12, 91563, Control_c, 11, 7, 111
12, 91598, Note_on_c, 11, 60, 0
12, 91680, Note_on_c, 11, 45, 84
12, 91684, Control_c, 11, 7, 110
12, 91800, Control_c, 11, 7, 110
12, 91922, Control_c, 11, 7, 109
12, 92041, Control_c, 11, 7, 109
12, 92123, Note_on_c, 11, 45, 0
12, 92164, Note_on_c, 11, 44, 80
12, 92164, Control_c, 11, 7, 108
12, 92255, Note_on_c, 11, 44, 0
12, 92281, Control_c, 11, 7, 108
12, 92318, Note_on_c, 11, 56, 78
12, 92400, Control_c, 11, 7, 107
12, 92418, Note_on_c, 11, 56, 0
12, 92473, Note_on_c, 11, 59, 77
12, 92520, Control_c, 11, 7, 107
12, 92557, Note_on_c, 11, 59, 0
12, 92637, Note_on_c, 11, 45, 75
12, 92639, Control_c, 11, 7, 106
12, 92763, Control_c, 11, 7, 106
12, 92879, Control_c, 11, 7, 105
12, 93000, Control_c, 11, 7, 105
12, 93083, Note_on_c, 11, 45, 0
12, 93119, Note_on_c, 11, 40, 70
12, 93122, Control_c, 11, 7, 104
12, 93208, Note_on_c, 11, 40, 0
12, 93240, Control_c, 11, 7, 104
12, 93271, Note_on_c, 11, 56, 69
12, 93360, Control_c, 11, 7, 103
12, 93373, Note_on_c, 11, 56, 0
12, 93436, Note_on_c, 11, 64, 67
12, 93478, Control_c, 11, 7, 103
12, 93527, Note_on_c, 11, 64, 0
12, 93599, Note_on_c, 11, 52, 65
12, 93604, Control_c, 11, 7, 102
12, 93683, Note_on_c, 11, 52, 0
12, 93724, Control_c, 11, 7, 102
12, 93756, Note_on_c, 11, 52, 64
12, 93837, Control_c, 11, 7, 101
12, 93852, Note_on_c, 11, 52, 0
12, 93915, Note_on_c, 11, 52, 62
12, 93956, Control_c, 11, 7, 101
12, 93998, Note_on_c, 11, 52, 0
12, 94078, Control_c, 11, 7, 100
12, 94081, Note_on_c, 11, 45, 60
12, 94530, Note_on_c, 11, 45, 0
12, 94530, End_track
13, 0, Start_track
13, 0, Channel_prefix, 12
13, 0, Title_t, "Cello II+Contrabass"
13, 0, Instrument_name_t, "Violoncello II e Contrabasso"
13, 2880, Program_c, 12, 48
13, 2880, Note_on_c, 12, 33, 47
13, 2881, Note_on_c, 12, 45, 49
13, 3328, Note_on_c, 12, 45, 0
13, 3329, Note_on_c, 12, 33, 0
13, 3356, Note_on_c, 12, 33, 49
13, 3358, Note_on_c, 12, 45, 54
13, 3464, Note_on_c, 12, 33, 0
13, 3469, Note_on_c, 12, 45, 0
13, 3598, Note_on_c, 12, 45, 46
13, 3603, Note_on_c, 12, 33, 54
13, 3739, Note_on_c, 12, 45, 0
13, 3744, Note_on_c, 12, 33, 0
13, 3835, Note_on_c, 12, 32, 53
13, 3841, Note_on_c, 12, 44, 56
13, 4225, Note_on_c, 12, 32, 0
13, 4226, Note_on_c, 12, 44, 0
13, 4315, Note_on_c, 12, 44, 49
13, 4323, Note_on_c, 12, 32, 59
13, 4694, Note_on_c, 12, 44, 0
13, 4704, Note_on_c, 12, 32, 0
13, 4796, Note_on_c, 12, 28, 52
13, 4802, Note_on_c, 12, 40, 52
13, 5172, Note_on_c, 12, 28, 0
13, 5173, Note_on_c, 12, 40, 0
13, 5280, Note_on_c, 12, 40, 57
13, 5282, Note_on_c, 12, 28, 55
13, 5402, Note_on_c, 12, 28, 0
13, 5402, Note_on_c, 12, 40, 0
13, 5516, Note_on_c, 12, 40, 55
13, 5520, Note_on_c, 12, 28, 58
13, 5640, Note_on_c, 12, 40, 0
13, 5652, Note_on_c, 12, 28, 0
13, 5757, Note_on_c, 12, 33, 56
13, 5764, Note_on_c, 12, 45, 51
13, 6158, Note_on_c, 12, 33, 0
13, 6163, Note_on_c, 12, 45, 0
13, 6243, Note_on_c, 12, 45, 52
13, 6244, Note_on_c, 12, 33, 47
13, 6603, Note_on_c, 12, 45, 0
13, 6604, Note_on_c, 12, 33, 0
13, 6716, Note_on_c, 12, 33, 47
13, 6724, Note_on_c, 12, 45, 55
13, 7143, Note_on_c, 12, 33, 0
13, 7151, Note_on_c, 12, 45, 0
13, 7200, Note_on_c, 12, 45, 49
13, 7204, Note_on_c, 12, 33, 49
13, 7335, Note_on_c, 12, 33, 0
13, 7337, Note_on_c, 12, 45, 0
13, 7437, Note_on_c, 12, 33, 53
13, 7444, Note_on_c, 12, 45, 57
13, 7584, Note_on_c, 12, 33, 0
13, 7595, Note_on_c, 12, 45, 0
13, 7678, Note_on_c, 12, 43, 56
13, 7682, Note_on_c, 12, 31, 46
13, 8074, Note_on_c, 12, 43, 0
13, 8077, Note_on_c, 12, 31, 0
13, 8159, Note_on_c, 12, 31, 47
13, 8160, Note_on_c, 12, 43, 59
13, 8518, Note_on_c, 12, 43, 0
13, 8523, Note_on_c, 12, 31, 0
13, 8639, Note_on_c, 12, 43, 57
13, 8640, Note_on_c, 12, 31, 59
13, 9009, Note_on_c, 12, 43, 0
13, 9014, Note_on_c, 12, 31, 0
13, 9116, Note_on_c, 12, 31, 53
13, 9118, Note_on_c, 12, 43, 58
13, 9242, Note_on_c, 12, 31, 0
13, 9242, Note_on_c, 12, 43, 0
13, 9355, Note_on_c, 12, 31, 57
13, 9358, Note_on_c, 12, 43, 55
13, 9505, Note_on_c, 12, 31, 0
13, 9507, Note_on_c, 12, 43, 0
13, 9599, Note_on_c, 12, 48, 60
13, 9601, Note_on_c, 12, 36, 58
13, 10120, Note_on_c, 12, 48, 0
13, 10121, Note_on_c, 12, 36, 0
13, 10561, Note_on_c, 12, 48, 67
13, 11006, Note_on_c, 12, 48, 0
13, 11037, Note_on_c, 12, 48, 64
13, 11158, Note_on_c, 12, 48, 0
13, 11279, Note_on_c, 12, 48, 62
13, 11411, Note_on_c, 12, 48, 0
13, 11517, Note_on_c, 12, 47, 64
13, 11907, Note_on_c, 12, 47, 0
13, 11998, Note_on_c, 12, 47, 59
13, 12404, Note_on_c, 12, 47, 0
13, 12478, Note_on_c, 12, 47, 64
13, 12864, Note_on_c, 12, 47, 0
13, 12959, Note_on_c, 12, 47, 62
13, 13070, Note_on_c, 12, 47, 0
13, 13200, Note_on_c, 12, 47, 59
13, 13353, Note_on_c, 12, 47, 0
13, 13439, Note_on_c, 12, 45, 61
13, 13827, Note_on_c, 12, 45, 0
13, 13921, Note_on_c, 12, 45, 58
13, 14270, Note_on_c, 12, 45, 0
13, 14404, Note_on_c, 12, 45, 68
13, 14823, Note_on_c, 12, 45, 0
13, 14881, Note_on_c, 12, 45, 63
13, 14996, Note_on_c, 12, 45, 0
13, 15123, Note_on_c, 12, 45, 69
13, 15282, Note_on_c, 12, 45, 0
13, 15364, Note_on_c, 12, 44, 69
13, 15740, Note_on_c, 12, 44, 0
13, 15838, Note_on_c, 12, 45, 58
13, 16293, Note_on_c, 12, 45, 0
13, 16322, Note_on_c, 12, 40, 68
13, 16738, Note_on_c, 12, 40, 0
13, 16800, Note_on_c, 12, 40, 71
13, 16958, Note_on_c, 12, 40, 0
13, 17042, Note_on_c, 12, 40, 60
13, 17206, Note_on_c, 12, 40, 0
13, 17276, Note_on_c, 12, 45, 60
13, 17718, Note_on_c, 12, 45, 0
13, 18243, Note_on_c, 12, 48, 39
13, 18687, Note_on_c, 12, 48, 0
13, 18724, Note_on_c, 12, 48, 37
13, 18852, Note_on_c, 12, 48, 0
13, 18958, Note_on_c, 12, 48, 36
13, 19095, Note_on_c, 12, 48, 0
13, 19202, Note_on_c, 12, 47, 36
13, 19592, Note_on_c, 12, 47, 0
13, 19682, Note_on_c, 12, 47, 38
13, 20085, Note_on_c, 12, 47, 0
13, 20158, Note_on_c, 12, 47, 39
13, 20546, Note_on_c, 12, 47, 0
13, 20640, Note_on_c, 12, 47, 39
13, 20751, Note_on_c, 12, 47, 0
13, 20876, Note_on_c, 12, 47, 38
13, 21026, Note_on_c, 12, 47, 0
13, 21115, Note_on_c, 12, 45, 38
13, 21503, Note_on_c, 12, 45, 0
13, 21598, Note_on_c, 12, 45, 37
13, 21919, Note_on_c, 12, 45, 0
13, 22083, Note_on_c, 12, 45, 38
13, 22503, Note_on_c, 12, 45, 0
13, 22560, Note_on_c, 12, 45, 36
13, 22683, Note_on_c, 12, 45, 0
13, 22801, Note_on_c, 12, 45, 39
13, 22963, Note_on_c, 12, 45, 0
13, 23037, Note_on_c, 12, 44, 39
13, 23415, Note_on_c, 12, 44, 0
13, 23523, Note_on_c, 12, 45, 40
13, 23883, Note_on_c, 12, 45, 0
13, 24001, Note_on_c, 12, 40, 37
13, 24417, Note_on_c, 12, 40, 0
13, 24484, Note_on_c, 12, 40, 38
13, 24642, Note_on_c, 12, 40, 0
13, 24717, Note_on_c, 12, 40, 39
13, 24881, Note_on_c, 12, 40, 0
13, 24959, Note_on_c, 12, 45, 39
13, 25408, Note_on_c, 12, 45, 0
13, 26401, Note_on_c, 12, 33, 65
13, 26518, Note_on_c, 12, 33, 0
13, 26641, Note_on_c, 12, 33, 62
13, 26740, Note_on_c, 12, 33, 0
13, 26879, Note_on_c, 12, 32, 64
13, 26984, Note_on_c, 12, 32, 0
13, 27356, Note_on_c, 12, 44, 67
13, 27445, Note_on_c, 12, 44, 0
13, 28316, Note_on_c, 12, 28, 65
13, 28440, Note_on_c, 12, 28, 0
13, 28563, Note_on_c, 12, 28, 62
13, 28692, Note_on_c, 12, 28, 0
13, 28797, Note_on_c, 12, 33, 64
13, 28916, Note_on_c, 12, 33, 0
13, 29284, Note_on_c, 12, 45, 63
13, 29525, Note_on_c, 12, 45, 0
13, 30242, Note_on_c, 12, 33, 61
13, 30368, Note_on_c, 12, 33, 0
13, 30481, Note_on_c, 12, 33, 64
13, 30595, Note_on_c, 12, 33, 0
13, 30720, Note_on_c, 12, 31, 66
13, 30829, Note_on_c, 12, 31, 0
13, 31199, Note_on_c, 12, 43, 67
13, 31408, Note_on_c, 12, 43, 0
13, 32162, Note_on_c, 12, 43, 64
13, 32288, Note_on_c, 12, 43, 0
13, 32399, Note_on_c, 12, 43, 61
13, 32562, Note_on_c, 12, 43, 0
13, 32637, Note_on_c, 12, 36, 65
13, 33021, Note_on_c, 12, 36, 0
13, 33117, Note_on_c, 12, 48, 64
13, 33399, Note_on_c, 12, 48, 0
13, 34081, Note_on_c, 12, 36, 60
13, 34209, Note_on_c, 12, 36, 0
13, 34320, Note_on_c, 12, 36, 65
13, 34458, Note_on_c, 12, 36, 0
13, 34559, Note_on_c, 12, 35, 65
13, 34746, Note_on_c, 12, 35, 0
13, 35044, Note_on_c, 12, 47, 64
13, 35149, Note_on_c, 12, 47, 0
13, 35995, Note_on_c, 12, 40, 68
13, 36116, Note_on_c, 12, 40, 0
13, 36241, Note_on_c, 12, 40, 65
13, 36363, Note_on_c, 12, 40, 0
13, 36479, Note_on_c, 12, 33, 63
13, 36611, Note_on_c, 12, 33, 0
13, 36956, Note_on_c, 12, 45, 66
13, 37103, Note_on_c, 12, 45, 0
13, 37916, Note_on_c, 12, 33, 63
13, 38010, Note_on_c, 12, 33, 0
13, 38156, Note_on_c, 12, 33, 65
13, 38251, Note_on_c, 12, 33, 0
13, 38403, Note_on_c, 12, 32, 63
13, 38520, Note_on_c, 12, 32, 0
13, 38880, Note_on_c, 12, 33, 66
13, 39003, Note_on_c, 12, 33, 0
13, 39840, Note_on_c, 12, 28, 66
13, 39950, Note_on_c, 12, 28, 0
13, 40079, Note_on_c, 12, 28, 68
13, 40202, Note_on_c, 12, 28, 0
13, 40323, Note_on_c, 12, 33, 67
13, 40476, Note_on_c, 12, 33, 0
13, 40798, Note_on_c, 12, 45, 65
13, 40904, Note_on_c, 12, 45, 0
13, 41759, Note_on_c, 12, 36, 50
13, 41887, Note_on_c, 12, 36, 0
13, 41997, Note_on_c, 12, 36, 46
13, 42135, Note_on_c, 12, 36, 0
13, 42236, Note_on_c, 12, 35, 49
13, 42423, Note_on_c, 12, 35, 0
13, 42724, Note_on_c, 12, 47, 52
13, 42829, Note_on_c, 12, 47, 0
13, 43675, Note_on_c, 12, 40, 48
13, 43796, Note_on_c, 12, 40, 0
13, 43921, Note_on_c, 12, 40, 47
13, 44043, Note_on_c, 12, 40, 0
13, 44159, Note_on_c, 12, 33, 48
13, 44291, Note_on_c, 12, 33, 0
13, 44636, Note_on_c, 12, 45, 46
13, 44783, Note_on_c, 12, 45, 0
13, 45596, Note_on_c, 12, 33, 47
13, 45690, Note_on_c, 12, 33, 0
13, 45836, Note_on_c, 12, 33, 50
13, 45931, Note_on_c, 12, 33, 0
13, 46083, Note_on_c, 12, 32, 49
13, 46200, Note_on_c, 12, 32, 0
13, 46560, Note_on_c, 12, 33, 49
13, 46683, Note_on_c, 12, 33, 0
13, 47520, Note_on_c, 12, 28, 48
13, 47630, Note_on_c, 12, 28, 0
13, 47759, Note_on_c, 12, 28, 46
13, 47882, Note_on_c, 12, 28, 0
13, 48003, Note_on_c, 12, 33, 49
13, 48156, Note_on_c, 12, 33, 0
13, 48478, Note_on_c, 12, 45, 49
13, 48584, Note_on_c, 12, 45, 0
13, 48962, Note_on_c, 12, 33, 67
13, 48963, Control_c, 12, 7, 100
13, 49079, Control_c, 12, 7, 100
13, 49202, Control_c, 12, 7, 100
13, 49315, Control_c, 12, 7, 100
13, 49428, Note_on_c, 12, 33, 0
13, 49436, Control_c, 12, 7, 100
13, 49556, Control_c, 12, 7, 101
13, 49677, Control_c, 12, 7, 101
13, 49679, Note_on_c, 12, 45, 66
13, 49784, Note_on_c, 12, 45, 0
13, 49804, Control_c, 12, 7, 101
13, 49916, Note_on_c, 12, 32, 66
13, 49920, Control_c, 12, 7, 101
13, 50035, Control_c, 12, 7, 101
13, 50158, Control_c, 12, 7, 102
13, 50277, Control_c, 12, 7, 102
13, 50359, Note_on_c, 12, 32, 0
13, 50398, Control_c, 12, 7, 102
13, 50524, Control_c, 12, 7, 102
13, 50638, Note_on_c, 12, 44, 69
13, 50640, Control_c, 12, 7, 102
13, 50764, Control_c, 12, 7, 103
13, 50766, Note_on_c, 12, 44, 0
13, 50880, Control_c, 12, 7, 103
13, 50881, Note_on_c, 12, 28, 69
13, 51003, Control_c, 12, 7, 103
13, 51122, Control_c, 12, 7, 103
13, 51244, Control_c, 12, 7, 104
13, 51360, Control_c, 12, 7, 104
13, 51396, Note_on_c, 12, 28, 0
13, 51480, Control_c, 12, 7, 104
13, 51600, Control_c, 12, 7, 104
13, 51604, Note_on_c, 12, 40, 71
13, 51718, Control_c, 12, 7, 104
13, 51722, Note_on_c, 12, 40, 0
13, 51836, Note_on_c, 12, 33, 72
13, 51840, Control_c, 12, 7, 105
13, 51957, Control_c, 12, 7, 105
13, 52081, Control_c, 12, 7, 105
13, 52197, Control_c, 12, 7, 105
13, 52236, Note_on_c, 12, 33, 0
13, 52321, Control_c, 12, 7, 105
13, 52435, Control_c, 12, 7, 106
13, 52561, Note_on_c, 12, 45, 74
13, 52561, Control_c, 12, 7, 106
13, 52679, Control_c, 12, 7, 106
13, 52686, Note_on_c, 12, 45, 0
13, 52798, Note_on_c, 12, 33, 75
13, 52804, Control_c, 12, 7, 106
13, 52916, Control_c, 12, 7, 106
13, 53043, Control_c, 12, 7, 107
13, 53155, Control_c, 12, 7, 107
13, 53230, Note_on_c, 12, 33, 0
13, 53276, Control_c, 12, 7, 107
13, 53400, Control_c, 12, 7, 107
13, 53519, Note_on_c, 12, 45, 77
13, 53524, Control_c, 12, 7, 108
13, 53628, Note_on_c, 12, 45, 0
13, 53638, Control_c, 12, 7, 108
13, 53756, Control_c, 12, 7, 108
13, 53757, Note_on_c, 12, 31, 78
13, 53882, Control_c, 12, 7, 108
13, 53995, Control_c, 12, 7, 108
13, 54121, Control_c, 12, 7, 109
13, 54196, Note_on_c, 12, 31, 0
13, 54241, Control_c, 12, 7, 109
13, 54362, Control_c, 12, 7, 109
13, 54477, Note_on_c, 12, 43, 80
13, 54479, Control_c, 12, 7, 109
13, 54600, Control_c, 12, 7, 109
13, 54613, Note_on_c, 12, 43, 0
13, 54715, Note_on_c, 12, 31, 81
13, 54720, Control_c, 12, 7, 110
13, 54835, Control_c, 12, 7, 110
13, 54964, Control_c, 12, 7, 110
13, 55077, Control_c, 12, 7, 110
13, 55198, Control_c, 12, 7, 110
13, 55283, Note_on_c, 12, 31, 0
13, 55323, Control_c, 12, 7, 111
13, 55439, Note_on_c, 12, 43, 83
13, 55442, Control_c, 12, 7, 111
13, 55557, Control_c, 12, 7, 111
13, 55563, Note_on_c, 12, 43, 0
13, 55684, Note_on_c, 12, 36, 84
13, 55684, Control_c, 12, 7, 111
13, 55800, Control_c, 12, 7, 112
13, 55924, Control_c, 12, 7, 112
13, 56036, Control_c, 12, 7, 112
13, 56072, Note_on_c, 12, 36, 0
13, 56161, Control_c, 12, 7, 112
13, 56282, Control_c, 12, 7, 112
13, 56399, Note_on_c, 12, 48, 86
13, 56399, Control_c, 12, 7, 113
13, 56501, Note_on_c, 12, 48, 0
13, 56517, Control_c, 12, 7, 113
13, 56638, Control_c, 12, 7, 113
13, 56640, Note_on_c, 12, 36, 87
13, 56756, Control_c, 12, 7, 113
13, 56880, Control_c, 12, 7, 113
13, 57003, Control_c, 12, 7, 114
13, 57120, Note_on_c, 12, 36, 0
13, 57123, Control_c, 12, 7, 114
13, 57243, Control_c, 12, 7, 114
13, 57360, Note_on_c, 12, 48, 89
13, 57363, Control_c, 12, 7, 114
13, 57483, Control_c, 12, 7, 114
13, 57600, Note_on_c, 12, 35, 89
13, 57600, Note_on_c, 12, 48, 0
13, 57604, Control_c, 12, 7, 115
13, 57720, Control_c, 12, 7, 115
13, 57844, Control_c, 12, 7, 115
13, 57962, Control_c, 12, 7, 115
13, 58080, Note_on_c, 12, 35, 0
13, 58081, Control_c, 12, 7, 116
13, 58202, Control_c, 12, 7, 116
13, 58320, Note_on_c, 12, 47, 92
13, 58323, Control_c, 12, 7, 116
13, 58438, Control_c, 12, 7, 116
13, 58560, Note_on_c, 12, 35, 92
13, 58560, Note_on_c, 12, 47, 0
13, 58560, Control_c, 12, 7, 116
13, 58678, Control_c, 12, 7, 117
13, 58795, Control_c, 12, 7, 117
13, 58922, Control_c, 12, 7, 117
13, 59040, Note_on_c, 12, 35, 0
13, 59043, Control_c, 12, 7, 117
13, 59164, Control_c, 12, 7, 117
13, 59280, Note_on_c, 12, 47, 94
13, 59280, Control_c, 12, 7, 118
13, 59397, Control_c, 12, 7, 118
13, 59520, Note_on_c, 12, 33, 95
13, 59520, Note_on_c, 12, 47, 0
13, 59522, Control_c, 12, 7, 118
13, 59643, Control_c, 12, 7, 118
13, 59762, Control_c, 12, 7, 118
13, 59878, Control_c, 12, 7, 119
13, 60000, Note_on_c, 12, 33, 0
13, 60003, Control_c, 12, 7, 119
13, 60120, Control_c, 12, 7, 119
13, 60240, Note_on_c, 12, 45, 97
13, 60240, Control_c, 12, 7, 119
13, 60363, Control_c, 12, 7, 120
13, 60475, Control_c, 12, 7, 120
13, 60480, Note_on_c, 12, 33, 98
13, 60480, Note_on_c, 12, 45, 0
13, 60596, Control_c, 12, 7, 120
13, 60718, Control_c, 12, 7, 120
13, 60843, Control_c, 12, 7, 120
13, 60960, Note_on_c, 12, 33, 0
13, 60963, Control_c, 12, 7, 121
13, 61082, Control_c, 12, 7, 121
13, 61200, Note_on_c, 12, 45, 100
13, 61204, Control_c, 12, 7, 121
13, 61322, Control_c, 12, 7, 121
13, 61436, Control_c, 12, 7, 121
13, 61440, Note_on_c, 12, 32, 101
13, 61440, Note_on_c, 12, 45, 0
13, 61564, Control_c, 12, 7, 122
13, 61678, Control_c, 12, 7, 122
13, 61803, Control_c, 12, 7, 122
13, 61918, Control_c, 12, 7, 122
13, 61920, Note_on_c, 12, 32, 0
13, 62044, Control_c, 12, 7, 122
13, 62159, Control_c, 12, 7, 123
13, 62160, Note_on_c, 12, 33, 103
13, 62277, Control_c, 12, 7, 123
13, 62395, Control_c, 12, 7, 123
13, 62400, Note_on_c, 12, 28, 104
13, 62400, Note_on_c, 12, 33, 0
13, 62520, Control_c, 12, 7, 123
13, 62641, Control_c, 12, 7, 124
13, 62755, Control_c, 12, 7, 124
13, 62879, Control_c, 12, 7, 124
13, 62880, Note_on_c, 12, 28, 0
13, 62999, Control_c, 12, 7, 124
13, 63120, Note_on_c, 12, 40, 106
13, 63124, Control_c, 12, 7, 124
13, 63239, Control_c, 12, 7, 125
13, 63360, Note_on_c, 12, 33, 107
13, 63360, Note_on_c, 12, 40, 0
13, 63364, Control_c, 12, 7, 125
13, 63476, Control_c, 12, 7, 125
13, 63603, Control_c, 12, 7, 125
13, 63724, Control_c, 12, 7, 125
13, 63840, Note_on_c, 12, 33, 0
13, 63844, Control_c, 12, 7, 126
13, 63956, Control_c, 12, 7, 126
13, 64077, Control_c, 12, 7, 126
13, 64080, Note_on_c, 12, 45, 109
13, 64199, Control_c, 12, 7, 126
13, 64318, Control_c, 12, 7, 127
13, 64320, Note_on_c, 12, 36, 113
13, 64320, Note_on_c, 12, 45, 0
13, 64800, Note_on_c, 12, 36, 0
13, 65040, Note_on_c, 12, 48, 107
13, 65280, Note_on_c, 12, 35, 107
13, 65280, Note_on_c, 12, 48, 0
13, 65760, Note_on_c, 12, 35, 0
13, 66000, Note_on_c, 12, 47, 109
13, 66240, Note_on_c, 12, 35, 113
13, 66240, Note_on_c, 12, 47, 0
13, 66720, Note_on_c, 12, 35, 0
13, 66960, Note_on_c, 12, 47, 113
13, 67200, Note_on_c, 12, 33, 111
13, 67200, Note_on_c, 12, 47, 0
13, 67680, Note_on_c, 12, 33, 0
13, 67920, Note_on_c, 12, 45, 110
13, 68160, Note_on_c, 12, 33, 110
13, 68160, Note_on_c, 12, 45, 0
13, 68640, Note_on_c, 12, 33, 0
13, 68880, Note_on_c, 12, 45, 113
13, 69120, Note_on_c, 12, 32, 113
13, 69120, Note_on_c, 12, 45, 0
13, 69600, Note_on_c, 12, 32, 0
13, 69840, Note_on_c, 12, 33, 114
13, 70080, Note_on_c, 12, 28, 112
13, 70080, Note_on_c, 12, 33, 0
13, 70560, Note_on_c, 12, 28, 0
13, 70800, Note_on_c, 12, 40, 109
13, 71040, Note_on_c, 12, 33, 114
13, 71040, Note_on_c, 12, 40, 0
13, 71520, Note_on_c, 12, 33, 0
13, 71760, Note_on_c, 12, 45, 111
13, 71996, Note_on_c, 12, 33, 127
13, 72000, Note_on_c, 12, 45, 0
13, 72448, Note_on_c, 12, 33, 0
13, 72637, Note_on_c, 12, 33, 127
13, 72705, Note_on_c, 12, 33, 0
13, 72803, Note_on_c, 12, 45, 127
13, 72865, Note_on_c, 12, 45, 0
13, 72960, Note_on_c, 12, 32, 127
13, 73407, Note_on_c, 12, 32, 0
13, 73602, Note_on_c, 12, 32, 127
13, 73664, Note_on_c, 12, 32, 0
13, 73762, Note_on_c, 12, 44, 127
13, 73824, Note_on_c, 12, 44, 0
13, 73919, Note_on_c, 12, 28, 127
13, 74371, Note_on_c, 12, 28, 0
13, 74555, Note_on_c, 12, 28, 127
13, 74620, Note_on_c, 12, 28, 0
13, 74724, Note_on_c, 12, 40, 127
13, 74786, Note_on_c, 12, 40, 0
13, 74877, Note_on_c, 12, 33, 127
13, 75327, Note_on_c, 12, 33, 0
13, 75522, Note_on_c, 12, 33, 127
13, 75581, Note_on_c, 12, 33, 0
13, 75680, Note_on_c, 12, 45, 127
13, 75746, Note_on_c, 12, 45, 0
13, 75843, Note_on_c, 12, 33, 127
13, 76293, Note_on_c, 12, 33, 0
13, 76478, Note_on_c, 12, 33, 127
13, 76538, Note_on_c, 12, 33, 0
13, 76638, Note_on_c, 12, 45, 127
13, 76698, Note_on_c, 12, 45, 0
13, 76797, Note_on_c, 12, 31, 127
13, 77245, Note_on_c, 12, 31, 0
13, 77444, Note_on_c, 12, 31, 127
13, 77508, Note_on_c, 12, 31, 0
13, 77597, Note_on_c, 12, 43, 127
13, 77663, Note_on_c, 12, 43, 0
13, 77757, Note_on_c, 12, 31, 127
13, 78212, Note_on_c, 12, 31, 0
13, 78395, Note_on_c, 12, 31, 127
13, 78456, Note_on_c, 12, 31, 0
13, 78560, Note_on_c, 12, 43, 127
13, 78619, Note_on_c, 12, 43, 0
13, 78719, Note_on_c, 12, 36, 127
13, 79171, Note_on_c, 12, 36, 0
13, 79360, Note_on_c, 12, 36, 127
13, 79428, Note_on_c, 12, 36, 0
13, 79520, Note_on_c, 12, 48, 127
13, 79583, Note_on_c, 12, 48, 0
13, 79683, Note_on_c, 12, 36, 127
13, 80133, Note_on_c, 12, 36, 0
13, 80318, Note_on_c, 12, 36, 127
13, 80413, Note_on_c, 12, 36, 0
13, 80480, Note_on_c, 12, 48, 127
13, 80572, Note_on_c, 12, 48, 0
13, 80638, Note_on_c, 12, 35, 127
13, 81084, Note_on_c, 12, 35, 0
13, 81283, Note_on_c, 12, 35, 127
13, 81380, Note_on_c, 12, 35, 0
13, 81434, Note_on_c, 12, 47, 127
13, 81522, Note_on_c, 12, 47, 0
13, 81603, Note_on_c, 12, 35, 127
13, 82054, Note_on_c, 12, 35, 0
13, 82236, Note_on_c, 12, 35, 127
13, 82332, Note_on_c, 12, 35, 0
13, 82397, Note_on_c, 12, 47, 127
13, 82484, Note_on_c, 12, 47, 0
13, 82561, Note_on_c, 12, 33, 127
13, 83015, Note_on_c, 12, 33, 0
13, 83202, Note_on_c, 12, 33, 127
13, 83297, Note_on_c, 12, 33, 0
13, 83354, Note_on_c, 12, 45, 127
13, 83444, Note_on_c, 12, 45, 0
13, 83517, Note_on_c, 12, 33, 127
13, 83965, Note_on_c, 12, 33, 0
13, 84163, Note_on_c, 12, 33, 127
13, 84255, Note_on_c, 12, 33, 0
13, 84316, Note_on_c, 12, 45, 127
13, 84407, Note_on_c, 12, 45, 0
13, 84476, Note_on_c, 12, 32, 127
13, 84931, Note_on_c, 12, 32, 0
13, 85118, Note_on_c, 12, 33, 127
13, 85216, Note_on_c, 12, 33, 0
13, 85277, Note_on_c, 12, 45, 127
13, 85366, Note_on_c, 12, 45, 0
13, 85438, Note_on_c, 12, 28, 127
13, 85884, Note_on_c, 12, 28, 0
13, 86083, Note_on_c, 12, 28, 127
13, 86179, Note_on_c, 12, 28, 0
13, 86236, Note_on_c, 12, 40, 127
13, 86323, Note_on_c, 12, 40, 0
13, 86402, Note_on_c, 12, 33, 127
13, 86848, Note_on_c, 12, 33, 0
13, 87037, Note_on_c, 12, 33, 127
13, 87130, Note_on_c, 12, 33, 0
13, 87196, Note_on_c, 12, 35, 127
13, 87281, Note_on_c, 12, 35, 0
13, 87357, Control_c, 12, 7, 127
13, 87360, Note_on_c, 12, 36, 127
13, 87477, Control_c, 12, 7, 127
13, 87603, Control_c, 12, 7, 127
13, 87718, Control_c, 12, 7, 126
13, 87809, Note_on_c, 12, 36, 0
13, 87836, Control_c, 12, 7, 126
13, 87959, Control_c, 12, 7, 125
13, 87999, Note_on_c, 12, 36, 121
13, 88077, Control_c, 12, 7, 125
13, 88097, Note_on_c, 12, 36, 0
13, 88155, Note_on_c, 12, 48, 120
13, 88204, Control_c, 12, 7, 124
13, 88246, Note_on_c, 12, 48, 0
13, 88319, Control_c, 12, 7, 124
13, 88322, Note_on_c, 12, 35, 118
13, 88443, Control_c, 12, 7, 123
13, 88564, Control_c, 12, 7, 123
13, 88679, Control_c, 12, 7, 122
13, 88771, Note_on_c, 12, 35, 0
13, 88797, Control_c, 12, 7, 122
13, 88918, Control_c, 12, 7, 121
13, 88956, Note_on_c, 12, 35, 112
13, 89040, Control_c, 12, 7, 121
13, 89054, Note_on_c, 12, 35, 0
13, 89116, Note_on_c, 12, 47, 111
13, 89160, Control_c, 12, 7, 120
13, 89200, Note_on_c, 12, 47, 0
13, 89277, Note_on_c, 12, 35, 109
13, 89280, Control_c, 12, 7, 120
13, 89397, Control_c, 12, 7, 119
13, 89523, Control_c, 12, 7, 119
13, 89639, Control_c, 12, 7, 118
13, 89721, Note_on_c, 12, 35, 0
13, 89764, Control_c, 12, 7, 118
13, 89882, Control_c, 12, 7, 117
13, 89920, Note_on_c, 12, 35, 103
13, 90002, Control_c, 12, 7, 117
13, 90014, Note_on_c, 12, 35, 0
13, 90077, Note_on_c, 12, 47, 101
13, 90123, Control_c, 12, 7, 116
13, 90165, Note_on_c, 12, 47, 0
13, 90236, Note_on_c, 12, 33, 100
13, 90241, Control_c, 12, 7, 116
13, 90364, Control_c, 12, 7, 115
13, 90479, Control_c, 12, 7, 115
13, 90600, Control_c, 12, 7, 114
13, 90684, Note_on_c, 12, 33, 0
13, 90720, Control_c, 12, 7, 114
13, 90843, Control_c, 12, 7, 114
13, 90874, Note_on_c, 12, 33, 93
13, 90960, Control_c, 12, 7, 113
13, 90975, Note_on_c, 12, 33, 0
13, 91036, Note_on_c, 12, 45, 92
13, 91083, Control_c, 12, 7, 113
13, 91122, Note_on_c, 12, 45, 0
13, 91197, Note_on_c, 12, 33, 90
13, 91204, Control_c, 12, 7, 112
13, 91319, Control_c, 12, 7, 112
13, 91440, Control_c, 12, 7, 111
13, 91560, Control_c, 12, 7, 111
13, 91646, Note_on_c, 12, 33, 0
13, 91677, Control_c, 12, 7, 110
13, 91803, Control_c, 12, 7, 110
13, 91838, Note_on_c, 12, 33, 84
13, 91924, Control_c, 12, 7, 109
13, 91939, Note_on_c, 12, 33, 0
13, 91996, Note_on_c, 12, 45, 83
13, 92038, Control_c, 12, 7, 109
13, 92081, Note_on_c, 12, 45, 0
13, 92160, Note_on_c, 12, 32, 81
13, 92162, Control_c, 12, 7, 108
13, 92284, Control_c, 12, 7, 108
13, 92399, Control_c, 12, 7, 107
13, 92524, Control_c, 12, 7, 107
13, 92604, Note_on_c, 12, 32, 0
13, 92644, Control_c, 12, 7, 106
13, 92759, Control_c, 12, 7, 106
13, 92794, Note_on_c, 12, 33, 75
13, 92875, Control_c, 12, 7, 105
13, 92895, Note_on_c, 12, 33, 0
13, 92953, Note_on_c, 12, 45, 73
13, 92996, Control_c, 12, 7, 105
13, 93038, Note_on_c, 12, 45, 0
13, 93119, Control_c, 12, 7, 104
13, 93121, Note_on_c, 12, 28, 72
13, 93238, Control_c, 12, 7, 104
13, 93362, Control_c, 12, 7, 103
13, 93477, Control_c, 12, 7, 103
13, 93572, Note_on_c, 12, 28, 0
13, 93604, Control_c, 12, 7, 102
13, 93724, Control_c, 12, 7, 102
13, 93756, Note_on_c, 12, 28, 66
13, 93844, Control_c, 12, 7, 101
13, 93852, Note_on_c, 12, 28, 0
13, 93910, Note_on_c, 12, 40, 64
13, 93956, Control_c, 12, 7, 101
13, 94002, Note_on_c, 12, 40, 0
13, 94078, Note_on_c, 12, 33, 62
13, 94083, Control_c, 12, 7, 100
13, 94523, Note_on_c, 12, 33, 0
13, 96960, Program_c, 12, 45
13, 96963, Note_on_c, 12, 28, 56
13, 96964, Note_on_c, 12, 40, 58
13, 97197, Note_on_c, 12, 40, 0
13, 97199, Note_on_c, 12, 28, 0
13, 97437, Note_on_c, 12, 30, 52
13, 97440, Note_on_c, 12, 42, 57
13, 97668, Note_on_c, 12, 30, 0
13, 97673, Note_on_c, 12, 42, 0
13, 97682, Note_on_c, 12, 44, 54
13, 97684, Note_on_c, 12, 32, 56
13, 97912, Note_on_c, 12, 44, 0
13, 97913, Note_on_c, 12, 32, 0
13, 97918, Note_on_c, 12, 45, 55
13, 97925, Note_on_c, 12, 33, 55
13, 98153, Note_on_c, 12, 45, 0
13, 98157, Note_on_c, 12, 33, 0
13, 98395, Note_on_c, 12, 57, 57
13, 98400, Note_on_c, 12, 45, 56
13, 98627, Note_on_c, 12, 57, 0
13, 98635, Note_on_c, 12, 45, 0
13, 98637, Note_on_c, 12, 57, 56
13, 98640, Note_on_c, 12, 45, 58
13, 98872, Note_on_c, 12, 45, 0
13, 98872, Note_on_c, 12, 57, 0
13, 98877, Note_on_c, 12, 33, 57
13, 98884, Note_on_c, 12, 45, 58
13, 99112, Note_on_c, 12, 33, 0
13, 99120, Note_on_c, 12, 45, 0
13, 99355, Note_on_c, 12, 57, 55
13, 99359, Note_on_c, 12, 45, 56
13, 99587, Note_on_c, 12, 57, 0
13, 99594, Note_on_c, 12, 45, 0
13, 99601, Note_on_c, 12, 57, 56
13, 99604, Note_on_c, 12, 45, 54
13, 99833, Note_on_c, 12, 45, 0
13, 99837, Note_on_c, 12, 57, 0
13, 99840, Note_on_c, 12, 45, 56
13, 99842, Note_on_c, 12, 33, 56
13, 100073, Note_on_c, 12, 45, 0
13, 100076, Note_on_c, 12, 33, 0
13, 100314, Note_on_c, 12, 45, 55
13, 100318, Note_on_c, 12, 57, 55
13, 100545, Note_on_c, 12, 45, 0
13, 100552, Note_on_c, 12, 57, 0
13, 100560, Note_on_c, 12, 45, 60
13, 100564, Note_on_c, 12, 57, 54
13, 100792, Note_on_c, 12, 45, 0
13, 100796, Note_on_c, 12, 57, 0
13, 100797, Note_on_c, 12, 33, 56
13, 100804, Note_on_c, 12, 45, 56
13, 101033, Note_on_c, 12, 33, 0
13, 101038, Note_on_c, 12, 45, 0
13, 101280, Note_on_c, 12, 57, 56
13, 101283, Note_on_c, 12, 45, 58
13, 101514, Note_on_c, 12, 45, 0
13, 101514, Note_on_c, 12, 57, 0
13, 101521, Note_on_c, 12, 45, 54
13, 101522, Note_on_c, 12, 57, 56
13, 101754, Note_on_c, 12, 57, 0
13, 101755, Note_on_c, 12, 45, 0
13, 101758, Note_on_c, 12, 33, 56
13, 101763, Note_on_c, 12, 45, 56
13, 101993, Note_on_c, 12, 45, 0
13, 101994, Note_on_c, 12, 33, 0
13, 102243, Note_on_c, 12, 57, 58
13, 102245, Note_on_c, 12, 45, 58
13, 102466, Note_on_c, 12, 45, 0
13, 102470, Note_on_c, 12, 57, 0
13, 102480, Note_on_c, 12, 45, 58
13, 102483, Note_on_c, 12, 57, 56
13, 102705, Note_on_c, 12, 45, 0
13, 102719, Note_on_c, 12, 33, 57
13, 102720, Note_on_c, 12, 45, 53
13, 102721, Note_on_c, 12, 57, 0
13, 102953, Note_on_c, 12, 33, 0
13, 102953, Note_on_c, 12, 45, 0
13, 103195, Note_on_c, 12, 45, 57
13, 103206, Note_on_c, 12, 57, 54
13, 103429, Note_on_c, 12, 45, 0
13, 103434, Note_on_c, 12, 57, 0
13, 103436, Note_on_c, 12, 57, 54
13, 103445, Note_on_c, 12, 45, 54
13, 103675, Note_on_c, 12, 33, 55
13, 103675, Note_on_c, 12, 57, 0
13, 103676, Note_on_c, 12, 45, 0
13, 103682, Note_on_c, 12, 45, 60
13, 103904, Note_on_c, 12, 33, 0
13, 103920, Note_on_c, 12, 45, 0
13, 104155, Note_on_c, 12, 57, 58
13, 104160, Note_on_c, 12, 45, 53
13, 104388, Note_on_c, 12, 57, 0
13, 104398, Note_on_c, 12, 45, 0
13, 104400, Note_on_c, 12, 57, 54
13, 104401, Note_on_c, 12, 45, 56
13, 104635, Note_on_c, 12, 45, 0
13, 104636, Note_on_c, 12, 57, 0
13, 104641, Note_on_c, 12, 45, 56
13, 104642, Note_on_c, 12, 33, 56
13, 104873, Note_on_c, 12, 45, 0
13, 104878, Note_on_c, 12, 33, 0
13, 105121, Note_on_c, 12, 57, 57
13, 105122, Note_on_c, 12, 45, 57
13, 105353, Note_on_c, 12, 57, 0
13, 105358, Note_on_c, 12, 45, 0
13, 105360, Note_on_c, 12, 57, 56
13, 105364, Note_on_c, 12, 45, 55
13, 105594, Note_on_c, 12, 57, 0
13, 105597, Note_on_c, 12, 45, 0
13, 105601, Note_on_c, 12, 45, 57
13, 105602, Note_on_c, 12, 33, 56
13, 105836, Note_on_c, 12, 33, 0
13, 105838, Note_on_c, 12, 45, 0
13, 106083, Note_on_c, 12, 45, 57
13, 106084, Note_on_c, 12, 57, 55
13, 106317, Note_on_c, 12, 45, 0
13, 106317, Note_on_c, 12, 57, 0
13, 106321, Note_on_c, 12, 45, 56
13, 106321, Note_on_c, 12, 57, 58
13, 106550, Note_on_c, 12, 57, 0
13, 106552, Note_on_c, 12, 45, 0
13, 106560, Note_on_c, 12, 33, 58
13, 106560, Note_on_c, 12, 45, 57
13, 106791, Note_on_c, 12, 33, 0
13, 106791, Note_on_c, 12, 45, 0
13, 107036, Note_on_c, 12, 57, 56
13, 107037, Note_on_c, 12, 45, 57
13, 107270, Note_on_c, 12, 57, 0
13, 107273, Note_on_c, 12, 45, 0
13, 107280, Note_on_c, 12, 45, 55
13, 107281, Note_on_c, 12, 57, 55
13, 107516, Note_on_c, 12, 45, 0
13, 107518, Note_on_c, 12, 57, 0
13, 107520, Note_on_c, 12, 33, 58
13, 107523, Note_on_c, 12, 45, 56
13, 107751, Note_on_c, 12, 33, 0
13, 107754, Note_on_c, 12, 45, 0
13, 107996, Note_on_c, 12, 45, 58
13, 108002, Note_on_c, 12, 57, 56
13, 108232, Note_on_c, 12, 45, 0
13, 108234, Note_on_c, 12, 57, 0
13, 108239, Note_on_c, 12, 45, 59
13, 108241, Note_on_c, 12, 57, 57
13, 108473, Note_on_c, 12, 45, 0
13, 108475, Note_on_c, 12, 57, 0
13, 108483, Note_on_c, 12, 45, 57
13, 108486, Note_on_c, 12, 33, 55
13, 108716, Note_on_c, 12, 45, 0
13, 108720, Note_on_c, 12, 33, 0
13, 108959, Note_on_c, 12, 57, 57
13, 108963, Note_on_c, 12, 45, 56
13, 109194, Note_on_c, 12, 57, 0
13, 109198, Note_on_c, 12, 45, 0
13, 109200, Note_on_c, 12, 57, 58
13, 109202, Note_on_c, 12, 45, 55
13, 109430, Note_on_c, 12, 57, 0
13, 109436, Note_on_c, 12, 45, 0
13, 109437, Note_on_c, 12, 30, 60
13, 109444, Note_on_c, 12, 42, 58
13, 109669, Note_on_c, 12, 30, 0
13, 109678, Note_on_c, 12, 32, 56
13, 109680, Note_on_c, 12, 44, 58
13, 109682, Note_on_c, 12, 42, 0
13, 109911, Note_on_c, 12, 44, 0
13, 109914, Note_on_c, 12, 32, 0
13, 109919, Note_on_c, 12, 45, 54
13, 109920, Note_on_c, 12, 33, 58
13, 110153, Note_on_c, 12, 33, 0
13, 110157, Note_on_c, 12, 45, 0
13, 110160, Note_on_c, 12, 33, 56
13, 110163, Note_on_c, 12, 45, 60
13, 110392, Note_on_c, 12, 33, 0
13, 110395, Note_on_c, 12, 45, 0
13, 110397, Note_on_c, 12, 35, 57
13, 110404, Note_on_c, 12, 47, 54
13, 110632, Note_on_c, 12, 35, 0
13, 110636, Note_on_c, 12, 47, 0
13, 110879, Note_on_c, 12, 47, 59
13, 110884, Note_on_c, 12, 59, 56
13, 111111, Note_on_c, 12, 59, 0
13, 111112, Note_on_c, 12, 47, 0
13, 111113, Note_on_c, 12, 59, 59
13, 111122, Note_on_c, 12, 47, 58
13, 111347, Note_on_c, 12, 59, 0
13, 111356, Note_on_c, 12, 47, 0
13, 111359, Note_on_c, 12, 40, 56
13, 111364, Note_on_c, 12, 52, 57
13, 111595, Note_on_c, 12, 40, 0
13, 111595, Note_on_c, 12, 52, 0
13, 111836, Note_on_c, 12, 64, 57
13, 111842, Note_on_c, 12, 52, 52
13, 112070, Note_on_c, 12, 64, 0
13, 112074, Note_on_c, 12, 64, 58
13, 112079, Note_on_c, 12, 52, 0
13, 112083, Note_on_c, 12, 52, 57
13, 112309, Note_on_c, 12, 52, 0
13, 112309, Note_on_c, 12, 64, 0
13, 112317, Note_on_c, 12, 52, 55
13, 112322, Note_on_c, 12, 40, 54
13, 112551, Note_on_c, 12, 52, 0
13, 112557, Note_on_c, 12, 40, 0
13, 112798, Note_on_c, 12, 64, 56
13, 112800, Note_on_c, 12, 52, 57
13, 113032, Note_on_c, 12, 64, 0
13, 113035, Note_on_c, 12, 52, 0
13, 113036, Note_on_c, 12, 64, 56
13, 113043, Note_on_c, 12, 52, 57
13, 113270, Note_on_c, 12, 64, 0
13, 113274, Note_on_c, 12, 52, 0
13, 113276, Note_on_c, 12, 40, 53
13, 113282, Note_on_c, 12, 52, 55
13, 113509, Note_on_c, 12, 40, 0
13, 113520, Note_on_c, 12, 52, 0
13, 113761, Note_on_c, 12, 52, 56
13, 113762, Note_on_c, 12, 64, 56
13, 113992, Note_on_c, 12, 52, 0
13, 113993, Note_on_c, 12, 64, 0
13, 114000, Note_on_c, 12, 64, 56
13, 114001, Note_on_c, 12, 52, 54
13, 114234, Note_on_c, 12, 64, 0
13, 114236, Note_on_c, 12, 52, 0
13, 114240, Note_on_c, 12, 52, 54
13, 114241, Note_on_c, 12, 40, 58
13, 114473, Note_on_c, 12, 52, 0
13, 114474, Note_on_c, 12, 40, 0
13, 114715, Note_on_c, 12, 64, 55
13, 114720, Note_on_c, 12, 52, 56
13, 114944, Note_on_c, 12, 64, 0
13, 114956, Note_on_c, 12, 52, 0
13, 114961, Note_on_c, 12, 64, 57
13, 114964, Note_on_c, 12, 52, 57
13, 115194, Note_on_c, 12, 64, 0
13, 115198, Note_on_c, 12, 52, 0
13, 115199, Note_on_c, 12, 40, 59
13, 115203, Note_on_c, 12, 52, 54
13, 115429, Note_on_c, 12, 40, 0
13, 115438, Note_on_c, 12, 52, 0
13, 115682, Note_on_c, 12, 52, 53
13, 115683, Note_on_c, 12, 64, 55
13, 115913, Note_on_c, 12, 64, 0
13, 115917, Note_on_c, 12, 52, 0
13, 115921, Note_on_c, 12, 64, 55
13, 115922, Note_on_c, 12, 52, 58
13, 116154, Note_on_c, 12, 64, 0
13, 116159, Note_on_c, 12, 40, 60
13, 116160, Note_on_c, 12, 52, 0
13, 116161, Note_on_c, 12, 52, 57
13, 116392, Note_on_c, 12, 52, 0
13, 116398, Note_on_c, 12, 40, 0
13, 116640, Note_on_c, 12, 64, 54
13, 116646, Note_on_c, 12, 52, 57
13, 116873, Note_on_c, 12, 52, 0
13, 116874, Note_on_c, 12, 64, 0
13, 116876, Note_on_c, 12, 52, 53
13, 116883, Note_on_c, 12, 64, 56
13, 117106, Note_on_c, 12, 52, 0
13, 117116, Note_on_c, 12, 64, 0
13, 117119, Note_on_c, 12, 52, 54
13, 117121, Note_on_c, 12, 40, 59
13, 117352, Note_on_c, 12, 40, 0
13, 117354, Note_on_c, 12, 52, 0
13, 117603, Note_on_c, 12, 52, 54
13, 117603, Note_on_c, 12, 64, 54
13, 117834, Note_on_c, 12, 52, 0
13, 117835, Note_on_c, 12, 64, 0
13, 117841, Note_on_c, 12, 64, 54
13, 117842, Note_on_c, 12, 52, 55
13, 118076, Note_on_c, 12, 52, 0
13, 118077, Note_on_c, 12, 37, 55
13, 118078, Note_on_c, 12, 49, 53
13, 118079, Note_on_c, 12, 64, 0
13, 118308, Note_on_c, 12, 37, 0
13, 118312, Note_on_c, 12, 49, 0
13, 118560, Note_on_c, 12, 61, 59
13, 118563, Note_on_c, 12, 49, 57
13, 118793, Note_on_c, 12, 49, 0
13, 118795, Note_on_c, 12, 61, 0
13, 118800, Note_on_c, 12, 61, 55
13, 118804, Note_on_c, 12, 49, 54
13, 119037, Note_on_c, 12, 61, 0
13, 119038, Note_on_c, 12, 38, 59
13, 119039, Note_on_c, 12, 49, 0
13, 119040, Note_on_c, 12, 50, 56
13, 119275, Note_on_c, 12, 50, 0
13, 119276, Note_on_c, 12, 38, 0
13, 119520, Note_on_c, 12, 50, 55
13, 119522, Note_on_c, 12, 62, 59
13, 119753, Note_on_c, 12, 50, 0
13, 119759, Note_on_c, 12, 62, 0
13, 119760, Note_on_c, 12, 62, 57
13, 119763, Note_on_c, 12, 50, 55
13, 119995, Note_on_c, 12, 37, 58
13, 119996, Note_on_c, 12, 49, 54
13, 119996, Note_on_c, 12, 50, 0
13, 119997, Note_on_c, 12, 62, 0
13, 120228, Note_on_c, 12, 49, 0
13, 120229, Note_on_c, 12, 37, 0
13, 120476, Note_on_c, 12, 61, 56
13, 120484, Note_on_c, 12, 49, 54
13, 120708, Note_on_c, 12, 61, 0
13, 120715, Note_on_c, 12, 49, 0
13, 120720, Note_on_c, 12, 61, 56
13, 120723, Note_on_c, 12, 49, 56
13, 120955, Note_on_c, 12, 61, 0
13, 120958, Note_on_c, 12, 38, 56
13, 120959, Note_on_c, 12, 50, 58
13, 120962, Note_on_c, 12, 49, 0
13, 121189, Note_on_c, 12, 50, 0
13, 121190, Note_on_c, 12, 38, 0
13, 121439, Note_on_c, 12, 62, 56
13, 121441, Note_on_c, 12, 50, 58
13, 121673, Note_on_c, 12, 50, 0
13, 121674, Note_on_c, 12, 62, 0
13, 121683, Note_on_c, 12, 62, 55
13, 121684, Note_on_c, 12, 50, 55
13, 121913, Note_on_c, 12, 37, 54
13, 121916, Note_on_c, 12, 50, 0
13, 121917, Note_on_c, 12, 62, 0
13, 121920, Note_on_c, 12, 49, 59
13, 122149, Note_on_c, 12, 37, 0
13, 122156, Note_on_c, 12, 49, 0
13, 122396, Note_on_c, 12, 49, 56
13, 122400, Note_on_c, 12, 61, 52
13, 122628, Note_on_c, 12, 49, 0
13, 122631, Note_on_c, 12, 61, 0
13, 122641, Note_on_c, 12, 61, 54
13, 122643, Note_on_c, 12, 49, 56
13, 122873, Note_on_c, 12, 49, 0
13, 122876, Note_on_c, 12, 50, 55
13, 122877, Note_on_c, 12, 61, 0
13, 122879, Note_on_c, 12, 38, 56
13, 123109, Note_on_c, 12, 50, 0
13, 123115, Note_on_c, 12, 38, 0
13, 123357, Note_on_c, 12, 62, 59
13, 123362, Note_on_c, 12, 50, 56
13, 123588, Note_on_c, 12, 62, 0
13, 123592, Note_on_c, 12, 50, 0
13, 123600, Note_on_c, 12, 62, 56
13, 123601, Note_on_c, 12, 50, 60
13, 123832, Note_on_c, 12, 62, 0
13, 123833, Note_on_c, 12, 52, 60
13, 123838, Note_on_c, 12, 50, 0
13, 123841, Note_on_c, 12, 40, 55
13, 124065, Note_on_c, 12, 52, 0
13, 124076, Note_on_c, 12, 40, 0
13, 124319, Note_on_c, 12, 52, 54
13, 124320, Note_on_c, 12, 64, 57
13, 124552, Note_on_c, 12, 52, 0
13, 124556, Note_on_c, 12, 64, 0
13, 124559, Note_on_c, 12, 52, 55
13, 124564, Note_on_c, 12, 64, 55
13, 124790, Note_on_c, 12, 52, 0
13, 124799, Note_on_c, 12, 64, 0
13, 124800, Note_on_c, 12, 33, 58
13, 124800, Note_on_c, 12, 45, 52
13, 125033, Note_on_c, 12, 33, 0
13, 125037, Note_on_c, 12, 45, 0
13, 125277, Note_on_c, 12, 45, 57
13, 125281, Note_on_c, 12, 57, 57
13, 125512, Note_on_c, 12, 45, 0
13, 125517, Note_on_c, 12, 57, 0
13, 125519, Note_on_c, 12, 45, 58
13, 125523, Note_on_c, 12, 57, 55
13, 125750, Note_on_c, 12, 45, 0
13, 125757, Note_on_c, 12, 37, 55
13, 125758, Note_on_c, 12, 57, 0
13, 125762, Note_on_c, 12, 49, 57
13, 125993, Note_on_c, 12, 37, 0
13, 125999, Note_on_c, 12, 49, 0
13, 126241, Note_on_c, 12, 49, 57
13, 126244, Note_on_c, 12, 61, 52
13, 126475, Note_on_c, 12, 49, 0
13, 126480, Note_on_c, 12, 61, 0
13, 126480, Note_on_c, 12, 61, 55
13, 126484, Note_on_c, 12, 49, 56
13, 126712, Note_on_c, 12, 61, 0
13, 126718, Note_on_c, 12, 49, 0
13, 126721, Note_on_c, 12, 50, 53
13, 126724, Note_on_c, 12, 38, 54
13, 126953, Note_on_c, 12, 50, 0
13, 126958, Note_on_c, 12, 38, 0
13, 127198, Note_on_c, 12, 50, 57
13, 127203, Note_on_c, 12, 62, 58
13, 127431, Note_on_c, 12, 50, 0
13, 127438, Note_on_c, 12, 62, 0
13, 127442, Note_on_c, 12, 62, 59
13, 127446, Note_on_c, 12, 50, 57
13, 127678, Note_on_c, 12, 50, 0
13, 127678, Note_on_c, 12, 62, 0
13, 127680, Note_on_c, 12, 37, 56
13, 127680, Note_on_c, 12, 49, 56
13, 127915, Note_on_c, 12, 49, 0
13, 127918, Note_on_c, 12, 37, 0
13, 128155, Note_on_c, 12, 61, 56
13, 128163, Note_on_c, 12, 49, 57
13, 128393, Note_on_c, 12, 49, 0
13, 128393, Note_on_c, 12, 61, 0
13, 128394, Note_on_c, 12, 61, 58
13, 128401, Note_on_c, 12, 49, 59
13, 128633, Note_on_c, 12, 61, 0
13, 128641, Note_on_c, 12, 49, 0
13, 128643, Note_on_c, 12, 50, 54
13, 128646, Note_on_c, 12, 38, 54
13, 128879, Note_on_c, 12, 38, 0
13, 128882, Note_on_c, 12, 50, 0
13, 129114, Note_on_c, 12, 62, 54
13, 129116, Note_on_c, 12, 50, 57
13, 129350, Note_on_c, 12, 50, 0
13, 129350, Note_on_c, 12, 62, 0
13, 129360, Note_on_c, 12, 50, 54
13, 129362, Note_on_c, 12, 62, 56
13, 129590, Note_on_c, 12, 50, 0
13, 129594, Note_on_c, 12, 62, 0
13, 129597, Note_on_c, 12, 49, 52
13, 129599, Note_on_c, 12, 37, 56
13, 129834, Note_on_c, 12, 49, 0
13, 129835, Note_on_c, 12, 37, 0
13, 130082, Note_on_c, 12, 36, 56
13, 130083, Note_on_c, 12, 48, 56
13, 130316, Note_on_c, 12, 36, 0
13, 130316, Note_on_c, 12, 48, 0
13, 130321, Note_on_c, 12, 36, 58
13, 130322, Note_on_c, 12, 48, 55
13, 130554, Note_on_c, 12, 36, 0
13, 130556, Note_on_c, 12, 41, 55
13, 130557, Note_on_c, 12, 48, 0
13, 130561, Note_on_c, 12, 29, 52
13, 130793, Note_on_c, 12, 41, 0
13, 130795, Note_on_c, 12, 29, 0
13, 131035, Note_on_c, 12, 53, 56
13, 131040, Note_on_c, 12, 41, 57
13, 131266, Note_on_c, 12, 53, 0
13, 131275, Note_on_c, 12, 41, 0
13, 131281, Note_on_c, 12, 41, 57
13, 131283, Note_on_c, 12, 53, 59
13, 131512, Note_on_c, 12, 41, 0
13, 131514, Note_on_c, 12, 31, 56
13, 131517, Note_on_c, 12, 53, 0
13, 131519, Note_on_c, 12, 43, 57
13, 131747, Note_on_c, 12, 31, 0
13, 131750, Note_on_c, 12, 43, 0
13, 131994, Note_on_c, 12, 43, 54
13, 131999, Note_on_c, 12, 55, 56
13, 132228, Note_on_c, 12, 43, 0
13, 132233, Note_on_c, 12, 55, 0
13, 132236, Note_on_c, 12, 43, 55
13, 132240, Note_on_c, 12, 55, 54
13, 132472, Note_on_c, 12, 43, 0
13, 132476, Note_on_c, 12, 55, 0
13, 132479, Note_on_c, 12, 36, 54
13, 132481, Note_on_c, 12, 48, 54
13, 132710, Note_on_c, 12, 48, 0
13, 132712, Note_on_c, 12, 36, 0
13, 132957, Note_on_c, 12, 60, 54
13, 132963, Note_on_c, 12, 48, 55
13, 133189, Note_on_c, 12, 60, 0
13, 133190, Note_on_c, 12, 48, 0
13, 133202, Note_on_c, 12, 48, 58
13, 133202, Note_on_c, 12, 60, 55
13, 133436, Note_on_c, 12, 48, 0
13, 133436, Note_on_c, 12, 60, 0
13, 133439, Note_on_c, 12, 36, 66
13, 133467, Note_on_c, 12, 48, 64
13, 133665, Note_on_c, 12, 36, 0
13, 133692, Note_on_c, 12, 48, 0
13, 133916, Note_on_c, 12, 60, 64
13, 133920, Note_on_c, 12, 48, 59
13, 134143, Note_on_c, 12, 60, 0
13, 134147, Note_on_c, 12, 48, 0
13, 134159, Note_on_c, 12, 60, 61
13, 134163, Note_on_c, 12, 48, 60
13, 134383, Note_on_c, 12, 60, 0
13, 134390, Note_on_c, 12, 48, 0
13, 134400, Note_on_c, 12, 36, 62
13, 134403, Note_on_c, 12, 48, 59
13, 134622, Note_on_c, 12, 36, 0
13, 134626, Note_on_c, 12, 48, 0
13, 134881, Note_on_c, 12, 48, 63
13, 134883, Note_on_c, 12, 60, 59
13, 135106, Note_on_c, 12, 60, 0
13, 135107, Note_on_c, 12, 48, 0
13, 135120, Note_on_c, 12, 48, 59
13, 135120, Note_on_c, 12, 60, 64
13, 135343, Note_on_c, 12, 48, 0
13, 135343, Note_on_c, 12, 60, 0
13, 135358, Note_on_c, 12, 36, 68
13, 135359, Note_on_c, 12, 48, 69
13, 135581, Note_on_c, 12, 36, 0
13, 135581, Note_on_c, 12, 48, 0
13, 135837, Note_on_c, 12, 48, 68
13, 135837, Note_on_c, 12, 60, 63
13, 136061, Note_on_c, 12, 60, 0
13, 136063, Note_on_c, 12, 48, 0
13, 136081, Note_on_c, 12, 60, 61
13, 136082, Note_on_c, 12, 48, 67
13, 136303, Note_on_c, 12, 60, 0
13, 136309, Note_on_c, 12, 48, 0
13, 136322, Note_on_c, 12, 36, 63
13, 136322, Note_on_c, 12, 48, 60
13, 136545, Note_on_c, 12, 36, 0
13, 136547, Note_on_c, 12, 48, 0
13, 136801, Note_on_c, 12, 48, 60
13, 136802, Note_on_c, 12, 60, 65
13, 137026, Note_on_c, 12, 48, 0
13, 137029, Note_on_c, 12, 60, 0
13, 137039, Note_on_c, 12, 60, 68
13, 137041, Note_on_c, 12, 48, 65
13, 137267, Note_on_c, 12, 60, 0
13, 137268, Note_on_c, 12, 48, 0
13, 137280, Control_c, 12, 7, 100
13, 137283, Note_on_c, 12, 36, 69
13, 137284, Note_on_c, 12, 48, 67
13, 137400, Control_c, 12, 7, 103
13, 137511, Note_on_c, 12, 36, 0
13, 137511, Note_on_c, 12, 48, 0
13, 137520, Control_c, 12, 7, 106
13, 137640, Control_c, 12, 7, 110
13, 137758, Note_on_c, 12, 60, 66
13, 137760, Control_c, 12, 7, 113
13, 137762, Note_on_c, 12, 48, 67
13, 137880, Control_c, 12, 7, 116
13, 137981, Note_on_c, 12, 60, 0
13, 137989, Note_on_c, 12, 48, 0
13, 137999, Note_on_c, 12, 48, 63
13, 137999, Note_on_c, 12, 60, 69
13, 138000, Control_c, 12, 7, 120
13, 138120, Control_c, 12, 7, 123
13, 138221, Note_on_c, 12, 60, 0
13, 138223, Note_on_c, 12, 48, 0
13, 140160, Program_c, 12, 48
13, 140963, Note_on_c, 12, 48, 84
13, 141054, Note_on_c, 12, 48, 0
13, 141117, Note_on_c, 12, 47, 85
13, 141206, Note_on_c, 12, 47, 0
13, 141280, Note_on_c, 12, 45, 78
13, 141369, Note_on_c, 12, 45, 0
13, 141442, Note_on_c, 12, 43, 84
13, 141535, Note_on_c, 12, 43, 0
13, 141599, Note_on_c, 12, 41, 81
13, 141693, Note_on_c, 12, 41, 0
13, 141758, Note_on_c, 12, 40, 78
13, 141847, Note_on_c, 12, 40, 0
13, 141918, Note_on_c, 12, 38, 85
13, 142009, Note_on_c, 12, 38, 0
13, 142080, Note_on_c, 12, 36, 85
13, 142169, Note_on_c, 12, 36, 0
13, 142241, Note_on_c, 12, 35, 83
13, 142333, Note_on_c, 12, 35, 0
13, 142397, Note_on_c, 12, 33, 76
13, 142490, Note_on_c, 12, 33, 0
13, 142558, Note_on_c, 12, 32, 98
13, 142650, Note_on_c, 12, 32, 0
13, 142798, Note_on_c, 12, 32, 93
13, 142889, Note_on_c, 12, 32, 0
13, 144000, Program_c, 12, 45
13, 144000, Control_c, 12, 7, 100
13, 144001, Note_on_c, 12, 40, 75
13, 144003, Note_on_c, 12, 28, 78
13, 144423, Note_on_c, 12, 40, 0
13, 144425, Note_on_c, 12, 28, 0
13, 144480, Note_on_c, 12, 40, 73
13, 144481, Note_on_c, 12, 28, 74
13, 144692, Note_on_c, 12, 28, 0
13, 144693, Note_on_c, 12, 40, 0
13, 144719, Note_on_c, 12, 40, 72
13, 144720, Note_on_c, 12, 28, 70
13, 144931, Note_on_c, 12, 40, 0
13, 144933, Note_on_c, 12, 28, 0
13, 144960, Note_on_c, 12, 40, 72
13, 144962, Note_on_c, 12, 28, 70
13, 145378, Note_on_c, 12, 40, 0
13, 145385, Note_on_c, 12, 28, 0
13, 145437, Note_on_c, 12, 28, 76
13, 145442, Note_on_c, 12, 40, 74
13, 145857, Note_on_c, 12, 28, 0
13, 145864, Note_on_c, 12, 40, 0
13, 145918, Note_on_c, 12, 28, 76
13, 145920, Note_on_c, 12, 40, 75
13, 146338, Note_on_c, 12, 28, 0
13, 146341, Note_on_c, 12, 40, 0
13, 146399, Note_on_c, 12, 28, 78
13, 146401, Note_on_c, 12, 40, 74
13, 146608, Note_on_c, 12, 40, 0
13, 146611, Note_on_c, 12, 28, 0
13, 146637, Note_on_c, 12, 40, 75
13, 146639, Note_on_c, 12, 28, 72
13, 146845, Note_on_c, 12, 40, 0
13, 146851, Note_on_c, 12, 28, 0
13, 146878, Note_on_c, 12, 40, 72
13, 146881, Note_on_c, 12, 28, 78
13, 147295, Note_on_c, 12, 40, 0
13, 147298, Note_on_c, 12, 28, 0
13, 147357, Note_on_c, 12, 40, 72
13, 147362, Note_on_c, 12, 28, 77
13, 147780, Note_on_c, 12, 40, 0
13, 147781, Note_on_c, 12, 28, 0
13, 147838, Note_on_c, 12, 40, 71
13, 147839, Note_on_c, 12, 28, 77
13, 148255, Note_on_c, 12, 40, 0
13, 148256, Note_on_c, 12, 28, 0
13, 148319, Note_on_c, 12, 28, 73
13, 148321, Note_on_c, 12, 40, 76
13, 148529, Note_on_c, 12, 28, 0
13, 148532, Note_on_c, 12, 40, 0
13, 148560, Note_on_c, 12, 30, 70
13, 148562, Note_on_c, 12, 42, 75
13, 148770, Note_on_c, 12, 30, 0
13, 148774, Note_on_c, 12, 42, 0
13, 148799, Note_on_c, 12, 31, 78
13, 148800, Note_on_c, 12, 43, 77
13, 149219, Note_on_c, 12, 43, 0
13, 149220, Note_on_c, 12, 31, 0
13, 149278, Note_on_c, 12, 31, 75
13, 149282, Note_on_c, 12, 43, 76
13, 149699, Note_on_c, 12, 31, 0
13, 149700, Note_on_c, 12, 43, 0
13, 149759, Note_on_c, 12, 31, 72
13, 149761, Note_on_c, 12, 43, 75
13, 150179, Note_on_c, 12, 43, 0
13, 150182, Note_on_c, 12, 31, 0
13, 150239, Note_on_c, 12, 43, 74
13, 150243, Note_on_c, 12, 31, 73
13, 150451, Note_on_c, 12, 43, 0
13, 150453, Note_on_c, 12, 31, 0
13, 150479, Note_on_c, 12, 43, 73
13, 150481, Note_on_c, 12, 31, 73
13, 150691, Note_on_c, 12, 43, 0
13, 150692, Note_on_c, 12, 31, 0
13, 150718, Note_on_c, 12, 43, 76
13, 150721, Note_on_c, 12, 31, 76
13, 151136, Note_on_c, 12, 43, 0
13, 151143, Note_on_c, 12, 31, 0
13, 151680, Note_on_c, 12, 31, 78
13, 151680, Note_on_c, 12, 43, 75
13, 152101, Note_on_c, 12, 31, 0
13, 152103, Note_on_c, 12, 43, 0
13, 152158, Note_on_c, 12, 31, 74
13, 152158, Note_on_c, 12, 43, 78
13, 152370, Note_on_c, 12, 31, 0
13, 152371, Note_on_c, 12, 43, 0
13, 152402, Note_on_c, 12, 33, 72
13, 152402, Note_on_c, 12, 45, 73
13, 152612, Note_on_c, 12, 45, 0
13, 152613, Note_on_c, 12, 33, 0
13, 152637, Note_on_c, 12, 35, 71
13, 152637, Note_on_c, 12, 47, 72
13, 153056, Note_on_c, 12, 47, 0
13, 153058, Note_on_c, 12, 35, 0
13, 153118, Note_on_c, 12, 47, 76
13, 153122, Note_on_c, 12, 35, 74
13, 153537, Note_on_c, 12, 47, 0
13, 153542, Note_on_c, 12, 35, 0
13, 153601, Note_on_c, 12, 30, 78
13, 153601, Note_on_c, 12, 42, 72
13, 154020, Note_on_c, 12, 42, 0
13, 154022, Note_on_c, 12, 30, 0
13, 154077, Note_on_c, 12, 42, 73
13, 154081, Note_on_c, 12, 30, 71
13, 154288, Note_on_c, 12, 42, 0
13, 154290, Note_on_c, 12, 30, 0
13, 154317, Note_on_c, 12, 32, 75
13, 154323, Note_on_c, 12, 44, 78
13, 154527, Note_on_c, 12, 32, 0
13, 154530, Note_on_c, 12, 44, 0
13, 154558, Note_on_c, 12, 45, 77
13, 154561, Note_on_c, 12, 33, 74
13, 154977, Note_on_c, 12, 45, 0
13, 154982, Note_on_c, 12, 33, 0
13, 155041, Note_on_c, 12, 45, 73
13, 155042, Note_on_c, 12, 33, 73
13, 155460, Note_on_c, 12, 33, 0
13, 155462, Note_on_c, 12, 45, 0
13, 155517, Note_on_c, 12, 28, 71
13, 155518, Note_on_c, 12, 40, 74
13, 155936, Note_on_c, 12, 40, 0
13, 155940, Note_on_c, 12, 28, 0
13, 156000, Note_on_c, 12, 28, 71
13, 156000, Note_on_c, 12, 40, 77
13, 156212, Note_on_c, 12, 40, 0
13, 156213, Note_on_c, 12, 28, 0
13, 156237, Note_on_c, 12, 40, 74
13, 156242, Note_on_c, 12, 28, 70
13, 156448, Note_on_c, 12, 40, 0
13, 156455, Note_on_c, 12, 28, 0
13, 156480, Note_on_c, 12, 28, 71
13, 156481, Note_on_c, 12, 40, 71
13, 156898, Note_on_c, 12, 40, 0
13, 156899, Note_on_c, 12, 28, 0
13, 156958, Note_on_c, 12, 28, 77
13, 156960, Note_on_c, 12, 40, 73
13, 157379, Note_on_c, 12, 28, 0
13, 157381, Note_on_c, 12, 40, 0
13, 157441, Note_on_c, 12, 28, 77
13, 157442, Note_on_c, 12, 40, 77
13, 157860, Note_on_c, 12, 40, 0
13, 157863, Note_on_c, 12, 28, 0
13, 157919, Note_on_c, 12, 30, 74
13, 157920, Note_on_c, 12, 42, 77
13, 158129, Note_on_c, 12, 30, 0
13, 158130, Note_on_c, 12, 42, 0
13, 158158, Note_on_c, 12, 44, 77
13, 158162, Note_on_c, 12, 32, 72
13, 158371, Note_on_c, 12, 32, 0
13, 158371, Note_on_c, 12, 44, 0
13, 158401, Note_on_c, 12, 33, 72
13, 158402, Note_on_c, 12, 45, 73
13, 158820, Note_on_c, 12, 45, 0
13, 158824, Note_on_c, 12, 33, 0
13, 159359, Note_on_c, 12, 31, 71
13, 159362, Note_on_c, 12, 43, 75
13, 159779, Note_on_c, 12, 31, 0
13, 159784, Note_on_c, 12, 43, 0
13, 159840, Note_on_c, 12, 31, 74
13, 159842, Note_on_c, 12, 43, 72
13, 160050, Note_on_c, 12, 31, 0
13, 160051, Note_on_c, 12, 43, 0
13, 160080, Note_on_c, 12, 33, 72
13, 160082, Note_on_c, 12, 45, 74
13, 160290, Note_on_c, 12, 33, 0
13, 160290, Note_on_c, 12, 45, 0
13, 160318, Note_on_c, 12, 47, 71
13, 160322, Note_on_c, 12, 35, 75
13, 160735, Note_on_c, 12, 47, 0
13, 160745, Note_on_c, 12, 35, 0
13, 160797, Note_on_c, 12, 47, 78
13, 160800, Note_on_c, 12, 35, 70
13, 161217, Note_on_c, 12, 47, 0
13, 161223, Note_on_c, 12, 35, 0
13, 161279, Note_on_c, 12, 30, 78
13, 161280, Note_on_c, 12, 42, 75
13, 161698, Note_on_c, 12, 30, 0
13, 161700, Note_on_c, 12, 42, 0
13, 161757, Note_on_c, 12, 42, 74
13, 161761, Note_on_c, 12, 30, 72
13, 161968, Note_on_c, 12, 42, 0
13, 161972, Note_on_c, 12, 30, 0
13, 161999, Note_on_c, 12, 32, 74
13, 162001, Note_on_c, 12, 44, 70
13, 162209, Note_on_c, 12, 44, 0
13, 162212, Note_on_c, 12, 32, 0
13, 162238, Note_on_c, 12, 45, 73
13, 162242, Note_on_c, 12, 33, 74
13, 162656, Note_on_c, 12, 45, 0
13, 162663, Note_on_c, 12, 33, 0
13, 162719, Note_on_c, 12, 45, 73
13, 162720, Note_on_c, 12, 33, 70
13, 163140, Note_on_c, 12, 33, 0
13, 163141, Note_on_c, 12, 45, 0
13, 163197, Note_on_c, 12, 28, 74
13, 163197, Note_on_c, 12, 40, 77
13, 163617, Note_on_c, 12, 28, 0
13, 163617, Note_on_c, 12, 40, 0
13, 163681, Note_on_c, 12, 28, 74
13, 163681, Note_on_c, 12, 40, 76
13, 163889, Note_on_c, 12, 28, 0
13, 163890, Note_on_c, 12, 40, 0
13, 163919, Note_on_c, 12, 28, 76
13, 163920, Note_on_c, 12, 40, 72
13, 164127, Note_on_c, 12, 40, 0
13, 164132, Note_on_c, 12, 28, 0
13, 164160, Note_on_c, 12, 28, 74
13, 164162, Note_on_c, 12, 40, 73
13, 164579, Note_on_c, 12, 28, 0
13, 164579, Note_on_c, 12, 40, 0
13, 164637, Note_on_c, 12, 28, 73
13, 164640, Note_on_c, 12, 40, 78
13, 165058, Note_on_c, 12, 28, 0
13, 165060, Note_on_c, 12, 40, 0
13, 165118, Note_on_c, 12, 40, 71
13, 165119, Note_on_c, 12, 28, 72
13, 165538, Note_on_c, 12, 40, 0
13, 165539, Note_on_c, 12, 28, 0
13, 165600, Note_on_c, 12, 42, 76
13, 165602, Note_on_c, 12, 30, 73
13, 165809, Note_on_c, 12, 30, 0
13, 165813, Note_on_c, 12, 42, 0
13, 165838, Note_on_c, 12, 44, 75
13, 165841, Note_on_c, 12, 32, 74
13, 166050, Note_on_c, 12, 44, 0
13, 166051, Note_on_c, 12, 32, 0
13, 166079, Note_on_c, 12, 45, 77
13, 166080, Note_on_c, 12, 33, 78
13, 166497, Note_on_c, 12, 45, 0
13, 166498, Note_on_c, 12, 33, 0
13, 167042, Note_on_c, 12, 33, 74
13, 167043, Note_on_c, 12, 45, 78
13, 167494, Note_on_c, 12, 33, 0
13, 167495, Note_on_c, 12, 45, 0
13, 167521, Note_on_c, 12, 45, 74
13, 167523, Note_on_c, 12, 33, 79
13, 167727, Note_on_c, 12, 45, 0
13, 167733, Note_on_c, 12, 33, 0
13, 167756, Note_on_c, 12, 45, 75
13, 167757, Note_on_c, 12, 33, 75
13, 167968, Note_on_c, 12, 45, 0
13, 167969, Note_on_c, 12, 33, 0
13, 168002, Note_on_c, 12, 45, 79
13, 168003, Note_on_c, 12, 33, 72
13, 168450, Note_on_c, 12, 45, 0
13, 168452, Note_on_c, 12, 33, 0
13, 168956, Note_on_c, 12, 45, 77
13, 168962, Note_on_c, 12, 33, 74
13, 169403, Note_on_c, 12, 45, 0
13, 169412, Note_on_c, 12, 33, 0
13, 169438, Note_on_c, 12, 33, 72
13, 169438, Note_on_c, 12, 45, 71
13, 169647, Note_on_c, 12, 33, 0
13, 169650, Note_on_c, 12, 45, 0
13, 169679, Note_on_c, 12, 45, 79
13, 169683, Note_on_c, 12, 33, 76
13, 169887, Note_on_c, 12, 45, 0
13, 169890, Note_on_c, 12, 33, 0
13, 169916, Note_on_c, 12, 33, 74
13, 169923, Note_on_c, 12, 45, 78
13, 170368, Note_on_c, 12, 33, 0
13, 170372, Note_on_c, 12, 45, 0
13, 170877, Note_on_c, 12, 33, 74
13, 170883, Note_on_c, 12, 45, 72
13, 171089, Note_on_c, 12, 33, 0
13, 171095, Note_on_c, 12, 45, 0
13, 171122, Note_on_c, 12, 33, 78
13, 171123, Note_on_c, 12, 45, 80
13, 171329, Note_on_c, 12, 45, 0
13, 171331, Note_on_c, 12, 33, 0
13, 171361, Note_on_c, 12, 33, 75
13, 171362, Note_on_c, 12, 45, 73
13, 171571, Note_on_c, 12, 33, 0
13, 171572, Note_on_c, 12, 45, 0
13, 171840, Note_on_c, 12, 45, 79
13, 171843, Note_on_c, 12, 33, 79
13, 172046, Note_on_c, 12, 45, 0
13, 172054, Note_on_c, 12, 33, 0
13, 172080, Note_on_c, 12, 45, 81
13, 172083, Note_on_c, 12, 33, 84
13, 172290, Note_on_c, 12, 33, 0
13, 172290, Note_on_c, 12, 45, 0
13, 172318, Note_on_c, 12, 33, 82
13, 172320, Note_on_c, 12, 45, 82
13, 172526, Note_on_c, 12, 33, 0
13, 172526, Note_on_c, 12, 45, 0
13, 172803, Note_on_c, 12, 33, 82
13, 172803, Note_on_c, 12, 45, 88
13, 173010, Note_on_c, 12, 45, 0
13, 173011, Note_on_c, 12, 33, 0
13, 173038, Note_on_c, 12, 33, 89
13, 173043, Note_on_c, 12, 45, 86
13, 173244, Note_on_c, 12, 33, 0
13, 173250, Note_on_c, 12, 45, 0
13, 173277, Note_on_c, 12, 45, 91
13, 173278, Note_on_c, 12, 33, 87
13, 173487, Note_on_c, 12, 45, 0
13, 173488, Note_on_c, 12, 33, 0
13, 174236, Note_on_c, 12, 33, 77
13, 174242, Note_on_c, 12, 45, 81
13, 174446, Note_on_c, 12, 33, 0
13, 174452, Note_on_c, 12, 45, 0
13, 174481, Note_on_c, 12, 45, 75
13, 174483, Note_on_c, 12, 33, 76
13, 174690, Note_on_c, 12, 45, 0
13, 174691, Note_on_c, 12, 33, 0
13, 175198, Note_on_c, 12, 33, 63
13, 175203, Note_on_c, 12, 45, 61
13, 175410, Note_on_c, 12, 33, 0
13, 175411, Note_on_c, 12, 45, 0
13, 175437, Note_on_c, 12, 33, 54
13, 175439, Note_on_c, 12, 45, 58
13, 175648, Note_on_c, 12, 45, 0
13, 175649, Note_on_c, 12, 33, 0
13, 176158, Note_on_c, 12, 45, 61
13, 176161, Note_on_c, 12, 33, 63
13, 176367, Note_on_c, 12, 45, 0
13, 176370, Note_on_c, 12, 33, 0
13, 176398, Note_on_c, 12, 33, 68
13, 176400, Note_on_c, 12, 45, 66
13, 176604, Note_on_c, 12, 33, 0
13, 176609, Note_on_c, 12, 45, 0
13, 182880, Program_c, 12, 48
13, 183357, Note_on_c, 12, 45, 41
13, 183357, Note_on_c, 12, 57, 33
13, 183805, Note_on_c, 12, 45, 0
13, 183809, Note_on_c, 12, 57, 0
13, 183838, Note_on_c, 12, 57, 45
13, 183840, Note_on_c, 12, 45, 43
13, 183926, Note_on_c, 12, 57, 0
13, 183928, Note_on_c, 12, 45, 0
13, 184078, Note_on_c, 12, 59, 41
13, 184081, Note_on_c, 12, 47, 49
13, 184166, Note_on_c, 12, 59, 0
13, 184171, Note_on_c, 12, 47, 0
13, 184319, Note_on_c, 12, 60, 42
13, 184321, Note_on_c, 12, 48, 43
13, 184771, Note_on_c, 12, 60, 0
13, 184772, Note_on_c, 12, 48, 0
13, 184798, Note_on_c, 12, 60, 42
13, 184802, Note_on_c, 12, 48, 43
13, 185248, Note_on_c, 12, 60, 0
13, 185253, Note_on_c, 12, 48, 0
13, 185278, Note_on_c, 12, 47, 47
13, 185279, Note_on_c, 12, 59, 49
13, 185727, Note_on_c, 12, 47, 0
13, 185730, Note_on_c, 12, 59, 0
13, 185758, Note_on_c, 12, 59, 43
13, 185762, Note_on_c, 12, 47, 45
13, 185848, Note_on_c, 12, 59, 0
13, 185857, Note_on_c, 12, 47, 0
13, 185999, Note_on_c, 12, 49, 44
13, 186002, Note_on_c, 12, 61, 46
13, 186092, Note_on_c, 12, 49, 0
13, 186094, Note_on_c, 12, 61, 0
13, 186239, Note_on_c, 12, 50, 43
13, 186242, Note_on_c, 12, 62, 44
13, 186330, Note_on_c, 12, 50, 0
13, 186336, Note_on_c, 12, 62, 0
13, 186478, Note_on_c, 12, 48, 50
13, 186483, Note_on_c, 12, 60, 44
13, 186573, Note_on_c, 12, 48, 0
13, 186574, Note_on_c, 12, 60, 0
13, 186720, Note_on_c, 12, 59, 45
13, 186721, Note_on_c, 12, 47, 42
13, 186812, Note_on_c, 12, 47, 0
13, 186814, Note_on_c, 12, 59, 0
13, 186959, Note_on_c, 12, 57, 50
13, 186962, Note_on_c, 12, 45, 45
13, 187052, Note_on_c, 12, 57, 0
13, 187054, Note_on_c, 12, 45, 0
13, 187201, Note_on_c, 12, 43, 46
13, 187202, Note_on_c, 12, 55, 47
13, 187260, Note_on_c, 12, 55, 0
13, 187266, Note_on_c, 12, 43, 0
13, 187317, Note_on_c, 12, 45, 46
13, 187318, Note_on_c, 12, 57, 50
13, 187382, Note_on_c, 12, 45, 0
13, 187383, Note_on_c, 12, 57, 0
13, 187442, Note_on_c, 12, 59, 45
13, 187443, Note_on_c, 12, 47, 50
13, 187509, Note_on_c, 12, 59, 0
13, 187510, Note_on_c, 12, 47, 0
13, 187558, Note_on_c, 12, 57, 41
13, 187560, Note_on_c, 12, 45, 42
13, 187617, Note_on_c, 12, 45, 0
13, 187622, Note_on_c, 12, 57, 0
13, 187678, Note_on_c, 12, 55, 41
13, 187680, Note_on_c, 12, 43, 42
13, 187740, Note_on_c, 12, 43, 0
13, 187741, Note_on_c, 12, 55, 0
13, 187801, Note_on_c, 12, 45, 50
13, 187802, Note_on_c, 12, 57, 46
13, 187862, Note_on_c, 12, 45, 0
13, 187863, Note_on_c, 12, 57, 0
13, 187917, Note_on_c, 12, 43, 42
13, 187920, Note_on_c, 12, 55, 45
13, 187982, Note_on_c, 12, 55, 0
13, 187985, Note_on_c, 12, 43, 0
13, 188038, Note_on_c, 12, 42, 46
13, 188043, Note_on_c, 12, 54, 46
13, 188101, Note_on_c, 12, 42, 0
13, 188107, Note_on_c, 12, 54, 0
13, 188159, Note_on_c, 12, 52, 42
13, 188162, Note_on_c, 12, 40, 42
13, 188222, Note_on_c, 12, 52, 0
13, 188226, Note_on_c, 12, 40, 0
13, 188279, Note_on_c, 12, 54, 45
13, 188280, Note_on_c, 12, 42, 50
13, 188337, Note_on_c, 12, 54, 0
13, 188339, Note_on_c, 12, 42, 0
13, 188397, Note_on_c, 12, 43, 42
13, 188398, Note_on_c, 12, 55, 48
13, 188463, Note_on_c, 12, 43, 0
13, 188465, Note_on_c, 12, 55, 0
13, 188519, Note_on_c, 12, 57, 42
13, 188521, Note_on_c, 12, 45, 46
13, 188579, Note_on_c, 12, 57, 0
13, 188583, Note_on_c, 12, 45, 0
13, 188639, Note_on_c, 12, 59, 48
13, 188642, Note_on_c, 12, 47, 50
13, 188698, Note_on_c, 12, 59, 0
13, 188705, Note_on_c, 12, 47, 0
13, 188758, Note_on_c, 12, 61, 40
13, 188760, Note_on_c, 12, 49, 45
13, 188820, Note_on_c, 12, 49, 0
13, 188823, Note_on_c, 12, 61, 0
13, 188878, Note_on_c, 12, 51, 43
13, 188879, Note_on_c, 12, 63, 45
13, 188940, Note_on_c, 12, 63, 0
13, 188946, Note_on_c, 12, 51, 0
13, 189000, Note_on_c, 12, 52, 45
13, 189001, Note_on_c, 12, 64, 45
13, 189060, Note_on_c, 12, 52, 0
13, 189061, Note_on_c, 12, 64, 0
13, 189121, Note_on_c, 12, 52, 46
13, 189122, Note_on_c, 12, 64, 44
13, 189182, Note_on_c, 12, 52, 0
13, 189183, Note_on_c, 12, 64, 0
13, 189238, Note_on_c, 12, 57, 49
13, 189243, Note_on_c, 12, 45, 43
13, 189300, Note_on_c, 12, 57, 0
13, 189306, Note_on_c, 12, 45, 0
13, 189359, Note_on_c, 12, 59, 49
13, 189360, Note_on_c, 12, 47, 42
13, 189425, Note_on_c, 12, 47, 0
13, 189427, Note_on_c, 12, 59, 0
13, 189478, Note_on_c, 12, 61, 49
13, 189480, Note_on_c, 12, 49, 45
13, 189538, Note_on_c, 12, 61, 0
13, 189539, Note_on_c, 12, 49, 0
13, 189598, Note_on_c, 12, 50, 41
13, 189602, Note_on_c, 12, 62, 41
13, 189659, Note_on_c, 12, 50, 0
13, 189660, Note_on_c, 12, 62, 0
13, 189720, Note_on_c, 12, 47, 43
13, 189720, Note_on_c, 12, 59, 40
13, 189781, Note_on_c, 12, 59, 0
13, 189783, Note_on_c, 12, 47, 0
13, 189837, Note_on_c, 12, 52, 45
13, 189843, Note_on_c, 12, 64, 45
13, 189899, Note_on_c, 12, 52, 0
13, 189906, Note_on_c, 12, 64, 0
13, 189957, Note_on_c, 12, 50, 42
13, 189960, Note_on_c, 12, 62, 47
13, 190017, Note_on_c, 12, 62, 0
13, 190021, Note_on_c, 12, 50, 0
13, 190079, Note_on_c, 12, 60, 50
13, 190080, Note_on_c, 12, 48, 42
13, 190139, Note_on_c, 12, 48, 0
13, 190144, Note_on_c, 12, 60, 0
13, 190199, Note_on_c, 12, 59, 49
13, 190202, Note_on_c, 12, 47, 40
13, 190259, Note_on_c, 12, 59, 0
13, 190264, Note_on_c, 12, 47, 0
13, 190317, Note_on_c, 12, 60, 41
13, 190319, Note_on_c, 12, 48, 48
13, 190379, Note_on_c, 12, 60, 0
13, 190387, Note_on_c, 12, 48, 0
13, 190439, Note_on_c, 12, 50, 41
13, 190442, Note_on_c, 12, 62, 41
13, 190500, Note_on_c, 12, 50, 0
13, 190500, Note_on_c, 12, 62, 0
13, 190557, Note_on_c, 12, 52, 45
13, 190563, Note_on_c, 12, 64, 40
13, 190615, Note_on_c, 12, 52, 0
13, 190626, Note_on_c, 12, 64, 0
13, 190679, Note_on_c, 12, 52, 48
13, 190683, Note_on_c, 12, 40, 43
13, 190742, Note_on_c, 12, 52, 0
13, 190743, Note_on_c, 12, 40, 0
13, 190798, Note_on_c, 12, 54, 41
13, 190801, Note_on_c, 12, 42, 43
13, 190863, Note_on_c, 12, 42, 0
13, 190864, Note_on_c, 12, 54, 0
13, 190919, Note_on_c, 12, 56, 44
13, 190922, Note_on_c, 12, 44, 46
13, 190981, Note_on_c, 12, 56, 0
13, 190985, Note_on_c, 12, 44, 0
13, 191039, Note_on_c, 12, 45, 49
13, 191042, Note_on_c, 12, 57, 45
13, 191127, Note_on_c, 12, 45, 0
13, 191137, Note_on_c, 12, 57, 0
13, 191280, Note_on_c, 12, 43, 45
13, 191280, Note_on_c, 12, 55, 41
13, 191370, Note_on_c, 12, 55, 0
13, 191372, Note_on_c, 12, 43, 0
13, 191520, Note_on_c, 12, 42, 40
13, 191521, Note_on_c, 12, 54, 50
13, 191610, Note_on_c, 12, 42, 0
13, 191612, Note_on_c, 12, 54, 0
13, 191760, Note_on_c, 12, 52, 45
13, 191762, Note_on_c, 12, 40, 50
13, 191849, Note_on_c, 12, 52, 0
13, 191852, Note_on_c, 12, 40, 0
13, 192002, Note_on_c, 12, 54, 44
13, 192003, Note_on_c, 12, 42, 45
13, 192067, Note_on_c, 12, 54, 0
13, 192068, Note_on_c, 12, 42, 0
13, 192121, Note_on_c, 12, 42, 47
13, 192122, Note_on_c, 12, 54, 46
13, 192181, Note_on_c, 12, 42, 0
13, 192184, Note_on_c, 12, 54, 0
13, 192242, Note_on_c, 12, 43, 43
13, 192242, Note_on_c, 12, 55, 41
13, 192307, Note_on_c, 12, 43, 0
13, 192311, Note_on_c, 12, 55, 0
13, 192360, Note_on_c, 12, 57, 47
13, 192361, Note_on_c, 12, 45, 49
13, 192420, Note_on_c, 12, 57, 0
13, 192424, Note_on_c, 12, 45, 0
13, 192479, Note_on_c, 12, 38, 43
13, 192481, Note_on_c, 12, 50, 43
13, 192540, Note_on_c, 12, 38, 0
13, 192545, Note_on_c, 12, 50, 0
13, 192597, Note_on_c, 12, 38, 49
13, 192598, Note_on_c, 12, 50, 47
13, 192661, Note_on_c, 12, 38, 0
13, 192661, Note_on_c, 12, 50, 0
13, 192717, Note_on_c, 12, 40, 40
13, 192717, Note_on_c, 12, 52, 47
13, 192782, Note_on_c, 12, 52, 0
13, 192783, Note_on_c, 12, 40, 0
13, 192839, Note_on_c, 12, 54, 44
13, 192841, Note_on_c, 12, 42, 44
13, 192898, Note_on_c, 12, 54, 0
13, 192904, Note_on_c, 12, 42, 0
13, 192959, Note_on_c, 12, 55, 44
13, 192962, Note_on_c, 12, 43, 44
13, 193052, Note_on_c, 12, 55, 0
13, 193054, Note_on_c, 12, 43, 0
13, 193198, Note_on_c, 12, 41, 42
13, 193202, Note_on_c, 12, 53, 50
13, 193291, Note_on_c, 12, 41, 0
13, 193294, Note_on_c, 12, 53, 0
13, 193438, Note_on_c, 12, 52, 43
13, 193439, Note_on_c, 12, 40, 44
13, 193529, Note_on_c, 12, 52, 0
13, 193533, Note_on_c, 12, 40, 0
13, 193678, Note_on_c, 12, 38, 46
13, 193679, Note_on_c, 12, 50, 45
13, 194131, Note_on_c, 12, 38, 0
13, 194132, Note_on_c, 12, 50, 0
13, 194157, Note_on_c, 12, 36, 48
13, 194159, Note_on_c, 12, 48, 49
13, 194608, Note_on_c, 12, 36, 0
13, 194612, Note_on_c, 12, 48, 0
13, 194639, Note_on_c, 12, 55, 50
13, 194640, Note_on_c, 12, 43, 47
13, 195089, Note_on_c, 12, 43, 0
13, 195093, Note_on_c, 12, 55, 0
13, 195117, Note_on_c, 12, 48, 41
13, 195120, Note_on_c, 12, 36, 44
13, 195567, Note_on_c, 12, 48, 0
13, 195573, Note_on_c, 12, 36, 0
13, 195597, Note_on_c, 12, 48, 40
13, 195601, Note_on_c, 12, 60, 48
13, 195809, Note_on_c, 12, 60, 0
13, 195810, Note_on_c, 12, 48, 0
13, 197757, Note_on_c, 12, 62, 47
13, 197758, Note_on_c, 12, 50, 48
13, 198207, Note_on_c, 12, 62, 0
13, 198212, Note_on_c, 12, 50, 0
13, 198238, Note_on_c, 12, 62, 41
13, 198240, Note_on_c, 12, 50, 50
13, 198329, Note_on_c, 12, 50, 0
13, 198329, Note_on_c, 12, 62, 0
13, 198480, Note_on_c, 12, 52, 47
13, 198482, Note_on_c, 12, 64, 45
13, 198569, Note_on_c, 12, 52, 0
13, 198574, Note_on_c, 12, 64, 0
13, 198721, Note_on_c, 12, 53, 44
13, 198721, Note_on_c, 12, 65, 44
13, 199175, Note_on_c, 12, 53, 0
13, 199176, Note_on_c, 12, 65, 0
13, 199197, Note_on_c, 12, 65, 43
13, 199201, Note_on_c, 12, 53, 41
13, 199646, Note_on_c, 12, 65, 0
13, 199653, Note_on_c, 12, 53, 0
13, 199678, Note_on_c, 12, 53, 50
13, 199682, Note_on_c, 12, 41, 44
13, 199742, Note_on_c, 12, 53, 0
13, 199743, Note_on_c, 12, 41, 0
13, 199798, Note_on_c, 12, 40, 48
13, 199801, Note_on_c, 12, 52, 45
13, 199861, Note_on_c, 12, 40, 0
13, 199866, Note_on_c, 12, 52, 0
13, 199920, Note_on_c, 12, 55, 43
13, 199921, Note_on_c, 12, 43, 41
13, 199986, Note_on_c, 12, 55, 0
13, 199988, Note_on_c, 12, 43, 0
13, 200039, Note_on_c, 12, 41, 44
13, 200041, Note_on_c, 12, 53, 50
13, 200097, Note_on_c, 12, 41, 0
13, 200098, Note_on_c, 12, 53, 0
13, 200158, Note_on_c, 12, 40, 43
13, 200160, Note_on_c, 12, 52, 49
13, 200218, Note_on_c, 12, 52, 0
13, 200219, Note_on_c, 12, 40, 0
13, 200279, Note_on_c, 12, 55, 48
13, 200283, Note_on_c, 12, 43, 45
13, 200340, Note_on_c, 12, 55, 0
13, 200347, Note_on_c, 12, 43, 0
13, 200398, Note_on_c, 12, 41, 49
13, 200400, Note_on_c, 12, 53, 41
13, 200464, Note_on_c, 12, 41, 0
13, 200465, Note_on_c, 12, 53, 0
13, 200518, Note_on_c, 12, 52, 45
13, 200521, Note_on_c, 12, 40, 40
13, 200578, Note_on_c, 12, 40, 0
13, 200578, Note_on_c, 12, 52, 0
13, 200637, Note_on_c, 12, 38, 42
13, 200637, Note_on_c, 12, 50, 49
13, 200696, Note_on_c, 12, 50, 0
13, 200698, Note_on_c, 12, 38, 0
13, 200757, Note_on_c, 12, 40, 42
13, 200757, Note_on_c, 12, 52, 46
13, 200821, Note_on_c, 12, 52, 0
13, 200822, Note_on_c, 12, 40, 0
13, 200877, Note_on_c, 12, 41, 45
13, 200877, Note_on_c, 12, 53, 41
13, 200939, Note_on_c, 12, 41, 0
13, 200943, Note_on_c, 12, 53, 0
13, 200997, Note_on_c, 12, 43, 50
13, 200997, Note_on_c, 12, 55, 48
13, 201056, Note_on_c, 12, 43, 0
13, 201057, Note_on_c, 12, 55, 0
13, 201117, Note_on_c, 12, 45, 40
13, 201117, Note_on_c, 12, 57, 43
13, 201181, Note_on_c, 12, 45, 0
13, 201181, Note_on_c, 12, 57, 0
13, 201237, Note_on_c, 12, 47, 47
13, 201237, Note_on_c, 12, 59, 44
13, 201296, Note_on_c, 12, 47, 0
13, 201300, Note_on_c, 12, 59, 0
13, 201357, Note_on_c, 12, 49, 48
13, 201357, Note_on_c, 12, 61, 46
13, 201423, Note_on_c, 12, 49, 0
13, 201424, Note_on_c, 12, 61, 0
13, 201477, Note_on_c, 12, 50, 41
13, 201477, Note_on_c, 12, 62, 44
13, 201538, Note_on_c, 12, 62, 0
13, 201540, Note_on_c, 12, 50, 0
13, 201597, Note_on_c, 12, 50, 41
13, 201597, Note_on_c, 12, 62, 50
13, 201600, Control_c, 12, 7, 100
13, 201657, Note_on_c, 12, 50, 0
13, 201661, Note_on_c, 12, 62, 0
13, 201717, Note_on_c, 12, 38, 43
13, 201717, Note_on_c, 12, 50, 43
13, 201781, Note_on_c, 12, 38, 0
13, 201782, Note_on_c, 12, 50, 0
13, 201837, Note_on_c, 12, 38, 50
13, 201837, Note_on_c, 12, 50, 45
13, 201840, Control_c, 12, 7, 101
13, 201902, Note_on_c, 12, 38, 0
13, 201905, Note_on_c, 12, 50, 0
13, 201957, Note_on_c, 12, 38, 50
13, 201957, Note_on_c, 12, 50, 49
13, 201960, Control_c, 12, 7, 102
13, 202016, Note_on_c, 12, 38, 0
13, 202020, Note_on_c, 12, 50, 0
13, 202077, Note_on_c, 12, 38, 51
13, 202077, Note_on_c, 12, 50, 57
13, 202080, Control_c, 12, 7, 103
13, 202139, Note_on_c, 12, 38, 0
13, 202142, Note_on_c, 12, 50, 0
13, 202197, Note_on_c, 12, 38, 58
13, 202197, Note_on_c, 12, 50, 55
13, 202200, Control_c, 12, 7, 104
13, 202256, Note_on_c, 12, 38, 0
13, 202256, Note_on_c, 12, 50, 0
13, 202317, Note_on_c, 12, 38, 61
13, 202317, Note_on_c, 12, 50, 63
13, 202320, Control_c, 12, 7, 105
13, 202379, Note_on_c, 12, 50, 0
13, 202380, Note_on_c, 12, 38, 0
13, 202437, Note_on_c, 12, 38, 67
13, 202437, Note_on_c, 12, 50, 64
13, 202440, Control_c, 12, 7, 106
13, 202501, Note_on_c, 12, 38, 0
13, 202501, Note_on_c, 12, 50, 0
13, 202557, Note_on_c, 12, 38, 60
13, 202557, Note_on_c, 12, 50, 67
13, 202618, Note_on_c, 12, 50, 0
13, 202622, Note_on_c, 12, 38, 0
13, 202677, Note_on_c, 12, 38, 67
13, 202677, Note_on_c, 12, 50, 68
13, 202680, Control_c, 12, 7, 107
13, 202737, Note_on_c, 12, 38, 0
13, 202737, Note_on_c, 12, 50, 0
13, 202797, Note_on_c, 12, 38, 73
13, 202797, Note_on_c, 12, 50, 72
13, 202800, Control_c, 12, 7, 108
13, 202859, Note_on_c, 12, 50, 0
13, 202864, Note_on_c, 12, 38, 0
13, 202917, Note_on_c, 12, 38, 73
13, 202917, Note_on_c, 12, 50, 73
13, 202920, Control_c, 12, 7, 109
13, 202977, Note_on_c, 12, 38, 0
13, 202977, Note_on_c, 12, 50, 0
13, 203037, Note_on_c, 12, 38, 73
13, 203037, Note_on_c, 12, 50, 72
13, 203040, Control_c, 12, 7, 110
13, 203097, Note_on_c, 12, 50, 0
13, 203101, Note_on_c, 12, 38, 0
13, 203157, Note_on_c, 12, 38, 66
13, 203157, Note_on_c, 12, 50, 69
13, 203160, Control_c, 12, 7, 93
13, 203219, Note_on_c, 12, 38, 0
13, 203222, Note_on_c, 12, 50, 0
13, 203277, Note_on_c, 12, 38, 72
13, 203277, Note_on_c, 12, 50, 73
13, 203280, Control_c, 12, 7, 94
13, 203342, Note_on_c, 12, 50, 0
13, 203346, Note_on_c, 12, 38, 0
13, 203397, Note_on_c, 12, 38, 73
13, 203397, Note_on_c, 12, 50, 72
13, 203400, Control_c, 12, 7, 95
13, 203455, Note_on_c, 12, 38, 0
13, 203461, Note_on_c, 12, 50, 0
13, 203517, Note_on_c, 12, 38, 76
13, 203517, Note_on_c, 12, 50, 73
13, 203580, Note_on_c, 12, 38, 0
13, 203581, Note_on_c, 12, 50, 0
13, 203637, Note_on_c, 12, 38, 71
13, 203637, Note_on_c, 12, 50, 75
13, 203640, Control_c, 12, 7, 96
13, 203696, Note_on_c, 12, 38, 0
13, 203697, Note_on_c, 12, 50, 0
13, 203757, Note_on_c, 12, 38, 75
13, 203757, Note_on_c, 12, 50, 73
13, 203760, Control_c, 12, 7, 97
13, 203819, Note_on_c, 12, 38, 0
13, 203824, Note_on_c, 12, 50, 0
13, 203877, Note_on_c, 12, 38, 76
13, 203877, Note_on_c, 12, 50, 81
13, 203880, Control_c, 12, 7, 98
13, 203936, Note_on_c, 12, 38, 0
13, 203936, Note_on_c, 12, 50, 0
13, 203997, Note_on_c, 12, 38, 76
13, 203997, Note_on_c, 12, 50, 82
13, 204000, Control_c, 12, 7, 99
13, 204055, Note_on_c, 12, 38, 0
13, 204060, Note_on_c, 12, 50, 0
13, 204117, Note_on_c, 12, 38, 81
13, 204117, Note_on_c, 12, 50, 83
13, 204120, Control_c, 12, 7, 100
13, 204179, Note_on_c, 12, 38, 0
13, 204182, Note_on_c, 12, 50, 0
13, 204237, Note_on_c, 12, 38, 81
13, 204237, Note_on_c, 12, 50, 80
13, 204240, Control_c, 12, 7, 101
13, 204302, Note_on_c, 12, 50, 0
13, 204304, Note_on_c, 12, 38, 0
13, 204357, Note_on_c, 12, 38, 83
13, 204357, Note_on_c, 12, 50, 89
13, 204360, Control_c, 12, 7, 102
13, 204416, Note_on_c, 12, 38, 0
13, 204421, Note_on_c, 12, 50, 0
13, 204477, Note_on_c, 12, 38, 92
13, 204477, Note_on_c, 12, 50, 84
13, 204539, Note_on_c, 12, 38, 0
13, 204542, Note_on_c, 12, 50, 0
13, 204597, Note_on_c, 12, 38, 87
13, 204597, Note_on_c, 12, 50, 89
13, 204600, Control_c, 12, 7, 103
13, 204657, Note_on_c, 12, 38, 0
13, 204662, Note_on_c, 12, 50, 0
13, 204717, Note_on_c, 12, 38, 89
13, 204717, Note_on_c, 12, 50, 92
13, 204720, Control_c, 12, 7, 104
13, 204779, Note_on_c, 12, 38, 0
13, 204781, Note_on_c, 12, 50, 0
13, 204837, Note_on_c, 12, 38, 98
13, 204837, Note_on_c, 12, 50, 94
13, 204840, Control_c, 12, 7, 105
13, 204895, Note_on_c, 12, 50, 0
13, 204900, Note_on_c, 12, 38, 0
13, 204957, Note_on_c, 12, 38, 94
13, 204957, Note_on_c, 12, 50, 99
13, 204960, Control_c, 12, 7, 106
13, 205016, Note_on_c, 12, 38, 0
13, 205022, Note_on_c, 12, 50, 0
13, 205077, Note_on_c, 12, 38, 95
13, 205077, Note_on_c, 12, 50, 89
13, 205080, Control_c, 12, 7, 107
13, 205139, Note_on_c, 12, 50, 0
13, 205140, Note_on_c, 12, 38, 0
13, 205197, Note_on_c, 12, 36, 91
13, 205197, Note_on_c, 12, 48, 91
13, 205200, Control_c, 12, 7, 108
13, 205259, Note_on_c, 12, 48, 0
13, 205263, Note_on_c, 12, 36, 0
13, 205317, Note_on_c, 12, 35, 87
13, 205317, Note_on_c, 12, 47, 86
13, 205379, Note_on_c, 12, 47, 0
13, 205380, Note_on_c, 12, 35, 0
13, 205437, Note_on_c, 12, 33, 103
13, 205437, Note_on_c, 12, 45, 99
13, 205885, Note_on_c, 12, 33, 0
13, 205888, Note_on_c, 12, 45, 0
13, 205917, Note_on_c, 12, 33, 96
13, 205917, Note_on_c, 12, 45, 96
13, 206011, Note_on_c, 12, 33, 0
13, 206015, Note_on_c, 12, 45, 0
13, 206157, Note_on_c, 12, 33, 94
13, 206157, Note_on_c, 12, 45, 95
13, 206248, Note_on_c, 12, 33, 0
13, 206253, Note_on_c, 12, 45, 0
13, 206397, Note_on_c, 12, 32, 94
13, 206402, Note_on_c, 12, 44, 92
13, 206794, Note_on_c, 12, 44, 0
13, 206795, Note_on_c, 12, 32, 0
13, 206878, Note_on_c, 12, 32, 94
13, 206880, Note_on_c, 12, 44, 97
13, 207265, Note_on_c, 12, 44, 0
13, 207266, Note_on_c, 12, 32, 0
13, 207359, Note_on_c, 12, 28, 99
13, 207361, Note_on_c, 12, 40, 97
13, 207784, Note_on_c, 12, 40, 0
13, 207790, Note_on_c, 12, 28, 0
13, 207840, Note_on_c, 12, 28, 95
13, 207840, Note_on_c, 12, 40, 95
13, 207935, Note_on_c, 12, 40, 0
13, 207940, Note_on_c, 12, 28, 0
13, 208079, Note_on_c, 12, 40, 98
13, 208080, Note_on_c, 12, 28, 98
13, 208184, Note_on_c, 12, 28, 0
13, 208187, Note_on_c, 12, 40, 0
13, 208318, Note_on_c, 12, 45, 97
13, 208321, Note_on_c, 12, 33, 93
13, 208727, Note_on_c, 12, 45, 0
13, 208733, Note_on_c, 12, 33, 0
13, 208800, Note_on_c, 12, 33, 99
13, 208802, Note_on_c, 12, 45, 96
13, 209220, Note_on_c, 12, 33, 0
13, 209225, Note_on_c, 12, 45, 0
13, 209277, Note_on_c, 12, 33, 99
13, 209278, Note_on_c, 12, 45, 96
13, 209687, Note_on_c, 12, 33, 0
13, 209692, Note_on_c, 12, 45, 0
13, 209759, Note_on_c, 12, 45, 93
13, 209761, Note_on_c, 12, 33, 96
13, 209873, Note_on_c, 12, 45, 0
13, 209875, Note_on_c, 12, 33, 0
13, 209998, Note_on_c, 12, 45, 93
13, 210002, Note_on_c, 12, 33, 97
13, 210123, Note_on_c, 12, 45, 0
13, 210128, Note_on_c, 12, 33, 0
13, 210237, Note_on_c, 12, 32, 96
13, 210239, Note_on_c, 12, 44, 95
13, 210652, Note_on_c, 12, 32, 0
13, 210654, Note_on_c, 12, 44, 0
13, 210721, Note_on_c, 12, 45, 93
13, 210722, Note_on_c, 12, 33, 95
13, 211122, Note_on_c, 12, 33, 0
13, 211122, Note_on_c, 12, 45, 0
13, 211201, Note_on_c, 12, 28, 95
13, 211202, Note_on_c, 12, 40, 96
13, 211603, Note_on_c, 12, 40, 0
13, 211607, Note_on_c, 12, 28, 0
13, 211681, Note_on_c, 12, 40, 98
13, 211682, Note_on_c, 12, 52, 92
13, 211771, Note_on_c, 12, 52, 0
13, 211773, Note_on_c, 12, 40, 0
13, 211918, Note_on_c, 12, 40, 98
13, 211921, Note_on_c, 12, 52, 97
13, 212021, Note_on_c, 12, 40, 0
13, 212030, Note_on_c, 12, 52, 0
13, 212160, Note_on_c, 12, 33, 94
13, 212162, Note_on_c, 12, 45, 100
13, 212603, Note_on_c, 12, 33, 0
13, 212610, Note_on_c, 12, 45, 0
13, 212640, Control_c, 12, 7, 100
13, 214080, Program_c, 12, 45
13, 215039, Note_on_c, 12, 28, 79
13, 215040, Note_on_c, 12, 40, 80
13, 215482, Note_on_c, 12, 40, 0
13, 215483, Note_on_c, 12, 28, 0
13, 215520, Note_on_c, 12, 42, 78
13, 215522, Note_on_c, 12, 30, 77
13, 215756, Note_on_c, 12, 30, 0
13, 215756, Note_on_c, 12, 42, 0
13, 215759, Note_on_c, 12, 44, 79
13, 215760, Note_on_c, 12, 32, 79
13, 215996, Note_on_c, 12, 44, 0
13, 215997, Note_on_c, 12, 32, 0
13, 215998, Note_on_c, 12, 45, 52
13, 216000, Note_on_c, 12, 33, 57
13, 216233, Note_on_c, 12, 45, 0
13, 216234, Note_on_c, 12, 33, 0
13, 216478, Note_on_c, 12, 45, 54
13, 216479, Note_on_c, 12, 57, 58
13, 216708, Note_on_c, 12, 57, 0
13, 216713, Note_on_c, 12, 45, 0
13, 216720, Note_on_c, 12, 57, 56
13, 216721, Note_on_c, 12, 45, 58
13, 216950, Note_on_c, 12, 45, 0
13, 216952, Note_on_c, 12, 57, 0
13, 216958, Note_on_c, 12, 33, 55
13, 216961, Note_on_c, 12, 45, 51
13, 217192, Note_on_c, 12, 33, 0
13, 217199, Note_on_c, 12, 45, 0
13, 217438, Note_on_c, 12, 45, 56
13, 217441, Note_on_c, 12, 57, 51
13, 217672, Note_on_c, 12, 57, 0
13, 217675, Note_on_c, 12, 45, 0
13, 217680, Note_on_c, 12, 45, 57
13, 217682, Note_on_c, 12, 57, 57
13, 217912, Note_on_c, 12, 45, 0
13, 217918, Note_on_c, 12, 57, 0
13, 217919, Note_on_c, 12, 33, 54
13, 217923, Note_on_c, 12, 45, 52
13, 218155, Note_on_c, 12, 33, 0
13, 218157, Note_on_c, 12, 45, 0
13, 218400, Note_on_c, 12, 45, 52
13, 218401, Note_on_c, 12, 57, 58
13, 218631, Note_on_c, 12, 45, 0
13, 218633, Note_on_c, 12, 57, 0
13, 218643, Note_on_c, 12, 57, 60
13, 218644, Note_on_c, 12, 45, 58
13, 218873, Note_on_c, 12, 57, 0
13, 218877, Note_on_c, 12, 45, 0
13, 218881, Note_on_c, 12, 33, 55
13, 218881, Note_on_c, 12, 45, 51
13, 219115, Note_on_c, 12, 33, 0
13, 219115, Note_on_c, 12, 45, 0
13, 219360, Note_on_c, 12, 57, 52
13, 219362, Note_on_c, 12, 45, 51
13, 219593, Note_on_c, 12, 45, 0
13, 219594, Note_on_c, 12, 57, 0
13, 219600, Note_on_c, 12, 57, 60
13, 219603, Note_on_c, 12, 45, 55
13, 219835, Note_on_c, 12, 57, 0
13, 219839, Note_on_c, 12, 45, 0
13, 219841, Note_on_c, 12, 45, 59
13, 219842, Note_on_c, 12, 33, 51
13, 220070, Note_on_c, 12, 45, 0
13, 220075, Note_on_c, 12, 33, 0
13, 220319, Note_on_c, 12, 57, 55
13, 220320, Note_on_c, 12, 45, 51
13, 220555, Note_on_c, 12, 45, 0
13, 220556, Note_on_c, 12, 57, 0
13, 220560, Note_on_c, 12, 57, 54
13, 220562, Note_on_c, 12, 45, 54
13, 220795, Note_on_c, 12, 45, 0
13, 220797, Note_on_c, 12, 57, 0
13, 220800, Note_on_c, 12, 33, 55
13, 220801, Note_on_c, 12, 45, 57
13, 221034, Note_on_c, 12, 45, 0
13, 221036, Note_on_c, 12, 33, 0
13, 221280, Note_on_c, 12, 57, 57
13, 221281, Note_on_c, 12, 45, 59
13, 221505, Note_on_c, 12, 57, 0
13, 221514, Note_on_c, 12, 45, 0
13, 221520, Note_on_c, 12, 57, 56
13, 221522, Note_on_c, 12, 45, 59
13, 221753, Note_on_c, 12, 45, 0
13, 221759, Note_on_c, 12, 33, 58
13, 221759, Note_on_c, 12, 57, 0
13, 221763, Note_on_c, 12, 45, 56
13, 221987, Note_on_c, 12, 33, 0
13, 222002, Note_on_c, 12, 45, 0
13, 222239, Note_on_c, 12, 45, 51
13, 222239, Note_on_c, 12, 57, 56
13, 222469, Note_on_c, 12, 57, 0
13, 222478, Note_on_c, 12, 45, 0
13, 222480, Note_on_c, 12, 45, 55
13, 222481, Note_on_c, 12, 57, 59
13, 222712, Note_on_c, 12, 45, 0
13, 222718, Note_on_c, 12, 57, 0
13, 222720, Note_on_c, 12, 33, 55
13, 222721, Note_on_c, 12, 45, 55
13, 222954, Note_on_c, 12, 33, 0
13, 222954, Note_on_c, 12, 45, 0
13, 223199, Note_on_c, 12, 45, 58
13, 223202, Note_on_c, 12, 57, 56
13, 223433, Note_on_c, 12, 57, 0
13, 223438, Note_on_c, 12, 45, 0
13, 223440, Note_on_c, 12, 45, 55
13, 223442, Note_on_c, 12, 57, 55
13, 223675, Note_on_c, 12, 45, 0
13, 223677, Note_on_c, 12, 57, 0
13, 223680, Note_on_c, 12, 33, 60
13, 223684, Note_on_c, 12, 45, 55
13, 223911, Note_on_c, 12, 33, 0
13, 223919, Note_on_c, 12, 45, 0
13, 224160, Note_on_c, 12, 57, 54
13, 224161, Note_on_c, 12, 45, 53
13, 224394, Note_on_c, 12, 57, 0
13, 224395, Note_on_c, 12, 45, 0
13, 224400, Note_on_c, 12, 45, 51
13, 224401, Note_on_c, 12, 57, 53
13, 224628, Note_on_c, 12, 57, 0
13, 224631, Note_on_c, 12, 45, 0
13, 224640, Note_on_c, 12, 33, 50
13, 224640, Note_on_c, 12, 45, 58
13, 224869, Note_on_c, 12, 45, 0
13, 224871, Note_on_c, 12, 33, 0
13, 225119, Note_on_c, 12, 45, 60
13, 225119, Note_on_c, 12, 57, 52
13, 225354, Note_on_c, 12, 45, 0
13, 225355, Note_on_c, 12, 57, 0
13, 225360, Note_on_c, 12, 57, 50
13, 225362, Note_on_c, 12, 45, 56
13, 225596, Note_on_c, 12, 45, 0
13, 225598, Note_on_c, 12, 57, 0
13, 225599, Note_on_c, 12, 33, 56
13, 225601, Note_on_c, 12, 45, 51
13, 225829, Note_on_c, 12, 33, 0
13, 225833, Note_on_c, 12, 45, 0
13, 226081, Note_on_c, 12, 45, 58
13, 226081, Note_on_c, 12, 57, 58
13, 226312, Note_on_c, 12, 57, 0
13, 226315, Note_on_c, 12, 45, 0
13, 226323, Note_on_c, 12, 45, 52
13, 226324, Note_on_c, 12, 57, 56
13, 226557, Note_on_c, 12, 45, 0
13, 226558, Note_on_c, 12, 33, 51
13, 226561, Note_on_c, 12, 45, 52
13, 226561, Note_on_c, 12, 57, 0
13, 226791, Note_on_c, 12, 33, 0
13, 226794, Note_on_c, 12, 45, 0
13, 227038, Note_on_c, 12, 45, 59
13, 227041, Note_on_c, 12, 57, 57
13, 227269, Note_on_c, 12, 45, 0
13, 227276, Note_on_c, 12, 57, 0
13, 227280, Note_on_c, 12, 45, 53
13, 227281, Note_on_c, 12, 57, 60
13, 227508, Note_on_c, 12, 57, 0
13, 227514, Note_on_c, 12, 45, 0
13, 227520, Note_on_c, 12, 33, 60
13, 227524, Note_on_c, 12, 45, 58
13, 227754, Note_on_c, 12, 33, 0
13, 227756, Note_on_c, 12, 45, 0
13, 227998, Note_on_c, 12, 45, 56
13, 227999, Note_on_c, 12, 57, 50
13, 228233, Note_on_c, 12, 45, 0
13, 228235, Note_on_c, 12, 57, 0
13, 228240, Note_on_c, 12, 57, 54
13, 228242, Note_on_c, 12, 45, 55
13, 228471, Note_on_c, 12, 57, 0
13, 228476, Note_on_c, 12, 45, 0
13, 228479, Note_on_c, 12, 33, 60
13, 228480, Note_on_c, 12, 45, 50
13, 228710, Note_on_c, 12, 33, 0
13, 228713, Note_on_c, 12, 45, 0
13, 228960, Note_on_c, 12, 57, 58
13, 228962, Note_on_c, 12, 45, 50
13, 229194, Note_on_c, 12, 57, 0
13, 229196, Note_on_c, 12, 45, 0
13, 229201, Note_on_c, 12, 45, 50
13, 229201, Note_on_c, 12, 57, 60
13, 229433, Note_on_c, 12, 57, 0
13, 229434, Note_on_c, 12, 45, 0
13, 229441, Note_on_c, 12, 33, 50
13, 229443, Note_on_c, 12, 45, 56
13, 229677, Note_on_c, 12, 45, 0
13, 229678, Note_on_c, 12, 33, 0
13, 229920, Note_on_c, 12, 45, 52
13, 229921, Note_on_c, 12, 57, 53
13, 230155, Note_on_c, 12, 57, 0
13, 230156, Note_on_c, 12, 45, 0
13, 230160, Note_on_c, 12, 45, 53
13, 230162, Note_on_c, 12, 57, 58
13, 230392, Note_on_c, 12, 57, 0
13, 230396, Note_on_c, 12, 45, 0
13, 230401, Note_on_c, 12, 45, 60
13, 230402, Note_on_c, 12, 33, 54
13, 230773, Note_on_c, 12, 45, 0
13, 230774, Note_on_c, 12, 33, 0
13, 230880, Note_on_c, 12, 57, 58
13, 230881, Note_on_c, 12, 45, 57
13, 231004, Note_on_c, 12, 57, 0
13, 231005, Note_on_c, 12, 45, 0
13, 231118, Note_on_c, 12, 57, 49
13, 231121, Note_on_c, 12, 45, 53
13, 231265, Note_on_c, 12, 57, 0
13, 231269, Note_on_c, 12, 45, 0
13, 231361, Note_on_c, 12, 33, 54
13, 231361, Note_on_c, 12, 45, 57
13, 231733, Note_on_c, 12, 45, 0
13, 231735, Note_on_c, 12, 33, 0
13, 231839, Note_on_c, 12, 45, 54
13, 231841, Note_on_c, 12, 57, 51
13, 231961, Note_on_c, 12, 57, 0
13, 231967, Note_on_c, 12, 45, 0
13, 232079, Note_on_c, 12, 57, 55
13, 232080, Note_on_c, 12, 45, 47
13, 232225, Note_on_c, 12, 57, 0
13, 232228, Note_on_c, 12, 45, 0
13, 232320, Note_on_c, 12, 33, 46
13, 232322, Note_on_c, 12, 45, 46
13, 232693, Note_on_c, 12, 45, 0
13, 232694, Note_on_c, 12, 33, 0
13, 232799, Note_on_c, 12, 57, 47
13, 232800, Note_on_c, 12, 45, 49
13, 232922, Note_on_c, 12, 57, 0
13, 232926, Note_on_c, 12, 45, 0
13, 233039, Note_on_c, 12, 45, 41
13, 233041, Note_on_c, 12, 57, 43
13, 233187, Note_on_c, 12, 45, 0
13, 233188, Note_on_c, 12, 57, 0
13, 233277, Program_c, 12, 48
13, 233278, Note_on_c, 12, 57, 44
13, 233280, Note_on_c, 12, 45, 45
13, 234239, Note_on_c, 12, 41, 50
13, 234240, Note_on_c, 12, 53, 46
13, 234308, Note_on_c, 12, 57, 0
13, 234312, Note_on_c, 12, 45, 0
13, 235199, Note_on_c, 12, 52, 48
13, 235200, Note_on_c, 12, 40, 41
13, 235268, Note_on_c, 12, 41, 0
13, 235269, Note_on_c, 12, 53, 0
13, 236160, Note_on_c, 12, 38, 49
13, 236161, Note_on_c, 12, 50, 46
13, 236231, Note_on_c, 12, 40, 0
13, 236231, Note_on_c, 12, 52, 0
13, 237069, Note_on_c, 12, 38, 0
13, 237072, Note_on_c, 12, 50, 0
13, 237119, Note_on_c, 12, 43, 84
13, 237120, Note_on_c, 12, 31, 84
13, 237371, Note_on_c, 12, 43, 0
13, 237372, Note_on_c, 12, 31, 0
13, 237598, Note_on_c, 12, 55, 81
13, 237601, Note_on_c, 12, 43, 84
13, 237850, Note_on_c, 12, 55, 0
13, 237854, Note_on_c, 12, 43, 0
13, 239040, Note_on_c, 12, 52, 60
13, 239043, Note_on_c, 12, 40, 54
13, 239506, Note_on_c, 12, 52, 0
13, 239513, Note_on_c, 12, 40, 0
13, 239522, Note_on_c, 12, 52, 54
13, 239523, Note_on_c, 12, 40, 58
13, 239629, Note_on_c, 12, 40, 0
13, 239631, Note_on_c, 12, 52, 0
13, 239758, Note_on_c, 12, 52, 55
13, 239762, Note_on_c, 12, 40, 57
13, 239868, Note_on_c, 12, 52, 0
13, 239872, Note_on_c, 12, 40, 0
13, 239997, Note_on_c, 12, 33, 55
13, 240001, Note_on_c, 12, 45, 56
13, 240404, Note_on_c, 12, 33, 0
13, 240410, Note_on_c, 12, 45, 0
13, 240962, Note_on_c, 12, 31, 78
13, 240963, Note_on_c, 12, 43, 83
13, 241251, Note_on_c, 12, 43, 0
13, 241253, Note_on_c, 12, 31, 0
13, 241440, Note_on_c, 12, 55, 76
13, 241441, Note_on_c, 12, 43, 82
13, 241731, Note_on_c, 12, 43, 0
13, 241732, Note_on_c, 12, 55, 0
13, 241918, Note_on_c, 12, 48, 80
13, 241920, Note_on_c, 12, 36, 76
13, 242417, Note_on_c, 12, 36, 0
13, 242418, Note_on_c, 12, 48, 0
13, 242876, Note_on_c, 12, 52, 64
13, 242883, Note_on_c, 12, 40, 54
13, 243345, Note_on_c, 12, 52, 0
13, 243350, Note_on_c, 12, 40, 0
13, 243360, Note_on_c, 12, 52, 58
13, 243361, Note_on_c, 12, 40, 64
13, 243468, Note_on_c, 12, 52, 0
13, 243470, Note_on_c, 12, 40, 0
13, 243597, Note_on_c, 12, 40, 60
13, 243598, Note_on_c, 12, 52, 56
13, 243706, Note_on_c, 12, 40, 0
13, 243710, Note_on_c, 12, 52, 0
13, 244320, Program_c, 12, 45
13, 245277, Note_on_c, 12, 45, 51
13, 245281, Note_on_c, 12, 33, 54
13, 245746, Note_on_c, 12, 45, 0
13, 245748, Note_on_c, 12, 33, 0
13, 246243, Note_on_c, 12, 40, 52
13, 246243, Note_on_c, 12, 52, 45
13, 246709, Note_on_c, 12, 40, 0
13, 246712, Note_on_c, 12, 52, 0
13, 247198, Note_on_c, 12, 52, 45
13, 247201, Note_on_c, 12, 40, 45
13, 247668, Note_on_c, 12, 40, 0
13, 247668, Note_on_c, 12, 52, 0
13, 248163, Note_on_c, 12, 45, 46
13, 248163, Note_on_c, 12, 57, 51
13, 248631, Note_on_c, 12, 57, 0
13, 248632, Note_on_c, 12, 45, 0
13, 249116, Note_on_c, 12, 45, 50
13, 249119, Note_on_c, 12, 57, 48
13, 249586, Note_on_c, 12, 45, 0
13, 249587, Note_on_c, 12, 57, 0
13, 250078, Note_on_c, 12, 55, 51
13, 250082, Note_on_c, 12, 43, 45
13, 250547, Note_on_c, 12, 55, 0
13, 250550, Note_on_c, 12, 43, 0
13, 250560, Note_on_c, 12, 31, 48
13, 250561, Note_on_c, 12, 43, 44
13, 251028, Note_on_c, 12, 31, 0
13, 251030, Note_on_c, 12, 43, 0
13, 251040, Note_on_c, 12, 31, 50
13, 251045, Note_on_c, 12, 43, 45
13, 251266, Note_on_c, 12, 31, 0
13, 251275, Note_on_c, 12, 43, 0
13, 251278, Note_on_c, 12, 31, 49
13, 251285, Note_on_c, 12, 43, 44
13, 251510, Note_on_c, 12, 31, 0
13, 251517, Note_on_c, 12, 43, 0
13, 251518, Note_on_c, 12, 48, 44
13, 251523, Note_on_c, 12, 36, 52
13, 251990, Note_on_c, 12, 48, 0
13, 251995, Note_on_c, 12, 36, 0
13, 252960, Note_on_c, 12, 60, 46
13, 252961, Note_on_c, 12, 48, 44
13, 253426, Note_on_c, 12, 60, 0
13, 253427, Note_on_c, 12, 48, 0
13, 253916, Note_on_c, 12, 59, 46
13, 253918, Note_on_c, 12, 47, 47
13, 254387, Note_on_c, 12, 47, 0
13, 254387, Note_on_c, 12, 59, 0
13, 254881, Note_on_c, 12, 64, 51
13, 254883, Note_on_c, 12, 52, 48
13, 255350, Note_on_c, 12, 64, 0
13, 255355, Note_on_c, 12, 52, 0
13, 255840, Note_on_c, 12, 57, 50
13, 255843, Note_on_c, 12, 45, 47
13, 256309, Note_on_c, 12, 57, 0
13, 256310, Note_on_c, 12, 45, 0
13, 256799, Note_on_c, 12, 57, 44
13, 256803, Note_on_c, 12, 45, 50
13, 257269, Note_on_c, 12, 57, 0
13, 257275, Note_on_c, 12, 45, 0
13, 257277, Note_on_c, 12, 56, 44
13, 257279, Note_on_c, 12, 44, 49
13, 257745, Note_on_c, 12, 56, 0
13, 257748, Note_on_c, 12, 44, 0
13, 257759, Note_on_c, 12, 45, 45
13, 257763, Note_on_c, 12, 57, 52
13, 258231, Note_on_c, 12, 45, 0
13, 258233, Note_on_c, 12, 57, 0
13, 258241, Note_on_c, 12, 28, 49
13, 258241, Note_on_c, 12, 40, 50
13, 258709, Note_on_c, 12, 40, 0
13, 258712, Note_on_c, 12, 28, 0
13, 258717, Note_on_c, 12, 30, 53
13, 258719, Note_on_c, 12, 42, 50
13, 258944, Note_on_c, 12, 30, 0
13, 258946, Note_on_c, 12, 42, 0
13, 258956, Note_on_c, 12, 44, 46
13, 258963, Note_on_c, 12, 32, 50
13, 259186, Note_on_c, 12, 44, 0
13, 259189, Note_on_c, 12, 32, 0
13, 259198, Note_on_c, 12, 33, 48
13, 259203, Note_on_c, 12, 45, 49
13, 259666, Note_on_c, 12, 33, 0
13, 259675, Note_on_c, 12, 45, 0
13, 262080, Note_on_c, 12, 28, 45
13, 262080, Note_on_c, 12, 40, 49
13, 262547, Note_on_c, 12, 28, 0
13, 262548, Note_on_c, 12, 40, 0
13, 262557, Note_on_c, 12, 30, 54
13, 262560, Note_on_c, 12, 42, 48
13, 262788, Note_on_c, 12, 30, 0
13, 262791, Note_on_c, 12, 42, 0
13, 262798, Note_on_c, 12, 44, 51
13, 262801, Note_on_c, 12, 32, 45
13, 263028, Note_on_c, 12, 44, 0
13, 263030, Note_on_c, 12, 32, 0
13, 263041, Note_on_c, 12, 45, 54
13, 263043, Note_on_c, 12, 33, 50
13, 263509, Note_on_c, 12, 45, 0
13, 263512, Note_on_c, 12, 33, 0
13, 264002, Note_on_c, 12, 33, 45
13, 264003, Note_on_c, 12, 45, 50
13, 264471, Note_on_c, 12, 33, 0
13, 264474, Note_on_c, 12, 45, 0
13, 264600, Program_c, 12, 48
13, 264958, Note_on_c, 12, 45, 53
13, 264959, Note_on_c, 12, 33, 49
13, 265427, Note_on_c, 12, 33, 0
13, 265427, Note_on_c, 12, 45, 0
13, 265427, End_track
14, 0, Start_track
14, 0, Title_t, "Inits & Add. Controls"
14, 0, Instrument_name_t, "M original  "
14, 0, System_exclusive, 10, 65, 16, 66, 18, 64, 0, 127, 0, 65, 247
14, 2, System_exclusive, 10, 65, 16, 66, 18, 64, 1, 48, 3, 12, 247
14, 4, System_exclusive, 25, 65, 16, 66, 18, 64, 1, 16, 0, 1, 2, 1, 1, 4, 1, 1, 3, 3, 3, 2, 2, 0, 0, 0, 23, 247
14, 7, Control_c, 0, 7, 100
14, 27, Control_c, 0, 10, 55
14, 47, Control_c, 0, 91, 127
14, 67, Control_c, 0, 93, 16
14, 87, Control_c, 1, 7, 100
14, 107, Control_c, 1, 10, 58
14, 127, Control_c, 1, 91, 127
14, 147, Control_c, 1, 93, 17
14, 167, Control_c, 2, 7, 100
14, 187, Control_c, 2, 10, 45
14, 207, Control_c, 2, 91, 127
14, 227, Control_c, 2, 93, 20
14, 247, Control_c, 3, 7, 100
14, 267, Control_c, 3, 10, 68
14, 287, Control_c, 3, 91, 127
14, 307, Control_c, 3, 93, 18
14, 327, Control_c, 4, 7, 100
14, 347, Control_c, 4, 10, 75
14, 367, Control_c, 4, 91, 127
14, 387, Control_c, 4, 93, 19
14, 407, Control_c, 5, 7, 100
14, 427, Control_c, 5, 10, 70
14, 447, Control_c, 5, 91, 127
14, 467, Control_c, 5, 93, 15
14, 487, Control_c, 6, 7, 100
14, 507, Control_c, 6, 10, 60
14, 527, Control_c, 6, 91, 127
14, 547, Control_c, 6, 93, 40
14, 567, Control_c, 7, 7, 100
14, 587, Control_c, 7, 10, 30
14, 607, Control_c, 7, 91, 127
14, 627, Control_c, 7, 93, 41
14, 647, Control_c, 8, 7, 100
14, 667, Control_c, 8, 10, 40
14, 687, Control_c, 8, 91, 127
14, 707, Control_c, 8, 93, 36
14, 727, Control_c, 10, 7, 100
14, 747, Control_c, 10, 10, 101
14, 767, Control_c, 10, 91, 127
14, 787, Control_c, 10, 93, 40
14, 807, Control_c, 11, 7, 100
14, 827, Control_c, 11, 10, 120
14, 847, Control_c, 11, 91, 127
14, 867, Control_c, 11, 93, 39
14, 887, Control_c, 12, 7, 100
14, 907, Control_c, 12, 10, 112
14, 927, Control_c, 12, 91, 127
14, 947, Control_c, 12, 93, 39
14, 79920, Control_c, 7, 99, 1
14, 79924, Control_c, 7, 98, 99
14, 79929, Control_c, 7, 6, 71
14, 80400, Control_c, 7, 99, 1
14, 80404, Control_c, 7, 98, 99
14, 80409, Control_c, 7, 6, 64
14, 87600, Control_c, 7, 99, 1
14, 87604, Control_c, 7, 98, 99
14, 87609, Control_c, 7, 6, 71
14, 88080, Control_c, 7, 99, 1
14, 88084, Control_c, 7, 98, 99
14, 88089, Control_c, 7, 6, 64
14, 201570, Control_c, 7, 99, 1
14, 201574, Control_c, 7, 98, 99
14, 201579, Control_c, 7, 6, 59
14, 205890, Control_c, 7, 99, 1
14, 205894, Control_c, 7, 98, 99
14, 205899, Control_c, 7, 6, 64
14, 205899, End_track
15, 0, Start_track
15, 0, Channel_prefix, 13
15, 0, Title_t, "L. v. Beethoven:"
15, 0, Instrument_name_t, "M Cha14 "
15, 0, Text_t, "Ludwig van Beethoven (1770 - 1827)"
15, 6720, Text_t, " "
15, 6720, End_track
16, 0, Start_track
16, 0, Channel_prefix, 14
16, 0, Title_t, "Symph. No. 7; 2nd Mvmt."
16, 0, Instrument_name_t, "M Cha15 "
16, 0, Text_t, "Symphony No. 7 ( A major), Op. 92, 2nd Movement - ""Allegretto"""
16, 6720, Text_t, " "
16, 6720, End_track
17, 0, Start_track
17, 0, Channel_prefix, 15
17, 0, Title_t, "sequenced by H.-J. Roeder"
17, 0, Instrument_name_t, "M Cha16 "
17, 0, Text_t, "sequenced by Hans-Joachim Roeder (roeder@fmi.uni-passau.de)"
17, 6720, Text_t, " "
17, 6720, End_track
0, 0, End_of_file
