0, 0, Header, 1, 17, 120
1, 0, Start_track
1, 0, Time_signature, 2, 2, 24, 8
1, 0, Key_signature, 0, "major"
1, 0, Tempo, 555556
1, 155060, Tempo, 555556
1, 155080, Tempo, 560748
1, 155090, Tempo, 566038
1, 155110, Tempo, 571429
1, 155120, Tempo, 576923
1, 155140, Tempo, 582524
1, 155150, Tempo, 588235
1, 155170, Tempo, 594059
1, 155180, Tempo, 600000
1, 155200, Tempo, 606061
1, 155210, Tempo, 612245
1, 155230, Tempo, 618557
1, 155240, Tempo, 625000
1, 155260, Tempo, 631579
1, 155270, Tempo, 638298
1, 155290, Tempo, 645161
1, 155300, Tempo, 652174
1, 155320, Tempo, 659341
1, 155330, Tempo, 666667
1, 155350, Tempo, 674157
1, 155360, Tempo, 681818
1, 155380, Tempo, 689655
1, 155390, Tempo, 697674
1, 155410, Tempo, 705882
1, 155420, Tempo, 714286
1, 155440, Tempo, 722892
1, 155450, Tempo, 731707
1, 155470, Tempo, 740741
1, 155480, Tempo, 750000
1, 155500, Tempo, 759494
1, 155510, Tempo, 769231
1, 155530, Tempo, 779221
1, 155540, Tempo, 789474
1, 155560, Tempo, 800000
1, 155570, Tempo, 810811
1, 155590, Tempo, 821918
1, 155600, Tempo, 833333
1, 155620, Tempo, 845070
1, 155630, Tempo, 857143
1, 155650, Tempo, 869565
1, 155660, Tempo, 882353
1, 155680, Tempo, 895522
1, 155690, Tempo, 909091
1, 155710, Tempo, 923077
1, 155720, Tempo, 937500
1, 155740, Tempo, 952381
1, 155750, Tempo, 967742
1, 155770, Tempo, 983607
1, 155780, Tempo, 1000000
1, 155790, Tempo, 1016949
1, 155790, End_track
2, 0, Start_track
2, 0, MIDI_port, 0
2, 0, Title_t, "Flutes"
2, 0, Program_c, 0, 73
2, 0, Control_c, 0, 7, 127
2, 8640, Note_on_c, 0, 81, 127
2, 8640, Note_on_c, 0, 77, 121
2, 8688, Note_on_c, 0, 77, 0
2, 8688, Note_on_c, 0, 81, 0
2, 8700, Note_on_c, 0, 77, 127
2, 8700, Note_on_c, 0, 81, 127
2, 8748, Note_on_c, 0, 81, 0
2, 8748, Note_on_c, 0, 77, 0
2, 8760, Note_on_c, 0, 82, 84
2, 8760, Note_on_c, 0, 79, 89
2, 8808, Note_on_c, 0, 79, 0
2, 8808, Note_on_c, 0, 82, 0
2, 8820, Note_on_c, 0, 82, 83
2, 8820, Note_on_c, 0, 86, 108
2, 8868, Note_on_c, 0, 86, 0
2, 8868, Note_on_c, 0, 82, 0
2, 8880, Note_on_c, 0, 84, 127
2, 8880, Note_on_c, 0, 81, 121
2, 8928, Note_on_c, 0, 81, 0
2, 8928, Note_on_c, 0, 84, 0
2, 8940, Note_on_c, 0, 79, 118
2, 8940, Note_on_c, 0, 82, 109
2, 8964, Note_on_c, 0, 82, 0
2, 8964, Note_on_c, 0, 79, 0
2, 8970, Note_on_c, 0, 77, 104
2, 8970, Note_on_c, 0, 81, 116
2, 8994, Note_on_c, 0, 81, 0
2, 8994, Note_on_c, 0, 77, 0
2, 9000, Note_on_c, 0, 79, 123
2, 9000, Note_on_c, 0, 76, 117
2, 9048, Note_on_c, 0, 76, 0
2, 9048, Note_on_c, 0, 79, 0
2, 9060, Note_on_c, 0, 72, 123
2, 9108, Note_on_c, 0, 72, 0
2, 9120, Note_on_c, 0, 77, 127
2, 9168, Note_on_c, 0, 77, 0
2, 9180, Note_on_c, 0, 79, 127
2, 9180, Note_on_c, 0, 76, 107
2, 9228, Note_on_c, 0, 76, 0
2, 9228, Note_on_c, 0, 79, 0
2, 9240, Note_on_c, 0, 81, 127
2, 9240, Note_on_c, 0, 77, 117
2, 9288, Note_on_c, 0, 77, 0
2, 9288, Note_on_c, 0, 81, 0
2, 9300, Note_on_c, 0, 79, 127
2, 9300, Note_on_c, 0, 82, 113
2, 9324, Note_on_c, 0, 82, 0
2, 9324, Note_on_c, 0, 79, 0
2, 9330, Note_on_c, 0, 77, 105
2, 9330, Note_on_c, 0, 81, 127
2, 9354, Note_on_c, 0, 81, 0
2, 9354, Note_on_c, 0, 77, 0
2, 9360, Note_on_c, 0, 79, 127
2, 9360, Note_on_c, 0, 76, 113
2, 9408, Note_on_c, 0, 76, 0
2, 9408, Note_on_c, 0, 79, 0
2, 9420, Note_on_c, 0, 77, 98
2, 9420, Note_on_c, 0, 81, 111
2, 9468, Note_on_c, 0, 81, 0
2, 9468, Note_on_c, 0, 77, 0
2, 9480, Note_on_c, 0, 82, 91
2, 9480, Note_on_c, 0, 79, 127
2, 9528, Note_on_c, 0, 79, 0
2, 9528, Note_on_c, 0, 82, 0
2, 9540, Note_on_c, 0, 81, 120
2, 9540, Note_on_c, 0, 84, 104
2, 9564, Note_on_c, 0, 84, 0
2, 9564, Note_on_c, 0, 81, 0
2, 9570, Note_on_c, 0, 79, 110
2, 9570, Note_on_c, 0, 82, 84
2, 9594, Note_on_c, 0, 82, 0
2, 9594, Note_on_c, 0, 79, 0
2, 9600, Note_on_c, 0, 81, 123
2, 9600, Note_on_c, 0, 77, 114
2, 9648, Note_on_c, 0, 77, 0
2, 9648, Note_on_c, 0, 81, 0
2, 9660, Note_on_c, 0, 84, 107
2, 9660, Note_on_c, 0, 81, 105
2, 9708, Note_on_c, 0, 81, 0
2, 9708, Note_on_c, 0, 84, 0
2, 9720, Note_on_c, 0, 84, 127
2, 9720, Note_on_c, 0, 81, 127
2, 9768, Note_on_c, 0, 81, 0
2, 9768, Note_on_c, 0, 84, 0
2, 9780, Note_on_c, 0, 84, 127
2, 9780, Note_on_c, 0, 81, 127
2, 9828, Note_on_c, 0, 81, 0
2, 9828, Note_on_c, 0, 84, 0
2, 9840, Note_on_c, 0, 86, 109
2, 9852, Note_on_c, 0, 86, 0
2, 9855, Note_on_c, 0, 84, 109
2, 9867, Note_on_c, 0, 84, 0
2, 9870, Note_on_c, 0, 83, 114
2, 9882, Note_on_c, 0, 83, 0
2, 9885, Note_on_c, 0, 84, 117
2, 9933, Note_on_c, 0, 84, 0
2, 9945, Note_on_c, 0, 86, 123
2, 9957, Note_on_c, 0, 86, 0
2, 9960, Note_on_c, 0, 84, 113
2, 9972, Note_on_c, 0, 84, 0
2, 9975, Note_on_c, 0, 83, 113
2, 9987, Note_on_c, 0, 83, 0
2, 9990, Note_on_c, 0, 84, 120
2, 10080, Note_on_c, 0, 76, 127
2, 10080, Note_on_c, 0, 72, 127
2, 10086, Note_on_c, 0, 84, 0
2, 10128, Note_on_c, 0, 72, 0
2, 10128, Note_on_c, 0, 76, 0
2, 10140, Note_on_c, 0, 74, 118
2, 10140, Note_on_c, 0, 77, 127
2, 10188, Note_on_c, 0, 77, 0
2, 10188, Note_on_c, 0, 74, 0
2, 10200, Note_on_c, 0, 79, 127
2, 10200, Note_on_c, 0, 76, 127
2, 10248, Note_on_c, 0, 76, 0
2, 10248, Note_on_c, 0, 79, 0
2, 10260, Note_on_c, 0, 77, 127
2, 10260, Note_on_c, 0, 81, 121
2, 10284, Note_on_c, 0, 81, 0
2, 10284, Note_on_c, 0, 77, 0
2, 10290, Note_on_c, 0, 79, 116
2, 10290, Note_on_c, 0, 76, 127
2, 10314, Note_on_c, 0, 76, 0
2, 10314, Note_on_c, 0, 79, 0
2, 10320, Note_on_c, 0, 77, 123
2, 10320, Note_on_c, 0, 74, 109
2, 10368, Note_on_c, 0, 74, 0
2, 10368, Note_on_c, 0, 77, 0
2, 10380, Note_on_c, 0, 76, 107
2, 10380, Note_on_c, 0, 79, 118
2, 10428, Note_on_c, 0, 79, 0
2, 10428, Note_on_c, 0, 76, 0
2, 10440, Note_on_c, 0, 77, 110
2, 10440, Note_on_c, 0, 81, 127
2, 10488, Note_on_c, 0, 81, 0
2, 10488, Note_on_c, 0, 77, 0
2, 10500, Note_on_c, 0, 82, 118
2, 10500, Note_on_c, 0, 79, 127
2, 10524, Note_on_c, 0, 79, 0
2, 10524, Note_on_c, 0, 82, 0
2, 10530, Note_on_c, 0, 81, 107
2, 10530, Note_on_c, 0, 77, 99
2, 10554, Note_on_c, 0, 77, 0
2, 10554, Note_on_c, 0, 81, 0
2, 10560, Note_on_c, 0, 79, 113
2, 10560, Note_on_c, 0, 76, 117
2, 10608, Note_on_c, 0, 76, 0
2, 10608, Note_on_c, 0, 79, 0
2, 10620, Note_on_c, 0, 82, 99
2, 10620, Note_on_c, 0, 79, 117
2, 10668, Note_on_c, 0, 79, 0
2, 10668, Note_on_c, 0, 82, 0
2, 10680, Note_on_c, 0, 79, 127
2, 10680, Note_on_c, 0, 82, 113
2, 10728, Note_on_c, 0, 82, 0
2, 10728, Note_on_c, 0, 79, 0
2, 10740, Note_on_c, 0, 79, 127
2, 10740, Note_on_c, 0, 82, 126
2, 10788, Note_on_c, 0, 82, 0
2, 10788, Note_on_c, 0, 79, 0
2, 10800, Note_on_c, 0, 84, 112
2, 10812, Note_on_c, 0, 84, 0
2, 10815, Note_on_c, 0, 82, 86
2, 10827, Note_on_c, 0, 82, 0
2, 10830, Note_on_c, 0, 81, 103
2, 10842, Note_on_c, 0, 81, 0
2, 10845, Note_on_c, 0, 82, 97
2, 10893, Note_on_c, 0, 82, 0
2, 10905, Note_on_c, 0, 86, 121
2, 10911, Note_on_c, 0, 86, 0
2, 10912, Note_on_c, 0, 84, 104
2, 10918, Note_on_c, 0, 84, 0
2, 10920, Note_on_c, 0, 83, 123
2, 10926, Note_on_c, 0, 83, 0
2, 10927, Note_on_c, 0, 84, 127
2, 11023, Note_on_c, 0, 84, 0
2, 11160, Note_on_c, 0, 86, 110
2, 11172, Note_on_c, 0, 86, 0
2, 11175, Note_on_c, 0, 84, 109
2, 11187, Note_on_c, 0, 84, 0
2, 11190, Note_on_c, 0, 83, 113
2, 11202, Note_on_c, 0, 83, 0
2, 11205, Note_on_c, 0, 84, 127
2, 11253, Note_on_c, 0, 84, 0
2, 11400, Note_on_c, 0, 86, 118
2, 11406, Note_on_c, 0, 86, 0
2, 11407, Note_on_c, 0, 84, 109
2, 11413, Note_on_c, 0, 84, 0
2, 11415, Note_on_c, 0, 83, 111
2, 11421, Note_on_c, 0, 83, 0
2, 11422, Note_on_c, 0, 84, 107
2, 11518, Note_on_c, 0, 84, 0
2, 11640, Note_on_c, 0, 86, 127
2, 11646, Note_on_c, 0, 86, 0
2, 11647, Note_on_c, 0, 84, 106
2, 11653, Note_on_c, 0, 84, 0
2, 11655, Note_on_c, 0, 83, 123
2, 11661, Note_on_c, 0, 83, 0
2, 11662, Note_on_c, 0, 84, 127
2, 11710, Note_on_c, 0, 84, 0
2, 11880, Note_on_c, 0, 86, 127
2, 11886, Note_on_c, 0, 86, 0
2, 11887, Note_on_c, 0, 84, 116
2, 11893, Note_on_c, 0, 84, 0
2, 11895, Note_on_c, 0, 83, 117
2, 11901, Note_on_c, 0, 83, 0
2, 11902, Note_on_c, 0, 84, 117
2, 11950, Note_on_c, 0, 84, 0
2, 12000, Note_on_c, 0, 86, 116
2, 12006, Note_on_c, 0, 86, 0
2, 12007, Note_on_c, 0, 84, 111
2, 12013, Note_on_c, 0, 84, 0
2, 12015, Note_on_c, 0, 83, 116
2, 12021, Note_on_c, 0, 83, 0
2, 12022, Note_on_c, 0, 84, 117
2, 12070, Note_on_c, 0, 84, 0
2, 12240, Note_on_c, 0, 86, 120
2, 12246, Note_on_c, 0, 86, 0
2, 12247, Note_on_c, 0, 84, 105
2, 12253, Note_on_c, 0, 84, 0
2, 12255, Note_on_c, 0, 83, 105
2, 12261, Note_on_c, 0, 83, 0
2, 12262, Note_on_c, 0, 84, 110
2, 12358, Note_on_c, 0, 84, 0
2, 12442, Note_on_c, 0, 84, 110
2, 12480, Note_on_c, 0, 81, 123
2, 12480, Note_on_c, 0, 77, 114
2, 12490, Note_on_c, 0, 84, 0
2, 12528, Note_on_c, 0, 77, 0
2, 12528, Note_on_c, 0, 81, 0
2, 18720, Note_on_c, 0, 79, 102
2, 19152, Note_on_c, 0, 79, 0
2, 19200, Note_on_c, 0, 84, 94
2, 19632, Note_on_c, 0, 84, 0
2, 19680, Note_on_c, 0, 83, 127
2, 19776, Note_on_c, 0, 83, 0
2, 19800, Note_on_c, 0, 83, 123
2, 19896, Note_on_c, 0, 83, 0
2, 19920, Note_on_c, 0, 83, 127
2, 20016, Note_on_c, 0, 83, 0
2, 20040, Note_on_c, 0, 86, 117
2, 20088, Note_on_c, 0, 86, 0
2, 20100, Note_on_c, 0, 83, 125
2, 20148, Note_on_c, 0, 83, 0
2, 20160, Note_on_c, 0, 84, 123
2, 20256, Note_on_c, 0, 84, 0
2, 20280, Note_on_c, 0, 84, 109
2, 20376, Note_on_c, 0, 84, 0
2, 20400, Note_on_c, 0, 84, 106
2, 20496, Note_on_c, 0, 84, 0
2, 20520, Note_on_c, 0, 88, 123
2, 20568, Note_on_c, 0, 88, 0
2, 20580, Note_on_c, 0, 84, 121
2, 20628, Note_on_c, 0, 84, 0
2, 20640, Note_on_c, 0, 93, 111
2, 20688, Note_on_c, 0, 93, 0
2, 20700, Note_on_c, 0, 91, 127
2, 20748, Note_on_c, 0, 91, 0
2, 20760, Note_on_c, 0, 89, 109
2, 20808, Note_on_c, 0, 89, 0
2, 20820, Note_on_c, 0, 86, 121
2, 20868, Note_on_c, 0, 86, 0
2, 20880, Note_on_c, 0, 79, 113
2, 20928, Note_on_c, 0, 79, 0
2, 20940, Note_on_c, 0, 89, 118
2, 20988, Note_on_c, 0, 89, 0
2, 21000, Note_on_c, 0, 86, 116
2, 21048, Note_on_c, 0, 86, 0
2, 21060, Note_on_c, 0, 79, 107
2, 21108, Note_on_c, 0, 79, 0
2, 21120, Note_on_c, 0, 93, 114
2, 21168, Note_on_c, 0, 93, 0
2, 21180, Note_on_c, 0, 91, 108
2, 21228, Note_on_c, 0, 91, 0
2, 21240, Note_on_c, 0, 88, 116
2, 21288, Note_on_c, 0, 88, 0
2, 21300, Note_on_c, 0, 84, 104
2, 21348, Note_on_c, 0, 84, 0
2, 21360, Note_on_c, 0, 79, 118
2, 21408, Note_on_c, 0, 79, 0
2, 21420, Note_on_c, 0, 88, 127
2, 21468, Note_on_c, 0, 88, 0
2, 21480, Note_on_c, 0, 84, 125
2, 21528, Note_on_c, 0, 84, 0
2, 21540, Note_on_c, 0, 79, 117
2, 21588, Note_on_c, 0, 79, 0
2, 21600, Note_on_c, 0, 93, 116
2, 21648, Note_on_c, 0, 93, 0
2, 21660, Note_on_c, 0, 91, 127
2, 21708, Note_on_c, 0, 91, 0
2, 21720, Note_on_c, 0, 89, 121
2, 21768, Note_on_c, 0, 89, 0
2, 21780, Note_on_c, 0, 86, 121
2, 21828, Note_on_c, 0, 86, 0
2, 21840, Note_on_c, 0, 79, 103
2, 21888, Note_on_c, 0, 79, 0
2, 21900, Note_on_c, 0, 89, 127
2, 21948, Note_on_c, 0, 89, 0
2, 21960, Note_on_c, 0, 86, 125
2, 22008, Note_on_c, 0, 86, 0
2, 22020, Note_on_c, 0, 79, 105
2, 22068, Note_on_c, 0, 79, 0
2, 22080, Note_on_c, 0, 88, 105
2, 22080, Note_on_c, 0, 91, 110
2, 22128, Note_on_c, 0, 91, 0
2, 22128, Note_on_c, 0, 88, 0
2, 22800, Note_on_c, 0, 89, 116
2, 22800, Note_on_c, 0, 93, 110
2, 22848, Note_on_c, 0, 93, 0
2, 22848, Note_on_c, 0, 89, 0
2, 24480, Note_on_c, 0, 89, 109
2, 24480, Note_on_c, 0, 93, 111
2, 24528, Note_on_c, 0, 93, 0
2, 24528, Note_on_c, 0, 89, 0
2, 26760, Note_on_c, 0, 93, 111
2, 26760, Note_on_c, 0, 89, 107
2, 26808, Note_on_c, 0, 89, 0
2, 26808, Note_on_c, 0, 93, 0
2, 26880, Note_on_c, 0, 88, 107
2, 26880, Note_on_c, 0, 91, 111
2, 26928, Note_on_c, 0, 91, 0
2, 26928, Note_on_c, 0, 88, 0
2, 27000, Note_on_c, 0, 84, 109
2, 27000, Note_on_c, 0, 88, 121
2, 27048, Note_on_c, 0, 88, 0
2, 27048, Note_on_c, 0, 84, 0
2, 27120, Note_on_c, 0, 83, 113
2, 27120, Note_on_c, 0, 86, 106
2, 27168, Note_on_c, 0, 86, 0
2, 27168, Note_on_c, 0, 83, 0
2, 27240, Note_on_c, 0, 91, 104
2, 27240, Note_on_c, 0, 83, 102
2, 27288, Note_on_c, 0, 83, 0
2, 27288, Note_on_c, 0, 91, 0
2, 27360, Note_on_c, 0, 72, 107
2, 27360, Note_on_c, 0, 84, 116
2, 27456, Note_on_c, 0, 84, 0
2, 27456, Note_on_c, 0, 72, 0
2, 27480, Note_on_c, 0, 67, 105
2, 27480, Note_on_c, 0, 79, 109
2, 27792, Note_on_c, 0, 79, 0
2, 27792, Note_on_c, 0, 67, 0
2, 27840, Note_on_c, 0, 88, 114
2, 27840, Note_on_c, 0, 76, 107
2, 27936, Note_on_c, 0, 76, 0
2, 27936, Note_on_c, 0, 88, 0
2, 27960, Note_on_c, 0, 84, 116
2, 27960, Note_on_c, 0, 72, 102
2, 28272, Note_on_c, 0, 72, 0
2, 28272, Note_on_c, 0, 84, 0
2, 28320, Note_on_c, 0, 84, 106
2, 28320, Note_on_c, 0, 72, 106
2, 28416, Note_on_c, 0, 72, 0
2, 28416, Note_on_c, 0, 84, 0
2, 28440, Note_on_c, 0, 79, 103
2, 28440, Note_on_c, 0, 67, 103
2, 28752, Note_on_c, 0, 67, 0
2, 28752, Note_on_c, 0, 79, 0
2, 28800, Note_on_c, 0, 88, 102
2, 28800, Note_on_c, 0, 76, 105
2, 28896, Note_on_c, 0, 76, 0
2, 28896, Note_on_c, 0, 88, 0
2, 28920, Note_on_c, 0, 84, 99
2, 28920, Note_on_c, 0, 72, 100
2, 29232, Note_on_c, 0, 72, 0
2, 29232, Note_on_c, 0, 84, 0
2, 29280, Note_on_c, 0, 84, 127
2, 29280, Note_on_c, 0, 72, 127
2, 29376, Note_on_c, 0, 72, 0
2, 29376, Note_on_c, 0, 84, 0
2, 29400, Note_on_c, 0, 67, 127
2, 29400, Note_on_c, 0, 79, 127
2, 29496, Note_on_c, 0, 79, 0
2, 29496, Note_on_c, 0, 67, 0
2, 29520, Note_on_c, 0, 84, 127
2, 29520, Note_on_c, 0, 72, 127
2, 29616, Note_on_c, 0, 72, 0
2, 29616, Note_on_c, 0, 84, 0
2, 29640, Note_on_c, 0, 67, 127
2, 29640, Note_on_c, 0, 79, 127
2, 29736, Note_on_c, 0, 79, 0
2, 29736, Note_on_c, 0, 67, 0
2, 29760, Note_on_c, 0, 84, 127
2, 29760, Note_on_c, 0, 72, 127
2, 29856, Note_on_c, 0, 72, 0
2, 29856, Note_on_c, 0, 84, 0
2, 29880, Note_on_c, 0, 67, 127
2, 29880, Note_on_c, 0, 79, 127
2, 29976, Note_on_c, 0, 79, 0
2, 29976, Note_on_c, 0, 67, 0
2, 30000, Note_on_c, 0, 84, 127
2, 30000, Note_on_c, 0, 72, 127
2, 30096, Note_on_c, 0, 72, 0
2, 30096, Note_on_c, 0, 84, 0
2, 30120, Note_on_c, 0, 79, 117
2, 30120, Note_on_c, 0, 67, 127
2, 30216, Note_on_c, 0, 67, 0
2, 30216, Note_on_c, 0, 79, 0
2, 30240, Note_on_c, 0, 72, 127
2, 30240, Note_on_c, 0, 84, 118
2, 30288, Note_on_c, 0, 84, 0
2, 30288, Note_on_c, 0, 72, 0
2, 41760, Note_on_c, 0, 81, 127
2, 41760, Note_on_c, 0, 77, 121
2, 41808, Note_on_c, 0, 77, 0
2, 41808, Note_on_c, 0, 81, 0
2, 41820, Note_on_c, 0, 77, 127
2, 41820, Note_on_c, 0, 81, 127
2, 41868, Note_on_c, 0, 81, 0
2, 41868, Note_on_c, 0, 77, 0
2, 41880, Note_on_c, 0, 82, 84
2, 41880, Note_on_c, 0, 79, 89
2, 41928, Note_on_c, 0, 79, 0
2, 41928, Note_on_c, 0, 82, 0
2, 41940, Note_on_c, 0, 82, 83
2, 41940, Note_on_c, 0, 86, 108
2, 41988, Note_on_c, 0, 86, 0
2, 41988, Note_on_c, 0, 82, 0
2, 42000, Note_on_c, 0, 84, 127
2, 42000, Note_on_c, 0, 81, 121
2, 42048, Note_on_c, 0, 81, 0
2, 42048, Note_on_c, 0, 84, 0
2, 42060, Note_on_c, 0, 79, 118
2, 42060, Note_on_c, 0, 82, 109
2, 42084, Note_on_c, 0, 82, 0
2, 42084, Note_on_c, 0, 79, 0
2, 42090, Note_on_c, 0, 77, 104
2, 42090, Note_on_c, 0, 81, 116
2, 42114, Note_on_c, 0, 81, 0
2, 42114, Note_on_c, 0, 77, 0
2, 42120, Note_on_c, 0, 79, 123
2, 42120, Note_on_c, 0, 76, 117
2, 42168, Note_on_c, 0, 76, 0
2, 42168, Note_on_c, 0, 79, 0
2, 42180, Note_on_c, 0, 72, 123
2, 42228, Note_on_c, 0, 72, 0
2, 42240, Note_on_c, 0, 77, 127
2, 42288, Note_on_c, 0, 77, 0
2, 42300, Note_on_c, 0, 79, 127
2, 42300, Note_on_c, 0, 76, 107
2, 42348, Note_on_c, 0, 76, 0
2, 42348, Note_on_c, 0, 79, 0
2, 42360, Note_on_c, 0, 81, 127
2, 42360, Note_on_c, 0, 77, 117
2, 42408, Note_on_c, 0, 77, 0
2, 42408, Note_on_c, 0, 81, 0
2, 42420, Note_on_c, 0, 79, 127
2, 42420, Note_on_c, 0, 82, 113
2, 42444, Note_on_c, 0, 82, 0
2, 42444, Note_on_c, 0, 79, 0
2, 42450, Note_on_c, 0, 77, 105
2, 42450, Note_on_c, 0, 81, 127
2, 42474, Note_on_c, 0, 81, 0
2, 42474, Note_on_c, 0, 77, 0
2, 42480, Note_on_c, 0, 79, 127
2, 42480, Note_on_c, 0, 76, 113
2, 42528, Note_on_c, 0, 76, 0
2, 42528, Note_on_c, 0, 79, 0
2, 42540, Note_on_c, 0, 77, 98
2, 42540, Note_on_c, 0, 81, 111
2, 42588, Note_on_c, 0, 81, 0
2, 42588, Note_on_c, 0, 77, 0
2, 42600, Note_on_c, 0, 82, 91
2, 42600, Note_on_c, 0, 79, 127
2, 42648, Note_on_c, 0, 79, 0
2, 42648, Note_on_c, 0, 82, 0
2, 42660, Note_on_c, 0, 81, 120
2, 42660, Note_on_c, 0, 84, 104
2, 42684, Note_on_c, 0, 84, 0
2, 42684, Note_on_c, 0, 81, 0
2, 42690, Note_on_c, 0, 79, 110
2, 42690, Note_on_c, 0, 82, 84
2, 42714, Note_on_c, 0, 82, 0
2, 42714, Note_on_c, 0, 79, 0
2, 42720, Note_on_c, 0, 81, 123
2, 42720, Note_on_c, 0, 77, 114
2, 42768, Note_on_c, 0, 77, 0
2, 42768, Note_on_c, 0, 81, 0
2, 42780, Note_on_c, 0, 84, 107
2, 42780, Note_on_c, 0, 81, 105
2, 42828, Note_on_c, 0, 81, 0
2, 42828, Note_on_c, 0, 84, 0
2, 42840, Note_on_c, 0, 84, 127
2, 42840, Note_on_c, 0, 81, 127
2, 42888, Note_on_c, 0, 81, 0
2, 42888, Note_on_c, 0, 84, 0
2, 42900, Note_on_c, 0, 84, 127
2, 42900, Note_on_c, 0, 81, 127
2, 42948, Note_on_c, 0, 81, 0
2, 42948, Note_on_c, 0, 84, 0
2, 42960, Note_on_c, 0, 86, 109
2, 42972, Note_on_c, 0, 86, 0
2, 42975, Note_on_c, 0, 84, 109
2, 42987, Note_on_c, 0, 84, 0
2, 42990, Note_on_c, 0, 83, 114
2, 43002, Note_on_c, 0, 83, 0
2, 43005, Note_on_c, 0, 84, 117
2, 43053, Note_on_c, 0, 84, 0
2, 43065, Note_on_c, 0, 86, 123
2, 43077, Note_on_c, 0, 86, 0
2, 43080, Note_on_c, 0, 84, 113
2, 43092, Note_on_c, 0, 84, 0
2, 43095, Note_on_c, 0, 83, 113
2, 43107, Note_on_c, 0, 83, 0
2, 43110, Note_on_c, 0, 84, 120
2, 43200, Note_on_c, 0, 76, 127
2, 43200, Note_on_c, 0, 72, 127
2, 43206, Note_on_c, 0, 84, 0
2, 43248, Note_on_c, 0, 72, 0
2, 43248, Note_on_c, 0, 76, 0
2, 43260, Note_on_c, 0, 74, 118
2, 43260, Note_on_c, 0, 77, 127
2, 43308, Note_on_c, 0, 77, 0
2, 43308, Note_on_c, 0, 74, 0
2, 43320, Note_on_c, 0, 79, 127
2, 43320, Note_on_c, 0, 76, 127
2, 43368, Note_on_c, 0, 76, 0
2, 43368, Note_on_c, 0, 79, 0
2, 43380, Note_on_c, 0, 77, 127
2, 43380, Note_on_c, 0, 81, 121
2, 43404, Note_on_c, 0, 81, 0
2, 43404, Note_on_c, 0, 77, 0
2, 43410, Note_on_c, 0, 79, 116
2, 43410, Note_on_c, 0, 76, 127
2, 43434, Note_on_c, 0, 76, 0
2, 43434, Note_on_c, 0, 79, 0
2, 43440, Note_on_c, 0, 77, 123
2, 43440, Note_on_c, 0, 74, 109
2, 43488, Note_on_c, 0, 74, 0
2, 43488, Note_on_c, 0, 77, 0
2, 43500, Note_on_c, 0, 76, 107
2, 43500, Note_on_c, 0, 79, 118
2, 43548, Note_on_c, 0, 79, 0
2, 43548, Note_on_c, 0, 76, 0
2, 43560, Note_on_c, 0, 77, 110
2, 43560, Note_on_c, 0, 81, 127
2, 43608, Note_on_c, 0, 81, 0
2, 43608, Note_on_c, 0, 77, 0
2, 43620, Note_on_c, 0, 82, 118
2, 43620, Note_on_c, 0, 79, 127
2, 43644, Note_on_c, 0, 79, 0
2, 43644, Note_on_c, 0, 82, 0
2, 43650, Note_on_c, 0, 81, 107
2, 43650, Note_on_c, 0, 77, 99
2, 43674, Note_on_c, 0, 77, 0
2, 43674, Note_on_c, 0, 81, 0
2, 43680, Note_on_c, 0, 79, 113
2, 43680, Note_on_c, 0, 76, 117
2, 43728, Note_on_c, 0, 76, 0
2, 43728, Note_on_c, 0, 79, 0
2, 43740, Note_on_c, 0, 82, 99
2, 43740, Note_on_c, 0, 79, 117
2, 43788, Note_on_c, 0, 79, 0
2, 43788, Note_on_c, 0, 82, 0
2, 43800, Note_on_c, 0, 79, 127
2, 43800, Note_on_c, 0, 82, 113
2, 43848, Note_on_c, 0, 82, 0
2, 43848, Note_on_c, 0, 79, 0
2, 43860, Note_on_c, 0, 79, 127
2, 43860, Note_on_c, 0, 82, 126
2, 43908, Note_on_c, 0, 82, 0
2, 43908, Note_on_c, 0, 79, 0
2, 43920, Note_on_c, 0, 84, 112
2, 43932, Note_on_c, 0, 84, 0
2, 43935, Note_on_c, 0, 82, 86
2, 43947, Note_on_c, 0, 82, 0
2, 43950, Note_on_c, 0, 81, 103
2, 43962, Note_on_c, 0, 81, 0
2, 43965, Note_on_c, 0, 82, 97
2, 44013, Note_on_c, 0, 82, 0
2, 44025, Note_on_c, 0, 86, 121
2, 44031, Note_on_c, 0, 86, 0
2, 44032, Note_on_c, 0, 84, 104
2, 44038, Note_on_c, 0, 84, 0
2, 44040, Note_on_c, 0, 83, 123
2, 44046, Note_on_c, 0, 83, 0
2, 44047, Note_on_c, 0, 84, 127
2, 44143, Note_on_c, 0, 84, 0
2, 44280, Note_on_c, 0, 86, 110
2, 44292, Note_on_c, 0, 86, 0
2, 44295, Note_on_c, 0, 84, 109
2, 44307, Note_on_c, 0, 84, 0
2, 44310, Note_on_c, 0, 83, 113
2, 44322, Note_on_c, 0, 83, 0
2, 44325, Note_on_c, 0, 84, 127
2, 44373, Note_on_c, 0, 84, 0
2, 44520, Note_on_c, 0, 86, 118
2, 44526, Note_on_c, 0, 86, 0
2, 44527, Note_on_c, 0, 84, 109
2, 44533, Note_on_c, 0, 84, 0
2, 44535, Note_on_c, 0, 83, 111
2, 44541, Note_on_c, 0, 83, 0
2, 44542, Note_on_c, 0, 84, 107
2, 44638, Note_on_c, 0, 84, 0
2, 44760, Note_on_c, 0, 86, 127
2, 44766, Note_on_c, 0, 86, 0
2, 44767, Note_on_c, 0, 84, 106
2, 44773, Note_on_c, 0, 84, 0
2, 44775, Note_on_c, 0, 83, 123
2, 44781, Note_on_c, 0, 83, 0
2, 44782, Note_on_c, 0, 84, 127
2, 44830, Note_on_c, 0, 84, 0
2, 45000, Note_on_c, 0, 86, 127
2, 45006, Note_on_c, 0, 86, 0
2, 45007, Note_on_c, 0, 84, 116
2, 45013, Note_on_c, 0, 84, 0
2, 45015, Note_on_c, 0, 83, 117
2, 45021, Note_on_c, 0, 83, 0
2, 45022, Note_on_c, 0, 84, 117
2, 45070, Note_on_c, 0, 84, 0
2, 45120, Note_on_c, 0, 86, 116
2, 45126, Note_on_c, 0, 86, 0
2, 45127, Note_on_c, 0, 84, 111
2, 45133, Note_on_c, 0, 84, 0
2, 45135, Note_on_c, 0, 83, 116
2, 45141, Note_on_c, 0, 83, 0
2, 45142, Note_on_c, 0, 84, 117
2, 45190, Note_on_c, 0, 84, 0
2, 45360, Note_on_c, 0, 86, 120
2, 45366, Note_on_c, 0, 86, 0
2, 45367, Note_on_c, 0, 84, 105
2, 45373, Note_on_c, 0, 84, 0
2, 45375, Note_on_c, 0, 83, 105
2, 45381, Note_on_c, 0, 83, 0
2, 45382, Note_on_c, 0, 84, 110
2, 45478, Note_on_c, 0, 84, 0
2, 45562, Note_on_c, 0, 84, 110
2, 45600, Note_on_c, 0, 81, 123
2, 45600, Note_on_c, 0, 77, 114
2, 45610, Note_on_c, 0, 84, 0
2, 45648, Note_on_c, 0, 77, 0
2, 45648, Note_on_c, 0, 81, 0
2, 51840, Note_on_c, 0, 79, 102
2, 52272, Note_on_c, 0, 79, 0
2, 52320, Note_on_c, 0, 84, 94
2, 52752, Note_on_c, 0, 84, 0
2, 52800, Note_on_c, 0, 83, 127
2, 52896, Note_on_c, 0, 83, 0
2, 52920, Note_on_c, 0, 83, 123
2, 53016, Note_on_c, 0, 83, 0
2, 53040, Note_on_c, 0, 83, 127
2, 53136, Note_on_c, 0, 83, 0
2, 53160, Note_on_c, 0, 86, 117
2, 53208, Note_on_c, 0, 86, 0
2, 53220, Note_on_c, 0, 83, 125
2, 53268, Note_on_c, 0, 83, 0
2, 53280, Note_on_c, 0, 84, 123
2, 53376, Note_on_c, 0, 84, 0
2, 53400, Note_on_c, 0, 84, 109
2, 53496, Note_on_c, 0, 84, 0
2, 53520, Note_on_c, 0, 84, 106
2, 53616, Note_on_c, 0, 84, 0
2, 53640, Note_on_c, 0, 88, 123
2, 53688, Note_on_c, 0, 88, 0
2, 53700, Note_on_c, 0, 84, 121
2, 53748, Note_on_c, 0, 84, 0
2, 53760, Note_on_c, 0, 93, 111
2, 53808, Note_on_c, 0, 93, 0
2, 53820, Note_on_c, 0, 91, 127
2, 53868, Note_on_c, 0, 91, 0
2, 53880, Note_on_c, 0, 89, 109
2, 53928, Note_on_c, 0, 89, 0
2, 53940, Note_on_c, 0, 86, 121
2, 53988, Note_on_c, 0, 86, 0
2, 54000, Note_on_c, 0, 79, 113
2, 54048, Note_on_c, 0, 79, 0
2, 54060, Note_on_c, 0, 89, 118
2, 54108, Note_on_c, 0, 89, 0
2, 54120, Note_on_c, 0, 86, 116
2, 54168, Note_on_c, 0, 86, 0
2, 54180, Note_on_c, 0, 79, 107
2, 54228, Note_on_c, 0, 79, 0
2, 54240, Note_on_c, 0, 93, 114
2, 54288, Note_on_c, 0, 93, 0
2, 54300, Note_on_c, 0, 91, 108
2, 54348, Note_on_c, 0, 91, 0
2, 54360, Note_on_c, 0, 88, 116
2, 54408, Note_on_c, 0, 88, 0
2, 54420, Note_on_c, 0, 84, 104
2, 54468, Note_on_c, 0, 84, 0
2, 54480, Note_on_c, 0, 79, 118
2, 54528, Note_on_c, 0, 79, 0
2, 54540, Note_on_c, 0, 88, 127
2, 54588, Note_on_c, 0, 88, 0
2, 54600, Note_on_c, 0, 84, 125
2, 54648, Note_on_c, 0, 84, 0
2, 54660, Note_on_c, 0, 79, 117
2, 54708, Note_on_c, 0, 79, 0
2, 54720, Note_on_c, 0, 93, 116
2, 54768, Note_on_c, 0, 93, 0
2, 54780, Note_on_c, 0, 91, 127
2, 54828, Note_on_c, 0, 91, 0
2, 54840, Note_on_c, 0, 89, 121
2, 54888, Note_on_c, 0, 89, 0
2, 54900, Note_on_c, 0, 86, 121
2, 54948, Note_on_c, 0, 86, 0
2, 54960, Note_on_c, 0, 79, 103
2, 55008, Note_on_c, 0, 79, 0
2, 55020, Note_on_c, 0, 89, 127
2, 55068, Note_on_c, 0, 89, 0
2, 55080, Note_on_c, 0, 86, 125
2, 55128, Note_on_c, 0, 86, 0
2, 55140, Note_on_c, 0, 79, 105
2, 55188, Note_on_c, 0, 79, 0
2, 55200, Note_on_c, 0, 88, 105
2, 55200, Note_on_c, 0, 91, 110
2, 55248, Note_on_c, 0, 91, 0
2, 55248, Note_on_c, 0, 88, 0
2, 55920, Note_on_c, 0, 89, 116
2, 55920, Note_on_c, 0, 93, 110
2, 55968, Note_on_c, 0, 93, 0
2, 55968, Note_on_c, 0, 89, 0
2, 57600, Note_on_c, 0, 89, 109
2, 57600, Note_on_c, 0, 93, 111
2, 57648, Note_on_c, 0, 93, 0
2, 57648, Note_on_c, 0, 89, 0
2, 59880, Note_on_c, 0, 93, 111
2, 59880, Note_on_c, 0, 89, 107
2, 59928, Note_on_c, 0, 89, 0
2, 59928, Note_on_c, 0, 93, 0
2, 60000, Note_on_c, 0, 88, 107
2, 60000, Note_on_c, 0, 91, 111
2, 60048, Note_on_c, 0, 91, 0
2, 60048, Note_on_c, 0, 88, 0
2, 60120, Note_on_c, 0, 84, 109
2, 60120, Note_on_c, 0, 88, 121
2, 60168, Note_on_c, 0, 88, 0
2, 60168, Note_on_c, 0, 84, 0
2, 60240, Note_on_c, 0, 83, 113
2, 60240, Note_on_c, 0, 86, 106
2, 60288, Note_on_c, 0, 86, 0
2, 60288, Note_on_c, 0, 83, 0
2, 60360, Note_on_c, 0, 91, 104
2, 60360, Note_on_c, 0, 83, 102
2, 60408, Note_on_c, 0, 83, 0
2, 60408, Note_on_c, 0, 91, 0
2, 60480, Note_on_c, 0, 72, 107
2, 60480, Note_on_c, 0, 84, 116
2, 60576, Note_on_c, 0, 84, 0
2, 60576, Note_on_c, 0, 72, 0
2, 60600, Note_on_c, 0, 67, 105
2, 60600, Note_on_c, 0, 79, 109
2, 60912, Note_on_c, 0, 79, 0
2, 60912, Note_on_c, 0, 67, 0
2, 60960, Note_on_c, 0, 88, 114
2, 60960, Note_on_c, 0, 76, 107
2, 61056, Note_on_c, 0, 76, 0
2, 61056, Note_on_c, 0, 88, 0
2, 61080, Note_on_c, 0, 84, 116
2, 61080, Note_on_c, 0, 72, 102
2, 61392, Note_on_c, 0, 72, 0
2, 61392, Note_on_c, 0, 84, 0
2, 61440, Note_on_c, 0, 84, 106
2, 61440, Note_on_c, 0, 72, 106
2, 61536, Note_on_c, 0, 72, 0
2, 61536, Note_on_c, 0, 84, 0
2, 61560, Note_on_c, 0, 79, 103
2, 61560, Note_on_c, 0, 67, 103
2, 61872, Note_on_c, 0, 67, 0
2, 61872, Note_on_c, 0, 79, 0
2, 61920, Note_on_c, 0, 88, 102
2, 61920, Note_on_c, 0, 76, 105
2, 62016, Note_on_c, 0, 76, 0
2, 62016, Note_on_c, 0, 88, 0
2, 62040, Note_on_c, 0, 84, 99
2, 62040, Note_on_c, 0, 72, 100
2, 62352, Note_on_c, 0, 72, 0
2, 62352, Note_on_c, 0, 84, 0
2, 62400, Note_on_c, 0, 84, 127
2, 62400, Note_on_c, 0, 72, 127
2, 62496, Note_on_c, 0, 72, 0
2, 62496, Note_on_c, 0, 84, 0
2, 62520, Note_on_c, 0, 67, 127
2, 62520, Note_on_c, 0, 79, 127
2, 62616, Note_on_c, 0, 79, 0
2, 62616, Note_on_c, 0, 67, 0
2, 62640, Note_on_c, 0, 84, 127
2, 62640, Note_on_c, 0, 72, 127
2, 62736, Note_on_c, 0, 72, 0
2, 62736, Note_on_c, 0, 84, 0
2, 62760, Note_on_c, 0, 67, 127
2, 62760, Note_on_c, 0, 79, 127
2, 62856, Note_on_c, 0, 79, 0
2, 62856, Note_on_c, 0, 67, 0
2, 62880, Note_on_c, 0, 84, 127
2, 62880, Note_on_c, 0, 72, 127
2, 62976, Note_on_c, 0, 72, 0
2, 62976, Note_on_c, 0, 84, 0
2, 63000, Note_on_c, 0, 67, 127
2, 63000, Note_on_c, 0, 79, 127
2, 63096, Note_on_c, 0, 79, 0
2, 63096, Note_on_c, 0, 67, 0
2, 63120, Note_on_c, 0, 84, 127
2, 63120, Note_on_c, 0, 72, 127
2, 63216, Note_on_c, 0, 72, 0
2, 63216, Note_on_c, 0, 84, 0
2, 63240, Note_on_c, 0, 79, 117
2, 63240, Note_on_c, 0, 67, 127
2, 63336, Note_on_c, 0, 67, 0
2, 63336, Note_on_c, 0, 79, 0
2, 63360, Note_on_c, 0, 72, 127
2, 63360, Note_on_c, 0, 84, 118
2, 63408, Note_on_c, 0, 84, 0
2, 63408, Note_on_c, 0, 72, 0
2, 68461, Note_on_c, 0, 86, 101
2, 68509, Note_on_c, 0, 86, 0
2, 68521, Note_on_c, 0, 87, 85
2, 68569, Note_on_c, 0, 87, 0
2, 68581, Note_on_c, 0, 91, 107
2, 68629, Note_on_c, 0, 91, 0
2, 68941, Note_on_c, 0, 86, 118
2, 68989, Note_on_c, 0, 86, 0
2, 69001, Note_on_c, 0, 87, 113
2, 69049, Note_on_c, 0, 87, 0
2, 69061, Note_on_c, 0, 89, 127
2, 69109, Note_on_c, 0, 89, 0
2, 70081, Note_on_c, 0, 82, 107
2, 70129, Note_on_c, 0, 82, 0
2, 70141, Note_on_c, 0, 77, 127
2, 70165, Note_on_c, 0, 77, 0
2, 70171, Note_on_c, 0, 75, 115
2, 70195, Note_on_c, 0, 75, 0
2, 70201, Note_on_c, 0, 74, 127
2, 70249, Note_on_c, 0, 74, 0
2, 70261, Note_on_c, 0, 70, 126
2, 70309, Note_on_c, 0, 70, 0
2, 70321, Note_on_c, 0, 82, 121
2, 70369, Note_on_c, 0, 82, 0
2, 70381, Note_on_c, 0, 77, 127
2, 70405, Note_on_c, 0, 77, 0
2, 70411, Note_on_c, 0, 75, 118
2, 70435, Note_on_c, 0, 75, 0
2, 70441, Note_on_c, 0, 74, 127
2, 70489, Note_on_c, 0, 74, 0
2, 70501, Note_on_c, 0, 70, 127
2, 70549, Note_on_c, 0, 70, 0
2, 70561, Note_on_c, 0, 82, 126
2, 70609, Note_on_c, 0, 82, 0
2, 70621, Note_on_c, 0, 77, 127
2, 70645, Note_on_c, 0, 77, 0
2, 70651, Note_on_c, 0, 75, 118
2, 70675, Note_on_c, 0, 75, 0
2, 70681, Note_on_c, 0, 74, 127
2, 70729, Note_on_c, 0, 74, 0
2, 70741, Note_on_c, 0, 70, 126
2, 70789, Note_on_c, 0, 70, 0
2, 70801, Note_on_c, 0, 82, 126
2, 70849, Note_on_c, 0, 82, 0
2, 70861, Note_on_c, 0, 77, 127
2, 70885, Note_on_c, 0, 77, 0
2, 70891, Note_on_c, 0, 75, 126
2, 70915, Note_on_c, 0, 75, 0
2, 70921, Note_on_c, 0, 74, 127
2, 70969, Note_on_c, 0, 74, 0
2, 70981, Note_on_c, 0, 70, 121
2, 71029, Note_on_c, 0, 70, 0
2, 73921, Note_on_c, 0, 86, 127
2, 73969, Note_on_c, 0, 86, 0
2, 73981, Note_on_c, 0, 81, 127
2, 74005, Note_on_c, 0, 81, 0
2, 74011, Note_on_c, 0, 79, 127
2, 74035, Note_on_c, 0, 79, 0
2, 74041, Note_on_c, 0, 78, 121
2, 74089, Note_on_c, 0, 78, 0
2, 74101, Note_on_c, 0, 74, 125
2, 74149, Note_on_c, 0, 74, 0
2, 74161, Note_on_c, 0, 86, 127
2, 74209, Note_on_c, 0, 86, 0
2, 74221, Note_on_c, 0, 81, 127
2, 74245, Note_on_c, 0, 81, 0
2, 74251, Note_on_c, 0, 79, 127
2, 74275, Note_on_c, 0, 79, 0
2, 74281, Note_on_c, 0, 78, 123
2, 74329, Note_on_c, 0, 78, 0
2, 74341, Note_on_c, 0, 74, 127
2, 74389, Note_on_c, 0, 74, 0
2, 74401, Note_on_c, 0, 86, 127
2, 74449, Note_on_c, 0, 86, 0
2, 74461, Note_on_c, 0, 81, 127
2, 74485, Note_on_c, 0, 81, 0
2, 74491, Note_on_c, 0, 79, 127
2, 74515, Note_on_c, 0, 79, 0
2, 74521, Note_on_c, 0, 78, 121
2, 74569, Note_on_c, 0, 78, 0
2, 74581, Note_on_c, 0, 74, 127
2, 74629, Note_on_c, 0, 74, 0
2, 74641, Note_on_c, 0, 86, 127
2, 74689, Note_on_c, 0, 86, 0
2, 74701, Note_on_c, 0, 81, 125
2, 74725, Note_on_c, 0, 81, 0
2, 74731, Note_on_c, 0, 79, 127
2, 74755, Note_on_c, 0, 79, 0
2, 74761, Note_on_c, 0, 78, 121
2, 74809, Note_on_c, 0, 78, 0
2, 74821, Note_on_c, 0, 74, 127
2, 74869, Note_on_c, 0, 74, 0
2, 74881, Note_on_c, 0, 86, 114
2, 75025, Note_on_c, 0, 86, 0
2, 75061, Note_on_c, 0, 86, 125
2, 75109, Note_on_c, 0, 86, 0
2, 75121, Note_on_c, 0, 86, 127
2, 75265, Note_on_c, 0, 86, 0
2, 75301, Note_on_c, 0, 86, 127
2, 75349, Note_on_c, 0, 86, 0
2, 75361, Note_on_c, 0, 86, 127
2, 75505, Note_on_c, 0, 86, 0
2, 75541, Note_on_c, 0, 86, 127
2, 75589, Note_on_c, 0, 86, 0
2, 75601, Note_on_c, 0, 86, 127
2, 75745, Note_on_c, 0, 86, 0
2, 75781, Note_on_c, 0, 86, 127
2, 75829, Note_on_c, 0, 86, 0
2, 75841, Note_on_c, 0, 86, 116
2, 75897, Note_on_c, 0, 86, 0
2, 76321, Note_on_c, 0, 86, 127
2, 76377, Note_on_c, 0, 86, 0
2, 83040, Note_on_c, 0, 76, 105
2, 83040, Note_on_c, 0, 68, 83
2, 83952, Note_on_c, 0, 68, 0
2, 83952, Note_on_c, 0, 76, 0
2, 84000, Note_on_c, 0, 76, 111
2, 84000, Note_on_c, 0, 68, 84
2, 84912, Note_on_c, 0, 68, 0
2, 84912, Note_on_c, 0, 76, 0
2, 84960, Note_on_c, 0, 80, 88
2, 85020, Note_on_c, 0, 88, 118
2, 85068, Note_on_c, 0, 88, 0
2, 85080, Note_on_c, 0, 83, 109
2, 85128, Note_on_c, 0, 83, 0
2, 85140, Note_on_c, 0, 80, 85
2, 85188, Note_on_c, 0, 80, 0
2, 85260, Note_on_c, 0, 88, 118
2, 85308, Note_on_c, 0, 88, 0
2, 85320, Note_on_c, 0, 83, 109
2, 85368, Note_on_c, 0, 83, 0
2, 85380, Note_on_c, 0, 80, 85
2, 85428, Note_on_c, 0, 80, 0
2, 85500, Note_on_c, 0, 88, 118
2, 85548, Note_on_c, 0, 88, 0
2, 85560, Note_on_c, 0, 83, 109
2, 85608, Note_on_c, 0, 83, 0
2, 85620, Note_on_c, 0, 80, 85
2, 85668, Note_on_c, 0, 80, 0
2, 85740, Note_on_c, 0, 88, 118
2, 85788, Note_on_c, 0, 88, 0
2, 85800, Note_on_c, 0, 83, 109
2, 85848, Note_on_c, 0, 83, 0
2, 85860, Note_on_c, 0, 80, 85
2, 85872, Note_on_c, 0, 80, 0
2, 85908, Note_on_c, 0, 80, 0
2, 85921, Note_on_c, 0, 88, 114
2, 86065, Note_on_c, 0, 88, 0
2, 86101, Note_on_c, 0, 88, 125
2, 86149, Note_on_c, 0, 88, 0
2, 86161, Note_on_c, 0, 88, 127
2, 86305, Note_on_c, 0, 88, 0
2, 86341, Note_on_c, 0, 88, 127
2, 86389, Note_on_c, 0, 88, 0
2, 86401, Note_on_c, 0, 88, 127
2, 86545, Note_on_c, 0, 88, 0
2, 86581, Note_on_c, 0, 88, 127
2, 86629, Note_on_c, 0, 88, 0
2, 86641, Note_on_c, 0, 88, 127
2, 86785, Note_on_c, 0, 88, 0
2, 86821, Note_on_c, 0, 88, 127
2, 86869, Note_on_c, 0, 88, 0
2, 86881, Note_on_c, 0, 88, 116
2, 86937, Note_on_c, 0, 88, 0
2, 87361, Note_on_c, 0, 88, 127
2, 87417, Note_on_c, 0, 88, 0
2, 90720, Note_on_c, 0, 81, 113
2, 90768, Note_on_c, 0, 81, 0
2, 90780, Note_on_c, 0, 83, 121
2, 90828, Note_on_c, 0, 83, 0
2, 90840, Note_on_c, 0, 81, 95
2, 90840, Note_on_c, 0, 85, 95
2, 90888, Note_on_c, 0, 85, 0
2, 90888, Note_on_c, 0, 81, 0
2, 90900, Note_on_c, 0, 83, 108
2, 90900, Note_on_c, 0, 86, 108
2, 90924, Note_on_c, 0, 86, 0
2, 90924, Note_on_c, 0, 83, 0
2, 90930, Note_on_c, 0, 81, 109
2, 90930, Note_on_c, 0, 85, 109
2, 90954, Note_on_c, 0, 85, 0
2, 90954, Note_on_c, 0, 81, 0
2, 90960, Note_on_c, 0, 83, 102
2, 91008, Note_on_c, 0, 83, 0
2, 91020, Note_on_c, 0, 85, 104
2, 91068, Note_on_c, 0, 85, 0
2, 91080, Note_on_c, 0, 86, 103
2, 91080, Note_on_c, 0, 83, 103
2, 91128, Note_on_c, 0, 83, 0
2, 91128, Note_on_c, 0, 86, 0
2, 91140, Note_on_c, 0, 85, 104
2, 91140, Note_on_c, 0, 88, 104
2, 91164, Note_on_c, 0, 88, 0
2, 91164, Note_on_c, 0, 85, 0
2, 91170, Note_on_c, 0, 86, 103
2, 91170, Note_on_c, 0, 83, 103
2, 91194, Note_on_c, 0, 83, 0
2, 91194, Note_on_c, 0, 86, 0
2, 91200, Note_on_c, 0, 81, 110
2, 91200, Note_on_c, 0, 85, 103
2, 91248, Note_on_c, 0, 85, 0
2, 91248, Note_on_c, 0, 81, 0
2, 91320, Note_on_c, 0, 85, 85
2, 91320, Note_on_c, 0, 88, 101
2, 91416, Note_on_c, 0, 88, 0
2, 91416, Note_on_c, 0, 85, 0
2, 91440, Note_on_c, 0, 86, 110
2, 91440, Note_on_c, 0, 83, 123
2, 91584, Note_on_c, 0, 83, 0
2, 91584, Note_on_c, 0, 86, 0
2, 91620, Note_on_c, 0, 81, 107
2, 91620, Note_on_c, 0, 85, 90
2, 91668, Note_on_c, 0, 85, 0
2, 91668, Note_on_c, 0, 81, 0
2, 91680, Note_on_c, 0, 86, 100
2, 91680, Note_on_c, 0, 90, 83
2, 91776, Note_on_c, 0, 90, 0
2, 91776, Note_on_c, 0, 86, 0
2, 91800, Note_on_c, 0, 85, 91
2, 91800, Note_on_c, 0, 88, 109
2, 91896, Note_on_c, 0, 88, 0
2, 91896, Note_on_c, 0, 85, 0
2, 91920, Note_on_c, 0, 80, 85
2, 91920, Note_on_c, 0, 83, 107
2, 91968, Note_on_c, 0, 83, 0
2, 91980, Note_on_c, 0, 83, 123
2, 92004, Note_on_c, 0, 83, 0
2, 92010, Note_on_c, 0, 85, 126
2, 92034, Note_on_c, 0, 85, 0
2, 92040, Note_on_c, 0, 86, 113
2, 92088, Note_on_c, 0, 86, 0
2, 92100, Note_on_c, 0, 83, 114
2, 92148, Note_on_c, 0, 83, 0
2, 92148, Note_on_c, 0, 80, 0
2, 92160, Note_on_c, 0, 85, 86
2, 92160, Note_on_c, 0, 81, 96
2, 92208, Note_on_c, 0, 81, 0
2, 92208, Note_on_c, 0, 85, 0
2, 96000, Note_on_c, 0, 76, 117
2, 96096, Note_on_c, 0, 76, 0
2, 96120, Note_on_c, 0, 79, 127
2, 96216, Note_on_c, 0, 79, 0
2, 96240, Note_on_c, 0, 77, 111
2, 96384, Note_on_c, 0, 77, 0
2, 96420, Note_on_c, 0, 76, 114
2, 96468, Note_on_c, 0, 76, 0
2, 96480, Note_on_c, 0, 81, 110
2, 96576, Note_on_c, 0, 81, 0
2, 96600, Note_on_c, 0, 79, 113
2, 96696, Note_on_c, 0, 79, 0
2, 96720, Note_on_c, 0, 77, 123
2, 96768, Note_on_c, 0, 77, 0
2, 96780, Note_on_c, 0, 77, 111
2, 96804, Note_on_c, 0, 77, 0
2, 96810, Note_on_c, 0, 79, 116
2, 96834, Note_on_c, 0, 79, 0
2, 96840, Note_on_c, 0, 81, 112
2, 96888, Note_on_c, 0, 81, 0
2, 96900, Note_on_c, 0, 77, 120
2, 96948, Note_on_c, 0, 77, 0
2, 96960, Note_on_c, 0, 79, 118
2, 97056, Note_on_c, 0, 79, 0
2, 97080, Note_on_c, 0, 82, 82
2, 97176, Note_on_c, 0, 82, 0
2, 97200, Note_on_c, 0, 81, 111
2, 97344, Note_on_c, 0, 81, 0
2, 97380, Note_on_c, 0, 79, 102
2, 97428, Note_on_c, 0, 79, 0
2, 97440, Note_on_c, 0, 84, 123
2, 97536, Note_on_c, 0, 84, 0
2, 97560, Note_on_c, 0, 82, 95
2, 97656, Note_on_c, 0, 82, 0
2, 97680, Note_on_c, 0, 81, 106
2, 97728, Note_on_c, 0, 81, 0
2, 97740, Note_on_c, 0, 81, 123
2, 97764, Note_on_c, 0, 81, 0
2, 97770, Note_on_c, 0, 82, 115
2, 97794, Note_on_c, 0, 82, 0
2, 97800, Note_on_c, 0, 84, 127
2, 97848, Note_on_c, 0, 84, 0
2, 97860, Note_on_c, 0, 81, 127
2, 97908, Note_on_c, 0, 81, 0
2, 97920, Note_on_c, 0, 86, 109
2, 98016, Note_on_c, 0, 86, 0
2, 98040, Note_on_c, 0, 84, 113
2, 98136, Note_on_c, 0, 84, 0
2, 98160, Note_on_c, 0, 82, 105
2, 98208, Note_on_c, 0, 82, 0
2, 98220, Note_on_c, 0, 79, 109
2, 98244, Note_on_c, 0, 79, 0
2, 98250, Note_on_c, 0, 81, 117
2, 98274, Note_on_c, 0, 81, 0
2, 98280, Note_on_c, 0, 82, 101
2, 98328, Note_on_c, 0, 82, 0
2, 98340, Note_on_c, 0, 84, 121
2, 98388, Note_on_c, 0, 84, 0
2, 98400, Note_on_c, 0, 86, 107
2, 98496, Note_on_c, 0, 86, 0
2, 98520, Note_on_c, 0, 84, 108
2, 98616, Note_on_c, 0, 84, 0
2, 98640, Note_on_c, 0, 82, 113
2, 98688, Note_on_c, 0, 82, 0
2, 98700, Note_on_c, 0, 79, 86
2, 98724, Note_on_c, 0, 79, 0
2, 98730, Note_on_c, 0, 81, 123
2, 98754, Note_on_c, 0, 81, 0
2, 98760, Note_on_c, 0, 82, 118
2, 98808, Note_on_c, 0, 82, 0
2, 98820, Note_on_c, 0, 84, 127
2, 98868, Note_on_c, 0, 84, 0
2, 98880, Note_on_c, 0, 86, 109
2, 98928, Note_on_c, 0, 86, 0
2, 107760, Note_on_c, 0, 81, 127
2, 107760, Note_on_c, 0, 69, 127
2, 107808, Note_on_c, 0, 69, 0
2, 107808, Note_on_c, 0, 81, 0
2, 107820, Note_on_c, 0, 77, 127
2, 107820, Note_on_c, 0, 81, 120
2, 107868, Note_on_c, 0, 81, 0
2, 107868, Note_on_c, 0, 77, 0
2, 107880, Note_on_c, 0, 82, 113
2, 107880, Note_on_c, 0, 79, 127
2, 107928, Note_on_c, 0, 79, 0
2, 107928, Note_on_c, 0, 82, 0
2, 107940, Note_on_c, 0, 82, 121
2, 107940, Note_on_c, 0, 86, 127
2, 107988, Note_on_c, 0, 86, 0
2, 107988, Note_on_c, 0, 82, 0
2, 108000, Note_on_c, 0, 84, 113
2, 108000, Note_on_c, 0, 81, 120
2, 108048, Note_on_c, 0, 81, 0
2, 108048, Note_on_c, 0, 84, 0
2, 108060, Note_on_c, 0, 82, 109
2, 108060, Note_on_c, 0, 79, 127
2, 108084, Note_on_c, 0, 79, 0
2, 108084, Note_on_c, 0, 82, 0
2, 108090, Note_on_c, 0, 77, 101
2, 108090, Note_on_c, 0, 81, 109
2, 108114, Note_on_c, 0, 81, 0
2, 108114, Note_on_c, 0, 77, 0
2, 108120, Note_on_c, 0, 79, 125
2, 108120, Note_on_c, 0, 76, 118
2, 108168, Note_on_c, 0, 76, 0
2, 108168, Note_on_c, 0, 79, 0
2, 108180, Note_on_c, 0, 72, 106
2, 108228, Note_on_c, 0, 72, 0
2, 108240, Note_on_c, 0, 77, 125
2, 108288, Note_on_c, 0, 77, 0
2, 108300, Note_on_c, 0, 76, 102
2, 108300, Note_on_c, 0, 79, 109
2, 108348, Note_on_c, 0, 79, 0
2, 108348, Note_on_c, 0, 76, 0
2, 108360, Note_on_c, 0, 77, 104
2, 108360, Note_on_c, 0, 81, 113
2, 108408, Note_on_c, 0, 81, 0
2, 108408, Note_on_c, 0, 77, 0
2, 108420, Note_on_c, 0, 82, 97
2, 108420, Note_on_c, 0, 79, 121
2, 108444, Note_on_c, 0, 79, 0
2, 108444, Note_on_c, 0, 82, 0
2, 108450, Note_on_c, 0, 77, 100
2, 108450, Note_on_c, 0, 81, 106
2, 108474, Note_on_c, 0, 81, 0
2, 108474, Note_on_c, 0, 77, 0
2, 108480, Note_on_c, 0, 76, 108
2, 108480, Note_on_c, 0, 79, 120
2, 108528, Note_on_c, 0, 79, 0
2, 108528, Note_on_c, 0, 76, 0
2, 108540, Note_on_c, 0, 77, 107
2, 108540, Note_on_c, 0, 81, 120
2, 108588, Note_on_c, 0, 81, 0
2, 108588, Note_on_c, 0, 77, 0
2, 108600, Note_on_c, 0, 82, 99
2, 108600, Note_on_c, 0, 79, 123
2, 108648, Note_on_c, 0, 79, 0
2, 108648, Note_on_c, 0, 82, 0
2, 108660, Note_on_c, 0, 81, 118
2, 108660, Note_on_c, 0, 84, 99
2, 108684, Note_on_c, 0, 84, 0
2, 108684, Note_on_c, 0, 81, 0
2, 108690, Note_on_c, 0, 82, 107
2, 108690, Note_on_c, 0, 79, 114
2, 108714, Note_on_c, 0, 79, 0
2, 108714, Note_on_c, 0, 82, 0
2, 108720, Note_on_c, 0, 77, 107
2, 108720, Note_on_c, 0, 81, 123
2, 108768, Note_on_c, 0, 81, 0
2, 108768, Note_on_c, 0, 77, 0
2, 108780, Note_on_c, 0, 81, 112
2, 108780, Note_on_c, 0, 84, 117
2, 108828, Note_on_c, 0, 84, 0
2, 108828, Note_on_c, 0, 81, 0
2, 108840, Note_on_c, 0, 81, 107
2, 108840, Note_on_c, 0, 84, 113
2, 108888, Note_on_c, 0, 84, 0
2, 108888, Note_on_c, 0, 81, 0
2, 108900, Note_on_c, 0, 81, 109
2, 108900, Note_on_c, 0, 84, 116
2, 108948, Note_on_c, 0, 84, 0
2, 108948, Note_on_c, 0, 81, 0
2, 108960, Note_on_c, 0, 86, 97
2, 108960, Note_on_c, 0, 84, 111
2, 108966, Note_on_c, 0, 84, 0
2, 108966, Note_on_c, 0, 86, 0
2, 108967, Note_on_c, 0, 83, 106
2, 108973, Note_on_c, 0, 83, 0
2, 108975, Note_on_c, 0, 84, 100
2, 109071, Note_on_c, 0, 84, 0
2, 109095, Note_on_c, 0, 86, 106
2, 109107, Note_on_c, 0, 86, 0
2, 109110, Note_on_c, 0, 84, 113
2, 109122, Note_on_c, 0, 84, 0
2, 109125, Note_on_c, 0, 83, 95
2, 109137, Note_on_c, 0, 83, 0
2, 109140, Note_on_c, 0, 84, 101
2, 109200, Note_on_c, 0, 72, 104
2, 109200, Note_on_c, 0, 76, 118
2, 109236, Note_on_c, 0, 84, 0
2, 109248, Note_on_c, 0, 76, 0
2, 109248, Note_on_c, 0, 72, 0
2, 109260, Note_on_c, 0, 77, 107
2, 109260, Note_on_c, 0, 74, 101
2, 109308, Note_on_c, 0, 74, 0
2, 109308, Note_on_c, 0, 77, 0
2, 109320, Note_on_c, 0, 79, 117
2, 109320, Note_on_c, 0, 76, 107
2, 109368, Note_on_c, 0, 76, 0
2, 109368, Note_on_c, 0, 79, 0
2, 109380, Note_on_c, 0, 77, 118
2, 109380, Note_on_c, 0, 81, 107
2, 109404, Note_on_c, 0, 81, 0
2, 109404, Note_on_c, 0, 77, 0
2, 109410, Note_on_c, 0, 79, 112
2, 109410, Note_on_c, 0, 76, 113
2, 109434, Note_on_c, 0, 76, 0
2, 109434, Note_on_c, 0, 79, 0
2, 109440, Note_on_c, 0, 74, 109
2, 109440, Note_on_c, 0, 77, 114
2, 109488, Note_on_c, 0, 77, 0
2, 109488, Note_on_c, 0, 74, 0
2, 109500, Note_on_c, 0, 79, 121
2, 109500, Note_on_c, 0, 76, 100
2, 109548, Note_on_c, 0, 76, 0
2, 109548, Note_on_c, 0, 79, 0
2, 109560, Note_on_c, 0, 81, 120
2, 109560, Note_on_c, 0, 77, 103
2, 109608, Note_on_c, 0, 77, 0
2, 109608, Note_on_c, 0, 81, 0
2, 109620, Note_on_c, 0, 82, 74
2, 109620, Note_on_c, 0, 79, 107
2, 109644, Note_on_c, 0, 79, 0
2, 109644, Note_on_c, 0, 82, 0
2, 109650, Note_on_c, 0, 81, 103
2, 109650, Note_on_c, 0, 77, 100
2, 109674, Note_on_c, 0, 77, 0
2, 109674, Note_on_c, 0, 81, 0
2, 109680, Note_on_c, 0, 79, 116
2, 109680, Note_on_c, 0, 76, 103
2, 109728, Note_on_c, 0, 76, 0
2, 109728, Note_on_c, 0, 79, 0
2, 109740, Note_on_c, 0, 82, 109
2, 109740, Note_on_c, 0, 79, 120
2, 109788, Note_on_c, 0, 79, 0
2, 109788, Note_on_c, 0, 82, 0
2, 109800, Note_on_c, 0, 82, 96
2, 109800, Note_on_c, 0, 79, 113
2, 109848, Note_on_c, 0, 79, 0
2, 109848, Note_on_c, 0, 82, 0
2, 109860, Note_on_c, 0, 82, 109
2, 109860, Note_on_c, 0, 79, 112
2, 109908, Note_on_c, 0, 79, 0
2, 109908, Note_on_c, 0, 82, 0
2, 109920, Note_on_c, 0, 84, 103
2, 109926, Note_on_c, 0, 84, 0
2, 109927, Note_on_c, 0, 82, 95
2, 109933, Note_on_c, 0, 82, 0
2, 109935, Note_on_c, 0, 81, 120
2, 109941, Note_on_c, 0, 81, 0
2, 109942, Note_on_c, 0, 82, 84
2, 110038, Note_on_c, 0, 82, 0
2, 110062, Note_on_c, 0, 86, 102
2, 110068, Note_on_c, 0, 86, 0
2, 110070, Note_on_c, 0, 84, 104
2, 110076, Note_on_c, 0, 84, 0
2, 110077, Note_on_c, 0, 83, 102
2, 110083, Note_on_c, 0, 83, 0
2, 110085, Note_on_c, 0, 84, 104
2, 110181, Note_on_c, 0, 84, 0
2, 110280, Note_on_c, 0, 86, 102
2, 110286, Note_on_c, 0, 86, 0
2, 110287, Note_on_c, 0, 84, 125
2, 110293, Note_on_c, 0, 84, 0
2, 110295, Note_on_c, 0, 83, 103
2, 110301, Note_on_c, 0, 83, 0
2, 110302, Note_on_c, 0, 84, 107
2, 110350, Note_on_c, 0, 84, 0
2, 110520, Note_on_c, 0, 86, 102
2, 110526, Note_on_c, 0, 86, 0
2, 110527, Note_on_c, 0, 84, 125
2, 110533, Note_on_c, 0, 84, 0
2, 110535, Note_on_c, 0, 83, 103
2, 110541, Note_on_c, 0, 83, 0
2, 110542, Note_on_c, 0, 84, 107
2, 110590, Note_on_c, 0, 84, 0
2, 110760, Note_on_c, 0, 86, 102
2, 110766, Note_on_c, 0, 86, 0
2, 110767, Note_on_c, 0, 84, 125
2, 110773, Note_on_c, 0, 84, 0
2, 110775, Note_on_c, 0, 83, 103
2, 110781, Note_on_c, 0, 83, 0
2, 110782, Note_on_c, 0, 84, 107
2, 110830, Note_on_c, 0, 84, 0
2, 111000, Note_on_c, 0, 86, 102
2, 111006, Note_on_c, 0, 86, 0
2, 111007, Note_on_c, 0, 84, 125
2, 111013, Note_on_c, 0, 84, 0
2, 111015, Note_on_c, 0, 83, 103
2, 111021, Note_on_c, 0, 83, 0
2, 111022, Note_on_c, 0, 84, 107
2, 111070, Note_on_c, 0, 84, 0
2, 111240, Note_on_c, 0, 86, 102
2, 111246, Note_on_c, 0, 86, 0
2, 111247, Note_on_c, 0, 84, 125
2, 111253, Note_on_c, 0, 84, 0
2, 111255, Note_on_c, 0, 83, 103
2, 111261, Note_on_c, 0, 83, 0
2, 111262, Note_on_c, 0, 84, 107
2, 111310, Note_on_c, 0, 84, 0
2, 111360, Note_on_c, 0, 86, 107
2, 111366, Note_on_c, 0, 86, 0
2, 111367, Note_on_c, 0, 84, 100
2, 111373, Note_on_c, 0, 84, 0
2, 111375, Note_on_c, 0, 83, 108
2, 111381, Note_on_c, 0, 83, 0
2, 111382, Note_on_c, 0, 84, 106
2, 111478, Note_on_c, 0, 84, 0
2, 111562, Note_on_c, 0, 84, 109
2, 111600, Note_on_c, 0, 77, 103
2, 111600, Note_on_c, 0, 81, 127
2, 111610, Note_on_c, 0, 84, 0
2, 111648, Note_on_c, 0, 81, 0
2, 111648, Note_on_c, 0, 77, 0
2, 120720, Note_on_c, 0, 72, 99
2, 120720, Note_on_c, 0, 86, 104
2, 120768, Note_on_c, 0, 86, 0
2, 120780, Note_on_c, 0, 84, 127
2, 120828, Note_on_c, 0, 84, 0
2, 120840, Note_on_c, 0, 82, 101
2, 120888, Note_on_c, 0, 82, 0
2, 120900, Note_on_c, 0, 79, 109
2, 120948, Note_on_c, 0, 79, 0
2, 120960, Note_on_c, 0, 72, 101
2, 121008, Note_on_c, 0, 72, 0
2, 121020, Note_on_c, 0, 82, 101
2, 121068, Note_on_c, 0, 82, 0
2, 121080, Note_on_c, 0, 79, 105
2, 121128, Note_on_c, 0, 79, 0
2, 121140, Note_on_c, 0, 72, 106
2, 121152, Note_on_c, 0, 72, 0
2, 121188, Note_on_c, 0, 72, 0
2, 121200, Note_on_c, 0, 77, 103
2, 121200, Note_on_c, 0, 86, 116
2, 121248, Note_on_c, 0, 86, 0
2, 121260, Note_on_c, 0, 84, 114
2, 121308, Note_on_c, 0, 84, 0
2, 121320, Note_on_c, 0, 81, 107
2, 121368, Note_on_c, 0, 81, 0
2, 121380, Note_on_c, 0, 77, 109
2, 121428, Note_on_c, 0, 77, 0
2, 121440, Note_on_c, 0, 72, 117
2, 121488, Note_on_c, 0, 72, 0
2, 121500, Note_on_c, 0, 81, 117
2, 121548, Note_on_c, 0, 81, 0
2, 121560, Note_on_c, 0, 77, 125
2, 121608, Note_on_c, 0, 77, 0
2, 121620, Note_on_c, 0, 72, 112
2, 121632, Note_on_c, 0, 77, 0
2, 121668, Note_on_c, 0, 72, 0
2, 121680, Note_on_c, 0, 76, 102
2, 121680, Note_on_c, 0, 86, 121
2, 121728, Note_on_c, 0, 86, 0
2, 121740, Note_on_c, 0, 84, 127
2, 121776, Note_on_c, 0, 76, 0
2, 121788, Note_on_c, 0, 84, 0
2, 121800, Note_on_c, 0, 76, 109
2, 121800, Note_on_c, 0, 82, 95
2, 121848, Note_on_c, 0, 82, 0
2, 121860, Note_on_c, 0, 79, 107
2, 121896, Note_on_c, 0, 76, 0
2, 121908, Note_on_c, 0, 79, 0
2, 121920, Note_on_c, 0, 76, 98
2, 121920, Note_on_c, 0, 72, 100
2, 121968, Note_on_c, 0, 72, 0
2, 121980, Note_on_c, 0, 82, 101
2, 122028, Note_on_c, 0, 82, 0
2, 122040, Note_on_c, 0, 79, 98
2, 122064, Note_on_c, 0, 76, 0
2, 122088, Note_on_c, 0, 79, 0
2, 122100, Note_on_c, 0, 72, 106
2, 122100, Note_on_c, 0, 76, 101
2, 122148, Note_on_c, 0, 76, 0
2, 122148, Note_on_c, 0, 72, 0
2, 122160, Note_on_c, 0, 84, 120
2, 122160, Note_on_c, 0, 81, 118
2, 122304, Note_on_c, 0, 81, 0
2, 122304, Note_on_c, 0, 84, 0
2, 122340, Note_on_c, 0, 82, 103
2, 122340, Note_on_c, 0, 86, 127
2, 122364, Note_on_c, 0, 86, 0
2, 122364, Note_on_c, 0, 82, 0
2, 122370, Note_on_c, 0, 84, 104
2, 122370, Note_on_c, 0, 88, 105
2, 122394, Note_on_c, 0, 88, 0
2, 122394, Note_on_c, 0, 84, 0
2, 122400, Note_on_c, 0, 86, 111
2, 122400, Note_on_c, 0, 89, 114
2, 122448, Note_on_c, 0, 89, 0
2, 122448, Note_on_c, 0, 86, 0
2, 122460, Note_on_c, 0, 84, 109
2, 122460, Note_on_c, 0, 88, 107
2, 122484, Note_on_c, 0, 88, 0
2, 122484, Note_on_c, 0, 84, 0
2, 122490, Note_on_c, 0, 82, 100
2, 122490, Note_on_c, 0, 86, 113
2, 122514, Note_on_c, 0, 86, 0
2, 122514, Note_on_c, 0, 82, 0
2, 122520, Note_on_c, 0, 81, 118
2, 122520, Note_on_c, 0, 84, 123
2, 122568, Note_on_c, 0, 84, 0
2, 122568, Note_on_c, 0, 81, 0
2, 122580, Note_on_c, 0, 82, 92
2, 122580, Note_on_c, 0, 86, 127
2, 122604, Note_on_c, 0, 86, 0
2, 122604, Note_on_c, 0, 82, 0
2, 122610, Note_on_c, 0, 84, 116
2, 122610, Note_on_c, 0, 88, 127
2, 122634, Note_on_c, 0, 88, 0
2, 122634, Note_on_c, 0, 84, 0
2, 122640, Note_on_c, 0, 86, 112
2, 122640, Note_on_c, 0, 89, 116
2, 122688, Note_on_c, 0, 89, 0
2, 122688, Note_on_c, 0, 86, 0
2, 122700, Note_on_c, 0, 88, 116
2, 122700, Note_on_c, 0, 84, 114
2, 122724, Note_on_c, 0, 84, 0
2, 122724, Note_on_c, 0, 88, 0
2, 122730, Note_on_c, 0, 82, 88
2, 122730, Note_on_c, 0, 86, 120
2, 122754, Note_on_c, 0, 86, 0
2, 122754, Note_on_c, 0, 82, 0
2, 122760, Note_on_c, 0, 81, 105
2, 122760, Note_on_c, 0, 84, 107
2, 122808, Note_on_c, 0, 84, 0
2, 122808, Note_on_c, 0, 81, 0
2, 122820, Note_on_c, 0, 86, 127
2, 122820, Note_on_c, 0, 82, 88
2, 122844, Note_on_c, 0, 82, 0
2, 122844, Note_on_c, 0, 86, 0
2, 122850, Note_on_c, 0, 88, 106
2, 122850, Note_on_c, 0, 84, 106
2, 122874, Note_on_c, 0, 84, 0
2, 122874, Note_on_c, 0, 88, 0
2, 122880, Note_on_c, 0, 86, 113
2, 122880, Note_on_c, 0, 89, 114
2, 122928, Note_on_c, 0, 89, 0
2, 122928, Note_on_c, 0, 86, 0
2, 123840, Note_on_c, 0, 84, 127
2, 123840, Note_on_c, 0, 81, 111
2, 123984, Note_on_c, 0, 81, 0
2, 123984, Note_on_c, 0, 84, 0
2, 124020, Note_on_c, 0, 86, 123
2, 124020, Note_on_c, 0, 82, 97
2, 124044, Note_on_c, 0, 82, 0
2, 124044, Note_on_c, 0, 86, 0
2, 124050, Note_on_c, 0, 84, 99
2, 124050, Note_on_c, 0, 88, 103
2, 124074, Note_on_c, 0, 88, 0
2, 124074, Note_on_c, 0, 84, 0
2, 124080, Note_on_c, 0, 86, 112
2, 124080, Note_on_c, 0, 89, 121
2, 124128, Note_on_c, 0, 89, 0
2, 124128, Note_on_c, 0, 86, 0
2, 124140, Note_on_c, 0, 84, 117
2, 124140, Note_on_c, 0, 88, 117
2, 124164, Note_on_c, 0, 88, 0
2, 124164, Note_on_c, 0, 84, 0
2, 124170, Note_on_c, 0, 82, 84
2, 124170, Note_on_c, 0, 86, 118
2, 124194, Note_on_c, 0, 86, 0
2, 124194, Note_on_c, 0, 82, 0
2, 124200, Note_on_c, 0, 84, 120
2, 124200, Note_on_c, 0, 81, 109
2, 124248, Note_on_c, 0, 81, 0
2, 124248, Note_on_c, 0, 84, 0
2, 124260, Note_on_c, 0, 82, 84
2, 124260, Note_on_c, 0, 86, 121
2, 124284, Note_on_c, 0, 86, 0
2, 124284, Note_on_c, 0, 82, 0
2, 124290, Note_on_c, 0, 84, 118
2, 124290, Note_on_c, 0, 88, 127
2, 124314, Note_on_c, 0, 88, 0
2, 124314, Note_on_c, 0, 84, 0
2, 124320, Note_on_c, 0, 86, 116
2, 124320, Note_on_c, 0, 89, 127
2, 124368, Note_on_c, 0, 89, 0
2, 124368, Note_on_c, 0, 86, 0
2, 124380, Note_on_c, 0, 88, 109
2, 124380, Note_on_c, 0, 84, 114
2, 124404, Note_on_c, 0, 84, 0
2, 124404, Note_on_c, 0, 88, 0
2, 124410, Note_on_c, 0, 82, 88
2, 124410, Note_on_c, 0, 86, 117
2, 124434, Note_on_c, 0, 86, 0
2, 124434, Note_on_c, 0, 82, 0
2, 124440, Note_on_c, 0, 81, 110
2, 124440, Note_on_c, 0, 84, 121
2, 124488, Note_on_c, 0, 84, 0
2, 124488, Note_on_c, 0, 81, 0
2, 124500, Note_on_c, 0, 82, 95
2, 124500, Note_on_c, 0, 86, 120
2, 124524, Note_on_c, 0, 86, 0
2, 124524, Note_on_c, 0, 82, 0
2, 124530, Note_on_c, 0, 84, 105
2, 124530, Note_on_c, 0, 88, 120
2, 124554, Note_on_c, 0, 88, 0
2, 124554, Note_on_c, 0, 84, 0
2, 124560, Note_on_c, 0, 86, 120
2, 124560, Note_on_c, 0, 89, 123
2, 124608, Note_on_c, 0, 89, 0
2, 124608, Note_on_c, 0, 86, 0
2, 125820, Note_on_c, 0, 86, 114
2, 125820, Note_on_c, 0, 89, 116
2, 125868, Note_on_c, 0, 89, 0
2, 125868, Note_on_c, 0, 86, 0
2, 125880, Note_on_c, 0, 88, 118
2, 125880, Note_on_c, 0, 84, 103
2, 125928, Note_on_c, 0, 84, 0
2, 125928, Note_on_c, 0, 88, 0
2, 125940, Note_on_c, 0, 82, 92
2, 125940, Note_on_c, 0, 86, 116
2, 125988, Note_on_c, 0, 86, 0
2, 125988, Note_on_c, 0, 82, 0
2, 126060, Note_on_c, 0, 81, 123
2, 126060, Note_on_c, 0, 84, 105
2, 126108, Note_on_c, 0, 84, 0
2, 126108, Note_on_c, 0, 81, 0
2, 126120, Note_on_c, 0, 82, 82
2, 126120, Note_on_c, 0, 79, 120
2, 126168, Note_on_c, 0, 79, 0
2, 126168, Note_on_c, 0, 82, 0
2, 126180, Note_on_c, 0, 81, 118
2, 126180, Note_on_c, 0, 77, 123
2, 126228, Note_on_c, 0, 77, 0
2, 126228, Note_on_c, 0, 81, 0
2, 126300, Note_on_c, 0, 79, 116
2, 126300, Note_on_c, 0, 76, 127
2, 126348, Note_on_c, 0, 76, 0
2, 126348, Note_on_c, 0, 79, 0
2, 126360, Note_on_c, 0, 74, 100
2, 126360, Note_on_c, 0, 77, 112
2, 126408, Note_on_c, 0, 77, 0
2, 126408, Note_on_c, 0, 74, 0
2, 126420, Note_on_c, 0, 76, 127
2, 126420, Note_on_c, 0, 79, 120
2, 126468, Note_on_c, 0, 79, 0
2, 126468, Note_on_c, 0, 76, 0
2, 126480, Note_on_c, 0, 81, 123
2, 126480, Note_on_c, 0, 77, 100
2, 126528, Note_on_c, 0, 77, 0
2, 126528, Note_on_c, 0, 81, 0
2, 126600, Note_on_c, 0, 89, 121
2, 126600, Note_on_c, 0, 84, 120
2, 126648, Note_on_c, 0, 84, 0
2, 126648, Note_on_c, 0, 89, 0
2, 126720, Note_on_c, 0, 86, 127
2, 126720, Note_on_c, 0, 89, 127
2, 126768, Note_on_c, 0, 89, 0
2, 126768, Note_on_c, 0, 86, 0
2, 126840, Note_on_c, 0, 82, 99
2, 126840, Note_on_c, 0, 86, 105
2, 126888, Note_on_c, 0, 86, 0
2, 126888, Note_on_c, 0, 82, 0
2, 126960, Note_on_c, 0, 84, 123
2, 126960, Note_on_c, 0, 81, 123
2, 127008, Note_on_c, 0, 81, 0
2, 127008, Note_on_c, 0, 84, 0
2, 127080, Note_on_c, 0, 81, 116
2, 127080, Note_on_c, 0, 77, 110
2, 127128, Note_on_c, 0, 77, 0
2, 127128, Note_on_c, 0, 81, 0
2, 127200, Note_on_c, 0, 79, 109
2, 127200, Note_on_c, 0, 76, 123
2, 127248, Note_on_c, 0, 76, 0
2, 127248, Note_on_c, 0, 79, 0
2, 127320, Note_on_c, 0, 84, 104
2, 127320, Note_on_c, 0, 76, 105
2, 127368, Note_on_c, 0, 76, 0
2, 127368, Note_on_c, 0, 84, 0
2, 127440, Note_on_c, 0, 77, 121
2, 127488, Note_on_c, 0, 77, 0
2, 127920, Note_on_c, 0, 81, 108
2, 127920, Note_on_c, 0, 77, 113
2, 127968, Note_on_c, 0, 77, 0
2, 127968, Note_on_c, 0, 81, 0
2, 128400, Note_on_c, 0, 77, 113
2, 128400, Note_on_c, 0, 81, 108
2, 128448, Note_on_c, 0, 81, 0
2, 128448, Note_on_c, 0, 77, 0
2, 128880, Note_on_c, 0, 77, 113
2, 128880, Note_on_c, 0, 81, 108
2, 128928, Note_on_c, 0, 81, 0
2, 128928, Note_on_c, 0, 77, 0
2, 135120, Note_on_c, 0, 82, 113
2, 135168, Note_on_c, 0, 82, 0
2, 135180, Note_on_c, 0, 84, 127
2, 135228, Note_on_c, 0, 84, 0
2, 135240, Note_on_c, 0, 86, 127
2, 135288, Note_on_c, 0, 86, 0
2, 135300, Note_on_c, 0, 87, 127
2, 135324, Note_on_c, 0, 87, 0
2, 135330, Note_on_c, 0, 86, 127
2, 135354, Note_on_c, 0, 86, 0
2, 135360, Note_on_c, 0, 84, 127
2, 135408, Note_on_c, 0, 84, 0
2, 135420, Note_on_c, 0, 86, 127
2, 135468, Note_on_c, 0, 86, 0
2, 135480, Note_on_c, 0, 87, 121
2, 135528, Note_on_c, 0, 87, 0
2, 135540, Note_on_c, 0, 89, 127
2, 135564, Note_on_c, 0, 89, 0
2, 135570, Note_on_c, 0, 87, 113
2, 135594, Note_on_c, 0, 87, 0
2, 135600, Note_on_c, 0, 86, 127
2, 135648, Note_on_c, 0, 86, 0
2, 138000, Note_on_c, 0, 88, 107
2, 138152, Note_on_c, 0, 88, 0
2, 138160, Note_on_c, 0, 89, 127
2, 138192, Note_on_c, 0, 89, 0
2, 138200, Note_on_c, 0, 91, 127
2, 138232, Note_on_c, 0, 91, 0
2, 138240, Note_on_c, 0, 84, 111
2, 138392, Note_on_c, 0, 84, 0
2, 138400, Note_on_c, 0, 86, 125
2, 138432, Note_on_c, 0, 86, 0
2, 138440, Note_on_c, 0, 88, 121
2, 138472, Note_on_c, 0, 88, 0
2, 138480, Note_on_c, 0, 77, 125
2, 138480, Note_on_c, 0, 89, 125
2, 138576, Note_on_c, 0, 89, 0
2, 138576, Note_on_c, 0, 77, 0
2, 138600, Note_on_c, 0, 72, 127
2, 138600, Note_on_c, 0, 84, 127
2, 138696, Note_on_c, 0, 72, 0
2, 138720, Note_on_c, 0, 72, 118
2, 138912, Note_on_c, 0, 72, 0
2, 138912, Note_on_c, 0, 84, 0
2, 138960, Note_on_c, 0, 81, 127
2, 138960, Note_on_c, 0, 93, 127
2, 139056, Note_on_c, 0, 93, 0
2, 139056, Note_on_c, 0, 81, 0
2, 139080, Note_on_c, 0, 77, 125
2, 139080, Note_on_c, 0, 89, 125
2, 139176, Note_on_c, 0, 77, 0
2, 139200, Note_on_c, 0, 77, 127
2, 139392, Note_on_c, 0, 77, 0
2, 139392, Note_on_c, 0, 89, 0
2, 139440, Note_on_c, 0, 77, 125
2, 139440, Note_on_c, 0, 89, 125
2, 139536, Note_on_c, 0, 89, 0
2, 139536, Note_on_c, 0, 77, 0
2, 139560, Note_on_c, 0, 72, 127
2, 139560, Note_on_c, 0, 84, 127
2, 139656, Note_on_c, 0, 72, 0
2, 139680, Note_on_c, 0, 72, 118
2, 139872, Note_on_c, 0, 72, 0
2, 139872, Note_on_c, 0, 84, 0
2, 139920, Note_on_c, 0, 81, 120
2, 139920, Note_on_c, 0, 93, 120
2, 140016, Note_on_c, 0, 93, 0
2, 140016, Note_on_c, 0, 81, 0
2, 140040, Note_on_c, 0, 77, 127
2, 140040, Note_on_c, 0, 89, 127
2, 140136, Note_on_c, 0, 89, 0
2, 140136, Note_on_c, 0, 77, 0
2, 140160, Note_on_c, 0, 77, 127
2, 140160, Note_on_c, 0, 89, 127
2, 140352, Note_on_c, 0, 89, 0
2, 140352, Note_on_c, 0, 77, 0
2, 140400, Note_on_c, 0, 81, 125
2, 140400, Note_on_c, 0, 93, 125
2, 140496, Note_on_c, 0, 93, 0
2, 140496, Note_on_c, 0, 81, 0
2, 140520, Note_on_c, 0, 77, 117
2, 140520, Note_on_c, 0, 89, 117
2, 140616, Note_on_c, 0, 89, 0
2, 140616, Note_on_c, 0, 77, 0
2, 140640, Note_on_c, 0, 81, 127
2, 140640, Note_on_c, 0, 93, 127
2, 140736, Note_on_c, 0, 93, 0
2, 140736, Note_on_c, 0, 81, 0
2, 140760, Note_on_c, 0, 77, 127
2, 140760, Note_on_c, 0, 89, 127
2, 140856, Note_on_c, 0, 89, 0
2, 140856, Note_on_c, 0, 77, 0
2, 140880, Note_on_c, 0, 81, 114
2, 140880, Note_on_c, 0, 93, 114
2, 140976, Note_on_c, 0, 93, 0
2, 140976, Note_on_c, 0, 81, 0
2, 141000, Note_on_c, 0, 77, 127
2, 141000, Note_on_c, 0, 89, 127
2, 141096, Note_on_c, 0, 89, 0
2, 141096, Note_on_c, 0, 77, 0
2, 141120, Note_on_c, 0, 79, 121
2, 141120, Note_on_c, 0, 91, 121
2, 141216, Note_on_c, 0, 91, 0
2, 141216, Note_on_c, 0, 79, 0
2, 141240, Note_on_c, 0, 76, 127
2, 141240, Note_on_c, 0, 88, 127
2, 141336, Note_on_c, 0, 88, 0
2, 141336, Note_on_c, 0, 76, 0
2, 141360, Note_on_c, 0, 81, 127
2, 141360, Note_on_c, 0, 93, 116
2, 141456, Note_on_c, 0, 93, 0
2, 141456, Note_on_c, 0, 81, 0
2, 141480, Note_on_c, 0, 77, 106
2, 141480, Note_on_c, 0, 89, 114
2, 141576, Note_on_c, 0, 89, 0
2, 141576, Note_on_c, 0, 77, 0
2, 141600, Note_on_c, 0, 93, 116
2, 141600, Note_on_c, 0, 81, 123
2, 141696, Note_on_c, 0, 81, 0
2, 141696, Note_on_c, 0, 93, 0
2, 141720, Note_on_c, 0, 77, 109
2, 141720, Note_on_c, 0, 89, 121
2, 141816, Note_on_c, 0, 89, 0
2, 141816, Note_on_c, 0, 77, 0
2, 141840, Note_on_c, 0, 93, 110
2, 141840, Note_on_c, 0, 81, 127
2, 141936, Note_on_c, 0, 81, 0
2, 141936, Note_on_c, 0, 93, 0
2, 141960, Note_on_c, 0, 77, 104
2, 141960, Note_on_c, 0, 89, 116
2, 142056, Note_on_c, 0, 89, 0
2, 142056, Note_on_c, 0, 77, 0
2, 142080, Note_on_c, 0, 79, 123
2, 142080, Note_on_c, 0, 91, 123
2, 142176, Note_on_c, 0, 91, 0
2, 142176, Note_on_c, 0, 79, 0
2, 142200, Note_on_c, 0, 76, 125
2, 142200, Note_on_c, 0, 88, 114
2, 142296, Note_on_c, 0, 88, 0
2, 142296, Note_on_c, 0, 76, 0
2, 142320, Note_on_c, 0, 93, 123
2, 142320, Note_on_c, 0, 81, 121
2, 142416, Note_on_c, 0, 81, 0
2, 142416, Note_on_c, 0, 93, 0
2, 142440, Note_on_c, 0, 77, 114
2, 142440, Note_on_c, 0, 89, 120
2, 142536, Note_on_c, 0, 89, 0
2, 142536, Note_on_c, 0, 77, 0
2, 142560, Note_on_c, 0, 93, 118
2, 142560, Note_on_c, 0, 81, 121
2, 142656, Note_on_c, 0, 81, 0
2, 142656, Note_on_c, 0, 93, 0
2, 142680, Note_on_c, 0, 77, 108
2, 142680, Note_on_c, 0, 89, 127
2, 142776, Note_on_c, 0, 89, 0
2, 142776, Note_on_c, 0, 77, 0
2, 142800, Note_on_c, 0, 89, 103
2, 142800, Note_on_c, 0, 93, 98
2, 143328, Note_on_c, 0, 93, 0
2, 143328, Note_on_c, 0, 89, 0
2, 145680, Note_on_c, 0, 84, 98
2, 145872, Note_on_c, 0, 84, 0
2, 145920, Note_on_c, 0, 89, 102
2, 145920, Note_on_c, 0, 84, 118
2, 145968, Note_on_c, 0, 84, 0
2, 145968, Note_on_c, 0, 89, 0
2, 146040, Note_on_c, 0, 84, 105
2, 146040, Note_on_c, 0, 88, 105
2, 146088, Note_on_c, 0, 88, 0
2, 146088, Note_on_c, 0, 84, 0
2, 146640, Note_on_c, 0, 84, 92
2, 146832, Note_on_c, 0, 84, 0
2, 146880, Note_on_c, 0, 89, 112
2, 146880, Note_on_c, 0, 84, 109
2, 146928, Note_on_c, 0, 84, 0
2, 146928, Note_on_c, 0, 89, 0
2, 147000, Note_on_c, 0, 84, 101
2, 147000, Note_on_c, 0, 88, 105
2, 147048, Note_on_c, 0, 88, 0
2, 147048, Note_on_c, 0, 84, 0
2, 147120, Note_on_c, 0, 84, 107
2, 147120, Note_on_c, 0, 89, 104
2, 147168, Note_on_c, 0, 89, 0
2, 147168, Note_on_c, 0, 84, 0
2, 152400, Note_on_c, 0, 77, 117
2, 152448, Note_on_c, 0, 77, 0
2, 152460, Note_on_c, 0, 79, 123
2, 152508, Note_on_c, 0, 79, 0
2, 152520, Note_on_c, 0, 81, 127
2, 152568, Note_on_c, 0, 81, 0
2, 152580, Note_on_c, 0, 82, 109
2, 152604, Note_on_c, 0, 82, 0
2, 152610, Note_on_c, 0, 81, 117
2, 152634, Note_on_c, 0, 81, 0
2, 152640, Note_on_c, 0, 79, 127
2, 152688, Note_on_c, 0, 79, 0
2, 152700, Note_on_c, 0, 81, 127
2, 152748, Note_on_c, 0, 81, 0
2, 152760, Note_on_c, 0, 82, 115
2, 152808, Note_on_c, 0, 82, 0
2, 152820, Note_on_c, 0, 84, 120
2, 152844, Note_on_c, 0, 84, 0
2, 152850, Note_on_c, 0, 82, 100
2, 152874, Note_on_c, 0, 82, 0
2, 152880, Note_on_c, 0, 81, 127
2, 152928, Note_on_c, 0, 81, 0
2, 152940, Note_on_c, 0, 82, 103
2, 152988, Note_on_c, 0, 82, 0
2, 153000, Note_on_c, 0, 84, 104
2, 153048, Note_on_c, 0, 84, 0
2, 153060, Note_on_c, 0, 86, 111
2, 153084, Note_on_c, 0, 86, 0
2, 153090, Note_on_c, 0, 84, 107
2, 153114, Note_on_c, 0, 84, 0
2, 153120, Note_on_c, 0, 82, 105
2, 153168, Note_on_c, 0, 82, 0
2, 153180, Note_on_c, 0, 84, 123
2, 153228, Note_on_c, 0, 84, 0
2, 153240, Note_on_c, 0, 86, 118
2, 153288, Note_on_c, 0, 86, 0
2, 153300, Note_on_c, 0, 88, 123
2, 153348, Note_on_c, 0, 88, 0
2, 153360, Note_on_c, 0, 89, 114
2, 153408, Note_on_c, 0, 89, 0
2, 154080, Note_on_c, 0, 70, 115
2, 154080, Note_on_c, 0, 82, 123
2, 154128, Note_on_c, 0, 82, 0
2, 154128, Note_on_c, 0, 70, 0
2, 154140, Note_on_c, 0, 72, 127
2, 154140, Note_on_c, 0, 84, 114
2, 154188, Note_on_c, 0, 84, 0
2, 154188, Note_on_c, 0, 72, 0
2, 154200, Note_on_c, 0, 74, 120
2, 154200, Note_on_c, 0, 86, 118
2, 154248, Note_on_c, 0, 86, 0
2, 154248, Note_on_c, 0, 74, 0
2, 154260, Note_on_c, 0, 88, 127
2, 154260, Note_on_c, 0, 76, 109
2, 154308, Note_on_c, 0, 76, 0
2, 154308, Note_on_c, 0, 88, 0
2, 154320, Note_on_c, 0, 89, 117
2, 154320, Note_on_c, 0, 77, 111
2, 154512, Note_on_c, 0, 77, 0
2, 154512, Note_on_c, 0, 89, 0
2, 154560, Note_on_c, 0, 88, 116
2, 154560, Note_on_c, 0, 84, 111
2, 154752, Note_on_c, 0, 84, 0
2, 154752, Note_on_c, 0, 88, 0
2, 154800, Note_on_c, 0, 89, 127
2, 154800, Note_on_c, 0, 84, 121
2, 154992, Note_on_c, 0, 84, 0
2, 154992, Note_on_c, 0, 89, 0
2, 155040, Note_on_c, 0, 84, 120
2, 155040, Note_on_c, 0, 89, 113
2, 155152, Note_on_c, 0, 89, 0
2, 155152, Note_on_c, 0, 84, 0
2, 155160, Note_on_c, 0, 84, 120
2, 155160, Note_on_c, 0, 89, 117
2, 155272, Note_on_c, 0, 89, 0
2, 155272, Note_on_c, 0, 84, 0
2, 155280, Note_on_c, 0, 84, 125
2, 155280, Note_on_c, 0, 89, 107
2, 155472, Note_on_c, 0, 89, 0
2, 155472, Note_on_c, 0, 84, 0
2, 155520, Note_on_c, 0, 89, 109
2, 155712, Note_on_c, 0, 89, 0
2, 155760, Note_on_c, 0, 89, 117
2, 155952, Note_on_c, 0, 89, 0
2, 155952, End_track
3, 0, Start_track
3, 0, MIDI_port, 0
3, 0, Title_t, "Oboes"
3, 0, Program_c, 1, 68
3, 0, Control_c, 1, 7, 127
3, 6540, Note_on_c, 1, 74, 121
3, 6564, Note_on_c, 1, 74, 0
3, 6570, Note_on_c, 1, 76, 123
3, 6594, Note_on_c, 1, 76, 0
3, 6600, Note_on_c, 1, 77, 127
3, 6648, Note_on_c, 1, 77, 0
3, 6660, Note_on_c, 1, 79, 127
3, 6708, Note_on_c, 1, 79, 0
3, 6720, Note_on_c, 1, 81, 127
3, 6768, Note_on_c, 1, 81, 0
3, 6780, Note_on_c, 1, 81, 127
3, 6828, Note_on_c, 1, 81, 0
3, 6840, Note_on_c, 1, 82, 121
3, 6888, Note_on_c, 1, 82, 0
3, 6900, Note_on_c, 1, 86, 120
3, 6948, Note_on_c, 1, 86, 0
3, 6960, Note_on_c, 1, 84, 127
3, 7008, Note_on_c, 1, 84, 0
3, 7020, Note_on_c, 1, 82, 126
3, 7044, Note_on_c, 1, 82, 0
3, 7050, Note_on_c, 1, 81, 123
3, 7074, Note_on_c, 1, 81, 0
3, 7080, Note_on_c, 1, 79, 127
3, 7128, Note_on_c, 1, 79, 0
3, 7140, Note_on_c, 1, 72, 127
3, 7188, Note_on_c, 1, 72, 0
3, 7200, Note_on_c, 1, 77, 127
3, 7248, Note_on_c, 1, 77, 0
3, 7260, Note_on_c, 1, 79, 127
3, 7308, Note_on_c, 1, 79, 0
3, 7320, Note_on_c, 1, 77, 105
3, 7320, Note_on_c, 1, 81, 112
3, 7368, Note_on_c, 1, 81, 0
3, 7368, Note_on_c, 1, 77, 0
3, 7380, Note_on_c, 1, 79, 127
3, 7380, Note_on_c, 1, 82, 115
3, 7404, Note_on_c, 1, 82, 0
3, 7404, Note_on_c, 1, 79, 0
3, 7410, Note_on_c, 1, 77, 113
3, 7410, Note_on_c, 1, 81, 123
3, 7434, Note_on_c, 1, 81, 0
3, 7434, Note_on_c, 1, 77, 0
3, 7440, Note_on_c, 1, 76, 123
3, 7440, Note_on_c, 1, 79, 123
3, 7488, Note_on_c, 1, 79, 0
3, 7488, Note_on_c, 1, 76, 0
3, 7500, Note_on_c, 1, 77, 98
3, 7500, Note_on_c, 1, 81, 127
3, 7548, Note_on_c, 1, 81, 0
3, 7548, Note_on_c, 1, 77, 0
3, 7560, Note_on_c, 1, 79, 125
3, 7560, Note_on_c, 1, 82, 118
3, 7608, Note_on_c, 1, 82, 0
3, 7608, Note_on_c, 1, 79, 0
3, 7620, Note_on_c, 1, 84, 120
3, 7620, Note_on_c, 1, 81, 127
3, 7644, Note_on_c, 1, 81, 0
3, 7644, Note_on_c, 1, 84, 0
3, 7650, Note_on_c, 1, 82, 105
3, 7650, Note_on_c, 1, 79, 112
3, 7674, Note_on_c, 1, 79, 0
3, 7674, Note_on_c, 1, 82, 0
3, 7680, Note_on_c, 1, 81, 121
3, 7680, Note_on_c, 1, 77, 117
3, 7728, Note_on_c, 1, 77, 0
3, 7728, Note_on_c, 1, 81, 0
3, 7740, Note_on_c, 1, 84, 103
3, 7740, Note_on_c, 1, 72, 107
3, 7788, Note_on_c, 1, 72, 0
3, 7788, Note_on_c, 1, 84, 0
3, 7800, Note_on_c, 1, 84, 109
3, 7800, Note_on_c, 1, 72, 117
3, 7848, Note_on_c, 1, 72, 0
3, 7848, Note_on_c, 1, 84, 0
3, 7860, Note_on_c, 1, 84, 120
3, 7860, Note_on_c, 1, 72, 114
3, 7908, Note_on_c, 1, 72, 0
3, 7908, Note_on_c, 1, 84, 0
3, 7920, Note_on_c, 1, 84, 101
3, 7920, Note_on_c, 1, 72, 105
3, 7968, Note_on_c, 1, 72, 0
3, 7968, Note_on_c, 1, 84, 0
3, 7980, Note_on_c, 1, 84, 109
3, 7980, Note_on_c, 1, 72, 110
3, 8028, Note_on_c, 1, 72, 0
3, 8028, Note_on_c, 1, 84, 0
3, 8040, Note_on_c, 1, 84, 110
3, 8040, Note_on_c, 1, 72, 110
3, 8088, Note_on_c, 1, 72, 0
3, 8088, Note_on_c, 1, 84, 0
3, 8100, Note_on_c, 1, 84, 107
3, 8100, Note_on_c, 1, 72, 110
3, 8148, Note_on_c, 1, 72, 0
3, 8148, Note_on_c, 1, 84, 0
3, 8160, Note_on_c, 1, 84, 116
3, 8160, Note_on_c, 1, 72, 113
3, 8208, Note_on_c, 1, 72, 0
3, 8208, Note_on_c, 1, 84, 0
3, 8220, Note_on_c, 1, 84, 117
3, 8220, Note_on_c, 1, 72, 118
3, 8268, Note_on_c, 1, 72, 0
3, 8268, Note_on_c, 1, 84, 0
3, 8280, Note_on_c, 1, 84, 108
3, 8280, Note_on_c, 1, 72, 114
3, 8328, Note_on_c, 1, 72, 0
3, 8328, Note_on_c, 1, 84, 0
3, 8340, Note_on_c, 1, 84, 116
3, 8340, Note_on_c, 1, 72, 114
3, 8388, Note_on_c, 1, 72, 0
3, 8388, Note_on_c, 1, 84, 0
3, 8400, Note_on_c, 1, 84, 120
3, 8400, Note_on_c, 1, 72, 117
3, 8448, Note_on_c, 1, 72, 0
3, 8448, Note_on_c, 1, 84, 0
3, 8460, Note_on_c, 1, 84, 103
3, 8460, Note_on_c, 1, 72, 110
3, 8508, Note_on_c, 1, 72, 0
3, 8508, Note_on_c, 1, 84, 0
3, 8520, Note_on_c, 1, 84, 109
3, 8520, Note_on_c, 1, 72, 109
3, 8568, Note_on_c, 1, 72, 0
3, 8568, Note_on_c, 1, 84, 0
3, 8580, Note_on_c, 1, 84, 101
3, 8580, Note_on_c, 1, 72, 107
3, 8628, Note_on_c, 1, 72, 0
3, 8628, Note_on_c, 1, 84, 0
3, 8640, Note_on_c, 1, 84, 107
3, 8640, Note_on_c, 1, 72, 114
3, 8688, Note_on_c, 1, 72, 0
3, 8688, Note_on_c, 1, 84, 0
3, 8700, Note_on_c, 1, 77, 112
3, 8700, Note_on_c, 1, 81, 127
3, 8748, Note_on_c, 1, 81, 0
3, 8748, Note_on_c, 1, 77, 0
3, 8760, Note_on_c, 1, 79, 123
3, 8760, Note_on_c, 1, 82, 111
3, 8808, Note_on_c, 1, 82, 0
3, 8808, Note_on_c, 1, 79, 0
3, 8820, Note_on_c, 1, 82, 105
3, 8820, Note_on_c, 1, 86, 127
3, 8868, Note_on_c, 1, 86, 0
3, 8868, Note_on_c, 1, 82, 0
3, 8880, Note_on_c, 1, 84, 121
3, 8880, Note_on_c, 1, 81, 120
3, 8928, Note_on_c, 1, 81, 0
3, 8928, Note_on_c, 1, 84, 0
3, 8940, Note_on_c, 1, 79, 127
3, 8940, Note_on_c, 1, 82, 109
3, 8964, Note_on_c, 1, 82, 0
3, 8964, Note_on_c, 1, 79, 0
3, 8970, Note_on_c, 1, 77, 101
3, 8970, Note_on_c, 1, 81, 109
3, 8994, Note_on_c, 1, 81, 0
3, 8994, Note_on_c, 1, 77, 0
3, 9000, Note_on_c, 1, 79, 127
3, 9000, Note_on_c, 1, 76, 127
3, 9048, Note_on_c, 1, 76, 0
3, 9048, Note_on_c, 1, 79, 0
3, 9060, Note_on_c, 1, 72, 111
3, 9108, Note_on_c, 1, 72, 0
3, 9120, Note_on_c, 1, 77, 127
3, 9168, Note_on_c, 1, 77, 0
3, 9180, Note_on_c, 1, 79, 114
3, 9180, Note_on_c, 1, 76, 105
3, 9228, Note_on_c, 1, 76, 0
3, 9228, Note_on_c, 1, 79, 0
3, 9240, Note_on_c, 1, 77, 111
3, 9240, Note_on_c, 1, 81, 127
3, 9288, Note_on_c, 1, 81, 0
3, 9288, Note_on_c, 1, 77, 0
3, 9300, Note_on_c, 1, 79, 127
3, 9300, Note_on_c, 1, 82, 115
3, 9324, Note_on_c, 1, 82, 0
3, 9324, Note_on_c, 1, 79, 0
3, 9330, Note_on_c, 1, 77, 109
3, 9330, Note_on_c, 1, 81, 120
3, 9354, Note_on_c, 1, 81, 0
3, 9354, Note_on_c, 1, 77, 0
3, 9360, Note_on_c, 1, 76, 118
3, 9360, Note_on_c, 1, 79, 127
3, 9408, Note_on_c, 1, 79, 0
3, 9408, Note_on_c, 1, 76, 0
3, 9420, Note_on_c, 1, 77, 116
3, 9420, Note_on_c, 1, 81, 127
3, 9468, Note_on_c, 1, 81, 0
3, 9468, Note_on_c, 1, 77, 0
3, 9480, Note_on_c, 1, 82, 109
3, 9480, Note_on_c, 1, 79, 127
3, 9528, Note_on_c, 1, 79, 0
3, 9528, Note_on_c, 1, 82, 0
3, 9540, Note_on_c, 1, 81, 127
3, 9540, Note_on_c, 1, 84, 120
3, 9564, Note_on_c, 1, 84, 0
3, 9564, Note_on_c, 1, 81, 0
3, 9570, Note_on_c, 1, 82, 118
3, 9570, Note_on_c, 1, 79, 127
3, 9594, Note_on_c, 1, 79, 0
3, 9594, Note_on_c, 1, 82, 0
3, 9600, Note_on_c, 1, 77, 107
3, 9600, Note_on_c, 1, 81, 120
3, 9648, Note_on_c, 1, 81, 0
3, 9648, Note_on_c, 1, 77, 0
3, 9660, Note_on_c, 1, 81, 121
3, 9660, Note_on_c, 1, 84, 120
3, 9708, Note_on_c, 1, 84, 0
3, 9708, Note_on_c, 1, 81, 0
3, 9720, Note_on_c, 1, 81, 123
3, 9720, Note_on_c, 1, 84, 125
3, 9768, Note_on_c, 1, 84, 0
3, 9768, Note_on_c, 1, 81, 0
3, 9780, Note_on_c, 1, 81, 114
3, 9780, Note_on_c, 1, 84, 109
3, 9828, Note_on_c, 1, 84, 0
3, 9828, Note_on_c, 1, 81, 0
3, 9840, Note_on_c, 1, 81, 127
3, 9840, Note_on_c, 1, 84, 127
3, 9936, Note_on_c, 1, 84, 0
3, 9936, Note_on_c, 1, 81, 0
3, 9960, Note_on_c, 1, 82, 115
3, 9960, Note_on_c, 1, 79, 127
3, 9984, Note_on_c, 1, 79, 0
3, 9984, Note_on_c, 1, 82, 0
3, 9990, Note_on_c, 1, 81, 120
3, 9990, Note_on_c, 1, 77, 104
3, 10014, Note_on_c, 1, 77, 0
3, 10014, Note_on_c, 1, 81, 0
3, 10020, Note_on_c, 1, 79, 113
3, 10020, Note_on_c, 1, 76, 102
3, 10044, Note_on_c, 1, 76, 0
3, 10044, Note_on_c, 1, 79, 0
3, 10050, Note_on_c, 1, 77, 123
3, 10050, Note_on_c, 1, 74, 117
3, 10074, Note_on_c, 1, 74, 0
3, 10074, Note_on_c, 1, 77, 0
3, 10080, Note_on_c, 1, 76, 127
3, 10080, Note_on_c, 1, 72, 120
3, 10128, Note_on_c, 1, 72, 0
3, 10128, Note_on_c, 1, 76, 0
3, 10140, Note_on_c, 1, 74, 117
3, 10140, Note_on_c, 1, 77, 127
3, 10188, Note_on_c, 1, 77, 0
3, 10188, Note_on_c, 1, 74, 0
3, 10200, Note_on_c, 1, 79, 104
3, 10200, Note_on_c, 1, 76, 116
3, 10248, Note_on_c, 1, 76, 0
3, 10248, Note_on_c, 1, 79, 0
3, 10260, Note_on_c, 1, 77, 113
3, 10260, Note_on_c, 1, 81, 127
3, 10284, Note_on_c, 1, 81, 0
3, 10284, Note_on_c, 1, 77, 0
3, 10290, Note_on_c, 1, 79, 107
3, 10290, Note_on_c, 1, 76, 110
3, 10314, Note_on_c, 1, 76, 0
3, 10314, Note_on_c, 1, 79, 0
3, 10320, Note_on_c, 1, 77, 127
3, 10320, Note_on_c, 1, 74, 118
3, 10368, Note_on_c, 1, 74, 0
3, 10368, Note_on_c, 1, 77, 0
3, 10380, Note_on_c, 1, 76, 118
3, 10380, Note_on_c, 1, 79, 127
3, 10428, Note_on_c, 1, 79, 0
3, 10428, Note_on_c, 1, 76, 0
3, 10440, Note_on_c, 1, 81, 114
3, 10440, Note_on_c, 1, 77, 111
3, 10488, Note_on_c, 1, 77, 0
3, 10488, Note_on_c, 1, 81, 0
3, 10500, Note_on_c, 1, 82, 103
3, 10500, Note_on_c, 1, 79, 112
3, 10524, Note_on_c, 1, 79, 0
3, 10524, Note_on_c, 1, 82, 0
3, 10530, Note_on_c, 1, 81, 112
3, 10530, Note_on_c, 1, 77, 99
3, 10554, Note_on_c, 1, 77, 0
3, 10554, Note_on_c, 1, 81, 0
3, 10560, Note_on_c, 1, 79, 116
3, 10560, Note_on_c, 1, 76, 99
3, 10608, Note_on_c, 1, 76, 0
3, 10608, Note_on_c, 1, 79, 0
3, 10620, Note_on_c, 1, 82, 80
3, 10620, Note_on_c, 1, 79, 104
3, 10668, Note_on_c, 1, 79, 0
3, 10668, Note_on_c, 1, 82, 0
3, 10680, Note_on_c, 1, 79, 127
3, 10680, Note_on_c, 1, 82, 123
3, 10728, Note_on_c, 1, 82, 0
3, 10728, Note_on_c, 1, 79, 0
3, 10740, Note_on_c, 1, 79, 127
3, 10740, Note_on_c, 1, 82, 126
3, 10788, Note_on_c, 1, 82, 0
3, 10788, Note_on_c, 1, 79, 0
3, 10800, Note_on_c, 1, 82, 100
3, 10800, Note_on_c, 1, 79, 117
3, 10896, Note_on_c, 1, 79, 0
3, 10896, Note_on_c, 1, 82, 0
3, 10920, Note_on_c, 1, 81, 123
3, 10920, Note_on_c, 1, 84, 117
3, 10944, Note_on_c, 1, 84, 0
3, 10944, Note_on_c, 1, 81, 0
3, 10950, Note_on_c, 1, 79, 121
3, 10950, Note_on_c, 1, 82, 111
3, 10974, Note_on_c, 1, 82, 0
3, 10974, Note_on_c, 1, 79, 0
3, 10980, Note_on_c, 1, 81, 109
3, 10980, Note_on_c, 1, 77, 99
3, 11004, Note_on_c, 1, 77, 0
3, 11004, Note_on_c, 1, 81, 0
3, 11010, Note_on_c, 1, 79, 112
3, 11010, Note_on_c, 1, 76, 101
3, 11034, Note_on_c, 1, 76, 0
3, 11034, Note_on_c, 1, 79, 0
3, 11040, Note_on_c, 1, 77, 102
3, 11040, Note_on_c, 1, 81, 107
3, 11088, Note_on_c, 1, 81, 0
3, 11088, Note_on_c, 1, 77, 0
3, 11100, Note_on_c, 1, 79, 103
3, 11100, Note_on_c, 1, 82, 96
3, 11148, Note_on_c, 1, 82, 0
3, 11148, Note_on_c, 1, 79, 0
3, 11160, Note_on_c, 1, 81, 106
3, 11160, Note_on_c, 1, 84, 109
3, 11256, Note_on_c, 1, 84, 0
3, 11256, Note_on_c, 1, 81, 0
3, 11280, Note_on_c, 1, 82, 89
3, 11280, Note_on_c, 1, 79, 127
3, 11328, Note_on_c, 1, 79, 0
3, 11328, Note_on_c, 1, 82, 0
3, 11340, Note_on_c, 1, 76, 109
3, 11340, Note_on_c, 1, 79, 127
3, 11388, Note_on_c, 1, 79, 0
3, 11388, Note_on_c, 1, 76, 0
3, 11400, Note_on_c, 1, 82, 103
3, 11400, Note_on_c, 1, 79, 120
3, 11448, Note_on_c, 1, 79, 0
3, 11448, Note_on_c, 1, 82, 0
3, 11460, Note_on_c, 1, 79, 117
3, 11460, Note_on_c, 1, 76, 114
3, 11508, Note_on_c, 1, 76, 0
3, 11508, Note_on_c, 1, 79, 0
3, 11520, Note_on_c, 1, 77, 123
3, 11520, Note_on_c, 1, 81, 127
3, 11568, Note_on_c, 1, 81, 0
3, 11568, Note_on_c, 1, 77, 0
3, 11580, Note_on_c, 1, 79, 118
3, 11580, Note_on_c, 1, 82, 118
3, 11628, Note_on_c, 1, 82, 0
3, 11628, Note_on_c, 1, 79, 0
3, 11640, Note_on_c, 1, 81, 114
3, 11640, Note_on_c, 1, 84, 117
3, 11736, Note_on_c, 1, 84, 0
3, 11736, Note_on_c, 1, 81, 0
3, 11760, Note_on_c, 1, 79, 123
3, 11760, Note_on_c, 1, 82, 85
3, 11808, Note_on_c, 1, 82, 0
3, 11808, Note_on_c, 1, 79, 0
3, 11820, Note_on_c, 1, 79, 116
3, 11820, Note_on_c, 1, 76, 113
3, 11868, Note_on_c, 1, 76, 0
3, 11868, Note_on_c, 1, 79, 0
3, 11880, Note_on_c, 1, 82, 86
3, 11880, Note_on_c, 1, 79, 118
3, 11928, Note_on_c, 1, 79, 0
3, 11928, Note_on_c, 1, 82, 0
3, 11940, Note_on_c, 1, 79, 117
3, 11940, Note_on_c, 1, 76, 114
3, 11988, Note_on_c, 1, 76, 0
3, 11988, Note_on_c, 1, 79, 0
3, 12000, Note_on_c, 1, 77, 102
3, 12000, Note_on_c, 1, 81, 116
3, 12048, Note_on_c, 1, 81, 0
3, 12048, Note_on_c, 1, 77, 0
3, 12060, Note_on_c, 1, 76, 127
3, 12060, Note_on_c, 1, 79, 118
3, 12108, Note_on_c, 1, 79, 0
3, 12108, Note_on_c, 1, 76, 0
3, 12120, Note_on_c, 1, 82, 92
3, 12120, Note_on_c, 1, 79, 127
3, 12168, Note_on_c, 1, 79, 0
3, 12168, Note_on_c, 1, 82, 0
3, 12180, Note_on_c, 1, 79, 108
3, 12180, Note_on_c, 1, 76, 109
3, 12228, Note_on_c, 1, 76, 0
3, 12228, Note_on_c, 1, 79, 0
3, 12240, Note_on_c, 1, 77, 105
3, 12240, Note_on_c, 1, 81, 123
3, 12288, Note_on_c, 1, 81, 0
3, 12288, Note_on_c, 1, 77, 0
3, 12300, Note_on_c, 1, 79, 118
3, 12300, Note_on_c, 1, 76, 110
3, 12348, Note_on_c, 1, 76, 0
3, 12348, Note_on_c, 1, 79, 0
3, 12360, Note_on_c, 1, 79, 111
3, 12360, Note_on_c, 1, 82, 86
3, 12408, Note_on_c, 1, 82, 0
3, 12408, Note_on_c, 1, 79, 0
3, 12420, Note_on_c, 1, 76, 116
3, 12420, Note_on_c, 1, 79, 118
3, 12468, Note_on_c, 1, 79, 0
3, 12468, Note_on_c, 1, 76, 0
3, 12480, Note_on_c, 1, 77, 107
3, 12480, Note_on_c, 1, 81, 110
3, 12528, Note_on_c, 1, 81, 0
3, 12528, Note_on_c, 1, 77, 0
3, 20880, Note_on_c, 1, 79, 100
3, 20880, Note_on_c, 1, 67, 105
3, 21312, Note_on_c, 1, 67, 0
3, 21312, Note_on_c, 1, 79, 0
3, 21360, Note_on_c, 1, 84, 112
3, 21360, Note_on_c, 1, 72, 104
3, 21552, Note_on_c, 1, 72, 0
3, 21552, Note_on_c, 1, 84, 0
3, 21600, Note_on_c, 1, 81, 127
3, 21648, Note_on_c, 1, 81, 0
3, 21660, Note_on_c, 1, 79, 125
3, 21708, Note_on_c, 1, 79, 0
3, 21720, Note_on_c, 1, 77, 127
3, 21768, Note_on_c, 1, 77, 0
3, 21780, Note_on_c, 1, 74, 125
3, 21828, Note_on_c, 1, 74, 0
3, 21840, Note_on_c, 1, 67, 120
3, 21888, Note_on_c, 1, 67, 0
3, 21900, Note_on_c, 1, 77, 127
3, 21948, Note_on_c, 1, 77, 0
3, 21960, Note_on_c, 1, 74, 127
3, 22008, Note_on_c, 1, 74, 0
3, 22020, Note_on_c, 1, 67, 116
3, 22068, Note_on_c, 1, 67, 0
3, 22080, Note_on_c, 1, 76, 116
3, 22080, Note_on_c, 1, 79, 125
3, 22128, Note_on_c, 1, 79, 0
3, 22128, Note_on_c, 1, 76, 0
3, 22800, Note_on_c, 1, 81, 113
3, 22800, Note_on_c, 1, 84, 125
3, 22848, Note_on_c, 1, 84, 0
3, 22848, Note_on_c, 1, 81, 0
3, 23040, Note_on_c, 1, 81, 127
3, 23040, Note_on_c, 1, 84, 123
3, 23136, Note_on_c, 1, 84, 0
3, 23136, Note_on_c, 1, 81, 0
3, 23160, Note_on_c, 1, 83, 127
3, 23160, Note_on_c, 1, 79, 109
3, 23208, Note_on_c, 1, 79, 0
3, 23208, Note_on_c, 1, 83, 0
3, 23220, Note_on_c, 1, 77, 111
3, 23220, Note_on_c, 1, 81, 117
3, 23268, Note_on_c, 1, 81, 0
3, 23268, Note_on_c, 1, 77, 0
3, 23280, Note_on_c, 1, 79, 121
3, 23280, Note_on_c, 1, 76, 117
3, 23376, Note_on_c, 1, 76, 0
3, 23376, Note_on_c, 1, 79, 0
3, 23400, Note_on_c, 1, 77, 127
3, 23400, Note_on_c, 1, 74, 120
3, 23448, Note_on_c, 1, 74, 0
3, 23448, Note_on_c, 1, 77, 0
3, 23460, Note_on_c, 1, 76, 125
3, 23460, Note_on_c, 1, 72, 112
3, 23508, Note_on_c, 1, 72, 0
3, 23508, Note_on_c, 1, 76, 0
3, 23520, Note_on_c, 1, 72, 106
3, 23520, Note_on_c, 1, 76, 107
3, 23568, Note_on_c, 1, 76, 0
3, 23568, Note_on_c, 1, 72, 0
3, 23580, Note_on_c, 1, 71, 114
3, 23580, Note_on_c, 1, 74, 123
3, 23628, Note_on_c, 1, 74, 0
3, 23628, Note_on_c, 1, 71, 0
3, 23640, Note_on_c, 1, 72, 127
3, 23640, Note_on_c, 1, 69, 103
3, 23688, Note_on_c, 1, 69, 0
3, 23688, Note_on_c, 1, 72, 0
3, 23700, Note_on_c, 1, 74, 127
3, 23700, Note_on_c, 1, 71, 127
3, 23748, Note_on_c, 1, 71, 0
3, 23748, Note_on_c, 1, 74, 0
3, 23760, Note_on_c, 1, 72, 117
3, 23760, Note_on_c, 1, 76, 117
3, 23808, Note_on_c, 1, 76, 0
3, 23808, Note_on_c, 1, 72, 0
3, 24480, Note_on_c, 1, 84, 121
3, 24480, Note_on_c, 1, 81, 109
3, 24528, Note_on_c, 1, 81, 0
3, 24528, Note_on_c, 1, 84, 0
3, 24720, Note_on_c, 1, 81, 112
3, 24720, Note_on_c, 1, 84, 127
3, 24816, Note_on_c, 1, 84, 0
3, 24816, Note_on_c, 1, 81, 0
3, 24840, Note_on_c, 1, 79, 123
3, 24840, Note_on_c, 1, 83, 127
3, 24888, Note_on_c, 1, 83, 0
3, 24888, Note_on_c, 1, 79, 0
3, 24900, Note_on_c, 1, 81, 118
3, 24900, Note_on_c, 1, 77, 104
3, 24996, Note_on_c, 1, 77, 0
3, 24996, Note_on_c, 1, 81, 0
3, 25080, Note_on_c, 1, 77, 99
3, 25080, Note_on_c, 1, 74, 127
3, 25128, Note_on_c, 1, 74, 0
3, 25128, Note_on_c, 1, 77, 0
3, 25140, Note_on_c, 1, 76, 118
3, 25140, Note_on_c, 1, 72, 94
3, 25188, Note_on_c, 1, 72, 0
3, 25188, Note_on_c, 1, 76, 0
3, 25200, Note_on_c, 1, 76, 103
3, 25200, Note_on_c, 1, 72, 109
3, 25248, Note_on_c, 1, 72, 0
3, 25248, Note_on_c, 1, 76, 0
3, 25260, Note_on_c, 1, 71, 127
3, 25260, Note_on_c, 1, 74, 127
3, 25308, Note_on_c, 1, 74, 0
3, 25308, Note_on_c, 1, 71, 0
3, 25320, Note_on_c, 1, 69, 107
3, 25320, Note_on_c, 1, 72, 121
3, 25368, Note_on_c, 1, 72, 0
3, 25368, Note_on_c, 1, 69, 0
3, 25380, Note_on_c, 1, 74, 120
3, 25380, Note_on_c, 1, 71, 101
3, 25428, Note_on_c, 1, 71, 0
3, 25428, Note_on_c, 1, 74, 0
3, 25440, Note_on_c, 1, 76, 120
3, 25440, Note_on_c, 1, 72, 110
3, 25488, Note_on_c, 1, 72, 0
3, 25488, Note_on_c, 1, 76, 0
3, 25500, Note_on_c, 1, 72, 127
3, 25548, Note_on_c, 1, 72, 0
3, 25560, Note_on_c, 1, 72, 96
3, 25560, Note_on_c, 1, 84, 100
3, 25608, Note_on_c, 1, 84, 0
3, 25608, Note_on_c, 1, 72, 0
3, 25620, Note_on_c, 1, 72, 113
3, 25620, Note_on_c, 1, 84, 113
3, 25668, Note_on_c, 1, 84, 0
3, 25668, Note_on_c, 1, 72, 0
3, 25680, Note_on_c, 1, 81, 108
3, 25680, Note_on_c, 1, 84, 116
3, 25728, Note_on_c, 1, 84, 0
3, 25728, Note_on_c, 1, 81, 0
3, 25740, Note_on_c, 1, 81, 123
3, 25740, Note_on_c, 1, 84, 120
3, 25788, Note_on_c, 1, 84, 0
3, 25788, Note_on_c, 1, 81, 0
3, 25800, Note_on_c, 1, 83, 121
3, 25800, Note_on_c, 1, 79, 113
3, 25848, Note_on_c, 1, 79, 0
3, 25848, Note_on_c, 1, 83, 0
3, 25860, Note_on_c, 1, 81, 114
3, 25860, Note_on_c, 1, 77, 109
3, 25908, Note_on_c, 1, 77, 0
3, 25908, Note_on_c, 1, 81, 0
3, 25920, Note_on_c, 1, 79, 120
3, 25920, Note_on_c, 1, 76, 120
3, 25968, Note_on_c, 1, 76, 0
3, 25968, Note_on_c, 1, 79, 0
3, 25980, Note_on_c, 1, 79, 127
3, 25980, Note_on_c, 1, 76, 125
3, 26028, Note_on_c, 1, 76, 0
3, 26028, Note_on_c, 1, 79, 0
3, 26040, Note_on_c, 1, 77, 117
3, 26040, Note_on_c, 1, 74, 106
3, 26088, Note_on_c, 1, 74, 0
3, 26088, Note_on_c, 1, 77, 0
3, 26100, Note_on_c, 1, 76, 121
3, 26100, Note_on_c, 1, 72, 107
3, 26148, Note_on_c, 1, 72, 0
3, 26148, Note_on_c, 1, 76, 0
3, 26160, Note_on_c, 1, 76, 105
3, 26160, Note_on_c, 1, 72, 108
3, 26208, Note_on_c, 1, 72, 0
3, 26208, Note_on_c, 1, 76, 0
3, 26220, Note_on_c, 1, 74, 101
3, 26220, Note_on_c, 1, 71, 98
3, 26268, Note_on_c, 1, 71, 0
3, 26268, Note_on_c, 1, 74, 0
3, 26280, Note_on_c, 1, 72, 106
3, 26280, Note_on_c, 1, 69, 102
3, 26328, Note_on_c, 1, 69, 0
3, 26328, Note_on_c, 1, 72, 0
3, 26340, Note_on_c, 1, 71, 127
3, 26340, Note_on_c, 1, 74, 117
3, 26388, Note_on_c, 1, 74, 0
3, 26388, Note_on_c, 1, 71, 0
3, 26400, Note_on_c, 1, 72, 103
3, 26400, Note_on_c, 1, 76, 121
3, 26448, Note_on_c, 1, 76, 0
3, 26448, Note_on_c, 1, 72, 0
3, 26520, Note_on_c, 1, 84, 121
3, 26520, Note_on_c, 1, 79, 120
3, 26568, Note_on_c, 1, 79, 0
3, 26568, Note_on_c, 1, 84, 0
3, 26640, Note_on_c, 1, 81, 112
3, 26640, Note_on_c, 1, 84, 125
3, 26688, Note_on_c, 1, 84, 0
3, 26688, Note_on_c, 1, 81, 0
3, 26760, Note_on_c, 1, 81, 100
3, 26760, Note_on_c, 1, 84, 117
3, 26808, Note_on_c, 1, 84, 0
3, 26808, Note_on_c, 1, 81, 0
3, 26880, Note_on_c, 1, 79, 117
3, 26880, Note_on_c, 1, 84, 120
3, 26928, Note_on_c, 1, 84, 0
3, 26928, Note_on_c, 1, 79, 0
3, 27000, Note_on_c, 1, 79, 123
3, 27000, Note_on_c, 1, 76, 103
3, 27048, Note_on_c, 1, 76, 0
3, 27048, Note_on_c, 1, 79, 0
3, 27120, Note_on_c, 1, 74, 110
3, 27120, Note_on_c, 1, 79, 114
3, 27168, Note_on_c, 1, 79, 0
3, 27168, Note_on_c, 1, 74, 0
3, 27240, Note_on_c, 1, 83, 117
3, 27240, Note_on_c, 1, 74, 113
3, 27288, Note_on_c, 1, 74, 0
3, 27288, Note_on_c, 1, 83, 0
3, 27360, Note_on_c, 1, 84, 101
3, 27360, Note_on_c, 1, 72, 101
3, 27456, Note_on_c, 1, 72, 0
3, 27456, Note_on_c, 1, 84, 0
3, 27480, Note_on_c, 1, 79, 89
3, 27480, Note_on_c, 1, 67, 96
3, 27792, Note_on_c, 1, 67, 0
3, 27792, Note_on_c, 1, 79, 0
3, 27840, Note_on_c, 1, 76, 127
3, 27936, Note_on_c, 1, 76, 0
3, 27960, Note_on_c, 1, 72, 118
3, 28272, Note_on_c, 1, 72, 0
3, 28320, Note_on_c, 1, 84, 110
3, 28320, Note_on_c, 1, 72, 107
3, 28416, Note_on_c, 1, 72, 0
3, 28416, Note_on_c, 1, 84, 0
3, 28440, Note_on_c, 1, 79, 99
3, 28440, Note_on_c, 1, 67, 98
3, 28752, Note_on_c, 1, 67, 0
3, 28752, Note_on_c, 1, 79, 0
3, 28800, Note_on_c, 1, 76, 127
3, 28896, Note_on_c, 1, 76, 0
3, 28920, Note_on_c, 1, 72, 117
3, 29232, Note_on_c, 1, 72, 0
3, 29280, Note_on_c, 1, 72, 125
3, 29376, Note_on_c, 1, 72, 0
3, 29400, Note_on_c, 1, 67, 127
3, 29496, Note_on_c, 1, 67, 0
3, 29520, Note_on_c, 1, 72, 127
3, 29616, Note_on_c, 1, 72, 0
3, 29640, Note_on_c, 1, 67, 127
3, 29736, Note_on_c, 1, 67, 0
3, 29760, Note_on_c, 1, 72, 127
3, 29856, Note_on_c, 1, 72, 0
3, 29880, Note_on_c, 1, 67, 121
3, 29976, Note_on_c, 1, 67, 0
3, 30000, Note_on_c, 1, 72, 127
3, 30096, Note_on_c, 1, 72, 0
3, 30120, Note_on_c, 1, 67, 109
3, 30216, Note_on_c, 1, 67, 0
3, 30240, Note_on_c, 1, 72, 127
3, 30288, Note_on_c, 1, 72, 0
3, 39660, Note_on_c, 1, 74, 121
3, 39684, Note_on_c, 1, 74, 0
3, 39690, Note_on_c, 1, 76, 123
3, 39714, Note_on_c, 1, 76, 0
3, 39720, Note_on_c, 1, 77, 127
3, 39768, Note_on_c, 1, 77, 0
3, 39780, Note_on_c, 1, 79, 127
3, 39828, Note_on_c, 1, 79, 0
3, 39840, Note_on_c, 1, 81, 127
3, 39888, Note_on_c, 1, 81, 0
3, 39900, Note_on_c, 1, 81, 127
3, 39948, Note_on_c, 1, 81, 0
3, 39960, Note_on_c, 1, 82, 121
3, 40008, Note_on_c, 1, 82, 0
3, 40020, Note_on_c, 1, 86, 120
3, 40068, Note_on_c, 1, 86, 0
3, 40080, Note_on_c, 1, 84, 127
3, 40128, Note_on_c, 1, 84, 0
3, 40140, Note_on_c, 1, 82, 126
3, 40164, Note_on_c, 1, 82, 0
3, 40170, Note_on_c, 1, 81, 123
3, 40194, Note_on_c, 1, 81, 0
3, 40200, Note_on_c, 1, 79, 127
3, 40248, Note_on_c, 1, 79, 0
3, 40260, Note_on_c, 1, 72, 127
3, 40308, Note_on_c, 1, 72, 0
3, 40320, Note_on_c, 1, 77, 127
3, 40368, Note_on_c, 1, 77, 0
3, 40380, Note_on_c, 1, 79, 127
3, 40428, Note_on_c, 1, 79, 0
3, 40440, Note_on_c, 1, 77, 105
3, 40440, Note_on_c, 1, 81, 112
3, 40488, Note_on_c, 1, 81, 0
3, 40488, Note_on_c, 1, 77, 0
3, 40500, Note_on_c, 1, 79, 127
3, 40500, Note_on_c, 1, 82, 115
3, 40524, Note_on_c, 1, 82, 0
3, 40524, Note_on_c, 1, 79, 0
3, 40530, Note_on_c, 1, 77, 113
3, 40530, Note_on_c, 1, 81, 123
3, 40554, Note_on_c, 1, 81, 0
3, 40554, Note_on_c, 1, 77, 0
3, 40560, Note_on_c, 1, 76, 123
3, 40560, Note_on_c, 1, 79, 123
3, 40608, Note_on_c, 1, 79, 0
3, 40608, Note_on_c, 1, 76, 0
3, 40620, Note_on_c, 1, 77, 98
3, 40620, Note_on_c, 1, 81, 127
3, 40668, Note_on_c, 1, 81, 0
3, 40668, Note_on_c, 1, 77, 0
3, 40680, Note_on_c, 1, 79, 125
3, 40680, Note_on_c, 1, 82, 118
3, 40728, Note_on_c, 1, 82, 0
3, 40728, Note_on_c, 1, 79, 0
3, 40740, Note_on_c, 1, 84, 120
3, 40740, Note_on_c, 1, 81, 127
3, 40764, Note_on_c, 1, 81, 0
3, 40764, Note_on_c, 1, 84, 0
3, 40770, Note_on_c, 1, 82, 105
3, 40770, Note_on_c, 1, 79, 112
3, 40794, Note_on_c, 1, 79, 0
3, 40794, Note_on_c, 1, 82, 0
3, 40800, Note_on_c, 1, 81, 121
3, 40800, Note_on_c, 1, 77, 117
3, 40848, Note_on_c, 1, 77, 0
3, 40848, Note_on_c, 1, 81, 0
3, 40860, Note_on_c, 1, 84, 103
3, 40860, Note_on_c, 1, 72, 107
3, 40908, Note_on_c, 1, 72, 0
3, 40908, Note_on_c, 1, 84, 0
3, 40920, Note_on_c, 1, 84, 109
3, 40920, Note_on_c, 1, 72, 117
3, 40968, Note_on_c, 1, 72, 0
3, 40968, Note_on_c, 1, 84, 0
3, 40980, Note_on_c, 1, 84, 120
3, 40980, Note_on_c, 1, 72, 114
3, 41028, Note_on_c, 1, 72, 0
3, 41028, Note_on_c, 1, 84, 0
3, 41040, Note_on_c, 1, 84, 101
3, 41040, Note_on_c, 1, 72, 105
3, 41088, Note_on_c, 1, 72, 0
3, 41088, Note_on_c, 1, 84, 0
3, 41100, Note_on_c, 1, 84, 109
3, 41100, Note_on_c, 1, 72, 110
3, 41148, Note_on_c, 1, 72, 0
3, 41148, Note_on_c, 1, 84, 0
3, 41160, Note_on_c, 1, 84, 110
3, 41160, Note_on_c, 1, 72, 110
3, 41208, Note_on_c, 1, 72, 0
3, 41208, Note_on_c, 1, 84, 0
3, 41220, Note_on_c, 1, 84, 107
3, 41220, Note_on_c, 1, 72, 110
3, 41268, Note_on_c, 1, 72, 0
3, 41268, Note_on_c, 1, 84, 0
3, 41280, Note_on_c, 1, 84, 116
3, 41280, Note_on_c, 1, 72, 113
3, 41328, Note_on_c, 1, 72, 0
3, 41328, Note_on_c, 1, 84, 0
3, 41340, Note_on_c, 1, 84, 117
3, 41340, Note_on_c, 1, 72, 118
3, 41388, Note_on_c, 1, 72, 0
3, 41388, Note_on_c, 1, 84, 0
3, 41400, Note_on_c, 1, 84, 108
3, 41400, Note_on_c, 1, 72, 114
3, 41448, Note_on_c, 1, 72, 0
3, 41448, Note_on_c, 1, 84, 0
3, 41460, Note_on_c, 1, 84, 116
3, 41460, Note_on_c, 1, 72, 114
3, 41508, Note_on_c, 1, 72, 0
3, 41508, Note_on_c, 1, 84, 0
3, 41520, Note_on_c, 1, 84, 120
3, 41520, Note_on_c, 1, 72, 117
3, 41568, Note_on_c, 1, 72, 0
3, 41568, Note_on_c, 1, 84, 0
3, 41580, Note_on_c, 1, 84, 103
3, 41580, Note_on_c, 1, 72, 110
3, 41628, Note_on_c, 1, 72, 0
3, 41628, Note_on_c, 1, 84, 0
3, 41640, Note_on_c, 1, 84, 109
3, 41640, Note_on_c, 1, 72, 109
3, 41688, Note_on_c, 1, 72, 0
3, 41688, Note_on_c, 1, 84, 0
3, 41700, Note_on_c, 1, 84, 101
3, 41700, Note_on_c, 1, 72, 107
3, 41748, Note_on_c, 1, 72, 0
3, 41748, Note_on_c, 1, 84, 0
3, 41760, Note_on_c, 1, 84, 107
3, 41760, Note_on_c, 1, 72, 114
3, 41808, Note_on_c, 1, 72, 0
3, 41808, Note_on_c, 1, 84, 0
3, 41820, Note_on_c, 1, 77, 112
3, 41820, Note_on_c, 1, 81, 127
3, 41868, Note_on_c, 1, 81, 0
3, 41868, Note_on_c, 1, 77, 0
3, 41880, Note_on_c, 1, 79, 123
3, 41880, Note_on_c, 1, 82, 111
3, 41928, Note_on_c, 1, 82, 0
3, 41928, Note_on_c, 1, 79, 0
3, 41940, Note_on_c, 1, 82, 105
3, 41940, Note_on_c, 1, 86, 127
3, 41988, Note_on_c, 1, 86, 0
3, 41988, Note_on_c, 1, 82, 0
3, 42000, Note_on_c, 1, 84, 121
3, 42000, Note_on_c, 1, 81, 120
3, 42048, Note_on_c, 1, 81, 0
3, 42048, Note_on_c, 1, 84, 0
3, 42060, Note_on_c, 1, 79, 127
3, 42060, Note_on_c, 1, 82, 109
3, 42084, Note_on_c, 1, 82, 0
3, 42084, Note_on_c, 1, 79, 0
3, 42090, Note_on_c, 1, 77, 101
3, 42090, Note_on_c, 1, 81, 109
3, 42114, Note_on_c, 1, 81, 0
3, 42114, Note_on_c, 1, 77, 0
3, 42120, Note_on_c, 1, 79, 127
3, 42120, Note_on_c, 1, 76, 127
3, 42168, Note_on_c, 1, 76, 0
3, 42168, Note_on_c, 1, 79, 0
3, 42180, Note_on_c, 1, 72, 111
3, 42228, Note_on_c, 1, 72, 0
3, 42240, Note_on_c, 1, 77, 127
3, 42288, Note_on_c, 1, 77, 0
3, 42300, Note_on_c, 1, 79, 114
3, 42300, Note_on_c, 1, 76, 105
3, 42348, Note_on_c, 1, 76, 0
3, 42348, Note_on_c, 1, 79, 0
3, 42360, Note_on_c, 1, 77, 111
3, 42360, Note_on_c, 1, 81, 127
3, 42408, Note_on_c, 1, 81, 0
3, 42408, Note_on_c, 1, 77, 0
3, 42420, Note_on_c, 1, 79, 127
3, 42420, Note_on_c, 1, 82, 115
3, 42444, Note_on_c, 1, 82, 0
3, 42444, Note_on_c, 1, 79, 0
3, 42450, Note_on_c, 1, 77, 109
3, 42450, Note_on_c, 1, 81, 120
3, 42474, Note_on_c, 1, 81, 0
3, 42474, Note_on_c, 1, 77, 0
3, 42480, Note_on_c, 1, 76, 118
3, 42480, Note_on_c, 1, 79, 127
3, 42528, Note_on_c, 1, 79, 0
3, 42528, Note_on_c, 1, 76, 0
3, 42540, Note_on_c, 1, 77, 116
3, 42540, Note_on_c, 1, 81, 127
3, 42588, Note_on_c, 1, 81, 0
3, 42588, Note_on_c, 1, 77, 0
3, 42600, Note_on_c, 1, 82, 109
3, 42600, Note_on_c, 1, 79, 127
3, 42648, Note_on_c, 1, 79, 0
3, 42648, Note_on_c, 1, 82, 0
3, 42660, Note_on_c, 1, 81, 127
3, 42660, Note_on_c, 1, 84, 120
3, 42684, Note_on_c, 1, 84, 0
3, 42684, Note_on_c, 1, 81, 0
3, 42690, Note_on_c, 1, 82, 118
3, 42690, Note_on_c, 1, 79, 127
3, 42714, Note_on_c, 1, 79, 0
3, 42714, Note_on_c, 1, 82, 0
3, 42720, Note_on_c, 1, 77, 107
3, 42720, Note_on_c, 1, 81, 120
3, 42768, Note_on_c, 1, 81, 0
3, 42768, Note_on_c, 1, 77, 0
3, 42780, Note_on_c, 1, 81, 121
3, 42780, Note_on_c, 1, 84, 120
3, 42828, Note_on_c, 1, 84, 0
3, 42828, Note_on_c, 1, 81, 0
3, 42840, Note_on_c, 1, 81, 123
3, 42840, Note_on_c, 1, 84, 125
3, 42888, Note_on_c, 1, 84, 0
3, 42888, Note_on_c, 1, 81, 0
3, 42900, Note_on_c, 1, 81, 114
3, 42900, Note_on_c, 1, 84, 109
3, 42948, Note_on_c, 1, 84, 0
3, 42948, Note_on_c, 1, 81, 0
3, 42960, Note_on_c, 1, 81, 127
3, 42960, Note_on_c, 1, 84, 127
3, 43056, Note_on_c, 1, 84, 0
3, 43056, Note_on_c, 1, 81, 0
3, 43080, Note_on_c, 1, 82, 115
3, 43080, Note_on_c, 1, 79, 127
3, 43104, Note_on_c, 1, 79, 0
3, 43104, Note_on_c, 1, 82, 0
3, 43110, Note_on_c, 1, 81, 120
3, 43110, Note_on_c, 1, 77, 104
3, 43134, Note_on_c, 1, 77, 0
3, 43134, Note_on_c, 1, 81, 0
3, 43140, Note_on_c, 1, 79, 113
3, 43140, Note_on_c, 1, 76, 102
3, 43164, Note_on_c, 1, 76, 0
3, 43164, Note_on_c, 1, 79, 0
3, 43170, Note_on_c, 1, 77, 123
3, 43170, Note_on_c, 1, 74, 117
3, 43194, Note_on_c, 1, 74, 0
3, 43194, Note_on_c, 1, 77, 0
3, 43200, Note_on_c, 1, 76, 127
3, 43200, Note_on_c, 1, 72, 120
3, 43248, Note_on_c, 1, 72, 0
3, 43248, Note_on_c, 1, 76, 0
3, 43260, Note_on_c, 1, 74, 117
3, 43260, Note_on_c, 1, 77, 127
3, 43308, Note_on_c, 1, 77, 0
3, 43308, Note_on_c, 1, 74, 0
3, 43320, Note_on_c, 1, 79, 104
3, 43320, Note_on_c, 1, 76, 116
3, 43368, Note_on_c, 1, 76, 0
3, 43368, Note_on_c, 1, 79, 0
3, 43380, Note_on_c, 1, 77, 113
3, 43380, Note_on_c, 1, 81, 127
3, 43404, Note_on_c, 1, 81, 0
3, 43404, Note_on_c, 1, 77, 0
3, 43410, Note_on_c, 1, 79, 107
3, 43410, Note_on_c, 1, 76, 110
3, 43434, Note_on_c, 1, 76, 0
3, 43434, Note_on_c, 1, 79, 0
3, 43440, Note_on_c, 1, 77, 127
3, 43440, Note_on_c, 1, 74, 118
3, 43488, Note_on_c, 1, 74, 0
3, 43488, Note_on_c, 1, 77, 0
3, 43500, Note_on_c, 1, 76, 118
3, 43500, Note_on_c, 1, 79, 127
3, 43548, Note_on_c, 1, 79, 0
3, 43548, Note_on_c, 1, 76, 0
3, 43560, Note_on_c, 1, 81, 114
3, 43560, Note_on_c, 1, 77, 111
3, 43608, Note_on_c, 1, 77, 0
3, 43608, Note_on_c, 1, 81, 0
3, 43620, Note_on_c, 1, 82, 103
3, 43620, Note_on_c, 1, 79, 112
3, 43644, Note_on_c, 1, 79, 0
3, 43644, Note_on_c, 1, 82, 0
3, 43650, Note_on_c, 1, 81, 112
3, 43650, Note_on_c, 1, 77, 99
3, 43674, Note_on_c, 1, 77, 0
3, 43674, Note_on_c, 1, 81, 0
3, 43680, Note_on_c, 1, 79, 116
3, 43680, Note_on_c, 1, 76, 99
3, 43728, Note_on_c, 1, 76, 0
3, 43728, Note_on_c, 1, 79, 0
3, 43740, Note_on_c, 1, 82, 80
3, 43740, Note_on_c, 1, 79, 104
3, 43788, Note_on_c, 1, 79, 0
3, 43788, Note_on_c, 1, 82, 0
3, 43800, Note_on_c, 1, 79, 127
3, 43800, Note_on_c, 1, 82, 123
3, 43848, Note_on_c, 1, 82, 0
3, 43848, Note_on_c, 1, 79, 0
3, 43860, Note_on_c, 1, 79, 127
3, 43860, Note_on_c, 1, 82, 126
3, 43908, Note_on_c, 1, 82, 0
3, 43908, Note_on_c, 1, 79, 0
3, 43920, Note_on_c, 1, 82, 100
3, 43920, Note_on_c, 1, 79, 117
3, 44016, Note_on_c, 1, 79, 0
3, 44016, Note_on_c, 1, 82, 0
3, 44040, Note_on_c, 1, 81, 123
3, 44040, Note_on_c, 1, 84, 117
3, 44064, Note_on_c, 1, 84, 0
3, 44064, Note_on_c, 1, 81, 0
3, 44070, Note_on_c, 1, 79, 121
3, 44070, Note_on_c, 1, 82, 111
3, 44094, Note_on_c, 1, 82, 0
3, 44094, Note_on_c, 1, 79, 0
3, 44100, Note_on_c, 1, 81, 109
3, 44100, Note_on_c, 1, 77, 99
3, 44124, Note_on_c, 1, 77, 0
3, 44124, Note_on_c, 1, 81, 0
3, 44130, Note_on_c, 1, 79, 112
3, 44130, Note_on_c, 1, 76, 101
3, 44154, Note_on_c, 1, 76, 0
3, 44154, Note_on_c, 1, 79, 0
3, 44160, Note_on_c, 1, 77, 102
3, 44160, Note_on_c, 1, 81, 107
3, 44208, Note_on_c, 1, 81, 0
3, 44208, Note_on_c, 1, 77, 0
3, 44220, Note_on_c, 1, 79, 103
3, 44220, Note_on_c, 1, 82, 96
3, 44268, Note_on_c, 1, 82, 0
3, 44268, Note_on_c, 1, 79, 0
3, 44280, Note_on_c, 1, 81, 106
3, 44280, Note_on_c, 1, 84, 109
3, 44376, Note_on_c, 1, 84, 0
3, 44376, Note_on_c, 1, 81, 0
3, 44400, Note_on_c, 1, 82, 89
3, 44400, Note_on_c, 1, 79, 127
3, 44448, Note_on_c, 1, 79, 0
3, 44448, Note_on_c, 1, 82, 0
3, 44460, Note_on_c, 1, 76, 109
3, 44460, Note_on_c, 1, 79, 127
3, 44508, Note_on_c, 1, 79, 0
3, 44508, Note_on_c, 1, 76, 0
3, 44520, Note_on_c, 1, 82, 103
3, 44520, Note_on_c, 1, 79, 120
3, 44568, Note_on_c, 1, 79, 0
3, 44568, Note_on_c, 1, 82, 0
3, 44580, Note_on_c, 1, 79, 117
3, 44580, Note_on_c, 1, 76, 114
3, 44628, Note_on_c, 1, 76, 0
3, 44628, Note_on_c, 1, 79, 0
3, 44640, Note_on_c, 1, 77, 123
3, 44640, Note_on_c, 1, 81, 127
3, 44688, Note_on_c, 1, 81, 0
3, 44688, Note_on_c, 1, 77, 0
3, 44700, Note_on_c, 1, 79, 118
3, 44700, Note_on_c, 1, 82, 118
3, 44748, Note_on_c, 1, 82, 0
3, 44748, Note_on_c, 1, 79, 0
3, 44760, Note_on_c, 1, 81, 114
3, 44760, Note_on_c, 1, 84, 117
3, 44856, Note_on_c, 1, 84, 0
3, 44856, Note_on_c, 1, 81, 0
3, 44880, Note_on_c, 1, 79, 123
3, 44880, Note_on_c, 1, 82, 85
3, 44928, Note_on_c, 1, 82, 0
3, 44928, Note_on_c, 1, 79, 0
3, 44940, Note_on_c, 1, 79, 116
3, 44940, Note_on_c, 1, 76, 113
3, 44988, Note_on_c, 1, 76, 0
3, 44988, Note_on_c, 1, 79, 0
3, 45000, Note_on_c, 1, 82, 86
3, 45000, Note_on_c, 1, 79, 118
3, 45048, Note_on_c, 1, 79, 0
3, 45048, Note_on_c, 1, 82, 0
3, 45060, Note_on_c, 1, 79, 117
3, 45060, Note_on_c, 1, 76, 114
3, 45108, Note_on_c, 1, 76, 0
3, 45108, Note_on_c, 1, 79, 0
3, 45120, Note_on_c, 1, 77, 102
3, 45120, Note_on_c, 1, 81, 116
3, 45168, Note_on_c, 1, 81, 0
3, 45168, Note_on_c, 1, 77, 0
3, 45180, Note_on_c, 1, 76, 127
3, 45180, Note_on_c, 1, 79, 118
3, 45228, Note_on_c, 1, 79, 0
3, 45228, Note_on_c, 1, 76, 0
3, 45240, Note_on_c, 1, 82, 92
3, 45240, Note_on_c, 1, 79, 127
3, 45288, Note_on_c, 1, 79, 0
3, 45288, Note_on_c, 1, 82, 0
3, 45300, Note_on_c, 1, 79, 108
3, 45300, Note_on_c, 1, 76, 109
3, 45348, Note_on_c, 1, 76, 0
3, 45348, Note_on_c, 1, 79, 0
3, 45360, Note_on_c, 1, 77, 105
3, 45360, Note_on_c, 1, 81, 123
3, 45408, Note_on_c, 1, 81, 0
3, 45408, Note_on_c, 1, 77, 0
3, 45420, Note_on_c, 1, 79, 118
3, 45420, Note_on_c, 1, 76, 110
3, 45468, Note_on_c, 1, 76, 0
3, 45468, Note_on_c, 1, 79, 0
3, 45480, Note_on_c, 1, 79, 111
3, 45480, Note_on_c, 1, 82, 86
3, 45528, Note_on_c, 1, 82, 0
3, 45528, Note_on_c, 1, 79, 0
3, 45540, Note_on_c, 1, 76, 116
3, 45540, Note_on_c, 1, 79, 118
3, 45588, Note_on_c, 1, 79, 0
3, 45588, Note_on_c, 1, 76, 0
3, 45600, Note_on_c, 1, 77, 107
3, 45600, Note_on_c, 1, 81, 110
3, 45648, Note_on_c, 1, 81, 0
3, 45648, Note_on_c, 1, 77, 0
3, 54000, Note_on_c, 1, 79, 100
3, 54000, Note_on_c, 1, 67, 105
3, 54432, Note_on_c, 1, 67, 0
3, 54432, Note_on_c, 1, 79, 0
3, 54480, Note_on_c, 1, 84, 112
3, 54480, Note_on_c, 1, 72, 104
3, 54672, Note_on_c, 1, 72, 0
3, 54672, Note_on_c, 1, 84, 0
3, 54720, Note_on_c, 1, 81, 127
3, 54768, Note_on_c, 1, 81, 0
3, 54780, Note_on_c, 1, 79, 125
3, 54828, Note_on_c, 1, 79, 0
3, 54840, Note_on_c, 1, 77, 127
3, 54888, Note_on_c, 1, 77, 0
3, 54900, Note_on_c, 1, 74, 125
3, 54948, Note_on_c, 1, 74, 0
3, 54960, Note_on_c, 1, 67, 120
3, 55008, Note_on_c, 1, 67, 0
3, 55020, Note_on_c, 1, 77, 127
3, 55068, Note_on_c, 1, 77, 0
3, 55080, Note_on_c, 1, 74, 127
3, 55128, Note_on_c, 1, 74, 0
3, 55140, Note_on_c, 1, 67, 116
3, 55188, Note_on_c, 1, 67, 0
3, 55200, Note_on_c, 1, 76, 116
3, 55200, Note_on_c, 1, 79, 125
3, 55248, Note_on_c, 1, 79, 0
3, 55248, Note_on_c, 1, 76, 0
3, 55920, Note_on_c, 1, 81, 113
3, 55920, Note_on_c, 1, 84, 125
3, 55968, Note_on_c, 1, 84, 0
3, 55968, Note_on_c, 1, 81, 0
3, 56160, Note_on_c, 1, 81, 127
3, 56160, Note_on_c, 1, 84, 123
3, 56256, Note_on_c, 1, 84, 0
3, 56256, Note_on_c, 1, 81, 0
3, 56280, Note_on_c, 1, 83, 127
3, 56280, Note_on_c, 1, 79, 109
3, 56328, Note_on_c, 1, 79, 0
3, 56328, Note_on_c, 1, 83, 0
3, 56340, Note_on_c, 1, 77, 111
3, 56340, Note_on_c, 1, 81, 117
3, 56388, Note_on_c, 1, 81, 0
3, 56388, Note_on_c, 1, 77, 0
3, 56400, Note_on_c, 1, 79, 121
3, 56400, Note_on_c, 1, 76, 117
3, 56496, Note_on_c, 1, 76, 0
3, 56496, Note_on_c, 1, 79, 0
3, 56520, Note_on_c, 1, 77, 127
3, 56520, Note_on_c, 1, 74, 120
3, 56568, Note_on_c, 1, 74, 0
3, 56568, Note_on_c, 1, 77, 0
3, 56580, Note_on_c, 1, 76, 125
3, 56580, Note_on_c, 1, 72, 112
3, 56628, Note_on_c, 1, 72, 0
3, 56628, Note_on_c, 1, 76, 0
3, 56640, Note_on_c, 1, 72, 106
3, 56640, Note_on_c, 1, 76, 107
3, 56688, Note_on_c, 1, 76, 0
3, 56688, Note_on_c, 1, 72, 0
3, 56700, Note_on_c, 1, 71, 114
3, 56700, Note_on_c, 1, 74, 123
3, 56748, Note_on_c, 1, 74, 0
3, 56748, Note_on_c, 1, 71, 0
3, 56760, Note_on_c, 1, 72, 127
3, 56760, Note_on_c, 1, 69, 103
3, 56808, Note_on_c, 1, 69, 0
3, 56808, Note_on_c, 1, 72, 0
3, 56820, Note_on_c, 1, 74, 127
3, 56820, Note_on_c, 1, 71, 127
3, 56868, Note_on_c, 1, 71, 0
3, 56868, Note_on_c, 1, 74, 0
3, 56880, Note_on_c, 1, 72, 117
3, 56880, Note_on_c, 1, 76, 117
3, 56928, Note_on_c, 1, 76, 0
3, 56928, Note_on_c, 1, 72, 0
3, 57600, Note_on_c, 1, 84, 121
3, 57600, Note_on_c, 1, 81, 109
3, 57648, Note_on_c, 1, 81, 0
3, 57648, Note_on_c, 1, 84, 0
3, 57840, Note_on_c, 1, 81, 112
3, 57840, Note_on_c, 1, 84, 127
3, 57936, Note_on_c, 1, 84, 0
3, 57936, Note_on_c, 1, 81, 0
3, 57960, Note_on_c, 1, 79, 123
3, 57960, Note_on_c, 1, 83, 127
3, 58008, Note_on_c, 1, 83, 0
3, 58008, Note_on_c, 1, 79, 0
3, 58020, Note_on_c, 1, 81, 118
3, 58020, Note_on_c, 1, 77, 104
3, 58080, Note_on_c, 1, 76, 105
3, 58080, Note_on_c, 1, 79, 121
3, 58116, Note_on_c, 1, 77, 0
3, 58116, Note_on_c, 1, 81, 0
3, 58176, Note_on_c, 1, 76, 0
3, 58176, Note_on_c, 1, 79, 0
3, 58200, Note_on_c, 1, 77, 99
3, 58200, Note_on_c, 1, 74, 127
3, 58248, Note_on_c, 1, 74, 0
3, 58248, Note_on_c, 1, 77, 0
3, 58260, Note_on_c, 1, 76, 118
3, 58260, Note_on_c, 1, 72, 94
3, 58308, Note_on_c, 1, 72, 0
3, 58308, Note_on_c, 1, 76, 0
3, 58320, Note_on_c, 1, 76, 103
3, 58320, Note_on_c, 1, 72, 109
3, 58368, Note_on_c, 1, 72, 0
3, 58368, Note_on_c, 1, 76, 0
3, 58380, Note_on_c, 1, 71, 127
3, 58380, Note_on_c, 1, 74, 127
3, 58428, Note_on_c, 1, 74, 0
3, 58428, Note_on_c, 1, 71, 0
3, 58440, Note_on_c, 1, 69, 107
3, 58440, Note_on_c, 1, 72, 121
3, 58488, Note_on_c, 1, 72, 0
3, 58488, Note_on_c, 1, 69, 0
3, 58500, Note_on_c, 1, 74, 120
3, 58500, Note_on_c, 1, 71, 101
3, 58548, Note_on_c, 1, 71, 0
3, 58548, Note_on_c, 1, 74, 0
3, 58560, Note_on_c, 1, 76, 120
3, 58560, Note_on_c, 1, 72, 110
3, 58608, Note_on_c, 1, 72, 0
3, 58608, Note_on_c, 1, 76, 0
3, 58620, Note_on_c, 1, 72, 127
3, 58668, Note_on_c, 1, 72, 0
3, 58680, Note_on_c, 1, 72, 96
3, 58680, Note_on_c, 1, 84, 100
3, 58728, Note_on_c, 1, 84, 0
3, 58728, Note_on_c, 1, 72, 0
3, 58740, Note_on_c, 1, 72, 113
3, 58740, Note_on_c, 1, 84, 113
3, 58788, Note_on_c, 1, 84, 0
3, 58788, Note_on_c, 1, 72, 0
3, 58800, Note_on_c, 1, 81, 108
3, 58800, Note_on_c, 1, 84, 116
3, 58848, Note_on_c, 1, 84, 0
3, 58848, Note_on_c, 1, 81, 0
3, 58860, Note_on_c, 1, 81, 123
3, 58860, Note_on_c, 1, 84, 120
3, 58908, Note_on_c, 1, 84, 0
3, 58908, Note_on_c, 1, 81, 0
3, 58920, Note_on_c, 1, 83, 121
3, 58920, Note_on_c, 1, 79, 113
3, 58968, Note_on_c, 1, 79, 0
3, 58968, Note_on_c, 1, 83, 0
3, 58980, Note_on_c, 1, 81, 114
3, 58980, Note_on_c, 1, 77, 109
3, 59028, Note_on_c, 1, 77, 0
3, 59028, Note_on_c, 1, 81, 0
3, 59040, Note_on_c, 1, 79, 120
3, 59040, Note_on_c, 1, 76, 120
3, 59088, Note_on_c, 1, 76, 0
3, 59088, Note_on_c, 1, 79, 0
3, 59100, Note_on_c, 1, 79, 127
3, 59100, Note_on_c, 1, 76, 125
3, 59148, Note_on_c, 1, 76, 0
3, 59148, Note_on_c, 1, 79, 0
3, 59160, Note_on_c, 1, 77, 117
3, 59160, Note_on_c, 1, 74, 106
3, 59208, Note_on_c, 1, 74, 0
3, 59208, Note_on_c, 1, 77, 0
3, 59220, Note_on_c, 1, 76, 121
3, 59220, Note_on_c, 1, 72, 107
3, 59268, Note_on_c, 1, 72, 0
3, 59268, Note_on_c, 1, 76, 0
3, 59280, Note_on_c, 1, 76, 105
3, 59280, Note_on_c, 1, 72, 108
3, 59328, Note_on_c, 1, 72, 0
3, 59328, Note_on_c, 1, 76, 0
3, 59340, Note_on_c, 1, 74, 101
3, 59340, Note_on_c, 1, 71, 98
3, 59388, Note_on_c, 1, 71, 0
3, 59388, Note_on_c, 1, 74, 0
3, 59400, Note_on_c, 1, 72, 106
3, 59400, Note_on_c, 1, 69, 102
3, 59448, Note_on_c, 1, 69, 0
3, 59448, Note_on_c, 1, 72, 0
3, 59460, Note_on_c, 1, 71, 127
3, 59460, Note_on_c, 1, 74, 117
3, 59508, Note_on_c, 1, 74, 0
3, 59508, Note_on_c, 1, 71, 0
3, 59520, Note_on_c, 1, 72, 103
3, 59520, Note_on_c, 1, 76, 121
3, 59568, Note_on_c, 1, 76, 0
3, 59568, Note_on_c, 1, 72, 0
3, 59640, Note_on_c, 1, 84, 121
3, 59640, Note_on_c, 1, 79, 120
3, 59688, Note_on_c, 1, 79, 0
3, 59688, Note_on_c, 1, 84, 0
3, 59760, Note_on_c, 1, 81, 112
3, 59760, Note_on_c, 1, 84, 125
3, 59808, Note_on_c, 1, 84, 0
3, 59808, Note_on_c, 1, 81, 0
3, 59880, Note_on_c, 1, 81, 100
3, 59880, Note_on_c, 1, 84, 117
3, 59928, Note_on_c, 1, 84, 0
3, 59928, Note_on_c, 1, 81, 0
3, 60000, Note_on_c, 1, 79, 117
3, 60000, Note_on_c, 1, 84, 120
3, 60048, Note_on_c, 1, 84, 0
3, 60048, Note_on_c, 1, 79, 0
3, 60120, Note_on_c, 1, 79, 123
3, 60120, Note_on_c, 1, 76, 103
3, 60168, Note_on_c, 1, 76, 0
3, 60168, Note_on_c, 1, 79, 0
3, 60240, Note_on_c, 1, 74, 110
3, 60240, Note_on_c, 1, 79, 114
3, 60288, Note_on_c, 1, 79, 0
3, 60288, Note_on_c, 1, 74, 0
3, 60360, Note_on_c, 1, 83, 117
3, 60360, Note_on_c, 1, 74, 113
3, 60408, Note_on_c, 1, 74, 0
3, 60408, Note_on_c, 1, 83, 0
3, 60480, Note_on_c, 1, 84, 101
3, 60480, Note_on_c, 1, 72, 101
3, 60576, Note_on_c, 1, 72, 0
3, 60576, Note_on_c, 1, 84, 0
3, 60600, Note_on_c, 1, 79, 89
3, 60600, Note_on_c, 1, 67, 96
3, 60912, Note_on_c, 1, 67, 0
3, 60912, Note_on_c, 1, 79, 0
3, 60960, Note_on_c, 1, 76, 127
3, 61056, Note_on_c, 1, 76, 0
3, 61080, Note_on_c, 1, 72, 118
3, 61392, Note_on_c, 1, 72, 0
3, 61440, Note_on_c, 1, 84, 110
3, 61440, Note_on_c, 1, 72, 107
3, 61536, Note_on_c, 1, 72, 0
3, 61536, Note_on_c, 1, 84, 0
3, 61560, Note_on_c, 1, 79, 99
3, 61560, Note_on_c, 1, 67, 98
3, 61872, Note_on_c, 1, 67, 0
3, 61872, Note_on_c, 1, 79, 0
3, 61920, Note_on_c, 1, 76, 127
3, 62016, Note_on_c, 1, 76, 0
3, 62040, Note_on_c, 1, 72, 117
3, 62352, Note_on_c, 1, 72, 0
3, 62400, Note_on_c, 1, 72, 125
3, 62496, Note_on_c, 1, 72, 0
3, 62520, Note_on_c, 1, 67, 127
3, 62616, Note_on_c, 1, 67, 0
3, 62640, Note_on_c, 1, 72, 127
3, 62736, Note_on_c, 1, 72, 0
3, 62760, Note_on_c, 1, 67, 127
3, 62856, Note_on_c, 1, 67, 0
3, 62880, Note_on_c, 1, 72, 127
3, 62976, Note_on_c, 1, 72, 0
3, 63000, Note_on_c, 1, 67, 121
3, 63096, Note_on_c, 1, 67, 0
3, 63120, Note_on_c, 1, 72, 127
3, 63216, Note_on_c, 1, 72, 0
3, 63240, Note_on_c, 1, 67, 109
3, 63336, Note_on_c, 1, 67, 0
3, 63360, Note_on_c, 1, 72, 127
3, 63408, Note_on_c, 1, 72, 0
3, 68160, Note_on_c, 1, 75, 83
3, 68160, Note_on_c, 1, 69, 99
3, 68592, Note_on_c, 1, 69, 0
3, 68592, Note_on_c, 1, 75, 0
3, 68640, Note_on_c, 1, 69, 107
3, 68640, Note_on_c, 1, 75, 95
3, 69072, Note_on_c, 1, 75, 0
3, 69072, Note_on_c, 1, 69, 0
3, 69120, Note_on_c, 1, 74, 125
3, 69120, Note_on_c, 1, 70, 86
3, 69168, Note_on_c, 1, 70, 0
3, 69168, Note_on_c, 1, 74, 0
3, 72000, Note_on_c, 1, 81, 127
3, 72048, Note_on_c, 1, 81, 0
3, 72060, Note_on_c, 1, 78, 82
3, 72084, Note_on_c, 1, 78, 0
3, 72090, Note_on_c, 1, 76, 102
3, 72114, Note_on_c, 1, 76, 0
3, 72120, Note_on_c, 1, 74, 127
3, 72168, Note_on_c, 1, 74, 0
3, 72180, Note_on_c, 1, 69, 99
3, 72228, Note_on_c, 1, 69, 0
3, 72240, Note_on_c, 1, 81, 127
3, 72288, Note_on_c, 1, 81, 0
3, 72300, Note_on_c, 1, 78, 82
3, 72324, Note_on_c, 1, 78, 0
3, 72330, Note_on_c, 1, 76, 102
3, 72354, Note_on_c, 1, 76, 0
3, 72360, Note_on_c, 1, 74, 127
3, 72408, Note_on_c, 1, 74, 0
3, 72420, Note_on_c, 1, 69, 99
3, 72468, Note_on_c, 1, 69, 0
3, 72480, Note_on_c, 1, 81, 127
3, 72528, Note_on_c, 1, 81, 0
3, 72540, Note_on_c, 1, 78, 82
3, 72564, Note_on_c, 1, 78, 0
3, 72570, Note_on_c, 1, 76, 102
3, 72594, Note_on_c, 1, 76, 0
3, 72600, Note_on_c, 1, 74, 127
3, 72648, Note_on_c, 1, 74, 0
3, 72660, Note_on_c, 1, 69, 99
3, 72708, Note_on_c, 1, 69, 0
3, 72720, Note_on_c, 1, 81, 127
3, 72768, Note_on_c, 1, 81, 0
3, 72780, Note_on_c, 1, 78, 82
3, 72804, Note_on_c, 1, 78, 0
3, 72810, Note_on_c, 1, 76, 102
3, 72834, Note_on_c, 1, 76, 0
3, 72840, Note_on_c, 1, 74, 127
3, 72888, Note_on_c, 1, 74, 0
3, 72900, Note_on_c, 1, 69, 99
3, 72948, Note_on_c, 1, 69, 0
3, 72960, Note_on_c, 1, 66, 101
3, 72960, Note_on_c, 1, 74, 127
3, 73152, Note_on_c, 1, 74, 0
3, 73152, Note_on_c, 1, 66, 0
3, 73920, Note_on_c, 1, 74, 100
3, 73920, Note_on_c, 1, 78, 89
3, 74832, Note_on_c, 1, 78, 0
3, 74832, Note_on_c, 1, 74, 0
3, 74880, Note_on_c, 1, 78, 96
3, 74880, Note_on_c, 1, 81, 107
3, 75024, Note_on_c, 1, 81, 0
3, 75024, Note_on_c, 1, 78, 0
3, 75060, Note_on_c, 1, 78, 94
3, 75060, Note_on_c, 1, 81, 116
3, 75108, Note_on_c, 1, 81, 0
3, 75108, Note_on_c, 1, 78, 0
3, 75120, Note_on_c, 1, 81, 107
3, 75120, Note_on_c, 1, 78, 96
3, 75264, Note_on_c, 1, 78, 0
3, 75264, Note_on_c, 1, 81, 0
3, 75300, Note_on_c, 1, 81, 116
3, 75300, Note_on_c, 1, 78, 94
3, 75348, Note_on_c, 1, 78, 0
3, 75348, Note_on_c, 1, 81, 0
3, 75360, Note_on_c, 1, 81, 107
3, 75360, Note_on_c, 1, 78, 96
3, 75504, Note_on_c, 1, 78, 0
3, 75504, Note_on_c, 1, 81, 0
3, 75540, Note_on_c, 1, 81, 116
3, 75540, Note_on_c, 1, 78, 94
3, 75588, Note_on_c, 1, 78, 0
3, 75588, Note_on_c, 1, 81, 0
3, 75600, Note_on_c, 1, 81, 107
3, 75600, Note_on_c, 1, 78, 96
3, 75744, Note_on_c, 1, 78, 0
3, 75744, Note_on_c, 1, 81, 0
3, 75780, Note_on_c, 1, 81, 116
3, 75780, Note_on_c, 1, 78, 94
3, 75828, Note_on_c, 1, 78, 0
3, 75828, Note_on_c, 1, 81, 0
3, 75840, Note_on_c, 1, 78, 111
3, 75840, Note_on_c, 1, 81, 117
3, 75888, Note_on_c, 1, 81, 0
3, 75888, Note_on_c, 1, 78, 0
3, 76320, Note_on_c, 1, 81, 125
3, 76320, Note_on_c, 1, 78, 113
3, 76368, Note_on_c, 1, 78, 0
3, 76368, Note_on_c, 1, 81, 0
3, 79680, Note_on_c, 1, 79, 113
3, 79728, Note_on_c, 1, 79, 0
3, 79740, Note_on_c, 1, 81, 121
3, 79788, Note_on_c, 1, 81, 0
3, 79800, Note_on_c, 1, 83, 95
3, 79848, Note_on_c, 1, 83, 0
3, 79860, Note_on_c, 1, 84, 108
3, 79884, Note_on_c, 1, 84, 0
3, 79890, Note_on_c, 1, 83, 109
3, 79914, Note_on_c, 1, 83, 0
3, 79920, Note_on_c, 1, 74, 100
3, 79920, Note_on_c, 1, 81, 102
3, 79968, Note_on_c, 1, 81, 0
3, 79980, Note_on_c, 1, 79, 104
3, 80028, Note_on_c, 1, 79, 0
3, 80040, Note_on_c, 1, 81, 103
3, 80088, Note_on_c, 1, 81, 0
3, 80100, Note_on_c, 1, 83, 104
3, 80124, Note_on_c, 1, 83, 0
3, 80130, Note_on_c, 1, 81, 103
3, 80154, Note_on_c, 1, 81, 0
3, 80154, Note_on_c, 1, 74, 0
3, 80160, Note_on_c, 1, 74, 103
3, 80160, Note_on_c, 1, 79, 110
3, 80208, Note_on_c, 1, 79, 0
3, 80208, Note_on_c, 1, 74, 0
3, 81120, Note_on_c, 1, 79, 127
3, 81168, Note_on_c, 1, 79, 0
3, 81180, Note_on_c, 1, 74, 127
3, 81204, Note_on_c, 1, 74, 0
3, 81210, Note_on_c, 1, 72, 118
3, 81234, Note_on_c, 1, 72, 0
3, 81240, Note_on_c, 1, 71, 127
3, 81288, Note_on_c, 1, 71, 0
3, 81300, Note_on_c, 1, 67, 102
3, 81348, Note_on_c, 1, 67, 0
3, 81360, Note_on_c, 1, 79, 127
3, 81408, Note_on_c, 1, 79, 0
3, 81420, Note_on_c, 1, 74, 127
3, 81444, Note_on_c, 1, 74, 0
3, 81450, Note_on_c, 1, 72, 118
3, 81474, Note_on_c, 1, 72, 0
3, 81480, Note_on_c, 1, 71, 127
3, 81528, Note_on_c, 1, 71, 0
3, 81540, Note_on_c, 1, 67, 102
3, 81588, Note_on_c, 1, 67, 0
3, 81600, Note_on_c, 1, 79, 127
3, 81648, Note_on_c, 1, 79, 0
3, 81660, Note_on_c, 1, 74, 127
3, 81684, Note_on_c, 1, 74, 0
3, 81690, Note_on_c, 1, 72, 118
3, 81714, Note_on_c, 1, 72, 0
3, 81720, Note_on_c, 1, 71, 127
3, 81768, Note_on_c, 1, 71, 0
3, 81780, Note_on_c, 1, 67, 102
3, 81828, Note_on_c, 1, 67, 0
3, 81840, Note_on_c, 1, 79, 127
3, 81888, Note_on_c, 1, 79, 0
3, 81900, Note_on_c, 1, 74, 127
3, 81924, Note_on_c, 1, 74, 0
3, 81930, Note_on_c, 1, 72, 118
3, 81954, Note_on_c, 1, 72, 0
3, 81960, Note_on_c, 1, 71, 127
3, 82008, Note_on_c, 1, 71, 0
3, 82020, Note_on_c, 1, 67, 102
3, 82068, Note_on_c, 1, 67, 0
3, 83040, Note_on_c, 1, 83, 112
3, 83088, Note_on_c, 1, 83, 0
3, 83100, Note_on_c, 1, 81, 108
3, 83124, Note_on_c, 1, 81, 0
3, 83130, Note_on_c, 1, 80, 91
3, 83154, Note_on_c, 1, 80, 0
3, 83160, Note_on_c, 1, 76, 121
3, 83208, Note_on_c, 1, 76, 0
3, 83220, Note_on_c, 1, 71, 109
3, 83268, Note_on_c, 1, 71, 0
3, 83280, Note_on_c, 1, 83, 112
3, 83328, Note_on_c, 1, 83, 0
3, 83340, Note_on_c, 1, 81, 108
3, 83364, Note_on_c, 1, 81, 0
3, 83370, Note_on_c, 1, 80, 91
3, 83394, Note_on_c, 1, 80, 0
3, 83400, Note_on_c, 1, 76, 121
3, 83448, Note_on_c, 1, 76, 0
3, 83460, Note_on_c, 1, 71, 109
3, 83508, Note_on_c, 1, 71, 0
3, 83520, Note_on_c, 1, 83, 112
3, 83568, Note_on_c, 1, 83, 0
3, 83580, Note_on_c, 1, 81, 108
3, 83604, Note_on_c, 1, 81, 0
3, 83610, Note_on_c, 1, 80, 91
3, 83634, Note_on_c, 1, 80, 0
3, 83640, Note_on_c, 1, 76, 121
3, 83688, Note_on_c, 1, 76, 0
3, 83700, Note_on_c, 1, 71, 109
3, 83748, Note_on_c, 1, 71, 0
3, 83760, Note_on_c, 1, 83, 112
3, 83808, Note_on_c, 1, 83, 0
3, 83820, Note_on_c, 1, 81, 108
3, 83844, Note_on_c, 1, 81, 0
3, 83850, Note_on_c, 1, 80, 91
3, 83874, Note_on_c, 1, 80, 0
3, 83880, Note_on_c, 1, 76, 121
3, 83928, Note_on_c, 1, 76, 0
3, 83940, Note_on_c, 1, 71, 109
3, 83988, Note_on_c, 1, 71, 0
3, 84960, Note_on_c, 1, 76, 108
3, 84960, Note_on_c, 1, 68, 92
3, 85872, Note_on_c, 1, 68, 0
3, 85872, Note_on_c, 1, 76, 0
3, 85920, Note_on_c, 1, 80, 96
3, 85920, Note_on_c, 1, 83, 107
3, 86064, Note_on_c, 1, 83, 0
3, 86064, Note_on_c, 1, 80, 0
3, 86100, Note_on_c, 1, 80, 94
3, 86100, Note_on_c, 1, 83, 116
3, 86148, Note_on_c, 1, 83, 0
3, 86148, Note_on_c, 1, 80, 0
3, 86160, Note_on_c, 1, 83, 107
3, 86160, Note_on_c, 1, 80, 96
3, 86304, Note_on_c, 1, 80, 0
3, 86304, Note_on_c, 1, 83, 0
3, 86340, Note_on_c, 1, 83, 116
3, 86340, Note_on_c, 1, 80, 94
3, 86388, Note_on_c, 1, 80, 0
3, 86388, Note_on_c, 1, 83, 0
3, 86400, Note_on_c, 1, 83, 107
3, 86400, Note_on_c, 1, 80, 96
3, 86544, Note_on_c, 1, 80, 0
3, 86544, Note_on_c, 1, 83, 0
3, 86580, Note_on_c, 1, 83, 116
3, 86580, Note_on_c, 1, 80, 94
3, 86628, Note_on_c, 1, 80, 0
3, 86628, Note_on_c, 1, 83, 0
3, 86640, Note_on_c, 1, 83, 107
3, 86640, Note_on_c, 1, 80, 96
3, 86784, Note_on_c, 1, 80, 0
3, 86784, Note_on_c, 1, 83, 0
3, 86820, Note_on_c, 1, 83, 116
3, 86820, Note_on_c, 1, 80, 94
3, 86868, Note_on_c, 1, 80, 0
3, 86868, Note_on_c, 1, 83, 0
3, 86880, Note_on_c, 1, 80, 111
3, 86880, Note_on_c, 1, 83, 117
3, 86928, Note_on_c, 1, 83, 0
3, 86928, Note_on_c, 1, 80, 0
3, 87360, Note_on_c, 1, 83, 125
3, 87360, Note_on_c, 1, 80, 113
3, 87408, Note_on_c, 1, 80, 0
3, 87408, Note_on_c, 1, 83, 0
3, 90720, Note_on_c, 1, 81, 80
3, 90912, Note_on_c, 1, 81, 0
3, 90960, Note_on_c, 1, 76, 80
3, 91152, Note_on_c, 1, 76, 0
3, 91200, Note_on_c, 1, 69, 103
3, 91200, Note_on_c, 1, 73, 110
3, 91248, Note_on_c, 1, 73, 0
3, 91248, Note_on_c, 1, 69, 0
3, 96000, Note_on_c, 1, 84, 100
3, 96000, Note_on_c, 1, 72, 98
3, 96432, Note_on_c, 1, 72, 0
3, 96432, Note_on_c, 1, 84, 0
3, 96480, Note_on_c, 1, 84, 103
3, 96480, Note_on_c, 1, 72, 103
3, 96912, Note_on_c, 1, 72, 0
3, 96912, Note_on_c, 1, 84, 0
3, 96960, Note_on_c, 1, 84, 109
3, 96960, Note_on_c, 1, 72, 103
3, 97392, Note_on_c, 1, 72, 0
3, 97392, Note_on_c, 1, 84, 0
3, 97440, Note_on_c, 1, 84, 107
3, 97440, Note_on_c, 1, 72, 108
3, 97872, Note_on_c, 1, 72, 0
3, 97872, Note_on_c, 1, 84, 0
3, 97920, Note_on_c, 1, 84, 102
3, 97920, Note_on_c, 1, 72, 101
3, 98352, Note_on_c, 1, 72, 0
3, 98352, Note_on_c, 1, 84, 0
3, 98400, Note_on_c, 1, 84, 105
3, 98400, Note_on_c, 1, 72, 103
3, 98784, Note_on_c, 1, 72, 0
3, 98784, Note_on_c, 1, 84, 0
3, 98820, Note_on_c, 1, 84, 102
3, 98820, Note_on_c, 1, 72, 101
3, 98868, Note_on_c, 1, 72, 0
3, 98868, Note_on_c, 1, 84, 0
3, 98880, Note_on_c, 1, 74, 109
3, 98880, Note_on_c, 1, 86, 107
3, 98928, Note_on_c, 1, 86, 0
3, 98928, Note_on_c, 1, 74, 0
3, 107580, Note_on_c, 1, 62, 121
3, 107580, Note_on_c, 1, 74, 121
3, 107604, Note_on_c, 1, 74, 0
3, 107604, Note_on_c, 1, 62, 0
3, 107610, Note_on_c, 1, 76, 127
3, 107610, Note_on_c, 1, 64, 116
3, 107634, Note_on_c, 1, 64, 0
3, 107634, Note_on_c, 1, 76, 0
3, 107640, Note_on_c, 1, 77, 90
3, 107640, Note_on_c, 1, 65, 105
3, 107688, Note_on_c, 1, 65, 0
3, 107688, Note_on_c, 1, 77, 0
3, 107700, Note_on_c, 1, 79, 95
3, 107700, Note_on_c, 1, 67, 101
3, 107748, Note_on_c, 1, 67, 0
3, 107748, Note_on_c, 1, 79, 0
3, 107760, Note_on_c, 1, 69, 127
3, 107760, Note_on_c, 1, 81, 127
3, 107808, Note_on_c, 1, 81, 0
3, 107808, Note_on_c, 1, 69, 0
3, 107820, Note_on_c, 1, 81, 120
3, 107820, Note_on_c, 1, 77, 127
3, 107868, Note_on_c, 1, 77, 0
3, 107868, Note_on_c, 1, 81, 0
3, 107880, Note_on_c, 1, 79, 127
3, 107880, Note_on_c, 1, 82, 113
3, 107928, Note_on_c, 1, 82, 0
3, 107928, Note_on_c, 1, 79, 0
3, 107940, Note_on_c, 1, 86, 127
3, 107940, Note_on_c, 1, 82, 121
3, 107988, Note_on_c, 1, 82, 0
3, 107988, Note_on_c, 1, 86, 0
3, 108000, Note_on_c, 1, 81, 120
3, 108000, Note_on_c, 1, 84, 113
3, 108048, Note_on_c, 1, 84, 0
3, 108048, Note_on_c, 1, 81, 0
3, 108060, Note_on_c, 1, 79, 127
3, 108060, Note_on_c, 1, 82, 109
3, 108084, Note_on_c, 1, 82, 0
3, 108084, Note_on_c, 1, 79, 0
3, 108090, Note_on_c, 1, 81, 109
3, 108090, Note_on_c, 1, 77, 101
3, 108114, Note_on_c, 1, 77, 0
3, 108114, Note_on_c, 1, 81, 0
3, 108120, Note_on_c, 1, 76, 118
3, 108120, Note_on_c, 1, 79, 125
3, 108168, Note_on_c, 1, 79, 0
3, 108168, Note_on_c, 1, 76, 0
3, 108180, Note_on_c, 1, 72, 106
3, 108228, Note_on_c, 1, 72, 0
3, 108240, Note_on_c, 1, 77, 125
3, 108288, Note_on_c, 1, 77, 0
3, 108300, Note_on_c, 1, 79, 109
3, 108300, Note_on_c, 1, 76, 102
3, 108348, Note_on_c, 1, 76, 0
3, 108348, Note_on_c, 1, 79, 0
3, 108360, Note_on_c, 1, 81, 113
3, 108360, Note_on_c, 1, 77, 104
3, 108408, Note_on_c, 1, 77, 0
3, 108408, Note_on_c, 1, 81, 0
3, 108420, Note_on_c, 1, 79, 121
3, 108420, Note_on_c, 1, 82, 97
3, 108444, Note_on_c, 1, 82, 0
3, 108444, Note_on_c, 1, 79, 0
3, 108450, Note_on_c, 1, 81, 106
3, 108450, Note_on_c, 1, 77, 100
3, 108474, Note_on_c, 1, 77, 0
3, 108474, Note_on_c, 1, 81, 0
3, 108480, Note_on_c, 1, 79, 120
3, 108480, Note_on_c, 1, 76, 108
3, 108528, Note_on_c, 1, 76, 0
3, 108528, Note_on_c, 1, 79, 0
3, 108540, Note_on_c, 1, 81, 120
3, 108540, Note_on_c, 1, 77, 107
3, 108588, Note_on_c, 1, 77, 0
3, 108588, Note_on_c, 1, 81, 0
3, 108600, Note_on_c, 1, 79, 123
3, 108600, Note_on_c, 1, 82, 99
3, 108648, Note_on_c, 1, 82, 0
3, 108648, Note_on_c, 1, 79, 0
3, 108660, Note_on_c, 1, 84, 99
3, 108660, Note_on_c, 1, 81, 118
3, 108684, Note_on_c, 1, 81, 0
3, 108684, Note_on_c, 1, 84, 0
3, 108690, Note_on_c, 1, 79, 114
3, 108690, Note_on_c, 1, 82, 107
3, 108714, Note_on_c, 1, 82, 0
3, 108714, Note_on_c, 1, 79, 0
3, 108720, Note_on_c, 1, 81, 123
3, 108720, Note_on_c, 1, 77, 107
3, 108768, Note_on_c, 1, 77, 0
3, 108768, Note_on_c, 1, 81, 0
3, 108780, Note_on_c, 1, 84, 117
3, 108780, Note_on_c, 1, 81, 112
3, 108828, Note_on_c, 1, 81, 0
3, 108828, Note_on_c, 1, 84, 0
3, 108840, Note_on_c, 1, 84, 113
3, 108840, Note_on_c, 1, 81, 107
3, 108888, Note_on_c, 1, 81, 0
3, 108888, Note_on_c, 1, 84, 0
3, 108900, Note_on_c, 1, 84, 116
3, 108900, Note_on_c, 1, 81, 109
3, 108948, Note_on_c, 1, 81, 0
3, 108948, Note_on_c, 1, 84, 0
3, 108960, Note_on_c, 1, 84, 114
3, 108960, Note_on_c, 1, 81, 120
3, 109056, Note_on_c, 1, 81, 0
3, 109056, Note_on_c, 1, 84, 0
3, 109080, Note_on_c, 1, 82, 107
3, 109080, Note_on_c, 1, 79, 127
3, 109104, Note_on_c, 1, 79, 0
3, 109104, Note_on_c, 1, 82, 0
3, 109110, Note_on_c, 1, 81, 98
3, 109110, Note_on_c, 1, 77, 98
3, 109134, Note_on_c, 1, 77, 0
3, 109134, Note_on_c, 1, 81, 0
3, 109140, Note_on_c, 1, 76, 100
3, 109140, Note_on_c, 1, 79, 101
3, 109164, Note_on_c, 1, 79, 0
3, 109164, Note_on_c, 1, 76, 0
3, 109170, Note_on_c, 1, 77, 107
3, 109170, Note_on_c, 1, 74, 109
3, 109194, Note_on_c, 1, 74, 0
3, 109194, Note_on_c, 1, 77, 0
3, 109200, Note_on_c, 1, 76, 118
3, 109200, Note_on_c, 1, 72, 104
3, 109248, Note_on_c, 1, 72, 0
3, 109248, Note_on_c, 1, 76, 0
3, 109260, Note_on_c, 1, 74, 101
3, 109260, Note_on_c, 1, 77, 107
3, 109308, Note_on_c, 1, 77, 0
3, 109308, Note_on_c, 1, 74, 0
3, 109320, Note_on_c, 1, 76, 107
3, 109320, Note_on_c, 1, 79, 117
3, 109368, Note_on_c, 1, 79, 0
3, 109368, Note_on_c, 1, 76, 0
3, 109380, Note_on_c, 1, 81, 107
3, 109380, Note_on_c, 1, 77, 118
3, 109404, Note_on_c, 1, 77, 0
3, 109404, Note_on_c, 1, 81, 0
3, 109410, Note_on_c, 1, 76, 113
3, 109410, Note_on_c, 1, 79, 112
3, 109434, Note_on_c, 1, 79, 0
3, 109434, Note_on_c, 1, 76, 0
3, 109440, Note_on_c, 1, 77, 114
3, 109440, Note_on_c, 1, 74, 109
3, 109488, Note_on_c, 1, 74, 0
3, 109488, Note_on_c, 1, 77, 0
3, 109500, Note_on_c, 1, 76, 100
3, 109500, Note_on_c, 1, 79, 121
3, 109548, Note_on_c, 1, 79, 0
3, 109548, Note_on_c, 1, 76, 0
3, 109560, Note_on_c, 1, 77, 103
3, 109560, Note_on_c, 1, 81, 120
3, 109608, Note_on_c, 1, 81, 0
3, 109608, Note_on_c, 1, 77, 0
3, 109620, Note_on_c, 1, 79, 107
3, 109620, Note_on_c, 1, 82, 74
3, 109644, Note_on_c, 1, 82, 0
3, 109644, Note_on_c, 1, 79, 0
3, 109650, Note_on_c, 1, 77, 100
3, 109650, Note_on_c, 1, 81, 103
3, 109674, Note_on_c, 1, 81, 0
3, 109674, Note_on_c, 1, 77, 0
3, 109680, Note_on_c, 1, 76, 103
3, 109680, Note_on_c, 1, 79, 116
3, 109728, Note_on_c, 1, 79, 0
3, 109728, Note_on_c, 1, 76, 0
3, 109740, Note_on_c, 1, 79, 120
3, 109740, Note_on_c, 1, 82, 109
3, 109788, Note_on_c, 1, 82, 0
3, 109788, Note_on_c, 1, 79, 0
3, 109800, Note_on_c, 1, 79, 113
3, 109800, Note_on_c, 1, 82, 96
3, 109848, Note_on_c, 1, 82, 0
3, 109848, Note_on_c, 1, 79, 0
3, 109860, Note_on_c, 1, 79, 112
3, 109860, Note_on_c, 1, 82, 109
3, 109908, Note_on_c, 1, 82, 0
3, 109908, Note_on_c, 1, 79, 0
3, 109920, Note_on_c, 1, 82, 109
3, 109920, Note_on_c, 1, 79, 127
3, 110016, Note_on_c, 1, 79, 0
3, 110016, Note_on_c, 1, 82, 0
3, 110040, Note_on_c, 1, 81, 121
3, 110040, Note_on_c, 1, 84, 127
3, 110064, Note_on_c, 1, 84, 0
3, 110064, Note_on_c, 1, 81, 0
3, 110070, Note_on_c, 1, 79, 120
3, 110070, Note_on_c, 1, 82, 111
3, 110094, Note_on_c, 1, 82, 0
3, 110094, Note_on_c, 1, 79, 0
3, 110100, Note_on_c, 1, 81, 107
3, 110100, Note_on_c, 1, 77, 103
3, 110124, Note_on_c, 1, 77, 0
3, 110124, Note_on_c, 1, 81, 0
3, 110130, Note_on_c, 1, 79, 127
3, 110130, Note_on_c, 1, 76, 112
3, 110154, Note_on_c, 1, 76, 0
3, 110154, Note_on_c, 1, 79, 0
3, 110160, Note_on_c, 1, 77, 117
3, 110160, Note_on_c, 1, 81, 121
3, 110208, Note_on_c, 1, 81, 0
3, 110208, Note_on_c, 1, 77, 0
3, 110220, Note_on_c, 1, 82, 121
3, 110220, Note_on_c, 1, 79, 109
3, 110268, Note_on_c, 1, 79, 0
3, 110268, Note_on_c, 1, 82, 0
3, 110280, Note_on_c, 1, 81, 113
3, 110280, Note_on_c, 1, 84, 123
3, 110376, Note_on_c, 1, 84, 0
3, 110376, Note_on_c, 1, 81, 0
3, 110400, Note_on_c, 1, 82, 97
3, 110400, Note_on_c, 1, 79, 127
3, 110448, Note_on_c, 1, 79, 0
3, 110448, Note_on_c, 1, 82, 0
3, 110460, Note_on_c, 1, 76, 116
3, 110460, Note_on_c, 1, 79, 121
3, 110508, Note_on_c, 1, 79, 0
3, 110508, Note_on_c, 1, 76, 0
3, 110520, Note_on_c, 1, 79, 127
3, 110520, Note_on_c, 1, 82, 93
3, 110568, Note_on_c, 1, 82, 0
3, 110568, Note_on_c, 1, 79, 0
3, 110580, Note_on_c, 1, 76, 109
3, 110580, Note_on_c, 1, 79, 123
3, 110628, Note_on_c, 1, 79, 0
3, 110628, Note_on_c, 1, 76, 0
3, 110640, Note_on_c, 1, 77, 116
3, 110640, Note_on_c, 1, 81, 110
3, 110688, Note_on_c, 1, 81, 0
3, 110688, Note_on_c, 1, 77, 0
3, 110700, Note_on_c, 1, 82, 97
3, 110700, Note_on_c, 1, 79, 127
3, 110748, Note_on_c, 1, 79, 0
3, 110748, Note_on_c, 1, 82, 0
3, 110760, Note_on_c, 1, 81, 120
3, 110760, Note_on_c, 1, 84, 127
3, 110856, Note_on_c, 1, 84, 0
3, 110856, Note_on_c, 1, 81, 0
3, 110880, Note_on_c, 1, 82, 105
3, 110880, Note_on_c, 1, 79, 123
3, 110928, Note_on_c, 1, 79, 0
3, 110928, Note_on_c, 1, 82, 0
3, 110940, Note_on_c, 1, 79, 116
3, 110940, Note_on_c, 1, 76, 99
3, 110988, Note_on_c, 1, 76, 0
3, 110988, Note_on_c, 1, 79, 0
3, 111000, Note_on_c, 1, 82, 101
3, 111000, Note_on_c, 1, 79, 117
3, 111048, Note_on_c, 1, 79, 0
3, 111048, Note_on_c, 1, 82, 0
3, 111060, Note_on_c, 1, 76, 107
3, 111060, Note_on_c, 1, 79, 121
3, 111108, Note_on_c, 1, 79, 0
3, 111108, Note_on_c, 1, 76, 0
3, 111120, Note_on_c, 1, 77, 111
3, 111120, Note_on_c, 1, 81, 118
3, 111168, Note_on_c, 1, 81, 0
3, 111168, Note_on_c, 1, 77, 0
3, 111180, Note_on_c, 1, 79, 116
3, 111180, Note_on_c, 1, 76, 110
3, 111228, Note_on_c, 1, 76, 0
3, 111228, Note_on_c, 1, 79, 0
3, 111240, Note_on_c, 1, 79, 121
3, 111240, Note_on_c, 1, 82, 100
3, 111288, Note_on_c, 1, 82, 0
3, 111288, Note_on_c, 1, 79, 0
3, 111300, Note_on_c, 1, 76, 111
3, 111300, Note_on_c, 1, 79, 125
3, 111348, Note_on_c, 1, 79, 0
3, 111348, Note_on_c, 1, 76, 0
3, 111360, Note_on_c, 1, 81, 120
3, 111360, Note_on_c, 1, 77, 123
3, 111408, Note_on_c, 1, 77, 0
3, 111408, Note_on_c, 1, 81, 0
3, 111420, Note_on_c, 1, 79, 118
3, 111420, Note_on_c, 1, 76, 110
3, 111468, Note_on_c, 1, 76, 0
3, 111468, Note_on_c, 1, 79, 0
3, 111480, Note_on_c, 1, 82, 99
3, 111480, Note_on_c, 1, 79, 103
3, 111528, Note_on_c, 1, 79, 0
3, 111528, Note_on_c, 1, 82, 0
3, 111540, Note_on_c, 1, 76, 109
3, 111540, Note_on_c, 1, 79, 127
3, 111588, Note_on_c, 1, 79, 0
3, 111588, Note_on_c, 1, 76, 0
3, 111600, Note_on_c, 1, 77, 114
3, 111600, Note_on_c, 1, 81, 120
3, 111648, Note_on_c, 1, 81, 0
3, 111648, Note_on_c, 1, 77, 0
3, 119760, Note_on_c, 1, 86, 127
3, 119808, Note_on_c, 1, 86, 0
3, 119820, Note_on_c, 1, 84, 127
3, 119868, Note_on_c, 1, 84, 0
3, 119880, Note_on_c, 1, 82, 92
3, 119928, Note_on_c, 1, 82, 0
3, 119940, Note_on_c, 1, 79, 127
3, 119988, Note_on_c, 1, 79, 0
3, 120000, Note_on_c, 1, 72, 105
3, 120048, Note_on_c, 1, 72, 0
3, 120060, Note_on_c, 1, 82, 113
3, 120108, Note_on_c, 1, 82, 0
3, 120120, Note_on_c, 1, 79, 100
3, 120168, Note_on_c, 1, 79, 0
3, 120180, Note_on_c, 1, 72, 112
3, 120228, Note_on_c, 1, 72, 0
3, 120240, Note_on_c, 1, 86, 89
3, 120288, Note_on_c, 1, 86, 0
3, 120300, Note_on_c, 1, 84, 113
3, 120348, Note_on_c, 1, 84, 0
3, 120360, Note_on_c, 1, 81, 99
3, 120408, Note_on_c, 1, 81, 0
3, 120420, Note_on_c, 1, 77, 99
3, 120468, Note_on_c, 1, 77, 0
3, 120480, Note_on_c, 1, 72, 103
3, 120528, Note_on_c, 1, 72, 0
3, 120540, Note_on_c, 1, 81, 127
3, 120588, Note_on_c, 1, 81, 0
3, 120600, Note_on_c, 1, 77, 116
3, 120648, Note_on_c, 1, 77, 0
3, 120660, Note_on_c, 1, 72, 92
3, 120708, Note_on_c, 1, 72, 0
3, 120720, Note_on_c, 1, 86, 104
3, 120720, Note_on_c, 1, 72, 99
3, 120768, Note_on_c, 1, 86, 0
3, 120780, Note_on_c, 1, 84, 127
3, 120828, Note_on_c, 1, 84, 0
3, 120840, Note_on_c, 1, 82, 101
3, 120888, Note_on_c, 1, 82, 0
3, 120900, Note_on_c, 1, 79, 109
3, 120948, Note_on_c, 1, 79, 0
3, 120960, Note_on_c, 1, 72, 101
3, 121008, Note_on_c, 1, 72, 0
3, 121020, Note_on_c, 1, 82, 101
3, 121068, Note_on_c, 1, 82, 0
3, 121080, Note_on_c, 1, 79, 105
3, 121128, Note_on_c, 1, 79, 0
3, 121140, Note_on_c, 1, 72, 106
3, 121152, Note_on_c, 1, 72, 0
3, 121188, Note_on_c, 1, 72, 0
3, 121200, Note_on_c, 1, 86, 116
3, 121200, Note_on_c, 1, 77, 103
3, 121248, Note_on_c, 1, 86, 0
3, 121260, Note_on_c, 1, 84, 114
3, 121308, Note_on_c, 1, 84, 0
3, 121320, Note_on_c, 1, 81, 107
3, 121368, Note_on_c, 1, 81, 0
3, 121380, Note_on_c, 1, 77, 109
3, 121428, Note_on_c, 1, 77, 0
3, 121440, Note_on_c, 1, 72, 117
3, 121488, Note_on_c, 1, 72, 0
3, 121500, Note_on_c, 1, 81, 117
3, 121548, Note_on_c, 1, 81, 0
3, 121560, Note_on_c, 1, 77, 125
3, 121608, Note_on_c, 1, 77, 0
3, 121620, Note_on_c, 1, 72, 112
3, 121632, Note_on_c, 1, 77, 0
3, 121668, Note_on_c, 1, 72, 0
3, 121680, Note_on_c, 1, 86, 121
3, 121680, Note_on_c, 1, 76, 102
3, 121728, Note_on_c, 1, 86, 0
3, 121740, Note_on_c, 1, 84, 127
3, 121776, Note_on_c, 1, 76, 0
3, 121788, Note_on_c, 1, 84, 0
3, 121800, Note_on_c, 1, 82, 95
3, 121800, Note_on_c, 1, 76, 109
3, 121848, Note_on_c, 1, 82, 0
3, 121860, Note_on_c, 1, 79, 107
3, 121896, Note_on_c, 1, 76, 0
3, 121908, Note_on_c, 1, 79, 0
3, 121920, Note_on_c, 1, 72, 100
3, 121920, Note_on_c, 1, 76, 98
3, 121968, Note_on_c, 1, 72, 0
3, 121980, Note_on_c, 1, 82, 101
3, 122028, Note_on_c, 1, 82, 0
3, 122040, Note_on_c, 1, 79, 98
3, 122064, Note_on_c, 1, 76, 0
3, 122088, Note_on_c, 1, 79, 0
3, 122100, Note_on_c, 1, 76, 101
3, 122100, Note_on_c, 1, 72, 106
3, 122148, Note_on_c, 1, 72, 0
3, 122148, Note_on_c, 1, 76, 0
3, 122160, Note_on_c, 1, 72, 103
3, 122160, Note_on_c, 1, 81, 102
3, 122208, Note_on_c, 1, 81, 0
3, 122208, Note_on_c, 1, 72, 0
3, 122880, Note_on_c, 1, 74, 125
3, 122880, Note_on_c, 1, 77, 127
3, 122928, Note_on_c, 1, 77, 0
3, 122928, Note_on_c, 1, 74, 0
3, 124560, Note_on_c, 1, 77, 127
3, 124560, Note_on_c, 1, 74, 127
3, 124608, Note_on_c, 1, 74, 0
3, 124608, Note_on_c, 1, 77, 0
3, 125580, Note_on_c, 1, 65, 117
3, 125580, Note_on_c, 1, 69, 127
3, 125628, Note_on_c, 1, 69, 0
3, 125628, Note_on_c, 1, 65, 0
3, 125640, Note_on_c, 1, 70, 121
3, 125640, Note_on_c, 1, 67, 123
3, 125688, Note_on_c, 1, 67, 0
3, 125688, Note_on_c, 1, 70, 0
3, 125700, Note_on_c, 1, 69, 109
3, 125700, Note_on_c, 1, 72, 110
3, 125748, Note_on_c, 1, 72, 0
3, 125748, Note_on_c, 1, 69, 0
3, 125760, Note_on_c, 1, 74, 123
3, 125760, Note_on_c, 1, 70, 100
3, 125808, Note_on_c, 1, 70, 0
3, 125808, Note_on_c, 1, 74, 0
3, 126480, Note_on_c, 1, 77, 127
3, 126480, Note_on_c, 1, 81, 127
3, 126528, Note_on_c, 1, 81, 0
3, 126528, Note_on_c, 1, 77, 0
3, 126600, Note_on_c, 1, 84, 111
3, 126600, Note_on_c, 1, 77, 105
3, 126648, Note_on_c, 1, 77, 0
3, 126648, Note_on_c, 1, 84, 0
3, 126720, Note_on_c, 1, 86, 113
3, 126720, Note_on_c, 1, 77, 102
3, 126768, Note_on_c, 1, 77, 0
3, 126768, Note_on_c, 1, 86, 0
3, 126840, Note_on_c, 1, 82, 115
3, 126840, Note_on_c, 1, 74, 101
3, 126888, Note_on_c, 1, 74, 0
3, 126888, Note_on_c, 1, 82, 0
3, 126960, Note_on_c, 1, 72, 111
3, 126960, Note_on_c, 1, 81, 112
3, 127008, Note_on_c, 1, 81, 0
3, 127008, Note_on_c, 1, 72, 0
3, 127080, Note_on_c, 1, 77, 118
3, 127080, Note_on_c, 1, 69, 102
3, 127128, Note_on_c, 1, 69, 0
3, 127128, Note_on_c, 1, 77, 0
3, 127200, Note_on_c, 1, 76, 108
3, 127200, Note_on_c, 1, 67, 98
3, 127248, Note_on_c, 1, 67, 0
3, 127248, Note_on_c, 1, 76, 0
3, 127320, Note_on_c, 1, 67, 101
3, 127320, Note_on_c, 1, 76, 101
3, 127368, Note_on_c, 1, 76, 0
3, 127368, Note_on_c, 1, 67, 0
3, 127440, Note_on_c, 1, 77, 105
3, 127440, Note_on_c, 1, 69, 101
3, 127536, Note_on_c, 1, 69, 0
3, 127536, Note_on_c, 1, 77, 0
3, 127560, Note_on_c, 1, 72, 98
3, 127872, Note_on_c, 1, 72, 0
3, 127920, Note_on_c, 1, 81, 123
3, 128016, Note_on_c, 1, 81, 0
3, 128040, Note_on_c, 1, 77, 105
3, 128352, Note_on_c, 1, 77, 0
3, 128400, Note_on_c, 1, 77, 121
3, 128496, Note_on_c, 1, 77, 0
3, 128520, Note_on_c, 1, 72, 127
3, 128832, Note_on_c, 1, 72, 0
3, 128880, Note_on_c, 1, 81, 123
3, 128976, Note_on_c, 1, 81, 0
3, 129000, Note_on_c, 1, 77, 105
3, 129456, Note_on_c, 1, 77, 0
3, 129480, Note_on_c, 1, 72, 127
3, 129576, Note_on_c, 1, 72, 0
3, 129600, Note_on_c, 1, 77, 118
3, 129696, Note_on_c, 1, 77, 0
3, 129720, Note_on_c, 1, 72, 127
3, 129816, Note_on_c, 1, 72, 0
3, 129840, Note_on_c, 1, 77, 127
3, 129936, Note_on_c, 1, 77, 0
3, 129960, Note_on_c, 1, 72, 112
3, 130056, Note_on_c, 1, 72, 0
3, 130080, Note_on_c, 1, 77, 127
3, 130176, Note_on_c, 1, 77, 0
3, 130200, Note_on_c, 1, 72, 121
3, 130296, Note_on_c, 1, 72, 0
3, 130320, Note_on_c, 1, 77, 127
3, 130368, Note_on_c, 1, 77, 0
3, 133200, Note_on_c, 1, 69, 112
3, 133200, Note_on_c, 1, 75, 107
3, 133632, Note_on_c, 1, 75, 0
3, 133632, Note_on_c, 1, 69, 0
3, 133680, Note_on_c, 1, 75, 111
3, 133680, Note_on_c, 1, 69, 118
3, 134112, Note_on_c, 1, 69, 0
3, 134112, Note_on_c, 1, 75, 0
3, 135120, Note_on_c, 1, 82, 127
3, 135168, Note_on_c, 1, 82, 0
3, 135180, Note_on_c, 1, 81, 127
3, 135228, Note_on_c, 1, 81, 0
3, 135240, Note_on_c, 1, 82, 127
3, 135336, Note_on_c, 1, 82, 0
3, 135360, Note_on_c, 1, 81, 127
3, 135408, Note_on_c, 1, 81, 0
3, 135420, Note_on_c, 1, 82, 127
3, 135468, Note_on_c, 1, 82, 0
3, 135480, Note_on_c, 1, 81, 127
3, 135576, Note_on_c, 1, 81, 0
3, 135600, Note_on_c, 1, 82, 121
3, 135648, Note_on_c, 1, 82, 0
3, 138000, Note_on_c, 1, 76, 107
3, 138152, Note_on_c, 1, 76, 0
3, 138160, Note_on_c, 1, 77, 127
3, 138192, Note_on_c, 1, 77, 0
3, 138200, Note_on_c, 1, 79, 127
3, 138232, Note_on_c, 1, 79, 0
3, 138240, Note_on_c, 1, 72, 111
3, 138392, Note_on_c, 1, 72, 0
3, 138400, Note_on_c, 1, 74, 125
3, 138432, Note_on_c, 1, 74, 0
3, 138440, Note_on_c, 1, 76, 121
3, 138472, Note_on_c, 1, 76, 0
3, 138480, Note_on_c, 1, 77, 125
3, 138576, Note_on_c, 1, 77, 0
3, 138600, Note_on_c, 1, 72, 127
3, 138912, Note_on_c, 1, 72, 0
3, 138960, Note_on_c, 1, 81, 127
3, 139056, Note_on_c, 1, 81, 0
3, 139080, Note_on_c, 1, 77, 125
3, 139392, Note_on_c, 1, 77, 0
3, 139440, Note_on_c, 1, 77, 125
3, 139536, Note_on_c, 1, 77, 0
3, 139560, Note_on_c, 1, 72, 127
3, 139872, Note_on_c, 1, 72, 0
3, 139920, Note_on_c, 1, 81, 120
3, 140016, Note_on_c, 1, 81, 0
3, 140040, Note_on_c, 1, 77, 127
3, 140136, Note_on_c, 1, 77, 0
3, 140160, Note_on_c, 1, 77, 127
3, 140352, Note_on_c, 1, 77, 0
3, 140400, Note_on_c, 1, 81, 125
3, 140496, Note_on_c, 1, 81, 0
3, 140520, Note_on_c, 1, 77, 117
3, 140616, Note_on_c, 1, 77, 0
3, 140640, Note_on_c, 1, 81, 127
3, 140736, Note_on_c, 1, 81, 0
3, 140760, Note_on_c, 1, 77, 127
3, 140856, Note_on_c, 1, 77, 0
3, 140880, Note_on_c, 1, 81, 114
3, 140976, Note_on_c, 1, 81, 0
3, 141000, Note_on_c, 1, 77, 127
3, 141096, Note_on_c, 1, 77, 0
3, 141120, Note_on_c, 1, 79, 121
3, 141216, Note_on_c, 1, 79, 0
3, 141240, Note_on_c, 1, 76, 127
3, 141336, Note_on_c, 1, 76, 0
3, 141360, Note_on_c, 1, 81, 98
3, 141456, Note_on_c, 1, 81, 0
3, 141480, Note_on_c, 1, 77, 103
3, 141576, Note_on_c, 1, 77, 0
3, 141600, Note_on_c, 1, 81, 99
3, 141696, Note_on_c, 1, 81, 0
3, 141720, Note_on_c, 1, 77, 98
3, 141816, Note_on_c, 1, 77, 0
3, 141840, Note_on_c, 1, 81, 107
3, 141936, Note_on_c, 1, 81, 0
3, 141960, Note_on_c, 1, 77, 114
3, 142056, Note_on_c, 1, 77, 0
3, 142080, Note_on_c, 1, 79, 103
3, 142176, Note_on_c, 1, 79, 0
3, 142200, Note_on_c, 1, 76, 100
3, 142296, Note_on_c, 1, 76, 0
3, 142320, Note_on_c, 1, 81, 50
3, 142416, Note_on_c, 1, 81, 0
3, 142440, Note_on_c, 1, 77, 105
3, 142536, Note_on_c, 1, 77, 0
3, 142560, Note_on_c, 1, 81, 98
3, 142656, Note_on_c, 1, 81, 0
3, 142680, Note_on_c, 1, 77, 104
3, 142776, Note_on_c, 1, 77, 0
3, 142800, Note_on_c, 1, 81, 95
3, 142800, Note_on_c, 1, 77, 94
3, 143328, Note_on_c, 1, 77, 0
3, 143328, Note_on_c, 1, 81, 0
3, 145680, Note_on_c, 1, 82, 80
3, 145680, Note_on_c, 1, 79, 100
3, 145872, Note_on_c, 1, 79, 0
3, 145872, Note_on_c, 1, 82, 0
3, 145920, Note_on_c, 1, 77, 112
3, 145920, Note_on_c, 1, 81, 107
3, 145968, Note_on_c, 1, 81, 0
3, 145968, Note_on_c, 1, 77, 0
3, 146040, Note_on_c, 1, 76, 107
3, 146040, Note_on_c, 1, 79, 109
3, 146088, Note_on_c, 1, 79, 0
3, 146088, Note_on_c, 1, 76, 0
3, 146640, Note_on_c, 1, 79, 100
3, 146640, Note_on_c, 1, 82, 80
3, 146832, Note_on_c, 1, 82, 0
3, 146832, Note_on_c, 1, 79, 0
3, 146880, Note_on_c, 1, 81, 107
3, 146880, Note_on_c, 1, 77, 112
3, 146928, Note_on_c, 1, 77, 0
3, 146928, Note_on_c, 1, 81, 0
3, 147000, Note_on_c, 1, 79, 109
3, 147000, Note_on_c, 1, 76, 107
3, 147048, Note_on_c, 1, 76, 0
3, 147048, Note_on_c, 1, 79, 0
3, 147120, Note_on_c, 1, 77, 99
3, 147120, Note_on_c, 1, 69, 94
3, 147168, Note_on_c, 1, 69, 0
3, 147168, Note_on_c, 1, 77, 0
3, 147840, Note_on_c, 1, 82, 76
3, 147840, Note_on_c, 1, 79, 106
3, 147984, Note_on_c, 1, 79, 0
3, 147984, Note_on_c, 1, 82, 0
3, 148020, Note_on_c, 1, 82, 89
3, 148020, Note_on_c, 1, 79, 111
3, 148068, Note_on_c, 1, 79, 0
3, 148068, Note_on_c, 1, 82, 0
3, 148080, Note_on_c, 1, 77, 109
3, 148080, Note_on_c, 1, 81, 109
3, 148128, Note_on_c, 1, 81, 0
3, 148128, Note_on_c, 1, 77, 0
3, 148800, Note_on_c, 1, 79, 106
3, 148800, Note_on_c, 1, 82, 76
3, 148944, Note_on_c, 1, 82, 0
3, 148944, Note_on_c, 1, 79, 0
3, 148980, Note_on_c, 1, 79, 111
3, 148980, Note_on_c, 1, 82, 89
3, 149028, Note_on_c, 1, 82, 0
3, 149028, Note_on_c, 1, 79, 0
3, 149040, Note_on_c, 1, 81, 109
3, 149040, Note_on_c, 1, 77, 109
3, 149088, Note_on_c, 1, 77, 0
3, 149088, Note_on_c, 1, 81, 0
3, 149280, Note_on_c, 1, 82, 76
3, 149280, Note_on_c, 1, 79, 106
3, 149424, Note_on_c, 1, 79, 0
3, 149424, Note_on_c, 1, 82, 0
3, 149460, Note_on_c, 1, 82, 89
3, 149460, Note_on_c, 1, 79, 111
3, 149508, Note_on_c, 1, 79, 0
3, 149508, Note_on_c, 1, 82, 0
3, 149520, Note_on_c, 1, 77, 109
3, 149520, Note_on_c, 1, 81, 109
3, 149568, Note_on_c, 1, 81, 0
3, 149568, Note_on_c, 1, 77, 0
3, 149760, Note_on_c, 1, 82, 76
3, 149760, Note_on_c, 1, 79, 106
3, 149904, Note_on_c, 1, 79, 0
3, 149904, Note_on_c, 1, 82, 0
3, 149940, Note_on_c, 1, 82, 89
3, 149940, Note_on_c, 1, 79, 111
3, 149988, Note_on_c, 1, 79, 0
3, 149988, Note_on_c, 1, 82, 0
3, 150000, Note_on_c, 1, 77, 109
3, 150000, Note_on_c, 1, 81, 109
3, 150048, Note_on_c, 1, 81, 0
3, 150048, Note_on_c, 1, 77, 0
3, 150240, Note_on_c, 1, 77, 108
3, 150240, Note_on_c, 1, 81, 105
3, 150288, Note_on_c, 1, 81, 0
3, 150288, Note_on_c, 1, 77, 0
3, 150480, Note_on_c, 1, 81, 105
3, 150480, Note_on_c, 1, 77, 108
3, 150528, Note_on_c, 1, 77, 0
3, 150528, Note_on_c, 1, 81, 0
3, 150720, Note_on_c, 1, 81, 105
3, 150720, Note_on_c, 1, 77, 108
3, 150768, Note_on_c, 1, 77, 0
3, 150768, Note_on_c, 1, 81, 0
3, 150960, Note_on_c, 1, 81, 105
3, 150960, Note_on_c, 1, 77, 108
3, 151008, Note_on_c, 1, 77, 0
3, 151008, Note_on_c, 1, 81, 0
3, 154080, Note_on_c, 1, 82, 105
3, 154080, Note_on_c, 1, 70, 101
3, 154128, Note_on_c, 1, 70, 0
3, 154128, Note_on_c, 1, 82, 0
3, 154140, Note_on_c, 1, 84, 125
3, 154140, Note_on_c, 1, 72, 121
3, 154188, Note_on_c, 1, 72, 0
3, 154188, Note_on_c, 1, 84, 0
3, 154200, Note_on_c, 1, 74, 117
3, 154200, Note_on_c, 1, 86, 113
3, 154248, Note_on_c, 1, 86, 0
3, 154248, Note_on_c, 1, 74, 0
3, 154260, Note_on_c, 1, 76, 107
3, 154308, Note_on_c, 1, 76, 0
3, 154320, Note_on_c, 1, 77, 117
3, 154512, Note_on_c, 1, 77, 0
3, 154560, Note_on_c, 1, 76, 103
3, 154560, Note_on_c, 1, 79, 113
3, 154752, Note_on_c, 1, 79, 0
3, 154752, Note_on_c, 1, 76, 0
3, 154800, Note_on_c, 1, 77, 123
3, 154800, Note_on_c, 1, 81, 123
3, 154992, Note_on_c, 1, 81, 0
3, 154992, Note_on_c, 1, 77, 0
3, 155040, Note_on_c, 1, 77, 105
3, 155040, Note_on_c, 1, 81, 120
3, 155152, Note_on_c, 1, 81, 0
3, 155152, Note_on_c, 1, 77, 0
3, 155160, Note_on_c, 1, 81, 108
3, 155160, Note_on_c, 1, 77, 98
3, 155272, Note_on_c, 1, 77, 0
3, 155272, Note_on_c, 1, 81, 0
3, 155280, Note_on_c, 1, 81, 109
3, 155280, Note_on_c, 1, 77, 104
3, 155472, Note_on_c, 1, 77, 0
3, 155472, Note_on_c, 1, 81, 0
3, 155520, Note_on_c, 1, 72, 98
3, 155520, Note_on_c, 1, 81, 102
3, 155712, Note_on_c, 1, 81, 0
3, 155712, Note_on_c, 1, 72, 0
3, 155760, Note_on_c, 1, 72, 98
3, 155760, Note_on_c, 1, 81, 106
3, 155952, Note_on_c, 1, 81, 0
3, 155952, Note_on_c, 1, 72, 0
3, 155952, End_track
4, 0, Start_track
4, 0, MIDI_port, 0
4, 0, Title_t, "Clarinets"
4, 0, Program_c, 2, 71
4, 0, Control_c, 2, 7, 127
4, 6300, Note_on_c, 2, 70, 127
4, 6324, Note_on_c, 2, 70, 0
4, 6330, Note_on_c, 2, 72, 127
4, 6354, Note_on_c, 2, 72, 0
4, 6360, Note_on_c, 2, 74, 125
4, 6408, Note_on_c, 2, 74, 0
4, 6420, Note_on_c, 2, 76, 125
4, 6468, Note_on_c, 2, 76, 0
4, 6480, Note_on_c, 2, 77, 127
4, 6528, Note_on_c, 2, 77, 0
4, 7740, Note_on_c, 2, 69, 127
4, 7740, Note_on_c, 2, 65, 108
4, 7788, Note_on_c, 2, 65, 0
4, 7788, Note_on_c, 2, 69, 0
4, 7800, Note_on_c, 2, 67, 125
4, 7800, Note_on_c, 2, 70, 120
4, 7848, Note_on_c, 2, 70, 0
4, 7848, Note_on_c, 2, 67, 0
4, 7860, Note_on_c, 2, 70, 117
4, 7860, Note_on_c, 2, 74, 112
4, 7908, Note_on_c, 2, 74, 0
4, 7908, Note_on_c, 2, 70, 0
4, 7920, Note_on_c, 2, 72, 117
4, 7920, Note_on_c, 2, 69, 120
4, 7968, Note_on_c, 2, 69, 0
4, 7968, Note_on_c, 2, 72, 0
4, 7980, Note_on_c, 2, 67, 127
4, 7980, Note_on_c, 2, 70, 127
4, 8004, Note_on_c, 2, 70, 0
4, 8004, Note_on_c, 2, 67, 0
4, 8010, Note_on_c, 2, 65, 104
4, 8010, Note_on_c, 2, 69, 118
4, 8034, Note_on_c, 2, 69, 0
4, 8034, Note_on_c, 2, 65, 0
4, 8040, Note_on_c, 2, 67, 121
4, 8040, Note_on_c, 2, 64, 109
4, 8088, Note_on_c, 2, 64, 0
4, 8088, Note_on_c, 2, 67, 0
4, 8100, Note_on_c, 2, 60, 110
4, 8148, Note_on_c, 2, 60, 0
4, 8160, Note_on_c, 2, 65, 127
4, 8208, Note_on_c, 2, 65, 0
4, 8220, Note_on_c, 2, 64, 100
4, 8220, Note_on_c, 2, 67, 125
4, 8268, Note_on_c, 2, 67, 0
4, 8268, Note_on_c, 2, 64, 0
4, 8280, Note_on_c, 2, 65, 116
4, 8280, Note_on_c, 2, 69, 127
4, 8328, Note_on_c, 2, 69, 0
4, 8328, Note_on_c, 2, 65, 0
4, 8340, Note_on_c, 2, 67, 118
4, 8340, Note_on_c, 2, 70, 121
4, 8364, Note_on_c, 2, 70, 0
4, 8364, Note_on_c, 2, 67, 0
4, 8370, Note_on_c, 2, 65, 123
4, 8370, Note_on_c, 2, 69, 127
4, 8394, Note_on_c, 2, 69, 0
4, 8394, Note_on_c, 2, 65, 0
4, 8400, Note_on_c, 2, 64, 111
4, 8400, Note_on_c, 2, 67, 127
4, 8448, Note_on_c, 2, 67, 0
4, 8448, Note_on_c, 2, 64, 0
4, 8460, Note_on_c, 2, 69, 127
4, 8460, Note_on_c, 2, 65, 109
4, 8508, Note_on_c, 2, 65, 0
4, 8508, Note_on_c, 2, 69, 0
4, 8520, Note_on_c, 2, 70, 110
4, 8520, Note_on_c, 2, 67, 113
4, 8568, Note_on_c, 2, 67, 0
4, 8568, Note_on_c, 2, 70, 0
4, 8580, Note_on_c, 2, 69, 127
4, 8580, Note_on_c, 2, 72, 121
4, 8604, Note_on_c, 2, 72, 0
4, 8604, Note_on_c, 2, 69, 0
4, 8610, Note_on_c, 2, 67, 121
4, 8610, Note_on_c, 2, 70, 127
4, 8634, Note_on_c, 2, 70, 0
4, 8634, Note_on_c, 2, 67, 0
4, 8640, Note_on_c, 2, 69, 125
4, 8640, Note_on_c, 2, 65, 113
4, 8688, Note_on_c, 2, 65, 0
4, 8688, Note_on_c, 2, 69, 0
4, 8700, Note_on_c, 2, 81, 108
4, 8700, Note_on_c, 2, 69, 107
4, 8748, Note_on_c, 2, 69, 0
4, 8748, Note_on_c, 2, 81, 0
4, 8760, Note_on_c, 2, 82, 127
4, 8760, Note_on_c, 2, 70, 125
4, 8808, Note_on_c, 2, 70, 0
4, 8808, Note_on_c, 2, 82, 0
4, 8820, Note_on_c, 2, 74, 98
4, 8868, Note_on_c, 2, 74, 0
4, 8880, Note_on_c, 2, 72, 127
4, 8928, Note_on_c, 2, 72, 0
4, 8940, Note_on_c, 2, 70, 127
4, 8964, Note_on_c, 2, 70, 0
4, 8970, Note_on_c, 2, 69, 118
4, 8994, Note_on_c, 2, 69, 0
4, 9000, Note_on_c, 2, 67, 127
4, 9048, Note_on_c, 2, 67, 0
4, 9060, Note_on_c, 2, 60, 110
4, 9108, Note_on_c, 2, 60, 0
4, 9120, Note_on_c, 2, 65, 127
4, 9168, Note_on_c, 2, 65, 0
4, 9180, Note_on_c, 2, 64, 113
4, 9180, Note_on_c, 2, 67, 127
4, 9228, Note_on_c, 2, 67, 0
4, 9228, Note_on_c, 2, 64, 0
4, 9240, Note_on_c, 2, 65, 123
4, 9240, Note_on_c, 2, 69, 127
4, 9288, Note_on_c, 2, 69, 0
4, 9288, Note_on_c, 2, 65, 0
4, 9300, Note_on_c, 2, 67, 127
4, 9300, Note_on_c, 2, 70, 127
4, 9324, Note_on_c, 2, 70, 0
4, 9324, Note_on_c, 2, 67, 0
4, 9330, Note_on_c, 2, 69, 121
4, 9330, Note_on_c, 2, 65, 107
4, 9354, Note_on_c, 2, 65, 0
4, 9354, Note_on_c, 2, 69, 0
4, 9360, Note_on_c, 2, 64, 113
4, 9360, Note_on_c, 2, 67, 127
4, 9408, Note_on_c, 2, 67, 0
4, 9408, Note_on_c, 2, 64, 0
4, 9420, Note_on_c, 2, 69, 125
4, 9420, Note_on_c, 2, 65, 121
4, 9468, Note_on_c, 2, 65, 0
4, 9468, Note_on_c, 2, 69, 0
4, 9480, Note_on_c, 2, 67, 127
4, 9480, Note_on_c, 2, 70, 127
4, 9528, Note_on_c, 2, 70, 0
4, 9528, Note_on_c, 2, 67, 0
4, 9540, Note_on_c, 2, 69, 106
4, 9540, Note_on_c, 2, 72, 127
4, 9564, Note_on_c, 2, 72, 0
4, 9564, Note_on_c, 2, 69, 0
4, 9570, Note_on_c, 2, 67, 125
4, 9570, Note_on_c, 2, 70, 127
4, 9594, Note_on_c, 2, 70, 0
4, 9594, Note_on_c, 2, 67, 0
4, 9600, Note_on_c, 2, 65, 111
4, 9600, Note_on_c, 2, 69, 118
4, 9648, Note_on_c, 2, 69, 0
4, 9648, Note_on_c, 2, 65, 0
4, 9660, Note_on_c, 2, 69, 103
4, 9660, Note_on_c, 2, 72, 116
4, 9708, Note_on_c, 2, 72, 0
4, 9708, Note_on_c, 2, 69, 0
4, 9720, Note_on_c, 2, 69, 127
4, 9720, Note_on_c, 2, 72, 121
4, 9768, Note_on_c, 2, 72, 0
4, 9768, Note_on_c, 2, 69, 0
4, 9780, Note_on_c, 2, 69, 113
4, 9780, Note_on_c, 2, 72, 112
4, 9828, Note_on_c, 2, 72, 0
4, 9828, Note_on_c, 2, 69, 0
4, 9840, Note_on_c, 2, 69, 127
4, 9840, Note_on_c, 2, 72, 127
4, 9936, Note_on_c, 2, 72, 0
4, 9936, Note_on_c, 2, 69, 0
4, 9960, Note_on_c, 2, 67, 127
4, 9960, Note_on_c, 2, 70, 127
4, 9984, Note_on_c, 2, 70, 0
4, 9984, Note_on_c, 2, 67, 0
4, 9990, Note_on_c, 2, 69, 117
4, 9990, Note_on_c, 2, 65, 113
4, 10014, Note_on_c, 2, 65, 0
4, 10014, Note_on_c, 2, 69, 0
4, 10020, Note_on_c, 2, 64, 109
4, 10020, Note_on_c, 2, 67, 121
4, 10044, Note_on_c, 2, 67, 0
4, 10044, Note_on_c, 2, 64, 0
4, 10050, Note_on_c, 2, 65, 125
4, 10050, Note_on_c, 2, 62, 108
4, 10074, Note_on_c, 2, 62, 0
4, 10074, Note_on_c, 2, 65, 0
4, 10080, Note_on_c, 2, 64, 109
4, 10080, Note_on_c, 2, 60, 118
4, 10128, Note_on_c, 2, 60, 0
4, 10128, Note_on_c, 2, 64, 0
4, 10140, Note_on_c, 2, 65, 127
4, 10140, Note_on_c, 2, 62, 120
4, 10188, Note_on_c, 2, 62, 0
4, 10188, Note_on_c, 2, 65, 0
4, 10200, Note_on_c, 2, 64, 94
4, 10200, Note_on_c, 2, 67, 127
4, 10248, Note_on_c, 2, 67, 0
4, 10248, Note_on_c, 2, 64, 0
4, 10260, Note_on_c, 2, 69, 111
4, 10260, Note_on_c, 2, 65, 125
4, 10284, Note_on_c, 2, 65, 0
4, 10284, Note_on_c, 2, 69, 0
4, 10290, Note_on_c, 2, 64, 88
4, 10290, Note_on_c, 2, 67, 104
4, 10314, Note_on_c, 2, 67, 0
4, 10314, Note_on_c, 2, 64, 0
4, 10320, Note_on_c, 2, 62, 125
4, 10320, Note_on_c, 2, 65, 127
4, 10368, Note_on_c, 2, 65, 0
4, 10368, Note_on_c, 2, 62, 0
4, 10380, Note_on_c, 2, 64, 97
4, 10380, Note_on_c, 2, 67, 120
4, 10428, Note_on_c, 2, 67, 0
4, 10428, Note_on_c, 2, 64, 0
4, 10440, Note_on_c, 2, 65, 104
4, 10440, Note_on_c, 2, 69, 104
4, 10488, Note_on_c, 2, 69, 0
4, 10488, Note_on_c, 2, 65, 0
4, 10500, Note_on_c, 2, 67, 117
4, 10500, Note_on_c, 2, 70, 125
4, 10524, Note_on_c, 2, 70, 0
4, 10524, Note_on_c, 2, 67, 0
4, 10530, Note_on_c, 2, 65, 117
4, 10530, Note_on_c, 2, 69, 111
4, 10554, Note_on_c, 2, 69, 0
4, 10554, Note_on_c, 2, 65, 0
4, 10560, Note_on_c, 2, 64, 95
4, 10560, Note_on_c, 2, 67, 120
4, 10608, Note_on_c, 2, 67, 0
4, 10608, Note_on_c, 2, 64, 0
4, 10620, Note_on_c, 2, 70, 117
4, 10620, Note_on_c, 2, 67, 116
4, 10668, Note_on_c, 2, 67, 0
4, 10668, Note_on_c, 2, 70, 0
4, 10680, Note_on_c, 2, 67, 127
4, 10680, Note_on_c, 2, 70, 120
4, 10728, Note_on_c, 2, 70, 0
4, 10728, Note_on_c, 2, 67, 0
4, 10740, Note_on_c, 2, 67, 118
4, 10740, Note_on_c, 2, 70, 117
4, 10788, Note_on_c, 2, 70, 0
4, 10788, Note_on_c, 2, 67, 0
4, 10800, Note_on_c, 2, 67, 117
4, 10800, Note_on_c, 2, 70, 112
4, 10896, Note_on_c, 2, 70, 0
4, 10896, Note_on_c, 2, 67, 0
4, 10920, Note_on_c, 2, 69, 120
4, 10920, Note_on_c, 2, 72, 127
4, 10944, Note_on_c, 2, 72, 0
4, 10944, Note_on_c, 2, 69, 0
4, 10950, Note_on_c, 2, 70, 123
4, 10950, Note_on_c, 2, 67, 121
4, 10974, Note_on_c, 2, 67, 0
4, 10974, Note_on_c, 2, 70, 0
4, 10980, Note_on_c, 2, 69, 121
4, 10980, Note_on_c, 2, 65, 100
4, 11004, Note_on_c, 2, 65, 0
4, 11004, Note_on_c, 2, 69, 0
4, 11010, Note_on_c, 2, 64, 79
4, 11010, Note_on_c, 2, 67, 101
4, 11034, Note_on_c, 2, 67, 0
4, 11034, Note_on_c, 2, 64, 0
4, 11040, Note_on_c, 2, 69, 123
4, 11040, Note_on_c, 2, 65, 117
4, 11088, Note_on_c, 2, 65, 0
4, 11088, Note_on_c, 2, 69, 0
4, 11100, Note_on_c, 2, 67, 114
4, 11100, Note_on_c, 2, 70, 123
4, 11148, Note_on_c, 2, 70, 0
4, 11148, Note_on_c, 2, 67, 0
4, 11160, Note_on_c, 2, 69, 107
4, 11160, Note_on_c, 2, 72, 118
4, 11208, Note_on_c, 2, 72, 0
4, 11208, Note_on_c, 2, 69, 0
4, 11220, Note_on_c, 2, 70, 112
4, 11220, Note_on_c, 2, 74, 116
4, 11244, Note_on_c, 2, 74, 0
4, 11244, Note_on_c, 2, 70, 0
4, 11250, Note_on_c, 2, 69, 110
4, 11250, Note_on_c, 2, 72, 127
4, 11274, Note_on_c, 2, 72, 0
4, 11274, Note_on_c, 2, 69, 0
4, 11280, Note_on_c, 2, 67, 94
4, 11280, Note_on_c, 2, 70, 107
4, 11424, Note_on_c, 2, 70, 0
4, 11424, Note_on_c, 2, 67, 0
4, 11460, Note_on_c, 2, 64, 91
4, 11460, Note_on_c, 2, 67, 112
4, 11508, Note_on_c, 2, 67, 0
4, 11508, Note_on_c, 2, 64, 0
4, 11520, Note_on_c, 2, 69, 125
4, 11520, Note_on_c, 2, 65, 120
4, 11568, Note_on_c, 2, 65, 0
4, 11568, Note_on_c, 2, 69, 0
4, 11580, Note_on_c, 2, 67, 112
4, 11580, Note_on_c, 2, 70, 118
4, 11628, Note_on_c, 2, 70, 0
4, 11628, Note_on_c, 2, 67, 0
4, 11640, Note_on_c, 2, 69, 114
4, 11640, Note_on_c, 2, 72, 109
4, 11736, Note_on_c, 2, 72, 0
4, 11736, Note_on_c, 2, 69, 0
4, 11760, Note_on_c, 2, 67, 117
4, 11760, Note_on_c, 2, 70, 111
4, 11904, Note_on_c, 2, 70, 0
4, 11904, Note_on_c, 2, 67, 0
4, 11940, Note_on_c, 2, 64, 95
4, 11940, Note_on_c, 2, 67, 111
4, 11988, Note_on_c, 2, 67, 0
4, 11988, Note_on_c, 2, 64, 0
4, 12000, Note_on_c, 2, 69, 120
4, 12000, Note_on_c, 2, 65, 125
4, 12048, Note_on_c, 2, 65, 0
4, 12048, Note_on_c, 2, 69, 0
4, 12060, Note_on_c, 2, 67, 127
4, 12060, Note_on_c, 2, 64, 118
4, 12108, Note_on_c, 2, 64, 0
4, 12108, Note_on_c, 2, 67, 0
4, 12120, Note_on_c, 2, 67, 123
4, 12120, Note_on_c, 2, 70, 110
4, 12168, Note_on_c, 2, 70, 0
4, 12168, Note_on_c, 2, 67, 0
4, 12180, Note_on_c, 2, 64, 94
4, 12180, Note_on_c, 2, 67, 120
4, 12228, Note_on_c, 2, 67, 0
4, 12228, Note_on_c, 2, 64, 0
4, 12240, Note_on_c, 2, 65, 107
4, 12240, Note_on_c, 2, 69, 118
4, 12288, Note_on_c, 2, 69, 0
4, 12288, Note_on_c, 2, 65, 0
4, 12300, Note_on_c, 2, 64, 99
4, 12300, Note_on_c, 2, 67, 120
4, 12348, Note_on_c, 2, 67, 0
4, 12348, Note_on_c, 2, 64, 0
4, 12360, Note_on_c, 2, 67, 127
4, 12360, Note_on_c, 2, 70, 120
4, 12408, Note_on_c, 2, 70, 0
4, 12408, Note_on_c, 2, 67, 0
4, 12420, Note_on_c, 2, 67, 121
4, 12420, Note_on_c, 2, 64, 109
4, 12468, Note_on_c, 2, 64, 0
4, 12468, Note_on_c, 2, 67, 0
4, 12480, Note_on_c, 2, 65, 102
4, 12480, Note_on_c, 2, 69, 105
4, 12512, Note_on_c, 2, 69, 0
4, 12512, Note_on_c, 2, 65, 0
4, 12520, Note_on_c, 2, 69, 105
4, 12520, Note_on_c, 2, 65, 103
4, 12552, Note_on_c, 2, 65, 0
4, 12552, Note_on_c, 2, 69, 0
4, 12560, Note_on_c, 2, 69, 109
4, 12560, Note_on_c, 2, 65, 111
4, 12592, Note_on_c, 2, 65, 0
4, 12592, Note_on_c, 2, 69, 0
4, 12600, Note_on_c, 2, 69, 120
4, 12600, Note_on_c, 2, 65, 110
4, 12632, Note_on_c, 2, 65, 0
4, 12632, Note_on_c, 2, 69, 0
4, 12640, Note_on_c, 2, 69, 125
4, 12640, Note_on_c, 2, 65, 109
4, 12672, Note_on_c, 2, 65, 0
4, 12672, Note_on_c, 2, 69, 0
4, 12680, Note_on_c, 2, 69, 127
4, 12680, Note_on_c, 2, 65, 112
4, 12712, Note_on_c, 2, 65, 0
4, 12712, Note_on_c, 2, 69, 0
4, 12720, Note_on_c, 2, 69, 117
4, 12720, Note_on_c, 2, 65, 101
4, 12768, Note_on_c, 2, 65, 0
4, 12768, Note_on_c, 2, 69, 0
4, 13440, Note_on_c, 2, 69, 127
4, 13440, Note_on_c, 2, 65, 120
4, 13472, Note_on_c, 2, 65, 0
4, 13472, Note_on_c, 2, 69, 0
4, 13480, Note_on_c, 2, 69, 127
4, 13480, Note_on_c, 2, 65, 116
4, 13512, Note_on_c, 2, 65, 0
4, 13512, Note_on_c, 2, 69, 0
4, 13520, Note_on_c, 2, 69, 127
4, 13520, Note_on_c, 2, 65, 116
4, 13552, Note_on_c, 2, 65, 0
4, 13552, Note_on_c, 2, 69, 0
4, 13560, Note_on_c, 2, 69, 123
4, 13560, Note_on_c, 2, 65, 111
4, 13592, Note_on_c, 2, 65, 0
4, 13592, Note_on_c, 2, 69, 0
4, 13600, Note_on_c, 2, 69, 127
4, 13600, Note_on_c, 2, 65, 112
4, 13632, Note_on_c, 2, 65, 0
4, 13632, Note_on_c, 2, 69, 0
4, 13640, Note_on_c, 2, 69, 127
4, 13640, Note_on_c, 2, 65, 121
4, 13672, Note_on_c, 2, 65, 0
4, 13672, Note_on_c, 2, 69, 0
4, 13680, Note_on_c, 2, 69, 110
4, 13680, Note_on_c, 2, 65, 105
4, 13728, Note_on_c, 2, 65, 0
4, 13728, Note_on_c, 2, 69, 0
4, 14400, Note_on_c, 2, 69, 127
4, 14400, Note_on_c, 2, 65, 118
4, 14432, Note_on_c, 2, 65, 0
4, 14432, Note_on_c, 2, 69, 0
4, 14440, Note_on_c, 2, 69, 127
4, 14440, Note_on_c, 2, 65, 123
4, 14472, Note_on_c, 2, 65, 0
4, 14472, Note_on_c, 2, 69, 0
4, 14480, Note_on_c, 2, 69, 127
4, 14480, Note_on_c, 2, 65, 117
4, 14512, Note_on_c, 2, 65, 0
4, 14512, Note_on_c, 2, 69, 0
4, 14520, Note_on_c, 2, 69, 127
4, 14520, Note_on_c, 2, 65, 120
4, 14552, Note_on_c, 2, 65, 0
4, 14552, Note_on_c, 2, 69, 0
4, 14560, Note_on_c, 2, 69, 123
4, 14560, Note_on_c, 2, 65, 110
4, 14592, Note_on_c, 2, 65, 0
4, 14592, Note_on_c, 2, 69, 0
4, 14600, Note_on_c, 2, 69, 116
4, 14600, Note_on_c, 2, 65, 110
4, 14632, Note_on_c, 2, 65, 0
4, 14632, Note_on_c, 2, 69, 0
4, 14640, Note_on_c, 2, 65, 104
4, 14640, Note_on_c, 2, 69, 114
4, 14688, Note_on_c, 2, 69, 0
4, 14688, Note_on_c, 2, 65, 0
4, 14880, Note_on_c, 2, 67, 116
4, 14880, Note_on_c, 2, 65, 109
4, 14912, Note_on_c, 2, 65, 0
4, 14912, Note_on_c, 2, 67, 0
4, 14920, Note_on_c, 2, 65, 110
4, 14920, Note_on_c, 2, 67, 118
4, 14952, Note_on_c, 2, 67, 0
4, 14952, Note_on_c, 2, 65, 0
4, 14960, Note_on_c, 2, 67, 120
4, 14960, Note_on_c, 2, 65, 108
4, 14992, Note_on_c, 2, 65, 0
4, 14992, Note_on_c, 2, 67, 0
4, 15000, Note_on_c, 2, 67, 118
4, 15000, Note_on_c, 2, 65, 116
4, 15032, Note_on_c, 2, 65, 0
4, 15032, Note_on_c, 2, 67, 0
4, 15040, Note_on_c, 2, 67, 116
4, 15040, Note_on_c, 2, 65, 111
4, 15072, Note_on_c, 2, 65, 0
4, 15072, Note_on_c, 2, 67, 0
4, 15080, Note_on_c, 2, 67, 117
4, 15080, Note_on_c, 2, 65, 113
4, 15112, Note_on_c, 2, 65, 0
4, 15112, Note_on_c, 2, 67, 0
4, 15120, Note_on_c, 2, 65, 102
4, 15120, Note_on_c, 2, 67, 105
4, 15168, Note_on_c, 2, 67, 0
4, 15168, Note_on_c, 2, 65, 0
4, 19680, Note_on_c, 2, 81, 127
4, 19728, Note_on_c, 2, 81, 0
4, 19740, Note_on_c, 2, 79, 127
4, 19788, Note_on_c, 2, 79, 0
4, 19800, Note_on_c, 2, 77, 127
4, 19848, Note_on_c, 2, 77, 0
4, 19860, Note_on_c, 2, 74, 114
4, 19908, Note_on_c, 2, 74, 0
4, 19920, Note_on_c, 2, 67, 112
4, 19968, Note_on_c, 2, 67, 0
4, 19980, Note_on_c, 2, 77, 127
4, 20028, Note_on_c, 2, 77, 0
4, 20040, Note_on_c, 2, 74, 123
4, 20088, Note_on_c, 2, 74, 0
4, 20100, Note_on_c, 2, 67, 112
4, 20148, Note_on_c, 2, 67, 0
4, 20160, Note_on_c, 2, 81, 127
4, 20208, Note_on_c, 2, 81, 0
4, 20220, Note_on_c, 2, 79, 121
4, 20268, Note_on_c, 2, 79, 0
4, 20280, Note_on_c, 2, 76, 109
4, 20328, Note_on_c, 2, 76, 0
4, 20340, Note_on_c, 2, 72, 114
4, 20388, Note_on_c, 2, 72, 0
4, 20400, Note_on_c, 2, 67, 116
4, 20448, Note_on_c, 2, 67, 0
4, 20460, Note_on_c, 2, 76, 115
4, 20508, Note_on_c, 2, 76, 0
4, 20520, Note_on_c, 2, 72, 123
4, 20568, Note_on_c, 2, 72, 0
4, 20580, Note_on_c, 2, 67, 112
4, 20628, Note_on_c, 2, 67, 0
4, 20640, Note_on_c, 2, 81, 127
4, 20688, Note_on_c, 2, 81, 0
4, 20700, Note_on_c, 2, 79, 127
4, 20748, Note_on_c, 2, 79, 0
4, 20760, Note_on_c, 2, 77, 127
4, 20808, Note_on_c, 2, 77, 0
4, 20820, Note_on_c, 2, 74, 127
4, 20868, Note_on_c, 2, 74, 0
4, 20880, Note_on_c, 2, 67, 117
4, 20928, Note_on_c, 2, 67, 0
4, 20940, Note_on_c, 2, 77, 127
4, 20988, Note_on_c, 2, 77, 0
4, 21000, Note_on_c, 2, 74, 103
4, 21048, Note_on_c, 2, 74, 0
4, 21060, Note_on_c, 2, 67, 114
4, 21108, Note_on_c, 2, 67, 0
4, 21120, Note_on_c, 2, 81, 127
4, 21168, Note_on_c, 2, 81, 0
4, 21180, Note_on_c, 2, 79, 127
4, 21228, Note_on_c, 2, 79, 0
4, 21240, Note_on_c, 2, 76, 115
4, 21288, Note_on_c, 2, 76, 0
4, 21300, Note_on_c, 2, 72, 127
4, 21348, Note_on_c, 2, 72, 0
4, 21360, Note_on_c, 2, 67, 109
4, 21408, Note_on_c, 2, 67, 0
4, 21420, Note_on_c, 2, 76, 115
4, 21468, Note_on_c, 2, 76, 0
4, 21480, Note_on_c, 2, 72, 127
4, 21528, Note_on_c, 2, 72, 0
4, 21540, Note_on_c, 2, 67, 118
4, 21588, Note_on_c, 2, 67, 0
4, 21600, Note_on_c, 2, 81, 123
4, 21648, Note_on_c, 2, 81, 0
4, 21660, Note_on_c, 2, 79, 127
4, 21708, Note_on_c, 2, 79, 0
4, 21720, Note_on_c, 2, 77, 110
4, 21768, Note_on_c, 2, 77, 0
4, 21780, Note_on_c, 2, 74, 109
4, 21828, Note_on_c, 2, 74, 0
4, 21840, Note_on_c, 2, 67, 109
4, 21888, Note_on_c, 2, 67, 0
4, 21900, Note_on_c, 2, 77, 110
4, 21948, Note_on_c, 2, 77, 0
4, 21960, Note_on_c, 2, 74, 120
4, 22008, Note_on_c, 2, 74, 0
4, 22020, Note_on_c, 2, 67, 109
4, 22068, Note_on_c, 2, 67, 0
4, 22080, Note_on_c, 2, 76, 96
4, 22080, Note_on_c, 2, 67, 114
4, 22128, Note_on_c, 2, 67, 0
4, 22128, Note_on_c, 2, 76, 0
4, 22800, Note_on_c, 2, 77, 118
4, 22800, Note_on_c, 2, 69, 105
4, 22848, Note_on_c, 2, 69, 0
4, 22848, Note_on_c, 2, 77, 0
4, 24480, Note_on_c, 2, 77, 120
4, 24480, Note_on_c, 2, 69, 109
4, 24528, Note_on_c, 2, 69, 0
4, 24528, Note_on_c, 2, 77, 0
4, 24960, Note_on_c, 2, 64, 92
4, 24960, Note_on_c, 2, 67, 120
4, 25056, Note_on_c, 2, 67, 0
4, 25056, Note_on_c, 2, 64, 0
4, 25080, Note_on_c, 2, 62, 102
4, 25080, Note_on_c, 2, 65, 113
4, 25128, Note_on_c, 2, 65, 0
4, 25128, Note_on_c, 2, 62, 0
4, 25140, Note_on_c, 2, 64, 101
4, 25140, Note_on_c, 2, 60, 103
4, 25188, Note_on_c, 2, 60, 0
4, 25188, Note_on_c, 2, 64, 0
4, 25200, Note_on_c, 2, 64, 113
4, 25200, Note_on_c, 2, 60, 116
4, 25248, Note_on_c, 2, 60, 0
4, 25248, Note_on_c, 2, 64, 0
4, 25260, Note_on_c, 2, 59, 92
4, 25260, Note_on_c, 2, 62, 116
4, 25308, Note_on_c, 2, 62, 0
4, 25308, Note_on_c, 2, 59, 0
4, 25320, Note_on_c, 2, 60, 114
4, 25320, Note_on_c, 2, 57, 116
4, 25368, Note_on_c, 2, 57, 0
4, 25368, Note_on_c, 2, 60, 0
4, 25380, Note_on_c, 2, 59, 81
4, 25380, Note_on_c, 2, 62, 116
4, 25428, Note_on_c, 2, 62, 0
4, 25428, Note_on_c, 2, 59, 0
4, 25440, Note_on_c, 2, 64, 113
4, 25440, Note_on_c, 2, 60, 125
4, 25488, Note_on_c, 2, 60, 0
4, 25488, Note_on_c, 2, 64, 0
4, 25500, Note_on_c, 2, 64, 126
4, 25500, Note_on_c, 2, 60, 127
4, 25548, Note_on_c, 2, 60, 0
4, 25548, Note_on_c, 2, 64, 0
4, 25560, Note_on_c, 2, 65, 127
4, 25560, Note_on_c, 2, 62, 127
4, 25608, Note_on_c, 2, 62, 0
4, 25608, Note_on_c, 2, 65, 0
4, 25620, Note_on_c, 2, 64, 88
4, 25620, Note_on_c, 2, 67, 111
4, 25668, Note_on_c, 2, 67, 0
4, 25668, Note_on_c, 2, 64, 0
4, 25680, Note_on_c, 2, 69, 127
4, 25680, Note_on_c, 2, 65, 113
4, 25728, Note_on_c, 2, 65, 0
4, 25728, Note_on_c, 2, 69, 0
4, 25740, Note_on_c, 2, 72, 127
4, 25740, Note_on_c, 2, 69, 127
4, 25788, Note_on_c, 2, 69, 0
4, 25788, Note_on_c, 2, 72, 0
4, 25800, Note_on_c, 2, 71, 100
4, 25800, Note_on_c, 2, 67, 120
4, 25848, Note_on_c, 2, 67, 0
4, 25848, Note_on_c, 2, 71, 0
4, 25860, Note_on_c, 2, 69, 108
4, 25860, Note_on_c, 2, 65, 110
4, 25908, Note_on_c, 2, 65, 0
4, 25908, Note_on_c, 2, 69, 0
4, 25920, Note_on_c, 2, 64, 97
4, 25920, Note_on_c, 2, 67, 120
4, 25968, Note_on_c, 2, 67, 0
4, 25968, Note_on_c, 2, 64, 0
4, 25980, Note_on_c, 2, 64, 100
4, 25980, Note_on_c, 2, 67, 114
4, 26028, Note_on_c, 2, 67, 0
4, 26028, Note_on_c, 2, 64, 0
4, 26040, Note_on_c, 2, 65, 100
4, 26040, Note_on_c, 2, 62, 84
4, 26088, Note_on_c, 2, 62, 0
4, 26088, Note_on_c, 2, 65, 0
4, 26100, Note_on_c, 2, 60, 103
4, 26100, Note_on_c, 2, 64, 97
4, 26148, Note_on_c, 2, 64, 0
4, 26148, Note_on_c, 2, 60, 0
4, 26160, Note_on_c, 2, 64, 115
4, 26160, Note_on_c, 2, 60, 102
4, 26208, Note_on_c, 2, 60, 0
4, 26208, Note_on_c, 2, 64, 0
4, 26220, Note_on_c, 2, 59, 75
4, 26220, Note_on_c, 2, 62, 100
4, 26268, Note_on_c, 2, 62, 0
4, 26268, Note_on_c, 2, 59, 0
4, 26280, Note_on_c, 2, 60, 121
4, 26280, Note_on_c, 2, 57, 97
4, 26328, Note_on_c, 2, 57, 0
4, 26328, Note_on_c, 2, 60, 0
4, 26340, Note_on_c, 2, 59, 99
4, 26340, Note_on_c, 2, 62, 127
4, 26388, Note_on_c, 2, 62, 0
4, 26388, Note_on_c, 2, 59, 0
4, 26400, Note_on_c, 2, 64, 113
4, 26400, Note_on_c, 2, 60, 125
4, 26448, Note_on_c, 2, 60, 0
4, 26448, Note_on_c, 2, 64, 0
4, 26520, Note_on_c, 2, 72, 127
4, 26520, Note_on_c, 2, 67, 127
4, 26568, Note_on_c, 2, 67, 0
4, 26568, Note_on_c, 2, 72, 0
4, 26640, Note_on_c, 2, 69, 123
4, 26640, Note_on_c, 2, 72, 118
4, 26688, Note_on_c, 2, 72, 0
4, 26688, Note_on_c, 2, 69, 0
4, 26760, Note_on_c, 2, 77, 127
4, 26760, Note_on_c, 2, 69, 112
4, 26808, Note_on_c, 2, 69, 0
4, 26808, Note_on_c, 2, 77, 0
4, 26880, Note_on_c, 2, 76, 118
4, 26880, Note_on_c, 2, 67, 107
4, 26928, Note_on_c, 2, 67, 0
4, 26928, Note_on_c, 2, 76, 0
4, 27000, Note_on_c, 2, 76, 109
4, 27000, Note_on_c, 2, 72, 120
4, 27048, Note_on_c, 2, 72, 0
4, 27048, Note_on_c, 2, 76, 0
4, 27120, Note_on_c, 2, 71, 113
4, 27120, Note_on_c, 2, 77, 127
4, 27168, Note_on_c, 2, 77, 0
4, 27168, Note_on_c, 2, 71, 0
4, 27240, Note_on_c, 2, 77, 127
4, 27240, Note_on_c, 2, 71, 118
4, 27288, Note_on_c, 2, 71, 0
4, 27288, Note_on_c, 2, 77, 0
4, 27360, Note_on_c, 2, 72, 120
4, 27360, Note_on_c, 2, 60, 123
4, 27456, Note_on_c, 2, 60, 0
4, 27456, Note_on_c, 2, 72, 0
4, 27480, Note_on_c, 2, 55, 109
4, 27480, Note_on_c, 2, 67, 121
4, 27792, Note_on_c, 2, 67, 0
4, 27792, Note_on_c, 2, 55, 0
4, 27840, Note_on_c, 2, 76, 107
4, 27840, Note_on_c, 2, 64, 100
4, 27936, Note_on_c, 2, 64, 0
4, 27936, Note_on_c, 2, 76, 0
4, 27960, Note_on_c, 2, 72, 110
4, 27960, Note_on_c, 2, 60, 101
4, 28272, Note_on_c, 2, 60, 0
4, 28272, Note_on_c, 2, 72, 0
4, 28320, Note_on_c, 2, 60, 101
4, 28320, Note_on_c, 2, 72, 99
4, 28416, Note_on_c, 2, 72, 0
4, 28416, Note_on_c, 2, 60, 0
4, 28440, Note_on_c, 2, 55, 117
4, 28440, Note_on_c, 2, 67, 121
4, 28752, Note_on_c, 2, 67, 0
4, 28752, Note_on_c, 2, 55, 0
4, 28800, Note_on_c, 2, 76, 126
4, 28800, Note_on_c, 2, 64, 99
4, 28896, Note_on_c, 2, 64, 0
4, 28896, Note_on_c, 2, 76, 0
4, 28920, Note_on_c, 2, 72, 107
4, 28920, Note_on_c, 2, 60, 104
4, 29232, Note_on_c, 2, 60, 0
4, 29232, Note_on_c, 2, 72, 0
4, 29280, Note_on_c, 2, 72, 108
4, 29280, Note_on_c, 2, 60, 101
4, 29376, Note_on_c, 2, 60, 0
4, 29376, Note_on_c, 2, 72, 0
4, 29400, Note_on_c, 2, 67, 127
4, 29400, Note_on_c, 2, 55, 105
4, 29496, Note_on_c, 2, 55, 0
4, 29496, Note_on_c, 2, 67, 0
4, 29520, Note_on_c, 2, 72, 125
4, 29520, Note_on_c, 2, 60, 127
4, 29616, Note_on_c, 2, 60, 0
4, 29616, Note_on_c, 2, 72, 0
4, 29640, Note_on_c, 2, 55, 118
4, 29640, Note_on_c, 2, 67, 127
4, 29736, Note_on_c, 2, 67, 0
4, 29736, Note_on_c, 2, 55, 0
4, 29760, Note_on_c, 2, 60, 127
4, 29760, Note_on_c, 2, 72, 127
4, 29856, Note_on_c, 2, 72, 0
4, 29856, Note_on_c, 2, 60, 0
4, 29880, Note_on_c, 2, 55, 127
4, 29880, Note_on_c, 2, 67, 127
4, 29976, Note_on_c, 2, 67, 0
4, 29976, Note_on_c, 2, 55, 0
4, 30000, Note_on_c, 2, 60, 121
4, 30000, Note_on_c, 2, 72, 117
4, 30096, Note_on_c, 2, 72, 0
4, 30096, Note_on_c, 2, 60, 0
4, 30120, Note_on_c, 2, 55, 108
4, 30120, Note_on_c, 2, 67, 127
4, 30216, Note_on_c, 2, 67, 0
4, 30216, Note_on_c, 2, 55, 0
4, 30240, Note_on_c, 2, 72, 109
4, 30240, Note_on_c, 2, 60, 112
4, 30288, Note_on_c, 2, 60, 0
4, 30288, Note_on_c, 2, 72, 0
4, 39420, Note_on_c, 2, 70, 127
4, 39444, Note_on_c, 2, 70, 0
4, 39450, Note_on_c, 2, 72, 127
4, 39474, Note_on_c, 2, 72, 0
4, 39480, Note_on_c, 2, 74, 125
4, 39528, Note_on_c, 2, 74, 0
4, 39540, Note_on_c, 2, 76, 125
4, 39588, Note_on_c, 2, 76, 0
4, 39600, Note_on_c, 2, 77, 127
4, 39648, Note_on_c, 2, 77, 0
4, 40860, Note_on_c, 2, 69, 127
4, 40860, Note_on_c, 2, 65, 108
4, 40908, Note_on_c, 2, 65, 0
4, 40908, Note_on_c, 2, 69, 0
4, 40920, Note_on_c, 2, 67, 125
4, 40920, Note_on_c, 2, 70, 120
4, 40968, Note_on_c, 2, 70, 0
4, 40968, Note_on_c, 2, 67, 0
4, 40980, Note_on_c, 2, 70, 117
4, 40980, Note_on_c, 2, 74, 112
4, 41028, Note_on_c, 2, 74, 0
4, 41028, Note_on_c, 2, 70, 0
4, 41040, Note_on_c, 2, 72, 117
4, 41040, Note_on_c, 2, 69, 120
4, 41088, Note_on_c, 2, 69, 0
4, 41088, Note_on_c, 2, 72, 0
4, 41100, Note_on_c, 2, 67, 127
4, 41100, Note_on_c, 2, 70, 127
4, 41124, Note_on_c, 2, 70, 0
4, 41124, Note_on_c, 2, 67, 0
4, 41130, Note_on_c, 2, 65, 104
4, 41130, Note_on_c, 2, 69, 118
4, 41154, Note_on_c, 2, 69, 0
4, 41154, Note_on_c, 2, 65, 0
4, 41160, Note_on_c, 2, 67, 121
4, 41160, Note_on_c, 2, 64, 109
4, 41208, Note_on_c, 2, 64, 0
4, 41208, Note_on_c, 2, 67, 0
4, 41220, Note_on_c, 2, 60, 110
4, 41268, Note_on_c, 2, 60, 0
4, 41280, Note_on_c, 2, 65, 127
4, 41328, Note_on_c, 2, 65, 0
4, 41340, Note_on_c, 2, 64, 100
4, 41340, Note_on_c, 2, 67, 125
4, 41388, Note_on_c, 2, 67, 0
4, 41388, Note_on_c, 2, 64, 0
4, 41400, Note_on_c, 2, 65, 116
4, 41400, Note_on_c, 2, 69, 127
4, 41448, Note_on_c, 2, 69, 0
4, 41448, Note_on_c, 2, 65, 0
4, 41460, Note_on_c, 2, 67, 118
4, 41460, Note_on_c, 2, 70, 121
4, 41484, Note_on_c, 2, 70, 0
4, 41484, Note_on_c, 2, 67, 0
4, 41490, Note_on_c, 2, 65, 123
4, 41490, Note_on_c, 2, 69, 127
4, 41514, Note_on_c, 2, 69, 0
4, 41514, Note_on_c, 2, 65, 0
4, 41520, Note_on_c, 2, 64, 111
4, 41520, Note_on_c, 2, 67, 127
4, 41568, Note_on_c, 2, 67, 0
4, 41568, Note_on_c, 2, 64, 0
4, 41580, Note_on_c, 2, 69, 127
4, 41580, Note_on_c, 2, 65, 109
4, 41628, Note_on_c, 2, 65, 0
4, 41628, Note_on_c, 2, 69, 0
4, 41640, Note_on_c, 2, 70, 110
4, 41640, Note_on_c, 2, 67, 113
4, 41688, Note_on_c, 2, 67, 0
4, 41688, Note_on_c, 2, 70, 0
4, 41700, Note_on_c, 2, 69, 127
4, 41700, Note_on_c, 2, 72, 121
4, 41724, Note_on_c, 2, 72, 0
4, 41724, Note_on_c, 2, 69, 0
4, 41730, Note_on_c, 2, 67, 121
4, 41730, Note_on_c, 2, 70, 127
4, 41754, Note_on_c, 2, 70, 0
4, 41754, Note_on_c, 2, 67, 0
4, 41760, Note_on_c, 2, 69, 125
4, 41760, Note_on_c, 2, 65, 113
4, 41808, Note_on_c, 2, 65, 0
4, 41808, Note_on_c, 2, 69, 0
4, 41820, Note_on_c, 2, 81, 108
4, 41820, Note_on_c, 2, 69, 107
4, 41868, Note_on_c, 2, 69, 0
4, 41868, Note_on_c, 2, 81, 0
4, 41880, Note_on_c, 2, 82, 127
4, 41880, Note_on_c, 2, 70, 125
4, 41928, Note_on_c, 2, 70, 0
4, 41928, Note_on_c, 2, 82, 0
4, 41940, Note_on_c, 2, 74, 98
4, 41988, Note_on_c, 2, 74, 0
4, 42000, Note_on_c, 2, 72, 127
4, 42048, Note_on_c, 2, 72, 0
4, 42060, Note_on_c, 2, 70, 127
4, 42084, Note_on_c, 2, 70, 0
4, 42090, Note_on_c, 2, 69, 118
4, 42114, Note_on_c, 2, 69, 0
4, 42120, Note_on_c, 2, 67, 127
4, 42168, Note_on_c, 2, 67, 0
4, 42180, Note_on_c, 2, 60, 110
4, 42228, Note_on_c, 2, 60, 0
4, 42240, Note_on_c, 2, 65, 127
4, 42288, Note_on_c, 2, 65, 0
4, 42300, Note_on_c, 2, 64, 113
4, 42300, Note_on_c, 2, 67, 127
4, 42348, Note_on_c, 2, 67, 0
4, 42348, Note_on_c, 2, 64, 0
4, 42360, Note_on_c, 2, 65, 123
4, 42360, Note_on_c, 2, 69, 127
4, 42408, Note_on_c, 2, 69, 0
4, 42408, Note_on_c, 2, 65, 0
4, 42420, Note_on_c, 2, 67, 127
4, 42420, Note_on_c, 2, 70, 127
4, 42444, Note_on_c, 2, 70, 0
4, 42444, Note_on_c, 2, 67, 0
4, 42450, Note_on_c, 2, 69, 121
4, 42450, Note_on_c, 2, 65, 107
4, 42474, Note_on_c, 2, 65, 0
4, 42474, Note_on_c, 2, 69, 0
4, 42480, Note_on_c, 2, 64, 113
4, 42480, Note_on_c, 2, 67, 127
4, 42528, Note_on_c, 2, 67, 0
4, 42528, Note_on_c, 2, 64, 0
4, 42540, Note_on_c, 2, 69, 125
4, 42540, Note_on_c, 2, 65, 121
4, 42588, Note_on_c, 2, 65, 0
4, 42588, Note_on_c, 2, 69, 0
4, 42600, Note_on_c, 2, 67, 127
4, 42600, Note_on_c, 2, 70, 127
4, 42648, Note_on_c, 2, 70, 0
4, 42648, Note_on_c, 2, 67, 0
4, 42660, Note_on_c, 2, 69, 106
4, 42660, Note_on_c, 2, 72, 127
4, 42684, Note_on_c, 2, 72, 0
4, 42684, Note_on_c, 2, 69, 0
4, 42690, Note_on_c, 2, 67, 125
4, 42690, Note_on_c, 2, 70, 127
4, 42714, Note_on_c, 2, 70, 0
4, 42714, Note_on_c, 2, 67, 0
4, 42720, Note_on_c, 2, 65, 111
4, 42720, Note_on_c, 2, 69, 118
4, 42768, Note_on_c, 2, 69, 0
4, 42768, Note_on_c, 2, 65, 0
4, 42780, Note_on_c, 2, 69, 103
4, 42780, Note_on_c, 2, 72, 116
4, 42828, Note_on_c, 2, 72, 0
4, 42828, Note_on_c, 2, 69, 0
4, 42840, Note_on_c, 2, 69, 127
4, 42840, Note_on_c, 2, 72, 121
4, 42888, Note_on_c, 2, 72, 0
4, 42888, Note_on_c, 2, 69, 0
4, 42900, Note_on_c, 2, 69, 113
4, 42900, Note_on_c, 2, 72, 112
4, 42948, Note_on_c, 2, 72, 0
4, 42948, Note_on_c, 2, 69, 0
4, 42960, Note_on_c, 2, 69, 127
4, 42960, Note_on_c, 2, 72, 127
4, 43056, Note_on_c, 2, 72, 0
4, 43056, Note_on_c, 2, 69, 0
4, 43080, Note_on_c, 2, 67, 127
4, 43080, Note_on_c, 2, 70, 127
4, 43104, Note_on_c, 2, 70, 0
4, 43104, Note_on_c, 2, 67, 0
4, 43110, Note_on_c, 2, 69, 117
4, 43110, Note_on_c, 2, 65, 113
4, 43134, Note_on_c, 2, 65, 0
4, 43134, Note_on_c, 2, 69, 0
4, 43140, Note_on_c, 2, 64, 109
4, 43140, Note_on_c, 2, 67, 121
4, 43164, Note_on_c, 2, 67, 0
4, 43164, Note_on_c, 2, 64, 0
4, 43170, Note_on_c, 2, 65, 125
4, 43170, Note_on_c, 2, 62, 108
4, 43194, Note_on_c, 2, 62, 0
4, 43194, Note_on_c, 2, 65, 0
4, 43200, Note_on_c, 2, 64, 109
4, 43200, Note_on_c, 2, 60, 118
4, 43248, Note_on_c, 2, 60, 0
4, 43248, Note_on_c, 2, 64, 0
4, 43260, Note_on_c, 2, 65, 127
4, 43260, Note_on_c, 2, 62, 120
4, 43308, Note_on_c, 2, 62, 0
4, 43308, Note_on_c, 2, 65, 0
4, 43320, Note_on_c, 2, 64, 94
4, 43320, Note_on_c, 2, 67, 127
4, 43368, Note_on_c, 2, 67, 0
4, 43368, Note_on_c, 2, 64, 0
4, 43380, Note_on_c, 2, 69, 111
4, 43380, Note_on_c, 2, 65, 125
4, 43404, Note_on_c, 2, 65, 0
4, 43404, Note_on_c, 2, 69, 0
4, 43410, Note_on_c, 2, 64, 88
4, 43410, Note_on_c, 2, 67, 104
4, 43434, Note_on_c, 2, 67, 0
4, 43434, Note_on_c, 2, 64, 0
4, 43440, Note_on_c, 2, 62, 125
4, 43440, Note_on_c, 2, 65, 127
4, 43488, Note_on_c, 2, 65, 0
4, 43488, Note_on_c, 2, 62, 0
4, 43500, Note_on_c, 2, 64, 97
4, 43500, Note_on_c, 2, 67, 120
4, 43548, Note_on_c, 2, 67, 0
4, 43548, Note_on_c, 2, 64, 0
4, 43560, Note_on_c, 2, 65, 104
4, 43560, Note_on_c, 2, 69, 104
4, 43608, Note_on_c, 2, 69, 0
4, 43608, Note_on_c, 2, 65, 0
4, 43620, Note_on_c, 2, 67, 117
4, 43620, Note_on_c, 2, 70, 125
4, 43644, Note_on_c, 2, 70, 0
4, 43644, Note_on_c, 2, 67, 0
4, 43650, Note_on_c, 2, 65, 117
4, 43650, Note_on_c, 2, 69, 111
4, 43674, Note_on_c, 2, 69, 0
4, 43674, Note_on_c, 2, 65, 0
4, 43680, Note_on_c, 2, 64, 95
4, 43680, Note_on_c, 2, 67, 120
4, 43728, Note_on_c, 2, 67, 0
4, 43728, Note_on_c, 2, 64, 0
4, 43740, Note_on_c, 2, 70, 117
4, 43740, Note_on_c, 2, 67, 116
4, 43788, Note_on_c, 2, 67, 0
4, 43788, Note_on_c, 2, 70, 0
4, 43800, Note_on_c, 2, 67, 127
4, 43800, Note_on_c, 2, 70, 120
4, 43848, Note_on_c, 2, 70, 0
4, 43848, Note_on_c, 2, 67, 0
4, 43860, Note_on_c, 2, 67, 118
4, 43860, Note_on_c, 2, 70, 117
4, 43908, Note_on_c, 2, 70, 0
4, 43908, Note_on_c, 2, 67, 0
4, 43920, Note_on_c, 2, 67, 117
4, 43920, Note_on_c, 2, 70, 112
4, 44016, Note_on_c, 2, 70, 0
4, 44016, Note_on_c, 2, 67, 0
4, 44040, Note_on_c, 2, 69, 120
4, 44040, Note_on_c, 2, 72, 127
4, 44064, Note_on_c, 2, 72, 0
4, 44064, Note_on_c, 2, 69, 0
4, 44070, Note_on_c, 2, 70, 123
4, 44070, Note_on_c, 2, 67, 121
4, 44094, Note_on_c, 2, 67, 0
4, 44094, Note_on_c, 2, 70, 0
4, 44100, Note_on_c, 2, 69, 121
4, 44100, Note_on_c, 2, 65, 100
4, 44124, Note_on_c, 2, 65, 0
4, 44124, Note_on_c, 2, 69, 0
4, 44130, Note_on_c, 2, 64, 79
4, 44130, Note_on_c, 2, 67, 101
4, 44154, Note_on_c, 2, 67, 0
4, 44154, Note_on_c, 2, 64, 0
4, 44160, Note_on_c, 2, 69, 123
4, 44160, Note_on_c, 2, 65, 117
4, 44208, Note_on_c, 2, 65, 0
4, 44208, Note_on_c, 2, 69, 0
4, 44220, Note_on_c, 2, 67, 114
4, 44220, Note_on_c, 2, 70, 123
4, 44268, Note_on_c, 2, 70, 0
4, 44268, Note_on_c, 2, 67, 0
4, 44280, Note_on_c, 2, 69, 107
4, 44280, Note_on_c, 2, 72, 118
4, 44328, Note_on_c, 2, 72, 0
4, 44328, Note_on_c, 2, 69, 0
4, 44340, Note_on_c, 2, 70, 112
4, 44340, Note_on_c, 2, 74, 116
4, 44364, Note_on_c, 2, 74, 0
4, 44364, Note_on_c, 2, 70, 0
4, 44370, Note_on_c, 2, 69, 110
4, 44370, Note_on_c, 2, 72, 127
4, 44394, Note_on_c, 2, 72, 0
4, 44394, Note_on_c, 2, 69, 0
4, 44400, Note_on_c, 2, 67, 94
4, 44400, Note_on_c, 2, 70, 107
4, 44544, Note_on_c, 2, 70, 0
4, 44544, Note_on_c, 2, 67, 0
4, 44580, Note_on_c, 2, 64, 91
4, 44580, Note_on_c, 2, 67, 112
4, 44628, Note_on_c, 2, 67, 0
4, 44628, Note_on_c, 2, 64, 0
4, 44640, Note_on_c, 2, 69, 125
4, 44640, Note_on_c, 2, 65, 120
4, 44688, Note_on_c, 2, 65, 0
4, 44688, Note_on_c, 2, 69, 0
4, 44700, Note_on_c, 2, 67, 112
4, 44700, Note_on_c, 2, 70, 118
4, 44748, Note_on_c, 2, 70, 0
4, 44748, Note_on_c, 2, 67, 0
4, 44760, Note_on_c, 2, 69, 114
4, 44760, Note_on_c, 2, 72, 109
4, 44856, Note_on_c, 2, 72, 0
4, 44856, Note_on_c, 2, 69, 0
4, 44880, Note_on_c, 2, 67, 117
4, 44880, Note_on_c, 2, 70, 111
4, 45024, Note_on_c, 2, 70, 0
4, 45024, Note_on_c, 2, 67, 0
4, 45060, Note_on_c, 2, 64, 95
4, 45060, Note_on_c, 2, 67, 111
4, 45108, Note_on_c, 2, 67, 0
4, 45108, Note_on_c, 2, 64, 0
4, 45120, Note_on_c, 2, 69, 120
4, 45120, Note_on_c, 2, 65, 125
4, 45168, Note_on_c, 2, 65, 0
4, 45168, Note_on_c, 2, 69, 0
4, 45180, Note_on_c, 2, 67, 127
4, 45180, Note_on_c, 2, 64, 118
4, 45228, Note_on_c, 2, 64, 0
4, 45228, Note_on_c, 2, 67, 0
4, 45240, Note_on_c, 2, 67, 123
4, 45240, Note_on_c, 2, 70, 110
4, 45288, Note_on_c, 2, 70, 0
4, 45288, Note_on_c, 2, 67, 0
4, 45300, Note_on_c, 2, 64, 94
4, 45300, Note_on_c, 2, 67, 120
4, 45348, Note_on_c, 2, 67, 0
4, 45348, Note_on_c, 2, 64, 0
4, 45360, Note_on_c, 2, 65, 107
4, 45360, Note_on_c, 2, 69, 118
4, 45408, Note_on_c, 2, 69, 0
4, 45408, Note_on_c, 2, 65, 0
4, 45420, Note_on_c, 2, 64, 99
4, 45420, Note_on_c, 2, 67, 120
4, 45468, Note_on_c, 2, 67, 0
4, 45468, Note_on_c, 2, 64, 0
4, 45480, Note_on_c, 2, 67, 127
4, 45480, Note_on_c, 2, 70, 120
4, 45528, Note_on_c, 2, 70, 0
4, 45528, Note_on_c, 2, 67, 0
4, 45540, Note_on_c, 2, 67, 121
4, 45540, Note_on_c, 2, 64, 109
4, 45588, Note_on_c, 2, 64, 0
4, 45588, Note_on_c, 2, 67, 0
4, 45600, Note_on_c, 2, 65, 102
4, 45600, Note_on_c, 2, 69, 105
4, 45632, Note_on_c, 2, 69, 0
4, 45632, Note_on_c, 2, 65, 0
4, 45640, Note_on_c, 2, 69, 105
4, 45640, Note_on_c, 2, 65, 103
4, 45672, Note_on_c, 2, 65, 0
4, 45672, Note_on_c, 2, 69, 0
4, 45680, Note_on_c, 2, 69, 109
4, 45680, Note_on_c, 2, 65, 111
4, 45712, Note_on_c, 2, 65, 0
4, 45712, Note_on_c, 2, 69, 0
4, 45720, Note_on_c, 2, 69, 120
4, 45720, Note_on_c, 2, 65, 110
4, 45752, Note_on_c, 2, 65, 0
4, 45752, Note_on_c, 2, 69, 0
4, 45760, Note_on_c, 2, 69, 125
4, 45760, Note_on_c, 2, 65, 109
4, 45792, Note_on_c, 2, 65, 0
4, 45792, Note_on_c, 2, 69, 0
4, 45800, Note_on_c, 2, 69, 127
4, 45800, Note_on_c, 2, 65, 112
4, 45832, Note_on_c, 2, 65, 0
4, 45832, Note_on_c, 2, 69, 0
4, 45840, Note_on_c, 2, 69, 117
4, 45840, Note_on_c, 2, 65, 101
4, 45888, Note_on_c, 2, 65, 0
4, 45888, Note_on_c, 2, 69, 0
4, 46560, Note_on_c, 2, 69, 127
4, 46560, Note_on_c, 2, 65, 120
4, 46592, Note_on_c, 2, 65, 0
4, 46592, Note_on_c, 2, 69, 0
4, 46600, Note_on_c, 2, 69, 127
4, 46600, Note_on_c, 2, 65, 116
4, 46632, Note_on_c, 2, 65, 0
4, 46632, Note_on_c, 2, 69, 0
4, 46640, Note_on_c, 2, 69, 127
4, 46640, Note_on_c, 2, 65, 116
4, 46672, Note_on_c, 2, 65, 0
4, 46672, Note_on_c, 2, 69, 0
4, 46680, Note_on_c, 2, 69, 123
4, 46680, Note_on_c, 2, 65, 111
4, 46712, Note_on_c, 2, 65, 0
4, 46712, Note_on_c, 2, 69, 0
4, 46720, Note_on_c, 2, 69, 127
4, 46720, Note_on_c, 2, 65, 112
4, 46752, Note_on_c, 2, 65, 0
4, 46752, Note_on_c, 2, 69, 0
4, 46760, Note_on_c, 2, 69, 127
4, 46760, Note_on_c, 2, 65, 121
4, 46792, Note_on_c, 2, 65, 0
4, 46792, Note_on_c, 2, 69, 0
4, 46800, Note_on_c, 2, 69, 110
4, 46800, Note_on_c, 2, 65, 105
4, 46848, Note_on_c, 2, 65, 0
4, 46848, Note_on_c, 2, 69, 0
4, 47520, Note_on_c, 2, 69, 127
4, 47520, Note_on_c, 2, 65, 118
4, 47552, Note_on_c, 2, 65, 0
4, 47552, Note_on_c, 2, 69, 0
4, 47560, Note_on_c, 2, 69, 127
4, 47560, Note_on_c, 2, 65, 123
4, 47592, Note_on_c, 2, 65, 0
4, 47592, Note_on_c, 2, 69, 0
4, 47600, Note_on_c, 2, 69, 127
4, 47600, Note_on_c, 2, 65, 117
4, 47632, Note_on_c, 2, 65, 0
4, 47632, Note_on_c, 2, 69, 0
4, 47640, Note_on_c, 2, 69, 127
4, 47640, Note_on_c, 2, 65, 120
4, 47672, Note_on_c, 2, 65, 0
4, 47672, Note_on_c, 2, 69, 0
4, 47680, Note_on_c, 2, 69, 123
4, 47680, Note_on_c, 2, 65, 110
4, 47712, Note_on_c, 2, 65, 0
4, 47712, Note_on_c, 2, 69, 0
4, 47720, Note_on_c, 2, 69, 116
4, 47720, Note_on_c, 2, 65, 110
4, 47752, Note_on_c, 2, 65, 0
4, 47752, Note_on_c, 2, 69, 0
4, 47760, Note_on_c, 2, 65, 104
4, 47760, Note_on_c, 2, 69, 114
4, 47808, Note_on_c, 2, 69, 0
4, 47808, Note_on_c, 2, 65, 0
4, 48000, Note_on_c, 2, 67, 116
4, 48000, Note_on_c, 2, 65, 109
4, 48032, Note_on_c, 2, 65, 0
4, 48032, Note_on_c, 2, 67, 0
4, 48040, Note_on_c, 2, 65, 110
4, 48040, Note_on_c, 2, 67, 118
4, 48072, Note_on_c, 2, 67, 0
4, 48072, Note_on_c, 2, 65, 0
4, 48080, Note_on_c, 2, 67, 120
4, 48080, Note_on_c, 2, 65, 108
4, 48112, Note_on_c, 2, 65, 0
4, 48112, Note_on_c, 2, 67, 0
4, 48120, Note_on_c, 2, 67, 118
4, 48120, Note_on_c, 2, 65, 116
4, 48152, Note_on_c, 2, 65, 0
4, 48152, Note_on_c, 2, 67, 0
4, 48160, Note_on_c, 2, 67, 116
4, 48160, Note_on_c, 2, 65, 111
4, 48192, Note_on_c, 2, 65, 0
4, 48192, Note_on_c, 2, 67, 0
4, 48200, Note_on_c, 2, 67, 117
4, 48200, Note_on_c, 2, 65, 113
4, 48232, Note_on_c, 2, 65, 0
4, 48232, Note_on_c, 2, 67, 0
4, 48240, Note_on_c, 2, 65, 102
4, 48240, Note_on_c, 2, 67, 105
4, 48288, Note_on_c, 2, 67, 0
4, 48288, Note_on_c, 2, 65, 0
4, 52800, Note_on_c, 2, 81, 127
4, 52848, Note_on_c, 2, 81, 0
4, 52860, Note_on_c, 2, 79, 127
4, 52908, Note_on_c, 2, 79, 0
4, 52920, Note_on_c, 2, 77, 127
4, 52968, Note_on_c, 2, 77, 0
4, 52980, Note_on_c, 2, 74, 114
4, 53028, Note_on_c, 2, 74, 0
4, 53040, Note_on_c, 2, 67, 112
4, 53088, Note_on_c, 2, 67, 0
4, 53100, Note_on_c, 2, 77, 127
4, 53148, Note_on_c, 2, 77, 0
4, 53160, Note_on_c, 2, 74, 123
4, 53208, Note_on_c, 2, 74, 0
4, 53220, Note_on_c, 2, 67, 112
4, 53268, Note_on_c, 2, 67, 0
4, 53280, Note_on_c, 2, 81, 127
4, 53328, Note_on_c, 2, 81, 0
4, 53340, Note_on_c, 2, 79, 121
4, 53388, Note_on_c, 2, 79, 0
4, 53400, Note_on_c, 2, 76, 109
4, 53448, Note_on_c, 2, 76, 0
4, 53460, Note_on_c, 2, 72, 114
4, 53508, Note_on_c, 2, 72, 0
4, 53520, Note_on_c, 2, 67, 116
4, 53568, Note_on_c, 2, 67, 0
4, 53580, Note_on_c, 2, 76, 115
4, 53628, Note_on_c, 2, 76, 0
4, 53640, Note_on_c, 2, 72, 123
4, 53688, Note_on_c, 2, 72, 0
4, 53700, Note_on_c, 2, 67, 112
4, 53748, Note_on_c, 2, 67, 0
4, 53760, Note_on_c, 2, 81, 127
4, 53808, Note_on_c, 2, 81, 0
4, 53820, Note_on_c, 2, 79, 127
4, 53868, Note_on_c, 2, 79, 0
4, 53880, Note_on_c, 2, 77, 127
4, 53928, Note_on_c, 2, 77, 0
4, 53940, Note_on_c, 2, 74, 127
4, 53988, Note_on_c, 2, 74, 0
4, 54000, Note_on_c, 2, 67, 117
4, 54048, Note_on_c, 2, 67, 0
4, 54060, Note_on_c, 2, 77, 127
4, 54108, Note_on_c, 2, 77, 0
4, 54120, Note_on_c, 2, 74, 103
4, 54168, Note_on_c, 2, 74, 0
4, 54180, Note_on_c, 2, 67, 114
4, 54228, Note_on_c, 2, 67, 0
4, 54240, Note_on_c, 2, 81, 127
4, 54288, Note_on_c, 2, 81, 0
4, 54300, Note_on_c, 2, 79, 127
4, 54348, Note_on_c, 2, 79, 0
4, 54360, Note_on_c, 2, 76, 115
4, 54408, Note_on_c, 2, 76, 0
4, 54420, Note_on_c, 2, 72, 127
4, 54468, Note_on_c, 2, 72, 0
4, 54480, Note_on_c, 2, 67, 109
4, 54528, Note_on_c, 2, 67, 0
4, 54540, Note_on_c, 2, 76, 115
4, 54588, Note_on_c, 2, 76, 0
4, 54600, Note_on_c, 2, 72, 127
4, 54648, Note_on_c, 2, 72, 0
4, 54660, Note_on_c, 2, 67, 118
4, 54708, Note_on_c, 2, 67, 0
4, 54720, Note_on_c, 2, 81, 123
4, 54768, Note_on_c, 2, 81, 0
4, 54780, Note_on_c, 2, 79, 127
4, 54828, Note_on_c, 2, 79, 0
4, 54840, Note_on_c, 2, 77, 110
4, 54888, Note_on_c, 2, 77, 0
4, 54900, Note_on_c, 2, 74, 109
4, 54948, Note_on_c, 2, 74, 0
4, 54960, Note_on_c, 2, 67, 109
4, 55008, Note_on_c, 2, 67, 0
4, 55020, Note_on_c, 2, 77, 110
4, 55068, Note_on_c, 2, 77, 0
4, 55080, Note_on_c, 2, 74, 120
4, 55128, Note_on_c, 2, 74, 0
4, 55140, Note_on_c, 2, 67, 109
4, 55188, Note_on_c, 2, 67, 0
4, 55200, Note_on_c, 2, 76, 96
4, 55200, Note_on_c, 2, 67, 114
4, 55248, Note_on_c, 2, 67, 0
4, 55248, Note_on_c, 2, 76, 0
4, 55920, Note_on_c, 2, 77, 118
4, 55920, Note_on_c, 2, 69, 105
4, 55968, Note_on_c, 2, 69, 0
4, 55968, Note_on_c, 2, 77, 0
4, 57600, Note_on_c, 2, 77, 120
4, 57600, Note_on_c, 2, 69, 109
4, 57648, Note_on_c, 2, 69, 0
4, 57648, Note_on_c, 2, 77, 0
4, 58080, Note_on_c, 2, 64, 92
4, 58080, Note_on_c, 2, 67, 120
4, 58176, Note_on_c, 2, 67, 0
4, 58176, Note_on_c, 2, 64, 0
4, 58200, Note_on_c, 2, 62, 102
4, 58200, Note_on_c, 2, 65, 113
4, 58248, Note_on_c, 2, 65, 0
4, 58248, Note_on_c, 2, 62, 0
4, 58260, Note_on_c, 2, 64, 101
4, 58260, Note_on_c, 2, 60, 103
4, 58308, Note_on_c, 2, 60, 0
4, 58308, Note_on_c, 2, 64, 0
4, 58320, Note_on_c, 2, 64, 113
4, 58320, Note_on_c, 2, 60, 116
4, 58368, Note_on_c, 2, 60, 0
4, 58368, Note_on_c, 2, 64, 0
4, 58380, Note_on_c, 2, 59, 92
4, 58380, Note_on_c, 2, 62, 116
4, 58428, Note_on_c, 2, 62, 0
4, 58428, Note_on_c, 2, 59, 0
4, 58440, Note_on_c, 2, 60, 114
4, 58440, Note_on_c, 2, 57, 116
4, 58488, Note_on_c, 2, 57, 0
4, 58488, Note_on_c, 2, 60, 0
4, 58500, Note_on_c, 2, 59, 81
4, 58500, Note_on_c, 2, 62, 116
4, 58548, Note_on_c, 2, 62, 0
4, 58548, Note_on_c, 2, 59, 0
4, 58560, Note_on_c, 2, 64, 113
4, 58560, Note_on_c, 2, 60, 125
4, 58608, Note_on_c, 2, 60, 0
4, 58608, Note_on_c, 2, 64, 0
4, 58620, Note_on_c, 2, 64, 126
4, 58620, Note_on_c, 2, 60, 127
4, 58668, Note_on_c, 2, 60, 0
4, 58668, Note_on_c, 2, 64, 0
4, 58680, Note_on_c, 2, 65, 127
4, 58680, Note_on_c, 2, 62, 127
4, 58728, Note_on_c, 2, 62, 0
4, 58728, Note_on_c, 2, 65, 0
4, 58740, Note_on_c, 2, 64, 88
4, 58740, Note_on_c, 2, 67, 111
4, 58788, Note_on_c, 2, 67, 0
4, 58788, Note_on_c, 2, 64, 0
4, 58800, Note_on_c, 2, 69, 127
4, 58800, Note_on_c, 2, 65, 113
4, 58848, Note_on_c, 2, 65, 0
4, 58848, Note_on_c, 2, 69, 0
4, 58860, Note_on_c, 2, 72, 127
4, 58860, Note_on_c, 2, 69, 127
4, 58908, Note_on_c, 2, 69, 0
4, 58908, Note_on_c, 2, 72, 0
4, 58920, Note_on_c, 2, 71, 100
4, 58920, Note_on_c, 2, 67, 120
4, 58968, Note_on_c, 2, 67, 0
4, 58968, Note_on_c, 2, 71, 0
4, 58980, Note_on_c, 2, 69, 108
4, 58980, Note_on_c, 2, 65, 110
4, 59028, Note_on_c, 2, 65, 0
4, 59028, Note_on_c, 2, 69, 0
4, 59040, Note_on_c, 2, 64, 97
4, 59040, Note_on_c, 2, 67, 120
4, 59088, Note_on_c, 2, 67, 0
4, 59088, Note_on_c, 2, 64, 0
4, 59100, Note_on_c, 2, 64, 100
4, 59100, Note_on_c, 2, 67, 114
4, 59148, Note_on_c, 2, 67, 0
4, 59148, Note_on_c, 2, 64, 0
4, 59160, Note_on_c, 2, 65, 100
4, 59160, Note_on_c, 2, 62, 84
4, 59208, Note_on_c, 2, 62, 0
4, 59208, Note_on_c, 2, 65, 0
4, 59220, Note_on_c, 2, 60, 103
4, 59220, Note_on_c, 2, 64, 97
4, 59268, Note_on_c, 2, 64, 0
4, 59268, Note_on_c, 2, 60, 0
4, 59280, Note_on_c, 2, 64, 115
4, 59280, Note_on_c, 2, 60, 102
4, 59328, Note_on_c, 2, 60, 0
4, 59328, Note_on_c, 2, 64, 0
4, 59340, Note_on_c, 2, 59, 75
4, 59340, Note_on_c, 2, 62, 100
4, 59388, Note_on_c, 2, 62, 0
4, 59388, Note_on_c, 2, 59, 0
4, 59400, Note_on_c, 2, 60, 121
4, 59400, Note_on_c, 2, 57, 97
4, 59448, Note_on_c, 2, 57, 0
4, 59448, Note_on_c, 2, 60, 0
4, 59460, Note_on_c, 2, 59, 99
4, 59460, Note_on_c, 2, 62, 127
4, 59508, Note_on_c, 2, 62, 0
4, 59508, Note_on_c, 2, 59, 0
4, 59520, Note_on_c, 2, 64, 113
4, 59520, Note_on_c, 2, 60, 125
4, 59568, Note_on_c, 2, 60, 0
4, 59568, Note_on_c, 2, 64, 0
4, 59640, Note_on_c, 2, 72, 127
4, 59640, Note_on_c, 2, 67, 127
4, 59688, Note_on_c, 2, 67, 0
4, 59688, Note_on_c, 2, 72, 0
4, 59760, Note_on_c, 2, 69, 123
4, 59760, Note_on_c, 2, 72, 118
4, 59808, Note_on_c, 2, 72, 0
4, 59808, Note_on_c, 2, 69, 0
4, 59880, Note_on_c, 2, 77, 127
4, 59880, Note_on_c, 2, 69, 112
4, 59928, Note_on_c, 2, 69, 0
4, 59928, Note_on_c, 2, 77, 0
4, 60000, Note_on_c, 2, 76, 118
4, 60000, Note_on_c, 2, 67, 107
4, 60048, Note_on_c, 2, 67, 0
4, 60048, Note_on_c, 2, 76, 0
4, 60120, Note_on_c, 2, 76, 109
4, 60120, Note_on_c, 2, 72, 120
4, 60168, Note_on_c, 2, 72, 0
4, 60168, Note_on_c, 2, 76, 0
4, 60240, Note_on_c, 2, 71, 113
4, 60240, Note_on_c, 2, 77, 127
4, 60288, Note_on_c, 2, 77, 0
4, 60288, Note_on_c, 2, 71, 0
4, 60360, Note_on_c, 2, 77, 127
4, 60360, Note_on_c, 2, 71, 118
4, 60408, Note_on_c, 2, 71, 0
4, 60408, Note_on_c, 2, 77, 0
4, 60480, Note_on_c, 2, 72, 120
4, 60480, Note_on_c, 2, 60, 123
4, 60576, Note_on_c, 2, 60, 0
4, 60576, Note_on_c, 2, 72, 0
4, 60600, Note_on_c, 2, 55, 109
4, 60600, Note_on_c, 2, 67, 121
4, 60912, Note_on_c, 2, 67, 0
4, 60912, Note_on_c, 2, 55, 0
4, 60960, Note_on_c, 2, 76, 107
4, 60960, Note_on_c, 2, 64, 100
4, 61056, Note_on_c, 2, 64, 0
4, 61056, Note_on_c, 2, 76, 0
4, 61080, Note_on_c, 2, 72, 110
4, 61080, Note_on_c, 2, 60, 101
4, 61392, Note_on_c, 2, 60, 0
4, 61392, Note_on_c, 2, 72, 0
4, 61440, Note_on_c, 2, 60, 101
4, 61440, Note_on_c, 2, 72, 99
4, 61536, Note_on_c, 2, 72, 0
4, 61536, Note_on_c, 2, 60, 0
4, 61560, Note_on_c, 2, 55, 117
4, 61560, Note_on_c, 2, 67, 121
4, 61872, Note_on_c, 2, 67, 0
4, 61872, Note_on_c, 2, 55, 0
4, 61920, Note_on_c, 2, 76, 126
4, 61920, Note_on_c, 2, 64, 99
4, 62016, Note_on_c, 2, 64, 0
4, 62016, Note_on_c, 2, 76, 0
4, 62040, Note_on_c, 2, 72, 107
4, 62040, Note_on_c, 2, 60, 104
4, 62352, Note_on_c, 2, 60, 0
4, 62352, Note_on_c, 2, 72, 0
4, 62400, Note_on_c, 2, 72, 108
4, 62400, Note_on_c, 2, 60, 101
4, 62496, Note_on_c, 2, 60, 0
4, 62496, Note_on_c, 2, 72, 0
4, 62520, Note_on_c, 2, 67, 127
4, 62520, Note_on_c, 2, 55, 105
4, 62616, Note_on_c, 2, 55, 0
4, 62616, Note_on_c, 2, 67, 0
4, 62640, Note_on_c, 2, 72, 125
4, 62640, Note_on_c, 2, 60, 127
4, 62736, Note_on_c, 2, 60, 0
4, 62736, Note_on_c, 2, 72, 0
4, 62760, Note_on_c, 2, 55, 118
4, 62760, Note_on_c, 2, 67, 127
4, 62856, Note_on_c, 2, 67, 0
4, 62856, Note_on_c, 2, 55, 0
4, 62880, Note_on_c, 2, 60, 127
4, 62880, Note_on_c, 2, 72, 127
4, 62976, Note_on_c, 2, 72, 0
4, 62976, Note_on_c, 2, 60, 0
4, 63000, Note_on_c, 2, 55, 127
4, 63000, Note_on_c, 2, 67, 127
4, 63096, Note_on_c, 2, 67, 0
4, 63096, Note_on_c, 2, 55, 0
4, 63120, Note_on_c, 2, 60, 121
4, 63120, Note_on_c, 2, 72, 117
4, 63216, Note_on_c, 2, 72, 0
4, 63216, Note_on_c, 2, 60, 0
4, 63240, Note_on_c, 2, 55, 108
4, 63240, Note_on_c, 2, 67, 127
4, 63336, Note_on_c, 2, 67, 0
4, 63336, Note_on_c, 2, 55, 0
4, 63360, Note_on_c, 2, 72, 109
4, 63360, Note_on_c, 2, 60, 112
4, 63408, Note_on_c, 2, 60, 0
4, 63408, Note_on_c, 2, 72, 0
4, 66240, Note_on_c, 2, 64, 50
4, 66240, Note_on_c, 2, 70, 117
4, 66672, Note_on_c, 2, 70, 0
4, 66672, Note_on_c, 2, 64, 0
4, 66720, Note_on_c, 2, 64, 87
4, 66720, Note_on_c, 2, 70, 118
4, 67152, Note_on_c, 2, 70, 0
4, 67152, Note_on_c, 2, 64, 0
4, 68220, Note_on_c, 2, 74, 114
4, 68268, Note_on_c, 2, 74, 0
4, 68280, Note_on_c, 2, 75, 108
4, 68328, Note_on_c, 2, 75, 0
4, 68340, Note_on_c, 2, 79, 112
4, 68388, Note_on_c, 2, 79, 0
4, 68400, Note_on_c, 2, 77, 127
4, 68448, Note_on_c, 2, 77, 0
4, 68460, Note_on_c, 2, 75, 127
4, 68484, Note_on_c, 2, 75, 0
4, 68490, Note_on_c, 2, 74, 111
4, 68514, Note_on_c, 2, 74, 0
4, 68520, Note_on_c, 2, 72, 121
4, 68568, Note_on_c, 2, 72, 0
4, 68580, Note_on_c, 2, 65, 111
4, 68628, Note_on_c, 2, 65, 0
4, 68700, Note_on_c, 2, 74, 109
4, 68748, Note_on_c, 2, 74, 0
4, 68760, Note_on_c, 2, 75, 121
4, 68808, Note_on_c, 2, 75, 0
4, 68820, Note_on_c, 2, 79, 127
4, 68868, Note_on_c, 2, 79, 0
4, 68880, Note_on_c, 2, 77, 127
4, 68928, Note_on_c, 2, 77, 0
4, 68940, Note_on_c, 2, 75, 127
4, 68964, Note_on_c, 2, 75, 0
4, 68970, Note_on_c, 2, 74, 118
4, 68994, Note_on_c, 2, 74, 0
4, 69000, Note_on_c, 2, 72, 105
4, 69048, Note_on_c, 2, 72, 0
4, 69060, Note_on_c, 2, 65, 101
4, 69108, Note_on_c, 2, 65, 0
4, 69120, Note_on_c, 2, 70, 103
4, 69120, Note_on_c, 2, 62, 99
4, 70992, Note_on_c, 2, 62, 0
4, 71040, Note_on_c, 2, 70, 98
4, 71040, Note_on_c, 2, 62, 97
4, 71760, Note_on_c, 2, 70, 0
4, 71952, Note_on_c, 2, 62, 0
4, 72000, Note_on_c, 2, 70, 0
4, 72000, Note_on_c, 2, 62, 103
4, 72000, Note_on_c, 2, 69, 100
4, 73872, Note_on_c, 2, 69, 0
4, 73872, Note_on_c, 2, 62, 0
4, 73920, Note_on_c, 2, 62, 103
4, 73920, Note_on_c, 2, 69, 101
4, 74832, Note_on_c, 2, 69, 0
4, 74832, Note_on_c, 2, 62, 0
4, 74880, Note_on_c, 2, 74, 100
4, 74880, Note_on_c, 2, 62, 105
4, 75024, Note_on_c, 2, 62, 0
4, 75024, Note_on_c, 2, 74, 0
4, 75060, Note_on_c, 2, 74, 104
4, 75060, Note_on_c, 2, 62, 101
4, 75108, Note_on_c, 2, 62, 0
4, 75108, Note_on_c, 2, 74, 0
4, 75120, Note_on_c, 2, 62, 105
4, 75120, Note_on_c, 2, 74, 100
4, 75264, Note_on_c, 2, 74, 0
4, 75264, Note_on_c, 2, 62, 0
4, 75300, Note_on_c, 2, 62, 101
4, 75300, Note_on_c, 2, 74, 104
4, 75348, Note_on_c, 2, 74, 0
4, 75348, Note_on_c, 2, 62, 0
4, 75360, Note_on_c, 2, 62, 105
4, 75360, Note_on_c, 2, 74, 100
4, 75504, Note_on_c, 2, 74, 0
4, 75504, Note_on_c, 2, 62, 0
4, 75540, Note_on_c, 2, 62, 101
4, 75540, Note_on_c, 2, 74, 104
4, 75588, Note_on_c, 2, 74, 0
4, 75588, Note_on_c, 2, 62, 0
4, 75600, Note_on_c, 2, 62, 105
4, 75600, Note_on_c, 2, 74, 100
4, 75744, Note_on_c, 2, 74, 0
4, 75744, Note_on_c, 2, 62, 0
4, 75780, Note_on_c, 2, 62, 101
4, 75780, Note_on_c, 2, 74, 104
4, 75828, Note_on_c, 2, 74, 0
4, 75828, Note_on_c, 2, 62, 0
4, 75840, Note_on_c, 2, 74, 107
4, 75840, Note_on_c, 2, 62, 100
4, 75896, Note_on_c, 2, 62, 0
4, 75896, Note_on_c, 2, 74, 0
4, 76320, Note_on_c, 2, 74, 117
4, 76320, Note_on_c, 2, 62, 106
4, 76376, Note_on_c, 2, 62, 0
4, 76376, Note_on_c, 2, 74, 0
4, 79680, Note_on_c, 2, 67, 107
4, 79872, Note_on_c, 2, 67, 0
4, 79920, Note_on_c, 2, 62, 112
4, 80112, Note_on_c, 2, 62, 0
4, 80160, Note_on_c, 2, 71, 98
4, 80160, Note_on_c, 2, 62, 100
4, 80400, Note_on_c, 2, 62, 0
4, 80400, Note_on_c, 2, 62, 127
4, 82992, Note_on_c, 2, 62, 0
4, 82992, Note_on_c, 2, 71, 0
4, 83040, Note_on_c, 2, 71, 103
4, 83040, Note_on_c, 2, 64, 121
4, 83952, Note_on_c, 2, 64, 0
4, 83952, Note_on_c, 2, 71, 0
4, 84000, Note_on_c, 2, 64, 121
4, 84000, Note_on_c, 2, 71, 103
4, 85872, Note_on_c, 2, 71, 0
4, 85872, Note_on_c, 2, 64, 0
4, 85920, Note_on_c, 2, 76, 100
4, 85920, Note_on_c, 2, 64, 105
4, 86064, Note_on_c, 2, 64, 0
4, 86064, Note_on_c, 2, 76, 0
4, 86100, Note_on_c, 2, 76, 104
4, 86100, Note_on_c, 2, 64, 101
4, 86148, Note_on_c, 2, 64, 0
4, 86148, Note_on_c, 2, 76, 0
4, 86160, Note_on_c, 2, 64, 105
4, 86160, Note_on_c, 2, 76, 100
4, 86304, Note_on_c, 2, 76, 0
4, 86304, Note_on_c, 2, 64, 0
4, 86340, Note_on_c, 2, 64, 101
4, 86340, Note_on_c, 2, 76, 104
4, 86388, Note_on_c, 2, 76, 0
4, 86388, Note_on_c, 2, 64, 0
4, 86400, Note_on_c, 2, 64, 105
4, 86400, Note_on_c, 2, 76, 100
4, 86544, Note_on_c, 2, 76, 0
4, 86544, Note_on_c, 2, 64, 0
4, 86580, Note_on_c, 2, 64, 101
4, 86580, Note_on_c, 2, 76, 104
4, 86628, Note_on_c, 2, 76, 0
4, 86628, Note_on_c, 2, 64, 0
4, 86640, Note_on_c, 2, 64, 105
4, 86640, Note_on_c, 2, 76, 100
4, 86784, Note_on_c, 2, 76, 0
4, 86784, Note_on_c, 2, 64, 0
4, 86820, Note_on_c, 2, 64, 101
4, 86820, Note_on_c, 2, 76, 104
4, 86868, Note_on_c, 2, 76, 0
4, 86868, Note_on_c, 2, 64, 0
4, 86880, Note_on_c, 2, 76, 107
4, 86880, Note_on_c, 2, 64, 100
4, 86936, Note_on_c, 2, 64, 0
4, 86936, Note_on_c, 2, 76, 0
4, 87360, Note_on_c, 2, 76, 117
4, 87360, Note_on_c, 2, 64, 106
4, 87416, Note_on_c, 2, 64, 0
4, 87416, Note_on_c, 2, 76, 0
4, 90720, Note_on_c, 2, 69, 107
4, 90912, Note_on_c, 2, 69, 0
4, 90960, Note_on_c, 2, 64, 112
4, 91152, Note_on_c, 2, 64, 0
4, 96000, Note_on_c, 2, 64, 99
4, 96096, Note_on_c, 2, 64, 0
4, 96120, Note_on_c, 2, 67, 127
4, 96216, Note_on_c, 2, 67, 0
4, 96240, Note_on_c, 2, 65, 127
4, 96384, Note_on_c, 2, 65, 0
4, 96420, Note_on_c, 2, 64, 107
4, 96468, Note_on_c, 2, 64, 0
4, 96480, Note_on_c, 2, 69, 127
4, 96576, Note_on_c, 2, 69, 0
4, 96600, Note_on_c, 2, 67, 109
4, 96696, Note_on_c, 2, 67, 0
4, 96720, Note_on_c, 2, 65, 127
4, 96768, Note_on_c, 2, 65, 0
4, 96780, Note_on_c, 2, 65, 127
4, 96804, Note_on_c, 2, 65, 0
4, 96810, Note_on_c, 2, 67, 127
4, 96834, Note_on_c, 2, 67, 0
4, 96840, Note_on_c, 2, 69, 116
4, 96888, Note_on_c, 2, 69, 0
4, 96900, Note_on_c, 2, 65, 109
4, 96948, Note_on_c, 2, 65, 0
4, 96960, Note_on_c, 2, 67, 127
4, 97056, Note_on_c, 2, 67, 0
4, 97080, Note_on_c, 2, 70, 109
4, 97176, Note_on_c, 2, 70, 0
4, 97200, Note_on_c, 2, 69, 108
4, 97344, Note_on_c, 2, 69, 0
4, 97380, Note_on_c, 2, 67, 120
4, 97428, Note_on_c, 2, 67, 0
4, 97440, Note_on_c, 2, 72, 127
4, 97536, Note_on_c, 2, 72, 0
4, 97560, Note_on_c, 2, 70, 118
4, 97656, Note_on_c, 2, 70, 0
4, 97680, Note_on_c, 2, 69, 127
4, 97728, Note_on_c, 2, 69, 0
4, 97740, Note_on_c, 2, 69, 118
4, 97764, Note_on_c, 2, 69, 0
4, 97770, Note_on_c, 2, 70, 118
4, 97794, Note_on_c, 2, 70, 0
4, 97800, Note_on_c, 2, 72, 127
4, 97848, Note_on_c, 2, 72, 0
4, 97860, Note_on_c, 2, 69, 127
4, 97908, Note_on_c, 2, 69, 0
4, 97920, Note_on_c, 2, 74, 120
4, 98016, Note_on_c, 2, 74, 0
4, 98040, Note_on_c, 2, 72, 117
4, 98136, Note_on_c, 2, 72, 0
4, 98160, Note_on_c, 2, 70, 127
4, 98208, Note_on_c, 2, 70, 0
4, 98220, Note_on_c, 2, 67, 125
4, 98244, Note_on_c, 2, 67, 0
4, 98250, Note_on_c, 2, 69, 127
4, 98274, Note_on_c, 2, 69, 0
4, 98280, Note_on_c, 2, 70, 113
4, 98328, Note_on_c, 2, 70, 0
4, 98340, Note_on_c, 2, 72, 125
4, 98388, Note_on_c, 2, 72, 0
4, 98400, Note_on_c, 2, 74, 107
4, 98496, Note_on_c, 2, 74, 0
4, 98520, Note_on_c, 2, 72, 111
4, 98616, Note_on_c, 2, 72, 0
4, 98640, Note_on_c, 2, 70, 127
4, 98688, Note_on_c, 2, 70, 0
4, 98700, Note_on_c, 2, 67, 118
4, 98724, Note_on_c, 2, 67, 0
4, 98730, Note_on_c, 2, 69, 120
4, 98754, Note_on_c, 2, 69, 0
4, 98760, Note_on_c, 2, 70, 125
4, 98808, Note_on_c, 2, 70, 0
4, 98820, Note_on_c, 2, 72, 127
4, 98868, Note_on_c, 2, 72, 0
4, 98880, Note_on_c, 2, 74, 117
4, 98928, Note_on_c, 2, 74, 0
4, 102720, Note_on_c, 2, 65, 127
4, 102780, Note_on_c, 2, 69, 127
4, 102828, Note_on_c, 2, 69, 0
4, 102840, Note_on_c, 2, 70, 127
4, 102888, Note_on_c, 2, 70, 0
4, 102900, Note_on_c, 2, 74, 127
4, 102912, Note_on_c, 2, 65, 0
4, 102948, Note_on_c, 2, 74, 0
4, 102960, Note_on_c, 2, 67, 110
4, 102960, Note_on_c, 2, 72, 125
4, 103008, Note_on_c, 2, 72, 0
4, 103020, Note_on_c, 2, 67, 125
4, 103044, Note_on_c, 2, 67, 0
4, 103050, Note_on_c, 2, 69, 125
4, 103074, Note_on_c, 2, 69, 0
4, 103080, Note_on_c, 2, 70, 127
4, 103104, Note_on_c, 2, 67, 0
4, 103128, Note_on_c, 2, 70, 0
4, 103140, Note_on_c, 2, 64, 107
4, 103140, Note_on_c, 2, 67, 127
4, 103188, Note_on_c, 2, 67, 0
4, 103188, Note_on_c, 2, 64, 0
4, 103200, Note_on_c, 2, 69, 120
4, 103200, Note_on_c, 2, 65, 102
4, 103296, Note_on_c, 2, 65, 0
4, 103296, Note_on_c, 2, 69, 0
4, 103320, Note_on_c, 2, 72, 106
4, 103320, Note_on_c, 2, 69, 111
4, 103416, Note_on_c, 2, 69, 0
4, 103416, Note_on_c, 2, 72, 0
4, 103440, Note_on_c, 2, 67, 127
4, 103440, Note_on_c, 2, 70, 127
4, 103584, Note_on_c, 2, 70, 0
4, 103584, Note_on_c, 2, 67, 0
4, 103620, Note_on_c, 2, 69, 117
4, 103620, Note_on_c, 2, 65, 111
4, 103668, Note_on_c, 2, 65, 0
4, 103668, Note_on_c, 2, 69, 0
4, 103680, Note_on_c, 2, 70, 114
4, 103680, Note_on_c, 2, 74, 114
4, 103776, Note_on_c, 2, 74, 0
4, 103776, Note_on_c, 2, 70, 0
4, 103800, Note_on_c, 2, 69, 109
4, 103800, Note_on_c, 2, 72, 117
4, 103896, Note_on_c, 2, 72, 0
4, 103896, Note_on_c, 2, 69, 0
4, 103920, Note_on_c, 2, 64, 109
4, 103920, Note_on_c, 2, 67, 125
4, 103968, Note_on_c, 2, 67, 0
4, 103980, Note_on_c, 2, 67, 125
4, 104004, Note_on_c, 2, 67, 0
4, 104010, Note_on_c, 2, 69, 125
4, 104034, Note_on_c, 2, 69, 0
4, 104040, Note_on_c, 2, 70, 121
4, 104088, Note_on_c, 2, 70, 0
4, 104100, Note_on_c, 2, 67, 127
4, 104112, Note_on_c, 2, 64, 0
4, 104148, Note_on_c, 2, 67, 0
4, 104160, Note_on_c, 2, 69, 98
4, 104160, Note_on_c, 2, 65, 98
4, 104208, Note_on_c, 2, 65, 0
4, 104208, Note_on_c, 2, 69, 0
4, 107340, Note_on_c, 2, 70, 103
4, 107364, Note_on_c, 2, 70, 0
4, 107370, Note_on_c, 2, 72, 125
4, 107394, Note_on_c, 2, 72, 0
4, 107400, Note_on_c, 2, 74, 127
4, 107448, Note_on_c, 2, 74, 0
4, 107460, Note_on_c, 2, 76, 127
4, 107508, Note_on_c, 2, 76, 0
4, 107520, Note_on_c, 2, 77, 127
4, 107568, Note_on_c, 2, 77, 0
4, 107760, Note_on_c, 2, 65, 108
4, 107760, Note_on_c, 2, 69, 121
4, 107808, Note_on_c, 2, 69, 0
4, 107808, Note_on_c, 2, 65, 0
4, 107820, Note_on_c, 2, 81, 127
4, 107820, Note_on_c, 2, 69, 113
4, 107868, Note_on_c, 2, 69, 0
4, 107868, Note_on_c, 2, 81, 0
4, 107880, Note_on_c, 2, 70, 127
4, 107880, Note_on_c, 2, 82, 127
4, 107928, Note_on_c, 2, 82, 0
4, 107928, Note_on_c, 2, 70, 0
4, 107940, Note_on_c, 2, 74, 104
4, 107988, Note_on_c, 2, 74, 0
4, 108000, Note_on_c, 2, 72, 127
4, 108048, Note_on_c, 2, 72, 0
4, 108060, Note_on_c, 2, 70, 127
4, 108084, Note_on_c, 2, 70, 0
4, 108090, Note_on_c, 2, 69, 125
4, 108114, Note_on_c, 2, 69, 0
4, 108120, Note_on_c, 2, 67, 127
4, 108168, Note_on_c, 2, 67, 0
4, 108180, Note_on_c, 2, 60, 105
4, 108228, Note_on_c, 2, 60, 0
4, 108240, Note_on_c, 2, 65, 127
4, 108288, Note_on_c, 2, 65, 0
4, 108300, Note_on_c, 2, 64, 105
4, 108300, Note_on_c, 2, 67, 118
4, 108348, Note_on_c, 2, 67, 0
4, 108348, Note_on_c, 2, 64, 0
4, 108360, Note_on_c, 2, 65, 111
4, 108360, Note_on_c, 2, 69, 125
4, 108408, Note_on_c, 2, 69, 0
4, 108408, Note_on_c, 2, 65, 0
4, 108420, Note_on_c, 2, 67, 121
4, 108420, Note_on_c, 2, 70, 118
4, 108444, Note_on_c, 2, 70, 0
4, 108444, Note_on_c, 2, 67, 0
4, 108450, Note_on_c, 2, 69, 107
4, 108450, Note_on_c, 2, 65, 118
4, 108474, Note_on_c, 2, 65, 0
4, 108474, Note_on_c, 2, 69, 0
4, 108480, Note_on_c, 2, 64, 103
4, 108480, Note_on_c, 2, 67, 127
4, 108528, Note_on_c, 2, 67, 0
4, 108528, Note_on_c, 2, 64, 0
4, 108540, Note_on_c, 2, 65, 107
4, 108540, Note_on_c, 2, 69, 125
4, 108588, Note_on_c, 2, 69, 0
4, 108588, Note_on_c, 2, 65, 0
4, 108600, Note_on_c, 2, 67, 117
4, 108600, Note_on_c, 2, 70, 121
4, 108648, Note_on_c, 2, 70, 0
4, 108648, Note_on_c, 2, 67, 0
4, 108660, Note_on_c, 2, 69, 116
4, 108660, Note_on_c, 2, 72, 118
4, 108684, Note_on_c, 2, 72, 0
4, 108684, Note_on_c, 2, 69, 0
4, 108690, Note_on_c, 2, 67, 118
4, 108690, Note_on_c, 2, 70, 127
4, 108714, Note_on_c, 2, 70, 0
4, 108714, Note_on_c, 2, 67, 0
4, 108720, Note_on_c, 2, 69, 125
4, 108720, Note_on_c, 2, 65, 106
4, 108768, Note_on_c, 2, 65, 0
4, 108768, Note_on_c, 2, 69, 0
4, 108780, Note_on_c, 2, 69, 116
4, 108780, Note_on_c, 2, 72, 123
4, 108828, Note_on_c, 2, 72, 0
4, 108828, Note_on_c, 2, 69, 0
4, 108840, Note_on_c, 2, 69, 116
4, 108840, Note_on_c, 2, 72, 121
4, 108888, Note_on_c, 2, 72, 0
4, 108888, Note_on_c, 2, 69, 0
4, 108900, Note_on_c, 2, 69, 116
4, 108900, Note_on_c, 2, 72, 117
4, 108948, Note_on_c, 2, 72, 0
4, 108948, Note_on_c, 2, 69, 0
4, 108960, Note_on_c, 2, 69, 118
4, 108960, Note_on_c, 2, 72, 123
4, 109056, Note_on_c, 2, 72, 0
4, 109056, Note_on_c, 2, 69, 0
4, 109080, Note_on_c, 2, 70, 120
4, 109080, Note_on_c, 2, 67, 116
4, 109104, Note_on_c, 2, 67, 0
4, 109104, Note_on_c, 2, 70, 0
4, 109110, Note_on_c, 2, 69, 125
4, 109110, Note_on_c, 2, 65, 108
4, 109134, Note_on_c, 2, 65, 0
4, 109134, Note_on_c, 2, 69, 0
4, 109140, Note_on_c, 2, 64, 85
4, 109140, Note_on_c, 2, 67, 99
4, 109164, Note_on_c, 2, 67, 0
4, 109164, Note_on_c, 2, 64, 0
4, 109170, Note_on_c, 2, 65, 118
4, 109170, Note_on_c, 2, 62, 106
4, 109194, Note_on_c, 2, 62, 0
4, 109194, Note_on_c, 2, 65, 0
4, 109200, Note_on_c, 2, 64, 101
4, 109200, Note_on_c, 2, 60, 121
4, 109248, Note_on_c, 2, 60, 0
4, 109248, Note_on_c, 2, 64, 0
4, 109260, Note_on_c, 2, 62, 118
4, 109260, Note_on_c, 2, 65, 112
4, 109308, Note_on_c, 2, 65, 0
4, 109308, Note_on_c, 2, 62, 0
4, 109320, Note_on_c, 2, 64, 85
4, 109320, Note_on_c, 2, 67, 116
4, 109368, Note_on_c, 2, 67, 0
4, 109368, Note_on_c, 2, 64, 0
4, 109380, Note_on_c, 2, 65, 121
4, 109380, Note_on_c, 2, 69, 109
4, 109404, Note_on_c, 2, 69, 0
4, 109404, Note_on_c, 2, 65, 0
4, 109410, Note_on_c, 2, 64, 100
4, 109410, Note_on_c, 2, 67, 103
4, 109434, Note_on_c, 2, 67, 0
4, 109434, Note_on_c, 2, 64, 0
4, 109440, Note_on_c, 2, 62, 109
4, 109440, Note_on_c, 2, 65, 120
4, 109488, Note_on_c, 2, 65, 0
4, 109488, Note_on_c, 2, 62, 0
4, 109500, Note_on_c, 2, 64, 89
4, 109500, Note_on_c, 2, 67, 111
4, 109548, Note_on_c, 2, 67, 0
4, 109548, Note_on_c, 2, 64, 0
4, 109560, Note_on_c, 2, 69, 116
4, 109560, Note_on_c, 2, 65, 103
4, 109608, Note_on_c, 2, 65, 0
4, 109608, Note_on_c, 2, 69, 0
4, 109620, Note_on_c, 2, 67, 121
4, 109620, Note_on_c, 2, 70, 121
4, 109644, Note_on_c, 2, 70, 0
4, 109644, Note_on_c, 2, 67, 0
4, 109650, Note_on_c, 2, 69, 113
4, 109650, Note_on_c, 2, 65, 103
4, 109674, Note_on_c, 2, 65, 0
4, 109674, Note_on_c, 2, 69, 0
4, 109680, Note_on_c, 2, 64, 113
4, 109680, Note_on_c, 2, 67, 127
4, 109728, Note_on_c, 2, 67, 0
4, 109728, Note_on_c, 2, 64, 0
4, 109740, Note_on_c, 2, 70, 114
4, 109740, Note_on_c, 2, 67, 123
4, 109788, Note_on_c, 2, 67, 0
4, 109788, Note_on_c, 2, 70, 0
4, 109800, Note_on_c, 2, 67, 109
4, 109800, Note_on_c, 2, 70, 120
4, 109848, Note_on_c, 2, 70, 0
4, 109848, Note_on_c, 2, 67, 0
4, 109860, Note_on_c, 2, 70, 111
4, 109860, Note_on_c, 2, 67, 117
4, 109908, Note_on_c, 2, 67, 0
4, 109908, Note_on_c, 2, 70, 0
4, 109920, Note_on_c, 2, 70, 113
4, 109920, Note_on_c, 2, 67, 125
4, 110016, Note_on_c, 2, 67, 0
4, 110016, Note_on_c, 2, 70, 0
4, 110040, Note_on_c, 2, 69, 114
4, 110040, Note_on_c, 2, 72, 117
4, 110064, Note_on_c, 2, 72, 0
4, 110064, Note_on_c, 2, 69, 0
4, 110070, Note_on_c, 2, 67, 109
4, 110070, Note_on_c, 2, 70, 114
4, 110094, Note_on_c, 2, 70, 0
4, 110094, Note_on_c, 2, 67, 0
4, 110100, Note_on_c, 2, 69, 120
4, 110100, Note_on_c, 2, 65, 99
4, 110124, Note_on_c, 2, 65, 0
4, 110124, Note_on_c, 2, 69, 0
4, 110130, Note_on_c, 2, 64, 91
4, 110130, Note_on_c, 2, 67, 121
4, 110154, Note_on_c, 2, 67, 0
4, 110154, Note_on_c, 2, 64, 0
4, 110160, Note_on_c, 2, 69, 125
4, 110160, Note_on_c, 2, 65, 116
4, 110208, Note_on_c, 2, 65, 0
4, 110208, Note_on_c, 2, 69, 0
4, 110220, Note_on_c, 2, 67, 111
4, 110220, Note_on_c, 2, 70, 120
4, 110268, Note_on_c, 2, 70, 0
4, 110268, Note_on_c, 2, 67, 0
4, 110280, Note_on_c, 2, 69, 112
4, 110280, Note_on_c, 2, 72, 117
4, 110328, Note_on_c, 2, 72, 0
4, 110328, Note_on_c, 2, 69, 0
4, 110340, Note_on_c, 2, 70, 123
4, 110340, Note_on_c, 2, 74, 123
4, 110364, Note_on_c, 2, 74, 0
4, 110364, Note_on_c, 2, 70, 0
4, 110370, Note_on_c, 2, 69, 105
4, 110370, Note_on_c, 2, 72, 117
4, 110394, Note_on_c, 2, 72, 0
4, 110394, Note_on_c, 2, 69, 0
4, 110400, Note_on_c, 2, 70, 112
4, 110400, Note_on_c, 2, 67, 120
4, 110544, Note_on_c, 2, 67, 0
4, 110544, Note_on_c, 2, 70, 0
4, 110580, Note_on_c, 2, 64, 97
4, 110580, Note_on_c, 2, 67, 123
4, 110628, Note_on_c, 2, 67, 0
4, 110628, Note_on_c, 2, 64, 0
4, 110640, Note_on_c, 2, 65, 107
4, 110640, Note_on_c, 2, 69, 117
4, 110688, Note_on_c, 2, 69, 0
4, 110688, Note_on_c, 2, 65, 0
4, 110700, Note_on_c, 2, 67, 101
4, 110700, Note_on_c, 2, 70, 111
4, 110748, Note_on_c, 2, 70, 0
4, 110748, Note_on_c, 2, 67, 0
4, 110760, Note_on_c, 2, 69, 120
4, 110760, Note_on_c, 2, 72, 121
4, 110856, Note_on_c, 2, 72, 0
4, 110856, Note_on_c, 2, 69, 0
4, 110880, Note_on_c, 2, 67, 116
4, 110880, Note_on_c, 2, 70, 121
4, 111024, Note_on_c, 2, 70, 0
4, 111024, Note_on_c, 2, 67, 0
4, 111060, Note_on_c, 2, 64, 89
4, 111060, Note_on_c, 2, 67, 110
4, 111108, Note_on_c, 2, 67, 0
4, 111108, Note_on_c, 2, 64, 0
4, 111120, Note_on_c, 2, 65, 114
4, 111120, Note_on_c, 2, 69, 113
4, 111168, Note_on_c, 2, 69, 0
4, 111168, Note_on_c, 2, 65, 0
4, 111180, Note_on_c, 2, 64, 85
4, 111180, Note_on_c, 2, 67, 114
4, 111228, Note_on_c, 2, 67, 0
4, 111228, Note_on_c, 2, 64, 0
4, 111240, Note_on_c, 2, 67, 117
4, 111240, Note_on_c, 2, 70, 108
4, 111288, Note_on_c, 2, 70, 0
4, 111288, Note_on_c, 2, 67, 0
4, 111300, Note_on_c, 2, 64, 86
4, 111300, Note_on_c, 2, 67, 116
4, 111348, Note_on_c, 2, 67, 0
4, 111348, Note_on_c, 2, 64, 0
4, 111360, Note_on_c, 2, 69, 103
4, 111360, Note_on_c, 2, 65, 112
4, 111408, Note_on_c, 2, 65, 0
4, 111408, Note_on_c, 2, 69, 0
4, 111420, Note_on_c, 2, 64, 81
4, 111420, Note_on_c, 2, 67, 113
4, 111468, Note_on_c, 2, 67, 0
4, 111468, Note_on_c, 2, 64, 0
4, 111480, Note_on_c, 2, 67, 118
4, 111480, Note_on_c, 2, 70, 113
4, 111528, Note_on_c, 2, 70, 0
4, 111528, Note_on_c, 2, 67, 0
4, 111540, Note_on_c, 2, 64, 109
4, 111540, Note_on_c, 2, 67, 125
4, 111588, Note_on_c, 2, 67, 0
4, 111588, Note_on_c, 2, 64, 0
4, 111600, Note_on_c, 2, 69, 117
4, 111600, Note_on_c, 2, 65, 111
4, 111632, Note_on_c, 2, 65, 0
4, 111632, Note_on_c, 2, 69, 0
4, 111640, Note_on_c, 2, 69, 125
4, 111640, Note_on_c, 2, 65, 118
4, 111672, Note_on_c, 2, 65, 0
4, 111672, Note_on_c, 2, 69, 0
4, 111680, Note_on_c, 2, 69, 116
4, 111680, Note_on_c, 2, 65, 109
4, 111712, Note_on_c, 2, 65, 0
4, 111712, Note_on_c, 2, 69, 0
4, 111720, Note_on_c, 2, 65, 109
4, 111720, Note_on_c, 2, 69, 114
4, 111752, Note_on_c, 2, 69, 0
4, 111752, Note_on_c, 2, 65, 0
4, 111760, Note_on_c, 2, 65, 104
4, 111760, Note_on_c, 2, 69, 109
4, 111792, Note_on_c, 2, 69, 0
4, 111792, Note_on_c, 2, 65, 0
4, 111800, Note_on_c, 2, 69, 109
4, 111800, Note_on_c, 2, 65, 108
4, 111832, Note_on_c, 2, 65, 0
4, 111832, Note_on_c, 2, 69, 0
4, 111840, Note_on_c, 2, 69, 123
4, 111840, Note_on_c, 2, 65, 100
4, 111936, Note_on_c, 2, 65, 0
4, 111936, Note_on_c, 2, 69, 0
4, 112560, Note_on_c, 2, 69, 111
4, 112560, Note_on_c, 2, 65, 109
4, 112592, Note_on_c, 2, 65, 0
4, 112592, Note_on_c, 2, 69, 0
4, 112600, Note_on_c, 2, 69, 105
4, 112600, Note_on_c, 2, 65, 108
4, 112632, Note_on_c, 2, 65, 0
4, 112632, Note_on_c, 2, 69, 0
4, 112640, Note_on_c, 2, 69, 118
4, 112640, Note_on_c, 2, 65, 107
4, 112672, Note_on_c, 2, 65, 0
4, 112672, Note_on_c, 2, 69, 0
4, 112680, Note_on_c, 2, 69, 113
4, 112680, Note_on_c, 2, 65, 104
4, 112712, Note_on_c, 2, 65, 0
4, 112712, Note_on_c, 2, 69, 0
4, 112720, Note_on_c, 2, 69, 110
4, 112720, Note_on_c, 2, 65, 104
4, 112752, Note_on_c, 2, 65, 0
4, 112752, Note_on_c, 2, 69, 0
4, 112760, Note_on_c, 2, 69, 116
4, 112760, Note_on_c, 2, 65, 109
4, 112792, Note_on_c, 2, 65, 0
4, 112792, Note_on_c, 2, 69, 0
4, 112800, Note_on_c, 2, 69, 118
4, 112800, Note_on_c, 2, 65, 106
4, 112896, Note_on_c, 2, 65, 0
4, 112896, Note_on_c, 2, 69, 0
4, 113520, Note_on_c, 2, 69, 103
4, 113520, Note_on_c, 2, 65, 98
4, 113552, Note_on_c, 2, 65, 0
4, 113552, Note_on_c, 2, 69, 0
4, 113560, Note_on_c, 2, 69, 106
4, 113560, Note_on_c, 2, 65, 105
4, 113592, Note_on_c, 2, 65, 0
4, 113592, Note_on_c, 2, 69, 0
4, 113600, Note_on_c, 2, 69, 116
4, 113600, Note_on_c, 2, 65, 108
4, 113632, Note_on_c, 2, 65, 0
4, 113632, Note_on_c, 2, 69, 0
4, 113640, Note_on_c, 2, 69, 114
4, 113640, Note_on_c, 2, 65, 104
4, 113672, Note_on_c, 2, 65, 0
4, 113672, Note_on_c, 2, 69, 0
4, 113680, Note_on_c, 2, 69, 117
4, 113680, Note_on_c, 2, 65, 106
4, 113712, Note_on_c, 2, 65, 0
4, 113712, Note_on_c, 2, 69, 0
4, 113720, Note_on_c, 2, 69, 109
4, 113720, Note_on_c, 2, 65, 107
4, 113752, Note_on_c, 2, 65, 0
4, 113752, Note_on_c, 2, 69, 0
4, 113760, Note_on_c, 2, 69, 109
4, 113760, Note_on_c, 2, 65, 109
4, 113856, Note_on_c, 2, 65, 0
4, 113856, Note_on_c, 2, 69, 0
4, 114000, Note_on_c, 2, 69, 121
4, 114000, Note_on_c, 2, 65, 110
4, 114032, Note_on_c, 2, 65, 0
4, 114032, Note_on_c, 2, 69, 0
4, 114040, Note_on_c, 2, 69, 116
4, 114040, Note_on_c, 2, 65, 109
4, 114072, Note_on_c, 2, 65, 0
4, 114072, Note_on_c, 2, 69, 0
4, 114080, Note_on_c, 2, 69, 111
4, 114080, Note_on_c, 2, 65, 103
4, 114112, Note_on_c, 2, 65, 0
4, 114112, Note_on_c, 2, 69, 0
4, 114120, Note_on_c, 2, 69, 103
4, 114120, Note_on_c, 2, 65, 101
4, 114152, Note_on_c, 2, 65, 0
4, 114152, Note_on_c, 2, 69, 0
4, 114160, Note_on_c, 2, 69, 107
4, 114160, Note_on_c, 2, 65, 107
4, 114192, Note_on_c, 2, 65, 0
4, 114192, Note_on_c, 2, 69, 0
4, 114200, Note_on_c, 2, 69, 112
4, 114200, Note_on_c, 2, 65, 108
4, 114232, Note_on_c, 2, 65, 0
4, 114232, Note_on_c, 2, 69, 0
4, 114240, Note_on_c, 2, 69, 110
4, 114240, Note_on_c, 2, 65, 105
4, 114336, Note_on_c, 2, 65, 0
4, 114336, Note_on_c, 2, 69, 0
4, 114480, Note_on_c, 2, 64, 115
4, 114480, Note_on_c, 2, 60, 103
4, 114512, Note_on_c, 2, 60, 0
4, 114512, Note_on_c, 2, 64, 0
4, 114520, Note_on_c, 2, 64, 107
4, 114520, Note_on_c, 2, 60, 109
4, 114552, Note_on_c, 2, 60, 0
4, 114552, Note_on_c, 2, 64, 0
4, 114560, Note_on_c, 2, 64, 92
4, 114560, Note_on_c, 2, 60, 103
4, 114592, Note_on_c, 2, 60, 0
4, 114592, Note_on_c, 2, 64, 0
4, 114600, Note_on_c, 2, 60, 107
4, 114600, Note_on_c, 2, 64, 99
4, 114632, Note_on_c, 2, 64, 0
4, 114632, Note_on_c, 2, 60, 0
4, 114640, Note_on_c, 2, 64, 101
4, 114640, Note_on_c, 2, 60, 111
4, 114672, Note_on_c, 2, 60, 0
4, 114672, Note_on_c, 2, 64, 0
4, 114680, Note_on_c, 2, 64, 105
4, 114680, Note_on_c, 2, 60, 112
4, 114712, Note_on_c, 2, 60, 0
4, 114712, Note_on_c, 2, 64, 0
4, 114720, Note_on_c, 2, 64, 82
4, 114720, Note_on_c, 2, 60, 102
4, 114816, Note_on_c, 2, 60, 0
4, 114816, Note_on_c, 2, 64, 0
4, 120720, Note_on_c, 2, 72, 117
4, 120720, Note_on_c, 2, 74, 123
4, 120768, Note_on_c, 2, 74, 0
4, 120780, Note_on_c, 2, 72, 110
4, 120828, Note_on_c, 2, 72, 0
4, 120840, Note_on_c, 2, 70, 123
4, 120888, Note_on_c, 2, 70, 0
4, 120900, Note_on_c, 2, 67, 102
4, 120948, Note_on_c, 2, 67, 0
4, 120960, Note_on_c, 2, 60, 107
4, 121008, Note_on_c, 2, 60, 0
4, 121020, Note_on_c, 2, 70, 123
4, 121068, Note_on_c, 2, 70, 0
4, 121080, Note_on_c, 2, 67, 110
4, 121128, Note_on_c, 2, 67, 0
4, 121140, Note_on_c, 2, 60, 104
4, 121152, Note_on_c, 2, 72, 0
4, 121188, Note_on_c, 2, 60, 0
4, 121200, Note_on_c, 2, 77, 96
4, 121200, Note_on_c, 2, 74, 125
4, 121248, Note_on_c, 2, 74, 0
4, 121260, Note_on_c, 2, 72, 120
4, 121308, Note_on_c, 2, 72, 0
4, 121320, Note_on_c, 2, 69, 121
4, 121368, Note_on_c, 2, 69, 0
4, 121380, Note_on_c, 2, 65, 110
4, 121392, Note_on_c, 2, 77, 0
4, 121428, Note_on_c, 2, 65, 0
4, 121440, Note_on_c, 2, 77, 120
4, 121440, Note_on_c, 2, 60, 100
4, 121488, Note_on_c, 2, 60, 0
4, 121500, Note_on_c, 2, 69, 108
4, 121548, Note_on_c, 2, 69, 0
4, 121560, Note_on_c, 2, 65, 123
4, 121608, Note_on_c, 2, 65, 0
4, 121620, Note_on_c, 2, 60, 103
4, 121632, Note_on_c, 2, 77, 0
4, 121668, Note_on_c, 2, 60, 0
4, 121680, Note_on_c, 2, 76, 101
4, 121680, Note_on_c, 2, 74, 123
4, 121728, Note_on_c, 2, 74, 0
4, 121740, Note_on_c, 2, 72, 114
4, 121776, Note_on_c, 2, 76, 0
4, 121788, Note_on_c, 2, 72, 0
4, 121800, Note_on_c, 2, 76, 105
4, 121800, Note_on_c, 2, 70, 103
4, 121848, Note_on_c, 2, 70, 0
4, 121860, Note_on_c, 2, 67, 109
4, 121896, Note_on_c, 2, 76, 0
4, 121908, Note_on_c, 2, 67, 0
4, 121920, Note_on_c, 2, 76, 79
4, 121920, Note_on_c, 2, 60, 99
4, 121968, Note_on_c, 2, 60, 0
4, 121980, Note_on_c, 2, 70, 113
4, 122016, Note_on_c, 2, 76, 0
4, 122028, Note_on_c, 2, 70, 0
4, 122040, Note_on_c, 2, 79, 113
4, 122040, Note_on_c, 2, 67, 98
4, 122088, Note_on_c, 2, 67, 0
4, 122088, Note_on_c, 2, 79, 0
4, 122100, Note_on_c, 2, 76, 90
4, 122100, Note_on_c, 2, 60, 111
4, 122148, Note_on_c, 2, 60, 0
4, 122148, Note_on_c, 2, 76, 0
4, 122160, Note_on_c, 2, 65, 104
4, 122160, Note_on_c, 2, 69, 104
4, 122160, Note_on_c, 2, 77, 104
4, 122208, Note_on_c, 2, 77, 0
4, 122208, Note_on_c, 2, 69, 0
4, 122208, Note_on_c, 2, 65, 0
4, 122880, Note_on_c, 2, 62, 101
4, 122880, Note_on_c, 2, 74, 97
4, 122928, Note_on_c, 2, 74, 0
4, 122928, Note_on_c, 2, 62, 0
4, 123120, Note_on_c, 2, 74, 112
4, 123120, Note_on_c, 2, 77, 107
4, 123216, Note_on_c, 2, 77, 0
4, 123216, Note_on_c, 2, 74, 0
4, 123240, Note_on_c, 2, 76, 109
4, 123240, Note_on_c, 2, 72, 103
4, 123288, Note_on_c, 2, 72, 0
4, 123288, Note_on_c, 2, 76, 0
4, 123300, Note_on_c, 2, 70, 101
4, 123300, Note_on_c, 2, 74, 102
4, 123348, Note_on_c, 2, 74, 0
4, 123348, Note_on_c, 2, 70, 0
4, 123360, Note_on_c, 2, 69, 111
4, 123360, Note_on_c, 2, 72, 118
4, 123456, Note_on_c, 2, 72, 0
4, 123456, Note_on_c, 2, 69, 0
4, 123480, Note_on_c, 2, 70, 108
4, 123480, Note_on_c, 2, 67, 113
4, 123528, Note_on_c, 2, 67, 0
4, 123528, Note_on_c, 2, 70, 0
4, 123540, Note_on_c, 2, 65, 101
4, 123540, Note_on_c, 2, 69, 109
4, 123588, Note_on_c, 2, 69, 0
4, 123588, Note_on_c, 2, 65, 0
4, 123600, Note_on_c, 2, 65, 96
4, 123600, Note_on_c, 2, 69, 104
4, 123648, Note_on_c, 2, 69, 0
4, 123648, Note_on_c, 2, 65, 0
4, 123660, Note_on_c, 2, 64, 78
4, 123660, Note_on_c, 2, 67, 100
4, 123708, Note_on_c, 2, 67, 0
4, 123708, Note_on_c, 2, 64, 0
4, 123720, Note_on_c, 2, 65, 117
4, 123720, Note_on_c, 2, 62, 108
4, 123768, Note_on_c, 2, 62, 0
4, 123768, Note_on_c, 2, 65, 0
4, 123780, Note_on_c, 2, 64, 86
4, 123780, Note_on_c, 2, 67, 113
4, 123828, Note_on_c, 2, 67, 0
4, 123828, Note_on_c, 2, 64, 0
4, 123840, Note_on_c, 2, 65, 99
4, 123840, Note_on_c, 2, 69, 109
4, 123888, Note_on_c, 2, 69, 0
4, 123888, Note_on_c, 2, 65, 0
4, 124560, Note_on_c, 2, 74, 102
4, 124560, Note_on_c, 2, 62, 118
4, 124608, Note_on_c, 2, 62, 0
4, 124608, Note_on_c, 2, 74, 0
4, 124800, Note_on_c, 2, 77, 107
4, 124800, Note_on_c, 2, 74, 104
4, 124896, Note_on_c, 2, 74, 0
4, 124896, Note_on_c, 2, 77, 0
4, 124920, Note_on_c, 2, 76, 107
4, 124920, Note_on_c, 2, 72, 107
4, 124968, Note_on_c, 2, 72, 0
4, 124968, Note_on_c, 2, 76, 0
4, 124980, Note_on_c, 2, 74, 98
4, 124980, Note_on_c, 2, 70, 101
4, 125028, Note_on_c, 2, 70, 0
4, 125028, Note_on_c, 2, 74, 0
4, 125040, Note_on_c, 2, 69, 113
4, 125040, Note_on_c, 2, 72, 123
4, 125136, Note_on_c, 2, 72, 0
4, 125136, Note_on_c, 2, 69, 0
4, 125160, Note_on_c, 2, 70, 117
4, 125160, Note_on_c, 2, 67, 107
4, 125208, Note_on_c, 2, 67, 0
4, 125208, Note_on_c, 2, 70, 0
4, 125220, Note_on_c, 2, 69, 103
4, 125220, Note_on_c, 2, 65, 103
4, 125268, Note_on_c, 2, 65, 0
4, 125268, Note_on_c, 2, 69, 0
4, 125280, Note_on_c, 2, 69, 117
4, 125280, Note_on_c, 2, 65, 109
4, 125328, Note_on_c, 2, 65, 0
4, 125328, Note_on_c, 2, 69, 0
4, 125340, Note_on_c, 2, 60, 79
4, 125340, Note_on_c, 2, 64, 79
4, 125388, Note_on_c, 2, 64, 0
4, 125388, Note_on_c, 2, 60, 0
4, 125400, Note_on_c, 2, 62, 112
4, 125400, Note_on_c, 2, 65, 113
4, 125448, Note_on_c, 2, 65, 0
4, 125448, Note_on_c, 2, 62, 0
4, 125460, Note_on_c, 2, 64, 105
4, 125460, Note_on_c, 2, 67, 127
4, 125508, Note_on_c, 2, 67, 0
4, 125508, Note_on_c, 2, 64, 0
4, 125520, Note_on_c, 2, 69, 117
4, 125520, Note_on_c, 2, 65, 109
4, 125568, Note_on_c, 2, 65, 0
4, 125568, Note_on_c, 2, 69, 0
4, 125580, Note_on_c, 2, 65, 117
4, 125628, Note_on_c, 2, 65, 0
4, 125640, Note_on_c, 2, 77, 125
4, 125688, Note_on_c, 2, 77, 0
4, 125700, Note_on_c, 2, 77, 118
4, 125748, Note_on_c, 2, 77, 0
4, 125760, Note_on_c, 2, 74, 112
4, 125760, Note_on_c, 2, 77, 112
4, 125808, Note_on_c, 2, 77, 0
4, 125808, Note_on_c, 2, 74, 0
4, 125820, Note_on_c, 2, 74, 104
4, 125820, Note_on_c, 2, 77, 110
4, 125868, Note_on_c, 2, 77, 0
4, 125868, Note_on_c, 2, 74, 0
4, 125880, Note_on_c, 2, 72, 99
4, 125880, Note_on_c, 2, 76, 97
4, 125928, Note_on_c, 2, 76, 0
4, 125928, Note_on_c, 2, 72, 0
4, 125940, Note_on_c, 2, 70, 99
4, 125940, Note_on_c, 2, 74, 103
4, 125988, Note_on_c, 2, 74, 0
4, 125988, Note_on_c, 2, 70, 0
4, 126000, Note_on_c, 2, 72, 121
4, 126000, Note_on_c, 2, 69, 125
4, 126048, Note_on_c, 2, 69, 0
4, 126048, Note_on_c, 2, 72, 0
4, 126060, Note_on_c, 2, 69, 110
4, 126060, Note_on_c, 2, 72, 114
4, 126108, Note_on_c, 2, 72, 0
4, 126108, Note_on_c, 2, 69, 0
4, 126120, Note_on_c, 2, 70, 110
4, 126120, Note_on_c, 2, 67, 102
4, 126168, Note_on_c, 2, 67, 0
4, 126168, Note_on_c, 2, 70, 0
4, 126180, Note_on_c, 2, 69, 109
4, 126180, Note_on_c, 2, 65, 102
4, 126228, Note_on_c, 2, 65, 0
4, 126228, Note_on_c, 2, 69, 0
4, 126240, Note_on_c, 2, 69, 118
4, 126240, Note_on_c, 2, 65, 103
4, 126288, Note_on_c, 2, 65, 0
4, 126288, Note_on_c, 2, 69, 0
4, 126300, Note_on_c, 2, 64, 83
4, 126300, Note_on_c, 2, 67, 117
4, 126348, Note_on_c, 2, 67, 0
4, 126348, Note_on_c, 2, 64, 0
4, 126360, Note_on_c, 2, 65, 118
4, 126360, Note_on_c, 2, 62, 112
4, 126408, Note_on_c, 2, 62, 0
4, 126408, Note_on_c, 2, 65, 0
4, 126420, Note_on_c, 2, 64, 101
4, 126420, Note_on_c, 2, 67, 127
4, 126468, Note_on_c, 2, 67, 0
4, 126468, Note_on_c, 2, 64, 0
4, 126480, Note_on_c, 2, 65, 116
4, 126480, Note_on_c, 2, 69, 117
4, 126528, Note_on_c, 2, 69, 0
4, 126528, Note_on_c, 2, 65, 0
4, 126600, Note_on_c, 2, 72, 127
4, 126600, Note_on_c, 2, 77, 127
4, 126648, Note_on_c, 2, 77, 0
4, 126648, Note_on_c, 2, 72, 0
4, 126720, Note_on_c, 2, 77, 127
4, 126720, Note_on_c, 2, 74, 121
4, 126768, Note_on_c, 2, 74, 0
4, 126768, Note_on_c, 2, 77, 0
4, 126840, Note_on_c, 2, 70, 127
4, 126840, Note_on_c, 2, 74, 127
4, 126888, Note_on_c, 2, 74, 0
4, 126888, Note_on_c, 2, 70, 0
4, 126960, Note_on_c, 2, 69, 121
4, 126960, Note_on_c, 2, 72, 125
4, 127008, Note_on_c, 2, 72, 0
4, 127008, Note_on_c, 2, 69, 0
4, 127080, Note_on_c, 2, 65, 117
4, 127080, Note_on_c, 2, 69, 123
4, 127128, Note_on_c, 2, 69, 0
4, 127128, Note_on_c, 2, 65, 0
4, 127200, Note_on_c, 2, 64, 103
4, 127200, Note_on_c, 2, 67, 127
4, 127248, Note_on_c, 2, 67, 0
4, 127248, Note_on_c, 2, 64, 0
4, 127320, Note_on_c, 2, 72, 127
4, 127320, Note_on_c, 2, 64, 105
4, 127368, Note_on_c, 2, 64, 0
4, 127368, Note_on_c, 2, 72, 0
4, 127440, Note_on_c, 2, 77, 99
4, 127440, Note_on_c, 2, 65, 101
4, 127536, Note_on_c, 2, 65, 0
4, 127536, Note_on_c, 2, 77, 0
4, 127560, Note_on_c, 2, 72, 104
4, 127560, Note_on_c, 2, 60, 107
4, 127872, Note_on_c, 2, 60, 0
4, 127872, Note_on_c, 2, 72, 0
4, 127920, Note_on_c, 2, 81, 100
4, 127920, Note_on_c, 2, 69, 102
4, 128016, Note_on_c, 2, 69, 0
4, 128016, Note_on_c, 2, 81, 0
4, 128040, Note_on_c, 2, 77, 95
4, 128040, Note_on_c, 2, 65, 94
4, 128352, Note_on_c, 2, 65, 0
4, 128352, Note_on_c, 2, 77, 0
4, 128400, Note_on_c, 2, 77, 100
4, 128400, Note_on_c, 2, 65, 98
4, 128496, Note_on_c, 2, 65, 0
4, 128496, Note_on_c, 2, 77, 0
4, 128520, Note_on_c, 2, 72, 95
4, 128520, Note_on_c, 2, 60, 99
4, 128832, Note_on_c, 2, 60, 0
4, 128832, Note_on_c, 2, 72, 0
4, 128880, Note_on_c, 2, 69, 103
4, 128880, Note_on_c, 2, 81, 113
4, 128976, Note_on_c, 2, 81, 0
4, 128976, Note_on_c, 2, 69, 0
4, 129000, Note_on_c, 2, 77, 105
4, 129000, Note_on_c, 2, 65, 100
4, 129456, Note_on_c, 2, 65, 0
4, 129456, Note_on_c, 2, 77, 0
4, 129480, Note_on_c, 2, 60, 102
4, 129480, Note_on_c, 2, 72, 101
4, 129576, Note_on_c, 2, 72, 0
4, 129576, Note_on_c, 2, 60, 0
4, 129600, Note_on_c, 2, 77, 100
4, 129600, Note_on_c, 2, 65, 98
4, 129696, Note_on_c, 2, 65, 0
4, 129696, Note_on_c, 2, 77, 0
4, 129720, Note_on_c, 2, 60, 104
4, 129720, Note_on_c, 2, 72, 121
4, 129816, Note_on_c, 2, 72, 0
4, 129816, Note_on_c, 2, 60, 0
4, 129840, Note_on_c, 2, 77, 127
4, 129840, Note_on_c, 2, 65, 111
4, 129936, Note_on_c, 2, 65, 0
4, 129936, Note_on_c, 2, 77, 0
4, 129960, Note_on_c, 2, 60, 116
4, 129960, Note_on_c, 2, 72, 123
4, 130056, Note_on_c, 2, 72, 0
4, 130056, Note_on_c, 2, 60, 0
4, 130080, Note_on_c, 2, 77, 113
4, 130080, Note_on_c, 2, 65, 104
4, 130176, Note_on_c, 2, 65, 0
4, 130176, Note_on_c, 2, 77, 0
4, 130200, Note_on_c, 2, 60, 121
4, 130200, Note_on_c, 2, 72, 120
4, 130296, Note_on_c, 2, 72, 0
4, 130296, Note_on_c, 2, 60, 0
4, 130320, Note_on_c, 2, 77, 109
4, 130320, Note_on_c, 2, 65, 109
4, 130368, Note_on_c, 2, 65, 0
4, 130368, Note_on_c, 2, 77, 0
4, 133260, Note_on_c, 2, 74, 112
4, 133308, Note_on_c, 2, 74, 0
4, 133320, Note_on_c, 2, 75, 127
4, 133368, Note_on_c, 2, 75, 0
4, 133380, Note_on_c, 2, 79, 109
4, 133428, Note_on_c, 2, 79, 0
4, 133440, Note_on_c, 2, 77, 127
4, 133488, Note_on_c, 2, 77, 0
4, 133500, Note_on_c, 2, 75, 127
4, 133524, Note_on_c, 2, 75, 0
4, 133530, Note_on_c, 2, 74, 114
4, 133554, Note_on_c, 2, 74, 0
4, 133560, Note_on_c, 2, 72, 127
4, 133608, Note_on_c, 2, 72, 0
4, 133620, Note_on_c, 2, 65, 107
4, 133668, Note_on_c, 2, 65, 0
4, 133740, Note_on_c, 2, 74, 98
4, 133788, Note_on_c, 2, 74, 0
4, 133800, Note_on_c, 2, 75, 120
4, 133848, Note_on_c, 2, 75, 0
4, 133860, Note_on_c, 2, 79, 127
4, 133908, Note_on_c, 2, 79, 0
4, 133920, Note_on_c, 2, 77, 127
4, 133968, Note_on_c, 2, 77, 0
4, 133980, Note_on_c, 2, 75, 112
4, 134004, Note_on_c, 2, 75, 0
4, 134010, Note_on_c, 2, 74, 123
4, 134034, Note_on_c, 2, 74, 0
4, 134040, Note_on_c, 2, 72, 127
4, 134088, Note_on_c, 2, 72, 0
4, 134100, Note_on_c, 2, 65, 107
4, 134148, Note_on_c, 2, 65, 0
4, 135120, Note_on_c, 2, 70, 120
4, 135168, Note_on_c, 2, 70, 0
4, 135180, Note_on_c, 2, 69, 100
4, 135180, Note_on_c, 2, 72, 121
4, 135228, Note_on_c, 2, 72, 0
4, 135228, Note_on_c, 2, 69, 0
4, 135240, Note_on_c, 2, 70, 107
4, 135240, Note_on_c, 2, 74, 127
4, 135288, Note_on_c, 2, 74, 0
4, 135288, Note_on_c, 2, 70, 0
4, 135300, Note_on_c, 2, 75, 127
4, 135324, Note_on_c, 2, 75, 0
4, 135330, Note_on_c, 2, 74, 120
4, 135354, Note_on_c, 2, 74, 0
4, 135360, Note_on_c, 2, 69, 117
4, 135360, Note_on_c, 2, 72, 127
4, 135408, Note_on_c, 2, 72, 0
4, 135408, Note_on_c, 2, 69, 0
4, 135420, Note_on_c, 2, 74, 116
4, 135420, Note_on_c, 2, 70, 103
4, 135468, Note_on_c, 2, 70, 0
4, 135468, Note_on_c, 2, 74, 0
4, 135480, Note_on_c, 2, 69, 101
4, 135480, Note_on_c, 2, 75, 114
4, 135528, Note_on_c, 2, 75, 0
4, 135540, Note_on_c, 2, 77, 104
4, 135564, Note_on_c, 2, 77, 0
4, 135570, Note_on_c, 2, 75, 100
4, 135576, Note_on_c, 2, 69, 0
4, 135594, Note_on_c, 2, 75, 0
4, 135600, Note_on_c, 2, 74, 80
4, 135600, Note_on_c, 2, 70, 109
4, 135648, Note_on_c, 2, 70, 0
4, 135696, Note_on_c, 2, 74, 0
4, 135720, Note_on_c, 2, 74, 107
4, 135752, Note_on_c, 2, 74, 0
4, 135760, Note_on_c, 2, 74, 96
4, 135792, Note_on_c, 2, 74, 0
4, 135800, Note_on_c, 2, 72, 100
4, 135832, Note_on_c, 2, 72, 0
4, 135840, Note_on_c, 2, 70, 117
4, 135872, Note_on_c, 2, 70, 0
4, 135880, Note_on_c, 2, 74, 125
4, 135912, Note_on_c, 2, 74, 0
4, 135920, Note_on_c, 2, 72, 112
4, 135952, Note_on_c, 2, 72, 0
4, 135960, Note_on_c, 2, 70, 107
4, 135992, Note_on_c, 2, 70, 0
4, 136000, Note_on_c, 2, 79, 127
4, 136032, Note_on_c, 2, 79, 0
4, 136040, Note_on_c, 2, 76, 115
4, 136072, Note_on_c, 2, 76, 0
4, 136080, Note_on_c, 2, 77, 108
4, 136232, Note_on_c, 2, 77, 0
4, 136240, Note_on_c, 2, 79, 105
4, 136272, Note_on_c, 2, 79, 0
4, 136280, Note_on_c, 2, 77, 113
4, 136312, Note_on_c, 2, 77, 0
4, 136320, Note_on_c, 2, 74, 113
4, 136352, Note_on_c, 2, 74, 0
4, 136360, Note_on_c, 2, 77, 103
4, 136392, Note_on_c, 2, 77, 0
4, 136400, Note_on_c, 2, 75, 109
4, 136432, Note_on_c, 2, 75, 0
4, 136440, Note_on_c, 2, 72, 101
4, 136472, Note_on_c, 2, 72, 0
4, 136480, Note_on_c, 2, 75, 118
4, 136512, Note_on_c, 2, 75, 0
4, 136520, Note_on_c, 2, 74, 109
4, 136552, Note_on_c, 2, 74, 0
4, 136560, Note_on_c, 2, 70, 105
4, 136712, Note_on_c, 2, 70, 0
4, 136720, Note_on_c, 2, 74, 112
4, 136752, Note_on_c, 2, 74, 0
4, 136760, Note_on_c, 2, 72, 113
4, 136792, Note_on_c, 2, 72, 0
4, 136800, Note_on_c, 2, 70, 117
4, 136832, Note_on_c, 2, 70, 0
4, 136840, Note_on_c, 2, 74, 113
4, 136872, Note_on_c, 2, 74, 0
4, 136880, Note_on_c, 2, 72, 103
4, 136912, Note_on_c, 2, 72, 0
4, 136920, Note_on_c, 2, 70, 110
4, 136952, Note_on_c, 2, 70, 0
4, 136960, Note_on_c, 2, 79, 103
4, 136992, Note_on_c, 2, 79, 0
4, 137000, Note_on_c, 2, 76, 100
4, 137032, Note_on_c, 2, 76, 0
4, 137040, Note_on_c, 2, 77, 105
4, 137192, Note_on_c, 2, 77, 0
4, 137200, Note_on_c, 2, 79, 123
4, 137232, Note_on_c, 2, 79, 0
4, 137240, Note_on_c, 2, 77, 121
4, 137272, Note_on_c, 2, 77, 0
4, 137280, Note_on_c, 2, 74, 116
4, 137312, Note_on_c, 2, 74, 0
4, 137320, Note_on_c, 2, 77, 127
4, 137352, Note_on_c, 2, 77, 0
4, 137360, Note_on_c, 2, 75, 120
4, 137392, Note_on_c, 2, 75, 0
4, 137400, Note_on_c, 2, 72, 107
4, 137432, Note_on_c, 2, 72, 0
4, 137440, Note_on_c, 2, 75, 121
4, 137472, Note_on_c, 2, 75, 0
4, 137480, Note_on_c, 2, 74, 114
4, 137512, Note_on_c, 2, 74, 0
4, 137520, Note_on_c, 2, 70, 103
4, 137672, Note_on_c, 2, 70, 0
4, 137680, Note_on_c, 2, 72, 116
4, 137712, Note_on_c, 2, 72, 0
4, 137720, Note_on_c, 2, 74, 109
4, 137752, Note_on_c, 2, 74, 0
4, 137760, Note_on_c, 2, 67, 100
4, 137792, Note_on_c, 2, 67, 0
4, 137880, Note_on_c, 2, 69, 123
4, 137912, Note_on_c, 2, 69, 0
4, 137920, Note_on_c, 2, 70, 114
4, 137952, Note_on_c, 2, 70, 0
4, 138000, Note_on_c, 2, 72, 117
4, 138048, Note_on_c, 2, 72, 0
4, 138480, Note_on_c, 2, 77, 127
4, 138480, Note_on_c, 2, 65, 113
4, 138576, Note_on_c, 2, 65, 0
4, 138576, Note_on_c, 2, 77, 0
4, 138600, Note_on_c, 2, 60, 114
4, 138600, Note_on_c, 2, 72, 121
4, 138945, Note_on_c, 2, 72, 0
4, 138945, Note_on_c, 2, 60, 0
4, 138960, Note_on_c, 2, 81, 103
4, 138960, Note_on_c, 2, 69, 121
4, 139056, Note_on_c, 2, 69, 0
4, 139056, Note_on_c, 2, 81, 0
4, 139080, Note_on_c, 2, 65, 116
4, 139080, Note_on_c, 2, 77, 107
4, 139392, Note_on_c, 2, 77, 0
4, 139392, Note_on_c, 2, 65, 0
4, 139440, Note_on_c, 2, 77, 109
4, 139440, Note_on_c, 2, 65, 101
4, 139536, Note_on_c, 2, 65, 0
4, 139536, Note_on_c, 2, 77, 0
4, 139560, Note_on_c, 2, 72, 102
4, 139560, Note_on_c, 2, 60, 98
4, 139872, Note_on_c, 2, 60, 0
4, 139872, Note_on_c, 2, 72, 0
4, 139920, Note_on_c, 2, 81, 94
4, 139920, Note_on_c, 2, 69, 99
4, 140016, Note_on_c, 2, 69, 0
4, 140016, Note_on_c, 2, 81, 0
4, 140040, Note_on_c, 2, 77, 103
4, 140040, Note_on_c, 2, 65, 101
4, 140136, Note_on_c, 2, 65, 0
4, 140136, Note_on_c, 2, 77, 0
4, 140160, Note_on_c, 2, 77, 99
4, 140160, Note_on_c, 2, 65, 98
4, 140352, Note_on_c, 2, 65, 0
4, 140352, Note_on_c, 2, 77, 0
4, 140400, Note_on_c, 2, 69, 120
4, 140400, Note_on_c, 2, 81, 127
4, 140496, Note_on_c, 2, 81, 0
4, 140496, Note_on_c, 2, 69, 0
4, 140520, Note_on_c, 2, 65, 117
4, 140520, Note_on_c, 2, 77, 127
4, 140616, Note_on_c, 2, 77, 0
4, 140616, Note_on_c, 2, 65, 0
4, 140640, Note_on_c, 2, 81, 112
4, 140640, Note_on_c, 2, 69, 123
4, 140736, Note_on_c, 2, 69, 0
4, 140736, Note_on_c, 2, 81, 0
4, 140760, Note_on_c, 2, 77, 120
4, 140760, Note_on_c, 2, 65, 109
4, 140856, Note_on_c, 2, 65, 0
4, 140856, Note_on_c, 2, 77, 0
4, 140880, Note_on_c, 2, 81, 125
4, 140880, Note_on_c, 2, 69, 117
4, 140976, Note_on_c, 2, 69, 0
4, 140976, Note_on_c, 2, 81, 0
4, 141000, Note_on_c, 2, 65, 117
4, 141000, Note_on_c, 2, 77, 116
4, 141096, Note_on_c, 2, 77, 0
4, 141096, Note_on_c, 2, 65, 0
4, 141120, Note_on_c, 2, 67, 98
4, 141120, Note_on_c, 2, 79, 112
4, 141216, Note_on_c, 2, 79, 0
4, 141216, Note_on_c, 2, 67, 0
4, 141240, Note_on_c, 2, 76, 82
4, 141240, Note_on_c, 2, 64, 94
4, 141336, Note_on_c, 2, 64, 0
4, 141336, Note_on_c, 2, 76, 0
4, 141360, Note_on_c, 2, 81, 105
4, 141360, Note_on_c, 2, 69, 118
4, 141456, Note_on_c, 2, 69, 0
4, 141456, Note_on_c, 2, 81, 0
4, 141480, Note_on_c, 2, 65, 105
4, 141480, Note_on_c, 2, 77, 117
4, 141576, Note_on_c, 2, 77, 0
4, 141576, Note_on_c, 2, 65, 0
4, 141600, Note_on_c, 2, 81, 113
4, 141600, Note_on_c, 2, 69, 112
4, 141696, Note_on_c, 2, 69, 0
4, 141696, Note_on_c, 2, 81, 0
4, 141720, Note_on_c, 2, 65, 112
4, 141720, Note_on_c, 2, 77, 120
4, 141816, Note_on_c, 2, 77, 0
4, 141816, Note_on_c, 2, 65, 0
4, 141840, Note_on_c, 2, 69, 123
4, 141840, Note_on_c, 2, 81, 103
4, 141936, Note_on_c, 2, 81, 0
4, 141936, Note_on_c, 2, 69, 0
4, 141960, Note_on_c, 2, 65, 102
4, 141960, Note_on_c, 2, 77, 109
4, 142056, Note_on_c, 2, 77, 0
4, 142056, Note_on_c, 2, 65, 0
4, 142080, Note_on_c, 2, 67, 102
4, 142080, Note_on_c, 2, 79, 116
4, 142176, Note_on_c, 2, 79, 0
4, 142176, Note_on_c, 2, 67, 0
4, 142200, Note_on_c, 2, 64, 96
4, 142200, Note_on_c, 2, 76, 103
4, 142296, Note_on_c, 2, 76, 0
4, 142296, Note_on_c, 2, 64, 0
4, 142320, Note_on_c, 2, 69, 104
4, 142320, Note_on_c, 2, 81, 118
4, 142416, Note_on_c, 2, 81, 0
4, 142416, Note_on_c, 2, 69, 0
4, 142440, Note_on_c, 2, 65, 108
4, 142440, Note_on_c, 2, 77, 112
4, 142536, Note_on_c, 2, 77, 0
4, 142536, Note_on_c, 2, 65, 0
4, 142560, Note_on_c, 2, 81, 109
4, 142560, Note_on_c, 2, 69, 127
4, 142656, Note_on_c, 2, 69, 0
4, 142656, Note_on_c, 2, 81, 0
4, 142680, Note_on_c, 2, 65, 110
4, 142680, Note_on_c, 2, 77, 118
4, 142776, Note_on_c, 2, 77, 0
4, 142776, Note_on_c, 2, 65, 0
4, 142800, Note_on_c, 2, 77, 98
4, 142800, Note_on_c, 2, 65, 100
4, 143328, Note_on_c, 2, 65, 0
4, 143328, Note_on_c, 2, 77, 0
4, 145680, Note_on_c, 2, 67, 117
4, 145680, Note_on_c, 2, 72, 111
4, 145824, Note_on_c, 2, 72, 0
4, 145824, Note_on_c, 2, 67, 0
4, 145860, Note_on_c, 2, 70, 102
4, 145860, Note_on_c, 2, 67, 103
4, 145908, Note_on_c, 2, 67, 0
4, 145908, Note_on_c, 2, 70, 0
4, 145920, Note_on_c, 2, 69, 120
4, 145920, Note_on_c, 2, 65, 112
4, 145968, Note_on_c, 2, 65, 0
4, 145968, Note_on_c, 2, 69, 0
4, 146040, Note_on_c, 2, 67, 112
4, 146040, Note_on_c, 2, 64, 88
4, 146088, Note_on_c, 2, 64, 0
4, 146088, Note_on_c, 2, 67, 0
4, 146640, Note_on_c, 2, 72, 100
4, 146640, Note_on_c, 2, 67, 113
4, 146784, Note_on_c, 2, 67, 0
4, 146784, Note_on_c, 2, 72, 0
4, 146820, Note_on_c, 2, 67, 107
4, 146820, Note_on_c, 2, 70, 109
4, 146868, Note_on_c, 2, 70, 0
4, 146868, Note_on_c, 2, 67, 0
4, 146880, Note_on_c, 2, 69, 123
4, 146880, Note_on_c, 2, 65, 105
4, 146928, Note_on_c, 2, 65, 0
4, 146928, Note_on_c, 2, 69, 0
4, 147000, Note_on_c, 2, 72, 117
4, 147000, Note_on_c, 2, 64, 90
4, 147048, Note_on_c, 2, 64, 0
4, 147048, Note_on_c, 2, 72, 0
4, 147120, Note_on_c, 2, 69, 108
4, 147120, Note_on_c, 2, 65, 108
4, 147168, Note_on_c, 2, 65, 0
4, 147168, Note_on_c, 2, 69, 0
4, 147240, Note_on_c, 2, 69, 108
4, 147288, Note_on_c, 2, 69, 0
4, 147300, Note_on_c, 2, 70, 118
4, 147324, Note_on_c, 2, 70, 0
4, 147330, Note_on_c, 2, 69, 109
4, 147354, Note_on_c, 2, 69, 0
4, 147360, Note_on_c, 2, 67, 101
4, 147408, Note_on_c, 2, 67, 0
4, 147480, Note_on_c, 2, 70, 109
4, 147528, Note_on_c, 2, 70, 0
4, 147540, Note_on_c, 2, 72, 127
4, 147564, Note_on_c, 2, 72, 0
4, 147570, Note_on_c, 2, 70, 114
4, 147594, Note_on_c, 2, 70, 0
4, 147600, Note_on_c, 2, 69, 104
4, 147648, Note_on_c, 2, 69, 0
4, 147720, Note_on_c, 2, 72, 100
4, 147768, Note_on_c, 2, 72, 0
4, 147780, Note_on_c, 2, 74, 112
4, 147804, Note_on_c, 2, 74, 0
4, 147810, Note_on_c, 2, 72, 109
4, 147834, Note_on_c, 2, 72, 0
4, 147840, Note_on_c, 2, 70, 112
4, 147872, Note_on_c, 2, 70, 0
4, 147880, Note_on_c, 2, 76, 101
4, 147912, Note_on_c, 2, 76, 0
4, 147920, Note_on_c, 2, 79, 113
4, 147952, Note_on_c, 2, 79, 0
4, 147960, Note_on_c, 2, 82, 123
4, 147992, Note_on_c, 2, 82, 0
4, 148000, Note_on_c, 2, 79, 121
4, 148032, Note_on_c, 2, 79, 0
4, 148040, Note_on_c, 2, 76, 115
4, 148072, Note_on_c, 2, 76, 0
4, 148080, Note_on_c, 2, 77, 127
4, 148112, Note_on_c, 2, 77, 0
4, 148120, Note_on_c, 2, 65, 112
4, 148152, Note_on_c, 2, 65, 0
4, 148160, Note_on_c, 2, 67, 127
4, 148192, Note_on_c, 2, 67, 0
4, 148200, Note_on_c, 2, 69, 121
4, 148232, Note_on_c, 2, 69, 0
4, 148240, Note_on_c, 2, 70, 121
4, 148272, Note_on_c, 2, 70, 0
4, 148280, Note_on_c, 2, 69, 105
4, 148312, Note_on_c, 2, 69, 0
4, 148320, Note_on_c, 2, 67, 113
4, 148352, Note_on_c, 2, 67, 0
4, 148360, Note_on_c, 2, 67, 114
4, 148392, Note_on_c, 2, 67, 0
4, 148400, Note_on_c, 2, 69, 113
4, 148432, Note_on_c, 2, 69, 0
4, 148440, Note_on_c, 2, 70, 112
4, 148472, Note_on_c, 2, 70, 0
4, 148480, Note_on_c, 2, 72, 114
4, 148512, Note_on_c, 2, 72, 0
4, 148520, Note_on_c, 2, 70, 121
4, 148552, Note_on_c, 2, 70, 0
4, 148560, Note_on_c, 2, 69, 112
4, 148592, Note_on_c, 2, 69, 0
4, 148600, Note_on_c, 2, 69, 111
4, 148632, Note_on_c, 2, 69, 0
4, 148640, Note_on_c, 2, 70, 123
4, 148672, Note_on_c, 2, 70, 0
4, 148680, Note_on_c, 2, 72, 114
4, 148712, Note_on_c, 2, 72, 0
4, 148720, Note_on_c, 2, 74, 118
4, 148752, Note_on_c, 2, 74, 0
4, 148760, Note_on_c, 2, 72, 105
4, 148792, Note_on_c, 2, 72, 0
4, 148800, Note_on_c, 2, 70, 104
4, 148832, Note_on_c, 2, 70, 0
4, 148840, Note_on_c, 2, 76, 86
4, 148872, Note_on_c, 2, 76, 0
4, 148880, Note_on_c, 2, 79, 100
4, 148912, Note_on_c, 2, 79, 0
4, 148920, Note_on_c, 2, 82, 101
4, 148952, Note_on_c, 2, 82, 0
4, 148960, Note_on_c, 2, 79, 105
4, 148992, Note_on_c, 2, 79, 0
4, 149000, Note_on_c, 2, 76, 103
4, 149032, Note_on_c, 2, 76, 0
4, 149040, Note_on_c, 2, 77, 123
4, 149072, Note_on_c, 2, 77, 0
4, 149080, Note_on_c, 2, 69, 105
4, 149112, Note_on_c, 2, 69, 0
4, 149120, Note_on_c, 2, 72, 125
4, 149152, Note_on_c, 2, 72, 0
4, 149160, Note_on_c, 2, 77, 127
4, 149192, Note_on_c, 2, 77, 0
4, 149200, Note_on_c, 2, 81, 105
4, 149232, Note_on_c, 2, 81, 0
4, 149240, Note_on_c, 2, 84, 103
4, 149272, Note_on_c, 2, 84, 0
4, 149280, Note_on_c, 2, 70, 99
4, 149312, Note_on_c, 2, 70, 0
4, 149320, Note_on_c, 2, 76, 111
4, 149352, Note_on_c, 2, 76, 0
4, 149360, Note_on_c, 2, 79, 100
4, 149392, Note_on_c, 2, 79, 0
4, 149400, Note_on_c, 2, 82, 86
4, 149432, Note_on_c, 2, 82, 0
4, 149440, Note_on_c, 2, 79, 105
4, 149472, Note_on_c, 2, 79, 0
4, 149480, Note_on_c, 2, 76, 109
4, 149512, Note_on_c, 2, 76, 0
4, 149520, Note_on_c, 2, 77, 127
4, 149552, Note_on_c, 2, 77, 0
4, 149560, Note_on_c, 2, 69, 114
4, 149592, Note_on_c, 2, 69, 0
4, 149600, Note_on_c, 2, 72, 127
4, 149632, Note_on_c, 2, 72, 0
4, 149640, Note_on_c, 2, 77, 120
4, 149672, Note_on_c, 2, 77, 0
4, 149680, Note_on_c, 2, 81, 107
4, 149712, Note_on_c, 2, 81, 0
4, 149720, Note_on_c, 2, 84, 98
4, 149752, Note_on_c, 2, 84, 0
4, 149760, Note_on_c, 2, 70, 116
4, 149792, Note_on_c, 2, 70, 0
4, 149800, Note_on_c, 2, 76, 103
4, 149832, Note_on_c, 2, 76, 0
4, 149840, Note_on_c, 2, 79, 102
4, 149872, Note_on_c, 2, 79, 0
4, 149880, Note_on_c, 2, 82, 107
4, 149912, Note_on_c, 2, 82, 0
4, 149920, Note_on_c, 2, 79, 103
4, 149952, Note_on_c, 2, 79, 0
4, 149960, Note_on_c, 2, 76, 96
4, 149992, Note_on_c, 2, 76, 0
4, 150000, Note_on_c, 2, 77, 117
4, 150032, Note_on_c, 2, 77, 0
4, 150040, Note_on_c, 2, 69, 107
4, 150072, Note_on_c, 2, 69, 0
4, 150080, Note_on_c, 2, 72, 127
4, 150112, Note_on_c, 2, 72, 0
4, 150120, Note_on_c, 2, 77, 123
4, 150152, Note_on_c, 2, 77, 0
4, 150160, Note_on_c, 2, 81, 117
4, 150192, Note_on_c, 2, 81, 0
4, 150200, Note_on_c, 2, 84, 121
4, 150232, Note_on_c, 2, 84, 0
4, 150240, Note_on_c, 2, 77, 112
4, 150272, Note_on_c, 2, 77, 0
4, 150280, Note_on_c, 2, 69, 108
4, 150312, Note_on_c, 2, 69, 0
4, 150320, Note_on_c, 2, 72, 123
4, 150352, Note_on_c, 2, 72, 0
4, 150360, Note_on_c, 2, 77, 116
4, 150392, Note_on_c, 2, 77, 0
4, 150400, Note_on_c, 2, 81, 109
4, 150432, Note_on_c, 2, 81, 0
4, 150440, Note_on_c, 2, 84, 125
4, 150472, Note_on_c, 2, 84, 0
4, 150480, Note_on_c, 2, 77, 127
4, 150512, Note_on_c, 2, 77, 0
4, 150520, Note_on_c, 2, 69, 50
4, 150552, Note_on_c, 2, 69, 0
4, 150560, Note_on_c, 2, 72, 127
4, 150592, Note_on_c, 2, 72, 0
4, 150600, Note_on_c, 2, 77, 114
4, 150632, Note_on_c, 2, 77, 0
4, 150640, Note_on_c, 2, 81, 102
4, 150672, Note_on_c, 2, 81, 0
4, 150680, Note_on_c, 2, 84, 127
4, 150712, Note_on_c, 2, 84, 0
4, 150720, Note_on_c, 2, 77, 111
4, 150752, Note_on_c, 2, 77, 0
4, 150760, Note_on_c, 2, 69, 106
4, 150792, Note_on_c, 2, 69, 0
4, 150800, Note_on_c, 2, 72, 121
4, 150832, Note_on_c, 2, 72, 0
4, 150840, Note_on_c, 2, 77, 98
4, 150872, Note_on_c, 2, 77, 0
4, 150880, Note_on_c, 2, 81, 101
4, 150912, Note_on_c, 2, 81, 0
4, 150920, Note_on_c, 2, 84, 105
4, 150952, Note_on_c, 2, 84, 0
4, 150960, Note_on_c, 2, 77, 109
4, 151008, Note_on_c, 2, 77, 0
4, 153600, Note_on_c, 2, 70, 118
4, 153648, Note_on_c, 2, 70, 0
4, 153660, Note_on_c, 2, 72, 127
4, 153708, Note_on_c, 2, 72, 0
4, 153720, Note_on_c, 2, 74, 127
4, 153768, Note_on_c, 2, 74, 0
4, 153780, Note_on_c, 2, 76, 118
4, 153828, Note_on_c, 2, 76, 0
4, 153840, Note_on_c, 2, 77, 127
4, 153888, Note_on_c, 2, 77, 0
4, 154080, Note_on_c, 2, 70, 123
4, 154080, Note_on_c, 2, 58, 123
4, 154128, Note_on_c, 2, 58, 0
4, 154128, Note_on_c, 2, 70, 0
4, 154140, Note_on_c, 2, 72, 123
4, 154140, Note_on_c, 2, 60, 121
4, 154188, Note_on_c, 2, 60, 0
4, 154188, Note_on_c, 2, 72, 0
4, 154200, Note_on_c, 2, 62, 121
4, 154200, Note_on_c, 2, 74, 114
4, 154248, Note_on_c, 2, 74, 0
4, 154248, Note_on_c, 2, 62, 0
4, 154260, Note_on_c, 2, 64, 101
4, 154260, Note_on_c, 2, 76, 118
4, 154308, Note_on_c, 2, 76, 0
4, 154308, Note_on_c, 2, 64, 0
4, 154320, Note_on_c, 2, 77, 101
4, 154320, Note_on_c, 2, 65, 104
4, 154512, Note_on_c, 2, 65, 0
4, 154512, Note_on_c, 2, 77, 0
4, 154560, Note_on_c, 2, 67, 99
4, 154560, Note_on_c, 2, 76, 94
4, 154752, Note_on_c, 2, 76, 0
4, 154752, Note_on_c, 2, 67, 0
4, 154800, Note_on_c, 2, 77, 120
4, 154800, Note_on_c, 2, 69, 125
4, 154992, Note_on_c, 2, 69, 0
4, 154992, Note_on_c, 2, 77, 0
4, 155040, Note_on_c, 2, 72, 110
4, 155040, Note_on_c, 2, 77, 103
4, 155136, Note_on_c, 2, 77, 0
4, 155136, Note_on_c, 2, 72, 0
4, 155160, Note_on_c, 2, 77, 111
4, 155160, Note_on_c, 2, 72, 116
4, 155256, Note_on_c, 2, 72, 0
4, 155256, Note_on_c, 2, 77, 0
4, 155280, Note_on_c, 2, 77, 118
4, 155280, Note_on_c, 2, 69, 111
4, 155472, Note_on_c, 2, 69, 0
4, 155472, Note_on_c, 2, 77, 0
4, 155520, Note_on_c, 2, 65, 98
4, 155520, Note_on_c, 2, 69, 105
4, 155712, Note_on_c, 2, 69, 0
4, 155712, Note_on_c, 2, 65, 0
4, 155760, Note_on_c, 2, 69, 112
4, 155760, Note_on_c, 2, 65, 104
4, 155952, Note_on_c, 2, 65, 0
4, 155952, Note_on_c, 2, 69, 0
4, 155952, End_track
5, 0, Start_track
5, 0, MIDI_port, 0
5, 0, Title_t, "Bassoons"
5, 0, Program_c, 3, 70
5, 0, Control_c, 3, 7, 127
5, 4560, Note_on_c, 3, 60, 127
5, 4608, Note_on_c, 3, 60, 0
5, 4620, Note_on_c, 3, 55, 127
5, 4644, Note_on_c, 3, 55, 0
5, 4650, Note_on_c, 3, 57, 125
5, 4674, Note_on_c, 3, 57, 0
5, 4680, Note_on_c, 3, 58, 115
5, 4728, Note_on_c, 3, 58, 0
5, 4740, Note_on_c, 3, 59, 106
5, 4788, Note_on_c, 3, 59, 0
5, 4800, Note_on_c, 3, 60, 109
5, 4848, Note_on_c, 3, 60, 0
5, 7740, Note_on_c, 3, 53, 108
5, 7740, Note_on_c, 3, 57, 127
5, 7788, Note_on_c, 3, 57, 0
5, 7788, Note_on_c, 3, 53, 0
5, 7800, Note_on_c, 3, 58, 120
5, 7800, Note_on_c, 3, 55, 125
5, 7848, Note_on_c, 3, 55, 0
5, 7848, Note_on_c, 3, 58, 0
5, 7860, Note_on_c, 3, 62, 112
5, 7860, Note_on_c, 3, 58, 117
5, 7908, Note_on_c, 3, 58, 0
5, 7908, Note_on_c, 3, 62, 0
5, 7920, Note_on_c, 3, 57, 120
5, 7920, Note_on_c, 3, 60, 117
5, 7968, Note_on_c, 3, 60, 0
5, 7968, Note_on_c, 3, 57, 0
5, 7980, Note_on_c, 3, 58, 127
5, 7980, Note_on_c, 3, 55, 127
5, 8004, Note_on_c, 3, 55, 0
5, 8004, Note_on_c, 3, 58, 0
5, 8010, Note_on_c, 3, 57, 118
5, 8010, Note_on_c, 3, 53, 104
5, 8034, Note_on_c, 3, 53, 0
5, 8034, Note_on_c, 3, 57, 0
5, 8040, Note_on_c, 3, 52, 109
5, 8040, Note_on_c, 3, 55, 121
5, 8088, Note_on_c, 3, 55, 0
5, 8088, Note_on_c, 3, 52, 0
5, 8100, Note_on_c, 3, 48, 110
5, 8148, Note_on_c, 3, 48, 0
5, 8160, Note_on_c, 3, 53, 127
5, 8208, Note_on_c, 3, 53, 0
5, 8220, Note_on_c, 3, 55, 125
5, 8220, Note_on_c, 3, 52, 100
5, 8268, Note_on_c, 3, 52, 0
5, 8268, Note_on_c, 3, 55, 0
5, 8280, Note_on_c, 3, 57, 127
5, 8280, Note_on_c, 3, 53, 116
5, 8328, Note_on_c, 3, 53, 0
5, 8328, Note_on_c, 3, 57, 0
5, 8340, Note_on_c, 3, 58, 121
5, 8340, Note_on_c, 3, 55, 118
5, 8364, Note_on_c, 3, 55, 0
5, 8364, Note_on_c, 3, 58, 0
5, 8370, Note_on_c, 3, 57, 127
5, 8370, Note_on_c, 3, 53, 123
5, 8394, Note_on_c, 3, 53, 0
5, 8394, Note_on_c, 3, 57, 0
5, 8400, Note_on_c, 3, 55, 127
5, 8400, Note_on_c, 3, 52, 111
5, 8448, Note_on_c, 3, 52, 0
5, 8448, Note_on_c, 3, 55, 0
5, 8460, Note_on_c, 3, 53, 109
5, 8460, Note_on_c, 3, 57, 127
5, 8508, Note_on_c, 3, 57, 0
5, 8508, Note_on_c, 3, 53, 0
5, 8520, Note_on_c, 3, 55, 113
5, 8520, Note_on_c, 3, 58, 110
5, 8568, Note_on_c, 3, 58, 0
5, 8568, Note_on_c, 3, 55, 0
5, 8580, Note_on_c, 3, 60, 121
5, 8580, Note_on_c, 3, 57, 127
5, 8604, Note_on_c, 3, 57, 0
5, 8604, Note_on_c, 3, 60, 0
5, 8610, Note_on_c, 3, 58, 127
5, 8610, Note_on_c, 3, 55, 121
5, 8634, Note_on_c, 3, 55, 0
5, 8634, Note_on_c, 3, 58, 0
5, 8640, Note_on_c, 3, 53, 113
5, 8640, Note_on_c, 3, 57, 125
5, 8688, Note_on_c, 3, 57, 0
5, 8688, Note_on_c, 3, 53, 0
5, 8700, Note_on_c, 3, 53, 107
5, 8700, Note_on_c, 3, 60, 108
5, 8748, Note_on_c, 3, 60, 0
5, 8748, Note_on_c, 3, 53, 0
5, 8760, Note_on_c, 3, 53, 125
5, 8760, Note_on_c, 3, 60, 127
5, 8808, Note_on_c, 3, 60, 0
5, 8808, Note_on_c, 3, 53, 0
5, 8820, Note_on_c, 3, 60, 98
5, 8820, Note_on_c, 3, 53, 98
5, 8868, Note_on_c, 3, 53, 0
5, 8868, Note_on_c, 3, 60, 0
5, 8880, Note_on_c, 3, 60, 108
5, 8880, Note_on_c, 3, 53, 112
5, 8928, Note_on_c, 3, 53, 0
5, 8928, Note_on_c, 3, 60, 0
5, 8940, Note_on_c, 3, 60, 112
5, 8940, Note_on_c, 3, 53, 105
5, 8988, Note_on_c, 3, 53, 0
5, 8988, Note_on_c, 3, 60, 0
5, 9000, Note_on_c, 3, 60, 104
5, 9000, Note_on_c, 3, 53, 103
5, 9048, Note_on_c, 3, 53, 0
5, 9048, Note_on_c, 3, 60, 0
5, 9060, Note_on_c, 3, 53, 103
5, 9060, Note_on_c, 3, 60, 104
5, 9108, Note_on_c, 3, 60, 0
5, 9108, Note_on_c, 3, 53, 0
5, 9120, Note_on_c, 3, 60, 109
5, 9120, Note_on_c, 3, 53, 102
5, 9168, Note_on_c, 3, 53, 0
5, 9168, Note_on_c, 3, 60, 0
5, 9180, Note_on_c, 3, 53, 101
5, 9180, Note_on_c, 3, 60, 102
5, 9228, Note_on_c, 3, 60, 0
5, 9228, Note_on_c, 3, 53, 0
5, 9240, Note_on_c, 3, 60, 103
5, 9240, Note_on_c, 3, 53, 102
5, 9288, Note_on_c, 3, 53, 0
5, 9288, Note_on_c, 3, 60, 0
5, 9300, Note_on_c, 3, 53, 103
5, 9300, Note_on_c, 3, 60, 103
5, 9348, Note_on_c, 3, 60, 0
5, 9348, Note_on_c, 3, 53, 0
5, 9360, Note_on_c, 3, 60, 109
5, 9360, Note_on_c, 3, 53, 108
5, 9408, Note_on_c, 3, 53, 0
5, 9408, Note_on_c, 3, 60, 0
5, 9420, Note_on_c, 3, 53, 106
5, 9420, Note_on_c, 3, 60, 104
5, 9468, Note_on_c, 3, 60, 0
5, 9468, Note_on_c, 3, 53, 0
5, 9480, Note_on_c, 3, 53, 105
5, 9480, Note_on_c, 3, 60, 105
5, 9528, Note_on_c, 3, 60, 0
5, 9528, Note_on_c, 3, 53, 0
5, 9540, Note_on_c, 3, 53, 109
5, 9540, Note_on_c, 3, 60, 111
5, 9588, Note_on_c, 3, 60, 0
5, 9588, Note_on_c, 3, 53, 0
5, 9600, Note_on_c, 3, 53, 105
5, 9600, Note_on_c, 3, 60, 105
5, 9648, Note_on_c, 3, 60, 0
5, 9648, Note_on_c, 3, 53, 0
5, 9660, Note_on_c, 3, 57, 105
5, 9660, Note_on_c, 3, 60, 113
5, 9708, Note_on_c, 3, 60, 0
5, 9708, Note_on_c, 3, 57, 0
5, 9720, Note_on_c, 3, 57, 116
5, 9720, Note_on_c, 3, 60, 109
5, 9768, Note_on_c, 3, 60, 0
5, 9768, Note_on_c, 3, 57, 0
5, 9780, Note_on_c, 3, 57, 113
5, 9780, Note_on_c, 3, 60, 109
5, 9828, Note_on_c, 3, 60, 0
5, 9828, Note_on_c, 3, 57, 0
5, 9840, Note_on_c, 3, 57, 118
5, 9840, Note_on_c, 3, 60, 101
5, 9936, Note_on_c, 3, 60, 0
5, 9936, Note_on_c, 3, 57, 0
5, 9960, Note_on_c, 3, 57, 103
5, 9960, Note_on_c, 3, 53, 116
5, 10008, Note_on_c, 3, 53, 0
5, 10008, Note_on_c, 3, 57, 0
5, 10020, Note_on_c, 3, 53, 118
5, 10068, Note_on_c, 3, 53, 0
5, 10080, Note_on_c, 3, 58, 126
5, 10128, Note_on_c, 3, 58, 0
5, 10140, Note_on_c, 3, 57, 127
5, 10188, Note_on_c, 3, 57, 0
5, 10200, Note_on_c, 3, 55, 127
5, 10248, Note_on_c, 3, 55, 0
5, 10260, Note_on_c, 3, 53, 127
5, 10284, Note_on_c, 3, 53, 0
5, 10290, Note_on_c, 3, 55, 105
5, 10314, Note_on_c, 3, 55, 0
5, 10320, Note_on_c, 3, 57, 127
5, 10368, Note_on_c, 3, 57, 0
5, 10380, Note_on_c, 3, 55, 127
5, 10428, Note_on_c, 3, 55, 0
5, 10440, Note_on_c, 3, 53, 109
5, 10488, Note_on_c, 3, 53, 0
5, 10500, Note_on_c, 3, 52, 127
5, 10524, Note_on_c, 3, 52, 0
5, 10530, Note_on_c, 3, 53, 118
5, 10554, Note_on_c, 3, 53, 0
5, 10560, Note_on_c, 3, 55, 127
5, 10608, Note_on_c, 3, 55, 0
5, 10620, Note_on_c, 3, 52, 127
5, 10668, Note_on_c, 3, 52, 0
5, 10680, Note_on_c, 3, 48, 120
5, 10728, Note_on_c, 3, 48, 0
5, 10740, Note_on_c, 3, 52, 123
5, 10788, Note_on_c, 3, 52, 0
5, 10800, Note_on_c, 3, 55, 113
5, 10848, Note_on_c, 3, 55, 0
5, 10860, Note_on_c, 3, 52, 114
5, 10908, Note_on_c, 3, 52, 0
5, 10920, Note_on_c, 3, 48, 112
5, 10968, Note_on_c, 3, 48, 0
5, 10980, Note_on_c, 3, 60, 105
5, 11028, Note_on_c, 3, 60, 0
5, 11040, Note_on_c, 3, 57, 127
5, 11088, Note_on_c, 3, 57, 0
5, 11100, Note_on_c, 3, 55, 114
5, 11148, Note_on_c, 3, 55, 0
5, 11160, Note_on_c, 3, 53, 123
5, 11208, Note_on_c, 3, 53, 0
5, 11220, Note_on_c, 3, 52, 104
5, 11244, Note_on_c, 3, 52, 0
5, 11250, Note_on_c, 3, 53, 86
5, 11274, Note_on_c, 3, 53, 0
5, 11280, Note_on_c, 3, 55, 116
5, 11328, Note_on_c, 3, 55, 0
5, 11340, Note_on_c, 3, 52, 120
5, 11388, Note_on_c, 3, 52, 0
5, 11400, Note_on_c, 3, 55, 107
5, 11448, Note_on_c, 3, 55, 0
5, 11460, Note_on_c, 3, 48, 99
5, 11508, Note_on_c, 3, 48, 0
5, 11520, Note_on_c, 3, 57, 114
5, 11568, Note_on_c, 3, 57, 0
5, 11580, Note_on_c, 3, 55, 127
5, 11628, Note_on_c, 3, 55, 0
5, 11640, Note_on_c, 3, 53, 112
5, 11688, Note_on_c, 3, 53, 0
5, 11700, Note_on_c, 3, 52, 102
5, 11724, Note_on_c, 3, 52, 0
5, 11730, Note_on_c, 3, 53, 112
5, 11754, Note_on_c, 3, 53, 0
5, 11760, Note_on_c, 3, 55, 127
5, 11808, Note_on_c, 3, 55, 0
5, 11820, Note_on_c, 3, 48, 120
5, 11868, Note_on_c, 3, 48, 0
5, 11880, Note_on_c, 3, 55, 118
5, 11928, Note_on_c, 3, 55, 0
5, 11940, Note_on_c, 3, 48, 109
5, 11988, Note_on_c, 3, 48, 0
5, 12000, Note_on_c, 3, 53, 107
5, 12048, Note_on_c, 3, 53, 0
5, 12060, Note_on_c, 3, 55, 127
5, 12060, Note_on_c, 3, 58, 103
5, 12108, Note_on_c, 3, 58, 0
5, 12108, Note_on_c, 3, 55, 0
5, 12120, Note_on_c, 3, 48, 114
5, 12120, Note_on_c, 3, 55, 97
5, 12168, Note_on_c, 3, 55, 0
5, 12168, Note_on_c, 3, 48, 0
5, 12180, Note_on_c, 3, 58, 99
5, 12180, Note_on_c, 3, 55, 127
5, 12228, Note_on_c, 3, 55, 0
5, 12228, Note_on_c, 3, 58, 0
5, 12240, Note_on_c, 3, 57, 98
5, 12240, Note_on_c, 3, 53, 117
5, 12288, Note_on_c, 3, 53, 0
5, 12288, Note_on_c, 3, 57, 0
5, 12300, Note_on_c, 3, 58, 91
5, 12300, Note_on_c, 3, 55, 127
5, 12348, Note_on_c, 3, 55, 0
5, 12348, Note_on_c, 3, 58, 0
5, 12360, Note_on_c, 3, 48, 113
5, 12360, Note_on_c, 3, 55, 121
5, 12408, Note_on_c, 3, 55, 0
5, 12408, Note_on_c, 3, 48, 0
5, 12420, Note_on_c, 3, 58, 103
5, 12420, Note_on_c, 3, 55, 127
5, 12468, Note_on_c, 3, 55, 0
5, 12468, Note_on_c, 3, 58, 0
5, 12480, Note_on_c, 3, 53, 120
5, 12480, Note_on_c, 3, 57, 113
5, 12512, Note_on_c, 3, 57, 0
5, 12512, Note_on_c, 3, 53, 0
5, 12520, Note_on_c, 3, 57, 111
5, 12520, Note_on_c, 3, 53, 121
5, 12552, Note_on_c, 3, 53, 0
5, 12552, Note_on_c, 3, 57, 0
5, 12560, Note_on_c, 3, 57, 112
5, 12560, Note_on_c, 3, 53, 121
5, 12592, Note_on_c, 3, 53, 0
5, 12592, Note_on_c, 3, 57, 0
5, 12600, Note_on_c, 3, 57, 113
5, 12600, Note_on_c, 3, 53, 114
5, 12632, Note_on_c, 3, 53, 0
5, 12632, Note_on_c, 3, 57, 0
5, 12640, Note_on_c, 3, 53, 123
5, 12640, Note_on_c, 3, 57, 113
5, 12672, Note_on_c, 3, 57, 0
5, 12672, Note_on_c, 3, 53, 0
5, 12680, Note_on_c, 3, 53, 127
5, 12680, Note_on_c, 3, 57, 118
5, 12712, Note_on_c, 3, 57, 0
5, 12712, Note_on_c, 3, 53, 0
5, 12720, Note_on_c, 3, 57, 109
5, 12720, Note_on_c, 3, 53, 112
5, 12768, Note_on_c, 3, 53, 0
5, 12768, Note_on_c, 3, 57, 0
5, 13440, Note_on_c, 3, 57, 109
5, 13440, Note_on_c, 3, 50, 108
5, 13472, Note_on_c, 3, 50, 0
5, 13472, Note_on_c, 3, 57, 0
5, 13480, Note_on_c, 3, 57, 109
5, 13480, Note_on_c, 3, 50, 106
5, 13512, Note_on_c, 3, 50, 0
5, 13512, Note_on_c, 3, 57, 0
5, 13520, Note_on_c, 3, 57, 116
5, 13520, Note_on_c, 3, 50, 116
5, 13552, Note_on_c, 3, 50, 0
5, 13552, Note_on_c, 3, 57, 0
5, 13560, Note_on_c, 3, 57, 108
5, 13560, Note_on_c, 3, 50, 112
5, 13592, Note_on_c, 3, 50, 0
5, 13592, Note_on_c, 3, 57, 0
5, 13600, Note_on_c, 3, 57, 112
5, 13600, Note_on_c, 3, 50, 114
5, 13632, Note_on_c, 3, 50, 0
5, 13632, Note_on_c, 3, 57, 0
5, 13640, Note_on_c, 3, 57, 114
5, 13640, Note_on_c, 3, 50, 110
5, 13672, Note_on_c, 3, 50, 0
5, 13672, Note_on_c, 3, 57, 0
5, 13680, Note_on_c, 3, 50, 109
5, 13680, Note_on_c, 3, 57, 104
5, 13728, Note_on_c, 3, 57, 0
5, 13728, Note_on_c, 3, 50, 0
5, 14400, Note_on_c, 3, 57, 105
5, 14400, Note_on_c, 3, 48, 111
5, 14432, Note_on_c, 3, 48, 0
5, 14432, Note_on_c, 3, 57, 0
5, 14440, Note_on_c, 3, 48, 116
5, 14440, Note_on_c, 3, 57, 111
5, 14472, Note_on_c, 3, 57, 0
5, 14472, Note_on_c, 3, 48, 0
5, 14480, Note_on_c, 3, 48, 118
5, 14480, Note_on_c, 3, 57, 108
5, 14512, Note_on_c, 3, 57, 0
5, 14512, Note_on_c, 3, 48, 0
5, 14520, Note_on_c, 3, 57, 104
5, 14520, Note_on_c, 3, 48, 106
5, 14552, Note_on_c, 3, 48, 0
5, 14552, Note_on_c, 3, 57, 0
5, 14560, Note_on_c, 3, 48, 109
5, 14560, Note_on_c, 3, 57, 106
5, 14592, Note_on_c, 3, 57, 0
5, 14592, Note_on_c, 3, 48, 0
5, 14600, Note_on_c, 3, 57, 104
5, 14600, Note_on_c, 3, 48, 114
5, 14632, Note_on_c, 3, 48, 0
5, 14632, Note_on_c, 3, 57, 0
5, 14640, Note_on_c, 3, 57, 98
5, 14640, Note_on_c, 3, 48, 107
5, 14688, Note_on_c, 3, 48, 0
5, 14688, Note_on_c, 3, 57, 0
5, 14880, Note_on_c, 3, 62, 108
5, 14880, Note_on_c, 3, 59, 116
5, 14912, Note_on_c, 3, 59, 0
5, 14912, Note_on_c, 3, 62, 0
5, 14920, Note_on_c, 3, 59, 116
5, 14920, Note_on_c, 3, 62, 103
5, 14952, Note_on_c, 3, 62, 0
5, 14952, Note_on_c, 3, 59, 0
5, 14960, Note_on_c, 3, 62, 103
5, 14960, Note_on_c, 3, 59, 114
5, 14992, Note_on_c, 3, 59, 0
5, 14992, Note_on_c, 3, 62, 0
5, 15000, Note_on_c, 3, 59, 110
5, 15000, Note_on_c, 3, 62, 105
5, 15032, Note_on_c, 3, 62, 0
5, 15032, Note_on_c, 3, 59, 0
5, 15040, Note_on_c, 3, 59, 105
5, 15040, Note_on_c, 3, 62, 106
5, 15072, Note_on_c, 3, 62, 0
5, 15072, Note_on_c, 3, 59, 0
5, 15080, Note_on_c, 3, 59, 113
5, 15080, Note_on_c, 3, 62, 103
5, 15112, Note_on_c, 3, 62, 0
5, 15112, Note_on_c, 3, 59, 0
5, 15120, Note_on_c, 3, 62, 99
5, 15120, Note_on_c, 3, 59, 109
5, 15168, Note_on_c, 3, 59, 0
5, 15168, Note_on_c, 3, 62, 0
5, 20160, Note_on_c, 3, 69, 125
5, 20208, Note_on_c, 3, 69, 0
5, 20220, Note_on_c, 3, 67, 96
5, 20268, Note_on_c, 3, 67, 0
5, 20280, Note_on_c, 3, 64, 127
5, 20328, Note_on_c, 3, 64, 0
5, 20340, Note_on_c, 3, 60, 127
5, 20388, Note_on_c, 3, 60, 0
5, 20400, Note_on_c, 3, 55, 85
5, 20448, Note_on_c, 3, 55, 0
5, 20460, Note_on_c, 3, 64, 127
5, 20508, Note_on_c, 3, 64, 0
5, 20520, Note_on_c, 3, 60, 114
5, 20568, Note_on_c, 3, 60, 0
5, 20580, Note_on_c, 3, 55, 111
5, 20628, Note_on_c, 3, 55, 0
5, 20640, Note_on_c, 3, 69, 127
5, 20688, Note_on_c, 3, 69, 0
5, 20700, Note_on_c, 3, 67, 107
5, 20748, Note_on_c, 3, 67, 0
5, 20760, Note_on_c, 3, 65, 125
5, 20808, Note_on_c, 3, 65, 0
5, 20820, Note_on_c, 3, 62, 107
5, 20868, Note_on_c, 3, 62, 0
5, 20880, Note_on_c, 3, 55, 107
5, 20928, Note_on_c, 3, 55, 0
5, 20940, Note_on_c, 3, 65, 111
5, 20988, Note_on_c, 3, 65, 0
5, 21000, Note_on_c, 3, 62, 110
5, 21048, Note_on_c, 3, 62, 0
5, 21060, Note_on_c, 3, 55, 115
5, 21108, Note_on_c, 3, 55, 0
5, 21120, Note_on_c, 3, 69, 104
5, 21168, Note_on_c, 3, 69, 0
5, 21180, Note_on_c, 3, 67, 94
5, 21228, Note_on_c, 3, 67, 0
5, 21240, Note_on_c, 3, 64, 107
5, 21288, Note_on_c, 3, 64, 0
5, 21300, Note_on_c, 3, 60, 111
5, 21348, Note_on_c, 3, 60, 0
5, 21360, Note_on_c, 3, 55, 113
5, 21408, Note_on_c, 3, 55, 0
5, 21420, Note_on_c, 3, 64, 127
5, 21468, Note_on_c, 3, 64, 0
5, 21480, Note_on_c, 3, 60, 123
5, 21528, Note_on_c, 3, 60, 0
5, 21540, Note_on_c, 3, 55, 81
5, 21588, Note_on_c, 3, 55, 0
5, 21600, Note_on_c, 3, 69, 105
5, 21648, Note_on_c, 3, 69, 0
5, 21660, Note_on_c, 3, 67, 107
5, 21708, Note_on_c, 3, 67, 0
5, 21720, Note_on_c, 3, 65, 117
5, 21768, Note_on_c, 3, 65, 0
5, 21780, Note_on_c, 3, 62, 95
5, 21828, Note_on_c, 3, 62, 0
5, 21840, Note_on_c, 3, 55, 97
5, 21888, Note_on_c, 3, 55, 0
5, 21900, Note_on_c, 3, 65, 120
5, 21948, Note_on_c, 3, 65, 0
5, 21960, Note_on_c, 3, 62, 113
5, 22008, Note_on_c, 3, 62, 0
5, 22020, Note_on_c, 3, 55, 101
5, 22068, Note_on_c, 3, 55, 0
5, 22080, Note_on_c, 3, 64, 117
5, 22080, Note_on_c, 3, 60, 111
5, 22128, Note_on_c, 3, 60, 0
5, 22128, Note_on_c, 3, 64, 0
5, 22800, Note_on_c, 3, 50, 113
5, 22800, Note_on_c, 3, 53, 127
5, 22848, Note_on_c, 3, 53, 0
5, 22848, Note_on_c, 3, 50, 0
5, 23280, Note_on_c, 3, 64, 125
5, 23280, Note_on_c, 3, 67, 121
5, 23376, Note_on_c, 3, 67, 0
5, 23376, Note_on_c, 3, 64, 0
5, 23400, Note_on_c, 3, 65, 110
5, 23400, Note_on_c, 3, 62, 116
5, 23448, Note_on_c, 3, 62, 0
5, 23448, Note_on_c, 3, 65, 0
5, 23460, Note_on_c, 3, 60, 100
5, 23460, Note_on_c, 3, 64, 118
5, 23508, Note_on_c, 3, 64, 0
5, 23508, Note_on_c, 3, 60, 0
5, 23520, Note_on_c, 3, 60, 111
5, 23520, Note_on_c, 3, 64, 117
5, 23568, Note_on_c, 3, 64, 0
5, 23568, Note_on_c, 3, 60, 0
5, 23580, Note_on_c, 3, 62, 98
5, 23580, Note_on_c, 3, 59, 99
5, 23628, Note_on_c, 3, 59, 0
5, 23628, Note_on_c, 3, 62, 0
5, 23640, Note_on_c, 3, 57, 104
5, 23640, Note_on_c, 3, 60, 107
5, 23688, Note_on_c, 3, 60, 0
5, 23688, Note_on_c, 3, 57, 0
5, 23700, Note_on_c, 3, 59, 103
5, 23700, Note_on_c, 3, 62, 107
5, 23748, Note_on_c, 3, 62, 0
5, 23748, Note_on_c, 3, 59, 0
5, 23760, Note_on_c, 3, 64, 125
5, 23760, Note_on_c, 3, 60, 116
5, 23808, Note_on_c, 3, 60, 0
5, 23808, Note_on_c, 3, 64, 0
5, 24480, Note_on_c, 3, 53, 125
5, 24480, Note_on_c, 3, 57, 113
5, 24528, Note_on_c, 3, 57, 0
5, 24528, Note_on_c, 3, 53, 0
5, 24720, Note_on_c, 3, 57, 112
5, 24720, Note_on_c, 3, 60, 127
5, 24816, Note_on_c, 3, 60, 0
5, 24816, Note_on_c, 3, 57, 0
5, 24840, Note_on_c, 3, 55, 104
5, 24840, Note_on_c, 3, 59, 118
5, 24888, Note_on_c, 3, 59, 0
5, 24888, Note_on_c, 3, 55, 0
5, 24900, Note_on_c, 3, 57, 120
5, 24900, Note_on_c, 3, 53, 109
5, 24948, Note_on_c, 3, 53, 0
5, 24948, Note_on_c, 3, 57, 0
5, 24960, Note_on_c, 3, 55, 121
5, 24960, Note_on_c, 3, 52, 121
5, 25056, Note_on_c, 3, 52, 0
5, 25056, Note_on_c, 3, 55, 0
5, 25080, Note_on_c, 3, 53, 120
5, 25080, Note_on_c, 3, 50, 121
5, 25128, Note_on_c, 3, 50, 0
5, 25128, Note_on_c, 3, 53, 0
5, 25140, Note_on_c, 3, 48, 98
5, 25140, Note_on_c, 3, 52, 106
5, 25188, Note_on_c, 3, 52, 0
5, 25188, Note_on_c, 3, 48, 0
5, 25200, Note_on_c, 3, 50, 121
5, 25200, Note_on_c, 3, 47, 109
5, 25296, Note_on_c, 3, 47, 0
5, 25296, Note_on_c, 3, 50, 0
5, 25320, Note_on_c, 3, 48, 127
5, 25320, Note_on_c, 3, 45, 120
5, 25368, Note_on_c, 3, 45, 0
5, 25368, Note_on_c, 3, 48, 0
5, 25380, Note_on_c, 3, 47, 105
5, 25380, Note_on_c, 3, 50, 120
5, 25428, Note_on_c, 3, 50, 0
5, 25428, Note_on_c, 3, 47, 0
5, 25440, Note_on_c, 3, 52, 121
5, 25440, Note_on_c, 3, 48, 116
5, 25488, Note_on_c, 3, 48, 0
5, 25488, Note_on_c, 3, 52, 0
5, 25500, Note_on_c, 3, 48, 116
5, 25500, Note_on_c, 3, 52, 123
5, 25548, Note_on_c, 3, 52, 0
5, 25548, Note_on_c, 3, 48, 0
5, 25560, Note_on_c, 3, 50, 105
5, 25560, Note_on_c, 3, 53, 109
5, 25608, Note_on_c, 3, 53, 0
5, 25608, Note_on_c, 3, 50, 0
5, 25620, Note_on_c, 3, 55, 104
5, 25620, Note_on_c, 3, 52, 117
5, 25668, Note_on_c, 3, 52, 0
5, 25668, Note_on_c, 3, 55, 0
5, 25680, Note_on_c, 3, 53, 110
5, 25680, Note_on_c, 3, 57, 118
5, 25728, Note_on_c, 3, 57, 0
5, 25728, Note_on_c, 3, 53, 0
5, 25740, Note_on_c, 3, 57, 117
5, 25740, Note_on_c, 3, 60, 123
5, 25788, Note_on_c, 3, 60, 0
5, 25788, Note_on_c, 3, 57, 0
5, 25800, Note_on_c, 3, 55, 104
5, 25800, Note_on_c, 3, 59, 112
5, 25848, Note_on_c, 3, 59, 0
5, 25848, Note_on_c, 3, 55, 0
5, 25860, Note_on_c, 3, 57, 106
5, 25860, Note_on_c, 3, 53, 117
5, 25908, Note_on_c, 3, 53, 0
5, 25908, Note_on_c, 3, 57, 0
5, 25920, Note_on_c, 3, 55, 114
5, 25920, Note_on_c, 3, 52, 107
5, 25968, Note_on_c, 3, 52, 0
5, 25968, Note_on_c, 3, 55, 0
5, 25980, Note_on_c, 3, 55, 107
5, 25980, Note_on_c, 3, 52, 107
5, 26028, Note_on_c, 3, 52, 0
5, 26028, Note_on_c, 3, 55, 0
5, 26040, Note_on_c, 3, 53, 106
5, 26040, Note_on_c, 3, 50, 113
5, 26088, Note_on_c, 3, 50, 0
5, 26088, Note_on_c, 3, 53, 0
5, 26100, Note_on_c, 3, 52, 108
5, 26100, Note_on_c, 3, 48, 105
5, 26148, Note_on_c, 3, 48, 0
5, 26148, Note_on_c, 3, 52, 0
5, 26160, Note_on_c, 3, 47, 107
5, 26160, Note_on_c, 3, 50, 125
5, 26256, Note_on_c, 3, 50, 0
5, 26256, Note_on_c, 3, 47, 0
5, 26280, Note_on_c, 3, 48, 123
5, 26280, Note_on_c, 3, 45, 99
5, 26328, Note_on_c, 3, 45, 0
5, 26328, Note_on_c, 3, 48, 0
5, 26340, Note_on_c, 3, 47, 120
5, 26340, Note_on_c, 3, 50, 127
5, 26388, Note_on_c, 3, 50, 0
5, 26388, Note_on_c, 3, 47, 0
5, 26400, Note_on_c, 3, 52, 127
5, 26400, Note_on_c, 3, 48, 127
5, 26448, Note_on_c, 3, 48, 0
5, 26448, Note_on_c, 3, 52, 0
5, 26520, Note_on_c, 3, 52, 127
5, 26520, Note_on_c, 3, 55, 99
5, 26568, Note_on_c, 3, 55, 0
5, 26568, Note_on_c, 3, 52, 0
5, 26640, Note_on_c, 3, 57, 109
5, 26640, Note_on_c, 3, 53, 121
5, 26688, Note_on_c, 3, 53, 0
5, 26688, Note_on_c, 3, 57, 0
5, 26760, Note_on_c, 3, 57, 111
5, 26760, Note_on_c, 3, 53, 103
5, 26808, Note_on_c, 3, 53, 0
5, 26808, Note_on_c, 3, 57, 0
5, 26880, Note_on_c, 3, 55, 99
5, 26880, Note_on_c, 3, 52, 114
5, 26928, Note_on_c, 3, 52, 0
5, 26928, Note_on_c, 3, 55, 0
5, 27000, Note_on_c, 3, 60, 96
5, 27000, Note_on_c, 3, 52, 106
5, 27048, Note_on_c, 3, 52, 0
5, 27048, Note_on_c, 3, 60, 0
5, 27120, Note_on_c, 3, 59, 103
5, 27120, Note_on_c, 3, 50, 117
5, 27168, Note_on_c, 3, 50, 0
5, 27168, Note_on_c, 3, 59, 0
5, 27240, Note_on_c, 3, 59, 107
5, 27240, Note_on_c, 3, 50, 127
5, 27288, Note_on_c, 3, 50, 0
5, 27288, Note_on_c, 3, 59, 0
5, 27360, Note_on_c, 3, 60, 120
5, 27360, Note_on_c, 3, 48, 116
5, 27456, Note_on_c, 3, 48, 0
5, 27456, Note_on_c, 3, 60, 0
5, 27480, Note_on_c, 3, 43, 114
5, 27480, Note_on_c, 3, 55, 103
5, 27792, Note_on_c, 3, 55, 0
5, 27792, Note_on_c, 3, 43, 0
5, 27840, Note_on_c, 3, 64, 110
5, 27840, Note_on_c, 3, 52, 120
5, 27936, Note_on_c, 3, 52, 0
5, 27936, Note_on_c, 3, 64, 0
5, 27960, Note_on_c, 3, 48, 114
5, 27960, Note_on_c, 3, 60, 109
5, 28272, Note_on_c, 3, 60, 0
5, 28272, Note_on_c, 3, 48, 0
5, 28320, Note_on_c, 3, 48, 106
5, 28320, Note_on_c, 3, 60, 116
5, 28416, Note_on_c, 3, 60, 0
5, 28416, Note_on_c, 3, 48, 0
5, 28440, Note_on_c, 3, 55, 107
5, 28440, Note_on_c, 3, 43, 102
5, 28752, Note_on_c, 3, 43, 0
5, 28752, Note_on_c, 3, 55, 0
5, 28800, Note_on_c, 3, 64, 109
5, 28800, Note_on_c, 3, 52, 109
5, 28896, Note_on_c, 3, 52, 0
5, 28896, Note_on_c, 3, 64, 0
5, 28920, Note_on_c, 3, 48, 100
5, 28920, Note_on_c, 3, 60, 107
5, 29232, Note_on_c, 3, 60, 0
5, 29232, Note_on_c, 3, 48, 0
5, 29280, Note_on_c, 3, 60, 112
5, 29280, Note_on_c, 3, 48, 107
5, 29376, Note_on_c, 3, 48, 0
5, 29376, Note_on_c, 3, 60, 0
5, 29400, Note_on_c, 3, 55, 111
5, 29400, Note_on_c, 3, 43, 105
5, 29496, Note_on_c, 3, 43, 0
5, 29496, Note_on_c, 3, 55, 0
5, 29520, Note_on_c, 3, 48, 110
5, 29520, Note_on_c, 3, 60, 112
5, 29616, Note_on_c, 3, 60, 0
5, 29616, Note_on_c, 3, 48, 0
5, 29640, Note_on_c, 3, 43, 123
5, 29640, Note_on_c, 3, 55, 109
5, 29736, Note_on_c, 3, 55, 0
5, 29736, Note_on_c, 3, 43, 0
5, 29760, Note_on_c, 3, 48, 101
5, 29760, Note_on_c, 3, 60, 121
5, 29856, Note_on_c, 3, 60, 0
5, 29856, Note_on_c, 3, 48, 0
5, 29880, Note_on_c, 3, 43, 105
5, 29880, Note_on_c, 3, 55, 109
5, 29976, Note_on_c, 3, 55, 0
5, 29976, Note_on_c, 3, 43, 0
5, 30000, Note_on_c, 3, 48, 106
5, 30000, Note_on_c, 3, 60, 105
5, 30096, Note_on_c, 3, 60, 0
5, 30096, Note_on_c, 3, 48, 0
5, 30120, Note_on_c, 3, 55, 111
5, 30120, Note_on_c, 3, 43, 109
5, 30216, Note_on_c, 3, 43, 0
5, 30216, Note_on_c, 3, 55, 0
5, 30240, Note_on_c, 3, 60, 103
5, 30240, Note_on_c, 3, 48, 104
5, 30288, Note_on_c, 3, 48, 0
5, 30288, Note_on_c, 3, 60, 0
5, 37680, Note_on_c, 3, 60, 127
5, 37728, Note_on_c, 3, 60, 0
5, 37740, Note_on_c, 3, 55, 127
5, 37764, Note_on_c, 3, 55, 0
5, 37770, Note_on_c, 3, 57, 125
5, 37794, Note_on_c, 3, 57, 0
5, 37800, Note_on_c, 3, 58, 115
5, 37848, Note_on_c, 3, 58, 0
5, 37860, Note_on_c, 3, 59, 106
5, 37908, Note_on_c, 3, 59, 0
5, 37920, Note_on_c, 3, 60, 109
5, 37968, Note_on_c, 3, 60, 0
5, 40860, Note_on_c, 3, 53, 108
5, 40860, Note_on_c, 3, 57, 127
5, 40908, Note_on_c, 3, 57, 0
5, 40908, Note_on_c, 3, 53, 0
5, 40920, Note_on_c, 3, 58, 120
5, 40920, Note_on_c, 3, 55, 125
5, 40968, Note_on_c, 3, 55, 0
5, 40968, Note_on_c, 3, 58, 0
5, 40980, Note_on_c, 3, 62, 112
5, 40980, Note_on_c, 3, 58, 117
5, 41028, Note_on_c, 3, 58, 0
5, 41028, Note_on_c, 3, 62, 0
5, 41040, Note_on_c, 3, 57, 120
5, 41040, Note_on_c, 3, 60, 117
5, 41088, Note_on_c, 3, 60, 0
5, 41088, Note_on_c, 3, 57, 0
5, 41100, Note_on_c, 3, 58, 127
5, 41100, Note_on_c, 3, 55, 127
5, 41124, Note_on_c, 3, 55, 0
5, 41124, Note_on_c, 3, 58, 0
5, 41130, Note_on_c, 3, 57, 118
5, 41130, Note_on_c, 3, 53, 104
5, 41154, Note_on_c, 3, 53, 0
5, 41154, Note_on_c, 3, 57, 0
5, 41160, Note_on_c, 3, 52, 109
5, 41160, Note_on_c, 3, 55, 121
5, 41208, Note_on_c, 3, 55, 0
5, 41208, Note_on_c, 3, 52, 0
5, 41220, Note_on_c, 3, 48, 110
5, 41268, Note_on_c, 3, 48, 0
5, 41280, Note_on_c, 3, 53, 127
5, 41328, Note_on_c, 3, 53, 0
5, 41340, Note_on_c, 3, 55, 125
5, 41340, Note_on_c, 3, 52, 100
5, 41388, Note_on_c, 3, 52, 0
5, 41388, Note_on_c, 3, 55, 0
5, 41400, Note_on_c, 3, 57, 127
5, 41400, Note_on_c, 3, 53, 116
5, 41448, Note_on_c, 3, 53, 0
5, 41448, Note_on_c, 3, 57, 0
5, 41460, Note_on_c, 3, 58, 121
5, 41460, Note_on_c, 3, 55, 118
5, 41484, Note_on_c, 3, 55, 0
5, 41484, Note_on_c, 3, 58, 0
5, 41490, Note_on_c, 3, 57, 127
5, 41490, Note_on_c, 3, 53, 123
5, 41514, Note_on_c, 3, 53, 0
5, 41514, Note_on_c, 3, 57, 0
5, 41520, Note_on_c, 3, 55, 127
5, 41520, Note_on_c, 3, 52, 111
5, 41568, Note_on_c, 3, 52, 0
5, 41568, Note_on_c, 3, 55, 0
5, 41580, Note_on_c, 3, 53, 109
5, 41580, Note_on_c, 3, 57, 127
5, 41628, Note_on_c, 3, 57, 0
5, 41628, Note_on_c, 3, 53, 0
5, 41640, Note_on_c, 3, 55, 113
5, 41640, Note_on_c, 3, 58, 110
5, 41688, Note_on_c, 3, 58, 0
5, 41688, Note_on_c, 3, 55, 0
5, 41700, Note_on_c, 3, 60, 121
5, 41700, Note_on_c, 3, 57, 127
5, 41724, Note_on_c, 3, 57, 0
5, 41724, Note_on_c, 3, 60, 0
5, 41730, Note_on_c, 3, 58, 127
5, 41730, Note_on_c, 3, 55, 121
5, 41754, Note_on_c, 3, 55, 0
5, 41754, Note_on_c, 3, 58, 0
5, 41760, Note_on_c, 3, 53, 113
5, 41760, Note_on_c, 3, 57, 125
5, 41808, Note_on_c, 3, 57, 0
5, 41808, Note_on_c, 3, 53, 0
5, 41820, Note_on_c, 3, 53, 107
5, 41820, Note_on_c, 3, 60, 108
5, 41868, Note_on_c, 3, 60, 0
5, 41868, Note_on_c, 3, 53, 0
5, 41880, Note_on_c, 3, 53, 125
5, 41880, Note_on_c, 3, 60, 127
5, 41928, Note_on_c, 3, 60, 0
5, 41928, Note_on_c, 3, 53, 0
5, 41940, Note_on_c, 3, 60, 98
5, 41940, Note_on_c, 3, 53, 98
5, 41988, Note_on_c, 3, 53, 0
5, 41988, Note_on_c, 3, 60, 0
5, 42000, Note_on_c, 3, 60, 108
5, 42000, Note_on_c, 3, 53, 112
5, 42048, Note_on_c, 3, 53, 0
5, 42048, Note_on_c, 3, 60, 0
5, 42060, Note_on_c, 3, 60, 112
5, 42060, Note_on_c, 3, 53, 105
5, 42108, Note_on_c, 3, 53, 0
5, 42108, Note_on_c, 3, 60, 0
5, 42120, Note_on_c, 3, 60, 104
5, 42120, Note_on_c, 3, 53, 103
5, 42168, Note_on_c, 3, 53, 0
5, 42168, Note_on_c, 3, 60, 0
5, 42180, Note_on_c, 3, 53, 103
5, 42180, Note_on_c, 3, 60, 104
5, 42228, Note_on_c, 3, 60, 0
5, 42228, Note_on_c, 3, 53, 0
5, 42240, Note_on_c, 3, 60, 109
5, 42240, Note_on_c, 3, 53, 102
5, 42288, Note_on_c, 3, 53, 0
5, 42288, Note_on_c, 3, 60, 0
5, 42300, Note_on_c, 3, 53, 101
5, 42300, Note_on_c, 3, 60, 102
5, 42348, Note_on_c, 3, 60, 0
5, 42348, Note_on_c, 3, 53, 0
5, 42360, Note_on_c, 3, 60, 103
5, 42360, Note_on_c, 3, 53, 102
5, 42408, Note_on_c, 3, 53, 0
5, 42408, Note_on_c, 3, 60, 0
5, 42420, Note_on_c, 3, 53, 103
5, 42420, Note_on_c, 3, 60, 103
5, 42468, Note_on_c, 3, 60, 0
5, 42468, Note_on_c, 3, 53, 0
5, 42480, Note_on_c, 3, 60, 109
5, 42480, Note_on_c, 3, 53, 108
5, 42528, Note_on_c, 3, 53, 0
5, 42528, Note_on_c, 3, 60, 0
5, 42540, Note_on_c, 3, 53, 106
5, 42540, Note_on_c, 3, 60, 104
5, 42588, Note_on_c, 3, 60, 0
5, 42588, Note_on_c, 3, 53, 0
5, 42600, Note_on_c, 3, 53, 105
5, 42600, Note_on_c, 3, 60, 105
5, 42648, Note_on_c, 3, 60, 0
5, 42648, Note_on_c, 3, 53, 0
5, 42660, Note_on_c, 3, 53, 109
5, 42660, Note_on_c, 3, 60, 111
5, 42708, Note_on_c, 3, 60, 0
5, 42708, Note_on_c, 3, 53, 0
5, 42720, Note_on_c, 3, 53, 105
5, 42720, Note_on_c, 3, 60, 105
5, 42768, Note_on_c, 3, 60, 0
5, 42768, Note_on_c, 3, 53, 0
5, 42780, Note_on_c, 3, 57, 105
5, 42780, Note_on_c, 3, 60, 113
5, 42828, Note_on_c, 3, 60, 0
5, 42828, Note_on_c, 3, 57, 0
5, 42840, Note_on_c, 3, 57, 116
5, 42840, Note_on_c, 3, 60, 109
5, 42888, Note_on_c, 3, 60, 0
5, 42888, Note_on_c, 3, 57, 0
5, 42900, Note_on_c, 3, 57, 113
5, 42900, Note_on_c, 3, 60, 109
5, 42948, Note_on_c, 3, 60, 0
5, 42948, Note_on_c, 3, 57, 0
5, 42960, Note_on_c, 3, 57, 118
5, 42960, Note_on_c, 3, 60, 101
5, 43056, Note_on_c, 3, 60, 0
5, 43056, Note_on_c, 3, 57, 0
5, 43080, Note_on_c, 3, 57, 103
5, 43080, Note_on_c, 3, 53, 116
5, 43128, Note_on_c, 3, 53, 0
5, 43128, Note_on_c, 3, 57, 0
5, 43140, Note_on_c, 3, 53, 118
5, 43188, Note_on_c, 3, 53, 0
5, 43200, Note_on_c, 3, 58, 126
5, 43248, Note_on_c, 3, 58, 0
5, 43260, Note_on_c, 3, 57, 127
5, 43308, Note_on_c, 3, 57, 0
5, 43320, Note_on_c, 3, 55, 127
5, 43368, Note_on_c, 3, 55, 0
5, 43380, Note_on_c, 3, 53, 127
5, 43404, Note_on_c, 3, 53, 0
5, 43410, Note_on_c, 3, 55, 105
5, 43434, Note_on_c, 3, 55, 0
5, 43440, Note_on_c, 3, 57, 127
5, 43488, Note_on_c, 3, 57, 0
5, 43500, Note_on_c, 3, 55, 127
5, 43548, Note_on_c, 3, 55, 0
5, 43560, Note_on_c, 3, 53, 109
5, 43608, Note_on_c, 3, 53, 0
5, 43620, Note_on_c, 3, 52, 127
5, 43644, Note_on_c, 3, 52, 0
5, 43650, Note_on_c, 3, 53, 118
5, 43674, Note_on_c, 3, 53, 0
5, 43680, Note_on_c, 3, 55, 127
5, 43728, Note_on_c, 3, 55, 0
5, 43740, Note_on_c, 3, 52, 127
5, 43788, Note_on_c, 3, 52, 0
5, 43800, Note_on_c, 3, 48, 120
5, 43848, Note_on_c, 3, 48, 0
5, 43860, Note_on_c, 3, 52, 123
5, 43908, Note_on_c, 3, 52, 0
5, 43920, Note_on_c, 3, 55, 113
5, 43968, Note_on_c, 3, 55, 0
5, 43980, Note_on_c, 3, 52, 114
5, 44028, Note_on_c, 3, 52, 0
5, 44040, Note_on_c, 3, 48, 112
5, 44088, Note_on_c, 3, 48, 0
5, 44100, Note_on_c, 3, 60, 105
5, 44148, Note_on_c, 3, 60, 0
5, 44160, Note_on_c, 3, 57, 127
5, 44208, Note_on_c, 3, 57, 0
5, 44220, Note_on_c, 3, 55, 114
5, 44268, Note_on_c, 3, 55, 0
5, 44280, Note_on_c, 3, 53, 123
5, 44328, Note_on_c, 3, 53, 0
5, 44340, Note_on_c, 3, 52, 104
5, 44364, Note_on_c, 3, 52, 0
5, 44370, Note_on_c, 3, 53, 86
5, 44394, Note_on_c, 3, 53, 0
5, 44400, Note_on_c, 3, 55, 116
5, 44448, Note_on_c, 3, 55, 0
5, 44460, Note_on_c, 3, 52, 120
5, 44508, Note_on_c, 3, 52, 0
5, 44520, Note_on_c, 3, 55, 107
5, 44568, Note_on_c, 3, 55, 0
5, 44580, Note_on_c, 3, 48, 99
5, 44628, Note_on_c, 3, 48, 0
5, 44640, Note_on_c, 3, 57, 114
5, 44688, Note_on_c, 3, 57, 0
5, 44700, Note_on_c, 3, 55, 127
5, 44748, Note_on_c, 3, 55, 0
5, 44760, Note_on_c, 3, 53, 112
5, 44808, Note_on_c, 3, 53, 0
5, 44820, Note_on_c, 3, 52, 102
5, 44844, Note_on_c, 3, 52, 0
5, 44850, Note_on_c, 3, 53, 112
5, 44874, Note_on_c, 3, 53, 0
5, 44880, Note_on_c, 3, 55, 127
5, 44928, Note_on_c, 3, 55, 0
5, 44940, Note_on_c, 3, 48, 120
5, 44988, Note_on_c, 3, 48, 0
5, 45000, Note_on_c, 3, 55, 118
5, 45048, Note_on_c, 3, 55, 0
5, 45060, Note_on_c, 3, 48, 109
5, 45108, Note_on_c, 3, 48, 0
5, 45120, Note_on_c, 3, 53, 107
5, 45168, Note_on_c, 3, 53, 0
5, 45180, Note_on_c, 3, 55, 127
5, 45180, Note_on_c, 3, 58, 103
5, 45228, Note_on_c, 3, 58, 0
5, 45228, Note_on_c, 3, 55, 0
5, 45240, Note_on_c, 3, 48, 114
5, 45240, Note_on_c, 3, 55, 97
5, 45288, Note_on_c, 3, 55, 0
5, 45288, Note_on_c, 3, 48, 0
5, 45300, Note_on_c, 3, 58, 99
5, 45300, Note_on_c, 3, 55, 127
5, 45348, Note_on_c, 3, 55, 0
5, 45348, Note_on_c, 3, 58, 0
5, 45360, Note_on_c, 3, 57, 98
5, 45360, Note_on_c, 3, 53, 117
5, 45408, Note_on_c, 3, 53, 0
5, 45408, Note_on_c, 3, 57, 0
5, 45420, Note_on_c, 3, 58, 91
5, 45420, Note_on_c, 3, 55, 127
5, 45468, Note_on_c, 3, 55, 0
5, 45468, Note_on_c, 3, 58, 0
5, 45480, Note_on_c, 3, 48, 113
5, 45480, Note_on_c, 3, 55, 121
5, 45528, Note_on_c, 3, 55, 0
5, 45528, Note_on_c, 3, 48, 0
5, 45540, Note_on_c, 3, 58, 103
5, 45540, Note_on_c, 3, 55, 127
5, 45588, Note_on_c, 3, 55, 0
5, 45588, Note_on_c, 3, 58, 0
5, 45600, Note_on_c, 3, 53, 120
5, 45600, Note_on_c, 3, 57, 113
5, 45632, Note_on_c, 3, 57, 0
5, 45632, Note_on_c, 3, 53, 0
5, 45640, Note_on_c, 3, 57, 111
5, 45640, Note_on_c, 3, 53, 121
5, 45672, Note_on_c, 3, 53, 0
5, 45672, Note_on_c, 3, 57, 0
5, 45680, Note_on_c, 3, 57, 112
5, 45680, Note_on_c, 3, 53, 121
5, 45712, Note_on_c, 3, 53, 0
5, 45712, Note_on_c, 3, 57, 0
5, 45720, Note_on_c, 3, 57, 113
5, 45720, Note_on_c, 3, 53, 114
5, 45752, Note_on_c, 3, 53, 0
5, 45752, Note_on_c, 3, 57, 0
5, 45760, Note_on_c, 3, 53, 123
5, 45760, Note_on_c, 3, 57, 113
5, 45792, Note_on_c, 3, 57, 0
5, 45792, Note_on_c, 3, 53, 0
5, 45800, Note_on_c, 3, 53, 127
5, 45800, Note_on_c, 3, 57, 118
5, 45832, Note_on_c, 3, 57, 0
5, 45832, Note_on_c, 3, 53, 0
5, 45840, Note_on_c, 3, 57, 109
5, 45840, Note_on_c, 3, 53, 112
5, 45888, Note_on_c, 3, 53, 0
5, 45888, Note_on_c, 3, 57, 0
5, 46560, Note_on_c, 3, 57, 109
5, 46560, Note_on_c, 3, 50, 108
5, 46592, Note_on_c, 3, 50, 0
5, 46592, Note_on_c, 3, 57, 0
5, 46600, Note_on_c, 3, 57, 109
5, 46600, Note_on_c, 3, 50, 106
5, 46632, Note_on_c, 3, 50, 0
5, 46632, Note_on_c, 3, 57, 0
5, 46640, Note_on_c, 3, 57, 116
5, 46640, Note_on_c, 3, 50, 116
5, 46672, Note_on_c, 3, 50, 0
5, 46672, Note_on_c, 3, 57, 0
5, 46680, Note_on_c, 3, 57, 108
5, 46680, Note_on_c, 3, 50, 112
5, 46712, Note_on_c, 3, 50, 0
5, 46712, Note_on_c, 3, 57, 0
5, 46720, Note_on_c, 3, 57, 112
5, 46720, Note_on_c, 3, 50, 114
5, 46752, Note_on_c, 3, 50, 0
5, 46752, Note_on_c, 3, 57, 0
5, 46760, Note_on_c, 3, 57, 114
5, 46760, Note_on_c, 3, 50, 110
5, 46792, Note_on_c, 3, 50, 0
5, 46792, Note_on_c, 3, 57, 0
5, 46800, Note_on_c, 3, 50, 109
5, 46800, Note_on_c, 3, 57, 104
5, 46848, Note_on_c, 3, 57, 0
5, 46848, Note_on_c, 3, 50, 0
5, 47520, Note_on_c, 3, 57, 105
5, 47520, Note_on_c, 3, 48, 111
5, 47552, Note_on_c, 3, 48, 0
5, 47552, Note_on_c, 3, 57, 0
5, 47560, Note_on_c, 3, 48, 116
5, 47560, Note_on_c, 3, 57, 111
5, 47592, Note_on_c, 3, 57, 0
5, 47592, Note_on_c, 3, 48, 0
5, 47600, Note_on_c, 3, 48, 118
5, 47600, Note_on_c, 3, 57, 108
5, 47632, Note_on_c, 3, 57, 0
5, 47632, Note_on_c, 3, 48, 0
5, 47640, Note_on_c, 3, 57, 104
5, 47640, Note_on_c, 3, 48, 106
5, 47672, Note_on_c, 3, 48, 0
5, 47672, Note_on_c, 3, 57, 0
5, 47680, Note_on_c, 3, 48, 109
5, 47680, Note_on_c, 3, 57, 106
5, 47712, Note_on_c, 3, 57, 0
5, 47712, Note_on_c, 3, 48, 0
5, 47720, Note_on_c, 3, 57, 104
5, 47720, Note_on_c, 3, 48, 114
5, 47752, Note_on_c, 3, 48, 0
5, 47752, Note_on_c, 3, 57, 0
5, 47760, Note_on_c, 3, 57, 98
5, 47760, Note_on_c, 3, 48, 107
5, 47808, Note_on_c, 3, 48, 0
5, 47808, Note_on_c, 3, 57, 0
5, 48000, Note_on_c, 3, 62, 108
5, 48000, Note_on_c, 3, 59, 116
5, 48032, Note_on_c, 3, 59, 0
5, 48032, Note_on_c, 3, 62, 0
5, 48040, Note_on_c, 3, 59, 116
5, 48040, Note_on_c, 3, 62, 103
5, 48072, Note_on_c, 3, 62, 0
5, 48072, Note_on_c, 3, 59, 0
5, 48080, Note_on_c, 3, 62, 103
5, 48080, Note_on_c, 3, 59, 114
5, 48112, Note_on_c, 3, 59, 0
5, 48112, Note_on_c, 3, 62, 0
5, 48120, Note_on_c, 3, 59, 110
5, 48120, Note_on_c, 3, 62, 105
5, 48152, Note_on_c, 3, 62, 0
5, 48152, Note_on_c, 3, 59, 0
5, 48160, Note_on_c, 3, 59, 105
5, 48160, Note_on_c, 3, 62, 106
5, 48192, Note_on_c, 3, 62, 0
5, 48192, Note_on_c, 3, 59, 0
5, 48200, Note_on_c, 3, 59, 113
5, 48200, Note_on_c, 3, 62, 103
5, 48232, Note_on_c, 3, 62, 0
5, 48232, Note_on_c, 3, 59, 0
5, 48240, Note_on_c, 3, 62, 99
5, 48240, Note_on_c, 3, 59, 109
5, 48288, Note_on_c, 3, 59, 0
5, 48288, Note_on_c, 3, 62, 0
5, 53280, Note_on_c, 3, 69, 125
5, 53328, Note_on_c, 3, 69, 0
5, 53340, Note_on_c, 3, 67, 96
5, 53388, Note_on_c, 3, 67, 0
5, 53400, Note_on_c, 3, 64, 127
5, 53448, Note_on_c, 3, 64, 0
5, 53460, Note_on_c, 3, 60, 127
5, 53508, Note_on_c, 3, 60, 0
5, 53520, Note_on_c, 3, 55, 85
5, 53568, Note_on_c, 3, 55, 0
5, 53580, Note_on_c, 3, 64, 127
5, 53628, Note_on_c, 3, 64, 0
5, 53640, Note_on_c, 3, 60, 114
5, 53688, Note_on_c, 3, 60, 0
5, 53700, Note_on_c, 3, 55, 111
5, 53748, Note_on_c, 3, 55, 0
5, 53760, Note_on_c, 3, 69, 127
5, 53808, Note_on_c, 3, 69, 0
5, 53820, Note_on_c, 3, 67, 107
5, 53868, Note_on_c, 3, 67, 0
5, 53880, Note_on_c, 3, 65, 125
5, 53928, Note_on_c, 3, 65, 0
5, 53940, Note_on_c, 3, 62, 107
5, 53988, Note_on_c, 3, 62, 0
5, 54000, Note_on_c, 3, 55, 107
5, 54048, Note_on_c, 3, 55, 0
5, 54060, Note_on_c, 3, 65, 111
5, 54108, Note_on_c, 3, 65, 0
5, 54120, Note_on_c, 3, 62, 110
5, 54168, Note_on_c, 3, 62, 0
5, 54180, Note_on_c, 3, 55, 115
5, 54228, Note_on_c, 3, 55, 0
5, 54240, Note_on_c, 3, 69, 104
5, 54288, Note_on_c, 3, 69, 0
5, 54300, Note_on_c, 3, 67, 94
5, 54348, Note_on_c, 3, 67, 0
5, 54360, Note_on_c, 3, 64, 107
5, 54408, Note_on_c, 3, 64, 0
5, 54420, Note_on_c, 3, 60, 111
5, 54468, Note_on_c, 3, 60, 0
5, 54480, Note_on_c, 3, 55, 113
5, 54528, Note_on_c, 3, 55, 0
5, 54540, Note_on_c, 3, 64, 127
5, 54588, Note_on_c, 3, 64, 0
5, 54600, Note_on_c, 3, 60, 123
5, 54648, Note_on_c, 3, 60, 0
5, 54660, Note_on_c, 3, 55, 81
5, 54708, Note_on_c, 3, 55, 0
5, 54720, Note_on_c, 3, 69, 105
5, 54768, Note_on_c, 3, 69, 0
5, 54780, Note_on_c, 3, 67, 107
5, 54828, Note_on_c, 3, 67, 0
5, 54840, Note_on_c, 3, 65, 117
5, 54888, Note_on_c, 3, 65, 0
5, 54900, Note_on_c, 3, 62, 95
5, 54948, Note_on_c, 3, 62, 0
5, 54960, Note_on_c, 3, 55, 97
5, 55008, Note_on_c, 3, 55, 0
5, 55020, Note_on_c, 3, 65, 120
5, 55068, Note_on_c, 3, 65, 0
5, 55080, Note_on_c, 3, 62, 113
5, 55128, Note_on_c, 3, 62, 0
5, 55140, Note_on_c, 3, 55, 101
5, 55188, Note_on_c, 3, 55, 0
5, 55200, Note_on_c, 3, 64, 117
5, 55200, Note_on_c, 3, 60, 111
5, 55248, Note_on_c, 3, 60, 0
5, 55248, Note_on_c, 3, 64, 0
5, 55920, Note_on_c, 3, 50, 113
5, 55920, Note_on_c, 3, 53, 127
5, 55968, Note_on_c, 3, 53, 0
5, 55968, Note_on_c, 3, 50, 0
5, 56400, Note_on_c, 3, 64, 125
5, 56400, Note_on_c, 3, 67, 121
5, 56496, Note_on_c, 3, 67, 0
5, 56496, Note_on_c, 3, 64, 0
5, 56520, Note_on_c, 3, 65, 110
5, 56520, Note_on_c, 3, 62, 116
5, 56568, Note_on_c, 3, 62, 0
5, 56568, Note_on_c, 3, 65, 0
5, 56580, Note_on_c, 3, 60, 100
5, 56580, Note_on_c, 3, 64, 118
5, 56628, Note_on_c, 3, 64, 0
5, 56628, Note_on_c, 3, 60, 0
5, 56640, Note_on_c, 3, 60, 111
5, 56640, Note_on_c, 3, 64, 117
5, 56688, Note_on_c, 3, 64, 0
5, 56688, Note_on_c, 3, 60, 0
5, 56700, Note_on_c, 3, 62, 98
5, 56700, Note_on_c, 3, 59, 99
5, 56748, Note_on_c, 3, 59, 0
5, 56748, Note_on_c, 3, 62, 0
5, 56760, Note_on_c, 3, 57, 104
5, 56760, Note_on_c, 3, 60, 107
5, 56808, Note_on_c, 3, 60, 0
5, 56808, Note_on_c, 3, 57, 0
5, 56820, Note_on_c, 3, 59, 103
5, 56820, Note_on_c, 3, 62, 107
5, 56868, Note_on_c, 3, 62, 0
5, 56868, Note_on_c, 3, 59, 0
5, 56880, Note_on_c, 3, 64, 125
5, 56880, Note_on_c, 3, 60, 116
5, 56928, Note_on_c, 3, 60, 0
5, 56928, Note_on_c, 3, 64, 0
5, 57600, Note_on_c, 3, 53, 125
5, 57600, Note_on_c, 3, 57, 113
5, 57648, Note_on_c, 3, 57, 0
5, 57648, Note_on_c, 3, 53, 0
5, 57840, Note_on_c, 3, 57, 112
5, 57840, Note_on_c, 3, 60, 127
5, 57936, Note_on_c, 3, 60, 0
5, 57936, Note_on_c, 3, 57, 0
5, 57960, Note_on_c, 3, 55, 104
5, 57960, Note_on_c, 3, 59, 118
5, 58008, Note_on_c, 3, 59, 0
5, 58008, Note_on_c, 3, 55, 0
5, 58020, Note_on_c, 3, 57, 120
5, 58020, Note_on_c, 3, 53, 109
5, 58068, Note_on_c, 3, 53, 0
5, 58068, Note_on_c, 3, 57, 0
5, 58080, Note_on_c, 3, 55, 121
5, 58080, Note_on_c, 3, 52, 121
5, 58176, Note_on_c, 3, 52, 0
5, 58176, Note_on_c, 3, 55, 0
5, 58200, Note_on_c, 3, 53, 120
5, 58200, Note_on_c, 3, 50, 121
5, 58248, Note_on_c, 3, 50, 0
5, 58248, Note_on_c, 3, 53, 0
5, 58260, Note_on_c, 3, 48, 98
5, 58260, Note_on_c, 3, 52, 106
5, 58308, Note_on_c, 3, 52, 0
5, 58308, Note_on_c, 3, 48, 0
5, 58320, Note_on_c, 3, 50, 121
5, 58320, Note_on_c, 3, 47, 109
5, 58416, Note_on_c, 3, 47, 0
5, 58416, Note_on_c, 3, 50, 0
5, 58440, Note_on_c, 3, 48, 127
5, 58440, Note_on_c, 3, 45, 120
5, 58488, Note_on_c, 3, 45, 0
5, 58488, Note_on_c, 3, 48, 0
5, 58500, Note_on_c, 3, 47, 105
5, 58500, Note_on_c, 3, 50, 120
5, 58548, Note_on_c, 3, 50, 0
5, 58548, Note_on_c, 3, 47, 0
5, 58560, Note_on_c, 3, 52, 121
5, 58560, Note_on_c, 3, 48, 116
5, 58608, Note_on_c, 3, 48, 0
5, 58608, Note_on_c, 3, 52, 0
5, 58620, Note_on_c, 3, 48, 116
5, 58620, Note_on_c, 3, 52, 123
5, 58668, Note_on_c, 3, 52, 0
5, 58668, Note_on_c, 3, 48, 0
5, 58680, Note_on_c, 3, 50, 105
5, 58680, Note_on_c, 3, 53, 109
5, 58728, Note_on_c, 3, 53, 0
5, 58728, Note_on_c, 3, 50, 0
5, 58740, Note_on_c, 3, 55, 104
5, 58740, Note_on_c, 3, 52, 117
5, 58788, Note_on_c, 3, 52, 0
5, 58788, Note_on_c, 3, 55, 0
5, 58800, Note_on_c, 3, 53, 110
5, 58800, Note_on_c, 3, 57, 118
5, 58848, Note_on_c, 3, 57, 0
5, 58848, Note_on_c, 3, 53, 0
5, 58860, Note_on_c, 3, 57, 117
5, 58860, Note_on_c, 3, 60, 123
5, 58908, Note_on_c, 3, 60, 0
5, 58908, Note_on_c, 3, 57, 0
5, 58920, Note_on_c, 3, 55, 104
5, 58920, Note_on_c, 3, 59, 112
5, 58968, Note_on_c, 3, 59, 0
5, 58968, Note_on_c, 3, 55, 0
5, 58980, Note_on_c, 3, 57, 106
5, 58980, Note_on_c, 3, 53, 117
5, 59028, Note_on_c, 3, 53, 0
5, 59028, Note_on_c, 3, 57, 0
5, 59040, Note_on_c, 3, 55, 114
5, 59040, Note_on_c, 3, 52, 107
5, 59088, Note_on_c, 3, 52, 0
5, 59088, Note_on_c, 3, 55, 0
5, 59100, Note_on_c, 3, 55, 107
5, 59100, Note_on_c, 3, 52, 107
5, 59148, Note_on_c, 3, 52, 0
5, 59148, Note_on_c, 3, 55, 0
5, 59160, Note_on_c, 3, 53, 106
5, 59160, Note_on_c, 3, 50, 113
5, 59208, Note_on_c, 3, 50, 0
5, 59208, Note_on_c, 3, 53, 0
5, 59220, Note_on_c, 3, 52, 108
5, 59220, Note_on_c, 3, 48, 105
5, 59268, Note_on_c, 3, 48, 0
5, 59268, Note_on_c, 3, 52, 0
5, 59280, Note_on_c, 3, 47, 107
5, 59280, Note_on_c, 3, 50, 125
5, 59376, Note_on_c, 3, 50, 0
5, 59376, Note_on_c, 3, 47, 0
5, 59400, Note_on_c, 3, 48, 123
5, 59400, Note_on_c, 3, 45, 99
5, 59448, Note_on_c, 3, 45, 0
5, 59448, Note_on_c, 3, 48, 0
5, 59460, Note_on_c, 3, 47, 120
5, 59460, Note_on_c, 3, 50, 127
5, 59508, Note_on_c, 3, 50, 0
5, 59508, Note_on_c, 3, 47, 0
5, 59520, Note_on_c, 3, 52, 127
5, 59520, Note_on_c, 3, 48, 127
5, 59568, Note_on_c, 3, 48, 0
5, 59568, Note_on_c, 3, 52, 0
5, 59640, Note_on_c, 3, 52, 127
5, 59640, Note_on_c, 3, 55, 99
5, 59688, Note_on_c, 3, 55, 0
5, 59688, Note_on_c, 3, 52, 0
5, 59760, Note_on_c, 3, 57, 109
5, 59760, Note_on_c, 3, 53, 121
5, 59808, Note_on_c, 3, 53, 0
5, 59808, Note_on_c, 3, 57, 0
5, 59880, Note_on_c, 3, 57, 111
5, 59880, Note_on_c, 3, 53, 103
5, 59928, Note_on_c, 3, 53, 0
5, 59928, Note_on_c, 3, 57, 0
5, 60000, Note_on_c, 3, 55, 99
5, 60000, Note_on_c, 3, 52, 114
5, 60048, Note_on_c, 3, 52, 0
5, 60048, Note_on_c, 3, 55, 0
5, 60120, Note_on_c, 3, 60, 96
5, 60120, Note_on_c, 3, 52, 106
5, 60168, Note_on_c, 3, 52, 0
5, 60168, Note_on_c, 3, 60, 0
5, 60240, Note_on_c, 3, 59, 103
5, 60240, Note_on_c, 3, 50, 117
5, 60288, Note_on_c, 3, 50, 0
5, 60288, Note_on_c, 3, 59, 0
5, 60360, Note_on_c, 3, 59, 107
5, 60360, Note_on_c, 3, 50, 127
5, 60408, Note_on_c, 3, 50, 0
5, 60408, Note_on_c, 3, 59, 0
5, 60480, Note_on_c, 3, 60, 120
5, 60480, Note_on_c, 3, 48, 116
5, 60576, Note_on_c, 3, 48, 0
5, 60576, Note_on_c, 3, 60, 0
5, 60600, Note_on_c, 3, 43, 114
5, 60600, Note_on_c, 3, 55, 103
5, 60912, Note_on_c, 3, 55, 0
5, 60912, Note_on_c, 3, 43, 0
5, 60960, Note_on_c, 3, 64, 110
5, 60960, Note_on_c, 3, 52, 120
5, 61056, Note_on_c, 3, 52, 0
5, 61056, Note_on_c, 3, 64, 0
5, 61080, Note_on_c, 3, 48, 114
5, 61080, Note_on_c, 3, 60, 109
5, 61392, Note_on_c, 3, 60, 0
5, 61392, Note_on_c, 3, 48, 0
5, 61440, Note_on_c, 3, 48, 106
5, 61440, Note_on_c, 3, 60, 116
5, 61536, Note_on_c, 3, 60, 0
5, 61536, Note_on_c, 3, 48, 0
5, 61560, Note_on_c, 3, 55, 107
5, 61560, Note_on_c, 3, 43, 102
5, 61872, Note_on_c, 3, 43, 0
5, 61872, Note_on_c, 3, 55, 0
5, 61920, Note_on_c, 3, 64, 109
5, 61920, Note_on_c, 3, 52, 109
5, 62016, Note_on_c, 3, 52, 0
5, 62016, Note_on_c, 3, 64, 0
5, 62040, Note_on_c, 3, 48, 100
5, 62040, Note_on_c, 3, 60, 107
5, 62352, Note_on_c, 3, 60, 0
5, 62352, Note_on_c, 3, 48, 0
5, 62400, Note_on_c, 3, 60, 112
5, 62400, Note_on_c, 3, 48, 107
5, 62496, Note_on_c, 3, 48, 0
5, 62496, Note_on_c, 3, 60, 0
5, 62520, Note_on_c, 3, 55, 111
5, 62520, Note_on_c, 3, 43, 105
5, 62616, Note_on_c, 3, 43, 0
5, 62616, Note_on_c, 3, 55, 0
5, 62640, Note_on_c, 3, 48, 110
5, 62640, Note_on_c, 3, 60, 112
5, 62736, Note_on_c, 3, 60, 0
5, 62736, Note_on_c, 3, 48, 0
5, 62760, Note_on_c, 3, 43, 123
5, 62760, Note_on_c, 3, 55, 109
5, 62856, Note_on_c, 3, 55, 0
5, 62856, Note_on_c, 3, 43, 0
5, 62880, Note_on_c, 3, 48, 101
5, 62880, Note_on_c, 3, 60, 121
5, 62976, Note_on_c, 3, 60, 0
5, 62976, Note_on_c, 3, 48, 0
5, 63000, Note_on_c, 3, 43, 105
5, 63000, Note_on_c, 3, 55, 109
5, 63096, Note_on_c, 3, 55, 0
5, 63096, Note_on_c, 3, 43, 0
5, 63120, Note_on_c, 3, 48, 106
5, 63120, Note_on_c, 3, 60, 105
5, 63216, Note_on_c, 3, 60, 0
5, 63216, Note_on_c, 3, 48, 0
5, 63240, Note_on_c, 3, 55, 111
5, 63240, Note_on_c, 3, 43, 109
5, 63336, Note_on_c, 3, 43, 0
5, 63336, Note_on_c, 3, 55, 0
5, 63360, Note_on_c, 3, 60, 103
5, 63360, Note_on_c, 3, 48, 104
5, 63408, Note_on_c, 3, 48, 0
5, 63408, Note_on_c, 3, 60, 0
5, 66240, Note_on_c, 3, 48, 102
5, 66240, Note_on_c, 3, 55, 105
5, 66672, Note_on_c, 3, 55, 0
5, 66672, Note_on_c, 3, 48, 0
5, 66720, Note_on_c, 3, 48, 116
5, 66720, Note_on_c, 3, 55, 111
5, 67152, Note_on_c, 3, 55, 0
5, 67152, Note_on_c, 3, 48, 0
5, 68160, Note_on_c, 3, 60, 116
5, 68160, Note_on_c, 3, 63, 80
5, 68592, Note_on_c, 3, 63, 0
5, 68592, Note_on_c, 3, 60, 0
5, 68640, Note_on_c, 3, 60, 127
5, 68640, Note_on_c, 3, 63, 113
5, 69072, Note_on_c, 3, 63, 0
5, 69072, Note_on_c, 3, 60, 0
5, 69120, Note_on_c, 3, 50, 107
5, 69120, Note_on_c, 3, 58, 88
5, 70992, Note_on_c, 3, 58, 0
5, 70992, Note_on_c, 3, 50, 0
5, 71040, Note_on_c, 3, 50, 111
5, 71040, Note_on_c, 3, 58, 94
5, 71985, Note_on_c, 3, 58, 0
5, 71985, Note_on_c, 3, 50, 0
5, 72000, Note_on_c, 3, 50, 117
5, 72000, Note_on_c, 3, 57, 114
5, 73872, Note_on_c, 3, 57, 0
5, 73872, Note_on_c, 3, 50, 0
5, 73920, Note_on_c, 3, 50, 121
5, 73920, Note_on_c, 3, 57, 107
5, 74832, Note_on_c, 3, 57, 0
5, 74832, Note_on_c, 3, 50, 0
5, 74880, Note_on_c, 3, 57, 107
5, 74880, Note_on_c, 3, 54, 99
5, 75024, Note_on_c, 3, 54, 0
5, 75024, Note_on_c, 3, 57, 0
5, 75060, Note_on_c, 3, 54, 89
5, 75060, Note_on_c, 3, 57, 106
5, 75108, Note_on_c, 3, 57, 0
5, 75108, Note_on_c, 3, 54, 0
5, 75120, Note_on_c, 3, 54, 99
5, 75120, Note_on_c, 3, 57, 107
5, 75264, Note_on_c, 3, 57, 0
5, 75264, Note_on_c, 3, 54, 0
5, 75300, Note_on_c, 3, 57, 106
5, 75300, Note_on_c, 3, 54, 89
5, 75348, Note_on_c, 3, 54, 0
5, 75348, Note_on_c, 3, 57, 0
5, 75360, Note_on_c, 3, 54, 99
5, 75360, Note_on_c, 3, 57, 107
5, 75504, Note_on_c, 3, 57, 0
5, 75504, Note_on_c, 3, 54, 0
5, 75540, Note_on_c, 3, 57, 106
5, 75540, Note_on_c, 3, 54, 89
5, 75588, Note_on_c, 3, 54, 0
5, 75588, Note_on_c, 3, 57, 0
5, 75600, Note_on_c, 3, 54, 99
5, 75600, Note_on_c, 3, 57, 107
5, 75744, Note_on_c, 3, 57, 0
5, 75744, Note_on_c, 3, 54, 0
5, 75780, Note_on_c, 3, 57, 106
5, 75780, Note_on_c, 3, 54, 89
5, 75828, Note_on_c, 3, 54, 0
5, 75828, Note_on_c, 3, 57, 0
5, 75840, Note_on_c, 3, 57, 117
5, 75840, Note_on_c, 3, 54, 88
5, 75888, Note_on_c, 3, 54, 0
5, 75888, Note_on_c, 3, 57, 0
5, 76320, Note_on_c, 3, 57, 127
5, 76320, Note_on_c, 3, 54, 95
5, 76368, Note_on_c, 3, 54, 0
5, 76368, Note_on_c, 3, 57, 0
5, 77760, Note_on_c, 3, 62, 125
5, 77808, Note_on_c, 3, 62, 0
5, 77820, Note_on_c, 3, 57, 114
5, 77868, Note_on_c, 3, 57, 0
5, 78000, Note_on_c, 3, 62, 127
5, 78048, Note_on_c, 3, 62, 0
5, 78060, Note_on_c, 3, 57, 123
5, 78108, Note_on_c, 3, 57, 0
5, 78240, Note_on_c, 3, 62, 118
5, 78288, Note_on_c, 3, 62, 0
5, 78300, Note_on_c, 3, 57, 116
5, 78348, Note_on_c, 3, 57, 0
5, 78360, Note_on_c, 3, 62, 116
5, 78408, Note_on_c, 3, 62, 0
5, 78420, Note_on_c, 3, 57, 114
5, 78468, Note_on_c, 3, 57, 0
5, 78480, Note_on_c, 3, 62, 113
5, 78528, Note_on_c, 3, 62, 0
5, 78540, Note_on_c, 3, 57, 110
5, 78588, Note_on_c, 3, 57, 0
5, 78600, Note_on_c, 3, 62, 104
5, 78648, Note_on_c, 3, 62, 0
5, 78660, Note_on_c, 3, 57, 120
5, 78708, Note_on_c, 3, 57, 0
5, 78780, Note_on_c, 3, 59, 117
5, 78828, Note_on_c, 3, 59, 0
5, 78840, Note_on_c, 3, 60, 127
5, 78888, Note_on_c, 3, 60, 0
5, 78900, Note_on_c, 3, 64, 103
5, 78948, Note_on_c, 3, 64, 0
5, 78960, Note_on_c, 3, 62, 109
5, 79008, Note_on_c, 3, 62, 0
5, 79020, Note_on_c, 3, 60, 107
5, 79044, Note_on_c, 3, 60, 0
5, 79050, Note_on_c, 3, 59, 111
5, 79074, Note_on_c, 3, 59, 0
5, 79080, Note_on_c, 3, 57, 127
5, 79128, Note_on_c, 3, 57, 0
5, 79140, Note_on_c, 3, 50, 112
5, 79188, Note_on_c, 3, 50, 0
5, 79200, Note_on_c, 3, 55, 101
5, 79392, Note_on_c, 3, 55, 0
5, 79440, Note_on_c, 3, 50, 105
5, 80112, Note_on_c, 3, 50, 0
5, 80160, Note_on_c, 3, 47, 108
5, 80160, Note_on_c, 3, 55, 103
5, 82992, Note_on_c, 3, 55, 0
5, 82992, Note_on_c, 3, 47, 0
5, 83040, Note_on_c, 3, 56, 80
5, 83040, Note_on_c, 3, 47, 111
5, 83952, Note_on_c, 3, 47, 0
5, 83952, Note_on_c, 3, 56, 0
5, 84000, Note_on_c, 3, 56, 82
5, 84000, Note_on_c, 3, 47, 109
5, 85872, Note_on_c, 3, 47, 0
5, 85872, Note_on_c, 3, 56, 0
5, 85920, Note_on_c, 3, 59, 107
5, 85920, Note_on_c, 3, 56, 99
5, 86064, Note_on_c, 3, 56, 0
5, 86064, Note_on_c, 3, 59, 0
5, 86100, Note_on_c, 3, 56, 89
5, 86100, Note_on_c, 3, 59, 106
5, 86148, Note_on_c, 3, 59, 0
5, 86148, Note_on_c, 3, 56, 0
5, 86160, Note_on_c, 3, 56, 99
5, 86160, Note_on_c, 3, 59, 107
5, 86304, Note_on_c, 3, 59, 0
5, 86304, Note_on_c, 3, 56, 0
5, 86340, Note_on_c, 3, 59, 106
5, 86340, Note_on_c, 3, 56, 89
5, 86388, Note_on_c, 3, 56, 0
5, 86388, Note_on_c, 3, 59, 0
5, 86400, Note_on_c, 3, 56, 99
5, 86400, Note_on_c, 3, 59, 107
5, 86544, Note_on_c, 3, 59, 0
5, 86544, Note_on_c, 3, 56, 0
5, 86580, Note_on_c, 3, 59, 106
5, 86580, Note_on_c, 3, 56, 89
5, 86628, Note_on_c, 3, 56, 0
5, 86628, Note_on_c, 3, 59, 0
5, 86640, Note_on_c, 3, 56, 99
5, 86640, Note_on_c, 3, 59, 107
5, 86784, Note_on_c, 3, 59, 0
5, 86784, Note_on_c, 3, 56, 0
5, 86820, Note_on_c, 3, 59, 106
5, 86820, Note_on_c, 3, 56, 89
5, 86868, Note_on_c, 3, 56, 0
5, 86868, Note_on_c, 3, 59, 0
5, 86880, Note_on_c, 3, 59, 117
5, 86880, Note_on_c, 3, 56, 88
5, 86928, Note_on_c, 3, 56, 0
5, 86928, Note_on_c, 3, 59, 0
5, 87360, Note_on_c, 3, 59, 127
5, 87360, Note_on_c, 3, 56, 95
5, 87408, Note_on_c, 3, 56, 0
5, 87408, Note_on_c, 3, 59, 0
5, 88800, Note_on_c, 3, 64, 125
5, 88848, Note_on_c, 3, 64, 0
5, 88860, Note_on_c, 3, 59, 114
5, 88908, Note_on_c, 3, 59, 0
5, 89040, Note_on_c, 3, 64, 127
5, 89088, Note_on_c, 3, 64, 0
5, 89100, Note_on_c, 3, 59, 123
5, 89148, Note_on_c, 3, 59, 0
5, 89280, Note_on_c, 3, 64, 118
5, 89328, Note_on_c, 3, 64, 0
5, 89340, Note_on_c, 3, 59, 116
5, 89388, Note_on_c, 3, 59, 0
5, 89400, Note_on_c, 3, 64, 116
5, 89448, Note_on_c, 3, 64, 0
5, 89460, Note_on_c, 3, 59, 114
5, 89508, Note_on_c, 3, 59, 0
5, 89520, Note_on_c, 3, 64, 113
5, 89568, Note_on_c, 3, 64, 0
5, 89580, Note_on_c, 3, 59, 110
5, 89628, Note_on_c, 3, 59, 0
5, 89640, Note_on_c, 3, 64, 104
5, 89688, Note_on_c, 3, 64, 0
5, 89700, Note_on_c, 3, 59, 120
5, 89748, Note_on_c, 3, 59, 0
5, 89820, Note_on_c, 3, 61, 117
5, 89868, Note_on_c, 3, 61, 0
5, 89880, Note_on_c, 3, 62, 127
5, 89928, Note_on_c, 3, 62, 0
5, 89940, Note_on_c, 3, 66, 103
5, 89988, Note_on_c, 3, 66, 0
5, 90000, Note_on_c, 3, 64, 109
5, 90048, Note_on_c, 3, 64, 0
5, 90060, Note_on_c, 3, 62, 107
5, 90084, Note_on_c, 3, 62, 0
5, 90090, Note_on_c, 3, 61, 111
5, 90114, Note_on_c, 3, 61, 0
5, 90120, Note_on_c, 3, 59, 127
5, 90168, Note_on_c, 3, 59, 0
5, 90180, Note_on_c, 3, 52, 112
5, 90228, Note_on_c, 3, 52, 0
5, 90240, Note_on_c, 3, 57, 101
5, 90432, Note_on_c, 3, 57, 0
5, 90480, Note_on_c, 3, 52, 105
5, 91152, Note_on_c, 3, 52, 0
5, 91200, Note_on_c, 3, 57, 123
5, 91200, Note_on_c, 3, 61, 109
5, 91296, Note_on_c, 3, 61, 0
5, 91296, Note_on_c, 3, 57, 0
5, 91320, Note_on_c, 3, 64, 127
5, 91320, Note_on_c, 3, 61, 92
5, 91416, Note_on_c, 3, 61, 0
5, 91416, Note_on_c, 3, 64, 0
5, 91440, Note_on_c, 3, 59, 120
5, 91440, Note_on_c, 3, 62, 127
5, 91584, Note_on_c, 3, 62, 0
5, 91584, Note_on_c, 3, 59, 0
5, 91620, Note_on_c, 3, 57, 117
5, 91620, Note_on_c, 3, 61, 103
5, 91668, Note_on_c, 3, 61, 0
5, 91668, Note_on_c, 3, 57, 0
5, 91680, Note_on_c, 3, 66, 99
5, 91680, Note_on_c, 3, 62, 127
5, 91776, Note_on_c, 3, 62, 0
5, 91776, Note_on_c, 3, 66, 0
5, 91800, Note_on_c, 3, 64, 121
5, 91800, Note_on_c, 3, 61, 100
5, 91896, Note_on_c, 3, 61, 0
5, 91896, Note_on_c, 3, 64, 0
5, 91920, Note_on_c, 3, 59, 112
5, 91920, Note_on_c, 3, 52, 99
5, 92112, Note_on_c, 3, 52, 0
5, 92112, Note_on_c, 3, 59, 0
5, 92160, Note_on_c, 3, 61, 86
5, 92160, Note_on_c, 3, 57, 107
5, 92208, Note_on_c, 3, 57, 0
5, 92208, Note_on_c, 3, 61, 0
5, 94080, Note_on_c, 3, 50, 117
5, 94128, Note_on_c, 3, 50, 0
5, 95040, Note_on_c, 3, 60, 125
5, 95040, Note_on_c, 3, 57, 117
5, 95136, Note_on_c, 3, 57, 0
5, 95136, Note_on_c, 3, 60, 0
5, 95160, Note_on_c, 3, 54, 103
5, 95160, Note_on_c, 3, 57, 127
5, 95256, Note_on_c, 3, 57, 0
5, 95256, Note_on_c, 3, 54, 0
5, 95280, Note_on_c, 3, 58, 88
5, 95280, Note_on_c, 3, 55, 127
5, 95424, Note_on_c, 3, 55, 0
5, 95424, Note_on_c, 3, 58, 0
5, 95460, Note_on_c, 3, 60, 127
5, 95460, Note_on_c, 3, 57, 127
5, 95508, Note_on_c, 3, 57, 0
5, 95508, Note_on_c, 3, 60, 0
5, 95520, Note_on_c, 3, 50, 109
5, 95520, Note_on_c, 3, 59, 110
5, 95616, Note_on_c, 3, 59, 0
5, 95616, Note_on_c, 3, 50, 0
5, 95640, Note_on_c, 3, 52, 121
5, 95640, Note_on_c, 3, 60, 120
5, 95736, Note_on_c, 3, 60, 0
5, 95736, Note_on_c, 3, 52, 0
5, 95760, Note_on_c, 3, 62, 112
5, 95760, Note_on_c, 3, 53, 117
5, 95808, Note_on_c, 3, 53, 0
5, 95808, Note_on_c, 3, 62, 0
5, 95820, Note_on_c, 3, 62, 125
5, 95820, Note_on_c, 3, 53, 109
5, 95844, Note_on_c, 3, 53, 0
5, 95844, Note_on_c, 3, 62, 0
5, 95850, Note_on_c, 3, 60, 105
5, 95850, Note_on_c, 3, 52, 111
5, 95874, Note_on_c, 3, 52, 0
5, 95874, Note_on_c, 3, 60, 0
5, 95880, Note_on_c, 3, 59, 107
5, 95880, Note_on_c, 3, 50, 109
5, 95928, Note_on_c, 3, 50, 0
5, 95928, Note_on_c, 3, 59, 0
5, 95940, Note_on_c, 3, 62, 109
5, 95940, Note_on_c, 3, 53, 110
5, 95988, Note_on_c, 3, 53, 0
5, 95988, Note_on_c, 3, 62, 0
5, 96000, Note_on_c, 3, 48, 127
5, 96096, Note_on_c, 3, 48, 0
5, 96120, Note_on_c, 3, 52, 127
5, 96216, Note_on_c, 3, 52, 0
5, 96240, Note_on_c, 3, 50, 120
5, 96384, Note_on_c, 3, 50, 0
5, 96420, Note_on_c, 3, 48, 127
5, 96468, Note_on_c, 3, 48, 0
5, 96480, Note_on_c, 3, 53, 113
5, 96576, Note_on_c, 3, 53, 0
5, 96600, Note_on_c, 3, 52, 120
5, 96696, Note_on_c, 3, 52, 0
5, 96720, Note_on_c, 3, 50, 127
5, 96776, Note_on_c, 3, 50, 0
5, 96780, Note_on_c, 3, 50, 127
5, 96804, Note_on_c, 3, 50, 0
5, 96810, Note_on_c, 3, 52, 127
5, 96834, Note_on_c, 3, 52, 0
5, 96840, Note_on_c, 3, 53, 127
5, 96888, Note_on_c, 3, 53, 0
5, 96900, Note_on_c, 3, 50, 98
5, 96948, Note_on_c, 3, 50, 0
5, 96960, Note_on_c, 3, 52, 123
5, 97056, Note_on_c, 3, 52, 0
5, 97080, Note_on_c, 3, 55, 123
5, 97176, Note_on_c, 3, 55, 0
5, 97200, Note_on_c, 3, 53, 102
5, 97344, Note_on_c, 3, 53, 0
5, 97380, Note_on_c, 3, 52, 125
5, 97428, Note_on_c, 3, 52, 0
5, 97440, Note_on_c, 3, 57, 118
5, 97536, Note_on_c, 3, 57, 0
5, 97560, Note_on_c, 3, 55, 104
5, 97656, Note_on_c, 3, 55, 0
5, 97680, Note_on_c, 3, 53, 121
5, 97728, Note_on_c, 3, 53, 0
5, 97740, Note_on_c, 3, 53, 115
5, 97764, Note_on_c, 3, 53, 0
5, 97770, Note_on_c, 3, 55, 121
5, 97794, Note_on_c, 3, 55, 0
5, 97800, Note_on_c, 3, 57, 127
5, 97848, Note_on_c, 3, 57, 0
5, 97860, Note_on_c, 3, 53, 123
5, 97908, Note_on_c, 3, 53, 0
5, 97920, Note_on_c, 3, 58, 109
5, 98016, Note_on_c, 3, 58, 0
5, 98040, Note_on_c, 3, 57, 123
5, 98136, Note_on_c, 3, 57, 0
5, 98160, Note_on_c, 3, 55, 127
5, 98208, Note_on_c, 3, 55, 0
5, 98220, Note_on_c, 3, 52, 127
5, 98244, Note_on_c, 3, 52, 0
5, 98250, Note_on_c, 3, 53, 107
5, 98274, Note_on_c, 3, 53, 0
5, 98280, Note_on_c, 3, 55, 120
5, 98328, Note_on_c, 3, 55, 0
5, 98340, Note_on_c, 3, 57, 107
5, 98388, Note_on_c, 3, 57, 0
5, 98400, Note_on_c, 3, 58, 111
5, 98496, Note_on_c, 3, 58, 0
5, 98520, Note_on_c, 3, 57, 102
5, 98616, Note_on_c, 3, 57, 0
5, 98640, Note_on_c, 3, 55, 121
5, 98688, Note_on_c, 3, 55, 0
5, 98700, Note_on_c, 3, 52, 127
5, 98724, Note_on_c, 3, 52, 0
5, 98730, Note_on_c, 3, 53, 101
5, 98754, Note_on_c, 3, 53, 0
5, 98760, Note_on_c, 3, 55, 123
5, 98808, Note_on_c, 3, 55, 0
5, 98820, Note_on_c, 3, 57, 125
5, 98868, Note_on_c, 3, 57, 0
5, 98880, Note_on_c, 3, 46, 118
5, 98928, Note_on_c, 3, 46, 0
5, 102780, Note_on_c, 3, 57, 125
5, 102828, Note_on_c, 3, 57, 0
5, 102840, Note_on_c, 3, 58, 115
5, 102888, Note_on_c, 3, 58, 0
5, 102900, Note_on_c, 3, 62, 111
5, 102948, Note_on_c, 3, 62, 0
5, 102960, Note_on_c, 3, 60, 117
5, 103008, Note_on_c, 3, 60, 0
5, 103020, Note_on_c, 3, 55, 106
5, 103044, Note_on_c, 3, 55, 0
5, 103050, Note_on_c, 3, 57, 125
5, 103074, Note_on_c, 3, 57, 0
5, 103080, Note_on_c, 3, 58, 115
5, 103128, Note_on_c, 3, 58, 0
5, 103140, Note_on_c, 3, 55, 127
5, 103188, Note_on_c, 3, 55, 0
5, 103200, Note_on_c, 3, 57, 123
5, 103200, Note_on_c, 3, 53, 105
5, 103296, Note_on_c, 3, 53, 0
5, 103296, Note_on_c, 3, 57, 0
5, 103320, Note_on_c, 3, 60, 127
5, 103320, Note_on_c, 3, 57, 127
5, 103416, Note_on_c, 3, 57, 0
5, 103416, Note_on_c, 3, 60, 0
5, 103440, Note_on_c, 3, 58, 107
5, 103440, Note_on_c, 3, 55, 114
5, 103584, Note_on_c, 3, 55, 0
5, 103584, Note_on_c, 3, 58, 0
5, 103620, Note_on_c, 3, 53, 113
5, 103620, Note_on_c, 3, 57, 125
5, 103668, Note_on_c, 3, 57, 0
5, 103668, Note_on_c, 3, 53, 0
5, 103680, Note_on_c, 3, 58, 93
5, 103680, Note_on_c, 3, 62, 127
5, 103776, Note_on_c, 3, 62, 0
5, 103776, Note_on_c, 3, 58, 0
5, 103800, Note_on_c, 3, 57, 112
5, 103800, Note_on_c, 3, 60, 105
5, 103896, Note_on_c, 3, 60, 0
5, 103896, Note_on_c, 3, 57, 0
5, 103920, Note_on_c, 3, 48, 107
5, 103920, Note_on_c, 3, 55, 105
5, 104112, Note_on_c, 3, 55, 0
5, 104112, Note_on_c, 3, 48, 0
5, 104160, Note_on_c, 3, 57, 123
5, 104160, Note_on_c, 3, 53, 111
5, 104208, Note_on_c, 3, 53, 0
5, 104208, Note_on_c, 3, 57, 0
5, 107340, Note_on_c, 3, 58, 113
5, 107364, Note_on_c, 3, 58, 0
5, 107370, Note_on_c, 3, 60, 125
5, 107394, Note_on_c, 3, 60, 0
5, 107400, Note_on_c, 3, 62, 121
5, 107448, Note_on_c, 3, 62, 0
5, 107460, Note_on_c, 3, 64, 127
5, 107508, Note_on_c, 3, 64, 0
5, 107520, Note_on_c, 3, 65, 120
5, 107568, Note_on_c, 3, 65, 0
5, 107760, Note_on_c, 3, 57, 102
5, 107760, Note_on_c, 3, 53, 111
5, 107808, Note_on_c, 3, 53, 0
5, 107808, Note_on_c, 3, 57, 0
5, 107820, Note_on_c, 3, 60, 110
5, 107820, Note_on_c, 3, 53, 105
5, 107868, Note_on_c, 3, 53, 0
5, 107868, Note_on_c, 3, 60, 0
5, 107880, Note_on_c, 3, 53, 108
5, 107880, Note_on_c, 3, 60, 120
5, 107928, Note_on_c, 3, 60, 0
5, 107928, Note_on_c, 3, 53, 0
5, 107940, Note_on_c, 3, 53, 102
5, 107940, Note_on_c, 3, 60, 100
5, 107988, Note_on_c, 3, 60, 0
5, 107988, Note_on_c, 3, 53, 0
5, 108000, Note_on_c, 3, 53, 107
5, 108000, Note_on_c, 3, 60, 105
5, 108048, Note_on_c, 3, 60, 0
5, 108048, Note_on_c, 3, 53, 0
5, 108060, Note_on_c, 3, 53, 108
5, 108060, Note_on_c, 3, 60, 104
5, 108108, Note_on_c, 3, 60, 0
5, 108108, Note_on_c, 3, 53, 0
5, 108120, Note_on_c, 3, 53, 105
5, 108120, Note_on_c, 3, 60, 103
5, 108168, Note_on_c, 3, 60, 0
5, 108168, Note_on_c, 3, 53, 0
5, 108180, Note_on_c, 3, 53, 106
5, 108180, Note_on_c, 3, 60, 107
5, 108228, Note_on_c, 3, 60, 0
5, 108228, Note_on_c, 3, 53, 0
5, 108240, Note_on_c, 3, 60, 107
5, 108240, Note_on_c, 3, 53, 117
5, 108288, Note_on_c, 3, 53, 0
5, 108288, Note_on_c, 3, 60, 0
5, 108300, Note_on_c, 3, 60, 109
5, 108300, Note_on_c, 3, 53, 107
5, 108348, Note_on_c, 3, 53, 0
5, 108348, Note_on_c, 3, 60, 0
5, 108360, Note_on_c, 3, 60, 105
5, 108360, Note_on_c, 3, 53, 103
5, 108408, Note_on_c, 3, 53, 0
5, 108408, Note_on_c, 3, 60, 0
5, 108420, Note_on_c, 3, 60, 112
5, 108420, Note_on_c, 3, 53, 118
5, 108468, Note_on_c, 3, 53, 0
5, 108468, Note_on_c, 3, 60, 0
5, 108480, Note_on_c, 3, 60, 108
5, 108480, Note_on_c, 3, 53, 111
5, 108528, Note_on_c, 3, 53, 0
5, 108528, Note_on_c, 3, 60, 0
5, 108540, Note_on_c, 3, 60, 114
5, 108540, Note_on_c, 3, 53, 117
5, 108588, Note_on_c, 3, 53, 0
5, 108588, Note_on_c, 3, 60, 0
5, 108600, Note_on_c, 3, 60, 105
5, 108600, Note_on_c, 3, 53, 104
5, 108648, Note_on_c, 3, 53, 0
5, 108648, Note_on_c, 3, 60, 0
5, 108660, Note_on_c, 3, 60, 109
5, 108660, Note_on_c, 3, 53, 107
5, 108708, Note_on_c, 3, 53, 0
5, 108708, Note_on_c, 3, 60, 0
5, 108720, Note_on_c, 3, 53, 112
5, 108720, Note_on_c, 3, 60, 109
5, 108768, Note_on_c, 3, 60, 0
5, 108768, Note_on_c, 3, 53, 0
5, 108780, Note_on_c, 3, 60, 101
5, 108780, Note_on_c, 3, 57, 99
5, 108828, Note_on_c, 3, 57, 0
5, 108828, Note_on_c, 3, 60, 0
5, 108840, Note_on_c, 3, 60, 107
5, 108840, Note_on_c, 3, 57, 101
5, 108888, Note_on_c, 3, 57, 0
5, 108888, Note_on_c, 3, 60, 0
5, 108900, Note_on_c, 3, 60, 105
5, 108900, Note_on_c, 3, 57, 105
5, 108948, Note_on_c, 3, 57, 0
5, 108948, Note_on_c, 3, 60, 0
5, 108960, Note_on_c, 3, 57, 127
5, 108960, Note_on_c, 3, 60, 108
5, 109056, Note_on_c, 3, 60, 0
5, 109056, Note_on_c, 3, 57, 0
5, 109080, Note_on_c, 3, 53, 116
5, 109080, Note_on_c, 3, 57, 102
5, 109128, Note_on_c, 3, 57, 0
5, 109128, Note_on_c, 3, 53, 0
5, 109140, Note_on_c, 3, 53, 127
5, 109188, Note_on_c, 3, 53, 0
5, 109200, Note_on_c, 3, 58, 115
5, 109248, Note_on_c, 3, 58, 0
5, 109260, Note_on_c, 3, 57, 117
5, 109308, Note_on_c, 3, 57, 0
5, 109320, Note_on_c, 3, 55, 127
5, 109368, Note_on_c, 3, 55, 0
5, 109380, Note_on_c, 3, 53, 125
5, 109404, Note_on_c, 3, 53, 0
5, 109410, Note_on_c, 3, 55, 113
5, 109434, Note_on_c, 3, 55, 0
5, 109440, Note_on_c, 3, 57, 127
5, 109488, Note_on_c, 3, 57, 0
5, 109500, Note_on_c, 3, 55, 127
5, 109548, Note_on_c, 3, 55, 0
5, 109560, Note_on_c, 3, 53, 121
5, 109608, Note_on_c, 3, 53, 0
5, 109620, Note_on_c, 3, 52, 120
5, 109644, Note_on_c, 3, 52, 0
5, 109650, Note_on_c, 3, 53, 114
5, 109674, Note_on_c, 3, 53, 0
5, 109680, Note_on_c, 3, 55, 113
5, 109728, Note_on_c, 3, 55, 0
5, 109740, Note_on_c, 3, 52, 125
5, 109788, Note_on_c, 3, 52, 0
5, 109800, Note_on_c, 3, 48, 116
5, 109848, Note_on_c, 3, 48, 0
5, 109860, Note_on_c, 3, 52, 120
5, 109908, Note_on_c, 3, 52, 0
5, 109920, Note_on_c, 3, 55, 112
5, 109968, Note_on_c, 3, 55, 0
5, 109980, Note_on_c, 3, 52, 118
5, 110028, Note_on_c, 3, 52, 0
5, 110040, Note_on_c, 3, 48, 123
5, 110088, Note_on_c, 3, 48, 0
5, 110100, Note_on_c, 3, 60, 104
5, 110148, Note_on_c, 3, 60, 0
5, 110160, Note_on_c, 3, 57, 127
5, 110208, Note_on_c, 3, 57, 0
5, 110220, Note_on_c, 3, 55, 120
5, 110268, Note_on_c, 3, 55, 0
5, 110280, Note_on_c, 3, 53, 121
5, 110328, Note_on_c, 3, 53, 0
5, 110340, Note_on_c, 3, 52, 102
5, 110364, Note_on_c, 3, 52, 0
5, 110370, Note_on_c, 3, 53, 125
5, 110394, Note_on_c, 3, 53, 0
5, 110400, Note_on_c, 3, 55, 127
5, 110448, Note_on_c, 3, 55, 0
5, 110460, Note_on_c, 3, 48, 127
5, 110508, Note_on_c, 3, 48, 0
5, 110520, Note_on_c, 3, 55, 127
5, 110568, Note_on_c, 3, 55, 0
5, 110580, Note_on_c, 3, 48, 103
5, 110628, Note_on_c, 3, 48, 0
5, 110640, Note_on_c, 3, 57, 107
5, 110688, Note_on_c, 3, 57, 0
5, 110700, Note_on_c, 3, 55, 127
5, 110748, Note_on_c, 3, 55, 0
5, 110760, Note_on_c, 3, 53, 118
5, 110808, Note_on_c, 3, 53, 0
5, 110820, Note_on_c, 3, 52, 103
5, 110844, Note_on_c, 3, 52, 0
5, 110850, Note_on_c, 3, 53, 107
5, 110874, Note_on_c, 3, 53, 0
5, 110880, Note_on_c, 3, 55, 125
5, 110928, Note_on_c, 3, 55, 0
5, 110940, Note_on_c, 3, 48, 120
5, 110988, Note_on_c, 3, 48, 0
5, 111000, Note_on_c, 3, 55, 123
5, 111048, Note_on_c, 3, 55, 0
5, 111060, Note_on_c, 3, 48, 98
5, 111108, Note_on_c, 3, 48, 0
5, 111120, Note_on_c, 3, 53, 111
5, 111168, Note_on_c, 3, 53, 0
5, 111180, Note_on_c, 3, 58, 100
5, 111180, Note_on_c, 3, 55, 110
5, 111228, Note_on_c, 3, 55, 0
5, 111228, Note_on_c, 3, 58, 0
5, 111240, Note_on_c, 3, 48, 112
5, 111240, Note_on_c, 3, 55, 105
5, 111288, Note_on_c, 3, 55, 0
5, 111288, Note_on_c, 3, 48, 0
5, 111300, Note_on_c, 3, 58, 113
5, 111300, Note_on_c, 3, 55, 127
5, 111348, Note_on_c, 3, 55, 0
5, 111348, Note_on_c, 3, 58, 0
5, 111360, Note_on_c, 3, 57, 105
5, 111360, Note_on_c, 3, 53, 110
5, 111408, Note_on_c, 3, 53, 0
5, 111408, Note_on_c, 3, 57, 0
5, 111420, Note_on_c, 3, 58, 105
5, 111420, Note_on_c, 3, 55, 127
5, 111468, Note_on_c, 3, 55, 0
5, 111468, Note_on_c, 3, 58, 0
5, 111480, Note_on_c, 3, 48, 113
5, 111480, Note_on_c, 3, 55, 109
5, 111528, Note_on_c, 3, 55, 0
5, 111528, Note_on_c, 3, 48, 0
5, 111540, Note_on_c, 3, 58, 97
5, 111540, Note_on_c, 3, 55, 127
5, 111588, Note_on_c, 3, 55, 0
5, 111588, Note_on_c, 3, 58, 0
5, 111600, Note_on_c, 3, 53, 127
5, 111600, Note_on_c, 3, 60, 116
5, 111632, Note_on_c, 3, 60, 0
5, 111632, Note_on_c, 3, 53, 0
5, 111640, Note_on_c, 3, 60, 108
5, 111640, Note_on_c, 3, 53, 121
5, 111672, Note_on_c, 3, 53, 0
5, 111672, Note_on_c, 3, 60, 0
5, 111680, Note_on_c, 3, 53, 110
5, 111680, Note_on_c, 3, 60, 104
5, 111712, Note_on_c, 3, 60, 0
5, 111712, Note_on_c, 3, 53, 0
5, 111720, Note_on_c, 3, 60, 113
5, 111720, Note_on_c, 3, 53, 110
5, 111752, Note_on_c, 3, 53, 0
5, 111752, Note_on_c, 3, 60, 0
5, 111760, Note_on_c, 3, 53, 107
5, 111760, Note_on_c, 3, 60, 109
5, 111792, Note_on_c, 3, 60, 0
5, 111792, Note_on_c, 3, 53, 0
5, 111800, Note_on_c, 3, 53, 117
5, 111800, Note_on_c, 3, 60, 109
5, 111832, Note_on_c, 3, 60, 0
5, 111832, Note_on_c, 3, 53, 0
5, 111840, Note_on_c, 3, 53, 104
5, 111840, Note_on_c, 3, 60, 118
5, 111936, Note_on_c, 3, 60, 0
5, 111936, Note_on_c, 3, 53, 0
5, 112560, Note_on_c, 3, 62, 109
5, 112560, Note_on_c, 3, 50, 101
5, 112592, Note_on_c, 3, 50, 0
5, 112592, Note_on_c, 3, 62, 0
5, 112600, Note_on_c, 3, 50, 125
5, 112600, Note_on_c, 3, 62, 110
5, 112632, Note_on_c, 3, 62, 0
5, 112632, Note_on_c, 3, 50, 0
5, 112640, Note_on_c, 3, 62, 108
5, 112640, Note_on_c, 3, 50, 123
5, 112672, Note_on_c, 3, 50, 0
5, 112672, Note_on_c, 3, 62, 0
5, 112680, Note_on_c, 3, 50, 127
5, 112680, Note_on_c, 3, 62, 113
5, 112712, Note_on_c, 3, 62, 0
5, 112712, Note_on_c, 3, 50, 0
5, 112720, Note_on_c, 3, 50, 127
5, 112720, Note_on_c, 3, 62, 114
5, 112752, Note_on_c, 3, 62, 0
5, 112752, Note_on_c, 3, 50, 0
5, 112760, Note_on_c, 3, 50, 127
5, 112760, Note_on_c, 3, 62, 116
5, 112792, Note_on_c, 3, 62, 0
5, 112792, Note_on_c, 3, 50, 0
5, 112800, Note_on_c, 3, 50, 107
5, 112800, Note_on_c, 3, 62, 102
5, 112896, Note_on_c, 3, 62, 0
5, 112896, Note_on_c, 3, 50, 0
5, 113520, Note_on_c, 3, 48, 103
5, 113520, Note_on_c, 3, 60, 109
5, 113552, Note_on_c, 3, 60, 0
5, 113552, Note_on_c, 3, 48, 0
5, 113560, Note_on_c, 3, 48, 127
5, 113560, Note_on_c, 3, 60, 111
5, 113592, Note_on_c, 3, 60, 0
5, 113592, Note_on_c, 3, 48, 0
5, 113600, Note_on_c, 3, 60, 121
5, 113600, Note_on_c, 3, 48, 127
5, 113632, Note_on_c, 3, 48, 0
5, 113632, Note_on_c, 3, 60, 0
5, 113640, Note_on_c, 3, 60, 112
5, 113640, Note_on_c, 3, 48, 127
5, 113672, Note_on_c, 3, 48, 0
5, 113672, Note_on_c, 3, 60, 0
5, 113680, Note_on_c, 3, 48, 127
5, 113680, Note_on_c, 3, 60, 111
5, 113712, Note_on_c, 3, 60, 0
5, 113712, Note_on_c, 3, 48, 0
5, 113720, Note_on_c, 3, 48, 127
5, 113720, Note_on_c, 3, 60, 116
5, 113752, Note_on_c, 3, 60, 0
5, 113752, Note_on_c, 3, 48, 0
5, 113760, Note_on_c, 3, 60, 110
5, 113760, Note_on_c, 3, 48, 100
5, 113856, Note_on_c, 3, 48, 0
5, 113856, Note_on_c, 3, 60, 0
5, 114000, Note_on_c, 3, 47, 123
5, 114000, Note_on_c, 3, 55, 104
5, 114032, Note_on_c, 3, 55, 0
5, 114032, Note_on_c, 3, 47, 0
5, 114040, Note_on_c, 3, 55, 112
5, 114040, Note_on_c, 3, 47, 112
5, 114072, Note_on_c, 3, 47, 0
5, 114072, Note_on_c, 3, 55, 0
5, 114080, Note_on_c, 3, 47, 125
5, 114080, Note_on_c, 3, 55, 114
5, 114112, Note_on_c, 3, 55, 0
5, 114112, Note_on_c, 3, 47, 0
5, 114120, Note_on_c, 3, 47, 120
5, 114120, Note_on_c, 3, 55, 116
5, 114152, Note_on_c, 3, 55, 0
5, 114152, Note_on_c, 3, 47, 0
5, 114160, Note_on_c, 3, 55, 112
5, 114160, Note_on_c, 3, 47, 123
5, 114192, Note_on_c, 3, 47, 0
5, 114192, Note_on_c, 3, 55, 0
5, 114200, Note_on_c, 3, 47, 127
5, 114200, Note_on_c, 3, 55, 117
5, 114232, Note_on_c, 3, 55, 0
5, 114232, Note_on_c, 3, 47, 0
5, 114240, Note_on_c, 3, 47, 125
5, 114240, Note_on_c, 3, 55, 109
5, 114336, Note_on_c, 3, 55, 0
5, 114336, Note_on_c, 3, 47, 0
5, 114480, Note_on_c, 3, 46, 105
5, 114480, Note_on_c, 3, 55, 110
5, 114512, Note_on_c, 3, 55, 0
5, 114512, Note_on_c, 3, 46, 0
5, 114520, Note_on_c, 3, 46, 107
5, 114520, Note_on_c, 3, 55, 113
5, 114552, Note_on_c, 3, 55, 0
5, 114552, Note_on_c, 3, 46, 0
5, 114560, Note_on_c, 3, 46, 107
5, 114560, Note_on_c, 3, 55, 117
5, 114592, Note_on_c, 3, 55, 0
5, 114592, Note_on_c, 3, 46, 0
5, 114600, Note_on_c, 3, 46, 100
5, 114600, Note_on_c, 3, 55, 113
5, 114632, Note_on_c, 3, 55, 0
5, 114632, Note_on_c, 3, 46, 0
5, 114640, Note_on_c, 3, 46, 109
5, 114640, Note_on_c, 3, 55, 105
5, 114672, Note_on_c, 3, 55, 0
5, 114672, Note_on_c, 3, 46, 0
5, 114680, Note_on_c, 3, 46, 100
5, 114680, Note_on_c, 3, 55, 121
5, 114712, Note_on_c, 3, 55, 0
5, 114712, Note_on_c, 3, 46, 0
5, 114720, Note_on_c, 3, 46, 115
5, 114720, Note_on_c, 3, 55, 110
5, 114816, Note_on_c, 3, 55, 0
5, 114816, Note_on_c, 3, 46, 0
5, 120240, Note_on_c, 3, 62, 113
5, 120288, Note_on_c, 3, 62, 0
5, 120300, Note_on_c, 3, 60, 127
5, 120348, Note_on_c, 3, 60, 0
5, 120360, Note_on_c, 3, 57, 120
5, 120408, Note_on_c, 3, 57, 0
5, 120420, Note_on_c, 3, 53, 103
5, 120468, Note_on_c, 3, 53, 0
5, 120480, Note_on_c, 3, 48, 125
5, 120528, Note_on_c, 3, 48, 0
5, 120540, Note_on_c, 3, 57, 103
5, 120588, Note_on_c, 3, 57, 0
5, 120600, Note_on_c, 3, 53, 116
5, 120648, Note_on_c, 3, 53, 0
5, 120660, Note_on_c, 3, 48, 121
5, 120708, Note_on_c, 3, 48, 0
5, 120720, Note_on_c, 3, 62, 114
5, 120768, Note_on_c, 3, 62, 0
5, 120780, Note_on_c, 3, 60, 127
5, 120828, Note_on_c, 3, 60, 0
5, 120840, Note_on_c, 3, 58, 101
5, 120888, Note_on_c, 3, 58, 0
5, 120900, Note_on_c, 3, 55, 118
5, 120948, Note_on_c, 3, 55, 0
5, 120960, Note_on_c, 3, 48, 127
5, 121008, Note_on_c, 3, 48, 0
5, 121020, Note_on_c, 3, 58, 92
5, 121068, Note_on_c, 3, 58, 0
5, 121080, Note_on_c, 3, 55, 123
5, 121128, Note_on_c, 3, 55, 0
5, 121140, Note_on_c, 3, 48, 127
5, 121188, Note_on_c, 3, 48, 0
5, 121200, Note_on_c, 3, 62, 100
5, 121248, Note_on_c, 3, 62, 0
5, 121260, Note_on_c, 3, 60, 121
5, 121308, Note_on_c, 3, 60, 0
5, 121320, Note_on_c, 3, 57, 123
5, 121368, Note_on_c, 3, 57, 0
5, 121380, Note_on_c, 3, 53, 113
5, 121428, Note_on_c, 3, 53, 0
5, 121440, Note_on_c, 3, 48, 127
5, 121488, Note_on_c, 3, 48, 0
5, 121500, Note_on_c, 3, 57, 112
5, 121548, Note_on_c, 3, 57, 0
5, 121560, Note_on_c, 3, 53, 110
5, 121608, Note_on_c, 3, 53, 0
5, 121620, Note_on_c, 3, 48, 114
5, 121668, Note_on_c, 3, 48, 0
5, 121680, Note_on_c, 3, 62, 127
5, 121728, Note_on_c, 3, 62, 0
5, 121740, Note_on_c, 3, 60, 106
5, 121788, Note_on_c, 3, 60, 0
5, 121800, Note_on_c, 3, 58, 86
5, 121848, Note_on_c, 3, 58, 0
5, 121860, Note_on_c, 3, 55, 104
5, 121908, Note_on_c, 3, 55, 0
5, 121920, Note_on_c, 3, 48, 121
5, 121968, Note_on_c, 3, 48, 0
5, 121980, Note_on_c, 3, 58, 100
5, 122028, Note_on_c, 3, 58, 0
5, 122040, Note_on_c, 3, 55, 127
5, 122088, Note_on_c, 3, 55, 0
5, 122100, Note_on_c, 3, 48, 127
5, 122148, Note_on_c, 3, 48, 0
5, 122160, Note_on_c, 3, 57, 107
5, 122160, Note_on_c, 3, 53, 127
5, 122208, Note_on_c, 3, 53, 0
5, 122208, Note_on_c, 3, 57, 0
5, 122880, Note_on_c, 3, 58, 96
5, 122880, Note_on_c, 3, 50, 127
5, 122928, Note_on_c, 3, 50, 0
5, 122928, Note_on_c, 3, 58, 0
5, 123120, Note_on_c, 3, 46, 84
5, 123120, Note_on_c, 3, 50, 103
5, 123312, Note_on_c, 3, 50, 0
5, 123312, Note_on_c, 3, 46, 0
5, 123360, Note_on_c, 3, 48, 98
5, 123360, Note_on_c, 3, 45, 108
5, 123552, Note_on_c, 3, 45, 0
5, 123552, Note_on_c, 3, 48, 0
5, 123600, Note_on_c, 3, 46, 50
5, 123600, Note_on_c, 3, 43, 112
5, 123792, Note_on_c, 3, 43, 0
5, 123792, Note_on_c, 3, 46, 0
5, 123840, Note_on_c, 3, 45, 125
5, 123840, Note_on_c, 3, 41, 123
5, 123888, Note_on_c, 3, 41, 0
5, 123888, Note_on_c, 3, 45, 0
5, 124560, Note_on_c, 3, 58, 95
5, 124560, Note_on_c, 3, 50, 127
5, 124608, Note_on_c, 3, 50, 0
5, 124608, Note_on_c, 3, 58, 0
5, 124800, Note_on_c, 3, 46, 97
5, 124800, Note_on_c, 3, 50, 127
5, 124992, Note_on_c, 3, 50, 0
5, 124992, Note_on_c, 3, 46, 0
5, 125040, Note_on_c, 3, 45, 127
5, 125040, Note_on_c, 3, 48, 118
5, 125232, Note_on_c, 3, 48, 0
5, 125232, Note_on_c, 3, 45, 0
5, 125280, Note_on_c, 3, 46, 89
5, 125280, Note_on_c, 3, 43, 112
5, 125472, Note_on_c, 3, 43, 0
5, 125472, Note_on_c, 3, 46, 0
5, 125520, Note_on_c, 3, 45, 127
5, 125520, Note_on_c, 3, 41, 127
5, 125568, Note_on_c, 3, 41, 0
5, 125568, Note_on_c, 3, 45, 0
5, 125580, Note_on_c, 3, 45, 116
5, 125580, Note_on_c, 3, 41, 120
5, 125628, Note_on_c, 3, 41, 0
5, 125628, Note_on_c, 3, 45, 0
5, 125640, Note_on_c, 3, 46, 99
5, 125640, Note_on_c, 3, 43, 120
5, 125688, Note_on_c, 3, 43, 0
5, 125688, Note_on_c, 3, 46, 0
5, 125700, Note_on_c, 3, 45, 109
5, 125700, Note_on_c, 3, 48, 108
5, 125748, Note_on_c, 3, 48, 0
5, 125748, Note_on_c, 3, 45, 0
5, 125760, Note_on_c, 3, 46, 113
5, 125760, Note_on_c, 3, 50, 108
5, 125856, Note_on_c, 3, 50, 0
5, 125856, Note_on_c, 3, 46, 0
5, 125880, Note_on_c, 3, 50, 120
5, 125880, Note_on_c, 3, 46, 115
5, 125976, Note_on_c, 3, 46, 0
5, 125976, Note_on_c, 3, 50, 0
5, 126000, Note_on_c, 3, 48, 127
5, 126000, Note_on_c, 3, 45, 127
5, 126096, Note_on_c, 3, 45, 0
5, 126096, Note_on_c, 3, 48, 0
5, 126120, Note_on_c, 3, 48, 127
5, 126120, Note_on_c, 3, 45, 121
5, 126216, Note_on_c, 3, 45, 0
5, 126216, Note_on_c, 3, 48, 0
5, 126240, Note_on_c, 3, 46, 96
5, 126240, Note_on_c, 3, 43, 127
5, 126336, Note_on_c, 3, 43, 0
5, 126336, Note_on_c, 3, 46, 0
5, 126360, Note_on_c, 3, 46, 103
5, 126360, Note_on_c, 3, 43, 125
5, 126456, Note_on_c, 3, 43, 0
5, 126456, Note_on_c, 3, 46, 0
5, 126480, Note_on_c, 3, 45, 125
5, 126480, Note_on_c, 3, 41, 125
5, 126528, Note_on_c, 3, 41, 0
5, 126528, Note_on_c, 3, 45, 0
5, 126600, Note_on_c, 3, 65, 109
5, 126600, Note_on_c, 3, 60, 127
5, 126648, Note_on_c, 3, 60, 0
5, 126648, Note_on_c, 3, 65, 0
5, 126720, Note_on_c, 3, 65, 107
5, 126720, Note_on_c, 3, 62, 127
5, 126768, Note_on_c, 3, 62, 0
5, 126768, Note_on_c, 3, 65, 0
5, 126840, Note_on_c, 3, 58, 114
5, 126840, Note_on_c, 3, 62, 105
5, 126888, Note_on_c, 3, 62, 0
5, 126888, Note_on_c, 3, 58, 0
5, 126960, Note_on_c, 3, 60, 121
5, 126960, Note_on_c, 3, 57, 123
5, 127008, Note_on_c, 3, 57, 0
5, 127008, Note_on_c, 3, 60, 0
5, 127080, Note_on_c, 3, 53, 123
5, 127080, Note_on_c, 3, 57, 125
5, 127128, Note_on_c, 3, 57, 0
5, 127128, Note_on_c, 3, 53, 0
5, 127200, Note_on_c, 3, 55, 114
5, 127200, Note_on_c, 3, 52, 96
5, 127248, Note_on_c, 3, 52, 0
5, 127248, Note_on_c, 3, 55, 0
5, 127320, Note_on_c, 3, 52, 121
5, 127320, Note_on_c, 3, 60, 105
5, 127368, Note_on_c, 3, 60, 0
5, 127368, Note_on_c, 3, 52, 0
5, 127440, Note_on_c, 3, 53, 127
5, 127488, Note_on_c, 3, 53, 0
5, 127920, Note_on_c, 3, 53, 108
5, 127920, Note_on_c, 3, 57, 123
5, 127968, Note_on_c, 3, 57, 0
5, 127968, Note_on_c, 3, 53, 0
5, 128400, Note_on_c, 3, 53, 127
5, 128400, Note_on_c, 3, 57, 121
5, 128448, Note_on_c, 3, 57, 0
5, 128448, Note_on_c, 3, 53, 0
5, 128880, Note_on_c, 3, 53, 117
5, 128880, Note_on_c, 3, 57, 127
5, 128928, Note_on_c, 3, 57, 0
5, 128928, Note_on_c, 3, 53, 0
5, 133200, Note_on_c, 3, 60, 112
5, 133200, Note_on_c, 3, 63, 94
5, 133632, Note_on_c, 3, 63, 0
5, 133632, Note_on_c, 3, 60, 0
5, 133680, Note_on_c, 3, 63, 111
5, 133680, Note_on_c, 3, 60, 121
5, 134112, Note_on_c, 3, 60, 0
5, 134112, Note_on_c, 3, 63, 0
5, 135120, Note_on_c, 3, 58, 107
5, 135120, Note_on_c, 3, 50, 127
5, 135168, Note_on_c, 3, 50, 0
5, 135168, Note_on_c, 3, 58, 0
5, 135180, Note_on_c, 3, 53, 120
5, 135180, Note_on_c, 3, 60, 92
5, 135228, Note_on_c, 3, 60, 0
5, 135228, Note_on_c, 3, 53, 0
5, 135240, Note_on_c, 3, 58, 118
5, 135240, Note_on_c, 3, 62, 125
5, 135336, Note_on_c, 3, 62, 0
5, 135336, Note_on_c, 3, 58, 0
5, 135360, Note_on_c, 3, 53, 127
5, 135360, Note_on_c, 3, 60, 127
5, 135408, Note_on_c, 3, 60, 0
5, 135408, Note_on_c, 3, 53, 0
5, 135420, Note_on_c, 3, 62, 105
5, 135420, Note_on_c, 3, 58, 105
5, 135468, Note_on_c, 3, 58, 0
5, 135468, Note_on_c, 3, 62, 0
5, 135480, Note_on_c, 3, 53, 123
5, 135480, Note_on_c, 3, 60, 127
5, 135576, Note_on_c, 3, 60, 0
5, 135576, Note_on_c, 3, 53, 0
5, 135600, Note_on_c, 3, 62, 121
5, 135600, Note_on_c, 3, 58, 123
5, 135752, Note_on_c, 3, 58, 0
5, 135752, Note_on_c, 3, 62, 0
5, 135760, Note_on_c, 3, 50, 127
5, 135760, Note_on_c, 3, 62, 127
5, 135792, Note_on_c, 3, 62, 0
5, 135792, Note_on_c, 3, 50, 0
5, 135800, Note_on_c, 3, 48, 127
5, 135800, Note_on_c, 3, 60, 127
5, 135832, Note_on_c, 3, 60, 0
5, 135832, Note_on_c, 3, 48, 0
5, 135840, Note_on_c, 3, 46, 121
5, 135840, Note_on_c, 3, 58, 123
5, 135872, Note_on_c, 3, 58, 0
5, 135872, Note_on_c, 3, 46, 0
5, 135880, Note_on_c, 3, 62, 127
5, 135880, Note_on_c, 3, 50, 127
5, 135912, Note_on_c, 3, 50, 0
5, 135912, Note_on_c, 3, 62, 0
5, 135920, Note_on_c, 3, 60, 117
5, 135920, Note_on_c, 3, 48, 127
5, 135952, Note_on_c, 3, 48, 0
5, 135952, Note_on_c, 3, 60, 0
5, 135960, Note_on_c, 3, 46, 109
5, 135960, Note_on_c, 3, 58, 115
5, 135992, Note_on_c, 3, 58, 0
5, 135992, Note_on_c, 3, 46, 0
5, 136000, Note_on_c, 3, 67, 123
5, 136000, Note_on_c, 3, 55, 109
5, 136032, Note_on_c, 3, 55, 0
5, 136032, Note_on_c, 3, 67, 0
5, 136040, Note_on_c, 3, 52, 123
5, 136040, Note_on_c, 3, 64, 125
5, 136072, Note_on_c, 3, 64, 0
5, 136072, Note_on_c, 3, 52, 0
5, 136080, Note_on_c, 3, 53, 123
5, 136080, Note_on_c, 3, 65, 118
5, 136232, Note_on_c, 3, 65, 0
5, 136232, Note_on_c, 3, 53, 0
5, 136240, Note_on_c, 3, 55, 127
5, 136240, Note_on_c, 3, 67, 121
5, 136272, Note_on_c, 3, 67, 0
5, 136272, Note_on_c, 3, 55, 0
5, 136280, Note_on_c, 3, 53, 125
5, 136280, Note_on_c, 3, 65, 112
5, 136312, Note_on_c, 3, 65, 0
5, 136312, Note_on_c, 3, 53, 0
5, 136320, Note_on_c, 3, 62, 127
5, 136320, Note_on_c, 3, 50, 127
5, 136352, Note_on_c, 3, 50, 0
5, 136352, Note_on_c, 3, 62, 0
5, 136360, Note_on_c, 3, 53, 127
5, 136360, Note_on_c, 3, 65, 127
5, 136392, Note_on_c, 3, 65, 0
5, 136392, Note_on_c, 3, 53, 0
5, 136400, Note_on_c, 3, 51, 109
5, 136400, Note_on_c, 3, 63, 118
5, 136432, Note_on_c, 3, 63, 0
5, 136432, Note_on_c, 3, 51, 0
5, 136440, Note_on_c, 3, 48, 112
5, 136440, Note_on_c, 3, 60, 127
5, 136472, Note_on_c, 3, 60, 0
5, 136472, Note_on_c, 3, 48, 0
5, 136480, Note_on_c, 3, 51, 123
5, 136480, Note_on_c, 3, 63, 113
5, 136512, Note_on_c, 3, 63, 0
5, 136512, Note_on_c, 3, 51, 0
5, 136520, Note_on_c, 3, 50, 127
5, 136520, Note_on_c, 3, 62, 118
5, 136552, Note_on_c, 3, 62, 0
5, 136552, Note_on_c, 3, 50, 0
5, 136560, Note_on_c, 3, 46, 127
5, 136560, Note_on_c, 3, 58, 118
5, 136712, Note_on_c, 3, 58, 0
5, 136712, Note_on_c, 3, 46, 0
5, 136720, Note_on_c, 3, 50, 121
5, 136720, Note_on_c, 3, 62, 118
5, 136752, Note_on_c, 3, 62, 0
5, 136752, Note_on_c, 3, 50, 0
5, 136760, Note_on_c, 3, 48, 127
5, 136760, Note_on_c, 3, 60, 117
5, 136792, Note_on_c, 3, 60, 0
5, 136792, Note_on_c, 3, 48, 0
5, 136800, Note_on_c, 3, 46, 115
5, 136800, Note_on_c, 3, 58, 113
5, 136832, Note_on_c, 3, 58, 0
5, 136832, Note_on_c, 3, 46, 0
5, 136840, Note_on_c, 3, 62, 127
5, 136840, Note_on_c, 3, 50, 98
5, 136872, Note_on_c, 3, 50, 0
5, 136872, Note_on_c, 3, 62, 0
5, 136880, Note_on_c, 3, 60, 121
5, 136880, Note_on_c, 3, 48, 127
5, 136912, Note_on_c, 3, 48, 0
5, 136912, Note_on_c, 3, 60, 0
5, 136920, Note_on_c, 3, 46, 126
5, 136920, Note_on_c, 3, 58, 121
5, 136952, Note_on_c, 3, 58, 0
5, 136952, Note_on_c, 3, 46, 0
5, 136960, Note_on_c, 3, 67, 127
5, 136960, Note_on_c, 3, 55, 105
5, 136992, Note_on_c, 3, 55, 0
5, 136992, Note_on_c, 3, 67, 0
5, 137000, Note_on_c, 3, 52, 127
5, 137000, Note_on_c, 3, 64, 125
5, 137032, Note_on_c, 3, 64, 0
5, 137032, Note_on_c, 3, 52, 0
5, 137040, Note_on_c, 3, 65, 114
5, 137040, Note_on_c, 3, 53, 127
5, 137192, Note_on_c, 3, 53, 0
5, 137192, Note_on_c, 3, 65, 0
5, 137200, Note_on_c, 3, 67, 118
5, 137200, Note_on_c, 3, 55, 107
5, 137232, Note_on_c, 3, 55, 0
5, 137232, Note_on_c, 3, 67, 0
5, 137240, Note_on_c, 3, 53, 127
5, 137240, Note_on_c, 3, 65, 120
5, 137272, Note_on_c, 3, 65, 0
5, 137272, Note_on_c, 3, 53, 0
5, 137280, Note_on_c, 3, 50, 127
5, 137280, Note_on_c, 3, 62, 127
5, 137312, Note_on_c, 3, 62, 0
5, 137312, Note_on_c, 3, 50, 0
5, 137320, Note_on_c, 3, 53, 127
5, 137320, Note_on_c, 3, 65, 127
5, 137352, Note_on_c, 3, 65, 0
5, 137352, Note_on_c, 3, 53, 0
5, 137360, Note_on_c, 3, 51, 118
5, 137360, Note_on_c, 3, 63, 103
5, 137392, Note_on_c, 3, 63, 0
5, 137392, Note_on_c, 3, 51, 0
5, 137400, Note_on_c, 3, 48, 123
5, 137400, Note_on_c, 3, 60, 127
5, 137432, Note_on_c, 3, 60, 0
5, 137432, Note_on_c, 3, 48, 0
5, 137440, Note_on_c, 3, 51, 111
5, 137440, Note_on_c, 3, 63, 113
5, 137472, Note_on_c, 3, 63, 0
5, 137472, Note_on_c, 3, 51, 0
5, 137480, Note_on_c, 3, 62, 118
5, 137480, Note_on_c, 3, 50, 127
5, 137512, Note_on_c, 3, 50, 0
5, 137512, Note_on_c, 3, 62, 0
5, 137520, Note_on_c, 3, 58, 88
5, 137520, Note_on_c, 3, 46, 127
5, 137616, Note_on_c, 3, 46, 0
5, 137672, Note_on_c, 3, 58, 0
5, 137680, Note_on_c, 3, 60, 125
5, 137712, Note_on_c, 3, 60, 0
5, 137720, Note_on_c, 3, 62, 123
5, 137752, Note_on_c, 3, 62, 0
5, 137760, Note_on_c, 3, 55, 117
5, 137912, Note_on_c, 3, 55, 0
5, 137920, Note_on_c, 3, 57, 127
5, 137952, Note_on_c, 3, 57, 0
5, 137960, Note_on_c, 3, 58, 121
5, 137992, Note_on_c, 3, 58, 0
5, 138000, Note_on_c, 3, 64, 113
5, 138000, Note_on_c, 3, 52, 118
5, 138152, Note_on_c, 3, 52, 0
5, 138152, Note_on_c, 3, 64, 0
5, 138160, Note_on_c, 3, 53, 127
5, 138160, Note_on_c, 3, 65, 120
5, 138192, Note_on_c, 3, 65, 0
5, 138192, Note_on_c, 3, 53, 0
5, 138200, Note_on_c, 3, 55, 111
5, 138200, Note_on_c, 3, 67, 127
5, 138232, Note_on_c, 3, 67, 0
5, 138232, Note_on_c, 3, 55, 0
5, 138240, Note_on_c, 3, 48, 127
5, 138240, Note_on_c, 3, 60, 127
5, 138392, Note_on_c, 3, 60, 0
5, 138392, Note_on_c, 3, 48, 0
5, 138400, Note_on_c, 3, 50, 127
5, 138400, Note_on_c, 3, 62, 127
5, 138432, Note_on_c, 3, 62, 0
5, 138432, Note_on_c, 3, 50, 0
5, 138440, Note_on_c, 3, 64, 112
5, 138440, Note_on_c, 3, 52, 98
5, 138472, Note_on_c, 3, 52, 0
5, 138472, Note_on_c, 3, 64, 0
5, 138480, Note_on_c, 3, 53, 127
5, 138480, Note_on_c, 3, 65, 127
5, 138576, Note_on_c, 3, 65, 0
5, 138576, Note_on_c, 3, 53, 0
5, 138600, Note_on_c, 3, 48, 127
5, 138600, Note_on_c, 3, 60, 127
5, 138912, Note_on_c, 3, 60, 0
5, 138912, Note_on_c, 3, 48, 0
5, 138960, Note_on_c, 3, 69, 110
5, 138960, Note_on_c, 3, 57, 117
5, 139056, Note_on_c, 3, 57, 0
5, 139056, Note_on_c, 3, 69, 0
5, 139080, Note_on_c, 3, 53, 127
5, 139080, Note_on_c, 3, 65, 123
5, 139392, Note_on_c, 3, 65, 0
5, 139392, Note_on_c, 3, 53, 0
5, 139440, Note_on_c, 3, 65, 127
5, 139440, Note_on_c, 3, 53, 127
5, 139536, Note_on_c, 3, 53, 0
5, 139536, Note_on_c, 3, 65, 0
5, 139560, Note_on_c, 3, 48, 127
5, 139560, Note_on_c, 3, 60, 125
5, 139872, Note_on_c, 3, 60, 0
5, 139872, Note_on_c, 3, 48, 0
5, 139920, Note_on_c, 3, 57, 125
5, 139920, Note_on_c, 3, 69, 125
5, 140016, Note_on_c, 3, 69, 0
5, 140016, Note_on_c, 3, 57, 0
5, 140040, Note_on_c, 3, 53, 127
5, 140040, Note_on_c, 3, 65, 123
5, 140136, Note_on_c, 3, 65, 0
5, 140136, Note_on_c, 3, 53, 0
5, 140160, Note_on_c, 3, 53, 110
5, 140160, Note_on_c, 3, 65, 104
5, 140352, Note_on_c, 3, 65, 0
5, 140352, Note_on_c, 3, 53, 0
5, 140400, Note_on_c, 3, 57, 127
5, 140400, Note_on_c, 3, 69, 127
5, 140496, Note_on_c, 3, 69, 0
5, 140496, Note_on_c, 3, 57, 0
5, 140520, Note_on_c, 3, 53, 127
5, 140520, Note_on_c, 3, 65, 127
5, 140616, Note_on_c, 3, 65, 0
5, 140616, Note_on_c, 3, 53, 0
5, 140640, Note_on_c, 3, 69, 107
5, 140640, Note_on_c, 3, 57, 111
5, 140736, Note_on_c, 3, 57, 0
5, 140736, Note_on_c, 3, 69, 0
5, 140760, Note_on_c, 3, 65, 127
5, 140760, Note_on_c, 3, 53, 127
5, 140856, Note_on_c, 3, 53, 0
5, 140856, Note_on_c, 3, 65, 0
5, 140880, Note_on_c, 3, 69, 103
5, 140880, Note_on_c, 3, 57, 121
5, 140976, Note_on_c, 3, 57, 0
5, 140976, Note_on_c, 3, 69, 0
5, 141000, Note_on_c, 3, 53, 127
5, 141000, Note_on_c, 3, 65, 127
5, 141096, Note_on_c, 3, 65, 0
5, 141096, Note_on_c, 3, 53, 0
5, 141120, Note_on_c, 3, 55, 118
5, 141120, Note_on_c, 3, 67, 125
5, 141216, Note_on_c, 3, 67, 0
5, 141216, Note_on_c, 3, 55, 0
5, 141240, Note_on_c, 3, 52, 127
5, 141240, Note_on_c, 3, 64, 104
5, 141336, Note_on_c, 3, 64, 0
5, 141336, Note_on_c, 3, 52, 0
5, 141360, Note_on_c, 3, 57, 100
5, 141360, Note_on_c, 3, 69, 100
5, 141456, Note_on_c, 3, 69, 0
5, 141456, Note_on_c, 3, 57, 0
5, 141480, Note_on_c, 3, 53, 108
5, 141480, Note_on_c, 3, 65, 113
5, 141576, Note_on_c, 3, 65, 0
5, 141576, Note_on_c, 3, 53, 0
5, 141600, Note_on_c, 3, 57, 104
5, 141600, Note_on_c, 3, 69, 127
5, 141696, Note_on_c, 3, 69, 0
5, 141696, Note_on_c, 3, 57, 0
5, 141720, Note_on_c, 3, 65, 127
5, 141720, Note_on_c, 3, 53, 120
5, 141816, Note_on_c, 3, 53, 0
5, 141816, Note_on_c, 3, 65, 0
5, 141840, Note_on_c, 3, 69, 127
5, 141840, Note_on_c, 3, 57, 107
5, 141936, Note_on_c, 3, 57, 0
5, 141936, Note_on_c, 3, 69, 0
5, 141960, Note_on_c, 3, 53, 117
5, 141960, Note_on_c, 3, 65, 127
5, 142056, Note_on_c, 3, 65, 0
5, 142056, Note_on_c, 3, 53, 0
5, 142080, Note_on_c, 3, 55, 114
5, 142080, Note_on_c, 3, 67, 120
5, 142176, Note_on_c, 3, 67, 0
5, 142176, Note_on_c, 3, 55, 0
5, 142200, Note_on_c, 3, 64, 127
5, 142200, Note_on_c, 3, 52, 109
5, 142296, Note_on_c, 3, 52, 0
5, 142296, Note_on_c, 3, 64, 0
5, 142320, Note_on_c, 3, 57, 106
5, 142320, Note_on_c, 3, 69, 127
5, 142416, Note_on_c, 3, 69, 0
5, 142416, Note_on_c, 3, 57, 0
5, 142440, Note_on_c, 3, 53, 123
5, 142440, Note_on_c, 3, 65, 125
5, 142536, Note_on_c, 3, 65, 0
5, 142536, Note_on_c, 3, 53, 0
5, 142560, Note_on_c, 3, 57, 109
5, 142560, Note_on_c, 3, 69, 120
5, 142656, Note_on_c, 3, 69, 0
5, 142656, Note_on_c, 3, 57, 0
5, 142680, Note_on_c, 3, 65, 110
5, 142680, Note_on_c, 3, 53, 105
5, 142776, Note_on_c, 3, 53, 0
5, 142776, Note_on_c, 3, 65, 0
5, 142800, Note_on_c, 3, 57, 109
5, 142800, Note_on_c, 3, 53, 109
5, 143328, Note_on_c, 3, 53, 0
5, 143328, Note_on_c, 3, 57, 0
5, 145680, Note_on_c, 3, 48, 127
5, 145680, Note_on_c, 3, 55, 107
5, 145872, Note_on_c, 3, 55, 0
5, 145872, Note_on_c, 3, 48, 0
5, 145920, Note_on_c, 3, 57, 106
5, 145920, Note_on_c, 3, 53, 112
5, 145968, Note_on_c, 3, 53, 0
5, 145968, Note_on_c, 3, 57, 0
5, 146040, Note_on_c, 3, 55, 113
5, 146040, Note_on_c, 3, 48, 127
5, 146088, Note_on_c, 3, 48, 0
5, 146088, Note_on_c, 3, 55, 0
5, 146640, Note_on_c, 3, 48, 127
5, 146640, Note_on_c, 3, 55, 99
5, 146832, Note_on_c, 3, 55, 0
5, 146832, Note_on_c, 3, 48, 0
5, 146880, Note_on_c, 3, 57, 112
5, 146880, Note_on_c, 3, 53, 113
5, 146928, Note_on_c, 3, 53, 0
5, 146928, Note_on_c, 3, 57, 0
5, 147000, Note_on_c, 3, 55, 111
5, 147000, Note_on_c, 3, 48, 106
5, 147048, Note_on_c, 3, 48, 0
5, 147048, Note_on_c, 3, 55, 0
5, 147120, Note_on_c, 3, 41, 121
5, 147120, Note_on_c, 3, 53, 114
5, 147168, Note_on_c, 3, 53, 0
5, 147168, Note_on_c, 3, 41, 0
5, 147180, Note_on_c, 3, 48, 120
5, 147228, Note_on_c, 3, 48, 0
5, 147240, Note_on_c, 3, 53, 109
5, 147288, Note_on_c, 3, 53, 0
5, 147300, Note_on_c, 3, 48, 120
5, 147348, Note_on_c, 3, 48, 0
5, 147360, Note_on_c, 3, 52, 94
5, 147408, Note_on_c, 3, 52, 0
5, 147420, Note_on_c, 3, 48, 117
5, 147468, Note_on_c, 3, 48, 0
5, 147480, Note_on_c, 3, 55, 113
5, 147528, Note_on_c, 3, 55, 0
5, 147540, Note_on_c, 3, 48, 106
5, 147588, Note_on_c, 3, 48, 0
5, 147600, Note_on_c, 3, 53, 111
5, 147648, Note_on_c, 3, 53, 0
5, 147660, Note_on_c, 3, 48, 114
5, 147708, Note_on_c, 3, 48, 0
5, 147720, Note_on_c, 3, 57, 121
5, 147768, Note_on_c, 3, 57, 0
5, 147780, Note_on_c, 3, 48, 127
5, 147828, Note_on_c, 3, 48, 0
5, 147840, Note_on_c, 3, 48, 80
5, 147840, Note_on_c, 3, 55, 103
5, 147888, Note_on_c, 3, 55, 0
5, 147900, Note_on_c, 3, 48, 96
5, 147948, Note_on_c, 3, 48, 0
5, 147960, Note_on_c, 3, 55, 105
5, 147984, Note_on_c, 3, 48, 0
5, 148008, Note_on_c, 3, 55, 0
5, 148020, Note_on_c, 3, 48, 93
5, 148068, Note_on_c, 3, 48, 0
5, 148080, Note_on_c, 3, 41, 127
5, 148080, Note_on_c, 3, 53, 104
5, 148128, Note_on_c, 3, 53, 0
5, 148128, Note_on_c, 3, 41, 0
5, 148140, Note_on_c, 3, 48, 123
5, 148188, Note_on_c, 3, 48, 0
5, 148200, Note_on_c, 3, 53, 104
5, 148248, Note_on_c, 3, 53, 0
5, 148260, Note_on_c, 3, 48, 104
5, 148308, Note_on_c, 3, 48, 0
5, 148320, Note_on_c, 3, 52, 120
5, 148368, Note_on_c, 3, 52, 0
5, 148380, Note_on_c, 3, 48, 121
5, 148428, Note_on_c, 3, 48, 0
5, 148440, Note_on_c, 3, 55, 102
5, 148488, Note_on_c, 3, 55, 0
5, 148500, Note_on_c, 3, 48, 100
5, 148548, Note_on_c, 3, 48, 0
5, 148560, Note_on_c, 3, 53, 102
5, 148608, Note_on_c, 3, 53, 0
5, 148620, Note_on_c, 3, 48, 117
5, 148668, Note_on_c, 3, 48, 0
5, 148680, Note_on_c, 3, 57, 116
5, 148728, Note_on_c, 3, 57, 0
5, 148740, Note_on_c, 3, 48, 120
5, 148788, Note_on_c, 3, 48, 0
5, 148800, Note_on_c, 3, 48, 80
5, 148800, Note_on_c, 3, 55, 105
5, 148848, Note_on_c, 3, 55, 0
5, 148860, Note_on_c, 3, 48, 102
5, 148908, Note_on_c, 3, 48, 0
5, 148920, Note_on_c, 3, 55, 105
5, 148944, Note_on_c, 3, 48, 0
5, 148968, Note_on_c, 3, 55, 0
5, 148980, Note_on_c, 3, 48, 114
5, 149028, Note_on_c, 3, 48, 0
5, 149040, Note_on_c, 3, 41, 113
5, 149040, Note_on_c, 3, 53, 104
5, 149088, Note_on_c, 3, 53, 0
5, 149088, Note_on_c, 3, 41, 0
5, 149280, Note_on_c, 3, 48, 80
5, 149280, Note_on_c, 3, 55, 114
5, 149328, Note_on_c, 3, 55, 0
5, 149340, Note_on_c, 3, 48, 125
5, 149388, Note_on_c, 3, 48, 0
5, 149400, Note_on_c, 3, 55, 102
5, 149424, Note_on_c, 3, 48, 0
5, 149448, Note_on_c, 3, 55, 0
5, 149460, Note_on_c, 3, 48, 125
5, 149508, Note_on_c, 3, 48, 0
5, 149520, Note_on_c, 3, 41, 127
5, 149520, Note_on_c, 3, 53, 114
5, 149568, Note_on_c, 3, 53, 0
5, 149568, Note_on_c, 3, 41, 0
5, 149760, Note_on_c, 3, 48, 80
5, 149760, Note_on_c, 3, 55, 127
5, 149808, Note_on_c, 3, 55, 0
5, 149820, Note_on_c, 3, 48, 127
5, 149868, Note_on_c, 3, 48, 0
5, 149880, Note_on_c, 3, 55, 127
5, 149904, Note_on_c, 3, 48, 0
5, 149928, Note_on_c, 3, 55, 0
5, 149940, Note_on_c, 3, 48, 127
5, 149988, Note_on_c, 3, 48, 0
5, 150000, Note_on_c, 3, 53, 113
5, 150000, Note_on_c, 3, 41, 125
5, 150048, Note_on_c, 3, 41, 0
5, 150048, Note_on_c, 3, 53, 0
5, 150240, Note_on_c, 3, 41, 127
5, 150240, Note_on_c, 3, 48, 127
5, 150288, Note_on_c, 3, 48, 0
5, 150288, Note_on_c, 3, 41, 0
5, 150480, Note_on_c, 3, 41, 101
5, 150480, Note_on_c, 3, 48, 104
5, 150536, Note_on_c, 3, 48, 0
5, 150536, Note_on_c, 3, 41, 0
5, 150720, Note_on_c, 3, 41, 127
5, 150720, Note_on_c, 3, 48, 127
5, 150768, Note_on_c, 3, 48, 0
5, 150768, Note_on_c, 3, 41, 0
5, 150960, Note_on_c, 3, 41, 121
5, 150960, Note_on_c, 3, 48, 123
5, 151008, Note_on_c, 3, 48, 0
5, 151008, Note_on_c, 3, 41, 0
5, 153600, Note_on_c, 3, 58, 123
5, 153648, Note_on_c, 3, 58, 0
5, 153660, Note_on_c, 3, 60, 127
5, 153708, Note_on_c, 3, 60, 0
5, 153720, Note_on_c, 3, 62, 127
5, 153768, Note_on_c, 3, 62, 0
5, 153780, Note_on_c, 3, 64, 117
5, 153828, Note_on_c, 3, 64, 0
5, 153840, Note_on_c, 3, 65, 127
5, 153888, Note_on_c, 3, 65, 0
5, 154080, Note_on_c, 3, 46, 126
5, 154128, Note_on_c, 3, 46, 0
5, 154140, Note_on_c, 3, 48, 127
5, 154188, Note_on_c, 3, 48, 0
5, 154200, Note_on_c, 3, 50, 127
5, 154248, Note_on_c, 3, 50, 0
5, 154260, Note_on_c, 3, 52, 127
5, 154308, Note_on_c, 3, 52, 0
5, 154320, Note_on_c, 3, 53, 127
5, 154512, Note_on_c, 3, 53, 0
5, 154560, Note_on_c, 3, 55, 109
5, 154560, Note_on_c, 3, 52, 127
5, 154752, Note_on_c, 3, 52, 0
5, 154752, Note_on_c, 3, 55, 0
5, 154800, Note_on_c, 3, 53, 127
5, 154800, Note_on_c, 3, 57, 114
5, 154992, Note_on_c, 3, 57, 0
5, 154992, Note_on_c, 3, 53, 0
5, 155040, Note_on_c, 3, 53, 127
5, 155040, Note_on_c, 3, 57, 107
5, 155136, Note_on_c, 3, 57, 0
5, 155136, Note_on_c, 3, 53, 0
5, 155160, Note_on_c, 3, 53, 127
5, 155160, Note_on_c, 3, 57, 125
5, 155256, Note_on_c, 3, 57, 0
5, 155256, Note_on_c, 3, 53, 0
5, 155280, Note_on_c, 3, 53, 127
5, 155280, Note_on_c, 3, 57, 123
5, 155472, Note_on_c, 3, 57, 0
5, 155472, Note_on_c, 3, 53, 0
5, 155520, Note_on_c, 3, 41, 120
5, 155712, Note_on_c, 3, 41, 0
5, 155760, Note_on_c, 3, 41, 127
5, 155952, Note_on_c, 3, 41, 0
5, 155952, End_track
6, 0, Start_track
6, 0, MIDI_port, 0
6, 0, Title_t, "Horns"
6, 0, Program_c, 4, 60
6, 0, Control_c, 4, 7, 120
6, 2880, Note_on_c, 4, 48, 127
6, 2880, Note_on_c, 4, 60, 127
6, 2976, Note_on_c, 4, 60, 0
6, 2976, Note_on_c, 4, 48, 0
6, 3000, Note_on_c, 4, 60, 127
6, 3000, Note_on_c, 4, 48, 127
6, 3096, Note_on_c, 4, 48, 0
6, 3096, Note_on_c, 4, 60, 0
6, 3120, Note_on_c, 4, 60, 104
6, 3120, Note_on_c, 4, 48, 114
6, 3264, Note_on_c, 4, 48, 0
6, 3264, Note_on_c, 4, 60, 0
6, 3300, Note_on_c, 4, 53, 100
6, 3300, Note_on_c, 4, 65, 118
6, 3348, Note_on_c, 4, 65, 0
6, 3348, Note_on_c, 4, 53, 0
6, 3360, Note_on_c, 4, 65, 109
6, 3360, Note_on_c, 4, 53, 102
6, 3456, Note_on_c, 4, 53, 0
6, 3456, Note_on_c, 4, 65, 0
6, 3480, Note_on_c, 4, 65, 123
6, 3480, Note_on_c, 4, 53, 108
6, 3576, Note_on_c, 4, 53, 0
6, 3576, Note_on_c, 4, 65, 0
6, 3600, Note_on_c, 4, 72, 118
6, 3600, Note_on_c, 4, 60, 109
6, 3696, Note_on_c, 4, 60, 0
6, 3696, Note_on_c, 4, 72, 0
6, 3840, Note_on_c, 4, 60, 109
6, 3840, Note_on_c, 4, 72, 118
6, 3936, Note_on_c, 4, 72, 0
6, 3936, Note_on_c, 4, 60, 0
6, 4080, Note_on_c, 4, 60, 109
6, 4080, Note_on_c, 4, 72, 118
6, 4176, Note_on_c, 4, 72, 0
6, 4176, Note_on_c, 4, 60, 0
6, 4320, Note_on_c, 4, 60, 109
6, 4320, Note_on_c, 4, 72, 118
6, 4416, Note_on_c, 4, 72, 0
6, 4416, Note_on_c, 4, 60, 0
6, 4560, Note_on_c, 4, 60, 109
6, 4560, Note_on_c, 4, 72, 118
6, 4656, Note_on_c, 4, 72, 0
6, 4656, Note_on_c, 4, 60, 0
6, 4800, Note_on_c, 4, 60, 109
6, 4800, Note_on_c, 4, 72, 118
6, 4896, Note_on_c, 4, 72, 0
6, 4896, Note_on_c, 4, 60, 0
6, 5040, Note_on_c, 4, 60, 109
6, 5040, Note_on_c, 4, 72, 118
6, 5136, Note_on_c, 4, 72, 0
6, 5136, Note_on_c, 4, 60, 0
6, 5280, Note_on_c, 4, 60, 109
6, 5280, Note_on_c, 4, 72, 118
6, 5376, Note_on_c, 4, 72, 0
6, 5376, Note_on_c, 4, 60, 0
6, 5520, Note_on_c, 4, 60, 109
6, 5520, Note_on_c, 4, 72, 118
6, 5616, Note_on_c, 4, 72, 0
6, 5616, Note_on_c, 4, 60, 0
6, 5760, Note_on_c, 4, 60, 109
6, 5760, Note_on_c, 4, 72, 118
6, 5816, Note_on_c, 4, 72, 0
6, 5816, Note_on_c, 4, 60, 0
6, 6720, Note_on_c, 4, 53, 105
6, 6720, Note_on_c, 4, 60, 108
6, 6912, Note_on_c, 4, 60, 0
6, 6912, Note_on_c, 4, 53, 0
6, 6960, Note_on_c, 4, 60, 102
6, 6960, Note_on_c, 4, 53, 99
6, 7152, Note_on_c, 4, 53, 0
6, 7152, Note_on_c, 4, 60, 0
6, 7200, Note_on_c, 4, 53, 107
6, 7200, Note_on_c, 4, 60, 108
6, 7392, Note_on_c, 4, 60, 0
6, 7392, Note_on_c, 4, 53, 0
6, 7440, Note_on_c, 4, 60, 110
6, 7440, Note_on_c, 4, 53, 112
6, 7632, Note_on_c, 4, 53, 0
6, 7632, Note_on_c, 4, 60, 0
6, 7680, Note_on_c, 4, 60, 107
6, 7680, Note_on_c, 4, 53, 105
6, 7728, Note_on_c, 4, 53, 0
6, 7728, Note_on_c, 4, 60, 0
6, 7740, Note_on_c, 4, 60, 107
6, 7740, Note_on_c, 4, 53, 113
6, 7788, Note_on_c, 4, 53, 0
6, 7788, Note_on_c, 4, 60, 0
6, 7860, Note_on_c, 4, 60, 109
6, 7860, Note_on_c, 4, 53, 104
6, 7908, Note_on_c, 4, 53, 0
6, 7908, Note_on_c, 4, 60, 0
6, 7980, Note_on_c, 4, 60, 107
6, 7980, Note_on_c, 4, 53, 103
6, 8028, Note_on_c, 4, 53, 0
6, 8028, Note_on_c, 4, 60, 0
6, 8100, Note_on_c, 4, 53, 107
6, 8100, Note_on_c, 4, 60, 112
6, 8148, Note_on_c, 4, 60, 0
6, 8148, Note_on_c, 4, 53, 0
6, 8220, Note_on_c, 4, 53, 108
6, 8220, Note_on_c, 4, 60, 109
6, 8268, Note_on_c, 4, 60, 0
6, 8268, Note_on_c, 4, 53, 0
6, 8340, Note_on_c, 4, 60, 116
6, 8340, Note_on_c, 4, 53, 116
6, 8388, Note_on_c, 4, 53, 0
6, 8388, Note_on_c, 4, 60, 0
6, 8460, Note_on_c, 4, 60, 99
6, 8460, Note_on_c, 4, 53, 50
6, 8508, Note_on_c, 4, 53, 0
6, 8508, Note_on_c, 4, 60, 0
6, 8580, Note_on_c, 4, 53, 99
6, 8580, Note_on_c, 4, 60, 98
6, 8628, Note_on_c, 4, 60, 0
6, 8628, Note_on_c, 4, 53, 0
6, 8640, Note_on_c, 4, 60, 127
6, 8640, Note_on_c, 4, 53, 109
6, 8688, Note_on_c, 4, 53, 0
6, 8688, Note_on_c, 4, 60, 0
6, 8700, Note_on_c, 4, 69, 125
6, 8700, Note_on_c, 4, 65, 105
6, 8748, Note_on_c, 4, 65, 0
6, 8748, Note_on_c, 4, 69, 0
6, 8760, Note_on_c, 4, 67, 127
6, 8760, Note_on_c, 4, 70, 127
6, 8808, Note_on_c, 4, 70, 0
6, 8808, Note_on_c, 4, 67, 0
6, 8820, Note_on_c, 4, 70, 116
6, 8820, Note_on_c, 4, 67, 112
6, 8868, Note_on_c, 4, 67, 0
6, 8868, Note_on_c, 4, 70, 0
6, 8880, Note_on_c, 4, 69, 110
6, 8880, Note_on_c, 4, 72, 127
6, 8928, Note_on_c, 4, 72, 0
6, 8928, Note_on_c, 4, 69, 0
6, 8940, Note_on_c, 4, 70, 127
6, 8940, Note_on_c, 4, 67, 127
6, 8964, Note_on_c, 4, 67, 0
6, 8964, Note_on_c, 4, 70, 0
6, 8970, Note_on_c, 4, 65, 101
6, 8970, Note_on_c, 4, 69, 123
6, 8994, Note_on_c, 4, 69, 0
6, 8994, Note_on_c, 4, 65, 0
6, 9000, Note_on_c, 4, 67, 109
6, 9000, Note_on_c, 4, 60, 103
6, 9048, Note_on_c, 4, 60, 0
6, 9048, Note_on_c, 4, 67, 0
6, 9060, Note_on_c, 4, 60, 127
6, 9108, Note_on_c, 4, 60, 0
6, 9120, Note_on_c, 4, 65, 127
6, 9120, Note_on_c, 4, 57, 100
6, 9168, Note_on_c, 4, 57, 0
6, 9168, Note_on_c, 4, 65, 0
6, 9180, Note_on_c, 4, 60, 120
6, 9180, Note_on_c, 4, 67, 127
6, 9228, Note_on_c, 4, 67, 0
6, 9228, Note_on_c, 4, 60, 0
6, 9240, Note_on_c, 4, 65, 123
6, 9240, Note_on_c, 4, 69, 127
6, 9336, Note_on_c, 4, 69, 0
6, 9336, Note_on_c, 4, 65, 0
6, 9360, Note_on_c, 4, 67, 127
6, 9360, Note_on_c, 4, 60, 127
6, 9408, Note_on_c, 4, 60, 0
6, 9408, Note_on_c, 4, 67, 0
6, 9420, Note_on_c, 4, 65, 125
6, 9420, Note_on_c, 4, 69, 127
6, 9468, Note_on_c, 4, 69, 0
6, 9468, Note_on_c, 4, 65, 0
6, 9480, Note_on_c, 4, 67, 127
6, 9480, Note_on_c, 4, 70, 127
6, 9576, Note_on_c, 4, 70, 0
6, 9576, Note_on_c, 4, 67, 0
6, 9600, Note_on_c, 4, 69, 127
6, 9600, Note_on_c, 4, 65, 99
6, 9648, Note_on_c, 4, 65, 0
6, 9648, Note_on_c, 4, 69, 0
6, 9660, Note_on_c, 4, 69, 113
6, 9660, Note_on_c, 4, 72, 111
6, 9708, Note_on_c, 4, 72, 0
6, 9708, Note_on_c, 4, 69, 0
6, 9720, Note_on_c, 4, 72, 127
6, 9720, Note_on_c, 4, 69, 127
6, 9768, Note_on_c, 4, 69, 0
6, 9768, Note_on_c, 4, 72, 0
6, 9780, Note_on_c, 4, 69, 120
6, 9780, Note_on_c, 4, 72, 127
6, 9828, Note_on_c, 4, 72, 0
6, 9828, Note_on_c, 4, 69, 0
6, 9840, Note_on_c, 4, 69, 127
6, 9840, Note_on_c, 4, 72, 127
6, 9936, Note_on_c, 4, 72, 0
6, 9936, Note_on_c, 4, 69, 0
6, 9960, Note_on_c, 4, 65, 127
6, 9960, Note_on_c, 4, 69, 127
6, 10008, Note_on_c, 4, 69, 0
6, 10008, Note_on_c, 4, 65, 0
6, 10020, Note_on_c, 4, 65, 127
6, 10020, Note_on_c, 4, 57, 127
6, 10068, Note_on_c, 4, 57, 0
6, 10068, Note_on_c, 4, 65, 0
6, 10140, Note_on_c, 4, 65, 110
6, 10140, Note_on_c, 4, 57, 121
6, 10188, Note_on_c, 4, 57, 0
6, 10188, Note_on_c, 4, 65, 0
6, 10200, Note_on_c, 4, 67, 127
6, 10200, Note_on_c, 4, 60, 116
6, 10296, Note_on_c, 4, 60, 0
6, 10296, Note_on_c, 4, 67, 0
6, 10320, Note_on_c, 4, 65, 127
6, 10320, Note_on_c, 4, 57, 125
6, 10368, Note_on_c, 4, 57, 0
6, 10368, Note_on_c, 4, 65, 0
6, 10380, Note_on_c, 4, 67, 127
6, 10380, Note_on_c, 4, 60, 105
6, 10428, Note_on_c, 4, 60, 0
6, 10428, Note_on_c, 4, 67, 0
6, 10440, Note_on_c, 4, 65, 127
6, 10440, Note_on_c, 4, 69, 127
6, 10536, Note_on_c, 4, 69, 0
6, 10536, Note_on_c, 4, 65, 0
6, 10560, Note_on_c, 4, 67, 127
6, 10560, Note_on_c, 4, 60, 127
6, 10608, Note_on_c, 4, 60, 0
6, 10608, Note_on_c, 4, 67, 0
6, 10620, Note_on_c, 4, 70, 127
6, 10620, Note_on_c, 4, 67, 127
6, 10668, Note_on_c, 4, 67, 0
6, 10668, Note_on_c, 4, 70, 0
6, 10680, Note_on_c, 4, 70, 127
6, 10680, Note_on_c, 4, 67, 127
6, 10728, Note_on_c, 4, 67, 0
6, 10728, Note_on_c, 4, 70, 0
6, 10740, Note_on_c, 4, 70, 127
6, 10740, Note_on_c, 4, 67, 127
6, 10788, Note_on_c, 4, 67, 0
6, 10788, Note_on_c, 4, 70, 0
6, 10800, Note_on_c, 4, 67, 127
6, 10800, Note_on_c, 4, 70, 127
6, 10944, Note_on_c, 4, 70, 0
6, 10944, Note_on_c, 4, 67, 0
6, 10980, Note_on_c, 4, 67, 127
6, 10980, Note_on_c, 4, 60, 121
6, 11028, Note_on_c, 4, 60, 0
6, 11028, Note_on_c, 4, 67, 0
6, 11040, Note_on_c, 4, 65, 121
6, 11040, Note_on_c, 4, 69, 127
6, 11088, Note_on_c, 4, 69, 0
6, 11088, Note_on_c, 4, 65, 0
6, 11100, Note_on_c, 4, 70, 127
6, 11100, Note_on_c, 4, 67, 120
6, 11148, Note_on_c, 4, 67, 0
6, 11148, Note_on_c, 4, 70, 0
6, 11160, Note_on_c, 4, 72, 127
6, 11160, Note_on_c, 4, 69, 127
6, 11256, Note_on_c, 4, 69, 0
6, 11256, Note_on_c, 4, 72, 0
6, 11280, Note_on_c, 4, 67, 127
6, 11280, Note_on_c, 4, 70, 127
6, 11328, Note_on_c, 4, 70, 0
6, 11328, Note_on_c, 4, 67, 0
6, 11340, Note_on_c, 4, 67, 127
6, 11340, Note_on_c, 4, 60, 127
6, 11388, Note_on_c, 4, 60, 0
6, 11388, Note_on_c, 4, 67, 0
6, 11400, Note_on_c, 4, 70, 123
6, 11400, Note_on_c, 4, 67, 127
6, 11448, Note_on_c, 4, 67, 0
6, 11448, Note_on_c, 4, 70, 0
6, 11460, Note_on_c, 4, 67, 127
6, 11460, Note_on_c, 4, 60, 111
6, 11508, Note_on_c, 4, 60, 0
6, 11508, Note_on_c, 4, 67, 0
6, 11520, Note_on_c, 4, 65, 123
6, 11520, Note_on_c, 4, 69, 127
6, 11568, Note_on_c, 4, 69, 0
6, 11568, Note_on_c, 4, 65, 0
6, 11580, Note_on_c, 4, 67, 127
6, 11580, Note_on_c, 4, 70, 127
6, 11628, Note_on_c, 4, 70, 0
6, 11628, Note_on_c, 4, 67, 0
6, 11640, Note_on_c, 4, 72, 127
6, 11640, Note_on_c, 4, 69, 120
6, 11736, Note_on_c, 4, 69, 0
6, 11736, Note_on_c, 4, 72, 0
6, 11760, Note_on_c, 4, 67, 127
6, 11760, Note_on_c, 4, 70, 127
6, 11808, Note_on_c, 4, 70, 0
6, 11808, Note_on_c, 4, 67, 0
6, 11820, Note_on_c, 4, 67, 127
6, 11820, Note_on_c, 4, 60, 109
6, 11868, Note_on_c, 4, 60, 0
6, 11868, Note_on_c, 4, 67, 0
6, 11880, Note_on_c, 4, 67, 125
6, 11880, Note_on_c, 4, 70, 127
6, 11928, Note_on_c, 4, 70, 0
6, 11928, Note_on_c, 4, 67, 0
6, 11940, Note_on_c, 4, 67, 127
6, 11940, Note_on_c, 4, 60, 123
6, 11988, Note_on_c, 4, 60, 0
6, 11988, Note_on_c, 4, 67, 0
6, 12000, Note_on_c, 4, 69, 127
6, 12000, Note_on_c, 4, 65, 127
6, 12048, Note_on_c, 4, 65, 0
6, 12048, Note_on_c, 4, 69, 0
6, 12060, Note_on_c, 4, 67, 127
6, 12060, Note_on_c, 4, 60, 127
6, 12108, Note_on_c, 4, 60, 0
6, 12108, Note_on_c, 4, 67, 0
6, 12120, Note_on_c, 4, 67, 127
6, 12120, Note_on_c, 4, 60, 112
6, 12168, Note_on_c, 4, 60, 0
6, 12168, Note_on_c, 4, 67, 0
6, 12180, Note_on_c, 4, 67, 127
6, 12180, Note_on_c, 4, 60, 120
6, 12228, Note_on_c, 4, 60, 0
6, 12228, Note_on_c, 4, 67, 0
6, 12240, Note_on_c, 4, 69, 125
6, 12240, Note_on_c, 4, 65, 107
6, 12288, Note_on_c, 4, 65, 0
6, 12288, Note_on_c, 4, 69, 0
6, 12300, Note_on_c, 4, 67, 127
6, 12300, Note_on_c, 4, 60, 117
6, 12348, Note_on_c, 4, 60, 0
6, 12348, Note_on_c, 4, 67, 0
6, 12360, Note_on_c, 4, 67, 127
6, 12360, Note_on_c, 4, 60, 118
6, 12408, Note_on_c, 4, 60, 0
6, 12408, Note_on_c, 4, 67, 0
6, 12420, Note_on_c, 4, 67, 127
6, 12420, Note_on_c, 4, 60, 117
6, 12468, Note_on_c, 4, 60, 0
6, 12468, Note_on_c, 4, 67, 0
6, 12480, Note_on_c, 4, 65, 127
6, 12480, Note_on_c, 4, 69, 127
6, 12528, Note_on_c, 4, 69, 0
6, 12528, Note_on_c, 4, 65, 0
6, 13440, Note_on_c, 4, 65, 120
6, 13440, Note_on_c, 4, 57, 109
6, 13472, Note_on_c, 4, 57, 0
6, 13472, Note_on_c, 4, 65, 0
6, 13480, Note_on_c, 4, 65, 120
6, 13480, Note_on_c, 4, 57, 111
6, 13512, Note_on_c, 4, 57, 0
6, 13512, Note_on_c, 4, 65, 0
6, 13520, Note_on_c, 4, 65, 121
6, 13520, Note_on_c, 4, 57, 109
6, 13552, Note_on_c, 4, 57, 0
6, 13552, Note_on_c, 4, 65, 0
6, 13560, Note_on_c, 4, 65, 120
6, 13560, Note_on_c, 4, 57, 109
6, 13592, Note_on_c, 4, 57, 0
6, 13592, Note_on_c, 4, 65, 0
6, 13600, Note_on_c, 4, 65, 127
6, 13600, Note_on_c, 4, 57, 118
6, 13632, Note_on_c, 4, 57, 0
6, 13632, Note_on_c, 4, 65, 0
6, 13640, Note_on_c, 4, 65, 125
6, 13640, Note_on_c, 4, 57, 113
6, 13672, Note_on_c, 4, 57, 0
6, 13672, Note_on_c, 4, 65, 0
6, 13680, Note_on_c, 4, 65, 118
6, 13680, Note_on_c, 4, 57, 113
6, 13728, Note_on_c, 4, 57, 0
6, 13728, Note_on_c, 4, 65, 0
6, 14400, Note_on_c, 4, 65, 109
6, 14400, Note_on_c, 4, 57, 109
6, 14432, Note_on_c, 4, 57, 0
6, 14432, Note_on_c, 4, 65, 0
6, 14440, Note_on_c, 4, 65, 112
6, 14440, Note_on_c, 4, 57, 113
6, 14472, Note_on_c, 4, 57, 0
6, 14472, Note_on_c, 4, 65, 0
6, 14480, Note_on_c, 4, 65, 114
6, 14480, Note_on_c, 4, 57, 114
6, 14512, Note_on_c, 4, 57, 0
6, 14512, Note_on_c, 4, 65, 0
6, 14520, Note_on_c, 4, 65, 121
6, 14520, Note_on_c, 4, 57, 113
6, 14552, Note_on_c, 4, 57, 0
6, 14552, Note_on_c, 4, 65, 0
6, 14560, Note_on_c, 4, 65, 114
6, 14560, Note_on_c, 4, 57, 106
6, 14592, Note_on_c, 4, 57, 0
6, 14592, Note_on_c, 4, 65, 0
6, 14600, Note_on_c, 4, 65, 125
6, 14600, Note_on_c, 4, 57, 118
6, 14632, Note_on_c, 4, 57, 0
6, 14632, Note_on_c, 4, 65, 0
6, 14640, Note_on_c, 4, 65, 106
6, 14640, Note_on_c, 4, 57, 111
6, 14688, Note_on_c, 4, 57, 0
6, 14688, Note_on_c, 4, 65, 0
6, 20640, Note_on_c, 4, 67, 80
6, 21072, Note_on_c, 4, 67, 0
6, 21120, Note_on_c, 4, 60, 80
6, 21120, Note_on_c, 4, 72, 80
6, 21552, Note_on_c, 4, 72, 0
6, 21552, Note_on_c, 4, 60, 0
6, 21600, Note_on_c, 4, 71, 80
6, 21600, Note_on_c, 4, 67, 80
6, 21696, Note_on_c, 4, 67, 0
6, 21696, Note_on_c, 4, 71, 0
6, 21720, Note_on_c, 4, 71, 113
6, 21720, Note_on_c, 4, 67, 123
6, 21816, Note_on_c, 4, 67, 0
6, 21816, Note_on_c, 4, 71, 0
6, 21840, Note_on_c, 4, 71, 107
6, 21840, Note_on_c, 4, 67, 121
6, 21936, Note_on_c, 4, 67, 0
6, 21936, Note_on_c, 4, 71, 0
6, 21960, Note_on_c, 4, 67, 109
6, 21960, Note_on_c, 4, 74, 120
6, 22008, Note_on_c, 4, 74, 0
6, 22020, Note_on_c, 4, 71, 109
6, 22068, Note_on_c, 4, 71, 0
6, 22068, Note_on_c, 4, 67, 0
6, 22080, Note_on_c, 4, 72, 99
6, 22080, Note_on_c, 4, 60, 104
6, 22608, Note_on_c, 4, 60, 0
6, 22608, Note_on_c, 4, 72, 0
6, 22620, Note_on_c, 4, 48, 116
6, 22620, Note_on_c, 4, 60, 127
6, 22668, Note_on_c, 4, 60, 0
6, 22668, Note_on_c, 4, 48, 0
6, 22680, Note_on_c, 4, 60, 127
6, 22680, Note_on_c, 4, 48, 117
6, 22728, Note_on_c, 4, 48, 0
6, 22728, Note_on_c, 4, 60, 0
6, 22740, Note_on_c, 4, 48, 123
6, 22740, Note_on_c, 4, 60, 113
6, 22788, Note_on_c, 4, 60, 0
6, 22788, Note_on_c, 4, 48, 0
6, 22800, Note_on_c, 4, 48, 123
6, 22800, Note_on_c, 4, 60, 127
6, 22848, Note_on_c, 4, 60, 0
6, 22848, Note_on_c, 4, 48, 0
6, 23760, Note_on_c, 4, 72, 109
6, 23760, Note_on_c, 4, 60, 105
6, 24272, Note_on_c, 4, 60, 0
6, 24272, Note_on_c, 4, 72, 0
6, 24280, Note_on_c, 4, 60, 112
6, 24280, Note_on_c, 4, 48, 125
6, 24312, Note_on_c, 4, 48, 0
6, 24312, Note_on_c, 4, 60, 0
6, 24320, Note_on_c, 4, 48, 112
6, 24320, Note_on_c, 4, 60, 114
6, 24352, Note_on_c, 4, 60, 0
6, 24352, Note_on_c, 4, 48, 0
6, 24360, Note_on_c, 4, 48, 123
6, 24360, Note_on_c, 4, 60, 125
6, 24392, Note_on_c, 4, 60, 0
6, 24392, Note_on_c, 4, 48, 0
6, 24400, Note_on_c, 4, 48, 123
6, 24400, Note_on_c, 4, 60, 127
6, 24432, Note_on_c, 4, 60, 0
6, 24432, Note_on_c, 4, 48, 0
6, 24440, Note_on_c, 4, 48, 127
6, 24440, Note_on_c, 4, 60, 118
6, 24472, Note_on_c, 4, 60, 0
6, 24472, Note_on_c, 4, 48, 0
6, 24480, Note_on_c, 4, 60, 114
6, 24480, Note_on_c, 4, 48, 127
6, 24528, Note_on_c, 4, 48, 0
6, 24528, Note_on_c, 4, 60, 0
6, 24720, Note_on_c, 4, 48, 105
6, 24720, Note_on_c, 4, 60, 110
6, 25152, Note_on_c, 4, 60, 0
6, 25152, Note_on_c, 4, 48, 0
6, 25200, Note_on_c, 4, 67, 127
6, 25392, Note_on_c, 4, 67, 0
6, 25440, Note_on_c, 4, 48, 123
6, 25440, Note_on_c, 4, 60, 127
6, 25536, Note_on_c, 4, 60, 0
6, 25536, Note_on_c, 4, 48, 0
6, 25560, Note_on_c, 4, 60, 125
6, 25560, Note_on_c, 4, 48, 127
6, 25776, Note_on_c, 4, 48, 0
6, 25776, Note_on_c, 4, 60, 0
6, 25800, Note_on_c, 4, 48, 127
6, 25800, Note_on_c, 4, 60, 127
6, 26016, Note_on_c, 4, 60, 0
6, 26016, Note_on_c, 4, 48, 0
6, 26040, Note_on_c, 4, 48, 127
6, 26040, Note_on_c, 4, 60, 127
6, 26136, Note_on_c, 4, 60, 0
6, 26136, Note_on_c, 4, 48, 0
6, 26160, Note_on_c, 4, 67, 127
6, 26256, Note_on_c, 4, 67, 0
6, 26280, Note_on_c, 4, 67, 127
6, 26376, Note_on_c, 4, 67, 0
6, 26400, Note_on_c, 4, 48, 127
6, 26400, Note_on_c, 4, 60, 127
6, 26432, Note_on_c, 4, 60, 0
6, 26432, Note_on_c, 4, 48, 0
6, 26440, Note_on_c, 4, 48, 125
6, 26440, Note_on_c, 4, 60, 111
6, 26472, Note_on_c, 4, 60, 0
6, 26472, Note_on_c, 4, 48, 0
6, 26480, Note_on_c, 4, 60, 127
6, 26480, Note_on_c, 4, 48, 127
6, 26512, Note_on_c, 4, 48, 0
6, 26512, Note_on_c, 4, 60, 0
6, 26520, Note_on_c, 4, 48, 127
6, 26520, Note_on_c, 4, 60, 127
6, 26552, Note_on_c, 4, 60, 0
6, 26552, Note_on_c, 4, 48, 0
6, 26560, Note_on_c, 4, 48, 127
6, 26560, Note_on_c, 4, 60, 127
6, 26592, Note_on_c, 4, 60, 0
6, 26592, Note_on_c, 4, 48, 0
6, 26600, Note_on_c, 4, 48, 127
6, 26600, Note_on_c, 4, 60, 127
6, 26632, Note_on_c, 4, 60, 0
6, 26632, Note_on_c, 4, 48, 0
6, 26640, Note_on_c, 4, 65, 109
6, 26640, Note_on_c, 4, 53, 110
6, 26688, Note_on_c, 4, 53, 0
6, 26688, Note_on_c, 4, 65, 0
6, 26760, Note_on_c, 4, 69, 105
6, 26760, Note_on_c, 4, 57, 110
6, 26808, Note_on_c, 4, 57, 0
6, 26808, Note_on_c, 4, 69, 0
6, 26880, Note_on_c, 4, 60, 107
6, 26880, Note_on_c, 4, 72, 108
6, 26928, Note_on_c, 4, 72, 0
6, 26928, Note_on_c, 4, 60, 0
6, 27000, Note_on_c, 4, 67, 123
6, 27048, Note_on_c, 4, 67, 0
6, 27120, Note_on_c, 4, 67, 120
6, 27168, Note_on_c, 4, 67, 0
6, 27240, Note_on_c, 4, 67, 127
6, 27288, Note_on_c, 4, 67, 0
6, 27360, Note_on_c, 4, 48, 103
6, 27360, Note_on_c, 4, 60, 127
6, 27392, Note_on_c, 4, 60, 0
6, 27392, Note_on_c, 4, 48, 0
6, 27400, Note_on_c, 4, 48, 127
6, 27400, Note_on_c, 4, 60, 127
6, 27432, Note_on_c, 4, 60, 0
6, 27432, Note_on_c, 4, 48, 0
6, 27440, Note_on_c, 4, 60, 123
6, 27440, Note_on_c, 4, 48, 127
6, 27472, Note_on_c, 4, 48, 0
6, 27472, Note_on_c, 4, 60, 0
6, 27480, Note_on_c, 4, 48, 127
6, 27480, Note_on_c, 4, 60, 127
6, 27872, Note_on_c, 4, 60, 0
6, 27872, Note_on_c, 4, 48, 0
6, 27880, Note_on_c, 4, 60, 123
6, 27880, Note_on_c, 4, 48, 121
6, 27912, Note_on_c, 4, 48, 0
6, 27912, Note_on_c, 4, 60, 0
6, 27920, Note_on_c, 4, 48, 127
6, 27920, Note_on_c, 4, 60, 127
6, 27952, Note_on_c, 4, 60, 0
6, 27952, Note_on_c, 4, 48, 0
6, 27960, Note_on_c, 4, 48, 127
6, 27960, Note_on_c, 4, 60, 125
6, 28352, Note_on_c, 4, 60, 0
6, 28352, Note_on_c, 4, 48, 0
6, 28360, Note_on_c, 4, 48, 123
6, 28360, Note_on_c, 4, 60, 118
6, 28392, Note_on_c, 4, 60, 0
6, 28392, Note_on_c, 4, 48, 0
6, 28400, Note_on_c, 4, 48, 127
6, 28400, Note_on_c, 4, 60, 120
6, 28432, Note_on_c, 4, 60, 0
6, 28432, Note_on_c, 4, 48, 0
6, 28440, Note_on_c, 4, 48, 127
6, 28440, Note_on_c, 4, 60, 127
6, 28832, Note_on_c, 4, 60, 0
6, 28832, Note_on_c, 4, 48, 0
6, 28840, Note_on_c, 4, 48, 121
6, 28840, Note_on_c, 4, 60, 123
6, 28872, Note_on_c, 4, 60, 0
6, 28872, Note_on_c, 4, 48, 0
6, 28880, Note_on_c, 4, 60, 127
6, 28880, Note_on_c, 4, 48, 127
6, 28912, Note_on_c, 4, 48, 0
6, 28912, Note_on_c, 4, 60, 0
6, 28920, Note_on_c, 4, 60, 125
6, 28920, Note_on_c, 4, 48, 127
6, 29312, Note_on_c, 4, 48, 0
6, 29312, Note_on_c, 4, 60, 0
6, 29320, Note_on_c, 4, 60, 118
6, 29320, Note_on_c, 4, 48, 123
6, 29352, Note_on_c, 4, 48, 0
6, 29352, Note_on_c, 4, 60, 0
6, 29360, Note_on_c, 4, 60, 120
6, 29360, Note_on_c, 4, 48, 127
6, 29392, Note_on_c, 4, 48, 0
6, 29392, Note_on_c, 4, 60, 0
6, 29400, Note_on_c, 4, 60, 127
6, 29400, Note_on_c, 4, 48, 127
6, 29552, Note_on_c, 4, 48, 0
6, 29552, Note_on_c, 4, 60, 0
6, 29560, Note_on_c, 4, 48, 123
6, 29560, Note_on_c, 4, 60, 118
6, 29592, Note_on_c, 4, 60, 0
6, 29592, Note_on_c, 4, 48, 0
6, 29600, Note_on_c, 4, 48, 127
6, 29600, Note_on_c, 4, 60, 120
6, 29632, Note_on_c, 4, 60, 0
6, 29632, Note_on_c, 4, 48, 0
6, 29640, Note_on_c, 4, 48, 127
6, 29640, Note_on_c, 4, 60, 127
6, 29792, Note_on_c, 4, 60, 0
6, 29792, Note_on_c, 4, 48, 0
6, 29800, Note_on_c, 4, 48, 123
6, 29800, Note_on_c, 4, 60, 118
6, 29832, Note_on_c, 4, 60, 0
6, 29832, Note_on_c, 4, 48, 0
6, 29840, Note_on_c, 4, 48, 127
6, 29840, Note_on_c, 4, 60, 120
6, 29872, Note_on_c, 4, 60, 0
6, 29872, Note_on_c, 4, 48, 0
6, 29880, Note_on_c, 4, 48, 127
6, 29880, Note_on_c, 4, 60, 127
6, 30032, Note_on_c, 4, 60, 0
6, 30032, Note_on_c, 4, 48, 0
6, 30040, Note_on_c, 4, 48, 123
6, 30040, Note_on_c, 4, 60, 118
6, 30072, Note_on_c, 4, 60, 0
6, 30072, Note_on_c, 4, 48, 0
6, 30080, Note_on_c, 4, 48, 127
6, 30080, Note_on_c, 4, 60, 120
6, 30112, Note_on_c, 4, 60, 0
6, 30112, Note_on_c, 4, 48, 0
6, 30120, Note_on_c, 4, 48, 127
6, 30120, Note_on_c, 4, 60, 127
6, 30288, Note_on_c, 4, 60, 0
6, 30288, Note_on_c, 4, 48, 0
6, 36000, Note_on_c, 4, 48, 127
6, 36000, Note_on_c, 4, 60, 127
6, 36096, Note_on_c, 4, 60, 0
6, 36096, Note_on_c, 4, 48, 0
6, 36120, Note_on_c, 4, 60, 127
6, 36120, Note_on_c, 4, 48, 127
6, 36216, Note_on_c, 4, 48, 0
6, 36216, Note_on_c, 4, 60, 0
6, 36240, Note_on_c, 4, 60, 104
6, 36240, Note_on_c, 4, 48, 114
6, 36384, Note_on_c, 4, 48, 0
6, 36384, Note_on_c, 4, 60, 0
6, 36420, Note_on_c, 4, 53, 100
6, 36420, Note_on_c, 4, 65, 118
6, 36468, Note_on_c, 4, 65, 0
6, 36468, Note_on_c, 4, 53, 0
6, 36480, Note_on_c, 4, 65, 109
6, 36480, Note_on_c, 4, 53, 102
6, 36576, Note_on_c, 4, 53, 0
6, 36576, Note_on_c, 4, 65, 0
6, 36600, Note_on_c, 4, 65, 123
6, 36600, Note_on_c, 4, 53, 108
6, 36696, Note_on_c, 4, 53, 0
6, 36696, Note_on_c, 4, 65, 0
6, 36720, Note_on_c, 4, 72, 118
6, 36720, Note_on_c, 4, 60, 109
6, 36816, Note_on_c, 4, 60, 0
6, 36816, Note_on_c, 4, 72, 0
6, 36960, Note_on_c, 4, 60, 109
6, 36960, Note_on_c, 4, 72, 118
6, 37056, Note_on_c, 4, 72, 0
6, 37056, Note_on_c, 4, 60, 0
6, 37200, Note_on_c, 4, 60, 109
6, 37200, Note_on_c, 4, 72, 118
6, 37296, Note_on_c, 4, 72, 0
6, 37296, Note_on_c, 4, 60, 0
6, 37440, Note_on_c, 4, 60, 109
6, 37440, Note_on_c, 4, 72, 118
6, 37536, Note_on_c, 4, 72, 0
6, 37536, Note_on_c, 4, 60, 0
6, 37680, Note_on_c, 4, 60, 109
6, 37680, Note_on_c, 4, 72, 118
6, 37776, Note_on_c, 4, 72, 0
6, 37776, Note_on_c, 4, 60, 0
6, 37920, Note_on_c, 4, 60, 109
6, 37920, Note_on_c, 4, 72, 118
6, 38016, Note_on_c, 4, 72, 0
6, 38016, Note_on_c, 4, 60, 0
6, 38160, Note_on_c, 4, 60, 109
6, 38160, Note_on_c, 4, 72, 118
6, 38256, Note_on_c, 4, 72, 0
6, 38256, Note_on_c, 4, 60, 0
6, 38400, Note_on_c, 4, 60, 109
6, 38400, Note_on_c, 4, 72, 118
6, 38496, Note_on_c, 4, 72, 0
6, 38496, Note_on_c, 4, 60, 0
6, 38640, Note_on_c, 4, 60, 109
6, 38640, Note_on_c, 4, 72, 118
6, 38736, Note_on_c, 4, 72, 0
6, 38736, Note_on_c, 4, 60, 0
6, 38880, Note_on_c, 4, 60, 109
6, 38880, Note_on_c, 4, 72, 118
6, 38936, Note_on_c, 4, 72, 0
6, 38936, Note_on_c, 4, 60, 0
6, 39840, Note_on_c, 4, 53, 105
6, 39840, Note_on_c, 4, 60, 108
6, 40032, Note_on_c, 4, 60, 0
6, 40032, Note_on_c, 4, 53, 0
6, 40080, Note_on_c, 4, 60, 102
6, 40080, Note_on_c, 4, 53, 99
6, 40272, Note_on_c, 4, 53, 0
6, 40272, Note_on_c, 4, 60, 0
6, 40320, Note_on_c, 4, 53, 107
6, 40320, Note_on_c, 4, 60, 108
6, 40512, Note_on_c, 4, 60, 0
6, 40512, Note_on_c, 4, 53, 0
6, 40560, Note_on_c, 4, 60, 110
6, 40560, Note_on_c, 4, 53, 112
6, 40752, Note_on_c, 4, 53, 0
6, 40752, Note_on_c, 4, 60, 0
6, 40800, Note_on_c, 4, 60, 107
6, 40800, Note_on_c, 4, 53, 105
6, 40848, Note_on_c, 4, 53, 0
6, 40848, Note_on_c, 4, 60, 0
6, 40860, Note_on_c, 4, 60, 107
6, 40860, Note_on_c, 4, 53, 113
6, 40908, Note_on_c, 4, 53, 0
6, 40908, Note_on_c, 4, 60, 0
6, 40980, Note_on_c, 4, 60, 109
6, 40980, Note_on_c, 4, 53, 104
6, 41028, Note_on_c, 4, 53, 0
6, 41028, Note_on_c, 4, 60, 0
6, 41100, Note_on_c, 4, 60, 107
6, 41100, Note_on_c, 4, 53, 103
6, 41148, Note_on_c, 4, 53, 0
6, 41148, Note_on_c, 4, 60, 0
6, 41220, Note_on_c, 4, 53, 107
6, 41220, Note_on_c, 4, 60, 112
6, 41268, Note_on_c, 4, 60, 0
6, 41268, Note_on_c, 4, 53, 0
6, 41340, Note_on_c, 4, 53, 108
6, 41340, Note_on_c, 4, 60, 109
6, 41388, Note_on_c, 4, 60, 0
6, 41388, Note_on_c, 4, 53, 0
6, 41460, Note_on_c, 4, 60, 116
6, 41460, Note_on_c, 4, 53, 116
6, 41508, Note_on_c, 4, 53, 0
6, 41508, Note_on_c, 4, 60, 0
6, 41580, Note_on_c, 4, 60, 99
6, 41580, Note_on_c, 4, 53, 50
6, 41628, Note_on_c, 4, 53, 0
6, 41628, Note_on_c, 4, 60, 0
6, 41700, Note_on_c, 4, 53, 99
6, 41700, Note_on_c, 4, 60, 98
6, 41748, Note_on_c, 4, 60, 0
6, 41748, Note_on_c, 4, 53, 0
6, 41760, Note_on_c, 4, 60, 127
6, 41760, Note_on_c, 4, 53, 109
6, 41808, Note_on_c, 4, 53, 0
6, 41808, Note_on_c, 4, 60, 0
6, 41820, Note_on_c, 4, 69, 125
6, 41820, Note_on_c, 4, 65, 105
6, 41868, Note_on_c, 4, 65, 0
6, 41868, Note_on_c, 4, 69, 0
6, 41880, Note_on_c, 4, 67, 127
6, 41880, Note_on_c, 4, 70, 127
6, 41928, Note_on_c, 4, 70, 0
6, 41928, Note_on_c, 4, 67, 0
6, 41940, Note_on_c, 4, 70, 116
6, 41940, Note_on_c, 4, 67, 112
6, 41988, Note_on_c, 4, 67, 0
6, 41988, Note_on_c, 4, 70, 0
6, 42000, Note_on_c, 4, 69, 110
6, 42000, Note_on_c, 4, 72, 127
6, 42048, Note_on_c, 4, 72, 0
6, 42048, Note_on_c, 4, 69, 0
6, 42060, Note_on_c, 4, 70, 127
6, 42060, Note_on_c, 4, 67, 127
6, 42084, Note_on_c, 4, 67, 0
6, 42084, Note_on_c, 4, 70, 0
6, 42090, Note_on_c, 4, 65, 101
6, 42090, Note_on_c, 4, 69, 123
6, 42114, Note_on_c, 4, 69, 0
6, 42114, Note_on_c, 4, 65, 0
6, 42120, Note_on_c, 4, 67, 109
6, 42120, Note_on_c, 4, 60, 103
6, 42168, Note_on_c, 4, 60, 0
6, 42168, Note_on_c, 4, 67, 0
6, 42180, Note_on_c, 4, 60, 127
6, 42228, Note_on_c, 4, 60, 0
6, 42240, Note_on_c, 4, 65, 127
6, 42240, Note_on_c, 4, 57, 100
6, 42288, Note_on_c, 4, 57, 0
6, 42288, Note_on_c, 4, 65, 0
6, 42300, Note_on_c, 4, 60, 120
6, 42300, Note_on_c, 4, 67, 127
6, 42348, Note_on_c, 4, 67, 0
6, 42348, Note_on_c, 4, 60, 0
6, 42360, Note_on_c, 4, 65, 123
6, 42360, Note_on_c, 4, 69, 127
6, 42456, Note_on_c, 4, 69, 0
6, 42456, Note_on_c, 4, 65, 0
6, 42480, Note_on_c, 4, 67, 127
6, 42480, Note_on_c, 4, 60, 127
6, 42528, Note_on_c, 4, 60, 0
6, 42528, Note_on_c, 4, 67, 0
6, 42540, Note_on_c, 4, 65, 125
6, 42540, Note_on_c, 4, 69, 127
6, 42588, Note_on_c, 4, 69, 0
6, 42588, Note_on_c, 4, 65, 0
6, 42600, Note_on_c, 4, 67, 127
6, 42600, Note_on_c, 4, 70, 127
6, 42696, Note_on_c, 4, 70, 0
6, 42696, Note_on_c, 4, 67, 0
6, 42720, Note_on_c, 4, 69, 127
6, 42720, Note_on_c, 4, 65, 99
6, 42768, Note_on_c, 4, 65, 0
6, 42768, Note_on_c, 4, 69, 0
6, 42780, Note_on_c, 4, 69, 113
6, 42780, Note_on_c, 4, 72, 111
6, 42828, Note_on_c, 4, 72, 0
6, 42828, Note_on_c, 4, 69, 0
6, 42840, Note_on_c, 4, 72, 127
6, 42840, Note_on_c, 4, 69, 127
6, 42888, Note_on_c, 4, 69, 0
6, 42888, Note_on_c, 4, 72, 0
6, 42900, Note_on_c, 4, 69, 120
6, 42900, Note_on_c, 4, 72, 127
6, 42948, Note_on_c, 4, 72, 0
6, 42948, Note_on_c, 4, 69, 0
6, 42960, Note_on_c, 4, 69, 127
6, 42960, Note_on_c, 4, 72, 127
6, 43056, Note_on_c, 4, 72, 0
6, 43056, Note_on_c, 4, 69, 0
6, 43080, Note_on_c, 4, 65, 127
6, 43080, Note_on_c, 4, 69, 127
6, 43128, Note_on_c, 4, 69, 0
6, 43128, Note_on_c, 4, 65, 0
6, 43140, Note_on_c, 4, 65, 127
6, 43140, Note_on_c, 4, 57, 127
6, 43188, Note_on_c, 4, 57, 0
6, 43188, Note_on_c, 4, 65, 0
6, 43260, Note_on_c, 4, 65, 110
6, 43260, Note_on_c, 4, 57, 121
6, 43308, Note_on_c, 4, 57, 0
6, 43308, Note_on_c, 4, 65, 0
6, 43320, Note_on_c, 4, 67, 127
6, 43320, Note_on_c, 4, 60, 116
6, 43416, Note_on_c, 4, 60, 0
6, 43416, Note_on_c, 4, 67, 0
6, 43440, Note_on_c, 4, 65, 127
6, 43440, Note_on_c, 4, 57, 125
6, 43488, Note_on_c, 4, 57, 0
6, 43488, Note_on_c, 4, 65, 0
6, 43500, Note_on_c, 4, 67, 127
6, 43500, Note_on_c, 4, 60, 105
6, 43548, Note_on_c, 4, 60, 0
6, 43548, Note_on_c, 4, 67, 0
6, 43560, Note_on_c, 4, 65, 127
6, 43560, Note_on_c, 4, 69, 127
6, 43656, Note_on_c, 4, 69, 0
6, 43656, Note_on_c, 4, 65, 0
6, 43680, Note_on_c, 4, 67, 127
6, 43680, Note_on_c, 4, 60, 127
6, 43728, Note_on_c, 4, 60, 0
6, 43728, Note_on_c, 4, 67, 0
6, 43740, Note_on_c, 4, 70, 127
6, 43740, Note_on_c, 4, 67, 127
6, 43788, Note_on_c, 4, 67, 0
6, 43788, Note_on_c, 4, 70, 0
6, 43800, Note_on_c, 4, 70, 127
6, 43800, Note_on_c, 4, 67, 127
6, 43848, Note_on_c, 4, 67, 0
6, 43848, Note_on_c, 4, 70, 0
6, 43860, Note_on_c, 4, 70, 127
6, 43860, Note_on_c, 4, 67, 127
6, 43908, Note_on_c, 4, 67, 0
6, 43908, Note_on_c, 4, 70, 0
6, 43920, Note_on_c, 4, 67, 127
6, 43920, Note_on_c, 4, 70, 127
6, 44064, Note_on_c, 4, 70, 0
6, 44064, Note_on_c, 4, 67, 0
6, 44100, Note_on_c, 4, 67, 127
6, 44100, Note_on_c, 4, 60, 121
6, 44148, Note_on_c, 4, 60, 0
6, 44148, Note_on_c, 4, 67, 0
6, 44160, Note_on_c, 4, 65, 121
6, 44160, Note_on_c, 4, 69, 127
6, 44208, Note_on_c, 4, 69, 0
6, 44208, Note_on_c, 4, 65, 0
6, 44220, Note_on_c, 4, 70, 127
6, 44220, Note_on_c, 4, 67, 120
6, 44268, Note_on_c, 4, 67, 0
6, 44268, Note_on_c, 4, 70, 0
6, 44280, Note_on_c, 4, 72, 127
6, 44280, Note_on_c, 4, 69, 127
6, 44376, Note_on_c, 4, 69, 0
6, 44376, Note_on_c, 4, 72, 0
6, 44400, Note_on_c, 4, 67, 127
6, 44400, Note_on_c, 4, 70, 127
6, 44448, Note_on_c, 4, 70, 0
6, 44448, Note_on_c, 4, 67, 0
6, 44460, Note_on_c, 4, 67, 127
6, 44460, Note_on_c, 4, 60, 127
6, 44508, Note_on_c, 4, 60, 0
6, 44508, Note_on_c, 4, 67, 0
6, 44520, Note_on_c, 4, 70, 123
6, 44520, Note_on_c, 4, 67, 127
6, 44568, Note_on_c, 4, 67, 0
6, 44568, Note_on_c, 4, 70, 0
6, 44580, Note_on_c, 4, 67, 127
6, 44580, Note_on_c, 4, 60, 111
6, 44628, Note_on_c, 4, 60, 0
6, 44628, Note_on_c, 4, 67, 0
6, 44640, Note_on_c, 4, 65, 123
6, 44640, Note_on_c, 4, 69, 127
6, 44688, Note_on_c, 4, 69, 0
6, 44688, Note_on_c, 4, 65, 0
6, 44700, Note_on_c, 4, 67, 127
6, 44700, Note_on_c, 4, 70, 127
6, 44748, Note_on_c, 4, 70, 0
6, 44748, Note_on_c, 4, 67, 0
6, 44760, Note_on_c, 4, 72, 127
6, 44760, Note_on_c, 4, 69, 120
6, 44856, Note_on_c, 4, 69, 0
6, 44856, Note_on_c, 4, 72, 0
6, 44880, Note_on_c, 4, 67, 127
6, 44880, Note_on_c, 4, 70, 127
6, 44928, Note_on_c, 4, 70, 0
6, 44928, Note_on_c, 4, 67, 0
6, 44940, Note_on_c, 4, 67, 127
6, 44940, Note_on_c, 4, 60, 109
6, 44988, Note_on_c, 4, 60, 0
6, 44988, Note_on_c, 4, 67, 0
6, 45000, Note_on_c, 4, 67, 125
6, 45000, Note_on_c, 4, 70, 127
6, 45048, Note_on_c, 4, 70, 0
6, 45048, Note_on_c, 4, 67, 0
6, 45060, Note_on_c, 4, 67, 127
6, 45060, Note_on_c, 4, 60, 123
6, 45108, Note_on_c, 4, 60, 0
6, 45108, Note_on_c, 4, 67, 0
6, 45120, Note_on_c, 4, 69, 127
6, 45120, Note_on_c, 4, 65, 127
6, 45168, Note_on_c, 4, 65, 0
6, 45168, Note_on_c, 4, 69, 0
6, 45180, Note_on_c, 4, 67, 127
6, 45180, Note_on_c, 4, 60, 127
6, 45228, Note_on_c, 4, 60, 0
6, 45228, Note_on_c, 4, 67, 0
6, 45240, Note_on_c, 4, 67, 127
6, 45240, Note_on_c, 4, 60, 112
6, 45288, Note_on_c, 4, 60, 0
6, 45288, Note_on_c, 4, 67, 0
6, 45300, Note_on_c, 4, 67, 127
6, 45300, Note_on_c, 4, 60, 120
6, 45348, Note_on_c, 4, 60, 0
6, 45348, Note_on_c, 4, 67, 0
6, 45360, Note_on_c, 4, 69, 125
6, 45360, Note_on_c, 4, 65, 107
6, 45408, Note_on_c, 4, 65, 0
6, 45408, Note_on_c, 4, 69, 0
6, 45420, Note_on_c, 4, 67, 127
6, 45420, Note_on_c, 4, 60, 117
6, 45468, Note_on_c, 4, 60, 0
6, 45468, Note_on_c, 4, 67, 0
6, 45480, Note_on_c, 4, 67, 127
6, 45480, Note_on_c, 4, 60, 118
6, 45528, Note_on_c, 4, 60, 0
6, 45528, Note_on_c, 4, 67, 0
6, 45540, Note_on_c, 4, 67, 127
6, 45540, Note_on_c, 4, 60, 117
6, 45588, Note_on_c, 4, 60, 0
6, 45588, Note_on_c, 4, 67, 0
6, 45600, Note_on_c, 4, 65, 127
6, 45600, Note_on_c, 4, 69, 127
6, 45648, Note_on_c, 4, 69, 0
6, 45648, Note_on_c, 4, 65, 0
6, 46560, Note_on_c, 4, 65, 120
6, 46560, Note_on_c, 4, 57, 109
6, 46592, Note_on_c, 4, 57, 0
6, 46592, Note_on_c, 4, 65, 0
6, 46600, Note_on_c, 4, 65, 120
6, 46600, Note_on_c, 4, 57, 111
6, 46632, Note_on_c, 4, 57, 0
6, 46632, Note_on_c, 4, 65, 0
6, 46640, Note_on_c, 4, 65, 121
6, 46640, Note_on_c, 4, 57, 109
6, 46672, Note_on_c, 4, 57, 0
6, 46672, Note_on_c, 4, 65, 0
6, 46680, Note_on_c, 4, 65, 120
6, 46680, Note_on_c, 4, 57, 109
6, 46712, Note_on_c, 4, 57, 0
6, 46712, Note_on_c, 4, 65, 0
6, 46720, Note_on_c, 4, 65, 127
6, 46720, Note_on_c, 4, 57, 118
6, 46752, Note_on_c, 4, 57, 0
6, 46752, Note_on_c, 4, 65, 0
6, 46760, Note_on_c, 4, 65, 125
6, 46760, Note_on_c, 4, 57, 113
6, 46792, Note_on_c, 4, 57, 0
6, 46792, Note_on_c, 4, 65, 0
6, 46800, Note_on_c, 4, 65, 118
6, 46800, Note_on_c, 4, 57, 113
6, 46848, Note_on_c, 4, 57, 0
6, 46848, Note_on_c, 4, 65, 0
6, 47520, Note_on_c, 4, 65, 109
6, 47520, Note_on_c, 4, 57, 109
6, 47552, Note_on_c, 4, 57, 0
6, 47552, Note_on_c, 4, 65, 0
6, 47560, Note_on_c, 4, 65, 112
6, 47560, Note_on_c, 4, 57, 113
6, 47592, Note_on_c, 4, 57, 0
6, 47592, Note_on_c, 4, 65, 0
6, 47600, Note_on_c, 4, 65, 114
6, 47600, Note_on_c, 4, 57, 114
6, 47632, Note_on_c, 4, 57, 0
6, 47632, Note_on_c, 4, 65, 0
6, 47640, Note_on_c, 4, 65, 121
6, 47640, Note_on_c, 4, 57, 113
6, 47672, Note_on_c, 4, 57, 0
6, 47672, Note_on_c, 4, 65, 0
6, 47680, Note_on_c, 4, 65, 114
6, 47680, Note_on_c, 4, 57, 106
6, 47712, Note_on_c, 4, 57, 0
6, 47712, Note_on_c, 4, 65, 0
6, 47720, Note_on_c, 4, 65, 125
6, 47720, Note_on_c, 4, 57, 118
6, 47752, Note_on_c, 4, 57, 0
6, 47752, Note_on_c, 4, 65, 0
6, 47760, Note_on_c, 4, 65, 106
6, 47760, Note_on_c, 4, 57, 111
6, 47808, Note_on_c, 4, 57, 0
6, 47808, Note_on_c, 4, 65, 0
6, 53760, Note_on_c, 4, 67, 80
6, 54192, Note_on_c, 4, 67, 0
6, 54240, Note_on_c, 4, 60, 80
6, 54240, Note_on_c, 4, 72, 80
6, 54672, Note_on_c, 4, 72, 0
6, 54672, Note_on_c, 4, 60, 0
6, 54720, Note_on_c, 4, 71, 80
6, 54720, Note_on_c, 4, 67, 80
6, 54816, Note_on_c, 4, 67, 0
6, 54816, Note_on_c, 4, 71, 0
6, 54840, Note_on_c, 4, 71, 113
6, 54840, Note_on_c, 4, 67, 123
6, 54936, Note_on_c, 4, 67, 0
6, 54936, Note_on_c, 4, 71, 0
6, 54960, Note_on_c, 4, 71, 107
6, 54960, Note_on_c, 4, 67, 121
6, 55056, Note_on_c, 4, 67, 0
6, 55056, Note_on_c, 4, 71, 0
6, 55080, Note_on_c, 4, 67, 109
6, 55080, Note_on_c, 4, 74, 120
6, 55128, Note_on_c, 4, 74, 0
6, 55140, Note_on_c, 4, 71, 109
6, 55188, Note_on_c, 4, 71, 0
6, 55188, Note_on_c, 4, 67, 0
6, 55200, Note_on_c, 4, 72, 99
6, 55200, Note_on_c, 4, 60, 104
6, 55728, Note_on_c, 4, 60, 0
6, 55728, Note_on_c, 4, 72, 0
6, 55740, Note_on_c, 4, 48, 116
6, 55740, Note_on_c, 4, 60, 127
6, 55788, Note_on_c, 4, 60, 0
6, 55788, Note_on_c, 4, 48, 0
6, 55800, Note_on_c, 4, 60, 127
6, 55800, Note_on_c, 4, 48, 117
6, 55848, Note_on_c, 4, 48, 0
6, 55848, Note_on_c, 4, 60, 0
6, 55860, Note_on_c, 4, 48, 123
6, 55860, Note_on_c, 4, 60, 113
6, 55908, Note_on_c, 4, 60, 0
6, 55908, Note_on_c, 4, 48, 0
6, 55920, Note_on_c, 4, 48, 123
6, 55920, Note_on_c, 4, 60, 127
6, 55968, Note_on_c, 4, 60, 0
6, 55968, Note_on_c, 4, 48, 0
6, 56880, Note_on_c, 4, 72, 109
6, 56880, Note_on_c, 4, 60, 105
6, 57392, Note_on_c, 4, 60, 0
6, 57392, Note_on_c, 4, 72, 0
6, 57400, Note_on_c, 4, 60, 112
6, 57400, Note_on_c, 4, 48, 125
6, 57432, Note_on_c, 4, 48, 0
6, 57432, Note_on_c, 4, 60, 0
6, 57440, Note_on_c, 4, 48, 112
6, 57440, Note_on_c, 4, 60, 114
6, 57472, Note_on_c, 4, 60, 0
6, 57472, Note_on_c, 4, 48, 0
6, 57480, Note_on_c, 4, 48, 123
6, 57480, Note_on_c, 4, 60, 125
6, 57512, Note_on_c, 4, 60, 0
6, 57512, Note_on_c, 4, 48, 0
6, 57520, Note_on_c, 4, 48, 123
6, 57520, Note_on_c, 4, 60, 127
6, 57552, Note_on_c, 4, 60, 0
6, 57552, Note_on_c, 4, 48, 0
6, 57560, Note_on_c, 4, 48, 127
6, 57560, Note_on_c, 4, 60, 118
6, 57592, Note_on_c, 4, 60, 0
6, 57592, Note_on_c, 4, 48, 0
6, 57600, Note_on_c, 4, 60, 114
6, 57600, Note_on_c, 4, 48, 127
6, 57648, Note_on_c, 4, 48, 0
6, 57648, Note_on_c, 4, 60, 0
6, 57840, Note_on_c, 4, 48, 105
6, 57840, Note_on_c, 4, 60, 110
6, 58272, Note_on_c, 4, 60, 0
6, 58272, Note_on_c, 4, 48, 0
6, 58320, Note_on_c, 4, 67, 127
6, 58512, Note_on_c, 4, 67, 0
6, 58560, Note_on_c, 4, 48, 123
6, 58560, Note_on_c, 4, 60, 127
6, 58656, Note_on_c, 4, 60, 0
6, 58656, Note_on_c, 4, 48, 0
6, 58680, Note_on_c, 4, 60, 125
6, 58680, Note_on_c, 4, 48, 127
6, 58896, Note_on_c, 4, 48, 0
6, 58896, Note_on_c, 4, 60, 0
6, 58920, Note_on_c, 4, 48, 127
6, 58920, Note_on_c, 4, 60, 127
6, 59136, Note_on_c, 4, 60, 0
6, 59136, Note_on_c, 4, 48, 0
6, 59160, Note_on_c, 4, 48, 127
6, 59160, Note_on_c, 4, 60, 127
6, 59256, Note_on_c, 4, 60, 0
6, 59256, Note_on_c, 4, 48, 0
6, 59280, Note_on_c, 4, 67, 127
6, 59376, Note_on_c, 4, 67, 0
6, 59400, Note_on_c, 4, 67, 127
6, 59496, Note_on_c, 4, 67, 0
6, 59520, Note_on_c, 4, 48, 127
6, 59520, Note_on_c, 4, 60, 127
6, 59552, Note_on_c, 4, 60, 0
6, 59552, Note_on_c, 4, 48, 0
6, 59560, Note_on_c, 4, 48, 125
6, 59560, Note_on_c, 4, 60, 111
6, 59592, Note_on_c, 4, 60, 0
6, 59592, Note_on_c, 4, 48, 0
6, 59600, Note_on_c, 4, 60, 127
6, 59600, Note_on_c, 4, 48, 127
6, 59632, Note_on_c, 4, 48, 0
6, 59632, Note_on_c, 4, 60, 0
6, 59640, Note_on_c, 4, 48, 127
6, 59640, Note_on_c, 4, 60, 127
6, 59672, Note_on_c, 4, 60, 0
6, 59672, Note_on_c, 4, 48, 0
6, 59680, Note_on_c, 4, 48, 127
6, 59680, Note_on_c, 4, 60, 127
6, 59712, Note_on_c, 4, 60, 0
6, 59712, Note_on_c, 4, 48, 0
6, 59720, Note_on_c, 4, 48, 127
6, 59720, Note_on_c, 4, 60, 127
6, 59752, Note_on_c, 4, 60, 0
6, 59752, Note_on_c, 4, 48, 0
6, 59760, Note_on_c, 4, 65, 109
6, 59760, Note_on_c, 4, 53, 110
6, 59808, Note_on_c, 4, 53, 0
6, 59808, Note_on_c, 4, 65, 0
6, 59880, Note_on_c, 4, 69, 105
6, 59880, Note_on_c, 4, 57, 110
6, 59928, Note_on_c, 4, 57, 0
6, 59928, Note_on_c, 4, 69, 0
6, 60000, Note_on_c, 4, 60, 107
6, 60000, Note_on_c, 4, 72, 108
6, 60048, Note_on_c, 4, 72, 0
6, 60048, Note_on_c, 4, 60, 0
6, 60120, Note_on_c, 4, 67, 123
6, 60168, Note_on_c, 4, 67, 0
6, 60240, Note_on_c, 4, 67, 120
6, 60288, Note_on_c, 4, 67, 0
6, 60360, Note_on_c, 4, 67, 127
6, 60408, Note_on_c, 4, 67, 0
6, 60480, Note_on_c, 4, 48, 103
6, 60480, Note_on_c, 4, 60, 127
6, 60512, Note_on_c, 4, 60, 0
6, 60512, Note_on_c, 4, 48, 0
6, 60520, Note_on_c, 4, 48, 127
6, 60520, Note_on_c, 4, 60, 127
6, 60552, Note_on_c, 4, 60, 0
6, 60552, Note_on_c, 4, 48, 0
6, 60560, Note_on_c, 4, 60, 123
6, 60560, Note_on_c, 4, 48, 127
6, 60592, Note_on_c, 4, 48, 0
6, 60592, Note_on_c, 4, 60, 0
6, 60600, Note_on_c, 4, 48, 127
6, 60600, Note_on_c, 4, 60, 127
6, 60992, Note_on_c, 4, 60, 0
6, 60992, Note_on_c, 4, 48, 0
6, 61000, Note_on_c, 4, 60, 123
6, 61000, Note_on_c, 4, 48, 121
6, 61032, Note_on_c, 4, 48, 0
6, 61032, Note_on_c, 4, 60, 0
6, 61040, Note_on_c, 4, 48, 127
6, 61040, Note_on_c, 4, 60, 127
6, 61072, Note_on_c, 4, 60, 0
6, 61072, Note_on_c, 4, 48, 0
6, 61080, Note_on_c, 4, 48, 127
6, 61080, Note_on_c, 4, 60, 125
6, 61472, Note_on_c, 4, 60, 0
6, 61472, Note_on_c, 4, 48, 0
6, 61480, Note_on_c, 4, 48, 123
6, 61480, Note_on_c, 4, 60, 118
6, 61512, Note_on_c, 4, 60, 0
6, 61512, Note_on_c, 4, 48, 0
6, 61520, Note_on_c, 4, 48, 127
6, 61520, Note_on_c, 4, 60, 120
6, 61552, Note_on_c, 4, 60, 0
6, 61552, Note_on_c, 4, 48, 0
6, 61560, Note_on_c, 4, 48, 127
6, 61560, Note_on_c, 4, 60, 127
6, 61952, Note_on_c, 4, 60, 0
6, 61952, Note_on_c, 4, 48, 0
6, 61960, Note_on_c, 4, 48, 121
6, 61960, Note_on_c, 4, 60, 123
6, 61992, Note_on_c, 4, 60, 0
6, 61992, Note_on_c, 4, 48, 0
6, 62000, Note_on_c, 4, 60, 127
6, 62000, Note_on_c, 4, 48, 127
6, 62032, Note_on_c, 4, 48, 0
6, 62032, Note_on_c, 4, 60, 0
6, 62040, Note_on_c, 4, 60, 125
6, 62040, Note_on_c, 4, 48, 127
6, 62432, Note_on_c, 4, 48, 0
6, 62432, Note_on_c, 4, 60, 0
6, 62440, Note_on_c, 4, 60, 118
6, 62440, Note_on_c, 4, 48, 123
6, 62472, Note_on_c, 4, 48, 0
6, 62472, Note_on_c, 4, 60, 0
6, 62480, Note_on_c, 4, 60, 120
6, 62480, Note_on_c, 4, 48, 127
6, 62512, Note_on_c, 4, 48, 0
6, 62512, Note_on_c, 4, 60, 0
6, 62520, Note_on_c, 4, 60, 127
6, 62520, Note_on_c, 4, 48, 127
6, 62672, Note_on_c, 4, 48, 0
6, 62672, Note_on_c, 4, 60, 0
6, 62680, Note_on_c, 4, 48, 123
6, 62680, Note_on_c, 4, 60, 118
6, 62712, Note_on_c, 4, 60, 0
6, 62712, Note_on_c, 4, 48, 0
6, 62720, Note_on_c, 4, 48, 127
6, 62720, Note_on_c, 4, 60, 120
6, 62752, Note_on_c, 4, 60, 0
6, 62752, Note_on_c, 4, 48, 0
6, 62760, Note_on_c, 4, 48, 127
6, 62760, Note_on_c, 4, 60, 127
6, 62912, Note_on_c, 4, 60, 0
6, 62912, Note_on_c, 4, 48, 0
6, 62920, Note_on_c, 4, 48, 123
6, 62920, Note_on_c, 4, 60, 118
6, 62952, Note_on_c, 4, 60, 0
6, 62952, Note_on_c, 4, 48, 0
6, 62960, Note_on_c, 4, 48, 127
6, 62960, Note_on_c, 4, 60, 120
6, 62992, Note_on_c, 4, 60, 0
6, 62992, Note_on_c, 4, 48, 0
6, 63000, Note_on_c, 4, 48, 127
6, 63000, Note_on_c, 4, 60, 127
6, 63152, Note_on_c, 4, 60, 0
6, 63152, Note_on_c, 4, 48, 0
6, 63160, Note_on_c, 4, 48, 123
6, 63160, Note_on_c, 4, 60, 118
6, 63192, Note_on_c, 4, 60, 0
6, 63192, Note_on_c, 4, 48, 0
6, 63200, Note_on_c, 4, 48, 127
6, 63200, Note_on_c, 4, 60, 120
6, 63232, Note_on_c, 4, 60, 0
6, 63232, Note_on_c, 4, 48, 0
6, 63240, Note_on_c, 4, 48, 127
6, 63240, Note_on_c, 4, 60, 127
6, 63408, Note_on_c, 4, 60, 0
6, 63408, Note_on_c, 4, 48, 0
6, 66240, Note_on_c, 4, 67, 100
6, 66240, Note_on_c, 4, 60, 93
6, 66672, Note_on_c, 4, 60, 0
6, 66672, Note_on_c, 4, 67, 0
6, 66720, Note_on_c, 4, 67, 103
6, 66720, Note_on_c, 4, 60, 104
6, 67152, Note_on_c, 4, 60, 0
6, 67152, Note_on_c, 4, 67, 0
6, 68160, Note_on_c, 4, 53, 107
6, 68160, Note_on_c, 4, 41, 98
6, 68592, Note_on_c, 4, 41, 0
6, 68592, Note_on_c, 4, 53, 0
6, 68640, Note_on_c, 4, 41, 107
6, 68640, Note_on_c, 4, 53, 104
6, 69072, Note_on_c, 4, 53, 0
6, 69072, Note_on_c, 4, 41, 0
6, 69120, Note_on_c, 4, 53, 100
6, 69120, Note_on_c, 4, 41, 104
6, 70752, Note_on_c, 4, 41, 0
6, 70800, Note_on_c, 4, 41, 104
6, 70992, Note_on_c, 4, 41, 0
6, 70992, Note_on_c, 4, 53, 0
6, 71040, Note_on_c, 4, 41, 109
6, 71952, Note_on_c, 4, 41, 0
6, 74880, Note_on_c, 4, 69, 112
6, 75024, Note_on_c, 4, 69, 0
6, 75060, Note_on_c, 4, 69, 111
6, 75108, Note_on_c, 4, 69, 0
6, 75120, Note_on_c, 4, 69, 112
6, 75264, Note_on_c, 4, 69, 0
6, 75300, Note_on_c, 4, 69, 111
6, 75348, Note_on_c, 4, 69, 0
6, 75360, Note_on_c, 4, 69, 112
6, 75504, Note_on_c, 4, 69, 0
6, 75540, Note_on_c, 4, 69, 111
6, 75588, Note_on_c, 4, 69, 0
6, 75600, Note_on_c, 4, 69, 112
6, 75744, Note_on_c, 4, 69, 0
6, 75780, Note_on_c, 4, 69, 111
6, 75828, Note_on_c, 4, 69, 0
6, 75840, Note_on_c, 4, 69, 127
6, 75888, Note_on_c, 4, 69, 0
6, 76320, Note_on_c, 4, 69, 107
6, 76368, Note_on_c, 4, 69, 0
6, 86400, Note_on_c, 4, 71, 112
6, 86544, Note_on_c, 4, 71, 0
6, 86580, Note_on_c, 4, 71, 111
6, 86628, Note_on_c, 4, 71, 0
6, 86640, Note_on_c, 4, 71, 112
6, 86784, Note_on_c, 4, 71, 0
6, 86820, Note_on_c, 4, 71, 111
6, 86868, Note_on_c, 4, 71, 0
6, 86880, Note_on_c, 4, 71, 127
6, 86928, Note_on_c, 4, 71, 0
6, 87360, Note_on_c, 4, 71, 107
6, 87408, Note_on_c, 4, 71, 0
6, 96000, Note_on_c, 4, 60, 100
6, 96000, Note_on_c, 4, 48, 96
6, 96432, Note_on_c, 4, 48, 0
6, 96432, Note_on_c, 4, 60, 0
6, 96480, Note_on_c, 4, 48, 123
6, 96480, Note_on_c, 4, 60, 108
6, 96912, Note_on_c, 4, 60, 0
6, 96912, Note_on_c, 4, 48, 0
6, 96960, Note_on_c, 4, 48, 113
6, 96960, Note_on_c, 4, 60, 103
6, 97392, Note_on_c, 4, 60, 0
6, 97392, Note_on_c, 4, 48, 0
6, 97440, Note_on_c, 4, 48, 117
6, 97440, Note_on_c, 4, 60, 109
6, 97872, Note_on_c, 4, 60, 0
6, 97872, Note_on_c, 4, 48, 0
6, 97920, Note_on_c, 4, 60, 117
6, 97920, Note_on_c, 4, 48, 109
6, 98016, Note_on_c, 4, 48, 0
6, 98016, Note_on_c, 4, 60, 0
6, 98040, Note_on_c, 4, 60, 127
6, 98040, Note_on_c, 4, 48, 127
6, 98136, Note_on_c, 4, 48, 0
6, 98136, Note_on_c, 4, 60, 0
6, 98160, Note_on_c, 4, 48, 109
6, 98160, Note_on_c, 4, 60, 101
6, 98304, Note_on_c, 4, 60, 0
6, 98304, Note_on_c, 4, 48, 0
6, 98340, Note_on_c, 4, 60, 106
6, 98340, Note_on_c, 4, 48, 98
6, 98388, Note_on_c, 4, 48, 0
6, 98388, Note_on_c, 4, 60, 0
6, 98400, Note_on_c, 4, 60, 103
6, 98400, Note_on_c, 4, 48, 104
6, 98496, Note_on_c, 4, 48, 0
6, 98496, Note_on_c, 4, 60, 0
6, 98520, Note_on_c, 4, 60, 104
6, 98520, Note_on_c, 4, 48, 109
6, 98616, Note_on_c, 4, 48, 0
6, 98616, Note_on_c, 4, 60, 0
6, 98640, Note_on_c, 4, 60, 101
6, 98640, Note_on_c, 4, 48, 101
6, 98784, Note_on_c, 4, 48, 0
6, 98784, Note_on_c, 4, 60, 0
6, 98820, Note_on_c, 4, 60, 102
6, 98820, Note_on_c, 4, 48, 103
6, 98868, Note_on_c, 4, 48, 0
6, 98868, Note_on_c, 4, 60, 0
6, 98880, Note_on_c, 4, 53, 121
6, 98880, Note_on_c, 4, 41, 107
6, 99792, Note_on_c, 4, 41, 0
6, 99792, Note_on_c, 4, 53, 0
6, 100320, Note_on_c, 4, 48, 113
6, 100752, Note_on_c, 4, 48, 0
6, 103680, Note_on_c, 4, 65, 103
6, 103680, Note_on_c, 4, 53, 102
6, 103872, Note_on_c, 4, 53, 0
6, 103872, Note_on_c, 4, 65, 0
6, 103920, Note_on_c, 4, 60, 97
6, 103920, Note_on_c, 4, 48, 95
6, 104112, Note_on_c, 4, 48, 0
6, 104112, Note_on_c, 4, 60, 0
6, 104160, Note_on_c, 4, 60, 104
6, 104160, Note_on_c, 4, 53, 105
6, 104208, Note_on_c, 4, 53, 0
6, 104208, Note_on_c, 4, 60, 0
6, 106800, Note_on_c, 4, 48, 118
6, 106800, Note_on_c, 4, 60, 110
6, 106832, Note_on_c, 4, 60, 0
6, 106832, Note_on_c, 4, 48, 0
6, 106840, Note_on_c, 4, 48, 116
6, 106840, Note_on_c, 4, 60, 117
6, 106872, Note_on_c, 4, 60, 0
6, 106872, Note_on_c, 4, 48, 0
6, 106880, Note_on_c, 4, 48, 121
6, 106880, Note_on_c, 4, 60, 118
6, 106912, Note_on_c, 4, 60, 0
6, 106912, Note_on_c, 4, 48, 0
6, 106920, Note_on_c, 4, 48, 127
6, 106920, Note_on_c, 4, 60, 117
6, 106952, Note_on_c, 4, 60, 0
6, 106952, Note_on_c, 4, 48, 0
6, 106960, Note_on_c, 4, 60, 116
6, 106960, Note_on_c, 4, 48, 121
6, 106992, Note_on_c, 4, 48, 0
6, 106992, Note_on_c, 4, 60, 0
6, 107000, Note_on_c, 4, 48, 127
6, 107000, Note_on_c, 4, 60, 120
6, 107032, Note_on_c, 4, 60, 0
6, 107032, Note_on_c, 4, 48, 0
6, 107040, Note_on_c, 4, 60, 110
6, 107040, Note_on_c, 4, 48, 118
6, 107072, Note_on_c, 4, 48, 0
6, 107072, Note_on_c, 4, 60, 0
6, 107080, Note_on_c, 4, 60, 117
6, 107080, Note_on_c, 4, 48, 116
6, 107112, Note_on_c, 4, 48, 0
6, 107112, Note_on_c, 4, 60, 0
6, 107120, Note_on_c, 4, 60, 118
6, 107120, Note_on_c, 4, 48, 121
6, 107152, Note_on_c, 4, 48, 0
6, 107152, Note_on_c, 4, 60, 0
6, 107160, Note_on_c, 4, 60, 117
6, 107160, Note_on_c, 4, 48, 127
6, 107192, Note_on_c, 4, 48, 0
6, 107192, Note_on_c, 4, 60, 0
6, 107200, Note_on_c, 4, 48, 121
6, 107200, Note_on_c, 4, 60, 116
6, 107232, Note_on_c, 4, 60, 0
6, 107232, Note_on_c, 4, 48, 0
6, 107240, Note_on_c, 4, 60, 120
6, 107240, Note_on_c, 4, 48, 127
6, 107272, Note_on_c, 4, 48, 0
6, 107272, Note_on_c, 4, 60, 0
6, 107280, Note_on_c, 4, 60, 110
6, 107280, Note_on_c, 4, 48, 118
6, 107312, Note_on_c, 4, 48, 0
6, 107312, Note_on_c, 4, 60, 0
6, 107320, Note_on_c, 4, 60, 117
6, 107320, Note_on_c, 4, 48, 116
6, 107352, Note_on_c, 4, 48, 0
6, 107352, Note_on_c, 4, 60, 0
6, 107360, Note_on_c, 4, 60, 118
6, 107360, Note_on_c, 4, 48, 121
6, 107392, Note_on_c, 4, 48, 0
6, 107392, Note_on_c, 4, 60, 0
6, 107400, Note_on_c, 4, 60, 117
6, 107400, Note_on_c, 4, 48, 127
6, 107432, Note_on_c, 4, 48, 0
6, 107432, Note_on_c, 4, 60, 0
6, 107440, Note_on_c, 4, 48, 121
6, 107440, Note_on_c, 4, 60, 116
6, 107472, Note_on_c, 4, 60, 0
6, 107472, Note_on_c, 4, 48, 0
6, 107480, Note_on_c, 4, 60, 120
6, 107480, Note_on_c, 4, 48, 127
6, 107512, Note_on_c, 4, 48, 0
6, 107512, Note_on_c, 4, 60, 0
6, 107520, Note_on_c, 4, 60, 110
6, 107520, Note_on_c, 4, 48, 118
6, 107552, Note_on_c, 4, 48, 0
6, 107552, Note_on_c, 4, 60, 0
6, 107560, Note_on_c, 4, 60, 117
6, 107560, Note_on_c, 4, 48, 116
6, 107592, Note_on_c, 4, 48, 0
6, 107592, Note_on_c, 4, 60, 0
6, 107600, Note_on_c, 4, 60, 118
6, 107600, Note_on_c, 4, 48, 121
6, 107632, Note_on_c, 4, 48, 0
6, 107632, Note_on_c, 4, 60, 0
6, 107640, Note_on_c, 4, 60, 117
6, 107640, Note_on_c, 4, 48, 127
6, 107672, Note_on_c, 4, 48, 0
6, 107672, Note_on_c, 4, 60, 0
6, 107680, Note_on_c, 4, 48, 121
6, 107680, Note_on_c, 4, 60, 116
6, 107712, Note_on_c, 4, 60, 0
6, 107712, Note_on_c, 4, 48, 0
6, 107720, Note_on_c, 4, 60, 120
6, 107720, Note_on_c, 4, 48, 127
6, 107752, Note_on_c, 4, 48, 0
6, 107752, Note_on_c, 4, 60, 0
6, 107760, Note_on_c, 4, 53, 112
6, 107760, Note_on_c, 4, 65, 127
6, 107808, Note_on_c, 4, 65, 0
6, 107808, Note_on_c, 4, 53, 0
6, 107820, Note_on_c, 4, 65, 112
6, 107820, Note_on_c, 4, 69, 112
6, 107868, Note_on_c, 4, 69, 0
6, 107868, Note_on_c, 4, 65, 0
6, 107880, Note_on_c, 4, 67, 105
6, 107880, Note_on_c, 4, 70, 103
6, 107928, Note_on_c, 4, 70, 0
6, 107928, Note_on_c, 4, 67, 0
6, 107940, Note_on_c, 4, 67, 113
6, 107940, Note_on_c, 4, 70, 123
6, 107988, Note_on_c, 4, 70, 0
6, 107988, Note_on_c, 4, 67, 0
6, 108000, Note_on_c, 4, 69, 113
6, 108000, Note_on_c, 4, 72, 125
6, 108048, Note_on_c, 4, 72, 0
6, 108048, Note_on_c, 4, 69, 0
6, 108060, Note_on_c, 4, 67, 123
6, 108060, Note_on_c, 4, 70, 117
6, 108084, Note_on_c, 4, 70, 0
6, 108084, Note_on_c, 4, 67, 0
6, 108090, Note_on_c, 4, 69, 107
6, 108090, Note_on_c, 4, 65, 98
6, 108114, Note_on_c, 4, 65, 0
6, 108114, Note_on_c, 4, 69, 0
6, 108120, Note_on_c, 4, 67, 106
6, 108120, Note_on_c, 4, 60, 108
6, 108168, Note_on_c, 4, 60, 0
6, 108168, Note_on_c, 4, 67, 0
6, 108180, Note_on_c, 4, 60, 105
6, 108228, Note_on_c, 4, 60, 0
6, 108240, Note_on_c, 4, 57, 106
6, 108240, Note_on_c, 4, 65, 123
6, 108288, Note_on_c, 4, 65, 0
6, 108288, Note_on_c, 4, 57, 0
6, 108300, Note_on_c, 4, 60, 92
6, 108300, Note_on_c, 4, 67, 107
6, 108348, Note_on_c, 4, 67, 0
6, 108348, Note_on_c, 4, 60, 0
6, 108360, Note_on_c, 4, 65, 123
6, 108360, Note_on_c, 4, 69, 113
6, 108456, Note_on_c, 4, 69, 0
6, 108456, Note_on_c, 4, 65, 0
6, 108480, Note_on_c, 4, 60, 109
6, 108480, Note_on_c, 4, 67, 112
6, 108528, Note_on_c, 4, 67, 0
6, 108528, Note_on_c, 4, 60, 0
6, 108540, Note_on_c, 4, 65, 101
6, 108540, Note_on_c, 4, 69, 114
6, 108588, Note_on_c, 4, 69, 0
6, 108588, Note_on_c, 4, 65, 0
6, 108600, Note_on_c, 4, 70, 121
6, 108600, Note_on_c, 4, 67, 125
6, 108696, Note_on_c, 4, 67, 0
6, 108696, Note_on_c, 4, 70, 0
6, 108720, Note_on_c, 4, 65, 110
6, 108720, Note_on_c, 4, 69, 112
6, 108768, Note_on_c, 4, 69, 0
6, 108768, Note_on_c, 4, 65, 0
6, 108780, Note_on_c, 4, 69, 101
6, 108780, Note_on_c, 4, 72, 110
6, 108828, Note_on_c, 4, 72, 0
6, 108828, Note_on_c, 4, 69, 0
6, 108840, Note_on_c, 4, 69, 111
6, 108840, Note_on_c, 4, 72, 107
6, 108888, Note_on_c, 4, 72, 0
6, 108888, Note_on_c, 4, 69, 0
6, 108900, Note_on_c, 4, 72, 108
6, 108900, Note_on_c, 4, 69, 109
6, 108948, Note_on_c, 4, 69, 0
6, 108948, Note_on_c, 4, 72, 0
6, 108960, Note_on_c, 4, 69, 106
6, 108960, Note_on_c, 4, 72, 123
6, 109056, Note_on_c, 4, 72, 0
6, 109056, Note_on_c, 4, 69, 0
6, 109080, Note_on_c, 4, 69, 125
6, 109080, Note_on_c, 4, 65, 127
6, 109128, Note_on_c, 4, 65, 0
6, 109128, Note_on_c, 4, 69, 0
6, 109140, Note_on_c, 4, 65, 120
6, 109140, Note_on_c, 4, 57, 109
6, 109188, Note_on_c, 4, 57, 0
6, 109188, Note_on_c, 4, 65, 0
6, 109260, Note_on_c, 4, 65, 123
6, 109260, Note_on_c, 4, 57, 108
6, 109308, Note_on_c, 4, 57, 0
6, 109308, Note_on_c, 4, 65, 0
6, 109320, Note_on_c, 4, 60, 104
6, 109320, Note_on_c, 4, 67, 112
6, 109416, Note_on_c, 4, 67, 0
6, 109416, Note_on_c, 4, 60, 0
6, 109440, Note_on_c, 4, 65, 117
6, 109440, Note_on_c, 4, 57, 101
6, 109488, Note_on_c, 4, 57, 0
6, 109488, Note_on_c, 4, 65, 0
6, 109500, Note_on_c, 4, 60, 104
6, 109500, Note_on_c, 4, 67, 104
6, 109548, Note_on_c, 4, 67, 0
6, 109548, Note_on_c, 4, 60, 0
6, 109560, Note_on_c, 4, 65, 120
6, 109560, Note_on_c, 4, 69, 109
6, 109656, Note_on_c, 4, 69, 0
6, 109656, Note_on_c, 4, 65, 0
6, 109680, Note_on_c, 4, 67, 120
6, 109680, Note_on_c, 4, 60, 121
6, 109728, Note_on_c, 4, 60, 0
6, 109728, Note_on_c, 4, 67, 0
6, 109740, Note_on_c, 4, 67, 99
6, 109740, Note_on_c, 4, 70, 103
6, 109788, Note_on_c, 4, 70, 0
6, 109788, Note_on_c, 4, 67, 0
6, 109800, Note_on_c, 4, 67, 116
6, 109800, Note_on_c, 4, 70, 116
6, 109848, Note_on_c, 4, 70, 0
6, 109848, Note_on_c, 4, 67, 0
6, 109860, Note_on_c, 4, 67, 117
6, 109860, Note_on_c, 4, 70, 109
6, 109908, Note_on_c, 4, 70, 0
6, 109908, Note_on_c, 4, 67, 0
6, 109920, Note_on_c, 4, 70, 117
6, 109920, Note_on_c, 4, 67, 125
6, 110064, Note_on_c, 4, 67, 0
6, 110064, Note_on_c, 4, 70, 0
6, 110100, Note_on_c, 4, 67, 118
6, 110100, Note_on_c, 4, 60, 101
6, 110148, Note_on_c, 4, 60, 0
6, 110148, Note_on_c, 4, 67, 0
6, 110160, Note_on_c, 4, 65, 102
6, 110160, Note_on_c, 4, 69, 117
6, 110208, Note_on_c, 4, 69, 0
6, 110208, Note_on_c, 4, 65, 0
6, 110220, Note_on_c, 4, 67, 114
6, 110220, Note_on_c, 4, 70, 114
6, 110268, Note_on_c, 4, 70, 0
6, 110268, Note_on_c, 4, 67, 0
6, 110280, Note_on_c, 4, 72, 120
6, 110280, Note_on_c, 4, 69, 113
6, 110376, Note_on_c, 4, 69, 0
6, 110376, Note_on_c, 4, 72, 0
6, 110400, Note_on_c, 4, 70, 125
6, 110400, Note_on_c, 4, 67, 118
6, 110448, Note_on_c, 4, 67, 0
6, 110448, Note_on_c, 4, 70, 0
6, 110460, Note_on_c, 4, 67, 111
6, 110460, Note_on_c, 4, 60, 114
6, 110508, Note_on_c, 4, 60, 0
6, 110508, Note_on_c, 4, 67, 0
6, 110520, Note_on_c, 4, 70, 116
6, 110520, Note_on_c, 4, 67, 114
6, 110568, Note_on_c, 4, 67, 0
6, 110568, Note_on_c, 4, 70, 0
6, 110580, Note_on_c, 4, 67, 118
6, 110580, Note_on_c, 4, 60, 114
6, 110628, Note_on_c, 4, 60, 0
6, 110628, Note_on_c, 4, 67, 0
6, 110640, Note_on_c, 4, 65, 127
6, 110640, Note_on_c, 4, 69, 127
6, 110688, Note_on_c, 4, 69, 0
6, 110688, Note_on_c, 4, 65, 0
6, 110700, Note_on_c, 4, 67, 120
6, 110700, Note_on_c, 4, 70, 127
6, 110748, Note_on_c, 4, 70, 0
6, 110748, Note_on_c, 4, 67, 0
6, 110760, Note_on_c, 4, 69, 127
6, 110760, Note_on_c, 4, 72, 127
6, 110856, Note_on_c, 4, 72, 0
6, 110856, Note_on_c, 4, 69, 0
6, 110880, Note_on_c, 4, 70, 121
6, 110880, Note_on_c, 4, 67, 125
6, 110928, Note_on_c, 4, 67, 0
6, 110928, Note_on_c, 4, 70, 0
6, 110940, Note_on_c, 4, 60, 121
6, 110940, Note_on_c, 4, 67, 103
6, 110988, Note_on_c, 4, 67, 0
6, 110988, Note_on_c, 4, 60, 0
6, 111000, Note_on_c, 4, 67, 117
6, 111000, Note_on_c, 4, 70, 112
6, 111048, Note_on_c, 4, 70, 0
6, 111048, Note_on_c, 4, 67, 0
6, 111060, Note_on_c, 4, 67, 120
6, 111060, Note_on_c, 4, 60, 112
6, 111108, Note_on_c, 4, 60, 0
6, 111108, Note_on_c, 4, 67, 0
6, 111120, Note_on_c, 4, 69, 116
6, 111120, Note_on_c, 4, 65, 127
6, 111168, Note_on_c, 4, 65, 0
6, 111168, Note_on_c, 4, 69, 0
6, 111180, Note_on_c, 4, 67, 110
6, 111180, Note_on_c, 4, 60, 105
6, 111228, Note_on_c, 4, 60, 0
6, 111228, Note_on_c, 4, 67, 0
6, 111240, Note_on_c, 4, 67, 121
6, 111240, Note_on_c, 4, 60, 110
6, 111288, Note_on_c, 4, 60, 0
6, 111288, Note_on_c, 4, 67, 0
6, 111300, Note_on_c, 4, 60, 113
6, 111300, Note_on_c, 4, 67, 121
6, 111348, Note_on_c, 4, 67, 0
6, 111348, Note_on_c, 4, 60, 0
6, 111360, Note_on_c, 4, 69, 112
6, 111360, Note_on_c, 4, 65, 117
6, 111408, Note_on_c, 4, 65, 0
6, 111408, Note_on_c, 4, 69, 0
6, 111420, Note_on_c, 4, 67, 113
6, 111420, Note_on_c, 4, 60, 103
6, 111468, Note_on_c, 4, 60, 0
6, 111468, Note_on_c, 4, 67, 0
6, 111480, Note_on_c, 4, 67, 116
6, 111480, Note_on_c, 4, 60, 109
6, 111528, Note_on_c, 4, 60, 0
6, 111528, Note_on_c, 4, 67, 0
6, 111540, Note_on_c, 4, 67, 120
6, 111540, Note_on_c, 4, 60, 114
6, 111588, Note_on_c, 4, 60, 0
6, 111588, Note_on_c, 4, 67, 0
6, 111600, Note_on_c, 4, 65, 127
6, 111600, Note_on_c, 4, 57, 109
6, 111632, Note_on_c, 4, 57, 0
6, 111632, Note_on_c, 4, 65, 0
6, 111640, Note_on_c, 4, 65, 127
6, 111640, Note_on_c, 4, 57, 102
6, 111672, Note_on_c, 4, 57, 0
6, 111672, Note_on_c, 4, 65, 0
6, 111680, Note_on_c, 4, 65, 118
6, 111680, Note_on_c, 4, 57, 112
6, 111712, Note_on_c, 4, 57, 0
6, 111712, Note_on_c, 4, 65, 0
6, 111720, Note_on_c, 4, 65, 116
6, 111720, Note_on_c, 4, 57, 101
6, 111752, Note_on_c, 4, 57, 0
6, 111752, Note_on_c, 4, 65, 0
6, 111760, Note_on_c, 4, 65, 120
6, 111760, Note_on_c, 4, 57, 104
6, 111792, Note_on_c, 4, 57, 0
6, 111792, Note_on_c, 4, 65, 0
6, 111800, Note_on_c, 4, 65, 125
6, 111800, Note_on_c, 4, 57, 102
6, 111832, Note_on_c, 4, 57, 0
6, 111832, Note_on_c, 4, 65, 0
6, 111840, Note_on_c, 4, 65, 107
6, 111840, Note_on_c, 4, 57, 101
6, 111936, Note_on_c, 4, 57, 0
6, 111936, Note_on_c, 4, 65, 0
6, 112560, Note_on_c, 4, 65, 100
6, 112560, Note_on_c, 4, 57, 103
6, 112592, Note_on_c, 4, 57, 0
6, 112592, Note_on_c, 4, 65, 0
6, 112600, Note_on_c, 4, 65, 113
6, 112600, Note_on_c, 4, 57, 105
6, 112632, Note_on_c, 4, 57, 0
6, 112632, Note_on_c, 4, 65, 0
6, 112640, Note_on_c, 4, 65, 114
6, 112640, Note_on_c, 4, 57, 101
6, 112672, Note_on_c, 4, 57, 0
6, 112672, Note_on_c, 4, 65, 0
6, 112680, Note_on_c, 4, 65, 127
6, 112680, Note_on_c, 4, 57, 102
6, 112712, Note_on_c, 4, 57, 0
6, 112712, Note_on_c, 4, 65, 0
6, 112720, Note_on_c, 4, 65, 121
6, 112720, Note_on_c, 4, 57, 102
6, 112752, Note_on_c, 4, 57, 0
6, 112752, Note_on_c, 4, 65, 0
6, 112760, Note_on_c, 4, 65, 110
6, 112760, Note_on_c, 4, 57, 103
6, 112792, Note_on_c, 4, 57, 0
6, 112792, Note_on_c, 4, 65, 0
6, 112800, Note_on_c, 4, 65, 105
6, 112800, Note_on_c, 4, 57, 108
6, 112896, Note_on_c, 4, 57, 0
6, 112896, Note_on_c, 4, 65, 0
6, 113520, Note_on_c, 4, 65, 106
6, 113520, Note_on_c, 4, 57, 104
6, 113552, Note_on_c, 4, 57, 0
6, 113552, Note_on_c, 4, 65, 0
6, 113560, Note_on_c, 4, 65, 113
6, 113560, Note_on_c, 4, 57, 101
6, 113592, Note_on_c, 4, 57, 0
6, 113592, Note_on_c, 4, 65, 0
6, 113600, Note_on_c, 4, 65, 121
6, 113600, Note_on_c, 4, 57, 103
6, 113632, Note_on_c, 4, 57, 0
6, 113632, Note_on_c, 4, 65, 0
6, 113640, Note_on_c, 4, 65, 105
6, 113640, Note_on_c, 4, 57, 97
6, 113672, Note_on_c, 4, 57, 0
6, 113672, Note_on_c, 4, 65, 0
6, 113680, Note_on_c, 4, 65, 113
6, 113680, Note_on_c, 4, 57, 103
6, 113712, Note_on_c, 4, 57, 0
6, 113712, Note_on_c, 4, 65, 0
6, 113720, Note_on_c, 4, 65, 118
6, 113720, Note_on_c, 4, 57, 101
6, 113752, Note_on_c, 4, 57, 0
6, 113752, Note_on_c, 4, 65, 0
6, 113760, Note_on_c, 4, 65, 102
6, 113760, Note_on_c, 4, 57, 98
6, 113856, Note_on_c, 4, 57, 0
6, 113856, Note_on_c, 4, 65, 0
6, 114000, Note_on_c, 4, 65, 109
6, 114000, Note_on_c, 4, 67, 107
6, 114032, Note_on_c, 4, 67, 0
6, 114032, Note_on_c, 4, 65, 0
6, 114040, Note_on_c, 4, 65, 111
6, 114040, Note_on_c, 4, 67, 114
6, 114072, Note_on_c, 4, 67, 0
6, 114072, Note_on_c, 4, 65, 0
6, 114080, Note_on_c, 4, 65, 107
6, 114080, Note_on_c, 4, 67, 107
6, 114112, Note_on_c, 4, 67, 0
6, 114112, Note_on_c, 4, 65, 0
6, 114120, Note_on_c, 4, 65, 112
6, 114120, Note_on_c, 4, 67, 114
6, 114152, Note_on_c, 4, 67, 0
6, 114152, Note_on_c, 4, 65, 0
6, 114160, Note_on_c, 4, 65, 110
6, 114160, Note_on_c, 4, 67, 111
6, 114192, Note_on_c, 4, 67, 0
6, 114192, Note_on_c, 4, 65, 0
6, 114200, Note_on_c, 4, 67, 108
6, 114200, Note_on_c, 4, 65, 109
6, 114232, Note_on_c, 4, 65, 0
6, 114232, Note_on_c, 4, 67, 0
6, 114240, Note_on_c, 4, 67, 109
6, 114240, Note_on_c, 4, 65, 109
6, 114336, Note_on_c, 4, 65, 0
6, 114336, Note_on_c, 4, 67, 0
6, 114480, Note_on_c, 4, 67, 117
6, 114480, Note_on_c, 4, 60, 106
6, 114512, Note_on_c, 4, 60, 0
6, 114512, Note_on_c, 4, 67, 0
6, 114520, Note_on_c, 4, 67, 125
6, 114520, Note_on_c, 4, 60, 110
6, 114552, Note_on_c, 4, 60, 0
6, 114552, Note_on_c, 4, 67, 0
6, 114560, Note_on_c, 4, 67, 127
6, 114560, Note_on_c, 4, 60, 109
6, 114592, Note_on_c, 4, 60, 0
6, 114592, Note_on_c, 4, 67, 0
6, 114600, Note_on_c, 4, 67, 127
6, 114600, Note_on_c, 4, 60, 108
6, 114632, Note_on_c, 4, 60, 0
6, 114632, Note_on_c, 4, 67, 0
6, 114640, Note_on_c, 4, 67, 127
6, 114640, Note_on_c, 4, 60, 111
6, 114672, Note_on_c, 4, 60, 0
6, 114672, Note_on_c, 4, 67, 0
6, 114680, Note_on_c, 4, 67, 127
6, 114680, Note_on_c, 4, 60, 107
6, 114712, Note_on_c, 4, 60, 0
6, 114712, Note_on_c, 4, 67, 0
6, 114720, Note_on_c, 4, 67, 117
6, 114720, Note_on_c, 4, 60, 103
6, 114816, Note_on_c, 4, 60, 0
6, 114816, Note_on_c, 4, 67, 0
6, 118800, Note_on_c, 4, 48, 120
6, 118800, Note_on_c, 4, 60, 103
6, 119232, Note_on_c, 4, 60, 0
6, 119232, Note_on_c, 4, 48, 0
6, 119280, Note_on_c, 4, 65, 100
6, 119280, Note_on_c, 4, 53, 99
6, 119712, Note_on_c, 4, 53, 0
6, 119712, Note_on_c, 4, 65, 0
6, 119760, Note_on_c, 4, 64, 100
6, 119856, Note_on_c, 4, 64, 0
6, 119880, Note_on_c, 4, 64, 105
6, 119976, Note_on_c, 4, 64, 0
6, 120000, Note_on_c, 4, 64, 104
6, 120096, Note_on_c, 4, 64, 0
6, 120120, Note_on_c, 4, 67, 118
6, 120168, Note_on_c, 4, 67, 0
6, 120180, Note_on_c, 4, 64, 118
6, 120228, Note_on_c, 4, 64, 0
6, 120240, Note_on_c, 4, 65, 120
6, 120336, Note_on_c, 4, 65, 0
6, 120360, Note_on_c, 4, 65, 118
6, 120456, Note_on_c, 4, 65, 0
6, 120480, Note_on_c, 4, 65, 104
6, 120576, Note_on_c, 4, 65, 0
6, 120600, Note_on_c, 4, 69, 109
6, 120648, Note_on_c, 4, 69, 0
6, 120660, Note_on_c, 4, 65, 127
6, 120708, Note_on_c, 4, 65, 0
6, 120720, Note_on_c, 4, 67, 106
6, 120816, Note_on_c, 4, 67, 0
6, 120840, Note_on_c, 4, 67, 107
6, 120936, Note_on_c, 4, 67, 0
6, 120960, Note_on_c, 4, 67, 109
6, 121056, Note_on_c, 4, 67, 0
6, 121080, Note_on_c, 4, 70, 105
6, 121128, Note_on_c, 4, 70, 0
6, 121140, Note_on_c, 4, 67, 120
6, 121188, Note_on_c, 4, 67, 0
6, 121200, Note_on_c, 4, 69, 105
6, 121296, Note_on_c, 4, 69, 0
6, 121320, Note_on_c, 4, 69, 109
6, 121416, Note_on_c, 4, 69, 0
6, 121440, Note_on_c, 4, 69, 109
6, 121536, Note_on_c, 4, 69, 0
6, 121560, Note_on_c, 4, 72, 113
6, 121608, Note_on_c, 4, 72, 0
6, 121620, Note_on_c, 4, 69, 107
6, 121668, Note_on_c, 4, 69, 0
6, 121680, Note_on_c, 4, 60, 114
6, 121680, Note_on_c, 4, 72, 100
6, 121728, Note_on_c, 4, 72, 0
6, 121728, Note_on_c, 4, 60, 0
6, 121740, Note_on_c, 4, 48, 127
6, 121740, Note_on_c, 4, 60, 113
6, 121788, Note_on_c, 4, 60, 0
6, 121788, Note_on_c, 4, 48, 0
6, 121800, Note_on_c, 4, 48, 123
6, 121800, Note_on_c, 4, 60, 110
6, 121848, Note_on_c, 4, 60, 0
6, 121848, Note_on_c, 4, 48, 0
6, 121860, Note_on_c, 4, 48, 120
6, 121860, Note_on_c, 4, 60, 109
6, 121908, Note_on_c, 4, 60, 0
6, 121908, Note_on_c, 4, 48, 0
6, 121920, Note_on_c, 4, 48, 127
6, 121920, Note_on_c, 4, 60, 113
6, 121968, Note_on_c, 4, 60, 0
6, 121968, Note_on_c, 4, 48, 0
6, 121980, Note_on_c, 4, 60, 112
6, 121980, Note_on_c, 4, 48, 127
6, 122028, Note_on_c, 4, 48, 0
6, 122028, Note_on_c, 4, 60, 0
6, 122040, Note_on_c, 4, 60, 114
6, 122040, Note_on_c, 4, 48, 127
6, 122088, Note_on_c, 4, 48, 0
6, 122088, Note_on_c, 4, 60, 0
6, 122100, Note_on_c, 4, 48, 127
6, 122100, Note_on_c, 4, 60, 113
6, 122148, Note_on_c, 4, 60, 0
6, 122148, Note_on_c, 4, 48, 0
6, 122160, Note_on_c, 4, 65, 101
6, 122160, Note_on_c, 4, 53, 98
6, 122688, Note_on_c, 4, 53, 0
6, 122688, Note_on_c, 4, 65, 0
6, 122700, Note_on_c, 4, 65, 114
6, 122700, Note_on_c, 4, 53, 112
6, 122748, Note_on_c, 4, 53, 0
6, 122748, Note_on_c, 4, 65, 0
6, 122760, Note_on_c, 4, 65, 107
6, 122760, Note_on_c, 4, 53, 109
6, 122808, Note_on_c, 4, 53, 0
6, 122808, Note_on_c, 4, 65, 0
6, 122820, Note_on_c, 4, 65, 113
6, 122820, Note_on_c, 4, 53, 111
6, 122868, Note_on_c, 4, 53, 0
6, 122868, Note_on_c, 4, 65, 0
6, 122880, Note_on_c, 4, 65, 104
6, 122880, Note_on_c, 4, 53, 106
6, 122928, Note_on_c, 4, 53, 0
6, 122928, Note_on_c, 4, 65, 0
6, 123840, Note_on_c, 4, 65, 110
6, 123840, Note_on_c, 4, 53, 105
6, 124352, Note_on_c, 4, 53, 0
6, 124352, Note_on_c, 4, 65, 0
6, 124360, Note_on_c, 4, 65, 107
6, 124360, Note_on_c, 4, 53, 108
6, 124392, Note_on_c, 4, 53, 0
6, 124392, Note_on_c, 4, 65, 0
6, 124400, Note_on_c, 4, 65, 107
6, 124400, Note_on_c, 4, 53, 107
6, 124432, Note_on_c, 4, 53, 0
6, 124432, Note_on_c, 4, 65, 0
6, 124440, Note_on_c, 4, 65, 110
6, 124440, Note_on_c, 4, 53, 108
6, 124472, Note_on_c, 4, 53, 0
6, 124472, Note_on_c, 4, 65, 0
6, 124480, Note_on_c, 4, 65, 116
6, 124480, Note_on_c, 4, 53, 103
6, 124512, Note_on_c, 4, 53, 0
6, 124512, Note_on_c, 4, 65, 0
6, 124520, Note_on_c, 4, 65, 109
6, 124520, Note_on_c, 4, 53, 103
6, 124552, Note_on_c, 4, 53, 0
6, 124552, Note_on_c, 4, 65, 0
6, 124560, Note_on_c, 4, 65, 101
6, 124560, Note_on_c, 4, 53, 101
6, 124656, Note_on_c, 4, 53, 0
6, 124656, Note_on_c, 4, 65, 0
6, 124800, Note_on_c, 4, 41, 105
6, 124800, Note_on_c, 4, 53, 103
6, 125232, Note_on_c, 4, 53, 0
6, 125232, Note_on_c, 4, 41, 0
6, 125280, Note_on_c, 4, 48, 107
6, 125280, Note_on_c, 4, 36, 100
6, 125472, Note_on_c, 4, 36, 0
6, 125472, Note_on_c, 4, 48, 0
6, 125520, Note_on_c, 4, 41, 103
6, 125520, Note_on_c, 4, 53, 101
6, 125616, Note_on_c, 4, 53, 0
6, 125616, Note_on_c, 4, 41, 0
6, 125640, Note_on_c, 4, 53, 109
6, 125640, Note_on_c, 4, 41, 104
6, 125856, Note_on_c, 4, 41, 0
6, 125856, Note_on_c, 4, 53, 0
6, 125880, Note_on_c, 4, 41, 101
6, 125880, Note_on_c, 4, 53, 107
6, 126096, Note_on_c, 4, 53, 0
6, 126096, Note_on_c, 4, 41, 0
6, 126120, Note_on_c, 4, 41, 109
6, 126120, Note_on_c, 4, 53, 104
6, 126216, Note_on_c, 4, 53, 0
6, 126216, Note_on_c, 4, 41, 0
6, 126240, Note_on_c, 4, 48, 104
6, 126240, Note_on_c, 4, 36, 96
6, 126336, Note_on_c, 4, 36, 0
6, 126336, Note_on_c, 4, 48, 0
6, 126360, Note_on_c, 4, 48, 101
6, 126360, Note_on_c, 4, 36, 104
6, 126456, Note_on_c, 4, 36, 0
6, 126456, Note_on_c, 4, 48, 0
6, 126480, Note_on_c, 4, 41, 98
6, 126480, Note_on_c, 4, 53, 103
6, 126512, Note_on_c, 4, 53, 0
6, 126512, Note_on_c, 4, 41, 0
6, 126520, Note_on_c, 4, 53, 104
6, 126520, Note_on_c, 4, 65, 108
6, 126552, Note_on_c, 4, 65, 0
6, 126552, Note_on_c, 4, 53, 0
6, 126560, Note_on_c, 4, 53, 111
6, 126560, Note_on_c, 4, 65, 109
6, 126592, Note_on_c, 4, 65, 0
6, 126592, Note_on_c, 4, 53, 0
6, 126600, Note_on_c, 4, 65, 127
6, 126600, Note_on_c, 4, 53, 127
6, 126632, Note_on_c, 4, 53, 0
6, 126632, Note_on_c, 4, 65, 0
6, 126640, Note_on_c, 4, 65, 127
6, 126640, Note_on_c, 4, 53, 127
6, 126672, Note_on_c, 4, 53, 0
6, 126672, Note_on_c, 4, 65, 0
6, 126680, Note_on_c, 4, 53, 127
6, 126680, Note_on_c, 4, 65, 127
6, 126712, Note_on_c, 4, 65, 0
6, 126712, Note_on_c, 4, 53, 0
6, 126720, Note_on_c, 4, 65, 100
6, 126720, Note_on_c, 4, 53, 101
6, 126768, Note_on_c, 4, 53, 0
6, 126768, Note_on_c, 4, 65, 0
6, 126840, Note_on_c, 4, 65, 103
6, 126840, Note_on_c, 4, 53, 99
6, 126888, Note_on_c, 4, 53, 0
6, 126888, Note_on_c, 4, 65, 0
6, 126960, Note_on_c, 4, 65, 99
6, 126960, Note_on_c, 4, 53, 101
6, 127008, Note_on_c, 4, 53, 0
6, 127008, Note_on_c, 4, 65, 0
6, 127080, Note_on_c, 4, 65, 99
6, 127080, Note_on_c, 4, 53, 101
6, 127128, Note_on_c, 4, 53, 0
6, 127128, Note_on_c, 4, 65, 0
6, 127200, Note_on_c, 4, 60, 100
6, 127200, Note_on_c, 4, 48, 97
6, 127248, Note_on_c, 4, 48, 0
6, 127248, Note_on_c, 4, 60, 0
6, 127320, Note_on_c, 4, 60, 98
6, 127320, Note_on_c, 4, 48, 50
6, 127368, Note_on_c, 4, 48, 0
6, 127368, Note_on_c, 4, 60, 0
6, 127440, Note_on_c, 4, 53, 107
6, 127440, Note_on_c, 4, 65, 114
6, 127536, Note_on_c, 4, 65, 0
6, 127536, Note_on_c, 4, 53, 0
6, 127560, Note_on_c, 4, 48, 108
6, 127560, Note_on_c, 4, 60, 108
6, 127872, Note_on_c, 4, 60, 0
6, 127872, Note_on_c, 4, 48, 0
6, 127920, Note_on_c, 4, 57, 127
6, 127920, Note_on_c, 4, 69, 123
6, 128016, Note_on_c, 4, 69, 0
6, 128016, Note_on_c, 4, 57, 0
6, 128040, Note_on_c, 4, 53, 116
6, 128040, Note_on_c, 4, 65, 112
6, 128352, Note_on_c, 4, 65, 0
6, 128352, Note_on_c, 4, 53, 0
6, 128400, Note_on_c, 4, 65, 127
6, 128400, Note_on_c, 4, 53, 127
6, 128496, Note_on_c, 4, 53, 0
6, 128496, Note_on_c, 4, 65, 0
6, 128520, Note_on_c, 4, 48, 127
6, 128520, Note_on_c, 4, 60, 127
6, 128832, Note_on_c, 4, 60, 0
6, 128832, Note_on_c, 4, 48, 0
6, 128880, Note_on_c, 4, 69, 109
6, 128880, Note_on_c, 4, 57, 112
6, 128976, Note_on_c, 4, 57, 0
6, 128976, Note_on_c, 4, 69, 0
6, 129000, Note_on_c, 4, 53, 116
6, 129000, Note_on_c, 4, 65, 106
6, 129456, Note_on_c, 4, 65, 0
6, 129456, Note_on_c, 4, 53, 0
6, 129480, Note_on_c, 4, 48, 127
6, 129480, Note_on_c, 4, 60, 127
6, 129576, Note_on_c, 4, 60, 0
6, 129576, Note_on_c, 4, 48, 0
6, 129600, Note_on_c, 4, 53, 127
6, 129600, Note_on_c, 4, 65, 127
6, 129696, Note_on_c, 4, 65, 0
6, 129696, Note_on_c, 4, 53, 0
6, 129720, Note_on_c, 4, 48, 127
6, 129720, Note_on_c, 4, 60, 127
6, 129816, Note_on_c, 4, 60, 0
6, 129816, Note_on_c, 4, 48, 0
6, 129840, Note_on_c, 4, 65, 127
6, 129840, Note_on_c, 4, 53, 127
6, 129936, Note_on_c, 4, 53, 0
6, 129936, Note_on_c, 4, 65, 0
6, 129960, Note_on_c, 4, 48, 121
6, 129960, Note_on_c, 4, 60, 127
6, 130056, Note_on_c, 4, 60, 0
6, 130056, Note_on_c, 4, 48, 0
6, 130080, Note_on_c, 4, 65, 127
6, 130080, Note_on_c, 4, 53, 127
6, 130176, Note_on_c, 4, 53, 0
6, 130176, Note_on_c, 4, 65, 0
6, 130200, Note_on_c, 4, 48, 127
6, 130200, Note_on_c, 4, 60, 127
6, 130296, Note_on_c, 4, 60, 0
6, 130296, Note_on_c, 4, 48, 0
6, 130320, Note_on_c, 4, 65, 127
6, 130320, Note_on_c, 4, 53, 125
6, 130368, Note_on_c, 4, 53, 0
6, 130368, Note_on_c, 4, 65, 0
6, 133200, Note_on_c, 4, 41, 107
6, 133200, Note_on_c, 4, 53, 112
6, 133632, Note_on_c, 4, 53, 0
6, 133632, Note_on_c, 4, 41, 0
6, 133680, Note_on_c, 4, 41, 118
6, 133680, Note_on_c, 4, 53, 108
6, 134112, Note_on_c, 4, 53, 0
6, 134112, Note_on_c, 4, 41, 0
6, 134580, Note_on_c, 4, 65, 127
6, 134580, Note_on_c, 4, 53, 127
6, 134628, Note_on_c, 4, 53, 0
6, 134628, Note_on_c, 4, 65, 0
6, 134640, Note_on_c, 4, 65, 105
6, 134640, Note_on_c, 4, 53, 101
6, 134688, Note_on_c, 4, 53, 0
6, 134688, Note_on_c, 4, 65, 0
6, 134700, Note_on_c, 4, 65, 108
6, 134700, Note_on_c, 4, 53, 104
6, 134748, Note_on_c, 4, 53, 0
6, 134748, Note_on_c, 4, 65, 0
6, 134760, Note_on_c, 4, 65, 109
6, 134760, Note_on_c, 4, 53, 110
6, 134808, Note_on_c, 4, 53, 0
6, 134808, Note_on_c, 4, 65, 0
6, 134820, Note_on_c, 4, 65, 116
6, 134820, Note_on_c, 4, 53, 107
6, 134868, Note_on_c, 4, 53, 0
6, 134868, Note_on_c, 4, 65, 0
6, 134880, Note_on_c, 4, 65, 104
6, 134880, Note_on_c, 4, 53, 105
6, 134928, Note_on_c, 4, 53, 0
6, 134928, Note_on_c, 4, 65, 0
6, 134940, Note_on_c, 4, 65, 107
6, 134940, Note_on_c, 4, 53, 106
6, 134988, Note_on_c, 4, 53, 0
6, 134988, Note_on_c, 4, 65, 0
6, 135000, Note_on_c, 4, 65, 99
6, 135000, Note_on_c, 4, 53, 111
6, 135048, Note_on_c, 4, 53, 0
6, 135048, Note_on_c, 4, 65, 0
6, 135060, Note_on_c, 4, 65, 102
6, 135060, Note_on_c, 4, 53, 109
6, 135108, Note_on_c, 4, 53, 0
6, 135108, Note_on_c, 4, 65, 0
6, 135120, Note_on_c, 4, 65, 105
6, 135120, Note_on_c, 4, 53, 116
6, 135168, Note_on_c, 4, 53, 0
6, 135168, Note_on_c, 4, 65, 0
6, 138480, Note_on_c, 4, 65, 125
6, 138480, Note_on_c, 4, 53, 127
6, 138512, Note_on_c, 4, 53, 0
6, 138512, Note_on_c, 4, 65, 0
6, 138520, Note_on_c, 4, 53, 127
6, 138520, Note_on_c, 4, 65, 120
6, 138552, Note_on_c, 4, 65, 0
6, 138552, Note_on_c, 4, 53, 0
6, 138560, Note_on_c, 4, 53, 127
6, 138560, Note_on_c, 4, 65, 127
6, 138592, Note_on_c, 4, 65, 0
6, 138592, Note_on_c, 4, 53, 0
6, 138600, Note_on_c, 4, 65, 116
6, 138600, Note_on_c, 4, 53, 108
6, 138992, Note_on_c, 4, 53, 0
6, 138992, Note_on_c, 4, 65, 0
6, 139000, Note_on_c, 4, 65, 120
6, 139000, Note_on_c, 4, 53, 127
6, 139032, Note_on_c, 4, 53, 0
6, 139032, Note_on_c, 4, 65, 0
6, 139040, Note_on_c, 4, 65, 127
6, 139040, Note_on_c, 4, 53, 127
6, 139072, Note_on_c, 4, 53, 0
6, 139072, Note_on_c, 4, 65, 0
6, 139080, Note_on_c, 4, 53, 108
6, 139080, Note_on_c, 4, 65, 116
6, 139472, Note_on_c, 4, 65, 0
6, 139472, Note_on_c, 4, 53, 0
6, 139480, Note_on_c, 4, 65, 120
6, 139480, Note_on_c, 4, 53, 127
6, 139512, Note_on_c, 4, 53, 0
6, 139512, Note_on_c, 4, 65, 0
6, 139520, Note_on_c, 4, 65, 127
6, 139520, Note_on_c, 4, 53, 127
6, 139552, Note_on_c, 4, 53, 0
6, 139552, Note_on_c, 4, 65, 0
6, 139560, Note_on_c, 4, 53, 108
6, 139560, Note_on_c, 4, 65, 116
6, 139952, Note_on_c, 4, 65, 0
6, 139952, Note_on_c, 4, 53, 0
6, 139960, Note_on_c, 4, 65, 120
6, 139960, Note_on_c, 4, 53, 127
6, 139992, Note_on_c, 4, 53, 0
6, 139992, Note_on_c, 4, 65, 0
6, 140000, Note_on_c, 4, 65, 127
6, 140000, Note_on_c, 4, 53, 127
6, 140032, Note_on_c, 4, 53, 0
6, 140032, Note_on_c, 4, 65, 0
6, 140040, Note_on_c, 4, 53, 108
6, 140040, Note_on_c, 4, 65, 116
6, 140432, Note_on_c, 4, 65, 0
6, 140432, Note_on_c, 4, 53, 0
6, 140440, Note_on_c, 4, 57, 123
6, 140440, Note_on_c, 4, 65, 127
6, 140472, Note_on_c, 4, 65, 0
6, 140472, Note_on_c, 4, 57, 0
6, 140480, Note_on_c, 4, 57, 127
6, 140480, Note_on_c, 4, 65, 127
6, 140512, Note_on_c, 4, 65, 0
6, 140512, Note_on_c, 4, 57, 0
6, 140520, Note_on_c, 4, 65, 101
6, 140520, Note_on_c, 4, 57, 99
6, 140672, Note_on_c, 4, 57, 0
6, 140672, Note_on_c, 4, 65, 0
6, 140680, Note_on_c, 4, 65, 109
6, 140680, Note_on_c, 4, 57, 109
6, 140712, Note_on_c, 4, 57, 0
6, 140712, Note_on_c, 4, 65, 0
6, 140720, Note_on_c, 4, 65, 109
6, 140720, Note_on_c, 4, 57, 113
6, 140720, Note_on_c, 4, 65, 110
6, 140720, Note_on_c, 4, 57, 116
6, 140720, Note_on_c, 4, 65, 127
6, 140720, Note_on_c, 4, 57, 118
6, 140768, Note_on_c, 4, 57, 0
6, 140768, Note_on_c, 4, 57, 0
6, 140768, Note_on_c, 4, 65, 0
6, 140768, Note_on_c, 4, 65, 0
6, 140768, Note_on_c, 4, 65, 0
6, 140768, Note_on_c, 4, 57, 0
6, 140780, Note_on_c, 4, 65, 108
6, 140780, Note_on_c, 4, 57, 100
6, 140912, Note_on_c, 4, 57, 0
6, 140912, Note_on_c, 4, 65, 0
6, 140920, Note_on_c, 4, 65, 120
6, 140920, Note_on_c, 4, 57, 111
6, 140952, Note_on_c, 4, 57, 0
6, 140952, Note_on_c, 4, 65, 0
6, 140960, Note_on_c, 4, 65, 111
6, 140960, Note_on_c, 4, 57, 113
6, 140992, Note_on_c, 4, 57, 0
6, 140992, Note_on_c, 4, 65, 0
6, 141000, Note_on_c, 4, 65, 113
6, 141000, Note_on_c, 4, 57, 118
6, 141096, Note_on_c, 4, 57, 0
6, 141096, Note_on_c, 4, 65, 0
6, 141120, Note_on_c, 4, 65, 117
6, 141120, Note_on_c, 4, 60, 111
6, 141152, Note_on_c, 4, 60, 0
6, 141152, Note_on_c, 4, 65, 0
6, 141160, Note_on_c, 4, 60, 114
6, 141160, Note_on_c, 4, 65, 110
6, 141192, Note_on_c, 4, 65, 0
6, 141192, Note_on_c, 4, 60, 0
6, 141200, Note_on_c, 4, 65, 105
6, 141200, Note_on_c, 4, 60, 110
6, 141232, Note_on_c, 4, 60, 0
6, 141232, Note_on_c, 4, 65, 0
6, 141240, Note_on_c, 4, 60, 120
6, 141240, Note_on_c, 4, 65, 110
6, 141336, Note_on_c, 4, 65, 0
6, 141336, Note_on_c, 4, 60, 0
6, 141360, Note_on_c, 4, 65, 106
6, 141360, Note_on_c, 4, 57, 106
6, 141392, Note_on_c, 4, 57, 0
6, 141392, Note_on_c, 4, 65, 0
6, 141400, Note_on_c, 4, 57, 105
6, 141400, Note_on_c, 4, 65, 102
6, 141432, Note_on_c, 4, 65, 0
6, 141432, Note_on_c, 4, 57, 0
6, 141440, Note_on_c, 4, 57, 102
6, 141440, Note_on_c, 4, 65, 102
6, 141472, Note_on_c, 4, 65, 0
6, 141472, Note_on_c, 4, 57, 0
6, 141480, Note_on_c, 4, 65, 102
6, 141480, Note_on_c, 4, 57, 108
6, 141632, Note_on_c, 4, 57, 0
6, 141632, Note_on_c, 4, 65, 0
6, 141640, Note_on_c, 4, 57, 104
6, 141640, Note_on_c, 4, 65, 102
6, 141672, Note_on_c, 4, 65, 0
6, 141672, Note_on_c, 4, 57, 0
6, 141680, Note_on_c, 4, 65, 112
6, 141680, Note_on_c, 4, 57, 113
6, 141712, Note_on_c, 4, 57, 0
6, 141712, Note_on_c, 4, 65, 0
6, 141720, Note_on_c, 4, 65, 99
6, 141720, Note_on_c, 4, 57, 101
6, 141872, Note_on_c, 4, 57, 0
6, 141872, Note_on_c, 4, 65, 0
6, 141880, Note_on_c, 4, 65, 106
6, 141880, Note_on_c, 4, 57, 109
6, 141912, Note_on_c, 4, 57, 0
6, 141912, Note_on_c, 4, 65, 0
6, 141920, Note_on_c, 4, 65, 120
6, 141920, Note_on_c, 4, 57, 117
6, 141952, Note_on_c, 4, 57, 0
6, 141952, Note_on_c, 4, 65, 0
6, 141960, Note_on_c, 4, 65, 109
6, 141960, Note_on_c, 4, 57, 105
6, 142056, Note_on_c, 4, 57, 0
6, 142056, Note_on_c, 4, 65, 0
6, 142080, Note_on_c, 4, 60, 116
6, 142080, Note_on_c, 4, 67, 121
6, 142112, Note_on_c, 4, 67, 0
6, 142112, Note_on_c, 4, 60, 0
6, 142120, Note_on_c, 4, 67, 104
6, 142120, Note_on_c, 4, 60, 108
6, 142152, Note_on_c, 4, 60, 0
6, 142152, Note_on_c, 4, 67, 0
6, 142160, Note_on_c, 4, 67, 107
6, 142160, Note_on_c, 4, 60, 112
6, 142192, Note_on_c, 4, 60, 0
6, 142192, Note_on_c, 4, 67, 0
6, 142200, Note_on_c, 4, 67, 113
6, 142200, Note_on_c, 4, 60, 114
6, 142296, Note_on_c, 4, 60, 0
6, 142296, Note_on_c, 4, 67, 0
6, 142320, Note_on_c, 4, 65, 111
6, 142320, Note_on_c, 4, 57, 109
6, 142352, Note_on_c, 4, 57, 0
6, 142352, Note_on_c, 4, 65, 0
6, 142360, Note_on_c, 4, 65, 113
6, 142360, Note_on_c, 4, 57, 105
6, 142392, Note_on_c, 4, 57, 0
6, 142392, Note_on_c, 4, 65, 0
6, 142400, Note_on_c, 4, 65, 118
6, 142400, Note_on_c, 4, 57, 114
6, 142432, Note_on_c, 4, 57, 0
6, 142432, Note_on_c, 4, 65, 0
6, 142440, Note_on_c, 4, 65, 114
6, 142440, Note_on_c, 4, 57, 107
6, 142592, Note_on_c, 4, 57, 0
6, 142592, Note_on_c, 4, 65, 0
6, 142600, Note_on_c, 4, 65, 121
6, 142600, Note_on_c, 4, 57, 116
6, 142632, Note_on_c, 4, 57, 0
6, 142632, Note_on_c, 4, 65, 0
6, 142640, Note_on_c, 4, 65, 123
6, 142640, Note_on_c, 4, 57, 121
6, 142672, Note_on_c, 4, 57, 0
6, 142672, Note_on_c, 4, 65, 0
6, 142680, Note_on_c, 4, 65, 108
6, 142680, Note_on_c, 4, 57, 116
6, 142832, Note_on_c, 4, 57, 0
6, 142832, Note_on_c, 4, 65, 0
6, 142840, Note_on_c, 4, 65, 127
6, 142840, Note_on_c, 4, 57, 116
6, 142872, Note_on_c, 4, 57, 0
6, 142872, Note_on_c, 4, 65, 0
6, 142880, Note_on_c, 4, 65, 123
6, 142880, Note_on_c, 4, 57, 118
6, 142912, Note_on_c, 4, 57, 0
6, 142912, Note_on_c, 4, 65, 0
6, 142920, Note_on_c, 4, 65, 110
6, 142920, Note_on_c, 4, 57, 110
6, 143072, Note_on_c, 4, 57, 0
6, 143072, Note_on_c, 4, 65, 0
6, 143080, Note_on_c, 4, 65, 125
6, 143080, Note_on_c, 4, 57, 112
6, 143112, Note_on_c, 4, 57, 0
6, 143112, Note_on_c, 4, 65, 0
6, 143120, Note_on_c, 4, 65, 125
6, 143120, Note_on_c, 4, 57, 117
6, 143152, Note_on_c, 4, 57, 0
6, 143152, Note_on_c, 4, 65, 0
6, 143160, Note_on_c, 4, 65, 109
6, 143160, Note_on_c, 4, 57, 111
6, 143328, Note_on_c, 4, 57, 0
6, 143328, Note_on_c, 4, 65, 0
6, 145680, Note_on_c, 4, 60, 127
6, 145680, Note_on_c, 4, 48, 127
6, 145872, Note_on_c, 4, 48, 0
6, 145872, Note_on_c, 4, 60, 0
6, 145920, Note_on_c, 4, 48, 125
6, 145920, Note_on_c, 4, 60, 127
6, 145968, Note_on_c, 4, 60, 0
6, 145968, Note_on_c, 4, 48, 0
6, 146040, Note_on_c, 4, 60, 127
6, 146040, Note_on_c, 4, 48, 127
6, 146088, Note_on_c, 4, 48, 0
6, 146088, Note_on_c, 4, 60, 0
6, 146640, Note_on_c, 4, 48, 116
6, 146640, Note_on_c, 4, 60, 118
6, 146832, Note_on_c, 4, 60, 0
6, 146832, Note_on_c, 4, 48, 0
6, 146880, Note_on_c, 4, 60, 113
6, 146880, Note_on_c, 4, 48, 120
6, 146928, Note_on_c, 4, 48, 0
6, 146928, Note_on_c, 4, 60, 0
6, 147000, Note_on_c, 4, 48, 127
6, 147000, Note_on_c, 4, 60, 127
6, 147048, Note_on_c, 4, 60, 0
6, 147048, Note_on_c, 4, 48, 0
6, 147120, Note_on_c, 4, 53, 109
6, 147120, Note_on_c, 4, 57, 120
6, 147168, Note_on_c, 4, 57, 0
6, 147168, Note_on_c, 4, 53, 0
6, 147840, Note_on_c, 4, 48, 125
6, 147840, Note_on_c, 4, 60, 120
6, 147984, Note_on_c, 4, 60, 0
6, 147984, Note_on_c, 4, 48, 0
6, 148020, Note_on_c, 4, 48, 118
6, 148020, Note_on_c, 4, 60, 127
6, 148068, Note_on_c, 4, 60, 0
6, 148068, Note_on_c, 4, 48, 0
6, 148080, Note_on_c, 4, 53, 127
6, 148080, Note_on_c, 4, 65, 121
6, 148128, Note_on_c, 4, 65, 0
6, 148128, Note_on_c, 4, 53, 0
6, 148800, Note_on_c, 4, 48, 127
6, 148800, Note_on_c, 4, 60, 127
6, 148944, Note_on_c, 4, 60, 0
6, 148944, Note_on_c, 4, 48, 0
6, 148980, Note_on_c, 4, 48, 127
6, 148980, Note_on_c, 4, 60, 127
6, 149028, Note_on_c, 4, 60, 0
6, 149028, Note_on_c, 4, 48, 0
6, 149040, Note_on_c, 4, 53, 114
6, 149040, Note_on_c, 4, 65, 127
6, 149088, Note_on_c, 4, 65, 0
6, 149088, Note_on_c, 4, 53, 0
6, 149280, Note_on_c, 4, 48, 118
6, 149280, Note_on_c, 4, 60, 125
6, 149424, Note_on_c, 4, 60, 0
6, 149424, Note_on_c, 4, 48, 0
6, 149460, Note_on_c, 4, 48, 109
6, 149460, Note_on_c, 4, 60, 117
6, 149508, Note_on_c, 4, 60, 0
6, 149508, Note_on_c, 4, 48, 0
6, 149520, Note_on_c, 4, 53, 121
6, 149520, Note_on_c, 4, 65, 114
6, 149568, Note_on_c, 4, 65, 0
6, 149568, Note_on_c, 4, 53, 0
6, 149760, Note_on_c, 4, 48, 127
6, 149760, Note_on_c, 4, 60, 123
6, 149904, Note_on_c, 4, 60, 0
6, 149904, Note_on_c, 4, 48, 0
6, 149940, Note_on_c, 4, 60, 125
6, 149940, Note_on_c, 4, 48, 117
6, 149988, Note_on_c, 4, 48, 0
6, 149988, Note_on_c, 4, 60, 0
6, 150000, Note_on_c, 4, 57, 125
6, 150000, Note_on_c, 4, 48, 114
6, 150048, Note_on_c, 4, 48, 0
6, 150048, Note_on_c, 4, 57, 0
6, 150240, Note_on_c, 4, 57, 110
6, 150240, Note_on_c, 4, 48, 100
6, 150288, Note_on_c, 4, 48, 0
6, 150288, Note_on_c, 4, 57, 0
6, 150480, Note_on_c, 4, 48, 100
6, 150480, Note_on_c, 4, 57, 110
6, 150528, Note_on_c, 4, 57, 0
6, 150528, Note_on_c, 4, 48, 0
6, 150720, Note_on_c, 4, 48, 100
6, 150720, Note_on_c, 4, 57, 110
6, 150768, Note_on_c, 4, 57, 0
6, 150768, Note_on_c, 4, 48, 0
6, 150960, Note_on_c, 4, 48, 100
6, 150960, Note_on_c, 4, 57, 110
6, 151008, Note_on_c, 4, 57, 0
6, 151008, Note_on_c, 4, 48, 0
6, 154320, Note_on_c, 4, 53, 127
6, 154320, Note_on_c, 4, 65, 127
6, 154512, Note_on_c, 4, 65, 0
6, 154512, Note_on_c, 4, 53, 0
6, 154560, Note_on_c, 4, 60, 114
6, 154560, Note_on_c, 4, 67, 127
6, 154752, Note_on_c, 4, 67, 0
6, 154752, Note_on_c, 4, 60, 0
6, 154800, Note_on_c, 4, 65, 123
6, 154800, Note_on_c, 4, 69, 127
6, 154992, Note_on_c, 4, 69, 0
6, 154992, Note_on_c, 4, 65, 0
6, 155040, Note_on_c, 4, 65, 127
6, 155040, Note_on_c, 4, 69, 127
6, 155136, Note_on_c, 4, 69, 0
6, 155136, Note_on_c, 4, 65, 0
6, 155160, Note_on_c, 4, 69, 125
6, 155160, Note_on_c, 4, 65, 125
6, 155256, Note_on_c, 4, 65, 0
6, 155256, Note_on_c, 4, 69, 0
6, 155280, Note_on_c, 4, 69, 120
6, 155280, Note_on_c, 4, 65, 121
6, 155472, Note_on_c, 4, 65, 0
6, 155472, Note_on_c, 4, 69, 0
6, 155520, Note_on_c, 4, 53, 111
6, 155520, Note_on_c, 4, 57, 109
6, 155712, Note_on_c, 4, 57, 0
6, 155712, Note_on_c, 4, 53, 0
6, 155760, Note_on_c, 4, 53, 108
6, 155760, Note_on_c, 4, 57, 123
6, 155952, Note_on_c, 4, 57, 0
6, 155952, Note_on_c, 4, 53, 0
6, 155952, End_track
7, 0, Start_track
7, 0, MIDI_port, 0
7, 0, Title_t, "Violin I"
7, 0, Program_c, 5, 48
7, 0, Control_c, 5, 7, 112
7, 60, Note_on_c, 5, 69, 109
7, 108, Note_on_c, 5, 69, 0
7, 120, Note_on_c, 5, 70, 107
7, 168, Note_on_c, 5, 70, 0
7, 180, Note_on_c, 5, 74, 127
7, 228, Note_on_c, 5, 74, 0
7, 240, Note_on_c, 5, 72, 127
7, 288, Note_on_c, 5, 72, 0
7, 300, Note_on_c, 5, 70, 105
7, 324, Note_on_c, 5, 70, 0
7, 330, Note_on_c, 5, 69, 127
7, 354, Note_on_c, 5, 69, 0
7, 360, Note_on_c, 5, 67, 127
7, 408, Note_on_c, 5, 67, 0
7, 420, Note_on_c, 5, 60, 123
7, 468, Note_on_c, 5, 60, 0
7, 480, Note_on_c, 5, 65, 127
7, 528, Note_on_c, 5, 65, 0
7, 540, Note_on_c, 5, 67, 120
7, 588, Note_on_c, 5, 67, 0
7, 600, Note_on_c, 5, 69, 121
7, 648, Note_on_c, 5, 69, 0
7, 660, Note_on_c, 5, 70, 127
7, 684, Note_on_c, 5, 70, 0
7, 690, Note_on_c, 5, 69, 127
7, 714, Note_on_c, 5, 69, 0
7, 720, Note_on_c, 5, 67, 104
7, 912, Note_on_c, 5, 67, 0
7, 1260, Note_on_c, 5, 67, 127
7, 1284, Note_on_c, 5, 67, 0
7, 1290, Note_on_c, 5, 69, 127
7, 1314, Note_on_c, 5, 69, 0
7, 1320, Note_on_c, 5, 70, 123
7, 1368, Note_on_c, 5, 70, 0
7, 1380, Note_on_c, 5, 67, 127
7, 1428, Note_on_c, 5, 67, 0
7, 1440, Note_on_c, 5, 69, 104
7, 1488, Note_on_c, 5, 69, 0
7, 1620, Note_on_c, 5, 70, 113
7, 1668, Note_on_c, 5, 70, 0
7, 1680, Note_on_c, 5, 67, 117
7, 1728, Note_on_c, 5, 67, 0
7, 1740, Note_on_c, 5, 67, 127
7, 1764, Note_on_c, 5, 67, 0
7, 1770, Note_on_c, 5, 69, 127
7, 1794, Note_on_c, 5, 69, 0
7, 1800, Note_on_c, 5, 70, 118
7, 1848, Note_on_c, 5, 70, 0
7, 1860, Note_on_c, 5, 67, 121
7, 1908, Note_on_c, 5, 67, 0
7, 1920, Note_on_c, 5, 69, 127
7, 2016, Note_on_c, 5, 69, 0
7, 2040, Note_on_c, 5, 72, 127
7, 2136, Note_on_c, 5, 72, 0
7, 2160, Note_on_c, 5, 70, 103
7, 2304, Note_on_c, 5, 70, 0
7, 2340, Note_on_c, 5, 69, 111
7, 2388, Note_on_c, 5, 69, 0
7, 2400, Note_on_c, 5, 74, 127
7, 2496, Note_on_c, 5, 74, 0
7, 2520, Note_on_c, 5, 72, 127
7, 2616, Note_on_c, 5, 72, 0
7, 2640, Note_on_c, 5, 67, 111
7, 2688, Note_on_c, 5, 67, 0
7, 2700, Note_on_c, 5, 67, 127
7, 2724, Note_on_c, 5, 67, 0
7, 2730, Note_on_c, 5, 69, 127
7, 2754, Note_on_c, 5, 69, 0
7, 2760, Note_on_c, 5, 70, 115
7, 2808, Note_on_c, 5, 70, 0
7, 2820, Note_on_c, 5, 67, 127
7, 2868, Note_on_c, 5, 67, 0
7, 2880, Note_on_c, 5, 69, 127
7, 2976, Note_on_c, 5, 69, 0
7, 3000, Note_on_c, 5, 72, 127
7, 3096, Note_on_c, 5, 72, 0
7, 3120, Note_on_c, 5, 70, 118
7, 3264, Note_on_c, 5, 70, 0
7, 3300, Note_on_c, 5, 69, 127
7, 3348, Note_on_c, 5, 69, 0
7, 3360, Note_on_c, 5, 74, 127
7, 3456, Note_on_c, 5, 74, 0
7, 3480, Note_on_c, 5, 72, 120
7, 3576, Note_on_c, 5, 72, 0
7, 3600, Note_on_c, 5, 67, 117
7, 3648, Note_on_c, 5, 67, 0
7, 3660, Note_on_c, 5, 67, 127
7, 3684, Note_on_c, 5, 67, 0
7, 3690, Note_on_c, 5, 69, 127
7, 3714, Note_on_c, 5, 69, 0
7, 3720, Note_on_c, 5, 70, 86
7, 3768, Note_on_c, 5, 70, 0
7, 3780, Note_on_c, 5, 71, 127
7, 3828, Note_on_c, 5, 71, 0
7, 3840, Note_on_c, 5, 72, 127
7, 3888, Note_on_c, 5, 72, 0
7, 3900, Note_on_c, 5, 67, 109
7, 3924, Note_on_c, 5, 67, 0
7, 3930, Note_on_c, 5, 69, 127
7, 3954, Note_on_c, 5, 69, 0
7, 3960, Note_on_c, 5, 70, 118
7, 4008, Note_on_c, 5, 70, 0
7, 4020, Note_on_c, 5, 71, 96
7, 4068, Note_on_c, 5, 71, 0
7, 4080, Note_on_c, 5, 72, 127
7, 4128, Note_on_c, 5, 72, 0
7, 4140, Note_on_c, 5, 67, 117
7, 4164, Note_on_c, 5, 67, 0
7, 4170, Note_on_c, 5, 69, 127
7, 4194, Note_on_c, 5, 69, 0
7, 4200, Note_on_c, 5, 70, 118
7, 4248, Note_on_c, 5, 70, 0
7, 4260, Note_on_c, 5, 71, 127
7, 4308, Note_on_c, 5, 71, 0
7, 4320, Note_on_c, 5, 72, 112
7, 4368, Note_on_c, 5, 72, 0
7, 4380, Note_on_c, 5, 67, 127
7, 4404, Note_on_c, 5, 67, 0
7, 4410, Note_on_c, 5, 69, 127
7, 4434, Note_on_c, 5, 69, 0
7, 4440, Note_on_c, 5, 70, 118
7, 4488, Note_on_c, 5, 70, 0
7, 4500, Note_on_c, 5, 71, 116
7, 4548, Note_on_c, 5, 71, 0
7, 4560, Note_on_c, 5, 72, 127
7, 4608, Note_on_c, 5, 72, 0
7, 4620, Note_on_c, 5, 67, 127
7, 4644, Note_on_c, 5, 67, 0
7, 4650, Note_on_c, 5, 69, 127
7, 4674, Note_on_c, 5, 69, 0
7, 4680, Note_on_c, 5, 70, 121
7, 4728, Note_on_c, 5, 70, 0
7, 4740, Note_on_c, 5, 71, 95
7, 4788, Note_on_c, 5, 71, 0
7, 4800, Note_on_c, 5, 72, 127
7, 4848, Note_on_c, 5, 72, 0
7, 4860, Note_on_c, 5, 67, 125
7, 4884, Note_on_c, 5, 67, 0
7, 4890, Note_on_c, 5, 69, 127
7, 4914, Note_on_c, 5, 69, 0
7, 4920, Note_on_c, 5, 70, 109
7, 4968, Note_on_c, 5, 70, 0
7, 4980, Note_on_c, 5, 71, 97
7, 5028, Note_on_c, 5, 71, 0
7, 5040, Note_on_c, 5, 72, 127
7, 5088, Note_on_c, 5, 72, 0
7, 5100, Note_on_c, 5, 67, 127
7, 5124, Note_on_c, 5, 67, 0
7, 5130, Note_on_c, 5, 69, 127
7, 5154, Note_on_c, 5, 69, 0
7, 5160, Note_on_c, 5, 70, 118
7, 5208, Note_on_c, 5, 70, 0
7, 5220, Note_on_c, 5, 71, 103
7, 5268, Note_on_c, 5, 71, 0
7, 5280, Note_on_c, 5, 72, 127
7, 5328, Note_on_c, 5, 72, 0
7, 5340, Note_on_c, 5, 67, 127
7, 5364, Note_on_c, 5, 67, 0
7, 5370, Note_on_c, 5, 69, 123
7, 5394, Note_on_c, 5, 69, 0
7, 5400, Note_on_c, 5, 70, 123
7, 5456, Note_on_c, 5, 70, 0
7, 5460, Note_on_c, 5, 71, 102
7, 5516, Note_on_c, 5, 71, 0
7, 5520, Note_on_c, 5, 72, 127
7, 5568, Note_on_c, 5, 72, 0
7, 5580, Note_on_c, 5, 67, 109
7, 5604, Note_on_c, 5, 67, 0
7, 5610, Note_on_c, 5, 69, 127
7, 5634, Note_on_c, 5, 69, 0
7, 5640, Note_on_c, 5, 70, 123
7, 5688, Note_on_c, 5, 70, 0
7, 5700, Note_on_c, 5, 71, 127
7, 5748, Note_on_c, 5, 71, 0
7, 5760, Note_on_c, 5, 72, 123
7, 5808, Note_on_c, 5, 72, 0
7, 5820, Note_on_c, 5, 67, 127
7, 5844, Note_on_c, 5, 67, 0
7, 5850, Note_on_c, 5, 69, 127
7, 5874, Note_on_c, 5, 69, 0
7, 5880, Note_on_c, 5, 70, 123
7, 5928, Note_on_c, 5, 70, 0
7, 5940, Note_on_c, 5, 71, 102
7, 5988, Note_on_c, 5, 71, 0
7, 6000, Note_on_c, 5, 72, 106
7, 6048, Note_on_c, 5, 72, 0
7, 6060, Note_on_c, 5, 69, 127
7, 6084, Note_on_c, 5, 69, 0
7, 6090, Note_on_c, 5, 70, 107
7, 6114, Note_on_c, 5, 70, 0
7, 6120, Note_on_c, 5, 72, 104
7, 6168, Note_on_c, 5, 72, 0
7, 6180, Note_on_c, 5, 73, 111
7, 6228, Note_on_c, 5, 73, 0
7, 6240, Note_on_c, 5, 74, 116
7, 6288, Note_on_c, 5, 74, 0
7, 7740, Note_on_c, 5, 65, 103
7, 7764, Note_on_c, 5, 65, 0
7, 7770, Note_on_c, 5, 69, 117
7, 7794, Note_on_c, 5, 69, 0
7, 7860, Note_on_c, 5, 67, 99
7, 7884, Note_on_c, 5, 67, 0
7, 7890, Note_on_c, 5, 70, 109
7, 7914, Note_on_c, 5, 70, 0
7, 7980, Note_on_c, 5, 69, 127
7, 8004, Note_on_c, 5, 69, 0
7, 8010, Note_on_c, 5, 72, 125
7, 8034, Note_on_c, 5, 72, 0
7, 8100, Note_on_c, 5, 67, 113
7, 8124, Note_on_c, 5, 67, 0
7, 8130, Note_on_c, 5, 76, 127
7, 8154, Note_on_c, 5, 76, 0
7, 8220, Note_on_c, 5, 69, 121
7, 8244, Note_on_c, 5, 69, 0
7, 8250, Note_on_c, 5, 77, 127
7, 8274, Note_on_c, 5, 77, 0
7, 8340, Note_on_c, 5, 69, 110
7, 8364, Note_on_c, 5, 69, 0
7, 8370, Note_on_c, 5, 77, 114
7, 8394, Note_on_c, 5, 77, 0
7, 8460, Note_on_c, 5, 76, 120
7, 8484, Note_on_c, 5, 76, 0
7, 8490, Note_on_c, 5, 79, 117
7, 8514, Note_on_c, 5, 79, 0
7, 8580, Note_on_c, 5, 76, 123
7, 8604, Note_on_c, 5, 76, 0
7, 8610, Note_on_c, 5, 79, 123
7, 8634, Note_on_c, 5, 79, 0
7, 8640, Note_on_c, 5, 81, 116
7, 8688, Note_on_c, 5, 81, 0
7, 8700, Note_on_c, 5, 81, 127
7, 8748, Note_on_c, 5, 81, 0
7, 8760, Note_on_c, 5, 82, 113
7, 8808, Note_on_c, 5, 82, 0
7, 8820, Note_on_c, 5, 86, 127
7, 8868, Note_on_c, 5, 86, 0
7, 8880, Note_on_c, 5, 84, 125
7, 8928, Note_on_c, 5, 84, 0
7, 8940, Note_on_c, 5, 82, 113
7, 8964, Note_on_c, 5, 82, 0
7, 8970, Note_on_c, 5, 81, 118
7, 8994, Note_on_c, 5, 81, 0
7, 9000, Note_on_c, 5, 79, 127
7, 9048, Note_on_c, 5, 79, 0
7, 9060, Note_on_c, 5, 72, 109
7, 9108, Note_on_c, 5, 72, 0
7, 9120, Note_on_c, 5, 77, 127
7, 9168, Note_on_c, 5, 77, 0
7, 9180, Note_on_c, 5, 79, 127
7, 9228, Note_on_c, 5, 79, 0
7, 9240, Note_on_c, 5, 81, 111
7, 9288, Note_on_c, 5, 81, 0
7, 9300, Note_on_c, 5, 82, 121
7, 9324, Note_on_c, 5, 82, 0
7, 9330, Note_on_c, 5, 81, 118
7, 9354, Note_on_c, 5, 81, 0
7, 9360, Note_on_c, 5, 79, 127
7, 9408, Note_on_c, 5, 79, 0
7, 9420, Note_on_c, 5, 81, 123
7, 9468, Note_on_c, 5, 81, 0
7, 9480, Note_on_c, 5, 82, 83
7, 9528, Note_on_c, 5, 82, 0
7, 9540, Note_on_c, 5, 84, 127
7, 9564, Note_on_c, 5, 84, 0
7, 9570, Note_on_c, 5, 82, 85
7, 9594, Note_on_c, 5, 82, 0
7, 9600, Note_on_c, 5, 81, 117
7, 9656, Note_on_c, 5, 81, 0
7, 9660, Note_on_c, 5, 84, 99
7, 9708, Note_on_c, 5, 84, 0
7, 9720, Note_on_c, 5, 84, 123
7, 9768, Note_on_c, 5, 84, 0
7, 9780, Note_on_c, 5, 84, 123
7, 9828, Note_on_c, 5, 84, 0
7, 9840, Note_on_c, 5, 84, 107
7, 9936, Note_on_c, 5, 84, 0
7, 9960, Note_on_c, 5, 82, 105
7, 9984, Note_on_c, 5, 82, 0
7, 9990, Note_on_c, 5, 81, 118
7, 10014, Note_on_c, 5, 81, 0
7, 10020, Note_on_c, 5, 79, 107
7, 10044, Note_on_c, 5, 79, 0
7, 10050, Note_on_c, 5, 77, 102
7, 10074, Note_on_c, 5, 77, 0
7, 10080, Note_on_c, 5, 76, 127
7, 10128, Note_on_c, 5, 76, 0
7, 10140, Note_on_c, 5, 77, 125
7, 10188, Note_on_c, 5, 77, 0
7, 10200, Note_on_c, 5, 79, 110
7, 10248, Note_on_c, 5, 79, 0
7, 10260, Note_on_c, 5, 81, 50
7, 10284, Note_on_c, 5, 81, 0
7, 10290, Note_on_c, 5, 79, 103
7, 10314, Note_on_c, 5, 79, 0
7, 10320, Note_on_c, 5, 77, 125
7, 10368, Note_on_c, 5, 77, 0
7, 10380, Note_on_c, 5, 79, 121
7, 10428, Note_on_c, 5, 79, 0
7, 10440, Note_on_c, 5, 81, 120
7, 10488, Note_on_c, 5, 81, 0
7, 10500, Note_on_c, 5, 82, 121
7, 10524, Note_on_c, 5, 82, 0
7, 10530, Note_on_c, 5, 81, 127
7, 10554, Note_on_c, 5, 81, 0
7, 10560, Note_on_c, 5, 79, 125
7, 10608, Note_on_c, 5, 79, 0
7, 10620, Note_on_c, 5, 82, 88
7, 10668, Note_on_c, 5, 82, 0
7, 10680, Note_on_c, 5, 82, 127
7, 10728, Note_on_c, 5, 82, 0
7, 10740, Note_on_c, 5, 82, 123
7, 10788, Note_on_c, 5, 82, 0
7, 10800, Note_on_c, 5, 82, 115
7, 10896, Note_on_c, 5, 82, 0
7, 10920, Note_on_c, 5, 84, 127
7, 10944, Note_on_c, 5, 84, 0
7, 10950, Note_on_c, 5, 82, 101
7, 10974, Note_on_c, 5, 82, 0
7, 10980, Note_on_c, 5, 81, 125
7, 11004, Note_on_c, 5, 81, 0
7, 11010, Note_on_c, 5, 79, 123
7, 11034, Note_on_c, 5, 79, 0
7, 11040, Note_on_c, 5, 81, 127
7, 11088, Note_on_c, 5, 81, 0
7, 11100, Note_on_c, 5, 82, 89
7, 11148, Note_on_c, 5, 82, 0
7, 11160, Note_on_c, 5, 84, 127
7, 11208, Note_on_c, 5, 84, 0
7, 11220, Note_on_c, 5, 86, 121
7, 11244, Note_on_c, 5, 86, 0
7, 11250, Note_on_c, 5, 84, 113
7, 11274, Note_on_c, 5, 84, 0
7, 11280, Note_on_c, 5, 82, 95
7, 11328, Note_on_c, 5, 82, 0
7, 11340, Note_on_c, 5, 84, 123
7, 11364, Note_on_c, 5, 84, 0
7, 11370, Note_on_c, 5, 82, 113
7, 11394, Note_on_c, 5, 82, 0
7, 11400, Note_on_c, 5, 79, 127
7, 11448, Note_on_c, 5, 79, 0
7, 11460, Note_on_c, 5, 84, 118
7, 11484, Note_on_c, 5, 84, 0
7, 11490, Note_on_c, 5, 82, 96
7, 11514, Note_on_c, 5, 82, 0
7, 11520, Note_on_c, 5, 81, 127
7, 11568, Note_on_c, 5, 81, 0
7, 11580, Note_on_c, 5, 82, 105
7, 11628, Note_on_c, 5, 82, 0
7, 11640, Note_on_c, 5, 84, 127
7, 11688, Note_on_c, 5, 84, 0
7, 11700, Note_on_c, 5, 86, 125
7, 11724, Note_on_c, 5, 86, 0
7, 11730, Note_on_c, 5, 84, 102
7, 11754, Note_on_c, 5, 84, 0
7, 11760, Note_on_c, 5, 79, 123
7, 11808, Note_on_c, 5, 79, 0
7, 11820, Note_on_c, 5, 82, 121
7, 11844, Note_on_c, 5, 82, 0
7, 11850, Note_on_c, 5, 81, 127
7, 11874, Note_on_c, 5, 81, 0
7, 11880, Note_on_c, 5, 79, 127
7, 11928, Note_on_c, 5, 79, 0
7, 11940, Note_on_c, 5, 84, 127
7, 11964, Note_on_c, 5, 84, 0
7, 11970, Note_on_c, 5, 82, 81
7, 11994, Note_on_c, 5, 82, 0
7, 12000, Note_on_c, 5, 81, 118
7, 12048, Note_on_c, 5, 81, 0
7, 12060, Note_on_c, 5, 84, 127
7, 12084, Note_on_c, 5, 84, 0
7, 12090, Note_on_c, 5, 82, 103
7, 12114, Note_on_c, 5, 82, 0
7, 12120, Note_on_c, 5, 79, 127
7, 12168, Note_on_c, 5, 79, 0
7, 12180, Note_on_c, 5, 84, 127
7, 12204, Note_on_c, 5, 84, 0
7, 12210, Note_on_c, 5, 82, 115
7, 12234, Note_on_c, 5, 82, 0
7, 12240, Note_on_c, 5, 79, 127
7, 12288, Note_on_c, 5, 79, 0
7, 12300, Note_on_c, 5, 84, 127
7, 12324, Note_on_c, 5, 84, 0
7, 12330, Note_on_c, 5, 82, 113
7, 12354, Note_on_c, 5, 82, 0
7, 12360, Note_on_c, 5, 79, 127
7, 12408, Note_on_c, 5, 79, 0
7, 12420, Note_on_c, 5, 84, 121
7, 12444, Note_on_c, 5, 84, 0
7, 12450, Note_on_c, 5, 82, 121
7, 12474, Note_on_c, 5, 82, 0
7, 12480, Note_on_c, 5, 65, 102
7, 12480, Note_on_c, 5, 81, 99
7, 12480, Note_on_c, 5, 72, 95
7, 12528, Note_on_c, 5, 72, 0
7, 12528, Note_on_c, 5, 81, 0
7, 12528, Note_on_c, 5, 65, 0
7, 12780, Note_on_c, 5, 65, 125
7, 12828, Note_on_c, 5, 65, 0
7, 12840, Note_on_c, 5, 67, 127
7, 12888, Note_on_c, 5, 67, 0
7, 12900, Note_on_c, 5, 70, 109
7, 12948, Note_on_c, 5, 70, 0
7, 12960, Note_on_c, 5, 69, 127
7, 13008, Note_on_c, 5, 69, 0
7, 13020, Note_on_c, 5, 74, 109
7, 13068, Note_on_c, 5, 74, 0
7, 13080, Note_on_c, 5, 76, 123
7, 13128, Note_on_c, 5, 76, 0
7, 13140, Note_on_c, 5, 79, 127
7, 13188, Note_on_c, 5, 79, 0
7, 13200, Note_on_c, 5, 77, 125
7, 13248, Note_on_c, 5, 77, 0
7, 13260, Note_on_c, 5, 77, 116
7, 13308, Note_on_c, 5, 77, 0
7, 13320, Note_on_c, 5, 79, 127
7, 13368, Note_on_c, 5, 79, 0
7, 13380, Note_on_c, 5, 82, 123
7, 13428, Note_on_c, 5, 82, 0
7, 13440, Note_on_c, 5, 81, 107
7, 13488, Note_on_c, 5, 81, 0
7, 13740, Note_on_c, 5, 65, 123
7, 13788, Note_on_c, 5, 65, 0
7, 13800, Note_on_c, 5, 67, 127
7, 13848, Note_on_c, 5, 67, 0
7, 13860, Note_on_c, 5, 70, 123
7, 13908, Note_on_c, 5, 70, 0
7, 13920, Note_on_c, 5, 69, 127
7, 13968, Note_on_c, 5, 69, 0
7, 13980, Note_on_c, 5, 74, 127
7, 14028, Note_on_c, 5, 74, 0
7, 14040, Note_on_c, 5, 76, 118
7, 14088, Note_on_c, 5, 76, 0
7, 14100, Note_on_c, 5, 79, 127
7, 14148, Note_on_c, 5, 79, 0
7, 14160, Note_on_c, 5, 77, 127
7, 14208, Note_on_c, 5, 77, 0
7, 14220, Note_on_c, 5, 77, 127
7, 14268, Note_on_c, 5, 77, 0
7, 14280, Note_on_c, 5, 79, 127
7, 14328, Note_on_c, 5, 79, 0
7, 14340, Note_on_c, 5, 82, 126
7, 14388, Note_on_c, 5, 82, 0
7, 14400, Note_on_c, 5, 81, 109
7, 14448, Note_on_c, 5, 81, 0
7, 14700, Note_on_c, 5, 77, 103
7, 14748, Note_on_c, 5, 77, 0
7, 14760, Note_on_c, 5, 79, 127
7, 14808, Note_on_c, 5, 79, 0
7, 14820, Note_on_c, 5, 81, 127
7, 14868, Note_on_c, 5, 81, 0
7, 14880, Note_on_c, 5, 79, 127
7, 14976, Note_on_c, 5, 79, 0
7, 15180, Note_on_c, 5, 78, 97
7, 15228, Note_on_c, 5, 78, 0
7, 15240, Note_on_c, 5, 79, 127
7, 15288, Note_on_c, 5, 79, 0
7, 15300, Note_on_c, 5, 81, 107
7, 15348, Note_on_c, 5, 81, 0
7, 15360, Note_on_c, 5, 79, 127
7, 15408, Note_on_c, 5, 79, 0
7, 15420, Note_on_c, 5, 78, 100
7, 15468, Note_on_c, 5, 78, 0
7, 15480, Note_on_c, 5, 79, 125
7, 15528, Note_on_c, 5, 79, 0
7, 15540, Note_on_c, 5, 81, 127
7, 15588, Note_on_c, 5, 81, 0
7, 15600, Note_on_c, 5, 79, 127
7, 15648, Note_on_c, 5, 79, 0
7, 15660, Note_on_c, 5, 78, 113
7, 15708, Note_on_c, 5, 78, 0
7, 15720, Note_on_c, 5, 79, 127
7, 15768, Note_on_c, 5, 79, 0
7, 15780, Note_on_c, 5, 81, 116
7, 15828, Note_on_c, 5, 81, 0
7, 15840, Note_on_c, 5, 79, 125
7, 15888, Note_on_c, 5, 79, 0
7, 15900, Note_on_c, 5, 77, 127
7, 15948, Note_on_c, 5, 77, 0
7, 15960, Note_on_c, 5, 74, 112
7, 16008, Note_on_c, 5, 74, 0
7, 16020, Note_on_c, 5, 71, 101
7, 16068, Note_on_c, 5, 71, 0
7, 16080, Note_on_c, 5, 67, 114
7, 16128, Note_on_c, 5, 67, 0
7, 16140, Note_on_c, 5, 74, 123
7, 16188, Note_on_c, 5, 74, 0
7, 16200, Note_on_c, 5, 71, 127
7, 16248, Note_on_c, 5, 71, 0
7, 16260, Note_on_c, 5, 67, 121
7, 16308, Note_on_c, 5, 67, 0
7, 16320, Note_on_c, 5, 81, 127
7, 16368, Note_on_c, 5, 81, 0
7, 16380, Note_on_c, 5, 79, 125
7, 16428, Note_on_c, 5, 79, 0
7, 16440, Note_on_c, 5, 76, 127
7, 16488, Note_on_c, 5, 76, 0
7, 16500, Note_on_c, 5, 72, 117
7, 16548, Note_on_c, 5, 72, 0
7, 16560, Note_on_c, 5, 67, 127
7, 16608, Note_on_c, 5, 67, 0
7, 16620, Note_on_c, 5, 76, 127
7, 16668, Note_on_c, 5, 76, 0
7, 16680, Note_on_c, 5, 72, 127
7, 16728, Note_on_c, 5, 72, 0
7, 16740, Note_on_c, 5, 67, 118
7, 16788, Note_on_c, 5, 67, 0
7, 16800, Note_on_c, 5, 62, 116
7, 16848, Note_on_c, 5, 62, 0
7, 16860, Note_on_c, 5, 55, 123
7, 16908, Note_on_c, 5, 55, 0
7, 16920, Note_on_c, 5, 62, 127
7, 16968, Note_on_c, 5, 62, 0
7, 16980, Note_on_c, 5, 55, 123
7, 17028, Note_on_c, 5, 55, 0
7, 17040, Note_on_c, 5, 62, 127
7, 17088, Note_on_c, 5, 62, 0
7, 17100, Note_on_c, 5, 55, 117
7, 17148, Note_on_c, 5, 55, 0
7, 17160, Note_on_c, 5, 62, 123
7, 17208, Note_on_c, 5, 62, 0
7, 17220, Note_on_c, 5, 55, 121
7, 17268, Note_on_c, 5, 55, 0
7, 17280, Note_on_c, 5, 64, 101
7, 17328, Note_on_c, 5, 64, 0
7, 17340, Note_on_c, 5, 55, 111
7, 17388, Note_on_c, 5, 55, 0
7, 17400, Note_on_c, 5, 64, 120
7, 17448, Note_on_c, 5, 64, 0
7, 17460, Note_on_c, 5, 55, 104
7, 17508, Note_on_c, 5, 55, 0
7, 17520, Note_on_c, 5, 64, 103
7, 17568, Note_on_c, 5, 64, 0
7, 17580, Note_on_c, 5, 55, 105
7, 17628, Note_on_c, 5, 55, 0
7, 17640, Note_on_c, 5, 64, 104
7, 17688, Note_on_c, 5, 64, 0
7, 17700, Note_on_c, 5, 55, 91
7, 17748, Note_on_c, 5, 55, 0
7, 17760, Note_on_c, 5, 67, 106
7, 18192, Note_on_c, 5, 67, 0
7, 18240, Note_on_c, 5, 72, 98
7, 18672, Note_on_c, 5, 72, 0
7, 18720, Note_on_c, 5, 71, 104
7, 18816, Note_on_c, 5, 71, 0
7, 18840, Note_on_c, 5, 71, 104
7, 18936, Note_on_c, 5, 71, 0
7, 18960, Note_on_c, 5, 71, 111
7, 19056, Note_on_c, 5, 71, 0
7, 19080, Note_on_c, 5, 74, 116
7, 19128, Note_on_c, 5, 74, 0
7, 19140, Note_on_c, 5, 71, 116
7, 19188, Note_on_c, 5, 71, 0
7, 19200, Note_on_c, 5, 72, 100
7, 19296, Note_on_c, 5, 72, 0
7, 19320, Note_on_c, 5, 72, 104
7, 19416, Note_on_c, 5, 72, 0
7, 19440, Note_on_c, 5, 72, 103
7, 19536, Note_on_c, 5, 72, 0
7, 19560, Note_on_c, 5, 76, 113
7, 19608, Note_on_c, 5, 76, 0
7, 19620, Note_on_c, 5, 72, 117
7, 19668, Note_on_c, 5, 72, 0
7, 19680, Note_on_c, 5, 79, 127
7, 19712, Note_on_c, 5, 79, 0
7, 19720, Note_on_c, 5, 81, 121
7, 19752, Note_on_c, 5, 81, 0
7, 19760, Note_on_c, 5, 79, 127
7, 19792, Note_on_c, 5, 79, 0
7, 19800, Note_on_c, 5, 81, 120
7, 19832, Note_on_c, 5, 81, 0
7, 19840, Note_on_c, 5, 79, 123
7, 19872, Note_on_c, 5, 79, 0
7, 19880, Note_on_c, 5, 81, 118
7, 19912, Note_on_c, 5, 81, 0
7, 19920, Note_on_c, 5, 79, 123
7, 19952, Note_on_c, 5, 79, 0
7, 19960, Note_on_c, 5, 81, 116
7, 19992, Note_on_c, 5, 81, 0
7, 20000, Note_on_c, 5, 79, 123
7, 20032, Note_on_c, 5, 79, 0
7, 20040, Note_on_c, 5, 81, 114
7, 20072, Note_on_c, 5, 81, 0
7, 20080, Note_on_c, 5, 79, 123
7, 20112, Note_on_c, 5, 79, 0
7, 20120, Note_on_c, 5, 81, 125
7, 20152, Note_on_c, 5, 81, 0
7, 20160, Note_on_c, 5, 79, 117
7, 20192, Note_on_c, 5, 79, 0
7, 20200, Note_on_c, 5, 81, 112
7, 20232, Note_on_c, 5, 81, 0
7, 20240, Note_on_c, 5, 79, 120
7, 20272, Note_on_c, 5, 79, 0
7, 20280, Note_on_c, 5, 81, 114
7, 20312, Note_on_c, 5, 81, 0
7, 20320, Note_on_c, 5, 79, 114
7, 20352, Note_on_c, 5, 79, 0
7, 20360, Note_on_c, 5, 81, 118
7, 20392, Note_on_c, 5, 81, 0
7, 20400, Note_on_c, 5, 79, 116
7, 20432, Note_on_c, 5, 79, 0
7, 20440, Note_on_c, 5, 81, 109
7, 20472, Note_on_c, 5, 81, 0
7, 20480, Note_on_c, 5, 79, 116
7, 20512, Note_on_c, 5, 79, 0
7, 20520, Note_on_c, 5, 81, 117
7, 20552, Note_on_c, 5, 81, 0
7, 20560, Note_on_c, 5, 79, 125
7, 20592, Note_on_c, 5, 79, 0
7, 20600, Note_on_c, 5, 81, 109
7, 20632, Note_on_c, 5, 81, 0
7, 20640, Note_on_c, 5, 79, 127
7, 20664, Note_on_c, 5, 79, 0
7, 20670, Note_on_c, 5, 81, 105
7, 20694, Note_on_c, 5, 81, 0
7, 20700, Note_on_c, 5, 79, 120
7, 20724, Note_on_c, 5, 79, 0
7, 20730, Note_on_c, 5, 81, 110
7, 20754, Note_on_c, 5, 81, 0
7, 20760, Note_on_c, 5, 79, 120
7, 20784, Note_on_c, 5, 79, 0
7, 20790, Note_on_c, 5, 81, 110
7, 20814, Note_on_c, 5, 81, 0
7, 20820, Note_on_c, 5, 79, 116
7, 20844, Note_on_c, 5, 79, 0
7, 20850, Note_on_c, 5, 81, 109
7, 20874, Note_on_c, 5, 81, 0
7, 20880, Note_on_c, 5, 79, 116
7, 20904, Note_on_c, 5, 79, 0
7, 20910, Note_on_c, 5, 81, 114
7, 20934, Note_on_c, 5, 81, 0
7, 20940, Note_on_c, 5, 79, 118
7, 20964, Note_on_c, 5, 79, 0
7, 20970, Note_on_c, 5, 81, 116
7, 20994, Note_on_c, 5, 81, 0
7, 21000, Note_on_c, 5, 79, 113
7, 21024, Note_on_c, 5, 79, 0
7, 21030, Note_on_c, 5, 81, 107
7, 21054, Note_on_c, 5, 81, 0
7, 21060, Note_on_c, 5, 79, 116
7, 21084, Note_on_c, 5, 79, 0
7, 21090, Note_on_c, 5, 81, 125
7, 21114, Note_on_c, 5, 81, 0
7, 21120, Note_on_c, 5, 79, 127
7, 21144, Note_on_c, 5, 79, 0
7, 21150, Note_on_c, 5, 81, 123
7, 21174, Note_on_c, 5, 81, 0
7, 21180, Note_on_c, 5, 79, 121
7, 21204, Note_on_c, 5, 79, 0
7, 21210, Note_on_c, 5, 81, 123
7, 21234, Note_on_c, 5, 81, 0
7, 21240, Note_on_c, 5, 79, 117
7, 21264, Note_on_c, 5, 79, 0
7, 21270, Note_on_c, 5, 81, 118
7, 21294, Note_on_c, 5, 81, 0
7, 21300, Note_on_c, 5, 79, 120
7, 21324, Note_on_c, 5, 79, 0
7, 21330, Note_on_c, 5, 81, 111
7, 21354, Note_on_c, 5, 81, 0
7, 21360, Note_on_c, 5, 79, 116
7, 21384, Note_on_c, 5, 79, 0
7, 21390, Note_on_c, 5, 81, 123
7, 21414, Note_on_c, 5, 81, 0
7, 21420, Note_on_c, 5, 79, 114
7, 21444, Note_on_c, 5, 79, 0
7, 21450, Note_on_c, 5, 81, 123
7, 21474, Note_on_c, 5, 81, 0
7, 21480, Note_on_c, 5, 79, 116
7, 21504, Note_on_c, 5, 79, 0
7, 21510, Note_on_c, 5, 81, 121
7, 21534, Note_on_c, 5, 81, 0
7, 21540, Note_on_c, 5, 79, 120
7, 21564, Note_on_c, 5, 79, 0
7, 21570, Note_on_c, 5, 81, 121
7, 21594, Note_on_c, 5, 81, 0
7, 21600, Note_on_c, 5, 79, 121
7, 21624, Note_on_c, 5, 79, 0
7, 21630, Note_on_c, 5, 81, 127
7, 21654, Note_on_c, 5, 81, 0
7, 21660, Note_on_c, 5, 79, 121
7, 21684, Note_on_c, 5, 79, 0
7, 21690, Note_on_c, 5, 81, 127
7, 21714, Note_on_c, 5, 81, 0
7, 21720, Note_on_c, 5, 79, 121
7, 21744, Note_on_c, 5, 79, 0
7, 21750, Note_on_c, 5, 81, 127
7, 21774, Note_on_c, 5, 81, 0
7, 21780, Note_on_c, 5, 79, 114
7, 21804, Note_on_c, 5, 79, 0
7, 21810, Note_on_c, 5, 81, 127
7, 21834, Note_on_c, 5, 81, 0
7, 21840, Note_on_c, 5, 79, 121
7, 21864, Note_on_c, 5, 79, 0
7, 21870, Note_on_c, 5, 81, 123
7, 21894, Note_on_c, 5, 81, 0
7, 21900, Note_on_c, 5, 79, 116
7, 21924, Note_on_c, 5, 79, 0
7, 21930, Note_on_c, 5, 81, 121
7, 21954, Note_on_c, 5, 81, 0
7, 21960, Note_on_c, 5, 79, 120
7, 21984, Note_on_c, 5, 79, 0
7, 21990, Note_on_c, 5, 81, 121
7, 22014, Note_on_c, 5, 81, 0
7, 22020, Note_on_c, 5, 79, 127
7, 22044, Note_on_c, 5, 79, 0
7, 22050, Note_on_c, 5, 81, 127
7, 22074, Note_on_c, 5, 81, 0
7, 22080, Note_on_c, 5, 79, 127
7, 22224, Note_on_c, 5, 79, 0
7, 22260, Note_on_c, 5, 81, 127
7, 22284, Note_on_c, 5, 81, 0
7, 22290, Note_on_c, 5, 83, 127
7, 22314, Note_on_c, 5, 83, 0
7, 22320, Note_on_c, 5, 84, 127
7, 22368, Note_on_c, 5, 84, 0
7, 22380, Note_on_c, 5, 83, 127
7, 22404, Note_on_c, 5, 83, 0
7, 22410, Note_on_c, 5, 81, 116
7, 22434, Note_on_c, 5, 81, 0
7, 22440, Note_on_c, 5, 79, 127
7, 22488, Note_on_c, 5, 79, 0
7, 22500, Note_on_c, 5, 81, 127
7, 22524, Note_on_c, 5, 81, 0
7, 22530, Note_on_c, 5, 83, 112
7, 22554, Note_on_c, 5, 83, 0
7, 22560, Note_on_c, 5, 84, 127
7, 22608, Note_on_c, 5, 84, 0
7, 22620, Note_on_c, 5, 83, 127
7, 22644, Note_on_c, 5, 83, 0
7, 22650, Note_on_c, 5, 81, 121
7, 22674, Note_on_c, 5, 81, 0
7, 22680, Note_on_c, 5, 79, 127
7, 22728, Note_on_c, 5, 79, 0
7, 22740, Note_on_c, 5, 81, 127
7, 22764, Note_on_c, 5, 81, 0
7, 22770, Note_on_c, 5, 83, 127
7, 22794, Note_on_c, 5, 83, 0
7, 22800, Note_on_c, 5, 84, 125
7, 22824, Note_on_c, 5, 84, 0
7, 23040, Note_on_c, 5, 69, 127
7, 23088, Note_on_c, 5, 69, 0
7, 23100, Note_on_c, 5, 72, 127
7, 23148, Note_on_c, 5, 72, 0
7, 23160, Note_on_c, 5, 69, 121
7, 23208, Note_on_c, 5, 69, 0
7, 23220, Note_on_c, 5, 72, 123
7, 23268, Note_on_c, 5, 72, 0
7, 23280, Note_on_c, 5, 67, 107
7, 23328, Note_on_c, 5, 67, 0
7, 23340, Note_on_c, 5, 72, 123
7, 23388, Note_on_c, 5, 72, 0
7, 23400, Note_on_c, 5, 67, 105
7, 23448, Note_on_c, 5, 67, 0
7, 23460, Note_on_c, 5, 72, 127
7, 23508, Note_on_c, 5, 72, 0
7, 23520, Note_on_c, 5, 67, 114
7, 23568, Note_on_c, 5, 67, 0
7, 23580, Note_on_c, 5, 71, 117
7, 23628, Note_on_c, 5, 71, 0
7, 23640, Note_on_c, 5, 67, 106
7, 23688, Note_on_c, 5, 67, 0
7, 23700, Note_on_c, 5, 71, 127
7, 23748, Note_on_c, 5, 71, 0
7, 23760, Note_on_c, 5, 79, 127
7, 23904, Note_on_c, 5, 79, 0
7, 23940, Note_on_c, 5, 81, 117
7, 23964, Note_on_c, 5, 81, 0
7, 23970, Note_on_c, 5, 83, 123
7, 23994, Note_on_c, 5, 83, 0
7, 24000, Note_on_c, 5, 84, 127
7, 24048, Note_on_c, 5, 84, 0
7, 24060, Note_on_c, 5, 83, 125
7, 24084, Note_on_c, 5, 83, 0
7, 24090, Note_on_c, 5, 81, 127
7, 24114, Note_on_c, 5, 81, 0
7, 24120, Note_on_c, 5, 79, 127
7, 24168, Note_on_c, 5, 79, 0
7, 24180, Note_on_c, 5, 81, 127
7, 24204, Note_on_c, 5, 81, 0
7, 24210, Note_on_c, 5, 83, 127
7, 24234, Note_on_c, 5, 83, 0
7, 24240, Note_on_c, 5, 84, 127
7, 24288, Note_on_c, 5, 84, 0
7, 24300, Note_on_c, 5, 83, 127
7, 24324, Note_on_c, 5, 83, 0
7, 24330, Note_on_c, 5, 81, 127
7, 24354, Note_on_c, 5, 81, 0
7, 24360, Note_on_c, 5, 79, 127
7, 24408, Note_on_c, 5, 79, 0
7, 24420, Note_on_c, 5, 81, 127
7, 24444, Note_on_c, 5, 81, 0
7, 24450, Note_on_c, 5, 83, 127
7, 24474, Note_on_c, 5, 83, 0
7, 24480, Note_on_c, 5, 84, 118
7, 24528, Note_on_c, 5, 84, 0
7, 24720, Note_on_c, 5, 69, 127
7, 24768, Note_on_c, 5, 69, 0
7, 24780, Note_on_c, 5, 72, 125
7, 24828, Note_on_c, 5, 72, 0
7, 24840, Note_on_c, 5, 69, 118
7, 24888, Note_on_c, 5, 69, 0
7, 24900, Note_on_c, 5, 72, 127
7, 24948, Note_on_c, 5, 72, 0
7, 24960, Note_on_c, 5, 67, 112
7, 25008, Note_on_c, 5, 67, 0
7, 25020, Note_on_c, 5, 72, 125
7, 25068, Note_on_c, 5, 72, 0
7, 25080, Note_on_c, 5, 67, 114
7, 25128, Note_on_c, 5, 67, 0
7, 25140, Note_on_c, 5, 72, 102
7, 25188, Note_on_c, 5, 72, 0
7, 25200, Note_on_c, 5, 67, 118
7, 25248, Note_on_c, 5, 67, 0
7, 25260, Note_on_c, 5, 71, 125
7, 25308, Note_on_c, 5, 71, 0
7, 25320, Note_on_c, 5, 67, 112
7, 25368, Note_on_c, 5, 67, 0
7, 25380, Note_on_c, 5, 71, 123
7, 25428, Note_on_c, 5, 71, 0
7, 25440, Note_on_c, 5, 67, 121
7, 25488, Note_on_c, 5, 67, 0
7, 25500, Note_on_c, 5, 72, 114
7, 25548, Note_on_c, 5, 72, 0
7, 25560, Note_on_c, 5, 72, 114
7, 25608, Note_on_c, 5, 72, 0
7, 25620, Note_on_c, 5, 72, 113
7, 25668, Note_on_c, 5, 72, 0
7, 25680, Note_on_c, 5, 69, 125
7, 25728, Note_on_c, 5, 69, 0
7, 25740, Note_on_c, 5, 72, 117
7, 25788, Note_on_c, 5, 72, 0
7, 25800, Note_on_c, 5, 69, 121
7, 25848, Note_on_c, 5, 69, 0
7, 25860, Note_on_c, 5, 72, 121
7, 25908, Note_on_c, 5, 72, 0
7, 25920, Note_on_c, 5, 67, 109
7, 25968, Note_on_c, 5, 67, 0
7, 25980, Note_on_c, 5, 72, 127
7, 26028, Note_on_c, 5, 72, 0
7, 26040, Note_on_c, 5, 67, 118
7, 26088, Note_on_c, 5, 67, 0
7, 26100, Note_on_c, 5, 72, 125
7, 26148, Note_on_c, 5, 72, 0
7, 26160, Note_on_c, 5, 67, 123
7, 26208, Note_on_c, 5, 67, 0
7, 26220, Note_on_c, 5, 71, 125
7, 26268, Note_on_c, 5, 71, 0
7, 26280, Note_on_c, 5, 67, 116
7, 26328, Note_on_c, 5, 67, 0
7, 26340, Note_on_c, 5, 71, 111
7, 26388, Note_on_c, 5, 71, 0
7, 26400, Note_on_c, 5, 72, 127
7, 26432, Note_on_c, 5, 72, 0
7, 26440, Note_on_c, 5, 84, 127
7, 26472, Note_on_c, 5, 84, 0
7, 26480, Note_on_c, 5, 84, 123
7, 26512, Note_on_c, 5, 84, 0
7, 26520, Note_on_c, 5, 84, 127
7, 26552, Note_on_c, 5, 84, 0
7, 26560, Note_on_c, 5, 84, 127
7, 26592, Note_on_c, 5, 84, 0
7, 26600, Note_on_c, 5, 84, 127
7, 26632, Note_on_c, 5, 84, 0
7, 26640, Note_on_c, 5, 84, 112
7, 26672, Note_on_c, 5, 84, 0
7, 26680, Note_on_c, 5, 72, 109
7, 26712, Note_on_c, 5, 72, 0
7, 26720, Note_on_c, 5, 84, 100
7, 26752, Note_on_c, 5, 84, 0
7, 26760, Note_on_c, 5, 72, 109
7, 26792, Note_on_c, 5, 72, 0
7, 26800, Note_on_c, 5, 83, 123
7, 26832, Note_on_c, 5, 83, 0
7, 26840, Note_on_c, 5, 81, 118
7, 26872, Note_on_c, 5, 81, 0
7, 26880, Note_on_c, 5, 79, 123
7, 26912, Note_on_c, 5, 79, 0
7, 26920, Note_on_c, 5, 67, 112
7, 26952, Note_on_c, 5, 67, 0
7, 26960, Note_on_c, 5, 79, 110
7, 26992, Note_on_c, 5, 79, 0
7, 27000, Note_on_c, 5, 67, 113
7, 27032, Note_on_c, 5, 67, 0
7, 27040, Note_on_c, 5, 77, 127
7, 27072, Note_on_c, 5, 77, 0
7, 27080, Note_on_c, 5, 76, 112
7, 27112, Note_on_c, 5, 76, 0
7, 27120, Note_on_c, 5, 74, 116
7, 27152, Note_on_c, 5, 74, 0
7, 27160, Note_on_c, 5, 65, 101
7, 27192, Note_on_c, 5, 65, 0
7, 27200, Note_on_c, 5, 74, 125
7, 27232, Note_on_c, 5, 74, 0
7, 27240, Note_on_c, 5, 65, 102
7, 27272, Note_on_c, 5, 65, 0
7, 27280, Note_on_c, 5, 72, 127
7, 27312, Note_on_c, 5, 72, 0
7, 27320, Note_on_c, 5, 74, 127
7, 27352, Note_on_c, 5, 74, 0
7, 27360, Note_on_c, 5, 72, 121
7, 27456, Note_on_c, 5, 72, 0
7, 27540, Note_on_c, 5, 76, 120
7, 27564, Note_on_c, 5, 76, 0
7, 27570, Note_on_c, 5, 74, 127
7, 27594, Note_on_c, 5, 74, 0
7, 27600, Note_on_c, 5, 72, 123
7, 27648, Note_on_c, 5, 72, 0
7, 27660, Note_on_c, 5, 76, 125
7, 27684, Note_on_c, 5, 76, 0
7, 27690, Note_on_c, 5, 74, 114
7, 27714, Note_on_c, 5, 74, 0
7, 27720, Note_on_c, 5, 72, 127
7, 27768, Note_on_c, 5, 72, 0
7, 27780, Note_on_c, 5, 81, 127
7, 27804, Note_on_c, 5, 81, 0
7, 27810, Note_on_c, 5, 78, 103
7, 27834, Note_on_c, 5, 78, 0
7, 27840, Note_on_c, 5, 79, 123
7, 27936, Note_on_c, 5, 79, 0
7, 28020, Note_on_c, 5, 81, 127
7, 28044, Note_on_c, 5, 81, 0
7, 28050, Note_on_c, 5, 79, 127
7, 28074, Note_on_c, 5, 79, 0
7, 28080, Note_on_c, 5, 76, 127
7, 28128, Note_on_c, 5, 76, 0
7, 28140, Note_on_c, 5, 79, 127
7, 28164, Note_on_c, 5, 79, 0
7, 28170, Note_on_c, 5, 77, 127
7, 28194, Note_on_c, 5, 77, 0
7, 28200, Note_on_c, 5, 74, 127
7, 28248, Note_on_c, 5, 74, 0
7, 28260, Note_on_c, 5, 77, 127
7, 28284, Note_on_c, 5, 77, 0
7, 28290, Note_on_c, 5, 76, 127
7, 28314, Note_on_c, 5, 76, 0
7, 28320, Note_on_c, 5, 72, 127
7, 28416, Note_on_c, 5, 72, 0
7, 28500, Note_on_c, 5, 76, 123
7, 28524, Note_on_c, 5, 76, 0
7, 28530, Note_on_c, 5, 74, 127
7, 28554, Note_on_c, 5, 74, 0
7, 28560, Note_on_c, 5, 72, 127
7, 28608, Note_on_c, 5, 72, 0
7, 28620, Note_on_c, 5, 76, 127
7, 28644, Note_on_c, 5, 76, 0
7, 28650, Note_on_c, 5, 74, 127
7, 28674, Note_on_c, 5, 74, 0
7, 28680, Note_on_c, 5, 72, 127
7, 28728, Note_on_c, 5, 72, 0
7, 28740, Note_on_c, 5, 81, 127
7, 28764, Note_on_c, 5, 81, 0
7, 28770, Note_on_c, 5, 78, 127
7, 28794, Note_on_c, 5, 78, 0
7, 28800, Note_on_c, 5, 79, 120
7, 28896, Note_on_c, 5, 79, 0
7, 28980, Note_on_c, 5, 81, 127
7, 29004, Note_on_c, 5, 81, 0
7, 29010, Note_on_c, 5, 79, 127
7, 29034, Note_on_c, 5, 79, 0
7, 29040, Note_on_c, 5, 76, 127
7, 29088, Note_on_c, 5, 76, 0
7, 29100, Note_on_c, 5, 79, 111
7, 29124, Note_on_c, 5, 79, 0
7, 29130, Note_on_c, 5, 77, 127
7, 29154, Note_on_c, 5, 77, 0
7, 29160, Note_on_c, 5, 74, 127
7, 29216, Note_on_c, 5, 74, 0
7, 29220, Note_on_c, 5, 77, 127
7, 29248, Note_on_c, 5, 77, 0
7, 29250, Note_on_c, 5, 76, 127
7, 29278, Note_on_c, 5, 76, 0
7, 29280, Note_on_c, 5, 72, 127
7, 29328, Note_on_c, 5, 72, 0
7, 29340, Note_on_c, 5, 79, 127
7, 29364, Note_on_c, 5, 79, 0
7, 29370, Note_on_c, 5, 76, 127
7, 29394, Note_on_c, 5, 76, 0
7, 29400, Note_on_c, 5, 74, 127
7, 29448, Note_on_c, 5, 74, 0
7, 29460, Note_on_c, 5, 79, 114
7, 29484, Note_on_c, 5, 79, 0
7, 29490, Note_on_c, 5, 77, 127
7, 29514, Note_on_c, 5, 77, 0
7, 29520, Note_on_c, 5, 72, 127
7, 29568, Note_on_c, 5, 72, 0
7, 29580, Note_on_c, 5, 79, 127
7, 29604, Note_on_c, 5, 79, 0
7, 29610, Note_on_c, 5, 76, 127
7, 29634, Note_on_c, 5, 76, 0
7, 29640, Note_on_c, 5, 74, 127
7, 29688, Note_on_c, 5, 74, 0
7, 29700, Note_on_c, 5, 79, 127
7, 29724, Note_on_c, 5, 79, 0
7, 29730, Note_on_c, 5, 77, 123
7, 29754, Note_on_c, 5, 77, 0
7, 29760, Note_on_c, 5, 72, 127
7, 29808, Note_on_c, 5, 72, 0
7, 29820, Note_on_c, 5, 79, 127
7, 29844, Note_on_c, 5, 79, 0
7, 29850, Note_on_c, 5, 76, 127
7, 29874, Note_on_c, 5, 76, 0
7, 29880, Note_on_c, 5, 74, 127
7, 29928, Note_on_c, 5, 74, 0
7, 29940, Note_on_c, 5, 79, 127
7, 29964, Note_on_c, 5, 79, 0
7, 29970, Note_on_c, 5, 77, 127
7, 29994, Note_on_c, 5, 77, 0
7, 30000, Note_on_c, 5, 72, 127
7, 30048, Note_on_c, 5, 72, 0
7, 30060, Note_on_c, 5, 79, 127
7, 30084, Note_on_c, 5, 79, 0
7, 30090, Note_on_c, 5, 76, 127
7, 30114, Note_on_c, 5, 76, 0
7, 30120, Note_on_c, 5, 74, 127
7, 30168, Note_on_c, 5, 74, 0
7, 30180, Note_on_c, 5, 79, 121
7, 30204, Note_on_c, 5, 79, 0
7, 30210, Note_on_c, 5, 77, 127
7, 30234, Note_on_c, 5, 77, 0
7, 30240, Note_on_c, 5, 72, 127
7, 30336, Note_on_c, 5, 72, 0
7, 30360, Note_on_c, 5, 67, 118
7, 30456, Note_on_c, 5, 67, 0
7, 30480, Note_on_c, 5, 72, 123
7, 30576, Note_on_c, 5, 72, 0
7, 30600, Note_on_c, 5, 67, 120
7, 30696, Note_on_c, 5, 67, 0
7, 30720, Note_on_c, 5, 72, 125
7, 30816, Note_on_c, 5, 72, 0
7, 30840, Note_on_c, 5, 67, 120
7, 30936, Note_on_c, 5, 67, 0
7, 30960, Note_on_c, 5, 72, 127
7, 31056, Note_on_c, 5, 72, 0
7, 31080, Note_on_c, 5, 67, 111
7, 31176, Note_on_c, 5, 67, 0
7, 31200, Note_on_c, 5, 72, 118
7, 31248, Note_on_c, 5, 72, 0
7, 32220, Note_on_c, 5, 60, 110
7, 32268, Note_on_c, 5, 60, 0
7, 32280, Note_on_c, 5, 62, 127
7, 32328, Note_on_c, 5, 62, 0
7, 32340, Note_on_c, 5, 65, 127
7, 32388, Note_on_c, 5, 65, 0
7, 32400, Note_on_c, 5, 64, 99
7, 32448, Note_on_c, 5, 64, 0
7, 32460, Note_on_c, 5, 64, 125
7, 32508, Note_on_c, 5, 64, 0
7, 32520, Note_on_c, 5, 65, 123
7, 32568, Note_on_c, 5, 65, 0
7, 32580, Note_on_c, 5, 69, 127
7, 32628, Note_on_c, 5, 69, 0
7, 32640, Note_on_c, 5, 67, 107
7, 32688, Note_on_c, 5, 67, 0
7, 32700, Note_on_c, 5, 67, 118
7, 32748, Note_on_c, 5, 67, 0
7, 32760, Note_on_c, 5, 69, 127
7, 32808, Note_on_c, 5, 69, 0
7, 32820, Note_on_c, 5, 72, 127
7, 32868, Note_on_c, 5, 72, 0
7, 32880, Note_on_c, 5, 70, 115
7, 32928, Note_on_c, 5, 70, 0
7, 32940, Note_on_c, 5, 69, 117
7, 32988, Note_on_c, 5, 69, 0
7, 33000, Note_on_c, 5, 70, 127
7, 33048, Note_on_c, 5, 70, 0
7, 33060, Note_on_c, 5, 74, 104
7, 33108, Note_on_c, 5, 74, 0
7, 33180, Note_on_c, 5, 69, 109
7, 33228, Note_on_c, 5, 69, 0
7, 33240, Note_on_c, 5, 70, 107
7, 33288, Note_on_c, 5, 70, 0
7, 33300, Note_on_c, 5, 74, 127
7, 33348, Note_on_c, 5, 74, 0
7, 33360, Note_on_c, 5, 72, 127
7, 33408, Note_on_c, 5, 72, 0
7, 33420, Note_on_c, 5, 70, 105
7, 33444, Note_on_c, 5, 70, 0
7, 33450, Note_on_c, 5, 69, 127
7, 33474, Note_on_c, 5, 69, 0
7, 33480, Note_on_c, 5, 67, 127
7, 33528, Note_on_c, 5, 67, 0
7, 33540, Note_on_c, 5, 60, 123
7, 33588, Note_on_c, 5, 60, 0
7, 33600, Note_on_c, 5, 65, 127
7, 33648, Note_on_c, 5, 65, 0
7, 33660, Note_on_c, 5, 67, 120
7, 33708, Note_on_c, 5, 67, 0
7, 33720, Note_on_c, 5, 69, 121
7, 33768, Note_on_c, 5, 69, 0
7, 33780, Note_on_c, 5, 70, 127
7, 33804, Note_on_c, 5, 70, 0
7, 33810, Note_on_c, 5, 69, 127
7, 33834, Note_on_c, 5, 69, 0
7, 33840, Note_on_c, 5, 67, 104
7, 34032, Note_on_c, 5, 67, 0
7, 34380, Note_on_c, 5, 67, 127
7, 34404, Note_on_c, 5, 67, 0
7, 34410, Note_on_c, 5, 69, 127
7, 34434, Note_on_c, 5, 69, 0
7, 34440, Note_on_c, 5, 70, 123
7, 34488, Note_on_c, 5, 70, 0
7, 34500, Note_on_c, 5, 67, 127
7, 34548, Note_on_c, 5, 67, 0
7, 34560, Note_on_c, 5, 69, 104
7, 34608, Note_on_c, 5, 69, 0
7, 34740, Note_on_c, 5, 70, 113
7, 34788, Note_on_c, 5, 70, 0
7, 34800, Note_on_c, 5, 67, 117
7, 34848, Note_on_c, 5, 67, 0
7, 34860, Note_on_c, 5, 67, 127
7, 34884, Note_on_c, 5, 67, 0
7, 34890, Note_on_c, 5, 69, 127
7, 34914, Note_on_c, 5, 69, 0
7, 34920, Note_on_c, 5, 70, 118
7, 34968, Note_on_c, 5, 70, 0
7, 34980, Note_on_c, 5, 67, 121
7, 35028, Note_on_c, 5, 67, 0
7, 35040, Note_on_c, 5, 69, 127
7, 35136, Note_on_c, 5, 69, 0
7, 35160, Note_on_c, 5, 72, 127
7, 35256, Note_on_c, 5, 72, 0
7, 35280, Note_on_c, 5, 70, 103
7, 35424, Note_on_c, 5, 70, 0
7, 35460, Note_on_c, 5, 69, 111
7, 35508, Note_on_c, 5, 69, 0
7, 35520, Note_on_c, 5, 74, 127
7, 35616, Note_on_c, 5, 74, 0
7, 35640, Note_on_c, 5, 72, 127
7, 35736, Note_on_c, 5, 72, 0
7, 35760, Note_on_c, 5, 67, 111
7, 35808, Note_on_c, 5, 67, 0
7, 35820, Note_on_c, 5, 67, 127
7, 35844, Note_on_c, 5, 67, 0
7, 35850, Note_on_c, 5, 69, 127
7, 35874, Note_on_c, 5, 69, 0
7, 35880, Note_on_c, 5, 70, 115
7, 35928, Note_on_c, 5, 70, 0
7, 35940, Note_on_c, 5, 67, 127
7, 35988, Note_on_c, 5, 67, 0
7, 36000, Note_on_c, 5, 69, 127
7, 36096, Note_on_c, 5, 69, 0
7, 36120, Note_on_c, 5, 72, 127
7, 36216, Note_on_c, 5, 72, 0
7, 36240, Note_on_c, 5, 70, 118
7, 36384, Note_on_c, 5, 70, 0
7, 36420, Note_on_c, 5, 69, 127
7, 36468, Note_on_c, 5, 69, 0
7, 36480, Note_on_c, 5, 74, 127
7, 36576, Note_on_c, 5, 74, 0
7, 36600, Note_on_c, 5, 72, 120
7, 36696, Note_on_c, 5, 72, 0
7, 36720, Note_on_c, 5, 67, 117
7, 36768, Note_on_c, 5, 67, 0
7, 36780, Note_on_c, 5, 67, 127
7, 36804, Note_on_c, 5, 67, 0
7, 36810, Note_on_c, 5, 69, 127
7, 36834, Note_on_c, 5, 69, 0
7, 36840, Note_on_c, 5, 70, 86
7, 36888, Note_on_c, 5, 70, 0
7, 36900, Note_on_c, 5, 71, 127
7, 36948, Note_on_c, 5, 71, 0
7, 36960, Note_on_c, 5, 72, 127
7, 37008, Note_on_c, 5, 72, 0
7, 37020, Note_on_c, 5, 67, 109
7, 37044, Note_on_c, 5, 67, 0
7, 37050, Note_on_c, 5, 69, 127
7, 37074, Note_on_c, 5, 69, 0
7, 37080, Note_on_c, 5, 70, 118
7, 37128, Note_on_c, 5, 70, 0
7, 37140, Note_on_c, 5, 71, 96
7, 37188, Note_on_c, 5, 71, 0
7, 37200, Note_on_c, 5, 72, 127
7, 37248, Note_on_c, 5, 72, 0
7, 37260, Note_on_c, 5, 67, 117
7, 37284, Note_on_c, 5, 67, 0
7, 37290, Note_on_c, 5, 69, 127
7, 37314, Note_on_c, 5, 69, 0
7, 37320, Note_on_c, 5, 70, 118
7, 37368, Note_on_c, 5, 70, 0
7, 37380, Note_on_c, 5, 71, 127
7, 37428, Note_on_c, 5, 71, 0
7, 37440, Note_on_c, 5, 72, 112
7, 37488, Note_on_c, 5, 72, 0
7, 37500, Note_on_c, 5, 67, 127
7, 37524, Note_on_c, 5, 67, 0
7, 37530, Note_on_c, 5, 69, 127
7, 37554, Note_on_c, 5, 69, 0
7, 37560, Note_on_c, 5, 70, 118
7, 37608, Note_on_c, 5, 70, 0
7, 37620, Note_on_c, 5, 71, 116
7, 37668, Note_on_c, 5, 71, 0
7, 37680, Note_on_c, 5, 72, 127
7, 37728, Note_on_c, 5, 72, 0
7, 37740, Note_on_c, 5, 67, 127
7, 37764, Note_on_c, 5, 67, 0
7, 37770, Note_on_c, 5, 69, 127
7, 37794, Note_on_c, 5, 69, 0
7, 37800, Note_on_c, 5, 70, 121
7, 37848, Note_on_c, 5, 70, 0
7, 37860, Note_on_c, 5, 71, 95
7, 37908, Note_on_c, 5, 71, 0
7, 37920, Note_on_c, 5, 72, 127
7, 37968, Note_on_c, 5, 72, 0
7, 37980, Note_on_c, 5, 67, 125
7, 38004, Note_on_c, 5, 67, 0
7, 38010, Note_on_c, 5, 69, 127
7, 38034, Note_on_c, 5, 69, 0
7, 38040, Note_on_c, 5, 70, 109
7, 38088, Note_on_c, 5, 70, 0
7, 38100, Note_on_c, 5, 71, 97
7, 38148, Note_on_c, 5, 71, 0
7, 38160, Note_on_c, 5, 72, 127
7, 38208, Note_on_c, 5, 72, 0
7, 38220, Note_on_c, 5, 67, 127
7, 38244, Note_on_c, 5, 67, 0
7, 38250, Note_on_c, 5, 69, 127
7, 38274, Note_on_c, 5, 69, 0
7, 38280, Note_on_c, 5, 70, 118
7, 38328, Note_on_c, 5, 70, 0
7, 38340, Note_on_c, 5, 71, 103
7, 38388, Note_on_c, 5, 71, 0
7, 38400, Note_on_c, 5, 72, 127
7, 38448, Note_on_c, 5, 72, 0
7, 38460, Note_on_c, 5, 67, 127
7, 38484, Note_on_c, 5, 67, 0
7, 38490, Note_on_c, 5, 69, 123
7, 38514, Note_on_c, 5, 69, 0
7, 38520, Note_on_c, 5, 70, 123
7, 38576, Note_on_c, 5, 70, 0
7, 38580, Note_on_c, 5, 71, 102
7, 38636, Note_on_c, 5, 71, 0
7, 38640, Note_on_c, 5, 72, 127
7, 38688, Note_on_c, 5, 72, 0
7, 38700, Note_on_c, 5, 67, 109
7, 38724, Note_on_c, 5, 67, 0
7, 38730, Note_on_c, 5, 69, 127
7, 38754, Note_on_c, 5, 69, 0
7, 38760, Note_on_c, 5, 70, 123
7, 38808, Note_on_c, 5, 70, 0
7, 38820, Note_on_c, 5, 71, 127
7, 38868, Note_on_c, 5, 71, 0
7, 38880, Note_on_c, 5, 72, 123
7, 38928, Note_on_c, 5, 72, 0
7, 38940, Note_on_c, 5, 67, 127
7, 38964, Note_on_c, 5, 67, 0
7, 38970, Note_on_c, 5, 69, 127
7, 38994, Note_on_c, 5, 69, 0
7, 39000, Note_on_c, 5, 70, 123
7, 39048, Note_on_c, 5, 70, 0
7, 39060, Note_on_c, 5, 71, 102
7, 39108, Note_on_c, 5, 71, 0
7, 39120, Note_on_c, 5, 72, 106
7, 39168, Note_on_c, 5, 72, 0
7, 39180, Note_on_c, 5, 69, 127
7, 39204, Note_on_c, 5, 69, 0
7, 39210, Note_on_c, 5, 70, 107
7, 39234, Note_on_c, 5, 70, 0
7, 39240, Note_on_c, 5, 72, 104
7, 39288, Note_on_c, 5, 72, 0
7, 39300, Note_on_c, 5, 73, 111
7, 39348, Note_on_c, 5, 73, 0
7, 39360, Note_on_c, 5, 74, 116
7, 39408, Note_on_c, 5, 74, 0
7, 40860, Note_on_c, 5, 65, 103
7, 40884, Note_on_c, 5, 65, 0
7, 40890, Note_on_c, 5, 69, 117
7, 40914, Note_on_c, 5, 69, 0
7, 40980, Note_on_c, 5, 67, 99
7, 41004, Note_on_c, 5, 67, 0
7, 41010, Note_on_c, 5, 70, 109
7, 41034, Note_on_c, 5, 70, 0
7, 41100, Note_on_c, 5, 69, 127
7, 41124, Note_on_c, 5, 69, 0
7, 41130, Note_on_c, 5, 72, 125
7, 41154, Note_on_c, 5, 72, 0
7, 41220, Note_on_c, 5, 67, 113
7, 41244, Note_on_c, 5, 67, 0
7, 41250, Note_on_c, 5, 76, 127
7, 41274, Note_on_c, 5, 76, 0
7, 41340, Note_on_c, 5, 69, 121
7, 41364, Note_on_c, 5, 69, 0
7, 41370, Note_on_c, 5, 77, 127
7, 41394, Note_on_c, 5, 77, 0
7, 41460, Note_on_c, 5, 69, 110
7, 41484, Note_on_c, 5, 69, 0
7, 41490, Note_on_c, 5, 77, 114
7, 41514, Note_on_c, 5, 77, 0
7, 41580, Note_on_c, 5, 76, 120
7, 41604, Note_on_c, 5, 76, 0
7, 41610, Note_on_c, 5, 79, 117
7, 41634, Note_on_c, 5, 79, 0
7, 41700, Note_on_c, 5, 76, 123
7, 41724, Note_on_c, 5, 76, 0
7, 41730, Note_on_c, 5, 79, 123
7, 41754, Note_on_c, 5, 79, 0
7, 41760, Note_on_c, 5, 81, 116
7, 41808, Note_on_c, 5, 81, 0
7, 41820, Note_on_c, 5, 81, 127
7, 41868, Note_on_c, 5, 81, 0
7, 41880, Note_on_c, 5, 82, 113
7, 41928, Note_on_c, 5, 82, 0
7, 41940, Note_on_c, 5, 86, 127
7, 41988, Note_on_c, 5, 86, 0
7, 42000, Note_on_c, 5, 84, 125
7, 42048, Note_on_c, 5, 84, 0
7, 42060, Note_on_c, 5, 82, 113
7, 42084, Note_on_c, 5, 82, 0
7, 42090, Note_on_c, 5, 81, 118
7, 42114, Note_on_c, 5, 81, 0
7, 42120, Note_on_c, 5, 79, 127
7, 42168, Note_on_c, 5, 79, 0
7, 42180, Note_on_c, 5, 72, 109
7, 42228, Note_on_c, 5, 72, 0
7, 42240, Note_on_c, 5, 77, 127
7, 42288, Note_on_c, 5, 77, 0
7, 42300, Note_on_c, 5, 79, 127
7, 42348, Note_on_c, 5, 79, 0
7, 42360, Note_on_c, 5, 81, 111
7, 42408, Note_on_c, 5, 81, 0
7, 42420, Note_on_c, 5, 82, 121
7, 42444, Note_on_c, 5, 82, 0
7, 42450, Note_on_c, 5, 81, 118
7, 42474, Note_on_c, 5, 81, 0
7, 42480, Note_on_c, 5, 79, 127
7, 42528, Note_on_c, 5, 79, 0
7, 42540, Note_on_c, 5, 81, 123
7, 42588, Note_on_c, 5, 81, 0
7, 42600, Note_on_c, 5, 82, 83
7, 42648, Note_on_c, 5, 82, 0
7, 42660, Note_on_c, 5, 84, 127
7, 42684, Note_on_c, 5, 84, 0
7, 42690, Note_on_c, 5, 82, 85
7, 42714, Note_on_c, 5, 82, 0
7, 42720, Note_on_c, 5, 81, 117
7, 42776, Note_on_c, 5, 81, 0
7, 42780, Note_on_c, 5, 84, 99
7, 42828, Note_on_c, 5, 84, 0
7, 42840, Note_on_c, 5, 84, 123
7, 42888, Note_on_c, 5, 84, 0
7, 42900, Note_on_c, 5, 84, 123
7, 42948, Note_on_c, 5, 84, 0
7, 42960, Note_on_c, 5, 84, 107
7, 43056, Note_on_c, 5, 84, 0
7, 43080, Note_on_c, 5, 82, 105
7, 43104, Note_on_c, 5, 82, 0
7, 43110, Note_on_c, 5, 81, 118
7, 43134, Note_on_c, 5, 81, 0
7, 43140, Note_on_c, 5, 79, 107
7, 43164, Note_on_c, 5, 79, 0
7, 43170, Note_on_c, 5, 77, 102
7, 43194, Note_on_c, 5, 77, 0
7, 43200, Note_on_c, 5, 76, 127
7, 43248, Note_on_c, 5, 76, 0
7, 43260, Note_on_c, 5, 77, 125
7, 43308, Note_on_c, 5, 77, 0
7, 43320, Note_on_c, 5, 79, 110
7, 43368, Note_on_c, 5, 79, 0
7, 43380, Note_on_c, 5, 81, 50
7, 43404, Note_on_c, 5, 81, 0
7, 43410, Note_on_c, 5, 79, 103
7, 43434, Note_on_c, 5, 79, 0
7, 43440, Note_on_c, 5, 77, 125
7, 43488, Note_on_c, 5, 77, 0
7, 43500, Note_on_c, 5, 79, 121
7, 43548, Note_on_c, 5, 79, 0
7, 43560, Note_on_c, 5, 81, 120
7, 43608, Note_on_c, 5, 81, 0
7, 43620, Note_on_c, 5, 82, 121
7, 43644, Note_on_c, 5, 82, 0
7, 43650, Note_on_c, 5, 81, 127
7, 43674, Note_on_c, 5, 81, 0
7, 43680, Note_on_c, 5, 79, 125
7, 43728, Note_on_c, 5, 79, 0
7, 43740, Note_on_c, 5, 82, 88
7, 43788, Note_on_c, 5, 82, 0
7, 43800, Note_on_c, 5, 82, 127
7, 43848, Note_on_c, 5, 82, 0
7, 43860, Note_on_c, 5, 82, 123
7, 43908, Note_on_c, 5, 82, 0
7, 43920, Note_on_c, 5, 82, 115
7, 44016, Note_on_c, 5, 82, 0
7, 44040, Note_on_c, 5, 84, 127
7, 44064, Note_on_c, 5, 84, 0
7, 44070, Note_on_c, 5, 82, 101
7, 44094, Note_on_c, 5, 82, 0
7, 44100, Note_on_c, 5, 81, 125
7, 44124, Note_on_c, 5, 81, 0
7, 44130, Note_on_c, 5, 79, 123
7, 44154, Note_on_c, 5, 79, 0
7, 44160, Note_on_c, 5, 81, 127
7, 44208, Note_on_c, 5, 81, 0
7, 44220, Note_on_c, 5, 82, 89
7, 44268, Note_on_c, 5, 82, 0
7, 44280, Note_on_c, 5, 84, 127
7, 44328, Note_on_c, 5, 84, 0
7, 44340, Note_on_c, 5, 86, 121
7, 44364, Note_on_c, 5, 86, 0
7, 44370, Note_on_c, 5, 84, 113
7, 44394, Note_on_c, 5, 84, 0
7, 44400, Note_on_c, 5, 82, 95
7, 44448, Note_on_c, 5, 82, 0
7, 44460, Note_on_c, 5, 84, 123
7, 44484, Note_on_c, 5, 84, 0
7, 44490, Note_on_c, 5, 82, 113
7, 44514, Note_on_c, 5, 82, 0
7, 44520, Note_on_c, 5, 79, 127
7, 44568, Note_on_c, 5, 79, 0
7, 44580, Note_on_c, 5, 84, 118
7, 44604, Note_on_c, 5, 84, 0
7, 44610, Note_on_c, 5, 82, 96
7, 44634, Note_on_c, 5, 82, 0
7, 44640, Note_on_c, 5, 81, 127
7, 44688, Note_on_c, 5, 81, 0
7, 44700, Note_on_c, 5, 82, 105
7, 44748, Note_on_c, 5, 82, 0
7, 44760, Note_on_c, 5, 84, 127
7, 44808, Note_on_c, 5, 84, 0
7, 44820, Note_on_c, 5, 86, 125
7, 44844, Note_on_c, 5, 86, 0
7, 44850, Note_on_c, 5, 84, 102
7, 44874, Note_on_c, 5, 84, 0
7, 44880, Note_on_c, 5, 79, 123
7, 44928, Note_on_c, 5, 79, 0
7, 44940, Note_on_c, 5, 82, 121
7, 44964, Note_on_c, 5, 82, 0
7, 44970, Note_on_c, 5, 81, 127
7, 44994, Note_on_c, 5, 81, 0
7, 45000, Note_on_c, 5, 79, 127
7, 45048, Note_on_c, 5, 79, 0
7, 45060, Note_on_c, 5, 84, 127
7, 45084, Note_on_c, 5, 84, 0
7, 45090, Note_on_c, 5, 82, 81
7, 45114, Note_on_c, 5, 82, 0
7, 45120, Note_on_c, 5, 81, 118
7, 45168, Note_on_c, 5, 81, 0
7, 45180, Note_on_c, 5, 84, 127
7, 45204, Note_on_c, 5, 84, 0
7, 45210, Note_on_c, 5, 82, 103
7, 45234, Note_on_c, 5, 82, 0
7, 45240, Note_on_c, 5, 79, 127
7, 45288, Note_on_c, 5, 79, 0
7, 45300, Note_on_c, 5, 84, 127
7, 45324, Note_on_c, 5, 84, 0
7, 45330, Note_on_c, 5, 82, 115
7, 45354, Note_on_c, 5, 82, 0
7, 45360, Note_on_c, 5, 79, 127
7, 45408, Note_on_c, 5, 79, 0
7, 45420, Note_on_c, 5, 84, 127
7, 45444, Note_on_c, 5, 84, 0
7, 45450, Note_on_c, 5, 82, 113
7, 45474, Note_on_c, 5, 82, 0
7, 45480, Note_on_c, 5, 79, 127
7, 45528, Note_on_c, 5, 79, 0
7, 45540, Note_on_c, 5, 84, 121
7, 45564, Note_on_c, 5, 84, 0
7, 45570, Note_on_c, 5, 82, 121
7, 45594, Note_on_c, 5, 82, 0
7, 45600, Note_on_c, 5, 65, 102
7, 45600, Note_on_c, 5, 81, 99
7, 45600, Note_on_c, 5, 72, 95
7, 45648, Note_on_c, 5, 72, 0
7, 45648, Note_on_c, 5, 81, 0
7, 45648, Note_on_c, 5, 65, 0
7, 45900, Note_on_c, 5, 65, 125
7, 45948, Note_on_c, 5, 65, 0
7, 45960, Note_on_c, 5, 67, 127
7, 46008, Note_on_c, 5, 67, 0
7, 46020, Note_on_c, 5, 70, 109
7, 46068, Note_on_c, 5, 70, 0
7, 46080, Note_on_c, 5, 69, 127
7, 46128, Note_on_c, 5, 69, 0
7, 46140, Note_on_c, 5, 74, 109
7, 46188, Note_on_c, 5, 74, 0
7, 46200, Note_on_c, 5, 76, 123
7, 46248, Note_on_c, 5, 76, 0
7, 46260, Note_on_c, 5, 79, 127
7, 46308, Note_on_c, 5, 79, 0
7, 46320, Note_on_c, 5, 77, 125
7, 46368, Note_on_c, 5, 77, 0
7, 46380, Note_on_c, 5, 77, 116
7, 46428, Note_on_c, 5, 77, 0
7, 46440, Note_on_c, 5, 79, 127
7, 46488, Note_on_c, 5, 79, 0
7, 46500, Note_on_c, 5, 82, 123
7, 46548, Note_on_c, 5, 82, 0
7, 46560, Note_on_c, 5, 81, 107
7, 46608, Note_on_c, 5, 81, 0
7, 46860, Note_on_c, 5, 65, 123
7, 46908, Note_on_c, 5, 65, 0
7, 46920, Note_on_c, 5, 67, 127
7, 46968, Note_on_c, 5, 67, 0
7, 46980, Note_on_c, 5, 70, 123
7, 47028, Note_on_c, 5, 70, 0
7, 47040, Note_on_c, 5, 69, 127
7, 47088, Note_on_c, 5, 69, 0
7, 47100, Note_on_c, 5, 74, 127
7, 47148, Note_on_c, 5, 74, 0
7, 47160, Note_on_c, 5, 76, 118
7, 47208, Note_on_c, 5, 76, 0
7, 47220, Note_on_c, 5, 79, 127
7, 47268, Note_on_c, 5, 79, 0
7, 47280, Note_on_c, 5, 77, 127
7, 47328, Note_on_c, 5, 77, 0
7, 47340, Note_on_c, 5, 77, 127
7, 47388, Note_on_c, 5, 77, 0
7, 47400, Note_on_c, 5, 79, 127
7, 47448, Note_on_c, 5, 79, 0
7, 47460, Note_on_c, 5, 82, 126
7, 47508, Note_on_c, 5, 82, 0
7, 47520, Note_on_c, 5, 81, 109
7, 47568, Note_on_c, 5, 81, 0
7, 47820, Note_on_c, 5, 77, 103
7, 47868, Note_on_c, 5, 77, 0
7, 47880, Note_on_c, 5, 79, 127
7, 47928, Note_on_c, 5, 79, 0
7, 47940, Note_on_c, 5, 81, 127
7, 47988, Note_on_c, 5, 81, 0
7, 48000, Note_on_c, 5, 79, 127
7, 48096, Note_on_c, 5, 79, 0
7, 48300, Note_on_c, 5, 78, 97
7, 48348, Note_on_c, 5, 78, 0
7, 48360, Note_on_c, 5, 79, 127
7, 48408, Note_on_c, 5, 79, 0
7, 48420, Note_on_c, 5, 81, 107
7, 48468, Note_on_c, 5, 81, 0
7, 48480, Note_on_c, 5, 79, 127
7, 48528, Note_on_c, 5, 79, 0
7, 48540, Note_on_c, 5, 78, 100
7, 48588, Note_on_c, 5, 78, 0
7, 48600, Note_on_c, 5, 79, 125
7, 48648, Note_on_c, 5, 79, 0
7, 48660, Note_on_c, 5, 81, 127
7, 48708, Note_on_c, 5, 81, 0
7, 48720, Note_on_c, 5, 79, 127
7, 48768, Note_on_c, 5, 79, 0
7, 48780, Note_on_c, 5, 78, 113
7, 48828, Note_on_c, 5, 78, 0
7, 48840, Note_on_c, 5, 79, 127
7, 48888, Note_on_c, 5, 79, 0
7, 48900, Note_on_c, 5, 81, 116
7, 48948, Note_on_c, 5, 81, 0
7, 48960, Note_on_c, 5, 79, 125
7, 49008, Note_on_c, 5, 79, 0
7, 49020, Note_on_c, 5, 77, 127
7, 49068, Note_on_c, 5, 77, 0
7, 49080, Note_on_c, 5, 74, 112
7, 49128, Note_on_c, 5, 74, 0
7, 49140, Note_on_c, 5, 71, 101
7, 49188, Note_on_c, 5, 71, 0
7, 49200, Note_on_c, 5, 67, 114
7, 49248, Note_on_c, 5, 67, 0
7, 49260, Note_on_c, 5, 74, 123
7, 49308, Note_on_c, 5, 74, 0
7, 49320, Note_on_c, 5, 71, 127
7, 49368, Note_on_c, 5, 71, 0
7, 49380, Note_on_c, 5, 67, 121
7, 49428, Note_on_c, 5, 67, 0
7, 49440, Note_on_c, 5, 81, 127
7, 49488, Note_on_c, 5, 81, 0
7, 49500, Note_on_c, 5, 79, 125
7, 49548, Note_on_c, 5, 79, 0
7, 49560, Note_on_c, 5, 76, 127
7, 49608, Note_on_c, 5, 76, 0
7, 49620, Note_on_c, 5, 72, 117
7, 49668, Note_on_c, 5, 72, 0
7, 49680, Note_on_c, 5, 67, 127
7, 49728, Note_on_c, 5, 67, 0
7, 49740, Note_on_c, 5, 76, 127
7, 49788, Note_on_c, 5, 76, 0
7, 49800, Note_on_c, 5, 72, 127
7, 49848, Note_on_c, 5, 72, 0
7, 49860, Note_on_c, 5, 67, 118
7, 49908, Note_on_c, 5, 67, 0
7, 49920, Note_on_c, 5, 62, 116
7, 49968, Note_on_c, 5, 62, 0
7, 49980, Note_on_c, 5, 55, 123
7, 50028, Note_on_c, 5, 55, 0
7, 50040, Note_on_c, 5, 62, 127
7, 50088, Note_on_c, 5, 62, 0
7, 50100, Note_on_c, 5, 55, 123
7, 50148, Note_on_c, 5, 55, 0
7, 50160, Note_on_c, 5, 62, 127
7, 50208, Note_on_c, 5, 62, 0
7, 50220, Note_on_c, 5, 55, 117
7, 50268, Note_on_c, 5, 55, 0
7, 50280, Note_on_c, 5, 62, 123
7, 50328, Note_on_c, 5, 62, 0
7, 50340, Note_on_c, 5, 55, 121
7, 50388, Note_on_c, 5, 55, 0
7, 50400, Note_on_c, 5, 64, 101
7, 50448, Note_on_c, 5, 64, 0
7, 50460, Note_on_c, 5, 55, 111
7, 50508, Note_on_c, 5, 55, 0
7, 50520, Note_on_c, 5, 64, 120
7, 50568, Note_on_c, 5, 64, 0
7, 50580, Note_on_c, 5, 55, 104
7, 50628, Note_on_c, 5, 55, 0
7, 50640, Note_on_c, 5, 64, 103
7, 50688, Note_on_c, 5, 64, 0
7, 50700, Note_on_c, 5, 55, 105
7, 50748, Note_on_c, 5, 55, 0
7, 50760, Note_on_c, 5, 64, 104
7, 50808, Note_on_c, 5, 64, 0
7, 50820, Note_on_c, 5, 55, 91
7, 50868, Note_on_c, 5, 55, 0
7, 50880, Note_on_c, 5, 67, 106
7, 51312, Note_on_c, 5, 67, 0
7, 51360, Note_on_c, 5, 72, 98
7, 51792, Note_on_c, 5, 72, 0
7, 51840, Note_on_c, 5, 71, 104
7, 51936, Note_on_c, 5, 71, 0
7, 51960, Note_on_c, 5, 71, 104
7, 52056, Note_on_c, 5, 71, 0
7, 52080, Note_on_c, 5, 71, 111
7, 52176, Note_on_c, 5, 71, 0
7, 52200, Note_on_c, 5, 74, 116
7, 52248, Note_on_c, 5, 74, 0
7, 52260, Note_on_c, 5, 71, 116
7, 52308, Note_on_c, 5, 71, 0
7, 52320, Note_on_c, 5, 72, 100
7, 52416, Note_on_c, 5, 72, 0
7, 52440, Note_on_c, 5, 72, 104
7, 52536, Note_on_c, 5, 72, 0
7, 52560, Note_on_c, 5, 72, 103
7, 52656, Note_on_c, 5, 72, 0
7, 52680, Note_on_c, 5, 76, 113
7, 52728, Note_on_c, 5, 76, 0
7, 52740, Note_on_c, 5, 72, 117
7, 52788, Note_on_c, 5, 72, 0
7, 52800, Note_on_c, 5, 79, 127
7, 52832, Note_on_c, 5, 79, 0
7, 52840, Note_on_c, 5, 81, 121
7, 52872, Note_on_c, 5, 81, 0
7, 52880, Note_on_c, 5, 79, 127
7, 52912, Note_on_c, 5, 79, 0
7, 52920, Note_on_c, 5, 81, 120
7, 52952, Note_on_c, 5, 81, 0
7, 52960, Note_on_c, 5, 79, 123
7, 52992, Note_on_c, 5, 79, 0
7, 53000, Note_on_c, 5, 81, 118
7, 53032, Note_on_c, 5, 81, 0
7, 53040, Note_on_c, 5, 79, 123
7, 53072, Note_on_c, 5, 79, 0
7, 53080, Note_on_c, 5, 81, 116
7, 53112, Note_on_c, 5, 81, 0
7, 53120, Note_on_c, 5, 79, 123
7, 53152, Note_on_c, 5, 79, 0
7, 53160, Note_on_c, 5, 81, 114
7, 53192, Note_on_c, 5, 81, 0
7, 53200, Note_on_c, 5, 79, 123
7, 53232, Note_on_c, 5, 79, 0
7, 53240, Note_on_c, 5, 81, 125
7, 53272, Note_on_c, 5, 81, 0
7, 53280, Note_on_c, 5, 79, 117
7, 53312, Note_on_c, 5, 79, 0
7, 53320, Note_on_c, 5, 81, 112
7, 53352, Note_on_c, 5, 81, 0
7, 53360, Note_on_c, 5, 79, 120
7, 53392, Note_on_c, 5, 79, 0
7, 53400, Note_on_c, 5, 81, 114
7, 53432, Note_on_c, 5, 81, 0
7, 53440, Note_on_c, 5, 79, 114
7, 53472, Note_on_c, 5, 79, 0
7, 53480, Note_on_c, 5, 81, 118
7, 53512, Note_on_c, 5, 81, 0
7, 53520, Note_on_c, 5, 79, 116
7, 53552, Note_on_c, 5, 79, 0
7, 53560, Note_on_c, 5, 81, 109
7, 53592, Note_on_c, 5, 81, 0
7, 53600, Note_on_c, 5, 79, 116
7, 53632, Note_on_c, 5, 79, 0
7, 53640, Note_on_c, 5, 81, 117
7, 53672, Note_on_c, 5, 81, 0
7, 53680, Note_on_c, 5, 79, 125
7, 53712, Note_on_c, 5, 79, 0
7, 53720, Note_on_c, 5, 81, 109
7, 53752, Note_on_c, 5, 81, 0
7, 53760, Note_on_c, 5, 79, 127
7, 53784, Note_on_c, 5, 79, 0
7, 53790, Note_on_c, 5, 81, 105
7, 53814, Note_on_c, 5, 81, 0
7, 53820, Note_on_c, 5, 79, 120
7, 53844, Note_on_c, 5, 79, 0
7, 53850, Note_on_c, 5, 81, 110
7, 53874, Note_on_c, 5, 81, 0
7, 53880, Note_on_c, 5, 79, 120
7, 53904, Note_on_c, 5, 79, 0
7, 53910, Note_on_c, 5, 81, 110
7, 53934, Note_on_c, 5, 81, 0
7, 53940, Note_on_c, 5, 79, 116
7, 53964, Note_on_c, 5, 79, 0
7, 53970, Note_on_c, 5, 81, 109
7, 53994, Note_on_c, 5, 81, 0
7, 54000, Note_on_c, 5, 79, 116
7, 54024, Note_on_c, 5, 79, 0
7, 54030, Note_on_c, 5, 81, 114
7, 54054, Note_on_c, 5, 81, 0
7, 54060, Note_on_c, 5, 79, 118
7, 54084, Note_on_c, 5, 79, 0
7, 54090, Note_on_c, 5, 81, 116
7, 54114, Note_on_c, 5, 81, 0
7, 54120, Note_on_c, 5, 79, 113
7, 54144, Note_on_c, 5, 79, 0
7, 54150, Note_on_c, 5, 81, 107
7, 54174, Note_on_c, 5, 81, 0
7, 54180, Note_on_c, 5, 79, 116
7, 54204, Note_on_c, 5, 79, 0
7, 54210, Note_on_c, 5, 81, 125
7, 54234, Note_on_c, 5, 81, 0
7, 54240, Note_on_c, 5, 79, 127
7, 54264, Note_on_c, 5, 79, 0
7, 54270, Note_on_c, 5, 81, 123
7, 54294, Note_on_c, 5, 81, 0
7, 54300, Note_on_c, 5, 79, 121
7, 54324, Note_on_c, 5, 79, 0
7, 54330, Note_on_c, 5, 81, 123
7, 54354, Note_on_c, 5, 81, 0
7, 54360, Note_on_c, 5, 79, 117
7, 54384, Note_on_c, 5, 79, 0
7, 54390, Note_on_c, 5, 81, 118
7, 54414, Note_on_c, 5, 81, 0
7, 54420, Note_on_c, 5, 79, 120
7, 54444, Note_on_c, 5, 79, 0
7, 54450, Note_on_c, 5, 81, 111
7, 54474, Note_on_c, 5, 81, 0
7, 54480, Note_on_c, 5, 79, 116
7, 54504, Note_on_c, 5, 79, 0
7, 54510, Note_on_c, 5, 81, 123
7, 54534, Note_on_c, 5, 81, 0
7, 54540, Note_on_c, 5, 79, 114
7, 54564, Note_on_c, 5, 79, 0
7, 54570, Note_on_c, 5, 81, 123
7, 54594, Note_on_c, 5, 81, 0
7, 54600, Note_on_c, 5, 79, 116
7, 54624, Note_on_c, 5, 79, 0
7, 54630, Note_on_c, 5, 81, 121
7, 54654, Note_on_c, 5, 81, 0
7, 54660, Note_on_c, 5, 79, 120
7, 54684, Note_on_c, 5, 79, 0
7, 54690, Note_on_c, 5, 81, 121
7, 54714, Note_on_c, 5, 81, 0
7, 54720, Note_on_c, 5, 79, 121
7, 54744, Note_on_c, 5, 79, 0
7, 54750, Note_on_c, 5, 81, 127
7, 54774, Note_on_c, 5, 81, 0
7, 54780, Note_on_c, 5, 79, 121
7, 54804, Note_on_c, 5, 79, 0
7, 54810, Note_on_c, 5, 81, 127
7, 54834, Note_on_c, 5, 81, 0
7, 54840, Note_on_c, 5, 79, 121
7, 54864, Note_on_c, 5, 79, 0
7, 54870, Note_on_c, 5, 81, 127
7, 54894, Note_on_c, 5, 81, 0
7, 54900, Note_on_c, 5, 79, 114
7, 54924, Note_on_c, 5, 79, 0
7, 54930, Note_on_c, 5, 81, 127
7, 54954, Note_on_c, 5, 81, 0
7, 54960, Note_on_c, 5, 79, 121
7, 54984, Note_on_c, 5, 79, 0
7, 54990, Note_on_c, 5, 81, 123
7, 55014, Note_on_c, 5, 81, 0
7, 55020, Note_on_c, 5, 79, 116
7, 55044, Note_on_c, 5, 79, 0
7, 55050, Note_on_c, 5, 81, 121
7, 55074, Note_on_c, 5, 81, 0
7, 55080, Note_on_c, 5, 79, 120
7, 55104, Note_on_c, 5, 79, 0
7, 55110, Note_on_c, 5, 81, 121
7, 55134, Note_on_c, 5, 81, 0
7, 55140, Note_on_c, 5, 79, 127
7, 55164, Note_on_c, 5, 79, 0
7, 55170, Note_on_c, 5, 81, 127
7, 55194, Note_on_c, 5, 81, 0
7, 55200, Note_on_c, 5, 79, 127
7, 55344, Note_on_c, 5, 79, 0
7, 55380, Note_on_c, 5, 81, 127
7, 55404, Note_on_c, 5, 81, 0
7, 55410, Note_on_c, 5, 83, 127
7, 55434, Note_on_c, 5, 83, 0
7, 55440, Note_on_c, 5, 84, 127
7, 55488, Note_on_c, 5, 84, 0
7, 55500, Note_on_c, 5, 83, 127
7, 55524, Note_on_c, 5, 83, 0
7, 55530, Note_on_c, 5, 81, 116
7, 55554, Note_on_c, 5, 81, 0
7, 55560, Note_on_c, 5, 79, 127
7, 55608, Note_on_c, 5, 79, 0
7, 55620, Note_on_c, 5, 81, 127
7, 55644, Note_on_c, 5, 81, 0
7, 55650, Note_on_c, 5, 83, 112
7, 55674, Note_on_c, 5, 83, 0
7, 55680, Note_on_c, 5, 84, 127
7, 55728, Note_on_c, 5, 84, 0
7, 55740, Note_on_c, 5, 83, 127
7, 55764, Note_on_c, 5, 83, 0
7, 55770, Note_on_c, 5, 81, 121
7, 55794, Note_on_c, 5, 81, 0
7, 55800, Note_on_c, 5, 79, 127
7, 55848, Note_on_c, 5, 79, 0
7, 55860, Note_on_c, 5, 81, 127
7, 55884, Note_on_c, 5, 81, 0
7, 55890, Note_on_c, 5, 83, 127
7, 55914, Note_on_c, 5, 83, 0
7, 55920, Note_on_c, 5, 84, 125
7, 55944, Note_on_c, 5, 84, 0
7, 56160, Note_on_c, 5, 69, 127
7, 56208, Note_on_c, 5, 69, 0
7, 56220, Note_on_c, 5, 72, 127
7, 56268, Note_on_c, 5, 72, 0
7, 56280, Note_on_c, 5, 69, 121
7, 56328, Note_on_c, 5, 69, 0
7, 56340, Note_on_c, 5, 72, 123
7, 56388, Note_on_c, 5, 72, 0
7, 56400, Note_on_c, 5, 67, 107
7, 56448, Note_on_c, 5, 67, 0
7, 56460, Note_on_c, 5, 72, 123
7, 56508, Note_on_c, 5, 72, 0
7, 56520, Note_on_c, 5, 67, 105
7, 56568, Note_on_c, 5, 67, 0
7, 56580, Note_on_c, 5, 72, 127
7, 56628, Note_on_c, 5, 72, 0
7, 56640, Note_on_c, 5, 67, 114
7, 56688, Note_on_c, 5, 67, 0
7, 56700, Note_on_c, 5, 71, 117
7, 56748, Note_on_c, 5, 71, 0
7, 56760, Note_on_c, 5, 67, 106
7, 56808, Note_on_c, 5, 67, 0
7, 56820, Note_on_c, 5, 71, 127
7, 56868, Note_on_c, 5, 71, 0
7, 56880, Note_on_c, 5, 79, 127
7, 57024, Note_on_c, 5, 79, 0
7, 57060, Note_on_c, 5, 81, 117
7, 57084, Note_on_c, 5, 81, 0
7, 57090, Note_on_c, 5, 83, 123
7, 57114, Note_on_c, 5, 83, 0
7, 57120, Note_on_c, 5, 84, 127
7, 57168, Note_on_c, 5, 84, 0
7, 57180, Note_on_c, 5, 83, 125
7, 57204, Note_on_c, 5, 83, 0
7, 57210, Note_on_c, 5, 81, 127
7, 57234, Note_on_c, 5, 81, 0
7, 57240, Note_on_c, 5, 79, 127
7, 57288, Note_on_c, 5, 79, 0
7, 57300, Note_on_c, 5, 81, 127
7, 57324, Note_on_c, 5, 81, 0
7, 57330, Note_on_c, 5, 83, 127
7, 57354, Note_on_c, 5, 83, 0
7, 57360, Note_on_c, 5, 84, 127
7, 57408, Note_on_c, 5, 84, 0
7, 57420, Note_on_c, 5, 83, 127
7, 57444, Note_on_c, 5, 83, 0
7, 57450, Note_on_c, 5, 81, 127
7, 57474, Note_on_c, 5, 81, 0
7, 57480, Note_on_c, 5, 79, 127
7, 57528, Note_on_c, 5, 79, 0
7, 57540, Note_on_c, 5, 81, 127
7, 57564, Note_on_c, 5, 81, 0
7, 57570, Note_on_c, 5, 83, 127
7, 57594, Note_on_c, 5, 83, 0
7, 57600, Note_on_c, 5, 84, 118
7, 57648, Note_on_c, 5, 84, 0
7, 57840, Note_on_c, 5, 69, 127
7, 57888, Note_on_c, 5, 69, 0
7, 57900, Note_on_c, 5, 72, 125
7, 57948, Note_on_c, 5, 72, 0
7, 57960, Note_on_c, 5, 69, 118
7, 58008, Note_on_c, 5, 69, 0
7, 58020, Note_on_c, 5, 72, 127
7, 58068, Note_on_c, 5, 72, 0
7, 58080, Note_on_c, 5, 67, 112
7, 58128, Note_on_c, 5, 67, 0
7, 58140, Note_on_c, 5, 72, 125
7, 58188, Note_on_c, 5, 72, 0
7, 58200, Note_on_c, 5, 67, 114
7, 58248, Note_on_c, 5, 67, 0
7, 58260, Note_on_c, 5, 72, 102
7, 58308, Note_on_c, 5, 72, 0
7, 58320, Note_on_c, 5, 67, 118
7, 58368, Note_on_c, 5, 67, 0
7, 58380, Note_on_c, 5, 71, 125
7, 58428, Note_on_c, 5, 71, 0
7, 58440, Note_on_c, 5, 67, 112
7, 58488, Note_on_c, 5, 67, 0
7, 58500, Note_on_c, 5, 71, 123
7, 58548, Note_on_c, 5, 71, 0
7, 58560, Note_on_c, 5, 67, 121
7, 58608, Note_on_c, 5, 67, 0
7, 58620, Note_on_c, 5, 72, 114
7, 58668, Note_on_c, 5, 72, 0
7, 58680, Note_on_c, 5, 72, 114
7, 58728, Note_on_c, 5, 72, 0
7, 58740, Note_on_c, 5, 72, 113
7, 58788, Note_on_c, 5, 72, 0
7, 58800, Note_on_c, 5, 69, 125
7, 58848, Note_on_c, 5, 69, 0
7, 58860, Note_on_c, 5, 72, 117
7, 58908, Note_on_c, 5, 72, 0
7, 58920, Note_on_c, 5, 69, 121
7, 58968, Note_on_c, 5, 69, 0
7, 58980, Note_on_c, 5, 72, 121
7, 59028, Note_on_c, 5, 72, 0
7, 59040, Note_on_c, 5, 67, 109
7, 59088, Note_on_c, 5, 67, 0
7, 59100, Note_on_c, 5, 72, 127
7, 59148, Note_on_c, 5, 72, 0
7, 59160, Note_on_c, 5, 67, 118
7, 59208, Note_on_c, 5, 67, 0
7, 59220, Note_on_c, 5, 72, 125
7, 59268, Note_on_c, 5, 72, 0
7, 59280, Note_on_c, 5, 67, 123
7, 59328, Note_on_c, 5, 67, 0
7, 59340, Note_on_c, 5, 71, 125
7, 59388, Note_on_c, 5, 71, 0
7, 59400, Note_on_c, 5, 67, 116
7, 59448, Note_on_c, 5, 67, 0
7, 59460, Note_on_c, 5, 71, 111
7, 59508, Note_on_c, 5, 71, 0
7, 59520, Note_on_c, 5, 72, 127
7, 59552, Note_on_c, 5, 72, 0
7, 59560, Note_on_c, 5, 84, 127
7, 59592, Note_on_c, 5, 84, 0
7, 59600, Note_on_c, 5, 84, 123
7, 59632, Note_on_c, 5, 84, 0
7, 59640, Note_on_c, 5, 84, 127
7, 59672, Note_on_c, 5, 84, 0
7, 59680, Note_on_c, 5, 84, 127
7, 59712, Note_on_c, 5, 84, 0
7, 59720, Note_on_c, 5, 84, 127
7, 59752, Note_on_c, 5, 84, 0
7, 59760, Note_on_c, 5, 84, 112
7, 59792, Note_on_c, 5, 84, 0
7, 59800, Note_on_c, 5, 72, 109
7, 59832, Note_on_c, 5, 72, 0
7, 59840, Note_on_c, 5, 84, 100
7, 59872, Note_on_c, 5, 84, 0
7, 59880, Note_on_c, 5, 72, 109
7, 59912, Note_on_c, 5, 72, 0
7, 59920, Note_on_c, 5, 83, 123
7, 59952, Note_on_c, 5, 83, 0
7, 59960, Note_on_c, 5, 81, 118
7, 59992, Note_on_c, 5, 81, 0
7, 60000, Note_on_c, 5, 79, 123
7, 60032, Note_on_c, 5, 79, 0
7, 60040, Note_on_c, 5, 67, 112
7, 60072, Note_on_c, 5, 67, 0
7, 60080, Note_on_c, 5, 79, 110
7, 60112, Note_on_c, 5, 79, 0
7, 60120, Note_on_c, 5, 67, 113
7, 60152, Note_on_c, 5, 67, 0
7, 60160, Note_on_c, 5, 77, 127
7, 60192, Note_on_c, 5, 77, 0
7, 60200, Note_on_c, 5, 76, 112
7, 60232, Note_on_c, 5, 76, 0
7, 60240, Note_on_c, 5, 74, 116
7, 60272, Note_on_c, 5, 74, 0
7, 60280, Note_on_c, 5, 65, 101
7, 60312, Note_on_c, 5, 65, 0
7, 60320, Note_on_c, 5, 74, 125
7, 60352, Note_on_c, 5, 74, 0
7, 60360, Note_on_c, 5, 65, 102
7, 60392, Note_on_c, 5, 65, 0
7, 60400, Note_on_c, 5, 72, 127
7, 60432, Note_on_c, 5, 72, 0
7, 60440, Note_on_c, 5, 74, 127
7, 60472, Note_on_c, 5, 74, 0
7, 60480, Note_on_c, 5, 72, 121
7, 60576, Note_on_c, 5, 72, 0
7, 60660, Note_on_c, 5, 76, 120
7, 60684, Note_on_c, 5, 76, 0
7, 60690, Note_on_c, 5, 74, 127
7, 60714, Note_on_c, 5, 74, 0
7, 60720, Note_on_c, 5, 72, 123
7, 60768, Note_on_c, 5, 72, 0
7, 60780, Note_on_c, 5, 76, 125
7, 60804, Note_on_c, 5, 76, 0
7, 60810, Note_on_c, 5, 74, 114
7, 60834, Note_on_c, 5, 74, 0
7, 60840, Note_on_c, 5, 72, 127
7, 60888, Note_on_c, 5, 72, 0
7, 60900, Note_on_c, 5, 81, 127
7, 60924, Note_on_c, 5, 81, 0
7, 60930, Note_on_c, 5, 78, 103
7, 60954, Note_on_c, 5, 78, 0
7, 60960, Note_on_c, 5, 79, 123
7, 61056, Note_on_c, 5, 79, 0
7, 61140, Note_on_c, 5, 81, 127
7, 61164, Note_on_c, 5, 81, 0
7, 61170, Note_on_c, 5, 79, 127
7, 61194, Note_on_c, 5, 79, 0
7, 61200, Note_on_c, 5, 76, 127
7, 61248, Note_on_c, 5, 76, 0
7, 61260, Note_on_c, 5, 79, 127
7, 61284, Note_on_c, 5, 79, 0
7, 61290, Note_on_c, 5, 77, 127
7, 61314, Note_on_c, 5, 77, 0
7, 61320, Note_on_c, 5, 74, 127
7, 61368, Note_on_c, 5, 74, 0
7, 61380, Note_on_c, 5, 77, 127
7, 61404, Note_on_c, 5, 77, 0
7, 61410, Note_on_c, 5, 76, 127
7, 61434, Note_on_c, 5, 76, 0
7, 61440, Note_on_c, 5, 72, 127
7, 61536, Note_on_c, 5, 72, 0
7, 61620, Note_on_c, 5, 76, 123
7, 61644, Note_on_c, 5, 76, 0
7, 61650, Note_on_c, 5, 74, 127
7, 61674, Note_on_c, 5, 74, 0
7, 61680, Note_on_c, 5, 72, 127
7, 61728, Note_on_c, 5, 72, 0
7, 61740, Note_on_c, 5, 76, 127
7, 61764, Note_on_c, 5, 76, 0
7, 61770, Note_on_c, 5, 74, 127
7, 61794, Note_on_c, 5, 74, 0
7, 61800, Note_on_c, 5, 72, 127
7, 61848, Note_on_c, 5, 72, 0
7, 61860, Note_on_c, 5, 81, 127
7, 61884, Note_on_c, 5, 81, 0
7, 61890, Note_on_c, 5, 78, 127
7, 61914, Note_on_c, 5, 78, 0
7, 61920, Note_on_c, 5, 79, 120
7, 62016, Note_on_c, 5, 79, 0
7, 62100, Note_on_c, 5, 81, 127
7, 62124, Note_on_c, 5, 81, 0
7, 62130, Note_on_c, 5, 79, 127
7, 62154, Note_on_c, 5, 79, 0
7, 62160, Note_on_c, 5, 76, 127
7, 62208, Note_on_c, 5, 76, 0
7, 62220, Note_on_c, 5, 79, 111
7, 62244, Note_on_c, 5, 79, 0
7, 62250, Note_on_c, 5, 77, 127
7, 62274, Note_on_c, 5, 77, 0
7, 62280, Note_on_c, 5, 74, 127
7, 62336, Note_on_c, 5, 74, 0
7, 62340, Note_on_c, 5, 77, 127
7, 62368, Note_on_c, 5, 77, 0
7, 62370, Note_on_c, 5, 76, 127
7, 62398, Note_on_c, 5, 76, 0
7, 62400, Note_on_c, 5, 72, 127
7, 62448, Note_on_c, 5, 72, 0
7, 62460, Note_on_c, 5, 79, 127
7, 62484, Note_on_c, 5, 79, 0
7, 62490, Note_on_c, 5, 76, 127
7, 62514, Note_on_c, 5, 76, 0
7, 62520, Note_on_c, 5, 74, 127
7, 62568, Note_on_c, 5, 74, 0
7, 62580, Note_on_c, 5, 79, 114
7, 62604, Note_on_c, 5, 79, 0
7, 62610, Note_on_c, 5, 77, 127
7, 62634, Note_on_c, 5, 77, 0
7, 62640, Note_on_c, 5, 72, 127
7, 62688, Note_on_c, 5, 72, 0
7, 62700, Note_on_c, 5, 79, 127
7, 62724, Note_on_c, 5, 79, 0
7, 62730, Note_on_c, 5, 76, 127
7, 62754, Note_on_c, 5, 76, 0
7, 62760, Note_on_c, 5, 74, 127
7, 62808, Note_on_c, 5, 74, 0
7, 62820, Note_on_c, 5, 79, 127
7, 62844, Note_on_c, 5, 79, 0
7, 62850, Note_on_c, 5, 77, 123
7, 62874, Note_on_c, 5, 77, 0
7, 62880, Note_on_c, 5, 72, 127
7, 62928, Note_on_c, 5, 72, 0
7, 62940, Note_on_c, 5, 79, 127
7, 62964, Note_on_c, 5, 79, 0
7, 62970, Note_on_c, 5, 76, 127
7, 62994, Note_on_c, 5, 76, 0
7, 63000, Note_on_c, 5, 74, 127
7, 63048, Note_on_c, 5, 74, 0
7, 63060, Note_on_c, 5, 79, 127
7, 63084, Note_on_c, 5, 79, 0
7, 63090, Note_on_c, 5, 77, 127
7, 63114, Note_on_c, 5, 77, 0
7, 63120, Note_on_c, 5, 72, 127
7, 63168, Note_on_c, 5, 72, 0
7, 63180, Note_on_c, 5, 79, 127
7, 63204, Note_on_c, 5, 79, 0
7, 63210, Note_on_c, 5, 76, 127
7, 63234, Note_on_c, 5, 76, 0
7, 63240, Note_on_c, 5, 74, 127
7, 63288, Note_on_c, 5, 74, 0
7, 63300, Note_on_c, 5, 79, 121
7, 63324, Note_on_c, 5, 79, 0
7, 63330, Note_on_c, 5, 77, 127
7, 63354, Note_on_c, 5, 77, 0
7, 63360, Note_on_c, 5, 72, 127
7, 63456, Note_on_c, 5, 72, 0
7, 63480, Note_on_c, 5, 67, 118
7, 63576, Note_on_c, 5, 67, 0
7, 63600, Note_on_c, 5, 72, 123
7, 63696, Note_on_c, 5, 72, 0
7, 63720, Note_on_c, 5, 67, 120
7, 63816, Note_on_c, 5, 67, 0
7, 63840, Note_on_c, 5, 72, 125
7, 63936, Note_on_c, 5, 72, 0
7, 63960, Note_on_c, 5, 67, 120
7, 64056, Note_on_c, 5, 67, 0
7, 64080, Note_on_c, 5, 72, 127
7, 64176, Note_on_c, 5, 72, 0
7, 64200, Note_on_c, 5, 67, 111
7, 64296, Note_on_c, 5, 67, 0
7, 64320, Note_on_c, 5, 72, 118
7, 64368, Note_on_c, 5, 72, 0
7, 65340, Note_on_c, 5, 60, 110
7, 65388, Note_on_c, 5, 60, 0
7, 65400, Note_on_c, 5, 62, 127
7, 65448, Note_on_c, 5, 62, 0
7, 65460, Note_on_c, 5, 65, 127
7, 65508, Note_on_c, 5, 65, 0
7, 65520, Note_on_c, 5, 64, 99
7, 65568, Note_on_c, 5, 64, 0
7, 65580, Note_on_c, 5, 64, 125
7, 65628, Note_on_c, 5, 64, 0
7, 65640, Note_on_c, 5, 65, 123
7, 65688, Note_on_c, 5, 65, 0
7, 65700, Note_on_c, 5, 69, 127
7, 65748, Note_on_c, 5, 69, 0
7, 65760, Note_on_c, 5, 67, 107
7, 65808, Note_on_c, 5, 67, 0
7, 65820, Note_on_c, 5, 67, 118
7, 65868, Note_on_c, 5, 67, 0
7, 65880, Note_on_c, 5, 69, 127
7, 65928, Note_on_c, 5, 69, 0
7, 65940, Note_on_c, 5, 72, 127
7, 65988, Note_on_c, 5, 72, 0
7, 66000, Note_on_c, 5, 70, 115
7, 66048, Note_on_c, 5, 70, 0
7, 66060, Note_on_c, 5, 69, 117
7, 66108, Note_on_c, 5, 69, 0
7, 66120, Note_on_c, 5, 70, 127
7, 66168, Note_on_c, 5, 70, 0
7, 66180, Note_on_c, 5, 74, 104
7, 66228, Note_on_c, 5, 74, 0
7, 66300, Note_on_c, 5, 69, 99
7, 66348, Note_on_c, 5, 69, 0
7, 66360, Note_on_c, 5, 70, 83
7, 66408, Note_on_c, 5, 70, 0
7, 66420, Note_on_c, 5, 74, 107
7, 66468, Note_on_c, 5, 74, 0
7, 66480, Note_on_c, 5, 72, 101
7, 66528, Note_on_c, 5, 72, 0
7, 66540, Note_on_c, 5, 70, 95
7, 66564, Note_on_c, 5, 70, 0
7, 66570, Note_on_c, 5, 69, 107
7, 66594, Note_on_c, 5, 69, 0
7, 66600, Note_on_c, 5, 67, 127
7, 66648, Note_on_c, 5, 67, 0
7, 66660, Note_on_c, 5, 60, 111
7, 66708, Note_on_c, 5, 60, 0
7, 66780, Note_on_c, 5, 69, 99
7, 66828, Note_on_c, 5, 69, 0
7, 66840, Note_on_c, 5, 70, 77
7, 66888, Note_on_c, 5, 70, 0
7, 66900, Note_on_c, 5, 74, 127
7, 66948, Note_on_c, 5, 74, 0
7, 66960, Note_on_c, 5, 72, 103
7, 67008, Note_on_c, 5, 72, 0
7, 67020, Note_on_c, 5, 70, 103
7, 67044, Note_on_c, 5, 70, 0
7, 67050, Note_on_c, 5, 69, 105
7, 67074, Note_on_c, 5, 69, 0
7, 67080, Note_on_c, 5, 67, 117
7, 67128, Note_on_c, 5, 67, 0
7, 67140, Note_on_c, 5, 60, 112
7, 67188, Note_on_c, 5, 60, 0
7, 67200, Note_on_c, 5, 65, 102
7, 67248, Note_on_c, 5, 65, 0
7, 67260, Note_on_c, 5, 65, 109
7, 67308, Note_on_c, 5, 65, 0
7, 67320, Note_on_c, 5, 67, 108
7, 67368, Note_on_c, 5, 67, 0
7, 67380, Note_on_c, 5, 70, 115
7, 67428, Note_on_c, 5, 70, 0
7, 67440, Note_on_c, 5, 69, 107
7, 67488, Note_on_c, 5, 69, 0
7, 67500, Note_on_c, 5, 69, 120
7, 67548, Note_on_c, 5, 69, 0
7, 67560, Note_on_c, 5, 70, 78
7, 67608, Note_on_c, 5, 70, 0
7, 67620, Note_on_c, 5, 74, 99
7, 67668, Note_on_c, 5, 74, 0
7, 67680, Note_on_c, 5, 72, 113
7, 67728, Note_on_c, 5, 72, 0
7, 67740, Note_on_c, 5, 72, 101
7, 67788, Note_on_c, 5, 72, 0
7, 67800, Note_on_c, 5, 74, 104
7, 67848, Note_on_c, 5, 74, 0
7, 67860, Note_on_c, 5, 77, 127
7, 67908, Note_on_c, 5, 77, 0
7, 67920, Note_on_c, 5, 75, 91
7, 67968, Note_on_c, 5, 75, 0
7, 67980, Note_on_c, 5, 74, 116
7, 68028, Note_on_c, 5, 74, 0
7, 68040, Note_on_c, 5, 75, 105
7, 68088, Note_on_c, 5, 75, 0
7, 68100, Note_on_c, 5, 79, 125
7, 68148, Note_on_c, 5, 79, 0
7, 68580, Note_on_c, 5, 65, 101
7, 68628, Note_on_c, 5, 65, 0
7, 69060, Note_on_c, 5, 65, 105
7, 69108, Note_on_c, 5, 65, 0
7, 69120, Note_on_c, 5, 70, 99
7, 69168, Note_on_c, 5, 70, 0
7, 69180, Note_on_c, 5, 65, 127
7, 69204, Note_on_c, 5, 65, 0
7, 69210, Note_on_c, 5, 63, 121
7, 69234, Note_on_c, 5, 63, 0
7, 69240, Note_on_c, 5, 62, 127
7, 69288, Note_on_c, 5, 62, 0
7, 69300, Note_on_c, 5, 58, 111
7, 69348, Note_on_c, 5, 58, 0
7, 69360, Note_on_c, 5, 70, 109
7, 69408, Note_on_c, 5, 70, 0
7, 69420, Note_on_c, 5, 65, 107
7, 69444, Note_on_c, 5, 65, 0
7, 69450, Note_on_c, 5, 63, 91
7, 69474, Note_on_c, 5, 63, 0
7, 69480, Note_on_c, 5, 62, 111
7, 69528, Note_on_c, 5, 62, 0
7, 69540, Note_on_c, 5, 58, 86
7, 69588, Note_on_c, 5, 58, 0
7, 69600, Note_on_c, 5, 70, 109
7, 69648, Note_on_c, 5, 70, 0
7, 69660, Note_on_c, 5, 65, 111
7, 69684, Note_on_c, 5, 65, 0
7, 69690, Note_on_c, 5, 63, 107
7, 69714, Note_on_c, 5, 63, 0
7, 69720, Note_on_c, 5, 62, 116
7, 69768, Note_on_c, 5, 62, 0
7, 69780, Note_on_c, 5, 58, 90
7, 69828, Note_on_c, 5, 58, 0
7, 69840, Note_on_c, 5, 70, 107
7, 69888, Note_on_c, 5, 70, 0
7, 69900, Note_on_c, 5, 65, 121
7, 69924, Note_on_c, 5, 65, 0
7, 69930, Note_on_c, 5, 63, 109
7, 69954, Note_on_c, 5, 63, 0
7, 69960, Note_on_c, 5, 62, 125
7, 70008, Note_on_c, 5, 62, 0
7, 70020, Note_on_c, 5, 58, 107
7, 70068, Note_on_c, 5, 58, 0
7, 70080, Note_on_c, 5, 74, 102
7, 70800, Note_on_c, 5, 74, 99
7, 70992, Note_on_c, 5, 74, 0
7, 71040, Note_on_c, 5, 74, 0
7, 71040, Note_on_c, 5, 74, 127
7, 71088, Note_on_c, 5, 74, 0
7, 71100, Note_on_c, 5, 72, 112
7, 71124, Note_on_c, 5, 72, 0
7, 71130, Note_on_c, 5, 70, 94
7, 71154, Note_on_c, 5, 70, 0
7, 71160, Note_on_c, 5, 65, 123
7, 71208, Note_on_c, 5, 65, 0
7, 71220, Note_on_c, 5, 62, 120
7, 71268, Note_on_c, 5, 62, 0
7, 71280, Note_on_c, 5, 74, 127
7, 71328, Note_on_c, 5, 74, 0
7, 71340, Note_on_c, 5, 72, 112
7, 71364, Note_on_c, 5, 72, 0
7, 71370, Note_on_c, 5, 70, 94
7, 71394, Note_on_c, 5, 70, 0
7, 71400, Note_on_c, 5, 65, 123
7, 71448, Note_on_c, 5, 65, 0
7, 71460, Note_on_c, 5, 62, 120
7, 71508, Note_on_c, 5, 62, 0
7, 71520, Note_on_c, 5, 74, 127
7, 71568, Note_on_c, 5, 74, 0
7, 71580, Note_on_c, 5, 72, 112
7, 71604, Note_on_c, 5, 72, 0
7, 71610, Note_on_c, 5, 70, 94
7, 71634, Note_on_c, 5, 70, 0
7, 71640, Note_on_c, 5, 65, 123
7, 71688, Note_on_c, 5, 65, 0
7, 71700, Note_on_c, 5, 62, 120
7, 71748, Note_on_c, 5, 62, 0
7, 71760, Note_on_c, 5, 74, 127
7, 71808, Note_on_c, 5, 74, 0
7, 71820, Note_on_c, 5, 72, 112
7, 71844, Note_on_c, 5, 72, 0
7, 71850, Note_on_c, 5, 70, 94
7, 71874, Note_on_c, 5, 70, 0
7, 71880, Note_on_c, 5, 65, 123
7, 71928, Note_on_c, 5, 65, 0
7, 71940, Note_on_c, 5, 62, 120
7, 71988, Note_on_c, 5, 62, 0
7, 72000, Note_on_c, 5, 78, 109
7, 72912, Note_on_c, 5, 78, 0
7, 72960, Note_on_c, 5, 78, 126
7, 73008, Note_on_c, 5, 78, 0
7, 73020, Note_on_c, 5, 76, 99
7, 73044, Note_on_c, 5, 76, 0
7, 73050, Note_on_c, 5, 74, 99
7, 73074, Note_on_c, 5, 74, 0
7, 73080, Note_on_c, 5, 69, 127
7, 73128, Note_on_c, 5, 69, 0
7, 73140, Note_on_c, 5, 66, 113
7, 73188, Note_on_c, 5, 66, 0
7, 73200, Note_on_c, 5, 78, 126
7, 73248, Note_on_c, 5, 78, 0
7, 73260, Note_on_c, 5, 76, 99
7, 73284, Note_on_c, 5, 76, 0
7, 73290, Note_on_c, 5, 74, 99
7, 73314, Note_on_c, 5, 74, 0
7, 73320, Note_on_c, 5, 69, 127
7, 73368, Note_on_c, 5, 69, 0
7, 73380, Note_on_c, 5, 66, 113
7, 73428, Note_on_c, 5, 66, 0
7, 73440, Note_on_c, 5, 78, 126
7, 73488, Note_on_c, 5, 78, 0
7, 73500, Note_on_c, 5, 76, 99
7, 73524, Note_on_c, 5, 76, 0
7, 73530, Note_on_c, 5, 74, 99
7, 73554, Note_on_c, 5, 74, 0
7, 73560, Note_on_c, 5, 69, 127
7, 73608, Note_on_c, 5, 69, 0
7, 73620, Note_on_c, 5, 66, 113
7, 73668, Note_on_c, 5, 66, 0
7, 73680, Note_on_c, 5, 78, 126
7, 73728, Note_on_c, 5, 78, 0
7, 73740, Note_on_c, 5, 76, 99
7, 73764, Note_on_c, 5, 76, 0
7, 73770, Note_on_c, 5, 74, 99
7, 73794, Note_on_c, 5, 74, 0
7, 73800, Note_on_c, 5, 69, 127
7, 73848, Note_on_c, 5, 69, 0
7, 73860, Note_on_c, 5, 66, 113
7, 73908, Note_on_c, 5, 66, 0
7, 73920, Note_on_c, 5, 81, 121
7, 74832, Note_on_c, 5, 81, 0
7, 75840, Note_on_c, 5, 81, 123
7, 75888, Note_on_c, 5, 81, 0
7, 76080, Note_on_c, 5, 74, 103
7, 76128, Note_on_c, 5, 74, 0
7, 76140, Note_on_c, 5, 69, 127
7, 76164, Note_on_c, 5, 69, 0
7, 76170, Note_on_c, 5, 67, 118
7, 76194, Note_on_c, 5, 67, 0
7, 76200, Note_on_c, 5, 66, 115
7, 76248, Note_on_c, 5, 66, 0
7, 76260, Note_on_c, 5, 62, 127
7, 76308, Note_on_c, 5, 62, 0
7, 76560, Note_on_c, 5, 78, 123
7, 76608, Note_on_c, 5, 78, 0
7, 76620, Note_on_c, 5, 76, 121
7, 76644, Note_on_c, 5, 76, 0
7, 76650, Note_on_c, 5, 74, 117
7, 76674, Note_on_c, 5, 74, 0
7, 76680, Note_on_c, 5, 69, 118
7, 76728, Note_on_c, 5, 69, 0
7, 76740, Note_on_c, 5, 66, 109
7, 76788, Note_on_c, 5, 66, 0
7, 77040, Note_on_c, 5, 81, 127
7, 77088, Note_on_c, 5, 81, 0
7, 77100, Note_on_c, 5, 79, 112
7, 77124, Note_on_c, 5, 79, 0
7, 77130, Note_on_c, 5, 78, 101
7, 77154, Note_on_c, 5, 78, 0
7, 77160, Note_on_c, 5, 74, 127
7, 77208, Note_on_c, 5, 74, 0
7, 77220, Note_on_c, 5, 69, 127
7, 77268, Note_on_c, 5, 69, 0
7, 77280, Note_on_c, 5, 81, 123
7, 77328, Note_on_c, 5, 81, 0
7, 77340, Note_on_c, 5, 79, 104
7, 77364, Note_on_c, 5, 79, 0
7, 77370, Note_on_c, 5, 78, 78
7, 77394, Note_on_c, 5, 78, 0
7, 77400, Note_on_c, 5, 74, 127
7, 77448, Note_on_c, 5, 74, 0
7, 77460, Note_on_c, 5, 69, 123
7, 77508, Note_on_c, 5, 69, 0
7, 77520, Note_on_c, 5, 81, 127
7, 77568, Note_on_c, 5, 81, 0
7, 77580, Note_on_c, 5, 79, 120
7, 77604, Note_on_c, 5, 79, 0
7, 77610, Note_on_c, 5, 78, 109
7, 77634, Note_on_c, 5, 78, 0
7, 77640, Note_on_c, 5, 74, 127
7, 77688, Note_on_c, 5, 74, 0
7, 77700, Note_on_c, 5, 69, 120
7, 77748, Note_on_c, 5, 69, 0
7, 77880, Note_on_c, 5, 74, 105
7, 77928, Note_on_c, 5, 74, 0
7, 77940, Note_on_c, 5, 69, 118
7, 77988, Note_on_c, 5, 69, 0
7, 78120, Note_on_c, 5, 74, 118
7, 78168, Note_on_c, 5, 74, 0
7, 78180, Note_on_c, 5, 69, 127
7, 78228, Note_on_c, 5, 69, 0
7, 78240, Note_on_c, 5, 74, 121
7, 78288, Note_on_c, 5, 74, 0
7, 78300, Note_on_c, 5, 69, 121
7, 78348, Note_on_c, 5, 69, 0
7, 78360, Note_on_c, 5, 74, 123
7, 78408, Note_on_c, 5, 74, 0
7, 78420, Note_on_c, 5, 69, 125
7, 78468, Note_on_c, 5, 69, 0
7, 78480, Note_on_c, 5, 74, 121
7, 78528, Note_on_c, 5, 74, 0
7, 78540, Note_on_c, 5, 69, 118
7, 78588, Note_on_c, 5, 69, 0
7, 78600, Note_on_c, 5, 74, 116
7, 78648, Note_on_c, 5, 74, 0
7, 78660, Note_on_c, 5, 69, 125
7, 78708, Note_on_c, 5, 69, 0
7, 78780, Note_on_c, 5, 71, 104
7, 78828, Note_on_c, 5, 71, 0
7, 78840, Note_on_c, 5, 72, 127
7, 78888, Note_on_c, 5, 72, 0
7, 78900, Note_on_c, 5, 76, 127
7, 78948, Note_on_c, 5, 76, 0
7, 78960, Note_on_c, 5, 74, 121
7, 79008, Note_on_c, 5, 74, 0
7, 79020, Note_on_c, 5, 72, 127
7, 79044, Note_on_c, 5, 72, 0
7, 79050, Note_on_c, 5, 71, 125
7, 79074, Note_on_c, 5, 71, 0
7, 79080, Note_on_c, 5, 69, 127
7, 79128, Note_on_c, 5, 69, 0
7, 79140, Note_on_c, 5, 62, 107
7, 79188, Note_on_c, 5, 62, 0
7, 79200, Note_on_c, 5, 67, 116
7, 79248, Note_on_c, 5, 67, 0
7, 79260, Note_on_c, 5, 69, 127
7, 79308, Note_on_c, 5, 69, 0
7, 79320, Note_on_c, 5, 71, 50
7, 79368, Note_on_c, 5, 71, 0
7, 79380, Note_on_c, 5, 72, 112
7, 79404, Note_on_c, 5, 72, 0
7, 79410, Note_on_c, 5, 71, 103
7, 79434, Note_on_c, 5, 71, 0
7, 79440, Note_on_c, 5, 69, 108
7, 79632, Note_on_c, 5, 69, 0
7, 79680, Note_on_c, 5, 71, 109
7, 79728, Note_on_c, 5, 71, 0
7, 79740, Note_on_c, 5, 69, 107
7, 79788, Note_on_c, 5, 69, 0
7, 79800, Note_on_c, 5, 67, 110
7, 79848, Note_on_c, 5, 67, 0
7, 79860, Note_on_c, 5, 66, 113
7, 79884, Note_on_c, 5, 66, 0
7, 79890, Note_on_c, 5, 67, 127
7, 79914, Note_on_c, 5, 67, 0
7, 79920, Note_on_c, 5, 72, 125
7, 79968, Note_on_c, 5, 72, 0
7, 79980, Note_on_c, 5, 71, 116
7, 80028, Note_on_c, 5, 71, 0
7, 80040, Note_on_c, 5, 69, 120
7, 80088, Note_on_c, 5, 69, 0
7, 80100, Note_on_c, 5, 67, 110
7, 80124, Note_on_c, 5, 67, 0
7, 80130, Note_on_c, 5, 69, 102
7, 80154, Note_on_c, 5, 69, 0
7, 80160, Note_on_c, 5, 71, 120
7, 80208, Note_on_c, 5, 71, 0
7, 80220, Note_on_c, 5, 69, 121
7, 80244, Note_on_c, 5, 69, 0
7, 80250, Note_on_c, 5, 67, 114
7, 80274, Note_on_c, 5, 67, 0
7, 80280, Note_on_c, 5, 62, 118
7, 80328, Note_on_c, 5, 62, 0
7, 80340, Note_on_c, 5, 59, 121
7, 80388, Note_on_c, 5, 59, 0
7, 80400, Note_on_c, 5, 71, 127
7, 80448, Note_on_c, 5, 71, 0
7, 80460, Note_on_c, 5, 69, 127
7, 80484, Note_on_c, 5, 69, 0
7, 80490, Note_on_c, 5, 67, 120
7, 80514, Note_on_c, 5, 67, 0
7, 80520, Note_on_c, 5, 62, 118
7, 80568, Note_on_c, 5, 62, 0
7, 80580, Note_on_c, 5, 59, 100
7, 80628, Note_on_c, 5, 59, 0
7, 80640, Note_on_c, 5, 71, 127
7, 80688, Note_on_c, 5, 71, 0
7, 80700, Note_on_c, 5, 69, 117
7, 80724, Note_on_c, 5, 69, 0
7, 80730, Note_on_c, 5, 67, 111
7, 80754, Note_on_c, 5, 67, 0
7, 80760, Note_on_c, 5, 62, 127
7, 80808, Note_on_c, 5, 62, 0
7, 80820, Note_on_c, 5, 59, 108
7, 80868, Note_on_c, 5, 59, 0
7, 80880, Note_on_c, 5, 71, 127
7, 80928, Note_on_c, 5, 71, 0
7, 80940, Note_on_c, 5, 69, 99
7, 80964, Note_on_c, 5, 69, 0
7, 80970, Note_on_c, 5, 67, 107
7, 80994, Note_on_c, 5, 67, 0
7, 81000, Note_on_c, 5, 62, 120
7, 81048, Note_on_c, 5, 62, 0
7, 81060, Note_on_c, 5, 59, 102
7, 81108, Note_on_c, 5, 59, 0
7, 81120, Note_on_c, 5, 74, 107
7, 81360, Note_on_c, 5, 74, 107
7, 81840, Note_on_c, 5, 74, 0
7, 82032, Note_on_c, 5, 74, 0
7, 82080, Note_on_c, 5, 74, 127
7, 82128, Note_on_c, 5, 74, 0
7, 82140, Note_on_c, 5, 72, 96
7, 82164, Note_on_c, 5, 72, 0
7, 82170, Note_on_c, 5, 71, 100
7, 82194, Note_on_c, 5, 71, 0
7, 82200, Note_on_c, 5, 67, 118
7, 82248, Note_on_c, 5, 67, 0
7, 82260, Note_on_c, 5, 62, 101
7, 82308, Note_on_c, 5, 62, 0
7, 82320, Note_on_c, 5, 74, 127
7, 82368, Note_on_c, 5, 74, 0
7, 82380, Note_on_c, 5, 72, 96
7, 82404, Note_on_c, 5, 72, 0
7, 82410, Note_on_c, 5, 71, 100
7, 82434, Note_on_c, 5, 71, 0
7, 82440, Note_on_c, 5, 67, 118
7, 82488, Note_on_c, 5, 67, 0
7, 82500, Note_on_c, 5, 62, 101
7, 82548, Note_on_c, 5, 62, 0
7, 82560, Note_on_c, 5, 74, 127
7, 82608, Note_on_c, 5, 74, 0
7, 82620, Note_on_c, 5, 72, 96
7, 82644, Note_on_c, 5, 72, 0
7, 82650, Note_on_c, 5, 71, 100
7, 82674, Note_on_c, 5, 71, 0
7, 82680, Note_on_c, 5, 67, 118
7, 82728, Note_on_c, 5, 67, 0
7, 82740, Note_on_c, 5, 62, 101
7, 82788, Note_on_c, 5, 62, 0
7, 82800, Note_on_c, 5, 74, 127
7, 82848, Note_on_c, 5, 74, 0
7, 82860, Note_on_c, 5, 72, 96
7, 82884, Note_on_c, 5, 72, 0
7, 82890, Note_on_c, 5, 71, 100
7, 82914, Note_on_c, 5, 71, 0
7, 82920, Note_on_c, 5, 67, 118
7, 82968, Note_on_c, 5, 67, 0
7, 82980, Note_on_c, 5, 62, 101
7, 83028, Note_on_c, 5, 62, 0
7, 83040, Note_on_c, 5, 76, 103
7, 83952, Note_on_c, 5, 76, 0
7, 84000, Note_on_c, 5, 80, 121
7, 84048, Note_on_c, 5, 80, 0
7, 84060, Note_on_c, 5, 78, 76
7, 84084, Note_on_c, 5, 78, 0
7, 84090, Note_on_c, 5, 76, 99
7, 84114, Note_on_c, 5, 76, 0
7, 84120, Note_on_c, 5, 71, 127
7, 84168, Note_on_c, 5, 71, 0
7, 84180, Note_on_c, 5, 68, 109
7, 84228, Note_on_c, 5, 68, 0
7, 84240, Note_on_c, 5, 80, 121
7, 84288, Note_on_c, 5, 80, 0
7, 84300, Note_on_c, 5, 78, 76
7, 84324, Note_on_c, 5, 78, 0
7, 84330, Note_on_c, 5, 76, 99
7, 84354, Note_on_c, 5, 76, 0
7, 84360, Note_on_c, 5, 71, 127
7, 84408, Note_on_c, 5, 71, 0
7, 84420, Note_on_c, 5, 68, 109
7, 84468, Note_on_c, 5, 68, 0
7, 84480, Note_on_c, 5, 80, 121
7, 84528, Note_on_c, 5, 80, 0
7, 84540, Note_on_c, 5, 78, 76
7, 84564, Note_on_c, 5, 78, 0
7, 84570, Note_on_c, 5, 76, 99
7, 84594, Note_on_c, 5, 76, 0
7, 84600, Note_on_c, 5, 71, 127
7, 84648, Note_on_c, 5, 71, 0
7, 84660, Note_on_c, 5, 68, 109
7, 84708, Note_on_c, 5, 68, 0
7, 84720, Note_on_c, 5, 80, 121
7, 84768, Note_on_c, 5, 80, 0
7, 84780, Note_on_c, 5, 78, 76
7, 84804, Note_on_c, 5, 78, 0
7, 84810, Note_on_c, 5, 76, 99
7, 84834, Note_on_c, 5, 76, 0
7, 84840, Note_on_c, 5, 71, 127
7, 84888, Note_on_c, 5, 71, 0
7, 84900, Note_on_c, 5, 68, 109
7, 84948, Note_on_c, 5, 68, 0
7, 84960, Note_on_c, 5, 83, 118
7, 85872, Note_on_c, 5, 83, 0
7, 86880, Note_on_c, 5, 83, 123
7, 86936, Note_on_c, 5, 83, 0
7, 87120, Note_on_c, 5, 76, 103
7, 87168, Note_on_c, 5, 76, 0
7, 87180, Note_on_c, 5, 71, 127
7, 87204, Note_on_c, 5, 71, 0
7, 87210, Note_on_c, 5, 69, 118
7, 87234, Note_on_c, 5, 69, 0
7, 87240, Note_on_c, 5, 68, 115
7, 87288, Note_on_c, 5, 68, 0
7, 87300, Note_on_c, 5, 64, 127
7, 87348, Note_on_c, 5, 64, 0
7, 87600, Note_on_c, 5, 80, 123
7, 87648, Note_on_c, 5, 80, 0
7, 87660, Note_on_c, 5, 78, 121
7, 87684, Note_on_c, 5, 78, 0
7, 87690, Note_on_c, 5, 76, 117
7, 87714, Note_on_c, 5, 76, 0
7, 87720, Note_on_c, 5, 71, 118
7, 87768, Note_on_c, 5, 71, 0
7, 87780, Note_on_c, 5, 68, 109
7, 87828, Note_on_c, 5, 68, 0
7, 88080, Note_on_c, 5, 83, 127
7, 88128, Note_on_c, 5, 83, 0
7, 88140, Note_on_c, 5, 81, 112
7, 88164, Note_on_c, 5, 81, 0
7, 88170, Note_on_c, 5, 80, 101
7, 88194, Note_on_c, 5, 80, 0
7, 88200, Note_on_c, 5, 76, 127
7, 88248, Note_on_c, 5, 76, 0
7, 88260, Note_on_c, 5, 71, 127
7, 88308, Note_on_c, 5, 71, 0
7, 88320, Note_on_c, 5, 83, 123
7, 88368, Note_on_c, 5, 83, 0
7, 88380, Note_on_c, 5, 81, 104
7, 88404, Note_on_c, 5, 81, 0
7, 88410, Note_on_c, 5, 80, 78
7, 88434, Note_on_c, 5, 80, 0
7, 88440, Note_on_c, 5, 76, 127
7, 88488, Note_on_c, 5, 76, 0
7, 88500, Note_on_c, 5, 71, 123
7, 88548, Note_on_c, 5, 71, 0
7, 88560, Note_on_c, 5, 83, 127
7, 88608, Note_on_c, 5, 83, 0
7, 88620, Note_on_c, 5, 81, 120
7, 88644, Note_on_c, 5, 81, 0
7, 88650, Note_on_c, 5, 80, 109
7, 88674, Note_on_c, 5, 80, 0
7, 88680, Note_on_c, 5, 76, 127
7, 88728, Note_on_c, 5, 76, 0
7, 88740, Note_on_c, 5, 71, 120
7, 88788, Note_on_c, 5, 71, 0
7, 88920, Note_on_c, 5, 76, 105
7, 88968, Note_on_c, 5, 76, 0
7, 88980, Note_on_c, 5, 71, 118
7, 89028, Note_on_c, 5, 71, 0
7, 89160, Note_on_c, 5, 76, 118
7, 89208, Note_on_c, 5, 76, 0
7, 89220, Note_on_c, 5, 71, 127
7, 89268, Note_on_c, 5, 71, 0
7, 89280, Note_on_c, 5, 76, 121
7, 89328, Note_on_c, 5, 76, 0
7, 89340, Note_on_c, 5, 71, 121
7, 89388, Note_on_c, 5, 71, 0
7, 89400, Note_on_c, 5, 76, 123
7, 89448, Note_on_c, 5, 76, 0
7, 89460, Note_on_c, 5, 71, 125
7, 89508, Note_on_c, 5, 71, 0
7, 89520, Note_on_c, 5, 76, 121
7, 89568, Note_on_c, 5, 76, 0
7, 89580, Note_on_c, 5, 71, 118
7, 89628, Note_on_c, 5, 71, 0
7, 89640, Note_on_c, 5, 76, 116
7, 89688, Note_on_c, 5, 76, 0
7, 89700, Note_on_c, 5, 71, 125
7, 89748, Note_on_c, 5, 71, 0
7, 89820, Note_on_c, 5, 73, 104
7, 89868, Note_on_c, 5, 73, 0
7, 89880, Note_on_c, 5, 74, 127
7, 89928, Note_on_c, 5, 74, 0
7, 89940, Note_on_c, 5, 78, 127
7, 89988, Note_on_c, 5, 78, 0
7, 90000, Note_on_c, 5, 76, 121
7, 90048, Note_on_c, 5, 76, 0
7, 90060, Note_on_c, 5, 74, 127
7, 90084, Note_on_c, 5, 74, 0
7, 90090, Note_on_c, 5, 73, 125
7, 90114, Note_on_c, 5, 73, 0
7, 90120, Note_on_c, 5, 71, 127
7, 90168, Note_on_c, 5, 71, 0
7, 90180, Note_on_c, 5, 64, 107
7, 90228, Note_on_c, 5, 64, 0
7, 90240, Note_on_c, 5, 69, 116
7, 90288, Note_on_c, 5, 69, 0
7, 90300, Note_on_c, 5, 71, 127
7, 90348, Note_on_c, 5, 71, 0
7, 90360, Note_on_c, 5, 73, 50
7, 90408, Note_on_c, 5, 73, 0
7, 90420, Note_on_c, 5, 74, 112
7, 90444, Note_on_c, 5, 74, 0
7, 90450, Note_on_c, 5, 73, 103
7, 90474, Note_on_c, 5, 73, 0
7, 90480, Note_on_c, 5, 71, 108
7, 90672, Note_on_c, 5, 71, 0
7, 90720, Note_on_c, 5, 73, 109
7, 90768, Note_on_c, 5, 73, 0
7, 90780, Note_on_c, 5, 71, 107
7, 90828, Note_on_c, 5, 71, 0
7, 90840, Note_on_c, 5, 69, 110
7, 90888, Note_on_c, 5, 69, 0
7, 90900, Note_on_c, 5, 68, 113
7, 90924, Note_on_c, 5, 68, 0
7, 90930, Note_on_c, 5, 69, 127
7, 90954, Note_on_c, 5, 69, 0
7, 90960, Note_on_c, 5, 74, 125
7, 91008, Note_on_c, 5, 74, 0
7, 91020, Note_on_c, 5, 73, 116
7, 91068, Note_on_c, 5, 73, 0
7, 91080, Note_on_c, 5, 71, 120
7, 91128, Note_on_c, 5, 71, 0
7, 91140, Note_on_c, 5, 69, 110
7, 91164, Note_on_c, 5, 69, 0
7, 91170, Note_on_c, 5, 71, 102
7, 91194, Note_on_c, 5, 71, 0
7, 91200, Note_on_c, 5, 73, 120
7, 91248, Note_on_c, 5, 73, 0
7, 92160, Note_on_c, 5, 57, 107
7, 92184, Note_on_c, 5, 57, 0
7, 92190, Note_on_c, 5, 61, 101
7, 92214, Note_on_c, 5, 61, 0
7, 92220, Note_on_c, 5, 69, 112
7, 92244, Note_on_c, 5, 69, 0
7, 92250, Note_on_c, 5, 69, 104
7, 92274, Note_on_c, 5, 69, 0
7, 92280, Note_on_c, 5, 61, 99
7, 92304, Note_on_c, 5, 61, 0
7, 92310, Note_on_c, 5, 64, 127
7, 92334, Note_on_c, 5, 64, 0
7, 92340, Note_on_c, 5, 69, 110
7, 92364, Note_on_c, 5, 69, 0
7, 92370, Note_on_c, 5, 69, 105
7, 92394, Note_on_c, 5, 69, 0
7, 92400, Note_on_c, 5, 59, 104
7, 92424, Note_on_c, 5, 59, 0
7, 92430, Note_on_c, 5, 62, 125
7, 92454, Note_on_c, 5, 62, 0
7, 92460, Note_on_c, 5, 69, 111
7, 92484, Note_on_c, 5, 69, 0
7, 92490, Note_on_c, 5, 69, 123
7, 92514, Note_on_c, 5, 69, 0
7, 92520, Note_on_c, 5, 62, 125
7, 92544, Note_on_c, 5, 62, 0
7, 92550, Note_on_c, 5, 69, 107
7, 92574, Note_on_c, 5, 69, 0
7, 92580, Note_on_c, 5, 61, 87
7, 92604, Note_on_c, 5, 61, 0
7, 92610, Note_on_c, 5, 69, 125
7, 92634, Note_on_c, 5, 69, 0
7, 92640, Note_on_c, 5, 57, 110
7, 92664, Note_on_c, 5, 57, 0
7, 92670, Note_on_c, 5, 66, 94
7, 92694, Note_on_c, 5, 66, 0
7, 92700, Note_on_c, 5, 69, 127
7, 92724, Note_on_c, 5, 69, 0
7, 92730, Note_on_c, 5, 69, 111
7, 92754, Note_on_c, 5, 69, 0
7, 92760, Note_on_c, 5, 57, 108
7, 92784, Note_on_c, 5, 57, 0
7, 92790, Note_on_c, 5, 64, 100
7, 92814, Note_on_c, 5, 64, 0
7, 92820, Note_on_c, 5, 69, 114
7, 92844, Note_on_c, 5, 69, 0
7, 92850, Note_on_c, 5, 69, 123
7, 92874, Note_on_c, 5, 69, 0
7, 92880, Note_on_c, 5, 62, 120
7, 92904, Note_on_c, 5, 62, 0
7, 92910, Note_on_c, 5, 69, 106
7, 92934, Note_on_c, 5, 69, 0
7, 92940, Note_on_c, 5, 57, 100
7, 92964, Note_on_c, 5, 57, 0
7, 92970, Note_on_c, 5, 69, 100
7, 92994, Note_on_c, 5, 69, 0
7, 93000, Note_on_c, 5, 57, 104
7, 93024, Note_on_c, 5, 57, 0
7, 93030, Note_on_c, 5, 69, 114
7, 93054, Note_on_c, 5, 69, 0
7, 93060, Note_on_c, 5, 57, 112
7, 93084, Note_on_c, 5, 57, 0
7, 93090, Note_on_c, 5, 69, 111
7, 93114, Note_on_c, 5, 69, 0
7, 93120, Note_on_c, 5, 57, 112
7, 93144, Note_on_c, 5, 57, 0
7, 93150, Note_on_c, 5, 64, 116
7, 93174, Note_on_c, 5, 64, 0
7, 93180, Note_on_c, 5, 69, 123
7, 93204, Note_on_c, 5, 69, 0
7, 93210, Note_on_c, 5, 69, 125
7, 93234, Note_on_c, 5, 69, 0
7, 93240, Note_on_c, 5, 57, 102
7, 93264, Note_on_c, 5, 57, 0
7, 93270, Note_on_c, 5, 67, 117
7, 93294, Note_on_c, 5, 67, 0
7, 93300, Note_on_c, 5, 69, 111
7, 93324, Note_on_c, 5, 69, 0
7, 93330, Note_on_c, 5, 69, 103
7, 93354, Note_on_c, 5, 69, 0
7, 93360, Note_on_c, 5, 57, 109
7, 93384, Note_on_c, 5, 57, 0
7, 93390, Note_on_c, 5, 66, 77
7, 93414, Note_on_c, 5, 66, 0
7, 93420, Note_on_c, 5, 69, 117
7, 93444, Note_on_c, 5, 69, 0
7, 93450, Note_on_c, 5, 69, 112
7, 93474, Note_on_c, 5, 69, 0
7, 93480, Note_on_c, 5, 57, 103
7, 93504, Note_on_c, 5, 57, 0
7, 93510, Note_on_c, 5, 69, 102
7, 93534, Note_on_c, 5, 69, 0
7, 93540, Note_on_c, 5, 57, 110
7, 93564, Note_on_c, 5, 57, 0
7, 93570, Note_on_c, 5, 69, 99
7, 93594, Note_on_c, 5, 69, 0
7, 93600, Note_on_c, 5, 57, 108
7, 93624, Note_on_c, 5, 57, 0
7, 93630, Note_on_c, 5, 66, 80
7, 93654, Note_on_c, 5, 66, 0
7, 93660, Note_on_c, 5, 69, 111
7, 93684, Note_on_c, 5, 69, 0
7, 93690, Note_on_c, 5, 69, 112
7, 93714, Note_on_c, 5, 69, 0
7, 93720, Note_on_c, 5, 57, 104
7, 93744, Note_on_c, 5, 57, 0
7, 93750, Note_on_c, 5, 67, 118
7, 93774, Note_on_c, 5, 67, 0
7, 93780, Note_on_c, 5, 69, 120
7, 93804, Note_on_c, 5, 69, 0
7, 93810, Note_on_c, 5, 69, 114
7, 93834, Note_on_c, 5, 69, 0
7, 93840, Note_on_c, 5, 57, 104
7, 93864, Note_on_c, 5, 57, 0
7, 93870, Note_on_c, 5, 69, 111
7, 93894, Note_on_c, 5, 69, 0
7, 93900, Note_on_c, 5, 62, 125
7, 93924, Note_on_c, 5, 62, 0
7, 93930, Note_on_c, 5, 74, 89
7, 93954, Note_on_c, 5, 74, 0
7, 93960, Note_on_c, 5, 62, 103
7, 93984, Note_on_c, 5, 62, 0
7, 93990, Note_on_c, 5, 74, 98
7, 94014, Note_on_c, 5, 74, 0
7, 94020, Note_on_c, 5, 62, 103
7, 94044, Note_on_c, 5, 62, 0
7, 94050, Note_on_c, 5, 74, 110
7, 94074, Note_on_c, 5, 74, 0
7, 94080, Note_on_c, 5, 66, 83
7, 94176, Note_on_c, 5, 66, 0
7, 94200, Note_on_c, 5, 69, 111
7, 94296, Note_on_c, 5, 69, 0
7, 94320, Note_on_c, 5, 67, 107
7, 94464, Note_on_c, 5, 67, 0
7, 94500, Note_on_c, 5, 66, 103
7, 94548, Note_on_c, 5, 66, 0
7, 94560, Note_on_c, 5, 70, 121
7, 94656, Note_on_c, 5, 70, 0
7, 94680, Note_on_c, 5, 69, 121
7, 94776, Note_on_c, 5, 69, 0
7, 94800, Note_on_c, 5, 67, 113
7, 94848, Note_on_c, 5, 67, 0
7, 94860, Note_on_c, 5, 67, 123
7, 94884, Note_on_c, 5, 67, 0
7, 94890, Note_on_c, 5, 69, 123
7, 94914, Note_on_c, 5, 69, 0
7, 94920, Note_on_c, 5, 70, 111
7, 94968, Note_on_c, 5, 70, 0
7, 94980, Note_on_c, 5, 67, 118
7, 95028, Note_on_c, 5, 67, 0
7, 95040, Note_on_c, 5, 69, 127
7, 95136, Note_on_c, 5, 69, 0
7, 95160, Note_on_c, 5, 72, 118
7, 95256, Note_on_c, 5, 72, 0
7, 95280, Note_on_c, 5, 70, 100
7, 95424, Note_on_c, 5, 70, 0
7, 95460, Note_on_c, 5, 69, 123
7, 95508, Note_on_c, 5, 69, 0
7, 95520, Note_on_c, 5, 74, 127
7, 95616, Note_on_c, 5, 74, 0
7, 95640, Note_on_c, 5, 72, 110
7, 95736, Note_on_c, 5, 72, 0
7, 95760, Note_on_c, 5, 71, 102
7, 95808, Note_on_c, 5, 71, 0
7, 95820, Note_on_c, 5, 71, 120
7, 95844, Note_on_c, 5, 71, 0
7, 95850, Note_on_c, 5, 72, 118
7, 95874, Note_on_c, 5, 72, 0
7, 95880, Note_on_c, 5, 74, 123
7, 95928, Note_on_c, 5, 74, 0
7, 95940, Note_on_c, 5, 71, 127
7, 95988, Note_on_c, 5, 71, 0
7, 98880, Note_on_c, 5, 86, 109
7, 99792, Note_on_c, 5, 86, 0
7, 99840, Note_on_c, 5, 84, 110
7, 100368, Note_on_c, 5, 84, 0
7, 100380, Note_on_c, 5, 82, 107
7, 100404, Note_on_c, 5, 82, 0
7, 100410, Note_on_c, 5, 81, 127
7, 100434, Note_on_c, 5, 81, 0
7, 100440, Note_on_c, 5, 79, 127
7, 100464, Note_on_c, 5, 79, 0
7, 100470, Note_on_c, 5, 77, 120
7, 100494, Note_on_c, 5, 77, 0
7, 100500, Note_on_c, 5, 76, 110
7, 100524, Note_on_c, 5, 76, 0
7, 100530, Note_on_c, 5, 77, 127
7, 100554, Note_on_c, 5, 77, 0
7, 100560, Note_on_c, 5, 79, 121
7, 100584, Note_on_c, 5, 79, 0
7, 100590, Note_on_c, 5, 81, 107
7, 100614, Note_on_c, 5, 81, 0
7, 100620, Note_on_c, 5, 79, 116
7, 100644, Note_on_c, 5, 79, 0
7, 100650, Note_on_c, 5, 81, 116
7, 100674, Note_on_c, 5, 81, 0
7, 100680, Note_on_c, 5, 79, 114
7, 100704, Note_on_c, 5, 79, 0
7, 100710, Note_on_c, 5, 81, 114
7, 100734, Note_on_c, 5, 81, 0
7, 100740, Note_on_c, 5, 79, 123
7, 100764, Note_on_c, 5, 79, 0
7, 100770, Note_on_c, 5, 81, 127
7, 100794, Note_on_c, 5, 81, 0
7, 100800, Note_on_c, 5, 79, 127
7, 100824, Note_on_c, 5, 79, 0
7, 100830, Note_on_c, 5, 81, 120
7, 100854, Note_on_c, 5, 81, 0
7, 100860, Note_on_c, 5, 79, 113
7, 100884, Note_on_c, 5, 79, 0
7, 100890, Note_on_c, 5, 81, 117
7, 100914, Note_on_c, 5, 81, 0
7, 100920, Note_on_c, 5, 79, 114
7, 100944, Note_on_c, 5, 79, 0
7, 100950, Note_on_c, 5, 81, 116
7, 100974, Note_on_c, 5, 81, 0
7, 100980, Note_on_c, 5, 79, 123
7, 101004, Note_on_c, 5, 79, 0
7, 101010, Note_on_c, 5, 81, 117
7, 101034, Note_on_c, 5, 81, 0
7, 101040, Note_on_c, 5, 79, 127
7, 101064, Note_on_c, 5, 79, 0
7, 101070, Note_on_c, 5, 81, 113
7, 101094, Note_on_c, 5, 81, 0
7, 101100, Note_on_c, 5, 79, 116
7, 101124, Note_on_c, 5, 79, 0
7, 101130, Note_on_c, 5, 81, 98
7, 101154, Note_on_c, 5, 81, 0
7, 101160, Note_on_c, 5, 79, 112
7, 101232, Note_on_c, 5, 79, 0
7, 101250, Note_on_c, 5, 77, 108
7, 101274, Note_on_c, 5, 77, 0
7, 101280, Note_on_c, 5, 79, 104
7, 101328, Note_on_c, 5, 79, 0
7, 101340, Note_on_c, 5, 79, 118
7, 101388, Note_on_c, 5, 79, 0
7, 101400, Note_on_c, 5, 84, 116
7, 101448, Note_on_c, 5, 84, 0
7, 101460, Note_on_c, 5, 79, 127
7, 101508, Note_on_c, 5, 79, 0
7, 101520, Note_on_c, 5, 76, 116
7, 101568, Note_on_c, 5, 76, 0
7, 101580, Note_on_c, 5, 79, 117
7, 101628, Note_on_c, 5, 79, 0
7, 101640, Note_on_c, 5, 76, 114
7, 101688, Note_on_c, 5, 76, 0
7, 101700, Note_on_c, 5, 72, 104
7, 101748, Note_on_c, 5, 72, 0
7, 101760, Note_on_c, 5, 67, 127
7, 101808, Note_on_c, 5, 67, 0
7, 101820, Note_on_c, 5, 72, 118
7, 101868, Note_on_c, 5, 72, 0
7, 101880, Note_on_c, 5, 67, 106
7, 101928, Note_on_c, 5, 67, 0
7, 101940, Note_on_c, 5, 64, 110
7, 101988, Note_on_c, 5, 64, 0
7, 102000, Note_on_c, 5, 60, 104
7, 102048, Note_on_c, 5, 60, 0
7, 102060, Note_on_c, 5, 72, 127
7, 102108, Note_on_c, 5, 72, 0
7, 102120, Note_on_c, 5, 70, 111
7, 102168, Note_on_c, 5, 70, 0
7, 102180, Note_on_c, 5, 67, 127
7, 102228, Note_on_c, 5, 67, 0
7, 102240, Note_on_c, 5, 69, 117
7, 102272, Note_on_c, 5, 69, 0
7, 102280, Note_on_c, 5, 77, 120
7, 102312, Note_on_c, 5, 77, 0
7, 102320, Note_on_c, 5, 76, 105
7, 102352, Note_on_c, 5, 76, 0
7, 102360, Note_on_c, 5, 77, 113
7, 102392, Note_on_c, 5, 77, 0
7, 102400, Note_on_c, 5, 74, 100
7, 102432, Note_on_c, 5, 74, 0
7, 102440, Note_on_c, 5, 70, 101
7, 102472, Note_on_c, 5, 70, 0
7, 102480, Note_on_c, 5, 67, 104
7, 102512, Note_on_c, 5, 67, 0
7, 102520, Note_on_c, 5, 79, 127
7, 102552, Note_on_c, 5, 79, 0
7, 102560, Note_on_c, 5, 78, 109
7, 102592, Note_on_c, 5, 78, 0
7, 102600, Note_on_c, 5, 79, 117
7, 102632, Note_on_c, 5, 79, 0
7, 102640, Note_on_c, 5, 76, 118
7, 102672, Note_on_c, 5, 76, 0
7, 102680, Note_on_c, 5, 70, 113
7, 102712, Note_on_c, 5, 70, 0
7, 102720, Note_on_c, 5, 69, 102
7, 102752, Note_on_c, 5, 69, 0
7, 102760, Note_on_c, 5, 77, 125
7, 102792, Note_on_c, 5, 77, 0
7, 102800, Note_on_c, 5, 76, 107
7, 102832, Note_on_c, 5, 76, 0
7, 102840, Note_on_c, 5, 77, 125
7, 102872, Note_on_c, 5, 77, 0
7, 102880, Note_on_c, 5, 74, 101
7, 102912, Note_on_c, 5, 74, 0
7, 102920, Note_on_c, 5, 70, 86
7, 102952, Note_on_c, 5, 70, 0
7, 102960, Note_on_c, 5, 67, 101
7, 102992, Note_on_c, 5, 67, 0
7, 103000, Note_on_c, 5, 79, 127
7, 103032, Note_on_c, 5, 79, 0
7, 103040, Note_on_c, 5, 78, 111
7, 103072, Note_on_c, 5, 78, 0
7, 103080, Note_on_c, 5, 79, 125
7, 103112, Note_on_c, 5, 79, 0
7, 103120, Note_on_c, 5, 76, 120
7, 103152, Note_on_c, 5, 76, 0
7, 103160, Note_on_c, 5, 70, 100
7, 103192, Note_on_c, 5, 70, 0
7, 103200, Note_on_c, 5, 69, 127
7, 103232, Note_on_c, 5, 69, 0
7, 103240, Note_on_c, 5, 77, 116
7, 103272, Note_on_c, 5, 77, 0
7, 103280, Note_on_c, 5, 76, 108
7, 103312, Note_on_c, 5, 76, 0
7, 103320, Note_on_c, 5, 77, 125
7, 103352, Note_on_c, 5, 77, 0
7, 103360, Note_on_c, 5, 69, 98
7, 103392, Note_on_c, 5, 69, 0
7, 103400, Note_on_c, 5, 72, 116
7, 103432, Note_on_c, 5, 72, 0
7, 103440, Note_on_c, 5, 70, 97
7, 103472, Note_on_c, 5, 70, 0
7, 103480, Note_on_c, 5, 67, 105
7, 103512, Note_on_c, 5, 67, 0
7, 103520, Note_on_c, 5, 72, 127
7, 103552, Note_on_c, 5, 72, 0
7, 103560, Note_on_c, 5, 70, 111
7, 103592, Note_on_c, 5, 70, 0
7, 103600, Note_on_c, 5, 72, 118
7, 103632, Note_on_c, 5, 72, 0
7, 103640, Note_on_c, 5, 69, 127
7, 103672, Note_on_c, 5, 69, 0
7, 103680, Note_on_c, 5, 74, 108
7, 103712, Note_on_c, 5, 74, 0
7, 103720, Note_on_c, 5, 70, 101
7, 103752, Note_on_c, 5, 70, 0
7, 103760, Note_on_c, 5, 77, 113
7, 103792, Note_on_c, 5, 77, 0
7, 103800, Note_on_c, 5, 72, 107
7, 103832, Note_on_c, 5, 72, 0
7, 103840, Note_on_c, 5, 69, 105
7, 103872, Note_on_c, 5, 69, 0
7, 103880, Note_on_c, 5, 77, 117
7, 103912, Note_on_c, 5, 77, 0
7, 103920, Note_on_c, 5, 67, 112
7, 103952, Note_on_c, 5, 67, 0
7, 103960, Note_on_c, 5, 79, 100
7, 103992, Note_on_c, 5, 79, 0
7, 104000, Note_on_c, 5, 77, 116
7, 104032, Note_on_c, 5, 77, 0
7, 104040, Note_on_c, 5, 76, 109
7, 104072, Note_on_c, 5, 76, 0
7, 104080, Note_on_c, 5, 79, 127
7, 104112, Note_on_c, 5, 79, 0
7, 104120, Note_on_c, 5, 70, 107
7, 104152, Note_on_c, 5, 70, 0
7, 104160, Note_on_c, 5, 69, 95
7, 104192, Note_on_c, 5, 69, 0
7, 104200, Note_on_c, 5, 77, 109
7, 104232, Note_on_c, 5, 77, 0
7, 104240, Note_on_c, 5, 76, 107
7, 104272, Note_on_c, 5, 76, 0
7, 104280, Note_on_c, 5, 77, 97
7, 104312, Note_on_c, 5, 77, 0
7, 104320, Note_on_c, 5, 69, 107
7, 104352, Note_on_c, 5, 69, 0
7, 104360, Note_on_c, 5, 72, 113
7, 104392, Note_on_c, 5, 72, 0
7, 104400, Note_on_c, 5, 70, 111
7, 104432, Note_on_c, 5, 70, 0
7, 104440, Note_on_c, 5, 67, 107
7, 104472, Note_on_c, 5, 67, 0
7, 104480, Note_on_c, 5, 72, 111
7, 104512, Note_on_c, 5, 72, 0
7, 104520, Note_on_c, 5, 70, 105
7, 104552, Note_on_c, 5, 70, 0
7, 104560, Note_on_c, 5, 72, 127
7, 104592, Note_on_c, 5, 72, 0
7, 104600, Note_on_c, 5, 69, 111
7, 104632, Note_on_c, 5, 69, 0
7, 104640, Note_on_c, 5, 74, 127
7, 104672, Note_on_c, 5, 74, 0
7, 104680, Note_on_c, 5, 70, 109
7, 104712, Note_on_c, 5, 70, 0
7, 104720, Note_on_c, 5, 67, 105
7, 104752, Note_on_c, 5, 67, 0
7, 104760, Note_on_c, 5, 72, 125
7, 104792, Note_on_c, 5, 72, 0
7, 104800, Note_on_c, 5, 69, 127
7, 104832, Note_on_c, 5, 69, 0
7, 104840, Note_on_c, 5, 65, 109
7, 104872, Note_on_c, 5, 65, 0
7, 104880, Note_on_c, 5, 64, 105
7, 104912, Note_on_c, 5, 64, 0
7, 104920, Note_on_c, 5, 72, 127
7, 104952, Note_on_c, 5, 72, 0
7, 104960, Note_on_c, 5, 70, 101
7, 104992, Note_on_c, 5, 70, 0
7, 105000, Note_on_c, 5, 69, 105
7, 105032, Note_on_c, 5, 69, 0
7, 105040, Note_on_c, 5, 67, 109
7, 105072, Note_on_c, 5, 67, 0
7, 105080, Note_on_c, 5, 65, 101
7, 105112, Note_on_c, 5, 65, 0
7, 105120, Note_on_c, 5, 64, 103
7, 105152, Note_on_c, 5, 64, 0
7, 105160, Note_on_c, 5, 72, 120
7, 105192, Note_on_c, 5, 72, 0
7, 105200, Note_on_c, 5, 70, 94
7, 105232, Note_on_c, 5, 70, 0
7, 105240, Note_on_c, 5, 69, 103
7, 105272, Note_on_c, 5, 69, 0
7, 105280, Note_on_c, 5, 67, 103
7, 105312, Note_on_c, 5, 67, 0
7, 105320, Note_on_c, 5, 65, 103
7, 105352, Note_on_c, 5, 65, 0
7, 105360, Note_on_c, 5, 64, 123
7, 105392, Note_on_c, 5, 64, 0
7, 105400, Note_on_c, 5, 72, 111
7, 105432, Note_on_c, 5, 72, 0
7, 105440, Note_on_c, 5, 70, 92
7, 105472, Note_on_c, 5, 70, 0
7, 105480, Note_on_c, 5, 69, 110
7, 105512, Note_on_c, 5, 69, 0
7, 105520, Note_on_c, 5, 67, 109
7, 105552, Note_on_c, 5, 67, 0
7, 105560, Note_on_c, 5, 65, 103
7, 105592, Note_on_c, 5, 65, 0
7, 105600, Note_on_c, 5, 64, 109
7, 105632, Note_on_c, 5, 64, 0
7, 105640, Note_on_c, 5, 72, 111
7, 105672, Note_on_c, 5, 72, 0
7, 105680, Note_on_c, 5, 70, 91
7, 105712, Note_on_c, 5, 70, 0
7, 105720, Note_on_c, 5, 69, 103
7, 105752, Note_on_c, 5, 69, 0
7, 105760, Note_on_c, 5, 67, 116
7, 105792, Note_on_c, 5, 67, 0
7, 105800, Note_on_c, 5, 65, 98
7, 105832, Note_on_c, 5, 65, 0
7, 105840, Note_on_c, 5, 64, 117
7, 105888, Note_on_c, 5, 64, 0
7, 105900, Note_on_c, 5, 67, 125
7, 105924, Note_on_c, 5, 67, 0
7, 105930, Note_on_c, 5, 69, 127
7, 105954, Note_on_c, 5, 69, 0
7, 105960, Note_on_c, 5, 70, 115
7, 106008, Note_on_c, 5, 70, 0
7, 106020, Note_on_c, 5, 71, 118
7, 106068, Note_on_c, 5, 71, 0
7, 106080, Note_on_c, 5, 72, 127
7, 106128, Note_on_c, 5, 72, 0
7, 106140, Note_on_c, 5, 67, 106
7, 106164, Note_on_c, 5, 67, 0
7, 106170, Note_on_c, 5, 69, 125
7, 106194, Note_on_c, 5, 69, 0
7, 106200, Note_on_c, 5, 70, 111
7, 106248, Note_on_c, 5, 70, 0
7, 106260, Note_on_c, 5, 71, 121
7, 106308, Note_on_c, 5, 71, 0
7, 106320, Note_on_c, 5, 72, 117
7, 106368, Note_on_c, 5, 72, 0
7, 106380, Note_on_c, 5, 67, 104
7, 106404, Note_on_c, 5, 67, 0
7, 106410, Note_on_c, 5, 69, 127
7, 106434, Note_on_c, 5, 69, 0
7, 106440, Note_on_c, 5, 70, 103
7, 106488, Note_on_c, 5, 70, 0
7, 106500, Note_on_c, 5, 71, 123
7, 106548, Note_on_c, 5, 71, 0
7, 106560, Note_on_c, 5, 72, 123
7, 106608, Note_on_c, 5, 72, 0
7, 106620, Note_on_c, 5, 67, 104
7, 106644, Note_on_c, 5, 67, 0
7, 106650, Note_on_c, 5, 69, 121
7, 106674, Note_on_c, 5, 69, 0
7, 106680, Note_on_c, 5, 70, 109
7, 106728, Note_on_c, 5, 70, 0
7, 106740, Note_on_c, 5, 71, 125
7, 106788, Note_on_c, 5, 71, 0
7, 106800, Note_on_c, 5, 72, 127
7, 106848, Note_on_c, 5, 72, 0
7, 106860, Note_on_c, 5, 67, 104
7, 106884, Note_on_c, 5, 67, 0
7, 106890, Note_on_c, 5, 69, 127
7, 106914, Note_on_c, 5, 69, 0
7, 106920, Note_on_c, 5, 70, 111
7, 106968, Note_on_c, 5, 70, 0
7, 106980, Note_on_c, 5, 71, 125
7, 107028, Note_on_c, 5, 71, 0
7, 107040, Note_on_c, 5, 72, 127
7, 107088, Note_on_c, 5, 72, 0
7, 107100, Note_on_c, 5, 69, 114
7, 107124, Note_on_c, 5, 69, 0
7, 107130, Note_on_c, 5, 70, 111
7, 107154, Note_on_c, 5, 70, 0
7, 107160, Note_on_c, 5, 72, 123
7, 107208, Note_on_c, 5, 72, 0
7, 107220, Note_on_c, 5, 73, 115
7, 107268, Note_on_c, 5, 73, 0
7, 107280, Note_on_c, 5, 74, 120
7, 107328, Note_on_c, 5, 74, 0
7, 107340, Note_on_c, 5, 70, 109
7, 107364, Note_on_c, 5, 70, 0
7, 107370, Note_on_c, 5, 72, 127
7, 107394, Note_on_c, 5, 72, 0
7, 107400, Note_on_c, 5, 74, 120
7, 107448, Note_on_c, 5, 74, 0
7, 107460, Note_on_c, 5, 76, 107
7, 107508, Note_on_c, 5, 76, 0
7, 107520, Note_on_c, 5, 77, 127
7, 107568, Note_on_c, 5, 77, 0
7, 107580, Note_on_c, 5, 74, 113
7, 107604, Note_on_c, 5, 74, 0
7, 107610, Note_on_c, 5, 76, 127
7, 107634, Note_on_c, 5, 76, 0
7, 107640, Note_on_c, 5, 77, 127
7, 107696, Note_on_c, 5, 77, 0
7, 107700, Note_on_c, 5, 79, 120
7, 107756, Note_on_c, 5, 79, 0
7, 107760, Note_on_c, 5, 69, 127
7, 107760, Note_on_c, 5, 81, 127
7, 107808, Note_on_c, 5, 81, 0
7, 107808, Note_on_c, 5, 69, 0
7, 107820, Note_on_c, 5, 81, 123
7, 107868, Note_on_c, 5, 81, 0
7, 107880, Note_on_c, 5, 82, 107
7, 107928, Note_on_c, 5, 82, 0
7, 107940, Note_on_c, 5, 86, 127
7, 107988, Note_on_c, 5, 86, 0
7, 108000, Note_on_c, 5, 84, 127
7, 108048, Note_on_c, 5, 84, 0
7, 108060, Note_on_c, 5, 82, 92
7, 108084, Note_on_c, 5, 82, 0
7, 108090, Note_on_c, 5, 81, 118
7, 108114, Note_on_c, 5, 81, 0
7, 108120, Note_on_c, 5, 79, 99
7, 108168, Note_on_c, 5, 79, 0
7, 108180, Note_on_c, 5, 72, 107
7, 108228, Note_on_c, 5, 72, 0
7, 108240, Note_on_c, 5, 77, 121
7, 108288, Note_on_c, 5, 77, 0
7, 108300, Note_on_c, 5, 79, 116
7, 108348, Note_on_c, 5, 79, 0
7, 108360, Note_on_c, 5, 81, 121
7, 108408, Note_on_c, 5, 81, 0
7, 108420, Note_on_c, 5, 82, 113
7, 108444, Note_on_c, 5, 82, 0
7, 108450, Note_on_c, 5, 81, 120
7, 108474, Note_on_c, 5, 81, 0
7, 108480, Note_on_c, 5, 79, 127
7, 108528, Note_on_c, 5, 79, 0
7, 108540, Note_on_c, 5, 81, 127
7, 108588, Note_on_c, 5, 81, 0
7, 108600, Note_on_c, 5, 82, 103
7, 108648, Note_on_c, 5, 82, 0
7, 108660, Note_on_c, 5, 84, 108
7, 108684, Note_on_c, 5, 84, 0
7, 108690, Note_on_c, 5, 82, 95
7, 108714, Note_on_c, 5, 82, 0
7, 108720, Note_on_c, 5, 81, 127
7, 108768, Note_on_c, 5, 81, 0
7, 108780, Note_on_c, 5, 84, 103
7, 108828, Note_on_c, 5, 84, 0
7, 108840, Note_on_c, 5, 84, 110
7, 108888, Note_on_c, 5, 84, 0
7, 108900, Note_on_c, 5, 84, 113
7, 108948, Note_on_c, 5, 84, 0
7, 108960, Note_on_c, 5, 84, 94
7, 109056, Note_on_c, 5, 84, 0
7, 109080, Note_on_c, 5, 82, 107
7, 109104, Note_on_c, 5, 82, 0
7, 109110, Note_on_c, 5, 81, 110
7, 109134, Note_on_c, 5, 81, 0
7, 109140, Note_on_c, 5, 79, 118
7, 109164, Note_on_c, 5, 79, 0
7, 109170, Note_on_c, 5, 77, 100
7, 109194, Note_on_c, 5, 77, 0
7, 109200, Note_on_c, 5, 76, 127
7, 109248, Note_on_c, 5, 76, 0
7, 109260, Note_on_c, 5, 77, 117
7, 109308, Note_on_c, 5, 77, 0
7, 109320, Note_on_c, 5, 79, 118
7, 109368, Note_on_c, 5, 79, 0
7, 109380, Note_on_c, 5, 81, 109
7, 109404, Note_on_c, 5, 81, 0
7, 109410, Note_on_c, 5, 79, 121
7, 109434, Note_on_c, 5, 79, 0
7, 109440, Note_on_c, 5, 77, 120
7, 109488, Note_on_c, 5, 77, 0
7, 109500, Note_on_c, 5, 79, 110
7, 109548, Note_on_c, 5, 79, 0
7, 109560, Note_on_c, 5, 81, 107
7, 109608, Note_on_c, 5, 81, 0
7, 109620, Note_on_c, 5, 82, 89
7, 109644, Note_on_c, 5, 82, 0
7, 109650, Note_on_c, 5, 81, 123
7, 109674, Note_on_c, 5, 81, 0
7, 109680, Note_on_c, 5, 79, 114
7, 109728, Note_on_c, 5, 79, 0
7, 109740, Note_on_c, 5, 82, 111
7, 109788, Note_on_c, 5, 82, 0
7, 109800, Note_on_c, 5, 82, 115
7, 109848, Note_on_c, 5, 82, 0
7, 109860, Note_on_c, 5, 82, 109
7, 109908, Note_on_c, 5, 82, 0
7, 109920, Note_on_c, 5, 82, 105
7, 110016, Note_on_c, 5, 82, 0
7, 110040, Note_on_c, 5, 84, 98
7, 110064, Note_on_c, 5, 84, 0
7, 110070, Note_on_c, 5, 82, 107
7, 110094, Note_on_c, 5, 82, 0
7, 110100, Note_on_c, 5, 81, 123
7, 110124, Note_on_c, 5, 81, 0
7, 110130, Note_on_c, 5, 79, 118
7, 110154, Note_on_c, 5, 79, 0
7, 110160, Note_on_c, 5, 81, 120
7, 110208, Note_on_c, 5, 81, 0
7, 110220, Note_on_c, 5, 82, 84
7, 110268, Note_on_c, 5, 82, 0
7, 110280, Note_on_c, 5, 84, 103
7, 110328, Note_on_c, 5, 84, 0
7, 110340, Note_on_c, 5, 86, 116
7, 110364, Note_on_c, 5, 86, 0
7, 110370, Note_on_c, 5, 84, 123
7, 110394, Note_on_c, 5, 84, 0
7, 110400, Note_on_c, 5, 82, 111
7, 110448, Note_on_c, 5, 82, 0
7, 110460, Note_on_c, 5, 84, 127
7, 110484, Note_on_c, 5, 84, 0
7, 110490, Note_on_c, 5, 82, 107
7, 110514, Note_on_c, 5, 82, 0
7, 110520, Note_on_c, 5, 79, 118
7, 110568, Note_on_c, 5, 79, 0
7, 110580, Note_on_c, 5, 84, 127
7, 110604, Note_on_c, 5, 84, 0
7, 110610, Note_on_c, 5, 82, 92
7, 110634, Note_on_c, 5, 82, 0
7, 110640, Note_on_c, 5, 81, 127
7, 110688, Note_on_c, 5, 81, 0
7, 110700, Note_on_c, 5, 82, 113
7, 110748, Note_on_c, 5, 82, 0
7, 110760, Note_on_c, 5, 84, 127
7, 110808, Note_on_c, 5, 84, 0
7, 110820, Note_on_c, 5, 86, 127
7, 110844, Note_on_c, 5, 86, 0
7, 110850, Note_on_c, 5, 84, 121
7, 110874, Note_on_c, 5, 84, 0
7, 110880, Note_on_c, 5, 82, 111
7, 110928, Note_on_c, 5, 82, 0
7, 110940, Note_on_c, 5, 84, 127
7, 110964, Note_on_c, 5, 84, 0
7, 110970, Note_on_c, 5, 82, 100
7, 110994, Note_on_c, 5, 82, 0
7, 111000, Note_on_c, 5, 79, 125
7, 111048, Note_on_c, 5, 79, 0
7, 111060, Note_on_c, 5, 84, 111
7, 111084, Note_on_c, 5, 84, 0
7, 111090, Note_on_c, 5, 82, 101
7, 111114, Note_on_c, 5, 82, 0
7, 111120, Note_on_c, 5, 81, 123
7, 111168, Note_on_c, 5, 81, 0
7, 111180, Note_on_c, 5, 84, 121
7, 111204, Note_on_c, 5, 84, 0
7, 111210, Note_on_c, 5, 82, 107
7, 111234, Note_on_c, 5, 82, 0
7, 111240, Note_on_c, 5, 79, 127
7, 111288, Note_on_c, 5, 79, 0
7, 111300, Note_on_c, 5, 84, 127
7, 111324, Note_on_c, 5, 84, 0
7, 111330, Note_on_c, 5, 82, 100
7, 111354, Note_on_c, 5, 82, 0
7, 111360, Note_on_c, 5, 81, 125
7, 111408, Note_on_c, 5, 81, 0
7, 111420, Note_on_c, 5, 84, 121
7, 111444, Note_on_c, 5, 84, 0
7, 111450, Note_on_c, 5, 82, 105
7, 111474, Note_on_c, 5, 82, 0
7, 111480, Note_on_c, 5, 79, 127
7, 111528, Note_on_c, 5, 79, 0
7, 111540, Note_on_c, 5, 84, 127
7, 111564, Note_on_c, 5, 84, 0
7, 111570, Note_on_c, 5, 82, 111
7, 111594, Note_on_c, 5, 82, 0
7, 111600, Note_on_c, 5, 65, 104
7, 111600, Note_on_c, 5, 81, 103
7, 111600, Note_on_c, 5, 72, 99
7, 111648, Note_on_c, 5, 72, 0
7, 111648, Note_on_c, 5, 81, 0
7, 111648, Note_on_c, 5, 65, 0
7, 111900, Note_on_c, 5, 65, 112
7, 111948, Note_on_c, 5, 65, 0
7, 111960, Note_on_c, 5, 67, 125
7, 112008, Note_on_c, 5, 67, 0
7, 112020, Note_on_c, 5, 70, 109
7, 112068, Note_on_c, 5, 70, 0
7, 112080, Note_on_c, 5, 69, 121
7, 112128, Note_on_c, 5, 69, 0
7, 112140, Note_on_c, 5, 74, 127
7, 112188, Note_on_c, 5, 74, 0
7, 112200, Note_on_c, 5, 76, 100
7, 112248, Note_on_c, 5, 76, 0
7, 112260, Note_on_c, 5, 79, 127
7, 112308, Note_on_c, 5, 79, 0
7, 112320, Note_on_c, 5, 77, 114
7, 112368, Note_on_c, 5, 77, 0
7, 112380, Note_on_c, 5, 77, 123
7, 112428, Note_on_c, 5, 77, 0
7, 112440, Note_on_c, 5, 79, 127
7, 112488, Note_on_c, 5, 79, 0
7, 112500, Note_on_c, 5, 82, 123
7, 112548, Note_on_c, 5, 82, 0
7, 115440, Note_on_c, 5, 84, 127
7, 115488, Note_on_c, 5, 84, 0
7, 115500, Note_on_c, 5, 83, 107
7, 115548, Note_on_c, 5, 83, 0
7, 115560, Note_on_c, 5, 84, 121
7, 115608, Note_on_c, 5, 84, 0
7, 115620, Note_on_c, 5, 86, 111
7, 115668, Note_on_c, 5, 86, 0
7, 115680, Note_on_c, 5, 84, 116
7, 115728, Note_on_c, 5, 84, 0
7, 115740, Note_on_c, 5, 83, 105
7, 115788, Note_on_c, 5, 83, 0
7, 115800, Note_on_c, 5, 84, 127
7, 115848, Note_on_c, 5, 84, 0
7, 115860, Note_on_c, 5, 86, 113
7, 115908, Note_on_c, 5, 86, 0
7, 115920, Note_on_c, 5, 84, 104
7, 115968, Note_on_c, 5, 84, 0
7, 115980, Note_on_c, 5, 82, 100
7, 116028, Note_on_c, 5, 82, 0
7, 116040, Note_on_c, 5, 79, 110
7, 116088, Note_on_c, 5, 79, 0
7, 116100, Note_on_c, 5, 76, 105
7, 116148, Note_on_c, 5, 76, 0
7, 116160, Note_on_c, 5, 72, 97
7, 116208, Note_on_c, 5, 72, 0
7, 116220, Note_on_c, 5, 79, 107
7, 116268, Note_on_c, 5, 79, 0
7, 116280, Note_on_c, 5, 76, 109
7, 116328, Note_on_c, 5, 76, 0
7, 116340, Note_on_c, 5, 72, 98
7, 116388, Note_on_c, 5, 72, 0
7, 116400, Note_on_c, 5, 86, 111
7, 116448, Note_on_c, 5, 86, 0
7, 116460, Note_on_c, 5, 84, 107
7, 116508, Note_on_c, 5, 84, 0
7, 116520, Note_on_c, 5, 81, 92
7, 116568, Note_on_c, 5, 81, 0
7, 116580, Note_on_c, 5, 77, 105
7, 116628, Note_on_c, 5, 77, 0
7, 116640, Note_on_c, 5, 72, 127
7, 116688, Note_on_c, 5, 72, 0
7, 116700, Note_on_c, 5, 81, 127
7, 116748, Note_on_c, 5, 81, 0
7, 116760, Note_on_c, 5, 77, 127
7, 116808, Note_on_c, 5, 77, 0
7, 116820, Note_on_c, 5, 72, 110
7, 116868, Note_on_c, 5, 72, 0
7, 116880, Note_on_c, 5, 60, 123
7, 116928, Note_on_c, 5, 60, 0
7, 116940, Note_on_c, 5, 58, 90
7, 116988, Note_on_c, 5, 58, 0
7, 117000, Note_on_c, 5, 60, 121
7, 117048, Note_on_c, 5, 60, 0
7, 117060, Note_on_c, 5, 58, 87
7, 117108, Note_on_c, 5, 58, 0
7, 117120, Note_on_c, 5, 60, 118
7, 117168, Note_on_c, 5, 60, 0
7, 117180, Note_on_c, 5, 58, 96
7, 117228, Note_on_c, 5, 58, 0
7, 117240, Note_on_c, 5, 60, 117
7, 117288, Note_on_c, 5, 60, 0
7, 117300, Note_on_c, 5, 58, 101
7, 117348, Note_on_c, 5, 58, 0
7, 117360, Note_on_c, 5, 60, 114
7, 117408, Note_on_c, 5, 60, 0
7, 117420, Note_on_c, 5, 57, 92
7, 117468, Note_on_c, 5, 57, 0
7, 117480, Note_on_c, 5, 60, 117
7, 117528, Note_on_c, 5, 60, 0
7, 117540, Note_on_c, 5, 57, 94
7, 117588, Note_on_c, 5, 57, 0
7, 117600, Note_on_c, 5, 60, 116
7, 117648, Note_on_c, 5, 60, 0
7, 117660, Note_on_c, 5, 57, 82
7, 117708, Note_on_c, 5, 57, 0
7, 117720, Note_on_c, 5, 60, 109
7, 117768, Note_on_c, 5, 60, 0
7, 117780, Note_on_c, 5, 57, 123
7, 117828, Note_on_c, 5, 57, 0
7, 117840, Note_on_c, 5, 72, 113
7, 118272, Note_on_c, 5, 72, 0
7, 118320, Note_on_c, 5, 77, 112
7, 118752, Note_on_c, 5, 77, 0
7, 118800, Note_on_c, 5, 76, 100
7, 118896, Note_on_c, 5, 76, 0
7, 118920, Note_on_c, 5, 76, 103
7, 119016, Note_on_c, 5, 76, 0
7, 119040, Note_on_c, 5, 76, 114
7, 119136, Note_on_c, 5, 76, 0
7, 119160, Note_on_c, 5, 79, 116
7, 119208, Note_on_c, 5, 79, 0
7, 119220, Note_on_c, 5, 76, 113
7, 119268, Note_on_c, 5, 76, 0
7, 119280, Note_on_c, 5, 77, 100
7, 119376, Note_on_c, 5, 77, 0
7, 119400, Note_on_c, 5, 77, 101
7, 119496, Note_on_c, 5, 77, 0
7, 119520, Note_on_c, 5, 77, 108
7, 119616, Note_on_c, 5, 77, 0
7, 119640, Note_on_c, 5, 81, 112
7, 119688, Note_on_c, 5, 81, 0
7, 119700, Note_on_c, 5, 77, 117
7, 119748, Note_on_c, 5, 77, 0
7, 119760, Note_on_c, 5, 84, 116
7, 119792, Note_on_c, 5, 84, 0
7, 119800, Note_on_c, 5, 86, 106
7, 119832, Note_on_c, 5, 86, 0
7, 119840, Note_on_c, 5, 84, 109
7, 119872, Note_on_c, 5, 84, 0
7, 119880, Note_on_c, 5, 86, 111
7, 119912, Note_on_c, 5, 86, 0
7, 119920, Note_on_c, 5, 84, 117
7, 119952, Note_on_c, 5, 84, 0
7, 119960, Note_on_c, 5, 86, 101
7, 119992, Note_on_c, 5, 86, 0
7, 120000, Note_on_c, 5, 84, 104
7, 120032, Note_on_c, 5, 84, 0
7, 120040, Note_on_c, 5, 86, 113
7, 120072, Note_on_c, 5, 86, 0
7, 120080, Note_on_c, 5, 84, 107
7, 120112, Note_on_c, 5, 84, 0
7, 120120, Note_on_c, 5, 86, 113
7, 120152, Note_on_c, 5, 86, 0
7, 120160, Note_on_c, 5, 84, 107
7, 120192, Note_on_c, 5, 84, 0
7, 120200, Note_on_c, 5, 86, 106
7, 120232, Note_on_c, 5, 86, 0
7, 120240, Note_on_c, 5, 84, 107
7, 120272, Note_on_c, 5, 84, 0
7, 120280, Note_on_c, 5, 86, 110
7, 120312, Note_on_c, 5, 86, 0
7, 120320, Note_on_c, 5, 84, 105
7, 120352, Note_on_c, 5, 84, 0
7, 120360, Note_on_c, 5, 86, 108
7, 120392, Note_on_c, 5, 86, 0
7, 120400, Note_on_c, 5, 84, 107
7, 120432, Note_on_c, 5, 84, 0
7, 120440, Note_on_c, 5, 86, 110
7, 120472, Note_on_c, 5, 86, 0
7, 120480, Note_on_c, 5, 84, 114
7, 120512, Note_on_c, 5, 84, 0
7, 120520, Note_on_c, 5, 86, 113
7, 120552, Note_on_c, 5, 86, 0
7, 120560, Note_on_c, 5, 84, 117
7, 120592, Note_on_c, 5, 84, 0
7, 120600, Note_on_c, 5, 86, 114
7, 120632, Note_on_c, 5, 86, 0
7, 120640, Note_on_c, 5, 84, 120
7, 120672, Note_on_c, 5, 84, 0
7, 120680, Note_on_c, 5, 86, 116
7, 120712, Note_on_c, 5, 86, 0
7, 120720, Note_on_c, 5, 84, 116
7, 120744, Note_on_c, 5, 84, 0
7, 120750, Note_on_c, 5, 86, 118
7, 120774, Note_on_c, 5, 86, 0
7, 120780, Note_on_c, 5, 84, 108
7, 120804, Note_on_c, 5, 84, 0
7, 120810, Note_on_c, 5, 86, 120
7, 120834, Note_on_c, 5, 86, 0
7, 120840, Note_on_c, 5, 84, 108
7, 120864, Note_on_c, 5, 84, 0
7, 120870, Note_on_c, 5, 86, 118
7, 120894, Note_on_c, 5, 86, 0
7, 120900, Note_on_c, 5, 84, 116
7, 120924, Note_on_c, 5, 84, 0
7, 120930, Note_on_c, 5, 86, 117
7, 120954, Note_on_c, 5, 86, 0
7, 120960, Note_on_c, 5, 84, 117
7, 120984, Note_on_c, 5, 84, 0
7, 120990, Note_on_c, 5, 86, 120
7, 121014, Note_on_c, 5, 86, 0
7, 121020, Note_on_c, 5, 84, 117
7, 121044, Note_on_c, 5, 84, 0
7, 121050, Note_on_c, 5, 86, 121
7, 121074, Note_on_c, 5, 86, 0
7, 121080, Note_on_c, 5, 84, 114
7, 121104, Note_on_c, 5, 84, 0
7, 121110, Note_on_c, 5, 86, 109
7, 121134, Note_on_c, 5, 86, 0
7, 121140, Note_on_c, 5, 84, 102
7, 121164, Note_on_c, 5, 84, 0
7, 121170, Note_on_c, 5, 86, 109
7, 121194, Note_on_c, 5, 86, 0
7, 121200, Note_on_c, 5, 84, 117
7, 121224, Note_on_c, 5, 84, 0
7, 121230, Note_on_c, 5, 86, 127
7, 121254, Note_on_c, 5, 86, 0
7, 121260, Note_on_c, 5, 84, 121
7, 121284, Note_on_c, 5, 84, 0
7, 121290, Note_on_c, 5, 86, 116
7, 121314, Note_on_c, 5, 86, 0
7, 121320, Note_on_c, 5, 84, 120
7, 121344, Note_on_c, 5, 84, 0
7, 121350, Note_on_c, 5, 86, 120
7, 121374, Note_on_c, 5, 86, 0
7, 121380, Note_on_c, 5, 84, 118
7, 121404, Note_on_c, 5, 84, 0
7, 121410, Note_on_c, 5, 86, 117
7, 121434, Note_on_c, 5, 86, 0
7, 121440, Note_on_c, 5, 84, 125
7, 121464, Note_on_c, 5, 84, 0
7, 121470, Note_on_c, 5, 86, 121
7, 121494, Note_on_c, 5, 86, 0
7, 121500, Note_on_c, 5, 84, 123
7, 121524, Note_on_c, 5, 84, 0
7, 121530, Note_on_c, 5, 86, 123
7, 121554, Note_on_c, 5, 86, 0
7, 121560, Note_on_c, 5, 84, 127
7, 121584, Note_on_c, 5, 84, 0
7, 121590, Note_on_c, 5, 86, 118
7, 121614, Note_on_c, 5, 86, 0
7, 121620, Note_on_c, 5, 84, 116
7, 121644, Note_on_c, 5, 84, 0
7, 121650, Note_on_c, 5, 86, 121
7, 121674, Note_on_c, 5, 86, 0
7, 121680, Note_on_c, 5, 84, 117
7, 121704, Note_on_c, 5, 84, 0
7, 121710, Note_on_c, 5, 86, 121
7, 121734, Note_on_c, 5, 86, 0
7, 121740, Note_on_c, 5, 84, 116
7, 121764, Note_on_c, 5, 84, 0
7, 121770, Note_on_c, 5, 86, 121
7, 121794, Note_on_c, 5, 86, 0
7, 121800, Note_on_c, 5, 84, 123
7, 121824, Note_on_c, 5, 84, 0
7, 121830, Note_on_c, 5, 86, 123
7, 121854, Note_on_c, 5, 86, 0
7, 121860, Note_on_c, 5, 84, 114
7, 121884, Note_on_c, 5, 84, 0
7, 121890, Note_on_c, 5, 86, 125
7, 121914, Note_on_c, 5, 86, 0
7, 121920, Note_on_c, 5, 84, 116
7, 121944, Note_on_c, 5, 84, 0
7, 121950, Note_on_c, 5, 86, 125
7, 121974, Note_on_c, 5, 86, 0
7, 121980, Note_on_c, 5, 84, 127
7, 122004, Note_on_c, 5, 84, 0
7, 122010, Note_on_c, 5, 86, 125
7, 122034, Note_on_c, 5, 86, 0
7, 122040, Note_on_c, 5, 72, 121
7, 122064, Note_on_c, 5, 72, 0
7, 122070, Note_on_c, 5, 74, 116
7, 122094, Note_on_c, 5, 74, 0
7, 122100, Note_on_c, 5, 72, 127
7, 122124, Note_on_c, 5, 72, 0
7, 122130, Note_on_c, 5, 74, 111
7, 122154, Note_on_c, 5, 74, 0
7, 122160, Note_on_c, 5, 72, 117
7, 122304, Note_on_c, 5, 72, 0
7, 122340, Note_on_c, 5, 74, 121
7, 122364, Note_on_c, 5, 74, 0
7, 122370, Note_on_c, 5, 76, 118
7, 122394, Note_on_c, 5, 76, 0
7, 122400, Note_on_c, 5, 77, 120
7, 122448, Note_on_c, 5, 77, 0
7, 122460, Note_on_c, 5, 76, 114
7, 122484, Note_on_c, 5, 76, 0
7, 122490, Note_on_c, 5, 74, 118
7, 122514, Note_on_c, 5, 74, 0
7, 122520, Note_on_c, 5, 72, 113
7, 122568, Note_on_c, 5, 72, 0
7, 122580, Note_on_c, 5, 74, 121
7, 122604, Note_on_c, 5, 74, 0
7, 122610, Note_on_c, 5, 76, 117
7, 122634, Note_on_c, 5, 76, 0
7, 122640, Note_on_c, 5, 77, 127
7, 122688, Note_on_c, 5, 77, 0
7, 122700, Note_on_c, 5, 76, 121
7, 122724, Note_on_c, 5, 76, 0
7, 122730, Note_on_c, 5, 74, 127
7, 122754, Note_on_c, 5, 74, 0
7, 122760, Note_on_c, 5, 72, 127
7, 122808, Note_on_c, 5, 72, 0
7, 122820, Note_on_c, 5, 74, 125
7, 122844, Note_on_c, 5, 74, 0
7, 122850, Note_on_c, 5, 76, 125
7, 122874, Note_on_c, 5, 76, 0
7, 122880, Note_on_c, 5, 77, 104
7, 122928, Note_on_c, 5, 77, 0
7, 123120, Note_on_c, 5, 62, 127
7, 123168, Note_on_c, 5, 62, 0
7, 123180, Note_on_c, 5, 65, 127
7, 123228, Note_on_c, 5, 65, 0
7, 123240, Note_on_c, 5, 62, 123
7, 123288, Note_on_c, 5, 62, 0
7, 123300, Note_on_c, 5, 65, 120
7, 123348, Note_on_c, 5, 65, 0
7, 123360, Note_on_c, 5, 60, 120
7, 123408, Note_on_c, 5, 60, 0
7, 123420, Note_on_c, 5, 65, 102
7, 123468, Note_on_c, 5, 65, 0
7, 123480, Note_on_c, 5, 60, 103
7, 123528, Note_on_c, 5, 60, 0
7, 123540, Note_on_c, 5, 65, 116
7, 123588, Note_on_c, 5, 65, 0
7, 123600, Note_on_c, 5, 60, 97
7, 123648, Note_on_c, 5, 60, 0
7, 123660, Note_on_c, 5, 64, 112
7, 123708, Note_on_c, 5, 64, 0
7, 123720, Note_on_c, 5, 60, 105
7, 123768, Note_on_c, 5, 60, 0
7, 123780, Note_on_c, 5, 64, 121
7, 123828, Note_on_c, 5, 64, 0
7, 123840, Note_on_c, 5, 72, 127
7, 123984, Note_on_c, 5, 72, 0
7, 124020, Note_on_c, 5, 74, 127
7, 124044, Note_on_c, 5, 74, 0
7, 124050, Note_on_c, 5, 76, 121
7, 124074, Note_on_c, 5, 76, 0
7, 124080, Note_on_c, 5, 77, 127
7, 124128, Note_on_c, 5, 77, 0
7, 124140, Note_on_c, 5, 76, 123
7, 124164, Note_on_c, 5, 76, 0
7, 124170, Note_on_c, 5, 74, 127
7, 124194, Note_on_c, 5, 74, 0
7, 124200, Note_on_c, 5, 72, 118
7, 124248, Note_on_c, 5, 72, 0
7, 124260, Note_on_c, 5, 74, 127
7, 124284, Note_on_c, 5, 74, 0
7, 124290, Note_on_c, 5, 76, 117
7, 124314, Note_on_c, 5, 76, 0
7, 124320, Note_on_c, 5, 77, 111
7, 124368, Note_on_c, 5, 77, 0
7, 124380, Note_on_c, 5, 76, 127
7, 124404, Note_on_c, 5, 76, 0
7, 124410, Note_on_c, 5, 74, 127
7, 124434, Note_on_c, 5, 74, 0
7, 124440, Note_on_c, 5, 72, 121
7, 124488, Note_on_c, 5, 72, 0
7, 124500, Note_on_c, 5, 74, 127
7, 124524, Note_on_c, 5, 74, 0
7, 124530, Note_on_c, 5, 76, 112
7, 124554, Note_on_c, 5, 76, 0
7, 124560, Note_on_c, 5, 77, 127
7, 124608, Note_on_c, 5, 77, 0
7, 124800, Note_on_c, 5, 62, 120
7, 124848, Note_on_c, 5, 62, 0
7, 124860, Note_on_c, 5, 65, 127
7, 124908, Note_on_c, 5, 65, 0
7, 124920, Note_on_c, 5, 62, 125
7, 124968, Note_on_c, 5, 62, 0
7, 124980, Note_on_c, 5, 65, 127
7, 125028, Note_on_c, 5, 65, 0
7, 125040, Note_on_c, 5, 60, 99
7, 125088, Note_on_c, 5, 60, 0
7, 125100, Note_on_c, 5, 65, 120
7, 125148, Note_on_c, 5, 65, 0
7, 125160, Note_on_c, 5, 60, 109
7, 125208, Note_on_c, 5, 60, 0
7, 125220, Note_on_c, 5, 65, 114
7, 125268, Note_on_c, 5, 65, 0
7, 125280, Note_on_c, 5, 60, 97
7, 125328, Note_on_c, 5, 60, 0
7, 125340, Note_on_c, 5, 64, 116
7, 125388, Note_on_c, 5, 64, 0
7, 125400, Note_on_c, 5, 60, 112
7, 125448, Note_on_c, 5, 60, 0
7, 125460, Note_on_c, 5, 64, 121
7, 125508, Note_on_c, 5, 64, 0
7, 125520, Note_on_c, 5, 60, 125
7, 125568, Note_on_c, 5, 60, 0
7, 125580, Note_on_c, 5, 65, 121
7, 125628, Note_on_c, 5, 65, 0
7, 125640, Note_on_c, 5, 65, 125
7, 125688, Note_on_c, 5, 65, 0
7, 125700, Note_on_c, 5, 65, 125
7, 125748, Note_on_c, 5, 65, 0
7, 125760, Note_on_c, 5, 62, 120
7, 125808, Note_on_c, 5, 62, 0
7, 125820, Note_on_c, 5, 65, 123
7, 125868, Note_on_c, 5, 65, 0
7, 125880, Note_on_c, 5, 62, 118
7, 125928, Note_on_c, 5, 62, 0
7, 125940, Note_on_c, 5, 65, 127
7, 125988, Note_on_c, 5, 65, 0
7, 126000, Note_on_c, 5, 60, 111
7, 126048, Note_on_c, 5, 60, 0
7, 126060, Note_on_c, 5, 65, 107
7, 126108, Note_on_c, 5, 65, 0
7, 126120, Note_on_c, 5, 60, 123
7, 126168, Note_on_c, 5, 60, 0
7, 126180, Note_on_c, 5, 65, 113
7, 126228, Note_on_c, 5, 65, 0
7, 126240, Note_on_c, 5, 60, 107
7, 126288, Note_on_c, 5, 60, 0
7, 126300, Note_on_c, 5, 64, 127
7, 126348, Note_on_c, 5, 64, 0
7, 126360, Note_on_c, 5, 60, 113
7, 126408, Note_on_c, 5, 60, 0
7, 126420, Note_on_c, 5, 64, 116
7, 126468, Note_on_c, 5, 64, 0
7, 126480, Note_on_c, 5, 60, 117
7, 126512, Note_on_c, 5, 60, 0
7, 126520, Note_on_c, 5, 65, 127
7, 126552, Note_on_c, 5, 65, 0
7, 126560, Note_on_c, 5, 77, 101
7, 126592, Note_on_c, 5, 77, 0
7, 126600, Note_on_c, 5, 77, 109
7, 126632, Note_on_c, 5, 77, 0
7, 126640, Note_on_c, 5, 77, 106
7, 126672, Note_on_c, 5, 77, 0
7, 126680, Note_on_c, 5, 77, 109
7, 126712, Note_on_c, 5, 77, 0
7, 126720, Note_on_c, 5, 77, 127
7, 126752, Note_on_c, 5, 77, 0
7, 126760, Note_on_c, 5, 65, 110
7, 126792, Note_on_c, 5, 65, 0
7, 126800, Note_on_c, 5, 77, 112
7, 126832, Note_on_c, 5, 77, 0
7, 126840, Note_on_c, 5, 65, 127
7, 126872, Note_on_c, 5, 65, 0
7, 126880, Note_on_c, 5, 76, 114
7, 126912, Note_on_c, 5, 76, 0
7, 126920, Note_on_c, 5, 74, 106
7, 126952, Note_on_c, 5, 74, 0
7, 126960, Note_on_c, 5, 72, 117
7, 126992, Note_on_c, 5, 72, 0
7, 127000, Note_on_c, 5, 60, 118
7, 127032, Note_on_c, 5, 60, 0
7, 127040, Note_on_c, 5, 72, 118
7, 127072, Note_on_c, 5, 72, 0
7, 127080, Note_on_c, 5, 60, 121
7, 127112, Note_on_c, 5, 60, 0
7, 127120, Note_on_c, 5, 70, 107
7, 127152, Note_on_c, 5, 70, 0
7, 127160, Note_on_c, 5, 69, 123
7, 127192, Note_on_c, 5, 69, 0
7, 127200, Note_on_c, 5, 67, 114
7, 127232, Note_on_c, 5, 67, 0
7, 127240, Note_on_c, 5, 58, 103
7, 127272, Note_on_c, 5, 58, 0
7, 127280, Note_on_c, 5, 67, 109
7, 127312, Note_on_c, 5, 67, 0
7, 127320, Note_on_c, 5, 58, 105
7, 127352, Note_on_c, 5, 58, 0
7, 127360, Note_on_c, 5, 65, 110
7, 127392, Note_on_c, 5, 65, 0
7, 127400, Note_on_c, 5, 67, 117
7, 127432, Note_on_c, 5, 67, 0
7, 127440, Note_on_c, 5, 65, 127
7, 127536, Note_on_c, 5, 65, 0
7, 127620, Note_on_c, 5, 69, 127
7, 127644, Note_on_c, 5, 69, 0
7, 127650, Note_on_c, 5, 67, 127
7, 127674, Note_on_c, 5, 67, 0
7, 127680, Note_on_c, 5, 65, 127
7, 127728, Note_on_c, 5, 65, 0
7, 127740, Note_on_c, 5, 69, 127
7, 127764, Note_on_c, 5, 69, 0
7, 127770, Note_on_c, 5, 67, 104
7, 127794, Note_on_c, 5, 67, 0
7, 127800, Note_on_c, 5, 65, 127
7, 127848, Note_on_c, 5, 65, 0
7, 127860, Note_on_c, 5, 74, 127
7, 127884, Note_on_c, 5, 74, 0
7, 127890, Note_on_c, 5, 71, 108
7, 127914, Note_on_c, 5, 71, 0
7, 127920, Note_on_c, 5, 72, 127
7, 128016, Note_on_c, 5, 72, 0
7, 128100, Note_on_c, 5, 74, 127
7, 128124, Note_on_c, 5, 74, 0
7, 128130, Note_on_c, 5, 72, 127
7, 128154, Note_on_c, 5, 72, 0
7, 128160, Note_on_c, 5, 69, 127
7, 128208, Note_on_c, 5, 69, 0
7, 128220, Note_on_c, 5, 72, 127
7, 128244, Note_on_c, 5, 72, 0
7, 128250, Note_on_c, 5, 70, 113
7, 128274, Note_on_c, 5, 70, 0
7, 128280, Note_on_c, 5, 67, 127
7, 128328, Note_on_c, 5, 67, 0
7, 128340, Note_on_c, 5, 70, 121
7, 128364, Note_on_c, 5, 70, 0
7, 128370, Note_on_c, 5, 69, 127
7, 128394, Note_on_c, 5, 69, 0
7, 128400, Note_on_c, 5, 65, 127
7, 128496, Note_on_c, 5, 65, 0
7, 128580, Note_on_c, 5, 69, 127
7, 128604, Note_on_c, 5, 69, 0
7, 128610, Note_on_c, 5, 67, 123
7, 128634, Note_on_c, 5, 67, 0
7, 128640, Note_on_c, 5, 65, 127
7, 128688, Note_on_c, 5, 65, 0
7, 128700, Note_on_c, 5, 69, 127
7, 128724, Note_on_c, 5, 69, 0
7, 128730, Note_on_c, 5, 67, 117
7, 128754, Note_on_c, 5, 67, 0
7, 128760, Note_on_c, 5, 65, 127
7, 128808, Note_on_c, 5, 65, 0
7, 128820, Note_on_c, 5, 74, 127
7, 128844, Note_on_c, 5, 74, 0
7, 128850, Note_on_c, 5, 71, 127
7, 128874, Note_on_c, 5, 71, 0
7, 128880, Note_on_c, 5, 72, 127
7, 128976, Note_on_c, 5, 72, 0
7, 129060, Note_on_c, 5, 74, 127
7, 129084, Note_on_c, 5, 74, 0
7, 129090, Note_on_c, 5, 72, 120
7, 129114, Note_on_c, 5, 72, 0
7, 129120, Note_on_c, 5, 69, 127
7, 129168, Note_on_c, 5, 69, 0
7, 129180, Note_on_c, 5, 72, 127
7, 129204, Note_on_c, 5, 72, 0
7, 129210, Note_on_c, 5, 70, 93
7, 129234, Note_on_c, 5, 70, 0
7, 129240, Note_on_c, 5, 67, 127
7, 129288, Note_on_c, 5, 67, 0
7, 129300, Note_on_c, 5, 70, 115
7, 129324, Note_on_c, 5, 70, 0
7, 129330, Note_on_c, 5, 69, 123
7, 129354, Note_on_c, 5, 69, 0
7, 129360, Note_on_c, 5, 65, 114
7, 129408, Note_on_c, 5, 65, 0
7, 129420, Note_on_c, 5, 72, 123
7, 129444, Note_on_c, 5, 72, 0
7, 129450, Note_on_c, 5, 69, 123
7, 129474, Note_on_c, 5, 69, 0
7, 129480, Note_on_c, 5, 67, 127
7, 129528, Note_on_c, 5, 67, 0
7, 129540, Note_on_c, 5, 72, 127
7, 129564, Note_on_c, 5, 72, 0
7, 129570, Note_on_c, 5, 70, 111
7, 129594, Note_on_c, 5, 70, 0
7, 129600, Note_on_c, 5, 65, 127
7, 129648, Note_on_c, 5, 65, 0
7, 129660, Note_on_c, 5, 72, 123
7, 129684, Note_on_c, 5, 72, 0
7, 129690, Note_on_c, 5, 69, 127
7, 129714, Note_on_c, 5, 69, 0
7, 129720, Note_on_c, 5, 67, 127
7, 129768, Note_on_c, 5, 67, 0
7, 129780, Note_on_c, 5, 72, 125
7, 129804, Note_on_c, 5, 72, 0
7, 129810, Note_on_c, 5, 70, 109
7, 129834, Note_on_c, 5, 70, 0
7, 129840, Note_on_c, 5, 65, 127
7, 129888, Note_on_c, 5, 65, 0
7, 129900, Note_on_c, 5, 72, 127
7, 129924, Note_on_c, 5, 72, 0
7, 129930, Note_on_c, 5, 69, 123
7, 129954, Note_on_c, 5, 69, 0
7, 129960, Note_on_c, 5, 67, 127
7, 130008, Note_on_c, 5, 67, 0
7, 130020, Note_on_c, 5, 72, 127
7, 130044, Note_on_c, 5, 72, 0
7, 130050, Note_on_c, 5, 70, 111
7, 130074, Note_on_c, 5, 70, 0
7, 130080, Note_on_c, 5, 65, 127
7, 130128, Note_on_c, 5, 65, 0
7, 130140, Note_on_c, 5, 72, 127
7, 130164, Note_on_c, 5, 72, 0
7, 130170, Note_on_c, 5, 69, 120
7, 130194, Note_on_c, 5, 69, 0
7, 130200, Note_on_c, 5, 67, 127
7, 130248, Note_on_c, 5, 67, 0
7, 130260, Note_on_c, 5, 72, 127
7, 130284, Note_on_c, 5, 72, 0
7, 130290, Note_on_c, 5, 70, 118
7, 130314, Note_on_c, 5, 70, 0
7, 130320, Note_on_c, 5, 65, 125
7, 130416, Note_on_c, 5, 65, 0
7, 130440, Note_on_c, 5, 60, 125
7, 130536, Note_on_c, 5, 60, 0
7, 130560, Note_on_c, 5, 65, 109
7, 130656, Note_on_c, 5, 65, 0
7, 130680, Note_on_c, 5, 60, 106
7, 130776, Note_on_c, 5, 60, 0
7, 130800, Note_on_c, 5, 65, 104
7, 130896, Note_on_c, 5, 65, 0
7, 130920, Note_on_c, 5, 60, 102
7, 131016, Note_on_c, 5, 60, 0
7, 131040, Note_on_c, 5, 65, 104
7, 131136, Note_on_c, 5, 65, 0
7, 131160, Note_on_c, 5, 60, 114
7, 131256, Note_on_c, 5, 60, 0
7, 131280, Note_on_c, 5, 65, 127
7, 131328, Note_on_c, 5, 65, 0
7, 132300, Note_on_c, 5, 65, 113
7, 132348, Note_on_c, 5, 65, 0
7, 132360, Note_on_c, 5, 67, 127
7, 132408, Note_on_c, 5, 67, 0
7, 132420, Note_on_c, 5, 70, 115
7, 132468, Note_on_c, 5, 70, 0
7, 132480, Note_on_c, 5, 69, 127
7, 132528, Note_on_c, 5, 69, 0
7, 132540, Note_on_c, 5, 69, 110
7, 132588, Note_on_c, 5, 69, 0
7, 132600, Note_on_c, 5, 70, 99
7, 132648, Note_on_c, 5, 70, 0
7, 132660, Note_on_c, 5, 74, 120
7, 132708, Note_on_c, 5, 74, 0
7, 132720, Note_on_c, 5, 72, 112
7, 132768, Note_on_c, 5, 72, 0
7, 132780, Note_on_c, 5, 72, 121
7, 132828, Note_on_c, 5, 72, 0
7, 132840, Note_on_c, 5, 74, 118
7, 132888, Note_on_c, 5, 74, 0
7, 132900, Note_on_c, 5, 77, 103
7, 132948, Note_on_c, 5, 77, 0
7, 132960, Note_on_c, 5, 75, 113
7, 133008, Note_on_c, 5, 75, 0
7, 133020, Note_on_c, 5, 74, 109
7, 133068, Note_on_c, 5, 74, 0
7, 133080, Note_on_c, 5, 75, 99
7, 133128, Note_on_c, 5, 75, 0
7, 133140, Note_on_c, 5, 79, 110
7, 133188, Note_on_c, 5, 79, 0
7, 133500, Note_on_c, 5, 74, 100
7, 133548, Note_on_c, 5, 74, 0
7, 133560, Note_on_c, 5, 75, 81
7, 133608, Note_on_c, 5, 75, 0
7, 133620, Note_on_c, 5, 79, 127
7, 133668, Note_on_c, 5, 79, 0
7, 133980, Note_on_c, 5, 74, 110
7, 134028, Note_on_c, 5, 74, 0
7, 134040, Note_on_c, 5, 75, 105
7, 134088, Note_on_c, 5, 75, 0
7, 134100, Note_on_c, 5, 77, 99
7, 134148, Note_on_c, 5, 77, 0
7, 134220, Note_on_c, 5, 74, 99
7, 134268, Note_on_c, 5, 74, 0
7, 134280, Note_on_c, 5, 75, 109
7, 134328, Note_on_c, 5, 75, 0
7, 134340, Note_on_c, 5, 79, 127
7, 134388, Note_on_c, 5, 79, 0
7, 134400, Note_on_c, 5, 77, 114
7, 134448, Note_on_c, 5, 77, 0
7, 134460, Note_on_c, 5, 75, 78
7, 134484, Note_on_c, 5, 75, 0
7, 134490, Note_on_c, 5, 74, 99
7, 134514, Note_on_c, 5, 74, 0
7, 134520, Note_on_c, 5, 72, 127
7, 134568, Note_on_c, 5, 72, 0
7, 134580, Note_on_c, 5, 65, 103
7, 134628, Note_on_c, 5, 65, 0
7, 134640, Note_on_c, 5, 70, 101
7, 134688, Note_on_c, 5, 70, 0
7, 134700, Note_on_c, 5, 72, 100
7, 134748, Note_on_c, 5, 72, 0
7, 134760, Note_on_c, 5, 74, 103
7, 134808, Note_on_c, 5, 74, 0
7, 134820, Note_on_c, 5, 75, 111
7, 134844, Note_on_c, 5, 75, 0
7, 134850, Note_on_c, 5, 74, 103
7, 134874, Note_on_c, 5, 74, 0
7, 134880, Note_on_c, 5, 72, 107
7, 134928, Note_on_c, 5, 72, 0
7, 134940, Note_on_c, 5, 74, 117
7, 134988, Note_on_c, 5, 74, 0
7, 135000, Note_on_c, 5, 75, 107
7, 135048, Note_on_c, 5, 75, 0
7, 135060, Note_on_c, 5, 77, 118
7, 135084, Note_on_c, 5, 77, 0
7, 135090, Note_on_c, 5, 75, 97
7, 135114, Note_on_c, 5, 75, 0
7, 135120, Note_on_c, 5, 74, 112
7, 135168, Note_on_c, 5, 74, 0
7, 135360, Note_on_c, 5, 60, 108
7, 135408, Note_on_c, 5, 60, 0
7, 135600, Note_on_c, 5, 62, 107
7, 135632, Note_on_c, 5, 62, 0
7, 135640, Note_on_c, 5, 82, 94
7, 135672, Note_on_c, 5, 82, 0
7, 135680, Note_on_c, 5, 82, 113
7, 135712, Note_on_c, 5, 82, 0
7, 135720, Note_on_c, 5, 82, 105
7, 136112, Note_on_c, 5, 82, 0
7, 136120, Note_on_c, 5, 82, 94
7, 136152, Note_on_c, 5, 82, 0
7, 136160, Note_on_c, 5, 82, 113
7, 136192, Note_on_c, 5, 82, 0
7, 136200, Note_on_c, 5, 82, 105
7, 136592, Note_on_c, 5, 82, 0
7, 136600, Note_on_c, 5, 82, 94
7, 136632, Note_on_c, 5, 82, 0
7, 136640, Note_on_c, 5, 82, 113
7, 136672, Note_on_c, 5, 82, 0
7, 136680, Note_on_c, 5, 82, 105
7, 137072, Note_on_c, 5, 82, 0
7, 137080, Note_on_c, 5, 82, 94
7, 137112, Note_on_c, 5, 82, 0
7, 137120, Note_on_c, 5, 82, 113
7, 137152, Note_on_c, 5, 82, 0
7, 137160, Note_on_c, 5, 82, 105
7, 137552, Note_on_c, 5, 82, 0
7, 137560, Note_on_c, 5, 82, 113
7, 137592, Note_on_c, 5, 82, 0
7, 137600, Note_on_c, 5, 82, 109
7, 137632, Note_on_c, 5, 82, 0
7, 137640, Note_on_c, 5, 82, 103
7, 137792, Note_on_c, 5, 82, 0
7, 137800, Note_on_c, 5, 79, 127
7, 137832, Note_on_c, 5, 79, 0
7, 137840, Note_on_c, 5, 79, 123
7, 137872, Note_on_c, 5, 79, 0
7, 137880, Note_on_c, 5, 79, 127
7, 138032, Note_on_c, 5, 79, 0
7, 138040, Note_on_c, 5, 76, 117
7, 138072, Note_on_c, 5, 76, 0
7, 138080, Note_on_c, 5, 76, 113
7, 138112, Note_on_c, 5, 76, 0
7, 138120, Note_on_c, 5, 76, 116
7, 138272, Note_on_c, 5, 76, 0
7, 138280, Note_on_c, 5, 72, 103
7, 138312, Note_on_c, 5, 72, 0
7, 138320, Note_on_c, 5, 72, 116
7, 138352, Note_on_c, 5, 72, 0
7, 138360, Note_on_c, 5, 72, 112
7, 138456, Note_on_c, 5, 72, 0
7, 138480, Note_on_c, 5, 77, 112
7, 138480, Note_on_c, 5, 65, 107
7, 138480, Note_on_c, 5, 69, 105
7, 138576, Note_on_c, 5, 69, 0
7, 138576, Note_on_c, 5, 65, 0
7, 138632, Note_on_c, 5, 77, 0
7, 138640, Note_on_c, 5, 81, 107
7, 138672, Note_on_c, 5, 81, 0
7, 138680, Note_on_c, 5, 79, 75
7, 138712, Note_on_c, 5, 79, 0
7, 138720, Note_on_c, 5, 77, 113
7, 138752, Note_on_c, 5, 77, 0
7, 138760, Note_on_c, 5, 81, 117
7, 138792, Note_on_c, 5, 81, 0
7, 138800, Note_on_c, 5, 79, 108
7, 138832, Note_on_c, 5, 79, 0
7, 138840, Note_on_c, 5, 77, 98
7, 138872, Note_on_c, 5, 77, 0
7, 138880, Note_on_c, 5, 86, 104
7, 138912, Note_on_c, 5, 86, 0
7, 138920, Note_on_c, 5, 83, 109
7, 138952, Note_on_c, 5, 83, 0
7, 138960, Note_on_c, 5, 84, 99
7, 139112, Note_on_c, 5, 84, 0
7, 139120, Note_on_c, 5, 86, 118
7, 139152, Note_on_c, 5, 86, 0
7, 139160, Note_on_c, 5, 84, 107
7, 139192, Note_on_c, 5, 84, 0
7, 139200, Note_on_c, 5, 81, 110
7, 139232, Note_on_c, 5, 81, 0
7, 139240, Note_on_c, 5, 84, 127
7, 139272, Note_on_c, 5, 84, 0
7, 139280, Note_on_c, 5, 82, 83
7, 139312, Note_on_c, 5, 82, 0
7, 139320, Note_on_c, 5, 79, 109
7, 139352, Note_on_c, 5, 79, 0
7, 139360, Note_on_c, 5, 82, 83
7, 139392, Note_on_c, 5, 82, 0
7, 139400, Note_on_c, 5, 81, 100
7, 139432, Note_on_c, 5, 81, 0
7, 139440, Note_on_c, 5, 77, 107
7, 139592, Note_on_c, 5, 77, 0
7, 139600, Note_on_c, 5, 81, 121
7, 139632, Note_on_c, 5, 81, 0
7, 139640, Note_on_c, 5, 79, 109
7, 139672, Note_on_c, 5, 79, 0
7, 139680, Note_on_c, 5, 77, 110
7, 139712, Note_on_c, 5, 77, 0
7, 139720, Note_on_c, 5, 81, 125
7, 139752, Note_on_c, 5, 81, 0
7, 139760, Note_on_c, 5, 79, 106
7, 139792, Note_on_c, 5, 79, 0
7, 139800, Note_on_c, 5, 77, 112
7, 139832, Note_on_c, 5, 77, 0
7, 139840, Note_on_c, 5, 86, 127
7, 139872, Note_on_c, 5, 86, 0
7, 139880, Note_on_c, 5, 83, 98
7, 139912, Note_on_c, 5, 83, 0
7, 139920, Note_on_c, 5, 84, 100
7, 140072, Note_on_c, 5, 84, 0
7, 140080, Note_on_c, 5, 86, 117
7, 140112, Note_on_c, 5, 86, 0
7, 140120, Note_on_c, 5, 84, 109
7, 140152, Note_on_c, 5, 84, 0
7, 140160, Note_on_c, 5, 81, 113
7, 140192, Note_on_c, 5, 81, 0
7, 140200, Note_on_c, 5, 84, 114
7, 140232, Note_on_c, 5, 84, 0
7, 140240, Note_on_c, 5, 82, 100
7, 140272, Note_on_c, 5, 82, 0
7, 140280, Note_on_c, 5, 79, 107
7, 140312, Note_on_c, 5, 79, 0
7, 140320, Note_on_c, 5, 82, 99
7, 140352, Note_on_c, 5, 82, 0
7, 140360, Note_on_c, 5, 81, 112
7, 140392, Note_on_c, 5, 81, 0
7, 140400, Note_on_c, 5, 77, 107
7, 140552, Note_on_c, 5, 77, 0
7, 140560, Note_on_c, 5, 81, 117
7, 140592, Note_on_c, 5, 81, 0
7, 140600, Note_on_c, 5, 81, 114
7, 140632, Note_on_c, 5, 81, 0
7, 140640, Note_on_c, 5, 81, 99
7, 140792, Note_on_c, 5, 81, 0
7, 140800, Note_on_c, 5, 81, 106
7, 140832, Note_on_c, 5, 81, 0
7, 140840, Note_on_c, 5, 81, 111
7, 140872, Note_on_c, 5, 81, 0
7, 140880, Note_on_c, 5, 84, 101
7, 141032, Note_on_c, 5, 84, 0
7, 141040, Note_on_c, 5, 84, 108
7, 141072, Note_on_c, 5, 84, 0
7, 141080, Note_on_c, 5, 84, 113
7, 141112, Note_on_c, 5, 84, 0
7, 141120, Note_on_c, 5, 79, 102
7, 141272, Note_on_c, 5, 79, 0
7, 141280, Note_on_c, 5, 79, 104
7, 141312, Note_on_c, 5, 79, 0
7, 141320, Note_on_c, 5, 79, 107
7, 141352, Note_on_c, 5, 79, 0
7, 141360, Note_on_c, 5, 81, 111
7, 141512, Note_on_c, 5, 81, 0
7, 141520, Note_on_c, 5, 81, 108
7, 141552, Note_on_c, 5, 81, 0
7, 141560, Note_on_c, 5, 81, 109
7, 141592, Note_on_c, 5, 81, 0
7, 141600, Note_on_c, 5, 81, 118
7, 141752, Note_on_c, 5, 81, 0
7, 141760, Note_on_c, 5, 81, 109
7, 141792, Note_on_c, 5, 81, 0
7, 141800, Note_on_c, 5, 81, 106
7, 141832, Note_on_c, 5, 81, 0
7, 141840, Note_on_c, 5, 84, 100
7, 141992, Note_on_c, 5, 84, 0
7, 142000, Note_on_c, 5, 84, 108
7, 142032, Note_on_c, 5, 84, 0
7, 142040, Note_on_c, 5, 84, 110
7, 142072, Note_on_c, 5, 84, 0
7, 142080, Note_on_c, 5, 79, 113
7, 142232, Note_on_c, 5, 79, 0
7, 142240, Note_on_c, 5, 79, 120
7, 142272, Note_on_c, 5, 79, 0
7, 142280, Note_on_c, 5, 79, 116
7, 142312, Note_on_c, 5, 79, 0
7, 142320, Note_on_c, 5, 81, 113
7, 142472, Note_on_c, 5, 81, 0
7, 142480, Note_on_c, 5, 81, 101
7, 142512, Note_on_c, 5, 81, 0
7, 142520, Note_on_c, 5, 81, 102
7, 142552, Note_on_c, 5, 81, 0
7, 142560, Note_on_c, 5, 81, 109
7, 142712, Note_on_c, 5, 81, 0
7, 142720, Note_on_c, 5, 81, 107
7, 142752, Note_on_c, 5, 81, 0
7, 142760, Note_on_c, 5, 81, 112
7, 142792, Note_on_c, 5, 81, 0
7, 142800, Note_on_c, 5, 84, 125
7, 142952, Note_on_c, 5, 84, 0
7, 142960, Note_on_c, 5, 84, 121
7, 142992, Note_on_c, 5, 84, 0
7, 143000, Note_on_c, 5, 84, 120
7, 143032, Note_on_c, 5, 84, 0
7, 143040, Note_on_c, 5, 84, 116
7, 143192, Note_on_c, 5, 84, 0
7, 143200, Note_on_c, 5, 84, 121
7, 143232, Note_on_c, 5, 84, 0
7, 143240, Note_on_c, 5, 84, 123
7, 143272, Note_on_c, 5, 84, 0
7, 143280, Note_on_c, 5, 84, 121
7, 143432, Note_on_c, 5, 84, 0
7, 143440, Note_on_c, 5, 82, 90
7, 143472, Note_on_c, 5, 82, 0
7, 143480, Note_on_c, 5, 82, 101
7, 143512, Note_on_c, 5, 82, 0
7, 143520, Note_on_c, 5, 82, 94
7, 143672, Note_on_c, 5, 82, 0
7, 143680, Note_on_c, 5, 81, 125
7, 143712, Note_on_c, 5, 81, 0
7, 143720, Note_on_c, 5, 81, 118
7, 143752, Note_on_c, 5, 81, 0
7, 143760, Note_on_c, 5, 81, 111
7, 143912, Note_on_c, 5, 81, 0
7, 143920, Note_on_c, 5, 79, 108
7, 143952, Note_on_c, 5, 79, 0
7, 143960, Note_on_c, 5, 79, 109
7, 143992, Note_on_c, 5, 79, 0
7, 144000, Note_on_c, 5, 79, 109
7, 144152, Note_on_c, 5, 79, 0
7, 144160, Note_on_c, 5, 77, 100
7, 144192, Note_on_c, 5, 77, 0
7, 144200, Note_on_c, 5, 77, 103
7, 144232, Note_on_c, 5, 77, 0
7, 144240, Note_on_c, 5, 77, 112
7, 144392, Note_on_c, 5, 77, 0
7, 144400, Note_on_c, 5, 76, 103
7, 144432, Note_on_c, 5, 76, 0
7, 144440, Note_on_c, 5, 76, 107
7, 144472, Note_on_c, 5, 76, 0
7, 144480, Note_on_c, 5, 76, 110
7, 144632, Note_on_c, 5, 76, 0
7, 144640, Note_on_c, 5, 74, 109
7, 144672, Note_on_c, 5, 74, 0
7, 144680, Note_on_c, 5, 74, 109
7, 144712, Note_on_c, 5, 74, 0
7, 144720, Note_on_c, 5, 74, 107
7, 144872, Note_on_c, 5, 74, 0
7, 144880, Note_on_c, 5, 72, 109
7, 144912, Note_on_c, 5, 72, 0
7, 144920, Note_on_c, 5, 72, 113
7, 144952, Note_on_c, 5, 72, 0
7, 144960, Note_on_c, 5, 72, 113
7, 145112, Note_on_c, 5, 72, 0
7, 145120, Note_on_c, 5, 70, 94
7, 145152, Note_on_c, 5, 70, 0
7, 145160, Note_on_c, 5, 70, 86
7, 145192, Note_on_c, 5, 70, 0
7, 145200, Note_on_c, 5, 70, 86
7, 145392, Note_on_c, 5, 70, 0
7, 145440, Note_on_c, 5, 71, 100
7, 145632, Note_on_c, 5, 71, 0
7, 145680, Note_on_c, 5, 82, 94
7, 145728, Note_on_c, 5, 82, 0
7, 145740, Note_on_c, 5, 79, 127
7, 145764, Note_on_c, 5, 79, 0
7, 145770, Note_on_c, 5, 77, 113
7, 145794, Note_on_c, 5, 77, 0
7, 145800, Note_on_c, 5, 75, 113
7, 145848, Note_on_c, 5, 75, 0
7, 145860, Note_on_c, 5, 72, 127
7, 145908, Note_on_c, 5, 72, 0
7, 145920, Note_on_c, 5, 72, 109
7, 145920, Note_on_c, 5, 77, 100
7, 145920, Note_on_c, 5, 65, 103
7, 145968, Note_on_c, 5, 65, 0
7, 145968, Note_on_c, 5, 77, 0
7, 145968, Note_on_c, 5, 72, 0
7, 146040, Note_on_c, 5, 79, 101
7, 146040, Note_on_c, 5, 72, 114
7, 146040, Note_on_c, 5, 64, 101
7, 146088, Note_on_c, 5, 64, 0
7, 146088, Note_on_c, 5, 72, 0
7, 146088, Note_on_c, 5, 79, 0
7, 146160, Note_on_c, 5, 70, 93
7, 146352, Note_on_c, 5, 70, 0
7, 146400, Note_on_c, 5, 71, 99
7, 146592, Note_on_c, 5, 71, 0
7, 146640, Note_on_c, 5, 82, 107
7, 146688, Note_on_c, 5, 82, 0
7, 146700, Note_on_c, 5, 79, 125
7, 146724, Note_on_c, 5, 79, 0
7, 146730, Note_on_c, 5, 77, 103
7, 146754, Note_on_c, 5, 77, 0
7, 146760, Note_on_c, 5, 76, 114
7, 146808, Note_on_c, 5, 76, 0
7, 146820, Note_on_c, 5, 72, 123
7, 146868, Note_on_c, 5, 72, 0
7, 146880, Note_on_c, 5, 81, 105
7, 146880, Note_on_c, 5, 72, 107
7, 146880, Note_on_c, 5, 65, 117
7, 146928, Note_on_c, 5, 65, 0
7, 146928, Note_on_c, 5, 72, 0
7, 146928, Note_on_c, 5, 81, 0
7, 147000, Note_on_c, 5, 64, 101
7, 147000, Note_on_c, 5, 72, 105
7, 147000, Note_on_c, 5, 79, 110
7, 147048, Note_on_c, 5, 79, 0
7, 147048, Note_on_c, 5, 72, 0
7, 147048, Note_on_c, 5, 64, 0
7, 147120, Note_on_c, 5, 65, 111
7, 147120, Note_on_c, 5, 77, 113
7, 147120, Note_on_c, 5, 72, 111
7, 147168, Note_on_c, 5, 72, 0
7, 147168, Note_on_c, 5, 77, 0
7, 147168, Note_on_c, 5, 65, 0
7, 147840, Note_on_c, 5, 82, 101
7, 147984, Note_on_c, 5, 82, 0
7, 148020, Note_on_c, 5, 82, 115
7, 148068, Note_on_c, 5, 82, 0
7, 148080, Note_on_c, 5, 81, 118
7, 148128, Note_on_c, 5, 81, 0
7, 148800, Note_on_c, 5, 82, 94
7, 148944, Note_on_c, 5, 82, 0
7, 148980, Note_on_c, 5, 82, 111
7, 149028, Note_on_c, 5, 82, 0
7, 149040, Note_on_c, 5, 81, 120
7, 149088, Note_on_c, 5, 81, 0
7, 149280, Note_on_c, 5, 82, 94
7, 149424, Note_on_c, 5, 82, 0
7, 149460, Note_on_c, 5, 82, 111
7, 149508, Note_on_c, 5, 82, 0
7, 149520, Note_on_c, 5, 81, 120
7, 149568, Note_on_c, 5, 81, 0
7, 149760, Note_on_c, 5, 82, 94
7, 149904, Note_on_c, 5, 82, 0
7, 149940, Note_on_c, 5, 82, 111
7, 149988, Note_on_c, 5, 82, 0
7, 150000, Note_on_c, 5, 81, 120
7, 150048, Note_on_c, 5, 81, 0
7, 150240, Note_on_c, 5, 81, 120
7, 150288, Note_on_c, 5, 81, 0
7, 150480, Note_on_c, 5, 81, 120
7, 150528, Note_on_c, 5, 81, 0
7, 150720, Note_on_c, 5, 81, 120
7, 150768, Note_on_c, 5, 81, 0
7, 150960, Note_on_c, 5, 81, 118
7, 151008, Note_on_c, 5, 81, 0
7, 151020, Note_on_c, 5, 69, 123
7, 151068, Note_on_c, 5, 69, 0
7, 151080, Note_on_c, 5, 70, 115
7, 151128, Note_on_c, 5, 70, 0
7, 151140, Note_on_c, 5, 74, 103
7, 151188, Note_on_c, 5, 74, 0
7, 151200, Note_on_c, 5, 72, 125
7, 151248, Note_on_c, 5, 72, 0
7, 151260, Note_on_c, 5, 70, 113
7, 151284, Note_on_c, 5, 70, 0
7, 151290, Note_on_c, 5, 69, 123
7, 151314, Note_on_c, 5, 69, 0
7, 151320, Note_on_c, 5, 67, 127
7, 151368, Note_on_c, 5, 67, 0
7, 151380, Note_on_c, 5, 60, 108
7, 151428, Note_on_c, 5, 60, 0
7, 151440, Note_on_c, 5, 65, 127
7, 151488, Note_on_c, 5, 65, 0
7, 151500, Note_on_c, 5, 67, 127
7, 151548, Note_on_c, 5, 67, 0
7, 151560, Note_on_c, 5, 69, 108
7, 151608, Note_on_c, 5, 69, 0
7, 151620, Note_on_c, 5, 70, 115
7, 151644, Note_on_c, 5, 70, 0
7, 151650, Note_on_c, 5, 69, 114
7, 151674, Note_on_c, 5, 69, 0
7, 151680, Note_on_c, 5, 67, 127
7, 151728, Note_on_c, 5, 67, 0
7, 151740, Note_on_c, 5, 69, 117
7, 151788, Note_on_c, 5, 69, 0
7, 151800, Note_on_c, 5, 70, 113
7, 151848, Note_on_c, 5, 70, 0
7, 151860, Note_on_c, 5, 72, 118
7, 151884, Note_on_c, 5, 72, 0
7, 151890, Note_on_c, 5, 70, 95
7, 151914, Note_on_c, 5, 70, 0
7, 151920, Note_on_c, 5, 69, 125
7, 151968, Note_on_c, 5, 69, 0
7, 151980, Note_on_c, 5, 70, 103
7, 152028, Note_on_c, 5, 70, 0
7, 152040, Note_on_c, 5, 72, 107
7, 152088, Note_on_c, 5, 72, 0
7, 152100, Note_on_c, 5, 74, 127
7, 152124, Note_on_c, 5, 74, 0
7, 152130, Note_on_c, 5, 72, 121
7, 152154, Note_on_c, 5, 72, 0
7, 152160, Note_on_c, 5, 70, 115
7, 152208, Note_on_c, 5, 70, 0
7, 152220, Note_on_c, 5, 72, 125
7, 152268, Note_on_c, 5, 72, 0
7, 152280, Note_on_c, 5, 74, 110
7, 152328, Note_on_c, 5, 74, 0
7, 152340, Note_on_c, 5, 76, 121
7, 152388, Note_on_c, 5, 76, 0
7, 152400, Note_on_c, 5, 77, 123
7, 152448, Note_on_c, 5, 77, 0
7, 154080, Note_on_c, 5, 70, 127
7, 154128, Note_on_c, 5, 70, 0
7, 154140, Note_on_c, 5, 72, 127
7, 154188, Note_on_c, 5, 72, 0
7, 154200, Note_on_c, 5, 74, 114
7, 154248, Note_on_c, 5, 74, 0
7, 154260, Note_on_c, 5, 76, 127
7, 154308, Note_on_c, 5, 76, 0
7, 154320, Note_on_c, 5, 77, 100
7, 154512, Note_on_c, 5, 77, 0
7, 154560, Note_on_c, 5, 65, 80
7, 154560, Note_on_c, 5, 72, 80
7, 154560, Note_on_c, 5, 79, 127
7, 154656, Note_on_c, 5, 72, 0
7, 154656, Note_on_c, 5, 65, 0
7, 154752, Note_on_c, 5, 79, 0
7, 154800, Note_on_c, 5, 65, 80
7, 154800, Note_on_c, 5, 72, 80
7, 154800, Note_on_c, 5, 81, 123
7, 154896, Note_on_c, 5, 72, 0
7, 154896, Note_on_c, 5, 65, 0
7, 154992, Note_on_c, 5, 81, 0
7, 155040, Note_on_c, 5, 81, 110
7, 155136, Note_on_c, 5, 81, 0
7, 155160, Note_on_c, 5, 81, 123
7, 155256, Note_on_c, 5, 81, 0
7, 155280, Note_on_c, 5, 65, 80
7, 155280, Note_on_c, 5, 72, 80
7, 155280, Note_on_c, 5, 81, 100
7, 155376, Note_on_c, 5, 72, 0
7, 155376, Note_on_c, 5, 65, 0
7, 155472, Note_on_c, 5, 81, 0
7, 155520, Note_on_c, 5, 69, 107
7, 155712, Note_on_c, 5, 69, 0
7, 155760, Note_on_c, 5, 69, 116
7, 155952, Note_on_c, 5, 69, 0
7, 155952, End_track
8, 0, Start_track
8, 0, MIDI_port, 0
8, 0, Title_t, "Violin II"
8, 0, Program_c, 5, 48
8, 0, Control_c, 5, 7, 112
8, 480, Note_on_c, 5, 65, 127
8, 528, Note_on_c, 5, 65, 0
8, 540, Note_on_c, 5, 64, 116
8, 588, Note_on_c, 5, 64, 0
8, 600, Note_on_c, 5, 65, 114
8, 648, Note_on_c, 5, 65, 0
8, 660, Note_on_c, 5, 67, 127
8, 684, Note_on_c, 5, 67, 0
8, 690, Note_on_c, 5, 65, 121
8, 714, Note_on_c, 5, 65, 0
8, 720, Note_on_c, 5, 64, 118
8, 912, Note_on_c, 5, 64, 0
8, 1020, Note_on_c, 5, 57, 109
8, 1068, Note_on_c, 5, 57, 0
8, 1080, Note_on_c, 5, 58, 123
8, 1128, Note_on_c, 5, 58, 0
8, 1140, Note_on_c, 5, 62, 127
8, 1188, Note_on_c, 5, 62, 0
8, 1200, Note_on_c, 5, 60, 91
8, 1488, Note_on_c, 5, 60, 0
8, 1500, Note_on_c, 5, 57, 111
8, 1548, Note_on_c, 5, 57, 0
8, 1560, Note_on_c, 5, 58, 121
8, 1608, Note_on_c, 5, 58, 0
8, 1620, Note_on_c, 5, 62, 127
8, 1668, Note_on_c, 5, 62, 0
8, 1680, Note_on_c, 5, 60, 113
8, 1872, Note_on_c, 5, 60, 0
8, 1920, Note_on_c, 5, 60, 127
8, 2016, Note_on_c, 5, 60, 0
8, 2040, Note_on_c, 5, 65, 127
8, 2136, Note_on_c, 5, 65, 0
8, 2160, Note_on_c, 5, 64, 110
8, 2304, Note_on_c, 5, 64, 0
8, 2340, Note_on_c, 5, 65, 127
8, 2388, Note_on_c, 5, 65, 0
8, 2400, Note_on_c, 5, 70, 118
8, 2496, Note_on_c, 5, 70, 0
8, 2520, Note_on_c, 5, 69, 127
8, 2616, Note_on_c, 5, 69, 0
8, 2640, Note_on_c, 5, 64, 118
8, 2832, Note_on_c, 5, 64, 0
8, 2880, Note_on_c, 5, 65, 127
8, 2976, Note_on_c, 5, 65, 0
8, 3000, Note_on_c, 5, 65, 127
8, 3096, Note_on_c, 5, 65, 0
8, 3120, Note_on_c, 5, 64, 111
8, 3264, Note_on_c, 5, 64, 0
8, 3300, Note_on_c, 5, 65, 103
8, 3348, Note_on_c, 5, 65, 0
8, 3360, Note_on_c, 5, 70, 118
8, 3456, Note_on_c, 5, 70, 0
8, 3480, Note_on_c, 5, 69, 127
8, 3576, Note_on_c, 5, 69, 0
8, 3600, Note_on_c, 5, 64, 109
8, 3744, Note_on_c, 5, 64, 0
8, 3780, Note_on_c, 5, 65, 127
8, 3828, Note_on_c, 5, 65, 0
8, 3840, Note_on_c, 5, 64, 123
8, 3984, Note_on_c, 5, 64, 0
8, 4020, Note_on_c, 5, 65, 111
8, 4068, Note_on_c, 5, 65, 0
8, 4080, Note_on_c, 5, 64, 123
8, 4224, Note_on_c, 5, 64, 0
8, 4260, Note_on_c, 5, 65, 111
8, 4308, Note_on_c, 5, 65, 0
8, 4320, Note_on_c, 5, 64, 123
8, 4464, Note_on_c, 5, 64, 0
8, 4500, Note_on_c, 5, 65, 111
8, 4548, Note_on_c, 5, 65, 0
8, 4560, Note_on_c, 5, 64, 123
8, 4704, Note_on_c, 5, 64, 0
8, 4740, Note_on_c, 5, 65, 111
8, 4788, Note_on_c, 5, 65, 0
8, 4800, Note_on_c, 5, 64, 123
8, 4944, Note_on_c, 5, 64, 0
8, 4980, Note_on_c, 5, 65, 111
8, 5028, Note_on_c, 5, 65, 0
8, 5040, Note_on_c, 5, 64, 123
8, 5184, Note_on_c, 5, 64, 0
8, 5220, Note_on_c, 5, 65, 111
8, 5268, Note_on_c, 5, 65, 0
8, 5280, Note_on_c, 5, 64, 123
8, 5424, Note_on_c, 5, 64, 0
8, 5460, Note_on_c, 5, 65, 111
8, 5508, Note_on_c, 5, 65, 0
8, 5520, Note_on_c, 5, 64, 123
8, 5664, Note_on_c, 5, 64, 0
8, 5700, Note_on_c, 5, 65, 111
8, 5748, Note_on_c, 5, 65, 0
8, 5760, Note_on_c, 5, 64, 127
8, 5808, Note_on_c, 5, 64, 0
8, 6060, Note_on_c, 5, 57, 127
8, 6084, Note_on_c, 5, 57, 0
8, 6090, Note_on_c, 5, 58, 121
8, 6114, Note_on_c, 5, 58, 0
8, 6120, Note_on_c, 5, 60, 127
8, 6168, Note_on_c, 5, 60, 0
8, 6180, Note_on_c, 5, 61, 118
8, 6228, Note_on_c, 5, 61, 0
8, 6240, Note_on_c, 5, 62, 127
8, 6288, Note_on_c, 5, 62, 0
8, 6300, Note_on_c, 5, 58, 115
8, 6324, Note_on_c, 5, 58, 0
8, 6330, Note_on_c, 5, 60, 120
8, 6354, Note_on_c, 5, 60, 0
8, 6360, Note_on_c, 5, 62, 127
8, 6408, Note_on_c, 5, 62, 0
8, 6420, Note_on_c, 5, 64, 127
8, 6468, Note_on_c, 5, 64, 0
8, 6480, Note_on_c, 5, 65, 127
8, 6528, Note_on_c, 5, 65, 0
8, 6540, Note_on_c, 5, 62, 118
8, 6564, Note_on_c, 5, 62, 0
8, 6570, Note_on_c, 5, 64, 127
8, 6594, Note_on_c, 5, 64, 0
8, 6600, Note_on_c, 5, 65, 127
8, 6648, Note_on_c, 5, 65, 0
8, 6660, Note_on_c, 5, 67, 127
8, 6708, Note_on_c, 5, 67, 0
8, 6720, Note_on_c, 5, 69, 127
8, 6768, Note_on_c, 5, 69, 0
8, 7680, Note_on_c, 5, 72, 116
8, 8592, Note_on_c, 5, 72, 0
8, 8640, Note_on_c, 5, 69, 127
8, 8688, Note_on_c, 5, 69, 0
8, 8700, Note_on_c, 5, 69, 127
8, 8748, Note_on_c, 5, 69, 0
8, 8760, Note_on_c, 5, 70, 121
8, 8808, Note_on_c, 5, 70, 0
8, 8820, Note_on_c, 5, 74, 127
8, 8868, Note_on_c, 5, 74, 0
8, 8880, Note_on_c, 5, 72, 117
8, 8928, Note_on_c, 5, 72, 0
8, 8940, Note_on_c, 5, 70, 127
8, 8964, Note_on_c, 5, 70, 0
8, 8970, Note_on_c, 5, 69, 127
8, 8994, Note_on_c, 5, 69, 0
8, 9000, Note_on_c, 5, 67, 127
8, 9048, Note_on_c, 5, 67, 0
8, 9060, Note_on_c, 5, 60, 120
8, 9108, Note_on_c, 5, 60, 0
8, 9120, Note_on_c, 5, 65, 127
8, 9168, Note_on_c, 5, 65, 0
8, 9180, Note_on_c, 5, 76, 127
8, 9228, Note_on_c, 5, 76, 0
8, 9240, Note_on_c, 5, 77, 125
8, 9288, Note_on_c, 5, 77, 0
8, 9300, Note_on_c, 5, 79, 127
8, 9324, Note_on_c, 5, 79, 0
8, 9330, Note_on_c, 5, 77, 127
8, 9354, Note_on_c, 5, 77, 0
8, 9360, Note_on_c, 5, 76, 127
8, 9408, Note_on_c, 5, 76, 0
8, 9420, Note_on_c, 5, 77, 127
8, 9468, Note_on_c, 5, 77, 0
8, 9480, Note_on_c, 5, 79, 127
8, 9528, Note_on_c, 5, 79, 0
8, 9540, Note_on_c, 5, 81, 127
8, 9564, Note_on_c, 5, 81, 0
8, 9570, Note_on_c, 5, 79, 125
8, 9594, Note_on_c, 5, 79, 0
8, 9600, Note_on_c, 5, 77, 127
8, 9648, Note_on_c, 5, 77, 0
8, 9660, Note_on_c, 5, 81, 103
8, 9708, Note_on_c, 5, 81, 0
8, 9720, Note_on_c, 5, 81, 127
8, 9768, Note_on_c, 5, 81, 0
8, 9780, Note_on_c, 5, 81, 121
8, 9828, Note_on_c, 5, 81, 0
8, 9840, Note_on_c, 5, 81, 127
8, 9936, Note_on_c, 5, 81, 0
8, 9960, Note_on_c, 5, 79, 127
8, 9984, Note_on_c, 5, 79, 0
8, 9990, Note_on_c, 5, 77, 117
8, 10014, Note_on_c, 5, 77, 0
8, 10020, Note_on_c, 5, 76, 127
8, 10044, Note_on_c, 5, 76, 0
8, 10050, Note_on_c, 5, 74, 92
8, 10074, Note_on_c, 5, 74, 0
8, 10080, Note_on_c, 5, 72, 121
8, 10128, Note_on_c, 5, 72, 0
8, 10140, Note_on_c, 5, 74, 127
8, 10188, Note_on_c, 5, 74, 0
8, 10200, Note_on_c, 5, 76, 127
8, 10248, Note_on_c, 5, 76, 0
8, 10260, Note_on_c, 5, 77, 121
8, 10284, Note_on_c, 5, 77, 0
8, 10290, Note_on_c, 5, 76, 116
8, 10314, Note_on_c, 5, 76, 0
8, 10320, Note_on_c, 5, 74, 123
8, 10368, Note_on_c, 5, 74, 0
8, 10380, Note_on_c, 5, 76, 120
8, 10428, Note_on_c, 5, 76, 0
8, 10440, Note_on_c, 5, 77, 127
8, 10488, Note_on_c, 5, 77, 0
8, 10500, Note_on_c, 5, 79, 125
8, 10524, Note_on_c, 5, 79, 0
8, 10530, Note_on_c, 5, 77, 121
8, 10554, Note_on_c, 5, 77, 0
8, 10560, Note_on_c, 5, 76, 125
8, 10608, Note_on_c, 5, 76, 0
8, 10620, Note_on_c, 5, 79, 114
8, 10668, Note_on_c, 5, 79, 0
8, 10680, Note_on_c, 5, 79, 127
8, 10728, Note_on_c, 5, 79, 0
8, 10740, Note_on_c, 5, 79, 127
8, 10788, Note_on_c, 5, 79, 0
8, 10800, Note_on_c, 5, 79, 121
8, 10896, Note_on_c, 5, 79, 0
8, 10920, Note_on_c, 5, 81, 113
8, 10944, Note_on_c, 5, 81, 0
8, 10950, Note_on_c, 5, 79, 123
8, 10974, Note_on_c, 5, 79, 0
8, 10980, Note_on_c, 5, 77, 121
8, 11004, Note_on_c, 5, 77, 0
8, 11010, Note_on_c, 5, 76, 98
8, 11034, Note_on_c, 5, 76, 0
8, 11040, Note_on_c, 5, 77, 127
8, 11088, Note_on_c, 5, 77, 0
8, 11100, Note_on_c, 5, 79, 116
8, 11148, Note_on_c, 5, 79, 0
8, 11160, Note_on_c, 5, 81, 109
8, 11208, Note_on_c, 5, 81, 0
8, 11220, Note_on_c, 5, 82, 109
8, 11244, Note_on_c, 5, 82, 0
8, 11250, Note_on_c, 5, 81, 105
8, 11274, Note_on_c, 5, 81, 0
8, 11280, Note_on_c, 5, 79, 123
8, 11328, Note_on_c, 5, 79, 0
8, 11340, Note_on_c, 5, 72, 104
8, 11388, Note_on_c, 5, 72, 0
8, 11400, Note_on_c, 5, 79, 125
8, 11448, Note_on_c, 5, 79, 0
8, 11460, Note_on_c, 5, 72, 109
8, 11508, Note_on_c, 5, 72, 0
8, 11520, Note_on_c, 5, 77, 127
8, 11568, Note_on_c, 5, 77, 0
8, 11580, Note_on_c, 5, 79, 121
8, 11628, Note_on_c, 5, 79, 0
8, 11640, Note_on_c, 5, 81, 108
8, 11688, Note_on_c, 5, 81, 0
8, 11700, Note_on_c, 5, 82, 109
8, 11724, Note_on_c, 5, 82, 0
8, 11730, Note_on_c, 5, 81, 109
8, 11754, Note_on_c, 5, 81, 0
8, 11760, Note_on_c, 5, 79, 127
8, 11808, Note_on_c, 5, 79, 0
8, 11820, Note_on_c, 5, 76, 114
8, 11868, Note_on_c, 5, 76, 0
8, 11880, Note_on_c, 5, 79, 117
8, 11928, Note_on_c, 5, 79, 0
8, 11940, Note_on_c, 5, 76, 114
8, 11988, Note_on_c, 5, 76, 0
8, 12000, Note_on_c, 5, 77, 127
8, 12048, Note_on_c, 5, 77, 0
8, 12060, Note_on_c, 5, 76, 127
8, 12108, Note_on_c, 5, 76, 0
8, 12120, Note_on_c, 5, 79, 112
8, 12168, Note_on_c, 5, 79, 0
8, 12180, Note_on_c, 5, 76, 104
8, 12228, Note_on_c, 5, 76, 0
8, 12240, Note_on_c, 5, 77, 127
8, 12288, Note_on_c, 5, 77, 0
8, 12300, Note_on_c, 5, 76, 109
8, 12348, Note_on_c, 5, 76, 0
8, 12360, Note_on_c, 5, 79, 123
8, 12408, Note_on_c, 5, 79, 0
8, 12420, Note_on_c, 5, 76, 107
8, 12468, Note_on_c, 5, 76, 0
8, 12480, Note_on_c, 5, 77, 50
8, 12480, Note_on_c, 5, 69, 58
8, 12528, Note_on_c, 5, 69, 0
8, 12528, Note_on_c, 5, 77, 0
8, 15420, Note_on_c, 5, 69, 127
8, 15468, Note_on_c, 5, 69, 0
8, 15480, Note_on_c, 5, 67, 125
8, 15528, Note_on_c, 5, 67, 0
8, 15540, Note_on_c, 5, 66, 115
8, 15588, Note_on_c, 5, 66, 0
8, 15600, Note_on_c, 5, 67, 109
8, 15648, Note_on_c, 5, 67, 0
8, 15840, Note_on_c, 5, 59, 107
8, 15888, Note_on_c, 5, 59, 0
8, 15900, Note_on_c, 5, 62, 127
8, 15948, Note_on_c, 5, 62, 0
8, 15960, Note_on_c, 5, 59, 123
8, 16008, Note_on_c, 5, 59, 0
8, 16020, Note_on_c, 5, 62, 118
8, 16068, Note_on_c, 5, 62, 0
8, 16080, Note_on_c, 5, 59, 117
8, 16128, Note_on_c, 5, 59, 0
8, 16140, Note_on_c, 5, 62, 113
8, 16188, Note_on_c, 5, 62, 0
8, 16200, Note_on_c, 5, 59, 111
8, 16248, Note_on_c, 5, 59, 0
8, 16260, Note_on_c, 5, 62, 127
8, 16308, Note_on_c, 5, 62, 0
8, 16320, Note_on_c, 5, 60, 121
8, 16368, Note_on_c, 5, 60, 0
8, 16380, Note_on_c, 5, 64, 113
8, 16428, Note_on_c, 5, 64, 0
8, 16440, Note_on_c, 5, 60, 117
8, 16488, Note_on_c, 5, 60, 0
8, 16500, Note_on_c, 5, 64, 125
8, 16548, Note_on_c, 5, 64, 0
8, 16560, Note_on_c, 5, 60, 118
8, 16608, Note_on_c, 5, 60, 0
8, 16620, Note_on_c, 5, 64, 120
8, 16668, Note_on_c, 5, 64, 0
8, 16680, Note_on_c, 5, 60, 117
8, 16728, Note_on_c, 5, 60, 0
8, 16740, Note_on_c, 5, 64, 125
8, 16788, Note_on_c, 5, 64, 0
8, 16800, Note_on_c, 5, 69, 118
8, 16848, Note_on_c, 5, 69, 0
8, 16860, Note_on_c, 5, 67, 127
8, 16908, Note_on_c, 5, 67, 0
8, 16920, Note_on_c, 5, 65, 123
8, 16968, Note_on_c, 5, 65, 0
8, 16980, Note_on_c, 5, 62, 120
8, 17028, Note_on_c, 5, 62, 0
8, 17040, Note_on_c, 5, 55, 109
8, 17088, Note_on_c, 5, 55, 0
8, 17100, Note_on_c, 5, 65, 123
8, 17148, Note_on_c, 5, 65, 0
8, 17160, Note_on_c, 5, 62, 121
8, 17208, Note_on_c, 5, 62, 0
8, 17220, Note_on_c, 5, 55, 100
8, 17268, Note_on_c, 5, 55, 0
8, 17280, Note_on_c, 5, 69, 123
8, 17328, Note_on_c, 5, 69, 0
8, 17340, Note_on_c, 5, 67, 127
8, 17388, Note_on_c, 5, 67, 0
8, 17400, Note_on_c, 5, 64, 127
8, 17448, Note_on_c, 5, 64, 0
8, 17460, Note_on_c, 5, 60, 104
8, 17508, Note_on_c, 5, 60, 0
8, 17520, Note_on_c, 5, 55, 107
8, 17568, Note_on_c, 5, 55, 0
8, 17580, Note_on_c, 5, 64, 127
8, 17628, Note_on_c, 5, 64, 0
8, 17640, Note_on_c, 5, 60, 121
8, 17688, Note_on_c, 5, 60, 0
8, 17700, Note_on_c, 5, 55, 114
8, 17748, Note_on_c, 5, 55, 0
8, 17760, Note_on_c, 5, 62, 127
8, 17808, Note_on_c, 5, 62, 0
8, 17820, Note_on_c, 5, 59, 125
8, 17868, Note_on_c, 5, 59, 0
8, 17880, Note_on_c, 5, 62, 123
8, 17928, Note_on_c, 5, 62, 0
8, 17940, Note_on_c, 5, 59, 125
8, 17988, Note_on_c, 5, 59, 0
8, 18000, Note_on_c, 5, 62, 113
8, 18048, Note_on_c, 5, 62, 0
8, 18060, Note_on_c, 5, 59, 109
8, 18108, Note_on_c, 5, 59, 0
8, 18120, Note_on_c, 5, 62, 114
8, 18168, Note_on_c, 5, 62, 0
8, 18180, Note_on_c, 5, 59, 117
8, 18228, Note_on_c, 5, 59, 0
8, 18240, Note_on_c, 5, 64, 123
8, 18288, Note_on_c, 5, 64, 0
8, 18300, Note_on_c, 5, 60, 125
8, 18348, Note_on_c, 5, 60, 0
8, 18360, Note_on_c, 5, 64, 118
8, 18408, Note_on_c, 5, 64, 0
8, 18420, Note_on_c, 5, 60, 118
8, 18468, Note_on_c, 5, 60, 0
8, 18480, Note_on_c, 5, 64, 118
8, 18528, Note_on_c, 5, 64, 0
8, 18540, Note_on_c, 5, 60, 111
8, 18588, Note_on_c, 5, 60, 0
8, 18600, Note_on_c, 5, 64, 118
8, 18648, Note_on_c, 5, 64, 0
8, 18660, Note_on_c, 5, 60, 118
8, 18708, Note_on_c, 5, 60, 0
8, 18720, Note_on_c, 5, 65, 127
8, 18768, Note_on_c, 5, 65, 0
8, 18780, Note_on_c, 5, 62, 125
8, 18828, Note_on_c, 5, 62, 0
8, 18840, Note_on_c, 5, 67, 109
8, 18888, Note_on_c, 5, 67, 0
8, 18900, Note_on_c, 5, 62, 125
8, 18948, Note_on_c, 5, 62, 0
8, 18960, Note_on_c, 5, 67, 121
8, 19008, Note_on_c, 5, 67, 0
8, 19020, Note_on_c, 5, 62, 111
8, 19068, Note_on_c, 5, 62, 0
8, 19080, Note_on_c, 5, 67, 120
8, 19128, Note_on_c, 5, 67, 0
8, 19140, Note_on_c, 5, 62, 123
8, 19188, Note_on_c, 5, 62, 0
8, 19200, Note_on_c, 5, 67, 125
8, 19248, Note_on_c, 5, 67, 0
8, 19260, Note_on_c, 5, 64, 117
8, 19308, Note_on_c, 5, 64, 0
8, 19320, Note_on_c, 5, 67, 108
8, 19368, Note_on_c, 5, 67, 0
8, 19380, Note_on_c, 5, 64, 118
8, 19428, Note_on_c, 5, 64, 0
8, 19440, Note_on_c, 5, 67, 125
8, 19488, Note_on_c, 5, 67, 0
8, 19500, Note_on_c, 5, 64, 125
8, 19548, Note_on_c, 5, 64, 0
8, 19560, Note_on_c, 5, 67, 127
8, 19608, Note_on_c, 5, 67, 0
8, 19620, Note_on_c, 5, 64, 120
8, 19668, Note_on_c, 5, 64, 0
8, 19680, Note_on_c, 5, 74, 125
8, 19712, Note_on_c, 5, 74, 0
8, 19720, Note_on_c, 5, 71, 116
8, 19752, Note_on_c, 5, 71, 0
8, 19760, Note_on_c, 5, 74, 120
8, 19792, Note_on_c, 5, 74, 0
8, 19800, Note_on_c, 5, 71, 120
8, 19832, Note_on_c, 5, 71, 0
8, 19840, Note_on_c, 5, 74, 123
8, 19872, Note_on_c, 5, 74, 0
8, 19880, Note_on_c, 5, 71, 123
8, 19912, Note_on_c, 5, 71, 0
8, 19920, Note_on_c, 5, 74, 125
8, 19952, Note_on_c, 5, 74, 0
8, 19960, Note_on_c, 5, 71, 118
8, 19992, Note_on_c, 5, 71, 0
8, 20000, Note_on_c, 5, 74, 121
8, 20032, Note_on_c, 5, 74, 0
8, 20040, Note_on_c, 5, 71, 117
8, 20072, Note_on_c, 5, 71, 0
8, 20080, Note_on_c, 5, 74, 118
8, 20112, Note_on_c, 5, 74, 0
8, 20120, Note_on_c, 5, 71, 117
8, 20152, Note_on_c, 5, 71, 0
8, 20160, Note_on_c, 5, 76, 120
8, 20192, Note_on_c, 5, 76, 0
8, 20200, Note_on_c, 5, 72, 114
8, 20232, Note_on_c, 5, 72, 0
8, 20240, Note_on_c, 5, 76, 117
8, 20272, Note_on_c, 5, 76, 0
8, 20280, Note_on_c, 5, 72, 111
8, 20312, Note_on_c, 5, 72, 0
8, 20320, Note_on_c, 5, 76, 118
8, 20352, Note_on_c, 5, 76, 0
8, 20360, Note_on_c, 5, 72, 111
8, 20392, Note_on_c, 5, 72, 0
8, 20400, Note_on_c, 5, 76, 121
8, 20432, Note_on_c, 5, 76, 0
8, 20440, Note_on_c, 5, 72, 111
8, 20472, Note_on_c, 5, 72, 0
8, 20480, Note_on_c, 5, 76, 117
8, 20512, Note_on_c, 5, 76, 0
8, 20520, Note_on_c, 5, 72, 116
8, 20552, Note_on_c, 5, 72, 0
8, 20560, Note_on_c, 5, 76, 121
8, 20592, Note_on_c, 5, 76, 0
8, 20600, Note_on_c, 5, 72, 127
8, 20632, Note_on_c, 5, 72, 0
8, 20640, Note_on_c, 5, 77, 127
8, 20664, Note_on_c, 5, 77, 0
8, 20670, Note_on_c, 5, 74, 117
8, 20694, Note_on_c, 5, 74, 0
8, 20700, Note_on_c, 5, 77, 127
8, 20724, Note_on_c, 5, 77, 0
8, 20730, Note_on_c, 5, 74, 116
8, 20754, Note_on_c, 5, 74, 0
8, 20760, Note_on_c, 5, 77, 123
8, 20784, Note_on_c, 5, 77, 0
8, 20790, Note_on_c, 5, 74, 112
8, 20814, Note_on_c, 5, 74, 0
8, 20820, Note_on_c, 5, 77, 117
8, 20844, Note_on_c, 5, 77, 0
8, 20850, Note_on_c, 5, 74, 121
8, 20874, Note_on_c, 5, 74, 0
8, 20880, Note_on_c, 5, 77, 120
8, 20904, Note_on_c, 5, 77, 0
8, 20910, Note_on_c, 5, 74, 112
8, 20934, Note_on_c, 5, 74, 0
8, 20940, Note_on_c, 5, 77, 117
8, 20964, Note_on_c, 5, 77, 0
8, 20970, Note_on_c, 5, 74, 120
8, 20994, Note_on_c, 5, 74, 0
8, 21000, Note_on_c, 5, 77, 127
8, 21024, Note_on_c, 5, 77, 0
8, 21030, Note_on_c, 5, 74, 116
8, 21054, Note_on_c, 5, 74, 0
8, 21060, Note_on_c, 5, 77, 127
8, 21084, Note_on_c, 5, 77, 0
8, 21090, Note_on_c, 5, 74, 107
8, 21114, Note_on_c, 5, 74, 0
8, 21120, Note_on_c, 5, 76, 127
8, 21144, Note_on_c, 5, 76, 0
8, 21150, Note_on_c, 5, 72, 106
8, 21174, Note_on_c, 5, 72, 0
8, 21180, Note_on_c, 5, 76, 117
8, 21204, Note_on_c, 5, 76, 0
8, 21210, Note_on_c, 5, 72, 111
8, 21234, Note_on_c, 5, 72, 0
8, 21240, Note_on_c, 5, 76, 116
8, 21264, Note_on_c, 5, 76, 0
8, 21270, Note_on_c, 5, 72, 113
8, 21294, Note_on_c, 5, 72, 0
8, 21300, Note_on_c, 5, 76, 113
8, 21324, Note_on_c, 5, 76, 0
8, 21330, Note_on_c, 5, 72, 116
8, 21354, Note_on_c, 5, 72, 0
8, 21360, Note_on_c, 5, 76, 125
8, 21384, Note_on_c, 5, 76, 0
8, 21390, Note_on_c, 5, 72, 118
8, 21414, Note_on_c, 5, 72, 0
8, 21420, Note_on_c, 5, 76, 123
8, 21444, Note_on_c, 5, 76, 0
8, 21450, Note_on_c, 5, 72, 118
8, 21474, Note_on_c, 5, 72, 0
8, 21480, Note_on_c, 5, 76, 120
8, 21504, Note_on_c, 5, 76, 0
8, 21510, Note_on_c, 5, 72, 113
8, 21534, Note_on_c, 5, 72, 0
8, 21540, Note_on_c, 5, 76, 125
8, 21564, Note_on_c, 5, 76, 0
8, 21570, Note_on_c, 5, 72, 118
8, 21594, Note_on_c, 5, 72, 0
8, 21600, Note_on_c, 5, 77, 127
8, 21624, Note_on_c, 5, 77, 0
8, 21630, Note_on_c, 5, 71, 125
8, 21654, Note_on_c, 5, 71, 0
8, 21660, Note_on_c, 5, 77, 120
8, 21684, Note_on_c, 5, 77, 0
8, 21690, Note_on_c, 5, 71, 123
8, 21714, Note_on_c, 5, 71, 0
8, 21720, Note_on_c, 5, 77, 125
8, 21744, Note_on_c, 5, 77, 0
8, 21750, Note_on_c, 5, 71, 123
8, 21774, Note_on_c, 5, 71, 0
8, 21780, Note_on_c, 5, 77, 121
8, 21804, Note_on_c, 5, 77, 0
8, 21810, Note_on_c, 5, 71, 127
8, 21834, Note_on_c, 5, 71, 0
8, 21840, Note_on_c, 5, 77, 127
8, 21864, Note_on_c, 5, 77, 0
8, 21870, Note_on_c, 5, 71, 118
8, 21894, Note_on_c, 5, 71, 0
8, 21900, Note_on_c, 5, 77, 125
8, 21924, Note_on_c, 5, 77, 0
8, 21930, Note_on_c, 5, 71, 118
8, 21954, Note_on_c, 5, 71, 0
8, 21960, Note_on_c, 5, 77, 127
8, 21984, Note_on_c, 5, 77, 0
8, 21990, Note_on_c, 5, 71, 123
8, 22014, Note_on_c, 5, 71, 0
8, 22020, Note_on_c, 5, 77, 127
8, 22044, Note_on_c, 5, 77, 0
8, 22050, Note_on_c, 5, 71, 121
8, 22074, Note_on_c, 5, 71, 0
8, 22080, Note_on_c, 5, 76, 127
8, 22224, Note_on_c, 5, 76, 0
8, 22260, Note_on_c, 5, 77, 127
8, 22284, Note_on_c, 5, 77, 0
8, 22290, Note_on_c, 5, 79, 127
8, 22314, Note_on_c, 5, 79, 0
8, 22320, Note_on_c, 5, 81, 127
8, 22368, Note_on_c, 5, 81, 0
8, 22380, Note_on_c, 5, 79, 127
8, 22404, Note_on_c, 5, 79, 0
8, 22410, Note_on_c, 5, 77, 116
8, 22434, Note_on_c, 5, 77, 0
8, 22440, Note_on_c, 5, 76, 127
8, 22488, Note_on_c, 5, 76, 0
8, 22500, Note_on_c, 5, 77, 127
8, 22524, Note_on_c, 5, 77, 0
8, 22530, Note_on_c, 5, 79, 112
8, 22554, Note_on_c, 5, 79, 0
8, 22560, Note_on_c, 5, 81, 127
8, 22608, Note_on_c, 5, 81, 0
8, 22620, Note_on_c, 5, 79, 127
8, 22644, Note_on_c, 5, 79, 0
8, 22650, Note_on_c, 5, 77, 121
8, 22674, Note_on_c, 5, 77, 0
8, 22680, Note_on_c, 5, 76, 127
8, 22728, Note_on_c, 5, 76, 0
8, 22740, Note_on_c, 5, 77, 127
8, 22764, Note_on_c, 5, 77, 0
8, 22770, Note_on_c, 5, 79, 127
8, 22794, Note_on_c, 5, 79, 0
8, 22800, Note_on_c, 5, 81, 127
8, 22848, Note_on_c, 5, 81, 0
8, 23040, Note_on_c, 5, 65, 127
8, 23088, Note_on_c, 5, 65, 0
8, 23100, Note_on_c, 5, 60, 106
8, 23148, Note_on_c, 5, 60, 0
8, 23160, Note_on_c, 5, 65, 127
8, 23208, Note_on_c, 5, 65, 0
8, 23220, Note_on_c, 5, 60, 123
8, 23268, Note_on_c, 5, 60, 0
8, 23280, Note_on_c, 5, 64, 127
8, 23328, Note_on_c, 5, 64, 0
8, 23340, Note_on_c, 5, 60, 102
8, 23388, Note_on_c, 5, 60, 0
8, 23400, Note_on_c, 5, 64, 127
8, 23448, Note_on_c, 5, 64, 0
8, 23460, Note_on_c, 5, 60, 118
8, 23508, Note_on_c, 5, 60, 0
8, 23520, Note_on_c, 5, 65, 127
8, 23568, Note_on_c, 5, 65, 0
8, 23580, Note_on_c, 5, 62, 102
8, 23628, Note_on_c, 5, 62, 0
8, 23640, Note_on_c, 5, 65, 118
8, 23688, Note_on_c, 5, 65, 0
8, 23700, Note_on_c, 5, 62, 127
8, 23748, Note_on_c, 5, 62, 0
8, 23760, Note_on_c, 5, 76, 127
8, 23904, Note_on_c, 5, 76, 0
8, 23940, Note_on_c, 5, 77, 127
8, 23964, Note_on_c, 5, 77, 0
8, 23970, Note_on_c, 5, 79, 127
8, 23994, Note_on_c, 5, 79, 0
8, 24000, Note_on_c, 5, 81, 127
8, 24048, Note_on_c, 5, 81, 0
8, 24060, Note_on_c, 5, 79, 127
8, 24084, Note_on_c, 5, 79, 0
8, 24090, Note_on_c, 5, 77, 127
8, 24114, Note_on_c, 5, 77, 0
8, 24120, Note_on_c, 5, 76, 123
8, 24168, Note_on_c, 5, 76, 0
8, 24180, Note_on_c, 5, 77, 127
8, 24204, Note_on_c, 5, 77, 0
8, 24210, Note_on_c, 5, 79, 127
8, 24234, Note_on_c, 5, 79, 0
8, 24240, Note_on_c, 5, 81, 127
8, 24288, Note_on_c, 5, 81, 0
8, 24300, Note_on_c, 5, 79, 127
8, 24324, Note_on_c, 5, 79, 0
8, 24330, Note_on_c, 5, 77, 127
8, 24354, Note_on_c, 5, 77, 0
8, 24360, Note_on_c, 5, 76, 123
8, 24408, Note_on_c, 5, 76, 0
8, 24420, Note_on_c, 5, 77, 127
8, 24444, Note_on_c, 5, 77, 0
8, 24450, Note_on_c, 5, 79, 127
8, 24474, Note_on_c, 5, 79, 0
8, 24480, Note_on_c, 5, 81, 127
8, 24528, Note_on_c, 5, 81, 0
8, 24720, Note_on_c, 5, 65, 127
8, 24768, Note_on_c, 5, 65, 0
8, 24780, Note_on_c, 5, 60, 127
8, 24828, Note_on_c, 5, 60, 0
8, 24840, Note_on_c, 5, 65, 127
8, 24888, Note_on_c, 5, 65, 0
8, 24900, Note_on_c, 5, 60, 127
8, 24948, Note_on_c, 5, 60, 0
8, 24960, Note_on_c, 5, 64, 123
8, 25008, Note_on_c, 5, 64, 0
8, 25020, Note_on_c, 5, 60, 106
8, 25068, Note_on_c, 5, 60, 0
8, 25080, Note_on_c, 5, 64, 121
8, 25128, Note_on_c, 5, 64, 0
8, 25140, Note_on_c, 5, 60, 107
8, 25188, Note_on_c, 5, 60, 0
8, 25200, Note_on_c, 5, 65, 125
8, 25248, Note_on_c, 5, 65, 0
8, 25260, Note_on_c, 5, 62, 125
8, 25308, Note_on_c, 5, 62, 0
8, 25320, Note_on_c, 5, 65, 125
8, 25368, Note_on_c, 5, 65, 0
8, 25380, Note_on_c, 5, 62, 125
8, 25428, Note_on_c, 5, 62, 0
8, 25440, Note_on_c, 5, 64, 117
8, 25488, Note_on_c, 5, 64, 0
8, 25500, Note_on_c, 5, 60, 127
8, 25548, Note_on_c, 5, 60, 0
8, 25560, Note_on_c, 5, 60, 123
8, 25608, Note_on_c, 5, 60, 0
8, 25620, Note_on_c, 5, 60, 121
8, 25668, Note_on_c, 5, 60, 0
8, 25680, Note_on_c, 5, 65, 127
8, 25728, Note_on_c, 5, 65, 0
8, 25740, Note_on_c, 5, 60, 123
8, 25788, Note_on_c, 5, 60, 0
8, 25800, Note_on_c, 5, 65, 118
8, 25848, Note_on_c, 5, 65, 0
8, 25860, Note_on_c, 5, 60, 127
8, 25908, Note_on_c, 5, 60, 0
8, 25920, Note_on_c, 5, 64, 127
8, 25968, Note_on_c, 5, 64, 0
8, 25980, Note_on_c, 5, 60, 116
8, 26028, Note_on_c, 5, 60, 0
8, 26040, Note_on_c, 5, 64, 127
8, 26088, Note_on_c, 5, 64, 0
8, 26100, Note_on_c, 5, 60, 117
8, 26148, Note_on_c, 5, 60, 0
8, 26160, Note_on_c, 5, 65, 112
8, 26208, Note_on_c, 5, 65, 0
8, 26220, Note_on_c, 5, 62, 116
8, 26268, Note_on_c, 5, 62, 0
8, 26280, Note_on_c, 5, 65, 127
8, 26328, Note_on_c, 5, 65, 0
8, 26340, Note_on_c, 5, 62, 110
8, 26388, Note_on_c, 5, 62, 0
8, 26400, Note_on_c, 5, 64, 109
8, 26432, Note_on_c, 5, 64, 0
8, 26440, Note_on_c, 5, 76, 121
8, 26440, Note_on_c, 5, 72, 113
8, 26472, Note_on_c, 5, 72, 0
8, 26472, Note_on_c, 5, 76, 0
8, 26480, Note_on_c, 5, 76, 127
8, 26480, Note_on_c, 5, 72, 111
8, 26512, Note_on_c, 5, 72, 0
8, 26512, Note_on_c, 5, 76, 0
8, 26520, Note_on_c, 5, 76, 105
8, 26520, Note_on_c, 5, 72, 104
8, 26552, Note_on_c, 5, 72, 0
8, 26552, Note_on_c, 5, 76, 0
8, 26560, Note_on_c, 5, 77, 127
8, 26560, Note_on_c, 5, 72, 116
8, 26592, Note_on_c, 5, 72, 0
8, 26592, Note_on_c, 5, 77, 0
8, 26600, Note_on_c, 5, 79, 101
8, 26600, Note_on_c, 5, 72, 125
8, 26632, Note_on_c, 5, 72, 0
8, 26632, Note_on_c, 5, 79, 0
8, 26640, Note_on_c, 5, 81, 111
8, 26672, Note_on_c, 5, 81, 0
8, 26680, Note_on_c, 5, 72, 107
8, 26712, Note_on_c, 5, 72, 0
8, 26720, Note_on_c, 5, 81, 116
8, 26752, Note_on_c, 5, 81, 0
8, 26760, Note_on_c, 5, 72, 117
8, 26792, Note_on_c, 5, 72, 0
8, 26800, Note_on_c, 5, 79, 127
8, 26832, Note_on_c, 5, 79, 0
8, 26840, Note_on_c, 5, 77, 125
8, 26872, Note_on_c, 5, 77, 0
8, 26880, Note_on_c, 5, 76, 127
8, 26912, Note_on_c, 5, 76, 0
8, 26920, Note_on_c, 5, 67, 123
8, 26952, Note_on_c, 5, 67, 0
8, 26960, Note_on_c, 5, 76, 120
8, 26992, Note_on_c, 5, 76, 0
8, 27000, Note_on_c, 5, 67, 123
8, 27032, Note_on_c, 5, 67, 0
8, 27040, Note_on_c, 5, 74, 123
8, 27072, Note_on_c, 5, 74, 0
8, 27080, Note_on_c, 5, 72, 125
8, 27112, Note_on_c, 5, 72, 0
8, 27120, Note_on_c, 5, 65, 123
8, 27152, Note_on_c, 5, 65, 0
8, 27160, Note_on_c, 5, 62, 117
8, 27192, Note_on_c, 5, 62, 0
8, 27200, Note_on_c, 5, 65, 110
8, 27232, Note_on_c, 5, 65, 0
8, 27240, Note_on_c, 5, 62, 127
8, 27272, Note_on_c, 5, 62, 0
8, 27280, Note_on_c, 5, 64, 118
8, 27312, Note_on_c, 5, 64, 0
8, 27320, Note_on_c, 5, 65, 127
8, 27352, Note_on_c, 5, 65, 0
8, 27360, Note_on_c, 5, 60, 118
8, 27456, Note_on_c, 5, 60, 0
8, 27540, Note_on_c, 5, 64, 120
8, 27564, Note_on_c, 5, 64, 0
8, 27570, Note_on_c, 5, 62, 101
8, 27594, Note_on_c, 5, 62, 0
8, 27600, Note_on_c, 5, 60, 123
8, 27648, Note_on_c, 5, 60, 0
8, 27660, Note_on_c, 5, 64, 127
8, 27684, Note_on_c, 5, 64, 0
8, 27690, Note_on_c, 5, 62, 125
8, 27714, Note_on_c, 5, 62, 0
8, 27720, Note_on_c, 5, 60, 127
8, 27768, Note_on_c, 5, 60, 0
8, 27780, Note_on_c, 5, 69, 127
8, 27804, Note_on_c, 5, 69, 0
8, 27810, Note_on_c, 5, 66, 121
8, 27834, Note_on_c, 5, 66, 0
8, 27840, Note_on_c, 5, 67, 123
8, 27936, Note_on_c, 5, 67, 0
8, 28020, Note_on_c, 5, 69, 127
8, 28044, Note_on_c, 5, 69, 0
8, 28050, Note_on_c, 5, 67, 127
8, 28074, Note_on_c, 5, 67, 0
8, 28080, Note_on_c, 5, 64, 127
8, 28128, Note_on_c, 5, 64, 0
8, 28140, Note_on_c, 5, 67, 127
8, 28164, Note_on_c, 5, 67, 0
8, 28170, Note_on_c, 5, 65, 127
8, 28194, Note_on_c, 5, 65, 0
8, 28200, Note_on_c, 5, 62, 127
8, 28248, Note_on_c, 5, 62, 0
8, 28260, Note_on_c, 5, 65, 127
8, 28284, Note_on_c, 5, 65, 0
8, 28290, Note_on_c, 5, 64, 127
8, 28314, Note_on_c, 5, 64, 0
8, 28320, Note_on_c, 5, 60, 127
8, 28416, Note_on_c, 5, 60, 0
8, 28500, Note_on_c, 5, 64, 123
8, 28524, Note_on_c, 5, 64, 0
8, 28530, Note_on_c, 5, 62, 127
8, 28554, Note_on_c, 5, 62, 0
8, 28560, Note_on_c, 5, 60, 127
8, 28608, Note_on_c, 5, 60, 0
8, 28620, Note_on_c, 5, 64, 127
8, 28644, Note_on_c, 5, 64, 0
8, 28650, Note_on_c, 5, 62, 127
8, 28674, Note_on_c, 5, 62, 0
8, 28680, Note_on_c, 5, 60, 127
8, 28728, Note_on_c, 5, 60, 0
8, 28740, Note_on_c, 5, 69, 127
8, 28764, Note_on_c, 5, 69, 0
8, 28770, Note_on_c, 5, 66, 127
8, 28794, Note_on_c, 5, 66, 0
8, 28800, Note_on_c, 5, 67, 120
8, 28896, Note_on_c, 5, 67, 0
8, 28980, Note_on_c, 5, 69, 127
8, 29004, Note_on_c, 5, 69, 0
8, 29010, Note_on_c, 5, 67, 127
8, 29034, Note_on_c, 5, 67, 0
8, 29040, Note_on_c, 5, 64, 127
8, 29088, Note_on_c, 5, 64, 0
8, 29100, Note_on_c, 5, 67, 111
8, 29124, Note_on_c, 5, 67, 0
8, 29130, Note_on_c, 5, 65, 127
8, 29154, Note_on_c, 5, 65, 0
8, 29160, Note_on_c, 5, 62, 127
8, 29216, Note_on_c, 5, 62, 0
8, 29220, Note_on_c, 5, 65, 127
8, 29248, Note_on_c, 5, 65, 0
8, 29250, Note_on_c, 5, 64, 127
8, 29278, Note_on_c, 5, 64, 0
8, 29280, Note_on_c, 5, 60, 127
8, 29328, Note_on_c, 5, 60, 0
8, 29340, Note_on_c, 5, 67, 127
8, 29364, Note_on_c, 5, 67, 0
8, 29370, Note_on_c, 5, 64, 127
8, 29394, Note_on_c, 5, 64, 0
8, 29400, Note_on_c, 5, 62, 127
8, 29448, Note_on_c, 5, 62, 0
8, 29460, Note_on_c, 5, 67, 114
8, 29484, Note_on_c, 5, 67, 0
8, 29490, Note_on_c, 5, 65, 127
8, 29514, Note_on_c, 5, 65, 0
8, 29520, Note_on_c, 5, 60, 127
8, 29568, Note_on_c, 5, 60, 0
8, 29580, Note_on_c, 5, 67, 127
8, 29604, Note_on_c, 5, 67, 0
8, 29610, Note_on_c, 5, 64, 127
8, 29634, Note_on_c, 5, 64, 0
8, 29640, Note_on_c, 5, 62, 127
8, 29688, Note_on_c, 5, 62, 0
8, 29700, Note_on_c, 5, 67, 127
8, 29724, Note_on_c, 5, 67, 0
8, 29730, Note_on_c, 5, 65, 123
8, 29754, Note_on_c, 5, 65, 0
8, 29760, Note_on_c, 5, 60, 127
8, 29808, Note_on_c, 5, 60, 0
8, 29820, Note_on_c, 5, 67, 127
8, 29844, Note_on_c, 5, 67, 0
8, 29850, Note_on_c, 5, 64, 127
8, 29874, Note_on_c, 5, 64, 0
8, 29880, Note_on_c, 5, 62, 127
8, 29928, Note_on_c, 5, 62, 0
8, 29940, Note_on_c, 5, 67, 127
8, 29964, Note_on_c, 5, 67, 0
8, 29970, Note_on_c, 5, 65, 127
8, 29994, Note_on_c, 5, 65, 0
8, 30000, Note_on_c, 5, 60, 127
8, 30048, Note_on_c, 5, 60, 0
8, 30060, Note_on_c, 5, 67, 127
8, 30084, Note_on_c, 5, 67, 0
8, 30090, Note_on_c, 5, 64, 127
8, 30114, Note_on_c, 5, 64, 0
8, 30120, Note_on_c, 5, 62, 127
8, 30168, Note_on_c, 5, 62, 0
8, 30180, Note_on_c, 5, 67, 121
8, 30204, Note_on_c, 5, 67, 0
8, 30210, Note_on_c, 5, 65, 127
8, 30234, Note_on_c, 5, 65, 0
8, 30240, Note_on_c, 5, 60, 109
8, 30288, Note_on_c, 5, 60, 0
8, 30300, Note_on_c, 5, 67, 127
8, 30324, Note_on_c, 5, 67, 0
8, 30330, Note_on_c, 5, 64, 127
8, 30354, Note_on_c, 5, 64, 0
8, 30360, Note_on_c, 5, 62, 127
8, 30408, Note_on_c, 5, 62, 0
8, 30420, Note_on_c, 5, 67, 123
8, 30444, Note_on_c, 5, 67, 0
8, 30450, Note_on_c, 5, 65, 125
8, 30474, Note_on_c, 5, 65, 0
8, 30480, Note_on_c, 5, 60, 109
8, 30528, Note_on_c, 5, 60, 0
8, 30540, Note_on_c, 5, 67, 127
8, 30564, Note_on_c, 5, 67, 0
8, 30570, Note_on_c, 5, 64, 127
8, 30594, Note_on_c, 5, 64, 0
8, 30600, Note_on_c, 5, 62, 127
8, 30648, Note_on_c, 5, 62, 0
8, 30660, Note_on_c, 5, 67, 123
8, 30684, Note_on_c, 5, 67, 0
8, 30690, Note_on_c, 5, 65, 125
8, 30714, Note_on_c, 5, 65, 0
8, 30720, Note_on_c, 5, 60, 109
8, 30768, Note_on_c, 5, 60, 0
8, 30780, Note_on_c, 5, 67, 127
8, 30804, Note_on_c, 5, 67, 0
8, 30810, Note_on_c, 5, 64, 127
8, 30834, Note_on_c, 5, 64, 0
8, 30840, Note_on_c, 5, 62, 127
8, 30888, Note_on_c, 5, 62, 0
8, 30900, Note_on_c, 5, 67, 123
8, 30924, Note_on_c, 5, 67, 0
8, 30930, Note_on_c, 5, 65, 125
8, 30954, Note_on_c, 5, 65, 0
8, 30960, Note_on_c, 5, 60, 109
8, 31008, Note_on_c, 5, 60, 0
8, 31020, Note_on_c, 5, 67, 127
8, 31044, Note_on_c, 5, 67, 0
8, 31050, Note_on_c, 5, 64, 127
8, 31074, Note_on_c, 5, 64, 0
8, 31080, Note_on_c, 5, 62, 127
8, 31128, Note_on_c, 5, 62, 0
8, 31140, Note_on_c, 5, 67, 123
8, 31164, Note_on_c, 5, 67, 0
8, 31170, Note_on_c, 5, 65, 125
8, 31194, Note_on_c, 5, 65, 0
8, 31200, Note_on_c, 5, 60, 103
8, 31296, Note_on_c, 5, 60, 0
8, 31320, Note_on_c, 5, 55, 117
8, 31416, Note_on_c, 5, 55, 0
8, 31440, Note_on_c, 5, 60, 116
8, 31536, Note_on_c, 5, 60, 0
8, 31560, Note_on_c, 5, 55, 111
8, 31656, Note_on_c, 5, 55, 0
8, 31680, Note_on_c, 5, 60, 120
8, 31776, Note_on_c, 5, 60, 0
8, 31800, Note_on_c, 5, 55, 123
8, 31896, Note_on_c, 5, 55, 0
8, 31920, Note_on_c, 5, 60, 110
8, 32016, Note_on_c, 5, 60, 0
8, 32040, Note_on_c, 5, 55, 109
8, 32136, Note_on_c, 5, 55, 0
8, 32160, Note_on_c, 5, 60, 127
8, 32208, Note_on_c, 5, 60, 0
8, 32940, Note_on_c, 5, 69, 118
8, 32988, Note_on_c, 5, 69, 0
8, 33000, Note_on_c, 5, 70, 107
8, 33048, Note_on_c, 5, 70, 0
8, 33060, Note_on_c, 5, 74, 123
8, 33108, Note_on_c, 5, 74, 0
8, 33600, Note_on_c, 5, 65, 127
8, 33648, Note_on_c, 5, 65, 0
8, 33660, Note_on_c, 5, 64, 116
8, 33708, Note_on_c, 5, 64, 0
8, 33720, Note_on_c, 5, 65, 114
8, 33768, Note_on_c, 5, 65, 0
8, 33780, Note_on_c, 5, 67, 127
8, 33804, Note_on_c, 5, 67, 0
8, 33810, Note_on_c, 5, 65, 121
8, 33834, Note_on_c, 5, 65, 0
8, 33840, Note_on_c, 5, 64, 118
8, 34032, Note_on_c, 5, 64, 0
8, 34140, Note_on_c, 5, 57, 109
8, 34188, Note_on_c, 5, 57, 0
8, 34200, Note_on_c, 5, 58, 123
8, 34248, Note_on_c, 5, 58, 0
8, 34260, Note_on_c, 5, 62, 127
8, 34308, Note_on_c, 5, 62, 0
8, 34320, Note_on_c, 5, 60, 91
8, 34608, Note_on_c, 5, 60, 0
8, 34620, Note_on_c, 5, 57, 111
8, 34668, Note_on_c, 5, 57, 0
8, 34680, Note_on_c, 5, 58, 121
8, 34728, Note_on_c, 5, 58, 0
8, 34740, Note_on_c, 5, 62, 127
8, 34788, Note_on_c, 5, 62, 0
8, 34800, Note_on_c, 5, 60, 113
8, 34992, Note_on_c, 5, 60, 0
8, 35040, Note_on_c, 5, 60, 127
8, 35136, Note_on_c, 5, 60, 0
8, 35160, Note_on_c, 5, 65, 127
8, 35256, Note_on_c, 5, 65, 0
8, 35280, Note_on_c, 5, 64, 110
8, 35424, Note_on_c, 5, 64, 0
8, 35460, Note_on_c, 5, 65, 127
8, 35508, Note_on_c, 5, 65, 0
8, 35520, Note_on_c, 5, 70, 118
8, 35616, Note_on_c, 5, 70, 0
8, 35640, Note_on_c, 5, 69, 127
8, 35736, Note_on_c, 5, 69, 0
8, 35760, Note_on_c, 5, 64, 118
8, 35952, Note_on_c, 5, 64, 0
8, 36000, Note_on_c, 5, 65, 127
8, 36096, Note_on_c, 5, 65, 0
8, 36120, Note_on_c, 5, 65, 127
8, 36216, Note_on_c, 5, 65, 0
8, 36240, Note_on_c, 5, 64, 111
8, 36384, Note_on_c, 5, 64, 0
8, 36420, Note_on_c, 5, 65, 103
8, 36468, Note_on_c, 5, 65, 0
8, 36480, Note_on_c, 5, 70, 118
8, 36576, Note_on_c, 5, 70, 0
8, 36600, Note_on_c, 5, 69, 127
8, 36696, Note_on_c, 5, 69, 0
8, 36720, Note_on_c, 5, 64, 109
8, 36864, Note_on_c, 5, 64, 0
8, 36900, Note_on_c, 5, 65, 127
8, 36948, Note_on_c, 5, 65, 0
8, 36960, Note_on_c, 5, 64, 123
8, 37104, Note_on_c, 5, 64, 0
8, 37140, Note_on_c, 5, 65, 111
8, 37188, Note_on_c, 5, 65, 0
8, 37200, Note_on_c, 5, 64, 123
8, 37344, Note_on_c, 5, 64, 0
8, 37380, Note_on_c, 5, 65, 111
8, 37428, Note_on_c, 5, 65, 0
8, 37440, Note_on_c, 5, 64, 123
8, 37584, Note_on_c, 5, 64, 0
8, 37620, Note_on_c, 5, 65, 111
8, 37668, Note_on_c, 5, 65, 0
8, 37680, Note_on_c, 5, 64, 123
8, 37824, Note_on_c, 5, 64, 0
8, 37860, Note_on_c, 5, 65, 111
8, 37908, Note_on_c, 5, 65, 0
8, 37920, Note_on_c, 5, 64, 123
8, 38064, Note_on_c, 5, 64, 0
8, 38100, Note_on_c, 5, 65, 111
8, 38148, Note_on_c, 5, 65, 0
8, 38160, Note_on_c, 5, 64, 123
8, 38304, Note_on_c, 5, 64, 0
8, 38340, Note_on_c, 5, 65, 111
8, 38388, Note_on_c, 5, 65, 0
8, 38400, Note_on_c, 5, 64, 123
8, 38544, Note_on_c, 5, 64, 0
8, 38580, Note_on_c, 5, 65, 111
8, 38628, Note_on_c, 5, 65, 0
8, 38640, Note_on_c, 5, 64, 123
8, 38784, Note_on_c, 5, 64, 0
8, 38820, Note_on_c, 5, 65, 111
8, 38868, Note_on_c, 5, 65, 0
8, 38880, Note_on_c, 5, 64, 127
8, 38928, Note_on_c, 5, 64, 0
8, 39180, Note_on_c, 5, 57, 127
8, 39204, Note_on_c, 5, 57, 0
8, 39210, Note_on_c, 5, 58, 121
8, 39234, Note_on_c, 5, 58, 0
8, 39240, Note_on_c, 5, 60, 127
8, 39288, Note_on_c, 5, 60, 0
8, 39300, Note_on_c, 5, 61, 118
8, 39348, Note_on_c, 5, 61, 0
8, 39360, Note_on_c, 5, 62, 127
8, 39408, Note_on_c, 5, 62, 0
8, 39420, Note_on_c, 5, 58, 115
8, 39444, Note_on_c, 5, 58, 0
8, 39450, Note_on_c, 5, 60, 120
8, 39474, Note_on_c, 5, 60, 0
8, 39480, Note_on_c, 5, 62, 127
8, 39528, Note_on_c, 5, 62, 0
8, 39540, Note_on_c, 5, 64, 127
8, 39588, Note_on_c, 5, 64, 0
8, 39600, Note_on_c, 5, 65, 127
8, 39648, Note_on_c, 5, 65, 0
8, 39660, Note_on_c, 5, 62, 118
8, 39684, Note_on_c, 5, 62, 0
8, 39690, Note_on_c, 5, 64, 127
8, 39714, Note_on_c, 5, 64, 0
8, 39720, Note_on_c, 5, 65, 127
8, 39768, Note_on_c, 5, 65, 0
8, 39780, Note_on_c, 5, 67, 127
8, 39828, Note_on_c, 5, 67, 0
8, 39840, Note_on_c, 5, 69, 127
8, 39888, Note_on_c, 5, 69, 0
8, 40800, Note_on_c, 5, 72, 116
8, 41712, Note_on_c, 5, 72, 0
8, 41760, Note_on_c, 5, 69, 127
8, 41808, Note_on_c, 5, 69, 0
8, 41820, Note_on_c, 5, 69, 127
8, 41868, Note_on_c, 5, 69, 0
8, 41880, Note_on_c, 5, 70, 121
8, 41928, Note_on_c, 5, 70, 0
8, 41940, Note_on_c, 5, 74, 127
8, 41988, Note_on_c, 5, 74, 0
8, 42000, Note_on_c, 5, 72, 117
8, 42048, Note_on_c, 5, 72, 0
8, 42060, Note_on_c, 5, 70, 127
8, 42084, Note_on_c, 5, 70, 0
8, 42090, Note_on_c, 5, 69, 127
8, 42114, Note_on_c, 5, 69, 0
8, 42120, Note_on_c, 5, 67, 127
8, 42168, Note_on_c, 5, 67, 0
8, 42180, Note_on_c, 5, 60, 120
8, 42228, Note_on_c, 5, 60, 0
8, 42240, Note_on_c, 5, 65, 127
8, 42288, Note_on_c, 5, 65, 0
8, 42300, Note_on_c, 5, 76, 127
8, 42348, Note_on_c, 5, 76, 0
8, 42360, Note_on_c, 5, 77, 125
8, 42408, Note_on_c, 5, 77, 0
8, 42420, Note_on_c, 5, 79, 127
8, 42444, Note_on_c, 5, 79, 0
8, 42450, Note_on_c, 5, 77, 127
8, 42474, Note_on_c, 5, 77, 0
8, 42480, Note_on_c, 5, 76, 127
8, 42528, Note_on_c, 5, 76, 0
8, 42540, Note_on_c, 5, 77, 127
8, 42588, Note_on_c, 5, 77, 0
8, 42600, Note_on_c, 5, 79, 127
8, 42648, Note_on_c, 5, 79, 0
8, 42660, Note_on_c, 5, 81, 127
8, 42684, Note_on_c, 5, 81, 0
8, 42690, Note_on_c, 5, 79, 125
8, 42714, Note_on_c, 5, 79, 0
8, 42720, Note_on_c, 5, 77, 127
8, 42768, Note_on_c, 5, 77, 0
8, 42780, Note_on_c, 5, 81, 103
8, 42828, Note_on_c, 5, 81, 0
8, 42840, Note_on_c, 5, 81, 127
8, 42888, Note_on_c, 5, 81, 0
8, 42900, Note_on_c, 5, 81, 121
8, 42948, Note_on_c, 5, 81, 0
8, 42960, Note_on_c, 5, 81, 127
8, 43056, Note_on_c, 5, 81, 0
8, 43080, Note_on_c, 5, 79, 127
8, 43104, Note_on_c, 5, 79, 0
8, 43110, Note_on_c, 5, 77, 117
8, 43134, Note_on_c, 5, 77, 0
8, 43140, Note_on_c, 5, 76, 127
8, 43164, Note_on_c, 5, 76, 0
8, 43170, Note_on_c, 5, 74, 92
8, 43194, Note_on_c, 5, 74, 0
8, 43200, Note_on_c, 5, 72, 121
8, 43248, Note_on_c, 5, 72, 0
8, 43260, Note_on_c, 5, 74, 127
8, 43308, Note_on_c, 5, 74, 0
8, 43320, Note_on_c, 5, 76, 127
8, 43368, Note_on_c, 5, 76, 0
8, 43380, Note_on_c, 5, 77, 121
8, 43404, Note_on_c, 5, 77, 0
8, 43410, Note_on_c, 5, 76, 116
8, 43434, Note_on_c, 5, 76, 0
8, 43440, Note_on_c, 5, 74, 123
8, 43488, Note_on_c, 5, 74, 0
8, 43500, Note_on_c, 5, 76, 120
8, 43548, Note_on_c, 5, 76, 0
8, 43560, Note_on_c, 5, 77, 127
8, 43608, Note_on_c, 5, 77, 0
8, 43620, Note_on_c, 5, 79, 125
8, 43644, Note_on_c, 5, 79, 0
8, 43650, Note_on_c, 5, 77, 121
8, 43674, Note_on_c, 5, 77, 0
8, 43680, Note_on_c, 5, 76, 125
8, 43728, Note_on_c, 5, 76, 0
8, 43740, Note_on_c, 5, 79, 114
8, 43788, Note_on_c, 5, 79, 0
8, 43800, Note_on_c, 5, 79, 127
8, 43848, Note_on_c, 5, 79, 0
8, 43860, Note_on_c, 5, 79, 127
8, 43908, Note_on_c, 5, 79, 0
8, 43920, Note_on_c, 5, 79, 121
8, 44016, Note_on_c, 5, 79, 0
8, 44040, Note_on_c, 5, 81, 113
8, 44064, Note_on_c, 5, 81, 0
8, 44070, Note_on_c, 5, 79, 123
8, 44094, Note_on_c, 5, 79, 0
8, 44100, Note_on_c, 5, 77, 121
8, 44124, Note_on_c, 5, 77, 0
8, 44130, Note_on_c, 5, 76, 98
8, 44154, Note_on_c, 5, 76, 0
8, 44160, Note_on_c, 5, 77, 127
8, 44208, Note_on_c, 5, 77, 0
8, 44220, Note_on_c, 5, 79, 116
8, 44268, Note_on_c, 5, 79, 0
8, 44280, Note_on_c, 5, 81, 109
8, 44328, Note_on_c, 5, 81, 0
8, 44340, Note_on_c, 5, 82, 109
8, 44364, Note_on_c, 5, 82, 0
8, 44370, Note_on_c, 5, 81, 105
8, 44394, Note_on_c, 5, 81, 0
8, 44400, Note_on_c, 5, 79, 123
8, 44448, Note_on_c, 5, 79, 0
8, 44460, Note_on_c, 5, 72, 104
8, 44508, Note_on_c, 5, 72, 0
8, 44520, Note_on_c, 5, 79, 125
8, 44568, Note_on_c, 5, 79, 0
8, 44580, Note_on_c, 5, 72, 109
8, 44628, Note_on_c, 5, 72, 0
8, 44640, Note_on_c, 5, 77, 127
8, 44688, Note_on_c, 5, 77, 0
8, 44700, Note_on_c, 5, 79, 121
8, 44748, Note_on_c, 5, 79, 0
8, 44760, Note_on_c, 5, 81, 108
8, 44808, Note_on_c, 5, 81, 0
8, 44820, Note_on_c, 5, 82, 109
8, 44844, Note_on_c, 5, 82, 0
8, 44850, Note_on_c, 5, 81, 109
8, 44874, Note_on_c, 5, 81, 0
8, 44880, Note_on_c, 5, 79, 127
8, 44928, Note_on_c, 5, 79, 0
8, 44940, Note_on_c, 5, 76, 114
8, 44988, Note_on_c, 5, 76, 0
8, 45000, Note_on_c, 5, 79, 117
8, 45048, Note_on_c, 5, 79, 0
8, 45060, Note_on_c, 5, 76, 114
8, 45108, Note_on_c, 5, 76, 0
8, 45120, Note_on_c, 5, 77, 127
8, 45168, Note_on_c, 5, 77, 0
8, 45180, Note_on_c, 5, 76, 127
8, 45228, Note_on_c, 5, 76, 0
8, 45240, Note_on_c, 5, 79, 112
8, 45288, Note_on_c, 5, 79, 0
8, 45300, Note_on_c, 5, 76, 104
8, 45348, Note_on_c, 5, 76, 0
8, 45360, Note_on_c, 5, 77, 127
8, 45408, Note_on_c, 5, 77, 0
8, 45420, Note_on_c, 5, 76, 109
8, 45468, Note_on_c, 5, 76, 0
8, 45480, Note_on_c, 5, 79, 123
8, 45528, Note_on_c, 5, 79, 0
8, 45540, Note_on_c, 5, 76, 107
8, 45588, Note_on_c, 5, 76, 0
8, 45600, Note_on_c, 5, 77, 50
8, 45600, Note_on_c, 5, 69, 58
8, 45648, Note_on_c, 5, 69, 0
8, 45648, Note_on_c, 5, 77, 0
8, 48540, Note_on_c, 5, 69, 127
8, 48588, Note_on_c, 5, 69, 0
8, 48600, Note_on_c, 5, 67, 125
8, 48648, Note_on_c, 5, 67, 0
8, 48660, Note_on_c, 5, 66, 115
8, 48708, Note_on_c, 5, 66, 0
8, 48720, Note_on_c, 5, 67, 109
8, 48768, Note_on_c, 5, 67, 0
8, 48960, Note_on_c, 5, 59, 107
8, 49008, Note_on_c, 5, 59, 0
8, 49020, Note_on_c, 5, 62, 127
8, 49068, Note_on_c, 5, 62, 0
8, 49080, Note_on_c, 5, 59, 123
8, 49128, Note_on_c, 5, 59, 0
8, 49140, Note_on_c, 5, 62, 118
8, 49188, Note_on_c, 5, 62, 0
8, 49200, Note_on_c, 5, 59, 117
8, 49248, Note_on_c, 5, 59, 0
8, 49260, Note_on_c, 5, 62, 113
8, 49308, Note_on_c, 5, 62, 0
8, 49320, Note_on_c, 5, 59, 111
8, 49368, Note_on_c, 5, 59, 0
8, 49380, Note_on_c, 5, 62, 127
8, 49428, Note_on_c, 5, 62, 0
8, 49440, Note_on_c, 5, 60, 121
8, 49488, Note_on_c, 5, 60, 0
8, 49500, Note_on_c, 5, 64, 113
8, 49548, Note_on_c, 5, 64, 0
8, 49560, Note_on_c, 5, 60, 117
8, 49608, Note_on_c, 5, 60, 0
8, 49620, Note_on_c, 5, 64, 125
8, 49668, Note_on_c, 5, 64, 0
8, 49680, Note_on_c, 5, 60, 118
8, 49728, Note_on_c, 5, 60, 0
8, 49740, Note_on_c, 5, 64, 120
8, 49788, Note_on_c, 5, 64, 0
8, 49800, Note_on_c, 5, 60, 117
8, 49848, Note_on_c, 5, 60, 0
8, 49860, Note_on_c, 5, 64, 125
8, 49908, Note_on_c, 5, 64, 0
8, 49920, Note_on_c, 5, 69, 118
8, 49968, Note_on_c, 5, 69, 0
8, 49980, Note_on_c, 5, 67, 127
8, 50028, Note_on_c, 5, 67, 0
8, 50040, Note_on_c, 5, 65, 123
8, 50088, Note_on_c, 5, 65, 0
8, 50100, Note_on_c, 5, 62, 120
8, 50148, Note_on_c, 5, 62, 0
8, 50160, Note_on_c, 5, 55, 109
8, 50208, Note_on_c, 5, 55, 0
8, 50220, Note_on_c, 5, 65, 123
8, 50268, Note_on_c, 5, 65, 0
8, 50280, Note_on_c, 5, 62, 121
8, 50328, Note_on_c, 5, 62, 0
8, 50340, Note_on_c, 5, 55, 100
8, 50388, Note_on_c, 5, 55, 0
8, 50400, Note_on_c, 5, 69, 123
8, 50448, Note_on_c, 5, 69, 0
8, 50460, Note_on_c, 5, 67, 127
8, 50508, Note_on_c, 5, 67, 0
8, 50520, Note_on_c, 5, 64, 127
8, 50568, Note_on_c, 5, 64, 0
8, 50580, Note_on_c, 5, 60, 104
8, 50628, Note_on_c, 5, 60, 0
8, 50640, Note_on_c, 5, 55, 107
8, 50688, Note_on_c, 5, 55, 0
8, 50700, Note_on_c, 5, 64, 127
8, 50748, Note_on_c, 5, 64, 0
8, 50760, Note_on_c, 5, 60, 121
8, 50808, Note_on_c, 5, 60, 0
8, 50820, Note_on_c, 5, 55, 114
8, 50868, Note_on_c, 5, 55, 0
8, 50880, Note_on_c, 5, 62, 127
8, 50928, Note_on_c, 5, 62, 0
8, 50940, Note_on_c, 5, 59, 125
8, 50988, Note_on_c, 5, 59, 0
8, 51000, Note_on_c, 5, 62, 123
8, 51048, Note_on_c, 5, 62, 0
8, 51060, Note_on_c, 5, 59, 125
8, 51108, Note_on_c, 5, 59, 0
8, 51120, Note_on_c, 5, 62, 113
8, 51168, Note_on_c, 5, 62, 0
8, 51180, Note_on_c, 5, 59, 109
8, 51228, Note_on_c, 5, 59, 0
8, 51240, Note_on_c, 5, 62, 114
8, 51288, Note_on_c, 5, 62, 0
8, 51300, Note_on_c, 5, 59, 117
8, 51348, Note_on_c, 5, 59, 0
8, 51360, Note_on_c, 5, 64, 123
8, 51408, Note_on_c, 5, 64, 0
8, 51420, Note_on_c, 5, 60, 125
8, 51468, Note_on_c, 5, 60, 0
8, 51480, Note_on_c, 5, 64, 118
8, 51528, Note_on_c, 5, 64, 0
8, 51540, Note_on_c, 5, 60, 118
8, 51588, Note_on_c, 5, 60, 0
8, 51600, Note_on_c, 5, 64, 118
8, 51648, Note_on_c, 5, 64, 0
8, 51660, Note_on_c, 5, 60, 111
8, 51708, Note_on_c, 5, 60, 0
8, 51720, Note_on_c, 5, 64, 118
8, 51768, Note_on_c, 5, 64, 0
8, 51780, Note_on_c, 5, 60, 118
8, 51828, Note_on_c, 5, 60, 0
8, 51840, Note_on_c, 5, 65, 127
8, 51888, Note_on_c, 5, 65, 0
8, 51900, Note_on_c, 5, 62, 125
8, 51948, Note_on_c, 5, 62, 0
8, 51960, Note_on_c, 5, 67, 109
8, 52008, Note_on_c, 5, 67, 0
8, 52020, Note_on_c, 5, 62, 125
8, 52068, Note_on_c, 5, 62, 0
8, 52080, Note_on_c, 5, 67, 121
8, 52128, Note_on_c, 5, 67, 0
8, 52140, Note_on_c, 5, 62, 111
8, 52188, Note_on_c, 5, 62, 0
8, 52200, Note_on_c, 5, 67, 120
8, 52248, Note_on_c, 5, 67, 0
8, 52260, Note_on_c, 5, 62, 123
8, 52308, Note_on_c, 5, 62, 0
8, 52320, Note_on_c, 5, 67, 125
8, 52368, Note_on_c, 5, 67, 0
8, 52380, Note_on_c, 5, 64, 117
8, 52428, Note_on_c, 5, 64, 0
8, 52440, Note_on_c, 5, 67, 108
8, 52488, Note_on_c, 5, 67, 0
8, 52500, Note_on_c, 5, 64, 118
8, 52548, Note_on_c, 5, 64, 0
8, 52560, Note_on_c, 5, 67, 125
8, 52608, Note_on_c, 5, 67, 0
8, 52620, Note_on_c, 5, 64, 125
8, 52668, Note_on_c, 5, 64, 0
8, 52680, Note_on_c, 5, 67, 127
8, 52728, Note_on_c, 5, 67, 0
8, 52740, Note_on_c, 5, 64, 120
8, 52788, Note_on_c, 5, 64, 0
8, 52800, Note_on_c, 5, 74, 125
8, 52832, Note_on_c, 5, 74, 0
8, 52840, Note_on_c, 5, 71, 116
8, 52872, Note_on_c, 5, 71, 0
8, 52880, Note_on_c, 5, 74, 120
8, 52912, Note_on_c, 5, 74, 0
8, 52920, Note_on_c, 5, 71, 120
8, 52952, Note_on_c, 5, 71, 0
8, 52960, Note_on_c, 5, 74, 123
8, 52992, Note_on_c, 5, 74, 0
8, 53000, Note_on_c, 5, 71, 123
8, 53032, Note_on_c, 5, 71, 0
8, 53040, Note_on_c, 5, 74, 125
8, 53072, Note_on_c, 5, 74, 0
8, 53080, Note_on_c, 5, 71, 118
8, 53112, Note_on_c, 5, 71, 0
8, 53120, Note_on_c, 5, 74, 121
8, 53152, Note_on_c, 5, 74, 0
8, 53160, Note_on_c, 5, 71, 117
8, 53192, Note_on_c, 5, 71, 0
8, 53200, Note_on_c, 5, 74, 118
8, 53232, Note_on_c, 5, 74, 0
8, 53240, Note_on_c, 5, 71, 117
8, 53272, Note_on_c, 5, 71, 0
8, 53280, Note_on_c, 5, 76, 120
8, 53312, Note_on_c, 5, 76, 0
8, 53320, Note_on_c, 5, 72, 114
8, 53352, Note_on_c, 5, 72, 0
8, 53360, Note_on_c, 5, 76, 117
8, 53392, Note_on_c, 5, 76, 0
8, 53400, Note_on_c, 5, 72, 111
8, 53432, Note_on_c, 5, 72, 0
8, 53440, Note_on_c, 5, 76, 118
8, 53472, Note_on_c, 5, 76, 0
8, 53480, Note_on_c, 5, 72, 111
8, 53512, Note_on_c, 5, 72, 0
8, 53520, Note_on_c, 5, 76, 121
8, 53552, Note_on_c, 5, 76, 0
8, 53560, Note_on_c, 5, 72, 111
8, 53592, Note_on_c, 5, 72, 0
8, 53600, Note_on_c, 5, 76, 117
8, 53632, Note_on_c, 5, 76, 0
8, 53640, Note_on_c, 5, 72, 116
8, 53672, Note_on_c, 5, 72, 0
8, 53680, Note_on_c, 5, 76, 121
8, 53712, Note_on_c, 5, 76, 0
8, 53720, Note_on_c, 5, 72, 127
8, 53752, Note_on_c, 5, 72, 0
8, 53760, Note_on_c, 5, 77, 127
8, 53784, Note_on_c, 5, 77, 0
8, 53790, Note_on_c, 5, 74, 117
8, 53814, Note_on_c, 5, 74, 0
8, 53820, Note_on_c, 5, 77, 127
8, 53844, Note_on_c, 5, 77, 0
8, 53850, Note_on_c, 5, 74, 116
8, 53874, Note_on_c, 5, 74, 0
8, 53880, Note_on_c, 5, 77, 123
8, 53904, Note_on_c, 5, 77, 0
8, 53910, Note_on_c, 5, 74, 112
8, 53934, Note_on_c, 5, 74, 0
8, 53940, Note_on_c, 5, 77, 117
8, 53964, Note_on_c, 5, 77, 0
8, 53970, Note_on_c, 5, 74, 121
8, 53994, Note_on_c, 5, 74, 0
8, 54000, Note_on_c, 5, 77, 120
8, 54024, Note_on_c, 5, 77, 0
8, 54030, Note_on_c, 5, 74, 112
8, 54054, Note_on_c, 5, 74, 0
8, 54060, Note_on_c, 5, 77, 117
8, 54084, Note_on_c, 5, 77, 0
8, 54090, Note_on_c, 5, 74, 120
8, 54114, Note_on_c, 5, 74, 0
8, 54120, Note_on_c, 5, 77, 127
8, 54144, Note_on_c, 5, 77, 0
8, 54150, Note_on_c, 5, 74, 116
8, 54174, Note_on_c, 5, 74, 0
8, 54180, Note_on_c, 5, 77, 127
8, 54204, Note_on_c, 5, 77, 0
8, 54210, Note_on_c, 5, 74, 107
8, 54234, Note_on_c, 5, 74, 0
8, 54240, Note_on_c, 5, 76, 127
8, 54264, Note_on_c, 5, 76, 0
8, 54270, Note_on_c, 5, 72, 106
8, 54294, Note_on_c, 5, 72, 0
8, 54300, Note_on_c, 5, 76, 117
8, 54324, Note_on_c, 5, 76, 0
8, 54330, Note_on_c, 5, 72, 111
8, 54354, Note_on_c, 5, 72, 0
8, 54360, Note_on_c, 5, 76, 116
8, 54384, Note_on_c, 5, 76, 0
8, 54390, Note_on_c, 5, 72, 113
8, 54414, Note_on_c, 5, 72, 0
8, 54420, Note_on_c, 5, 76, 113
8, 54444, Note_on_c, 5, 76, 0
8, 54450, Note_on_c, 5, 72, 116
8, 54474, Note_on_c, 5, 72, 0
8, 54480, Note_on_c, 5, 76, 125
8, 54504, Note_on_c, 5, 76, 0
8, 54510, Note_on_c, 5, 72, 118
8, 54534, Note_on_c, 5, 72, 0
8, 54540, Note_on_c, 5, 76, 123
8, 54564, Note_on_c, 5, 76, 0
8, 54570, Note_on_c, 5, 72, 118
8, 54594, Note_on_c, 5, 72, 0
8, 54600, Note_on_c, 5, 76, 120
8, 54624, Note_on_c, 5, 76, 0
8, 54630, Note_on_c, 5, 72, 113
8, 54654, Note_on_c, 5, 72, 0
8, 54660, Note_on_c, 5, 76, 125
8, 54684, Note_on_c, 5, 76, 0
8, 54690, Note_on_c, 5, 72, 118
8, 54714, Note_on_c, 5, 72, 0
8, 54720, Note_on_c, 5, 77, 127
8, 54744, Note_on_c, 5, 77, 0
8, 54750, Note_on_c, 5, 71, 125
8, 54774, Note_on_c, 5, 71, 0
8, 54780, Note_on_c, 5, 77, 120
8, 54804, Note_on_c, 5, 77, 0
8, 54810, Note_on_c, 5, 71, 123
8, 54834, Note_on_c, 5, 71, 0
8, 54840, Note_on_c, 5, 77, 125
8, 54864, Note_on_c, 5, 77, 0
8, 54870, Note_on_c, 5, 71, 123
8, 54894, Note_on_c, 5, 71, 0
8, 54900, Note_on_c, 5, 77, 121
8, 54924, Note_on_c, 5, 77, 0
8, 54930, Note_on_c, 5, 71, 127
8, 54954, Note_on_c, 5, 71, 0
8, 54960, Note_on_c, 5, 77, 127
8, 54984, Note_on_c, 5, 77, 0
8, 54990, Note_on_c, 5, 71, 118
8, 55014, Note_on_c, 5, 71, 0
8, 55020, Note_on_c, 5, 77, 125
8, 55044, Note_on_c, 5, 77, 0
8, 55050, Note_on_c, 5, 71, 118
8, 55074, Note_on_c, 5, 71, 0
8, 55080, Note_on_c, 5, 77, 127
8, 55104, Note_on_c, 5, 77, 0
8, 55110, Note_on_c, 5, 71, 123
8, 55134, Note_on_c, 5, 71, 0
8, 55140, Note_on_c, 5, 77, 127
8, 55164, Note_on_c, 5, 77, 0
8, 55170, Note_on_c, 5, 71, 121
8, 55194, Note_on_c, 5, 71, 0
8, 55200, Note_on_c, 5, 76, 127
8, 55344, Note_on_c, 5, 76, 0
8, 55380, Note_on_c, 5, 77, 127
8, 55404, Note_on_c, 5, 77, 0
8, 55410, Note_on_c, 5, 79, 127
8, 55434, Note_on_c, 5, 79, 0
8, 55440, Note_on_c, 5, 81, 127
8, 55488, Note_on_c, 5, 81, 0
8, 55500, Note_on_c, 5, 79, 127
8, 55524, Note_on_c, 5, 79, 0
8, 55530, Note_on_c, 5, 77, 116
8, 55554, Note_on_c, 5, 77, 0
8, 55560, Note_on_c, 5, 76, 127
8, 55608, Note_on_c, 5, 76, 0
8, 55620, Note_on_c, 5, 77, 127
8, 55644, Note_on_c, 5, 77, 0
8, 55650, Note_on_c, 5, 79, 112
8, 55674, Note_on_c, 5, 79, 0
8, 55680, Note_on_c, 5, 81, 127
8, 55728, Note_on_c, 5, 81, 0
8, 55740, Note_on_c, 5, 79, 127
8, 55764, Note_on_c, 5, 79, 0
8, 55770, Note_on_c, 5, 77, 121
8, 55794, Note_on_c, 5, 77, 0
8, 55800, Note_on_c, 5, 76, 127
8, 55848, Note_on_c, 5, 76, 0
8, 55860, Note_on_c, 5, 77, 127
8, 55884, Note_on_c, 5, 77, 0
8, 55890, Note_on_c, 5, 79, 127
8, 55914, Note_on_c, 5, 79, 0
8, 55920, Note_on_c, 5, 81, 127
8, 55968, Note_on_c, 5, 81, 0
8, 56160, Note_on_c, 5, 65, 127
8, 56208, Note_on_c, 5, 65, 0
8, 56220, Note_on_c, 5, 60, 106
8, 56268, Note_on_c, 5, 60, 0
8, 56280, Note_on_c, 5, 65, 127
8, 56328, Note_on_c, 5, 65, 0
8, 56340, Note_on_c, 5, 60, 123
8, 56388, Note_on_c, 5, 60, 0
8, 56400, Note_on_c, 5, 64, 127
8, 56448, Note_on_c, 5, 64, 0
8, 56460, Note_on_c, 5, 60, 102
8, 56508, Note_on_c, 5, 60, 0
8, 56520, Note_on_c, 5, 64, 127
8, 56568, Note_on_c, 5, 64, 0
8, 56580, Note_on_c, 5, 60, 118
8, 56628, Note_on_c, 5, 60, 0
8, 56640, Note_on_c, 5, 65, 127
8, 56688, Note_on_c, 5, 65, 0
8, 56700, Note_on_c, 5, 62, 102
8, 56748, Note_on_c, 5, 62, 0
8, 56760, Note_on_c, 5, 65, 118
8, 56808, Note_on_c, 5, 65, 0
8, 56820, Note_on_c, 5, 62, 127
8, 56868, Note_on_c, 5, 62, 0
8, 56880, Note_on_c, 5, 76, 127
8, 57024, Note_on_c, 5, 76, 0
8, 57060, Note_on_c, 5, 77, 127
8, 57084, Note_on_c, 5, 77, 0
8, 57090, Note_on_c, 5, 79, 127
8, 57114, Note_on_c, 5, 79, 0
8, 57120, Note_on_c, 5, 81, 127
8, 57168, Note_on_c, 5, 81, 0
8, 57180, Note_on_c, 5, 79, 127
8, 57204, Note_on_c, 5, 79, 0
8, 57210, Note_on_c, 5, 77, 127
8, 57234, Note_on_c, 5, 77, 0
8, 57240, Note_on_c, 5, 76, 123
8, 57288, Note_on_c, 5, 76, 0
8, 57300, Note_on_c, 5, 77, 127
8, 57324, Note_on_c, 5, 77, 0
8, 57330, Note_on_c, 5, 79, 127
8, 57354, Note_on_c, 5, 79, 0
8, 57360, Note_on_c, 5, 81, 127
8, 57408, Note_on_c, 5, 81, 0
8, 57420, Note_on_c, 5, 79, 127
8, 57444, Note_on_c, 5, 79, 0
8, 57450, Note_on_c, 5, 77, 127
8, 57474, Note_on_c, 5, 77, 0
8, 57480, Note_on_c, 5, 76, 123
8, 57528, Note_on_c, 5, 76, 0
8, 57540, Note_on_c, 5, 77, 127
8, 57564, Note_on_c, 5, 77, 0
8, 57570, Note_on_c, 5, 79, 127
8, 57594, Note_on_c, 5, 79, 0
8, 57600, Note_on_c, 5, 81, 127
8, 57648, Note_on_c, 5, 81, 0
8, 57840, Note_on_c, 5, 65, 127
8, 57888, Note_on_c, 5, 65, 0
8, 57900, Note_on_c, 5, 60, 127
8, 57948, Note_on_c, 5, 60, 0
8, 57960, Note_on_c, 5, 65, 127
8, 58008, Note_on_c, 5, 65, 0
8, 58020, Note_on_c, 5, 60, 127
8, 58068, Note_on_c, 5, 60, 0
8, 58080, Note_on_c, 5, 64, 123
8, 58128, Note_on_c, 5, 64, 0
8, 58140, Note_on_c, 5, 60, 106
8, 58188, Note_on_c, 5, 60, 0
8, 58200, Note_on_c, 5, 64, 121
8, 58248, Note_on_c, 5, 64, 0
8, 58260, Note_on_c, 5, 60, 107
8, 58308, Note_on_c, 5, 60, 0
8, 58320, Note_on_c, 5, 65, 125
8, 58368, Note_on_c, 5, 65, 0
8, 58380, Note_on_c, 5, 62, 125
8, 58428, Note_on_c, 5, 62, 0
8, 58440, Note_on_c, 5, 65, 125
8, 58488, Note_on_c, 5, 65, 0
8, 58500, Note_on_c, 5, 62, 125
8, 58548, Note_on_c, 5, 62, 0
8, 58560, Note_on_c, 5, 64, 117
8, 58608, Note_on_c, 5, 64, 0
8, 58620, Note_on_c, 5, 60, 127
8, 58668, Note_on_c, 5, 60, 0
8, 58680, Note_on_c, 5, 60, 123
8, 58728, Note_on_c, 5, 60, 0
8, 58740, Note_on_c, 5, 60, 121
8, 58788, Note_on_c, 5, 60, 0
8, 58800, Note_on_c, 5, 65, 127
8, 58848, Note_on_c, 5, 65, 0
8, 58860, Note_on_c, 5, 60, 123
8, 58908, Note_on_c, 5, 60, 0
8, 58920, Note_on_c, 5, 65, 118
8, 58968, Note_on_c, 5, 65, 0
8, 58980, Note_on_c, 5, 60, 127
8, 59028, Note_on_c, 5, 60, 0
8, 59040, Note_on_c, 5, 64, 127
8, 59088, Note_on_c, 5, 64, 0
8, 59100, Note_on_c, 5, 60, 116
8, 59148, Note_on_c, 5, 60, 0
8, 59160, Note_on_c, 5, 64, 127
8, 59208, Note_on_c, 5, 64, 0
8, 59220, Note_on_c, 5, 60, 117
8, 59268, Note_on_c, 5, 60, 0
8, 59280, Note_on_c, 5, 65, 112
8, 59328, Note_on_c, 5, 65, 0
8, 59340, Note_on_c, 5, 62, 116
8, 59388, Note_on_c, 5, 62, 0
8, 59400, Note_on_c, 5, 65, 127
8, 59448, Note_on_c, 5, 65, 0
8, 59460, Note_on_c, 5, 62, 110
8, 59508, Note_on_c, 5, 62, 0
8, 59520, Note_on_c, 5, 64, 109
8, 59552, Note_on_c, 5, 64, 0
8, 59560, Note_on_c, 5, 76, 121
8, 59560, Note_on_c, 5, 72, 113
8, 59592, Note_on_c, 5, 72, 0
8, 59592, Note_on_c, 5, 76, 0
8, 59600, Note_on_c, 5, 76, 127
8, 59600, Note_on_c, 5, 72, 111
8, 59632, Note_on_c, 5, 72, 0
8, 59632, Note_on_c, 5, 76, 0
8, 59640, Note_on_c, 5, 76, 105
8, 59640, Note_on_c, 5, 72, 104
8, 59672, Note_on_c, 5, 72, 0
8, 59672, Note_on_c, 5, 76, 0
8, 59680, Note_on_c, 5, 77, 127
8, 59680, Note_on_c, 5, 72, 116
8, 59712, Note_on_c, 5, 72, 0
8, 59712, Note_on_c, 5, 77, 0
8, 59720, Note_on_c, 5, 79, 101
8, 59720, Note_on_c, 5, 72, 125
8, 59752, Note_on_c, 5, 72, 0
8, 59752, Note_on_c, 5, 79, 0
8, 59760, Note_on_c, 5, 81, 111
8, 59792, Note_on_c, 5, 81, 0
8, 59800, Note_on_c, 5, 72, 107
8, 59832, Note_on_c, 5, 72, 0
8, 59840, Note_on_c, 5, 81, 116
8, 59872, Note_on_c, 5, 81, 0
8, 59880, Note_on_c, 5, 72, 117
8, 59912, Note_on_c, 5, 72, 0
8, 59920, Note_on_c, 5, 79, 127
8, 59952, Note_on_c, 5, 79, 0
8, 59960, Note_on_c, 5, 77, 125
8, 59992, Note_on_c, 5, 77, 0
8, 60000, Note_on_c, 5, 76, 127
8, 60032, Note_on_c, 5, 76, 0
8, 60040, Note_on_c, 5, 67, 123
8, 60072, Note_on_c, 5, 67, 0
8, 60080, Note_on_c, 5, 76, 120
8, 60112, Note_on_c, 5, 76, 0
8, 60120, Note_on_c, 5, 67, 123
8, 60152, Note_on_c, 5, 67, 0
8, 60160, Note_on_c, 5, 74, 123
8, 60192, Note_on_c, 5, 74, 0
8, 60200, Note_on_c, 5, 72, 125
8, 60232, Note_on_c, 5, 72, 0
8, 60240, Note_on_c, 5, 65, 123
8, 60272, Note_on_c, 5, 65, 0
8, 60280, Note_on_c, 5, 62, 117
8, 60312, Note_on_c, 5, 62, 0
8, 60320, Note_on_c, 5, 65, 110
8, 60352, Note_on_c, 5, 65, 0
8, 60360, Note_on_c, 5, 62, 127
8, 60392, Note_on_c, 5, 62, 0
8, 60400, Note_on_c, 5, 64, 118
8, 60432, Note_on_c, 5, 64, 0
8, 60440, Note_on_c, 5, 65, 127
8, 60472, Note_on_c, 5, 65, 0
8, 60480, Note_on_c, 5, 60, 118
8, 60576, Note_on_c, 5, 60, 0
8, 60660, Note_on_c, 5, 64, 120
8, 60684, Note_on_c, 5, 64, 0
8, 60690, Note_on_c, 5, 62, 101
8, 60714, Note_on_c, 5, 62, 0
8, 60720, Note_on_c, 5, 60, 123
8, 60768, Note_on_c, 5, 60, 0
8, 60780, Note_on_c, 5, 64, 127
8, 60804, Note_on_c, 5, 64, 0
8, 60810, Note_on_c, 5, 62, 125
8, 60834, Note_on_c, 5, 62, 0
8, 60840, Note_on_c, 5, 60, 127
8, 60888, Note_on_c, 5, 60, 0
8, 60900, Note_on_c, 5, 69, 127
8, 60924, Note_on_c, 5, 69, 0
8, 60930, Note_on_c, 5, 66, 121
8, 60954, Note_on_c, 5, 66, 0
8, 60960, Note_on_c, 5, 67, 123
8, 61056, Note_on_c, 5, 67, 0
8, 61140, Note_on_c, 5, 69, 127
8, 61164, Note_on_c, 5, 69, 0
8, 61170, Note_on_c, 5, 67, 127
8, 61194, Note_on_c, 5, 67, 0
8, 61200, Note_on_c, 5, 64, 127
8, 61248, Note_on_c, 5, 64, 0
8, 61260, Note_on_c, 5, 67, 127
8, 61284, Note_on_c, 5, 67, 0
8, 61290, Note_on_c, 5, 65, 127
8, 61314, Note_on_c, 5, 65, 0
8, 61320, Note_on_c, 5, 62, 127
8, 61368, Note_on_c, 5, 62, 0
8, 61380, Note_on_c, 5, 65, 127
8, 61404, Note_on_c, 5, 65, 0
8, 61410, Note_on_c, 5, 64, 127
8, 61434, Note_on_c, 5, 64, 0
8, 61440, Note_on_c, 5, 60, 127
8, 61536, Note_on_c, 5, 60, 0
8, 61620, Note_on_c, 5, 64, 123
8, 61644, Note_on_c, 5, 64, 0
8, 61650, Note_on_c, 5, 62, 127
8, 61674, Note_on_c, 5, 62, 0
8, 61680, Note_on_c, 5, 60, 127
8, 61728, Note_on_c, 5, 60, 0
8, 61740, Note_on_c, 5, 64, 127
8, 61764, Note_on_c, 5, 64, 0
8, 61770, Note_on_c, 5, 62, 127
8, 61794, Note_on_c, 5, 62, 0
8, 61800, Note_on_c, 5, 60, 127
8, 61848, Note_on_c, 5, 60, 0
8, 61860, Note_on_c, 5, 69, 127
8, 61884, Note_on_c, 5, 69, 0
8, 61890, Note_on_c, 5, 66, 127
8, 61914, Note_on_c, 5, 66, 0
8, 61920, Note_on_c, 5, 67, 120
8, 62016, Note_on_c, 5, 67, 0
8, 62100, Note_on_c, 5, 69, 127
8, 62124, Note_on_c, 5, 69, 0
8, 62130, Note_on_c, 5, 67, 127
8, 62154, Note_on_c, 5, 67, 0
8, 62160, Note_on_c, 5, 64, 127
8, 62208, Note_on_c, 5, 64, 0
8, 62220, Note_on_c, 5, 67, 111
8, 62244, Note_on_c, 5, 67, 0
8, 62250, Note_on_c, 5, 65, 127
8, 62274, Note_on_c, 5, 65, 0
8, 62280, Note_on_c, 5, 62, 127
8, 62336, Note_on_c, 5, 62, 0
8, 62340, Note_on_c, 5, 65, 127
8, 62368, Note_on_c, 5, 65, 0
8, 62370, Note_on_c, 5, 64, 127
8, 62398, Note_on_c, 5, 64, 0
8, 62400, Note_on_c, 5, 60, 127
8, 62448, Note_on_c, 5, 60, 0
8, 62460, Note_on_c, 5, 67, 127
8, 62484, Note_on_c, 5, 67, 0
8, 62490, Note_on_c, 5, 64, 127
8, 62514, Note_on_c, 5, 64, 0
8, 62520, Note_on_c, 5, 62, 127
8, 62568, Note_on_c, 5, 62, 0
8, 62580, Note_on_c, 5, 67, 114
8, 62604, Note_on_c, 5, 67, 0
8, 62610, Note_on_c, 5, 65, 127
8, 62634, Note_on_c, 5, 65, 0
8, 62640, Note_on_c, 5, 60, 127
8, 62688, Note_on_c, 5, 60, 0
8, 62700, Note_on_c, 5, 67, 127
8, 62724, Note_on_c, 5, 67, 0
8, 62730, Note_on_c, 5, 64, 127
8, 62754, Note_on_c, 5, 64, 0
8, 62760, Note_on_c, 5, 62, 127
8, 62808, Note_on_c, 5, 62, 0
8, 62820, Note_on_c, 5, 67, 127
8, 62844, Note_on_c, 5, 67, 0
8, 62850, Note_on_c, 5, 65, 123
8, 62874, Note_on_c, 5, 65, 0
8, 62880, Note_on_c, 5, 60, 127
8, 62928, Note_on_c, 5, 60, 0
8, 62940, Note_on_c, 5, 67, 127
8, 62964, Note_on_c, 5, 67, 0
8, 62970, Note_on_c, 5, 64, 127
8, 62994, Note_on_c, 5, 64, 0
8, 63000, Note_on_c, 5, 62, 127
8, 63048, Note_on_c, 5, 62, 0
8, 63060, Note_on_c, 5, 67, 127
8, 63084, Note_on_c, 5, 67, 0
8, 63090, Note_on_c, 5, 65, 127
8, 63114, Note_on_c, 5, 65, 0
8, 63120, Note_on_c, 5, 60, 127
8, 63168, Note_on_c, 5, 60, 0
8, 63180, Note_on_c, 5, 67, 127
8, 63204, Note_on_c, 5, 67, 0
8, 63210, Note_on_c, 5, 64, 127
8, 63234, Note_on_c, 5, 64, 0
8, 63240, Note_on_c, 5, 62, 127
8, 63288, Note_on_c, 5, 62, 0
8, 63300, Note_on_c, 5, 67, 121
8, 63324, Note_on_c, 5, 67, 0
8, 63330, Note_on_c, 5, 65, 127
8, 63354, Note_on_c, 5, 65, 0
8, 63360, Note_on_c, 5, 60, 109
8, 63408, Note_on_c, 5, 60, 0
8, 63420, Note_on_c, 5, 67, 127
8, 63444, Note_on_c, 5, 67, 0
8, 63450, Note_on_c, 5, 64, 127
8, 63474, Note_on_c, 5, 64, 0
8, 63480, Note_on_c, 5, 62, 127
8, 63528, Note_on_c, 5, 62, 0
8, 63540, Note_on_c, 5, 67, 123
8, 63564, Note_on_c, 5, 67, 0
8, 63570, Note_on_c, 5, 65, 125
8, 63594, Note_on_c, 5, 65, 0
8, 63600, Note_on_c, 5, 60, 109
8, 63648, Note_on_c, 5, 60, 0
8, 63660, Note_on_c, 5, 67, 127
8, 63684, Note_on_c, 5, 67, 0
8, 63690, Note_on_c, 5, 64, 127
8, 63714, Note_on_c, 5, 64, 0
8, 63720, Note_on_c, 5, 62, 127
8, 63768, Note_on_c, 5, 62, 0
8, 63780, Note_on_c, 5, 67, 123
8, 63804, Note_on_c, 5, 67, 0
8, 63810, Note_on_c, 5, 65, 125
8, 63834, Note_on_c, 5, 65, 0
8, 63840, Note_on_c, 5, 60, 109
8, 63888, Note_on_c, 5, 60, 0
8, 63900, Note_on_c, 5, 67, 127
8, 63924, Note_on_c, 5, 67, 0
8, 63930, Note_on_c, 5, 64, 127
8, 63954, Note_on_c, 5, 64, 0
8, 63960, Note_on_c, 5, 62, 127
8, 64008, Note_on_c, 5, 62, 0
8, 64020, Note_on_c, 5, 67, 123
8, 64044, Note_on_c, 5, 67, 0
8, 64050, Note_on_c, 5, 65, 125
8, 64074, Note_on_c, 5, 65, 0
8, 64080, Note_on_c, 5, 60, 109
8, 64128, Note_on_c, 5, 60, 0
8, 64140, Note_on_c, 5, 67, 127
8, 64164, Note_on_c, 5, 67, 0
8, 64170, Note_on_c, 5, 64, 127
8, 64194, Note_on_c, 5, 64, 0
8, 64200, Note_on_c, 5, 62, 127
8, 64248, Note_on_c, 5, 62, 0
8, 64260, Note_on_c, 5, 67, 123
8, 64284, Note_on_c, 5, 67, 0
8, 64290, Note_on_c, 5, 65, 125
8, 64314, Note_on_c, 5, 65, 0
8, 64320, Note_on_c, 5, 60, 103
8, 64416, Note_on_c, 5, 60, 0
8, 64440, Note_on_c, 5, 55, 117
8, 64536, Note_on_c, 5, 55, 0
8, 64560, Note_on_c, 5, 60, 116
8, 64656, Note_on_c, 5, 60, 0
8, 64680, Note_on_c, 5, 55, 111
8, 64776, Note_on_c, 5, 55, 0
8, 64800, Note_on_c, 5, 60, 120
8, 64896, Note_on_c, 5, 60, 0
8, 64920, Note_on_c, 5, 55, 123
8, 65016, Note_on_c, 5, 55, 0
8, 65040, Note_on_c, 5, 60, 110
8, 65136, Note_on_c, 5, 60, 0
8, 65160, Note_on_c, 5, 55, 109
8, 65256, Note_on_c, 5, 55, 0
8, 65280, Note_on_c, 5, 60, 127
8, 65328, Note_on_c, 5, 60, 0
8, 66060, Note_on_c, 5, 69, 118
8, 66108, Note_on_c, 5, 69, 0
8, 66120, Note_on_c, 5, 70, 107
8, 66168, Note_on_c, 5, 70, 0
8, 66180, Note_on_c, 5, 74, 123
8, 66228, Note_on_c, 5, 74, 0
8, 66240, Note_on_c, 5, 58, 80
8, 66672, Note_on_c, 5, 58, 0
8, 66720, Note_on_c, 5, 58, 79
8, 67152, Note_on_c, 5, 58, 0
8, 67980, Note_on_c, 5, 74, 95
8, 68028, Note_on_c, 5, 74, 0
8, 68040, Note_on_c, 5, 75, 96
8, 68088, Note_on_c, 5, 75, 0
8, 68100, Note_on_c, 5, 79, 127
8, 68148, Note_on_c, 5, 79, 0
8, 70080, Note_on_c, 5, 70, 123
8, 70128, Note_on_c, 5, 70, 0
8, 70140, Note_on_c, 5, 65, 123
8, 70164, Note_on_c, 5, 65, 0
8, 70170, Note_on_c, 5, 63, 99
8, 70194, Note_on_c, 5, 63, 0
8, 70200, Note_on_c, 5, 62, 127
8, 70248, Note_on_c, 5, 62, 0
8, 70260, Note_on_c, 5, 58, 118
8, 70308, Note_on_c, 5, 58, 0
8, 70320, Note_on_c, 5, 70, 123
8, 70368, Note_on_c, 5, 70, 0
8, 70380, Note_on_c, 5, 65, 123
8, 70404, Note_on_c, 5, 65, 0
8, 70410, Note_on_c, 5, 63, 99
8, 70434, Note_on_c, 5, 63, 0
8, 70440, Note_on_c, 5, 62, 127
8, 70488, Note_on_c, 5, 62, 0
8, 70500, Note_on_c, 5, 58, 118
8, 70548, Note_on_c, 5, 58, 0
8, 70560, Note_on_c, 5, 70, 123
8, 70608, Note_on_c, 5, 70, 0
8, 70620, Note_on_c, 5, 65, 123
8, 70644, Note_on_c, 5, 65, 0
8, 70650, Note_on_c, 5, 63, 99
8, 70674, Note_on_c, 5, 63, 0
8, 70680, Note_on_c, 5, 62, 127
8, 70728, Note_on_c, 5, 62, 0
8, 70740, Note_on_c, 5, 58, 118
8, 70788, Note_on_c, 5, 58, 0
8, 70800, Note_on_c, 5, 70, 123
8, 70848, Note_on_c, 5, 70, 0
8, 70860, Note_on_c, 5, 65, 123
8, 70884, Note_on_c, 5, 65, 0
8, 70890, Note_on_c, 5, 63, 99
8, 70914, Note_on_c, 5, 63, 0
8, 70920, Note_on_c, 5, 62, 127
8, 70968, Note_on_c, 5, 62, 0
8, 70980, Note_on_c, 5, 58, 118
8, 71028, Note_on_c, 5, 58, 0
8, 71040, Note_on_c, 5, 74, 118
8, 71952, Note_on_c, 5, 74, 0
8, 72000, Note_on_c, 5, 69, 127
8, 72048, Note_on_c, 5, 69, 0
8, 72060, Note_on_c, 5, 66, 100
8, 72084, Note_on_c, 5, 66, 0
8, 72090, Note_on_c, 5, 64, 109
8, 72114, Note_on_c, 5, 64, 0
8, 72120, Note_on_c, 5, 62, 125
8, 72168, Note_on_c, 5, 62, 0
8, 72180, Note_on_c, 5, 57, 104
8, 72228, Note_on_c, 5, 57, 0
8, 72240, Note_on_c, 5, 69, 127
8, 72288, Note_on_c, 5, 69, 0
8, 72300, Note_on_c, 5, 66, 100
8, 72324, Note_on_c, 5, 66, 0
8, 72330, Note_on_c, 5, 64, 109
8, 72354, Note_on_c, 5, 64, 0
8, 72360, Note_on_c, 5, 62, 125
8, 72408, Note_on_c, 5, 62, 0
8, 72420, Note_on_c, 5, 57, 104
8, 72468, Note_on_c, 5, 57, 0
8, 72480, Note_on_c, 5, 69, 127
8, 72528, Note_on_c, 5, 69, 0
8, 72540, Note_on_c, 5, 66, 100
8, 72564, Note_on_c, 5, 66, 0
8, 72570, Note_on_c, 5, 64, 109
8, 72594, Note_on_c, 5, 64, 0
8, 72600, Note_on_c, 5, 62, 125
8, 72648, Note_on_c, 5, 62, 0
8, 72660, Note_on_c, 5, 57, 104
8, 72708, Note_on_c, 5, 57, 0
8, 72720, Note_on_c, 5, 69, 127
8, 72768, Note_on_c, 5, 69, 0
8, 72780, Note_on_c, 5, 66, 100
8, 72804, Note_on_c, 5, 66, 0
8, 72810, Note_on_c, 5, 64, 109
8, 72834, Note_on_c, 5, 64, 0
8, 72840, Note_on_c, 5, 62, 125
8, 72888, Note_on_c, 5, 62, 0
8, 72900, Note_on_c, 5, 57, 104
8, 72948, Note_on_c, 5, 57, 0
8, 72960, Note_on_c, 5, 74, 103
8, 73872, Note_on_c, 5, 74, 0
8, 73920, Note_on_c, 5, 74, 120
8, 73968, Note_on_c, 5, 74, 0
8, 73980, Note_on_c, 5, 69, 105
8, 74004, Note_on_c, 5, 69, 0
8, 74010, Note_on_c, 5, 67, 99
8, 74034, Note_on_c, 5, 67, 0
8, 74040, Note_on_c, 5, 66, 111
8, 74088, Note_on_c, 5, 66, 0
8, 74100, Note_on_c, 5, 62, 116
8, 74148, Note_on_c, 5, 62, 0
8, 74160, Note_on_c, 5, 74, 120
8, 74208, Note_on_c, 5, 74, 0
8, 74220, Note_on_c, 5, 69, 105
8, 74244, Note_on_c, 5, 69, 0
8, 74250, Note_on_c, 5, 67, 99
8, 74274, Note_on_c, 5, 67, 0
8, 74280, Note_on_c, 5, 66, 111
8, 74328, Note_on_c, 5, 66, 0
8, 74340, Note_on_c, 5, 62, 116
8, 74388, Note_on_c, 5, 62, 0
8, 74400, Note_on_c, 5, 74, 120
8, 74448, Note_on_c, 5, 74, 0
8, 74460, Note_on_c, 5, 69, 105
8, 74484, Note_on_c, 5, 69, 0
8, 74490, Note_on_c, 5, 67, 99
8, 74514, Note_on_c, 5, 67, 0
8, 74520, Note_on_c, 5, 66, 111
8, 74568, Note_on_c, 5, 66, 0
8, 74580, Note_on_c, 5, 62, 116
8, 74628, Note_on_c, 5, 62, 0
8, 74640, Note_on_c, 5, 74, 120
8, 74688, Note_on_c, 5, 74, 0
8, 74700, Note_on_c, 5, 69, 105
8, 74724, Note_on_c, 5, 69, 0
8, 74730, Note_on_c, 5, 67, 99
8, 74754, Note_on_c, 5, 67, 0
8, 74760, Note_on_c, 5, 66, 111
8, 74808, Note_on_c, 5, 66, 0
8, 74820, Note_on_c, 5, 62, 116
8, 74868, Note_on_c, 5, 62, 0
8, 75840, Note_on_c, 5, 78, 115
8, 75888, Note_on_c, 5, 78, 0
8, 76800, Note_on_c, 5, 69, 127
8, 76848, Note_on_c, 5, 69, 0
8, 76860, Note_on_c, 5, 67, 111
8, 76884, Note_on_c, 5, 67, 0
8, 76890, Note_on_c, 5, 66, 81
8, 76914, Note_on_c, 5, 66, 0
8, 76920, Note_on_c, 5, 62, 123
8, 76968, Note_on_c, 5, 62, 0
8, 76980, Note_on_c, 5, 57, 99
8, 77028, Note_on_c, 5, 57, 0
8, 77040, Note_on_c, 5, 69, 127
8, 77088, Note_on_c, 5, 69, 0
8, 77100, Note_on_c, 5, 67, 111
8, 77124, Note_on_c, 5, 67, 0
8, 77130, Note_on_c, 5, 66, 81
8, 77154, Note_on_c, 5, 66, 0
8, 77160, Note_on_c, 5, 62, 123
8, 77208, Note_on_c, 5, 62, 0
8, 77220, Note_on_c, 5, 57, 99
8, 77268, Note_on_c, 5, 57, 0
8, 77280, Note_on_c, 5, 69, 127
8, 77328, Note_on_c, 5, 69, 0
8, 77340, Note_on_c, 5, 67, 111
8, 77364, Note_on_c, 5, 67, 0
8, 77370, Note_on_c, 5, 66, 81
8, 77394, Note_on_c, 5, 66, 0
8, 77400, Note_on_c, 5, 62, 123
8, 77448, Note_on_c, 5, 62, 0
8, 77460, Note_on_c, 5, 57, 99
8, 77508, Note_on_c, 5, 57, 0
8, 77520, Note_on_c, 5, 69, 127
8, 77568, Note_on_c, 5, 69, 0
8, 77580, Note_on_c, 5, 67, 111
8, 77604, Note_on_c, 5, 67, 0
8, 77610, Note_on_c, 5, 66, 81
8, 77634, Note_on_c, 5, 66, 0
8, 77640, Note_on_c, 5, 62, 123
8, 77688, Note_on_c, 5, 62, 0
8, 77700, Note_on_c, 5, 57, 99
8, 77748, Note_on_c, 5, 57, 0
8, 79200, Note_on_c, 5, 79, 117
8, 79464, Note_on_c, 5, 79, 0
8, 79470, Note_on_c, 5, 78, 89
8, 79494, Note_on_c, 5, 78, 0
8, 79500, Note_on_c, 5, 76, 107
8, 79524, Note_on_c, 5, 76, 0
8, 79530, Note_on_c, 5, 74, 99
8, 79554, Note_on_c, 5, 74, 0
8, 79560, Note_on_c, 5, 74, 101
8, 79608, Note_on_c, 5, 74, 0
8, 79620, Note_on_c, 5, 74, 100
8, 79668, Note_on_c, 5, 74, 0
8, 79800, Note_on_c, 5, 74, 97
8, 79848, Note_on_c, 5, 74, 0
8, 79860, Note_on_c, 5, 74, 104
8, 79908, Note_on_c, 5, 74, 0
8, 80040, Note_on_c, 5, 74, 101
8, 80088, Note_on_c, 5, 74, 0
8, 80100, Note_on_c, 5, 74, 120
8, 80148, Note_on_c, 5, 74, 0
8, 80160, Note_on_c, 5, 55, 99
8, 80160, Note_on_c, 5, 71, 101
8, 80160, Note_on_c, 5, 62, 95
8, 80208, Note_on_c, 5, 62, 0
8, 80208, Note_on_c, 5, 71, 0
8, 80208, Note_on_c, 5, 55, 0
8, 81120, Note_on_c, 5, 67, 127
8, 81168, Note_on_c, 5, 67, 0
8, 81180, Note_on_c, 5, 62, 102
8, 81204, Note_on_c, 5, 62, 0
8, 81210, Note_on_c, 5, 60, 100
8, 81234, Note_on_c, 5, 60, 0
8, 81240, Note_on_c, 5, 59, 108
8, 81288, Note_on_c, 5, 59, 0
8, 81300, Note_on_c, 5, 55, 106
8, 81348, Note_on_c, 5, 55, 0
8, 81360, Note_on_c, 5, 67, 127
8, 81408, Note_on_c, 5, 67, 0
8, 81420, Note_on_c, 5, 62, 102
8, 81444, Note_on_c, 5, 62, 0
8, 81450, Note_on_c, 5, 60, 100
8, 81474, Note_on_c, 5, 60, 0
8, 81480, Note_on_c, 5, 59, 108
8, 81528, Note_on_c, 5, 59, 0
8, 81540, Note_on_c, 5, 55, 106
8, 81588, Note_on_c, 5, 55, 0
8, 81600, Note_on_c, 5, 67, 127
8, 81648, Note_on_c, 5, 67, 0
8, 81660, Note_on_c, 5, 62, 102
8, 81684, Note_on_c, 5, 62, 0
8, 81690, Note_on_c, 5, 60, 100
8, 81714, Note_on_c, 5, 60, 0
8, 81720, Note_on_c, 5, 59, 108
8, 81768, Note_on_c, 5, 59, 0
8, 81780, Note_on_c, 5, 55, 106
8, 81828, Note_on_c, 5, 55, 0
8, 81840, Note_on_c, 5, 67, 127
8, 81888, Note_on_c, 5, 67, 0
8, 81900, Note_on_c, 5, 62, 102
8, 81924, Note_on_c, 5, 62, 0
8, 81930, Note_on_c, 5, 60, 100
8, 81954, Note_on_c, 5, 60, 0
8, 81960, Note_on_c, 5, 59, 108
8, 82008, Note_on_c, 5, 59, 0
8, 82020, Note_on_c, 5, 55, 106
8, 82068, Note_on_c, 5, 55, 0
8, 82080, Note_on_c, 5, 71, 104
8, 82992, Note_on_c, 5, 71, 0
8, 83040, Note_on_c, 5, 71, 127
8, 83088, Note_on_c, 5, 71, 0
8, 83100, Note_on_c, 5, 69, 127
8, 83124, Note_on_c, 5, 69, 0
8, 83130, Note_on_c, 5, 68, 109
8, 83154, Note_on_c, 5, 68, 0
8, 83160, Note_on_c, 5, 64, 121
8, 83208, Note_on_c, 5, 64, 0
8, 83220, Note_on_c, 5, 59, 116
8, 83268, Note_on_c, 5, 59, 0
8, 83280, Note_on_c, 5, 71, 127
8, 83328, Note_on_c, 5, 71, 0
8, 83340, Note_on_c, 5, 69, 127
8, 83364, Note_on_c, 5, 69, 0
8, 83370, Note_on_c, 5, 68, 109
8, 83394, Note_on_c, 5, 68, 0
8, 83400, Note_on_c, 5, 64, 121
8, 83448, Note_on_c, 5, 64, 0
8, 83460, Note_on_c, 5, 59, 116
8, 83508, Note_on_c, 5, 59, 0
8, 83520, Note_on_c, 5, 71, 127
8, 83568, Note_on_c, 5, 71, 0
8, 83580, Note_on_c, 5, 69, 127
8, 83604, Note_on_c, 5, 69, 0
8, 83610, Note_on_c, 5, 68, 109
8, 83634, Note_on_c, 5, 68, 0
8, 83640, Note_on_c, 5, 64, 121
8, 83688, Note_on_c, 5, 64, 0
8, 83700, Note_on_c, 5, 59, 116
8, 83748, Note_on_c, 5, 59, 0
8, 83760, Note_on_c, 5, 71, 127
8, 83808, Note_on_c, 5, 71, 0
8, 83820, Note_on_c, 5, 69, 127
8, 83844, Note_on_c, 5, 69, 0
8, 83850, Note_on_c, 5, 68, 109
8, 83874, Note_on_c, 5, 68, 0
8, 83880, Note_on_c, 5, 64, 121
8, 83928, Note_on_c, 5, 64, 0
8, 83940, Note_on_c, 5, 59, 116
8, 83988, Note_on_c, 5, 59, 0
8, 84000, Note_on_c, 5, 76, 104
8, 84912, Note_on_c, 5, 76, 0
8, 84960, Note_on_c, 5, 80, 121
8, 85008, Note_on_c, 5, 80, 0
8, 85020, Note_on_c, 5, 78, 76
8, 85044, Note_on_c, 5, 78, 0
8, 85050, Note_on_c, 5, 76, 99
8, 85074, Note_on_c, 5, 76, 0
8, 85080, Note_on_c, 5, 71, 127
8, 85128, Note_on_c, 5, 71, 0
8, 85140, Note_on_c, 5, 68, 109
8, 85188, Note_on_c, 5, 68, 0
8, 85200, Note_on_c, 5, 80, 121
8, 85248, Note_on_c, 5, 80, 0
8, 85260, Note_on_c, 5, 78, 76
8, 85284, Note_on_c, 5, 78, 0
8, 85290, Note_on_c, 5, 76, 99
8, 85314, Note_on_c, 5, 76, 0
8, 85320, Note_on_c, 5, 71, 127
8, 85368, Note_on_c, 5, 71, 0
8, 85380, Note_on_c, 5, 68, 109
8, 85428, Note_on_c, 5, 68, 0
8, 85440, Note_on_c, 5, 80, 121
8, 85488, Note_on_c, 5, 80, 0
8, 85500, Note_on_c, 5, 78, 76
8, 85524, Note_on_c, 5, 78, 0
8, 85530, Note_on_c, 5, 76, 99
8, 85554, Note_on_c, 5, 76, 0
8, 85560, Note_on_c, 5, 71, 127
8, 85608, Note_on_c, 5, 71, 0
8, 85620, Note_on_c, 5, 68, 109
8, 85668, Note_on_c, 5, 68, 0
8, 85680, Note_on_c, 5, 80, 121
8, 85728, Note_on_c, 5, 80, 0
8, 85740, Note_on_c, 5, 78, 76
8, 85764, Note_on_c, 5, 78, 0
8, 85770, Note_on_c, 5, 76, 99
8, 85794, Note_on_c, 5, 76, 0
8, 85800, Note_on_c, 5, 71, 127
8, 85848, Note_on_c, 5, 71, 0
8, 85860, Note_on_c, 5, 68, 109
8, 85908, Note_on_c, 5, 68, 0
8, 86880, Note_on_c, 5, 80, 115
8, 86928, Note_on_c, 5, 80, 0
8, 87840, Note_on_c, 5, 71, 127
8, 87888, Note_on_c, 5, 71, 0
8, 87900, Note_on_c, 5, 69, 111
8, 87924, Note_on_c, 5, 69, 0
8, 87930, Note_on_c, 5, 68, 81
8, 87954, Note_on_c, 5, 68, 0
8, 87960, Note_on_c, 5, 64, 123
8, 88008, Note_on_c, 5, 64, 0
8, 88020, Note_on_c, 5, 59, 99
8, 88068, Note_on_c, 5, 59, 0
8, 88080, Note_on_c, 5, 71, 127
8, 88128, Note_on_c, 5, 71, 0
8, 88140, Note_on_c, 5, 69, 111
8, 88164, Note_on_c, 5, 69, 0
8, 88170, Note_on_c, 5, 68, 81
8, 88194, Note_on_c, 5, 68, 0
8, 88200, Note_on_c, 5, 64, 123
8, 88248, Note_on_c, 5, 64, 0
8, 88260, Note_on_c, 5, 59, 99
8, 88308, Note_on_c, 5, 59, 0
8, 88320, Note_on_c, 5, 71, 127
8, 88368, Note_on_c, 5, 71, 0
8, 88380, Note_on_c, 5, 69, 111
8, 88404, Note_on_c, 5, 69, 0
8, 88410, Note_on_c, 5, 68, 81
8, 88434, Note_on_c, 5, 68, 0
8, 88440, Note_on_c, 5, 64, 123
8, 88488, Note_on_c, 5, 64, 0
8, 88500, Note_on_c, 5, 59, 99
8, 88548, Note_on_c, 5, 59, 0
8, 88560, Note_on_c, 5, 71, 127
8, 88608, Note_on_c, 5, 71, 0
8, 88620, Note_on_c, 5, 69, 111
8, 88644, Note_on_c, 5, 69, 0
8, 88650, Note_on_c, 5, 68, 81
8, 88674, Note_on_c, 5, 68, 0
8, 88680, Note_on_c, 5, 64, 123
8, 88728, Note_on_c, 5, 64, 0
8, 88740, Note_on_c, 5, 59, 99
8, 88788, Note_on_c, 5, 59, 0
8, 90240, Note_on_c, 5, 81, 117
8, 90504, Note_on_c, 5, 81, 0
8, 90510, Note_on_c, 5, 80, 89
8, 90534, Note_on_c, 5, 80, 0
8, 90540, Note_on_c, 5, 78, 107
8, 90564, Note_on_c, 5, 78, 0
8, 90570, Note_on_c, 5, 76, 99
8, 90594, Note_on_c, 5, 76, 0
8, 90600, Note_on_c, 5, 76, 101
8, 90648, Note_on_c, 5, 76, 0
8, 90660, Note_on_c, 5, 76, 100
8, 90708, Note_on_c, 5, 76, 0
8, 90840, Note_on_c, 5, 76, 97
8, 90888, Note_on_c, 5, 76, 0
8, 90900, Note_on_c, 5, 76, 104
8, 90948, Note_on_c, 5, 76, 0
8, 91080, Note_on_c, 5, 76, 101
8, 91128, Note_on_c, 5, 76, 0
8, 91140, Note_on_c, 5, 76, 120
8, 91188, Note_on_c, 5, 76, 0
8, 91200, Note_on_c, 5, 76, 101
8, 91256, Note_on_c, 5, 76, 0
8, 94080, Note_on_c, 5, 57, 111
8, 94104, Note_on_c, 5, 57, 0
8, 94110, Note_on_c, 5, 60, 127
8, 94134, Note_on_c, 5, 60, 0
8, 94140, Note_on_c, 5, 62, 118
8, 94164, Note_on_c, 5, 62, 0
8, 94170, Note_on_c, 5, 60, 117
8, 94194, Note_on_c, 5, 60, 0
8, 94200, Note_on_c, 5, 57, 114
8, 94224, Note_on_c, 5, 57, 0
8, 94230, Note_on_c, 5, 60, 125
8, 94254, Note_on_c, 5, 60, 0
8, 94260, Note_on_c, 5, 62, 102
8, 94284, Note_on_c, 5, 62, 0
8, 94290, Note_on_c, 5, 60, 117
8, 94314, Note_on_c, 5, 60, 0
8, 94320, Note_on_c, 5, 57, 116
8, 94344, Note_on_c, 5, 57, 0
8, 94350, Note_on_c, 5, 60, 127
8, 94374, Note_on_c, 5, 60, 0
8, 94380, Note_on_c, 5, 62, 107
8, 94404, Note_on_c, 5, 62, 0
8, 94410, Note_on_c, 5, 60, 111
8, 94434, Note_on_c, 5, 60, 0
8, 94440, Note_on_c, 5, 57, 112
8, 94464, Note_on_c, 5, 57, 0
8, 94470, Note_on_c, 5, 60, 117
8, 94494, Note_on_c, 5, 60, 0
8, 94500, Note_on_c, 5, 62, 100
8, 94524, Note_on_c, 5, 62, 0
8, 94530, Note_on_c, 5, 60, 106
8, 94554, Note_on_c, 5, 60, 0
8, 94560, Note_on_c, 5, 55, 109
8, 94584, Note_on_c, 5, 55, 0
8, 94590, Note_on_c, 5, 58, 105
8, 94614, Note_on_c, 5, 58, 0
8, 94620, Note_on_c, 5, 62, 109
8, 94644, Note_on_c, 5, 62, 0
8, 94650, Note_on_c, 5, 58, 85
8, 94674, Note_on_c, 5, 58, 0
8, 94680, Note_on_c, 5, 55, 103
8, 94704, Note_on_c, 5, 55, 0
8, 94710, Note_on_c, 5, 58, 100
8, 94734, Note_on_c, 5, 58, 0
8, 94740, Note_on_c, 5, 62, 123
8, 94764, Note_on_c, 5, 62, 0
8, 94770, Note_on_c, 5, 58, 101
8, 94794, Note_on_c, 5, 58, 0
8, 94800, Note_on_c, 5, 55, 104
8, 94824, Note_on_c, 5, 55, 0
8, 94830, Note_on_c, 5, 58, 94
8, 94854, Note_on_c, 5, 58, 0
8, 94860, Note_on_c, 5, 62, 107
8, 94884, Note_on_c, 5, 62, 0
8, 94890, Note_on_c, 5, 58, 84
8, 94914, Note_on_c, 5, 58, 0
8, 94920, Note_on_c, 5, 55, 109
8, 94944, Note_on_c, 5, 55, 0
8, 94950, Note_on_c, 5, 58, 94
8, 94974, Note_on_c, 5, 58, 0
8, 94980, Note_on_c, 5, 62, 107
8, 95004, Note_on_c, 5, 62, 0
8, 95010, Note_on_c, 5, 58, 95
8, 95034, Note_on_c, 5, 58, 0
8, 95040, Note_on_c, 5, 66, 105
8, 95136, Note_on_c, 5, 66, 0
8, 95160, Note_on_c, 5, 69, 116
8, 95256, Note_on_c, 5, 69, 0
8, 95280, Note_on_c, 5, 67, 113
8, 95424, Note_on_c, 5, 67, 0
8, 95460, Note_on_c, 5, 66, 105
8, 95508, Note_on_c, 5, 66, 0
8, 95520, Note_on_c, 5, 65, 118
8, 95616, Note_on_c, 5, 65, 0
8, 95640, Note_on_c, 5, 64, 118
8, 95736, Note_on_c, 5, 64, 0
8, 95760, Note_on_c, 5, 62, 121
8, 95808, Note_on_c, 5, 62, 0
8, 95820, Note_on_c, 5, 62, 125
8, 95844, Note_on_c, 5, 62, 0
8, 95850, Note_on_c, 5, 64, 127
8, 95874, Note_on_c, 5, 64, 0
8, 95880, Note_on_c, 5, 65, 123
8, 95928, Note_on_c, 5, 65, 0
8, 95940, Note_on_c, 5, 62, 125
8, 95988, Note_on_c, 5, 62, 0
8, 96000, Note_on_c, 5, 76, 113
8, 96096, Note_on_c, 5, 76, 0
8, 96120, Note_on_c, 5, 79, 111
8, 96216, Note_on_c, 5, 79, 0
8, 96240, Note_on_c, 5, 77, 120
8, 96384, Note_on_c, 5, 77, 0
8, 96420, Note_on_c, 5, 76, 125
8, 96468, Note_on_c, 5, 76, 0
8, 96480, Note_on_c, 5, 81, 123
8, 96576, Note_on_c, 5, 81, 0
8, 96600, Note_on_c, 5, 79, 123
8, 96696, Note_on_c, 5, 79, 0
8, 96720, Note_on_c, 5, 77, 127
8, 96768, Note_on_c, 5, 77, 0
8, 96780, Note_on_c, 5, 77, 117
8, 96804, Note_on_c, 5, 77, 0
8, 96810, Note_on_c, 5, 79, 107
8, 96834, Note_on_c, 5, 79, 0
8, 96840, Note_on_c, 5, 81, 121
8, 96896, Note_on_c, 5, 81, 0
8, 96900, Note_on_c, 5, 77, 125
8, 96956, Note_on_c, 5, 77, 0
8, 96960, Note_on_c, 5, 79, 80
8, 97056, Note_on_c, 5, 79, 0
8, 97080, Note_on_c, 5, 82, 111
8, 97176, Note_on_c, 5, 82, 0
8, 97200, Note_on_c, 5, 81, 116
8, 97344, Note_on_c, 5, 81, 0
8, 97380, Note_on_c, 5, 79, 107
8, 97428, Note_on_c, 5, 79, 0
8, 97440, Note_on_c, 5, 84, 127
8, 97536, Note_on_c, 5, 84, 0
8, 97560, Note_on_c, 5, 82, 105
8, 97656, Note_on_c, 5, 82, 0
8, 97680, Note_on_c, 5, 81, 109
8, 97728, Note_on_c, 5, 81, 0
8, 97740, Note_on_c, 5, 81, 121
8, 97764, Note_on_c, 5, 81, 0
8, 97770, Note_on_c, 5, 82, 113
8, 97794, Note_on_c, 5, 82, 0
8, 97800, Note_on_c, 5, 84, 127
8, 97848, Note_on_c, 5, 84, 0
8, 97860, Note_on_c, 5, 81, 127
8, 97908, Note_on_c, 5, 81, 0
8, 97920, Note_on_c, 5, 86, 117
8, 98016, Note_on_c, 5, 86, 0
8, 98040, Note_on_c, 5, 84, 120
8, 98136, Note_on_c, 5, 84, 0
8, 98160, Note_on_c, 5, 82, 100
8, 98208, Note_on_c, 5, 82, 0
8, 98220, Note_on_c, 5, 79, 103
8, 98244, Note_on_c, 5, 79, 0
8, 98250, Note_on_c, 5, 81, 120
8, 98274, Note_on_c, 5, 81, 0
8, 98280, Note_on_c, 5, 82, 100
8, 98328, Note_on_c, 5, 82, 0
8, 98340, Note_on_c, 5, 84, 116
8, 98388, Note_on_c, 5, 84, 0
8, 98400, Note_on_c, 5, 86, 121
8, 98496, Note_on_c, 5, 86, 0
8, 98520, Note_on_c, 5, 84, 113
8, 98616, Note_on_c, 5, 84, 0
8, 98640, Note_on_c, 5, 82, 113
8, 98688, Note_on_c, 5, 82, 0
8, 98700, Note_on_c, 5, 79, 104
8, 98724, Note_on_c, 5, 79, 0
8, 98730, Note_on_c, 5, 81, 123
8, 98754, Note_on_c, 5, 81, 0
8, 98760, Note_on_c, 5, 82, 111
8, 98808, Note_on_c, 5, 82, 0
8, 98820, Note_on_c, 5, 84, 120
8, 98868, Note_on_c, 5, 84, 0
8, 98880, Note_on_c, 5, 86, 125
8, 98928, Note_on_c, 5, 86, 0
8, 98940, Note_on_c, 5, 65, 101
8, 98956, Note_on_c, 5, 65, 0
8, 98960, Note_on_c, 5, 67, 118
8, 98976, Note_on_c, 5, 67, 0
8, 98980, Note_on_c, 5, 69, 111
8, 98996, Note_on_c, 5, 69, 0
8, 99000, Note_on_c, 5, 70, 115
8, 99048, Note_on_c, 5, 70, 0
8, 99060, Note_on_c, 5, 72, 103
8, 99108, Note_on_c, 5, 72, 0
8, 99120, Note_on_c, 5, 74, 117
8, 99168, Note_on_c, 5, 74, 0
8, 99660, Note_on_c, 5, 65, 121
8, 99684, Note_on_c, 5, 65, 0
8, 99690, Note_on_c, 5, 67, 127
8, 99714, Note_on_c, 5, 67, 0
8, 99720, Note_on_c, 5, 69, 127
8, 99768, Note_on_c, 5, 69, 0
8, 99780, Note_on_c, 5, 70, 107
8, 99828, Note_on_c, 5, 70, 0
8, 99840, Note_on_c, 5, 72, 120
8, 99888, Note_on_c, 5, 72, 0
8, 99900, Note_on_c, 5, 69, 127
8, 99948, Note_on_c, 5, 69, 0
8, 99960, Note_on_c, 5, 70, 103
8, 100008, Note_on_c, 5, 70, 0
8, 100020, Note_on_c, 5, 74, 127
8, 100068, Note_on_c, 5, 74, 0
8, 100080, Note_on_c, 5, 72, 123
8, 100128, Note_on_c, 5, 72, 0
8, 100140, Note_on_c, 5, 70, 111
8, 100164, Note_on_c, 5, 70, 0
8, 100170, Note_on_c, 5, 69, 127
8, 100194, Note_on_c, 5, 69, 0
8, 100200, Note_on_c, 5, 67, 121
8, 100248, Note_on_c, 5, 67, 0
8, 100260, Note_on_c, 5, 60, 123
8, 100308, Note_on_c, 5, 60, 0
8, 100320, Note_on_c, 5, 65, 127
8, 100368, Note_on_c, 5, 65, 0
8, 100380, Note_on_c, 5, 67, 118
8, 100428, Note_on_c, 5, 67, 0
8, 100440, Note_on_c, 5, 69, 102
8, 100488, Note_on_c, 5, 69, 0
8, 100500, Note_on_c, 5, 70, 115
8, 100524, Note_on_c, 5, 70, 0
8, 100530, Note_on_c, 5, 69, 123
8, 100554, Note_on_c, 5, 69, 0
8, 100560, Note_on_c, 5, 67, 107
8, 100752, Note_on_c, 5, 67, 0
8, 102300, Note_on_c, 5, 57, 105
8, 102348, Note_on_c, 5, 57, 0
8, 102360, Note_on_c, 5, 58, 107
8, 102408, Note_on_c, 5, 58, 0
8, 102420, Note_on_c, 5, 62, 103
8, 102468, Note_on_c, 5, 62, 0
8, 102480, Note_on_c, 5, 60, 109
8, 102528, Note_on_c, 5, 60, 0
8, 102540, Note_on_c, 5, 55, 91
8, 102564, Note_on_c, 5, 55, 0
8, 102570, Note_on_c, 5, 57, 118
8, 102594, Note_on_c, 5, 57, 0
8, 102600, Note_on_c, 5, 58, 101
8, 102648, Note_on_c, 5, 58, 0
8, 102660, Note_on_c, 5, 55, 109
8, 102708, Note_on_c, 5, 55, 0
8, 102720, Note_on_c, 5, 57, 102
8, 102768, Note_on_c, 5, 57, 0
8, 104160, Note_on_c, 5, 57, 106
8, 104256, Note_on_c, 5, 57, 0
8, 104280, Note_on_c, 5, 60, 106
8, 104376, Note_on_c, 5, 60, 0
8, 104400, Note_on_c, 5, 58, 97
8, 104544, Note_on_c, 5, 58, 0
8, 104580, Note_on_c, 5, 57, 121
8, 104628, Note_on_c, 5, 57, 0
8, 104640, Note_on_c, 5, 62, 123
8, 104736, Note_on_c, 5, 62, 0
8, 104760, Note_on_c, 5, 60, 104
8, 104856, Note_on_c, 5, 60, 0
8, 104880, Note_on_c, 5, 55, 110
8, 104928, Note_on_c, 5, 55, 0
8, 104940, Note_on_c, 5, 55, 120
8, 104964, Note_on_c, 5, 55, 0
8, 104970, Note_on_c, 5, 57, 127
8, 104994, Note_on_c, 5, 57, 0
8, 105000, Note_on_c, 5, 58, 107
8, 105048, Note_on_c, 5, 58, 0
8, 105060, Note_on_c, 5, 59, 88
8, 105108, Note_on_c, 5, 59, 0
8, 105120, Note_on_c, 5, 60, 127
8, 105168, Note_on_c, 5, 60, 0
8, 105180, Note_on_c, 5, 55, 113
8, 105204, Note_on_c, 5, 55, 0
8, 105210, Note_on_c, 5, 57, 127
8, 105234, Note_on_c, 5, 57, 0
8, 105240, Note_on_c, 5, 58, 100
8, 105288, Note_on_c, 5, 58, 0
8, 105300, Note_on_c, 5, 59, 98
8, 105348, Note_on_c, 5, 59, 0
8, 105360, Note_on_c, 5, 60, 116
8, 105408, Note_on_c, 5, 60, 0
8, 105420, Note_on_c, 5, 55, 105
8, 105444, Note_on_c, 5, 55, 0
8, 105450, Note_on_c, 5, 57, 114
8, 105474, Note_on_c, 5, 57, 0
8, 105480, Note_on_c, 5, 58, 109
8, 105528, Note_on_c, 5, 58, 0
8, 105540, Note_on_c, 5, 59, 94
8, 105588, Note_on_c, 5, 59, 0
8, 105600, Note_on_c, 5, 60, 123
8, 105648, Note_on_c, 5, 60, 0
8, 105660, Note_on_c, 5, 55, 104
8, 105684, Note_on_c, 5, 55, 0
8, 105690, Note_on_c, 5, 57, 127
8, 105714, Note_on_c, 5, 57, 0
8, 105720, Note_on_c, 5, 58, 88
8, 105768, Note_on_c, 5, 58, 0
8, 105780, Note_on_c, 5, 59, 94
8, 105828, Note_on_c, 5, 59, 0
8, 105840, Note_on_c, 5, 60, 109
8, 105936, Note_on_c, 5, 60, 0
8, 107100, Note_on_c, 5, 57, 113
8, 107124, Note_on_c, 5, 57, 0
8, 107130, Note_on_c, 5, 58, 97
8, 107154, Note_on_c, 5, 58, 0
8, 107160, Note_on_c, 5, 60, 127
8, 107208, Note_on_c, 5, 60, 0
8, 107220, Note_on_c, 5, 61, 115
8, 107268, Note_on_c, 5, 61, 0
8, 107280, Note_on_c, 5, 62, 103
8, 107328, Note_on_c, 5, 62, 0
8, 107340, Note_on_c, 5, 58, 98
8, 107364, Note_on_c, 5, 58, 0
8, 107370, Note_on_c, 5, 60, 118
8, 107394, Note_on_c, 5, 60, 0
8, 107400, Note_on_c, 5, 62, 97
8, 107448, Note_on_c, 5, 62, 0
8, 107460, Note_on_c, 5, 64, 99
8, 107508, Note_on_c, 5, 64, 0
8, 107520, Note_on_c, 5, 65, 125
8, 107568, Note_on_c, 5, 65, 0
8, 107580, Note_on_c, 5, 62, 109
8, 107604, Note_on_c, 5, 62, 0
8, 107610, Note_on_c, 5, 64, 127
8, 107634, Note_on_c, 5, 64, 0
8, 107640, Note_on_c, 5, 65, 127
8, 107688, Note_on_c, 5, 65, 0
8, 107700, Note_on_c, 5, 67, 123
8, 107748, Note_on_c, 5, 67, 0
8, 107760, Note_on_c, 5, 65, 105
8, 107760, Note_on_c, 5, 69, 121
8, 107760, Note_on_c, 5, 77, 103
8, 107808, Note_on_c, 5, 77, 0
8, 107808, Note_on_c, 5, 69, 0
8, 107808, Note_on_c, 5, 65, 0
8, 107820, Note_on_c, 5, 69, 109
8, 107868, Note_on_c, 5, 69, 0
8, 107880, Note_on_c, 5, 70, 118
8, 107928, Note_on_c, 5, 70, 0
8, 107940, Note_on_c, 5, 74, 120
8, 107988, Note_on_c, 5, 74, 0
8, 108000, Note_on_c, 5, 72, 118
8, 108048, Note_on_c, 5, 72, 0
8, 108060, Note_on_c, 5, 70, 109
8, 108084, Note_on_c, 5, 70, 0
8, 108090, Note_on_c, 5, 69, 123
8, 108114, Note_on_c, 5, 69, 0
8, 108120, Note_on_c, 5, 67, 127
8, 108168, Note_on_c, 5, 67, 0
8, 108180, Note_on_c, 5, 60, 104
8, 108228, Note_on_c, 5, 60, 0
8, 108240, Note_on_c, 5, 65, 127
8, 108288, Note_on_c, 5, 65, 0
8, 108300, Note_on_c, 5, 76, 109
8, 108348, Note_on_c, 5, 76, 0
8, 108360, Note_on_c, 5, 77, 107
8, 108408, Note_on_c, 5, 77, 0
8, 108420, Note_on_c, 5, 79, 127
8, 108444, Note_on_c, 5, 79, 0
8, 108450, Note_on_c, 5, 77, 118
8, 108474, Note_on_c, 5, 77, 0
8, 108480, Note_on_c, 5, 76, 127
8, 108528, Note_on_c, 5, 76, 0
8, 108540, Note_on_c, 5, 77, 127
8, 108588, Note_on_c, 5, 77, 0
8, 108600, Note_on_c, 5, 79, 114
8, 108648, Note_on_c, 5, 79, 0
8, 108660, Note_on_c, 5, 81, 121
8, 108684, Note_on_c, 5, 81, 0
8, 108690, Note_on_c, 5, 79, 125
8, 108714, Note_on_c, 5, 79, 0
8, 108720, Note_on_c, 5, 77, 127
8, 108768, Note_on_c, 5, 77, 0
8, 108780, Note_on_c, 5, 81, 112
8, 108828, Note_on_c, 5, 81, 0
8, 108840, Note_on_c, 5, 81, 112
8, 108888, Note_on_c, 5, 81, 0
8, 108900, Note_on_c, 5, 81, 116
8, 108948, Note_on_c, 5, 81, 0
8, 108960, Note_on_c, 5, 81, 116
8, 109056, Note_on_c, 5, 81, 0
8, 109080, Note_on_c, 5, 79, 116
8, 109104, Note_on_c, 5, 79, 0
8, 109110, Note_on_c, 5, 77, 113
8, 109134, Note_on_c, 5, 77, 0
8, 109140, Note_on_c, 5, 76, 108
8, 109164, Note_on_c, 5, 76, 0
8, 109170, Note_on_c, 5, 74, 107
8, 109194, Note_on_c, 5, 74, 0
8, 109200, Note_on_c, 5, 72, 109
8, 109248, Note_on_c, 5, 72, 0
8, 109260, Note_on_c, 5, 74, 127
8, 109308, Note_on_c, 5, 74, 0
8, 109320, Note_on_c, 5, 76, 112
8, 109368, Note_on_c, 5, 76, 0
8, 109380, Note_on_c, 5, 77, 110
8, 109404, Note_on_c, 5, 77, 0
8, 109410, Note_on_c, 5, 76, 114
8, 109434, Note_on_c, 5, 76, 0
8, 109440, Note_on_c, 5, 74, 121
8, 109488, Note_on_c, 5, 74, 0
8, 109500, Note_on_c, 5, 76, 127
8, 109548, Note_on_c, 5, 76, 0
8, 109560, Note_on_c, 5, 77, 123
8, 109608, Note_on_c, 5, 77, 0
8, 109620, Note_on_c, 5, 79, 120
8, 109644, Note_on_c, 5, 79, 0
8, 109650, Note_on_c, 5, 77, 127
8, 109674, Note_on_c, 5, 77, 0
8, 109680, Note_on_c, 5, 76, 125
8, 109728, Note_on_c, 5, 76, 0
8, 109740, Note_on_c, 5, 79, 118
8, 109788, Note_on_c, 5, 79, 0
8, 109800, Note_on_c, 5, 79, 120
8, 109848, Note_on_c, 5, 79, 0
8, 109860, Note_on_c, 5, 79, 125
8, 109908, Note_on_c, 5, 79, 0
8, 109920, Note_on_c, 5, 79, 118
8, 110016, Note_on_c, 5, 79, 0
8, 110040, Note_on_c, 5, 81, 108
8, 110064, Note_on_c, 5, 81, 0
8, 110070, Note_on_c, 5, 79, 123
8, 110094, Note_on_c, 5, 79, 0
8, 110100, Note_on_c, 5, 77, 118
8, 110124, Note_on_c, 5, 77, 0
8, 110130, Note_on_c, 5, 76, 116
8, 110154, Note_on_c, 5, 76, 0
8, 110160, Note_on_c, 5, 77, 127
8, 110208, Note_on_c, 5, 77, 0
8, 110220, Note_on_c, 5, 79, 101
8, 110268, Note_on_c, 5, 79, 0
8, 110280, Note_on_c, 5, 81, 106
8, 110328, Note_on_c, 5, 81, 0
8, 110340, Note_on_c, 5, 82, 96
8, 110364, Note_on_c, 5, 82, 0
8, 110370, Note_on_c, 5, 81, 104
8, 110394, Note_on_c, 5, 81, 0
8, 110400, Note_on_c, 5, 79, 127
8, 110448, Note_on_c, 5, 79, 0
8, 110460, Note_on_c, 5, 76, 123
8, 110508, Note_on_c, 5, 76, 0
8, 110520, Note_on_c, 5, 79, 127
8, 110568, Note_on_c, 5, 79, 0
8, 110580, Note_on_c, 5, 76, 125
8, 110628, Note_on_c, 5, 76, 0
8, 110640, Note_on_c, 5, 77, 120
8, 110688, Note_on_c, 5, 77, 0
8, 110700, Note_on_c, 5, 79, 121
8, 110748, Note_on_c, 5, 79, 0
8, 110760, Note_on_c, 5, 81, 108
8, 110808, Note_on_c, 5, 81, 0
8, 110820, Note_on_c, 5, 82, 115
8, 110844, Note_on_c, 5, 82, 0
8, 110850, Note_on_c, 5, 81, 127
8, 110874, Note_on_c, 5, 81, 0
8, 110880, Note_on_c, 5, 79, 127
8, 110928, Note_on_c, 5, 79, 0
8, 110940, Note_on_c, 5, 76, 103
8, 110988, Note_on_c, 5, 76, 0
8, 111000, Note_on_c, 5, 79, 107
8, 111048, Note_on_c, 5, 79, 0
8, 111060, Note_on_c, 5, 76, 109
8, 111108, Note_on_c, 5, 76, 0
8, 111120, Note_on_c, 5, 77, 125
8, 111168, Note_on_c, 5, 77, 0
8, 111180, Note_on_c, 5, 76, 123
8, 111228, Note_on_c, 5, 76, 0
8, 111240, Note_on_c, 5, 79, 127
8, 111288, Note_on_c, 5, 79, 0
8, 111300, Note_on_c, 5, 76, 120
8, 111348, Note_on_c, 5, 76, 0
8, 111360, Note_on_c, 5, 77, 125
8, 111408, Note_on_c, 5, 77, 0
8, 111420, Note_on_c, 5, 76, 123
8, 111468, Note_on_c, 5, 76, 0
8, 111480, Note_on_c, 5, 79, 127
8, 111528, Note_on_c, 5, 79, 0
8, 111540, Note_on_c, 5, 76, 120
8, 111588, Note_on_c, 5, 76, 0
8, 111600, Note_on_c, 5, 77, 109
8, 111600, Note_on_c, 5, 69, 101
8, 111648, Note_on_c, 5, 69, 0
8, 111648, Note_on_c, 5, 77, 0
8, 115500, Note_on_c, 5, 74, 103
8, 115548, Note_on_c, 5, 74, 0
8, 115560, Note_on_c, 5, 72, 118
8, 115608, Note_on_c, 5, 72, 0
8, 115620, Note_on_c, 5, 71, 112
8, 115668, Note_on_c, 5, 71, 0
8, 115680, Note_on_c, 5, 72, 112
8, 115728, Note_on_c, 5, 72, 0
8, 115920, Note_on_c, 5, 60, 100
8, 115968, Note_on_c, 5, 60, 0
8, 115980, Note_on_c, 5, 64, 109
8, 116028, Note_on_c, 5, 64, 0
8, 116040, Note_on_c, 5, 60, 109
8, 116088, Note_on_c, 5, 60, 0
8, 116100, Note_on_c, 5, 64, 101
8, 116148, Note_on_c, 5, 64, 0
8, 116160, Note_on_c, 5, 60, 114
8, 116208, Note_on_c, 5, 60, 0
8, 116220, Note_on_c, 5, 64, 109
8, 116268, Note_on_c, 5, 64, 0
8, 116280, Note_on_c, 5, 60, 109
8, 116328, Note_on_c, 5, 60, 0
8, 116340, Note_on_c, 5, 64, 112
8, 116388, Note_on_c, 5, 64, 0
8, 116400, Note_on_c, 5, 60, 109
8, 116448, Note_on_c, 5, 60, 0
8, 116460, Note_on_c, 5, 65, 104
8, 116508, Note_on_c, 5, 65, 0
8, 116520, Note_on_c, 5, 60, 113
8, 116568, Note_on_c, 5, 60, 0
8, 116580, Note_on_c, 5, 65, 114
8, 116628, Note_on_c, 5, 65, 0
8, 116640, Note_on_c, 5, 60, 108
8, 116688, Note_on_c, 5, 60, 0
8, 116700, Note_on_c, 5, 65, 104
8, 116748, Note_on_c, 5, 65, 0
8, 116760, Note_on_c, 5, 60, 101
8, 116808, Note_on_c, 5, 60, 0
8, 116820, Note_on_c, 5, 65, 118
8, 116868, Note_on_c, 5, 65, 0
8, 116880, Note_on_c, 5, 72, 109
8, 116928, Note_on_c, 5, 72, 0
8, 116940, Note_on_c, 5, 70, 101
8, 116988, Note_on_c, 5, 70, 0
8, 117000, Note_on_c, 5, 67, 99
8, 117048, Note_on_c, 5, 67, 0
8, 117060, Note_on_c, 5, 64, 114
8, 117108, Note_on_c, 5, 64, 0
8, 117120, Note_on_c, 5, 60, 116
8, 117168, Note_on_c, 5, 60, 0
8, 117180, Note_on_c, 5, 67, 114
8, 117228, Note_on_c, 5, 67, 0
8, 117240, Note_on_c, 5, 64, 90
8, 117288, Note_on_c, 5, 64, 0
8, 117300, Note_on_c, 5, 60, 109
8, 117348, Note_on_c, 5, 60, 0
8, 117360, Note_on_c, 5, 74, 121
8, 117408, Note_on_c, 5, 74, 0
8, 117420, Note_on_c, 5, 72, 120
8, 117468, Note_on_c, 5, 72, 0
8, 117480, Note_on_c, 5, 69, 102
8, 117528, Note_on_c, 5, 69, 0
8, 117540, Note_on_c, 5, 65, 98
8, 117588, Note_on_c, 5, 65, 0
8, 117600, Note_on_c, 5, 60, 103
8, 117648, Note_on_c, 5, 60, 0
8, 117660, Note_on_c, 5, 69, 107
8, 117708, Note_on_c, 5, 69, 0
8, 117720, Note_on_c, 5, 65, 105
8, 117768, Note_on_c, 5, 65, 0
8, 117780, Note_on_c, 5, 60, 101
8, 117828, Note_on_c, 5, 60, 0
8, 117840, Note_on_c, 5, 58, 86
8, 117888, Note_on_c, 5, 58, 0
8, 117900, Note_on_c, 5, 64, 104
8, 117948, Note_on_c, 5, 64, 0
8, 117960, Note_on_c, 5, 58, 83
8, 118008, Note_on_c, 5, 58, 0
8, 118020, Note_on_c, 5, 64, 101
8, 118068, Note_on_c, 5, 64, 0
8, 118080, Note_on_c, 5, 58, 97
8, 118128, Note_on_c, 5, 58, 0
8, 118140, Note_on_c, 5, 64, 102
8, 118188, Note_on_c, 5, 64, 0
8, 118200, Note_on_c, 5, 58, 94
8, 118248, Note_on_c, 5, 58, 0
8, 118260, Note_on_c, 5, 64, 104
8, 118308, Note_on_c, 5, 64, 0
8, 118320, Note_on_c, 5, 60, 102
8, 118368, Note_on_c, 5, 60, 0
8, 118380, Note_on_c, 5, 65, 113
8, 118428, Note_on_c, 5, 65, 0
8, 118440, Note_on_c, 5, 60, 112
8, 118488, Note_on_c, 5, 60, 0
8, 118500, Note_on_c, 5, 65, 80
8, 118548, Note_on_c, 5, 65, 0
8, 118560, Note_on_c, 5, 60, 116
8, 118608, Note_on_c, 5, 60, 0
8, 118620, Note_on_c, 5, 65, 109
8, 118668, Note_on_c, 5, 65, 0
8, 118680, Note_on_c, 5, 60, 103
8, 118728, Note_on_c, 5, 60, 0
8, 118740, Note_on_c, 5, 65, 103
8, 118788, Note_on_c, 5, 65, 0
8, 118800, Note_on_c, 5, 67, 101
8, 118848, Note_on_c, 5, 67, 0
8, 118860, Note_on_c, 5, 70, 86
8, 118908, Note_on_c, 5, 70, 0
8, 118920, Note_on_c, 5, 67, 104
8, 118968, Note_on_c, 5, 67, 0
8, 118980, Note_on_c, 5, 70, 96
8, 119028, Note_on_c, 5, 70, 0
8, 119040, Note_on_c, 5, 67, 102
8, 119088, Note_on_c, 5, 67, 0
8, 119100, Note_on_c, 5, 70, 105
8, 119148, Note_on_c, 5, 70, 0
8, 119160, Note_on_c, 5, 69, 127
8, 119208, Note_on_c, 5, 69, 0
8, 119220, Note_on_c, 5, 70, 120
8, 119268, Note_on_c, 5, 70, 0
8, 119280, Note_on_c, 5, 69, 114
8, 119328, Note_on_c, 5, 69, 0
8, 119340, Note_on_c, 5, 72, 127
8, 119388, Note_on_c, 5, 72, 0
8, 119400, Note_on_c, 5, 69, 120
8, 119448, Note_on_c, 5, 69, 0
8, 119460, Note_on_c, 5, 72, 127
8, 119508, Note_on_c, 5, 72, 0
8, 119520, Note_on_c, 5, 69, 120
8, 119568, Note_on_c, 5, 69, 0
8, 119580, Note_on_c, 5, 72, 102
8, 119628, Note_on_c, 5, 72, 0
8, 119640, Note_on_c, 5, 69, 107
8, 119688, Note_on_c, 5, 69, 0
8, 119700, Note_on_c, 5, 77, 102
8, 119748, Note_on_c, 5, 77, 0
8, 119760, Note_on_c, 5, 79, 103
8, 119792, Note_on_c, 5, 79, 0
8, 119800, Note_on_c, 5, 76, 113
8, 119832, Note_on_c, 5, 76, 0
8, 119840, Note_on_c, 5, 79, 127
8, 119872, Note_on_c, 5, 79, 0
8, 119880, Note_on_c, 5, 76, 113
8, 119912, Note_on_c, 5, 76, 0
8, 119920, Note_on_c, 5, 79, 104
8, 119952, Note_on_c, 5, 79, 0
8, 119960, Note_on_c, 5, 76, 107
8, 119992, Note_on_c, 5, 76, 0
8, 120000, Note_on_c, 5, 79, 116
8, 120032, Note_on_c, 5, 79, 0
8, 120040, Note_on_c, 5, 76, 116
8, 120072, Note_on_c, 5, 76, 0
8, 120080, Note_on_c, 5, 79, 127
8, 120112, Note_on_c, 5, 79, 0
8, 120120, Note_on_c, 5, 76, 118
8, 120152, Note_on_c, 5, 76, 0
8, 120160, Note_on_c, 5, 79, 116
8, 120192, Note_on_c, 5, 79, 0
8, 120200, Note_on_c, 5, 76, 111
8, 120232, Note_on_c, 5, 76, 0
8, 120240, Note_on_c, 5, 81, 120
8, 120272, Note_on_c, 5, 81, 0
8, 120280, Note_on_c, 5, 77, 108
8, 120312, Note_on_c, 5, 77, 0
8, 120320, Note_on_c, 5, 81, 109
8, 120352, Note_on_c, 5, 81, 0
8, 120360, Note_on_c, 5, 77, 111
8, 120392, Note_on_c, 5, 77, 0
8, 120400, Note_on_c, 5, 81, 105
8, 120432, Note_on_c, 5, 81, 0
8, 120440, Note_on_c, 5, 77, 110
8, 120472, Note_on_c, 5, 77, 0
8, 120480, Note_on_c, 5, 81, 109
8, 120512, Note_on_c, 5, 81, 0
8, 120520, Note_on_c, 5, 77, 100
8, 120552, Note_on_c, 5, 77, 0
8, 120560, Note_on_c, 5, 81, 107
8, 120592, Note_on_c, 5, 81, 0
8, 120600, Note_on_c, 5, 77, 97
8, 120632, Note_on_c, 5, 77, 0
8, 120640, Note_on_c, 5, 81, 109
8, 120672, Note_on_c, 5, 81, 0
8, 120680, Note_on_c, 5, 77, 100
8, 120712, Note_on_c, 5, 77, 0
8, 120720, Note_on_c, 5, 82, 101
8, 120744, Note_on_c, 5, 82, 0
8, 120750, Note_on_c, 5, 79, 102
8, 120774, Note_on_c, 5, 79, 0
8, 120780, Note_on_c, 5, 82, 95
8, 120804, Note_on_c, 5, 82, 0
8, 120810, Note_on_c, 5, 79, 105
8, 120834, Note_on_c, 5, 79, 0
8, 120840, Note_on_c, 5, 82, 100
8, 120864, Note_on_c, 5, 82, 0
8, 120870, Note_on_c, 5, 79, 103
8, 120894, Note_on_c, 5, 79, 0
8, 120900, Note_on_c, 5, 82, 99
8, 120924, Note_on_c, 5, 82, 0
8, 120930, Note_on_c, 5, 79, 109
8, 120954, Note_on_c, 5, 79, 0
8, 120960, Note_on_c, 5, 82, 100
8, 120984, Note_on_c, 5, 82, 0
8, 120990, Note_on_c, 5, 79, 114
8, 121014, Note_on_c, 5, 79, 0
8, 121020, Note_on_c, 5, 82, 103
8, 121044, Note_on_c, 5, 82, 0
8, 121050, Note_on_c, 5, 79, 111
8, 121074, Note_on_c, 5, 79, 0
8, 121080, Note_on_c, 5, 82, 94
8, 121104, Note_on_c, 5, 82, 0
8, 121110, Note_on_c, 5, 79, 118
8, 121134, Note_on_c, 5, 79, 0
8, 121140, Note_on_c, 5, 82, 107
8, 121164, Note_on_c, 5, 82, 0
8, 121170, Note_on_c, 5, 79, 110
8, 121194, Note_on_c, 5, 79, 0
8, 121200, Note_on_c, 5, 81, 101
8, 121224, Note_on_c, 5, 81, 0
8, 121230, Note_on_c, 5, 77, 99
8, 121254, Note_on_c, 5, 77, 0
8, 121260, Note_on_c, 5, 81, 111
8, 121284, Note_on_c, 5, 81, 0
8, 121290, Note_on_c, 5, 77, 105
8, 121314, Note_on_c, 5, 77, 0
8, 121320, Note_on_c, 5, 81, 103
8, 121344, Note_on_c, 5, 81, 0
8, 121350, Note_on_c, 5, 77, 109
8, 121374, Note_on_c, 5, 77, 0
8, 121380, Note_on_c, 5, 81, 113
8, 121404, Note_on_c, 5, 81, 0
8, 121410, Note_on_c, 5, 77, 109
8, 121434, Note_on_c, 5, 77, 0
8, 121440, Note_on_c, 5, 81, 120
8, 121464, Note_on_c, 5, 81, 0
8, 121470, Note_on_c, 5, 77, 106
8, 121494, Note_on_c, 5, 77, 0
8, 121500, Note_on_c, 5, 81, 125
8, 121524, Note_on_c, 5, 81, 0
8, 121530, Note_on_c, 5, 77, 108
8, 121554, Note_on_c, 5, 77, 0
8, 121560, Note_on_c, 5, 81, 114
8, 121584, Note_on_c, 5, 81, 0
8, 121590, Note_on_c, 5, 77, 105
8, 121614, Note_on_c, 5, 77, 0
8, 121620, Note_on_c, 5, 81, 106
8, 121644, Note_on_c, 5, 81, 0
8, 121650, Note_on_c, 5, 77, 105
8, 121674, Note_on_c, 5, 77, 0
8, 121680, Note_on_c, 5, 82, 97
8, 121704, Note_on_c, 5, 82, 0
8, 121710, Note_on_c, 5, 76, 123
8, 121734, Note_on_c, 5, 76, 0
8, 121740, Note_on_c, 5, 72, 106
8, 121764, Note_on_c, 5, 72, 0
8, 121770, Note_on_c, 5, 70, 100
8, 121794, Note_on_c, 5, 70, 0
8, 121800, Note_on_c, 5, 72, 103
8, 121824, Note_on_c, 5, 72, 0
8, 121830, Note_on_c, 5, 70, 86
8, 121854, Note_on_c, 5, 70, 0
8, 121860, Note_on_c, 5, 72, 110
8, 121884, Note_on_c, 5, 72, 0
8, 121890, Note_on_c, 5, 70, 92
8, 121914, Note_on_c, 5, 70, 0
8, 121920, Note_on_c, 5, 72, 120
8, 121944, Note_on_c, 5, 72, 0
8, 121950, Note_on_c, 5, 70, 91
8, 121974, Note_on_c, 5, 70, 0
8, 121980, Note_on_c, 5, 72, 114
8, 122004, Note_on_c, 5, 72, 0
8, 122010, Note_on_c, 5, 70, 90
8, 122034, Note_on_c, 5, 70, 0
8, 122040, Note_on_c, 5, 72, 113
8, 122064, Note_on_c, 5, 72, 0
8, 122070, Note_on_c, 5, 70, 88
8, 122094, Note_on_c, 5, 70, 0
8, 122100, Note_on_c, 5, 72, 103
8, 122124, Note_on_c, 5, 72, 0
8, 122130, Note_on_c, 5, 70, 83
8, 122154, Note_on_c, 5, 70, 0
8, 122160, Note_on_c, 5, 69, 125
8, 122304, Note_on_c, 5, 69, 0
8, 122340, Note_on_c, 5, 70, 105
8, 122364, Note_on_c, 5, 70, 0
8, 122370, Note_on_c, 5, 72, 109
8, 122394, Note_on_c, 5, 72, 0
8, 122400, Note_on_c, 5, 74, 120
8, 122448, Note_on_c, 5, 74, 0
8, 122460, Note_on_c, 5, 72, 127
8, 122484, Note_on_c, 5, 72, 0
8, 122490, Note_on_c, 5, 70, 96
8, 122514, Note_on_c, 5, 70, 0
8, 122520, Note_on_c, 5, 69, 109
8, 122568, Note_on_c, 5, 69, 0
8, 122580, Note_on_c, 5, 70, 105
8, 122604, Note_on_c, 5, 70, 0
8, 122610, Note_on_c, 5, 72, 125
8, 122634, Note_on_c, 5, 72, 0
8, 122640, Note_on_c, 5, 74, 116
8, 122688, Note_on_c, 5, 74, 0
8, 122700, Note_on_c, 5, 72, 127
8, 122724, Note_on_c, 5, 72, 0
8, 122730, Note_on_c, 5, 70, 91
8, 122754, Note_on_c, 5, 70, 0
8, 122760, Note_on_c, 5, 69, 105
8, 122808, Note_on_c, 5, 69, 0
8, 122820, Note_on_c, 5, 70, 103
8, 122844, Note_on_c, 5, 70, 0
8, 122850, Note_on_c, 5, 72, 114
8, 122874, Note_on_c, 5, 72, 0
8, 122880, Note_on_c, 5, 74, 125
8, 122928, Note_on_c, 5, 74, 0
8, 123840, Note_on_c, 5, 69, 127
8, 123984, Note_on_c, 5, 69, 0
8, 124020, Note_on_c, 5, 70, 127
8, 124044, Note_on_c, 5, 70, 0
8, 124050, Note_on_c, 5, 72, 121
8, 124074, Note_on_c, 5, 72, 0
8, 124080, Note_on_c, 5, 74, 127
8, 124128, Note_on_c, 5, 74, 0
8, 124140, Note_on_c, 5, 72, 123
8, 124164, Note_on_c, 5, 72, 0
8, 124170, Note_on_c, 5, 70, 127
8, 124194, Note_on_c, 5, 70, 0
8, 124200, Note_on_c, 5, 69, 118
8, 124248, Note_on_c, 5, 69, 0
8, 124260, Note_on_c, 5, 70, 127
8, 124284, Note_on_c, 5, 70, 0
8, 124290, Note_on_c, 5, 72, 117
8, 124314, Note_on_c, 5, 72, 0
8, 124320, Note_on_c, 5, 74, 111
8, 124368, Note_on_c, 5, 74, 0
8, 124380, Note_on_c, 5, 72, 127
8, 124404, Note_on_c, 5, 72, 0
8, 124410, Note_on_c, 5, 70, 127
8, 124434, Note_on_c, 5, 70, 0
8, 124440, Note_on_c, 5, 69, 121
8, 124488, Note_on_c, 5, 69, 0
8, 124500, Note_on_c, 5, 70, 127
8, 124524, Note_on_c, 5, 70, 0
8, 124530, Note_on_c, 5, 72, 112
8, 124554, Note_on_c, 5, 72, 0
8, 124560, Note_on_c, 5, 74, 127
8, 124608, Note_on_c, 5, 74, 0
8, 126480, Note_on_c, 5, 65, 114
8, 126512, Note_on_c, 5, 65, 0
8, 126520, Note_on_c, 5, 69, 110
8, 126552, Note_on_c, 5, 69, 0
8, 126560, Note_on_c, 5, 69, 108
8, 126592, Note_on_c, 5, 69, 0
8, 126600, Note_on_c, 5, 69, 110
8, 126632, Note_on_c, 5, 69, 0
8, 126640, Note_on_c, 5, 70, 87
8, 126672, Note_on_c, 5, 70, 0
8, 126680, Note_on_c, 5, 72, 108
8, 126712, Note_on_c, 5, 72, 0
8, 126720, Note_on_c, 5, 74, 99
8, 126752, Note_on_c, 5, 74, 0
8, 126760, Note_on_c, 5, 65, 113
8, 126792, Note_on_c, 5, 65, 0
8, 126800, Note_on_c, 5, 74, 104
8, 126832, Note_on_c, 5, 74, 0
8, 126840, Note_on_c, 5, 65, 116
8, 126872, Note_on_c, 5, 65, 0
8, 126880, Note_on_c, 5, 72, 101
8, 126912, Note_on_c, 5, 72, 0
8, 126920, Note_on_c, 5, 70, 78
8, 126952, Note_on_c, 5, 70, 0
8, 126960, Note_on_c, 5, 69, 111
8, 126992, Note_on_c, 5, 69, 0
8, 127000, Note_on_c, 5, 60, 105
8, 127032, Note_on_c, 5, 60, 0
8, 127040, Note_on_c, 5, 69, 107
8, 127072, Note_on_c, 5, 69, 0
8, 127080, Note_on_c, 5, 60, 111
8, 127112, Note_on_c, 5, 60, 0
8, 127120, Note_on_c, 5, 67, 109
8, 127152, Note_on_c, 5, 67, 0
8, 127160, Note_on_c, 5, 65, 106
8, 127192, Note_on_c, 5, 65, 0
8, 127200, Note_on_c, 5, 58, 94
8, 127232, Note_on_c, 5, 58, 0
8, 127240, Note_on_c, 5, 55, 102
8, 127272, Note_on_c, 5, 55, 0
8, 127280, Note_on_c, 5, 58, 87
8, 127312, Note_on_c, 5, 58, 0
8, 127320, Note_on_c, 5, 55, 113
8, 127352, Note_on_c, 5, 55, 0
8, 127360, Note_on_c, 5, 57, 118
8, 127392, Note_on_c, 5, 57, 0
8, 127400, Note_on_c, 5, 58, 95
8, 127432, Note_on_c, 5, 58, 0
8, 127440, Note_on_c, 5, 57, 100
8, 127536, Note_on_c, 5, 57, 0
8, 127620, Note_on_c, 5, 69, 109
8, 127644, Note_on_c, 5, 69, 0
8, 127650, Note_on_c, 5, 67, 104
8, 127674, Note_on_c, 5, 67, 0
8, 127680, Note_on_c, 5, 65, 127
8, 127728, Note_on_c, 5, 65, 0
8, 127740, Note_on_c, 5, 69, 127
8, 127764, Note_on_c, 5, 69, 0
8, 127770, Note_on_c, 5, 67, 104
8, 127794, Note_on_c, 5, 67, 0
8, 127800, Note_on_c, 5, 65, 127
8, 127848, Note_on_c, 5, 65, 0
8, 127860, Note_on_c, 5, 74, 127
8, 127884, Note_on_c, 5, 74, 0
8, 127890, Note_on_c, 5, 71, 108
8, 127914, Note_on_c, 5, 71, 0
8, 127920, Note_on_c, 5, 72, 127
8, 128016, Note_on_c, 5, 72, 0
8, 128100, Note_on_c, 5, 74, 127
8, 128124, Note_on_c, 5, 74, 0
8, 128130, Note_on_c, 5, 72, 127
8, 128154, Note_on_c, 5, 72, 0
8, 128160, Note_on_c, 5, 69, 127
8, 128208, Note_on_c, 5, 69, 0
8, 128220, Note_on_c, 5, 72, 127
8, 128244, Note_on_c, 5, 72, 0
8, 128250, Note_on_c, 5, 70, 113
8, 128274, Note_on_c, 5, 70, 0
8, 128280, Note_on_c, 5, 67, 127
8, 128328, Note_on_c, 5, 67, 0
8, 128340, Note_on_c, 5, 70, 121
8, 128364, Note_on_c, 5, 70, 0
8, 128370, Note_on_c, 5, 69, 127
8, 128394, Note_on_c, 5, 69, 0
8, 128400, Note_on_c, 5, 65, 127
8, 128496, Note_on_c, 5, 65, 0
8, 128580, Note_on_c, 5, 69, 127
8, 128604, Note_on_c, 5, 69, 0
8, 128610, Note_on_c, 5, 67, 123
8, 128634, Note_on_c, 5, 67, 0
8, 128640, Note_on_c, 5, 65, 127
8, 128688, Note_on_c, 5, 65, 0
8, 128700, Note_on_c, 5, 69, 127
8, 128724, Note_on_c, 5, 69, 0
8, 128730, Note_on_c, 5, 67, 117
8, 128754, Note_on_c, 5, 67, 0
8, 128760, Note_on_c, 5, 65, 127
8, 128808, Note_on_c, 5, 65, 0
8, 128820, Note_on_c, 5, 74, 127
8, 128844, Note_on_c, 5, 74, 0
8, 128850, Note_on_c, 5, 71, 127
8, 128874, Note_on_c, 5, 71, 0
8, 128880, Note_on_c, 5, 72, 127
8, 128976, Note_on_c, 5, 72, 0
8, 129060, Note_on_c, 5, 74, 127
8, 129084, Note_on_c, 5, 74, 0
8, 129090, Note_on_c, 5, 72, 120
8, 129114, Note_on_c, 5, 72, 0
8, 129120, Note_on_c, 5, 69, 127
8, 129168, Note_on_c, 5, 69, 0
8, 129180, Note_on_c, 5, 72, 127
8, 129204, Note_on_c, 5, 72, 0
8, 129210, Note_on_c, 5, 70, 93
8, 129234, Note_on_c, 5, 70, 0
8, 129240, Note_on_c, 5, 67, 127
8, 129288, Note_on_c, 5, 67, 0
8, 129300, Note_on_c, 5, 70, 115
8, 129324, Note_on_c, 5, 70, 0
8, 129330, Note_on_c, 5, 69, 123
8, 129354, Note_on_c, 5, 69, 0
8, 129360, Note_on_c, 5, 65, 101
8, 129408, Note_on_c, 5, 65, 0
8, 130320, Note_on_c, 5, 65, 127
8, 130368, Note_on_c, 5, 65, 0
8, 130380, Note_on_c, 5, 72, 127
8, 130404, Note_on_c, 5, 72, 0
8, 130410, Note_on_c, 5, 69, 120
8, 130434, Note_on_c, 5, 69, 0
8, 130440, Note_on_c, 5, 67, 127
8, 130488, Note_on_c, 5, 67, 0
8, 130500, Note_on_c, 5, 72, 127
8, 130524, Note_on_c, 5, 72, 0
8, 130530, Note_on_c, 5, 70, 118
8, 130554, Note_on_c, 5, 70, 0
8, 130560, Note_on_c, 5, 65, 127
8, 130608, Note_on_c, 5, 65, 0
8, 130620, Note_on_c, 5, 72, 127
8, 130644, Note_on_c, 5, 72, 0
8, 130650, Note_on_c, 5, 69, 120
8, 130674, Note_on_c, 5, 69, 0
8, 130680, Note_on_c, 5, 67, 127
8, 130728, Note_on_c, 5, 67, 0
8, 130740, Note_on_c, 5, 72, 127
8, 130764, Note_on_c, 5, 72, 0
8, 130770, Note_on_c, 5, 70, 118
8, 130794, Note_on_c, 5, 70, 0
8, 130800, Note_on_c, 5, 65, 127
8, 130848, Note_on_c, 5, 65, 0
8, 130860, Note_on_c, 5, 72, 127
8, 130884, Note_on_c, 5, 72, 0
8, 130890, Note_on_c, 5, 69, 120
8, 130914, Note_on_c, 5, 69, 0
8, 130920, Note_on_c, 5, 67, 127
8, 130968, Note_on_c, 5, 67, 0
8, 130980, Note_on_c, 5, 72, 127
8, 131004, Note_on_c, 5, 72, 0
8, 131010, Note_on_c, 5, 70, 118
8, 131034, Note_on_c, 5, 70, 0
8, 131040, Note_on_c, 5, 65, 127
8, 131088, Note_on_c, 5, 65, 0
8, 131100, Note_on_c, 5, 72, 127
8, 131124, Note_on_c, 5, 72, 0
8, 131130, Note_on_c, 5, 69, 120
8, 131154, Note_on_c, 5, 69, 0
8, 131160, Note_on_c, 5, 67, 127
8, 131208, Note_on_c, 5, 67, 0
8, 131220, Note_on_c, 5, 72, 127
8, 131244, Note_on_c, 5, 72, 0
8, 131250, Note_on_c, 5, 70, 118
8, 131274, Note_on_c, 5, 70, 0
8, 131280, Note_on_c, 5, 65, 105
8, 131376, Note_on_c, 5, 65, 0
8, 131400, Note_on_c, 5, 60, 102
8, 131496, Note_on_c, 5, 60, 0
8, 131520, Note_on_c, 5, 65, 100
8, 131616, Note_on_c, 5, 65, 0
8, 131640, Note_on_c, 5, 60, 109
8, 131736, Note_on_c, 5, 60, 0
8, 131760, Note_on_c, 5, 65, 109
8, 131856, Note_on_c, 5, 65, 0
8, 131880, Note_on_c, 5, 60, 104
8, 131976, Note_on_c, 5, 60, 0
8, 132000, Note_on_c, 5, 65, 107
8, 132096, Note_on_c, 5, 65, 0
8, 132120, Note_on_c, 5, 60, 100
8, 132216, Note_on_c, 5, 60, 0
8, 132240, Note_on_c, 5, 65, 107
8, 132288, Note_on_c, 5, 65, 0
8, 133020, Note_on_c, 5, 74, 98
8, 133068, Note_on_c, 5, 74, 0
8, 133080, Note_on_c, 5, 75, 79
8, 133128, Note_on_c, 5, 75, 0
8, 133140, Note_on_c, 5, 79, 100
8, 133188, Note_on_c, 5, 79, 0
8, 134220, Note_on_c, 5, 70, 90
8, 134268, Note_on_c, 5, 70, 0
8, 134280, Note_on_c, 5, 58, 93
8, 134328, Note_on_c, 5, 58, 0
8, 134340, Note_on_c, 5, 70, 101
8, 134388, Note_on_c, 5, 70, 0
8, 134400, Note_on_c, 5, 58, 105
8, 134448, Note_on_c, 5, 58, 0
8, 134460, Note_on_c, 5, 67, 120
8, 134508, Note_on_c, 5, 67, 0
8, 134520, Note_on_c, 5, 69, 100
8, 134568, Note_on_c, 5, 69, 0
8, 134580, Note_on_c, 5, 57, 113
8, 134628, Note_on_c, 5, 57, 0
8, 134640, Note_on_c, 5, 65, 120
8, 134688, Note_on_c, 5, 65, 0
8, 134700, Note_on_c, 5, 63, 82
8, 134748, Note_on_c, 5, 63, 0
8, 134760, Note_on_c, 5, 62, 102
8, 134808, Note_on_c, 5, 62, 0
8, 134820, Note_on_c, 5, 63, 101
8, 134844, Note_on_c, 5, 63, 0
8, 134850, Note_on_c, 5, 62, 112
8, 134874, Note_on_c, 5, 62, 0
8, 134880, Note_on_c, 5, 60, 120
8, 134928, Note_on_c, 5, 60, 0
8, 134940, Note_on_c, 5, 70, 101
8, 134988, Note_on_c, 5, 70, 0
8, 135000, Note_on_c, 5, 69, 108
8, 135048, Note_on_c, 5, 69, 0
8, 135060, Note_on_c, 5, 69, 114
8, 135108, Note_on_c, 5, 69, 0
8, 135120, Note_on_c, 5, 70, 111
8, 135168, Note_on_c, 5, 70, 0
8, 135360, Note_on_c, 5, 57, 111
8, 135408, Note_on_c, 5, 57, 0
8, 135600, Note_on_c, 5, 58, 103
8, 135632, Note_on_c, 5, 58, 0
8, 135640, Note_on_c, 5, 70, 107
8, 135672, Note_on_c, 5, 70, 0
8, 135680, Note_on_c, 5, 70, 100
8, 135712, Note_on_c, 5, 70, 0
8, 135720, Note_on_c, 5, 70, 90
8, 135816, Note_on_c, 5, 70, 0
8, 136080, Note_on_c, 5, 70, 107
8, 136112, Note_on_c, 5, 70, 0
8, 136120, Note_on_c, 5, 70, 94
8, 136152, Note_on_c, 5, 70, 0
8, 136160, Note_on_c, 5, 70, 113
8, 136192, Note_on_c, 5, 70, 0
8, 136200, Note_on_c, 5, 70, 105
8, 136592, Note_on_c, 5, 70, 0
8, 136600, Note_on_c, 5, 70, 94
8, 136632, Note_on_c, 5, 70, 0
8, 136640, Note_on_c, 5, 70, 113
8, 136672, Note_on_c, 5, 70, 0
8, 136680, Note_on_c, 5, 70, 105
8, 137072, Note_on_c, 5, 70, 0
8, 137080, Note_on_c, 5, 70, 94
8, 137112, Note_on_c, 5, 70, 0
8, 137120, Note_on_c, 5, 70, 113
8, 137152, Note_on_c, 5, 70, 0
8, 137160, Note_on_c, 5, 70, 105
8, 137552, Note_on_c, 5, 70, 0
8, 137560, Note_on_c, 5, 70, 113
8, 137592, Note_on_c, 5, 70, 0
8, 137600, Note_on_c, 5, 70, 109
8, 137632, Note_on_c, 5, 70, 0
8, 137640, Note_on_c, 5, 70, 103
8, 137792, Note_on_c, 5, 70, 0
8, 137800, Note_on_c, 5, 67, 127
8, 137832, Note_on_c, 5, 67, 0
8, 137840, Note_on_c, 5, 67, 123
8, 137872, Note_on_c, 5, 67, 0
8, 137880, Note_on_c, 5, 67, 127
8, 138032, Note_on_c, 5, 67, 0
8, 138040, Note_on_c, 5, 64, 117
8, 138072, Note_on_c, 5, 64, 0
8, 138080, Note_on_c, 5, 64, 113
8, 138112, Note_on_c, 5, 64, 0
8, 138120, Note_on_c, 5, 64, 116
8, 138272, Note_on_c, 5, 64, 0
8, 138280, Note_on_c, 5, 60, 103
8, 138312, Note_on_c, 5, 60, 0
8, 138320, Note_on_c, 5, 60, 116
8, 138352, Note_on_c, 5, 60, 0
8, 138360, Note_on_c, 5, 60, 112
8, 138456, Note_on_c, 5, 60, 0
8, 138480, Note_on_c, 5, 57, 105
8, 138480, Note_on_c, 5, 65, 112
8, 138576, Note_on_c, 5, 57, 0
8, 138632, Note_on_c, 5, 65, 0
8, 138640, Note_on_c, 5, 69, 107
8, 138672, Note_on_c, 5, 69, 0
8, 138680, Note_on_c, 5, 67, 75
8, 138712, Note_on_c, 5, 67, 0
8, 138720, Note_on_c, 5, 65, 113
8, 138752, Note_on_c, 5, 65, 0
8, 138760, Note_on_c, 5, 69, 117
8, 138792, Note_on_c, 5, 69, 0
8, 138800, Note_on_c, 5, 67, 108
8, 138832, Note_on_c, 5, 67, 0
8, 138840, Note_on_c, 5, 65, 98
8, 138872, Note_on_c, 5, 65, 0
8, 138880, Note_on_c, 5, 74, 104
8, 138912, Note_on_c, 5, 74, 0
8, 138920, Note_on_c, 5, 71, 109
8, 138952, Note_on_c, 5, 71, 0
8, 138960, Note_on_c, 5, 72, 99
8, 139112, Note_on_c, 5, 72, 0
8, 139120, Note_on_c, 5, 74, 118
8, 139152, Note_on_c, 5, 74, 0
8, 139160, Note_on_c, 5, 72, 107
8, 139192, Note_on_c, 5, 72, 0
8, 139200, Note_on_c, 5, 69, 110
8, 139232, Note_on_c, 5, 69, 0
8, 139240, Note_on_c, 5, 72, 127
8, 139272, Note_on_c, 5, 72, 0
8, 139280, Note_on_c, 5, 70, 83
8, 139312, Note_on_c, 5, 70, 0
8, 139320, Note_on_c, 5, 67, 109
8, 139352, Note_on_c, 5, 67, 0
8, 139360, Note_on_c, 5, 70, 83
8, 139392, Note_on_c, 5, 70, 0
8, 139400, Note_on_c, 5, 69, 100
8, 139432, Note_on_c, 5, 69, 0
8, 139440, Note_on_c, 5, 65, 107
8, 139592, Note_on_c, 5, 65, 0
8, 139600, Note_on_c, 5, 69, 121
8, 139632, Note_on_c, 5, 69, 0
8, 139640, Note_on_c, 5, 67, 109
8, 139672, Note_on_c, 5, 67, 0
8, 139680, Note_on_c, 5, 65, 110
8, 139712, Note_on_c, 5, 65, 0
8, 139720, Note_on_c, 5, 69, 125
8, 139752, Note_on_c, 5, 69, 0
8, 139760, Note_on_c, 5, 67, 106
8, 139792, Note_on_c, 5, 67, 0
8, 139800, Note_on_c, 5, 65, 112
8, 139832, Note_on_c, 5, 65, 0
8, 139840, Note_on_c, 5, 74, 127
8, 139872, Note_on_c, 5, 74, 0
8, 139880, Note_on_c, 5, 71, 98
8, 139912, Note_on_c, 5, 71, 0
8, 139920, Note_on_c, 5, 72, 100
8, 140072, Note_on_c, 5, 72, 0
8, 140080, Note_on_c, 5, 74, 117
8, 140112, Note_on_c, 5, 74, 0
8, 140120, Note_on_c, 5, 72, 109
8, 140152, Note_on_c, 5, 72, 0
8, 140160, Note_on_c, 5, 69, 113
8, 140192, Note_on_c, 5, 69, 0
8, 140200, Note_on_c, 5, 72, 114
8, 140232, Note_on_c, 5, 72, 0
8, 140240, Note_on_c, 5, 70, 100
8, 140272, Note_on_c, 5, 70, 0
8, 140280, Note_on_c, 5, 67, 107
8, 140312, Note_on_c, 5, 67, 0
8, 140320, Note_on_c, 5, 70, 99
8, 140352, Note_on_c, 5, 70, 0
8, 140360, Note_on_c, 5, 69, 112
8, 140392, Note_on_c, 5, 69, 0
8, 140400, Note_on_c, 5, 65, 107
8, 140552, Note_on_c, 5, 65, 0
8, 140560, Note_on_c, 5, 77, 117
8, 140592, Note_on_c, 5, 77, 0
8, 140600, Note_on_c, 5, 77, 114
8, 140632, Note_on_c, 5, 77, 0
8, 140640, Note_on_c, 5, 77, 99
8, 140792, Note_on_c, 5, 77, 0
8, 140800, Note_on_c, 5, 77, 106
8, 140832, Note_on_c, 5, 77, 0
8, 140840, Note_on_c, 5, 77, 111
8, 140872, Note_on_c, 5, 77, 0
8, 140880, Note_on_c, 5, 81, 101
8, 141032, Note_on_c, 5, 81, 0
8, 141040, Note_on_c, 5, 81, 108
8, 141072, Note_on_c, 5, 81, 0
8, 141080, Note_on_c, 5, 81, 113
8, 141112, Note_on_c, 5, 81, 0
8, 141120, Note_on_c, 5, 76, 102
8, 141272, Note_on_c, 5, 76, 0
8, 141280, Note_on_c, 5, 76, 104
8, 141312, Note_on_c, 5, 76, 0
8, 141320, Note_on_c, 5, 76, 107
8, 141352, Note_on_c, 5, 76, 0
8, 141360, Note_on_c, 5, 77, 111
8, 141512, Note_on_c, 5, 77, 0
8, 141520, Note_on_c, 5, 77, 108
8, 141552, Note_on_c, 5, 77, 0
8, 141560, Note_on_c, 5, 77, 109
8, 141592, Note_on_c, 5, 77, 0
8, 141600, Note_on_c, 5, 77, 118
8, 141752, Note_on_c, 5, 77, 0
8, 141760, Note_on_c, 5, 77, 109
8, 141792, Note_on_c, 5, 77, 0
8, 141800, Note_on_c, 5, 77, 106
8, 141832, Note_on_c, 5, 77, 0
8, 141840, Note_on_c, 5, 81, 100
8, 141992, Note_on_c, 5, 81, 0
8, 142000, Note_on_c, 5, 81, 108
8, 142032, Note_on_c, 5, 81, 0
8, 142040, Note_on_c, 5, 81, 110
8, 142072, Note_on_c, 5, 81, 0
8, 142080, Note_on_c, 5, 76, 113
8, 142232, Note_on_c, 5, 76, 0
8, 142240, Note_on_c, 5, 76, 120
8, 142272, Note_on_c, 5, 76, 0
8, 142280, Note_on_c, 5, 76, 116
8, 142312, Note_on_c, 5, 76, 0
8, 142320, Note_on_c, 5, 77, 113
8, 142472, Note_on_c, 5, 77, 0
8, 142480, Note_on_c, 5, 77, 101
8, 142512, Note_on_c, 5, 77, 0
8, 142520, Note_on_c, 5, 77, 102
8, 142552, Note_on_c, 5, 77, 0
8, 142560, Note_on_c, 5, 77, 109
8, 142712, Note_on_c, 5, 77, 0
8, 142720, Note_on_c, 5, 77, 107
8, 142752, Note_on_c, 5, 77, 0
8, 142760, Note_on_c, 5, 77, 112
8, 142792, Note_on_c, 5, 77, 0
8, 142800, Note_on_c, 5, 81, 125
8, 142952, Note_on_c, 5, 81, 0
8, 142960, Note_on_c, 5, 81, 121
8, 142992, Note_on_c, 5, 81, 0
8, 143000, Note_on_c, 5, 81, 120
8, 143032, Note_on_c, 5, 81, 0
8, 143040, Note_on_c, 5, 81, 116
8, 143192, Note_on_c, 5, 81, 0
8, 143200, Note_on_c, 5, 81, 121
8, 143232, Note_on_c, 5, 81, 0
8, 143240, Note_on_c, 5, 81, 123
8, 143272, Note_on_c, 5, 81, 0
8, 143280, Note_on_c, 5, 81, 121
8, 143432, Note_on_c, 5, 81, 0
8, 143440, Note_on_c, 5, 79, 90
8, 143472, Note_on_c, 5, 79, 0
8, 143480, Note_on_c, 5, 79, 101
8, 143512, Note_on_c, 5, 79, 0
8, 143520, Note_on_c, 5, 79, 94
8, 143672, Note_on_c, 5, 79, 0
8, 143680, Note_on_c, 5, 77, 125
8, 143712, Note_on_c, 5, 77, 0
8, 143720, Note_on_c, 5, 77, 118
8, 143752, Note_on_c, 5, 77, 0
8, 143760, Note_on_c, 5, 77, 111
8, 143920, Note_on_c, 5, 76, 108
8, 143952, Note_on_c, 5, 76, 0
8, 143960, Note_on_c, 5, 76, 109
8, 143992, Note_on_c, 5, 76, 0
8, 144000, Note_on_c, 5, 76, 109
8, 144152, Note_on_c, 5, 76, 0
8, 144160, Note_on_c, 5, 74, 100
8, 144192, Note_on_c, 5, 74, 0
8, 144200, Note_on_c, 5, 74, 103
8, 144232, Note_on_c, 5, 74, 0
8, 144240, Note_on_c, 5, 74, 112
8, 144392, Note_on_c, 5, 74, 0
8, 144400, Note_on_c, 5, 72, 103
8, 144432, Note_on_c, 5, 72, 0
8, 144440, Note_on_c, 5, 72, 107
8, 144472, Note_on_c, 5, 72, 0
8, 144480, Note_on_c, 5, 72, 110
8, 144632, Note_on_c, 5, 72, 0
8, 144640, Note_on_c, 5, 70, 109
8, 144672, Note_on_c, 5, 70, 0
8, 144680, Note_on_c, 5, 70, 109
8, 144712, Note_on_c, 5, 70, 0
8, 144720, Note_on_c, 5, 70, 107
8, 144872, Note_on_c, 5, 70, 0
8, 144880, Note_on_c, 5, 69, 109
8, 144912, Note_on_c, 5, 69, 0
8, 144920, Note_on_c, 5, 69, 113
8, 144952, Note_on_c, 5, 69, 0
8, 144960, Note_on_c, 5, 69, 113
8, 145112, Note_on_c, 5, 69, 0
8, 145120, Note_on_c, 5, 67, 94
8, 145152, Note_on_c, 5, 67, 0
8, 145160, Note_on_c, 5, 67, 86
8, 145192, Note_on_c, 5, 67, 0
8, 145440, Note_on_c, 5, 65, 103
8, 145488, Note_on_c, 5, 65, 0
8, 145500, Note_on_c, 5, 62, 109
8, 145524, Note_on_c, 5, 62, 0
8, 145530, Note_on_c, 5, 60, 104
8, 145554, Note_on_c, 5, 60, 0
8, 145560, Note_on_c, 5, 59, 111
8, 145608, Note_on_c, 5, 59, 0
8, 145620, Note_on_c, 5, 55, 112
8, 145668, Note_on_c, 5, 55, 0
8, 145680, Note_on_c, 5, 60, 117
8, 145824, Note_on_c, 5, 60, 0
8, 145860, Note_on_c, 5, 72, 112
8, 145908, Note_on_c, 5, 72, 0
8, 145920, Note_on_c, 5, 65, 99
8, 145920, Note_on_c, 5, 72, 100
8, 145920, Note_on_c, 5, 81, 103
8, 145968, Note_on_c, 5, 81, 0
8, 145968, Note_on_c, 5, 72, 0
8, 145968, Note_on_c, 5, 65, 0
8, 146040, Note_on_c, 5, 64, 107
8, 146040, Note_on_c, 5, 79, 106
8, 146040, Note_on_c, 5, 72, 105
8, 146088, Note_on_c, 5, 72, 0
8, 146088, Note_on_c, 5, 79, 0
8, 146088, Note_on_c, 5, 64, 0
8, 146400, Note_on_c, 5, 65, 98
8, 146448, Note_on_c, 5, 65, 0
8, 146460, Note_on_c, 5, 62, 112
8, 146484, Note_on_c, 5, 62, 0
8, 146490, Note_on_c, 5, 60, 107
8, 146514, Note_on_c, 5, 60, 0
8, 146520, Note_on_c, 5, 59, 109
8, 146568, Note_on_c, 5, 59, 0
8, 146580, Note_on_c, 5, 55, 109
8, 146628, Note_on_c, 5, 55, 0
8, 146640, Note_on_c, 5, 60, 106
8, 146784, Note_on_c, 5, 60, 0
8, 146820, Note_on_c, 5, 72, 113
8, 146868, Note_on_c, 5, 72, 0
8, 146880, Note_on_c, 5, 65, 108
8, 146880, Note_on_c, 5, 72, 106
8, 146880, Note_on_c, 5, 81, 104
8, 146928, Note_on_c, 5, 81, 0
8, 146928, Note_on_c, 5, 72, 0
8, 146928, Note_on_c, 5, 65, 0
8, 147000, Note_on_c, 5, 64, 102
8, 147000, Note_on_c, 5, 79, 112
8, 147000, Note_on_c, 5, 72, 103
8, 147048, Note_on_c, 5, 72, 0
8, 147048, Note_on_c, 5, 79, 0
8, 147048, Note_on_c, 5, 64, 0
8, 147120, Note_on_c, 5, 65, 108
8, 147120, Note_on_c, 5, 72, 109
8, 147120, Note_on_c, 5, 77, 105
8, 147168, Note_on_c, 5, 77, 0
8, 147168, Note_on_c, 5, 72, 0
8, 147168, Note_on_c, 5, 65, 0
8, 147840, Note_on_c, 5, 76, 97
8, 147984, Note_on_c, 5, 76, 0
8, 148020, Note_on_c, 5, 76, 120
8, 148068, Note_on_c, 5, 76, 0
8, 148080, Note_on_c, 5, 69, 103
8, 148080, Note_on_c, 5, 77, 104
8, 148128, Note_on_c, 5, 77, 0
8, 148128, Note_on_c, 5, 69, 0
8, 148800, Note_on_c, 5, 76, 94
8, 148944, Note_on_c, 5, 76, 0
8, 148980, Note_on_c, 5, 76, 103
8, 149028, Note_on_c, 5, 76, 0
8, 149040, Note_on_c, 5, 77, 99
8, 149040, Note_on_c, 5, 69, 92
8, 149088, Note_on_c, 5, 69, 0
8, 149088, Note_on_c, 5, 77, 0
8, 149280, Note_on_c, 5, 76, 94
8, 149424, Note_on_c, 5, 76, 0
8, 149460, Note_on_c, 5, 76, 103
8, 149508, Note_on_c, 5, 76, 0
8, 149520, Note_on_c, 5, 69, 92
8, 149520, Note_on_c, 5, 77, 99
8, 149568, Note_on_c, 5, 77, 0
8, 149568, Note_on_c, 5, 69, 0
8, 149760, Note_on_c, 5, 76, 94
8, 149904, Note_on_c, 5, 76, 0
8, 149940, Note_on_c, 5, 76, 103
8, 149988, Note_on_c, 5, 76, 0
8, 150000, Note_on_c, 5, 69, 92
8, 150000, Note_on_c, 5, 77, 99
8, 150048, Note_on_c, 5, 77, 0
8, 150048, Note_on_c, 5, 69, 0
8, 150240, Note_on_c, 5, 57, 117
8, 150240, Note_on_c, 5, 65, 113
8, 150288, Note_on_c, 5, 65, 0
8, 150288, Note_on_c, 5, 57, 0
8, 150480, Note_on_c, 5, 65, 113
8, 150480, Note_on_c, 5, 57, 117
8, 150528, Note_on_c, 5, 57, 0
8, 150528, Note_on_c, 5, 65, 0
8, 150720, Note_on_c, 5, 65, 113
8, 150720, Note_on_c, 5, 57, 117
8, 150768, Note_on_c, 5, 57, 0
8, 150768, Note_on_c, 5, 65, 0
8, 150960, Note_on_c, 5, 65, 113
8, 150960, Note_on_c, 5, 57, 117
8, 151008, Note_on_c, 5, 57, 0
8, 151008, Note_on_c, 5, 65, 0
8, 154080, Note_on_c, 5, 70, 127
8, 154128, Note_on_c, 5, 70, 0
8, 154140, Note_on_c, 5, 72, 127
8, 154188, Note_on_c, 5, 72, 0
8, 154200, Note_on_c, 5, 74, 114
8, 154248, Note_on_c, 5, 74, 0
8, 154260, Note_on_c, 5, 76, 127
8, 154308, Note_on_c, 5, 76, 0
8, 154320, Note_on_c, 5, 77, 100
8, 154512, Note_on_c, 5, 77, 0
8, 154560, Note_on_c, 5, 79, 127
8, 154560, Note_on_c, 5, 72, 80
8, 154560, Note_on_c, 5, 65, 80
8, 154656, Note_on_c, 5, 65, 0
8, 154656, Note_on_c, 5, 72, 0
8, 154752, Note_on_c, 5, 79, 0
8, 154800, Note_on_c, 5, 81, 123
8, 154800, Note_on_c, 5, 72, 80
8, 154800, Note_on_c, 5, 65, 80
8, 154896, Note_on_c, 5, 65, 0
8, 154896, Note_on_c, 5, 72, 0
8, 154992, Note_on_c, 5, 81, 0
8, 155040, Note_on_c, 5, 81, 110
8, 155136, Note_on_c, 5, 81, 0
8, 155160, Note_on_c, 5, 81, 123
8, 155256, Note_on_c, 5, 81, 0
8, 155280, Note_on_c, 5, 81, 100
8, 155280, Note_on_c, 5, 72, 80
8, 155280, Note_on_c, 5, 65, 80
8, 155376, Note_on_c, 5, 65, 0
8, 155376, Note_on_c, 5, 72, 0
8, 155472, Note_on_c, 5, 81, 0
8, 155520, Note_on_c, 5, 60, 107
8, 155520, Note_on_c, 5, 65, 107
8, 155712, Note_on_c, 5, 65, 0
8, 155712, Note_on_c, 5, 60, 0
8, 155760, Note_on_c, 5, 60, 116
8, 155760, Note_on_c, 5, 65, 116
8, 155952, Note_on_c, 5, 65, 0
8, 155952, Note_on_c, 5, 60, 0
8, 176527, Note_on_c, 5, 77, 0
8, 176527, End_track
9, 0, Start_track
9, 0, MIDI_port, 0
9, 0, Title_t, "Viola"
9, 0, Program_c, 5, 48
9, 0, Control_c, 5, 7, 112
9, 0, Note_on_c, 5, 48, 108
9, 672, Note_on_c, 5, 48, 0
9, 720, Note_on_c, 5, 48, 125
9, 912, Note_on_c, 5, 48, 0
9, 960, Note_on_c, 5, 53, 127
9, 1056, Note_on_c, 5, 53, 0
9, 1080, Note_on_c, 5, 50, 123
9, 1176, Note_on_c, 5, 50, 0
9, 1200, Note_on_c, 5, 52, 108
9, 1344, Note_on_c, 5, 52, 0
9, 1380, Note_on_c, 5, 48, 127
9, 1428, Note_on_c, 5, 48, 0
9, 1440, Note_on_c, 5, 53, 127
9, 1536, Note_on_c, 5, 53, 0
9, 1560, Note_on_c, 5, 50, 127
9, 1656, Note_on_c, 5, 50, 0
9, 1680, Note_on_c, 5, 52, 127
9, 1824, Note_on_c, 5, 52, 0
9, 1860, Note_on_c, 5, 50, 123
9, 1860, Note_on_c, 5, 48, 127
9, 1908, Note_on_c, 5, 48, 0
9, 1908, Note_on_c, 5, 50, 0
9, 1920, Note_on_c, 5, 53, 110
9, 2016, Note_on_c, 5, 53, 0
9, 2040, Note_on_c, 5, 60, 127
9, 2136, Note_on_c, 5, 60, 0
9, 2160, Note_on_c, 5, 60, 101
9, 2304, Note_on_c, 5, 60, 0
9, 2340, Note_on_c, 5, 65, 123
9, 2388, Note_on_c, 5, 65, 0
9, 2400, Note_on_c, 5, 65, 120
9, 2496, Note_on_c, 5, 65, 0
9, 2520, Note_on_c, 5, 60, 109
9, 2616, Note_on_c, 5, 60, 0
9, 2640, Note_on_c, 5, 60, 108
9, 2832, Note_on_c, 5, 60, 0
9, 2880, Note_on_c, 5, 57, 114
9, 2880, Note_on_c, 5, 60, 116
9, 2976, Note_on_c, 5, 60, 0
9, 2976, Note_on_c, 5, 57, 0
9, 3000, Note_on_c, 5, 53, 103
9, 3000, Note_on_c, 5, 57, 118
9, 3096, Note_on_c, 5, 57, 0
9, 3096, Note_on_c, 5, 53, 0
9, 3120, Note_on_c, 5, 58, 83
9, 3120, Note_on_c, 5, 55, 105
9, 3264, Note_on_c, 5, 55, 0
9, 3264, Note_on_c, 5, 58, 0
9, 3300, Note_on_c, 5, 57, 107
9, 3300, Note_on_c, 5, 60, 107
9, 3348, Note_on_c, 5, 60, 0
9, 3348, Note_on_c, 5, 57, 0
9, 3360, Note_on_c, 5, 62, 121
9, 3408, Note_on_c, 5, 62, 0
9, 3420, Note_on_c, 5, 64, 117
9, 3468, Note_on_c, 5, 64, 0
9, 3480, Note_on_c, 5, 65, 113
9, 3528, Note_on_c, 5, 65, 0
9, 3540, Note_on_c, 5, 48, 109
9, 3588, Note_on_c, 5, 48, 0
9, 3600, Note_on_c, 5, 55, 102
9, 3744, Note_on_c, 5, 55, 0
9, 3780, Note_on_c, 5, 62, 99
9, 3828, Note_on_c, 5, 62, 0
9, 3840, Note_on_c, 5, 55, 102
9, 3984, Note_on_c, 5, 55, 0
9, 4020, Note_on_c, 5, 62, 99
9, 4068, Note_on_c, 5, 62, 0
9, 4080, Note_on_c, 5, 55, 102
9, 4224, Note_on_c, 5, 55, 0
9, 4260, Note_on_c, 5, 62, 99
9, 4308, Note_on_c, 5, 62, 0
9, 4320, Note_on_c, 5, 55, 102
9, 4464, Note_on_c, 5, 55, 0
9, 4500, Note_on_c, 5, 62, 99
9, 4548, Note_on_c, 5, 62, 0
9, 4560, Note_on_c, 5, 55, 102
9, 4704, Note_on_c, 5, 55, 0
9, 4740, Note_on_c, 5, 62, 99
9, 4788, Note_on_c, 5, 62, 0
9, 4800, Note_on_c, 5, 55, 102
9, 4944, Note_on_c, 5, 55, 0
9, 4980, Note_on_c, 5, 62, 99
9, 5028, Note_on_c, 5, 62, 0
9, 5040, Note_on_c, 5, 55, 102
9, 5184, Note_on_c, 5, 55, 0
9, 5220, Note_on_c, 5, 62, 99
9, 5268, Note_on_c, 5, 62, 0
9, 5280, Note_on_c, 5, 55, 102
9, 5424, Note_on_c, 5, 55, 0
9, 5460, Note_on_c, 5, 62, 99
9, 5508, Note_on_c, 5, 62, 0
9, 5520, Note_on_c, 5, 55, 102
9, 5664, Note_on_c, 5, 55, 0
9, 5700, Note_on_c, 5, 62, 99
9, 5748, Note_on_c, 5, 62, 0
9, 5760, Note_on_c, 5, 55, 113
9, 5808, Note_on_c, 5, 55, 0
9, 7680, Note_on_c, 5, 60, 109
9, 8352, Note_on_c, 5, 60, 0
9, 8400, Note_on_c, 5, 60, 123
9, 8592, Note_on_c, 5, 60, 0
9, 8640, Note_on_c, 5, 65, 123
9, 8688, Note_on_c, 5, 65, 0
9, 8700, Note_on_c, 5, 60, 114
9, 8724, Note_on_c, 5, 60, 0
9, 8730, Note_on_c, 5, 48, 106
9, 8754, Note_on_c, 5, 48, 0
9, 8760, Note_on_c, 5, 60, 98
9, 8784, Note_on_c, 5, 60, 0
9, 8790, Note_on_c, 5, 48, 100
9, 8814, Note_on_c, 5, 48, 0
9, 8820, Note_on_c, 5, 60, 98
9, 8844, Note_on_c, 5, 60, 0
9, 8850, Note_on_c, 5, 48, 112
9, 8874, Note_on_c, 5, 48, 0
9, 8880, Note_on_c, 5, 60, 120
9, 8904, Note_on_c, 5, 60, 0
9, 8910, Note_on_c, 5, 48, 104
9, 8934, Note_on_c, 5, 48, 0
9, 8940, Note_on_c, 5, 60, 107
9, 8964, Note_on_c, 5, 60, 0
9, 8970, Note_on_c, 5, 48, 101
9, 8994, Note_on_c, 5, 48, 0
9, 9000, Note_on_c, 5, 60, 102
9, 9024, Note_on_c, 5, 60, 0
9, 9030, Note_on_c, 5, 48, 105
9, 9054, Note_on_c, 5, 48, 0
9, 9060, Note_on_c, 5, 60, 103
9, 9084, Note_on_c, 5, 60, 0
9, 9090, Note_on_c, 5, 48, 103
9, 9114, Note_on_c, 5, 48, 0
9, 9120, Note_on_c, 5, 60, 120
9, 9144, Note_on_c, 5, 60, 0
9, 9150, Note_on_c, 5, 48, 104
9, 9174, Note_on_c, 5, 48, 0
9, 9180, Note_on_c, 5, 60, 107
9, 9204, Note_on_c, 5, 60, 0
9, 9210, Note_on_c, 5, 48, 101
9, 9234, Note_on_c, 5, 48, 0
9, 9240, Note_on_c, 5, 60, 102
9, 9264, Note_on_c, 5, 60, 0
9, 9270, Note_on_c, 5, 48, 105
9, 9294, Note_on_c, 5, 48, 0
9, 9300, Note_on_c, 5, 60, 103
9, 9324, Note_on_c, 5, 60, 0
9, 9330, Note_on_c, 5, 48, 103
9, 9354, Note_on_c, 5, 48, 0
9, 9360, Note_on_c, 5, 60, 120
9, 9384, Note_on_c, 5, 60, 0
9, 9390, Note_on_c, 5, 48, 104
9, 9414, Note_on_c, 5, 48, 0
9, 9420, Note_on_c, 5, 60, 107
9, 9444, Note_on_c, 5, 60, 0
9, 9450, Note_on_c, 5, 48, 101
9, 9474, Note_on_c, 5, 48, 0
9, 9480, Note_on_c, 5, 60, 102
9, 9504, Note_on_c, 5, 60, 0
9, 9510, Note_on_c, 5, 48, 105
9, 9534, Note_on_c, 5, 48, 0
9, 9540, Note_on_c, 5, 60, 103
9, 9564, Note_on_c, 5, 60, 0
9, 9570, Note_on_c, 5, 48, 103
9, 9594, Note_on_c, 5, 48, 0
9, 9600, Note_on_c, 5, 60, 120
9, 9624, Note_on_c, 5, 60, 0
9, 9630, Note_on_c, 5, 48, 104
9, 9654, Note_on_c, 5, 48, 0
9, 9660, Note_on_c, 5, 60, 107
9, 9684, Note_on_c, 5, 60, 0
9, 9690, Note_on_c, 5, 48, 101
9, 9714, Note_on_c, 5, 48, 0
9, 9720, Note_on_c, 5, 60, 102
9, 9744, Note_on_c, 5, 60, 0
9, 9750, Note_on_c, 5, 48, 105
9, 9774, Note_on_c, 5, 48, 0
9, 9780, Note_on_c, 5, 60, 103
9, 9804, Note_on_c, 5, 60, 0
9, 9810, Note_on_c, 5, 48, 103
9, 9834, Note_on_c, 5, 48, 0
9, 9840, Note_on_c, 5, 60, 120
9, 9864, Note_on_c, 5, 60, 0
9, 9870, Note_on_c, 5, 48, 104
9, 9894, Note_on_c, 5, 48, 0
9, 9900, Note_on_c, 5, 60, 107
9, 9924, Note_on_c, 5, 60, 0
9, 9930, Note_on_c, 5, 48, 101
9, 9954, Note_on_c, 5, 48, 0
9, 9960, Note_on_c, 5, 60, 102
9, 9984, Note_on_c, 5, 60, 0
9, 9990, Note_on_c, 5, 48, 105
9, 10014, Note_on_c, 5, 48, 0
9, 10020, Note_on_c, 5, 60, 103
9, 10044, Note_on_c, 5, 60, 0
9, 10050, Note_on_c, 5, 48, 103
9, 10074, Note_on_c, 5, 48, 0
9, 10080, Note_on_c, 5, 60, 120
9, 10104, Note_on_c, 5, 60, 0
9, 10110, Note_on_c, 5, 48, 104
9, 10134, Note_on_c, 5, 48, 0
9, 10140, Note_on_c, 5, 60, 107
9, 10164, Note_on_c, 5, 60, 0
9, 10170, Note_on_c, 5, 48, 101
9, 10194, Note_on_c, 5, 48, 0
9, 10200, Note_on_c, 5, 60, 102
9, 10224, Note_on_c, 5, 60, 0
9, 10230, Note_on_c, 5, 48, 105
9, 10254, Note_on_c, 5, 48, 0
9, 10260, Note_on_c, 5, 60, 103
9, 10284, Note_on_c, 5, 60, 0
9, 10290, Note_on_c, 5, 48, 103
9, 10314, Note_on_c, 5, 48, 0
9, 10320, Note_on_c, 5, 60, 120
9, 10344, Note_on_c, 5, 60, 0
9, 10350, Note_on_c, 5, 48, 104
9, 10374, Note_on_c, 5, 48, 0
9, 10380, Note_on_c, 5, 60, 107
9, 10404, Note_on_c, 5, 60, 0
9, 10410, Note_on_c, 5, 48, 101
9, 10434, Note_on_c, 5, 48, 0
9, 10440, Note_on_c, 5, 60, 102
9, 10464, Note_on_c, 5, 60, 0
9, 10470, Note_on_c, 5, 48, 105
9, 10494, Note_on_c, 5, 48, 0
9, 10500, Note_on_c, 5, 60, 103
9, 10524, Note_on_c, 5, 60, 0
9, 10530, Note_on_c, 5, 48, 103
9, 10554, Note_on_c, 5, 48, 0
9, 10560, Note_on_c, 5, 60, 120
9, 10584, Note_on_c, 5, 60, 0
9, 10590, Note_on_c, 5, 48, 104
9, 10614, Note_on_c, 5, 48, 0
9, 10620, Note_on_c, 5, 60, 107
9, 10644, Note_on_c, 5, 60, 0
9, 10650, Note_on_c, 5, 48, 101
9, 10674, Note_on_c, 5, 48, 0
9, 10680, Note_on_c, 5, 60, 102
9, 10704, Note_on_c, 5, 60, 0
9, 10710, Note_on_c, 5, 48, 105
9, 10734, Note_on_c, 5, 48, 0
9, 10740, Note_on_c, 5, 60, 103
9, 10764, Note_on_c, 5, 60, 0
9, 10770, Note_on_c, 5, 48, 103
9, 10794, Note_on_c, 5, 48, 0
9, 10800, Note_on_c, 5, 60, 120
9, 10824, Note_on_c, 5, 60, 0
9, 10830, Note_on_c, 5, 48, 104
9, 10854, Note_on_c, 5, 48, 0
9, 10860, Note_on_c, 5, 60, 107
9, 10884, Note_on_c, 5, 60, 0
9, 10890, Note_on_c, 5, 48, 101
9, 10914, Note_on_c, 5, 48, 0
9, 10920, Note_on_c, 5, 60, 102
9, 10944, Note_on_c, 5, 60, 0
9, 10950, Note_on_c, 5, 48, 105
9, 10974, Note_on_c, 5, 48, 0
9, 10980, Note_on_c, 5, 60, 103
9, 11004, Note_on_c, 5, 60, 0
9, 11010, Note_on_c, 5, 48, 103
9, 11034, Note_on_c, 5, 48, 0
9, 11040, Note_on_c, 5, 60, 120
9, 11064, Note_on_c, 5, 60, 0
9, 11070, Note_on_c, 5, 48, 104
9, 11094, Note_on_c, 5, 48, 0
9, 11100, Note_on_c, 5, 60, 107
9, 11124, Note_on_c, 5, 60, 0
9, 11130, Note_on_c, 5, 48, 101
9, 11154, Note_on_c, 5, 48, 0
9, 11160, Note_on_c, 5, 60, 102
9, 11184, Note_on_c, 5, 60, 0
9, 11190, Note_on_c, 5, 48, 105
9, 11214, Note_on_c, 5, 48, 0
9, 11220, Note_on_c, 5, 60, 103
9, 11244, Note_on_c, 5, 60, 0
9, 11250, Note_on_c, 5, 48, 103
9, 11274, Note_on_c, 5, 48, 0
9, 11280, Note_on_c, 5, 60, 120
9, 11304, Note_on_c, 5, 60, 0
9, 11310, Note_on_c, 5, 48, 104
9, 11334, Note_on_c, 5, 48, 0
9, 11340, Note_on_c, 5, 60, 107
9, 11364, Note_on_c, 5, 60, 0
9, 11370, Note_on_c, 5, 48, 101
9, 11394, Note_on_c, 5, 48, 0
9, 11400, Note_on_c, 5, 60, 102
9, 11424, Note_on_c, 5, 60, 0
9, 11430, Note_on_c, 5, 48, 105
9, 11454, Note_on_c, 5, 48, 0
9, 11460, Note_on_c, 5, 60, 103
9, 11484, Note_on_c, 5, 60, 0
9, 11490, Note_on_c, 5, 48, 103
9, 11514, Note_on_c, 5, 48, 0
9, 11520, Note_on_c, 5, 60, 120
9, 11544, Note_on_c, 5, 60, 0
9, 11550, Note_on_c, 5, 48, 104
9, 11574, Note_on_c, 5, 48, 0
9, 11580, Note_on_c, 5, 60, 107
9, 11604, Note_on_c, 5, 60, 0
9, 11610, Note_on_c, 5, 48, 101
9, 11634, Note_on_c, 5, 48, 0
9, 11640, Note_on_c, 5, 60, 102
9, 11664, Note_on_c, 5, 60, 0
9, 11670, Note_on_c, 5, 48, 105
9, 11694, Note_on_c, 5, 48, 0
9, 11700, Note_on_c, 5, 60, 103
9, 11724, Note_on_c, 5, 60, 0
9, 11730, Note_on_c, 5, 48, 103
9, 11754, Note_on_c, 5, 48, 0
9, 11760, Note_on_c, 5, 60, 120
9, 11784, Note_on_c, 5, 60, 0
9, 11790, Note_on_c, 5, 48, 104
9, 11814, Note_on_c, 5, 48, 0
9, 11820, Note_on_c, 5, 60, 107
9, 11844, Note_on_c, 5, 60, 0
9, 11850, Note_on_c, 5, 48, 101
9, 11874, Note_on_c, 5, 48, 0
9, 11880, Note_on_c, 5, 60, 102
9, 11904, Note_on_c, 5, 60, 0
9, 11910, Note_on_c, 5, 48, 105
9, 11934, Note_on_c, 5, 48, 0
9, 11940, Note_on_c, 5, 60, 103
9, 11964, Note_on_c, 5, 60, 0
9, 11970, Note_on_c, 5, 48, 103
9, 11994, Note_on_c, 5, 48, 0
9, 12000, Note_on_c, 5, 60, 120
9, 12024, Note_on_c, 5, 60, 0
9, 12030, Note_on_c, 5, 48, 104
9, 12054, Note_on_c, 5, 48, 0
9, 12060, Note_on_c, 5, 60, 107
9, 12084, Note_on_c, 5, 60, 0
9, 12090, Note_on_c, 5, 48, 101
9, 12114, Note_on_c, 5, 48, 0
9, 12120, Note_on_c, 5, 60, 102
9, 12144, Note_on_c, 5, 60, 0
9, 12150, Note_on_c, 5, 48, 105
9, 12174, Note_on_c, 5, 48, 0
9, 12180, Note_on_c, 5, 60, 103
9, 12204, Note_on_c, 5, 60, 0
9, 12210, Note_on_c, 5, 48, 103
9, 12234, Note_on_c, 5, 48, 0
9, 12240, Note_on_c, 5, 60, 120
9, 12264, Note_on_c, 5, 60, 0
9, 12270, Note_on_c, 5, 48, 104
9, 12294, Note_on_c, 5, 48, 0
9, 12300, Note_on_c, 5, 60, 107
9, 12324, Note_on_c, 5, 60, 0
9, 12330, Note_on_c, 5, 48, 101
9, 12354, Note_on_c, 5, 48, 0
9, 12360, Note_on_c, 5, 60, 102
9, 12384, Note_on_c, 5, 60, 0
9, 12390, Note_on_c, 5, 48, 105
9, 12414, Note_on_c, 5, 48, 0
9, 12420, Note_on_c, 5, 60, 103
9, 12444, Note_on_c, 5, 60, 0
9, 12450, Note_on_c, 5, 48, 103
9, 12474, Note_on_c, 5, 48, 0
9, 12480, Note_on_c, 5, 53, 114
9, 12528, Note_on_c, 5, 53, 0
9, 15840, Note_on_c, 5, 50, 100
9, 15888, Note_on_c, 5, 50, 0
9, 15900, Note_on_c, 5, 53, 120
9, 15948, Note_on_c, 5, 53, 0
9, 15960, Note_on_c, 5, 50, 120
9, 16008, Note_on_c, 5, 50, 0
9, 16020, Note_on_c, 5, 53, 113
9, 16068, Note_on_c, 5, 53, 0
9, 16080, Note_on_c, 5, 50, 113
9, 16128, Note_on_c, 5, 50, 0
9, 16140, Note_on_c, 5, 53, 116
9, 16188, Note_on_c, 5, 53, 0
9, 16200, Note_on_c, 5, 50, 112
9, 16248, Note_on_c, 5, 50, 0
9, 16260, Note_on_c, 5, 53, 120
9, 16308, Note_on_c, 5, 53, 0
9, 16320, Note_on_c, 5, 52, 125
9, 16368, Note_on_c, 5, 52, 0
9, 16380, Note_on_c, 5, 55, 106
9, 16428, Note_on_c, 5, 55, 0
9, 16440, Note_on_c, 5, 52, 114
9, 16488, Note_on_c, 5, 52, 0
9, 16500, Note_on_c, 5, 55, 127
9, 16548, Note_on_c, 5, 55, 0
9, 16560, Note_on_c, 5, 52, 108
9, 16608, Note_on_c, 5, 52, 0
9, 16620, Note_on_c, 5, 55, 121
9, 16668, Note_on_c, 5, 55, 0
9, 16680, Note_on_c, 5, 52, 118
9, 16728, Note_on_c, 5, 52, 0
9, 16740, Note_on_c, 5, 55, 106
9, 16788, Note_on_c, 5, 55, 0
9, 16800, Note_on_c, 5, 50, 110
9, 16848, Note_on_c, 5, 50, 0
9, 16860, Note_on_c, 5, 53, 117
9, 16908, Note_on_c, 5, 53, 0
9, 16920, Note_on_c, 5, 50, 117
9, 16968, Note_on_c, 5, 50, 0
9, 16980, Note_on_c, 5, 53, 111
9, 17028, Note_on_c, 5, 53, 0
9, 17040, Note_on_c, 5, 50, 114
9, 17088, Note_on_c, 5, 50, 0
9, 17100, Note_on_c, 5, 53, 120
9, 17148, Note_on_c, 5, 53, 0
9, 17160, Note_on_c, 5, 50, 116
9, 17208, Note_on_c, 5, 50, 0
9, 17220, Note_on_c, 5, 53, 125
9, 17268, Note_on_c, 5, 53, 0
9, 17280, Note_on_c, 5, 52, 120
9, 17328, Note_on_c, 5, 52, 0
9, 17340, Note_on_c, 5, 55, 111
9, 17388, Note_on_c, 5, 55, 0
9, 17400, Note_on_c, 5, 52, 111
9, 17448, Note_on_c, 5, 52, 0
9, 17460, Note_on_c, 5, 55, 104
9, 17508, Note_on_c, 5, 55, 0
9, 17520, Note_on_c, 5, 52, 120
9, 17568, Note_on_c, 5, 52, 0
9, 17580, Note_on_c, 5, 55, 125
9, 17628, Note_on_c, 5, 55, 0
9, 17640, Note_on_c, 5, 52, 117
9, 17688, Note_on_c, 5, 52, 0
9, 17700, Note_on_c, 5, 55, 102
9, 17748, Note_on_c, 5, 55, 0
9, 17760, Note_on_c, 5, 59, 125
9, 17808, Note_on_c, 5, 59, 0
9, 17820, Note_on_c, 5, 55, 127
9, 17868, Note_on_c, 5, 55, 0
9, 17880, Note_on_c, 5, 59, 127
9, 17928, Note_on_c, 5, 59, 0
9, 17940, Note_on_c, 5, 55, 125
9, 17988, Note_on_c, 5, 55, 0
9, 18000, Note_on_c, 5, 59, 125
9, 18048, Note_on_c, 5, 59, 0
9, 18060, Note_on_c, 5, 55, 118
9, 18108, Note_on_c, 5, 55, 0
9, 18120, Note_on_c, 5, 59, 125
9, 18168, Note_on_c, 5, 59, 0
9, 18180, Note_on_c, 5, 55, 104
9, 18228, Note_on_c, 5, 55, 0
9, 18240, Note_on_c, 5, 60, 127
9, 18288, Note_on_c, 5, 60, 0
9, 18300, Note_on_c, 5, 55, 111
9, 18348, Note_on_c, 5, 55, 0
9, 18360, Note_on_c, 5, 60, 127
9, 18408, Note_on_c, 5, 60, 0
9, 18420, Note_on_c, 5, 55, 113
9, 18468, Note_on_c, 5, 55, 0
9, 18480, Note_on_c, 5, 60, 127
9, 18528, Note_on_c, 5, 60, 0
9, 18540, Note_on_c, 5, 55, 125
9, 18588, Note_on_c, 5, 55, 0
9, 18600, Note_on_c, 5, 60, 120
9, 18648, Note_on_c, 5, 60, 0
9, 18660, Note_on_c, 5, 55, 121
9, 18708, Note_on_c, 5, 55, 0
9, 18720, Note_on_c, 5, 62, 127
9, 18768, Note_on_c, 5, 62, 0
9, 18780, Note_on_c, 5, 55, 121
9, 18828, Note_on_c, 5, 55, 0
9, 18840, Note_on_c, 5, 62, 127
9, 18888, Note_on_c, 5, 62, 0
9, 18900, Note_on_c, 5, 55, 110
9, 18948, Note_on_c, 5, 55, 0
9, 18960, Note_on_c, 5, 62, 127
9, 19008, Note_on_c, 5, 62, 0
9, 19020, Note_on_c, 5, 55, 117
9, 19068, Note_on_c, 5, 55, 0
9, 19080, Note_on_c, 5, 62, 121
9, 19128, Note_on_c, 5, 62, 0
9, 19140, Note_on_c, 5, 55, 117
9, 19188, Note_on_c, 5, 55, 0
9, 19200, Note_on_c, 5, 64, 127
9, 19248, Note_on_c, 5, 64, 0
9, 19260, Note_on_c, 5, 55, 101
9, 19308, Note_on_c, 5, 55, 0
9, 19320, Note_on_c, 5, 64, 114
9, 19368, Note_on_c, 5, 64, 0
9, 19380, Note_on_c, 5, 55, 109
9, 19428, Note_on_c, 5, 55, 0
9, 19440, Note_on_c, 5, 64, 125
9, 19488, Note_on_c, 5, 64, 0
9, 19500, Note_on_c, 5, 55, 108
9, 19548, Note_on_c, 5, 55, 0
9, 19560, Note_on_c, 5, 64, 127
9, 19608, Note_on_c, 5, 64, 0
9, 19620, Note_on_c, 5, 55, 99
9, 19668, Note_on_c, 5, 55, 0
9, 19680, Note_on_c, 5, 65, 107
9, 19712, Note_on_c, 5, 65, 0
9, 19720, Note_on_c, 5, 62, 105
9, 19752, Note_on_c, 5, 62, 0
9, 19760, Note_on_c, 5, 65, 125
9, 19792, Note_on_c, 5, 65, 0
9, 19800, Note_on_c, 5, 62, 117
9, 19832, Note_on_c, 5, 62, 0
9, 19840, Note_on_c, 5, 65, 121
9, 19872, Note_on_c, 5, 65, 0
9, 19880, Note_on_c, 5, 62, 118
9, 19912, Note_on_c, 5, 62, 0
9, 19920, Note_on_c, 5, 65, 112
9, 19952, Note_on_c, 5, 65, 0
9, 19960, Note_on_c, 5, 62, 116
9, 19992, Note_on_c, 5, 62, 0
9, 20000, Note_on_c, 5, 65, 112
9, 20032, Note_on_c, 5, 65, 0
9, 20040, Note_on_c, 5, 62, 109
9, 20072, Note_on_c, 5, 62, 0
9, 20080, Note_on_c, 5, 65, 110
9, 20112, Note_on_c, 5, 65, 0
9, 20120, Note_on_c, 5, 62, 103
9, 20152, Note_on_c, 5, 62, 0
9, 20160, Note_on_c, 5, 67, 127
9, 20192, Note_on_c, 5, 67, 0
9, 20200, Note_on_c, 5, 64, 120
9, 20232, Note_on_c, 5, 64, 0
9, 20240, Note_on_c, 5, 67, 118
9, 20272, Note_on_c, 5, 67, 0
9, 20280, Note_on_c, 5, 64, 120
9, 20312, Note_on_c, 5, 64, 0
9, 20320, Note_on_c, 5, 67, 109
9, 20352, Note_on_c, 5, 67, 0
9, 20360, Note_on_c, 5, 64, 117
9, 20392, Note_on_c, 5, 64, 0
9, 20400, Note_on_c, 5, 67, 112
9, 20432, Note_on_c, 5, 67, 0
9, 20440, Note_on_c, 5, 64, 109
9, 20472, Note_on_c, 5, 64, 0
9, 20480, Note_on_c, 5, 67, 109
9, 20512, Note_on_c, 5, 67, 0
9, 20520, Note_on_c, 5, 64, 127
9, 20552, Note_on_c, 5, 64, 0
9, 20560, Note_on_c, 5, 67, 108
9, 20592, Note_on_c, 5, 67, 0
9, 20600, Note_on_c, 5, 64, 102
9, 20632, Note_on_c, 5, 64, 0
9, 20640, Note_on_c, 5, 67, 117
9, 20664, Note_on_c, 5, 67, 0
9, 20670, Note_on_c, 5, 65, 105
9, 20694, Note_on_c, 5, 65, 0
9, 20700, Note_on_c, 5, 67, 113
9, 20724, Note_on_c, 5, 67, 0
9, 20730, Note_on_c, 5, 65, 118
9, 20754, Note_on_c, 5, 65, 0
9, 20760, Note_on_c, 5, 67, 118
9, 20784, Note_on_c, 5, 67, 0
9, 20790, Note_on_c, 5, 65, 110
9, 20814, Note_on_c, 5, 65, 0
9, 20820, Note_on_c, 5, 67, 118
9, 20844, Note_on_c, 5, 67, 0
9, 20850, Note_on_c, 5, 65, 114
9, 20874, Note_on_c, 5, 65, 0
9, 20880, Note_on_c, 5, 67, 125
9, 20904, Note_on_c, 5, 67, 0
9, 20910, Note_on_c, 5, 65, 118
9, 20934, Note_on_c, 5, 65, 0
9, 20940, Note_on_c, 5, 67, 127
9, 20964, Note_on_c, 5, 67, 0
9, 20970, Note_on_c, 5, 65, 123
9, 20994, Note_on_c, 5, 65, 0
9, 21000, Note_on_c, 5, 67, 125
9, 21024, Note_on_c, 5, 67, 0
9, 21030, Note_on_c, 5, 65, 125
9, 21054, Note_on_c, 5, 65, 0
9, 21060, Note_on_c, 5, 67, 118
9, 21084, Note_on_c, 5, 67, 0
9, 21090, Note_on_c, 5, 65, 123
9, 21114, Note_on_c, 5, 65, 0
9, 21120, Note_on_c, 5, 67, 111
9, 21144, Note_on_c, 5, 67, 0
9, 21150, Note_on_c, 5, 64, 121
9, 21174, Note_on_c, 5, 64, 0
9, 21180, Note_on_c, 5, 67, 125
9, 21204, Note_on_c, 5, 67, 0
9, 21210, Note_on_c, 5, 64, 120
9, 21234, Note_on_c, 5, 64, 0
9, 21240, Note_on_c, 5, 67, 118
9, 21264, Note_on_c, 5, 67, 0
9, 21270, Note_on_c, 5, 64, 112
9, 21294, Note_on_c, 5, 64, 0
9, 21300, Note_on_c, 5, 67, 116
9, 21324, Note_on_c, 5, 67, 0
9, 21330, Note_on_c, 5, 64, 117
9, 21354, Note_on_c, 5, 64, 0
9, 21360, Note_on_c, 5, 67, 123
9, 21384, Note_on_c, 5, 67, 0
9, 21390, Note_on_c, 5, 64, 123
9, 21414, Note_on_c, 5, 64, 0
9, 21420, Note_on_c, 5, 67, 121
9, 21444, Note_on_c, 5, 67, 0
9, 21450, Note_on_c, 5, 64, 120
9, 21474, Note_on_c, 5, 64, 0
9, 21480, Note_on_c, 5, 67, 113
9, 21504, Note_on_c, 5, 67, 0
9, 21510, Note_on_c, 5, 64, 118
9, 21534, Note_on_c, 5, 64, 0
9, 21540, Note_on_c, 5, 67, 113
9, 21564, Note_on_c, 5, 67, 0
9, 21570, Note_on_c, 5, 64, 113
9, 21594, Note_on_c, 5, 64, 0
9, 21600, Note_on_c, 5, 67, 123
9, 21624, Note_on_c, 5, 67, 0
9, 21630, Note_on_c, 5, 65, 110
9, 21654, Note_on_c, 5, 65, 0
9, 21660, Note_on_c, 5, 67, 117
9, 21684, Note_on_c, 5, 67, 0
9, 21690, Note_on_c, 5, 65, 114
9, 21714, Note_on_c, 5, 65, 0
9, 21720, Note_on_c, 5, 67, 113
9, 21744, Note_on_c, 5, 67, 0
9, 21750, Note_on_c, 5, 65, 120
9, 21774, Note_on_c, 5, 65, 0
9, 21780, Note_on_c, 5, 67, 109
9, 21804, Note_on_c, 5, 67, 0
9, 21810, Note_on_c, 5, 65, 120
9, 21834, Note_on_c, 5, 65, 0
9, 21840, Note_on_c, 5, 67, 123
9, 21864, Note_on_c, 5, 67, 0
9, 21870, Note_on_c, 5, 65, 118
9, 21894, Note_on_c, 5, 65, 0
9, 21900, Note_on_c, 5, 67, 118
9, 21924, Note_on_c, 5, 67, 0
9, 21930, Note_on_c, 5, 65, 121
9, 21954, Note_on_c, 5, 65, 0
9, 21960, Note_on_c, 5, 67, 123
9, 21984, Note_on_c, 5, 67, 0
9, 21990, Note_on_c, 5, 65, 125
9, 22014, Note_on_c, 5, 65, 0
9, 22020, Note_on_c, 5, 67, 123
9, 22044, Note_on_c, 5, 67, 0
9, 22050, Note_on_c, 5, 65, 114
9, 22074, Note_on_c, 5, 65, 0
9, 22080, Note_on_c, 5, 67, 117
9, 22080, Note_on_c, 5, 64, 113
9, 22224, Note_on_c, 5, 64, 0
9, 22224, Note_on_c, 5, 67, 0
9, 22260, Note_on_c, 5, 69, 118
9, 22260, Note_on_c, 5, 65, 101
9, 22284, Note_on_c, 5, 65, 0
9, 22284, Note_on_c, 5, 69, 0
9, 22290, Note_on_c, 5, 67, 109
9, 22290, Note_on_c, 5, 71, 110
9, 22314, Note_on_c, 5, 71, 0
9, 22314, Note_on_c, 5, 67, 0
9, 22320, Note_on_c, 5, 72, 104
9, 22320, Note_on_c, 5, 69, 109
9, 22368, Note_on_c, 5, 69, 0
9, 22368, Note_on_c, 5, 72, 0
9, 22380, Note_on_c, 5, 71, 123
9, 22380, Note_on_c, 5, 67, 103
9, 22404, Note_on_c, 5, 67, 0
9, 22404, Note_on_c, 5, 71, 0
9, 22410, Note_on_c, 5, 69, 102
9, 22410, Note_on_c, 5, 65, 96
9, 22434, Note_on_c, 5, 65, 0
9, 22434, Note_on_c, 5, 69, 0
9, 22440, Note_on_c, 5, 67, 117
9, 22440, Note_on_c, 5, 64, 112
9, 22488, Note_on_c, 5, 64, 0
9, 22488, Note_on_c, 5, 67, 0
9, 22500, Note_on_c, 5, 69, 108
9, 22500, Note_on_c, 5, 65, 112
9, 22524, Note_on_c, 5, 65, 0
9, 22524, Note_on_c, 5, 69, 0
9, 22530, Note_on_c, 5, 71, 107
9, 22530, Note_on_c, 5, 67, 107
9, 22554, Note_on_c, 5, 67, 0
9, 22554, Note_on_c, 5, 71, 0
9, 22560, Note_on_c, 5, 72, 116
9, 22560, Note_on_c, 5, 69, 116
9, 22608, Note_on_c, 5, 69, 0
9, 22608, Note_on_c, 5, 72, 0
9, 22620, Note_on_c, 5, 67, 104
9, 22620, Note_on_c, 5, 71, 109
9, 22644, Note_on_c, 5, 71, 0
9, 22644, Note_on_c, 5, 67, 0
9, 22650, Note_on_c, 5, 65, 103
9, 22650, Note_on_c, 5, 69, 104
9, 22674, Note_on_c, 5, 69, 0
9, 22674, Note_on_c, 5, 65, 0
9, 22680, Note_on_c, 5, 67, 112
9, 22680, Note_on_c, 5, 64, 106
9, 22728, Note_on_c, 5, 64, 0
9, 22728, Note_on_c, 5, 67, 0
9, 22740, Note_on_c, 5, 69, 108
9, 22740, Note_on_c, 5, 65, 110
9, 22764, Note_on_c, 5, 65, 0
9, 22764, Note_on_c, 5, 69, 0
9, 22770, Note_on_c, 5, 71, 101
9, 22770, Note_on_c, 5, 67, 96
9, 22794, Note_on_c, 5, 67, 0
9, 22794, Note_on_c, 5, 71, 0
9, 22800, Note_on_c, 5, 69, 108
9, 22800, Note_on_c, 5, 72, 108
9, 22848, Note_on_c, 5, 72, 0
9, 22848, Note_on_c, 5, 69, 0
9, 23040, Note_on_c, 5, 53, 121
9, 23040, Note_on_c, 5, 57, 98
9, 23088, Note_on_c, 5, 57, 0
9, 23088, Note_on_c, 5, 53, 0
9, 23100, Note_on_c, 5, 48, 113
9, 23100, Note_on_c, 5, 60, 114
9, 23148, Note_on_c, 5, 60, 0
9, 23148, Note_on_c, 5, 48, 0
9, 23160, Note_on_c, 5, 53, 127
9, 23160, Note_on_c, 5, 57, 111
9, 23208, Note_on_c, 5, 57, 0
9, 23208, Note_on_c, 5, 53, 0
9, 23220, Note_on_c, 5, 48, 127
9, 23220, Note_on_c, 5, 60, 112
9, 23268, Note_on_c, 5, 60, 0
9, 23268, Note_on_c, 5, 48, 0
9, 23280, Note_on_c, 5, 52, 127
9, 23280, Note_on_c, 5, 55, 117
9, 23328, Note_on_c, 5, 55, 0
9, 23328, Note_on_c, 5, 52, 0
9, 23340, Note_on_c, 5, 60, 107
9, 23340, Note_on_c, 5, 48, 102
9, 23388, Note_on_c, 5, 48, 0
9, 23388, Note_on_c, 5, 60, 0
9, 23400, Note_on_c, 5, 52, 121
9, 23400, Note_on_c, 5, 55, 116
9, 23448, Note_on_c, 5, 55, 0
9, 23448, Note_on_c, 5, 52, 0
9, 23460, Note_on_c, 5, 48, 116
9, 23460, Note_on_c, 5, 60, 127
9, 23508, Note_on_c, 5, 60, 0
9, 23508, Note_on_c, 5, 48, 0
9, 23520, Note_on_c, 5, 55, 121
9, 23520, Note_on_c, 5, 53, 127
9, 23568, Note_on_c, 5, 53, 0
9, 23568, Note_on_c, 5, 55, 0
9, 23580, Note_on_c, 5, 50, 127
9, 23580, Note_on_c, 5, 59, 127
9, 23628, Note_on_c, 5, 59, 0
9, 23628, Note_on_c, 5, 50, 0
9, 23640, Note_on_c, 5, 55, 127
9, 23640, Note_on_c, 5, 53, 127
9, 23688, Note_on_c, 5, 53, 0
9, 23688, Note_on_c, 5, 55, 0
9, 23700, Note_on_c, 5, 50, 125
9, 23700, Note_on_c, 5, 59, 123
9, 23748, Note_on_c, 5, 59, 0
9, 23748, Note_on_c, 5, 50, 0
9, 23760, Note_on_c, 5, 64, 116
9, 23760, Note_on_c, 5, 67, 112
9, 23904, Note_on_c, 5, 67, 0
9, 23904, Note_on_c, 5, 64, 0
9, 23940, Note_on_c, 5, 65, 111
9, 23940, Note_on_c, 5, 69, 117
9, 23964, Note_on_c, 5, 69, 0
9, 23964, Note_on_c, 5, 65, 0
9, 23970, Note_on_c, 5, 67, 120
9, 23970, Note_on_c, 5, 71, 121
9, 23994, Note_on_c, 5, 71, 0
9, 23994, Note_on_c, 5, 67, 0
9, 24000, Note_on_c, 5, 69, 114
9, 24000, Note_on_c, 5, 72, 116
9, 24048, Note_on_c, 5, 72, 0
9, 24048, Note_on_c, 5, 69, 0
9, 24060, Note_on_c, 5, 67, 109
9, 24060, Note_on_c, 5, 71, 117
9, 24084, Note_on_c, 5, 71, 0
9, 24084, Note_on_c, 5, 67, 0
9, 24090, Note_on_c, 5, 69, 118
9, 24090, Note_on_c, 5, 65, 107
9, 24114, Note_on_c, 5, 65, 0
9, 24114, Note_on_c, 5, 69, 0
9, 24120, Note_on_c, 5, 67, 121
9, 24120, Note_on_c, 5, 64, 104
9, 24168, Note_on_c, 5, 64, 0
9, 24168, Note_on_c, 5, 67, 0
9, 24180, Note_on_c, 5, 65, 116
9, 24180, Note_on_c, 5, 69, 125
9, 24204, Note_on_c, 5, 69, 0
9, 24204, Note_on_c, 5, 65, 0
9, 24210, Note_on_c, 5, 71, 117
9, 24210, Note_on_c, 5, 67, 125
9, 24234, Note_on_c, 5, 67, 0
9, 24234, Note_on_c, 5, 71, 0
9, 24240, Note_on_c, 5, 72, 117
9, 24240, Note_on_c, 5, 69, 125
9, 24288, Note_on_c, 5, 69, 0
9, 24288, Note_on_c, 5, 72, 0
9, 24300, Note_on_c, 5, 67, 109
9, 24300, Note_on_c, 5, 71, 114
9, 24324, Note_on_c, 5, 71, 0
9, 24324, Note_on_c, 5, 67, 0
9, 24330, Note_on_c, 5, 65, 87
9, 24330, Note_on_c, 5, 69, 114
9, 24354, Note_on_c, 5, 69, 0
9, 24354, Note_on_c, 5, 65, 0
9, 24360, Note_on_c, 5, 67, 120
9, 24360, Note_on_c, 5, 64, 106
9, 24408, Note_on_c, 5, 64, 0
9, 24408, Note_on_c, 5, 67, 0
9, 24420, Note_on_c, 5, 69, 123
9, 24420, Note_on_c, 5, 65, 118
9, 24444, Note_on_c, 5, 65, 0
9, 24444, Note_on_c, 5, 69, 0
9, 24450, Note_on_c, 5, 67, 113
9, 24450, Note_on_c, 5, 71, 125
9, 24474, Note_on_c, 5, 71, 0
9, 24474, Note_on_c, 5, 67, 0
9, 24480, Note_on_c, 5, 72, 117
9, 24480, Note_on_c, 5, 69, 125
9, 24528, Note_on_c, 5, 69, 0
9, 24528, Note_on_c, 5, 72, 0
9, 24720, Note_on_c, 5, 53, 127
9, 24720, Note_on_c, 5, 57, 125
9, 24768, Note_on_c, 5, 57, 0
9, 24768, Note_on_c, 5, 53, 0
9, 24780, Note_on_c, 5, 48, 127
9, 24780, Note_on_c, 5, 60, 127
9, 24828, Note_on_c, 5, 60, 0
9, 24828, Note_on_c, 5, 48, 0
9, 24840, Note_on_c, 5, 53, 127
9, 24840, Note_on_c, 5, 57, 127
9, 24888, Note_on_c, 5, 57, 0
9, 24888, Note_on_c, 5, 53, 0
9, 24900, Note_on_c, 5, 48, 123
9, 24900, Note_on_c, 5, 60, 127
9, 24948, Note_on_c, 5, 60, 0
9, 24948, Note_on_c, 5, 48, 0
9, 24960, Note_on_c, 5, 52, 127
9, 24960, Note_on_c, 5, 55, 127
9, 25008, Note_on_c, 5, 55, 0
9, 25008, Note_on_c, 5, 52, 0
9, 25020, Note_on_c, 5, 48, 123
9, 25020, Note_on_c, 5, 60, 127
9, 25068, Note_on_c, 5, 60, 0
9, 25068, Note_on_c, 5, 48, 0
9, 25080, Note_on_c, 5, 55, 127
9, 25080, Note_on_c, 5, 52, 127
9, 25128, Note_on_c, 5, 52, 0
9, 25128, Note_on_c, 5, 55, 0
9, 25140, Note_on_c, 5, 48, 127
9, 25140, Note_on_c, 5, 60, 127
9, 25188, Note_on_c, 5, 60, 0
9, 25188, Note_on_c, 5, 48, 0
9, 25200, Note_on_c, 5, 55, 111
9, 25200, Note_on_c, 5, 53, 127
9, 25248, Note_on_c, 5, 53, 0
9, 25248, Note_on_c, 5, 55, 0
9, 25260, Note_on_c, 5, 59, 127
9, 25260, Note_on_c, 5, 50, 127
9, 25308, Note_on_c, 5, 50, 0
9, 25308, Note_on_c, 5, 59, 0
9, 25320, Note_on_c, 5, 55, 102
9, 25320, Note_on_c, 5, 53, 127
9, 25368, Note_on_c, 5, 53, 0
9, 25368, Note_on_c, 5, 55, 0
9, 25380, Note_on_c, 5, 59, 114
9, 25380, Note_on_c, 5, 50, 127
9, 25428, Note_on_c, 5, 50, 0
9, 25428, Note_on_c, 5, 59, 0
9, 25440, Note_on_c, 5, 52, 109
9, 25440, Note_on_c, 5, 55, 99
9, 25488, Note_on_c, 5, 55, 0
9, 25488, Note_on_c, 5, 52, 0
9, 25500, Note_on_c, 5, 48, 127
9, 25500, Note_on_c, 5, 60, 114
9, 25548, Note_on_c, 5, 60, 0
9, 25548, Note_on_c, 5, 48, 0
9, 25560, Note_on_c, 5, 60, 112
9, 25560, Note_on_c, 5, 48, 127
9, 25608, Note_on_c, 5, 48, 0
9, 25608, Note_on_c, 5, 60, 0
9, 25620, Note_on_c, 5, 60, 102
9, 25620, Note_on_c, 5, 48, 127
9, 25668, Note_on_c, 5, 48, 0
9, 25668, Note_on_c, 5, 60, 0
9, 25680, Note_on_c, 5, 53, 121
9, 25680, Note_on_c, 5, 57, 102
9, 25728, Note_on_c, 5, 57, 0
9, 25728, Note_on_c, 5, 53, 0
9, 25740, Note_on_c, 5, 48, 127
9, 25740, Note_on_c, 5, 60, 121
9, 25788, Note_on_c, 5, 60, 0
9, 25788, Note_on_c, 5, 48, 0
9, 25800, Note_on_c, 5, 53, 127
9, 25800, Note_on_c, 5, 57, 103
9, 25848, Note_on_c, 5, 57, 0
9, 25848, Note_on_c, 5, 53, 0
9, 25860, Note_on_c, 5, 48, 127
9, 25860, Note_on_c, 5, 60, 120
9, 25908, Note_on_c, 5, 60, 0
9, 25908, Note_on_c, 5, 48, 0
9, 25920, Note_on_c, 5, 52, 107
9, 25920, Note_on_c, 5, 55, 107
9, 25968, Note_on_c, 5, 55, 0
9, 25968, Note_on_c, 5, 52, 0
9, 25980, Note_on_c, 5, 48, 121
9, 25980, Note_on_c, 5, 60, 109
9, 26028, Note_on_c, 5, 60, 0
9, 26028, Note_on_c, 5, 48, 0
9, 26040, Note_on_c, 5, 52, 121
9, 26040, Note_on_c, 5, 55, 107
9, 26088, Note_on_c, 5, 55, 0
9, 26088, Note_on_c, 5, 52, 0
9, 26100, Note_on_c, 5, 48, 127
9, 26100, Note_on_c, 5, 60, 118
9, 26148, Note_on_c, 5, 60, 0
9, 26148, Note_on_c, 5, 48, 0
9, 26160, Note_on_c, 5, 53, 127
9, 26160, Note_on_c, 5, 55, 109
9, 26208, Note_on_c, 5, 55, 0
9, 26208, Note_on_c, 5, 53, 0
9, 26220, Note_on_c, 5, 50, 127
9, 26220, Note_on_c, 5, 59, 127
9, 26268, Note_on_c, 5, 59, 0
9, 26268, Note_on_c, 5, 50, 0
9, 26280, Note_on_c, 5, 55, 107
9, 26280, Note_on_c, 5, 53, 123
9, 26328, Note_on_c, 5, 53, 0
9, 26328, Note_on_c, 5, 55, 0
9, 26340, Note_on_c, 5, 59, 118
9, 26340, Note_on_c, 5, 50, 127
9, 26388, Note_on_c, 5, 50, 0
9, 26388, Note_on_c, 5, 59, 0
9, 26400, Note_on_c, 5, 52, 125
9, 26400, Note_on_c, 5, 60, 121
9, 26432, Note_on_c, 5, 60, 0
9, 26432, Note_on_c, 5, 52, 0
9, 26440, Note_on_c, 5, 67, 123
9, 26440, Note_on_c, 5, 64, 114
9, 26472, Note_on_c, 5, 64, 0
9, 26472, Note_on_c, 5, 67, 0
9, 26480, Note_on_c, 5, 64, 112
9, 26480, Note_on_c, 5, 67, 113
9, 26512, Note_on_c, 5, 67, 0
9, 26512, Note_on_c, 5, 64, 0
9, 26520, Note_on_c, 5, 64, 116
9, 26520, Note_on_c, 5, 67, 116
9, 26552, Note_on_c, 5, 67, 0
9, 26552, Note_on_c, 5, 64, 0
9, 26560, Note_on_c, 5, 65, 113
9, 26560, Note_on_c, 5, 62, 105
9, 26592, Note_on_c, 5, 62, 0
9, 26592, Note_on_c, 5, 65, 0
9, 26600, Note_on_c, 5, 64, 110
9, 26600, Note_on_c, 5, 60, 112
9, 26632, Note_on_c, 5, 60, 0
9, 26632, Note_on_c, 5, 64, 0
9, 26640, Note_on_c, 5, 72, 99
9, 26640, Note_on_c, 5, 69, 106
9, 26672, Note_on_c, 5, 69, 0
9, 26672, Note_on_c, 5, 72, 0
9, 26680, Note_on_c, 5, 72, 113
9, 26680, Note_on_c, 5, 69, 114
9, 26712, Note_on_c, 5, 69, 0
9, 26712, Note_on_c, 5, 72, 0
9, 26720, Note_on_c, 5, 72, 112
9, 26720, Note_on_c, 5, 69, 118
9, 26752, Note_on_c, 5, 69, 0
9, 26752, Note_on_c, 5, 72, 0
9, 26760, Note_on_c, 5, 69, 109
9, 26760, Note_on_c, 5, 65, 105
9, 26792, Note_on_c, 5, 65, 0
9, 26792, Note_on_c, 5, 69, 0
9, 26800, Note_on_c, 5, 65, 103
9, 26800, Note_on_c, 5, 69, 116
9, 26832, Note_on_c, 5, 69, 0
9, 26832, Note_on_c, 5, 65, 0
9, 26840, Note_on_c, 5, 69, 121
9, 26840, Note_on_c, 5, 65, 109
9, 26872, Note_on_c, 5, 65, 0
9, 26872, Note_on_c, 5, 69, 0
9, 26880, Note_on_c, 5, 67, 107
9, 26880, Note_on_c, 5, 64, 107
9, 26912, Note_on_c, 5, 64, 0
9, 26912, Note_on_c, 5, 67, 0
9, 26920, Note_on_c, 5, 67, 114
9, 26920, Note_on_c, 5, 64, 106
9, 26952, Note_on_c, 5, 64, 0
9, 26952, Note_on_c, 5, 67, 0
9, 26960, Note_on_c, 5, 67, 120
9, 26960, Note_on_c, 5, 64, 107
9, 26992, Note_on_c, 5, 64, 0
9, 26992, Note_on_c, 5, 67, 0
9, 27000, Note_on_c, 5, 64, 125
9, 27000, Note_on_c, 5, 60, 105
9, 27032, Note_on_c, 5, 60, 0
9, 27032, Note_on_c, 5, 64, 0
9, 27040, Note_on_c, 5, 64, 117
9, 27040, Note_on_c, 5, 60, 110
9, 27072, Note_on_c, 5, 60, 0
9, 27072, Note_on_c, 5, 64, 0
9, 27080, Note_on_c, 5, 64, 110
9, 27080, Note_on_c, 5, 60, 104
9, 27112, Note_on_c, 5, 60, 0
9, 27112, Note_on_c, 5, 64, 0
9, 27120, Note_on_c, 5, 62, 120
9, 27120, Note_on_c, 5, 53, 127
9, 27152, Note_on_c, 5, 53, 0
9, 27152, Note_on_c, 5, 62, 0
9, 27160, Note_on_c, 5, 53, 127
9, 27160, Note_on_c, 5, 62, 123
9, 27192, Note_on_c, 5, 62, 0
9, 27192, Note_on_c, 5, 53, 0
9, 27200, Note_on_c, 5, 62, 109
9, 27200, Note_on_c, 5, 53, 127
9, 27232, Note_on_c, 5, 53, 0
9, 27232, Note_on_c, 5, 62, 0
9, 27240, Note_on_c, 5, 53, 125
9, 27240, Note_on_c, 5, 62, 104
9, 27272, Note_on_c, 5, 62, 0
9, 27272, Note_on_c, 5, 53, 0
9, 27280, Note_on_c, 5, 60, 127
9, 27280, Note_on_c, 5, 52, 114
9, 27312, Note_on_c, 5, 52, 0
9, 27312, Note_on_c, 5, 60, 0
9, 27320, Note_on_c, 5, 53, 127
9, 27320, Note_on_c, 5, 62, 127
9, 27352, Note_on_c, 5, 62, 0
9, 27352, Note_on_c, 5, 53, 0
9, 27360, Note_on_c, 5, 48, 127
9, 27392, Note_on_c, 5, 48, 0
9, 27400, Note_on_c, 5, 48, 123
9, 27432, Note_on_c, 5, 48, 0
9, 27440, Note_on_c, 5, 48, 127
9, 27472, Note_on_c, 5, 48, 0
9, 27480, Note_on_c, 5, 48, 106
9, 27872, Note_on_c, 5, 48, 0
9, 27880, Note_on_c, 5, 48, 123
9, 27912, Note_on_c, 5, 48, 0
9, 27920, Note_on_c, 5, 48, 127
9, 27952, Note_on_c, 5, 48, 0
9, 27960, Note_on_c, 5, 48, 117
9, 28352, Note_on_c, 5, 48, 0
9, 28360, Note_on_c, 5, 48, 127
9, 28392, Note_on_c, 5, 48, 0
9, 28400, Note_on_c, 5, 48, 123
9, 28432, Note_on_c, 5, 48, 0
9, 28440, Note_on_c, 5, 48, 120
9, 28832, Note_on_c, 5, 48, 0
9, 28840, Note_on_c, 5, 48, 127
9, 28872, Note_on_c, 5, 48, 0
9, 28880, Note_on_c, 5, 48, 127
9, 28912, Note_on_c, 5, 48, 0
9, 28920, Note_on_c, 5, 48, 127
9, 29312, Note_on_c, 5, 48, 0
9, 29320, Note_on_c, 5, 48, 127
9, 29352, Note_on_c, 5, 48, 0
9, 29360, Note_on_c, 5, 48, 127
9, 29392, Note_on_c, 5, 48, 0
9, 29400, Note_on_c, 5, 48, 127
9, 29552, Note_on_c, 5, 48, 0
9, 29560, Note_on_c, 5, 48, 127
9, 29592, Note_on_c, 5, 48, 0
9, 29600, Note_on_c, 5, 48, 127
9, 29632, Note_on_c, 5, 48, 0
9, 29640, Note_on_c, 5, 48, 127
9, 29792, Note_on_c, 5, 48, 0
9, 29800, Note_on_c, 5, 48, 127
9, 29832, Note_on_c, 5, 48, 0
9, 29840, Note_on_c, 5, 48, 127
9, 29872, Note_on_c, 5, 48, 0
9, 29880, Note_on_c, 5, 48, 127
9, 30032, Note_on_c, 5, 48, 0
9, 30040, Note_on_c, 5, 48, 117
9, 30072, Note_on_c, 5, 48, 0
9, 30080, Note_on_c, 5, 48, 125
9, 30112, Note_on_c, 5, 48, 0
9, 30120, Note_on_c, 5, 48, 127
9, 30288, Note_on_c, 5, 48, 0
9, 31200, Note_on_c, 5, 48, 127
9, 31248, Note_on_c, 5, 48, 0
9, 31260, Note_on_c, 5, 55, 108
9, 31284, Note_on_c, 5, 55, 0
9, 31290, Note_on_c, 5, 52, 127
9, 31314, Note_on_c, 5, 52, 0
9, 31320, Note_on_c, 5, 48, 96
9, 31368, Note_on_c, 5, 48, 0
9, 31380, Note_on_c, 5, 55, 113
9, 31404, Note_on_c, 5, 55, 0
9, 31410, Note_on_c, 5, 52, 116
9, 31434, Note_on_c, 5, 52, 0
9, 31440, Note_on_c, 5, 48, 127
9, 31488, Note_on_c, 5, 48, 0
9, 31500, Note_on_c, 5, 55, 116
9, 31524, Note_on_c, 5, 55, 0
9, 31530, Note_on_c, 5, 52, 127
9, 31554, Note_on_c, 5, 52, 0
9, 31560, Note_on_c, 5, 48, 120
9, 31608, Note_on_c, 5, 48, 0
9, 31620, Note_on_c, 5, 55, 116
9, 31644, Note_on_c, 5, 55, 0
9, 31650, Note_on_c, 5, 52, 120
9, 31674, Note_on_c, 5, 52, 0
9, 31680, Note_on_c, 5, 48, 127
9, 31728, Note_on_c, 5, 48, 0
9, 31740, Note_on_c, 5, 55, 108
9, 31764, Note_on_c, 5, 55, 0
9, 31770, Note_on_c, 5, 52, 117
9, 31794, Note_on_c, 5, 52, 0
9, 31800, Note_on_c, 5, 48, 101
9, 31848, Note_on_c, 5, 48, 0
9, 31860, Note_on_c, 5, 55, 105
9, 31884, Note_on_c, 5, 55, 0
9, 31890, Note_on_c, 5, 52, 109
9, 31914, Note_on_c, 5, 52, 0
9, 31920, Note_on_c, 5, 48, 110
9, 31968, Note_on_c, 5, 48, 0
9, 31980, Note_on_c, 5, 55, 101
9, 32004, Note_on_c, 5, 55, 0
9, 32010, Note_on_c, 5, 52, 114
9, 32034, Note_on_c, 5, 52, 0
9, 32040, Note_on_c, 5, 48, 123
9, 32088, Note_on_c, 5, 48, 0
9, 32100, Note_on_c, 5, 55, 108
9, 32124, Note_on_c, 5, 55, 0
9, 32130, Note_on_c, 5, 52, 127
9, 32154, Note_on_c, 5, 52, 0
9, 32160, Note_on_c, 5, 48, 120
9, 32208, Note_on_c, 5, 48, 0
9, 32940, Note_on_c, 5, 57, 127
9, 32988, Note_on_c, 5, 57, 0
9, 33000, Note_on_c, 5, 58, 95
9, 33048, Note_on_c, 5, 58, 0
9, 33060, Note_on_c, 5, 62, 113
9, 33108, Note_on_c, 5, 62, 0
9, 33120, Note_on_c, 5, 48, 108
9, 33792, Note_on_c, 5, 48, 0
9, 33840, Note_on_c, 5, 48, 125
9, 34032, Note_on_c, 5, 48, 0
9, 34080, Note_on_c, 5, 53, 127
9, 34176, Note_on_c, 5, 53, 0
9, 34200, Note_on_c, 5, 50, 123
9, 34296, Note_on_c, 5, 50, 0
9, 34320, Note_on_c, 5, 52, 108
9, 34464, Note_on_c, 5, 52, 0
9, 34500, Note_on_c, 5, 48, 127
9, 34548, Note_on_c, 5, 48, 0
9, 34560, Note_on_c, 5, 53, 127
9, 34656, Note_on_c, 5, 53, 0
9, 34680, Note_on_c, 5, 50, 127
9, 34776, Note_on_c, 5, 50, 0
9, 34800, Note_on_c, 5, 52, 127
9, 34944, Note_on_c, 5, 52, 0
9, 34980, Note_on_c, 5, 50, 123
9, 34980, Note_on_c, 5, 48, 127
9, 35028, Note_on_c, 5, 48, 0
9, 35028, Note_on_c, 5, 50, 0
9, 35040, Note_on_c, 5, 53, 110
9, 35136, Note_on_c, 5, 53, 0
9, 35160, Note_on_c, 5, 60, 127
9, 35256, Note_on_c, 5, 60, 0
9, 35280, Note_on_c, 5, 60, 101
9, 35424, Note_on_c, 5, 60, 0
9, 35460, Note_on_c, 5, 65, 123
9, 35508, Note_on_c, 5, 65, 0
9, 35520, Note_on_c, 5, 65, 120
9, 35616, Note_on_c, 5, 65, 0
9, 35640, Note_on_c, 5, 60, 109
9, 35736, Note_on_c, 5, 60, 0
9, 35760, Note_on_c, 5, 60, 108
9, 35952, Note_on_c, 5, 60, 0
9, 36000, Note_on_c, 5, 57, 114
9, 36000, Note_on_c, 5, 60, 116
9, 36096, Note_on_c, 5, 60, 0
9, 36096, Note_on_c, 5, 57, 0
9, 36120, Note_on_c, 5, 53, 103
9, 36120, Note_on_c, 5, 57, 118
9, 36216, Note_on_c, 5, 57, 0
9, 36216, Note_on_c, 5, 53, 0
9, 36240, Note_on_c, 5, 58, 83
9, 36240, Note_on_c, 5, 55, 105
9, 36384, Note_on_c, 5, 55, 0
9, 36384, Note_on_c, 5, 58, 0
9, 36420, Note_on_c, 5, 57, 107
9, 36420, Note_on_c, 5, 60, 107
9, 36468, Note_on_c, 5, 60, 0
9, 36468, Note_on_c, 5, 57, 0
9, 36480, Note_on_c, 5, 62, 121
9, 36528, Note_on_c, 5, 62, 0
9, 36540, Note_on_c, 5, 64, 117
9, 36588, Note_on_c, 5, 64, 0
9, 36600, Note_on_c, 5, 65, 113
9, 36648, Note_on_c, 5, 65, 0
9, 36660, Note_on_c, 5, 48, 109
9, 36708, Note_on_c, 5, 48, 0
9, 36720, Note_on_c, 5, 55, 102
9, 36864, Note_on_c, 5, 55, 0
9, 36900, Note_on_c, 5, 62, 99
9, 36948, Note_on_c, 5, 62, 0
9, 36960, Note_on_c, 5, 55, 102
9, 37104, Note_on_c, 5, 55, 0
9, 37140, Note_on_c, 5, 62, 99
9, 37188, Note_on_c, 5, 62, 0
9, 37200, Note_on_c, 5, 55, 102
9, 37344, Note_on_c, 5, 55, 0
9, 37380, Note_on_c, 5, 62, 99
9, 37428, Note_on_c, 5, 62, 0
9, 37440, Note_on_c, 5, 55, 102
9, 37584, Note_on_c, 5, 55, 0
9, 37620, Note_on_c, 5, 62, 99
9, 37668, Note_on_c, 5, 62, 0
9, 37680, Note_on_c, 5, 55, 102
9, 37824, Note_on_c, 5, 55, 0
9, 37860, Note_on_c, 5, 62, 99
9, 37908, Note_on_c, 5, 62, 0
9, 37920, Note_on_c, 5, 55, 102
9, 38064, Note_on_c, 5, 55, 0
9, 38100, Note_on_c, 5, 62, 99
9, 38148, Note_on_c, 5, 62, 0
9, 38160, Note_on_c, 5, 55, 102
9, 38304, Note_on_c, 5, 55, 0
9, 38340, Note_on_c, 5, 62, 99
9, 38388, Note_on_c, 5, 62, 0
9, 38400, Note_on_c, 5, 55, 102
9, 38544, Note_on_c, 5, 55, 0
9, 38580, Note_on_c, 5, 62, 99
9, 38628, Note_on_c, 5, 62, 0
9, 38640, Note_on_c, 5, 55, 102
9, 38784, Note_on_c, 5, 55, 0
9, 38820, Note_on_c, 5, 62, 99
9, 38868, Note_on_c, 5, 62, 0
9, 38880, Note_on_c, 5, 55, 113
9, 38928, Note_on_c, 5, 55, 0
9, 40800, Note_on_c, 5, 60, 109
9, 41472, Note_on_c, 5, 60, 0
9, 41520, Note_on_c, 5, 60, 123
9, 41712, Note_on_c, 5, 60, 0
9, 41760, Note_on_c, 5, 65, 123
9, 41808, Note_on_c, 5, 65, 0
9, 41820, Note_on_c, 5, 60, 114
9, 41844, Note_on_c, 5, 60, 0
9, 41850, Note_on_c, 5, 48, 106
9, 41874, Note_on_c, 5, 48, 0
9, 41880, Note_on_c, 5, 60, 98
9, 41904, Note_on_c, 5, 60, 0
9, 41910, Note_on_c, 5, 48, 100
9, 41934, Note_on_c, 5, 48, 0
9, 41940, Note_on_c, 5, 60, 98
9, 41964, Note_on_c, 5, 60, 0
9, 41970, Note_on_c, 5, 48, 112
9, 41994, Note_on_c, 5, 48, 0
9, 42000, Note_on_c, 5, 60, 120
9, 42024, Note_on_c, 5, 60, 0
9, 42030, Note_on_c, 5, 48, 104
9, 42054, Note_on_c, 5, 48, 0
9, 42060, Note_on_c, 5, 60, 107
9, 42084, Note_on_c, 5, 60, 0
9, 42090, Note_on_c, 5, 48, 101
9, 42114, Note_on_c, 5, 48, 0
9, 42120, Note_on_c, 5, 60, 102
9, 42144, Note_on_c, 5, 60, 0
9, 42150, Note_on_c, 5, 48, 105
9, 42174, Note_on_c, 5, 48, 0
9, 42180, Note_on_c, 5, 60, 103
9, 42204, Note_on_c, 5, 60, 0
9, 42210, Note_on_c, 5, 48, 103
9, 42234, Note_on_c, 5, 48, 0
9, 42240, Note_on_c, 5, 60, 120
9, 42264, Note_on_c, 5, 60, 0
9, 42270, Note_on_c, 5, 48, 104
9, 42294, Note_on_c, 5, 48, 0
9, 42300, Note_on_c, 5, 60, 107
9, 42324, Note_on_c, 5, 60, 0
9, 42330, Note_on_c, 5, 48, 101
9, 42354, Note_on_c, 5, 48, 0
9, 42360, Note_on_c, 5, 60, 102
9, 42384, Note_on_c, 5, 60, 0
9, 42390, Note_on_c, 5, 48, 105
9, 42414, Note_on_c, 5, 48, 0
9, 42420, Note_on_c, 5, 60, 103
9, 42444, Note_on_c, 5, 60, 0
9, 42450, Note_on_c, 5, 48, 103
9, 42474, Note_on_c, 5, 48, 0
9, 42480, Note_on_c, 5, 60, 120
9, 42504, Note_on_c, 5, 60, 0
9, 42510, Note_on_c, 5, 48, 104
9, 42534, Note_on_c, 5, 48, 0
9, 42540, Note_on_c, 5, 60, 107
9, 42564, Note_on_c, 5, 60, 0
9, 42570, Note_on_c, 5, 48, 101
9, 42594, Note_on_c, 5, 48, 0
9, 42600, Note_on_c, 5, 60, 102
9, 42624, Note_on_c, 5, 60, 0
9, 42630, Note_on_c, 5, 48, 105
9, 42654, Note_on_c, 5, 48, 0
9, 42660, Note_on_c, 5, 60, 103
9, 42684, Note_on_c, 5, 60, 0
9, 42690, Note_on_c, 5, 48, 103
9, 42714, Note_on_c, 5, 48, 0
9, 42720, Note_on_c, 5, 60, 120
9, 42744, Note_on_c, 5, 60, 0
9, 42750, Note_on_c, 5, 48, 104
9, 42774, Note_on_c, 5, 48, 0
9, 42780, Note_on_c, 5, 60, 107
9, 42804, Note_on_c, 5, 60, 0
9, 42810, Note_on_c, 5, 48, 101
9, 42834, Note_on_c, 5, 48, 0
9, 42840, Note_on_c, 5, 60, 102
9, 42864, Note_on_c, 5, 60, 0
9, 42870, Note_on_c, 5, 48, 105
9, 42894, Note_on_c, 5, 48, 0
9, 42900, Note_on_c, 5, 60, 103
9, 42924, Note_on_c, 5, 60, 0
9, 42930, Note_on_c, 5, 48, 103
9, 42954, Note_on_c, 5, 48, 0
9, 42960, Note_on_c, 5, 60, 120
9, 42984, Note_on_c, 5, 60, 0
9, 42990, Note_on_c, 5, 48, 104
9, 43014, Note_on_c, 5, 48, 0
9, 43020, Note_on_c, 5, 60, 107
9, 43044, Note_on_c, 5, 60, 0
9, 43050, Note_on_c, 5, 48, 101
9, 43074, Note_on_c, 5, 48, 0
9, 43080, Note_on_c, 5, 60, 102
9, 43104, Note_on_c, 5, 60, 0
9, 43110, Note_on_c, 5, 48, 105
9, 43134, Note_on_c, 5, 48, 0
9, 43140, Note_on_c, 5, 60, 103
9, 43164, Note_on_c, 5, 60, 0
9, 43170, Note_on_c, 5, 48, 103
9, 43194, Note_on_c, 5, 48, 0
9, 43200, Note_on_c, 5, 60, 120
9, 43224, Note_on_c, 5, 60, 0
9, 43230, Note_on_c, 5, 48, 104
9, 43254, Note_on_c, 5, 48, 0
9, 43260, Note_on_c, 5, 60, 107
9, 43284, Note_on_c, 5, 60, 0
9, 43290, Note_on_c, 5, 48, 101
9, 43314, Note_on_c, 5, 48, 0
9, 43320, Note_on_c, 5, 60, 102
9, 43344, Note_on_c, 5, 60, 0
9, 43350, Note_on_c, 5, 48, 105
9, 43374, Note_on_c, 5, 48, 0
9, 43380, Note_on_c, 5, 60, 103
9, 43404, Note_on_c, 5, 60, 0
9, 43410, Note_on_c, 5, 48, 103
9, 43434, Note_on_c, 5, 48, 0
9, 43440, Note_on_c, 5, 60, 120
9, 43464, Note_on_c, 5, 60, 0
9, 43470, Note_on_c, 5, 48, 104
9, 43494, Note_on_c, 5, 48, 0
9, 43500, Note_on_c, 5, 60, 107
9, 43524, Note_on_c, 5, 60, 0
9, 43530, Note_on_c, 5, 48, 101
9, 43554, Note_on_c, 5, 48, 0
9, 43560, Note_on_c, 5, 60, 102
9, 43584, Note_on_c, 5, 60, 0
9, 43590, Note_on_c, 5, 48, 105
9, 43614, Note_on_c, 5, 48, 0
9, 43620, Note_on_c, 5, 60, 103
9, 43644, Note_on_c, 5, 60, 0
9, 43650, Note_on_c, 5, 48, 103
9, 43674, Note_on_c, 5, 48, 0
9, 43680, Note_on_c, 5, 60, 120
9, 43704, Note_on_c, 5, 60, 0
9, 43710, Note_on_c, 5, 48, 104
9, 43734, Note_on_c, 5, 48, 0
9, 43740, Note_on_c, 5, 60, 107
9, 43764, Note_on_c, 5, 60, 0
9, 43770, Note_on_c, 5, 48, 101
9, 43794, Note_on_c, 5, 48, 0
9, 43800, Note_on_c, 5, 60, 102
9, 43824, Note_on_c, 5, 60, 0
9, 43830, Note_on_c, 5, 48, 105
9, 43854, Note_on_c, 5, 48, 0
9, 43860, Note_on_c, 5, 60, 103
9, 43884, Note_on_c, 5, 60, 0
9, 43890, Note_on_c, 5, 48, 103
9, 43914, Note_on_c, 5, 48, 0
9, 43920, Note_on_c, 5, 60, 120
9, 43944, Note_on_c, 5, 60, 0
9, 43950, Note_on_c, 5, 48, 104
9, 43974, Note_on_c, 5, 48, 0
9, 43980, Note_on_c, 5, 60, 107
9, 44004, Note_on_c, 5, 60, 0
9, 44010, Note_on_c, 5, 48, 101
9, 44034, Note_on_c, 5, 48, 0
9, 44040, Note_on_c, 5, 60, 102
9, 44064, Note_on_c, 5, 60, 0
9, 44070, Note_on_c, 5, 48, 105
9, 44094, Note_on_c, 5, 48, 0
9, 44100, Note_on_c, 5, 60, 103
9, 44124, Note_on_c, 5, 60, 0
9, 44130, Note_on_c, 5, 48, 103
9, 44154, Note_on_c, 5, 48, 0
9, 44160, Note_on_c, 5, 60, 120
9, 44184, Note_on_c, 5, 60, 0
9, 44190, Note_on_c, 5, 48, 104
9, 44214, Note_on_c, 5, 48, 0
9, 44220, Note_on_c, 5, 60, 107
9, 44244, Note_on_c, 5, 60, 0
9, 44250, Note_on_c, 5, 48, 101
9, 44274, Note_on_c, 5, 48, 0
9, 44280, Note_on_c, 5, 60, 102
9, 44304, Note_on_c, 5, 60, 0
9, 44310, Note_on_c, 5, 48, 105
9, 44334, Note_on_c, 5, 48, 0
9, 44340, Note_on_c, 5, 60, 103
9, 44364, Note_on_c, 5, 60, 0
9, 44370, Note_on_c, 5, 48, 103
9, 44394, Note_on_c, 5, 48, 0
9, 44400, Note_on_c, 5, 60, 120
9, 44424, Note_on_c, 5, 60, 0
9, 44430, Note_on_c, 5, 48, 104
9, 44454, Note_on_c, 5, 48, 0
9, 44460, Note_on_c, 5, 60, 107
9, 44484, Note_on_c, 5, 60, 0
9, 44490, Note_on_c, 5, 48, 101
9, 44514, Note_on_c, 5, 48, 0
9, 44520, Note_on_c, 5, 60, 102
9, 44544, Note_on_c, 5, 60, 0
9, 44550, Note_on_c, 5, 48, 105
9, 44574, Note_on_c, 5, 48, 0
9, 44580, Note_on_c, 5, 60, 103
9, 44604, Note_on_c, 5, 60, 0
9, 44610, Note_on_c, 5, 48, 103
9, 44634, Note_on_c, 5, 48, 0
9, 44640, Note_on_c, 5, 60, 120
9, 44664, Note_on_c, 5, 60, 0
9, 44670, Note_on_c, 5, 48, 104
9, 44694, Note_on_c, 5, 48, 0
9, 44700, Note_on_c, 5, 60, 107
9, 44724, Note_on_c, 5, 60, 0
9, 44730, Note_on_c, 5, 48, 101
9, 44754, Note_on_c, 5, 48, 0
9, 44760, Note_on_c, 5, 60, 102
9, 44784, Note_on_c, 5, 60, 0
9, 44790, Note_on_c, 5, 48, 105
9, 44814, Note_on_c, 5, 48, 0
9, 44820, Note_on_c, 5, 60, 103
9, 44844, Note_on_c, 5, 60, 0
9, 44850, Note_on_c, 5, 48, 103
9, 44874, Note_on_c, 5, 48, 0
9, 44880, Note_on_c, 5, 60, 120
9, 44904, Note_on_c, 5, 60, 0
9, 44910, Note_on_c, 5, 48, 104
9, 44934, Note_on_c, 5, 48, 0
9, 44940, Note_on_c, 5, 60, 107
9, 44964, Note_on_c, 5, 60, 0
9, 44970, Note_on_c, 5, 48, 101
9, 44994, Note_on_c, 5, 48, 0
9, 45000, Note_on_c, 5, 60, 102
9, 45024, Note_on_c, 5, 60, 0
9, 45030, Note_on_c, 5, 48, 105
9, 45054, Note_on_c, 5, 48, 0
9, 45060, Note_on_c, 5, 60, 103
9, 45084, Note_on_c, 5, 60, 0
9, 45090, Note_on_c, 5, 48, 103
9, 45114, Note_on_c, 5, 48, 0
9, 45120, Note_on_c, 5, 60, 120
9, 45144, Note_on_c, 5, 60, 0
9, 45150, Note_on_c, 5, 48, 104
9, 45174, Note_on_c, 5, 48, 0
9, 45180, Note_on_c, 5, 60, 107
9, 45204, Note_on_c, 5, 60, 0
9, 45210, Note_on_c, 5, 48, 101
9, 45234, Note_on_c, 5, 48, 0
9, 45240, Note_on_c, 5, 60, 102
9, 45264, Note_on_c, 5, 60, 0
9, 45270, Note_on_c, 5, 48, 105
9, 45294, Note_on_c, 5, 48, 0
9, 45300, Note_on_c, 5, 60, 103
9, 45324, Note_on_c, 5, 60, 0
9, 45330, Note_on_c, 5, 48, 103
9, 45354, Note_on_c, 5, 48, 0
9, 45360, Note_on_c, 5, 60, 120
9, 45384, Note_on_c, 5, 60, 0
9, 45390, Note_on_c, 5, 48, 104
9, 45414, Note_on_c, 5, 48, 0
9, 45420, Note_on_c, 5, 60, 107
9, 45444, Note_on_c, 5, 60, 0
9, 45450, Note_on_c, 5, 48, 101
9, 45474, Note_on_c, 5, 48, 0
9, 45480, Note_on_c, 5, 60, 102
9, 45504, Note_on_c, 5, 60, 0
9, 45510, Note_on_c, 5, 48, 105
9, 45534, Note_on_c, 5, 48, 0
9, 45540, Note_on_c, 5, 60, 103
9, 45564, Note_on_c, 5, 60, 0
9, 45570, Note_on_c, 5, 48, 103
9, 45594, Note_on_c, 5, 48, 0
9, 45600, Note_on_c, 5, 53, 114
9, 45648, Note_on_c, 5, 53, 0
9, 48960, Note_on_c, 5, 50, 100
9, 49008, Note_on_c, 5, 50, 0
9, 49020, Note_on_c, 5, 53, 120
9, 49068, Note_on_c, 5, 53, 0
9, 49080, Note_on_c, 5, 50, 120
9, 49128, Note_on_c, 5, 50, 0
9, 49140, Note_on_c, 5, 53, 113
9, 49188, Note_on_c, 5, 53, 0
9, 49200, Note_on_c, 5, 50, 113
9, 49248, Note_on_c, 5, 50, 0
9, 49260, Note_on_c, 5, 53, 116
9, 49308, Note_on_c, 5, 53, 0
9, 49320, Note_on_c, 5, 50, 112
9, 49368, Note_on_c, 5, 50, 0
9, 49380, Note_on_c, 5, 53, 120
9, 49428, Note_on_c, 5, 53, 0
9, 49440, Note_on_c, 5, 52, 125
9, 49488, Note_on_c, 5, 52, 0
9, 49500, Note_on_c, 5, 55, 106
9, 49548, Note_on_c, 5, 55, 0
9, 49560, Note_on_c, 5, 52, 114
9, 49608, Note_on_c, 5, 52, 0
9, 49620, Note_on_c, 5, 55, 127
9, 49668, Note_on_c, 5, 55, 0
9, 49680, Note_on_c, 5, 52, 108
9, 49728, Note_on_c, 5, 52, 0
9, 49740, Note_on_c, 5, 55, 121
9, 49788, Note_on_c, 5, 55, 0
9, 49800, Note_on_c, 5, 52, 118
9, 49848, Note_on_c, 5, 52, 0
9, 49860, Note_on_c, 5, 55, 106
9, 49908, Note_on_c, 5, 55, 0
9, 49920, Note_on_c, 5, 50, 110
9, 49968, Note_on_c, 5, 50, 0
9, 49980, Note_on_c, 5, 53, 117
9, 50028, Note_on_c, 5, 53, 0
9, 50040, Note_on_c, 5, 50, 117
9, 50088, Note_on_c, 5, 50, 0
9, 50100, Note_on_c, 5, 53, 111
9, 50148, Note_on_c, 5, 53, 0
9, 50160, Note_on_c, 5, 50, 114
9, 50208, Note_on_c, 5, 50, 0
9, 50220, Note_on_c, 5, 53, 120
9, 50268, Note_on_c, 5, 53, 0
9, 50280, Note_on_c, 5, 50, 116
9, 50328, Note_on_c, 5, 50, 0
9, 50340, Note_on_c, 5, 53, 125
9, 50388, Note_on_c, 5, 53, 0
9, 50400, Note_on_c, 5, 52, 120
9, 50448, Note_on_c, 5, 52, 0
9, 50460, Note_on_c, 5, 55, 111
9, 50508, Note_on_c, 5, 55, 0
9, 50520, Note_on_c, 5, 52, 111
9, 50568, Note_on_c, 5, 52, 0
9, 50580, Note_on_c, 5, 55, 104
9, 50628, Note_on_c, 5, 55, 0
9, 50640, Note_on_c, 5, 52, 120
9, 50688, Note_on_c, 5, 52, 0
9, 50700, Note_on_c, 5, 55, 125
9, 50748, Note_on_c, 5, 55, 0
9, 50760, Note_on_c, 5, 52, 117
9, 50808, Note_on_c, 5, 52, 0
9, 50820, Note_on_c, 5, 55, 102
9, 50868, Note_on_c, 5, 55, 0
9, 50880, Note_on_c, 5, 59, 125
9, 50928, Note_on_c, 5, 59, 0
9, 50940, Note_on_c, 5, 55, 127
9, 50988, Note_on_c, 5, 55, 0
9, 51000, Note_on_c, 5, 59, 127
9, 51048, Note_on_c, 5, 59, 0
9, 51060, Note_on_c, 5, 55, 125
9, 51108, Note_on_c, 5, 55, 0
9, 51120, Note_on_c, 5, 59, 125
9, 51168, Note_on_c, 5, 59, 0
9, 51180, Note_on_c, 5, 55, 118
9, 51228, Note_on_c, 5, 55, 0
9, 51240, Note_on_c, 5, 59, 125
9, 51288, Note_on_c, 5, 59, 0
9, 51300, Note_on_c, 5, 55, 104
9, 51348, Note_on_c, 5, 55, 0
9, 51360, Note_on_c, 5, 60, 127
9, 51408, Note_on_c, 5, 60, 0
9, 51420, Note_on_c, 5, 55, 111
9, 51468, Note_on_c, 5, 55, 0
9, 51480, Note_on_c, 5, 60, 127
9, 51528, Note_on_c, 5, 60, 0
9, 51540, Note_on_c, 5, 55, 113
9, 51588, Note_on_c, 5, 55, 0
9, 51600, Note_on_c, 5, 60, 127
9, 51648, Note_on_c, 5, 60, 0
9, 51660, Note_on_c, 5, 55, 125
9, 51708, Note_on_c, 5, 55, 0
9, 51720, Note_on_c, 5, 60, 120
9, 51768, Note_on_c, 5, 60, 0
9, 51780, Note_on_c, 5, 55, 121
9, 51828, Note_on_c, 5, 55, 0
9, 51840, Note_on_c, 5, 62, 127
9, 51888, Note_on_c, 5, 62, 0
9, 51900, Note_on_c, 5, 55, 121
9, 51948, Note_on_c, 5, 55, 0
9, 51960, Note_on_c, 5, 62, 127
9, 52008, Note_on_c, 5, 62, 0
9, 52020, Note_on_c, 5, 55, 110
9, 52068, Note_on_c, 5, 55, 0
9, 52080, Note_on_c, 5, 62, 127
9, 52128, Note_on_c, 5, 62, 0
9, 52140, Note_on_c, 5, 55, 117
9, 52188, Note_on_c, 5, 55, 0
9, 52200, Note_on_c, 5, 62, 121
9, 52248, Note_on_c, 5, 62, 0
9, 52260, Note_on_c, 5, 55, 117
9, 52308, Note_on_c, 5, 55, 0
9, 52320, Note_on_c, 5, 64, 127
9, 52368, Note_on_c, 5, 64, 0
9, 52380, Note_on_c, 5, 55, 101
9, 52428, Note_on_c, 5, 55, 0
9, 52440, Note_on_c, 5, 64, 114
9, 52488, Note_on_c, 5, 64, 0
9, 52500, Note_on_c, 5, 55, 109
9, 52548, Note_on_c, 5, 55, 0
9, 52560, Note_on_c, 5, 64, 125
9, 52608, Note_on_c, 5, 64, 0
9, 52620, Note_on_c, 5, 55, 108
9, 52668, Note_on_c, 5, 55, 0
9, 52680, Note_on_c, 5, 64, 127
9, 52728, Note_on_c, 5, 64, 0
9, 52740, Note_on_c, 5, 55, 99
9, 52788, Note_on_c, 5, 55, 0
9, 52800, Note_on_c, 5, 65, 107
9, 52832, Note_on_c, 5, 65, 0
9, 52840, Note_on_c, 5, 62, 105
9, 52872, Note_on_c, 5, 62, 0
9, 52880, Note_on_c, 5, 65, 125
9, 52912, Note_on_c, 5, 65, 0
9, 52920, Note_on_c, 5, 62, 117
9, 52952, Note_on_c, 5, 62, 0
9, 52960, Note_on_c, 5, 65, 121
9, 52992, Note_on_c, 5, 65, 0
9, 53000, Note_on_c, 5, 62, 118
9, 53032, Note_on_c, 5, 62, 0
9, 53040, Note_on_c, 5, 65, 112
9, 53072, Note_on_c, 5, 65, 0
9, 53080, Note_on_c, 5, 62, 116
9, 53112, Note_on_c, 5, 62, 0
9, 53120, Note_on_c, 5, 65, 112
9, 53152, Note_on_c, 5, 65, 0
9, 53160, Note_on_c, 5, 62, 109
9, 53192, Note_on_c, 5, 62, 0
9, 53200, Note_on_c, 5, 65, 110
9, 53232, Note_on_c, 5, 65, 0
9, 53240, Note_on_c, 5, 62, 103
9, 53272, Note_on_c, 5, 62, 0
9, 53280, Note_on_c, 5, 67, 127
9, 53312, Note_on_c, 5, 67, 0
9, 53320, Note_on_c, 5, 64, 120
9, 53352, Note_on_c, 5, 64, 0
9, 53360, Note_on_c, 5, 67, 118
9, 53392, Note_on_c, 5, 67, 0
9, 53400, Note_on_c, 5, 64, 120
9, 53432, Note_on_c, 5, 64, 0
9, 53440, Note_on_c, 5, 67, 109
9, 53472, Note_on_c, 5, 67, 0
9, 53480, Note_on_c, 5, 64, 117
9, 53512, Note_on_c, 5, 64, 0
9, 53520, Note_on_c, 5, 67, 112
9, 53552, Note_on_c, 5, 67, 0
9, 53560, Note_on_c, 5, 64, 109
9, 53592, Note_on_c, 5, 64, 0
9, 53600, Note_on_c, 5, 67, 109
9, 53632, Note_on_c, 5, 67, 0
9, 53640, Note_on_c, 5, 64, 127
9, 53672, Note_on_c, 5, 64, 0
9, 53680, Note_on_c, 5, 67, 108
9, 53712, Note_on_c, 5, 67, 0
9, 53720, Note_on_c, 5, 64, 102
9, 53752, Note_on_c, 5, 64, 0
9, 53760, Note_on_c, 5, 67, 117
9, 53784, Note_on_c, 5, 67, 0
9, 53790, Note_on_c, 5, 65, 105
9, 53814, Note_on_c, 5, 65, 0
9, 53820, Note_on_c, 5, 67, 113
9, 53844, Note_on_c, 5, 67, 0
9, 53850, Note_on_c, 5, 65, 118
9, 53874, Note_on_c, 5, 65, 0
9, 53880, Note_on_c, 5, 67, 118
9, 53904, Note_on_c, 5, 67, 0
9, 53910, Note_on_c, 5, 65, 110
9, 53934, Note_on_c, 5, 65, 0
9, 53940, Note_on_c, 5, 67, 118
9, 53964, Note_on_c, 5, 67, 0
9, 53970, Note_on_c, 5, 65, 114
9, 53994, Note_on_c, 5, 65, 0
9, 54000, Note_on_c, 5, 67, 125
9, 54024, Note_on_c, 5, 67, 0
9, 54030, Note_on_c, 5, 65, 118
9, 54054, Note_on_c, 5, 65, 0
9, 54060, Note_on_c, 5, 67, 127
9, 54084, Note_on_c, 5, 67, 0
9, 54090, Note_on_c, 5, 65, 123
9, 54114, Note_on_c, 5, 65, 0
9, 54120, Note_on_c, 5, 67, 125
9, 54144, Note_on_c, 5, 67, 0
9, 54150, Note_on_c, 5, 65, 125
9, 54174, Note_on_c, 5, 65, 0
9, 54180, Note_on_c, 5, 67, 118
9, 54204, Note_on_c, 5, 67, 0
9, 54210, Note_on_c, 5, 65, 123
9, 54234, Note_on_c, 5, 65, 0
9, 54240, Note_on_c, 5, 67, 111
9, 54264, Note_on_c, 5, 67, 0
9, 54270, Note_on_c, 5, 64, 121
9, 54294, Note_on_c, 5, 64, 0
9, 54300, Note_on_c, 5, 67, 125
9, 54324, Note_on_c, 5, 67, 0
9, 54330, Note_on_c, 5, 64, 120
9, 54354, Note_on_c, 5, 64, 0
9, 54360, Note_on_c, 5, 67, 118
9, 54384, Note_on_c, 5, 67, 0
9, 54390, Note_on_c, 5, 64, 112
9, 54414, Note_on_c, 5, 64, 0
9, 54420, Note_on_c, 5, 67, 116
9, 54444, Note_on_c, 5, 67, 0
9, 54450, Note_on_c, 5, 64, 117
9, 54474, Note_on_c, 5, 64, 0
9, 54480, Note_on_c, 5, 67, 123
9, 54504, Note_on_c, 5, 67, 0
9, 54510, Note_on_c, 5, 64, 123
9, 54534, Note_on_c, 5, 64, 0
9, 54540, Note_on_c, 5, 67, 121
9, 54564, Note_on_c, 5, 67, 0
9, 54570, Note_on_c, 5, 64, 120
9, 54594, Note_on_c, 5, 64, 0
9, 54600, Note_on_c, 5, 67, 113
9, 54624, Note_on_c, 5, 67, 0
9, 54630, Note_on_c, 5, 64, 118
9, 54654, Note_on_c, 5, 64, 0
9, 54660, Note_on_c, 5, 67, 113
9, 54684, Note_on_c, 5, 67, 0
9, 54690, Note_on_c, 5, 64, 113
9, 54714, Note_on_c, 5, 64, 0
9, 54720, Note_on_c, 5, 67, 123
9, 54744, Note_on_c, 5, 67, 0
9, 54750, Note_on_c, 5, 65, 110
9, 54774, Note_on_c, 5, 65, 0
9, 54780, Note_on_c, 5, 67, 117
9, 54804, Note_on_c, 5, 67, 0
9, 54810, Note_on_c, 5, 65, 114
9, 54834, Note_on_c, 5, 65, 0
9, 54840, Note_on_c, 5, 67, 113
9, 54864, Note_on_c, 5, 67, 0
9, 54870, Note_on_c, 5, 65, 120
9, 54894, Note_on_c, 5, 65, 0
9, 54900, Note_on_c, 5, 67, 109
9, 54924, Note_on_c, 5, 67, 0
9, 54930, Note_on_c, 5, 65, 120
9, 54954, Note_on_c, 5, 65, 0
9, 54960, Note_on_c, 5, 67, 123
9, 54984, Note_on_c, 5, 67, 0
9, 54990, Note_on_c, 5, 65, 118
9, 55014, Note_on_c, 5, 65, 0
9, 55020, Note_on_c, 5, 67, 118
9, 55044, Note_on_c, 5, 67, 0
9, 55050, Note_on_c, 5, 65, 121
9, 55074, Note_on_c, 5, 65, 0
9, 55080, Note_on_c, 5, 67, 123
9, 55104, Note_on_c, 5, 67, 0
9, 55110, Note_on_c, 5, 65, 125
9, 55134, Note_on_c, 5, 65, 0
9, 55140, Note_on_c, 5, 67, 123
9, 55164, Note_on_c, 5, 67, 0
9, 55170, Note_on_c, 5, 65, 114
9, 55194, Note_on_c, 5, 65, 0
9, 55200, Note_on_c, 5, 67, 117
9, 55200, Note_on_c, 5, 64, 113
9, 55344, Note_on_c, 5, 64, 0
9, 55344, Note_on_c, 5, 67, 0
9, 55380, Note_on_c, 5, 69, 118
9, 55380, Note_on_c, 5, 65, 101
9, 55404, Note_on_c, 5, 65, 0
9, 55404, Note_on_c, 5, 69, 0
9, 55410, Note_on_c, 5, 67, 109
9, 55410, Note_on_c, 5, 71, 110
9, 55434, Note_on_c, 5, 71, 0
9, 55434, Note_on_c, 5, 67, 0
9, 55440, Note_on_c, 5, 72, 104
9, 55440, Note_on_c, 5, 69, 109
9, 55488, Note_on_c, 5, 69, 0
9, 55488, Note_on_c, 5, 72, 0
9, 55500, Note_on_c, 5, 71, 123
9, 55500, Note_on_c, 5, 67, 103
9, 55524, Note_on_c, 5, 67, 0
9, 55524, Note_on_c, 5, 71, 0
9, 55530, Note_on_c, 5, 69, 102
9, 55530, Note_on_c, 5, 65, 96
9, 55554, Note_on_c, 5, 65, 0
9, 55554, Note_on_c, 5, 69, 0
9, 55560, Note_on_c, 5, 67, 117
9, 55560, Note_on_c, 5, 64, 112
9, 55608, Note_on_c, 5, 64, 0
9, 55608, Note_on_c, 5, 67, 0
9, 55620, Note_on_c, 5, 69, 108
9, 55620, Note_on_c, 5, 65, 112
9, 55644, Note_on_c, 5, 65, 0
9, 55644, Note_on_c, 5, 69, 0
9, 55650, Note_on_c, 5, 71, 107
9, 55650, Note_on_c, 5, 67, 107
9, 55674, Note_on_c, 5, 67, 0
9, 55674, Note_on_c, 5, 71, 0
9, 55680, Note_on_c, 5, 72, 116
9, 55680, Note_on_c, 5, 69, 116
9, 55728, Note_on_c, 5, 69, 0
9, 55728, Note_on_c, 5, 72, 0
9, 55740, Note_on_c, 5, 67, 104
9, 55740, Note_on_c, 5, 71, 109
9, 55764, Note_on_c, 5, 71, 0
9, 55764, Note_on_c, 5, 67, 0
9, 55770, Note_on_c, 5, 65, 103
9, 55770, Note_on_c, 5, 69, 104
9, 55794, Note_on_c, 5, 69, 0
9, 55794, Note_on_c, 5, 65, 0
9, 55800, Note_on_c, 5, 67, 112
9, 55800, Note_on_c, 5, 64, 106
9, 55848, Note_on_c, 5, 64, 0
9, 55848, Note_on_c, 5, 67, 0
9, 55860, Note_on_c, 5, 69, 108
9, 55860, Note_on_c, 5, 65, 110
9, 55884, Note_on_c, 5, 65, 0
9, 55884, Note_on_c, 5, 69, 0
9, 55890, Note_on_c, 5, 71, 101
9, 55890, Note_on_c, 5, 67, 96
9, 55914, Note_on_c, 5, 67, 0
9, 55914, Note_on_c, 5, 71, 0
9, 55920, Note_on_c, 5, 69, 108
9, 55920, Note_on_c, 5, 72, 108
9, 55968, Note_on_c, 5, 72, 0
9, 55968, Note_on_c, 5, 69, 0
9, 56160, Note_on_c, 5, 53, 121
9, 56160, Note_on_c, 5, 57, 98
9, 56208, Note_on_c, 5, 57, 0
9, 56208, Note_on_c, 5, 53, 0
9, 56220, Note_on_c, 5, 48, 113
9, 56220, Note_on_c, 5, 60, 114
9, 56268, Note_on_c, 5, 60, 0
9, 56268, Note_on_c, 5, 48, 0
9, 56280, Note_on_c, 5, 53, 127
9, 56280, Note_on_c, 5, 57, 111
9, 56328, Note_on_c, 5, 57, 0
9, 56328, Note_on_c, 5, 53, 0
9, 56340, Note_on_c, 5, 48, 127
9, 56340, Note_on_c, 5, 60, 112
9, 56388, Note_on_c, 5, 60, 0
9, 56388, Note_on_c, 5, 48, 0
9, 56400, Note_on_c, 5, 52, 127
9, 56400, Note_on_c, 5, 55, 117
9, 56448, Note_on_c, 5, 55, 0
9, 56448, Note_on_c, 5, 52, 0
9, 56460, Note_on_c, 5, 60, 107
9, 56460, Note_on_c, 5, 48, 102
9, 56508, Note_on_c, 5, 48, 0
9, 56508, Note_on_c, 5, 60, 0
9, 56520, Note_on_c, 5, 52, 121
9, 56520, Note_on_c, 5, 55, 116
9, 56568, Note_on_c, 5, 55, 0
9, 56568, Note_on_c, 5, 52, 0
9, 56580, Note_on_c, 5, 48, 116
9, 56580, Note_on_c, 5, 60, 127
9, 56628, Note_on_c, 5, 60, 0
9, 56628, Note_on_c, 5, 48, 0
9, 56640, Note_on_c, 5, 55, 121
9, 56640, Note_on_c, 5, 53, 127
9, 56688, Note_on_c, 5, 53, 0
9, 56688, Note_on_c, 5, 55, 0
9, 56700, Note_on_c, 5, 50, 127
9, 56700, Note_on_c, 5, 59, 127
9, 56748, Note_on_c, 5, 59, 0
9, 56748, Note_on_c, 5, 50, 0
9, 56760, Note_on_c, 5, 55, 127
9, 56760, Note_on_c, 5, 53, 127
9, 56808, Note_on_c, 5, 53, 0
9, 56808, Note_on_c, 5, 55, 0
9, 56820, Note_on_c, 5, 50, 125
9, 56820, Note_on_c, 5, 59, 123
9, 56868, Note_on_c, 5, 59, 0
9, 56868, Note_on_c, 5, 50, 0
9, 56880, Note_on_c, 5, 64, 116
9, 56880, Note_on_c, 5, 67, 112
9, 57024, Note_on_c, 5, 67, 0
9, 57024, Note_on_c, 5, 64, 0
9, 57060, Note_on_c, 5, 65, 111
9, 57060, Note_on_c, 5, 69, 117
9, 57084, Note_on_c, 5, 69, 0
9, 57084, Note_on_c, 5, 65, 0
9, 57090, Note_on_c, 5, 67, 120
9, 57090, Note_on_c, 5, 71, 121
9, 57114, Note_on_c, 5, 71, 0
9, 57114, Note_on_c, 5, 67, 0
9, 57120, Note_on_c, 5, 69, 114
9, 57120, Note_on_c, 5, 72, 116
9, 57168, Note_on_c, 5, 72, 0
9, 57168, Note_on_c, 5, 69, 0
9, 57180, Note_on_c, 5, 67, 109
9, 57180, Note_on_c, 5, 71, 117
9, 57204, Note_on_c, 5, 71, 0
9, 57204, Note_on_c, 5, 67, 0
9, 57210, Note_on_c, 5, 69, 118
9, 57210, Note_on_c, 5, 65, 107
9, 57234, Note_on_c, 5, 65, 0
9, 57234, Note_on_c, 5, 69, 0
9, 57240, Note_on_c, 5, 67, 121
9, 57240, Note_on_c, 5, 64, 104
9, 57288, Note_on_c, 5, 64, 0
9, 57288, Note_on_c, 5, 67, 0
9, 57300, Note_on_c, 5, 65, 116
9, 57300, Note_on_c, 5, 69, 125
9, 57324, Note_on_c, 5, 69, 0
9, 57324, Note_on_c, 5, 65, 0
9, 57330, Note_on_c, 5, 71, 117
9, 57330, Note_on_c, 5, 67, 125
9, 57354, Note_on_c, 5, 67, 0
9, 57354, Note_on_c, 5, 71, 0
9, 57360, Note_on_c, 5, 72, 117
9, 57360, Note_on_c, 5, 69, 125
9, 57408, Note_on_c, 5, 69, 0
9, 57408, Note_on_c, 5, 72, 0
9, 57420, Note_on_c, 5, 67, 109
9, 57420, Note_on_c, 5, 71, 114
9, 57444, Note_on_c, 5, 71, 0
9, 57444, Note_on_c, 5, 67, 0
9, 57450, Note_on_c, 5, 65, 87
9, 57450, Note_on_c, 5, 69, 114
9, 57474, Note_on_c, 5, 69, 0
9, 57474, Note_on_c, 5, 65, 0
9, 57480, Note_on_c, 5, 67, 120
9, 57480, Note_on_c, 5, 64, 106
9, 57528, Note_on_c, 5, 64, 0
9, 57528, Note_on_c, 5, 67, 0
9, 57540, Note_on_c, 5, 69, 123
9, 57540, Note_on_c, 5, 65, 118
9, 57564, Note_on_c, 5, 65, 0
9, 57564, Note_on_c, 5, 69, 0
9, 57570, Note_on_c, 5, 67, 113
9, 57570, Note_on_c, 5, 71, 125
9, 57594, Note_on_c, 5, 71, 0
9, 57594, Note_on_c, 5, 67, 0
9, 57600, Note_on_c, 5, 72, 117
9, 57600, Note_on_c, 5, 69, 125
9, 57648, Note_on_c, 5, 69, 0
9, 57648, Note_on_c, 5, 72, 0
9, 57840, Note_on_c, 5, 53, 127
9, 57840, Note_on_c, 5, 57, 125
9, 57888, Note_on_c, 5, 57, 0
9, 57888, Note_on_c, 5, 53, 0
9, 57900, Note_on_c, 5, 48, 127
9, 57900, Note_on_c, 5, 60, 127
9, 57948, Note_on_c, 5, 60, 0
9, 57948, Note_on_c, 5, 48, 0
9, 57960, Note_on_c, 5, 53, 127
9, 57960, Note_on_c, 5, 57, 127
9, 58008, Note_on_c, 5, 57, 0
9, 58008, Note_on_c, 5, 53, 0
9, 58020, Note_on_c, 5, 48, 123
9, 58020, Note_on_c, 5, 60, 127
9, 58068, Note_on_c, 5, 60, 0
9, 58068, Note_on_c, 5, 48, 0
9, 58080, Note_on_c, 5, 52, 127
9, 58080, Note_on_c, 5, 55, 127
9, 58128, Note_on_c, 5, 55, 0
9, 58128, Note_on_c, 5, 52, 0
9, 58140, Note_on_c, 5, 48, 123
9, 58140, Note_on_c, 5, 60, 127
9, 58188, Note_on_c, 5, 60, 0
9, 58188, Note_on_c, 5, 48, 0
9, 58200, Note_on_c, 5, 55, 127
9, 58200, Note_on_c, 5, 52, 127
9, 58248, Note_on_c, 5, 52, 0
9, 58248, Note_on_c, 5, 55, 0
9, 58260, Note_on_c, 5, 48, 127
9, 58260, Note_on_c, 5, 60, 127
9, 58308, Note_on_c, 5, 60, 0
9, 58308, Note_on_c, 5, 48, 0
9, 58320, Note_on_c, 5, 55, 111
9, 58320, Note_on_c, 5, 53, 127
9, 58368, Note_on_c, 5, 53, 0
9, 58368, Note_on_c, 5, 55, 0
9, 58380, Note_on_c, 5, 59, 127
9, 58380, Note_on_c, 5, 50, 127
9, 58428, Note_on_c, 5, 50, 0
9, 58428, Note_on_c, 5, 59, 0
9, 58440, Note_on_c, 5, 55, 102
9, 58440, Note_on_c, 5, 53, 127
9, 58488, Note_on_c, 5, 53, 0
9, 58488, Note_on_c, 5, 55, 0
9, 58500, Note_on_c, 5, 59, 114
9, 58500, Note_on_c, 5, 50, 127
9, 58548, Note_on_c, 5, 50, 0
9, 58548, Note_on_c, 5, 59, 0
9, 58560, Note_on_c, 5, 52, 109
9, 58560, Note_on_c, 5, 55, 99
9, 58608, Note_on_c, 5, 55, 0
9, 58608, Note_on_c, 5, 52, 0
9, 58620, Note_on_c, 5, 48, 127
9, 58620, Note_on_c, 5, 60, 114
9, 58668, Note_on_c, 5, 60, 0
9, 58668, Note_on_c, 5, 48, 0
9, 58680, Note_on_c, 5, 60, 112
9, 58680, Note_on_c, 5, 48, 127
9, 58728, Note_on_c, 5, 48, 0
9, 58728, Note_on_c, 5, 60, 0
9, 58740, Note_on_c, 5, 60, 102
9, 58740, Note_on_c, 5, 48, 127
9, 58788, Note_on_c, 5, 48, 0
9, 58788, Note_on_c, 5, 60, 0
9, 58800, Note_on_c, 5, 53, 121
9, 58800, Note_on_c, 5, 57, 102
9, 58848, Note_on_c, 5, 57, 0
9, 58848, Note_on_c, 5, 53, 0
9, 58860, Note_on_c, 5, 48, 127
9, 58860, Note_on_c, 5, 60, 121
9, 58908, Note_on_c, 5, 60, 0
9, 58908, Note_on_c, 5, 48, 0
9, 58920, Note_on_c, 5, 53, 127
9, 58920, Note_on_c, 5, 57, 103
9, 58968, Note_on_c, 5, 57, 0
9, 58968, Note_on_c, 5, 53, 0
9, 58980, Note_on_c, 5, 48, 127
9, 58980, Note_on_c, 5, 60, 120
9, 59028, Note_on_c, 5, 60, 0
9, 59028, Note_on_c, 5, 48, 0
9, 59040, Note_on_c, 5, 52, 107
9, 59040, Note_on_c, 5, 55, 107
9, 59088, Note_on_c, 5, 55, 0
9, 59088, Note_on_c, 5, 52, 0
9, 59100, Note_on_c, 5, 48, 121
9, 59100, Note_on_c, 5, 60, 109
9, 59148, Note_on_c, 5, 60, 0
9, 59148, Note_on_c, 5, 48, 0
9, 59160, Note_on_c, 5, 52, 121
9, 59160, Note_on_c, 5, 55, 107
9, 59208, Note_on_c, 5, 55, 0
9, 59208, Note_on_c, 5, 52, 0
9, 59220, Note_on_c, 5, 48, 127
9, 59220, Note_on_c, 5, 60, 118
9, 59268, Note_on_c, 5, 60, 0
9, 59268, Note_on_c, 5, 48, 0
9, 59280, Note_on_c, 5, 53, 127
9, 59280, Note_on_c, 5, 55, 109
9, 59328, Note_on_c, 5, 55, 0
9, 59328, Note_on_c, 5, 53, 0
9, 59340, Note_on_c, 5, 50, 127
9, 59340, Note_on_c, 5, 59, 127
9, 59388, Note_on_c, 5, 59, 0
9, 59388, Note_on_c, 5, 50, 0
9, 59400, Note_on_c, 5, 55, 107
9, 59400, Note_on_c, 5, 53, 123
9, 59448, Note_on_c, 5, 53, 0
9, 59448, Note_on_c, 5, 55, 0
9, 59460, Note_on_c, 5, 59, 118
9, 59460, Note_on_c, 5, 50, 127
9, 59508, Note_on_c, 5, 50, 0
9, 59508, Note_on_c, 5, 59, 0
9, 59520, Note_on_c, 5, 52, 125
9, 59520, Note_on_c, 5, 60, 121
9, 59552, Note_on_c, 5, 60, 0
9, 59552, Note_on_c, 5, 52, 0
9, 59560, Note_on_c, 5, 67, 123
9, 59560, Note_on_c, 5, 64, 114
9, 59592, Note_on_c, 5, 64, 0
9, 59592, Note_on_c, 5, 67, 0
9, 59600, Note_on_c, 5, 64, 112
9, 59600, Note_on_c, 5, 67, 113
9, 59632, Note_on_c, 5, 67, 0
9, 59632, Note_on_c, 5, 64, 0
9, 59640, Note_on_c, 5, 64, 116
9, 59640, Note_on_c, 5, 67, 116
9, 59672, Note_on_c, 5, 67, 0
9, 59672, Note_on_c, 5, 64, 0
9, 59680, Note_on_c, 5, 65, 113
9, 59680, Note_on_c, 5, 62, 105
9, 59712, Note_on_c, 5, 62, 0
9, 59712, Note_on_c, 5, 65, 0
9, 59720, Note_on_c, 5, 64, 110
9, 59720, Note_on_c, 5, 60, 112
9, 59752, Note_on_c, 5, 60, 0
9, 59752, Note_on_c, 5, 64, 0
9, 59760, Note_on_c, 5, 72, 99
9, 59760, Note_on_c, 5, 69, 106
9, 59792, Note_on_c, 5, 69, 0
9, 59792, Note_on_c, 5, 72, 0
9, 59800, Note_on_c, 5, 72, 113
9, 59800, Note_on_c, 5, 69, 114
9, 59832, Note_on_c, 5, 69, 0
9, 59832, Note_on_c, 5, 72, 0
9, 59840, Note_on_c, 5, 72, 112
9, 59840, Note_on_c, 5, 69, 118
9, 59872, Note_on_c, 5, 69, 0
9, 59872, Note_on_c, 5, 72, 0
9, 59880, Note_on_c, 5, 69, 109
9, 59880, Note_on_c, 5, 65, 105
9, 59912, Note_on_c, 5, 65, 0
9, 59912, Note_on_c, 5, 69, 0
9, 59920, Note_on_c, 5, 65, 103
9, 59920, Note_on_c, 5, 69, 116
9, 59952, Note_on_c, 5, 69, 0
9, 59952, Note_on_c, 5, 65, 0
9, 59960, Note_on_c, 5, 69, 121
9, 59960, Note_on_c, 5, 65, 109
9, 59992, Note_on_c, 5, 65, 0
9, 59992, Note_on_c, 5, 69, 0
9, 60000, Note_on_c, 5, 67, 107
9, 60000, Note_on_c, 5, 64, 107
9, 60032, Note_on_c, 5, 64, 0
9, 60032, Note_on_c, 5, 67, 0
9, 60040, Note_on_c, 5, 67, 114
9, 60040, Note_on_c, 5, 64, 106
9, 60072, Note_on_c, 5, 64, 0
9, 60072, Note_on_c, 5, 67, 0
9, 60080, Note_on_c, 5, 67, 120
9, 60080, Note_on_c, 5, 64, 107
9, 60112, Note_on_c, 5, 64, 0
9, 60112, Note_on_c, 5, 67, 0
9, 60120, Note_on_c, 5, 64, 125
9, 60120, Note_on_c, 5, 60, 105
9, 60152, Note_on_c, 5, 60, 0
9, 60152, Note_on_c, 5, 64, 0
9, 60160, Note_on_c, 5, 64, 117
9, 60160, Note_on_c, 5, 60, 110
9, 60192, Note_on_c, 5, 60, 0
9, 60192, Note_on_c, 5, 64, 0
9, 60200, Note_on_c, 5, 64, 110
9, 60200, Note_on_c, 5, 60, 104
9, 60232, Note_on_c, 5, 60, 0
9, 60232, Note_on_c, 5, 64, 0
9, 60240, Note_on_c, 5, 62, 120
9, 60240, Note_on_c, 5, 53, 127
9, 60272, Note_on_c, 5, 53, 0
9, 60272, Note_on_c, 5, 62, 0
9, 60280, Note_on_c, 5, 53, 127
9, 60280, Note_on_c, 5, 62, 123
9, 60312, Note_on_c, 5, 62, 0
9, 60312, Note_on_c, 5, 53, 0
9, 60320, Note_on_c, 5, 62, 109
9, 60320, Note_on_c, 5, 53, 127
9, 60352, Note_on_c, 5, 53, 0
9, 60352, Note_on_c, 5, 62, 0
9, 60360, Note_on_c, 5, 53, 125
9, 60360, Note_on_c, 5, 62, 104
9, 60392, Note_on_c, 5, 62, 0
9, 60392, Note_on_c, 5, 53, 0
9, 60400, Note_on_c, 5, 60, 127
9, 60400, Note_on_c, 5, 52, 114
9, 60432, Note_on_c, 5, 52, 0
9, 60432, Note_on_c, 5, 60, 0
9, 60440, Note_on_c, 5, 53, 127
9, 60440, Note_on_c, 5, 62, 127
9, 60472, Note_on_c, 5, 62, 0
9, 60472, Note_on_c, 5, 53, 0
9, 60480, Note_on_c, 5, 48, 127
9, 60512, Note_on_c, 5, 48, 0
9, 60520, Note_on_c, 5, 48, 123
9, 60552, Note_on_c, 5, 48, 0
9, 60560, Note_on_c, 5, 48, 127
9, 60592, Note_on_c, 5, 48, 0
9, 60600, Note_on_c, 5, 48, 106
9, 60992, Note_on_c, 5, 48, 0
9, 61000, Note_on_c, 5, 48, 123
9, 61032, Note_on_c, 5, 48, 0
9, 61040, Note_on_c, 5, 48, 127
9, 61072, Note_on_c, 5, 48, 0
9, 61080, Note_on_c, 5, 48, 117
9, 61472, Note_on_c, 5, 48, 0
9, 61480, Note_on_c, 5, 48, 127
9, 61512, Note_on_c, 5, 48, 0
9, 61520, Note_on_c, 5, 48, 123
9, 61552, Note_on_c, 5, 48, 0
9, 61560, Note_on_c, 5, 48, 120
9, 61952, Note_on_c, 5, 48, 0
9, 61960, Note_on_c, 5, 48, 127
9, 61992, Note_on_c, 5, 48, 0
9, 62000, Note_on_c, 5, 48, 127
9, 62032, Note_on_c, 5, 48, 0
9, 62040, Note_on_c, 5, 48, 127
9, 62432, Note_on_c, 5, 48, 0
9, 62440, Note_on_c, 5, 48, 127
9, 62472, Note_on_c, 5, 48, 0
9, 62480, Note_on_c, 5, 48, 127
9, 62512, Note_on_c, 5, 48, 0
9, 62520, Note_on_c, 5, 48, 127
9, 62672, Note_on_c, 5, 48, 0
9, 62680, Note_on_c, 5, 48, 127
9, 62712, Note_on_c, 5, 48, 0
9, 62720, Note_on_c, 5, 48, 127
9, 62752, Note_on_c, 5, 48, 0
9, 62760, Note_on_c, 5, 48, 127
9, 62912, Note_on_c, 5, 48, 0
9, 62920, Note_on_c, 5, 48, 127
9, 62952, Note_on_c, 5, 48, 0
9, 62960, Note_on_c, 5, 48, 127
9, 62992, Note_on_c, 5, 48, 0
9, 63000, Note_on_c, 5, 48, 127
9, 63152, Note_on_c, 5, 48, 0
9, 63160, Note_on_c, 5, 48, 117
9, 63192, Note_on_c, 5, 48, 0
9, 63200, Note_on_c, 5, 48, 125
9, 63232, Note_on_c, 5, 48, 0
9, 63240, Note_on_c, 5, 48, 127
9, 63408, Note_on_c, 5, 48, 0
9, 64320, Note_on_c, 5, 48, 127
9, 64368, Note_on_c, 5, 48, 0
9, 64380, Note_on_c, 5, 55, 108
9, 64404, Note_on_c, 5, 55, 0
9, 64410, Note_on_c, 5, 52, 127
9, 64434, Note_on_c, 5, 52, 0
9, 64440, Note_on_c, 5, 48, 96
9, 64488, Note_on_c, 5, 48, 0
9, 64500, Note_on_c, 5, 55, 113
9, 64524, Note_on_c, 5, 55, 0
9, 64530, Note_on_c, 5, 52, 116
9, 64554, Note_on_c, 5, 52, 0
9, 64560, Note_on_c, 5, 48, 127
9, 64608, Note_on_c, 5, 48, 0
9, 64620, Note_on_c, 5, 55, 116
9, 64644, Note_on_c, 5, 55, 0
9, 64650, Note_on_c, 5, 52, 127
9, 64674, Note_on_c, 5, 52, 0
9, 64680, Note_on_c, 5, 48, 120
9, 64728, Note_on_c, 5, 48, 0
9, 64740, Note_on_c, 5, 55, 116
9, 64764, Note_on_c, 5, 55, 0
9, 64770, Note_on_c, 5, 52, 120
9, 64794, Note_on_c, 5, 52, 0
9, 64800, Note_on_c, 5, 48, 127
9, 64848, Note_on_c, 5, 48, 0
9, 64860, Note_on_c, 5, 55, 108
9, 64884, Note_on_c, 5, 55, 0
9, 64890, Note_on_c, 5, 52, 117
9, 64914, Note_on_c, 5, 52, 0
9, 64920, Note_on_c, 5, 48, 101
9, 64968, Note_on_c, 5, 48, 0
9, 64980, Note_on_c, 5, 55, 105
9, 65004, Note_on_c, 5, 55, 0
9, 65010, Note_on_c, 5, 52, 109
9, 65034, Note_on_c, 5, 52, 0
9, 65040, Note_on_c, 5, 48, 110
9, 65088, Note_on_c, 5, 48, 0
9, 65100, Note_on_c, 5, 55, 101
9, 65124, Note_on_c, 5, 55, 0
9, 65130, Note_on_c, 5, 52, 114
9, 65154, Note_on_c, 5, 52, 0
9, 65160, Note_on_c, 5, 48, 123
9, 65208, Note_on_c, 5, 48, 0
9, 65220, Note_on_c, 5, 55, 108
9, 65244, Note_on_c, 5, 55, 0
9, 65250, Note_on_c, 5, 52, 127
9, 65274, Note_on_c, 5, 52, 0
9, 65280, Note_on_c, 5, 48, 120
9, 65328, Note_on_c, 5, 48, 0
9, 66060, Note_on_c, 5, 57, 127
9, 66108, Note_on_c, 5, 57, 0
9, 66120, Note_on_c, 5, 58, 95
9, 66168, Note_on_c, 5, 58, 0
9, 66180, Note_on_c, 5, 62, 113
9, 66228, Note_on_c, 5, 62, 0
9, 66240, Note_on_c, 5, 55, 96
9, 67152, Note_on_c, 5, 55, 0
9, 67260, Note_on_c, 5, 53, 97
9, 67308, Note_on_c, 5, 53, 0
9, 67320, Note_on_c, 5, 55, 127
9, 67368, Note_on_c, 5, 55, 0
9, 67380, Note_on_c, 5, 58, 81
9, 67428, Note_on_c, 5, 58, 0
9, 67440, Note_on_c, 5, 57, 116
9, 67488, Note_on_c, 5, 57, 0
9, 67500, Note_on_c, 5, 57, 121
9, 67548, Note_on_c, 5, 57, 0
9, 67560, Note_on_c, 5, 58, 100
9, 67608, Note_on_c, 5, 58, 0
9, 67620, Note_on_c, 5, 62, 100
9, 67668, Note_on_c, 5, 62, 0
9, 67680, Note_on_c, 5, 60, 111
9, 67728, Note_on_c, 5, 60, 0
9, 67740, Note_on_c, 5, 60, 118
9, 67788, Note_on_c, 5, 60, 0
9, 67800, Note_on_c, 5, 62, 104
9, 67848, Note_on_c, 5, 62, 0
9, 67860, Note_on_c, 5, 65, 103
9, 67908, Note_on_c, 5, 65, 0
9, 67920, Note_on_c, 5, 63, 91
9, 67968, Note_on_c, 5, 63, 0
9, 67980, Note_on_c, 5, 62, 105
9, 68028, Note_on_c, 5, 62, 0
9, 68040, Note_on_c, 5, 63, 99
9, 68088, Note_on_c, 5, 63, 0
9, 68100, Note_on_c, 5, 67, 84
9, 68148, Note_on_c, 5, 67, 0
9, 68580, Note_on_c, 5, 53, 50
9, 68628, Note_on_c, 5, 53, 0
9, 69060, Note_on_c, 5, 53, 102
9, 69108, Note_on_c, 5, 53, 0
9, 69120, Note_on_c, 5, 53, 98
9, 69152, Note_on_c, 5, 53, 0
9, 69160, Note_on_c, 5, 62, 107
9, 69192, Note_on_c, 5, 62, 0
9, 69200, Note_on_c, 5, 58, 118
9, 69232, Note_on_c, 5, 58, 0
9, 69240, Note_on_c, 5, 65, 107
9, 69272, Note_on_c, 5, 65, 0
9, 69280, Note_on_c, 5, 62, 121
9, 69312, Note_on_c, 5, 62, 0
9, 69320, Note_on_c, 5, 58, 100
9, 69352, Note_on_c, 5, 58, 0
9, 69360, Note_on_c, 5, 53, 98
9, 69392, Note_on_c, 5, 53, 0
9, 69400, Note_on_c, 5, 62, 107
9, 69432, Note_on_c, 5, 62, 0
9, 69440, Note_on_c, 5, 58, 118
9, 69472, Note_on_c, 5, 58, 0
9, 69480, Note_on_c, 5, 65, 107
9, 69512, Note_on_c, 5, 65, 0
9, 69520, Note_on_c, 5, 62, 121
9, 69552, Note_on_c, 5, 62, 0
9, 69560, Note_on_c, 5, 58, 100
9, 69592, Note_on_c, 5, 58, 0
9, 69600, Note_on_c, 5, 53, 98
9, 69632, Note_on_c, 5, 53, 0
9, 69640, Note_on_c, 5, 62, 107
9, 69672, Note_on_c, 5, 62, 0
9, 69680, Note_on_c, 5, 58, 118
9, 69712, Note_on_c, 5, 58, 0
9, 69720, Note_on_c, 5, 65, 107
9, 69752, Note_on_c, 5, 65, 0
9, 69760, Note_on_c, 5, 62, 121
9, 69792, Note_on_c, 5, 62, 0
9, 69800, Note_on_c, 5, 58, 100
9, 69832, Note_on_c, 5, 58, 0
9, 69840, Note_on_c, 5, 53, 98
9, 69872, Note_on_c, 5, 53, 0
9, 69880, Note_on_c, 5, 62, 107
9, 69912, Note_on_c, 5, 62, 0
9, 69920, Note_on_c, 5, 58, 118
9, 69952, Note_on_c, 5, 58, 0
9, 69960, Note_on_c, 5, 65, 107
9, 69992, Note_on_c, 5, 65, 0
9, 70000, Note_on_c, 5, 62, 121
9, 70032, Note_on_c, 5, 62, 0
9, 70040, Note_on_c, 5, 58, 100
9, 70072, Note_on_c, 5, 58, 0
9, 70080, Note_on_c, 5, 53, 98
9, 70112, Note_on_c, 5, 53, 0
9, 70120, Note_on_c, 5, 62, 107
9, 70152, Note_on_c, 5, 62, 0
9, 70160, Note_on_c, 5, 58, 118
9, 70192, Note_on_c, 5, 58, 0
9, 70200, Note_on_c, 5, 65, 107
9, 70232, Note_on_c, 5, 65, 0
9, 70240, Note_on_c, 5, 62, 121
9, 70272, Note_on_c, 5, 62, 0
9, 70280, Note_on_c, 5, 58, 100
9, 70312, Note_on_c, 5, 58, 0
9, 70320, Note_on_c, 5, 53, 98
9, 70352, Note_on_c, 5, 53, 0
9, 70360, Note_on_c, 5, 62, 107
9, 70392, Note_on_c, 5, 62, 0
9, 70400, Note_on_c, 5, 58, 118
9, 70432, Note_on_c, 5, 58, 0
9, 70440, Note_on_c, 5, 65, 107
9, 70472, Note_on_c, 5, 65, 0
9, 70480, Note_on_c, 5, 62, 121
9, 70512, Note_on_c, 5, 62, 0
9, 70520, Note_on_c, 5, 58, 100
9, 70552, Note_on_c, 5, 58, 0
9, 70560, Note_on_c, 5, 53, 98
9, 70592, Note_on_c, 5, 53, 0
9, 70600, Note_on_c, 5, 62, 107
9, 70632, Note_on_c, 5, 62, 0
9, 70640, Note_on_c, 5, 58, 118
9, 70672, Note_on_c, 5, 58, 0
9, 70680, Note_on_c, 5, 65, 107
9, 70712, Note_on_c, 5, 65, 0
9, 70720, Note_on_c, 5, 62, 121
9, 70752, Note_on_c, 5, 62, 0
9, 70760, Note_on_c, 5, 58, 100
9, 70792, Note_on_c, 5, 58, 0
9, 70800, Note_on_c, 5, 53, 98
9, 70832, Note_on_c, 5, 53, 0
9, 70840, Note_on_c, 5, 62, 107
9, 70872, Note_on_c, 5, 62, 0
9, 70880, Note_on_c, 5, 58, 118
9, 70912, Note_on_c, 5, 58, 0
9, 70920, Note_on_c, 5, 65, 107
9, 70952, Note_on_c, 5, 65, 0
9, 70960, Note_on_c, 5, 62, 121
9, 70992, Note_on_c, 5, 62, 0
9, 71000, Note_on_c, 5, 58, 100
9, 71032, Note_on_c, 5, 58, 0
9, 71040, Note_on_c, 5, 53, 98
9, 71072, Note_on_c, 5, 53, 0
9, 71080, Note_on_c, 5, 62, 107
9, 71112, Note_on_c, 5, 62, 0
9, 71120, Note_on_c, 5, 58, 118
9, 71152, Note_on_c, 5, 58, 0
9, 71160, Note_on_c, 5, 65, 107
9, 71192, Note_on_c, 5, 65, 0
9, 71200, Note_on_c, 5, 62, 121
9, 71232, Note_on_c, 5, 62, 0
9, 71240, Note_on_c, 5, 58, 100
9, 71272, Note_on_c, 5, 58, 0
9, 71280, Note_on_c, 5, 53, 98
9, 71312, Note_on_c, 5, 53, 0
9, 71320, Note_on_c, 5, 62, 107
9, 71352, Note_on_c, 5, 62, 0
9, 71360, Note_on_c, 5, 58, 118
9, 71392, Note_on_c, 5, 58, 0
9, 71400, Note_on_c, 5, 65, 107
9, 71432, Note_on_c, 5, 65, 0
9, 71440, Note_on_c, 5, 62, 121
9, 71472, Note_on_c, 5, 62, 0
9, 71480, Note_on_c, 5, 58, 100
9, 71512, Note_on_c, 5, 58, 0
9, 71520, Note_on_c, 5, 53, 98
9, 71552, Note_on_c, 5, 53, 0
9, 71560, Note_on_c, 5, 62, 107
9, 71592, Note_on_c, 5, 62, 0
9, 71600, Note_on_c, 5, 58, 118
9, 71632, Note_on_c, 5, 58, 0
9, 71640, Note_on_c, 5, 65, 107
9, 71672, Note_on_c, 5, 65, 0
9, 71680, Note_on_c, 5, 62, 121
9, 71712, Note_on_c, 5, 62, 0
9, 71720, Note_on_c, 5, 58, 100
9, 71752, Note_on_c, 5, 58, 0
9, 71760, Note_on_c, 5, 53, 98
9, 71792, Note_on_c, 5, 53, 0
9, 71800, Note_on_c, 5, 62, 107
9, 71832, Note_on_c, 5, 62, 0
9, 71840, Note_on_c, 5, 58, 118
9, 71872, Note_on_c, 5, 58, 0
9, 71880, Note_on_c, 5, 65, 107
9, 71912, Note_on_c, 5, 65, 0
9, 71920, Note_on_c, 5, 62, 121
9, 71952, Note_on_c, 5, 62, 0
9, 71960, Note_on_c, 5, 58, 100
9, 71992, Note_on_c, 5, 58, 0
9, 72000, Note_on_c, 5, 57, 112
9, 72032, Note_on_c, 5, 57, 0
9, 72040, Note_on_c, 5, 66, 94
9, 72072, Note_on_c, 5, 66, 0
9, 72080, Note_on_c, 5, 62, 125
9, 72112, Note_on_c, 5, 62, 0
9, 72120, Note_on_c, 5, 69, 107
9, 72152, Note_on_c, 5, 69, 0
9, 72160, Note_on_c, 5, 66, 105
9, 72192, Note_on_c, 5, 66, 0
9, 72200, Note_on_c, 5, 62, 107
9, 72232, Note_on_c, 5, 62, 0
9, 72240, Note_on_c, 5, 57, 112
9, 72272, Note_on_c, 5, 57, 0
9, 72280, Note_on_c, 5, 66, 94
9, 72312, Note_on_c, 5, 66, 0
9, 72320, Note_on_c, 5, 62, 125
9, 72352, Note_on_c, 5, 62, 0
9, 72360, Note_on_c, 5, 69, 107
9, 72392, Note_on_c, 5, 69, 0
9, 72400, Note_on_c, 5, 66, 105
9, 72432, Note_on_c, 5, 66, 0
9, 72440, Note_on_c, 5, 62, 107
9, 72472, Note_on_c, 5, 62, 0
9, 72480, Note_on_c, 5, 57, 112
9, 72512, Note_on_c, 5, 57, 0
9, 72520, Note_on_c, 5, 66, 94
9, 72552, Note_on_c, 5, 66, 0
9, 72560, Note_on_c, 5, 62, 125
9, 72592, Note_on_c, 5, 62, 0
9, 72600, Note_on_c, 5, 69, 107
9, 72632, Note_on_c, 5, 69, 0
9, 72640, Note_on_c, 5, 66, 105
9, 72672, Note_on_c, 5, 66, 0
9, 72680, Note_on_c, 5, 62, 107
9, 72712, Note_on_c, 5, 62, 0
9, 72720, Note_on_c, 5, 57, 112
9, 72752, Note_on_c, 5, 57, 0
9, 72760, Note_on_c, 5, 66, 94
9, 72792, Note_on_c, 5, 66, 0
9, 72800, Note_on_c, 5, 62, 125
9, 72832, Note_on_c, 5, 62, 0
9, 72840, Note_on_c, 5, 69, 107
9, 72872, Note_on_c, 5, 69, 0
9, 72880, Note_on_c, 5, 66, 105
9, 72912, Note_on_c, 5, 66, 0
9, 72920, Note_on_c, 5, 62, 107
9, 72952, Note_on_c, 5, 62, 0
9, 72960, Note_on_c, 5, 57, 112
9, 72992, Note_on_c, 5, 57, 0
9, 73000, Note_on_c, 5, 66, 94
9, 73032, Note_on_c, 5, 66, 0
9, 73040, Note_on_c, 5, 62, 125
9, 73072, Note_on_c, 5, 62, 0
9, 73080, Note_on_c, 5, 69, 107
9, 73112, Note_on_c, 5, 69, 0
9, 73120, Note_on_c, 5, 66, 105
9, 73152, Note_on_c, 5, 66, 0
9, 73160, Note_on_c, 5, 62, 107
9, 73192, Note_on_c, 5, 62, 0
9, 73200, Note_on_c, 5, 57, 112
9, 73232, Note_on_c, 5, 57, 0
9, 73240, Note_on_c, 5, 66, 94
9, 73272, Note_on_c, 5, 66, 0
9, 73280, Note_on_c, 5, 62, 125
9, 73312, Note_on_c, 5, 62, 0
9, 73320, Note_on_c, 5, 69, 107
9, 73352, Note_on_c, 5, 69, 0
9, 73360, Note_on_c, 5, 66, 105
9, 73392, Note_on_c, 5, 66, 0
9, 73400, Note_on_c, 5, 62, 107
9, 73432, Note_on_c, 5, 62, 0
9, 73440, Note_on_c, 5, 57, 112
9, 73472, Note_on_c, 5, 57, 0
9, 73480, Note_on_c, 5, 66, 94
9, 73512, Note_on_c, 5, 66, 0
9, 73520, Note_on_c, 5, 62, 125
9, 73552, Note_on_c, 5, 62, 0
9, 73560, Note_on_c, 5, 69, 107
9, 73592, Note_on_c, 5, 69, 0
9, 73600, Note_on_c, 5, 66, 105
9, 73632, Note_on_c, 5, 66, 0
9, 73640, Note_on_c, 5, 62, 107
9, 73672, Note_on_c, 5, 62, 0
9, 73680, Note_on_c, 5, 57, 112
9, 73712, Note_on_c, 5, 57, 0
9, 73720, Note_on_c, 5, 66, 94
9, 73752, Note_on_c, 5, 66, 0
9, 73760, Note_on_c, 5, 62, 125
9, 73792, Note_on_c, 5, 62, 0
9, 73800, Note_on_c, 5, 69, 107
9, 73832, Note_on_c, 5, 69, 0
9, 73840, Note_on_c, 5, 66, 105
9, 73872, Note_on_c, 5, 66, 0
9, 73880, Note_on_c, 5, 62, 107
9, 73912, Note_on_c, 5, 62, 0
9, 73920, Note_on_c, 5, 57, 112
9, 73952, Note_on_c, 5, 57, 0
9, 73960, Note_on_c, 5, 66, 94
9, 73992, Note_on_c, 5, 66, 0
9, 74000, Note_on_c, 5, 62, 125
9, 74032, Note_on_c, 5, 62, 0
9, 74040, Note_on_c, 5, 69, 107
9, 74072, Note_on_c, 5, 69, 0
9, 74080, Note_on_c, 5, 66, 105
9, 74112, Note_on_c, 5, 66, 0
9, 74120, Note_on_c, 5, 62, 107
9, 74152, Note_on_c, 5, 62, 0
9, 74160, Note_on_c, 5, 57, 112
9, 74192, Note_on_c, 5, 57, 0
9, 74200, Note_on_c, 5, 66, 94
9, 74232, Note_on_c, 5, 66, 0
9, 74240, Note_on_c, 5, 62, 125
9, 74272, Note_on_c, 5, 62, 0
9, 74280, Note_on_c, 5, 69, 107
9, 74312, Note_on_c, 5, 69, 0
9, 74320, Note_on_c, 5, 66, 105
9, 74352, Note_on_c, 5, 66, 0
9, 74360, Note_on_c, 5, 62, 107
9, 74392, Note_on_c, 5, 62, 0
9, 74400, Note_on_c, 5, 57, 112
9, 74432, Note_on_c, 5, 57, 0
9, 74440, Note_on_c, 5, 66, 94
9, 74472, Note_on_c, 5, 66, 0
9, 74480, Note_on_c, 5, 62, 125
9, 74512, Note_on_c, 5, 62, 0
9, 74520, Note_on_c, 5, 69, 107
9, 74552, Note_on_c, 5, 69, 0
9, 74560, Note_on_c, 5, 66, 105
9, 74592, Note_on_c, 5, 66, 0
9, 74600, Note_on_c, 5, 62, 107
9, 74632, Note_on_c, 5, 62, 0
9, 74640, Note_on_c, 5, 57, 112
9, 74672, Note_on_c, 5, 57, 0
9, 74680, Note_on_c, 5, 66, 94
9, 74712, Note_on_c, 5, 66, 0
9, 74720, Note_on_c, 5, 62, 125
9, 74752, Note_on_c, 5, 62, 0
9, 74760, Note_on_c, 5, 69, 107
9, 74792, Note_on_c, 5, 69, 0
9, 74800, Note_on_c, 5, 66, 105
9, 74832, Note_on_c, 5, 66, 0
9, 74840, Note_on_c, 5, 62, 107
9, 74872, Note_on_c, 5, 62, 0
9, 75840, Note_on_c, 5, 62, 127
9, 75888, Note_on_c, 5, 62, 0
9, 75900, Note_on_c, 5, 57, 116
9, 75924, Note_on_c, 5, 57, 0
9, 75930, Note_on_c, 5, 55, 109
9, 75954, Note_on_c, 5, 55, 0
9, 75960, Note_on_c, 5, 54, 121
9, 76008, Note_on_c, 5, 54, 0
9, 76020, Note_on_c, 5, 50, 127
9, 76068, Note_on_c, 5, 50, 0
9, 76320, Note_on_c, 5, 62, 127
9, 76368, Note_on_c, 5, 62, 0
9, 76380, Note_on_c, 5, 57, 116
9, 76404, Note_on_c, 5, 57, 0
9, 76410, Note_on_c, 5, 55, 109
9, 76434, Note_on_c, 5, 55, 0
9, 76440, Note_on_c, 5, 54, 121
9, 76488, Note_on_c, 5, 54, 0
9, 76500, Note_on_c, 5, 50, 127
9, 76548, Note_on_c, 5, 50, 0
9, 79200, Note_on_c, 5, 67, 114
9, 79392, Note_on_c, 5, 67, 0
9, 79440, Note_on_c, 5, 62, 109
9, 80112, Note_on_c, 5, 62, 0
9, 80160, Note_on_c, 5, 55, 104
9, 80192, Note_on_c, 5, 55, 0
9, 80200, Note_on_c, 5, 62, 67
9, 80232, Note_on_c, 5, 62, 0
9, 80240, Note_on_c, 5, 59, 120
9, 80272, Note_on_c, 5, 59, 0
9, 80280, Note_on_c, 5, 67, 101
9, 80312, Note_on_c, 5, 67, 0
9, 80320, Note_on_c, 5, 62, 105
9, 80352, Note_on_c, 5, 62, 0
9, 80360, Note_on_c, 5, 59, 99
9, 80392, Note_on_c, 5, 59, 0
9, 80400, Note_on_c, 5, 55, 104
9, 80432, Note_on_c, 5, 55, 0
9, 80440, Note_on_c, 5, 62, 67
9, 80472, Note_on_c, 5, 62, 0
9, 80480, Note_on_c, 5, 59, 120
9, 80512, Note_on_c, 5, 59, 0
9, 80520, Note_on_c, 5, 67, 101
9, 80552, Note_on_c, 5, 67, 0
9, 80560, Note_on_c, 5, 62, 105
9, 80592, Note_on_c, 5, 62, 0
9, 80600, Note_on_c, 5, 59, 99
9, 80632, Note_on_c, 5, 59, 0
9, 80640, Note_on_c, 5, 55, 104
9, 80672, Note_on_c, 5, 55, 0
9, 80680, Note_on_c, 5, 62, 67
9, 80712, Note_on_c, 5, 62, 0
9, 80720, Note_on_c, 5, 59, 120
9, 80752, Note_on_c, 5, 59, 0
9, 80760, Note_on_c, 5, 67, 101
9, 80792, Note_on_c, 5, 67, 0
9, 80800, Note_on_c, 5, 62, 105
9, 80832, Note_on_c, 5, 62, 0
9, 80840, Note_on_c, 5, 59, 99
9, 80872, Note_on_c, 5, 59, 0
9, 80880, Note_on_c, 5, 55, 104
9, 80912, Note_on_c, 5, 55, 0
9, 80920, Note_on_c, 5, 62, 67
9, 80952, Note_on_c, 5, 62, 0
9, 80960, Note_on_c, 5, 59, 120
9, 80992, Note_on_c, 5, 59, 0
9, 81000, Note_on_c, 5, 67, 101
9, 81032, Note_on_c, 5, 67, 0
9, 81040, Note_on_c, 5, 62, 105
9, 81072, Note_on_c, 5, 62, 0
9, 81080, Note_on_c, 5, 59, 99
9, 81112, Note_on_c, 5, 59, 0
9, 81120, Note_on_c, 5, 55, 104
9, 81152, Note_on_c, 5, 55, 0
9, 81160, Note_on_c, 5, 62, 67
9, 81192, Note_on_c, 5, 62, 0
9, 81200, Note_on_c, 5, 59, 120
9, 81232, Note_on_c, 5, 59, 0
9, 81240, Note_on_c, 5, 67, 101
9, 81272, Note_on_c, 5, 67, 0
9, 81280, Note_on_c, 5, 62, 105
9, 81312, Note_on_c, 5, 62, 0
9, 81320, Note_on_c, 5, 59, 99
9, 81352, Note_on_c, 5, 59, 0
9, 81360, Note_on_c, 5, 55, 104
9, 81392, Note_on_c, 5, 55, 0
9, 81400, Note_on_c, 5, 62, 67
9, 81432, Note_on_c, 5, 62, 0
9, 81440, Note_on_c, 5, 59, 120
9, 81472, Note_on_c, 5, 59, 0
9, 81480, Note_on_c, 5, 67, 101
9, 81512, Note_on_c, 5, 67, 0
9, 81520, Note_on_c, 5, 62, 105
9, 81552, Note_on_c, 5, 62, 0
9, 81560, Note_on_c, 5, 59, 99
9, 81592, Note_on_c, 5, 59, 0
9, 81600, Note_on_c, 5, 55, 104
9, 81632, Note_on_c, 5, 55, 0
9, 81640, Note_on_c, 5, 62, 67
9, 81672, Note_on_c, 5, 62, 0
9, 81680, Note_on_c, 5, 59, 120
9, 81712, Note_on_c, 5, 59, 0
9, 81720, Note_on_c, 5, 67, 101
9, 81752, Note_on_c, 5, 67, 0
9, 81760, Note_on_c, 5, 62, 105
9, 81792, Note_on_c, 5, 62, 0
9, 81800, Note_on_c, 5, 59, 99
9, 81832, Note_on_c, 5, 59, 0
9, 81840, Note_on_c, 5, 55, 104
9, 81872, Note_on_c, 5, 55, 0
9, 81880, Note_on_c, 5, 62, 67
9, 81912, Note_on_c, 5, 62, 0
9, 81920, Note_on_c, 5, 59, 120
9, 81952, Note_on_c, 5, 59, 0
9, 81960, Note_on_c, 5, 67, 101
9, 81992, Note_on_c, 5, 67, 0
9, 82000, Note_on_c, 5, 62, 105
9, 82032, Note_on_c, 5, 62, 0
9, 82040, Note_on_c, 5, 59, 99
9, 82072, Note_on_c, 5, 59, 0
9, 82080, Note_on_c, 5, 55, 104
9, 82112, Note_on_c, 5, 55, 0
9, 82120, Note_on_c, 5, 62, 67
9, 82152, Note_on_c, 5, 62, 0
9, 82160, Note_on_c, 5, 59, 120
9, 82192, Note_on_c, 5, 59, 0
9, 82200, Note_on_c, 5, 67, 101
9, 82232, Note_on_c, 5, 67, 0
9, 82240, Note_on_c, 5, 62, 105
9, 82272, Note_on_c, 5, 62, 0
9, 82280, Note_on_c, 5, 59, 99
9, 82312, Note_on_c, 5, 59, 0
9, 82320, Note_on_c, 5, 55, 104
9, 82352, Note_on_c, 5, 55, 0
9, 82360, Note_on_c, 5, 62, 67
9, 82392, Note_on_c, 5, 62, 0
9, 82400, Note_on_c, 5, 59, 120
9, 82432, Note_on_c, 5, 59, 0
9, 82440, Note_on_c, 5, 67, 101
9, 82472, Note_on_c, 5, 67, 0
9, 82480, Note_on_c, 5, 62, 105
9, 82512, Note_on_c, 5, 62, 0
9, 82520, Note_on_c, 5, 59, 99
9, 82552, Note_on_c, 5, 59, 0
9, 82560, Note_on_c, 5, 55, 104
9, 82592, Note_on_c, 5, 55, 0
9, 82600, Note_on_c, 5, 62, 67
9, 82632, Note_on_c, 5, 62, 0
9, 82640, Note_on_c, 5, 59, 120
9, 82672, Note_on_c, 5, 59, 0
9, 82680, Note_on_c, 5, 67, 101
9, 82712, Note_on_c, 5, 67, 0
9, 82720, Note_on_c, 5, 62, 105
9, 82752, Note_on_c, 5, 62, 0
9, 82760, Note_on_c, 5, 59, 99
9, 82792, Note_on_c, 5, 59, 0
9, 82800, Note_on_c, 5, 55, 104
9, 82832, Note_on_c, 5, 55, 0
9, 82840, Note_on_c, 5, 62, 67
9, 82872, Note_on_c, 5, 62, 0
9, 82880, Note_on_c, 5, 59, 120
9, 82912, Note_on_c, 5, 59, 0
9, 82920, Note_on_c, 5, 67, 101
9, 82952, Note_on_c, 5, 67, 0
9, 82960, Note_on_c, 5, 62, 105
9, 82992, Note_on_c, 5, 62, 0
9, 83000, Note_on_c, 5, 59, 99
9, 83032, Note_on_c, 5, 59, 0
9, 83040, Note_on_c, 5, 52, 104
9, 83072, Note_on_c, 5, 52, 0
9, 83080, Note_on_c, 5, 64, 102
9, 83112, Note_on_c, 5, 64, 0
9, 83120, Note_on_c, 5, 59, 106
9, 83152, Note_on_c, 5, 59, 0
9, 83160, Note_on_c, 5, 68, 79
9, 83192, Note_on_c, 5, 68, 0
9, 83200, Note_on_c, 5, 64, 50
9, 83232, Note_on_c, 5, 64, 0
9, 83240, Note_on_c, 5, 59, 50
9, 83272, Note_on_c, 5, 59, 0
9, 83280, Note_on_c, 5, 52, 104
9, 83312, Note_on_c, 5, 52, 0
9, 83320, Note_on_c, 5, 64, 102
9, 83352, Note_on_c, 5, 64, 0
9, 83360, Note_on_c, 5, 59, 106
9, 83392, Note_on_c, 5, 59, 0
9, 83400, Note_on_c, 5, 68, 79
9, 83432, Note_on_c, 5, 68, 0
9, 83440, Note_on_c, 5, 64, 50
9, 83472, Note_on_c, 5, 64, 0
9, 83480, Note_on_c, 5, 59, 50
9, 83512, Note_on_c, 5, 59, 0
9, 83520, Note_on_c, 5, 52, 104
9, 83552, Note_on_c, 5, 52, 0
9, 83560, Note_on_c, 5, 64, 102
9, 83592, Note_on_c, 5, 64, 0
9, 83600, Note_on_c, 5, 59, 106
9, 83632, Note_on_c, 5, 59, 0
9, 83640, Note_on_c, 5, 68, 79
9, 83672, Note_on_c, 5, 68, 0
9, 83680, Note_on_c, 5, 64, 50
9, 83712, Note_on_c, 5, 64, 0
9, 83720, Note_on_c, 5, 59, 50
9, 83752, Note_on_c, 5, 59, 0
9, 83760, Note_on_c, 5, 52, 104
9, 83792, Note_on_c, 5, 52, 0
9, 83800, Note_on_c, 5, 64, 102
9, 83832, Note_on_c, 5, 64, 0
9, 83840, Note_on_c, 5, 59, 106
9, 83872, Note_on_c, 5, 59, 0
9, 83880, Note_on_c, 5, 68, 79
9, 83912, Note_on_c, 5, 68, 0
9, 83920, Note_on_c, 5, 64, 50
9, 83952, Note_on_c, 5, 64, 0
9, 83960, Note_on_c, 5, 59, 50
9, 83992, Note_on_c, 5, 59, 0
9, 84000, Note_on_c, 5, 52, 104
9, 84032, Note_on_c, 5, 52, 0
9, 84040, Note_on_c, 5, 64, 102
9, 84072, Note_on_c, 5, 64, 0
9, 84080, Note_on_c, 5, 59, 106
9, 84112, Note_on_c, 5, 59, 0
9, 84120, Note_on_c, 5, 68, 79
9, 84152, Note_on_c, 5, 68, 0
9, 84160, Note_on_c, 5, 64, 50
9, 84192, Note_on_c, 5, 64, 0
9, 84200, Note_on_c, 5, 59, 50
9, 84232, Note_on_c, 5, 59, 0
9, 84240, Note_on_c, 5, 52, 104
9, 84272, Note_on_c, 5, 52, 0
9, 84280, Note_on_c, 5, 64, 102
9, 84312, Note_on_c, 5, 64, 0
9, 84320, Note_on_c, 5, 59, 106
9, 84352, Note_on_c, 5, 59, 0
9, 84360, Note_on_c, 5, 68, 79
9, 84392, Note_on_c, 5, 68, 0
9, 84400, Note_on_c, 5, 64, 50
9, 84432, Note_on_c, 5, 64, 0
9, 84440, Note_on_c, 5, 59, 50
9, 84472, Note_on_c, 5, 59, 0
9, 84480, Note_on_c, 5, 52, 104
9, 84512, Note_on_c, 5, 52, 0
9, 84520, Note_on_c, 5, 64, 102
9, 84552, Note_on_c, 5, 64, 0
9, 84560, Note_on_c, 5, 59, 106
9, 84592, Note_on_c, 5, 59, 0
9, 84600, Note_on_c, 5, 68, 79
9, 84632, Note_on_c, 5, 68, 0
9, 84640, Note_on_c, 5, 64, 50
9, 84672, Note_on_c, 5, 64, 0
9, 84680, Note_on_c, 5, 59, 50
9, 84712, Note_on_c, 5, 59, 0
9, 84720, Note_on_c, 5, 52, 104
9, 84752, Note_on_c, 5, 52, 0
9, 84760, Note_on_c, 5, 64, 102
9, 84792, Note_on_c, 5, 64, 0
9, 84800, Note_on_c, 5, 59, 106
9, 84832, Note_on_c, 5, 59, 0
9, 84840, Note_on_c, 5, 68, 79
9, 84872, Note_on_c, 5, 68, 0
9, 84880, Note_on_c, 5, 64, 50
9, 84912, Note_on_c, 5, 64, 0
9, 84920, Note_on_c, 5, 59, 50
9, 84952, Note_on_c, 5, 59, 0
9, 84960, Note_on_c, 5, 52, 104
9, 84992, Note_on_c, 5, 52, 0
9, 85000, Note_on_c, 5, 64, 102
9, 85032, Note_on_c, 5, 64, 0
9, 85040, Note_on_c, 5, 59, 106
9, 85072, Note_on_c, 5, 59, 0
9, 85080, Note_on_c, 5, 68, 79
9, 85112, Note_on_c, 5, 68, 0
9, 85120, Note_on_c, 5, 64, 50
9, 85152, Note_on_c, 5, 64, 0
9, 85160, Note_on_c, 5, 59, 50
9, 85192, Note_on_c, 5, 59, 0
9, 85200, Note_on_c, 5, 52, 104
9, 85232, Note_on_c, 5, 52, 0
9, 85240, Note_on_c, 5, 64, 102
9, 85272, Note_on_c, 5, 64, 0
9, 85280, Note_on_c, 5, 59, 106
9, 85312, Note_on_c, 5, 59, 0
9, 85320, Note_on_c, 5, 68, 79
9, 85352, Note_on_c, 5, 68, 0
9, 85360, Note_on_c, 5, 64, 50
9, 85392, Note_on_c, 5, 64, 0
9, 85400, Note_on_c, 5, 59, 50
9, 85432, Note_on_c, 5, 59, 0
9, 85440, Note_on_c, 5, 52, 104
9, 85472, Note_on_c, 5, 52, 0
9, 85480, Note_on_c, 5, 64, 102
9, 85512, Note_on_c, 5, 64, 0
9, 85520, Note_on_c, 5, 59, 106
9, 85552, Note_on_c, 5, 59, 0
9, 85560, Note_on_c, 5, 68, 79
9, 85592, Note_on_c, 5, 68, 0
9, 85600, Note_on_c, 5, 64, 50
9, 85632, Note_on_c, 5, 64, 0
9, 85640, Note_on_c, 5, 59, 50
9, 85672, Note_on_c, 5, 59, 0
9, 85680, Note_on_c, 5, 52, 104
9, 85712, Note_on_c, 5, 52, 0
9, 85720, Note_on_c, 5, 64, 102
9, 85752, Note_on_c, 5, 64, 0
9, 85760, Note_on_c, 5, 59, 106
9, 85792, Note_on_c, 5, 59, 0
9, 85800, Note_on_c, 5, 68, 79
9, 85832, Note_on_c, 5, 68, 0
9, 85840, Note_on_c, 5, 64, 50
9, 85872, Note_on_c, 5, 64, 0
9, 85880, Note_on_c, 5, 59, 50
9, 85912, Note_on_c, 5, 59, 0
9, 86880, Note_on_c, 5, 64, 127
9, 86928, Note_on_c, 5, 64, 0
9, 86940, Note_on_c, 5, 59, 116
9, 86964, Note_on_c, 5, 59, 0
9, 86970, Note_on_c, 5, 57, 109
9, 86994, Note_on_c, 5, 57, 0
9, 87000, Note_on_c, 5, 56, 121
9, 87048, Note_on_c, 5, 56, 0
9, 87060, Note_on_c, 5, 52, 127
9, 87108, Note_on_c, 5, 52, 0
9, 87360, Note_on_c, 5, 64, 127
9, 87408, Note_on_c, 5, 64, 0
9, 87420, Note_on_c, 5, 59, 116
9, 87444, Note_on_c, 5, 59, 0
9, 87450, Note_on_c, 5, 57, 109
9, 87474, Note_on_c, 5, 57, 0
9, 87480, Note_on_c, 5, 56, 121
9, 87528, Note_on_c, 5, 56, 0
9, 87540, Note_on_c, 5, 52, 127
9, 87588, Note_on_c, 5, 52, 0
9, 90240, Note_on_c, 5, 69, 114
9, 90432, Note_on_c, 5, 69, 0
9, 90480, Note_on_c, 5, 64, 109
9, 91152, Note_on_c, 5, 64, 0
9, 91200, Note_on_c, 5, 57, 101
9, 91632, Note_on_c, 5, 57, 0
9, 91680, Note_on_c, 5, 50, 104
9, 91776, Note_on_c, 5, 50, 0
9, 91800, Note_on_c, 5, 57, 113
9, 91896, Note_on_c, 5, 57, 0
9, 91920, Note_on_c, 5, 52, 110
9, 92112, Note_on_c, 5, 52, 0
9, 92160, Note_on_c, 5, 49, 94
9, 92256, Note_on_c, 5, 49, 0
9, 92280, Note_on_c, 5, 52, 116
9, 92376, Note_on_c, 5, 52, 0
9, 92400, Note_on_c, 5, 50, 104
9, 92544, Note_on_c, 5, 50, 0
9, 92580, Note_on_c, 5, 49, 103
9, 92628, Note_on_c, 5, 49, 0
9, 92640, Note_on_c, 5, 54, 96
9, 92736, Note_on_c, 5, 54, 0
9, 92760, Note_on_c, 5, 52, 101
9, 92856, Note_on_c, 5, 52, 0
9, 92880, Note_on_c, 5, 50, 107
9, 92928, Note_on_c, 5, 50, 0
9, 92940, Note_on_c, 5, 50, 123
9, 92964, Note_on_c, 5, 50, 0
9, 92970, Note_on_c, 5, 52, 123
9, 92994, Note_on_c, 5, 52, 0
9, 93000, Note_on_c, 5, 54, 95
9, 93048, Note_on_c, 5, 54, 0
9, 93060, Note_on_c, 5, 50, 121
9, 93108, Note_on_c, 5, 50, 0
9, 93120, Note_on_c, 5, 52, 103
9, 93216, Note_on_c, 5, 52, 0
9, 93240, Note_on_c, 5, 55, 96
9, 93336, Note_on_c, 5, 55, 0
9, 93360, Note_on_c, 5, 54, 87
9, 93504, Note_on_c, 5, 54, 0
9, 93540, Note_on_c, 5, 52, 108
9, 93588, Note_on_c, 5, 52, 0
9, 93600, Note_on_c, 5, 57, 105
9, 93696, Note_on_c, 5, 57, 0
9, 93720, Note_on_c, 5, 55, 121
9, 93816, Note_on_c, 5, 55, 0
9, 93840, Note_on_c, 5, 54, 96
9, 93888, Note_on_c, 5, 54, 0
9, 93900, Note_on_c, 5, 54, 92
9, 93924, Note_on_c, 5, 54, 0
9, 93930, Note_on_c, 5, 55, 112
9, 93954, Note_on_c, 5, 55, 0
9, 93960, Note_on_c, 5, 57, 101
9, 94008, Note_on_c, 5, 57, 0
9, 94020, Note_on_c, 5, 55, 123
9, 94068, Note_on_c, 5, 55, 0
9, 95040, Note_on_c, 5, 50, 99
9, 95064, Note_on_c, 5, 50, 0
9, 95070, Note_on_c, 5, 57, 114
9, 95094, Note_on_c, 5, 57, 0
9, 95100, Note_on_c, 5, 60, 106
9, 95124, Note_on_c, 5, 60, 0
9, 95130, Note_on_c, 5, 57, 120
9, 95154, Note_on_c, 5, 57, 0
9, 95160, Note_on_c, 5, 50, 121
9, 95184, Note_on_c, 5, 50, 0
9, 95190, Note_on_c, 5, 54, 118
9, 95214, Note_on_c, 5, 54, 0
9, 95220, Note_on_c, 5, 57, 105
9, 95244, Note_on_c, 5, 57, 0
9, 95250, Note_on_c, 5, 54, 90
9, 95274, Note_on_c, 5, 54, 0
9, 95280, Note_on_c, 5, 50, 110
9, 95304, Note_on_c, 5, 50, 0
9, 95310, Note_on_c, 5, 55, 110
9, 95334, Note_on_c, 5, 55, 0
9, 95340, Note_on_c, 5, 58, 96
9, 95364, Note_on_c, 5, 58, 0
9, 95370, Note_on_c, 5, 55, 127
9, 95394, Note_on_c, 5, 55, 0
9, 95400, Note_on_c, 5, 50, 103
9, 95424, Note_on_c, 5, 50, 0
9, 95430, Note_on_c, 5, 57, 116
9, 95454, Note_on_c, 5, 57, 0
9, 95460, Note_on_c, 5, 60, 98
9, 95484, Note_on_c, 5, 60, 0
9, 95490, Note_on_c, 5, 57, 123
9, 95514, Note_on_c, 5, 57, 0
9, 95520, Note_on_c, 5, 50, 107
9, 95544, Note_on_c, 5, 50, 0
9, 95550, Note_on_c, 5, 55, 125
9, 95574, Note_on_c, 5, 55, 0
9, 95580, Note_on_c, 5, 59, 78
9, 95604, Note_on_c, 5, 59, 0
9, 95610, Note_on_c, 5, 55, 127
9, 95634, Note_on_c, 5, 55, 0
9, 95640, Note_on_c, 5, 52, 104
9, 95664, Note_on_c, 5, 52, 0
9, 95670, Note_on_c, 5, 55, 127
9, 95694, Note_on_c, 5, 55, 0
9, 95700, Note_on_c, 5, 60, 107
9, 95724, Note_on_c, 5, 60, 0
9, 95730, Note_on_c, 5, 55, 105
9, 95754, Note_on_c, 5, 55, 0
9, 95760, Note_on_c, 5, 53, 104
9, 95784, Note_on_c, 5, 53, 0
9, 95790, Note_on_c, 5, 55, 109
9, 95814, Note_on_c, 5, 55, 0
9, 95820, Note_on_c, 5, 62, 104
9, 95844, Note_on_c, 5, 62, 0
9, 95850, Note_on_c, 5, 55, 127
9, 95874, Note_on_c, 5, 55, 0
9, 95880, Note_on_c, 5, 53, 117
9, 95904, Note_on_c, 5, 53, 0
9, 95910, Note_on_c, 5, 55, 123
9, 95934, Note_on_c, 5, 55, 0
9, 95940, Note_on_c, 5, 53, 117
9, 95964, Note_on_c, 5, 53, 0
9, 95970, Note_on_c, 5, 55, 125
9, 95994, Note_on_c, 5, 55, 0
9, 96000, Note_on_c, 5, 64, 111
9, 96096, Note_on_c, 5, 64, 0
9, 96120, Note_on_c, 5, 67, 121
9, 96216, Note_on_c, 5, 67, 0
9, 96240, Note_on_c, 5, 65, 110
9, 96384, Note_on_c, 5, 65, 0
9, 96420, Note_on_c, 5, 64, 113
9, 96468, Note_on_c, 5, 64, 0
9, 96480, Note_on_c, 5, 69, 120
9, 96576, Note_on_c, 5, 69, 0
9, 96600, Note_on_c, 5, 67, 101
9, 96696, Note_on_c, 5, 67, 0
9, 96720, Note_on_c, 5, 64, 127
9, 96768, Note_on_c, 5, 64, 0
9, 96780, Note_on_c, 5, 65, 127
9, 96804, Note_on_c, 5, 65, 0
9, 96810, Note_on_c, 5, 67, 117
9, 96834, Note_on_c, 5, 67, 0
9, 96840, Note_on_c, 5, 69, 98
9, 96888, Note_on_c, 5, 69, 0
9, 96900, Note_on_c, 5, 65, 105
9, 96948, Note_on_c, 5, 65, 0
9, 96960, Note_on_c, 5, 67, 111
9, 97056, Note_on_c, 5, 67, 0
9, 97080, Note_on_c, 5, 70, 111
9, 97176, Note_on_c, 5, 70, 0
9, 97200, Note_on_c, 5, 69, 112
9, 97344, Note_on_c, 5, 69, 0
9, 97380, Note_on_c, 5, 67, 100
9, 97428, Note_on_c, 5, 67, 0
9, 97440, Note_on_c, 5, 72, 105
9, 97552, Note_on_c, 5, 72, 0
9, 97560, Note_on_c, 5, 70, 85
9, 97672, Note_on_c, 5, 70, 0
9, 97680, Note_on_c, 5, 69, 113
9, 97728, Note_on_c, 5, 69, 0
9, 97740, Note_on_c, 5, 69, 120
9, 97764, Note_on_c, 5, 69, 0
9, 97770, Note_on_c, 5, 70, 103
9, 97794, Note_on_c, 5, 70, 0
9, 97800, Note_on_c, 5, 72, 102
9, 97848, Note_on_c, 5, 72, 0
9, 97860, Note_on_c, 5, 69, 101
9, 97908, Note_on_c, 5, 69, 0
9, 97920, Note_on_c, 5, 74, 105
9, 98016, Note_on_c, 5, 74, 0
9, 98040, Note_on_c, 5, 72, 104
9, 98136, Note_on_c, 5, 72, 0
9, 98160, Note_on_c, 5, 70, 103
9, 98208, Note_on_c, 5, 70, 0
9, 98220, Note_on_c, 5, 67, 104
9, 98244, Note_on_c, 5, 67, 0
9, 98250, Note_on_c, 5, 69, 109
9, 98274, Note_on_c, 5, 69, 0
9, 98280, Note_on_c, 5, 70, 109
9, 98328, Note_on_c, 5, 70, 0
9, 98340, Note_on_c, 5, 72, 125
9, 98388, Note_on_c, 5, 72, 0
9, 98400, Note_on_c, 5, 74, 114
9, 98496, Note_on_c, 5, 74, 0
9, 98520, Note_on_c, 5, 72, 108
9, 98616, Note_on_c, 5, 72, 0
9, 98640, Note_on_c, 5, 70, 105
9, 98688, Note_on_c, 5, 70, 0
9, 98700, Note_on_c, 5, 67, 100
9, 98724, Note_on_c, 5, 67, 0
9, 98730, Note_on_c, 5, 69, 118
9, 98754, Note_on_c, 5, 69, 0
9, 98760, Note_on_c, 5, 70, 105
9, 98808, Note_on_c, 5, 70, 0
9, 98820, Note_on_c, 5, 72, 118
9, 98868, Note_on_c, 5, 72, 0
9, 98880, Note_on_c, 5, 74, 106
9, 98928, Note_on_c, 5, 74, 0
9, 99180, Note_on_c, 5, 53, 109
9, 99204, Note_on_c, 5, 53, 0
9, 99210, Note_on_c, 5, 55, 114
9, 99234, Note_on_c, 5, 55, 0
9, 99240, Note_on_c, 5, 57, 103
9, 99264, Note_on_c, 5, 57, 0
9, 99270, Note_on_c, 5, 58, 113
9, 99318, Note_on_c, 5, 58, 0
9, 99330, Note_on_c, 5, 60, 118
9, 99360, Note_on_c, 5, 62, 111
9, 99378, Note_on_c, 5, 60, 0
9, 99408, Note_on_c, 5, 62, 0
9, 99660, Note_on_c, 5, 53, 102
9, 99684, Note_on_c, 5, 53, 0
9, 99690, Note_on_c, 5, 55, 116
9, 99714, Note_on_c, 5, 55, 0
9, 99720, Note_on_c, 5, 57, 127
9, 99768, Note_on_c, 5, 57, 0
9, 99780, Note_on_c, 5, 58, 111
9, 99828, Note_on_c, 5, 58, 0
9, 99840, Note_on_c, 5, 60, 118
9, 99888, Note_on_c, 5, 60, 0
9, 99900, Note_on_c, 5, 57, 120
9, 99948, Note_on_c, 5, 57, 0
9, 99960, Note_on_c, 5, 58, 103
9, 100008, Note_on_c, 5, 58, 0
9, 100020, Note_on_c, 5, 62, 117
9, 100068, Note_on_c, 5, 62, 0
9, 100080, Note_on_c, 5, 60, 111
9, 100128, Note_on_c, 5, 60, 0
9, 100140, Note_on_c, 5, 58, 107
9, 100164, Note_on_c, 5, 58, 0
9, 100170, Note_on_c, 5, 57, 116
9, 100194, Note_on_c, 5, 57, 0
9, 100200, Note_on_c, 5, 55, 123
9, 100248, Note_on_c, 5, 55, 0
9, 100260, Note_on_c, 5, 48, 106
9, 100308, Note_on_c, 5, 48, 0
9, 100320, Note_on_c, 5, 53, 102
9, 100368, Note_on_c, 5, 53, 0
9, 100380, Note_on_c, 5, 55, 104
9, 100428, Note_on_c, 5, 55, 0
9, 100440, Note_on_c, 5, 57, 110
9, 100488, Note_on_c, 5, 57, 0
9, 100500, Note_on_c, 5, 58, 113
9, 100524, Note_on_c, 5, 58, 0
9, 100530, Note_on_c, 5, 57, 118
9, 100554, Note_on_c, 5, 57, 0
9, 100560, Note_on_c, 5, 55, 107
9, 100752, Note_on_c, 5, 55, 0
9, 102240, Note_on_c, 5, 53, 112
9, 102336, Note_on_c, 5, 53, 0
9, 102360, Note_on_c, 5, 50, 109
9, 102456, Note_on_c, 5, 50, 0
9, 102480, Note_on_c, 5, 52, 99
9, 102624, Note_on_c, 5, 52, 0
9, 102660, Note_on_c, 5, 48, 86
9, 102708, Note_on_c, 5, 48, 0
9, 102720, Note_on_c, 5, 53, 113
9, 102816, Note_on_c, 5, 53, 0
9, 102840, Note_on_c, 5, 50, 100
9, 102936, Note_on_c, 5, 50, 0
9, 102960, Note_on_c, 5, 52, 109
9, 103104, Note_on_c, 5, 52, 0
9, 103140, Note_on_c, 5, 48, 107
9, 103188, Note_on_c, 5, 48, 0
9, 103200, Note_on_c, 5, 53, 103
9, 103392, Note_on_c, 5, 53, 0
9, 103440, Note_on_c, 5, 53, 112
9, 103632, Note_on_c, 5, 53, 0
9, 103680, Note_on_c, 5, 53, 109
9, 103872, Note_on_c, 5, 53, 0
9, 103920, Note_on_c, 5, 52, 98
9, 104112, Note_on_c, 5, 52, 0
9, 104160, Note_on_c, 5, 53, 109
9, 104256, Note_on_c, 5, 53, 0
9, 104280, Note_on_c, 5, 57, 111
9, 104376, Note_on_c, 5, 57, 0
9, 104400, Note_on_c, 5, 55, 98
9, 104544, Note_on_c, 5, 55, 0
9, 104580, Note_on_c, 5, 53, 120
9, 104628, Note_on_c, 5, 53, 0
9, 104640, Note_on_c, 5, 58, 101
9, 104736, Note_on_c, 5, 58, 0
9, 104760, Note_on_c, 5, 57, 109
9, 104856, Note_on_c, 5, 57, 0
9, 104880, Note_on_c, 5, 48, 50
9, 105024, Note_on_c, 5, 48, 0
9, 105060, Note_on_c, 5, 48, 107
9, 105108, Note_on_c, 5, 48, 0
9, 105120, Note_on_c, 5, 48, 112
9, 105264, Note_on_c, 5, 48, 0
9, 105300, Note_on_c, 5, 48, 117
9, 105348, Note_on_c, 5, 48, 0
9, 105360, Note_on_c, 5, 48, 117
9, 105504, Note_on_c, 5, 48, 0
9, 105540, Note_on_c, 5, 48, 116
9, 105588, Note_on_c, 5, 48, 0
9, 105600, Note_on_c, 5, 48, 112
9, 105744, Note_on_c, 5, 48, 0
9, 105780, Note_on_c, 5, 48, 105
9, 105828, Note_on_c, 5, 48, 0
9, 105840, Note_on_c, 5, 48, 121
9, 105872, Note_on_c, 5, 48, 0
9, 105880, Note_on_c, 5, 60, 127
9, 105912, Note_on_c, 5, 60, 0
9, 105920, Note_on_c, 5, 58, 94
9, 105952, Note_on_c, 5, 58, 0
9, 105960, Note_on_c, 5, 57, 117
9, 105992, Note_on_c, 5, 57, 0
9, 106000, Note_on_c, 5, 55, 98
9, 106032, Note_on_c, 5, 55, 0
9, 106040, Note_on_c, 5, 53, 103
9, 106072, Note_on_c, 5, 53, 0
9, 106080, Note_on_c, 5, 52, 114
9, 106112, Note_on_c, 5, 52, 0
9, 106120, Note_on_c, 5, 60, 114
9, 106152, Note_on_c, 5, 60, 0
9, 106160, Note_on_c, 5, 58, 95
9, 106192, Note_on_c, 5, 58, 0
9, 106200, Note_on_c, 5, 57, 101
9, 106232, Note_on_c, 5, 57, 0
9, 106240, Note_on_c, 5, 55, 97
9, 106272, Note_on_c, 5, 55, 0
9, 106280, Note_on_c, 5, 53, 109
9, 106312, Note_on_c, 5, 53, 0
9, 106320, Note_on_c, 5, 52, 127
9, 106352, Note_on_c, 5, 52, 0
9, 106360, Note_on_c, 5, 60, 125
9, 106392, Note_on_c, 5, 60, 0
9, 106400, Note_on_c, 5, 58, 86
9, 106432, Note_on_c, 5, 58, 0
9, 106440, Note_on_c, 5, 57, 100
9, 106472, Note_on_c, 5, 57, 0
9, 106480, Note_on_c, 5, 55, 103
9, 106512, Note_on_c, 5, 55, 0
9, 106520, Note_on_c, 5, 53, 102
9, 106552, Note_on_c, 5, 53, 0
9, 106560, Note_on_c, 5, 52, 125
9, 106592, Note_on_c, 5, 52, 0
9, 106600, Note_on_c, 5, 60, 127
9, 106632, Note_on_c, 5, 60, 0
9, 106640, Note_on_c, 5, 58, 88
9, 106672, Note_on_c, 5, 58, 0
9, 106680, Note_on_c, 5, 57, 99
9, 106712, Note_on_c, 5, 57, 0
9, 106720, Note_on_c, 5, 55, 104
9, 106752, Note_on_c, 5, 55, 0
9, 106760, Note_on_c, 5, 53, 121
9, 106792, Note_on_c, 5, 53, 0
9, 106800, Note_on_c, 5, 48, 113
9, 106832, Note_on_c, 5, 48, 0
9, 106840, Note_on_c, 5, 60, 125
9, 106872, Note_on_c, 5, 60, 0
9, 106880, Note_on_c, 5, 58, 92
9, 106912, Note_on_c, 5, 58, 0
9, 106920, Note_on_c, 5, 57, 103
9, 106952, Note_on_c, 5, 57, 0
9, 106960, Note_on_c, 5, 55, 101
9, 106992, Note_on_c, 5, 55, 0
9, 107000, Note_on_c, 5, 53, 100
9, 107032, Note_on_c, 5, 53, 0
9, 107040, Note_on_c, 5, 52, 120
9, 107072, Note_on_c, 5, 52, 0
9, 107080, Note_on_c, 5, 57, 120
9, 107112, Note_on_c, 5, 57, 0
9, 107120, Note_on_c, 5, 55, 121
9, 107152, Note_on_c, 5, 55, 0
9, 107160, Note_on_c, 5, 53, 99
9, 107192, Note_on_c, 5, 53, 0
9, 107200, Note_on_c, 5, 52, 113
9, 107232, Note_on_c, 5, 52, 0
9, 107240, Note_on_c, 5, 50, 108
9, 107272, Note_on_c, 5, 50, 0
9, 107280, Note_on_c, 5, 48, 111
9, 107312, Note_on_c, 5, 48, 0
9, 107320, Note_on_c, 5, 65, 127
9, 107352, Note_on_c, 5, 65, 0
9, 107360, Note_on_c, 5, 64, 117
9, 107392, Note_on_c, 5, 64, 0
9, 107400, Note_on_c, 5, 62, 113
9, 107432, Note_on_c, 5, 62, 0
9, 107440, Note_on_c, 5, 60, 111
9, 107472, Note_on_c, 5, 60, 0
9, 107480, Note_on_c, 5, 58, 107
9, 107512, Note_on_c, 5, 58, 0
9, 107520, Note_on_c, 5, 57, 121
9, 107552, Note_on_c, 5, 57, 0
9, 107560, Note_on_c, 5, 62, 127
9, 107592, Note_on_c, 5, 62, 0
9, 107600, Note_on_c, 5, 60, 109
9, 107632, Note_on_c, 5, 60, 0
9, 107640, Note_on_c, 5, 58, 100
9, 107672, Note_on_c, 5, 58, 0
9, 107680, Note_on_c, 5, 57, 120
9, 107712, Note_on_c, 5, 57, 0
9, 107720, Note_on_c, 5, 55, 110
9, 107752, Note_on_c, 5, 55, 0
9, 107760, Note_on_c, 5, 53, 121
9, 107808, Note_on_c, 5, 53, 0
9, 107820, Note_on_c, 5, 60, 127
9, 107844, Note_on_c, 5, 60, 0
9, 107850, Note_on_c, 5, 48, 108
9, 107874, Note_on_c, 5, 48, 0
9, 107880, Note_on_c, 5, 60, 111
9, 107904, Note_on_c, 5, 60, 0
9, 107910, Note_on_c, 5, 48, 127
9, 107934, Note_on_c, 5, 48, 0
9, 107940, Note_on_c, 5, 60, 117
9, 107964, Note_on_c, 5, 60, 0
9, 107970, Note_on_c, 5, 48, 127
9, 107994, Note_on_c, 5, 48, 0
9, 108000, Note_on_c, 5, 60, 107
9, 108028, Note_on_c, 5, 60, 0
9, 108030, Note_on_c, 5, 48, 118
9, 108058, Note_on_c, 5, 48, 0
9, 108060, Note_on_c, 5, 60, 104
9, 108088, Note_on_c, 5, 60, 0
9, 108090, Note_on_c, 5, 48, 121
9, 108118, Note_on_c, 5, 48, 0
9, 108120, Note_on_c, 5, 60, 104
9, 108148, Note_on_c, 5, 60, 0
9, 108150, Note_on_c, 5, 48, 110
9, 108178, Note_on_c, 5, 48, 0
9, 108180, Note_on_c, 5, 60, 107
9, 108208, Note_on_c, 5, 60, 0
9, 108210, Note_on_c, 5, 48, 127
9, 108238, Note_on_c, 5, 48, 0
9, 108240, Note_on_c, 5, 60, 107
9, 108268, Note_on_c, 5, 60, 0
9, 108270, Note_on_c, 5, 48, 118
9, 108298, Note_on_c, 5, 48, 0
9, 108300, Note_on_c, 5, 60, 104
9, 108328, Note_on_c, 5, 60, 0
9, 108330, Note_on_c, 5, 48, 121
9, 108358, Note_on_c, 5, 48, 0
9, 108360, Note_on_c, 5, 60, 104
9, 108388, Note_on_c, 5, 60, 0
9, 108390, Note_on_c, 5, 48, 110
9, 108418, Note_on_c, 5, 48, 0
9, 108420, Note_on_c, 5, 60, 107
9, 108448, Note_on_c, 5, 60, 0
9, 108450, Note_on_c, 5, 48, 127
9, 108478, Note_on_c, 5, 48, 0
9, 108480, Note_on_c, 5, 60, 107
9, 108508, Note_on_c, 5, 60, 0
9, 108510, Note_on_c, 5, 48, 118
9, 108538, Note_on_c, 5, 48, 0
9, 108540, Note_on_c, 5, 60, 104
9, 108568, Note_on_c, 5, 60, 0
9, 108570, Note_on_c, 5, 48, 121
9, 108598, Note_on_c, 5, 48, 0
9, 108600, Note_on_c, 5, 60, 104
9, 108628, Note_on_c, 5, 60, 0
9, 108630, Note_on_c, 5, 48, 110
9, 108658, Note_on_c, 5, 48, 0
9, 108660, Note_on_c, 5, 60, 107
9, 108688, Note_on_c, 5, 60, 0
9, 108690, Note_on_c, 5, 48, 127
9, 108718, Note_on_c, 5, 48, 0
9, 108720, Note_on_c, 5, 60, 107
9, 108748, Note_on_c, 5, 60, 0
9, 108750, Note_on_c, 5, 48, 118
9, 108778, Note_on_c, 5, 48, 0
9, 108780, Note_on_c, 5, 60, 104
9, 108808, Note_on_c, 5, 60, 0
9, 108810, Note_on_c, 5, 48, 121
9, 108838, Note_on_c, 5, 48, 0
9, 108840, Note_on_c, 5, 60, 104
9, 108868, Note_on_c, 5, 60, 0
9, 108870, Note_on_c, 5, 48, 110
9, 108898, Note_on_c, 5, 48, 0
9, 108900, Note_on_c, 5, 60, 107
9, 108928, Note_on_c, 5, 60, 0
9, 108930, Note_on_c, 5, 48, 127
9, 108958, Note_on_c, 5, 48, 0
9, 108960, Note_on_c, 5, 60, 107
9, 108988, Note_on_c, 5, 60, 0
9, 108990, Note_on_c, 5, 48, 118
9, 109018, Note_on_c, 5, 48, 0
9, 109020, Note_on_c, 5, 60, 104
9, 109048, Note_on_c, 5, 60, 0
9, 109050, Note_on_c, 5, 48, 121
9, 109078, Note_on_c, 5, 48, 0
9, 109080, Note_on_c, 5, 60, 104
9, 109108, Note_on_c, 5, 60, 0
9, 109110, Note_on_c, 5, 48, 110
9, 109138, Note_on_c, 5, 48, 0
9, 109140, Note_on_c, 5, 60, 107
9, 109168, Note_on_c, 5, 60, 0
9, 109170, Note_on_c, 5, 48, 127
9, 109198, Note_on_c, 5, 48, 0
9, 109200, Note_on_c, 5, 60, 107
9, 109228, Note_on_c, 5, 60, 0
9, 109230, Note_on_c, 5, 48, 118
9, 109258, Note_on_c, 5, 48, 0
9, 109260, Note_on_c, 5, 60, 104
9, 109288, Note_on_c, 5, 60, 0
9, 109290, Note_on_c, 5, 48, 121
9, 109318, Note_on_c, 5, 48, 0
9, 109320, Note_on_c, 5, 60, 104
9, 109348, Note_on_c, 5, 60, 0
9, 109350, Note_on_c, 5, 48, 110
9, 109378, Note_on_c, 5, 48, 0
9, 109380, Note_on_c, 5, 60, 107
9, 109408, Note_on_c, 5, 60, 0
9, 109410, Note_on_c, 5, 48, 127
9, 109438, Note_on_c, 5, 48, 0
9, 109440, Note_on_c, 5, 60, 107
9, 109468, Note_on_c, 5, 60, 0
9, 109470, Note_on_c, 5, 48, 118
9, 109498, Note_on_c, 5, 48, 0
9, 109500, Note_on_c, 5, 60, 104
9, 109528, Note_on_c, 5, 60, 0
9, 109530, Note_on_c, 5, 48, 121
9, 109558, Note_on_c, 5, 48, 0
9, 109560, Note_on_c, 5, 60, 104
9, 109588, Note_on_c, 5, 60, 0
9, 109590, Note_on_c, 5, 48, 110
9, 109618, Note_on_c, 5, 48, 0
9, 109620, Note_on_c, 5, 60, 107
9, 109648, Note_on_c, 5, 60, 0
9, 109650, Note_on_c, 5, 48, 127
9, 109678, Note_on_c, 5, 48, 0
9, 109680, Note_on_c, 5, 60, 107
9, 109708, Note_on_c, 5, 60, 0
9, 109710, Note_on_c, 5, 48, 118
9, 109738, Note_on_c, 5, 48, 0
9, 109740, Note_on_c, 5, 60, 104
9, 109768, Note_on_c, 5, 60, 0
9, 109770, Note_on_c, 5, 48, 121
9, 109798, Note_on_c, 5, 48, 0
9, 109800, Note_on_c, 5, 60, 104
9, 109828, Note_on_c, 5, 60, 0
9, 109830, Note_on_c, 5, 48, 110
9, 109858, Note_on_c, 5, 48, 0
9, 109860, Note_on_c, 5, 60, 107
9, 109888, Note_on_c, 5, 60, 0
9, 109890, Note_on_c, 5, 48, 127
9, 109918, Note_on_c, 5, 48, 0
9, 109920, Note_on_c, 5, 60, 107
9, 109948, Note_on_c, 5, 60, 0
9, 109950, Note_on_c, 5, 48, 118
9, 109978, Note_on_c, 5, 48, 0
9, 109980, Note_on_c, 5, 60, 104
9, 110008, Note_on_c, 5, 60, 0
9, 110010, Note_on_c, 5, 48, 121
9, 110038, Note_on_c, 5, 48, 0
9, 110040, Note_on_c, 5, 60, 104
9, 110068, Note_on_c, 5, 60, 0
9, 110070, Note_on_c, 5, 48, 110
9, 110098, Note_on_c, 5, 48, 0
9, 110100, Note_on_c, 5, 60, 107
9, 110128, Note_on_c, 5, 60, 0
9, 110130, Note_on_c, 5, 48, 127
9, 110158, Note_on_c, 5, 48, 0
9, 110160, Note_on_c, 5, 60, 107
9, 110188, Note_on_c, 5, 60, 0
9, 110190, Note_on_c, 5, 48, 118
9, 110218, Note_on_c, 5, 48, 0
9, 110220, Note_on_c, 5, 60, 104
9, 110248, Note_on_c, 5, 60, 0
9, 110250, Note_on_c, 5, 48, 121
9, 110278, Note_on_c, 5, 48, 0
9, 110280, Note_on_c, 5, 60, 104
9, 110308, Note_on_c, 5, 60, 0
9, 110310, Note_on_c, 5, 48, 110
9, 110338, Note_on_c, 5, 48, 0
9, 110340, Note_on_c, 5, 60, 107
9, 110368, Note_on_c, 5, 60, 0
9, 110370, Note_on_c, 5, 48, 127
9, 110398, Note_on_c, 5, 48, 0
9, 110400, Note_on_c, 5, 60, 107
9, 110428, Note_on_c, 5, 60, 0
9, 110430, Note_on_c, 5, 48, 118
9, 110458, Note_on_c, 5, 48, 0
9, 110460, Note_on_c, 5, 60, 104
9, 110488, Note_on_c, 5, 60, 0
9, 110490, Note_on_c, 5, 48, 121
9, 110518, Note_on_c, 5, 48, 0
9, 110520, Note_on_c, 5, 60, 104
9, 110548, Note_on_c, 5, 60, 0
9, 110550, Note_on_c, 5, 48, 110
9, 110578, Note_on_c, 5, 48, 0
9, 110580, Note_on_c, 5, 60, 107
9, 110608, Note_on_c, 5, 60, 0
9, 110610, Note_on_c, 5, 48, 127
9, 110638, Note_on_c, 5, 48, 0
9, 110640, Note_on_c, 5, 60, 107
9, 110668, Note_on_c, 5, 60, 0
9, 110670, Note_on_c, 5, 48, 118
9, 110698, Note_on_c, 5, 48, 0
9, 110700, Note_on_c, 5, 60, 104
9, 110728, Note_on_c, 5, 60, 0
9, 110730, Note_on_c, 5, 48, 121
9, 110758, Note_on_c, 5, 48, 0
9, 110760, Note_on_c, 5, 60, 104
9, 110788, Note_on_c, 5, 60, 0
9, 110790, Note_on_c, 5, 48, 110
9, 110818, Note_on_c, 5, 48, 0
9, 110820, Note_on_c, 5, 60, 107
9, 110848, Note_on_c, 5, 60, 0
9, 110850, Note_on_c, 5, 48, 127
9, 110878, Note_on_c, 5, 48, 0
9, 110880, Note_on_c, 5, 60, 107
9, 110908, Note_on_c, 5, 60, 0
9, 110910, Note_on_c, 5, 48, 118
9, 110938, Note_on_c, 5, 48, 0
9, 110940, Note_on_c, 5, 60, 104
9, 110968, Note_on_c, 5, 60, 0
9, 110970, Note_on_c, 5, 48, 121
9, 110998, Note_on_c, 5, 48, 0
9, 111000, Note_on_c, 5, 60, 104
9, 111028, Note_on_c, 5, 60, 0
9, 111030, Note_on_c, 5, 48, 110
9, 111058, Note_on_c, 5, 48, 0
9, 111060, Note_on_c, 5, 60, 107
9, 111088, Note_on_c, 5, 60, 0
9, 111090, Note_on_c, 5, 48, 127
9, 111118, Note_on_c, 5, 48, 0
9, 111120, Note_on_c, 5, 60, 107
9, 111148, Note_on_c, 5, 60, 0
9, 111150, Note_on_c, 5, 48, 118
9, 111178, Note_on_c, 5, 48, 0
9, 111180, Note_on_c, 5, 60, 104
9, 111208, Note_on_c, 5, 60, 0
9, 111210, Note_on_c, 5, 48, 121
9, 111238, Note_on_c, 5, 48, 0
9, 111240, Note_on_c, 5, 60, 104
9, 111268, Note_on_c, 5, 60, 0
9, 111270, Note_on_c, 5, 48, 110
9, 111298, Note_on_c, 5, 48, 0
9, 111300, Note_on_c, 5, 60, 107
9, 111328, Note_on_c, 5, 60, 0
9, 111330, Note_on_c, 5, 48, 127
9, 111358, Note_on_c, 5, 48, 0
9, 111360, Note_on_c, 5, 60, 107
9, 111388, Note_on_c, 5, 60, 0
9, 111390, Note_on_c, 5, 48, 118
9, 111418, Note_on_c, 5, 48, 0
9, 111420, Note_on_c, 5, 60, 104
9, 111448, Note_on_c, 5, 60, 0
9, 111450, Note_on_c, 5, 48, 121
9, 111478, Note_on_c, 5, 48, 0
9, 111480, Note_on_c, 5, 60, 104
9, 111508, Note_on_c, 5, 60, 0
9, 111510, Note_on_c, 5, 48, 110
9, 111538, Note_on_c, 5, 48, 0
9, 111540, Note_on_c, 5, 60, 107
9, 111568, Note_on_c, 5, 60, 0
9, 111570, Note_on_c, 5, 48, 127
9, 111598, Note_on_c, 5, 48, 0
9, 111600, Note_on_c, 5, 53, 125
9, 111632, Note_on_c, 5, 53, 0
9, 111640, Note_on_c, 5, 57, 113
9, 111640, Note_on_c, 5, 53, 116
9, 111672, Note_on_c, 5, 53, 0
9, 111672, Note_on_c, 5, 57, 0
9, 111680, Note_on_c, 5, 57, 107
9, 111680, Note_on_c, 5, 53, 125
9, 111712, Note_on_c, 5, 53, 0
9, 111712, Note_on_c, 5, 57, 0
9, 111720, Note_on_c, 5, 57, 110
9, 111720, Note_on_c, 5, 53, 125
9, 111752, Note_on_c, 5, 53, 0
9, 111752, Note_on_c, 5, 57, 0
9, 111760, Note_on_c, 5, 57, 112
9, 111760, Note_on_c, 5, 53, 127
9, 111792, Note_on_c, 5, 53, 0
9, 111792, Note_on_c, 5, 57, 0
9, 111800, Note_on_c, 5, 57, 113
9, 111800, Note_on_c, 5, 53, 112
9, 111832, Note_on_c, 5, 53, 0
9, 111832, Note_on_c, 5, 57, 0
9, 111840, Note_on_c, 5, 53, 125
9, 111840, Note_on_c, 5, 57, 109
9, 111936, Note_on_c, 5, 57, 0
9, 111936, Note_on_c, 5, 53, 0
9, 112560, Note_on_c, 5, 53, 127
9, 112560, Note_on_c, 5, 57, 117
9, 112592, Note_on_c, 5, 57, 0
9, 112592, Note_on_c, 5, 53, 0
9, 112600, Note_on_c, 5, 57, 113
9, 112600, Note_on_c, 5, 53, 127
9, 112632, Note_on_c, 5, 53, 0
9, 112632, Note_on_c, 5, 57, 0
9, 112640, Note_on_c, 5, 57, 111
9, 112640, Note_on_c, 5, 53, 127
9, 112672, Note_on_c, 5, 53, 0
9, 112672, Note_on_c, 5, 57, 0
9, 112680, Note_on_c, 5, 53, 127
9, 112680, Note_on_c, 5, 57, 114
9, 112712, Note_on_c, 5, 57, 0
9, 112712, Note_on_c, 5, 53, 0
9, 112720, Note_on_c, 5, 53, 127
9, 112720, Note_on_c, 5, 57, 118
9, 112752, Note_on_c, 5, 57, 0
9, 112752, Note_on_c, 5, 53, 0
9, 112760, Note_on_c, 5, 53, 118
9, 112760, Note_on_c, 5, 57, 112
9, 112792, Note_on_c, 5, 57, 0
9, 112792, Note_on_c, 5, 53, 0
9, 112800, Note_on_c, 5, 53, 110
9, 112800, Note_on_c, 5, 57, 113
9, 112896, Note_on_c, 5, 57, 0
9, 112896, Note_on_c, 5, 53, 0
9, 113520, Note_on_c, 5, 53, 125
9, 113520, Note_on_c, 5, 57, 118
9, 113552, Note_on_c, 5, 57, 0
9, 113552, Note_on_c, 5, 53, 0
9, 113560, Note_on_c, 5, 53, 109
9, 113560, Note_on_c, 5, 57, 116
9, 113592, Note_on_c, 5, 57, 0
9, 113592, Note_on_c, 5, 53, 0
9, 113600, Note_on_c, 5, 57, 118
9, 113600, Note_on_c, 5, 53, 111
9, 113632, Note_on_c, 5, 53, 0
9, 113632, Note_on_c, 5, 57, 0
9, 113640, Note_on_c, 5, 57, 127
9, 113640, Note_on_c, 5, 53, 121
9, 113672, Note_on_c, 5, 53, 0
9, 113672, Note_on_c, 5, 57, 0
9, 113680, Note_on_c, 5, 53, 118
9, 113680, Note_on_c, 5, 57, 127
9, 113712, Note_on_c, 5, 57, 0
9, 113712, Note_on_c, 5, 53, 0
9, 113720, Note_on_c, 5, 57, 117
9, 113720, Note_on_c, 5, 53, 111
9, 113752, Note_on_c, 5, 53, 0
9, 113752, Note_on_c, 5, 57, 0
9, 113760, Note_on_c, 5, 57, 121
9, 113760, Note_on_c, 5, 53, 108
9, 113856, Note_on_c, 5, 53, 0
9, 113856, Note_on_c, 5, 57, 0
9, 114000, Note_on_c, 5, 50, 111
9, 114000, Note_on_c, 5, 53, 104
9, 114032, Note_on_c, 5, 53, 0
9, 114032, Note_on_c, 5, 50, 0
9, 114040, Note_on_c, 5, 53, 112
9, 114040, Note_on_c, 5, 50, 109
9, 114072, Note_on_c, 5, 50, 0
9, 114072, Note_on_c, 5, 53, 0
9, 114080, Note_on_c, 5, 50, 108
9, 114080, Note_on_c, 5, 53, 120
9, 114112, Note_on_c, 5, 53, 0
9, 114112, Note_on_c, 5, 50, 0
9, 114120, Note_on_c, 5, 53, 121
9, 114120, Note_on_c, 5, 50, 112
9, 114152, Note_on_c, 5, 50, 0
9, 114152, Note_on_c, 5, 53, 0
9, 114160, Note_on_c, 5, 53, 123
9, 114160, Note_on_c, 5, 50, 117
9, 114192, Note_on_c, 5, 50, 0
9, 114192, Note_on_c, 5, 53, 0
9, 114200, Note_on_c, 5, 53, 114
9, 114200, Note_on_c, 5, 50, 111
9, 114232, Note_on_c, 5, 50, 0
9, 114232, Note_on_c, 5, 53, 0
9, 114240, Note_on_c, 5, 53, 121
9, 114240, Note_on_c, 5, 50, 112
9, 114336, Note_on_c, 5, 50, 0
9, 114336, Note_on_c, 5, 53, 0
9, 114480, Note_on_c, 5, 52, 98
9, 114480, Note_on_c, 5, 48, 102
9, 114512, Note_on_c, 5, 48, 0
9, 114512, Note_on_c, 5, 52, 0
9, 114520, Note_on_c, 5, 48, 114
9, 114520, Note_on_c, 5, 52, 107
9, 114552, Note_on_c, 5, 52, 0
9, 114552, Note_on_c, 5, 48, 0
9, 114560, Note_on_c, 5, 48, 112
9, 114560, Note_on_c, 5, 52, 103
9, 114592, Note_on_c, 5, 52, 0
9, 114592, Note_on_c, 5, 48, 0
9, 114600, Note_on_c, 5, 48, 121
9, 114600, Note_on_c, 5, 52, 110
9, 114632, Note_on_c, 5, 52, 0
9, 114632, Note_on_c, 5, 48, 0
9, 114640, Note_on_c, 5, 48, 118
9, 114640, Note_on_c, 5, 52, 106
9, 114672, Note_on_c, 5, 52, 0
9, 114672, Note_on_c, 5, 48, 0
9, 114680, Note_on_c, 5, 48, 116
9, 114680, Note_on_c, 5, 52, 107
9, 114712, Note_on_c, 5, 52, 0
9, 114712, Note_on_c, 5, 48, 0
9, 114720, Note_on_c, 5, 48, 117
9, 114720, Note_on_c, 5, 52, 116
9, 114816, Note_on_c, 5, 52, 0
9, 114816, Note_on_c, 5, 48, 0
9, 115920, Note_on_c, 5, 58, 76
9, 115968, Note_on_c, 5, 58, 0
9, 115980, Note_on_c, 5, 55, 120
9, 116028, Note_on_c, 5, 55, 0
9, 116040, Note_on_c, 5, 58, 97
9, 116088, Note_on_c, 5, 58, 0
9, 116100, Note_on_c, 5, 55, 118
9, 116148, Note_on_c, 5, 55, 0
9, 116160, Note_on_c, 5, 58, 101
9, 116208, Note_on_c, 5, 58, 0
9, 116220, Note_on_c, 5, 55, 108
9, 116268, Note_on_c, 5, 55, 0
9, 116280, Note_on_c, 5, 58, 101
9, 116328, Note_on_c, 5, 58, 0
9, 116340, Note_on_c, 5, 55, 109
9, 116388, Note_on_c, 5, 55, 0
9, 116400, Note_on_c, 5, 57, 117
9, 116448, Note_on_c, 5, 57, 0
9, 116460, Note_on_c, 5, 53, 110
9, 116508, Note_on_c, 5, 53, 0
9, 116520, Note_on_c, 5, 57, 112
9, 116568, Note_on_c, 5, 57, 0
9, 116580, Note_on_c, 5, 53, 104
9, 116628, Note_on_c, 5, 53, 0
9, 116640, Note_on_c, 5, 57, 118
9, 116688, Note_on_c, 5, 57, 0
9, 116700, Note_on_c, 5, 53, 105
9, 116748, Note_on_c, 5, 53, 0
9, 116760, Note_on_c, 5, 57, 116
9, 116808, Note_on_c, 5, 57, 0
9, 116820, Note_on_c, 5, 53, 117
9, 116868, Note_on_c, 5, 53, 0
9, 116880, Note_on_c, 5, 58, 86
9, 116928, Note_on_c, 5, 58, 0
9, 116940, Note_on_c, 5, 55, 98
9, 116988, Note_on_c, 5, 55, 0
9, 117000, Note_on_c, 5, 58, 109
9, 117048, Note_on_c, 5, 58, 0
9, 117060, Note_on_c, 5, 55, 109
9, 117108, Note_on_c, 5, 55, 0
9, 117120, Note_on_c, 5, 58, 103
9, 117168, Note_on_c, 5, 58, 0
9, 117180, Note_on_c, 5, 55, 117
9, 117228, Note_on_c, 5, 55, 0
9, 117240, Note_on_c, 5, 58, 101
9, 117288, Note_on_c, 5, 58, 0
9, 117300, Note_on_c, 5, 55, 121
9, 117348, Note_on_c, 5, 55, 0
9, 117360, Note_on_c, 5, 57, 114
9, 117408, Note_on_c, 5, 57, 0
9, 117420, Note_on_c, 5, 53, 107
9, 117468, Note_on_c, 5, 53, 0
9, 117480, Note_on_c, 5, 57, 117
9, 117528, Note_on_c, 5, 57, 0
9, 117540, Note_on_c, 5, 53, 117
9, 117588, Note_on_c, 5, 53, 0
9, 117600, Note_on_c, 5, 57, 125
9, 117648, Note_on_c, 5, 57, 0
9, 117660, Note_on_c, 5, 53, 110
9, 117708, Note_on_c, 5, 53, 0
9, 117720, Note_on_c, 5, 57, 118
9, 117768, Note_on_c, 5, 57, 0
9, 117780, Note_on_c, 5, 53, 100
9, 117828, Note_on_c, 5, 53, 0
9, 117840, Note_on_c, 5, 55, 94
9, 117888, Note_on_c, 5, 55, 0
9, 117900, Note_on_c, 5, 58, 111
9, 117948, Note_on_c, 5, 58, 0
9, 117960, Note_on_c, 5, 55, 111
9, 118008, Note_on_c, 5, 55, 0
9, 118020, Note_on_c, 5, 58, 105
9, 118068, Note_on_c, 5, 58, 0
9, 118080, Note_on_c, 5, 55, 107
9, 118128, Note_on_c, 5, 55, 0
9, 118140, Note_on_c, 5, 58, 96
9, 118188, Note_on_c, 5, 58, 0
9, 118200, Note_on_c, 5, 55, 103
9, 118248, Note_on_c, 5, 55, 0
9, 118260, Note_on_c, 5, 58, 82
9, 118308, Note_on_c, 5, 58, 0
9, 118320, Note_on_c, 5, 57, 50
9, 118368, Note_on_c, 5, 57, 0
9, 118380, Note_on_c, 5, 60, 117
9, 118428, Note_on_c, 5, 60, 0
9, 118440, Note_on_c, 5, 57, 116
9, 118488, Note_on_c, 5, 57, 0
9, 118500, Note_on_c, 5, 60, 121
9, 118548, Note_on_c, 5, 60, 0
9, 118560, Note_on_c, 5, 57, 109
9, 118608, Note_on_c, 5, 57, 0
9, 118620, Note_on_c, 5, 60, 118
9, 118668, Note_on_c, 5, 60, 0
9, 118680, Note_on_c, 5, 57, 99
9, 118728, Note_on_c, 5, 57, 0
9, 118740, Note_on_c, 5, 60, 104
9, 118788, Note_on_c, 5, 60, 0
9, 118800, Note_on_c, 5, 60, 113
9, 118848, Note_on_c, 5, 60, 0
9, 118860, Note_on_c, 5, 67, 111
9, 118908, Note_on_c, 5, 67, 0
9, 118920, Note_on_c, 5, 60, 102
9, 118968, Note_on_c, 5, 60, 0
9, 118980, Note_on_c, 5, 67, 104
9, 119028, Note_on_c, 5, 67, 0
9, 119040, Note_on_c, 5, 60, 109
9, 119088, Note_on_c, 5, 60, 0
9, 119100, Note_on_c, 5, 67, 110
9, 119148, Note_on_c, 5, 67, 0
9, 119160, Note_on_c, 5, 60, 104
9, 119208, Note_on_c, 5, 60, 0
9, 119220, Note_on_c, 5, 67, 108
9, 119268, Note_on_c, 5, 67, 0
9, 119280, Note_on_c, 5, 60, 112
9, 119328, Note_on_c, 5, 60, 0
9, 119340, Note_on_c, 5, 69, 99
9, 119388, Note_on_c, 5, 69, 0
9, 119400, Note_on_c, 5, 60, 96
9, 119448, Note_on_c, 5, 60, 0
9, 119460, Note_on_c, 5, 69, 104
9, 119508, Note_on_c, 5, 69, 0
9, 119520, Note_on_c, 5, 60, 99
9, 119568, Note_on_c, 5, 60, 0
9, 119580, Note_on_c, 5, 69, 98
9, 119628, Note_on_c, 5, 69, 0
9, 119640, Note_on_c, 5, 60, 107
9, 119688, Note_on_c, 5, 60, 0
9, 119700, Note_on_c, 5, 69, 100
9, 119748, Note_on_c, 5, 69, 0
9, 119760, Note_on_c, 5, 70, 103
9, 119792, Note_on_c, 5, 70, 0
9, 119800, Note_on_c, 5, 67, 120
9, 119832, Note_on_c, 5, 67, 0
9, 119840, Note_on_c, 5, 70, 99
9, 119872, Note_on_c, 5, 70, 0
9, 119880, Note_on_c, 5, 67, 118
9, 119912, Note_on_c, 5, 67, 0
9, 119920, Note_on_c, 5, 70, 99
9, 119952, Note_on_c, 5, 70, 0
9, 119960, Note_on_c, 5, 67, 113
9, 119992, Note_on_c, 5, 67, 0
9, 120000, Note_on_c, 5, 70, 101
9, 120032, Note_on_c, 5, 70, 0
9, 120040, Note_on_c, 5, 67, 116
9, 120072, Note_on_c, 5, 67, 0
9, 120080, Note_on_c, 5, 70, 103
9, 120112, Note_on_c, 5, 70, 0
9, 120120, Note_on_c, 5, 67, 120
9, 120152, Note_on_c, 5, 67, 0
9, 120160, Note_on_c, 5, 70, 109
9, 120192, Note_on_c, 5, 70, 0
9, 120200, Note_on_c, 5, 67, 110
9, 120232, Note_on_c, 5, 67, 0
9, 120240, Note_on_c, 5, 72, 127
9, 120272, Note_on_c, 5, 72, 0
9, 120280, Note_on_c, 5, 69, 108
9, 120312, Note_on_c, 5, 69, 0
9, 120320, Note_on_c, 5, 72, 121
9, 120352, Note_on_c, 5, 72, 0
9, 120360, Note_on_c, 5, 69, 116
9, 120392, Note_on_c, 5, 69, 0
9, 120400, Note_on_c, 5, 72, 120
9, 120432, Note_on_c, 5, 72, 0
9, 120440, Note_on_c, 5, 69, 117
9, 120472, Note_on_c, 5, 69, 0
9, 120480, Note_on_c, 5, 72, 123
9, 120512, Note_on_c, 5, 72, 0
9, 120520, Note_on_c, 5, 69, 118
9, 120552, Note_on_c, 5, 69, 0
9, 120560, Note_on_c, 5, 72, 120
9, 120592, Note_on_c, 5, 72, 0
9, 120600, Note_on_c, 5, 69, 125
9, 120632, Note_on_c, 5, 69, 0
9, 120640, Note_on_c, 5, 72, 127
9, 120672, Note_on_c, 5, 72, 0
9, 120680, Note_on_c, 5, 69, 104
9, 120712, Note_on_c, 5, 69, 0
9, 120720, Note_on_c, 5, 72, 101
9, 120720, Note_on_c, 5, 60, 100
9, 120744, Note_on_c, 5, 60, 0
9, 120744, Note_on_c, 5, 72, 0
9, 120750, Note_on_c, 5, 58, 99
9, 120750, Note_on_c, 5, 70, 90
9, 120774, Note_on_c, 5, 70, 0
9, 120774, Note_on_c, 5, 58, 0
9, 120780, Note_on_c, 5, 72, 107
9, 120780, Note_on_c, 5, 60, 109
9, 120804, Note_on_c, 5, 60, 0
9, 120804, Note_on_c, 5, 72, 0
9, 120810, Note_on_c, 5, 58, 103
9, 120810, Note_on_c, 5, 70, 103
9, 120834, Note_on_c, 5, 70, 0
9, 120834, Note_on_c, 5, 58, 0
9, 120840, Note_on_c, 5, 60, 113
9, 120840, Note_on_c, 5, 72, 116
9, 120864, Note_on_c, 5, 72, 0
9, 120864, Note_on_c, 5, 60, 0
9, 120870, Note_on_c, 5, 58, 111
9, 120870, Note_on_c, 5, 70, 107
9, 120894, Note_on_c, 5, 70, 0
9, 120894, Note_on_c, 5, 58, 0
9, 120900, Note_on_c, 5, 72, 114
9, 120900, Note_on_c, 5, 60, 118
9, 120924, Note_on_c, 5, 60, 0
9, 120924, Note_on_c, 5, 72, 0
9, 120930, Note_on_c, 5, 58, 107
9, 120930, Note_on_c, 5, 70, 109
9, 120954, Note_on_c, 5, 70, 0
9, 120954, Note_on_c, 5, 58, 0
9, 120960, Note_on_c, 5, 72, 118
9, 120960, Note_on_c, 5, 60, 127
9, 120984, Note_on_c, 5, 60, 0
9, 120984, Note_on_c, 5, 72, 0
9, 120990, Note_on_c, 5, 70, 101
9, 120990, Note_on_c, 5, 58, 118
9, 121014, Note_on_c, 5, 58, 0
9, 121014, Note_on_c, 5, 70, 0
9, 121020, Note_on_c, 5, 60, 121
9, 121020, Note_on_c, 5, 72, 116
9, 121044, Note_on_c, 5, 72, 0
9, 121044, Note_on_c, 5, 60, 0
9, 121050, Note_on_c, 5, 58, 105
9, 121050, Note_on_c, 5, 70, 99
9, 121074, Note_on_c, 5, 70, 0
9, 121074, Note_on_c, 5, 58, 0
9, 121080, Note_on_c, 5, 72, 117
9, 121080, Note_on_c, 5, 60, 121
9, 121104, Note_on_c, 5, 60, 0
9, 121104, Note_on_c, 5, 72, 0
9, 121110, Note_on_c, 5, 58, 111
9, 121110, Note_on_c, 5, 70, 101
9, 121134, Note_on_c, 5, 70, 0
9, 121134, Note_on_c, 5, 58, 0
9, 121140, Note_on_c, 5, 60, 120
9, 121140, Note_on_c, 5, 72, 110
9, 121164, Note_on_c, 5, 72, 0
9, 121164, Note_on_c, 5, 60, 0
9, 121170, Note_on_c, 5, 58, 113
9, 121170, Note_on_c, 5, 70, 111
9, 121194, Note_on_c, 5, 70, 0
9, 121194, Note_on_c, 5, 58, 0
9, 121200, Note_on_c, 5, 72, 104
9, 121200, Note_on_c, 5, 60, 121
9, 121224, Note_on_c, 5, 60, 0
9, 121224, Note_on_c, 5, 72, 0
9, 121230, Note_on_c, 5, 57, 109
9, 121230, Note_on_c, 5, 69, 107
9, 121254, Note_on_c, 5, 69, 0
9, 121254, Note_on_c, 5, 57, 0
9, 121260, Note_on_c, 5, 72, 125
9, 121260, Note_on_c, 5, 60, 127
9, 121284, Note_on_c, 5, 60, 0
9, 121284, Note_on_c, 5, 72, 0
9, 121290, Note_on_c, 5, 57, 123
9, 121290, Note_on_c, 5, 69, 116
9, 121314, Note_on_c, 5, 69, 0
9, 121314, Note_on_c, 5, 57, 0
9, 121320, Note_on_c, 5, 72, 117
9, 121320, Note_on_c, 5, 60, 118
9, 121344, Note_on_c, 5, 60, 0
9, 121344, Note_on_c, 5, 72, 0
9, 121350, Note_on_c, 5, 57, 121
9, 121350, Note_on_c, 5, 69, 117
9, 121374, Note_on_c, 5, 69, 0
9, 121374, Note_on_c, 5, 57, 0
9, 121380, Note_on_c, 5, 72, 117
9, 121380, Note_on_c, 5, 60, 127
9, 121404, Note_on_c, 5, 60, 0
9, 121404, Note_on_c, 5, 72, 0
9, 121410, Note_on_c, 5, 57, 121
9, 121410, Note_on_c, 5, 69, 120
9, 121434, Note_on_c, 5, 69, 0
9, 121434, Note_on_c, 5, 57, 0
9, 121440, Note_on_c, 5, 72, 114
9, 121440, Note_on_c, 5, 60, 127
9, 121464, Note_on_c, 5, 60, 0
9, 121464, Note_on_c, 5, 72, 0
9, 121470, Note_on_c, 5, 57, 127
9, 121470, Note_on_c, 5, 69, 118
9, 121494, Note_on_c, 5, 69, 0
9, 121494, Note_on_c, 5, 57, 0
9, 121500, Note_on_c, 5, 72, 116
9, 121500, Note_on_c, 5, 60, 125
9, 121524, Note_on_c, 5, 60, 0
9, 121524, Note_on_c, 5, 72, 0
9, 121530, Note_on_c, 5, 69, 109
9, 121530, Note_on_c, 5, 57, 117
9, 121554, Note_on_c, 5, 57, 0
9, 121554, Note_on_c, 5, 69, 0
9, 121560, Note_on_c, 5, 72, 113
9, 121560, Note_on_c, 5, 60, 120
9, 121584, Note_on_c, 5, 60, 0
9, 121584, Note_on_c, 5, 72, 0
9, 121590, Note_on_c, 5, 57, 114
9, 121590, Note_on_c, 5, 69, 114
9, 121614, Note_on_c, 5, 69, 0
9, 121614, Note_on_c, 5, 57, 0
9, 121620, Note_on_c, 5, 72, 113
9, 121620, Note_on_c, 5, 60, 127
9, 121644, Note_on_c, 5, 60, 0
9, 121644, Note_on_c, 5, 72, 0
9, 121650, Note_on_c, 5, 57, 116
9, 121650, Note_on_c, 5, 69, 125
9, 121674, Note_on_c, 5, 69, 0
9, 121674, Note_on_c, 5, 57, 0
9, 121680, Note_on_c, 5, 60, 127
9, 121680, Note_on_c, 5, 72, 117
9, 121704, Note_on_c, 5, 72, 0
9, 121704, Note_on_c, 5, 60, 0
9, 121710, Note_on_c, 5, 58, 95
9, 121710, Note_on_c, 5, 70, 107
9, 121734, Note_on_c, 5, 70, 0
9, 121734, Note_on_c, 5, 58, 0
9, 121740, Note_on_c, 5, 64, 121
9, 121740, Note_on_c, 5, 52, 118
9, 121764, Note_on_c, 5, 52, 0
9, 121764, Note_on_c, 5, 64, 0
9, 121770, Note_on_c, 5, 48, 118
9, 121770, Note_on_c, 5, 60, 121
9, 121794, Note_on_c, 5, 60, 0
9, 121794, Note_on_c, 5, 48, 0
9, 121800, Note_on_c, 5, 52, 125
9, 121800, Note_on_c, 5, 64, 121
9, 121824, Note_on_c, 5, 64, 0
9, 121824, Note_on_c, 5, 52, 0
9, 121830, Note_on_c, 5, 48, 111
9, 121830, Note_on_c, 5, 60, 123
9, 121854, Note_on_c, 5, 60, 0
9, 121854, Note_on_c, 5, 48, 0
9, 121860, Note_on_c, 5, 64, 120
9, 121860, Note_on_c, 5, 52, 121
9, 121884, Note_on_c, 5, 52, 0
9, 121884, Note_on_c, 5, 64, 0
9, 121890, Note_on_c, 5, 60, 116
9, 121890, Note_on_c, 5, 48, 123
9, 121914, Note_on_c, 5, 48, 0
9, 121914, Note_on_c, 5, 60, 0
9, 121920, Note_on_c, 5, 64, 118
9, 121920, Note_on_c, 5, 52, 116
9, 121944, Note_on_c, 5, 52, 0
9, 121944, Note_on_c, 5, 64, 0
9, 121950, Note_on_c, 5, 48, 116
9, 121950, Note_on_c, 5, 60, 108
9, 121974, Note_on_c, 5, 60, 0
9, 121974, Note_on_c, 5, 48, 0
9, 121980, Note_on_c, 5, 64, 114
9, 121980, Note_on_c, 5, 52, 125
9, 122004, Note_on_c, 5, 52, 0
9, 122004, Note_on_c, 5, 64, 0
9, 122010, Note_on_c, 5, 60, 114
9, 122010, Note_on_c, 5, 48, 120
9, 122034, Note_on_c, 5, 48, 0
9, 122034, Note_on_c, 5, 60, 0
9, 122040, Note_on_c, 5, 64, 111
9, 122040, Note_on_c, 5, 52, 123
9, 122064, Note_on_c, 5, 52, 0
9, 122064, Note_on_c, 5, 64, 0
9, 122070, Note_on_c, 5, 48, 117
9, 122070, Note_on_c, 5, 60, 118
9, 122094, Note_on_c, 5, 60, 0
9, 122094, Note_on_c, 5, 48, 0
9, 122100, Note_on_c, 5, 64, 116
9, 122100, Note_on_c, 5, 52, 125
9, 122124, Note_on_c, 5, 52, 0
9, 122124, Note_on_c, 5, 64, 0
9, 122130, Note_on_c, 5, 60, 98
9, 122130, Note_on_c, 5, 48, 116
9, 122154, Note_on_c, 5, 48, 0
9, 122154, Note_on_c, 5, 60, 0
9, 122160, Note_on_c, 5, 57, 99
9, 122160, Note_on_c, 5, 60, 108
9, 122304, Note_on_c, 5, 60, 0
9, 122304, Note_on_c, 5, 57, 0
9, 122340, Note_on_c, 5, 58, 93
9, 122340, Note_on_c, 5, 62, 125
9, 122364, Note_on_c, 5, 62, 0
9, 122364, Note_on_c, 5, 58, 0
9, 122370, Note_on_c, 5, 60, 117
9, 122370, Note_on_c, 5, 64, 104
9, 122394, Note_on_c, 5, 64, 0
9, 122394, Note_on_c, 5, 60, 0
9, 122400, Note_on_c, 5, 65, 107
9, 122400, Note_on_c, 5, 62, 116
9, 122448, Note_on_c, 5, 62, 0
9, 122448, Note_on_c, 5, 65, 0
9, 122460, Note_on_c, 5, 60, 106
9, 122460, Note_on_c, 5, 64, 109
9, 122484, Note_on_c, 5, 64, 0
9, 122484, Note_on_c, 5, 60, 0
9, 122490, Note_on_c, 5, 62, 121
9, 122490, Note_on_c, 5, 58, 88
9, 122514, Note_on_c, 5, 58, 0
9, 122514, Note_on_c, 5, 62, 0
9, 122520, Note_on_c, 5, 60, 125
9, 122520, Note_on_c, 5, 57, 117
9, 122568, Note_on_c, 5, 57, 0
9, 122568, Note_on_c, 5, 60, 0
9, 122580, Note_on_c, 5, 58, 86
9, 122580, Note_on_c, 5, 62, 123
9, 122604, Note_on_c, 5, 62, 0
9, 122604, Note_on_c, 5, 58, 0
9, 122610, Note_on_c, 5, 60, 112
9, 122610, Note_on_c, 5, 64, 118
9, 122634, Note_on_c, 5, 64, 0
9, 122634, Note_on_c, 5, 60, 0
9, 122640, Note_on_c, 5, 65, 116
9, 122640, Note_on_c, 5, 62, 117
9, 122688, Note_on_c, 5, 62, 0
9, 122688, Note_on_c, 5, 65, 0
9, 122700, Note_on_c, 5, 64, 127
9, 122700, Note_on_c, 5, 60, 106
9, 122724, Note_on_c, 5, 60, 0
9, 122724, Note_on_c, 5, 64, 0
9, 122730, Note_on_c, 5, 58, 82
9, 122730, Note_on_c, 5, 62, 109
9, 122754, Note_on_c, 5, 62, 0
9, 122754, Note_on_c, 5, 58, 0
9, 122760, Note_on_c, 5, 60, 121
9, 122760, Note_on_c, 5, 57, 107
9, 122808, Note_on_c, 5, 57, 0
9, 122808, Note_on_c, 5, 60, 0
9, 122820, Note_on_c, 5, 58, 86
9, 122820, Note_on_c, 5, 62, 121
9, 122844, Note_on_c, 5, 62, 0
9, 122844, Note_on_c, 5, 58, 0
9, 122850, Note_on_c, 5, 60, 109
9, 122850, Note_on_c, 5, 64, 103
9, 122874, Note_on_c, 5, 64, 0
9, 122874, Note_on_c, 5, 60, 0
9, 122880, Note_on_c, 5, 65, 114
9, 122880, Note_on_c, 5, 62, 118
9, 122928, Note_on_c, 5, 62, 0
9, 122928, Note_on_c, 5, 65, 0
9, 123120, Note_on_c, 5, 58, 84
9, 123168, Note_on_c, 5, 58, 0
9, 123180, Note_on_c, 5, 55, 125
9, 123228, Note_on_c, 5, 55, 0
9, 123240, Note_on_c, 5, 58, 90
9, 123288, Note_on_c, 5, 58, 0
9, 123300, Note_on_c, 5, 55, 123
9, 123348, Note_on_c, 5, 55, 0
9, 123360, Note_on_c, 5, 57, 113
9, 123408, Note_on_c, 5, 57, 0
9, 123420, Note_on_c, 5, 53, 100
9, 123468, Note_on_c, 5, 53, 0
9, 123480, Note_on_c, 5, 57, 108
9, 123528, Note_on_c, 5, 57, 0
9, 123540, Note_on_c, 5, 53, 116
9, 123588, Note_on_c, 5, 53, 0
9, 123600, Note_on_c, 5, 58, 72
9, 123648, Note_on_c, 5, 58, 0
9, 123660, Note_on_c, 5, 55, 107
9, 123708, Note_on_c, 5, 55, 0
9, 123720, Note_on_c, 5, 58, 107
9, 123768, Note_on_c, 5, 58, 0
9, 123780, Note_on_c, 5, 55, 108
9, 123828, Note_on_c, 5, 55, 0
9, 123840, Note_on_c, 5, 60, 101
9, 123840, Note_on_c, 5, 57, 100
9, 123984, Note_on_c, 5, 57, 0
9, 123984, Note_on_c, 5, 60, 0
9, 124020, Note_on_c, 5, 58, 94
9, 124020, Note_on_c, 5, 62, 127
9, 124044, Note_on_c, 5, 62, 0
9, 124044, Note_on_c, 5, 58, 0
9, 124050, Note_on_c, 5, 60, 100
9, 124050, Note_on_c, 5, 64, 101
9, 124074, Note_on_c, 5, 64, 0
9, 124074, Note_on_c, 5, 60, 0
9, 124080, Note_on_c, 5, 62, 107
9, 124080, Note_on_c, 5, 65, 104
9, 124128, Note_on_c, 5, 65, 0
9, 124128, Note_on_c, 5, 62, 0
9, 124140, Note_on_c, 5, 64, 120
9, 124140, Note_on_c, 5, 60, 110
9, 124164, Note_on_c, 5, 60, 0
9, 124164, Note_on_c, 5, 64, 0
9, 124170, Note_on_c, 5, 58, 91
9, 124170, Note_on_c, 5, 62, 112
9, 124194, Note_on_c, 5, 62, 0
9, 124194, Note_on_c, 5, 58, 0
9, 124200, Note_on_c, 5, 57, 109
9, 124200, Note_on_c, 5, 60, 125
9, 124248, Note_on_c, 5, 60, 0
9, 124248, Note_on_c, 5, 57, 0
9, 124260, Note_on_c, 5, 58, 82
9, 124260, Note_on_c, 5, 62, 121
9, 124284, Note_on_c, 5, 62, 0
9, 124284, Note_on_c, 5, 58, 0
9, 124290, Note_on_c, 5, 60, 109
9, 124290, Note_on_c, 5, 64, 113
9, 124314, Note_on_c, 5, 64, 0
9, 124314, Note_on_c, 5, 60, 0
9, 124320, Note_on_c, 5, 62, 111
9, 124320, Note_on_c, 5, 65, 114
9, 124368, Note_on_c, 5, 65, 0
9, 124368, Note_on_c, 5, 62, 0
9, 124380, Note_on_c, 5, 60, 112
9, 124380, Note_on_c, 5, 64, 101
9, 124404, Note_on_c, 5, 64, 0
9, 124404, Note_on_c, 5, 60, 0
9, 124410, Note_on_c, 5, 58, 86
9, 124410, Note_on_c, 5, 62, 114
9, 124434, Note_on_c, 5, 62, 0
9, 124434, Note_on_c, 5, 58, 0
9, 124440, Note_on_c, 5, 57, 104
9, 124440, Note_on_c, 5, 60, 121
9, 124488, Note_on_c, 5, 60, 0
9, 124488, Note_on_c, 5, 57, 0
9, 124500, Note_on_c, 5, 58, 85
9, 124500, Note_on_c, 5, 62, 125
9, 124524, Note_on_c, 5, 62, 0
9, 124524, Note_on_c, 5, 58, 0
9, 124530, Note_on_c, 5, 60, 106
9, 124530, Note_on_c, 5, 64, 107
9, 124554, Note_on_c, 5, 64, 0
9, 124554, Note_on_c, 5, 60, 0
9, 124560, Note_on_c, 5, 62, 127
9, 124560, Note_on_c, 5, 65, 121
9, 124608, Note_on_c, 5, 65, 0
9, 124608, Note_on_c, 5, 62, 0
9, 124800, Note_on_c, 5, 58, 101
9, 124848, Note_on_c, 5, 58, 0
9, 124860, Note_on_c, 5, 55, 116
9, 124908, Note_on_c, 5, 55, 0
9, 124920, Note_on_c, 5, 58, 107
9, 124968, Note_on_c, 5, 58, 0
9, 124980, Note_on_c, 5, 55, 117
9, 125028, Note_on_c, 5, 55, 0
9, 125040, Note_on_c, 5, 57, 120
9, 125088, Note_on_c, 5, 57, 0
9, 125100, Note_on_c, 5, 53, 112
9, 125148, Note_on_c, 5, 53, 0
9, 125160, Note_on_c, 5, 57, 120
9, 125208, Note_on_c, 5, 57, 0
9, 125220, Note_on_c, 5, 53, 118
9, 125268, Note_on_c, 5, 53, 0
9, 125280, Note_on_c, 5, 58, 109
9, 125328, Note_on_c, 5, 58, 0
9, 125340, Note_on_c, 5, 55, 111
9, 125388, Note_on_c, 5, 55, 0
9, 125400, Note_on_c, 5, 58, 109
9, 125448, Note_on_c, 5, 58, 0
9, 125460, Note_on_c, 5, 55, 112
9, 125508, Note_on_c, 5, 55, 0
9, 125520, Note_on_c, 5, 57, 110
9, 125568, Note_on_c, 5, 57, 0
9, 125580, Note_on_c, 5, 57, 113
9, 125580, Note_on_c, 5, 53, 99
9, 125628, Note_on_c, 5, 53, 0
9, 125628, Note_on_c, 5, 57, 0
9, 125640, Note_on_c, 5, 58, 100
9, 125640, Note_on_c, 5, 55, 106
9, 125688, Note_on_c, 5, 55, 0
9, 125688, Note_on_c, 5, 58, 0
9, 125700, Note_on_c, 5, 57, 99
9, 125700, Note_on_c, 5, 60, 110
9, 125748, Note_on_c, 5, 60, 0
9, 125748, Note_on_c, 5, 57, 0
9, 125760, Note_on_c, 5, 58, 109
9, 125808, Note_on_c, 5, 58, 0
9, 125820, Note_on_c, 5, 55, 107
9, 125868, Note_on_c, 5, 55, 0
9, 125880, Note_on_c, 5, 58, 107
9, 125928, Note_on_c, 5, 58, 0
9, 125940, Note_on_c, 5, 55, 105
9, 125988, Note_on_c, 5, 55, 0
9, 126000, Note_on_c, 5, 57, 114
9, 126048, Note_on_c, 5, 57, 0
9, 126060, Note_on_c, 5, 53, 104
9, 126108, Note_on_c, 5, 53, 0
9, 126120, Note_on_c, 5, 57, 109
9, 126168, Note_on_c, 5, 57, 0
9, 126180, Note_on_c, 5, 53, 111
9, 126228, Note_on_c, 5, 53, 0
9, 126240, Note_on_c, 5, 58, 103
9, 126288, Note_on_c, 5, 58, 0
9, 126300, Note_on_c, 5, 55, 112
9, 126348, Note_on_c, 5, 55, 0
9, 126360, Note_on_c, 5, 58, 94
9, 126408, Note_on_c, 5, 58, 0
9, 126420, Note_on_c, 5, 55, 100
9, 126468, Note_on_c, 5, 55, 0
9, 126480, Note_on_c, 5, 53, 108
9, 126480, Note_on_c, 5, 57, 108
9, 126512, Note_on_c, 5, 57, 0
9, 126512, Note_on_c, 5, 53, 0
9, 126520, Note_on_c, 5, 57, 110
9, 126520, Note_on_c, 5, 60, 104
9, 126552, Note_on_c, 5, 60, 0
9, 126552, Note_on_c, 5, 57, 0
9, 126560, Note_on_c, 5, 57, 120
9, 126560, Note_on_c, 5, 60, 103
9, 126592, Note_on_c, 5, 60, 0
9, 126592, Note_on_c, 5, 57, 0
9, 126600, Note_on_c, 5, 60, 109
9, 126600, Note_on_c, 5, 57, 123
9, 126632, Note_on_c, 5, 57, 0
9, 126632, Note_on_c, 5, 60, 0
9, 126640, Note_on_c, 5, 55, 118
9, 126640, Note_on_c, 5, 58, 89
9, 126672, Note_on_c, 5, 58, 0
9, 126672, Note_on_c, 5, 55, 0
9, 126680, Note_on_c, 5, 53, 109
9, 126680, Note_on_c, 5, 57, 117
9, 126712, Note_on_c, 5, 57, 0
9, 126712, Note_on_c, 5, 53, 0
9, 126720, Note_on_c, 5, 65, 110
9, 126752, Note_on_c, 5, 65, 0
9, 126760, Note_on_c, 5, 65, 103
9, 126792, Note_on_c, 5, 65, 0
9, 126800, Note_on_c, 5, 65, 105
9, 126832, Note_on_c, 5, 65, 0
9, 126840, Note_on_c, 5, 53, 114
9, 126872, Note_on_c, 5, 53, 0
9, 126880, Note_on_c, 5, 53, 120
9, 126912, Note_on_c, 5, 53, 0
9, 126920, Note_on_c, 5, 53, 127
9, 126952, Note_on_c, 5, 53, 0
9, 126960, Note_on_c, 5, 65, 103
9, 126992, Note_on_c, 5, 65, 0
9, 127000, Note_on_c, 5, 65, 102
9, 127032, Note_on_c, 5, 65, 0
9, 127040, Note_on_c, 5, 65, 107
9, 127072, Note_on_c, 5, 65, 0
9, 127080, Note_on_c, 5, 53, 120
9, 127112, Note_on_c, 5, 53, 0
9, 127120, Note_on_c, 5, 53, 123
9, 127152, Note_on_c, 5, 53, 0
9, 127160, Note_on_c, 5, 53, 121
9, 127192, Note_on_c, 5, 53, 0
9, 127200, Note_on_c, 5, 52, 116
9, 127232, Note_on_c, 5, 52, 0
9, 127240, Note_on_c, 5, 52, 127
9, 127272, Note_on_c, 5, 52, 0
9, 127280, Note_on_c, 5, 52, 121
9, 127312, Note_on_c, 5, 52, 0
9, 127320, Note_on_c, 5, 52, 123
9, 127352, Note_on_c, 5, 52, 0
9, 127360, Note_on_c, 5, 52, 120
9, 127392, Note_on_c, 5, 52, 0
9, 127400, Note_on_c, 5, 52, 114
9, 127432, Note_on_c, 5, 52, 0
9, 127440, Note_on_c, 5, 53, 113
9, 127536, Note_on_c, 5, 53, 0
9, 127620, Note_on_c, 5, 57, 105
9, 127644, Note_on_c, 5, 57, 0
9, 127650, Note_on_c, 5, 55, 103
9, 127674, Note_on_c, 5, 55, 0
9, 127680, Note_on_c, 5, 53, 113
9, 127728, Note_on_c, 5, 53, 0
9, 127740, Note_on_c, 5, 57, 118
9, 127764, Note_on_c, 5, 57, 0
9, 127770, Note_on_c, 5, 55, 109
9, 127794, Note_on_c, 5, 55, 0
9, 127800, Note_on_c, 5, 53, 127
9, 127848, Note_on_c, 5, 53, 0
9, 127860, Note_on_c, 5, 62, 127
9, 127884, Note_on_c, 5, 62, 0
9, 127890, Note_on_c, 5, 59, 103
9, 127914, Note_on_c, 5, 59, 0
9, 127920, Note_on_c, 5, 60, 109
9, 128016, Note_on_c, 5, 60, 0
9, 128100, Note_on_c, 5, 62, 127
9, 128124, Note_on_c, 5, 62, 0
9, 128130, Note_on_c, 5, 60, 116
9, 128154, Note_on_c, 5, 60, 0
9, 128160, Note_on_c, 5, 57, 108
9, 128208, Note_on_c, 5, 57, 0
9, 128220, Note_on_c, 5, 60, 110
9, 128244, Note_on_c, 5, 60, 0
9, 128250, Note_on_c, 5, 58, 103
9, 128274, Note_on_c, 5, 58, 0
9, 128280, Note_on_c, 5, 55, 111
9, 128328, Note_on_c, 5, 55, 0
9, 128340, Note_on_c, 5, 58, 107
9, 128364, Note_on_c, 5, 58, 0
9, 128370, Note_on_c, 5, 57, 121
9, 128394, Note_on_c, 5, 57, 0
9, 128400, Note_on_c, 5, 53, 125
9, 128496, Note_on_c, 5, 53, 0
9, 128580, Note_on_c, 5, 57, 117
9, 128604, Note_on_c, 5, 57, 0
9, 128610, Note_on_c, 5, 55, 101
9, 128634, Note_on_c, 5, 55, 0
9, 128640, Note_on_c, 5, 53, 111
9, 128688, Note_on_c, 5, 53, 0
9, 128700, Note_on_c, 5, 57, 117
9, 128724, Note_on_c, 5, 57, 0
9, 128730, Note_on_c, 5, 55, 121
9, 128754, Note_on_c, 5, 55, 0
9, 128760, Note_on_c, 5, 53, 127
9, 128808, Note_on_c, 5, 53, 0
9, 128820, Note_on_c, 5, 62, 99
9, 128844, Note_on_c, 5, 62, 0
9, 128850, Note_on_c, 5, 59, 118
9, 128874, Note_on_c, 5, 59, 0
9, 128880, Note_on_c, 5, 60, 110
9, 128976, Note_on_c, 5, 60, 0
9, 129060, Note_on_c, 5, 62, 103
9, 129084, Note_on_c, 5, 62, 0
9, 129090, Note_on_c, 5, 60, 103
9, 129114, Note_on_c, 5, 60, 0
9, 129120, Note_on_c, 5, 57, 123
9, 129176, Note_on_c, 5, 57, 0
9, 129180, Note_on_c, 5, 60, 118
9, 129204, Note_on_c, 5, 60, 0
9, 129210, Note_on_c, 5, 58, 109
9, 129234, Note_on_c, 5, 58, 0
9, 129240, Note_on_c, 5, 55, 118
9, 129288, Note_on_c, 5, 55, 0
9, 129300, Note_on_c, 5, 58, 118
9, 129324, Note_on_c, 5, 58, 0
9, 129330, Note_on_c, 5, 57, 111
9, 129354, Note_on_c, 5, 57, 0
9, 129360, Note_on_c, 5, 53, 105
9, 129408, Note_on_c, 5, 53, 0
9, 130320, Note_on_c, 5, 53, 118
9, 130368, Note_on_c, 5, 53, 0
9, 130380, Note_on_c, 5, 60, 105
9, 130404, Note_on_c, 5, 60, 0
9, 130410, Note_on_c, 5, 57, 116
9, 130434, Note_on_c, 5, 57, 0
9, 130440, Note_on_c, 5, 55, 120
9, 130488, Note_on_c, 5, 55, 0
9, 130500, Note_on_c, 5, 60, 120
9, 130524, Note_on_c, 5, 60, 0
9, 130530, Note_on_c, 5, 58, 101
9, 130554, Note_on_c, 5, 58, 0
9, 130560, Note_on_c, 5, 53, 116
9, 130608, Note_on_c, 5, 53, 0
9, 130620, Note_on_c, 5, 60, 117
9, 130644, Note_on_c, 5, 60, 0
9, 130650, Note_on_c, 5, 57, 108
9, 130674, Note_on_c, 5, 57, 0
9, 130680, Note_on_c, 5, 55, 103
9, 130728, Note_on_c, 5, 55, 0
9, 130740, Note_on_c, 5, 60, 112
9, 130764, Note_on_c, 5, 60, 0
9, 130770, Note_on_c, 5, 58, 109
9, 130794, Note_on_c, 5, 58, 0
9, 130800, Note_on_c, 5, 53, 120
9, 130848, Note_on_c, 5, 53, 0
9, 130860, Note_on_c, 5, 60, 99
9, 130884, Note_on_c, 5, 60, 0
9, 130890, Note_on_c, 5, 57, 112
9, 130914, Note_on_c, 5, 57, 0
9, 130920, Note_on_c, 5, 55, 120
9, 130968, Note_on_c, 5, 55, 0
9, 130980, Note_on_c, 5, 60, 127
9, 131004, Note_on_c, 5, 60, 0
9, 131010, Note_on_c, 5, 58, 118
9, 131034, Note_on_c, 5, 58, 0
9, 131040, Note_on_c, 5, 53, 117
9, 131088, Note_on_c, 5, 53, 0
9, 131100, Note_on_c, 5, 60, 120
9, 131124, Note_on_c, 5, 60, 0
9, 131130, Note_on_c, 5, 57, 109
9, 131154, Note_on_c, 5, 57, 0
9, 131160, Note_on_c, 5, 55, 116
9, 131208, Note_on_c, 5, 55, 0
9, 131220, Note_on_c, 5, 60, 113
9, 131244, Note_on_c, 5, 60, 0
9, 131250, Note_on_c, 5, 58, 113
9, 131274, Note_on_c, 5, 58, 0
9, 131280, Note_on_c, 5, 53, 112
9, 131376, Note_on_c, 5, 53, 0
9, 131400, Note_on_c, 5, 48, 104
9, 131496, Note_on_c, 5, 48, 0
9, 131520, Note_on_c, 5, 53, 120
9, 131616, Note_on_c, 5, 53, 0
9, 131640, Note_on_c, 5, 48, 109
9, 131736, Note_on_c, 5, 48, 0
9, 131760, Note_on_c, 5, 53, 113
9, 131856, Note_on_c, 5, 53, 0
9, 131880, Note_on_c, 5, 48, 107
9, 131976, Note_on_c, 5, 48, 0
9, 132000, Note_on_c, 5, 53, 127
9, 132096, Note_on_c, 5, 53, 0
9, 132120, Note_on_c, 5, 48, 118
9, 132216, Note_on_c, 5, 48, 0
9, 132240, Note_on_c, 5, 53, 113
9, 132288, Note_on_c, 5, 53, 0
9, 133020, Note_on_c, 5, 62, 107
9, 133068, Note_on_c, 5, 62, 0
9, 133080, Note_on_c, 5, 63, 115
9, 133128, Note_on_c, 5, 63, 0
9, 133140, Note_on_c, 5, 67, 109
9, 133188, Note_on_c, 5, 67, 0
9, 134220, Note_on_c, 5, 65, 118
9, 134268, Note_on_c, 5, 65, 0
9, 134280, Note_on_c, 5, 63, 115
9, 134328, Note_on_c, 5, 63, 0
9, 134340, Note_on_c, 5, 58, 111
9, 134388, Note_on_c, 5, 58, 0
9, 134400, Note_on_c, 5, 65, 118
9, 134448, Note_on_c, 5, 65, 0
9, 134460, Note_on_c, 5, 58, 103
9, 134508, Note_on_c, 5, 58, 0
9, 134520, Note_on_c, 5, 57, 95
9, 134568, Note_on_c, 5, 57, 0
9, 134580, Note_on_c, 5, 60, 103
9, 134628, Note_on_c, 5, 60, 0
9, 134640, Note_on_c, 5, 53, 101
9, 134688, Note_on_c, 5, 53, 0
9, 134700, Note_on_c, 5, 57, 121
9, 134748, Note_on_c, 5, 57, 0
9, 134760, Note_on_c, 5, 58, 109
9, 134808, Note_on_c, 5, 58, 0
9, 134820, Note_on_c, 5, 57, 125
9, 134844, Note_on_c, 5, 57, 0
9, 134850, Note_on_c, 5, 58, 103
9, 134874, Note_on_c, 5, 58, 0
9, 134880, Note_on_c, 5, 60, 118
9, 134928, Note_on_c, 5, 60, 0
9, 134940, Note_on_c, 5, 55, 118
9, 134988, Note_on_c, 5, 55, 0
9, 135000, Note_on_c, 5, 53, 111
9, 135048, Note_on_c, 5, 53, 0
9, 135060, Note_on_c, 5, 60, 107
9, 135108, Note_on_c, 5, 60, 0
9, 135120, Note_on_c, 5, 62, 127
9, 135168, Note_on_c, 5, 62, 0
9, 135360, Note_on_c, 5, 53, 113
9, 135456, Note_on_c, 5, 53, 0
9, 135600, Note_on_c, 5, 53, 103
9, 135632, Note_on_c, 5, 53, 0
9, 135640, Note_on_c, 5, 58, 107
9, 135672, Note_on_c, 5, 58, 0
9, 135680, Note_on_c, 5, 58, 100
9, 135712, Note_on_c, 5, 58, 0
9, 135720, Note_on_c, 5, 58, 90
9, 135816, Note_on_c, 5, 58, 0
9, 136080, Note_on_c, 5, 58, 107
9, 136112, Note_on_c, 5, 58, 0
9, 136120, Note_on_c, 5, 58, 94
9, 136152, Note_on_c, 5, 58, 0
9, 136160, Note_on_c, 5, 58, 113
9, 136192, Note_on_c, 5, 58, 0
9, 136200, Note_on_c, 5, 58, 105
9, 136592, Note_on_c, 5, 58, 0
9, 136600, Note_on_c, 5, 58, 94
9, 136632, Note_on_c, 5, 58, 0
9, 136640, Note_on_c, 5, 58, 113
9, 136672, Note_on_c, 5, 58, 0
9, 136680, Note_on_c, 5, 58, 105
9, 137072, Note_on_c, 5, 58, 0
9, 137080, Note_on_c, 5, 58, 94
9, 137112, Note_on_c, 5, 58, 0
9, 137120, Note_on_c, 5, 58, 113
9, 137152, Note_on_c, 5, 58, 0
9, 137160, Note_on_c, 5, 58, 105
9, 137552, Note_on_c, 5, 58, 0
9, 137560, Note_on_c, 5, 58, 113
9, 137592, Note_on_c, 5, 58, 0
9, 137600, Note_on_c, 5, 58, 109
9, 137632, Note_on_c, 5, 58, 0
9, 137640, Note_on_c, 5, 58, 103
9, 137792, Note_on_c, 5, 58, 0
9, 137800, Note_on_c, 5, 55, 127
9, 137832, Note_on_c, 5, 55, 0
9, 137840, Note_on_c, 5, 55, 123
9, 137872, Note_on_c, 5, 55, 0
9, 137880, Note_on_c, 5, 55, 127
9, 138032, Note_on_c, 5, 55, 0
9, 138040, Note_on_c, 5, 52, 117
9, 138072, Note_on_c, 5, 52, 0
9, 138080, Note_on_c, 5, 52, 113
9, 138112, Note_on_c, 5, 52, 0
9, 138120, Note_on_c, 5, 52, 116
9, 138272, Note_on_c, 5, 52, 0
9, 138280, Note_on_c, 5, 48, 103
9, 138312, Note_on_c, 5, 48, 0
9, 138320, Note_on_c, 5, 48, 116
9, 138352, Note_on_c, 5, 48, 0
9, 138360, Note_on_c, 5, 48, 112
9, 138456, Note_on_c, 5, 48, 0
9, 138480, Note_on_c, 5, 53, 112
9, 138632, Note_on_c, 5, 53, 0
9, 138640, Note_on_c, 5, 57, 107
9, 138672, Note_on_c, 5, 57, 0
9, 138680, Note_on_c, 5, 55, 75
9, 138712, Note_on_c, 5, 55, 0
9, 138720, Note_on_c, 5, 53, 113
9, 138752, Note_on_c, 5, 53, 0
9, 138760, Note_on_c, 5, 57, 117
9, 138792, Note_on_c, 5, 57, 0
9, 138800, Note_on_c, 5, 55, 108
9, 138832, Note_on_c, 5, 55, 0
9, 138840, Note_on_c, 5, 53, 98
9, 138872, Note_on_c, 5, 53, 0
9, 138880, Note_on_c, 5, 62, 104
9, 138912, Note_on_c, 5, 62, 0
9, 138920, Note_on_c, 5, 59, 109
9, 138952, Note_on_c, 5, 59, 0
9, 138960, Note_on_c, 5, 60, 99
9, 139112, Note_on_c, 5, 60, 0
9, 139120, Note_on_c, 5, 62, 118
9, 139152, Note_on_c, 5, 62, 0
9, 139160, Note_on_c, 5, 60, 107
9, 139192, Note_on_c, 5, 60, 0
9, 139200, Note_on_c, 5, 57, 110
9, 139232, Note_on_c, 5, 57, 0
9, 139240, Note_on_c, 5, 60, 127
9, 139272, Note_on_c, 5, 60, 0
9, 139280, Note_on_c, 5, 58, 83
9, 139312, Note_on_c, 5, 58, 0
9, 139320, Note_on_c, 5, 55, 109
9, 139352, Note_on_c, 5, 55, 0
9, 139360, Note_on_c, 5, 58, 83
9, 139392, Note_on_c, 5, 58, 0
9, 139400, Note_on_c, 5, 57, 100
9, 139432, Note_on_c, 5, 57, 0
9, 139440, Note_on_c, 5, 53, 107
9, 139592, Note_on_c, 5, 53, 0
9, 139600, Note_on_c, 5, 57, 121
9, 139632, Note_on_c, 5, 57, 0
9, 139640, Note_on_c, 5, 55, 109
9, 139672, Note_on_c, 5, 55, 0
9, 139680, Note_on_c, 5, 53, 110
9, 139712, Note_on_c, 5, 53, 0
9, 139720, Note_on_c, 5, 57, 125
9, 139752, Note_on_c, 5, 57, 0
9, 139760, Note_on_c, 5, 55, 106
9, 139792, Note_on_c, 5, 55, 0
9, 139800, Note_on_c, 5, 53, 112
9, 139832, Note_on_c, 5, 53, 0
9, 139840, Note_on_c, 5, 62, 127
9, 139872, Note_on_c, 5, 62, 0
9, 139880, Note_on_c, 5, 59, 98
9, 139912, Note_on_c, 5, 59, 0
9, 139920, Note_on_c, 5, 60, 100
9, 140072, Note_on_c, 5, 60, 0
9, 140080, Note_on_c, 5, 62, 117
9, 140112, Note_on_c, 5, 62, 0
9, 140120, Note_on_c, 5, 60, 109
9, 140152, Note_on_c, 5, 60, 0
9, 140160, Note_on_c, 5, 57, 113
9, 140192, Note_on_c, 5, 57, 0
9, 140200, Note_on_c, 5, 60, 114
9, 140232, Note_on_c, 5, 60, 0
9, 140240, Note_on_c, 5, 58, 100
9, 140272, Note_on_c, 5, 58, 0
9, 140280, Note_on_c, 5, 55, 107
9, 140312, Note_on_c, 5, 55, 0
9, 140320, Note_on_c, 5, 58, 99
9, 140352, Note_on_c, 5, 58, 0
9, 140360, Note_on_c, 5, 57, 112
9, 140392, Note_on_c, 5, 57, 0
9, 140400, Note_on_c, 5, 53, 107
9, 140552, Note_on_c, 5, 53, 0
9, 140560, Note_on_c, 5, 69, 117
9, 140560, Note_on_c, 5, 65, 117
9, 140592, Note_on_c, 5, 65, 0
9, 140592, Note_on_c, 5, 69, 0
9, 140600, Note_on_c, 5, 69, 114
9, 140600, Note_on_c, 5, 65, 114
9, 140632, Note_on_c, 5, 65, 0
9, 140632, Note_on_c, 5, 69, 0
9, 140640, Note_on_c, 5, 69, 99
9, 140640, Note_on_c, 5, 65, 99
9, 140760, Note_on_c, 5, 65, 100
9, 140792, Note_on_c, 5, 65, 0
9, 140792, Note_on_c, 5, 69, 0
9, 140800, Note_on_c, 5, 69, 106
9, 140800, Note_on_c, 5, 65, 106
9, 140832, Note_on_c, 5, 65, 0
9, 140832, Note_on_c, 5, 69, 0
9, 140840, Note_on_c, 5, 69, 111
9, 140840, Note_on_c, 5, 65, 111
9, 140872, Note_on_c, 5, 65, 0
9, 140872, Note_on_c, 5, 69, 0
9, 140880, Note_on_c, 5, 72, 101
9, 140880, Note_on_c, 5, 69, 101
9, 141032, Note_on_c, 5, 69, 0
9, 141032, Note_on_c, 5, 72, 0
9, 141040, Note_on_c, 5, 72, 108
9, 141040, Note_on_c, 5, 69, 108
9, 141072, Note_on_c, 5, 69, 0
9, 141072, Note_on_c, 5, 72, 0
9, 141080, Note_on_c, 5, 72, 113
9, 141080, Note_on_c, 5, 69, 113
9, 141112, Note_on_c, 5, 69, 0
9, 141112, Note_on_c, 5, 72, 0
9, 141120, Note_on_c, 5, 67, 102
9, 141120, Note_on_c, 5, 64, 102
9, 141216, Note_on_c, 5, 67, 0
9, 141240, Note_on_c, 5, 67, 103
9, 141272, Note_on_c, 5, 67, 0
9, 141272, Note_on_c, 5, 64, 0
9, 141280, Note_on_c, 5, 67, 104
9, 141280, Note_on_c, 5, 64, 104
9, 141312, Note_on_c, 5, 64, 0
9, 141312, Note_on_c, 5, 67, 0
9, 141320, Note_on_c, 5, 67, 107
9, 141320, Note_on_c, 5, 64, 107
9, 141352, Note_on_c, 5, 64, 0
9, 141352, Note_on_c, 5, 67, 0
9, 141360, Note_on_c, 5, 69, 111
9, 141360, Note_on_c, 5, 65, 111
9, 141512, Note_on_c, 5, 65, 0
9, 141512, Note_on_c, 5, 69, 0
9, 141520, Note_on_c, 5, 69, 108
9, 141520, Note_on_c, 5, 65, 108
9, 141552, Note_on_c, 5, 65, 0
9, 141552, Note_on_c, 5, 69, 0
9, 141560, Note_on_c, 5, 69, 109
9, 141560, Note_on_c, 5, 65, 109
9, 141592, Note_on_c, 5, 65, 0
9, 141592, Note_on_c, 5, 69, 0
9, 141600, Note_on_c, 5, 69, 118
9, 141600, Note_on_c, 5, 65, 118
9, 141752, Note_on_c, 5, 65, 0
9, 141752, Note_on_c, 5, 69, 0
9, 141760, Note_on_c, 5, 69, 109
9, 141760, Note_on_c, 5, 65, 109
9, 141792, Note_on_c, 5, 65, 0
9, 141792, Note_on_c, 5, 69, 0
9, 141800, Note_on_c, 5, 69, 106
9, 141800, Note_on_c, 5, 65, 106
9, 141832, Note_on_c, 5, 65, 0
9, 141832, Note_on_c, 5, 69, 0
9, 141840, Note_on_c, 5, 72, 100
9, 141840, Note_on_c, 5, 69, 100
9, 141992, Note_on_c, 5, 69, 0
9, 141992, Note_on_c, 5, 72, 0
9, 142000, Note_on_c, 5, 72, 108
9, 142000, Note_on_c, 5, 69, 108
9, 142032, Note_on_c, 5, 69, 0
9, 142032, Note_on_c, 5, 72, 0
9, 142040, Note_on_c, 5, 72, 110
9, 142040, Note_on_c, 5, 69, 110
9, 142072, Note_on_c, 5, 69, 0
9, 142072, Note_on_c, 5, 72, 0
9, 142080, Note_on_c, 5, 67, 113
9, 142080, Note_on_c, 5, 64, 113
9, 142232, Note_on_c, 5, 64, 0
9, 142232, Note_on_c, 5, 67, 0
9, 142240, Note_on_c, 5, 67, 120
9, 142240, Note_on_c, 5, 64, 120
9, 142272, Note_on_c, 5, 64, 0
9, 142272, Note_on_c, 5, 67, 0
9, 142280, Note_on_c, 5, 67, 116
9, 142280, Note_on_c, 5, 64, 116
9, 142312, Note_on_c, 5, 64, 0
9, 142312, Note_on_c, 5, 67, 0
9, 142320, Note_on_c, 5, 69, 113
9, 142320, Note_on_c, 5, 65, 113
9, 142472, Note_on_c, 5, 65, 0
9, 142472, Note_on_c, 5, 69, 0
9, 142480, Note_on_c, 5, 69, 101
9, 142480, Note_on_c, 5, 65, 101
9, 142512, Note_on_c, 5, 65, 0
9, 142512, Note_on_c, 5, 69, 0
9, 142520, Note_on_c, 5, 69, 102
9, 142520, Note_on_c, 5, 65, 102
9, 142552, Note_on_c, 5, 65, 0
9, 142552, Note_on_c, 5, 69, 0
9, 142560, Note_on_c, 5, 69, 109
9, 142560, Note_on_c, 5, 65, 109
9, 142712, Note_on_c, 5, 65, 0
9, 142712, Note_on_c, 5, 69, 0
9, 142720, Note_on_c, 5, 69, 107
9, 142720, Note_on_c, 5, 65, 107
9, 142752, Note_on_c, 5, 65, 0
9, 142752, Note_on_c, 5, 69, 0
9, 142760, Note_on_c, 5, 69, 112
9, 142760, Note_on_c, 5, 65, 112
9, 142792, Note_on_c, 5, 65, 0
9, 142792, Note_on_c, 5, 69, 0
9, 142800, Note_on_c, 5, 72, 125
9, 142800, Note_on_c, 5, 69, 125
9, 142952, Note_on_c, 5, 69, 0
9, 142952, Note_on_c, 5, 72, 0
9, 142960, Note_on_c, 5, 72, 121
9, 142960, Note_on_c, 5, 69, 121
9, 142992, Note_on_c, 5, 69, 0
9, 142992, Note_on_c, 5, 72, 0
9, 143000, Note_on_c, 5, 72, 120
9, 143000, Note_on_c, 5, 69, 120
9, 143032, Note_on_c, 5, 69, 0
9, 143032, Note_on_c, 5, 72, 0
9, 143040, Note_on_c, 5, 72, 116
9, 143040, Note_on_c, 5, 69, 116
9, 143192, Note_on_c, 5, 69, 0
9, 143192, Note_on_c, 5, 72, 0
9, 143200, Note_on_c, 5, 72, 121
9, 143200, Note_on_c, 5, 69, 121
9, 143232, Note_on_c, 5, 69, 0
9, 143232, Note_on_c, 5, 72, 0
9, 143240, Note_on_c, 5, 72, 123
9, 143240, Note_on_c, 5, 69, 123
9, 143272, Note_on_c, 5, 69, 0
9, 143272, Note_on_c, 5, 72, 0
9, 143280, Note_on_c, 5, 72, 121
9, 143280, Note_on_c, 5, 69, 121
9, 143432, Note_on_c, 5, 69, 0
9, 143432, Note_on_c, 5, 72, 0
9, 143440, Note_on_c, 5, 70, 90
9, 143440, Note_on_c, 5, 67, 90
9, 143472, Note_on_c, 5, 67, 0
9, 143472, Note_on_c, 5, 70, 0
9, 143480, Note_on_c, 5, 70, 101
9, 143480, Note_on_c, 5, 67, 101
9, 143512, Note_on_c, 5, 67, 0
9, 143512, Note_on_c, 5, 70, 0
9, 143520, Note_on_c, 5, 70, 94
9, 143520, Note_on_c, 5, 67, 94
9, 143672, Note_on_c, 5, 67, 0
9, 143672, Note_on_c, 5, 70, 0
9, 143680, Note_on_c, 5, 69, 125
9, 143680, Note_on_c, 5, 65, 125
9, 143712, Note_on_c, 5, 65, 0
9, 143712, Note_on_c, 5, 69, 0
9, 143720, Note_on_c, 5, 69, 118
9, 143720, Note_on_c, 5, 65, 118
9, 143752, Note_on_c, 5, 65, 0
9, 143752, Note_on_c, 5, 69, 0
9, 143760, Note_on_c, 5, 69, 111
9, 143760, Note_on_c, 5, 65, 111
9, 143912, Note_on_c, 5, 65, 0
9, 143912, Note_on_c, 5, 69, 0
9, 143920, Note_on_c, 5, 67, 108
9, 143920, Note_on_c, 5, 64, 108
9, 143952, Note_on_c, 5, 64, 0
9, 143952, Note_on_c, 5, 67, 0
9, 143960, Note_on_c, 5, 67, 109
9, 143960, Note_on_c, 5, 64, 109
9, 143992, Note_on_c, 5, 64, 0
9, 143992, Note_on_c, 5, 67, 0
9, 144000, Note_on_c, 5, 67, 109
9, 144000, Note_on_c, 5, 64, 109
9, 144152, Note_on_c, 5, 64, 0
9, 144152, Note_on_c, 5, 67, 0
9, 144160, Note_on_c, 5, 65, 100
9, 144160, Note_on_c, 5, 62, 100
9, 144192, Note_on_c, 5, 62, 0
9, 144192, Note_on_c, 5, 65, 0
9, 144200, Note_on_c, 5, 65, 103
9, 144200, Note_on_c, 5, 62, 103
9, 144232, Note_on_c, 5, 62, 0
9, 144232, Note_on_c, 5, 65, 0
9, 144240, Note_on_c, 5, 65, 112
9, 144240, Note_on_c, 5, 62, 112
9, 144392, Note_on_c, 5, 62, 0
9, 144392, Note_on_c, 5, 65, 0
9, 144400, Note_on_c, 5, 64, 103
9, 144400, Note_on_c, 5, 60, 103
9, 144432, Note_on_c, 5, 60, 0
9, 144432, Note_on_c, 5, 64, 0
9, 144440, Note_on_c, 5, 64, 107
9, 144440, Note_on_c, 5, 60, 107
9, 144472, Note_on_c, 5, 60, 0
9, 144472, Note_on_c, 5, 64, 0
9, 144480, Note_on_c, 5, 64, 110
9, 144480, Note_on_c, 5, 60, 110
9, 144632, Note_on_c, 5, 60, 0
9, 144632, Note_on_c, 5, 64, 0
9, 144640, Note_on_c, 5, 62, 109
9, 144640, Note_on_c, 5, 58, 109
9, 144672, Note_on_c, 5, 58, 0
9, 144672, Note_on_c, 5, 62, 0
9, 144680, Note_on_c, 5, 62, 109
9, 144680, Note_on_c, 5, 58, 109
9, 144712, Note_on_c, 5, 58, 0
9, 144712, Note_on_c, 5, 62, 0
9, 144720, Note_on_c, 5, 62, 107
9, 144720, Note_on_c, 5, 58, 107
9, 144872, Note_on_c, 5, 58, 0
9, 144872, Note_on_c, 5, 62, 0
9, 144880, Note_on_c, 5, 60, 109
9, 144880, Note_on_c, 5, 57, 109
9, 144912, Note_on_c, 5, 57, 0
9, 144912, Note_on_c, 5, 60, 0
9, 144920, Note_on_c, 5, 60, 113
9, 144920, Note_on_c, 5, 57, 113
9, 144952, Note_on_c, 5, 57, 0
9, 144952, Note_on_c, 5, 60, 0
9, 144960, Note_on_c, 5, 60, 113
9, 144960, Note_on_c, 5, 57, 113
9, 145112, Note_on_c, 5, 57, 0
9, 145112, Note_on_c, 5, 60, 0
9, 145120, Note_on_c, 5, 58, 94
9, 145120, Note_on_c, 5, 55, 94
9, 145152, Note_on_c, 5, 55, 0
9, 145152, Note_on_c, 5, 58, 0
9, 145160, Note_on_c, 5, 58, 86
9, 145160, Note_on_c, 5, 55, 86
9, 145192, Note_on_c, 5, 55, 0
9, 145192, Note_on_c, 5, 58, 0
9, 145200, Note_on_c, 5, 58, 96
9, 145248, Note_on_c, 5, 58, 0
9, 145260, Note_on_c, 5, 55, 101
9, 145284, Note_on_c, 5, 55, 0
9, 145290, Note_on_c, 5, 53, 87
9, 145314, Note_on_c, 5, 53, 0
9, 145320, Note_on_c, 5, 52, 96
9, 145368, Note_on_c, 5, 52, 0
9, 145380, Note_on_c, 5, 48, 107
9, 145428, Note_on_c, 5, 48, 0
9, 145440, Note_on_c, 5, 53, 103
9, 145632, Note_on_c, 5, 53, 0
9, 145680, Note_on_c, 5, 55, 107
9, 145824, Note_on_c, 5, 55, 0
9, 145860, Note_on_c, 5, 67, 105
9, 145908, Note_on_c, 5, 67, 0
9, 145920, Note_on_c, 5, 65, 105
9, 145968, Note_on_c, 5, 65, 0
9, 146040, Note_on_c, 5, 48, 97
9, 146088, Note_on_c, 5, 48, 0
9, 146160, Note_on_c, 5, 58, 103
9, 146208, Note_on_c, 5, 58, 0
9, 146220, Note_on_c, 5, 55, 109
9, 146244, Note_on_c, 5, 55, 0
9, 146250, Note_on_c, 5, 53, 104
9, 146274, Note_on_c, 5, 53, 0
9, 146280, Note_on_c, 5, 52, 111
9, 146328, Note_on_c, 5, 52, 0
9, 146340, Note_on_c, 5, 48, 112
9, 146388, Note_on_c, 5, 48, 0
9, 146400, Note_on_c, 5, 53, 117
9, 146625, Note_on_c, 5, 53, 0
9, 146640, Note_on_c, 5, 55, 114
9, 146784, Note_on_c, 5, 55, 0
9, 146820, Note_on_c, 5, 67, 103
9, 146868, Note_on_c, 5, 67, 0
9, 146880, Note_on_c, 5, 65, 117
9, 146928, Note_on_c, 5, 65, 0
9, 147000, Note_on_c, 5, 48, 100
9, 147048, Note_on_c, 5, 48, 0
9, 147120, Note_on_c, 5, 53, 103
9, 147168, Note_on_c, 5, 53, 0
9, 147840, Note_on_c, 5, 67, 97
9, 147984, Note_on_c, 5, 67, 0
9, 148020, Note_on_c, 5, 67, 120
9, 148068, Note_on_c, 5, 67, 0
9, 148080, Note_on_c, 5, 69, 104
9, 148080, Note_on_c, 5, 60, 103
9, 148128, Note_on_c, 5, 60, 0
9, 148128, Note_on_c, 5, 69, 0
9, 148800, Note_on_c, 5, 67, 94
9, 148944, Note_on_c, 5, 67, 0
9, 148980, Note_on_c, 5, 67, 103
9, 149028, Note_on_c, 5, 67, 0
9, 149040, Note_on_c, 5, 60, 92
9, 149040, Note_on_c, 5, 69, 99
9, 149088, Note_on_c, 5, 69, 0
9, 149088, Note_on_c, 5, 60, 0
9, 149280, Note_on_c, 5, 67, 94
9, 149424, Note_on_c, 5, 67, 0
9, 149460, Note_on_c, 5, 67, 103
9, 149508, Note_on_c, 5, 67, 0
9, 149520, Note_on_c, 5, 69, 99
9, 149520, Note_on_c, 5, 60, 92
9, 149568, Note_on_c, 5, 60, 0
9, 149568, Note_on_c, 5, 69, 0
9, 149760, Note_on_c, 5, 67, 94
9, 149904, Note_on_c, 5, 67, 0
9, 149940, Note_on_c, 5, 67, 103
9, 149988, Note_on_c, 5, 67, 0
9, 150000, Note_on_c, 5, 69, 99
9, 150000, Note_on_c, 5, 60, 92
9, 150048, Note_on_c, 5, 60, 0
9, 150048, Note_on_c, 5, 69, 0
9, 150240, Note_on_c, 5, 48, 113
9, 150288, Note_on_c, 5, 48, 0
9, 150480, Note_on_c, 5, 48, 113
9, 150528, Note_on_c, 5, 48, 0
9, 150720, Note_on_c, 5, 48, 113
9, 150768, Note_on_c, 5, 48, 0
9, 150960, Note_on_c, 5, 48, 113
9, 151008, Note_on_c, 5, 48, 0
9, 154080, Note_on_c, 5, 58, 118
9, 154128, Note_on_c, 5, 58, 0
9, 154140, Note_on_c, 5, 60, 121
9, 154188, Note_on_c, 5, 60, 0
9, 154200, Note_on_c, 5, 62, 118
9, 154248, Note_on_c, 5, 62, 0
9, 154260, Note_on_c, 5, 64, 113
9, 154308, Note_on_c, 5, 64, 0
9, 154320, Note_on_c, 5, 65, 110
9, 154512, Note_on_c, 5, 65, 0
9, 154560, Note_on_c, 5, 48, 113
9, 154560, Note_on_c, 5, 60, 109
9, 154752, Note_on_c, 5, 60, 0
9, 154752, Note_on_c, 5, 48, 0
9, 154800, Note_on_c, 5, 53, 111
9, 154992, Note_on_c, 5, 53, 0
9, 155040, Note_on_c, 5, 48, 109
9, 155040, Note_on_c, 5, 65, 101
9, 155040, Note_on_c, 5, 57, 107
9, 155136, Note_on_c, 5, 57, 0
9, 155136, Note_on_c, 5, 65, 0
9, 155136, Note_on_c, 5, 48, 0
9, 155160, Note_on_c, 5, 48, 120
9, 155160, Note_on_c, 5, 65, 103
9, 155160, Note_on_c, 5, 57, 101
9, 155256, Note_on_c, 5, 57, 0
9, 155256, Note_on_c, 5, 65, 0
9, 155256, Note_on_c, 5, 48, 0
9, 155280, Note_on_c, 5, 48, 80
9, 155280, Note_on_c, 5, 57, 80
9, 155280, Note_on_c, 5, 65, 100
9, 155376, Note_on_c, 5, 57, 0
9, 155376, Note_on_c, 5, 48, 0
9, 155472, Note_on_c, 5, 65, 0
9, 155520, Note_on_c, 5, 53, 111
9, 155520, Note_on_c, 5, 48, 109
9, 155712, Note_on_c, 5, 48, 0
9, 155712, Note_on_c, 5, 53, 0
9, 155760, Note_on_c, 5, 53, 116
9, 155760, Note_on_c, 5, 48, 112
9, 155952, Note_on_c, 5, 48, 0
9, 155952, Note_on_c, 5, 53, 0
9, 173407, Note_on_c, 5, 65, 0
9, 173407, End_track
10, 0, Start_track
10, 0, MIDI_port, 0
10, 0, Title_t, "Cello"
10, 0, Program_c, 6, 42
10, 0, Control_c, 6, 7, 113
10, 0, Note_on_c, 6, 41, 101
10, 672, Note_on_c, 6, 41, 0
10, 720, Note_on_c, 6, 36, 101
10, 912, Note_on_c, 6, 36, 0
10, 960, Note_on_c, 6, 41, 101
10, 1392, Note_on_c, 6, 41, 0
10, 1440, Note_on_c, 6, 41, 127
10, 1872, Note_on_c, 6, 41, 0
10, 1920, Note_on_c, 6, 53, 121
10, 2016, Note_on_c, 6, 53, 0
10, 2040, Note_on_c, 6, 57, 117
10, 2136, Note_on_c, 6, 57, 0
10, 2160, Note_on_c, 6, 55, 106
10, 2304, Note_on_c, 6, 55, 0
10, 2340, Note_on_c, 6, 53, 118
10, 2388, Note_on_c, 6, 53, 0
10, 2400, Note_on_c, 6, 46, 99
10, 2496, Note_on_c, 6, 46, 0
10, 2520, Note_on_c, 6, 53, 123
10, 2616, Note_on_c, 6, 53, 0
10, 2640, Note_on_c, 6, 48, 127
10, 2832, Note_on_c, 6, 48, 0
10, 2880, Note_on_c, 6, 41, 127
10, 2976, Note_on_c, 6, 41, 0
10, 3000, Note_on_c, 6, 45, 127
10, 3096, Note_on_c, 6, 45, 0
10, 3120, Note_on_c, 6, 43, 125
10, 3264, Note_on_c, 6, 43, 0
10, 3300, Note_on_c, 6, 41, 106
10, 3348, Note_on_c, 6, 41, 0
10, 3360, Note_on_c, 6, 46, 118
10, 3456, Note_on_c, 6, 46, 0
10, 3480, Note_on_c, 6, 41, 108
10, 3576, Note_on_c, 6, 41, 0
10, 3600, Note_on_c, 6, 48, 127
10, 3744, Note_on_c, 6, 48, 0
10, 3780, Note_on_c, 6, 48, 118
10, 3828, Note_on_c, 6, 48, 0
10, 3840, Note_on_c, 6, 48, 127
10, 3984, Note_on_c, 6, 48, 0
10, 4020, Note_on_c, 6, 52, 118
10, 4068, Note_on_c, 6, 52, 0
10, 4080, Note_on_c, 6, 48, 127
10, 4224, Note_on_c, 6, 48, 0
10, 4260, Note_on_c, 6, 52, 118
10, 4308, Note_on_c, 6, 52, 0
10, 4320, Note_on_c, 6, 48, 127
10, 4464, Note_on_c, 6, 48, 0
10, 4500, Note_on_c, 6, 52, 118
10, 4548, Note_on_c, 6, 52, 0
10, 4560, Note_on_c, 6, 48, 127
10, 4704, Note_on_c, 6, 48, 0
10, 4740, Note_on_c, 6, 52, 118
10, 4788, Note_on_c, 6, 52, 0
10, 4800, Note_on_c, 6, 48, 127
10, 4944, Note_on_c, 6, 48, 0
10, 4980, Note_on_c, 6, 52, 118
10, 5028, Note_on_c, 6, 52, 0
10, 5040, Note_on_c, 6, 48, 127
10, 5184, Note_on_c, 6, 48, 0
10, 5220, Note_on_c, 6, 52, 118
10, 5268, Note_on_c, 6, 52, 0
10, 5280, Note_on_c, 6, 48, 127
10, 5424, Note_on_c, 6, 48, 0
10, 5460, Note_on_c, 6, 52, 118
10, 5508, Note_on_c, 6, 52, 0
10, 5520, Note_on_c, 6, 48, 127
10, 5664, Note_on_c, 6, 48, 0
10, 5700, Note_on_c, 6, 52, 118
10, 5748, Note_on_c, 6, 52, 0
10, 5760, Note_on_c, 6, 48, 103
10, 5808, Note_on_c, 6, 48, 0
10, 6720, Note_on_c, 6, 41, 127
10, 6744, Note_on_c, 6, 41, 0
10, 6750, Note_on_c, 6, 48, 107
10, 6774, Note_on_c, 6, 48, 0
10, 6780, Note_on_c, 6, 41, 123
10, 6804, Note_on_c, 6, 41, 0
10, 6810, Note_on_c, 6, 48, 108
10, 6834, Note_on_c, 6, 48, 0
10, 6840, Note_on_c, 6, 41, 121
10, 6864, Note_on_c, 6, 41, 0
10, 6870, Note_on_c, 6, 48, 107
10, 6894, Note_on_c, 6, 48, 0
10, 6900, Note_on_c, 6, 41, 120
10, 6924, Note_on_c, 6, 41, 0
10, 6930, Note_on_c, 6, 48, 107
10, 6954, Note_on_c, 6, 48, 0
10, 6960, Note_on_c, 6, 41, 127
10, 6984, Note_on_c, 6, 41, 0
10, 6990, Note_on_c, 6, 48, 107
10, 7014, Note_on_c, 6, 48, 0
10, 7020, Note_on_c, 6, 41, 112
10, 7044, Note_on_c, 6, 41, 0
10, 7050, Note_on_c, 6, 48, 109
10, 7074, Note_on_c, 6, 48, 0
10, 7080, Note_on_c, 6, 41, 109
10, 7104, Note_on_c, 6, 41, 0
10, 7110, Note_on_c, 6, 48, 108
10, 7134, Note_on_c, 6, 48, 0
10, 7140, Note_on_c, 6, 41, 120
10, 7164, Note_on_c, 6, 41, 0
10, 7170, Note_on_c, 6, 48, 114
10, 7194, Note_on_c, 6, 48, 0
10, 7200, Note_on_c, 6, 41, 117
10, 7224, Note_on_c, 6, 41, 0
10, 7230, Note_on_c, 6, 48, 109
10, 7254, Note_on_c, 6, 48, 0
10, 7260, Note_on_c, 6, 41, 101
10, 7284, Note_on_c, 6, 41, 0
10, 7290, Note_on_c, 6, 48, 100
10, 7314, Note_on_c, 6, 48, 0
10, 7320, Note_on_c, 6, 41, 104
10, 7344, Note_on_c, 6, 41, 0
10, 7350, Note_on_c, 6, 48, 90
10, 7374, Note_on_c, 6, 48, 0
10, 7380, Note_on_c, 6, 41, 100
10, 7404, Note_on_c, 6, 41, 0
10, 7410, Note_on_c, 6, 48, 98
10, 7434, Note_on_c, 6, 48, 0
10, 7440, Note_on_c, 6, 41, 117
10, 7464, Note_on_c, 6, 41, 0
10, 7470, Note_on_c, 6, 48, 109
10, 7494, Note_on_c, 6, 48, 0
10, 7500, Note_on_c, 6, 41, 101
10, 7524, Note_on_c, 6, 41, 0
10, 7530, Note_on_c, 6, 48, 100
10, 7554, Note_on_c, 6, 48, 0
10, 7560, Note_on_c, 6, 41, 104
10, 7584, Note_on_c, 6, 41, 0
10, 7590, Note_on_c, 6, 48, 90
10, 7614, Note_on_c, 6, 48, 0
10, 7620, Note_on_c, 6, 41, 100
10, 7644, Note_on_c, 6, 41, 0
10, 7650, Note_on_c, 6, 48, 98
10, 7674, Note_on_c, 6, 48, 0
10, 7680, Note_on_c, 6, 41, 117
10, 7704, Note_on_c, 6, 41, 0
10, 7710, Note_on_c, 6, 48, 109
10, 7734, Note_on_c, 6, 48, 0
10, 7740, Note_on_c, 6, 41, 101
10, 7764, Note_on_c, 6, 41, 0
10, 7770, Note_on_c, 6, 48, 100
10, 7794, Note_on_c, 6, 48, 0
10, 7800, Note_on_c, 6, 41, 104
10, 7824, Note_on_c, 6, 41, 0
10, 7830, Note_on_c, 6, 48, 90
10, 7854, Note_on_c, 6, 48, 0
10, 7860, Note_on_c, 6, 41, 100
10, 7884, Note_on_c, 6, 41, 0
10, 7890, Note_on_c, 6, 48, 98
10, 7914, Note_on_c, 6, 48, 0
10, 7920, Note_on_c, 6, 41, 117
10, 7944, Note_on_c, 6, 41, 0
10, 7950, Note_on_c, 6, 48, 109
10, 7974, Note_on_c, 6, 48, 0
10, 7980, Note_on_c, 6, 41, 101
10, 8004, Note_on_c, 6, 41, 0
10, 8010, Note_on_c, 6, 48, 100
10, 8034, Note_on_c, 6, 48, 0
10, 8040, Note_on_c, 6, 41, 104
10, 8064, Note_on_c, 6, 41, 0
10, 8070, Note_on_c, 6, 48, 90
10, 8094, Note_on_c, 6, 48, 0
10, 8100, Note_on_c, 6, 41, 100
10, 8124, Note_on_c, 6, 41, 0
10, 8130, Note_on_c, 6, 48, 98
10, 8154, Note_on_c, 6, 48, 0
10, 8160, Note_on_c, 6, 41, 117
10, 8184, Note_on_c, 6, 41, 0
10, 8190, Note_on_c, 6, 48, 109
10, 8214, Note_on_c, 6, 48, 0
10, 8220, Note_on_c, 6, 41, 101
10, 8244, Note_on_c, 6, 41, 0
10, 8250, Note_on_c, 6, 48, 100
10, 8274, Note_on_c, 6, 48, 0
10, 8280, Note_on_c, 6, 41, 104
10, 8304, Note_on_c, 6, 41, 0
10, 8310, Note_on_c, 6, 48, 90
10, 8334, Note_on_c, 6, 48, 0
10, 8340, Note_on_c, 6, 41, 100
10, 8364, Note_on_c, 6, 41, 0
10, 8370, Note_on_c, 6, 48, 98
10, 8394, Note_on_c, 6, 48, 0
10, 8400, Note_on_c, 6, 41, 113
10, 8424, Note_on_c, 6, 41, 0
10, 8430, Note_on_c, 6, 48, 98
10, 8454, Note_on_c, 6, 48, 0
10, 8460, Note_on_c, 6, 41, 116
10, 8484, Note_on_c, 6, 41, 0
10, 8490, Note_on_c, 6, 48, 103
10, 8514, Note_on_c, 6, 48, 0
10, 8520, Note_on_c, 6, 41, 116
10, 8544, Note_on_c, 6, 41, 0
10, 8550, Note_on_c, 6, 48, 111
10, 8574, Note_on_c, 6, 48, 0
10, 8580, Note_on_c, 6, 41, 120
10, 8604, Note_on_c, 6, 41, 0
10, 8610, Note_on_c, 6, 48, 106
10, 8634, Note_on_c, 6, 48, 0
10, 8640, Note_on_c, 6, 41, 113
10, 8664, Note_on_c, 6, 41, 0
10, 8670, Note_on_c, 6, 48, 98
10, 8694, Note_on_c, 6, 48, 0
10, 8700, Note_on_c, 6, 41, 116
10, 8724, Note_on_c, 6, 41, 0
10, 8730, Note_on_c, 6, 48, 103
10, 8754, Note_on_c, 6, 48, 0
10, 8760, Note_on_c, 6, 41, 116
10, 8784, Note_on_c, 6, 41, 0
10, 8790, Note_on_c, 6, 48, 111
10, 8814, Note_on_c, 6, 48, 0
10, 8820, Note_on_c, 6, 41, 120
10, 8844, Note_on_c, 6, 41, 0
10, 8850, Note_on_c, 6, 48, 106
10, 8874, Note_on_c, 6, 48, 0
10, 8880, Note_on_c, 6, 41, 113
10, 8904, Note_on_c, 6, 41, 0
10, 8910, Note_on_c, 6, 48, 98
10, 8934, Note_on_c, 6, 48, 0
10, 8940, Note_on_c, 6, 41, 116
10, 8964, Note_on_c, 6, 41, 0
10, 8970, Note_on_c, 6, 48, 103
10, 8994, Note_on_c, 6, 48, 0
10, 9000, Note_on_c, 6, 41, 116
10, 9024, Note_on_c, 6, 41, 0
10, 9030, Note_on_c, 6, 48, 111
10, 9054, Note_on_c, 6, 48, 0
10, 9060, Note_on_c, 6, 41, 120
10, 9084, Note_on_c, 6, 41, 0
10, 9090, Note_on_c, 6, 48, 106
10, 9114, Note_on_c, 6, 48, 0
10, 9120, Note_on_c, 6, 41, 113
10, 9144, Note_on_c, 6, 41, 0
10, 9150, Note_on_c, 6, 48, 98
10, 9174, Note_on_c, 6, 48, 0
10, 9180, Note_on_c, 6, 41, 116
10, 9204, Note_on_c, 6, 41, 0
10, 9210, Note_on_c, 6, 48, 103
10, 9234, Note_on_c, 6, 48, 0
10, 9240, Note_on_c, 6, 41, 116
10, 9264, Note_on_c, 6, 41, 0
10, 9270, Note_on_c, 6, 48, 111
10, 9294, Note_on_c, 6, 48, 0
10, 9300, Note_on_c, 6, 41, 120
10, 9324, Note_on_c, 6, 41, 0
10, 9330, Note_on_c, 6, 48, 106
10, 9354, Note_on_c, 6, 48, 0
10, 9360, Note_on_c, 6, 41, 113
10, 9384, Note_on_c, 6, 41, 0
10, 9390, Note_on_c, 6, 48, 98
10, 9414, Note_on_c, 6, 48, 0
10, 9420, Note_on_c, 6, 41, 116
10, 9444, Note_on_c, 6, 41, 0
10, 9450, Note_on_c, 6, 48, 103
10, 9474, Note_on_c, 6, 48, 0
10, 9480, Note_on_c, 6, 41, 116
10, 9504, Note_on_c, 6, 41, 0
10, 9510, Note_on_c, 6, 48, 111
10, 9534, Note_on_c, 6, 48, 0
10, 9540, Note_on_c, 6, 41, 120
10, 9564, Note_on_c, 6, 41, 0
10, 9570, Note_on_c, 6, 48, 106
10, 9594, Note_on_c, 6, 48, 0
10, 9600, Note_on_c, 6, 41, 113
10, 9624, Note_on_c, 6, 41, 0
10, 9630, Note_on_c, 6, 48, 98
10, 9654, Note_on_c, 6, 48, 0
10, 9660, Note_on_c, 6, 41, 116
10, 9684, Note_on_c, 6, 41, 0
10, 9690, Note_on_c, 6, 48, 103
10, 9714, Note_on_c, 6, 48, 0
10, 9720, Note_on_c, 6, 41, 116
10, 9744, Note_on_c, 6, 41, 0
10, 9750, Note_on_c, 6, 48, 111
10, 9774, Note_on_c, 6, 48, 0
10, 9780, Note_on_c, 6, 41, 120
10, 9804, Note_on_c, 6, 41, 0
10, 9810, Note_on_c, 6, 48, 106
10, 9834, Note_on_c, 6, 48, 0
10, 9840, Note_on_c, 6, 41, 113
10, 9864, Note_on_c, 6, 41, 0
10, 9870, Note_on_c, 6, 48, 98
10, 9894, Note_on_c, 6, 48, 0
10, 9900, Note_on_c, 6, 41, 116
10, 9924, Note_on_c, 6, 41, 0
10, 9930, Note_on_c, 6, 48, 103
10, 9954, Note_on_c, 6, 48, 0
10, 9960, Note_on_c, 6, 41, 116
10, 9984, Note_on_c, 6, 41, 0
10, 9990, Note_on_c, 6, 48, 111
10, 10014, Note_on_c, 6, 48, 0
10, 10020, Note_on_c, 6, 41, 120
10, 10044, Note_on_c, 6, 41, 0
10, 10050, Note_on_c, 6, 48, 106
10, 10074, Note_on_c, 6, 48, 0
10, 10080, Note_on_c, 6, 36, 127
10, 10104, Note_on_c, 6, 36, 0
10, 10110, Note_on_c, 6, 48, 117
10, 10134, Note_on_c, 6, 48, 0
10, 10140, Note_on_c, 6, 36, 125
10, 10164, Note_on_c, 6, 36, 0
10, 10170, Note_on_c, 6, 48, 114
10, 10194, Note_on_c, 6, 48, 0
10, 10200, Note_on_c, 6, 36, 127
10, 10224, Note_on_c, 6, 36, 0
10, 10230, Note_on_c, 6, 48, 109
10, 10254, Note_on_c, 6, 48, 0
10, 10260, Note_on_c, 6, 36, 123
10, 10284, Note_on_c, 6, 36, 0
10, 10290, Note_on_c, 6, 48, 127
10, 10314, Note_on_c, 6, 48, 0
10, 10320, Note_on_c, 6, 36, 127
10, 10344, Note_on_c, 6, 36, 0
10, 10350, Note_on_c, 6, 48, 107
10, 10374, Note_on_c, 6, 48, 0
10, 10380, Note_on_c, 6, 36, 127
10, 10404, Note_on_c, 6, 36, 0
10, 10410, Note_on_c, 6, 48, 112
10, 10434, Note_on_c, 6, 48, 0
10, 10440, Note_on_c, 6, 36, 114
10, 10464, Note_on_c, 6, 36, 0
10, 10470, Note_on_c, 6, 48, 105
10, 10494, Note_on_c, 6, 48, 0
10, 10500, Note_on_c, 6, 36, 121
10, 10524, Note_on_c, 6, 36, 0
10, 10530, Note_on_c, 6, 48, 116
10, 10554, Note_on_c, 6, 48, 0
10, 10560, Note_on_c, 6, 36, 127
10, 10584, Note_on_c, 6, 36, 0
10, 10590, Note_on_c, 6, 48, 112
10, 10614, Note_on_c, 6, 48, 0
10, 10620, Note_on_c, 6, 36, 127
10, 10644, Note_on_c, 6, 36, 0
10, 10650, Note_on_c, 6, 48, 110
10, 10674, Note_on_c, 6, 48, 0
10, 10680, Note_on_c, 6, 36, 125
10, 10704, Note_on_c, 6, 36, 0
10, 10710, Note_on_c, 6, 48, 109
10, 10734, Note_on_c, 6, 48, 0
10, 10740, Note_on_c, 6, 36, 127
10, 10764, Note_on_c, 6, 36, 0
10, 10770, Note_on_c, 6, 48, 114
10, 10794, Note_on_c, 6, 48, 0
10, 10800, Note_on_c, 6, 36, 125
10, 10824, Note_on_c, 6, 36, 0
10, 10830, Note_on_c, 6, 48, 104
10, 10854, Note_on_c, 6, 48, 0
10, 10860, Note_on_c, 6, 36, 116
10, 10884, Note_on_c, 6, 36, 0
10, 10890, Note_on_c, 6, 48, 109
10, 10914, Note_on_c, 6, 48, 0
10, 10920, Note_on_c, 6, 36, 110
10, 10944, Note_on_c, 6, 36, 0
10, 10950, Note_on_c, 6, 48, 108
10, 10974, Note_on_c, 6, 48, 0
10, 10980, Note_on_c, 6, 36, 120
10, 11004, Note_on_c, 6, 36, 0
10, 11010, Note_on_c, 6, 48, 123
10, 11034, Note_on_c, 6, 48, 0
10, 11040, Note_on_c, 6, 41, 113
10, 11064, Note_on_c, 6, 41, 0
10, 11070, Note_on_c, 6, 48, 98
10, 11094, Note_on_c, 6, 48, 0
10, 11100, Note_on_c, 6, 41, 116
10, 11124, Note_on_c, 6, 41, 0
10, 11130, Note_on_c, 6, 48, 103
10, 11154, Note_on_c, 6, 48, 0
10, 11160, Note_on_c, 6, 41, 116
10, 11184, Note_on_c, 6, 41, 0
10, 11190, Note_on_c, 6, 48, 111
10, 11214, Note_on_c, 6, 48, 0
10, 11220, Note_on_c, 6, 41, 120
10, 11244, Note_on_c, 6, 41, 0
10, 11250, Note_on_c, 6, 48, 106
10, 11274, Note_on_c, 6, 48, 0
10, 11280, Note_on_c, 6, 41, 113
10, 11304, Note_on_c, 6, 41, 0
10, 11310, Note_on_c, 6, 48, 98
10, 11334, Note_on_c, 6, 48, 0
10, 11340, Note_on_c, 6, 41, 116
10, 11364, Note_on_c, 6, 41, 0
10, 11370, Note_on_c, 6, 48, 103
10, 11394, Note_on_c, 6, 48, 0
10, 11400, Note_on_c, 6, 41, 116
10, 11424, Note_on_c, 6, 41, 0
10, 11430, Note_on_c, 6, 48, 111
10, 11454, Note_on_c, 6, 48, 0
10, 11460, Note_on_c, 6, 41, 120
10, 11484, Note_on_c, 6, 41, 0
10, 11490, Note_on_c, 6, 48, 106
10, 11514, Note_on_c, 6, 48, 0
10, 11520, Note_on_c, 6, 41, 113
10, 11544, Note_on_c, 6, 41, 0
10, 11550, Note_on_c, 6, 48, 98
10, 11574, Note_on_c, 6, 48, 0
10, 11580, Note_on_c, 6, 41, 116
10, 11604, Note_on_c, 6, 41, 0
10, 11610, Note_on_c, 6, 48, 103
10, 11634, Note_on_c, 6, 48, 0
10, 11640, Note_on_c, 6, 41, 116
10, 11664, Note_on_c, 6, 41, 0
10, 11670, Note_on_c, 6, 48, 111
10, 11694, Note_on_c, 6, 48, 0
10, 11700, Note_on_c, 6, 41, 120
10, 11724, Note_on_c, 6, 41, 0
10, 11730, Note_on_c, 6, 48, 106
10, 11754, Note_on_c, 6, 48, 0
10, 11760, Note_on_c, 6, 41, 113
10, 11784, Note_on_c, 6, 41, 0
10, 11790, Note_on_c, 6, 48, 98
10, 11814, Note_on_c, 6, 48, 0
10, 11820, Note_on_c, 6, 41, 116
10, 11844, Note_on_c, 6, 41, 0
10, 11850, Note_on_c, 6, 48, 103
10, 11874, Note_on_c, 6, 48, 0
10, 11880, Note_on_c, 6, 41, 116
10, 11904, Note_on_c, 6, 41, 0
10, 11910, Note_on_c, 6, 48, 111
10, 11934, Note_on_c, 6, 48, 0
10, 11940, Note_on_c, 6, 41, 120
10, 11964, Note_on_c, 6, 41, 0
10, 11970, Note_on_c, 6, 48, 106
10, 11994, Note_on_c, 6, 48, 0
10, 12000, Note_on_c, 6, 41, 113
10, 12024, Note_on_c, 6, 41, 0
10, 12030, Note_on_c, 6, 48, 98
10, 12054, Note_on_c, 6, 48, 0
10, 12060, Note_on_c, 6, 41, 116
10, 12084, Note_on_c, 6, 41, 0
10, 12090, Note_on_c, 6, 48, 103
10, 12114, Note_on_c, 6, 48, 0
10, 12120, Note_on_c, 6, 41, 116
10, 12144, Note_on_c, 6, 41, 0
10, 12150, Note_on_c, 6, 48, 111
10, 12174, Note_on_c, 6, 48, 0
10, 12180, Note_on_c, 6, 41, 120
10, 12204, Note_on_c, 6, 41, 0
10, 12210, Note_on_c, 6, 48, 106
10, 12234, Note_on_c, 6, 48, 0
10, 12240, Note_on_c, 6, 41, 113
10, 12264, Note_on_c, 6, 41, 0
10, 12270, Note_on_c, 6, 48, 98
10, 12294, Note_on_c, 6, 48, 0
10, 12300, Note_on_c, 6, 41, 116
10, 12324, Note_on_c, 6, 41, 0
10, 12330, Note_on_c, 6, 48, 103
10, 12354, Note_on_c, 6, 48, 0
10, 12360, Note_on_c, 6, 41, 116
10, 12384, Note_on_c, 6, 41, 0
10, 12390, Note_on_c, 6, 48, 111
10, 12414, Note_on_c, 6, 48, 0
10, 12420, Note_on_c, 6, 41, 120
10, 12444, Note_on_c, 6, 41, 0
10, 12450, Note_on_c, 6, 48, 106
10, 12474, Note_on_c, 6, 48, 0
10, 12480, Note_on_c, 6, 41, 121
10, 12528, Note_on_c, 6, 41, 0
10, 15660, Note_on_c, 6, 45, 113
10, 15708, Note_on_c, 6, 45, 0
10, 15720, Note_on_c, 6, 43, 118
10, 15768, Note_on_c, 6, 43, 0
10, 15780, Note_on_c, 6, 42, 100
10, 15828, Note_on_c, 6, 42, 0
10, 15840, Note_on_c, 6, 43, 105
10, 16272, Note_on_c, 6, 43, 0
10, 16320, Note_on_c, 6, 48, 102
10, 16752, Note_on_c, 6, 48, 0
10, 16800, Note_on_c, 6, 47, 114
10, 16896, Note_on_c, 6, 47, 0
10, 16920, Note_on_c, 6, 47, 125
10, 17016, Note_on_c, 6, 47, 0
10, 17040, Note_on_c, 6, 47, 127
10, 17136, Note_on_c, 6, 47, 0
10, 17160, Note_on_c, 6, 50, 117
10, 17208, Note_on_c, 6, 50, 0
10, 17220, Note_on_c, 6, 47, 127
10, 17268, Note_on_c, 6, 47, 0
10, 17280, Note_on_c, 6, 48, 103
10, 17376, Note_on_c, 6, 48, 0
10, 17400, Note_on_c, 6, 48, 113
10, 17496, Note_on_c, 6, 48, 0
10, 17520, Note_on_c, 6, 48, 102
10, 17616, Note_on_c, 6, 48, 0
10, 17640, Note_on_c, 6, 52, 116
10, 17688, Note_on_c, 6, 52, 0
10, 17700, Note_on_c, 6, 48, 127
10, 17748, Note_on_c, 6, 48, 0
10, 17760, Note_on_c, 6, 57, 121
10, 17808, Note_on_c, 6, 57, 0
10, 17820, Note_on_c, 6, 55, 127
10, 17868, Note_on_c, 6, 55, 0
10, 17880, Note_on_c, 6, 53, 112
10, 17928, Note_on_c, 6, 53, 0
10, 17940, Note_on_c, 6, 50, 117
10, 17988, Note_on_c, 6, 50, 0
10, 18000, Note_on_c, 6, 43, 127
10, 18048, Note_on_c, 6, 43, 0
10, 18060, Note_on_c, 6, 53, 123
10, 18108, Note_on_c, 6, 53, 0
10, 18120, Note_on_c, 6, 50, 127
10, 18168, Note_on_c, 6, 50, 0
10, 18180, Note_on_c, 6, 43, 108
10, 18228, Note_on_c, 6, 43, 0
10, 18240, Note_on_c, 6, 57, 116
10, 18288, Note_on_c, 6, 57, 0
10, 18300, Note_on_c, 6, 55, 127
10, 18348, Note_on_c, 6, 55, 0
10, 18360, Note_on_c, 6, 52, 123
10, 18408, Note_on_c, 6, 52, 0
10, 18420, Note_on_c, 6, 48, 120
10, 18468, Note_on_c, 6, 48, 0
10, 18480, Note_on_c, 6, 43, 120
10, 18528, Note_on_c, 6, 43, 0
10, 18540, Note_on_c, 6, 52, 113
10, 18588, Note_on_c, 6, 52, 0
10, 18600, Note_on_c, 6, 48, 127
10, 18648, Note_on_c, 6, 48, 0
10, 18660, Note_on_c, 6, 43, 123
10, 18708, Note_on_c, 6, 43, 0
10, 18720, Note_on_c, 6, 57, 123
10, 18768, Note_on_c, 6, 57, 0
10, 18780, Note_on_c, 6, 55, 127
10, 18828, Note_on_c, 6, 55, 0
10, 18840, Note_on_c, 6, 53, 118
10, 18888, Note_on_c, 6, 53, 0
10, 18900, Note_on_c, 6, 50, 107
10, 18948, Note_on_c, 6, 50, 0
10, 18960, Note_on_c, 6, 43, 123
10, 19008, Note_on_c, 6, 43, 0
10, 19020, Note_on_c, 6, 53, 112
10, 19068, Note_on_c, 6, 53, 0
10, 19080, Note_on_c, 6, 50, 112
10, 19128, Note_on_c, 6, 50, 0
10, 19140, Note_on_c, 6, 43, 114
10, 19188, Note_on_c, 6, 43, 0
10, 19200, Note_on_c, 6, 57, 98
10, 19248, Note_on_c, 6, 57, 0
10, 19260, Note_on_c, 6, 55, 123
10, 19308, Note_on_c, 6, 55, 0
10, 19320, Note_on_c, 6, 52, 127
10, 19368, Note_on_c, 6, 52, 0
10, 19380, Note_on_c, 6, 48, 120
10, 19428, Note_on_c, 6, 48, 0
10, 19440, Note_on_c, 6, 43, 127
10, 19488, Note_on_c, 6, 43, 0
10, 19500, Note_on_c, 6, 52, 103
10, 19548, Note_on_c, 6, 52, 0
10, 19560, Note_on_c, 6, 48, 121
10, 19608, Note_on_c, 6, 48, 0
10, 19620, Note_on_c, 6, 43, 108
10, 19668, Note_on_c, 6, 43, 0
10, 19680, Note_on_c, 6, 43, 98
10, 20112, Note_on_c, 6, 43, 0
10, 20160, Note_on_c, 6, 48, 114
10, 20592, Note_on_c, 6, 48, 0
10, 20640, Note_on_c, 6, 47, 118
10, 20736, Note_on_c, 6, 47, 0
10, 20760, Note_on_c, 6, 47, 125
10, 20856, Note_on_c, 6, 47, 0
10, 20880, Note_on_c, 6, 47, 127
10, 20976, Note_on_c, 6, 47, 0
10, 21000, Note_on_c, 6, 50, 120
10, 21048, Note_on_c, 6, 50, 0
10, 21060, Note_on_c, 6, 47, 127
10, 21108, Note_on_c, 6, 47, 0
10, 21120, Note_on_c, 6, 48, 123
10, 21216, Note_on_c, 6, 48, 0
10, 21240, Note_on_c, 6, 48, 109
10, 21336, Note_on_c, 6, 48, 0
10, 21360, Note_on_c, 6, 48, 127
10, 21456, Note_on_c, 6, 48, 0
10, 21480, Note_on_c, 6, 52, 50
10, 21528, Note_on_c, 6, 52, 0
10, 21540, Note_on_c, 6, 48, 112
10, 21588, Note_on_c, 6, 48, 0
10, 21600, Note_on_c, 6, 50, 127
10, 21696, Note_on_c, 6, 50, 0
10, 21720, Note_on_c, 6, 50, 97
10, 21816, Note_on_c, 6, 50, 0
10, 21840, Note_on_c, 6, 50, 123
10, 21936, Note_on_c, 6, 50, 0
10, 21960, Note_on_c, 6, 53, 105
10, 22008, Note_on_c, 6, 53, 0
10, 22020, Note_on_c, 6, 50, 114
10, 22068, Note_on_c, 6, 50, 0
10, 22080, Note_on_c, 6, 48, 104
10, 22752, Note_on_c, 6, 48, 0
10, 22800, Note_on_c, 6, 41, 127
10, 22848, Note_on_c, 6, 41, 0
10, 23040, Note_on_c, 6, 41, 121
10, 23232, Note_on_c, 6, 41, 0
10, 23280, Note_on_c, 6, 48, 123
10, 23472, Note_on_c, 6, 48, 0
10, 23520, Note_on_c, 6, 43, 125
10, 23712, Note_on_c, 6, 43, 0
10, 23760, Note_on_c, 6, 48, 127
10, 24432, Note_on_c, 6, 48, 0
10, 24480, Note_on_c, 6, 41, 127
10, 24528, Note_on_c, 6, 41, 0
10, 24720, Note_on_c, 6, 41, 127
10, 24912, Note_on_c, 6, 41, 0
10, 24960, Note_on_c, 6, 48, 123
10, 25152, Note_on_c, 6, 48, 0
10, 25200, Note_on_c, 6, 43, 110
10, 25392, Note_on_c, 6, 43, 0
10, 25440, Note_on_c, 6, 48, 127
10, 25536, Note_on_c, 6, 48, 0
10, 25560, Note_on_c, 6, 48, 127
10, 25656, Note_on_c, 6, 48, 0
10, 25680, Note_on_c, 6, 41, 112
10, 25776, Note_on_c, 6, 41, 0
10, 25800, Note_on_c, 6, 41, 112
10, 25896, Note_on_c, 6, 41, 0
10, 25920, Note_on_c, 6, 48, 109
10, 26016, Note_on_c, 6, 48, 0
10, 26040, Note_on_c, 6, 48, 127
10, 26136, Note_on_c, 6, 48, 0
10, 26160, Note_on_c, 6, 43, 105
10, 26256, Note_on_c, 6, 43, 0
10, 26280, Note_on_c, 6, 43, 110
10, 26376, Note_on_c, 6, 43, 0
10, 26400, Note_on_c, 6, 48, 127
10, 26432, Note_on_c, 6, 48, 0
10, 26440, Note_on_c, 6, 48, 127
10, 26472, Note_on_c, 6, 48, 0
10, 26480, Note_on_c, 6, 48, 127
10, 26512, Note_on_c, 6, 48, 0
10, 26520, Note_on_c, 6, 48, 127
10, 26552, Note_on_c, 6, 48, 0
10, 26560, Note_on_c, 6, 50, 127
10, 26592, Note_on_c, 6, 50, 0
10, 26600, Note_on_c, 6, 52, 120
10, 26632, Note_on_c, 6, 52, 0
10, 26640, Note_on_c, 6, 53, 127
10, 26672, Note_on_c, 6, 53, 0
10, 26680, Note_on_c, 6, 53, 127
10, 26712, Note_on_c, 6, 53, 0
10, 26720, Note_on_c, 6, 53, 127
10, 26752, Note_on_c, 6, 53, 0
10, 26760, Note_on_c, 6, 57, 121
10, 26792, Note_on_c, 6, 57, 0
10, 26800, Note_on_c, 6, 57, 127
10, 26832, Note_on_c, 6, 57, 0
10, 26840, Note_on_c, 6, 57, 127
10, 26872, Note_on_c, 6, 57, 0
10, 26880, Note_on_c, 6, 60, 127
10, 26912, Note_on_c, 6, 60, 0
10, 26920, Note_on_c, 6, 60, 127
10, 26952, Note_on_c, 6, 60, 0
10, 26960, Note_on_c, 6, 60, 123
10, 26992, Note_on_c, 6, 60, 0
10, 27000, Note_on_c, 6, 64, 107
10, 27032, Note_on_c, 6, 64, 0
10, 27040, Note_on_c, 6, 64, 120
10, 27072, Note_on_c, 6, 64, 0
10, 27080, Note_on_c, 6, 64, 107
10, 27112, Note_on_c, 6, 64, 0
10, 27120, Note_on_c, 6, 67, 121
10, 27152, Note_on_c, 6, 67, 0
10, 27160, Note_on_c, 6, 43, 103
10, 27192, Note_on_c, 6, 43, 0
10, 27200, Note_on_c, 6, 43, 111
10, 27232, Note_on_c, 6, 43, 0
10, 27240, Note_on_c, 6, 43, 118
10, 27272, Note_on_c, 6, 43, 0
10, 27280, Note_on_c, 6, 43, 101
10, 27312, Note_on_c, 6, 43, 0
10, 27320, Note_on_c, 6, 43, 107
10, 27352, Note_on_c, 6, 43, 0
10, 27360, Note_on_c, 6, 36, 110
10, 27392, Note_on_c, 6, 36, 0
10, 27400, Note_on_c, 6, 36, 127
10, 27432, Note_on_c, 6, 36, 0
10, 27440, Note_on_c, 6, 36, 127
10, 27472, Note_on_c, 6, 36, 0
10, 27480, Note_on_c, 6, 36, 109
10, 27872, Note_on_c, 6, 36, 0
10, 27880, Note_on_c, 6, 36, 123
10, 27912, Note_on_c, 6, 36, 0
10, 27920, Note_on_c, 6, 36, 127
10, 27952, Note_on_c, 6, 36, 0
10, 27960, Note_on_c, 6, 36, 117
10, 28352, Note_on_c, 6, 36, 0
10, 28360, Note_on_c, 6, 36, 127
10, 28392, Note_on_c, 6, 36, 0
10, 28400, Note_on_c, 6, 36, 123
10, 28432, Note_on_c, 6, 36, 0
10, 28440, Note_on_c, 6, 36, 120
10, 28832, Note_on_c, 6, 36, 0
10, 28840, Note_on_c, 6, 36, 127
10, 28872, Note_on_c, 6, 36, 0
10, 28880, Note_on_c, 6, 36, 127
10, 28912, Note_on_c, 6, 36, 0
10, 28920, Note_on_c, 6, 36, 127
10, 29312, Note_on_c, 6, 36, 0
10, 29320, Note_on_c, 6, 36, 127
10, 29352, Note_on_c, 6, 36, 0
10, 29360, Note_on_c, 6, 36, 127
10, 29392, Note_on_c, 6, 36, 0
10, 29400, Note_on_c, 6, 36, 127
10, 29552, Note_on_c, 6, 36, 0
10, 29560, Note_on_c, 6, 36, 127
10, 29592, Note_on_c, 6, 36, 0
10, 29600, Note_on_c, 6, 36, 127
10, 29632, Note_on_c, 6, 36, 0
10, 29640, Note_on_c, 6, 36, 127
10, 29792, Note_on_c, 6, 36, 0
10, 29800, Note_on_c, 6, 36, 127
10, 29832, Note_on_c, 6, 36, 0
10, 29840, Note_on_c, 6, 36, 127
10, 29872, Note_on_c, 6, 36, 0
10, 29880, Note_on_c, 6, 36, 127
10, 30032, Note_on_c, 6, 36, 0
10, 30040, Note_on_c, 6, 36, 117
10, 30072, Note_on_c, 6, 36, 0
10, 30080, Note_on_c, 6, 36, 125
10, 30112, Note_on_c, 6, 36, 0
10, 30120, Note_on_c, 6, 36, 127
10, 30272, Note_on_c, 6, 36, 0
10, 30280, Note_on_c, 6, 36, 127
10, 30312, Note_on_c, 6, 36, 0
10, 30320, Note_on_c, 6, 36, 127
10, 30352, Note_on_c, 6, 36, 0
10, 30360, Note_on_c, 6, 36, 127
10, 30512, Note_on_c, 6, 36, 0
10, 30520, Note_on_c, 6, 36, 127
10, 30552, Note_on_c, 6, 36, 0
10, 30560, Note_on_c, 6, 36, 127
10, 30592, Note_on_c, 6, 36, 0
10, 30600, Note_on_c, 6, 36, 127
10, 30752, Note_on_c, 6, 36, 0
10, 30760, Note_on_c, 6, 36, 127
10, 30792, Note_on_c, 6, 36, 0
10, 30800, Note_on_c, 6, 36, 127
10, 30832, Note_on_c, 6, 36, 0
10, 30840, Note_on_c, 6, 36, 127
10, 30992, Note_on_c, 6, 36, 0
10, 31000, Note_on_c, 6, 36, 127
10, 31032, Note_on_c, 6, 36, 0
10, 31040, Note_on_c, 6, 36, 127
10, 31072, Note_on_c, 6, 36, 0
10, 31080, Note_on_c, 6, 36, 127
10, 31256, Note_on_c, 6, 36, 0
10, 31260, Note_on_c, 6, 43, 127
10, 31284, Note_on_c, 6, 43, 0
10, 31290, Note_on_c, 6, 40, 127
10, 31314, Note_on_c, 6, 40, 0
10, 31320, Note_on_c, 6, 36, 110
10, 31368, Note_on_c, 6, 36, 0
10, 31380, Note_on_c, 6, 43, 123
10, 31404, Note_on_c, 6, 43, 0
10, 31410, Note_on_c, 6, 40, 118
10, 31434, Note_on_c, 6, 40, 0
10, 31440, Note_on_c, 6, 36, 127
10, 31488, Note_on_c, 6, 36, 0
10, 31500, Note_on_c, 6, 43, 127
10, 31524, Note_on_c, 6, 43, 0
10, 31530, Note_on_c, 6, 40, 127
10, 31554, Note_on_c, 6, 40, 0
10, 31560, Note_on_c, 6, 36, 127
10, 31608, Note_on_c, 6, 36, 0
10, 31620, Note_on_c, 6, 43, 125
10, 31644, Note_on_c, 6, 43, 0
10, 31650, Note_on_c, 6, 40, 125
10, 31674, Note_on_c, 6, 40, 0
10, 31680, Note_on_c, 6, 36, 127
10, 31728, Note_on_c, 6, 36, 0
10, 31740, Note_on_c, 6, 43, 121
10, 31764, Note_on_c, 6, 43, 0
10, 31770, Note_on_c, 6, 40, 120
10, 31794, Note_on_c, 6, 40, 0
10, 31800, Note_on_c, 6, 36, 127
10, 31848, Note_on_c, 6, 36, 0
10, 31860, Note_on_c, 6, 43, 127
10, 31884, Note_on_c, 6, 43, 0
10, 31890, Note_on_c, 6, 40, 127
10, 31914, Note_on_c, 6, 40, 0
10, 31920, Note_on_c, 6, 36, 127
10, 31968, Note_on_c, 6, 36, 0
10, 31980, Note_on_c, 6, 43, 127
10, 32004, Note_on_c, 6, 43, 0
10, 32010, Note_on_c, 6, 40, 127
10, 32034, Note_on_c, 6, 40, 0
10, 32040, Note_on_c, 6, 36, 127
10, 32088, Note_on_c, 6, 36, 0
10, 32100, Note_on_c, 6, 43, 127
10, 32124, Note_on_c, 6, 43, 0
10, 32130, Note_on_c, 6, 40, 127
10, 32154, Note_on_c, 6, 40, 0
10, 32160, Note_on_c, 6, 36, 127
10, 32208, Note_on_c, 6, 36, 0
10, 33120, Note_on_c, 6, 41, 101
10, 33792, Note_on_c, 6, 41, 0
10, 33840, Note_on_c, 6, 36, 101
10, 34032, Note_on_c, 6, 36, 0
10, 34080, Note_on_c, 6, 41, 101
10, 34512, Note_on_c, 6, 41, 0
10, 34560, Note_on_c, 6, 41, 127
10, 34992, Note_on_c, 6, 41, 0
10, 35040, Note_on_c, 6, 53, 121
10, 35136, Note_on_c, 6, 53, 0
10, 35160, Note_on_c, 6, 57, 117
10, 35256, Note_on_c, 6, 57, 0
10, 35280, Note_on_c, 6, 55, 106
10, 35424, Note_on_c, 6, 55, 0
10, 35460, Note_on_c, 6, 53, 118
10, 35508, Note_on_c, 6, 53, 0
10, 35520, Note_on_c, 6, 46, 99
10, 35616, Note_on_c, 6, 46, 0
10, 35640, Note_on_c, 6, 53, 123
10, 35736, Note_on_c, 6, 53, 0
10, 35760, Note_on_c, 6, 48, 127
10, 35952, Note_on_c, 6, 48, 0
10, 36000, Note_on_c, 6, 41, 127
10, 36096, Note_on_c, 6, 41, 0
10, 36120, Note_on_c, 6, 45, 127
10, 36216, Note_on_c, 6, 45, 0
10, 36240, Note_on_c, 6, 43, 125
10, 36384, Note_on_c, 6, 43, 0
10, 36420, Note_on_c, 6, 41, 106
10, 36468, Note_on_c, 6, 41, 0
10, 36480, Note_on_c, 6, 46, 118
10, 36576, Note_on_c, 6, 46, 0
10, 36600, Note_on_c, 6, 41, 108
10, 36696, Note_on_c, 6, 41, 0
10, 36720, Note_on_c, 6, 48, 127
10, 36864, Note_on_c, 6, 48, 0
10, 36900, Note_on_c, 6, 48, 118
10, 36948, Note_on_c, 6, 48, 0
10, 36960, Note_on_c, 6, 48, 127
10, 37104, Note_on_c, 6, 48, 0
10, 37140, Note_on_c, 6, 52, 118
10, 37188, Note_on_c, 6, 52, 0
10, 37200, Note_on_c, 6, 48, 127
10, 37344, Note_on_c, 6, 48, 0
10, 37380, Note_on_c, 6, 52, 118
10, 37428, Note_on_c, 6, 52, 0
10, 37440, Note_on_c, 6, 48, 127
10, 37584, Note_on_c, 6, 48, 0
10, 37620, Note_on_c, 6, 52, 118
10, 37668, Note_on_c, 6, 52, 0
10, 37680, Note_on_c, 6, 48, 127
10, 37824, Note_on_c, 6, 48, 0
10, 37860, Note_on_c, 6, 52, 118
10, 37908, Note_on_c, 6, 52, 0
10, 37920, Note_on_c, 6, 48, 127
10, 38064, Note_on_c, 6, 48, 0
10, 38100, Note_on_c, 6, 52, 118
10, 38148, Note_on_c, 6, 52, 0
10, 38160, Note_on_c, 6, 48, 127
10, 38304, Note_on_c, 6, 48, 0
10, 38340, Note_on_c, 6, 52, 118
10, 38388, Note_on_c, 6, 52, 0
10, 38400, Note_on_c, 6, 48, 127
10, 38544, Note_on_c, 6, 48, 0
10, 38580, Note_on_c, 6, 52, 118
10, 38628, Note_on_c, 6, 52, 0
10, 38640, Note_on_c, 6, 48, 127
10, 38784, Note_on_c, 6, 48, 0
10, 38820, Note_on_c, 6, 52, 118
10, 38868, Note_on_c, 6, 52, 0
10, 38880, Note_on_c, 6, 48, 103
10, 38928, Note_on_c, 6, 48, 0
10, 39840, Note_on_c, 6, 41, 127
10, 39864, Note_on_c, 6, 41, 0
10, 39870, Note_on_c, 6, 48, 107
10, 39894, Note_on_c, 6, 48, 0
10, 39900, Note_on_c, 6, 41, 123
10, 39924, Note_on_c, 6, 41, 0
10, 39930, Note_on_c, 6, 48, 108
10, 39954, Note_on_c, 6, 48, 0
10, 39960, Note_on_c, 6, 41, 121
10, 39984, Note_on_c, 6, 41, 0
10, 39990, Note_on_c, 6, 48, 107
10, 40014, Note_on_c, 6, 48, 0
10, 40020, Note_on_c, 6, 41, 120
10, 40044, Note_on_c, 6, 41, 0
10, 40050, Note_on_c, 6, 48, 107
10, 40074, Note_on_c, 6, 48, 0
10, 40080, Note_on_c, 6, 41, 127
10, 40104, Note_on_c, 6, 41, 0
10, 40110, Note_on_c, 6, 48, 107
10, 40134, Note_on_c, 6, 48, 0
10, 40140, Note_on_c, 6, 41, 112
10, 40164, Note_on_c, 6, 41, 0
10, 40170, Note_on_c, 6, 48, 109
10, 40194, Note_on_c, 6, 48, 0
10, 40200, Note_on_c, 6, 41, 109
10, 40224, Note_on_c, 6, 41, 0
10, 40230, Note_on_c, 6, 48, 108
10, 40254, Note_on_c, 6, 48, 0
10, 40260, Note_on_c, 6, 41, 120
10, 40284, Note_on_c, 6, 41, 0
10, 40290, Note_on_c, 6, 48, 114
10, 40314, Note_on_c, 6, 48, 0
10, 40320, Note_on_c, 6, 41, 117
10, 40344, Note_on_c, 6, 41, 0
10, 40350, Note_on_c, 6, 48, 109
10, 40374, Note_on_c, 6, 48, 0
10, 40380, Note_on_c, 6, 41, 101
10, 40404, Note_on_c, 6, 41, 0
10, 40410, Note_on_c, 6, 48, 100
10, 40434, Note_on_c, 6, 48, 0
10, 40440, Note_on_c, 6, 41, 104
10, 40464, Note_on_c, 6, 41, 0
10, 40470, Note_on_c, 6, 48, 90
10, 40494, Note_on_c, 6, 48, 0
10, 40500, Note_on_c, 6, 41, 100
10, 40524, Note_on_c, 6, 41, 0
10, 40530, Note_on_c, 6, 48, 98
10, 40554, Note_on_c, 6, 48, 0
10, 40560, Note_on_c, 6, 41, 117
10, 40584, Note_on_c, 6, 41, 0
10, 40590, Note_on_c, 6, 48, 109
10, 40614, Note_on_c, 6, 48, 0
10, 40620, Note_on_c, 6, 41, 101
10, 40644, Note_on_c, 6, 41, 0
10, 40650, Note_on_c, 6, 48, 100
10, 40674, Note_on_c, 6, 48, 0
10, 40680, Note_on_c, 6, 41, 104
10, 40704, Note_on_c, 6, 41, 0
10, 40710, Note_on_c, 6, 48, 90
10, 40734, Note_on_c, 6, 48, 0
10, 40740, Note_on_c, 6, 41, 100
10, 40764, Note_on_c, 6, 41, 0
10, 40770, Note_on_c, 6, 48, 98
10, 40794, Note_on_c, 6, 48, 0
10, 40800, Note_on_c, 6, 41, 117
10, 40824, Note_on_c, 6, 41, 0
10, 40830, Note_on_c, 6, 48, 109
10, 40854, Note_on_c, 6, 48, 0
10, 40860, Note_on_c, 6, 41, 101
10, 40884, Note_on_c, 6, 41, 0
10, 40890, Note_on_c, 6, 48, 100
10, 40914, Note_on_c, 6, 48, 0
10, 40920, Note_on_c, 6, 41, 104
10, 40944, Note_on_c, 6, 41, 0
10, 40950, Note_on_c, 6, 48, 90
10, 40974, Note_on_c, 6, 48, 0
10, 40980, Note_on_c, 6, 41, 100
10, 41004, Note_on_c, 6, 41, 0
10, 41010, Note_on_c, 6, 48, 98
10, 41034, Note_on_c, 6, 48, 0
10, 41040, Note_on_c, 6, 41, 117
10, 41064, Note_on_c, 6, 41, 0
10, 41070, Note_on_c, 6, 48, 109
10, 41094, Note_on_c, 6, 48, 0
10, 41100, Note_on_c, 6, 41, 101
10, 41124, Note_on_c, 6, 41, 0
10, 41130, Note_on_c, 6, 48, 100
10, 41154, Note_on_c, 6, 48, 0
10, 41160, Note_on_c, 6, 41, 104
10, 41184, Note_on_c, 6, 41, 0
10, 41190, Note_on_c, 6, 48, 90
10, 41214, Note_on_c, 6, 48, 0
10, 41220, Note_on_c, 6, 41, 100
10, 41244, Note_on_c, 6, 41, 0
10, 41250, Note_on_c, 6, 48, 98
10, 41274, Note_on_c, 6, 48, 0
10, 41280, Note_on_c, 6, 41, 117
10, 41304, Note_on_c, 6, 41, 0
10, 41310, Note_on_c, 6, 48, 109
10, 41334, Note_on_c, 6, 48, 0
10, 41340, Note_on_c, 6, 41, 101
10, 41364, Note_on_c, 6, 41, 0
10, 41370, Note_on_c, 6, 48, 100
10, 41394, Note_on_c, 6, 48, 0
10, 41400, Note_on_c, 6, 41, 104
10, 41424, Note_on_c, 6, 41, 0
10, 41430, Note_on_c, 6, 48, 90
10, 41454, Note_on_c, 6, 48, 0
10, 41460, Note_on_c, 6, 41, 100
10, 41484, Note_on_c, 6, 41, 0
10, 41490, Note_on_c, 6, 48, 98
10, 41514, Note_on_c, 6, 48, 0
10, 41520, Note_on_c, 6, 41, 113
10, 41544, Note_on_c, 6, 41, 0
10, 41550, Note_on_c, 6, 48, 98
10, 41574, Note_on_c, 6, 48, 0
10, 41580, Note_on_c, 6, 41, 116
10, 41604, Note_on_c, 6, 41, 0
10, 41610, Note_on_c, 6, 48, 103
10, 41634, Note_on_c, 6, 48, 0
10, 41640, Note_on_c, 6, 41, 116
10, 41664, Note_on_c, 6, 41, 0
10, 41670, Note_on_c, 6, 48, 111
10, 41694, Note_on_c, 6, 48, 0
10, 41700, Note_on_c, 6, 41, 120
10, 41724, Note_on_c, 6, 41, 0
10, 41730, Note_on_c, 6, 48, 106
10, 41754, Note_on_c, 6, 48, 0
10, 41760, Note_on_c, 6, 41, 113
10, 41784, Note_on_c, 6, 41, 0
10, 41790, Note_on_c, 6, 48, 98
10, 41814, Note_on_c, 6, 48, 0
10, 41820, Note_on_c, 6, 41, 116
10, 41844, Note_on_c, 6, 41, 0
10, 41850, Note_on_c, 6, 48, 103
10, 41874, Note_on_c, 6, 48, 0
10, 41880, Note_on_c, 6, 41, 116
10, 41904, Note_on_c, 6, 41, 0
10, 41910, Note_on_c, 6, 48, 111
10, 41934, Note_on_c, 6, 48, 0
10, 41940, Note_on_c, 6, 41, 120
10, 41964, Note_on_c, 6, 41, 0
10, 41970, Note_on_c, 6, 48, 106
10, 41994, Note_on_c, 6, 48, 0
10, 42000, Note_on_c, 6, 41, 113
10, 42024, Note_on_c, 6, 41, 0
10, 42030, Note_on_c, 6, 48, 98
10, 42054, Note_on_c, 6, 48, 0
10, 42060, Note_on_c, 6, 41, 116
10, 42084, Note_on_c, 6, 41, 0
10, 42090, Note_on_c, 6, 48, 103
10, 42114, Note_on_c, 6, 48, 0
10, 42120, Note_on_c, 6, 41, 116
10, 42144, Note_on_c, 6, 41, 0
10, 42150, Note_on_c, 6, 48, 111
10, 42174, Note_on_c, 6, 48, 0
10, 42180, Note_on_c, 6, 41, 120
10, 42204, Note_on_c, 6, 41, 0
10, 42210, Note_on_c, 6, 48, 106
10, 42234, Note_on_c, 6, 48, 0
10, 42240, Note_on_c, 6, 41, 113
10, 42264, Note_on_c, 6, 41, 0
10, 42270, Note_on_c, 6, 48, 98
10, 42294, Note_on_c, 6, 48, 0
10, 42300, Note_on_c, 6, 41, 116
10, 42324, Note_on_c, 6, 41, 0
10, 42330, Note_on_c, 6, 48, 103
10, 42354, Note_on_c, 6, 48, 0
10, 42360, Note_on_c, 6, 41, 116
10, 42384, Note_on_c, 6, 41, 0
10, 42390, Note_on_c, 6, 48, 111
10, 42414, Note_on_c, 6, 48, 0
10, 42420, Note_on_c, 6, 41, 120
10, 42444, Note_on_c, 6, 41, 0
10, 42450, Note_on_c, 6, 48, 106
10, 42474, Note_on_c, 6, 48, 0
10, 42480, Note_on_c, 6, 41, 113
10, 42504, Note_on_c, 6, 41, 0
10, 42510, Note_on_c, 6, 48, 98
10, 42534, Note_on_c, 6, 48, 0
10, 42540, Note_on_c, 6, 41, 116
10, 42564, Note_on_c, 6, 41, 0
10, 42570, Note_on_c, 6, 48, 103
10, 42594, Note_on_c, 6, 48, 0
10, 42600, Note_on_c, 6, 41, 116
10, 42624, Note_on_c, 6, 41, 0
10, 42630, Note_on_c, 6, 48, 111
10, 42654, Note_on_c, 6, 48, 0
10, 42660, Note_on_c, 6, 41, 120
10, 42684, Note_on_c, 6, 41, 0
10, 42690, Note_on_c, 6, 48, 106
10, 42714, Note_on_c, 6, 48, 0
10, 42720, Note_on_c, 6, 41, 113
10, 42744, Note_on_c, 6, 41, 0
10, 42750, Note_on_c, 6, 48, 98
10, 42774, Note_on_c, 6, 48, 0
10, 42780, Note_on_c, 6, 41, 116
10, 42804, Note_on_c, 6, 41, 0
10, 42810, Note_on_c, 6, 48, 103
10, 42834, Note_on_c, 6, 48, 0
10, 42840, Note_on_c, 6, 41, 116
10, 42864, Note_on_c, 6, 41, 0
10, 42870, Note_on_c, 6, 48, 111
10, 42894, Note_on_c, 6, 48, 0
10, 42900, Note_on_c, 6, 41, 120
10, 42924, Note_on_c, 6, 41, 0
10, 42930, Note_on_c, 6, 48, 106
10, 42954, Note_on_c, 6, 48, 0
10, 42960, Note_on_c, 6, 41, 113
10, 42984, Note_on_c, 6, 41, 0
10, 42990, Note_on_c, 6, 48, 98
10, 43014, Note_on_c, 6, 48, 0
10, 43020, Note_on_c, 6, 41, 116
10, 43044, Note_on_c, 6, 41, 0
10, 43050, Note_on_c, 6, 48, 103
10, 43074, Note_on_c, 6, 48, 0
10, 43080, Note_on_c, 6, 41, 116
10, 43104, Note_on_c, 6, 41, 0
10, 43110, Note_on_c, 6, 48, 111
10, 43134, Note_on_c, 6, 48, 0
10, 43140, Note_on_c, 6, 41, 120
10, 43164, Note_on_c, 6, 41, 0
10, 43170, Note_on_c, 6, 48, 106
10, 43194, Note_on_c, 6, 48, 0
10, 43200, Note_on_c, 6, 36, 127
10, 43224, Note_on_c, 6, 36, 0
10, 43230, Note_on_c, 6, 48, 117
10, 43254, Note_on_c, 6, 48, 0
10, 43260, Note_on_c, 6, 36, 125
10, 43284, Note_on_c, 6, 36, 0
10, 43290, Note_on_c, 6, 48, 114
10, 43314, Note_on_c, 6, 48, 0
10, 43320, Note_on_c, 6, 36, 127
10, 43344, Note_on_c, 6, 36, 0
10, 43350, Note_on_c, 6, 48, 109
10, 43374, Note_on_c, 6, 48, 0
10, 43380, Note_on_c, 6, 36, 123
10, 43404, Note_on_c, 6, 36, 0
10, 43410, Note_on_c, 6, 48, 127
10, 43434, Note_on_c, 6, 48, 0
10, 43440, Note_on_c, 6, 36, 127
10, 43464, Note_on_c, 6, 36, 0
10, 43470, Note_on_c, 6, 48, 107
10, 43494, Note_on_c, 6, 48, 0
10, 43500, Note_on_c, 6, 36, 127
10, 43524, Note_on_c, 6, 36, 0
10, 43530, Note_on_c, 6, 48, 112
10, 43554, Note_on_c, 6, 48, 0
10, 43560, Note_on_c, 6, 36, 114
10, 43584, Note_on_c, 6, 36, 0
10, 43590, Note_on_c, 6, 48, 105
10, 43614, Note_on_c, 6, 48, 0
10, 43620, Note_on_c, 6, 36, 121
10, 43644, Note_on_c, 6, 36, 0
10, 43650, Note_on_c, 6, 48, 116
10, 43674, Note_on_c, 6, 48, 0
10, 43680, Note_on_c, 6, 36, 127
10, 43704, Note_on_c, 6, 36, 0
10, 43710, Note_on_c, 6, 48, 112
10, 43734, Note_on_c, 6, 48, 0
10, 43740, Note_on_c, 6, 36, 127
10, 43764, Note_on_c, 6, 36, 0
10, 43770, Note_on_c, 6, 48, 110
10, 43794, Note_on_c, 6, 48, 0
10, 43800, Note_on_c, 6, 36, 125
10, 43824, Note_on_c, 6, 36, 0
10, 43830, Note_on_c, 6, 48, 109
10, 43854, Note_on_c, 6, 48, 0
10, 43860, Note_on_c, 6, 36, 127
10, 43884, Note_on_c, 6, 36, 0
10, 43890, Note_on_c, 6, 48, 114
10, 43914, Note_on_c, 6, 48, 0
10, 43920, Note_on_c, 6, 36, 125
10, 43944, Note_on_c, 6, 36, 0
10, 43950, Note_on_c, 6, 48, 104
10, 43974, Note_on_c, 6, 48, 0
10, 43980, Note_on_c, 6, 36, 116
10, 44004, Note_on_c, 6, 36, 0
10, 44010, Note_on_c, 6, 48, 109
10, 44034, Note_on_c, 6, 48, 0
10, 44040, Note_on_c, 6, 36, 110
10, 44064, Note_on_c, 6, 36, 0
10, 44070, Note_on_c, 6, 48, 108
10, 44094, Note_on_c, 6, 48, 0
10, 44100, Note_on_c, 6, 36, 120
10, 44124, Note_on_c, 6, 36, 0
10, 44130, Note_on_c, 6, 48, 123
10, 44154, Note_on_c, 6, 48, 0
10, 44160, Note_on_c, 6, 41, 113
10, 44184, Note_on_c, 6, 41, 0
10, 44190, Note_on_c, 6, 48, 98
10, 44214, Note_on_c, 6, 48, 0
10, 44220, Note_on_c, 6, 41, 116
10, 44244, Note_on_c, 6, 41, 0
10, 44250, Note_on_c, 6, 48, 103
10, 44274, Note_on_c, 6, 48, 0
10, 44280, Note_on_c, 6, 41, 116
10, 44304, Note_on_c, 6, 41, 0
10, 44310, Note_on_c, 6, 48, 111
10, 44334, Note_on_c, 6, 48, 0
10, 44340, Note_on_c, 6, 41, 120
10, 44364, Note_on_c, 6, 41, 0
10, 44370, Note_on_c, 6, 48, 106
10, 44394, Note_on_c, 6, 48, 0
10, 44400, Note_on_c, 6, 41, 113
10, 44424, Note_on_c, 6, 41, 0
10, 44430, Note_on_c, 6, 48, 98
10, 44454, Note_on_c, 6, 48, 0
10, 44460, Note_on_c, 6, 41, 116
10, 44484, Note_on_c, 6, 41, 0
10, 44490, Note_on_c, 6, 48, 103
10, 44514, Note_on_c, 6, 48, 0
10, 44520, Note_on_c, 6, 41, 116
10, 44544, Note_on_c, 6, 41, 0
10, 44550, Note_on_c, 6, 48, 111
10, 44574, Note_on_c, 6, 48, 0
10, 44580, Note_on_c, 6, 41, 120
10, 44604, Note_on_c, 6, 41, 0
10, 44610, Note_on_c, 6, 48, 106
10, 44634, Note_on_c, 6, 48, 0
10, 44640, Note_on_c, 6, 41, 113
10, 44664, Note_on_c, 6, 41, 0
10, 44670, Note_on_c, 6, 48, 98
10, 44694, Note_on_c, 6, 48, 0
10, 44700, Note_on_c, 6, 41, 116
10, 44724, Note_on_c, 6, 41, 0
10, 44730, Note_on_c, 6, 48, 103
10, 44754, Note_on_c, 6, 48, 0
10, 44760, Note_on_c, 6, 41, 116
10, 44784, Note_on_c, 6, 41, 0
10, 44790, Note_on_c, 6, 48, 111
10, 44814, Note_on_c, 6, 48, 0
10, 44820, Note_on_c, 6, 41, 120
10, 44844, Note_on_c, 6, 41, 0
10, 44850, Note_on_c, 6, 48, 106
10, 44874, Note_on_c, 6, 48, 0
10, 44880, Note_on_c, 6, 41, 113
10, 44904, Note_on_c, 6, 41, 0
10, 44910, Note_on_c, 6, 48, 98
10, 44934, Note_on_c, 6, 48, 0
10, 44940, Note_on_c, 6, 41, 116
10, 44964, Note_on_c, 6, 41, 0
10, 44970, Note_on_c, 6, 48, 103
10, 44994, Note_on_c, 6, 48, 0
10, 45000, Note_on_c, 6, 41, 116
10, 45024, Note_on_c, 6, 41, 0
10, 45030, Note_on_c, 6, 48, 111
10, 45054, Note_on_c, 6, 48, 0
10, 45060, Note_on_c, 6, 41, 120
10, 45084, Note_on_c, 6, 41, 0
10, 45090, Note_on_c, 6, 48, 106
10, 45114, Note_on_c, 6, 48, 0
10, 45120, Note_on_c, 6, 41, 113
10, 45144, Note_on_c, 6, 41, 0
10, 45150, Note_on_c, 6, 48, 98
10, 45174, Note_on_c, 6, 48, 0
10, 45180, Note_on_c, 6, 41, 116
10, 45204, Note_on_c, 6, 41, 0
10, 45210, Note_on_c, 6, 48, 103
10, 45234, Note_on_c, 6, 48, 0
10, 45240, Note_on_c, 6, 41, 116
10, 45264, Note_on_c, 6, 41, 0
10, 45270, Note_on_c, 6, 48, 111
10, 45294, Note_on_c, 6, 48, 0
10, 45300, Note_on_c, 6, 41, 120
10, 45324, Note_on_c, 6, 41, 0
10, 45330, Note_on_c, 6, 48, 106
10, 45354, Note_on_c, 6, 48, 0
10, 45360, Note_on_c, 6, 41, 113
10, 45384, Note_on_c, 6, 41, 0
10, 45390, Note_on_c, 6, 48, 98
10, 45414, Note_on_c, 6, 48, 0
10, 45420, Note_on_c, 6, 41, 116
10, 45444, Note_on_c, 6, 41, 0
10, 45450, Note_on_c, 6, 48, 103
10, 45474, Note_on_c, 6, 48, 0
10, 45480, Note_on_c, 6, 41, 116
10, 45504, Note_on_c, 6, 41, 0
10, 45510, Note_on_c, 6, 48, 111
10, 45534, Note_on_c, 6, 48, 0
10, 45540, Note_on_c, 6, 41, 120
10, 45564, Note_on_c, 6, 41, 0
10, 45570, Note_on_c, 6, 48, 106
10, 45594, Note_on_c, 6, 48, 0
10, 45600, Note_on_c, 6, 41, 121
10, 45648, Note_on_c, 6, 41, 0
10, 48780, Note_on_c, 6, 45, 113
10, 48828, Note_on_c, 6, 45, 0
10, 48840, Note_on_c, 6, 43, 118
10, 48888, Note_on_c, 6, 43, 0
10, 48900, Note_on_c, 6, 42, 100
10, 48948, Note_on_c, 6, 42, 0
10, 48960, Note_on_c, 6, 43, 105
10, 49392, Note_on_c, 6, 43, 0
10, 49440, Note_on_c, 6, 48, 102
10, 49872, Note_on_c, 6, 48, 0
10, 49920, Note_on_c, 6, 47, 114
10, 50016, Note_on_c, 6, 47, 0
10, 50040, Note_on_c, 6, 47, 125
10, 50136, Note_on_c, 6, 47, 0
10, 50160, Note_on_c, 6, 47, 127
10, 50256, Note_on_c, 6, 47, 0
10, 50280, Note_on_c, 6, 50, 117
10, 50328, Note_on_c, 6, 50, 0
10, 50340, Note_on_c, 6, 47, 127
10, 50388, Note_on_c, 6, 47, 0
10, 50400, Note_on_c, 6, 48, 103
10, 50496, Note_on_c, 6, 48, 0
10, 50520, Note_on_c, 6, 48, 113
10, 50616, Note_on_c, 6, 48, 0
10, 50640, Note_on_c, 6, 48, 102
10, 50736, Note_on_c, 6, 48, 0
10, 50760, Note_on_c, 6, 52, 116
10, 50808, Note_on_c, 6, 52, 0
10, 50820, Note_on_c, 6, 48, 127
10, 50868, Note_on_c, 6, 48, 0
10, 50880, Note_on_c, 6, 57, 121
10, 50928, Note_on_c, 6, 57, 0
10, 50940, Note_on_c, 6, 55, 127
10, 50988, Note_on_c, 6, 55, 0
10, 51000, Note_on_c, 6, 53, 112
10, 51048, Note_on_c, 6, 53, 0
10, 51060, Note_on_c, 6, 50, 117
10, 51108, Note_on_c, 6, 50, 0
10, 51120, Note_on_c, 6, 43, 127
10, 51168, Note_on_c, 6, 43, 0
10, 51180, Note_on_c, 6, 53, 123
10, 51228, Note_on_c, 6, 53, 0
10, 51240, Note_on_c, 6, 50, 127
10, 51288, Note_on_c, 6, 50, 0
10, 51300, Note_on_c, 6, 43, 108
10, 51348, Note_on_c, 6, 43, 0
10, 51360, Note_on_c, 6, 57, 116
10, 51408, Note_on_c, 6, 57, 0
10, 51420, Note_on_c, 6, 55, 127
10, 51468, Note_on_c, 6, 55, 0
10, 51480, Note_on_c, 6, 52, 123
10, 51528, Note_on_c, 6, 52, 0
10, 51540, Note_on_c, 6, 48, 120
10, 51588, Note_on_c, 6, 48, 0
10, 51600, Note_on_c, 6, 43, 120
10, 51648, Note_on_c, 6, 43, 0
10, 51660, Note_on_c, 6, 52, 113
10, 51708, Note_on_c, 6, 52, 0
10, 51720, Note_on_c, 6, 48, 127
10, 51768, Note_on_c, 6, 48, 0
10, 51780, Note_on_c, 6, 43, 123
10, 51828, Note_on_c, 6, 43, 0
10, 51840, Note_on_c, 6, 57, 123
10, 51888, Note_on_c, 6, 57, 0
10, 51900, Note_on_c, 6, 55, 127
10, 51948, Note_on_c, 6, 55, 0
10, 51960, Note_on_c, 6, 53, 118
10, 52008, Note_on_c, 6, 53, 0
10, 52020, Note_on_c, 6, 50, 107
10, 52068, Note_on_c, 6, 50, 0
10, 52080, Note_on_c, 6, 43, 123
10, 52128, Note_on_c, 6, 43, 0
10, 52140, Note_on_c, 6, 53, 112
10, 52188, Note_on_c, 6, 53, 0
10, 52200, Note_on_c, 6, 50, 112
10, 52248, Note_on_c, 6, 50, 0
10, 52260, Note_on_c, 6, 43, 114
10, 52308, Note_on_c, 6, 43, 0
10, 52320, Note_on_c, 6, 57, 98
10, 52368, Note_on_c, 6, 57, 0
10, 52380, Note_on_c, 6, 55, 123
10, 52428, Note_on_c, 6, 55, 0
10, 52440, Note_on_c, 6, 52, 127
10, 52488, Note_on_c, 6, 52, 0
10, 52500, Note_on_c, 6, 48, 120
10, 52548, Note_on_c, 6, 48, 0
10, 52560, Note_on_c, 6, 43, 127
10, 52608, Note_on_c, 6, 43, 0
10, 52620, Note_on_c, 6, 52, 103
10, 52668, Note_on_c, 6, 52, 0
10, 52680, Note_on_c, 6, 48, 121
10, 52728, Note_on_c, 6, 48, 0
10, 52740, Note_on_c, 6, 43, 108
10, 52788, Note_on_c, 6, 43, 0
10, 52800, Note_on_c, 6, 43, 98
10, 53232, Note_on_c, 6, 43, 0
10, 53280, Note_on_c, 6, 48, 114
10, 53712, Note_on_c, 6, 48, 0
10, 53760, Note_on_c, 6, 47, 118
10, 53856, Note_on_c, 6, 47, 0
10, 53880, Note_on_c, 6, 47, 125
10, 53976, Note_on_c, 6, 47, 0
10, 54000, Note_on_c, 6, 47, 127
10, 54096, Note_on_c, 6, 47, 0
10, 54120, Note_on_c, 6, 50, 120
10, 54168, Note_on_c, 6, 50, 0
10, 54180, Note_on_c, 6, 47, 127
10, 54228, Note_on_c, 6, 47, 0
10, 54240, Note_on_c, 6, 48, 123
10, 54336, Note_on_c, 6, 48, 0
10, 54360, Note_on_c, 6, 48, 109
10, 54456, Note_on_c, 6, 48, 0
10, 54480, Note_on_c, 6, 48, 127
10, 54576, Note_on_c, 6, 48, 0
10, 54600, Note_on_c, 6, 52, 50
10, 54648, Note_on_c, 6, 52, 0
10, 54660, Note_on_c, 6, 48, 112
10, 54708, Note_on_c, 6, 48, 0
10, 54720, Note_on_c, 6, 50, 127
10, 54816, Note_on_c, 6, 50, 0
10, 54840, Note_on_c, 6, 50, 97
10, 54936, Note_on_c, 6, 50, 0
10, 54960, Note_on_c, 6, 50, 123
10, 55056, Note_on_c, 6, 50, 0
10, 55080, Note_on_c, 6, 53, 105
10, 55128, Note_on_c, 6, 53, 0
10, 55140, Note_on_c, 6, 50, 114
10, 55188, Note_on_c, 6, 50, 0
10, 55200, Note_on_c, 6, 48, 104
10, 55872, Note_on_c, 6, 48, 0
10, 55920, Note_on_c, 6, 41, 127
10, 55968, Note_on_c, 6, 41, 0
10, 56160, Note_on_c, 6, 41, 121
10, 56352, Note_on_c, 6, 41, 0
10, 56400, Note_on_c, 6, 48, 123
10, 56592, Note_on_c, 6, 48, 0
10, 56640, Note_on_c, 6, 43, 125
10, 56832, Note_on_c, 6, 43, 0
10, 56880, Note_on_c, 6, 48, 127
10, 57552, Note_on_c, 6, 48, 0
10, 57600, Note_on_c, 6, 41, 127
10, 57648, Note_on_c, 6, 41, 0
10, 57840, Note_on_c, 6, 41, 127
10, 58032, Note_on_c, 6, 41, 0
10, 58080, Note_on_c, 6, 48, 123
10, 58272, Note_on_c, 6, 48, 0
10, 58320, Note_on_c, 6, 43, 110
10, 58512, Note_on_c, 6, 43, 0
10, 58560, Note_on_c, 6, 48, 127
10, 58656, Note_on_c, 6, 48, 0
10, 58680, Note_on_c, 6, 48, 127
10, 58776, Note_on_c, 6, 48, 0
10, 58800, Note_on_c, 6, 41, 112
10, 58896, Note_on_c, 6, 41, 0
10, 58920, Note_on_c, 6, 41, 112
10, 59016, Note_on_c, 6, 41, 0
10, 59040, Note_on_c, 6, 48, 109
10, 59136, Note_on_c, 6, 48, 0
10, 59160, Note_on_c, 6, 48, 127
10, 59256, Note_on_c, 6, 48, 0
10, 59280, Note_on_c, 6, 43, 105
10, 59376, Note_on_c, 6, 43, 0
10, 59400, Note_on_c, 6, 43, 110
10, 59496, Note_on_c, 6, 43, 0
10, 59520, Note_on_c, 6, 48, 127
10, 59552, Note_on_c, 6, 48, 0
10, 59560, Note_on_c, 6, 48, 127
10, 59592, Note_on_c, 6, 48, 0
10, 59600, Note_on_c, 6, 48, 127
10, 59632, Note_on_c, 6, 48, 0
10, 59640, Note_on_c, 6, 48, 127
10, 59672, Note_on_c, 6, 48, 0
10, 59680, Note_on_c, 6, 50, 127
10, 59712, Note_on_c, 6, 50, 0
10, 59720, Note_on_c, 6, 52, 120
10, 59752, Note_on_c, 6, 52, 0
10, 59760, Note_on_c, 6, 53, 127
10, 59792, Note_on_c, 6, 53, 0
10, 59800, Note_on_c, 6, 53, 127
10, 59832, Note_on_c, 6, 53, 0
10, 59840, Note_on_c, 6, 53, 127
10, 59872, Note_on_c, 6, 53, 0
10, 59880, Note_on_c, 6, 57, 121
10, 59912, Note_on_c, 6, 57, 0
10, 59920, Note_on_c, 6, 57, 127
10, 59952, Note_on_c, 6, 57, 0
10, 59960, Note_on_c, 6, 57, 127
10, 59992, Note_on_c, 6, 57, 0
10, 60000, Note_on_c, 6, 60, 127
10, 60032, Note_on_c, 6, 60, 0
10, 60040, Note_on_c, 6, 60, 127
10, 60072, Note_on_c, 6, 60, 0
10, 60080, Note_on_c, 6, 60, 123
10, 60112, Note_on_c, 6, 60, 0
10, 60120, Note_on_c, 6, 64, 107
10, 60152, Note_on_c, 6, 64, 0
10, 60160, Note_on_c, 6, 64, 120
10, 60192, Note_on_c, 6, 64, 0
10, 60200, Note_on_c, 6, 64, 107
10, 60232, Note_on_c, 6, 64, 0
10, 60240, Note_on_c, 6, 67, 121
10, 60272, Note_on_c, 6, 67, 0
10, 60280, Note_on_c, 6, 43, 103
10, 60312, Note_on_c, 6, 43, 0
10, 60320, Note_on_c, 6, 43, 111
10, 60352, Note_on_c, 6, 43, 0
10, 60360, Note_on_c, 6, 43, 118
10, 60392, Note_on_c, 6, 43, 0
10, 60400, Note_on_c, 6, 43, 101
10, 60432, Note_on_c, 6, 43, 0
10, 60440, Note_on_c, 6, 43, 107
10, 60472, Note_on_c, 6, 43, 0
10, 60480, Note_on_c, 6, 36, 110
10, 60512, Note_on_c, 6, 36, 0
10, 60520, Note_on_c, 6, 36, 127
10, 60552, Note_on_c, 6, 36, 0
10, 60560, Note_on_c, 6, 36, 127
10, 60592, Note_on_c, 6, 36, 0
10, 60600, Note_on_c, 6, 36, 109
10, 60992, Note_on_c, 6, 36, 0
10, 61000, Note_on_c, 6, 36, 123
10, 61032, Note_on_c, 6, 36, 0
10, 61040, Note_on_c, 6, 36, 127
10, 61072, Note_on_c, 6, 36, 0
10, 61080, Note_on_c, 6, 36, 117
10, 61472, Note_on_c, 6, 36, 0
10, 61480, Note_on_c, 6, 36, 127
10, 61512, Note_on_c, 6, 36, 0
10, 61520, Note_on_c, 6, 36, 123
10, 61552, Note_on_c, 6, 36, 0
10, 61560, Note_on_c, 6, 36, 120
10, 61952, Note_on_c, 6, 36, 0
10, 61960, Note_on_c, 6, 36, 127
10, 61992, Note_on_c, 6, 36, 0
10, 62000, Note_on_c, 6, 36, 127
10, 62032, Note_on_c, 6, 36, 0
10, 62040, Note_on_c, 6, 36, 127
10, 62432, Note_on_c, 6, 36, 0
10, 62440, Note_on_c, 6, 36, 127
10, 62472, Note_on_c, 6, 36, 0
10, 62480, Note_on_c, 6, 36, 127
10, 62512, Note_on_c, 6, 36, 0
10, 62520, Note_on_c, 6, 36, 127
10, 62672, Note_on_c, 6, 36, 0
10, 62680, Note_on_c, 6, 36, 127
10, 62712, Note_on_c, 6, 36, 0
10, 62720, Note_on_c, 6, 36, 127
10, 62752, Note_on_c, 6, 36, 0
10, 62760, Note_on_c, 6, 36, 127
10, 62912, Note_on_c, 6, 36, 0
10, 62920, Note_on_c, 6, 36, 127
10, 62952, Note_on_c, 6, 36, 0
10, 62960, Note_on_c, 6, 36, 127
10, 62992, Note_on_c, 6, 36, 0
10, 63000, Note_on_c, 6, 36, 127
10, 63152, Note_on_c, 6, 36, 0
10, 63160, Note_on_c, 6, 36, 117
10, 63192, Note_on_c, 6, 36, 0
10, 63200, Note_on_c, 6, 36, 125
10, 63232, Note_on_c, 6, 36, 0
10, 63240, Note_on_c, 6, 36, 127
10, 63392, Note_on_c, 6, 36, 0
10, 63400, Note_on_c, 6, 36, 127
10, 63432, Note_on_c, 6, 36, 0
10, 63440, Note_on_c, 6, 36, 127
10, 63472, Note_on_c, 6, 36, 0
10, 63480, Note_on_c, 6, 36, 127
10, 63632, Note_on_c, 6, 36, 0
10, 63640, Note_on_c, 6, 36, 127
10, 63672, Note_on_c, 6, 36, 0
10, 63680, Note_on_c, 6, 36, 127
10, 63712, Note_on_c, 6, 36, 0
10, 63720, Note_on_c, 6, 36, 127
10, 63872, Note_on_c, 6, 36, 0
10, 63880, Note_on_c, 6, 36, 127
10, 63912, Note_on_c, 6, 36, 0
10, 63920, Note_on_c, 6, 36, 127
10, 63952, Note_on_c, 6, 36, 0
10, 63960, Note_on_c, 6, 36, 127
10, 64112, Note_on_c, 6, 36, 0
10, 64120, Note_on_c, 6, 36, 127
10, 64152, Note_on_c, 6, 36, 0
10, 64160, Note_on_c, 6, 36, 127
10, 64192, Note_on_c, 6, 36, 0
10, 64200, Note_on_c, 6, 36, 127
10, 64376, Note_on_c, 6, 36, 0
10, 64380, Note_on_c, 6, 43, 127
10, 64404, Note_on_c, 6, 43, 0
10, 64410, Note_on_c, 6, 40, 127
10, 64434, Note_on_c, 6, 40, 0
10, 64440, Note_on_c, 6, 36, 110
10, 64488, Note_on_c, 6, 36, 0
10, 64500, Note_on_c, 6, 43, 123
10, 64524, Note_on_c, 6, 43, 0
10, 64530, Note_on_c, 6, 40, 118
10, 64554, Note_on_c, 6, 40, 0
10, 64560, Note_on_c, 6, 36, 127
10, 64608, Note_on_c, 6, 36, 0
10, 64620, Note_on_c, 6, 43, 127
10, 64644, Note_on_c, 6, 43, 0
10, 64650, Note_on_c, 6, 40, 127
10, 64674, Note_on_c, 6, 40, 0
10, 64680, Note_on_c, 6, 36, 127
10, 64728, Note_on_c, 6, 36, 0
10, 64740, Note_on_c, 6, 43, 125
10, 64764, Note_on_c, 6, 43, 0
10, 64770, Note_on_c, 6, 40, 125
10, 64794, Note_on_c, 6, 40, 0
10, 64800, Note_on_c, 6, 36, 127
10, 64848, Note_on_c, 6, 36, 0
10, 64860, Note_on_c, 6, 43, 121
10, 64884, Note_on_c, 6, 43, 0
10, 64890, Note_on_c, 6, 40, 120
10, 64914, Note_on_c, 6, 40, 0
10, 64920, Note_on_c, 6, 36, 127
10, 64968, Note_on_c, 6, 36, 0
10, 64980, Note_on_c, 6, 43, 127
10, 65004, Note_on_c, 6, 43, 0
10, 65010, Note_on_c, 6, 40, 127
10, 65034, Note_on_c, 6, 40, 0
10, 65040, Note_on_c, 6, 36, 127
10, 65088, Note_on_c, 6, 36, 0
10, 65100, Note_on_c, 6, 43, 127
10, 65124, Note_on_c, 6, 43, 0
10, 65130, Note_on_c, 6, 40, 127
10, 65154, Note_on_c, 6, 40, 0
10, 65160, Note_on_c, 6, 36, 127
10, 65208, Note_on_c, 6, 36, 0
10, 65220, Note_on_c, 6, 43, 127
10, 65244, Note_on_c, 6, 43, 0
10, 65250, Note_on_c, 6, 40, 127
10, 65274, Note_on_c, 6, 40, 0
10, 65280, Note_on_c, 6, 36, 127
10, 65328, Note_on_c, 6, 36, 0
10, 69060, Note_on_c, 6, 41, 125
10, 69108, Note_on_c, 6, 41, 0
10, 69120, Note_on_c, 6, 41, 117
10, 69152, Note_on_c, 6, 41, 0
10, 69160, Note_on_c, 6, 50, 98
10, 69192, Note_on_c, 6, 50, 0
10, 69200, Note_on_c, 6, 46, 111
10, 69232, Note_on_c, 6, 46, 0
10, 69240, Note_on_c, 6, 53, 104
10, 69272, Note_on_c, 6, 53, 0
10, 69280, Note_on_c, 6, 50, 127
10, 69312, Note_on_c, 6, 50, 0
10, 69320, Note_on_c, 6, 46, 113
10, 69352, Note_on_c, 6, 46, 0
10, 69360, Note_on_c, 6, 41, 116
10, 69392, Note_on_c, 6, 41, 0
10, 69400, Note_on_c, 6, 50, 104
10, 69432, Note_on_c, 6, 50, 0
10, 69440, Note_on_c, 6, 46, 126
10, 69472, Note_on_c, 6, 46, 0
10, 69480, Note_on_c, 6, 53, 107
10, 69512, Note_on_c, 6, 53, 0
10, 69520, Note_on_c, 6, 50, 125
10, 69552, Note_on_c, 6, 50, 0
10, 69560, Note_on_c, 6, 46, 121
10, 69592, Note_on_c, 6, 46, 0
10, 69600, Note_on_c, 6, 41, 117
10, 69632, Note_on_c, 6, 41, 0
10, 69640, Note_on_c, 6, 50, 121
10, 69672, Note_on_c, 6, 50, 0
10, 69680, Note_on_c, 6, 46, 99
10, 69712, Note_on_c, 6, 46, 0
10, 69720, Note_on_c, 6, 53, 113
10, 69752, Note_on_c, 6, 53, 0
10, 69760, Note_on_c, 6, 50, 127
10, 69792, Note_on_c, 6, 50, 0
10, 69800, Note_on_c, 6, 46, 121
10, 69832, Note_on_c, 6, 46, 0
10, 69840, Note_on_c, 6, 41, 117
10, 69872, Note_on_c, 6, 41, 0
10, 69880, Note_on_c, 6, 50, 100
10, 69912, Note_on_c, 6, 50, 0
10, 69920, Note_on_c, 6, 46, 103
10, 69952, Note_on_c, 6, 46, 0
10, 69960, Note_on_c, 6, 53, 120
10, 69992, Note_on_c, 6, 53, 0
10, 70000, Note_on_c, 6, 50, 127
10, 70032, Note_on_c, 6, 50, 0
10, 70040, Note_on_c, 6, 46, 97
10, 70072, Note_on_c, 6, 46, 0
10, 70080, Note_on_c, 6, 41, 99
10, 70112, Note_on_c, 6, 41, 0
10, 70120, Note_on_c, 6, 50, 103
10, 70152, Note_on_c, 6, 50, 0
10, 70160, Note_on_c, 6, 46, 103
10, 70192, Note_on_c, 6, 46, 0
10, 70200, Note_on_c, 6, 53, 109
10, 70232, Note_on_c, 6, 53, 0
10, 70240, Note_on_c, 6, 50, 118
10, 70272, Note_on_c, 6, 50, 0
10, 70280, Note_on_c, 6, 46, 81
10, 70312, Note_on_c, 6, 46, 0
10, 70320, Note_on_c, 6, 41, 120
10, 70352, Note_on_c, 6, 41, 0
10, 70360, Note_on_c, 6, 50, 111
10, 70392, Note_on_c, 6, 50, 0
10, 70400, Note_on_c, 6, 46, 91
10, 70432, Note_on_c, 6, 46, 0
10, 70440, Note_on_c, 6, 53, 98
10, 70472, Note_on_c, 6, 53, 0
10, 70480, Note_on_c, 6, 50, 121
10, 70512, Note_on_c, 6, 50, 0
10, 70520, Note_on_c, 6, 46, 80
10, 70552, Note_on_c, 6, 46, 0
10, 70560, Note_on_c, 6, 41, 100
10, 70592, Note_on_c, 6, 41, 0
10, 70600, Note_on_c, 6, 50, 105
10, 70632, Note_on_c, 6, 50, 0
10, 70640, Note_on_c, 6, 46, 118
10, 70672, Note_on_c, 6, 46, 0
10, 70680, Note_on_c, 6, 53, 94
10, 70712, Note_on_c, 6, 53, 0
10, 70720, Note_on_c, 6, 50, 120
10, 70752, Note_on_c, 6, 50, 0
10, 70760, Note_on_c, 6, 46, 81
10, 70792, Note_on_c, 6, 46, 0
10, 70800, Note_on_c, 6, 41, 113
10, 70832, Note_on_c, 6, 41, 0
10, 70840, Note_on_c, 6, 50, 105
10, 70872, Note_on_c, 6, 50, 0
10, 70880, Note_on_c, 6, 46, 93
10, 70912, Note_on_c, 6, 46, 0
10, 70920, Note_on_c, 6, 53, 112
10, 70952, Note_on_c, 6, 53, 0
10, 70960, Note_on_c, 6, 50, 125
10, 70992, Note_on_c, 6, 50, 0
10, 71000, Note_on_c, 6, 46, 82
10, 71032, Note_on_c, 6, 46, 0
10, 71040, Note_on_c, 6, 41, 98
10, 71072, Note_on_c, 6, 41, 0
10, 71080, Note_on_c, 6, 50, 121
10, 71112, Note_on_c, 6, 50, 0
10, 71120, Note_on_c, 6, 46, 109
10, 71152, Note_on_c, 6, 46, 0
10, 71160, Note_on_c, 6, 53, 104
10, 71192, Note_on_c, 6, 53, 0
10, 71200, Note_on_c, 6, 50, 127
10, 71232, Note_on_c, 6, 50, 0
10, 71240, Note_on_c, 6, 46, 76
10, 71272, Note_on_c, 6, 46, 0
10, 71280, Note_on_c, 6, 41, 117
10, 71312, Note_on_c, 6, 41, 0
10, 71320, Note_on_c, 6, 50, 127
10, 71352, Note_on_c, 6, 50, 0
10, 71360, Note_on_c, 6, 46, 111
10, 71392, Note_on_c, 6, 46, 0
10, 71400, Note_on_c, 6, 53, 112
10, 71432, Note_on_c, 6, 53, 0
10, 71440, Note_on_c, 6, 50, 116
10, 71472, Note_on_c, 6, 50, 0
10, 71480, Note_on_c, 6, 46, 85
10, 71512, Note_on_c, 6, 46, 0
10, 71520, Note_on_c, 6, 41, 99
10, 71552, Note_on_c, 6, 41, 0
10, 71560, Note_on_c, 6, 50, 117
10, 71592, Note_on_c, 6, 50, 0
10, 71600, Note_on_c, 6, 46, 115
10, 71632, Note_on_c, 6, 46, 0
10, 71640, Note_on_c, 6, 53, 96
10, 71672, Note_on_c, 6, 53, 0
10, 71680, Note_on_c, 6, 50, 127
10, 71712, Note_on_c, 6, 50, 0
10, 71720, Note_on_c, 6, 46, 118
10, 71752, Note_on_c, 6, 46, 0
10, 71760, Note_on_c, 6, 41, 101
10, 71792, Note_on_c, 6, 41, 0
10, 71800, Note_on_c, 6, 50, 111
10, 71832, Note_on_c, 6, 50, 0
10, 71840, Note_on_c, 6, 46, 92
10, 71872, Note_on_c, 6, 46, 0
10, 71880, Note_on_c, 6, 53, 117
10, 71912, Note_on_c, 6, 53, 0
10, 71920, Note_on_c, 6, 50, 127
10, 71952, Note_on_c, 6, 50, 0
10, 71960, Note_on_c, 6, 46, 101
10, 71992, Note_on_c, 6, 46, 0
10, 72000, Note_on_c, 6, 45, 127
10, 72032, Note_on_c, 6, 45, 0
10, 72040, Note_on_c, 6, 54, 101
10, 72072, Note_on_c, 6, 54, 0
10, 72080, Note_on_c, 6, 50, 127
10, 72112, Note_on_c, 6, 50, 0
10, 72120, Note_on_c, 6, 57, 125
10, 72152, Note_on_c, 6, 57, 0
10, 72160, Note_on_c, 6, 54, 107
10, 72192, Note_on_c, 6, 54, 0
10, 72200, Note_on_c, 6, 50, 127
10, 72232, Note_on_c, 6, 50, 0
10, 72240, Note_on_c, 6, 45, 127
10, 72272, Note_on_c, 6, 45, 0
10, 72280, Note_on_c, 6, 54, 103
10, 72312, Note_on_c, 6, 54, 0
10, 72320, Note_on_c, 6, 50, 112
10, 72352, Note_on_c, 6, 50, 0
10, 72360, Note_on_c, 6, 57, 105
10, 72392, Note_on_c, 6, 57, 0
10, 72400, Note_on_c, 6, 54, 83
10, 72432, Note_on_c, 6, 54, 0
10, 72440, Note_on_c, 6, 50, 109
10, 72472, Note_on_c, 6, 50, 0
10, 72480, Note_on_c, 6, 45, 127
10, 72512, Note_on_c, 6, 45, 0
10, 72520, Note_on_c, 6, 54, 111
10, 72552, Note_on_c, 6, 54, 0
10, 72560, Note_on_c, 6, 50, 116
10, 72592, Note_on_c, 6, 50, 0
10, 72600, Note_on_c, 6, 57, 109
10, 72632, Note_on_c, 6, 57, 0
10, 72640, Note_on_c, 6, 54, 107
10, 72672, Note_on_c, 6, 54, 0
10, 72680, Note_on_c, 6, 50, 112
10, 72712, Note_on_c, 6, 50, 0
10, 72720, Note_on_c, 6, 45, 127
10, 72752, Note_on_c, 6, 45, 0
10, 72760, Note_on_c, 6, 54, 118
10, 72792, Note_on_c, 6, 54, 0
10, 72800, Note_on_c, 6, 50, 98
10, 72832, Note_on_c, 6, 50, 0
10, 72840, Note_on_c, 6, 57, 100
10, 72872, Note_on_c, 6, 57, 0
10, 72880, Note_on_c, 6, 54, 107
10, 72912, Note_on_c, 6, 54, 0
10, 72920, Note_on_c, 6, 50, 127
10, 72952, Note_on_c, 6, 50, 0
10, 72960, Note_on_c, 6, 45, 127
10, 72992, Note_on_c, 6, 45, 0
10, 73000, Note_on_c, 6, 54, 109
10, 73032, Note_on_c, 6, 54, 0
10, 73040, Note_on_c, 6, 50, 127
10, 73072, Note_on_c, 6, 50, 0
10, 73080, Note_on_c, 6, 57, 120
10, 73112, Note_on_c, 6, 57, 0
10, 73120, Note_on_c, 6, 54, 107
10, 73152, Note_on_c, 6, 54, 0
10, 73160, Note_on_c, 6, 50, 127
10, 73192, Note_on_c, 6, 50, 0
10, 73200, Note_on_c, 6, 45, 127
10, 73232, Note_on_c, 6, 45, 0
10, 73240, Note_on_c, 6, 54, 109
10, 73272, Note_on_c, 6, 54, 0
10, 73280, Note_on_c, 6, 50, 127
10, 73312, Note_on_c, 6, 50, 0
10, 73320, Note_on_c, 6, 57, 95
10, 73352, Note_on_c, 6, 57, 0
10, 73360, Note_on_c, 6, 54, 105
10, 73392, Note_on_c, 6, 54, 0
10, 73400, Note_on_c, 6, 50, 127
10, 73432, Note_on_c, 6, 50, 0
10, 73440, Note_on_c, 6, 45, 127
10, 73472, Note_on_c, 6, 45, 0
10, 73480, Note_on_c, 6, 54, 107
10, 73512, Note_on_c, 6, 54, 0
10, 73520, Note_on_c, 6, 50, 127
10, 73552, Note_on_c, 6, 50, 0
10, 73560, Note_on_c, 6, 57, 99
10, 73592, Note_on_c, 6, 57, 0
10, 73600, Note_on_c, 6, 54, 111
10, 73632, Note_on_c, 6, 54, 0
10, 73640, Note_on_c, 6, 50, 127
10, 73672, Note_on_c, 6, 50, 0
10, 73680, Note_on_c, 6, 45, 127
10, 73712, Note_on_c, 6, 45, 0
10, 73720, Note_on_c, 6, 54, 94
10, 73752, Note_on_c, 6, 54, 0
10, 73760, Note_on_c, 6, 50, 127
10, 73792, Note_on_c, 6, 50, 0
10, 73800, Note_on_c, 6, 57, 103
10, 73832, Note_on_c, 6, 57, 0
10, 73840, Note_on_c, 6, 54, 113
10, 73872, Note_on_c, 6, 54, 0
10, 73880, Note_on_c, 6, 50, 127
10, 73912, Note_on_c, 6, 50, 0
10, 73920, Note_on_c, 6, 45, 127
10, 73952, Note_on_c, 6, 45, 0
10, 73960, Note_on_c, 6, 54, 88
10, 73992, Note_on_c, 6, 54, 0
10, 74000, Note_on_c, 6, 50, 127
10, 74032, Note_on_c, 6, 50, 0
10, 74040, Note_on_c, 6, 57, 105
10, 74072, Note_on_c, 6, 57, 0
10, 74080, Note_on_c, 6, 54, 107
10, 74112, Note_on_c, 6, 54, 0
10, 74120, Note_on_c, 6, 50, 127
10, 74152, Note_on_c, 6, 50, 0
10, 74160, Note_on_c, 6, 45, 127
10, 74192, Note_on_c, 6, 45, 0
10, 74200, Note_on_c, 6, 54, 101
10, 74232, Note_on_c, 6, 54, 0
10, 74240, Note_on_c, 6, 50, 127
10, 74272, Note_on_c, 6, 50, 0
10, 74280, Note_on_c, 6, 57, 113
10, 74312, Note_on_c, 6, 57, 0
10, 74320, Note_on_c, 6, 54, 107
10, 74352, Note_on_c, 6, 54, 0
10, 74360, Note_on_c, 6, 50, 127
10, 74392, Note_on_c, 6, 50, 0
10, 74400, Note_on_c, 6, 45, 112
10, 74432, Note_on_c, 6, 45, 0
10, 74440, Note_on_c, 6, 54, 101
10, 74472, Note_on_c, 6, 54, 0
10, 74480, Note_on_c, 6, 50, 127
10, 74512, Note_on_c, 6, 50, 0
10, 74520, Note_on_c, 6, 57, 102
10, 74552, Note_on_c, 6, 57, 0
10, 74560, Note_on_c, 6, 54, 101
10, 74592, Note_on_c, 6, 54, 0
10, 74600, Note_on_c, 6, 50, 127
10, 74632, Note_on_c, 6, 50, 0
10, 74640, Note_on_c, 6, 45, 127
10, 74672, Note_on_c, 6, 45, 0
10, 74680, Note_on_c, 6, 54, 113
10, 74712, Note_on_c, 6, 54, 0
10, 74720, Note_on_c, 6, 50, 127
10, 74752, Note_on_c, 6, 50, 0
10, 74760, Note_on_c, 6, 57, 99
10, 74792, Note_on_c, 6, 57, 0
10, 74800, Note_on_c, 6, 54, 103
10, 74832, Note_on_c, 6, 54, 0
10, 74840, Note_on_c, 6, 50, 127
10, 74872, Note_on_c, 6, 50, 0
10, 74880, Note_on_c, 6, 50, 117
10, 74928, Note_on_c, 6, 50, 0
10, 74940, Note_on_c, 6, 45, 127
10, 74964, Note_on_c, 6, 45, 0
10, 74970, Note_on_c, 6, 43, 127
10, 74994, Note_on_c, 6, 43, 0
10, 75000, Note_on_c, 6, 42, 121
10, 75048, Note_on_c, 6, 42, 0
10, 75060, Note_on_c, 6, 38, 127
10, 75108, Note_on_c, 6, 38, 0
10, 75120, Note_on_c, 6, 50, 127
10, 75168, Note_on_c, 6, 50, 0
10, 75180, Note_on_c, 6, 45, 127
10, 75204, Note_on_c, 6, 45, 0
10, 75210, Note_on_c, 6, 43, 127
10, 75234, Note_on_c, 6, 43, 0
10, 75240, Note_on_c, 6, 42, 121
10, 75288, Note_on_c, 6, 42, 0
10, 75300, Note_on_c, 6, 38, 127
10, 75348, Note_on_c, 6, 38, 0
10, 75360, Note_on_c, 6, 50, 117
10, 75408, Note_on_c, 6, 50, 0
10, 75420, Note_on_c, 6, 45, 127
10, 75444, Note_on_c, 6, 45, 0
10, 75450, Note_on_c, 6, 43, 127
10, 75474, Note_on_c, 6, 43, 0
10, 75480, Note_on_c, 6, 42, 113
10, 75528, Note_on_c, 6, 42, 0
10, 75540, Note_on_c, 6, 38, 127
10, 75588, Note_on_c, 6, 38, 0
10, 75600, Note_on_c, 6, 50, 127
10, 75648, Note_on_c, 6, 50, 0
10, 75660, Note_on_c, 6, 45, 121
10, 75684, Note_on_c, 6, 45, 0
10, 75690, Note_on_c, 6, 43, 127
10, 75714, Note_on_c, 6, 43, 0
10, 75720, Note_on_c, 6, 42, 121
10, 75768, Note_on_c, 6, 42, 0
10, 75780, Note_on_c, 6, 38, 127
10, 75828, Note_on_c, 6, 38, 0
10, 75840, Note_on_c, 6, 50, 123
10, 75888, Note_on_c, 6, 50, 0
10, 75900, Note_on_c, 6, 45, 103
10, 75924, Note_on_c, 6, 45, 0
10, 75930, Note_on_c, 6, 43, 127
10, 75954, Note_on_c, 6, 43, 0
10, 75960, Note_on_c, 6, 42, 123
10, 76008, Note_on_c, 6, 42, 0
10, 76020, Note_on_c, 6, 38, 127
10, 76068, Note_on_c, 6, 38, 0
10, 76320, Note_on_c, 6, 50, 111
10, 76368, Note_on_c, 6, 50, 0
10, 76380, Note_on_c, 6, 45, 127
10, 76404, Note_on_c, 6, 45, 0
10, 76410, Note_on_c, 6, 43, 127
10, 76434, Note_on_c, 6, 43, 0
10, 76440, Note_on_c, 6, 42, 123
10, 76488, Note_on_c, 6, 42, 0
10, 76500, Note_on_c, 6, 38, 127
10, 76548, Note_on_c, 6, 38, 0
10, 79680, Note_on_c, 6, 43, 107
10, 79944, Note_on_c, 6, 43, 0
10, 79950, Note_on_c, 6, 42, 107
10, 79974, Note_on_c, 6, 42, 0
10, 79980, Note_on_c, 6, 40, 123
10, 80004, Note_on_c, 6, 40, 0
10, 80010, Note_on_c, 6, 38, 125
10, 80034, Note_on_c, 6, 38, 0
10, 80040, Note_on_c, 6, 38, 121
10, 80088, Note_on_c, 6, 38, 0
10, 80100, Note_on_c, 6, 38, 118
10, 80148, Note_on_c, 6, 38, 0
10, 80160, Note_on_c, 6, 43, 104
10, 80192, Note_on_c, 6, 43, 0
10, 80200, Note_on_c, 6, 50, 67
10, 80232, Note_on_c, 6, 50, 0
10, 80240, Note_on_c, 6, 47, 120
10, 80272, Note_on_c, 6, 47, 0
10, 80280, Note_on_c, 6, 55, 101
10, 80312, Note_on_c, 6, 55, 0
10, 80320, Note_on_c, 6, 50, 105
10, 80352, Note_on_c, 6, 50, 0
10, 80360, Note_on_c, 6, 47, 99
10, 80392, Note_on_c, 6, 47, 0
10, 80400, Note_on_c, 6, 43, 104
10, 80432, Note_on_c, 6, 43, 0
10, 80440, Note_on_c, 6, 50, 67
10, 80472, Note_on_c, 6, 50, 0
10, 80480, Note_on_c, 6, 47, 120
10, 80512, Note_on_c, 6, 47, 0
10, 80520, Note_on_c, 6, 55, 101
10, 80552, Note_on_c, 6, 55, 0
10, 80560, Note_on_c, 6, 50, 105
10, 80592, Note_on_c, 6, 50, 0
10, 80600, Note_on_c, 6, 47, 99
10, 80632, Note_on_c, 6, 47, 0
10, 80640, Note_on_c, 6, 43, 104
10, 80672, Note_on_c, 6, 43, 0
10, 80680, Note_on_c, 6, 50, 67
10, 80712, Note_on_c, 6, 50, 0
10, 80720, Note_on_c, 6, 47, 120
10, 80752, Note_on_c, 6, 47, 0
10, 80760, Note_on_c, 6, 55, 101
10, 80792, Note_on_c, 6, 55, 0
10, 80800, Note_on_c, 6, 50, 105
10, 80832, Note_on_c, 6, 50, 0
10, 80840, Note_on_c, 6, 47, 99
10, 80872, Note_on_c, 6, 47, 0
10, 80880, Note_on_c, 6, 43, 104
10, 80912, Note_on_c, 6, 43, 0
10, 80920, Note_on_c, 6, 50, 67
10, 80952, Note_on_c, 6, 50, 0
10, 80960, Note_on_c, 6, 47, 120
10, 80992, Note_on_c, 6, 47, 0
10, 81000, Note_on_c, 6, 55, 101
10, 81032, Note_on_c, 6, 55, 0
10, 81040, Note_on_c, 6, 50, 105
10, 81072, Note_on_c, 6, 50, 0
10, 81080, Note_on_c, 6, 47, 99
10, 81112, Note_on_c, 6, 47, 0
10, 81120, Note_on_c, 6, 43, 104
10, 81152, Note_on_c, 6, 43, 0
10, 81160, Note_on_c, 6, 50, 67
10, 81192, Note_on_c, 6, 50, 0
10, 81200, Note_on_c, 6, 47, 120
10, 81232, Note_on_c, 6, 47, 0
10, 81240, Note_on_c, 6, 55, 101
10, 81272, Note_on_c, 6, 55, 0
10, 81280, Note_on_c, 6, 50, 105
10, 81312, Note_on_c, 6, 50, 0
10, 81320, Note_on_c, 6, 47, 99
10, 81352, Note_on_c, 6, 47, 0
10, 81360, Note_on_c, 6, 43, 104
10, 81392, Note_on_c, 6, 43, 0
10, 81400, Note_on_c, 6, 50, 67
10, 81432, Note_on_c, 6, 50, 0
10, 81440, Note_on_c, 6, 47, 120
10, 81472, Note_on_c, 6, 47, 0
10, 81480, Note_on_c, 6, 55, 101
10, 81512, Note_on_c, 6, 55, 0
10, 81520, Note_on_c, 6, 50, 105
10, 81552, Note_on_c, 6, 50, 0
10, 81560, Note_on_c, 6, 47, 99
10, 81592, Note_on_c, 6, 47, 0
10, 81600, Note_on_c, 6, 43, 104
10, 81632, Note_on_c, 6, 43, 0
10, 81640, Note_on_c, 6, 50, 67
10, 81672, Note_on_c, 6, 50, 0
10, 81680, Note_on_c, 6, 47, 120
10, 81712, Note_on_c, 6, 47, 0
10, 81720, Note_on_c, 6, 55, 101
10, 81752, Note_on_c, 6, 55, 0
10, 81760, Note_on_c, 6, 50, 105
10, 81792, Note_on_c, 6, 50, 0
10, 81800, Note_on_c, 6, 47, 99
10, 81832, Note_on_c, 6, 47, 0
10, 81840, Note_on_c, 6, 43, 104
10, 81872, Note_on_c, 6, 43, 0
10, 81880, Note_on_c, 6, 50, 67
10, 81912, Note_on_c, 6, 50, 0
10, 81920, Note_on_c, 6, 47, 120
10, 81952, Note_on_c, 6, 47, 0
10, 81960, Note_on_c, 6, 55, 101
10, 81992, Note_on_c, 6, 55, 0
10, 82000, Note_on_c, 6, 50, 105
10, 82032, Note_on_c, 6, 50, 0
10, 82040, Note_on_c, 6, 47, 99
10, 82072, Note_on_c, 6, 47, 0
10, 82080, Note_on_c, 6, 43, 104
10, 82112, Note_on_c, 6, 43, 0
10, 82120, Note_on_c, 6, 50, 67
10, 82152, Note_on_c, 6, 50, 0
10, 82160, Note_on_c, 6, 47, 120
10, 82192, Note_on_c, 6, 47, 0
10, 82200, Note_on_c, 6, 55, 101
10, 82232, Note_on_c, 6, 55, 0
10, 82240, Note_on_c, 6, 50, 105
10, 82272, Note_on_c, 6, 50, 0
10, 82280, Note_on_c, 6, 47, 99
10, 82312, Note_on_c, 6, 47, 0
10, 82320, Note_on_c, 6, 43, 104
10, 82352, Note_on_c, 6, 43, 0
10, 82360, Note_on_c, 6, 50, 67
10, 82392, Note_on_c, 6, 50, 0
10, 82400, Note_on_c, 6, 47, 120
10, 82432, Note_on_c, 6, 47, 0
10, 82440, Note_on_c, 6, 55, 101
10, 82472, Note_on_c, 6, 55, 0
10, 82480, Note_on_c, 6, 50, 105
10, 82512, Note_on_c, 6, 50, 0
10, 82520, Note_on_c, 6, 47, 99
10, 82552, Note_on_c, 6, 47, 0
10, 82560, Note_on_c, 6, 43, 104
10, 82592, Note_on_c, 6, 43, 0
10, 82600, Note_on_c, 6, 50, 67
10, 82632, Note_on_c, 6, 50, 0
10, 82640, Note_on_c, 6, 47, 120
10, 82672, Note_on_c, 6, 47, 0
10, 82680, Note_on_c, 6, 55, 101
10, 82712, Note_on_c, 6, 55, 0
10, 82720, Note_on_c, 6, 50, 105
10, 82752, Note_on_c, 6, 50, 0
10, 82760, Note_on_c, 6, 47, 99
10, 82792, Note_on_c, 6, 47, 0
10, 82800, Note_on_c, 6, 43, 104
10, 82832, Note_on_c, 6, 43, 0
10, 82840, Note_on_c, 6, 50, 67
10, 82872, Note_on_c, 6, 50, 0
10, 82880, Note_on_c, 6, 47, 120
10, 82912, Note_on_c, 6, 47, 0
10, 82920, Note_on_c, 6, 55, 101
10, 82952, Note_on_c, 6, 55, 0
10, 82960, Note_on_c, 6, 50, 105
10, 82992, Note_on_c, 6, 50, 0
10, 83000, Note_on_c, 6, 47, 99
10, 83032, Note_on_c, 6, 47, 0
10, 83040, Note_on_c, 6, 40, 120
10, 83072, Note_on_c, 6, 40, 0
10, 83080, Note_on_c, 6, 52, 113
10, 83112, Note_on_c, 6, 52, 0
10, 83120, Note_on_c, 6, 47, 127
10, 83152, Note_on_c, 6, 47, 0
10, 83160, Note_on_c, 6, 56, 89
10, 83192, Note_on_c, 6, 56, 0
10, 83200, Note_on_c, 6, 52, 118
10, 83232, Note_on_c, 6, 52, 0
10, 83240, Note_on_c, 6, 47, 110
10, 83272, Note_on_c, 6, 47, 0
10, 83280, Note_on_c, 6, 40, 120
10, 83312, Note_on_c, 6, 40, 0
10, 83320, Note_on_c, 6, 52, 113
10, 83352, Note_on_c, 6, 52, 0
10, 83360, Note_on_c, 6, 47, 127
10, 83392, Note_on_c, 6, 47, 0
10, 83400, Note_on_c, 6, 56, 89
10, 83432, Note_on_c, 6, 56, 0
10, 83440, Note_on_c, 6, 52, 118
10, 83472, Note_on_c, 6, 52, 0
10, 83480, Note_on_c, 6, 47, 110
10, 83512, Note_on_c, 6, 47, 0
10, 83520, Note_on_c, 6, 40, 120
10, 83552, Note_on_c, 6, 40, 0
10, 83560, Note_on_c, 6, 52, 113
10, 83592, Note_on_c, 6, 52, 0
10, 83600, Note_on_c, 6, 47, 127
10, 83632, Note_on_c, 6, 47, 0
10, 83640, Note_on_c, 6, 56, 89
10, 83672, Note_on_c, 6, 56, 0
10, 83680, Note_on_c, 6, 52, 118
10, 83712, Note_on_c, 6, 52, 0
10, 83720, Note_on_c, 6, 47, 110
10, 83752, Note_on_c, 6, 47, 0
10, 83760, Note_on_c, 6, 40, 120
10, 83792, Note_on_c, 6, 40, 0
10, 83800, Note_on_c, 6, 52, 113
10, 83832, Note_on_c, 6, 52, 0
10, 83840, Note_on_c, 6, 47, 127
10, 83872, Note_on_c, 6, 47, 0
10, 83880, Note_on_c, 6, 56, 89
10, 83912, Note_on_c, 6, 56, 0
10, 83920, Note_on_c, 6, 52, 118
10, 83952, Note_on_c, 6, 52, 0
10, 83960, Note_on_c, 6, 47, 110
10, 83992, Note_on_c, 6, 47, 0
10, 84000, Note_on_c, 6, 40, 120
10, 84032, Note_on_c, 6, 40, 0
10, 84040, Note_on_c, 6, 52, 113
10, 84072, Note_on_c, 6, 52, 0
10, 84080, Note_on_c, 6, 47, 127
10, 84112, Note_on_c, 6, 47, 0
10, 84120, Note_on_c, 6, 56, 89
10, 84152, Note_on_c, 6, 56, 0
10, 84160, Note_on_c, 6, 52, 118
10, 84192, Note_on_c, 6, 52, 0
10, 84200, Note_on_c, 6, 47, 110
10, 84232, Note_on_c, 6, 47, 0
10, 84240, Note_on_c, 6, 40, 120
10, 84272, Note_on_c, 6, 40, 0
10, 84280, Note_on_c, 6, 52, 113
10, 84312, Note_on_c, 6, 52, 0
10, 84320, Note_on_c, 6, 47, 127
10, 84352, Note_on_c, 6, 47, 0
10, 84360, Note_on_c, 6, 56, 89
10, 84392, Note_on_c, 6, 56, 0
10, 84400, Note_on_c, 6, 52, 118
10, 84432, Note_on_c, 6, 52, 0
10, 84440, Note_on_c, 6, 47, 110
10, 84472, Note_on_c, 6, 47, 0
10, 84480, Note_on_c, 6, 40, 120
10, 84512, Note_on_c, 6, 40, 0
10, 84520, Note_on_c, 6, 52, 113
10, 84552, Note_on_c, 6, 52, 0
10, 84560, Note_on_c, 6, 47, 127
10, 84592, Note_on_c, 6, 47, 0
10, 84600, Note_on_c, 6, 56, 89
10, 84632, Note_on_c, 6, 56, 0
10, 84640, Note_on_c, 6, 52, 118
10, 84672, Note_on_c, 6, 52, 0
10, 84680, Note_on_c, 6, 47, 110
10, 84712, Note_on_c, 6, 47, 0
10, 84720, Note_on_c, 6, 40, 120
10, 84752, Note_on_c, 6, 40, 0
10, 84760, Note_on_c, 6, 52, 113
10, 84792, Note_on_c, 6, 52, 0
10, 84800, Note_on_c, 6, 47, 127
10, 84832, Note_on_c, 6, 47, 0
10, 84840, Note_on_c, 6, 56, 89
10, 84872, Note_on_c, 6, 56, 0
10, 84880, Note_on_c, 6, 52, 118
10, 84912, Note_on_c, 6, 52, 0
10, 84920, Note_on_c, 6, 47, 110
10, 84952, Note_on_c, 6, 47, 0
10, 84960, Note_on_c, 6, 40, 120
10, 84992, Note_on_c, 6, 40, 0
10, 85000, Note_on_c, 6, 52, 113
10, 85032, Note_on_c, 6, 52, 0
10, 85040, Note_on_c, 6, 47, 127
10, 85072, Note_on_c, 6, 47, 0
10, 85080, Note_on_c, 6, 56, 89
10, 85112, Note_on_c, 6, 56, 0
10, 85120, Note_on_c, 6, 52, 118
10, 85152, Note_on_c, 6, 52, 0
10, 85160, Note_on_c, 6, 47, 110
10, 85192, Note_on_c, 6, 47, 0
10, 85200, Note_on_c, 6, 40, 120
10, 85232, Note_on_c, 6, 40, 0
10, 85240, Note_on_c, 6, 52, 113
10, 85272, Note_on_c, 6, 52, 0
10, 85280, Note_on_c, 6, 47, 127
10, 85312, Note_on_c, 6, 47, 0
10, 85320, Note_on_c, 6, 56, 89
10, 85352, Note_on_c, 6, 56, 0
10, 85360, Note_on_c, 6, 52, 118
10, 85392, Note_on_c, 6, 52, 0
10, 85400, Note_on_c, 6, 47, 110
10, 85432, Note_on_c, 6, 47, 0
10, 85440, Note_on_c, 6, 40, 120
10, 85472, Note_on_c, 6, 40, 0
10, 85480, Note_on_c, 6, 52, 113
10, 85512, Note_on_c, 6, 52, 0
10, 85520, Note_on_c, 6, 47, 127
10, 85552, Note_on_c, 6, 47, 0
10, 85560, Note_on_c, 6, 56, 89
10, 85592, Note_on_c, 6, 56, 0
10, 85600, Note_on_c, 6, 52, 118
10, 85632, Note_on_c, 6, 52, 0
10, 85640, Note_on_c, 6, 47, 110
10, 85672, Note_on_c, 6, 47, 0
10, 85680, Note_on_c, 6, 40, 120
10, 85712, Note_on_c, 6, 40, 0
10, 85720, Note_on_c, 6, 52, 113
10, 85752, Note_on_c, 6, 52, 0
10, 85760, Note_on_c, 6, 47, 127
10, 85792, Note_on_c, 6, 47, 0
10, 85800, Note_on_c, 6, 56, 89
10, 85832, Note_on_c, 6, 56, 0
10, 85840, Note_on_c, 6, 52, 118
10, 85872, Note_on_c, 6, 52, 0
10, 85880, Note_on_c, 6, 47, 110
10, 85912, Note_on_c, 6, 47, 0
10, 85920, Note_on_c, 6, 52, 117
10, 85968, Note_on_c, 6, 52, 0
10, 85980, Note_on_c, 6, 47, 127
10, 86004, Note_on_c, 6, 47, 0
10, 86010, Note_on_c, 6, 45, 127
10, 86034, Note_on_c, 6, 45, 0
10, 86040, Note_on_c, 6, 44, 121
10, 86088, Note_on_c, 6, 44, 0
10, 86100, Note_on_c, 6, 40, 127
10, 86148, Note_on_c, 6, 40, 0
10, 86160, Note_on_c, 6, 52, 127
10, 86208, Note_on_c, 6, 52, 0
10, 86220, Note_on_c, 6, 47, 127
10, 86244, Note_on_c, 6, 47, 0
10, 86250, Note_on_c, 6, 45, 127
10, 86274, Note_on_c, 6, 45, 0
10, 86280, Note_on_c, 6, 44, 121
10, 86328, Note_on_c, 6, 44, 0
10, 86340, Note_on_c, 6, 40, 127
10, 86388, Note_on_c, 6, 40, 0
10, 86400, Note_on_c, 6, 52, 117
10, 86448, Note_on_c, 6, 52, 0
10, 86460, Note_on_c, 6, 47, 127
10, 86484, Note_on_c, 6, 47, 0
10, 86490, Note_on_c, 6, 45, 127
10, 86514, Note_on_c, 6, 45, 0
10, 86520, Note_on_c, 6, 44, 113
10, 86568, Note_on_c, 6, 44, 0
10, 86580, Note_on_c, 6, 40, 127
10, 86628, Note_on_c, 6, 40, 0
10, 86640, Note_on_c, 6, 52, 127
10, 86688, Note_on_c, 6, 52, 0
10, 86700, Note_on_c, 6, 47, 121
10, 86724, Note_on_c, 6, 47, 0
10, 86730, Note_on_c, 6, 45, 127
10, 86754, Note_on_c, 6, 45, 0
10, 86760, Note_on_c, 6, 44, 121
10, 86808, Note_on_c, 6, 44, 0
10, 86820, Note_on_c, 6, 40, 127
10, 86868, Note_on_c, 6, 40, 0
10, 86880, Note_on_c, 6, 52, 123
10, 86928, Note_on_c, 6, 52, 0
10, 86940, Note_on_c, 6, 47, 103
10, 86964, Note_on_c, 6, 47, 0
10, 86970, Note_on_c, 6, 45, 127
10, 86994, Note_on_c, 6, 45, 0
10, 87000, Note_on_c, 6, 44, 123
10, 87048, Note_on_c, 6, 44, 0
10, 87060, Note_on_c, 6, 40, 127
10, 87108, Note_on_c, 6, 40, 0
10, 87360, Note_on_c, 6, 52, 111
10, 87408, Note_on_c, 6, 52, 0
10, 87420, Note_on_c, 6, 47, 127
10, 87444, Note_on_c, 6, 47, 0
10, 87450, Note_on_c, 6, 45, 127
10, 87474, Note_on_c, 6, 45, 0
10, 87480, Note_on_c, 6, 44, 123
10, 87528, Note_on_c, 6, 44, 0
10, 87540, Note_on_c, 6, 40, 127
10, 87588, Note_on_c, 6, 40, 0
10, 90720, Note_on_c, 6, 45, 107
10, 90984, Note_on_c, 6, 45, 0
10, 90990, Note_on_c, 6, 44, 107
10, 91014, Note_on_c, 6, 44, 0
10, 91020, Note_on_c, 6, 42, 123
10, 91044, Note_on_c, 6, 42, 0
10, 91050, Note_on_c, 6, 40, 125
10, 91074, Note_on_c, 6, 40, 0
10, 91080, Note_on_c, 6, 40, 121
10, 91128, Note_on_c, 6, 40, 0
10, 91140, Note_on_c, 6, 40, 118
10, 91188, Note_on_c, 6, 40, 0
10, 91200, Note_on_c, 6, 45, 100
10, 91665, Note_on_c, 6, 45, 0
10, 91680, Note_on_c, 6, 38, 117
10, 91776, Note_on_c, 6, 38, 0
10, 91800, Note_on_c, 6, 45, 125
10, 91896, Note_on_c, 6, 45, 0
10, 91920, Note_on_c, 6, 40, 123
10, 92112, Note_on_c, 6, 40, 0
10, 92160, Note_on_c, 6, 45, 102
10, 92256, Note_on_c, 6, 45, 0
10, 92280, Note_on_c, 6, 49, 126
10, 92376, Note_on_c, 6, 49, 0
10, 92400, Note_on_c, 6, 47, 113
10, 92544, Note_on_c, 6, 47, 0
10, 92580, Note_on_c, 6, 45, 108
10, 92628, Note_on_c, 6, 45, 0
10, 92640, Note_on_c, 6, 50, 127
10, 92736, Note_on_c, 6, 50, 0
10, 92760, Note_on_c, 6, 49, 111
10, 92856, Note_on_c, 6, 49, 0
10, 92880, Note_on_c, 6, 47, 125
10, 92928, Note_on_c, 6, 47, 0
10, 92940, Note_on_c, 6, 47, 127
10, 92964, Note_on_c, 6, 47, 0
10, 92970, Note_on_c, 6, 49, 115
10, 92994, Note_on_c, 6, 49, 0
10, 93000, Note_on_c, 6, 50, 127
10, 93048, Note_on_c, 6, 50, 0
10, 93060, Note_on_c, 6, 47, 127
10, 93108, Note_on_c, 6, 47, 0
10, 93120, Note_on_c, 6, 49, 113
10, 93216, Note_on_c, 6, 49, 0
10, 93240, Note_on_c, 6, 52, 123
10, 93336, Note_on_c, 6, 52, 0
10, 93360, Note_on_c, 6, 50, 127
10, 93504, Note_on_c, 6, 50, 0
10, 93540, Note_on_c, 6, 49, 121
10, 93588, Note_on_c, 6, 49, 0
10, 93600, Note_on_c, 6, 54, 105
10, 93696, Note_on_c, 6, 54, 0
10, 93720, Note_on_c, 6, 52, 105
10, 93816, Note_on_c, 6, 52, 0
10, 93840, Note_on_c, 6, 50, 127
10, 93888, Note_on_c, 6, 50, 0
10, 93900, Note_on_c, 6, 50, 127
10, 93924, Note_on_c, 6, 50, 0
10, 93930, Note_on_c, 6, 52, 107
10, 93954, Note_on_c, 6, 52, 0
10, 93960, Note_on_c, 6, 54, 113
10, 94008, Note_on_c, 6, 54, 0
10, 94020, Note_on_c, 6, 52, 113
10, 94068, Note_on_c, 6, 52, 0
10, 94080, Note_on_c, 6, 50, 120
10, 95472, Note_on_c, 6, 50, 0
10, 95520, Note_on_c, 6, 43, 102
10, 95952, Note_on_c, 6, 43, 0
10, 96000, Note_on_c, 6, 48, 125
10, 96096, Note_on_c, 6, 48, 0
10, 96120, Note_on_c, 6, 52, 127
10, 96216, Note_on_c, 6, 52, 0
10, 96240, Note_on_c, 6, 50, 127
10, 96384, Note_on_c, 6, 50, 0
10, 96420, Note_on_c, 6, 48, 127
10, 96468, Note_on_c, 6, 48, 0
10, 96480, Note_on_c, 6, 53, 111
10, 96576, Note_on_c, 6, 53, 0
10, 96600, Note_on_c, 6, 52, 127
10, 96696, Note_on_c, 6, 52, 0
10, 96720, Note_on_c, 6, 50, 127
10, 96768, Note_on_c, 6, 50, 0
10, 96780, Note_on_c, 6, 50, 121
10, 96804, Note_on_c, 6, 50, 0
10, 96810, Note_on_c, 6, 52, 109
10, 96834, Note_on_c, 6, 52, 0
10, 96840, Note_on_c, 6, 53, 103
10, 96888, Note_on_c, 6, 53, 0
10, 96900, Note_on_c, 6, 50, 127
10, 96948, Note_on_c, 6, 50, 0
10, 96960, Note_on_c, 6, 52, 123
10, 97056, Note_on_c, 6, 52, 0
10, 97080, Note_on_c, 6, 55, 109
10, 97176, Note_on_c, 6, 55, 0
10, 97200, Note_on_c, 6, 53, 89
10, 97344, Note_on_c, 6, 53, 0
10, 97380, Note_on_c, 6, 52, 127
10, 97428, Note_on_c, 6, 52, 0
10, 97440, Note_on_c, 6, 57, 111
10, 97536, Note_on_c, 6, 57, 0
10, 97560, Note_on_c, 6, 55, 118
10, 97656, Note_on_c, 6, 55, 0
10, 97680, Note_on_c, 6, 53, 115
10, 97728, Note_on_c, 6, 53, 0
10, 97740, Note_on_c, 6, 53, 115
10, 97764, Note_on_c, 6, 53, 0
10, 97770, Note_on_c, 6, 55, 116
10, 97794, Note_on_c, 6, 55, 0
10, 97800, Note_on_c, 6, 57, 103
10, 97848, Note_on_c, 6, 57, 0
10, 97860, Note_on_c, 6, 53, 105
10, 97908, Note_on_c, 6, 53, 0
10, 97920, Note_on_c, 6, 58, 113
10, 98016, Note_on_c, 6, 58, 0
10, 98040, Note_on_c, 6, 57, 104
10, 98136, Note_on_c, 6, 57, 0
10, 98160, Note_on_c, 6, 55, 118
10, 98208, Note_on_c, 6, 55, 0
10, 98220, Note_on_c, 6, 52, 103
10, 98244, Note_on_c, 6, 52, 0
10, 98250, Note_on_c, 6, 53, 109
10, 98274, Note_on_c, 6, 53, 0
10, 98280, Note_on_c, 6, 55, 113
10, 98328, Note_on_c, 6, 55, 0
10, 98340, Note_on_c, 6, 57, 99
10, 98388, Note_on_c, 6, 57, 0
10, 98400, Note_on_c, 6, 58, 107
10, 98496, Note_on_c, 6, 58, 0
10, 98520, Note_on_c, 6, 57, 121
10, 98616, Note_on_c, 6, 57, 0
10, 98640, Note_on_c, 6, 55, 127
10, 98688, Note_on_c, 6, 55, 0
10, 98700, Note_on_c, 6, 52, 127
10, 98724, Note_on_c, 6, 52, 0
10, 98730, Note_on_c, 6, 53, 107
10, 98754, Note_on_c, 6, 53, 0
10, 98760, Note_on_c, 6, 55, 127
10, 98808, Note_on_c, 6, 55, 0
10, 98820, Note_on_c, 6, 57, 112
10, 98868, Note_on_c, 6, 57, 0
10, 98880, Note_on_c, 6, 46, 118
10, 99072, Note_on_c, 6, 46, 0
10, 99120, Note_on_c, 6, 46, 123
10, 99312, Note_on_c, 6, 46, 0
10, 99360, Note_on_c, 6, 46, 123
10, 99416, Note_on_c, 6, 46, 0
10, 99420, Note_on_c, 6, 41, 127
10, 99444, Note_on_c, 6, 41, 0
10, 99450, Note_on_c, 6, 43, 127
10, 99474, Note_on_c, 6, 43, 0
10, 99480, Note_on_c, 6, 45, 127
10, 99504, Note_on_c, 6, 45, 0
10, 99510, Note_on_c, 6, 46, 121
10, 99558, Note_on_c, 6, 46, 0
10, 99570, Note_on_c, 6, 48, 127
10, 99600, Note_on_c, 6, 50, 127
10, 99618, Note_on_c, 6, 48, 0
10, 99648, Note_on_c, 6, 50, 0
10, 99720, Note_on_c, 6, 46, 80
10, 99816, Note_on_c, 6, 46, 0
10, 99840, Note_on_c, 6, 41, 116
10, 100512, Note_on_c, 6, 41, 0
10, 100560, Note_on_c, 6, 48, 110
10, 100752, Note_on_c, 6, 48, 0
10, 102240, Note_on_c, 6, 53, 103
10, 102336, Note_on_c, 6, 53, 0
10, 102360, Note_on_c, 6, 50, 110
10, 102456, Note_on_c, 6, 50, 0
10, 102480, Note_on_c, 6, 52, 114
10, 102624, Note_on_c, 6, 52, 0
10, 102660, Note_on_c, 6, 48, 127
10, 102708, Note_on_c, 6, 48, 0
10, 102720, Note_on_c, 6, 53, 107
10, 102816, Note_on_c, 6, 53, 0
10, 102840, Note_on_c, 6, 50, 111
10, 102936, Note_on_c, 6, 50, 0
10, 102960, Note_on_c, 6, 52, 125
10, 103104, Note_on_c, 6, 52, 0
10, 103140, Note_on_c, 6, 48, 127
10, 103188, Note_on_c, 6, 48, 0
10, 103200, Note_on_c, 6, 53, 100
10, 103296, Note_on_c, 6, 53, 0
10, 105840, Note_on_c, 6, 48, 117
10, 105984, Note_on_c, 6, 48, 0
10, 106020, Note_on_c, 6, 48, 120
10, 106068, Note_on_c, 6, 48, 0
10, 106080, Note_on_c, 6, 48, 120
10, 106224, Note_on_c, 6, 48, 0
10, 106260, Note_on_c, 6, 48, 112
10, 106308, Note_on_c, 6, 48, 0
10, 106320, Note_on_c, 6, 48, 118
10, 106464, Note_on_c, 6, 48, 0
10, 106500, Note_on_c, 6, 48, 121
10, 106548, Note_on_c, 6, 48, 0
10, 106560, Note_on_c, 6, 48, 127
10, 106592, Note_on_c, 6, 48, 0
10, 106600, Note_on_c, 6, 60, 107
10, 106632, Note_on_c, 6, 60, 0
10, 106640, Note_on_c, 6, 58, 115
10, 106672, Note_on_c, 6, 58, 0
10, 106680, Note_on_c, 6, 57, 112
10, 106712, Note_on_c, 6, 57, 0
10, 106720, Note_on_c, 6, 55, 101
10, 106752, Note_on_c, 6, 55, 0
10, 106760, Note_on_c, 6, 53, 127
10, 106792, Note_on_c, 6, 53, 0
10, 106800, Note_on_c, 6, 52, 118
10, 106832, Note_on_c, 6, 52, 0
10, 106840, Note_on_c, 6, 57, 93
10, 106872, Note_on_c, 6, 57, 0
10, 106880, Note_on_c, 6, 55, 127
10, 106912, Note_on_c, 6, 55, 0
10, 106920, Note_on_c, 6, 53, 112
10, 106952, Note_on_c, 6, 53, 0
10, 106960, Note_on_c, 6, 52, 117
10, 106992, Note_on_c, 6, 52, 0
10, 107000, Note_on_c, 6, 50, 120
10, 107032, Note_on_c, 6, 50, 0
10, 107040, Note_on_c, 6, 48, 127
10, 107072, Note_on_c, 6, 48, 0
10, 107080, Note_on_c, 6, 53, 97
10, 107112, Note_on_c, 6, 53, 0
10, 107120, Note_on_c, 6, 52, 112
10, 107152, Note_on_c, 6, 52, 0
10, 107160, Note_on_c, 6, 50, 105
10, 107192, Note_on_c, 6, 50, 0
10, 107200, Note_on_c, 6, 48, 102
10, 107232, Note_on_c, 6, 48, 0
10, 107240, Note_on_c, 6, 46, 86
10, 107272, Note_on_c, 6, 46, 0
10, 107280, Note_on_c, 6, 45, 108
10, 107312, Note_on_c, 6, 45, 0
10, 107320, Note_on_c, 6, 50, 108
10, 107352, Note_on_c, 6, 50, 0
10, 107360, Note_on_c, 6, 48, 116
10, 107392, Note_on_c, 6, 48, 0
10, 107400, Note_on_c, 6, 46, 103
10, 107432, Note_on_c, 6, 46, 0
10, 107440, Note_on_c, 6, 45, 117
10, 107472, Note_on_c, 6, 45, 0
10, 107480, Note_on_c, 6, 43, 112
10, 107512, Note_on_c, 6, 43, 0
10, 107520, Note_on_c, 6, 41, 114
10, 107544, Note_on_c, 6, 41, 0
10, 107550, Note_on_c, 6, 48, 121
10, 107574, Note_on_c, 6, 48, 0
10, 107580, Note_on_c, 6, 41, 125
10, 107604, Note_on_c, 6, 41, 0
10, 107610, Note_on_c, 6, 48, 127
10, 107634, Note_on_c, 6, 48, 0
10, 107640, Note_on_c, 6, 41, 116
10, 107664, Note_on_c, 6, 41, 0
10, 107670, Note_on_c, 6, 48, 127
10, 107694, Note_on_c, 6, 48, 0
10, 107700, Note_on_c, 6, 41, 107
10, 107724, Note_on_c, 6, 41, 0
10, 107730, Note_on_c, 6, 48, 118
10, 107754, Note_on_c, 6, 48, 0
10, 107760, Note_on_c, 6, 41, 114
10, 107784, Note_on_c, 6, 41, 0
10, 107790, Note_on_c, 6, 48, 121
10, 107814, Note_on_c, 6, 48, 0
10, 107820, Note_on_c, 6, 41, 125
10, 107844, Note_on_c, 6, 41, 0
10, 107850, Note_on_c, 6, 48, 127
10, 107874, Note_on_c, 6, 48, 0
10, 107880, Note_on_c, 6, 41, 116
10, 107904, Note_on_c, 6, 41, 0
10, 107910, Note_on_c, 6, 48, 127
10, 107934, Note_on_c, 6, 48, 0
10, 107940, Note_on_c, 6, 41, 107
10, 107964, Note_on_c, 6, 41, 0
10, 107970, Note_on_c, 6, 48, 118
10, 107994, Note_on_c, 6, 48, 0
10, 108000, Note_on_c, 6, 41, 114
10, 108024, Note_on_c, 6, 41, 0
10, 108030, Note_on_c, 6, 48, 121
10, 108054, Note_on_c, 6, 48, 0
10, 108060, Note_on_c, 6, 41, 125
10, 108084, Note_on_c, 6, 41, 0
10, 108090, Note_on_c, 6, 48, 127
10, 108114, Note_on_c, 6, 48, 0
10, 108120, Note_on_c, 6, 41, 116
10, 108144, Note_on_c, 6, 41, 0
10, 108150, Note_on_c, 6, 48, 127
10, 108174, Note_on_c, 6, 48, 0
10, 108180, Note_on_c, 6, 41, 107
10, 108204, Note_on_c, 6, 41, 0
10, 108210, Note_on_c, 6, 48, 118
10, 108234, Note_on_c, 6, 48, 0
10, 108240, Note_on_c, 6, 41, 114
10, 108264, Note_on_c, 6, 41, 0
10, 108270, Note_on_c, 6, 48, 121
10, 108294, Note_on_c, 6, 48, 0
10, 108300, Note_on_c, 6, 41, 125
10, 108324, Note_on_c, 6, 41, 0
10, 108330, Note_on_c, 6, 48, 127
10, 108354, Note_on_c, 6, 48, 0
10, 108360, Note_on_c, 6, 41, 116
10, 108384, Note_on_c, 6, 41, 0
10, 108390, Note_on_c, 6, 48, 127
10, 108414, Note_on_c, 6, 48, 0
10, 108420, Note_on_c, 6, 41, 107
10, 108444, Note_on_c, 6, 41, 0
10, 108450, Note_on_c, 6, 48, 118
10, 108474, Note_on_c, 6, 48, 0
10, 108480, Note_on_c, 6, 41, 114
10, 108504, Note_on_c, 6, 41, 0
10, 108510, Note_on_c, 6, 48, 121
10, 108534, Note_on_c, 6, 48, 0
10, 108540, Note_on_c, 6, 41, 125
10, 108564, Note_on_c, 6, 41, 0
10, 108570, Note_on_c, 6, 48, 127
10, 108594, Note_on_c, 6, 48, 0
10, 108600, Note_on_c, 6, 41, 116
10, 108624, Note_on_c, 6, 41, 0
10, 108630, Note_on_c, 6, 48, 127
10, 108654, Note_on_c, 6, 48, 0
10, 108660, Note_on_c, 6, 41, 107
10, 108684, Note_on_c, 6, 41, 0
10, 108690, Note_on_c, 6, 48, 118
10, 108714, Note_on_c, 6, 48, 0
10, 108720, Note_on_c, 6, 41, 114
10, 108744, Note_on_c, 6, 41, 0
10, 108750, Note_on_c, 6, 48, 121
10, 108774, Note_on_c, 6, 48, 0
10, 108780, Note_on_c, 6, 41, 125
10, 108804, Note_on_c, 6, 41, 0
10, 108810, Note_on_c, 6, 48, 127
10, 108834, Note_on_c, 6, 48, 0
10, 108840, Note_on_c, 6, 41, 116
10, 108864, Note_on_c, 6, 41, 0
10, 108870, Note_on_c, 6, 48, 127
10, 108894, Note_on_c, 6, 48, 0
10, 108900, Note_on_c, 6, 41, 107
10, 108924, Note_on_c, 6, 41, 0
10, 108930, Note_on_c, 6, 48, 118
10, 108954, Note_on_c, 6, 48, 0
10, 108960, Note_on_c, 6, 41, 121
10, 108984, Note_on_c, 6, 41, 0
10, 108990, Note_on_c, 6, 48, 120
10, 109014, Note_on_c, 6, 48, 0
10, 109020, Note_on_c, 6, 41, 101
10, 109044, Note_on_c, 6, 41, 0
10, 109050, Note_on_c, 6, 48, 117
10, 109074, Note_on_c, 6, 48, 0
10, 109080, Note_on_c, 6, 41, 121
10, 109104, Note_on_c, 6, 41, 0
10, 109110, Note_on_c, 6, 48, 114
10, 109134, Note_on_c, 6, 48, 0
10, 109140, Note_on_c, 6, 41, 111
10, 109164, Note_on_c, 6, 41, 0
10, 109170, Note_on_c, 6, 48, 113
10, 109194, Note_on_c, 6, 48, 0
10, 109200, Note_on_c, 6, 36, 121
10, 109224, Note_on_c, 6, 36, 0
10, 109230, Note_on_c, 6, 48, 120
10, 109254, Note_on_c, 6, 48, 0
10, 109260, Note_on_c, 6, 36, 101
10, 109284, Note_on_c, 6, 36, 0
10, 109290, Note_on_c, 6, 48, 117
10, 109314, Note_on_c, 6, 48, 0
10, 109320, Note_on_c, 6, 36, 121
10, 109344, Note_on_c, 6, 36, 0
10, 109350, Note_on_c, 6, 48, 114
10, 109374, Note_on_c, 6, 48, 0
10, 109380, Note_on_c, 6, 36, 111
10, 109404, Note_on_c, 6, 36, 0
10, 109410, Note_on_c, 6, 48, 113
10, 109434, Note_on_c, 6, 48, 0
10, 109440, Note_on_c, 6, 36, 121
10, 109464, Note_on_c, 6, 36, 0
10, 109470, Note_on_c, 6, 48, 120
10, 109494, Note_on_c, 6, 48, 0
10, 109500, Note_on_c, 6, 36, 101
10, 109524, Note_on_c, 6, 36, 0
10, 109530, Note_on_c, 6, 48, 117
10, 109554, Note_on_c, 6, 48, 0
10, 109560, Note_on_c, 6, 36, 121
10, 109584, Note_on_c, 6, 36, 0
10, 109590, Note_on_c, 6, 48, 114
10, 109614, Note_on_c, 6, 48, 0
10, 109620, Note_on_c, 6, 36, 111
10, 109644, Note_on_c, 6, 36, 0
10, 109650, Note_on_c, 6, 48, 113
10, 109674, Note_on_c, 6, 48, 0
10, 109680, Note_on_c, 6, 36, 121
10, 109704, Note_on_c, 6, 36, 0
10, 109710, Note_on_c, 6, 48, 120
10, 109734, Note_on_c, 6, 48, 0
10, 109740, Note_on_c, 6, 36, 101
10, 109764, Note_on_c, 6, 36, 0
10, 109770, Note_on_c, 6, 48, 117
10, 109794, Note_on_c, 6, 48, 0
10, 109800, Note_on_c, 6, 36, 121
10, 109824, Note_on_c, 6, 36, 0
10, 109830, Note_on_c, 6, 48, 114
10, 109854, Note_on_c, 6, 48, 0
10, 109860, Note_on_c, 6, 36, 111
10, 109884, Note_on_c, 6, 36, 0
10, 109890, Note_on_c, 6, 48, 113
10, 109914, Note_on_c, 6, 48, 0
10, 109920, Note_on_c, 6, 36, 120
10, 109944, Note_on_c, 6, 36, 0
10, 109950, Note_on_c, 6, 48, 127
10, 109974, Note_on_c, 6, 48, 0
10, 109980, Note_on_c, 6, 36, 127
10, 110004, Note_on_c, 6, 36, 0
10, 110010, Note_on_c, 6, 48, 127
10, 110034, Note_on_c, 6, 48, 0
10, 110040, Note_on_c, 6, 36, 127
10, 110064, Note_on_c, 6, 36, 0
10, 110070, Note_on_c, 6, 48, 127
10, 110094, Note_on_c, 6, 48, 0
10, 110100, Note_on_c, 6, 36, 127
10, 110124, Note_on_c, 6, 36, 0
10, 110130, Note_on_c, 6, 48, 127
10, 110154, Note_on_c, 6, 48, 0
10, 110160, Note_on_c, 6, 41, 120
10, 110184, Note_on_c, 6, 41, 0
10, 110190, Note_on_c, 6, 48, 127
10, 110214, Note_on_c, 6, 48, 0
10, 110220, Note_on_c, 6, 41, 127
10, 110244, Note_on_c, 6, 41, 0
10, 110250, Note_on_c, 6, 48, 127
10, 110274, Note_on_c, 6, 48, 0
10, 110280, Note_on_c, 6, 41, 127
10, 110304, Note_on_c, 6, 41, 0
10, 110310, Note_on_c, 6, 48, 127
10, 110334, Note_on_c, 6, 48, 0
10, 110340, Note_on_c, 6, 41, 127
10, 110364, Note_on_c, 6, 41, 0
10, 110370, Note_on_c, 6, 48, 127
10, 110394, Note_on_c, 6, 48, 0
10, 110400, Note_on_c, 6, 41, 120
10, 110424, Note_on_c, 6, 41, 0
10, 110430, Note_on_c, 6, 48, 127
10, 110454, Note_on_c, 6, 48, 0
10, 110460, Note_on_c, 6, 41, 127
10, 110484, Note_on_c, 6, 41, 0
10, 110490, Note_on_c, 6, 48, 127
10, 110514, Note_on_c, 6, 48, 0
10, 110520, Note_on_c, 6, 41, 127
10, 110544, Note_on_c, 6, 41, 0
10, 110550, Note_on_c, 6, 48, 127
10, 110574, Note_on_c, 6, 48, 0
10, 110580, Note_on_c, 6, 41, 127
10, 110604, Note_on_c, 6, 41, 0
10, 110610, Note_on_c, 6, 48, 127
10, 110634, Note_on_c, 6, 48, 0
10, 110640, Note_on_c, 6, 41, 120
10, 110664, Note_on_c, 6, 41, 0
10, 110670, Note_on_c, 6, 48, 127
10, 110694, Note_on_c, 6, 48, 0
10, 110700, Note_on_c, 6, 41, 127
10, 110724, Note_on_c, 6, 41, 0
10, 110730, Note_on_c, 6, 48, 127
10, 110754, Note_on_c, 6, 48, 0
10, 110760, Note_on_c, 6, 41, 127
10, 110784, Note_on_c, 6, 41, 0
10, 110790, Note_on_c, 6, 48, 127
10, 110814, Note_on_c, 6, 48, 0
10, 110820, Note_on_c, 6, 41, 127
10, 110844, Note_on_c, 6, 41, 0
10, 110850, Note_on_c, 6, 48, 127
10, 110874, Note_on_c, 6, 48, 0
10, 110880, Note_on_c, 6, 41, 120
10, 110904, Note_on_c, 6, 41, 0
10, 110910, Note_on_c, 6, 48, 127
10, 110934, Note_on_c, 6, 48, 0
10, 110940, Note_on_c, 6, 41, 127
10, 110964, Note_on_c, 6, 41, 0
10, 110970, Note_on_c, 6, 48, 127
10, 110994, Note_on_c, 6, 48, 0
10, 111000, Note_on_c, 6, 41, 127
10, 111024, Note_on_c, 6, 41, 0
10, 111030, Note_on_c, 6, 48, 127
10, 111054, Note_on_c, 6, 48, 0
10, 111060, Note_on_c, 6, 41, 127
10, 111084, Note_on_c, 6, 41, 0
10, 111090, Note_on_c, 6, 48, 127
10, 111114, Note_on_c, 6, 48, 0
10, 111120, Note_on_c, 6, 41, 120
10, 111144, Note_on_c, 6, 41, 0
10, 111150, Note_on_c, 6, 48, 127
10, 111174, Note_on_c, 6, 48, 0
10, 111180, Note_on_c, 6, 41, 127
10, 111204, Note_on_c, 6, 41, 0
10, 111210, Note_on_c, 6, 48, 127
10, 111234, Note_on_c, 6, 48, 0
10, 111240, Note_on_c, 6, 41, 127
10, 111264, Note_on_c, 6, 41, 0
10, 111270, Note_on_c, 6, 48, 127
10, 111294, Note_on_c, 6, 48, 0
10, 111300, Note_on_c, 6, 41, 127
10, 111324, Note_on_c, 6, 41, 0
10, 111330, Note_on_c, 6, 48, 127
10, 111354, Note_on_c, 6, 48, 0
10, 111360, Note_on_c, 6, 41, 120
10, 111384, Note_on_c, 6, 41, 0
10, 111390, Note_on_c, 6, 48, 127
10, 111414, Note_on_c, 6, 48, 0
10, 111420, Note_on_c, 6, 41, 127
10, 111444, Note_on_c, 6, 41, 0
10, 111450, Note_on_c, 6, 48, 127
10, 111474, Note_on_c, 6, 48, 0
10, 111480, Note_on_c, 6, 41, 127
10, 111504, Note_on_c, 6, 41, 0
10, 111510, Note_on_c, 6, 48, 127
10, 111534, Note_on_c, 6, 48, 0
10, 111540, Note_on_c, 6, 41, 127
10, 111564, Note_on_c, 6, 41, 0
10, 111570, Note_on_c, 6, 48, 127
10, 111594, Note_on_c, 6, 48, 0
10, 111600, Note_on_c, 6, 41, 102
10, 111648, Note_on_c, 6, 41, 0
10, 115740, Note_on_c, 6, 50, 106
10, 115788, Note_on_c, 6, 50, 0
10, 115800, Note_on_c, 6, 48, 120
10, 115848, Note_on_c, 6, 48, 0
10, 115860, Note_on_c, 6, 47, 120
10, 115908, Note_on_c, 6, 47, 0
10, 115920, Note_on_c, 6, 48, 101
10, 116352, Note_on_c, 6, 48, 0
10, 116400, Note_on_c, 6, 53, 120
10, 116832, Note_on_c, 6, 53, 0
10, 116880, Note_on_c, 6, 52, 118
10, 116976, Note_on_c, 6, 52, 0
10, 117000, Note_on_c, 6, 52, 120
10, 117096, Note_on_c, 6, 52, 0
10, 117120, Note_on_c, 6, 52, 120
10, 117216, Note_on_c, 6, 52, 0
10, 117240, Note_on_c, 6, 55, 109
10, 117288, Note_on_c, 6, 55, 0
10, 117300, Note_on_c, 6, 52, 120
10, 117348, Note_on_c, 6, 52, 0
10, 117360, Note_on_c, 6, 53, 120
10, 117456, Note_on_c, 6, 53, 0
10, 117480, Note_on_c, 6, 53, 120
10, 117576, Note_on_c, 6, 53, 0
10, 117600, Note_on_c, 6, 53, 117
10, 117696, Note_on_c, 6, 53, 0
10, 117720, Note_on_c, 6, 57, 116
10, 117768, Note_on_c, 6, 57, 0
10, 117780, Note_on_c, 6, 53, 125
10, 117828, Note_on_c, 6, 53, 0
10, 117840, Note_on_c, 6, 60, 108
10, 117888, Note_on_c, 6, 60, 0
10, 117900, Note_on_c, 6, 58, 111
10, 117948, Note_on_c, 6, 58, 0
10, 117960, Note_on_c, 6, 55, 117
10, 118008, Note_on_c, 6, 55, 0
10, 118020, Note_on_c, 6, 52, 101
10, 118068, Note_on_c, 6, 52, 0
10, 118080, Note_on_c, 6, 48, 127
10, 118128, Note_on_c, 6, 48, 0
10, 118140, Note_on_c, 6, 58, 97
10, 118188, Note_on_c, 6, 58, 0
10, 118200, Note_on_c, 6, 55, 109
10, 118248, Note_on_c, 6, 55, 0
10, 118260, Note_on_c, 6, 48, 125
10, 118308, Note_on_c, 6, 48, 0
10, 118320, Note_on_c, 6, 62, 107
10, 118368, Note_on_c, 6, 62, 0
10, 118380, Note_on_c, 6, 60, 108
10, 118428, Note_on_c, 6, 60, 0
10, 118440, Note_on_c, 6, 57, 107
10, 118488, Note_on_c, 6, 57, 0
10, 118500, Note_on_c, 6, 53, 112
10, 118548, Note_on_c, 6, 53, 0
10, 118560, Note_on_c, 6, 48, 103
10, 118608, Note_on_c, 6, 48, 0
10, 118620, Note_on_c, 6, 57, 121
10, 118668, Note_on_c, 6, 57, 0
10, 118680, Note_on_c, 6, 53, 116
10, 118728, Note_on_c, 6, 53, 0
10, 118740, Note_on_c, 6, 48, 111
10, 118788, Note_on_c, 6, 48, 0
10, 118800, Note_on_c, 6, 60, 112
10, 118848, Note_on_c, 6, 60, 0
10, 118860, Note_on_c, 6, 58, 87
10, 118908, Note_on_c, 6, 58, 0
10, 118920, Note_on_c, 6, 55, 120
10, 118968, Note_on_c, 6, 55, 0
10, 118980, Note_on_c, 6, 52, 103
10, 119028, Note_on_c, 6, 52, 0
10, 119040, Note_on_c, 6, 48, 120
10, 119088, Note_on_c, 6, 48, 0
10, 119100, Note_on_c, 6, 58, 79
10, 119148, Note_on_c, 6, 58, 0
10, 119160, Note_on_c, 6, 55, 113
10, 119208, Note_on_c, 6, 55, 0
10, 119220, Note_on_c, 6, 48, 105
10, 119268, Note_on_c, 6, 48, 0
10, 119280, Note_on_c, 6, 62, 125
10, 119328, Note_on_c, 6, 62, 0
10, 119340, Note_on_c, 6, 60, 116
10, 119388, Note_on_c, 6, 60, 0
10, 119400, Note_on_c, 6, 57, 78
10, 119448, Note_on_c, 6, 57, 0
10, 119460, Note_on_c, 6, 53, 125
10, 119508, Note_on_c, 6, 53, 0
10, 119520, Note_on_c, 6, 48, 102
10, 119568, Note_on_c, 6, 48, 0
10, 119580, Note_on_c, 6, 57, 101
10, 119628, Note_on_c, 6, 57, 0
10, 119640, Note_on_c, 6, 53, 121
10, 119688, Note_on_c, 6, 53, 0
10, 119700, Note_on_c, 6, 48, 127
10, 119748, Note_on_c, 6, 48, 0
10, 119760, Note_on_c, 6, 48, 107
10, 120192, Note_on_c, 6, 48, 0
10, 120240, Note_on_c, 6, 41, 82
10, 120672, Note_on_c, 6, 41, 0
10, 120720, Note_on_c, 6, 40, 107
10, 120816, Note_on_c, 6, 40, 0
10, 120840, Note_on_c, 6, 40, 114
10, 120936, Note_on_c, 6, 40, 0
10, 120960, Note_on_c, 6, 40, 104
10, 121056, Note_on_c, 6, 40, 0
10, 121080, Note_on_c, 6, 43, 118
10, 121128, Note_on_c, 6, 43, 0
10, 121140, Note_on_c, 6, 40, 106
10, 121188, Note_on_c, 6, 40, 0
10, 121200, Note_on_c, 6, 41, 112
10, 121296, Note_on_c, 6, 41, 0
10, 121320, Note_on_c, 6, 41, 116
10, 121416, Note_on_c, 6, 41, 0
10, 121440, Note_on_c, 6, 41, 127
10, 121536, Note_on_c, 6, 41, 0
10, 121560, Note_on_c, 6, 45, 120
10, 121608, Note_on_c, 6, 45, 0
10, 121620, Note_on_c, 6, 41, 114
10, 121668, Note_on_c, 6, 41, 0
10, 121680, Note_on_c, 6, 43, 118
10, 121776, Note_on_c, 6, 43, 0
10, 121800, Note_on_c, 6, 43, 127
10, 121896, Note_on_c, 6, 43, 0
10, 121920, Note_on_c, 6, 43, 127
10, 122016, Note_on_c, 6, 43, 0
10, 122040, Note_on_c, 6, 46, 118
10, 122088, Note_on_c, 6, 46, 0
10, 122100, Note_on_c, 6, 43, 127
10, 122148, Note_on_c, 6, 43, 0
10, 122160, Note_on_c, 6, 53, 114
10, 122832, Note_on_c, 6, 53, 0
10, 122880, Note_on_c, 6, 46, 118
10, 122928, Note_on_c, 6, 46, 0
10, 123120, Note_on_c, 6, 46, 121
10, 123312, Note_on_c, 6, 46, 0
10, 123360, Note_on_c, 6, 53, 110
10, 123552, Note_on_c, 6, 53, 0
10, 123600, Note_on_c, 6, 48, 127
10, 123792, Note_on_c, 6, 48, 0
10, 123840, Note_on_c, 6, 53, 110
10, 124512, Note_on_c, 6, 53, 0
10, 124560, Note_on_c, 6, 46, 100
10, 124608, Note_on_c, 6, 46, 0
10, 124800, Note_on_c, 6, 46, 121
10, 124992, Note_on_c, 6, 46, 0
10, 125040, Note_on_c, 6, 53, 113
10, 125232, Note_on_c, 6, 53, 0
10, 125280, Note_on_c, 6, 48, 125
10, 125472, Note_on_c, 6, 48, 0
10, 125520, Note_on_c, 6, 53, 111
10, 125616, Note_on_c, 6, 53, 0
10, 125640, Note_on_c, 6, 53, 123
10, 125736, Note_on_c, 6, 53, 0
10, 125760, Note_on_c, 6, 46, 111
10, 125856, Note_on_c, 6, 46, 0
10, 125880, Note_on_c, 6, 46, 121
10, 125976, Note_on_c, 6, 46, 0
10, 126000, Note_on_c, 6, 41, 127
10, 126096, Note_on_c, 6, 41, 0
10, 126120, Note_on_c, 6, 41, 127
10, 126216, Note_on_c, 6, 41, 0
10, 126240, Note_on_c, 6, 48, 110
10, 126336, Note_on_c, 6, 48, 0
10, 126360, Note_on_c, 6, 48, 127
10, 126456, Note_on_c, 6, 48, 0
10, 126480, Note_on_c, 6, 41, 94
10, 126512, Note_on_c, 6, 41, 0
10, 126520, Note_on_c, 6, 41, 101
10, 126552, Note_on_c, 6, 41, 0
10, 126560, Note_on_c, 6, 41, 110
10, 126592, Note_on_c, 6, 41, 0
10, 126600, Note_on_c, 6, 41, 103
10, 126632, Note_on_c, 6, 41, 0
10, 126640, Note_on_c, 6, 43, 120
10, 126672, Note_on_c, 6, 43, 0
10, 126680, Note_on_c, 6, 45, 125
10, 126712, Note_on_c, 6, 45, 0
10, 126720, Note_on_c, 6, 46, 115
10, 126752, Note_on_c, 6, 46, 0
10, 126760, Note_on_c, 6, 46, 118
10, 126792, Note_on_c, 6, 46, 0
10, 126800, Note_on_c, 6, 46, 109
10, 126832, Note_on_c, 6, 46, 0
10, 126840, Note_on_c, 6, 50, 127
10, 126872, Note_on_c, 6, 50, 0
10, 126880, Note_on_c, 6, 50, 120
10, 126912, Note_on_c, 6, 50, 0
10, 126920, Note_on_c, 6, 50, 127
10, 126952, Note_on_c, 6, 50, 0
10, 126960, Note_on_c, 6, 53, 109
10, 126992, Note_on_c, 6, 53, 0
10, 127000, Note_on_c, 6, 53, 116
10, 127032, Note_on_c, 6, 53, 0
10, 127040, Note_on_c, 6, 53, 113
10, 127072, Note_on_c, 6, 53, 0
10, 127080, Note_on_c, 6, 57, 113
10, 127112, Note_on_c, 6, 57, 0
10, 127120, Note_on_c, 6, 57, 104
10, 127152, Note_on_c, 6, 57, 0
10, 127160, Note_on_c, 6, 57, 103
10, 127192, Note_on_c, 6, 57, 0
10, 127200, Note_on_c, 6, 60, 111
10, 127232, Note_on_c, 6, 60, 0
10, 127240, Note_on_c, 6, 60, 104
10, 127272, Note_on_c, 6, 60, 0
10, 127280, Note_on_c, 6, 60, 118
10, 127312, Note_on_c, 6, 60, 0
10, 127320, Note_on_c, 6, 48, 123
10, 127352, Note_on_c, 6, 48, 0
10, 127360, Note_on_c, 6, 48, 110
10, 127392, Note_on_c, 6, 48, 0
10, 127400, Note_on_c, 6, 48, 117
10, 127432, Note_on_c, 6, 48, 0
10, 127440, Note_on_c, 6, 53, 127
10, 127472, Note_on_c, 6, 53, 0
10, 127480, Note_on_c, 6, 41, 101
10, 127512, Note_on_c, 6, 41, 0
10, 127520, Note_on_c, 6, 41, 113
10, 127552, Note_on_c, 6, 41, 0
10, 127560, Note_on_c, 6, 41, 102
10, 127952, Note_on_c, 6, 41, 0
10, 127960, Note_on_c, 6, 41, 125
10, 127992, Note_on_c, 6, 41, 0
10, 128000, Note_on_c, 6, 41, 127
10, 128032, Note_on_c, 6, 41, 0
10, 128040, Note_on_c, 6, 41, 117
10, 128432, Note_on_c, 6, 41, 0
10, 128440, Note_on_c, 6, 41, 125
10, 128472, Note_on_c, 6, 41, 0
10, 128480, Note_on_c, 6, 41, 127
10, 128512, Note_on_c, 6, 41, 0
10, 128520, Note_on_c, 6, 41, 117
10, 128912, Note_on_c, 6, 41, 0
10, 128920, Note_on_c, 6, 41, 125
10, 128952, Note_on_c, 6, 41, 0
10, 128960, Note_on_c, 6, 41, 127
10, 128992, Note_on_c, 6, 41, 0
10, 129000, Note_on_c, 6, 41, 117
10, 129400, Note_on_c, 6, 41, 0
10, 129400, Note_on_c, 6, 41, 116
10, 129440, Note_on_c, 6, 41, 0
10, 129440, Note_on_c, 6, 41, 121
10, 129480, Note_on_c, 6, 41, 0
10, 129480, Note_on_c, 6, 41, 120
10, 129632, Note_on_c, 6, 41, 0
10, 129640, Note_on_c, 6, 41, 116
10, 129672, Note_on_c, 6, 41, 0
10, 129680, Note_on_c, 6, 41, 121
10, 129712, Note_on_c, 6, 41, 0
10, 129720, Note_on_c, 6, 41, 120
10, 129872, Note_on_c, 6, 41, 0
10, 129880, Note_on_c, 6, 41, 116
10, 129912, Note_on_c, 6, 41, 0
10, 129920, Note_on_c, 6, 41, 121
10, 129952, Note_on_c, 6, 41, 0
10, 129960, Note_on_c, 6, 41, 120
10, 130112, Note_on_c, 6, 41, 0
10, 130120, Note_on_c, 6, 41, 116
10, 130152, Note_on_c, 6, 41, 0
10, 130160, Note_on_c, 6, 41, 121
10, 130192, Note_on_c, 6, 41, 0
10, 130200, Note_on_c, 6, 41, 120
10, 130352, Note_on_c, 6, 41, 0
10, 130360, Note_on_c, 6, 41, 116
10, 130392, Note_on_c, 6, 41, 0
10, 130400, Note_on_c, 6, 41, 121
10, 130432, Note_on_c, 6, 41, 0
10, 130440, Note_on_c, 6, 41, 120
10, 130592, Note_on_c, 6, 41, 0
10, 130600, Note_on_c, 6, 41, 116
10, 130632, Note_on_c, 6, 41, 0
10, 130640, Note_on_c, 6, 41, 121
10, 130672, Note_on_c, 6, 41, 0
10, 130680, Note_on_c, 6, 41, 120
10, 130832, Note_on_c, 6, 41, 0
10, 130840, Note_on_c, 6, 41, 116
10, 130872, Note_on_c, 6, 41, 0
10, 130880, Note_on_c, 6, 41, 121
10, 130912, Note_on_c, 6, 41, 0
10, 130920, Note_on_c, 6, 41, 120
10, 131072, Note_on_c, 6, 41, 0
10, 131080, Note_on_c, 6, 41, 116
10, 131112, Note_on_c, 6, 41, 0
10, 131120, Note_on_c, 6, 41, 121
10, 131152, Note_on_c, 6, 41, 0
10, 131160, Note_on_c, 6, 41, 120
10, 131328, Note_on_c, 6, 41, 0
10, 131340, Note_on_c, 6, 48, 117
10, 131364, Note_on_c, 6, 48, 0
10, 131370, Note_on_c, 6, 45, 127
10, 131394, Note_on_c, 6, 45, 0
10, 131400, Note_on_c, 6, 41, 117
10, 131448, Note_on_c, 6, 41, 0
10, 131460, Note_on_c, 6, 48, 114
10, 131484, Note_on_c, 6, 48, 0
10, 131490, Note_on_c, 6, 45, 125
10, 131514, Note_on_c, 6, 45, 0
10, 131580, Note_on_c, 6, 48, 117
10, 131604, Note_on_c, 6, 48, 0
10, 131610, Note_on_c, 6, 45, 127
10, 131634, Note_on_c, 6, 45, 0
10, 131640, Note_on_c, 6, 41, 117
10, 131688, Note_on_c, 6, 41, 0
10, 131700, Note_on_c, 6, 48, 114
10, 131724, Note_on_c, 6, 48, 0
10, 131730, Note_on_c, 6, 45, 125
10, 131754, Note_on_c, 6, 45, 0
10, 131820, Note_on_c, 6, 48, 117
10, 131844, Note_on_c, 6, 48, 0
10, 131850, Note_on_c, 6, 45, 127
10, 131874, Note_on_c, 6, 45, 0
10, 131880, Note_on_c, 6, 41, 117
10, 131928, Note_on_c, 6, 41, 0
10, 131940, Note_on_c, 6, 48, 114
10, 131964, Note_on_c, 6, 48, 0
10, 131970, Note_on_c, 6, 45, 125
10, 131994, Note_on_c, 6, 45, 0
10, 132060, Note_on_c, 6, 48, 117
10, 132084, Note_on_c, 6, 48, 0
10, 132090, Note_on_c, 6, 45, 127
10, 132114, Note_on_c, 6, 45, 0
10, 132120, Note_on_c, 6, 41, 117
10, 132168, Note_on_c, 6, 41, 0
10, 132180, Note_on_c, 6, 48, 114
10, 132204, Note_on_c, 6, 48, 0
10, 132210, Note_on_c, 6, 45, 125
10, 132234, Note_on_c, 6, 45, 0
10, 132240, Note_on_c, 6, 41, 113
10, 132288, Note_on_c, 6, 41, 0
10, 134220, Note_on_c, 6, 58, 111
10, 134268, Note_on_c, 6, 58, 0
10, 134280, Note_on_c, 6, 55, 127
10, 134328, Note_on_c, 6, 55, 0
10, 134340, Note_on_c, 6, 51, 97
10, 134388, Note_on_c, 6, 51, 0
10, 134400, Note_on_c, 6, 50, 121
10, 134448, Note_on_c, 6, 50, 0
10, 134460, Note_on_c, 6, 51, 109
10, 134508, Note_on_c, 6, 51, 0
10, 134520, Note_on_c, 6, 53, 123
10, 134568, Note_on_c, 6, 53, 0
10, 134580, Note_on_c, 6, 51, 115
10, 134628, Note_on_c, 6, 51, 0
10, 134640, Note_on_c, 6, 50, 127
10, 134688, Note_on_c, 6, 50, 0
10, 134700, Note_on_c, 6, 48, 125
10, 134748, Note_on_c, 6, 48, 0
10, 134760, Note_on_c, 6, 46, 97
10, 134808, Note_on_c, 6, 46, 0
10, 134820, Note_on_c, 6, 48, 114
10, 134868, Note_on_c, 6, 48, 0
10, 134880, Note_on_c, 6, 45, 98
10, 134928, Note_on_c, 6, 45, 0
10, 134940, Note_on_c, 6, 43, 123
10, 134988, Note_on_c, 6, 43, 0
10, 135000, Note_on_c, 6, 41, 127
10, 135048, Note_on_c, 6, 41, 0
10, 135060, Note_on_c, 6, 53, 121
10, 135108, Note_on_c, 6, 53, 0
10, 135120, Note_on_c, 6, 46, 105
10, 135312, Note_on_c, 6, 46, 0
10, 135360, Note_on_c, 6, 41, 99
10, 135552, Note_on_c, 6, 41, 0
10, 135600, Note_on_c, 6, 46, 127
10, 135632, Note_on_c, 6, 46, 0
10, 135640, Note_on_c, 6, 46, 127
10, 135672, Note_on_c, 6, 46, 0
10, 135680, Note_on_c, 6, 46, 127
10, 135712, Note_on_c, 6, 46, 0
10, 135720, Note_on_c, 6, 46, 126
10, 136112, Note_on_c, 6, 46, 0
10, 136120, Note_on_c, 6, 46, 123
10, 136152, Note_on_c, 6, 46, 0
10, 136160, Note_on_c, 6, 46, 118
10, 136192, Note_on_c, 6, 46, 0
10, 136200, Note_on_c, 6, 46, 109
10, 136592, Note_on_c, 6, 46, 0
10, 136600, Note_on_c, 6, 46, 121
10, 136632, Note_on_c, 6, 46, 0
10, 136640, Note_on_c, 6, 46, 127
10, 136672, Note_on_c, 6, 46, 0
10, 136680, Note_on_c, 6, 46, 105
10, 137072, Note_on_c, 6, 46, 0
10, 137080, Note_on_c, 6, 46, 121
10, 137112, Note_on_c, 6, 46, 0
10, 137120, Note_on_c, 6, 46, 127
10, 137152, Note_on_c, 6, 46, 0
10, 137160, Note_on_c, 6, 46, 121
10, 137552, Note_on_c, 6, 46, 0
10, 137560, Note_on_c, 6, 58, 101
10, 137592, Note_on_c, 6, 58, 0
10, 137600, Note_on_c, 6, 58, 94
10, 137632, Note_on_c, 6, 58, 0
10, 137640, Note_on_c, 6, 58, 94
10, 137792, Note_on_c, 6, 58, 0
10, 137800, Note_on_c, 6, 55, 104
10, 137832, Note_on_c, 6, 55, 0
10, 137840, Note_on_c, 6, 55, 114
10, 137872, Note_on_c, 6, 55, 0
10, 137880, Note_on_c, 6, 55, 106
10, 138032, Note_on_c, 6, 55, 0
10, 138040, Note_on_c, 6, 52, 105
10, 138072, Note_on_c, 6, 52, 0
10, 138080, Note_on_c, 6, 52, 114
10, 138112, Note_on_c, 6, 52, 0
10, 138120, Note_on_c, 6, 52, 107
10, 138272, Note_on_c, 6, 52, 0
10, 138280, Note_on_c, 6, 48, 101
10, 138312, Note_on_c, 6, 48, 0
10, 138320, Note_on_c, 6, 48, 105
10, 138352, Note_on_c, 6, 48, 0
10, 138360, Note_on_c, 6, 48, 111
10, 138456, Note_on_c, 6, 48, 0
10, 138480, Note_on_c, 6, 53, 117
10, 138512, Note_on_c, 6, 53, 0
10, 138520, Note_on_c, 6, 41, 108
10, 138552, Note_on_c, 6, 41, 0
10, 138560, Note_on_c, 6, 41, 121
10, 138592, Note_on_c, 6, 41, 0
10, 138600, Note_on_c, 6, 41, 127
10, 138992, Note_on_c, 6, 41, 0
10, 139000, Note_on_c, 6, 41, 127
10, 139032, Note_on_c, 6, 41, 0
10, 139040, Note_on_c, 6, 41, 121
10, 139072, Note_on_c, 6, 41, 0
10, 139080, Note_on_c, 6, 41, 117
10, 139472, Note_on_c, 6, 41, 0
10, 139480, Note_on_c, 6, 41, 121
10, 139512, Note_on_c, 6, 41, 0
10, 139520, Note_on_c, 6, 41, 127
10, 139552, Note_on_c, 6, 41, 0
10, 139560, Note_on_c, 6, 41, 101
10, 139952, Note_on_c, 6, 41, 0
10, 139960, Note_on_c, 6, 41, 127
10, 139992, Note_on_c, 6, 41, 0
10, 140000, Note_on_c, 6, 41, 127
10, 140032, Note_on_c, 6, 41, 0
10, 140040, Note_on_c, 6, 41, 110
10, 140432, Note_on_c, 6, 41, 0
10, 140440, Note_on_c, 6, 41, 127
10, 140472, Note_on_c, 6, 41, 0
10, 140480, Note_on_c, 6, 41, 127
10, 140512, Note_on_c, 6, 41, 0
10, 140520, Note_on_c, 6, 41, 110
10, 140672, Note_on_c, 6, 41, 0
10, 140680, Note_on_c, 6, 50, 100
10, 140712, Note_on_c, 6, 50, 0
10, 140720, Note_on_c, 6, 50, 114
10, 140752, Note_on_c, 6, 50, 0
10, 140760, Note_on_c, 6, 50, 116
10, 140912, Note_on_c, 6, 50, 0
10, 140920, Note_on_c, 6, 48, 107
10, 140952, Note_on_c, 6, 48, 0
10, 140960, Note_on_c, 6, 48, 102
10, 140992, Note_on_c, 6, 48, 0
10, 141000, Note_on_c, 6, 48, 127
10, 141152, Note_on_c, 6, 48, 0
10, 141160, Note_on_c, 6, 48, 117
10, 141192, Note_on_c, 6, 48, 0
10, 141200, Note_on_c, 6, 48, 123
10, 141232, Note_on_c, 6, 48, 0
10, 141240, Note_on_c, 6, 48, 116
10, 141392, Note_on_c, 6, 48, 0
10, 141400, Note_on_c, 6, 41, 117
10, 141432, Note_on_c, 6, 41, 0
10, 141440, Note_on_c, 6, 41, 117
10, 141472, Note_on_c, 6, 41, 0
10, 141480, Note_on_c, 6, 41, 125
10, 141632, Note_on_c, 6, 41, 0
10, 141640, Note_on_c, 6, 50, 101
10, 141672, Note_on_c, 6, 50, 0
10, 141680, Note_on_c, 6, 50, 114
10, 141712, Note_on_c, 6, 50, 0
10, 141720, Note_on_c, 6, 50, 110
10, 141872, Note_on_c, 6, 50, 0
10, 141880, Note_on_c, 6, 48, 121
10, 141912, Note_on_c, 6, 48, 0
10, 141920, Note_on_c, 6, 48, 123
10, 141952, Note_on_c, 6, 48, 0
10, 141960, Note_on_c, 6, 48, 114
10, 142112, Note_on_c, 6, 48, 0
10, 142120, Note_on_c, 6, 48, 113
10, 142152, Note_on_c, 6, 48, 0
10, 142160, Note_on_c, 6, 48, 114
10, 142192, Note_on_c, 6, 48, 0
10, 142200, Note_on_c, 6, 48, 116
10, 142352, Note_on_c, 6, 48, 0
10, 142360, Note_on_c, 6, 41, 108
10, 142392, Note_on_c, 6, 41, 0
10, 142400, Note_on_c, 6, 41, 117
10, 142432, Note_on_c, 6, 41, 0
10, 142440, Note_on_c, 6, 41, 105
10, 142592, Note_on_c, 6, 41, 0
10, 142600, Note_on_c, 6, 50, 109
10, 142632, Note_on_c, 6, 50, 0
10, 142640, Note_on_c, 6, 50, 111
10, 142672, Note_on_c, 6, 50, 0
10, 142680, Note_on_c, 6, 50, 107
10, 142832, Note_on_c, 6, 50, 0
10, 142840, Note_on_c, 6, 48, 125
10, 142872, Note_on_c, 6, 48, 0
10, 142880, Note_on_c, 6, 48, 121
10, 142912, Note_on_c, 6, 48, 0
10, 142920, Note_on_c, 6, 48, 127
10, 143072, Note_on_c, 6, 48, 0
10, 143080, Note_on_c, 6, 48, 127
10, 143112, Note_on_c, 6, 48, 0
10, 143120, Note_on_c, 6, 48, 127
10, 143152, Note_on_c, 6, 48, 0
10, 143160, Note_on_c, 6, 48, 121
10, 143312, Note_on_c, 6, 48, 0
10, 143320, Note_on_c, 6, 48, 121
10, 143352, Note_on_c, 6, 48, 0
10, 143360, Note_on_c, 6, 48, 121
10, 143392, Note_on_c, 6, 48, 0
10, 143400, Note_on_c, 6, 48, 127
10, 143552, Note_on_c, 6, 48, 0
10, 143560, Note_on_c, 6, 48, 125
10, 143592, Note_on_c, 6, 48, 0
10, 143600, Note_on_c, 6, 48, 127
10, 143632, Note_on_c, 6, 48, 0
10, 143640, Note_on_c, 6, 48, 112
10, 143792, Note_on_c, 6, 48, 0
10, 143800, Note_on_c, 6, 48, 127
10, 143832, Note_on_c, 6, 48, 0
10, 143840, Note_on_c, 6, 48, 125
10, 143872, Note_on_c, 6, 48, 0
10, 143880, Note_on_c, 6, 48, 127
10, 144032, Note_on_c, 6, 48, 0
10, 144040, Note_on_c, 6, 48, 117
10, 144072, Note_on_c, 6, 48, 0
10, 144080, Note_on_c, 6, 48, 127
10, 144112, Note_on_c, 6, 48, 0
10, 144120, Note_on_c, 6, 48, 127
10, 144272, Note_on_c, 6, 48, 0
10, 144280, Note_on_c, 6, 48, 125
10, 144312, Note_on_c, 6, 48, 0
10, 144320, Note_on_c, 6, 48, 127
10, 144352, Note_on_c, 6, 48, 0
10, 144360, Note_on_c, 6, 48, 127
10, 144512, Note_on_c, 6, 48, 0
10, 144520, Note_on_c, 6, 48, 125
10, 144552, Note_on_c, 6, 48, 0
10, 144560, Note_on_c, 6, 48, 127
10, 144592, Note_on_c, 6, 48, 0
10, 144600, Note_on_c, 6, 48, 127
10, 144752, Note_on_c, 6, 48, 0
10, 144760, Note_on_c, 6, 48, 113
10, 144792, Note_on_c, 6, 48, 0
10, 144800, Note_on_c, 6, 48, 127
10, 144832, Note_on_c, 6, 48, 0
10, 144840, Note_on_c, 6, 48, 123
10, 144992, Note_on_c, 6, 48, 0
10, 145000, Note_on_c, 6, 48, 118
10, 145032, Note_on_c, 6, 48, 0
10, 145040, Note_on_c, 6, 48, 127
10, 145072, Note_on_c, 6, 48, 0
10, 145080, Note_on_c, 6, 48, 127
10, 145176, Note_on_c, 6, 48, 0
10, 145200, Note_on_c, 6, 48, 127
10, 145392, Note_on_c, 6, 48, 0
10, 145440, Note_on_c, 6, 50, 127
10, 145632, Note_on_c, 6, 50, 0
10, 145680, Note_on_c, 6, 52, 103
10, 145872, Note_on_c, 6, 52, 0
10, 145920, Note_on_c, 6, 53, 120
10, 145968, Note_on_c, 6, 53, 0
10, 146040, Note_on_c, 6, 48, 120
10, 146088, Note_on_c, 6, 48, 0
10, 146160, Note_on_c, 6, 48, 114
10, 146352, Note_on_c, 6, 48, 0
10, 146400, Note_on_c, 6, 50, 112
10, 146592, Note_on_c, 6, 50, 0
10, 146640, Note_on_c, 6, 52, 109
10, 146832, Note_on_c, 6, 52, 0
10, 146880, Note_on_c, 6, 53, 106
10, 146928, Note_on_c, 6, 53, 0
10, 147000, Note_on_c, 6, 48, 102
10, 147048, Note_on_c, 6, 48, 0
10, 147120, Note_on_c, 6, 41, 121
10, 147168, Note_on_c, 6, 41, 0
10, 147840, Note_on_c, 6, 48, 120
10, 147984, Note_on_c, 6, 48, 0
10, 148020, Note_on_c, 6, 48, 127
10, 148068, Note_on_c, 6, 48, 0
10, 148080, Note_on_c, 6, 41, 127
10, 148128, Note_on_c, 6, 41, 0
10, 148800, Note_on_c, 6, 48, 118
10, 148944, Note_on_c, 6, 48, 0
10, 148980, Note_on_c, 6, 48, 127
10, 149028, Note_on_c, 6, 48, 0
10, 149040, Note_on_c, 6, 41, 116
10, 149088, Note_on_c, 6, 41, 0
10, 149280, Note_on_c, 6, 48, 118
10, 149424, Note_on_c, 6, 48, 0
10, 149460, Note_on_c, 6, 48, 127
10, 149508, Note_on_c, 6, 48, 0
10, 149520, Note_on_c, 6, 41, 116
10, 149568, Note_on_c, 6, 41, 0
10, 149760, Note_on_c, 6, 48, 118
10, 149904, Note_on_c, 6, 48, 0
10, 149940, Note_on_c, 6, 48, 127
10, 149988, Note_on_c, 6, 48, 0
10, 150000, Note_on_c, 6, 41, 116
10, 150048, Note_on_c, 6, 41, 0
10, 150240, Note_on_c, 6, 41, 116
10, 150288, Note_on_c, 6, 41, 0
10, 150480, Note_on_c, 6, 41, 116
10, 150528, Note_on_c, 6, 41, 0
10, 150720, Note_on_c, 6, 41, 116
10, 150768, Note_on_c, 6, 41, 0
10, 150960, Note_on_c, 6, 41, 98
10, 152448, Note_on_c, 6, 41, 0
10, 154080, Note_on_c, 6, 46, 121
10, 154128, Note_on_c, 6, 46, 0
10, 154140, Note_on_c, 6, 48, 127
10, 154188, Note_on_c, 6, 48, 0
10, 154200, Note_on_c, 6, 50, 127
10, 154248, Note_on_c, 6, 50, 0
10, 154260, Note_on_c, 6, 52, 127
10, 154308, Note_on_c, 6, 52, 0
10, 154320, Note_on_c, 6, 53, 127
10, 154512, Note_on_c, 6, 53, 0
10, 154560, Note_on_c, 6, 48, 127
10, 154752, Note_on_c, 6, 48, 0
10, 154800, Note_on_c, 6, 41, 127
10, 154992, Note_on_c, 6, 41, 0
10, 155040, Note_on_c, 6, 41, 127
10, 155136, Note_on_c, 6, 41, 0
10, 155160, Note_on_c, 6, 41, 127
10, 155256, Note_on_c, 6, 41, 0
10, 155280, Note_on_c, 6, 41, 127
10, 155472, Note_on_c, 6, 41, 0
10, 155520, Note_on_c, 6, 41, 127
10, 155712, Note_on_c, 6, 41, 0
10, 155760, Note_on_c, 6, 41, 127
10, 155952, Note_on_c, 6, 41, 0
10, 155952, End_track
11, 0, Start_track
11, 0, MIDI_port, 0
11, 0, Title_t, "Bass"
11, 0, Program_c, 7, 43
11, 0, Control_c, 7, 7, 113
11, 2880, Note_on_c, 7, 41, 127
11, 2976, Note_on_c, 7, 41, 0
11, 3000, Note_on_c, 7, 45, 127
11, 3096, Note_on_c, 7, 45, 0
11, 3120, Note_on_c, 7, 43, 125
11, 3264, Note_on_c, 7, 43, 0
11, 3300, Note_on_c, 7, 41, 106
11, 3348, Note_on_c, 7, 41, 0
11, 3360, Note_on_c, 7, 46, 118
11, 3456, Note_on_c, 7, 46, 0
11, 3480, Note_on_c, 7, 41, 108
11, 3576, Note_on_c, 7, 41, 0
11, 3600, Note_on_c, 7, 48, 127
11, 3744, Note_on_c, 7, 48, 0
11, 3780, Note_on_c, 7, 48, 118
11, 3828, Note_on_c, 7, 48, 0
11, 3840, Note_on_c, 7, 48, 127
11, 3984, Note_on_c, 7, 48, 0
11, 4020, Note_on_c, 7, 48, 118
11, 4068, Note_on_c, 7, 48, 0
11, 4080, Note_on_c, 7, 48, 127
11, 4224, Note_on_c, 7, 48, 0
11, 4260, Note_on_c, 7, 48, 118
11, 4308, Note_on_c, 7, 48, 0
11, 4320, Note_on_c, 7, 48, 127
11, 4464, Note_on_c, 7, 48, 0
11, 4500, Note_on_c, 7, 48, 118
11, 4548, Note_on_c, 7, 48, 0
11, 4560, Note_on_c, 7, 48, 127
11, 4704, Note_on_c, 7, 48, 0
11, 4740, Note_on_c, 7, 48, 118
11, 4788, Note_on_c, 7, 48, 0
11, 4800, Note_on_c, 7, 48, 127
11, 4944, Note_on_c, 7, 48, 0
11, 4980, Note_on_c, 7, 48, 118
11, 5028, Note_on_c, 7, 48, 0
11, 5040, Note_on_c, 7, 48, 127
11, 5184, Note_on_c, 7, 48, 0
11, 5220, Note_on_c, 7, 48, 118
11, 5268, Note_on_c, 7, 48, 0
11, 5280, Note_on_c, 7, 48, 127
11, 5424, Note_on_c, 7, 48, 0
11, 5460, Note_on_c, 7, 48, 118
11, 5508, Note_on_c, 7, 48, 0
11, 5520, Note_on_c, 7, 48, 127
11, 5664, Note_on_c, 7, 48, 0
11, 5700, Note_on_c, 7, 48, 118
11, 5748, Note_on_c, 7, 48, 0
11, 5760, Note_on_c, 7, 48, 112
11, 5808, Note_on_c, 7, 48, 0
11, 8640, Note_on_c, 7, 41, 125
11, 8688, Note_on_c, 7, 41, 0
11, 8700, Note_on_c, 7, 41, 114
11, 8748, Note_on_c, 7, 41, 0
11, 8760, Note_on_c, 7, 41, 120
11, 8808, Note_on_c, 7, 41, 0
11, 8820, Note_on_c, 7, 41, 127
11, 8868, Note_on_c, 7, 41, 0
11, 10800, Note_on_c, 7, 48, 127
11, 10992, Note_on_c, 7, 48, 0
11, 11040, Note_on_c, 7, 41, 127
11, 11328, Note_on_c, 7, 41, 0
11, 11340, Note_on_c, 7, 41, 80
11, 11388, Note_on_c, 7, 41, 0
11, 11400, Note_on_c, 7, 41, 80
11, 11448, Note_on_c, 7, 41, 0
11, 11460, Note_on_c, 7, 41, 80
11, 11508, Note_on_c, 7, 41, 0
11, 11520, Note_on_c, 7, 41, 80
11, 11808, Note_on_c, 7, 41, 0
11, 11820, Note_on_c, 7, 41, 80
11, 11868, Note_on_c, 7, 41, 0
11, 11880, Note_on_c, 7, 41, 80
11, 11928, Note_on_c, 7, 41, 0
11, 11940, Note_on_c, 7, 41, 80
11, 11988, Note_on_c, 7, 41, 0
11, 12000, Note_on_c, 7, 41, 127
11, 12144, Note_on_c, 7, 41, 0
11, 12180, Note_on_c, 7, 41, 116
11, 12228, Note_on_c, 7, 41, 0
11, 12240, Note_on_c, 7, 41, 110
11, 12384, Note_on_c, 7, 41, 0
11, 12420, Note_on_c, 7, 41, 109
11, 12468, Note_on_c, 7, 41, 0
11, 12480, Note_on_c, 7, 41, 105
11, 12528, Note_on_c, 7, 41, 0
11, 18720, Note_on_c, 7, 57, 123
11, 18768, Note_on_c, 7, 57, 0
11, 18780, Note_on_c, 7, 55, 127
11, 18828, Note_on_c, 7, 55, 0
11, 18840, Note_on_c, 7, 53, 118
11, 18888, Note_on_c, 7, 53, 0
11, 18900, Note_on_c, 7, 50, 107
11, 18948, Note_on_c, 7, 50, 0
11, 18960, Note_on_c, 7, 43, 123
11, 19008, Note_on_c, 7, 43, 0
11, 19020, Note_on_c, 7, 53, 112
11, 19068, Note_on_c, 7, 53, 0
11, 19080, Note_on_c, 7, 50, 112
11, 19128, Note_on_c, 7, 50, 0
11, 19140, Note_on_c, 7, 43, 114
11, 19188, Note_on_c, 7, 43, 0
11, 19200, Note_on_c, 7, 57, 98
11, 19248, Note_on_c, 7, 57, 0
11, 19260, Note_on_c, 7, 55, 123
11, 19308, Note_on_c, 7, 55, 0
11, 19320, Note_on_c, 7, 52, 127
11, 19368, Note_on_c, 7, 52, 0
11, 19380, Note_on_c, 7, 48, 120
11, 19428, Note_on_c, 7, 48, 0
11, 19440, Note_on_c, 7, 43, 127
11, 19488, Note_on_c, 7, 43, 0
11, 19500, Note_on_c, 7, 52, 103
11, 19548, Note_on_c, 7, 52, 0
11, 19560, Note_on_c, 7, 48, 121
11, 19608, Note_on_c, 7, 48, 0
11, 19620, Note_on_c, 7, 43, 108
11, 19668, Note_on_c, 7, 43, 0
11, 19680, Note_on_c, 7, 43, 116
11, 20112, Note_on_c, 7, 43, 0
11, 20160, Note_on_c, 7, 48, 127
11, 20592, Note_on_c, 7, 48, 0
11, 20640, Note_on_c, 7, 47, 118
11, 20736, Note_on_c, 7, 47, 0
11, 20760, Note_on_c, 7, 47, 125
11, 20856, Note_on_c, 7, 47, 0
11, 20880, Note_on_c, 7, 47, 127
11, 20976, Note_on_c, 7, 47, 0
11, 21000, Note_on_c, 7, 50, 120
11, 21048, Note_on_c, 7, 50, 0
11, 21060, Note_on_c, 7, 47, 127
11, 21108, Note_on_c, 7, 47, 0
11, 21120, Note_on_c, 7, 48, 123
11, 21216, Note_on_c, 7, 48, 0
11, 21240, Note_on_c, 7, 48, 109
11, 21336, Note_on_c, 7, 48, 0
11, 21360, Note_on_c, 7, 48, 127
11, 21456, Note_on_c, 7, 48, 0
11, 21480, Note_on_c, 7, 52, 50
11, 21528, Note_on_c, 7, 52, 0
11, 21540, Note_on_c, 7, 48, 112
11, 21588, Note_on_c, 7, 48, 0
11, 21600, Note_on_c, 7, 50, 127
11, 21696, Note_on_c, 7, 50, 0
11, 21720, Note_on_c, 7, 50, 97
11, 21816, Note_on_c, 7, 50, 0
11, 21840, Note_on_c, 7, 50, 123
11, 21936, Note_on_c, 7, 50, 0
11, 21960, Note_on_c, 7, 53, 105
11, 22008, Note_on_c, 7, 53, 0
11, 22020, Note_on_c, 7, 50, 114
11, 22068, Note_on_c, 7, 50, 0
11, 22080, Note_on_c, 7, 48, 104
11, 22752, Note_on_c, 7, 48, 0
11, 22800, Note_on_c, 7, 41, 127
11, 22848, Note_on_c, 7, 41, 0
11, 23040, Note_on_c, 7, 41, 121
11, 23232, Note_on_c, 7, 41, 0
11, 23280, Note_on_c, 7, 48, 123
11, 23472, Note_on_c, 7, 48, 0
11, 23520, Note_on_c, 7, 43, 125
11, 23712, Note_on_c, 7, 43, 0
11, 24000, Note_on_c, 7, 48, 127
11, 24432, Note_on_c, 7, 48, 0
11, 24480, Note_on_c, 7, 41, 127
11, 24528, Note_on_c, 7, 41, 0
11, 24720, Note_on_c, 7, 41, 127
11, 24912, Note_on_c, 7, 41, 0
11, 24960, Note_on_c, 7, 48, 123
11, 25152, Note_on_c, 7, 48, 0
11, 25200, Note_on_c, 7, 43, 110
11, 25392, Note_on_c, 7, 43, 0
11, 25440, Note_on_c, 7, 48, 127
11, 25536, Note_on_c, 7, 48, 0
11, 25560, Note_on_c, 7, 48, 127
11, 25656, Note_on_c, 7, 48, 0
11, 25680, Note_on_c, 7, 41, 112
11, 25776, Note_on_c, 7, 41, 0
11, 25800, Note_on_c, 7, 41, 112
11, 25896, Note_on_c, 7, 41, 0
11, 25920, Note_on_c, 7, 48, 109
11, 26016, Note_on_c, 7, 48, 0
11, 26040, Note_on_c, 7, 48, 127
11, 26136, Note_on_c, 7, 48, 0
11, 26160, Note_on_c, 7, 43, 105
11, 26256, Note_on_c, 7, 43, 0
11, 26280, Note_on_c, 7, 43, 110
11, 26376, Note_on_c, 7, 43, 0
11, 26400, Note_on_c, 7, 48, 127
11, 26432, Note_on_c, 7, 48, 0
11, 26440, Note_on_c, 7, 48, 127
11, 26472, Note_on_c, 7, 48, 0
11, 26480, Note_on_c, 7, 48, 127
11, 26512, Note_on_c, 7, 48, 0
11, 26520, Note_on_c, 7, 48, 127
11, 26552, Note_on_c, 7, 48, 0
11, 26560, Note_on_c, 7, 50, 127
11, 26592, Note_on_c, 7, 50, 0
11, 26600, Note_on_c, 7, 52, 120
11, 26632, Note_on_c, 7, 52, 0
11, 26640, Note_on_c, 7, 53, 127
11, 26672, Note_on_c, 7, 53, 0
11, 26680, Note_on_c, 7, 53, 127
11, 26712, Note_on_c, 7, 53, 0
11, 26720, Note_on_c, 7, 53, 127
11, 26752, Note_on_c, 7, 53, 0
11, 26760, Note_on_c, 7, 57, 121
11, 26792, Note_on_c, 7, 57, 0
11, 26800, Note_on_c, 7, 57, 127
11, 26832, Note_on_c, 7, 57, 0
11, 26840, Note_on_c, 7, 57, 127
11, 26872, Note_on_c, 7, 57, 0
11, 26880, Note_on_c, 7, 60, 127
11, 26912, Note_on_c, 7, 60, 0
11, 26920, Note_on_c, 7, 60, 127
11, 26952, Note_on_c, 7, 60, 0
11, 26960, Note_on_c, 7, 60, 123
11, 26992, Note_on_c, 7, 60, 0
11, 27000, Note_on_c, 7, 64, 107
11, 27032, Note_on_c, 7, 64, 0
11, 27040, Note_on_c, 7, 64, 120
11, 27072, Note_on_c, 7, 64, 0
11, 27080, Note_on_c, 7, 64, 107
11, 27112, Note_on_c, 7, 64, 0
11, 27120, Note_on_c, 7, 67, 121
11, 27152, Note_on_c, 7, 67, 0
11, 27160, Note_on_c, 7, 43, 103
11, 27192, Note_on_c, 7, 43, 0
11, 27200, Note_on_c, 7, 43, 111
11, 27232, Note_on_c, 7, 43, 0
11, 27240, Note_on_c, 7, 43, 118
11, 27272, Note_on_c, 7, 43, 0
11, 27280, Note_on_c, 7, 43, 101
11, 27312, Note_on_c, 7, 43, 0
11, 27320, Note_on_c, 7, 43, 107
11, 27352, Note_on_c, 7, 43, 0
11, 27360, Note_on_c, 7, 48, 110
11, 27392, Note_on_c, 7, 48, 0
11, 27400, Note_on_c, 7, 48, 127
11, 27432, Note_on_c, 7, 48, 0
11, 27440, Note_on_c, 7, 48, 127
11, 27472, Note_on_c, 7, 48, 0
11, 27480, Note_on_c, 7, 48, 109
11, 27872, Note_on_c, 7, 48, 0
11, 27880, Note_on_c, 7, 48, 123
11, 27912, Note_on_c, 7, 48, 0
11, 27920, Note_on_c, 7, 48, 127
11, 27952, Note_on_c, 7, 48, 0
11, 27960, Note_on_c, 7, 48, 117
11, 28352, Note_on_c, 7, 48, 0
11, 28360, Note_on_c, 7, 48, 127
11, 28392, Note_on_c, 7, 48, 0
11, 28400, Note_on_c, 7, 48, 123
11, 28432, Note_on_c, 7, 48, 0
11, 28440, Note_on_c, 7, 48, 120
11, 28832, Note_on_c, 7, 48, 0
11, 28840, Note_on_c, 7, 48, 127
11, 28872, Note_on_c, 7, 48, 0
11, 28880, Note_on_c, 7, 48, 127
11, 28912, Note_on_c, 7, 48, 0
11, 28920, Note_on_c, 7, 48, 127
11, 29312, Note_on_c, 7, 48, 0
11, 29320, Note_on_c, 7, 48, 127
11, 29352, Note_on_c, 7, 48, 0
11, 29360, Note_on_c, 7, 48, 127
11, 29392, Note_on_c, 7, 48, 0
11, 29400, Note_on_c, 7, 48, 127
11, 29552, Note_on_c, 7, 48, 0
11, 29560, Note_on_c, 7, 48, 127
11, 29592, Note_on_c, 7, 48, 0
11, 29600, Note_on_c, 7, 48, 127
11, 29632, Note_on_c, 7, 48, 0
11, 29640, Note_on_c, 7, 48, 127
11, 29792, Note_on_c, 7, 48, 0
11, 29800, Note_on_c, 7, 48, 127
11, 29832, Note_on_c, 7, 48, 0
11, 29840, Note_on_c, 7, 48, 127
11, 29872, Note_on_c, 7, 48, 0
11, 29880, Note_on_c, 7, 48, 127
11, 30032, Note_on_c, 7, 48, 0
11, 30040, Note_on_c, 7, 48, 117
11, 30072, Note_on_c, 7, 48, 0
11, 30080, Note_on_c, 7, 48, 125
11, 30112, Note_on_c, 7, 48, 0
11, 30120, Note_on_c, 7, 48, 127
11, 30288, Note_on_c, 7, 48, 0
11, 36000, Note_on_c, 7, 41, 127
11, 36096, Note_on_c, 7, 41, 0
11, 36120, Note_on_c, 7, 45, 127
11, 36216, Note_on_c, 7, 45, 0
11, 36240, Note_on_c, 7, 43, 125
11, 36384, Note_on_c, 7, 43, 0
11, 36420, Note_on_c, 7, 41, 106
11, 36468, Note_on_c, 7, 41, 0
11, 36480, Note_on_c, 7, 46, 118
11, 36576, Note_on_c, 7, 46, 0
11, 36600, Note_on_c, 7, 41, 108
11, 36696, Note_on_c, 7, 41, 0
11, 36720, Note_on_c, 7, 48, 127
11, 36864, Note_on_c, 7, 48, 0
11, 36900, Note_on_c, 7, 48, 118
11, 36948, Note_on_c, 7, 48, 0
11, 36960, Note_on_c, 7, 48, 127
11, 37104, Note_on_c, 7, 48, 0
11, 37140, Note_on_c, 7, 48, 118
11, 37188, Note_on_c, 7, 48, 0
11, 37200, Note_on_c, 7, 48, 127
11, 37344, Note_on_c, 7, 48, 0
11, 37380, Note_on_c, 7, 48, 118
11, 37428, Note_on_c, 7, 48, 0
11, 37440, Note_on_c, 7, 48, 127
11, 37584, Note_on_c, 7, 48, 0
11, 37620, Note_on_c, 7, 48, 118
11, 37668, Note_on_c, 7, 48, 0
11, 37680, Note_on_c, 7, 48, 127
11, 37824, Note_on_c, 7, 48, 0
11, 37860, Note_on_c, 7, 48, 118
11, 37908, Note_on_c, 7, 48, 0
11, 37920, Note_on_c, 7, 48, 127
11, 38064, Note_on_c, 7, 48, 0
11, 38100, Note_on_c, 7, 48, 118
11, 38148, Note_on_c, 7, 48, 0
11, 38160, Note_on_c, 7, 48, 127
11, 38304, Note_on_c, 7, 48, 0
11, 38340, Note_on_c, 7, 48, 118
11, 38388, Note_on_c, 7, 48, 0
11, 38400, Note_on_c, 7, 48, 127
11, 38544, Note_on_c, 7, 48, 0
11, 38580, Note_on_c, 7, 48, 118
11, 38628, Note_on_c, 7, 48, 0
11, 38640, Note_on_c, 7, 48, 127
11, 38784, Note_on_c, 7, 48, 0
11, 38820, Note_on_c, 7, 48, 118
11, 38868, Note_on_c, 7, 48, 0
11, 38880, Note_on_c, 7, 48, 112
11, 38928, Note_on_c, 7, 48, 0
11, 41760, Note_on_c, 7, 41, 125
11, 41808, Note_on_c, 7, 41, 0
11, 41820, Note_on_c, 7, 41, 114
11, 41868, Note_on_c, 7, 41, 0
11, 41880, Note_on_c, 7, 41, 120
11, 41928, Note_on_c, 7, 41, 0
11, 41940, Note_on_c, 7, 41, 127
11, 41988, Note_on_c, 7, 41, 0
11, 43920, Note_on_c, 7, 48, 127
11, 44112, Note_on_c, 7, 48, 0
11, 44160, Note_on_c, 7, 41, 127
11, 44448, Note_on_c, 7, 41, 0
11, 44460, Note_on_c, 7, 41, 80
11, 44508, Note_on_c, 7, 41, 0
11, 44520, Note_on_c, 7, 41, 80
11, 44568, Note_on_c, 7, 41, 0
11, 44580, Note_on_c, 7, 41, 80
11, 44628, Note_on_c, 7, 41, 0
11, 44640, Note_on_c, 7, 41, 80
11, 44928, Note_on_c, 7, 41, 0
11, 44940, Note_on_c, 7, 41, 80
11, 44988, Note_on_c, 7, 41, 0
11, 45000, Note_on_c, 7, 41, 80
11, 45048, Note_on_c, 7, 41, 0
11, 45060, Note_on_c, 7, 41, 80
11, 45108, Note_on_c, 7, 41, 0
11, 45120, Note_on_c, 7, 41, 127
11, 45264, Note_on_c, 7, 41, 0
11, 45300, Note_on_c, 7, 41, 116
11, 45348, Note_on_c, 7, 41, 0
11, 45360, Note_on_c, 7, 41, 110
11, 45504, Note_on_c, 7, 41, 0
11, 45540, Note_on_c, 7, 41, 109
11, 45588, Note_on_c, 7, 41, 0
11, 45600, Note_on_c, 7, 41, 105
11, 45648, Note_on_c, 7, 41, 0
11, 51840, Note_on_c, 7, 57, 123
11, 51888, Note_on_c, 7, 57, 0
11, 51900, Note_on_c, 7, 55, 127
11, 51948, Note_on_c, 7, 55, 0
11, 51960, Note_on_c, 7, 53, 118
11, 52008, Note_on_c, 7, 53, 0
11, 52020, Note_on_c, 7, 50, 107
11, 52068, Note_on_c, 7, 50, 0
11, 52080, Note_on_c, 7, 43, 123
11, 52128, Note_on_c, 7, 43, 0
11, 52140, Note_on_c, 7, 53, 112
11, 52188, Note_on_c, 7, 53, 0
11, 52200, Note_on_c, 7, 50, 112
11, 52248, Note_on_c, 7, 50, 0
11, 52260, Note_on_c, 7, 43, 114
11, 52308, Note_on_c, 7, 43, 0
11, 52320, Note_on_c, 7, 57, 98
11, 52368, Note_on_c, 7, 57, 0
11, 52380, Note_on_c, 7, 55, 123
11, 52428, Note_on_c, 7, 55, 0
11, 52440, Note_on_c, 7, 52, 127
11, 52488, Note_on_c, 7, 52, 0
11, 52500, Note_on_c, 7, 48, 120
11, 52548, Note_on_c, 7, 48, 0
11, 52560, Note_on_c, 7, 43, 127
11, 52608, Note_on_c, 7, 43, 0
11, 52620, Note_on_c, 7, 52, 103
11, 52668, Note_on_c, 7, 52, 0
11, 52680, Note_on_c, 7, 48, 121
11, 52728, Note_on_c, 7, 48, 0
11, 52740, Note_on_c, 7, 43, 108
11, 52788, Note_on_c, 7, 43, 0
11, 52800, Note_on_c, 7, 43, 116
11, 53232, Note_on_c, 7, 43, 0
11, 53280, Note_on_c, 7, 48, 127
11, 53712, Note_on_c, 7, 48, 0
11, 53760, Note_on_c, 7, 47, 118
11, 53856, Note_on_c, 7, 47, 0
11, 53880, Note_on_c, 7, 47, 125
11, 53976, Note_on_c, 7, 47, 0
11, 54000, Note_on_c, 7, 47, 127
11, 54096, Note_on_c, 7, 47, 0
11, 54120, Note_on_c, 7, 50, 120
11, 54168, Note_on_c, 7, 50, 0
11, 54180, Note_on_c, 7, 47, 127
11, 54228, Note_on_c, 7, 47, 0
11, 54240, Note_on_c, 7, 48, 123
11, 54336, Note_on_c, 7, 48, 0
11, 54360, Note_on_c, 7, 48, 109
11, 54456, Note_on_c, 7, 48, 0
11, 54480, Note_on_c, 7, 48, 127
11, 54576, Note_on_c, 7, 48, 0
11, 54600, Note_on_c, 7, 52, 50
11, 54648, Note_on_c, 7, 52, 0
11, 54660, Note_on_c, 7, 48, 112
11, 54708, Note_on_c, 7, 48, 0
11, 54720, Note_on_c, 7, 50, 127
11, 54816, Note_on_c, 7, 50, 0
11, 54840, Note_on_c, 7, 50, 97
11, 54936, Note_on_c, 7, 50, 0
11, 54960, Note_on_c, 7, 50, 123
11, 55056, Note_on_c, 7, 50, 0
11, 55080, Note_on_c, 7, 53, 105
11, 55128, Note_on_c, 7, 53, 0
11, 55140, Note_on_c, 7, 50, 114
11, 55188, Note_on_c, 7, 50, 0
11, 55200, Note_on_c, 7, 48, 104
11, 55872, Note_on_c, 7, 48, 0
11, 55920, Note_on_c, 7, 41, 127
11, 55968, Note_on_c, 7, 41, 0
11, 56160, Note_on_c, 7, 41, 121
11, 56352, Note_on_c, 7, 41, 0
11, 56400, Note_on_c, 7, 48, 123
11, 56592, Note_on_c, 7, 48, 0
11, 56640, Note_on_c, 7, 43, 125
11, 56832, Note_on_c, 7, 43, 0
11, 56880, Note_on_c, 7, 48, 127
11, 57552, Note_on_c, 7, 48, 0
11, 57600, Note_on_c, 7, 41, 127
11, 57648, Note_on_c, 7, 41, 0
11, 57840, Note_on_c, 7, 41, 127
11, 58032, Note_on_c, 7, 41, 0
11, 58080, Note_on_c, 7, 48, 123
11, 58272, Note_on_c, 7, 48, 0
11, 58320, Note_on_c, 7, 43, 110
11, 58512, Note_on_c, 7, 43, 0
11, 58560, Note_on_c, 7, 48, 127
11, 58656, Note_on_c, 7, 48, 0
11, 58680, Note_on_c, 7, 48, 127
11, 58776, Note_on_c, 7, 48, 0
11, 58800, Note_on_c, 7, 41, 112
11, 58896, Note_on_c, 7, 41, 0
11, 58920, Note_on_c, 7, 41, 112
11, 59016, Note_on_c, 7, 41, 0
11, 59040, Note_on_c, 7, 48, 109
11, 59136, Note_on_c, 7, 48, 0
11, 59160, Note_on_c, 7, 48, 127
11, 59256, Note_on_c, 7, 48, 0
11, 59280, Note_on_c, 7, 43, 105
11, 59376, Note_on_c, 7, 43, 0
11, 59400, Note_on_c, 7, 43, 110
11, 59496, Note_on_c, 7, 43, 0
11, 59520, Note_on_c, 7, 48, 127
11, 59552, Note_on_c, 7, 48, 0
11, 59560, Note_on_c, 7, 48, 127
11, 59592, Note_on_c, 7, 48, 0
11, 59600, Note_on_c, 7, 48, 127
11, 59632, Note_on_c, 7, 48, 0
11, 59640, Note_on_c, 7, 48, 127
11, 59672, Note_on_c, 7, 48, 0
11, 59680, Note_on_c, 7, 50, 127
11, 59712, Note_on_c, 7, 50, 0
11, 59720, Note_on_c, 7, 52, 120
11, 59752, Note_on_c, 7, 52, 0
11, 59760, Note_on_c, 7, 53, 127
11, 59792, Note_on_c, 7, 53, 0
11, 59800, Note_on_c, 7, 53, 127
11, 59832, Note_on_c, 7, 53, 0
11, 59840, Note_on_c, 7, 53, 127
11, 59872, Note_on_c, 7, 53, 0
11, 59880, Note_on_c, 7, 57, 121
11, 59912, Note_on_c, 7, 57, 0
11, 59920, Note_on_c, 7, 57, 127
11, 59952, Note_on_c, 7, 57, 0
11, 59960, Note_on_c, 7, 57, 127
11, 59992, Note_on_c, 7, 57, 0
11, 60000, Note_on_c, 7, 60, 127
11, 60032, Note_on_c, 7, 60, 0
11, 60040, Note_on_c, 7, 60, 127
11, 60072, Note_on_c, 7, 60, 0
11, 60080, Note_on_c, 7, 60, 123
11, 60112, Note_on_c, 7, 60, 0
11, 60120, Note_on_c, 7, 64, 107
11, 60152, Note_on_c, 7, 64, 0
11, 60160, Note_on_c, 7, 64, 120
11, 60192, Note_on_c, 7, 64, 0
11, 60200, Note_on_c, 7, 64, 107
11, 60232, Note_on_c, 7, 64, 0
11, 60240, Note_on_c, 7, 67, 121
11, 60272, Note_on_c, 7, 67, 0
11, 60280, Note_on_c, 7, 43, 103
11, 60312, Note_on_c, 7, 43, 0
11, 60320, Note_on_c, 7, 43, 111
11, 60352, Note_on_c, 7, 43, 0
11, 60360, Note_on_c, 7, 43, 118
11, 60392, Note_on_c, 7, 43, 0
11, 60400, Note_on_c, 7, 43, 101
11, 60432, Note_on_c, 7, 43, 0
11, 60440, Note_on_c, 7, 43, 107
11, 60472, Note_on_c, 7, 43, 0
11, 60480, Note_on_c, 7, 48, 110
11, 60512, Note_on_c, 7, 48, 0
11, 60520, Note_on_c, 7, 48, 127
11, 60552, Note_on_c, 7, 48, 0
11, 60560, Note_on_c, 7, 48, 127
11, 60592, Note_on_c, 7, 48, 0
11, 60600, Note_on_c, 7, 48, 109
11, 60992, Note_on_c, 7, 48, 0
11, 61000, Note_on_c, 7, 48, 123
11, 61032, Note_on_c, 7, 48, 0
11, 61040, Note_on_c, 7, 48, 127
11, 61072, Note_on_c, 7, 48, 0
11, 61080, Note_on_c, 7, 48, 117
11, 61472, Note_on_c, 7, 48, 0
11, 61480, Note_on_c, 7, 48, 127
11, 61512, Note_on_c, 7, 48, 0
11, 61520, Note_on_c, 7, 48, 123
11, 61552, Note_on_c, 7, 48, 0
11, 61560, Note_on_c, 7, 48, 120
11, 61952, Note_on_c, 7, 48, 0
11, 61960, Note_on_c, 7, 48, 127
11, 61992, Note_on_c, 7, 48, 0
11, 62000, Note_on_c, 7, 48, 127
11, 62032, Note_on_c, 7, 48, 0
11, 62040, Note_on_c, 7, 48, 127
11, 62432, Note_on_c, 7, 48, 0
11, 62440, Note_on_c, 7, 48, 127
11, 62472, Note_on_c, 7, 48, 0
11, 62480, Note_on_c, 7, 48, 127
11, 62512, Note_on_c, 7, 48, 0
11, 62520, Note_on_c, 7, 48, 127
11, 62672, Note_on_c, 7, 48, 0
11, 62680, Note_on_c, 7, 48, 127
11, 62712, Note_on_c, 7, 48, 0
11, 62720, Note_on_c, 7, 48, 127
11, 62752, Note_on_c, 7, 48, 0
11, 62760, Note_on_c, 7, 48, 127
11, 62912, Note_on_c, 7, 48, 0
11, 62920, Note_on_c, 7, 48, 127
11, 62952, Note_on_c, 7, 48, 0
11, 62960, Note_on_c, 7, 48, 127
11, 62992, Note_on_c, 7, 48, 0
11, 63000, Note_on_c, 7, 48, 127
11, 63152, Note_on_c, 7, 48, 0
11, 63160, Note_on_c, 7, 48, 117
11, 63192, Note_on_c, 7, 48, 0
11, 63200, Note_on_c, 7, 48, 125
11, 63232, Note_on_c, 7, 48, 0
11, 63240, Note_on_c, 7, 48, 127
11, 63408, Note_on_c, 7, 48, 0
11, 69060, Note_on_c, 7, 53, 104
11, 69108, Note_on_c, 7, 53, 0
11, 69120, Note_on_c, 7, 46, 115
11, 69216, Note_on_c, 7, 46, 0
11, 69360, Note_on_c, 7, 46, 115
11, 69456, Note_on_c, 7, 46, 0
11, 69600, Note_on_c, 7, 46, 115
11, 69696, Note_on_c, 7, 46, 0
11, 69840, Note_on_c, 7, 46, 115
11, 69936, Note_on_c, 7, 46, 0
11, 70080, Note_on_c, 7, 46, 115
11, 70176, Note_on_c, 7, 46, 0
11, 70320, Note_on_c, 7, 46, 115
11, 70416, Note_on_c, 7, 46, 0
11, 70560, Note_on_c, 7, 46, 115
11, 70656, Note_on_c, 7, 46, 0
11, 70800, Note_on_c, 7, 46, 115
11, 70896, Note_on_c, 7, 46, 0
11, 71040, Note_on_c, 7, 46, 115
11, 71136, Note_on_c, 7, 46, 0
11, 71280, Note_on_c, 7, 46, 115
11, 71376, Note_on_c, 7, 46, 0
11, 71520, Note_on_c, 7, 46, 115
11, 71616, Note_on_c, 7, 46, 0
11, 71760, Note_on_c, 7, 46, 115
11, 71856, Note_on_c, 7, 46, 0
11, 72000, Note_on_c, 7, 50, 118
11, 72096, Note_on_c, 7, 50, 0
11, 72240, Note_on_c, 7, 50, 118
11, 72336, Note_on_c, 7, 50, 0
11, 72480, Note_on_c, 7, 50, 118
11, 72576, Note_on_c, 7, 50, 0
11, 72720, Note_on_c, 7, 50, 118
11, 72816, Note_on_c, 7, 50, 0
11, 72960, Note_on_c, 7, 50, 118
11, 73056, Note_on_c, 7, 50, 0
11, 73200, Note_on_c, 7, 50, 118
11, 73296, Note_on_c, 7, 50, 0
11, 73440, Note_on_c, 7, 50, 118
11, 73536, Note_on_c, 7, 50, 0
11, 73680, Note_on_c, 7, 50, 118
11, 73776, Note_on_c, 7, 50, 0
11, 73920, Note_on_c, 7, 50, 118
11, 74016, Note_on_c, 7, 50, 0
11, 74160, Note_on_c, 7, 50, 118
11, 74256, Note_on_c, 7, 50, 0
11, 74400, Note_on_c, 7, 50, 118
11, 74496, Note_on_c, 7, 50, 0
11, 74640, Note_on_c, 7, 50, 118
11, 74736, Note_on_c, 7, 50, 0
11, 74880, Note_on_c, 7, 50, 117
11, 74928, Note_on_c, 7, 50, 0
11, 74940, Note_on_c, 7, 45, 127
11, 74964, Note_on_c, 7, 45, 0
11, 74970, Note_on_c, 7, 43, 127
11, 74994, Note_on_c, 7, 43, 0
11, 75000, Note_on_c, 7, 42, 121
11, 75048, Note_on_c, 7, 42, 0
11, 75060, Note_on_c, 7, 38, 127
11, 75108, Note_on_c, 7, 38, 0
11, 75120, Note_on_c, 7, 50, 117
11, 75168, Note_on_c, 7, 50, 0
11, 75180, Note_on_c, 7, 45, 127
11, 75204, Note_on_c, 7, 45, 0
11, 75210, Note_on_c, 7, 43, 127
11, 75234, Note_on_c, 7, 43, 0
11, 75240, Note_on_c, 7, 42, 121
11, 75288, Note_on_c, 7, 42, 0
11, 75300, Note_on_c, 7, 38, 127
11, 75348, Note_on_c, 7, 38, 0
11, 75360, Note_on_c, 7, 50, 117
11, 75408, Note_on_c, 7, 50, 0
11, 75420, Note_on_c, 7, 45, 127
11, 75444, Note_on_c, 7, 45, 0
11, 75450, Note_on_c, 7, 43, 127
11, 75474, Note_on_c, 7, 43, 0
11, 75480, Note_on_c, 7, 42, 121
11, 75528, Note_on_c, 7, 42, 0
11, 75540, Note_on_c, 7, 38, 127
11, 75588, Note_on_c, 7, 38, 0
11, 75600, Note_on_c, 7, 50, 117
11, 75648, Note_on_c, 7, 50, 0
11, 75660, Note_on_c, 7, 45, 127
11, 75684, Note_on_c, 7, 45, 0
11, 75690, Note_on_c, 7, 43, 127
11, 75714, Note_on_c, 7, 43, 0
11, 75720, Note_on_c, 7, 42, 121
11, 75768, Note_on_c, 7, 42, 0
11, 75780, Note_on_c, 7, 38, 127
11, 75828, Note_on_c, 7, 38, 0
11, 75840, Note_on_c, 7, 50, 117
11, 75888, Note_on_c, 7, 50, 0
11, 75900, Note_on_c, 7, 45, 127
11, 75924, Note_on_c, 7, 45, 0
11, 75930, Note_on_c, 7, 43, 127
11, 75954, Note_on_c, 7, 43, 0
11, 75960, Note_on_c, 7, 42, 121
11, 76008, Note_on_c, 7, 42, 0
11, 76020, Note_on_c, 7, 38, 127
11, 76068, Note_on_c, 7, 38, 0
11, 76320, Note_on_c, 7, 50, 117
11, 76368, Note_on_c, 7, 50, 0
11, 76380, Note_on_c, 7, 45, 127
11, 76404, Note_on_c, 7, 45, 0
11, 76410, Note_on_c, 7, 43, 127
11, 76434, Note_on_c, 7, 43, 0
11, 76440, Note_on_c, 7, 42, 121
11, 76488, Note_on_c, 7, 42, 0
11, 76500, Note_on_c, 7, 38, 127
11, 76548, Note_on_c, 7, 38, 0
11, 80160, Note_on_c, 7, 43, 100
11, 80256, Note_on_c, 7, 43, 0
11, 80400, Note_on_c, 7, 43, 100
11, 80496, Note_on_c, 7, 43, 0
11, 80640, Note_on_c, 7, 43, 100
11, 80736, Note_on_c, 7, 43, 0
11, 80880, Note_on_c, 7, 43, 100
11, 80976, Note_on_c, 7, 43, 0
11, 81120, Note_on_c, 7, 43, 100
11, 81216, Note_on_c, 7, 43, 0
11, 81360, Note_on_c, 7, 43, 100
11, 81456, Note_on_c, 7, 43, 0
11, 81600, Note_on_c, 7, 43, 100
11, 81696, Note_on_c, 7, 43, 0
11, 81840, Note_on_c, 7, 43, 100
11, 81936, Note_on_c, 7, 43, 0
11, 82080, Note_on_c, 7, 43, 100
11, 82176, Note_on_c, 7, 43, 0
11, 82320, Note_on_c, 7, 43, 100
11, 82416, Note_on_c, 7, 43, 0
11, 82560, Note_on_c, 7, 43, 100
11, 82656, Note_on_c, 7, 43, 0
11, 82800, Note_on_c, 7, 43, 100
11, 82896, Note_on_c, 7, 43, 0
11, 83040, Note_on_c, 7, 40, 127
11, 83136, Note_on_c, 7, 40, 0
11, 83280, Note_on_c, 7, 40, 127
11, 83376, Note_on_c, 7, 40, 0
11, 83520, Note_on_c, 7, 40, 127
11, 83616, Note_on_c, 7, 40, 0
11, 83760, Note_on_c, 7, 40, 127
11, 83856, Note_on_c, 7, 40, 0
11, 84000, Note_on_c, 7, 40, 127
11, 84096, Note_on_c, 7, 40, 0
11, 84240, Note_on_c, 7, 40, 127
11, 84336, Note_on_c, 7, 40, 0
11, 84480, Note_on_c, 7, 40, 127
11, 84576, Note_on_c, 7, 40, 0
11, 84720, Note_on_c, 7, 40, 127
11, 84816, Note_on_c, 7, 40, 0
11, 84960, Note_on_c, 7, 40, 127
11, 85056, Note_on_c, 7, 40, 0
11, 85200, Note_on_c, 7, 40, 127
11, 85296, Note_on_c, 7, 40, 0
11, 85440, Note_on_c, 7, 40, 127
11, 85536, Note_on_c, 7, 40, 0
11, 85680, Note_on_c, 7, 40, 127
11, 85776, Note_on_c, 7, 40, 0
11, 85920, Note_on_c, 7, 52, 117
11, 85968, Note_on_c, 7, 52, 0
11, 85980, Note_on_c, 7, 47, 127
11, 86004, Note_on_c, 7, 47, 0
11, 86010, Note_on_c, 7, 45, 127
11, 86034, Note_on_c, 7, 45, 0
11, 86040, Note_on_c, 7, 44, 121
11, 86088, Note_on_c, 7, 44, 0
11, 86100, Note_on_c, 7, 40, 127
11, 86148, Note_on_c, 7, 40, 0
11, 86160, Note_on_c, 7, 52, 117
11, 86208, Note_on_c, 7, 52, 0
11, 86220, Note_on_c, 7, 47, 127
11, 86244, Note_on_c, 7, 47, 0
11, 86250, Note_on_c, 7, 45, 127
11, 86274, Note_on_c, 7, 45, 0
11, 86280, Note_on_c, 7, 44, 121
11, 86328, Note_on_c, 7, 44, 0
11, 86340, Note_on_c, 7, 40, 127
11, 86388, Note_on_c, 7, 40, 0
11, 86400, Note_on_c, 7, 52, 117
11, 86448, Note_on_c, 7, 52, 0
11, 86460, Note_on_c, 7, 47, 127
11, 86484, Note_on_c, 7, 47, 0
11, 86490, Note_on_c, 7, 45, 127
11, 86514, Note_on_c, 7, 45, 0
11, 86520, Note_on_c, 7, 44, 121
11, 86568, Note_on_c, 7, 44, 0
11, 86580, Note_on_c, 7, 40, 127
11, 86628, Note_on_c, 7, 40, 0
11, 86640, Note_on_c, 7, 52, 117
11, 86688, Note_on_c, 7, 52, 0
11, 86700, Note_on_c, 7, 47, 127
11, 86724, Note_on_c, 7, 47, 0
11, 86730, Note_on_c, 7, 45, 127
11, 86754, Note_on_c, 7, 45, 0
11, 86760, Note_on_c, 7, 44, 121
11, 86808, Note_on_c, 7, 44, 0
11, 86820, Note_on_c, 7, 40, 127
11, 86868, Note_on_c, 7, 40, 0
11, 86880, Note_on_c, 7, 52, 117
11, 86928, Note_on_c, 7, 52, 0
11, 86940, Note_on_c, 7, 47, 127
11, 86964, Note_on_c, 7, 47, 0
11, 86970, Note_on_c, 7, 45, 127
11, 86994, Note_on_c, 7, 45, 0
11, 87000, Note_on_c, 7, 44, 121
11, 87048, Note_on_c, 7, 44, 0
11, 87060, Note_on_c, 7, 40, 127
11, 87108, Note_on_c, 7, 40, 0
11, 87360, Note_on_c, 7, 52, 117
11, 87408, Note_on_c, 7, 52, 0
11, 87420, Note_on_c, 7, 47, 127
11, 87444, Note_on_c, 7, 47, 0
11, 87450, Note_on_c, 7, 45, 127
11, 87474, Note_on_c, 7, 45, 0
11, 87480, Note_on_c, 7, 44, 121
11, 87528, Note_on_c, 7, 44, 0
11, 87540, Note_on_c, 7, 40, 127
11, 87588, Note_on_c, 7, 40, 0
11, 96000, Note_on_c, 7, 48, 125
11, 96096, Note_on_c, 7, 48, 0
11, 96120, Note_on_c, 7, 52, 127
11, 96216, Note_on_c, 7, 52, 0
11, 96240, Note_on_c, 7, 50, 127
11, 96384, Note_on_c, 7, 50, 0
11, 96420, Note_on_c, 7, 48, 127
11, 96468, Note_on_c, 7, 48, 0
11, 96480, Note_on_c, 7, 53, 111
11, 96576, Note_on_c, 7, 53, 0
11, 96600, Note_on_c, 7, 52, 127
11, 96696, Note_on_c, 7, 52, 0
11, 96720, Note_on_c, 7, 50, 127
11, 96768, Note_on_c, 7, 50, 0
11, 96780, Note_on_c, 7, 50, 121
11, 96804, Note_on_c, 7, 50, 0
11, 96810, Note_on_c, 7, 52, 109
11, 96834, Note_on_c, 7, 52, 0
11, 96840, Note_on_c, 7, 53, 103
11, 96888, Note_on_c, 7, 53, 0
11, 96900, Note_on_c, 7, 50, 127
11, 96948, Note_on_c, 7, 50, 0
11, 96960, Note_on_c, 7, 52, 123
11, 97056, Note_on_c, 7, 52, 0
11, 97080, Note_on_c, 7, 55, 109
11, 97176, Note_on_c, 7, 55, 0
11, 97200, Note_on_c, 7, 53, 89
11, 97344, Note_on_c, 7, 53, 0
11, 97380, Note_on_c, 7, 52, 127
11, 97428, Note_on_c, 7, 52, 0
11, 97440, Note_on_c, 7, 57, 111
11, 97536, Note_on_c, 7, 57, 0
11, 97560, Note_on_c, 7, 55, 118
11, 97656, Note_on_c, 7, 55, 0
11, 97680, Note_on_c, 7, 53, 115
11, 97728, Note_on_c, 7, 53, 0
11, 97740, Note_on_c, 7, 53, 115
11, 97764, Note_on_c, 7, 53, 0
11, 97770, Note_on_c, 7, 55, 116
11, 97794, Note_on_c, 7, 55, 0
11, 97800, Note_on_c, 7, 57, 103
11, 97848, Note_on_c, 7, 57, 0
11, 97860, Note_on_c, 7, 53, 105
11, 97908, Note_on_c, 7, 53, 0
11, 97920, Note_on_c, 7, 58, 113
11, 98016, Note_on_c, 7, 58, 0
11, 98040, Note_on_c, 7, 57, 104
11, 98136, Note_on_c, 7, 57, 0
11, 98160, Note_on_c, 7, 55, 118
11, 98208, Note_on_c, 7, 55, 0
11, 98220, Note_on_c, 7, 52, 103
11, 98244, Note_on_c, 7, 52, 0
11, 98250, Note_on_c, 7, 53, 109
11, 98274, Note_on_c, 7, 53, 0
11, 98280, Note_on_c, 7, 55, 113
11, 98328, Note_on_c, 7, 55, 0
11, 98340, Note_on_c, 7, 57, 99
11, 98388, Note_on_c, 7, 57, 0
11, 98400, Note_on_c, 7, 58, 107
11, 98496, Note_on_c, 7, 58, 0
11, 98520, Note_on_c, 7, 57, 121
11, 98616, Note_on_c, 7, 57, 0
11, 98640, Note_on_c, 7, 55, 127
11, 98688, Note_on_c, 7, 55, 0
11, 98700, Note_on_c, 7, 52, 127
11, 98724, Note_on_c, 7, 52, 0
11, 98730, Note_on_c, 7, 53, 107
11, 98754, Note_on_c, 7, 53, 0
11, 98760, Note_on_c, 7, 55, 127
11, 98808, Note_on_c, 7, 55, 0
11, 98820, Note_on_c, 7, 57, 112
11, 98868, Note_on_c, 7, 57, 0
11, 98880, Note_on_c, 7, 46, 118
11, 99552, Note_on_c, 7, 46, 0
11, 99600, Note_on_c, 7, 46, 80
11, 99792, Note_on_c, 7, 46, 0
11, 99840, Note_on_c, 7, 41, 116
11, 100512, Note_on_c, 7, 41, 0
11, 100560, Note_on_c, 7, 48, 110
11, 100752, Note_on_c, 7, 48, 0
11, 105840, Note_on_c, 7, 48, 117
11, 105984, Note_on_c, 7, 48, 0
11, 106020, Note_on_c, 7, 48, 120
11, 106068, Note_on_c, 7, 48, 0
11, 106080, Note_on_c, 7, 48, 120
11, 106224, Note_on_c, 7, 48, 0
11, 106260, Note_on_c, 7, 48, 112
11, 106308, Note_on_c, 7, 48, 0
11, 106320, Note_on_c, 7, 48, 118
11, 106464, Note_on_c, 7, 48, 0
11, 106500, Note_on_c, 7, 48, 121
11, 106548, Note_on_c, 7, 48, 0
11, 106560, Note_on_c, 7, 48, 127
11, 106592, Note_on_c, 7, 48, 0
11, 106600, Note_on_c, 7, 60, 107
11, 106632, Note_on_c, 7, 60, 0
11, 106640, Note_on_c, 7, 58, 115
11, 106672, Note_on_c, 7, 58, 0
11, 106680, Note_on_c, 7, 57, 112
11, 106712, Note_on_c, 7, 57, 0
11, 106720, Note_on_c, 7, 55, 101
11, 106752, Note_on_c, 7, 55, 0
11, 106760, Note_on_c, 7, 53, 127
11, 106792, Note_on_c, 7, 53, 0
11, 106800, Note_on_c, 7, 52, 118
11, 106832, Note_on_c, 7, 52, 0
11, 106840, Note_on_c, 7, 57, 93
11, 106872, Note_on_c, 7, 57, 0
11, 106880, Note_on_c, 7, 55, 127
11, 106912, Note_on_c, 7, 55, 0
11, 106920, Note_on_c, 7, 53, 112
11, 106952, Note_on_c, 7, 53, 0
11, 106960, Note_on_c, 7, 52, 117
11, 106992, Note_on_c, 7, 52, 0
11, 107000, Note_on_c, 7, 50, 120
11, 107032, Note_on_c, 7, 50, 0
11, 107040, Note_on_c, 7, 48, 127
11, 107072, Note_on_c, 7, 48, 0
11, 107080, Note_on_c, 7, 53, 97
11, 107112, Note_on_c, 7, 53, 0
11, 107120, Note_on_c, 7, 52, 112
11, 107152, Note_on_c, 7, 52, 0
11, 107160, Note_on_c, 7, 50, 105
11, 107192, Note_on_c, 7, 50, 0
11, 107200, Note_on_c, 7, 48, 102
11, 107232, Note_on_c, 7, 48, 0
11, 107240, Note_on_c, 7, 46, 86
11, 107272, Note_on_c, 7, 46, 0
11, 107280, Note_on_c, 7, 45, 108
11, 107312, Note_on_c, 7, 45, 0
11, 107320, Note_on_c, 7, 50, 108
11, 107352, Note_on_c, 7, 50, 0
11, 107360, Note_on_c, 7, 48, 116
11, 107392, Note_on_c, 7, 48, 0
11, 107400, Note_on_c, 7, 46, 103
11, 107432, Note_on_c, 7, 46, 0
11, 107440, Note_on_c, 7, 45, 117
11, 107472, Note_on_c, 7, 45, 0
11, 107480, Note_on_c, 7, 43, 112
11, 107512, Note_on_c, 7, 43, 0
11, 107520, Note_on_c, 7, 41, 127
11, 107568, Note_on_c, 7, 41, 0
11, 107580, Note_on_c, 7, 41, 112
11, 107628, Note_on_c, 7, 41, 0
11, 107640, Note_on_c, 7, 41, 127
11, 107688, Note_on_c, 7, 41, 0
11, 107700, Note_on_c, 7, 41, 127
11, 107748, Note_on_c, 7, 41, 0
11, 108960, Note_on_c, 7, 48, 121
11, 109152, Note_on_c, 7, 48, 0
11, 109200, Note_on_c, 7, 48, 127
11, 109392, Note_on_c, 7, 48, 0
11, 109440, Note_on_c, 7, 48, 127
11, 109632, Note_on_c, 7, 48, 0
11, 109680, Note_on_c, 7, 48, 127
11, 109872, Note_on_c, 7, 48, 0
11, 109920, Note_on_c, 7, 41, 109
11, 110208, Note_on_c, 7, 41, 0
11, 110220, Note_on_c, 7, 41, 114
11, 110268, Note_on_c, 7, 41, 0
11, 110280, Note_on_c, 7, 41, 121
11, 110328, Note_on_c, 7, 41, 0
11, 110340, Note_on_c, 7, 41, 123
11, 110388, Note_on_c, 7, 41, 0
11, 110400, Note_on_c, 7, 41, 121
11, 110688, Note_on_c, 7, 41, 0
11, 110700, Note_on_c, 7, 41, 121
11, 110748, Note_on_c, 7, 41, 0
11, 110760, Note_on_c, 7, 41, 107
11, 110808, Note_on_c, 7, 41, 0
11, 110820, Note_on_c, 7, 41, 127
11, 110868, Note_on_c, 7, 41, 0
11, 110880, Note_on_c, 7, 41, 123
11, 111024, Note_on_c, 7, 41, 0
11, 111060, Note_on_c, 7, 41, 114
11, 111108, Note_on_c, 7, 41, 0
11, 111120, Note_on_c, 7, 41, 123
11, 111264, Note_on_c, 7, 41, 0
11, 111300, Note_on_c, 7, 41, 118
11, 111348, Note_on_c, 7, 41, 0
11, 111360, Note_on_c, 7, 41, 80
11, 111504, Note_on_c, 7, 41, 0
11, 111540, Note_on_c, 7, 41, 80
11, 111588, Note_on_c, 7, 41, 0
11, 111600, Note_on_c, 7, 41, 102
11, 111648, Note_on_c, 7, 41, 0
11, 118800, Note_on_c, 7, 60, 112
11, 118848, Note_on_c, 7, 60, 0
11, 118860, Note_on_c, 7, 58, 87
11, 118908, Note_on_c, 7, 58, 0
11, 118920, Note_on_c, 7, 55, 120
11, 118968, Note_on_c, 7, 55, 0
11, 118980, Note_on_c, 7, 52, 103
11, 119028, Note_on_c, 7, 52, 0
11, 119040, Note_on_c, 7, 48, 120
11, 119088, Note_on_c, 7, 48, 0
11, 119100, Note_on_c, 7, 58, 79
11, 119148, Note_on_c, 7, 58, 0
11, 119160, Note_on_c, 7, 55, 113
11, 119208, Note_on_c, 7, 55, 0
11, 119220, Note_on_c, 7, 48, 105
11, 119268, Note_on_c, 7, 48, 0
11, 119280, Note_on_c, 7, 62, 125
11, 119328, Note_on_c, 7, 62, 0
11, 119340, Note_on_c, 7, 60, 116
11, 119388, Note_on_c, 7, 60, 0
11, 119400, Note_on_c, 7, 57, 78
11, 119448, Note_on_c, 7, 57, 0
11, 119460, Note_on_c, 7, 53, 125
11, 119508, Note_on_c, 7, 53, 0
11, 119520, Note_on_c, 7, 48, 102
11, 119568, Note_on_c, 7, 48, 0
11, 119580, Note_on_c, 7, 57, 101
11, 119628, Note_on_c, 7, 57, 0
11, 119640, Note_on_c, 7, 53, 121
11, 119688, Note_on_c, 7, 53, 0
11, 119700, Note_on_c, 7, 48, 127
11, 119748, Note_on_c, 7, 48, 0
11, 119760, Note_on_c, 7, 48, 107
11, 120192, Note_on_c, 7, 48, 0
11, 120240, Note_on_c, 7, 53, 99
11, 120672, Note_on_c, 7, 53, 0
11, 120720, Note_on_c, 7, 52, 125
11, 120816, Note_on_c, 7, 52, 0
11, 120840, Note_on_c, 7, 52, 121
11, 120936, Note_on_c, 7, 52, 0
11, 120960, Note_on_c, 7, 52, 127
11, 121056, Note_on_c, 7, 52, 0
11, 121080, Note_on_c, 7, 55, 100
11, 121128, Note_on_c, 7, 55, 0
11, 121140, Note_on_c, 7, 52, 121
11, 121188, Note_on_c, 7, 52, 0
11, 121200, Note_on_c, 7, 53, 125
11, 121296, Note_on_c, 7, 53, 0
11, 121320, Note_on_c, 7, 53, 127
11, 121416, Note_on_c, 7, 53, 0
11, 121440, Note_on_c, 7, 53, 125
11, 121536, Note_on_c, 7, 53, 0
11, 121560, Note_on_c, 7, 57, 109
11, 121608, Note_on_c, 7, 57, 0
11, 121620, Note_on_c, 7, 53, 121
11, 121668, Note_on_c, 7, 53, 0
11, 121680, Note_on_c, 7, 55, 118
11, 121776, Note_on_c, 7, 55, 0
11, 121800, Note_on_c, 7, 55, 127
11, 121896, Note_on_c, 7, 55, 0
11, 121920, Note_on_c, 7, 55, 116
11, 122016, Note_on_c, 7, 55, 0
11, 122040, Note_on_c, 7, 58, 103
11, 122088, Note_on_c, 7, 58, 0
11, 122100, Note_on_c, 7, 55, 125
11, 122148, Note_on_c, 7, 55, 0
11, 122160, Note_on_c, 7, 53, 125
11, 122832, Note_on_c, 7, 53, 0
11, 122880, Note_on_c, 7, 46, 121
11, 122928, Note_on_c, 7, 46, 0
11, 123120, Note_on_c, 7, 46, 121
11, 123312, Note_on_c, 7, 46, 0
11, 123360, Note_on_c, 7, 53, 110
11, 123552, Note_on_c, 7, 53, 0
11, 123600, Note_on_c, 7, 48, 127
11, 123792, Note_on_c, 7, 48, 0
11, 123840, Note_on_c, 7, 53, 110
11, 124512, Note_on_c, 7, 53, 0
11, 124560, Note_on_c, 7, 46, 100
11, 124608, Note_on_c, 7, 46, 0
11, 124800, Note_on_c, 7, 46, 121
11, 124992, Note_on_c, 7, 46, 0
11, 125040, Note_on_c, 7, 53, 113
11, 125232, Note_on_c, 7, 53, 0
11, 125280, Note_on_c, 7, 48, 125
11, 125472, Note_on_c, 7, 48, 0
11, 125520, Note_on_c, 7, 53, 111
11, 125616, Note_on_c, 7, 53, 0
11, 125640, Note_on_c, 7, 53, 123
11, 125736, Note_on_c, 7, 53, 0
11, 125760, Note_on_c, 7, 46, 111
11, 125856, Note_on_c, 7, 46, 0
11, 125880, Note_on_c, 7, 46, 121
11, 125976, Note_on_c, 7, 46, 0
11, 126000, Note_on_c, 7, 41, 127
11, 126096, Note_on_c, 7, 41, 0
11, 126120, Note_on_c, 7, 41, 127
11, 126216, Note_on_c, 7, 41, 0
11, 126240, Note_on_c, 7, 48, 110
11, 126336, Note_on_c, 7, 48, 0
11, 126360, Note_on_c, 7, 48, 127
11, 126456, Note_on_c, 7, 48, 0
11, 126480, Note_on_c, 7, 41, 94
11, 126512, Note_on_c, 7, 41, 0
11, 126520, Note_on_c, 7, 41, 101
11, 126552, Note_on_c, 7, 41, 0
11, 126560, Note_on_c, 7, 41, 110
11, 126592, Note_on_c, 7, 41, 0
11, 126600, Note_on_c, 7, 41, 103
11, 126632, Note_on_c, 7, 41, 0
11, 126640, Note_on_c, 7, 43, 120
11, 126672, Note_on_c, 7, 43, 0
11, 126680, Note_on_c, 7, 45, 125
11, 126712, Note_on_c, 7, 45, 0
11, 126720, Note_on_c, 7, 46, 115
11, 126752, Note_on_c, 7, 46, 0
11, 126760, Note_on_c, 7, 46, 118
11, 126792, Note_on_c, 7, 46, 0
11, 126800, Note_on_c, 7, 46, 109
11, 126832, Note_on_c, 7, 46, 0
11, 126840, Note_on_c, 7, 50, 127
11, 126872, Note_on_c, 7, 50, 0
11, 126880, Note_on_c, 7, 50, 120
11, 126912, Note_on_c, 7, 50, 0
11, 126920, Note_on_c, 7, 50, 127
11, 126952, Note_on_c, 7, 50, 0
11, 126960, Note_on_c, 7, 53, 109
11, 126992, Note_on_c, 7, 53, 0
11, 127000, Note_on_c, 7, 53, 116
11, 127032, Note_on_c, 7, 53, 0
11, 127040, Note_on_c, 7, 53, 113
11, 127072, Note_on_c, 7, 53, 0
11, 127080, Note_on_c, 7, 57, 113
11, 127112, Note_on_c, 7, 57, 0
11, 127120, Note_on_c, 7, 57, 104
11, 127152, Note_on_c, 7, 57, 0
11, 127160, Note_on_c, 7, 57, 103
11, 127192, Note_on_c, 7, 57, 0
11, 127200, Note_on_c, 7, 60, 111
11, 127232, Note_on_c, 7, 60, 0
11, 127240, Note_on_c, 7, 60, 104
11, 127272, Note_on_c, 7, 60, 0
11, 127280, Note_on_c, 7, 60, 118
11, 127312, Note_on_c, 7, 60, 0
11, 127320, Note_on_c, 7, 48, 123
11, 127352, Note_on_c, 7, 48, 0
11, 127360, Note_on_c, 7, 48, 110
11, 127392, Note_on_c, 7, 48, 0
11, 127400, Note_on_c, 7, 48, 117
11, 127432, Note_on_c, 7, 48, 0
11, 127440, Note_on_c, 7, 53, 127
11, 127472, Note_on_c, 7, 53, 0
11, 127480, Note_on_c, 7, 41, 101
11, 127512, Note_on_c, 7, 41, 0
11, 127520, Note_on_c, 7, 41, 113
11, 127552, Note_on_c, 7, 41, 0
11, 127560, Note_on_c, 7, 41, 102
11, 127952, Note_on_c, 7, 41, 0
11, 127960, Note_on_c, 7, 41, 125
11, 127992, Note_on_c, 7, 41, 0
11, 128000, Note_on_c, 7, 41, 127
11, 128032, Note_on_c, 7, 41, 0
11, 128040, Note_on_c, 7, 41, 117
11, 128432, Note_on_c, 7, 41, 0
11, 128440, Note_on_c, 7, 41, 125
11, 128472, Note_on_c, 7, 41, 0
11, 128480, Note_on_c, 7, 41, 127
11, 128512, Note_on_c, 7, 41, 0
11, 128520, Note_on_c, 7, 41, 117
11, 128912, Note_on_c, 7, 41, 0
11, 128920, Note_on_c, 7, 41, 125
11, 128952, Note_on_c, 7, 41, 0
11, 128960, Note_on_c, 7, 41, 127
11, 128992, Note_on_c, 7, 41, 0
11, 129000, Note_on_c, 7, 41, 117
11, 129400, Note_on_c, 7, 41, 0
11, 129400, Note_on_c, 7, 41, 116
11, 129440, Note_on_c, 7, 41, 0
11, 129440, Note_on_c, 7, 41, 121
11, 129480, Note_on_c, 7, 41, 0
11, 129480, Note_on_c, 7, 41, 120
11, 129632, Note_on_c, 7, 41, 0
11, 129640, Note_on_c, 7, 41, 116
11, 129672, Note_on_c, 7, 41, 0
11, 129680, Note_on_c, 7, 41, 121
11, 129712, Note_on_c, 7, 41, 0
11, 129720, Note_on_c, 7, 41, 120
11, 129872, Note_on_c, 7, 41, 0
11, 129880, Note_on_c, 7, 41, 116
11, 129912, Note_on_c, 7, 41, 0
11, 129920, Note_on_c, 7, 41, 121
11, 129952, Note_on_c, 7, 41, 0
11, 129960, Note_on_c, 7, 41, 120
11, 130112, Note_on_c, 7, 41, 0
11, 130120, Note_on_c, 7, 41, 116
11, 130152, Note_on_c, 7, 41, 0
11, 130160, Note_on_c, 7, 41, 121
11, 130192, Note_on_c, 7, 41, 0
11, 130200, Note_on_c, 7, 41, 120
11, 130352, Note_on_c, 7, 41, 0
11, 130360, Note_on_c, 7, 41, 116
11, 130392, Note_on_c, 7, 41, 0
11, 130400, Note_on_c, 7, 41, 121
11, 130432, Note_on_c, 7, 41, 0
11, 130440, Note_on_c, 7, 41, 120
11, 130592, Note_on_c, 7, 41, 0
11, 130600, Note_on_c, 7, 41, 116
11, 130632, Note_on_c, 7, 41, 0
11, 130640, Note_on_c, 7, 41, 121
11, 130672, Note_on_c, 7, 41, 0
11, 130680, Note_on_c, 7, 41, 120
11, 130832, Note_on_c, 7, 41, 0
11, 130840, Note_on_c, 7, 41, 116
11, 130872, Note_on_c, 7, 41, 0
11, 130880, Note_on_c, 7, 41, 121
11, 130912, Note_on_c, 7, 41, 0
11, 130920, Note_on_c, 7, 41, 120
11, 131072, Note_on_c, 7, 41, 0
11, 131080, Note_on_c, 7, 41, 116
11, 131112, Note_on_c, 7, 41, 0
11, 131120, Note_on_c, 7, 41, 121
11, 131152, Note_on_c, 7, 41, 0
11, 131160, Note_on_c, 7, 41, 120
11, 131328, Note_on_c, 7, 41, 0
11, 134220, Note_on_c, 7, 58, 111
11, 134268, Note_on_c, 7, 58, 0
11, 134280, Note_on_c, 7, 55, 127
11, 134328, Note_on_c, 7, 55, 0
11, 134340, Note_on_c, 7, 51, 97
11, 134388, Note_on_c, 7, 51, 0
11, 134400, Note_on_c, 7, 50, 121
11, 134448, Note_on_c, 7, 50, 0
11, 134460, Note_on_c, 7, 51, 109
11, 134508, Note_on_c, 7, 51, 0
11, 134520, Note_on_c, 7, 53, 123
11, 134568, Note_on_c, 7, 53, 0
11, 134580, Note_on_c, 7, 51, 115
11, 134628, Note_on_c, 7, 51, 0
11, 134640, Note_on_c, 7, 50, 127
11, 134688, Note_on_c, 7, 50, 0
11, 134700, Note_on_c, 7, 48, 125
11, 134748, Note_on_c, 7, 48, 0
11, 134760, Note_on_c, 7, 46, 97
11, 134808, Note_on_c, 7, 46, 0
11, 134820, Note_on_c, 7, 48, 114
11, 134868, Note_on_c, 7, 48, 0
11, 134880, Note_on_c, 7, 45, 98
11, 134928, Note_on_c, 7, 45, 0
11, 134940, Note_on_c, 7, 43, 123
11, 134988, Note_on_c, 7, 43, 0
11, 135000, Note_on_c, 7, 41, 127
11, 135048, Note_on_c, 7, 41, 0
11, 135060, Note_on_c, 7, 53, 121
11, 135108, Note_on_c, 7, 53, 0
11, 135120, Note_on_c, 7, 46, 105
11, 135176, Note_on_c, 7, 46, 0
11, 135360, Note_on_c, 7, 41, 99
11, 135416, Note_on_c, 7, 41, 0
11, 135600, Note_on_c, 7, 46, 127
11, 135632, Note_on_c, 7, 46, 0
11, 135640, Note_on_c, 7, 46, 127
11, 135672, Note_on_c, 7, 46, 0
11, 135680, Note_on_c, 7, 46, 127
11, 135712, Note_on_c, 7, 46, 0
11, 135720, Note_on_c, 7, 46, 126
11, 136112, Note_on_c, 7, 46, 0
11, 136120, Note_on_c, 7, 46, 123
11, 136152, Note_on_c, 7, 46, 0
11, 136160, Note_on_c, 7, 46, 118
11, 136192, Note_on_c, 7, 46, 0
11, 136200, Note_on_c, 7, 46, 109
11, 136592, Note_on_c, 7, 46, 0
11, 136600, Note_on_c, 7, 46, 121
11, 136632, Note_on_c, 7, 46, 0
11, 136640, Note_on_c, 7, 46, 127
11, 136672, Note_on_c, 7, 46, 0
11, 136680, Note_on_c, 7, 46, 105
11, 137072, Note_on_c, 7, 46, 0
11, 137080, Note_on_c, 7, 46, 121
11, 137112, Note_on_c, 7, 46, 0
11, 137120, Note_on_c, 7, 46, 127
11, 137152, Note_on_c, 7, 46, 0
11, 137160, Note_on_c, 7, 46, 121
11, 137552, Note_on_c, 7, 46, 0
11, 137560, Note_on_c, 7, 58, 101
11, 137592, Note_on_c, 7, 58, 0
11, 137600, Note_on_c, 7, 58, 94
11, 137632, Note_on_c, 7, 58, 0
11, 137640, Note_on_c, 7, 58, 94
11, 137792, Note_on_c, 7, 58, 0
11, 137800, Note_on_c, 7, 55, 104
11, 137832, Note_on_c, 7, 55, 0
11, 137840, Note_on_c, 7, 55, 114
11, 137872, Note_on_c, 7, 55, 0
11, 137880, Note_on_c, 7, 55, 106
11, 138032, Note_on_c, 7, 55, 0
11, 138040, Note_on_c, 7, 52, 105
11, 138072, Note_on_c, 7, 52, 0
11, 138080, Note_on_c, 7, 52, 114
11, 138112, Note_on_c, 7, 52, 0
11, 138120, Note_on_c, 7, 52, 107
11, 138272, Note_on_c, 7, 52, 0
11, 138280, Note_on_c, 7, 48, 101
11, 138312, Note_on_c, 7, 48, 0
11, 138320, Note_on_c, 7, 48, 105
11, 138352, Note_on_c, 7, 48, 0
11, 138360, Note_on_c, 7, 48, 111
11, 138456, Note_on_c, 7, 48, 0
11, 138480, Note_on_c, 7, 41, 117
11, 138512, Note_on_c, 7, 41, 0
11, 138520, Note_on_c, 7, 41, 108
11, 138552, Note_on_c, 7, 41, 0
11, 138560, Note_on_c, 7, 41, 121
11, 138592, Note_on_c, 7, 41, 0
11, 138600, Note_on_c, 7, 41, 127
11, 138992, Note_on_c, 7, 41, 0
11, 139000, Note_on_c, 7, 41, 127
11, 139032, Note_on_c, 7, 41, 0
11, 139040, Note_on_c, 7, 41, 121
11, 139072, Note_on_c, 7, 41, 0
11, 139080, Note_on_c, 7, 41, 117
11, 139472, Note_on_c, 7, 41, 0
11, 139480, Note_on_c, 7, 41, 121
11, 139512, Note_on_c, 7, 41, 0
11, 139520, Note_on_c, 7, 41, 127
11, 139552, Note_on_c, 7, 41, 0
11, 139560, Note_on_c, 7, 41, 101
11, 139952, Note_on_c, 7, 41, 0
11, 139960, Note_on_c, 7, 41, 127
11, 139992, Note_on_c, 7, 41, 0
11, 140000, Note_on_c, 7, 41, 127
11, 140032, Note_on_c, 7, 41, 0
11, 140040, Note_on_c, 7, 41, 110
11, 140432, Note_on_c, 7, 41, 0
11, 140440, Note_on_c, 7, 41, 127
11, 140472, Note_on_c, 7, 41, 0
11, 140480, Note_on_c, 7, 41, 127
11, 140512, Note_on_c, 7, 41, 0
11, 140520, Note_on_c, 7, 41, 110
11, 140672, Note_on_c, 7, 41, 0
11, 140680, Note_on_c, 7, 50, 100
11, 140712, Note_on_c, 7, 50, 0
11, 140720, Note_on_c, 7, 50, 114
11, 140752, Note_on_c, 7, 50, 0
11, 140760, Note_on_c, 7, 50, 116
11, 140912, Note_on_c, 7, 50, 0
11, 140920, Note_on_c, 7, 48, 107
11, 140952, Note_on_c, 7, 48, 0
11, 140960, Note_on_c, 7, 48, 102
11, 140992, Note_on_c, 7, 48, 0
11, 141000, Note_on_c, 7, 48, 127
11, 141152, Note_on_c, 7, 48, 0
11, 141160, Note_on_c, 7, 48, 117
11, 141192, Note_on_c, 7, 48, 0
11, 141200, Note_on_c, 7, 48, 123
11, 141232, Note_on_c, 7, 48, 0
11, 141240, Note_on_c, 7, 48, 116
11, 141392, Note_on_c, 7, 48, 0
11, 141400, Note_on_c, 7, 41, 117
11, 141432, Note_on_c, 7, 41, 0
11, 141440, Note_on_c, 7, 41, 117
11, 141472, Note_on_c, 7, 41, 0
11, 141480, Note_on_c, 7, 41, 125
11, 141632, Note_on_c, 7, 41, 0
11, 141640, Note_on_c, 7, 50, 101
11, 141672, Note_on_c, 7, 50, 0
11, 141680, Note_on_c, 7, 50, 114
11, 141712, Note_on_c, 7, 50, 0
11, 141720, Note_on_c, 7, 50, 110
11, 141872, Note_on_c, 7, 50, 0
11, 141880, Note_on_c, 7, 48, 121
11, 141912, Note_on_c, 7, 48, 0
11, 141920, Note_on_c, 7, 48, 123
11, 141952, Note_on_c, 7, 48, 0
11, 141960, Note_on_c, 7, 48, 114
11, 142112, Note_on_c, 7, 48, 0
11, 142120, Note_on_c, 7, 48, 113
11, 142152, Note_on_c, 7, 48, 0
11, 142160, Note_on_c, 7, 48, 114
11, 142192, Note_on_c, 7, 48, 0
11, 142200, Note_on_c, 7, 48, 116
11, 142352, Note_on_c, 7, 48, 0
11, 142360, Note_on_c, 7, 41, 108
11, 142392, Note_on_c, 7, 41, 0
11, 142400, Note_on_c, 7, 41, 117
11, 142432, Note_on_c, 7, 41, 0
11, 142440, Note_on_c, 7, 41, 105
11, 142592, Note_on_c, 7, 41, 0
11, 142600, Note_on_c, 7, 50, 109
11, 142632, Note_on_c, 7, 50, 0
11, 142640, Note_on_c, 7, 50, 111
11, 142672, Note_on_c, 7, 50, 0
11, 142680, Note_on_c, 7, 50, 107
11, 142832, Note_on_c, 7, 50, 0
11, 142840, Note_on_c, 7, 48, 125
11, 142872, Note_on_c, 7, 48, 0
11, 142880, Note_on_c, 7, 48, 121
11, 142912, Note_on_c, 7, 48, 0
11, 142920, Note_on_c, 7, 48, 127
11, 143072, Note_on_c, 7, 48, 0
11, 143080, Note_on_c, 7, 48, 127
11, 143112, Note_on_c, 7, 48, 0
11, 143120, Note_on_c, 7, 48, 127
11, 143152, Note_on_c, 7, 48, 0
11, 143160, Note_on_c, 7, 48, 121
11, 143312, Note_on_c, 7, 48, 0
11, 143320, Note_on_c, 7, 48, 121
11, 143352, Note_on_c, 7, 48, 0
11, 143360, Note_on_c, 7, 48, 121
11, 143392, Note_on_c, 7, 48, 0
11, 143400, Note_on_c, 7, 48, 127
11, 143552, Note_on_c, 7, 48, 0
11, 143560, Note_on_c, 7, 48, 125
11, 143592, Note_on_c, 7, 48, 0
11, 143600, Note_on_c, 7, 48, 127
11, 143632, Note_on_c, 7, 48, 0
11, 143640, Note_on_c, 7, 48, 112
11, 143792, Note_on_c, 7, 48, 0
11, 143800, Note_on_c, 7, 48, 127
11, 143832, Note_on_c, 7, 48, 0
11, 143840, Note_on_c, 7, 48, 125
11, 143872, Note_on_c, 7, 48, 0
11, 143880, Note_on_c, 7, 48, 127
11, 144032, Note_on_c, 7, 48, 0
11, 144040, Note_on_c, 7, 48, 117
11, 144072, Note_on_c, 7, 48, 0
11, 144080, Note_on_c, 7, 48, 127
11, 144112, Note_on_c, 7, 48, 0
11, 144120, Note_on_c, 7, 48, 127
11, 144272, Note_on_c, 7, 48, 0
11, 144280, Note_on_c, 7, 48, 125
11, 144312, Note_on_c, 7, 48, 0
11, 144320, Note_on_c, 7, 48, 127
11, 144352, Note_on_c, 7, 48, 0
11, 144360, Note_on_c, 7, 48, 127
11, 144512, Note_on_c, 7, 48, 0
11, 144520, Note_on_c, 7, 48, 125
11, 144552, Note_on_c, 7, 48, 0
11, 144560, Note_on_c, 7, 48, 127
11, 144592, Note_on_c, 7, 48, 0
11, 144600, Note_on_c, 7, 48, 127
11, 144752, Note_on_c, 7, 48, 0
11, 144760, Note_on_c, 7, 48, 113
11, 144792, Note_on_c, 7, 48, 0
11, 144800, Note_on_c, 7, 48, 127
11, 144832, Note_on_c, 7, 48, 0
11, 144840, Note_on_c, 7, 48, 123
11, 144992, Note_on_c, 7, 48, 0
11, 145000, Note_on_c, 7, 48, 118
11, 145032, Note_on_c, 7, 48, 0
11, 145040, Note_on_c, 7, 48, 127
11, 145072, Note_on_c, 7, 48, 0
11, 145080, Note_on_c, 7, 48, 127
11, 145176, Note_on_c, 7, 48, 0
11, 145200, Note_on_c, 7, 48, 127
11, 145392, Note_on_c, 7, 48, 0
11, 145440, Note_on_c, 7, 50, 127
11, 145632, Note_on_c, 7, 50, 0
11, 145680, Note_on_c, 7, 52, 103
11, 145872, Note_on_c, 7, 52, 0
11, 145920, Note_on_c, 7, 53, 120
11, 145968, Note_on_c, 7, 53, 0
11, 146040, Note_on_c, 7, 48, 120
11, 146088, Note_on_c, 7, 48, 0
11, 146160, Note_on_c, 7, 48, 114
11, 146352, Note_on_c, 7, 48, 0
11, 146400, Note_on_c, 7, 50, 112
11, 146592, Note_on_c, 7, 50, 0
11, 146640, Note_on_c, 7, 52, 109
11, 146832, Note_on_c, 7, 52, 0
11, 146880, Note_on_c, 7, 53, 106
11, 146928, Note_on_c, 7, 53, 0
11, 147000, Note_on_c, 7, 48, 102
11, 147048, Note_on_c, 7, 48, 0
11, 147120, Note_on_c, 7, 41, 121
11, 147168, Note_on_c, 7, 41, 0
11, 147840, Note_on_c, 7, 48, 120
11, 147984, Note_on_c, 7, 48, 0
11, 148020, Note_on_c, 7, 48, 127
11, 148068, Note_on_c, 7, 48, 0
11, 148080, Note_on_c, 7, 41, 127
11, 148128, Note_on_c, 7, 41, 0
11, 148800, Note_on_c, 7, 48, 118
11, 148944, Note_on_c, 7, 48, 0
11, 148980, Note_on_c, 7, 48, 127
11, 149028, Note_on_c, 7, 48, 0
11, 149040, Note_on_c, 7, 41, 116
11, 149088, Note_on_c, 7, 41, 0
11, 149280, Note_on_c, 7, 48, 118
11, 149424, Note_on_c, 7, 48, 0
11, 149460, Note_on_c, 7, 48, 127
11, 149508, Note_on_c, 7, 48, 0
11, 149520, Note_on_c, 7, 41, 116
11, 149568, Note_on_c, 7, 41, 0
11, 149760, Note_on_c, 7, 48, 118
11, 149904, Note_on_c, 7, 48, 0
11, 149940, Note_on_c, 7, 48, 127
11, 149988, Note_on_c, 7, 48, 0
11, 150000, Note_on_c, 7, 41, 116
11, 150048, Note_on_c, 7, 41, 0
11, 150240, Note_on_c, 7, 41, 116
11, 150288, Note_on_c, 7, 41, 0
11, 150480, Note_on_c, 7, 41, 116
11, 150528, Note_on_c, 7, 41, 0
11, 150720, Note_on_c, 7, 41, 116
11, 150768, Note_on_c, 7, 41, 0
11, 150960, Note_on_c, 7, 41, 98
11, 152448, Note_on_c, 7, 41, 0
11, 154080, Note_on_c, 7, 46, 121
11, 154128, Note_on_c, 7, 46, 0
11, 154140, Note_on_c, 7, 48, 127
11, 154188, Note_on_c, 7, 48, 0
11, 154200, Note_on_c, 7, 50, 127
11, 154248, Note_on_c, 7, 50, 0
11, 154260, Note_on_c, 7, 52, 127
11, 154308, Note_on_c, 7, 52, 0
11, 154320, Note_on_c, 7, 53, 127
11, 154512, Note_on_c, 7, 53, 0
11, 154560, Note_on_c, 7, 48, 127
11, 154752, Note_on_c, 7, 48, 0
11, 154800, Note_on_c, 7, 41, 127
11, 154992, Note_on_c, 7, 41, 0
11, 155040, Note_on_c, 7, 41, 127
11, 155136, Note_on_c, 7, 41, 0
11, 155160, Note_on_c, 7, 41, 127
11, 155256, Note_on_c, 7, 41, 0
11, 155280, Note_on_c, 7, 41, 127
11, 155472, Note_on_c, 7, 41, 0
11, 155520, Note_on_c, 7, 41, 127
11, 155712, Note_on_c, 7, 41, 0
11, 155760, Note_on_c, 7, 41, 127
11, 155952, Note_on_c, 7, 41, 0
11, 155952, End_track
12, 0, Start_track
12, 0, MIDI_port, 0
12, 0, Title_t, "Pizzicato Strings(treble)"
12, 0, Program_c, 8, 45
12, 0, Control_c, 8, 7, 113
12, 13440, Note_on_c, 8, 69, 80
12, 13440, Note_on_c, 8, 65, 80
12, 13488, Note_on_c, 8, 65, 0
12, 13488, Note_on_c, 8, 69, 0
12, 14400, Note_on_c, 8, 69, 80
12, 14400, Note_on_c, 8, 65, 80
12, 14448, Note_on_c, 8, 65, 0
12, 14448, Note_on_c, 8, 69, 0
12, 14880, Note_on_c, 8, 74, 80
12, 14880, Note_on_c, 8, 65, 80
12, 14928, Note_on_c, 8, 65, 0
12, 14928, Note_on_c, 8, 74, 0
12, 46560, Note_on_c, 8, 69, 80
12, 46560, Note_on_c, 8, 65, 80
12, 46608, Note_on_c, 8, 65, 0
12, 46608, Note_on_c, 8, 69, 0
12, 47520, Note_on_c, 8, 69, 80
12, 47520, Note_on_c, 8, 65, 80
12, 47568, Note_on_c, 8, 65, 0
12, 47568, Note_on_c, 8, 69, 0
12, 48000, Note_on_c, 8, 74, 80
12, 48000, Note_on_c, 8, 65, 80
12, 48048, Note_on_c, 8, 65, 0
12, 48048, Note_on_c, 8, 74, 0
12, 112560, Note_on_c, 8, 81, 102
12, 112560, Note_on_c, 8, 69, 103
12, 112560, Note_on_c, 8, 65, 107
12, 112656, Note_on_c, 8, 65, 0
12, 112656, Note_on_c, 8, 69, 0
12, 112656, Note_on_c, 8, 81, 0
12, 112860, Note_on_c, 8, 65, 111
12, 112908, Note_on_c, 8, 65, 0
12, 112920, Note_on_c, 8, 67, 121
12, 112968, Note_on_c, 8, 67, 0
12, 112980, Note_on_c, 8, 70, 105
12, 113028, Note_on_c, 8, 70, 0
12, 113040, Note_on_c, 8, 69, 107
12, 113088, Note_on_c, 8, 69, 0
12, 113100, Note_on_c, 8, 74, 120
12, 113148, Note_on_c, 8, 74, 0
12, 113160, Note_on_c, 8, 76, 104
12, 113208, Note_on_c, 8, 76, 0
12, 113220, Note_on_c, 8, 79, 108
12, 113268, Note_on_c, 8, 79, 0
12, 113280, Note_on_c, 8, 77, 107
12, 113328, Note_on_c, 8, 77, 0
12, 113340, Note_on_c, 8, 77, 104
12, 113388, Note_on_c, 8, 77, 0
12, 113400, Note_on_c, 8, 79, 127
12, 113448, Note_on_c, 8, 79, 0
12, 113460, Note_on_c, 8, 82, 109
12, 113508, Note_on_c, 8, 82, 0
12, 113520, Note_on_c, 8, 69, 127
12, 113520, Note_on_c, 8, 65, 127
12, 113520, Note_on_c, 8, 81, 127
12, 113568, Note_on_c, 8, 81, 0
12, 113568, Note_on_c, 8, 65, 0
12, 113568, Note_on_c, 8, 69, 0
12, 113820, Note_on_c, 8, 77, 127
12, 113868, Note_on_c, 8, 77, 0
12, 113880, Note_on_c, 8, 79, 127
12, 113928, Note_on_c, 8, 79, 0
12, 113940, Note_on_c, 8, 81, 127
12, 113988, Note_on_c, 8, 81, 0
12, 114000, Note_on_c, 8, 67, 127
12, 114000, Note_on_c, 8, 79, 127
12, 114048, Note_on_c, 8, 79, 0
12, 114048, Note_on_c, 8, 67, 0
12, 114300, Note_on_c, 8, 78, 97
12, 114348, Note_on_c, 8, 78, 0
12, 114360, Note_on_c, 8, 79, 121
12, 114408, Note_on_c, 8, 79, 0
12, 114420, Note_on_c, 8, 81, 127
12, 114468, Note_on_c, 8, 81, 0
12, 114480, Note_on_c, 8, 79, 127
12, 114528, Note_on_c, 8, 79, 0
12, 114780, Note_on_c, 8, 78, 113
12, 114828, Note_on_c, 8, 78, 0
12, 114840, Note_on_c, 8, 79, 120
12, 114888, Note_on_c, 8, 79, 0
12, 114900, Note_on_c, 8, 81, 127
12, 114948, Note_on_c, 8, 81, 0
12, 114960, Note_on_c, 8, 79, 117
12, 115008, Note_on_c, 8, 79, 0
12, 115020, Note_on_c, 8, 78, 100
12, 115068, Note_on_c, 8, 78, 0
12, 115080, Note_on_c, 8, 79, 125
12, 115128, Note_on_c, 8, 79, 0
12, 115140, Note_on_c, 8, 81, 118
12, 115188, Note_on_c, 8, 81, 0
12, 115200, Note_on_c, 8, 82, 105
12, 115248, Note_on_c, 8, 82, 0
12, 115260, Note_on_c, 8, 81, 103
12, 115308, Note_on_c, 8, 81, 0
12, 115320, Note_on_c, 8, 82, 107
12, 115368, Note_on_c, 8, 82, 0
12, 115380, Note_on_c, 8, 83, 110
12, 115428, Note_on_c, 8, 83, 0
12, 123240, Note_on_c, 8, 65, 103
12, 123336, Note_on_c, 8, 65, 0
12, 123480, Note_on_c, 8, 65, 117
12, 123576, Note_on_c, 8, 65, 0
12, 123720, Note_on_c, 8, 64, 105
12, 123816, Note_on_c, 8, 64, 0
12, 124920, Note_on_c, 8, 65, 100
12, 125016, Note_on_c, 8, 65, 0
12, 125160, Note_on_c, 8, 65, 104
12, 125256, Note_on_c, 8, 65, 0
12, 125400, Note_on_c, 8, 64, 105
12, 125496, Note_on_c, 8, 64, 0
12, 125640, Note_on_c, 8, 65, 104
12, 125736, Note_on_c, 8, 65, 0
12, 125880, Note_on_c, 8, 65, 104
12, 125976, Note_on_c, 8, 65, 0
12, 126120, Note_on_c, 8, 65, 109
12, 126216, Note_on_c, 8, 65, 0
12, 126360, Note_on_c, 8, 64, 104
12, 126456, Note_on_c, 8, 64, 0
12, 126456, End_track
13, 0, Start_track
13, 0, MIDI_port, 0
13, 0, Title_t, "Pizzicato Strings(bass)"
13, 0, Program_c, 8, 45
13, 0, Control_c, 8, 7, 113
13, 13440, Note_on_c, 8, 53, 80
13, 13440, Note_on_c, 8, 50, 80
13, 13488, Note_on_c, 8, 50, 0
13, 13488, Note_on_c, 8, 53, 0
13, 14400, Note_on_c, 8, 52, 80
13, 14400, Note_on_c, 8, 48, 80
13, 14448, Note_on_c, 8, 48, 0
13, 14448, Note_on_c, 8, 52, 0
13, 14880, Note_on_c, 8, 50, 80
13, 14880, Note_on_c, 8, 47, 80
13, 14928, Note_on_c, 8, 47, 0
13, 14928, Note_on_c, 8, 50, 0
13, 46560, Note_on_c, 8, 53, 80
13, 46560, Note_on_c, 8, 50, 80
13, 46608, Note_on_c, 8, 50, 0
13, 46608, Note_on_c, 8, 53, 0
13, 47520, Note_on_c, 8, 52, 80
13, 47520, Note_on_c, 8, 48, 80
13, 47568, Note_on_c, 8, 48, 0
13, 47568, Note_on_c, 8, 52, 0
13, 48000, Note_on_c, 8, 50, 80
13, 48000, Note_on_c, 8, 47, 80
13, 48048, Note_on_c, 8, 47, 0
13, 48048, Note_on_c, 8, 50, 0
13, 92160, Note_on_c, 8, 45, 112
13, 92208, Note_on_c, 8, 45, 0
13, 93120, Note_on_c, 8, 45, 80
13, 93168, Note_on_c, 8, 45, 0
13, 94080, Note_on_c, 8, 50, 127
13, 94128, Note_on_c, 8, 50, 0
13, 94560, Note_on_c, 8, 43, 123
13, 94608, Note_on_c, 8, 43, 0
13, 95040, Note_on_c, 8, 50, 117
13, 95088, Note_on_c, 8, 50, 0
13, 95520, Note_on_c, 8, 43, 98
13, 95568, Note_on_c, 8, 43, 0
13, 95760, Note_on_c, 8, 43, 127
13, 95808, Note_on_c, 8, 43, 0
13, 102240, Note_on_c, 8, 41, 127
13, 102288, Note_on_c, 8, 41, 0
13, 102720, Note_on_c, 8, 41, 123
13, 102816, Note_on_c, 8, 41, 0
13, 103200, Note_on_c, 8, 41, 117
13, 103296, Note_on_c, 8, 41, 0
13, 103680, Note_on_c, 8, 46, 105
13, 103776, Note_on_c, 8, 46, 0
13, 103800, Note_on_c, 8, 53, 97
13, 103896, Note_on_c, 8, 53, 0
13, 103920, Note_on_c, 8, 48, 99
13, 104016, Note_on_c, 8, 48, 0
13, 104160, Note_on_c, 8, 53, 99
13, 104256, Note_on_c, 8, 53, 0
13, 104640, Note_on_c, 8, 46, 105
13, 104736, Note_on_c, 8, 46, 0
13, 104760, Note_on_c, 8, 53, 102
13, 104856, Note_on_c, 8, 53, 0
13, 104880, Note_on_c, 8, 48, 120
13, 104976, Note_on_c, 8, 48, 0
13, 112560, Note_on_c, 8, 50, 109
13, 112656, Note_on_c, 8, 50, 0
13, 113520, Note_on_c, 8, 48, 80
13, 113568, Note_on_c, 8, 48, 0
13, 114000, Note_on_c, 8, 47, 80
13, 114000, Note_on_c, 8, 55, 80
13, 114048, Note_on_c, 8, 55, 0
13, 114048, Note_on_c, 8, 47, 0
13, 114048, End_track
14, 0, Start_track
14, 0, MIDI_port, 0
14, 0, Title_t, "Trem Strings(treble)"
14, 0, Program_c, 10, 44
14, 0, Control_c, 10, 7, 113
14, 74880, Note_on_c, 10, 78, 89
14, 74880, Note_on_c, 10, 81, 103
14, 75072, Note_on_c, 10, 81, 0
14, 75072, Note_on_c, 10, 78, 0
14, 75120, Note_on_c, 10, 78, 97
14, 75120, Note_on_c, 10, 81, 110
14, 75312, Note_on_c, 10, 81, 0
14, 75312, Note_on_c, 10, 78, 0
14, 75360, Note_on_c, 10, 78, 91
14, 75360, Note_on_c, 10, 81, 112
14, 75552, Note_on_c, 10, 81, 0
14, 75552, Note_on_c, 10, 78, 0
14, 75600, Note_on_c, 10, 78, 81
14, 75600, Note_on_c, 10, 81, 98
14, 75792, Note_on_c, 10, 81, 0
14, 75792, Note_on_c, 10, 78, 0
14, 85920, Note_on_c, 10, 80, 103
14, 85920, Note_on_c, 10, 83, 103
14, 86112, Note_on_c, 10, 83, 0
14, 86112, Note_on_c, 10, 80, 0
14, 86160, Note_on_c, 10, 80, 110
14, 86160, Note_on_c, 10, 83, 110
14, 86352, Note_on_c, 10, 83, 0
14, 86352, Note_on_c, 10, 80, 0
14, 86400, Note_on_c, 10, 80, 112
14, 86400, Note_on_c, 10, 83, 112
14, 86592, Note_on_c, 10, 83, 0
14, 86592, Note_on_c, 10, 80, 0
14, 86640, Note_on_c, 10, 80, 98
14, 86640, Note_on_c, 10, 83, 98
14, 86832, Note_on_c, 10, 83, 0
14, 86832, Note_on_c, 10, 80, 0
14, 96000, Note_on_c, 10, 84, 103
14, 96000, Note_on_c, 10, 72, 100
14, 96192, Note_on_c, 10, 72, 0
14, 96192, Note_on_c, 10, 84, 0
14, 96240, Note_on_c, 10, 84, 100
14, 96240, Note_on_c, 10, 72, 98
14, 96432, Note_on_c, 10, 72, 0
14, 96432, Note_on_c, 10, 84, 0
14, 96480, Note_on_c, 10, 84, 101
14, 96480, Note_on_c, 10, 72, 102
14, 96672, Note_on_c, 10, 72, 0
14, 96672, Note_on_c, 10, 84, 0
14, 96720, Note_on_c, 10, 84, 107
14, 96720, Note_on_c, 10, 72, 107
14, 96912, Note_on_c, 10, 72, 0
14, 96912, Note_on_c, 10, 84, 0
14, 96960, Note_on_c, 10, 84, 104
14, 96960, Note_on_c, 10, 72, 99
14, 97152, Note_on_c, 10, 72, 0
14, 97152, Note_on_c, 10, 84, 0
14, 97200, Note_on_c, 10, 84, 103
14, 97200, Note_on_c, 10, 72, 101
14, 97392, Note_on_c, 10, 72, 0
14, 97392, Note_on_c, 10, 84, 0
14, 97440, Note_on_c, 10, 84, 110
14, 97440, Note_on_c, 10, 72, 105
14, 97632, Note_on_c, 10, 72, 0
14, 97632, Note_on_c, 10, 84, 0
14, 97680, Note_on_c, 10, 84, 107
14, 97680, Note_on_c, 10, 72, 106
14, 97872, Note_on_c, 10, 72, 0
14, 97872, Note_on_c, 10, 84, 0
14, 97920, Note_on_c, 10, 84, 120
14, 97920, Note_on_c, 10, 72, 109
14, 98112, Note_on_c, 10, 72, 0
14, 98112, Note_on_c, 10, 84, 0
14, 98160, Note_on_c, 10, 84, 113
14, 98160, Note_on_c, 10, 72, 110
14, 98160, Note_on_c, 10, 84, 127
14, 98160, Note_on_c, 10, 72, 121
14, 98352, Note_on_c, 10, 72, 0
14, 98352, Note_on_c, 10, 84, 0
14, 98352, Note_on_c, 10, 72, 0
14, 98352, Note_on_c, 10, 84, 0
14, 98400, Note_on_c, 10, 84, 100
14, 98400, Note_on_c, 10, 72, 100
14, 98592, Note_on_c, 10, 72, 0
14, 98592, Note_on_c, 10, 84, 0
14, 98640, Note_on_c, 10, 72, 107
14, 98640, Note_on_c, 10, 84, 99
14, 98832, Note_on_c, 10, 84, 0
14, 98832, Note_on_c, 10, 72, 0
14, 98832, End_track
15, 0, Start_track
15, 0, MIDI_port, 0
15, 0, Title_t, "Trem Strings(bass)"
15, 0, Program_c, 10, 44
15, 0, Control_c, 10, 7, 113
15, 8880, Note_on_c, 10, 41, 80
15, 9072, Note_on_c, 10, 41, 0
15, 9120, Note_on_c, 10, 41, 80
15, 9312, Note_on_c, 10, 41, 0
15, 9360, Note_on_c, 10, 41, 80
15, 9552, Note_on_c, 10, 41, 0
15, 9600, Note_on_c, 10, 41, 80
15, 9792, Note_on_c, 10, 41, 0
15, 9840, Note_on_c, 10, 41, 80
15, 10032, Note_on_c, 10, 41, 0
15, 10080, Note_on_c, 10, 48, 80
15, 10272, Note_on_c, 10, 48, 0
15, 10320, Note_on_c, 10, 48, 80
15, 10512, Note_on_c, 10, 48, 0
15, 10560, Note_on_c, 10, 48, 80
15, 10752, Note_on_c, 10, 48, 0
15, 42000, Note_on_c, 10, 41, 80
15, 42192, Note_on_c, 10, 41, 0
15, 42240, Note_on_c, 10, 41, 80
15, 42432, Note_on_c, 10, 41, 0
15, 42480, Note_on_c, 10, 41, 80
15, 42672, Note_on_c, 10, 41, 0
15, 42720, Note_on_c, 10, 41, 80
15, 42912, Note_on_c, 10, 41, 0
15, 42960, Note_on_c, 10, 41, 80
15, 43152, Note_on_c, 10, 41, 0
15, 43200, Note_on_c, 10, 48, 80
15, 43392, Note_on_c, 10, 48, 0
15, 43440, Note_on_c, 10, 48, 80
15, 43632, Note_on_c, 10, 48, 0
15, 43680, Note_on_c, 10, 48, 80
15, 43872, Note_on_c, 10, 48, 0
15, 74880, Note_on_c, 10, 50, 99
15, 74880, Note_on_c, 10, 62, 99
15, 75072, Note_on_c, 10, 62, 0
15, 75072, Note_on_c, 10, 50, 0
15, 75120, Note_on_c, 10, 50, 99
15, 75120, Note_on_c, 10, 62, 98
15, 75312, Note_on_c, 10, 62, 0
15, 75312, Note_on_c, 10, 50, 0
15, 75360, Note_on_c, 10, 50, 99
15, 75360, Note_on_c, 10, 62, 100
15, 75552, Note_on_c, 10, 62, 0
15, 75552, Note_on_c, 10, 50, 0
15, 75600, Note_on_c, 10, 50, 101
15, 75600, Note_on_c, 10, 62, 96
15, 75792, Note_on_c, 10, 62, 0
15, 75792, Note_on_c, 10, 50, 0
15, 85920, Note_on_c, 10, 52, 99
15, 85920, Note_on_c, 10, 64, 99
15, 86112, Note_on_c, 10, 64, 0
15, 86112, Note_on_c, 10, 52, 0
15, 86160, Note_on_c, 10, 52, 99
15, 86160, Note_on_c, 10, 64, 98
15, 86352, Note_on_c, 10, 64, 0
15, 86352, Note_on_c, 10, 52, 0
15, 86400, Note_on_c, 10, 52, 99
15, 86400, Note_on_c, 10, 64, 100
15, 86592, Note_on_c, 10, 64, 0
15, 86592, Note_on_c, 10, 52, 0
15, 86640, Note_on_c, 10, 52, 101
15, 86640, Note_on_c, 10, 64, 96
15, 86832, Note_on_c, 10, 64, 0
15, 86832, Note_on_c, 10, 52, 0
15, 107760, Note_on_c, 10, 41, 125
15, 107952, Note_on_c, 10, 41, 0
15, 108000, Note_on_c, 10, 41, 123
15, 108192, Note_on_c, 10, 41, 0
15, 108240, Note_on_c, 10, 41, 127
15, 108432, Note_on_c, 10, 41, 0
15, 108480, Note_on_c, 10, 41, 127
15, 108672, Note_on_c, 10, 41, 0
15, 108720, Note_on_c, 10, 41, 127
15, 108912, Note_on_c, 10, 41, 0
15, 108912, End_track
16, 0, Start_track
16, 0, MIDI_port, 0
16, 0, Title_t, "Arranged by"
16, 0, End_track
17, 0, Start_track
17, 0, MIDI_port, 0
17, 0, Title_t, "G. Breed 9/96"
17, 0, End_track
0, 0, End_of_file
