0, 0, Header, 1, 17, 480
1, 0, Start_track
1, 0, Time_signature, 4, 2, 24, 8
1, 0, Key_signature, -3, "major"
1, 0, SMPTE_offset, 32, 0, 0, 0, 3
1, 0, Tempo, 500000
1, 7680, Key_signature, -1, "major"
1, 21600, Tempo, 428571
1, 27360, Tempo, 750000
1, 28800, Tempo, 315789
1, 40320, Tempo, 400000
1, 42240, Tempo, 315789
1, 53520, Tempo, 272726
1, 55680, Tempo, 315789
1, 96000, Tempo, 480000
1, 98400, Tempo, 413793
1, 99840, Tempo, 374999
1, 150720, Tempo, 369230
1, 151680, Tempo, 363636
1, 152640, Tempo, 358208
1, 153600, Tempo, 352941
1, 154560, Tempo, 347825
1, 155520, Tempo, 342857
1, 156480, Tempo, 338028
1, 157440, Tempo, 333333
1, 158400, Tempo, 328767
1, 159360, Tempo, 324324
1, 284160, Tempo, 342857
1, 291840, Tempo, 444444
1, 304320, Tempo, 324324
1, 305280, Tempo, 413793
1, 306240, Tempo, 324324
1, 337920, Tempo, 480000
1, 340320, Tempo, 413793
1, 341760, Tempo, 363636
1, 376320, Tempo, 374999
1, 396480, Tempo, 367687
1, 397440, Tempo, 360655
1, 398400, Tempo, 353887
1, 399360, Tempo, 347367
1, 400320, Tempo, 341085
1, 401280, Tempo, 335025
1, 402240, Tempo, 329176
1, 403200, Tempo, 323528
1, 404160, Tempo, 318071
1, 405120, Tempo, 312796
1, 406080, Tempo, 307691
1, 407040, Tempo, 324324
1, 468480, Tempo, 387096
1, 484800, Tempo, 385026
1, 485760, Tempo, 382978
1, 486720, Tempo, 380951
1, 487680, Tempo, 378947
1, 488640, Tempo, 376963
1, 489600, Tempo, 374999
1, 499200, Tempo, 352941
1, 506880, Tempo, 363636
1, 518400, Tempo, 352941
1, 529920, Tempo, 387096
1, 535680, Tempo, 631578
1, 539040, Tempo, 413793
1, 543360, Tempo, 705882
1, 545280, Tempo, 480000
1, 549120, Tempo, 324324
1, 551040, Tempo, 480000
1, 552960, Tempo, 387096
1, 553920, Tempo, 705882
1, 554880, Tempo, 521739
1, 555840, Tempo, 705882
1, 556800, Tempo, 571428
1, 560640, Tempo, 444444
1, 573120, Tempo, 750000
1, 594720, Tempo, 1200000
1, 595680, Tempo, 363636
1, 599040, Tempo, 857142
1, 599040, End_track
2, 0, Start_track
2, 0, Channel_prefix, 0
2, 0, Title_t, "Flute   "
2, 0, Instrument_name_t, "Flauti  "
2, 5760, Note_on_c, 0, 80, 120
2, 5760, Note_on_c, 0, 84, 120
2, 5910, Note_on_c, 0, 80, 0
2, 5910, Note_on_c, 0, 84, 0
2, 13440, Note_on_c, 0, 83, 120
2, 13440, Note_on_c, 0, 86, 120
2, 13590, Note_on_c, 0, 83, 0
2, 13590, Note_on_c, 0, 86, 0
2, 21120, Note_on_c, 0, 84, 120
2, 21120, Note_on_c, 0, 87, 120
2, 21270, Note_on_c, 0, 84, 0
2, 21270, Note_on_c, 0, 87, 0
2, 24960, Note_on_c, 0, 87, 110
2, 24960, Note_on_c, 0, 91, 110
2, 25170, Note_on_c, 0, 87, 0
2, 25170, Note_on_c, 0, 91, 0
2, 26880, Note_on_c, 0, 74, 110
2, 26880, Note_on_c, 0, 83, 110
2, 27120, Note_on_c, 0, 74, 0
2, 27120, Note_on_c, 0, 83, 0
2, 36480, Control_c, 0, 11, 80
2, 36590, Control_c, 0, 11, 81
2, 36700, Control_c, 0, 11, 82
2, 36810, Control_c, 0, 11, 83
2, 36920, Control_c, 0, 11, 84
2, 37030, Control_c, 0, 11, 85
2, 37140, Control_c, 0, 11, 86
2, 37240, Control_c, 0, 11, 87
2, 37350, Control_c, 0, 11, 88
2, 37440, Note_on_c, 0, 91, 80
2, 37460, Control_c, 0, 11, 89
2, 37570, Control_c, 0, 11, 90
2, 37680, Control_c, 0, 11, 91
2, 37790, Control_c, 0, 11, 92
2, 37890, Control_c, 0, 11, 93
2, 38000, Control_c, 0, 11, 94
2, 38110, Control_c, 0, 11, 95
2, 38220, Control_c, 0, 11, 96
2, 38330, Control_c, 0, 11, 97
2, 38400, Note_on_c, 0, 90, 88
2, 38430, Note_on_c, 0, 91, 0
2, 38440, Control_c, 0, 11, 98
2, 38540, Control_c, 0, 11, 99
2, 38650, Control_c, 0, 11, 100
2, 38760, Control_c, 0, 11, 101
2, 38870, Control_c, 0, 11, 102
2, 38980, Control_c, 0, 11, 103
2, 39090, Control_c, 0, 11, 104
2, 39190, Control_c, 0, 11, 105
2, 39300, Control_c, 0, 11, 106
2, 39410, Control_c, 0, 11, 107
2, 39520, Control_c, 0, 11, 108
2, 39630, Control_c, 0, 11, 109
2, 39740, Control_c, 0, 11, 110
2, 39750, Note_on_c, 0, 90, 0
2, 39840, Note_on_c, 0, 83, 100
2, 39840, Note_on_c, 0, 91, 100
2, 40170, Note_on_c, 0, 83, 0
2, 40170, Note_on_c, 0, 91, 0
2, 40317, Control_c, 0, 11, 80
2, 49920, Control_c, 0, 11, 80
2, 50030, Control_c, 0, 11, 81
2, 50140, Control_c, 0, 11, 82
2, 50250, Control_c, 0, 11, 83
2, 50360, Control_c, 0, 11, 84
2, 50470, Control_c, 0, 11, 85
2, 50580, Control_c, 0, 11, 86
2, 50680, Control_c, 0, 11, 87
2, 50790, Control_c, 0, 11, 88
2, 50880, Note_on_c, 0, 89, 80
2, 50900, Control_c, 0, 11, 89
2, 51010, Control_c, 0, 11, 90
2, 51120, Control_c, 0, 11, 91
2, 51230, Control_c, 0, 11, 92
2, 51330, Control_c, 0, 11, 93
2, 51440, Control_c, 0, 11, 94
2, 51550, Control_c, 0, 11, 95
2, 51660, Control_c, 0, 11, 96
2, 51770, Control_c, 0, 11, 97
2, 51880, Control_c, 0, 11, 98
2, 51980, Control_c, 0, 11, 99
2, 52090, Control_c, 0, 11, 100
2, 52200, Control_c, 0, 11, 101
2, 52230, Note_on_c, 0, 89, 0
2, 52310, Control_c, 0, 11, 102
2, 52320, Note_on_c, 0, 84, 100
2, 52320, Note_on_c, 0, 88, 100
2, 52420, Control_c, 0, 11, 103
2, 52530, Control_c, 0, 11, 104
2, 52630, Control_c, 0, 11, 105
2, 52650, Note_on_c, 0, 84, 0
2, 52650, Note_on_c, 0, 88, 0
2, 52740, Control_c, 0, 11, 106
2, 52850, Control_c, 0, 11, 107
2, 52960, Control_c, 0, 11, 108
2, 53070, Control_c, 0, 11, 109
2, 53180, Control_c, 0, 11, 110
2, 53757, Control_c, 0, 11, 80
2, 55680, Note_on_c, 0, 89, 80
2, 56640, Note_on_c, 0, 87, 80
2, 56670, Note_on_c, 0, 89, 0
2, 57570, Note_on_c, 0, 87, 0
2, 57600, Note_on_c, 0, 86, 80
2, 59490, Note_on_c, 0, 86, 0
2, 59520, Note_on_c, 0, 86, 83
2, 61410, Note_on_c, 0, 86, 0
2, 61440, Note_on_c, 0, 86, 87
2, 62370, Note_on_c, 0, 86, 0
2, 62400, Note_on_c, 0, 86, 89
2, 63330, Note_on_c, 0, 86, 0
2, 63360, Note_on_c, 0, 86, 91
2, 64290, Note_on_c, 0, 86, 0
2, 64320, Note_on_c, 0, 86, 93
2, 65250, Note_on_c, 0, 86, 0
2, 65280, Note_on_c, 0, 84, 95
2, 65280, Note_on_c, 0, 89, 95
2, 67680, Note_on_c, 0, 75, 100
2, 67680, Note_on_c, 0, 87, 100
2, 67710, Note_on_c, 0, 84, 0
2, 67710, Note_on_c, 0, 89, 0
2, 68160, Note_on_c, 0, 73, 100
2, 68160, Note_on_c, 0, 85, 100
2, 68190, Note_on_c, 0, 75, 0
2, 68190, Note_on_c, 0, 87, 0
2, 68640, Note_on_c, 0, 72, 100
2, 68640, Note_on_c, 0, 84, 100
2, 68670, Note_on_c, 0, 73, 0
2, 68670, Note_on_c, 0, 85, 0
2, 69090, Note_on_c, 0, 72, 0
2, 69090, Note_on_c, 0, 84, 0
2, 69120, Note_on_c, 0, 79, 100
2, 69120, Note_on_c, 0, 83, 100
2, 69810, Note_on_c, 0, 79, 0
2, 69810, Note_on_c, 0, 83, 0
2, 70080, Note_on_c, 0, 79, 100
2, 70080, Note_on_c, 0, 84, 100
2, 70770, Note_on_c, 0, 79, 0
2, 70770, Note_on_c, 0, 84, 0
2, 71040, Note_on_c, 0, 74, 100
2, 71040, Note_on_c, 0, 86, 100
2, 71730, Note_on_c, 0, 74, 0
2, 71730, Note_on_c, 0, 86, 0
2, 72000, Note_on_c, 0, 75, 100
2, 72000, Note_on_c, 0, 87, 100
2, 72690, Note_on_c, 0, 75, 0
2, 72690, Note_on_c, 0, 87, 0
2, 72960, Note_on_c, 0, 84, 100
2, 72960, Note_on_c, 0, 88, 100
2, 73650, Note_on_c, 0, 84, 0
2, 73650, Note_on_c, 0, 88, 0
2, 73920, Note_on_c, 0, 84, 100
2, 73920, Note_on_c, 0, 89, 100
2, 74610, Note_on_c, 0, 84, 0
2, 74610, Note_on_c, 0, 89, 0
2, 74880, Note_on_c, 0, 84, 100
2, 74880, Note_on_c, 0, 91, 100
2, 75570, Note_on_c, 0, 84, 0
2, 75570, Note_on_c, 0, 91, 0
2, 75840, Note_on_c, 0, 84, 100
2, 75840, Note_on_c, 0, 92, 100
2, 76530, Note_on_c, 0, 84, 0
2, 76530, Note_on_c, 0, 92, 0
2, 76800, Note_on_c, 0, 81, 90
2, 76800, Note_on_c, 0, 93, 90
2, 77760, Note_on_c, 0, 81, 0
2, 77760, Note_on_c, 0, 93, 0
2, 78720, Note_on_c, 0, 81, 90
2, 78720, Note_on_c, 0, 93, 90
2, 79680, Note_on_c, 0, 81, 0
2, 79680, Note_on_c, 0, 93, 0
2, 80640, Note_on_c, 0, 80, 90
2, 80640, Note_on_c, 0, 92, 90
2, 81600, Note_on_c, 0, 80, 0
2, 81600, Note_on_c, 0, 92, 0
2, 82560, Note_on_c, 0, 80, 90
2, 82560, Note_on_c, 0, 92, 90
2, 83520, Note_on_c, 0, 80, 0
2, 83520, Note_on_c, 0, 92, 0
2, 84480, Note_on_c, 0, 79, 90
2, 84480, Note_on_c, 0, 91, 90
2, 86370, Note_on_c, 0, 79, 0
2, 86370, Note_on_c, 0, 91, 0
2, 86400, Note_on_c, 0, 78, 90
2, 86400, Note_on_c, 0, 90, 90
2, 88290, Note_on_c, 0, 78, 0
2, 88290, Note_on_c, 0, 90, 0
2, 88320, Note_on_c, 0, 77, 90
2, 88320, Note_on_c, 0, 89, 90
2, 88770, Note_on_c, 0, 77, 0
2, 88800, Note_on_c, 0, 82, 90
2, 89730, Note_on_c, 0, 89, 0
2, 89760, Note_on_c, 0, 90, 110
2, 90240, Note_on_c, 0, 89, 90
2, 90270, Note_on_c, 0, 90, 0
2, 90690, Note_on_c, 0, 82, 0
2, 90720, Note_on_c, 0, 82, 90
2, 91650, Note_on_c, 0, 89, 0
2, 91680, Note_on_c, 0, 90, 110
2, 92160, Note_on_c, 0, 89, 90
2, 92190, Note_on_c, 0, 90, 0
2, 92610, Note_on_c, 0, 82, 0
2, 92640, Note_on_c, 0, 82, 90
2, 93570, Note_on_c, 0, 89, 0
2, 93600, Note_on_c, 0, 90, 110
2, 94080, Note_on_c, 0, 89, 90
2, 94110, Note_on_c, 0, 90, 0
2, 94530, Note_on_c, 0, 82, 0
2, 94560, Note_on_c, 0, 82, 90
2, 95490, Note_on_c, 0, 89, 0
2, 95520, Note_on_c, 0, 90, 110
2, 95970, Note_on_c, 0, 90, 0
2, 96000, Note_on_c, 0, 89, 90
2, 96480, Note_on_c, 0, 82, 0
2, 96480, Note_on_c, 0, 89, 0
2, 115200, Note_on_c, 0, 91, 80
2, 115200, Control_c, 0, 11, 80
2, 115390, Control_c, 0, 11, 81
2, 115570, Control_c, 0, 11, 82
2, 115750, Control_c, 0, 11, 83
2, 115940, Control_c, 0, 11, 84
2, 116120, Control_c, 0, 11, 85
2, 116300, Control_c, 0, 11, 86
2, 116480, Control_c, 0, 11, 87
2, 116640, Note_on_c, 0, 92, 80
2, 116670, Note_on_c, 0, 91, 0
2, 116670, Control_c, 0, 11, 88
2, 116850, Control_c, 0, 11, 89
2, 117030, Control_c, 0, 11, 90
2, 117120, Note_on_c, 0, 91, 80
2, 117150, Note_on_c, 0, 92, 0
2, 117220, Control_c, 0, 11, 91
2, 117400, Control_c, 0, 11, 92
2, 117580, Control_c, 0, 11, 93
2, 117600, Note_on_c, 0, 89, 80
2, 117630, Note_on_c, 0, 91, 0
2, 117760, Control_c, 0, 11, 94
2, 117950, Control_c, 0, 11, 95
2, 118080, Note_on_c, 0, 86, 80
2, 118110, Note_on_c, 0, 89, 0
2, 118130, Control_c, 0, 11, 96
2, 118310, Control_c, 0, 11, 97
2, 118500, Control_c, 0, 11, 98
2, 118560, Note_on_c, 0, 82, 80
2, 118590, Note_on_c, 0, 86, 0
2, 118680, Control_c, 0, 11, 99
2, 118860, Control_c, 0, 11, 100
2, 119010, Note_on_c, 0, 82, 0
2, 119040, Note_on_c, 0, 82, 80
2, 119970, Note_on_c, 0, 82, 0
2, 120000, Note_on_c, 0, 85, 80
2, 120930, Note_on_c, 0, 85, 0
2, 120960, Note_on_c, 0, 84, 80
2, 122877, Control_c, 0, 11, 80
2, 130560, Control_c, 0, 11, 80
2, 130750, Control_c, 0, 11, 81
2, 130930, Control_c, 0, 11, 82
2, 131110, Control_c, 0, 11, 83
2, 131300, Control_c, 0, 11, 84
2, 131480, Control_c, 0, 11, 85
2, 131660, Control_c, 0, 11, 86
2, 131840, Control_c, 0, 11, 87
2, 132030, Control_c, 0, 11, 88
2, 132210, Control_c, 0, 11, 89
2, 132390, Control_c, 0, 11, 90
2, 132580, Control_c, 0, 11, 91
2, 132760, Control_c, 0, 11, 92
2, 132940, Control_c, 0, 11, 93
2, 133120, Control_c, 0, 11, 94
2, 133310, Control_c, 0, 11, 95
2, 133490, Control_c, 0, 11, 96
2, 133670, Control_c, 0, 11, 97
2, 133860, Control_c, 0, 11, 98
2, 134040, Control_c, 0, 11, 99
2, 134220, Control_c, 0, 11, 100
2, 134370, Note_on_c, 0, 84, 0
2, 134400, Note_on_c, 0, 84, 80
2, 135330, Note_on_c, 0, 84, 0
2, 135360, Note_on_c, 0, 87, 80
2, 136290, Note_on_c, 0, 87, 0
2, 136320, Note_on_c, 0, 86, 80
2, 138240, Control_c, 0, 11, 80
2, 138440, Control_c, 0, 11, 81
2, 138630, Control_c, 0, 11, 82
2, 138820, Control_c, 0, 11, 83
2, 139010, Control_c, 0, 11, 84
2, 139200, Control_c, 0, 11, 85
2, 139400, Control_c, 0, 11, 86
2, 139590, Control_c, 0, 11, 87
2, 139780, Control_c, 0, 11, 88
2, 139970, Control_c, 0, 11, 89
2, 140160, Control_c, 0, 11, 90
2, 140360, Control_c, 0, 11, 91
2, 140550, Control_c, 0, 11, 92
2, 140740, Control_c, 0, 11, 93
2, 140930, Control_c, 0, 11, 94
2, 141120, Control_c, 0, 11, 95
2, 141320, Control_c, 0, 11, 96
2, 141510, Control_c, 0, 11, 97
2, 141700, Control_c, 0, 11, 98
2, 141890, Control_c, 0, 11, 99
2, 142080, Control_c, 0, 11, 100
2, 142180, Control_c, 0, 11, 99
2, 142270, Control_c, 0, 11, 98
2, 142360, Control_c, 0, 11, 97
2, 142450, Control_c, 0, 11, 96
2, 142540, Control_c, 0, 11, 95
2, 142630, Control_c, 0, 11, 94
2, 142720, Control_c, 0, 11, 93
2, 142820, Control_c, 0, 11, 92
2, 142910, Control_c, 0, 11, 91
2, 143000, Control_c, 0, 11, 90
2, 143090, Control_c, 0, 11, 89
2, 143180, Control_c, 0, 11, 88
2, 143270, Control_c, 0, 11, 87
2, 143360, Control_c, 0, 11, 86
2, 143460, Control_c, 0, 11, 85
2, 143520, Note_on_c, 0, 89, 80
2, 143550, Note_on_c, 0, 86, 0
2, 143550, Control_c, 0, 11, 84
2, 143640, Control_c, 0, 11, 83
2, 143730, Control_c, 0, 11, 82
2, 143820, Control_c, 0, 11, 81
2, 143910, Control_c, 0, 11, 80
2, 143970, Note_on_c, 0, 89, 0
2, 144000, Note_on_c, 0, 89, 80
2, 144480, Note_on_c, 0, 87, 80
2, 144510, Note_on_c, 0, 89, 0
2, 145440, Note_on_c, 0, 86, 80
2, 145470, Note_on_c, 0, 87, 0
2, 145830, Note_on_c, 0, 86, 0
2, 145920, Note_on_c, 0, 86, 80
2, 146400, Note_on_c, 0, 84, 80
2, 146430, Note_on_c, 0, 86, 0
2, 147360, Note_on_c, 0, 82, 80
2, 147390, Note_on_c, 0, 84, 0
2, 147750, Note_on_c, 0, 82, 0
2, 147840, Note_on_c, 0, 82, 80
2, 148320, Note_on_c, 0, 81, 80
2, 148350, Note_on_c, 0, 82, 0
2, 148800, Note_on_c, 0, 82, 80
2, 148830, Note_on_c, 0, 81, 0
2, 149280, Note_on_c, 0, 79, 80
2, 149310, Note_on_c, 0, 82, 0
2, 149670, Note_on_c, 0, 79, 0
2, 149760, Note_on_c, 0, 78, 70
2, 150450, Note_on_c, 0, 78, 0
2, 153360, Note_on_c, 0, 81, 70
2, 153510, Note_on_c, 0, 81, 0
2, 153600, Note_on_c, 0, 82, 70
2, 154080, Note_on_c, 0, 82, 0
2, 157200, Note_on_c, 0, 82, 90
2, 157350, Note_on_c, 0, 82, 0
2, 157440, Note_on_c, 0, 84, 91
2, 157920, Note_on_c, 0, 84, 0
2, 159120, Note_on_c, 0, 84, 99
2, 159270, Note_on_c, 0, 84, 0
2, 159360, Note_on_c, 0, 86, 100
2, 159840, Note_on_c, 0, 86, 0
2, 161040, Note_on_c, 0, 86, 108
2, 161190, Note_on_c, 0, 86, 0
2, 161280, Note_on_c, 0, 81, 110
2, 161280, Note_on_c, 0, 87, 110
2, 162720, Note_on_c, 0, 82, 110
2, 162720, Note_on_c, 0, 86, 110
2, 162750, Note_on_c, 0, 81, 0
2, 162750, Note_on_c, 0, 87, 0
2, 163170, Note_on_c, 0, 82, 0
2, 163170, Note_on_c, 0, 86, 0
2, 163200, Note_on_c, 0, 84, 110
2, 163200, Note_on_c, 0, 90, 110
2, 163680, Note_on_c, 0, 82, 110
2, 163680, Note_on_c, 0, 91, 110
2, 163710, Note_on_c, 0, 84, 0
2, 163710, Note_on_c, 0, 90, 0
2, 164160, Note_on_c, 0, 84, 110
2, 164160, Note_on_c, 0, 90, 110
2, 164190, Note_on_c, 0, 82, 0
2, 164190, Note_on_c, 0, 91, 0
2, 164640, Note_on_c, 0, 82, 110
2, 164640, Note_on_c, 0, 91, 110
2, 164670, Note_on_c, 0, 84, 0
2, 164670, Note_on_c, 0, 90, 0
2, 165090, Note_on_c, 0, 82, 0
2, 165090, Note_on_c, 0, 91, 0
2, 165120, Note_on_c, 0, 81, 110
2, 165120, Note_on_c, 0, 87, 110
2, 166560, Note_on_c, 0, 82, 110
2, 166560, Note_on_c, 0, 86, 110
2, 166590, Note_on_c, 0, 81, 0
2, 166590, Note_on_c, 0, 87, 0
2, 167010, Note_on_c, 0, 82, 0
2, 167010, Note_on_c, 0, 86, 0
2, 167040, Note_on_c, 0, 84, 110
2, 167040, Note_on_c, 0, 90, 110
2, 167520, Note_on_c, 0, 82, 110
2, 167520, Note_on_c, 0, 91, 110
2, 167550, Note_on_c, 0, 84, 0
2, 167550, Note_on_c, 0, 90, 0
2, 168000, Note_on_c, 0, 84, 110
2, 168000, Note_on_c, 0, 90, 110
2, 168030, Note_on_c, 0, 82, 0
2, 168030, Note_on_c, 0, 91, 0
2, 168480, Note_on_c, 0, 82, 110
2, 168480, Note_on_c, 0, 91, 110
2, 168510, Note_on_c, 0, 84, 0
2, 168510, Note_on_c, 0, 90, 0
2, 168930, Note_on_c, 0, 82, 0
2, 168930, Note_on_c, 0, 91, 0
2, 168960, Note_on_c, 0, 83, 110
2, 168960, Note_on_c, 0, 92, 110
2, 170400, Note_on_c, 0, 84, 110
2, 170400, Note_on_c, 0, 91, 110
2, 170430, Note_on_c, 0, 83, 0
2, 170430, Note_on_c, 0, 92, 0
2, 170850, Note_on_c, 0, 84, 0
2, 170850, Note_on_c, 0, 91, 0
2, 170880, Note_on_c, 0, 77, 110
2, 170880, Note_on_c, 0, 83, 110
2, 171360, Note_on_c, 0, 75, 110
2, 171360, Note_on_c, 0, 84, 110
2, 171390, Note_on_c, 0, 77, 0
2, 171390, Note_on_c, 0, 83, 0
2, 171840, Note_on_c, 0, 77, 110
2, 171840, Note_on_c, 0, 83, 110
2, 171870, Note_on_c, 0, 75, 0
2, 171870, Note_on_c, 0, 84, 0
2, 172320, Note_on_c, 0, 75, 110
2, 172320, Note_on_c, 0, 84, 110
2, 172350, Note_on_c, 0, 77, 0
2, 172350, Note_on_c, 0, 83, 0
2, 172770, Note_on_c, 0, 75, 0
2, 172770, Note_on_c, 0, 84, 0
2, 172800, Note_on_c, 0, 83, 110
2, 172800, Note_on_c, 0, 92, 110
2, 174240, Note_on_c, 0, 84, 110
2, 174240, Note_on_c, 0, 91, 110
2, 174270, Note_on_c, 0, 83, 0
2, 174270, Note_on_c, 0, 92, 0
2, 174690, Note_on_c, 0, 84, 0
2, 174690, Note_on_c, 0, 91, 0
2, 174720, Note_on_c, 0, 77, 110
2, 174720, Note_on_c, 0, 83, 110
2, 175200, Note_on_c, 0, 75, 110
2, 175200, Note_on_c, 0, 84, 110
2, 175230, Note_on_c, 0, 77, 0
2, 175230, Note_on_c, 0, 83, 0
2, 175680, Note_on_c, 0, 77, 110
2, 175680, Note_on_c, 0, 83, 110
2, 175710, Note_on_c, 0, 75, 0
2, 175710, Note_on_c, 0, 84, 0
2, 176160, Note_on_c, 0, 75, 110
2, 176160, Note_on_c, 0, 84, 110
2, 176190, Note_on_c, 0, 77, 0
2, 176190, Note_on_c, 0, 83, 0
2, 176610, Note_on_c, 0, 75, 0
2, 176610, Note_on_c, 0, 84, 0
2, 177600, Note_on_c, 0, 84, 110
2, 177600, Note_on_c, 0, 87, 110
2, 178080, Note_on_c, 0, 82, 110
2, 178110, Note_on_c, 0, 84, 0
2, 178530, Note_on_c, 0, 82, 0
2, 178530, Note_on_c, 0, 87, 0
2, 179520, Note_on_c, 0, 84, 110
2, 179520, Note_on_c, 0, 87, 110
2, 180000, Note_on_c, 0, 82, 110
2, 180030, Note_on_c, 0, 84, 0
2, 180450, Note_on_c, 0, 82, 0
2, 180450, Note_on_c, 0, 87, 0
2, 181440, Note_on_c, 0, 84, 110
2, 181440, Note_on_c, 0, 87, 110
2, 181920, Note_on_c, 0, 82, 110
2, 181950, Note_on_c, 0, 84, 0
2, 182370, Note_on_c, 0, 82, 0
2, 182370, Note_on_c, 0, 87, 0
2, 183360, Note_on_c, 0, 84, 110
2, 183360, Note_on_c, 0, 87, 110
2, 183840, Note_on_c, 0, 82, 110
2, 183870, Note_on_c, 0, 84, 0
2, 184290, Note_on_c, 0, 82, 0
2, 184290, Note_on_c, 0, 87, 0
2, 184320, Note_on_c, 0, 87, 110
2, 186210, Note_on_c, 0, 87, 0
2, 186240, Note_on_c, 0, 86, 110
2, 187170, Note_on_c, 0, 86, 0
2, 187200, Note_on_c, 0, 79, 110
2, 187200, Note_on_c, 0, 85, 110
2, 188130, Note_on_c, 0, 79, 0
2, 188130, Note_on_c, 0, 85, 0
2, 188160, Note_on_c, 0, 80, 110
2, 188160, Note_on_c, 0, 84, 110
2, 189090, Note_on_c, 0, 80, 0
2, 189120, Note_on_c, 0, 72, 110
2, 191970, Note_on_c, 0, 72, 0
2, 191970, Note_on_c, 0, 84, 0
2, 192000, Note_on_c, 0, 72, 110
2, 192000, Note_on_c, 0, 84, 110
2, 192480, Note_on_c, 0, 72, 0
2, 192480, Note_on_c, 0, 84, 0
2, 192960, Note_on_c, 0, 75, 80
2, 192960, Note_on_c, 0, 87, 80
2, 193440, Note_on_c, 0, 75, 0
2, 193440, Note_on_c, 0, 87, 0
2, 193920, Note_on_c, 0, 72, 80
2, 193920, Note_on_c, 0, 84, 80
2, 194400, Note_on_c, 0, 72, 0
2, 194400, Note_on_c, 0, 84, 0
2, 194880, Note_on_c, 0, 74, 80
2, 194880, Note_on_c, 0, 86, 80
2, 195360, Note_on_c, 0, 74, 0
2, 195360, Note_on_c, 0, 86, 0
2, 195840, Note_on_c, 0, 67, 70
2, 195840, Note_on_c, 0, 79, 70
2, 196320, Note_on_c, 0, 67, 0
2, 196320, Note_on_c, 0, 79, 0
2, 199440, Note_on_c, 0, 74, 100
2, 199440, Note_on_c, 0, 81, 100
2, 199560, Note_on_c, 0, 74, 0
2, 199560, Note_on_c, 0, 81, 0
2, 199680, Note_on_c, 0, 74, 100
2, 199680, Note_on_c, 0, 82, 100
2, 200010, Note_on_c, 0, 74, 0
2, 200010, Note_on_c, 0, 82, 0
2, 203280, Note_on_c, 0, 74, 100
2, 203280, Note_on_c, 0, 81, 100
2, 203400, Note_on_c, 0, 74, 0
2, 203400, Note_on_c, 0, 81, 0
2, 203520, Note_on_c, 0, 74, 100
2, 203520, Note_on_c, 0, 82, 100
2, 203850, Note_on_c, 0, 74, 0
2, 203850, Note_on_c, 0, 82, 0
2, 211200, Note_on_c, 0, 70, 100
2, 211530, Note_on_c, 0, 70, 0
2, 211920, Note_on_c, 0, 75, 100
2, 211920, Note_on_c, 0, 87, 100
2, 212040, Note_on_c, 0, 75, 0
2, 212040, Note_on_c, 0, 87, 0
2, 212160, Note_on_c, 0, 74, 100
2, 212160, Note_on_c, 0, 86, 100
2, 212490, Note_on_c, 0, 74, 0
2, 212490, Note_on_c, 0, 86, 0
2, 212880, Note_on_c, 0, 69, 100
2, 212880, Note_on_c, 0, 81, 100
2, 213000, Note_on_c, 0, 69, 0
2, 213000, Note_on_c, 0, 81, 0
2, 213120, Note_on_c, 0, 67, 100
2, 213120, Note_on_c, 0, 79, 100
2, 213450, Note_on_c, 0, 67, 0
2, 213450, Note_on_c, 0, 79, 0
2, 213840, Note_on_c, 0, 72, 100
2, 213840, Note_on_c, 0, 84, 100
2, 213960, Note_on_c, 0, 72, 0
2, 213960, Note_on_c, 0, 84, 0
2, 214080, Note_on_c, 0, 70, 100
2, 214080, Note_on_c, 0, 82, 100
2, 214410, Note_on_c, 0, 70, 0
2, 214410, Note_on_c, 0, 82, 0
2, 214800, Note_on_c, 0, 65, 100
2, 214800, Note_on_c, 0, 77, 100
2, 214920, Note_on_c, 0, 65, 0
2, 214920, Note_on_c, 0, 77, 0
2, 215040, Note_on_c, 0, 63, 100
2, 215040, Note_on_c, 0, 75, 100
2, 215370, Note_on_c, 0, 63, 0
2, 215370, Note_on_c, 0, 75, 0
2, 215760, Note_on_c, 0, 69, 100
2, 215760, Note_on_c, 0, 81, 100
2, 215880, Note_on_c, 0, 69, 0
2, 215880, Note_on_c, 0, 81, 0
2, 216000, Note_on_c, 0, 67, 100
2, 216000, Note_on_c, 0, 79, 100
2, 216330, Note_on_c, 0, 67, 0
2, 216330, Note_on_c, 0, 79, 0
2, 216720, Note_on_c, 0, 82, 100
2, 216720, Note_on_c, 0, 91, 100
2, 216840, Note_on_c, 0, 82, 0
2, 216840, Note_on_c, 0, 91, 0
2, 216960, Note_on_c, 0, 82, 100
2, 216960, Note_on_c, 0, 91, 100
2, 217290, Note_on_c, 0, 82, 0
2, 217290, Note_on_c, 0, 91, 0
2, 217680, Note_on_c, 0, 82, 100
2, 217680, Note_on_c, 0, 91, 100
2, 217800, Note_on_c, 0, 82, 0
2, 217800, Note_on_c, 0, 91, 0
2, 217920, Note_on_c, 0, 81, 100
2, 217920, Note_on_c, 0, 90, 100
2, 218250, Note_on_c, 0, 81, 0
2, 218250, Note_on_c, 0, 90, 0
2, 218640, Note_on_c, 0, 81, 100
2, 218640, Note_on_c, 0, 90, 100
2, 218760, Note_on_c, 0, 81, 0
2, 218760, Note_on_c, 0, 90, 0
2, 218880, Note_on_c, 0, 82, 100
2, 218880, Note_on_c, 0, 91, 100
2, 223170, Note_on_c, 0, 82, 0
2, 223170, Note_on_c, 0, 91, 0
2, 223440, Note_on_c, 0, 82, 100
2, 223440, Note_on_c, 0, 91, 100
2, 223560, Note_on_c, 0, 82, 0
2, 223560, Note_on_c, 0, 91, 0
2, 223680, Note_on_c, 0, 82, 100
2, 223680, Note_on_c, 0, 91, 100
2, 224010, Note_on_c, 0, 82, 0
2, 224010, Note_on_c, 0, 91, 0
2, 224400, Note_on_c, 0, 82, 100
2, 224400, Note_on_c, 0, 91, 100
2, 224520, Note_on_c, 0, 82, 0
2, 224520, Note_on_c, 0, 91, 0
2, 224640, Note_on_c, 0, 82, 100
2, 224640, Note_on_c, 0, 91, 100
2, 224970, Note_on_c, 0, 82, 0
2, 224970, Note_on_c, 0, 91, 0
2, 225360, Note_on_c, 0, 82, 100
2, 225360, Note_on_c, 0, 91, 100
2, 225480, Note_on_c, 0, 82, 0
2, 225480, Note_on_c, 0, 91, 0
2, 225600, Note_on_c, 0, 82, 100
2, 225600, Note_on_c, 0, 91, 100
2, 225930, Note_on_c, 0, 82, 0
2, 225930, Note_on_c, 0, 91, 0
2, 226320, Note_on_c, 0, 82, 100
2, 226320, Note_on_c, 0, 91, 100
2, 226440, Note_on_c, 0, 82, 0
2, 226440, Note_on_c, 0, 91, 0
2, 226560, Note_on_c, 0, 82, 100
2, 226560, Note_on_c, 0, 91, 100
2, 226950, Note_on_c, 0, 82, 0
2, 226950, Note_on_c, 0, 91, 0
2, 234960, Note_on_c, 0, 85, 80
2, 235080, Note_on_c, 0, 85, 0
2, 235200, Note_on_c, 0, 84, 80
2, 235530, Note_on_c, 0, 84, 0
2, 235920, Note_on_c, 0, 79, 80
2, 236040, Note_on_c, 0, 79, 0
2, 236160, Note_on_c, 0, 80, 80
2, 236490, Note_on_c, 0, 80, 0
2, 238800, Note_on_c, 0, 85, 80
2, 238920, Note_on_c, 0, 85, 0
2, 239040, Note_on_c, 0, 84, 80
2, 239370, Note_on_c, 0, 84, 0
2, 239760, Note_on_c, 0, 79, 80
2, 239880, Note_on_c, 0, 79, 0
2, 240000, Note_on_c, 0, 76, 80
2, 240330, Note_on_c, 0, 76, 0
2, 248400, Note_on_c, 0, 89, 80
2, 248520, Note_on_c, 0, 89, 0
2, 248640, Note_on_c, 0, 87, 80
2, 248970, Note_on_c, 0, 87, 0
2, 249360, Note_on_c, 0, 82, 80
2, 249480, Note_on_c, 0, 82, 0
2, 249600, Note_on_c, 0, 84, 80
2, 249930, Note_on_c, 0, 84, 0
2, 256080, Note_on_c, 0, 90, 80
2, 256200, Note_on_c, 0, 90, 0
2, 256320, Note_on_c, 0, 89, 81
2, 256650, Note_on_c, 0, 89, 0
2, 257040, Note_on_c, 0, 84, 86
2, 257160, Note_on_c, 0, 84, 0
2, 257280, Note_on_c, 0, 85, 87
2, 257610, Note_on_c, 0, 85, 0
2, 268800, Note_on_c, 0, 77, 100
2, 268800, Note_on_c, 0, 89, 100
2, 269130, Note_on_c, 0, 77, 0
2, 269130, Note_on_c, 0, 89, 0
2, 270480, Note_on_c, 0, 75, 100
2, 270480, Note_on_c, 0, 87, 100
2, 270600, Note_on_c, 0, 75, 0
2, 270600, Note_on_c, 0, 87, 0
2, 270720, Note_on_c, 0, 73, 100
2, 270720, Note_on_c, 0, 85, 100
2, 271050, Note_on_c, 0, 73, 0
2, 271050, Note_on_c, 0, 85, 0
2, 272400, Note_on_c, 0, 72, 100
2, 272400, Note_on_c, 0, 84, 100
2, 272520, Note_on_c, 0, 72, 0
2, 272520, Note_on_c, 0, 84, 0
2, 272640, Note_on_c, 0, 70, 100
2, 272640, Note_on_c, 0, 82, 100
2, 272970, Note_on_c, 0, 70, 0
2, 272970, Note_on_c, 0, 82, 0
2, 273360, Note_on_c, 0, 82, 100
2, 273360, Note_on_c, 0, 88, 100
2, 273480, Note_on_c, 0, 82, 0
2, 273480, Note_on_c, 0, 88, 0
2, 273600, Note_on_c, 0, 82, 100
2, 273600, Note_on_c, 0, 89, 100
2, 273930, Note_on_c, 0, 82, 0
2, 273930, Note_on_c, 0, 89, 0
2, 274320, Note_on_c, 0, 82, 100
2, 274320, Note_on_c, 0, 89, 100
2, 274440, Note_on_c, 0, 82, 0
2, 274440, Note_on_c, 0, 89, 0
2, 274560, Note_on_c, 0, 82, 100
2, 274560, Note_on_c, 0, 91, 100
2, 274890, Note_on_c, 0, 82, 0
2, 274890, Note_on_c, 0, 91, 0
2, 275280, Note_on_c, 0, 82, 100
2, 275280, Note_on_c, 0, 91, 100
2, 275400, Note_on_c, 0, 82, 0
2, 275400, Note_on_c, 0, 91, 0
2, 275520, Note_on_c, 0, 82, 100
2, 275520, Note_on_c, 0, 88, 100
2, 275850, Note_on_c, 0, 82, 0
2, 275850, Note_on_c, 0, 88, 0
2, 276240, Note_on_c, 0, 82, 100
2, 276240, Note_on_c, 0, 88, 100
2, 276360, Note_on_c, 0, 82, 0
2, 276360, Note_on_c, 0, 88, 0
2, 284160, Note_on_c, 0, 68, 110
2, 284160, Note_on_c, 0, 80, 110
2, 284490, Note_on_c, 0, 68, 0
2, 284490, Note_on_c, 0, 80, 0
2, 284880, Note_on_c, 0, 73, 110
2, 284880, Note_on_c, 0, 85, 110
2, 285000, Note_on_c, 0, 73, 0
2, 285000, Note_on_c, 0, 85, 0
2, 285120, Note_on_c, 0, 72, 110
2, 285120, Note_on_c, 0, 84, 110
2, 285450, Note_on_c, 0, 72, 0
2, 285450, Note_on_c, 0, 84, 0
2, 285840, Note_on_c, 0, 67, 110
2, 285840, Note_on_c, 0, 79, 110
2, 285960, Note_on_c, 0, 67, 0
2, 285960, Note_on_c, 0, 79, 0
2, 286080, Note_on_c, 0, 65, 110
2, 286080, Note_on_c, 0, 77, 110
2, 286410, Note_on_c, 0, 65, 0
2, 286410, Note_on_c, 0, 77, 0
2, 286800, Note_on_c, 0, 70, 110
2, 286800, Note_on_c, 0, 82, 110
2, 286920, Note_on_c, 0, 70, 0
2, 286920, Note_on_c, 0, 82, 0
2, 287040, Note_on_c, 0, 68, 110
2, 287040, Note_on_c, 0, 80, 110
2, 287370, Note_on_c, 0, 68, 0
2, 287370, Note_on_c, 0, 80, 0
2, 287760, Note_on_c, 0, 63, 110
2, 287760, Note_on_c, 0, 75, 110
2, 287880, Note_on_c, 0, 63, 0
2, 287880, Note_on_c, 0, 75, 0
2, 288000, Note_on_c, 0, 61, 110
2, 288000, Note_on_c, 0, 73, 110
2, 288330, Note_on_c, 0, 61, 0
2, 288330, Note_on_c, 0, 73, 0
2, 288720, Note_on_c, 0, 67, 110
2, 288720, Note_on_c, 0, 79, 110
2, 288840, Note_on_c, 0, 67, 0
2, 288840, Note_on_c, 0, 79, 0
2, 288960, Note_on_c, 0, 65, 110
2, 288960, Note_on_c, 0, 77, 110
2, 289290, Note_on_c, 0, 65, 0
2, 289290, Note_on_c, 0, 77, 0
2, 289680, Note_on_c, 0, 80, 110
2, 289680, Note_on_c, 0, 89, 110
2, 289800, Note_on_c, 0, 80, 0
2, 289800, Note_on_c, 0, 89, 0
2, 289920, Note_on_c, 0, 79, 110
2, 289920, Note_on_c, 0, 89, 110
2, 290250, Note_on_c, 0, 79, 0
2, 290250, Note_on_c, 0, 89, 0
2, 290640, Note_on_c, 0, 79, 110
2, 290640, Note_on_c, 0, 89, 110
2, 290760, Note_on_c, 0, 79, 0
2, 290760, Note_on_c, 0, 89, 0
2, 290880, Note_on_c, 0, 79, 110
2, 290880, Note_on_c, 0, 88, 110
2, 291210, Note_on_c, 0, 79, 0
2, 291210, Note_on_c, 0, 88, 0
2, 291600, Note_on_c, 0, 79, 110
2, 291600, Note_on_c, 0, 88, 110
2, 291720, Note_on_c, 0, 79, 0
2, 291720, Note_on_c, 0, 88, 0
2, 291840, Note_on_c, 0, 80, 110
2, 291840, Note_on_c, 0, 89, 110
2, 292170, Note_on_c, 0, 80, 0
2, 292170, Note_on_c, 0, 89, 0
2, 295680, Note_on_c, 0, 77, 120
2, 295680, Note_on_c, 0, 85, 120
2, 295890, Note_on_c, 0, 77, 0
2, 295890, Note_on_c, 0, 85, 0
2, 303360, Note_on_c, 0, 86, 110
2, 304290, Note_on_c, 0, 86, 0
2, 305280, Note_on_c, 0, 86, 110
2, 306210, Note_on_c, 0, 86, 0
2, 312960, Note_on_c, 0, 85, 120
2, 313890, Note_on_c, 0, 85, 0
2, 314880, Note_on_c, 0, 85, 120
2, 315810, Note_on_c, 0, 85, 0
2, 322080, Note_on_c, 0, 85, 120
2, 322560, Note_on_c, 0, 84, 120
2, 322590, Note_on_c, 0, 85, 0
2, 323880, Note_on_c, 0, 84, 0
2, 324000, Note_on_c, 0, 85, 120
2, 324480, Note_on_c, 0, 84, 120
2, 324510, Note_on_c, 0, 85, 0
2, 325800, Note_on_c, 0, 84, 0
2, 325920, Note_on_c, 0, 85, 120
2, 326400, Note_on_c, 0, 84, 120
2, 326430, Note_on_c, 0, 85, 0
2, 327720, Note_on_c, 0, 84, 0
2, 327840, Note_on_c, 0, 85, 120
2, 328320, Note_on_c, 0, 84, 120
2, 328350, Note_on_c, 0, 85, 0
2, 329430, Note_on_c, 0, 84, 0
2, 329760, Note_on_c, 0, 87, 120
2, 330240, Note_on_c, 0, 86, 120
2, 330270, Note_on_c, 0, 87, 0
2, 331560, Note_on_c, 0, 86, 0
2, 331680, Note_on_c, 0, 87, 120
2, 332160, Note_on_c, 0, 86, 120
2, 332190, Note_on_c, 0, 87, 0
2, 333480, Note_on_c, 0, 86, 0
2, 333600, Note_on_c, 0, 87, 120
2, 334080, Note_on_c, 0, 86, 120
2, 334110, Note_on_c, 0, 87, 0
2, 335400, Note_on_c, 0, 86, 0
2, 335520, Note_on_c, 0, 87, 120
2, 336000, Note_on_c, 0, 86, 120
2, 336030, Note_on_c, 0, 87, 0
2, 337320, Note_on_c, 0, 86, 0
2, 337440, Note_on_c, 0, 87, 120
2, 337920, Note_on_c, 0, 86, 120
2, 337950, Note_on_c, 0, 87, 0
2, 338400, Note_on_c, 0, 86, 0
2, 357120, Note_on_c, 0, 88, 90
2, 357120, Control_c, 0, 11, 80
2, 357250, Control_c, 0, 11, 81
2, 357370, Control_c, 0, 11, 82
2, 357500, Control_c, 0, 11, 83
2, 357620, Control_c, 0, 11, 84
2, 357740, Control_c, 0, 11, 85
2, 357870, Control_c, 0, 11, 86
2, 357990, Control_c, 0, 11, 87
2, 358120, Control_c, 0, 11, 88
2, 358240, Control_c, 0, 11, 89
2, 358360, Control_c, 0, 11, 90
2, 358490, Control_c, 0, 11, 91
2, 358560, Note_on_c, 0, 89, 90
2, 358590, Note_on_c, 0, 88, 0
2, 358610, Control_c, 0, 11, 92
2, 358740, Control_c, 0, 11, 93
2, 358860, Control_c, 0, 11, 94
2, 358980, Control_c, 0, 11, 95
2, 359040, Note_on_c, 0, 88, 90
2, 359070, Note_on_c, 0, 89, 0
2, 359110, Control_c, 0, 11, 96
2, 359230, Control_c, 0, 11, 97
2, 359350, Control_c, 0, 11, 98
2, 359480, Control_c, 0, 11, 99
2, 359520, Note_on_c, 0, 86, 90
2, 359550, Note_on_c, 0, 88, 0
2, 359600, Control_c, 0, 11, 100
2, 359730, Control_c, 0, 11, 101
2, 359850, Control_c, 0, 11, 102
2, 359970, Control_c, 0, 11, 103
2, 360000, Note_on_c, 0, 83, 90
2, 360030, Note_on_c, 0, 86, 0
2, 360100, Control_c, 0, 11, 104
2, 360220, Control_c, 0, 11, 105
2, 360350, Control_c, 0, 11, 106
2, 360470, Control_c, 0, 11, 107
2, 360480, Note_on_c, 0, 79, 90
2, 360510, Note_on_c, 0, 83, 0
2, 360590, Control_c, 0, 11, 108
2, 360720, Control_c, 0, 11, 109
2, 360840, Control_c, 0, 11, 110
2, 360930, Note_on_c, 0, 79, 0
2, 360960, Note_on_c, 0, 79, 90
2, 361890, Note_on_c, 0, 79, 0
2, 361920, Note_on_c, 0, 82, 90
2, 362850, Note_on_c, 0, 82, 0
2, 362880, Note_on_c, 0, 81, 90
2, 364797, Control_c, 0, 11, 80
2, 365250, Note_on_c, 0, 81, 0
2, 372480, Note_on_c, 0, 81, 90
2, 372480, Control_c, 0, 11, 80
2, 372610, Control_c, 0, 11, 81
2, 372730, Control_c, 0, 11, 82
2, 372860, Control_c, 0, 11, 83
2, 372980, Control_c, 0, 11, 84
2, 373100, Control_c, 0, 11, 85
2, 373230, Control_c, 0, 11, 86
2, 373350, Control_c, 0, 11, 87
2, 373480, Control_c, 0, 11, 88
2, 373600, Control_c, 0, 11, 89
2, 373720, Control_c, 0, 11, 90
2, 373850, Control_c, 0, 11, 91
2, 373970, Control_c, 0, 11, 92
2, 374100, Control_c, 0, 11, 93
2, 374220, Control_c, 0, 11, 94
2, 374340, Control_c, 0, 11, 95
2, 374470, Control_c, 0, 11, 96
2, 374590, Control_c, 0, 11, 97
2, 374710, Control_c, 0, 11, 98
2, 374840, Control_c, 0, 11, 99
2, 374960, Control_c, 0, 11, 100
2, 375090, Control_c, 0, 11, 101
2, 375210, Control_c, 0, 11, 102
2, 375330, Control_c, 0, 11, 103
2, 375460, Control_c, 0, 11, 104
2, 375580, Control_c, 0, 11, 105
2, 375710, Control_c, 0, 11, 106
2, 375830, Control_c, 0, 11, 107
2, 375950, Control_c, 0, 11, 108
2, 376080, Control_c, 0, 11, 109
2, 376200, Control_c, 0, 11, 110
2, 376290, Note_on_c, 0, 81, 0
2, 376320, Note_on_c, 0, 81, 90
2, 377250, Note_on_c, 0, 81, 0
2, 377280, Note_on_c, 0, 84, 90
2, 378210, Note_on_c, 0, 84, 0
2, 378240, Note_on_c, 0, 83, 90
2, 379170, Note_on_c, 0, 83, 0
2, 379200, Note_on_c, 0, 81, 90
2, 380130, Note_on_c, 0, 81, 0
2, 380157, Control_c, 0, 11, 80
2, 380160, Note_on_c, 0, 79, 90
2, 381600, Note_on_c, 0, 81, 90
2, 381630, Note_on_c, 0, 79, 0
2, 382080, Note_on_c, 0, 79, 90
2, 382080, Control_c, 0, 11, 80
2, 382110, Note_on_c, 0, 81, 0
2, 382280, Control_c, 0, 11, 81
2, 382470, Control_c, 0, 11, 82
2, 382560, Note_on_c, 0, 78, 90
2, 382590, Note_on_c, 0, 79, 0
2, 382660, Control_c, 0, 11, 83
2, 382850, Control_c, 0, 11, 84
2, 383040, Note_on_c, 0, 75, 90
2, 383040, Control_c, 0, 11, 85
2, 383070, Note_on_c, 0, 78, 0
2, 383240, Control_c, 0, 11, 86
2, 383430, Control_c, 0, 11, 87
2, 383520, Note_on_c, 0, 71, 90
2, 383550, Note_on_c, 0, 75, 0
2, 383620, Control_c, 0, 11, 88
2, 383810, Control_c, 0, 11, 89
2, 383970, Note_on_c, 0, 71, 0
2, 384000, Note_on_c, 0, 76, 90
2, 384000, Note_on_c, 0, 79, 90
2, 384000, Control_c, 0, 11, 90
2, 384200, Control_c, 0, 11, 91
2, 384390, Control_c, 0, 11, 92
2, 384580, Control_c, 0, 11, 93
2, 384770, Control_c, 0, 11, 94
2, 384960, Control_c, 0, 11, 95
2, 385160, Control_c, 0, 11, 96
2, 385350, Control_c, 0, 11, 97
2, 385540, Control_c, 0, 11, 98
2, 385730, Control_c, 0, 11, 99
2, 385920, Note_on_c, 0, 74, 90
2, 385920, Control_c, 0, 11, 100
2, 385950, Note_on_c, 0, 76, 0
2, 386120, Control_c, 0, 11, 101
2, 386310, Control_c, 0, 11, 102
2, 386500, Control_c, 0, 11, 103
2, 386690, Control_c, 0, 11, 104
2, 386880, Control_c, 0, 11, 105
2, 387080, Control_c, 0, 11, 106
2, 387270, Control_c, 0, 11, 107
2, 387460, Control_c, 0, 11, 108
2, 387650, Control_c, 0, 11, 109
2, 387810, Note_on_c, 0, 74, 0
2, 387810, Note_on_c, 0, 79, 0
2, 387840, Note_on_c, 0, 72, 90
2, 387840, Note_on_c, 0, 79, 90
2, 387840, Control_c, 0, 11, 110
2, 387900, Control_c, 0, 11, 109
2, 387960, Control_c, 0, 11, 108
2, 388020, Control_c, 0, 11, 107
2, 388080, Control_c, 0, 11, 106
2, 388140, Control_c, 0, 11, 105
2, 388200, Control_c, 0, 11, 104
2, 388260, Control_c, 0, 11, 103
2, 388290, Note_on_c, 0, 72, 0
2, 388290, Note_on_c, 0, 79, 0
2, 388320, Control_c, 0, 11, 102
2, 388380, Control_c, 0, 11, 101
2, 388440, Control_c, 0, 11, 100
2, 388500, Control_c, 0, 11, 99
2, 388560, Control_c, 0, 11, 98
2, 388620, Control_c, 0, 11, 97
2, 388680, Control_c, 0, 11, 96
2, 388740, Control_c, 0, 11, 95
2, 388800, Control_c, 0, 11, 94
2, 388860, Control_c, 0, 11, 93
2, 388920, Control_c, 0, 11, 92
2, 388980, Control_c, 0, 11, 91
2, 389040, Control_c, 0, 11, 90
2, 389100, Control_c, 0, 11, 89
2, 389160, Control_c, 0, 11, 88
2, 389220, Control_c, 0, 11, 87
2, 389280, Control_c, 0, 11, 86
2, 389340, Control_c, 0, 11, 85
2, 389400, Control_c, 0, 11, 84
2, 389460, Control_c, 0, 11, 83
2, 389520, Control_c, 0, 11, 82
2, 389580, Control_c, 0, 11, 81
2, 389640, Control_c, 0, 11, 80
2, 392160, Note_on_c, 0, 89, 90
2, 393120, Note_on_c, 0, 87, 90
2, 393150, Note_on_c, 0, 89, 0
2, 393570, Note_on_c, 0, 87, 0
2, 393600, Note_on_c, 0, 87, 90
2, 394080, Note_on_c, 0, 86, 90
2, 394110, Note_on_c, 0, 87, 0
2, 394560, Note_on_c, 0, 87, 90
2, 394590, Note_on_c, 0, 86, 0
2, 395040, Note_on_c, 0, 84, 90
2, 395070, Note_on_c, 0, 87, 0
2, 395490, Note_on_c, 0, 84, 0
2, 395520, Note_on_c, 0, 83, 90
2, 395970, Note_on_c, 0, 83, 0
2, 407040, Note_on_c, 0, 74, 110
2, 407040, Note_on_c, 0, 80, 110
2, 408480, Note_on_c, 0, 75, 110
2, 408480, Note_on_c, 0, 79, 110
2, 408510, Note_on_c, 0, 74, 0
2, 408510, Note_on_c, 0, 80, 0
2, 408930, Note_on_c, 0, 75, 0
2, 408930, Note_on_c, 0, 79, 0
2, 408960, Note_on_c, 0, 71, 110
2, 408960, Note_on_c, 0, 83, 110
2, 409440, Note_on_c, 0, 72, 110
2, 409440, Note_on_c, 0, 84, 110
2, 409470, Note_on_c, 0, 71, 0
2, 409470, Note_on_c, 0, 83, 0
2, 409920, Note_on_c, 0, 71, 110
2, 409920, Note_on_c, 0, 83, 110
2, 409950, Note_on_c, 0, 72, 0
2, 409950, Note_on_c, 0, 84, 0
2, 410400, Note_on_c, 0, 72, 110
2, 410400, Note_on_c, 0, 84, 110
2, 410430, Note_on_c, 0, 71, 0
2, 410430, Note_on_c, 0, 83, 0
2, 410730, Note_on_c, 0, 72, 0
2, 410730, Note_on_c, 0, 84, 0
2, 410880, Note_on_c, 0, 74, 110
2, 410880, Note_on_c, 0, 80, 110
2, 412320, Note_on_c, 0, 75, 110
2, 412320, Note_on_c, 0, 79, 110
2, 412350, Note_on_c, 0, 74, 0
2, 412350, Note_on_c, 0, 80, 0
2, 412770, Note_on_c, 0, 75, 0
2, 412770, Note_on_c, 0, 79, 0
2, 412800, Note_on_c, 0, 71, 110
2, 412800, Note_on_c, 0, 83, 110
2, 413280, Note_on_c, 0, 72, 110
2, 413280, Note_on_c, 0, 84, 110
2, 413310, Note_on_c, 0, 71, 0
2, 413310, Note_on_c, 0, 83, 0
2, 413760, Note_on_c, 0, 71, 110
2, 413760, Note_on_c, 0, 83, 110
2, 413790, Note_on_c, 0, 72, 0
2, 413790, Note_on_c, 0, 84, 0
2, 414240, Note_on_c, 0, 72, 110
2, 414240, Note_on_c, 0, 84, 110
2, 414270, Note_on_c, 0, 71, 0
2, 414270, Note_on_c, 0, 83, 0
2, 414570, Note_on_c, 0, 72, 0
2, 414570, Note_on_c, 0, 84, 0
2, 414720, Note_on_c, 0, 79, 110
2, 414720, Note_on_c, 0, 85, 110
2, 416160, Note_on_c, 0, 80, 110
2, 416160, Note_on_c, 0, 84, 110
2, 416190, Note_on_c, 0, 79, 0
2, 416190, Note_on_c, 0, 85, 0
2, 416610, Note_on_c, 0, 80, 0
2, 416610, Note_on_c, 0, 84, 0
2, 416640, Note_on_c, 0, 82, 110
2, 416640, Note_on_c, 0, 88, 110
2, 417120, Note_on_c, 0, 80, 110
2, 417120, Note_on_c, 0, 89, 110
2, 417150, Note_on_c, 0, 82, 0
2, 417150, Note_on_c, 0, 88, 0
2, 417600, Note_on_c, 0, 82, 110
2, 417600, Note_on_c, 0, 88, 110
2, 417630, Note_on_c, 0, 80, 0
2, 417630, Note_on_c, 0, 89, 0
2, 418080, Note_on_c, 0, 80, 110
2, 418080, Note_on_c, 0, 89, 110
2, 418110, Note_on_c, 0, 82, 0
2, 418110, Note_on_c, 0, 88, 0
2, 418410, Note_on_c, 0, 80, 0
2, 418410, Note_on_c, 0, 89, 0
2, 418560, Note_on_c, 0, 79, 110
2, 418560, Note_on_c, 0, 85, 110
2, 420000, Note_on_c, 0, 80, 110
2, 420000, Note_on_c, 0, 84, 110
2, 420030, Note_on_c, 0, 79, 0
2, 420030, Note_on_c, 0, 85, 0
2, 420450, Note_on_c, 0, 80, 0
2, 420450, Note_on_c, 0, 84, 0
2, 420480, Note_on_c, 0, 82, 110
2, 420480, Note_on_c, 0, 88, 110
2, 420960, Note_on_c, 0, 80, 110
2, 420960, Note_on_c, 0, 89, 110
2, 420990, Note_on_c, 0, 82, 0
2, 420990, Note_on_c, 0, 88, 0
2, 421440, Note_on_c, 0, 82, 110
2, 421440, Note_on_c, 0, 88, 110
2, 421470, Note_on_c, 0, 80, 0
2, 421470, Note_on_c, 0, 89, 0
2, 421920, Note_on_c, 0, 80, 110
2, 421920, Note_on_c, 0, 89, 110
2, 421950, Note_on_c, 0, 82, 0
2, 421950, Note_on_c, 0, 88, 0
2, 422370, Note_on_c, 0, 80, 0
2, 422370, Note_on_c, 0, 89, 0
2, 423360, Note_on_c, 0, 85, 120
2, 423840, Note_on_c, 0, 84, 120
2, 423870, Note_on_c, 0, 85, 0
2, 424290, Note_on_c, 0, 84, 0
2, 425280, Note_on_c, 0, 85, 120
2, 425760, Note_on_c, 0, 84, 120
2, 425790, Note_on_c, 0, 85, 0
2, 426210, Note_on_c, 0, 84, 0
2, 427200, Note_on_c, 0, 85, 120
2, 427680, Note_on_c, 0, 84, 120
2, 427710, Note_on_c, 0, 85, 0
2, 428130, Note_on_c, 0, 84, 0
2, 429120, Note_on_c, 0, 85, 120
2, 429600, Note_on_c, 0, 84, 120
2, 429630, Note_on_c, 0, 85, 0
2, 430050, Note_on_c, 0, 84, 0
2, 430080, Note_on_c, 0, 85, 110
2, 431010, Note_on_c, 0, 85, 0
2, 431040, Note_on_c, 0, 83, 110
2, 431970, Note_on_c, 0, 83, 0
2, 432000, Note_on_c, 0, 84, 110
2, 432930, Note_on_c, 0, 84, 0
2, 432960, Note_on_c, 0, 81, 110
2, 432960, Note_on_c, 0, 89, 110
2, 433890, Note_on_c, 0, 81, 0
2, 433920, Note_on_c, 0, 83, 110
2, 434850, Note_on_c, 0, 83, 0
2, 434850, Note_on_c, 0, 89, 0
2, 434880, Note_on_c, 0, 84, 110
2, 434880, Note_on_c, 0, 89, 110
2, 435810, Note_on_c, 0, 84, 0
2, 435840, Note_on_c, 0, 86, 110
2, 436770, Note_on_c, 0, 86, 0
2, 436800, Note_on_c, 0, 84, 110
2, 437730, Note_on_c, 0, 84, 0
2, 437730, Note_on_c, 0, 89, 0
2, 437760, Note_on_c, 0, 83, 90
2, 437760, Note_on_c, 0, 89, 90
2, 438210, Note_on_c, 0, 83, 0
2, 438210, Note_on_c, 0, 89, 0
2, 438720, Note_on_c, 0, 80, 90
2, 438720, Note_on_c, 0, 92, 90
2, 439170, Note_on_c, 0, 80, 0
2, 439170, Note_on_c, 0, 92, 0
2, 439680, Note_on_c, 0, 77, 90
2, 439680, Note_on_c, 0, 89, 90
2, 440130, Note_on_c, 0, 77, 0
2, 440130, Note_on_c, 0, 89, 0
2, 440640, Note_on_c, 0, 79, 90
2, 440640, Note_on_c, 0, 91, 90
2, 441090, Note_on_c, 0, 79, 0
2, 441090, Note_on_c, 0, 91, 0
2, 441600, Note_on_c, 0, 72, 80
2, 441600, Note_on_c, 0, 84, 80
2, 442050, Note_on_c, 0, 72, 0
2, 442050, Note_on_c, 0, 84, 0
2, 445200, Note_on_c, 0, 79, 100
2, 445200, Note_on_c, 0, 86, 100
2, 445320, Note_on_c, 0, 79, 0
2, 445320, Note_on_c, 0, 86, 0
2, 445440, Note_on_c, 0, 79, 100
2, 445440, Note_on_c, 0, 87, 100
2, 445770, Note_on_c, 0, 79, 0
2, 445770, Note_on_c, 0, 87, 0
2, 449040, Note_on_c, 0, 79, 100
2, 449040, Note_on_c, 0, 86, 100
2, 449160, Note_on_c, 0, 79, 0
2, 449160, Note_on_c, 0, 86, 0
2, 449280, Note_on_c, 0, 79, 100
2, 449280, Note_on_c, 0, 87, 100
2, 449610, Note_on_c, 0, 79, 0
2, 449610, Note_on_c, 0, 87, 0
2, 456960, Note_on_c, 0, 75, 100
2, 456960, Note_on_c, 0, 87, 100
2, 457410, Note_on_c, 0, 75, 0
2, 457410, Note_on_c, 0, 87, 0
2, 457920, Note_on_c, 0, 74, 100
2, 457920, Note_on_c, 0, 86, 100
2, 458370, Note_on_c, 0, 74, 0
2, 458370, Note_on_c, 0, 86, 0
2, 458880, Note_on_c, 0, 72, 100
2, 458880, Note_on_c, 0, 84, 100
2, 459330, Note_on_c, 0, 72, 0
2, 459330, Note_on_c, 0, 84, 0
2, 459600, Note_on_c, 0, 77, 100
2, 459600, Note_on_c, 0, 89, 100
2, 459720, Note_on_c, 0, 77, 0
2, 459720, Note_on_c, 0, 89, 0
2, 459840, Note_on_c, 0, 75, 100
2, 459840, Note_on_c, 0, 87, 100
2, 460170, Note_on_c, 0, 75, 0
2, 460170, Note_on_c, 0, 87, 0
2, 460560, Note_on_c, 0, 70, 100
2, 460560, Note_on_c, 0, 82, 100
2, 460680, Note_on_c, 0, 70, 0
2, 460680, Note_on_c, 0, 82, 0
2, 460800, Note_on_c, 0, 68, 100
2, 460800, Note_on_c, 0, 80, 100
2, 460950, Note_on_c, 0, 68, 0
2, 460950, Note_on_c, 0, 80, 0
2, 461280, Note_on_c, 0, 73, 100
2, 461280, Note_on_c, 0, 85, 100
2, 461550, Note_on_c, 0, 73, 0
2, 461550, Note_on_c, 0, 85, 0
2, 483840, Note_on_c, 0, 87, 60
2, 485280, Note_on_c, 0, 89, 72
2, 485310, Note_on_c, 0, 87, 0
2, 485760, Note_on_c, 0, 87, 76
2, 485790, Note_on_c, 0, 89, 0
2, 486240, Note_on_c, 0, 86, 80
2, 486270, Note_on_c, 0, 87, 0
2, 486720, Note_on_c, 0, 83, 85
2, 486750, Note_on_c, 0, 86, 0
2, 487200, Note_on_c, 0, 79, 89
2, 487230, Note_on_c, 0, 83, 0
2, 487650, Note_on_c, 0, 79, 0
2, 487680, Note_on_c, 0, 79, 93
2, 489570, Note_on_c, 0, 79, 0
2, 489600, Note_on_c, 0, 80, 110
2, 491517, Note_on_c, 0, 80, 0
2, 491520, Note_on_c, 0, 80, 60
2, 493410, Note_on_c, 0, 80, 0
2, 493440, Note_on_c, 0, 82, 110
2, 495357, Note_on_c, 0, 82, 0
2, 495360, Note_on_c, 0, 82, 60
2, 497250, Note_on_c, 0, 82, 0
2, 497280, Note_on_c, 0, 84, 110
2, 499197, Note_on_c, 0, 84, 0
2, 499200, Note_on_c, 0, 84, 80
2, 501117, Note_on_c, 0, 84, 0
2, 501120, Note_on_c, 0, 84, 87
2, 503037, Note_on_c, 0, 84, 0
2, 503040, Note_on_c, 0, 84, 95
2, 504957, Note_on_c, 0, 84, 0
2, 504960, Note_on_c, 0, 84, 100
2, 506877, Note_on_c, 0, 84, 0
2, 506880, Note_on_c, 0, 84, 100
2, 516390, Note_on_c, 0, 84, 0
2, 516480, Note_on_c, 0, 86, 100
2, 518370, Note_on_c, 0, 86, 0
2, 518400, Note_on_c, 0, 87, 100
2, 518730, Note_on_c, 0, 87, 0
2, 519120, Note_on_c, 0, 83, 100
2, 519270, Note_on_c, 0, 83, 0
2, 519360, Note_on_c, 0, 84, 100
2, 519690, Note_on_c, 0, 84, 0
2, 520080, Note_on_c, 0, 80, 100
2, 520230, Note_on_c, 0, 80, 0
2, 520320, Note_on_c, 0, 79, 100
2, 520650, Note_on_c, 0, 79, 0
2, 521040, Note_on_c, 0, 80, 100
2, 521190, Note_on_c, 0, 80, 0
2, 521280, Note_on_c, 0, 79, 100
2, 521610, Note_on_c, 0, 79, 0
2, 522000, Note_on_c, 0, 89, 100
2, 522150, Note_on_c, 0, 89, 0
2, 522240, Note_on_c, 0, 87, 100
2, 522570, Note_on_c, 0, 87, 0
2, 522960, Note_on_c, 0, 83, 100
2, 523110, Note_on_c, 0, 83, 0
2, 523200, Note_on_c, 0, 84, 100
2, 523530, Note_on_c, 0, 84, 0
2, 523920, Note_on_c, 0, 80, 100
2, 524070, Note_on_c, 0, 80, 0
2, 524160, Note_on_c, 0, 79, 100
2, 524490, Note_on_c, 0, 79, 0
2, 524880, Note_on_c, 0, 80, 100
2, 525030, Note_on_c, 0, 80, 0
2, 525120, Note_on_c, 0, 79, 100
2, 525450, Note_on_c, 0, 79, 0
2, 525840, Note_on_c, 0, 89, 100
2, 525990, Note_on_c, 0, 89, 0
2, 526080, Note_on_c, 0, 87, 100
2, 526410, Note_on_c, 0, 87, 0
2, 526800, Note_on_c, 0, 83, 100
2, 526950, Note_on_c, 0, 83, 0
2, 527040, Note_on_c, 0, 84, 100
2, 527370, Note_on_c, 0, 84, 0
2, 527760, Note_on_c, 0, 83, 100
2, 527910, Note_on_c, 0, 83, 0
2, 528000, Note_on_c, 0, 84, 100
2, 528330, Note_on_c, 0, 84, 0
2, 528720, Note_on_c, 0, 83, 100
2, 528870, Note_on_c, 0, 83, 0
2, 528960, Note_on_c, 0, 84, 100
2, 529290, Note_on_c, 0, 84, 0
2, 529680, Note_on_c, 0, 83, 100
2, 529830, Note_on_c, 0, 83, 0
2, 529920, Note_on_c, 0, 84, 80
2, 530250, Note_on_c, 0, 84, 0
2, 533760, Note_on_c, 0, 80, 90
2, 533760, Note_on_c, 0, 84, 90
2, 533970, Note_on_c, 0, 80, 0
2, 533970, Note_on_c, 0, 84, 0
2, 537600, Note_on_c, 0, 72, 50
2, 541170, Note_on_c, 0, 72, 0
2, 541440, Note_on_c, 0, 83, 90
2, 541440, Note_on_c, 0, 86, 90
2, 541650, Note_on_c, 0, 83, 0
2, 541650, Note_on_c, 0, 86, 0
2, 545280, Note_on_c, 0, 72, 50
2, 548850, Note_on_c, 0, 72, 0
2, 549120, Note_on_c, 0, 75, 90
2, 549120, Note_on_c, 0, 87, 90
2, 549330, Note_on_c, 0, 75, 0
2, 549330, Note_on_c, 0, 87, 0
2, 549600, Note_on_c, 0, 74, 90
2, 549600, Note_on_c, 0, 83, 90
2, 549840, Note_on_c, 0, 74, 0
2, 549840, Note_on_c, 0, 83, 0
2, 552960, Note_on_c, 0, 72, 80
2, 552960, Note_on_c, 0, 84, 80
2, 553170, Note_on_c, 0, 72, 0
2, 553170, Note_on_c, 0, 84, 0
2, 553440, Note_on_c, 0, 79, 80
2, 553440, Note_on_c, 0, 84, 80
2, 553650, Note_on_c, 0, 79, 0
2, 553650, Note_on_c, 0, 84, 0
2, 554880, Note_on_c, 0, 80, 80
2, 554880, Note_on_c, 0, 84, 80
2, 555090, Note_on_c, 0, 80, 0
2, 555090, Note_on_c, 0, 84, 0
2, 555360, Note_on_c, 0, 76, 80
2, 555360, Note_on_c, 0, 84, 80
2, 555570, Note_on_c, 0, 76, 0
2, 555570, Note_on_c, 0, 84, 0
2, 556800, Note_on_c, 0, 77, 75
2, 556800, Note_on_c, 0, 84, 75
2, 557160, Note_on_c, 0, 77, 0
2, 557160, Note_on_c, 0, 84, 0
2, 557760, Note_on_c, 0, 77, 73
2, 557760, Note_on_c, 0, 86, 73
2, 558120, Note_on_c, 0, 77, 0
2, 558120, Note_on_c, 0, 86, 0
2, 560640, Note_on_c, 0, 75, 65
2, 560640, Note_on_c, 0, 87, 65
2, 561060, Note_on_c, 0, 75, 0
2, 561060, Note_on_c, 0, 87, 0
2, 564480, Note_on_c, 0, 71, 30
2, 564480, Note_on_c, 0, 74, 30
2, 564870, Note_on_c, 0, 71, 0
2, 564870, Note_on_c, 0, 74, 0
2, 568320, Note_on_c, 0, 72, 30
2, 568680, Note_on_c, 0, 72, 0
2, 568680, End_track
3, 0, Start_track
3, 0, Channel_prefix, 1
3, 0, Title_t, "Oboe    "
3, 0, Instrument_name_t, "Oboi    "
3, 5760, Note_on_c, 1, 77, 120
3, 5760, Note_on_c, 1, 80, 120
3, 5910, Note_on_c, 1, 77, 0
3, 5910, Note_on_c, 1, 80, 0
3, 13440, Note_on_c, 1, 77, 120
3, 13440, Note_on_c, 1, 80, 120
3, 13590, Note_on_c, 1, 77, 0
3, 13590, Note_on_c, 1, 80, 0
3, 21120, Note_on_c, 1, 75, 120
3, 21120, Note_on_c, 1, 81, 120
3, 21270, Note_on_c, 1, 75, 0
3, 21270, Note_on_c, 1, 81, 0
3, 24960, Note_on_c, 1, 75, 110
3, 24960, Note_on_c, 1, 79, 110
3, 25170, Note_on_c, 1, 75, 0
3, 25170, Note_on_c, 1, 79, 0
3, 26880, Note_on_c, 1, 71, 110
3, 26880, Note_on_c, 1, 79, 110
3, 27120, Note_on_c, 1, 71, 0
3, 27120, Note_on_c, 1, 79, 0
3, 36480, Note_on_c, 1, 80, 80
3, 36480, Control_c, 1, 11, 80
3, 36590, Control_c, 1, 11, 81
3, 36700, Control_c, 1, 11, 82
3, 36810, Control_c, 1, 11, 83
3, 36920, Control_c, 1, 11, 84
3, 37030, Control_c, 1, 11, 85
3, 37140, Control_c, 1, 11, 86
3, 37240, Control_c, 1, 11, 87
3, 37350, Control_c, 1, 11, 88
3, 37440, Note_on_c, 1, 79, 85
3, 37460, Control_c, 1, 11, 89
3, 37470, Note_on_c, 1, 80, 0
3, 37570, Control_c, 1, 11, 90
3, 37680, Control_c, 1, 11, 91
3, 37790, Control_c, 1, 11, 92
3, 37890, Control_c, 1, 11, 93
3, 38000, Control_c, 1, 11, 94
3, 38110, Control_c, 1, 11, 95
3, 38220, Control_c, 1, 11, 96
3, 38330, Control_c, 1, 11, 97
3, 38400, Note_on_c, 1, 78, 91
3, 38430, Note_on_c, 1, 79, 0
3, 38440, Control_c, 1, 11, 98
3, 38540, Control_c, 1, 11, 99
3, 38650, Control_c, 1, 11, 100
3, 38760, Control_c, 1, 11, 101
3, 38870, Control_c, 1, 11, 102
3, 38980, Control_c, 1, 11, 103
3, 39090, Control_c, 1, 11, 104
3, 39190, Control_c, 1, 11, 105
3, 39300, Control_c, 1, 11, 106
3, 39410, Control_c, 1, 11, 107
3, 39520, Control_c, 1, 11, 108
3, 39630, Control_c, 1, 11, 109
3, 39740, Control_c, 1, 11, 110
3, 39750, Note_on_c, 1, 78, 0
3, 39840, Note_on_c, 1, 71, 100
3, 39840, Note_on_c, 1, 79, 100
3, 40170, Note_on_c, 1, 71, 0
3, 40170, Note_on_c, 1, 79, 0
3, 40317, Control_c, 1, 11, 80
3, 49920, Note_on_c, 1, 78, 80
3, 49920, Control_c, 1, 11, 80
3, 50030, Control_c, 1, 11, 81
3, 50140, Control_c, 1, 11, 82
3, 50250, Control_c, 1, 11, 83
3, 50360, Control_c, 1, 11, 84
3, 50470, Control_c, 1, 11, 85
3, 50580, Control_c, 1, 11, 86
3, 50680, Control_c, 1, 11, 87
3, 50790, Control_c, 1, 11, 88
3, 50850, Note_on_c, 1, 78, 0
3, 50880, Note_on_c, 1, 77, 85
3, 50900, Control_c, 1, 11, 89
3, 51010, Control_c, 1, 11, 90
3, 51120, Control_c, 1, 11, 91
3, 51230, Control_c, 1, 11, 92
3, 51330, Control_c, 1, 11, 93
3, 51440, Control_c, 1, 11, 94
3, 51550, Control_c, 1, 11, 95
3, 51660, Control_c, 1, 11, 96
3, 51770, Control_c, 1, 11, 97
3, 51880, Control_c, 1, 11, 98
3, 51980, Control_c, 1, 11, 99
3, 52090, Control_c, 1, 11, 100
3, 52200, Control_c, 1, 11, 101
3, 52230, Note_on_c, 1, 77, 0
3, 52310, Control_c, 1, 11, 102
3, 52320, Note_on_c, 1, 70, 100
3, 52320, Note_on_c, 1, 76, 100
3, 52420, Control_c, 1, 11, 103
3, 52530, Control_c, 1, 11, 104
3, 52630, Control_c, 1, 11, 105
3, 52650, Note_on_c, 1, 70, 0
3, 52650, Note_on_c, 1, 76, 0
3, 52740, Control_c, 1, 11, 106
3, 52850, Control_c, 1, 11, 107
3, 52960, Control_c, 1, 11, 108
3, 53070, Control_c, 1, 11, 109
3, 53180, Control_c, 1, 11, 110
3, 53757, Control_c, 1, 11, 80
3, 55680, Note_on_c, 1, 77, 80
3, 56640, Note_on_c, 1, 75, 80
3, 56670, Note_on_c, 1, 77, 0
3, 57570, Note_on_c, 1, 75, 0
3, 57600, Note_on_c, 1, 74, 80
3, 59490, Note_on_c, 1, 74, 0
3, 59520, Note_on_c, 1, 74, 85
3, 61410, Note_on_c, 1, 74, 0
3, 61440, Note_on_c, 1, 74, 90
3, 62370, Note_on_c, 1, 74, 0
3, 62400, Note_on_c, 1, 74, 92
3, 63330, Note_on_c, 1, 74, 0
3, 63360, Note_on_c, 1, 74, 95
3, 64290, Note_on_c, 1, 74, 0
3, 64320, Note_on_c, 1, 74, 97
3, 65250, Note_on_c, 1, 74, 0
3, 65280, Note_on_c, 1, 72, 100
3, 65280, Note_on_c, 1, 77, 100
3, 67680, Note_on_c, 1, 75, 100
3, 67710, Note_on_c, 1, 72, 0
3, 67710, Note_on_c, 1, 77, 0
3, 68160, Note_on_c, 1, 73, 100
3, 68190, Note_on_c, 1, 75, 0
3, 68640, Note_on_c, 1, 72, 100
3, 68670, Note_on_c, 1, 73, 0
3, 69090, Note_on_c, 1, 72, 0
3, 69120, Note_on_c, 1, 71, 100
3, 69120, Note_on_c, 1, 77, 100
3, 69810, Note_on_c, 1, 71, 0
3, 69810, Note_on_c, 1, 77, 0
3, 70080, Note_on_c, 1, 72, 100
3, 70080, Note_on_c, 1, 75, 100
3, 70770, Note_on_c, 1, 72, 0
3, 70770, Note_on_c, 1, 75, 0
3, 71040, Note_on_c, 1, 74, 100
3, 71040, Note_on_c, 1, 79, 100
3, 71730, Note_on_c, 1, 74, 0
3, 71730, Note_on_c, 1, 79, 0
3, 72000, Note_on_c, 1, 75, 100
3, 72000, Note_on_c, 1, 79, 100
3, 72690, Note_on_c, 1, 75, 0
3, 72690, Note_on_c, 1, 79, 0
3, 72960, Note_on_c, 1, 76, 100
3, 72960, Note_on_c, 1, 79, 100
3, 73650, Note_on_c, 1, 76, 0
3, 73650, Note_on_c, 1, 79, 0
3, 73920, Note_on_c, 1, 72, 100
3, 73920, Note_on_c, 1, 77, 100
3, 74610, Note_on_c, 1, 72, 0
3, 74610, Note_on_c, 1, 77, 0
3, 74880, Note_on_c, 1, 76, 100
3, 74880, Note_on_c, 1, 79, 100
3, 75570, Note_on_c, 1, 76, 0
3, 75570, Note_on_c, 1, 79, 0
3, 75840, Note_on_c, 1, 77, 100
3, 75840, Note_on_c, 1, 80, 100
3, 76530, Note_on_c, 1, 77, 0
3, 76530, Note_on_c, 1, 80, 0
3, 76800, Note_on_c, 1, 75, 110
3, 76800, Note_on_c, 1, 81, 110
3, 77760, Note_on_c, 1, 75, 0
3, 77760, Note_on_c, 1, 81, 0
3, 78720, Note_on_c, 1, 75, 110
3, 78720, Note_on_c, 1, 81, 110
3, 79680, Note_on_c, 1, 75, 0
3, 79680, Note_on_c, 1, 81, 0
3, 80640, Note_on_c, 1, 74, 110
3, 80640, Note_on_c, 1, 80, 110
3, 81600, Note_on_c, 1, 74, 0
3, 81600, Note_on_c, 1, 80, 0
3, 82560, Note_on_c, 1, 74, 110
3, 82560, Note_on_c, 1, 80, 110
3, 83520, Note_on_c, 1, 74, 0
3, 83520, Note_on_c, 1, 80, 0
3, 84480, Note_on_c, 1, 79, 110
3, 86370, Note_on_c, 1, 79, 0
3, 86400, Note_on_c, 1, 78, 110
3, 88290, Note_on_c, 1, 78, 0
3, 88320, Note_on_c, 1, 70, 110
3, 88320, Note_on_c, 1, 77, 110
3, 89730, Note_on_c, 1, 70, 0
3, 89730, Note_on_c, 1, 77, 0
3, 89760, Note_on_c, 1, 70, 110
3, 89760, Note_on_c, 1, 78, 110
3, 90240, Note_on_c, 1, 77, 110
3, 90270, Note_on_c, 1, 78, 0
3, 91650, Note_on_c, 1, 70, 0
3, 91650, Note_on_c, 1, 77, 0
3, 91680, Note_on_c, 1, 70, 110
3, 91680, Note_on_c, 1, 78, 110
3, 92160, Note_on_c, 1, 77, 110
3, 92190, Note_on_c, 1, 78, 0
3, 93570, Note_on_c, 1, 70, 0
3, 93570, Note_on_c, 1, 77, 0
3, 93600, Note_on_c, 1, 70, 110
3, 93600, Note_on_c, 1, 78, 110
3, 94080, Note_on_c, 1, 77, 110
3, 94110, Note_on_c, 1, 78, 0
3, 95490, Note_on_c, 1, 70, 0
3, 95490, Note_on_c, 1, 77, 0
3, 95520, Note_on_c, 1, 70, 110
3, 95520, Note_on_c, 1, 78, 110
3, 96000, Note_on_c, 1, 77, 110
3, 96030, Note_on_c, 1, 78, 0
3, 96480, Note_on_c, 1, 70, 0
3, 96480, Note_on_c, 1, 77, 0
3, 115200, Note_on_c, 1, 79, 80
3, 115200, Control_c, 1, 11, 80
3, 115390, Control_c, 1, 11, 81
3, 115570, Control_c, 1, 11, 82
3, 115750, Control_c, 1, 11, 83
3, 115940, Control_c, 1, 11, 84
3, 116120, Control_c, 1, 11, 85
3, 116300, Control_c, 1, 11, 86
3, 116480, Control_c, 1, 11, 87
3, 116640, Note_on_c, 1, 80, 80
3, 116670, Note_on_c, 1, 79, 0
3, 116670, Control_c, 1, 11, 88
3, 116850, Control_c, 1, 11, 89
3, 117030, Control_c, 1, 11, 90
3, 117120, Note_on_c, 1, 79, 80
3, 117150, Note_on_c, 1, 80, 0
3, 117220, Control_c, 1, 11, 91
3, 117400, Control_c, 1, 11, 92
3, 117580, Control_c, 1, 11, 93
3, 117600, Note_on_c, 1, 77, 80
3, 117630, Note_on_c, 1, 79, 0
3, 117760, Control_c, 1, 11, 94
3, 117950, Control_c, 1, 11, 95
3, 118080, Note_on_c, 1, 74, 80
3, 118110, Note_on_c, 1, 77, 0
3, 118130, Control_c, 1, 11, 96
3, 118310, Control_c, 1, 11, 97
3, 118500, Control_c, 1, 11, 98
3, 118560, Note_on_c, 1, 70, 80
3, 118590, Note_on_c, 1, 74, 0
3, 118680, Control_c, 1, 11, 99
3, 118860, Control_c, 1, 11, 100
3, 119010, Note_on_c, 1, 70, 0
3, 119040, Note_on_c, 1, 82, 80
3, 119970, Note_on_c, 1, 82, 0
3, 120000, Note_on_c, 1, 85, 80
3, 120930, Note_on_c, 1, 85, 0
3, 120960, Note_on_c, 1, 84, 80
3, 121890, Note_on_c, 1, 84, 0
3, 121920, Note_on_c, 1, 82, 80
3, 122850, Note_on_c, 1, 82, 0
3, 122877, Control_c, 1, 11, 80
3, 122880, Note_on_c, 1, 80, 80
3, 123360, Note_on_c, 1, 80, 0
3, 130560, Note_on_c, 1, 80, 80
3, 130560, Control_c, 1, 11, 80
3, 130750, Control_c, 1, 11, 81
3, 130930, Control_c, 1, 11, 82
3, 131110, Control_c, 1, 11, 83
3, 131300, Control_c, 1, 11, 84
3, 131480, Control_c, 1, 11, 85
3, 131660, Control_c, 1, 11, 86
3, 131840, Control_c, 1, 11, 87
3, 132000, Note_on_c, 1, 82, 80
3, 132030, Note_on_c, 1, 80, 0
3, 132030, Control_c, 1, 11, 88
3, 132210, Control_c, 1, 11, 89
3, 132390, Control_c, 1, 11, 90
3, 132480, Note_on_c, 1, 80, 80
3, 132510, Note_on_c, 1, 82, 0
3, 132580, Control_c, 1, 11, 91
3, 132760, Control_c, 1, 11, 92
3, 132940, Control_c, 1, 11, 93
3, 132960, Note_on_c, 1, 79, 80
3, 132990, Note_on_c, 1, 80, 0
3, 133120, Control_c, 1, 11, 94
3, 133310, Control_c, 1, 11, 95
3, 133440, Note_on_c, 1, 76, 80
3, 133470, Note_on_c, 1, 79, 0
3, 133490, Control_c, 1, 11, 96
3, 133670, Control_c, 1, 11, 97
3, 133860, Control_c, 1, 11, 98
3, 133920, Note_on_c, 1, 72, 80
3, 133950, Note_on_c, 1, 76, 0
3, 134040, Control_c, 1, 11, 99
3, 134220, Control_c, 1, 11, 100
3, 134400, Note_on_c, 1, 84, 80
3, 134430, Note_on_c, 1, 72, 0
3, 135330, Note_on_c, 1, 84, 0
3, 135360, Note_on_c, 1, 75, 80
3, 136290, Note_on_c, 1, 75, 0
3, 136320, Note_on_c, 1, 74, 80
3, 138240, Control_c, 1, 11, 80
3, 138440, Control_c, 1, 11, 81
3, 138630, Control_c, 1, 11, 82
3, 138820, Control_c, 1, 11, 83
3, 139010, Control_c, 1, 11, 84
3, 139200, Control_c, 1, 11, 85
3, 139400, Control_c, 1, 11, 86
3, 139590, Control_c, 1, 11, 87
3, 139780, Control_c, 1, 11, 88
3, 139970, Control_c, 1, 11, 89
3, 140160, Control_c, 1, 11, 90
3, 140360, Control_c, 1, 11, 91
3, 140550, Control_c, 1, 11, 92
3, 140740, Control_c, 1, 11, 93
3, 140930, Control_c, 1, 11, 94
3, 141120, Control_c, 1, 11, 95
3, 141320, Control_c, 1, 11, 96
3, 141510, Control_c, 1, 11, 97
3, 141700, Control_c, 1, 11, 98
3, 141890, Control_c, 1, 11, 99
3, 142080, Control_c, 1, 11, 100
3, 142180, Control_c, 1, 11, 99
3, 142270, Control_c, 1, 11, 98
3, 142360, Control_c, 1, 11, 97
3, 142450, Control_c, 1, 11, 96
3, 142540, Control_c, 1, 11, 95
3, 142630, Control_c, 1, 11, 94
3, 142720, Control_c, 1, 11, 93
3, 142820, Control_c, 1, 11, 92
3, 142910, Control_c, 1, 11, 91
3, 143000, Control_c, 1, 11, 90
3, 143090, Control_c, 1, 11, 89
3, 143180, Control_c, 1, 11, 88
3, 143270, Control_c, 1, 11, 87
3, 143360, Control_c, 1, 11, 86
3, 143460, Control_c, 1, 11, 85
3, 143520, Note_on_c, 1, 77, 80
3, 143550, Note_on_c, 1, 74, 0
3, 143550, Control_c, 1, 11, 84
3, 143640, Control_c, 1, 11, 83
3, 143730, Control_c, 1, 11, 82
3, 143820, Control_c, 1, 11, 81
3, 143910, Control_c, 1, 11, 80
3, 143970, Note_on_c, 1, 77, 0
3, 144000, Note_on_c, 1, 77, 80
3, 144480, Note_on_c, 1, 75, 80
3, 144510, Note_on_c, 1, 77, 0
3, 145440, Note_on_c, 1, 74, 80
3, 145470, Note_on_c, 1, 75, 0
3, 145830, Note_on_c, 1, 74, 0
3, 145920, Note_on_c, 1, 74, 80
3, 146400, Note_on_c, 1, 72, 80
3, 146430, Note_on_c, 1, 74, 0
3, 147360, Note_on_c, 1, 70, 80
3, 147390, Note_on_c, 1, 72, 0
3, 147750, Note_on_c, 1, 70, 0
3, 147840, Note_on_c, 1, 70, 80
3, 148320, Note_on_c, 1, 69, 80
3, 148350, Note_on_c, 1, 70, 0
3, 148800, Note_on_c, 1, 70, 80
3, 148830, Note_on_c, 1, 69, 0
3, 149280, Note_on_c, 1, 67, 80
3, 149310, Note_on_c, 1, 70, 0
3, 149670, Note_on_c, 1, 67, 0
3, 149760, Note_on_c, 1, 66, 70
3, 150450, Note_on_c, 1, 66, 0
3, 153360, Note_on_c, 1, 78, 70
3, 153510, Note_on_c, 1, 78, 0
3, 153600, Note_on_c, 1, 79, 70
3, 154080, Note_on_c, 1, 79, 0
3, 157200, Note_on_c, 1, 79, 90
3, 157350, Note_on_c, 1, 79, 0
3, 157440, Note_on_c, 1, 81, 91
3, 157920, Note_on_c, 1, 81, 0
3, 159120, Note_on_c, 1, 81, 99
3, 159270, Note_on_c, 1, 81, 0
3, 159360, Note_on_c, 1, 82, 100
3, 159840, Note_on_c, 1, 82, 0
3, 161040, Note_on_c, 1, 82, 108
3, 161190, Note_on_c, 1, 82, 0
3, 161280, Note_on_c, 1, 75, 110
3, 161280, Note_on_c, 1, 78, 110
3, 162720, Note_on_c, 1, 74, 110
3, 162720, Note_on_c, 1, 79, 110
3, 162750, Note_on_c, 1, 75, 0
3, 162750, Note_on_c, 1, 78, 0
3, 163170, Note_on_c, 1, 74, 0
3, 163170, Note_on_c, 1, 79, 0
3, 163200, Note_on_c, 1, 72, 110
3, 163200, Note_on_c, 1, 78, 110
3, 163680, Note_on_c, 1, 70, 110
3, 163680, Note_on_c, 1, 79, 110
3, 163710, Note_on_c, 1, 72, 0
3, 163710, Note_on_c, 1, 78, 0
3, 164160, Note_on_c, 1, 72, 110
3, 164160, Note_on_c, 1, 78, 110
3, 164190, Note_on_c, 1, 70, 0
3, 164190, Note_on_c, 1, 79, 0
3, 164640, Note_on_c, 1, 70, 110
3, 164640, Note_on_c, 1, 79, 110
3, 164670, Note_on_c, 1, 72, 0
3, 164670, Note_on_c, 1, 78, 0
3, 165090, Note_on_c, 1, 70, 0
3, 165090, Note_on_c, 1, 79, 0
3, 165120, Note_on_c, 1, 75, 110
3, 165120, Note_on_c, 1, 78, 110
3, 166560, Note_on_c, 1, 74, 110
3, 166560, Note_on_c, 1, 79, 110
3, 166590, Note_on_c, 1, 75, 0
3, 166590, Note_on_c, 1, 78, 0
3, 167010, Note_on_c, 1, 74, 0
3, 167010, Note_on_c, 1, 79, 0
3, 167040, Note_on_c, 1, 72, 110
3, 167040, Note_on_c, 1, 78, 110
3, 167520, Note_on_c, 1, 70, 110
3, 167520, Note_on_c, 1, 79, 110
3, 167550, Note_on_c, 1, 72, 0
3, 167550, Note_on_c, 1, 78, 0
3, 168000, Note_on_c, 1, 72, 110
3, 168000, Note_on_c, 1, 78, 110
3, 168030, Note_on_c, 1, 70, 0
3, 168030, Note_on_c, 1, 79, 0
3, 168480, Note_on_c, 1, 70, 110
3, 168480, Note_on_c, 1, 79, 110
3, 168510, Note_on_c, 1, 72, 0
3, 168510, Note_on_c, 1, 78, 0
3, 168930, Note_on_c, 1, 70, 0
3, 168930, Note_on_c, 1, 79, 0
3, 168960, Note_on_c, 1, 80, 110
3, 170400, Note_on_c, 1, 79, 110
3, 170430, Note_on_c, 1, 80, 0
3, 170850, Note_on_c, 1, 79, 0
3, 170880, Note_on_c, 1, 71, 110
3, 171360, Note_on_c, 1, 72, 110
3, 171390, Note_on_c, 1, 71, 0
3, 171840, Note_on_c, 1, 71, 110
3, 171870, Note_on_c, 1, 72, 0
3, 172320, Note_on_c, 1, 72, 110
3, 172350, Note_on_c, 1, 71, 0
3, 172770, Note_on_c, 1, 72, 0
3, 172800, Note_on_c, 1, 80, 110
3, 174240, Note_on_c, 1, 79, 110
3, 174270, Note_on_c, 1, 80, 0
3, 174690, Note_on_c, 1, 79, 0
3, 174720, Note_on_c, 1, 71, 110
3, 175200, Note_on_c, 1, 72, 110
3, 175230, Note_on_c, 1, 71, 0
3, 175680, Note_on_c, 1, 71, 110
3, 175710, Note_on_c, 1, 72, 0
3, 176160, Note_on_c, 1, 72, 110
3, 176190, Note_on_c, 1, 71, 0
3, 176610, Note_on_c, 1, 72, 0
3, 177600, Note_on_c, 1, 75, 110
3, 177600, Note_on_c, 1, 80, 110
3, 178080, Note_on_c, 1, 79, 110
3, 178110, Note_on_c, 1, 80, 0
3, 178530, Note_on_c, 1, 75, 0
3, 178530, Note_on_c, 1, 79, 0
3, 179520, Note_on_c, 1, 75, 110
3, 179520, Note_on_c, 1, 80, 110
3, 180000, Note_on_c, 1, 79, 110
3, 180030, Note_on_c, 1, 80, 0
3, 180450, Note_on_c, 1, 75, 0
3, 180450, Note_on_c, 1, 79, 0
3, 181440, Note_on_c, 1, 75, 110
3, 181440, Note_on_c, 1, 80, 110
3, 181920, Note_on_c, 1, 79, 110
3, 181950, Note_on_c, 1, 80, 0
3, 182370, Note_on_c, 1, 75, 0
3, 182370, Note_on_c, 1, 79, 0
3, 183360, Note_on_c, 1, 75, 110
3, 183360, Note_on_c, 1, 80, 110
3, 183840, Note_on_c, 1, 79, 110
3, 183870, Note_on_c, 1, 80, 0
3, 184290, Note_on_c, 1, 75, 0
3, 184290, Note_on_c, 1, 79, 0
3, 184320, Note_on_c, 1, 75, 110
3, 184320, Note_on_c, 1, 80, 110
3, 185250, Note_on_c, 1, 80, 0
3, 185280, Note_on_c, 1, 78, 110
3, 186210, Note_on_c, 1, 75, 0
3, 186210, Note_on_c, 1, 78, 0
3, 186240, Note_on_c, 1, 74, 110
3, 186240, Note_on_c, 1, 79, 110
3, 187170, Note_on_c, 1, 74, 0
3, 187170, Note_on_c, 1, 79, 0
3, 187200, Note_on_c, 1, 73, 110
3, 187200, Note_on_c, 1, 76, 110
3, 188130, Note_on_c, 1, 73, 0
3, 188130, Note_on_c, 1, 76, 0
3, 188160, Note_on_c, 1, 72, 110
3, 188160, Note_on_c, 1, 77, 110
3, 189090, Note_on_c, 1, 77, 0
3, 189120, Note_on_c, 1, 75, 110
3, 190050, Note_on_c, 1, 75, 0
3, 190080, Note_on_c, 1, 81, 110
3, 191010, Note_on_c, 1, 81, 0
3, 191040, Note_on_c, 1, 79, 110
3, 191970, Note_on_c, 1, 72, 0
3, 191970, Note_on_c, 1, 79, 0
3, 192000, Note_on_c, 1, 72, 110
3, 192000, Note_on_c, 1, 78, 110
3, 192480, Note_on_c, 1, 72, 0
3, 192480, Note_on_c, 1, 78, 0
3, 192960, Note_on_c, 1, 75, 80
3, 193440, Note_on_c, 1, 75, 0
3, 193920, Note_on_c, 1, 72, 80
3, 194400, Note_on_c, 1, 72, 0
3, 194880, Note_on_c, 1, 74, 80
3, 195360, Note_on_c, 1, 74, 0
3, 195840, Note_on_c, 1, 67, 70
3, 196320, Note_on_c, 1, 67, 0
3, 199440, Note_on_c, 1, 74, 100
3, 199440, Note_on_c, 1, 81, 100
3, 199560, Note_on_c, 1, 74, 0
3, 199560, Note_on_c, 1, 81, 0
3, 199680, Note_on_c, 1, 74, 100
3, 199680, Note_on_c, 1, 82, 100
3, 200010, Note_on_c, 1, 74, 0
3, 200010, Note_on_c, 1, 82, 0
3, 203280, Note_on_c, 1, 74, 100
3, 203280, Note_on_c, 1, 81, 100
3, 203400, Note_on_c, 1, 74, 0
3, 203400, Note_on_c, 1, 81, 0
3, 203520, Note_on_c, 1, 74, 100
3, 203520, Note_on_c, 1, 82, 100
3, 203850, Note_on_c, 1, 74, 0
3, 203850, Note_on_c, 1, 82, 0
3, 211200, Note_on_c, 1, 82, 100
3, 211530, Note_on_c, 1, 82, 0
3, 212160, Note_on_c, 1, 81, 100
3, 212490, Note_on_c, 1, 81, 0
3, 213120, Note_on_c, 1, 79, 100
3, 213450, Note_on_c, 1, 79, 0
3, 214080, Note_on_c, 1, 77, 100
3, 214410, Note_on_c, 1, 77, 0
3, 215040, Note_on_c, 1, 75, 100
3, 215370, Note_on_c, 1, 75, 0
3, 216000, Note_on_c, 1, 79, 100
3, 216330, Note_on_c, 1, 79, 0
3, 216720, Note_on_c, 1, 79, 100
3, 216720, Note_on_c, 1, 82, 100
3, 216840, Note_on_c, 1, 79, 0
3, 216840, Note_on_c, 1, 82, 0
3, 216960, Note_on_c, 1, 79, 100
3, 216960, Note_on_c, 1, 82, 100
3, 217290, Note_on_c, 1, 79, 0
3, 217290, Note_on_c, 1, 82, 0
3, 217680, Note_on_c, 1, 79, 100
3, 217680, Note_on_c, 1, 82, 100
3, 217800, Note_on_c, 1, 79, 0
3, 217800, Note_on_c, 1, 82, 0
3, 217920, Note_on_c, 1, 78, 100
3, 217920, Note_on_c, 1, 81, 100
3, 218250, Note_on_c, 1, 78, 0
3, 218250, Note_on_c, 1, 81, 0
3, 218640, Note_on_c, 1, 78, 100
3, 218640, Note_on_c, 1, 81, 100
3, 218760, Note_on_c, 1, 78, 0
3, 218760, Note_on_c, 1, 81, 0
3, 218880, Note_on_c, 1, 70, 100
3, 218880, Note_on_c, 1, 79, 100
3, 223380, Note_on_c, 1, 70, 0
3, 223380, Note_on_c, 1, 79, 0
3, 223440, Note_on_c, 1, 70, 100
3, 223440, Note_on_c, 1, 79, 100
3, 223560, Note_on_c, 1, 70, 0
3, 223560, Note_on_c, 1, 79, 0
3, 223680, Note_on_c, 1, 70, 100
3, 223680, Note_on_c, 1, 79, 100
3, 224010, Note_on_c, 1, 70, 0
3, 224010, Note_on_c, 1, 79, 0
3, 224400, Note_on_c, 1, 70, 100
3, 224400, Note_on_c, 1, 79, 100
3, 224520, Note_on_c, 1, 70, 0
3, 224520, Note_on_c, 1, 79, 0
3, 224640, Note_on_c, 1, 70, 100
3, 224640, Note_on_c, 1, 79, 100
3, 224970, Note_on_c, 1, 70, 0
3, 224970, Note_on_c, 1, 79, 0
3, 225360, Note_on_c, 1, 70, 100
3, 225360, Note_on_c, 1, 79, 100
3, 225480, Note_on_c, 1, 70, 0
3, 225480, Note_on_c, 1, 79, 0
3, 225600, Note_on_c, 1, 70, 100
3, 225600, Note_on_c, 1, 79, 100
3, 225930, Note_on_c, 1, 70, 0
3, 225930, Note_on_c, 1, 79, 0
3, 226320, Note_on_c, 1, 70, 100
3, 226320, Note_on_c, 1, 79, 100
3, 226440, Note_on_c, 1, 70, 0
3, 226440, Note_on_c, 1, 79, 0
3, 226560, Note_on_c, 1, 70, 100
3, 226560, Note_on_c, 1, 79, 100
3, 226950, Note_on_c, 1, 70, 0
3, 226950, Note_on_c, 1, 79, 0
3, 258000, Note_on_c, 1, 80, 80
3, 258120, Note_on_c, 1, 80, 0
3, 258240, Note_on_c, 1, 78, 81
3, 258570, Note_on_c, 1, 78, 0
3, 258960, Note_on_c, 1, 73, 86
3, 259080, Note_on_c, 1, 73, 0
3, 259200, Note_on_c, 1, 75, 87
3, 259530, Note_on_c, 1, 75, 0
3, 259920, Note_on_c, 1, 82, 92
3, 260040, Note_on_c, 1, 82, 0
3, 260160, Note_on_c, 1, 80, 93
3, 260490, Note_on_c, 1, 80, 0
3, 260880, Note_on_c, 1, 75, 98
3, 261000, Note_on_c, 1, 75, 0
3, 261120, Note_on_c, 1, 77, 100
3, 261450, Note_on_c, 1, 77, 0
3, 268800, Note_on_c, 1, 77, 100
3, 269130, Note_on_c, 1, 77, 0
3, 270480, Note_on_c, 1, 75, 100
3, 270600, Note_on_c, 1, 75, 0
3, 270720, Note_on_c, 1, 73, 100
3, 271050, Note_on_c, 1, 73, 0
3, 272400, Note_on_c, 1, 72, 100
3, 272520, Note_on_c, 1, 72, 0
3, 272640, Note_on_c, 1, 70, 100
3, 272970, Note_on_c, 1, 70, 0
3, 273360, Note_on_c, 1, 70, 100
3, 273360, Note_on_c, 1, 76, 100
3, 273480, Note_on_c, 1, 70, 0
3, 273480, Note_on_c, 1, 76, 0
3, 273600, Note_on_c, 1, 70, 100
3, 273600, Note_on_c, 1, 77, 100
3, 273930, Note_on_c, 1, 70, 0
3, 273930, Note_on_c, 1, 77, 0
3, 274320, Note_on_c, 1, 70, 100
3, 274320, Note_on_c, 1, 77, 100
3, 274440, Note_on_c, 1, 70, 0
3, 274440, Note_on_c, 1, 77, 0
3, 274560, Note_on_c, 1, 70, 100
3, 274560, Note_on_c, 1, 79, 100
3, 274890, Note_on_c, 1, 70, 0
3, 274890, Note_on_c, 1, 79, 0
3, 275280, Note_on_c, 1, 70, 100
3, 275280, Note_on_c, 1, 79, 100
3, 275400, Note_on_c, 1, 70, 0
3, 275400, Note_on_c, 1, 79, 0
3, 275520, Note_on_c, 1, 70, 100
3, 275520, Note_on_c, 1, 76, 100
3, 275850, Note_on_c, 1, 70, 0
3, 275850, Note_on_c, 1, 76, 0
3, 276240, Note_on_c, 1, 70, 100
3, 276240, Note_on_c, 1, 76, 100
3, 276360, Note_on_c, 1, 70, 0
3, 276360, Note_on_c, 1, 76, 0
3, 276480, Note_on_c, 1, 72, 80
3, 276480, Note_on_c, 1, 84, 80
3, 276480, Control_c, 1, 11, 80
3, 276640, Control_c, 1, 11, 81
3, 276790, Control_c, 1, 11, 82
3, 276940, Control_c, 1, 11, 83
3, 277100, Control_c, 1, 11, 84
3, 277250, Control_c, 1, 11, 85
3, 277400, Control_c, 1, 11, 86
3, 277560, Control_c, 1, 11, 87
3, 277710, Control_c, 1, 11, 88
3, 277860, Control_c, 1, 11, 89
3, 278020, Control_c, 1, 11, 90
3, 278170, Control_c, 1, 11, 91
3, 278320, Control_c, 1, 11, 92
3, 278480, Control_c, 1, 11, 93
3, 278630, Control_c, 1, 11, 94
3, 278780, Control_c, 1, 11, 95
3, 278940, Control_c, 1, 11, 96
3, 279090, Control_c, 1, 11, 97
3, 279240, Control_c, 1, 11, 98
3, 279400, Control_c, 1, 11, 99
3, 279550, Control_c, 1, 11, 100
3, 279700, Control_c, 1, 11, 101
3, 279860, Control_c, 1, 11, 102
3, 280010, Control_c, 1, 11, 103
3, 280160, Control_c, 1, 11, 104
3, 280310, Control_c, 1, 11, 105
3, 280470, Control_c, 1, 11, 106
3, 280620, Control_c, 1, 11, 107
3, 280770, Control_c, 1, 11, 108
3, 280930, Control_c, 1, 11, 109
3, 281080, Control_c, 1, 11, 110
3, 281230, Control_c, 1, 11, 111
3, 281390, Control_c, 1, 11, 112
3, 281540, Control_c, 1, 11, 113
3, 281690, Control_c, 1, 11, 114
3, 281850, Control_c, 1, 11, 115
3, 282000, Control_c, 1, 11, 116
3, 282150, Control_c, 1, 11, 117
3, 282310, Control_c, 1, 11, 118
3, 282460, Control_c, 1, 11, 119
3, 282610, Control_c, 1, 11, 120
3, 282770, Control_c, 1, 11, 121
3, 282920, Control_c, 1, 11, 122
3, 283070, Control_c, 1, 11, 123
3, 283230, Control_c, 1, 11, 124
3, 283380, Control_c, 1, 11, 125
3, 283530, Control_c, 1, 11, 126
3, 283680, Control_c, 1, 11, 127
3, 284040, Note_on_c, 1, 72, 0
3, 284040, Note_on_c, 1, 84, 0
3, 284157, Control_c, 1, 11, 80
3, 284160, Note_on_c, 1, 72, 110
3, 284160, Note_on_c, 1, 84, 110
3, 284490, Note_on_c, 1, 72, 0
3, 284490, Note_on_c, 1, 84, 0
3, 284880, Note_on_c, 1, 72, 110
3, 284880, Note_on_c, 1, 84, 110
3, 285000, Note_on_c, 1, 72, 0
3, 285000, Note_on_c, 1, 84, 0
3, 285120, Note_on_c, 1, 72, 110
3, 285120, Note_on_c, 1, 84, 110
3, 285450, Note_on_c, 1, 72, 0
3, 285450, Note_on_c, 1, 84, 0
3, 285840, Note_on_c, 1, 72, 110
3, 285840, Note_on_c, 1, 84, 110
3, 285960, Note_on_c, 1, 72, 0
3, 285960, Note_on_c, 1, 84, 0
3, 286080, Note_on_c, 1, 72, 110
3, 286080, Note_on_c, 1, 84, 110
3, 286410, Note_on_c, 1, 72, 0
3, 286410, Note_on_c, 1, 84, 0
3, 286800, Note_on_c, 1, 72, 110
3, 286800, Note_on_c, 1, 84, 110
3, 286920, Note_on_c, 1, 72, 0
3, 286920, Note_on_c, 1, 84, 0
3, 287040, Note_on_c, 1, 72, 110
3, 287040, Note_on_c, 1, 84, 110
3, 287370, Note_on_c, 1, 72, 0
3, 287370, Note_on_c, 1, 84, 0
3, 287760, Note_on_c, 1, 72, 110
3, 287760, Note_on_c, 1, 84, 110
3, 287880, Note_on_c, 1, 72, 0
3, 287880, Note_on_c, 1, 84, 0
3, 288000, Note_on_c, 1, 72, 110
3, 288000, Note_on_c, 1, 84, 110
3, 288330, Note_on_c, 1, 72, 0
3, 288330, Note_on_c, 1, 84, 0
3, 288720, Note_on_c, 1, 72, 110
3, 288720, Note_on_c, 1, 84, 110
3, 288840, Note_on_c, 1, 72, 0
3, 288840, Note_on_c, 1, 84, 0
3, 288960, Note_on_c, 1, 72, 110
3, 288960, Note_on_c, 1, 84, 110
3, 289290, Note_on_c, 1, 72, 0
3, 289290, Note_on_c, 1, 84, 0
3, 289680, Note_on_c, 1, 72, 110
3, 289680, Note_on_c, 1, 84, 110
3, 289800, Note_on_c, 1, 72, 0
3, 289800, Note_on_c, 1, 84, 0
3, 289920, Note_on_c, 1, 73, 110
3, 289920, Note_on_c, 1, 85, 110
3, 290250, Note_on_c, 1, 73, 0
3, 290250, Note_on_c, 1, 85, 0
3, 290640, Note_on_c, 1, 73, 110
3, 290640, Note_on_c, 1, 85, 110
3, 290760, Note_on_c, 1, 73, 0
3, 290760, Note_on_c, 1, 85, 0
3, 290880, Note_on_c, 1, 72, 110
3, 290880, Note_on_c, 1, 84, 110
3, 291210, Note_on_c, 1, 72, 0
3, 291210, Note_on_c, 1, 84, 0
3, 291600, Note_on_c, 1, 72, 110
3, 291600, Note_on_c, 1, 84, 110
3, 291720, Note_on_c, 1, 72, 0
3, 291720, Note_on_c, 1, 84, 0
3, 291840, Note_on_c, 1, 65, 110
3, 291840, Note_on_c, 1, 77, 110
3, 292170, Note_on_c, 1, 65, 0
3, 292170, Note_on_c, 1, 77, 0
3, 295680, Note_on_c, 1, 73, 120
3, 295680, Note_on_c, 1, 77, 120
3, 295890, Note_on_c, 1, 73, 0
3, 295890, Note_on_c, 1, 77, 0
3, 303360, Note_on_c, 1, 77, 110
3, 303360, Note_on_c, 1, 80, 110
3, 304290, Note_on_c, 1, 77, 0
3, 304290, Note_on_c, 1, 80, 0
3, 305280, Note_on_c, 1, 77, 110
3, 305280, Note_on_c, 1, 80, 110
3, 306210, Note_on_c, 1, 77, 0
3, 306210, Note_on_c, 1, 80, 0
3, 312960, Note_on_c, 1, 76, 120
3, 312960, Note_on_c, 1, 79, 120
3, 313890, Note_on_c, 1, 76, 0
3, 313890, Note_on_c, 1, 79, 0
3, 314880, Note_on_c, 1, 76, 120
3, 314880, Note_on_c, 1, 79, 120
3, 315810, Note_on_c, 1, 76, 0
3, 315810, Note_on_c, 1, 79, 0
3, 322080, Note_on_c, 1, 76, 120
3, 322560, Note_on_c, 1, 77, 120
3, 322590, Note_on_c, 1, 76, 0
3, 323880, Note_on_c, 1, 77, 0
3, 324000, Note_on_c, 1, 76, 120
3, 324480, Note_on_c, 1, 77, 120
3, 324510, Note_on_c, 1, 76, 0
3, 325800, Note_on_c, 1, 77, 0
3, 325920, Note_on_c, 1, 76, 120
3, 326400, Note_on_c, 1, 77, 120
3, 326430, Note_on_c, 1, 76, 0
3, 327720, Note_on_c, 1, 77, 0
3, 327840, Note_on_c, 1, 76, 120
3, 328320, Note_on_c, 1, 77, 120
3, 328350, Note_on_c, 1, 76, 0
3, 329430, Note_on_c, 1, 77, 0
3, 329760, Note_on_c, 1, 78, 120
3, 330240, Note_on_c, 1, 79, 120
3, 330270, Note_on_c, 1, 78, 0
3, 331560, Note_on_c, 1, 79, 0
3, 331680, Note_on_c, 1, 78, 120
3, 332160, Note_on_c, 1, 79, 120
3, 332190, Note_on_c, 1, 78, 0
3, 333480, Note_on_c, 1, 79, 0
3, 333600, Note_on_c, 1, 78, 120
3, 334080, Note_on_c, 1, 79, 120
3, 334110, Note_on_c, 1, 78, 0
3, 335400, Note_on_c, 1, 79, 0
3, 335520, Note_on_c, 1, 78, 120
3, 336000, Note_on_c, 1, 79, 120
3, 336030, Note_on_c, 1, 78, 0
3, 337320, Note_on_c, 1, 79, 0
3, 337440, Note_on_c, 1, 78, 120
3, 337920, Note_on_c, 1, 79, 120
3, 337950, Note_on_c, 1, 78, 0
3, 338400, Note_on_c, 1, 79, 0
3, 349440, Note_on_c, 1, 76, 90
3, 349440, Control_c, 1, 11, 80
3, 349820, Control_c, 1, 11, 81
3, 350190, Control_c, 1, 11, 82
3, 350560, Control_c, 1, 11, 83
3, 350880, Note_on_c, 1, 77, 90
3, 350910, Note_on_c, 1, 76, 0
3, 350930, Control_c, 1, 11, 84
3, 351300, Control_c, 1, 11, 85
3, 351360, Note_on_c, 1, 76, 90
3, 351390, Note_on_c, 1, 77, 0
3, 351670, Control_c, 1, 11, 86
3, 351840, Note_on_c, 1, 74, 90
3, 351870, Note_on_c, 1, 76, 0
3, 352050, Control_c, 1, 11, 87
3, 352320, Note_on_c, 1, 71, 90
3, 352350, Note_on_c, 1, 74, 0
3, 352420, Control_c, 1, 11, 88
3, 352790, Control_c, 1, 11, 89
3, 352800, Note_on_c, 1, 67, 90
3, 352830, Note_on_c, 1, 71, 0
3, 353160, Control_c, 1, 11, 90
3, 353250, Note_on_c, 1, 67, 0
3, 353280, Note_on_c, 1, 79, 90
3, 353530, Control_c, 1, 11, 91
3, 353900, Control_c, 1, 11, 92
3, 354280, Control_c, 1, 11, 93
3, 354650, Control_c, 1, 11, 94
3, 354720, Note_on_c, 1, 81, 90
3, 354750, Note_on_c, 1, 79, 0
3, 355020, Control_c, 1, 11, 95
3, 355200, Note_on_c, 1, 79, 90
3, 355230, Note_on_c, 1, 81, 0
3, 355390, Control_c, 1, 11, 96
3, 355760, Control_c, 1, 11, 97
3, 356130, Control_c, 1, 11, 98
3, 356160, Note_on_c, 1, 77, 90
3, 356190, Note_on_c, 1, 79, 0
3, 356510, Control_c, 1, 11, 99
3, 356880, Control_c, 1, 11, 100
3, 357090, Note_on_c, 1, 77, 0
3, 357120, Note_on_c, 1, 76, 90
3, 357250, Control_c, 1, 11, 101
3, 357620, Control_c, 1, 11, 102
3, 357990, Control_c, 1, 11, 103
3, 358360, Control_c, 1, 11, 104
3, 358560, Note_on_c, 1, 77, 90
3, 358590, Note_on_c, 1, 76, 0
3, 358740, Control_c, 1, 11, 105
3, 359040, Note_on_c, 1, 76, 90
3, 359070, Note_on_c, 1, 77, 0
3, 359110, Control_c, 1, 11, 106
3, 359480, Control_c, 1, 11, 107
3, 359520, Note_on_c, 1, 74, 90
3, 359550, Note_on_c, 1, 76, 0
3, 359850, Control_c, 1, 11, 108
3, 360000, Note_on_c, 1, 71, 90
3, 360030, Note_on_c, 1, 74, 0
3, 360220, Control_c, 1, 11, 109
3, 360480, Note_on_c, 1, 67, 90
3, 360510, Note_on_c, 1, 71, 0
3, 360590, Control_c, 1, 11, 110
3, 360930, Note_on_c, 1, 67, 0
3, 360960, Note_on_c, 1, 67, 90
3, 360960, Note_on_c, 1, 79, 90
3, 361890, Note_on_c, 1, 67, 0
3, 361890, Note_on_c, 1, 79, 0
3, 361920, Note_on_c, 1, 70, 90
3, 361920, Note_on_c, 1, 82, 90
3, 362850, Note_on_c, 1, 70, 0
3, 362850, Note_on_c, 1, 82, 0
3, 362880, Note_on_c, 1, 69, 90
3, 362880, Note_on_c, 1, 81, 90
3, 364797, Note_on_c, 1, 69, 0
3, 364797, Note_on_c, 1, 81, 0
3, 364797, Control_c, 1, 11, 80
3, 364800, Note_on_c, 1, 69, 80
3, 364800, Note_on_c, 1, 81, 80
3, 372390, Note_on_c, 1, 69, 0
3, 372390, Note_on_c, 1, 81, 0
3, 372480, Note_on_c, 1, 77, 100
3, 372480, Control_c, 1, 11, 80
3, 372610, Control_c, 1, 11, 81
3, 372730, Control_c, 1, 11, 82
3, 372860, Control_c, 1, 11, 83
3, 372980, Control_c, 1, 11, 84
3, 373100, Control_c, 1, 11, 85
3, 373230, Control_c, 1, 11, 86
3, 373350, Control_c, 1, 11, 87
3, 373480, Control_c, 1, 11, 88
3, 373600, Control_c, 1, 11, 89
3, 373720, Control_c, 1, 11, 90
3, 373850, Control_c, 1, 11, 91
3, 373920, Note_on_c, 1, 79, 100
3, 373950, Note_on_c, 1, 77, 0
3, 373970, Control_c, 1, 11, 92
3, 374100, Control_c, 1, 11, 93
3, 374220, Control_c, 1, 11, 94
3, 374340, Control_c, 1, 11, 95
3, 374400, Note_on_c, 1, 77, 100
3, 374430, Note_on_c, 1, 79, 0
3, 374470, Control_c, 1, 11, 96
3, 374590, Control_c, 1, 11, 97
3, 374710, Control_c, 1, 11, 98
3, 374840, Control_c, 1, 11, 99
3, 374880, Note_on_c, 1, 76, 100
3, 374910, Note_on_c, 1, 77, 0
3, 374960, Control_c, 1, 11, 100
3, 375090, Control_c, 1, 11, 101
3, 375210, Control_c, 1, 11, 102
3, 375330, Control_c, 1, 11, 103
3, 375360, Note_on_c, 1, 73, 100
3, 375390, Note_on_c, 1, 76, 0
3, 375460, Control_c, 1, 11, 104
3, 375580, Control_c, 1, 11, 105
3, 375710, Control_c, 1, 11, 106
3, 375830, Control_c, 1, 11, 107
3, 375840, Note_on_c, 1, 69, 100
3, 375870, Note_on_c, 1, 73, 0
3, 375950, Control_c, 1, 11, 108
3, 376080, Control_c, 1, 11, 109
3, 376200, Control_c, 1, 11, 110
3, 376290, Note_on_c, 1, 69, 0
3, 376320, Note_on_c, 1, 69, 100
3, 376320, Note_on_c, 1, 81, 100
3, 377250, Note_on_c, 1, 69, 0
3, 377250, Note_on_c, 1, 81, 0
3, 377280, Note_on_c, 1, 72, 100
3, 377280, Note_on_c, 1, 84, 100
3, 378210, Note_on_c, 1, 72, 0
3, 378210, Note_on_c, 1, 84, 0
3, 378240, Note_on_c, 1, 71, 100
3, 378240, Note_on_c, 1, 83, 100
3, 380157, Note_on_c, 1, 83, 0
3, 380157, Control_c, 1, 11, 80
3, 380160, Note_on_c, 1, 83, 80
3, 380610, Note_on_c, 1, 71, 0
3, 382080, Control_c, 1, 11, 80
3, 382280, Control_c, 1, 11, 81
3, 382470, Control_c, 1, 11, 82
3, 382660, Control_c, 1, 11, 83
3, 382850, Control_c, 1, 11, 84
3, 383040, Control_c, 1, 11, 85
3, 383240, Control_c, 1, 11, 86
3, 383430, Control_c, 1, 11, 87
3, 383620, Control_c, 1, 11, 88
3, 383810, Control_c, 1, 11, 89
3, 384000, Control_c, 1, 11, 90
3, 384200, Control_c, 1, 11, 91
3, 384390, Control_c, 1, 11, 92
3, 384580, Control_c, 1, 11, 93
3, 384770, Control_c, 1, 11, 94
3, 384960, Control_c, 1, 11, 95
3, 385160, Control_c, 1, 11, 96
3, 385350, Control_c, 1, 11, 97
3, 385540, Control_c, 1, 11, 98
3, 385730, Control_c, 1, 11, 99
3, 385920, Control_c, 1, 11, 100
3, 386120, Control_c, 1, 11, 101
3, 386310, Control_c, 1, 11, 102
3, 386500, Control_c, 1, 11, 103
3, 386690, Control_c, 1, 11, 104
3, 386880, Control_c, 1, 11, 105
3, 387080, Control_c, 1, 11, 106
3, 387270, Control_c, 1, 11, 107
3, 387460, Control_c, 1, 11, 108
3, 387650, Control_c, 1, 11, 109
3, 387750, Note_on_c, 1, 83, 0
3, 387840, Note_on_c, 1, 84, 100
3, 387840, Control_c, 1, 11, 110
3, 387900, Control_c, 1, 11, 109
3, 387960, Control_c, 1, 11, 108
3, 388020, Control_c, 1, 11, 107
3, 388080, Control_c, 1, 11, 106
3, 388140, Control_c, 1, 11, 105
3, 388200, Control_c, 1, 11, 104
3, 388260, Control_c, 1, 11, 103
3, 388320, Control_c, 1, 11, 102
3, 388380, Control_c, 1, 11, 101
3, 388440, Control_c, 1, 11, 100
3, 388500, Control_c, 1, 11, 99
3, 388560, Control_c, 1, 11, 98
3, 388620, Control_c, 1, 11, 97
3, 388680, Control_c, 1, 11, 96
3, 388740, Control_c, 1, 11, 95
3, 388800, Control_c, 1, 11, 94
3, 388860, Control_c, 1, 11, 93
3, 388920, Control_c, 1, 11, 92
3, 388980, Control_c, 1, 11, 91
3, 389040, Control_c, 1, 11, 90
3, 389100, Control_c, 1, 11, 89
3, 389160, Control_c, 1, 11, 88
3, 389220, Control_c, 1, 11, 87
3, 389280, Note_on_c, 1, 82, 100
3, 389280, Control_c, 1, 11, 86
3, 389310, Note_on_c, 1, 84, 0
3, 389340, Control_c, 1, 11, 85
3, 389400, Control_c, 1, 11, 84
3, 389460, Control_c, 1, 11, 83
3, 389520, Control_c, 1, 11, 82
3, 389580, Control_c, 1, 11, 81
3, 389640, Control_c, 1, 11, 80
3, 389730, Note_on_c, 1, 82, 0
3, 389760, Note_on_c, 1, 82, 100
3, 390240, Note_on_c, 1, 80, 100
3, 390270, Note_on_c, 1, 82, 0
3, 391200, Note_on_c, 1, 79, 100
3, 391230, Note_on_c, 1, 80, 0
3, 391650, Note_on_c, 1, 79, 0
3, 391680, Note_on_c, 1, 79, 100
3, 392160, Note_on_c, 1, 77, 100
3, 392190, Note_on_c, 1, 79, 0
3, 393120, Note_on_c, 1, 75, 100
3, 393150, Note_on_c, 1, 77, 0
3, 393570, Note_on_c, 1, 75, 0
3, 393600, Note_on_c, 1, 75, 100
3, 394080, Note_on_c, 1, 74, 100
3, 394110, Note_on_c, 1, 75, 0
3, 394560, Note_on_c, 1, 75, 100
3, 394590, Note_on_c, 1, 74, 0
3, 395040, Note_on_c, 1, 72, 100
3, 395070, Note_on_c, 1, 75, 0
3, 395490, Note_on_c, 1, 72, 0
3, 395520, Note_on_c, 1, 71, 100
3, 395970, Note_on_c, 1, 71, 0
3, 399120, Note_on_c, 1, 74, 100
3, 399240, Note_on_c, 1, 74, 0
3, 399360, Note_on_c, 1, 75, 100
3, 399360, Control_c, 1, 11, 80
3, 399610, Control_c, 1, 11, 81
3, 399840, Note_on_c, 1, 75, 0
3, 399860, Control_c, 1, 11, 82
3, 400110, Control_c, 1, 11, 83
3, 400360, Control_c, 1, 11, 84
3, 400600, Control_c, 1, 11, 85
3, 400850, Control_c, 1, 11, 86
3, 401100, Control_c, 1, 11, 87
3, 401350, Control_c, 1, 11, 88
3, 401590, Control_c, 1, 11, 89
3, 401840, Control_c, 1, 11, 90
3, 402090, Control_c, 1, 11, 91
3, 402340, Control_c, 1, 11, 92
3, 402590, Control_c, 1, 11, 93
3, 402830, Control_c, 1, 11, 94
3, 402960, Note_on_c, 1, 75, 100
3, 403080, Note_on_c, 1, 75, 0
3, 403080, Control_c, 1, 11, 95
3, 403200, Note_on_c, 1, 77, 100
3, 403330, Control_c, 1, 11, 96
3, 403580, Control_c, 1, 11, 97
3, 403680, Note_on_c, 1, 77, 0
3, 403820, Control_c, 1, 11, 98
3, 404070, Control_c, 1, 11, 99
3, 404320, Control_c, 1, 11, 100
3, 404570, Control_c, 1, 11, 101
3, 404820, Control_c, 1, 11, 102
3, 404880, Note_on_c, 1, 77, 100
3, 405000, Note_on_c, 1, 77, 0
3, 405060, Control_c, 1, 11, 103
3, 405120, Note_on_c, 1, 79, 100
3, 405310, Control_c, 1, 11, 104
3, 405560, Control_c, 1, 11, 105
3, 405600, Note_on_c, 1, 79, 0
3, 405810, Control_c, 1, 11, 106
3, 406050, Control_c, 1, 11, 107
3, 406300, Control_c, 1, 11, 108
3, 406550, Control_c, 1, 11, 109
3, 406797, Control_c, 1, 11, 110
3, 406800, Note_on_c, 1, 79, 100
3, 406920, Note_on_c, 1, 79, 0
3, 407037, Control_c, 1, 11, 80
3, 407040, Note_on_c, 1, 74, 110
3, 407040, Note_on_c, 1, 80, 110
3, 408480, Note_on_c, 1, 75, 110
3, 408480, Note_on_c, 1, 79, 110
3, 408510, Note_on_c, 1, 74, 0
3, 408510, Note_on_c, 1, 80, 0
3, 408930, Note_on_c, 1, 75, 0
3, 408930, Note_on_c, 1, 79, 0
3, 408960, Note_on_c, 1, 71, 110
3, 408960, Note_on_c, 1, 77, 110
3, 409440, Note_on_c, 1, 72, 110
3, 409440, Note_on_c, 1, 75, 110
3, 409470, Note_on_c, 1, 71, 0
3, 409470, Note_on_c, 1, 77, 0
3, 409920, Note_on_c, 1, 71, 110
3, 409920, Note_on_c, 1, 77, 110
3, 409950, Note_on_c, 1, 72, 0
3, 409950, Note_on_c, 1, 75, 0
3, 410400, Note_on_c, 1, 72, 110
3, 410400, Note_on_c, 1, 75, 110
3, 410430, Note_on_c, 1, 71, 0
3, 410430, Note_on_c, 1, 77, 0
3, 410730, Note_on_c, 1, 72, 0
3, 410730, Note_on_c, 1, 75, 0
3, 410880, Note_on_c, 1, 74, 110
3, 410880, Note_on_c, 1, 80, 110
3, 412320, Note_on_c, 1, 75, 110
3, 412320, Note_on_c, 1, 79, 110
3, 412350, Note_on_c, 1, 74, 0
3, 412350, Note_on_c, 1, 80, 0
3, 412770, Note_on_c, 1, 75, 0
3, 412770, Note_on_c, 1, 79, 0
3, 412800, Note_on_c, 1, 71, 110
3, 412800, Note_on_c, 1, 77, 110
3, 413280, Note_on_c, 1, 72, 110
3, 413280, Note_on_c, 1, 75, 110
3, 413310, Note_on_c, 1, 71, 0
3, 413310, Note_on_c, 1, 77, 0
3, 413760, Note_on_c, 1, 71, 110
3, 413760, Note_on_c, 1, 77, 110
3, 413790, Note_on_c, 1, 72, 0
3, 413790, Note_on_c, 1, 75, 0
3, 414240, Note_on_c, 1, 72, 110
3, 414240, Note_on_c, 1, 75, 110
3, 414270, Note_on_c, 1, 71, 0
3, 414270, Note_on_c, 1, 77, 0
3, 414570, Note_on_c, 1, 72, 0
3, 414570, Note_on_c, 1, 75, 0
3, 414720, Note_on_c, 1, 67, 110
3, 414720, Note_on_c, 1, 76, 110
3, 416160, Note_on_c, 1, 68, 110
3, 416160, Note_on_c, 1, 77, 110
3, 416190, Note_on_c, 1, 67, 0
3, 416190, Note_on_c, 1, 76, 0
3, 416610, Note_on_c, 1, 68, 0
3, 416610, Note_on_c, 1, 77, 0
3, 416640, Note_on_c, 1, 70, 110
3, 416640, Note_on_c, 1, 76, 110
3, 417120, Note_on_c, 1, 68, 110
3, 417120, Note_on_c, 1, 77, 110
3, 417150, Note_on_c, 1, 70, 0
3, 417150, Note_on_c, 1, 76, 0
3, 417600, Note_on_c, 1, 70, 110
3, 417600, Note_on_c, 1, 76, 110
3, 417630, Note_on_c, 1, 68, 0
3, 417630, Note_on_c, 1, 77, 0
3, 418080, Note_on_c, 1, 68, 110
3, 418080, Note_on_c, 1, 77, 110
3, 418110, Note_on_c, 1, 70, 0
3, 418110, Note_on_c, 1, 76, 0
3, 418410, Note_on_c, 1, 68, 0
3, 418410, Note_on_c, 1, 77, 0
3, 418560, Note_on_c, 1, 67, 110
3, 418560, Note_on_c, 1, 76, 110
3, 420000, Note_on_c, 1, 68, 110
3, 420000, Note_on_c, 1, 77, 110
3, 420030, Note_on_c, 1, 67, 0
3, 420030, Note_on_c, 1, 76, 0
3, 420450, Note_on_c, 1, 68, 0
3, 420450, Note_on_c, 1, 77, 0
3, 420480, Note_on_c, 1, 70, 110
3, 420480, Note_on_c, 1, 76, 110
3, 420960, Note_on_c, 1, 68, 110
3, 420960, Note_on_c, 1, 77, 110
3, 420990, Note_on_c, 1, 70, 0
3, 420990, Note_on_c, 1, 76, 0
3, 421440, Note_on_c, 1, 70, 110
3, 421440, Note_on_c, 1, 76, 110
3, 421470, Note_on_c, 1, 68, 0
3, 421470, Note_on_c, 1, 77, 0
3, 421920, Note_on_c, 1, 68, 110
3, 421920, Note_on_c, 1, 77, 110
3, 421950, Note_on_c, 1, 70, 0
3, 421950, Note_on_c, 1, 76, 0
3, 422370, Note_on_c, 1, 68, 0
3, 422370, Note_on_c, 1, 77, 0
3, 423360, Note_on_c, 1, 80, 110
3, 424290, Note_on_c, 1, 80, 0
3, 425280, Note_on_c, 1, 80, 110
3, 426210, Note_on_c, 1, 80, 0
3, 427200, Note_on_c, 1, 80, 110
3, 428130, Note_on_c, 1, 80, 0
3, 429120, Note_on_c, 1, 80, 110
3, 430050, Note_on_c, 1, 80, 0
3, 430080, Note_on_c, 1, 80, 110
3, 431010, Note_on_c, 1, 80, 0
3, 431040, Note_on_c, 1, 79, 110
3, 432930, Note_on_c, 1, 79, 0
3, 432960, Note_on_c, 1, 77, 110
3, 437670, Note_on_c, 1, 77, 0
3, 437760, Note_on_c, 1, 77, 90
3, 438210, Note_on_c, 1, 77, 0
3, 438720, Note_on_c, 1, 80, 90
3, 439170, Note_on_c, 1, 80, 0
3, 439680, Note_on_c, 1, 77, 90
3, 440130, Note_on_c, 1, 77, 0
3, 440640, Note_on_c, 1, 79, 90
3, 441090, Note_on_c, 1, 79, 0
3, 441600, Note_on_c, 1, 72, 80
3, 442050, Note_on_c, 1, 72, 0
3, 445200, Note_on_c, 1, 74, 100
3, 445200, Note_on_c, 1, 79, 100
3, 445320, Note_on_c, 1, 74, 0
3, 445320, Note_on_c, 1, 79, 0
3, 445440, Note_on_c, 1, 75, 100
3, 445440, Note_on_c, 1, 79, 100
3, 445770, Note_on_c, 1, 75, 0
3, 445770, Note_on_c, 1, 79, 0
3, 449040, Note_on_c, 1, 74, 100
3, 449040, Note_on_c, 1, 79, 100
3, 449160, Note_on_c, 1, 74, 0
3, 449160, Note_on_c, 1, 79, 0
3, 449280, Note_on_c, 1, 75, 100
3, 449280, Note_on_c, 1, 79, 100
3, 449610, Note_on_c, 1, 75, 0
3, 449610, Note_on_c, 1, 79, 0
3, 456960, Note_on_c, 1, 72, 100
3, 456960, Note_on_c, 1, 84, 100
3, 457410, Note_on_c, 1, 72, 0
3, 457410, Note_on_c, 1, 84, 0
3, 457680, Note_on_c, 1, 72, 100
3, 457680, Note_on_c, 1, 84, 100
3, 457800, Note_on_c, 1, 72, 0
3, 457800, Note_on_c, 1, 84, 0
3, 457920, Note_on_c, 1, 72, 100
3, 457920, Note_on_c, 1, 84, 100
3, 458370, Note_on_c, 1, 72, 0
3, 458370, Note_on_c, 1, 84, 0
3, 458640, Note_on_c, 1, 72, 100
3, 458640, Note_on_c, 1, 84, 100
3, 458760, Note_on_c, 1, 72, 0
3, 458760, Note_on_c, 1, 84, 0
3, 458880, Note_on_c, 1, 72, 100
3, 458880, Note_on_c, 1, 84, 100
3, 459330, Note_on_c, 1, 72, 0
3, 459330, Note_on_c, 1, 84, 0
3, 459600, Note_on_c, 1, 72, 100
3, 459600, Note_on_c, 1, 84, 100
3, 459720, Note_on_c, 1, 72, 0
3, 459720, Note_on_c, 1, 84, 0
3, 459840, Note_on_c, 1, 72, 100
3, 459840, Note_on_c, 1, 84, 100
3, 460170, Note_on_c, 1, 72, 0
3, 460170, Note_on_c, 1, 84, 0
3, 460560, Note_on_c, 1, 70, 100
3, 460560, Note_on_c, 1, 82, 100
3, 460680, Note_on_c, 1, 70, 0
3, 460680, Note_on_c, 1, 82, 0
3, 460800, Note_on_c, 1, 68, 100
3, 460800, Note_on_c, 1, 80, 100
3, 461130, Note_on_c, 1, 68, 0
3, 461130, Note_on_c, 1, 80, 0
3, 476160, Note_on_c, 1, 75, 80
3, 477600, Note_on_c, 1, 77, 80
3, 477630, Note_on_c, 1, 75, 0
3, 478080, Note_on_c, 1, 75, 80
3, 478110, Note_on_c, 1, 77, 0
3, 478560, Note_on_c, 1, 74, 80
3, 478590, Note_on_c, 1, 75, 0
3, 479040, Note_on_c, 1, 71, 80
3, 479070, Note_on_c, 1, 74, 0
3, 479520, Note_on_c, 1, 67, 80
3, 479550, Note_on_c, 1, 71, 0
3, 479970, Note_on_c, 1, 67, 0
3, 480000, Note_on_c, 1, 79, 80
3, 481440, Note_on_c, 1, 80, 80
3, 481470, Note_on_c, 1, 79, 0
3, 481920, Note_on_c, 1, 79, 80
3, 481950, Note_on_c, 1, 80, 0
3, 482880, Note_on_c, 1, 77, 80
3, 482910, Note_on_c, 1, 79, 0
3, 483810, Note_on_c, 1, 77, 0
3, 483840, Note_on_c, 1, 75, 80
3, 485280, Note_on_c, 1, 77, 83
3, 485310, Note_on_c, 1, 75, 0
3, 485760, Note_on_c, 1, 75, 85
3, 485790, Note_on_c, 1, 77, 0
3, 486240, Note_on_c, 1, 74, 86
3, 486270, Note_on_c, 1, 75, 0
3, 486720, Note_on_c, 1, 71, 87
3, 486750, Note_on_c, 1, 74, 0
3, 487200, Note_on_c, 1, 67, 88
3, 487230, Note_on_c, 1, 71, 0
3, 487650, Note_on_c, 1, 67, 0
3, 487680, Note_on_c, 1, 72, 100
3, 489570, Note_on_c, 1, 72, 0
3, 489600, Note_on_c, 1, 72, 110
3, 489600, Note_on_c, 1, 75, 110
3, 491490, Note_on_c, 1, 72, 0
3, 491490, Note_on_c, 1, 75, 0
3, 491520, Note_on_c, 1, 73, 60
3, 491520, Note_on_c, 1, 77, 60
3, 493410, Note_on_c, 1, 73, 0
3, 493410, Note_on_c, 1, 77, 0
3, 493440, Note_on_c, 1, 74, 110
3, 493440, Note_on_c, 1, 77, 110
3, 495330, Note_on_c, 1, 74, 0
3, 495330, Note_on_c, 1, 77, 0
3, 495360, Note_on_c, 1, 75, 60
3, 495360, Note_on_c, 1, 79, 60
3, 497250, Note_on_c, 1, 75, 0
3, 497250, Note_on_c, 1, 79, 0
3, 497280, Note_on_c, 1, 76, 110
3, 497280, Note_on_c, 1, 79, 110
3, 499170, Note_on_c, 1, 76, 0
3, 499170, Note_on_c, 1, 79, 0
3, 499200, Note_on_c, 1, 72, 80
3, 499200, Note_on_c, 1, 84, 80
3, 501117, Note_on_c, 1, 72, 0
3, 501117, Note_on_c, 1, 84, 0
3, 501120, Note_on_c, 1, 72, 87
3, 501120, Note_on_c, 1, 84, 87
3, 503037, Note_on_c, 1, 72, 0
3, 503037, Note_on_c, 1, 84, 0
3, 503040, Note_on_c, 1, 72, 95
3, 503040, Note_on_c, 1, 84, 95
3, 504957, Note_on_c, 1, 72, 0
3, 504957, Note_on_c, 1, 84, 0
3, 504960, Note_on_c, 1, 72, 100
3, 504960, Note_on_c, 1, 84, 100
3, 506877, Note_on_c, 1, 72, 0
3, 506877, Note_on_c, 1, 84, 0
3, 506880, Note_on_c, 1, 72, 100
3, 506880, Note_on_c, 1, 84, 100
3, 516390, Note_on_c, 1, 72, 0
3, 516390, Note_on_c, 1, 84, 0
3, 516480, Note_on_c, 1, 74, 100
3, 516480, Note_on_c, 1, 86, 100
3, 518370, Note_on_c, 1, 74, 0
3, 518370, Note_on_c, 1, 86, 0
3, 518400, Note_on_c, 1, 75, 100
3, 518730, Note_on_c, 1, 75, 0
3, 519120, Note_on_c, 1, 71, 100
3, 519270, Note_on_c, 1, 71, 0
3, 519360, Note_on_c, 1, 72, 100
3, 519690, Note_on_c, 1, 72, 0
3, 520080, Note_on_c, 1, 68, 100
3, 520230, Note_on_c, 1, 68, 0
3, 520320, Note_on_c, 1, 67, 100
3, 520650, Note_on_c, 1, 67, 0
3, 521040, Note_on_c, 1, 68, 100
3, 521190, Note_on_c, 1, 68, 0
3, 521280, Note_on_c, 1, 67, 100
3, 521610, Note_on_c, 1, 67, 0
3, 522000, Note_on_c, 1, 77, 100
3, 522150, Note_on_c, 1, 77, 0
3, 522240, Note_on_c, 1, 75, 100
3, 522570, Note_on_c, 1, 75, 0
3, 522960, Note_on_c, 1, 71, 100
3, 523110, Note_on_c, 1, 71, 0
3, 523200, Note_on_c, 1, 72, 100
3, 523530, Note_on_c, 1, 72, 0
3, 523920, Note_on_c, 1, 68, 100
3, 524070, Note_on_c, 1, 68, 0
3, 524160, Note_on_c, 1, 67, 100
3, 524490, Note_on_c, 1, 67, 0
3, 524880, Note_on_c, 1, 68, 100
3, 525030, Note_on_c, 1, 68, 0
3, 525120, Note_on_c, 1, 67, 100
3, 525450, Note_on_c, 1, 67, 0
3, 525840, Note_on_c, 1, 77, 100
3, 525990, Note_on_c, 1, 77, 0
3, 526080, Note_on_c, 1, 75, 100
3, 526410, Note_on_c, 1, 75, 0
3, 526800, Note_on_c, 1, 74, 100
3, 526800, Note_on_c, 1, 83, 100
3, 526950, Note_on_c, 1, 74, 0
3, 526950, Note_on_c, 1, 83, 0
3, 527040, Note_on_c, 1, 75, 100
3, 527040, Note_on_c, 1, 84, 100
3, 527370, Note_on_c, 1, 75, 0
3, 527370, Note_on_c, 1, 84, 0
3, 527760, Note_on_c, 1, 71, 100
3, 527760, Note_on_c, 1, 74, 100
3, 527910, Note_on_c, 1, 71, 0
3, 527910, Note_on_c, 1, 74, 0
3, 528000, Note_on_c, 1, 72, 100
3, 528000, Note_on_c, 1, 75, 100
3, 528330, Note_on_c, 1, 72, 0
3, 528330, Note_on_c, 1, 75, 0
3, 528720, Note_on_c, 1, 74, 100
3, 528720, Note_on_c, 1, 79, 100
3, 528870, Note_on_c, 1, 74, 0
3, 528870, Note_on_c, 1, 79, 0
3, 528960, Note_on_c, 1, 75, 100
3, 528960, Note_on_c, 1, 79, 100
3, 529290, Note_on_c, 1, 75, 0
3, 529290, Note_on_c, 1, 79, 0
3, 529680, Note_on_c, 1, 74, 100
3, 529680, Note_on_c, 1, 79, 100
3, 529830, Note_on_c, 1, 74, 0
3, 529830, Note_on_c, 1, 79, 0
3, 529920, Note_on_c, 1, 60, 50
3, 529920, Note_on_c, 1, 72, 50
3, 533490, Note_on_c, 1, 60, 0
3, 533490, Note_on_c, 1, 72, 0
3, 533760, Note_on_c, 1, 77, 100
3, 533760, Note_on_c, 1, 80, 100
3, 533970, Note_on_c, 1, 77, 0
3, 533970, Note_on_c, 1, 80, 0
3, 537600, Note_on_c, 1, 60, 50
3, 537600, Note_on_c, 1, 72, 50
3, 541170, Note_on_c, 1, 60, 0
3, 541170, Note_on_c, 1, 72, 0
3, 541440, Note_on_c, 1, 74, 100
3, 541440, Note_on_c, 1, 83, 100
3, 541650, Note_on_c, 1, 74, 0
3, 541650, Note_on_c, 1, 83, 0
3, 545280, Note_on_c, 1, 60, 50
3, 545280, Note_on_c, 1, 72, 50
3, 548850, Note_on_c, 1, 60, 0
3, 548850, Note_on_c, 1, 72, 0
3, 549120, Note_on_c, 1, 75, 100
3, 549120, Note_on_c, 1, 84, 100
3, 549330, Note_on_c, 1, 75, 0
3, 549330, Note_on_c, 1, 84, 0
3, 549600, Note_on_c, 1, 74, 100
3, 549600, Note_on_c, 1, 83, 100
3, 549840, Note_on_c, 1, 74, 0
3, 549840, Note_on_c, 1, 83, 0
3, 552960, Note_on_c, 1, 72, 80
3, 552960, Note_on_c, 1, 84, 80
3, 553170, Note_on_c, 1, 72, 0
3, 553170, Note_on_c, 1, 84, 0
3, 553440, Note_on_c, 1, 72, 80
3, 553440, Note_on_c, 1, 79, 80
3, 553650, Note_on_c, 1, 72, 0
3, 553650, Note_on_c, 1, 79, 0
3, 554880, Note_on_c, 1, 72, 80
3, 554880, Note_on_c, 1, 80, 80
3, 555090, Note_on_c, 1, 72, 0
3, 555090, Note_on_c, 1, 80, 0
3, 555360, Note_on_c, 1, 72, 80
3, 555360, Note_on_c, 1, 76, 80
3, 555570, Note_on_c, 1, 72, 0
3, 555570, Note_on_c, 1, 76, 0
3, 556800, Note_on_c, 1, 72, 75
3, 556800, Note_on_c, 1, 77, 75
3, 557160, Note_on_c, 1, 72, 0
3, 557160, Note_on_c, 1, 77, 0
3, 557760, Note_on_c, 1, 74, 73
3, 557760, Note_on_c, 1, 77, 73
3, 558120, Note_on_c, 1, 74, 0
3, 558120, Note_on_c, 1, 77, 0
3, 560640, Note_on_c, 1, 72, 65
3, 560640, Note_on_c, 1, 75, 65
3, 561060, Note_on_c, 1, 72, 0
3, 561060, Note_on_c, 1, 75, 0
3, 564480, Note_on_c, 1, 71, 30
3, 564480, Note_on_c, 1, 74, 30
3, 564870, Note_on_c, 1, 71, 0
3, 564870, Note_on_c, 1, 74, 0
3, 568320, Note_on_c, 1, 72, 30
3, 568680, Note_on_c, 1, 72, 0
3, 568680, End_track
4, 0, Start_track
4, 0, Channel_prefix, 2
4, 0, Title_t, "Clarinet"
4, 0, Instrument_name_t, "Clarinetti in Bb"
4, 5760, Note_on_c, 2, 68, 120
4, 5760, Note_on_c, 2, 72, 120
4, 5910, Note_on_c, 2, 68, 0
4, 5910, Note_on_c, 2, 72, 0
4, 13440, Note_on_c, 2, 71, 120
4, 13440, Note_on_c, 2, 74, 120
4, 13590, Note_on_c, 2, 71, 0
4, 13590, Note_on_c, 2, 74, 0
4, 21120, Note_on_c, 2, 72, 120
4, 21120, Note_on_c, 2, 75, 120
4, 21270, Note_on_c, 2, 72, 0
4, 21270, Note_on_c, 2, 75, 0
4, 24960, Note_on_c, 2, 72, 110
4, 24960, Note_on_c, 2, 75, 110
4, 25170, Note_on_c, 2, 72, 0
4, 25170, Note_on_c, 2, 75, 0
4, 26880, Note_on_c, 2, 71, 110
4, 26880, Note_on_c, 2, 74, 110
4, 27120, Note_on_c, 2, 71, 0
4, 27120, Note_on_c, 2, 74, 0
4, 36480, Note_on_c, 2, 68, 80
4, 36480, Control_c, 2, 11, 80
4, 36590, Control_c, 2, 11, 81
4, 36700, Control_c, 2, 11, 82
4, 36810, Control_c, 2, 11, 83
4, 36920, Control_c, 2, 11, 84
4, 37030, Control_c, 2, 11, 85
4, 37140, Control_c, 2, 11, 86
4, 37240, Control_c, 2, 11, 87
4, 37350, Control_c, 2, 11, 88
4, 37440, Note_on_c, 2, 67, 85
4, 37460, Control_c, 2, 11, 89
4, 37470, Note_on_c, 2, 68, 0
4, 37570, Control_c, 2, 11, 90
4, 37680, Control_c, 2, 11, 91
4, 37790, Control_c, 2, 11, 92
4, 37890, Control_c, 2, 11, 93
4, 38000, Control_c, 2, 11, 94
4, 38110, Control_c, 2, 11, 95
4, 38220, Control_c, 2, 11, 96
4, 38330, Control_c, 2, 11, 97
4, 38400, Note_on_c, 2, 66, 91
4, 38430, Note_on_c, 2, 67, 0
4, 38440, Control_c, 2, 11, 98
4, 38540, Control_c, 2, 11, 99
4, 38650, Control_c, 2, 11, 100
4, 38760, Control_c, 2, 11, 101
4, 38870, Control_c, 2, 11, 102
4, 38980, Control_c, 2, 11, 103
4, 39090, Control_c, 2, 11, 104
4, 39190, Control_c, 2, 11, 105
4, 39300, Control_c, 2, 11, 106
4, 39410, Control_c, 2, 11, 107
4, 39520, Control_c, 2, 11, 108
4, 39630, Control_c, 2, 11, 109
4, 39740, Control_c, 2, 11, 110
4, 39750, Note_on_c, 2, 66, 0
4, 39840, Note_on_c, 2, 59, 100
4, 39840, Note_on_c, 2, 67, 100
4, 40170, Note_on_c, 2, 59, 0
4, 40170, Note_on_c, 2, 67, 0
4, 40317, Control_c, 2, 11, 80
4, 65280, Note_on_c, 2, 65, 110
4, 65280, Note_on_c, 2, 72, 110
4, 67680, Note_on_c, 2, 63, 110
4, 67710, Note_on_c, 2, 65, 0
4, 67710, Note_on_c, 2, 72, 0
4, 68160, Note_on_c, 2, 65, 110
4, 68160, Note_on_c, 2, 68, 110
4, 68190, Note_on_c, 2, 63, 0
4, 68640, Note_on_c, 2, 63, 110
4, 68640, Note_on_c, 2, 67, 110
4, 68670, Note_on_c, 2, 65, 0
4, 68670, Note_on_c, 2, 68, 0
4, 69090, Note_on_c, 2, 63, 0
4, 69090, Note_on_c, 2, 67, 0
4, 69120, Note_on_c, 2, 67, 110
4, 69120, Note_on_c, 2, 79, 110
4, 69810, Note_on_c, 2, 67, 0
4, 69810, Note_on_c, 2, 79, 0
4, 70080, Note_on_c, 2, 67, 110
4, 70080, Note_on_c, 2, 79, 110
4, 70770, Note_on_c, 2, 67, 0
4, 70770, Note_on_c, 2, 79, 0
4, 71040, Note_on_c, 2, 74, 110
4, 71040, Note_on_c, 2, 77, 110
4, 71730, Note_on_c, 2, 74, 0
4, 71730, Note_on_c, 2, 77, 0
4, 72000, Note_on_c, 2, 67, 110
4, 72000, Note_on_c, 2, 72, 110
4, 72690, Note_on_c, 2, 67, 0
4, 72690, Note_on_c, 2, 72, 0
4, 72960, Note_on_c, 2, 67, 110
4, 72960, Note_on_c, 2, 72, 110
4, 73650, Note_on_c, 2, 67, 0
4, 73650, Note_on_c, 2, 72, 0
4, 73920, Note_on_c, 2, 65, 110
4, 73920, Note_on_c, 2, 68, 110
4, 74610, Note_on_c, 2, 65, 0
4, 74610, Note_on_c, 2, 68, 0
4, 74880, Note_on_c, 2, 67, 110
4, 74880, Note_on_c, 2, 70, 110
4, 75570, Note_on_c, 2, 67, 0
4, 75570, Note_on_c, 2, 70, 0
4, 75840, Note_on_c, 2, 68, 110
4, 75840, Note_on_c, 2, 72, 110
4, 76530, Note_on_c, 2, 68, 0
4, 76530, Note_on_c, 2, 72, 0
4, 76800, Note_on_c, 2, 72, 110
4, 76800, Note_on_c, 2, 75, 110
4, 77760, Note_on_c, 2, 72, 0
4, 77760, Note_on_c, 2, 75, 0
4, 78720, Note_on_c, 2, 72, 110
4, 78720, Note_on_c, 2, 75, 110
4, 79680, Note_on_c, 2, 72, 0
4, 79680, Note_on_c, 2, 75, 0
4, 80640, Note_on_c, 2, 71, 110
4, 80640, Note_on_c, 2, 74, 110
4, 81600, Note_on_c, 2, 71, 0
4, 81600, Note_on_c, 2, 74, 0
4, 82560, Note_on_c, 2, 71, 110
4, 82560, Note_on_c, 2, 74, 110
4, 83520, Note_on_c, 2, 71, 0
4, 83520, Note_on_c, 2, 74, 0
4, 84480, Note_on_c, 2, 70, 110
4, 84480, Note_on_c, 2, 73, 110
4, 86370, Note_on_c, 2, 70, 0
4, 86370, Note_on_c, 2, 73, 0
4, 86400, Note_on_c, 2, 69, 110
4, 86400, Note_on_c, 2, 72, 110
4, 88290, Note_on_c, 2, 69, 0
4, 88290, Note_on_c, 2, 72, 0
4, 88320, Note_on_c, 2, 65, 110
4, 88320, Note_on_c, 2, 70, 110
4, 89730, Note_on_c, 2, 65, 0
4, 89730, Note_on_c, 2, 70, 0
4, 89760, Note_on_c, 2, 66, 127
4, 89760, Note_on_c, 2, 70, 127
4, 90240, Note_on_c, 2, 65, 110
4, 90270, Note_on_c, 2, 66, 0
4, 91650, Note_on_c, 2, 65, 0
4, 91650, Note_on_c, 2, 70, 0
4, 91680, Note_on_c, 2, 66, 127
4, 91680, Note_on_c, 2, 70, 127
4, 92160, Note_on_c, 2, 65, 110
4, 92190, Note_on_c, 2, 66, 0
4, 93570, Note_on_c, 2, 65, 0
4, 93570, Note_on_c, 2, 70, 0
4, 93600, Note_on_c, 2, 66, 127
4, 93600, Note_on_c, 2, 70, 127
4, 94080, Note_on_c, 2, 65, 110
4, 94110, Note_on_c, 2, 66, 0
4, 95490, Note_on_c, 2, 65, 0
4, 95490, Note_on_c, 2, 70, 0
4, 95520, Note_on_c, 2, 66, 127
4, 95520, Note_on_c, 2, 70, 127
4, 96000, Note_on_c, 2, 65, 110
4, 96030, Note_on_c, 2, 66, 0
4, 96480, Note_on_c, 2, 65, 0
4, 96480, Note_on_c, 2, 70, 0
4, 107520, Note_on_c, 2, 79, 110
4, 107520, Control_c, 2, 11, 80
4, 108290, Control_c, 2, 11, 81
4, 108960, Note_on_c, 2, 80, 110
4, 108990, Note_on_c, 2, 79, 0
4, 109060, Control_c, 2, 11, 82
4, 109440, Note_on_c, 2, 79, 110
4, 109470, Note_on_c, 2, 80, 0
4, 109830, Control_c, 2, 11, 83
4, 109920, Note_on_c, 2, 77, 110
4, 109950, Note_on_c, 2, 79, 0
4, 110400, Note_on_c, 2, 74, 110
4, 110430, Note_on_c, 2, 77, 0
4, 110600, Control_c, 2, 11, 84
4, 110880, Note_on_c, 2, 70, 110
4, 110910, Note_on_c, 2, 74, 0
4, 111330, Note_on_c, 2, 70, 0
4, 111360, Note_on_c, 2, 82, 100
4, 111360, Control_c, 2, 11, 85
4, 112130, Control_c, 2, 11, 86
4, 112800, Note_on_c, 2, 84, 100
4, 112830, Note_on_c, 2, 82, 0
4, 112900, Control_c, 2, 11, 87
4, 113280, Note_on_c, 2, 82, 100
4, 113310, Note_on_c, 2, 84, 0
4, 113670, Control_c, 2, 11, 88
4, 114240, Note_on_c, 2, 80, 100
4, 114270, Note_on_c, 2, 82, 0
4, 114440, Control_c, 2, 11, 89
4, 115170, Note_on_c, 2, 80, 0
4, 115200, Note_on_c, 2, 79, 100
4, 115200, Control_c, 2, 11, 90
4, 115550, Control_c, 2, 11, 91
4, 115900, Control_c, 2, 11, 92
4, 116250, Control_c, 2, 11, 93
4, 116600, Control_c, 2, 11, 94
4, 116640, Note_on_c, 2, 80, 100
4, 116670, Note_on_c, 2, 79, 0
4, 116950, Control_c, 2, 11, 95
4, 117120, Note_on_c, 2, 79, 95
4, 117150, Note_on_c, 2, 80, 0
4, 117300, Control_c, 2, 11, 96
4, 117600, Note_on_c, 2, 77, 92
4, 117630, Note_on_c, 2, 79, 0
4, 117650, Control_c, 2, 11, 97
4, 118000, Control_c, 2, 11, 98
4, 118080, Note_on_c, 2, 74, 89
4, 118110, Note_on_c, 2, 77, 0
4, 118350, Control_c, 2, 11, 99
4, 118560, Note_on_c, 2, 70, 85
4, 118590, Note_on_c, 2, 74, 0
4, 118700, Control_c, 2, 11, 100
4, 119010, Note_on_c, 2, 70, 0
4, 119040, Note_on_c, 2, 70, 100
4, 119040, Note_on_c, 2, 82, 100
4, 119970, Note_on_c, 2, 70, 0
4, 119970, Note_on_c, 2, 82, 0
4, 120000, Note_on_c, 2, 61, 100
4, 120000, Note_on_c, 2, 73, 100
4, 120930, Note_on_c, 2, 61, 0
4, 120930, Note_on_c, 2, 73, 0
4, 120960, Note_on_c, 2, 60, 90
4, 120960, Note_on_c, 2, 72, 90
4, 122877, Control_c, 2, 11, 70
4, 130530, Note_on_c, 2, 60, 0
4, 130530, Note_on_c, 2, 72, 0
4, 130560, Note_on_c, 2, 68, 100
4, 130560, Control_c, 2, 11, 80
4, 130750, Control_c, 2, 11, 81
4, 130930, Control_c, 2, 11, 82
4, 131110, Control_c, 2, 11, 83
4, 131300, Control_c, 2, 11, 84
4, 131480, Control_c, 2, 11, 85
4, 131660, Control_c, 2, 11, 86
4, 131840, Control_c, 2, 11, 87
4, 132000, Note_on_c, 2, 70, 100
4, 132030, Note_on_c, 2, 68, 0
4, 132030, Control_c, 2, 11, 88
4, 132210, Control_c, 2, 11, 89
4, 132390, Control_c, 2, 11, 90
4, 132480, Note_on_c, 2, 68, 100
4, 132510, Note_on_c, 2, 70, 0
4, 132580, Control_c, 2, 11, 91
4, 132760, Control_c, 2, 11, 92
4, 132940, Control_c, 2, 11, 93
4, 132960, Note_on_c, 2, 67, 100
4, 132990, Note_on_c, 2, 68, 0
4, 133120, Control_c, 2, 11, 94
4, 133310, Control_c, 2, 11, 95
4, 133440, Note_on_c, 2, 64, 100
4, 133470, Note_on_c, 2, 67, 0
4, 133490, Control_c, 2, 11, 96
4, 133670, Control_c, 2, 11, 97
4, 133860, Control_c, 2, 11, 98
4, 133920, Note_on_c, 2, 60, 100
4, 133950, Note_on_c, 2, 64, 0
4, 134040, Control_c, 2, 11, 99
4, 134220, Control_c, 2, 11, 100
4, 134370, Note_on_c, 2, 60, 0
4, 134400, Note_on_c, 2, 72, 100
4, 135330, Note_on_c, 2, 72, 0
4, 135360, Note_on_c, 2, 63, 100
4, 135360, Note_on_c, 2, 75, 100
4, 136290, Note_on_c, 2, 63, 0
4, 136290, Note_on_c, 2, 75, 0
4, 136320, Note_on_c, 2, 62, 100
4, 136320, Note_on_c, 2, 74, 100
4, 138237, Control_c, 2, 11, 80
4, 138720, Note_on_c, 2, 62, 0
4, 138720, Note_on_c, 2, 74, 0
4, 161280, Note_on_c, 2, 63, 110
4, 161280, Note_on_c, 2, 75, 110
4, 162720, Note_on_c, 2, 62, 110
4, 162720, Note_on_c, 2, 74, 110
4, 162750, Note_on_c, 2, 63, 0
4, 162750, Note_on_c, 2, 75, 0
4, 163170, Note_on_c, 2, 62, 0
4, 163170, Note_on_c, 2, 74, 0
4, 163200, Note_on_c, 2, 72, 110
4, 163680, Note_on_c, 2, 70, 110
4, 163710, Note_on_c, 2, 72, 0
4, 164160, Note_on_c, 2, 72, 110
4, 164190, Note_on_c, 2, 70, 0
4, 164640, Note_on_c, 2, 70, 110
4, 164670, Note_on_c, 2, 72, 0
4, 165090, Note_on_c, 2, 70, 0
4, 165120, Note_on_c, 2, 63, 110
4, 165120, Note_on_c, 2, 75, 110
4, 166560, Note_on_c, 2, 62, 110
4, 166560, Note_on_c, 2, 74, 110
4, 166590, Note_on_c, 2, 63, 0
4, 166590, Note_on_c, 2, 75, 0
4, 167010, Note_on_c, 2, 62, 0
4, 167010, Note_on_c, 2, 74, 0
4, 167040, Note_on_c, 2, 72, 110
4, 167520, Note_on_c, 2, 70, 110
4, 167550, Note_on_c, 2, 72, 0
4, 168000, Note_on_c, 2, 72, 110
4, 168030, Note_on_c, 2, 70, 0
4, 168480, Note_on_c, 2, 70, 110
4, 168510, Note_on_c, 2, 72, 0
4, 168930, Note_on_c, 2, 70, 0
4, 168960, Note_on_c, 2, 68, 110
4, 170400, Note_on_c, 2, 67, 110
4, 170430, Note_on_c, 2, 68, 0
4, 170850, Note_on_c, 2, 67, 0
4, 170880, Note_on_c, 2, 65, 110
4, 171360, Note_on_c, 2, 63, 110
4, 171390, Note_on_c, 2, 65, 0
4, 171840, Note_on_c, 2, 65, 110
4, 171870, Note_on_c, 2, 63, 0
4, 172320, Note_on_c, 2, 63, 110
4, 172350, Note_on_c, 2, 65, 0
4, 172770, Note_on_c, 2, 63, 0
4, 172800, Note_on_c, 2, 68, 110
4, 174240, Note_on_c, 2, 67, 110
4, 174270, Note_on_c, 2, 68, 0
4, 174690, Note_on_c, 2, 67, 0
4, 174720, Note_on_c, 2, 65, 110
4, 175200, Note_on_c, 2, 63, 110
4, 175230, Note_on_c, 2, 65, 0
4, 175680, Note_on_c, 2, 65, 110
4, 175710, Note_on_c, 2, 63, 0
4, 176160, Note_on_c, 2, 63, 110
4, 176190, Note_on_c, 2, 65, 0
4, 176610, Note_on_c, 2, 63, 0
4, 177360, Note_on_c, 2, 63, 110
4, 177360, Note_on_c, 2, 68, 110
4, 177480, Note_on_c, 2, 63, 0
4, 177480, Note_on_c, 2, 68, 0
4, 177600, Note_on_c, 2, 63, 110
4, 177600, Note_on_c, 2, 68, 110
4, 178080, Note_on_c, 2, 67, 110
4, 178080, Note_on_c, 2, 70, 110
4, 178110, Note_on_c, 2, 63, 0
4, 178110, Note_on_c, 2, 68, 0
4, 178530, Note_on_c, 2, 67, 0
4, 178530, Note_on_c, 2, 70, 0
4, 179280, Note_on_c, 2, 63, 110
4, 179280, Note_on_c, 2, 68, 110
4, 179400, Note_on_c, 2, 63, 0
4, 179400, Note_on_c, 2, 68, 0
4, 179520, Note_on_c, 2, 63, 110
4, 179520, Note_on_c, 2, 68, 110
4, 180000, Note_on_c, 2, 67, 110
4, 180000, Note_on_c, 2, 70, 110
4, 180030, Note_on_c, 2, 63, 0
4, 180030, Note_on_c, 2, 68, 0
4, 180450, Note_on_c, 2, 67, 0
4, 180450, Note_on_c, 2, 70, 0
4, 181200, Note_on_c, 2, 63, 110
4, 181200, Note_on_c, 2, 68, 110
4, 181320, Note_on_c, 2, 63, 0
4, 181320, Note_on_c, 2, 68, 0
4, 181440, Note_on_c, 2, 63, 110
4, 181440, Note_on_c, 2, 68, 110
4, 181920, Note_on_c, 2, 67, 110
4, 181920, Note_on_c, 2, 70, 110
4, 181950, Note_on_c, 2, 63, 0
4, 181950, Note_on_c, 2, 68, 0
4, 182370, Note_on_c, 2, 67, 0
4, 182370, Note_on_c, 2, 70, 0
4, 183120, Note_on_c, 2, 63, 110
4, 183120, Note_on_c, 2, 68, 110
4, 183240, Note_on_c, 2, 63, 0
4, 183240, Note_on_c, 2, 68, 0
4, 183360, Note_on_c, 2, 63, 110
4, 183360, Note_on_c, 2, 68, 110
4, 183840, Note_on_c, 2, 67, 110
4, 183840, Note_on_c, 2, 70, 110
4, 183870, Note_on_c, 2, 63, 0
4, 183870, Note_on_c, 2, 68, 0
4, 184290, Note_on_c, 2, 67, 0
4, 184290, Note_on_c, 2, 70, 0
4, 184320, Note_on_c, 2, 68, 110
4, 185250, Note_on_c, 2, 68, 0
4, 185280, Note_on_c, 2, 66, 110
4, 185280, Note_on_c, 2, 69, 110
4, 186210, Note_on_c, 2, 66, 0
4, 186210, Note_on_c, 2, 69, 0
4, 186240, Note_on_c, 2, 67, 110
4, 186240, Note_on_c, 2, 74, 110
4, 187170, Note_on_c, 2, 67, 0
4, 187170, Note_on_c, 2, 74, 0
4, 187200, Note_on_c, 2, 64, 110
4, 187200, Note_on_c, 2, 67, 110
4, 188130, Note_on_c, 2, 64, 0
4, 188130, Note_on_c, 2, 67, 0
4, 188160, Note_on_c, 2, 65, 110
4, 188160, Note_on_c, 2, 72, 110
4, 189090, Note_on_c, 2, 65, 0
4, 189120, Note_on_c, 2, 63, 110
4, 190050, Note_on_c, 2, 63, 0
4, 190080, Note_on_c, 2, 69, 110
4, 191010, Note_on_c, 2, 69, 0
4, 191040, Note_on_c, 2, 67, 110
4, 191970, Note_on_c, 2, 67, 0
4, 191970, Note_on_c, 2, 72, 0
4, 192000, Note_on_c, 2, 66, 110
4, 192000, Note_on_c, 2, 72, 110
4, 192480, Note_on_c, 2, 66, 0
4, 192480, Note_on_c, 2, 72, 0
4, 192960, Note_on_c, 2, 63, 80
4, 192960, Note_on_c, 2, 75, 80
4, 193440, Note_on_c, 2, 63, 0
4, 193440, Note_on_c, 2, 75, 0
4, 193920, Note_on_c, 2, 60, 80
4, 193920, Note_on_c, 2, 72, 80
4, 194400, Note_on_c, 2, 60, 0
4, 194400, Note_on_c, 2, 72, 0
4, 194880, Note_on_c, 2, 62, 80
4, 194880, Note_on_c, 2, 74, 80
4, 195360, Note_on_c, 2, 62, 0
4, 195360, Note_on_c, 2, 74, 0
4, 195840, Note_on_c, 2, 55, 70
4, 195840, Note_on_c, 2, 67, 70
4, 196320, Note_on_c, 2, 55, 0
4, 196320, Note_on_c, 2, 67, 0
4, 199440, Note_on_c, 2, 69, 120
4, 199440, Note_on_c, 2, 74, 120
4, 199560, Note_on_c, 2, 69, 0
4, 199560, Note_on_c, 2, 74, 0
4, 199680, Note_on_c, 2, 70, 120
4, 199680, Note_on_c, 2, 74, 120
4, 200010, Note_on_c, 2, 70, 0
4, 200010, Note_on_c, 2, 74, 0
4, 203280, Note_on_c, 2, 69, 120
4, 203280, Note_on_c, 2, 74, 120
4, 203400, Note_on_c, 2, 69, 0
4, 203400, Note_on_c, 2, 74, 0
4, 203520, Note_on_c, 2, 70, 120
4, 203520, Note_on_c, 2, 74, 120
4, 203850, Note_on_c, 2, 70, 0
4, 203850, Note_on_c, 2, 74, 0
4, 211200, Note_on_c, 2, 70, 120
4, 211530, Note_on_c, 2, 70, 0
4, 212160, Note_on_c, 2, 69, 120
4, 212490, Note_on_c, 2, 69, 0
4, 213120, Note_on_c, 2, 67, 120
4, 213450, Note_on_c, 2, 67, 0
4, 214080, Note_on_c, 2, 65, 120
4, 214410, Note_on_c, 2, 65, 0
4, 215040, Note_on_c, 2, 63, 120
4, 215370, Note_on_c, 2, 63, 0
4, 216000, Note_on_c, 2, 67, 120
4, 216330, Note_on_c, 2, 67, 0
4, 216720, Note_on_c, 2, 67, 120
4, 216720, Note_on_c, 2, 70, 120
4, 216840, Note_on_c, 2, 67, 0
4, 216840, Note_on_c, 2, 70, 0
4, 216960, Note_on_c, 2, 67, 120
4, 216960, Note_on_c, 2, 70, 120
4, 217290, Note_on_c, 2, 67, 0
4, 217290, Note_on_c, 2, 70, 0
4, 217680, Note_on_c, 2, 62, 120
4, 217680, Note_on_c, 2, 74, 120
4, 217800, Note_on_c, 2, 62, 0
4, 217800, Note_on_c, 2, 74, 0
4, 217920, Note_on_c, 2, 62, 120
4, 217920, Note_on_c, 2, 74, 120
4, 218250, Note_on_c, 2, 62, 0
4, 218250, Note_on_c, 2, 74, 0
4, 218640, Note_on_c, 2, 62, 120
4, 218640, Note_on_c, 2, 74, 120
4, 218760, Note_on_c, 2, 62, 0
4, 218760, Note_on_c, 2, 74, 0
4, 218880, Note_on_c, 2, 70, 120
4, 218880, Note_on_c, 2, 74, 120
4, 223380, Note_on_c, 2, 70, 0
4, 223380, Note_on_c, 2, 74, 0
4, 223440, Note_on_c, 2, 70, 120
4, 223440, Note_on_c, 2, 74, 120
4, 223560, Note_on_c, 2, 70, 0
4, 223560, Note_on_c, 2, 74, 0
4, 223680, Note_on_c, 2, 70, 120
4, 223680, Note_on_c, 2, 74, 120
4, 224010, Note_on_c, 2, 70, 0
4, 224010, Note_on_c, 2, 74, 0
4, 224400, Note_on_c, 2, 70, 120
4, 224400, Note_on_c, 2, 74, 120
4, 224520, Note_on_c, 2, 70, 0
4, 224520, Note_on_c, 2, 74, 0
4, 224640, Note_on_c, 2, 70, 120
4, 224640, Note_on_c, 2, 74, 120
4, 224970, Note_on_c, 2, 70, 0
4, 224970, Note_on_c, 2, 74, 0
4, 225360, Note_on_c, 2, 70, 120
4, 225360, Note_on_c, 2, 74, 120
4, 225480, Note_on_c, 2, 70, 0
4, 225480, Note_on_c, 2, 74, 0
4, 225600, Note_on_c, 2, 70, 120
4, 225600, Note_on_c, 2, 74, 120
4, 225930, Note_on_c, 2, 70, 0
4, 225930, Note_on_c, 2, 74, 0
4, 226320, Note_on_c, 2, 70, 120
4, 226320, Note_on_c, 2, 74, 120
4, 226440, Note_on_c, 2, 70, 0
4, 226440, Note_on_c, 2, 74, 0
4, 226560, Note_on_c, 2, 70, 120
4, 226560, Note_on_c, 2, 74, 120
4, 226950, Note_on_c, 2, 70, 0
4, 226950, Note_on_c, 2, 74, 0
4, 234960, Note_on_c, 2, 73, 80
4, 235080, Note_on_c, 2, 73, 0
4, 235200, Note_on_c, 2, 72, 80
4, 235530, Note_on_c, 2, 72, 0
4, 235920, Note_on_c, 2, 67, 80
4, 236040, Note_on_c, 2, 67, 0
4, 236160, Note_on_c, 2, 68, 80
4, 236490, Note_on_c, 2, 68, 0
4, 238800, Note_on_c, 2, 73, 80
4, 238920, Note_on_c, 2, 73, 0
4, 239040, Note_on_c, 2, 72, 80
4, 239370, Note_on_c, 2, 72, 0
4, 239760, Note_on_c, 2, 67, 80
4, 239880, Note_on_c, 2, 67, 0
4, 240000, Note_on_c, 2, 64, 80
4, 240330, Note_on_c, 2, 64, 0
4, 248400, Note_on_c, 2, 77, 80
4, 248520, Note_on_c, 2, 77, 0
4, 248640, Note_on_c, 2, 75, 80
4, 248970, Note_on_c, 2, 75, 0
4, 249360, Note_on_c, 2, 70, 80
4, 249480, Note_on_c, 2, 70, 0
4, 249600, Note_on_c, 2, 72, 80
4, 249930, Note_on_c, 2, 72, 0
4, 256080, Note_on_c, 2, 78, 80
4, 256200, Note_on_c, 2, 78, 0
4, 256320, Note_on_c, 2, 77, 81
4, 256650, Note_on_c, 2, 77, 0
4, 257040, Note_on_c, 2, 72, 86
4, 257160, Note_on_c, 2, 72, 0
4, 257280, Note_on_c, 2, 73, 87
4, 257610, Note_on_c, 2, 73, 0
4, 268800, Note_on_c, 2, 65, 100
4, 269130, Note_on_c, 2, 65, 0
4, 270480, Note_on_c, 2, 63, 100
4, 270600, Note_on_c, 2, 63, 0
4, 270720, Note_on_c, 2, 61, 100
4, 271050, Note_on_c, 2, 61, 0
4, 272400, Note_on_c, 2, 60, 100
4, 272520, Note_on_c, 2, 60, 0
4, 272640, Note_on_c, 2, 58, 100
4, 272970, Note_on_c, 2, 58, 0
4, 273360, Note_on_c, 2, 64, 100
4, 273360, Note_on_c, 2, 70, 100
4, 273480, Note_on_c, 2, 64, 0
4, 273480, Note_on_c, 2, 70, 0
4, 273600, Note_on_c, 2, 65, 100
4, 273600, Note_on_c, 2, 70, 100
4, 273930, Note_on_c, 2, 65, 0
4, 273930, Note_on_c, 2, 70, 0
4, 274320, Note_on_c, 2, 65, 100
4, 274320, Note_on_c, 2, 70, 100
4, 274440, Note_on_c, 2, 65, 0
4, 274440, Note_on_c, 2, 70, 0
4, 274560, Note_on_c, 2, 67, 100
4, 274560, Note_on_c, 2, 70, 100
4, 274890, Note_on_c, 2, 67, 0
4, 274890, Note_on_c, 2, 70, 0
4, 275280, Note_on_c, 2, 67, 100
4, 275280, Note_on_c, 2, 70, 100
4, 275400, Note_on_c, 2, 67, 0
4, 275400, Note_on_c, 2, 70, 0
4, 275520, Note_on_c, 2, 67, 100
4, 275520, Note_on_c, 2, 70, 100
4, 275850, Note_on_c, 2, 67, 0
4, 275850, Note_on_c, 2, 70, 0
4, 276240, Note_on_c, 2, 67, 100
4, 276240, Note_on_c, 2, 70, 100
4, 276360, Note_on_c, 2, 67, 0
4, 276360, Note_on_c, 2, 70, 0
4, 284160, Note_on_c, 2, 68, 110
4, 284490, Note_on_c, 2, 68, 0
4, 284880, Note_on_c, 2, 73, 110
4, 285000, Note_on_c, 2, 73, 0
4, 285120, Note_on_c, 2, 72, 110
4, 285450, Note_on_c, 2, 72, 0
4, 285840, Note_on_c, 2, 67, 110
4, 285960, Note_on_c, 2, 67, 0
4, 286080, Note_on_c, 2, 65, 110
4, 286410, Note_on_c, 2, 65, 0
4, 286800, Note_on_c, 2, 70, 110
4, 286920, Note_on_c, 2, 70, 0
4, 287040, Note_on_c, 2, 68, 110
4, 287370, Note_on_c, 2, 68, 0
4, 287760, Note_on_c, 2, 63, 110
4, 287880, Note_on_c, 2, 63, 0
4, 288000, Note_on_c, 2, 61, 110
4, 288330, Note_on_c, 2, 61, 0
4, 288720, Note_on_c, 2, 67, 110
4, 288840, Note_on_c, 2, 67, 0
4, 288960, Note_on_c, 2, 65, 110
4, 289290, Note_on_c, 2, 65, 0
4, 289680, Note_on_c, 2, 65, 110
4, 289680, Note_on_c, 2, 68, 110
4, 289800, Note_on_c, 2, 65, 0
4, 289800, Note_on_c, 2, 68, 0
4, 289920, Note_on_c, 2, 65, 110
4, 289920, Note_on_c, 2, 67, 110
4, 290250, Note_on_c, 2, 65, 0
4, 290250, Note_on_c, 2, 67, 0
4, 290640, Note_on_c, 2, 65, 110
4, 290640, Note_on_c, 2, 67, 110
4, 290760, Note_on_c, 2, 65, 0
4, 290760, Note_on_c, 2, 67, 0
4, 290880, Note_on_c, 2, 64, 110
4, 290880, Note_on_c, 2, 67, 110
4, 291210, Note_on_c, 2, 64, 0
4, 291210, Note_on_c, 2, 67, 0
4, 291600, Note_on_c, 2, 64, 110
4, 291600, Note_on_c, 2, 67, 110
4, 291720, Note_on_c, 2, 64, 0
4, 291720, Note_on_c, 2, 67, 0
4, 291840, Note_on_c, 2, 65, 110
4, 292170, Note_on_c, 2, 65, 0
4, 295680, Note_on_c, 2, 70, 120
4, 295680, Note_on_c, 2, 73, 120
4, 295890, Note_on_c, 2, 70, 0
4, 295890, Note_on_c, 2, 73, 0
4, 303360, Note_on_c, 2, 65, 110
4, 303360, Note_on_c, 2, 74, 110
4, 303990, Note_on_c, 2, 65, 0
4, 303990, Note_on_c, 2, 74, 0
4, 305280, Note_on_c, 2, 65, 110
4, 305280, Note_on_c, 2, 75, 110
4, 305910, Note_on_c, 2, 65, 0
4, 305910, Note_on_c, 2, 75, 0
4, 312960, Note_on_c, 2, 64, 120
4, 312960, Note_on_c, 2, 67, 120
4, 313890, Note_on_c, 2, 64, 0
4, 313890, Note_on_c, 2, 67, 0
4, 314880, Note_on_c, 2, 64, 120
4, 314880, Note_on_c, 2, 67, 120
4, 315810, Note_on_c, 2, 64, 0
4, 315810, Note_on_c, 2, 67, 0
4, 322080, Note_on_c, 2, 61, 120
4, 322080, Note_on_c, 2, 73, 120
4, 322560, Note_on_c, 2, 60, 120
4, 322560, Note_on_c, 2, 72, 120
4, 322590, Note_on_c, 2, 61, 0
4, 322590, Note_on_c, 2, 73, 0
4, 323880, Note_on_c, 2, 60, 0
4, 323880, Note_on_c, 2, 72, 0
4, 324000, Note_on_c, 2, 61, 120
4, 324000, Note_on_c, 2, 73, 120
4, 324480, Note_on_c, 2, 60, 120
4, 324480, Note_on_c, 2, 72, 120
4, 324510, Note_on_c, 2, 61, 0
4, 324510, Note_on_c, 2, 73, 0
4, 325800, Note_on_c, 2, 60, 0
4, 325800, Note_on_c, 2, 72, 0
4, 325920, Note_on_c, 2, 61, 120
4, 325920, Note_on_c, 2, 73, 120
4, 326400, Note_on_c, 2, 60, 120
4, 326400, Note_on_c, 2, 72, 120
4, 326430, Note_on_c, 2, 61, 0
4, 326430, Note_on_c, 2, 73, 0
4, 327720, Note_on_c, 2, 60, 0
4, 327720, Note_on_c, 2, 72, 0
4, 327840, Note_on_c, 2, 61, 120
4, 327840, Note_on_c, 2, 73, 120
4, 328320, Note_on_c, 2, 60, 120
4, 328320, Note_on_c, 2, 72, 120
4, 328350, Note_on_c, 2, 61, 0
4, 328350, Note_on_c, 2, 73, 0
4, 329430, Note_on_c, 2, 60, 0
4, 329430, Note_on_c, 2, 72, 0
4, 329760, Note_on_c, 2, 63, 120
4, 329760, Note_on_c, 2, 75, 120
4, 330240, Note_on_c, 2, 62, 120
4, 330240, Note_on_c, 2, 74, 120
4, 330270, Note_on_c, 2, 63, 0
4, 330270, Note_on_c, 2, 75, 0
4, 331560, Note_on_c, 2, 62, 0
4, 331560, Note_on_c, 2, 74, 0
4, 331680, Note_on_c, 2, 63, 120
4, 331680, Note_on_c, 2, 75, 120
4, 332160, Note_on_c, 2, 62, 120
4, 332160, Note_on_c, 2, 74, 120
4, 332190, Note_on_c, 2, 63, 0
4, 332190, Note_on_c, 2, 75, 0
4, 333480, Note_on_c, 2, 62, 0
4, 333480, Note_on_c, 2, 74, 0
4, 333600, Note_on_c, 2, 63, 120
4, 333600, Note_on_c, 2, 75, 120
4, 334080, Note_on_c, 2, 62, 120
4, 334080, Note_on_c, 2, 74, 120
4, 334110, Note_on_c, 2, 63, 0
4, 334110, Note_on_c, 2, 75, 0
4, 335400, Note_on_c, 2, 62, 0
4, 335400, Note_on_c, 2, 74, 0
4, 335520, Note_on_c, 2, 63, 120
4, 335520, Note_on_c, 2, 75, 120
4, 336000, Note_on_c, 2, 62, 120
4, 336000, Note_on_c, 2, 74, 120
4, 336030, Note_on_c, 2, 63, 0
4, 336030, Note_on_c, 2, 75, 0
4, 337320, Note_on_c, 2, 62, 0
4, 337320, Note_on_c, 2, 74, 0
4, 337440, Note_on_c, 2, 63, 120
4, 337440, Note_on_c, 2, 75, 120
4, 337920, Note_on_c, 2, 62, 120
4, 337920, Note_on_c, 2, 74, 120
4, 337950, Note_on_c, 2, 63, 0
4, 337950, Note_on_c, 2, 75, 0
4, 338400, Note_on_c, 2, 62, 0
4, 338400, Note_on_c, 2, 74, 0
4, 357120, Note_on_c, 2, 64, 80
4, 357120, Note_on_c, 2, 76, 80
4, 357120, Control_c, 2, 11, 80
4, 357250, Control_c, 2, 11, 81
4, 357370, Control_c, 2, 11, 82
4, 357500, Control_c, 2, 11, 83
4, 357620, Control_c, 2, 11, 84
4, 357740, Control_c, 2, 11, 85
4, 357870, Control_c, 2, 11, 86
4, 357990, Control_c, 2, 11, 87
4, 358120, Control_c, 2, 11, 88
4, 358240, Control_c, 2, 11, 89
4, 358360, Control_c, 2, 11, 90
4, 358490, Control_c, 2, 11, 91
4, 358560, Note_on_c, 2, 65, 80
4, 358560, Note_on_c, 2, 77, 80
4, 358590, Note_on_c, 2, 64, 0
4, 358590, Note_on_c, 2, 76, 0
4, 358610, Control_c, 2, 11, 92
4, 358740, Control_c, 2, 11, 93
4, 358860, Control_c, 2, 11, 94
4, 358980, Control_c, 2, 11, 95
4, 359040, Note_on_c, 2, 64, 80
4, 359040, Note_on_c, 2, 76, 80
4, 359070, Note_on_c, 2, 65, 0
4, 359070, Note_on_c, 2, 77, 0
4, 359110, Control_c, 2, 11, 96
4, 359230, Control_c, 2, 11, 97
4, 359350, Control_c, 2, 11, 98
4, 359480, Control_c, 2, 11, 99
4, 359520, Note_on_c, 2, 62, 80
4, 359520, Note_on_c, 2, 74, 80
4, 359550, Note_on_c, 2, 64, 0
4, 359550, Note_on_c, 2, 76, 0
4, 359600, Control_c, 2, 11, 100
4, 359730, Control_c, 2, 11, 101
4, 359850, Control_c, 2, 11, 102
4, 359970, Control_c, 2, 11, 103
4, 360000, Note_on_c, 2, 59, 80
4, 360000, Note_on_c, 2, 71, 80
4, 360030, Note_on_c, 2, 62, 0
4, 360030, Note_on_c, 2, 74, 0
4, 360100, Control_c, 2, 11, 104
4, 360220, Control_c, 2, 11, 105
4, 360350, Control_c, 2, 11, 106
4, 360470, Control_c, 2, 11, 107
4, 360480, Note_on_c, 2, 55, 80
4, 360480, Note_on_c, 2, 67, 80
4, 360510, Note_on_c, 2, 59, 0
4, 360510, Note_on_c, 2, 71, 0
4, 360590, Control_c, 2, 11, 108
4, 360720, Control_c, 2, 11, 109
4, 360840, Control_c, 2, 11, 110
4, 360930, Note_on_c, 2, 55, 0
4, 360930, Note_on_c, 2, 67, 0
4, 360960, Note_on_c, 2, 67, 80
4, 361890, Note_on_c, 2, 67, 0
4, 361920, Note_on_c, 2, 70, 80
4, 362850, Note_on_c, 2, 70, 0
4, 362880, Note_on_c, 2, 69, 80
4, 364797, Control_c, 2, 11, 80
4, 365250, Note_on_c, 2, 69, 0
4, 372480, Control_c, 2, 11, 80
4, 372610, Control_c, 2, 11, 81
4, 372730, Control_c, 2, 11, 82
4, 372860, Control_c, 2, 11, 83
4, 372980, Control_c, 2, 11, 84
4, 373100, Control_c, 2, 11, 85
4, 373230, Control_c, 2, 11, 86
4, 373350, Control_c, 2, 11, 87
4, 373480, Control_c, 2, 11, 88
4, 373600, Control_c, 2, 11, 89
4, 373720, Control_c, 2, 11, 90
4, 373850, Control_c, 2, 11, 91
4, 373970, Control_c, 2, 11, 92
4, 374100, Control_c, 2, 11, 93
4, 374220, Control_c, 2, 11, 94
4, 374340, Control_c, 2, 11, 95
4, 374470, Control_c, 2, 11, 96
4, 374590, Control_c, 2, 11, 97
4, 374710, Control_c, 2, 11, 98
4, 374840, Control_c, 2, 11, 99
4, 374960, Control_c, 2, 11, 100
4, 375090, Control_c, 2, 11, 101
4, 375210, Control_c, 2, 11, 102
4, 375330, Control_c, 2, 11, 103
4, 375460, Control_c, 2, 11, 104
4, 375580, Control_c, 2, 11, 105
4, 375710, Control_c, 2, 11, 106
4, 375830, Control_c, 2, 11, 107
4, 375950, Control_c, 2, 11, 108
4, 376080, Control_c, 2, 11, 109
4, 376200, Control_c, 2, 11, 110
4, 376320, Note_on_c, 2, 69, 80
4, 377250, Note_on_c, 2, 69, 0
4, 377280, Note_on_c, 2, 72, 80
4, 378210, Note_on_c, 2, 72, 0
4, 378240, Note_on_c, 2, 71, 80
4, 380157, Note_on_c, 2, 71, 0
4, 380157, Control_c, 2, 11, 80
4, 380160, Note_on_c, 2, 71, 70
4, 382080, Control_c, 2, 11, 80
4, 382280, Control_c, 2, 11, 81
4, 382470, Control_c, 2, 11, 82
4, 382660, Control_c, 2, 11, 83
4, 382850, Control_c, 2, 11, 84
4, 383040, Control_c, 2, 11, 85
4, 383240, Control_c, 2, 11, 86
4, 383430, Control_c, 2, 11, 87
4, 383620, Control_c, 2, 11, 88
4, 383810, Control_c, 2, 11, 89
4, 384000, Control_c, 2, 11, 90
4, 384200, Control_c, 2, 11, 91
4, 384390, Control_c, 2, 11, 92
4, 384580, Control_c, 2, 11, 93
4, 384770, Control_c, 2, 11, 94
4, 384960, Control_c, 2, 11, 95
4, 385160, Control_c, 2, 11, 96
4, 385350, Control_c, 2, 11, 97
4, 385540, Control_c, 2, 11, 98
4, 385730, Control_c, 2, 11, 99
4, 385920, Control_c, 2, 11, 100
4, 386120, Control_c, 2, 11, 101
4, 386310, Control_c, 2, 11, 102
4, 386500, Control_c, 2, 11, 103
4, 386690, Control_c, 2, 11, 104
4, 386880, Control_c, 2, 11, 105
4, 387080, Control_c, 2, 11, 106
4, 387270, Control_c, 2, 11, 107
4, 387460, Control_c, 2, 11, 108
4, 387650, Control_c, 2, 11, 109
4, 387750, Note_on_c, 2, 71, 0
4, 387840, Note_on_c, 2, 72, 80
4, 387840, Control_c, 2, 11, 110
4, 387900, Control_c, 2, 11, 109
4, 387960, Control_c, 2, 11, 108
4, 388020, Control_c, 2, 11, 107
4, 388080, Control_c, 2, 11, 106
4, 388140, Control_c, 2, 11, 105
4, 388200, Control_c, 2, 11, 104
4, 388260, Control_c, 2, 11, 103
4, 388320, Control_c, 2, 11, 102
4, 388380, Control_c, 2, 11, 101
4, 388440, Control_c, 2, 11, 100
4, 388500, Control_c, 2, 11, 99
4, 388560, Control_c, 2, 11, 98
4, 388620, Control_c, 2, 11, 97
4, 388680, Control_c, 2, 11, 96
4, 388740, Control_c, 2, 11, 95
4, 388800, Control_c, 2, 11, 94
4, 388860, Control_c, 2, 11, 93
4, 388920, Control_c, 2, 11, 92
4, 388980, Control_c, 2, 11, 91
4, 389040, Control_c, 2, 11, 90
4, 389100, Control_c, 2, 11, 89
4, 389160, Control_c, 2, 11, 88
4, 389220, Control_c, 2, 11, 87
4, 389280, Note_on_c, 2, 70, 80
4, 389280, Control_c, 2, 11, 86
4, 389310, Note_on_c, 2, 72, 0
4, 389340, Control_c, 2, 11, 85
4, 389400, Control_c, 2, 11, 84
4, 389460, Control_c, 2, 11, 83
4, 389520, Control_c, 2, 11, 82
4, 389580, Control_c, 2, 11, 81
4, 389640, Control_c, 2, 11, 80
4, 389730, Note_on_c, 2, 70, 0
4, 389760, Note_on_c, 2, 70, 80
4, 390240, Note_on_c, 2, 68, 80
4, 390270, Note_on_c, 2, 70, 0
4, 391200, Note_on_c, 2, 67, 80
4, 391230, Note_on_c, 2, 68, 0
4, 391650, Note_on_c, 2, 67, 0
4, 395040, Note_on_c, 2, 72, 80
4, 395520, Note_on_c, 2, 71, 80
4, 395550, Note_on_c, 2, 72, 0
4, 395970, Note_on_c, 2, 71, 0
4, 399120, Note_on_c, 2, 71, 80
4, 399240, Note_on_c, 2, 71, 0
4, 399360, Note_on_c, 2, 72, 80
4, 399360, Control_c, 2, 11, 80
4, 399610, Control_c, 2, 11, 81
4, 399840, Note_on_c, 2, 72, 0
4, 399860, Control_c, 2, 11, 82
4, 400110, Control_c, 2, 11, 83
4, 400360, Control_c, 2, 11, 84
4, 400600, Control_c, 2, 11, 85
4, 400850, Control_c, 2, 11, 86
4, 401100, Control_c, 2, 11, 87
4, 401350, Control_c, 2, 11, 88
4, 401590, Control_c, 2, 11, 89
4, 401840, Control_c, 2, 11, 90
4, 402090, Control_c, 2, 11, 91
4, 402340, Control_c, 2, 11, 92
4, 402590, Control_c, 2, 11, 93
4, 402830, Control_c, 2, 11, 94
4, 402960, Note_on_c, 2, 72, 80
4, 403080, Note_on_c, 2, 72, 0
4, 403080, Control_c, 2, 11, 95
4, 403200, Note_on_c, 2, 74, 80
4, 403330, Control_c, 2, 11, 96
4, 403580, Control_c, 2, 11, 97
4, 403680, Note_on_c, 2, 74, 0
4, 403820, Control_c, 2, 11, 98
4, 404070, Control_c, 2, 11, 99
4, 404320, Control_c, 2, 11, 100
4, 404570, Control_c, 2, 11, 101
4, 404820, Control_c, 2, 11, 102
4, 404880, Note_on_c, 2, 74, 80
4, 405000, Note_on_c, 2, 74, 0
4, 405060, Control_c, 2, 11, 103
4, 405120, Note_on_c, 2, 75, 80
4, 405310, Control_c, 2, 11, 104
4, 405560, Control_c, 2, 11, 105
4, 405600, Note_on_c, 2, 75, 0
4, 405810, Control_c, 2, 11, 106
4, 406050, Control_c, 2, 11, 107
4, 406300, Control_c, 2, 11, 108
4, 406550, Control_c, 2, 11, 109
4, 406797, Control_c, 2, 11, 110
4, 406800, Note_on_c, 2, 75, 80
4, 406920, Note_on_c, 2, 75, 0
4, 407037, Control_c, 2, 11, 80
4, 407040, Note_on_c, 2, 62, 110
4, 407040, Note_on_c, 2, 71, 110
4, 408480, Note_on_c, 2, 63, 110
4, 408480, Note_on_c, 2, 72, 110
4, 408510, Note_on_c, 2, 62, 0
4, 408510, Note_on_c, 2, 71, 0
4, 408930, Note_on_c, 2, 63, 0
4, 408930, Note_on_c, 2, 72, 0
4, 408960, Note_on_c, 2, 65, 110
4, 408960, Note_on_c, 2, 71, 110
4, 409440, Note_on_c, 2, 63, 110
4, 409440, Note_on_c, 2, 72, 110
4, 409470, Note_on_c, 2, 65, 0
4, 409470, Note_on_c, 2, 71, 0
4, 409920, Note_on_c, 2, 65, 110
4, 409920, Note_on_c, 2, 71, 110
4, 409950, Note_on_c, 2, 63, 0
4, 409950, Note_on_c, 2, 72, 0
4, 410400, Note_on_c, 2, 63, 110
4, 410400, Note_on_c, 2, 72, 110
4, 410430, Note_on_c, 2, 65, 0
4, 410430, Note_on_c, 2, 71, 0
4, 410730, Note_on_c, 2, 63, 0
4, 410730, Note_on_c, 2, 72, 0
4, 410880, Note_on_c, 2, 62, 110
4, 410880, Note_on_c, 2, 71, 110
4, 412320, Note_on_c, 2, 63, 110
4, 412320, Note_on_c, 2, 72, 110
4, 412350, Note_on_c, 2, 62, 0
4, 412350, Note_on_c, 2, 71, 0
4, 412770, Note_on_c, 2, 63, 0
4, 412770, Note_on_c, 2, 72, 0
4, 412800, Note_on_c, 2, 65, 110
4, 412800, Note_on_c, 2, 71, 110
4, 413280, Note_on_c, 2, 63, 110
4, 413280, Note_on_c, 2, 72, 110
4, 413310, Note_on_c, 2, 65, 0
4, 413310, Note_on_c, 2, 71, 0
4, 413760, Note_on_c, 2, 65, 110
4, 413760, Note_on_c, 2, 71, 110
4, 413790, Note_on_c, 2, 63, 0
4, 413790, Note_on_c, 2, 72, 0
4, 414240, Note_on_c, 2, 63, 110
4, 414240, Note_on_c, 2, 72, 110
4, 414270, Note_on_c, 2, 65, 0
4, 414270, Note_on_c, 2, 71, 0
4, 414570, Note_on_c, 2, 63, 0
4, 414570, Note_on_c, 2, 72, 0
4, 414720, Note_on_c, 2, 61, 110
4, 414720, Note_on_c, 2, 73, 110
4, 416160, Note_on_c, 2, 60, 110
4, 416160, Note_on_c, 2, 72, 110
4, 416190, Note_on_c, 2, 61, 0
4, 416190, Note_on_c, 2, 73, 0
4, 416610, Note_on_c, 2, 60, 0
4, 416610, Note_on_c, 2, 72, 0
4, 416640, Note_on_c, 2, 58, 110
4, 416640, Note_on_c, 2, 70, 110
4, 417120, Note_on_c, 2, 56, 110
4, 417120, Note_on_c, 2, 68, 110
4, 417150, Note_on_c, 2, 58, 0
4, 417150, Note_on_c, 2, 70, 0
4, 417600, Note_on_c, 2, 58, 110
4, 417600, Note_on_c, 2, 70, 110
4, 417630, Note_on_c, 2, 56, 0
4, 417630, Note_on_c, 2, 68, 0
4, 418080, Note_on_c, 2, 56, 110
4, 418080, Note_on_c, 2, 68, 110
4, 418110, Note_on_c, 2, 58, 0
4, 418110, Note_on_c, 2, 70, 0
4, 418410, Note_on_c, 2, 56, 0
4, 418410, Note_on_c, 2, 68, 0
4, 418560, Note_on_c, 2, 61, 110
4, 418560, Note_on_c, 2, 73, 110
4, 420000, Note_on_c, 2, 60, 110
4, 420000, Note_on_c, 2, 72, 110
4, 420030, Note_on_c, 2, 61, 0
4, 420030, Note_on_c, 2, 73, 0
4, 420450, Note_on_c, 2, 60, 0
4, 420450, Note_on_c, 2, 72, 0
4, 420480, Note_on_c, 2, 58, 110
4, 420480, Note_on_c, 2, 70, 110
4, 420960, Note_on_c, 2, 56, 110
4, 420960, Note_on_c, 2, 68, 110
4, 420990, Note_on_c, 2, 58, 0
4, 420990, Note_on_c, 2, 70, 0
4, 421440, Note_on_c, 2, 58, 110
4, 421440, Note_on_c, 2, 70, 110
4, 421470, Note_on_c, 2, 56, 0
4, 421470, Note_on_c, 2, 68, 0
4, 421920, Note_on_c, 2, 56, 110
4, 421920, Note_on_c, 2, 68, 110
4, 421950, Note_on_c, 2, 58, 0
4, 421950, Note_on_c, 2, 70, 0
4, 422370, Note_on_c, 2, 56, 0
4, 422370, Note_on_c, 2, 68, 0
4, 423360, Note_on_c, 2, 73, 120
4, 423840, Note_on_c, 2, 72, 120
4, 423870, Note_on_c, 2, 73, 0
4, 424290, Note_on_c, 2, 72, 0
4, 425280, Note_on_c, 2, 73, 120
4, 425760, Note_on_c, 2, 72, 120
4, 425790, Note_on_c, 2, 73, 0
4, 426210, Note_on_c, 2, 72, 0
4, 427200, Note_on_c, 2, 73, 120
4, 427680, Note_on_c, 2, 72, 120
4, 427710, Note_on_c, 2, 73, 0
4, 428130, Note_on_c, 2, 72, 0
4, 429120, Note_on_c, 2, 73, 120
4, 429600, Note_on_c, 2, 72, 120
4, 429630, Note_on_c, 2, 73, 0
4, 430050, Note_on_c, 2, 72, 0
4, 430080, Note_on_c, 2, 68, 110
4, 430080, Note_on_c, 2, 73, 110
4, 431010, Note_on_c, 2, 68, 0
4, 431010, Note_on_c, 2, 73, 0
4, 431040, Note_on_c, 2, 67, 110
4, 431040, Note_on_c, 2, 71, 110
4, 431970, Note_on_c, 2, 71, 0
4, 432000, Note_on_c, 2, 72, 110
4, 432930, Note_on_c, 2, 67, 0
4, 432930, Note_on_c, 2, 72, 0
4, 432960, Note_on_c, 2, 65, 110
4, 432960, Note_on_c, 2, 69, 110
4, 433890, Note_on_c, 2, 69, 0
4, 433920, Note_on_c, 2, 71, 110
4, 434850, Note_on_c, 2, 65, 0
4, 434850, Note_on_c, 2, 71, 0
4, 434880, Note_on_c, 2, 68, 110
4, 434880, Note_on_c, 2, 72, 110
4, 435810, Note_on_c, 2, 72, 0
4, 435840, Note_on_c, 2, 74, 110
4, 436770, Note_on_c, 2, 68, 0
4, 436770, Note_on_c, 2, 74, 0
4, 436800, Note_on_c, 2, 65, 110
4, 436800, Note_on_c, 2, 72, 110
4, 437730, Note_on_c, 2, 65, 0
4, 437730, Note_on_c, 2, 72, 0
4, 437760, Note_on_c, 2, 65, 100
4, 437760, Note_on_c, 2, 71, 100
4, 438210, Note_on_c, 2, 65, 0
4, 438210, Note_on_c, 2, 71, 0
4, 438720, Note_on_c, 2, 68, 100
4, 439170, Note_on_c, 2, 68, 0
4, 439680, Note_on_c, 2, 65, 100
4, 440130, Note_on_c, 2, 65, 0
4, 440640, Note_on_c, 2, 67, 100
4, 441090, Note_on_c, 2, 67, 0
4, 441600, Note_on_c, 2, 60, 80
4, 442050, Note_on_c, 2, 60, 0
4, 445200, Note_on_c, 2, 62, 100
4, 445200, Note_on_c, 2, 67, 100
4, 445320, Note_on_c, 2, 62, 0
4, 445320, Note_on_c, 2, 67, 0
4, 445440, Note_on_c, 2, 63, 100
4, 445440, Note_on_c, 2, 67, 100
4, 445770, Note_on_c, 2, 63, 0
4, 445770, Note_on_c, 2, 67, 0
4, 449040, Note_on_c, 2, 62, 100
4, 449040, Note_on_c, 2, 67, 100
4, 449160, Note_on_c, 2, 62, 0
4, 449160, Note_on_c, 2, 67, 0
4, 449280, Note_on_c, 2, 63, 100
4, 449280, Note_on_c, 2, 67, 100
4, 449610, Note_on_c, 2, 63, 0
4, 449610, Note_on_c, 2, 67, 0
4, 456960, Note_on_c, 2, 63, 100
4, 456960, Note_on_c, 2, 75, 100
4, 457410, Note_on_c, 2, 63, 0
4, 457410, Note_on_c, 2, 75, 0
4, 457680, Note_on_c, 2, 68, 100
4, 457680, Note_on_c, 2, 80, 100
4, 457800, Note_on_c, 2, 68, 0
4, 457800, Note_on_c, 2, 80, 0
4, 457920, Note_on_c, 2, 67, 100
4, 457920, Note_on_c, 2, 79, 100
4, 458370, Note_on_c, 2, 67, 0
4, 458370, Note_on_c, 2, 79, 0
4, 458640, Note_on_c, 2, 62, 100
4, 458640, Note_on_c, 2, 74, 100
4, 458760, Note_on_c, 2, 62, 0
4, 458760, Note_on_c, 2, 74, 0
4, 458880, Note_on_c, 2, 60, 100
4, 458880, Note_on_c, 2, 72, 100
4, 459330, Note_on_c, 2, 60, 0
4, 459330, Note_on_c, 2, 72, 0
4, 459600, Note_on_c, 2, 65, 100
4, 459600, Note_on_c, 2, 77, 100
4, 459720, Note_on_c, 2, 65, 0
4, 459720, Note_on_c, 2, 77, 0
4, 459840, Note_on_c, 2, 63, 100
4, 459840, Note_on_c, 2, 75, 100
4, 460170, Note_on_c, 2, 63, 0
4, 460170, Note_on_c, 2, 75, 0
4, 460560, Note_on_c, 2, 58, 100
4, 460560, Note_on_c, 2, 70, 100
4, 460680, Note_on_c, 2, 58, 0
4, 460680, Note_on_c, 2, 70, 0
4, 460800, Note_on_c, 2, 56, 100
4, 460800, Note_on_c, 2, 68, 100
4, 461130, Note_on_c, 2, 56, 0
4, 461130, Note_on_c, 2, 68, 0
4, 483840, Note_on_c, 2, 75, 60
4, 485280, Note_on_c, 2, 77, 72
4, 485310, Note_on_c, 2, 75, 0
4, 485760, Note_on_c, 2, 75, 76
4, 485790, Note_on_c, 2, 77, 0
4, 486240, Note_on_c, 2, 74, 80
4, 486270, Note_on_c, 2, 75, 0
4, 486720, Note_on_c, 2, 71, 85
4, 486750, Note_on_c, 2, 74, 0
4, 487200, Note_on_c, 2, 67, 89
4, 487230, Note_on_c, 2, 71, 0
4, 487650, Note_on_c, 2, 67, 0
4, 487680, Note_on_c, 2, 67, 93
4, 489570, Note_on_c, 2, 67, 0
4, 489600, Note_on_c, 2, 68, 110
4, 491517, Note_on_c, 2, 68, 0
4, 491520, Note_on_c, 2, 68, 60
4, 493407, Note_on_c, 2, 68, 0
4, 493440, Note_on_c, 2, 70, 110
4, 495357, Note_on_c, 2, 70, 0
4, 495360, Note_on_c, 2, 70, 60
4, 497247, Note_on_c, 2, 70, 0
4, 497280, Note_on_c, 2, 67, 110
4, 497280, Note_on_c, 2, 72, 110
4, 499197, Note_on_c, 2, 72, 0
4, 499200, Note_on_c, 2, 60, 80
4, 499200, Note_on_c, 2, 72, 80
4, 499230, Note_on_c, 2, 67, 0
4, 501117, Note_on_c, 2, 60, 0
4, 501117, Note_on_c, 2, 72, 0
4, 501120, Note_on_c, 2, 60, 85
4, 501120, Note_on_c, 2, 72, 85
4, 503037, Note_on_c, 2, 60, 0
4, 503037, Note_on_c, 2, 72, 0
4, 503040, Note_on_c, 2, 60, 90
4, 503040, Note_on_c, 2, 72, 90
4, 504957, Note_on_c, 2, 60, 0
4, 504957, Note_on_c, 2, 72, 0
4, 504960, Note_on_c, 2, 60, 95
4, 504960, Note_on_c, 2, 72, 95
4, 506877, Note_on_c, 2, 60, 0
4, 506877, Note_on_c, 2, 72, 0
4, 506880, Note_on_c, 2, 60, 110
4, 506880, Note_on_c, 2, 72, 110
4, 507510, Note_on_c, 2, 60, 0
4, 507510, Note_on_c, 2, 72, 0
4, 507600, Note_on_c, 2, 62, 110
4, 507600, Note_on_c, 2, 74, 110
4, 507720, Note_on_c, 2, 62, 0
4, 507720, Note_on_c, 2, 74, 0
4, 507840, Note_on_c, 2, 63, 110
4, 507840, Note_on_c, 2, 75, 110
4, 508560, Note_on_c, 2, 62, 110
4, 508560, Note_on_c, 2, 74, 110
4, 508590, Note_on_c, 2, 63, 0
4, 508590, Note_on_c, 2, 75, 0
4, 508680, Note_on_c, 2, 62, 0
4, 508680, Note_on_c, 2, 74, 0
4, 509520, Note_on_c, 2, 62, 110
4, 509520, Note_on_c, 2, 74, 110
4, 509640, Note_on_c, 2, 62, 0
4, 509640, Note_on_c, 2, 74, 0
4, 509760, Note_on_c, 2, 63, 110
4, 509760, Note_on_c, 2, 75, 110
4, 510480, Note_on_c, 2, 62, 110
4, 510480, Note_on_c, 2, 74, 110
4, 510510, Note_on_c, 2, 63, 0
4, 510510, Note_on_c, 2, 75, 0
4, 510600, Note_on_c, 2, 62, 0
4, 510600, Note_on_c, 2, 74, 0
4, 511440, Note_on_c, 2, 64, 110
4, 511440, Note_on_c, 2, 76, 110
4, 511560, Note_on_c, 2, 64, 0
4, 511560, Note_on_c, 2, 76, 0
4, 511680, Note_on_c, 2, 65, 110
4, 511680, Note_on_c, 2, 77, 110
4, 512400, Note_on_c, 2, 64, 110
4, 512400, Note_on_c, 2, 76, 110
4, 512430, Note_on_c, 2, 65, 0
4, 512430, Note_on_c, 2, 77, 0
4, 512520, Note_on_c, 2, 64, 0
4, 512520, Note_on_c, 2, 76, 0
4, 513360, Note_on_c, 2, 64, 110
4, 513360, Note_on_c, 2, 76, 110
4, 513480, Note_on_c, 2, 64, 0
4, 513480, Note_on_c, 2, 76, 0
4, 513600, Note_on_c, 2, 65, 110
4, 513600, Note_on_c, 2, 77, 110
4, 514320, Note_on_c, 2, 64, 110
4, 514320, Note_on_c, 2, 76, 110
4, 514350, Note_on_c, 2, 65, 0
4, 514350, Note_on_c, 2, 77, 0
4, 514440, Note_on_c, 2, 64, 0
4, 514440, Note_on_c, 2, 76, 0
4, 515280, Note_on_c, 2, 64, 110
4, 515280, Note_on_c, 2, 76, 110
4, 515400, Note_on_c, 2, 64, 0
4, 515400, Note_on_c, 2, 76, 0
4, 515520, Note_on_c, 2, 67, 110
4, 515520, Note_on_c, 2, 79, 110
4, 516240, Note_on_c, 2, 65, 110
4, 516240, Note_on_c, 2, 77, 110
4, 516270, Note_on_c, 2, 67, 0
4, 516270, Note_on_c, 2, 79, 0
4, 516360, Note_on_c, 2, 65, 0
4, 516360, Note_on_c, 2, 77, 0
4, 517200, Note_on_c, 2, 65, 110
4, 517200, Note_on_c, 2, 77, 110
4, 517320, Note_on_c, 2, 65, 0
4, 517320, Note_on_c, 2, 77, 0
4, 517440, Note_on_c, 2, 68, 110
4, 517440, Note_on_c, 2, 80, 110
4, 518160, Note_on_c, 2, 67, 110
4, 518160, Note_on_c, 2, 79, 110
4, 518190, Note_on_c, 2, 68, 0
4, 518190, Note_on_c, 2, 80, 0
4, 518280, Note_on_c, 2, 67, 0
4, 518280, Note_on_c, 2, 79, 0
4, 518400, Note_on_c, 2, 75, 110
4, 518730, Note_on_c, 2, 75, 0
4, 519120, Note_on_c, 2, 71, 110
4, 519270, Note_on_c, 2, 71, 0
4, 519360, Note_on_c, 2, 72, 110
4, 519690, Note_on_c, 2, 72, 0
4, 520080, Note_on_c, 2, 68, 110
4, 520230, Note_on_c, 2, 68, 0
4, 520320, Note_on_c, 2, 67, 110
4, 520650, Note_on_c, 2, 67, 0
4, 521040, Note_on_c, 2, 68, 110
4, 521190, Note_on_c, 2, 68, 0
4, 521280, Note_on_c, 2, 67, 110
4, 521610, Note_on_c, 2, 67, 0
4, 522000, Note_on_c, 2, 77, 110
4, 522150, Note_on_c, 2, 77, 0
4, 522240, Note_on_c, 2, 75, 110
4, 522570, Note_on_c, 2, 75, 0
4, 522960, Note_on_c, 2, 71, 110
4, 523110, Note_on_c, 2, 71, 0
4, 523200, Note_on_c, 2, 72, 110
4, 523530, Note_on_c, 2, 72, 0
4, 523920, Note_on_c, 2, 68, 110
4, 524070, Note_on_c, 2, 68, 0
4, 524160, Note_on_c, 2, 67, 110
4, 524490, Note_on_c, 2, 67, 0
4, 524880, Note_on_c, 2, 68, 110
4, 525030, Note_on_c, 2, 68, 0
4, 525120, Note_on_c, 2, 67, 110
4, 525450, Note_on_c, 2, 67, 0
4, 525840, Note_on_c, 2, 77, 110
4, 525990, Note_on_c, 2, 77, 0
4, 526080, Note_on_c, 2, 75, 110
4, 526410, Note_on_c, 2, 75, 0
4, 526800, Note_on_c, 2, 71, 110
4, 526800, Note_on_c, 2, 74, 110
4, 526950, Note_on_c, 2, 71, 0
4, 526950, Note_on_c, 2, 74, 0
4, 527040, Note_on_c, 2, 72, 110
4, 527040, Note_on_c, 2, 75, 110
4, 527370, Note_on_c, 2, 72, 0
4, 527370, Note_on_c, 2, 75, 0
4, 527760, Note_on_c, 2, 62, 110
4, 527760, Note_on_c, 2, 71, 110
4, 527910, Note_on_c, 2, 62, 0
4, 527910, Note_on_c, 2, 71, 0
4, 528000, Note_on_c, 2, 63, 110
4, 528000, Note_on_c, 2, 72, 110
4, 528330, Note_on_c, 2, 63, 0
4, 528330, Note_on_c, 2, 72, 0
4, 528720, Note_on_c, 2, 62, 110
4, 528720, Note_on_c, 2, 71, 110
4, 528870, Note_on_c, 2, 62, 0
4, 528870, Note_on_c, 2, 71, 0
4, 528960, Note_on_c, 2, 63, 110
4, 528960, Note_on_c, 2, 72, 110
4, 529290, Note_on_c, 2, 63, 0
4, 529290, Note_on_c, 2, 72, 0
4, 529680, Note_on_c, 2, 62, 110
4, 529680, Note_on_c, 2, 71, 110
4, 529830, Note_on_c, 2, 62, 0
4, 529830, Note_on_c, 2, 71, 0
4, 529920, Note_on_c, 2, 60, 50
4, 529920, Note_on_c, 2, 72, 50
4, 533490, Note_on_c, 2, 60, 0
4, 533490, Note_on_c, 2, 72, 0
4, 533760, Note_on_c, 2, 68, 80
4, 533760, Note_on_c, 2, 72, 80
4, 533970, Note_on_c, 2, 68, 0
4, 533970, Note_on_c, 2, 72, 0
4, 537600, Note_on_c, 2, 60, 50
4, 537600, Note_on_c, 2, 72, 50
4, 541170, Note_on_c, 2, 60, 0
4, 541170, Note_on_c, 2, 72, 0
4, 541440, Note_on_c, 2, 71, 80
4, 541440, Note_on_c, 2, 74, 80
4, 541650, Note_on_c, 2, 71, 0
4, 541650, Note_on_c, 2, 74, 0
4, 545280, Note_on_c, 2, 60, 50
4, 545280, Note_on_c, 2, 72, 50
4, 548850, Note_on_c, 2, 60, 0
4, 548850, Note_on_c, 2, 72, 0
4, 549120, Note_on_c, 2, 72, 80
4, 549120, Note_on_c, 2, 75, 80
4, 549330, Note_on_c, 2, 72, 0
4, 549330, Note_on_c, 2, 75, 0
4, 549600, Note_on_c, 2, 71, 80
4, 549600, Note_on_c, 2, 74, 80
4, 549840, Note_on_c, 2, 71, 0
4, 549840, Note_on_c, 2, 74, 0
4, 552960, Note_on_c, 2, 67, 60
4, 552960, Note_on_c, 2, 72, 60
4, 553170, Note_on_c, 2, 67, 0
4, 553170, Note_on_c, 2, 72, 0
4, 553440, Note_on_c, 2, 70, 60
4, 553440, Note_on_c, 2, 72, 60
4, 553650, Note_on_c, 2, 70, 0
4, 553650, Note_on_c, 2, 72, 0
4, 554880, Note_on_c, 2, 68, 60
4, 554880, Note_on_c, 2, 72, 60
4, 555090, Note_on_c, 2, 68, 0
4, 555090, Note_on_c, 2, 72, 0
4, 555360, Note_on_c, 2, 70, 60
4, 555360, Note_on_c, 2, 72, 60
4, 555570, Note_on_c, 2, 70, 0
4, 555570, Note_on_c, 2, 72, 0
4, 556800, Note_on_c, 2, 68, 60
4, 556800, Note_on_c, 2, 72, 60
4, 557160, Note_on_c, 2, 68, 0
4, 557160, Note_on_c, 2, 72, 0
4, 557760, Note_on_c, 2, 67, 60
4, 557760, Note_on_c, 2, 74, 60
4, 558120, Note_on_c, 2, 67, 0
4, 558120, Note_on_c, 2, 74, 0
4, 560640, Note_on_c, 2, 67, 60
4, 561060, Note_on_c, 2, 67, 0
4, 564480, Note_on_c, 2, 65, 30
4, 564480, Note_on_c, 2, 67, 30
4, 564870, Note_on_c, 2, 65, 0
4, 564870, Note_on_c, 2, 67, 0
4, 568320, Note_on_c, 2, 60, 30
4, 568680, Note_on_c, 2, 60, 0
4, 568680, End_track
5, 0, Start_track
5, 0, Channel_prefix, 3
5, 0, Title_t, "Bassoon "
5, 0, Instrument_name_t, "Fagotti "
5, 5760, Note_on_c, 3, 53, 120
5, 5760, Note_on_c, 3, 56, 120
5, 5910, Note_on_c, 3, 53, 0
5, 5910, Note_on_c, 3, 56, 0
5, 13440, Note_on_c, 3, 53, 120
5, 13440, Note_on_c, 3, 56, 120
5, 13590, Note_on_c, 3, 53, 0
5, 13590, Note_on_c, 3, 56, 0
5, 21120, Note_on_c, 3, 54, 120
5, 21120, Note_on_c, 3, 57, 120
5, 21270, Note_on_c, 3, 54, 0
5, 21270, Note_on_c, 3, 57, 0
5, 24960, Note_on_c, 3, 55, 110
5, 24960, Note_on_c, 3, 60, 110
5, 25170, Note_on_c, 3, 55, 0
5, 25170, Note_on_c, 3, 60, 0
5, 26880, Note_on_c, 3, 55, 110
5, 26880, Note_on_c, 3, 59, 110
5, 27120, Note_on_c, 3, 55, 0
5, 27120, Note_on_c, 3, 59, 0
5, 39840, Note_on_c, 3, 43, 100
5, 39840, Note_on_c, 3, 55, 100
5, 40170, Note_on_c, 3, 43, 0
5, 40170, Note_on_c, 3, 55, 0
5, 49920, Note_on_c, 3, 66, 80
5, 49920, Control_c, 3, 11, 80
5, 50030, Control_c, 3, 11, 81
5, 50140, Control_c, 3, 11, 82
5, 50250, Control_c, 3, 11, 83
5, 50360, Control_c, 3, 11, 84
5, 50470, Control_c, 3, 11, 85
5, 50580, Control_c, 3, 11, 86
5, 50680, Control_c, 3, 11, 87
5, 50790, Control_c, 3, 11, 88
5, 50850, Note_on_c, 3, 66, 0
5, 50880, Note_on_c, 3, 65, 85
5, 50900, Control_c, 3, 11, 89
5, 51010, Control_c, 3, 11, 90
5, 51120, Control_c, 3, 11, 91
5, 51230, Control_c, 3, 11, 92
5, 51330, Control_c, 3, 11, 93
5, 51440, Control_c, 3, 11, 94
5, 51550, Control_c, 3, 11, 95
5, 51660, Control_c, 3, 11, 96
5, 51770, Control_c, 3, 11, 97
5, 51880, Control_c, 3, 11, 98
5, 51980, Control_c, 3, 11, 99
5, 52090, Control_c, 3, 11, 100
5, 52200, Control_c, 3, 11, 101
5, 52230, Note_on_c, 3, 65, 0
5, 52310, Control_c, 3, 11, 102
5, 52320, Note_on_c, 3, 55, 100
5, 52320, Note_on_c, 3, 64, 100
5, 52420, Control_c, 3, 11, 103
5, 52530, Control_c, 3, 11, 104
5, 52630, Control_c, 3, 11, 105
5, 52650, Note_on_c, 3, 55, 0
5, 52650, Note_on_c, 3, 64, 0
5, 52740, Control_c, 3, 11, 106
5, 52850, Control_c, 3, 11, 107
5, 52960, Control_c, 3, 11, 108
5, 53070, Control_c, 3, 11, 109
5, 53180, Control_c, 3, 11, 110
5, 53757, Control_c, 3, 11, 80
5, 55680, Note_on_c, 3, 65, 80
5, 56640, Note_on_c, 3, 63, 80
5, 56670, Note_on_c, 3, 65, 0
5, 57570, Note_on_c, 3, 63, 0
5, 57600, Note_on_c, 3, 62, 80
5, 59490, Note_on_c, 3, 62, 0
5, 59520, Note_on_c, 3, 62, 85
5, 61410, Note_on_c, 3, 62, 0
5, 61440, Note_on_c, 3, 62, 90
5, 62370, Note_on_c, 3, 62, 0
5, 62400, Note_on_c, 3, 62, 92
5, 63330, Note_on_c, 3, 62, 0
5, 63360, Note_on_c, 3, 62, 95
5, 64290, Note_on_c, 3, 62, 0
5, 64320, Note_on_c, 3, 62, 97
5, 65250, Note_on_c, 3, 62, 0
5, 65280, Note_on_c, 3, 56, 100
5, 65280, Note_on_c, 3, 60, 100
5, 67680, Note_on_c, 3, 55, 100
5, 67680, Note_on_c, 3, 58, 100
5, 67710, Note_on_c, 3, 56, 0
5, 67710, Note_on_c, 3, 60, 0
5, 68160, Note_on_c, 3, 53, 100
5, 68160, Note_on_c, 3, 56, 100
5, 68190, Note_on_c, 3, 55, 0
5, 68190, Note_on_c, 3, 58, 0
5, 68640, Note_on_c, 3, 51, 100
5, 68640, Note_on_c, 3, 55, 100
5, 68670, Note_on_c, 3, 53, 0
5, 68670, Note_on_c, 3, 56, 0
5, 69090, Note_on_c, 3, 51, 0
5, 69090, Note_on_c, 3, 55, 0
5, 69120, Note_on_c, 3, 50, 100
5, 69120, Note_on_c, 3, 53, 100
5, 69810, Note_on_c, 3, 50, 0
5, 69810, Note_on_c, 3, 53, 0
5, 70080, Note_on_c, 3, 48, 100
5, 70080, Note_on_c, 3, 51, 100
5, 70770, Note_on_c, 3, 48, 0
5, 70770, Note_on_c, 3, 51, 0
5, 71040, Note_on_c, 3, 47, 100
5, 71040, Note_on_c, 3, 59, 100
5, 71730, Note_on_c, 3, 47, 0
5, 71730, Note_on_c, 3, 59, 0
5, 72000, Note_on_c, 3, 48, 100
5, 72000, Note_on_c, 3, 60, 100
5, 72690, Note_on_c, 3, 48, 0
5, 72690, Note_on_c, 3, 60, 0
5, 72960, Note_on_c, 3, 46, 100
5, 72960, Note_on_c, 3, 58, 100
5, 73650, Note_on_c, 3, 46, 0
5, 73650, Note_on_c, 3, 58, 0
5, 73920, Note_on_c, 3, 44, 100
5, 73920, Note_on_c, 3, 56, 100
5, 74610, Note_on_c, 3, 44, 0
5, 74610, Note_on_c, 3, 56, 0
5, 74880, Note_on_c, 3, 43, 100
5, 74880, Note_on_c, 3, 55, 100
5, 75570, Note_on_c, 3, 43, 0
5, 75570, Note_on_c, 3, 55, 0
5, 75840, Note_on_c, 3, 41, 100
5, 75840, Note_on_c, 3, 53, 100
5, 76530, Note_on_c, 3, 41, 0
5, 76530, Note_on_c, 3, 53, 0
5, 76800, Note_on_c, 3, 42, 110
5, 76800, Note_on_c, 3, 54, 110
5, 77760, Note_on_c, 3, 42, 0
5, 77760, Note_on_c, 3, 54, 0
5, 78720, Note_on_c, 3, 42, 110
5, 78720, Note_on_c, 3, 54, 110
5, 79680, Note_on_c, 3, 42, 0
5, 79680, Note_on_c, 3, 54, 0
5, 80640, Note_on_c, 3, 41, 110
5, 80640, Note_on_c, 3, 53, 110
5, 81600, Note_on_c, 3, 41, 0
5, 81600, Note_on_c, 3, 53, 0
5, 82560, Note_on_c, 3, 41, 110
5, 82560, Note_on_c, 3, 53, 110
5, 83520, Note_on_c, 3, 41, 0
5, 83520, Note_on_c, 3, 53, 0
5, 84480, Note_on_c, 3, 40, 110
5, 84480, Note_on_c, 3, 52, 110
5, 86370, Note_on_c, 3, 40, 0
5, 86370, Note_on_c, 3, 52, 0
5, 86400, Note_on_c, 3, 39, 110
5, 86400, Note_on_c, 3, 51, 110
5, 88290, Note_on_c, 3, 39, 0
5, 88290, Note_on_c, 3, 51, 0
5, 88320, Note_on_c, 3, 38, 110
5, 88320, Note_on_c, 3, 50, 110
5, 89730, Note_on_c, 3, 38, 0
5, 89730, Note_on_c, 3, 50, 0
5, 89760, Note_on_c, 3, 39, 127
5, 89760, Note_on_c, 3, 51, 127
5, 90240, Note_on_c, 3, 38, 110
5, 90240, Note_on_c, 3, 50, 110
5, 90270, Note_on_c, 3, 39, 0
5, 90270, Note_on_c, 3, 51, 0
5, 91650, Note_on_c, 3, 38, 0
5, 91650, Note_on_c, 3, 50, 0
5, 91680, Note_on_c, 3, 39, 127
5, 91680, Note_on_c, 3, 51, 127
5, 92160, Note_on_c, 3, 38, 110
5, 92160, Note_on_c, 3, 50, 110
5, 92190, Note_on_c, 3, 39, 0
5, 92190, Note_on_c, 3, 51, 0
5, 93570, Note_on_c, 3, 38, 0
5, 93570, Note_on_c, 3, 50, 0
5, 93600, Note_on_c, 3, 39, 127
5, 93600, Note_on_c, 3, 51, 127
5, 94080, Note_on_c, 3, 38, 110
5, 94080, Note_on_c, 3, 50, 110
5, 94110, Note_on_c, 3, 39, 0
5, 94110, Note_on_c, 3, 51, 0
5, 95490, Note_on_c, 3, 38, 0
5, 95490, Note_on_c, 3, 50, 0
5, 95520, Note_on_c, 3, 39, 127
5, 95520, Note_on_c, 3, 51, 127
5, 96000, Note_on_c, 3, 38, 110
5, 96000, Note_on_c, 3, 50, 110
5, 96030, Note_on_c, 3, 39, 0
5, 96030, Note_on_c, 3, 51, 0
5, 96480, Note_on_c, 3, 38, 0
5, 96480, Note_on_c, 3, 50, 0
5, 115200, Note_on_c, 3, 67, 80
5, 115200, Control_c, 3, 11, 80
5, 115390, Control_c, 3, 11, 81
5, 115570, Control_c, 3, 11, 82
5, 115750, Control_c, 3, 11, 83
5, 115940, Control_c, 3, 11, 84
5, 116120, Control_c, 3, 11, 85
5, 116300, Control_c, 3, 11, 86
5, 116480, Control_c, 3, 11, 87
5, 116640, Note_on_c, 3, 68, 80
5, 116670, Note_on_c, 3, 67, 0
5, 116670, Control_c, 3, 11, 88
5, 116850, Control_c, 3, 11, 89
5, 117030, Control_c, 3, 11, 90
5, 117120, Note_on_c, 3, 67, 80
5, 117150, Note_on_c, 3, 68, 0
5, 117220, Control_c, 3, 11, 91
5, 117400, Control_c, 3, 11, 92
5, 117580, Control_c, 3, 11, 93
5, 117600, Note_on_c, 3, 65, 80
5, 117630, Note_on_c, 3, 67, 0
5, 117760, Control_c, 3, 11, 94
5, 117950, Control_c, 3, 11, 95
5, 118080, Note_on_c, 3, 62, 80
5, 118110, Note_on_c, 3, 65, 0
5, 118130, Control_c, 3, 11, 96
5, 118310, Control_c, 3, 11, 97
5, 118500, Control_c, 3, 11, 98
5, 118560, Note_on_c, 3, 58, 80
5, 118590, Note_on_c, 3, 62, 0
5, 118680, Control_c, 3, 11, 99
5, 118860, Control_c, 3, 11, 100
5, 119010, Note_on_c, 3, 58, 0
5, 119040, Note_on_c, 3, 55, 80
5, 119040, Note_on_c, 3, 58, 80
5, 119970, Note_on_c, 3, 55, 0
5, 119970, Note_on_c, 3, 58, 0
5, 120000, Note_on_c, 3, 53, 80
5, 120000, Note_on_c, 3, 56, 80
5, 120930, Note_on_c, 3, 53, 0
5, 120930, Note_on_c, 3, 56, 0
5, 120960, Note_on_c, 3, 52, 80
5, 120960, Note_on_c, 3, 55, 80
5, 121890, Note_on_c, 3, 52, 0
5, 121890, Note_on_c, 3, 55, 0
5, 121920, Note_on_c, 3, 48, 70
5, 121920, Note_on_c, 3, 60, 70
5, 122877, Control_c, 3, 11, 70
5, 130560, Control_c, 3, 11, 80
5, 130750, Control_c, 3, 11, 81
5, 130930, Control_c, 3, 11, 82
5, 131110, Control_c, 3, 11, 83
5, 131300, Control_c, 3, 11, 84
5, 131480, Control_c, 3, 11, 85
5, 131660, Control_c, 3, 11, 86
5, 131840, Control_c, 3, 11, 87
5, 132030, Control_c, 3, 11, 88
5, 132210, Control_c, 3, 11, 89
5, 132390, Control_c, 3, 11, 90
5, 132580, Control_c, 3, 11, 91
5, 132760, Control_c, 3, 11, 92
5, 132940, Control_c, 3, 11, 93
5, 133120, Control_c, 3, 11, 94
5, 133310, Control_c, 3, 11, 95
5, 133490, Control_c, 3, 11, 96
5, 133670, Control_c, 3, 11, 97
5, 133860, Control_c, 3, 11, 98
5, 134040, Control_c, 3, 11, 99
5, 134220, Control_c, 3, 11, 100
5, 134370, Note_on_c, 3, 48, 0
5, 134370, Note_on_c, 3, 60, 0
5, 134400, Note_on_c, 3, 48, 80
5, 134400, Note_on_c, 3, 60, 80
5, 135330, Note_on_c, 3, 48, 0
5, 135330, Note_on_c, 3, 60, 0
5, 135360, Note_on_c, 3, 55, 80
5, 135360, Note_on_c, 3, 58, 80
5, 136290, Note_on_c, 3, 55, 0
5, 136290, Note_on_c, 3, 58, 0
5, 136320, Note_on_c, 3, 54, 80
5, 136320, Note_on_c, 3, 57, 80
5, 137250, Note_on_c, 3, 54, 0
5, 137250, Note_on_c, 3, 57, 0
5, 137280, Note_on_c, 3, 50, 80
5, 137280, Note_on_c, 3, 62, 80
5, 138210, Note_on_c, 3, 50, 0
5, 138240, Note_on_c, 3, 43, 80
5, 138240, Control_c, 3, 11, 80
5, 138440, Control_c, 3, 11, 81
5, 138630, Control_c, 3, 11, 82
5, 138720, Note_on_c, 3, 43, 0
5, 138820, Control_c, 3, 11, 83
5, 139010, Control_c, 3, 11, 84
5, 139200, Control_c, 3, 11, 85
5, 139400, Control_c, 3, 11, 86
5, 139590, Control_c, 3, 11, 87
5, 139780, Control_c, 3, 11, 88
5, 139920, Note_on_c, 3, 43, 80
5, 139970, Control_c, 3, 11, 89
5, 140160, Note_on_c, 3, 48, 80
5, 140160, Control_c, 3, 11, 90
5, 140190, Note_on_c, 3, 43, 0
5, 140360, Control_c, 3, 11, 91
5, 140550, Control_c, 3, 11, 92
5, 140640, Note_on_c, 3, 48, 0
5, 140740, Control_c, 3, 11, 93
5, 140930, Control_c, 3, 11, 94
5, 141120, Control_c, 3, 11, 95
5, 141320, Control_c, 3, 11, 96
5, 141510, Control_c, 3, 11, 97
5, 141700, Control_c, 3, 11, 98
5, 141840, Note_on_c, 3, 48, 80
5, 141890, Control_c, 3, 11, 99
5, 142080, Note_on_c, 3, 47, 80
5, 142080, Control_c, 3, 11, 100
5, 142110, Note_on_c, 3, 48, 0
5, 142180, Control_c, 3, 11, 99
5, 142270, Control_c, 3, 11, 98
5, 142360, Control_c, 3, 11, 97
5, 142450, Control_c, 3, 11, 96
5, 142540, Control_c, 3, 11, 95
5, 142630, Control_c, 3, 11, 94
5, 142720, Control_c, 3, 11, 93
5, 142820, Control_c, 3, 11, 92
5, 142910, Control_c, 3, 11, 91
5, 143000, Control_c, 3, 11, 90
5, 143090, Control_c, 3, 11, 89
5, 143180, Control_c, 3, 11, 88
5, 143270, Control_c, 3, 11, 87
5, 143360, Control_c, 3, 11, 86
5, 143460, Control_c, 3, 11, 85
5, 143520, Note_on_c, 3, 65, 80
5, 143550, Note_on_c, 3, 62, 0
5, 143550, Control_c, 3, 11, 84
5, 143640, Control_c, 3, 11, 83
5, 143730, Control_c, 3, 11, 82
5, 143820, Control_c, 3, 11, 81
5, 143910, Control_c, 3, 11, 80
5, 143970, Note_on_c, 3, 47, 0
5, 143970, Note_on_c, 3, 65, 0
5, 144000, Note_on_c, 3, 48, 90
5, 144000, Note_on_c, 3, 65, 90
5, 144480, Note_on_c, 3, 63, 90
5, 144510, Note_on_c, 3, 48, 0
5, 144510, Note_on_c, 3, 65, 0
5, 145440, Note_on_c, 3, 62, 90
5, 145470, Note_on_c, 3, 63, 0
5, 145830, Note_on_c, 3, 62, 0
5, 145920, Note_on_c, 3, 62, 90
5, 146400, Note_on_c, 3, 60, 90
5, 146430, Note_on_c, 3, 62, 0
5, 147360, Note_on_c, 3, 58, 90
5, 147390, Note_on_c, 3, 60, 0
5, 147750, Note_on_c, 3, 58, 0
5, 147840, Note_on_c, 3, 58, 90
5, 148320, Note_on_c, 3, 57, 90
5, 148350, Note_on_c, 3, 58, 0
5, 148800, Note_on_c, 3, 58, 90
5, 148830, Note_on_c, 3, 57, 0
5, 149280, Note_on_c, 3, 55, 90
5, 149310, Note_on_c, 3, 58, 0
5, 149670, Note_on_c, 3, 55, 0
5, 149760, Note_on_c, 3, 54, 80
5, 150450, Note_on_c, 3, 54, 0
5, 150480, Note_on_c, 3, 54, 80
5, 150480, Note_on_c, 3, 57, 80
5, 150630, Note_on_c, 3, 54, 0
5, 150630, Note_on_c, 3, 57, 0
5, 150720, Note_on_c, 3, 54, 80
5, 150720, Note_on_c, 3, 57, 80
5, 151350, Note_on_c, 3, 54, 0
5, 151350, Note_on_c, 3, 57, 0
5, 151440, Note_on_c, 3, 54, 80
5, 151440, Note_on_c, 3, 57, 80
5, 151590, Note_on_c, 3, 54, 0
5, 151590, Note_on_c, 3, 57, 0
5, 152400, Note_on_c, 3, 54, 80
5, 152400, Note_on_c, 3, 57, 80
5, 152550, Note_on_c, 3, 54, 0
5, 152550, Note_on_c, 3, 57, 0
5, 152640, Note_on_c, 3, 54, 80
5, 152640, Note_on_c, 3, 57, 80
5, 153270, Note_on_c, 3, 54, 0
5, 153270, Note_on_c, 3, 57, 0
5, 153360, Note_on_c, 3, 54, 80
5, 153360, Note_on_c, 3, 57, 80
5, 153510, Note_on_c, 3, 54, 0
5, 153510, Note_on_c, 3, 57, 0
5, 154320, Note_on_c, 3, 55, 82
5, 154320, Note_on_c, 3, 58, 82
5, 154470, Note_on_c, 3, 55, 0
5, 154470, Note_on_c, 3, 58, 0
5, 154560, Note_on_c, 3, 55, 83
5, 154560, Note_on_c, 3, 58, 83
5, 155190, Note_on_c, 3, 55, 0
5, 155190, Note_on_c, 3, 58, 0
5, 155280, Note_on_c, 3, 55, 86
5, 155280, Note_on_c, 3, 58, 86
5, 155430, Note_on_c, 3, 55, 0
5, 155430, Note_on_c, 3, 58, 0
5, 156240, Note_on_c, 3, 55, 90
5, 156240, Note_on_c, 3, 58, 90
5, 156390, Note_on_c, 3, 55, 0
5, 156390, Note_on_c, 3, 58, 0
5, 156480, Note_on_c, 3, 55, 91
5, 156480, Note_on_c, 3, 58, 91
5, 157110, Note_on_c, 3, 55, 0
5, 157110, Note_on_c, 3, 58, 0
5, 157200, Note_on_c, 3, 55, 94
5, 157200, Note_on_c, 3, 58, 94
5, 157350, Note_on_c, 3, 55, 0
5, 157350, Note_on_c, 3, 58, 0
5, 158160, Note_on_c, 3, 57, 97
5, 158160, Note_on_c, 3, 60, 97
5, 158310, Note_on_c, 3, 57, 0
5, 158310, Note_on_c, 3, 60, 0
5, 158400, Note_on_c, 3, 57, 98
5, 158400, Note_on_c, 3, 60, 98
5, 159030, Note_on_c, 3, 57, 0
5, 159030, Note_on_c, 3, 60, 0
5, 159120, Note_on_c, 3, 57, 101
5, 159120, Note_on_c, 3, 60, 101
5, 159270, Note_on_c, 3, 57, 0
5, 159270, Note_on_c, 3, 60, 0
5, 160080, Note_on_c, 3, 58, 105
5, 160080, Note_on_c, 3, 62, 105
5, 160230, Note_on_c, 3, 58, 0
5, 160230, Note_on_c, 3, 62, 0
5, 160320, Note_on_c, 3, 58, 106
5, 160320, Note_on_c, 3, 62, 106
5, 160950, Note_on_c, 3, 58, 0
5, 160950, Note_on_c, 3, 62, 0
5, 161040, Note_on_c, 3, 58, 109
5, 161040, Note_on_c, 3, 62, 109
5, 161190, Note_on_c, 3, 58, 0
5, 161190, Note_on_c, 3, 62, 0
5, 161280, Note_on_c, 3, 60, 110
5, 161280, Note_on_c, 3, 63, 110
5, 162720, Note_on_c, 3, 58, 110
5, 162720, Note_on_c, 3, 62, 110
5, 162750, Note_on_c, 3, 60, 0
5, 162750, Note_on_c, 3, 63, 0
5, 163170, Note_on_c, 3, 58, 0
5, 163170, Note_on_c, 3, 62, 0
5, 163200, Note_on_c, 3, 57, 110
5, 163200, Note_on_c, 3, 60, 110
5, 163680, Note_on_c, 3, 55, 110
5, 163680, Note_on_c, 3, 58, 110
5, 163710, Note_on_c, 3, 57, 0
5, 163710, Note_on_c, 3, 60, 0
5, 164160, Note_on_c, 3, 57, 110
5, 164160, Note_on_c, 3, 60, 110
5, 164190, Note_on_c, 3, 55, 0
5, 164190, Note_on_c, 3, 58, 0
5, 164640, Note_on_c, 3, 55, 110
5, 164640, Note_on_c, 3, 58, 110
5, 164670, Note_on_c, 3, 57, 0
5, 164670, Note_on_c, 3, 60, 0
5, 165090, Note_on_c, 3, 55, 0
5, 165090, Note_on_c, 3, 58, 0
5, 165120, Note_on_c, 3, 60, 110
5, 165120, Note_on_c, 3, 63, 110
5, 166560, Note_on_c, 3, 58, 110
5, 166560, Note_on_c, 3, 62, 110
5, 166590, Note_on_c, 3, 60, 0
5, 166590, Note_on_c, 3, 63, 0
5, 167010, Note_on_c, 3, 58, 0
5, 167010, Note_on_c, 3, 62, 0
5, 167040, Note_on_c, 3, 57, 110
5, 167040, Note_on_c, 3, 60, 110
5, 167520, Note_on_c, 3, 55, 110
5, 167520, Note_on_c, 3, 58, 110
5, 167550, Note_on_c, 3, 57, 0
5, 167550, Note_on_c, 3, 60, 0
5, 168000, Note_on_c, 3, 57, 110
5, 168000, Note_on_c, 3, 60, 110
5, 168030, Note_on_c, 3, 55, 0
5, 168030, Note_on_c, 3, 58, 0
5, 168480, Note_on_c, 3, 55, 110
5, 168480, Note_on_c, 3, 58, 110
5, 168510, Note_on_c, 3, 57, 0
5, 168510, Note_on_c, 3, 60, 0
5, 168930, Note_on_c, 3, 55, 0
5, 168930, Note_on_c, 3, 58, 0
5, 168960, Note_on_c, 3, 59, 110
5, 168960, Note_on_c, 3, 62, 110
5, 170400, Note_on_c, 3, 60, 110
5, 170400, Note_on_c, 3, 63, 110
5, 170430, Note_on_c, 3, 59, 0
5, 170430, Note_on_c, 3, 62, 0
5, 170850, Note_on_c, 3, 60, 0
5, 170850, Note_on_c, 3, 63, 0
5, 170880, Note_on_c, 3, 50, 110
5, 170880, Note_on_c, 3, 62, 110
5, 171360, Note_on_c, 3, 48, 110
5, 171360, Note_on_c, 3, 60, 110
5, 171390, Note_on_c, 3, 50, 0
5, 171390, Note_on_c, 3, 62, 0
5, 171840, Note_on_c, 3, 50, 110
5, 171840, Note_on_c, 3, 62, 110
5, 171870, Note_on_c, 3, 48, 0
5, 171870, Note_on_c, 3, 60, 0
5, 172320, Note_on_c, 3, 48, 110
5, 172320, Note_on_c, 3, 60, 110
5, 172350, Note_on_c, 3, 50, 0
5, 172350, Note_on_c, 3, 62, 0
5, 172770, Note_on_c, 3, 48, 0
5, 172770, Note_on_c, 3, 60, 0
5, 172800, Note_on_c, 3, 59, 110
5, 172800, Note_on_c, 3, 62, 110
5, 174240, Note_on_c, 3, 60, 110
5, 174240, Note_on_c, 3, 63, 110
5, 174270, Note_on_c, 3, 59, 0
5, 174270, Note_on_c, 3, 62, 0
5, 174690, Note_on_c, 3, 60, 0
5, 174690, Note_on_c, 3, 63, 0
5, 174720, Note_on_c, 3, 50, 110
5, 174720, Note_on_c, 3, 62, 110
5, 175200, Note_on_c, 3, 48, 110
5, 175200, Note_on_c, 3, 60, 110
5, 175230, Note_on_c, 3, 50, 0
5, 175230, Note_on_c, 3, 62, 0
5, 175680, Note_on_c, 3, 50, 110
5, 175680, Note_on_c, 3, 62, 110
5, 175710, Note_on_c, 3, 48, 0
5, 175710, Note_on_c, 3, 60, 0
5, 176160, Note_on_c, 3, 48, 110
5, 176160, Note_on_c, 3, 60, 110
5, 176190, Note_on_c, 3, 50, 0
5, 176190, Note_on_c, 3, 62, 0
5, 176610, Note_on_c, 3, 48, 0
5, 176610, Note_on_c, 3, 60, 0
5, 177360, Note_on_c, 3, 60, 110
5, 177480, Note_on_c, 3, 60, 0
5, 177600, Note_on_c, 3, 60, 110
5, 178080, Note_on_c, 3, 61, 110
5, 178110, Note_on_c, 3, 60, 0
5, 178530, Note_on_c, 3, 61, 0
5, 179280, Note_on_c, 3, 60, 110
5, 179400, Note_on_c, 3, 60, 0
5, 179520, Note_on_c, 3, 60, 110
5, 180000, Note_on_c, 3, 61, 110
5, 180030, Note_on_c, 3, 60, 0
5, 180450, Note_on_c, 3, 61, 0
5, 181200, Note_on_c, 3, 60, 110
5, 181320, Note_on_c, 3, 60, 0
5, 181440, Note_on_c, 3, 60, 110
5, 181920, Note_on_c, 3, 61, 110
5, 181950, Note_on_c, 3, 60, 0
5, 182370, Note_on_c, 3, 61, 0
5, 183120, Note_on_c, 3, 60, 110
5, 183240, Note_on_c, 3, 60, 0
5, 183360, Note_on_c, 3, 60, 110
5, 183840, Note_on_c, 3, 61, 110
5, 183870, Note_on_c, 3, 60, 0
5, 184290, Note_on_c, 3, 61, 0
5, 184320, Note_on_c, 3, 60, 110
5, 184320, Note_on_c, 3, 63, 110
5, 186210, Note_on_c, 3, 60, 0
5, 186210, Note_on_c, 3, 63, 0
5, 186240, Note_on_c, 3, 59, 110
5, 186240, Note_on_c, 3, 62, 110
5, 187170, Note_on_c, 3, 59, 0
5, 187170, Note_on_c, 3, 62, 0
5, 187200, Note_on_c, 3, 58, 110
5, 187200, Note_on_c, 3, 61, 110
5, 188130, Note_on_c, 3, 58, 0
5, 188130, Note_on_c, 3, 61, 0
5, 188160, Note_on_c, 3, 56, 110
5, 188160, Note_on_c, 3, 60, 110
5, 189090, Note_on_c, 3, 56, 0
5, 189120, Note_on_c, 3, 55, 110
5, 190050, Note_on_c, 3, 55, 0
5, 190080, Note_on_c, 3, 54, 110
5, 191010, Note_on_c, 3, 54, 0
5, 191040, Note_on_c, 3, 51, 110
5, 191970, Note_on_c, 3, 51, 0
5, 191970, Note_on_c, 3, 60, 0
5, 192000, Note_on_c, 3, 50, 110
5, 192000, Note_on_c, 3, 62, 110
5, 192480, Note_on_c, 3, 50, 0
5, 192480, Note_on_c, 3, 62, 0
5, 192960, Note_on_c, 3, 51, 80
5, 192960, Note_on_c, 3, 63, 80
5, 193440, Note_on_c, 3, 51, 0
5, 193440, Note_on_c, 3, 63, 0
5, 193920, Note_on_c, 3, 48, 80
5, 193920, Note_on_c, 3, 60, 80
5, 194400, Note_on_c, 3, 48, 0
5, 194400, Note_on_c, 3, 60, 0
5, 194880, Note_on_c, 3, 50, 80
5, 194880, Note_on_c, 3, 62, 80
5, 195360, Note_on_c, 3, 50, 0
5, 195360, Note_on_c, 3, 62, 0
5, 195840, Note_on_c, 3, 55, 70
5, 197730, Note_on_c, 3, 55, 0
5, 197760, Note_on_c, 3, 54, 70
5, 199650, Note_on_c, 3, 54, 0
5, 199680, Note_on_c, 3, 55, 90
5, 201570, Note_on_c, 3, 55, 0
5, 201600, Note_on_c, 3, 54, 80
5, 203490, Note_on_c, 3, 54, 0
5, 203520, Note_on_c, 3, 55, 90
5, 204480, Note_on_c, 3, 53, 80
5, 204510, Note_on_c, 3, 55, 0
5, 205440, Note_on_c, 3, 51, 80
5, 205470, Note_on_c, 3, 53, 0
5, 206400, Note_on_c, 3, 50, 80
5, 206430, Note_on_c, 3, 51, 0
5, 207360, Note_on_c, 3, 48, 80
5, 207390, Note_on_c, 3, 50, 0
5, 208320, Note_on_c, 3, 46, 80
5, 208350, Note_on_c, 3, 48, 0
5, 209280, Note_on_c, 3, 45, 80
5, 209310, Note_on_c, 3, 46, 0
5, 210180, Note_on_c, 3, 45, 0
5, 210240, Note_on_c, 3, 50, 80
5, 211140, Note_on_c, 3, 50, 0
5, 211200, Note_on_c, 3, 55, 100
5, 211380, Note_on_c, 3, 55, 0
5, 211440, Note_on_c, 3, 58, 100
5, 211620, Note_on_c, 3, 58, 0
5, 211680, Note_on_c, 3, 62, 100
5, 211860, Note_on_c, 3, 62, 0
5, 211920, Note_on_c, 3, 63, 100
5, 212100, Note_on_c, 3, 63, 0
5, 212160, Note_on_c, 3, 53, 100
5, 212340, Note_on_c, 3, 53, 0
5, 212400, Note_on_c, 3, 57, 100
5, 212580, Note_on_c, 3, 57, 0
5, 212640, Note_on_c, 3, 61, 100
5, 212820, Note_on_c, 3, 61, 0
5, 212880, Note_on_c, 3, 62, 100
5, 213060, Note_on_c, 3, 62, 0
5, 213120, Note_on_c, 3, 51, 100
5, 213300, Note_on_c, 3, 51, 0
5, 213360, Note_on_c, 3, 55, 100
5, 213540, Note_on_c, 3, 55, 0
5, 213600, Note_on_c, 3, 59, 100
5, 213780, Note_on_c, 3, 59, 0
5, 213840, Note_on_c, 3, 60, 100
5, 214020, Note_on_c, 3, 60, 0
5, 214080, Note_on_c, 3, 50, 100
5, 214260, Note_on_c, 3, 50, 0
5, 214320, Note_on_c, 3, 53, 100
5, 214500, Note_on_c, 3, 53, 0
5, 214560, Note_on_c, 3, 57, 100
5, 214740, Note_on_c, 3, 57, 0
5, 214800, Note_on_c, 3, 58, 100
5, 214980, Note_on_c, 3, 58, 0
5, 215040, Note_on_c, 3, 48, 100
5, 215220, Note_on_c, 3, 48, 0
5, 215280, Note_on_c, 3, 51, 100
5, 215460, Note_on_c, 3, 51, 0
5, 215520, Note_on_c, 3, 55, 100
5, 215700, Note_on_c, 3, 55, 0
5, 215760, Note_on_c, 3, 57, 100
5, 215940, Note_on_c, 3, 57, 0
5, 216000, Note_on_c, 3, 49, 100
5, 216180, Note_on_c, 3, 49, 0
5, 216240, Note_on_c, 3, 52, 100
5, 216420, Note_on_c, 3, 52, 0
5, 216480, Note_on_c, 3, 55, 100
5, 216660, Note_on_c, 3, 55, 0
5, 216720, Note_on_c, 3, 58, 100
5, 216900, Note_on_c, 3, 58, 0
5, 216960, Note_on_c, 3, 50, 100
5, 217140, Note_on_c, 3, 50, 0
5, 217200, Note_on_c, 3, 55, 100
5, 217380, Note_on_c, 3, 55, 0
5, 217440, Note_on_c, 3, 58, 100
5, 217620, Note_on_c, 3, 58, 0
5, 217680, Note_on_c, 3, 62, 100
5, 217860, Note_on_c, 3, 62, 0
5, 217920, Note_on_c, 3, 50, 100
5, 218100, Note_on_c, 3, 50, 0
5, 218160, Note_on_c, 3, 54, 100
5, 218340, Note_on_c, 3, 54, 0
5, 218400, Note_on_c, 3, 57, 100
5, 218580, Note_on_c, 3, 57, 0
5, 218640, Note_on_c, 3, 62, 100
5, 218820, Note_on_c, 3, 62, 0
5, 218880, Note_on_c, 3, 43, 100
5, 218880, Note_on_c, 3, 55, 100
5, 220410, Note_on_c, 3, 43, 0
5, 220410, Note_on_c, 3, 55, 0
5, 220560, Note_on_c, 3, 43, 100
5, 220560, Note_on_c, 3, 55, 100
5, 220740, Note_on_c, 3, 43, 0
5, 220740, Note_on_c, 3, 55, 0
5, 220800, Note_on_c, 3, 43, 100
5, 220800, Note_on_c, 3, 55, 100
5, 222330, Note_on_c, 3, 43, 0
5, 222330, Note_on_c, 3, 55, 0
5, 222480, Note_on_c, 3, 43, 100
5, 222480, Note_on_c, 3, 55, 100
5, 222660, Note_on_c, 3, 43, 0
5, 222660, Note_on_c, 3, 55, 0
5, 222720, Note_on_c, 3, 43, 100
5, 222720, Note_on_c, 3, 55, 100
5, 223290, Note_on_c, 3, 43, 0
5, 223290, Note_on_c, 3, 55, 0
5, 223440, Note_on_c, 3, 43, 100
5, 223440, Note_on_c, 3, 55, 100
5, 223620, Note_on_c, 3, 43, 0
5, 223620, Note_on_c, 3, 55, 0
5, 223680, Note_on_c, 3, 43, 100
5, 223680, Note_on_c, 3, 55, 100
5, 224130, Note_on_c, 3, 43, 0
5, 224130, Note_on_c, 3, 55, 0
5, 224400, Note_on_c, 3, 43, 100
5, 224400, Note_on_c, 3, 55, 100
5, 224580, Note_on_c, 3, 43, 0
5, 224580, Note_on_c, 3, 55, 0
5, 224640, Note_on_c, 3, 43, 100
5, 224640, Note_on_c, 3, 55, 100
5, 225090, Note_on_c, 3, 43, 0
5, 225090, Note_on_c, 3, 55, 0
5, 225360, Note_on_c, 3, 43, 100
5, 225360, Note_on_c, 3, 55, 100
5, 225540, Note_on_c, 3, 43, 0
5, 225540, Note_on_c, 3, 55, 0
5, 225600, Note_on_c, 3, 43, 100
5, 225600, Note_on_c, 3, 55, 100
5, 226050, Note_on_c, 3, 43, 0
5, 226050, Note_on_c, 3, 55, 0
5, 226320, Note_on_c, 3, 43, 100
5, 226320, Note_on_c, 3, 55, 100
5, 226500, Note_on_c, 3, 43, 0
5, 226500, Note_on_c, 3, 55, 0
5, 226560, Note_on_c, 3, 55, 100
5, 228450, Note_on_c, 3, 55, 0
5, 228480, Note_on_c, 3, 54, 80
5, 230370, Note_on_c, 3, 54, 0
5, 230400, Note_on_c, 3, 55, 80
5, 232290, Note_on_c, 3, 55, 0
5, 232320, Note_on_c, 3, 53, 80
5, 234210, Note_on_c, 3, 53, 0
5, 234240, Note_on_c, 3, 52, 80
5, 234960, Note_on_c, 3, 61, 80
5, 235080, Note_on_c, 3, 61, 0
5, 235200, Note_on_c, 3, 60, 80
5, 235650, Note_on_c, 3, 60, 0
5, 235920, Note_on_c, 3, 55, 80
5, 236040, Note_on_c, 3, 55, 0
5, 236130, Note_on_c, 3, 52, 0
5, 236160, Note_on_c, 3, 53, 80
5, 236160, Note_on_c, 3, 56, 80
5, 236610, Note_on_c, 3, 56, 0
5, 238050, Note_on_c, 3, 53, 0
5, 238080, Note_on_c, 3, 52, 80
5, 238800, Note_on_c, 3, 61, 80
5, 238920, Note_on_c, 3, 61, 0
5, 239040, Note_on_c, 3, 60, 80
5, 239370, Note_on_c, 3, 60, 0
5, 239760, Note_on_c, 3, 55, 80
5, 239880, Note_on_c, 3, 55, 0
5, 239940, Note_on_c, 3, 52, 0
5, 240000, Note_on_c, 3, 48, 80
5, 240000, Note_on_c, 3, 52, 80
5, 240330, Note_on_c, 3, 52, 0
5, 241890, Note_on_c, 3, 48, 0
5, 241920, Note_on_c, 3, 53, 80
5, 243810, Note_on_c, 3, 53, 0
5, 243840, Note_on_c, 3, 52, 80
5, 245730, Note_on_c, 3, 52, 0
5, 245760, Note_on_c, 3, 53, 80
5, 247650, Note_on_c, 3, 53, 0
5, 247680, Note_on_c, 3, 55, 80
5, 248400, Note_on_c, 3, 65, 80
5, 248520, Note_on_c, 3, 65, 0
5, 248640, Note_on_c, 3, 63, 80
5, 248970, Note_on_c, 3, 63, 0
5, 249360, Note_on_c, 3, 58, 80
5, 249480, Note_on_c, 3, 58, 0
5, 249570, Note_on_c, 3, 55, 0
5, 249600, Note_on_c, 3, 56, 80
5, 249600, Note_on_c, 3, 60, 80
5, 249930, Note_on_c, 3, 60, 0
5, 251490, Note_on_c, 3, 56, 0
5, 251520, Note_on_c, 3, 55, 84
5, 253410, Note_on_c, 3, 55, 0
5, 253440, Note_on_c, 3, 56, 88
5, 255330, Note_on_c, 3, 56, 0
5, 255360, Note_on_c, 3, 57, 92
5, 256080, Note_on_c, 3, 66, 93
5, 256200, Note_on_c, 3, 66, 0
5, 256320, Note_on_c, 3, 65, 94
5, 256650, Note_on_c, 3, 65, 0
5, 257040, Note_on_c, 3, 60, 95
5, 257160, Note_on_c, 3, 60, 0
5, 257250, Note_on_c, 3, 57, 0
5, 257280, Note_on_c, 3, 58, 96
5, 257280, Note_on_c, 3, 61, 96
5, 257610, Note_on_c, 3, 61, 0
5, 259170, Note_on_c, 3, 58, 0
5, 259200, Note_on_c, 3, 60, 100
5, 261090, Note_on_c, 3, 60, 0
5, 261120, Note_on_c, 3, 61, 80
5, 262080, Note_on_c, 3, 60, 80
5, 262110, Note_on_c, 3, 61, 0
5, 263040, Note_on_c, 3, 58, 80
5, 263070, Note_on_c, 3, 60, 0
5, 264000, Note_on_c, 3, 56, 80
5, 264030, Note_on_c, 3, 58, 0
5, 264960, Note_on_c, 3, 54, 80
5, 264990, Note_on_c, 3, 56, 0
5, 265920, Note_on_c, 3, 53, 80
5, 265950, Note_on_c, 3, 54, 0
5, 266880, Note_on_c, 3, 51, 80
5, 266910, Note_on_c, 3, 53, 0
5, 267780, Note_on_c, 3, 51, 0
5, 267840, Note_on_c, 3, 44, 80
5, 268740, Note_on_c, 3, 44, 0
5, 268800, Note_on_c, 3, 49, 100
5, 268920, Note_on_c, 3, 49, 0
5, 269040, Note_on_c, 3, 53, 100
5, 269160, Note_on_c, 3, 53, 0
5, 269280, Note_on_c, 3, 57, 100
5, 269400, Note_on_c, 3, 57, 0
5, 269520, Note_on_c, 3, 58, 100
5, 269640, Note_on_c, 3, 58, 0
5, 269760, Note_on_c, 3, 48, 100
5, 269880, Note_on_c, 3, 48, 0
5, 270000, Note_on_c, 3, 51, 100
5, 270120, Note_on_c, 3, 51, 0
5, 270240, Note_on_c, 3, 55, 100
5, 270360, Note_on_c, 3, 55, 0
5, 270480, Note_on_c, 3, 56, 100
5, 270600, Note_on_c, 3, 56, 0
5, 270720, Note_on_c, 3, 46, 100
5, 270840, Note_on_c, 3, 46, 0
5, 270960, Note_on_c, 3, 49, 100
5, 271080, Note_on_c, 3, 49, 0
5, 271200, Note_on_c, 3, 53, 100
5, 271320, Note_on_c, 3, 53, 0
5, 271440, Note_on_c, 3, 54, 100
5, 271560, Note_on_c, 3, 54, 0
5, 271680, Note_on_c, 3, 44, 100
5, 271800, Note_on_c, 3, 44, 0
5, 271920, Note_on_c, 3, 48, 100
5, 272040, Note_on_c, 3, 48, 0
5, 272160, Note_on_c, 3, 52, 100
5, 272280, Note_on_c, 3, 52, 0
5, 272400, Note_on_c, 3, 53, 100
5, 272520, Note_on_c, 3, 53, 0
5, 272640, Note_on_c, 3, 43, 100
5, 272760, Note_on_c, 3, 43, 0
5, 272880, Note_on_c, 3, 46, 100
5, 273000, Note_on_c, 3, 46, 0
5, 273120, Note_on_c, 3, 48, 100
5, 273240, Note_on_c, 3, 48, 0
5, 273360, Note_on_c, 3, 49, 100
5, 273480, Note_on_c, 3, 49, 0
5, 273600, Note_on_c, 3, 41, 100
5, 273720, Note_on_c, 3, 41, 0
5, 273840, Note_on_c, 3, 46, 100
5, 273960, Note_on_c, 3, 46, 0
5, 274080, Note_on_c, 3, 48, 100
5, 274200, Note_on_c, 3, 48, 0
5, 274320, Note_on_c, 3, 49, 100
5, 274440, Note_on_c, 3, 49, 0
5, 274560, Note_on_c, 3, 40, 100
5, 274680, Note_on_c, 3, 40, 0
5, 274800, Note_on_c, 3, 43, 100
5, 274920, Note_on_c, 3, 43, 0
5, 275040, Note_on_c, 3, 46, 100
5, 275160, Note_on_c, 3, 46, 0
5, 275280, Note_on_c, 3, 49, 100
5, 275400, Note_on_c, 3, 49, 0
5, 275520, Note_on_c, 3, 48, 100
5, 275640, Note_on_c, 3, 48, 0
5, 275760, Note_on_c, 3, 52, 100
5, 275880, Note_on_c, 3, 52, 0
5, 276000, Note_on_c, 3, 55, 100
5, 276120, Note_on_c, 3, 55, 0
5, 276240, Note_on_c, 3, 60, 100
5, 276360, Note_on_c, 3, 60, 0
5, 276480, Note_on_c, 3, 53, 70
5, 276480, Note_on_c, 3, 60, 70
5, 276480, Control_c, 3, 11, 80
5, 276640, Control_c, 3, 11, 81
5, 276790, Control_c, 3, 11, 82
5, 276810, Note_on_c, 3, 53, 0
5, 276940, Control_c, 3, 11, 83
5, 277100, Control_c, 3, 11, 84
5, 277250, Control_c, 3, 11, 85
5, 277400, Control_c, 3, 11, 86
5, 277560, Control_c, 3, 11, 87
5, 277710, Control_c, 3, 11, 88
5, 277860, Control_c, 3, 11, 89
5, 278020, Control_c, 3, 11, 90
5, 278170, Control_c, 3, 11, 91
5, 278320, Control_c, 3, 11, 92
5, 278480, Control_c, 3, 11, 93
5, 278630, Control_c, 3, 11, 94
5, 278780, Control_c, 3, 11, 95
5, 278940, Control_c, 3, 11, 96
5, 279090, Control_c, 3, 11, 97
5, 279240, Control_c, 3, 11, 98
5, 279400, Control_c, 3, 11, 99
5, 279550, Control_c, 3, 11, 100
5, 279700, Control_c, 3, 11, 101
5, 279860, Control_c, 3, 11, 102
5, 280010, Control_c, 3, 11, 103
5, 280160, Control_c, 3, 11, 104
5, 280310, Control_c, 3, 11, 105
5, 280470, Control_c, 3, 11, 106
5, 280620, Control_c, 3, 11, 107
5, 280770, Control_c, 3, 11, 108
5, 280930, Control_c, 3, 11, 109
5, 281080, Control_c, 3, 11, 110
5, 281230, Control_c, 3, 11, 111
5, 281390, Control_c, 3, 11, 112
5, 281540, Control_c, 3, 11, 113
5, 281690, Control_c, 3, 11, 114
5, 281850, Control_c, 3, 11, 115
5, 282000, Control_c, 3, 11, 116
5, 282150, Control_c, 3, 11, 117
5, 282310, Control_c, 3, 11, 118
5, 282460, Control_c, 3, 11, 119
5, 282610, Control_c, 3, 11, 120
5, 282770, Control_c, 3, 11, 121
5, 282920, Control_c, 3, 11, 122
5, 283070, Control_c, 3, 11, 123
5, 283230, Control_c, 3, 11, 124
5, 283380, Control_c, 3, 11, 125
5, 283530, Control_c, 3, 11, 126
5, 283680, Control_c, 3, 11, 127
5, 284040, Note_on_c, 3, 60, 0
5, 284157, Control_c, 3, 11, 80
5, 284160, Note_on_c, 3, 53, 110
5, 284280, Note_on_c, 3, 53, 0
5, 284400, Note_on_c, 3, 56, 110
5, 284520, Note_on_c, 3, 56, 0
5, 284640, Note_on_c, 3, 60, 110
5, 284760, Note_on_c, 3, 60, 0
5, 284880, Note_on_c, 3, 61, 110
5, 285000, Note_on_c, 3, 61, 0
5, 285120, Note_on_c, 3, 51, 110
5, 285240, Note_on_c, 3, 51, 0
5, 285360, Note_on_c, 3, 55, 110
5, 285480, Note_on_c, 3, 55, 0
5, 285600, Note_on_c, 3, 59, 110
5, 285720, Note_on_c, 3, 59, 0
5, 285840, Note_on_c, 3, 60, 110
5, 285960, Note_on_c, 3, 60, 0
5, 286080, Note_on_c, 3, 49, 110
5, 286200, Note_on_c, 3, 49, 0
5, 286320, Note_on_c, 3, 53, 110
5, 286440, Note_on_c, 3, 53, 0
5, 286560, Note_on_c, 3, 57, 110
5, 286680, Note_on_c, 3, 57, 0
5, 286800, Note_on_c, 3, 58, 110
5, 286920, Note_on_c, 3, 58, 0
5, 287040, Note_on_c, 3, 48, 110
5, 287160, Note_on_c, 3, 48, 0
5, 287280, Note_on_c, 3, 51, 110
5, 287400, Note_on_c, 3, 51, 0
5, 287520, Note_on_c, 3, 55, 110
5, 287640, Note_on_c, 3, 55, 0
5, 287760, Note_on_c, 3, 56, 110
5, 287880, Note_on_c, 3, 56, 0
5, 288000, Note_on_c, 3, 46, 110
5, 288120, Note_on_c, 3, 46, 0
5, 288240, Note_on_c, 3, 49, 110
5, 288360, Note_on_c, 3, 49, 0
5, 288480, Note_on_c, 3, 52, 110
5, 288600, Note_on_c, 3, 52, 0
5, 288720, Note_on_c, 3, 55, 110
5, 288840, Note_on_c, 3, 55, 0
5, 288960, Note_on_c, 3, 44, 110
5, 289080, Note_on_c, 3, 44, 0
5, 289200, Note_on_c, 3, 48, 110
5, 289320, Note_on_c, 3, 48, 0
5, 289440, Note_on_c, 3, 52, 110
5, 289560, Note_on_c, 3, 52, 0
5, 289680, Note_on_c, 3, 53, 110
5, 289800, Note_on_c, 3, 53, 0
5, 289920, Note_on_c, 3, 46, 110
5, 290040, Note_on_c, 3, 46, 0
5, 290160, Note_on_c, 3, 49, 110
5, 290280, Note_on_c, 3, 49, 0
5, 290400, Note_on_c, 3, 53, 110
5, 290520, Note_on_c, 3, 53, 0
5, 290640, Note_on_c, 3, 55, 110
5, 290760, Note_on_c, 3, 55, 0
5, 290880, Note_on_c, 3, 48, 110
5, 291000, Note_on_c, 3, 48, 0
5, 291120, Note_on_c, 3, 52, 110
5, 291240, Note_on_c, 3, 52, 0
5, 291360, Note_on_c, 3, 55, 110
5, 291480, Note_on_c, 3, 55, 0
5, 291600, Note_on_c, 3, 60, 110
5, 291720, Note_on_c, 3, 60, 0
5, 291840, Note_on_c, 3, 53, 90
5, 295410, Note_on_c, 3, 53, 0
5, 295680, Note_on_c, 3, 46, 127
5, 295680, Note_on_c, 3, 61, 127
5, 295890, Note_on_c, 3, 46, 0
5, 295890, Note_on_c, 3, 61, 0
5, 299520, Note_on_c, 3, 53, 70
5, 303090, Note_on_c, 3, 53, 0
5, 303360, Note_on_c, 3, 47, 110
5, 303360, Note_on_c, 3, 59, 110
5, 303990, Note_on_c, 3, 47, 0
5, 303990, Note_on_c, 3, 59, 0
5, 305280, Note_on_c, 3, 47, 110
5, 305280, Note_on_c, 3, 59, 110
5, 305910, Note_on_c, 3, 47, 0
5, 305910, Note_on_c, 3, 59, 0
5, 312960, Note_on_c, 3, 46, 120
5, 312960, Note_on_c, 3, 58, 120
5, 313890, Note_on_c, 3, 46, 0
5, 313890, Note_on_c, 3, 58, 0
5, 314880, Note_on_c, 3, 46, 120
5, 314880, Note_on_c, 3, 58, 120
5, 315810, Note_on_c, 3, 46, 0
5, 315810, Note_on_c, 3, 58, 0
5, 322080, Note_on_c, 3, 46, 120
5, 322080, Note_on_c, 3, 52, 120
5, 322560, Note_on_c, 3, 44, 120
5, 322560, Note_on_c, 3, 53, 120
5, 322590, Note_on_c, 3, 46, 0
5, 322590, Note_on_c, 3, 52, 0
5, 323880, Note_on_c, 3, 44, 0
5, 323880, Note_on_c, 3, 53, 0
5, 324000, Note_on_c, 3, 46, 120
5, 324000, Note_on_c, 3, 52, 120
5, 324480, Note_on_c, 3, 44, 120
5, 324480, Note_on_c, 3, 53, 120
5, 324510, Note_on_c, 3, 46, 0
5, 324510, Note_on_c, 3, 52, 0
5, 325800, Note_on_c, 3, 44, 0
5, 325800, Note_on_c, 3, 53, 0
5, 325920, Note_on_c, 3, 46, 120
5, 325920, Note_on_c, 3, 52, 120
5, 326400, Note_on_c, 3, 44, 120
5, 326400, Note_on_c, 3, 53, 120
5, 326430, Note_on_c, 3, 46, 0
5, 326430, Note_on_c, 3, 52, 0
5, 327720, Note_on_c, 3, 44, 0
5, 327720, Note_on_c, 3, 53, 0
5, 327840, Note_on_c, 3, 46, 120
5, 327840, Note_on_c, 3, 52, 120
5, 328320, Note_on_c, 3, 44, 120
5, 328320, Note_on_c, 3, 53, 120
5, 328350, Note_on_c, 3, 46, 0
5, 328350, Note_on_c, 3, 52, 0
5, 329430, Note_on_c, 3, 44, 0
5, 329430, Note_on_c, 3, 53, 0
5, 329760, Note_on_c, 3, 48, 120
5, 329760, Note_on_c, 3, 54, 120
5, 330240, Note_on_c, 3, 47, 120
5, 330240, Note_on_c, 3, 55, 120
5, 330270, Note_on_c, 3, 48, 0
5, 330270, Note_on_c, 3, 54, 0
5, 331560, Note_on_c, 3, 47, 0
5, 331560, Note_on_c, 3, 55, 0
5, 331680, Note_on_c, 3, 48, 120
5, 331680, Note_on_c, 3, 54, 120
5, 332160, Note_on_c, 3, 47, 120
5, 332160, Note_on_c, 3, 55, 120
5, 332190, Note_on_c, 3, 48, 0
5, 332190, Note_on_c, 3, 54, 0
5, 333480, Note_on_c, 3, 47, 0
5, 333480, Note_on_c, 3, 55, 0
5, 333600, Note_on_c, 3, 48, 120
5, 333600, Note_on_c, 3, 54, 120
5, 334080, Note_on_c, 3, 47, 120
5, 334080, Note_on_c, 3, 55, 120
5, 334110, Note_on_c, 3, 48, 0
5, 334110, Note_on_c, 3, 54, 0
5, 335400, Note_on_c, 3, 47, 0
5, 335400, Note_on_c, 3, 55, 0
5, 335520, Note_on_c, 3, 48, 120
5, 335520, Note_on_c, 3, 54, 120
5, 336000, Note_on_c, 3, 47, 120
5, 336000, Note_on_c, 3, 55, 120
5, 336030, Note_on_c, 3, 48, 0
5, 336030, Note_on_c, 3, 54, 0
5, 337320, Note_on_c, 3, 47, 0
5, 337320, Note_on_c, 3, 55, 0
5, 337440, Note_on_c, 3, 48, 120
5, 337440, Note_on_c, 3, 54, 120
5, 337920, Note_on_c, 3, 47, 120
5, 337920, Note_on_c, 3, 55, 120
5, 337950, Note_on_c, 3, 48, 0
5, 337950, Note_on_c, 3, 54, 0
5, 338400, Note_on_c, 3, 47, 0
5, 338400, Note_on_c, 3, 55, 0
5, 341760, Note_on_c, 3, 43, 80
5, 349440, Note_on_c, 3, 64, 80
5, 349440, Control_c, 3, 11, 80
5, 349820, Control_c, 3, 11, 81
5, 350190, Control_c, 3, 11, 82
5, 350560, Control_c, 3, 11, 83
5, 350880, Note_on_c, 3, 65, 80
5, 350910, Note_on_c, 3, 64, 0
5, 350930, Control_c, 3, 11, 84
5, 351300, Control_c, 3, 11, 85
5, 351360, Note_on_c, 3, 64, 80
5, 351390, Note_on_c, 3, 65, 0
5, 351670, Control_c, 3, 11, 86
5, 351840, Note_on_c, 3, 62, 80
5, 351870, Note_on_c, 3, 64, 0
5, 352050, Control_c, 3, 11, 87
5, 352320, Note_on_c, 3, 59, 80
5, 352350, Note_on_c, 3, 62, 0
5, 352420, Control_c, 3, 11, 88
5, 352790, Control_c, 3, 11, 89
5, 352800, Note_on_c, 3, 55, 80
5, 352830, Note_on_c, 3, 59, 0
5, 353160, Control_c, 3, 11, 90
5, 353250, Note_on_c, 3, 55, 0
5, 353280, Note_on_c, 3, 67, 80
5, 353530, Control_c, 3, 11, 91
5, 353900, Control_c, 3, 11, 92
5, 354280, Control_c, 3, 11, 93
5, 354650, Control_c, 3, 11, 94
5, 354720, Note_on_c, 3, 69, 80
5, 354750, Note_on_c, 3, 67, 0
5, 355020, Control_c, 3, 11, 95
5, 355200, Note_on_c, 3, 67, 80
5, 355230, Note_on_c, 3, 69, 0
5, 355390, Control_c, 3, 11, 96
5, 355760, Control_c, 3, 11, 97
5, 356130, Control_c, 3, 11, 98
5, 356160, Note_on_c, 3, 65, 80
5, 356190, Note_on_c, 3, 67, 0
5, 356510, Control_c, 3, 11, 99
5, 356880, Control_c, 3, 11, 100
5, 357090, Note_on_c, 3, 65, 0
5, 357120, Note_on_c, 3, 64, 80
5, 357250, Control_c, 3, 11, 101
5, 357620, Control_c, 3, 11, 102
5, 357990, Control_c, 3, 11, 103
5, 358360, Control_c, 3, 11, 104
5, 358560, Note_on_c, 3, 65, 80
5, 358590, Note_on_c, 3, 64, 0
5, 358740, Control_c, 3, 11, 105
5, 359040, Note_on_c, 3, 64, 80
5, 359070, Note_on_c, 3, 65, 0
5, 359110, Control_c, 3, 11, 106
5, 359480, Control_c, 3, 11, 107
5, 359520, Note_on_c, 3, 62, 80
5, 359550, Note_on_c, 3, 64, 0
5, 359850, Control_c, 3, 11, 108
5, 360000, Note_on_c, 3, 59, 80
5, 360030, Note_on_c, 3, 62, 0
5, 360220, Control_c, 3, 11, 109
5, 360480, Note_on_c, 3, 55, 80
5, 360510, Note_on_c, 3, 59, 0
5, 360590, Control_c, 3, 11, 110
5, 360870, Note_on_c, 3, 43, 0
5, 360930, Note_on_c, 3, 55, 0
5, 360960, Note_on_c, 3, 52, 80
5, 360960, Note_on_c, 3, 55, 80
5, 361890, Note_on_c, 3, 52, 0
5, 361890, Note_on_c, 3, 55, 0
5, 361920, Note_on_c, 3, 50, 80
5, 361920, Note_on_c, 3, 53, 80
5, 362850, Note_on_c, 3, 50, 0
5, 362850, Note_on_c, 3, 53, 0
5, 362880, Note_on_c, 3, 49, 80
5, 362880, Note_on_c, 3, 52, 80
5, 363810, Note_on_c, 3, 49, 0
5, 363810, Note_on_c, 3, 52, 0
5, 363840, Note_on_c, 3, 45, 80
5, 363840, Note_on_c, 3, 57, 80
5, 364797, Control_c, 3, 11, 80
5, 372390, Note_on_c, 3, 57, 0
5, 372480, Note_on_c, 3, 65, 80
5, 372480, Control_c, 3, 11, 80
5, 372610, Control_c, 3, 11, 81
5, 372730, Control_c, 3, 11, 82
5, 372860, Control_c, 3, 11, 83
5, 372980, Control_c, 3, 11, 84
5, 373100, Control_c, 3, 11, 85
5, 373230, Control_c, 3, 11, 86
5, 373350, Control_c, 3, 11, 87
5, 373480, Control_c, 3, 11, 88
5, 373600, Control_c, 3, 11, 89
5, 373720, Control_c, 3, 11, 90
5, 373850, Control_c, 3, 11, 91
5, 373920, Note_on_c, 3, 67, 80
5, 373950, Note_on_c, 3, 65, 0
5, 373970, Control_c, 3, 11, 92
5, 374100, Control_c, 3, 11, 93
5, 374220, Control_c, 3, 11, 94
5, 374340, Control_c, 3, 11, 95
5, 374400, Note_on_c, 3, 65, 80
5, 374430, Note_on_c, 3, 67, 0
5, 374470, Control_c, 3, 11, 96
5, 374590, Control_c, 3, 11, 97
5, 374710, Control_c, 3, 11, 98
5, 374840, Control_c, 3, 11, 99
5, 374880, Note_on_c, 3, 64, 80
5, 374910, Note_on_c, 3, 65, 0
5, 374960, Control_c, 3, 11, 100
5, 375090, Control_c, 3, 11, 101
5, 375210, Control_c, 3, 11, 102
5, 375330, Control_c, 3, 11, 103
5, 375360, Note_on_c, 3, 61, 80
5, 375390, Note_on_c, 3, 64, 0
5, 375460, Control_c, 3, 11, 104
5, 375580, Control_c, 3, 11, 105
5, 375710, Control_c, 3, 11, 106
5, 375830, Control_c, 3, 11, 107
5, 375840, Note_on_c, 3, 57, 80
5, 375870, Note_on_c, 3, 61, 0
5, 375950, Control_c, 3, 11, 108
5, 376080, Control_c, 3, 11, 109
5, 376200, Control_c, 3, 11, 110
5, 376230, Note_on_c, 3, 45, 0
5, 376290, Note_on_c, 3, 57, 0
5, 376320, Note_on_c, 3, 53, 80
5, 376320, Note_on_c, 3, 57, 80
5, 377250, Note_on_c, 3, 53, 0
5, 377250, Note_on_c, 3, 57, 0
5, 377280, Note_on_c, 3, 52, 80
5, 377280, Note_on_c, 3, 55, 80
5, 378210, Note_on_c, 3, 52, 0
5, 378210, Note_on_c, 3, 55, 0
5, 378240, Note_on_c, 3, 51, 80
5, 378240, Note_on_c, 3, 54, 80
5, 379170, Note_on_c, 3, 51, 0
5, 379170, Note_on_c, 3, 54, 0
5, 379200, Note_on_c, 3, 47, 80
5, 379200, Note_on_c, 3, 59, 80
5, 380157, Note_on_c, 3, 59, 0
5, 380157, Control_c, 3, 11, 80
5, 380160, Note_on_c, 3, 59, 60
5, 382080, Note_on_c, 3, 45, 80
5, 382080, Control_c, 3, 11, 80
5, 382110, Note_on_c, 3, 47, 0
5, 382280, Control_c, 3, 11, 81
5, 382470, Control_c, 3, 11, 82
5, 382660, Control_c, 3, 11, 83
5, 382850, Control_c, 3, 11, 84
5, 383040, Control_c, 3, 11, 85
5, 383240, Control_c, 3, 11, 86
5, 383430, Control_c, 3, 11, 87
5, 383620, Control_c, 3, 11, 88
5, 383810, Control_c, 3, 11, 89
5, 384000, Note_on_c, 3, 43, 80
5, 384000, Control_c, 3, 11, 90
5, 384030, Note_on_c, 3, 45, 0
5, 384200, Control_c, 3, 11, 91
5, 384390, Control_c, 3, 11, 92
5, 384580, Control_c, 3, 11, 93
5, 384770, Control_c, 3, 11, 94
5, 384960, Control_c, 3, 11, 95
5, 385160, Control_c, 3, 11, 96
5, 385350, Control_c, 3, 11, 97
5, 385540, Control_c, 3, 11, 98
5, 385730, Control_c, 3, 11, 99
5, 385920, Note_on_c, 3, 41, 80
5, 385920, Control_c, 3, 11, 100
5, 385950, Note_on_c, 3, 43, 0
5, 386120, Control_c, 3, 11, 101
5, 386310, Control_c, 3, 11, 102
5, 386500, Control_c, 3, 11, 103
5, 386690, Control_c, 3, 11, 104
5, 386880, Control_c, 3, 11, 105
5, 387080, Control_c, 3, 11, 106
5, 387270, Control_c, 3, 11, 107
5, 387460, Control_c, 3, 11, 108
5, 387650, Control_c, 3, 11, 109
5, 387750, Note_on_c, 3, 41, 0
5, 387750, Note_on_c, 3, 59, 0
5, 387840, Note_on_c, 3, 39, 80
5, 387840, Note_on_c, 3, 60, 80
5, 387840, Control_c, 3, 11, 110
5, 387900, Control_c, 3, 11, 109
5, 387960, Control_c, 3, 11, 108
5, 388020, Control_c, 3, 11, 107
5, 388080, Control_c, 3, 11, 106
5, 388140, Control_c, 3, 11, 105
5, 388200, Control_c, 3, 11, 104
5, 388260, Control_c, 3, 11, 103
5, 388290, Note_on_c, 3, 39, 0
5, 388320, Control_c, 3, 11, 102
5, 388380, Control_c, 3, 11, 101
5, 388440, Control_c, 3, 11, 100
5, 388500, Control_c, 3, 11, 99
5, 388560, Control_c, 3, 11, 98
5, 388620, Control_c, 3, 11, 97
5, 388680, Control_c, 3, 11, 96
5, 388740, Control_c, 3, 11, 95
5, 388800, Control_c, 3, 11, 94
5, 388860, Control_c, 3, 11, 93
5, 388920, Control_c, 3, 11, 92
5, 388980, Control_c, 3, 11, 91
5, 389040, Control_c, 3, 11, 90
5, 389100, Control_c, 3, 11, 89
5, 389160, Control_c, 3, 11, 88
5, 389220, Control_c, 3, 11, 87
5, 389280, Note_on_c, 3, 58, 80
5, 389280, Control_c, 3, 11, 86
5, 389310, Note_on_c, 3, 60, 0
5, 389340, Control_c, 3, 11, 85
5, 389400, Control_c, 3, 11, 84
5, 389460, Control_c, 3, 11, 83
5, 389520, Control_c, 3, 11, 82
5, 389580, Control_c, 3, 11, 81
5, 389640, Control_c, 3, 11, 80
5, 389730, Note_on_c, 3, 58, 0
5, 389760, Note_on_c, 3, 58, 80
5, 390240, Note_on_c, 3, 56, 80
5, 390270, Note_on_c, 3, 58, 0
5, 391200, Note_on_c, 3, 55, 80
5, 391230, Note_on_c, 3, 56, 0
5, 391650, Note_on_c, 3, 55, 0
5, 391680, Note_on_c, 3, 67, 80
5, 392160, Note_on_c, 3, 65, 80
5, 392190, Note_on_c, 3, 67, 0
5, 393120, Note_on_c, 3, 63, 80
5, 393150, Note_on_c, 3, 65, 0
5, 393570, Note_on_c, 3, 63, 0
5, 393600, Note_on_c, 3, 63, 80
5, 394080, Note_on_c, 3, 62, 80
5, 394110, Note_on_c, 3, 63, 0
5, 394560, Note_on_c, 3, 63, 80
5, 394590, Note_on_c, 3, 62, 0
5, 395040, Note_on_c, 3, 60, 80
5, 395070, Note_on_c, 3, 63, 0
5, 395490, Note_on_c, 3, 60, 0
5, 395520, Note_on_c, 3, 59, 80
5, 395970, Note_on_c, 3, 59, 0
5, 396240, Note_on_c, 3, 59, 80
5, 396240, Note_on_c, 3, 62, 80
5, 396390, Note_on_c, 3, 59, 0
5, 396390, Note_on_c, 3, 62, 0
5, 396480, Note_on_c, 3, 59, 80
5, 396480, Note_on_c, 3, 62, 80
5, 397110, Note_on_c, 3, 59, 0
5, 397110, Note_on_c, 3, 62, 0
5, 397200, Note_on_c, 3, 59, 80
5, 397200, Note_on_c, 3, 62, 80
5, 397350, Note_on_c, 3, 59, 0
5, 397350, Note_on_c, 3, 62, 0
5, 398160, Note_on_c, 3, 59, 80
5, 398160, Note_on_c, 3, 62, 80
5, 398310, Note_on_c, 3, 59, 0
5, 398310, Note_on_c, 3, 62, 0
5, 398400, Note_on_c, 3, 59, 80
5, 398400, Note_on_c, 3, 62, 80
5, 399030, Note_on_c, 3, 59, 0
5, 399030, Note_on_c, 3, 62, 0
5, 399120, Note_on_c, 3, 59, 80
5, 399120, Note_on_c, 3, 62, 80
5, 399270, Note_on_c, 3, 59, 0
5, 399270, Note_on_c, 3, 62, 0
5, 399360, Control_c, 3, 11, 80
5, 399610, Control_c, 3, 11, 81
5, 399860, Control_c, 3, 11, 82
5, 400080, Note_on_c, 3, 60, 80
5, 400080, Note_on_c, 3, 63, 80
5, 400110, Control_c, 3, 11, 83
5, 400230, Note_on_c, 3, 60, 0
5, 400230, Note_on_c, 3, 63, 0
5, 400320, Note_on_c, 3, 60, 80
5, 400320, Note_on_c, 3, 63, 80
5, 400360, Control_c, 3, 11, 84
5, 400600, Control_c, 3, 11, 85
5, 400850, Control_c, 3, 11, 86
5, 400950, Note_on_c, 3, 60, 0
5, 400950, Note_on_c, 3, 63, 0
5, 401040, Note_on_c, 3, 60, 80
5, 401040, Note_on_c, 3, 63, 80
5, 401100, Control_c, 3, 11, 87
5, 401190, Note_on_c, 3, 60, 0
5, 401190, Note_on_c, 3, 63, 0
5, 401350, Control_c, 3, 11, 88
5, 401590, Control_c, 3, 11, 89
5, 401840, Control_c, 3, 11, 90
5, 402000, Note_on_c, 3, 60, 80
5, 402000, Note_on_c, 3, 63, 80
5, 402090, Control_c, 3, 11, 91
5, 402150, Note_on_c, 3, 60, 0
5, 402150, Note_on_c, 3, 63, 0
5, 402240, Note_on_c, 3, 60, 80
5, 402240, Note_on_c, 3, 63, 80
5, 402340, Control_c, 3, 11, 92
5, 402590, Control_c, 3, 11, 93
5, 402830, Control_c, 3, 11, 94
5, 402870, Note_on_c, 3, 60, 0
5, 402870, Note_on_c, 3, 63, 0
5, 402960, Note_on_c, 3, 60, 80
5, 402960, Note_on_c, 3, 63, 80
5, 403080, Control_c, 3, 11, 95
5, 403110, Note_on_c, 3, 60, 0
5, 403110, Note_on_c, 3, 63, 0
5, 403330, Control_c, 3, 11, 96
5, 403580, Control_c, 3, 11, 97
5, 403820, Control_c, 3, 11, 98
5, 403920, Note_on_c, 3, 62, 80
5, 403920, Note_on_c, 3, 65, 80
5, 404070, Note_on_c, 3, 62, 0
5, 404070, Note_on_c, 3, 65, 0
5, 404070, Control_c, 3, 11, 99
5, 404160, Note_on_c, 3, 62, 80
5, 404160, Note_on_c, 3, 65, 80
5, 404320, Control_c, 3, 11, 100
5, 404570, Control_c, 3, 11, 101
5, 404790, Note_on_c, 3, 62, 0
5, 404790, Note_on_c, 3, 65, 0
5, 404820, Control_c, 3, 11, 102
5, 404880, Note_on_c, 3, 62, 80
5, 404880, Note_on_c, 3, 65, 80
5, 405030, Note_on_c, 3, 62, 0
5, 405030, Note_on_c, 3, 65, 0
5, 405060, Control_c, 3, 11, 103
5, 405310, Control_c, 3, 11, 104
5, 405560, Control_c, 3, 11, 105
5, 405810, Control_c, 3, 11, 106
5, 405840, Note_on_c, 3, 63, 80
5, 405840, Note_on_c, 3, 67, 80
5, 405990, Note_on_c, 3, 63, 0
5, 405990, Note_on_c, 3, 67, 0
5, 406050, Control_c, 3, 11, 107
5, 406080, Note_on_c, 3, 63, 80
5, 406080, Note_on_c, 3, 67, 80
5, 406300, Control_c, 3, 11, 108
5, 406550, Control_c, 3, 11, 109
5, 406710, Note_on_c, 3, 63, 0
5, 406710, Note_on_c, 3, 67, 0
5, 406797, Control_c, 3, 11, 110
5, 406800, Note_on_c, 3, 63, 80
5, 406800, Note_on_c, 3, 67, 80
5, 406950, Note_on_c, 3, 63, 0
5, 406950, Note_on_c, 3, 67, 0
5, 407037, Control_c, 3, 11, 80
5, 407040, Note_on_c, 3, 53, 90
5, 407040, Note_on_c, 3, 65, 90
5, 408480, Note_on_c, 3, 51, 90
5, 408480, Note_on_c, 3, 63, 90
5, 408510, Note_on_c, 3, 53, 0
5, 408510, Note_on_c, 3, 65, 0
5, 408930, Note_on_c, 3, 51, 0
5, 408930, Note_on_c, 3, 63, 0
5, 408960, Note_on_c, 3, 50, 90
5, 408960, Note_on_c, 3, 62, 90
5, 409440, Note_on_c, 3, 48, 90
5, 409440, Note_on_c, 3, 60, 90
5, 409470, Note_on_c, 3, 50, 0
5, 409470, Note_on_c, 3, 62, 0
5, 409920, Note_on_c, 3, 50, 90
5, 409920, Note_on_c, 3, 62, 90
5, 409950, Note_on_c, 3, 48, 0
5, 409950, Note_on_c, 3, 60, 0
5, 410400, Note_on_c, 3, 48, 90
5, 410400, Note_on_c, 3, 60, 90
5, 410430, Note_on_c, 3, 50, 0
5, 410430, Note_on_c, 3, 62, 0
5, 410730, Note_on_c, 3, 48, 0
5, 410730, Note_on_c, 3, 60, 0
5, 410880, Note_on_c, 3, 53, 90
5, 410880, Note_on_c, 3, 65, 90
5, 412320, Note_on_c, 3, 51, 90
5, 412320, Note_on_c, 3, 63, 90
5, 412350, Note_on_c, 3, 53, 0
5, 412350, Note_on_c, 3, 65, 0
5, 412770, Note_on_c, 3, 51, 0
5, 412770, Note_on_c, 3, 63, 0
5, 412800, Note_on_c, 3, 50, 90
5, 412800, Note_on_c, 3, 62, 90
5, 413280, Note_on_c, 3, 48, 90
5, 413280, Note_on_c, 3, 60, 90
5, 413310, Note_on_c, 3, 50, 0
5, 413310, Note_on_c, 3, 62, 0
5, 413760, Note_on_c, 3, 50, 90
5, 413760, Note_on_c, 3, 62, 90
5, 413790, Note_on_c, 3, 48, 0
5, 413790, Note_on_c, 3, 60, 0
5, 414240, Note_on_c, 3, 48, 90
5, 414240, Note_on_c, 3, 60, 90
5, 414270, Note_on_c, 3, 50, 0
5, 414270, Note_on_c, 3, 62, 0
5, 414570, Note_on_c, 3, 48, 0
5, 414570, Note_on_c, 3, 60, 0
5, 414720, Note_on_c, 3, 46, 90
5, 414720, Note_on_c, 3, 58, 90
5, 416160, Note_on_c, 3, 44, 90
5, 416160, Note_on_c, 3, 56, 90
5, 416190, Note_on_c, 3, 46, 0
5, 416190, Note_on_c, 3, 58, 0
5, 416610, Note_on_c, 3, 44, 0
5, 416610, Note_on_c, 3, 56, 0
5, 416640, Note_on_c, 3, 43, 90
5, 416640, Note_on_c, 3, 55, 90
5, 417120, Note_on_c, 3, 41, 90
5, 417120, Note_on_c, 3, 53, 90
5, 417150, Note_on_c, 3, 43, 0
5, 417150, Note_on_c, 3, 55, 0
5, 417600, Note_on_c, 3, 43, 90
5, 417600, Note_on_c, 3, 55, 90
5, 417630, Note_on_c, 3, 41, 0
5, 417630, Note_on_c, 3, 53, 0
5, 418080, Note_on_c, 3, 41, 90
5, 418080, Note_on_c, 3, 53, 90
5, 418110, Note_on_c, 3, 43, 0
5, 418110, Note_on_c, 3, 55, 0
5, 418410, Note_on_c, 3, 41, 0
5, 418410, Note_on_c, 3, 53, 0
5, 418560, Note_on_c, 3, 46, 90
5, 418560, Note_on_c, 3, 58, 90
5, 420000, Note_on_c, 3, 44, 90
5, 420000, Note_on_c, 3, 56, 90
5, 420030, Note_on_c, 3, 46, 0
5, 420030, Note_on_c, 3, 58, 0
5, 420450, Note_on_c, 3, 44, 0
5, 420450, Note_on_c, 3, 56, 0
5, 420480, Note_on_c, 3, 43, 90
5, 420480, Note_on_c, 3, 55, 90
5, 420960, Note_on_c, 3, 41, 90
5, 420960, Note_on_c, 3, 53, 90
5, 420990, Note_on_c, 3, 43, 0
5, 420990, Note_on_c, 3, 55, 0
5, 421440, Note_on_c, 3, 43, 90
5, 421440, Note_on_c, 3, 55, 90
5, 421470, Note_on_c, 3, 41, 0
5, 421470, Note_on_c, 3, 53, 0
5, 421920, Note_on_c, 3, 41, 90
5, 421920, Note_on_c, 3, 53, 90
5, 421950, Note_on_c, 3, 43, 0
5, 421950, Note_on_c, 3, 55, 0
5, 422370, Note_on_c, 3, 41, 0
5, 422370, Note_on_c, 3, 53, 0
5, 422400, Note_on_c, 3, 41, 90
5, 422850, Note_on_c, 3, 41, 0
5, 423120, Note_on_c, 3, 61, 90
5, 423240, Note_on_c, 3, 61, 0
5, 423360, Note_on_c, 3, 61, 90
5, 423840, Note_on_c, 3, 63, 90
5, 423870, Note_on_c, 3, 61, 0
5, 424290, Note_on_c, 3, 63, 0
5, 424320, Note_on_c, 3, 41, 90
5, 424770, Note_on_c, 3, 41, 0
5, 425040, Note_on_c, 3, 61, 90
5, 425160, Note_on_c, 3, 61, 0
5, 425280, Note_on_c, 3, 61, 90
5, 425760, Note_on_c, 3, 63, 90
5, 425790, Note_on_c, 3, 61, 0
5, 426210, Note_on_c, 3, 63, 0
5, 426240, Note_on_c, 3, 41, 90
5, 426690, Note_on_c, 3, 41, 0
5, 426960, Note_on_c, 3, 61, 90
5, 427080, Note_on_c, 3, 61, 0
5, 427200, Note_on_c, 3, 61, 90
5, 427680, Note_on_c, 3, 63, 90
5, 427710, Note_on_c, 3, 61, 0
5, 428130, Note_on_c, 3, 63, 0
5, 428160, Note_on_c, 3, 41, 90
5, 428610, Note_on_c, 3, 41, 0
5, 428880, Note_on_c, 3, 61, 90
5, 429000, Note_on_c, 3, 61, 0
5, 429120, Note_on_c, 3, 61, 90
5, 429600, Note_on_c, 3, 63, 90
5, 429630, Note_on_c, 3, 61, 0
5, 430050, Note_on_c, 3, 63, 0
5, 430080, Note_on_c, 3, 53, 90
5, 430080, Note_on_c, 3, 61, 90
5, 431010, Note_on_c, 3, 53, 0
5, 431010, Note_on_c, 3, 61, 0
5, 431040, Note_on_c, 3, 53, 90
5, 431040, Note_on_c, 3, 59, 90
5, 431970, Note_on_c, 3, 53, 0
5, 431970, Note_on_c, 3, 59, 0
5, 432000, Note_on_c, 3, 52, 90
5, 432000, Note_on_c, 3, 60, 90
5, 432930, Note_on_c, 3, 52, 0
5, 432930, Note_on_c, 3, 60, 0
5, 432960, Note_on_c, 3, 51, 90
5, 432960, Note_on_c, 3, 57, 90
5, 433890, Note_on_c, 3, 51, 0
5, 433890, Note_on_c, 3, 57, 0
5, 433920, Note_on_c, 3, 50, 90
5, 433920, Note_on_c, 3, 59, 90
5, 434850, Note_on_c, 3, 50, 0
5, 434850, Note_on_c, 3, 59, 0
5, 434880, Note_on_c, 3, 48, 90
5, 434880, Note_on_c, 3, 60, 90
5, 435810, Note_on_c, 3, 48, 0
5, 435810, Note_on_c, 3, 60, 0
5, 435840, Note_on_c, 3, 59, 90
5, 435840, Note_on_c, 3, 62, 90
5, 436770, Note_on_c, 3, 59, 0
5, 436770, Note_on_c, 3, 62, 0
5, 436800, Note_on_c, 3, 56, 90
5, 436800, Note_on_c, 3, 60, 90
5, 437730, Note_on_c, 3, 56, 0
5, 437730, Note_on_c, 3, 60, 0
5, 437760, Note_on_c, 3, 55, 90
5, 438210, Note_on_c, 3, 55, 0
5, 438720, Note_on_c, 3, 56, 90
5, 439170, Note_on_c, 3, 56, 0
5, 439680, Note_on_c, 3, 53, 90
5, 440130, Note_on_c, 3, 53, 0
5, 440640, Note_on_c, 3, 55, 90
5, 441090, Note_on_c, 3, 55, 0
5, 441600, Note_on_c, 3, 48, 80
5, 443490, Note_on_c, 3, 48, 0
5, 443520, Note_on_c, 3, 47, 80
5, 445410, Note_on_c, 3, 47, 0
5, 445440, Note_on_c, 3, 48, 80
5, 447330, Note_on_c, 3, 48, 0
5, 447360, Note_on_c, 3, 47, 80
5, 449250, Note_on_c, 3, 47, 0
5, 449280, Note_on_c, 3, 48, 80
5, 450240, Note_on_c, 3, 46, 80
5, 450270, Note_on_c, 3, 48, 0
5, 451200, Note_on_c, 3, 44, 80
5, 451230, Note_on_c, 3, 46, 0
5, 452160, Note_on_c, 3, 43, 80
5, 452190, Note_on_c, 3, 44, 0
5, 453120, Note_on_c, 3, 41, 80
5, 453150, Note_on_c, 3, 43, 0
5, 454080, Note_on_c, 3, 51, 80
5, 454110, Note_on_c, 3, 41, 0
5, 455040, Note_on_c, 3, 50, 80
5, 455070, Note_on_c, 3, 51, 0
5, 455970, Note_on_c, 3, 50, 0
5, 456000, Note_on_c, 3, 43, 80
5, 456930, Note_on_c, 3, 43, 0
5, 456960, Note_on_c, 3, 48, 80
5, 457140, Note_on_c, 3, 48, 0
5, 457200, Note_on_c, 3, 51, 80
5, 457380, Note_on_c, 3, 51, 0
5, 457440, Note_on_c, 3, 55, 80
5, 457620, Note_on_c, 3, 55, 0
5, 457680, Note_on_c, 3, 56, 80
5, 457860, Note_on_c, 3, 56, 0
5, 457920, Note_on_c, 3, 46, 80
5, 458100, Note_on_c, 3, 46, 0
5, 458160, Note_on_c, 3, 50, 80
5, 458340, Note_on_c, 3, 50, 0
5, 458400, Note_on_c, 3, 54, 80
5, 458580, Note_on_c, 3, 54, 0
5, 458640, Note_on_c, 3, 55, 80
5, 458820, Note_on_c, 3, 55, 0
5, 458880, Note_on_c, 3, 44, 80
5, 459060, Note_on_c, 3, 44, 0
5, 459120, Note_on_c, 3, 48, 80
5, 459300, Note_on_c, 3, 48, 0
5, 459360, Note_on_c, 3, 52, 80
5, 459540, Note_on_c, 3, 52, 0
5, 459600, Note_on_c, 3, 53, 80
5, 459780, Note_on_c, 3, 53, 0
5, 459840, Note_on_c, 3, 43, 80
5, 460020, Note_on_c, 3, 43, 0
5, 460080, Note_on_c, 3, 46, 80
5, 460260, Note_on_c, 3, 46, 0
5, 460320, Note_on_c, 3, 50, 80
5, 460500, Note_on_c, 3, 50, 0
5, 460560, Note_on_c, 3, 51, 80
5, 460740, Note_on_c, 3, 51, 0
5, 460800, Note_on_c, 3, 53, 80
5, 461250, Note_on_c, 3, 53, 0
5, 476160, Note_on_c, 3, 63, 80
5, 477600, Note_on_c, 3, 65, 80
5, 477630, Note_on_c, 3, 63, 0
5, 478080, Note_on_c, 3, 63, 80
5, 478110, Note_on_c, 3, 65, 0
5, 478560, Note_on_c, 3, 62, 80
5, 478590, Note_on_c, 3, 63, 0
5, 479040, Note_on_c, 3, 59, 80
5, 479070, Note_on_c, 3, 62, 0
5, 479520, Note_on_c, 3, 55, 80
5, 479550, Note_on_c, 3, 59, 0
5, 479970, Note_on_c, 3, 55, 0
5, 480000, Note_on_c, 3, 67, 80
5, 481440, Note_on_c, 3, 68, 80
5, 481470, Note_on_c, 3, 67, 0
5, 481920, Note_on_c, 3, 67, 80
5, 481950, Note_on_c, 3, 68, 0
5, 482880, Note_on_c, 3, 65, 80
5, 482910, Note_on_c, 3, 67, 0
5, 483810, Note_on_c, 3, 65, 0
5, 483840, Note_on_c, 3, 63, 80
5, 485250, Note_on_c, 3, 63, 0
5, 485280, Note_on_c, 3, 65, 84
5, 485730, Note_on_c, 3, 65, 0
5, 485760, Note_on_c, 3, 63, 85
5, 486210, Note_on_c, 3, 63, 0
5, 486240, Note_on_c, 3, 62, 87
5, 486690, Note_on_c, 3, 62, 0
5, 486720, Note_on_c, 3, 59, 88
5, 487170, Note_on_c, 3, 59, 0
5, 487200, Note_on_c, 3, 55, 90
5, 487650, Note_on_c, 3, 55, 0
5, 489600, Note_on_c, 3, 54, 110
5, 489600, Note_on_c, 3, 60, 110
5, 491490, Note_on_c, 3, 54, 0
5, 491490, Note_on_c, 3, 60, 0
5, 491520, Note_on_c, 3, 53, 60
5, 491520, Note_on_c, 3, 61, 60
5, 493410, Note_on_c, 3, 53, 0
5, 493410, Note_on_c, 3, 61, 0
5, 493440, Note_on_c, 3, 56, 110
5, 493440, Note_on_c, 3, 62, 110
5, 495330, Note_on_c, 3, 56, 0
5, 495330, Note_on_c, 3, 62, 0
5, 495360, Note_on_c, 3, 55, 60
5, 495360, Note_on_c, 3, 63, 60
5, 497250, Note_on_c, 3, 55, 0
5, 497250, Note_on_c, 3, 63, 0
5, 497280, Note_on_c, 3, 58, 110
5, 497280, Note_on_c, 3, 64, 110
5, 499170, Note_on_c, 3, 58, 0
5, 499170, Note_on_c, 3, 64, 0
5, 499200, Note_on_c, 3, 56, 80
5, 499830, Note_on_c, 3, 56, 0
5, 499920, Note_on_c, 3, 56, 81
5, 500070, Note_on_c, 3, 56, 0
5, 500160, Note_on_c, 3, 55, 82
5, 500790, Note_on_c, 3, 55, 0
5, 500880, Note_on_c, 3, 55, 84
5, 501030, Note_on_c, 3, 55, 0
5, 501120, Note_on_c, 3, 53, 85
5, 501750, Note_on_c, 3, 53, 0
5, 501840, Note_on_c, 3, 53, 86
5, 501990, Note_on_c, 3, 53, 0
5, 502080, Note_on_c, 3, 51, 87
5, 502710, Note_on_c, 3, 51, 0
5, 502800, Note_on_c, 3, 51, 89
5, 502950, Note_on_c, 3, 51, 0
5, 503040, Note_on_c, 3, 56, 90
5, 503670, Note_on_c, 3, 56, 0
5, 503760, Note_on_c, 3, 56, 91
5, 503910, Note_on_c, 3, 56, 0
5, 504000, Note_on_c, 3, 55, 92
5, 504630, Note_on_c, 3, 55, 0
5, 504720, Note_on_c, 3, 55, 94
5, 504870, Note_on_c, 3, 55, 0
5, 504960, Note_on_c, 3, 53, 95
5, 505590, Note_on_c, 3, 53, 0
5, 505680, Note_on_c, 3, 53, 96
5, 505830, Note_on_c, 3, 53, 0
5, 505920, Note_on_c, 3, 51, 97
5, 506550, Note_on_c, 3, 51, 0
5, 506640, Note_on_c, 3, 51, 99
5, 506790, Note_on_c, 3, 51, 0
5, 506880, Note_on_c, 3, 53, 100
5, 507510, Note_on_c, 3, 53, 0
5, 507600, Note_on_c, 3, 53, 100
5, 507600, Note_on_c, 3, 56, 100
5, 507750, Note_on_c, 3, 53, 0
5, 507750, Note_on_c, 3, 56, 0
5, 507840, Note_on_c, 3, 53, 100
5, 507840, Note_on_c, 3, 56, 100
5, 508770, Note_on_c, 3, 53, 0
5, 508770, Note_on_c, 3, 56, 0
5, 509520, Note_on_c, 3, 53, 100
5, 509520, Note_on_c, 3, 56, 100
5, 509670, Note_on_c, 3, 53, 0
5, 509670, Note_on_c, 3, 56, 0
5, 509760, Note_on_c, 3, 53, 100
5, 509760, Note_on_c, 3, 56, 100
5, 510690, Note_on_c, 3, 53, 0
5, 510690, Note_on_c, 3, 56, 0
5, 511440, Note_on_c, 3, 55, 100
5, 511440, Note_on_c, 3, 58, 100
5, 511590, Note_on_c, 3, 55, 0
5, 511590, Note_on_c, 3, 58, 0
5, 511680, Note_on_c, 3, 55, 100
5, 511680, Note_on_c, 3, 58, 100
5, 512610, Note_on_c, 3, 55, 0
5, 512610, Note_on_c, 3, 58, 0
5, 513360, Note_on_c, 3, 55, 100
5, 513360, Note_on_c, 3, 58, 100
5, 513510, Note_on_c, 3, 55, 0
5, 513510, Note_on_c, 3, 58, 0
5, 513600, Note_on_c, 3, 55, 100
5, 513600, Note_on_c, 3, 58, 100
5, 514530, Note_on_c, 3, 55, 0
5, 514530, Note_on_c, 3, 58, 0
5, 515280, Note_on_c, 3, 56, 100
5, 515280, Note_on_c, 3, 60, 100
5, 515430, Note_on_c, 3, 56, 0
5, 515430, Note_on_c, 3, 60, 0
5, 515520, Note_on_c, 3, 56, 100
5, 515520, Note_on_c, 3, 60, 100
5, 516450, Note_on_c, 3, 56, 0
5, 516450, Note_on_c, 3, 60, 0
5, 517200, Note_on_c, 3, 59, 100
5, 517200, Note_on_c, 3, 62, 100
5, 517350, Note_on_c, 3, 59, 0
5, 517350, Note_on_c, 3, 62, 0
5, 517440, Note_on_c, 3, 59, 100
5, 517440, Note_on_c, 3, 62, 100
5, 518370, Note_on_c, 3, 59, 0
5, 518370, Note_on_c, 3, 62, 0
5, 518400, Note_on_c, 3, 48, 100
5, 518550, Note_on_c, 3, 48, 0
5, 518640, Note_on_c, 3, 47, 100
5, 518790, Note_on_c, 3, 47, 0
5, 518880, Note_on_c, 3, 48, 100
5, 519030, Note_on_c, 3, 48, 0
5, 519120, Note_on_c, 3, 50, 100
5, 519270, Note_on_c, 3, 50, 0
5, 519360, Note_on_c, 3, 51, 100
5, 519510, Note_on_c, 3, 51, 0
5, 519600, Note_on_c, 3, 50, 100
5, 519750, Note_on_c, 3, 50, 0
5, 519840, Note_on_c, 3, 51, 100
5, 519990, Note_on_c, 3, 51, 0
5, 520080, Note_on_c, 3, 48, 100
5, 520230, Note_on_c, 3, 48, 0
5, 520320, Note_on_c, 3, 47, 100
5, 520470, Note_on_c, 3, 47, 0
5, 520560, Note_on_c, 3, 48, 100
5, 520710, Note_on_c, 3, 48, 0
5, 520800, Note_on_c, 3, 50, 100
5, 520950, Note_on_c, 3, 50, 0
5, 521040, Note_on_c, 3, 48, 100
5, 521190, Note_on_c, 3, 48, 0
5, 521280, Note_on_c, 3, 47, 100
5, 521430, Note_on_c, 3, 47, 0
5, 521520, Note_on_c, 3, 48, 100
5, 521670, Note_on_c, 3, 48, 0
5, 521760, Note_on_c, 3, 47, 100
5, 521910, Note_on_c, 3, 47, 0
5, 522000, Note_on_c, 3, 43, 100
5, 522150, Note_on_c, 3, 43, 0
5, 522240, Note_on_c, 3, 48, 100
5, 522390, Note_on_c, 3, 48, 0
5, 522480, Note_on_c, 3, 47, 100
5, 522630, Note_on_c, 3, 47, 0
5, 522720, Note_on_c, 3, 48, 100
5, 522870, Note_on_c, 3, 48, 0
5, 522960, Note_on_c, 3, 50, 100
5, 523110, Note_on_c, 3, 50, 0
5, 523200, Note_on_c, 3, 51, 100
5, 523350, Note_on_c, 3, 51, 0
5, 523440, Note_on_c, 3, 50, 100
5, 523590, Note_on_c, 3, 50, 0
5, 523680, Note_on_c, 3, 51, 100
5, 523830, Note_on_c, 3, 51, 0
5, 523920, Note_on_c, 3, 48, 100
5, 524070, Note_on_c, 3, 48, 0
5, 524160, Note_on_c, 3, 47, 100
5, 524310, Note_on_c, 3, 47, 0
5, 524400, Note_on_c, 3, 48, 100
5, 524550, Note_on_c, 3, 48, 0
5, 524640, Note_on_c, 3, 50, 100
5, 524790, Note_on_c, 3, 50, 0
5, 524880, Note_on_c, 3, 48, 100
5, 525030, Note_on_c, 3, 48, 0
5, 525120, Note_on_c, 3, 47, 100
5, 525270, Note_on_c, 3, 47, 0
5, 525360, Note_on_c, 3, 48, 100
5, 525510, Note_on_c, 3, 48, 0
5, 525600, Note_on_c, 3, 47, 100
5, 525750, Note_on_c, 3, 47, 0
5, 525840, Note_on_c, 3, 43, 100
5, 525990, Note_on_c, 3, 43, 0
5, 526080, Note_on_c, 3, 48, 100
5, 526230, Note_on_c, 3, 48, 0
5, 526320, Note_on_c, 3, 47, 100
5, 526470, Note_on_c, 3, 47, 0
5, 526560, Note_on_c, 3, 48, 100
5, 526710, Note_on_c, 3, 48, 0
5, 526800, Note_on_c, 3, 43, 100
5, 526950, Note_on_c, 3, 43, 0
5, 527040, Note_on_c, 3, 48, 100
5, 527190, Note_on_c, 3, 48, 0
5, 527280, Note_on_c, 3, 47, 100
5, 527430, Note_on_c, 3, 47, 0
5, 527520, Note_on_c, 3, 48, 100
5, 527670, Note_on_c, 3, 48, 0
5, 527760, Note_on_c, 3, 43, 100
5, 527910, Note_on_c, 3, 43, 0
5, 528000, Note_on_c, 3, 48, 100
5, 528150, Note_on_c, 3, 48, 0
5, 528240, Note_on_c, 3, 47, 100
5, 528390, Note_on_c, 3, 47, 0
5, 528480, Note_on_c, 3, 48, 100
5, 528630, Note_on_c, 3, 48, 0
5, 528720, Note_on_c, 3, 43, 100
5, 528870, Note_on_c, 3, 43, 0
5, 528960, Note_on_c, 3, 48, 100
5, 529110, Note_on_c, 3, 48, 0
5, 529200, Note_on_c, 3, 47, 100
5, 529350, Note_on_c, 3, 47, 0
5, 529440, Note_on_c, 3, 48, 100
5, 529590, Note_on_c, 3, 48, 0
5, 529680, Note_on_c, 3, 43, 100
5, 529830, Note_on_c, 3, 43, 0
5, 529920, Note_on_c, 3, 48, 80
5, 533490, Note_on_c, 3, 48, 0
5, 533760, Note_on_c, 3, 41, 100
5, 533760, Note_on_c, 3, 53, 100
5, 533970, Note_on_c, 3, 41, 0
5, 533970, Note_on_c, 3, 53, 0
5, 537600, Note_on_c, 3, 48, 80
5, 541170, Note_on_c, 3, 48, 0
5, 541440, Note_on_c, 3, 41, 100
5, 541440, Note_on_c, 3, 53, 100
5, 541650, Note_on_c, 3, 41, 0
5, 541650, Note_on_c, 3, 53, 0
5, 545280, Note_on_c, 3, 48, 80
5, 548850, Note_on_c, 3, 48, 0
5, 549120, Note_on_c, 3, 60, 100
5, 549120, Note_on_c, 3, 63, 100
5, 549330, Note_on_c, 3, 60, 0
5, 549330, Note_on_c, 3, 63, 0
5, 549600, Note_on_c, 3, 59, 100
5, 549600, Note_on_c, 3, 62, 100
5, 549840, Note_on_c, 3, 59, 0
5, 549840, Note_on_c, 3, 62, 0
5, 552960, Note_on_c, 3, 51, 80
5, 552960, Note_on_c, 3, 55, 80
5, 553170, Note_on_c, 3, 51, 0
5, 553170, Note_on_c, 3, 55, 0
5, 553440, Note_on_c, 3, 52, 80
5, 553440, Note_on_c, 3, 55, 80
5, 553650, Note_on_c, 3, 52, 0
5, 553650, Note_on_c, 3, 55, 0
5, 554880, Note_on_c, 3, 53, 80
5, 554880, Note_on_c, 3, 56, 80
5, 555090, Note_on_c, 3, 53, 0
5, 555090, Note_on_c, 3, 56, 0
5, 555360, Note_on_c, 3, 55, 80
5, 555360, Note_on_c, 3, 58, 80
5, 555570, Note_on_c, 3, 55, 0
5, 555570, Note_on_c, 3, 58, 0
5, 556800, Note_on_c, 3, 56, 75
5, 556800, Note_on_c, 3, 60, 75
5, 557160, Note_on_c, 3, 56, 0
5, 557160, Note_on_c, 3, 60, 0
5, 557760, Note_on_c, 3, 59, 73
5, 557760, Note_on_c, 3, 62, 73
5, 558120, Note_on_c, 3, 59, 0
5, 558120, Note_on_c, 3, 62, 0
5, 560640, Note_on_c, 3, 48, 65
5, 561060, Note_on_c, 3, 48, 0
5, 564480, Note_on_c, 3, 43, 30
5, 564870, Note_on_c, 3, 43, 0
5, 568320, Note_on_c, 3, 48, 50
5, 568680, Note_on_c, 3, 48, 0
5, 571680, Note_on_c, 3, 43, 60
5, 589440, Control_c, 3, 11, 80
5, 589630, Control_c, 3, 11, 79
5, 589820, Control_c, 3, 11, 78
5, 590000, Control_c, 3, 11, 77
5, 590190, Control_c, 3, 11, 76
5, 590370, Control_c, 3, 11, 75
5, 590560, Control_c, 3, 11, 74
5, 590750, Control_c, 3, 11, 73
5, 590930, Control_c, 3, 11, 72
5, 591120, Control_c, 3, 11, 71
5, 591300, Control_c, 3, 11, 70
5, 591490, Control_c, 3, 11, 69
5, 591670, Control_c, 3, 11, 68
5, 591860, Control_c, 3, 11, 67
5, 592050, Control_c, 3, 11, 66
5, 592230, Control_c, 3, 11, 65
5, 592420, Control_c, 3, 11, 64
5, 592600, Control_c, 3, 11, 63
5, 592790, Control_c, 3, 11, 62
5, 592980, Control_c, 3, 11, 61
5, 593160, Control_c, 3, 11, 60
5, 593350, Control_c, 3, 11, 59
5, 593530, Control_c, 3, 11, 58
5, 593720, Control_c, 3, 11, 57
5, 593900, Control_c, 3, 11, 56
5, 594090, Control_c, 3, 11, 55
5, 594280, Control_c, 3, 11, 54
5, 594460, Control_c, 3, 11, 53
5, 594650, Control_c, 3, 11, 52
5, 594830, Control_c, 3, 11, 51
5, 595020, Control_c, 3, 11, 50
5, 595110, Note_on_c, 3, 43, 0
5, 595200, Note_on_c, 3, 48, 40
5, 595350, Note_on_c, 3, 48, 0
5, 595350, End_track
6, 0, Start_track
6, 0, Channel_prefix, 4
6, 0, Title_t, "Horn    "
6, 0, Instrument_name_t, "Corni in Eb"
6, 5760, Note_on_c, 4, 65, 120
6, 5760, Note_on_c, 4, 68, 120
6, 5910, Note_on_c, 4, 65, 0
6, 5910, Note_on_c, 4, 68, 0
6, 13440, Note_on_c, 4, 65, 120
6, 13440, Note_on_c, 4, 68, 120
6, 13590, Note_on_c, 4, 65, 0
6, 13590, Note_on_c, 4, 68, 0
6, 21120, Note_on_c, 4, 63, 120
6, 21270, Note_on_c, 4, 63, 0
6, 24960, Note_on_c, 4, 55, 110
6, 24960, Note_on_c, 4, 67, 110
6, 25170, Note_on_c, 4, 55, 0
6, 25170, Note_on_c, 4, 67, 0
6, 26880, Note_on_c, 4, 55, 110
6, 26880, Note_on_c, 4, 67, 110
6, 27120, Note_on_c, 4, 55, 0
6, 27120, Note_on_c, 4, 67, 0
6, 39840, Note_on_c, 4, 55, 110
6, 39840, Note_on_c, 4, 67, 110
6, 40170, Note_on_c, 4, 55, 0
6, 40170, Note_on_c, 4, 67, 0
6, 52320, Note_on_c, 4, 58, 110
6, 52320, Note_on_c, 4, 70, 110
6, 52650, Note_on_c, 4, 58, 0
6, 52650, Note_on_c, 4, 70, 0
6, 57600, Control_c, 4, 11, 95
6, 57840, Note_on_c, 4, 68, 110
6, 57840, Control_c, 4, 11, 96
6, 57960, Note_on_c, 4, 68, 0
6, 58080, Note_on_c, 4, 68, 111
6, 58080, Control_c, 4, 11, 97
6, 58320, Control_c, 4, 11, 98
6, 58560, Control_c, 4, 11, 99
6, 58800, Control_c, 4, 11, 100
6, 59040, Note_on_c, 4, 67, 115
6, 59040, Note_on_c, 4, 68, 0
6, 59040, Control_c, 4, 11, 101
6, 59280, Control_c, 4, 11, 102
6, 59490, Note_on_c, 4, 67, 0
6, 59520, Control_c, 4, 11, 103
6, 59760, Note_on_c, 4, 68, 121
6, 59760, Control_c, 4, 11, 104
6, 59910, Note_on_c, 4, 68, 0
6, 60000, Note_on_c, 4, 68, 122
6, 60000, Control_c, 4, 11, 105
6, 60240, Control_c, 4, 11, 106
6, 60480, Control_c, 4, 11, 107
6, 60720, Control_c, 4, 11, 108
6, 60960, Note_on_c, 4, 67, 126
6, 60960, Note_on_c, 4, 68, 0
6, 60960, Control_c, 4, 11, 109
6, 61200, Control_c, 4, 11, 110
6, 61440, Note_on_c, 4, 67, 0
6, 61440, Note_on_c, 4, 68, 127
6, 61440, Control_c, 4, 11, 111
6, 61680, Control_c, 4, 11, 112
6, 61920, Control_c, 4, 11, 113
6, 62160, Note_on_c, 4, 67, 127
6, 62160, Note_on_c, 4, 68, 0
6, 62160, Control_c, 4, 11, 114
6, 62400, Note_on_c, 4, 67, 0
6, 62400, Note_on_c, 4, 68, 127
6, 62400, Control_c, 4, 11, 115
6, 62640, Control_c, 4, 11, 116
6, 62880, Control_c, 4, 11, 117
6, 63120, Note_on_c, 4, 67, 127
6, 63120, Note_on_c, 4, 68, 0
6, 63120, Control_c, 4, 11, 118
6, 63360, Note_on_c, 4, 67, 0
6, 63360, Note_on_c, 4, 68, 127
6, 63360, Control_c, 4, 11, 119
6, 63600, Control_c, 4, 11, 120
6, 63840, Control_c, 4, 11, 121
6, 64080, Note_on_c, 4, 67, 127
6, 64080, Note_on_c, 4, 68, 0
6, 64080, Control_c, 4, 11, 122
6, 64320, Note_on_c, 4, 67, 0
6, 64320, Note_on_c, 4, 68, 127
6, 64320, Control_c, 4, 11, 123
6, 64560, Control_c, 4, 11, 124
6, 64800, Control_c, 4, 11, 125
6, 65040, Note_on_c, 4, 67, 127
6, 65040, Note_on_c, 4, 68, 0
6, 65040, Control_c, 4, 11, 126
6, 65250, Note_on_c, 4, 67, 0
6, 65250, Control_c, 4, 11, 127
6, 65280, Note_on_c, 4, 65, 100
6, 65280, Note_on_c, 4, 68, 100
6, 67680, Note_on_c, 4, 67, 100
6, 67710, Note_on_c, 4, 65, 0
6, 67710, Note_on_c, 4, 68, 0
6, 68160, Note_on_c, 4, 65, 100
6, 68160, Note_on_c, 4, 68, 100
6, 68190, Note_on_c, 4, 67, 0
6, 68640, Note_on_c, 4, 63, 100
6, 68640, Note_on_c, 4, 67, 100
6, 68670, Note_on_c, 4, 65, 0
6, 68670, Note_on_c, 4, 68, 0
6, 69090, Note_on_c, 4, 63, 0
6, 69090, Note_on_c, 4, 67, 0
6, 69120, Note_on_c, 4, 65, 100
6, 69120, Note_on_c, 4, 67, 100
6, 69810, Note_on_c, 4, 65, 0
6, 69810, Note_on_c, 4, 67, 0
6, 70080, Note_on_c, 4, 63, 100
6, 70080, Note_on_c, 4, 67, 100
6, 70770, Note_on_c, 4, 63, 0
6, 70770, Note_on_c, 4, 67, 0
6, 71040, Note_on_c, 4, 55, 100
6, 71040, Note_on_c, 4, 67, 100
6, 71730, Note_on_c, 4, 55, 0
6, 71730, Note_on_c, 4, 67, 0
6, 72000, Note_on_c, 4, 55, 100
6, 72000, Note_on_c, 4, 67, 100
6, 72690, Note_on_c, 4, 55, 0
6, 72690, Note_on_c, 4, 67, 0
6, 72960, Note_on_c, 4, 67, 100
6, 73650, Note_on_c, 4, 67, 0
6, 73920, Note_on_c, 4, 65, 100
6, 74610, Note_on_c, 4, 65, 0
6, 74880, Note_on_c, 4, 58, 100
6, 74880, Note_on_c, 4, 70, 100
6, 75570, Note_on_c, 4, 58, 0
6, 75570, Note_on_c, 4, 70, 0
6, 75840, Note_on_c, 4, 65, 100
6, 75840, Note_on_c, 4, 68, 100
6, 76530, Note_on_c, 4, 65, 0
6, 76530, Note_on_c, 4, 68, 0
6, 76800, Note_on_c, 4, 63, 127
6, 77760, Note_on_c, 4, 63, 0
6, 78720, Note_on_c, 4, 63, 127
6, 79680, Note_on_c, 4, 63, 0
6, 84480, Note_on_c, 4, 67, 127
6, 86370, Note_on_c, 4, 67, 0
6, 86400, Note_on_c, 4, 51, 127
6, 86400, Note_on_c, 4, 63, 127
6, 88290, Note_on_c, 4, 51, 0
6, 88290, Note_on_c, 4, 63, 0
6, 88320, Note_on_c, 4, 46, 127
6, 88320, Note_on_c, 4, 58, 127
6, 89730, Note_on_c, 4, 46, 0
6, 89730, Note_on_c, 4, 58, 0
6, 89760, Note_on_c, 4, 46, 127
6, 89760, Note_on_c, 4, 58, 127
6, 90210, Note_on_c, 4, 46, 0
6, 90210, Note_on_c, 4, 58, 0
6, 90240, Note_on_c, 4, 46, 127
6, 90240, Note_on_c, 4, 58, 127
6, 91650, Note_on_c, 4, 46, 0
6, 91650, Note_on_c, 4, 58, 0
6, 91680, Note_on_c, 4, 46, 127
6, 91680, Note_on_c, 4, 58, 127
6, 92130, Note_on_c, 4, 46, 0
6, 92130, Note_on_c, 4, 58, 0
6, 92160, Note_on_c, 4, 46, 127
6, 92160, Note_on_c, 4, 58, 127
6, 93570, Note_on_c, 4, 46, 0
6, 93570, Note_on_c, 4, 58, 0
6, 93600, Note_on_c, 4, 46, 127
6, 93600, Note_on_c, 4, 58, 127
6, 94050, Note_on_c, 4, 46, 0
6, 94050, Note_on_c, 4, 58, 0
6, 94080, Note_on_c, 4, 46, 127
6, 94080, Note_on_c, 4, 58, 127
6, 95490, Note_on_c, 4, 46, 0
6, 95490, Note_on_c, 4, 58, 0
6, 95520, Note_on_c, 4, 46, 127
6, 95520, Note_on_c, 4, 58, 127
6, 95970, Note_on_c, 4, 46, 0
6, 95970, Note_on_c, 4, 58, 0
6, 96000, Note_on_c, 4, 46, 127
6, 96000, Note_on_c, 4, 58, 127
6, 96480, Note_on_c, 4, 46, 0
6, 96480, Note_on_c, 4, 58, 0
6, 99840, Note_on_c, 4, 46, 70
6, 99840, Note_on_c, 4, 58, 70
6, 107520, Control_c, 4, 11, 80
6, 108290, Control_c, 4, 11, 81
6, 109060, Control_c, 4, 11, 82
6, 109830, Control_c, 4, 11, 83
6, 110600, Control_c, 4, 11, 84
6, 111360, Control_c, 4, 11, 85
6, 112130, Control_c, 4, 11, 86
6, 112900, Control_c, 4, 11, 87
6, 113670, Control_c, 4, 11, 88
6, 114440, Control_c, 4, 11, 89
6, 115200, Control_c, 4, 11, 90
6, 115550, Control_c, 4, 11, 91
6, 115900, Control_c, 4, 11, 92
6, 116250, Control_c, 4, 11, 93
6, 116600, Control_c, 4, 11, 94
6, 116950, Control_c, 4, 11, 95
6, 117300, Control_c, 4, 11, 96
6, 117650, Control_c, 4, 11, 97
6, 118000, Control_c, 4, 11, 98
6, 118350, Control_c, 4, 11, 99
6, 118700, Control_c, 4, 11, 100
6, 119010, Note_on_c, 4, 46, 0
6, 119010, Note_on_c, 4, 58, 0
6, 119040, Note_on_c, 4, 46, 70
6, 119040, Note_on_c, 4, 58, 70
6, 119970, Note_on_c, 4, 46, 0
6, 119970, Note_on_c, 4, 58, 0
6, 120000, Note_on_c, 4, 65, 70
6, 120930, Note_on_c, 4, 65, 0
6, 120960, Note_on_c, 4, 67, 70
6, 122877, Control_c, 4, 11, 80
6, 122880, Note_on_c, 4, 67, 0
6, 161280, Note_on_c, 4, 63, 100
6, 162690, Note_on_c, 4, 63, 0
6, 162720, Note_on_c, 4, 55, 100
6, 162720, Note_on_c, 4, 67, 100
6, 163170, Note_on_c, 4, 55, 0
6, 163170, Note_on_c, 4, 67, 0
6, 163680, Note_on_c, 4, 55, 100
6, 163680, Note_on_c, 4, 67, 100
6, 164130, Note_on_c, 4, 55, 0
6, 164130, Note_on_c, 4, 67, 0
6, 164640, Note_on_c, 4, 55, 100
6, 164640, Note_on_c, 4, 67, 100
6, 165090, Note_on_c, 4, 55, 0
6, 165090, Note_on_c, 4, 67, 0
6, 165120, Note_on_c, 4, 63, 100
6, 166530, Note_on_c, 4, 63, 0
6, 166560, Note_on_c, 4, 55, 100
6, 166560, Note_on_c, 4, 67, 100
6, 167010, Note_on_c, 4, 55, 0
6, 167010, Note_on_c, 4, 67, 0
6, 167520, Note_on_c, 4, 55, 100
6, 167520, Note_on_c, 4, 67, 100
6, 167970, Note_on_c, 4, 55, 0
6, 167970, Note_on_c, 4, 67, 0
6, 168480, Note_on_c, 4, 55, 100
6, 168480, Note_on_c, 4, 67, 100
6, 168930, Note_on_c, 4, 55, 0
6, 168930, Note_on_c, 4, 67, 0
6, 168960, Note_on_c, 4, 65, 100
6, 168960, Note_on_c, 4, 68, 100
6, 170370, Note_on_c, 4, 65, 0
6, 170370, Note_on_c, 4, 68, 0
6, 170400, Note_on_c, 4, 63, 100
6, 170400, Note_on_c, 4, 67, 100
6, 170850, Note_on_c, 4, 63, 0
6, 170850, Note_on_c, 4, 67, 0
6, 170880, Note_on_c, 4, 65, 100
6, 170880, Note_on_c, 4, 67, 100
6, 171330, Note_on_c, 4, 65, 0
6, 171330, Note_on_c, 4, 67, 0
6, 171360, Note_on_c, 4, 63, 100
6, 171360, Note_on_c, 4, 67, 100
6, 171810, Note_on_c, 4, 63, 0
6, 171810, Note_on_c, 4, 67, 0
6, 171840, Note_on_c, 4, 65, 100
6, 171840, Note_on_c, 4, 67, 100
6, 172290, Note_on_c, 4, 65, 0
6, 172290, Note_on_c, 4, 67, 0
6, 172320, Note_on_c, 4, 63, 100
6, 172320, Note_on_c, 4, 67, 100
6, 172770, Note_on_c, 4, 63, 0
6, 172770, Note_on_c, 4, 67, 0
6, 172800, Note_on_c, 4, 65, 100
6, 172800, Note_on_c, 4, 68, 100
6, 174210, Note_on_c, 4, 65, 0
6, 174210, Note_on_c, 4, 68, 0
6, 174240, Note_on_c, 4, 63, 100
6, 174240, Note_on_c, 4, 67, 100
6, 174690, Note_on_c, 4, 63, 0
6, 174690, Note_on_c, 4, 67, 0
6, 174720, Note_on_c, 4, 65, 100
6, 174720, Note_on_c, 4, 67, 100
6, 175170, Note_on_c, 4, 65, 0
6, 175170, Note_on_c, 4, 67, 0
6, 175200, Note_on_c, 4, 63, 100
6, 175200, Note_on_c, 4, 67, 100
6, 175650, Note_on_c, 4, 63, 0
6, 175650, Note_on_c, 4, 67, 0
6, 175680, Note_on_c, 4, 65, 100
6, 175680, Note_on_c, 4, 67, 100
6, 176130, Note_on_c, 4, 65, 0
6, 176130, Note_on_c, 4, 67, 0
6, 176160, Note_on_c, 4, 63, 100
6, 176160, Note_on_c, 4, 67, 100
6, 176610, Note_on_c, 4, 63, 0
6, 176610, Note_on_c, 4, 67, 0
6, 177360, Note_on_c, 4, 63, 100
6, 177480, Note_on_c, 4, 63, 0
6, 177600, Note_on_c, 4, 63, 100
6, 178530, Note_on_c, 4, 63, 0
6, 179280, Note_on_c, 4, 63, 100
6, 179400, Note_on_c, 4, 63, 0
6, 179520, Note_on_c, 4, 63, 100
6, 180450, Note_on_c, 4, 63, 0
6, 181200, Note_on_c, 4, 63, 100
6, 181320, Note_on_c, 4, 63, 0
6, 181440, Note_on_c, 4, 63, 100
6, 182370, Note_on_c, 4, 63, 0
6, 183120, Note_on_c, 4, 63, 100
6, 183240, Note_on_c, 4, 63, 0
6, 183360, Note_on_c, 4, 63, 100
6, 184290, Note_on_c, 4, 63, 0
6, 184320, Note_on_c, 4, 63, 100
6, 184800, Note_on_c, 4, 63, 0
6, 185280, Note_on_c, 4, 63, 100
6, 185760, Note_on_c, 4, 63, 0
6, 186240, Note_on_c, 4, 55, 100
6, 186240, Note_on_c, 4, 67, 100
6, 186720, Note_on_c, 4, 55, 0
6, 186720, Note_on_c, 4, 67, 0
6, 187200, Note_on_c, 4, 55, 100
6, 187200, Note_on_c, 4, 67, 100
6, 187680, Note_on_c, 4, 55, 0
6, 187680, Note_on_c, 4, 67, 0
6, 189120, Note_on_c, 4, 63, 100
6, 189120, Note_on_c, 4, 67, 100
6, 189600, Note_on_c, 4, 63, 0
6, 189600, Note_on_c, 4, 67, 0
6, 191040, Note_on_c, 4, 63, 100
6, 191040, Note_on_c, 4, 67, 100
6, 191520, Note_on_c, 4, 63, 0
6, 191520, Note_on_c, 4, 67, 0
6, 199680, Note_on_c, 4, 55, 120
6, 199680, Note_on_c, 4, 67, 120
6, 200010, Note_on_c, 4, 55, 0
6, 200010, Note_on_c, 4, 67, 0
6, 203520, Note_on_c, 4, 55, 120
6, 203520, Note_on_c, 4, 67, 120
6, 203850, Note_on_c, 4, 55, 0
6, 203850, Note_on_c, 4, 67, 0
6, 211200, Note_on_c, 4, 55, 120
6, 211200, Note_on_c, 4, 67, 120
6, 211530, Note_on_c, 4, 55, 0
6, 211530, Note_on_c, 4, 67, 0
6, 211920, Note_on_c, 4, 55, 120
6, 211920, Note_on_c, 4, 67, 120
6, 212040, Note_on_c, 4, 55, 0
6, 212040, Note_on_c, 4, 67, 0
6, 212160, Note_on_c, 4, 55, 120
6, 212160, Note_on_c, 4, 67, 120
6, 212490, Note_on_c, 4, 55, 0
6, 212490, Note_on_c, 4, 67, 0
6, 212880, Note_on_c, 4, 55, 120
6, 212880, Note_on_c, 4, 67, 120
6, 213000, Note_on_c, 4, 55, 0
6, 213000, Note_on_c, 4, 67, 0
6, 213120, Note_on_c, 4, 55, 120
6, 213120, Note_on_c, 4, 67, 120
6, 213450, Note_on_c, 4, 55, 0
6, 213450, Note_on_c, 4, 67, 0
6, 213840, Note_on_c, 4, 55, 120
6, 213840, Note_on_c, 4, 67, 120
6, 213960, Note_on_c, 4, 55, 0
6, 213960, Note_on_c, 4, 67, 0
6, 214080, Note_on_c, 4, 55, 120
6, 214080, Note_on_c, 4, 67, 120
6, 214410, Note_on_c, 4, 55, 0
6, 214410, Note_on_c, 4, 67, 0
6, 214800, Note_on_c, 4, 55, 120
6, 214800, Note_on_c, 4, 67, 120
6, 214920, Note_on_c, 4, 55, 0
6, 214920, Note_on_c, 4, 67, 0
6, 215040, Note_on_c, 4, 67, 120
6, 215370, Note_on_c, 4, 67, 0
6, 215760, Note_on_c, 4, 67, 120
6, 215880, Note_on_c, 4, 67, 0
6, 216000, Note_on_c, 4, 67, 120
6, 216000, Note_on_c, 4, 70, 120
6, 216330, Note_on_c, 4, 67, 0
6, 216330, Note_on_c, 4, 70, 0
6, 216720, Note_on_c, 4, 67, 120
6, 216720, Note_on_c, 4, 70, 120
6, 216840, Note_on_c, 4, 67, 0
6, 216840, Note_on_c, 4, 70, 0
6, 216960, Note_on_c, 4, 67, 120
6, 216960, Note_on_c, 4, 70, 120
6, 217290, Note_on_c, 4, 67, 0
6, 217290, Note_on_c, 4, 70, 0
6, 217680, Note_on_c, 4, 67, 120
6, 217680, Note_on_c, 4, 70, 120
6, 217800, Note_on_c, 4, 67, 0
6, 217800, Note_on_c, 4, 70, 0
6, 218880, Note_on_c, 4, 67, 120
6, 218880, Note_on_c, 4, 70, 120
6, 223320, Note_on_c, 4, 67, 0
6, 223320, Note_on_c, 4, 70, 0
6, 223440, Note_on_c, 4, 67, 120
6, 223440, Note_on_c, 4, 70, 120
6, 223560, Note_on_c, 4, 67, 0
6, 223560, Note_on_c, 4, 70, 0
6, 223680, Note_on_c, 4, 67, 120
6, 223680, Note_on_c, 4, 70, 120
6, 224010, Note_on_c, 4, 67, 0
6, 224010, Note_on_c, 4, 70, 0
6, 224400, Note_on_c, 4, 67, 120
6, 224400, Note_on_c, 4, 70, 120
6, 224520, Note_on_c, 4, 67, 0
6, 224520, Note_on_c, 4, 70, 0
6, 224640, Note_on_c, 4, 67, 120
6, 224640, Note_on_c, 4, 70, 120
6, 224970, Note_on_c, 4, 67, 0
6, 224970, Note_on_c, 4, 70, 0
6, 225360, Note_on_c, 4, 67, 120
6, 225360, Note_on_c, 4, 70, 120
6, 225480, Note_on_c, 4, 67, 0
6, 225480, Note_on_c, 4, 70, 0
6, 225600, Note_on_c, 4, 67, 120
6, 225600, Note_on_c, 4, 70, 120
6, 225930, Note_on_c, 4, 67, 0
6, 225930, Note_on_c, 4, 70, 0
6, 226320, Note_on_c, 4, 67, 120
6, 226320, Note_on_c, 4, 70, 120
6, 226440, Note_on_c, 4, 67, 0
6, 226440, Note_on_c, 4, 70, 0
6, 226560, Note_on_c, 4, 67, 120
6, 226560, Note_on_c, 4, 70, 120
6, 226950, Note_on_c, 4, 67, 0
6, 226950, Note_on_c, 4, 70, 0
6, 268800, Note_on_c, 4, 65, 100
6, 269130, Note_on_c, 4, 65, 0
6, 270720, Note_on_c, 4, 58, 100
6, 270720, Note_on_c, 4, 70, 100
6, 271050, Note_on_c, 4, 58, 0
6, 271050, Note_on_c, 4, 70, 0
6, 272640, Note_on_c, 4, 58, 100
6, 272640, Note_on_c, 4, 70, 100
6, 272970, Note_on_c, 4, 58, 0
6, 272970, Note_on_c, 4, 70, 0
6, 273360, Note_on_c, 4, 58, 100
6, 273360, Note_on_c, 4, 70, 100
6, 273480, Note_on_c, 4, 58, 0
6, 273480, Note_on_c, 4, 70, 0
6, 273600, Note_on_c, 4, 58, 100
6, 273600, Note_on_c, 4, 70, 100
6, 273930, Note_on_c, 4, 58, 0
6, 273930, Note_on_c, 4, 70, 0
6, 274320, Note_on_c, 4, 58, 100
6, 274320, Note_on_c, 4, 70, 100
6, 274440, Note_on_c, 4, 58, 0
6, 274440, Note_on_c, 4, 70, 0
6, 274560, Note_on_c, 4, 58, 100
6, 274560, Note_on_c, 4, 70, 100
6, 274890, Note_on_c, 4, 58, 0
6, 274890, Note_on_c, 4, 70, 0
6, 275280, Note_on_c, 4, 58, 100
6, 275280, Note_on_c, 4, 70, 100
6, 275400, Note_on_c, 4, 58, 0
6, 275400, Note_on_c, 4, 70, 0
6, 275520, Note_on_c, 4, 67, 100
6, 275520, Note_on_c, 4, 70, 100
6, 275850, Note_on_c, 4, 67, 0
6, 275850, Note_on_c, 4, 70, 0
6, 276240, Note_on_c, 4, 67, 100
6, 276240, Note_on_c, 4, 70, 100
6, 276360, Note_on_c, 4, 67, 0
6, 276360, Note_on_c, 4, 70, 0
6, 276480, Note_on_c, 4, 65, 100
6, 276480, Note_on_c, 4, 68, 100
6, 276810, Note_on_c, 4, 65, 0
6, 276810, Note_on_c, 4, 68, 0
6, 284160, Note_on_c, 4, 65, 110
6, 284160, Note_on_c, 4, 68, 110
6, 284490, Note_on_c, 4, 65, 0
6, 284490, Note_on_c, 4, 68, 0
6, 285120, Note_on_c, 4, 63, 110
6, 285120, Note_on_c, 4, 67, 110
6, 285450, Note_on_c, 4, 63, 0
6, 285450, Note_on_c, 4, 67, 0
6, 286080, Note_on_c, 4, 65, 110
6, 286410, Note_on_c, 4, 65, 0
6, 287040, Note_on_c, 4, 63, 110
6, 287370, Note_on_c, 4, 63, 0
6, 288000, Note_on_c, 4, 58, 110
6, 288000, Note_on_c, 4, 70, 110
6, 288330, Note_on_c, 4, 58, 0
6, 288330, Note_on_c, 4, 70, 0
6, 288960, Note_on_c, 4, 65, 110
6, 288960, Note_on_c, 4, 68, 110
6, 289290, Note_on_c, 4, 65, 0
6, 289290, Note_on_c, 4, 68, 0
6, 289920, Note_on_c, 4, 65, 110
6, 289920, Note_on_c, 4, 67, 110
6, 290250, Note_on_c, 4, 65, 0
6, 290250, Note_on_c, 4, 67, 0
6, 290880, Note_on_c, 4, 67, 110
6, 291210, Note_on_c, 4, 67, 0
6, 291840, Note_on_c, 4, 65, 110
6, 292170, Note_on_c, 4, 65, 0
6, 295680, Note_on_c, 4, 58, 127
6, 295680, Note_on_c, 4, 65, 127
6, 295890, Note_on_c, 4, 58, 0
6, 295890, Note_on_c, 4, 65, 0
6, 303360, Note_on_c, 4, 65, 110
6, 303360, Note_on_c, 4, 68, 110
6, 303990, Note_on_c, 4, 65, 0
6, 303990, Note_on_c, 4, 68, 0
6, 305280, Note_on_c, 4, 65, 110
6, 305280, Note_on_c, 4, 68, 110
6, 305910, Note_on_c, 4, 65, 0
6, 305910, Note_on_c, 4, 68, 0
6, 312960, Note_on_c, 4, 67, 120
6, 313890, Note_on_c, 4, 67, 0
6, 314880, Note_on_c, 4, 67, 120
6, 315810, Note_on_c, 4, 67, 0
6, 322560, Note_on_c, 4, 65, 120
6, 323880, Note_on_c, 4, 65, 0
6, 324480, Note_on_c, 4, 65, 120
6, 325800, Note_on_c, 4, 65, 0
6, 326400, Note_on_c, 4, 65, 120
6, 327720, Note_on_c, 4, 65, 0
6, 328320, Note_on_c, 4, 65, 120
6, 329430, Note_on_c, 4, 65, 0
6, 330240, Note_on_c, 4, 67, 120
6, 331560, Note_on_c, 4, 67, 0
6, 332160, Note_on_c, 4, 67, 120
6, 333480, Note_on_c, 4, 67, 0
6, 334080, Note_on_c, 4, 67, 120
6, 335400, Note_on_c, 4, 67, 0
6, 336000, Note_on_c, 4, 67, 120
6, 337320, Note_on_c, 4, 67, 0
6, 337920, Note_on_c, 4, 67, 120
6, 338400, Note_on_c, 4, 67, 0
6, 341760, Note_on_c, 4, 55, 80
6, 349440, Control_c, 4, 11, 80
6, 349820, Control_c, 4, 11, 81
6, 350190, Control_c, 4, 11, 82
6, 350560, Control_c, 4, 11, 83
6, 350930, Control_c, 4, 11, 84
6, 351300, Control_c, 4, 11, 85
6, 351670, Control_c, 4, 11, 86
6, 352050, Control_c, 4, 11, 87
6, 352420, Control_c, 4, 11, 88
6, 352790, Control_c, 4, 11, 89
6, 353160, Control_c, 4, 11, 90
6, 353530, Control_c, 4, 11, 91
6, 353900, Control_c, 4, 11, 92
6, 354280, Control_c, 4, 11, 93
6, 354650, Control_c, 4, 11, 94
6, 355020, Control_c, 4, 11, 95
6, 355390, Control_c, 4, 11, 96
6, 355760, Control_c, 4, 11, 97
6, 356130, Control_c, 4, 11, 98
6, 356510, Control_c, 4, 11, 99
6, 356880, Control_c, 4, 11, 100
6, 357250, Control_c, 4, 11, 101
6, 357620, Control_c, 4, 11, 102
6, 357990, Control_c, 4, 11, 103
6, 358360, Control_c, 4, 11, 104
6, 358740, Control_c, 4, 11, 105
6, 359110, Control_c, 4, 11, 106
6, 359480, Control_c, 4, 11, 107
6, 359850, Control_c, 4, 11, 108
6, 360220, Control_c, 4, 11, 109
6, 360590, Control_c, 4, 11, 110
6, 360870, Note_on_c, 4, 55, 0
6, 360960, Note_on_c, 4, 55, 80
6, 360960, Note_on_c, 4, 67, 80
6, 361890, Note_on_c, 4, 55, 0
6, 361890, Note_on_c, 4, 67, 0
6, 361920, Note_on_c, 4, 65, 80
6, 362850, Note_on_c, 4, 65, 0
6, 364797, Control_c, 4, 11, 80
6, 396240, Note_on_c, 4, 55, 80
6, 396390, Note_on_c, 4, 55, 0
6, 396480, Note_on_c, 4, 55, 80
6, 397110, Note_on_c, 4, 55, 0
6, 397200, Note_on_c, 4, 55, 80
6, 397350, Note_on_c, 4, 55, 0
6, 398160, Note_on_c, 4, 55, 80
6, 398310, Note_on_c, 4, 55, 0
6, 398400, Note_on_c, 4, 55, 80
6, 399030, Note_on_c, 4, 55, 0
6, 399120, Note_on_c, 4, 55, 80
6, 399270, Note_on_c, 4, 55, 0
6, 399360, Control_c, 4, 11, 80
6, 399610, Control_c, 4, 11, 81
6, 399860, Control_c, 4, 11, 82
6, 400080, Note_on_c, 4, 55, 80
6, 400110, Control_c, 4, 11, 83
6, 400230, Note_on_c, 4, 55, 0
6, 400320, Note_on_c, 4, 55, 80
6, 400360, Control_c, 4, 11, 84
6, 400600, Control_c, 4, 11, 85
6, 400850, Control_c, 4, 11, 86
6, 400950, Note_on_c, 4, 55, 0
6, 401040, Note_on_c, 4, 55, 80
6, 401100, Control_c, 4, 11, 87
6, 401190, Note_on_c, 4, 55, 0
6, 401350, Control_c, 4, 11, 88
6, 401590, Control_c, 4, 11, 89
6, 401840, Control_c, 4, 11, 90
6, 402000, Note_on_c, 4, 55, 80
6, 402090, Control_c, 4, 11, 91
6, 402150, Note_on_c, 4, 55, 0
6, 402240, Note_on_c, 4, 55, 80
6, 402340, Control_c, 4, 11, 92
6, 402590, Control_c, 4, 11, 93
6, 402830, Control_c, 4, 11, 94
6, 402870, Note_on_c, 4, 55, 0
6, 402960, Note_on_c, 4, 55, 80
6, 403080, Control_c, 4, 11, 95
6, 403110, Note_on_c, 4, 55, 0
6, 403330, Control_c, 4, 11, 96
6, 403580, Control_c, 4, 11, 97
6, 403820, Control_c, 4, 11, 98
6, 403920, Note_on_c, 4, 55, 80
6, 404070, Note_on_c, 4, 55, 0
6, 404070, Control_c, 4, 11, 99
6, 404160, Note_on_c, 4, 55, 80
6, 404320, Control_c, 4, 11, 100
6, 404570, Control_c, 4, 11, 101
6, 404790, Note_on_c, 4, 55, 0
6, 404820, Control_c, 4, 11, 102
6, 404880, Note_on_c, 4, 55, 80
6, 405030, Note_on_c, 4, 55, 0
6, 405060, Control_c, 4, 11, 103
6, 405310, Control_c, 4, 11, 104
6, 405560, Control_c, 4, 11, 105
6, 405810, Control_c, 4, 11, 106
6, 405840, Note_on_c, 4, 55, 80
6, 405990, Note_on_c, 4, 55, 0
6, 406050, Control_c, 4, 11, 107
6, 406080, Note_on_c, 4, 55, 80
6, 406300, Control_c, 4, 11, 108
6, 406550, Control_c, 4, 11, 109
6, 406710, Note_on_c, 4, 55, 0
6, 406797, Control_c, 4, 11, 110
6, 406800, Note_on_c, 4, 55, 80
6, 406950, Note_on_c, 4, 55, 0
6, 407037, Control_c, 4, 11, 80
6, 407040, Note_on_c, 4, 65, 80
6, 407040, Note_on_c, 4, 68, 80
6, 408450, Note_on_c, 4, 65, 0
6, 408450, Note_on_c, 4, 68, 0
6, 408480, Note_on_c, 4, 63, 80
6, 408480, Note_on_c, 4, 67, 80
6, 408930, Note_on_c, 4, 63, 0
6, 408930, Note_on_c, 4, 67, 0
6, 408960, Note_on_c, 4, 65, 80
6, 409410, Note_on_c, 4, 65, 0
6, 409440, Note_on_c, 4, 63, 80
6, 409440, Note_on_c, 4, 67, 80
6, 409890, Note_on_c, 4, 63, 0
6, 409890, Note_on_c, 4, 67, 0
6, 409920, Note_on_c, 4, 65, 80
6, 410370, Note_on_c, 4, 65, 0
6, 410400, Note_on_c, 4, 63, 80
6, 410400, Note_on_c, 4, 67, 80
6, 410730, Note_on_c, 4, 63, 0
6, 410730, Note_on_c, 4, 67, 0
6, 410880, Note_on_c, 4, 65, 80
6, 410880, Note_on_c, 4, 68, 80
6, 412290, Note_on_c, 4, 65, 0
6, 412290, Note_on_c, 4, 68, 0
6, 412320, Note_on_c, 4, 63, 80
6, 412320, Note_on_c, 4, 67, 80
6, 412770, Note_on_c, 4, 63, 0
6, 412770, Note_on_c, 4, 67, 0
6, 412800, Note_on_c, 4, 65, 80
6, 413250, Note_on_c, 4, 65, 0
6, 413280, Note_on_c, 4, 63, 80
6, 413280, Note_on_c, 4, 67, 80
6, 413730, Note_on_c, 4, 63, 0
6, 413730, Note_on_c, 4, 67, 0
6, 413760, Note_on_c, 4, 65, 80
6, 414210, Note_on_c, 4, 65, 0
6, 414240, Note_on_c, 4, 63, 80
6, 414240, Note_on_c, 4, 67, 80
6, 414570, Note_on_c, 4, 63, 0
6, 414570, Note_on_c, 4, 67, 0
6, 414720, Note_on_c, 4, 58, 80
6, 414720, Note_on_c, 4, 70, 80
6, 416130, Note_on_c, 4, 58, 0
6, 416130, Note_on_c, 4, 70, 0
6, 416160, Note_on_c, 4, 65, 80
6, 416160, Note_on_c, 4, 68, 80
6, 416610, Note_on_c, 4, 65, 0
6, 416610, Note_on_c, 4, 68, 0
6, 416640, Note_on_c, 4, 58, 80
6, 416640, Note_on_c, 4, 70, 80
6, 417090, Note_on_c, 4, 58, 0
6, 417090, Note_on_c, 4, 70, 0
6, 417120, Note_on_c, 4, 65, 80
6, 417120, Note_on_c, 4, 68, 80
6, 417570, Note_on_c, 4, 65, 0
6, 417570, Note_on_c, 4, 68, 0
6, 417600, Note_on_c, 4, 58, 80
6, 417600, Note_on_c, 4, 70, 80
6, 418050, Note_on_c, 4, 58, 0
6, 418050, Note_on_c, 4, 70, 0
6, 418080, Note_on_c, 4, 65, 80
6, 418080, Note_on_c, 4, 68, 80
6, 418410, Note_on_c, 4, 65, 0
6, 418410, Note_on_c, 4, 68, 0
6, 418560, Note_on_c, 4, 58, 80
6, 418560, Note_on_c, 4, 70, 80
6, 419970, Note_on_c, 4, 58, 0
6, 419970, Note_on_c, 4, 70, 0
6, 420000, Note_on_c, 4, 65, 80
6, 420000, Note_on_c, 4, 68, 80
6, 420450, Note_on_c, 4, 65, 0
6, 420450, Note_on_c, 4, 68, 0
6, 420480, Note_on_c, 4, 58, 80
6, 420480, Note_on_c, 4, 70, 80
6, 420930, Note_on_c, 4, 58, 0
6, 420930, Note_on_c, 4, 70, 0
6, 420960, Note_on_c, 4, 65, 80
6, 420960, Note_on_c, 4, 68, 80
6, 421410, Note_on_c, 4, 65, 0
6, 421410, Note_on_c, 4, 68, 0
6, 421440, Note_on_c, 4, 58, 80
6, 421440, Note_on_c, 4, 70, 80
6, 421890, Note_on_c, 4, 58, 0
6, 421890, Note_on_c, 4, 70, 0
6, 421920, Note_on_c, 4, 65, 80
6, 421920, Note_on_c, 4, 68, 80
6, 422370, Note_on_c, 4, 65, 0
6, 422370, Note_on_c, 4, 68, 0
6, 423120, Note_on_c, 4, 65, 90
6, 423120, Note_on_c, 4, 68, 90
6, 423240, Note_on_c, 4, 65, 0
6, 423240, Note_on_c, 4, 68, 0
6, 423360, Note_on_c, 4, 65, 90
6, 423360, Note_on_c, 4, 68, 90
6, 423840, Note_on_c, 4, 66, 90
6, 423870, Note_on_c, 4, 65, 0
6, 424290, Note_on_c, 4, 66, 0
6, 424290, Note_on_c, 4, 68, 0
6, 425040, Note_on_c, 4, 65, 90
6, 425040, Note_on_c, 4, 68, 90
6, 425160, Note_on_c, 4, 65, 0
6, 425160, Note_on_c, 4, 68, 0
6, 425280, Note_on_c, 4, 65, 90
6, 425280, Note_on_c, 4, 68, 90
6, 425760, Note_on_c, 4, 66, 90
6, 425790, Note_on_c, 4, 65, 0
6, 426210, Note_on_c, 4, 66, 0
6, 426210, Note_on_c, 4, 68, 0
6, 426960, Note_on_c, 4, 65, 90
6, 426960, Note_on_c, 4, 68, 90
6, 427080, Note_on_c, 4, 65, 0
6, 427080, Note_on_c, 4, 68, 0
6, 427200, Note_on_c, 4, 65, 90
6, 427200, Note_on_c, 4, 68, 90
6, 427680, Note_on_c, 4, 66, 90
6, 427710, Note_on_c, 4, 65, 0
6, 428130, Note_on_c, 4, 66, 0
6, 428130, Note_on_c, 4, 68, 0
6, 428880, Note_on_c, 4, 65, 90
6, 428880, Note_on_c, 4, 68, 90
6, 429000, Note_on_c, 4, 65, 0
6, 429000, Note_on_c, 4, 68, 0
6, 429120, Note_on_c, 4, 65, 90
6, 429120, Note_on_c, 4, 68, 90
6, 429600, Note_on_c, 4, 66, 90
6, 429630, Note_on_c, 4, 65, 0
6, 430050, Note_on_c, 4, 66, 0
6, 430050, Note_on_c, 4, 68, 0
6, 430080, Note_on_c, 4, 65, 80
6, 430080, Note_on_c, 4, 68, 80
6, 431010, Note_on_c, 4, 65, 0
6, 431010, Note_on_c, 4, 68, 0
6, 431040, Note_on_c, 4, 65, 80
6, 431040, Note_on_c, 4, 67, 80
6, 431970, Note_on_c, 4, 65, 0
6, 432930, Note_on_c, 4, 67, 0
6, 432960, Note_on_c, 4, 65, 80
6, 437670, Note_on_c, 4, 65, 0
6, 437760, Note_on_c, 4, 65, 80
6, 438210, Note_on_c, 4, 65, 0
6, 438720, Note_on_c, 4, 68, 80
6, 439170, Note_on_c, 4, 68, 0
6, 439680, Note_on_c, 4, 65, 80
6, 440130, Note_on_c, 4, 65, 0
6, 440640, Note_on_c, 4, 67, 80
6, 441090, Note_on_c, 4, 67, 0
6, 445200, Note_on_c, 4, 55, 100
6, 445200, Note_on_c, 4, 67, 100
6, 445320, Note_on_c, 4, 55, 0
6, 445320, Note_on_c, 4, 67, 0
6, 445440, Note_on_c, 4, 55, 100
6, 445440, Note_on_c, 4, 67, 100
6, 445770, Note_on_c, 4, 55, 0
6, 445770, Note_on_c, 4, 67, 0
6, 449040, Note_on_c, 4, 55, 100
6, 449040, Note_on_c, 4, 67, 100
6, 449160, Note_on_c, 4, 55, 0
6, 449160, Note_on_c, 4, 67, 0
6, 449280, Note_on_c, 4, 55, 100
6, 449280, Note_on_c, 4, 67, 100
6, 449610, Note_on_c, 4, 55, 0
6, 449610, Note_on_c, 4, 67, 0
6, 456960, Note_on_c, 4, 63, 100
6, 457410, Note_on_c, 4, 63, 0
6, 457920, Note_on_c, 4, 67, 100
6, 458370, Note_on_c, 4, 67, 0
6, 458880, Note_on_c, 4, 65, 100
6, 459330, Note_on_c, 4, 65, 0
6, 459840, Note_on_c, 4, 63, 100
6, 460290, Note_on_c, 4, 63, 0
6, 460800, Note_on_c, 4, 65, 100
6, 461250, Note_on_c, 4, 65, 0
6, 464640, Note_on_c, 4, 55, 60
6, 464640, Note_on_c, 4, 67, 60
6, 489510, Note_on_c, 4, 55, 0
6, 489510, Note_on_c, 4, 67, 0
6, 489600, Note_on_c, 4, 63, 100
6, 491490, Note_on_c, 4, 63, 0
6, 491520, Note_on_c, 4, 65, 60
6, 493410, Note_on_c, 4, 65, 0
6, 493440, Note_on_c, 4, 65, 100
6, 495330, Note_on_c, 4, 65, 0
6, 495360, Note_on_c, 4, 67, 60
6, 497250, Note_on_c, 4, 67, 0
6, 497280, Note_on_c, 4, 67, 100
6, 499170, Note_on_c, 4, 67, 0
6, 499200, Note_on_c, 4, 65, 80
6, 499680, Note_on_c, 4, 65, 0
6, 506877, Control_c, 4, 11, 127
6, 506880, Note_on_c, 4, 65, 115
6, 508530, Note_on_c, 4, 65, 0
6, 508800, Note_on_c, 4, 65, 115
6, 510450, Note_on_c, 4, 65, 0
6, 510720, Note_on_c, 4, 67, 122
6, 512370, Note_on_c, 4, 67, 0
6, 512640, Note_on_c, 4, 67, 122
6, 514290, Note_on_c, 4, 67, 0
6, 514560, Note_on_c, 4, 68, 122
6, 516210, Note_on_c, 4, 68, 0
6, 516480, Note_on_c, 4, 67, 122
6, 518130, Note_on_c, 4, 67, 0
6, 518397, Control_c, 4, 11, 80
6, 518400, Note_on_c, 4, 67, 100
6, 518730, Note_on_c, 4, 67, 0
6, 519120, Note_on_c, 4, 67, 100
6, 519270, Note_on_c, 4, 67, 0
6, 519360, Note_on_c, 4, 67, 100
6, 519690, Note_on_c, 4, 67, 0
6, 520080, Note_on_c, 4, 67, 100
6, 520230, Note_on_c, 4, 67, 0
6, 520320, Note_on_c, 4, 67, 100
6, 520650, Note_on_c, 4, 67, 0
6, 521040, Note_on_c, 4, 67, 100
6, 521190, Note_on_c, 4, 67, 0
6, 521280, Note_on_c, 4, 67, 100
6, 521610, Note_on_c, 4, 67, 0
6, 522000, Note_on_c, 4, 67, 100
6, 522150, Note_on_c, 4, 67, 0
6, 522240, Note_on_c, 4, 67, 100
6, 522570, Note_on_c, 4, 67, 0
6, 522960, Note_on_c, 4, 67, 100
6, 523110, Note_on_c, 4, 67, 0
6, 523200, Note_on_c, 4, 67, 100
6, 523530, Note_on_c, 4, 67, 0
6, 523920, Note_on_c, 4, 67, 100
6, 524070, Note_on_c, 4, 67, 0
6, 524160, Note_on_c, 4, 67, 100
6, 524490, Note_on_c, 4, 67, 0
6, 524880, Note_on_c, 4, 67, 100
6, 525030, Note_on_c, 4, 67, 0
6, 525120, Note_on_c, 4, 67, 100
6, 525450, Note_on_c, 4, 67, 0
6, 525840, Note_on_c, 4, 67, 100
6, 525990, Note_on_c, 4, 67, 0
6, 526080, Note_on_c, 4, 67, 100
6, 526410, Note_on_c, 4, 67, 0
6, 526800, Note_on_c, 4, 55, 100
6, 526800, Note_on_c, 4, 67, 100
6, 526950, Note_on_c, 4, 55, 0
6, 526950, Note_on_c, 4, 67, 0
6, 527040, Note_on_c, 4, 55, 100
6, 527040, Note_on_c, 4, 67, 100
6, 527370, Note_on_c, 4, 55, 0
6, 527370, Note_on_c, 4, 67, 0
6, 527760, Note_on_c, 4, 55, 100
6, 527760, Note_on_c, 4, 67, 100
6, 527910, Note_on_c, 4, 55, 0
6, 527910, Note_on_c, 4, 67, 0
6, 528000, Note_on_c, 4, 55, 100
6, 528000, Note_on_c, 4, 67, 100
6, 528330, Note_on_c, 4, 55, 0
6, 528330, Note_on_c, 4, 67, 0
6, 528720, Note_on_c, 4, 55, 100
6, 528720, Note_on_c, 4, 67, 100
6, 528870, Note_on_c, 4, 55, 0
6, 528870, Note_on_c, 4, 67, 0
6, 528960, Note_on_c, 4, 55, 100
6, 528960, Note_on_c, 4, 67, 100
6, 529290, Note_on_c, 4, 55, 0
6, 529290, Note_on_c, 4, 67, 0
6, 529680, Note_on_c, 4, 55, 100
6, 529680, Note_on_c, 4, 67, 100
6, 529830, Note_on_c, 4, 55, 0
6, 529830, Note_on_c, 4, 67, 0
6, 533760, Note_on_c, 4, 65, 127
6, 533970, Note_on_c, 4, 65, 0
6, 541440, Note_on_c, 4, 65, 127
6, 541440, Note_on_c, 4, 68, 127
6, 541650, Note_on_c, 4, 65, 0
6, 541650, Note_on_c, 4, 68, 0
6, 552960, Note_on_c, 4, 67, 127
6, 553170, Note_on_c, 4, 67, 0
6, 553440, Note_on_c, 4, 67, 127
6, 553650, Note_on_c, 4, 67, 0
6, 554880, Note_on_c, 4, 65, 127
6, 555090, Note_on_c, 4, 65, 0
6, 555360, Note_on_c, 4, 67, 127
6, 555570, Note_on_c, 4, 67, 0
6, 555570, End_track
7, 0, Start_track
7, 0, Channel_prefix, 5
7, 0, Title_t, "Trumpet "
7, 0, Instrument_name_t, "Trombe in C"
7, 5760, Note_on_c, 5, 60, 110
7, 5760, Note_on_c, 5, 72, 110
7, 5910, Note_on_c, 5, 60, 0
7, 5910, Note_on_c, 5, 72, 0
7, 13440, Note_on_c, 5, 60, 110
7, 13440, Note_on_c, 5, 72, 110
7, 13590, Note_on_c, 5, 60, 0
7, 13590, Note_on_c, 5, 72, 0
7, 21120, Note_on_c, 5, 60, 110
7, 21120, Note_on_c, 5, 72, 110
7, 21270, Note_on_c, 5, 60, 0
7, 21270, Note_on_c, 5, 72, 0
7, 24960, Note_on_c, 5, 55, 110
7, 24960, Note_on_c, 5, 67, 110
7, 25170, Note_on_c, 5, 55, 0
7, 25170, Note_on_c, 5, 67, 0
7, 26880, Note_on_c, 5, 55, 110
7, 26880, Note_on_c, 5, 67, 110
7, 27120, Note_on_c, 5, 55, 0
7, 27120, Note_on_c, 5, 67, 0
7, 39840, Note_on_c, 5, 55, 110
7, 39840, Note_on_c, 5, 67, 110
7, 40170, Note_on_c, 5, 55, 0
7, 40170, Note_on_c, 5, 67, 0
7, 52320, Note_on_c, 5, 60, 110
7, 52320, Note_on_c, 5, 72, 110
7, 52650, Note_on_c, 5, 60, 0
7, 52650, Note_on_c, 5, 72, 0
7, 58560, Note_on_c, 5, 60, 82
7, 58560, Note_on_c, 5, 72, 82
7, 58740, Note_on_c, 5, 60, 0
7, 58740, Note_on_c, 5, 72, 0
7, 60480, Note_on_c, 5, 60, 87
7, 60480, Note_on_c, 5, 72, 87
7, 60660, Note_on_c, 5, 60, 0
7, 60660, Note_on_c, 5, 72, 0
7, 62400, Note_on_c, 5, 60, 92
7, 62400, Note_on_c, 5, 72, 92
7, 62880, Note_on_c, 5, 60, 0
7, 62880, Note_on_c, 5, 72, 0
7, 63360, Note_on_c, 5, 60, 95
7, 63360, Note_on_c, 5, 72, 95
7, 63840, Note_on_c, 5, 60, 0
7, 63840, Note_on_c, 5, 72, 0
7, 64320, Note_on_c, 5, 60, 97
7, 64320, Note_on_c, 5, 72, 97
7, 64800, Note_on_c, 5, 60, 0
7, 64800, Note_on_c, 5, 72, 0
7, 65280, Note_on_c, 5, 60, 100
7, 65280, Note_on_c, 5, 72, 100
7, 67410, Note_on_c, 5, 60, 0
7, 67410, Note_on_c, 5, 72, 0
7, 67680, Note_on_c, 5, 55, 100
7, 67680, Note_on_c, 5, 67, 100
7, 67920, Note_on_c, 5, 55, 0
7, 67920, Note_on_c, 5, 67, 0
7, 68160, Note_on_c, 5, 55, 100
7, 68160, Note_on_c, 5, 67, 100
7, 68400, Note_on_c, 5, 55, 0
7, 68400, Note_on_c, 5, 67, 0
7, 68640, Note_on_c, 5, 55, 100
7, 68640, Note_on_c, 5, 67, 100
7, 68880, Note_on_c, 5, 55, 0
7, 68880, Note_on_c, 5, 67, 0
7, 69120, Note_on_c, 5, 55, 100
7, 69120, Note_on_c, 5, 67, 100
7, 69810, Note_on_c, 5, 55, 0
7, 69810, Note_on_c, 5, 67, 0
7, 70080, Note_on_c, 5, 55, 100
7, 70080, Note_on_c, 5, 67, 100
7, 70770, Note_on_c, 5, 55, 0
7, 70770, Note_on_c, 5, 67, 0
7, 71040, Note_on_c, 5, 55, 100
7, 71040, Note_on_c, 5, 67, 100
7, 71730, Note_on_c, 5, 55, 0
7, 71730, Note_on_c, 5, 67, 0
7, 72000, Note_on_c, 5, 60, 100
7, 72000, Note_on_c, 5, 72, 100
7, 72690, Note_on_c, 5, 60, 0
7, 72690, Note_on_c, 5, 72, 0
7, 72960, Note_on_c, 5, 60, 100
7, 72960, Note_on_c, 5, 72, 100
7, 73650, Note_on_c, 5, 60, 0
7, 73650, Note_on_c, 5, 72, 0
7, 73920, Note_on_c, 5, 60, 100
7, 73920, Note_on_c, 5, 72, 100
7, 74610, Note_on_c, 5, 60, 0
7, 74610, Note_on_c, 5, 72, 0
7, 74880, Note_on_c, 5, 60, 100
7, 74880, Note_on_c, 5, 72, 100
7, 75570, Note_on_c, 5, 60, 0
7, 75570, Note_on_c, 5, 72, 0
7, 75840, Note_on_c, 5, 60, 100
7, 75840, Note_on_c, 5, 72, 100
7, 76530, Note_on_c, 5, 60, 0
7, 76530, Note_on_c, 5, 72, 0
7, 76800, Note_on_c, 5, 60, 110
7, 76800, Note_on_c, 5, 72, 110
7, 77760, Note_on_c, 5, 60, 0
7, 77760, Note_on_c, 5, 72, 0
7, 78720, Note_on_c, 5, 60, 110
7, 78720, Note_on_c, 5, 72, 110
7, 79680, Note_on_c, 5, 60, 0
7, 79680, Note_on_c, 5, 72, 0
7, 86400, Note_on_c, 5, 60, 110
7, 86400, Note_on_c, 5, 72, 110
7, 88290, Note_on_c, 5, 60, 0
7, 88290, Note_on_c, 5, 72, 0
7, 161280, Note_on_c, 5, 60, 100
7, 161280, Note_on_c, 5, 72, 100
7, 162690, Note_on_c, 5, 60, 0
7, 162690, Note_on_c, 5, 72, 0
7, 162720, Note_on_c, 5, 55, 100
7, 162720, Note_on_c, 5, 67, 100
7, 163170, Note_on_c, 5, 55, 0
7, 163170, Note_on_c, 5, 67, 0
7, 163200, Note_on_c, 5, 60, 100
7, 163200, Note_on_c, 5, 72, 100
7, 163650, Note_on_c, 5, 60, 0
7, 163650, Note_on_c, 5, 72, 0
7, 163680, Note_on_c, 5, 55, 100
7, 163680, Note_on_c, 5, 67, 100
7, 164130, Note_on_c, 5, 55, 0
7, 164130, Note_on_c, 5, 67, 0
7, 164160, Note_on_c, 5, 60, 100
7, 164160, Note_on_c, 5, 72, 100
7, 164610, Note_on_c, 5, 60, 0
7, 164610, Note_on_c, 5, 72, 0
7, 164640, Note_on_c, 5, 55, 100
7, 164640, Note_on_c, 5, 67, 100
7, 165090, Note_on_c, 5, 55, 0
7, 165090, Note_on_c, 5, 67, 0
7, 165120, Note_on_c, 5, 60, 100
7, 165120, Note_on_c, 5, 72, 100
7, 166530, Note_on_c, 5, 60, 0
7, 166530, Note_on_c, 5, 72, 0
7, 166560, Note_on_c, 5, 55, 100
7, 166560, Note_on_c, 5, 67, 100
7, 167010, Note_on_c, 5, 55, 0
7, 167010, Note_on_c, 5, 67, 0
7, 167040, Note_on_c, 5, 60, 100
7, 167040, Note_on_c, 5, 72, 100
7, 167490, Note_on_c, 5, 60, 0
7, 167490, Note_on_c, 5, 72, 0
7, 167520, Note_on_c, 5, 55, 100
7, 167520, Note_on_c, 5, 67, 100
7, 167970, Note_on_c, 5, 55, 0
7, 167970, Note_on_c, 5, 67, 0
7, 168000, Note_on_c, 5, 60, 100
7, 168000, Note_on_c, 5, 72, 100
7, 168450, Note_on_c, 5, 60, 0
7, 168450, Note_on_c, 5, 72, 0
7, 168480, Note_on_c, 5, 55, 100
7, 168480, Note_on_c, 5, 67, 100
7, 168930, Note_on_c, 5, 55, 0
7, 168930, Note_on_c, 5, 67, 0
7, 168960, Note_on_c, 5, 55, 100
7, 168960, Note_on_c, 5, 67, 100
7, 170370, Note_on_c, 5, 55, 0
7, 170370, Note_on_c, 5, 67, 0
7, 170400, Note_on_c, 5, 55, 100
7, 170400, Note_on_c, 5, 67, 100
7, 170850, Note_on_c, 5, 55, 0
7, 170850, Note_on_c, 5, 67, 0
7, 170880, Note_on_c, 5, 55, 100
7, 170880, Note_on_c, 5, 67, 100
7, 171330, Note_on_c, 5, 55, 0
7, 171330, Note_on_c, 5, 67, 0
7, 171360, Note_on_c, 5, 60, 100
7, 171360, Note_on_c, 5, 72, 100
7, 171810, Note_on_c, 5, 60, 0
7, 171810, Note_on_c, 5, 72, 0
7, 171840, Note_on_c, 5, 55, 100
7, 171840, Note_on_c, 5, 67, 100
7, 172290, Note_on_c, 5, 55, 0
7, 172290, Note_on_c, 5, 67, 0
7, 172320, Note_on_c, 5, 60, 100
7, 172320, Note_on_c, 5, 72, 100
7, 172770, Note_on_c, 5, 60, 0
7, 172770, Note_on_c, 5, 72, 0
7, 172800, Note_on_c, 5, 55, 100
7, 172800, Note_on_c, 5, 67, 100
7, 174210, Note_on_c, 5, 55, 0
7, 174210, Note_on_c, 5, 67, 0
7, 174240, Note_on_c, 5, 55, 100
7, 174240, Note_on_c, 5, 67, 100
7, 174690, Note_on_c, 5, 55, 0
7, 174690, Note_on_c, 5, 67, 0
7, 174720, Note_on_c, 5, 55, 100
7, 174720, Note_on_c, 5, 67, 100
7, 175170, Note_on_c, 5, 55, 0
7, 175170, Note_on_c, 5, 67, 0
7, 175200, Note_on_c, 5, 60, 100
7, 175200, Note_on_c, 5, 72, 100
7, 175650, Note_on_c, 5, 60, 0
7, 175650, Note_on_c, 5, 72, 0
7, 175680, Note_on_c, 5, 55, 100
7, 175680, Note_on_c, 5, 67, 100
7, 176130, Note_on_c, 5, 55, 0
7, 176130, Note_on_c, 5, 67, 0
7, 176160, Note_on_c, 5, 60, 100
7, 176160, Note_on_c, 5, 72, 100
7, 176610, Note_on_c, 5, 60, 0
7, 176610, Note_on_c, 5, 72, 0
7, 176640, Note_on_c, 5, 60, 100
7, 176640, Note_on_c, 5, 72, 100
7, 177120, Note_on_c, 5, 60, 0
7, 177120, Note_on_c, 5, 72, 0
7, 178560, Note_on_c, 5, 60, 100
7, 178560, Note_on_c, 5, 72, 100
7, 179040, Note_on_c, 5, 60, 0
7, 179040, Note_on_c, 5, 72, 0
7, 180480, Note_on_c, 5, 60, 100
7, 180480, Note_on_c, 5, 72, 100
7, 180960, Note_on_c, 5, 60, 0
7, 180960, Note_on_c, 5, 72, 0
7, 182400, Note_on_c, 5, 60, 100
7, 182400, Note_on_c, 5, 72, 100
7, 182880, Note_on_c, 5, 60, 0
7, 182880, Note_on_c, 5, 72, 0
7, 184320, Note_on_c, 5, 60, 100
7, 184320, Note_on_c, 5, 72, 100
7, 184800, Note_on_c, 5, 60, 0
7, 184800, Note_on_c, 5, 72, 0
7, 185280, Note_on_c, 5, 60, 100
7, 185280, Note_on_c, 5, 72, 100
7, 185760, Note_on_c, 5, 60, 0
7, 185760, Note_on_c, 5, 72, 0
7, 186240, Note_on_c, 5, 55, 100
7, 186240, Note_on_c, 5, 67, 100
7, 186720, Note_on_c, 5, 55, 0
7, 186720, Note_on_c, 5, 67, 0
7, 187200, Note_on_c, 5, 55, 100
7, 187200, Note_on_c, 5, 67, 100
7, 187680, Note_on_c, 5, 55, 0
7, 187680, Note_on_c, 5, 67, 0
7, 188160, Note_on_c, 5, 60, 100
7, 188160, Note_on_c, 5, 72, 100
7, 188640, Note_on_c, 5, 60, 0
7, 188640, Note_on_c, 5, 72, 0
7, 189120, Note_on_c, 5, 60, 100
7, 189120, Note_on_c, 5, 72, 100
7, 189600, Note_on_c, 5, 60, 0
7, 189600, Note_on_c, 5, 72, 0
7, 190080, Note_on_c, 5, 60, 100
7, 190080, Note_on_c, 5, 72, 100
7, 190560, Note_on_c, 5, 60, 0
7, 190560, Note_on_c, 5, 72, 0
7, 191040, Note_on_c, 5, 60, 100
7, 191040, Note_on_c, 5, 72, 100
7, 191520, Note_on_c, 5, 60, 0
7, 191520, Note_on_c, 5, 72, 0
7, 192000, Note_on_c, 5, 60, 100
7, 192000, Note_on_c, 5, 72, 100
7, 192480, Note_on_c, 5, 60, 0
7, 192480, Note_on_c, 5, 72, 0
7, 194880, Note_on_c, 5, 74, 100
7, 195360, Note_on_c, 5, 74, 0
7, 199440, Note_on_c, 5, 74, 120
7, 199560, Note_on_c, 5, 74, 0
7, 199680, Note_on_c, 5, 55, 120
7, 199680, Note_on_c, 5, 67, 120
7, 200160, Note_on_c, 5, 55, 0
7, 200160, Note_on_c, 5, 67, 0
7, 203280, Note_on_c, 5, 74, 120
7, 203400, Note_on_c, 5, 74, 0
7, 203520, Note_on_c, 5, 55, 120
7, 203520, Note_on_c, 5, 67, 120
7, 204000, Note_on_c, 5, 55, 0
7, 204000, Note_on_c, 5, 67, 0
7, 211200, Note_on_c, 5, 67, 120
7, 211680, Note_on_c, 5, 67, 0
7, 211920, Note_on_c, 5, 67, 120
7, 212040, Note_on_c, 5, 67, 0
7, 212160, Note_on_c, 5, 67, 120
7, 212640, Note_on_c, 5, 67, 0
7, 212880, Note_on_c, 5, 67, 120
7, 213000, Note_on_c, 5, 67, 0
7, 213120, Note_on_c, 5, 67, 120
7, 213600, Note_on_c, 5, 67, 0
7, 213840, Note_on_c, 5, 67, 120
7, 213960, Note_on_c, 5, 67, 0
7, 214080, Note_on_c, 5, 67, 120
7, 214560, Note_on_c, 5, 67, 0
7, 214800, Note_on_c, 5, 67, 120
7, 214920, Note_on_c, 5, 67, 0
7, 215040, Note_on_c, 5, 55, 120
7, 215040, Note_on_c, 5, 67, 120
7, 215520, Note_on_c, 5, 55, 0
7, 215520, Note_on_c, 5, 67, 0
7, 215760, Note_on_c, 5, 55, 120
7, 215760, Note_on_c, 5, 67, 120
7, 215880, Note_on_c, 5, 55, 0
7, 215880, Note_on_c, 5, 67, 0
7, 216000, Note_on_c, 5, 55, 120
7, 216000, Note_on_c, 5, 67, 120
7, 216480, Note_on_c, 5, 55, 0
7, 216480, Note_on_c, 5, 67, 0
7, 216720, Note_on_c, 5, 55, 120
7, 216720, Note_on_c, 5, 67, 120
7, 216840, Note_on_c, 5, 55, 0
7, 216840, Note_on_c, 5, 67, 0
7, 216960, Note_on_c, 5, 74, 120
7, 217440, Note_on_c, 5, 74, 0
7, 217680, Note_on_c, 5, 74, 120
7, 217800, Note_on_c, 5, 74, 0
7, 217920, Note_on_c, 5, 74, 120
7, 218400, Note_on_c, 5, 74, 0
7, 218640, Note_on_c, 5, 74, 120
7, 218760, Note_on_c, 5, 74, 0
7, 218880, Note_on_c, 5, 55, 120
7, 218880, Note_on_c, 5, 67, 120
7, 222660, Note_on_c, 5, 55, 0
7, 222660, Note_on_c, 5, 67, 0
7, 222720, Note_on_c, 5, 55, 120
7, 222720, Note_on_c, 5, 67, 120
7, 223200, Note_on_c, 5, 55, 0
7, 223200, Note_on_c, 5, 67, 0
7, 223440, Note_on_c, 5, 55, 120
7, 223440, Note_on_c, 5, 67, 120
7, 223560, Note_on_c, 5, 55, 0
7, 223560, Note_on_c, 5, 67, 0
7, 223680, Note_on_c, 5, 55, 120
7, 223680, Note_on_c, 5, 67, 120
7, 224160, Note_on_c, 5, 55, 0
7, 224160, Note_on_c, 5, 67, 0
7, 224400, Note_on_c, 5, 55, 120
7, 224400, Note_on_c, 5, 67, 120
7, 224520, Note_on_c, 5, 55, 0
7, 224520, Note_on_c, 5, 67, 0
7, 224640, Note_on_c, 5, 55, 120
7, 224640, Note_on_c, 5, 67, 120
7, 225120, Note_on_c, 5, 55, 0
7, 225120, Note_on_c, 5, 67, 0
7, 225360, Note_on_c, 5, 55, 120
7, 225360, Note_on_c, 5, 67, 120
7, 225480, Note_on_c, 5, 55, 0
7, 225480, Note_on_c, 5, 67, 0
7, 225600, Note_on_c, 5, 55, 120
7, 225600, Note_on_c, 5, 67, 120
7, 226080, Note_on_c, 5, 55, 0
7, 226080, Note_on_c, 5, 67, 0
7, 226320, Note_on_c, 5, 55, 120
7, 226320, Note_on_c, 5, 67, 120
7, 226440, Note_on_c, 5, 55, 0
7, 226440, Note_on_c, 5, 67, 0
7, 226560, Note_on_c, 5, 55, 120
7, 226560, Note_on_c, 5, 67, 120
7, 226950, Note_on_c, 5, 55, 0
7, 226950, Note_on_c, 5, 67, 0
7, 274560, Note_on_c, 5, 60, 110
7, 274560, Note_on_c, 5, 72, 110
7, 274890, Note_on_c, 5, 60, 0
7, 274890, Note_on_c, 5, 72, 0
7, 275280, Note_on_c, 5, 60, 110
7, 275280, Note_on_c, 5, 72, 110
7, 275400, Note_on_c, 5, 60, 0
7, 275400, Note_on_c, 5, 72, 0
7, 275520, Note_on_c, 5, 60, 110
7, 275520, Note_on_c, 5, 72, 110
7, 275850, Note_on_c, 5, 60, 0
7, 275850, Note_on_c, 5, 72, 0
7, 276240, Note_on_c, 5, 60, 110
7, 276240, Note_on_c, 5, 72, 110
7, 276360, Note_on_c, 5, 60, 0
7, 276360, Note_on_c, 5, 72, 0
7, 284160, Note_on_c, 5, 60, 110
7, 284160, Note_on_c, 5, 72, 110
7, 284490, Note_on_c, 5, 60, 0
7, 284490, Note_on_c, 5, 72, 0
7, 284880, Note_on_c, 5, 60, 110
7, 284880, Note_on_c, 5, 72, 110
7, 285000, Note_on_c, 5, 60, 0
7, 285000, Note_on_c, 5, 72, 0
7, 285120, Note_on_c, 5, 60, 110
7, 285120, Note_on_c, 5, 72, 110
7, 285450, Note_on_c, 5, 60, 0
7, 285450, Note_on_c, 5, 72, 0
7, 285840, Note_on_c, 5, 60, 110
7, 285840, Note_on_c, 5, 72, 110
7, 285960, Note_on_c, 5, 60, 0
7, 285960, Note_on_c, 5, 72, 0
7, 286080, Note_on_c, 5, 60, 110
7, 286080, Note_on_c, 5, 72, 110
7, 286410, Note_on_c, 5, 60, 0
7, 286410, Note_on_c, 5, 72, 0
7, 286800, Note_on_c, 5, 60, 110
7, 286800, Note_on_c, 5, 72, 110
7, 286920, Note_on_c, 5, 60, 0
7, 286920, Note_on_c, 5, 72, 0
7, 287040, Note_on_c, 5, 60, 110
7, 287040, Note_on_c, 5, 72, 110
7, 287370, Note_on_c, 5, 60, 0
7, 287370, Note_on_c, 5, 72, 0
7, 287760, Note_on_c, 5, 60, 110
7, 287760, Note_on_c, 5, 72, 110
7, 287880, Note_on_c, 5, 60, 0
7, 287880, Note_on_c, 5, 72, 0
7, 288000, Note_on_c, 5, 60, 110
7, 288000, Note_on_c, 5, 72, 110
7, 288330, Note_on_c, 5, 60, 0
7, 288330, Note_on_c, 5, 72, 0
7, 288720, Note_on_c, 5, 60, 110
7, 288720, Note_on_c, 5, 72, 110
7, 288840, Note_on_c, 5, 60, 0
7, 288840, Note_on_c, 5, 72, 0
7, 288960, Note_on_c, 5, 60, 110
7, 288960, Note_on_c, 5, 72, 110
7, 289290, Note_on_c, 5, 60, 0
7, 289290, Note_on_c, 5, 72, 0
7, 289680, Note_on_c, 5, 60, 110
7, 289680, Note_on_c, 5, 72, 110
7, 289800, Note_on_c, 5, 60, 0
7, 289800, Note_on_c, 5, 72, 0
7, 290880, Note_on_c, 5, 60, 110
7, 290880, Note_on_c, 5, 72, 110
7, 291210, Note_on_c, 5, 60, 0
7, 291210, Note_on_c, 5, 72, 0
7, 291600, Note_on_c, 5, 60, 110
7, 291600, Note_on_c, 5, 72, 110
7, 291720, Note_on_c, 5, 60, 0
7, 291720, Note_on_c, 5, 72, 0
7, 291840, Note_on_c, 5, 60, 110
7, 291840, Note_on_c, 5, 72, 110
7, 292170, Note_on_c, 5, 60, 0
7, 292170, Note_on_c, 5, 72, 0
7, 303360, Note_on_c, 5, 74, 110
7, 304290, Note_on_c, 5, 74, 0
7, 305280, Note_on_c, 5, 74, 110
7, 306210, Note_on_c, 5, 74, 0
7, 329760, Note_on_c, 5, 60, 127
7, 329760, Note_on_c, 5, 72, 127
7, 330210, Note_on_c, 5, 60, 0
7, 330210, Note_on_c, 5, 72, 0
7, 330240, Note_on_c, 5, 55, 120
7, 330240, Note_on_c, 5, 67, 120
7, 331560, Note_on_c, 5, 55, 0
7, 331560, Note_on_c, 5, 67, 0
7, 331680, Note_on_c, 5, 60, 127
7, 331680, Note_on_c, 5, 72, 127
7, 332130, Note_on_c, 5, 60, 0
7, 332130, Note_on_c, 5, 72, 0
7, 332160, Note_on_c, 5, 55, 120
7, 332160, Note_on_c, 5, 67, 120
7, 333480, Note_on_c, 5, 55, 0
7, 333480, Note_on_c, 5, 67, 0
7, 333600, Note_on_c, 5, 60, 127
7, 333600, Note_on_c, 5, 72, 127
7, 334050, Note_on_c, 5, 60, 0
7, 334050, Note_on_c, 5, 72, 0
7, 334080, Note_on_c, 5, 55, 120
7, 334080, Note_on_c, 5, 67, 120
7, 335400, Note_on_c, 5, 55, 0
7, 335400, Note_on_c, 5, 67, 0
7, 335520, Note_on_c, 5, 60, 127
7, 335520, Note_on_c, 5, 72, 127
7, 335970, Note_on_c, 5, 60, 0
7, 335970, Note_on_c, 5, 72, 0
7, 336000, Note_on_c, 5, 55, 120
7, 336000, Note_on_c, 5, 67, 120
7, 337320, Note_on_c, 5, 55, 0
7, 337320, Note_on_c, 5, 67, 0
7, 337440, Note_on_c, 5, 60, 127
7, 337440, Note_on_c, 5, 72, 127
7, 337890, Note_on_c, 5, 60, 0
7, 337890, Note_on_c, 5, 72, 0
7, 337920, Note_on_c, 5, 55, 120
7, 337920, Note_on_c, 5, 67, 120
7, 338400, Note_on_c, 5, 55, 0
7, 338400, Note_on_c, 5, 67, 0
7, 407040, Note_on_c, 5, 55, 100
7, 407040, Note_on_c, 5, 67, 100
7, 408450, Note_on_c, 5, 55, 0
7, 408450, Note_on_c, 5, 67, 0
7, 408480, Note_on_c, 5, 55, 100
7, 408480, Note_on_c, 5, 67, 100
7, 408930, Note_on_c, 5, 55, 0
7, 408930, Note_on_c, 5, 67, 0
7, 408960, Note_on_c, 5, 55, 100
7, 408960, Note_on_c, 5, 67, 100
7, 409410, Note_on_c, 5, 55, 0
7, 409410, Note_on_c, 5, 67, 0
7, 409440, Note_on_c, 5, 60, 100
7, 409440, Note_on_c, 5, 72, 100
7, 409890, Note_on_c, 5, 60, 0
7, 409890, Note_on_c, 5, 72, 0
7, 409920, Note_on_c, 5, 55, 100
7, 409920, Note_on_c, 5, 67, 100
7, 410370, Note_on_c, 5, 55, 0
7, 410370, Note_on_c, 5, 67, 0
7, 410400, Note_on_c, 5, 60, 100
7, 410400, Note_on_c, 5, 72, 100
7, 410730, Note_on_c, 5, 60, 0
7, 410730, Note_on_c, 5, 72, 0
7, 410880, Note_on_c, 5, 55, 100
7, 410880, Note_on_c, 5, 67, 100
7, 412290, Note_on_c, 5, 55, 0
7, 412290, Note_on_c, 5, 67, 0
7, 412320, Note_on_c, 5, 55, 100
7, 412320, Note_on_c, 5, 67, 100
7, 412770, Note_on_c, 5, 55, 0
7, 412770, Note_on_c, 5, 67, 0
7, 412800, Note_on_c, 5, 55, 100
7, 412800, Note_on_c, 5, 67, 100
7, 413250, Note_on_c, 5, 55, 0
7, 413250, Note_on_c, 5, 67, 0
7, 413280, Note_on_c, 5, 60, 100
7, 413280, Note_on_c, 5, 72, 100
7, 413730, Note_on_c, 5, 60, 0
7, 413730, Note_on_c, 5, 72, 0
7, 413760, Note_on_c, 5, 55, 100
7, 413760, Note_on_c, 5, 67, 100
7, 414210, Note_on_c, 5, 55, 0
7, 414210, Note_on_c, 5, 67, 0
7, 414240, Note_on_c, 5, 60, 100
7, 414240, Note_on_c, 5, 72, 100
7, 414570, Note_on_c, 5, 60, 0
7, 414570, Note_on_c, 5, 72, 0
7, 414720, Note_on_c, 5, 60, 100
7, 414720, Note_on_c, 5, 72, 100
7, 416130, Note_on_c, 5, 60, 0
7, 416130, Note_on_c, 5, 72, 0
7, 416160, Note_on_c, 5, 60, 100
7, 416160, Note_on_c, 5, 72, 100
7, 416610, Note_on_c, 5, 60, 0
7, 416610, Note_on_c, 5, 72, 0
7, 416640, Note_on_c, 5, 60, 100
7, 416640, Note_on_c, 5, 72, 100
7, 417090, Note_on_c, 5, 60, 0
7, 417090, Note_on_c, 5, 72, 0
7, 417120, Note_on_c, 5, 60, 100
7, 417120, Note_on_c, 5, 72, 100
7, 417570, Note_on_c, 5, 60, 0
7, 417570, Note_on_c, 5, 72, 0
7, 417600, Note_on_c, 5, 60, 100
7, 417600, Note_on_c, 5, 72, 100
7, 418050, Note_on_c, 5, 60, 0
7, 418050, Note_on_c, 5, 72, 0
7, 418080, Note_on_c, 5, 60, 100
7, 418080, Note_on_c, 5, 72, 100
7, 418410, Note_on_c, 5, 60, 0
7, 418410, Note_on_c, 5, 72, 0
7, 418560, Note_on_c, 5, 60, 100
7, 418560, Note_on_c, 5, 72, 100
7, 419970, Note_on_c, 5, 60, 0
7, 419970, Note_on_c, 5, 72, 0
7, 420000, Note_on_c, 5, 60, 100
7, 420000, Note_on_c, 5, 72, 100
7, 420450, Note_on_c, 5, 60, 0
7, 420450, Note_on_c, 5, 72, 0
7, 420480, Note_on_c, 5, 60, 100
7, 420480, Note_on_c, 5, 72, 100
7, 420930, Note_on_c, 5, 60, 0
7, 420930, Note_on_c, 5, 72, 0
7, 420960, Note_on_c, 5, 60, 100
7, 420960, Note_on_c, 5, 72, 100
7, 421410, Note_on_c, 5, 60, 0
7, 421410, Note_on_c, 5, 72, 0
7, 421440, Note_on_c, 5, 60, 100
7, 421440, Note_on_c, 5, 72, 100
7, 421890, Note_on_c, 5, 60, 0
7, 421890, Note_on_c, 5, 72, 0
7, 421920, Note_on_c, 5, 60, 100
7, 421920, Note_on_c, 5, 72, 100
7, 422370, Note_on_c, 5, 60, 0
7, 422370, Note_on_c, 5, 72, 0
7, 437760, Note_on_c, 5, 55, 80
7, 437760, Note_on_c, 5, 67, 80
7, 438210, Note_on_c, 5, 55, 0
7, 438210, Note_on_c, 5, 67, 0
7, 438720, Note_on_c, 5, 60, 80
7, 438720, Note_on_c, 5, 72, 80
7, 439170, Note_on_c, 5, 60, 0
7, 439170, Note_on_c, 5, 72, 0
7, 439680, Note_on_c, 5, 60, 80
7, 439680, Note_on_c, 5, 72, 80
7, 440130, Note_on_c, 5, 60, 0
7, 440130, Note_on_c, 5, 72, 0
7, 440640, Note_on_c, 5, 55, 80
7, 440640, Note_on_c, 5, 67, 80
7, 441090, Note_on_c, 5, 55, 0
7, 441090, Note_on_c, 5, 67, 0
7, 445200, Note_on_c, 5, 55, 100
7, 445200, Note_on_c, 5, 67, 100
7, 445320, Note_on_c, 5, 55, 0
7, 445320, Note_on_c, 5, 67, 0
7, 445440, Note_on_c, 5, 60, 100
7, 445440, Note_on_c, 5, 72, 100
7, 445770, Note_on_c, 5, 60, 0
7, 445770, Note_on_c, 5, 72, 0
7, 449040, Note_on_c, 5, 55, 100
7, 449040, Note_on_c, 5, 67, 100
7, 449160, Note_on_c, 5, 55, 0
7, 449160, Note_on_c, 5, 67, 0
7, 449280, Note_on_c, 5, 60, 100
7, 449280, Note_on_c, 5, 72, 100
7, 449610, Note_on_c, 5, 60, 0
7, 449610, Note_on_c, 5, 72, 0
7, 456960, Note_on_c, 5, 60, 100
7, 456960, Note_on_c, 5, 72, 100
7, 457410, Note_on_c, 5, 60, 0
7, 457410, Note_on_c, 5, 72, 0
7, 457680, Note_on_c, 5, 60, 100
7, 457680, Note_on_c, 5, 72, 100
7, 457800, Note_on_c, 5, 60, 0
7, 457800, Note_on_c, 5, 72, 0
7, 457920, Note_on_c, 5, 60, 100
7, 457920, Note_on_c, 5, 72, 100
7, 458370, Note_on_c, 5, 60, 0
7, 458370, Note_on_c, 5, 72, 0
7, 458640, Note_on_c, 5, 60, 100
7, 458640, Note_on_c, 5, 72, 100
7, 458760, Note_on_c, 5, 60, 0
7, 458760, Note_on_c, 5, 72, 0
7, 458880, Note_on_c, 5, 60, 100
7, 458880, Note_on_c, 5, 72, 100
7, 459330, Note_on_c, 5, 60, 0
7, 459330, Note_on_c, 5, 72, 0
7, 459600, Note_on_c, 5, 60, 100
7, 459600, Note_on_c, 5, 72, 100
7, 459720, Note_on_c, 5, 60, 0
7, 459720, Note_on_c, 5, 72, 0
7, 459840, Note_on_c, 5, 60, 100
7, 459840, Note_on_c, 5, 72, 100
7, 460290, Note_on_c, 5, 60, 0
7, 460290, Note_on_c, 5, 72, 0
7, 460560, Note_on_c, 5, 60, 100
7, 460560, Note_on_c, 5, 72, 100
7, 460680, Note_on_c, 5, 60, 0
7, 460680, Note_on_c, 5, 72, 0
7, 460800, Note_on_c, 5, 60, 100
7, 460800, Note_on_c, 5, 72, 100
7, 461250, Note_on_c, 5, 60, 0
7, 461250, Note_on_c, 5, 72, 0
7, 497280, Note_on_c, 5, 60, 110
7, 497280, Note_on_c, 5, 76, 110
7, 499197, Note_on_c, 5, 60, 0
7, 499200, Note_on_c, 5, 60, 80
7, 499200, Note_on_c, 5, 72, 80
7, 499230, Note_on_c, 5, 76, 0
7, 501117, Note_on_c, 5, 60, 0
7, 501117, Note_on_c, 5, 72, 0
7, 501120, Note_on_c, 5, 60, 87
7, 501120, Note_on_c, 5, 72, 87
7, 503037, Note_on_c, 5, 60, 0
7, 503037, Note_on_c, 5, 72, 0
7, 503040, Note_on_c, 5, 60, 95
7, 503040, Note_on_c, 5, 72, 95
7, 504957, Note_on_c, 5, 60, 0
7, 504957, Note_on_c, 5, 72, 0
7, 504960, Note_on_c, 5, 60, 102
7, 504960, Note_on_c, 5, 72, 102
7, 506877, Note_on_c, 5, 60, 0
7, 506877, Note_on_c, 5, 72, 0
7, 506880, Note_on_c, 5, 60, 127
7, 506880, Note_on_c, 5, 72, 127
7, 507510, Note_on_c, 5, 60, 0
7, 507510, Note_on_c, 5, 72, 0
7, 507600, Note_on_c, 5, 60, 127
7, 507600, Note_on_c, 5, 72, 127
7, 507720, Note_on_c, 5, 60, 0
7, 507720, Note_on_c, 5, 72, 0
7, 507840, Note_on_c, 5, 60, 127
7, 507840, Note_on_c, 5, 72, 127
7, 509430, Note_on_c, 5, 60, 0
7, 509430, Note_on_c, 5, 72, 0
7, 509520, Note_on_c, 5, 60, 127
7, 509520, Note_on_c, 5, 72, 127
7, 509640, Note_on_c, 5, 60, 0
7, 509640, Note_on_c, 5, 72, 0
7, 509760, Note_on_c, 5, 60, 127
7, 509760, Note_on_c, 5, 72, 127
7, 511350, Note_on_c, 5, 60, 0
7, 511350, Note_on_c, 5, 72, 0
7, 511440, Note_on_c, 5, 60, 127
7, 511440, Note_on_c, 5, 72, 127
7, 511560, Note_on_c, 5, 60, 0
7, 511560, Note_on_c, 5, 72, 0
7, 511680, Note_on_c, 5, 60, 127
7, 511680, Note_on_c, 5, 72, 127
7, 513270, Note_on_c, 5, 60, 0
7, 513270, Note_on_c, 5, 72, 0
7, 513360, Note_on_c, 5, 60, 127
7, 513360, Note_on_c, 5, 72, 127
7, 513480, Note_on_c, 5, 60, 0
7, 513480, Note_on_c, 5, 72, 0
7, 513600, Note_on_c, 5, 60, 127
7, 513600, Note_on_c, 5, 72, 127
7, 515190, Note_on_c, 5, 60, 0
7, 515190, Note_on_c, 5, 72, 0
7, 515280, Note_on_c, 5, 60, 127
7, 515280, Note_on_c, 5, 72, 127
7, 515400, Note_on_c, 5, 60, 0
7, 515400, Note_on_c, 5, 72, 0
7, 515520, Note_on_c, 5, 60, 127
7, 515520, Note_on_c, 5, 72, 127
7, 516450, Note_on_c, 5, 60, 0
7, 516450, Note_on_c, 5, 72, 0
7, 517200, Note_on_c, 5, 67, 127
7, 517200, Note_on_c, 5, 74, 127
7, 517320, Note_on_c, 5, 67, 0
7, 517320, Note_on_c, 5, 74, 0
7, 517440, Note_on_c, 5, 67, 127
7, 517440, Note_on_c, 5, 74, 127
7, 518370, Note_on_c, 5, 67, 0
7, 518370, Note_on_c, 5, 74, 0
7, 518400, Note_on_c, 5, 60, 110
7, 518400, Note_on_c, 5, 72, 110
7, 518850, Note_on_c, 5, 60, 0
7, 518850, Note_on_c, 5, 72, 0
7, 519360, Note_on_c, 5, 60, 110
7, 519360, Note_on_c, 5, 72, 110
7, 519810, Note_on_c, 5, 60, 0
7, 519810, Note_on_c, 5, 72, 0
7, 520320, Note_on_c, 5, 55, 110
7, 520320, Note_on_c, 5, 67, 110
7, 520770, Note_on_c, 5, 55, 0
7, 520770, Note_on_c, 5, 67, 0
7, 522240, Note_on_c, 5, 60, 110
7, 522240, Note_on_c, 5, 72, 110
7, 522690, Note_on_c, 5, 60, 0
7, 522690, Note_on_c, 5, 72, 0
7, 523200, Note_on_c, 5, 60, 110
7, 523200, Note_on_c, 5, 72, 110
7, 523650, Note_on_c, 5, 60, 0
7, 523650, Note_on_c, 5, 72, 0
7, 524160, Note_on_c, 5, 55, 110
7, 524160, Note_on_c, 5, 67, 110
7, 524610, Note_on_c, 5, 55, 0
7, 524610, Note_on_c, 5, 67, 0
7, 526080, Note_on_c, 5, 60, 110
7, 526080, Note_on_c, 5, 72, 110
7, 526410, Note_on_c, 5, 60, 0
7, 526410, Note_on_c, 5, 72, 0
7, 527040, Note_on_c, 5, 60, 110
7, 527040, Note_on_c, 5, 72, 110
7, 527370, Note_on_c, 5, 60, 0
7, 527370, Note_on_c, 5, 72, 0
7, 528000, Note_on_c, 5, 60, 110
7, 528000, Note_on_c, 5, 72, 110
7, 528330, Note_on_c, 5, 60, 0
7, 528330, Note_on_c, 5, 72, 0
7, 528960, Note_on_c, 5, 60, 110
7, 528960, Note_on_c, 5, 72, 110
7, 529290, Note_on_c, 5, 60, 0
7, 529290, Note_on_c, 5, 72, 0
7, 529920, Note_on_c, 5, 60, 80
7, 533490, Note_on_c, 5, 60, 0
7, 533760, Note_on_c, 5, 60, 100
7, 533760, Note_on_c, 5, 72, 100
7, 533970, Note_on_c, 5, 60, 0
7, 533970, Note_on_c, 5, 72, 0
7, 537600, Note_on_c, 5, 60, 80
7, 541170, Note_on_c, 5, 60, 0
7, 541440, Note_on_c, 5, 60, 100
7, 541440, Note_on_c, 5, 72, 100
7, 541650, Note_on_c, 5, 60, 0
7, 541650, Note_on_c, 5, 72, 0
7, 545280, Note_on_c, 5, 60, 80
7, 548850, Note_on_c, 5, 60, 0
7, 549120, Note_on_c, 5, 60, 100
7, 549120, Note_on_c, 5, 72, 100
7, 549330, Note_on_c, 5, 60, 0
7, 549330, Note_on_c, 5, 72, 0
7, 549600, Note_on_c, 5, 74, 100
7, 549840, Note_on_c, 5, 74, 0
7, 552960, Note_on_c, 5, 60, 80
7, 552960, Note_on_c, 5, 72, 80
7, 553170, Note_on_c, 5, 60, 0
7, 553170, Note_on_c, 5, 72, 0
7, 553440, Note_on_c, 5, 60, 80
7, 553440, Note_on_c, 5, 72, 80
7, 553650, Note_on_c, 5, 60, 0
7, 553650, Note_on_c, 5, 72, 0
7, 554880, Note_on_c, 5, 60, 80
7, 554880, Note_on_c, 5, 72, 80
7, 555090, Note_on_c, 5, 60, 0
7, 555090, Note_on_c, 5, 72, 0
7, 555360, Note_on_c, 5, 60, 80
7, 555360, Note_on_c, 5, 72, 80
7, 555570, Note_on_c, 5, 60, 0
7, 555570, Note_on_c, 5, 72, 0
7, 556800, Note_on_c, 5, 60, 75
7, 556800, Note_on_c, 5, 72, 75
7, 557160, Note_on_c, 5, 60, 0
7, 557160, Note_on_c, 5, 72, 0
7, 557760, Note_on_c, 5, 55, 73
7, 557760, Note_on_c, 5, 67, 73
7, 558120, Note_on_c, 5, 55, 0
7, 558120, Note_on_c, 5, 67, 0
7, 560640, Note_on_c, 5, 55, 65
7, 560640, Note_on_c, 5, 67, 65
7, 561060, Note_on_c, 5, 55, 0
7, 561060, Note_on_c, 5, 67, 0
7, 564480, Note_on_c, 5, 55, 40
7, 564480, Note_on_c, 5, 67, 40
7, 564870, Note_on_c, 5, 55, 0
7, 564870, Note_on_c, 5, 67, 0
7, 568320, Note_on_c, 5, 60, 40
7, 568680, Note_on_c, 5, 60, 0
7, 568680, End_track
8, 0, Start_track
8, 0, Channel_prefix, 6
8, 0, Title_t, "Timpani "
8, 0, Instrument_name_t, "Timpani "
8, 5750, Note_on_c, 6, 48, 110
8, 6200, Note_on_c, 6, 48, 0
8, 13430, Note_on_c, 6, 48, 110
8, 13880, Note_on_c, 6, 48, 0
8, 21110, Note_on_c, 6, 48, 110
8, 21560, Note_on_c, 6, 48, 0
8, 24950, Note_on_c, 6, 43, 100
8, 25400, Note_on_c, 6, 43, 0
8, 26870, Note_on_c, 6, 43, 90
8, 27320, Note_on_c, 6, 43, 0
8, 39830, Note_on_c, 6, 43, 110
8, 40280, Note_on_c, 6, 43, 0
8, 52310, Note_on_c, 6, 48, 110
8, 52760, Note_on_c, 6, 48, 0
8, 58550, Note_on_c, 6, 48, 75
8, 59000, Note_on_c, 6, 48, 0
8, 60470, Note_on_c, 6, 48, 85
8, 60920, Note_on_c, 6, 48, 0
8, 62390, Note_on_c, 6, 48, 100
8, 62840, Note_on_c, 6, 48, 0
8, 63350, Note_on_c, 6, 48, 105
8, 63800, Note_on_c, 6, 48, 0
8, 64310, Note_on_c, 6, 48, 110
8, 64760, Note_on_c, 6, 48, 0
8, 65270, Note_on_c, 6, 48, 111
8, 65330, Note_on_c, 6, 48, 0
8, 65360, Note_on_c, 6, 48, 111
8, 65420, Note_on_c, 6, 48, 0
8, 65450, Note_on_c, 6, 48, 111
8, 65510, Note_on_c, 6, 48, 0
8, 65539, Note_on_c, 6, 48, 110
8, 65599, Note_on_c, 6, 48, 0
8, 65631, Note_on_c, 6, 48, 110
8, 65691, Note_on_c, 6, 48, 0
8, 65719, Note_on_c, 6, 48, 110
8, 65779, Note_on_c, 6, 48, 0
8, 65811, Note_on_c, 6, 48, 109
8, 65871, Note_on_c, 6, 48, 0
8, 65900, Note_on_c, 6, 48, 110
8, 65960, Note_on_c, 6, 48, 0
8, 65990, Note_on_c, 6, 48, 110
8, 66050, Note_on_c, 6, 48, 0
8, 66079, Note_on_c, 6, 48, 111
8, 66139, Note_on_c, 6, 48, 0
8, 66170, Note_on_c, 6, 48, 110
8, 66230, Note_on_c, 6, 48, 0
8, 66260, Note_on_c, 6, 48, 110
8, 66320, Note_on_c, 6, 48, 0
8, 66350, Note_on_c, 6, 48, 111
8, 66410, Note_on_c, 6, 48, 0
8, 66440, Note_on_c, 6, 48, 109
8, 66500, Note_on_c, 6, 48, 0
8, 66531, Note_on_c, 6, 48, 109
8, 66591, Note_on_c, 6, 48, 0
8, 66619, Note_on_c, 6, 48, 109
8, 66679, Note_on_c, 6, 48, 0
8, 66709, Note_on_c, 6, 48, 109
8, 66769, Note_on_c, 6, 48, 0
8, 66799, Note_on_c, 6, 48, 110
8, 66859, Note_on_c, 6, 48, 0
8, 66890, Note_on_c, 6, 48, 110
8, 66950, Note_on_c, 6, 48, 0
8, 66979, Note_on_c, 6, 48, 111
8, 67039, Note_on_c, 6, 48, 0
8, 67070, Note_on_c, 6, 48, 110
8, 67130, Note_on_c, 6, 48, 0
8, 67190, Note_on_c, 6, 48, 110
8, 67640, Note_on_c, 6, 48, 0
8, 67670, Note_on_c, 6, 43, 110
8, 68120, Note_on_c, 6, 43, 0
8, 68150, Note_on_c, 6, 43, 110
8, 68600, Note_on_c, 6, 43, 0
8, 68630, Note_on_c, 6, 43, 110
8, 69080, Note_on_c, 6, 43, 0
8, 69110, Note_on_c, 6, 43, 110
8, 69560, Note_on_c, 6, 43, 0
8, 70070, Note_on_c, 6, 43, 110
8, 70520, Note_on_c, 6, 43, 0
8, 71030, Note_on_c, 6, 43, 110
8, 71480, Note_on_c, 6, 43, 0
8, 71990, Note_on_c, 6, 48, 110
8, 72440, Note_on_c, 6, 48, 0
8, 72950, Note_on_c, 6, 48, 110
8, 73400, Note_on_c, 6, 48, 0
8, 73910, Note_on_c, 6, 48, 110
8, 74360, Note_on_c, 6, 48, 0
8, 74870, Note_on_c, 6, 48, 110
8, 75320, Note_on_c, 6, 48, 0
8, 75830, Note_on_c, 6, 48, 110
8, 76280, Note_on_c, 6, 48, 0
8, 76790, Note_on_c, 6, 48, 120
8, 77240, Note_on_c, 6, 48, 0
8, 78710, Note_on_c, 6, 48, 120
8, 79160, Note_on_c, 6, 48, 0
8, 86390, Note_on_c, 6, 48, 120
8, 86840, Note_on_c, 6, 48, 0
8, 161270, Note_on_c, 6, 48, 99
8, 161330, Note_on_c, 6, 48, 0
8, 161360, Note_on_c, 6, 48, 100
8, 161420, Note_on_c, 6, 48, 0
8, 161450, Note_on_c, 6, 48, 99
8, 161510, Note_on_c, 6, 48, 0
8, 161539, Note_on_c, 6, 48, 101
8, 161599, Note_on_c, 6, 48, 0
8, 161630, Note_on_c, 6, 48, 100
8, 161690, Note_on_c, 6, 48, 0
8, 161720, Note_on_c, 6, 48, 101
8, 161780, Note_on_c, 6, 48, 0
8, 161810, Note_on_c, 6, 48, 100
8, 161870, Note_on_c, 6, 48, 0
8, 161899, Note_on_c, 6, 48, 99
8, 161959, Note_on_c, 6, 48, 0
8, 161990, Note_on_c, 6, 48, 99
8, 162050, Note_on_c, 6, 48, 0
8, 162080, Note_on_c, 6, 48, 100
8, 162140, Note_on_c, 6, 48, 0
8, 162219, Note_on_c, 6, 48, 100
8, 162669, Note_on_c, 6, 48, 0
8, 162699, Note_on_c, 6, 43, 100
8, 163149, Note_on_c, 6, 43, 0
8, 163179, Note_on_c, 6, 48, 100
8, 163629, Note_on_c, 6, 48, 0
8, 163659, Note_on_c, 6, 43, 100
8, 164109, Note_on_c, 6, 43, 0
8, 164139, Note_on_c, 6, 48, 100
8, 164589, Note_on_c, 6, 48, 0
8, 164619, Note_on_c, 6, 43, 100
8, 165069, Note_on_c, 6, 43, 0
8, 165110, Note_on_c, 6, 48, 99
8, 165170, Note_on_c, 6, 48, 0
8, 165200, Note_on_c, 6, 48, 100
8, 165260, Note_on_c, 6, 48, 0
8, 165290, Note_on_c, 6, 48, 99
8, 165350, Note_on_c, 6, 48, 0
8, 165379, Note_on_c, 6, 48, 101
8, 165439, Note_on_c, 6, 48, 0
8, 165470, Note_on_c, 6, 48, 100
8, 165530, Note_on_c, 6, 48, 0
8, 165560, Note_on_c, 6, 48, 101
8, 165620, Note_on_c, 6, 48, 0
8, 165650, Note_on_c, 6, 48, 100
8, 165710, Note_on_c, 6, 48, 0
8, 165739, Note_on_c, 6, 48, 99
8, 165799, Note_on_c, 6, 48, 0
8, 165830, Note_on_c, 6, 48, 99
8, 165890, Note_on_c, 6, 48, 0
8, 165920, Note_on_c, 6, 48, 100
8, 165980, Note_on_c, 6, 48, 0
8, 166059, Note_on_c, 6, 48, 100
8, 166509, Note_on_c, 6, 48, 0
8, 166539, Note_on_c, 6, 43, 100
8, 166989, Note_on_c, 6, 43, 0
8, 167019, Note_on_c, 6, 48, 100
8, 167469, Note_on_c, 6, 48, 0
8, 167499, Note_on_c, 6, 43, 100
8, 167949, Note_on_c, 6, 43, 0
8, 167979, Note_on_c, 6, 48, 100
8, 168429, Note_on_c, 6, 48, 0
8, 168459, Note_on_c, 6, 43, 100
8, 168909, Note_on_c, 6, 43, 0
8, 168950, Note_on_c, 6, 43, 99
8, 169010, Note_on_c, 6, 43, 0
8, 169040, Note_on_c, 6, 43, 100
8, 169100, Note_on_c, 6, 43, 0
8, 169130, Note_on_c, 6, 43, 99
8, 169190, Note_on_c, 6, 43, 0
8, 169219, Note_on_c, 6, 43, 101
8, 169279, Note_on_c, 6, 43, 0
8, 169310, Note_on_c, 6, 43, 100
8, 169370, Note_on_c, 6, 43, 0
8, 169400, Note_on_c, 6, 43, 101
8, 169460, Note_on_c, 6, 43, 0
8, 169490, Note_on_c, 6, 43, 100
8, 169550, Note_on_c, 6, 43, 0
8, 169579, Note_on_c, 6, 43, 99
8, 169639, Note_on_c, 6, 43, 0
8, 169670, Note_on_c, 6, 43, 99
8, 169730, Note_on_c, 6, 43, 0
8, 169760, Note_on_c, 6, 43, 100
8, 169820, Note_on_c, 6, 43, 0
8, 169899, Note_on_c, 6, 43, 100
8, 170349, Note_on_c, 6, 43, 0
8, 170379, Note_on_c, 6, 43, 100
8, 170829, Note_on_c, 6, 43, 0
8, 170859, Note_on_c, 6, 43, 100
8, 171309, Note_on_c, 6, 43, 0
8, 171339, Note_on_c, 6, 48, 100
8, 171789, Note_on_c, 6, 48, 0
8, 171819, Note_on_c, 6, 43, 100
8, 172269, Note_on_c, 6, 43, 0
8, 172299, Note_on_c, 6, 48, 100
8, 172749, Note_on_c, 6, 48, 0
8, 172790, Note_on_c, 6, 43, 99
8, 172850, Note_on_c, 6, 43, 0
8, 172880, Note_on_c, 6, 43, 100
8, 172940, Note_on_c, 6, 43, 0
8, 172970, Note_on_c, 6, 43, 99
8, 173030, Note_on_c, 6, 43, 0
8, 173059, Note_on_c, 6, 43, 101
8, 173119, Note_on_c, 6, 43, 0
8, 173150, Note_on_c, 6, 43, 100
8, 173210, Note_on_c, 6, 43, 0
8, 173240, Note_on_c, 6, 43, 101
8, 173300, Note_on_c, 6, 43, 0
8, 173330, Note_on_c, 6, 43, 100
8, 173390, Note_on_c, 6, 43, 0
8, 173419, Note_on_c, 6, 43, 99
8, 173479, Note_on_c, 6, 43, 0
8, 173510, Note_on_c, 6, 43, 99
8, 173570, Note_on_c, 6, 43, 0
8, 173600, Note_on_c, 6, 43, 100
8, 173660, Note_on_c, 6, 43, 0
8, 173739, Note_on_c, 6, 43, 100
8, 174189, Note_on_c, 6, 43, 0
8, 174219, Note_on_c, 6, 43, 100
8, 174669, Note_on_c, 6, 43, 0
8, 174699, Note_on_c, 6, 43, 100
8, 175149, Note_on_c, 6, 43, 0
8, 175179, Note_on_c, 6, 48, 100
8, 175629, Note_on_c, 6, 48, 0
8, 175659, Note_on_c, 6, 43, 100
8, 176109, Note_on_c, 6, 43, 0
8, 176139, Note_on_c, 6, 48, 100
8, 176589, Note_on_c, 6, 48, 0
8, 176630, Note_on_c, 6, 48, 100
8, 177080, Note_on_c, 6, 48, 0
8, 178550, Note_on_c, 6, 48, 100
8, 179000, Note_on_c, 6, 48, 0
8, 180470, Note_on_c, 6, 48, 100
8, 180920, Note_on_c, 6, 48, 0
8, 182390, Note_on_c, 6, 48, 100
8, 182840, Note_on_c, 6, 48, 0
8, 184310, Note_on_c, 6, 48, 100
8, 184760, Note_on_c, 6, 48, 0
8, 185270, Note_on_c, 6, 48, 100
8, 185720, Note_on_c, 6, 48, 0
8, 186230, Note_on_c, 6, 43, 100
8, 186680, Note_on_c, 6, 43, 0
8, 187190, Note_on_c, 6, 43, 100
8, 187640, Note_on_c, 6, 43, 0
8, 188150, Note_on_c, 6, 48, 100
8, 188600, Note_on_c, 6, 48, 0
8, 189110, Note_on_c, 6, 48, 100
8, 189560, Note_on_c, 6, 48, 0
8, 190070, Note_on_c, 6, 48, 100
8, 190520, Note_on_c, 6, 48, 0
8, 191030, Note_on_c, 6, 48, 100
8, 191480, Note_on_c, 6, 48, 0
8, 191990, Note_on_c, 6, 48, 100
8, 192440, Note_on_c, 6, 48, 0
8, 199670, Note_on_c, 6, 43, 110
8, 200120, Note_on_c, 6, 43, 0
8, 203510, Note_on_c, 6, 43, 110
8, 203960, Note_on_c, 6, 43, 0
8, 211190, Note_on_c, 6, 43, 110
8, 211640, Note_on_c, 6, 43, 0
8, 211910, Note_on_c, 6, 43, 110
8, 212120, Note_on_c, 6, 43, 0
8, 212150, Note_on_c, 6, 43, 110
8, 212600, Note_on_c, 6, 43, 0
8, 212870, Note_on_c, 6, 43, 110
8, 213080, Note_on_c, 6, 43, 0
8, 213110, Note_on_c, 6, 43, 110
8, 213560, Note_on_c, 6, 43, 0
8, 213830, Note_on_c, 6, 43, 110
8, 214040, Note_on_c, 6, 43, 0
8, 214070, Note_on_c, 6, 43, 110
8, 214520, Note_on_c, 6, 43, 0
8, 214790, Note_on_c, 6, 43, 110
8, 215000, Note_on_c, 6, 43, 0
8, 215030, Note_on_c, 6, 43, 110
8, 215480, Note_on_c, 6, 43, 0
8, 215750, Note_on_c, 6, 43, 110
8, 215960, Note_on_c, 6, 43, 0
8, 215990, Note_on_c, 6, 43, 110
8, 216440, Note_on_c, 6, 43, 0
8, 216710, Note_on_c, 6, 43, 110
8, 216920, Note_on_c, 6, 43, 0
8, 218870, Note_on_c, 6, 43, 100
8, 218930, Note_on_c, 6, 43, 0
8, 218960, Note_on_c, 6, 43, 100
8, 219020, Note_on_c, 6, 43, 0
8, 219050, Note_on_c, 6, 43, 100
8, 219110, Note_on_c, 6, 43, 0
8, 219139, Note_on_c, 6, 43, 99
8, 219199, Note_on_c, 6, 43, 0
8, 219231, Note_on_c, 6, 43, 99
8, 219291, Note_on_c, 6, 43, 0
8, 219319, Note_on_c, 6, 43, 99
8, 219379, Note_on_c, 6, 43, 0
8, 219411, Note_on_c, 6, 43, 98
8, 219471, Note_on_c, 6, 43, 0
8, 219500, Note_on_c, 6, 43, 99
8, 219560, Note_on_c, 6, 43, 0
8, 219590, Note_on_c, 6, 43, 99
8, 219650, Note_on_c, 6, 43, 0
8, 219679, Note_on_c, 6, 43, 100
8, 219739, Note_on_c, 6, 43, 0
8, 219770, Note_on_c, 6, 43, 99
8, 219830, Note_on_c, 6, 43, 0
8, 219860, Note_on_c, 6, 43, 99
8, 219920, Note_on_c, 6, 43, 0
8, 219950, Note_on_c, 6, 43, 100
8, 220010, Note_on_c, 6, 43, 0
8, 220040, Note_on_c, 6, 43, 98
8, 220100, Note_on_c, 6, 43, 0
8, 220131, Note_on_c, 6, 43, 98
8, 220191, Note_on_c, 6, 43, 0
8, 220219, Note_on_c, 6, 43, 98
8, 220279, Note_on_c, 6, 43, 0
8, 220309, Note_on_c, 6, 43, 98
8, 220369, Note_on_c, 6, 43, 0
8, 220399, Note_on_c, 6, 43, 99
8, 220459, Note_on_c, 6, 43, 0
8, 220490, Note_on_c, 6, 43, 99
8, 220550, Note_on_c, 6, 43, 0
8, 220579, Note_on_c, 6, 43, 100
8, 220639, Note_on_c, 6, 43, 0
8, 220670, Note_on_c, 6, 43, 99
8, 220730, Note_on_c, 6, 43, 0
8, 220790, Note_on_c, 6, 43, 100
8, 220850, Note_on_c, 6, 43, 0
8, 220880, Note_on_c, 6, 43, 100
8, 220940, Note_on_c, 6, 43, 0
8, 220970, Note_on_c, 6, 43, 100
8, 221030, Note_on_c, 6, 43, 0
8, 221059, Note_on_c, 6, 43, 99
8, 221119, Note_on_c, 6, 43, 0
8, 221151, Note_on_c, 6, 43, 99
8, 221211, Note_on_c, 6, 43, 0
8, 221239, Note_on_c, 6, 43, 99
8, 221299, Note_on_c, 6, 43, 0
8, 221331, Note_on_c, 6, 43, 98
8, 221391, Note_on_c, 6, 43, 0
8, 221420, Note_on_c, 6, 43, 99
8, 221480, Note_on_c, 6, 43, 0
8, 221510, Note_on_c, 6, 43, 99
8, 221570, Note_on_c, 6, 43, 0
8, 221599, Note_on_c, 6, 43, 100
8, 221659, Note_on_c, 6, 43, 0
8, 221690, Note_on_c, 6, 43, 99
8, 221750, Note_on_c, 6, 43, 0
8, 221780, Note_on_c, 6, 43, 99
8, 221840, Note_on_c, 6, 43, 0
8, 221870, Note_on_c, 6, 43, 100
8, 221930, Note_on_c, 6, 43, 0
8, 221960, Note_on_c, 6, 43, 98
8, 222020, Note_on_c, 6, 43, 0
8, 222051, Note_on_c, 6, 43, 98
8, 222111, Note_on_c, 6, 43, 0
8, 222139, Note_on_c, 6, 43, 98
8, 222199, Note_on_c, 6, 43, 0
8, 222229, Note_on_c, 6, 43, 98
8, 222289, Note_on_c, 6, 43, 0
8, 222319, Note_on_c, 6, 43, 99
8, 222379, Note_on_c, 6, 43, 0
8, 222410, Note_on_c, 6, 43, 99
8, 222470, Note_on_c, 6, 43, 0
8, 222499, Note_on_c, 6, 43, 100
8, 222559, Note_on_c, 6, 43, 0
8, 222590, Note_on_c, 6, 43, 99
8, 222650, Note_on_c, 6, 43, 0
8, 222710, Note_on_c, 6, 43, 110
8, 223160, Note_on_c, 6, 43, 0
8, 223430, Note_on_c, 6, 43, 110
8, 223640, Note_on_c, 6, 43, 0
8, 223670, Note_on_c, 6, 43, 110
8, 224120, Note_on_c, 6, 43, 0
8, 224390, Note_on_c, 6, 43, 110
8, 224600, Note_on_c, 6, 43, 0
8, 224630, Note_on_c, 6, 43, 110
8, 225080, Note_on_c, 6, 43, 0
8, 225350, Note_on_c, 6, 43, 110
8, 225560, Note_on_c, 6, 43, 0
8, 225590, Note_on_c, 6, 43, 110
8, 226040, Note_on_c, 6, 43, 0
8, 226310, Note_on_c, 6, 43, 110
8, 226520, Note_on_c, 6, 43, 0
8, 226550, Note_on_c, 6, 43, 110
8, 227000, Note_on_c, 6, 43, 0
8, 274550, Note_on_c, 6, 48, 110
8, 275000, Note_on_c, 6, 48, 0
8, 275270, Note_on_c, 6, 48, 110
8, 275480, Note_on_c, 6, 48, 0
8, 275510, Note_on_c, 6, 48, 110
8, 275960, Note_on_c, 6, 48, 0
8, 276230, Note_on_c, 6, 48, 110
8, 276440, Note_on_c, 6, 48, 0
8, 284150, Note_on_c, 6, 48, 110
8, 284600, Note_on_c, 6, 48, 0
8, 284870, Note_on_c, 6, 48, 110
8, 285080, Note_on_c, 6, 48, 0
8, 285110, Note_on_c, 6, 48, 110
8, 285560, Note_on_c, 6, 48, 0
8, 285830, Note_on_c, 6, 48, 110
8, 286040, Note_on_c, 6, 48, 0
8, 286070, Note_on_c, 6, 48, 110
8, 286520, Note_on_c, 6, 48, 0
8, 286790, Note_on_c, 6, 48, 110
8, 287000, Note_on_c, 6, 48, 0
8, 287030, Note_on_c, 6, 48, 110
8, 287480, Note_on_c, 6, 48, 0
8, 287750, Note_on_c, 6, 48, 110
8, 287960, Note_on_c, 6, 48, 0
8, 287990, Note_on_c, 6, 48, 110
8, 288440, Note_on_c, 6, 48, 0
8, 288710, Note_on_c, 6, 48, 110
8, 288920, Note_on_c, 6, 48, 0
8, 288950, Note_on_c, 6, 48, 110
8, 289400, Note_on_c, 6, 48, 0
8, 289670, Note_on_c, 6, 48, 110
8, 289880, Note_on_c, 6, 48, 0
8, 290870, Note_on_c, 6, 48, 110
8, 291290, Note_on_c, 6, 48, 0
8, 291590, Note_on_c, 6, 48, 110
8, 291800, Note_on_c, 6, 48, 0
8, 291830, Note_on_c, 6, 48, 110
8, 292250, Note_on_c, 6, 48, 0
8, 329750, Note_on_c, 6, 48, 127
8, 330200, Note_on_c, 6, 48, 0
8, 330230, Note_on_c, 6, 43, 110
8, 330680, Note_on_c, 6, 43, 0
8, 331670, Note_on_c, 6, 48, 127
8, 332120, Note_on_c, 6, 48, 0
8, 332150, Note_on_c, 6, 43, 110
8, 332600, Note_on_c, 6, 43, 0
8, 333590, Note_on_c, 6, 48, 127
8, 334040, Note_on_c, 6, 48, 0
8, 334070, Note_on_c, 6, 43, 110
8, 334520, Note_on_c, 6, 43, 0
8, 335510, Note_on_c, 6, 48, 127
8, 335960, Note_on_c, 6, 48, 0
8, 335990, Note_on_c, 6, 43, 110
8, 336440, Note_on_c, 6, 43, 0
8, 337430, Note_on_c, 6, 48, 127
8, 337880, Note_on_c, 6, 48, 0
8, 337910, Note_on_c, 6, 43, 110
8, 338360, Note_on_c, 6, 43, 0
8, 407027, Note_on_c, 6, 43, 109
8, 407087, Note_on_c, 6, 43, 0
8, 407118, Note_on_c, 6, 43, 110
8, 407178, Note_on_c, 6, 43, 0
8, 407207, Note_on_c, 6, 43, 109
8, 407267, Note_on_c, 6, 43, 0
8, 407297, Note_on_c, 6, 43, 111
8, 407357, Note_on_c, 6, 43, 0
8, 407388, Note_on_c, 6, 43, 110
8, 407448, Note_on_c, 6, 43, 0
8, 407477, Note_on_c, 6, 43, 111
8, 407537, Note_on_c, 6, 43, 0
8, 407568, Note_on_c, 6, 43, 110
8, 407628, Note_on_c, 6, 43, 0
8, 407657, Note_on_c, 6, 43, 109
8, 407717, Note_on_c, 6, 43, 0
8, 407747, Note_on_c, 6, 43, 109
8, 407807, Note_on_c, 6, 43, 0
8, 407838, Note_on_c, 6, 43, 110
8, 407898, Note_on_c, 6, 43, 0
8, 407987, Note_on_c, 6, 43, 110
8, 408437, Note_on_c, 6, 43, 0
8, 408467, Note_on_c, 6, 43, 110
8, 408917, Note_on_c, 6, 43, 0
8, 408947, Note_on_c, 6, 43, 110
8, 409397, Note_on_c, 6, 43, 0
8, 409427, Note_on_c, 6, 48, 110
8, 409877, Note_on_c, 6, 48, 0
8, 409907, Note_on_c, 6, 43, 110
8, 410357, Note_on_c, 6, 43, 0
8, 410387, Note_on_c, 6, 48, 110
8, 410837, Note_on_c, 6, 48, 0
8, 410867, Note_on_c, 6, 43, 109
8, 410927, Note_on_c, 6, 43, 0
8, 410958, Note_on_c, 6, 43, 110
8, 411018, Note_on_c, 6, 43, 0
8, 411047, Note_on_c, 6, 43, 109
8, 411107, Note_on_c, 6, 43, 0
8, 411137, Note_on_c, 6, 43, 111
8, 411197, Note_on_c, 6, 43, 0
8, 411228, Note_on_c, 6, 43, 110
8, 411288, Note_on_c, 6, 43, 0
8, 411317, Note_on_c, 6, 43, 111
8, 411377, Note_on_c, 6, 43, 0
8, 411408, Note_on_c, 6, 43, 110
8, 411468, Note_on_c, 6, 43, 0
8, 411497, Note_on_c, 6, 43, 109
8, 411557, Note_on_c, 6, 43, 0
8, 411587, Note_on_c, 6, 43, 109
8, 411647, Note_on_c, 6, 43, 0
8, 411678, Note_on_c, 6, 43, 110
8, 411738, Note_on_c, 6, 43, 0
8, 411827, Note_on_c, 6, 43, 110
8, 412277, Note_on_c, 6, 43, 0
8, 412307, Note_on_c, 6, 43, 110
8, 412757, Note_on_c, 6, 43, 0
8, 412787, Note_on_c, 6, 43, 110
8, 413237, Note_on_c, 6, 43, 0
8, 413267, Note_on_c, 6, 48, 110
8, 413717, Note_on_c, 6, 48, 0
8, 413747, Note_on_c, 6, 43, 110
8, 414197, Note_on_c, 6, 43, 0
8, 414227, Note_on_c, 6, 48, 110
8, 414677, Note_on_c, 6, 48, 0
8, 414707, Note_on_c, 6, 48, 109
8, 414767, Note_on_c, 6, 48, 0
8, 414798, Note_on_c, 6, 48, 110
8, 414858, Note_on_c, 6, 48, 0
8, 414887, Note_on_c, 6, 48, 109
8, 414947, Note_on_c, 6, 48, 0
8, 414977, Note_on_c, 6, 48, 111
8, 415037, Note_on_c, 6, 48, 0
8, 415068, Note_on_c, 6, 48, 110
8, 415128, Note_on_c, 6, 48, 0
8, 415157, Note_on_c, 6, 48, 111
8, 415217, Note_on_c, 6, 48, 0
8, 415248, Note_on_c, 6, 48, 110
8, 415308, Note_on_c, 6, 48, 0
8, 415337, Note_on_c, 6, 48, 109
8, 415397, Note_on_c, 6, 48, 0
8, 415427, Note_on_c, 6, 48, 109
8, 415487, Note_on_c, 6, 48, 0
8, 415518, Note_on_c, 6, 48, 110
8, 415578, Note_on_c, 6, 48, 0
8, 415667, Note_on_c, 6, 48, 110
8, 416117, Note_on_c, 6, 48, 0
8, 416147, Note_on_c, 6, 48, 110
8, 416597, Note_on_c, 6, 48, 0
8, 416627, Note_on_c, 6, 48, 110
8, 417077, Note_on_c, 6, 48, 0
8, 417107, Note_on_c, 6, 48, 110
8, 417557, Note_on_c, 6, 48, 0
8, 417587, Note_on_c, 6, 48, 110
8, 418037, Note_on_c, 6, 48, 0
8, 418067, Note_on_c, 6, 48, 110
8, 418517, Note_on_c, 6, 48, 0
8, 418547, Note_on_c, 6, 48, 109
8, 418607, Note_on_c, 6, 48, 0
8, 418638, Note_on_c, 6, 48, 110
8, 418698, Note_on_c, 6, 48, 0
8, 418727, Note_on_c, 6, 48, 109
8, 418787, Note_on_c, 6, 48, 0
8, 418817, Note_on_c, 6, 48, 111
8, 418877, Note_on_c, 6, 48, 0
8, 418908, Note_on_c, 6, 48, 110
8, 418968, Note_on_c, 6, 48, 0
8, 418997, Note_on_c, 6, 48, 111
8, 419057, Note_on_c, 6, 48, 0
8, 419088, Note_on_c, 6, 48, 110
8, 419148, Note_on_c, 6, 48, 0
8, 419177, Note_on_c, 6, 48, 109
8, 419237, Note_on_c, 6, 48, 0
8, 419267, Note_on_c, 6, 48, 109
8, 419327, Note_on_c, 6, 48, 0
8, 419358, Note_on_c, 6, 48, 110
8, 419418, Note_on_c, 6, 48, 0
8, 419507, Note_on_c, 6, 48, 110
8, 419957, Note_on_c, 6, 48, 0
8, 419987, Note_on_c, 6, 48, 110
8, 420437, Note_on_c, 6, 48, 0
8, 420467, Note_on_c, 6, 48, 110
8, 420917, Note_on_c, 6, 48, 0
8, 420947, Note_on_c, 6, 48, 110
8, 421397, Note_on_c, 6, 48, 0
8, 421427, Note_on_c, 6, 48, 110
8, 421877, Note_on_c, 6, 48, 0
8, 421907, Note_on_c, 6, 48, 110
8, 422357, Note_on_c, 6, 48, 0
8, 437750, Note_on_c, 6, 43, 80
8, 438200, Note_on_c, 6, 43, 0
8, 438710, Note_on_c, 6, 48, 80
8, 439160, Note_on_c, 6, 48, 0
8, 439670, Note_on_c, 6, 48, 80
8, 440120, Note_on_c, 6, 48, 0
8, 440630, Note_on_c, 6, 43, 80
8, 441080, Note_on_c, 6, 43, 0
8, 445190, Note_on_c, 6, 43, 100
8, 445400, Note_on_c, 6, 43, 0
8, 445430, Note_on_c, 6, 48, 100
8, 445880, Note_on_c, 6, 48, 0
8, 449030, Note_on_c, 6, 43, 100
8, 449240, Note_on_c, 6, 43, 0
8, 449270, Note_on_c, 6, 48, 100
8, 449720, Note_on_c, 6, 48, 0
8, 456950, Note_on_c, 6, 48, 90
8, 457400, Note_on_c, 6, 48, 0
8, 457670, Note_on_c, 6, 48, 90
8, 457880, Note_on_c, 6, 48, 0
8, 457910, Note_on_c, 6, 48, 90
8, 458360, Note_on_c, 6, 48, 0
8, 458630, Note_on_c, 6, 48, 90
8, 458840, Note_on_c, 6, 48, 0
8, 458870, Note_on_c, 6, 48, 90
8, 459320, Note_on_c, 6, 48, 0
8, 459590, Note_on_c, 6, 48, 90
8, 459800, Note_on_c, 6, 48, 0
8, 459830, Note_on_c, 6, 48, 90
8, 460280, Note_on_c, 6, 48, 0
8, 460550, Note_on_c, 6, 48, 90
8, 460760, Note_on_c, 6, 48, 0
8, 460790, Note_on_c, 6, 48, 90
8, 461240, Note_on_c, 6, 48, 0
8, 506870, Note_on_c, 6, 48, 110
8, 507320, Note_on_c, 6, 48, 0
8, 508790, Note_on_c, 6, 48, 110
8, 509240, Note_on_c, 6, 48, 0
8, 510710, Note_on_c, 6, 48, 110
8, 511160, Note_on_c, 6, 48, 0
8, 512630, Note_on_c, 6, 48, 110
8, 513080, Note_on_c, 6, 48, 0
8, 514550, Note_on_c, 6, 48, 110
8, 515000, Note_on_c, 6, 48, 0
8, 516470, Note_on_c, 6, 43, 110
8, 516920, Note_on_c, 6, 43, 0
8, 518390, Note_on_c, 6, 48, 110
8, 518840, Note_on_c, 6, 48, 0
8, 519350, Note_on_c, 6, 48, 110
8, 519800, Note_on_c, 6, 48, 0
8, 520310, Note_on_c, 6, 43, 110
8, 520760, Note_on_c, 6, 43, 0
8, 522230, Note_on_c, 6, 48, 110
8, 522680, Note_on_c, 6, 48, 0
8, 523190, Note_on_c, 6, 48, 110
8, 523640, Note_on_c, 6, 48, 0
8, 524150, Note_on_c, 6, 43, 110
8, 524600, Note_on_c, 6, 43, 0
8, 526070, Note_on_c, 6, 48, 110
8, 526520, Note_on_c, 6, 48, 0
8, 527030, Note_on_c, 6, 48, 110
8, 527480, Note_on_c, 6, 48, 0
8, 527990, Note_on_c, 6, 48, 110
8, 528440, Note_on_c, 6, 48, 0
8, 528950, Note_on_c, 6, 48, 110
8, 529400, Note_on_c, 6, 48, 0
8, 529910, Note_on_c, 6, 48, 110
8, 530360, Note_on_c, 6, 48, 0
8, 533750, Note_on_c, 6, 48, 110
8, 534200, Note_on_c, 6, 48, 0
8, 541430, Note_on_c, 6, 48, 110
8, 541880, Note_on_c, 6, 48, 0
8, 549110, Note_on_c, 6, 48, 120
8, 549560, Note_on_c, 6, 48, 0
8, 552950, Note_on_c, 6, 48, 100
8, 553400, Note_on_c, 6, 48, 0
8, 553430, Note_on_c, 6, 48, 100
8, 553880, Note_on_c, 6, 48, 0
8, 554870, Note_on_c, 6, 48, 100
8, 555320, Note_on_c, 6, 48, 0
8, 555350, Note_on_c, 6, 48, 100
8, 555800, Note_on_c, 6, 48, 0
8, 556790, Note_on_c, 6, 48, 80
8, 557240, Note_on_c, 6, 48, 0
8, 557750, Note_on_c, 6, 43, 65
8, 558200, Note_on_c, 6, 43, 0
8, 560630, Note_on_c, 6, 48, 45
8, 561080, Note_on_c, 6, 48, 0
8, 564470, Note_on_c, 6, 43, 40
8, 564920, Note_on_c, 6, 43, 0
8, 568310, Note_on_c, 6, 48, 30
8, 568760, Note_on_c, 6, 48, 0
8, 568760, End_track
9, 0, Start_track
9, 0, Channel_prefix, 7
9, 0, Title_t, "Violin I"
9, 0, Instrument_name_t, "Violino I"
9, 1912, Note_on_c, 7, 60, 127
9, 1912, Control_c, 7, 11, 80
9, 1932, Control_c, 7, 11, 79
9, 1952, Control_c, 7, 11, 78
9, 1962, Control_c, 7, 11, 77
9, 1982, Control_c, 7, 11, 76
9, 1992, Control_c, 7, 11, 75
9, 2012, Control_c, 7, 11, 74
9, 2032, Control_c, 7, 11, 73
9, 2042, Control_c, 7, 11, 72
9, 2062, Control_c, 7, 11, 71
9, 2072, Control_c, 7, 11, 70
9, 2092, Control_c, 7, 11, 69
9, 2112, Control_c, 7, 11, 68
9, 2122, Control_c, 7, 11, 67
9, 2142, Control_c, 7, 11, 66
9, 2152, Control_c, 7, 11, 65
9, 2172, Control_c, 7, 11, 64
9, 2192, Control_c, 7, 11, 63
9, 2202, Control_c, 7, 11, 62
9, 2222, Control_c, 7, 11, 61
9, 2232, Control_c, 7, 11, 60
9, 2252, Control_c, 7, 11, 59
9, 2272, Control_c, 7, 11, 58
9, 2282, Control_c, 7, 11, 57
9, 2302, Control_c, 7, 11, 56
9, 2312, Control_c, 7, 11, 55
9, 2332, Control_c, 7, 11, 54
9, 2352, Control_c, 7, 11, 53
9, 2362, Control_c, 7, 11, 52
9, 2382, Control_c, 7, 11, 51
9, 2402, Control_c, 7, 11, 50
9, 2462, Control_c, 7, 11, 51
9, 2512, Control_c, 7, 11, 52
9, 2562, Control_c, 7, 11, 53
9, 2612, Control_c, 7, 11, 54
9, 2662, Control_c, 7, 11, 55
9, 2712, Control_c, 7, 11, 56
9, 2762, Control_c, 7, 11, 57
9, 2812, Control_c, 7, 11, 58
9, 2862, Control_c, 7, 11, 59
9, 2912, Control_c, 7, 11, 60
9, 2962, Control_c, 7, 11, 61
9, 3012, Control_c, 7, 11, 62
9, 3062, Control_c, 7, 11, 63
9, 3112, Control_c, 7, 11, 64
9, 3162, Control_c, 7, 11, 65
9, 3212, Control_c, 7, 11, 66
9, 3262, Control_c, 7, 11, 67
9, 3312, Control_c, 7, 11, 68
9, 3362, Control_c, 7, 11, 69
9, 3412, Control_c, 7, 11, 70
9, 3472, Control_c, 7, 11, 71
9, 3522, Control_c, 7, 11, 72
9, 3572, Control_c, 7, 11, 73
9, 3622, Control_c, 7, 11, 74
9, 3672, Control_c, 7, 11, 75
9, 3722, Control_c, 7, 11, 76
9, 3772, Control_c, 7, 11, 77
9, 3822, Control_c, 7, 11, 78
9, 3872, Control_c, 7, 11, 79
9, 3922, Control_c, 7, 11, 80
9, 3972, Control_c, 7, 11, 81
9, 4022, Control_c, 7, 11, 82
9, 4072, Control_c, 7, 11, 83
9, 4122, Control_c, 7, 11, 84
9, 4172, Control_c, 7, 11, 85
9, 4222, Control_c, 7, 11, 86
9, 4272, Control_c, 7, 11, 87
9, 4322, Control_c, 7, 11, 88
9, 4372, Control_c, 7, 11, 89
9, 4422, Control_c, 7, 11, 90
9, 4482, Control_c, 7, 11, 91
9, 4532, Control_c, 7, 11, 92
9, 4582, Control_c, 7, 11, 93
9, 4632, Control_c, 7, 11, 94
9, 4682, Control_c, 7, 11, 95
9, 4732, Control_c, 7, 11, 96
9, 4782, Control_c, 7, 11, 97
9, 4832, Control_c, 7, 11, 98
9, 4882, Control_c, 7, 11, 99
9, 4932, Control_c, 7, 11, 100
9, 4982, Control_c, 7, 11, 101
9, 5032, Control_c, 7, 11, 102
9, 5082, Control_c, 7, 11, 103
9, 5132, Control_c, 7, 11, 104
9, 5182, Control_c, 7, 11, 105
9, 5232, Control_c, 7, 11, 106
9, 5282, Control_c, 7, 11, 107
9, 5332, Control_c, 7, 11, 108
9, 5382, Control_c, 7, 11, 109
9, 5432, Control_c, 7, 11, 110
9, 5482, Note_on_c, 7, 60, 0
9, 5752, Note_on_c, 7, 65, 127
9, 5752, Note_on_c, 7, 72, 127
9, 5752, Note_on_c, 7, 80, 127
9, 5902, Note_on_c, 7, 65, 0
9, 5902, Note_on_c, 7, 72, 0
9, 5902, Note_on_c, 7, 80, 0
9, 9587, Control_c, 7, 11, 80
9, 9592, Note_on_c, 7, 60, 127
9, 9612, Control_c, 7, 11, 79
9, 9632, Control_c, 7, 11, 78
9, 9642, Control_c, 7, 11, 77
9, 9662, Control_c, 7, 11, 76
9, 9672, Control_c, 7, 11, 75
9, 9692, Control_c, 7, 11, 74
9, 9712, Control_c, 7, 11, 73
9, 9722, Control_c, 7, 11, 72
9, 9742, Control_c, 7, 11, 71
9, 9752, Control_c, 7, 11, 70
9, 9772, Control_c, 7, 11, 69
9, 9792, Control_c, 7, 11, 68
9, 9802, Control_c, 7, 11, 67
9, 9822, Control_c, 7, 11, 66
9, 9832, Control_c, 7, 11, 65
9, 9852, Control_c, 7, 11, 64
9, 9872, Control_c, 7, 11, 63
9, 9882, Control_c, 7, 11, 62
9, 9902, Control_c, 7, 11, 61
9, 9912, Control_c, 7, 11, 60
9, 9932, Control_c, 7, 11, 59
9, 9952, Control_c, 7, 11, 58
9, 9962, Control_c, 7, 11, 57
9, 9982, Control_c, 7, 11, 56
9, 9992, Control_c, 7, 11, 55
9, 10012, Control_c, 7, 11, 54
9, 10032, Control_c, 7, 11, 53
9, 10042, Control_c, 7, 11, 52
9, 10062, Control_c, 7, 11, 51
9, 10082, Control_c, 7, 11, 50
9, 10142, Control_c, 7, 11, 51
9, 10192, Control_c, 7, 11, 52
9, 10242, Control_c, 7, 11, 53
9, 10292, Control_c, 7, 11, 54
9, 10342, Control_c, 7, 11, 55
9, 10392, Control_c, 7, 11, 56
9, 10442, Control_c, 7, 11, 57
9, 10492, Control_c, 7, 11, 58
9, 10542, Control_c, 7, 11, 59
9, 10592, Control_c, 7, 11, 60
9, 10642, Control_c, 7, 11, 61
9, 10692, Control_c, 7, 11, 62
9, 10742, Control_c, 7, 11, 63
9, 10792, Control_c, 7, 11, 64
9, 10842, Control_c, 7, 11, 65
9, 10892, Control_c, 7, 11, 66
9, 10942, Control_c, 7, 11, 67
9, 10992, Control_c, 7, 11, 68
9, 11042, Control_c, 7, 11, 69
9, 11092, Control_c, 7, 11, 70
9, 11152, Control_c, 7, 11, 71
9, 11202, Control_c, 7, 11, 72
9, 11252, Control_c, 7, 11, 73
9, 11302, Control_c, 7, 11, 74
9, 11352, Control_c, 7, 11, 75
9, 11402, Control_c, 7, 11, 76
9, 11452, Control_c, 7, 11, 77
9, 11502, Control_c, 7, 11, 78
9, 11552, Control_c, 7, 11, 79
9, 11602, Control_c, 7, 11, 80
9, 11652, Control_c, 7, 11, 81
9, 11702, Control_c, 7, 11, 82
9, 11752, Control_c, 7, 11, 83
9, 11802, Control_c, 7, 11, 84
9, 11852, Control_c, 7, 11, 85
9, 11902, Control_c, 7, 11, 86
9, 11952, Control_c, 7, 11, 87
9, 12002, Control_c, 7, 11, 88
9, 12052, Control_c, 7, 11, 89
9, 12102, Control_c, 7, 11, 90
9, 12162, Control_c, 7, 11, 91
9, 12212, Control_c, 7, 11, 92
9, 12262, Control_c, 7, 11, 93
9, 12312, Control_c, 7, 11, 94
9, 12362, Control_c, 7, 11, 95
9, 12412, Control_c, 7, 11, 96
9, 12462, Control_c, 7, 11, 97
9, 12512, Control_c, 7, 11, 98
9, 12562, Control_c, 7, 11, 99
9, 12612, Control_c, 7, 11, 100
9, 12662, Control_c, 7, 11, 101
9, 12712, Control_c, 7, 11, 102
9, 12762, Control_c, 7, 11, 103
9, 12812, Control_c, 7, 11, 104
9, 12862, Control_c, 7, 11, 105
9, 12912, Control_c, 7, 11, 106
9, 12962, Control_c, 7, 11, 107
9, 13012, Control_c, 7, 11, 108
9, 13062, Control_c, 7, 11, 109
9, 13112, Control_c, 7, 11, 110
9, 13162, Note_on_c, 7, 60, 0
9, 13432, Note_on_c, 7, 62, 127
9, 13432, Note_on_c, 7, 74, 127
9, 13432, Note_on_c, 7, 86, 100
9, 13582, Note_on_c, 7, 62, 0
9, 13582, Note_on_c, 7, 74, 0
9, 13582, Note_on_c, 7, 86, 0
9, 17267, Control_c, 7, 11, 80
9, 17272, Note_on_c, 7, 60, 127
9, 17292, Control_c, 7, 11, 79
9, 17312, Control_c, 7, 11, 78
9, 17322, Control_c, 7, 11, 77
9, 17342, Control_c, 7, 11, 76
9, 17352, Control_c, 7, 11, 75
9, 17372, Control_c, 7, 11, 74
9, 17392, Control_c, 7, 11, 73
9, 17402, Control_c, 7, 11, 72
9, 17422, Control_c, 7, 11, 71
9, 17432, Control_c, 7, 11, 70
9, 17452, Control_c, 7, 11, 69
9, 17472, Control_c, 7, 11, 68
9, 17482, Control_c, 7, 11, 67
9, 17502, Control_c, 7, 11, 66
9, 17512, Control_c, 7, 11, 65
9, 17532, Control_c, 7, 11, 64
9, 17552, Control_c, 7, 11, 63
9, 17562, Control_c, 7, 11, 62
9, 17582, Control_c, 7, 11, 61
9, 17592, Control_c, 7, 11, 60
9, 17612, Control_c, 7, 11, 59
9, 17632, Control_c, 7, 11, 58
9, 17642, Control_c, 7, 11, 57
9, 17662, Control_c, 7, 11, 56
9, 17672, Control_c, 7, 11, 55
9, 17692, Control_c, 7, 11, 54
9, 17712, Control_c, 7, 11, 53
9, 17722, Control_c, 7, 11, 52
9, 17742, Control_c, 7, 11, 51
9, 17762, Control_c, 7, 11, 50
9, 17822, Control_c, 7, 11, 51
9, 17872, Control_c, 7, 11, 52
9, 17922, Control_c, 7, 11, 53
9, 17972, Control_c, 7, 11, 54
9, 18022, Control_c, 7, 11, 55
9, 18072, Control_c, 7, 11, 56
9, 18122, Control_c, 7, 11, 57
9, 18172, Control_c, 7, 11, 58
9, 18222, Control_c, 7, 11, 59
9, 18272, Control_c, 7, 11, 60
9, 18322, Control_c, 7, 11, 61
9, 18372, Control_c, 7, 11, 62
9, 18422, Control_c, 7, 11, 63
9, 18472, Control_c, 7, 11, 64
9, 18522, Control_c, 7, 11, 65
9, 18572, Control_c, 7, 11, 66
9, 18622, Control_c, 7, 11, 67
9, 18672, Control_c, 7, 11, 68
9, 18722, Control_c, 7, 11, 69
9, 18772, Control_c, 7, 11, 70
9, 18832, Control_c, 7, 11, 71
9, 18882, Control_c, 7, 11, 72
9, 18932, Control_c, 7, 11, 73
9, 18982, Control_c, 7, 11, 74
9, 19032, Control_c, 7, 11, 75
9, 19082, Control_c, 7, 11, 76
9, 19132, Control_c, 7, 11, 77
9, 19182, Control_c, 7, 11, 78
9, 19232, Control_c, 7, 11, 79
9, 19282, Control_c, 7, 11, 80
9, 19332, Control_c, 7, 11, 81
9, 19382, Control_c, 7, 11, 82
9, 19432, Control_c, 7, 11, 83
9, 19482, Control_c, 7, 11, 84
9, 19532, Control_c, 7, 11, 85
9, 19582, Control_c, 7, 11, 86
9, 19632, Control_c, 7, 11, 87
9, 19682, Control_c, 7, 11, 88
9, 19732, Control_c, 7, 11, 89
9, 19782, Control_c, 7, 11, 90
9, 19842, Control_c, 7, 11, 91
9, 19892, Control_c, 7, 11, 92
9, 19942, Control_c, 7, 11, 93
9, 19992, Control_c, 7, 11, 94
9, 20042, Control_c, 7, 11, 95
9, 20092, Control_c, 7, 11, 96
9, 20142, Control_c, 7, 11, 97
9, 20192, Control_c, 7, 11, 98
9, 20242, Control_c, 7, 11, 99
9, 20292, Control_c, 7, 11, 100
9, 20342, Control_c, 7, 11, 101
9, 20392, Control_c, 7, 11, 102
9, 20442, Control_c, 7, 11, 103
9, 20492, Control_c, 7, 11, 104
9, 20542, Control_c, 7, 11, 105
9, 20592, Control_c, 7, 11, 106
9, 20642, Control_c, 7, 11, 107
9, 20692, Control_c, 7, 11, 108
9, 20742, Control_c, 7, 11, 109
9, 20792, Control_c, 7, 11, 110
9, 20842, Note_on_c, 7, 60, 0
9, 21112, Note_on_c, 7, 75, 127
9, 21112, Note_on_c, 7, 87, 127
9, 21262, Note_on_c, 7, 75, 0
9, 21262, Note_on_c, 7, 87, 0
9, 24952, Note_on_c, 7, 63, 127
9, 24952, Note_on_c, 7, 72, 127
9, 24952, Note_on_c, 7, 79, 127
9, 25162, Note_on_c, 7, 63, 0
9, 25162, Note_on_c, 7, 72, 0
9, 25162, Note_on_c, 7, 79, 0
9, 26872, Note_on_c, 7, 55, 127
9, 26872, Note_on_c, 7, 62, 127
9, 26872, Note_on_c, 7, 71, 127
9, 27112, Note_on_c, 7, 55, 0
9, 27112, Note_on_c, 7, 62, 0
9, 27112, Note_on_c, 7, 71, 0
9, 28792, Note_on_c, 7, 60, 80
9, 28942, Note_on_c, 7, 60, 0
9, 29032, Note_on_c, 7, 63, 80
9, 29182, Note_on_c, 7, 63, 0
9, 29272, Note_on_c, 7, 63, 80
9, 29512, Note_on_c, 7, 62, 80
9, 29542, Note_on_c, 7, 63, 0
9, 29722, Note_on_c, 7, 62, 0
9, 29752, Note_on_c, 7, 62, 80
9, 29902, Note_on_c, 7, 62, 0
9, 29992, Note_on_c, 7, 67, 80
9, 30142, Note_on_c, 7, 67, 0
9, 30232, Note_on_c, 7, 67, 80
9, 30682, Note_on_c, 7, 67, 0
9, 30712, Note_on_c, 7, 60, 80
9, 30862, Note_on_c, 7, 60, 0
9, 30952, Note_on_c, 7, 63, 80
9, 31102, Note_on_c, 7, 63, 0
9, 31192, Note_on_c, 7, 63, 80
9, 31432, Note_on_c, 7, 62, 80
9, 31462, Note_on_c, 7, 63, 0
9, 31642, Note_on_c, 7, 62, 0
9, 31672, Note_on_c, 7, 62, 80
9, 31822, Note_on_c, 7, 62, 0
9, 31912, Note_on_c, 7, 67, 80
9, 32062, Note_on_c, 7, 67, 0
9, 32152, Note_on_c, 7, 67, 80
9, 32602, Note_on_c, 7, 67, 0
9, 32632, Note_on_c, 7, 60, 80
9, 32782, Note_on_c, 7, 60, 0
9, 32872, Note_on_c, 7, 63, 80
9, 33022, Note_on_c, 7, 63, 0
9, 33112, Note_on_c, 7, 63, 80
9, 33352, Note_on_c, 7, 62, 80
9, 33382, Note_on_c, 7, 63, 0
9, 33562, Note_on_c, 7, 62, 0
9, 33592, Note_on_c, 7, 62, 80
9, 33742, Note_on_c, 7, 62, 0
9, 33832, Note_on_c, 7, 68, 80
9, 33982, Note_on_c, 7, 68, 0
9, 34072, Note_on_c, 7, 68, 80
9, 34312, Note_on_c, 7, 67, 80
9, 34342, Note_on_c, 7, 68, 0
9, 34522, Note_on_c, 7, 67, 0
9, 34552, Note_on_c, 7, 67, 80
9, 34702, Note_on_c, 7, 67, 0
9, 34792, Note_on_c, 7, 72, 80
9, 34942, Note_on_c, 7, 72, 0
9, 35032, Note_on_c, 7, 72, 80
9, 35272, Note_on_c, 7, 71, 80
9, 35302, Note_on_c, 7, 72, 0
9, 35482, Note_on_c, 7, 71, 0
9, 35512, Note_on_c, 7, 71, 80
9, 35662, Note_on_c, 7, 71, 0
9, 35752, Note_on_c, 7, 77, 80
9, 35902, Note_on_c, 7, 77, 0
9, 35992, Note_on_c, 7, 77, 80
9, 36232, Note_on_c, 7, 75, 80
9, 36262, Note_on_c, 7, 77, 0
9, 36442, Note_on_c, 7, 75, 0
9, 36472, Note_on_c, 7, 75, 80
9, 36472, Control_c, 7, 11, 80
9, 36582, Control_c, 7, 11, 81
9, 36622, Note_on_c, 7, 75, 0
9, 36692, Control_c, 7, 11, 82
9, 36712, Note_on_c, 7, 80, 82
9, 36802, Control_c, 7, 11, 83
9, 36862, Note_on_c, 7, 80, 0
9, 36912, Control_c, 7, 11, 84
9, 36952, Note_on_c, 7, 80, 84
9, 37022, Control_c, 7, 11, 85
9, 37132, Control_c, 7, 11, 86
9, 37232, Control_c, 7, 11, 87
9, 37342, Control_c, 7, 11, 88
9, 37452, Control_c, 7, 11, 89
9, 37562, Control_c, 7, 11, 90
9, 37642, Note_on_c, 7, 80, 0
9, 37672, Note_on_c, 7, 79, 90
9, 37672, Control_c, 7, 11, 91
9, 37782, Control_c, 7, 11, 92
9, 37822, Note_on_c, 7, 79, 0
9, 37882, Control_c, 7, 11, 93
9, 37912, Note_on_c, 7, 79, 92
9, 37992, Control_c, 7, 11, 94
9, 38102, Control_c, 7, 11, 95
9, 38212, Control_c, 7, 11, 96
9, 38322, Control_c, 7, 11, 97
9, 38432, Control_c, 7, 11, 98
9, 38532, Control_c, 7, 11, 99
9, 38602, Note_on_c, 7, 79, 0
9, 38632, Note_on_c, 7, 78, 99
9, 38642, Control_c, 7, 11, 100
9, 38752, Control_c, 7, 11, 101
9, 38782, Note_on_c, 7, 78, 0
9, 38862, Control_c, 7, 11, 102
9, 38872, Note_on_c, 7, 78, 101
9, 38972, Control_c, 7, 11, 103
9, 39082, Control_c, 7, 11, 104
9, 39182, Control_c, 7, 11, 105
9, 39292, Control_c, 7, 11, 106
9, 39402, Control_c, 7, 11, 107
9, 39512, Control_c, 7, 11, 108
9, 39622, Control_c, 7, 11, 109
9, 39732, Control_c, 7, 11, 110
9, 39742, Note_on_c, 7, 78, 0
9, 39832, Note_on_c, 7, 79, 127
9, 40102, Note_on_c, 7, 79, 0
9, 40309, Control_c, 7, 11, 80
9, 42232, Note_on_c, 7, 58, 80
9, 42382, Note_on_c, 7, 58, 0
9, 42472, Note_on_c, 7, 61, 80
9, 42622, Note_on_c, 7, 61, 0
9, 42712, Note_on_c, 7, 61, 80
9, 42952, Note_on_c, 7, 60, 80
9, 42982, Note_on_c, 7, 61, 0
9, 43162, Note_on_c, 7, 60, 0
9, 43192, Note_on_c, 7, 60, 80
9, 43342, Note_on_c, 7, 60, 0
9, 43432, Note_on_c, 7, 65, 80
9, 43582, Note_on_c, 7, 65, 0
9, 43672, Note_on_c, 7, 65, 80
9, 44122, Note_on_c, 7, 65, 0
9, 44152, Note_on_c, 7, 58, 80
9, 44302, Note_on_c, 7, 58, 0
9, 44392, Note_on_c, 7, 61, 80
9, 44542, Note_on_c, 7, 61, 0
9, 44632, Note_on_c, 7, 61, 80
9, 44872, Note_on_c, 7, 60, 80
9, 44902, Note_on_c, 7, 61, 0
9, 45082, Note_on_c, 7, 60, 0
9, 45112, Note_on_c, 7, 60, 80
9, 45262, Note_on_c, 7, 60, 0
9, 45352, Note_on_c, 7, 65, 80
9, 45502, Note_on_c, 7, 65, 0
9, 45592, Note_on_c, 7, 65, 80
9, 46042, Note_on_c, 7, 65, 0
9, 46072, Note_on_c, 7, 58, 80
9, 46222, Note_on_c, 7, 58, 0
9, 46312, Note_on_c, 7, 61, 80
9, 46462, Note_on_c, 7, 61, 0
9, 46552, Note_on_c, 7, 61, 80
9, 46792, Note_on_c, 7, 60, 80
9, 46822, Note_on_c, 7, 61, 0
9, 47002, Note_on_c, 7, 60, 0
9, 47032, Note_on_c, 7, 60, 80
9, 47182, Note_on_c, 7, 60, 0
9, 47272, Note_on_c, 7, 66, 80
9, 47422, Note_on_c, 7, 66, 0
9, 47512, Note_on_c, 7, 66, 80
9, 47752, Note_on_c, 7, 65, 80
9, 47782, Note_on_c, 7, 66, 0
9, 47962, Note_on_c, 7, 65, 0
9, 47992, Note_on_c, 7, 65, 80
9, 48142, Note_on_c, 7, 65, 0
9, 48232, Note_on_c, 7, 70, 80
9, 48382, Note_on_c, 7, 70, 0
9, 48472, Note_on_c, 7, 70, 80
9, 48712, Note_on_c, 7, 69, 80
9, 48742, Note_on_c, 7, 70, 0
9, 48922, Note_on_c, 7, 69, 0
9, 48952, Note_on_c, 7, 69, 80
9, 49102, Note_on_c, 7, 69, 0
9, 49192, Note_on_c, 7, 75, 80
9, 49342, Note_on_c, 7, 75, 0
9, 49432, Note_on_c, 7, 75, 80
9, 49672, Note_on_c, 7, 73, 80
9, 49702, Note_on_c, 7, 75, 0
9, 49882, Note_on_c, 7, 73, 0
9, 49912, Note_on_c, 7, 73, 80
9, 49912, Control_c, 7, 11, 80
9, 50022, Control_c, 7, 11, 81
9, 50062, Note_on_c, 7, 73, 0
9, 50132, Control_c, 7, 11, 82
9, 50152, Note_on_c, 7, 78, 82
9, 50242, Control_c, 7, 11, 83
9, 50302, Note_on_c, 7, 78, 0
9, 50352, Control_c, 7, 11, 84
9, 50392, Note_on_c, 7, 78, 84
9, 50462, Control_c, 7, 11, 85
9, 50572, Control_c, 7, 11, 86
9, 50672, Control_c, 7, 11, 87
9, 50782, Control_c, 7, 11, 88
9, 50892, Control_c, 7, 11, 89
9, 51002, Control_c, 7, 11, 90
9, 51082, Note_on_c, 7, 78, 0
9, 51112, Note_on_c, 7, 77, 90
9, 51112, Control_c, 7, 11, 91
9, 51222, Control_c, 7, 11, 92
9, 51262, Note_on_c, 7, 77, 0
9, 51322, Control_c, 7, 11, 93
9, 51352, Note_on_c, 7, 77, 92
9, 51432, Control_c, 7, 11, 94
9, 51542, Control_c, 7, 11, 95
9, 51652, Control_c, 7, 11, 96
9, 51762, Control_c, 7, 11, 97
9, 51872, Control_c, 7, 11, 98
9, 51972, Control_c, 7, 11, 99
9, 52042, Note_on_c, 7, 77, 0
9, 52072, Note_on_c, 7, 76, 99
9, 52082, Control_c, 7, 11, 100
9, 52192, Control_c, 7, 11, 101
9, 52222, Note_on_c, 7, 76, 0
9, 52302, Control_c, 7, 11, 102
9, 52312, Note_on_c, 7, 76, 127
9, 52412, Control_c, 7, 11, 103
9, 52522, Control_c, 7, 11, 104
9, 52622, Control_c, 7, 11, 105
9, 52642, Note_on_c, 7, 76, 0
9, 52732, Control_c, 7, 11, 106
9, 52842, Control_c, 7, 11, 107
9, 52952, Control_c, 7, 11, 108
9, 53062, Control_c, 7, 11, 109
9, 53172, Control_c, 7, 11, 110
9, 53749, Control_c, 7, 11, 80
9, 55912, Note_on_c, 7, 77, 90
9, 56002, Note_on_c, 7, 77, 0
9, 56152, Note_on_c, 7, 77, 90
9, 56782, Note_on_c, 7, 77, 0
9, 56872, Note_on_c, 7, 75, 90
9, 56962, Note_on_c, 7, 75, 0
9, 57112, Note_on_c, 7, 75, 90
9, 57592, Control_c, 7, 11, 80
9, 57742, Note_on_c, 7, 75, 0
9, 57832, Note_on_c, 7, 74, 90
9, 57922, Note_on_c, 7, 74, 0
9, 57962, Control_c, 7, 11, 81
9, 58072, Note_on_c, 7, 74, 91
9, 58332, Control_c, 7, 11, 83
9, 58692, Control_c, 7, 11, 84
9, 59062, Control_c, 7, 11, 86
9, 59422, Control_c, 7, 11, 87
9, 59602, Note_on_c, 7, 74, 0
9, 59752, Note_on_c, 7, 74, 98
9, 59792, Control_c, 7, 11, 89
9, 59842, Note_on_c, 7, 74, 0
9, 59992, Note_on_c, 7, 74, 99
9, 60152, Control_c, 7, 11, 90
9, 60522, Control_c, 7, 11, 92
9, 60892, Control_c, 7, 11, 93
9, 61252, Control_c, 7, 11, 95
9, 61522, Note_on_c, 7, 74, 0
9, 61622, Control_c, 7, 11, 97
9, 61672, Note_on_c, 7, 74, 114
9, 61762, Note_on_c, 7, 74, 0
9, 61912, Note_on_c, 7, 74, 115
9, 61982, Control_c, 7, 11, 98
9, 62352, Control_c, 7, 11, 100
9, 62542, Note_on_c, 7, 74, 0
9, 62632, Note_on_c, 7, 74, 118
9, 62712, Control_c, 7, 11, 101
9, 62722, Note_on_c, 7, 74, 0
9, 62872, Note_on_c, 7, 74, 119
9, 63082, Control_c, 7, 11, 103
9, 63452, Control_c, 7, 11, 104
9, 63502, Note_on_c, 7, 74, 0
9, 63592, Note_on_c, 7, 74, 122
9, 63682, Note_on_c, 7, 74, 0
9, 63812, Control_c, 7, 11, 106
9, 63832, Note_on_c, 7, 74, 123
9, 64182, Control_c, 7, 11, 107
9, 64462, Note_on_c, 7, 74, 0
9, 64542, Control_c, 7, 11, 109
9, 64552, Note_on_c, 7, 74, 126
9, 64642, Note_on_c, 7, 74, 0
9, 64792, Note_on_c, 7, 74, 127
9, 64912, Control_c, 7, 11, 110
9, 65182, Note_on_c, 7, 74, 0
9, 65272, Note_on_c, 7, 77, 127
9, 67042, Note_on_c, 7, 77, 0
9, 67192, Note_on_c, 7, 77, 127
9, 67522, Note_on_c, 7, 77, 0
9, 67672, Note_on_c, 7, 75, 127
9, 68002, Note_on_c, 7, 75, 0
9, 68152, Note_on_c, 7, 73, 127
9, 68482, Note_on_c, 7, 73, 0
9, 68632, Note_on_c, 7, 72, 127
9, 68962, Note_on_c, 7, 72, 0
9, 69112, Note_on_c, 7, 71, 127
9, 69922, Note_on_c, 7, 71, 0
9, 70072, Note_on_c, 7, 72, 127
9, 70882, Note_on_c, 7, 72, 0
9, 71032, Note_on_c, 7, 74, 127
9, 71842, Note_on_c, 7, 74, 0
9, 71992, Note_on_c, 7, 75, 127
9, 72802, Note_on_c, 7, 75, 0
9, 72952, Note_on_c, 7, 76, 127
9, 73762, Note_on_c, 7, 76, 0
9, 73912, Note_on_c, 7, 77, 127
9, 74722, Note_on_c, 7, 77, 0
9, 74872, Note_on_c, 7, 79, 127
9, 75682, Note_on_c, 7, 79, 0
9, 75832, Note_on_c, 7, 80, 127
9, 76642, Note_on_c, 7, 80, 0
9, 76792, Note_on_c, 7, 81, 110
9, 77722, Note_on_c, 7, 81, 0
9, 77752, Note_on_c, 7, 60, 110
9, 77902, Note_on_c, 7, 60, 0
9, 77992, Note_on_c, 7, 63, 110
9, 78142, Note_on_c, 7, 63, 0
9, 78232, Note_on_c, 7, 63, 110
9, 78472, Note_on_c, 7, 62, 110
9, 78502, Note_on_c, 7, 63, 0
9, 78682, Note_on_c, 7, 62, 0
9, 78712, Note_on_c, 7, 81, 110
9, 79642, Note_on_c, 7, 81, 0
9, 79672, Note_on_c, 7, 60, 110
9, 79822, Note_on_c, 7, 60, 0
9, 79912, Note_on_c, 7, 63, 110
9, 80062, Note_on_c, 7, 63, 0
9, 80152, Note_on_c, 7, 63, 110
9, 80392, Note_on_c, 7, 62, 110
9, 80422, Note_on_c, 7, 63, 0
9, 80602, Note_on_c, 7, 62, 0
9, 80632, Note_on_c, 7, 80, 110
9, 81562, Note_on_c, 7, 80, 0
9, 81592, Note_on_c, 7, 59, 110
9, 81742, Note_on_c, 7, 59, 0
9, 81832, Note_on_c, 7, 62, 110
9, 81982, Note_on_c, 7, 62, 0
9, 82072, Note_on_c, 7, 62, 110
9, 82312, Note_on_c, 7, 60, 110
9, 82342, Note_on_c, 7, 62, 0
9, 82522, Note_on_c, 7, 60, 0
9, 82552, Note_on_c, 7, 80, 110
9, 83482, Note_on_c, 7, 80, 0
9, 83512, Note_on_c, 7, 59, 110
9, 83662, Note_on_c, 7, 59, 0
9, 83752, Note_on_c, 7, 62, 110
9, 83902, Note_on_c, 7, 62, 0
9, 83992, Note_on_c, 7, 62, 110
9, 84232, Note_on_c, 7, 60, 110
9, 84262, Note_on_c, 7, 62, 0
9, 84442, Note_on_c, 7, 60, 0
9, 84472, Note_on_c, 7, 79, 110
9, 86362, Note_on_c, 7, 79, 0
9, 86392, Note_on_c, 7, 78, 110
9, 88282, Note_on_c, 7, 78, 0
9, 88312, Note_on_c, 7, 77, 110
9, 89722, Note_on_c, 7, 77, 0
9, 89752, Note_on_c, 7, 78, 120
9, 90232, Note_on_c, 7, 77, 110
9, 90262, Note_on_c, 7, 78, 0
9, 91642, Note_on_c, 7, 77, 0
9, 91672, Note_on_c, 7, 78, 120
9, 92152, Note_on_c, 7, 77, 110
9, 92182, Note_on_c, 7, 78, 0
9, 93562, Note_on_c, 7, 77, 0
9, 93592, Note_on_c, 7, 78, 120
9, 94072, Note_on_c, 7, 77, 110
9, 94102, Note_on_c, 7, 78, 0
9, 95482, Note_on_c, 7, 77, 0
9, 95512, Note_on_c, 7, 78, 120
9, 95992, Note_on_c, 7, 77, 110
9, 96022, Note_on_c, 7, 78, 0
9, 96712, Control_c, 7, 11, 127
9, 96742, Control_c, 7, 11, 126
9, 96762, Control_c, 7, 11, 125
9, 96782, Control_c, 7, 11, 124
9, 96802, Control_c, 7, 11, 123
9, 96822, Control_c, 7, 11, 122
9, 96852, Control_c, 7, 11, 121
9, 96872, Control_c, 7, 11, 120
9, 96892, Control_c, 7, 11, 119
9, 96912, Control_c, 7, 11, 118
9, 96932, Control_c, 7, 11, 117
9, 96952, Control_c, 7, 11, 116
9, 96982, Control_c, 7, 11, 115
9, 97002, Control_c, 7, 11, 114
9, 97022, Control_c, 7, 11, 113
9, 97042, Control_c, 7, 11, 112
9, 97062, Control_c, 7, 11, 111
9, 97092, Control_c, 7, 11, 110
9, 97112, Control_c, 7, 11, 109
9, 97132, Control_c, 7, 11, 108
9, 97152, Control_c, 7, 11, 107
9, 97172, Control_c, 7, 11, 106
9, 97192, Control_c, 7, 11, 105
9, 97222, Control_c, 7, 11, 104
9, 97242, Control_c, 7, 11, 103
9, 97262, Control_c, 7, 11, 102
9, 97282, Control_c, 7, 11, 101
9, 97302, Control_c, 7, 11, 100
9, 97332, Control_c, 7, 11, 99
9, 97352, Control_c, 7, 11, 98
9, 97372, Control_c, 7, 11, 97
9, 97392, Control_c, 7, 11, 96
9, 97412, Control_c, 7, 11, 95
9, 97432, Control_c, 7, 11, 94
9, 97462, Control_c, 7, 11, 93
9, 97482, Control_c, 7, 11, 92
9, 97502, Control_c, 7, 11, 91
9, 97522, Control_c, 7, 11, 90
9, 97542, Control_c, 7, 11, 89
9, 97572, Control_c, 7, 11, 88
9, 97592, Control_c, 7, 11, 87
9, 97612, Control_c, 7, 11, 86
9, 97632, Control_c, 7, 11, 85
9, 97652, Control_c, 7, 11, 84
9, 97672, Control_c, 7, 11, 83
9, 97702, Control_c, 7, 11, 82
9, 97722, Control_c, 7, 11, 81
9, 97742, Control_c, 7, 11, 80
9, 97762, Control_c, 7, 11, 79
9, 97782, Control_c, 7, 11, 78
9, 97812, Control_c, 7, 11, 77
9, 97832, Control_c, 7, 11, 76
9, 97852, Control_c, 7, 11, 75
9, 97872, Control_c, 7, 11, 74
9, 97892, Control_c, 7, 11, 73
9, 97912, Control_c, 7, 11, 72
9, 97942, Control_c, 7, 11, 71
9, 97962, Control_c, 7, 11, 70
9, 97982, Control_c, 7, 11, 69
9, 98002, Control_c, 7, 11, 68
9, 98022, Control_c, 7, 11, 67
9, 98052, Control_c, 7, 11, 66
9, 98072, Control_c, 7, 11, 65
9, 98092, Control_c, 7, 11, 64
9, 98112, Control_c, 7, 11, 63
9, 98132, Control_c, 7, 11, 62
9, 98152, Control_c, 7, 11, 61
9, 98182, Control_c, 7, 11, 60
9, 98202, Control_c, 7, 11, 59
9, 98222, Control_c, 7, 11, 58
9, 98242, Control_c, 7, 11, 57
9, 98262, Control_c, 7, 11, 56
9, 98292, Control_c, 7, 11, 55
9, 98312, Control_c, 7, 11, 54
9, 98332, Control_c, 7, 11, 53
9, 98352, Control_c, 7, 11, 52
9, 98372, Control_c, 7, 11, 51
9, 98392, Note_on_c, 7, 74, 100
9, 98422, Note_on_c, 7, 77, 0
9, 98452, Control_c, 7, 11, 51
9, 98512, Control_c, 7, 11, 52
9, 98572, Control_c, 7, 11, 53
9, 98632, Control_c, 7, 11, 54
9, 98692, Control_c, 7, 11, 55
9, 98752, Control_c, 7, 11, 56
9, 98812, Control_c, 7, 11, 57
9, 98872, Note_on_c, 7, 70, 95
9, 98872, Control_c, 7, 11, 58
9, 98902, Note_on_c, 7, 74, 0
9, 98932, Control_c, 7, 11, 59
9, 98992, Control_c, 7, 11, 60
9, 99052, Control_c, 7, 11, 61
9, 99112, Control_c, 7, 11, 62
9, 99172, Control_c, 7, 11, 63
9, 99232, Control_c, 7, 11, 64
9, 99292, Control_c, 7, 11, 65
9, 99352, Note_on_c, 7, 68, 90
9, 99352, Control_c, 7, 11, 66
9, 99382, Note_on_c, 7, 70, 0
9, 99412, Control_c, 7, 11, 67
9, 99472, Control_c, 7, 11, 68
9, 99532, Control_c, 7, 11, 69
9, 99592, Control_c, 7, 11, 70
9, 99652, Control_c, 7, 11, 71
9, 99712, Control_c, 7, 11, 72
9, 99772, Control_c, 7, 11, 73
9, 99802, Note_on_c, 7, 68, 0
9, 99832, Note_on_c, 7, 67, 80
9, 99832, Control_c, 7, 11, 80
9, 100602, Control_c, 7, 11, 81
9, 101272, Note_on_c, 7, 68, 80
9, 101302, Note_on_c, 7, 67, 0
9, 101372, Control_c, 7, 11, 82
9, 101752, Note_on_c, 7, 67, 80
9, 101782, Note_on_c, 7, 68, 0
9, 102132, Control_c, 7, 11, 83
9, 102232, Note_on_c, 7, 65, 80
9, 102262, Note_on_c, 7, 67, 0
9, 102712, Note_on_c, 7, 62, 80
9, 102742, Note_on_c, 7, 65, 0
9, 102902, Control_c, 7, 11, 84
9, 103192, Note_on_c, 7, 58, 80
9, 103222, Note_on_c, 7, 62, 0
9, 103642, Note_on_c, 7, 58, 0
9, 103672, Note_on_c, 7, 70, 80
9, 103672, Control_c, 7, 11, 85
9, 104432, Control_c, 7, 11, 86
9, 105112, Note_on_c, 7, 72, 80
9, 105142, Note_on_c, 7, 70, 0
9, 105202, Control_c, 7, 11, 87
9, 105592, Note_on_c, 7, 70, 80
9, 105622, Note_on_c, 7, 72, 0
9, 105972, Control_c, 7, 11, 88
9, 106552, Note_on_c, 7, 68, 80
9, 106582, Note_on_c, 7, 70, 0
9, 106732, Control_c, 7, 11, 89
9, 107482, Note_on_c, 7, 68, 0
9, 107502, Control_c, 7, 11, 90
9, 107992, Note_on_c, 7, 70, 70
9, 107992, Note_on_c, 7, 82, 70
9, 108272, Control_c, 7, 11, 91
9, 108922, Note_on_c, 7, 70, 0
9, 108922, Note_on_c, 7, 82, 0
9, 108952, Note_on_c, 7, 70, 72
9, 108952, Note_on_c, 7, 82, 72
9, 109032, Control_c, 7, 11, 92
9, 109802, Control_c, 7, 11, 93
9, 109882, Note_on_c, 7, 70, 0
9, 109882, Note_on_c, 7, 82, 0
9, 109912, Note_on_c, 7, 70, 74
9, 109912, Note_on_c, 7, 82, 74
9, 110572, Control_c, 7, 11, 94
9, 110842, Note_on_c, 7, 70, 0
9, 110842, Note_on_c, 7, 82, 0
9, 110872, Note_on_c, 7, 70, 76
9, 110872, Note_on_c, 7, 82, 76
9, 111332, Control_c, 7, 11, 95
9, 111352, Note_on_c, 7, 70, 0
9, 111802, Note_on_c, 7, 82, 0
9, 111832, Note_on_c, 7, 82, 78
9, 112102, Control_c, 7, 11, 96
9, 112762, Note_on_c, 7, 82, 0
9, 112792, Note_on_c, 7, 70, 80
9, 112792, Note_on_c, 7, 82, 80
9, 112872, Control_c, 7, 11, 97
9, 113272, Note_on_c, 7, 70, 0
9, 113632, Control_c, 7, 11, 98
9, 113722, Note_on_c, 7, 82, 0
9, 113752, Note_on_c, 7, 82, 82
9, 114232, Note_on_c, 7, 70, 83
9, 114402, Control_c, 7, 11, 99
9, 114682, Note_on_c, 7, 70, 0
9, 114682, Note_on_c, 7, 82, 0
9, 114712, Note_on_c, 7, 70, 85
9, 114712, Note_on_c, 7, 82, 85
9, 115162, Note_on_c, 7, 70, 0
9, 115162, Note_on_c, 7, 82, 0
9, 115192, Note_on_c, 7, 82, 90
9, 115192, Control_c, 7, 11, 101
9, 115342, Control_c, 7, 11, 102
9, 115482, Control_c, 7, 11, 103
9, 115622, Control_c, 7, 11, 104
9, 115670, Note_on_c, 7, 82, 0
9, 115672, Note_on_c, 7, 82, 94
9, 115762, Control_c, 7, 11, 105
9, 115912, Control_c, 7, 11, 106
9, 116052, Control_c, 7, 11, 107
9, 116150, Note_on_c, 7, 82, 0
9, 116152, Note_on_c, 7, 82, 99
9, 116192, Control_c, 7, 11, 108
9, 116332, Control_c, 7, 11, 109
9, 116472, Control_c, 7, 11, 110
9, 116622, Control_c, 7, 11, 111
9, 116630, Note_on_c, 7, 82, 0
9, 116632, Note_on_c, 7, 82, 103
9, 116762, Control_c, 7, 11, 112
9, 116902, Control_c, 7, 11, 113
9, 117042, Control_c, 7, 11, 114
9, 117110, Note_on_c, 7, 82, 0
9, 117112, Note_on_c, 7, 82, 108
9, 117192, Control_c, 7, 11, 115
9, 117332, Control_c, 7, 11, 116
9, 117472, Control_c, 7, 11, 117
9, 117590, Note_on_c, 7, 82, 0
9, 117592, Note_on_c, 7, 82, 113
9, 117612, Control_c, 7, 11, 118
9, 117752, Control_c, 7, 11, 119
9, 117902, Control_c, 7, 11, 120
9, 118042, Control_c, 7, 11, 121
9, 118070, Note_on_c, 7, 82, 0
9, 118072, Note_on_c, 7, 82, 117
9, 118182, Control_c, 7, 11, 122
9, 118322, Control_c, 7, 11, 123
9, 118472, Control_c, 7, 11, 124
9, 118550, Note_on_c, 7, 82, 0
9, 118552, Note_on_c, 7, 82, 122
9, 118612, Control_c, 7, 11, 125
9, 118752, Control_c, 7, 11, 126
9, 118892, Control_c, 7, 11, 127
9, 119030, Note_on_c, 7, 82, 0
9, 119032, Note_on_c, 7, 82, 127
9, 119962, Note_on_c, 7, 82, 0
9, 119992, Note_on_c, 7, 85, 127
9, 120922, Note_on_c, 7, 85, 0
9, 120952, Note_on_c, 7, 84, 127
9, 121882, Note_on_c, 7, 84, 0
9, 121912, Note_on_c, 7, 82, 127
9, 122782, Note_on_c, 7, 82, 0
9, 122869, Control_c, 7, 11, 100
9, 122872, Note_on_c, 7, 80, 75
9, 124312, Note_on_c, 7, 82, 75
9, 124342, Note_on_c, 7, 80, 0
9, 124792, Note_on_c, 7, 80, 75
9, 124822, Note_on_c, 7, 82, 0
9, 125272, Note_on_c, 7, 79, 75
9, 125302, Note_on_c, 7, 80, 0
9, 125752, Note_on_c, 7, 76, 75
9, 125782, Note_on_c, 7, 79, 0
9, 126232, Note_on_c, 7, 72, 75
9, 126262, Note_on_c, 7, 76, 0
9, 126682, Note_on_c, 7, 72, 0
9, 126712, Note_on_c, 7, 84, 75
9, 128152, Note_on_c, 7, 85, 75
9, 128182, Note_on_c, 7, 84, 0
9, 128632, Note_on_c, 7, 84, 75
9, 128662, Note_on_c, 7, 85, 0
9, 129592, Note_on_c, 7, 82, 75
9, 129622, Note_on_c, 7, 84, 0
9, 130522, Note_on_c, 7, 82, 0
9, 130552, Note_on_c, 7, 80, 90
9, 130552, Control_c, 7, 11, 101
9, 130642, Note_on_c, 7, 80, 0
9, 130672, Note_on_c, 7, 84, 90
9, 130702, Control_c, 7, 11, 102
9, 130842, Control_c, 7, 11, 103
9, 130982, Control_c, 7, 11, 104
9, 131030, Note_on_c, 7, 84, 0
9, 131032, Note_on_c, 7, 84, 93
9, 131122, Control_c, 7, 11, 105
9, 131272, Control_c, 7, 11, 106
9, 131412, Control_c, 7, 11, 107
9, 131510, Note_on_c, 7, 84, 0
9, 131512, Note_on_c, 7, 84, 97
9, 131552, Control_c, 7, 11, 108
9, 131692, Control_c, 7, 11, 109
9, 131832, Control_c, 7, 11, 110
9, 131982, Control_c, 7, 11, 111
9, 131990, Note_on_c, 7, 84, 0
9, 131992, Note_on_c, 7, 84, 101
9, 132122, Control_c, 7, 11, 112
9, 132262, Control_c, 7, 11, 113
9, 132402, Control_c, 7, 11, 114
9, 132470, Note_on_c, 7, 84, 0
9, 132472, Note_on_c, 7, 84, 104
9, 132552, Control_c, 7, 11, 115
9, 132692, Control_c, 7, 11, 116
9, 132832, Control_c, 7, 11, 117
9, 132950, Note_on_c, 7, 84, 0
9, 132952, Note_on_c, 7, 84, 108
9, 132972, Control_c, 7, 11, 118
9, 133112, Control_c, 7, 11, 119
9, 133262, Control_c, 7, 11, 120
9, 133402, Control_c, 7, 11, 121
9, 133430, Note_on_c, 7, 84, 0
9, 133432, Note_on_c, 7, 84, 112
9, 133542, Control_c, 7, 11, 122
9, 133682, Control_c, 7, 11, 123
9, 133832, Control_c, 7, 11, 124
9, 133910, Note_on_c, 7, 84, 0
9, 133912, Note_on_c, 7, 84, 115
9, 133972, Control_c, 7, 11, 125
9, 134112, Control_c, 7, 11, 126
9, 134252, Control_c, 7, 11, 127
9, 134390, Note_on_c, 7, 84, 0
9, 134392, Note_on_c, 7, 84, 119
9, 135352, Note_on_c, 7, 84, 0
9, 135352, Note_on_c, 7, 87, 127
9, 136312, Note_on_c, 7, 86, 127
9, 136312, Note_on_c, 7, 87, 0
9, 137272, Note_on_c, 7, 84, 127
9, 137272, Note_on_c, 7, 86, 0
9, 138142, Note_on_c, 7, 84, 0
9, 138229, Control_c, 7, 11, 100
9, 138232, Note_on_c, 7, 82, 75
9, 139672, Note_on_c, 7, 84, 75
9, 139702, Note_on_c, 7, 82, 0
9, 140152, Note_on_c, 7, 82, 75
9, 140182, Note_on_c, 7, 84, 0
9, 140632, Note_on_c, 7, 81, 75
9, 140662, Note_on_c, 7, 82, 0
9, 141112, Note_on_c, 7, 78, 75
9, 141142, Note_on_c, 7, 81, 0
9, 141592, Note_on_c, 7, 74, 75
9, 141622, Note_on_c, 7, 78, 0
9, 142042, Note_on_c, 7, 74, 0
9, 142072, Note_on_c, 7, 86, 100
9, 142552, Note_on_c, 7, 80, 95
9, 142582, Note_on_c, 7, 86, 0
9, 143032, Note_on_c, 7, 79, 90
9, 143062, Note_on_c, 7, 80, 0
9, 143512, Note_on_c, 7, 77, 85
9, 143542, Note_on_c, 7, 79, 0
9, 143962, Note_on_c, 7, 77, 0
9, 143992, Control_c, 7, 11, 80
9, 144232, Note_on_c, 7, 75, 90
9, 144472, Note_on_c, 7, 72, 90
9, 144502, Note_on_c, 7, 75, 0
9, 144712, Note_on_c, 7, 75, 90
9, 144742, Note_on_c, 7, 72, 0
9, 144922, Note_on_c, 7, 75, 0
9, 145192, Note_on_c, 7, 74, 90
9, 145432, Note_on_c, 7, 70, 90
9, 145462, Note_on_c, 7, 74, 0
9, 145672, Note_on_c, 7, 74, 90
9, 145702, Note_on_c, 7, 70, 0
9, 145882, Note_on_c, 7, 74, 0
9, 146152, Note_on_c, 7, 72, 90
9, 146392, Note_on_c, 7, 67, 90
9, 146422, Note_on_c, 7, 72, 0
9, 146632, Note_on_c, 7, 72, 90
9, 146662, Note_on_c, 7, 67, 0
9, 146842, Note_on_c, 7, 72, 0
9, 147112, Note_on_c, 7, 70, 90
9, 147352, Note_on_c, 7, 67, 90
9, 147382, Note_on_c, 7, 70, 0
9, 147592, Note_on_c, 7, 70, 90
9, 147622, Note_on_c, 7, 67, 0
9, 147802, Note_on_c, 7, 70, 0
9, 148072, Note_on_c, 7, 69, 90
9, 148312, Note_on_c, 7, 67, 90
9, 148342, Note_on_c, 7, 69, 0
9, 148552, Note_on_c, 7, 69, 90
9, 148582, Note_on_c, 7, 67, 0
9, 148762, Note_on_c, 7, 69, 0
9, 149032, Note_on_c, 7, 70, 90
9, 149272, Note_on_c, 7, 67, 90
9, 149302, Note_on_c, 7, 70, 0
9, 149512, Note_on_c, 7, 70, 90
9, 149542, Note_on_c, 7, 67, 0
9, 149722, Note_on_c, 7, 70, 0
9, 149752, Note_on_c, 7, 66, 80
9, 149872, Note_on_c, 7, 66, 0
9, 149992, Note_on_c, 7, 69, 80
9, 150112, Note_on_c, 7, 69, 0
9, 150232, Note_on_c, 7, 69, 80
9, 150802, Note_on_c, 7, 69, 0
9, 150952, Note_on_c, 7, 69, 80
9, 151072, Note_on_c, 7, 69, 0
9, 151192, Note_on_c, 7, 69, 80
9, 151762, Note_on_c, 7, 69, 0
9, 151912, Note_on_c, 7, 69, 80
9, 152032, Note_on_c, 7, 69, 0
9, 152152, Note_on_c, 7, 69, 80
9, 152722, Note_on_c, 7, 69, 0
9, 152872, Note_on_c, 7, 69, 80
9, 152992, Note_on_c, 7, 69, 0
9, 153112, Note_on_c, 7, 69, 80
9, 153592, Control_c, 7, 11, 81
9, 153682, Note_on_c, 7, 69, 0
9, 153762, Control_c, 7, 11, 82
9, 153832, Note_on_c, 7, 70, 81
9, 153922, Control_c, 7, 11, 83
9, 153952, Note_on_c, 7, 70, 0
9, 154072, Note_on_c, 7, 70, 83
9, 154082, Control_c, 7, 11, 84
9, 154242, Control_c, 7, 11, 85
9, 154412, Control_c, 7, 11, 86
9, 154572, Control_c, 7, 11, 87
9, 154642, Note_on_c, 7, 70, 0
9, 154732, Control_c, 7, 11, 88
9, 154792, Note_on_c, 7, 70, 87
9, 154892, Control_c, 7, 11, 89
9, 154912, Note_on_c, 7, 70, 0
9, 155032, Note_on_c, 7, 70, 89
9, 155052, Control_c, 7, 11, 90
9, 155222, Control_c, 7, 11, 91
9, 155382, Control_c, 7, 11, 92
9, 155542, Control_c, 7, 11, 93
9, 155602, Note_on_c, 7, 70, 0
9, 155702, Control_c, 7, 11, 94
9, 155752, Note_on_c, 7, 70, 94
9, 155862, Control_c, 7, 11, 95
9, 155872, Note_on_c, 7, 70, 0
9, 155992, Note_on_c, 7, 70, 95
9, 156032, Control_c, 7, 11, 96
9, 156192, Control_c, 7, 11, 97
9, 156352, Control_c, 7, 11, 98
9, 156512, Control_c, 7, 11, 99
9, 156562, Note_on_c, 7, 70, 0
9, 156682, Control_c, 7, 11, 100
9, 156712, Note_on_c, 7, 70, 100
9, 156832, Note_on_c, 7, 70, 0
9, 156842, Control_c, 7, 11, 101
9, 156952, Note_on_c, 7, 70, 101
9, 157002, Control_c, 7, 11, 102
9, 157162, Control_c, 7, 11, 103
9, 157322, Control_c, 7, 11, 104
9, 157492, Control_c, 7, 11, 105
9, 157522, Note_on_c, 7, 70, 0
9, 157652, Control_c, 7, 11, 106
9, 157672, Note_on_c, 7, 72, 106
9, 157792, Note_on_c, 7, 72, 0
9, 157812, Control_c, 7, 11, 107
9, 157912, Note_on_c, 7, 72, 108
9, 157972, Control_c, 7, 11, 108
9, 158132, Control_c, 7, 11, 109
9, 158302, Control_c, 7, 11, 110
9, 158462, Control_c, 7, 11, 111
9, 158482, Note_on_c, 7, 72, 0
9, 158622, Control_c, 7, 11, 112
9, 158632, Note_on_c, 7, 72, 112
9, 158752, Note_on_c, 7, 72, 0
9, 158782, Control_c, 7, 11, 113
9, 158872, Note_on_c, 7, 72, 114
9, 158952, Control_c, 7, 11, 114
9, 159112, Control_c, 7, 11, 115
9, 159272, Control_c, 7, 11, 116
9, 159432, Control_c, 7, 11, 117
9, 159442, Note_on_c, 7, 72, 0
9, 159592, Note_on_c, 7, 74, 119
9, 159592, Control_c, 7, 11, 118
9, 159712, Note_on_c, 7, 74, 0
9, 159762, Control_c, 7, 11, 119
9, 159832, Note_on_c, 7, 74, 120
9, 159922, Control_c, 7, 11, 120
9, 160082, Control_c, 7, 11, 121
9, 160242, Control_c, 7, 11, 122
9, 160402, Note_on_c, 7, 74, 0
9, 160402, Control_c, 7, 11, 123
9, 160552, Note_on_c, 7, 74, 125
9, 160572, Control_c, 7, 11, 124
9, 160672, Note_on_c, 7, 74, 0
9, 160732, Control_c, 7, 11, 125
9, 160792, Note_on_c, 7, 74, 127
9, 160892, Control_c, 7, 11, 126
9, 161052, Control_c, 7, 11, 127
9, 161122, Note_on_c, 7, 74, 0
9, 161272, Note_on_c, 7, 75, 127
9, 162712, Note_on_c, 7, 74, 127
9, 162712, Note_on_c, 7, 75, 0
9, 163192, Note_on_c, 7, 74, 0
9, 163192, Note_on_c, 7, 78, 127
9, 163672, Note_on_c, 7, 78, 0
9, 163672, Note_on_c, 7, 79, 127
9, 164152, Note_on_c, 7, 78, 127
9, 164152, Note_on_c, 7, 79, 0
9, 164632, Note_on_c, 7, 78, 0
9, 164632, Note_on_c, 7, 79, 127
9, 164962, Note_on_c, 7, 79, 0
9, 165112, Note_on_c, 7, 75, 127
9, 166552, Note_on_c, 7, 74, 127
9, 166552, Note_on_c, 7, 75, 0
9, 167032, Note_on_c, 7, 74, 0
9, 167032, Note_on_c, 7, 78, 127
9, 167512, Note_on_c, 7, 78, 0
9, 167512, Note_on_c, 7, 79, 127
9, 167992, Note_on_c, 7, 78, 127
9, 167992, Note_on_c, 7, 79, 0
9, 168472, Note_on_c, 7, 78, 0
9, 168472, Note_on_c, 7, 79, 127
9, 168802, Note_on_c, 7, 79, 0
9, 168952, Note_on_c, 7, 80, 127
9, 170392, Note_on_c, 7, 79, 127
9, 170392, Note_on_c, 7, 80, 0
9, 170872, Note_on_c, 7, 79, 0
9, 170872, Note_on_c, 7, 83, 127
9, 171352, Note_on_c, 7, 83, 0
9, 171352, Note_on_c, 7, 84, 127
9, 171832, Note_on_c, 7, 83, 127
9, 171832, Note_on_c, 7, 84, 0
9, 172312, Note_on_c, 7, 83, 0
9, 172312, Note_on_c, 7, 84, 127
9, 172642, Note_on_c, 7, 84, 0
9, 172792, Note_on_c, 7, 80, 127
9, 174232, Note_on_c, 7, 79, 127
9, 174232, Note_on_c, 7, 80, 0
9, 174712, Note_on_c, 7, 79, 0
9, 174712, Note_on_c, 7, 83, 127
9, 175192, Note_on_c, 7, 83, 0
9, 175192, Note_on_c, 7, 84, 127
9, 175672, Note_on_c, 7, 83, 127
9, 175672, Note_on_c, 7, 84, 0
9, 176152, Note_on_c, 7, 83, 0
9, 176152, Note_on_c, 7, 84, 127
9, 176482, Note_on_c, 7, 84, 0
9, 176629, Control_c, 7, 11, 100
9, 176872, Note_on_c, 7, 87, 127
9, 176992, Note_on_c, 7, 87, 0
9, 177112, Note_on_c, 7, 80, 127
9, 178072, Note_on_c, 7, 79, 127
9, 178102, Note_on_c, 7, 80, 0
9, 178522, Note_on_c, 7, 79, 0
9, 178792, Note_on_c, 7, 87, 127
9, 178912, Note_on_c, 7, 87, 0
9, 179032, Note_on_c, 7, 80, 127
9, 179992, Note_on_c, 7, 79, 127
9, 180022, Note_on_c, 7, 80, 0
9, 180442, Note_on_c, 7, 79, 0
9, 180712, Note_on_c, 7, 87, 127
9, 180832, Note_on_c, 7, 87, 0
9, 180952, Note_on_c, 7, 80, 127
9, 181912, Note_on_c, 7, 79, 127
9, 181942, Note_on_c, 7, 80, 0
9, 182362, Note_on_c, 7, 79, 0
9, 182632, Note_on_c, 7, 87, 127
9, 182752, Note_on_c, 7, 87, 0
9, 182872, Note_on_c, 7, 80, 127
9, 183832, Note_on_c, 7, 79, 127
9, 183862, Note_on_c, 7, 80, 0
9, 184282, Note_on_c, 7, 79, 0
9, 184552, Note_on_c, 7, 87, 127
9, 184672, Note_on_c, 7, 87, 0
9, 184792, Note_on_c, 7, 80, 127
9, 185482, Note_on_c, 7, 80, 0
9, 185512, Note_on_c, 7, 78, 127
9, 185632, Note_on_c, 7, 78, 0
9, 185752, Note_on_c, 7, 87, 127
9, 186442, Note_on_c, 7, 87, 0
9, 186472, Note_on_c, 7, 86, 127
9, 186592, Note_on_c, 7, 86, 0
9, 186712, Note_on_c, 7, 79, 127
9, 187402, Note_on_c, 7, 79, 0
9, 187432, Note_on_c, 7, 76, 127
9, 187552, Note_on_c, 7, 76, 0
9, 187672, Note_on_c, 7, 85, 127
9, 188362, Note_on_c, 7, 85, 0
9, 188392, Note_on_c, 7, 84, 127
9, 188512, Note_on_c, 7, 84, 0
9, 188632, Note_on_c, 7, 77, 127
9, 189322, Note_on_c, 7, 77, 0
9, 189352, Note_on_c, 7, 84, 127
9, 189472, Note_on_c, 7, 84, 0
9, 189592, Note_on_c, 7, 75, 127
9, 190282, Note_on_c, 7, 75, 0
9, 190312, Note_on_c, 7, 84, 127
9, 190432, Note_on_c, 7, 84, 0
9, 190552, Note_on_c, 7, 81, 127
9, 191242, Note_on_c, 7, 81, 0
9, 191272, Note_on_c, 7, 84, 127
9, 191392, Note_on_c, 7, 84, 0
9, 191512, Note_on_c, 7, 79, 127
9, 192202, Note_on_c, 7, 79, 0
9, 192232, Note_on_c, 7, 78, 127
9, 192352, Note_on_c, 7, 78, 0
9, 192472, Note_on_c, 7, 62, 127
9, 193102, Note_on_c, 7, 62, 0
9, 193192, Note_on_c, 7, 63, 127
9, 193312, Note_on_c, 7, 63, 0
9, 193432, Note_on_c, 7, 63, 127
9, 194062, Note_on_c, 7, 63, 0
9, 194152, Note_on_c, 7, 60, 127
9, 194272, Note_on_c, 7, 60, 0
9, 194392, Note_on_c, 7, 60, 127
9, 195022, Note_on_c, 7, 60, 0
9, 195112, Note_on_c, 7, 62, 127
9, 195232, Note_on_c, 7, 62, 0
9, 195352, Note_on_c, 7, 62, 127
9, 195742, Note_on_c, 7, 62, 0
9, 195832, Note_on_c, 7, 55, 100
9, 196282, Note_on_c, 7, 55, 0
9, 196552, Note_on_c, 7, 75, 100
9, 196672, Note_on_c, 7, 75, 0
9, 196792, Note_on_c, 7, 74, 100
9, 197122, Note_on_c, 7, 74, 0
9, 197512, Note_on_c, 7, 70, 100
9, 197632, Note_on_c, 7, 70, 0
9, 197752, Note_on_c, 7, 69, 100
9, 198082, Note_on_c, 7, 69, 0
9, 198472, Note_on_c, 7, 75, 100
9, 198592, Note_on_c, 7, 75, 0
9, 198712, Note_on_c, 7, 74, 100
9, 199042, Note_on_c, 7, 74, 0
9, 199432, Note_on_c, 7, 69, 127
9, 199552, Note_on_c, 7, 69, 0
9, 199672, Note_on_c, 7, 70, 127
9, 200002, Note_on_c, 7, 70, 0
9, 200392, Note_on_c, 7, 75, 100
9, 200512, Note_on_c, 7, 75, 0
9, 200632, Note_on_c, 7, 74, 100
9, 200962, Note_on_c, 7, 74, 0
9, 201352, Note_on_c, 7, 70, 100
9, 201472, Note_on_c, 7, 70, 0
9, 201592, Note_on_c, 7, 69, 100
9, 201922, Note_on_c, 7, 69, 0
9, 202312, Note_on_c, 7, 75, 100
9, 202432, Note_on_c, 7, 75, 0
9, 202552, Note_on_c, 7, 74, 100
9, 202882, Note_on_c, 7, 74, 0
9, 203272, Note_on_c, 7, 69, 127
9, 203392, Note_on_c, 7, 69, 0
9, 203512, Note_on_c, 7, 70, 127
9, 203842, Note_on_c, 7, 70, 0
9, 204232, Note_on_c, 7, 75, 100
9, 204352, Note_on_c, 7, 75, 0
9, 204472, Note_on_c, 7, 74, 100
9, 204802, Note_on_c, 7, 74, 0
9, 205192, Note_on_c, 7, 69, 100
9, 205312, Note_on_c, 7, 69, 0
9, 205432, Note_on_c, 7, 67, 100
9, 205762, Note_on_c, 7, 67, 0
9, 206152, Note_on_c, 7, 72, 100
9, 206272, Note_on_c, 7, 72, 0
9, 206392, Note_on_c, 7, 70, 100
9, 206722, Note_on_c, 7, 70, 0
9, 207112, Note_on_c, 7, 65, 100
9, 207232, Note_on_c, 7, 65, 0
9, 207352, Note_on_c, 7, 63, 100
9, 207682, Note_on_c, 7, 63, 0
9, 208072, Note_on_c, 7, 69, 100
9, 208192, Note_on_c, 7, 69, 0
9, 208312, Note_on_c, 7, 67, 100
9, 208642, Note_on_c, 7, 67, 0
9, 209032, Note_on_c, 7, 62, 100
9, 209152, Note_on_c, 7, 62, 0
9, 209272, Note_on_c, 7, 60, 100
9, 209602, Note_on_c, 7, 60, 0
9, 209992, Note_on_c, 7, 67, 100
9, 210112, Note_on_c, 7, 67, 0
9, 210232, Note_on_c, 7, 66, 100
9, 210562, Note_on_c, 7, 66, 0
9, 210952, Note_on_c, 7, 72, 100
9, 211072, Note_on_c, 7, 72, 0
9, 211192, Note_on_c, 7, 70, 127
9, 211522, Note_on_c, 7, 70, 0
9, 211912, Note_on_c, 7, 87, 127
9, 212032, Note_on_c, 7, 87, 0
9, 212152, Note_on_c, 7, 86, 127
9, 212482, Note_on_c, 7, 86, 0
9, 212872, Note_on_c, 7, 81, 127
9, 212992, Note_on_c, 7, 81, 0
9, 213112, Note_on_c, 7, 79, 127
9, 213442, Note_on_c, 7, 79, 0
9, 213832, Note_on_c, 7, 84, 127
9, 213952, Note_on_c, 7, 84, 0
9, 214072, Note_on_c, 7, 82, 127
9, 214402, Note_on_c, 7, 82, 0
9, 214792, Note_on_c, 7, 77, 127
9, 214912, Note_on_c, 7, 77, 0
9, 215032, Note_on_c, 7, 75, 127
9, 215362, Note_on_c, 7, 75, 0
9, 215752, Note_on_c, 7, 81, 127
9, 215872, Note_on_c, 7, 81, 0
9, 215992, Note_on_c, 7, 79, 127
9, 216322, Note_on_c, 7, 79, 0
9, 216712, Note_on_c, 7, 61, 127
9, 216832, Note_on_c, 7, 61, 0
9, 216952, Note_on_c, 7, 62, 127
9, 217282, Note_on_c, 7, 62, 0
9, 217672, Note_on_c, 7, 79, 127
9, 217792, Note_on_c, 7, 79, 0
9, 217912, Note_on_c, 7, 62, 127
9, 218242, Note_on_c, 7, 62, 0
9, 218632, Note_on_c, 7, 78, 127
9, 218752, Note_on_c, 7, 78, 0
9, 218872, Note_on_c, 7, 55, 127
9, 219472, Note_on_c, 7, 55, 0
9, 219592, Note_on_c, 7, 79, 127
9, 219712, Note_on_c, 7, 79, 0
9, 219832, Note_on_c, 7, 79, 127
9, 221392, Note_on_c, 7, 79, 0
9, 221512, Note_on_c, 7, 82, 127
9, 221632, Note_on_c, 7, 82, 0
9, 221752, Note_on_c, 7, 82, 127
9, 223312, Note_on_c, 7, 82, 0
9, 223432, Note_on_c, 7, 79, 127
9, 223552, Note_on_c, 7, 79, 0
9, 223672, Note_on_c, 7, 79, 127
9, 223942, Note_on_c, 7, 79, 0
9, 224392, Note_on_c, 7, 82, 127
9, 224512, Note_on_c, 7, 82, 0
9, 224632, Note_on_c, 7, 82, 127
9, 224902, Note_on_c, 7, 82, 0
9, 225352, Note_on_c, 7, 86, 127
9, 225472, Note_on_c, 7, 86, 0
9, 225592, Note_on_c, 7, 86, 127
9, 225862, Note_on_c, 7, 86, 0
9, 226312, Note_on_c, 7, 91, 127
9, 226432, Note_on_c, 7, 91, 0
9, 226552, Note_on_c, 7, 91, 127
9, 226852, Note_on_c, 7, 91, 0
9, 227272, Note_on_c, 7, 75, 100
9, 227392, Note_on_c, 7, 75, 0
9, 227512, Note_on_c, 7, 74, 100
9, 227842, Note_on_c, 7, 74, 0
9, 228232, Note_on_c, 7, 70, 100
9, 228352, Note_on_c, 7, 70, 0
9, 228472, Note_on_c, 7, 69, 100
9, 228802, Note_on_c, 7, 69, 0
9, 229192, Note_on_c, 7, 75, 100
9, 229312, Note_on_c, 7, 75, 0
9, 229432, Note_on_c, 7, 74, 100
9, 229762, Note_on_c, 7, 74, 0
9, 230152, Note_on_c, 7, 69, 100
9, 230272, Note_on_c, 7, 69, 0
9, 230392, Note_on_c, 7, 70, 100
9, 230722, Note_on_c, 7, 70, 0
9, 231112, Note_on_c, 7, 75, 100
9, 231232, Note_on_c, 7, 75, 0
9, 231352, Note_on_c, 7, 73, 100
9, 231682, Note_on_c, 7, 73, 0
9, 232072, Note_on_c, 7, 70, 100
9, 232192, Note_on_c, 7, 70, 0
9, 232312, Note_on_c, 7, 68, 100
9, 232642, Note_on_c, 7, 68, 0
9, 233032, Note_on_c, 7, 75, 100
9, 233152, Note_on_c, 7, 75, 0
9, 233272, Note_on_c, 7, 73, 100
9, 233602, Note_on_c, 7, 73, 0
9, 233992, Note_on_c, 7, 68, 100
9, 234112, Note_on_c, 7, 68, 0
9, 234232, Note_on_c, 7, 67, 100
9, 234562, Note_on_c, 7, 67, 0
9, 236872, Note_on_c, 7, 75, 100
9, 236992, Note_on_c, 7, 75, 0
9, 237112, Note_on_c, 7, 73, 100
9, 237442, Note_on_c, 7, 73, 0
9, 237832, Note_on_c, 7, 68, 100
9, 237952, Note_on_c, 7, 68, 0
9, 238072, Note_on_c, 7, 67, 100
9, 238402, Note_on_c, 7, 67, 0
9, 240712, Note_on_c, 7, 72, 100
9, 240832, Note_on_c, 7, 72, 0
9, 240952, Note_on_c, 7, 70, 100
9, 241282, Note_on_c, 7, 70, 0
9, 241672, Note_on_c, 7, 64, 100
9, 241792, Note_on_c, 7, 64, 0
9, 241912, Note_on_c, 7, 68, 100
9, 242242, Note_on_c, 7, 68, 0
9, 242632, Note_on_c, 7, 73, 100
9, 242752, Note_on_c, 7, 73, 0
9, 242872, Note_on_c, 7, 72, 100
9, 243202, Note_on_c, 7, 72, 0
9, 243592, Note_on_c, 7, 68, 100
9, 243712, Note_on_c, 7, 68, 0
9, 243832, Note_on_c, 7, 67, 100
9, 244162, Note_on_c, 7, 67, 0
9, 244552, Note_on_c, 7, 73, 100
9, 244672, Note_on_c, 7, 73, 0
9, 244792, Note_on_c, 7, 72, 100
9, 245122, Note_on_c, 7, 72, 0
9, 245512, Note_on_c, 7, 67, 100
9, 245632, Note_on_c, 7, 67, 0
9, 245752, Note_on_c, 7, 68, 100
9, 246082, Note_on_c, 7, 68, 0
9, 246472, Note_on_c, 7, 75, 100
9, 246592, Note_on_c, 7, 75, 0
9, 246712, Note_on_c, 7, 73, 100
9, 247042, Note_on_c, 7, 73, 0
9, 247432, Note_on_c, 7, 68, 100
9, 247552, Note_on_c, 7, 68, 0
9, 247672, Note_on_c, 7, 70, 100
9, 248002, Note_on_c, 7, 70, 0
9, 249592, Control_c, 7, 11, 80
9, 249972, Control_c, 7, 11, 81
9, 250312, Note_on_c, 7, 77, 100
9, 250342, Control_c, 7, 11, 82
9, 250432, Note_on_c, 7, 77, 0
9, 250552, Note_on_c, 7, 75, 100
9, 250712, Control_c, 7, 11, 83
9, 250882, Note_on_c, 7, 75, 0
9, 251082, Control_c, 7, 11, 84
9, 251272, Note_on_c, 7, 72, 102
9, 251392, Note_on_c, 7, 72, 0
9, 251452, Control_c, 7, 11, 85
9, 251512, Note_on_c, 7, 70, 103
9, 251822, Control_c, 7, 11, 86
9, 251842, Note_on_c, 7, 70, 0
9, 252192, Control_c, 7, 11, 87
9, 252232, Note_on_c, 7, 77, 104
9, 252352, Note_on_c, 7, 77, 0
9, 252472, Note_on_c, 7, 75, 105
9, 252562, Control_c, 7, 11, 88
9, 252802, Note_on_c, 7, 75, 0
9, 252932, Control_c, 7, 11, 89
9, 253192, Note_on_c, 7, 70, 107
9, 253302, Control_c, 7, 11, 90
9, 253312, Note_on_c, 7, 70, 0
9, 253432, Note_on_c, 7, 72, 107
9, 253672, Control_c, 7, 11, 91
9, 253762, Note_on_c, 7, 72, 0
9, 254042, Control_c, 7, 11, 92
9, 254152, Note_on_c, 7, 77, 109
9, 254272, Note_on_c, 7, 77, 0
9, 254392, Note_on_c, 7, 75, 110
9, 254412, Control_c, 7, 11, 93
9, 254722, Note_on_c, 7, 75, 0
9, 254782, Control_c, 7, 11, 94
9, 255112, Note_on_c, 7, 72, 112
9, 255152, Control_c, 7, 11, 95
9, 255232, Note_on_c, 7, 72, 0
9, 255352, Note_on_c, 7, 72, 112
9, 255532, Control_c, 7, 11, 96
9, 255682, Note_on_c, 7, 72, 0
9, 255902, Control_c, 7, 11, 97
9, 256272, Control_c, 7, 11, 98
9, 256642, Control_c, 7, 11, 99
9, 257012, Control_c, 7, 11, 100
9, 257382, Control_c, 7, 11, 101
9, 257752, Control_c, 7, 11, 102
9, 257992, Note_on_c, 7, 80, 119
9, 258112, Note_on_c, 7, 80, 0
9, 258122, Control_c, 7, 11, 103
9, 258232, Note_on_c, 7, 78, 120
9, 258492, Control_c, 7, 11, 104
9, 258562, Note_on_c, 7, 78, 0
9, 258862, Control_c, 7, 11, 105
9, 258952, Note_on_c, 7, 73, 122
9, 259072, Note_on_c, 7, 73, 0
9, 259192, Note_on_c, 7, 75, 122
9, 259232, Control_c, 7, 11, 106
9, 259522, Note_on_c, 7, 75, 0
9, 259602, Control_c, 7, 11, 107
9, 259912, Note_on_c, 7, 82, 124
9, 259972, Control_c, 7, 11, 108
9, 260032, Note_on_c, 7, 82, 0
9, 260152, Note_on_c, 7, 80, 125
9, 260342, Control_c, 7, 11, 109
9, 260482, Note_on_c, 7, 80, 0
9, 260712, Control_c, 7, 11, 110
9, 260872, Note_on_c, 7, 75, 127
9, 260992, Note_on_c, 7, 75, 0
9, 261109, Control_c, 7, 11, 80
9, 261112, Note_on_c, 7, 77, 100
9, 261442, Note_on_c, 7, 77, 0
9, 261832, Note_on_c, 7, 82, 100
9, 261952, Note_on_c, 7, 82, 0
9, 262072, Note_on_c, 7, 80, 100
9, 262402, Note_on_c, 7, 80, 0
9, 262792, Note_on_c, 7, 75, 100
9, 262912, Note_on_c, 7, 75, 0
9, 263032, Note_on_c, 7, 73, 100
9, 263362, Note_on_c, 7, 73, 0
9, 263752, Note_on_c, 7, 78, 100
9, 263872, Note_on_c, 7, 78, 0
9, 263992, Note_on_c, 7, 77, 100
9, 264322, Note_on_c, 7, 77, 0
9, 264712, Note_on_c, 7, 72, 100
9, 264832, Note_on_c, 7, 72, 0
9, 264952, Note_on_c, 7, 70, 100
9, 265282, Note_on_c, 7, 70, 0
9, 265672, Note_on_c, 7, 75, 100
9, 265792, Note_on_c, 7, 75, 0
9, 265912, Note_on_c, 7, 73, 100
9, 266242, Note_on_c, 7, 73, 0
9, 266632, Note_on_c, 7, 68, 100
9, 266752, Note_on_c, 7, 68, 0
9, 266872, Note_on_c, 7, 66, 100
9, 267202, Note_on_c, 7, 66, 0
9, 267592, Note_on_c, 7, 73, 100
9, 267712, Note_on_c, 7, 73, 0
9, 267832, Note_on_c, 7, 72, 100
9, 268162, Note_on_c, 7, 72, 0
9, 268552, Note_on_c, 7, 78, 100
9, 268672, Note_on_c, 7, 78, 0
9, 268789, Control_c, 7, 11, 110
9, 268792, Note_on_c, 7, 77, 127
9, 269122, Note_on_c, 7, 77, 0
9, 269512, Note_on_c, 7, 82, 127
9, 269632, Note_on_c, 7, 82, 0
9, 269752, Note_on_c, 7, 80, 127
9, 270082, Note_on_c, 7, 80, 0
9, 270472, Note_on_c, 7, 75, 127
9, 270592, Note_on_c, 7, 75, 0
9, 270712, Note_on_c, 7, 73, 127
9, 271042, Note_on_c, 7, 73, 0
9, 271432, Note_on_c, 7, 78, 127
9, 271552, Note_on_c, 7, 78, 0
9, 271672, Note_on_c, 7, 77, 127
9, 272002, Note_on_c, 7, 77, 0
9, 272392, Note_on_c, 7, 72, 127
9, 272512, Note_on_c, 7, 72, 0
9, 272632, Note_on_c, 7, 70, 127
9, 272962, Note_on_c, 7, 70, 0
9, 273352, Note_on_c, 7, 76, 127
9, 273472, Note_on_c, 7, 76, 0
9, 273592, Note_on_c, 7, 77, 127
9, 273922, Note_on_c, 7, 77, 0
9, 274312, Note_on_c, 7, 70, 127
9, 274432, Note_on_c, 7, 70, 0
9, 274552, Note_on_c, 7, 70, 127
9, 274882, Note_on_c, 7, 70, 0
9, 275272, Note_on_c, 7, 79, 127
9, 275392, Note_on_c, 7, 79, 0
9, 275512, Note_on_c, 7, 76, 127
9, 275842, Note_on_c, 7, 76, 0
9, 276232, Note_on_c, 7, 82, 127
9, 276352, Note_on_c, 7, 82, 0
9, 276469, Control_c, 7, 11, 80
9, 276472, Note_on_c, 7, 80, 90
9, 276472, Control_c, 7, 11, 80
9, 276702, Control_c, 7, 11, 81
9, 276802, Note_on_c, 7, 80, 0
9, 276932, Control_c, 7, 11, 82
9, 277162, Control_c, 7, 11, 83
9, 277192, Note_on_c, 7, 85, 93
9, 277312, Note_on_c, 7, 85, 0
9, 277392, Control_c, 7, 11, 84
9, 277432, Note_on_c, 7, 84, 94
9, 277622, Control_c, 7, 11, 85
9, 277762, Note_on_c, 7, 84, 0
9, 277852, Control_c, 7, 11, 86
9, 278072, Control_c, 7, 11, 87
9, 278152, Note_on_c, 7, 79, 98
9, 278272, Note_on_c, 7, 79, 0
9, 278302, Control_c, 7, 11, 88
9, 278392, Note_on_c, 7, 77, 99
9, 278532, Control_c, 7, 11, 89
9, 278722, Note_on_c, 7, 77, 0
9, 278762, Control_c, 7, 11, 90
9, 278992, Control_c, 7, 11, 91
9, 279112, Note_on_c, 7, 82, 103
9, 279222, Control_c, 7, 11, 92
9, 279232, Note_on_c, 7, 82, 0
9, 279352, Note_on_c, 7, 80, 104
9, 279452, Control_c, 7, 11, 93
9, 279672, Control_c, 7, 11, 94
9, 279682, Note_on_c, 7, 80, 0
9, 279902, Control_c, 7, 11, 95
9, 280072, Note_on_c, 7, 75, 107
9, 280132, Control_c, 7, 11, 96
9, 280192, Note_on_c, 7, 75, 0
9, 280312, Note_on_c, 7, 73, 109
9, 280362, Control_c, 7, 11, 97
9, 280592, Control_c, 7, 11, 98
9, 280642, Note_on_c, 7, 73, 0
9, 280822, Control_c, 7, 11, 99
9, 281032, Note_on_c, 7, 79, 112
9, 281052, Control_c, 7, 11, 100
9, 281152, Note_on_c, 7, 79, 0
9, 281272, Note_on_c, 7, 77, 113
9, 281602, Note_on_c, 7, 77, 0
9, 281992, Note_on_c, 7, 72, 117
9, 282112, Note_on_c, 7, 72, 0
9, 282232, Note_on_c, 7, 70, 118
9, 282562, Note_on_c, 7, 70, 0
9, 282952, Note_on_c, 7, 77, 122
9, 283072, Note_on_c, 7, 77, 0
9, 283192, Note_on_c, 7, 76, 123
9, 283522, Note_on_c, 7, 76, 0
9, 283912, Note_on_c, 7, 82, 127
9, 284032, Note_on_c, 7, 82, 0
9, 284152, Note_on_c, 7, 80, 127
9, 284482, Note_on_c, 7, 80, 0
9, 284872, Note_on_c, 7, 85, 127
9, 284992, Note_on_c, 7, 85, 0
9, 285112, Note_on_c, 7, 84, 127
9, 285442, Note_on_c, 7, 84, 0
9, 285832, Note_on_c, 7, 79, 127
9, 285952, Note_on_c, 7, 79, 0
9, 286072, Note_on_c, 7, 77, 127
9, 286402, Note_on_c, 7, 77, 0
9, 286792, Note_on_c, 7, 82, 127
9, 286912, Note_on_c, 7, 82, 0
9, 287032, Note_on_c, 7, 80, 127
9, 287362, Note_on_c, 7, 80, 0
9, 287752, Note_on_c, 7, 75, 127
9, 287872, Note_on_c, 7, 75, 0
9, 287992, Note_on_c, 7, 73, 127
9, 288322, Note_on_c, 7, 73, 0
9, 288712, Note_on_c, 7, 79, 127
9, 288832, Note_on_c, 7, 79, 0
9, 288952, Note_on_c, 7, 77, 127
9, 289282, Note_on_c, 7, 77, 0
9, 289672, Note_on_c, 7, 60, 127
9, 289792, Note_on_c, 7, 60, 0
9, 289912, Note_on_c, 7, 61, 127
9, 290242, Note_on_c, 7, 61, 0
9, 290632, Note_on_c, 7, 77, 127
9, 290752, Note_on_c, 7, 77, 0
9, 290872, Note_on_c, 7, 60, 127
9, 291202, Note_on_c, 7, 60, 0
9, 291592, Note_on_c, 7, 76, 127
9, 291712, Note_on_c, 7, 76, 0
9, 291827, Control_c, 7, 11, 60
9, 291832, Note_on_c, 7, 65, 127
9, 291892, Control_c, 7, 11, 61
9, 291942, Control_c, 7, 11, 62
9, 291992, Control_c, 7, 11, 63
9, 292052, Control_c, 7, 11, 64
9, 292102, Control_c, 7, 11, 65
9, 292152, Control_c, 7, 11, 66
9, 292212, Control_c, 7, 11, 67
9, 292262, Control_c, 7, 11, 68
9, 292312, Control_c, 7, 11, 69
9, 292372, Control_c, 7, 11, 70
9, 292422, Control_c, 7, 11, 71
9, 292472, Control_c, 7, 11, 72
9, 292532, Control_c, 7, 11, 73
9, 292582, Control_c, 7, 11, 74
9, 292632, Control_c, 7, 11, 75
9, 292692, Control_c, 7, 11, 76
9, 292742, Control_c, 7, 11, 77
9, 292792, Control_c, 7, 11, 78
9, 292852, Control_c, 7, 11, 79
9, 292902, Control_c, 7, 11, 80
9, 292952, Control_c, 7, 11, 81
9, 293012, Control_c, 7, 11, 82
9, 293062, Control_c, 7, 11, 83
9, 293112, Control_c, 7, 11, 84
9, 293172, Control_c, 7, 11, 85
9, 293222, Control_c, 7, 11, 86
9, 293272, Control_c, 7, 11, 87
9, 293332, Control_c, 7, 11, 88
9, 293382, Control_c, 7, 11, 89
9, 293432, Control_c, 7, 11, 90
9, 293492, Control_c, 7, 11, 91
9, 293542, Control_c, 7, 11, 92
9, 293592, Control_c, 7, 11, 93
9, 293652, Control_c, 7, 11, 94
9, 293702, Control_c, 7, 11, 95
9, 293752, Control_c, 7, 11, 96
9, 293812, Control_c, 7, 11, 97
9, 293862, Control_c, 7, 11, 98
9, 293912, Control_c, 7, 11, 99
9, 293972, Control_c, 7, 11, 100
9, 294022, Control_c, 7, 11, 101
9, 294072, Control_c, 7, 11, 102
9, 294132, Control_c, 7, 11, 103
9, 294182, Control_c, 7, 11, 104
9, 294232, Control_c, 7, 11, 105
9, 294292, Control_c, 7, 11, 106
9, 294342, Control_c, 7, 11, 107
9, 294392, Control_c, 7, 11, 108
9, 294452, Control_c, 7, 11, 109
9, 294502, Control_c, 7, 11, 110
9, 294552, Control_c, 7, 11, 111
9, 294612, Control_c, 7, 11, 112
9, 294662, Control_c, 7, 11, 113
9, 294712, Control_c, 7, 11, 114
9, 294772, Control_c, 7, 11, 115
9, 294822, Control_c, 7, 11, 116
9, 294872, Control_c, 7, 11, 117
9, 294932, Control_c, 7, 11, 118
9, 294982, Control_c, 7, 11, 119
9, 295032, Control_c, 7, 11, 120
9, 295092, Control_c, 7, 11, 121
9, 295142, Control_c, 7, 11, 122
9, 295192, Control_c, 7, 11, 123
9, 295252, Control_c, 7, 11, 124
9, 295302, Control_c, 7, 11, 125
9, 295352, Control_c, 7, 11, 126
9, 295402, Note_on_c, 7, 65, 0
9, 295669, Control_c, 7, 11, 127
9, 295672, Note_on_c, 7, 85, 127
9, 295882, Note_on_c, 7, 85, 0
9, 297592, Control_c, 7, 11, 100
9, 299507, Control_c, 7, 11, 60
9, 299512, Note_on_c, 7, 65, 127
9, 299572, Control_c, 7, 11, 61
9, 299622, Control_c, 7, 11, 62
9, 299672, Control_c, 7, 11, 63
9, 299732, Control_c, 7, 11, 64
9, 299782, Control_c, 7, 11, 65
9, 299832, Control_c, 7, 11, 66
9, 299892, Control_c, 7, 11, 67
9, 299942, Control_c, 7, 11, 68
9, 299992, Control_c, 7, 11, 69
9, 300052, Control_c, 7, 11, 70
9, 300102, Control_c, 7, 11, 71
9, 300152, Control_c, 7, 11, 72
9, 300212, Control_c, 7, 11, 73
9, 300262, Control_c, 7, 11, 74
9, 300312, Control_c, 7, 11, 75
9, 300372, Control_c, 7, 11, 76
9, 300422, Control_c, 7, 11, 77
9, 300472, Control_c, 7, 11, 78
9, 300532, Control_c, 7, 11, 79
9, 300582, Control_c, 7, 11, 80
9, 300632, Control_c, 7, 11, 81
9, 300692, Control_c, 7, 11, 82
9, 300742, Control_c, 7, 11, 83
9, 300792, Control_c, 7, 11, 84
9, 300852, Control_c, 7, 11, 85
9, 300902, Control_c, 7, 11, 86
9, 300952, Control_c, 7, 11, 87
9, 301012, Control_c, 7, 11, 88
9, 301062, Control_c, 7, 11, 89
9, 301112, Control_c, 7, 11, 90
9, 301172, Control_c, 7, 11, 91
9, 301222, Control_c, 7, 11, 92
9, 301272, Control_c, 7, 11, 93
9, 301332, Control_c, 7, 11, 94
9, 301382, Control_c, 7, 11, 95
9, 301432, Control_c, 7, 11, 96
9, 301492, Control_c, 7, 11, 97
9, 301542, Control_c, 7, 11, 98
9, 301592, Control_c, 7, 11, 99
9, 301652, Control_c, 7, 11, 100
9, 301702, Control_c, 7, 11, 101
9, 301752, Control_c, 7, 11, 102
9, 301812, Control_c, 7, 11, 103
9, 301862, Control_c, 7, 11, 104
9, 301912, Control_c, 7, 11, 105
9, 301972, Control_c, 7, 11, 106
9, 302022, Control_c, 7, 11, 107
9, 302072, Control_c, 7, 11, 108
9, 302132, Control_c, 7, 11, 109
9, 302182, Control_c, 7, 11, 110
9, 302232, Control_c, 7, 11, 111
9, 302292, Control_c, 7, 11, 112
9, 302342, Control_c, 7, 11, 113
9, 302392, Control_c, 7, 11, 114
9, 302452, Control_c, 7, 11, 115
9, 302502, Control_c, 7, 11, 116
9, 302552, Control_c, 7, 11, 117
9, 302612, Control_c, 7, 11, 118
9, 302662, Control_c, 7, 11, 119
9, 302712, Control_c, 7, 11, 120
9, 302772, Control_c, 7, 11, 121
9, 302822, Control_c, 7, 11, 122
9, 302872, Control_c, 7, 11, 123
9, 302932, Control_c, 7, 11, 124
9, 302982, Control_c, 7, 11, 125
9, 303032, Control_c, 7, 11, 126
9, 303082, Note_on_c, 7, 65, 0
9, 303349, Control_c, 7, 11, 127
9, 303352, Note_on_c, 7, 77, 127
9, 303352, Note_on_c, 7, 86, 127
9, 304282, Note_on_c, 7, 77, 0
9, 304282, Note_on_c, 7, 86, 0
9, 304312, Note_on_c, 7, 65, 127
9, 304462, Note_on_c, 7, 65, 0
9, 304552, Note_on_c, 7, 68, 127
9, 304702, Note_on_c, 7, 68, 0
9, 304792, Note_on_c, 7, 68, 127
9, 305032, Note_on_c, 7, 67, 127
9, 305062, Note_on_c, 7, 68, 0
9, 305242, Note_on_c, 7, 67, 0
9, 305272, Note_on_c, 7, 77, 127
9, 305272, Note_on_c, 7, 86, 127
9, 306202, Note_on_c, 7, 77, 0
9, 306202, Note_on_c, 7, 86, 0
9, 306232, Note_on_c, 7, 65, 127
9, 306382, Note_on_c, 7, 65, 0
9, 306472, Note_on_c, 7, 68, 127
9, 306622, Note_on_c, 7, 68, 0
9, 306712, Note_on_c, 7, 68, 127
9, 306952, Note_on_c, 7, 67, 127
9, 306982, Note_on_c, 7, 68, 0
9, 307162, Note_on_c, 7, 67, 0
9, 307189, Control_c, 7, 11, 100
9, 307192, Note_on_c, 7, 65, 90
9, 307342, Note_on_c, 7, 65, 0
9, 307432, Note_on_c, 7, 68, 90
9, 307582, Note_on_c, 7, 68, 0
9, 307672, Note_on_c, 7, 68, 90
9, 307912, Note_on_c, 7, 67, 90
9, 307942, Note_on_c, 7, 68, 0
9, 308122, Note_on_c, 7, 67, 0
9, 308152, Note_on_c, 7, 67, 90
9, 308302, Note_on_c, 7, 67, 0
9, 308392, Note_on_c, 7, 72, 90
9, 308542, Note_on_c, 7, 72, 0
9, 308632, Note_on_c, 7, 72, 90
9, 308872, Note_on_c, 7, 71, 90
9, 308902, Note_on_c, 7, 72, 0
9, 309082, Note_on_c, 7, 71, 0
9, 309112, Note_on_c, 7, 71, 90
9, 309262, Note_on_c, 7, 71, 0
9, 309352, Note_on_c, 7, 75, 90
9, 309502, Note_on_c, 7, 75, 0
9, 309592, Note_on_c, 7, 75, 90
9, 309832, Note_on_c, 7, 74, 90
9, 309862, Note_on_c, 7, 75, 0
9, 310042, Note_on_c, 7, 74, 0
9, 310072, Note_on_c, 7, 74, 90
9, 310222, Note_on_c, 7, 74, 0
9, 310312, Note_on_c, 7, 79, 90
9, 310462, Note_on_c, 7, 79, 0
9, 310552, Note_on_c, 7, 79, 90
9, 311002, Note_on_c, 7, 79, 0
9, 312952, Note_on_c, 7, 73, 127
9, 312952, Note_on_c, 7, 85, 127
9, 313882, Note_on_c, 7, 73, 0
9, 313882, Note_on_c, 7, 85, 0
9, 313912, Note_on_c, 7, 64, 127
9, 314062, Note_on_c, 7, 64, 0
9, 314152, Note_on_c, 7, 67, 127
9, 314302, Note_on_c, 7, 67, 0
9, 314392, Note_on_c, 7, 67, 127
9, 314632, Note_on_c, 7, 65, 127
9, 314662, Note_on_c, 7, 67, 0
9, 314842, Note_on_c, 7, 65, 0
9, 314872, Note_on_c, 7, 73, 127
9, 314872, Note_on_c, 7, 85, 127
9, 315802, Note_on_c, 7, 73, 0
9, 315802, Note_on_c, 7, 85, 0
9, 315832, Note_on_c, 7, 64, 127
9, 315982, Note_on_c, 7, 64, 0
9, 316072, Note_on_c, 7, 67, 127
9, 316222, Note_on_c, 7, 67, 0
9, 316312, Note_on_c, 7, 67, 127
9, 316552, Note_on_c, 7, 65, 127
9, 316582, Note_on_c, 7, 67, 0
9, 316762, Note_on_c, 7, 65, 0
9, 316792, Note_on_c, 7, 64, 80
9, 316942, Note_on_c, 7, 64, 0
9, 317032, Note_on_c, 7, 70, 80
9, 317182, Note_on_c, 7, 70, 0
9, 317272, Note_on_c, 7, 70, 80
9, 317512, Note_on_c, 7, 68, 80
9, 317542, Note_on_c, 7, 70, 0
9, 317722, Note_on_c, 7, 68, 0
9, 317752, Note_on_c, 7, 67, 80
9, 317902, Note_on_c, 7, 67, 0
9, 317992, Note_on_c, 7, 73, 80
9, 318142, Note_on_c, 7, 73, 0
9, 318232, Note_on_c, 7, 73, 80
9, 318472, Note_on_c, 7, 72, 80
9, 318502, Note_on_c, 7, 73, 0
9, 318682, Note_on_c, 7, 72, 0
9, 318712, Note_on_c, 7, 70, 80
9, 318862, Note_on_c, 7, 70, 0
9, 318952, Note_on_c, 7, 79, 80
9, 319102, Note_on_c, 7, 79, 0
9, 319192, Note_on_c, 7, 79, 80
9, 319432, Note_on_c, 7, 77, 80
9, 319462, Note_on_c, 7, 79, 0
9, 319642, Note_on_c, 7, 77, 0
9, 319672, Note_on_c, 7, 76, 80
9, 319822, Note_on_c, 7, 76, 0
9, 319912, Note_on_c, 7, 79, 80
9, 320062, Note_on_c, 7, 79, 0
9, 320152, Note_on_c, 7, 79, 80
9, 320602, Note_on_c, 7, 79, 0
9, 322072, Note_on_c, 7, 85, 127
9, 322552, Note_on_c, 7, 84, 127
9, 322582, Note_on_c, 7, 85, 0
9, 323872, Note_on_c, 7, 84, 0
9, 323992, Note_on_c, 7, 85, 127
9, 324472, Note_on_c, 7, 84, 127
9, 324502, Note_on_c, 7, 85, 0
9, 325792, Note_on_c, 7, 84, 0
9, 325912, Note_on_c, 7, 85, 127
9, 326392, Note_on_c, 7, 84, 127
9, 326422, Note_on_c, 7, 85, 0
9, 327712, Note_on_c, 7, 84, 0
9, 327832, Note_on_c, 7, 85, 127
9, 328312, Note_on_c, 7, 84, 127
9, 328342, Note_on_c, 7, 85, 0
9, 329422, Note_on_c, 7, 84, 0
9, 329752, Note_on_c, 7, 87, 127
9, 330232, Note_on_c, 7, 86, 127
9, 330262, Note_on_c, 7, 87, 0
9, 331552, Note_on_c, 7, 86, 0
9, 331672, Note_on_c, 7, 87, 127
9, 332152, Note_on_c, 7, 86, 127
9, 332182, Note_on_c, 7, 87, 0
9, 333472, Note_on_c, 7, 86, 0
9, 333592, Note_on_c, 7, 87, 127
9, 334072, Note_on_c, 7, 86, 127
9, 334102, Note_on_c, 7, 87, 0
9, 335392, Note_on_c, 7, 86, 0
9, 335512, Note_on_c, 7, 87, 127
9, 335992, Note_on_c, 7, 86, 127
9, 336022, Note_on_c, 7, 87, 0
9, 337312, Note_on_c, 7, 86, 0
9, 337432, Note_on_c, 7, 87, 127
9, 337912, Note_on_c, 7, 86, 127
9, 337942, Note_on_c, 7, 87, 0
9, 338632, Control_c, 7, 11, 100
9, 338662, Control_c, 7, 11, 99
9, 338692, Control_c, 7, 11, 98
9, 338712, Control_c, 7, 11, 97
9, 338742, Control_c, 7, 11, 96
9, 338772, Control_c, 7, 11, 95
9, 338792, Control_c, 7, 11, 94
9, 338822, Control_c, 7, 11, 93
9, 338842, Control_c, 7, 11, 92
9, 338872, Control_c, 7, 11, 91
9, 338902, Control_c, 7, 11, 90
9, 338922, Control_c, 7, 11, 89
9, 338952, Control_c, 7, 11, 88
9, 338972, Control_c, 7, 11, 87
9, 339002, Control_c, 7, 11, 86
9, 339032, Control_c, 7, 11, 85
9, 339052, Control_c, 7, 11, 84
9, 339082, Control_c, 7, 11, 83
9, 339102, Control_c, 7, 11, 82
9, 339132, Control_c, 7, 11, 81
9, 339162, Control_c, 7, 11, 80
9, 339182, Control_c, 7, 11, 79
9, 339212, Control_c, 7, 11, 78
9, 339232, Control_c, 7, 11, 77
9, 339262, Control_c, 7, 11, 76
9, 339292, Control_c, 7, 11, 75
9, 339312, Control_c, 7, 11, 74
9, 339342, Control_c, 7, 11, 73
9, 339372, Control_c, 7, 11, 72
9, 339392, Control_c, 7, 11, 71
9, 339422, Control_c, 7, 11, 70
9, 339442, Control_c, 7, 11, 69
9, 339472, Control_c, 7, 11, 68
9, 339502, Control_c, 7, 11, 67
9, 339522, Control_c, 7, 11, 66
9, 339552, Control_c, 7, 11, 65
9, 339572, Control_c, 7, 11, 64
9, 339602, Control_c, 7, 11, 63
9, 339632, Control_c, 7, 11, 62
9, 339652, Control_c, 7, 11, 61
9, 339682, Control_c, 7, 11, 60
9, 339702, Control_c, 7, 11, 59
9, 339732, Control_c, 7, 11, 58
9, 339762, Control_c, 7, 11, 57
9, 339782, Control_c, 7, 11, 56
9, 339812, Control_c, 7, 11, 55
9, 340312, Note_on_c, 7, 83, 108
9, 340342, Note_on_c, 7, 86, 0
9, 340792, Note_on_c, 7, 79, 104
9, 340822, Note_on_c, 7, 83, 0
9, 341272, Note_on_c, 7, 77, 100
9, 341302, Note_on_c, 7, 79, 0
9, 341722, Note_on_c, 7, 77, 0
9, 341752, Note_on_c, 7, 76, 90
9, 341752, Control_c, 7, 11, 55
9, 342062, Control_c, 7, 11, 56
9, 342362, Control_c, 7, 11, 57
9, 342672, Control_c, 7, 11, 58
9, 342972, Control_c, 7, 11, 59
9, 343192, Note_on_c, 7, 77, 90
9, 343222, Note_on_c, 7, 76, 0
9, 343282, Control_c, 7, 11, 60
9, 343582, Control_c, 7, 11, 61
9, 343672, Note_on_c, 7, 76, 90
9, 343702, Note_on_c, 7, 77, 0
9, 343892, Control_c, 7, 11, 62
9, 344152, Note_on_c, 7, 74, 90
9, 344182, Note_on_c, 7, 76, 0
9, 344192, Control_c, 7, 11, 63
9, 344492, Control_c, 7, 11, 64
9, 344632, Note_on_c, 7, 71, 90
9, 344662, Note_on_c, 7, 74, 0
9, 344802, Control_c, 7, 11, 65
9, 345102, Control_c, 7, 11, 66
9, 345112, Note_on_c, 7, 67, 90
9, 345142, Note_on_c, 7, 71, 0
9, 345412, Control_c, 7, 11, 67
9, 345562, Note_on_c, 7, 67, 0
9, 345592, Note_on_c, 7, 79, 90
9, 345712, Control_c, 7, 11, 68
9, 346022, Control_c, 7, 11, 69
9, 346322, Control_c, 7, 11, 70
9, 346632, Control_c, 7, 11, 71
9, 346932, Control_c, 7, 11, 72
9, 347032, Note_on_c, 7, 81, 90
9, 347062, Note_on_c, 7, 79, 0
9, 347232, Control_c, 7, 11, 73
9, 347512, Note_on_c, 7, 79, 90
9, 347542, Note_on_c, 7, 81, 0
9, 347542, Control_c, 7, 11, 74
9, 347842, Control_c, 7, 11, 75
9, 348152, Control_c, 7, 11, 76
9, 348452, Control_c, 7, 11, 77
9, 348472, Note_on_c, 7, 77, 90
9, 348502, Note_on_c, 7, 79, 0
9, 348762, Control_c, 7, 11, 78
9, 349062, Control_c, 7, 11, 79
9, 349402, Note_on_c, 7, 77, 0
9, 349432, Note_on_c, 7, 76, 90
9, 349432, Control_c, 7, 11, 80
9, 349802, Control_c, 7, 11, 81
9, 349882, Note_on_c, 7, 76, 0
9, 349912, Note_on_c, 7, 79, 90
9, 350172, Control_c, 7, 11, 82
9, 350532, Control_c, 7, 11, 83
9, 350842, Note_on_c, 7, 79, 0
9, 350872, Note_on_c, 7, 79, 90
9, 350902, Control_c, 7, 11, 84
9, 351272, Control_c, 7, 11, 85
9, 351632, Control_c, 7, 11, 86
9, 351802, Note_on_c, 7, 79, 0
9, 351832, Note_on_c, 7, 79, 90
9, 352002, Control_c, 7, 11, 87
9, 352372, Control_c, 7, 11, 88
9, 352732, Control_c, 7, 11, 89
9, 352762, Note_on_c, 7, 79, 0
9, 352792, Note_on_c, 7, 79, 90
9, 353102, Control_c, 7, 11, 90
9, 353472, Control_c, 7, 11, 91
9, 353722, Note_on_c, 7, 79, 0
9, 353752, Note_on_c, 7, 79, 90
9, 353832, Control_c, 7, 11, 92
9, 354202, Control_c, 7, 11, 93
9, 354572, Control_c, 7, 11, 94
9, 354682, Note_on_c, 7, 79, 0
9, 354712, Note_on_c, 7, 79, 90
9, 354932, Control_c, 7, 11, 95
9, 355302, Control_c, 7, 11, 96
9, 355642, Note_on_c, 7, 79, 0
9, 355672, Note_on_c, 7, 79, 90
9, 355672, Control_c, 7, 11, 97
9, 356032, Control_c, 7, 11, 98
9, 356402, Control_c, 7, 11, 99
9, 356602, Note_on_c, 7, 79, 0
9, 356632, Note_on_c, 7, 79, 90
9, 356772, Control_c, 7, 11, 100
9, 357082, Note_on_c, 7, 79, 0
9, 357112, Note_on_c, 7, 79, 100
9, 357132, Control_c, 7, 11, 101
9, 357282, Control_c, 7, 11, 102
9, 357432, Control_c, 7, 11, 103
9, 357582, Control_c, 7, 11, 104
9, 357590, Note_on_c, 7, 79, 0
9, 357592, Note_on_c, 7, 79, 103
9, 357722, Control_c, 7, 11, 105
9, 357872, Control_c, 7, 11, 106
9, 358022, Control_c, 7, 11, 107
9, 358070, Note_on_c, 7, 79, 0
9, 358072, Note_on_c, 7, 79, 106
9, 358162, Control_c, 7, 11, 108
9, 358312, Control_c, 7, 11, 109
9, 358462, Control_c, 7, 11, 110
9, 358550, Note_on_c, 7, 79, 0
9, 358552, Note_on_c, 7, 79, 110
9, 358602, Control_c, 7, 11, 111
9, 358752, Control_c, 7, 11, 112
9, 358902, Control_c, 7, 11, 113
9, 359030, Note_on_c, 7, 79, 0
9, 359032, Note_on_c, 7, 79, 113
9, 359042, Control_c, 7, 11, 114
9, 359192, Control_c, 7, 11, 115
9, 359342, Control_c, 7, 11, 116
9, 359492, Control_c, 7, 11, 117
9, 359510, Note_on_c, 7, 79, 0
9, 359512, Note_on_c, 7, 79, 116
9, 359632, Control_c, 7, 11, 118
9, 359782, Control_c, 7, 11, 119
9, 359932, Control_c, 7, 11, 120
9, 359990, Note_on_c, 7, 79, 0
9, 359992, Note_on_c, 7, 79, 120
9, 360072, Control_c, 7, 11, 121
9, 360222, Control_c, 7, 11, 122
9, 360372, Control_c, 7, 11, 123
9, 360470, Note_on_c, 7, 79, 0
9, 360472, Note_on_c, 7, 79, 123
9, 360512, Control_c, 7, 11, 124
9, 360662, Control_c, 7, 11, 125
9, 360812, Control_c, 7, 11, 126
9, 360932, Control_c, 7, 11, 127
9, 360950, Note_on_c, 7, 79, 0
9, 360952, Note_on_c, 7, 79, 127
9, 361910, Note_on_c, 7, 79, 0
9, 361912, Note_on_c, 7, 82, 127
9, 362872, Note_on_c, 7, 81, 127
9, 362872, Note_on_c, 7, 82, 0
9, 363832, Note_on_c, 7, 79, 127
9, 363832, Note_on_c, 7, 81, 0
9, 364762, Note_on_c, 7, 79, 0
9, 364789, Control_c, 7, 11, 80
9, 364792, Note_on_c, 7, 77, 100
9, 366232, Note_on_c, 7, 79, 100
9, 366262, Note_on_c, 7, 77, 0
9, 366712, Note_on_c, 7, 77, 100
9, 366742, Note_on_c, 7, 79, 0
9, 367192, Note_on_c, 7, 76, 100
9, 367222, Note_on_c, 7, 77, 0
9, 367672, Note_on_c, 7, 73, 100
9, 367702, Note_on_c, 7, 76, 0
9, 368152, Note_on_c, 7, 69, 100
9, 368182, Note_on_c, 7, 73, 0
9, 368602, Note_on_c, 7, 69, 0
9, 368632, Note_on_c, 7, 81, 100
9, 370072, Note_on_c, 7, 82, 100
9, 370102, Note_on_c, 7, 81, 0
9, 370552, Note_on_c, 7, 81, 100
9, 370582, Note_on_c, 7, 82, 0
9, 371512, Note_on_c, 7, 79, 100
9, 371542, Note_on_c, 7, 81, 0
9, 372442, Note_on_c, 7, 79, 0
9, 372472, Note_on_c, 7, 77, 105
9, 372472, Control_c, 7, 11, 80
9, 372562, Control_c, 7, 11, 81
9, 372592, Note_on_c, 7, 77, 0
9, 372592, Note_on_c, 7, 81, 106
9, 372642, Control_c, 7, 11, 82
9, 372710, Note_on_c, 7, 81, 0
9, 372712, Note_on_c, 7, 81, 107
9, 372722, Control_c, 7, 11, 83
9, 372802, Control_c, 7, 11, 84
9, 372882, Control_c, 7, 11, 85
9, 372950, Note_on_c, 7, 81, 0
9, 372952, Note_on_c, 7, 81, 109
9, 372972, Control_c, 7, 11, 86
9, 373052, Control_c, 7, 11, 87
9, 373132, Control_c, 7, 11, 88
9, 373190, Note_on_c, 7, 81, 0
9, 373192, Note_on_c, 7, 81, 111
9, 373212, Control_c, 7, 11, 89
9, 373292, Control_c, 7, 11, 90
9, 373372, Control_c, 7, 11, 91
9, 373430, Note_on_c, 7, 81, 0
9, 373432, Note_on_c, 7, 81, 113
9, 373462, Control_c, 7, 11, 92
9, 373542, Control_c, 7, 11, 93
9, 373622, Control_c, 7, 11, 94
9, 373670, Note_on_c, 7, 81, 0
9, 373672, Note_on_c, 7, 81, 115
9, 373702, Control_c, 7, 11, 95
9, 373782, Control_c, 7, 11, 96
9, 373862, Control_c, 7, 11, 97
9, 373910, Note_on_c, 7, 81, 0
9, 373912, Note_on_c, 7, 81, 117
9, 373952, Control_c, 7, 11, 98
9, 374032, Control_c, 7, 11, 99
9, 374112, Control_c, 7, 11, 100
9, 374150, Note_on_c, 7, 81, 0
9, 374152, Note_on_c, 7, 81, 120
9, 374192, Control_c, 7, 11, 101
9, 374272, Control_c, 7, 11, 102
9, 374352, Control_c, 7, 11, 103
9, 374360, Note_on_c, 7, 81, 0
9, 374392, Note_on_c, 7, 81, 110
9, 374442, Control_c, 7, 11, 104
9, 374522, Control_c, 7, 11, 105
9, 374602, Control_c, 7, 11, 106
9, 374682, Control_c, 7, 11, 107
9, 374762, Control_c, 7, 11, 108
9, 374842, Control_c, 7, 11, 109
9, 374932, Control_c, 7, 11, 110
9, 375012, Control_c, 7, 11, 111
9, 375092, Control_c, 7, 11, 112
9, 375172, Control_c, 7, 11, 113
9, 375252, Control_c, 7, 11, 114
9, 375322, Note_on_c, 7, 81, 0
9, 375332, Control_c, 7, 11, 115
9, 375352, Note_on_c, 7, 81, 110
9, 375422, Control_c, 7, 11, 116
9, 375502, Control_c, 7, 11, 117
9, 375582, Control_c, 7, 11, 118
9, 375662, Control_c, 7, 11, 119
9, 375742, Control_c, 7, 11, 120
9, 375822, Control_c, 7, 11, 121
9, 375912, Control_c, 7, 11, 122
9, 375992, Control_c, 7, 11, 123
9, 376072, Control_c, 7, 11, 124
9, 376152, Control_c, 7, 11, 125
9, 376232, Control_c, 7, 11, 126
9, 376282, Note_on_c, 7, 81, 0
9, 376282, Control_c, 7, 11, 127
9, 376312, Note_on_c, 7, 81, 127
9, 377272, Note_on_c, 7, 81, 0
9, 377272, Note_on_c, 7, 84, 127
9, 378232, Note_on_c, 7, 83, 127
9, 378232, Note_on_c, 7, 84, 0
9, 379192, Note_on_c, 7, 81, 127
9, 379192, Note_on_c, 7, 83, 0
9, 380122, Note_on_c, 7, 81, 0
9, 380149, Control_c, 7, 11, 80
9, 380152, Note_on_c, 7, 79, 100
9, 381592, Note_on_c, 7, 81, 100
9, 381622, Note_on_c, 7, 79, 0
9, 382072, Note_on_c, 7, 79, 100
9, 382072, Control_c, 7, 11, 80
9, 382102, Note_on_c, 7, 81, 0
9, 382202, Control_c, 7, 11, 81
9, 382322, Control_c, 7, 11, 82
9, 382442, Control_c, 7, 11, 83
9, 382552, Note_on_c, 7, 78, 100
9, 382572, Control_c, 7, 11, 84
9, 382582, Note_on_c, 7, 79, 0
9, 382692, Control_c, 7, 11, 85
9, 382812, Control_c, 7, 11, 86
9, 382932, Control_c, 7, 11, 87
9, 383032, Note_on_c, 7, 75, 100
9, 383062, Note_on_c, 7, 78, 0
9, 383062, Control_c, 7, 11, 88
9, 383182, Control_c, 7, 11, 89
9, 383302, Control_c, 7, 11, 90
9, 383422, Control_c, 7, 11, 91
9, 383512, Note_on_c, 7, 71, 100
9, 383542, Note_on_c, 7, 75, 0
9, 383552, Control_c, 7, 11, 92
9, 383672, Control_c, 7, 11, 93
9, 383792, Control_c, 7, 11, 94
9, 383912, Control_c, 7, 11, 95
9, 383962, Note_on_c, 7, 71, 0
9, 383992, Note_on_c, 7, 83, 100
9, 384042, Control_c, 7, 11, 96
9, 384162, Control_c, 7, 11, 97
9, 384282, Control_c, 7, 11, 98
9, 384402, Control_c, 7, 11, 99
9, 384532, Control_c, 7, 11, 100
9, 384652, Control_c, 7, 11, 101
9, 384772, Control_c, 7, 11, 102
9, 384892, Control_c, 7, 11, 103
9, 385022, Control_c, 7, 11, 104
9, 385142, Control_c, 7, 11, 105
9, 385262, Control_c, 7, 11, 106
9, 385382, Control_c, 7, 11, 107
9, 385512, Control_c, 7, 11, 108
9, 385632, Control_c, 7, 11, 109
9, 385752, Control_c, 7, 11, 110
9, 385872, Control_c, 7, 11, 111
9, 386002, Control_c, 7, 11, 112
9, 386122, Control_c, 7, 11, 113
9, 386242, Control_c, 7, 11, 114
9, 386362, Control_c, 7, 11, 115
9, 386492, Control_c, 7, 11, 116
9, 386612, Control_c, 7, 11, 117
9, 386732, Control_c, 7, 11, 118
9, 386852, Control_c, 7, 11, 119
9, 386982, Control_c, 7, 11, 120
9, 387102, Control_c, 7, 11, 121
9, 387222, Control_c, 7, 11, 122
9, 387342, Control_c, 7, 11, 123
9, 387472, Control_c, 7, 11, 124
9, 387592, Control_c, 7, 11, 125
9, 387712, Control_c, 7, 11, 126
9, 387742, Note_on_c, 7, 83, 0
9, 387832, Note_on_c, 7, 84, 100
9, 387832, Control_c, 7, 11, 127
9, 387872, Control_c, 7, 11, 126
9, 387912, Control_c, 7, 11, 125
9, 387952, Control_c, 7, 11, 124
9, 387992, Control_c, 7, 11, 123
9, 388032, Control_c, 7, 11, 122
9, 388042, Note_on_c, 7, 84, 0
9, 388072, Note_on_c, 7, 72, 100
9, 388072, Control_c, 7, 11, 121
9, 388112, Control_c, 7, 11, 120
9, 388152, Control_c, 7, 11, 119
9, 388192, Control_c, 7, 11, 118
9, 388232, Control_c, 7, 11, 117
9, 388272, Control_c, 7, 11, 116
9, 388312, Note_on_c, 7, 67, 100
9, 388312, Control_c, 7, 11, 115
9, 388342, Note_on_c, 7, 72, 0
9, 388342, Control_c, 7, 11, 114
9, 388382, Control_c, 7, 11, 113
9, 388422, Control_c, 7, 11, 112
9, 388462, Control_c, 7, 11, 111
9, 388502, Control_c, 7, 11, 110
9, 388542, Control_c, 7, 11, 109
9, 388552, Note_on_c, 7, 72, 100
9, 388582, Note_on_c, 7, 67, 0
9, 388582, Control_c, 7, 11, 108
9, 388622, Control_c, 7, 11, 107
9, 388662, Control_c, 7, 11, 106
9, 388702, Control_c, 7, 11, 105
9, 388742, Control_c, 7, 11, 104
9, 388762, Note_on_c, 7, 72, 0
9, 388782, Control_c, 7, 11, 103
9, 388812, Control_c, 7, 11, 102
9, 388852, Control_c, 7, 11, 101
9, 388892, Control_c, 7, 11, 100
9, 388932, Control_c, 7, 11, 99
9, 388972, Control_c, 7, 11, 98
9, 389012, Control_c, 7, 11, 97
9, 389032, Note_on_c, 7, 72, 100
9, 389052, Control_c, 7, 11, 96
9, 389092, Control_c, 7, 11, 95
9, 389132, Control_c, 7, 11, 94
9, 389172, Control_c, 7, 11, 93
9, 389212, Control_c, 7, 11, 92
9, 389252, Control_c, 7, 11, 91
9, 389272, Note_on_c, 7, 70, 100
9, 389282, Control_c, 7, 11, 90
9, 389302, Note_on_c, 7, 72, 0
9, 389322, Control_c, 7, 11, 89
9, 389362, Control_c, 7, 11, 88
9, 389402, Control_c, 7, 11, 87
9, 389442, Control_c, 7, 11, 86
9, 389482, Control_c, 7, 11, 85
9, 389512, Note_on_c, 7, 72, 100
9, 389522, Control_c, 7, 11, 84
9, 389542, Note_on_c, 7, 70, 0
9, 389562, Control_c, 7, 11, 83
9, 389602, Control_c, 7, 11, 82
9, 389642, Control_c, 7, 11, 81
9, 389682, Control_c, 7, 11, 80
9, 389722, Note_on_c, 7, 72, 0
9, 389992, Note_on_c, 7, 72, 100
9, 390232, Note_on_c, 7, 68, 100
9, 390262, Note_on_c, 7, 72, 0
9, 390472, Note_on_c, 7, 72, 100
9, 390502, Note_on_c, 7, 68, 0
9, 390682, Note_on_c, 7, 72, 0
9, 390952, Note_on_c, 7, 72, 100
9, 391192, Note_on_c, 7, 67, 100
9, 391222, Note_on_c, 7, 72, 0
9, 391432, Note_on_c, 7, 72, 100
9, 391462, Note_on_c, 7, 67, 0
9, 391642, Note_on_c, 7, 72, 0
9, 391912, Note_on_c, 7, 72, 100
9, 392152, Note_on_c, 7, 65, 100
9, 392182, Note_on_c, 7, 72, 0
9, 392392, Note_on_c, 7, 72, 100
9, 392422, Note_on_c, 7, 65, 0
9, 392602, Note_on_c, 7, 72, 0
9, 392872, Note_on_c, 7, 72, 100
9, 393112, Note_on_c, 7, 67, 100
9, 393142, Note_on_c, 7, 72, 0
9, 393352, Note_on_c, 7, 72, 100
9, 393382, Note_on_c, 7, 67, 0
9, 393562, Note_on_c, 7, 72, 0
9, 393832, Note_on_c, 7, 72, 100
9, 394072, Note_on_c, 7, 68, 100
9, 394102, Note_on_c, 7, 72, 0
9, 394312, Note_on_c, 7, 72, 100
9, 394342, Note_on_c, 7, 68, 0
9, 394522, Note_on_c, 7, 72, 0
9, 394792, Note_on_c, 7, 72, 100
9, 395032, Note_on_c, 7, 69, 100
9, 395062, Note_on_c, 7, 72, 0
9, 395272, Note_on_c, 7, 72, 100
9, 395302, Note_on_c, 7, 69, 0
9, 395482, Note_on_c, 7, 72, 0
9, 395512, Note_on_c, 7, 71, 100
9, 395632, Note_on_c, 7, 71, 0
9, 395752, Note_on_c, 7, 74, 100
9, 395872, Note_on_c, 7, 74, 0
9, 395992, Note_on_c, 7, 74, 100
9, 396562, Note_on_c, 7, 74, 0
9, 396712, Note_on_c, 7, 74, 100
9, 396832, Note_on_c, 7, 74, 0
9, 396952, Note_on_c, 7, 74, 100
9, 397522, Note_on_c, 7, 74, 0
9, 397672, Note_on_c, 7, 74, 100
9, 397792, Note_on_c, 7, 74, 0
9, 397912, Note_on_c, 7, 74, 100
9, 398482, Note_on_c, 7, 74, 0
9, 398632, Note_on_c, 7, 74, 100
9, 398752, Note_on_c, 7, 74, 0
9, 398872, Note_on_c, 7, 74, 100
9, 399352, Control_c, 7, 11, 80
9, 399442, Note_on_c, 7, 74, 0
9, 399522, Control_c, 7, 11, 81
9, 399592, Note_on_c, 7, 75, 100
9, 399682, Control_c, 7, 11, 82
9, 399712, Note_on_c, 7, 75, 0
9, 399832, Note_on_c, 7, 75, 101
9, 399852, Control_c, 7, 11, 83
9, 400012, Control_c, 7, 11, 84
9, 400172, Control_c, 7, 11, 85
9, 400342, Control_c, 7, 11, 86
9, 400402, Note_on_c, 7, 75, 0
9, 400502, Control_c, 7, 11, 87
9, 400552, Note_on_c, 7, 75, 103
9, 400662, Control_c, 7, 11, 88
9, 400672, Note_on_c, 7, 75, 0
9, 400792, Note_on_c, 7, 75, 104
9, 400832, Control_c, 7, 11, 89
9, 400992, Control_c, 7, 11, 90
9, 401152, Control_c, 7, 11, 91
9, 401322, Control_c, 7, 11, 92
9, 401362, Note_on_c, 7, 75, 0
9, 401482, Control_c, 7, 11, 93
9, 401512, Note_on_c, 7, 75, 106
9, 401632, Note_on_c, 7, 75, 0
9, 401642, Control_c, 7, 11, 94
9, 401752, Note_on_c, 7, 75, 106
9, 401812, Control_c, 7, 11, 95
9, 401972, Control_c, 7, 11, 96
9, 402132, Control_c, 7, 11, 97
9, 402302, Control_c, 7, 11, 98
9, 402322, Note_on_c, 7, 75, 0
9, 402462, Control_c, 7, 11, 99
9, 402472, Note_on_c, 7, 75, 108
9, 402592, Note_on_c, 7, 75, 0
9, 402622, Control_c, 7, 11, 100
9, 402712, Note_on_c, 7, 75, 109
9, 402792, Control_c, 7, 11, 101
9, 402952, Control_c, 7, 11, 102
9, 403112, Control_c, 7, 11, 103
9, 403282, Note_on_c, 7, 75, 0
9, 403282, Control_c, 7, 11, 104
9, 403432, Note_on_c, 7, 77, 111
9, 403442, Control_c, 7, 11, 105
9, 403552, Note_on_c, 7, 77, 0
9, 403602, Control_c, 7, 11, 106
9, 403672, Note_on_c, 7, 77, 112
9, 403772, Control_c, 7, 11, 107
9, 403932, Control_c, 7, 11, 108
9, 404092, Control_c, 7, 11, 109
9, 404242, Note_on_c, 7, 77, 0
9, 404262, Control_c, 7, 11, 110
9, 404392, Note_on_c, 7, 77, 114
9, 404422, Control_c, 7, 11, 111
9, 404512, Note_on_c, 7, 77, 0
9, 404582, Control_c, 7, 11, 112
9, 404632, Note_on_c, 7, 77, 114
9, 404752, Control_c, 7, 11, 113
9, 404912, Control_c, 7, 11, 114
9, 405072, Control_c, 7, 11, 115
9, 405202, Note_on_c, 7, 77, 0
9, 405242, Control_c, 7, 11, 116
9, 405352, Note_on_c, 7, 79, 116
9, 405402, Control_c, 7, 11, 117
9, 405472, Note_on_c, 7, 79, 0
9, 405562, Control_c, 7, 11, 118
9, 405592, Note_on_c, 7, 79, 117
9, 405732, Control_c, 7, 11, 119
9, 405892, Control_c, 7, 11, 120
9, 406052, Control_c, 7, 11, 121
9, 406162, Note_on_c, 7, 79, 0
9, 406222, Control_c, 7, 11, 122
9, 406312, Note_on_c, 7, 79, 119
9, 406382, Control_c, 7, 11, 123
9, 406432, Note_on_c, 7, 79, 0
9, 406542, Control_c, 7, 11, 124
9, 406552, Note_on_c, 7, 79, 120
9, 406712, Control_c, 7, 11, 125
9, 406872, Control_c, 7, 11, 126
9, 406972, Note_on_c, 7, 79, 0
9, 406992, Control_c, 7, 11, 127
9, 407032, Note_on_c, 7, 80, 127
9, 408472, Note_on_c, 7, 79, 127
9, 408472, Note_on_c, 7, 80, 0
9, 408952, Note_on_c, 7, 71, 127
9, 408952, Note_on_c, 7, 79, 0
9, 409432, Note_on_c, 7, 71, 0
9, 409432, Note_on_c, 7, 72, 127
9, 409912, Note_on_c, 7, 71, 127
9, 409912, Note_on_c, 7, 72, 0
9, 410392, Note_on_c, 7, 71, 0
9, 410392, Note_on_c, 7, 72, 127
9, 410752, Note_on_c, 7, 72, 0
9, 410872, Note_on_c, 7, 80, 127
9, 412312, Note_on_c, 7, 79, 127
9, 412312, Note_on_c, 7, 80, 0
9, 412792, Note_on_c, 7, 71, 127
9, 412792, Note_on_c, 7, 79, 0
9, 413272, Note_on_c, 7, 71, 0
9, 413272, Note_on_c, 7, 72, 127
9, 413752, Note_on_c, 7, 71, 127
9, 413752, Note_on_c, 7, 72, 0
9, 414232, Note_on_c, 7, 71, 0
9, 414232, Note_on_c, 7, 72, 127
9, 414592, Note_on_c, 7, 72, 0
9, 414712, Note_on_c, 7, 85, 127
9, 416152, Note_on_c, 7, 84, 127
9, 416152, Note_on_c, 7, 85, 0
9, 416632, Note_on_c, 7, 76, 127
9, 416632, Note_on_c, 7, 84, 0
9, 417112, Note_on_c, 7, 76, 0
9, 417112, Note_on_c, 7, 77, 127
9, 417592, Note_on_c, 7, 76, 127
9, 417592, Note_on_c, 7, 77, 0
9, 418072, Note_on_c, 7, 76, 0
9, 418072, Note_on_c, 7, 77, 127
9, 418432, Note_on_c, 7, 77, 0
9, 418552, Note_on_c, 7, 85, 127
9, 419992, Note_on_c, 7, 84, 127
9, 419992, Note_on_c, 7, 85, 0
9, 420472, Note_on_c, 7, 76, 127
9, 420472, Note_on_c, 7, 84, 0
9, 420952, Note_on_c, 7, 76, 0
9, 420952, Note_on_c, 7, 77, 127
9, 421432, Note_on_c, 7, 76, 127
9, 421432, Note_on_c, 7, 77, 0
9, 421912, Note_on_c, 7, 76, 0
9, 421912, Note_on_c, 7, 77, 127
9, 422392, Note_on_c, 7, 77, 0
9, 422632, Note_on_c, 7, 80, 120
9, 422752, Note_on_c, 7, 80, 0
9, 422872, Note_on_c, 7, 73, 120
9, 423832, Note_on_c, 7, 72, 120
9, 423862, Note_on_c, 7, 73, 0
9, 424282, Note_on_c, 7, 72, 0
9, 424552, Note_on_c, 7, 80, 120
9, 424672, Note_on_c, 7, 80, 0
9, 424792, Note_on_c, 7, 73, 120
9, 425752, Note_on_c, 7, 72, 120
9, 425782, Note_on_c, 7, 73, 0
9, 426202, Note_on_c, 7, 72, 0
9, 426472, Note_on_c, 7, 80, 120
9, 426592, Note_on_c, 7, 80, 0
9, 426712, Note_on_c, 7, 73, 120
9, 427672, Note_on_c, 7, 72, 120
9, 427702, Note_on_c, 7, 73, 0
9, 428122, Note_on_c, 7, 72, 0
9, 428392, Note_on_c, 7, 80, 120
9, 428512, Note_on_c, 7, 80, 0
9, 428632, Note_on_c, 7, 73, 120
9, 429592, Note_on_c, 7, 72, 120
9, 429622, Note_on_c, 7, 73, 0
9, 430042, Note_on_c, 7, 72, 0
9, 430312, Note_on_c, 7, 80, 120
9, 430432, Note_on_c, 7, 80, 0
9, 430552, Note_on_c, 7, 73, 120
9, 431242, Note_on_c, 7, 73, 0
9, 431272, Note_on_c, 7, 71, 120
9, 431392, Note_on_c, 7, 71, 0
9, 431512, Note_on_c, 7, 79, 120
9, 431992, Note_on_c, 7, 79, 0
9, 432232, Note_on_c, 7, 79, 120
9, 432352, Note_on_c, 7, 79, 0
9, 432472, Note_on_c, 7, 72, 120
9, 433162, Note_on_c, 7, 72, 0
9, 433192, Note_on_c, 7, 69, 120
9, 433312, Note_on_c, 7, 69, 0
9, 433432, Note_on_c, 7, 77, 120
9, 434062, Note_on_c, 7, 77, 0
9, 434152, Note_on_c, 7, 77, 120
9, 434272, Note_on_c, 7, 77, 0
9, 434392, Note_on_c, 7, 71, 120
9, 435082, Note_on_c, 7, 71, 0
9, 435112, Note_on_c, 7, 77, 120
9, 435232, Note_on_c, 7, 77, 0
9, 435352, Note_on_c, 7, 68, 120
9, 436042, Note_on_c, 7, 68, 0
9, 436072, Note_on_c, 7, 77, 120
9, 436192, Note_on_c, 7, 77, 0
9, 436312, Note_on_c, 7, 74, 120
9, 437002, Note_on_c, 7, 74, 0
9, 437032, Note_on_c, 7, 77, 120
9, 437152, Note_on_c, 7, 77, 0
9, 437272, Note_on_c, 7, 72, 120
9, 437962, Note_on_c, 7, 72, 0
9, 437992, Note_on_c, 7, 71, 120
9, 438112, Note_on_c, 7, 71, 0
9, 438232, Note_on_c, 7, 55, 120
9, 438922, Note_on_c, 7, 55, 0
9, 438952, Note_on_c, 7, 56, 120
9, 439072, Note_on_c, 7, 56, 0
9, 439192, Note_on_c, 7, 68, 120
9, 439822, Note_on_c, 7, 68, 0
9, 439912, Note_on_c, 7, 68, 120
9, 440032, Note_on_c, 7, 68, 0
9, 440152, Note_on_c, 7, 65, 120
9, 440782, Note_on_c, 7, 65, 0
9, 440872, Note_on_c, 7, 65, 120
9, 440992, Note_on_c, 7, 65, 0
9, 441112, Note_on_c, 7, 67, 120
9, 441562, Note_on_c, 7, 67, 0
9, 441589, Control_c, 7, 11, 100
9, 441592, Note_on_c, 7, 60, 100
9, 442042, Note_on_c, 7, 60, 0
9, 442312, Note_on_c, 7, 68, 100
9, 442432, Note_on_c, 7, 68, 0
9, 442552, Note_on_c, 7, 67, 100
9, 442882, Note_on_c, 7, 67, 0
9, 443272, Note_on_c, 7, 63, 100
9, 443392, Note_on_c, 7, 63, 0
9, 443512, Note_on_c, 7, 62, 100
9, 443842, Note_on_c, 7, 62, 0
9, 444232, Note_on_c, 7, 68, 100
9, 444352, Note_on_c, 7, 68, 0
9, 444472, Note_on_c, 7, 67, 100
9, 444802, Note_on_c, 7, 67, 0
9, 445189, Control_c, 7, 11, 127
9, 445192, Note_on_c, 7, 62, 127
9, 445312, Note_on_c, 7, 62, 0
9, 445432, Note_on_c, 7, 63, 127
9, 445762, Note_on_c, 7, 63, 0
9, 446149, Control_c, 7, 11, 100
9, 446152, Note_on_c, 7, 68, 100
9, 446272, Note_on_c, 7, 68, 0
9, 446392, Note_on_c, 7, 67, 100
9, 446722, Note_on_c, 7, 67, 0
9, 447112, Note_on_c, 7, 63, 100
9, 447232, Note_on_c, 7, 63, 0
9, 447352, Note_on_c, 7, 62, 100
9, 447682, Note_on_c, 7, 62, 0
9, 448072, Note_on_c, 7, 68, 100
9, 448192, Note_on_c, 7, 68, 0
9, 448312, Note_on_c, 7, 67, 100
9, 448642, Note_on_c, 7, 67, 0
9, 449029, Control_c, 7, 11, 127
9, 449032, Note_on_c, 7, 62, 127
9, 449152, Note_on_c, 7, 62, 0
9, 449272, Note_on_c, 7, 63, 127
9, 449602, Note_on_c, 7, 63, 0
9, 449989, Control_c, 7, 11, 100
9, 449992, Note_on_c, 7, 80, 100
9, 450112, Note_on_c, 7, 80, 0
9, 450232, Note_on_c, 7, 79, 100
9, 450562, Note_on_c, 7, 79, 0
9, 450952, Note_on_c, 7, 74, 100
9, 451072, Note_on_c, 7, 74, 0
9, 451192, Note_on_c, 7, 72, 100
9, 451522, Note_on_c, 7, 72, 0
9, 451912, Note_on_c, 7, 77, 100
9, 452032, Note_on_c, 7, 77, 0
9, 452152, Note_on_c, 7, 75, 100
9, 452482, Note_on_c, 7, 75, 0
9, 452872, Note_on_c, 7, 70, 100
9, 452992, Note_on_c, 7, 70, 0
9, 453112, Note_on_c, 7, 68, 100
9, 453442, Note_on_c, 7, 68, 0
9, 453832, Note_on_c, 7, 74, 100
9, 453952, Note_on_c, 7, 74, 0
9, 454072, Note_on_c, 7, 72, 100
9, 454402, Note_on_c, 7, 72, 0
9, 454792, Note_on_c, 7, 67, 100
9, 454912, Note_on_c, 7, 67, 0
9, 455032, Note_on_c, 7, 65, 100
9, 455362, Note_on_c, 7, 65, 0
9, 455752, Note_on_c, 7, 72, 100
9, 455872, Note_on_c, 7, 72, 0
9, 455992, Note_on_c, 7, 71, 100
9, 456322, Note_on_c, 7, 71, 0
9, 456712, Note_on_c, 7, 77, 100
9, 456832, Note_on_c, 7, 77, 0
9, 456952, Note_on_c, 7, 75, 127
9, 457282, Note_on_c, 7, 75, 0
9, 457672, Note_on_c, 7, 80, 127
9, 457792, Note_on_c, 7, 80, 0
9, 457912, Note_on_c, 7, 79, 127
9, 458242, Note_on_c, 7, 79, 0
9, 458632, Note_on_c, 7, 74, 127
9, 458752, Note_on_c, 7, 74, 0
9, 458872, Note_on_c, 7, 72, 127
9, 459202, Note_on_c, 7, 72, 0
9, 459592, Note_on_c, 7, 77, 127
9, 459712, Note_on_c, 7, 77, 0
9, 459832, Note_on_c, 7, 75, 127
9, 460162, Note_on_c, 7, 75, 0
9, 460552, Note_on_c, 7, 70, 127
9, 460672, Note_on_c, 7, 70, 0
9, 460792, Note_on_c, 7, 68, 127
9, 460942, Note_on_c, 7, 68, 0
9, 461272, Note_on_c, 7, 73, 127
9, 461542, Note_on_c, 7, 73, 0
9, 462472, Control_c, 7, 11, 80
9, 468472, Note_on_c, 7, 76, 80
9, 469912, Note_on_c, 7, 77, 80
9, 469942, Note_on_c, 7, 76, 0
9, 470392, Note_on_c, 7, 76, 80
9, 470422, Note_on_c, 7, 77, 0
9, 470872, Note_on_c, 7, 74, 80
9, 470902, Note_on_c, 7, 76, 0
9, 471352, Note_on_c, 7, 71, 80
9, 471382, Note_on_c, 7, 74, 0
9, 471832, Note_on_c, 7, 67, 80
9, 471862, Note_on_c, 7, 71, 0
9, 472282, Note_on_c, 7, 67, 0
9, 472312, Note_on_c, 7, 79, 80
9, 473752, Note_on_c, 7, 81, 80
9, 473782, Note_on_c, 7, 79, 0
9, 474232, Note_on_c, 7, 79, 80
9, 474262, Note_on_c, 7, 81, 0
9, 475192, Note_on_c, 7, 77, 80
9, 475222, Note_on_c, 7, 79, 0
9, 476122, Note_on_c, 7, 77, 0
9, 476152, Note_on_c, 7, 75, 80
9, 476602, Note_on_c, 7, 75, 0
9, 476632, Note_on_c, 7, 79, 80
9, 477562, Note_on_c, 7, 79, 0
9, 477592, Note_on_c, 7, 79, 80
9, 478522, Note_on_c, 7, 79, 0
9, 478552, Note_on_c, 7, 79, 80
9, 479482, Note_on_c, 7, 79, 0
9, 479512, Note_on_c, 7, 79, 80
9, 480442, Note_on_c, 7, 79, 0
9, 480472, Note_on_c, 7, 79, 80
9, 481402, Note_on_c, 7, 79, 0
9, 481432, Note_on_c, 7, 79, 80
9, 482362, Note_on_c, 7, 79, 0
9, 482392, Note_on_c, 7, 79, 80
9, 483322, Note_on_c, 7, 79, 0
9, 483352, Note_on_c, 7, 79, 80
9, 483830, Note_on_c, 7, 79, 0
9, 483832, Note_on_c, 7, 79, 90
9, 483832, Control_c, 7, 11, 80
9, 484022, Control_c, 7, 11, 81
9, 484212, Control_c, 7, 11, 82
9, 484310, Note_on_c, 7, 79, 0
9, 484312, Note_on_c, 7, 79, 93
9, 484392, Control_c, 7, 11, 83
9, 484582, Control_c, 7, 11, 84
9, 484762, Control_c, 7, 11, 85
9, 484790, Note_on_c, 7, 79, 0
9, 484792, Note_on_c, 7, 79, 96
9, 484952, Control_c, 7, 11, 86
9, 485142, Control_c, 7, 11, 87
9, 485270, Note_on_c, 7, 79, 0
9, 485272, Note_on_c, 7, 79, 99
9, 485322, Control_c, 7, 11, 88
9, 485512, Control_c, 7, 11, 89
9, 485692, Control_c, 7, 11, 90
9, 485750, Note_on_c, 7, 79, 0
9, 485752, Note_on_c, 7, 79, 102
9, 485882, Control_c, 7, 11, 91
9, 486062, Control_c, 7, 11, 92
9, 486230, Note_on_c, 7, 79, 0
9, 486232, Note_on_c, 7, 79, 105
9, 486252, Control_c, 7, 11, 93
9, 486442, Control_c, 7, 11, 94
9, 486622, Control_c, 7, 11, 95
9, 486710, Note_on_c, 7, 79, 0
9, 486712, Note_on_c, 7, 79, 108
9, 486812, Control_c, 7, 11, 96
9, 486992, Control_c, 7, 11, 97
9, 487182, Control_c, 7, 11, 98
9, 487190, Note_on_c, 7, 79, 0
9, 487192, Note_on_c, 7, 79, 111
9, 487372, Control_c, 7, 11, 99
9, 487552, Control_c, 7, 11, 100
9, 487670, Note_on_c, 7, 79, 0
9, 487672, Note_on_c, 7, 79, 114
9, 487742, Control_c, 7, 11, 101
9, 487922, Control_c, 7, 11, 102
9, 488112, Control_c, 7, 11, 103
9, 488150, Note_on_c, 7, 79, 0
9, 488152, Note_on_c, 7, 79, 117
9, 488292, Control_c, 7, 11, 104
9, 488482, Control_c, 7, 11, 105
9, 488630, Note_on_c, 7, 79, 0
9, 488632, Note_on_c, 7, 79, 120
9, 488672, Control_c, 7, 11, 106
9, 488852, Control_c, 7, 11, 107
9, 489042, Control_c, 7, 11, 108
9, 489110, Note_on_c, 7, 79, 0
9, 489112, Note_on_c, 7, 79, 123
9, 489222, Control_c, 7, 11, 109
9, 489412, Control_c, 7, 11, 110
9, 489590, Note_on_c, 7, 79, 0
9, 489592, Note_on_c, 7, 80, 127
9, 490070, Note_on_c, 7, 80, 0
9, 490072, Note_on_c, 7, 80, 127
9, 490550, Note_on_c, 7, 80, 0
9, 490552, Note_on_c, 7, 80, 127
9, 491030, Note_on_c, 7, 80, 0
9, 491032, Note_on_c, 7, 80, 127
9, 491422, Note_on_c, 7, 80, 0
9, 491512, Note_on_c, 7, 80, 80
9, 491990, Note_on_c, 7, 80, 0
9, 491992, Note_on_c, 7, 80, 80
9, 492470, Note_on_c, 7, 80, 0
9, 492472, Note_on_c, 7, 80, 80
9, 492950, Note_on_c, 7, 80, 0
9, 492952, Note_on_c, 7, 80, 80
9, 493342, Note_on_c, 7, 80, 0
9, 493432, Note_on_c, 7, 82, 127
9, 493910, Note_on_c, 7, 82, 0
9, 493912, Note_on_c, 7, 82, 127
9, 494390, Note_on_c, 7, 82, 0
9, 494392, Note_on_c, 7, 82, 127
9, 494870, Note_on_c, 7, 82, 0
9, 494872, Note_on_c, 7, 82, 127
9, 495262, Note_on_c, 7, 82, 0
9, 495352, Note_on_c, 7, 82, 80
9, 495830, Note_on_c, 7, 82, 0
9, 495832, Note_on_c, 7, 82, 80
9, 496310, Note_on_c, 7, 82, 0
9, 496312, Note_on_c, 7, 82, 80
9, 496790, Note_on_c, 7, 82, 0
9, 496792, Note_on_c, 7, 82, 80
9, 497182, Note_on_c, 7, 82, 0
9, 497272, Note_on_c, 7, 84, 127
9, 499102, Note_on_c, 7, 84, 0
9, 499432, Note_on_c, 7, 84, 81
9, 499552, Note_on_c, 7, 84, 0
9, 499672, Note_on_c, 7, 84, 82
9, 500302, Note_on_c, 7, 84, 0
9, 500392, Note_on_c, 7, 84, 87
9, 500512, Note_on_c, 7, 84, 0
9, 500632, Note_on_c, 7, 84, 88
9, 501262, Note_on_c, 7, 84, 0
9, 501352, Note_on_c, 7, 84, 93
9, 501472, Note_on_c, 7, 84, 0
9, 501592, Note_on_c, 7, 84, 94
9, 502222, Note_on_c, 7, 84, 0
9, 502312, Note_on_c, 7, 84, 99
9, 502432, Note_on_c, 7, 84, 0
9, 502552, Note_on_c, 7, 84, 100
9, 503182, Note_on_c, 7, 84, 0
9, 503272, Note_on_c, 7, 84, 104
9, 503392, Note_on_c, 7, 84, 0
9, 503512, Note_on_c, 7, 84, 106
9, 504142, Note_on_c, 7, 84, 0
9, 504232, Note_on_c, 7, 84, 110
9, 504352, Note_on_c, 7, 84, 0
9, 504472, Note_on_c, 7, 84, 112
9, 505102, Note_on_c, 7, 84, 0
9, 505192, Note_on_c, 7, 84, 116
9, 505312, Note_on_c, 7, 84, 0
9, 505432, Note_on_c, 7, 84, 118
9, 506062, Note_on_c, 7, 84, 0
9, 506152, Note_on_c, 7, 84, 122
9, 506272, Note_on_c, 7, 84, 0
9, 506392, Note_on_c, 7, 84, 124
9, 507502, Note_on_c, 7, 84, 0
9, 507592, Note_on_c, 7, 72, 127
9, 507592, Note_on_c, 7, 84, 127
9, 507712, Note_on_c, 7, 72, 0
9, 507712, Note_on_c, 7, 84, 0
9, 507832, Note_on_c, 7, 72, 127
9, 507832, Note_on_c, 7, 84, 127
9, 507832, Control_c, 7, 11, 127
9, 508312, Control_c, 7, 11, 110
9, 509422, Note_on_c, 7, 72, 0
9, 509422, Note_on_c, 7, 84, 0
9, 509512, Note_on_c, 7, 72, 127
9, 509512, Note_on_c, 7, 84, 127
9, 509632, Note_on_c, 7, 72, 0
9, 509632, Note_on_c, 7, 84, 0
9, 509752, Note_on_c, 7, 72, 127
9, 509752, Note_on_c, 7, 84, 127
9, 509752, Control_c, 7, 11, 127
9, 510232, Control_c, 7, 11, 110
9, 511342, Note_on_c, 7, 72, 0
9, 511342, Note_on_c, 7, 84, 0
9, 511432, Note_on_c, 7, 72, 127
9, 511432, Note_on_c, 7, 84, 127
9, 511552, Note_on_c, 7, 72, 0
9, 511552, Note_on_c, 7, 84, 0
9, 511672, Note_on_c, 7, 72, 127
9, 511672, Note_on_c, 7, 84, 127
9, 511672, Control_c, 7, 11, 127
9, 512152, Control_c, 7, 11, 110
9, 513262, Note_on_c, 7, 72, 0
9, 513262, Note_on_c, 7, 84, 0
9, 513352, Note_on_c, 7, 72, 127
9, 513352, Note_on_c, 7, 84, 127
9, 513472, Note_on_c, 7, 72, 0
9, 513472, Note_on_c, 7, 84, 0
9, 513592, Note_on_c, 7, 72, 127
9, 513592, Note_on_c, 7, 84, 127
9, 513592, Control_c, 7, 11, 127
9, 514072, Control_c, 7, 11, 110
9, 515182, Note_on_c, 7, 72, 0
9, 515182, Note_on_c, 7, 84, 0
9, 515272, Note_on_c, 7, 72, 127
9, 515272, Note_on_c, 7, 84, 127
9, 515392, Note_on_c, 7, 72, 0
9, 515392, Note_on_c, 7, 84, 0
9, 515512, Note_on_c, 7, 72, 127
9, 515512, Note_on_c, 7, 84, 127
9, 515512, Control_c, 7, 11, 127
9, 515992, Control_c, 7, 11, 110
9, 516352, Note_on_c, 7, 72, 0
9, 516352, Note_on_c, 7, 84, 0
9, 516472, Note_on_c, 7, 86, 127
9, 517102, Note_on_c, 7, 86, 0
9, 517192, Note_on_c, 7, 86, 127
9, 517312, Note_on_c, 7, 86, 0
9, 517432, Note_on_c, 7, 86, 127
9, 517432, Control_c, 7, 11, 127
9, 517912, Control_c, 7, 11, 110
9, 518362, Note_on_c, 7, 86, 0
9, 518392, Note_on_c, 7, 87, 127
9, 518722, Note_on_c, 7, 87, 0
9, 519112, Note_on_c, 7, 83, 127
9, 519262, Note_on_c, 7, 83, 0
9, 519352, Note_on_c, 7, 84, 127
9, 519682, Note_on_c, 7, 84, 0
9, 520072, Note_on_c, 7, 80, 127
9, 520222, Note_on_c, 7, 80, 0
9, 520312, Note_on_c, 7, 79, 127
9, 520642, Note_on_c, 7, 79, 0
9, 521032, Note_on_c, 7, 80, 127
9, 521182, Note_on_c, 7, 80, 0
9, 521272, Note_on_c, 7, 79, 127
9, 521602, Note_on_c, 7, 79, 0
9, 521992, Note_on_c, 7, 89, 127
9, 522142, Note_on_c, 7, 89, 0
9, 522232, Note_on_c, 7, 87, 127
9, 522562, Note_on_c, 7, 87, 0
9, 522952, Note_on_c, 7, 83, 127
9, 523102, Note_on_c, 7, 83, 0
9, 523192, Note_on_c, 7, 84, 127
9, 523522, Note_on_c, 7, 84, 0
9, 523912, Note_on_c, 7, 80, 127
9, 524062, Note_on_c, 7, 80, 0
9, 524152, Note_on_c, 7, 79, 127
9, 524482, Note_on_c, 7, 79, 0
9, 524872, Note_on_c, 7, 80, 127
9, 525022, Note_on_c, 7, 80, 0
9, 525112, Note_on_c, 7, 79, 127
9, 525442, Note_on_c, 7, 79, 0
9, 525832, Note_on_c, 7, 89, 127
9, 525982, Note_on_c, 7, 89, 0
9, 526072, Note_on_c, 7, 87, 127
9, 526402, Note_on_c, 7, 87, 0
9, 526792, Note_on_c, 7, 83, 127
9, 526942, Note_on_c, 7, 83, 0
9, 527032, Note_on_c, 7, 84, 127
9, 527362, Note_on_c, 7, 84, 0
9, 527752, Note_on_c, 7, 71, 127
9, 527902, Note_on_c, 7, 71, 0
9, 527992, Note_on_c, 7, 72, 127
9, 528322, Note_on_c, 7, 72, 0
9, 528712, Note_on_c, 7, 59, 127
9, 528862, Note_on_c, 7, 59, 0
9, 528952, Note_on_c, 7, 60, 127
9, 529282, Note_on_c, 7, 60, 0
9, 529672, Note_on_c, 7, 59, 127
9, 529822, Note_on_c, 7, 59, 0
9, 529912, Note_on_c, 7, 60, 127
9, 529912, Control_c, 7, 11, 110
9, 529932, Control_c, 7, 11, 109
9, 529942, Control_c, 7, 11, 108
9, 529952, Control_c, 7, 11, 107
9, 529962, Control_c, 7, 11, 106
9, 529972, Control_c, 7, 11, 105
9, 529992, Control_c, 7, 11, 104
9, 530002, Control_c, 7, 11, 103
9, 530012, Control_c, 7, 11, 102
9, 530022, Control_c, 7, 11, 101
9, 530032, Control_c, 7, 11, 100
9, 530052, Control_c, 7, 11, 99
9, 530062, Control_c, 7, 11, 98
9, 530072, Control_c, 7, 11, 97
9, 530082, Control_c, 7, 11, 96
9, 530092, Control_c, 7, 11, 95
9, 530112, Control_c, 7, 11, 94
9, 530122, Control_c, 7, 11, 93
9, 530132, Control_c, 7, 11, 92
9, 530142, Control_c, 7, 11, 91
9, 530152, Control_c, 7, 11, 90
9, 530172, Control_c, 7, 11, 89
9, 530182, Control_c, 7, 11, 88
9, 530192, Control_c, 7, 11, 87
9, 530202, Control_c, 7, 11, 86
9, 530212, Control_c, 7, 11, 85
9, 530232, Control_c, 7, 11, 84
9, 530242, Control_c, 7, 11, 83
9, 530252, Control_c, 7, 11, 82
9, 530262, Control_c, 7, 11, 81
9, 530272, Control_c, 7, 11, 80
9, 530292, Control_c, 7, 11, 79
9, 530302, Control_c, 7, 11, 78
9, 530312, Control_c, 7, 11, 77
9, 530322, Control_c, 7, 11, 76
9, 530332, Control_c, 7, 11, 75
9, 530352, Control_c, 7, 11, 74
9, 530362, Control_c, 7, 11, 73
9, 530372, Control_c, 7, 11, 72
9, 530382, Control_c, 7, 11, 71
9, 530402, Control_c, 7, 11, 70
9, 530462, Control_c, 7, 11, 71
9, 530512, Control_c, 7, 11, 72
9, 530572, Control_c, 7, 11, 73
9, 530622, Control_c, 7, 11, 74
9, 530682, Control_c, 7, 11, 75
9, 530732, Control_c, 7, 11, 76
9, 530782, Control_c, 7, 11, 77
9, 530842, Control_c, 7, 11, 78
9, 530892, Control_c, 7, 11, 79
9, 530952, Control_c, 7, 11, 80
9, 531002, Control_c, 7, 11, 81
9, 531052, Control_c, 7, 11, 82
9, 531112, Control_c, 7, 11, 83
9, 531162, Control_c, 7, 11, 84
9, 531222, Control_c, 7, 11, 85
9, 531272, Control_c, 7, 11, 86
9, 531322, Control_c, 7, 11, 87
9, 531382, Control_c, 7, 11, 88
9, 531432, Control_c, 7, 11, 89
9, 531492, Control_c, 7, 11, 90
9, 531542, Control_c, 7, 11, 91
9, 531592, Control_c, 7, 11, 92
9, 531652, Control_c, 7, 11, 93
9, 531702, Control_c, 7, 11, 94
9, 531762, Control_c, 7, 11, 95
9, 531812, Control_c, 7, 11, 96
9, 531862, Control_c, 7, 11, 97
9, 531922, Control_c, 7, 11, 98
9, 531972, Control_c, 7, 11, 99
9, 532032, Control_c, 7, 11, 100
9, 532082, Control_c, 7, 11, 101
9, 532132, Control_c, 7, 11, 102
9, 532192, Control_c, 7, 11, 103
9, 532242, Control_c, 7, 11, 104
9, 532302, Control_c, 7, 11, 105
9, 532352, Control_c, 7, 11, 106
9, 532402, Control_c, 7, 11, 107
9, 532462, Control_c, 7, 11, 108
9, 532512, Control_c, 7, 11, 109
9, 532572, Control_c, 7, 11, 110
9, 532622, Control_c, 7, 11, 111
9, 532672, Control_c, 7, 11, 112
9, 532732, Control_c, 7, 11, 113
9, 532782, Control_c, 7, 11, 114
9, 532842, Control_c, 7, 11, 115
9, 532892, Control_c, 7, 11, 116
9, 532942, Control_c, 7, 11, 117
9, 533002, Control_c, 7, 11, 118
9, 533052, Control_c, 7, 11, 119
9, 533112, Control_c, 7, 11, 120
9, 533162, Control_c, 7, 11, 121
9, 533212, Control_c, 7, 11, 122
9, 533272, Control_c, 7, 11, 123
9, 533322, Control_c, 7, 11, 124
9, 533382, Control_c, 7, 11, 125
9, 533432, Control_c, 7, 11, 126
9, 533482, Note_on_c, 7, 60, 0
9, 533749, Control_c, 7, 11, 127
9, 533752, Note_on_c, 7, 65, 127
9, 533752, Note_on_c, 7, 72, 127
9, 533752, Note_on_c, 7, 80, 127
9, 533962, Note_on_c, 7, 65, 0
9, 533962, Note_on_c, 7, 72, 0
9, 533962, Note_on_c, 7, 80, 0
9, 535192, Control_c, 7, 11, 110
9, 537592, Note_on_c, 7, 60, 127
9, 537592, Control_c, 7, 11, 110
9, 537612, Control_c, 7, 11, 109
9, 537622, Control_c, 7, 11, 108
9, 537632, Control_c, 7, 11, 107
9, 537642, Control_c, 7, 11, 106
9, 537652, Control_c, 7, 11, 105
9, 537672, Control_c, 7, 11, 104
9, 537682, Control_c, 7, 11, 103
9, 537692, Control_c, 7, 11, 102
9, 537702, Control_c, 7, 11, 101
9, 537712, Control_c, 7, 11, 100
9, 537732, Control_c, 7, 11, 99
9, 537742, Control_c, 7, 11, 98
9, 537752, Control_c, 7, 11, 97
9, 537762, Control_c, 7, 11, 96
9, 537772, Control_c, 7, 11, 95
9, 537792, Control_c, 7, 11, 94
9, 537802, Control_c, 7, 11, 93
9, 537812, Control_c, 7, 11, 92
9, 537822, Control_c, 7, 11, 91
9, 537832, Control_c, 7, 11, 90
9, 537852, Control_c, 7, 11, 89
9, 537862, Control_c, 7, 11, 88
9, 537872, Control_c, 7, 11, 87
9, 537882, Control_c, 7, 11, 86
9, 537892, Control_c, 7, 11, 85
9, 537912, Control_c, 7, 11, 84
9, 537922, Control_c, 7, 11, 83
9, 537932, Control_c, 7, 11, 82
9, 537942, Control_c, 7, 11, 81
9, 537952, Control_c, 7, 11, 80
9, 537972, Control_c, 7, 11, 79
9, 537982, Control_c, 7, 11, 78
9, 537992, Control_c, 7, 11, 77
9, 538002, Control_c, 7, 11, 76
9, 538012, Control_c, 7, 11, 75
9, 538032, Control_c, 7, 11, 74
9, 538042, Control_c, 7, 11, 73
9, 538052, Control_c, 7, 11, 72
9, 538062, Control_c, 7, 11, 71
9, 538082, Control_c, 7, 11, 70
9, 538142, Control_c, 7, 11, 71
9, 538192, Control_c, 7, 11, 72
9, 538252, Control_c, 7, 11, 73
9, 538302, Control_c, 7, 11, 74
9, 538362, Control_c, 7, 11, 75
9, 538412, Control_c, 7, 11, 76
9, 538462, Control_c, 7, 11, 77
9, 538522, Control_c, 7, 11, 78
9, 538572, Control_c, 7, 11, 79
9, 538632, Control_c, 7, 11, 80
9, 538682, Control_c, 7, 11, 81
9, 538732, Control_c, 7, 11, 82
9, 538792, Control_c, 7, 11, 83
9, 538842, Control_c, 7, 11, 84
9, 538902, Control_c, 7, 11, 85
9, 538952, Control_c, 7, 11, 86
9, 539002, Control_c, 7, 11, 87
9, 539062, Control_c, 7, 11, 88
9, 539112, Control_c, 7, 11, 89
9, 539172, Control_c, 7, 11, 90
9, 539222, Control_c, 7, 11, 91
9, 539272, Control_c, 7, 11, 92
9, 539332, Control_c, 7, 11, 93
9, 539382, Control_c, 7, 11, 94
9, 539442, Control_c, 7, 11, 95
9, 539492, Control_c, 7, 11, 96
9, 539542, Control_c, 7, 11, 97
9, 539602, Control_c, 7, 11, 98
9, 539652, Control_c, 7, 11, 99
9, 539712, Control_c, 7, 11, 100
9, 539762, Control_c, 7, 11, 101
9, 539812, Control_c, 7, 11, 102
9, 539872, Control_c, 7, 11, 103
9, 539922, Control_c, 7, 11, 104
9, 539982, Control_c, 7, 11, 105
9, 540032, Control_c, 7, 11, 106
9, 540082, Control_c, 7, 11, 107
9, 540142, Control_c, 7, 11, 108
9, 540192, Control_c, 7, 11, 109
9, 540252, Control_c, 7, 11, 110
9, 540302, Control_c, 7, 11, 111
9, 540352, Control_c, 7, 11, 112
9, 540412, Control_c, 7, 11, 113
9, 540462, Control_c, 7, 11, 114
9, 540522, Control_c, 7, 11, 115
9, 540572, Control_c, 7, 11, 116
9, 540622, Control_c, 7, 11, 117
9, 540682, Control_c, 7, 11, 118
9, 540732, Control_c, 7, 11, 119
9, 540792, Control_c, 7, 11, 120
9, 540842, Control_c, 7, 11, 121
9, 540892, Control_c, 7, 11, 122
9, 540952, Control_c, 7, 11, 123
9, 541002, Control_c, 7, 11, 124
9, 541062, Control_c, 7, 11, 125
9, 541112, Control_c, 7, 11, 126
9, 541162, Note_on_c, 7, 60, 0
9, 541429, Control_c, 7, 11, 127
9, 541432, Note_on_c, 7, 62, 127
9, 541432, Note_on_c, 7, 74, 127
9, 541432, Note_on_c, 7, 86, 127
9, 541642, Note_on_c, 7, 62, 0
9, 541642, Note_on_c, 7, 74, 0
9, 541642, Note_on_c, 7, 86, 0
9, 542872, Control_c, 7, 11, 110
9, 545272, Note_on_c, 7, 60, 127
9, 545272, Control_c, 7, 11, 110
9, 545292, Control_c, 7, 11, 109
9, 545302, Control_c, 7, 11, 108
9, 545312, Control_c, 7, 11, 107
9, 545322, Control_c, 7, 11, 106
9, 545332, Control_c, 7, 11, 105
9, 545352, Control_c, 7, 11, 104
9, 545362, Control_c, 7, 11, 103
9, 545372, Control_c, 7, 11, 102
9, 545382, Control_c, 7, 11, 101
9, 545392, Control_c, 7, 11, 100
9, 545412, Control_c, 7, 11, 99
9, 545422, Control_c, 7, 11, 98
9, 545432, Control_c, 7, 11, 97
9, 545442, Control_c, 7, 11, 96
9, 545452, Control_c, 7, 11, 95
9, 545472, Control_c, 7, 11, 94
9, 545482, Control_c, 7, 11, 93
9, 545492, Control_c, 7, 11, 92
9, 545502, Control_c, 7, 11, 91
9, 545512, Control_c, 7, 11, 90
9, 545532, Control_c, 7, 11, 89
9, 545542, Control_c, 7, 11, 88
9, 545552, Control_c, 7, 11, 87
9, 545562, Control_c, 7, 11, 86
9, 545572, Control_c, 7, 11, 85
9, 545592, Control_c, 7, 11, 84
9, 545602, Control_c, 7, 11, 83
9, 545612, Control_c, 7, 11, 82
9, 545622, Control_c, 7, 11, 81
9, 545632, Control_c, 7, 11, 80
9, 545652, Control_c, 7, 11, 79
9, 545662, Control_c, 7, 11, 78
9, 545672, Control_c, 7, 11, 77
9, 545682, Control_c, 7, 11, 76
9, 545692, Control_c, 7, 11, 75
9, 545712, Control_c, 7, 11, 74
9, 545722, Control_c, 7, 11, 73
9, 545732, Control_c, 7, 11, 72
9, 545742, Control_c, 7, 11, 71
9, 545762, Control_c, 7, 11, 70
9, 545822, Control_c, 7, 11, 71
9, 545872, Control_c, 7, 11, 72
9, 545932, Control_c, 7, 11, 73
9, 545982, Control_c, 7, 11, 74
9, 546042, Control_c, 7, 11, 75
9, 546092, Control_c, 7, 11, 76
9, 546142, Control_c, 7, 11, 77
9, 546202, Control_c, 7, 11, 78
9, 546252, Control_c, 7, 11, 79
9, 546312, Control_c, 7, 11, 80
9, 546362, Control_c, 7, 11, 81
9, 546412, Control_c, 7, 11, 82
9, 546472, Control_c, 7, 11, 83
9, 546522, Control_c, 7, 11, 84
9, 546582, Control_c, 7, 11, 85
9, 546632, Control_c, 7, 11, 86
9, 546682, Control_c, 7, 11, 87
9, 546742, Control_c, 7, 11, 88
9, 546792, Control_c, 7, 11, 89
9, 546852, Control_c, 7, 11, 90
9, 546902, Control_c, 7, 11, 91
9, 546952, Control_c, 7, 11, 92
9, 547012, Control_c, 7, 11, 93
9, 547062, Control_c, 7, 11, 94
9, 547122, Control_c, 7, 11, 95
9, 547172, Control_c, 7, 11, 96
9, 547222, Control_c, 7, 11, 97
9, 547282, Control_c, 7, 11, 98
9, 547332, Control_c, 7, 11, 99
9, 547392, Control_c, 7, 11, 100
9, 547442, Control_c, 7, 11, 101
9, 547492, Control_c, 7, 11, 102
9, 547552, Control_c, 7, 11, 103
9, 547602, Control_c, 7, 11, 104
9, 547662, Control_c, 7, 11, 105
9, 547712, Control_c, 7, 11, 106
9, 547762, Control_c, 7, 11, 107
9, 547822, Control_c, 7, 11, 108
9, 547872, Control_c, 7, 11, 109
9, 547932, Control_c, 7, 11, 110
9, 547982, Control_c, 7, 11, 111
9, 548032, Control_c, 7, 11, 112
9, 548092, Control_c, 7, 11, 113
9, 548142, Control_c, 7, 11, 114
9, 548202, Control_c, 7, 11, 115
9, 548252, Control_c, 7, 11, 116
9, 548302, Control_c, 7, 11, 117
9, 548362, Control_c, 7, 11, 118
9, 548412, Control_c, 7, 11, 119
9, 548472, Control_c, 7, 11, 120
9, 548522, Control_c, 7, 11, 121
9, 548572, Control_c, 7, 11, 122
9, 548632, Control_c, 7, 11, 123
9, 548682, Control_c, 7, 11, 124
9, 548742, Control_c, 7, 11, 125
9, 548792, Control_c, 7, 11, 126
9, 548842, Note_on_c, 7, 60, 0
9, 549109, Control_c, 7, 11, 127
9, 549112, Note_on_c, 7, 87, 127
9, 549322, Note_on_c, 7, 87, 0
9, 549592, Note_on_c, 7, 83, 127
9, 549832, Note_on_c, 7, 83, 0
9, 550552, Control_c, 7, 11, 110
9, 552952, Note_on_c, 7, 84, 127
9, 553162, Note_on_c, 7, 84, 0
9, 553432, Note_on_c, 7, 79, 127
9, 553642, Note_on_c, 7, 79, 0
9, 554872, Note_on_c, 7, 80, 127
9, 555082, Note_on_c, 7, 80, 0
9, 555352, Note_on_c, 7, 76, 127
9, 555562, Note_on_c, 7, 76, 0
9, 556792, Note_on_c, 7, 77, 90
9, 557152, Note_on_c, 7, 77, 0
9, 557752, Note_on_c, 7, 74, 83
9, 558112, Note_on_c, 7, 74, 0
9, 560632, Note_on_c, 7, 75, 60
9, 561052, Note_on_c, 7, 75, 0
9, 562552, Control_c, 7, 11, 80
9, 564472, Note_on_c, 7, 62, 60
9, 564922, Note_on_c, 7, 62, 0
9, 568312, Note_on_c, 7, 60, 55
9, 571192, Note_on_c, 7, 59, 53
9, 571222, Note_on_c, 7, 60, 0
9, 572152, Note_on_c, 7, 60, 53
9, 572182, Note_on_c, 7, 59, 0
9, 575032, Note_on_c, 7, 59, 50
9, 575062, Note_on_c, 7, 60, 0
9, 575992, Note_on_c, 7, 60, 50
9, 576022, Note_on_c, 7, 59, 0
9, 579832, Note_on_c, 7, 59, 47
9, 579862, Note_on_c, 7, 60, 0
9, 583672, Note_on_c, 7, 60, 44
9, 583702, Note_on_c, 7, 59, 0
9, 587512, Note_on_c, 7, 59, 41
9, 587542, Note_on_c, 7, 60, 0
9, 589432, Control_c, 7, 11, 80
9, 589822, Control_c, 7, 11, 79
9, 590202, Control_c, 7, 11, 78
9, 590592, Control_c, 7, 11, 77
9, 590972, Control_c, 7, 11, 76
9, 591352, Control_c, 7, 11, 75
9, 591742, Control_c, 7, 11, 74
9, 592122, Control_c, 7, 11, 73
9, 592512, Control_c, 7, 11, 72
9, 592892, Control_c, 7, 11, 71
9, 593272, Control_c, 7, 11, 70
9, 593452, Control_c, 7, 11, 69
9, 593622, Control_c, 7, 11, 68
9, 593802, Control_c, 7, 11, 67
9, 593972, Control_c, 7, 11, 66
9, 594152, Control_c, 7, 11, 65
9, 594322, Control_c, 7, 11, 64
9, 594502, Control_c, 7, 11, 63
9, 594672, Control_c, 7, 11, 62
9, 594852, Control_c, 7, 11, 61
9, 595022, Control_c, 7, 11, 60
9, 595162, Note_on_c, 7, 59, 0
9, 595192, Note_on_c, 7, 60, 40
9, 595312, Note_on_c, 7, 60, 0
9, 597112, Control_c, 7, 11, 80
9, 599032, Note_on_c, 7, 60, 20
9, 599482, Note_on_c, 7, 60, 0
9, 600952, Note_on_c, 7, 60, 20
9, 601402, Note_on_c, 7, 60, 0
9, 602872, Note_on_c, 7, 60, 20
9, 603322, Note_on_c, 7, 60, 0
9, 603322, End_track
10, 0, Start_track
10, 0, Channel_prefix, 8
10, 0, Title_t, "Violin II"
10, 0, Instrument_name_t, "Violino II"
10, 13437, Note_on_c, 8, 71, 127
10, 13437, Note_on_c, 8, 80, 100
10, 13587, Note_on_c, 8, 71, 0
10, 13587, Note_on_c, 8, 80, 0
10, 21117, Note_on_c, 8, 66, 127
10, 21117, Note_on_c, 8, 84, 127
10, 21267, Note_on_c, 8, 66, 0
10, 21267, Note_on_c, 8, 84, 0
10, 24957, Note_on_c, 8, 55, 127
10, 25167, Note_on_c, 8, 55, 0
10, 35517, Note_on_c, 8, 59, 80
10, 35667, Note_on_c, 8, 59, 0
10, 35757, Note_on_c, 8, 65, 80
10, 35907, Note_on_c, 8, 65, 0
10, 35997, Note_on_c, 8, 65, 80
10, 36237, Note_on_c, 8, 63, 80
10, 36267, Note_on_c, 8, 65, 0
10, 36447, Note_on_c, 8, 63, 0
10, 36477, Control_c, 8, 11, 80
10, 36587, Control_c, 8, 11, 81
10, 36697, Control_c, 8, 11, 82
10, 36717, Note_on_c, 8, 68, 82
10, 36807, Control_c, 8, 11, 83
10, 36867, Note_on_c, 8, 68, 0
10, 36917, Control_c, 8, 11, 84
10, 36957, Note_on_c, 8, 68, 84
10, 37027, Control_c, 8, 11, 85
10, 37137, Control_c, 8, 11, 86
10, 37237, Control_c, 8, 11, 87
10, 37347, Control_c, 8, 11, 88
10, 37457, Control_c, 8, 11, 89
10, 37567, Control_c, 8, 11, 90
10, 37647, Note_on_c, 8, 68, 0
10, 37677, Note_on_c, 8, 67, 90
10, 37677, Control_c, 8, 11, 91
10, 37787, Control_c, 8, 11, 92
10, 37827, Note_on_c, 8, 67, 0
10, 37887, Control_c, 8, 11, 93
10, 37917, Note_on_c, 8, 67, 92
10, 37997, Control_c, 8, 11, 94
10, 38107, Control_c, 8, 11, 95
10, 38217, Control_c, 8, 11, 96
10, 38327, Control_c, 8, 11, 97
10, 38437, Control_c, 8, 11, 98
10, 38537, Control_c, 8, 11, 99
10, 38607, Note_on_c, 8, 67, 0
10, 38637, Note_on_c, 8, 66, 99
10, 38647, Control_c, 8, 11, 100
10, 38757, Control_c, 8, 11, 101
10, 38787, Note_on_c, 8, 66, 0
10, 38867, Control_c, 8, 11, 102
10, 38877, Note_on_c, 8, 66, 101
10, 38977, Control_c, 8, 11, 103
10, 39087, Control_c, 8, 11, 104
10, 39187, Control_c, 8, 11, 105
10, 39297, Control_c, 8, 11, 106
10, 39407, Control_c, 8, 11, 107
10, 39517, Control_c, 8, 11, 108
10, 39627, Control_c, 8, 11, 109
10, 39737, Control_c, 8, 11, 110
10, 39747, Note_on_c, 8, 66, 0
10, 39837, Note_on_c, 8, 67, 127
10, 40107, Note_on_c, 8, 67, 0
10, 40314, Control_c, 8, 11, 80
10, 48957, Note_on_c, 8, 57, 80
10, 49107, Note_on_c, 8, 57, 0
10, 49197, Note_on_c, 8, 63, 80
10, 49347, Note_on_c, 8, 63, 0
10, 49437, Note_on_c, 8, 63, 80
10, 49677, Note_on_c, 8, 61, 80
10, 49707, Note_on_c, 8, 63, 0
10, 49887, Note_on_c, 8, 61, 0
10, 49917, Control_c, 8, 11, 80
10, 50027, Control_c, 8, 11, 81
10, 50137, Control_c, 8, 11, 82
10, 50157, Note_on_c, 8, 66, 82
10, 50247, Control_c, 8, 11, 83
10, 50307, Note_on_c, 8, 66, 0
10, 50357, Control_c, 8, 11, 84
10, 50397, Note_on_c, 8, 66, 84
10, 50467, Control_c, 8, 11, 85
10, 50577, Control_c, 8, 11, 86
10, 50677, Control_c, 8, 11, 87
10, 50787, Control_c, 8, 11, 88
10, 50897, Control_c, 8, 11, 89
10, 51007, Control_c, 8, 11, 90
10, 51087, Note_on_c, 8, 66, 0
10, 51117, Note_on_c, 8, 65, 90
10, 51117, Control_c, 8, 11, 91
10, 51227, Control_c, 8, 11, 92
10, 51267, Note_on_c, 8, 65, 0
10, 51327, Control_c, 8, 11, 93
10, 51357, Note_on_c, 8, 65, 92
10, 51437, Control_c, 8, 11, 94
10, 51547, Control_c, 8, 11, 95
10, 51657, Control_c, 8, 11, 96
10, 51767, Control_c, 8, 11, 97
10, 51877, Control_c, 8, 11, 98
10, 51977, Control_c, 8, 11, 99
10, 52047, Note_on_c, 8, 65, 0
10, 52077, Note_on_c, 8, 64, 99
10, 52087, Control_c, 8, 11, 100
10, 52197, Control_c, 8, 11, 101
10, 52227, Note_on_c, 8, 64, 0
10, 52307, Control_c, 8, 11, 102
10, 52317, Note_on_c, 8, 64, 127
10, 52417, Control_c, 8, 11, 103
10, 52527, Control_c, 8, 11, 104
10, 52627, Control_c, 8, 11, 105
10, 52647, Note_on_c, 8, 64, 0
10, 52737, Control_c, 8, 11, 106
10, 52847, Control_c, 8, 11, 107
10, 52957, Control_c, 8, 11, 108
10, 53067, Control_c, 8, 11, 109
10, 53177, Control_c, 8, 11, 110
10, 53754, Control_c, 8, 11, 80
10, 55917, Note_on_c, 8, 65, 90
10, 56007, Note_on_c, 8, 65, 0
10, 56157, Note_on_c, 8, 65, 90
10, 56787, Note_on_c, 8, 65, 0
10, 56877, Note_on_c, 8, 63, 90
10, 56967, Note_on_c, 8, 63, 0
10, 57117, Note_on_c, 8, 63, 90
10, 57597, Control_c, 8, 11, 80
10, 57747, Note_on_c, 8, 63, 0
10, 57837, Note_on_c, 8, 62, 90
10, 57927, Note_on_c, 8, 62, 0
10, 57967, Control_c, 8, 11, 81
10, 58077, Note_on_c, 8, 62, 91
10, 58337, Control_c, 8, 11, 83
10, 58697, Control_c, 8, 11, 84
10, 59067, Control_c, 8, 11, 86
10, 59427, Control_c, 8, 11, 87
10, 59607, Note_on_c, 8, 62, 0
10, 59757, Note_on_c, 8, 62, 98
10, 59797, Control_c, 8, 11, 89
10, 59847, Note_on_c, 8, 62, 0
10, 59997, Note_on_c, 8, 62, 99
10, 60157, Control_c, 8, 11, 90
10, 60527, Control_c, 8, 11, 92
10, 60897, Control_c, 8, 11, 93
10, 61257, Control_c, 8, 11, 95
10, 61527, Note_on_c, 8, 62, 0
10, 61627, Control_c, 8, 11, 97
10, 61677, Note_on_c, 8, 62, 114
10, 61767, Note_on_c, 8, 62, 0
10, 61917, Note_on_c, 8, 62, 115
10, 61987, Control_c, 8, 11, 98
10, 62357, Control_c, 8, 11, 100
10, 62547, Note_on_c, 8, 62, 0
10, 62637, Note_on_c, 8, 62, 118
10, 62717, Control_c, 8, 11, 101
10, 62727, Note_on_c, 8, 62, 0
10, 62877, Note_on_c, 8, 62, 119
10, 63087, Control_c, 8, 11, 103
10, 63457, Control_c, 8, 11, 104
10, 63507, Note_on_c, 8, 62, 0
10, 63597, Note_on_c, 8, 62, 122
10, 63687, Note_on_c, 8, 62, 0
10, 63817, Control_c, 8, 11, 106
10, 63837, Note_on_c, 8, 62, 123
10, 64187, Control_c, 8, 11, 107
10, 64467, Note_on_c, 8, 62, 0
10, 64547, Control_c, 8, 11, 109
10, 64557, Note_on_c, 8, 62, 126
10, 64647, Note_on_c, 8, 62, 0
10, 64797, Note_on_c, 8, 62, 127
10, 64917, Control_c, 8, 11, 110
10, 65187, Note_on_c, 8, 62, 0
10, 65277, Note_on_c, 8, 65, 127
10, 67047, Note_on_c, 8, 65, 0
10, 67197, Note_on_c, 8, 65, 127
10, 67527, Note_on_c, 8, 65, 0
10, 67677, Note_on_c, 8, 63, 127
10, 68007, Note_on_c, 8, 63, 0
10, 68157, Note_on_c, 8, 61, 127
10, 68487, Note_on_c, 8, 61, 0
10, 68637, Note_on_c, 8, 60, 127
10, 68967, Note_on_c, 8, 60, 0
10, 69117, Note_on_c, 8, 59, 127
10, 69927, Note_on_c, 8, 59, 0
10, 70077, Note_on_c, 8, 60, 127
10, 70887, Note_on_c, 8, 60, 0
10, 71037, Note_on_c, 8, 62, 127
10, 71847, Note_on_c, 8, 62, 0
10, 71997, Note_on_c, 8, 63, 127
10, 72807, Note_on_c, 8, 63, 0
10, 72957, Note_on_c, 8, 64, 127
10, 73767, Note_on_c, 8, 64, 0
10, 73917, Note_on_c, 8, 65, 127
10, 74727, Note_on_c, 8, 65, 0
10, 74877, Note_on_c, 8, 60, 127
10, 74877, Note_on_c, 8, 67, 127
10, 75687, Note_on_c, 8, 60, 0
10, 75687, Note_on_c, 8, 67, 0
10, 75837, Note_on_c, 8, 60, 127
10, 75837, Note_on_c, 8, 68, 127
10, 76647, Note_on_c, 8, 60, 0
10, 76647, Note_on_c, 8, 68, 0
10, 76797, Note_on_c, 8, 69, 110
10, 77727, Note_on_c, 8, 69, 0
10, 78717, Note_on_c, 8, 69, 110
10, 79647, Note_on_c, 8, 69, 0
10, 80637, Note_on_c, 8, 62, 110
10, 81567, Note_on_c, 8, 62, 0
10, 82557, Note_on_c, 8, 62, 110
10, 83487, Note_on_c, 8, 62, 0
10, 84477, Note_on_c, 8, 61, 110
10, 85407, Note_on_c, 8, 61, 0
10, 85437, Note_on_c, 8, 58, 110
10, 85587, Note_on_c, 8, 58, 0
10, 85677, Note_on_c, 8, 61, 110
10, 85827, Note_on_c, 8, 61, 0
10, 85917, Note_on_c, 8, 61, 110
10, 86157, Note_on_c, 8, 60, 110
10, 86187, Note_on_c, 8, 61, 0
10, 86367, Note_on_c, 8, 60, 0
10, 86397, Note_on_c, 8, 60, 110
10, 87327, Note_on_c, 8, 60, 0
10, 87357, Note_on_c, 8, 57, 110
10, 87507, Note_on_c, 8, 57, 0
10, 87597, Note_on_c, 8, 60, 110
10, 87747, Note_on_c, 8, 60, 0
10, 87837, Note_on_c, 8, 60, 110
10, 88077, Note_on_c, 8, 58, 110
10, 88107, Note_on_c, 8, 60, 0
10, 88287, Note_on_c, 8, 58, 0
10, 88797, Note_on_c, 8, 57, 127
10, 88947, Note_on_c, 8, 57, 0
10, 89037, Note_on_c, 8, 60, 127
10, 89187, Note_on_c, 8, 60, 0
10, 89277, Note_on_c, 8, 60, 127
10, 89517, Note_on_c, 8, 58, 127
10, 89547, Note_on_c, 8, 60, 0
10, 89727, Note_on_c, 8, 58, 0
10, 90717, Note_on_c, 8, 57, 127
10, 90867, Note_on_c, 8, 57, 0
10, 90957, Note_on_c, 8, 60, 127
10, 91107, Note_on_c, 8, 60, 0
10, 91197, Note_on_c, 8, 60, 127
10, 91437, Note_on_c, 8, 58, 127
10, 91467, Note_on_c, 8, 60, 0
10, 91647, Note_on_c, 8, 58, 0
10, 92637, Note_on_c, 8, 57, 127
10, 92787, Note_on_c, 8, 57, 0
10, 92877, Note_on_c, 8, 60, 127
10, 93027, Note_on_c, 8, 60, 0
10, 93117, Note_on_c, 8, 60, 127
10, 93357, Note_on_c, 8, 58, 127
10, 93387, Note_on_c, 8, 60, 0
10, 93567, Note_on_c, 8, 58, 0
10, 94557, Note_on_c, 8, 57, 127
10, 94707, Note_on_c, 8, 57, 0
10, 94797, Note_on_c, 8, 60, 127
10, 94947, Note_on_c, 8, 60, 0
10, 95037, Note_on_c, 8, 60, 127
10, 95277, Note_on_c, 8, 58, 127
10, 95307, Note_on_c, 8, 60, 0
10, 95487, Note_on_c, 8, 58, 0
10, 95517, Note_on_c, 8, 58, 127
10, 95757, Note_on_c, 8, 56, 127
10, 95787, Note_on_c, 8, 58, 0
10, 95967, Note_on_c, 8, 56, 0
10, 95997, Note_on_c, 8, 58, 127
10, 96477, Note_on_c, 8, 58, 0
10, 107517, Note_on_c, 8, 67, 90
10, 107517, Control_c, 8, 11, 80
10, 108037, Control_c, 8, 11, 81
10, 108547, Control_c, 8, 11, 82
10, 108957, Note_on_c, 8, 68, 90
10, 108987, Note_on_c, 8, 67, 0
10, 109057, Control_c, 8, 11, 83
10, 109437, Note_on_c, 8, 67, 90
10, 109467, Note_on_c, 8, 68, 0
10, 109567, Control_c, 8, 11, 84
10, 109917, Note_on_c, 8, 65, 90
10, 109947, Note_on_c, 8, 67, 0
10, 110077, Control_c, 8, 11, 85
10, 110397, Note_on_c, 8, 62, 90
10, 110427, Note_on_c, 8, 65, 0
10, 110597, Control_c, 8, 11, 86
10, 110877, Note_on_c, 8, 58, 90
10, 110907, Note_on_c, 8, 62, 0
10, 111107, Control_c, 8, 11, 87
10, 111327, Note_on_c, 8, 58, 0
10, 111357, Note_on_c, 8, 70, 90
10, 111617, Control_c, 8, 11, 88
10, 112127, Control_c, 8, 11, 89
10, 112637, Control_c, 8, 11, 90
10, 112797, Note_on_c, 8, 72, 90
10, 112827, Note_on_c, 8, 70, 0
10, 113157, Control_c, 8, 11, 91
10, 113277, Note_on_c, 8, 70, 90
10, 113307, Note_on_c, 8, 72, 0
10, 113667, Control_c, 8, 11, 92
10, 114177, Control_c, 8, 11, 93
10, 114237, Note_on_c, 8, 68, 90
10, 114267, Note_on_c, 8, 70, 0
10, 114687, Control_c, 8, 11, 94
10, 115167, Note_on_c, 8, 68, 0
10, 115197, Note_on_c, 8, 67, 110
10, 115197, Control_c, 8, 11, 95
10, 115287, Note_on_c, 8, 67, 0
10, 115317, Note_on_c, 8, 70, 110
10, 115317, Control_c, 8, 11, 96
10, 115437, Control_c, 8, 11, 97
10, 115557, Control_c, 8, 11, 98
10, 115677, Control_c, 8, 11, 99
10, 115797, Control_c, 8, 11, 100
10, 115917, Control_c, 8, 11, 101
10, 116037, Control_c, 8, 11, 102
10, 116157, Control_c, 8, 11, 103
10, 116277, Control_c, 8, 11, 104
10, 116397, Control_c, 8, 11, 105
10, 116507, Control_c, 8, 11, 106
10, 116627, Control_c, 8, 11, 107
10, 116747, Control_c, 8, 11, 108
10, 116867, Control_c, 8, 11, 109
10, 116987, Control_c, 8, 11, 110
10, 117107, Control_c, 8, 11, 111
10, 117227, Control_c, 8, 11, 112
10, 117347, Control_c, 8, 11, 113
10, 117467, Control_c, 8, 11, 114
10, 117587, Control_c, 8, 11, 115
10, 117707, Control_c, 8, 11, 116
10, 117817, Control_c, 8, 11, 117
10, 117937, Control_c, 8, 11, 118
10, 118057, Control_c, 8, 11, 119
10, 118177, Control_c, 8, 11, 120
10, 118297, Control_c, 8, 11, 121
10, 118417, Control_c, 8, 11, 122
10, 118537, Control_c, 8, 11, 123
10, 118657, Control_c, 8, 11, 124
10, 118777, Control_c, 8, 11, 125
10, 118897, Control_c, 8, 11, 126
10, 119017, Control_c, 8, 11, 127
10, 119967, Note_on_c, 8, 70, 0
10, 119997, Note_on_c, 8, 73, 120
10, 120927, Note_on_c, 8, 73, 0
10, 120957, Note_on_c, 8, 72, 120
10, 121887, Note_on_c, 8, 72, 0
10, 121917, Note_on_c, 8, 70, 120
10, 122787, Note_on_c, 8, 70, 0
10, 122874, Control_c, 8, 11, 80
10, 122877, Note_on_c, 8, 68, 90
10, 124317, Note_on_c, 8, 70, 90
10, 124347, Note_on_c, 8, 68, 0
10, 124797, Note_on_c, 8, 68, 90
10, 124827, Note_on_c, 8, 70, 0
10, 125277, Note_on_c, 8, 67, 90
10, 125307, Note_on_c, 8, 68, 0
10, 125757, Note_on_c, 8, 64, 90
10, 125787, Note_on_c, 8, 67, 0
10, 126237, Note_on_c, 8, 60, 90
10, 126267, Note_on_c, 8, 64, 0
10, 126687, Note_on_c, 8, 60, 0
10, 126717, Note_on_c, 8, 72, 90
10, 128157, Note_on_c, 8, 73, 90
10, 128187, Note_on_c, 8, 72, 0
10, 128637, Note_on_c, 8, 72, 90
10, 128667, Note_on_c, 8, 73, 0
10, 129597, Note_on_c, 8, 70, 90
10, 129627, Note_on_c, 8, 72, 0
10, 130527, Note_on_c, 8, 70, 0
10, 130557, Note_on_c, 8, 68, 110
10, 130557, Control_c, 8, 11, 80
10, 130647, Note_on_c, 8, 68, 0
10, 130647, Control_c, 8, 11, 81
10, 130677, Note_on_c, 8, 72, 110
10, 130727, Control_c, 8, 11, 82
10, 130807, Control_c, 8, 11, 83
10, 130887, Control_c, 8, 11, 84
10, 130967, Control_c, 8, 11, 85
10, 131057, Control_c, 8, 11, 86
10, 131137, Control_c, 8, 11, 87
10, 131217, Control_c, 8, 11, 88
10, 131297, Control_c, 8, 11, 89
10, 131377, Control_c, 8, 11, 90
10, 131457, Control_c, 8, 11, 91
10, 131547, Control_c, 8, 11, 92
10, 131627, Control_c, 8, 11, 93
10, 131707, Control_c, 8, 11, 94
10, 131787, Control_c, 8, 11, 95
10, 131867, Control_c, 8, 11, 96
10, 131947, Control_c, 8, 11, 97
10, 132037, Control_c, 8, 11, 98
10, 132117, Control_c, 8, 11, 99
10, 132197, Control_c, 8, 11, 100
10, 132277, Control_c, 8, 11, 101
10, 132357, Control_c, 8, 11, 102
10, 132437, Control_c, 8, 11, 103
10, 132527, Control_c, 8, 11, 104
10, 132607, Control_c, 8, 11, 105
10, 132687, Control_c, 8, 11, 106
10, 132767, Control_c, 8, 11, 107
10, 132847, Control_c, 8, 11, 108
10, 132927, Control_c, 8, 11, 109
10, 133017, Control_c, 8, 11, 110
10, 133097, Control_c, 8, 11, 111
10, 133177, Control_c, 8, 11, 112
10, 133257, Control_c, 8, 11, 113
10, 133337, Control_c, 8, 11, 114
10, 133417, Control_c, 8, 11, 115
10, 133507, Control_c, 8, 11, 116
10, 133587, Control_c, 8, 11, 117
10, 133667, Control_c, 8, 11, 118
10, 133747, Control_c, 8, 11, 119
10, 133827, Control_c, 8, 11, 120
10, 133907, Control_c, 8, 11, 121
10, 133997, Control_c, 8, 11, 122
10, 134077, Control_c, 8, 11, 123
10, 134157, Control_c, 8, 11, 124
10, 134237, Control_c, 8, 11, 125
10, 134317, Control_c, 8, 11, 126
10, 134377, Control_c, 8, 11, 127
10, 134395, Note_on_c, 8, 72, 0
10, 134397, Note_on_c, 8, 72, 110
10, 135357, Note_on_c, 8, 72, 0
10, 135357, Note_on_c, 8, 75, 120
10, 136317, Note_on_c, 8, 74, 120
10, 136317, Note_on_c, 8, 75, 0
10, 137277, Note_on_c, 8, 72, 120
10, 137277, Note_on_c, 8, 74, 0
10, 138147, Note_on_c, 8, 72, 0
10, 138237, Note_on_c, 8, 70, 90
10, 138237, Control_c, 8, 11, 80
10, 138327, Control_c, 8, 11, 81
10, 138407, Control_c, 8, 11, 82
10, 138487, Control_c, 8, 11, 83
10, 138567, Control_c, 8, 11, 84
10, 138647, Control_c, 8, 11, 85
10, 138737, Control_c, 8, 11, 86
10, 138817, Control_c, 8, 11, 87
10, 138897, Control_c, 8, 11, 88
10, 138977, Control_c, 8, 11, 89
10, 139057, Control_c, 8, 11, 90
10, 139137, Control_c, 8, 11, 91
10, 139227, Control_c, 8, 11, 92
10, 139307, Control_c, 8, 11, 93
10, 139387, Control_c, 8, 11, 94
10, 139467, Control_c, 8, 11, 95
10, 139547, Control_c, 8, 11, 96
10, 139627, Control_c, 8, 11, 97
10, 139677, Note_on_c, 8, 72, 90
10, 139707, Note_on_c, 8, 70, 0
10, 139717, Control_c, 8, 11, 98
10, 139797, Control_c, 8, 11, 99
10, 139877, Control_c, 8, 11, 100
10, 139957, Control_c, 8, 11, 101
10, 140037, Control_c, 8, 11, 102
10, 140117, Control_c, 8, 11, 103
10, 140157, Note_on_c, 8, 70, 90
10, 140187, Note_on_c, 8, 72, 0
10, 140207, Control_c, 8, 11, 104
10, 140287, Control_c, 8, 11, 105
10, 140367, Control_c, 8, 11, 106
10, 140447, Control_c, 8, 11, 107
10, 140527, Control_c, 8, 11, 108
10, 140607, Control_c, 8, 11, 109
10, 140637, Note_on_c, 8, 69, 90
10, 140667, Note_on_c, 8, 70, 0
10, 140697, Control_c, 8, 11, 110
10, 140777, Control_c, 8, 11, 111
10, 140857, Control_c, 8, 11, 112
10, 140937, Control_c, 8, 11, 113
10, 141017, Control_c, 8, 11, 114
10, 141097, Control_c, 8, 11, 115
10, 141117, Note_on_c, 8, 66, 90
10, 141147, Note_on_c, 8, 69, 0
10, 141187, Control_c, 8, 11, 116
10, 141267, Control_c, 8, 11, 117
10, 141347, Control_c, 8, 11, 118
10, 141427, Control_c, 8, 11, 119
10, 141507, Control_c, 8, 11, 120
10, 141587, Control_c, 8, 11, 121
10, 141597, Note_on_c, 8, 62, 90
10, 141627, Note_on_c, 8, 66, 0
10, 141677, Control_c, 8, 11, 122
10, 141757, Control_c, 8, 11, 123
10, 141837, Control_c, 8, 11, 124
10, 141917, Control_c, 8, 11, 125
10, 141997, Control_c, 8, 11, 126
10, 142047, Note_on_c, 8, 62, 0
10, 142077, Note_on_c, 8, 74, 115
10, 142077, Control_c, 8, 11, 127
10, 142117, Control_c, 8, 11, 126
10, 142157, Control_c, 8, 11, 125
10, 142197, Control_c, 8, 11, 124
10, 142237, Control_c, 8, 11, 123
10, 142277, Control_c, 8, 11, 122
10, 142317, Control_c, 8, 11, 121
10, 142357, Control_c, 8, 11, 120
10, 142397, Control_c, 8, 11, 119
10, 142437, Control_c, 8, 11, 118
10, 142477, Control_c, 8, 11, 117
10, 142517, Control_c, 8, 11, 116
10, 142557, Note_on_c, 8, 68, 112
10, 142557, Control_c, 8, 11, 115
10, 142587, Note_on_c, 8, 74, 0
10, 142597, Control_c, 8, 11, 114
10, 142637, Control_c, 8, 11, 113
10, 142677, Control_c, 8, 11, 112
10, 142717, Control_c, 8, 11, 111
10, 142757, Control_c, 8, 11, 110
10, 142797, Control_c, 8, 11, 109
10, 142837, Control_c, 8, 11, 108
10, 142877, Control_c, 8, 11, 107
10, 142917, Control_c, 8, 11, 106
10, 142957, Control_c, 8, 11, 105
10, 142997, Control_c, 8, 11, 104
10, 143037, Note_on_c, 8, 67, 109
10, 143037, Control_c, 8, 11, 103
10, 143067, Note_on_c, 8, 68, 0
10, 143077, Control_c, 8, 11, 102
10, 143117, Control_c, 8, 11, 101
10, 143157, Control_c, 8, 11, 100
10, 143197, Control_c, 8, 11, 99
10, 143237, Control_c, 8, 11, 98
10, 143277, Control_c, 8, 11, 97
10, 143317, Control_c, 8, 11, 96
10, 143357, Control_c, 8, 11, 95
10, 143397, Control_c, 8, 11, 94
10, 143437, Control_c, 8, 11, 93
10, 143477, Control_c, 8, 11, 92
10, 143517, Note_on_c, 8, 65, 105
10, 143517, Control_c, 8, 11, 91
10, 143547, Note_on_c, 8, 67, 0
10, 143557, Control_c, 8, 11, 90
10, 143597, Control_c, 8, 11, 89
10, 143637, Control_c, 8, 11, 88
10, 143677, Control_c, 8, 11, 87
10, 143717, Control_c, 8, 11, 86
10, 143757, Control_c, 8, 11, 85
10, 143797, Control_c, 8, 11, 84
10, 143837, Control_c, 8, 11, 83
10, 143877, Control_c, 8, 11, 82
10, 143917, Control_c, 8, 11, 81
10, 143957, Control_c, 8, 11, 80
10, 143967, Note_on_c, 8, 65, 0
10, 144237, Note_on_c, 8, 72, 90
10, 144477, Note_on_c, 8, 67, 90
10, 144507, Note_on_c, 8, 72, 0
10, 144717, Note_on_c, 8, 72, 90
10, 144747, Note_on_c, 8, 67, 0
10, 144927, Note_on_c, 8, 72, 0
10, 145197, Note_on_c, 8, 70, 90
10, 145437, Note_on_c, 8, 67, 90
10, 145467, Note_on_c, 8, 70, 0
10, 145677, Note_on_c, 8, 70, 90
10, 145707, Note_on_c, 8, 67, 0
10, 145887, Note_on_c, 8, 70, 0
10, 146157, Note_on_c, 8, 67, 90
10, 146397, Note_on_c, 8, 63, 90
10, 146427, Note_on_c, 8, 67, 0
10, 146637, Note_on_c, 8, 67, 90
10, 146667, Note_on_c, 8, 63, 0
10, 146847, Note_on_c, 8, 67, 0
10, 147117, Note_on_c, 8, 67, 90
10, 147357, Note_on_c, 8, 62, 90
10, 147387, Note_on_c, 8, 67, 0
10, 147597, Note_on_c, 8, 67, 90
10, 147627, Note_on_c, 8, 62, 0
10, 147807, Note_on_c, 8, 67, 0
10, 148077, Note_on_c, 8, 67, 90
10, 148317, Note_on_c, 8, 63, 90
10, 148347, Note_on_c, 8, 67, 0
10, 148557, Note_on_c, 8, 67, 90
10, 148587, Note_on_c, 8, 63, 0
10, 148767, Note_on_c, 8, 67, 0
10, 149037, Note_on_c, 8, 67, 90
10, 149277, Note_on_c, 8, 64, 90
10, 149307, Note_on_c, 8, 67, 0
10, 149517, Note_on_c, 8, 67, 90
10, 149547, Note_on_c, 8, 64, 0
10, 149727, Note_on_c, 8, 67, 0
10, 149997, Note_on_c, 8, 66, 80
10, 150117, Note_on_c, 8, 66, 0
10, 150237, Note_on_c, 8, 66, 80
10, 150807, Note_on_c, 8, 66, 0
10, 150957, Note_on_c, 8, 66, 80
10, 151077, Note_on_c, 8, 66, 0
10, 151197, Note_on_c, 8, 66, 80
10, 151767, Note_on_c, 8, 66, 0
10, 151917, Note_on_c, 8, 66, 80
10, 152037, Note_on_c, 8, 66, 0
10, 152157, Note_on_c, 8, 66, 80
10, 152727, Note_on_c, 8, 66, 0
10, 152877, Note_on_c, 8, 66, 80
10, 152997, Note_on_c, 8, 66, 0
10, 153117, Note_on_c, 8, 66, 80
10, 153597, Control_c, 8, 11, 81
10, 153687, Note_on_c, 8, 66, 0
10, 153767, Control_c, 8, 11, 82
10, 153837, Note_on_c, 8, 67, 81
10, 153927, Control_c, 8, 11, 83
10, 153957, Note_on_c, 8, 67, 0
10, 154077, Note_on_c, 8, 67, 83
10, 154087, Control_c, 8, 11, 84
10, 154247, Control_c, 8, 11, 85
10, 154417, Control_c, 8, 11, 86
10, 154577, Control_c, 8, 11, 87
10, 154647, Note_on_c, 8, 67, 0
10, 154737, Control_c, 8, 11, 88
10, 154797, Note_on_c, 8, 67, 87
10, 154897, Control_c, 8, 11, 89
10, 154917, Note_on_c, 8, 67, 0
10, 155037, Note_on_c, 8, 67, 89
10, 155057, Control_c, 8, 11, 90
10, 155227, Control_c, 8, 11, 91
10, 155387, Control_c, 8, 11, 92
10, 155547, Control_c, 8, 11, 93
10, 155607, Note_on_c, 8, 67, 0
10, 155707, Control_c, 8, 11, 94
10, 155757, Note_on_c, 8, 67, 94
10, 155867, Control_c, 8, 11, 95
10, 155877, Note_on_c, 8, 67, 0
10, 155997, Note_on_c, 8, 67, 95
10, 156037, Control_c, 8, 11, 96
10, 156197, Control_c, 8, 11, 97
10, 156357, Control_c, 8, 11, 98
10, 156517, Control_c, 8, 11, 99
10, 156567, Note_on_c, 8, 67, 0
10, 156687, Control_c, 8, 11, 100
10, 156717, Note_on_c, 8, 67, 100
10, 156837, Note_on_c, 8, 67, 0
10, 156847, Control_c, 8, 11, 101
10, 156957, Note_on_c, 8, 67, 101
10, 157007, Control_c, 8, 11, 102
10, 157167, Control_c, 8, 11, 103
10, 157327, Control_c, 8, 11, 104
10, 157497, Control_c, 8, 11, 105
10, 157527, Note_on_c, 8, 67, 0
10, 157657, Control_c, 8, 11, 106
10, 157677, Note_on_c, 8, 69, 106
10, 157797, Note_on_c, 8, 69, 0
10, 157817, Control_c, 8, 11, 107
10, 157917, Note_on_c, 8, 69, 108
10, 157977, Control_c, 8, 11, 108
10, 158137, Control_c, 8, 11, 109
10, 158307, Control_c, 8, 11, 110
10, 158467, Control_c, 8, 11, 111
10, 158487, Note_on_c, 8, 69, 0
10, 158627, Control_c, 8, 11, 112
10, 158637, Note_on_c, 8, 69, 112
10, 158757, Note_on_c, 8, 69, 0
10, 158787, Control_c, 8, 11, 113
10, 158877, Note_on_c, 8, 69, 114
10, 158957, Control_c, 8, 11, 114
10, 159117, Control_c, 8, 11, 115
10, 159277, Control_c, 8, 11, 116
10, 159437, Control_c, 8, 11, 117
10, 159447, Note_on_c, 8, 69, 0
10, 159597, Note_on_c, 8, 70, 119
10, 159597, Control_c, 8, 11, 118
10, 159717, Note_on_c, 8, 70, 0
10, 159767, Control_c, 8, 11, 119
10, 159837, Note_on_c, 8, 70, 120
10, 159927, Control_c, 8, 11, 120
10, 160087, Control_c, 8, 11, 121
10, 160247, Control_c, 8, 11, 122
10, 160407, Note_on_c, 8, 70, 0
10, 160407, Control_c, 8, 11, 123
10, 160557, Note_on_c, 8, 70, 125
10, 160577, Control_c, 8, 11, 124
10, 160677, Note_on_c, 8, 70, 0
10, 160737, Control_c, 8, 11, 125
10, 160797, Note_on_c, 8, 70, 127
10, 160897, Control_c, 8, 11, 126
10, 161057, Control_c, 8, 11, 127
10, 161127, Note_on_c, 8, 70, 0
10, 161277, Note_on_c, 8, 69, 127
10, 162717, Note_on_c, 8, 69, 0
10, 162717, Note_on_c, 8, 70, 127
10, 163197, Note_on_c, 8, 70, 0
10, 163197, Note_on_c, 8, 72, 127
10, 163677, Note_on_c, 8, 70, 127
10, 163677, Note_on_c, 8, 72, 0
10, 164157, Note_on_c, 8, 70, 0
10, 164157, Note_on_c, 8, 72, 127
10, 164637, Note_on_c, 8, 70, 127
10, 164637, Note_on_c, 8, 72, 0
10, 164967, Note_on_c, 8, 70, 0
10, 165117, Note_on_c, 8, 69, 127
10, 166557, Note_on_c, 8, 69, 0
10, 166557, Note_on_c, 8, 70, 127
10, 167037, Note_on_c, 8, 70, 0
10, 167037, Note_on_c, 8, 72, 127
10, 167517, Note_on_c, 8, 70, 127
10, 167517, Note_on_c, 8, 72, 0
10, 167997, Note_on_c, 8, 70, 0
10, 167997, Note_on_c, 8, 72, 127
10, 168477, Note_on_c, 8, 70, 127
10, 168477, Note_on_c, 8, 72, 0
10, 168807, Note_on_c, 8, 70, 0
10, 168957, Note_on_c, 8, 71, 127
10, 170397, Note_on_c, 8, 71, 0
10, 170397, Note_on_c, 8, 72, 127
10, 170877, Note_on_c, 8, 72, 0
10, 170877, Note_on_c, 8, 77, 127
10, 171357, Note_on_c, 8, 75, 127
10, 171357, Note_on_c, 8, 77, 0
10, 171837, Note_on_c, 8, 75, 0
10, 171837, Note_on_c, 8, 77, 127
10, 172317, Note_on_c, 8, 75, 127
10, 172317, Note_on_c, 8, 77, 0
10, 172647, Note_on_c, 8, 75, 0
10, 172797, Note_on_c, 8, 71, 127
10, 174237, Note_on_c, 8, 71, 0
10, 174237, Note_on_c, 8, 72, 127
10, 174717, Note_on_c, 8, 72, 0
10, 174717, Note_on_c, 8, 77, 127
10, 175197, Note_on_c, 8, 75, 127
10, 175197, Note_on_c, 8, 77, 0
10, 175677, Note_on_c, 8, 75, 0
10, 175677, Note_on_c, 8, 77, 127
10, 176157, Note_on_c, 8, 75, 127
10, 176157, Note_on_c, 8, 77, 0
10, 176487, Note_on_c, 8, 75, 0
10, 176877, Note_on_c, 8, 75, 127
10, 176997, Note_on_c, 8, 75, 0
10, 177117, Note_on_c, 8, 68, 127
10, 178077, Note_on_c, 8, 67, 127
10, 178107, Note_on_c, 8, 68, 0
10, 178527, Note_on_c, 8, 67, 0
10, 178797, Note_on_c, 8, 75, 127
10, 178917, Note_on_c, 8, 75, 0
10, 179037, Note_on_c, 8, 68, 127
10, 179997, Note_on_c, 8, 67, 127
10, 180027, Note_on_c, 8, 68, 0
10, 180447, Note_on_c, 8, 67, 0
10, 180717, Note_on_c, 8, 75, 127
10, 180837, Note_on_c, 8, 75, 0
10, 180957, Note_on_c, 8, 68, 127
10, 181917, Note_on_c, 8, 67, 127
10, 181947, Note_on_c, 8, 68, 0
10, 182367, Note_on_c, 8, 67, 0
10, 182637, Note_on_c, 8, 75, 127
10, 182757, Note_on_c, 8, 75, 0
10, 182877, Note_on_c, 8, 68, 127
10, 183837, Note_on_c, 8, 67, 127
10, 183867, Note_on_c, 8, 68, 0
10, 184287, Note_on_c, 8, 67, 0
10, 184317, Note_on_c, 8, 63, 127
10, 184437, Note_on_c, 8, 63, 0
10, 184437, Note_on_c, 8, 68, 127
10, 185277, Note_on_c, 8, 66, 127
10, 185277, Note_on_c, 8, 68, 0
10, 185397, Note_on_c, 8, 66, 0
10, 185397, Note_on_c, 8, 69, 127
10, 186237, Note_on_c, 8, 62, 127
10, 186237, Note_on_c, 8, 69, 0
10, 186357, Note_on_c, 8, 62, 0
10, 186357, Note_on_c, 8, 67, 127
10, 187197, Note_on_c, 8, 64, 127
10, 187197, Note_on_c, 8, 67, 0
10, 187317, Note_on_c, 8, 64, 0
10, 187317, Note_on_c, 8, 67, 127
10, 188157, Note_on_c, 8, 60, 127
10, 188157, Note_on_c, 8, 67, 0
10, 188277, Note_on_c, 8, 60, 0
10, 188277, Note_on_c, 8, 65, 127
10, 189117, Note_on_c, 8, 60, 127
10, 189117, Note_on_c, 8, 65, 0
10, 189237, Note_on_c, 8, 60, 0
10, 189237, Note_on_c, 8, 63, 127
10, 190077, Note_on_c, 8, 60, 127
10, 190077, Note_on_c, 8, 63, 0
10, 190197, Note_on_c, 8, 60, 0
10, 190197, Note_on_c, 8, 69, 127
10, 191037, Note_on_c, 8, 60, 127
10, 191037, Note_on_c, 8, 69, 0
10, 191157, Note_on_c, 8, 60, 0
10, 191157, Note_on_c, 8, 67, 127
10, 191967, Note_on_c, 8, 67, 0
10, 191997, Note_on_c, 8, 66, 127
10, 192117, Note_on_c, 8, 66, 0
10, 192237, Note_on_c, 8, 62, 127
10, 192357, Note_on_c, 8, 62, 0
10, 199437, Note_on_c, 8, 62, 127
10, 199557, Note_on_c, 8, 62, 0
10, 199677, Note_on_c, 8, 62, 127
10, 200007, Note_on_c, 8, 62, 0
10, 203277, Note_on_c, 8, 62, 127
10, 203397, Note_on_c, 8, 62, 0
10, 203517, Note_on_c, 8, 62, 127
10, 203847, Note_on_c, 8, 62, 0
10, 211917, Note_on_c, 8, 75, 127
10, 212037, Note_on_c, 8, 75, 0
10, 212157, Note_on_c, 8, 74, 127
10, 212487, Note_on_c, 8, 74, 0
10, 212877, Note_on_c, 8, 69, 127
10, 212997, Note_on_c, 8, 69, 0
10, 213117, Note_on_c, 8, 67, 127
10, 213447, Note_on_c, 8, 67, 0
10, 213837, Note_on_c, 8, 72, 127
10, 213957, Note_on_c, 8, 72, 0
10, 214077, Note_on_c, 8, 70, 127
10, 214407, Note_on_c, 8, 70, 0
10, 214797, Note_on_c, 8, 65, 127
10, 214917, Note_on_c, 8, 65, 0
10, 215037, Note_on_c, 8, 63, 127
10, 215367, Note_on_c, 8, 63, 0
10, 215757, Note_on_c, 8, 69, 127
10, 215877, Note_on_c, 8, 69, 0
10, 215997, Note_on_c, 8, 67, 127
10, 216327, Note_on_c, 8, 67, 0
10, 217077, Note_on_c, 8, 58, 127
10, 217077, Note_on_c, 8, 67, 127
10, 217917, Note_on_c, 8, 57, 127
10, 217917, Note_on_c, 8, 58, 0
10, 217917, Note_on_c, 8, 66, 127
10, 217917, Note_on_c, 8, 67, 0
10, 218877, Note_on_c, 8, 57, 0
10, 218877, Note_on_c, 8, 58, 127
10, 218877, Note_on_c, 8, 66, 0
10, 218877, Note_on_c, 8, 67, 127
10, 226437, Note_on_c, 8, 58, 0
10, 226437, Note_on_c, 8, 67, 0
10, 226557, Note_on_c, 8, 58, 100
10, 226557, Note_on_c, 8, 67, 100
10, 226947, Note_on_c, 8, 58, 0
10, 226947, Note_on_c, 8, 67, 0
10, 253437, Note_on_c, 8, 56, 100
10, 253557, Note_on_c, 8, 56, 0
10, 253677, Note_on_c, 8, 56, 100
10, 253707, Control_c, 8, 11, 82
10, 253797, Note_on_c, 8, 56, 0
10, 253917, Note_on_c, 8, 60, 101
10, 254037, Note_on_c, 8, 60, 0
10, 254077, Control_c, 8, 11, 83
10, 254157, Note_on_c, 8, 63, 102
10, 254277, Note_on_c, 8, 63, 0
10, 254397, Note_on_c, 8, 65, 103
10, 254447, Control_c, 8, 11, 84
10, 254517, Note_on_c, 8, 65, 0
10, 254637, Note_on_c, 8, 63, 104
10, 254757, Note_on_c, 8, 63, 0
10, 254817, Control_c, 8, 11, 85
10, 254877, Note_on_c, 8, 60, 105
10, 254997, Note_on_c, 8, 60, 0
10, 255117, Note_on_c, 8, 56, 106
10, 255187, Control_c, 8, 11, 86
10, 255237, Note_on_c, 8, 56, 0
10, 255357, Note_on_c, 8, 57, 106
10, 255477, Note_on_c, 8, 57, 0
10, 255557, Control_c, 8, 11, 87
10, 255597, Note_on_c, 8, 60, 107
10, 255717, Note_on_c, 8, 60, 0
10, 255837, Note_on_c, 8, 63, 108
10, 255927, Control_c, 8, 11, 88
10, 255957, Note_on_c, 8, 63, 0
10, 256077, Note_on_c, 8, 65, 109
10, 256197, Note_on_c, 8, 65, 0
10, 256297, Control_c, 8, 11, 89
10, 256317, Note_on_c, 8, 66, 110
10, 256437, Note_on_c, 8, 66, 0
10, 256557, Note_on_c, 8, 65, 111
10, 256667, Control_c, 8, 11, 90
10, 256677, Note_on_c, 8, 65, 0
10, 256797, Note_on_c, 8, 60, 112
10, 256917, Note_on_c, 8, 60, 0
10, 257037, Note_on_c, 8, 57, 113
10, 257037, Control_c, 8, 11, 91
10, 257157, Note_on_c, 8, 57, 0
10, 257277, Note_on_c, 8, 58, 113
10, 257397, Note_on_c, 8, 58, 0
10, 257407, Control_c, 8, 11, 92
10, 257517, Note_on_c, 8, 61, 114
10, 257637, Note_on_c, 8, 61, 0
10, 257757, Note_on_c, 8, 65, 115
10, 257777, Control_c, 8, 11, 93
10, 257877, Note_on_c, 8, 65, 0
10, 257997, Note_on_c, 8, 66, 116
10, 258117, Note_on_c, 8, 66, 0
10, 258147, Control_c, 8, 11, 94
10, 258237, Note_on_c, 8, 68, 117
10, 258357, Note_on_c, 8, 68, 0
10, 258477, Note_on_c, 8, 66, 118
10, 258517, Control_c, 8, 11, 95
10, 258597, Note_on_c, 8, 66, 0
10, 258717, Note_on_c, 8, 61, 119
10, 258837, Note_on_c, 8, 61, 0
10, 258897, Control_c, 8, 11, 96
10, 258957, Note_on_c, 8, 58, 120
10, 259077, Note_on_c, 8, 58, 0
10, 259197, Note_on_c, 8, 60, 120
10, 259267, Control_c, 8, 11, 97
10, 259317, Note_on_c, 8, 60, 0
10, 259437, Note_on_c, 8, 63, 121
10, 259557, Note_on_c, 8, 63, 0
10, 259637, Control_c, 8, 11, 98
10, 259677, Note_on_c, 8, 67, 122
10, 259797, Note_on_c, 8, 67, 0
10, 259917, Note_on_c, 8, 68, 123
10, 260007, Control_c, 8, 11, 99
10, 260037, Note_on_c, 8, 68, 0
10, 260157, Note_on_c, 8, 70, 124
10, 260277, Note_on_c, 8, 70, 0
10, 260377, Control_c, 8, 11, 100
10, 260397, Note_on_c, 8, 68, 125
10, 260517, Note_on_c, 8, 68, 0
10, 260637, Note_on_c, 8, 63, 126
10, 260747, Control_c, 8, 11, 101
10, 260757, Note_on_c, 8, 63, 0
10, 260877, Note_on_c, 8, 60, 127
10, 260997, Note_on_c, 8, 60, 0
10, 261117, Note_on_c, 8, 61, 100
10, 261117, Control_c, 8, 11, 102
10, 261237, Note_on_c, 8, 61, 0
10, 261357, Note_on_c, 8, 65, 100
10, 261477, Note_on_c, 8, 65, 0
10, 261487, Control_c, 8, 11, 103
10, 261597, Note_on_c, 8, 69, 100
10, 261717, Note_on_c, 8, 69, 0
10, 261837, Note_on_c, 8, 70, 100
10, 261857, Control_c, 8, 11, 104
10, 261957, Note_on_c, 8, 70, 0
10, 262077, Note_on_c, 8, 60, 100
10, 262197, Note_on_c, 8, 60, 0
10, 262227, Control_c, 8, 11, 105
10, 262317, Note_on_c, 8, 63, 100
10, 262437, Note_on_c, 8, 63, 0
10, 262557, Note_on_c, 8, 67, 100
10, 262597, Control_c, 8, 11, 106
10, 262677, Note_on_c, 8, 67, 0
10, 262797, Note_on_c, 8, 68, 100
10, 262917, Note_on_c, 8, 68, 0
10, 262967, Control_c, 8, 11, 107
10, 263037, Note_on_c, 8, 58, 100
10, 263157, Note_on_c, 8, 58, 0
10, 263277, Note_on_c, 8, 61, 100
10, 263337, Control_c, 8, 11, 108
10, 263397, Note_on_c, 8, 61, 0
10, 263517, Note_on_c, 8, 65, 100
10, 263637, Note_on_c, 8, 65, 0
10, 263707, Control_c, 8, 11, 109
10, 263757, Note_on_c, 8, 66, 100
10, 263877, Note_on_c, 8, 66, 0
10, 263997, Note_on_c, 8, 56, 100
10, 264077, Control_c, 8, 11, 110
10, 264117, Note_on_c, 8, 56, 0
10, 264237, Note_on_c, 8, 60, 100
10, 264357, Note_on_c, 8, 60, 0
10, 264474, Control_c, 8, 11, 80
10, 264477, Note_on_c, 8, 64, 100
10, 264597, Note_on_c, 8, 64, 0
10, 264717, Note_on_c, 8, 65, 100
10, 264837, Note_on_c, 8, 65, 0
10, 265197, Note_on_c, 8, 58, 100
10, 265317, Note_on_c, 8, 58, 0
10, 265437, Note_on_c, 8, 62, 100
10, 265557, Note_on_c, 8, 62, 0
10, 265677, Note_on_c, 8, 63, 100
10, 265797, Note_on_c, 8, 63, 0
10, 266157, Note_on_c, 8, 56, 100
10, 266277, Note_on_c, 8, 56, 0
10, 266397, Note_on_c, 8, 60, 100
10, 266517, Note_on_c, 8, 60, 0
10, 266637, Note_on_c, 8, 61, 100
10, 266757, Note_on_c, 8, 61, 0
10, 267117, Note_on_c, 8, 58, 100
10, 267237, Note_on_c, 8, 58, 0
10, 267357, Note_on_c, 8, 58, 100
10, 267477, Note_on_c, 8, 58, 0
10, 267597, Note_on_c, 8, 61, 100
10, 267717, Note_on_c, 8, 61, 0
10, 267837, Note_on_c, 8, 56, 100
10, 267957, Note_on_c, 8, 56, 0
10, 268077, Note_on_c, 8, 60, 100
10, 268197, Note_on_c, 8, 60, 0
10, 268317, Note_on_c, 8, 63, 100
10, 268437, Note_on_c, 8, 63, 0
10, 268557, Note_on_c, 8, 66, 100
10, 268677, Note_on_c, 8, 66, 0
10, 268797, Note_on_c, 8, 65, 127
10, 269127, Note_on_c, 8, 65, 0
10, 269517, Note_on_c, 8, 70, 127
10, 269637, Note_on_c, 8, 70, 0
10, 269757, Note_on_c, 8, 68, 127
10, 270087, Note_on_c, 8, 68, 0
10, 270477, Note_on_c, 8, 63, 127
10, 270597, Note_on_c, 8, 63, 0
10, 270717, Note_on_c, 8, 61, 127
10, 271047, Note_on_c, 8, 61, 0
10, 271437, Note_on_c, 8, 66, 127
10, 271557, Note_on_c, 8, 66, 0
10, 271677, Note_on_c, 8, 65, 127
10, 272007, Note_on_c, 8, 65, 0
10, 272154, Control_c, 8, 11, 110
10, 272397, Note_on_c, 8, 60, 127
10, 272517, Note_on_c, 8, 60, 0
10, 272637, Note_on_c, 8, 58, 127
10, 272967, Note_on_c, 8, 58, 0
10, 273357, Note_on_c, 8, 64, 127
10, 273477, Note_on_c, 8, 64, 0
10, 273597, Note_on_c, 8, 65, 127
10, 273927, Note_on_c, 8, 65, 0
10, 274317, Note_on_c, 8, 58, 127
10, 274437, Note_on_c, 8, 58, 0
10, 274557, Note_on_c, 8, 58, 127
10, 274887, Note_on_c, 8, 58, 0
10, 275277, Note_on_c, 8, 67, 127
10, 275397, Note_on_c, 8, 67, 0
10, 275517, Note_on_c, 8, 64, 127
10, 275847, Note_on_c, 8, 64, 0
10, 276237, Note_on_c, 8, 70, 127
10, 276357, Note_on_c, 8, 70, 0
10, 276474, Control_c, 8, 11, 80
10, 276477, Note_on_c, 8, 68, 90
10, 276477, Control_c, 8, 11, 80
10, 276707, Control_c, 8, 11, 81
10, 276807, Note_on_c, 8, 68, 0
10, 276937, Control_c, 8, 11, 82
10, 277167, Control_c, 8, 11, 83
10, 277197, Note_on_c, 8, 73, 93
10, 277317, Note_on_c, 8, 73, 0
10, 277397, Control_c, 8, 11, 84
10, 277437, Note_on_c, 8, 72, 94
10, 277627, Control_c, 8, 11, 85
10, 277767, Note_on_c, 8, 72, 0
10, 277857, Control_c, 8, 11, 86
10, 278077, Control_c, 8, 11, 87
10, 278157, Note_on_c, 8, 67, 98
10, 278277, Note_on_c, 8, 67, 0
10, 278307, Control_c, 8, 11, 88
10, 278397, Note_on_c, 8, 65, 99
10, 278537, Control_c, 8, 11, 89
10, 278727, Note_on_c, 8, 65, 0
10, 278767, Control_c, 8, 11, 90
10, 278997, Control_c, 8, 11, 91
10, 279117, Note_on_c, 8, 70, 103
10, 279227, Control_c, 8, 11, 92
10, 279237, Note_on_c, 8, 70, 0
10, 279357, Note_on_c, 8, 68, 104
10, 279457, Control_c, 8, 11, 93
10, 279677, Control_c, 8, 11, 94
10, 279687, Note_on_c, 8, 68, 0
10, 279907, Control_c, 8, 11, 95
10, 280077, Note_on_c, 8, 63, 107
10, 280137, Control_c, 8, 11, 96
10, 280197, Note_on_c, 8, 63, 0
10, 280317, Note_on_c, 8, 61, 109
10, 280367, Control_c, 8, 11, 97
10, 280597, Control_c, 8, 11, 98
10, 280647, Note_on_c, 8, 61, 0
10, 280827, Control_c, 8, 11, 99
10, 281037, Note_on_c, 8, 67, 112
10, 281057, Control_c, 8, 11, 100
10, 281157, Note_on_c, 8, 67, 0
10, 281277, Note_on_c, 8, 65, 113
10, 281607, Note_on_c, 8, 65, 0
10, 281997, Note_on_c, 8, 60, 117
10, 282117, Note_on_c, 8, 60, 0
10, 282237, Note_on_c, 8, 58, 118
10, 282567, Note_on_c, 8, 58, 0
10, 282957, Note_on_c, 8, 65, 122
10, 283077, Note_on_c, 8, 65, 0
10, 283197, Note_on_c, 8, 64, 123
10, 283527, Note_on_c, 8, 64, 0
10, 283917, Note_on_c, 8, 70, 127
10, 284037, Note_on_c, 8, 70, 0
10, 284157, Note_on_c, 8, 68, 127
10, 284487, Note_on_c, 8, 68, 0
10, 284877, Note_on_c, 8, 73, 127
10, 284997, Note_on_c, 8, 73, 0
10, 285117, Note_on_c, 8, 72, 127
10, 285447, Note_on_c, 8, 72, 0
10, 285837, Note_on_c, 8, 67, 127
10, 285957, Note_on_c, 8, 67, 0
10, 286077, Note_on_c, 8, 65, 127
10, 286407, Note_on_c, 8, 65, 0
10, 286797, Note_on_c, 8, 70, 127
10, 286917, Note_on_c, 8, 70, 0
10, 287037, Note_on_c, 8, 68, 127
10, 287367, Note_on_c, 8, 68, 0
10, 287757, Note_on_c, 8, 63, 127
10, 287877, Note_on_c, 8, 63, 0
10, 287997, Note_on_c, 8, 61, 127
10, 288327, Note_on_c, 8, 61, 0
10, 288717, Note_on_c, 8, 67, 127
10, 288837, Note_on_c, 8, 67, 0
10, 288957, Note_on_c, 8, 65, 127
10, 289287, Note_on_c, 8, 65, 0
10, 295674, Control_c, 8, 11, 127
10, 295677, Note_on_c, 8, 65, 127
10, 295677, Note_on_c, 8, 73, 127
10, 295887, Note_on_c, 8, 65, 0
10, 295887, Note_on_c, 8, 73, 0
10, 303357, Note_on_c, 8, 62, 127
10, 303357, Note_on_c, 8, 74, 127
10, 304287, Note_on_c, 8, 62, 0
10, 304287, Note_on_c, 8, 74, 0
10, 305277, Note_on_c, 8, 62, 127
10, 305277, Note_on_c, 8, 74, 127
10, 306207, Note_on_c, 8, 62, 0
10, 306207, Note_on_c, 8, 74, 0
10, 307194, Control_c, 8, 11, 100
10, 309117, Note_on_c, 8, 59, 90
10, 309267, Note_on_c, 8, 59, 0
10, 309357, Note_on_c, 8, 63, 90
10, 309507, Note_on_c, 8, 63, 0
10, 309597, Note_on_c, 8, 63, 90
10, 309837, Note_on_c, 8, 62, 90
10, 309867, Note_on_c, 8, 63, 0
10, 310047, Note_on_c, 8, 62, 0
10, 310077, Note_on_c, 8, 62, 90
10, 310227, Note_on_c, 8, 62, 0
10, 310317, Note_on_c, 8, 67, 90
10, 310467, Note_on_c, 8, 67, 0
10, 310557, Note_on_c, 8, 67, 90
10, 311007, Note_on_c, 8, 67, 0
10, 312957, Note_on_c, 8, 64, 127
10, 313887, Note_on_c, 8, 64, 0
10, 314877, Note_on_c, 8, 64, 127
10, 315807, Note_on_c, 8, 64, 0
10, 318717, Note_on_c, 8, 58, 80
10, 318867, Note_on_c, 8, 58, 0
10, 318957, Note_on_c, 8, 67, 80
10, 319107, Note_on_c, 8, 67, 0
10, 319197, Note_on_c, 8, 67, 80
10, 319437, Note_on_c, 8, 65, 80
10, 319467, Note_on_c, 8, 67, 0
10, 319647, Note_on_c, 8, 65, 0
10, 319677, Note_on_c, 8, 64, 80
10, 319827, Note_on_c, 8, 64, 0
10, 319917, Note_on_c, 8, 67, 80
10, 320067, Note_on_c, 8, 67, 0
10, 320157, Note_on_c, 8, 67, 80
10, 320607, Note_on_c, 8, 67, 0
10, 323037, Note_on_c, 8, 64, 120
10, 323187, Note_on_c, 8, 64, 0
10, 323277, Note_on_c, 8, 67, 120
10, 323427, Note_on_c, 8, 67, 0
10, 323517, Note_on_c, 8, 67, 120
10, 323757, Note_on_c, 8, 65, 120
10, 323787, Note_on_c, 8, 67, 0
10, 323967, Note_on_c, 8, 65, 0
10, 324957, Note_on_c, 8, 64, 120
10, 325107, Note_on_c, 8, 64, 0
10, 325197, Note_on_c, 8, 67, 120
10, 325347, Note_on_c, 8, 67, 0
10, 325437, Note_on_c, 8, 67, 120
10, 325677, Note_on_c, 8, 65, 120
10, 325707, Note_on_c, 8, 67, 0
10, 325887, Note_on_c, 8, 65, 0
10, 326877, Note_on_c, 8, 64, 120
10, 327027, Note_on_c, 8, 64, 0
10, 327117, Note_on_c, 8, 67, 120
10, 327267, Note_on_c, 8, 67, 0
10, 327357, Note_on_c, 8, 67, 120
10, 327597, Note_on_c, 8, 65, 120
10, 327627, Note_on_c, 8, 67, 0
10, 327807, Note_on_c, 8, 65, 0
10, 328797, Note_on_c, 8, 64, 120
10, 328947, Note_on_c, 8, 64, 0
10, 329037, Note_on_c, 8, 67, 120
10, 329187, Note_on_c, 8, 67, 0
10, 329277, Note_on_c, 8, 67, 120
10, 329517, Note_on_c, 8, 65, 120
10, 329547, Note_on_c, 8, 67, 0
10, 329727, Note_on_c, 8, 65, 0
10, 329757, Note_on_c, 8, 66, 120
10, 329907, Note_on_c, 8, 66, 0
10, 329997, Note_on_c, 8, 66, 120
10, 330147, Note_on_c, 8, 66, 0
10, 330237, Note_on_c, 8, 67, 120
10, 330687, Note_on_c, 8, 67, 0
10, 330717, Note_on_c, 8, 66, 120
10, 330867, Note_on_c, 8, 66, 0
10, 330957, Note_on_c, 8, 68, 120
10, 331107, Note_on_c, 8, 68, 0
10, 331197, Note_on_c, 8, 68, 120
10, 331437, Note_on_c, 8, 67, 120
10, 331467, Note_on_c, 8, 68, 0
10, 331647, Note_on_c, 8, 67, 0
10, 332637, Note_on_c, 8, 66, 120
10, 332787, Note_on_c, 8, 66, 0
10, 332877, Note_on_c, 8, 68, 120
10, 333027, Note_on_c, 8, 68, 0
10, 333117, Note_on_c, 8, 68, 120
10, 333357, Note_on_c, 8, 67, 120
10, 333387, Note_on_c, 8, 68, 0
10, 333567, Note_on_c, 8, 67, 0
10, 334557, Note_on_c, 8, 66, 120
10, 334707, Note_on_c, 8, 66, 0
10, 334797, Note_on_c, 8, 68, 120
10, 334947, Note_on_c, 8, 68, 0
10, 335037, Note_on_c, 8, 68, 120
10, 335277, Note_on_c, 8, 67, 120
10, 335307, Note_on_c, 8, 68, 0
10, 335487, Note_on_c, 8, 67, 0
10, 336477, Note_on_c, 8, 66, 120
10, 336627, Note_on_c, 8, 66, 0
10, 336717, Note_on_c, 8, 68, 120
10, 336867, Note_on_c, 8, 68, 0
10, 336957, Note_on_c, 8, 68, 120
10, 337197, Note_on_c, 8, 67, 120
10, 337227, Note_on_c, 8, 68, 0
10, 337407, Note_on_c, 8, 67, 0
10, 337437, Note_on_c, 8, 75, 120
10, 337917, Note_on_c, 8, 74, 110
10, 337947, Note_on_c, 8, 75, 0
10, 338637, Control_c, 8, 11, 100
10, 338677, Control_c, 8, 11, 99
10, 338707, Control_c, 8, 11, 98
10, 338737, Control_c, 8, 11, 97
10, 338777, Control_c, 8, 11, 96
10, 338807, Control_c, 8, 11, 95
10, 338837, Control_c, 8, 11, 94
10, 338877, Control_c, 8, 11, 93
10, 338907, Control_c, 8, 11, 92
10, 338937, Control_c, 8, 11, 91
10, 338967, Control_c, 8, 11, 90
10, 339007, Control_c, 8, 11, 89
10, 339037, Control_c, 8, 11, 88
10, 339067, Control_c, 8, 11, 87
10, 339107, Control_c, 8, 11, 86
10, 339137, Control_c, 8, 11, 85
10, 339167, Control_c, 8, 11, 84
10, 339197, Control_c, 8, 11, 83
10, 339237, Control_c, 8, 11, 82
10, 339267, Control_c, 8, 11, 81
10, 339297, Control_c, 8, 11, 80
10, 339337, Control_c, 8, 11, 79
10, 339367, Control_c, 8, 11, 78
10, 339397, Control_c, 8, 11, 77
10, 339437, Control_c, 8, 11, 76
10, 339467, Control_c, 8, 11, 75
10, 339497, Control_c, 8, 11, 74
10, 339527, Control_c, 8, 11, 73
10, 339567, Control_c, 8, 11, 72
10, 339597, Control_c, 8, 11, 71
10, 339627, Control_c, 8, 11, 70
10, 339667, Control_c, 8, 11, 69
10, 339697, Control_c, 8, 11, 68
10, 339727, Control_c, 8, 11, 67
10, 339757, Control_c, 8, 11, 66
10, 339797, Control_c, 8, 11, 65
10, 339827, Control_c, 8, 11, 64
10, 339857, Control_c, 8, 11, 63
10, 339897, Control_c, 8, 11, 62
10, 339927, Control_c, 8, 11, 61
10, 339957, Control_c, 8, 11, 60
10, 339997, Control_c, 8, 11, 59
10, 340027, Control_c, 8, 11, 58
10, 340057, Control_c, 8, 11, 57
10, 340087, Control_c, 8, 11, 56
10, 340127, Control_c, 8, 11, 55
10, 340157, Control_c, 8, 11, 54
10, 340187, Control_c, 8, 11, 53
10, 340227, Control_c, 8, 11, 52
10, 340257, Control_c, 8, 11, 51
10, 340287, Control_c, 8, 11, 50
10, 340317, Note_on_c, 8, 71, 89
10, 340347, Note_on_c, 8, 74, 0
10, 340437, Control_c, 8, 11, 50
10, 340557, Control_c, 8, 11, 51
10, 340677, Control_c, 8, 11, 52
10, 340797, Note_on_c, 8, 67, 85
10, 340797, Control_c, 8, 11, 53
10, 340827, Note_on_c, 8, 71, 0
10, 340917, Control_c, 8, 11, 54
10, 341037, Control_c, 8, 11, 55
10, 341157, Control_c, 8, 11, 56
10, 341277, Note_on_c, 8, 65, 80
10, 341277, Control_c, 8, 11, 57
10, 341307, Note_on_c, 8, 67, 0
10, 341397, Control_c, 8, 11, 58
10, 341517, Control_c, 8, 11, 59
10, 341637, Control_c, 8, 11, 60
10, 341727, Note_on_c, 8, 65, 0
10, 341757, Note_on_c, 8, 64, 90
10, 341757, Control_c, 8, 11, 60
10, 342127, Control_c, 8, 11, 61
10, 342497, Control_c, 8, 11, 62
10, 342857, Control_c, 8, 11, 63
10, 343197, Note_on_c, 8, 65, 90
10, 343227, Note_on_c, 8, 64, 0
10, 343227, Control_c, 8, 11, 64
10, 343587, Control_c, 8, 11, 65
10, 343677, Note_on_c, 8, 64, 90
10, 343707, Note_on_c, 8, 65, 0
10, 343957, Control_c, 8, 11, 66
10, 344157, Note_on_c, 8, 62, 90
10, 344187, Note_on_c, 8, 64, 0
10, 344317, Control_c, 8, 11, 67
10, 344637, Note_on_c, 8, 59, 90
10, 344667, Note_on_c, 8, 62, 0
10, 344687, Control_c, 8, 11, 68
10, 345057, Control_c, 8, 11, 69
10, 345117, Note_on_c, 8, 55, 90
10, 345147, Note_on_c, 8, 59, 0
10, 345417, Control_c, 8, 11, 70
10, 345567, Note_on_c, 8, 55, 0
10, 345597, Note_on_c, 8, 67, 90
10, 345787, Control_c, 8, 11, 71
10, 346147, Control_c, 8, 11, 72
10, 346517, Control_c, 8, 11, 73
10, 346877, Control_c, 8, 11, 74
10, 347037, Note_on_c, 8, 69, 90
10, 347067, Note_on_c, 8, 67, 0
10, 347247, Control_c, 8, 11, 75
10, 347517, Note_on_c, 8, 67, 90
10, 347547, Note_on_c, 8, 69, 0
10, 347617, Control_c, 8, 11, 76
10, 347977, Control_c, 8, 11, 77
10, 348347, Control_c, 8, 11, 78
10, 348477, Note_on_c, 8, 65, 90
10, 348507, Note_on_c, 8, 67, 0
10, 348707, Control_c, 8, 11, 79
10, 349077, Control_c, 8, 11, 80
10, 349407, Note_on_c, 8, 65, 0
10, 349437, Note_on_c, 8, 64, 90
10, 349807, Control_c, 8, 11, 81
10, 349887, Note_on_c, 8, 64, 0
10, 349917, Note_on_c, 8, 67, 90
10, 350177, Control_c, 8, 11, 82
10, 350537, Control_c, 8, 11, 83
10, 350847, Note_on_c, 8, 67, 0
10, 350877, Note_on_c, 8, 67, 90
10, 350907, Control_c, 8, 11, 84
10, 351277, Control_c, 8, 11, 85
10, 351637, Control_c, 8, 11, 86
10, 351807, Note_on_c, 8, 67, 0
10, 351837, Note_on_c, 8, 67, 90
10, 352007, Control_c, 8, 11, 87
10, 352377, Control_c, 8, 11, 88
10, 352737, Control_c, 8, 11, 89
10, 352767, Note_on_c, 8, 67, 0
10, 352797, Note_on_c, 8, 67, 90
10, 353107, Control_c, 8, 11, 90
10, 353477, Control_c, 8, 11, 91
10, 353727, Note_on_c, 8, 67, 0
10, 353757, Note_on_c, 8, 67, 90
10, 353837, Control_c, 8, 11, 92
10, 354207, Control_c, 8, 11, 93
10, 354577, Control_c, 8, 11, 94
10, 354687, Note_on_c, 8, 67, 0
10, 354717, Note_on_c, 8, 67, 90
10, 354937, Control_c, 8, 11, 95
10, 355307, Control_c, 8, 11, 96
10, 355647, Note_on_c, 8, 67, 0
10, 355677, Note_on_c, 8, 67, 90
10, 355677, Control_c, 8, 11, 97
10, 356037, Control_c, 8, 11, 98
10, 356407, Control_c, 8, 11, 99
10, 356607, Note_on_c, 8, 67, 0
10, 356637, Note_on_c, 8, 67, 90
10, 356777, Control_c, 8, 11, 100
10, 357087, Note_on_c, 8, 67, 0
10, 357117, Note_on_c, 8, 67, 100
10, 357137, Control_c, 8, 11, 101
10, 357287, Control_c, 8, 11, 102
10, 357437, Control_c, 8, 11, 103
10, 357587, Control_c, 8, 11, 104
10, 357595, Note_on_c, 8, 67, 0
10, 357597, Note_on_c, 8, 67, 103
10, 357727, Control_c, 8, 11, 105
10, 357877, Control_c, 8, 11, 106
10, 358027, Control_c, 8, 11, 107
10, 358075, Note_on_c, 8, 67, 0
10, 358077, Note_on_c, 8, 67, 106
10, 358167, Control_c, 8, 11, 108
10, 358317, Control_c, 8, 11, 109
10, 358467, Control_c, 8, 11, 110
10, 358555, Note_on_c, 8, 67, 0
10, 358557, Note_on_c, 8, 67, 110
10, 358607, Control_c, 8, 11, 111
10, 358757, Control_c, 8, 11, 112
10, 358907, Control_c, 8, 11, 113
10, 359035, Note_on_c, 8, 67, 0
10, 359037, Note_on_c, 8, 67, 113
10, 359047, Control_c, 8, 11, 114
10, 359197, Control_c, 8, 11, 115
10, 359347, Control_c, 8, 11, 116
10, 359497, Control_c, 8, 11, 117
10, 359515, Note_on_c, 8, 67, 0
10, 359517, Note_on_c, 8, 67, 116
10, 359637, Control_c, 8, 11, 118
10, 359787, Control_c, 8, 11, 119
10, 359937, Control_c, 8, 11, 120
10, 359995, Note_on_c, 8, 67, 0
10, 359997, Note_on_c, 8, 67, 120
10, 360077, Control_c, 8, 11, 121
10, 360227, Control_c, 8, 11, 122
10, 360377, Control_c, 8, 11, 123
10, 360475, Note_on_c, 8, 67, 0
10, 360477, Note_on_c, 8, 67, 123
10, 360517, Control_c, 8, 11, 124
10, 360667, Control_c, 8, 11, 125
10, 360817, Control_c, 8, 11, 126
10, 360937, Control_c, 8, 11, 127
10, 360955, Note_on_c, 8, 67, 0
10, 360957, Note_on_c, 8, 67, 127
10, 361915, Note_on_c, 8, 67, 0
10, 361917, Note_on_c, 8, 70, 127
10, 362877, Note_on_c, 8, 69, 127
10, 362877, Note_on_c, 8, 70, 0
10, 363837, Note_on_c, 8, 67, 127
10, 363837, Note_on_c, 8, 69, 0
10, 364767, Note_on_c, 8, 67, 0
10, 364794, Control_c, 8, 11, 80
10, 364797, Note_on_c, 8, 65, 100
10, 366237, Note_on_c, 8, 67, 100
10, 366267, Note_on_c, 8, 65, 0
10, 366717, Note_on_c, 8, 65, 100
10, 366747, Note_on_c, 8, 67, 0
10, 367197, Note_on_c, 8, 64, 100
10, 367227, Note_on_c, 8, 65, 0
10, 367677, Note_on_c, 8, 61, 100
10, 367707, Note_on_c, 8, 64, 0
10, 368157, Note_on_c, 8, 57, 100
10, 368187, Note_on_c, 8, 61, 0
10, 368607, Note_on_c, 8, 57, 0
10, 368637, Note_on_c, 8, 69, 100
10, 370077, Note_on_c, 8, 70, 100
10, 370107, Note_on_c, 8, 69, 0
10, 370557, Note_on_c, 8, 69, 100
10, 370587, Note_on_c, 8, 70, 0
10, 371517, Note_on_c, 8, 67, 100
10, 371547, Note_on_c, 8, 69, 0
10, 372447, Note_on_c, 8, 67, 0
10, 372477, Note_on_c, 8, 65, 105
10, 372477, Control_c, 8, 11, 80
10, 372567, Control_c, 8, 11, 81
10, 372597, Note_on_c, 8, 65, 0
10, 372597, Note_on_c, 8, 69, 106
10, 372647, Control_c, 8, 11, 82
10, 372715, Note_on_c, 8, 69, 0
10, 372717, Note_on_c, 8, 69, 107
10, 372727, Control_c, 8, 11, 83
10, 372807, Control_c, 8, 11, 84
10, 372887, Control_c, 8, 11, 85
10, 372955, Note_on_c, 8, 69, 0
10, 372957, Note_on_c, 8, 69, 109
10, 372977, Control_c, 8, 11, 86
10, 373057, Control_c, 8, 11, 87
10, 373137, Control_c, 8, 11, 88
10, 373195, Note_on_c, 8, 69, 0
10, 373197, Note_on_c, 8, 69, 111
10, 373217, Control_c, 8, 11, 89
10, 373297, Control_c, 8, 11, 90
10, 373377, Control_c, 8, 11, 91
10, 373435, Note_on_c, 8, 69, 0
10, 373437, Note_on_c, 8, 69, 113
10, 373467, Control_c, 8, 11, 92
10, 373547, Control_c, 8, 11, 93
10, 373627, Control_c, 8, 11, 94
10, 373675, Note_on_c, 8, 69, 0
10, 373677, Note_on_c, 8, 69, 115
10, 373707, Control_c, 8, 11, 95
10, 373787, Control_c, 8, 11, 96
10, 373867, Control_c, 8, 11, 97
10, 373915, Note_on_c, 8, 69, 0
10, 373917, Note_on_c, 8, 69, 117
10, 373957, Control_c, 8, 11, 98
10, 374037, Control_c, 8, 11, 99
10, 374117, Control_c, 8, 11, 100
10, 374155, Note_on_c, 8, 69, 0
10, 374157, Note_on_c, 8, 69, 120
10, 374197, Control_c, 8, 11, 101
10, 374277, Control_c, 8, 11, 102
10, 374357, Control_c, 8, 11, 103
10, 374365, Note_on_c, 8, 69, 0
10, 374397, Note_on_c, 8, 69, 110
10, 374447, Control_c, 8, 11, 104
10, 374527, Control_c, 8, 11, 105
10, 374607, Control_c, 8, 11, 106
10, 374687, Control_c, 8, 11, 107
10, 374767, Control_c, 8, 11, 108
10, 374847, Control_c, 8, 11, 109
10, 374937, Control_c, 8, 11, 110
10, 375017, Control_c, 8, 11, 111
10, 375097, Control_c, 8, 11, 112
10, 375177, Control_c, 8, 11, 113
10, 375257, Control_c, 8, 11, 114
10, 375327, Note_on_c, 8, 69, 0
10, 375337, Control_c, 8, 11, 115
10, 375357, Note_on_c, 8, 69, 110
10, 375427, Control_c, 8, 11, 116
10, 375507, Control_c, 8, 11, 117
10, 375587, Control_c, 8, 11, 118
10, 375667, Control_c, 8, 11, 119
10, 375747, Control_c, 8, 11, 120
10, 375827, Control_c, 8, 11, 121
10, 375917, Control_c, 8, 11, 122
10, 375997, Control_c, 8, 11, 123
10, 376077, Control_c, 8, 11, 124
10, 376157, Control_c, 8, 11, 125
10, 376237, Control_c, 8, 11, 126
10, 376287, Note_on_c, 8, 69, 0
10, 376287, Control_c, 8, 11, 127
10, 376317, Note_on_c, 8, 69, 127
10, 377277, Note_on_c, 8, 69, 0
10, 377277, Note_on_c, 8, 72, 127
10, 378237, Note_on_c, 8, 71, 127
10, 378237, Note_on_c, 8, 72, 0
10, 379197, Note_on_c, 8, 69, 127
10, 379197, Note_on_c, 8, 71, 0
10, 380127, Note_on_c, 8, 69, 0
10, 380154, Control_c, 8, 11, 80
10, 380157, Note_on_c, 8, 67, 100
10, 381597, Note_on_c, 8, 69, 100
10, 381627, Note_on_c, 8, 67, 0
10, 382077, Note_on_c, 8, 67, 100
10, 382077, Control_c, 8, 11, 80
10, 382107, Note_on_c, 8, 69, 0
10, 382207, Control_c, 8, 11, 81
10, 382327, Control_c, 8, 11, 82
10, 382447, Control_c, 8, 11, 83
10, 382557, Note_on_c, 8, 66, 100
10, 382577, Control_c, 8, 11, 84
10, 382587, Note_on_c, 8, 67, 0
10, 382697, Control_c, 8, 11, 85
10, 382817, Control_c, 8, 11, 86
10, 382937, Control_c, 8, 11, 87
10, 383037, Note_on_c, 8, 63, 100
10, 383067, Note_on_c, 8, 66, 0
10, 383067, Control_c, 8, 11, 88
10, 383187, Control_c, 8, 11, 89
10, 383307, Control_c, 8, 11, 90
10, 383427, Control_c, 8, 11, 91
10, 383517, Note_on_c, 8, 59, 100
10, 383547, Note_on_c, 8, 63, 0
10, 383557, Control_c, 8, 11, 92
10, 383677, Control_c, 8, 11, 93
10, 383797, Control_c, 8, 11, 94
10, 383917, Control_c, 8, 11, 95
10, 383967, Note_on_c, 8, 59, 0
10, 383997, Note_on_c, 8, 71, 100
10, 384047, Control_c, 8, 11, 96
10, 384167, Control_c, 8, 11, 97
10, 384287, Control_c, 8, 11, 98
10, 384407, Control_c, 8, 11, 99
10, 384537, Control_c, 8, 11, 100
10, 384657, Control_c, 8, 11, 101
10, 384777, Control_c, 8, 11, 102
10, 384897, Control_c, 8, 11, 103
10, 385027, Control_c, 8, 11, 104
10, 385147, Control_c, 8, 11, 105
10, 385267, Control_c, 8, 11, 106
10, 385387, Control_c, 8, 11, 107
10, 385517, Control_c, 8, 11, 108
10, 385637, Control_c, 8, 11, 109
10, 385757, Control_c, 8, 11, 110
10, 385877, Control_c, 8, 11, 111
10, 386007, Control_c, 8, 11, 112
10, 386127, Control_c, 8, 11, 113
10, 386247, Control_c, 8, 11, 114
10, 386367, Control_c, 8, 11, 115
10, 386497, Control_c, 8, 11, 116
10, 386617, Control_c, 8, 11, 117
10, 386737, Control_c, 8, 11, 118
10, 386857, Control_c, 8, 11, 119
10, 386987, Control_c, 8, 11, 120
10, 387107, Control_c, 8, 11, 121
10, 387227, Control_c, 8, 11, 122
10, 387347, Control_c, 8, 11, 123
10, 387477, Control_c, 8, 11, 124
10, 387597, Control_c, 8, 11, 125
10, 387717, Control_c, 8, 11, 126
10, 387747, Note_on_c, 8, 71, 0
10, 387837, Note_on_c, 8, 72, 100
10, 387837, Control_c, 8, 11, 127
10, 387877, Control_c, 8, 11, 126
10, 387917, Control_c, 8, 11, 125
10, 387957, Control_c, 8, 11, 124
10, 387987, Note_on_c, 8, 72, 0
10, 387997, Control_c, 8, 11, 123
10, 388037, Control_c, 8, 11, 122
10, 388077, Note_on_c, 8, 67, 100
10, 388077, Control_c, 8, 11, 121
10, 388117, Control_c, 8, 11, 120
10, 388157, Control_c, 8, 11, 119
10, 388197, Control_c, 8, 11, 118
10, 388237, Control_c, 8, 11, 117
10, 388277, Control_c, 8, 11, 116
10, 388317, Note_on_c, 8, 60, 100
10, 388317, Control_c, 8, 11, 115
10, 388347, Note_on_c, 8, 67, 0
10, 388347, Control_c, 8, 11, 114
10, 388387, Control_c, 8, 11, 113
10, 388427, Control_c, 8, 11, 112
10, 388467, Control_c, 8, 11, 111
10, 388507, Control_c, 8, 11, 110
10, 388547, Control_c, 8, 11, 109
10, 388557, Note_on_c, 8, 67, 100
10, 388587, Note_on_c, 8, 60, 0
10, 388587, Control_c, 8, 11, 108
10, 388627, Control_c, 8, 11, 107
10, 388667, Control_c, 8, 11, 106
10, 388707, Control_c, 8, 11, 105
10, 388747, Control_c, 8, 11, 104
10, 388767, Note_on_c, 8, 67, 0
10, 388787, Control_c, 8, 11, 103
10, 388817, Control_c, 8, 11, 102
10, 388857, Control_c, 8, 11, 101
10, 388897, Control_c, 8, 11, 100
10, 388937, Control_c, 8, 11, 99
10, 388977, Control_c, 8, 11, 98
10, 389017, Control_c, 8, 11, 97
10, 389037, Note_on_c, 8, 70, 100
10, 389057, Control_c, 8, 11, 96
10, 389097, Control_c, 8, 11, 95
10, 389137, Control_c, 8, 11, 94
10, 389177, Control_c, 8, 11, 93
10, 389217, Control_c, 8, 11, 92
10, 389257, Control_c, 8, 11, 91
10, 389277, Note_on_c, 8, 67, 100
10, 389287, Control_c, 8, 11, 90
10, 389307, Note_on_c, 8, 70, 0
10, 389327, Control_c, 8, 11, 89
10, 389367, Control_c, 8, 11, 88
10, 389407, Control_c, 8, 11, 87
10, 389447, Control_c, 8, 11, 86
10, 389487, Control_c, 8, 11, 85
10, 389517, Note_on_c, 8, 70, 100
10, 389527, Control_c, 8, 11, 84
10, 389547, Note_on_c, 8, 67, 0
10, 389567, Control_c, 8, 11, 83
10, 389607, Control_c, 8, 11, 82
10, 389647, Control_c, 8, 11, 81
10, 389687, Control_c, 8, 11, 80
10, 389727, Note_on_c, 8, 70, 0
10, 389997, Note_on_c, 8, 68, 100
10, 390237, Note_on_c, 8, 65, 100
10, 390267, Note_on_c, 8, 68, 0
10, 390477, Note_on_c, 8, 68, 100
10, 390507, Note_on_c, 8, 65, 0
10, 390687, Note_on_c, 8, 68, 0
10, 390957, Note_on_c, 8, 67, 100
10, 391197, Note_on_c, 8, 63, 100
10, 391227, Note_on_c, 8, 67, 0
10, 391437, Note_on_c, 8, 67, 100
10, 391467, Note_on_c, 8, 63, 0
10, 391647, Note_on_c, 8, 67, 0
10, 391917, Note_on_c, 8, 65, 100
10, 392157, Note_on_c, 8, 60, 100
10, 392187, Note_on_c, 8, 65, 0
10, 392397, Note_on_c, 8, 65, 100
10, 392427, Note_on_c, 8, 60, 0
10, 392607, Note_on_c, 8, 65, 0
10, 392877, Note_on_c, 8, 67, 100
10, 393117, Note_on_c, 8, 63, 100
10, 393147, Note_on_c, 8, 67, 0
10, 393357, Note_on_c, 8, 67, 100
10, 393387, Note_on_c, 8, 63, 0
10, 393567, Note_on_c, 8, 67, 0
10, 393837, Note_on_c, 8, 68, 100
10, 394077, Note_on_c, 8, 62, 100
10, 394107, Note_on_c, 8, 68, 0
10, 394317, Note_on_c, 8, 68, 100
10, 394347, Note_on_c, 8, 62, 0
10, 394527, Note_on_c, 8, 68, 0
10, 394797, Note_on_c, 8, 69, 100
10, 395037, Note_on_c, 8, 63, 100
10, 395067, Note_on_c, 8, 69, 0
10, 395277, Note_on_c, 8, 69, 100
10, 395307, Note_on_c, 8, 63, 0
10, 395487, Note_on_c, 8, 69, 0
10, 395517, Note_on_c, 8, 67, 100
10, 395637, Note_on_c, 8, 67, 0
10, 395757, Note_on_c, 8, 71, 100
10, 395877, Note_on_c, 8, 71, 0
10, 395997, Note_on_c, 8, 71, 100
10, 396567, Note_on_c, 8, 71, 0
10, 396717, Note_on_c, 8, 71, 100
10, 396837, Note_on_c, 8, 71, 0
10, 396957, Note_on_c, 8, 71, 100
10, 397527, Note_on_c, 8, 71, 0
10, 397677, Note_on_c, 8, 71, 100
10, 397797, Note_on_c, 8, 71, 0
10, 397917, Note_on_c, 8, 71, 100
10, 398487, Note_on_c, 8, 71, 0
10, 398637, Note_on_c, 8, 71, 100
10, 398757, Note_on_c, 8, 71, 0
10, 398877, Note_on_c, 8, 71, 100
10, 399357, Control_c, 8, 11, 80
10, 399447, Note_on_c, 8, 71, 0
10, 399527, Control_c, 8, 11, 81
10, 399597, Note_on_c, 8, 72, 100
10, 399687, Control_c, 8, 11, 82
10, 399717, Note_on_c, 8, 72, 0
10, 399837, Note_on_c, 8, 72, 101
10, 399857, Control_c, 8, 11, 83
10, 400017, Control_c, 8, 11, 84
10, 400177, Control_c, 8, 11, 85
10, 400347, Control_c, 8, 11, 86
10, 400407, Note_on_c, 8, 72, 0
10, 400507, Control_c, 8, 11, 87
10, 400557, Note_on_c, 8, 72, 103
10, 400667, Control_c, 8, 11, 88
10, 400677, Note_on_c, 8, 72, 0
10, 400797, Note_on_c, 8, 72, 104
10, 400837, Control_c, 8, 11, 89
10, 400997, Control_c, 8, 11, 90
10, 401157, Control_c, 8, 11, 91
10, 401327, Control_c, 8, 11, 92
10, 401367, Note_on_c, 8, 72, 0
10, 401487, Control_c, 8, 11, 93
10, 401517, Note_on_c, 8, 72, 106
10, 401637, Note_on_c, 8, 72, 0
10, 401647, Control_c, 8, 11, 94
10, 401757, Note_on_c, 8, 72, 106
10, 401817, Control_c, 8, 11, 95
10, 401977, Control_c, 8, 11, 96
10, 402137, Control_c, 8, 11, 97
10, 402307, Control_c, 8, 11, 98
10, 402327, Note_on_c, 8, 72, 0
10, 402467, Control_c, 8, 11, 99
10, 402477, Note_on_c, 8, 72, 108
10, 402597, Note_on_c, 8, 72, 0
10, 402627, Control_c, 8, 11, 100
10, 402717, Note_on_c, 8, 72, 109
10, 402797, Control_c, 8, 11, 101
10, 402957, Control_c, 8, 11, 102
10, 403117, Control_c, 8, 11, 103
10, 403287, Note_on_c, 8, 72, 0
10, 403287, Control_c, 8, 11, 104
10, 403437, Note_on_c, 8, 74, 111
10, 403447, Control_c, 8, 11, 105
10, 403557, Note_on_c, 8, 74, 0
10, 403607, Control_c, 8, 11, 106
10, 403677, Note_on_c, 8, 74, 112
10, 403777, Control_c, 8, 11, 107
10, 403937, Control_c, 8, 11, 108
10, 404097, Control_c, 8, 11, 109
10, 404247, Note_on_c, 8, 74, 0
10, 404267, Control_c, 8, 11, 110
10, 404397, Note_on_c, 8, 74, 114
10, 404427, Control_c, 8, 11, 111
10, 404517, Note_on_c, 8, 74, 0
10, 404587, Control_c, 8, 11, 112
10, 404637, Note_on_c, 8, 74, 114
10, 404757, Control_c, 8, 11, 113
10, 404917, Control_c, 8, 11, 114
10, 405077, Control_c, 8, 11, 115
10, 405207, Note_on_c, 8, 74, 0
10, 405247, Control_c, 8, 11, 116
10, 405357, Note_on_c, 8, 75, 116
10, 405407, Control_c, 8, 11, 117
10, 405477, Note_on_c, 8, 75, 0
10, 405567, Control_c, 8, 11, 118
10, 405597, Note_on_c, 8, 75, 117
10, 405737, Control_c, 8, 11, 119
10, 405897, Control_c, 8, 11, 120
10, 406057, Control_c, 8, 11, 121
10, 406167, Note_on_c, 8, 75, 0
10, 406227, Control_c, 8, 11, 122
10, 406317, Note_on_c, 8, 75, 119
10, 406387, Control_c, 8, 11, 123
10, 406437, Note_on_c, 8, 75, 0
10, 406547, Control_c, 8, 11, 124
10, 406557, Note_on_c, 8, 75, 120
10, 406717, Control_c, 8, 11, 125
10, 406877, Control_c, 8, 11, 126
10, 406977, Note_on_c, 8, 75, 0
10, 406997, Control_c, 8, 11, 127
10, 407037, Note_on_c, 8, 68, 127
10, 408477, Note_on_c, 8, 67, 127
10, 408477, Note_on_c, 8, 68, 0
10, 408957, Note_on_c, 8, 65, 127
10, 408957, Note_on_c, 8, 67, 0
10, 409437, Note_on_c, 8, 63, 127
10, 409437, Note_on_c, 8, 65, 0
10, 409917, Note_on_c, 8, 63, 0
10, 409917, Note_on_c, 8, 65, 127
10, 410397, Note_on_c, 8, 63, 127
10, 410397, Note_on_c, 8, 65, 0
10, 410757, Note_on_c, 8, 63, 0
10, 410877, Note_on_c, 8, 68, 127
10, 412317, Note_on_c, 8, 67, 127
10, 412317, Note_on_c, 8, 68, 0
10, 412797, Note_on_c, 8, 65, 127
10, 412797, Note_on_c, 8, 67, 0
10, 413277, Note_on_c, 8, 63, 127
10, 413277, Note_on_c, 8, 65, 0
10, 413757, Note_on_c, 8, 63, 0
10, 413757, Note_on_c, 8, 65, 127
10, 414237, Note_on_c, 8, 63, 127
10, 414237, Note_on_c, 8, 65, 0
10, 414597, Note_on_c, 8, 63, 0
10, 414717, Note_on_c, 8, 73, 127
10, 416157, Note_on_c, 8, 72, 127
10, 416157, Note_on_c, 8, 73, 0
10, 416637, Note_on_c, 8, 70, 127
10, 416637, Note_on_c, 8, 72, 0
10, 417117, Note_on_c, 8, 68, 127
10, 417117, Note_on_c, 8, 70, 0
10, 417597, Note_on_c, 8, 68, 0
10, 417597, Note_on_c, 8, 70, 127
10, 418077, Note_on_c, 8, 68, 127
10, 418077, Note_on_c, 8, 70, 0
10, 418437, Note_on_c, 8, 68, 0
10, 418557, Note_on_c, 8, 73, 127
10, 419997, Note_on_c, 8, 72, 127
10, 419997, Note_on_c, 8, 73, 0
10, 420477, Note_on_c, 8, 70, 127
10, 420477, Note_on_c, 8, 72, 0
10, 420957, Note_on_c, 8, 68, 127
10, 420957, Note_on_c, 8, 70, 0
10, 421437, Note_on_c, 8, 68, 0
10, 421437, Note_on_c, 8, 70, 127
10, 421917, Note_on_c, 8, 68, 127
10, 421917, Note_on_c, 8, 70, 0
10, 422397, Note_on_c, 8, 68, 0
10, 422637, Note_on_c, 8, 68, 120
10, 422757, Note_on_c, 8, 68, 0
10, 422877, Note_on_c, 8, 61, 120
10, 423837, Note_on_c, 8, 60, 120
10, 423867, Note_on_c, 8, 61, 0
10, 424287, Note_on_c, 8, 60, 0
10, 424557, Note_on_c, 8, 68, 120
10, 424677, Note_on_c, 8, 68, 0
10, 424797, Note_on_c, 8, 61, 120
10, 425757, Note_on_c, 8, 60, 120
10, 425787, Note_on_c, 8, 61, 0
10, 426207, Note_on_c, 8, 60, 0
10, 426477, Note_on_c, 8, 68, 120
10, 426597, Note_on_c, 8, 68, 0
10, 426717, Note_on_c, 8, 61, 120
10, 427677, Note_on_c, 8, 60, 120
10, 427707, Note_on_c, 8, 61, 0
10, 428127, Note_on_c, 8, 60, 0
10, 428397, Note_on_c, 8, 68, 120
10, 428517, Note_on_c, 8, 68, 0
10, 428637, Note_on_c, 8, 61, 120
10, 429597, Note_on_c, 8, 60, 120
10, 429627, Note_on_c, 8, 61, 0
10, 430047, Note_on_c, 8, 60, 0
10, 430077, Note_on_c, 8, 65, 127
10, 430317, Note_on_c, 8, 65, 0
10, 430317, Note_on_c, 8, 68, 127
10, 430557, Note_on_c, 8, 65, 127
10, 430557, Note_on_c, 8, 68, 0
10, 431037, Note_on_c, 8, 62, 127
10, 431037, Note_on_c, 8, 65, 0
10, 431277, Note_on_c, 8, 62, 0
10, 431277, Note_on_c, 8, 67, 127
10, 431517, Note_on_c, 8, 62, 127
10, 431517, Note_on_c, 8, 67, 0
10, 431997, Note_on_c, 8, 60, 127
10, 431997, Note_on_c, 8, 62, 0
10, 432237, Note_on_c, 8, 60, 0
10, 432237, Note_on_c, 8, 67, 127
10, 432477, Note_on_c, 8, 60, 127
10, 432477, Note_on_c, 8, 67, 0
10, 433197, Note_on_c, 8, 60, 0
10, 433197, Note_on_c, 8, 65, 127
10, 433437, Note_on_c, 8, 60, 127
10, 433437, Note_on_c, 8, 65, 0
10, 433917, Note_on_c, 8, 59, 127
10, 433917, Note_on_c, 8, 60, 0
10, 434157, Note_on_c, 8, 59, 0
10, 434157, Note_on_c, 8, 65, 127
10, 434397, Note_on_c, 8, 59, 127
10, 434397, Note_on_c, 8, 65, 0
10, 434877, Note_on_c, 8, 59, 0
10, 434877, Note_on_c, 8, 60, 127
10, 435117, Note_on_c, 8, 60, 0
10, 435117, Note_on_c, 8, 65, 127
10, 435357, Note_on_c, 8, 60, 127
10, 435357, Note_on_c, 8, 65, 0
10, 435837, Note_on_c, 8, 60, 0
10, 435837, Note_on_c, 8, 62, 127
10, 436077, Note_on_c, 8, 62, 0
10, 436077, Note_on_c, 8, 65, 127
10, 436317, Note_on_c, 8, 62, 127
10, 436317, Note_on_c, 8, 65, 0
10, 436797, Note_on_c, 8, 60, 127
10, 436797, Note_on_c, 8, 62, 0
10, 437037, Note_on_c, 8, 60, 0
10, 437037, Note_on_c, 8, 65, 127
10, 437277, Note_on_c, 8, 60, 127
10, 437277, Note_on_c, 8, 65, 0
10, 437727, Note_on_c, 8, 60, 0
10, 437757, Note_on_c, 8, 62, 120
10, 437877, Note_on_c, 8, 62, 0
10, 437997, Note_on_c, 8, 55, 120
10, 438117, Note_on_c, 8, 55, 0
10, 438237, Note_on_c, 8, 67, 120
10, 438927, Note_on_c, 8, 67, 0
10, 438957, Note_on_c, 8, 68, 120
10, 439077, Note_on_c, 8, 68, 0
10, 445194, Control_c, 8, 11, 127
10, 445197, Note_on_c, 8, 55, 127
10, 445317, Note_on_c, 8, 55, 0
10, 445437, Note_on_c, 8, 55, 127
10, 445767, Note_on_c, 8, 55, 0
10, 449037, Note_on_c, 8, 55, 127
10, 449157, Note_on_c, 8, 55, 0
10, 449277, Note_on_c, 8, 55, 127
10, 449607, Note_on_c, 8, 55, 0
10, 449994, Control_c, 8, 11, 100
10, 456957, Note_on_c, 8, 63, 127
10, 457287, Note_on_c, 8, 63, 0
10, 457677, Note_on_c, 8, 68, 127
10, 457797, Note_on_c, 8, 68, 0
10, 457917, Note_on_c, 8, 67, 127
10, 458247, Note_on_c, 8, 67, 0
10, 458637, Note_on_c, 8, 62, 127
10, 458757, Note_on_c, 8, 62, 0
10, 458877, Note_on_c, 8, 60, 127
10, 459207, Note_on_c, 8, 60, 0
10, 459597, Note_on_c, 8, 65, 127
10, 459717, Note_on_c, 8, 65, 0
10, 459837, Note_on_c, 8, 63, 127
10, 460167, Note_on_c, 8, 63, 0
10, 460557, Note_on_c, 8, 58, 127
10, 460677, Note_on_c, 8, 58, 0
10, 460797, Note_on_c, 8, 56, 127
10, 460947, Note_on_c, 8, 56, 0
10, 461277, Note_on_c, 8, 61, 127
10, 461547, Note_on_c, 8, 61, 0
10, 462477, Control_c, 8, 11, 80
10, 468477, Note_on_c, 8, 55, 80
10, 468717, Note_on_c, 8, 64, 80
10, 468747, Note_on_c, 8, 55, 0
10, 468957, Note_on_c, 8, 60, 80
10, 468987, Note_on_c, 8, 64, 0
10, 469197, Note_on_c, 8, 64, 80
10, 469227, Note_on_c, 8, 60, 0
10, 469437, Note_on_c, 8, 67, 80
10, 469467, Note_on_c, 8, 64, 0
10, 469677, Note_on_c, 8, 64, 80
10, 469707, Note_on_c, 8, 67, 0
10, 469917, Note_on_c, 8, 60, 80
10, 469947, Note_on_c, 8, 64, 0
10, 470157, Note_on_c, 8, 55, 80
10, 470187, Note_on_c, 8, 60, 0
10, 470637, Note_on_c, 8, 62, 80
10, 470667, Note_on_c, 8, 55, 0
10, 470877, Note_on_c, 8, 59, 80
10, 470907, Note_on_c, 8, 62, 0
10, 471117, Note_on_c, 8, 62, 80
10, 471147, Note_on_c, 8, 59, 0
10, 471357, Note_on_c, 8, 67, 80
10, 471387, Note_on_c, 8, 62, 0
10, 471597, Note_on_c, 8, 62, 80
10, 471627, Note_on_c, 8, 67, 0
10, 471837, Note_on_c, 8, 59, 80
10, 471867, Note_on_c, 8, 62, 0
10, 472077, Note_on_c, 8, 55, 80
10, 472107, Note_on_c, 8, 59, 0
10, 472557, Note_on_c, 8, 64, 80
10, 472587, Note_on_c, 8, 55, 0
10, 472797, Note_on_c, 8, 60, 80
10, 472827, Note_on_c, 8, 64, 0
10, 473037, Note_on_c, 8, 64, 80
10, 473067, Note_on_c, 8, 60, 0
10, 473277, Note_on_c, 8, 67, 80
10, 473307, Note_on_c, 8, 64, 0
10, 473517, Note_on_c, 8, 64, 80
10, 473547, Note_on_c, 8, 67, 0
10, 473757, Note_on_c, 8, 60, 80
10, 473787, Note_on_c, 8, 64, 0
10, 473997, Note_on_c, 8, 55, 80
10, 474027, Note_on_c, 8, 60, 0
10, 474477, Note_on_c, 8, 65, 80
10, 474507, Note_on_c, 8, 55, 0
10, 474717, Note_on_c, 8, 62, 80
10, 474747, Note_on_c, 8, 65, 0
10, 474957, Note_on_c, 8, 65, 80
10, 474987, Note_on_c, 8, 62, 0
10, 475197, Note_on_c, 8, 67, 80
10, 475227, Note_on_c, 8, 65, 0
10, 475437, Note_on_c, 8, 65, 80
10, 475467, Note_on_c, 8, 67, 0
10, 475677, Note_on_c, 8, 62, 80
10, 475707, Note_on_c, 8, 65, 0
10, 475917, Note_on_c, 8, 55, 80
10, 475947, Note_on_c, 8, 62, 0
10, 476397, Note_on_c, 8, 63, 80
10, 476427, Note_on_c, 8, 55, 0
10, 476637, Note_on_c, 8, 60, 80
10, 476667, Note_on_c, 8, 63, 0
10, 476877, Note_on_c, 8, 63, 80
10, 476907, Note_on_c, 8, 60, 0
10, 477117, Note_on_c, 8, 67, 80
10, 477147, Note_on_c, 8, 63, 0
10, 477357, Note_on_c, 8, 63, 80
10, 477387, Note_on_c, 8, 67, 0
10, 477597, Note_on_c, 8, 60, 80
10, 477627, Note_on_c, 8, 63, 0
10, 477837, Note_on_c, 8, 55, 80
10, 477867, Note_on_c, 8, 60, 0
10, 478317, Note_on_c, 8, 62, 80
10, 478347, Note_on_c, 8, 55, 0
10, 478557, Note_on_c, 8, 59, 80
10, 478587, Note_on_c, 8, 62, 0
10, 478797, Note_on_c, 8, 62, 80
10, 478827, Note_on_c, 8, 59, 0
10, 479037, Note_on_c, 8, 67, 80
10, 479067, Note_on_c, 8, 62, 0
10, 479277, Note_on_c, 8, 62, 80
10, 479307, Note_on_c, 8, 67, 0
10, 479517, Note_on_c, 8, 59, 80
10, 479547, Note_on_c, 8, 62, 0
10, 479757, Note_on_c, 8, 55, 80
10, 479787, Note_on_c, 8, 59, 0
10, 480237, Note_on_c, 8, 63, 80
10, 480267, Note_on_c, 8, 55, 0
10, 480477, Note_on_c, 8, 60, 80
10, 480507, Note_on_c, 8, 63, 0
10, 480717, Note_on_c, 8, 63, 80
10, 480747, Note_on_c, 8, 60, 0
10, 480957, Note_on_c, 8, 67, 80
10, 480987, Note_on_c, 8, 63, 0
10, 481197, Note_on_c, 8, 63, 80
10, 481227, Note_on_c, 8, 67, 0
10, 481437, Note_on_c, 8, 60, 80
10, 481467, Note_on_c, 8, 63, 0
10, 481677, Note_on_c, 8, 55, 80
10, 481707, Note_on_c, 8, 60, 0
10, 482157, Note_on_c, 8, 65, 80
10, 482187, Note_on_c, 8, 55, 0
10, 482397, Note_on_c, 8, 62, 80
10, 482427, Note_on_c, 8, 65, 0
10, 482637, Note_on_c, 8, 65, 80
10, 482667, Note_on_c, 8, 62, 0
10, 482877, Note_on_c, 8, 67, 80
10, 482907, Note_on_c, 8, 65, 0
10, 483117, Note_on_c, 8, 65, 80
10, 483147, Note_on_c, 8, 67, 0
10, 483357, Note_on_c, 8, 62, 80
10, 483387, Note_on_c, 8, 65, 0
10, 483597, Note_on_c, 8, 55, 80
10, 483627, Note_on_c, 8, 62, 0
10, 483837, Control_c, 8, 11, 80
10, 484027, Control_c, 8, 11, 81
10, 484077, Note_on_c, 8, 63, 81
10, 484107, Note_on_c, 8, 55, 0
10, 484217, Control_c, 8, 11, 82
10, 484317, Note_on_c, 8, 60, 83
10, 484347, Note_on_c, 8, 63, 0
10, 484397, Control_c, 8, 11, 83
10, 484557, Note_on_c, 8, 63, 85
10, 484587, Note_on_c, 8, 60, 0
10, 484587, Control_c, 8, 11, 84
10, 484767, Control_c, 8, 11, 85
10, 484797, Note_on_c, 8, 67, 86
10, 484827, Note_on_c, 8, 63, 0
10, 484957, Control_c, 8, 11, 86
10, 485037, Note_on_c, 8, 63, 88
10, 485067, Note_on_c, 8, 67, 0
10, 485147, Control_c, 8, 11, 87
10, 485277, Note_on_c, 8, 60, 90
10, 485307, Note_on_c, 8, 63, 0
10, 485327, Control_c, 8, 11, 88
10, 485517, Note_on_c, 8, 55, 92
10, 485517, Control_c, 8, 11, 89
10, 485547, Note_on_c, 8, 60, 0
10, 485697, Control_c, 8, 11, 90
10, 485887, Control_c, 8, 11, 91
10, 485997, Note_on_c, 8, 62, 95
10, 486027, Note_on_c, 8, 55, 0
10, 486067, Control_c, 8, 11, 92
10, 486237, Note_on_c, 8, 59, 97
10, 486257, Control_c, 8, 11, 93
10, 486267, Note_on_c, 8, 62, 0
10, 486447, Control_c, 8, 11, 94
10, 486477, Note_on_c, 8, 62, 99
10, 486507, Note_on_c, 8, 59, 0
10, 486627, Control_c, 8, 11, 95
10, 486717, Note_on_c, 8, 67, 100
10, 486747, Note_on_c, 8, 62, 0
10, 486817, Control_c, 8, 11, 96
10, 486957, Note_on_c, 8, 62, 102
10, 486987, Note_on_c, 8, 67, 0
10, 486997, Control_c, 8, 11, 97
10, 487187, Control_c, 8, 11, 98
10, 487197, Note_on_c, 8, 59, 104
10, 487227, Note_on_c, 8, 62, 0
10, 487377, Control_c, 8, 11, 99
10, 487437, Note_on_c, 8, 55, 106
10, 487467, Note_on_c, 8, 59, 0
10, 487557, Control_c, 8, 11, 100
10, 487747, Control_c, 8, 11, 101
10, 487917, Note_on_c, 8, 63, 109
10, 487927, Control_c, 8, 11, 102
10, 487947, Note_on_c, 8, 55, 0
10, 488117, Control_c, 8, 11, 103
10, 488157, Note_on_c, 8, 60, 111
10, 488187, Note_on_c, 8, 63, 0
10, 488297, Control_c, 8, 11, 104
10, 488397, Note_on_c, 8, 63, 113
10, 488427, Note_on_c, 8, 60, 0
10, 488487, Control_c, 8, 11, 105
10, 488637, Note_on_c, 8, 67, 114
10, 488667, Note_on_c, 8, 63, 0
10, 488677, Control_c, 8, 11, 106
10, 488857, Control_c, 8, 11, 107
10, 488877, Note_on_c, 8, 63, 116
10, 488907, Note_on_c, 8, 67, 0
10, 489047, Control_c, 8, 11, 108
10, 489117, Note_on_c, 8, 60, 118
10, 489147, Note_on_c, 8, 63, 0
10, 489227, Control_c, 8, 11, 109
10, 489357, Note_on_c, 8, 55, 120
10, 489387, Note_on_c, 8, 60, 0
10, 489417, Control_c, 8, 11, 110
10, 489567, Note_on_c, 8, 55, 0
10, 489597, Note_on_c, 8, 60, 127
10, 489597, Note_on_c, 8, 63, 127
10, 491427, Note_on_c, 8, 60, 0
10, 491427, Note_on_c, 8, 63, 0
10, 491517, Note_on_c, 8, 56, 120
10, 491757, Note_on_c, 8, 65, 120
10, 491787, Note_on_c, 8, 56, 0
10, 491997, Note_on_c, 8, 61, 120
10, 492027, Note_on_c, 8, 65, 0
10, 492237, Note_on_c, 8, 65, 120
10, 492267, Note_on_c, 8, 61, 0
10, 492477, Note_on_c, 8, 68, 120
10, 492507, Note_on_c, 8, 65, 0
10, 492717, Note_on_c, 8, 65, 120
10, 492747, Note_on_c, 8, 68, 0
10, 492957, Note_on_c, 8, 61, 120
10, 492987, Note_on_c, 8, 65, 0
10, 493197, Note_on_c, 8, 56, 120
10, 493227, Note_on_c, 8, 61, 0
10, 493407, Note_on_c, 8, 56, 0
10, 493437, Note_on_c, 8, 62, 127
10, 493437, Note_on_c, 8, 65, 127
10, 495267, Note_on_c, 8, 62, 0
10, 495267, Note_on_c, 8, 65, 0
10, 495357, Note_on_c, 8, 58, 127
10, 495597, Note_on_c, 8, 67, 127
10, 495627, Note_on_c, 8, 58, 0
10, 495837, Note_on_c, 8, 63, 127
10, 495867, Note_on_c, 8, 67, 0
10, 496077, Note_on_c, 8, 67, 127
10, 496107, Note_on_c, 8, 63, 0
10, 496317, Note_on_c, 8, 70, 127
10, 496347, Note_on_c, 8, 67, 0
10, 496557, Note_on_c, 8, 67, 127
10, 496587, Note_on_c, 8, 70, 0
10, 496797, Note_on_c, 8, 63, 127
10, 496827, Note_on_c, 8, 67, 0
10, 497037, Note_on_c, 8, 58, 127
10, 497067, Note_on_c, 8, 63, 0
10, 497247, Note_on_c, 8, 58, 0
10, 497277, Note_on_c, 8, 60, 127
10, 497277, Note_on_c, 8, 67, 127
10, 499107, Note_on_c, 8, 60, 0
10, 499107, Note_on_c, 8, 67, 0
10, 499197, Note_on_c, 8, 65, 80
10, 499317, Note_on_c, 8, 65, 0
10, 499437, Note_on_c, 8, 77, 81
10, 499557, Note_on_c, 8, 77, 0
10, 499677, Note_on_c, 8, 77, 82
10, 500307, Note_on_c, 8, 77, 0
10, 500397, Note_on_c, 8, 75, 86
10, 500517, Note_on_c, 8, 75, 0
10, 500637, Note_on_c, 8, 75, 87
10, 501267, Note_on_c, 8, 75, 0
10, 501357, Note_on_c, 8, 80, 91
10, 501477, Note_on_c, 8, 80, 0
10, 501597, Note_on_c, 8, 80, 92
10, 502227, Note_on_c, 8, 80, 0
10, 502317, Note_on_c, 8, 79, 96
10, 502437, Note_on_c, 8, 79, 0
10, 502557, Note_on_c, 8, 79, 97
10, 503187, Note_on_c, 8, 79, 0
10, 503277, Note_on_c, 8, 77, 101
10, 503397, Note_on_c, 8, 77, 0
10, 503517, Note_on_c, 8, 77, 102
10, 504147, Note_on_c, 8, 77, 0
10, 504237, Note_on_c, 8, 75, 106
10, 504357, Note_on_c, 8, 75, 0
10, 504477, Note_on_c, 8, 75, 107
10, 505107, Note_on_c, 8, 75, 0
10, 505197, Note_on_c, 8, 80, 111
10, 505317, Note_on_c, 8, 80, 0
10, 505437, Note_on_c, 8, 80, 112
10, 506067, Note_on_c, 8, 80, 0
10, 506157, Note_on_c, 8, 79, 116
10, 506277, Note_on_c, 8, 79, 0
10, 506397, Note_on_c, 8, 79, 117
10, 506847, Note_on_c, 8, 79, 0
10, 507597, Note_on_c, 8, 74, 127
10, 507717, Note_on_c, 8, 74, 0
10, 507837, Note_on_c, 8, 75, 127
10, 507837, Control_c, 8, 11, 127
10, 508317, Control_c, 8, 11, 110
10, 508557, Note_on_c, 8, 74, 127
10, 508587, Note_on_c, 8, 75, 0
10, 508677, Note_on_c, 8, 74, 0
10, 509517, Note_on_c, 8, 74, 127
10, 509637, Note_on_c, 8, 74, 0
10, 509757, Note_on_c, 8, 75, 127
10, 509757, Control_c, 8, 11, 127
10, 510237, Control_c, 8, 11, 110
10, 510477, Note_on_c, 8, 74, 127
10, 510507, Note_on_c, 8, 75, 0
10, 510597, Note_on_c, 8, 74, 0
10, 511437, Note_on_c, 8, 76, 127
10, 511557, Note_on_c, 8, 76, 0
10, 511677, Note_on_c, 8, 77, 127
10, 511677, Control_c, 8, 11, 127
10, 512157, Control_c, 8, 11, 110
10, 512397, Note_on_c, 8, 76, 127
10, 512427, Note_on_c, 8, 77, 0
10, 512517, Note_on_c, 8, 76, 0
10, 513357, Note_on_c, 8, 76, 127
10, 513477, Note_on_c, 8, 76, 0
10, 513597, Note_on_c, 8, 77, 127
10, 513597, Control_c, 8, 11, 127
10, 514077, Control_c, 8, 11, 110
10, 514317, Note_on_c, 8, 76, 127
10, 514347, Note_on_c, 8, 77, 0
10, 514437, Note_on_c, 8, 76, 0
10, 515277, Note_on_c, 8, 76, 127
10, 515397, Note_on_c, 8, 76, 0
10, 515517, Note_on_c, 8, 79, 127
10, 515517, Control_c, 8, 11, 127
10, 515997, Control_c, 8, 11, 110
10, 516237, Note_on_c, 8, 77, 127
10, 516267, Note_on_c, 8, 79, 0
10, 516357, Note_on_c, 8, 77, 0
10, 517197, Note_on_c, 8, 77, 127
10, 517317, Note_on_c, 8, 77, 0
10, 517437, Note_on_c, 8, 80, 127
10, 517437, Control_c, 8, 11, 127
10, 517917, Control_c, 8, 11, 110
10, 518157, Note_on_c, 8, 79, 127
10, 518187, Note_on_c, 8, 80, 0
10, 518277, Note_on_c, 8, 79, 0
10, 518397, Note_on_c, 8, 79, 127
10, 525987, Note_on_c, 8, 79, 0
10, 526077, Note_on_c, 8, 79, 127
10, 526407, Note_on_c, 8, 79, 0
10, 526797, Note_on_c, 8, 74, 127
10, 526947, Note_on_c, 8, 74, 0
10, 527037, Note_on_c, 8, 75, 127
10, 527367, Note_on_c, 8, 75, 0
10, 527757, Note_on_c, 8, 62, 127
10, 527907, Note_on_c, 8, 62, 0
10, 527997, Note_on_c, 8, 63, 127
10, 528327, Note_on_c, 8, 63, 0
10, 541434, Control_c, 8, 11, 127
10, 541437, Note_on_c, 8, 71, 127
10, 541437, Note_on_c, 8, 80, 127
10, 541647, Note_on_c, 8, 71, 0
10, 541647, Note_on_c, 8, 80, 0
10, 542877, Control_c, 8, 11, 110
10, 549114, Control_c, 8, 11, 127
10, 549117, Note_on_c, 8, 72, 127
10, 549117, Note_on_c, 8, 81, 127
10, 549327, Note_on_c, 8, 72, 0
10, 549327, Note_on_c, 8, 81, 0
10, 549597, Note_on_c, 8, 71, 127
10, 549597, Note_on_c, 8, 80, 127
10, 549837, Note_on_c, 8, 71, 0
10, 549837, Note_on_c, 8, 80, 0
10, 550557, Control_c, 8, 11, 110
10, 552957, Note_on_c, 8, 72, 127
10, 552957, Note_on_c, 8, 79, 127
10, 553167, Note_on_c, 8, 72, 0
10, 553167, Note_on_c, 8, 79, 0
10, 553437, Note_on_c, 8, 67, 127
10, 553437, Note_on_c, 8, 72, 127
10, 553647, Note_on_c, 8, 67, 0
10, 553647, Note_on_c, 8, 72, 0
10, 554877, Note_on_c, 8, 68, 127
10, 555087, Note_on_c, 8, 68, 0
10, 555357, Note_on_c, 8, 60, 127
10, 555357, Note_on_c, 8, 64, 127
10, 555567, Note_on_c, 8, 60, 0
10, 555567, Note_on_c, 8, 64, 0
10, 556797, Note_on_c, 8, 60, 90
10, 556797, Note_on_c, 8, 65, 90
10, 557157, Note_on_c, 8, 60, 0
10, 557157, Note_on_c, 8, 65, 0
10, 557757, Note_on_c, 8, 67, 83
10, 558117, Note_on_c, 8, 67, 0
10, 560637, Note_on_c, 8, 67, 60
10, 561057, Note_on_c, 8, 67, 0
10, 562557, Control_c, 8, 11, 80
10, 564477, Note_on_c, 8, 59, 60
10, 564927, Note_on_c, 8, 59, 0
10, 568317, Note_on_c, 8, 60, 60
10, 568767, Note_on_c, 8, 60, 0
10, 568767, End_track
11, 0, Start_track
11, 0, Channel_prefix, 10
11, 0, Title_t, "Viola   "
11, 0, Instrument_name_t, "Viola   "
11, 1920, Note_on_c, 10, 48, 127
11, 1920, Control_c, 10, 11, 80
11, 1940, Control_c, 10, 11, 79
11, 1960, Control_c, 10, 11, 78
11, 1970, Control_c, 10, 11, 77
11, 1990, Control_c, 10, 11, 76
11, 2000, Control_c, 10, 11, 75
11, 2020, Control_c, 10, 11, 74
11, 2040, Control_c, 10, 11, 73
11, 2050, Control_c, 10, 11, 72
11, 2070, Control_c, 10, 11, 71
11, 2080, Control_c, 10, 11, 70
11, 2100, Control_c, 10, 11, 69
11, 2120, Control_c, 10, 11, 68
11, 2130, Control_c, 10, 11, 67
11, 2150, Control_c, 10, 11, 66
11, 2160, Control_c, 10, 11, 65
11, 2180, Control_c, 10, 11, 64
11, 2200, Control_c, 10, 11, 63
11, 2210, Control_c, 10, 11, 62
11, 2230, Control_c, 10, 11, 61
11, 2240, Control_c, 10, 11, 60
11, 2260, Control_c, 10, 11, 59
11, 2280, Control_c, 10, 11, 58
11, 2290, Control_c, 10, 11, 57
11, 2310, Control_c, 10, 11, 56
11, 2320, Control_c, 10, 11, 55
11, 2340, Control_c, 10, 11, 54
11, 2360, Control_c, 10, 11, 53
11, 2370, Control_c, 10, 11, 52
11, 2390, Control_c, 10, 11, 51
11, 2410, Control_c, 10, 11, 50
11, 2470, Control_c, 10, 11, 51
11, 2520, Control_c, 10, 11, 52
11, 2570, Control_c, 10, 11, 53
11, 2620, Control_c, 10, 11, 54
11, 2670, Control_c, 10, 11, 55
11, 2720, Control_c, 10, 11, 56
11, 2770, Control_c, 10, 11, 57
11, 2820, Control_c, 10, 11, 58
11, 2870, Control_c, 10, 11, 59
11, 2920, Control_c, 10, 11, 60
11, 2970, Control_c, 10, 11, 61
11, 3020, Control_c, 10, 11, 62
11, 3070, Control_c, 10, 11, 63
11, 3120, Control_c, 10, 11, 64
11, 3170, Control_c, 10, 11, 65
11, 3220, Control_c, 10, 11, 66
11, 3270, Control_c, 10, 11, 67
11, 3320, Control_c, 10, 11, 68
11, 3370, Control_c, 10, 11, 69
11, 3420, Control_c, 10, 11, 70
11, 3480, Control_c, 10, 11, 71
11, 3530, Control_c, 10, 11, 72
11, 3580, Control_c, 10, 11, 73
11, 3630, Control_c, 10, 11, 74
11, 3680, Control_c, 10, 11, 75
11, 3730, Control_c, 10, 11, 76
11, 3780, Control_c, 10, 11, 77
11, 3830, Control_c, 10, 11, 78
11, 3880, Control_c, 10, 11, 79
11, 3930, Control_c, 10, 11, 80
11, 3980, Control_c, 10, 11, 81
11, 4030, Control_c, 10, 11, 82
11, 4080, Control_c, 10, 11, 83
11, 4130, Control_c, 10, 11, 84
11, 4180, Control_c, 10, 11, 85
11, 4230, Control_c, 10, 11, 86
11, 4280, Control_c, 10, 11, 87
11, 4330, Control_c, 10, 11, 88
11, 4380, Control_c, 10, 11, 89
11, 4430, Control_c, 10, 11, 90
11, 4490, Control_c, 10, 11, 91
11, 4540, Control_c, 10, 11, 92
11, 4590, Control_c, 10, 11, 93
11, 4640, Control_c, 10, 11, 94
11, 4690, Control_c, 10, 11, 95
11, 4740, Control_c, 10, 11, 96
11, 4790, Control_c, 10, 11, 97
11, 4840, Control_c, 10, 11, 98
11, 4890, Control_c, 10, 11, 99
11, 4940, Control_c, 10, 11, 100
11, 4990, Control_c, 10, 11, 101
11, 5040, Control_c, 10, 11, 102
11, 5090, Control_c, 10, 11, 103
11, 5140, Control_c, 10, 11, 104
11, 5190, Control_c, 10, 11, 105
11, 5240, Control_c, 10, 11, 106
11, 5290, Control_c, 10, 11, 107
11, 5340, Control_c, 10, 11, 108
11, 5390, Control_c, 10, 11, 109
11, 5440, Control_c, 10, 11, 110
11, 5490, Note_on_c, 10, 48, 0
11, 5760, Note_on_c, 10, 53, 127
11, 5910, Note_on_c, 10, 53, 0
11, 9594, Control_c, 10, 11, 80
11, 9600, Note_on_c, 10, 48, 127
11, 9620, Control_c, 10, 11, 79
11, 9640, Control_c, 10, 11, 78
11, 9650, Control_c, 10, 11, 77
11, 9670, Control_c, 10, 11, 76
11, 9680, Control_c, 10, 11, 75
11, 9700, Control_c, 10, 11, 74
11, 9720, Control_c, 10, 11, 73
11, 9730, Control_c, 10, 11, 72
11, 9750, Control_c, 10, 11, 71
11, 9760, Control_c, 10, 11, 70
11, 9780, Control_c, 10, 11, 69
11, 9800, Control_c, 10, 11, 68
11, 9810, Control_c, 10, 11, 67
11, 9830, Control_c, 10, 11, 66
11, 9840, Control_c, 10, 11, 65
11, 9860, Control_c, 10, 11, 64
11, 9880, Control_c, 10, 11, 63
11, 9890, Control_c, 10, 11, 62
11, 9910, Control_c, 10, 11, 61
11, 9920, Control_c, 10, 11, 60
11, 9940, Control_c, 10, 11, 59
11, 9960, Control_c, 10, 11, 58
11, 9970, Control_c, 10, 11, 57
11, 9990, Control_c, 10, 11, 56
11, 10000, Control_c, 10, 11, 55
11, 10020, Control_c, 10, 11, 54
11, 10040, Control_c, 10, 11, 53
11, 10050, Control_c, 10, 11, 52
11, 10070, Control_c, 10, 11, 51
11, 10090, Control_c, 10, 11, 50
11, 10150, Control_c, 10, 11, 51
11, 10200, Control_c, 10, 11, 52
11, 10250, Control_c, 10, 11, 53
11, 10300, Control_c, 10, 11, 54
11, 10350, Control_c, 10, 11, 55
11, 10400, Control_c, 10, 11, 56
11, 10450, Control_c, 10, 11, 57
11, 10500, Control_c, 10, 11, 58
11, 10550, Control_c, 10, 11, 59
11, 10600, Control_c, 10, 11, 60
11, 10650, Control_c, 10, 11, 61
11, 10700, Control_c, 10, 11, 62
11, 10750, Control_c, 10, 11, 63
11, 10800, Control_c, 10, 11, 64
11, 10850, Control_c, 10, 11, 65
11, 10900, Control_c, 10, 11, 66
11, 10950, Control_c, 10, 11, 67
11, 11000, Control_c, 10, 11, 68
11, 11050, Control_c, 10, 11, 69
11, 11100, Control_c, 10, 11, 70
11, 11160, Control_c, 10, 11, 71
11, 11210, Control_c, 10, 11, 72
11, 11260, Control_c, 10, 11, 73
11, 11310, Control_c, 10, 11, 74
11, 11360, Control_c, 10, 11, 75
11, 11410, Control_c, 10, 11, 76
11, 11460, Control_c, 10, 11, 77
11, 11510, Control_c, 10, 11, 78
11, 11560, Control_c, 10, 11, 79
11, 11610, Control_c, 10, 11, 80
11, 11660, Control_c, 10, 11, 81
11, 11710, Control_c, 10, 11, 82
11, 11760, Control_c, 10, 11, 83
11, 11810, Control_c, 10, 11, 84
11, 11860, Control_c, 10, 11, 85
11, 11910, Control_c, 10, 11, 86
11, 11960, Control_c, 10, 11, 87
11, 12010, Control_c, 10, 11, 88
11, 12060, Control_c, 10, 11, 89
11, 12110, Control_c, 10, 11, 90
11, 12170, Control_c, 10, 11, 91
11, 12220, Control_c, 10, 11, 92
11, 12270, Control_c, 10, 11, 93
11, 12320, Control_c, 10, 11, 94
11, 12370, Control_c, 10, 11, 95
11, 12420, Control_c, 10, 11, 96
11, 12470, Control_c, 10, 11, 97
11, 12520, Control_c, 10, 11, 98
11, 12570, Control_c, 10, 11, 99
11, 12620, Control_c, 10, 11, 100
11, 12670, Control_c, 10, 11, 101
11, 12720, Control_c, 10, 11, 102
11, 12770, Control_c, 10, 11, 103
11, 12820, Control_c, 10, 11, 104
11, 12870, Control_c, 10, 11, 105
11, 12920, Control_c, 10, 11, 106
11, 12970, Control_c, 10, 11, 107
11, 13020, Control_c, 10, 11, 108
11, 13070, Control_c, 10, 11, 109
11, 13120, Control_c, 10, 11, 110
11, 13170, Note_on_c, 10, 48, 0
11, 13440, Note_on_c, 10, 53, 127
11, 13590, Note_on_c, 10, 53, 0
11, 17274, Control_c, 10, 11, 80
11, 17280, Note_on_c, 10, 48, 127
11, 17300, Control_c, 10, 11, 79
11, 17320, Control_c, 10, 11, 78
11, 17330, Control_c, 10, 11, 77
11, 17350, Control_c, 10, 11, 76
11, 17360, Control_c, 10, 11, 75
11, 17380, Control_c, 10, 11, 74
11, 17400, Control_c, 10, 11, 73
11, 17410, Control_c, 10, 11, 72
11, 17430, Control_c, 10, 11, 71
11, 17440, Control_c, 10, 11, 70
11, 17460, Control_c, 10, 11, 69
11, 17480, Control_c, 10, 11, 68
11, 17490, Control_c, 10, 11, 67
11, 17510, Control_c, 10, 11, 66
11, 17520, Control_c, 10, 11, 65
11, 17540, Control_c, 10, 11, 64
11, 17560, Control_c, 10, 11, 63
11, 17570, Control_c, 10, 11, 62
11, 17590, Control_c, 10, 11, 61
11, 17600, Control_c, 10, 11, 60
11, 17620, Control_c, 10, 11, 59
11, 17640, Control_c, 10, 11, 58
11, 17650, Control_c, 10, 11, 57
11, 17670, Control_c, 10, 11, 56
11, 17680, Control_c, 10, 11, 55
11, 17700, Control_c, 10, 11, 54
11, 17720, Control_c, 10, 11, 53
11, 17730, Control_c, 10, 11, 52
11, 17750, Control_c, 10, 11, 51
11, 17770, Control_c, 10, 11, 50
11, 17830, Control_c, 10, 11, 51
11, 17880, Control_c, 10, 11, 52
11, 17930, Control_c, 10, 11, 53
11, 17980, Control_c, 10, 11, 54
11, 18030, Control_c, 10, 11, 55
11, 18080, Control_c, 10, 11, 56
11, 18130, Control_c, 10, 11, 57
11, 18180, Control_c, 10, 11, 58
11, 18230, Control_c, 10, 11, 59
11, 18280, Control_c, 10, 11, 60
11, 18330, Control_c, 10, 11, 61
11, 18380, Control_c, 10, 11, 62
11, 18430, Control_c, 10, 11, 63
11, 18480, Control_c, 10, 11, 64
11, 18530, Control_c, 10, 11, 65
11, 18580, Control_c, 10, 11, 66
11, 18630, Control_c, 10, 11, 67
11, 18680, Control_c, 10, 11, 68
11, 18730, Control_c, 10, 11, 69
11, 18780, Control_c, 10, 11, 70
11, 18840, Control_c, 10, 11, 71
11, 18890, Control_c, 10, 11, 72
11, 18940, Control_c, 10, 11, 73
11, 18990, Control_c, 10, 11, 74
11, 19040, Control_c, 10, 11, 75
11, 19090, Control_c, 10, 11, 76
11, 19140, Control_c, 10, 11, 77
11, 19190, Control_c, 10, 11, 78
11, 19240, Control_c, 10, 11, 79
11, 19290, Control_c, 10, 11, 80
11, 19340, Control_c, 10, 11, 81
11, 19390, Control_c, 10, 11, 82
11, 19440, Control_c, 10, 11, 83
11, 19490, Control_c, 10, 11, 84
11, 19540, Control_c, 10, 11, 85
11, 19590, Control_c, 10, 11, 86
11, 19640, Control_c, 10, 11, 87
11, 19690, Control_c, 10, 11, 88
11, 19740, Control_c, 10, 11, 89
11, 19790, Control_c, 10, 11, 90
11, 19850, Control_c, 10, 11, 91
11, 19900, Control_c, 10, 11, 92
11, 19950, Control_c, 10, 11, 93
11, 20000, Control_c, 10, 11, 94
11, 20050, Control_c, 10, 11, 95
11, 20100, Control_c, 10, 11, 96
11, 20150, Control_c, 10, 11, 97
11, 20200, Control_c, 10, 11, 98
11, 20250, Control_c, 10, 11, 99
11, 20300, Control_c, 10, 11, 100
11, 20350, Control_c, 10, 11, 101
11, 20400, Control_c, 10, 11, 102
11, 20450, Control_c, 10, 11, 103
11, 20500, Control_c, 10, 11, 104
11, 20550, Control_c, 10, 11, 105
11, 20600, Control_c, 10, 11, 106
11, 20650, Control_c, 10, 11, 107
11, 20700, Control_c, 10, 11, 108
11, 20750, Control_c, 10, 11, 109
11, 20800, Control_c, 10, 11, 110
11, 20850, Note_on_c, 10, 48, 0
11, 21120, Note_on_c, 10, 54, 127
11, 21270, Note_on_c, 10, 54, 0
11, 24960, Note_on_c, 10, 67, 127
11, 25170, Note_on_c, 10, 67, 0
11, 26880, Note_on_c, 10, 67, 127
11, 27120, Note_on_c, 10, 67, 0
11, 28800, Note_on_c, 10, 48, 80
11, 28950, Note_on_c, 10, 48, 0
11, 29040, Note_on_c, 10, 51, 80
11, 29190, Note_on_c, 10, 51, 0
11, 29280, Note_on_c, 10, 51, 80
11, 29520, Note_on_c, 10, 50, 80
11, 29550, Note_on_c, 10, 51, 0
11, 29730, Note_on_c, 10, 50, 0
11, 29760, Note_on_c, 10, 50, 80
11, 29910, Note_on_c, 10, 50, 0
11, 30000, Note_on_c, 10, 55, 80
11, 30150, Note_on_c, 10, 55, 0
11, 30240, Note_on_c, 10, 55, 80
11, 30690, Note_on_c, 10, 55, 0
11, 30720, Note_on_c, 10, 48, 80
11, 30870, Note_on_c, 10, 48, 0
11, 30960, Note_on_c, 10, 51, 80
11, 31110, Note_on_c, 10, 51, 0
11, 31200, Note_on_c, 10, 51, 80
11, 31440, Note_on_c, 10, 50, 80
11, 31470, Note_on_c, 10, 51, 0
11, 31650, Note_on_c, 10, 50, 0
11, 31680, Note_on_c, 10, 50, 80
11, 31830, Note_on_c, 10, 50, 0
11, 31920, Note_on_c, 10, 55, 80
11, 32070, Note_on_c, 10, 55, 0
11, 32160, Note_on_c, 10, 55, 80
11, 32610, Note_on_c, 10, 55, 0
11, 32640, Note_on_c, 10, 48, 80
11, 32790, Note_on_c, 10, 48, 0
11, 32880, Note_on_c, 10, 51, 80
11, 33030, Note_on_c, 10, 51, 0
11, 33120, Note_on_c, 10, 51, 80
11, 33360, Note_on_c, 10, 50, 80
11, 33390, Note_on_c, 10, 51, 0
11, 33570, Note_on_c, 10, 50, 0
11, 33600, Note_on_c, 10, 50, 80
11, 33750, Note_on_c, 10, 50, 0
11, 33840, Note_on_c, 10, 56, 80
11, 33990, Note_on_c, 10, 56, 0
11, 34080, Note_on_c, 10, 56, 80
11, 34320, Note_on_c, 10, 55, 80
11, 34350, Note_on_c, 10, 56, 0
11, 34530, Note_on_c, 10, 55, 0
11, 34560, Note_on_c, 10, 55, 80
11, 34710, Note_on_c, 10, 55, 0
11, 34800, Note_on_c, 10, 60, 80
11, 34950, Note_on_c, 10, 60, 0
11, 35040, Note_on_c, 10, 60, 80
11, 35280, Note_on_c, 10, 59, 80
11, 35310, Note_on_c, 10, 60, 0
11, 35490, Note_on_c, 10, 59, 0
11, 36480, Note_on_c, 10, 63, 80
11, 36480, Control_c, 10, 11, 80
11, 36590, Control_c, 10, 11, 81
11, 36700, Control_c, 10, 11, 82
11, 36810, Control_c, 10, 11, 83
11, 36920, Control_c, 10, 11, 84
11, 37030, Control_c, 10, 11, 85
11, 37140, Control_c, 10, 11, 86
11, 37170, Note_on_c, 10, 63, 0
11, 37200, Note_on_c, 10, 63, 87
11, 37240, Control_c, 10, 11, 87
11, 37350, Control_c, 10, 11, 88
11, 37410, Note_on_c, 10, 63, 0
11, 37440, Note_on_c, 10, 62, 90
11, 37460, Control_c, 10, 11, 89
11, 37570, Control_c, 10, 11, 90
11, 37680, Control_c, 10, 11, 91
11, 37790, Control_c, 10, 11, 92
11, 37890, Control_c, 10, 11, 93
11, 38000, Control_c, 10, 11, 94
11, 38110, Control_c, 10, 11, 95
11, 38130, Note_on_c, 10, 62, 0
11, 38160, Note_on_c, 10, 62, 97
11, 38220, Control_c, 10, 11, 96
11, 38330, Control_c, 10, 11, 97
11, 38370, Note_on_c, 10, 62, 0
11, 38400, Note_on_c, 10, 60, 100
11, 38440, Control_c, 10, 11, 98
11, 38540, Control_c, 10, 11, 99
11, 38650, Control_c, 10, 11, 100
11, 38760, Control_c, 10, 11, 101
11, 38870, Control_c, 10, 11, 102
11, 38980, Control_c, 10, 11, 103
11, 39090, Note_on_c, 10, 60, 0
11, 39090, Control_c, 10, 11, 104
11, 39120, Note_on_c, 10, 60, 107
11, 39190, Control_c, 10, 11, 105
11, 39300, Control_c, 10, 11, 106
11, 39330, Note_on_c, 10, 60, 0
11, 39360, Note_on_c, 10, 59, 127
11, 39410, Control_c, 10, 11, 107
11, 39520, Control_c, 10, 11, 108
11, 39630, Control_c, 10, 11, 109
11, 39690, Note_on_c, 10, 59, 0
11, 39740, Control_c, 10, 11, 110
11, 40317, Control_c, 10, 11, 80
11, 42720, Note_on_c, 10, 49, 80
11, 42960, Note_on_c, 10, 48, 80
11, 42990, Note_on_c, 10, 49, 0
11, 43170, Note_on_c, 10, 48, 0
11, 43200, Note_on_c, 10, 48, 80
11, 43350, Note_on_c, 10, 48, 0
11, 43440, Note_on_c, 10, 53, 80
11, 43590, Note_on_c, 10, 53, 0
11, 43680, Note_on_c, 10, 53, 80
11, 44130, Note_on_c, 10, 53, 0
11, 44640, Note_on_c, 10, 49, 80
11, 44880, Note_on_c, 10, 48, 80
11, 44910, Note_on_c, 10, 49, 0
11, 45090, Note_on_c, 10, 48, 0
11, 45120, Note_on_c, 10, 48, 80
11, 45270, Note_on_c, 10, 48, 0
11, 45360, Note_on_c, 10, 53, 80
11, 45510, Note_on_c, 10, 53, 0
11, 45600, Note_on_c, 10, 53, 80
11, 46050, Note_on_c, 10, 53, 0
11, 46560, Note_on_c, 10, 49, 80
11, 46800, Note_on_c, 10, 48, 80
11, 46830, Note_on_c, 10, 49, 0
11, 47010, Note_on_c, 10, 48, 0
11, 47040, Note_on_c, 10, 48, 80
11, 47190, Note_on_c, 10, 48, 0
11, 47280, Note_on_c, 10, 54, 80
11, 47430, Note_on_c, 10, 54, 0
11, 47520, Note_on_c, 10, 54, 80
11, 47760, Note_on_c, 10, 53, 80
11, 47790, Note_on_c, 10, 54, 0
11, 47970, Note_on_c, 10, 53, 0
11, 48000, Note_on_c, 10, 53, 80
11, 48150, Note_on_c, 10, 53, 0
11, 48240, Note_on_c, 10, 58, 80
11, 48390, Note_on_c, 10, 58, 0
11, 48480, Note_on_c, 10, 58, 80
11, 48720, Note_on_c, 10, 57, 80
11, 48750, Note_on_c, 10, 58, 0
11, 48930, Note_on_c, 10, 57, 0
11, 49920, Note_on_c, 10, 61, 80
11, 49920, Control_c, 10, 11, 80
11, 50030, Control_c, 10, 11, 81
11, 50140, Control_c, 10, 11, 82
11, 50250, Control_c, 10, 11, 83
11, 50360, Control_c, 10, 11, 84
11, 50470, Control_c, 10, 11, 85
11, 50580, Control_c, 10, 11, 86
11, 50610, Note_on_c, 10, 61, 0
11, 50640, Note_on_c, 10, 61, 87
11, 50680, Control_c, 10, 11, 87
11, 50790, Control_c, 10, 11, 88
11, 50850, Note_on_c, 10, 61, 0
11, 50880, Note_on_c, 10, 60, 90
11, 50900, Control_c, 10, 11, 89
11, 51010, Control_c, 10, 11, 90
11, 51120, Control_c, 10, 11, 91
11, 51230, Control_c, 10, 11, 92
11, 51330, Control_c, 10, 11, 93
11, 51440, Control_c, 10, 11, 94
11, 51550, Control_c, 10, 11, 95
11, 51570, Note_on_c, 10, 60, 0
11, 51600, Note_on_c, 10, 60, 97
11, 51660, Control_c, 10, 11, 96
11, 51770, Control_c, 10, 11, 97
11, 51810, Note_on_c, 10, 60, 0
11, 51840, Note_on_c, 10, 58, 100
11, 51880, Control_c, 10, 11, 98
11, 51980, Control_c, 10, 11, 99
11, 52090, Control_c, 10, 11, 100
11, 52200, Control_c, 10, 11, 101
11, 52230, Note_on_c, 10, 58, 0
11, 52310, Control_c, 10, 11, 102
11, 52320, Note_on_c, 10, 58, 127
11, 52420, Control_c, 10, 11, 103
11, 52530, Control_c, 10, 11, 104
11, 52630, Control_c, 10, 11, 105
11, 52650, Note_on_c, 10, 58, 0
11, 52740, Control_c, 10, 11, 106
11, 52850, Control_c, 10, 11, 107
11, 52960, Control_c, 10, 11, 108
11, 53070, Control_c, 10, 11, 109
11, 53180, Control_c, 10, 11, 110
11, 53757, Control_c, 10, 11, 80
11, 55920, Note_on_c, 10, 48, 90
11, 55920, Note_on_c, 10, 60, 90
11, 56010, Note_on_c, 10, 48, 0
11, 56010, Note_on_c, 10, 60, 0
11, 56160, Note_on_c, 10, 48, 90
11, 56160, Note_on_c, 10, 60, 90
11, 56790, Note_on_c, 10, 48, 0
11, 56790, Note_on_c, 10, 60, 0
11, 56880, Note_on_c, 10, 48, 90
11, 56880, Note_on_c, 10, 60, 90
11, 56970, Note_on_c, 10, 48, 0
11, 56970, Note_on_c, 10, 60, 0
11, 57120, Note_on_c, 10, 48, 90
11, 57120, Note_on_c, 10, 60, 90
11, 57600, Control_c, 10, 11, 80
11, 57750, Note_on_c, 10, 48, 0
11, 57750, Note_on_c, 10, 60, 0
11, 57840, Note_on_c, 10, 48, 90
11, 57840, Note_on_c, 10, 60, 90
11, 57930, Note_on_c, 10, 48, 0
11, 57930, Note_on_c, 10, 60, 0
11, 57970, Control_c, 10, 11, 81
11, 58080, Note_on_c, 10, 48, 91
11, 58080, Note_on_c, 10, 60, 91
11, 58340, Control_c, 10, 11, 83
11, 58700, Control_c, 10, 11, 84
11, 59070, Control_c, 10, 11, 86
11, 59430, Control_c, 10, 11, 87
11, 59610, Note_on_c, 10, 48, 0
11, 59610, Note_on_c, 10, 60, 0
11, 59760, Note_on_c, 10, 48, 98
11, 59760, Note_on_c, 10, 60, 98
11, 59800, Control_c, 10, 11, 89
11, 59850, Note_on_c, 10, 48, 0
11, 59850, Note_on_c, 10, 60, 0
11, 60000, Note_on_c, 10, 48, 99
11, 60000, Note_on_c, 10, 60, 99
11, 60160, Control_c, 10, 11, 90
11, 60530, Control_c, 10, 11, 92
11, 60900, Control_c, 10, 11, 93
11, 61260, Control_c, 10, 11, 95
11, 61530, Note_on_c, 10, 48, 0
11, 61530, Note_on_c, 10, 60, 0
11, 61630, Control_c, 10, 11, 97
11, 61680, Note_on_c, 10, 48, 114
11, 61680, Note_on_c, 10, 60, 114
11, 61770, Note_on_c, 10, 48, 0
11, 61770, Note_on_c, 10, 60, 0
11, 61920, Note_on_c, 10, 48, 115
11, 61920, Note_on_c, 10, 60, 115
11, 61990, Control_c, 10, 11, 98
11, 62360, Control_c, 10, 11, 100
11, 62550, Note_on_c, 10, 48, 0
11, 62550, Note_on_c, 10, 60, 0
11, 62640, Note_on_c, 10, 48, 118
11, 62640, Note_on_c, 10, 60, 118
11, 62720, Control_c, 10, 11, 101
11, 62730, Note_on_c, 10, 48, 0
11, 62730, Note_on_c, 10, 60, 0
11, 62880, Note_on_c, 10, 48, 119
11, 62880, Note_on_c, 10, 60, 119
11, 63090, Control_c, 10, 11, 103
11, 63460, Control_c, 10, 11, 104
11, 63510, Note_on_c, 10, 48, 0
11, 63510, Note_on_c, 10, 60, 0
11, 63600, Note_on_c, 10, 48, 122
11, 63600, Note_on_c, 10, 60, 122
11, 63690, Note_on_c, 10, 48, 0
11, 63690, Note_on_c, 10, 60, 0
11, 63820, Control_c, 10, 11, 106
11, 63840, Note_on_c, 10, 48, 123
11, 63840, Note_on_c, 10, 60, 123
11, 64190, Control_c, 10, 11, 107
11, 64470, Note_on_c, 10, 48, 0
11, 64470, Note_on_c, 10, 60, 0
11, 64550, Control_c, 10, 11, 109
11, 64560, Note_on_c, 10, 48, 126
11, 64560, Note_on_c, 10, 60, 126
11, 64650, Note_on_c, 10, 48, 0
11, 64650, Note_on_c, 10, 60, 0
11, 64800, Note_on_c, 10, 48, 127
11, 64800, Note_on_c, 10, 60, 127
11, 64920, Control_c, 10, 11, 110
11, 65190, Note_on_c, 10, 48, 0
11, 65190, Note_on_c, 10, 60, 0
11, 65280, Note_on_c, 10, 56, 127
11, 65280, Note_on_c, 10, 60, 127
11, 67530, Note_on_c, 10, 56, 0
11, 67530, Note_on_c, 10, 60, 0
11, 67680, Note_on_c, 10, 55, 127
11, 67680, Note_on_c, 10, 58, 127
11, 68010, Note_on_c, 10, 55, 0
11, 68010, Note_on_c, 10, 58, 0
11, 68160, Note_on_c, 10, 53, 127
11, 68160, Note_on_c, 10, 56, 127
11, 68490, Note_on_c, 10, 53, 0
11, 68490, Note_on_c, 10, 56, 0
11, 68640, Note_on_c, 10, 51, 127
11, 68640, Note_on_c, 10, 55, 127
11, 68970, Note_on_c, 10, 51, 0
11, 68970, Note_on_c, 10, 55, 0
11, 69120, Note_on_c, 10, 53, 127
11, 69120, Note_on_c, 10, 55, 127
11, 69930, Note_on_c, 10, 53, 0
11, 69930, Note_on_c, 10, 55, 0
11, 70080, Note_on_c, 10, 51, 127
11, 70080, Note_on_c, 10, 55, 127
11, 70890, Note_on_c, 10, 51, 0
11, 70890, Note_on_c, 10, 55, 0
11, 71040, Note_on_c, 10, 53, 127
11, 71040, Note_on_c, 10, 55, 127
11, 71850, Note_on_c, 10, 53, 0
11, 71850, Note_on_c, 10, 55, 0
11, 72000, Note_on_c, 10, 51, 127
11, 72000, Note_on_c, 10, 55, 127
11, 72810, Note_on_c, 10, 51, 0
11, 72810, Note_on_c, 10, 55, 0
11, 72960, Note_on_c, 10, 55, 127
11, 72960, Note_on_c, 10, 60, 127
11, 73770, Note_on_c, 10, 55, 0
11, 73770, Note_on_c, 10, 60, 0
11, 73920, Note_on_c, 10, 56, 127
11, 73920, Note_on_c, 10, 60, 127
11, 74730, Note_on_c, 10, 56, 0
11, 74730, Note_on_c, 10, 60, 0
11, 74880, Note_on_c, 10, 58, 127
11, 74880, Note_on_c, 10, 64, 127
11, 75690, Note_on_c, 10, 58, 0
11, 75690, Note_on_c, 10, 64, 0
11, 75840, Note_on_c, 10, 65, 127
11, 76650, Note_on_c, 10, 65, 0
11, 76800, Note_on_c, 10, 48, 110
11, 76800, Note_on_c, 10, 60, 110
11, 77730, Note_on_c, 10, 48, 0
11, 77730, Note_on_c, 10, 60, 0
11, 77760, Note_on_c, 10, 48, 110
11, 77910, Note_on_c, 10, 48, 0
11, 78000, Note_on_c, 10, 51, 110
11, 78150, Note_on_c, 10, 51, 0
11, 78240, Note_on_c, 10, 51, 110
11, 78480, Note_on_c, 10, 50, 110
11, 78510, Note_on_c, 10, 51, 0
11, 78690, Note_on_c, 10, 50, 0
11, 78720, Note_on_c, 10, 48, 110
11, 78720, Note_on_c, 10, 60, 110
11, 79650, Note_on_c, 10, 48, 0
11, 79650, Note_on_c, 10, 60, 0
11, 79680, Note_on_c, 10, 48, 110
11, 79830, Note_on_c, 10, 48, 0
11, 79920, Note_on_c, 10, 51, 110
11, 80070, Note_on_c, 10, 51, 0
11, 80160, Note_on_c, 10, 51, 110
11, 80400, Note_on_c, 10, 50, 110
11, 80430, Note_on_c, 10, 51, 0
11, 80610, Note_on_c, 10, 50, 0
11, 80640, Note_on_c, 10, 59, 110
11, 81570, Note_on_c, 10, 59, 0
11, 81840, Note_on_c, 10, 50, 110
11, 81990, Note_on_c, 10, 50, 0
11, 82080, Note_on_c, 10, 50, 110
11, 82320, Note_on_c, 10, 48, 110
11, 82350, Note_on_c, 10, 50, 0
11, 82530, Note_on_c, 10, 48, 0
11, 82560, Note_on_c, 10, 59, 110
11, 83490, Note_on_c, 10, 59, 0
11, 83760, Note_on_c, 10, 50, 110
11, 83910, Note_on_c, 10, 50, 0
11, 84000, Note_on_c, 10, 50, 110
11, 84240, Note_on_c, 10, 48, 110
11, 84270, Note_on_c, 10, 50, 0
11, 84450, Note_on_c, 10, 48, 0
11, 84480, Note_on_c, 10, 58, 110
11, 85410, Note_on_c, 10, 58, 0
11, 85680, Note_on_c, 10, 49, 110
11, 85830, Note_on_c, 10, 49, 0
11, 85920, Note_on_c, 10, 49, 110
11, 86160, Note_on_c, 10, 48, 110
11, 86190, Note_on_c, 10, 49, 0
11, 86370, Note_on_c, 10, 48, 0
11, 86400, Note_on_c, 10, 57, 110
11, 87330, Note_on_c, 10, 57, 0
11, 99840, Note_on_c, 10, 51, 80
11, 100320, Note_on_c, 10, 51, 0
11, 101520, Note_on_c, 10, 51, 80
11, 101760, Note_on_c, 10, 56, 80
11, 101790, Note_on_c, 10, 51, 0
11, 102240, Note_on_c, 10, 56, 0
11, 103440, Note_on_c, 10, 56, 80
11, 103680, Note_on_c, 10, 55, 80
11, 103710, Note_on_c, 10, 56, 0
11, 104160, Note_on_c, 10, 55, 0
11, 105360, Note_on_c, 10, 55, 80
11, 105600, Note_on_c, 10, 50, 80
11, 105630, Note_on_c, 10, 55, 0
11, 106080, Note_on_c, 10, 50, 0
11, 107280, Note_on_c, 10, 50, 80
11, 107520, Note_on_c, 10, 51, 80
11, 107520, Control_c, 10, 11, 80
11, 107550, Note_on_c, 10, 50, 0
11, 108000, Note_on_c, 10, 51, 0
11, 108040, Control_c, 10, 11, 81
11, 108550, Control_c, 10, 11, 82
11, 109060, Control_c, 10, 11, 83
11, 109200, Note_on_c, 10, 51, 80
11, 109440, Note_on_c, 10, 56, 80
11, 109470, Note_on_c, 10, 51, 0
11, 109570, Control_c, 10, 11, 84
11, 109920, Note_on_c, 10, 56, 0
11, 110080, Control_c, 10, 11, 85
11, 110600, Control_c, 10, 11, 86
11, 111110, Control_c, 10, 11, 87
11, 111120, Note_on_c, 10, 56, 80
11, 111360, Note_on_c, 10, 55, 80
11, 111390, Note_on_c, 10, 56, 0
11, 111620, Control_c, 10, 11, 88
11, 111840, Note_on_c, 10, 55, 0
11, 112130, Control_c, 10, 11, 89
11, 112640, Control_c, 10, 11, 90
11, 113040, Note_on_c, 10, 55, 80
11, 113160, Control_c, 10, 11, 91
11, 113280, Note_on_c, 10, 50, 80
11, 113310, Note_on_c, 10, 55, 0
11, 113670, Control_c, 10, 11, 92
11, 113760, Note_on_c, 10, 50, 0
11, 114180, Control_c, 10, 11, 93
11, 114690, Control_c, 10, 11, 94
11, 114960, Note_on_c, 10, 50, 80
11, 115200, Note_on_c, 10, 51, 80
11, 115200, Control_c, 10, 11, 95
11, 115230, Note_on_c, 10, 50, 0
11, 115320, Control_c, 10, 11, 96
11, 115440, Control_c, 10, 11, 97
11, 115560, Control_c, 10, 11, 98
11, 115680, Note_on_c, 10, 51, 0
11, 115680, Control_c, 10, 11, 99
11, 115800, Control_c, 10, 11, 100
11, 115920, Control_c, 10, 11, 101
11, 116040, Control_c, 10, 11, 102
11, 116160, Control_c, 10, 11, 103
11, 116280, Control_c, 10, 11, 104
11, 116400, Control_c, 10, 11, 105
11, 116510, Control_c, 10, 11, 106
11, 116630, Control_c, 10, 11, 107
11, 116750, Control_c, 10, 11, 108
11, 116870, Control_c, 10, 11, 109
11, 116880, Note_on_c, 10, 51, 80
11, 116990, Control_c, 10, 11, 110
11, 117110, Control_c, 10, 11, 111
11, 117120, Note_on_c, 10, 56, 80
11, 117150, Note_on_c, 10, 51, 0
11, 117230, Control_c, 10, 11, 112
11, 117350, Control_c, 10, 11, 113
11, 117470, Control_c, 10, 11, 114
11, 117590, Control_c, 10, 11, 115
11, 117600, Note_on_c, 10, 56, 0
11, 117710, Control_c, 10, 11, 116
11, 117820, Control_c, 10, 11, 117
11, 117940, Control_c, 10, 11, 118
11, 118060, Control_c, 10, 11, 119
11, 118180, Control_c, 10, 11, 120
11, 118300, Control_c, 10, 11, 121
11, 118420, Control_c, 10, 11, 122
11, 118540, Control_c, 10, 11, 123
11, 118660, Control_c, 10, 11, 124
11, 118780, Control_c, 10, 11, 125
11, 118800, Note_on_c, 10, 56, 80
11, 118900, Control_c, 10, 11, 126
11, 119010, Note_on_c, 10, 56, 0
11, 119020, Control_c, 10, 11, 127
11, 119040, Note_on_c, 10, 55, 110
11, 119040, Note_on_c, 10, 58, 110
11, 120000, Note_on_c, 10, 53, 110
11, 120000, Note_on_c, 10, 55, 0
11, 120000, Note_on_c, 10, 56, 110
11, 120000, Note_on_c, 10, 58, 0
11, 120960, Note_on_c, 10, 52, 110
11, 120960, Note_on_c, 10, 53, 0
11, 120960, Note_on_c, 10, 55, 110
11, 120960, Note_on_c, 10, 56, 0
11, 121920, Note_on_c, 10, 48, 110
11, 121920, Note_on_c, 10, 52, 0
11, 121920, Note_on_c, 10, 52, 110
11, 121920, Note_on_c, 10, 55, 0
11, 122790, Note_on_c, 10, 48, 0
11, 122790, Note_on_c, 10, 52, 0
11, 122877, Control_c, 10, 11, 80
11, 122880, Note_on_c, 10, 53, 80
11, 123360, Note_on_c, 10, 53, 0
11, 124560, Note_on_c, 10, 53, 80
11, 124800, Note_on_c, 10, 58, 80
11, 124830, Note_on_c, 10, 53, 0
11, 125280, Note_on_c, 10, 58, 0
11, 126480, Note_on_c, 10, 58, 80
11, 126720, Note_on_c, 10, 56, 80
11, 126750, Note_on_c, 10, 58, 0
11, 127200, Note_on_c, 10, 56, 0
11, 128400, Note_on_c, 10, 56, 80
11, 128640, Note_on_c, 10, 52, 80
11, 128670, Note_on_c, 10, 56, 0
11, 129120, Note_on_c, 10, 52, 0
11, 130320, Note_on_c, 10, 52, 80
11, 130560, Note_on_c, 10, 53, 80
11, 130560, Control_c, 10, 11, 80
11, 130590, Note_on_c, 10, 52, 0
11, 130650, Control_c, 10, 11, 81
11, 130730, Control_c, 10, 11, 82
11, 130810, Control_c, 10, 11, 83
11, 130890, Control_c, 10, 11, 84
11, 130970, Control_c, 10, 11, 85
11, 131040, Note_on_c, 10, 53, 0
11, 131060, Control_c, 10, 11, 86
11, 131140, Control_c, 10, 11, 87
11, 131220, Control_c, 10, 11, 88
11, 131300, Control_c, 10, 11, 89
11, 131380, Control_c, 10, 11, 90
11, 131460, Control_c, 10, 11, 91
11, 131550, Control_c, 10, 11, 92
11, 131630, Control_c, 10, 11, 93
11, 131710, Control_c, 10, 11, 94
11, 131790, Control_c, 10, 11, 95
11, 131870, Control_c, 10, 11, 96
11, 131950, Control_c, 10, 11, 97
11, 132040, Control_c, 10, 11, 98
11, 132120, Control_c, 10, 11, 99
11, 132200, Control_c, 10, 11, 100
11, 132240, Note_on_c, 10, 53, 80
11, 132280, Control_c, 10, 11, 101
11, 132360, Control_c, 10, 11, 102
11, 132440, Control_c, 10, 11, 103
11, 132480, Note_on_c, 10, 58, 80
11, 132510, Note_on_c, 10, 53, 0
11, 132530, Control_c, 10, 11, 104
11, 132610, Control_c, 10, 11, 105
11, 132690, Control_c, 10, 11, 106
11, 132770, Control_c, 10, 11, 107
11, 132850, Control_c, 10, 11, 108
11, 132930, Control_c, 10, 11, 109
11, 132960, Note_on_c, 10, 58, 0
11, 133020, Control_c, 10, 11, 110
11, 133100, Control_c, 10, 11, 111
11, 133180, Control_c, 10, 11, 112
11, 133260, Control_c, 10, 11, 113
11, 133340, Control_c, 10, 11, 114
11, 133420, Control_c, 10, 11, 115
11, 133510, Control_c, 10, 11, 116
11, 133590, Control_c, 10, 11, 117
11, 133670, Control_c, 10, 11, 118
11, 133750, Control_c, 10, 11, 119
11, 133830, Control_c, 10, 11, 120
11, 133910, Control_c, 10, 11, 121
11, 134000, Control_c, 10, 11, 122
11, 134080, Control_c, 10, 11, 123
11, 134160, Note_on_c, 10, 58, 80
11, 134160, Control_c, 10, 11, 124
11, 134240, Control_c, 10, 11, 125
11, 134320, Control_c, 10, 11, 126
11, 134370, Note_on_c, 10, 58, 0
11, 134380, Control_c, 10, 11, 127
11, 134400, Note_on_c, 10, 56, 100
11, 134400, Note_on_c, 10, 60, 100
11, 135360, Note_on_c, 10, 55, 110
11, 135360, Note_on_c, 10, 56, 0
11, 135360, Note_on_c, 10, 58, 110
11, 135360, Note_on_c, 10, 60, 0
11, 136320, Note_on_c, 10, 54, 110
11, 136320, Note_on_c, 10, 55, 0
11, 136320, Note_on_c, 10, 57, 110
11, 136320, Note_on_c, 10, 58, 0
11, 137280, Note_on_c, 10, 50, 110
11, 137280, Note_on_c, 10, 54, 0
11, 137280, Note_on_c, 10, 54, 110
11, 137280, Note_on_c, 10, 57, 0
11, 138150, Note_on_c, 10, 50, 0
11, 138150, Note_on_c, 10, 54, 0
11, 138240, Note_on_c, 10, 55, 80
11, 138240, Control_c, 10, 11, 80
11, 138330, Control_c, 10, 11, 81
11, 138410, Control_c, 10, 11, 82
11, 138490, Control_c, 10, 11, 83
11, 138570, Control_c, 10, 11, 84
11, 138650, Control_c, 10, 11, 85
11, 138720, Note_on_c, 10, 55, 0
11, 138740, Control_c, 10, 11, 86
11, 138820, Control_c, 10, 11, 87
11, 138900, Control_c, 10, 11, 88
11, 138980, Control_c, 10, 11, 89
11, 139060, Control_c, 10, 11, 90
11, 139140, Control_c, 10, 11, 91
11, 139230, Control_c, 10, 11, 92
11, 139310, Control_c, 10, 11, 93
11, 139390, Control_c, 10, 11, 94
11, 139470, Control_c, 10, 11, 95
11, 139550, Control_c, 10, 11, 96
11, 139630, Control_c, 10, 11, 97
11, 139720, Control_c, 10, 11, 98
11, 139800, Control_c, 10, 11, 99
11, 139880, Control_c, 10, 11, 100
11, 139920, Note_on_c, 10, 55, 80
11, 139960, Control_c, 10, 11, 101
11, 140040, Control_c, 10, 11, 102
11, 140120, Control_c, 10, 11, 103
11, 140160, Note_on_c, 10, 48, 80
11, 140190, Note_on_c, 10, 55, 0
11, 140210, Control_c, 10, 11, 104
11, 140290, Control_c, 10, 11, 105
11, 140370, Control_c, 10, 11, 106
11, 140450, Control_c, 10, 11, 107
11, 140530, Control_c, 10, 11, 108
11, 140610, Control_c, 10, 11, 109
11, 140640, Note_on_c, 10, 48, 0
11, 140700, Control_c, 10, 11, 110
11, 140780, Control_c, 10, 11, 111
11, 140860, Control_c, 10, 11, 112
11, 140940, Control_c, 10, 11, 113
11, 141020, Control_c, 10, 11, 114
11, 141100, Control_c, 10, 11, 115
11, 141190, Control_c, 10, 11, 116
11, 141270, Control_c, 10, 11, 117
11, 141350, Control_c, 10, 11, 118
11, 141430, Control_c, 10, 11, 119
11, 141510, Control_c, 10, 11, 120
11, 141590, Control_c, 10, 11, 121
11, 141680, Control_c, 10, 11, 122
11, 141760, Control_c, 10, 11, 123
11, 141840, Note_on_c, 10, 48, 80
11, 141840, Control_c, 10, 11, 124
11, 141920, Control_c, 10, 11, 125
11, 142000, Control_c, 10, 11, 126
11, 142050, Note_on_c, 10, 48, 0
11, 142080, Note_on_c, 10, 53, 115
11, 142080, Control_c, 10, 11, 127
11, 142120, Control_c, 10, 11, 126
11, 142160, Control_c, 10, 11, 125
11, 142200, Control_c, 10, 11, 124
11, 142240, Control_c, 10, 11, 123
11, 142280, Control_c, 10, 11, 122
11, 142320, Note_on_c, 10, 56, 99
11, 142320, Control_c, 10, 11, 121
11, 142350, Note_on_c, 10, 53, 0
11, 142360, Control_c, 10, 11, 120
11, 142400, Control_c, 10, 11, 119
11, 142440, Control_c, 10, 11, 118
11, 142480, Control_c, 10, 11, 117
11, 142520, Control_c, 10, 11, 116
11, 142560, Note_on_c, 10, 53, 98
11, 142560, Control_c, 10, 11, 115
11, 142590, Note_on_c, 10, 56, 0
11, 142600, Control_c, 10, 11, 114
11, 142640, Control_c, 10, 11, 113
11, 142680, Control_c, 10, 11, 112
11, 142720, Control_c, 10, 11, 111
11, 142760, Control_c, 10, 11, 110
11, 142800, Note_on_c, 10, 56, 96
11, 142800, Control_c, 10, 11, 109
11, 142830, Note_on_c, 10, 53, 0
11, 142840, Control_c, 10, 11, 108
11, 142880, Control_c, 10, 11, 107
11, 142920, Control_c, 10, 11, 106
11, 142960, Control_c, 10, 11, 105
11, 143000, Control_c, 10, 11, 104
11, 143040, Note_on_c, 10, 53, 95
11, 143040, Control_c, 10, 11, 103
11, 143070, Note_on_c, 10, 56, 0
11, 143080, Control_c, 10, 11, 102
11, 143120, Control_c, 10, 11, 101
11, 143160, Control_c, 10, 11, 100
11, 143200, Control_c, 10, 11, 99
11, 143240, Control_c, 10, 11, 98
11, 143280, Note_on_c, 10, 55, 93
11, 143280, Control_c, 10, 11, 97
11, 143310, Note_on_c, 10, 53, 0
11, 143320, Control_c, 10, 11, 96
11, 143360, Control_c, 10, 11, 95
11, 143400, Control_c, 10, 11, 94
11, 143440, Control_c, 10, 11, 93
11, 143480, Control_c, 10, 11, 92
11, 143520, Note_on_c, 10, 50, 92
11, 143520, Control_c, 10, 11, 91
11, 143550, Note_on_c, 10, 55, 0
11, 143560, Control_c, 10, 11, 90
11, 143600, Control_c, 10, 11, 89
11, 143640, Control_c, 10, 11, 88
11, 143680, Control_c, 10, 11, 87
11, 143720, Control_c, 10, 11, 86
11, 143760, Note_on_c, 10, 55, 90
11, 143760, Control_c, 10, 11, 85
11, 143790, Note_on_c, 10, 50, 0
11, 143800, Control_c, 10, 11, 84
11, 143840, Control_c, 10, 11, 83
11, 143880, Control_c, 10, 11, 82
11, 143920, Control_c, 10, 11, 81
11, 143960, Control_c, 10, 11, 80
11, 143970, Note_on_c, 10, 55, 0
11, 144240, Note_on_c, 10, 60, 90
11, 144240, Note_on_c, 10, 63, 90
11, 144480, Note_on_c, 10, 55, 90
11, 144510, Note_on_c, 10, 63, 0
11, 144720, Note_on_c, 10, 63, 90
11, 144750, Note_on_c, 10, 55, 0
11, 144930, Note_on_c, 10, 60, 0
11, 144930, Note_on_c, 10, 63, 0
11, 145200, Note_on_c, 10, 58, 90
11, 145200, Note_on_c, 10, 62, 90
11, 145440, Note_on_c, 10, 55, 90
11, 145470, Note_on_c, 10, 62, 0
11, 145680, Note_on_c, 10, 62, 90
11, 145710, Note_on_c, 10, 55, 0
11, 145890, Note_on_c, 10, 58, 0
11, 145890, Note_on_c, 10, 62, 0
11, 146160, Note_on_c, 10, 55, 90
11, 146160, Note_on_c, 10, 60, 90
11, 146400, Note_on_c, 10, 51, 90
11, 146430, Note_on_c, 10, 60, 0
11, 146640, Note_on_c, 10, 60, 90
11, 146670, Note_on_c, 10, 51, 0
11, 146850, Note_on_c, 10, 55, 0
11, 146850, Note_on_c, 10, 60, 0
11, 147120, Note_on_c, 10, 55, 90
11, 147120, Note_on_c, 10, 58, 90
11, 147360, Note_on_c, 10, 50, 90
11, 147390, Note_on_c, 10, 58, 0
11, 147600, Note_on_c, 10, 58, 90
11, 147630, Note_on_c, 10, 50, 0
11, 147810, Note_on_c, 10, 55, 0
11, 147810, Note_on_c, 10, 58, 0
11, 148080, Note_on_c, 10, 55, 90
11, 148080, Note_on_c, 10, 57, 90
11, 148320, Note_on_c, 10, 51, 90
11, 148350, Note_on_c, 10, 57, 0
11, 148560, Note_on_c, 10, 57, 90
11, 148590, Note_on_c, 10, 51, 0
11, 148770, Note_on_c, 10, 55, 0
11, 148770, Note_on_c, 10, 57, 0
11, 149040, Note_on_c, 10, 55, 90
11, 149040, Note_on_c, 10, 58, 90
11, 149280, Note_on_c, 10, 52, 90
11, 149310, Note_on_c, 10, 58, 0
11, 149520, Note_on_c, 10, 58, 90
11, 149550, Note_on_c, 10, 52, 0
11, 149730, Note_on_c, 10, 55, 0
11, 149730, Note_on_c, 10, 58, 0
11, 149760, Note_on_c, 10, 50, 80
11, 149880, Note_on_c, 10, 50, 0
11, 150000, Note_on_c, 10, 62, 80
11, 150120, Note_on_c, 10, 62, 0
11, 150240, Note_on_c, 10, 63, 80
11, 150810, Note_on_c, 10, 63, 0
11, 150960, Note_on_c, 10, 63, 80
11, 151080, Note_on_c, 10, 63, 0
11, 151200, Note_on_c, 10, 62, 80
11, 151770, Note_on_c, 10, 62, 0
11, 151920, Note_on_c, 10, 62, 80
11, 152040, Note_on_c, 10, 62, 0
11, 152160, Note_on_c, 10, 63, 80
11, 152730, Note_on_c, 10, 63, 0
11, 152880, Note_on_c, 10, 63, 80
11, 153000, Note_on_c, 10, 63, 0
11, 153120, Note_on_c, 10, 62, 80
11, 153600, Control_c, 10, 11, 81
11, 153690, Note_on_c, 10, 62, 0
11, 153770, Control_c, 10, 11, 82
11, 153840, Note_on_c, 10, 62, 81
11, 153930, Control_c, 10, 11, 83
11, 153960, Note_on_c, 10, 62, 0
11, 154080, Note_on_c, 10, 63, 83
11, 154090, Control_c, 10, 11, 84
11, 154250, Control_c, 10, 11, 85
11, 154420, Control_c, 10, 11, 86
11, 154580, Control_c, 10, 11, 87
11, 154650, Note_on_c, 10, 63, 0
11, 154740, Control_c, 10, 11, 88
11, 154800, Note_on_c, 10, 63, 87
11, 154900, Control_c, 10, 11, 89
11, 154920, Note_on_c, 10, 63, 0
11, 155040, Note_on_c, 10, 62, 89
11, 155060, Control_c, 10, 11, 90
11, 155230, Control_c, 10, 11, 91
11, 155390, Control_c, 10, 11, 92
11, 155550, Control_c, 10, 11, 93
11, 155610, Note_on_c, 10, 62, 0
11, 155710, Control_c, 10, 11, 94
11, 155760, Note_on_c, 10, 62, 94
11, 155870, Control_c, 10, 11, 95
11, 155880, Note_on_c, 10, 62, 0
11, 156000, Note_on_c, 10, 63, 95
11, 156040, Control_c, 10, 11, 96
11, 156200, Control_c, 10, 11, 97
11, 156360, Control_c, 10, 11, 98
11, 156520, Control_c, 10, 11, 99
11, 156570, Note_on_c, 10, 63, 0
11, 156690, Control_c, 10, 11, 100
11, 156720, Note_on_c, 10, 63, 100
11, 156840, Note_on_c, 10, 63, 0
11, 156850, Control_c, 10, 11, 101
11, 156960, Note_on_c, 10, 62, 101
11, 157010, Control_c, 10, 11, 102
11, 157170, Control_c, 10, 11, 103
11, 157330, Control_c, 10, 11, 104
11, 157500, Control_c, 10, 11, 105
11, 157530, Note_on_c, 10, 62, 0
11, 157660, Control_c, 10, 11, 106
11, 157680, Note_on_c, 10, 62, 106
11, 157800, Note_on_c, 10, 62, 0
11, 157820, Control_c, 10, 11, 107
11, 157920, Note_on_c, 10, 63, 108
11, 157980, Control_c, 10, 11, 108
11, 158140, Control_c, 10, 11, 109
11, 158310, Control_c, 10, 11, 110
11, 158470, Control_c, 10, 11, 111
11, 158490, Note_on_c, 10, 63, 0
11, 158630, Control_c, 10, 11, 112
11, 158640, Note_on_c, 10, 63, 112
11, 158760, Note_on_c, 10, 63, 0
11, 158790, Control_c, 10, 11, 113
11, 158880, Note_on_c, 10, 62, 114
11, 158960, Control_c, 10, 11, 114
11, 159120, Control_c, 10, 11, 115
11, 159280, Control_c, 10, 11, 116
11, 159440, Control_c, 10, 11, 117
11, 159450, Note_on_c, 10, 62, 0
11, 159600, Note_on_c, 10, 62, 119
11, 159600, Control_c, 10, 11, 118
11, 159720, Note_on_c, 10, 62, 0
11, 159770, Control_c, 10, 11, 119
11, 159840, Note_on_c, 10, 63, 120
11, 159930, Control_c, 10, 11, 120
11, 160090, Control_c, 10, 11, 121
11, 160250, Control_c, 10, 11, 122
11, 160410, Note_on_c, 10, 63, 0
11, 160410, Control_c, 10, 11, 123
11, 160560, Note_on_c, 10, 63, 125
11, 160580, Control_c, 10, 11, 124
11, 160680, Note_on_c, 10, 63, 0
11, 160740, Control_c, 10, 11, 125
11, 160800, Note_on_c, 10, 62, 127
11, 160900, Control_c, 10, 11, 126
11, 161060, Control_c, 10, 11, 127
11, 161130, Note_on_c, 10, 62, 0
11, 161280, Note_on_c, 10, 66, 127
11, 162720, Note_on_c, 10, 66, 0
11, 162720, Note_on_c, 10, 67, 127
11, 163200, Note_on_c, 10, 62, 127
11, 163200, Note_on_c, 10, 67, 0
11, 164970, Note_on_c, 10, 62, 0
11, 165120, Note_on_c, 10, 66, 127
11, 166560, Note_on_c, 10, 66, 0
11, 166560, Note_on_c, 10, 67, 127
11, 167040, Note_on_c, 10, 60, 127
11, 167040, Note_on_c, 10, 67, 0
11, 167520, Note_on_c, 10, 60, 0
11, 167520, Note_on_c, 10, 62, 127
11, 168000, Note_on_c, 10, 60, 127
11, 168000, Note_on_c, 10, 62, 0
11, 168480, Note_on_c, 10, 60, 0
11, 168480, Note_on_c, 10, 62, 127
11, 168810, Note_on_c, 10, 62, 0
11, 168960, Note_on_c, 10, 59, 127
11, 170400, Note_on_c, 10, 59, 0
11, 170400, Note_on_c, 10, 60, 127
11, 170880, Note_on_c, 10, 60, 0
11, 170880, Note_on_c, 10, 65, 127
11, 171360, Note_on_c, 10, 63, 127
11, 171360, Note_on_c, 10, 65, 0
11, 171840, Note_on_c, 10, 63, 0
11, 171840, Note_on_c, 10, 65, 127
11, 172320, Note_on_c, 10, 63, 127
11, 172320, Note_on_c, 10, 65, 0
11, 172650, Note_on_c, 10, 63, 0
11, 172800, Note_on_c, 10, 59, 127
11, 174240, Note_on_c, 10, 59, 0
11, 174240, Note_on_c, 10, 60, 127
11, 174720, Note_on_c, 10, 60, 0
11, 174720, Note_on_c, 10, 62, 127
11, 175200, Note_on_c, 10, 60, 127
11, 175200, Note_on_c, 10, 62, 0
11, 175680, Note_on_c, 10, 60, 0
11, 175680, Note_on_c, 10, 62, 127
11, 176160, Note_on_c, 10, 60, 127
11, 176160, Note_on_c, 10, 62, 0
11, 176490, Note_on_c, 10, 60, 0
11, 176640, Note_on_c, 10, 48, 127
11, 177090, Note_on_c, 10, 48, 0
11, 177360, Note_on_c, 10, 60, 127
11, 177480, Note_on_c, 10, 60, 0
11, 177600, Note_on_c, 10, 60, 127
11, 178080, Note_on_c, 10, 61, 127
11, 178110, Note_on_c, 10, 60, 0
11, 178530, Note_on_c, 10, 61, 0
11, 179280, Note_on_c, 10, 60, 127
11, 179400, Note_on_c, 10, 60, 0
11, 179520, Note_on_c, 10, 60, 127
11, 180000, Note_on_c, 10, 61, 127
11, 180030, Note_on_c, 10, 60, 0
11, 180450, Note_on_c, 10, 61, 0
11, 181200, Note_on_c, 10, 60, 127
11, 181320, Note_on_c, 10, 60, 0
11, 181440, Note_on_c, 10, 60, 127
11, 181920, Note_on_c, 10, 61, 127
11, 181950, Note_on_c, 10, 60, 0
11, 182370, Note_on_c, 10, 61, 0
11, 183120, Note_on_c, 10, 60, 127
11, 183240, Note_on_c, 10, 60, 0
11, 183360, Note_on_c, 10, 60, 127
11, 183840, Note_on_c, 10, 61, 127
11, 183870, Note_on_c, 10, 60, 0
11, 184290, Note_on_c, 10, 61, 0
11, 184320, Note_on_c, 10, 60, 127
11, 184440, Note_on_c, 10, 60, 0
11, 184440, Note_on_c, 10, 63, 127
11, 185400, Note_on_c, 10, 63, 0
11, 185400, Note_on_c, 10, 66, 127
11, 186240, Note_on_c, 10, 59, 127
11, 186240, Note_on_c, 10, 66, 0
11, 186360, Note_on_c, 10, 59, 0
11, 186360, Note_on_c, 10, 62, 127
11, 187200, Note_on_c, 10, 58, 127
11, 187200, Note_on_c, 10, 62, 0
11, 187320, Note_on_c, 10, 58, 0
11, 187320, Note_on_c, 10, 64, 127
11, 188160, Note_on_c, 10, 56, 127
11, 188160, Note_on_c, 10, 64, 0
11, 188280, Note_on_c, 10, 56, 0
11, 188280, Note_on_c, 10, 60, 127
11, 189120, Note_on_c, 10, 55, 127
11, 189120, Note_on_c, 10, 60, 0
11, 189240, Note_on_c, 10, 55, 0
11, 189240, Note_on_c, 10, 60, 127
11, 190080, Note_on_c, 10, 57, 127
11, 190080, Note_on_c, 10, 60, 0
11, 190200, Note_on_c, 10, 57, 0
11, 190200, Note_on_c, 10, 60, 127
11, 191040, Note_on_c, 10, 55, 127
11, 191040, Note_on_c, 10, 60, 0
11, 191160, Note_on_c, 10, 55, 0
11, 191160, Note_on_c, 10, 60, 127
11, 191970, Note_on_c, 10, 60, 0
11, 192000, Note_on_c, 10, 60, 127
11, 192120, Note_on_c, 10, 60, 0
11, 192240, Note_on_c, 10, 50, 127
11, 192360, Note_on_c, 10, 50, 0
11, 192480, Note_on_c, 10, 50, 117
11, 193110, Note_on_c, 10, 50, 0
11, 193200, Note_on_c, 10, 51, 117
11, 193320, Note_on_c, 10, 51, 0
11, 193440, Note_on_c, 10, 51, 117
11, 194070, Note_on_c, 10, 51, 0
11, 194160, Note_on_c, 10, 48, 117
11, 194280, Note_on_c, 10, 48, 0
11, 194400, Note_on_c, 10, 48, 117
11, 195030, Note_on_c, 10, 48, 0
11, 195120, Note_on_c, 10, 50, 117
11, 195240, Note_on_c, 10, 50, 0
11, 195360, Note_on_c, 10, 50, 117
11, 195750, Note_on_c, 10, 50, 0
11, 196080, Note_on_c, 10, 58, 105
11, 196200, Note_on_c, 10, 58, 0
11, 196320, Note_on_c, 10, 61, 105
11, 196440, Note_on_c, 10, 61, 0
11, 196560, Note_on_c, 10, 62, 105
11, 196680, Note_on_c, 10, 62, 0
11, 196800, Note_on_c, 10, 63, 105
11, 196920, Note_on_c, 10, 63, 0
11, 197040, Note_on_c, 10, 62, 105
11, 197160, Note_on_c, 10, 62, 0
11, 197280, Note_on_c, 10, 58, 105
11, 197400, Note_on_c, 10, 58, 0
11, 197520, Note_on_c, 10, 55, 105
11, 197640, Note_on_c, 10, 55, 0
11, 197760, Note_on_c, 10, 54, 105
11, 197880, Note_on_c, 10, 54, 0
11, 198000, Note_on_c, 10, 57, 105
11, 198120, Note_on_c, 10, 57, 0
11, 198240, Note_on_c, 10, 61, 105
11, 198360, Note_on_c, 10, 61, 0
11, 198480, Note_on_c, 10, 62, 105
11, 198600, Note_on_c, 10, 62, 0
11, 198720, Note_on_c, 10, 63, 105
11, 198840, Note_on_c, 10, 63, 0
11, 198960, Note_on_c, 10, 62, 105
11, 199080, Note_on_c, 10, 62, 0
11, 199200, Note_on_c, 10, 57, 105
11, 199320, Note_on_c, 10, 57, 0
11, 199440, Note_on_c, 10, 54, 112
11, 199560, Note_on_c, 10, 54, 0
11, 199680, Note_on_c, 10, 55, 112
11, 199800, Note_on_c, 10, 55, 0
11, 199920, Note_on_c, 10, 58, 105
11, 200040, Note_on_c, 10, 58, 0
11, 200160, Note_on_c, 10, 61, 105
11, 200280, Note_on_c, 10, 61, 0
11, 200400, Note_on_c, 10, 62, 105
11, 200520, Note_on_c, 10, 62, 0
11, 200640, Note_on_c, 10, 63, 105
11, 200760, Note_on_c, 10, 63, 0
11, 200880, Note_on_c, 10, 62, 105
11, 201000, Note_on_c, 10, 62, 0
11, 201120, Note_on_c, 10, 58, 105
11, 201240, Note_on_c, 10, 58, 0
11, 201360, Note_on_c, 10, 55, 105
11, 201480, Note_on_c, 10, 55, 0
11, 201600, Note_on_c, 10, 54, 105
11, 201720, Note_on_c, 10, 54, 0
11, 201840, Note_on_c, 10, 57, 105
11, 201960, Note_on_c, 10, 57, 0
11, 202080, Note_on_c, 10, 61, 105
11, 202200, Note_on_c, 10, 61, 0
11, 202320, Note_on_c, 10, 62, 105
11, 202440, Note_on_c, 10, 62, 0
11, 202560, Note_on_c, 10, 63, 105
11, 202680, Note_on_c, 10, 63, 0
11, 202800, Note_on_c, 10, 62, 105
11, 202920, Note_on_c, 10, 62, 0
11, 203040, Note_on_c, 10, 57, 105
11, 203160, Note_on_c, 10, 57, 0
11, 203280, Note_on_c, 10, 54, 112
11, 203400, Note_on_c, 10, 54, 0
11, 203520, Note_on_c, 10, 55, 112
11, 203640, Note_on_c, 10, 55, 0
11, 203760, Note_on_c, 10, 58, 105
11, 203880, Note_on_c, 10, 58, 0
11, 204000, Note_on_c, 10, 61, 105
11, 204120, Note_on_c, 10, 61, 0
11, 204240, Note_on_c, 10, 62, 105
11, 204360, Note_on_c, 10, 62, 0
11, 204480, Note_on_c, 10, 53, 105
11, 204600, Note_on_c, 10, 53, 0
11, 204720, Note_on_c, 10, 57, 105
11, 204840, Note_on_c, 10, 57, 0
11, 204960, Note_on_c, 10, 61, 105
11, 205080, Note_on_c, 10, 61, 0
11, 205200, Note_on_c, 10, 62, 105
11, 205320, Note_on_c, 10, 62, 0
11, 205440, Note_on_c, 10, 51, 105
11, 205560, Note_on_c, 10, 51, 0
11, 205680, Note_on_c, 10, 55, 105
11, 205800, Note_on_c, 10, 55, 0
11, 205920, Note_on_c, 10, 59, 105
11, 206040, Note_on_c, 10, 59, 0
11, 206160, Note_on_c, 10, 60, 105
11, 206280, Note_on_c, 10, 60, 0
11, 206400, Note_on_c, 10, 50, 105
11, 206520, Note_on_c, 10, 50, 0
11, 206640, Note_on_c, 10, 53, 105
11, 206760, Note_on_c, 10, 53, 0
11, 206880, Note_on_c, 10, 57, 105
11, 207000, Note_on_c, 10, 57, 0
11, 207120, Note_on_c, 10, 58, 105
11, 207240, Note_on_c, 10, 58, 0
11, 207360, Note_on_c, 10, 48, 105
11, 207480, Note_on_c, 10, 48, 0
11, 207600, Note_on_c, 10, 51, 105
11, 207720, Note_on_c, 10, 51, 0
11, 207840, Note_on_c, 10, 55, 105
11, 207960, Note_on_c, 10, 55, 0
11, 208080, Note_on_c, 10, 57, 105
11, 208200, Note_on_c, 10, 57, 0
11, 208560, Note_on_c, 10, 50, 105
11, 208680, Note_on_c, 10, 50, 0
11, 208800, Note_on_c, 10, 54, 105
11, 208920, Note_on_c, 10, 54, 0
11, 209040, Note_on_c, 10, 55, 105
11, 209160, Note_on_c, 10, 55, 0
11, 209520, Note_on_c, 10, 48, 105
11, 209640, Note_on_c, 10, 48, 0
11, 209760, Note_on_c, 10, 51, 105
11, 209880, Note_on_c, 10, 51, 0
11, 210000, Note_on_c, 10, 55, 105
11, 210120, Note_on_c, 10, 55, 0
11, 210240, Note_on_c, 10, 50, 105
11, 210360, Note_on_c, 10, 50, 0
11, 210480, Note_on_c, 10, 54, 105
11, 210600, Note_on_c, 10, 54, 0
11, 210720, Note_on_c, 10, 57, 105
11, 210840, Note_on_c, 10, 57, 0
11, 210960, Note_on_c, 10, 62, 105
11, 211080, Note_on_c, 10, 62, 0
11, 211200, Note_on_c, 10, 55, 112
11, 211440, Note_on_c, 10, 55, 0
11, 211440, Note_on_c, 10, 58, 112
11, 211680, Note_on_c, 10, 58, 0
11, 211680, Note_on_c, 10, 62, 112
11, 211920, Note_on_c, 10, 62, 0
11, 211920, Note_on_c, 10, 63, 112
11, 212160, Note_on_c, 10, 53, 112
11, 212160, Note_on_c, 10, 63, 0
11, 212400, Note_on_c, 10, 53, 0
11, 212400, Note_on_c, 10, 57, 112
11, 212640, Note_on_c, 10, 57, 0
11, 212640, Note_on_c, 10, 61, 112
11, 212880, Note_on_c, 10, 61, 0
11, 212880, Note_on_c, 10, 62, 112
11, 213120, Note_on_c, 10, 51, 112
11, 213120, Note_on_c, 10, 62, 0
11, 213360, Note_on_c, 10, 51, 0
11, 213360, Note_on_c, 10, 55, 112
11, 213600, Note_on_c, 10, 55, 0
11, 213600, Note_on_c, 10, 59, 112
11, 213840, Note_on_c, 10, 59, 0
11, 213840, Note_on_c, 10, 60, 112
11, 214080, Note_on_c, 10, 50, 112
11, 214080, Note_on_c, 10, 60, 0
11, 214320, Note_on_c, 10, 50, 0
11, 214320, Note_on_c, 10, 53, 112
11, 214560, Note_on_c, 10, 53, 0
11, 214560, Note_on_c, 10, 57, 112
11, 214800, Note_on_c, 10, 57, 0
11, 214800, Note_on_c, 10, 58, 112
11, 215040, Note_on_c, 10, 48, 112
11, 215040, Note_on_c, 10, 58, 0
11, 215280, Note_on_c, 10, 48, 0
11, 215280, Note_on_c, 10, 51, 112
11, 215520, Note_on_c, 10, 51, 0
11, 215520, Note_on_c, 10, 55, 112
11, 215760, Note_on_c, 10, 55, 0
11, 215760, Note_on_c, 10, 57, 112
11, 216000, Note_on_c, 10, 49, 112
11, 216000, Note_on_c, 10, 57, 0
11, 216240, Note_on_c, 10, 49, 0
11, 216240, Note_on_c, 10, 52, 112
11, 216480, Note_on_c, 10, 52, 0
11, 216480, Note_on_c, 10, 55, 112
11, 216720, Note_on_c, 10, 55, 0
11, 216720, Note_on_c, 10, 58, 112
11, 216960, Note_on_c, 10, 50, 112
11, 216960, Note_on_c, 10, 58, 0
11, 217200, Note_on_c, 10, 50, 0
11, 217200, Note_on_c, 10, 55, 112
11, 217440, Note_on_c, 10, 55, 0
11, 217440, Note_on_c, 10, 58, 112
11, 217680, Note_on_c, 10, 58, 0
11, 217680, Note_on_c, 10, 62, 112
11, 217920, Note_on_c, 10, 50, 112
11, 217920, Note_on_c, 10, 62, 0
11, 218160, Note_on_c, 10, 50, 0
11, 218160, Note_on_c, 10, 54, 112
11, 218400, Note_on_c, 10, 54, 0
11, 218400, Note_on_c, 10, 57, 112
11, 218640, Note_on_c, 10, 57, 0
11, 218640, Note_on_c, 10, 62, 112
11, 218880, Note_on_c, 10, 55, 112
11, 226440, Note_on_c, 10, 55, 0
11, 226440, Note_on_c, 10, 62, 0
11, 226560, Note_on_c, 10, 55, 105
11, 226680, Note_on_c, 10, 55, 0
11, 227040, Note_on_c, 10, 61, 105
11, 227160, Note_on_c, 10, 61, 0
11, 227280, Note_on_c, 10, 62, 105
11, 227400, Note_on_c, 10, 62, 0
11, 227520, Note_on_c, 10, 63, 105
11, 227640, Note_on_c, 10, 63, 0
11, 227760, Note_on_c, 10, 62, 105
11, 227880, Note_on_c, 10, 62, 0
11, 228000, Note_on_c, 10, 58, 105
11, 228120, Note_on_c, 10, 58, 0
11, 228240, Note_on_c, 10, 55, 105
11, 228360, Note_on_c, 10, 55, 0
11, 228480, Note_on_c, 10, 54, 105
11, 228600, Note_on_c, 10, 54, 0
11, 228720, Note_on_c, 10, 57, 105
11, 228840, Note_on_c, 10, 57, 0
11, 228960, Note_on_c, 10, 61, 105
11, 229080, Note_on_c, 10, 61, 0
11, 229200, Note_on_c, 10, 62, 105
11, 229320, Note_on_c, 10, 62, 0
11, 229440, Note_on_c, 10, 63, 105
11, 229560, Note_on_c, 10, 63, 0
11, 229680, Note_on_c, 10, 62, 105
11, 229800, Note_on_c, 10, 62, 0
11, 229920, Note_on_c, 10, 57, 105
11, 230040, Note_on_c, 10, 57, 0
11, 230160, Note_on_c, 10, 54, 105
11, 230280, Note_on_c, 10, 54, 0
11, 230400, Note_on_c, 10, 55, 105
11, 230520, Note_on_c, 10, 55, 0
11, 230640, Note_on_c, 10, 58, 105
11, 230760, Note_on_c, 10, 58, 0
11, 230880, Note_on_c, 10, 60, 105
11, 231000, Note_on_c, 10, 60, 0
11, 231120, Note_on_c, 10, 61, 105
11, 231240, Note_on_c, 10, 61, 0
11, 231360, Note_on_c, 10, 60, 105
11, 231480, Note_on_c, 10, 60, 0
11, 231600, Note_on_c, 10, 61, 105
11, 231720, Note_on_c, 10, 61, 0
11, 231840, Note_on_c, 10, 58, 105
11, 231960, Note_on_c, 10, 58, 0
11, 232080, Note_on_c, 10, 55, 105
11, 232200, Note_on_c, 10, 55, 0
11, 232320, Note_on_c, 10, 53, 105
11, 232440, Note_on_c, 10, 53, 0
11, 232560, Note_on_c, 10, 56, 105
11, 232680, Note_on_c, 10, 56, 0
11, 232800, Note_on_c, 10, 60, 105
11, 232920, Note_on_c, 10, 60, 0
11, 233040, Note_on_c, 10, 61, 105
11, 233160, Note_on_c, 10, 61, 0
11, 233280, Note_on_c, 10, 60, 105
11, 233400, Note_on_c, 10, 60, 0
11, 233520, Note_on_c, 10, 61, 105
11, 233640, Note_on_c, 10, 61, 0
11, 233760, Note_on_c, 10, 56, 105
11, 233880, Note_on_c, 10, 56, 0
11, 234000, Note_on_c, 10, 53, 105
11, 234120, Note_on_c, 10, 53, 0
11, 234240, Note_on_c, 10, 52, 105
11, 234360, Note_on_c, 10, 52, 0
11, 234480, Note_on_c, 10, 55, 105
11, 234600, Note_on_c, 10, 55, 0
11, 234720, Note_on_c, 10, 59, 105
11, 234840, Note_on_c, 10, 59, 0
11, 234960, Note_on_c, 10, 60, 105
11, 235080, Note_on_c, 10, 60, 0
11, 235200, Note_on_c, 10, 59, 105
11, 235320, Note_on_c, 10, 59, 0
11, 235440, Note_on_c, 10, 60, 105
11, 235560, Note_on_c, 10, 60, 0
11, 235680, Note_on_c, 10, 55, 105
11, 235800, Note_on_c, 10, 55, 0
11, 235920, Note_on_c, 10, 52, 105
11, 236040, Note_on_c, 10, 52, 0
11, 236160, Note_on_c, 10, 53, 105
11, 236280, Note_on_c, 10, 53, 0
11, 236400, Note_on_c, 10, 56, 105
11, 236520, Note_on_c, 10, 56, 0
11, 236640, Note_on_c, 10, 59, 105
11, 236760, Note_on_c, 10, 59, 0
11, 236880, Note_on_c, 10, 60, 105
11, 237000, Note_on_c, 10, 60, 0
11, 237120, Note_on_c, 10, 59, 105
11, 237240, Note_on_c, 10, 59, 0
11, 237360, Note_on_c, 10, 60, 105
11, 237480, Note_on_c, 10, 60, 0
11, 237600, Note_on_c, 10, 56, 105
11, 237720, Note_on_c, 10, 56, 0
11, 237840, Note_on_c, 10, 53, 105
11, 237960, Note_on_c, 10, 53, 0
11, 238080, Note_on_c, 10, 52, 105
11, 238200, Note_on_c, 10, 52, 0
11, 238320, Note_on_c, 10, 55, 105
11, 238440, Note_on_c, 10, 55, 0
11, 238560, Note_on_c, 10, 59, 105
11, 238680, Note_on_c, 10, 59, 0
11, 238800, Note_on_c, 10, 60, 105
11, 238920, Note_on_c, 10, 60, 0
11, 239040, Note_on_c, 10, 59, 105
11, 239160, Note_on_c, 10, 59, 0
11, 239280, Note_on_c, 10, 60, 105
11, 239400, Note_on_c, 10, 60, 0
11, 239520, Note_on_c, 10, 55, 105
11, 239640, Note_on_c, 10, 55, 0
11, 239760, Note_on_c, 10, 52, 105
11, 239880, Note_on_c, 10, 52, 0
11, 240000, Note_on_c, 10, 48, 105
11, 240120, Note_on_c, 10, 48, 0
11, 240240, Note_on_c, 10, 52, 105
11, 240360, Note_on_c, 10, 52, 0
11, 240480, Note_on_c, 10, 54, 105
11, 240600, Note_on_c, 10, 54, 0
11, 240720, Note_on_c, 10, 55, 105
11, 240840, Note_on_c, 10, 55, 0
11, 240960, Note_on_c, 10, 54, 105
11, 241080, Note_on_c, 10, 54, 0
11, 241200, Note_on_c, 10, 55, 105
11, 241320, Note_on_c, 10, 55, 0
11, 241440, Note_on_c, 10, 52, 105
11, 241560, Note_on_c, 10, 52, 0
11, 241680, Note_on_c, 10, 48, 105
11, 241800, Note_on_c, 10, 48, 0
11, 241920, Note_on_c, 10, 53, 105
11, 242040, Note_on_c, 10, 53, 0
11, 242160, Note_on_c, 10, 56, 105
11, 242280, Note_on_c, 10, 56, 0
11, 242400, Note_on_c, 10, 59, 105
11, 242520, Note_on_c, 10, 59, 0
11, 242640, Note_on_c, 10, 60, 105
11, 242760, Note_on_c, 10, 60, 0
11, 242880, Note_on_c, 10, 61, 105
11, 243000, Note_on_c, 10, 61, 0
11, 243120, Note_on_c, 10, 60, 105
11, 243240, Note_on_c, 10, 60, 0
11, 243360, Note_on_c, 10, 56, 105
11, 243480, Note_on_c, 10, 56, 0
11, 243600, Note_on_c, 10, 53, 105
11, 243720, Note_on_c, 10, 53, 0
11, 243840, Note_on_c, 10, 52, 105
11, 243960, Note_on_c, 10, 52, 0
11, 244080, Note_on_c, 10, 55, 105
11, 244200, Note_on_c, 10, 55, 0
11, 244320, Note_on_c, 10, 59, 105
11, 244440, Note_on_c, 10, 59, 0
11, 244560, Note_on_c, 10, 60, 105
11, 244680, Note_on_c, 10, 60, 0
11, 244800, Note_on_c, 10, 61, 105
11, 244920, Note_on_c, 10, 61, 0
11, 245040, Note_on_c, 10, 60, 105
11, 245160, Note_on_c, 10, 60, 0
11, 245280, Note_on_c, 10, 55, 105
11, 245400, Note_on_c, 10, 55, 0
11, 245520, Note_on_c, 10, 52, 105
11, 245640, Note_on_c, 10, 52, 0
11, 245760, Note_on_c, 10, 53, 105
11, 245880, Note_on_c, 10, 53, 0
11, 246000, Note_on_c, 10, 56, 105
11, 246120, Note_on_c, 10, 56, 0
11, 246240, Note_on_c, 10, 60, 105
11, 246360, Note_on_c, 10, 60, 0
11, 246480, Note_on_c, 10, 61, 105
11, 246600, Note_on_c, 10, 61, 0
11, 246720, Note_on_c, 10, 60, 105
11, 246840, Note_on_c, 10, 60, 0
11, 246960, Note_on_c, 10, 61, 105
11, 247080, Note_on_c, 10, 61, 0
11, 247200, Note_on_c, 10, 56, 105
11, 247320, Note_on_c, 10, 56, 0
11, 247440, Note_on_c, 10, 53, 105
11, 247560, Note_on_c, 10, 53, 0
11, 247680, Note_on_c, 10, 55, 105
11, 247800, Note_on_c, 10, 55, 0
11, 247920, Note_on_c, 10, 58, 105
11, 248040, Note_on_c, 10, 58, 0
11, 248160, Note_on_c, 10, 62, 105
11, 248280, Note_on_c, 10, 62, 0
11, 248400, Note_on_c, 10, 63, 105
11, 248520, Note_on_c, 10, 63, 0
11, 248640, Note_on_c, 10, 62, 105
11, 248760, Note_on_c, 10, 62, 0
11, 248880, Note_on_c, 10, 63, 105
11, 249000, Note_on_c, 10, 63, 0
11, 249120, Note_on_c, 10, 58, 105
11, 249240, Note_on_c, 10, 58, 0
11, 249360, Note_on_c, 10, 55, 105
11, 249480, Note_on_c, 10, 55, 0
11, 249600, Note_on_c, 10, 56, 105
11, 249600, Control_c, 10, 11, 80
11, 249720, Note_on_c, 10, 56, 0
11, 249840, Note_on_c, 10, 60, 105
11, 249960, Note_on_c, 10, 60, 0
11, 249980, Control_c, 10, 11, 81
11, 250080, Note_on_c, 10, 62, 105
11, 250200, Note_on_c, 10, 62, 0
11, 250320, Note_on_c, 10, 63, 106
11, 250350, Control_c, 10, 11, 82
11, 250440, Note_on_c, 10, 63, 0
11, 250560, Note_on_c, 10, 65, 106
11, 250680, Note_on_c, 10, 65, 0
11, 250720, Control_c, 10, 11, 83
11, 250800, Note_on_c, 10, 63, 107
11, 250920, Note_on_c, 10, 63, 0
11, 251040, Note_on_c, 10, 60, 107
11, 251090, Control_c, 10, 11, 84
11, 251160, Note_on_c, 10, 60, 0
11, 251280, Note_on_c, 10, 56, 108
11, 251400, Note_on_c, 10, 56, 0
11, 251460, Control_c, 10, 11, 85
11, 251520, Note_on_c, 10, 55, 108
11, 251640, Note_on_c, 10, 55, 0
11, 251760, Note_on_c, 10, 58, 109
11, 251830, Control_c, 10, 11, 86
11, 251880, Note_on_c, 10, 58, 0
11, 252000, Note_on_c, 10, 62, 109
11, 252120, Note_on_c, 10, 62, 0
11, 252200, Control_c, 10, 11, 87
11, 252240, Note_on_c, 10, 63, 110
11, 252360, Note_on_c, 10, 63, 0
11, 252480, Note_on_c, 10, 65, 110
11, 252570, Control_c, 10, 11, 88
11, 252600, Note_on_c, 10, 65, 0
11, 252720, Note_on_c, 10, 63, 111
11, 252840, Note_on_c, 10, 63, 0
11, 252940, Control_c, 10, 11, 89
11, 252960, Note_on_c, 10, 58, 111
11, 253080, Note_on_c, 10, 58, 0
11, 253200, Note_on_c, 10, 55, 112
11, 253310, Control_c, 10, 11, 90
11, 253320, Note_on_c, 10, 55, 0
11, 253680, Control_c, 10, 11, 91
11, 254050, Control_c, 10, 11, 92
11, 254420, Control_c, 10, 11, 93
11, 254790, Control_c, 10, 11, 94
11, 255160, Control_c, 10, 11, 95
11, 255540, Control_c, 10, 11, 96
11, 255910, Control_c, 10, 11, 97
11, 256280, Control_c, 10, 11, 98
11, 256650, Control_c, 10, 11, 99
11, 257020, Control_c, 10, 11, 100
11, 257390, Control_c, 10, 11, 101
11, 257760, Control_c, 10, 11, 102
11, 258130, Control_c, 10, 11, 103
11, 258500, Control_c, 10, 11, 104
11, 258870, Control_c, 10, 11, 105
11, 259240, Control_c, 10, 11, 106
11, 259610, Control_c, 10, 11, 107
11, 259980, Control_c, 10, 11, 108
11, 260350, Control_c, 10, 11, 109
11, 260720, Control_c, 10, 11, 110
11, 261117, Control_c, 10, 11, 80
11, 264960, Note_on_c, 10, 54, 105
11, 265080, Note_on_c, 10, 54, 0
11, 265920, Note_on_c, 10, 53, 105
11, 266040, Note_on_c, 10, 53, 0
11, 266880, Note_on_c, 10, 51, 105
11, 267000, Note_on_c, 10, 51, 0
11, 267360, Note_on_c, 10, 54, 105
11, 267480, Note_on_c, 10, 54, 0
11, 268797, Control_c, 10, 11, 110
11, 268800, Note_on_c, 10, 49, 127
11, 269040, Note_on_c, 10, 49, 0
11, 269040, Note_on_c, 10, 53, 127
11, 269280, Note_on_c, 10, 53, 0
11, 269280, Note_on_c, 10, 57, 127
11, 269520, Note_on_c, 10, 57, 0
11, 269520, Note_on_c, 10, 58, 127
11, 269760, Note_on_c, 10, 48, 127
11, 269760, Note_on_c, 10, 58, 0
11, 270000, Note_on_c, 10, 48, 0
11, 270000, Note_on_c, 10, 51, 127
11, 270240, Note_on_c, 10, 51, 0
11, 270240, Note_on_c, 10, 55, 127
11, 270480, Note_on_c, 10, 55, 0
11, 270480, Note_on_c, 10, 56, 127
11, 270720, Note_on_c, 10, 56, 0
11, 270720, Note_on_c, 10, 58, 127
11, 270960, Note_on_c, 10, 58, 0
11, 270960, Note_on_c, 10, 61, 127
11, 271200, Note_on_c, 10, 61, 0
11, 271200, Note_on_c, 10, 65, 127
11, 271440, Note_on_c, 10, 65, 0
11, 271440, Note_on_c, 10, 66, 127
11, 271680, Note_on_c, 10, 56, 127
11, 271680, Note_on_c, 10, 66, 0
11, 271920, Note_on_c, 10, 56, 0
11, 271920, Note_on_c, 10, 60, 127
11, 272160, Note_on_c, 10, 60, 0
11, 272160, Note_on_c, 10, 64, 127
11, 272400, Note_on_c, 10, 64, 0
11, 272400, Note_on_c, 10, 65, 127
11, 272640, Note_on_c, 10, 55, 127
11, 272640, Note_on_c, 10, 65, 0
11, 272880, Note_on_c, 10, 55, 0
11, 272880, Note_on_c, 10, 58, 127
11, 273120, Note_on_c, 10, 58, 0
11, 273120, Note_on_c, 10, 60, 127
11, 273360, Note_on_c, 10, 60, 0
11, 273360, Note_on_c, 10, 61, 127
11, 273600, Note_on_c, 10, 53, 127
11, 273600, Note_on_c, 10, 61, 0
11, 273840, Note_on_c, 10, 53, 0
11, 273840, Note_on_c, 10, 58, 127
11, 274080, Note_on_c, 10, 58, 0
11, 274080, Note_on_c, 10, 60, 127
11, 274320, Note_on_c, 10, 60, 0
11, 274320, Note_on_c, 10, 61, 127
11, 274560, Note_on_c, 10, 52, 127
11, 274560, Note_on_c, 10, 61, 0
11, 274800, Note_on_c, 10, 52, 0
11, 274800, Note_on_c, 10, 55, 127
11, 275040, Note_on_c, 10, 55, 0
11, 275040, Note_on_c, 10, 58, 127
11, 275280, Note_on_c, 10, 58, 0
11, 275280, Note_on_c, 10, 61, 127
11, 275520, Note_on_c, 10, 48, 127
11, 275520, Note_on_c, 10, 61, 0
11, 275760, Note_on_c, 10, 48, 0
11, 275760, Note_on_c, 10, 52, 127
11, 276000, Note_on_c, 10, 52, 0
11, 276000, Note_on_c, 10, 55, 127
11, 276240, Note_on_c, 10, 55, 0
11, 276240, Note_on_c, 10, 60, 127
11, 276450, Note_on_c, 10, 60, 0
11, 276477, Control_c, 10, 11, 80
11, 276480, Note_on_c, 10, 53, 90
11, 276480, Control_c, 10, 11, 80
11, 276600, Note_on_c, 10, 53, 0
11, 276710, Control_c, 10, 11, 81
11, 276720, Note_on_c, 10, 56, 90
11, 276840, Note_on_c, 10, 56, 0
11, 276940, Control_c, 10, 11, 82
11, 276960, Note_on_c, 10, 60, 91
11, 277080, Note_on_c, 10, 60, 0
11, 277170, Control_c, 10, 11, 83
11, 277200, Note_on_c, 10, 61, 91
11, 277320, Note_on_c, 10, 61, 0
11, 277400, Control_c, 10, 11, 84
11, 277440, Note_on_c, 10, 51, 92
11, 277560, Note_on_c, 10, 51, 0
11, 277630, Control_c, 10, 11, 85
11, 277680, Note_on_c, 10, 55, 93
11, 277800, Note_on_c, 10, 55, 0
11, 277860, Control_c, 10, 11, 86
11, 277920, Note_on_c, 10, 59, 93
11, 278040, Note_on_c, 10, 59, 0
11, 278080, Control_c, 10, 11, 87
11, 278160, Note_on_c, 10, 60, 94
11, 278280, Note_on_c, 10, 60, 0
11, 278310, Control_c, 10, 11, 88
11, 278400, Note_on_c, 10, 49, 95
11, 278520, Note_on_c, 10, 49, 0
11, 278540, Control_c, 10, 11, 89
11, 278640, Note_on_c, 10, 53, 95
11, 278760, Note_on_c, 10, 53, 0
11, 278770, Control_c, 10, 11, 90
11, 278880, Note_on_c, 10, 57, 96
11, 279000, Note_on_c, 10, 57, 0
11, 279000, Control_c, 10, 11, 91
11, 279120, Note_on_c, 10, 58, 96
11, 279230, Control_c, 10, 11, 92
11, 279240, Note_on_c, 10, 58, 0
11, 279360, Note_on_c, 10, 48, 97
11, 279460, Control_c, 10, 11, 93
11, 279480, Note_on_c, 10, 48, 0
11, 279600, Note_on_c, 10, 51, 98
11, 279680, Control_c, 10, 11, 94
11, 279720, Note_on_c, 10, 51, 0
11, 279840, Note_on_c, 10, 55, 98
11, 279910, Control_c, 10, 11, 95
11, 279960, Note_on_c, 10, 55, 0
11, 280080, Note_on_c, 10, 56, 99
11, 280140, Control_c, 10, 11, 96
11, 280200, Note_on_c, 10, 56, 0
11, 280370, Control_c, 10, 11, 97
11, 280560, Note_on_c, 10, 49, 100
11, 280600, Control_c, 10, 11, 98
11, 280680, Note_on_c, 10, 49, 0
11, 280800, Note_on_c, 10, 52, 101
11, 280830, Control_c, 10, 11, 99
11, 280920, Note_on_c, 10, 52, 0
11, 281040, Note_on_c, 10, 55, 101
11, 281060, Control_c, 10, 11, 100
11, 281160, Note_on_c, 10, 55, 0
11, 281520, Note_on_c, 10, 48, 103
11, 281640, Note_on_c, 10, 48, 0
11, 281760, Note_on_c, 10, 52, 103
11, 281880, Note_on_c, 10, 52, 0
11, 282000, Note_on_c, 10, 53, 104
11, 282120, Note_on_c, 10, 53, 0
11, 282480, Note_on_c, 10, 58, 105
11, 282600, Note_on_c, 10, 58, 0
11, 282720, Note_on_c, 10, 49, 106
11, 282840, Note_on_c, 10, 49, 0
11, 282960, Note_on_c, 10, 53, 106
11, 283080, Note_on_c, 10, 53, 0
11, 283200, Note_on_c, 10, 48, 107
11, 283320, Note_on_c, 10, 48, 0
11, 283440, Note_on_c, 10, 52, 108
11, 283560, Note_on_c, 10, 52, 0
11, 283680, Note_on_c, 10, 55, 108
11, 283800, Note_on_c, 10, 55, 0
11, 283920, Note_on_c, 10, 60, 109
11, 284040, Note_on_c, 10, 60, 0
11, 284157, Control_c, 10, 11, 80
11, 284160, Note_on_c, 10, 53, 110
11, 284400, Note_on_c, 10, 53, 0
11, 284400, Note_on_c, 10, 56, 110
11, 284640, Note_on_c, 10, 56, 0
11, 284640, Note_on_c, 10, 60, 110
11, 284880, Note_on_c, 10, 60, 0
11, 284880, Note_on_c, 10, 61, 110
11, 285120, Note_on_c, 10, 51, 110
11, 285120, Note_on_c, 10, 61, 0
11, 285360, Note_on_c, 10, 51, 0
11, 285360, Note_on_c, 10, 55, 110
11, 285600, Note_on_c, 10, 55, 0
11, 285600, Note_on_c, 10, 59, 110
11, 285840, Note_on_c, 10, 59, 0
11, 285840, Note_on_c, 10, 60, 110
11, 286080, Note_on_c, 10, 49, 110
11, 286080, Note_on_c, 10, 60, 0
11, 286320, Note_on_c, 10, 49, 0
11, 286320, Note_on_c, 10, 53, 110
11, 286560, Note_on_c, 10, 53, 0
11, 286560, Note_on_c, 10, 57, 110
11, 286800, Note_on_c, 10, 57, 0
11, 286800, Note_on_c, 10, 58, 110
11, 287040, Note_on_c, 10, 48, 110
11, 287040, Note_on_c, 10, 58, 0
11, 287280, Note_on_c, 10, 48, 0
11, 287280, Note_on_c, 10, 51, 110
11, 287520, Note_on_c, 10, 51, 0
11, 287520, Note_on_c, 10, 55, 110
11, 287760, Note_on_c, 10, 55, 0
11, 287760, Note_on_c, 10, 56, 110
11, 288000, Note_on_c, 10, 56, 0
11, 288240, Note_on_c, 10, 49, 110
11, 288480, Note_on_c, 10, 49, 0
11, 288480, Note_on_c, 10, 52, 110
11, 288720, Note_on_c, 10, 52, 0
11, 288720, Note_on_c, 10, 55, 110
11, 288960, Note_on_c, 10, 55, 0
11, 289200, Note_on_c, 10, 48, 110
11, 289440, Note_on_c, 10, 48, 0
11, 289440, Note_on_c, 10, 52, 110
11, 289680, Note_on_c, 10, 52, 0
11, 289680, Note_on_c, 10, 53, 110
11, 289920, Note_on_c, 10, 53, 0
11, 290160, Note_on_c, 10, 49, 110
11, 290400, Note_on_c, 10, 49, 0
11, 290400, Note_on_c, 10, 53, 110
11, 290640, Note_on_c, 10, 53, 0
11, 290640, Note_on_c, 10, 55, 110
11, 290880, Note_on_c, 10, 48, 110
11, 290880, Note_on_c, 10, 55, 0
11, 291120, Note_on_c, 10, 48, 0
11, 291120, Note_on_c, 10, 52, 110
11, 291360, Note_on_c, 10, 52, 0
11, 291360, Note_on_c, 10, 55, 110
11, 291600, Note_on_c, 10, 55, 0
11, 291600, Note_on_c, 10, 60, 110
11, 291780, Note_on_c, 10, 60, 0
11, 291840, Note_on_c, 10, 53, 90
11, 295410, Note_on_c, 10, 53, 0
11, 295680, Note_on_c, 10, 58, 110
11, 295890, Note_on_c, 10, 58, 0
11, 299520, Note_on_c, 10, 53, 80
11, 303090, Note_on_c, 10, 53, 0
11, 303360, Note_on_c, 10, 59, 110
11, 304290, Note_on_c, 10, 59, 0
11, 304320, Note_on_c, 10, 53, 110
11, 304470, Note_on_c, 10, 53, 0
11, 304560, Note_on_c, 10, 56, 110
11, 304710, Note_on_c, 10, 56, 0
11, 304800, Note_on_c, 10, 56, 110
11, 305040, Note_on_c, 10, 55, 110
11, 305070, Note_on_c, 10, 56, 0
11, 305250, Note_on_c, 10, 55, 0
11, 305280, Note_on_c, 10, 59, 110
11, 306210, Note_on_c, 10, 59, 0
11, 306240, Note_on_c, 10, 53, 110
11, 306390, Note_on_c, 10, 53, 0
11, 306480, Note_on_c, 10, 56, 110
11, 306630, Note_on_c, 10, 56, 0
11, 306720, Note_on_c, 10, 56, 110
11, 306960, Note_on_c, 10, 55, 110
11, 306990, Note_on_c, 10, 56, 0
11, 307170, Note_on_c, 10, 55, 0
11, 307200, Note_on_c, 10, 53, 100
11, 307350, Note_on_c, 10, 53, 0
11, 307440, Note_on_c, 10, 56, 100
11, 307590, Note_on_c, 10, 56, 0
11, 307680, Note_on_c, 10, 56, 100
11, 307920, Note_on_c, 10, 55, 100
11, 307950, Note_on_c, 10, 56, 0
11, 308130, Note_on_c, 10, 55, 0
11, 308160, Note_on_c, 10, 55, 100
11, 308310, Note_on_c, 10, 55, 0
11, 308400, Note_on_c, 10, 60, 100
11, 308550, Note_on_c, 10, 60, 0
11, 308640, Note_on_c, 10, 60, 100
11, 308880, Note_on_c, 10, 59, 100
11, 308910, Note_on_c, 10, 60, 0
11, 309090, Note_on_c, 10, 59, 0
11, 309116, Control_c, 10, 11, 100
11, 312960, Note_on_c, 10, 52, 127
11, 312960, Note_on_c, 10, 55, 127
11, 313890, Note_on_c, 10, 52, 0
11, 313890, Note_on_c, 10, 55, 0
11, 313920, Note_on_c, 10, 52, 127
11, 314070, Note_on_c, 10, 52, 0
11, 314160, Note_on_c, 10, 55, 127
11, 314310, Note_on_c, 10, 55, 0
11, 314400, Note_on_c, 10, 55, 127
11, 314640, Note_on_c, 10, 53, 127
11, 314670, Note_on_c, 10, 55, 0
11, 314850, Note_on_c, 10, 53, 0
11, 314880, Note_on_c, 10, 52, 127
11, 314880, Note_on_c, 10, 55, 127
11, 315810, Note_on_c, 10, 52, 0
11, 315810, Note_on_c, 10, 55, 0
11, 315840, Note_on_c, 10, 52, 127
11, 315990, Note_on_c, 10, 52, 0
11, 316080, Note_on_c, 10, 55, 127
11, 316230, Note_on_c, 10, 55, 0
11, 316320, Note_on_c, 10, 55, 127
11, 316560, Note_on_c, 10, 53, 127
11, 316590, Note_on_c, 10, 55, 0
11, 316770, Note_on_c, 10, 53, 0
11, 316800, Note_on_c, 10, 52, 80
11, 316950, Note_on_c, 10, 52, 0
11, 317040, Note_on_c, 10, 58, 80
11, 317190, Note_on_c, 10, 58, 0
11, 317280, Note_on_c, 10, 58, 80
11, 317520, Note_on_c, 10, 56, 80
11, 317550, Note_on_c, 10, 58, 0
11, 317730, Note_on_c, 10, 56, 0
11, 317760, Note_on_c, 10, 55, 80
11, 317910, Note_on_c, 10, 55, 0
11, 318000, Note_on_c, 10, 61, 80
11, 318150, Note_on_c, 10, 61, 0
11, 318240, Note_on_c, 10, 61, 80
11, 318480, Note_on_c, 10, 60, 80
11, 318510, Note_on_c, 10, 61, 0
11, 318690, Note_on_c, 10, 60, 0
11, 323040, Note_on_c, 10, 52, 120
11, 323190, Note_on_c, 10, 52, 0
11, 323280, Note_on_c, 10, 55, 120
11, 323430, Note_on_c, 10, 55, 0
11, 323520, Note_on_c, 10, 55, 120
11, 323760, Note_on_c, 10, 53, 120
11, 323790, Note_on_c, 10, 55, 0
11, 323970, Note_on_c, 10, 53, 0
11, 324960, Note_on_c, 10, 52, 120
11, 325110, Note_on_c, 10, 52, 0
11, 325200, Note_on_c, 10, 55, 120
11, 325350, Note_on_c, 10, 55, 0
11, 325440, Note_on_c, 10, 55, 120
11, 325680, Note_on_c, 10, 53, 120
11, 325710, Note_on_c, 10, 55, 0
11, 325890, Note_on_c, 10, 53, 0
11, 326880, Note_on_c, 10, 52, 120
11, 327030, Note_on_c, 10, 52, 0
11, 327120, Note_on_c, 10, 55, 120
11, 327270, Note_on_c, 10, 55, 0
11, 327360, Note_on_c, 10, 55, 120
11, 327600, Note_on_c, 10, 53, 120
11, 327630, Note_on_c, 10, 55, 0
11, 327810, Note_on_c, 10, 53, 0
11, 328800, Note_on_c, 10, 52, 120
11, 328950, Note_on_c, 10, 52, 0
11, 329040, Note_on_c, 10, 55, 120
11, 329190, Note_on_c, 10, 55, 0
11, 329280, Note_on_c, 10, 55, 120
11, 329520, Note_on_c, 10, 53, 120
11, 329550, Note_on_c, 10, 55, 0
11, 329730, Note_on_c, 10, 53, 0
11, 329760, Note_on_c, 10, 54, 120
11, 329910, Note_on_c, 10, 54, 0
11, 330000, Note_on_c, 10, 54, 120
11, 330150, Note_on_c, 10, 54, 0
11, 330240, Note_on_c, 10, 55, 120
11, 330690, Note_on_c, 10, 55, 0
11, 330720, Note_on_c, 10, 54, 120
11, 330870, Note_on_c, 10, 54, 0
11, 330960, Note_on_c, 10, 56, 120
11, 331110, Note_on_c, 10, 56, 0
11, 331200, Note_on_c, 10, 56, 120
11, 331440, Note_on_c, 10, 55, 120
11, 331470, Note_on_c, 10, 56, 0
11, 331650, Note_on_c, 10, 55, 0
11, 332640, Note_on_c, 10, 54, 120
11, 332790, Note_on_c, 10, 54, 0
11, 332880, Note_on_c, 10, 56, 120
11, 333030, Note_on_c, 10, 56, 0
11, 333120, Note_on_c, 10, 56, 120
11, 333360, Note_on_c, 10, 55, 120
11, 333390, Note_on_c, 10, 56, 0
11, 333570, Note_on_c, 10, 55, 0
11, 334560, Note_on_c, 10, 54, 120
11, 334710, Note_on_c, 10, 54, 0
11, 334800, Note_on_c, 10, 56, 120
11, 334950, Note_on_c, 10, 56, 0
11, 335040, Note_on_c, 10, 56, 120
11, 335280, Note_on_c, 10, 55, 120
11, 335310, Note_on_c, 10, 56, 0
11, 335490, Note_on_c, 10, 55, 0
11, 336480, Note_on_c, 10, 54, 120
11, 336630, Note_on_c, 10, 54, 0
11, 336720, Note_on_c, 10, 56, 120
11, 336870, Note_on_c, 10, 56, 0
11, 336960, Note_on_c, 10, 56, 120
11, 337200, Note_on_c, 10, 55, 120
11, 337230, Note_on_c, 10, 56, 0
11, 337410, Note_on_c, 10, 55, 0
11, 337440, Note_on_c, 10, 60, 120
11, 337920, Note_on_c, 10, 59, 120
11, 337950, Note_on_c, 10, 60, 0
11, 338400, Note_on_c, 10, 59, 0
11, 339360, Control_c, 10, 11, 80
11, 341760, Note_on_c, 10, 48, 80
11, 342240, Note_on_c, 10, 48, 0
11, 343440, Note_on_c, 10, 48, 80
11, 343680, Note_on_c, 10, 53, 80
11, 343710, Note_on_c, 10, 48, 0
11, 344160, Note_on_c, 10, 53, 0
11, 345360, Note_on_c, 10, 53, 80
11, 345600, Note_on_c, 10, 52, 80
11, 345630, Note_on_c, 10, 53, 0
11, 346080, Note_on_c, 10, 52, 0
11, 347280, Note_on_c, 10, 52, 80
11, 347520, Note_on_c, 10, 59, 80
11, 347550, Note_on_c, 10, 52, 0
11, 348000, Note_on_c, 10, 59, 0
11, 349200, Note_on_c, 10, 59, 80
11, 349440, Note_on_c, 10, 60, 80
11, 349440, Control_c, 10, 11, 80
11, 349470, Note_on_c, 10, 59, 0
11, 349810, Control_c, 10, 11, 81
11, 349920, Note_on_c, 10, 60, 0
11, 350180, Control_c, 10, 11, 82
11, 350540, Control_c, 10, 11, 83
11, 350910, Control_c, 10, 11, 84
11, 351120, Note_on_c, 10, 48, 80
11, 351280, Control_c, 10, 11, 85
11, 351360, Note_on_c, 10, 53, 80
11, 351390, Note_on_c, 10, 48, 0
11, 351640, Control_c, 10, 11, 86
11, 351840, Note_on_c, 10, 53, 0
11, 352010, Control_c, 10, 11, 87
11, 352380, Control_c, 10, 11, 88
11, 352740, Control_c, 10, 11, 89
11, 353040, Note_on_c, 10, 53, 80
11, 353110, Control_c, 10, 11, 90
11, 353280, Note_on_c, 10, 52, 80
11, 353310, Note_on_c, 10, 53, 0
11, 353480, Control_c, 10, 11, 91
11, 353760, Note_on_c, 10, 52, 0
11, 353840, Control_c, 10, 11, 92
11, 354210, Control_c, 10, 11, 93
11, 354580, Control_c, 10, 11, 94
11, 354940, Control_c, 10, 11, 95
11, 354960, Note_on_c, 10, 52, 80
11, 355200, Note_on_c, 10, 59, 80
11, 355230, Note_on_c, 10, 52, 0
11, 355310, Control_c, 10, 11, 96
11, 355680, Note_on_c, 10, 59, 0
11, 355680, Control_c, 10, 11, 97
11, 356040, Control_c, 10, 11, 98
11, 356410, Control_c, 10, 11, 99
11, 356780, Control_c, 10, 11, 100
11, 356880, Note_on_c, 10, 59, 80
11, 357120, Note_on_c, 10, 60, 80
11, 357140, Control_c, 10, 11, 101
11, 357150, Note_on_c, 10, 59, 0
11, 357290, Control_c, 10, 11, 102
11, 357440, Control_c, 10, 11, 103
11, 357590, Control_c, 10, 11, 104
11, 357600, Note_on_c, 10, 60, 0
11, 357730, Control_c, 10, 11, 105
11, 357880, Control_c, 10, 11, 106
11, 358030, Control_c, 10, 11, 107
11, 358170, Control_c, 10, 11, 108
11, 358320, Control_c, 10, 11, 109
11, 358470, Control_c, 10, 11, 110
11, 358610, Control_c, 10, 11, 111
11, 358760, Control_c, 10, 11, 112
11, 358800, Note_on_c, 10, 48, 94
11, 358910, Control_c, 10, 11, 113
11, 359040, Note_on_c, 10, 53, 96
11, 359050, Control_c, 10, 11, 114
11, 359070, Note_on_c, 10, 48, 0
11, 359200, Control_c, 10, 11, 115
11, 359350, Control_c, 10, 11, 116
11, 359500, Control_c, 10, 11, 117
11, 359520, Note_on_c, 10, 53, 0
11, 359640, Control_c, 10, 11, 118
11, 359790, Control_c, 10, 11, 119
11, 359940, Control_c, 10, 11, 120
11, 360080, Control_c, 10, 11, 121
11, 360230, Control_c, 10, 11, 122
11, 360380, Control_c, 10, 11, 123
11, 360520, Control_c, 10, 11, 124
11, 360670, Control_c, 10, 11, 125
11, 360720, Note_on_c, 10, 53, 110
11, 360820, Control_c, 10, 11, 126
11, 360870, Note_on_c, 10, 53, 0
11, 360940, Control_c, 10, 11, 127
11, 360960, Note_on_c, 10, 64, 127
11, 361920, Note_on_c, 10, 62, 127
11, 361920, Note_on_c, 10, 64, 0
11, 361920, Note_on_c, 10, 65, 127
11, 362880, Note_on_c, 10, 61, 127
11, 362880, Note_on_c, 10, 62, 0
11, 362880, Note_on_c, 10, 64, 127
11, 362880, Note_on_c, 10, 65, 0
11, 363840, Note_on_c, 10, 57, 127
11, 363840, Note_on_c, 10, 64, 0
11, 364740, Note_on_c, 10, 57, 0
11, 364740, Note_on_c, 10, 61, 0
11, 364797, Control_c, 10, 11, 80
11, 364800, Note_on_c, 10, 50, 80
11, 365250, Note_on_c, 10, 50, 0
11, 366480, Note_on_c, 10, 50, 80
11, 366720, Note_on_c, 10, 55, 80
11, 366750, Note_on_c, 10, 50, 0
11, 367200, Note_on_c, 10, 55, 0
11, 368400, Note_on_c, 10, 55, 80
11, 368640, Note_on_c, 10, 53, 80
11, 368670, Note_on_c, 10, 55, 0
11, 369120, Note_on_c, 10, 53, 0
11, 370320, Note_on_c, 10, 53, 80
11, 370560, Note_on_c, 10, 49, 80
11, 370590, Note_on_c, 10, 53, 0
11, 371040, Note_on_c, 10, 49, 0
11, 372240, Note_on_c, 10, 49, 90
11, 372480, Note_on_c, 10, 50, 92
11, 372480, Control_c, 10, 11, 80
11, 372510, Note_on_c, 10, 49, 0
11, 372570, Control_c, 10, 11, 81
11, 372650, Control_c, 10, 11, 82
11, 372730, Control_c, 10, 11, 83
11, 372810, Control_c, 10, 11, 84
11, 372890, Control_c, 10, 11, 85
11, 372960, Note_on_c, 10, 50, 0
11, 372980, Control_c, 10, 11, 86
11, 373060, Control_c, 10, 11, 87
11, 373140, Control_c, 10, 11, 88
11, 373220, Control_c, 10, 11, 89
11, 373300, Control_c, 10, 11, 90
11, 373380, Control_c, 10, 11, 91
11, 373470, Control_c, 10, 11, 92
11, 373550, Control_c, 10, 11, 93
11, 373630, Control_c, 10, 11, 94
11, 373710, Control_c, 10, 11, 95
11, 373790, Control_c, 10, 11, 96
11, 373870, Control_c, 10, 11, 97
11, 373960, Control_c, 10, 11, 98
11, 374040, Control_c, 10, 11, 99
11, 374120, Control_c, 10, 11, 100
11, 374160, Note_on_c, 10, 50, 107
11, 374200, Control_c, 10, 11, 101
11, 374280, Control_c, 10, 11, 102
11, 374360, Control_c, 10, 11, 103
11, 374400, Note_on_c, 10, 55, 109
11, 374430, Note_on_c, 10, 50, 0
11, 374450, Control_c, 10, 11, 104
11, 374530, Control_c, 10, 11, 105
11, 374610, Control_c, 10, 11, 106
11, 374690, Control_c, 10, 11, 107
11, 374770, Control_c, 10, 11, 108
11, 374850, Control_c, 10, 11, 109
11, 374880, Note_on_c, 10, 55, 0
11, 374940, Control_c, 10, 11, 110
11, 375020, Control_c, 10, 11, 111
11, 375100, Control_c, 10, 11, 112
11, 375180, Control_c, 10, 11, 113
11, 375260, Control_c, 10, 11, 114
11, 375340, Control_c, 10, 11, 115
11, 375430, Control_c, 10, 11, 116
11, 375510, Control_c, 10, 11, 117
11, 375590, Control_c, 10, 11, 118
11, 375670, Control_c, 10, 11, 119
11, 375750, Control_c, 10, 11, 120
11, 375830, Control_c, 10, 11, 121
11, 375920, Control_c, 10, 11, 122
11, 376000, Control_c, 10, 11, 123
11, 376080, Note_on_c, 10, 55, 124
11, 376080, Control_c, 10, 11, 124
11, 376160, Control_c, 10, 11, 125
11, 376230, Note_on_c, 10, 55, 0
11, 376240, Control_c, 10, 11, 126
11, 376290, Control_c, 10, 11, 127
11, 376320, Note_on_c, 10, 53, 127
11, 376320, Note_on_c, 10, 57, 127
11, 376440, Note_on_c, 10, 53, 0
11, 376440, Note_on_c, 10, 57, 0
11, 376440, Note_on_c, 10, 65, 127
11, 377280, Note_on_c, 10, 64, 127
11, 377280, Note_on_c, 10, 65, 0
11, 377280, Note_on_c, 10, 67, 127
11, 378240, Note_on_c, 10, 63, 127
11, 378240, Note_on_c, 10, 64, 0
11, 378240, Note_on_c, 10, 66, 127
11, 378240, Note_on_c, 10, 67, 0
11, 379200, Note_on_c, 10, 59, 127
11, 379200, Note_on_c, 10, 66, 0
11, 380100, Note_on_c, 10, 59, 0
11, 380100, Note_on_c, 10, 63, 0
11, 380157, Control_c, 10, 11, 80
11, 380160, Note_on_c, 10, 52, 80
11, 380610, Note_on_c, 10, 52, 0
11, 381840, Note_on_c, 10, 52, 80
11, 382080, Note_on_c, 10, 57, 80
11, 382080, Control_c, 10, 11, 80
11, 382110, Note_on_c, 10, 52, 0
11, 382210, Control_c, 10, 11, 81
11, 382330, Control_c, 10, 11, 82
11, 382450, Control_c, 10, 11, 83
11, 382560, Note_on_c, 10, 57, 0
11, 382580, Control_c, 10, 11, 84
11, 382700, Control_c, 10, 11, 85
11, 382820, Control_c, 10, 11, 86
11, 382940, Control_c, 10, 11, 87
11, 383070, Control_c, 10, 11, 88
11, 383190, Control_c, 10, 11, 89
11, 383310, Control_c, 10, 11, 90
11, 383430, Control_c, 10, 11, 91
11, 383560, Control_c, 10, 11, 92
11, 383680, Control_c, 10, 11, 93
11, 383760, Note_on_c, 10, 57, 80
11, 383800, Control_c, 10, 11, 94
11, 383920, Control_c, 10, 11, 95
11, 384000, Note_on_c, 10, 55, 81
11, 384030, Note_on_c, 10, 57, 0
11, 384050, Control_c, 10, 11, 96
11, 384170, Control_c, 10, 11, 97
11, 384290, Control_c, 10, 11, 98
11, 384410, Control_c, 10, 11, 99
11, 384480, Note_on_c, 10, 52, 83
11, 384510, Note_on_c, 10, 55, 0
11, 384540, Control_c, 10, 11, 100
11, 384660, Control_c, 10, 11, 101
11, 384720, Note_on_c, 10, 55, 84
11, 384750, Note_on_c, 10, 52, 0
11, 384780, Control_c, 10, 11, 102
11, 384900, Control_c, 10, 11, 103
11, 384960, Note_on_c, 10, 52, 85
11, 384990, Note_on_c, 10, 55, 0
11, 385030, Control_c, 10, 11, 104
11, 385150, Control_c, 10, 11, 105
11, 385200, Note_on_c, 10, 55, 87
11, 385230, Note_on_c, 10, 52, 0
11, 385270, Control_c, 10, 11, 106
11, 385390, Control_c, 10, 11, 107
11, 385440, Note_on_c, 10, 52, 88
11, 385470, Note_on_c, 10, 55, 0
11, 385520, Control_c, 10, 11, 108
11, 385640, Control_c, 10, 11, 109
11, 385680, Note_on_c, 10, 55, 89
11, 385710, Note_on_c, 10, 52, 0
11, 385760, Control_c, 10, 11, 110
11, 385880, Control_c, 10, 11, 111
11, 385890, Note_on_c, 10, 55, 0
11, 385920, Note_on_c, 10, 53, 90
11, 386010, Control_c, 10, 11, 112
11, 386130, Control_c, 10, 11, 113
11, 386160, Note_on_c, 10, 55, 91
11, 386190, Note_on_c, 10, 53, 0
11, 386250, Control_c, 10, 11, 114
11, 386370, Control_c, 10, 11, 115
11, 386400, Note_on_c, 10, 53, 92
11, 386430, Note_on_c, 10, 55, 0
11, 386500, Control_c, 10, 11, 116
11, 386620, Control_c, 10, 11, 117
11, 386640, Note_on_c, 10, 55, 94
11, 386670, Note_on_c, 10, 53, 0
11, 386740, Control_c, 10, 11, 118
11, 386860, Control_c, 10, 11, 119
11, 386880, Note_on_c, 10, 53, 95
11, 386910, Note_on_c, 10, 55, 0
11, 386990, Control_c, 10, 11, 120
11, 387110, Control_c, 10, 11, 121
11, 387120, Note_on_c, 10, 55, 96
11, 387150, Note_on_c, 10, 53, 0
11, 387230, Control_c, 10, 11, 122
11, 387350, Control_c, 10, 11, 123
11, 387360, Note_on_c, 10, 53, 97
11, 387390, Note_on_c, 10, 55, 0
11, 387480, Control_c, 10, 11, 124
11, 387600, Note_on_c, 10, 55, 98
11, 387600, Control_c, 10, 11, 125
11, 387630, Note_on_c, 10, 53, 0
11, 387720, Control_c, 10, 11, 126
11, 387810, Note_on_c, 10, 55, 0
11, 387840, Note_on_c, 10, 60, 100
11, 387840, Control_c, 10, 11, 127
11, 387880, Control_c, 10, 11, 126
11, 387920, Control_c, 10, 11, 125
11, 387960, Control_c, 10, 11, 124
11, 388000, Control_c, 10, 11, 123
11, 388040, Control_c, 10, 11, 122
11, 388080, Note_on_c, 10, 55, 98
11, 388080, Control_c, 10, 11, 121
11, 388120, Control_c, 10, 11, 120
11, 388160, Control_c, 10, 11, 119
11, 388200, Control_c, 10, 11, 118
11, 388240, Control_c, 10, 11, 117
11, 388280, Control_c, 10, 11, 116
11, 388320, Note_on_c, 10, 48, 95
11, 388320, Control_c, 10, 11, 115
11, 388350, Note_on_c, 10, 60, 0
11, 388350, Control_c, 10, 11, 114
11, 388390, Control_c, 10, 11, 113
11, 388430, Control_c, 10, 11, 112
11, 388470, Control_c, 10, 11, 111
11, 388510, Control_c, 10, 11, 110
11, 388550, Control_c, 10, 11, 109
11, 388560, Note_on_c, 10, 60, 93
11, 388590, Note_on_c, 10, 48, 0
11, 388590, Control_c, 10, 11, 108
11, 388630, Control_c, 10, 11, 107
11, 388670, Control_c, 10, 11, 106
11, 388710, Control_c, 10, 11, 105
11, 388750, Control_c, 10, 11, 104
11, 388770, Note_on_c, 10, 55, 0
11, 388770, Note_on_c, 10, 60, 0
11, 388790, Control_c, 10, 11, 103
11, 388820, Control_c, 10, 11, 102
11, 388860, Control_c, 10, 11, 101
11, 388900, Control_c, 10, 11, 100
11, 388940, Control_c, 10, 11, 99
11, 388980, Control_c, 10, 11, 98
11, 389020, Control_c, 10, 11, 97
11, 389040, Note_on_c, 10, 58, 88
11, 389040, Note_on_c, 10, 60, 88
11, 389060, Control_c, 10, 11, 96
11, 389100, Control_c, 10, 11, 95
11, 389140, Control_c, 10, 11, 94
11, 389180, Control_c, 10, 11, 93
11, 389220, Control_c, 10, 11, 92
11, 389260, Control_c, 10, 11, 91
11, 389280, Note_on_c, 10, 55, 85
11, 389280, Note_on_c, 10, 60, 0
11, 389290, Control_c, 10, 11, 90
11, 389330, Control_c, 10, 11, 89
11, 389370, Control_c, 10, 11, 88
11, 389410, Control_c, 10, 11, 87
11, 389450, Control_c, 10, 11, 86
11, 389490, Control_c, 10, 11, 85
11, 389520, Note_on_c, 10, 55, 0
11, 389520, Note_on_c, 10, 60, 83
11, 389530, Control_c, 10, 11, 84
11, 389570, Control_c, 10, 11, 83
11, 389610, Control_c, 10, 11, 82
11, 389650, Control_c, 10, 11, 81
11, 389690, Control_c, 10, 11, 80
11, 389730, Note_on_c, 10, 58, 0
11, 389730, Note_on_c, 10, 60, 0
11, 390000, Note_on_c, 10, 56, 80
11, 390000, Note_on_c, 10, 60, 80
11, 390240, Note_on_c, 10, 53, 80
11, 390240, Note_on_c, 10, 60, 0
11, 390480, Note_on_c, 10, 53, 0
11, 390480, Note_on_c, 10, 60, 80
11, 390690, Note_on_c, 10, 56, 0
11, 390690, Note_on_c, 10, 60, 0
11, 390960, Note_on_c, 10, 55, 80
11, 390960, Note_on_c, 10, 60, 80
11, 391200, Note_on_c, 10, 51, 80
11, 391200, Note_on_c, 10, 60, 0
11, 391440, Note_on_c, 10, 51, 0
11, 391440, Note_on_c, 10, 60, 80
11, 391650, Note_on_c, 10, 55, 0
11, 391650, Note_on_c, 10, 60, 0
11, 391920, Note_on_c, 10, 53, 80
11, 391920, Note_on_c, 10, 60, 80
11, 392160, Note_on_c, 10, 48, 80
11, 392160, Note_on_c, 10, 60, 0
11, 392400, Note_on_c, 10, 48, 0
11, 392400, Note_on_c, 10, 60, 80
11, 392610, Note_on_c, 10, 53, 0
11, 392610, Note_on_c, 10, 60, 0
11, 392880, Note_on_c, 10, 55, 80
11, 392880, Note_on_c, 10, 60, 80
11, 393120, Note_on_c, 10, 51, 80
11, 393120, Note_on_c, 10, 60, 0
11, 393360, Note_on_c, 10, 51, 0
11, 393360, Note_on_c, 10, 60, 80
11, 393570, Note_on_c, 10, 55, 0
11, 393570, Note_on_c, 10, 60, 0
11, 393840, Note_on_c, 10, 56, 80
11, 393840, Note_on_c, 10, 60, 80
11, 394080, Note_on_c, 10, 50, 80
11, 394080, Note_on_c, 10, 60, 0
11, 394320, Note_on_c, 10, 50, 0
11, 394320, Note_on_c, 10, 60, 80
11, 394530, Note_on_c, 10, 56, 0
11, 394530, Note_on_c, 10, 60, 0
11, 394800, Note_on_c, 10, 57, 80
11, 394800, Note_on_c, 10, 60, 80
11, 395040, Note_on_c, 10, 51, 80
11, 395040, Note_on_c, 10, 60, 0
11, 395280, Note_on_c, 10, 51, 0
11, 395280, Note_on_c, 10, 60, 80
11, 395490, Note_on_c, 10, 57, 0
11, 395490, Note_on_c, 10, 60, 0
11, 395520, Note_on_c, 10, 55, 80
11, 395520, Note_on_c, 10, 59, 80
11, 395640, Note_on_c, 10, 55, 0
11, 395640, Note_on_c, 10, 59, 0
11, 395760, Note_on_c, 10, 67, 80
11, 395880, Note_on_c, 10, 67, 0
11, 396000, Note_on_c, 10, 68, 80
11, 396570, Note_on_c, 10, 68, 0
11, 396720, Note_on_c, 10, 68, 80
11, 396840, Note_on_c, 10, 68, 0
11, 396960, Note_on_c, 10, 67, 80
11, 397530, Note_on_c, 10, 67, 0
11, 397680, Note_on_c, 10, 67, 80
11, 397800, Note_on_c, 10, 67, 0
11, 397920, Note_on_c, 10, 68, 80
11, 398490, Note_on_c, 10, 68, 0
11, 398640, Note_on_c, 10, 68, 80
11, 398760, Note_on_c, 10, 68, 0
11, 398880, Note_on_c, 10, 67, 80
11, 399360, Control_c, 10, 11, 80
11, 399450, Note_on_c, 10, 67, 0
11, 399530, Control_c, 10, 11, 81
11, 399600, Note_on_c, 10, 67, 81
11, 399690, Control_c, 10, 11, 82
11, 399720, Note_on_c, 10, 67, 0
11, 399840, Note_on_c, 10, 68, 82
11, 399860, Control_c, 10, 11, 83
11, 400020, Control_c, 10, 11, 84
11, 400180, Control_c, 10, 11, 85
11, 400350, Control_c, 10, 11, 86
11, 400410, Note_on_c, 10, 68, 0
11, 400510, Control_c, 10, 11, 87
11, 400560, Note_on_c, 10, 68, 85
11, 400670, Control_c, 10, 11, 88
11, 400680, Note_on_c, 10, 68, 0
11, 400800, Note_on_c, 10, 67, 86
11, 400840, Control_c, 10, 11, 89
11, 401000, Control_c, 10, 11, 90
11, 401160, Control_c, 10, 11, 91
11, 401330, Control_c, 10, 11, 92
11, 401370, Note_on_c, 10, 67, 0
11, 401490, Control_c, 10, 11, 93
11, 401520, Note_on_c, 10, 67, 89
11, 401640, Note_on_c, 10, 67, 0
11, 401650, Control_c, 10, 11, 94
11, 401760, Note_on_c, 10, 68, 90
11, 401820, Control_c, 10, 11, 95
11, 401980, Control_c, 10, 11, 96
11, 402140, Control_c, 10, 11, 97
11, 402310, Control_c, 10, 11, 98
11, 402330, Note_on_c, 10, 68, 0
11, 402470, Control_c, 10, 11, 99
11, 402480, Note_on_c, 10, 68, 93
11, 402600, Note_on_c, 10, 68, 0
11, 402630, Control_c, 10, 11, 100
11, 402720, Note_on_c, 10, 67, 94
11, 402800, Control_c, 10, 11, 101
11, 402960, Control_c, 10, 11, 102
11, 403120, Control_c, 10, 11, 103
11, 403290, Note_on_c, 10, 67, 0
11, 403290, Control_c, 10, 11, 104
11, 403440, Note_on_c, 10, 67, 97
11, 403450, Control_c, 10, 11, 105
11, 403560, Note_on_c, 10, 67, 0
11, 403610, Control_c, 10, 11, 106
11, 403680, Note_on_c, 10, 68, 98
11, 403780, Control_c, 10, 11, 107
11, 403940, Control_c, 10, 11, 108
11, 404100, Control_c, 10, 11, 109
11, 404250, Note_on_c, 10, 68, 0
11, 404270, Control_c, 10, 11, 110
11, 404400, Note_on_c, 10, 68, 101
11, 404430, Control_c, 10, 11, 111
11, 404520, Note_on_c, 10, 68, 0
11, 404590, Control_c, 10, 11, 112
11, 404640, Note_on_c, 10, 67, 102
11, 404760, Control_c, 10, 11, 113
11, 404920, Control_c, 10, 11, 114
11, 405080, Control_c, 10, 11, 115
11, 405210, Note_on_c, 10, 67, 0
11, 405250, Control_c, 10, 11, 116
11, 405360, Note_on_c, 10, 67, 105
11, 405410, Control_c, 10, 11, 117
11, 405480, Note_on_c, 10, 67, 0
11, 405570, Control_c, 10, 11, 118
11, 405600, Note_on_c, 10, 68, 106
11, 405740, Control_c, 10, 11, 119
11, 405900, Control_c, 10, 11, 120
11, 406060, Control_c, 10, 11, 121
11, 406170, Note_on_c, 10, 68, 0
11, 406230, Control_c, 10, 11, 122
11, 406320, Note_on_c, 10, 68, 109
11, 406390, Control_c, 10, 11, 123
11, 406440, Note_on_c, 10, 68, 0
11, 406550, Control_c, 10, 11, 124
11, 406560, Note_on_c, 10, 67, 110
11, 406720, Control_c, 10, 11, 125
11, 406880, Control_c, 10, 11, 126
11, 406980, Note_on_c, 10, 67, 0
11, 407000, Control_c, 10, 11, 127
11, 407040, Note_on_c, 10, 59, 120
11, 408480, Note_on_c, 10, 59, 0
11, 408480, Note_on_c, 10, 60, 120
11, 408960, Note_on_c, 10, 60, 0
11, 408960, Note_on_c, 10, 67, 120
11, 410760, Note_on_c, 10, 67, 0
11, 410880, Note_on_c, 10, 59, 120
11, 412320, Note_on_c, 10, 59, 0
11, 412320, Note_on_c, 10, 60, 120
11, 412800, Note_on_c, 10, 60, 0
11, 412800, Note_on_c, 10, 67, 120
11, 414600, Note_on_c, 10, 67, 0
11, 414720, Note_on_c, 10, 58, 120
11, 414720, Note_on_c, 10, 64, 120
11, 416160, Note_on_c, 10, 56, 120
11, 416160, Note_on_c, 10, 58, 0
11, 416160, Note_on_c, 10, 64, 0
11, 416160, Note_on_c, 10, 65, 120
11, 416640, Note_on_c, 10, 55, 120
11, 416640, Note_on_c, 10, 56, 0
11, 416640, Note_on_c, 10, 58, 120
11, 416640, Note_on_c, 10, 65, 0
11, 417120, Note_on_c, 10, 53, 120
11, 417120, Note_on_c, 10, 55, 0
11, 417120, Note_on_c, 10, 58, 0
11, 417120, Note_on_c, 10, 60, 120
11, 417600, Note_on_c, 10, 53, 0
11, 417600, Note_on_c, 10, 55, 120
11, 417600, Note_on_c, 10, 58, 120
11, 417600, Note_on_c, 10, 60, 0
11, 418080, Note_on_c, 10, 53, 120
11, 418080, Note_on_c, 10, 55, 0
11, 418080, Note_on_c, 10, 58, 0
11, 418080, Note_on_c, 10, 60, 120
11, 418440, Note_on_c, 10, 53, 0
11, 418440, Note_on_c, 10, 60, 0
11, 418560, Note_on_c, 10, 58, 120
11, 418560, Note_on_c, 10, 64, 120
11, 420000, Note_on_c, 10, 56, 120
11, 420000, Note_on_c, 10, 58, 0
11, 420000, Note_on_c, 10, 64, 0
11, 420000, Note_on_c, 10, 65, 120
11, 420480, Note_on_c, 10, 55, 120
11, 420480, Note_on_c, 10, 56, 0
11, 420480, Note_on_c, 10, 58, 120
11, 420480, Note_on_c, 10, 65, 0
11, 420960, Note_on_c, 10, 53, 120
11, 420960, Note_on_c, 10, 55, 0
11, 420960, Note_on_c, 10, 58, 0
11, 420960, Note_on_c, 10, 60, 120
11, 421440, Note_on_c, 10, 53, 0
11, 421440, Note_on_c, 10, 55, 120
11, 421440, Note_on_c, 10, 58, 120
11, 421440, Note_on_c, 10, 60, 0
11, 421920, Note_on_c, 10, 53, 120
11, 421920, Note_on_c, 10, 55, 0
11, 421920, Note_on_c, 10, 58, 0
11, 421920, Note_on_c, 10, 60, 120
11, 422400, Note_on_c, 10, 53, 0
11, 422400, Note_on_c, 10, 60, 0
11, 423120, Note_on_c, 10, 53, 110
11, 423120, Note_on_c, 10, 56, 110
11, 423240, Note_on_c, 10, 53, 0
11, 423240, Note_on_c, 10, 56, 0
11, 423360, Note_on_c, 10, 53, 110
11, 423360, Note_on_c, 10, 56, 110
11, 423840, Note_on_c, 10, 54, 110
11, 423870, Note_on_c, 10, 53, 0
11, 424290, Note_on_c, 10, 54, 0
11, 424290, Note_on_c, 10, 56, 0
11, 425040, Note_on_c, 10, 53, 110
11, 425040, Note_on_c, 10, 56, 110
11, 425160, Note_on_c, 10, 53, 0
11, 425160, Note_on_c, 10, 56, 0
11, 425280, Note_on_c, 10, 53, 110
11, 425280, Note_on_c, 10, 56, 110
11, 425760, Note_on_c, 10, 54, 110
11, 425790, Note_on_c, 10, 53, 0
11, 426210, Note_on_c, 10, 54, 0
11, 426210, Note_on_c, 10, 56, 0
11, 426960, Note_on_c, 10, 53, 110
11, 426960, Note_on_c, 10, 56, 110
11, 427080, Note_on_c, 10, 53, 0
11, 427080, Note_on_c, 10, 56, 0
11, 427200, Note_on_c, 10, 53, 110
11, 427200, Note_on_c, 10, 56, 110
11, 427680, Note_on_c, 10, 54, 110
11, 427710, Note_on_c, 10, 53, 0
11, 428130, Note_on_c, 10, 54, 0
11, 428130, Note_on_c, 10, 56, 0
11, 428880, Note_on_c, 10, 53, 110
11, 428880, Note_on_c, 10, 56, 110
11, 429000, Note_on_c, 10, 53, 0
11, 429000, Note_on_c, 10, 56, 0
11, 429120, Note_on_c, 10, 53, 110
11, 429120, Note_on_c, 10, 56, 110
11, 429600, Note_on_c, 10, 54, 110
11, 429630, Note_on_c, 10, 53, 0
11, 430050, Note_on_c, 10, 54, 0
11, 430050, Note_on_c, 10, 56, 0
11, 430080, Note_on_c, 10, 61, 120
11, 430320, Note_on_c, 10, 61, 0
11, 430320, Note_on_c, 10, 65, 120
11, 430560, Note_on_c, 10, 61, 120
11, 430560, Note_on_c, 10, 65, 0
11, 431040, Note_on_c, 10, 59, 120
11, 431040, Note_on_c, 10, 61, 0
11, 431280, Note_on_c, 10, 59, 0
11, 431280, Note_on_c, 10, 62, 120
11, 431520, Note_on_c, 10, 59, 120
11, 431520, Note_on_c, 10, 62, 0
11, 432000, Note_on_c, 10, 58, 120
11, 432000, Note_on_c, 10, 59, 0
11, 432240, Note_on_c, 10, 58, 0
11, 432240, Note_on_c, 10, 60, 120
11, 432480, Note_on_c, 10, 58, 120
11, 432480, Note_on_c, 10, 60, 0
11, 432960, Note_on_c, 10, 57, 120
11, 432960, Note_on_c, 10, 58, 0
11, 433200, Note_on_c, 10, 57, 0
11, 433200, Note_on_c, 10, 60, 120
11, 433440, Note_on_c, 10, 57, 120
11, 433440, Note_on_c, 10, 60, 0
11, 433920, Note_on_c, 10, 53, 120
11, 433920, Note_on_c, 10, 57, 0
11, 434160, Note_on_c, 10, 53, 0
11, 434160, Note_on_c, 10, 59, 120
11, 434400, Note_on_c, 10, 53, 120
11, 434400, Note_on_c, 10, 59, 0
11, 434880, Note_on_c, 10, 53, 0
11, 434880, Note_on_c, 10, 56, 120
11, 435120, Note_on_c, 10, 56, 0
11, 435120, Note_on_c, 10, 60, 120
11, 435360, Note_on_c, 10, 56, 120
11, 435360, Note_on_c, 10, 60, 0
11, 435840, Note_on_c, 10, 56, 0
11, 435840, Note_on_c, 10, 56, 120
11, 436080, Note_on_c, 10, 56, 0
11, 436080, Note_on_c, 10, 62, 120
11, 436320, Note_on_c, 10, 56, 120
11, 436320, Note_on_c, 10, 62, 0
11, 437040, Note_on_c, 10, 56, 0
11, 437040, Note_on_c, 10, 60, 120
11, 437280, Note_on_c, 10, 56, 120
11, 437280, Note_on_c, 10, 60, 0
11, 437730, Note_on_c, 10, 56, 0
11, 437760, Note_on_c, 10, 55, 110
11, 437880, Note_on_c, 10, 55, 0
11, 438240, Note_on_c, 10, 55, 110
11, 438930, Note_on_c, 10, 55, 0
11, 438960, Note_on_c, 10, 56, 110
11, 439080, Note_on_c, 10, 56, 0
11, 439200, Note_on_c, 10, 56, 110
11, 439890, Note_on_c, 10, 56, 0
11, 439920, Note_on_c, 10, 56, 110
11, 440040, Note_on_c, 10, 56, 0
11, 440160, Note_on_c, 10, 53, 110
11, 440850, Note_on_c, 10, 53, 0
11, 440880, Note_on_c, 10, 53, 110
11, 441000, Note_on_c, 10, 53, 0
11, 441120, Note_on_c, 10, 55, 110
11, 441570, Note_on_c, 10, 55, 0
11, 441597, Control_c, 10, 11, 100
11, 441600, Note_on_c, 10, 48, 90
11, 442050, Note_on_c, 10, 48, 0
11, 445197, Control_c, 10, 11, 127
11, 445200, Note_on_c, 10, 59, 110
11, 445320, Note_on_c, 10, 59, 0
11, 445440, Note_on_c, 10, 60, 110
11, 445770, Note_on_c, 10, 60, 0
11, 449040, Note_on_c, 10, 59, 110
11, 449160, Note_on_c, 10, 59, 0
11, 449280, Note_on_c, 10, 60, 110
11, 449610, Note_on_c, 10, 60, 0
11, 449997, Control_c, 10, 11, 100
11, 456960, Note_on_c, 10, 48, 110
11, 457200, Note_on_c, 10, 48, 0
11, 457200, Note_on_c, 10, 51, 110
11, 457440, Note_on_c, 10, 51, 0
11, 457440, Note_on_c, 10, 55, 110
11, 457680, Note_on_c, 10, 55, 0
11, 457680, Note_on_c, 10, 56, 110
11, 457920, Note_on_c, 10, 56, 0
11, 457920, Note_on_c, 10, 58, 110
11, 458160, Note_on_c, 10, 58, 0
11, 458160, Note_on_c, 10, 62, 110
11, 458400, Note_on_c, 10, 62, 0
11, 458400, Note_on_c, 10, 66, 110
11, 458640, Note_on_c, 10, 66, 0
11, 458640, Note_on_c, 10, 67, 110
11, 458880, Note_on_c, 10, 56, 110
11, 458880, Note_on_c, 10, 67, 0
11, 459120, Note_on_c, 10, 56, 0
11, 459120, Note_on_c, 10, 60, 110
11, 459360, Note_on_c, 10, 60, 0
11, 459360, Note_on_c, 10, 64, 110
11, 459600, Note_on_c, 10, 64, 0
11, 459600, Note_on_c, 10, 65, 110
11, 459840, Note_on_c, 10, 55, 110
11, 459840, Note_on_c, 10, 65, 0
11, 460080, Note_on_c, 10, 55, 0
11, 460080, Note_on_c, 10, 58, 110
11, 460320, Note_on_c, 10, 58, 0
11, 460320, Note_on_c, 10, 62, 110
11, 460560, Note_on_c, 10, 62, 0
11, 460560, Note_on_c, 10, 63, 110
11, 460770, Note_on_c, 10, 63, 0
11, 460800, Note_on_c, 10, 53, 100
11, 461250, Note_on_c, 10, 53, 0
11, 462480, Control_c, 10, 11, 80
11, 483840, Note_on_c, 10, 60, 80
11, 484290, Note_on_c, 10, 60, 0
11, 485520, Note_on_c, 10, 60, 88
11, 485760, Note_on_c, 10, 65, 90
11, 485790, Note_on_c, 10, 60, 0
11, 486240, Note_on_c, 10, 65, 0
11, 487440, Note_on_c, 10, 53, 98
11, 487680, Note_on_c, 10, 51, 100
11, 487710, Note_on_c, 10, 53, 0
11, 489570, Note_on_c, 10, 51, 0
11, 489600, Note_on_c, 10, 54, 110
11, 491430, Note_on_c, 10, 54, 0
11, 491520, Note_on_c, 10, 53, 75
11, 493350, Note_on_c, 10, 53, 0
11, 493440, Note_on_c, 10, 56, 110
11, 495270, Note_on_c, 10, 56, 0
11, 495360, Note_on_c, 10, 55, 75
11, 497190, Note_on_c, 10, 55, 0
11, 497280, Note_on_c, 10, 58, 115
11, 497280, Note_on_c, 10, 64, 115
11, 499110, Note_on_c, 10, 58, 0
11, 499110, Note_on_c, 10, 64, 0
11, 499200, Note_on_c, 10, 56, 80
11, 499320, Note_on_c, 10, 56, 0
11, 499440, Note_on_c, 10, 65, 81
11, 499560, Note_on_c, 10, 65, 0
11, 499680, Note_on_c, 10, 65, 82
11, 500310, Note_on_c, 10, 65, 0
11, 500400, Note_on_c, 10, 63, 86
11, 500520, Note_on_c, 10, 63, 0
11, 500640, Note_on_c, 10, 63, 87
11, 501270, Note_on_c, 10, 63, 0
11, 501360, Note_on_c, 10, 68, 91
11, 501480, Note_on_c, 10, 68, 0
11, 501600, Note_on_c, 10, 68, 92
11, 502230, Note_on_c, 10, 68, 0
11, 502320, Note_on_c, 10, 67, 96
11, 502440, Note_on_c, 10, 67, 0
11, 502560, Note_on_c, 10, 67, 97
11, 503190, Note_on_c, 10, 67, 0
11, 503280, Note_on_c, 10, 65, 101
11, 503400, Note_on_c, 10, 65, 0
11, 503520, Note_on_c, 10, 65, 102
11, 504150, Note_on_c, 10, 65, 0
11, 504240, Note_on_c, 10, 63, 106
11, 504360, Note_on_c, 10, 63, 0
11, 504480, Note_on_c, 10, 63, 107
11, 505110, Note_on_c, 10, 63, 0
11, 505200, Note_on_c, 10, 68, 111
11, 505320, Note_on_c, 10, 68, 0
11, 505440, Note_on_c, 10, 68, 112
11, 506070, Note_on_c, 10, 68, 0
11, 506160, Note_on_c, 10, 67, 116
11, 506280, Note_on_c, 10, 67, 0
11, 506400, Note_on_c, 10, 67, 117
11, 506850, Note_on_c, 10, 67, 0
11, 507600, Note_on_c, 10, 62, 127
11, 507720, Note_on_c, 10, 62, 0
11, 507840, Note_on_c, 10, 63, 127
11, 507840, Control_c, 10, 11, 110
11, 508320, Control_c, 10, 11, 80
11, 508560, Note_on_c, 10, 62, 127
11, 508590, Note_on_c, 10, 63, 0
11, 508680, Note_on_c, 10, 62, 0
11, 509520, Note_on_c, 10, 62, 127
11, 509640, Note_on_c, 10, 62, 0
11, 509760, Note_on_c, 10, 63, 127
11, 509760, Control_c, 10, 11, 110
11, 510240, Control_c, 10, 11, 80
11, 510480, Note_on_c, 10, 62, 127
11, 510510, Note_on_c, 10, 63, 0
11, 510600, Note_on_c, 10, 62, 0
11, 511440, Note_on_c, 10, 64, 127
11, 511560, Note_on_c, 10, 64, 0
11, 511680, Note_on_c, 10, 65, 127
11, 511680, Control_c, 10, 11, 110
11, 512160, Control_c, 10, 11, 80
11, 512400, Note_on_c, 10, 64, 127
11, 512430, Note_on_c, 10, 65, 0
11, 512520, Note_on_c, 10, 64, 0
11, 513360, Note_on_c, 10, 64, 127
11, 513480, Note_on_c, 10, 64, 0
11, 513600, Note_on_c, 10, 65, 127
11, 513600, Control_c, 10, 11, 110
11, 514080, Control_c, 10, 11, 80
11, 514320, Note_on_c, 10, 64, 127
11, 514350, Note_on_c, 10, 65, 0
11, 514440, Note_on_c, 10, 64, 0
11, 515280, Note_on_c, 10, 64, 127
11, 515400, Note_on_c, 10, 64, 0
11, 515520, Note_on_c, 10, 67, 127
11, 515520, Control_c, 10, 11, 110
11, 516000, Control_c, 10, 11, 80
11, 516240, Note_on_c, 10, 65, 127
11, 516270, Note_on_c, 10, 67, 0
11, 516360, Note_on_c, 10, 65, 0
11, 517200, Note_on_c, 10, 65, 127
11, 517320, Note_on_c, 10, 65, 0
11, 517440, Note_on_c, 10, 68, 127
11, 517440, Control_c, 10, 11, 110
11, 517920, Control_c, 10, 11, 80
11, 518160, Note_on_c, 10, 67, 127
11, 518190, Note_on_c, 10, 68, 0
11, 518280, Note_on_c, 10, 67, 0
11, 518400, Note_on_c, 10, 67, 127
11, 525990, Note_on_c, 10, 67, 0
11, 526080, Note_on_c, 10, 67, 127
11, 526230, Note_on_c, 10, 67, 0
11, 526320, Note_on_c, 10, 59, 127
11, 526470, Note_on_c, 10, 59, 0
11, 526560, Note_on_c, 10, 60, 127
11, 526710, Note_on_c, 10, 60, 0
11, 526800, Note_on_c, 10, 55, 127
11, 526950, Note_on_c, 10, 55, 0
11, 527040, Note_on_c, 10, 60, 127
11, 527190, Note_on_c, 10, 60, 0
11, 527280, Note_on_c, 10, 59, 127
11, 527430, Note_on_c, 10, 59, 0
11, 527520, Note_on_c, 10, 60, 127
11, 527670, Note_on_c, 10, 60, 0
11, 527760, Note_on_c, 10, 55, 127
11, 527910, Note_on_c, 10, 55, 0
11, 528000, Note_on_c, 10, 60, 127
11, 528150, Note_on_c, 10, 60, 0
11, 528240, Note_on_c, 10, 59, 127
11, 528390, Note_on_c, 10, 59, 0
11, 528480, Note_on_c, 10, 60, 127
11, 528630, Note_on_c, 10, 60, 0
11, 528720, Note_on_c, 10, 55, 127
11, 528870, Note_on_c, 10, 55, 0
11, 529200, Note_on_c, 10, 59, 127
11, 529350, Note_on_c, 10, 59, 0
11, 529440, Note_on_c, 10, 60, 127
11, 529590, Note_on_c, 10, 60, 0
11, 529680, Note_on_c, 10, 55, 127
11, 529830, Note_on_c, 10, 55, 0
11, 529920, Note_on_c, 10, 48, 90
11, 529920, Control_c, 10, 11, 80
11, 529940, Control_c, 10, 11, 79
11, 529960, Control_c, 10, 11, 78
11, 529970, Control_c, 10, 11, 77
11, 529990, Control_c, 10, 11, 76
11, 530000, Control_c, 10, 11, 75
11, 530020, Control_c, 10, 11, 74
11, 530040, Control_c, 10, 11, 73
11, 530050, Control_c, 10, 11, 72
11, 530070, Control_c, 10, 11, 71
11, 530080, Control_c, 10, 11, 70
11, 530100, Control_c, 10, 11, 69
11, 530120, Control_c, 10, 11, 68
11, 530130, Control_c, 10, 11, 67
11, 530150, Control_c, 10, 11, 66
11, 530160, Control_c, 10, 11, 65
11, 530180, Control_c, 10, 11, 64
11, 530200, Control_c, 10, 11, 63
11, 530210, Control_c, 10, 11, 62
11, 530230, Control_c, 10, 11, 61
11, 530240, Control_c, 10, 11, 60
11, 530260, Control_c, 10, 11, 59
11, 530280, Control_c, 10, 11, 58
11, 530290, Control_c, 10, 11, 57
11, 530310, Control_c, 10, 11, 56
11, 530320, Control_c, 10, 11, 55
11, 530340, Control_c, 10, 11, 54
11, 530360, Control_c, 10, 11, 53
11, 530370, Control_c, 10, 11, 52
11, 530390, Control_c, 10, 11, 51
11, 530410, Control_c, 10, 11, 50
11, 530510, Control_c, 10, 11, 51
11, 530610, Control_c, 10, 11, 52
11, 530710, Control_c, 10, 11, 53
11, 530810, Control_c, 10, 11, 54
11, 530910, Control_c, 10, 11, 55
11, 531010, Control_c, 10, 11, 56
11, 531110, Control_c, 10, 11, 57
11, 531210, Control_c, 10, 11, 58
11, 531310, Control_c, 10, 11, 59
11, 531410, Control_c, 10, 11, 60
11, 531510, Control_c, 10, 11, 61
11, 531610, Control_c, 10, 11, 62
11, 531710, Control_c, 10, 11, 63
11, 531810, Control_c, 10, 11, 64
11, 531910, Control_c, 10, 11, 65
11, 532000, Control_c, 10, 11, 66
11, 532100, Control_c, 10, 11, 67
11, 532200, Control_c, 10, 11, 68
11, 532300, Control_c, 10, 11, 69
11, 532400, Control_c, 10, 11, 70
11, 532500, Control_c, 10, 11, 71
11, 532600, Control_c, 10, 11, 72
11, 532700, Control_c, 10, 11, 73
11, 532800, Control_c, 10, 11, 74
11, 532900, Control_c, 10, 11, 75
11, 533000, Control_c, 10, 11, 76
11, 533100, Control_c, 10, 11, 77
11, 533200, Control_c, 10, 11, 78
11, 533300, Control_c, 10, 11, 79
11, 533400, Control_c, 10, 11, 80
11, 533490, Note_on_c, 10, 48, 0
11, 533760, Note_on_c, 10, 53, 127
11, 533970, Note_on_c, 10, 53, 0
11, 537600, Note_on_c, 10, 48, 90
11, 537600, Control_c, 10, 11, 80
11, 537620, Control_c, 10, 11, 79
11, 537640, Control_c, 10, 11, 78
11, 537650, Control_c, 10, 11, 77
11, 537670, Control_c, 10, 11, 76
11, 537680, Control_c, 10, 11, 75
11, 537700, Control_c, 10, 11, 74
11, 537720, Control_c, 10, 11, 73
11, 537730, Control_c, 10, 11, 72
11, 537750, Control_c, 10, 11, 71
11, 537760, Control_c, 10, 11, 70
11, 537780, Control_c, 10, 11, 69
11, 537800, Control_c, 10, 11, 68
11, 537810, Control_c, 10, 11, 67
11, 537830, Control_c, 10, 11, 66
11, 537840, Control_c, 10, 11, 65
11, 537860, Control_c, 10, 11, 64
11, 537880, Control_c, 10, 11, 63
11, 537890, Control_c, 10, 11, 62
11, 537910, Control_c, 10, 11, 61
11, 537920, Control_c, 10, 11, 60
11, 537940, Control_c, 10, 11, 59
11, 537960, Control_c, 10, 11, 58
11, 537970, Control_c, 10, 11, 57
11, 537990, Control_c, 10, 11, 56
11, 538000, Control_c, 10, 11, 55
11, 538020, Control_c, 10, 11, 54
11, 538040, Control_c, 10, 11, 53
11, 538050, Control_c, 10, 11, 52
11, 538070, Control_c, 10, 11, 51
11, 538090, Control_c, 10, 11, 50
11, 538190, Control_c, 10, 11, 51
11, 538290, Control_c, 10, 11, 52
11, 538390, Control_c, 10, 11, 53
11, 538490, Control_c, 10, 11, 54
11, 538590, Control_c, 10, 11, 55
11, 538690, Control_c, 10, 11, 56
11, 538790, Control_c, 10, 11, 57
11, 538890, Control_c, 10, 11, 58
11, 538990, Control_c, 10, 11, 59
11, 539090, Control_c, 10, 11, 60
11, 539190, Control_c, 10, 11, 61
11, 539290, Control_c, 10, 11, 62
11, 539390, Control_c, 10, 11, 63
11, 539490, Control_c, 10, 11, 64
11, 539590, Control_c, 10, 11, 65
11, 539680, Control_c, 10, 11, 66
11, 539780, Control_c, 10, 11, 67
11, 539880, Control_c, 10, 11, 68
11, 539980, Control_c, 10, 11, 69
11, 540080, Control_c, 10, 11, 70
11, 540180, Control_c, 10, 11, 71
11, 540280, Control_c, 10, 11, 72
11, 540380, Control_c, 10, 11, 73
11, 540480, Control_c, 10, 11, 74
11, 540580, Control_c, 10, 11, 75
11, 540680, Control_c, 10, 11, 76
11, 540780, Control_c, 10, 11, 77
11, 540880, Control_c, 10, 11, 78
11, 540980, Control_c, 10, 11, 79
11, 541080, Control_c, 10, 11, 80
11, 541170, Note_on_c, 10, 48, 0
11, 541440, Note_on_c, 10, 53, 127
11, 541650, Note_on_c, 10, 53, 0
11, 545280, Note_on_c, 10, 48, 90
11, 545280, Control_c, 10, 11, 80
11, 545300, Control_c, 10, 11, 79
11, 545320, Control_c, 10, 11, 78
11, 545330, Control_c, 10, 11, 77
11, 545350, Control_c, 10, 11, 76
11, 545360, Control_c, 10, 11, 75
11, 545380, Control_c, 10, 11, 74
11, 545400, Control_c, 10, 11, 73
11, 545410, Control_c, 10, 11, 72
11, 545430, Control_c, 10, 11, 71
11, 545440, Control_c, 10, 11, 70
11, 545460, Control_c, 10, 11, 69
11, 545480, Control_c, 10, 11, 68
11, 545490, Control_c, 10, 11, 67
11, 545510, Control_c, 10, 11, 66
11, 545520, Control_c, 10, 11, 65
11, 545540, Control_c, 10, 11, 64
11, 545560, Control_c, 10, 11, 63
11, 545570, Control_c, 10, 11, 62
11, 545590, Control_c, 10, 11, 61
11, 545600, Control_c, 10, 11, 60
11, 545620, Control_c, 10, 11, 59
11, 545640, Control_c, 10, 11, 58
11, 545650, Control_c, 10, 11, 57
11, 545670, Control_c, 10, 11, 56
11, 545680, Control_c, 10, 11, 55
11, 545700, Control_c, 10, 11, 54
11, 545720, Control_c, 10, 11, 53
11, 545730, Control_c, 10, 11, 52
11, 545750, Control_c, 10, 11, 51
11, 545770, Control_c, 10, 11, 50
11, 545870, Control_c, 10, 11, 51
11, 545970, Control_c, 10, 11, 52
11, 546070, Control_c, 10, 11, 53
11, 546170, Control_c, 10, 11, 54
11, 546270, Control_c, 10, 11, 55
11, 546370, Control_c, 10, 11, 56
11, 546470, Control_c, 10, 11, 57
11, 546570, Control_c, 10, 11, 58
11, 546670, Control_c, 10, 11, 59
11, 546770, Control_c, 10, 11, 60
11, 546870, Control_c, 10, 11, 61
11, 546970, Control_c, 10, 11, 62
11, 547070, Control_c, 10, 11, 63
11, 547170, Control_c, 10, 11, 64
11, 547270, Control_c, 10, 11, 65
11, 547360, Control_c, 10, 11, 66
11, 547460, Control_c, 10, 11, 67
11, 547560, Control_c, 10, 11, 68
11, 547660, Control_c, 10, 11, 69
11, 547760, Control_c, 10, 11, 70
11, 547860, Control_c, 10, 11, 71
11, 547960, Control_c, 10, 11, 72
11, 548060, Control_c, 10, 11, 73
11, 548160, Control_c, 10, 11, 74
11, 548260, Control_c, 10, 11, 75
11, 548360, Control_c, 10, 11, 76
11, 548460, Control_c, 10, 11, 77
11, 548560, Control_c, 10, 11, 78
11, 548660, Control_c, 10, 11, 79
11, 548760, Control_c, 10, 11, 80
11, 548850, Note_on_c, 10, 48, 0
11, 549120, Note_on_c, 10, 54, 127
11, 549330, Note_on_c, 10, 54, 0
11, 549600, Note_on_c, 10, 53, 127
11, 549840, Note_on_c, 10, 53, 0
11, 552960, Note_on_c, 10, 51, 127
11, 553170, Note_on_c, 10, 51, 0
11, 553440, Note_on_c, 10, 52, 127
11, 553650, Note_on_c, 10, 52, 0
11, 554880, Note_on_c, 10, 53, 127
11, 555090, Note_on_c, 10, 53, 0
11, 555360, Note_on_c, 10, 55, 127
11, 555570, Note_on_c, 10, 55, 0
11, 556800, Note_on_c, 10, 56, 90
11, 557160, Note_on_c, 10, 56, 0
11, 557760, Note_on_c, 10, 55, 83
11, 558120, Note_on_c, 10, 55, 0
11, 560640, Note_on_c, 10, 60, 60
11, 561060, Note_on_c, 10, 60, 0
11, 564480, Note_on_c, 10, 55, 60
11, 564930, Note_on_c, 10, 55, 0
11, 568320, Note_on_c, 10, 48, 60
11, 568770, Note_on_c, 10, 48, 0
11, 599040, Note_on_c, 10, 48, 40
11, 599490, Note_on_c, 10, 48, 0
11, 600960, Note_on_c, 10, 48, 40
11, 601410, Note_on_c, 10, 48, 0
11, 602880, Note_on_c, 10, 48, 40
11, 603330, Note_on_c, 10, 48, 0
11, 603330, End_track
12, 0, Start_track
12, 0, Channel_prefix, 11
12, 0, Title_t, "Cello   "
12, 0, Instrument_name_t, "Violoncello"
12, 1920, Control_c, 11, 11, 80
12, 1940, Control_c, 11, 11, 79
12, 1960, Control_c, 11, 11, 78
12, 1970, Control_c, 11, 11, 77
12, 1990, Control_c, 11, 11, 76
12, 2000, Control_c, 11, 11, 75
12, 2020, Control_c, 11, 11, 74
12, 2040, Control_c, 11, 11, 73
12, 2050, Control_c, 11, 11, 72
12, 2070, Control_c, 11, 11, 71
12, 2080, Control_c, 11, 11, 70
12, 2100, Control_c, 11, 11, 69
12, 2120, Control_c, 11, 11, 68
12, 2130, Control_c, 11, 11, 67
12, 2150, Control_c, 11, 11, 66
12, 2160, Control_c, 11, 11, 65
12, 2180, Control_c, 11, 11, 64
12, 2200, Control_c, 11, 11, 63
12, 2210, Control_c, 11, 11, 62
12, 2230, Control_c, 11, 11, 61
12, 2240, Control_c, 11, 11, 60
12, 2260, Control_c, 11, 11, 59
12, 2280, Control_c, 11, 11, 58
12, 2290, Control_c, 11, 11, 57
12, 2310, Control_c, 11, 11, 56
12, 2320, Control_c, 11, 11, 55
12, 2340, Control_c, 11, 11, 54
12, 2360, Control_c, 11, 11, 53
12, 2370, Control_c, 11, 11, 52
12, 2390, Control_c, 11, 11, 51
12, 2410, Control_c, 11, 11, 50
12, 2470, Control_c, 11, 11, 51
12, 2520, Control_c, 11, 11, 52
12, 2570, Control_c, 11, 11, 53
12, 2620, Control_c, 11, 11, 54
12, 2670, Control_c, 11, 11, 55
12, 2720, Control_c, 11, 11, 56
12, 2770, Control_c, 11, 11, 57
12, 2820, Control_c, 11, 11, 58
12, 2870, Control_c, 11, 11, 59
12, 2920, Control_c, 11, 11, 60
12, 2970, Control_c, 11, 11, 61
12, 3020, Control_c, 11, 11, 62
12, 3070, Control_c, 11, 11, 63
12, 3120, Control_c, 11, 11, 64
12, 3170, Control_c, 11, 11, 65
12, 3220, Control_c, 11, 11, 66
12, 3270, Control_c, 11, 11, 67
12, 3320, Control_c, 11, 11, 68
12, 3370, Control_c, 11, 11, 69
12, 3420, Control_c, 11, 11, 70
12, 3480, Control_c, 11, 11, 71
12, 3530, Control_c, 11, 11, 72
12, 3580, Control_c, 11, 11, 73
12, 3630, Control_c, 11, 11, 74
12, 3680, Control_c, 11, 11, 75
12, 3730, Control_c, 11, 11, 76
12, 3780, Control_c, 11, 11, 77
12, 3830, Control_c, 11, 11, 78
12, 3880, Control_c, 11, 11, 79
12, 3930, Control_c, 11, 11, 80
12, 3980, Control_c, 11, 11, 81
12, 4030, Control_c, 11, 11, 82
12, 4080, Control_c, 11, 11, 83
12, 4130, Control_c, 11, 11, 84
12, 4180, Control_c, 11, 11, 85
12, 4230, Control_c, 11, 11, 86
12, 4280, Control_c, 11, 11, 87
12, 4330, Control_c, 11, 11, 88
12, 4380, Control_c, 11, 11, 89
12, 4430, Control_c, 11, 11, 90
12, 4490, Control_c, 11, 11, 91
12, 4540, Control_c, 11, 11, 92
12, 4590, Control_c, 11, 11, 93
12, 4640, Control_c, 11, 11, 94
12, 4690, Control_c, 11, 11, 95
12, 4740, Control_c, 11, 11, 96
12, 4790, Control_c, 11, 11, 97
12, 4840, Control_c, 11, 11, 98
12, 4890, Control_c, 11, 11, 99
12, 4940, Control_c, 11, 11, 100
12, 4990, Control_c, 11, 11, 101
12, 5040, Control_c, 11, 11, 102
12, 5090, Control_c, 11, 11, 103
12, 5140, Control_c, 11, 11, 104
12, 5190, Control_c, 11, 11, 105
12, 5240, Control_c, 11, 11, 106
12, 5290, Control_c, 11, 11, 107
12, 5340, Control_c, 11, 11, 108
12, 5390, Control_c, 11, 11, 109
12, 5440, Control_c, 11, 11, 110
12, 5760, Note_on_c, 11, 41, 95
12, 5910, Note_on_c, 11, 41, 0
12, 9594, Control_c, 11, 11, 80
12, 9620, Control_c, 11, 11, 79
12, 9640, Control_c, 11, 11, 78
12, 9650, Control_c, 11, 11, 77
12, 9670, Control_c, 11, 11, 76
12, 9680, Control_c, 11, 11, 75
12, 9700, Control_c, 11, 11, 74
12, 9720, Control_c, 11, 11, 73
12, 9730, Control_c, 11, 11, 72
12, 9750, Control_c, 11, 11, 71
12, 9760, Control_c, 11, 11, 70
12, 9780, Control_c, 11, 11, 69
12, 9800, Control_c, 11, 11, 68
12, 9810, Control_c, 11, 11, 67
12, 9830, Control_c, 11, 11, 66
12, 9840, Control_c, 11, 11, 65
12, 9860, Control_c, 11, 11, 64
12, 9880, Control_c, 11, 11, 63
12, 9890, Control_c, 11, 11, 62
12, 9910, Control_c, 11, 11, 61
12, 9920, Control_c, 11, 11, 60
12, 9940, Control_c, 11, 11, 59
12, 9960, Control_c, 11, 11, 58
12, 9970, Control_c, 11, 11, 57
12, 9990, Control_c, 11, 11, 56
12, 10000, Control_c, 11, 11, 55
12, 10020, Control_c, 11, 11, 54
12, 10040, Control_c, 11, 11, 53
12, 10050, Control_c, 11, 11, 52
12, 10070, Control_c, 11, 11, 51
12, 10090, Control_c, 11, 11, 50
12, 10150, Control_c, 11, 11, 51
12, 10200, Control_c, 11, 11, 52
12, 10250, Control_c, 11, 11, 53
12, 10300, Control_c, 11, 11, 54
12, 10350, Control_c, 11, 11, 55
12, 10400, Control_c, 11, 11, 56
12, 10450, Control_c, 11, 11, 57
12, 10500, Control_c, 11, 11, 58
12, 10550, Control_c, 11, 11, 59
12, 10600, Control_c, 11, 11, 60
12, 10650, Control_c, 11, 11, 61
12, 10700, Control_c, 11, 11, 62
12, 10750, Control_c, 11, 11, 63
12, 10800, Control_c, 11, 11, 64
12, 10850, Control_c, 11, 11, 65
12, 10900, Control_c, 11, 11, 66
12, 10950, Control_c, 11, 11, 67
12, 11000, Control_c, 11, 11, 68
12, 11050, Control_c, 11, 11, 69
12, 11100, Control_c, 11, 11, 70
12, 11160, Control_c, 11, 11, 71
12, 11210, Control_c, 11, 11, 72
12, 11260, Control_c, 11, 11, 73
12, 11310, Control_c, 11, 11, 74
12, 11360, Control_c, 11, 11, 75
12, 11410, Control_c, 11, 11, 76
12, 11460, Control_c, 11, 11, 77
12, 11510, Control_c, 11, 11, 78
12, 11560, Control_c, 11, 11, 79
12, 11610, Control_c, 11, 11, 80
12, 11660, Control_c, 11, 11, 81
12, 11710, Control_c, 11, 11, 82
12, 11760, Control_c, 11, 11, 83
12, 11810, Control_c, 11, 11, 84
12, 11860, Control_c, 11, 11, 85
12, 11910, Control_c, 11, 11, 86
12, 11960, Control_c, 11, 11, 87
12, 12010, Control_c, 11, 11, 88
12, 12060, Control_c, 11, 11, 89
12, 12110, Control_c, 11, 11, 90
12, 12170, Control_c, 11, 11, 91
12, 12220, Control_c, 11, 11, 92
12, 12270, Control_c, 11, 11, 93
12, 12320, Control_c, 11, 11, 94
12, 12370, Control_c, 11, 11, 95
12, 12420, Control_c, 11, 11, 96
12, 12470, Control_c, 11, 11, 97
12, 12520, Control_c, 11, 11, 98
12, 12570, Control_c, 11, 11, 99
12, 12620, Control_c, 11, 11, 100
12, 12670, Control_c, 11, 11, 101
12, 12720, Control_c, 11, 11, 102
12, 12770, Control_c, 11, 11, 103
12, 12820, Control_c, 11, 11, 104
12, 12870, Control_c, 11, 11, 105
12, 12920, Control_c, 11, 11, 106
12, 12970, Control_c, 11, 11, 107
12, 13020, Control_c, 11, 11, 108
12, 13070, Control_c, 11, 11, 109
12, 13120, Control_c, 11, 11, 110
12, 13440, Note_on_c, 11, 41, 95
12, 13440, Note_on_c, 11, 86, 95
12, 13590, Note_on_c, 11, 41, 0
12, 13590, Note_on_c, 11, 86, 0
12, 17274, Control_c, 11, 11, 80
12, 17300, Control_c, 11, 11, 79
12, 17320, Control_c, 11, 11, 78
12, 17330, Control_c, 11, 11, 77
12, 17350, Control_c, 11, 11, 76
12, 17360, Control_c, 11, 11, 75
12, 17380, Control_c, 11, 11, 74
12, 17400, Control_c, 11, 11, 73
12, 17410, Control_c, 11, 11, 72
12, 17430, Control_c, 11, 11, 71
12, 17440, Control_c, 11, 11, 70
12, 17460, Control_c, 11, 11, 69
12, 17480, Control_c, 11, 11, 68
12, 17490, Control_c, 11, 11, 67
12, 17510, Control_c, 11, 11, 66
12, 17520, Control_c, 11, 11, 65
12, 17540, Control_c, 11, 11, 64
12, 17560, Control_c, 11, 11, 63
12, 17570, Control_c, 11, 11, 62
12, 17590, Control_c, 11, 11, 61
12, 17600, Control_c, 11, 11, 60
12, 17620, Control_c, 11, 11, 59
12, 17640, Control_c, 11, 11, 58
12, 17650, Control_c, 11, 11, 57
12, 17670, Control_c, 11, 11, 56
12, 17680, Control_c, 11, 11, 55
12, 17700, Control_c, 11, 11, 54
12, 17720, Control_c, 11, 11, 53
12, 17730, Control_c, 11, 11, 52
12, 17750, Control_c, 11, 11, 51
12, 17770, Control_c, 11, 11, 50
12, 17830, Control_c, 11, 11, 51
12, 17880, Control_c, 11, 11, 52
12, 17930, Control_c, 11, 11, 53
12, 17980, Control_c, 11, 11, 54
12, 18030, Control_c, 11, 11, 55
12, 18080, Control_c, 11, 11, 56
12, 18130, Control_c, 11, 11, 57
12, 18180, Control_c, 11, 11, 58
12, 18230, Control_c, 11, 11, 59
12, 18280, Control_c, 11, 11, 60
12, 18330, Control_c, 11, 11, 61
12, 18380, Control_c, 11, 11, 62
12, 18430, Control_c, 11, 11, 63
12, 18480, Control_c, 11, 11, 64
12, 18530, Control_c, 11, 11, 65
12, 18580, Control_c, 11, 11, 66
12, 18630, Control_c, 11, 11, 67
12, 18680, Control_c, 11, 11, 68
12, 18730, Control_c, 11, 11, 69
12, 18780, Control_c, 11, 11, 70
12, 18840, Control_c, 11, 11, 71
12, 18890, Control_c, 11, 11, 72
12, 18940, Control_c, 11, 11, 73
12, 18990, Control_c, 11, 11, 74
12, 19040, Control_c, 11, 11, 75
12, 19090, Control_c, 11, 11, 76
12, 19140, Control_c, 11, 11, 77
12, 19190, Control_c, 11, 11, 78
12, 19240, Control_c, 11, 11, 79
12, 19290, Control_c, 11, 11, 80
12, 19340, Control_c, 11, 11, 81
12, 19390, Control_c, 11, 11, 82
12, 19440, Control_c, 11, 11, 83
12, 19490, Control_c, 11, 11, 84
12, 19540, Control_c, 11, 11, 85
12, 19590, Control_c, 11, 11, 86
12, 19640, Control_c, 11, 11, 87
12, 19690, Control_c, 11, 11, 88
12, 19740, Control_c, 11, 11, 89
12, 19790, Control_c, 11, 11, 90
12, 19850, Control_c, 11, 11, 91
12, 19900, Control_c, 11, 11, 92
12, 19950, Control_c, 11, 11, 93
12, 20000, Control_c, 11, 11, 94
12, 20050, Control_c, 11, 11, 95
12, 20100, Control_c, 11, 11, 96
12, 20150, Control_c, 11, 11, 97
12, 20200, Control_c, 11, 11, 98
12, 20250, Control_c, 11, 11, 99
12, 20300, Control_c, 11, 11, 100
12, 20350, Control_c, 11, 11, 101
12, 20400, Control_c, 11, 11, 102
12, 20450, Control_c, 11, 11, 103
12, 20500, Control_c, 11, 11, 104
12, 20550, Control_c, 11, 11, 105
12, 20600, Control_c, 11, 11, 106
12, 20650, Control_c, 11, 11, 107
12, 20700, Control_c, 11, 11, 108
12, 20750, Control_c, 11, 11, 109
12, 20800, Control_c, 11, 11, 110
12, 21120, Note_on_c, 11, 42, 95
12, 21270, Note_on_c, 11, 42, 0
12, 24960, Note_on_c, 11, 43, 95
12, 25170, Note_on_c, 11, 43, 0
12, 26880, Note_on_c, 11, 43, 95
12, 27120, Note_on_c, 11, 43, 0
12, 28800, Note_on_c, 11, 48, 80
12, 29250, Note_on_c, 11, 48, 0
12, 30720, Note_on_c, 11, 48, 80
12, 31170, Note_on_c, 11, 48, 0
12, 32640, Note_on_c, 11, 48, 80
12, 33090, Note_on_c, 11, 48, 0
12, 36480, Note_on_c, 11, 60, 80
12, 36480, Control_c, 11, 11, 80
12, 36590, Control_c, 11, 11, 81
12, 36700, Control_c, 11, 11, 82
12, 36810, Control_c, 11, 11, 83
12, 36920, Control_c, 11, 11, 84
12, 37030, Control_c, 11, 11, 85
12, 37140, Control_c, 11, 11, 86
12, 37170, Note_on_c, 11, 60, 0
12, 37200, Note_on_c, 11, 60, 87
12, 37240, Control_c, 11, 11, 87
12, 37350, Control_c, 11, 11, 88
12, 37410, Note_on_c, 11, 60, 0
12, 37440, Note_on_c, 11, 58, 90
12, 37460, Control_c, 11, 11, 89
12, 37570, Control_c, 11, 11, 90
12, 37680, Control_c, 11, 11, 91
12, 37790, Control_c, 11, 11, 92
12, 37890, Control_c, 11, 11, 93
12, 38000, Control_c, 11, 11, 94
12, 38110, Control_c, 11, 11, 95
12, 38130, Note_on_c, 11, 58, 0
12, 38160, Note_on_c, 11, 58, 97
12, 38220, Control_c, 11, 11, 96
12, 38330, Control_c, 11, 11, 97
12, 38370, Note_on_c, 11, 58, 0
12, 38400, Note_on_c, 11, 56, 100
12, 38440, Control_c, 11, 11, 98
12, 38540, Control_c, 11, 11, 99
12, 38650, Control_c, 11, 11, 100
12, 38760, Control_c, 11, 11, 101
12, 38870, Control_c, 11, 11, 102
12, 38980, Control_c, 11, 11, 103
12, 39090, Note_on_c, 11, 56, 0
12, 39090, Control_c, 11, 11, 104
12, 39120, Note_on_c, 11, 56, 107
12, 39190, Control_c, 11, 11, 105
12, 39300, Control_c, 11, 11, 106
12, 39330, Note_on_c, 11, 56, 0
12, 39360, Note_on_c, 11, 55, 110
12, 39410, Control_c, 11, 11, 107
12, 39520, Control_c, 11, 11, 108
12, 39630, Control_c, 11, 11, 109
12, 39690, Note_on_c, 11, 55, 0
12, 39740, Control_c, 11, 11, 110
12, 40317, Control_c, 11, 11, 80
12, 42240, Note_on_c, 11, 46, 80
12, 42390, Note_on_c, 11, 46, 0
12, 42480, Note_on_c, 11, 49, 80
12, 42630, Note_on_c, 11, 49, 0
12, 44160, Note_on_c, 11, 46, 80
12, 44310, Note_on_c, 11, 46, 0
12, 44400, Note_on_c, 11, 49, 80
12, 44550, Note_on_c, 11, 49, 0
12, 46080, Note_on_c, 11, 46, 80
12, 46230, Note_on_c, 11, 46, 0
12, 46320, Note_on_c, 11, 49, 80
12, 46470, Note_on_c, 11, 49, 0
12, 49920, Note_on_c, 11, 58, 84
12, 49920, Control_c, 11, 11, 80
12, 50030, Control_c, 11, 11, 81
12, 50140, Control_c, 11, 11, 82
12, 50250, Control_c, 11, 11, 83
12, 50360, Control_c, 11, 11, 84
12, 50470, Control_c, 11, 11, 85
12, 50580, Control_c, 11, 11, 86
12, 50610, Note_on_c, 11, 58, 0
12, 50640, Note_on_c, 11, 58, 80
12, 50680, Control_c, 11, 11, 87
12, 50790, Control_c, 11, 11, 88
12, 50850, Note_on_c, 11, 58, 0
12, 50880, Note_on_c, 11, 56, 84
12, 50900, Control_c, 11, 11, 89
12, 51010, Control_c, 11, 11, 90
12, 51120, Control_c, 11, 11, 91
12, 51230, Control_c, 11, 11, 92
12, 51330, Control_c, 11, 11, 93
12, 51440, Control_c, 11, 11, 94
12, 51550, Control_c, 11, 11, 95
12, 51570, Note_on_c, 11, 56, 0
12, 51600, Note_on_c, 11, 56, 80
12, 51660, Control_c, 11, 11, 96
12, 51770, Control_c, 11, 11, 97
12, 51810, Note_on_c, 11, 56, 0
12, 51840, Note_on_c, 11, 55, 99
12, 51880, Control_c, 11, 11, 98
12, 51980, Control_c, 11, 11, 99
12, 52090, Control_c, 11, 11, 100
12, 52200, Control_c, 11, 11, 101
12, 52230, Note_on_c, 11, 55, 0
12, 52310, Control_c, 11, 11, 102
12, 52320, Note_on_c, 11, 55, 110
12, 52420, Control_c, 11, 11, 103
12, 52530, Control_c, 11, 11, 104
12, 52630, Control_c, 11, 11, 105
12, 52650, Note_on_c, 11, 55, 0
12, 52740, Control_c, 11, 11, 106
12, 52850, Control_c, 11, 11, 107
12, 52960, Control_c, 11, 11, 108
12, 53070, Control_c, 11, 11, 109
12, 53180, Control_c, 11, 11, 110
12, 53757, Control_c, 11, 11, 80
12, 55680, Note_on_c, 11, 56, 80
12, 56370, Note_on_c, 11, 56, 0
12, 56400, Note_on_c, 11, 56, 80
12, 56610, Note_on_c, 11, 56, 0
12, 56640, Note_on_c, 11, 55, 80
12, 57330, Note_on_c, 11, 55, 0
12, 57360, Note_on_c, 11, 55, 80
12, 57570, Note_on_c, 11, 55, 0
12, 57600, Note_on_c, 11, 53, 80
12, 57600, Control_c, 11, 11, 80
12, 57970, Control_c, 11, 11, 81
12, 58340, Control_c, 11, 11, 83
12, 58700, Control_c, 11, 11, 84
12, 59010, Note_on_c, 11, 53, 0
12, 59040, Note_on_c, 11, 55, 85
12, 59070, Control_c, 11, 11, 86
12, 59430, Control_c, 11, 11, 87
12, 59490, Note_on_c, 11, 55, 0
12, 59520, Note_on_c, 11, 53, 87
12, 59800, Control_c, 11, 11, 89
12, 60160, Control_c, 11, 11, 90
12, 60530, Control_c, 11, 11, 92
12, 60900, Control_c, 11, 11, 93
12, 60930, Note_on_c, 11, 53, 0
12, 60960, Note_on_c, 11, 55, 93
12, 61260, Control_c, 11, 11, 95
12, 61410, Note_on_c, 11, 55, 0
12, 61440, Note_on_c, 11, 53, 95
12, 61630, Control_c, 11, 11, 97
12, 61990, Control_c, 11, 11, 98
12, 62130, Note_on_c, 11, 53, 0
12, 62160, Note_on_c, 11, 55, 97
12, 62360, Control_c, 11, 11, 100
12, 62370, Note_on_c, 11, 55, 0
12, 62400, Note_on_c, 11, 53, 98
12, 62720, Control_c, 11, 11, 101
12, 63090, Note_on_c, 11, 53, 0
12, 63090, Control_c, 11, 11, 103
12, 63120, Note_on_c, 11, 55, 101
12, 63330, Note_on_c, 11, 55, 0
12, 63360, Note_on_c, 11, 53, 102
12, 63460, Control_c, 11, 11, 104
12, 63820, Control_c, 11, 11, 106
12, 64050, Note_on_c, 11, 53, 0
12, 64080, Note_on_c, 11, 55, 105
12, 64190, Control_c, 11, 11, 107
12, 64290, Note_on_c, 11, 55, 0
12, 64320, Note_on_c, 11, 53, 106
12, 64550, Control_c, 11, 11, 109
12, 64920, Control_c, 11, 11, 110
12, 65010, Note_on_c, 11, 53, 0
12, 65040, Note_on_c, 11, 55, 109
12, 65250, Note_on_c, 11, 55, 0
12, 65280, Note_on_c, 11, 56, 110
12, 67680, Note_on_c, 11, 55, 110
12, 67710, Note_on_c, 11, 56, 0
12, 68160, Note_on_c, 11, 53, 110
12, 68190, Note_on_c, 11, 55, 0
12, 68640, Note_on_c, 11, 51, 110
12, 68670, Note_on_c, 11, 53, 0
12, 69090, Note_on_c, 11, 51, 0
12, 69120, Note_on_c, 11, 50, 110
12, 69810, Note_on_c, 11, 50, 0
12, 70080, Note_on_c, 11, 48, 110
12, 70770, Note_on_c, 11, 48, 0
12, 71040, Note_on_c, 11, 47, 110
12, 71730, Note_on_c, 11, 47, 0
12, 72000, Note_on_c, 11, 48, 110
12, 72690, Note_on_c, 11, 48, 0
12, 72960, Note_on_c, 11, 46, 110
12, 73650, Note_on_c, 11, 46, 0
12, 73920, Note_on_c, 11, 44, 110
12, 74610, Note_on_c, 11, 44, 0
12, 74880, Note_on_c, 11, 43, 110
12, 75570, Note_on_c, 11, 43, 0
12, 75840, Note_on_c, 11, 41, 110
12, 76530, Note_on_c, 11, 41, 0
12, 76800, Note_on_c, 11, 42, 90
12, 77730, Note_on_c, 11, 42, 0
12, 78720, Note_on_c, 11, 42, 90
12, 79650, Note_on_c, 11, 42, 0
12, 80640, Note_on_c, 11, 41, 90
12, 81570, Note_on_c, 11, 41, 0
12, 81600, Note_on_c, 11, 47, 90
12, 81750, Note_on_c, 11, 47, 0
12, 82560, Note_on_c, 11, 41, 90
12, 83490, Note_on_c, 11, 41, 0
12, 83520, Note_on_c, 11, 47, 90
12, 83670, Note_on_c, 11, 47, 0
12, 84480, Note_on_c, 11, 40, 90
12, 85410, Note_on_c, 11, 40, 0
12, 85440, Note_on_c, 11, 46, 90
12, 85590, Note_on_c, 11, 46, 0
12, 86400, Note_on_c, 11, 39, 90
12, 87330, Note_on_c, 11, 39, 0
12, 87360, Note_on_c, 11, 45, 90
12, 87510, Note_on_c, 11, 45, 0
12, 87600, Note_on_c, 11, 48, 90
12, 87750, Note_on_c, 11, 48, 0
12, 87840, Note_on_c, 11, 48, 90
12, 88080, Note_on_c, 11, 46, 90
12, 88110, Note_on_c, 11, 48, 0
12, 88290, Note_on_c, 11, 46, 0
12, 88320, Note_on_c, 11, 38, 100
12, 88770, Note_on_c, 11, 38, 0
12, 88800, Note_on_c, 11, 45, 100
12, 88950, Note_on_c, 11, 45, 0
12, 89040, Note_on_c, 11, 48, 100
12, 89190, Note_on_c, 11, 48, 0
12, 89280, Note_on_c, 11, 48, 100
12, 89520, Note_on_c, 11, 46, 100
12, 89550, Note_on_c, 11, 48, 0
12, 89730, Note_on_c, 11, 46, 0
12, 89760, Note_on_c, 11, 39, 120
12, 90240, Note_on_c, 11, 38, 100
12, 90270, Note_on_c, 11, 39, 0
12, 90690, Note_on_c, 11, 38, 0
12, 90720, Note_on_c, 11, 45, 100
12, 90870, Note_on_c, 11, 45, 0
12, 90960, Note_on_c, 11, 48, 100
12, 91110, Note_on_c, 11, 48, 0
12, 91200, Note_on_c, 11, 48, 100
12, 91440, Note_on_c, 11, 46, 100
12, 91470, Note_on_c, 11, 48, 0
12, 91650, Note_on_c, 11, 46, 0
12, 91680, Note_on_c, 11, 39, 120
12, 92160, Note_on_c, 11, 38, 100
12, 92190, Note_on_c, 11, 39, 0
12, 92610, Note_on_c, 11, 38, 0
12, 92640, Note_on_c, 11, 45, 100
12, 92790, Note_on_c, 11, 45, 0
12, 92880, Note_on_c, 11, 48, 100
12, 93030, Note_on_c, 11, 48, 0
12, 93120, Note_on_c, 11, 48, 100
12, 93360, Note_on_c, 11, 46, 100
12, 93390, Note_on_c, 11, 48, 0
12, 93570, Note_on_c, 11, 46, 0
12, 93600, Note_on_c, 11, 39, 120
12, 94080, Note_on_c, 11, 38, 100
12, 94110, Note_on_c, 11, 39, 0
12, 94530, Note_on_c, 11, 38, 0
12, 94560, Note_on_c, 11, 45, 100
12, 94710, Note_on_c, 11, 45, 0
12, 94800, Note_on_c, 11, 48, 100
12, 94950, Note_on_c, 11, 48, 0
12, 95040, Note_on_c, 11, 48, 100
12, 95280, Note_on_c, 11, 46, 100
12, 95310, Note_on_c, 11, 48, 0
12, 95490, Note_on_c, 11, 46, 0
12, 95520, Note_on_c, 11, 39, 120
12, 96000, Note_on_c, 11, 38, 100
12, 96030, Note_on_c, 11, 39, 0
12, 96480, Note_on_c, 11, 38, 0
12, 99840, Note_on_c, 11, 46, 60
12, 100080, Note_on_c, 11, 55, 60
12, 100110, Note_on_c, 11, 46, 0
12, 100320, Note_on_c, 11, 51, 60
12, 100350, Note_on_c, 11, 55, 0
12, 100560, Note_on_c, 11, 55, 60
12, 100590, Note_on_c, 11, 51, 0
12, 100800, Note_on_c, 11, 58, 60
12, 100830, Note_on_c, 11, 55, 0
12, 101040, Note_on_c, 11, 55, 60
12, 101070, Note_on_c, 11, 58, 0
12, 101280, Note_on_c, 11, 51, 60
12, 101310, Note_on_c, 11, 55, 0
12, 101520, Note_on_c, 11, 46, 60
12, 101550, Note_on_c, 11, 51, 0
12, 102000, Note_on_c, 11, 53, 60
12, 102030, Note_on_c, 11, 46, 0
12, 102240, Note_on_c, 11, 50, 60
12, 102270, Note_on_c, 11, 53, 0
12, 102480, Note_on_c, 11, 53, 60
12, 102510, Note_on_c, 11, 50, 0
12, 102720, Note_on_c, 11, 58, 60
12, 102750, Note_on_c, 11, 53, 0
12, 102960, Note_on_c, 11, 53, 60
12, 102990, Note_on_c, 11, 58, 0
12, 103200, Note_on_c, 11, 50, 60
12, 103230, Note_on_c, 11, 53, 0
12, 103440, Note_on_c, 11, 46, 60
12, 103470, Note_on_c, 11, 50, 0
12, 103920, Note_on_c, 11, 55, 60
12, 103950, Note_on_c, 11, 46, 0
12, 104160, Note_on_c, 11, 51, 60
12, 104190, Note_on_c, 11, 55, 0
12, 104400, Note_on_c, 11, 55, 60
12, 104430, Note_on_c, 11, 51, 0
12, 104640, Note_on_c, 11, 58, 60
12, 104670, Note_on_c, 11, 55, 0
12, 104880, Note_on_c, 11, 55, 60
12, 104910, Note_on_c, 11, 58, 0
12, 105120, Note_on_c, 11, 51, 60
12, 105150, Note_on_c, 11, 55, 0
12, 105360, Note_on_c, 11, 46, 60
12, 105390, Note_on_c, 11, 51, 0
12, 105840, Note_on_c, 11, 56, 60
12, 105870, Note_on_c, 11, 46, 0
12, 106080, Note_on_c, 11, 53, 60
12, 106110, Note_on_c, 11, 56, 0
12, 106320, Note_on_c, 11, 56, 60
12, 106350, Note_on_c, 11, 53, 0
12, 106560, Note_on_c, 11, 58, 60
12, 106590, Note_on_c, 11, 56, 0
12, 106800, Note_on_c, 11, 56, 60
12, 106830, Note_on_c, 11, 58, 0
12, 107040, Note_on_c, 11, 53, 60
12, 107070, Note_on_c, 11, 56, 0
12, 107280, Note_on_c, 11, 46, 60
12, 107310, Note_on_c, 11, 53, 0
12, 107520, Control_c, 11, 11, 80
12, 107760, Note_on_c, 11, 55, 60
12, 107790, Note_on_c, 11, 46, 0
12, 108000, Note_on_c, 11, 51, 60
12, 108030, Note_on_c, 11, 55, 0
12, 108040, Control_c, 11, 11, 81
12, 108240, Note_on_c, 11, 55, 60
12, 108270, Note_on_c, 11, 51, 0
12, 108480, Note_on_c, 11, 58, 60
12, 108510, Note_on_c, 11, 55, 0
12, 108550, Control_c, 11, 11, 82
12, 108720, Note_on_c, 11, 55, 60
12, 108750, Note_on_c, 11, 58, 0
12, 108960, Note_on_c, 11, 51, 60
12, 108990, Note_on_c, 11, 55, 0
12, 109060, Control_c, 11, 11, 83
12, 109200, Note_on_c, 11, 46, 60
12, 109230, Note_on_c, 11, 51, 0
12, 109570, Control_c, 11, 11, 84
12, 109680, Note_on_c, 11, 53, 60
12, 109710, Note_on_c, 11, 46, 0
12, 109920, Note_on_c, 11, 50, 60
12, 109950, Note_on_c, 11, 53, 0
12, 110080, Control_c, 11, 11, 85
12, 110160, Note_on_c, 11, 53, 60
12, 110190, Note_on_c, 11, 50, 0
12, 110400, Note_on_c, 11, 58, 60
12, 110430, Note_on_c, 11, 53, 0
12, 110600, Control_c, 11, 11, 86
12, 110640, Note_on_c, 11, 53, 60
12, 110670, Note_on_c, 11, 58, 0
12, 110880, Note_on_c, 11, 50, 60
12, 110910, Note_on_c, 11, 53, 0
12, 111110, Control_c, 11, 11, 87
12, 111120, Note_on_c, 11, 46, 60
12, 111150, Note_on_c, 11, 50, 0
12, 111600, Note_on_c, 11, 55, 60
12, 111620, Control_c, 11, 11, 88
12, 111630, Note_on_c, 11, 46, 0
12, 111840, Note_on_c, 11, 51, 60
12, 111870, Note_on_c, 11, 55, 0
12, 112080, Note_on_c, 11, 55, 60
12, 112110, Note_on_c, 11, 51, 0
12, 112130, Control_c, 11, 11, 89
12, 112320, Note_on_c, 11, 58, 60
12, 112350, Note_on_c, 11, 55, 0
12, 112560, Note_on_c, 11, 55, 60
12, 112590, Note_on_c, 11, 58, 0
12, 112640, Control_c, 11, 11, 90
12, 112800, Note_on_c, 11, 51, 60
12, 112830, Note_on_c, 11, 55, 0
12, 113040, Note_on_c, 11, 46, 60
12, 113070, Note_on_c, 11, 51, 0
12, 113160, Control_c, 11, 11, 91
12, 113520, Note_on_c, 11, 56, 60
12, 113550, Note_on_c, 11, 46, 0
12, 113670, Control_c, 11, 11, 92
12, 113760, Note_on_c, 11, 53, 60
12, 113790, Note_on_c, 11, 56, 0
12, 114000, Note_on_c, 11, 56, 60
12, 114030, Note_on_c, 11, 53, 0
12, 114180, Control_c, 11, 11, 93
12, 114240, Note_on_c, 11, 58, 60
12, 114270, Note_on_c, 11, 56, 0
12, 114480, Note_on_c, 11, 56, 60
12, 114510, Note_on_c, 11, 58, 0
12, 114690, Control_c, 11, 11, 94
12, 114720, Note_on_c, 11, 53, 60
12, 114750, Note_on_c, 11, 56, 0
12, 114960, Note_on_c, 11, 46, 60
12, 114990, Note_on_c, 11, 53, 0
12, 115200, Control_c, 11, 11, 95
12, 115320, Control_c, 11, 11, 96
12, 115440, Note_on_c, 11, 55, 80
12, 115440, Control_c, 11, 11, 97
12, 115470, Note_on_c, 11, 46, 0
12, 115560, Control_c, 11, 11, 98
12, 115680, Note_on_c, 11, 51, 80
12, 115680, Control_c, 11, 11, 99
12, 115710, Note_on_c, 11, 55, 0
12, 115800, Control_c, 11, 11, 100
12, 115920, Note_on_c, 11, 55, 80
12, 115920, Control_c, 11, 11, 101
12, 115950, Note_on_c, 11, 51, 0
12, 116040, Control_c, 11, 11, 102
12, 116160, Note_on_c, 11, 58, 80
12, 116160, Control_c, 11, 11, 103
12, 116190, Note_on_c, 11, 55, 0
12, 116280, Control_c, 11, 11, 104
12, 116400, Note_on_c, 11, 55, 80
12, 116400, Control_c, 11, 11, 105
12, 116430, Note_on_c, 11, 58, 0
12, 116510, Control_c, 11, 11, 106
12, 116630, Control_c, 11, 11, 107
12, 116640, Note_on_c, 11, 51, 80
12, 116670, Note_on_c, 11, 55, 0
12, 116750, Control_c, 11, 11, 108
12, 116870, Control_c, 11, 11, 109
12, 116880, Note_on_c, 11, 46, 80
12, 116910, Note_on_c, 11, 51, 0
12, 116990, Control_c, 11, 11, 110
12, 117110, Control_c, 11, 11, 111
12, 117230, Control_c, 11, 11, 112
12, 117350, Control_c, 11, 11, 113
12, 117360, Note_on_c, 11, 53, 80
12, 117390, Note_on_c, 11, 46, 0
12, 117470, Control_c, 11, 11, 114
12, 117590, Control_c, 11, 11, 115
12, 117600, Note_on_c, 11, 50, 80
12, 117630, Note_on_c, 11, 53, 0
12, 117710, Control_c, 11, 11, 116
12, 117820, Control_c, 11, 11, 117
12, 117840, Note_on_c, 11, 53, 80
12, 117870, Note_on_c, 11, 50, 0
12, 117940, Control_c, 11, 11, 118
12, 118060, Control_c, 11, 11, 119
12, 118080, Note_on_c, 11, 56, 80
12, 118110, Note_on_c, 11, 53, 0
12, 118180, Control_c, 11, 11, 120
12, 118300, Control_c, 11, 11, 121
12, 118320, Note_on_c, 11, 53, 80
12, 118350, Note_on_c, 11, 56, 0
12, 118420, Control_c, 11, 11, 122
12, 118540, Control_c, 11, 11, 123
12, 118560, Note_on_c, 11, 50, 80
12, 118590, Note_on_c, 11, 53, 0
12, 118660, Control_c, 11, 11, 124
12, 118780, Control_c, 11, 11, 125
12, 118800, Note_on_c, 11, 44, 80
12, 118830, Note_on_c, 11, 50, 0
12, 118900, Control_c, 11, 11, 126
12, 119010, Note_on_c, 11, 44, 0
12, 119020, Control_c, 11, 11, 127
12, 119040, Note_on_c, 11, 43, 80
12, 119970, Note_on_c, 11, 43, 0
12, 120000, Note_on_c, 11, 41, 80
12, 120930, Note_on_c, 11, 41, 0
12, 120960, Note_on_c, 11, 40, 80
12, 121890, Note_on_c, 11, 40, 0
12, 121920, Note_on_c, 11, 36, 80
12, 122850, Note_on_c, 11, 36, 0
12, 122877, Control_c, 11, 11, 80
12, 122880, Note_on_c, 11, 41, 80
12, 123120, Note_on_c, 11, 56, 80
12, 123150, Note_on_c, 11, 41, 0
12, 123360, Note_on_c, 11, 53, 80
12, 123390, Note_on_c, 11, 56, 0
12, 123600, Note_on_c, 11, 56, 80
12, 123630, Note_on_c, 11, 53, 0
12, 123840, Note_on_c, 11, 60, 80
12, 123870, Note_on_c, 11, 56, 0
12, 124080, Note_on_c, 11, 56, 80
12, 124110, Note_on_c, 11, 60, 0
12, 124320, Note_on_c, 11, 53, 80
12, 124350, Note_on_c, 11, 56, 0
12, 124560, Note_on_c, 11, 48, 80
12, 124590, Note_on_c, 11, 53, 0
12, 125040, Note_on_c, 11, 55, 80
12, 125070, Note_on_c, 11, 48, 0
12, 125280, Note_on_c, 11, 52, 80
12, 125310, Note_on_c, 11, 55, 0
12, 125520, Note_on_c, 11, 55, 80
12, 125550, Note_on_c, 11, 52, 0
12, 125760, Note_on_c, 11, 60, 80
12, 125790, Note_on_c, 11, 55, 0
12, 126000, Note_on_c, 11, 55, 80
12, 126030, Note_on_c, 11, 60, 0
12, 126240, Note_on_c, 11, 52, 80
12, 126270, Note_on_c, 11, 55, 0
12, 126480, Note_on_c, 11, 48, 80
12, 126510, Note_on_c, 11, 52, 0
12, 126960, Note_on_c, 11, 56, 80
12, 126990, Note_on_c, 11, 48, 0
12, 127200, Note_on_c, 11, 53, 80
12, 127230, Note_on_c, 11, 56, 0
12, 127440, Note_on_c, 11, 56, 80
12, 127470, Note_on_c, 11, 53, 0
12, 127680, Note_on_c, 11, 60, 80
12, 127710, Note_on_c, 11, 56, 0
12, 127920, Note_on_c, 11, 56, 80
12, 127950, Note_on_c, 11, 60, 0
12, 128160, Note_on_c, 11, 53, 80
12, 128190, Note_on_c, 11, 56, 0
12, 128400, Note_on_c, 11, 48, 80
12, 128430, Note_on_c, 11, 53, 0
12, 128880, Note_on_c, 11, 58, 80
12, 128910, Note_on_c, 11, 48, 0
12, 129120, Note_on_c, 11, 55, 80
12, 129150, Note_on_c, 11, 58, 0
12, 129360, Note_on_c, 11, 58, 80
12, 129390, Note_on_c, 11, 55, 0
12, 129600, Note_on_c, 11, 60, 80
12, 129630, Note_on_c, 11, 58, 0
12, 129840, Note_on_c, 11, 58, 80
12, 129870, Note_on_c, 11, 60, 0
12, 130080, Note_on_c, 11, 55, 80
12, 130110, Note_on_c, 11, 58, 0
12, 130320, Note_on_c, 11, 48, 80
12, 130350, Note_on_c, 11, 55, 0
12, 130560, Control_c, 11, 11, 80
12, 130650, Control_c, 11, 11, 81
12, 130730, Control_c, 11, 11, 82
12, 130800, Note_on_c, 11, 56, 80
12, 130810, Control_c, 11, 11, 83
12, 130830, Note_on_c, 11, 48, 0
12, 130890, Control_c, 11, 11, 84
12, 130970, Control_c, 11, 11, 85
12, 131040, Note_on_c, 11, 53, 80
12, 131060, Control_c, 11, 11, 86
12, 131070, Note_on_c, 11, 56, 0
12, 131140, Control_c, 11, 11, 87
12, 131220, Control_c, 11, 11, 88
12, 131280, Note_on_c, 11, 56, 80
12, 131300, Control_c, 11, 11, 89
12, 131310, Note_on_c, 11, 53, 0
12, 131380, Control_c, 11, 11, 90
12, 131460, Control_c, 11, 11, 91
12, 131520, Note_on_c, 11, 60, 80
12, 131550, Note_on_c, 11, 56, 0
12, 131550, Control_c, 11, 11, 92
12, 131630, Control_c, 11, 11, 93
12, 131710, Control_c, 11, 11, 94
12, 131760, Note_on_c, 11, 56, 80
12, 131790, Note_on_c, 11, 60, 0
12, 131790, Control_c, 11, 11, 95
12, 131870, Control_c, 11, 11, 96
12, 131950, Control_c, 11, 11, 97
12, 132000, Note_on_c, 11, 53, 80
12, 132030, Note_on_c, 11, 56, 0
12, 132040, Control_c, 11, 11, 98
12, 132120, Control_c, 11, 11, 99
12, 132200, Control_c, 11, 11, 100
12, 132240, Note_on_c, 11, 48, 80
12, 132270, Note_on_c, 11, 53, 0
12, 132280, Control_c, 11, 11, 101
12, 132360, Control_c, 11, 11, 102
12, 132440, Control_c, 11, 11, 103
12, 132530, Control_c, 11, 11, 104
12, 132610, Control_c, 11, 11, 105
12, 132690, Control_c, 11, 11, 106
12, 132720, Note_on_c, 11, 55, 80
12, 132750, Note_on_c, 11, 48, 0
12, 132770, Control_c, 11, 11, 107
12, 132850, Control_c, 11, 11, 108
12, 132930, Control_c, 11, 11, 109
12, 132960, Note_on_c, 11, 52, 80
12, 132990, Note_on_c, 11, 55, 0
12, 133020, Control_c, 11, 11, 110
12, 133100, Control_c, 11, 11, 111
12, 133180, Control_c, 11, 11, 112
12, 133200, Note_on_c, 11, 55, 80
12, 133230, Note_on_c, 11, 52, 0
12, 133260, Control_c, 11, 11, 113
12, 133340, Control_c, 11, 11, 114
12, 133420, Control_c, 11, 11, 115
12, 133440, Note_on_c, 11, 58, 80
12, 133470, Note_on_c, 11, 55, 0
12, 133510, Control_c, 11, 11, 116
12, 133590, Control_c, 11, 11, 117
12, 133670, Control_c, 11, 11, 118
12, 133680, Note_on_c, 11, 55, 80
12, 133710, Note_on_c, 11, 58, 0
12, 133750, Control_c, 11, 11, 119
12, 133830, Control_c, 11, 11, 120
12, 133910, Control_c, 11, 11, 121
12, 133920, Note_on_c, 11, 52, 80
12, 133950, Note_on_c, 11, 55, 0
12, 134000, Control_c, 11, 11, 122
12, 134080, Control_c, 11, 11, 123
12, 134160, Note_on_c, 11, 46, 80
12, 134160, Control_c, 11, 11, 124
12, 134190, Note_on_c, 11, 52, 0
12, 134240, Control_c, 11, 11, 125
12, 134320, Control_c, 11, 11, 126
12, 134370, Note_on_c, 11, 46, 0
12, 134380, Control_c, 11, 11, 127
12, 134400, Note_on_c, 11, 44, 80
12, 135330, Note_on_c, 11, 44, 0
12, 135360, Note_on_c, 11, 43, 80
12, 136290, Note_on_c, 11, 43, 0
12, 136320, Note_on_c, 11, 42, 80
12, 137250, Note_on_c, 11, 42, 0
12, 137280, Note_on_c, 11, 38, 80
12, 138210, Note_on_c, 11, 38, 0
12, 138240, Note_on_c, 11, 43, 80
12, 138240, Control_c, 11, 11, 80
12, 138330, Control_c, 11, 11, 81
12, 138410, Control_c, 11, 11, 82
12, 138480, Note_on_c, 11, 58, 80
12, 138490, Control_c, 11, 11, 83
12, 138510, Note_on_c, 11, 43, 0
12, 138570, Control_c, 11, 11, 84
12, 138650, Control_c, 11, 11, 85
12, 138720, Note_on_c, 11, 55, 80
12, 138740, Control_c, 11, 11, 86
12, 138750, Note_on_c, 11, 58, 0
12, 138820, Control_c, 11, 11, 87
12, 138900, Control_c, 11, 11, 88
12, 138960, Note_on_c, 11, 58, 80
12, 138980, Control_c, 11, 11, 89
12, 138990, Note_on_c, 11, 55, 0
12, 139060, Control_c, 11, 11, 90
12, 139140, Control_c, 11, 11, 91
12, 139200, Note_on_c, 11, 62, 80
12, 139230, Note_on_c, 11, 58, 0
12, 139230, Control_c, 11, 11, 92
12, 139310, Control_c, 11, 11, 93
12, 139390, Control_c, 11, 11, 94
12, 139440, Note_on_c, 11, 58, 80
12, 139470, Note_on_c, 11, 62, 0
12, 139470, Control_c, 11, 11, 95
12, 139550, Control_c, 11, 11, 96
12, 139630, Control_c, 11, 11, 97
12, 139680, Note_on_c, 11, 55, 80
12, 139710, Note_on_c, 11, 58, 0
12, 139720, Control_c, 11, 11, 98
12, 139800, Control_c, 11, 11, 99
12, 139880, Control_c, 11, 11, 100
12, 139920, Note_on_c, 11, 50, 80
12, 139950, Note_on_c, 11, 55, 0
12, 139960, Control_c, 11, 11, 101
12, 140040, Control_c, 11, 11, 102
12, 140120, Control_c, 11, 11, 103
12, 140210, Control_c, 11, 11, 104
12, 140290, Control_c, 11, 11, 105
12, 140370, Control_c, 11, 11, 106
12, 140400, Note_on_c, 11, 57, 80
12, 140430, Note_on_c, 11, 50, 0
12, 140450, Control_c, 11, 11, 107
12, 140530, Control_c, 11, 11, 108
12, 140610, Control_c, 11, 11, 109
12, 140640, Note_on_c, 11, 54, 80
12, 140670, Note_on_c, 11, 57, 0
12, 140700, Control_c, 11, 11, 110
12, 140780, Control_c, 11, 11, 111
12, 140860, Control_c, 11, 11, 112
12, 140880, Note_on_c, 11, 57, 80
12, 140910, Note_on_c, 11, 54, 0
12, 140940, Control_c, 11, 11, 113
12, 141020, Control_c, 11, 11, 114
12, 141100, Control_c, 11, 11, 115
12, 141120, Note_on_c, 11, 62, 80
12, 141150, Note_on_c, 11, 57, 0
12, 141190, Control_c, 11, 11, 116
12, 141270, Control_c, 11, 11, 117
12, 141350, Control_c, 11, 11, 118
12, 141360, Note_on_c, 11, 57, 80
12, 141390, Note_on_c, 11, 62, 0
12, 141430, Control_c, 11, 11, 119
12, 141510, Control_c, 11, 11, 120
12, 141590, Control_c, 11, 11, 121
12, 141600, Note_on_c, 11, 54, 80
12, 141630, Note_on_c, 11, 57, 0
12, 141680, Control_c, 11, 11, 122
12, 141760, Control_c, 11, 11, 123
12, 141840, Note_on_c, 11, 50, 80
12, 141840, Control_c, 11, 11, 124
12, 141870, Note_on_c, 11, 54, 0
12, 141920, Control_c, 11, 11, 125
12, 142000, Control_c, 11, 11, 126
12, 142050, Note_on_c, 11, 50, 0
12, 142080, Note_on_c, 11, 53, 100
12, 142080, Control_c, 11, 11, 127
12, 142120, Control_c, 11, 11, 126
12, 142160, Control_c, 11, 11, 125
12, 142200, Control_c, 11, 11, 124
12, 142240, Control_c, 11, 11, 123
12, 142280, Control_c, 11, 11, 122
12, 142320, Note_on_c, 11, 56, 99
12, 142320, Control_c, 11, 11, 121
12, 142350, Note_on_c, 11, 53, 0
12, 142360, Control_c, 11, 11, 120
12, 142400, Control_c, 11, 11, 119
12, 142440, Control_c, 11, 11, 118
12, 142480, Control_c, 11, 11, 117
12, 142520, Control_c, 11, 11, 116
12, 142560, Note_on_c, 11, 53, 98
12, 142560, Control_c, 11, 11, 115
12, 142590, Note_on_c, 11, 56, 0
12, 142600, Control_c, 11, 11, 114
12, 142640, Control_c, 11, 11, 113
12, 142680, Control_c, 11, 11, 112
12, 142720, Control_c, 11, 11, 111
12, 142760, Control_c, 11, 11, 110
12, 142800, Note_on_c, 11, 56, 96
12, 142800, Control_c, 11, 11, 109
12, 142830, Note_on_c, 11, 53, 0
12, 142840, Control_c, 11, 11, 108
12, 142880, Control_c, 11, 11, 107
12, 142920, Control_c, 11, 11, 106
12, 142960, Control_c, 11, 11, 105
12, 143000, Control_c, 11, 11, 104
12, 143040, Note_on_c, 11, 53, 95
12, 143040, Control_c, 11, 11, 103
12, 143070, Note_on_c, 11, 56, 0
12, 143080, Control_c, 11, 11, 102
12, 143120, Control_c, 11, 11, 101
12, 143160, Control_c, 11, 11, 100
12, 143200, Control_c, 11, 11, 99
12, 143240, Control_c, 11, 11, 98
12, 143280, Note_on_c, 11, 55, 93
12, 143280, Control_c, 11, 11, 97
12, 143310, Note_on_c, 11, 53, 0
12, 143320, Control_c, 11, 11, 96
12, 143360, Control_c, 11, 11, 95
12, 143400, Control_c, 11, 11, 94
12, 143440, Control_c, 11, 11, 93
12, 143480, Control_c, 11, 11, 92
12, 143520, Note_on_c, 11, 50, 92
12, 143520, Control_c, 11, 11, 91
12, 143550, Note_on_c, 11, 55, 0
12, 143560, Control_c, 11, 11, 90
12, 143600, Control_c, 11, 11, 89
12, 143640, Control_c, 11, 11, 88
12, 143680, Control_c, 11, 11, 87
12, 143720, Control_c, 11, 11, 86
12, 143760, Note_on_c, 11, 55, 90
12, 143760, Control_c, 11, 11, 85
12, 143790, Note_on_c, 11, 50, 0
12, 143800, Control_c, 11, 11, 84
12, 143840, Control_c, 11, 11, 83
12, 143880, Control_c, 11, 11, 82
12, 143920, Control_c, 11, 11, 81
12, 143960, Control_c, 11, 11, 80
12, 143970, Note_on_c, 11, 55, 0
12, 144000, Note_on_c, 11, 48, 80
12, 144480, Note_on_c, 11, 48, 0
12, 144960, Note_on_c, 11, 50, 80
12, 145440, Note_on_c, 11, 50, 0
12, 145920, Note_on_c, 11, 51, 80
12, 146400, Note_on_c, 11, 51, 0
12, 146880, Note_on_c, 11, 50, 80
12, 147360, Note_on_c, 11, 50, 0
12, 147840, Note_on_c, 11, 48, 80
12, 148320, Note_on_c, 11, 48, 0
12, 148800, Note_on_c, 11, 49, 80
12, 149280, Note_on_c, 11, 49, 0
12, 149760, Note_on_c, 11, 50, 70
12, 150210, Note_on_c, 11, 50, 0
12, 150480, Note_on_c, 11, 50, 70
12, 150660, Note_on_c, 11, 50, 0
12, 150720, Note_on_c, 11, 50, 70
12, 151350, Note_on_c, 11, 50, 0
12, 151440, Note_on_c, 11, 50, 70
12, 151620, Note_on_c, 11, 50, 0
12, 152400, Note_on_c, 11, 50, 70
12, 152580, Note_on_c, 11, 50, 0
12, 152640, Note_on_c, 11, 50, 70
12, 153270, Note_on_c, 11, 50, 0
12, 153360, Note_on_c, 11, 50, 70
12, 153540, Note_on_c, 11, 50, 0
12, 154320, Note_on_c, 11, 50, 72
12, 154500, Note_on_c, 11, 50, 0
12, 154560, Note_on_c, 11, 50, 73
12, 155190, Note_on_c, 11, 50, 0
12, 155280, Note_on_c, 11, 50, 76
12, 155460, Note_on_c, 11, 50, 0
12, 156240, Note_on_c, 11, 50, 80
12, 156420, Note_on_c, 11, 50, 0
12, 156480, Note_on_c, 11, 50, 81
12, 157110, Note_on_c, 11, 50, 0
12, 157200, Note_on_c, 11, 50, 84
12, 157380, Note_on_c, 11, 50, 0
12, 158160, Note_on_c, 11, 50, 87
12, 158340, Note_on_c, 11, 50, 0
12, 158400, Note_on_c, 11, 50, 88
12, 159030, Note_on_c, 11, 50, 0
12, 159120, Note_on_c, 11, 50, 91
12, 159300, Note_on_c, 11, 50, 0
12, 160080, Note_on_c, 11, 50, 95
12, 160260, Note_on_c, 11, 50, 0
12, 160320, Note_on_c, 11, 50, 96
12, 160950, Note_on_c, 11, 50, 0
12, 161040, Note_on_c, 11, 50, 99
12, 161220, Note_on_c, 11, 50, 0
12, 161280, Note_on_c, 11, 60, 100
12, 162720, Note_on_c, 11, 58, 100
12, 162750, Note_on_c, 11, 60, 0
12, 163170, Note_on_c, 11, 58, 0
12, 163200, Note_on_c, 11, 57, 100
12, 163680, Note_on_c, 11, 55, 100
12, 163710, Note_on_c, 11, 57, 0
12, 164160, Note_on_c, 11, 57, 100
12, 164190, Note_on_c, 11, 55, 0
12, 164640, Note_on_c, 11, 55, 100
12, 164670, Note_on_c, 11, 57, 0
12, 165090, Note_on_c, 11, 55, 0
12, 165120, Note_on_c, 11, 60, 100
12, 166560, Note_on_c, 11, 58, 100
12, 166590, Note_on_c, 11, 60, 0
12, 167010, Note_on_c, 11, 58, 0
12, 167040, Note_on_c, 11, 57, 100
12, 167520, Note_on_c, 11, 55, 100
12, 167550, Note_on_c, 11, 57, 0
12, 168000, Note_on_c, 11, 57, 100
12, 168030, Note_on_c, 11, 55, 0
12, 168480, Note_on_c, 11, 55, 100
12, 168510, Note_on_c, 11, 57, 0
12, 168930, Note_on_c, 11, 55, 0
12, 168960, Note_on_c, 11, 53, 100
12, 170400, Note_on_c, 11, 51, 100
12, 170430, Note_on_c, 11, 53, 0
12, 170850, Note_on_c, 11, 51, 0
12, 170880, Note_on_c, 11, 50, 100
12, 171360, Note_on_c, 11, 48, 100
12, 171390, Note_on_c, 11, 50, 0
12, 171840, Note_on_c, 11, 50, 100
12, 171870, Note_on_c, 11, 48, 0
12, 172320, Note_on_c, 11, 48, 100
12, 172350, Note_on_c, 11, 50, 0
12, 172770, Note_on_c, 11, 48, 0
12, 172800, Note_on_c, 11, 53, 100
12, 174240, Note_on_c, 11, 51, 100
12, 174270, Note_on_c, 11, 53, 0
12, 174690, Note_on_c, 11, 51, 0
12, 174720, Note_on_c, 11, 50, 100
12, 175200, Note_on_c, 11, 48, 100
12, 175230, Note_on_c, 11, 50, 0
12, 175680, Note_on_c, 11, 50, 100
12, 175710, Note_on_c, 11, 48, 0
12, 176160, Note_on_c, 11, 48, 100
12, 176190, Note_on_c, 11, 50, 0
12, 176610, Note_on_c, 11, 48, 0
12, 184320, Note_on_c, 11, 48, 100
12, 185010, Note_on_c, 11, 48, 0
12, 185040, Note_on_c, 11, 60, 100
12, 185160, Note_on_c, 11, 60, 0
12, 185280, Note_on_c, 11, 48, 100
12, 185970, Note_on_c, 11, 48, 0
12, 186000, Note_on_c, 11, 60, 100
12, 186120, Note_on_c, 11, 60, 0
12, 186240, Note_on_c, 11, 47, 100
12, 186930, Note_on_c, 11, 47, 0
12, 186960, Note_on_c, 11, 59, 100
12, 187080, Note_on_c, 11, 59, 0
12, 187200, Note_on_c, 11, 46, 100
12, 187890, Note_on_c, 11, 46, 0
12, 187920, Note_on_c, 11, 58, 100
12, 188040, Note_on_c, 11, 58, 0
12, 188160, Note_on_c, 11, 44, 100
12, 188850, Note_on_c, 11, 44, 0
12, 188880, Note_on_c, 11, 56, 100
12, 189000, Note_on_c, 11, 56, 0
12, 189120, Note_on_c, 11, 43, 100
12, 189810, Note_on_c, 11, 43, 0
12, 189840, Note_on_c, 11, 55, 100
12, 189960, Note_on_c, 11, 55, 0
12, 190080, Note_on_c, 11, 42, 100
12, 190770, Note_on_c, 11, 42, 0
12, 190800, Note_on_c, 11, 54, 100
12, 190920, Note_on_c, 11, 54, 0
12, 191040, Note_on_c, 11, 51, 100
12, 191730, Note_on_c, 11, 51, 0
12, 191760, Note_on_c, 11, 51, 100
12, 191880, Note_on_c, 11, 51, 0
12, 192000, Note_on_c, 11, 50, 100
12, 192450, Note_on_c, 11, 50, 0
12, 192720, Note_on_c, 11, 50, 90
12, 192840, Note_on_c, 11, 50, 0
12, 192960, Note_on_c, 11, 51, 90
12, 193410, Note_on_c, 11, 51, 0
12, 193680, Note_on_c, 11, 51, 90
12, 193800, Note_on_c, 11, 51, 0
12, 193920, Note_on_c, 11, 48, 90
12, 194370, Note_on_c, 11, 48, 0
12, 194640, Note_on_c, 11, 48, 90
12, 194760, Note_on_c, 11, 48, 0
12, 194880, Note_on_c, 11, 50, 90
12, 195330, Note_on_c, 11, 50, 0
12, 195600, Note_on_c, 11, 50, 90
12, 195720, Note_on_c, 11, 50, 0
12, 208320, Note_on_c, 11, 46, 105
12, 208440, Note_on_c, 11, 46, 0
12, 209280, Note_on_c, 11, 45, 105
12, 209400, Note_on_c, 11, 45, 0
12, 211200, Note_on_c, 11, 55, 112
12, 211320, Note_on_c, 11, 55, 0
12, 211440, Note_on_c, 11, 58, 112
12, 211560, Note_on_c, 11, 58, 0
12, 211680, Note_on_c, 11, 62, 112
12, 211800, Note_on_c, 11, 62, 0
12, 211920, Note_on_c, 11, 63, 112
12, 212040, Note_on_c, 11, 63, 0
12, 212160, Note_on_c, 11, 53, 112
12, 212280, Note_on_c, 11, 53, 0
12, 212400, Note_on_c, 11, 57, 112
12, 212520, Note_on_c, 11, 57, 0
12, 212640, Note_on_c, 11, 61, 112
12, 212760, Note_on_c, 11, 61, 0
12, 212880, Note_on_c, 11, 62, 112
12, 213000, Note_on_c, 11, 62, 0
12, 213120, Note_on_c, 11, 51, 112
12, 213240, Note_on_c, 11, 51, 0
12, 213360, Note_on_c, 11, 55, 112
12, 213480, Note_on_c, 11, 55, 0
12, 213600, Note_on_c, 11, 59, 112
12, 213720, Note_on_c, 11, 59, 0
12, 213840, Note_on_c, 11, 60, 112
12, 213960, Note_on_c, 11, 60, 0
12, 214080, Note_on_c, 11, 50, 112
12, 214200, Note_on_c, 11, 50, 0
12, 214320, Note_on_c, 11, 53, 112
12, 214440, Note_on_c, 11, 53, 0
12, 214560, Note_on_c, 11, 57, 112
12, 214680, Note_on_c, 11, 57, 0
12, 214800, Note_on_c, 11, 58, 112
12, 214920, Note_on_c, 11, 58, 0
12, 215040, Note_on_c, 11, 48, 112
12, 215160, Note_on_c, 11, 48, 0
12, 215280, Note_on_c, 11, 51, 112
12, 215400, Note_on_c, 11, 51, 0
12, 215520, Note_on_c, 11, 55, 112
12, 215640, Note_on_c, 11, 55, 0
12, 215760, Note_on_c, 11, 57, 112
12, 215880, Note_on_c, 11, 57, 0
12, 216000, Note_on_c, 11, 49, 112
12, 216120, Note_on_c, 11, 49, 0
12, 216240, Note_on_c, 11, 52, 112
12, 216360, Note_on_c, 11, 52, 0
12, 216480, Note_on_c, 11, 55, 112
12, 216600, Note_on_c, 11, 55, 0
12, 216720, Note_on_c, 11, 58, 112
12, 216840, Note_on_c, 11, 58, 0
12, 216960, Note_on_c, 11, 50, 112
12, 217080, Note_on_c, 11, 50, 0
12, 217200, Note_on_c, 11, 55, 112
12, 217320, Note_on_c, 11, 55, 0
12, 217440, Note_on_c, 11, 58, 112
12, 217560, Note_on_c, 11, 58, 0
12, 217680, Note_on_c, 11, 62, 112
12, 217800, Note_on_c, 11, 62, 0
12, 217920, Note_on_c, 11, 50, 112
12, 218040, Note_on_c, 11, 50, 0
12, 218160, Note_on_c, 11, 54, 112
12, 218280, Note_on_c, 11, 54, 0
12, 218400, Note_on_c, 11, 57, 112
12, 218520, Note_on_c, 11, 57, 0
12, 218640, Note_on_c, 11, 62, 112
12, 218760, Note_on_c, 11, 62, 0
12, 218880, Note_on_c, 11, 43, 112
12, 220440, Note_on_c, 11, 43, 0
12, 220560, Note_on_c, 11, 43, 112
12, 220680, Note_on_c, 11, 43, 0
12, 220800, Note_on_c, 11, 43, 112
12, 222360, Note_on_c, 11, 43, 0
12, 222480, Note_on_c, 11, 43, 112
12, 222600, Note_on_c, 11, 43, 0
12, 222720, Note_on_c, 11, 43, 112
12, 223320, Note_on_c, 11, 43, 0
12, 223440, Note_on_c, 11, 43, 112
12, 223560, Note_on_c, 11, 43, 0
12, 223680, Note_on_c, 11, 43, 112
12, 224130, Note_on_c, 11, 43, 0
12, 224400, Note_on_c, 11, 43, 112
12, 224520, Note_on_c, 11, 43, 0
12, 224640, Note_on_c, 11, 43, 112
12, 225090, Note_on_c, 11, 43, 0
12, 225360, Note_on_c, 11, 43, 112
12, 225480, Note_on_c, 11, 43, 0
12, 225600, Note_on_c, 11, 43, 112
12, 226050, Note_on_c, 11, 43, 0
12, 226320, Note_on_c, 11, 43, 112
12, 226440, Note_on_c, 11, 43, 0
12, 253440, Note_on_c, 11, 56, 95
12, 255360, Note_on_c, 11, 57, 95
12, 255390, Note_on_c, 11, 56, 0
12, 257280, Note_on_c, 11, 58, 95
12, 257310, Note_on_c, 11, 57, 0
12, 259200, Note_on_c, 11, 60, 95
12, 259230, Note_on_c, 11, 58, 0
12, 261060, Note_on_c, 11, 60, 0
12, 261120, Note_on_c, 11, 61, 75
12, 262080, Note_on_c, 11, 60, 75
12, 262110, Note_on_c, 11, 61, 0
12, 263040, Note_on_c, 11, 58, 75
12, 263070, Note_on_c, 11, 60, 0
12, 264000, Note_on_c, 11, 56, 75
12, 264030, Note_on_c, 11, 58, 0
12, 264960, Note_on_c, 11, 54, 75
12, 264990, Note_on_c, 11, 56, 0
12, 265920, Note_on_c, 11, 53, 75
12, 265950, Note_on_c, 11, 54, 0
12, 266880, Note_on_c, 11, 51, 75
12, 266910, Note_on_c, 11, 53, 0
12, 267780, Note_on_c, 11, 51, 0
12, 267832, Control_c, 11, 11, 110
12, 267840, Note_on_c, 11, 44, 127
12, 267960, Note_on_c, 11, 44, 0
12, 268080, Note_on_c, 11, 48, 127
12, 268200, Note_on_c, 11, 48, 0
12, 268320, Note_on_c, 11, 51, 127
12, 268440, Note_on_c, 11, 51, 0
12, 268560, Note_on_c, 11, 56, 127
12, 268680, Note_on_c, 11, 56, 0
12, 268800, Note_on_c, 11, 49, 127
12, 268920, Note_on_c, 11, 49, 0
12, 269040, Note_on_c, 11, 53, 127
12, 269160, Note_on_c, 11, 53, 0
12, 269280, Note_on_c, 11, 57, 127
12, 269400, Note_on_c, 11, 57, 0
12, 269520, Note_on_c, 11, 58, 127
12, 269640, Note_on_c, 11, 58, 0
12, 269760, Note_on_c, 11, 48, 127
12, 269880, Note_on_c, 11, 48, 0
12, 270000, Note_on_c, 11, 51, 127
12, 270120, Note_on_c, 11, 51, 0
12, 270240, Note_on_c, 11, 55, 127
12, 270360, Note_on_c, 11, 55, 0
12, 270480, Note_on_c, 11, 56, 127
12, 270600, Note_on_c, 11, 56, 0
12, 270720, Note_on_c, 11, 46, 127
12, 270840, Note_on_c, 11, 46, 0
12, 270960, Note_on_c, 11, 49, 127
12, 271080, Note_on_c, 11, 49, 0
12, 271200, Note_on_c, 11, 53, 127
12, 271320, Note_on_c, 11, 53, 0
12, 271440, Note_on_c, 11, 54, 127
12, 271560, Note_on_c, 11, 54, 0
12, 271680, Note_on_c, 11, 44, 127
12, 271800, Note_on_c, 11, 44, 0
12, 271920, Note_on_c, 11, 48, 127
12, 272040, Note_on_c, 11, 48, 0
12, 272160, Note_on_c, 11, 52, 127
12, 272280, Note_on_c, 11, 52, 0
12, 272400, Note_on_c, 11, 53, 127
12, 272520, Note_on_c, 11, 53, 0
12, 272640, Note_on_c, 11, 43, 127
12, 272760, Note_on_c, 11, 43, 0
12, 272880, Note_on_c, 11, 46, 127
12, 273000, Note_on_c, 11, 46, 0
12, 273120, Note_on_c, 11, 48, 127
12, 273240, Note_on_c, 11, 48, 0
12, 273360, Note_on_c, 11, 49, 127
12, 273480, Note_on_c, 11, 49, 0
12, 273600, Note_on_c, 11, 41, 127
12, 273720, Note_on_c, 11, 41, 0
12, 273840, Note_on_c, 11, 46, 127
12, 273960, Note_on_c, 11, 46, 0
12, 274080, Note_on_c, 11, 48, 127
12, 274200, Note_on_c, 11, 48, 0
12, 274320, Note_on_c, 11, 49, 127
12, 274440, Note_on_c, 11, 49, 0
12, 274560, Note_on_c, 11, 40, 127
12, 274680, Note_on_c, 11, 40, 0
12, 274800, Note_on_c, 11, 43, 127
12, 274920, Note_on_c, 11, 43, 0
12, 275040, Note_on_c, 11, 46, 127
12, 275160, Note_on_c, 11, 46, 0
12, 275280, Note_on_c, 11, 49, 127
12, 275400, Note_on_c, 11, 49, 0
12, 275520, Note_on_c, 11, 48, 127
12, 275640, Note_on_c, 11, 48, 0
12, 275760, Note_on_c, 11, 52, 127
12, 275880, Note_on_c, 11, 52, 0
12, 276000, Note_on_c, 11, 55, 127
12, 276120, Note_on_c, 11, 55, 0
12, 276240, Note_on_c, 11, 60, 127
12, 276360, Note_on_c, 11, 60, 0
12, 276474, Control_c, 11, 11, 80
12, 280320, Note_on_c, 11, 46, 90
12, 280440, Note_on_c, 11, 46, 0
12, 281280, Note_on_c, 11, 44, 95
12, 281400, Note_on_c, 11, 44, 0
12, 282240, Note_on_c, 11, 43, 100
12, 282360, Note_on_c, 11, 43, 0
12, 282480, Note_on_c, 11, 46, 101
12, 282600, Note_on_c, 11, 46, 0
12, 284160, Note_on_c, 11, 53, 110
12, 284280, Note_on_c, 11, 53, 0
12, 284400, Note_on_c, 11, 56, 110
12, 284520, Note_on_c, 11, 56, 0
12, 284640, Note_on_c, 11, 60, 110
12, 284760, Note_on_c, 11, 60, 0
12, 284880, Note_on_c, 11, 61, 110
12, 285000, Note_on_c, 11, 61, 0
12, 285120, Note_on_c, 11, 51, 110
12, 285240, Note_on_c, 11, 51, 0
12, 285360, Note_on_c, 11, 55, 110
12, 285480, Note_on_c, 11, 55, 0
12, 285600, Note_on_c, 11, 59, 110
12, 285720, Note_on_c, 11, 59, 0
12, 285840, Note_on_c, 11, 60, 110
12, 285960, Note_on_c, 11, 60, 0
12, 286080, Note_on_c, 11, 49, 110
12, 286200, Note_on_c, 11, 49, 0
12, 286320, Note_on_c, 11, 53, 110
12, 286440, Note_on_c, 11, 53, 0
12, 286560, Note_on_c, 11, 57, 110
12, 286680, Note_on_c, 11, 57, 0
12, 286800, Note_on_c, 11, 58, 110
12, 286920, Note_on_c, 11, 58, 0
12, 287040, Note_on_c, 11, 48, 110
12, 287160, Note_on_c, 11, 48, 0
12, 287280, Note_on_c, 11, 51, 110
12, 287400, Note_on_c, 11, 51, 0
12, 287520, Note_on_c, 11, 55, 110
12, 287640, Note_on_c, 11, 55, 0
12, 287760, Note_on_c, 11, 56, 110
12, 287880, Note_on_c, 11, 56, 0
12, 288000, Note_on_c, 11, 46, 110
12, 288120, Note_on_c, 11, 46, 0
12, 288240, Note_on_c, 11, 49, 110
12, 288360, Note_on_c, 11, 49, 0
12, 288480, Note_on_c, 11, 52, 110
12, 288600, Note_on_c, 11, 52, 0
12, 288720, Note_on_c, 11, 55, 110
12, 288840, Note_on_c, 11, 55, 0
12, 288960, Note_on_c, 11, 44, 110
12, 289080, Note_on_c, 11, 44, 0
12, 289200, Note_on_c, 11, 48, 110
12, 289320, Note_on_c, 11, 48, 0
12, 289440, Note_on_c, 11, 52, 110
12, 289560, Note_on_c, 11, 52, 0
12, 289680, Note_on_c, 11, 53, 110
12, 289800, Note_on_c, 11, 53, 0
12, 289920, Note_on_c, 11, 46, 110
12, 290040, Note_on_c, 11, 46, 0
12, 290160, Note_on_c, 11, 49, 110
12, 290280, Note_on_c, 11, 49, 0
12, 290400, Note_on_c, 11, 53, 110
12, 290520, Note_on_c, 11, 53, 0
12, 290640, Note_on_c, 11, 55, 110
12, 290760, Note_on_c, 11, 55, 0
12, 290880, Note_on_c, 11, 48, 110
12, 291000, Note_on_c, 11, 48, 0
12, 291120, Note_on_c, 11, 52, 110
12, 291240, Note_on_c, 11, 52, 0
12, 291360, Note_on_c, 11, 55, 110
12, 291480, Note_on_c, 11, 55, 0
12, 291600, Note_on_c, 11, 60, 110
12, 291720, Note_on_c, 11, 60, 0
12, 295680, Note_on_c, 11, 46, 127
12, 295890, Note_on_c, 11, 46, 0
12, 303360, Note_on_c, 11, 47, 120
12, 304290, Note_on_c, 11, 47, 0
12, 305280, Note_on_c, 11, 47, 120
12, 306210, Note_on_c, 11, 47, 0
12, 312960, Note_on_c, 11, 46, 110
12, 313890, Note_on_c, 11, 46, 0
12, 314880, Note_on_c, 11, 46, 110
12, 315810, Note_on_c, 11, 46, 0
12, 322080, Note_on_c, 11, 46, 110
12, 322560, Note_on_c, 11, 44, 110
12, 322590, Note_on_c, 11, 46, 0
12, 323010, Note_on_c, 11, 44, 0
12, 324000, Note_on_c, 11, 46, 110
12, 324480, Note_on_c, 11, 44, 110
12, 324510, Note_on_c, 11, 46, 0
12, 324930, Note_on_c, 11, 44, 0
12, 325920, Note_on_c, 11, 46, 110
12, 326400, Note_on_c, 11, 44, 110
12, 326430, Note_on_c, 11, 46, 0
12, 326850, Note_on_c, 11, 44, 0
12, 327840, Note_on_c, 11, 46, 110
12, 328320, Note_on_c, 11, 44, 110
12, 328350, Note_on_c, 11, 46, 0
12, 328770, Note_on_c, 11, 44, 0
12, 331680, Note_on_c, 11, 48, 110
12, 332160, Note_on_c, 11, 47, 110
12, 332190, Note_on_c, 11, 48, 0
12, 332610, Note_on_c, 11, 47, 0
12, 333600, Note_on_c, 11, 48, 110
12, 334080, Note_on_c, 11, 47, 110
12, 334110, Note_on_c, 11, 48, 0
12, 334530, Note_on_c, 11, 47, 0
12, 335520, Note_on_c, 11, 48, 110
12, 336000, Note_on_c, 11, 47, 110
12, 336030, Note_on_c, 11, 48, 0
12, 336450, Note_on_c, 11, 47, 0
12, 337440, Note_on_c, 11, 48, 110
12, 337920, Note_on_c, 11, 47, 110
12, 337950, Note_on_c, 11, 48, 0
12, 338400, Note_on_c, 11, 47, 0
12, 341760, Note_on_c, 11, 43, 80
12, 342000, Note_on_c, 11, 52, 80
12, 342030, Note_on_c, 11, 43, 0
12, 342240, Note_on_c, 11, 48, 80
12, 342270, Note_on_c, 11, 52, 0
12, 342480, Note_on_c, 11, 52, 80
12, 342510, Note_on_c, 11, 48, 0
12, 342720, Note_on_c, 11, 55, 80
12, 342750, Note_on_c, 11, 52, 0
12, 342960, Note_on_c, 11, 52, 80
12, 342990, Note_on_c, 11, 55, 0
12, 343200, Note_on_c, 11, 48, 80
12, 343230, Note_on_c, 11, 52, 0
12, 343440, Note_on_c, 11, 43, 80
12, 343470, Note_on_c, 11, 48, 0
12, 343920, Note_on_c, 11, 50, 80
12, 343950, Note_on_c, 11, 43, 0
12, 344160, Note_on_c, 11, 47, 80
12, 344190, Note_on_c, 11, 50, 0
12, 344400, Note_on_c, 11, 50, 80
12, 344430, Note_on_c, 11, 47, 0
12, 344640, Note_on_c, 11, 55, 80
12, 344670, Note_on_c, 11, 50, 0
12, 344880, Note_on_c, 11, 50, 80
12, 344910, Note_on_c, 11, 55, 0
12, 345120, Note_on_c, 11, 47, 80
12, 345150, Note_on_c, 11, 50, 0
12, 345360, Note_on_c, 11, 43, 80
12, 345390, Note_on_c, 11, 47, 0
12, 345840, Note_on_c, 11, 52, 80
12, 345870, Note_on_c, 11, 43, 0
12, 346080, Note_on_c, 11, 48, 80
12, 346110, Note_on_c, 11, 52, 0
12, 346320, Note_on_c, 11, 52, 80
12, 346350, Note_on_c, 11, 48, 0
12, 346560, Note_on_c, 11, 55, 80
12, 346590, Note_on_c, 11, 52, 0
12, 346800, Note_on_c, 11, 52, 80
12, 346830, Note_on_c, 11, 55, 0
12, 347040, Note_on_c, 11, 48, 80
12, 347070, Note_on_c, 11, 52, 0
12, 347280, Note_on_c, 11, 43, 80
12, 347310, Note_on_c, 11, 48, 0
12, 347760, Note_on_c, 11, 53, 80
12, 347790, Note_on_c, 11, 43, 0
12, 348000, Note_on_c, 11, 50, 80
12, 348030, Note_on_c, 11, 53, 0
12, 348240, Note_on_c, 11, 53, 80
12, 348270, Note_on_c, 11, 50, 0
12, 348480, Note_on_c, 11, 55, 80
12, 348510, Note_on_c, 11, 53, 0
12, 348720, Note_on_c, 11, 53, 80
12, 348750, Note_on_c, 11, 55, 0
12, 348960, Note_on_c, 11, 50, 80
12, 348990, Note_on_c, 11, 53, 0
12, 349200, Note_on_c, 11, 43, 80
12, 349230, Note_on_c, 11, 50, 0
12, 349440, Control_c, 11, 11, 80
12, 349680, Note_on_c, 11, 52, 80
12, 349710, Note_on_c, 11, 43, 0
12, 349810, Control_c, 11, 11, 81
12, 349920, Note_on_c, 11, 48, 80
12, 349950, Note_on_c, 11, 52, 0
12, 350160, Note_on_c, 11, 52, 80
12, 350180, Control_c, 11, 11, 82
12, 350190, Note_on_c, 11, 48, 0
12, 350400, Note_on_c, 11, 55, 80
12, 350430, Note_on_c, 11, 52, 0
12, 350540, Control_c, 11, 11, 83
12, 350640, Note_on_c, 11, 52, 80
12, 350670, Note_on_c, 11, 55, 0
12, 350880, Note_on_c, 11, 48, 80
12, 350910, Note_on_c, 11, 52, 0
12, 350910, Control_c, 11, 11, 84
12, 351120, Note_on_c, 11, 43, 80
12, 351150, Note_on_c, 11, 48, 0
12, 351280, Control_c, 11, 11, 85
12, 351600, Note_on_c, 11, 50, 80
12, 351630, Note_on_c, 11, 43, 0
12, 351640, Control_c, 11, 11, 86
12, 351840, Note_on_c, 11, 47, 80
12, 351870, Note_on_c, 11, 50, 0
12, 352010, Control_c, 11, 11, 87
12, 352080, Note_on_c, 11, 50, 80
12, 352110, Note_on_c, 11, 47, 0
12, 352320, Note_on_c, 11, 55, 80
12, 352350, Note_on_c, 11, 50, 0
12, 352380, Control_c, 11, 11, 88
12, 352560, Note_on_c, 11, 50, 80
12, 352590, Note_on_c, 11, 55, 0
12, 352740, Control_c, 11, 11, 89
12, 352800, Note_on_c, 11, 47, 80
12, 352830, Note_on_c, 11, 50, 0
12, 353040, Note_on_c, 11, 43, 80
12, 353070, Note_on_c, 11, 47, 0
12, 353110, Control_c, 11, 11, 90
12, 353480, Control_c, 11, 11, 91
12, 353520, Note_on_c, 11, 52, 80
12, 353550, Note_on_c, 11, 43, 0
12, 353760, Note_on_c, 11, 48, 80
12, 353790, Note_on_c, 11, 52, 0
12, 353840, Control_c, 11, 11, 92
12, 354000, Note_on_c, 11, 52, 80
12, 354030, Note_on_c, 11, 48, 0
12, 354210, Control_c, 11, 11, 93
12, 354240, Note_on_c, 11, 55, 80
12, 354270, Note_on_c, 11, 52, 0
12, 354480, Note_on_c, 11, 52, 80
12, 354510, Note_on_c, 11, 55, 0
12, 354580, Control_c, 11, 11, 94
12, 354720, Note_on_c, 11, 48, 80
12, 354750, Note_on_c, 11, 52, 0
12, 354940, Control_c, 11, 11, 95
12, 354960, Note_on_c, 11, 43, 80
12, 354990, Note_on_c, 11, 48, 0
12, 355310, Control_c, 11, 11, 96
12, 355440, Note_on_c, 11, 53, 80
12, 355470, Note_on_c, 11, 43, 0
12, 355680, Note_on_c, 11, 50, 80
12, 355680, Control_c, 11, 11, 97
12, 355710, Note_on_c, 11, 53, 0
12, 355920, Note_on_c, 11, 53, 80
12, 355950, Note_on_c, 11, 50, 0
12, 356040, Control_c, 11, 11, 98
12, 356160, Note_on_c, 11, 55, 80
12, 356190, Note_on_c, 11, 53, 0
12, 356400, Note_on_c, 11, 53, 80
12, 356410, Control_c, 11, 11, 99
12, 356430, Note_on_c, 11, 55, 0
12, 356640, Note_on_c, 11, 50, 80
12, 356670, Note_on_c, 11, 53, 0
12, 356780, Control_c, 11, 11, 100
12, 356880, Note_on_c, 11, 43, 80
12, 356910, Note_on_c, 11, 50, 0
12, 357140, Control_c, 11, 11, 101
12, 357290, Control_c, 11, 11, 102
12, 357360, Note_on_c, 11, 52, 80
12, 357390, Note_on_c, 11, 43, 0
12, 357440, Control_c, 11, 11, 103
12, 357590, Control_c, 11, 11, 104
12, 357600, Note_on_c, 11, 48, 80
12, 357630, Note_on_c, 11, 52, 0
12, 357730, Control_c, 11, 11, 105
12, 357840, Note_on_c, 11, 52, 80
12, 357870, Note_on_c, 11, 48, 0
12, 357880, Control_c, 11, 11, 106
12, 358030, Control_c, 11, 11, 107
12, 358080, Note_on_c, 11, 55, 80
12, 358110, Note_on_c, 11, 52, 0
12, 358170, Control_c, 11, 11, 108
12, 358320, Note_on_c, 11, 52, 80
12, 358320, Control_c, 11, 11, 109
12, 358350, Note_on_c, 11, 55, 0
12, 358470, Control_c, 11, 11, 110
12, 358560, Note_on_c, 11, 48, 80
12, 358590, Note_on_c, 11, 52, 0
12, 358610, Control_c, 11, 11, 111
12, 358760, Control_c, 11, 11, 112
12, 358800, Note_on_c, 11, 43, 80
12, 358830, Note_on_c, 11, 48, 0
12, 358910, Control_c, 11, 11, 113
12, 359050, Control_c, 11, 11, 114
12, 359200, Control_c, 11, 11, 115
12, 359280, Note_on_c, 11, 50, 80
12, 359310, Note_on_c, 11, 43, 0
12, 359350, Control_c, 11, 11, 116
12, 359500, Control_c, 11, 11, 117
12, 359520, Note_on_c, 11, 47, 80
12, 359550, Note_on_c, 11, 50, 0
12, 359640, Control_c, 11, 11, 118
12, 359760, Note_on_c, 11, 50, 80
12, 359790, Note_on_c, 11, 47, 0
12, 359790, Control_c, 11, 11, 119
12, 359940, Control_c, 11, 11, 120
12, 360000, Note_on_c, 11, 53, 80
12, 360030, Note_on_c, 11, 50, 0
12, 360080, Control_c, 11, 11, 121
12, 360230, Control_c, 11, 11, 122
12, 360240, Note_on_c, 11, 50, 80
12, 360270, Note_on_c, 11, 53, 0
12, 360380, Control_c, 11, 11, 123
12, 360480, Note_on_c, 11, 47, 80
12, 360510, Note_on_c, 11, 50, 0
12, 360520, Control_c, 11, 11, 124
12, 360670, Control_c, 11, 11, 125
12, 360720, Note_on_c, 11, 41, 80
12, 360750, Note_on_c, 11, 47, 0
12, 360820, Control_c, 11, 11, 126
12, 360930, Note_on_c, 11, 41, 0
12, 360940, Control_c, 11, 11, 127
12, 360960, Note_on_c, 11, 40, 90
12, 361890, Note_on_c, 11, 40, 0
12, 361920, Note_on_c, 11, 50, 90
12, 362850, Note_on_c, 11, 50, 0
12, 362880, Note_on_c, 11, 49, 90
12, 363810, Note_on_c, 11, 49, 0
12, 363840, Note_on_c, 11, 45, 90
12, 364797, Control_c, 11, 11, 80
12, 365040, Note_on_c, 11, 53, 80
12, 365070, Note_on_c, 11, 45, 0
12, 365280, Note_on_c, 11, 50, 80
12, 365310, Note_on_c, 11, 53, 0
12, 365520, Note_on_c, 11, 53, 80
12, 365550, Note_on_c, 11, 50, 0
12, 365760, Note_on_c, 11, 57, 80
12, 365790, Note_on_c, 11, 53, 0
12, 366000, Note_on_c, 11, 53, 80
12, 366030, Note_on_c, 11, 57, 0
12, 366240, Note_on_c, 11, 50, 80
12, 366270, Note_on_c, 11, 53, 0
12, 366480, Note_on_c, 11, 45, 80
12, 366510, Note_on_c, 11, 50, 0
12, 366960, Note_on_c, 11, 52, 80
12, 366990, Note_on_c, 11, 45, 0
12, 367200, Note_on_c, 11, 49, 80
12, 367230, Note_on_c, 11, 52, 0
12, 367440, Note_on_c, 11, 52, 80
12, 367470, Note_on_c, 11, 49, 0
12, 367680, Note_on_c, 11, 57, 80
12, 367710, Note_on_c, 11, 52, 0
12, 367920, Note_on_c, 11, 52, 80
12, 367950, Note_on_c, 11, 57, 0
12, 368160, Note_on_c, 11, 49, 80
12, 368190, Note_on_c, 11, 52, 0
12, 368400, Note_on_c, 11, 45, 80
12, 368430, Note_on_c, 11, 49, 0
12, 368880, Note_on_c, 11, 53, 80
12, 368910, Note_on_c, 11, 45, 0
12, 369120, Note_on_c, 11, 50, 80
12, 369150, Note_on_c, 11, 53, 0
12, 369360, Note_on_c, 11, 53, 80
12, 369390, Note_on_c, 11, 50, 0
12, 369600, Note_on_c, 11, 57, 80
12, 369630, Note_on_c, 11, 53, 0
12, 369840, Note_on_c, 11, 53, 80
12, 369870, Note_on_c, 11, 57, 0
12, 370080, Note_on_c, 11, 50, 80
12, 370110, Note_on_c, 11, 53, 0
12, 370320, Note_on_c, 11, 45, 80
12, 370350, Note_on_c, 11, 50, 0
12, 370800, Note_on_c, 11, 55, 80
12, 370830, Note_on_c, 11, 45, 0
12, 371040, Note_on_c, 11, 52, 80
12, 371070, Note_on_c, 11, 55, 0
12, 371280, Note_on_c, 11, 55, 80
12, 371310, Note_on_c, 11, 52, 0
12, 371520, Note_on_c, 11, 57, 80
12, 371550, Note_on_c, 11, 55, 0
12, 371760, Note_on_c, 11, 55, 80
12, 371790, Note_on_c, 11, 57, 0
12, 372000, Note_on_c, 11, 52, 80
12, 372030, Note_on_c, 11, 55, 0
12, 372240, Note_on_c, 11, 45, 80
12, 372270, Note_on_c, 11, 52, 0
12, 372480, Control_c, 11, 11, 80
12, 372570, Control_c, 11, 11, 81
12, 372650, Control_c, 11, 11, 82
12, 372720, Note_on_c, 11, 53, 80
12, 372730, Control_c, 11, 11, 83
12, 372750, Note_on_c, 11, 45, 0
12, 372810, Control_c, 11, 11, 84
12, 372890, Control_c, 11, 11, 85
12, 372960, Note_on_c, 11, 50, 80
12, 372980, Control_c, 11, 11, 86
12, 372990, Note_on_c, 11, 53, 0
12, 373060, Control_c, 11, 11, 87
12, 373140, Control_c, 11, 11, 88
12, 373200, Note_on_c, 11, 53, 80
12, 373220, Control_c, 11, 11, 89
12, 373230, Note_on_c, 11, 50, 0
12, 373300, Control_c, 11, 11, 90
12, 373380, Control_c, 11, 11, 91
12, 373440, Note_on_c, 11, 57, 80
12, 373470, Note_on_c, 11, 53, 0
12, 373470, Control_c, 11, 11, 92
12, 373550, Control_c, 11, 11, 93
12, 373630, Control_c, 11, 11, 94
12, 373680, Note_on_c, 11, 53, 80
12, 373710, Note_on_c, 11, 57, 0
12, 373710, Control_c, 11, 11, 95
12, 373790, Control_c, 11, 11, 96
12, 373870, Control_c, 11, 11, 97
12, 373920, Note_on_c, 11, 50, 80
12, 373950, Note_on_c, 11, 53, 0
12, 373960, Control_c, 11, 11, 98
12, 374040, Control_c, 11, 11, 99
12, 374120, Control_c, 11, 11, 100
12, 374160, Note_on_c, 11, 45, 80
12, 374190, Note_on_c, 11, 50, 0
12, 374200, Control_c, 11, 11, 101
12, 374280, Control_c, 11, 11, 102
12, 374360, Control_c, 11, 11, 103
12, 374450, Control_c, 11, 11, 104
12, 374530, Control_c, 11, 11, 105
12, 374610, Control_c, 11, 11, 106
12, 374640, Note_on_c, 11, 52, 80
12, 374670, Note_on_c, 11, 45, 0
12, 374690, Control_c, 11, 11, 107
12, 374770, Control_c, 11, 11, 108
12, 374850, Control_c, 11, 11, 109
12, 374880, Note_on_c, 11, 49, 80
12, 374910, Note_on_c, 11, 52, 0
12, 374940, Control_c, 11, 11, 110
12, 375020, Control_c, 11, 11, 111
12, 375100, Control_c, 11, 11, 112
12, 375120, Note_on_c, 11, 52, 80
12, 375150, Note_on_c, 11, 49, 0
12, 375180, Control_c, 11, 11, 113
12, 375260, Control_c, 11, 11, 114
12, 375340, Control_c, 11, 11, 115
12, 375360, Note_on_c, 11, 55, 80
12, 375390, Note_on_c, 11, 52, 0
12, 375430, Control_c, 11, 11, 116
12, 375510, Control_c, 11, 11, 117
12, 375590, Control_c, 11, 11, 118
12, 375600, Note_on_c, 11, 52, 80
12, 375630, Note_on_c, 11, 55, 0
12, 375670, Control_c, 11, 11, 119
12, 375750, Control_c, 11, 11, 120
12, 375830, Control_c, 11, 11, 121
12, 375840, Note_on_c, 11, 49, 80
12, 375870, Note_on_c, 11, 52, 0
12, 375920, Control_c, 11, 11, 122
12, 376000, Control_c, 11, 11, 123
12, 376080, Note_on_c, 11, 43, 80
12, 376080, Control_c, 11, 11, 124
12, 376110, Note_on_c, 11, 49, 0
12, 376160, Control_c, 11, 11, 125
12, 376240, Control_c, 11, 11, 126
12, 376290, Note_on_c, 11, 43, 0
12, 376290, Control_c, 11, 11, 127
12, 376320, Note_on_c, 11, 41, 80
12, 377250, Note_on_c, 11, 41, 0
12, 377280, Note_on_c, 11, 40, 80
12, 378210, Note_on_c, 11, 40, 0
12, 378240, Note_on_c, 11, 39, 80
12, 379170, Note_on_c, 11, 39, 0
12, 379200, Note_on_c, 11, 47, 80
12, 380157, Control_c, 11, 11, 80
12, 380400, Note_on_c, 11, 55, 80
12, 380430, Note_on_c, 11, 47, 0
12, 380640, Note_on_c, 11, 52, 80
12, 380670, Note_on_c, 11, 55, 0
12, 380880, Note_on_c, 11, 55, 80
12, 380910, Note_on_c, 11, 52, 0
12, 381120, Note_on_c, 11, 59, 80
12, 381150, Note_on_c, 11, 55, 0
12, 381360, Note_on_c, 11, 55, 80
12, 381390, Note_on_c, 11, 59, 0
12, 381600, Note_on_c, 11, 52, 80
12, 381630, Note_on_c, 11, 55, 0
12, 381840, Note_on_c, 11, 47, 80
12, 381870, Note_on_c, 11, 52, 0
12, 382080, Control_c, 11, 11, 80
12, 382210, Control_c, 11, 11, 81
12, 382320, Note_on_c, 11, 54, 80
12, 382330, Control_c, 11, 11, 82
12, 382350, Note_on_c, 11, 47, 0
12, 382450, Control_c, 11, 11, 83
12, 382560, Note_on_c, 11, 51, 80
12, 382580, Control_c, 11, 11, 84
12, 382590, Note_on_c, 11, 54, 0
12, 382700, Control_c, 11, 11, 85
12, 382800, Note_on_c, 11, 54, 81
12, 382820, Control_c, 11, 11, 86
12, 382830, Note_on_c, 11, 51, 0
12, 382940, Control_c, 11, 11, 87
12, 383040, Note_on_c, 11, 59, 82
12, 383070, Note_on_c, 11, 54, 0
12, 383070, Control_c, 11, 11, 88
12, 383190, Control_c, 11, 11, 89
12, 383280, Note_on_c, 11, 54, 83
12, 383310, Note_on_c, 11, 59, 0
12, 383310, Control_c, 11, 11, 90
12, 383430, Control_c, 11, 11, 91
12, 383520, Note_on_c, 11, 51, 84
12, 383550, Note_on_c, 11, 54, 0
12, 383560, Control_c, 11, 11, 92
12, 383680, Control_c, 11, 11, 93
12, 383760, Note_on_c, 11, 47, 85
12, 383790, Note_on_c, 11, 51, 0
12, 383800, Control_c, 11, 11, 94
12, 383920, Control_c, 11, 11, 95
12, 384050, Control_c, 11, 11, 96
12, 384170, Control_c, 11, 11, 97
12, 384240, Note_on_c, 11, 55, 86
12, 384270, Note_on_c, 11, 47, 0
12, 384290, Control_c, 11, 11, 98
12, 384410, Control_c, 11, 11, 99
12, 384480, Note_on_c, 11, 52, 87
12, 384510, Note_on_c, 11, 55, 0
12, 384540, Control_c, 11, 11, 100
12, 384660, Control_c, 11, 11, 101
12, 384720, Note_on_c, 11, 55, 88
12, 384750, Note_on_c, 11, 52, 0
12, 384780, Control_c, 11, 11, 102
12, 384900, Control_c, 11, 11, 103
12, 384960, Note_on_c, 11, 52, 89
12, 384990, Note_on_c, 11, 55, 0
12, 385030, Control_c, 11, 11, 104
12, 385150, Control_c, 11, 11, 105
12, 385200, Note_on_c, 11, 55, 90
12, 385230, Note_on_c, 11, 52, 0
12, 385270, Control_c, 11, 11, 106
12, 385390, Control_c, 11, 11, 107
12, 385440, Note_on_c, 11, 52, 91
12, 385470, Note_on_c, 11, 55, 0
12, 385520, Control_c, 11, 11, 108
12, 385640, Control_c, 11, 11, 109
12, 385680, Note_on_c, 11, 55, 92
12, 385710, Note_on_c, 11, 52, 0
12, 385760, Control_c, 11, 11, 110
12, 385880, Control_c, 11, 11, 111
12, 385890, Note_on_c, 11, 55, 0
12, 385920, Note_on_c, 11, 53, 93
12, 386010, Control_c, 11, 11, 112
12, 386130, Control_c, 11, 11, 113
12, 386160, Note_on_c, 11, 55, 93
12, 386190, Note_on_c, 11, 53, 0
12, 386250, Control_c, 11, 11, 114
12, 386370, Control_c, 11, 11, 115
12, 386400, Note_on_c, 11, 53, 94
12, 386430, Note_on_c, 11, 55, 0
12, 386500, Control_c, 11, 11, 116
12, 386620, Control_c, 11, 11, 117
12, 386640, Note_on_c, 11, 55, 95
12, 386670, Note_on_c, 11, 53, 0
12, 386740, Control_c, 11, 11, 118
12, 386860, Control_c, 11, 11, 119
12, 386880, Note_on_c, 11, 53, 96
12, 386910, Note_on_c, 11, 55, 0
12, 386990, Control_c, 11, 11, 120
12, 387110, Control_c, 11, 11, 121
12, 387120, Note_on_c, 11, 55, 97
12, 387150, Note_on_c, 11, 53, 0
12, 387230, Control_c, 11, 11, 122
12, 387350, Control_c, 11, 11, 123
12, 387360, Note_on_c, 11, 53, 98
12, 387390, Note_on_c, 11, 55, 0
12, 387480, Control_c, 11, 11, 124
12, 387600, Note_on_c, 11, 55, 99
12, 387600, Control_c, 11, 11, 125
12, 387630, Note_on_c, 11, 53, 0
12, 387720, Control_c, 11, 11, 126
12, 387810, Note_on_c, 11, 55, 0
12, 387840, Note_on_c, 11, 51, 110
12, 387840, Control_c, 11, 11, 127
12, 387880, Control_c, 11, 11, 126
12, 387920, Control_c, 11, 11, 125
12, 387960, Control_c, 11, 11, 124
12, 388000, Control_c, 11, 11, 123
12, 388040, Control_c, 11, 11, 122
12, 388080, Control_c, 11, 11, 121
12, 388120, Control_c, 11, 11, 120
12, 388160, Control_c, 11, 11, 119
12, 388200, Control_c, 11, 11, 118
12, 388240, Control_c, 11, 11, 117
12, 388280, Control_c, 11, 11, 116
12, 388290, Note_on_c, 11, 51, 0
12, 388320, Control_c, 11, 11, 115
12, 388350, Control_c, 11, 11, 114
12, 388390, Control_c, 11, 11, 113
12, 388430, Control_c, 11, 11, 112
12, 388470, Control_c, 11, 11, 111
12, 388510, Control_c, 11, 11, 110
12, 388550, Control_c, 11, 11, 109
12, 388590, Control_c, 11, 11, 108
12, 388630, Control_c, 11, 11, 107
12, 388670, Control_c, 11, 11, 106
12, 388710, Control_c, 11, 11, 105
12, 388750, Control_c, 11, 11, 104
12, 388790, Control_c, 11, 11, 103
12, 388800, Note_on_c, 11, 52, 90
12, 388820, Control_c, 11, 11, 102
12, 388860, Control_c, 11, 11, 101
12, 388900, Control_c, 11, 11, 100
12, 388940, Control_c, 11, 11, 99
12, 388980, Control_c, 11, 11, 98
12, 389020, Control_c, 11, 11, 97
12, 389060, Control_c, 11, 11, 96
12, 389100, Control_c, 11, 11, 95
12, 389140, Control_c, 11, 11, 94
12, 389180, Control_c, 11, 11, 93
12, 389220, Control_c, 11, 11, 92
12, 389250, Note_on_c, 11, 52, 0
12, 389260, Control_c, 11, 11, 91
12, 389290, Control_c, 11, 11, 90
12, 389330, Control_c, 11, 11, 89
12, 389370, Control_c, 11, 11, 88
12, 389410, Control_c, 11, 11, 87
12, 389450, Control_c, 11, 11, 86
12, 389490, Control_c, 11, 11, 85
12, 389530, Control_c, 11, 11, 84
12, 389570, Control_c, 11, 11, 83
12, 389610, Control_c, 11, 11, 82
12, 389650, Control_c, 11, 11, 81
12, 389690, Control_c, 11, 11, 80
12, 389760, Note_on_c, 11, 53, 80
12, 390210, Note_on_c, 11, 53, 0
12, 390720, Note_on_c, 11, 55, 80
12, 391170, Note_on_c, 11, 55, 0
12, 391680, Note_on_c, 11, 56, 80
12, 392130, Note_on_c, 11, 56, 0
12, 392640, Note_on_c, 11, 55, 80
12, 393090, Note_on_c, 11, 55, 0
12, 393600, Note_on_c, 11, 53, 80
12, 394050, Note_on_c, 11, 53, 0
12, 394560, Note_on_c, 11, 54, 80
12, 395010, Note_on_c, 11, 54, 0
12, 395520, Note_on_c, 11, 55, 80
12, 395970, Note_on_c, 11, 55, 0
12, 396480, Note_on_c, 11, 55, 80
12, 396930, Note_on_c, 11, 55, 0
12, 397440, Note_on_c, 11, 55, 80
12, 397890, Note_on_c, 11, 55, 0
12, 398400, Note_on_c, 11, 55, 80
12, 398850, Note_on_c, 11, 55, 0
12, 399360, Note_on_c, 11, 55, 80
12, 399810, Note_on_c, 11, 55, 0
12, 400320, Note_on_c, 11, 55, 84
12, 400770, Note_on_c, 11, 55, 0
12, 401280, Note_on_c, 11, 55, 88
12, 401730, Note_on_c, 11, 55, 0
12, 402240, Note_on_c, 11, 55, 92
12, 402690, Note_on_c, 11, 55, 0
12, 403200, Note_on_c, 11, 55, 97
12, 403650, Note_on_c, 11, 55, 0
12, 404160, Note_on_c, 11, 55, 101
12, 404610, Note_on_c, 11, 55, 0
12, 405120, Note_on_c, 11, 55, 105
12, 405570, Note_on_c, 11, 55, 0
12, 406080, Note_on_c, 11, 55, 110
12, 406530, Note_on_c, 11, 55, 0
12, 407040, Note_on_c, 11, 53, 90
12, 408480, Note_on_c, 11, 51, 90
12, 408510, Note_on_c, 11, 53, 0
12, 408930, Note_on_c, 11, 51, 0
12, 408960, Note_on_c, 11, 50, 90
12, 409440, Note_on_c, 11, 48, 90
12, 409470, Note_on_c, 11, 50, 0
12, 409920, Note_on_c, 11, 50, 90
12, 409950, Note_on_c, 11, 48, 0
12, 410400, Note_on_c, 11, 48, 90
12, 410430, Note_on_c, 11, 50, 0
12, 410730, Note_on_c, 11, 48, 0
12, 410880, Note_on_c, 11, 53, 90
12, 412320, Note_on_c, 11, 51, 90
12, 412350, Note_on_c, 11, 53, 0
12, 412770, Note_on_c, 11, 51, 0
12, 412800, Note_on_c, 11, 50, 90
12, 413280, Note_on_c, 11, 48, 90
12, 413310, Note_on_c, 11, 50, 0
12, 413760, Note_on_c, 11, 50, 90
12, 413790, Note_on_c, 11, 48, 0
12, 414240, Note_on_c, 11, 48, 90
12, 414270, Note_on_c, 11, 50, 0
12, 414570, Note_on_c, 11, 48, 0
12, 414720, Note_on_c, 11, 46, 90
12, 416160, Note_on_c, 11, 44, 90
12, 416190, Note_on_c, 11, 46, 0
12, 416610, Note_on_c, 11, 44, 0
12, 416640, Note_on_c, 11, 43, 90
12, 417120, Note_on_c, 11, 41, 90
12, 417150, Note_on_c, 11, 43, 0
12, 417600, Note_on_c, 11, 43, 90
12, 417630, Note_on_c, 11, 41, 0
12, 418080, Note_on_c, 11, 41, 90
12, 418110, Note_on_c, 11, 43, 0
12, 418410, Note_on_c, 11, 41, 0
12, 418560, Note_on_c, 11, 46, 90
12, 420000, Note_on_c, 11, 44, 90
12, 420030, Note_on_c, 11, 46, 0
12, 420450, Note_on_c, 11, 44, 0
12, 420480, Note_on_c, 11, 43, 90
12, 420960, Note_on_c, 11, 41, 90
12, 420990, Note_on_c, 11, 43, 0
12, 421440, Note_on_c, 11, 43, 90
12, 421470, Note_on_c, 11, 41, 0
12, 421920, Note_on_c, 11, 41, 90
12, 421950, Note_on_c, 11, 43, 0
12, 422370, Note_on_c, 11, 41, 0
12, 430080, Note_on_c, 11, 53, 90
12, 430770, Note_on_c, 11, 53, 0
12, 430800, Note_on_c, 11, 65, 90
12, 430920, Note_on_c, 11, 65, 0
12, 431040, Note_on_c, 11, 53, 90
12, 431730, Note_on_c, 11, 53, 0
12, 431760, Note_on_c, 11, 65, 90
12, 431880, Note_on_c, 11, 65, 0
12, 432000, Note_on_c, 11, 52, 90
12, 432690, Note_on_c, 11, 52, 0
12, 432720, Note_on_c, 11, 64, 90
12, 432840, Note_on_c, 11, 64, 0
12, 432960, Note_on_c, 11, 51, 90
12, 433650, Note_on_c, 11, 51, 0
12, 433680, Note_on_c, 11, 63, 90
12, 433800, Note_on_c, 11, 63, 0
12, 433920, Note_on_c, 11, 50, 90
12, 434610, Note_on_c, 11, 50, 0
12, 434640, Note_on_c, 11, 62, 90
12, 434760, Note_on_c, 11, 62, 0
12, 434880, Note_on_c, 11, 48, 90
12, 435570, Note_on_c, 11, 48, 0
12, 435600, Note_on_c, 11, 60, 90
12, 435720, Note_on_c, 11, 60, 0
12, 435840, Note_on_c, 11, 47, 90
12, 436530, Note_on_c, 11, 47, 0
12, 436560, Note_on_c, 11, 59, 90
12, 436680, Note_on_c, 11, 59, 0
12, 436800, Note_on_c, 11, 44, 90
12, 437490, Note_on_c, 11, 44, 0
12, 437520, Note_on_c, 11, 56, 90
12, 437640, Note_on_c, 11, 56, 0
12, 437760, Note_on_c, 11, 43, 90
12, 438210, Note_on_c, 11, 43, 0
12, 438480, Note_on_c, 11, 43, 90
12, 438600, Note_on_c, 11, 43, 0
12, 438720, Note_on_c, 11, 44, 90
12, 439050, Note_on_c, 11, 44, 0
12, 439440, Note_on_c, 11, 44, 90
12, 439560, Note_on_c, 11, 44, 0
12, 439680, Note_on_c, 11, 41, 90
12, 440010, Note_on_c, 11, 41, 0
12, 440400, Note_on_c, 11, 41, 90
12, 440520, Note_on_c, 11, 41, 0
12, 440640, Note_on_c, 11, 43, 90
12, 440970, Note_on_c, 11, 43, 0
12, 441360, Note_on_c, 11, 43, 90
12, 441480, Note_on_c, 11, 43, 0
12, 441600, Note_on_c, 11, 48, 70
12, 441750, Note_on_c, 11, 48, 0
12, 441840, Note_on_c, 11, 51, 70
12, 441990, Note_on_c, 11, 51, 0
12, 442080, Note_on_c, 11, 54, 70
12, 442230, Note_on_c, 11, 54, 0
12, 442320, Note_on_c, 11, 55, 70
12, 442470, Note_on_c, 11, 55, 0
12, 442560, Note_on_c, 11, 56, 70
12, 442710, Note_on_c, 11, 56, 0
12, 442800, Note_on_c, 11, 55, 70
12, 442950, Note_on_c, 11, 55, 0
12, 443040, Note_on_c, 11, 51, 70
12, 443190, Note_on_c, 11, 51, 0
12, 443280, Note_on_c, 11, 48, 70
12, 443430, Note_on_c, 11, 48, 0
12, 443520, Note_on_c, 11, 47, 70
12, 443670, Note_on_c, 11, 47, 0
12, 443760, Note_on_c, 11, 50, 70
12, 443910, Note_on_c, 11, 50, 0
12, 444000, Note_on_c, 11, 54, 70
12, 444150, Note_on_c, 11, 54, 0
12, 444240, Note_on_c, 11, 55, 70
12, 444390, Note_on_c, 11, 55, 0
12, 444480, Note_on_c, 11, 56, 70
12, 444630, Note_on_c, 11, 56, 0
12, 444720, Note_on_c, 11, 55, 70
12, 444870, Note_on_c, 11, 55, 0
12, 444960, Note_on_c, 11, 50, 70
12, 445110, Note_on_c, 11, 50, 0
12, 445200, Note_on_c, 11, 47, 100
12, 445350, Note_on_c, 11, 47, 0
12, 445440, Note_on_c, 11, 48, 100
12, 445590, Note_on_c, 11, 48, 0
12, 445680, Note_on_c, 11, 51, 100
12, 445830, Note_on_c, 11, 51, 0
12, 445920, Note_on_c, 11, 54, 70
12, 446070, Note_on_c, 11, 54, 0
12, 446160, Note_on_c, 11, 55, 70
12, 446310, Note_on_c, 11, 55, 0
12, 446400, Note_on_c, 11, 56, 70
12, 446550, Note_on_c, 11, 56, 0
12, 446640, Note_on_c, 11, 55, 70
12, 446790, Note_on_c, 11, 55, 0
12, 446880, Note_on_c, 11, 51, 70
12, 447030, Note_on_c, 11, 51, 0
12, 447120, Note_on_c, 11, 48, 70
12, 447270, Note_on_c, 11, 48, 0
12, 447360, Note_on_c, 11, 47, 70
12, 447510, Note_on_c, 11, 47, 0
12, 447600, Note_on_c, 11, 50, 70
12, 447750, Note_on_c, 11, 50, 0
12, 447840, Note_on_c, 11, 54, 70
12, 447990, Note_on_c, 11, 54, 0
12, 448080, Note_on_c, 11, 55, 70
12, 448230, Note_on_c, 11, 55, 0
12, 448320, Note_on_c, 11, 56, 70
12, 448470, Note_on_c, 11, 56, 0
12, 448560, Note_on_c, 11, 55, 70
12, 448710, Note_on_c, 11, 55, 0
12, 448800, Note_on_c, 11, 50, 70
12, 448950, Note_on_c, 11, 50, 0
12, 449040, Note_on_c, 11, 47, 100
12, 449190, Note_on_c, 11, 47, 0
12, 449280, Note_on_c, 11, 48, 100
12, 449430, Note_on_c, 11, 48, 0
12, 449520, Note_on_c, 11, 51, 100
12, 449670, Note_on_c, 11, 51, 0
12, 449760, Note_on_c, 11, 55, 70
12, 449910, Note_on_c, 11, 55, 0
12, 450000, Note_on_c, 11, 56, 70
12, 450150, Note_on_c, 11, 56, 0
12, 450240, Note_on_c, 11, 46, 70
12, 450390, Note_on_c, 11, 46, 0
12, 450480, Note_on_c, 11, 50, 70
12, 450630, Note_on_c, 11, 50, 0
12, 450720, Note_on_c, 11, 54, 70
12, 450870, Note_on_c, 11, 54, 0
12, 450960, Note_on_c, 11, 55, 70
12, 451110, Note_on_c, 11, 55, 0
12, 451200, Note_on_c, 11, 44, 70
12, 451350, Note_on_c, 11, 44, 0
12, 451440, Note_on_c, 11, 48, 70
12, 451590, Note_on_c, 11, 48, 0
12, 451680, Note_on_c, 11, 52, 70
12, 451830, Note_on_c, 11, 52, 0
12, 451920, Note_on_c, 11, 53, 70
12, 452070, Note_on_c, 11, 53, 0
12, 452160, Note_on_c, 11, 43, 70
12, 452310, Note_on_c, 11, 43, 0
12, 452400, Note_on_c, 11, 46, 70
12, 452550, Note_on_c, 11, 46, 0
12, 452640, Note_on_c, 11, 50, 70
12, 452790, Note_on_c, 11, 50, 0
12, 452880, Note_on_c, 11, 51, 70
12, 453030, Note_on_c, 11, 51, 0
12, 453120, Note_on_c, 11, 41, 70
12, 453270, Note_on_c, 11, 41, 0
12, 453360, Note_on_c, 11, 44, 70
12, 453510, Note_on_c, 11, 44, 0
12, 453600, Note_on_c, 11, 48, 70
12, 453750, Note_on_c, 11, 48, 0
12, 453840, Note_on_c, 11, 50, 70
12, 453990, Note_on_c, 11, 50, 0
12, 454080, Note_on_c, 11, 51, 70
12, 454230, Note_on_c, 11, 51, 0
12, 454320, Note_on_c, 11, 55, 70
12, 454470, Note_on_c, 11, 55, 0
12, 454560, Note_on_c, 11, 59, 70
12, 454710, Note_on_c, 11, 59, 0
12, 454800, Note_on_c, 11, 60, 70
12, 454950, Note_on_c, 11, 60, 0
12, 455040, Note_on_c, 11, 50, 70
12, 455190, Note_on_c, 11, 50, 0
12, 455280, Note_on_c, 11, 53, 70
12, 455430, Note_on_c, 11, 53, 0
12, 455520, Note_on_c, 11, 56, 70
12, 455670, Note_on_c, 11, 56, 0
12, 455760, Note_on_c, 11, 60, 70
12, 455910, Note_on_c, 11, 60, 0
12, 456000, Note_on_c, 11, 43, 70
12, 456150, Note_on_c, 11, 43, 0
12, 456240, Note_on_c, 11, 47, 70
12, 456390, Note_on_c, 11, 47, 0
12, 456480, Note_on_c, 11, 50, 70
12, 456630, Note_on_c, 11, 50, 0
12, 456720, Note_on_c, 11, 55, 70
12, 456870, Note_on_c, 11, 55, 0
12, 456960, Note_on_c, 11, 48, 80
12, 457110, Note_on_c, 11, 48, 0
12, 457200, Note_on_c, 11, 51, 80
12, 457350, Note_on_c, 11, 51, 0
12, 457440, Note_on_c, 11, 55, 80
12, 457590, Note_on_c, 11, 55, 0
12, 457680, Note_on_c, 11, 56, 80
12, 457830, Note_on_c, 11, 56, 0
12, 457920, Note_on_c, 11, 46, 80
12, 458070, Note_on_c, 11, 46, 0
12, 458160, Note_on_c, 11, 50, 80
12, 458310, Note_on_c, 11, 50, 0
12, 458400, Note_on_c, 11, 54, 80
12, 458550, Note_on_c, 11, 54, 0
12, 458640, Note_on_c, 11, 55, 80
12, 458790, Note_on_c, 11, 55, 0
12, 458880, Note_on_c, 11, 44, 80
12, 459030, Note_on_c, 11, 44, 0
12, 459120, Note_on_c, 11, 48, 80
12, 459270, Note_on_c, 11, 48, 0
12, 459360, Note_on_c, 11, 52, 80
12, 459510, Note_on_c, 11, 52, 0
12, 459600, Note_on_c, 11, 53, 80
12, 459750, Note_on_c, 11, 53, 0
12, 459840, Note_on_c, 11, 43, 80
12, 459990, Note_on_c, 11, 43, 0
12, 460080, Note_on_c, 11, 46, 80
12, 460230, Note_on_c, 11, 46, 0
12, 460320, Note_on_c, 11, 50, 80
12, 460470, Note_on_c, 11, 50, 0
12, 460560, Note_on_c, 11, 51, 80
12, 460710, Note_on_c, 11, 51, 0
12, 460800, Note_on_c, 11, 53, 80
12, 461250, Note_on_c, 11, 53, 0
12, 468480, Note_on_c, 11, 48, 60
12, 468960, Note_on_c, 11, 48, 0
12, 470160, Note_on_c, 11, 48, 60
12, 470400, Note_on_c, 11, 53, 60
12, 470430, Note_on_c, 11, 48, 0
12, 470880, Note_on_c, 11, 53, 0
12, 472080, Note_on_c, 11, 53, 60
12, 472320, Note_on_c, 11, 52, 60
12, 472350, Note_on_c, 11, 53, 0
12, 472800, Note_on_c, 11, 52, 0
12, 474000, Note_on_c, 11, 52, 60
12, 474240, Note_on_c, 11, 47, 60
12, 474270, Note_on_c, 11, 52, 0
12, 474720, Note_on_c, 11, 47, 0
12, 475920, Note_on_c, 11, 47, 60
12, 476160, Note_on_c, 11, 48, 60
12, 476190, Note_on_c, 11, 47, 0
12, 476640, Note_on_c, 11, 48, 0
12, 477840, Note_on_c, 11, 48, 60
12, 478080, Note_on_c, 11, 53, 60
12, 478110, Note_on_c, 11, 48, 0
12, 478560, Note_on_c, 11, 53, 0
12, 479760, Note_on_c, 11, 53, 60
12, 480000, Note_on_c, 11, 51, 60
12, 480030, Note_on_c, 11, 53, 0
12, 480480, Note_on_c, 11, 51, 0
12, 481680, Note_on_c, 11, 51, 60
12, 481920, Note_on_c, 11, 47, 60
12, 481950, Note_on_c, 11, 51, 0
12, 482400, Note_on_c, 11, 47, 0
12, 483600, Note_on_c, 11, 47, 60
12, 483840, Note_on_c, 11, 48, 60
12, 483870, Note_on_c, 11, 47, 0
12, 484320, Note_on_c, 11, 48, 0
12, 485520, Note_on_c, 11, 48, 68
12, 485760, Note_on_c, 11, 53, 70
12, 485790, Note_on_c, 11, 48, 0
12, 486240, Note_on_c, 11, 53, 0
12, 487440, Note_on_c, 11, 41, 78
12, 487680, Note_on_c, 11, 39, 80
12, 487710, Note_on_c, 11, 41, 0
12, 489570, Note_on_c, 11, 39, 0
12, 489600, Note_on_c, 11, 42, 90
12, 491430, Note_on_c, 11, 42, 0
12, 491520, Note_on_c, 11, 41, 55
12, 493350, Note_on_c, 11, 41, 0
12, 493440, Note_on_c, 11, 44, 90
12, 495270, Note_on_c, 11, 44, 0
12, 495360, Note_on_c, 11, 43, 55
12, 497190, Note_on_c, 11, 43, 0
12, 497280, Note_on_c, 11, 46, 90
12, 499110, Note_on_c, 11, 46, 0
12, 499200, Note_on_c, 11, 44, 60
12, 499830, Note_on_c, 11, 44, 0
12, 499920, Note_on_c, 11, 56, 62
12, 500070, Note_on_c, 11, 56, 0
12, 500160, Note_on_c, 11, 55, 63
12, 500790, Note_on_c, 11, 55, 0
12, 500880, Note_on_c, 11, 55, 66
12, 501030, Note_on_c, 11, 55, 0
12, 501120, Note_on_c, 11, 53, 67
12, 501750, Note_on_c, 11, 53, 0
12, 501840, Note_on_c, 11, 53, 70
12, 501990, Note_on_c, 11, 53, 0
12, 502080, Note_on_c, 11, 51, 71
12, 502710, Note_on_c, 11, 51, 0
12, 502800, Note_on_c, 11, 51, 74
12, 502950, Note_on_c, 11, 51, 0
12, 503040, Note_on_c, 11, 56, 75
12, 503670, Note_on_c, 11, 56, 0
12, 503760, Note_on_c, 11, 56, 77
12, 503910, Note_on_c, 11, 56, 0
12, 504000, Note_on_c, 11, 55, 78
12, 504630, Note_on_c, 11, 55, 0
12, 504720, Note_on_c, 11, 55, 81
12, 504870, Note_on_c, 11, 55, 0
12, 504960, Note_on_c, 11, 53, 82
12, 505590, Note_on_c, 11, 53, 0
12, 505680, Note_on_c, 11, 53, 85
12, 505830, Note_on_c, 11, 53, 0
12, 505920, Note_on_c, 11, 51, 86
12, 506550, Note_on_c, 11, 51, 0
12, 506640, Note_on_c, 11, 51, 89
12, 506790, Note_on_c, 11, 51, 0
12, 506880, Note_on_c, 11, 41, 90
12, 507510, Note_on_c, 11, 41, 0
12, 507600, Note_on_c, 11, 53, 90
12, 507750, Note_on_c, 11, 53, 0
12, 507840, Note_on_c, 11, 53, 90
12, 508770, Note_on_c, 11, 53, 0
12, 508800, Note_on_c, 11, 41, 90
12, 509430, Note_on_c, 11, 41, 0
12, 509520, Note_on_c, 11, 53, 90
12, 509670, Note_on_c, 11, 53, 0
12, 509760, Note_on_c, 11, 53, 90
12, 510690, Note_on_c, 11, 53, 0
12, 510720, Note_on_c, 11, 43, 90
12, 511350, Note_on_c, 11, 43, 0
12, 511440, Note_on_c, 11, 55, 90
12, 511590, Note_on_c, 11, 55, 0
12, 511680, Note_on_c, 11, 55, 90
12, 512610, Note_on_c, 11, 55, 0
12, 512640, Note_on_c, 11, 43, 90
12, 513270, Note_on_c, 11, 43, 0
12, 513360, Note_on_c, 11, 55, 90
12, 513510, Note_on_c, 11, 55, 0
12, 513600, Note_on_c, 11, 55, 90
12, 514530, Note_on_c, 11, 55, 0
12, 514560, Note_on_c, 11, 44, 90
12, 515190, Note_on_c, 11, 44, 0
12, 515280, Note_on_c, 11, 56, 90
12, 515430, Note_on_c, 11, 56, 0
12, 515520, Note_on_c, 11, 56, 90
12, 516450, Note_on_c, 11, 56, 0
12, 516480, Note_on_c, 11, 47, 90
12, 517110, Note_on_c, 11, 47, 0
12, 517200, Note_on_c, 11, 59, 90
12, 517350, Note_on_c, 11, 59, 0
12, 517440, Note_on_c, 11, 59, 90
12, 518370, Note_on_c, 11, 59, 0
12, 518400, Note_on_c, 11, 48, 90
12, 518550, Note_on_c, 11, 48, 0
12, 518640, Note_on_c, 11, 47, 90
12, 518790, Note_on_c, 11, 47, 0
12, 518880, Note_on_c, 11, 48, 90
12, 519030, Note_on_c, 11, 48, 0
12, 519120, Note_on_c, 11, 50, 90
12, 519270, Note_on_c, 11, 50, 0
12, 519360, Note_on_c, 11, 51, 90
12, 519510, Note_on_c, 11, 51, 0
12, 519600, Note_on_c, 11, 50, 90
12, 519750, Note_on_c, 11, 50, 0
12, 519840, Note_on_c, 11, 51, 90
12, 519990, Note_on_c, 11, 51, 0
12, 520080, Note_on_c, 11, 48, 90
12, 520230, Note_on_c, 11, 48, 0
12, 520320, Note_on_c, 11, 47, 90
12, 520470, Note_on_c, 11, 47, 0
12, 520560, Note_on_c, 11, 48, 90
12, 520710, Note_on_c, 11, 48, 0
12, 520800, Note_on_c, 11, 50, 90
12, 520950, Note_on_c, 11, 50, 0
12, 521040, Note_on_c, 11, 48, 90
12, 521190, Note_on_c, 11, 48, 0
12, 521280, Note_on_c, 11, 47, 90
12, 521430, Note_on_c, 11, 47, 0
12, 521520, Note_on_c, 11, 48, 90
12, 521670, Note_on_c, 11, 48, 0
12, 521760, Note_on_c, 11, 47, 90
12, 521910, Note_on_c, 11, 47, 0
12, 522000, Note_on_c, 11, 43, 90
12, 522150, Note_on_c, 11, 43, 0
12, 522240, Note_on_c, 11, 48, 90
12, 522390, Note_on_c, 11, 48, 0
12, 522480, Note_on_c, 11, 47, 90
12, 522630, Note_on_c, 11, 47, 0
12, 522720, Note_on_c, 11, 48, 90
12, 522870, Note_on_c, 11, 48, 0
12, 522960, Note_on_c, 11, 50, 90
12, 523110, Note_on_c, 11, 50, 0
12, 523200, Note_on_c, 11, 51, 90
12, 523350, Note_on_c, 11, 51, 0
12, 523440, Note_on_c, 11, 50, 90
12, 523590, Note_on_c, 11, 50, 0
12, 523680, Note_on_c, 11, 51, 90
12, 523830, Note_on_c, 11, 51, 0
12, 523920, Note_on_c, 11, 48, 90
12, 524070, Note_on_c, 11, 48, 0
12, 524160, Note_on_c, 11, 47, 90
12, 524310, Note_on_c, 11, 47, 0
12, 524400, Note_on_c, 11, 48, 90
12, 524550, Note_on_c, 11, 48, 0
12, 524640, Note_on_c, 11, 50, 90
12, 524790, Note_on_c, 11, 50, 0
12, 524880, Note_on_c, 11, 48, 90
12, 525030, Note_on_c, 11, 48, 0
12, 525120, Note_on_c, 11, 47, 90
12, 525270, Note_on_c, 11, 47, 0
12, 525360, Note_on_c, 11, 48, 90
12, 525510, Note_on_c, 11, 48, 0
12, 525600, Note_on_c, 11, 47, 90
12, 525750, Note_on_c, 11, 47, 0
12, 525840, Note_on_c, 11, 43, 90
12, 525990, Note_on_c, 11, 43, 0
12, 526080, Note_on_c, 11, 48, 90
12, 526230, Note_on_c, 11, 48, 0
12, 526320, Note_on_c, 11, 47, 90
12, 526470, Note_on_c, 11, 47, 0
12, 526560, Note_on_c, 11, 48, 90
12, 526710, Note_on_c, 11, 48, 0
12, 526800, Note_on_c, 11, 43, 90
12, 526950, Note_on_c, 11, 43, 0
12, 527040, Note_on_c, 11, 48, 90
12, 527190, Note_on_c, 11, 48, 0
12, 527280, Note_on_c, 11, 47, 90
12, 527430, Note_on_c, 11, 47, 0
12, 527520, Note_on_c, 11, 48, 90
12, 527670, Note_on_c, 11, 48, 0
12, 527760, Note_on_c, 11, 43, 90
12, 527910, Note_on_c, 11, 43, 0
12, 528000, Note_on_c, 11, 48, 90
12, 528150, Note_on_c, 11, 48, 0
12, 528240, Note_on_c, 11, 47, 90
12, 528390, Note_on_c, 11, 47, 0
12, 528480, Note_on_c, 11, 48, 90
12, 528630, Note_on_c, 11, 48, 0
12, 528720, Note_on_c, 11, 43, 90
12, 528870, Note_on_c, 11, 43, 0
12, 528960, Note_on_c, 11, 48, 90
12, 529110, Note_on_c, 11, 48, 0
12, 529200, Note_on_c, 11, 47, 90
12, 529350, Note_on_c, 11, 47, 0
12, 529440, Note_on_c, 11, 48, 90
12, 529590, Note_on_c, 11, 48, 0
12, 529680, Note_on_c, 11, 43, 90
12, 529830, Note_on_c, 11, 43, 0
12, 533760, Note_on_c, 11, 41, 110
12, 533970, Note_on_c, 11, 41, 0
12, 541440, Note_on_c, 11, 41, 90
12, 541650, Note_on_c, 11, 41, 0
12, 554880, Note_on_c, 11, 41, 90
12, 555090, Note_on_c, 11, 41, 0
12, 555360, Note_on_c, 11, 43, 90
12, 555570, Note_on_c, 11, 43, 0
12, 556800, Note_on_c, 11, 44, 80
12, 557160, Note_on_c, 11, 44, 0
12, 557760, Note_on_c, 11, 47, 70
12, 558120, Note_on_c, 11, 47, 0
12, 560640, Note_on_c, 11, 48, 70
12, 561060, Note_on_c, 11, 48, 0
12, 564480, Note_on_c, 11, 43, 60
12, 564930, Note_on_c, 11, 43, 0
12, 570240, Note_on_c, 11, 48, 80
12, 570360, Note_on_c, 11, 48, 0
12, 570480, Note_on_c, 11, 51, 70
12, 570600, Note_on_c, 11, 51, 0
12, 570720, Note_on_c, 11, 51, 70
12, 570960, Note_on_c, 11, 50, 70
12, 570990, Note_on_c, 11, 51, 0
12, 571170, Note_on_c, 11, 50, 0
12, 571200, Note_on_c, 11, 50, 70
12, 571350, Note_on_c, 11, 50, 0
12, 571440, Note_on_c, 11, 56, 70
12, 571560, Note_on_c, 11, 56, 0
12, 571680, Note_on_c, 11, 56, 70
12, 571920, Note_on_c, 11, 55, 70
12, 571950, Note_on_c, 11, 56, 0
12, 572100, Note_on_c, 11, 55, 0
12, 574080, Note_on_c, 11, 48, 90
12, 574400, Note_on_c, 11, 51, 90
12, 574430, Note_on_c, 11, 48, 0
12, 574720, Note_on_c, 11, 50, 90
12, 574750, Note_on_c, 11, 51, 0
12, 575360, Note_on_c, 11, 56, 90
12, 575390, Note_on_c, 11, 50, 0
12, 575680, Note_on_c, 11, 55, 90
12, 575710, Note_on_c, 11, 56, 0
12, 576090, Note_on_c, 11, 55, 0
12, 577440, Note_on_c, 11, 48, 90
12, 577920, Note_on_c, 11, 51, 90
12, 577950, Note_on_c, 11, 48, 0
12, 579360, Note_on_c, 11, 50, 90
12, 579390, Note_on_c, 11, 51, 0
12, 579960, Note_on_c, 11, 50, 0
12, 581280, Note_on_c, 11, 50, 90
12, 581760, Note_on_c, 11, 56, 90
12, 581790, Note_on_c, 11, 50, 0
12, 583200, Note_on_c, 11, 55, 88
12, 583230, Note_on_c, 11, 56, 0
12, 585600, Note_on_c, 11, 51, 84
12, 585630, Note_on_c, 11, 55, 0
12, 587520, Note_on_c, 11, 50, 81
12, 587550, Note_on_c, 11, 51, 0
12, 589440, Note_on_c, 11, 56, 79
12, 589440, Control_c, 11, 11, 80
12, 589470, Note_on_c, 11, 50, 0
12, 589920, Control_c, 11, 11, 79
12, 590400, Control_c, 11, 11, 78
12, 590880, Control_c, 11, 11, 77
12, 591360, Control_c, 11, 11, 76
12, 591840, Control_c, 11, 11, 75
12, 592320, Control_c, 11, 11, 74
12, 592800, Control_c, 11, 11, 73
12, 593280, Control_c, 11, 11, 72
12, 593760, Control_c, 11, 11, 71
12, 594240, Control_c, 11, 11, 70
12, 594330, Control_c, 11, 11, 69
12, 594420, Control_c, 11, 11, 68
12, 594510, Control_c, 11, 11, 67
12, 594590, Control_c, 11, 11, 66
12, 594680, Control_c, 11, 11, 65
12, 594720, Note_on_c, 11, 55, 81
12, 594750, Note_on_c, 11, 56, 0
12, 594770, Control_c, 11, 11, 64
12, 594860, Control_c, 11, 11, 63
12, 594940, Control_c, 11, 11, 62
12, 594960, Note_on_c, 11, 55, 0
12, 595030, Control_c, 11, 11, 61
12, 595120, Control_c, 11, 11, 60
12, 595200, Note_on_c, 11, 48, 70
12, 595320, Note_on_c, 11, 48, 0
12, 597120, Control_c, 11, 11, 80
12, 599040, Note_on_c, 11, 36, 55
12, 599490, Note_on_c, 11, 36, 0
12, 600960, Note_on_c, 11, 36, 55
12, 601410, Note_on_c, 11, 36, 0
12, 602880, Note_on_c, 11, 36, 55
12, 603330, Note_on_c, 11, 36, 0
12, 603330, End_track
13, 0, Start_track
13, 0, Channel_prefix, 12
13, 0, Title_t, "Contrabass"
13, 0, Instrument_name_t, "Contrabasso"
13, 1920, Note_on_c, 12, 36, 95
13, 1920, Control_c, 12, 11, 80
13, 1940, Control_c, 12, 11, 79
13, 1960, Control_c, 12, 11, 78
13, 1970, Control_c, 12, 11, 77
13, 1990, Control_c, 12, 11, 76
13, 2000, Control_c, 12, 11, 75
13, 2020, Control_c, 12, 11, 74
13, 2040, Control_c, 12, 11, 73
13, 2050, Control_c, 12, 11, 72
13, 2070, Control_c, 12, 11, 71
13, 2080, Control_c, 12, 11, 70
13, 2100, Control_c, 12, 11, 69
13, 2120, Control_c, 12, 11, 68
13, 2130, Control_c, 12, 11, 67
13, 2150, Control_c, 12, 11, 66
13, 2160, Control_c, 12, 11, 65
13, 2180, Control_c, 12, 11, 64
13, 2200, Control_c, 12, 11, 63
13, 2210, Control_c, 12, 11, 62
13, 2230, Control_c, 12, 11, 61
13, 2240, Control_c, 12, 11, 60
13, 2260, Control_c, 12, 11, 59
13, 2280, Control_c, 12, 11, 58
13, 2290, Control_c, 12, 11, 57
13, 2310, Control_c, 12, 11, 56
13, 2320, Control_c, 12, 11, 55
13, 2340, Control_c, 12, 11, 54
13, 2360, Control_c, 12, 11, 53
13, 2370, Control_c, 12, 11, 52
13, 2390, Control_c, 12, 11, 51
13, 2410, Control_c, 12, 11, 50
13, 2470, Control_c, 12, 11, 51
13, 2520, Control_c, 12, 11, 52
13, 2570, Control_c, 12, 11, 53
13, 2620, Control_c, 12, 11, 54
13, 2670, Control_c, 12, 11, 55
13, 2720, Control_c, 12, 11, 56
13, 2770, Control_c, 12, 11, 57
13, 2820, Control_c, 12, 11, 58
13, 2870, Control_c, 12, 11, 59
13, 2920, Control_c, 12, 11, 60
13, 2970, Control_c, 12, 11, 61
13, 3020, Control_c, 12, 11, 62
13, 3070, Control_c, 12, 11, 63
13, 3120, Control_c, 12, 11, 64
13, 3170, Control_c, 12, 11, 65
13, 3220, Control_c, 12, 11, 66
13, 3270, Control_c, 12, 11, 67
13, 3320, Control_c, 12, 11, 68
13, 3370, Control_c, 12, 11, 69
13, 3420, Control_c, 12, 11, 70
13, 3480, Control_c, 12, 11, 71
13, 3530, Control_c, 12, 11, 72
13, 3580, Control_c, 12, 11, 73
13, 3630, Control_c, 12, 11, 74
13, 3680, Control_c, 12, 11, 75
13, 3730, Control_c, 12, 11, 76
13, 3780, Control_c, 12, 11, 77
13, 3830, Control_c, 12, 11, 78
13, 3880, Control_c, 12, 11, 79
13, 3930, Control_c, 12, 11, 80
13, 3980, Control_c, 12, 11, 81
13, 4030, Control_c, 12, 11, 82
13, 4080, Control_c, 12, 11, 83
13, 4130, Control_c, 12, 11, 84
13, 4180, Control_c, 12, 11, 85
13, 4230, Control_c, 12, 11, 86
13, 4280, Control_c, 12, 11, 87
13, 4330, Control_c, 12, 11, 88
13, 4380, Control_c, 12, 11, 89
13, 4430, Control_c, 12, 11, 90
13, 4490, Control_c, 12, 11, 91
13, 4540, Control_c, 12, 11, 92
13, 4590, Control_c, 12, 11, 93
13, 4640, Control_c, 12, 11, 94
13, 4690, Control_c, 12, 11, 95
13, 4740, Control_c, 12, 11, 96
13, 4790, Control_c, 12, 11, 97
13, 4840, Control_c, 12, 11, 98
13, 4890, Control_c, 12, 11, 99
13, 4940, Control_c, 12, 11, 100
13, 4990, Control_c, 12, 11, 101
13, 5040, Control_c, 12, 11, 102
13, 5090, Control_c, 12, 11, 103
13, 5140, Control_c, 12, 11, 104
13, 5190, Control_c, 12, 11, 105
13, 5240, Control_c, 12, 11, 106
13, 5290, Control_c, 12, 11, 107
13, 5340, Control_c, 12, 11, 108
13, 5390, Control_c, 12, 11, 109
13, 5440, Control_c, 12, 11, 110
13, 5490, Note_on_c, 12, 36, 0
13, 5760, Note_on_c, 12, 29, 95
13, 5910, Note_on_c, 12, 29, 0
13, 9594, Control_c, 12, 11, 80
13, 9600, Note_on_c, 12, 36, 95
13, 9620, Control_c, 12, 11, 79
13, 9640, Control_c, 12, 11, 78
13, 9650, Control_c, 12, 11, 77
13, 9670, Control_c, 12, 11, 76
13, 9680, Control_c, 12, 11, 75
13, 9700, Control_c, 12, 11, 74
13, 9720, Control_c, 12, 11, 73
13, 9730, Control_c, 12, 11, 72
13, 9750, Control_c, 12, 11, 71
13, 9760, Control_c, 12, 11, 70
13, 9780, Control_c, 12, 11, 69
13, 9800, Control_c, 12, 11, 68
13, 9810, Control_c, 12, 11, 67
13, 9830, Control_c, 12, 11, 66
13, 9840, Control_c, 12, 11, 65
13, 9860, Control_c, 12, 11, 64
13, 9880, Control_c, 12, 11, 63
13, 9890, Control_c, 12, 11, 62
13, 9910, Control_c, 12, 11, 61
13, 9920, Control_c, 12, 11, 60
13, 9940, Control_c, 12, 11, 59
13, 9960, Control_c, 12, 11, 58
13, 9970, Control_c, 12, 11, 57
13, 9990, Control_c, 12, 11, 56
13, 10000, Control_c, 12, 11, 55
13, 10020, Control_c, 12, 11, 54
13, 10040, Control_c, 12, 11, 53
13, 10050, Control_c, 12, 11, 52
13, 10070, Control_c, 12, 11, 51
13, 10090, Control_c, 12, 11, 50
13, 10150, Control_c, 12, 11, 51
13, 10200, Control_c, 12, 11, 52
13, 10250, Control_c, 12, 11, 53
13, 10300, Control_c, 12, 11, 54
13, 10350, Control_c, 12, 11, 55
13, 10400, Control_c, 12, 11, 56
13, 10450, Control_c, 12, 11, 57
13, 10500, Control_c, 12, 11, 58
13, 10550, Control_c, 12, 11, 59
13, 10600, Control_c, 12, 11, 60
13, 10650, Control_c, 12, 11, 61
13, 10700, Control_c, 12, 11, 62
13, 10750, Control_c, 12, 11, 63
13, 10800, Control_c, 12, 11, 64
13, 10850, Control_c, 12, 11, 65
13, 10900, Control_c, 12, 11, 66
13, 10950, Control_c, 12, 11, 67
13, 11000, Control_c, 12, 11, 68
13, 11050, Control_c, 12, 11, 69
13, 11100, Control_c, 12, 11, 70
13, 11160, Control_c, 12, 11, 71
13, 11210, Control_c, 12, 11, 72
13, 11260, Control_c, 12, 11, 73
13, 11310, Control_c, 12, 11, 74
13, 11360, Control_c, 12, 11, 75
13, 11410, Control_c, 12, 11, 76
13, 11460, Control_c, 12, 11, 77
13, 11510, Control_c, 12, 11, 78
13, 11560, Control_c, 12, 11, 79
13, 11610, Control_c, 12, 11, 80
13, 11660, Control_c, 12, 11, 81
13, 11710, Control_c, 12, 11, 82
13, 11760, Control_c, 12, 11, 83
13, 11810, Control_c, 12, 11, 84
13, 11860, Control_c, 12, 11, 85
13, 11910, Control_c, 12, 11, 86
13, 11960, Control_c, 12, 11, 87
13, 12010, Control_c, 12, 11, 88
13, 12060, Control_c, 12, 11, 89
13, 12110, Control_c, 12, 11, 90
13, 12170, Control_c, 12, 11, 91
13, 12220, Control_c, 12, 11, 92
13, 12270, Control_c, 12, 11, 93
13, 12320, Control_c, 12, 11, 94
13, 12370, Control_c, 12, 11, 95
13, 12420, Control_c, 12, 11, 96
13, 12470, Control_c, 12, 11, 97
13, 12520, Control_c, 12, 11, 98
13, 12570, Control_c, 12, 11, 99
13, 12620, Control_c, 12, 11, 100
13, 12670, Control_c, 12, 11, 101
13, 12720, Control_c, 12, 11, 102
13, 12770, Control_c, 12, 11, 103
13, 12820, Control_c, 12, 11, 104
13, 12870, Control_c, 12, 11, 105
13, 12920, Control_c, 12, 11, 106
13, 12970, Control_c, 12, 11, 107
13, 13020, Control_c, 12, 11, 108
13, 13070, Control_c, 12, 11, 109
13, 13120, Control_c, 12, 11, 110
13, 13170, Note_on_c, 12, 36, 0
13, 13440, Note_on_c, 12, 29, 95
13, 13440, Note_on_c, 12, 74, 95
13, 13590, Note_on_c, 12, 29, 0
13, 13590, Note_on_c, 12, 74, 0
13, 17274, Control_c, 12, 11, 80
13, 17280, Note_on_c, 12, 36, 95
13, 17300, Control_c, 12, 11, 79
13, 17320, Control_c, 12, 11, 78
13, 17330, Control_c, 12, 11, 77
13, 17350, Control_c, 12, 11, 76
13, 17360, Control_c, 12, 11, 75
13, 17380, Control_c, 12, 11, 74
13, 17400, Control_c, 12, 11, 73
13, 17410, Control_c, 12, 11, 72
13, 17430, Control_c, 12, 11, 71
13, 17440, Control_c, 12, 11, 70
13, 17460, Control_c, 12, 11, 69
13, 17480, Control_c, 12, 11, 68
13, 17490, Control_c, 12, 11, 67
13, 17510, Control_c, 12, 11, 66
13, 17520, Control_c, 12, 11, 65
13, 17540, Control_c, 12, 11, 64
13, 17560, Control_c, 12, 11, 63
13, 17570, Control_c, 12, 11, 62
13, 17590, Control_c, 12, 11, 61
13, 17600, Control_c, 12, 11, 60
13, 17620, Control_c, 12, 11, 59
13, 17640, Control_c, 12, 11, 58
13, 17650, Control_c, 12, 11, 57
13, 17670, Control_c, 12, 11, 56
13, 17680, Control_c, 12, 11, 55
13, 17700, Control_c, 12, 11, 54
13, 17720, Control_c, 12, 11, 53
13, 17730, Control_c, 12, 11, 52
13, 17750, Control_c, 12, 11, 51
13, 17770, Control_c, 12, 11, 50
13, 17830, Control_c, 12, 11, 51
13, 17880, Control_c, 12, 11, 52
13, 17930, Control_c, 12, 11, 53
13, 17980, Control_c, 12, 11, 54
13, 18030, Control_c, 12, 11, 55
13, 18080, Control_c, 12, 11, 56
13, 18130, Control_c, 12, 11, 57
13, 18180, Control_c, 12, 11, 58
13, 18230, Control_c, 12, 11, 59
13, 18280, Control_c, 12, 11, 60
13, 18330, Control_c, 12, 11, 61
13, 18380, Control_c, 12, 11, 62
13, 18430, Control_c, 12, 11, 63
13, 18480, Control_c, 12, 11, 64
13, 18530, Control_c, 12, 11, 65
13, 18580, Control_c, 12, 11, 66
13, 18630, Control_c, 12, 11, 67
13, 18680, Control_c, 12, 11, 68
13, 18730, Control_c, 12, 11, 69
13, 18780, Control_c, 12, 11, 70
13, 18840, Control_c, 12, 11, 71
13, 18890, Control_c, 12, 11, 72
13, 18940, Control_c, 12, 11, 73
13, 18990, Control_c, 12, 11, 74
13, 19040, Control_c, 12, 11, 75
13, 19090, Control_c, 12, 11, 76
13, 19140, Control_c, 12, 11, 77
13, 19190, Control_c, 12, 11, 78
13, 19240, Control_c, 12, 11, 79
13, 19290, Control_c, 12, 11, 80
13, 19340, Control_c, 12, 11, 81
13, 19390, Control_c, 12, 11, 82
13, 19440, Control_c, 12, 11, 83
13, 19490, Control_c, 12, 11, 84
13, 19540, Control_c, 12, 11, 85
13, 19590, Control_c, 12, 11, 86
13, 19640, Control_c, 12, 11, 87
13, 19690, Control_c, 12, 11, 88
13, 19740, Control_c, 12, 11, 89
13, 19790, Control_c, 12, 11, 90
13, 19850, Control_c, 12, 11, 91
13, 19900, Control_c, 12, 11, 92
13, 19950, Control_c, 12, 11, 93
13, 20000, Control_c, 12, 11, 94
13, 20050, Control_c, 12, 11, 95
13, 20100, Control_c, 12, 11, 96
13, 20150, Control_c, 12, 11, 97
13, 20200, Control_c, 12, 11, 98
13, 20250, Control_c, 12, 11, 99
13, 20300, Control_c, 12, 11, 100
13, 20350, Control_c, 12, 11, 101
13, 20400, Control_c, 12, 11, 102
13, 20450, Control_c, 12, 11, 103
13, 20500, Control_c, 12, 11, 104
13, 20550, Control_c, 12, 11, 105
13, 20600, Control_c, 12, 11, 106
13, 20650, Control_c, 12, 11, 107
13, 20700, Control_c, 12, 11, 108
13, 20750, Control_c, 12, 11, 109
13, 20800, Control_c, 12, 11, 110
13, 20850, Note_on_c, 12, 36, 0
13, 21120, Note_on_c, 12, 30, 95
13, 21270, Note_on_c, 12, 30, 0
13, 24960, Note_on_c, 12, 31, 95
13, 25170, Note_on_c, 12, 31, 0
13, 26880, Note_on_c, 12, 31, 95
13, 27120, Note_on_c, 12, 31, 0
13, 28800, Note_on_c, 12, 36, 80
13, 29250, Note_on_c, 12, 36, 0
13, 30720, Note_on_c, 12, 36, 80
13, 31170, Note_on_c, 12, 36, 0
13, 32640, Note_on_c, 12, 36, 80
13, 33090, Note_on_c, 12, 36, 0
13, 36480, Note_on_c, 12, 48, 80
13, 36480, Control_c, 12, 11, 80
13, 36590, Control_c, 12, 11, 81
13, 36700, Control_c, 12, 11, 82
13, 36810, Control_c, 12, 11, 83
13, 36920, Control_c, 12, 11, 84
13, 37030, Control_c, 12, 11, 85
13, 37140, Control_c, 12, 11, 86
13, 37170, Note_on_c, 12, 48, 0
13, 37200, Note_on_c, 12, 48, 87
13, 37240, Control_c, 12, 11, 87
13, 37350, Control_c, 12, 11, 88
13, 37410, Note_on_c, 12, 48, 0
13, 37440, Note_on_c, 12, 46, 90
13, 37460, Control_c, 12, 11, 89
13, 37570, Control_c, 12, 11, 90
13, 37680, Control_c, 12, 11, 91
13, 37790, Control_c, 12, 11, 92
13, 37890, Control_c, 12, 11, 93
13, 38000, Control_c, 12, 11, 94
13, 38110, Control_c, 12, 11, 95
13, 38130, Note_on_c, 12, 46, 0
13, 38160, Note_on_c, 12, 46, 97
13, 38220, Control_c, 12, 11, 96
13, 38330, Control_c, 12, 11, 97
13, 38370, Note_on_c, 12, 46, 0
13, 38400, Note_on_c, 12, 44, 100
13, 38440, Control_c, 12, 11, 98
13, 38540, Control_c, 12, 11, 99
13, 38650, Control_c, 12, 11, 100
13, 38760, Control_c, 12, 11, 101
13, 38870, Control_c, 12, 11, 102
13, 38980, Control_c, 12, 11, 103
13, 39090, Note_on_c, 12, 44, 0
13, 39090, Control_c, 12, 11, 104
13, 39120, Note_on_c, 12, 44, 107
13, 39190, Control_c, 12, 11, 105
13, 39300, Control_c, 12, 11, 106
13, 39330, Note_on_c, 12, 44, 0
13, 39360, Note_on_c, 12, 43, 110
13, 39410, Control_c, 12, 11, 107
13, 39520, Control_c, 12, 11, 108
13, 39630, Control_c, 12, 11, 109
13, 39690, Note_on_c, 12, 43, 0
13, 39740, Control_c, 12, 11, 110
13, 40317, Control_c, 12, 11, 80
13, 42240, Note_on_c, 12, 34, 80
13, 42690, Note_on_c, 12, 34, 0
13, 44160, Note_on_c, 12, 34, 80
13, 44610, Note_on_c, 12, 34, 0
13, 46080, Note_on_c, 12, 34, 80
13, 46530, Note_on_c, 12, 34, 0
13, 49920, Note_on_c, 12, 46, 80
13, 49920, Control_c, 12, 11, 80
13, 50030, Control_c, 12, 11, 81
13, 50140, Control_c, 12, 11, 82
13, 50250, Control_c, 12, 11, 83
13, 50360, Control_c, 12, 11, 84
13, 50470, Control_c, 12, 11, 85
13, 50580, Control_c, 12, 11, 86
13, 50610, Note_on_c, 12, 46, 0
13, 50640, Note_on_c, 12, 46, 87
13, 50680, Control_c, 12, 11, 87
13, 50790, Control_c, 12, 11, 88
13, 50850, Note_on_c, 12, 46, 0
13, 50880, Note_on_c, 12, 44, 90
13, 50900, Control_c, 12, 11, 89
13, 51010, Control_c, 12, 11, 90
13, 51120, Control_c, 12, 11, 91
13, 51230, Control_c, 12, 11, 92
13, 51330, Control_c, 12, 11, 93
13, 51440, Control_c, 12, 11, 94
13, 51550, Control_c, 12, 11, 95
13, 51570, Note_on_c, 12, 44, 0
13, 51600, Note_on_c, 12, 44, 97
13, 51660, Control_c, 12, 11, 96
13, 51770, Control_c, 12, 11, 97
13, 51810, Note_on_c, 12, 44, 0
13, 51840, Note_on_c, 12, 43, 100
13, 51880, Control_c, 12, 11, 98
13, 51980, Control_c, 12, 11, 99
13, 52090, Control_c, 12, 11, 100
13, 52200, Control_c, 12, 11, 101
13, 52230, Note_on_c, 12, 43, 0
13, 52310, Control_c, 12, 11, 102
13, 52320, Note_on_c, 12, 43, 110
13, 52420, Control_c, 12, 11, 103
13, 52530, Control_c, 12, 11, 104
13, 52630, Control_c, 12, 11, 105
13, 52650, Note_on_c, 12, 43, 0
13, 52740, Control_c, 12, 11, 106
13, 52850, Control_c, 12, 11, 107
13, 52960, Control_c, 12, 11, 108
13, 53070, Control_c, 12, 11, 109
13, 53180, Control_c, 12, 11, 110
13, 53757, Control_c, 12, 11, 80
13, 55680, Note_on_c, 12, 44, 80
13, 56370, Note_on_c, 12, 44, 0
13, 56400, Note_on_c, 12, 44, 80
13, 56610, Note_on_c, 12, 44, 0
13, 56640, Note_on_c, 12, 43, 80
13, 57330, Note_on_c, 12, 43, 0
13, 57360, Note_on_c, 12, 43, 80
13, 57570, Note_on_c, 12, 43, 0
13, 57600, Note_on_c, 12, 41, 80
13, 57600, Control_c, 12, 11, 80
13, 57970, Control_c, 12, 11, 81
13, 58340, Control_c, 12, 11, 83
13, 58700, Control_c, 12, 11, 84
13, 59010, Note_on_c, 12, 41, 0
13, 59040, Note_on_c, 12, 43, 85
13, 59070, Control_c, 12, 11, 86
13, 59430, Control_c, 12, 11, 87
13, 59490, Note_on_c, 12, 43, 0
13, 59520, Note_on_c, 12, 41, 87
13, 59800, Control_c, 12, 11, 89
13, 60160, Control_c, 12, 11, 90
13, 60530, Control_c, 12, 11, 92
13, 60900, Control_c, 12, 11, 93
13, 60930, Note_on_c, 12, 41, 0
13, 60960, Note_on_c, 12, 43, 93
13, 61260, Control_c, 12, 11, 95
13, 61410, Note_on_c, 12, 43, 0
13, 61440, Note_on_c, 12, 41, 95
13, 61630, Control_c, 12, 11, 97
13, 61990, Control_c, 12, 11, 98
13, 62130, Note_on_c, 12, 41, 0
13, 62160, Note_on_c, 12, 43, 97
13, 62360, Control_c, 12, 11, 100
13, 62370, Note_on_c, 12, 43, 0
13, 62400, Note_on_c, 12, 41, 98
13, 62720, Control_c, 12, 11, 101
13, 63090, Note_on_c, 12, 41, 0
13, 63090, Control_c, 12, 11, 103
13, 63120, Note_on_c, 12, 43, 101
13, 63330, Note_on_c, 12, 43, 0
13, 63360, Note_on_c, 12, 41, 102
13, 63460, Control_c, 12, 11, 104
13, 63820, Control_c, 12, 11, 106
13, 64050, Note_on_c, 12, 41, 0
13, 64080, Note_on_c, 12, 43, 105
13, 64190, Control_c, 12, 11, 107
13, 64290, Note_on_c, 12, 43, 0
13, 64320, Note_on_c, 12, 41, 106
13, 64550, Control_c, 12, 11, 109
13, 64920, Control_c, 12, 11, 110
13, 65010, Note_on_c, 12, 41, 0
13, 65040, Note_on_c, 12, 43, 109
13, 65250, Note_on_c, 12, 43, 0
13, 65280, Note_on_c, 12, 44, 110
13, 67680, Note_on_c, 12, 43, 110
13, 67710, Note_on_c, 12, 44, 0
13, 68160, Note_on_c, 12, 41, 110
13, 68190, Note_on_c, 12, 43, 0
13, 68640, Note_on_c, 12, 39, 110
13, 68670, Note_on_c, 12, 41, 0
13, 69090, Note_on_c, 12, 39, 0
13, 69120, Note_on_c, 12, 38, 110
13, 69810, Note_on_c, 12, 38, 0
13, 70080, Note_on_c, 12, 36, 110
13, 70770, Note_on_c, 12, 36, 0
13, 71040, Note_on_c, 12, 35, 110
13, 71730, Note_on_c, 12, 35, 0
13, 72000, Note_on_c, 12, 36, 110
13, 72690, Note_on_c, 12, 36, 0
13, 72960, Note_on_c, 12, 34, 110
13, 73650, Note_on_c, 12, 34, 0
13, 73920, Note_on_c, 12, 32, 110
13, 74610, Note_on_c, 12, 32, 0
13, 74880, Note_on_c, 12, 31, 110
13, 75570, Note_on_c, 12, 31, 0
13, 75840, Note_on_c, 12, 29, 110
13, 76530, Note_on_c, 12, 29, 0
13, 76800, Note_on_c, 12, 30, 80
13, 77760, Note_on_c, 12, 30, 0
13, 78720, Note_on_c, 12, 30, 80
13, 79680, Note_on_c, 12, 30, 0
13, 80640, Note_on_c, 12, 29, 80
13, 81600, Note_on_c, 12, 29, 0
13, 82560, Note_on_c, 12, 29, 80
13, 83520, Note_on_c, 12, 29, 0
13, 84480, Note_on_c, 12, 28, 80
13, 86370, Note_on_c, 12, 28, 0
13, 86400, Note_on_c, 12, 27, 80
13, 88290, Note_on_c, 12, 27, 0
13, 88320, Note_on_c, 12, 26, 70
13, 89730, Note_on_c, 12, 26, 0
13, 89760, Note_on_c, 12, 27, 70
13, 90240, Note_on_c, 12, 26, 70
13, 90270, Note_on_c, 12, 27, 0
13, 91650, Note_on_c, 12, 26, 0
13, 91680, Note_on_c, 12, 27, 70
13, 92160, Note_on_c, 12, 26, 70
13, 92190, Note_on_c, 12, 27, 0
13, 93570, Note_on_c, 12, 26, 0
13, 93600, Note_on_c, 12, 27, 70
13, 94080, Note_on_c, 12, 26, 70
13, 94110, Note_on_c, 12, 27, 0
13, 95490, Note_on_c, 12, 26, 0
13, 95520, Note_on_c, 12, 27, 70
13, 96000, Note_on_c, 12, 26, 70
13, 96030, Note_on_c, 12, 27, 0
13, 96480, Note_on_c, 12, 26, 0
13, 99840, Note_on_c, 12, 39, 60
13, 100320, Note_on_c, 12, 39, 0
13, 101520, Note_on_c, 12, 39, 60
13, 101760, Note_on_c, 12, 32, 60
13, 101790, Note_on_c, 12, 39, 0
13, 102240, Note_on_c, 12, 32, 0
13, 103440, Note_on_c, 12, 32, 60
13, 103680, Note_on_c, 12, 31, 60
13, 103710, Note_on_c, 12, 32, 0
13, 104160, Note_on_c, 12, 31, 0
13, 105360, Note_on_c, 12, 31, 60
13, 105600, Note_on_c, 12, 38, 60
13, 105630, Note_on_c, 12, 31, 0
13, 106080, Note_on_c, 12, 38, 0
13, 107280, Note_on_c, 12, 38, 60
13, 107520, Note_on_c, 12, 39, 60
13, 107520, Control_c, 12, 11, 80
13, 107550, Note_on_c, 12, 38, 0
13, 108000, Note_on_c, 12, 39, 0
13, 108040, Control_c, 12, 11, 81
13, 108550, Control_c, 12, 11, 82
13, 109060, Control_c, 12, 11, 83
13, 109200, Note_on_c, 12, 39, 60
13, 109440, Note_on_c, 12, 32, 60
13, 109470, Note_on_c, 12, 39, 0
13, 109570, Control_c, 12, 11, 84
13, 109920, Note_on_c, 12, 32, 0
13, 110080, Control_c, 12, 11, 85
13, 110600, Control_c, 12, 11, 86
13, 111110, Control_c, 12, 11, 87
13, 111120, Note_on_c, 12, 32, 60
13, 111360, Note_on_c, 12, 31, 60
13, 111390, Note_on_c, 12, 32, 0
13, 111620, Control_c, 12, 11, 88
13, 111840, Note_on_c, 12, 31, 0
13, 112130, Control_c, 12, 11, 89
13, 112640, Control_c, 12, 11, 90
13, 113040, Note_on_c, 12, 31, 60
13, 113160, Control_c, 12, 11, 91
13, 113280, Note_on_c, 12, 38, 60
13, 113310, Note_on_c, 12, 31, 0
13, 113670, Control_c, 12, 11, 92
13, 113760, Note_on_c, 12, 38, 0
13, 114180, Control_c, 12, 11, 93
13, 114690, Control_c, 12, 11, 94
13, 114960, Note_on_c, 12, 38, 60
13, 115200, Note_on_c, 12, 39, 70
13, 115200, Control_c, 12, 11, 95
13, 115230, Note_on_c, 12, 38, 0
13, 115320, Control_c, 12, 11, 96
13, 115440, Control_c, 12, 11, 97
13, 115560, Control_c, 12, 11, 98
13, 115680, Note_on_c, 12, 39, 0
13, 115680, Control_c, 12, 11, 99
13, 115800, Control_c, 12, 11, 100
13, 115920, Control_c, 12, 11, 101
13, 116040, Control_c, 12, 11, 102
13, 116160, Control_c, 12, 11, 103
13, 116280, Control_c, 12, 11, 104
13, 116400, Control_c, 12, 11, 105
13, 116510, Control_c, 12, 11, 106
13, 116630, Control_c, 12, 11, 107
13, 116750, Control_c, 12, 11, 108
13, 116870, Control_c, 12, 11, 109
13, 116880, Note_on_c, 12, 39, 70
13, 116990, Control_c, 12, 11, 110
13, 117110, Control_c, 12, 11, 111
13, 117120, Note_on_c, 12, 32, 70
13, 117150, Note_on_c, 12, 39, 0
13, 117230, Control_c, 12, 11, 112
13, 117350, Control_c, 12, 11, 113
13, 117470, Control_c, 12, 11, 114
13, 117590, Control_c, 12, 11, 115
13, 117600, Note_on_c, 12, 32, 0
13, 117710, Control_c, 12, 11, 116
13, 117820, Control_c, 12, 11, 117
13, 117940, Control_c, 12, 11, 118
13, 118060, Control_c, 12, 11, 119
13, 118180, Control_c, 12, 11, 120
13, 118300, Control_c, 12, 11, 121
13, 118420, Control_c, 12, 11, 122
13, 118540, Control_c, 12, 11, 123
13, 118660, Control_c, 12, 11, 124
13, 118780, Control_c, 12, 11, 125
13, 118800, Note_on_c, 12, 32, 70
13, 118900, Control_c, 12, 11, 126
13, 119020, Control_c, 12, 11, 127
13, 119040, Note_on_c, 12, 31, 70
13, 119070, Note_on_c, 12, 32, 0
13, 119970, Note_on_c, 12, 31, 0
13, 120000, Note_on_c, 12, 29, 70
13, 120930, Note_on_c, 12, 29, 0
13, 120960, Note_on_c, 12, 28, 70
13, 121890, Note_on_c, 12, 28, 0
13, 121920, Note_on_c, 12, 36, 70
13, 122850, Note_on_c, 12, 36, 0
13, 122877, Control_c, 12, 11, 80
13, 122880, Note_on_c, 12, 29, 70
13, 123360, Note_on_c, 12, 29, 0
13, 124560, Note_on_c, 12, 29, 70
13, 124800, Note_on_c, 12, 34, 70
13, 124830, Note_on_c, 12, 29, 0
13, 125280, Note_on_c, 12, 34, 0
13, 126480, Note_on_c, 12, 34, 70
13, 126720, Note_on_c, 12, 32, 70
13, 126750, Note_on_c, 12, 34, 0
13, 127200, Note_on_c, 12, 32, 0
13, 128400, Note_on_c, 12, 32, 70
13, 128640, Note_on_c, 12, 28, 70
13, 128670, Note_on_c, 12, 32, 0
13, 129120, Note_on_c, 12, 28, 0
13, 130320, Note_on_c, 12, 28, 70
13, 130560, Note_on_c, 12, 29, 70
13, 130560, Control_c, 12, 11, 80
13, 130590, Note_on_c, 12, 28, 0
13, 130650, Control_c, 12, 11, 81
13, 130730, Control_c, 12, 11, 82
13, 130810, Control_c, 12, 11, 83
13, 130890, Control_c, 12, 11, 84
13, 130970, Control_c, 12, 11, 85
13, 131040, Note_on_c, 12, 29, 0
13, 131060, Control_c, 12, 11, 86
13, 131140, Control_c, 12, 11, 87
13, 131220, Control_c, 12, 11, 88
13, 131300, Control_c, 12, 11, 89
13, 131380, Control_c, 12, 11, 90
13, 131460, Control_c, 12, 11, 91
13, 131550, Control_c, 12, 11, 92
13, 131630, Control_c, 12, 11, 93
13, 131710, Control_c, 12, 11, 94
13, 131790, Control_c, 12, 11, 95
13, 131870, Control_c, 12, 11, 96
13, 131950, Control_c, 12, 11, 97
13, 132040, Control_c, 12, 11, 98
13, 132120, Control_c, 12, 11, 99
13, 132200, Control_c, 12, 11, 100
13, 132240, Note_on_c, 12, 29, 70
13, 132280, Control_c, 12, 11, 101
13, 132360, Control_c, 12, 11, 102
13, 132440, Control_c, 12, 11, 103
13, 132480, Note_on_c, 12, 34, 70
13, 132510, Note_on_c, 12, 29, 0
13, 132530, Control_c, 12, 11, 104
13, 132610, Control_c, 12, 11, 105
13, 132690, Control_c, 12, 11, 106
13, 132770, Control_c, 12, 11, 107
13, 132850, Control_c, 12, 11, 108
13, 132930, Control_c, 12, 11, 109
13, 132960, Note_on_c, 12, 34, 0
13, 133020, Control_c, 12, 11, 110
13, 133100, Control_c, 12, 11, 111
13, 133180, Control_c, 12, 11, 112
13, 133260, Control_c, 12, 11, 113
13, 133340, Control_c, 12, 11, 114
13, 133420, Control_c, 12, 11, 115
13, 133510, Control_c, 12, 11, 116
13, 133590, Control_c, 12, 11, 117
13, 133670, Control_c, 12, 11, 118
13, 133750, Control_c, 12, 11, 119
13, 133830, Control_c, 12, 11, 120
13, 133910, Control_c, 12, 11, 121
13, 134000, Control_c, 12, 11, 122
13, 134080, Control_c, 12, 11, 123
13, 134160, Note_on_c, 12, 34, 70
13, 134160, Control_c, 12, 11, 124
13, 134240, Control_c, 12, 11, 125
13, 134320, Control_c, 12, 11, 126
13, 134380, Control_c, 12, 11, 127
13, 134400, Note_on_c, 12, 32, 70
13, 134430, Note_on_c, 12, 34, 0
13, 135330, Note_on_c, 12, 32, 0
13, 135360, Note_on_c, 12, 31, 70
13, 136290, Note_on_c, 12, 31, 0
13, 136320, Note_on_c, 12, 30, 70
13, 137250, Note_on_c, 12, 30, 0
13, 137280, Note_on_c, 12, 38, 70
13, 138210, Note_on_c, 12, 38, 0
13, 138240, Note_on_c, 12, 31, 70
13, 138240, Control_c, 12, 11, 80
13, 138330, Control_c, 12, 11, 81
13, 138410, Control_c, 12, 11, 82
13, 138490, Control_c, 12, 11, 83
13, 138570, Control_c, 12, 11, 84
13, 138650, Control_c, 12, 11, 85
13, 138720, Note_on_c, 12, 31, 0
13, 138740, Control_c, 12, 11, 86
13, 138820, Control_c, 12, 11, 87
13, 138900, Control_c, 12, 11, 88
13, 138980, Control_c, 12, 11, 89
13, 139060, Control_c, 12, 11, 90
13, 139140, Control_c, 12, 11, 91
13, 139230, Control_c, 12, 11, 92
13, 139310, Control_c, 12, 11, 93
13, 139390, Control_c, 12, 11, 94
13, 139470, Control_c, 12, 11, 95
13, 139550, Control_c, 12, 11, 96
13, 139630, Control_c, 12, 11, 97
13, 139720, Control_c, 12, 11, 98
13, 139800, Control_c, 12, 11, 99
13, 139880, Control_c, 12, 11, 100
13, 139920, Note_on_c, 12, 31, 70
13, 139960, Control_c, 12, 11, 101
13, 140040, Control_c, 12, 11, 102
13, 140120, Control_c, 12, 11, 103
13, 140160, Note_on_c, 12, 36, 70
13, 140190, Note_on_c, 12, 31, 0
13, 140210, Control_c, 12, 11, 104
13, 140290, Control_c, 12, 11, 105
13, 140370, Control_c, 12, 11, 106
13, 140450, Control_c, 12, 11, 107
13, 140530, Control_c, 12, 11, 108
13, 140610, Control_c, 12, 11, 109
13, 140640, Note_on_c, 12, 36, 0
13, 140700, Control_c, 12, 11, 110
13, 140780, Control_c, 12, 11, 111
13, 140860, Control_c, 12, 11, 112
13, 140940, Control_c, 12, 11, 113
13, 141020, Control_c, 12, 11, 114
13, 141100, Control_c, 12, 11, 115
13, 141190, Control_c, 12, 11, 116
13, 141270, Control_c, 12, 11, 117
13, 141350, Control_c, 12, 11, 118
13, 141430, Control_c, 12, 11, 119
13, 141510, Control_c, 12, 11, 120
13, 141590, Control_c, 12, 11, 121
13, 141680, Control_c, 12, 11, 122
13, 141760, Control_c, 12, 11, 123
13, 141840, Note_on_c, 12, 36, 70
13, 141840, Control_c, 12, 11, 124
13, 141920, Control_c, 12, 11, 125
13, 142000, Control_c, 12, 11, 126
13, 142080, Note_on_c, 12, 35, 70
13, 142080, Control_c, 12, 11, 127
13, 142110, Note_on_c, 12, 36, 0
13, 142120, Control_c, 12, 11, 126
13, 142160, Control_c, 12, 11, 125
13, 142200, Control_c, 12, 11, 124
13, 142240, Control_c, 12, 11, 123
13, 142280, Control_c, 12, 11, 122
13, 142320, Control_c, 12, 11, 121
13, 142360, Control_c, 12, 11, 120
13, 142400, Control_c, 12, 11, 119
13, 142440, Control_c, 12, 11, 118
13, 142480, Control_c, 12, 11, 117
13, 142520, Control_c, 12, 11, 116
13, 142560, Control_c, 12, 11, 115
13, 142600, Control_c, 12, 11, 114
13, 142640, Control_c, 12, 11, 113
13, 142680, Control_c, 12, 11, 112
13, 142720, Control_c, 12, 11, 111
13, 142760, Control_c, 12, 11, 110
13, 142800, Control_c, 12, 11, 109
13, 142840, Control_c, 12, 11, 108
13, 142880, Control_c, 12, 11, 107
13, 142920, Control_c, 12, 11, 106
13, 142960, Control_c, 12, 11, 105
13, 143000, Control_c, 12, 11, 104
13, 143040, Control_c, 12, 11, 103
13, 143080, Control_c, 12, 11, 102
13, 143120, Control_c, 12, 11, 101
13, 143160, Control_c, 12, 11, 100
13, 143200, Control_c, 12, 11, 99
13, 143240, Control_c, 12, 11, 98
13, 143280, Control_c, 12, 11, 97
13, 143320, Control_c, 12, 11, 96
13, 143360, Control_c, 12, 11, 95
13, 143400, Control_c, 12, 11, 94
13, 143440, Control_c, 12, 11, 93
13, 143480, Control_c, 12, 11, 92
13, 143520, Control_c, 12, 11, 91
13, 143560, Control_c, 12, 11, 90
13, 143600, Control_c, 12, 11, 89
13, 143640, Control_c, 12, 11, 88
13, 143680, Control_c, 12, 11, 87
13, 143720, Control_c, 12, 11, 86
13, 143760, Control_c, 12, 11, 85
13, 143800, Control_c, 12, 11, 84
13, 143840, Control_c, 12, 11, 83
13, 143880, Control_c, 12, 11, 82
13, 143920, Control_c, 12, 11, 81
13, 143960, Control_c, 12, 11, 80
13, 143970, Note_on_c, 12, 35, 0
13, 144000, Note_on_c, 12, 36, 80
13, 144480, Note_on_c, 12, 36, 0
13, 144960, Note_on_c, 12, 38, 80
13, 145440, Note_on_c, 12, 38, 0
13, 145920, Note_on_c, 12, 39, 80
13, 146400, Note_on_c, 12, 39, 0
13, 146880, Note_on_c, 12, 38, 80
13, 147360, Note_on_c, 12, 38, 0
13, 147840, Note_on_c, 12, 36, 80
13, 148320, Note_on_c, 12, 36, 0
13, 148800, Note_on_c, 12, 37, 80
13, 149280, Note_on_c, 12, 37, 0
13, 149760, Note_on_c, 12, 38, 70
13, 150240, Note_on_c, 12, 38, 0
13, 150720, Note_on_c, 12, 38, 70
13, 151200, Note_on_c, 12, 38, 0
13, 151680, Note_on_c, 12, 38, 70
13, 152160, Note_on_c, 12, 38, 0
13, 152640, Note_on_c, 12, 38, 70
13, 153120, Note_on_c, 12, 38, 0
13, 153600, Note_on_c, 12, 38, 70
13, 154080, Note_on_c, 12, 38, 0
13, 154560, Note_on_c, 12, 38, 73
13, 155040, Note_on_c, 12, 38, 0
13, 155520, Note_on_c, 12, 38, 77
13, 156000, Note_on_c, 12, 38, 0
13, 156480, Note_on_c, 12, 38, 81
13, 156960, Note_on_c, 12, 38, 0
13, 157440, Note_on_c, 12, 38, 85
13, 157920, Note_on_c, 12, 38, 0
13, 158400, Note_on_c, 12, 38, 88
13, 158880, Note_on_c, 12, 38, 0
13, 159360, Note_on_c, 12, 38, 92
13, 159840, Note_on_c, 12, 38, 0
13, 160320, Note_on_c, 12, 38, 96
13, 160800, Note_on_c, 12, 38, 0
13, 161280, Note_on_c, 12, 48, 100
13, 162720, Note_on_c, 12, 46, 100
13, 162750, Note_on_c, 12, 48, 0
13, 163170, Note_on_c, 12, 46, 0
13, 163200, Note_on_c, 12, 45, 100
13, 163680, Note_on_c, 12, 43, 100
13, 163710, Note_on_c, 12, 45, 0
13, 164160, Note_on_c, 12, 45, 100
13, 164190, Note_on_c, 12, 43, 0
13, 164640, Note_on_c, 12, 43, 100
13, 164670, Note_on_c, 12, 45, 0
13, 165090, Note_on_c, 12, 43, 0
13, 165120, Note_on_c, 12, 48, 100
13, 166560, Note_on_c, 12, 46, 100
13, 166590, Note_on_c, 12, 48, 0
13, 167010, Note_on_c, 12, 46, 0
13, 167040, Note_on_c, 12, 45, 100
13, 167520, Note_on_c, 12, 43, 100
13, 167550, Note_on_c, 12, 45, 0
13, 168000, Note_on_c, 12, 45, 100
13, 168030, Note_on_c, 12, 43, 0
13, 168480, Note_on_c, 12, 43, 100
13, 168510, Note_on_c, 12, 45, 0
13, 168930, Note_on_c, 12, 43, 0
13, 168960, Note_on_c, 12, 41, 100
13, 170400, Note_on_c, 12, 39, 100
13, 170430, Note_on_c, 12, 41, 0
13, 170850, Note_on_c, 12, 39, 0
13, 170880, Note_on_c, 12, 38, 100
13, 171360, Note_on_c, 12, 36, 100
13, 171390, Note_on_c, 12, 38, 0
13, 171840, Note_on_c, 12, 38, 100
13, 171870, Note_on_c, 12, 36, 0
13, 172320, Note_on_c, 12, 36, 100
13, 172350, Note_on_c, 12, 38, 0
13, 172770, Note_on_c, 12, 36, 0
13, 172800, Note_on_c, 12, 41, 100
13, 174240, Note_on_c, 12, 39, 100
13, 174270, Note_on_c, 12, 41, 0
13, 174690, Note_on_c, 12, 39, 0
13, 174720, Note_on_c, 12, 38, 100
13, 175200, Note_on_c, 12, 36, 100
13, 175230, Note_on_c, 12, 38, 0
13, 175680, Note_on_c, 12, 38, 100
13, 175710, Note_on_c, 12, 36, 0
13, 176160, Note_on_c, 12, 36, 100
13, 176190, Note_on_c, 12, 38, 0
13, 176610, Note_on_c, 12, 36, 0
13, 176640, Note_on_c, 12, 36, 100
13, 177090, Note_on_c, 12, 36, 0
13, 178560, Note_on_c, 12, 36, 100
13, 179010, Note_on_c, 12, 36, 0
13, 180480, Note_on_c, 12, 36, 100
13, 180930, Note_on_c, 12, 36, 0
13, 182400, Note_on_c, 12, 36, 100
13, 182850, Note_on_c, 12, 36, 0
13, 184320, Note_on_c, 12, 36, 100
13, 185010, Note_on_c, 12, 36, 0
13, 185040, Note_on_c, 12, 48, 100
13, 185160, Note_on_c, 12, 48, 0
13, 185280, Note_on_c, 12, 36, 100
13, 185970, Note_on_c, 12, 36, 0
13, 186000, Note_on_c, 12, 48, 100
13, 186120, Note_on_c, 12, 48, 0
13, 186240, Note_on_c, 12, 35, 100
13, 186930, Note_on_c, 12, 35, 0
13, 186960, Note_on_c, 12, 47, 100
13, 187080, Note_on_c, 12, 47, 0
13, 187200, Note_on_c, 12, 34, 100
13, 187890, Note_on_c, 12, 34, 0
13, 187920, Note_on_c, 12, 46, 100
13, 188040, Note_on_c, 12, 46, 0
13, 188160, Note_on_c, 12, 32, 100
13, 188850, Note_on_c, 12, 32, 0
13, 188880, Note_on_c, 12, 44, 100
13, 189000, Note_on_c, 12, 44, 0
13, 189120, Note_on_c, 12, 31, 100
13, 189810, Note_on_c, 12, 31, 0
13, 189840, Note_on_c, 12, 43, 100
13, 189960, Note_on_c, 12, 43, 0
13, 190080, Note_on_c, 12, 30, 100
13, 190770, Note_on_c, 12, 30, 0
13, 190800, Note_on_c, 12, 42, 100
13, 190920, Note_on_c, 12, 42, 0
13, 191040, Note_on_c, 12, 39, 100
13, 191730, Note_on_c, 12, 39, 0
13, 191760, Note_on_c, 12, 39, 100
13, 191880, Note_on_c, 12, 39, 0
13, 192000, Note_on_c, 12, 38, 100
13, 192450, Note_on_c, 12, 38, 0
13, 192720, Note_on_c, 12, 38, 90
13, 192840, Note_on_c, 12, 38, 0
13, 192960, Note_on_c, 12, 39, 90
13, 193410, Note_on_c, 12, 39, 0
13, 193680, Note_on_c, 12, 39, 90
13, 193800, Note_on_c, 12, 39, 0
13, 193920, Note_on_c, 12, 36, 90
13, 194370, Note_on_c, 12, 36, 0
13, 194640, Note_on_c, 12, 36, 90
13, 194760, Note_on_c, 12, 36, 0
13, 194880, Note_on_c, 12, 38, 90
13, 195330, Note_on_c, 12, 38, 0
13, 195600, Note_on_c, 12, 38, 90
13, 195720, Note_on_c, 12, 38, 0
13, 195840, Note_on_c, 12, 31, 100
13, 196320, Note_on_c, 12, 31, 0
13, 199440, Note_on_c, 12, 30, 127
13, 199590, Note_on_c, 12, 30, 0
13, 199680, Note_on_c, 12, 31, 127
13, 200160, Note_on_c, 12, 31, 0
13, 203280, Note_on_c, 12, 30, 127
13, 203430, Note_on_c, 12, 30, 0
13, 203520, Note_on_c, 12, 31, 127
13, 204000, Note_on_c, 12, 31, 0
13, 211200, Note_on_c, 12, 43, 110
13, 211320, Note_on_c, 12, 43, 0
13, 211440, Note_on_c, 12, 46, 110
13, 211560, Note_on_c, 12, 46, 0
13, 211680, Note_on_c, 12, 50, 110
13, 211800, Note_on_c, 12, 50, 0
13, 211920, Note_on_c, 12, 51, 110
13, 212040, Note_on_c, 12, 51, 0
13, 212160, Note_on_c, 12, 41, 110
13, 212280, Note_on_c, 12, 41, 0
13, 212400, Note_on_c, 12, 45, 110
13, 212520, Note_on_c, 12, 45, 0
13, 212640, Note_on_c, 12, 49, 110
13, 212760, Note_on_c, 12, 49, 0
13, 212880, Note_on_c, 12, 50, 110
13, 213000, Note_on_c, 12, 50, 0
13, 213120, Note_on_c, 12, 39, 110
13, 213240, Note_on_c, 12, 39, 0
13, 213360, Note_on_c, 12, 43, 110
13, 213480, Note_on_c, 12, 43, 0
13, 213600, Note_on_c, 12, 47, 110
13, 213720, Note_on_c, 12, 47, 0
13, 213840, Note_on_c, 12, 48, 110
13, 213960, Note_on_c, 12, 48, 0
13, 214080, Note_on_c, 12, 38, 110
13, 214200, Note_on_c, 12, 38, 0
13, 214320, Note_on_c, 12, 41, 110
13, 214440, Note_on_c, 12, 41, 0
13, 214560, Note_on_c, 12, 45, 110
13, 214680, Note_on_c, 12, 45, 0
13, 214800, Note_on_c, 12, 46, 110
13, 214920, Note_on_c, 12, 46, 0
13, 215040, Note_on_c, 12, 36, 110
13, 215160, Note_on_c, 12, 36, 0
13, 215280, Note_on_c, 12, 39, 110
13, 215400, Note_on_c, 12, 39, 0
13, 215520, Note_on_c, 12, 43, 110
13, 215640, Note_on_c, 12, 43, 0
13, 215760, Note_on_c, 12, 45, 110
13, 215880, Note_on_c, 12, 45, 0
13, 216000, Note_on_c, 12, 37, 110
13, 216120, Note_on_c, 12, 37, 0
13, 216240, Note_on_c, 12, 40, 110
13, 216360, Note_on_c, 12, 40, 0
13, 216480, Note_on_c, 12, 43, 110
13, 216600, Note_on_c, 12, 43, 0
13, 216720, Note_on_c, 12, 46, 110
13, 216840, Note_on_c, 12, 46, 0
13, 216960, Note_on_c, 12, 38, 110
13, 217080, Note_on_c, 12, 38, 0
13, 217200, Note_on_c, 12, 43, 110
13, 217320, Note_on_c, 12, 43, 0
13, 217440, Note_on_c, 12, 46, 110
13, 217560, Note_on_c, 12, 46, 0
13, 217680, Note_on_c, 12, 50, 110
13, 217800, Note_on_c, 12, 50, 0
13, 217920, Note_on_c, 12, 38, 110
13, 218040, Note_on_c, 12, 38, 0
13, 218160, Note_on_c, 12, 42, 110
13, 218280, Note_on_c, 12, 42, 0
13, 218400, Note_on_c, 12, 45, 110
13, 218520, Note_on_c, 12, 45, 0
13, 218640, Note_on_c, 12, 50, 110
13, 218760, Note_on_c, 12, 50, 0
13, 218880, Note_on_c, 12, 31, 110
13, 220440, Note_on_c, 12, 31, 0
13, 220560, Note_on_c, 12, 31, 110
13, 220710, Note_on_c, 12, 31, 0
13, 220800, Note_on_c, 12, 31, 110
13, 222360, Note_on_c, 12, 31, 0
13, 222480, Note_on_c, 12, 31, 110
13, 222630, Note_on_c, 12, 31, 0
13, 222720, Note_on_c, 12, 31, 110
13, 223320, Note_on_c, 12, 31, 0
13, 223440, Note_on_c, 12, 31, 110
13, 223590, Note_on_c, 12, 31, 0
13, 223680, Note_on_c, 12, 31, 110
13, 224130, Note_on_c, 12, 31, 0
13, 224400, Note_on_c, 12, 31, 110
13, 224550, Note_on_c, 12, 31, 0
13, 224640, Note_on_c, 12, 31, 110
13, 225090, Note_on_c, 12, 31, 0
13, 225360, Note_on_c, 12, 31, 110
13, 225510, Note_on_c, 12, 31, 0
13, 225600, Note_on_c, 12, 31, 110
13, 226050, Note_on_c, 12, 31, 0
13, 226320, Note_on_c, 12, 31, 110
13, 226470, Note_on_c, 12, 31, 0
13, 226560, Note_on_c, 12, 31, 110
13, 226950, Note_on_c, 12, 31, 0
13, 268800, Note_on_c, 12, 37, 110
13, 268920, Note_on_c, 12, 37, 0
13, 269040, Note_on_c, 12, 41, 110
13, 269160, Note_on_c, 12, 41, 0
13, 269280, Note_on_c, 12, 45, 110
13, 269400, Note_on_c, 12, 45, 0
13, 269520, Note_on_c, 12, 46, 110
13, 269640, Note_on_c, 12, 46, 0
13, 269760, Note_on_c, 12, 36, 110
13, 269880, Note_on_c, 12, 36, 0
13, 270000, Note_on_c, 12, 39, 110
13, 270120, Note_on_c, 12, 39, 0
13, 270240, Note_on_c, 12, 43, 110
13, 270360, Note_on_c, 12, 43, 0
13, 270480, Note_on_c, 12, 44, 110
13, 270600, Note_on_c, 12, 44, 0
13, 270720, Note_on_c, 12, 34, 110
13, 270840, Note_on_c, 12, 34, 0
13, 270960, Note_on_c, 12, 37, 110
13, 271080, Note_on_c, 12, 37, 0
13, 271200, Note_on_c, 12, 41, 110
13, 271320, Note_on_c, 12, 41, 0
13, 271440, Note_on_c, 12, 42, 110
13, 271560, Note_on_c, 12, 42, 0
13, 271680, Note_on_c, 12, 32, 110
13, 271800, Note_on_c, 12, 32, 0
13, 271920, Note_on_c, 12, 36, 110
13, 272040, Note_on_c, 12, 36, 0
13, 272160, Note_on_c, 12, 40, 110
13, 272280, Note_on_c, 12, 40, 0
13, 272400, Note_on_c, 12, 41, 110
13, 272520, Note_on_c, 12, 41, 0
13, 272640, Note_on_c, 12, 31, 110
13, 272760, Note_on_c, 12, 31, 0
13, 272880, Note_on_c, 12, 34, 110
13, 273000, Note_on_c, 12, 34, 0
13, 273120, Note_on_c, 12, 36, 110
13, 273240, Note_on_c, 12, 36, 0
13, 273360, Note_on_c, 12, 37, 110
13, 273480, Note_on_c, 12, 37, 0
13, 273600, Note_on_c, 12, 29, 110
13, 273720, Note_on_c, 12, 29, 0
13, 273840, Note_on_c, 12, 34, 110
13, 273960, Note_on_c, 12, 34, 0
13, 274080, Note_on_c, 12, 36, 110
13, 274200, Note_on_c, 12, 36, 0
13, 274320, Note_on_c, 12, 37, 110
13, 274440, Note_on_c, 12, 37, 0
13, 274560, Note_on_c, 12, 28, 110
13, 274680, Note_on_c, 12, 28, 0
13, 274800, Note_on_c, 12, 31, 110
13, 274920, Note_on_c, 12, 31, 0
13, 275040, Note_on_c, 12, 34, 110
13, 275160, Note_on_c, 12, 34, 0
13, 275280, Note_on_c, 12, 37, 110
13, 275400, Note_on_c, 12, 37, 0
13, 275520, Note_on_c, 12, 36, 110
13, 275640, Note_on_c, 12, 36, 0
13, 275760, Note_on_c, 12, 40, 110
13, 275880, Note_on_c, 12, 40, 0
13, 276000, Note_on_c, 12, 43, 110
13, 276120, Note_on_c, 12, 43, 0
13, 276240, Note_on_c, 12, 48, 110
13, 276360, Note_on_c, 12, 48, 0
13, 276480, Note_on_c, 12, 41, 90
13, 276810, Note_on_c, 12, 41, 0
13, 284160, Note_on_c, 12, 41, 100
13, 284280, Note_on_c, 12, 41, 0
13, 284400, Note_on_c, 12, 44, 100
13, 284520, Note_on_c, 12, 44, 0
13, 284640, Note_on_c, 12, 48, 100
13, 284760, Note_on_c, 12, 48, 0
13, 284880, Note_on_c, 12, 49, 100
13, 285000, Note_on_c, 12, 49, 0
13, 285120, Note_on_c, 12, 39, 100
13, 285240, Note_on_c, 12, 39, 0
13, 285360, Note_on_c, 12, 43, 100
13, 285480, Note_on_c, 12, 43, 0
13, 285600, Note_on_c, 12, 47, 100
13, 285720, Note_on_c, 12, 47, 0
13, 285840, Note_on_c, 12, 48, 100
13, 285960, Note_on_c, 12, 48, 0
13, 286080, Note_on_c, 12, 37, 100
13, 286200, Note_on_c, 12, 37, 0
13, 286320, Note_on_c, 12, 41, 100
13, 286440, Note_on_c, 12, 41, 0
13, 286560, Note_on_c, 12, 45, 100
13, 286680, Note_on_c, 12, 45, 0
13, 286800, Note_on_c, 12, 46, 100
13, 286920, Note_on_c, 12, 46, 0
13, 287040, Note_on_c, 12, 36, 100
13, 287160, Note_on_c, 12, 36, 0
13, 287280, Note_on_c, 12, 39, 100
13, 287400, Note_on_c, 12, 39, 0
13, 287520, Note_on_c, 12, 43, 100
13, 287640, Note_on_c, 12, 43, 0
13, 287760, Note_on_c, 12, 44, 100
13, 287880, Note_on_c, 12, 44, 0
13, 288000, Note_on_c, 12, 34, 100
13, 288120, Note_on_c, 12, 34, 0
13, 288240, Note_on_c, 12, 37, 100
13, 288360, Note_on_c, 12, 37, 0
13, 288480, Note_on_c, 12, 40, 100
13, 288600, Note_on_c, 12, 40, 0
13, 288720, Note_on_c, 12, 43, 100
13, 288840, Note_on_c, 12, 43, 0
13, 288960, Note_on_c, 12, 32, 100
13, 289080, Note_on_c, 12, 32, 0
13, 289200, Note_on_c, 12, 36, 100
13, 289320, Note_on_c, 12, 36, 0
13, 289440, Note_on_c, 12, 40, 100
13, 289560, Note_on_c, 12, 40, 0
13, 289680, Note_on_c, 12, 41, 100
13, 289800, Note_on_c, 12, 41, 0
13, 289920, Note_on_c, 12, 34, 100
13, 290040, Note_on_c, 12, 34, 0
13, 290160, Note_on_c, 12, 37, 100
13, 290280, Note_on_c, 12, 37, 0
13, 290400, Note_on_c, 12, 41, 100
13, 290520, Note_on_c, 12, 41, 0
13, 290640, Note_on_c, 12, 43, 100
13, 290760, Note_on_c, 12, 43, 0
13, 290880, Note_on_c, 12, 36, 100
13, 291000, Note_on_c, 12, 36, 0
13, 291120, Note_on_c, 12, 40, 100
13, 291240, Note_on_c, 12, 40, 0
13, 291360, Note_on_c, 12, 43, 100
13, 291480, Note_on_c, 12, 43, 0
13, 291600, Note_on_c, 12, 48, 100
13, 291720, Note_on_c, 12, 48, 0
13, 291840, Note_on_c, 12, 41, 80
13, 295410, Note_on_c, 12, 41, 0
13, 295680, Note_on_c, 12, 34, 110
13, 295890, Note_on_c, 12, 34, 0
13, 299520, Note_on_c, 12, 41, 80
13, 303090, Note_on_c, 12, 41, 0
13, 303360, Note_on_c, 12, 35, 100
13, 304290, Note_on_c, 12, 35, 0
13, 305280, Note_on_c, 12, 35, 100
13, 306210, Note_on_c, 12, 35, 0
13, 312960, Note_on_c, 12, 34, 90
13, 313890, Note_on_c, 12, 34, 0
13, 314880, Note_on_c, 12, 34, 90
13, 315810, Note_on_c, 12, 34, 0
13, 322080, Note_on_c, 12, 34, 90
13, 322560, Note_on_c, 12, 32, 90
13, 322590, Note_on_c, 12, 34, 0
13, 323880, Note_on_c, 12, 32, 0
13, 324000, Note_on_c, 12, 34, 90
13, 324480, Note_on_c, 12, 32, 90
13, 324510, Note_on_c, 12, 34, 0
13, 325800, Note_on_c, 12, 32, 0
13, 325920, Note_on_c, 12, 34, 90
13, 326400, Note_on_c, 12, 32, 90
13, 326430, Note_on_c, 12, 34, 0
13, 327720, Note_on_c, 12, 32, 0
13, 327840, Note_on_c, 12, 34, 90
13, 328320, Note_on_c, 12, 32, 90
13, 328350, Note_on_c, 12, 34, 0
13, 329430, Note_on_c, 12, 32, 0
13, 329760, Note_on_c, 12, 36, 90
13, 330240, Note_on_c, 12, 35, 90
13, 330270, Note_on_c, 12, 36, 0
13, 331560, Note_on_c, 12, 35, 0
13, 331680, Note_on_c, 12, 36, 90
13, 332160, Note_on_c, 12, 35, 90
13, 332190, Note_on_c, 12, 36, 0
13, 333480, Note_on_c, 12, 35, 0
13, 333600, Note_on_c, 12, 36, 90
13, 334080, Note_on_c, 12, 35, 90
13, 334110, Note_on_c, 12, 36, 0
13, 335400, Note_on_c, 12, 35, 0
13, 335520, Note_on_c, 12, 36, 90
13, 336000, Note_on_c, 12, 35, 90
13, 336030, Note_on_c, 12, 36, 0
13, 337320, Note_on_c, 12, 35, 0
13, 337440, Note_on_c, 12, 36, 90
13, 337920, Note_on_c, 12, 35, 90
13, 337950, Note_on_c, 12, 36, 0
13, 338400, Note_on_c, 12, 35, 0
13, 341760, Note_on_c, 12, 36, 70
13, 342240, Note_on_c, 12, 36, 0
13, 343440, Note_on_c, 12, 36, 70
13, 343680, Note_on_c, 12, 29, 70
13, 343710, Note_on_c, 12, 36, 0
13, 344160, Note_on_c, 12, 29, 0
13, 345360, Note_on_c, 12, 29, 70
13, 345600, Note_on_c, 12, 28, 70
13, 345630, Note_on_c, 12, 29, 0
13, 346080, Note_on_c, 12, 28, 0
13, 347280, Note_on_c, 12, 28, 70
13, 347520, Note_on_c, 12, 35, 70
13, 347550, Note_on_c, 12, 28, 0
13, 348000, Note_on_c, 12, 35, 0
13, 349200, Note_on_c, 12, 35, 70
13, 349440, Note_on_c, 12, 36, 70
13, 349440, Control_c, 12, 11, 80
13, 349470, Note_on_c, 12, 35, 0
13, 349810, Control_c, 12, 11, 81
13, 349920, Note_on_c, 12, 36, 0
13, 350180, Control_c, 12, 11, 82
13, 350540, Control_c, 12, 11, 83
13, 350910, Control_c, 12, 11, 84
13, 351120, Note_on_c, 12, 36, 70
13, 351280, Control_c, 12, 11, 85
13, 351360, Note_on_c, 12, 29, 70
13, 351390, Note_on_c, 12, 36, 0
13, 351640, Control_c, 12, 11, 86
13, 351840, Note_on_c, 12, 29, 0
13, 352010, Control_c, 12, 11, 87
13, 352380, Control_c, 12, 11, 88
13, 352740, Control_c, 12, 11, 89
13, 353040, Note_on_c, 12, 29, 70
13, 353110, Control_c, 12, 11, 90
13, 353280, Note_on_c, 12, 28, 70
13, 353310, Note_on_c, 12, 29, 0
13, 353480, Control_c, 12, 11, 91
13, 353760, Note_on_c, 12, 28, 0
13, 353840, Control_c, 12, 11, 92
13, 354210, Control_c, 12, 11, 93
13, 354580, Control_c, 12, 11, 94
13, 354940, Control_c, 12, 11, 95
13, 354960, Note_on_c, 12, 40, 70
13, 355200, Note_on_c, 12, 35, 70
13, 355230, Note_on_c, 12, 40, 0
13, 355310, Control_c, 12, 11, 96
13, 355680, Note_on_c, 12, 35, 0
13, 355680, Control_c, 12, 11, 97
13, 356040, Control_c, 12, 11, 98
13, 356410, Control_c, 12, 11, 99
13, 356780, Control_c, 12, 11, 100
13, 356880, Note_on_c, 12, 35, 70
13, 357120, Note_on_c, 12, 36, 70
13, 357140, Control_c, 12, 11, 101
13, 357150, Note_on_c, 12, 35, 0
13, 357290, Control_c, 12, 11, 102
13, 357440, Control_c, 12, 11, 103
13, 357590, Control_c, 12, 11, 104
13, 357600, Note_on_c, 12, 36, 0
13, 357730, Control_c, 12, 11, 105
13, 357880, Control_c, 12, 11, 106
13, 358030, Control_c, 12, 11, 107
13, 358170, Control_c, 12, 11, 108
13, 358320, Control_c, 12, 11, 109
13, 358470, Control_c, 12, 11, 110
13, 358610, Control_c, 12, 11, 111
13, 358760, Control_c, 12, 11, 112
13, 358800, Note_on_c, 12, 36, 70
13, 358910, Control_c, 12, 11, 113
13, 359040, Note_on_c, 12, 29, 70
13, 359050, Control_c, 12, 11, 114
13, 359070, Note_on_c, 12, 36, 0
13, 359200, Control_c, 12, 11, 115
13, 359350, Control_c, 12, 11, 116
13, 359500, Control_c, 12, 11, 117
13, 359520, Note_on_c, 12, 29, 0
13, 359640, Control_c, 12, 11, 118
13, 359790, Control_c, 12, 11, 119
13, 359940, Control_c, 12, 11, 120
13, 360080, Control_c, 12, 11, 121
13, 360230, Control_c, 12, 11, 122
13, 360380, Control_c, 12, 11, 123
13, 360520, Control_c, 12, 11, 124
13, 360670, Control_c, 12, 11, 125
13, 360720, Note_on_c, 12, 29, 70
13, 360820, Control_c, 12, 11, 126
13, 360940, Control_c, 12, 11, 127
13, 360960, Note_on_c, 12, 28, 80
13, 360990, Note_on_c, 12, 29, 0
13, 361890, Note_on_c, 12, 28, 0
13, 361920, Note_on_c, 12, 38, 80
13, 362850, Note_on_c, 12, 38, 0
13, 362880, Note_on_c, 12, 37, 80
13, 363810, Note_on_c, 12, 37, 0
13, 363840, Note_on_c, 12, 33, 80
13, 364770, Note_on_c, 12, 33, 0
13, 364797, Control_c, 12, 11, 80
13, 364800, Note_on_c, 12, 38, 70
13, 365250, Note_on_c, 12, 38, 0
13, 366480, Note_on_c, 12, 38, 70
13, 366720, Note_on_c, 12, 31, 70
13, 366750, Note_on_c, 12, 38, 0
13, 367200, Note_on_c, 12, 31, 0
13, 368400, Note_on_c, 12, 31, 70
13, 368640, Note_on_c, 12, 29, 70
13, 368670, Note_on_c, 12, 31, 0
13, 369120, Note_on_c, 12, 29, 0
13, 370320, Note_on_c, 12, 29, 70
13, 370560, Note_on_c, 12, 37, 70
13, 370590, Note_on_c, 12, 29, 0
13, 371040, Note_on_c, 12, 37, 0
13, 372240, Note_on_c, 12, 37, 70
13, 372480, Note_on_c, 12, 38, 70
13, 372480, Control_c, 12, 11, 80
13, 372510, Note_on_c, 12, 37, 0
13, 372570, Control_c, 12, 11, 81
13, 372650, Control_c, 12, 11, 82
13, 372730, Control_c, 12, 11, 83
13, 372810, Control_c, 12, 11, 84
13, 372890, Control_c, 12, 11, 85
13, 372960, Note_on_c, 12, 38, 0
13, 372980, Control_c, 12, 11, 86
13, 373060, Control_c, 12, 11, 87
13, 373140, Control_c, 12, 11, 88
13, 373220, Control_c, 12, 11, 89
13, 373300, Control_c, 12, 11, 90
13, 373380, Control_c, 12, 11, 91
13, 373470, Control_c, 12, 11, 92
13, 373550, Control_c, 12, 11, 93
13, 373630, Control_c, 12, 11, 94
13, 373710, Control_c, 12, 11, 95
13, 373790, Control_c, 12, 11, 96
13, 373870, Control_c, 12, 11, 97
13, 373960, Control_c, 12, 11, 98
13, 374040, Control_c, 12, 11, 99
13, 374120, Control_c, 12, 11, 100
13, 374160, Note_on_c, 12, 38, 70
13, 374200, Control_c, 12, 11, 101
13, 374280, Control_c, 12, 11, 102
13, 374360, Control_c, 12, 11, 103
13, 374400, Note_on_c, 12, 31, 70
13, 374430, Note_on_c, 12, 38, 0
13, 374450, Control_c, 12, 11, 104
13, 374530, Control_c, 12, 11, 105
13, 374610, Control_c, 12, 11, 106
13, 374690, Control_c, 12, 11, 107
13, 374770, Control_c, 12, 11, 108
13, 374850, Control_c, 12, 11, 109
13, 374880, Note_on_c, 12, 31, 0
13, 374940, Control_c, 12, 11, 110
13, 375020, Control_c, 12, 11, 111
13, 375100, Control_c, 12, 11, 112
13, 375180, Control_c, 12, 11, 113
13, 375260, Control_c, 12, 11, 114
13, 375340, Control_c, 12, 11, 115
13, 375430, Control_c, 12, 11, 116
13, 375510, Control_c, 12, 11, 117
13, 375590, Control_c, 12, 11, 118
13, 375670, Control_c, 12, 11, 119
13, 375750, Control_c, 12, 11, 120
13, 375830, Control_c, 12, 11, 121
13, 375920, Control_c, 12, 11, 122
13, 376000, Control_c, 12, 11, 123
13, 376080, Note_on_c, 12, 31, 70
13, 376080, Control_c, 12, 11, 124
13, 376160, Control_c, 12, 11, 125
13, 376230, Note_on_c, 12, 31, 0
13, 376240, Control_c, 12, 11, 126
13, 376290, Control_c, 12, 11, 127
13, 376320, Note_on_c, 12, 26, 70
13, 377250, Note_on_c, 12, 26, 0
13, 377280, Note_on_c, 12, 40, 70
13, 378210, Note_on_c, 12, 40, 0
13, 378240, Note_on_c, 12, 39, 70
13, 379170, Note_on_c, 12, 39, 0
13, 379200, Note_on_c, 12, 35, 70
13, 380130, Note_on_c, 12, 35, 0
13, 380157, Control_c, 12, 11, 80
13, 380160, Note_on_c, 12, 40, 70
13, 380610, Note_on_c, 12, 40, 0
13, 381840, Note_on_c, 12, 40, 70
13, 382080, Note_on_c, 12, 33, 70
13, 382080, Control_c, 12, 11, 80
13, 382110, Note_on_c, 12, 40, 0
13, 382210, Control_c, 12, 11, 81
13, 382330, Control_c, 12, 11, 82
13, 382450, Control_c, 12, 11, 83
13, 382560, Note_on_c, 12, 33, 0
13, 382580, Control_c, 12, 11, 84
13, 382700, Control_c, 12, 11, 85
13, 382820, Control_c, 12, 11, 86
13, 382940, Control_c, 12, 11, 87
13, 383070, Control_c, 12, 11, 88
13, 383190, Control_c, 12, 11, 89
13, 383310, Control_c, 12, 11, 90
13, 383430, Control_c, 12, 11, 91
13, 383560, Control_c, 12, 11, 92
13, 383680, Control_c, 12, 11, 93
13, 383760, Note_on_c, 12, 33, 70
13, 383800, Control_c, 12, 11, 94
13, 383920, Control_c, 12, 11, 95
13, 384000, Note_on_c, 12, 31, 70
13, 384030, Note_on_c, 12, 33, 0
13, 384050, Control_c, 12, 11, 96
13, 384170, Control_c, 12, 11, 97
13, 384290, Control_c, 12, 11, 98
13, 384410, Control_c, 12, 11, 99
13, 384540, Control_c, 12, 11, 100
13, 384660, Control_c, 12, 11, 101
13, 384780, Control_c, 12, 11, 102
13, 384900, Control_c, 12, 11, 103
13, 385030, Control_c, 12, 11, 104
13, 385150, Control_c, 12, 11, 105
13, 385270, Control_c, 12, 11, 106
13, 385390, Control_c, 12, 11, 107
13, 385520, Control_c, 12, 11, 108
13, 385640, Control_c, 12, 11, 109
13, 385760, Control_c, 12, 11, 110
13, 385880, Control_c, 12, 11, 111
13, 385890, Note_on_c, 12, 31, 0
13, 385920, Note_on_c, 12, 29, 70
13, 386010, Control_c, 12, 11, 112
13, 386130, Control_c, 12, 11, 113
13, 386250, Control_c, 12, 11, 114
13, 386370, Control_c, 12, 11, 115
13, 386500, Control_c, 12, 11, 116
13, 386620, Control_c, 12, 11, 117
13, 386740, Control_c, 12, 11, 118
13, 386860, Control_c, 12, 11, 119
13, 386990, Control_c, 12, 11, 120
13, 387110, Control_c, 12, 11, 121
13, 387230, Control_c, 12, 11, 122
13, 387350, Control_c, 12, 11, 123
13, 387480, Control_c, 12, 11, 124
13, 387600, Control_c, 12, 11, 125
13, 387720, Control_c, 12, 11, 126
13, 387810, Note_on_c, 12, 29, 0
13, 387840, Note_on_c, 12, 39, 90
13, 387840, Control_c, 12, 11, 127
13, 387880, Control_c, 12, 11, 126
13, 387920, Control_c, 12, 11, 125
13, 387960, Control_c, 12, 11, 124
13, 388000, Control_c, 12, 11, 123
13, 388040, Control_c, 12, 11, 122
13, 388080, Control_c, 12, 11, 121
13, 388120, Control_c, 12, 11, 120
13, 388160, Control_c, 12, 11, 119
13, 388200, Control_c, 12, 11, 118
13, 388240, Control_c, 12, 11, 117
13, 388280, Control_c, 12, 11, 116
13, 388290, Note_on_c, 12, 39, 0
13, 388320, Control_c, 12, 11, 115
13, 388350, Control_c, 12, 11, 114
13, 388390, Control_c, 12, 11, 113
13, 388430, Control_c, 12, 11, 112
13, 388470, Control_c, 12, 11, 111
13, 388510, Control_c, 12, 11, 110
13, 388550, Control_c, 12, 11, 109
13, 388590, Control_c, 12, 11, 108
13, 388630, Control_c, 12, 11, 107
13, 388670, Control_c, 12, 11, 106
13, 388710, Control_c, 12, 11, 105
13, 388750, Control_c, 12, 11, 104
13, 388790, Control_c, 12, 11, 103
13, 388800, Note_on_c, 12, 40, 70
13, 388820, Control_c, 12, 11, 102
13, 388860, Control_c, 12, 11, 101
13, 388900, Control_c, 12, 11, 100
13, 388940, Control_c, 12, 11, 99
13, 388980, Control_c, 12, 11, 98
13, 389020, Control_c, 12, 11, 97
13, 389060, Control_c, 12, 11, 96
13, 389100, Control_c, 12, 11, 95
13, 389140, Control_c, 12, 11, 94
13, 389180, Control_c, 12, 11, 93
13, 389220, Control_c, 12, 11, 92
13, 389250, Note_on_c, 12, 40, 0
13, 389260, Control_c, 12, 11, 91
13, 389290, Control_c, 12, 11, 90
13, 389330, Control_c, 12, 11, 89
13, 389370, Control_c, 12, 11, 88
13, 389410, Control_c, 12, 11, 87
13, 389450, Control_c, 12, 11, 86
13, 389490, Control_c, 12, 11, 85
13, 389530, Control_c, 12, 11, 84
13, 389570, Control_c, 12, 11, 83
13, 389610, Control_c, 12, 11, 82
13, 389650, Control_c, 12, 11, 81
13, 389690, Control_c, 12, 11, 80
13, 389760, Note_on_c, 12, 41, 70
13, 390210, Note_on_c, 12, 41, 0
13, 390720, Note_on_c, 12, 43, 70
13, 391170, Note_on_c, 12, 43, 0
13, 391680, Note_on_c, 12, 44, 70
13, 392130, Note_on_c, 12, 44, 0
13, 392640, Note_on_c, 12, 43, 70
13, 393090, Note_on_c, 12, 43, 0
13, 393600, Note_on_c, 12, 41, 70
13, 394050, Note_on_c, 12, 41, 0
13, 394560, Note_on_c, 12, 42, 70
13, 395010, Note_on_c, 12, 42, 0
13, 395520, Note_on_c, 12, 43, 70
13, 395970, Note_on_c, 12, 43, 0
13, 396480, Note_on_c, 12, 43, 70
13, 396930, Note_on_c, 12, 43, 0
13, 397440, Note_on_c, 12, 43, 70
13, 397890, Note_on_c, 12, 43, 0
13, 398400, Note_on_c, 12, 43, 70
13, 398850, Note_on_c, 12, 43, 0
13, 399360, Note_on_c, 12, 43, 70
13, 399810, Note_on_c, 12, 43, 0
13, 400320, Note_on_c, 12, 43, 74
13, 400770, Note_on_c, 12, 43, 0
13, 401280, Note_on_c, 12, 43, 78
13, 401730, Note_on_c, 12, 43, 0
13, 402240, Note_on_c, 12, 43, 82
13, 402690, Note_on_c, 12, 43, 0
13, 403200, Note_on_c, 12, 43, 87
13, 403650, Note_on_c, 12, 43, 0
13, 404160, Note_on_c, 12, 43, 91
13, 404610, Note_on_c, 12, 43, 0
13, 405120, Note_on_c, 12, 43, 95
13, 405570, Note_on_c, 12, 43, 0
13, 406080, Note_on_c, 12, 43, 100
13, 406530, Note_on_c, 12, 43, 0
13, 407040, Note_on_c, 12, 41, 80
13, 408480, Note_on_c, 12, 39, 80
13, 408510, Note_on_c, 12, 41, 0
13, 408930, Note_on_c, 12, 39, 0
13, 408960, Note_on_c, 12, 38, 80
13, 409440, Note_on_c, 12, 36, 80
13, 409470, Note_on_c, 12, 38, 0
13, 409920, Note_on_c, 12, 38, 80
13, 409950, Note_on_c, 12, 36, 0
13, 410400, Note_on_c, 12, 36, 80
13, 410430, Note_on_c, 12, 38, 0
13, 410730, Note_on_c, 12, 36, 0
13, 410880, Note_on_c, 12, 41, 80
13, 412320, Note_on_c, 12, 39, 80
13, 412350, Note_on_c, 12, 41, 0
13, 412770, Note_on_c, 12, 39, 0
13, 412800, Note_on_c, 12, 38, 80
13, 413280, Note_on_c, 12, 36, 80
13, 413310, Note_on_c, 12, 38, 0
13, 413760, Note_on_c, 12, 38, 80
13, 413790, Note_on_c, 12, 36, 0
13, 414240, Note_on_c, 12, 36, 80
13, 414270, Note_on_c, 12, 38, 0
13, 414570, Note_on_c, 12, 36, 0
13, 414720, Note_on_c, 12, 34, 80
13, 416160, Note_on_c, 12, 32, 80
13, 416190, Note_on_c, 12, 34, 0
13, 416610, Note_on_c, 12, 32, 0
13, 416640, Note_on_c, 12, 31, 80
13, 417120, Note_on_c, 12, 29, 80
13, 417150, Note_on_c, 12, 31, 0
13, 417600, Note_on_c, 12, 31, 80
13, 417630, Note_on_c, 12, 29, 0
13, 418080, Note_on_c, 12, 29, 80
13, 418110, Note_on_c, 12, 31, 0
13, 418410, Note_on_c, 12, 29, 0
13, 418560, Note_on_c, 12, 34, 80
13, 420000, Note_on_c, 12, 32, 80
13, 420030, Note_on_c, 12, 34, 0
13, 420450, Note_on_c, 12, 32, 0
13, 420480, Note_on_c, 12, 31, 80
13, 420960, Note_on_c, 12, 29, 80
13, 420990, Note_on_c, 12, 31, 0
13, 421440, Note_on_c, 12, 31, 80
13, 421470, Note_on_c, 12, 29, 0
13, 421920, Note_on_c, 12, 29, 80
13, 421950, Note_on_c, 12, 31, 0
13, 422370, Note_on_c, 12, 29, 0
13, 422400, Note_on_c, 12, 29, 80
13, 422850, Note_on_c, 12, 29, 0
13, 424320, Note_on_c, 12, 41, 80
13, 424770, Note_on_c, 12, 41, 0
13, 426240, Note_on_c, 12, 41, 80
13, 426690, Note_on_c, 12, 41, 0
13, 428160, Note_on_c, 12, 41, 80
13, 428610, Note_on_c, 12, 41, 0
13, 430080, Note_on_c, 12, 41, 80
13, 430770, Note_on_c, 12, 41, 0
13, 430800, Note_on_c, 12, 53, 80
13, 430920, Note_on_c, 12, 53, 0
13, 431040, Note_on_c, 12, 41, 80
13, 431730, Note_on_c, 12, 41, 0
13, 431760, Note_on_c, 12, 53, 80
13, 431880, Note_on_c, 12, 53, 0
13, 432000, Note_on_c, 12, 40, 80
13, 432690, Note_on_c, 12, 40, 0
13, 432720, Note_on_c, 12, 52, 80
13, 432840, Note_on_c, 12, 52, 0
13, 432960, Note_on_c, 12, 39, 80
13, 433650, Note_on_c, 12, 39, 0
13, 433680, Note_on_c, 12, 51, 80
13, 433800, Note_on_c, 12, 51, 0
13, 433920, Note_on_c, 12, 38, 80
13, 434610, Note_on_c, 12, 38, 0
13, 434640, Note_on_c, 12, 50, 80
13, 434760, Note_on_c, 12, 50, 0
13, 434880, Note_on_c, 12, 36, 80
13, 435570, Note_on_c, 12, 36, 0
13, 435600, Note_on_c, 12, 48, 80
13, 435720, Note_on_c, 12, 48, 0
13, 435840, Note_on_c, 12, 35, 80
13, 436530, Note_on_c, 12, 35, 0
13, 436560, Note_on_c, 12, 47, 80
13, 436680, Note_on_c, 12, 47, 0
13, 436800, Note_on_c, 12, 32, 80
13, 437490, Note_on_c, 12, 32, 0
13, 437520, Note_on_c, 12, 44, 80
13, 437640, Note_on_c, 12, 44, 0
13, 437760, Note_on_c, 12, 31, 80
13, 438210, Note_on_c, 12, 31, 0
13, 438480, Note_on_c, 12, 31, 80
13, 438600, Note_on_c, 12, 31, 0
13, 438720, Note_on_c, 12, 32, 80
13, 439050, Note_on_c, 12, 32, 0
13, 439440, Note_on_c, 12, 32, 80
13, 439560, Note_on_c, 12, 32, 0
13, 439680, Note_on_c, 12, 29, 80
13, 440010, Note_on_c, 12, 29, 0
13, 440400, Note_on_c, 12, 29, 80
13, 440520, Note_on_c, 12, 29, 0
13, 440640, Note_on_c, 12, 31, 80
13, 440970, Note_on_c, 12, 31, 0
13, 441360, Note_on_c, 12, 31, 80
13, 441480, Note_on_c, 12, 31, 0
13, 441600, Note_on_c, 12, 36, 70
13, 441930, Note_on_c, 12, 36, 0
13, 445200, Note_on_c, 12, 35, 100
13, 445320, Note_on_c, 12, 35, 0
13, 445440, Note_on_c, 12, 36, 100
13, 445770, Note_on_c, 12, 36, 0
13, 449040, Note_on_c, 12, 35, 100
13, 449160, Note_on_c, 12, 35, 0
13, 449280, Note_on_c, 12, 36, 100
13, 449610, Note_on_c, 12, 36, 0
13, 456960, Note_on_c, 12, 36, 80
13, 457110, Note_on_c, 12, 36, 0
13, 457200, Note_on_c, 12, 39, 80
13, 457350, Note_on_c, 12, 39, 0
13, 457440, Note_on_c, 12, 43, 80
13, 457590, Note_on_c, 12, 43, 0
13, 457680, Note_on_c, 12, 44, 80
13, 457830, Note_on_c, 12, 44, 0
13, 457920, Note_on_c, 12, 34, 80
13, 458070, Note_on_c, 12, 34, 0
13, 458160, Note_on_c, 12, 38, 80
13, 458310, Note_on_c, 12, 38, 0
13, 458400, Note_on_c, 12, 42, 80
13, 458550, Note_on_c, 12, 42, 0
13, 458640, Note_on_c, 12, 43, 80
13, 458790, Note_on_c, 12, 43, 0
13, 458880, Note_on_c, 12, 32, 80
13, 459030, Note_on_c, 12, 32, 0
13, 459120, Note_on_c, 12, 36, 80
13, 459270, Note_on_c, 12, 36, 0
13, 459360, Note_on_c, 12, 40, 80
13, 459510, Note_on_c, 12, 40, 0
13, 459600, Note_on_c, 12, 41, 80
13, 459750, Note_on_c, 12, 41, 0
13, 459840, Note_on_c, 12, 31, 80
13, 459990, Note_on_c, 12, 31, 0
13, 460080, Note_on_c, 12, 34, 80
13, 460230, Note_on_c, 12, 34, 0
13, 460320, Note_on_c, 12, 38, 80
13, 460470, Note_on_c, 12, 38, 0
13, 460560, Note_on_c, 12, 39, 80
13, 460710, Note_on_c, 12, 39, 0
13, 460800, Note_on_c, 12, 41, 80
13, 461250, Note_on_c, 12, 41, 0
13, 468480, Note_on_c, 12, 36, 60
13, 468960, Note_on_c, 12, 36, 0
13, 470160, Note_on_c, 12, 36, 60
13, 470400, Note_on_c, 12, 41, 60
13, 470430, Note_on_c, 12, 36, 0
13, 470880, Note_on_c, 12, 41, 0
13, 472080, Note_on_c, 12, 41, 60
13, 472320, Note_on_c, 12, 40, 60
13, 472350, Note_on_c, 12, 41, 0
13, 472800, Note_on_c, 12, 40, 0
13, 474000, Note_on_c, 12, 40, 60
13, 474240, Note_on_c, 12, 35, 60
13, 474270, Note_on_c, 12, 40, 0
13, 474720, Note_on_c, 12, 35, 0
13, 475920, Note_on_c, 12, 35, 60
13, 476160, Note_on_c, 12, 36, 60
13, 476190, Note_on_c, 12, 35, 0
13, 476640, Note_on_c, 12, 36, 0
13, 477840, Note_on_c, 12, 36, 60
13, 478080, Note_on_c, 12, 41, 60
13, 478110, Note_on_c, 12, 36, 0
13, 478560, Note_on_c, 12, 41, 0
13, 479760, Note_on_c, 12, 41, 60
13, 480000, Note_on_c, 12, 39, 60
13, 480030, Note_on_c, 12, 41, 0
13, 480480, Note_on_c, 12, 39, 0
13, 481680, Note_on_c, 12, 39, 60
13, 481920, Note_on_c, 12, 35, 60
13, 481950, Note_on_c, 12, 39, 0
13, 482400, Note_on_c, 12, 35, 0
13, 483600, Note_on_c, 12, 35, 60
13, 483840, Note_on_c, 12, 36, 60
13, 483870, Note_on_c, 12, 35, 0
13, 484320, Note_on_c, 12, 36, 0
13, 485520, Note_on_c, 12, 36, 65
13, 485760, Note_on_c, 12, 41, 66
13, 485790, Note_on_c, 12, 36, 0
13, 486240, Note_on_c, 12, 41, 0
13, 487440, Note_on_c, 12, 29, 72
13, 487680, Note_on_c, 12, 27, 73
13, 487710, Note_on_c, 12, 29, 0
13, 489570, Note_on_c, 12, 27, 0
13, 489600, Note_on_c, 12, 30, 80
13, 491430, Note_on_c, 12, 30, 0
13, 491520, Note_on_c, 12, 29, 55
13, 493350, Note_on_c, 12, 29, 0
13, 493440, Note_on_c, 12, 32, 80
13, 495270, Note_on_c, 12, 32, 0
13, 495360, Note_on_c, 12, 31, 55
13, 497190, Note_on_c, 12, 31, 0
13, 497280, Note_on_c, 12, 34, 80
13, 499110, Note_on_c, 12, 34, 0
13, 499200, Note_on_c, 12, 32, 60
13, 499830, Note_on_c, 12, 32, 0
13, 499920, Note_on_c, 12, 44, 62
13, 500070, Note_on_c, 12, 44, 0
13, 500160, Note_on_c, 12, 43, 63
13, 500790, Note_on_c, 12, 43, 0
13, 500880, Note_on_c, 12, 43, 65
13, 501030, Note_on_c, 12, 43, 0
13, 501120, Note_on_c, 12, 41, 66
13, 501750, Note_on_c, 12, 41, 0
13, 501840, Note_on_c, 12, 41, 68
13, 501990, Note_on_c, 12, 41, 0
13, 502080, Note_on_c, 12, 39, 69
13, 502710, Note_on_c, 12, 39, 0
13, 502800, Note_on_c, 12, 39, 71
13, 502950, Note_on_c, 12, 39, 0
13, 503040, Note_on_c, 12, 44, 72
13, 503670, Note_on_c, 12, 44, 0
13, 503760, Note_on_c, 12, 44, 74
13, 503910, Note_on_c, 12, 44, 0
13, 504000, Note_on_c, 12, 43, 75
13, 504630, Note_on_c, 12, 43, 0
13, 504720, Note_on_c, 12, 43, 77
13, 504870, Note_on_c, 12, 43, 0
13, 504960, Note_on_c, 12, 41, 78
13, 505590, Note_on_c, 12, 41, 0
13, 505680, Note_on_c, 12, 41, 81
13, 505830, Note_on_c, 12, 41, 0
13, 505920, Note_on_c, 12, 39, 81
13, 506550, Note_on_c, 12, 39, 0
13, 506640, Note_on_c, 12, 39, 84
13, 506790, Note_on_c, 12, 39, 0
13, 506880, Note_on_c, 12, 29, 85
13, 507510, Note_on_c, 12, 29, 0
13, 507600, Note_on_c, 12, 41, 85
13, 507750, Note_on_c, 12, 41, 0
13, 507840, Note_on_c, 12, 41, 85
13, 508770, Note_on_c, 12, 41, 0
13, 508800, Note_on_c, 12, 29, 85
13, 509430, Note_on_c, 12, 29, 0
13, 509520, Note_on_c, 12, 41, 85
13, 509670, Note_on_c, 12, 41, 0
13, 509760, Note_on_c, 12, 41, 85
13, 510690, Note_on_c, 12, 41, 0
13, 510720, Note_on_c, 12, 31, 85
13, 511350, Note_on_c, 12, 31, 0
13, 511440, Note_on_c, 12, 43, 85
13, 511590, Note_on_c, 12, 43, 0
13, 511680, Note_on_c, 12, 43, 85
13, 512610, Note_on_c, 12, 43, 0
13, 512640, Note_on_c, 12, 31, 85
13, 513270, Note_on_c, 12, 31, 0
13, 513360, Note_on_c, 12, 43, 85
13, 513510, Note_on_c, 12, 43, 0
13, 513600, Note_on_c, 12, 43, 85
13, 514530, Note_on_c, 12, 43, 0
13, 514560, Note_on_c, 12, 32, 85
13, 515190, Note_on_c, 12, 32, 0
13, 515280, Note_on_c, 12, 44, 85
13, 515430, Note_on_c, 12, 44, 0
13, 515520, Note_on_c, 12, 44, 85
13, 516450, Note_on_c, 12, 44, 0
13, 516480, Note_on_c, 12, 35, 85
13, 517110, Note_on_c, 12, 35, 0
13, 517200, Note_on_c, 12, 47, 85
13, 517350, Note_on_c, 12, 47, 0
13, 517440, Note_on_c, 12, 47, 85
13, 518370, Note_on_c, 12, 47, 0
13, 518400, Note_on_c, 12, 36, 80
13, 518550, Note_on_c, 12, 36, 0
13, 518640, Note_on_c, 12, 35, 80
13, 518790, Note_on_c, 12, 35, 0
13, 518880, Note_on_c, 12, 36, 80
13, 519030, Note_on_c, 12, 36, 0
13, 519120, Note_on_c, 12, 38, 80
13, 519270, Note_on_c, 12, 38, 0
13, 519360, Note_on_c, 12, 39, 80
13, 519510, Note_on_c, 12, 39, 0
13, 519600, Note_on_c, 12, 38, 80
13, 519750, Note_on_c, 12, 38, 0
13, 519840, Note_on_c, 12, 39, 80
13, 519990, Note_on_c, 12, 39, 0
13, 520080, Note_on_c, 12, 36, 80
13, 520230, Note_on_c, 12, 36, 0
13, 520320, Note_on_c, 12, 35, 80
13, 520470, Note_on_c, 12, 35, 0
13, 520560, Note_on_c, 12, 36, 80
13, 520710, Note_on_c, 12, 36, 0
13, 520800, Note_on_c, 12, 38, 80
13, 520950, Note_on_c, 12, 38, 0
13, 521040, Note_on_c, 12, 36, 80
13, 521190, Note_on_c, 12, 36, 0
13, 521280, Note_on_c, 12, 35, 80
13, 521430, Note_on_c, 12, 35, 0
13, 521520, Note_on_c, 12, 36, 80
13, 521670, Note_on_c, 12, 36, 0
13, 521760, Note_on_c, 12, 35, 80
13, 521910, Note_on_c, 12, 35, 0
13, 522000, Note_on_c, 12, 31, 80
13, 522150, Note_on_c, 12, 31, 0
13, 522240, Note_on_c, 12, 36, 80
13, 522390, Note_on_c, 12, 36, 0
13, 522480, Note_on_c, 12, 35, 80
13, 522630, Note_on_c, 12, 35, 0
13, 522720, Note_on_c, 12, 36, 80
13, 522870, Note_on_c, 12, 36, 0
13, 522960, Note_on_c, 12, 38, 80
13, 523110, Note_on_c, 12, 38, 0
13, 523200, Note_on_c, 12, 39, 80
13, 523350, Note_on_c, 12, 39, 0
13, 523440, Note_on_c, 12, 38, 80
13, 523590, Note_on_c, 12, 38, 0
13, 523680, Note_on_c, 12, 39, 80
13, 523830, Note_on_c, 12, 39, 0
13, 523920, Note_on_c, 12, 36, 80
13, 524070, Note_on_c, 12, 36, 0
13, 524160, Note_on_c, 12, 35, 80
13, 524310, Note_on_c, 12, 35, 0
13, 524400, Note_on_c, 12, 36, 80
13, 524550, Note_on_c, 12, 36, 0
13, 524640, Note_on_c, 12, 38, 80
13, 524790, Note_on_c, 12, 38, 0
13, 524880, Note_on_c, 12, 36, 80
13, 525030, Note_on_c, 12, 36, 0
13, 525120, Note_on_c, 12, 35, 80
13, 525270, Note_on_c, 12, 35, 0
13, 525360, Note_on_c, 12, 36, 80
13, 525510, Note_on_c, 12, 36, 0
13, 525600, Note_on_c, 12, 35, 80
13, 525750, Note_on_c, 12, 35, 0
13, 525840, Note_on_c, 12, 31, 80
13, 525990, Note_on_c, 12, 31, 0
13, 526080, Note_on_c, 12, 36, 80
13, 526230, Note_on_c, 12, 36, 0
13, 526320, Note_on_c, 12, 35, 80
13, 526470, Note_on_c, 12, 35, 0
13, 526560, Note_on_c, 12, 36, 80
13, 526710, Note_on_c, 12, 36, 0
13, 526800, Note_on_c, 12, 31, 80
13, 526950, Note_on_c, 12, 31, 0
13, 527040, Note_on_c, 12, 36, 80
13, 527190, Note_on_c, 12, 36, 0
13, 527280, Note_on_c, 12, 35, 80
13, 527430, Note_on_c, 12, 35, 0
13, 527520, Note_on_c, 12, 36, 80
13, 527670, Note_on_c, 12, 36, 0
13, 527760, Note_on_c, 12, 31, 80
13, 527910, Note_on_c, 12, 31, 0
13, 528000, Note_on_c, 12, 36, 80
13, 528150, Note_on_c, 12, 36, 0
13, 528240, Note_on_c, 12, 35, 80
13, 528390, Note_on_c, 12, 35, 0
13, 528480, Note_on_c, 12, 36, 80
13, 528630, Note_on_c, 12, 36, 0
13, 528720, Note_on_c, 12, 31, 80
13, 528870, Note_on_c, 12, 31, 0
13, 528960, Note_on_c, 12, 36, 80
13, 529110, Note_on_c, 12, 36, 0
13, 529200, Note_on_c, 12, 35, 80
13, 529350, Note_on_c, 12, 35, 0
13, 529440, Note_on_c, 12, 36, 80
13, 529590, Note_on_c, 12, 36, 0
13, 529680, Note_on_c, 12, 31, 80
13, 529830, Note_on_c, 12, 31, 0
13, 529920, Note_on_c, 12, 36, 80
13, 529920, Control_c, 12, 11, 80
13, 529940, Control_c, 12, 11, 79
13, 529960, Control_c, 12, 11, 78
13, 529970, Control_c, 12, 11, 77
13, 529990, Control_c, 12, 11, 76
13, 530000, Control_c, 12, 11, 75
13, 530020, Control_c, 12, 11, 74
13, 530040, Control_c, 12, 11, 73
13, 530050, Control_c, 12, 11, 72
13, 530070, Control_c, 12, 11, 71
13, 530080, Control_c, 12, 11, 70
13, 530100, Control_c, 12, 11, 69
13, 530120, Control_c, 12, 11, 68
13, 530130, Control_c, 12, 11, 67
13, 530150, Control_c, 12, 11, 66
13, 530160, Control_c, 12, 11, 65
13, 530180, Control_c, 12, 11, 64
13, 530200, Control_c, 12, 11, 63
13, 530210, Control_c, 12, 11, 62
13, 530230, Control_c, 12, 11, 61
13, 530240, Control_c, 12, 11, 60
13, 530260, Control_c, 12, 11, 59
13, 530280, Control_c, 12, 11, 58
13, 530290, Control_c, 12, 11, 57
13, 530310, Control_c, 12, 11, 56
13, 530320, Control_c, 12, 11, 55
13, 530340, Control_c, 12, 11, 54
13, 530360, Control_c, 12, 11, 53
13, 530370, Control_c, 12, 11, 52
13, 530390, Control_c, 12, 11, 51
13, 530410, Control_c, 12, 11, 50
13, 530510, Control_c, 12, 11, 51
13, 530610, Control_c, 12, 11, 52
13, 530710, Control_c, 12, 11, 53
13, 530810, Control_c, 12, 11, 54
13, 530910, Control_c, 12, 11, 55
13, 531010, Control_c, 12, 11, 56
13, 531110, Control_c, 12, 11, 57
13, 531210, Control_c, 12, 11, 58
13, 531310, Control_c, 12, 11, 59
13, 531410, Control_c, 12, 11, 60
13, 531510, Control_c, 12, 11, 61
13, 531610, Control_c, 12, 11, 62
13, 531710, Control_c, 12, 11, 63
13, 531810, Control_c, 12, 11, 64
13, 531910, Control_c, 12, 11, 65
13, 532000, Control_c, 12, 11, 66
13, 532100, Control_c, 12, 11, 67
13, 532200, Control_c, 12, 11, 68
13, 532300, Control_c, 12, 11, 69
13, 532400, Control_c, 12, 11, 70
13, 532500, Control_c, 12, 11, 71
13, 532600, Control_c, 12, 11, 72
13, 532700, Control_c, 12, 11, 73
13, 532800, Control_c, 12, 11, 74
13, 532900, Control_c, 12, 11, 75
13, 533000, Control_c, 12, 11, 76
13, 533100, Control_c, 12, 11, 77
13, 533200, Control_c, 12, 11, 78
13, 533300, Control_c, 12, 11, 79
13, 533400, Control_c, 12, 11, 80
13, 533490, Note_on_c, 12, 36, 0
13, 533760, Note_on_c, 12, 29, 95
13, 533970, Note_on_c, 12, 29, 0
13, 537600, Note_on_c, 12, 36, 80
13, 537600, Control_c, 12, 11, 80
13, 537620, Control_c, 12, 11, 79
13, 537640, Control_c, 12, 11, 78
13, 537650, Control_c, 12, 11, 77
13, 537670, Control_c, 12, 11, 76
13, 537680, Control_c, 12, 11, 75
13, 537700, Control_c, 12, 11, 74
13, 537720, Control_c, 12, 11, 73
13, 537730, Control_c, 12, 11, 72
13, 537750, Control_c, 12, 11, 71
13, 537760, Control_c, 12, 11, 70
13, 537780, Control_c, 12, 11, 69
13, 537800, Control_c, 12, 11, 68
13, 537810, Control_c, 12, 11, 67
13, 537830, Control_c, 12, 11, 66
13, 537840, Control_c, 12, 11, 65
13, 537860, Control_c, 12, 11, 64
13, 537880, Control_c, 12, 11, 63
13, 537890, Control_c, 12, 11, 62
13, 537910, Control_c, 12, 11, 61
13, 537920, Control_c, 12, 11, 60
13, 537940, Control_c, 12, 11, 59
13, 537960, Control_c, 12, 11, 58
13, 537970, Control_c, 12, 11, 57
13, 537990, Control_c, 12, 11, 56
13, 538000, Control_c, 12, 11, 55
13, 538020, Control_c, 12, 11, 54
13, 538040, Control_c, 12, 11, 53
13, 538050, Control_c, 12, 11, 52
13, 538070, Control_c, 12, 11, 51
13, 538090, Control_c, 12, 11, 50
13, 538190, Control_c, 12, 11, 51
13, 538290, Control_c, 12, 11, 52
13, 538390, Control_c, 12, 11, 53
13, 538490, Control_c, 12, 11, 54
13, 538590, Control_c, 12, 11, 55
13, 538690, Control_c, 12, 11, 56
13, 538790, Control_c, 12, 11, 57
13, 538890, Control_c, 12, 11, 58
13, 538990, Control_c, 12, 11, 59
13, 539090, Control_c, 12, 11, 60
13, 539190, Control_c, 12, 11, 61
13, 539290, Control_c, 12, 11, 62
13, 539390, Control_c, 12, 11, 63
13, 539490, Control_c, 12, 11, 64
13, 539590, Control_c, 12, 11, 65
13, 539680, Control_c, 12, 11, 66
13, 539780, Control_c, 12, 11, 67
13, 539880, Control_c, 12, 11, 68
13, 539980, Control_c, 12, 11, 69
13, 540080, Control_c, 12, 11, 70
13, 540180, Control_c, 12, 11, 71
13, 540280, Control_c, 12, 11, 72
13, 540380, Control_c, 12, 11, 73
13, 540480, Control_c, 12, 11, 74
13, 540580, Control_c, 12, 11, 75
13, 540680, Control_c, 12, 11, 76
13, 540780, Control_c, 12, 11, 77
13, 540880, Control_c, 12, 11, 78
13, 540980, Control_c, 12, 11, 79
13, 541080, Control_c, 12, 11, 80
13, 541170, Note_on_c, 12, 36, 0
13, 541440, Note_on_c, 12, 29, 80
13, 541650, Note_on_c, 12, 29, 0
13, 545280, Note_on_c, 12, 36, 80
13, 545280, Control_c, 12, 11, 80
13, 545300, Control_c, 12, 11, 79
13, 545320, Control_c, 12, 11, 78
13, 545330, Control_c, 12, 11, 77
13, 545350, Control_c, 12, 11, 76
13, 545360, Control_c, 12, 11, 75
13, 545380, Control_c, 12, 11, 74
13, 545400, Control_c, 12, 11, 73
13, 545410, Control_c, 12, 11, 72
13, 545430, Control_c, 12, 11, 71
13, 545440, Control_c, 12, 11, 70
13, 545460, Control_c, 12, 11, 69
13, 545480, Control_c, 12, 11, 68
13, 545490, Control_c, 12, 11, 67
13, 545510, Control_c, 12, 11, 66
13, 545520, Control_c, 12, 11, 65
13, 545540, Control_c, 12, 11, 64
13, 545560, Control_c, 12, 11, 63
13, 545570, Control_c, 12, 11, 62
13, 545590, Control_c, 12, 11, 61
13, 545600, Control_c, 12, 11, 60
13, 545620, Control_c, 12, 11, 59
13, 545640, Control_c, 12, 11, 58
13, 545650, Control_c, 12, 11, 57
13, 545670, Control_c, 12, 11, 56
13, 545680, Control_c, 12, 11, 55
13, 545700, Control_c, 12, 11, 54
13, 545720, Control_c, 12, 11, 53
13, 545730, Control_c, 12, 11, 52
13, 545750, Control_c, 12, 11, 51
13, 545770, Control_c, 12, 11, 50
13, 545870, Control_c, 12, 11, 51
13, 545970, Control_c, 12, 11, 52
13, 546070, Control_c, 12, 11, 53
13, 546170, Control_c, 12, 11, 54
13, 546270, Control_c, 12, 11, 55
13, 546370, Control_c, 12, 11, 56
13, 546470, Control_c, 12, 11, 57
13, 546570, Control_c, 12, 11, 58
13, 546670, Control_c, 12, 11, 59
13, 546770, Control_c, 12, 11, 60
13, 546870, Control_c, 12, 11, 61
13, 546970, Control_c, 12, 11, 62
13, 547070, Control_c, 12, 11, 63
13, 547170, Control_c, 12, 11, 64
13, 547270, Control_c, 12, 11, 65
13, 547360, Control_c, 12, 11, 66
13, 547460, Control_c, 12, 11, 67
13, 547560, Control_c, 12, 11, 68
13, 547660, Control_c, 12, 11, 69
13, 547760, Control_c, 12, 11, 70
13, 547860, Control_c, 12, 11, 71
13, 547960, Control_c, 12, 11, 72
13, 548060, Control_c, 12, 11, 73
13, 548160, Control_c, 12, 11, 74
13, 548260, Control_c, 12, 11, 75
13, 548360, Control_c, 12, 11, 76
13, 548460, Control_c, 12, 11, 77
13, 548560, Control_c, 12, 11, 78
13, 548660, Control_c, 12, 11, 79
13, 548760, Control_c, 12, 11, 80
13, 548850, Note_on_c, 12, 36, 0
13, 549120, Note_on_c, 12, 42, 80
13, 549300, Note_on_c, 12, 42, 0
13, 549600, Note_on_c, 12, 41, 80
13, 549840, Note_on_c, 12, 41, 0
13, 552960, Note_on_c, 12, 39, 80
13, 553170, Note_on_c, 12, 39, 0
13, 553440, Note_on_c, 12, 40, 80
13, 553650, Note_on_c, 12, 40, 0
13, 554880, Note_on_c, 12, 29, 80
13, 555090, Note_on_c, 12, 29, 0
13, 555360, Note_on_c, 12, 31, 80
13, 555570, Note_on_c, 12, 31, 0
13, 556800, Note_on_c, 12, 32, 70
13, 557160, Note_on_c, 12, 32, 0
13, 557760, Note_on_c, 12, 35, 60
13, 558120, Note_on_c, 12, 35, 0
13, 560640, Note_on_c, 12, 36, 60
13, 561060, Note_on_c, 12, 36, 0
13, 564480, Note_on_c, 12, 31, 60
13, 564930, Note_on_c, 12, 31, 0
13, 568320, Note_on_c, 12, 36, 70
13, 568770, Note_on_c, 12, 36, 0
13, 571680, Note_on_c, 12, 31, 70
13, 572130, Note_on_c, 12, 31, 0
13, 572160, Note_on_c, 12, 36, 70
13, 572610, Note_on_c, 12, 36, 0
13, 575520, Note_on_c, 12, 31, 70
13, 575970, Note_on_c, 12, 31, 0
13, 576000, Note_on_c, 12, 36, 70
13, 576450, Note_on_c, 12, 36, 0
13, 579840, Note_on_c, 12, 31, 70
13, 580290, Note_on_c, 12, 31, 0
13, 583680, Note_on_c, 12, 36, 70
13, 584130, Note_on_c, 12, 36, 0
13, 587520, Note_on_c, 12, 31, 70
13, 587970, Note_on_c, 12, 31, 0
13, 595200, Note_on_c, 12, 36, 60
13, 595650, Note_on_c, 12, 36, 0
13, 595650, End_track
14, 0, Start_track
14, 0, Title_t, "Add. Controls"
14, 0, Instrument_name_t, "Controlli :-)"
14, 960, System_exclusive, 10, 65, 16, 66, 18, 64, 0, 127, 0, 65, 247
14, 961, System_exclusive, 10, 65, 16, 66, 18, 64, 1, 48, 3, 12, 247
14, 962, System_exclusive, 25, 65, 16, 66, 18, 64, 1, 16, 0, 2, 2, 1, 1, 2, 1, 2, 4, 4, 3, 1, 1, 0, 0, 0, 23, 247
14, 963, Program_c, 0, 73
14, 964, Control_c, 0, 7, 127
14, 973, Control_c, 0, 10, 55
14, 983, Control_c, 0, 91, 127
14, 993, Control_c, 0, 93, 18
14, 994, Control_c, 0, 99, 1
14, 996, Control_c, 0, 98, 100
14, 998, Control_c, 0, 6, 114
14, 1027, Program_c, 1, 70
14, 1028, Control_c, 1, 7, 127
14, 1037, Control_c, 1, 10, 60
14, 1047, Control_c, 1, 91, 127
14, 1057, Control_c, 1, 93, 13
14, 1060, Control_c, 1, 99, 1
14, 1062, Control_c, 1, 98, 100
14, 1064, Control_c, 1, 6, 114
14, 1076, Program_c, 2, 71
14, 1077, Control_c, 2, 7, 127
14, 1086, Control_c, 2, 10, 50
14, 1096, Control_c, 2, 91, 127
14, 1106, Control_c, 2, 93, 24
14, 1110, Program_c, 3, 70
14, 1111, Control_c, 3, 7, 127
14, 1120, Control_c, 3, 10, 67
14, 1130, Control_c, 3, 91, 127
14, 1140, Control_c, 3, 93, 21
14, 1144, Program_c, 4, 60
14, 1145, Control_c, 4, 7, 127
14, 1154, Control_c, 4, 10, 81
14, 1164, Control_c, 4, 91, 127
14, 1174, Control_c, 4, 93, 32
14, 1178, Program_c, 5, 56
14, 1179, Control_c, 5, 7, 127
14, 1188, Control_c, 5, 10, 51
14, 1198, Control_c, 5, 91, 127
14, 1208, Control_c, 5, 93, 18
14, 1212, Program_c, 6, 47
14, 1213, Control_c, 6, 7, 127
14, 1222, Control_c, 6, 10, 61
14, 1232, Control_c, 6, 91, 127
14, 1238, Program_c, 7, 48
14, 1239, Control_c, 7, 7, 127
14, 1242, Control_c, 6, 93, 18
14, 1249, Control_c, 7, 10, 18
14, 1259, Control_c, 7, 91, 127
14, 1269, Control_c, 7, 93, 27
14, 1280, Program_c, 8, 48
14, 1281, Control_c, 8, 7, 127
14, 1290, Control_c, 8, 10, 43
14, 1300, Control_c, 8, 91, 127
14, 1310, Control_c, 8, 93, 20
14, 1314, Program_c, 10, 48
14, 1315, Control_c, 10, 7, 127
14, 1324, Control_c, 10, 10, 95
14, 1334, Control_c, 10, 91, 127
14, 1344, Control_c, 10, 93, 25
14, 1348, Program_c, 11, 48
14, 1349, Control_c, 11, 7, 127
14, 1358, Control_c, 11, 10, 118
14, 1368, Control_c, 11, 91, 127
14, 1378, Control_c, 11, 93, 17
14, 1382, Program_c, 12, 48
14, 1383, Control_c, 12, 7, 127
14, 1392, Control_c, 12, 10, 90
14, 1402, Control_c, 12, 91, 127
14, 1412, Control_c, 12, 93, 27
14, 1623, Control_c, 0, 11, 80
14, 1643, Control_c, 1, 11, 80
14, 1663, Control_c, 2, 11, 80
14, 1683, Control_c, 3, 11, 80
14, 1703, Control_c, 4, 11, 80
14, 1723, Control_c, 5, 11, 80
14, 1743, Control_c, 6, 11, 127
14, 1755, Control_c, 7, 11, 80
14, 1783, Control_c, 8, 11, 80
14, 1803, Control_c, 10, 11, 80
14, 1823, Control_c, 11, 11, 80
14, 1843, Control_c, 12, 11, 80
14, 5745, Control_c, 7, 11, 127
14, 5754, Control_c, 8, 11, 127
14, 5755, Control_c, 10, 11, 127
14, 5756, Control_c, 11, 11, 127
14, 5757, Control_c, 12, 11, 127
14, 7672, Control_c, 7, 11, 80
14, 7681, Control_c, 8, 11, 80
14, 7682, Control_c, 10, 11, 80
14, 7683, Control_c, 11, 11, 80
14, 7684, Control_c, 12, 11, 80
14, 13425, Control_c, 7, 11, 127
14, 13434, Control_c, 8, 11, 127
14, 13435, Control_c, 10, 11, 127
14, 13436, Control_c, 11, 11, 127
14, 13437, Control_c, 12, 11, 127
14, 15352, Control_c, 7, 11, 80
14, 15361, Control_c, 8, 11, 80
14, 15362, Control_c, 10, 11, 80
14, 15363, Control_c, 11, 11, 80
14, 15364, Control_c, 12, 11, 80
14, 21105, Control_c, 7, 11, 127
14, 21114, Control_c, 8, 11, 127
14, 21115, Control_c, 10, 11, 127
14, 21116, Control_c, 11, 11, 127
14, 21117, Control_c, 12, 11, 127
14, 23032, Control_c, 7, 11, 80
14, 23041, Control_c, 8, 11, 80
14, 23042, Control_c, 10, 11, 80
14, 23043, Control_c, 11, 11, 80
14, 23044, Control_c, 12, 11, 80
14, 49440, Control_c, 7, 99, 1
14, 49442, Control_c, 7, 98, 99
14, 49444, Control_c, 7, 6, 14
14, 64777, Program_c, 7, 44
14, 64789, Program_c, 8, 44
14, 64794, Program_c, 10, 44
14, 64800, Control_c, 7, 99, 1
14, 64802, Control_c, 7, 98, 99
14, 64804, Control_c, 7, 6, 64
14, 76777, Program_c, 7, 48
14, 76787, Control_c, 7, 11, 127
14, 76789, Program_c, 8, 48
14, 76794, Program_c, 10, 48
14, 76794, Control_c, 0, 11, 100
14, 76794, Control_c, 1, 11, 100
14, 76795, Control_c, 2, 11, 100
14, 76795, Control_c, 3, 11, 100
14, 76796, Control_c, 4, 11, 110
14, 76796, Control_c, 5, 11, 100
14, 76797, Control_c, 8, 11, 127
14, 76797, Control_c, 10, 11, 127
14, 76798, Control_c, 11, 11, 127
14, 76798, Control_c, 12, 11, 127
14, 77267, Control_c, 7, 11, 110
14, 77274, Control_c, 0, 11, 80
14, 77274, Control_c, 1, 11, 80
14, 77275, Control_c, 2, 11, 80
14, 77275, Control_c, 3, 11, 80
14, 77276, Control_c, 4, 11, 90
14, 77276, Control_c, 5, 11, 80
14, 77277, Control_c, 8, 11, 110
14, 77277, Control_c, 10, 11, 110
14, 77278, Control_c, 11, 11, 110
14, 77278, Control_c, 12, 11, 110
14, 78707, Control_c, 7, 11, 127
14, 78714, Control_c, 0, 11, 100
14, 78714, Control_c, 1, 11, 100
14, 78715, Control_c, 2, 11, 100
14, 78715, Control_c, 3, 11, 100
14, 78716, Control_c, 4, 11, 110
14, 78716, Control_c, 5, 11, 100
14, 78717, Control_c, 8, 11, 127
14, 78717, Control_c, 10, 11, 127
14, 78718, Control_c, 11, 11, 127
14, 78718, Control_c, 12, 11, 127
14, 79187, Control_c, 7, 11, 110
14, 79194, Control_c, 0, 11, 80
14, 79194, Control_c, 1, 11, 80
14, 79195, Control_c, 2, 11, 80
14, 79195, Control_c, 3, 11, 80
14, 79196, Control_c, 4, 11, 90
14, 79196, Control_c, 5, 11, 80
14, 79197, Control_c, 8, 11, 110
14, 79197, Control_c, 10, 11, 110
14, 79198, Control_c, 11, 11, 110
14, 79198, Control_c, 12, 11, 110
14, 80627, Control_c, 7, 11, 127
14, 80634, Control_c, 0, 11, 100
14, 80634, Control_c, 1, 11, 100
14, 80635, Control_c, 2, 11, 100
14, 80635, Control_c, 3, 11, 100
14, 80636, Control_c, 4, 11, 110
14, 80636, Control_c, 5, 11, 100
14, 80637, Control_c, 8, 11, 127
14, 80637, Control_c, 10, 11, 127
14, 80638, Control_c, 11, 11, 127
14, 80638, Control_c, 12, 11, 127
14, 81107, Control_c, 7, 11, 110
14, 81114, Control_c, 0, 11, 80
14, 81114, Control_c, 1, 11, 80
14, 81115, Control_c, 2, 11, 80
14, 81115, Control_c, 3, 11, 80
14, 81116, Control_c, 4, 11, 90
14, 81116, Control_c, 5, 11, 80
14, 81117, Control_c, 8, 11, 110
14, 81117, Control_c, 10, 11, 110
14, 81118, Control_c, 11, 11, 110
14, 81118, Control_c, 12, 11, 110
14, 82547, Control_c, 7, 11, 127
14, 82554, Control_c, 0, 11, 100
14, 82554, Control_c, 1, 11, 100
14, 82555, Control_c, 2, 11, 100
14, 82555, Control_c, 3, 11, 100
14, 82556, Control_c, 4, 11, 110
14, 82556, Control_c, 5, 11, 100
14, 82557, Control_c, 8, 11, 127
14, 82557, Control_c, 10, 11, 127
14, 82558, Control_c, 11, 11, 127
14, 82558, Control_c, 12, 11, 127
14, 83027, Control_c, 7, 11, 110
14, 83034, Control_c, 0, 11, 80
14, 83034, Control_c, 1, 11, 80
14, 83035, Control_c, 2, 11, 80
14, 83035, Control_c, 3, 11, 80
14, 83036, Control_c, 4, 11, 90
14, 83036, Control_c, 5, 11, 80
14, 83037, Control_c, 8, 11, 110
14, 83037, Control_c, 10, 11, 110
14, 83038, Control_c, 11, 11, 110
14, 83038, Control_c, 12, 11, 110
14, 84467, Control_c, 7, 11, 127
14, 84474, Control_c, 0, 11, 100
14, 84474, Control_c, 1, 11, 100
14, 84475, Control_c, 2, 11, 100
14, 84475, Control_c, 3, 11, 100
14, 84476, Control_c, 4, 11, 110
14, 84476, Control_c, 5, 11, 100
14, 84477, Control_c, 8, 11, 127
14, 84477, Control_c, 10, 11, 127
14, 84478, Control_c, 11, 11, 127
14, 84478, Control_c, 12, 11, 127
14, 84947, Control_c, 7, 11, 110
14, 84954, Control_c, 0, 11, 80
14, 84954, Control_c, 1, 11, 80
14, 84955, Control_c, 2, 11, 80
14, 84955, Control_c, 3, 11, 80
14, 84956, Control_c, 4, 11, 90
14, 84956, Control_c, 5, 11, 80
14, 84957, Control_c, 8, 11, 110
14, 84957, Control_c, 10, 11, 110
14, 84958, Control_c, 11, 11, 110
14, 84958, Control_c, 12, 11, 110
14, 86387, Control_c, 7, 11, 127
14, 86394, Control_c, 0, 11, 100
14, 86394, Control_c, 1, 11, 100
14, 86395, Control_c, 2, 11, 100
14, 86395, Control_c, 3, 11, 100
14, 86396, Control_c, 4, 11, 110
14, 86396, Control_c, 5, 11, 100
14, 86397, Control_c, 8, 11, 127
14, 86397, Control_c, 10, 11, 127
14, 86398, Control_c, 11, 11, 127
14, 86398, Control_c, 12, 11, 127
14, 86867, Control_c, 7, 11, 110
14, 86874, Control_c, 0, 11, 80
14, 86874, Control_c, 1, 11, 80
14, 86875, Control_c, 2, 11, 80
14, 86875, Control_c, 3, 11, 80
14, 86876, Control_c, 4, 11, 90
14, 86876, Control_c, 5, 11, 80
14, 86877, Control_c, 8, 11, 110
14, 86877, Control_c, 10, 11, 110
14, 86878, Control_c, 11, 11, 110
14, 86878, Control_c, 12, 11, 110
14, 89747, Control_c, 7, 11, 127
14, 89754, Control_c, 0, 11, 100
14, 89754, Control_c, 1, 11, 100
14, 89755, Control_c, 2, 11, 100
14, 89755, Control_c, 3, 11, 100
14, 89756, Control_c, 4, 11, 110
14, 89756, Control_c, 5, 11, 100
14, 89757, Control_c, 8, 11, 127
14, 89757, Control_c, 10, 11, 127
14, 89758, Control_c, 11, 11, 127
14, 89758, Control_c, 12, 11, 127
14, 90227, Control_c, 7, 11, 110
14, 90234, Control_c, 0, 11, 80
14, 90234, Control_c, 1, 11, 80
14, 90235, Control_c, 2, 11, 80
14, 90235, Control_c, 3, 11, 80
14, 90236, Control_c, 4, 11, 90
14, 90236, Control_c, 5, 11, 80
14, 90237, Control_c, 8, 11, 110
14, 90237, Control_c, 10, 11, 110
14, 90238, Control_c, 11, 11, 110
14, 90238, Control_c, 12, 11, 110
14, 91667, Control_c, 7, 11, 127
14, 91674, Control_c, 0, 11, 100
14, 91674, Control_c, 1, 11, 100
14, 91675, Control_c, 2, 11, 100
14, 91675, Control_c, 3, 11, 100
14, 91676, Control_c, 4, 11, 110
14, 91676, Control_c, 5, 11, 100
14, 91677, Control_c, 8, 11, 127
14, 91677, Control_c, 10, 11, 127
14, 91678, Control_c, 11, 11, 127
14, 91678, Control_c, 12, 11, 127
14, 92147, Control_c, 7, 11, 110
14, 92154, Control_c, 0, 11, 80
14, 92154, Control_c, 1, 11, 80
14, 92155, Control_c, 2, 11, 80
14, 92155, Control_c, 3, 11, 80
14, 92156, Control_c, 4, 11, 90
14, 92156, Control_c, 5, 11, 80
14, 92157, Control_c, 8, 11, 110
14, 92157, Control_c, 10, 11, 110
14, 92158, Control_c, 11, 11, 110
14, 92158, Control_c, 12, 11, 110
14, 93587, Control_c, 7, 11, 127
14, 93594, Control_c, 0, 11, 100
14, 93594, Control_c, 1, 11, 100
14, 93595, Control_c, 2, 11, 100
14, 93595, Control_c, 3, 11, 100
14, 93596, Control_c, 4, 11, 110
14, 93596, Control_c, 5, 11, 100
14, 93597, Control_c, 8, 11, 127
14, 93597, Control_c, 10, 11, 127
14, 93598, Control_c, 11, 11, 127
14, 93598, Control_c, 12, 11, 127
14, 94067, Control_c, 7, 11, 110
14, 94074, Control_c, 0, 11, 80
14, 94074, Control_c, 1, 11, 80
14, 94075, Control_c, 2, 11, 80
14, 94075, Control_c, 3, 11, 80
14, 94076, Control_c, 4, 11, 90
14, 94076, Control_c, 5, 11, 80
14, 94077, Control_c, 8, 11, 110
14, 94077, Control_c, 10, 11, 110
14, 94078, Control_c, 11, 11, 110
14, 94078, Control_c, 12, 11, 110
14, 95507, Control_c, 7, 11, 127
14, 95514, Control_c, 0, 11, 100
14, 95514, Control_c, 1, 11, 100
14, 95515, Control_c, 2, 11, 100
14, 95515, Control_c, 3, 11, 100
14, 95516, Control_c, 4, 11, 110
14, 95516, Control_c, 5, 11, 100
14, 95517, Control_c, 8, 11, 127
14, 95517, Control_c, 10, 11, 127
14, 95518, Control_c, 11, 11, 127
14, 95518, Control_c, 12, 11, 127
14, 95994, Control_c, 0, 11, 80
14, 95994, Control_c, 1, 11, 80
14, 95995, Control_c, 2, 11, 80
14, 95995, Control_c, 3, 11, 80
14, 95996, Control_c, 4, 11, 90
14, 95996, Control_c, 5, 11, 80
14, 95997, Control_c, 8, 11, 110
14, 95997, Control_c, 10, 11, 110
14, 95998, Control_c, 11, 11, 110
14, 95998, Control_c, 12, 11, 110
14, 97920, Control_c, 4, 11, 80
14, 97921, Control_c, 8, 11, 80
14, 97922, Control_c, 10, 11, 80
14, 97923, Control_c, 11, 11, 80
14, 97924, Control_c, 12, 11, 80
14, 115187, Program_c, 7, 44
14, 115194, Program_c, 8, 44
14, 119034, Program_c, 10, 44
14, 122867, Program_c, 7, 48
14, 122874, Program_c, 8, 48
14, 122874, Program_c, 10, 48
14, 130547, Program_c, 7, 44
14, 130554, Program_c, 8, 44
14, 134394, Program_c, 10, 44
14, 138227, Program_c, 7, 48
14, 138234, Program_c, 8, 48
14, 138234, Program_c, 10, 48
14, 161269, Program_c, 7, 44
14, 161277, Program_c, 8, 44
14, 165117, Program_c, 10, 44
14, 176629, Program_c, 7, 48
14, 176637, Program_c, 8, 48
14, 176637, Program_c, 10, 48
14, 184317, Program_c, 8, 44
14, 184317, Program_c, 10, 44
14, 191997, Program_c, 8, 48
14, 191997, Program_c, 10, 48
14, 195829, Control_c, 7, 11, 80
14, 195837, Control_c, 8, 11, 80
14, 195837, Control_c, 10, 11, 80
14, 199427, Control_c, 7, 11, 127
14, 199434, Control_c, 8, 11, 127
14, 199907, Control_c, 7, 11, 80
14, 199914, Control_c, 8, 11, 80
14, 203267, Control_c, 7, 11, 127
14, 203274, Control_c, 8, 11, 127
14, 203747, Control_c, 7, 11, 80
14, 203754, Control_c, 8, 11, 80
14, 210720, Control_c, 7, 99, 1
14, 210722, Control_c, 7, 98, 99
14, 210724, Control_c, 7, 6, 14
14, 211187, Control_c, 7, 11, 110
14, 211194, Control_c, 8, 11, 127
14, 211194, Control_c, 10, 11, 127
14, 211197, Program_c, 10, 44
14, 216957, Program_c, 8, 44
14, 226557, Program_c, 8, 48
14, 226557, Program_c, 10, 48
14, 227029, Control_c, 7, 11, 80
14, 227037, Control_c, 8, 11, 80
14, 227037, Control_c, 10, 11, 80
14, 227040, Control_c, 7, 99, 1
14, 227042, Control_c, 7, 98, 99
14, 227044, Control_c, 7, 6, 64
14, 268320, Control_c, 7, 99, 1
14, 268322, Control_c, 7, 98, 99
14, 268324, Control_c, 7, 6, 14
14, 268797, Program_c, 10, 44
14, 276477, Program_c, 10, 48
14, 276960, Control_c, 7, 99, 1
14, 276962, Control_c, 7, 98, 99
14, 276964, Control_c, 7, 6, 64
14, 283680, Control_c, 7, 99, 1
14, 283682, Control_c, 7, 98, 99
14, 283684, Control_c, 7, 6, 14
14, 284157, Program_c, 10, 44
14, 291829, Control_c, 7, 99, 1
14, 291831, Control_c, 7, 98, 99
14, 291834, Control_c, 7, 6, 64
14, 291837, Program_c, 10, 48
14, 323989, Control_c, 7, 11, 127
14, 323997, Control_c, 0, 11, 110
14, 323997, Control_c, 1, 11, 110
14, 323998, Control_c, 2, 11, 110
14, 323998, Control_c, 3, 11, 110
14, 323999, Control_c, 11, 11, 110
14, 323999, Control_c, 12, 11, 110
14, 324469, Control_c, 7, 11, 100
14, 324477, Control_c, 0, 11, 80
14, 324477, Control_c, 1, 11, 80
14, 324478, Control_c, 2, 11, 80
14, 324478, Control_c, 3, 11, 80
14, 324479, Control_c, 11, 11, 80
14, 324479, Control_c, 12, 11, 80
14, 325909, Control_c, 7, 11, 127
14, 325917, Control_c, 0, 11, 110
14, 325917, Control_c, 1, 11, 110
14, 325918, Control_c, 2, 11, 110
14, 325918, Control_c, 3, 11, 110
14, 325919, Control_c, 11, 11, 110
14, 325919, Control_c, 12, 11, 110
14, 326389, Control_c, 7, 11, 100
14, 326397, Control_c, 0, 11, 80
14, 326397, Control_c, 1, 11, 80
14, 326398, Control_c, 2, 11, 80
14, 326398, Control_c, 3, 11, 80
14, 326399, Control_c, 11, 11, 80
14, 326399, Control_c, 12, 11, 80
14, 327829, Control_c, 7, 11, 127
14, 327837, Control_c, 0, 11, 110
14, 327837, Control_c, 1, 11, 110
14, 327838, Control_c, 2, 11, 110
14, 327838, Control_c, 3, 11, 110
14, 327839, Control_c, 11, 11, 110
14, 327839, Control_c, 12, 11, 110
14, 328309, Control_c, 7, 11, 100
14, 328317, Control_c, 0, 11, 80
14, 328317, Control_c, 1, 11, 80
14, 328318, Control_c, 2, 11, 80
14, 328318, Control_c, 3, 11, 80
14, 328319, Control_c, 11, 11, 80
14, 328319, Control_c, 12, 11, 80
14, 329749, Control_c, 7, 11, 127
14, 329757, Control_c, 0, 11, 110
14, 329757, Control_c, 1, 11, 110
14, 329758, Control_c, 2, 11, 110
14, 329758, Control_c, 3, 11, 110
14, 329759, Control_c, 12, 11, 110
14, 330229, Control_c, 7, 11, 100
14, 330237, Control_c, 0, 11, 80
14, 330237, Control_c, 1, 11, 80
14, 330238, Control_c, 2, 11, 80
14, 330238, Control_c, 3, 11, 80
14, 330239, Control_c, 12, 11, 80
14, 331669, Control_c, 7, 11, 127
14, 331677, Control_c, 0, 11, 110
14, 331677, Control_c, 1, 11, 110
14, 331678, Control_c, 2, 11, 110
14, 331678, Control_c, 3, 11, 110
14, 331679, Control_c, 11, 11, 110
14, 331679, Control_c, 12, 11, 110
14, 332149, Control_c, 7, 11, 100
14, 332157, Control_c, 0, 11, 80
14, 332157, Control_c, 1, 11, 80
14, 332158, Control_c, 2, 11, 80
14, 332158, Control_c, 3, 11, 80
14, 332159, Control_c, 11, 11, 80
14, 332159, Control_c, 12, 11, 80
14, 333589, Control_c, 7, 11, 127
14, 333597, Control_c, 0, 11, 110
14, 333597, Control_c, 1, 11, 110
14, 333598, Control_c, 2, 11, 110
14, 333598, Control_c, 3, 11, 110
14, 333599, Control_c, 11, 11, 110
14, 333599, Control_c, 12, 11, 110
14, 334069, Control_c, 7, 11, 100
14, 334077, Control_c, 0, 11, 80
14, 334077, Control_c, 1, 11, 80
14, 334078, Control_c, 2, 11, 80
14, 334078, Control_c, 3, 11, 80
14, 334079, Control_c, 11, 11, 80
14, 334079, Control_c, 12, 11, 80
14, 335509, Control_c, 7, 11, 127
14, 335517, Control_c, 0, 11, 110
14, 335517, Control_c, 1, 11, 110
14, 335518, Control_c, 2, 11, 110
14, 335518, Control_c, 3, 11, 110
14, 335519, Control_c, 11, 11, 110
14, 335519, Control_c, 12, 11, 110
14, 335989, Control_c, 7, 11, 100
14, 335997, Control_c, 0, 11, 80
14, 335997, Control_c, 1, 11, 80
14, 335998, Control_c, 2, 11, 80
14, 335998, Control_c, 3, 11, 80
14, 335999, Control_c, 11, 11, 80
14, 335999, Control_c, 12, 11, 80
14, 337429, Control_c, 7, 11, 127
14, 337437, Control_c, 0, 11, 110
14, 337437, Control_c, 1, 11, 110
14, 337438, Control_c, 2, 11, 110
14, 337438, Control_c, 3, 11, 110
14, 337439, Control_c, 10, 11, 127
14, 337439, Control_c, 11, 11, 110
14, 337440, Control_c, 12, 11, 110
14, 337909, Control_c, 7, 11, 100
14, 337917, Control_c, 0, 11, 80
14, 337917, Control_c, 1, 11, 80
14, 337918, Control_c, 2, 11, 80
14, 337918, Control_c, 3, 11, 80
14, 337919, Control_c, 10, 11, 100
14, 337919, Control_c, 11, 11, 80
14, 337920, Control_c, 12, 11, 80
14, 357109, Program_c, 7, 44
14, 357117, Program_c, 8, 44
14, 360957, Program_c, 10, 44
14, 364789, Program_c, 7, 48
14, 364797, Program_c, 10, 48
14, 366237, Program_c, 8, 48
14, 372469, Program_c, 7, 44
14, 372477, Program_c, 8, 44
14, 374389, Program_c, 7, 48
14, 374397, Program_c, 8, 48
14, 376309, Program_c, 7, 44
14, 376317, Program_c, 8, 44
14, 376317, Program_c, 10, 44
14, 380149, Program_c, 7, 48
14, 380157, Program_c, 8, 48
14, 380157, Program_c, 10, 48
14, 407029, Program_c, 7, 44
14, 407037, Program_c, 8, 44
14, 407037, Program_c, 10, 44
14, 422389, Program_c, 7, 48
14, 422397, Program_c, 8, 48
14, 422397, Program_c, 10, 48
14, 430077, Program_c, 8, 44
14, 430077, Program_c, 10, 44
14, 437757, Program_c, 8, 48
14, 437757, Program_c, 10, 48
14, 456480, Control_c, 7, 99, 1
14, 456482, Control_c, 7, 98, 99
14, 456484, Control_c, 7, 6, 14
14, 456957, Program_c, 10, 44
14, 460797, Program_c, 10, 48
14, 462720, Control_c, 7, 99, 1
14, 462722, Control_c, 7, 98, 99
14, 462724, Control_c, 7, 6, 64
14, 483829, Program_c, 7, 44
14, 489597, Program_c, 8, 44
14, 491517, Program_c, 8, 48
14, 493437, Program_c, 8, 44
14, 495357, Program_c, 8, 48
14, 497277, Program_c, 8, 44
14, 497277, Program_c, 10, 44
14, 499189, Program_c, 7, 48
14, 499197, Program_c, 8, 48
14, 499197, Program_c, 10, 48
14, 518397, Program_c, 8, 44
14, 518397, Program_c, 10, 44
14, 526077, Program_c, 8, 48
14, 526077, Program_c, 10, 48
14, 562552, Program_c, 7, 45
14, 562560, Program_c, 8, 45
14, 562560, Program_c, 10, 45
14, 562560, Program_c, 11, 45
14, 562560, Program_c, 12, 45
14, 565912, Program_c, 7, 49
14, 570237, Program_c, 11, 48
14, 573960, Program_c, 11, 49
14, 597112, Program_c, 7, 45
14, 597600, Program_c, 11, 45
14, 597600, End_track
15, 0, Start_track
15, 0, Channel_prefix, 15
15, 0, Title_t, "L. v. Beethoven:"
15, 0, Instrument_name_t, "M Cha16 "
15, 0, Text_t, "Ludwig van Beethoven (1770 - 1827)"
15, 6720, Text_t, " "
15, 6720, End_track
16, 0, Start_track
16, 0, Channel_prefix, 15
16, 0, Title_t, "Overture ""Coriolan"""
16, 0, Instrument_name_t, "M Cha16 "
16, 0, Text_t, "Overture ""Coriolan"" ( c minor), Op. 62, ""Allegro con brio"""
16, 6720, Text_t, " "
16, 6720, End_track
17, 0, Start_track
17, 0, Channel_prefix, 15
17, 0, Title_t, "sequenced by H.-J. Roeder"
17, 0, Instrument_name_t, "M Cha16 "
17, 0, Text_t, "sequenced by Hans-Joachim Roeder (roeder@fmi.uni-passau.de), 1996"
17, 6720, Text_t, " "
17, 6720, End_track
0, 0, End_of_file
