0, 0, Header, 1, 19, 120
1, 0, Start_track
1, 0, Sequencer_specific, 3, 0, 0, 65
1, 0, Time_signature, 2, 2, 24, 8
1, 0, Key_signature, -1, "major"
1, 0, Tempo, 566037
1, 0, End_track
2, 0, Start_track
2, 0, MIDI_port, 0
2, 0, Title_t, "Violin1"
2, 0, Program_c, 0, 48
2, 0, Control_c, 0, 7, 120
2, 0, Control_c, 0, 10, 60
2, 60, Control_c, 0, 121, 0
2, 60, Control_c, 0, 0, 0
2, 60, Program_c, 0, 48
2, 60, Pitch_bend_c, 0, 8192
2, 60, Control_c, 0, 10, 60
2, 60, Control_c, 0, 91, 110
2, 60, Control_c, 0, 93, 30
2, 60, Control_c, 0, 7, 110
2, 60, Note_on_c, 0, 69, 119
2, 120, Note_on_c, 0, 70, 119
2, 129, Note_on_c, 0, 69, 0
2, 149, Note_on_c, 0, 70, 0
2, 180, Note_on_c, 0, 74, 123
2, 209, Note_on_c, 0, 74, 0
2, 240, Note_on_c, 0, 72, 127
2, 300, Note_on_c, 0, 70, 111
2, 307, Note_on_c, 0, 72, 0
2, 329, Note_on_c, 0, 70, 0
2, 330, Note_on_c, 0, 69, 114
2, 359, Note_on_c, 0, 69, 0
2, 360, Note_on_c, 0, 67, 121
2, 389, Note_on_c, 0, 67, 0
2, 420, Note_on_c, 0, 60, 98
2, 449, Note_on_c, 0, 60, 0
2, 480, Note_on_c, 0, 65, 108
2, 539, Note_on_c, 0, 65, 0
2, 540, Note_on_c, 0, 67, 113
2, 599, Note_on_c, 0, 67, 0
2, 600, Note_on_c, 0, 69, 118
2, 659, Note_on_c, 0, 69, 0
2, 660, Note_on_c, 0, 70, 108
2, 689, Note_on_c, 0, 70, 0
2, 690, Note_on_c, 0, 69, 106
2, 719, Note_on_c, 0, 69, 0
2, 720, Note_on_c, 0, 67, 114
2, 839, Note_on_c, 0, 67, 0
2, 1260, Note_on_c, 0, 67, 108
2, 1289, Note_on_c, 0, 67, 0
2, 1290, Note_on_c, 0, 69, 116
2, 1319, Note_on_c, 0, 69, 0
2, 1320, Note_on_c, 0, 70, 120
2, 1379, Note_on_c, 0, 70, 0
2, 1380, Note_on_c, 0, 67, 114
2, 1439, Note_on_c, 0, 67, 0
2, 1440, Note_on_c, 0, 69, 121
2, 1559, Note_on_c, 0, 69, 0
2, 1620, Note_on_c, 0, 70, 107
2, 1679, Note_on_c, 0, 70, 0
2, 1680, Note_on_c, 0, 67, 106
2, 1739, Note_on_c, 0, 67, 0
2, 1740, Note_on_c, 0, 67, 110
2, 1769, Note_on_c, 0, 67, 0
2, 1770, Note_on_c, 0, 69, 112
2, 1799, Note_on_c, 0, 69, 0
2, 1800, Note_on_c, 0, 70, 119
2, 1859, Note_on_c, 0, 70, 0
2, 1860, Note_on_c, 0, 67, 113
2, 1919, Note_on_c, 0, 67, 0
2, 1920, Note_on_c, 0, 69, 121
2, 2039, Note_on_c, 0, 69, 0
2, 2040, Note_on_c, 0, 72, 125
2, 2159, Note_on_c, 0, 72, 0
2, 2160, Note_on_c, 0, 70, 125
2, 2339, Note_on_c, 0, 70, 0
2, 2340, Note_on_c, 0, 69, 118
2, 2400, Note_on_c, 0, 74, 127
2, 2429, Note_on_c, 0, 69, 0
2, 2520, Note_on_c, 0, 72, 110
2, 2549, Note_on_c, 0, 74, 0
2, 2639, Note_on_c, 0, 72, 0
2, 2640, Note_on_c, 0, 67, 109
2, 2699, Note_on_c, 0, 67, 0
2, 2700, Note_on_c, 0, 67, 112
2, 2729, Note_on_c, 0, 67, 0
2, 2730, Note_on_c, 0, 69, 109
2, 2759, Note_on_c, 0, 69, 0
2, 2760, Note_on_c, 0, 70, 114
2, 2819, Note_on_c, 0, 70, 0
2, 2820, Note_on_c, 0, 67, 109
2, 2879, Note_on_c, 0, 67, 0
2, 2880, Note_on_c, 0, 69, 124
2, 3000, Note_on_c, 0, 72, 122
2, 3029, Note_on_c, 0, 69, 0
2, 3119, Note_on_c, 0, 72, 0
2, 3120, Note_on_c, 0, 70, 124
2, 3213, Channel_aftertouch_c, 0, 3
2, 3215, Channel_aftertouch_c, 0, 4
2, 3219, Channel_aftertouch_c, 0, 7
2, 3224, Channel_aftertouch_c, 0, 9
2, 3227, Channel_aftertouch_c, 0, 12
2, 3232, Channel_aftertouch_c, 0, 14
2, 3238, Channel_aftertouch_c, 0, 17
2, 3243, Channel_aftertouch_c, 0, 19
2, 3245, Channel_aftertouch_c, 0, 21
2, 3251, Channel_aftertouch_c, 0, 23
2, 3257, Channel_aftertouch_c, 0, 21
2, 3259, Channel_aftertouch_c, 0, 18
2, 3262, Channel_aftertouch_c, 0, 13
2, 3264, Channel_aftertouch_c, 0, 6
2, 3268, Channel_aftertouch_c, 0, 1
2, 3270, Channel_aftertouch_c, 0, 0
2, 3299, Note_on_c, 0, 70, 0
2, 3300, Note_on_c, 0, 69, 102
2, 3359, Note_on_c, 0, 69, 0
2, 3360, Note_on_c, 0, 74, 95
2, 3479, Note_on_c, 0, 74, 0
2, 3480, Note_on_c, 0, 72, 91
2, 3599, Note_on_c, 0, 72, 0
2, 3600, Note_on_c, 0, 67, 74
2, 3629, Note_on_c, 0, 67, 0
2, 3660, Note_on_c, 0, 67, 69
2, 3689, Note_on_c, 0, 67, 0
2, 3690, Note_on_c, 0, 69, 72
2, 3719, Note_on_c, 0, 69, 0
2, 3720, Note_on_c, 0, 70, 80
2, 3749, Note_on_c, 0, 70, 0
2, 3780, Note_on_c, 0, 71, 82
2, 3809, Note_on_c, 0, 71, 0
2, 3840, Note_on_c, 0, 72, 90
2, 3869, Note_on_c, 0, 72, 0
2, 3900, Note_on_c, 0, 67, 82
2, 3929, Note_on_c, 0, 67, 0
2, 3930, Note_on_c, 0, 69, 74
2, 3959, Note_on_c, 0, 69, 0
2, 3960, Note_on_c, 0, 70, 95
2, 3989, Note_on_c, 0, 70, 0
2, 4020, Note_on_c, 0, 71, 88
2, 4049, Note_on_c, 0, 71, 0
2, 4080, Note_on_c, 0, 72, 86
2, 4109, Note_on_c, 0, 72, 0
2, 4140, Note_on_c, 0, 67, 78
2, 4169, Note_on_c, 0, 67, 0
2, 4170, Note_on_c, 0, 69, 78
2, 4199, Note_on_c, 0, 69, 0
2, 4200, Note_on_c, 0, 70, 105
2, 4229, Note_on_c, 0, 70, 0
2, 4260, Note_on_c, 0, 71, 95
2, 4289, Note_on_c, 0, 71, 0
2, 4320, Note_on_c, 0, 72, 86
2, 4349, Note_on_c, 0, 72, 0
2, 4380, Note_on_c, 0, 67, 78
2, 4409, Note_on_c, 0, 67, 0
2, 4410, Note_on_c, 0, 69, 78
2, 4439, Note_on_c, 0, 69, 0
2, 4440, Note_on_c, 0, 70, 90
2, 4469, Note_on_c, 0, 70, 0
2, 4500, Note_on_c, 0, 71, 100
2, 4529, Note_on_c, 0, 71, 0
2, 4560, Note_on_c, 0, 72, 116
2, 4589, Note_on_c, 0, 72, 0
2, 4620, Note_on_c, 0, 67, 90
2, 4649, Note_on_c, 0, 67, 0
2, 4650, Note_on_c, 0, 69, 95
2, 4679, Note_on_c, 0, 69, 0
2, 4680, Note_on_c, 0, 70, 110
2, 4709, Note_on_c, 0, 70, 0
2, 4740, Note_on_c, 0, 71, 116
2, 4769, Note_on_c, 0, 71, 0
2, 4800, Note_on_c, 0, 72, 116
2, 4829, Note_on_c, 0, 72, 0
2, 4860, Note_on_c, 0, 67, 110
2, 4889, Note_on_c, 0, 67, 0
2, 4890, Note_on_c, 0, 69, 116
2, 4919, Note_on_c, 0, 69, 0
2, 4920, Note_on_c, 0, 70, 127
2, 4949, Note_on_c, 0, 70, 0
2, 4980, Note_on_c, 0, 71, 116
2, 5009, Note_on_c, 0, 71, 0
2, 5040, Note_on_c, 0, 72, 101
2, 5069, Note_on_c, 0, 72, 0
2, 5100, Note_on_c, 0, 67, 78
2, 5129, Note_on_c, 0, 67, 0
2, 5130, Note_on_c, 0, 69, 78
2, 5159, Note_on_c, 0, 69, 0
2, 5160, Note_on_c, 0, 70, 79
2, 5189, Note_on_c, 0, 70, 0
2, 5220, Note_on_c, 0, 71, 82
2, 5249, Note_on_c, 0, 71, 0
2, 5280, Note_on_c, 0, 72, 82
2, 5309, Note_on_c, 0, 72, 0
2, 5340, Note_on_c, 0, 67, 67
2, 5369, Note_on_c, 0, 67, 0
2, 5370, Note_on_c, 0, 69, 67
2, 5399, Note_on_c, 0, 69, 0
2, 5400, Note_on_c, 0, 70, 70
2, 5429, Note_on_c, 0, 70, 0
2, 5460, Note_on_c, 0, 71, 68
2, 5489, Note_on_c, 0, 71, 0
2, 5520, Note_on_c, 0, 72, 82
2, 5549, Note_on_c, 0, 72, 0
2, 5580, Note_on_c, 0, 67, 73
2, 5609, Note_on_c, 0, 67, 0
2, 5610, Note_on_c, 0, 69, 73
2, 5639, Note_on_c, 0, 69, 0
2, 5640, Note_on_c, 0, 70, 75
2, 5669, Note_on_c, 0, 70, 0
2, 5700, Note_on_c, 0, 71, 79
2, 5729, Note_on_c, 0, 71, 0
2, 5760, Note_on_c, 0, 72, 81
2, 5789, Note_on_c, 0, 72, 0
2, 5820, Note_on_c, 0, 67, 64
2, 5849, Note_on_c, 0, 67, 0
2, 5850, Note_on_c, 0, 69, 77
2, 5879, Note_on_c, 0, 69, 0
2, 5880, Note_on_c, 0, 70, 78
2, 5909, Note_on_c, 0, 70, 0
2, 5940, Note_on_c, 0, 71, 81
2, 5969, Note_on_c, 0, 71, 0
2, 6000, Note_on_c, 0, 72, 74
2, 6029, Note_on_c, 0, 72, 0
2, 6060, Note_on_c, 0, 69, 77
2, 6089, Note_on_c, 0, 69, 0
2, 6090, Note_on_c, 0, 70, 78
2, 6119, Note_on_c, 0, 70, 0
2, 6120, Note_on_c, 0, 72, 79
2, 6149, Note_on_c, 0, 72, 0
2, 6180, Note_on_c, 0, 73, 83
2, 6209, Note_on_c, 0, 73, 0
2, 6240, Note_on_c, 0, 74, 83
2, 6269, Note_on_c, 0, 74, 0
2, 7740, Note_on_c, 0, 65, 107
2, 7769, Note_on_c, 0, 65, 0
2, 7770, Note_on_c, 0, 69, 106
2, 7799, Note_on_c, 0, 69, 0
2, 7860, Note_on_c, 0, 67, 94
2, 7889, Note_on_c, 0, 67, 0
2, 7890, Note_on_c, 0, 70, 99
2, 7919, Note_on_c, 0, 70, 0
2, 7980, Note_on_c, 0, 69, 99
2, 8009, Note_on_c, 0, 69, 0
2, 8010, Note_on_c, 0, 72, 104
2, 8039, Note_on_c, 0, 72, 0
2, 8100, Note_on_c, 0, 67, 106
2, 8129, Note_on_c, 0, 67, 0
2, 8130, Note_on_c, 0, 76, 113
2, 8159, Note_on_c, 0, 76, 0
2, 8220, Note_on_c, 0, 69, 115
2, 8249, Note_on_c, 0, 69, 0
2, 8250, Note_on_c, 0, 77, 116
2, 8289, Note_on_c, 0, 77, 0
2, 8340, Note_on_c, 0, 69, 122
2, 8369, Note_on_c, 0, 69, 0
2, 8370, Note_on_c, 0, 77, 124
2, 8409, Note_on_c, 0, 77, 0
2, 8460, Note_on_c, 0, 76, 124
2, 8490, Note_on_c, 0, 79, 125
2, 8499, Note_on_c, 0, 76, 0
2, 8539, Note_on_c, 0, 79, 0
2, 8580, Note_on_c, 0, 76, 122
2, 8610, Note_on_c, 0, 79, 124
2, 8619, Note_on_c, 0, 76, 0
2, 8640, Note_on_c, 0, 81, 126
2, 8649, Note_on_c, 0, 79, 0
2, 8669, Note_on_c, 0, 81, 0
2, 8700, Note_on_c, 0, 81, 121
2, 8729, Note_on_c, 0, 81, 0
2, 8760, Note_on_c, 0, 82, 123
2, 8789, Note_on_c, 0, 82, 0
2, 8820, Note_on_c, 0, 86, 116
2, 8849, Note_on_c, 0, 86, 0
2, 8880, Note_on_c, 0, 84, 100
2, 8939, Note_on_c, 0, 84, 0
2, 8940, Note_on_c, 0, 82, 111
2, 8969, Note_on_c, 0, 82, 0
2, 8970, Note_on_c, 0, 81, 112
2, 8999, Note_on_c, 0, 81, 0
2, 9000, Note_on_c, 0, 79, 119
2, 9029, Note_on_c, 0, 79, 0
2, 9060, Note_on_c, 0, 72, 116
2, 9089, Note_on_c, 0, 72, 0
2, 9120, Note_on_c, 0, 77, 115
2, 9149, Note_on_c, 0, 77, 0
2, 9180, Note_on_c, 0, 79, 118
2, 9209, Note_on_c, 0, 79, 0
2, 9240, Note_on_c, 0, 81, 115
2, 9299, Note_on_c, 0, 81, 0
2, 9300, Note_on_c, 0, 82, 115
2, 9329, Note_on_c, 0, 82, 0
2, 9330, Note_on_c, 0, 81, 119
2, 9359, Note_on_c, 0, 81, 0
2, 9360, Note_on_c, 0, 79, 121
2, 9389, Note_on_c, 0, 79, 0
2, 9420, Note_on_c, 0, 81, 118
2, 9449, Note_on_c, 0, 81, 0
2, 9480, Note_on_c, 0, 82, 115
2, 9539, Note_on_c, 0, 82, 0
2, 9540, Note_on_c, 0, 84, 115
2, 9569, Note_on_c, 0, 84, 0
2, 9570, Note_on_c, 0, 82, 118
2, 9599, Note_on_c, 0, 82, 0
2, 9600, Note_on_c, 0, 81, 119
2, 9659, Note_on_c, 0, 81, 0
2, 9660, Note_on_c, 0, 84, 121
2, 9689, Note_on_c, 0, 84, 0
2, 9720, Note_on_c, 0, 84, 119
2, 9749, Note_on_c, 0, 84, 0
2, 9780, Note_on_c, 0, 84, 118
2, 9809, Note_on_c, 0, 84, 0
2, 9840, Note_on_c, 0, 84, 121
2, 9959, Note_on_c, 0, 84, 0
2, 9960, Note_on_c, 0, 82, 117
2, 9989, Note_on_c, 0, 82, 0
2, 9990, Note_on_c, 0, 81, 115
2, 10019, Note_on_c, 0, 81, 0
2, 10020, Note_on_c, 0, 79, 115
2, 10049, Note_on_c, 0, 79, 0
2, 10050, Note_on_c, 0, 77, 101
2, 10079, Note_on_c, 0, 77, 0
2, 10080, Note_on_c, 0, 76, 115
2, 10109, Note_on_c, 0, 76, 0
2, 10140, Note_on_c, 0, 77, 100
2, 10169, Note_on_c, 0, 77, 0
2, 10200, Note_on_c, 0, 79, 114
2, 10259, Note_on_c, 0, 79, 0
2, 10260, Note_on_c, 0, 81, 95
2, 10289, Note_on_c, 0, 81, 0
2, 10290, Note_on_c, 0, 79, 90
2, 10319, Note_on_c, 0, 79, 0
2, 10320, Note_on_c, 0, 77, 95
2, 10349, Note_on_c, 0, 77, 0
2, 10380, Note_on_c, 0, 79, 95
2, 10409, Note_on_c, 0, 79, 0
2, 10440, Note_on_c, 0, 81, 111
2, 10499, Note_on_c, 0, 81, 0
2, 10500, Note_on_c, 0, 82, 95
2, 10529, Note_on_c, 0, 82, 0
2, 10530, Note_on_c, 0, 81, 90
2, 10559, Note_on_c, 0, 81, 0
2, 10560, Note_on_c, 0, 79, 105
2, 10619, Note_on_c, 0, 79, 0
2, 10620, Note_on_c, 0, 82, 109
2, 10649, Note_on_c, 0, 82, 0
2, 10680, Note_on_c, 0, 82, 115
2, 10709, Note_on_c, 0, 82, 0
2, 10740, Note_on_c, 0, 82, 123
2, 10769, Note_on_c, 0, 82, 0
2, 10800, Note_on_c, 0, 82, 127
2, 10919, Note_on_c, 0, 82, 0
2, 10920, Note_on_c, 0, 84, 110
2, 10949, Note_on_c, 0, 84, 0
2, 10950, Note_on_c, 0, 82, 110
2, 10980, Note_on_c, 0, 81, 103
2, 11009, Note_on_c, 0, 81, 0
2, 11009, Note_on_c, 0, 82, 0
2, 11010, Note_on_c, 0, 79, 105
2, 11039, Note_on_c, 0, 79, 0
2, 11040, Note_on_c, 0, 81, 110
2, 11069, Note_on_c, 0, 81, 0
2, 11100, Note_on_c, 0, 82, 116
2, 11129, Note_on_c, 0, 82, 0
2, 11160, Note_on_c, 0, 84, 121
2, 11219, Note_on_c, 0, 84, 0
2, 11220, Note_on_c, 0, 86, 114
2, 11249, Note_on_c, 0, 86, 0
2, 11250, Note_on_c, 0, 84, 114
2, 11279, Note_on_c, 0, 84, 0
2, 11280, Note_on_c, 0, 82, 122
2, 11339, Note_on_c, 0, 82, 0
2, 11340, Note_on_c, 0, 84, 110
2, 11369, Note_on_c, 0, 84, 0
2, 11370, Note_on_c, 0, 82, 110
2, 11399, Note_on_c, 0, 82, 0
2, 11400, Note_on_c, 0, 79, 115
2, 11459, Note_on_c, 0, 79, 0
2, 11460, Note_on_c, 0, 84, 115
2, 11489, Note_on_c, 0, 84, 0
2, 11490, Note_on_c, 0, 82, 111
2, 11519, Note_on_c, 0, 82, 0
2, 11520, Note_on_c, 0, 81, 119
2, 11549, Note_on_c, 0, 81, 0
2, 11580, Note_on_c, 0, 82, 112
2, 11609, Note_on_c, 0, 82, 0
2, 11640, Note_on_c, 0, 84, 120
2, 11699, Note_on_c, 0, 84, 0
2, 11700, Note_on_c, 0, 86, 113
2, 11729, Note_on_c, 0, 86, 0
2, 11730, Note_on_c, 0, 84, 112
2, 11759, Note_on_c, 0, 84, 0
2, 11760, Note_on_c, 0, 82, 116
2, 11819, Note_on_c, 0, 82, 0
2, 11820, Note_on_c, 0, 84, 104
2, 11849, Note_on_c, 0, 84, 0
2, 11850, Note_on_c, 0, 82, 106
2, 11879, Note_on_c, 0, 82, 0
2, 11880, Note_on_c, 0, 79, 110
2, 11939, Note_on_c, 0, 79, 0
2, 11940, Note_on_c, 0, 84, 102
2, 11969, Note_on_c, 0, 84, 0
2, 11970, Note_on_c, 0, 82, 101
2, 11999, Note_on_c, 0, 82, 0
2, 12000, Note_on_c, 0, 81, 105
2, 12059, Note_on_c, 0, 81, 0
2, 12060, Note_on_c, 0, 84, 93
2, 12089, Note_on_c, 0, 84, 0
2, 12090, Note_on_c, 0, 82, 95
2, 12119, Note_on_c, 0, 82, 0
2, 12120, Note_on_c, 0, 79, 99
2, 12179, Note_on_c, 0, 79, 0
2, 12180, Note_on_c, 0, 84, 89
2, 12209, Note_on_c, 0, 84, 0
2, 12210, Note_on_c, 0, 82, 93
2, 12239, Note_on_c, 0, 82, 0
2, 12240, Note_on_c, 0, 81, 97
2, 12299, Note_on_c, 0, 81, 0
2, 12300, Note_on_c, 0, 84, 93
2, 12329, Note_on_c, 0, 84, 0
2, 12330, Note_on_c, 0, 82, 93
2, 12359, Note_on_c, 0, 82, 0
2, 12360, Note_on_c, 0, 79, 101
2, 12420, Note_on_c, 0, 84, 91
2, 12449, Note_on_c, 0, 84, 0
2, 12449, Note_on_c, 0, 79, 0
2, 12450, Note_on_c, 0, 82, 91
2, 12479, Note_on_c, 0, 82, 0
2, 12480, Note_on_c, 0, 81, 93
2, 12539, Note_on_c, 0, 81, 0
2, 12780, Note_on_c, 0, 65, 108
2, 12840, Note_on_c, 0, 67, 87
2, 12859, Note_on_c, 0, 65, 0
2, 12869, Note_on_c, 0, 67, 0
2, 12900, Note_on_c, 0, 70, 94
2, 12929, Note_on_c, 0, 70, 0
2, 12960, Note_on_c, 0, 69, 84
2, 12989, Note_on_c, 0, 69, 0
2, 13020, Note_on_c, 0, 74, 112
2, 13080, Note_on_c, 0, 76, 81
2, 13089, Note_on_c, 0, 74, 0
2, 13109, Note_on_c, 0, 76, 0
2, 13140, Note_on_c, 0, 79, 86
2, 13169, Note_on_c, 0, 79, 0
2, 13200, Note_on_c, 0, 77, 83
2, 13229, Note_on_c, 0, 77, 0
2, 13260, Note_on_c, 0, 77, 120
2, 13298, Channel_aftertouch_c, 0, 1
2, 13301, Channel_aftertouch_c, 0, 6
2, 13303, Channel_aftertouch_c, 0, 9
2, 13306, Channel_aftertouch_c, 0, 12
2, 13314, Channel_aftertouch_c, 0, 10
2, 13317, Channel_aftertouch_c, 0, 3
2, 13319, Channel_aftertouch_c, 0, 0
2, 13320, Note_on_c, 0, 79, 89
2, 13329, Note_on_c, 0, 77, 0
2, 13349, Note_on_c, 0, 79, 0
2, 13380, Note_on_c, 0, 82, 86
2, 13409, Note_on_c, 0, 82, 0
2, 13440, Note_on_c, 0, 81, 97
2, 13529, Note_on_c, 0, 81, 0
2, 13740, Note_on_c, 0, 65, 102
2, 13788, Channel_aftertouch_c, 0, 3
2, 13790, Channel_aftertouch_c, 0, 9
2, 13794, Channel_aftertouch_c, 0, 12
2, 13796, Channel_aftertouch_c, 0, 14
2, 13800, Note_on_c, 0, 67, 84
2, 13802, Channel_aftertouch_c, 0, 12
2, 13805, Channel_aftertouch_c, 0, 7
2, 13807, Channel_aftertouch_c, 0, 2
2, 13809, Note_on_c, 0, 65, 0
2, 13810, Channel_aftertouch_c, 0, 0
2, 13829, Note_on_c, 0, 67, 0
2, 13860, Note_on_c, 0, 70, 85
2, 13889, Note_on_c, 0, 70, 0
2, 13920, Note_on_c, 0, 69, 87
2, 13949, Note_on_c, 0, 69, 0
2, 13980, Note_on_c, 0, 74, 106
2, 14040, Note_on_c, 0, 76, 83
2, 14049, Note_on_c, 0, 74, 0
2, 14069, Note_on_c, 0, 76, 0
2, 14100, Note_on_c, 0, 79, 87
2, 14129, Note_on_c, 0, 79, 0
2, 14160, Note_on_c, 0, 77, 86
2, 14189, Note_on_c, 0, 77, 0
2, 14220, Note_on_c, 0, 77, 114
2, 14242, Channel_aftertouch_c, 0, 3
2, 14246, Channel_aftertouch_c, 0, 8
2, 14248, Channel_aftertouch_c, 0, 12
2, 14252, Channel_aftertouch_c, 0, 17
2, 14254, Channel_aftertouch_c, 0, 22
2, 14257, Channel_aftertouch_c, 0, 24
2, 14265, Channel_aftertouch_c, 0, 21
2, 14269, Channel_aftertouch_c, 0, 16
2, 14271, Channel_aftertouch_c, 0, 8
2, 14273, Channel_aftertouch_c, 0, 2
2, 14276, Channel_aftertouch_c, 0, 0
2, 14280, Note_on_c, 0, 79, 80
2, 14289, Note_on_c, 0, 77, 0
2, 14309, Note_on_c, 0, 79, 0
2, 14340, Note_on_c, 0, 82, 92
2, 14369, Note_on_c, 0, 82, 0
2, 14400, Note_on_c, 0, 81, 88
2, 14489, Note_on_c, 0, 81, 0
2, 14700, Note_on_c, 0, 77, 103
2, 14712, Channel_aftertouch_c, 0, 6
2, 14714, Channel_aftertouch_c, 0, 13
2, 14717, Channel_aftertouch_c, 0, 21
2, 14720, Channel_aftertouch_c, 0, 27
2, 14723, Channel_aftertouch_c, 0, 33
2, 14726, Channel_aftertouch_c, 0, 37
2, 14728, Channel_aftertouch_c, 0, 42
2, 14730, Channel_aftertouch_c, 0, 45
2, 14740, Channel_aftertouch_c, 0, 41
2, 14742, Channel_aftertouch_c, 0, 33
2, 14745, Channel_aftertouch_c, 0, 23
2, 14747, Channel_aftertouch_c, 0, 13
2, 14750, Channel_aftertouch_c, 0, 7
2, 14753, Channel_aftertouch_c, 0, 1
2, 14756, Channel_aftertouch_c, 0, 0
2, 14760, Note_on_c, 0, 79, 86
2, 14789, Note_on_c, 0, 79, 0
2, 14789, Note_on_c, 0, 77, 0
2, 14820, Note_on_c, 0, 81, 83
2, 14849, Note_on_c, 0, 81, 0
2, 14880, Note_on_c, 0, 79, 95
2, 14969, Note_on_c, 0, 79, 0
2, 15180, Note_on_c, 0, 78, 86
2, 15207, Channel_aftertouch_c, 0, 3
2, 15211, Channel_aftertouch_c, 0, 8
2, 15212, Channel_aftertouch_c, 0, 13
2, 15216, Channel_aftertouch_c, 0, 18
2, 15218, Channel_aftertouch_c, 0, 22
2, 15222, Channel_aftertouch_c, 0, 25
2, 15224, Channel_aftertouch_c, 0, 27
2, 15226, Channel_aftertouch_c, 0, 29
2, 15232, Channel_aftertouch_c, 0, 27
2, 15235, Channel_aftertouch_c, 0, 24
2, 15238, Channel_aftertouch_c, 0, 18
2, 15240, Note_on_c, 0, 79, 78
2, 15241, Channel_aftertouch_c, 0, 11
2, 15243, Channel_aftertouch_c, 0, 4
2, 15246, Channel_aftertouch_c, 0, 0
2, 15269, Note_on_c, 0, 79, 0
2, 15269, Note_on_c, 0, 78, 0
2, 15300, Note_on_c, 0, 81, 74
2, 15329, Note_on_c, 0, 81, 0
2, 15360, Note_on_c, 0, 79, 86
2, 15389, Note_on_c, 0, 79, 0
2, 15420, Note_on_c, 0, 78, 92
2, 15452, Channel_aftertouch_c, 0, 3
2, 15454, Channel_aftertouch_c, 0, 10
2, 15457, Channel_aftertouch_c, 0, 18
2, 15460, Channel_aftertouch_c, 0, 26
2, 15463, Channel_aftertouch_c, 0, 33
2, 15465, Channel_aftertouch_c, 0, 38
2, 15468, Channel_aftertouch_c, 0, 42
2, 15476, Channel_aftertouch_c, 0, 38
2, 15479, Channel_aftertouch_c, 0, 31
2, 15480, Note_on_c, 0, 79, 84
2, 15481, Channel_aftertouch_c, 0, 24
2, 15485, Channel_aftertouch_c, 0, 15
2, 15487, Channel_aftertouch_c, 0, 7
2, 15490, Channel_aftertouch_c, 0, 2
2, 15493, Channel_aftertouch_c, 0, 0
2, 15509, Note_on_c, 0, 79, 0
2, 15509, Note_on_c, 0, 78, 0
2, 15540, Note_on_c, 0, 81, 83
2, 15569, Note_on_c, 0, 81, 0
2, 15600, Note_on_c, 0, 79, 86
2, 15629, Note_on_c, 0, 79, 0
2, 15660, Note_on_c, 0, 78, 121
2, 15696, Channel_aftertouch_c, 0, 2
2, 15698, Channel_aftertouch_c, 0, 9
2, 15701, Channel_aftertouch_c, 0, 16
2, 15703, Channel_aftertouch_c, 0, 22
2, 15707, Channel_aftertouch_c, 0, 28
2, 15709, Channel_aftertouch_c, 0, 32
2, 15711, Channel_aftertouch_c, 0, 33
2, 15717, Channel_aftertouch_c, 0, 28
2, 15720, Note_on_c, 0, 79, 113
2, 15720, Channel_aftertouch_c, 0, 21
2, 15723, Channel_aftertouch_c, 0, 12
2, 15726, Channel_aftertouch_c, 0, 6
2, 15729, Channel_aftertouch_c, 0, 1
2, 15730, Channel_aftertouch_c, 0, 0
2, 15749, Note_on_c, 0, 79, 0
2, 15749, Note_on_c, 0, 78, 0
2, 15780, Note_on_c, 0, 81, 117
2, 15809, Note_on_c, 0, 81, 0
2, 15840, Note_on_c, 0, 79, 127
2, 15900, Note_on_c, 0, 77, 127
2, 15929, Note_on_c, 0, 79, 0
2, 15959, Note_on_c, 0, 77, 0
2, 15960, Note_on_c, 0, 74, 122
2, 16019, Note_on_c, 0, 74, 0
2, 16020, Note_on_c, 0, 71, 114
2, 16079, Note_on_c, 0, 71, 0
2, 16080, Note_on_c, 0, 67, 122
2, 16140, Note_on_c, 0, 74, 126
2, 16169, Note_on_c, 0, 67, 0
2, 16199, Note_on_c, 0, 74, 0
2, 16200, Note_on_c, 0, 71, 122
2, 16259, Note_on_c, 0, 71, 0
2, 16260, Note_on_c, 0, 67, 114
2, 16319, Note_on_c, 0, 67, 0
2, 16320, Note_on_c, 0, 81, 127
2, 16380, Note_on_c, 0, 79, 127
2, 16409, Note_on_c, 0, 81, 0
2, 16439, Note_on_c, 0, 79, 0
2, 16440, Note_on_c, 0, 76, 114
2, 16499, Note_on_c, 0, 76, 0
2, 16500, Note_on_c, 0, 72, 108
2, 16559, Note_on_c, 0, 72, 0
2, 16560, Note_on_c, 0, 67, 119
2, 16619, Note_on_c, 0, 67, 0
2, 16620, Note_on_c, 0, 76, 126
2, 16679, Note_on_c, 0, 76, 0
2, 16680, Note_on_c, 0, 72, 121
2, 16739, Note_on_c, 0, 72, 0
2, 16740, Note_on_c, 0, 67, 105
2, 16799, Note_on_c, 0, 67, 0
2, 16804, Note_on_c, 0, 62, 82
2, 16860, Note_on_c, 0, 55, 75
2, 16870, Note_on_c, 0, 62, 0
2, 16920, Note_on_c, 0, 62, 74
2, 16928, Note_on_c, 0, 55, 0
2, 16977, Note_on_c, 0, 62, 0
2, 16980, Note_on_c, 0, 55, 74
2, 17040, Note_on_c, 0, 62, 74
2, 17052, Note_on_c, 0, 55, 0
2, 17100, Note_on_c, 0, 55, 73
2, 17103, Note_on_c, 0, 62, 0
2, 17160, Note_on_c, 0, 62, 72
2, 17165, Note_on_c, 0, 55, 0
2, 17216, Note_on_c, 0, 62, 0
2, 17220, Note_on_c, 0, 55, 72
2, 17282, Note_on_c, 0, 64, 72
2, 17288, Note_on_c, 0, 55, 0
2, 17340, Note_on_c, 0, 55, 70
2, 17358, Note_on_c, 0, 64, 0
2, 17400, Note_on_c, 0, 64, 75
2, 17404, Note_on_c, 0, 55, 0
2, 17456, Note_on_c, 0, 64, 0
2, 17460, Note_on_c, 0, 55, 74
2, 17520, Note_on_c, 0, 64, 72
2, 17525, Note_on_c, 0, 55, 0
2, 17570, Note_on_c, 0, 64, 0
2, 17580, Note_on_c, 0, 55, 72
2, 17640, Note_on_c, 0, 64, 73
2, 17650, Note_on_c, 0, 55, 0
2, 17700, Note_on_c, 0, 55, 80
2, 17700, Note_on_c, 0, 64, 0
2, 17761, Note_on_c, 0, 67, 127
2, 17770, Control_c, 0, 7, 81
2, 17774, Note_on_c, 0, 55, 0
2, 17780, Control_c, 0, 7, 82
2, 17790, Control_c, 0, 7, 86
2, 17800, Control_c, 0, 7, 90
2, 17810, Control_c, 0, 7, 93
2, 17820, Control_c, 0, 7, 96
2, 17830, Control_c, 0, 7, 98
2, 17840, Control_c, 0, 7, 100
2, 17850, Control_c, 0, 7, 102
2, 17860, Control_c, 0, 7, 104
2, 17870, Control_c, 0, 7, 107
2, 17880, Control_c, 0, 7, 109
2, 17890, Control_c, 0, 7, 111
2, 17900, Control_c, 0, 7, 114
2, 17910, Control_c, 0, 7, 117
2, 17920, Control_c, 0, 7, 120
2, 17930, Control_c, 0, 7, 121
2, 17940, Control_c, 0, 7, 123
2, 17950, Control_c, 0, 7, 124
2, 17960, Control_c, 0, 7, 125
2, 17970, Control_c, 0, 7, 126
2, 18030, Control_c, 0, 7, 125
2, 18040, Control_c, 0, 7, 124
2, 18060, Control_c, 0, 7, 122
2, 18080, Control_c, 0, 7, 120
2, 18100, Control_c, 0, 7, 118
2, 18110, Control_c, 0, 7, 116
2, 18120, Control_c, 0, 7, 114
2, 18130, Control_c, 0, 7, 112
2, 18140, Control_c, 0, 7, 109
2, 18150, Control_c, 0, 7, 103
2, 18160, Control_c, 0, 7, 100
2, 18170, Control_c, 0, 7, 97
2, 18180, Control_c, 0, 7, 94
2, 18190, Control_c, 0, 7, 88
2, 18200, Control_c, 0, 7, 84
2, 18210, Control_c, 0, 7, 83
2, 18220, Control_c, 0, 7, 82
2, 18230, Control_c, 0, 7, 80
2, 18238, Note_on_c, 0, 72, 127
2, 18240, Control_c, 0, 7, 81
2, 18245, Note_on_c, 0, 67, 0
2, 18250, Control_c, 0, 7, 85
2, 18260, Control_c, 0, 7, 88
2, 18270, Control_c, 0, 7, 92
2, 18290, Control_c, 0, 7, 94
2, 18300, Control_c, 0, 7, 98
2, 18310, Control_c, 0, 7, 104
2, 18320, Control_c, 0, 7, 109
2, 18330, Control_c, 0, 7, 113
2, 18340, Control_c, 0, 7, 116
2, 18350, Control_c, 0, 7, 118
2, 18360, Control_c, 0, 7, 120
2, 18380, Control_c, 0, 7, 122
2, 18400, Control_c, 0, 7, 123
2, 18410, Control_c, 0, 7, 124
2, 18440, Control_c, 0, 7, 125
2, 18450, Control_c, 0, 7, 126
2, 18460, Control_c, 0, 7, 124
2, 18470, Control_c, 0, 7, 127
2, 18500, Control_c, 0, 7, 126
2, 18520, Control_c, 0, 7, 124
2, 18540, Control_c, 0, 7, 123
2, 18550, Control_c, 0, 7, 122
2, 18560, Control_c, 0, 7, 120
2, 18570, Control_c, 0, 7, 119
2, 18580, Control_c, 0, 7, 118
2, 18590, Control_c, 0, 7, 116
2, 18600, Control_c, 0, 7, 115
2, 18610, Control_c, 0, 7, 114
2, 18620, Control_c, 0, 7, 111
2, 18630, Control_c, 0, 7, 108
2, 18640, Control_c, 0, 7, 106
2, 18650, Control_c, 0, 7, 103
2, 18660, Control_c, 0, 7, 100
2, 18670, Control_c, 0, 7, 94
2, 18680, Control_c, 0, 7, 84
2, 18690, Control_c, 0, 7, 82
2, 18700, Control_c, 0, 7, 79
2, 18710, Control_c, 0, 7, 78
2, 18720, Note_on_c, 0, 71, 112
2, 18727, Note_on_c, 0, 72, 0
2, 18814, Note_on_c, 0, 71, 0
2, 18840, Note_on_c, 0, 71, 96
2, 18942, Note_on_c, 0, 71, 0
2, 18960, Note_on_c, 0, 71, 98
2, 19080, Note_on_c, 0, 74, 113
2, 19084, Note_on_c, 0, 71, 0
2, 19132, Note_on_c, 0, 71, 106
2, 19135, Note_on_c, 0, 74, 0
2, 19200, Note_on_c, 0, 72, 122
2, 19203, Note_on_c, 0, 71, 0
2, 19287, Note_on_c, 0, 72, 0
2, 19320, Note_on_c, 0, 72, 109
2, 19424, Note_on_c, 0, 72, 0
2, 19440, Note_on_c, 0, 72, 121
2, 19560, Note_on_c, 0, 76, 115
2, 19574, Note_on_c, 0, 72, 0
2, 19614, Note_on_c, 0, 76, 0
2, 19620, Note_on_c, 0, 72, 107
2, 19680, Note_on_c, 0, 79, 90
2, 19693, Note_on_c, 0, 72, 0
2, 19719, Note_on_c, 0, 79, 0
2, 19720, Note_on_c, 0, 81, 89
2, 19759, Note_on_c, 0, 81, 0
2, 19760, Note_on_c, 0, 79, 87
2, 19799, Note_on_c, 0, 79, 0
2, 19800, Note_on_c, 0, 81, 88
2, 19839, Note_on_c, 0, 81, 0
2, 19840, Note_on_c, 0, 79, 88
2, 19879, Note_on_c, 0, 79, 0
2, 19880, Note_on_c, 0, 81, 88
2, 19919, Note_on_c, 0, 81, 0
2, 19920, Note_on_c, 0, 79, 86
2, 19959, Note_on_c, 0, 79, 0
2, 19960, Note_on_c, 0, 81, 85
2, 19999, Note_on_c, 0, 81, 0
2, 20000, Note_on_c, 0, 79, 82
2, 20039, Note_on_c, 0, 79, 0
2, 20040, Note_on_c, 0, 81, 80
2, 20079, Note_on_c, 0, 81, 0
2, 20080, Note_on_c, 0, 79, 80
2, 20119, Note_on_c, 0, 79, 0
2, 20120, Note_on_c, 0, 81, 82
2, 20159, Note_on_c, 0, 81, 0
2, 20160, Note_on_c, 0, 79, 84
2, 20199, Note_on_c, 0, 79, 0
2, 20200, Note_on_c, 0, 81, 81
2, 20239, Note_on_c, 0, 81, 0
2, 20240, Note_on_c, 0, 79, 78
2, 20279, Note_on_c, 0, 79, 0
2, 20280, Note_on_c, 0, 81, 79
2, 20319, Note_on_c, 0, 81, 0
2, 20320, Note_on_c, 0, 79, 80
2, 20359, Note_on_c, 0, 79, 0
2, 20360, Note_on_c, 0, 81, 78
2, 20399, Note_on_c, 0, 81, 0
2, 20400, Note_on_c, 0, 79, 76
2, 20439, Note_on_c, 0, 79, 0
2, 20440, Note_on_c, 0, 81, 69
2, 20479, Note_on_c, 0, 81, 0
2, 20480, Note_on_c, 0, 79, 71
2, 20519, Note_on_c, 0, 79, 0
2, 20520, Note_on_c, 0, 81, 74
2, 20559, Note_on_c, 0, 81, 0
2, 20560, Note_on_c, 0, 79, 71
2, 20599, Note_on_c, 0, 79, 0
2, 20600, Note_on_c, 0, 81, 67
2, 20639, Note_on_c, 0, 81, 0
2, 20640, Note_on_c, 0, 79, 82
2, 20669, Note_on_c, 0, 79, 0
2, 20670, Note_on_c, 0, 81, 86
2, 20699, Note_on_c, 0, 81, 0
2, 20700, Note_on_c, 0, 79, 72
2, 20729, Note_on_c, 0, 79, 0
2, 20730, Note_on_c, 0, 81, 78
2, 20759, Note_on_c, 0, 81, 0
2, 20760, Note_on_c, 0, 79, 72
2, 20789, Note_on_c, 0, 79, 0
2, 20790, Note_on_c, 0, 81, 78
2, 20819, Note_on_c, 0, 81, 0
2, 20820, Note_on_c, 0, 79, 60
2, 20849, Note_on_c, 0, 79, 0
2, 20850, Note_on_c, 0, 81, 74
2, 20879, Note_on_c, 0, 81, 0
2, 20880, Note_on_c, 0, 79, 74
2, 20909, Note_on_c, 0, 79, 0
2, 20910, Note_on_c, 0, 81, 82
2, 20939, Note_on_c, 0, 81, 0
2, 20940, Note_on_c, 0, 79, 69
2, 20969, Note_on_c, 0, 79, 0
2, 20970, Note_on_c, 0, 81, 71
2, 20999, Note_on_c, 0, 81, 0
2, 21000, Note_on_c, 0, 79, 74
2, 21029, Note_on_c, 0, 79, 0
2, 21030, Note_on_c, 0, 81, 67
2, 21059, Note_on_c, 0, 81, 0
2, 21060, Note_on_c, 0, 79, 57
2, 21089, Note_on_c, 0, 79, 0
2, 21090, Note_on_c, 0, 81, 78
2, 21119, Note_on_c, 0, 81, 0
2, 21120, Note_on_c, 0, 79, 74
2, 21149, Note_on_c, 0, 79, 0
2, 21150, Note_on_c, 0, 81, 74
2, 21179, Note_on_c, 0, 81, 0
2, 21180, Note_on_c, 0, 79, 64
2, 21209, Note_on_c, 0, 79, 0
2, 21210, Note_on_c, 0, 81, 78
2, 21239, Note_on_c, 0, 81, 0
2, 21240, Note_on_c, 0, 79, 64
2, 21269, Note_on_c, 0, 79, 0
2, 21270, Note_on_c, 0, 81, 64
2, 21299, Note_on_c, 0, 81, 0
2, 21300, Note_on_c, 0, 79, 60
2, 21329, Note_on_c, 0, 79, 0
2, 21330, Note_on_c, 0, 81, 70
2, 21359, Note_on_c, 0, 81, 0
2, 21360, Note_on_c, 0, 79, 60
2, 21389, Note_on_c, 0, 79, 0
2, 21390, Note_on_c, 0, 81, 78
2, 21419, Note_on_c, 0, 81, 0
2, 21420, Note_on_c, 0, 79, 61
2, 21449, Note_on_c, 0, 79, 0
2, 21450, Note_on_c, 0, 81, 63
2, 21479, Note_on_c, 0, 81, 0
2, 21480, Note_on_c, 0, 79, 64
2, 21509, Note_on_c, 0, 79, 0
2, 21510, Note_on_c, 0, 81, 74
2, 21539, Note_on_c, 0, 81, 0
2, 21540, Note_on_c, 0, 79, 64
2, 21569, Note_on_c, 0, 79, 0
2, 21570, Note_on_c, 0, 81, 78
2, 21599, Note_on_c, 0, 81, 0
2, 21600, Note_on_c, 0, 79, 82
2, 21629, Note_on_c, 0, 79, 0
2, 21630, Note_on_c, 0, 81, 70
2, 21659, Note_on_c, 0, 81, 0
2, 21660, Note_on_c, 0, 79, 82
2, 21689, Note_on_c, 0, 79, 0
2, 21690, Note_on_c, 0, 81, 90
2, 21719, Note_on_c, 0, 81, 0
2, 21720, Note_on_c, 0, 79, 74
2, 21749, Note_on_c, 0, 79, 0
2, 21750, Note_on_c, 0, 81, 78
2, 21779, Note_on_c, 0, 81, 0
2, 21780, Note_on_c, 0, 79, 74
2, 21809, Note_on_c, 0, 79, 0
2, 21810, Note_on_c, 0, 81, 82
2, 21839, Note_on_c, 0, 81, 0
2, 21840, Note_on_c, 0, 79, 82
2, 21869, Note_on_c, 0, 79, 0
2, 21870, Note_on_c, 0, 81, 70
2, 21899, Note_on_c, 0, 81, 0
2, 21900, Note_on_c, 0, 79, 82
2, 21929, Note_on_c, 0, 79, 0
2, 21930, Note_on_c, 0, 81, 90
2, 21959, Note_on_c, 0, 81, 0
2, 21960, Note_on_c, 0, 79, 74
2, 21989, Note_on_c, 0, 79, 0
2, 21990, Note_on_c, 0, 81, 78
2, 22019, Note_on_c, 0, 81, 0
2, 22020, Note_on_c, 0, 79, 74
2, 22049, Note_on_c, 0, 79, 0
2, 22050, Note_on_c, 0, 81, 82
2, 22079, Note_on_c, 0, 81, 0
2, 22080, Note_on_c, 0, 79, 100
2, 22108, Channel_aftertouch_c, 0, 1
2, 22111, Channel_aftertouch_c, 0, 5
2, 22113, Channel_aftertouch_c, 0, 7
2, 22117, Channel_aftertouch_c, 0, 9
2, 22119, Channel_aftertouch_c, 0, 12
2, 22122, Channel_aftertouch_c, 0, 14
2, 22127, Channel_aftertouch_c, 0, 17
2, 22136, Channel_aftertouch_c, 0, 20
2, 22144, Channel_aftertouch_c, 0, 22
2, 22165, Channel_aftertouch_c, 0, 20
2, 22174, Channel_aftertouch_c, 0, 18
2, 22180, Channel_aftertouch_c, 0, 16
2, 22185, Channel_aftertouch_c, 0, 14
2, 22187, Channel_aftertouch_c, 0, 12
2, 22193, Channel_aftertouch_c, 0, 10
2, 22196, Channel_aftertouch_c, 0, 7
2, 22199, Channel_aftertouch_c, 0, 3
2, 22201, Channel_aftertouch_c, 0, 0
2, 22260, Note_on_c, 0, 81, 100
2, 22289, Note_on_c, 0, 81, 0
2, 22289, Note_on_c, 0, 79, 0
2, 22290, Note_on_c, 0, 83, 100
2, 22319, Note_on_c, 0, 83, 0
2, 22320, Note_on_c, 0, 84, 105
2, 22379, Note_on_c, 0, 84, 0
2, 22380, Note_on_c, 0, 83, 98
2, 22409, Note_on_c, 0, 83, 0
2, 22410, Note_on_c, 0, 81, 97
2, 22439, Note_on_c, 0, 81, 0
2, 22440, Note_on_c, 0, 79, 95
2, 22500, Note_on_c, 0, 81, 110
2, 22529, Note_on_c, 0, 81, 0
2, 22529, Note_on_c, 0, 79, 0
2, 22530, Note_on_c, 0, 83, 100
2, 22559, Note_on_c, 0, 83, 0
2, 22560, Note_on_c, 0, 84, 105
2, 22620, Note_on_c, 0, 83, 95
2, 22649, Note_on_c, 0, 83, 0
2, 22649, Note_on_c, 0, 84, 0
2, 22650, Note_on_c, 0, 81, 96
2, 22679, Note_on_c, 0, 81, 0
2, 22680, Note_on_c, 0, 79, 100
2, 22740, Note_on_c, 0, 81, 110
2, 22769, Note_on_c, 0, 81, 0
2, 22769, Note_on_c, 0, 79, 0
2, 22770, Note_on_c, 0, 83, 95
2, 22799, Note_on_c, 0, 83, 0
2, 22800, Note_on_c, 0, 84, 92
2, 22859, Note_on_c, 0, 84, 0
2, 23040, Note_on_c, 0, 69, 80
2, 23099, Note_on_c, 0, 69, 0
2, 23100, Note_on_c, 0, 72, 60
2, 23159, Note_on_c, 0, 72, 0
2, 23160, Note_on_c, 0, 69, 60
2, 23219, Note_on_c, 0, 69, 0
2, 23220, Note_on_c, 0, 72, 73
2, 23279, Note_on_c, 0, 72, 0
2, 23280, Note_on_c, 0, 67, 57
2, 23339, Note_on_c, 0, 67, 0
2, 23340, Note_on_c, 0, 72, 60
2, 23399, Note_on_c, 0, 72, 0
2, 23400, Note_on_c, 0, 67, 60
2, 23459, Note_on_c, 0, 67, 0
2, 23460, Note_on_c, 0, 72, 57
2, 23519, Note_on_c, 0, 72, 0
2, 23520, Note_on_c, 0, 67, 60
2, 23579, Note_on_c, 0, 67, 0
2, 23580, Note_on_c, 0, 71, 55
2, 23639, Note_on_c, 0, 71, 0
2, 23640, Note_on_c, 0, 67, 57
2, 23699, Note_on_c, 0, 67, 0
2, 23700, Note_on_c, 0, 71, 60
2, 23759, Note_on_c, 0, 71, 0
2, 23760, Note_on_c, 0, 79, 100
2, 23788, Channel_aftertouch_c, 0, 1
2, 23791, Channel_aftertouch_c, 0, 5
2, 23793, Channel_aftertouch_c, 0, 7
2, 23797, Channel_aftertouch_c, 0, 9
2, 23799, Channel_aftertouch_c, 0, 12
2, 23802, Channel_aftertouch_c, 0, 14
2, 23807, Channel_aftertouch_c, 0, 17
2, 23816, Channel_aftertouch_c, 0, 20
2, 23824, Channel_aftertouch_c, 0, 22
2, 23845, Channel_aftertouch_c, 0, 20
2, 23854, Channel_aftertouch_c, 0, 18
2, 23860, Channel_aftertouch_c, 0, 16
2, 23865, Channel_aftertouch_c, 0, 14
2, 23867, Channel_aftertouch_c, 0, 12
2, 23873, Channel_aftertouch_c, 0, 10
2, 23876, Channel_aftertouch_c, 0, 7
2, 23879, Channel_aftertouch_c, 0, 3
2, 23881, Channel_aftertouch_c, 0, 0
2, 23940, Note_on_c, 0, 81, 100
2, 23969, Note_on_c, 0, 81, 0
2, 23969, Note_on_c, 0, 79, 0
2, 23970, Note_on_c, 0, 83, 100
2, 23999, Note_on_c, 0, 83, 0
2, 24000, Note_on_c, 0, 84, 105
2, 24059, Note_on_c, 0, 84, 0
2, 24060, Note_on_c, 0, 83, 96
2, 24089, Note_on_c, 0, 83, 0
2, 24090, Note_on_c, 0, 81, 97
2, 24119, Note_on_c, 0, 81, 0
2, 24120, Note_on_c, 0, 79, 108
2, 24180, Note_on_c, 0, 81, 110
2, 24209, Note_on_c, 0, 81, 0
2, 24209, Note_on_c, 0, 79, 0
2, 24210, Note_on_c, 0, 83, 100
2, 24239, Note_on_c, 0, 83, 0
2, 24240, Note_on_c, 0, 84, 111
2, 24300, Note_on_c, 0, 83, 92
2, 24329, Note_on_c, 0, 83, 0
2, 24329, Note_on_c, 0, 84, 0
2, 24330, Note_on_c, 0, 81, 95
2, 24359, Note_on_c, 0, 81, 0
2, 24360, Note_on_c, 0, 79, 100
2, 24420, Note_on_c, 0, 81, 110
2, 24449, Note_on_c, 0, 81, 0
2, 24449, Note_on_c, 0, 79, 0
2, 24450, Note_on_c, 0, 83, 104
2, 24479, Note_on_c, 0, 83, 0
2, 24480, Note_on_c, 0, 84, 96
2, 24539, Note_on_c, 0, 84, 0
2, 24720, Note_on_c, 0, 69, 67
2, 24779, Note_on_c, 0, 69, 0
2, 24780, Note_on_c, 0, 72, 60
2, 24839, Note_on_c, 0, 72, 0
2, 24840, Note_on_c, 0, 69, 60
2, 24899, Note_on_c, 0, 69, 0
2, 24900, Note_on_c, 0, 72, 65
2, 24959, Note_on_c, 0, 72, 0
2, 24960, Note_on_c, 0, 67, 57
2, 25019, Note_on_c, 0, 67, 0
2, 25020, Note_on_c, 0, 72, 60
2, 25079, Note_on_c, 0, 72, 0
2, 25080, Note_on_c, 0, 67, 60
2, 25139, Note_on_c, 0, 67, 0
2, 25140, Note_on_c, 0, 72, 57
2, 25199, Note_on_c, 0, 72, 0
2, 25200, Note_on_c, 0, 67, 60
2, 25259, Note_on_c, 0, 67, 0
2, 25260, Note_on_c, 0, 71, 55
2, 25319, Note_on_c, 0, 71, 0
2, 25320, Note_on_c, 0, 67, 57
2, 25379, Note_on_c, 0, 67, 0
2, 25380, Note_on_c, 0, 71, 60
2, 25439, Note_on_c, 0, 71, 0
2, 25440, Note_on_c, 0, 67, 64
2, 25499, Note_on_c, 0, 67, 0
2, 25500, Note_on_c, 0, 72, 64
2, 25559, Note_on_c, 0, 72, 0
2, 25560, Note_on_c, 0, 72, 64
2, 25619, Note_on_c, 0, 72, 0
2, 25620, Note_on_c, 0, 72, 64
2, 25679, Note_on_c, 0, 72, 0
2, 25680, Note_on_c, 0, 69, 67
2, 25739, Note_on_c, 0, 69, 0
2, 25740, Note_on_c, 0, 72, 67
2, 25799, Note_on_c, 0, 72, 0
2, 25800, Note_on_c, 0, 69, 70
2, 25859, Note_on_c, 0, 69, 0
2, 25860, Note_on_c, 0, 72, 66
2, 25919, Note_on_c, 0, 72, 0
2, 25920, Note_on_c, 0, 67, 66
2, 25979, Note_on_c, 0, 67, 0
2, 25980, Note_on_c, 0, 72, 66
2, 26039, Note_on_c, 0, 72, 0
2, 26040, Note_on_c, 0, 67, 64
2, 26099, Note_on_c, 0, 67, 0
2, 26100, Note_on_c, 0, 72, 66
2, 26159, Note_on_c, 0, 72, 0
2, 26160, Note_on_c, 0, 67, 66
2, 26219, Note_on_c, 0, 67, 0
2, 26220, Note_on_c, 0, 71, 66
2, 26279, Note_on_c, 0, 71, 0
2, 26280, Note_on_c, 0, 67, 66
2, 26339, Note_on_c, 0, 67, 0
2, 26340, Note_on_c, 0, 71, 62
2, 26399, Note_on_c, 0, 71, 0
2, 26400, Note_on_c, 0, 72, 116
2, 26439, Note_on_c, 0, 72, 0
2, 26440, Note_on_c, 0, 84, 110
2, 26479, Note_on_c, 0, 84, 0
2, 26480, Note_on_c, 0, 84, 116
2, 26519, Note_on_c, 0, 84, 0
2, 26520, Note_on_c, 0, 84, 127
2, 26559, Note_on_c, 0, 84, 0
2, 26560, Note_on_c, 0, 84, 116
2, 26599, Note_on_c, 0, 84, 0
2, 26600, Note_on_c, 0, 84, 110
2, 26639, Note_on_c, 0, 84, 0
2, 26640, Note_on_c, 0, 84, 127
2, 26679, Note_on_c, 0, 84, 0
2, 26680, Note_on_c, 0, 72, 115
2, 26719, Note_on_c, 0, 72, 0
2, 26720, Note_on_c, 0, 84, 122
2, 26759, Note_on_c, 0, 84, 0
2, 26760, Note_on_c, 0, 72, 116
2, 26799, Note_on_c, 0, 72, 0
2, 26800, Note_on_c, 0, 83, 116
2, 26839, Note_on_c, 0, 83, 0
2, 26840, Note_on_c, 0, 81, 105
2, 26879, Note_on_c, 0, 81, 0
2, 26880, Note_on_c, 0, 79, 127
2, 26919, Note_on_c, 0, 79, 0
2, 26920, Note_on_c, 0, 67, 90
2, 26959, Note_on_c, 0, 67, 0
2, 26960, Note_on_c, 0, 79, 116
2, 26999, Note_on_c, 0, 79, 0
2, 27000, Note_on_c, 0, 67, 105
2, 27039, Note_on_c, 0, 67, 0
2, 27040, Note_on_c, 0, 77, 116
2, 27079, Note_on_c, 0, 77, 0
2, 27080, Note_on_c, 0, 76, 105
2, 27119, Note_on_c, 0, 76, 0
2, 27120, Note_on_c, 0, 74, 127
2, 27159, Note_on_c, 0, 74, 0
2, 27160, Note_on_c, 0, 65, 86
2, 27199, Note_on_c, 0, 65, 0
2, 27200, Note_on_c, 0, 74, 122
2, 27239, Note_on_c, 0, 74, 0
2, 27240, Note_on_c, 0, 65, 90
2, 27279, Note_on_c, 0, 65, 0
2, 27280, Note_on_c, 0, 72, 105
2, 27319, Note_on_c, 0, 72, 0
2, 27320, Note_on_c, 0, 74, 100
2, 27359, Note_on_c, 0, 74, 0
2, 27360, Note_on_c, 0, 72, 122
2, 27539, Note_on_c, 0, 72, 0
2, 27540, Note_on_c, 0, 76, 120
2, 27569, Note_on_c, 0, 76, 0
2, 27570, Note_on_c, 0, 74, 112
2, 27599, Note_on_c, 0, 74, 0
2, 27600, Note_on_c, 0, 72, 118
2, 27629, Note_on_c, 0, 72, 0
2, 27660, Note_on_c, 0, 76, 122
2, 27689, Note_on_c, 0, 76, 0
2, 27690, Note_on_c, 0, 74, 117
2, 27719, Note_on_c, 0, 74, 0
2, 27720, Note_on_c, 0, 72, 123
2, 27749, Note_on_c, 0, 72, 0
2, 27780, Note_on_c, 0, 81, 116
2, 27809, Note_on_c, 0, 81, 0
2, 27810, Note_on_c, 0, 78, 112
2, 27839, Note_on_c, 0, 78, 0
2, 27840, Note_on_c, 0, 79, 123
2, 27989, Note_on_c, 0, 79, 0
2, 28020, Note_on_c, 0, 81, 115
2, 28049, Note_on_c, 0, 81, 0
2, 28050, Note_on_c, 0, 79, 109
2, 28079, Note_on_c, 0, 79, 0
2, 28080, Note_on_c, 0, 76, 120
2, 28109, Note_on_c, 0, 76, 0
2, 28140, Note_on_c, 0, 79, 115
2, 28169, Note_on_c, 0, 79, 0
2, 28170, Note_on_c, 0, 77, 105
2, 28199, Note_on_c, 0, 77, 0
2, 28200, Note_on_c, 0, 74, 120
2, 28229, Note_on_c, 0, 74, 0
2, 28260, Note_on_c, 0, 77, 118
2, 28289, Note_on_c, 0, 77, 0
2, 28290, Note_on_c, 0, 76, 113
2, 28319, Note_on_c, 0, 76, 0
2, 28320, Note_on_c, 0, 72, 122
2, 28469, Note_on_c, 0, 72, 0
2, 28500, Note_on_c, 0, 76, 114
2, 28529, Note_on_c, 0, 76, 0
2, 28530, Note_on_c, 0, 74, 108
2, 28559, Note_on_c, 0, 74, 0
2, 28560, Note_on_c, 0, 72, 123
2, 28589, Note_on_c, 0, 72, 0
2, 28620, Note_on_c, 0, 76, 114
2, 28649, Note_on_c, 0, 76, 0
2, 28650, Note_on_c, 0, 74, 106
2, 28679, Note_on_c, 0, 74, 0
2, 28680, Note_on_c, 0, 72, 120
2, 28709, Note_on_c, 0, 72, 0
2, 28740, Note_on_c, 0, 81, 112
2, 28769, Note_on_c, 0, 81, 0
2, 28770, Note_on_c, 0, 78, 110
2, 28799, Note_on_c, 0, 78, 0
2, 28800, Note_on_c, 0, 79, 124
2, 28919, Note_on_c, 0, 79, 0
2, 28980, Note_on_c, 0, 81, 123
2, 29009, Note_on_c, 0, 81, 0
2, 29010, Note_on_c, 0, 79, 107
2, 29039, Note_on_c, 0, 79, 0
2, 29040, Note_on_c, 0, 76, 120
2, 29069, Note_on_c, 0, 76, 0
2, 29100, Note_on_c, 0, 79, 124
2, 29129, Note_on_c, 0, 79, 0
2, 29130, Note_on_c, 0, 77, 108
2, 29159, Note_on_c, 0, 77, 0
2, 29160, Note_on_c, 0, 74, 119
2, 29189, Note_on_c, 0, 74, 0
2, 29220, Note_on_c, 0, 77, 116
2, 29249, Note_on_c, 0, 77, 0
2, 29250, Note_on_c, 0, 76, 108
2, 29279, Note_on_c, 0, 76, 0
2, 29280, Note_on_c, 0, 72, 118
2, 29339, Note_on_c, 0, 72, 0
2, 29340, Note_on_c, 0, 79, 109
2, 29369, Note_on_c, 0, 79, 0
2, 29370, Note_on_c, 0, 76, 100
2, 29399, Note_on_c, 0, 76, 0
2, 29400, Note_on_c, 0, 74, 111
2, 29459, Note_on_c, 0, 74, 0
2, 29460, Note_on_c, 0, 79, 113
2, 29489, Note_on_c, 0, 79, 0
2, 29490, Note_on_c, 0, 77, 99
2, 29519, Note_on_c, 0, 77, 0
2, 29520, Note_on_c, 0, 72, 114
2, 29580, Note_on_c, 0, 79, 113
2, 29589, Note_on_c, 0, 72, 0
2, 29609, Note_on_c, 0, 79, 0
2, 29610, Note_on_c, 0, 76, 100
2, 29639, Note_on_c, 0, 76, 0
2, 29640, Note_on_c, 0, 74, 106
2, 29700, Note_on_c, 0, 79, 100
2, 29709, Note_on_c, 0, 74, 0
2, 29729, Note_on_c, 0, 79, 0
2, 29730, Note_on_c, 0, 77, 93
2, 29759, Note_on_c, 0, 77, 0
2, 29760, Note_on_c, 0, 72, 89
2, 29820, Note_on_c, 0, 79, 92
2, 29829, Note_on_c, 0, 72, 0
2, 29849, Note_on_c, 0, 79, 0
2, 29850, Note_on_c, 0, 76, 84
2, 29879, Note_on_c, 0, 76, 0
2, 29880, Note_on_c, 0, 74, 80
2, 29940, Note_on_c, 0, 79, 84
2, 29949, Note_on_c, 0, 74, 0
2, 29969, Note_on_c, 0, 79, 0
2, 29970, Note_on_c, 0, 77, 78
2, 29999, Note_on_c, 0, 77, 0
2, 30000, Note_on_c, 0, 72, 78
2, 30060, Note_on_c, 0, 79, 85
2, 30069, Note_on_c, 0, 72, 0
2, 30089, Note_on_c, 0, 79, 0
2, 30090, Note_on_c, 0, 76, 73
2, 30119, Note_on_c, 0, 76, 0
2, 30120, Note_on_c, 0, 74, 76
2, 30180, Note_on_c, 0, 79, 73
2, 30189, Note_on_c, 0, 74, 0
2, 30209, Note_on_c, 0, 79, 0
2, 30210, Note_on_c, 0, 77, 68
2, 30239, Note_on_c, 0, 77, 0
2, 30240, Note_on_c, 0, 72, 72
2, 30359, Note_on_c, 0, 72, 0
2, 30360, Note_on_c, 0, 67, 65
2, 30479, Note_on_c, 0, 67, 0
2, 30480, Note_on_c, 0, 72, 65
2, 30599, Note_on_c, 0, 72, 0
2, 30600, Note_on_c, 0, 67, 65
2, 30719, Note_on_c, 0, 67, 0
2, 30720, Note_on_c, 0, 72, 65
2, 30839, Note_on_c, 0, 72, 0
2, 30840, Note_on_c, 0, 67, 65
2, 30959, Note_on_c, 0, 67, 0
2, 30960, Note_on_c, 0, 72, 65
2, 31079, Note_on_c, 0, 72, 0
2, 31080, Note_on_c, 0, 67, 65
2, 31199, Note_on_c, 0, 67, 0
2, 31200, Note_on_c, 0, 72, 65
2, 31319, Note_on_c, 0, 72, 0
2, 31319, End_track
3, 0, Start_track
3, 0, MIDI_port, 0
3, 0, Title_t, "Violin2"
3, 0, Program_c, 0, 48
3, 0, Control_c, 0, 7, 120
3, 0, Control_c, 0, 10, 60
3, 480, Control_c, 0, 121, 0
3, 480, Control_c, 0, 0, 0
3, 480, Program_c, 0, 48
3, 480, Pitch_bend_c, 0, 8192
3, 480, Control_c, 0, 10, 60
3, 480, Control_c, 0, 91, 110
3, 480, Control_c, 0, 93, 30
3, 480, Control_c, 0, 7, 120
3, 480, Note_on_c, 0, 65, 109
3, 539, Note_on_c, 0, 65, 0
3, 540, Note_on_c, 0, 64, 107
3, 600, Note_on_c, 0, 65, 117
3, 629, Note_on_c, 0, 64, 0
3, 659, Note_on_c, 0, 65, 0
3, 660, Note_on_c, 0, 67, 109
3, 689, Note_on_c, 0, 67, 0
3, 690, Note_on_c, 0, 65, 101
3, 719, Note_on_c, 0, 65, 0
3, 720, Note_on_c, 0, 64, 115
3, 809, Note_on_c, 0, 64, 0
3, 1020, Note_on_c, 0, 57, 98
3, 1080, Note_on_c, 0, 58, 112
3, 1109, Note_on_c, 0, 57, 0
3, 1139, Note_on_c, 0, 58, 0
3, 1140, Note_on_c, 0, 62, 104
3, 1199, Note_on_c, 0, 62, 0
3, 1200, Note_on_c, 0, 60, 120
3, 1499, Note_on_c, 0, 60, 0
3, 1500, Note_on_c, 0, 57, 111
3, 1559, Note_on_c, 0, 57, 0
3, 1560, Note_on_c, 0, 58, 118
3, 1620, Note_on_c, 0, 62, 108
3, 1649, Note_on_c, 0, 58, 0
3, 1679, Note_on_c, 0, 62, 0
3, 1680, Note_on_c, 0, 60, 122
3, 1859, Note_on_c, 0, 60, 0
3, 1920, Note_on_c, 0, 60, 123
3, 2039, Note_on_c, 0, 60, 0
3, 2040, Note_on_c, 0, 65, 118
3, 2159, Note_on_c, 0, 65, 0
3, 2160, Note_on_c, 0, 64, 126
3, 2339, Note_on_c, 0, 64, 0
3, 2340, Note_on_c, 0, 65, 108
3, 2400, Note_on_c, 0, 70, 122
3, 2429, Note_on_c, 0, 65, 0
3, 2520, Note_on_c, 0, 69, 118
3, 2549, Note_on_c, 0, 70, 0
3, 2639, Note_on_c, 0, 69, 0
3, 2640, Note_on_c, 0, 64, 126
3, 2879, Note_on_c, 0, 64, 0
3, 2880, Note_on_c, 0, 65, 124
3, 2999, Note_on_c, 0, 65, 0
3, 3000, Note_on_c, 0, 65, 111
3, 3119, Note_on_c, 0, 65, 0
3, 3120, Note_on_c, 0, 64, 125
3, 3299, Note_on_c, 0, 64, 0
3, 3300, Note_on_c, 0, 65, 102
3, 3359, Note_on_c, 0, 65, 0
3, 3360, Note_on_c, 0, 70, 74
3, 3480, Note_on_c, 0, 69, 67
3, 3509, Note_on_c, 0, 70, 0
3, 3599, Note_on_c, 0, 69, 0
3, 3600, Note_on_c, 0, 64, 60
3, 3779, Note_on_c, 0, 64, 0
3, 3780, Note_on_c, 0, 65, 70
3, 3839, Note_on_c, 0, 65, 0
3, 3840, Note_on_c, 0, 64, 73
3, 4019, Note_on_c, 0, 64, 0
3, 4020, Note_on_c, 0, 65, 83
3, 4080, Note_on_c, 0, 64, 87
3, 4109, Note_on_c, 0, 65, 0
3, 4259, Note_on_c, 0, 64, 0
3, 4260, Note_on_c, 0, 65, 92
3, 4320, Note_on_c, 0, 64, 92
3, 4349, Note_on_c, 0, 65, 0
3, 4499, Note_on_c, 0, 64, 0
3, 4500, Note_on_c, 0, 65, 118
3, 4559, Note_on_c, 0, 65, 0
3, 4560, Note_on_c, 0, 64, 123
3, 4739, Note_on_c, 0, 64, 0
3, 4740, Note_on_c, 0, 65, 121
3, 4799, Note_on_c, 0, 65, 0
3, 4800, Note_on_c, 0, 64, 127
3, 4979, Note_on_c, 0, 64, 0
3, 4980, Note_on_c, 0, 65, 120
3, 5039, Note_on_c, 0, 65, 0
3, 5040, Note_on_c, 0, 64, 118
3, 5219, Note_on_c, 0, 64, 0
3, 5220, Note_on_c, 0, 65, 99
3, 5280, Note_on_c, 0, 64, 91
3, 5309, Note_on_c, 0, 65, 0
3, 5459, Note_on_c, 0, 64, 0
3, 5460, Note_on_c, 0, 65, 78
3, 5519, Note_on_c, 0, 65, 0
3, 5520, Note_on_c, 0, 64, 69
3, 5699, Note_on_c, 0, 64, 0
3, 5700, Note_on_c, 0, 65, 68
3, 5759, Note_on_c, 0, 65, 0
3, 5760, Note_on_c, 0, 64, 64
3, 5849, Note_on_c, 0, 64, 0
3, 6060, Note_on_c, 0, 57, 77
3, 6089, Note_on_c, 0, 57, 0
3, 6090, Note_on_c, 0, 58, 73
3, 6119, Note_on_c, 0, 58, 0
3, 6120, Note_on_c, 0, 60, 83
3, 6149, Note_on_c, 0, 60, 0
3, 6180, Note_on_c, 0, 61, 83
3, 6209, Note_on_c, 0, 61, 0
3, 6240, Note_on_c, 0, 62, 89
3, 6299, Note_on_c, 0, 62, 0
3, 6300, Note_on_c, 0, 58, 83
3, 6329, Note_on_c, 0, 58, 0
3, 6330, Note_on_c, 0, 60, 72
3, 6359, Note_on_c, 0, 60, 0
3, 6360, Note_on_c, 0, 62, 79
3, 6389, Note_on_c, 0, 62, 0
3, 6420, Note_on_c, 0, 64, 78
3, 6449, Note_on_c, 0, 64, 0
3, 6480, Note_on_c, 0, 65, 90
3, 6539, Note_on_c, 0, 65, 0
3, 6540, Note_on_c, 0, 62, 83
3, 6569, Note_on_c, 0, 62, 0
3, 6570, Note_on_c, 0, 64, 77
3, 6599, Note_on_c, 0, 64, 0
3, 6600, Note_on_c, 0, 65, 85
3, 6629, Note_on_c, 0, 65, 0
3, 6660, Note_on_c, 0, 67, 87
3, 6689, Note_on_c, 0, 67, 0
3, 6720, Note_on_c, 0, 69, 99
3, 6779, Note_on_c, 0, 69, 0
3, 7680, Note_on_c, 0, 72, 94
3, 8639, Note_on_c, 0, 72, 0
3, 8640, Note_on_c, 0, 69, 94
3, 8669, Note_on_c, 0, 69, 0
3, 8700, Note_on_c, 0, 69, 89
3, 8729, Note_on_c, 0, 69, 0
3, 8760, Note_on_c, 0, 70, 89
3, 8789, Note_on_c, 0, 70, 0
3, 8820, Note_on_c, 0, 74, 99
3, 8849, Note_on_c, 0, 74, 0
3, 8880, Note_on_c, 0, 72, 99
3, 8939, Note_on_c, 0, 72, 0
3, 8940, Note_on_c, 0, 70, 86
3, 8969, Note_on_c, 0, 70, 0
3, 8970, Note_on_c, 0, 69, 81
3, 8999, Note_on_c, 0, 69, 0
3, 9000, Note_on_c, 0, 67, 104
3, 9029, Note_on_c, 0, 67, 0
3, 9060, Note_on_c, 0, 60, 95
3, 9089, Note_on_c, 0, 60, 0
3, 9120, Note_on_c, 0, 65, 100
3, 9149, Note_on_c, 0, 65, 0
3, 9180, Note_on_c, 0, 76, 82
3, 9209, Note_on_c, 0, 76, 0
3, 9240, Note_on_c, 0, 77, 91
3, 9299, Note_on_c, 0, 77, 0
3, 9300, Note_on_c, 0, 79, 89
3, 9329, Note_on_c, 0, 79, 0
3, 9330, Note_on_c, 0, 77, 85
3, 9359, Note_on_c, 0, 77, 0
3, 9360, Note_on_c, 0, 76, 83
3, 9389, Note_on_c, 0, 76, 0
3, 9420, Note_on_c, 0, 77, 84
3, 9449, Note_on_c, 0, 77, 0
3, 9480, Note_on_c, 0, 79, 85
3, 9539, Note_on_c, 0, 79, 0
3, 9540, Note_on_c, 0, 81, 95
3, 9569, Note_on_c, 0, 81, 0
3, 9570, Note_on_c, 0, 79, 90
3, 9599, Note_on_c, 0, 79, 0
3, 9600, Note_on_c, 0, 77, 100
3, 9659, Note_on_c, 0, 77, 0
3, 9660, Note_on_c, 0, 81, 102
3, 9689, Note_on_c, 0, 81, 0
3, 9720, Note_on_c, 0, 81, 105
3, 9749, Note_on_c, 0, 81, 0
3, 9780, Note_on_c, 0, 81, 104
3, 9809, Note_on_c, 0, 81, 0
3, 9840, Note_on_c, 0, 81, 110
3, 9959, Note_on_c, 0, 81, 0
3, 9960, Note_on_c, 0, 79, 105
3, 9989, Note_on_c, 0, 79, 0
3, 9990, Note_on_c, 0, 77, 96
3, 10019, Note_on_c, 0, 77, 0
3, 10020, Note_on_c, 0, 76, 94
3, 10049, Note_on_c, 0, 76, 0
3, 10050, Note_on_c, 0, 74, 94
3, 10079, Note_on_c, 0, 74, 0
3, 10080, Note_on_c, 0, 72, 105
3, 10109, Note_on_c, 0, 72, 0
3, 10140, Note_on_c, 0, 74, 105
3, 10169, Note_on_c, 0, 74, 0
3, 10200, Note_on_c, 0, 76, 107
3, 10259, Note_on_c, 0, 76, 0
3, 10260, Note_on_c, 0, 77, 95
3, 10289, Note_on_c, 0, 77, 0
3, 10290, Note_on_c, 0, 76, 91
3, 10319, Note_on_c, 0, 76, 0
3, 10320, Note_on_c, 0, 74, 105
3, 10349, Note_on_c, 0, 74, 0
3, 10380, Note_on_c, 0, 76, 110
3, 10409, Note_on_c, 0, 76, 0
3, 10440, Note_on_c, 0, 77, 116
3, 10499, Note_on_c, 0, 77, 0
3, 10500, Note_on_c, 0, 79, 105
3, 10529, Note_on_c, 0, 79, 0
3, 10530, Note_on_c, 0, 77, 93
3, 10559, Note_on_c, 0, 77, 0
3, 10560, Note_on_c, 0, 76, 100
3, 10619, Note_on_c, 0, 76, 0
3, 10620, Note_on_c, 0, 79, 110
3, 10649, Note_on_c, 0, 79, 0
3, 10680, Note_on_c, 0, 79, 110
3, 10709, Note_on_c, 0, 79, 0
3, 10740, Note_on_c, 0, 79, 105
3, 10769, Note_on_c, 0, 79, 0
3, 10800, Note_on_c, 0, 79, 119
3, 10919, Note_on_c, 0, 79, 0
3, 10920, Note_on_c, 0, 81, 114
3, 10949, Note_on_c, 0, 81, 0
3, 10950, Note_on_c, 0, 79, 106
3, 10979, Note_on_c, 0, 79, 0
3, 10980, Note_on_c, 0, 77, 104
3, 11009, Note_on_c, 0, 77, 0
3, 11010, Note_on_c, 0, 76, 104
3, 11039, Note_on_c, 0, 76, 0
3, 11040, Note_on_c, 0, 77, 117
3, 11069, Note_on_c, 0, 77, 0
3, 11100, Note_on_c, 0, 79, 116
3, 11129, Note_on_c, 0, 79, 0
3, 11160, Note_on_c, 0, 81, 122
3, 11219, Note_on_c, 0, 81, 0
3, 11220, Note_on_c, 0, 82, 112
3, 11249, Note_on_c, 0, 82, 0
3, 11250, Note_on_c, 0, 81, 106
3, 11279, Note_on_c, 0, 81, 0
3, 11280, Note_on_c, 0, 79, 118
3, 11339, Note_on_c, 0, 79, 0
3, 11340, Note_on_c, 0, 76, 98
3, 11399, Note_on_c, 0, 76, 0
3, 11400, Note_on_c, 0, 79, 98
3, 11459, Note_on_c, 0, 79, 0
3, 11460, Note_on_c, 0, 76, 100
3, 11519, Note_on_c, 0, 76, 0
3, 11520, Note_on_c, 0, 77, 116
3, 11549, Note_on_c, 0, 77, 0
3, 11580, Note_on_c, 0, 79, 105
3, 11609, Note_on_c, 0, 79, 0
3, 11640, Note_on_c, 0, 81, 86
3, 11699, Note_on_c, 0, 81, 0
3, 11700, Note_on_c, 0, 82, 100
3, 11729, Note_on_c, 0, 82, 0
3, 11730, Note_on_c, 0, 81, 90
3, 11760, Note_on_c, 0, 79, 95
3, 11789, Note_on_c, 0, 81, 0
3, 11819, Note_on_c, 0, 79, 0
3, 11820, Note_on_c, 0, 76, 90
3, 11879, Note_on_c, 0, 76, 0
3, 11880, Note_on_c, 0, 79, 96
3, 11939, Note_on_c, 0, 79, 0
3, 11940, Note_on_c, 0, 76, 82
3, 11999, Note_on_c, 0, 76, 0
3, 12000, Note_on_c, 0, 77, 86
3, 12059, Note_on_c, 0, 77, 0
3, 12060, Note_on_c, 0, 76, 70
3, 12119, Note_on_c, 0, 76, 0
3, 12120, Note_on_c, 0, 79, 78
3, 12179, Note_on_c, 0, 79, 0
3, 12180, Note_on_c, 0, 76, 71
3, 12239, Note_on_c, 0, 76, 0
3, 12240, Note_on_c, 0, 77, 73
3, 12299, Note_on_c, 0, 77, 0
3, 12300, Note_on_c, 0, 76, 63
3, 12359, Note_on_c, 0, 76, 0
3, 12360, Note_on_c, 0, 79, 67
3, 12419, Note_on_c, 0, 79, 0
3, 12420, Note_on_c, 0, 76, 62
3, 12479, Note_on_c, 0, 76, 0
3, 12480, Note_on_c, 0, 77, 66
3, 12480, Note_on_c, 0, 69, 66
3, 12569, Note_on_c, 0, 69, 0
3, 12569, Note_on_c, 0, 77, 0
3, 13440, Note_on_c, 0, 69, 61
3, 13440, Note_on_c, 0, 65, 61
3, 13469, Note_on_c, 0, 65, 0
3, 13469, Note_on_c, 0, 69, 0
3, 14400, Note_on_c, 0, 65, 60
3, 14400, Note_on_c, 0, 69, 60
3, 14429, Note_on_c, 0, 69, 0
3, 14429, Note_on_c, 0, 65, 0
3, 14880, Note_on_c, 0, 74, 59
3, 14880, Note_on_c, 0, 65, 59
3, 14909, Note_on_c, 0, 65, 0
3, 14909, Note_on_c, 0, 74, 0
3, 15420, Note_on_c, 0, 69, 95
3, 15479, Note_on_c, 0, 69, 0
3, 15480, Note_on_c, 0, 67, 105
3, 15509, Note_on_c, 0, 67, 0
3, 15540, Note_on_c, 0, 66, 94
3, 15569, Note_on_c, 0, 66, 0
3, 15600, Note_on_c, 0, 67, 101
3, 15669, Note_on_c, 0, 67, 0
3, 15840, Note_on_c, 0, 59, 49
3, 15899, Note_on_c, 0, 59, 0
3, 15900, Note_on_c, 0, 62, 62
3, 15959, Note_on_c, 0, 62, 0
3, 15960, Note_on_c, 0, 59, 64
3, 16019, Note_on_c, 0, 59, 0
3, 16020, Note_on_c, 0, 62, 63
3, 16079, Note_on_c, 0, 62, 0
3, 16080, Note_on_c, 0, 59, 61
3, 16139, Note_on_c, 0, 59, 0
3, 16140, Note_on_c, 0, 62, 58
3, 16199, Note_on_c, 0, 62, 0
3, 16200, Note_on_c, 0, 59, 58
3, 16259, Note_on_c, 0, 59, 0
3, 16260, Note_on_c, 0, 62, 58
3, 16319, Note_on_c, 0, 62, 0
3, 16320, Note_on_c, 0, 60, 58
3, 16379, Note_on_c, 0, 60, 0
3, 16380, Note_on_c, 0, 64, 56
3, 16439, Note_on_c, 0, 64, 0
3, 16440, Note_on_c, 0, 60, 56
3, 16500, Note_on_c, 0, 64, 58
3, 16529, Note_on_c, 0, 60, 0
3, 16559, Note_on_c, 0, 64, 0
3, 16560, Note_on_c, 0, 60, 62
3, 16619, Note_on_c, 0, 60, 0
3, 16620, Note_on_c, 0, 64, 62
3, 16679, Note_on_c, 0, 64, 0
3, 16680, Note_on_c, 0, 60, 67
3, 16739, Note_on_c, 0, 60, 0
3, 16740, Note_on_c, 0, 64, 72
3, 16799, Note_on_c, 0, 64, 0
3, 16800, Note_on_c, 0, 69, 126
3, 16859, Note_on_c, 0, 69, 0
3, 16860, Note_on_c, 0, 67, 123
3, 16919, Note_on_c, 0, 67, 0
3, 16920, Note_on_c, 0, 65, 118
3, 16979, Note_on_c, 0, 65, 0
3, 16980, Note_on_c, 0, 62, 116
3, 17039, Note_on_c, 0, 62, 0
3, 17040, Note_on_c, 0, 55, 120
3, 17099, Note_on_c, 0, 55, 0
3, 17100, Note_on_c, 0, 65, 124
3, 17159, Note_on_c, 0, 65, 0
3, 17160, Note_on_c, 0, 62, 122
3, 17219, Note_on_c, 0, 62, 0
3, 17220, Note_on_c, 0, 55, 118
3, 17279, Note_on_c, 0, 55, 0
3, 17280, Note_on_c, 0, 69, 125
3, 17339, Note_on_c, 0, 69, 0
3, 17340, Note_on_c, 0, 67, 120
3, 17399, Note_on_c, 0, 67, 0
3, 17400, Note_on_c, 0, 64, 115
3, 17459, Note_on_c, 0, 64, 0
3, 17460, Note_on_c, 0, 60, 116
3, 17519, Note_on_c, 0, 60, 0
3, 17520, Note_on_c, 0, 55, 122
3, 17579, Note_on_c, 0, 55, 0
3, 17580, Note_on_c, 0, 64, 126
3, 17639, Note_on_c, 0, 64, 0
3, 17640, Note_on_c, 0, 60, 122
3, 17699, Note_on_c, 0, 60, 0
3, 17700, Note_on_c, 0, 55, 116
3, 17759, Note_on_c, 0, 55, 0
3, 17760, Note_on_c, 0, 62, 78
3, 17819, Note_on_c, 0, 62, 0
3, 17820, Note_on_c, 0, 59, 70
3, 17879, Note_on_c, 0, 59, 0
3, 17880, Note_on_c, 0, 62, 74
3, 17939, Note_on_c, 0, 62, 0
3, 17940, Note_on_c, 0, 59, 60
3, 17999, Note_on_c, 0, 59, 0
3, 18000, Note_on_c, 0, 62, 79
3, 18059, Note_on_c, 0, 62, 0
3, 18060, Note_on_c, 0, 59, 64
3, 18119, Note_on_c, 0, 59, 0
3, 18120, Note_on_c, 0, 62, 60
3, 18179, Note_on_c, 0, 62, 0
3, 18180, Note_on_c, 0, 59, 67
3, 18239, Note_on_c, 0, 59, 0
3, 18240, Note_on_c, 0, 64, 70
3, 18299, Note_on_c, 0, 64, 0
3, 18300, Note_on_c, 0, 60, 52
3, 18359, Note_on_c, 0, 60, 0
3, 18360, Note_on_c, 0, 64, 67
3, 18419, Note_on_c, 0, 64, 0
3, 18420, Note_on_c, 0, 60, 64
3, 18479, Note_on_c, 0, 60, 0
3, 18480, Note_on_c, 0, 64, 74
3, 18539, Note_on_c, 0, 64, 0
3, 18540, Note_on_c, 0, 60, 61
3, 18599, Note_on_c, 0, 60, 0
3, 18600, Note_on_c, 0, 64, 70
3, 18659, Note_on_c, 0, 64, 0
3, 18660, Note_on_c, 0, 60, 57
3, 18719, Note_on_c, 0, 60, 0
3, 18720, Note_on_c, 0, 65, 60
3, 18779, Note_on_c, 0, 65, 0
3, 18780, Note_on_c, 0, 62, 66
3, 18839, Note_on_c, 0, 62, 0
3, 18840, Note_on_c, 0, 67, 65
3, 18899, Note_on_c, 0, 67, 0
3, 18900, Note_on_c, 0, 62, 62
3, 18959, Note_on_c, 0, 62, 0
3, 18960, Note_on_c, 0, 67, 62
3, 19019, Note_on_c, 0, 67, 0
3, 19020, Note_on_c, 0, 62, 62
3, 19079, Note_on_c, 0, 62, 0
3, 19080, Note_on_c, 0, 67, 70
3, 19139, Note_on_c, 0, 67, 0
3, 19140, Note_on_c, 0, 62, 67
3, 19199, Note_on_c, 0, 62, 0
3, 19200, Note_on_c, 0, 67, 68
3, 19259, Note_on_c, 0, 67, 0
3, 19260, Note_on_c, 0, 64, 66
3, 19319, Note_on_c, 0, 64, 0
3, 19320, Note_on_c, 0, 67, 70
3, 19379, Note_on_c, 0, 67, 0
3, 19380, Note_on_c, 0, 64, 60
3, 19439, Note_on_c, 0, 64, 0
3, 19440, Note_on_c, 0, 67, 61
3, 19499, Note_on_c, 0, 67, 0
3, 19500, Note_on_c, 0, 64, 61
3, 19559, Note_on_c, 0, 64, 0
3, 19560, Note_on_c, 0, 67, 67
3, 19619, Note_on_c, 0, 67, 0
3, 19620, Note_on_c, 0, 64, 70
3, 19679, Note_on_c, 0, 64, 0
3, 19680, Note_on_c, 0, 74, 74
3, 19719, Note_on_c, 0, 74, 0
3, 19720, Note_on_c, 0, 71, 82
3, 19759, Note_on_c, 0, 71, 0
3, 19760, Note_on_c, 0, 74, 82
3, 19799, Note_on_c, 0, 74, 0
3, 19800, Note_on_c, 0, 71, 80
3, 19839, Note_on_c, 0, 71, 0
3, 19840, Note_on_c, 0, 74, 80
3, 19879, Note_on_c, 0, 74, 0
3, 19880, Note_on_c, 0, 71, 80
3, 19919, Note_on_c, 0, 71, 0
3, 19920, Note_on_c, 0, 74, 82
3, 19959, Note_on_c, 0, 74, 0
3, 19960, Note_on_c, 0, 71, 84
3, 19999, Note_on_c, 0, 71, 0
3, 20000, Note_on_c, 0, 74, 88
3, 20039, Note_on_c, 0, 74, 0
3, 20040, Note_on_c, 0, 71, 90
3, 20079, Note_on_c, 0, 71, 0
3, 20080, Note_on_c, 0, 74, 82
3, 20119, Note_on_c, 0, 74, 0
3, 20120, Note_on_c, 0, 71, 77
3, 20159, Note_on_c, 0, 71, 0
3, 20160, Note_on_c, 0, 76, 82
3, 20199, Note_on_c, 0, 76, 0
3, 20200, Note_on_c, 0, 72, 74
3, 20239, Note_on_c, 0, 72, 0
3, 20240, Note_on_c, 0, 76, 78
3, 20279, Note_on_c, 0, 76, 0
3, 20280, Note_on_c, 0, 72, 72
3, 20319, Note_on_c, 0, 72, 0
3, 20320, Note_on_c, 0, 76, 72
3, 20359, Note_on_c, 0, 76, 0
3, 20360, Note_on_c, 0, 72, 73
3, 20399, Note_on_c, 0, 72, 0
3, 20400, Note_on_c, 0, 76, 73
3, 20439, Note_on_c, 0, 76, 0
3, 20440, Note_on_c, 0, 72, 67
3, 20479, Note_on_c, 0, 72, 0
3, 20480, Note_on_c, 0, 76, 74
3, 20519, Note_on_c, 0, 76, 0
3, 20520, Note_on_c, 0, 72, 67
3, 20559, Note_on_c, 0, 72, 0
3, 20560, Note_on_c, 0, 76, 69
3, 20599, Note_on_c, 0, 76, 0
3, 20600, Note_on_c, 0, 72, 71
3, 20639, Note_on_c, 0, 72, 0
3, 20640, Note_on_c, 0, 77, 68
3, 20669, Note_on_c, 0, 77, 0
3, 20670, Note_on_c, 0, 74, 78
3, 20699, Note_on_c, 0, 74, 0
3, 20700, Note_on_c, 0, 77, 78
3, 20729, Note_on_c, 0, 77, 0
3, 20730, Note_on_c, 0, 74, 64
3, 20759, Note_on_c, 0, 74, 0
3, 20760, Note_on_c, 0, 77, 75
3, 20789, Note_on_c, 0, 77, 0
3, 20790, Note_on_c, 0, 74, 74
3, 20819, Note_on_c, 0, 74, 0
3, 20820, Note_on_c, 0, 77, 74
3, 20849, Note_on_c, 0, 77, 0
3, 20850, Note_on_c, 0, 74, 71
3, 20879, Note_on_c, 0, 74, 0
3, 20880, Note_on_c, 0, 77, 66
3, 20909, Note_on_c, 0, 77, 0
3, 20910, Note_on_c, 0, 74, 68
3, 20939, Note_on_c, 0, 74, 0
3, 20940, Note_on_c, 0, 77, 74
3, 20969, Note_on_c, 0, 77, 0
3, 20970, Note_on_c, 0, 74, 74
3, 20999, Note_on_c, 0, 74, 0
3, 21000, Note_on_c, 0, 77, 66
3, 21029, Note_on_c, 0, 77, 0
3, 21030, Note_on_c, 0, 74, 60
3, 21059, Note_on_c, 0, 74, 0
3, 21060, Note_on_c, 0, 77, 64
3, 21089, Note_on_c, 0, 77, 0
3, 21090, Note_on_c, 0, 74, 74
3, 21119, Note_on_c, 0, 74, 0
3, 21120, Note_on_c, 0, 76, 72
3, 21149, Note_on_c, 0, 76, 0
3, 21150, Note_on_c, 0, 72, 72
3, 21179, Note_on_c, 0, 72, 0
3, 21180, Note_on_c, 0, 76, 64
3, 21209, Note_on_c, 0, 76, 0
3, 21210, Note_on_c, 0, 72, 67
3, 21239, Note_on_c, 0, 72, 0
3, 21240, Note_on_c, 0, 76, 70
3, 21269, Note_on_c, 0, 76, 0
3, 21270, Note_on_c, 0, 72, 68
3, 21299, Note_on_c, 0, 72, 0
3, 21300, Note_on_c, 0, 76, 67
3, 21329, Note_on_c, 0, 76, 0
3, 21330, Note_on_c, 0, 72, 63
3, 21359, Note_on_c, 0, 72, 0
3, 21360, Note_on_c, 0, 76, 72
3, 21389, Note_on_c, 0, 76, 0
3, 21390, Note_on_c, 0, 72, 64
3, 21419, Note_on_c, 0, 72, 0
3, 21420, Note_on_c, 0, 76, 72
3, 21449, Note_on_c, 0, 76, 0
3, 21450, Note_on_c, 0, 72, 72
3, 21479, Note_on_c, 0, 72, 0
3, 21480, Note_on_c, 0, 76, 71
3, 21509, Note_on_c, 0, 76, 0
3, 21510, Note_on_c, 0, 72, 60
3, 21539, Note_on_c, 0, 72, 0
3, 21540, Note_on_c, 0, 76, 70
3, 21569, Note_on_c, 0, 76, 0
3, 21570, Note_on_c, 0, 72, 64
3, 21599, Note_on_c, 0, 72, 0
3, 21600, Note_on_c, 0, 77, 64
3, 21621, Note_on_c, 0, 77, 0
3, 21630, Note_on_c, 0, 71, 64
3, 21650, Note_on_c, 0, 71, 0
3, 21660, Note_on_c, 0, 77, 64
3, 21689, Note_on_c, 0, 77, 0
3, 21690, Note_on_c, 0, 71, 62
3, 21719, Note_on_c, 0, 71, 0
3, 21720, Note_on_c, 0, 77, 65
3, 21740, Note_on_c, 0, 77, 0
3, 21753, Note_on_c, 0, 71, 64
3, 21779, Note_on_c, 0, 71, 0
3, 21780, Note_on_c, 0, 77, 64
3, 21796, Note_on_c, 0, 77, 0
3, 21804, Note_on_c, 0, 71, 64
3, 21826, Note_on_c, 0, 71, 0
3, 21840, Note_on_c, 0, 77, 67
3, 21855, Note_on_c, 0, 77, 0
3, 21870, Note_on_c, 0, 71, 60
3, 21891, Note_on_c, 0, 71, 0
3, 21900, Note_on_c, 0, 77, 70
3, 21916, Note_on_c, 0, 77, 0
3, 21930, Note_on_c, 0, 71, 71
3, 21950, Note_on_c, 0, 71, 0
3, 21960, Note_on_c, 0, 77, 73
3, 21989, Note_on_c, 0, 77, 0
3, 21990, Note_on_c, 0, 71, 73
3, 22019, Note_on_c, 0, 71, 0
3, 22020, Note_on_c, 0, 77, 73
3, 22049, Note_on_c, 0, 77, 0
3, 22050, Note_on_c, 0, 71, 69
3, 22079, Note_on_c, 0, 71, 0
3, 22080, Note_on_c, 0, 76, 96
3, 22260, Note_on_c, 0, 77, 80
3, 22289, Note_on_c, 0, 77, 0
3, 22289, Note_on_c, 0, 76, 0
3, 22290, Note_on_c, 0, 79, 90
3, 22319, Note_on_c, 0, 79, 0
3, 22320, Note_on_c, 0, 81, 95
3, 22379, Note_on_c, 0, 81, 0
3, 22380, Note_on_c, 0, 79, 90
3, 22409, Note_on_c, 0, 79, 0
3, 22410, Note_on_c, 0, 77, 74
3, 22439, Note_on_c, 0, 77, 0
3, 22440, Note_on_c, 0, 76, 78
3, 22499, Note_on_c, 0, 76, 0
3, 22500, Note_on_c, 0, 77, 95
3, 22529, Note_on_c, 0, 77, 0
3, 22530, Note_on_c, 0, 79, 78
3, 22559, Note_on_c, 0, 79, 0
3, 22560, Note_on_c, 0, 81, 95
3, 22619, Note_on_c, 0, 81, 0
3, 22620, Note_on_c, 0, 79, 82
3, 22649, Note_on_c, 0, 79, 0
3, 22650, Note_on_c, 0, 77, 73
3, 22679, Note_on_c, 0, 77, 0
3, 22680, Note_on_c, 0, 76, 78
3, 22739, Note_on_c, 0, 76, 0
3, 22740, Note_on_c, 0, 77, 100
3, 22769, Note_on_c, 0, 77, 0
3, 22770, Note_on_c, 0, 79, 78
3, 22799, Note_on_c, 0, 79, 0
3, 22800, Note_on_c, 0, 81, 82
3, 22889, Note_on_c, 0, 81, 0
3, 23040, Note_on_c, 0, 65, 72
3, 23099, Note_on_c, 0, 65, 0
3, 23100, Note_on_c, 0, 60, 60
3, 23159, Note_on_c, 0, 60, 0
3, 23160, Note_on_c, 0, 65, 78
3, 23219, Note_on_c, 0, 65, 0
3, 23220, Note_on_c, 0, 60, 58
3, 23279, Note_on_c, 0, 60, 0
3, 23280, Note_on_c, 0, 64, 70
3, 23339, Note_on_c, 0, 64, 0
3, 23340, Note_on_c, 0, 60, 60
3, 23399, Note_on_c, 0, 60, 0
3, 23400, Note_on_c, 0, 64, 78
3, 23459, Note_on_c, 0, 64, 0
3, 23460, Note_on_c, 0, 60, 58
3, 23519, Note_on_c, 0, 60, 0
3, 23520, Note_on_c, 0, 65, 70
3, 23579, Note_on_c, 0, 65, 0
3, 23580, Note_on_c, 0, 62, 58
3, 23639, Note_on_c, 0, 62, 0
3, 23640, Note_on_c, 0, 65, 60
3, 23699, Note_on_c, 0, 65, 0
3, 23700, Note_on_c, 0, 62, 67
3, 23759, Note_on_c, 0, 62, 0
3, 23760, Note_on_c, 0, 76, 120
3, 23909, Note_on_c, 0, 76, 0
3, 23940, Note_on_c, 0, 77, 70
3, 23969, Note_on_c, 0, 77, 0
3, 23970, Note_on_c, 0, 79, 78
3, 23999, Note_on_c, 0, 79, 0
3, 24000, Note_on_c, 0, 81, 95
3, 24060, Note_on_c, 0, 79, 95
3, 24089, Note_on_c, 0, 79, 0
3, 24089, Note_on_c, 0, 81, 0
3, 24090, Note_on_c, 0, 77, 82
3, 24119, Note_on_c, 0, 77, 0
3, 24120, Note_on_c, 0, 76, 86
3, 24179, Note_on_c, 0, 76, 0
3, 24180, Note_on_c, 0, 77, 95
3, 24209, Note_on_c, 0, 77, 0
3, 24210, Note_on_c, 0, 79, 100
3, 24239, Note_on_c, 0, 79, 0
3, 24240, Note_on_c, 0, 81, 100
3, 24299, Note_on_c, 0, 81, 0
3, 24300, Note_on_c, 0, 79, 95
3, 24329, Note_on_c, 0, 79, 0
3, 24330, Note_on_c, 0, 77, 82
3, 24359, Note_on_c, 0, 77, 0
3, 24360, Note_on_c, 0, 76, 86
3, 24419, Note_on_c, 0, 76, 0
3, 24420, Note_on_c, 0, 77, 90
3, 24449, Note_on_c, 0, 77, 0
3, 24450, Note_on_c, 0, 79, 95
3, 24479, Note_on_c, 0, 79, 0
3, 24480, Note_on_c, 0, 81, 86
3, 24599, Note_on_c, 0, 81, 0
3, 24720, Note_on_c, 0, 65, 82
3, 24779, Note_on_c, 0, 65, 0
3, 24780, Note_on_c, 0, 60, 60
3, 24839, Note_on_c, 0, 60, 0
3, 24840, Note_on_c, 0, 65, 70
3, 24899, Note_on_c, 0, 65, 0
3, 24900, Note_on_c, 0, 60, 56
3, 24959, Note_on_c, 0, 60, 0
3, 24960, Note_on_c, 0, 64, 64
3, 25019, Note_on_c, 0, 64, 0
3, 25020, Note_on_c, 0, 60, 33
3, 25079, Note_on_c, 0, 60, 0
3, 25080, Note_on_c, 0, 64, 57
3, 25139, Note_on_c, 0, 64, 0
3, 25140, Note_on_c, 0, 60, 45
3, 25199, Note_on_c, 0, 60, 0
3, 25200, Note_on_c, 0, 65, 60
3, 25259, Note_on_c, 0, 65, 0
3, 25260, Note_on_c, 0, 62, 60
3, 25319, Note_on_c, 0, 62, 0
3, 25320, Note_on_c, 0, 65, 67
3, 25379, Note_on_c, 0, 65, 0
3, 25380, Note_on_c, 0, 62, 74
3, 25439, Note_on_c, 0, 62, 0
3, 25440, Note_on_c, 0, 64, 70
3, 25499, Note_on_c, 0, 64, 0
3, 25500, Note_on_c, 0, 60, 60
3, 25559, Note_on_c, 0, 60, 0
3, 25560, Note_on_c, 0, 64, 67
3, 25619, Note_on_c, 0, 64, 0
3, 25620, Note_on_c, 0, 60, 70
3, 25679, Note_on_c, 0, 60, 0
3, 25680, Note_on_c, 0, 65, 86
3, 25739, Note_on_c, 0, 65, 0
3, 25740, Note_on_c, 0, 60, 78
3, 25799, Note_on_c, 0, 60, 0
3, 25800, Note_on_c, 0, 65, 82
3, 25859, Note_on_c, 0, 65, 0
3, 25860, Note_on_c, 0, 60, 60
3, 25919, Note_on_c, 0, 60, 0
3, 25920, Note_on_c, 0, 64, 79
3, 25979, Note_on_c, 0, 64, 0
3, 25980, Note_on_c, 0, 60, 60
3, 26039, Note_on_c, 0, 60, 0
3, 26040, Note_on_c, 0, 64, 82
3, 26099, Note_on_c, 0, 64, 0
3, 26100, Note_on_c, 0, 60, 60
3, 26159, Note_on_c, 0, 60, 0
3, 26160, Note_on_c, 0, 65, 78
3, 26219, Note_on_c, 0, 65, 0
3, 26220, Note_on_c, 0, 62, 86
3, 26279, Note_on_c, 0, 62, 0
3, 26280, Note_on_c, 0, 65, 78
3, 26339, Note_on_c, 0, 65, 0
3, 26340, Note_on_c, 0, 62, 95
3, 26399, Note_on_c, 0, 62, 0
3, 26400, Note_on_c, 0, 64, 95
3, 26439, Note_on_c, 0, 64, 0
3, 26440, Note_on_c, 0, 76, 95
3, 26440, Note_on_c, 0, 72, 95
3, 26479, Note_on_c, 0, 72, 0
3, 26479, Note_on_c, 0, 76, 0
3, 26480, Note_on_c, 0, 76, 90
3, 26480, Note_on_c, 0, 72, 60
3, 26519, Note_on_c, 0, 72, 0
3, 26519, Note_on_c, 0, 76, 0
3, 26520, Note_on_c, 0, 72, 95
3, 26520, Note_on_c, 0, 76, 105
3, 26559, Note_on_c, 0, 76, 0
3, 26559, Note_on_c, 0, 72, 0
3, 26560, Note_on_c, 0, 77, 90
3, 26560, Note_on_c, 0, 72, 95
3, 26599, Note_on_c, 0, 72, 0
3, 26599, Note_on_c, 0, 77, 0
3, 26600, Note_on_c, 0, 79, 90
3, 26600, Note_on_c, 0, 72, 95
3, 26639, Note_on_c, 0, 72, 0
3, 26639, Note_on_c, 0, 79, 0
3, 26640, Note_on_c, 0, 81, 116
3, 26679, Note_on_c, 0, 81, 0
3, 26680, Note_on_c, 0, 72, 90
3, 26719, Note_on_c, 0, 72, 0
3, 26720, Note_on_c, 0, 81, 90
3, 26759, Note_on_c, 0, 81, 0
3, 26760, Note_on_c, 0, 72, 105
3, 26799, Note_on_c, 0, 72, 0
3, 26800, Note_on_c, 0, 79, 110
3, 26839, Note_on_c, 0, 79, 0
3, 26840, Note_on_c, 0, 77, 110
3, 26879, Note_on_c, 0, 77, 0
3, 26880, Note_on_c, 0, 76, 110
3, 26919, Note_on_c, 0, 76, 0
3, 26920, Note_on_c, 0, 67, 82
3, 26959, Note_on_c, 0, 67, 0
3, 26960, Note_on_c, 0, 76, 105
3, 26999, Note_on_c, 0, 76, 0
3, 27000, Note_on_c, 0, 67, 95
3, 27039, Note_on_c, 0, 67, 0
3, 27040, Note_on_c, 0, 74, 110
3, 27079, Note_on_c, 0, 74, 0
3, 27080, Note_on_c, 0, 72, 116
3, 27119, Note_on_c, 0, 72, 0
3, 27120, Note_on_c, 0, 65, 100
3, 27159, Note_on_c, 0, 65, 0
3, 27160, Note_on_c, 0, 62, 90
3, 27199, Note_on_c, 0, 62, 0
3, 27200, Note_on_c, 0, 65, 95
3, 27239, Note_on_c, 0, 65, 0
3, 27240, Note_on_c, 0, 62, 95
3, 27279, Note_on_c, 0, 62, 0
3, 27280, Note_on_c, 0, 64, 95
3, 27319, Note_on_c, 0, 64, 0
3, 27320, Note_on_c, 0, 65, 95
3, 27359, Note_on_c, 0, 65, 0
3, 27360, Note_on_c, 0, 60, 100
3, 27509, Note_on_c, 0, 60, 0
3, 27540, Note_on_c, 0, 64, 120
3, 27569, Note_on_c, 0, 64, 0
3, 27570, Note_on_c, 0, 62, 116
3, 27599, Note_on_c, 0, 62, 0
3, 27600, Note_on_c, 0, 60, 118
3, 27629, Note_on_c, 0, 60, 0
3, 27660, Note_on_c, 0, 64, 120
3, 27689, Note_on_c, 0, 64, 0
3, 27690, Note_on_c, 0, 62, 110
3, 27719, Note_on_c, 0, 62, 0
3, 27720, Note_on_c, 0, 60, 120
3, 27749, Note_on_c, 0, 60, 0
3, 27780, Note_on_c, 0, 69, 114
3, 27809, Note_on_c, 0, 69, 0
3, 27810, Note_on_c, 0, 66, 108
3, 27839, Note_on_c, 0, 66, 0
3, 27840, Note_on_c, 0, 67, 123
3, 27959, Note_on_c, 0, 67, 0
3, 28020, Note_on_c, 0, 69, 122
3, 28049, Note_on_c, 0, 69, 0
3, 28050, Note_on_c, 0, 67, 110
3, 28079, Note_on_c, 0, 67, 0
3, 28080, Note_on_c, 0, 64, 120
3, 28109, Note_on_c, 0, 64, 0
3, 28140, Note_on_c, 0, 67, 121
3, 28169, Note_on_c, 0, 67, 0
3, 28170, Note_on_c, 0, 65, 110
3, 28199, Note_on_c, 0, 65, 0
3, 28200, Note_on_c, 0, 62, 122
3, 28229, Note_on_c, 0, 62, 0
3, 28260, Note_on_c, 0, 65, 118
3, 28289, Note_on_c, 0, 65, 0
3, 28290, Note_on_c, 0, 64, 114
3, 28319, Note_on_c, 0, 64, 0
3, 28320, Note_on_c, 0, 60, 125
3, 28409, Note_on_c, 0, 60, 0
3, 28500, Note_on_c, 0, 64, 116
3, 28529, Note_on_c, 0, 64, 0
3, 28530, Note_on_c, 0, 62, 114
3, 28559, Note_on_c, 0, 62, 0
3, 28560, Note_on_c, 0, 60, 120
3, 28589, Note_on_c, 0, 60, 0
3, 28620, Note_on_c, 0, 64, 116
3, 28649, Note_on_c, 0, 64, 0
3, 28650, Note_on_c, 0, 62, 110
3, 28679, Note_on_c, 0, 62, 0
3, 28680, Note_on_c, 0, 60, 118
3, 28709, Note_on_c, 0, 60, 0
3, 28740, Note_on_c, 0, 69, 110
3, 28769, Note_on_c, 0, 69, 0
3, 28770, Note_on_c, 0, 66, 107
3, 28799, Note_on_c, 0, 66, 0
3, 28800, Note_on_c, 0, 67, 116
3, 28919, Note_on_c, 0, 67, 0
3, 28980, Note_on_c, 0, 69, 118
3, 29009, Note_on_c, 0, 69, 0
3, 29010, Note_on_c, 0, 67, 108
3, 29039, Note_on_c, 0, 67, 0
3, 29040, Note_on_c, 0, 64, 118
3, 29069, Note_on_c, 0, 64, 0
3, 29100, Note_on_c, 0, 67, 116
3, 29129, Note_on_c, 0, 67, 0
3, 29130, Note_on_c, 0, 65, 112
3, 29159, Note_on_c, 0, 65, 0
3, 29160, Note_on_c, 0, 62, 122
3, 29189, Note_on_c, 0, 62, 0
3, 29220, Note_on_c, 0, 65, 117
3, 29249, Note_on_c, 0, 65, 0
3, 29250, Note_on_c, 0, 64, 112
3, 29279, Note_on_c, 0, 64, 0
3, 29280, Note_on_c, 0, 60, 122
3, 29339, Note_on_c, 0, 60, 0
3, 29340, Note_on_c, 0, 67, 115
3, 29369, Note_on_c, 0, 67, 0
3, 29370, Note_on_c, 0, 64, 107
3, 29399, Note_on_c, 0, 64, 0
3, 29400, Note_on_c, 0, 62, 121
3, 29429, Note_on_c, 0, 62, 0
3, 29460, Note_on_c, 0, 67, 111
3, 29489, Note_on_c, 0, 67, 0
3, 29490, Note_on_c, 0, 65, 97
3, 29519, Note_on_c, 0, 65, 0
3, 29520, Note_on_c, 0, 60, 107
3, 29549, Note_on_c, 0, 60, 0
3, 29580, Note_on_c, 0, 67, 108
3, 29609, Note_on_c, 0, 67, 0
3, 29610, Note_on_c, 0, 64, 99
3, 29639, Note_on_c, 0, 64, 0
3, 29640, Note_on_c, 0, 62, 106
3, 29669, Note_on_c, 0, 62, 0
3, 29700, Note_on_c, 0, 67, 99
3, 29729, Note_on_c, 0, 67, 0
3, 29730, Note_on_c, 0, 65, 85
3, 29759, Note_on_c, 0, 65, 0
3, 29760, Note_on_c, 0, 60, 95
3, 29789, Note_on_c, 0, 60, 0
3, 29820, Note_on_c, 0, 67, 97
3, 29849, Note_on_c, 0, 67, 0
3, 29850, Note_on_c, 0, 64, 85
3, 29879, Note_on_c, 0, 64, 0
3, 29880, Note_on_c, 0, 62, 92
3, 29909, Note_on_c, 0, 62, 0
3, 29940, Note_on_c, 0, 67, 85
3, 29969, Note_on_c, 0, 67, 0
3, 29970, Note_on_c, 0, 65, 75
3, 29999, Note_on_c, 0, 65, 0
3, 30000, Note_on_c, 0, 60, 81
3, 30029, Note_on_c, 0, 60, 0
3, 30060, Note_on_c, 0, 67, 82
3, 30089, Note_on_c, 0, 67, 0
3, 30090, Note_on_c, 0, 64, 74
3, 30119, Note_on_c, 0, 64, 0
3, 30120, Note_on_c, 0, 62, 80
3, 30149, Note_on_c, 0, 62, 0
3, 30180, Note_on_c, 0, 67, 96
3, 30209, Note_on_c, 0, 67, 0
3, 30210, Note_on_c, 0, 65, 86
3, 30239, Note_on_c, 0, 65, 0
3, 30240, Note_on_c, 0, 60, 92
3, 30269, Note_on_c, 0, 60, 0
3, 30300, Note_on_c, 0, 67, 90
3, 30329, Note_on_c, 0, 67, 0
3, 30330, Note_on_c, 0, 64, 84
3, 30359, Note_on_c, 0, 64, 0
3, 30360, Note_on_c, 0, 62, 90
3, 30389, Note_on_c, 0, 62, 0
3, 30420, Note_on_c, 0, 67, 86
3, 30449, Note_on_c, 0, 67, 0
3, 30450, Note_on_c, 0, 65, 81
3, 30479, Note_on_c, 0, 65, 0
3, 30480, Note_on_c, 0, 60, 86
3, 30509, Note_on_c, 0, 60, 0
3, 30540, Note_on_c, 0, 67, 90
3, 30569, Note_on_c, 0, 67, 0
3, 30570, Note_on_c, 0, 64, 82
3, 30599, Note_on_c, 0, 64, 0
3, 30600, Note_on_c, 0, 62, 90
3, 30629, Note_on_c, 0, 62, 0
3, 30660, Note_on_c, 0, 67, 78
3, 30689, Note_on_c, 0, 67, 0
3, 30690, Note_on_c, 0, 65, 76
3, 30719, Note_on_c, 0, 65, 0
3, 30720, Note_on_c, 0, 60, 82
3, 30749, Note_on_c, 0, 60, 0
3, 30780, Note_on_c, 0, 67, 77
3, 30809, Note_on_c, 0, 67, 0
3, 30810, Note_on_c, 0, 64, 70
3, 30839, Note_on_c, 0, 64, 0
3, 30840, Note_on_c, 0, 62, 77
3, 30869, Note_on_c, 0, 62, 0
3, 30900, Note_on_c, 0, 67, 77
3, 30929, Note_on_c, 0, 67, 0
3, 30930, Note_on_c, 0, 65, 71
3, 30959, Note_on_c, 0, 65, 0
3, 30960, Note_on_c, 0, 60, 74
3, 30989, Note_on_c, 0, 60, 0
3, 31020, Note_on_c, 0, 67, 68
3, 31049, Note_on_c, 0, 67, 0
3, 31050, Note_on_c, 0, 64, 62
3, 31079, Note_on_c, 0, 64, 0
3, 31080, Note_on_c, 0, 62, 68
3, 31109, Note_on_c, 0, 62, 0
3, 31140, Note_on_c, 0, 67, 63
3, 31169, Note_on_c, 0, 67, 0
3, 31170, Note_on_c, 0, 65, 56
3, 31199, Note_on_c, 0, 65, 0
3, 31200, Note_on_c, 0, 60, 60
3, 31289, Note_on_c, 0, 60, 0
3, 31289, End_track
4, 0, Start_track
4, 0, MIDI_port, 0
4, 0, Title_t, "Viola"
4, 0, Program_c, 1, 41
4, 0, Control_c, 1, 7, 100
4, 0, Control_c, 1, 10, 90
4, 0, Control_c, 1, 121, 0
4, 0, Control_c, 1, 0, 0
4, 0, Program_c, 1, 41
4, 0, Control_c, 1, 10, 90
4, 0, Pitch_bend_c, 1, 8192
4, 0, Control_c, 1, 91, 100
4, 0, Control_c, 1, 93, 50
4, 0, Control_c, 1, 7, 100
4, 0, Note_on_c, 1, 48, 76
4, 659, Note_on_c, 1, 48, 0
4, 720, Note_on_c, 1, 48, 70
4, 959, Note_on_c, 1, 48, 0
4, 960, Note_on_c, 1, 53, 77
4, 1079, Note_on_c, 1, 53, 0
4, 1080, Note_on_c, 1, 50, 71
4, 1199, Note_on_c, 1, 50, 0
4, 1200, Note_on_c, 1, 52, 81
4, 1379, Note_on_c, 1, 52, 0
4, 1380, Note_on_c, 1, 48, 62
4, 1439, Note_on_c, 1, 48, 0
4, 1440, Note_on_c, 1, 53, 72
4, 1559, Note_on_c, 1, 53, 0
4, 1560, Note_on_c, 1, 50, 67
4, 1679, Note_on_c, 1, 50, 0
4, 1680, Note_on_c, 1, 52, 74
4, 1859, Note_on_c, 1, 52, 0
4, 1860, Note_on_c, 1, 48, 73
4, 1919, Note_on_c, 1, 48, 0
4, 1920, Note_on_c, 1, 53, 75
4, 2039, Note_on_c, 1, 53, 0
4, 2040, Note_on_c, 1, 60, 85
4, 2159, Note_on_c, 1, 60, 0
4, 2160, Note_on_c, 1, 60, 101
4, 2339, Note_on_c, 1, 60, 0
4, 2340, Note_on_c, 1, 65, 99
4, 2399, Note_on_c, 1, 65, 0
4, 2400, Note_on_c, 1, 65, 105
4, 2519, Note_on_c, 1, 65, 0
4, 2520, Note_on_c, 1, 60, 101
4, 2639, Note_on_c, 1, 60, 0
4, 2640, Note_on_c, 1, 60, 99
4, 2819, Note_on_c, 1, 60, 0
4, 2880, Note_on_c, 1, 60, 95
4, 2880, Note_on_c, 1, 57, 95
4, 2999, Note_on_c, 1, 57, 0
4, 2999, Note_on_c, 1, 60, 0
4, 3000, Note_on_c, 1, 57, 98
4, 3000, Note_on_c, 1, 53, 98
4, 3119, Note_on_c, 1, 53, 0
4, 3119, Note_on_c, 1, 57, 0
4, 3120, Note_on_c, 1, 58, 93
4, 3120, Note_on_c, 1, 55, 93
4, 3299, Note_on_c, 1, 55, 0
4, 3299, Note_on_c, 1, 58, 0
4, 3300, Note_on_c, 1, 60, 89
4, 3300, Note_on_c, 1, 57, 89
4, 3359, Note_on_c, 1, 57, 0
4, 3359, Note_on_c, 1, 60, 0
4, 3360, Note_on_c, 1, 62, 93
4, 3419, Note_on_c, 1, 62, 0
4, 3420, Note_on_c, 1, 64, 97
4, 3479, Note_on_c, 1, 64, 0
4, 3480, Note_on_c, 1, 65, 104
4, 3539, Note_on_c, 1, 65, 0
4, 3540, Note_on_c, 1, 48, 96
4, 3599, Note_on_c, 1, 48, 0
4, 3600, Note_on_c, 1, 55, 78
4, 3779, Note_on_c, 1, 55, 0
4, 3780, Note_on_c, 1, 62, 72
4, 3839, Note_on_c, 1, 62, 0
4, 3840, Note_on_c, 1, 55, 74
4, 4019, Note_on_c, 1, 55, 0
4, 4020, Note_on_c, 1, 62, 73
4, 4079, Note_on_c, 1, 62, 0
4, 4080, Note_on_c, 1, 55, 76
4, 4259, Note_on_c, 1, 55, 0
4, 4260, Note_on_c, 1, 62, 81
4, 4319, Note_on_c, 1, 62, 0
4, 4320, Note_on_c, 1, 55, 90
4, 4499, Note_on_c, 1, 55, 0
4, 4500, Note_on_c, 1, 62, 102
4, 4559, Note_on_c, 1, 62, 0
4, 4560, Note_on_c, 1, 55, 108
4, 4739, Note_on_c, 1, 55, 0
4, 4740, Note_on_c, 1, 62, 113
4, 4799, Note_on_c, 1, 62, 0
4, 4800, Note_on_c, 1, 55, 117
4, 4979, Note_on_c, 1, 55, 0
4, 4980, Note_on_c, 1, 62, 100
4, 5039, Note_on_c, 1, 62, 0
4, 5040, Note_on_c, 1, 55, 96
4, 5219, Note_on_c, 1, 55, 0
4, 5220, Note_on_c, 1, 62, 71
4, 5279, Note_on_c, 1, 62, 0
4, 5280, Note_on_c, 1, 55, 70
4, 5459, Note_on_c, 1, 55, 0
4, 5460, Note_on_c, 1, 62, 65
4, 5519, Note_on_c, 1, 62, 0
4, 5520, Note_on_c, 1, 55, 63
4, 5669, Note_on_c, 1, 55, 0
4, 5700, Note_on_c, 1, 62, 63
4, 5759, Note_on_c, 1, 62, 0
4, 5760, Note_on_c, 1, 55, 63
4, 5819, Note_on_c, 1, 55, 0
4, 7680, Note_on_c, 1, 60, 82
4, 8639, Note_on_c, 1, 60, 0
4, 13440, Note_on_c, 1, 62, 82
4, 13499, Note_on_c, 1, 62, 0
4, 14400, Note_on_c, 1, 60, 82
4, 14459, Note_on_c, 1, 60, 0
4, 14880, Note_on_c, 1, 62, 82
4, 14880, Note_on_c, 1, 59, 82
4, 14939, Note_on_c, 1, 59, 0
4, 14939, Note_on_c, 1, 62, 0
4, 15840, Note_on_c, 1, 50, 72
4, 15899, Note_on_c, 1, 50, 0
4, 15900, Note_on_c, 1, 53, 75
4, 15959, Note_on_c, 1, 53, 0
4, 15960, Note_on_c, 1, 50, 73
4, 16019, Note_on_c, 1, 50, 0
4, 16020, Note_on_c, 1, 53, 71
4, 16079, Note_on_c, 1, 53, 0
4, 16080, Note_on_c, 1, 50, 73
4, 16139, Note_on_c, 1, 50, 0
4, 16140, Note_on_c, 1, 53, 72
4, 16199, Note_on_c, 1, 53, 0
4, 16200, Note_on_c, 1, 50, 72
4, 16259, Note_on_c, 1, 50, 0
4, 16260, Note_on_c, 1, 53, 66
4, 16319, Note_on_c, 1, 53, 0
4, 16320, Note_on_c, 1, 52, 70
4, 16379, Note_on_c, 1, 52, 0
4, 16380, Note_on_c, 1, 55, 73
4, 16439, Note_on_c, 1, 55, 0
4, 16440, Note_on_c, 1, 52, 73
4, 16499, Note_on_c, 1, 52, 0
4, 16500, Note_on_c, 1, 55, 71
4, 16559, Note_on_c, 1, 55, 0
4, 16560, Note_on_c, 1, 52, 69
4, 16619, Note_on_c, 1, 52, 0
4, 16620, Note_on_c, 1, 55, 67
4, 16679, Note_on_c, 1, 55, 0
4, 16680, Note_on_c, 1, 52, 66
4, 16739, Note_on_c, 1, 52, 0
4, 16740, Note_on_c, 1, 55, 67
4, 16799, Note_on_c, 1, 55, 0
4, 16800, Note_on_c, 1, 53, 70
4, 16859, Note_on_c, 1, 53, 0
4, 16860, Note_on_c, 1, 55, 69
4, 16919, Note_on_c, 1, 55, 0
4, 16920, Note_on_c, 1, 53, 67
4, 16979, Note_on_c, 1, 53, 0
4, 16980, Note_on_c, 1, 55, 65
4, 17039, Note_on_c, 1, 55, 0
4, 17040, Note_on_c, 1, 53, 64
4, 17099, Note_on_c, 1, 53, 0
4, 17100, Note_on_c, 1, 55, 68
4, 17159, Note_on_c, 1, 55, 0
4, 17160, Note_on_c, 1, 53, 77
4, 17219, Note_on_c, 1, 53, 0
4, 17220, Note_on_c, 1, 55, 71
4, 17279, Note_on_c, 1, 55, 0
4, 17280, Note_on_c, 1, 52, 69
4, 17339, Note_on_c, 1, 52, 0
4, 17340, Note_on_c, 1, 55, 67
4, 17399, Note_on_c, 1, 55, 0
4, 17400, Note_on_c, 1, 52, 69
4, 17459, Note_on_c, 1, 52, 0
4, 17460, Note_on_c, 1, 55, 67
4, 17519, Note_on_c, 1, 55, 0
4, 17520, Note_on_c, 1, 52, 67
4, 17579, Note_on_c, 1, 52, 0
4, 17580, Note_on_c, 1, 55, 73
4, 17639, Note_on_c, 1, 55, 0
4, 17640, Note_on_c, 1, 52, 68
4, 17699, Note_on_c, 1, 52, 0
4, 17700, Note_on_c, 1, 55, 75
4, 17759, Note_on_c, 1, 55, 0
4, 17760, Note_on_c, 1, 59, 73
4, 17819, Note_on_c, 1, 59, 0
4, 17820, Note_on_c, 1, 55, 73
4, 17879, Note_on_c, 1, 55, 0
4, 17880, Note_on_c, 1, 59, 73
4, 17939, Note_on_c, 1, 59, 0
4, 17940, Note_on_c, 1, 55, 73
4, 17999, Note_on_c, 1, 55, 0
4, 18000, Note_on_c, 1, 59, 74
4, 18059, Note_on_c, 1, 59, 0
4, 18060, Note_on_c, 1, 55, 79
4, 18119, Note_on_c, 1, 55, 0
4, 18120, Note_on_c, 1, 59, 83
4, 18179, Note_on_c, 1, 59, 0
4, 18180, Note_on_c, 1, 55, 84
4, 18239, Note_on_c, 1, 55, 0
4, 18240, Note_on_c, 1, 60, 80
4, 18299, Note_on_c, 1, 60, 0
4, 18300, Note_on_c, 1, 55, 79
4, 18359, Note_on_c, 1, 55, 0
4, 18360, Note_on_c, 1, 60, 81
4, 18419, Note_on_c, 1, 60, 0
4, 18420, Note_on_c, 1, 55, 79
4, 18479, Note_on_c, 1, 55, 0
4, 18480, Note_on_c, 1, 60, 76
4, 18539, Note_on_c, 1, 60, 0
4, 18540, Note_on_c, 1, 55, 76
4, 18599, Note_on_c, 1, 55, 0
4, 18600, Note_on_c, 1, 60, 75
4, 18659, Note_on_c, 1, 60, 0
4, 18660, Note_on_c, 1, 55, 75
4, 18719, Note_on_c, 1, 55, 0
4, 18720, Note_on_c, 1, 62, 82
4, 18779, Note_on_c, 1, 62, 0
4, 18780, Note_on_c, 1, 55, 82
4, 18839, Note_on_c, 1, 55, 0
4, 18840, Note_on_c, 1, 62, 81
4, 18899, Note_on_c, 1, 62, 0
4, 18900, Note_on_c, 1, 55, 80
4, 18959, Note_on_c, 1, 55, 0
4, 18960, Note_on_c, 1, 62, 78
4, 19019, Note_on_c, 1, 62, 0
4, 19020, Note_on_c, 1, 55, 78
4, 19079, Note_on_c, 1, 55, 0
4, 19080, Note_on_c, 1, 62, 76
4, 19139, Note_on_c, 1, 62, 0
4, 19140, Note_on_c, 1, 55, 78
4, 19199, Note_on_c, 1, 55, 0
4, 19200, Note_on_c, 1, 64, 78
4, 19259, Note_on_c, 1, 64, 0
4, 19260, Note_on_c, 1, 55, 80
4, 19319, Note_on_c, 1, 55, 0
4, 19320, Note_on_c, 1, 64, 78
4, 19379, Note_on_c, 1, 64, 0
4, 19380, Note_on_c, 1, 55, 78
4, 19439, Note_on_c, 1, 55, 0
4, 19440, Note_on_c, 1, 64, 76
4, 19499, Note_on_c, 1, 64, 0
4, 19500, Note_on_c, 1, 55, 76
4, 19559, Note_on_c, 1, 55, 0
4, 19560, Note_on_c, 1, 64, 78
4, 19619, Note_on_c, 1, 64, 0
4, 19620, Note_on_c, 1, 55, 82
4, 19679, Note_on_c, 1, 55, 0
4, 19680, Note_on_c, 1, 65, 82
4, 19719, Note_on_c, 1, 65, 0
4, 19720, Note_on_c, 1, 62, 82
4, 19759, Note_on_c, 1, 62, 0
4, 19760, Note_on_c, 1, 65, 82
4, 19799, Note_on_c, 1, 65, 0
4, 19800, Note_on_c, 1, 62, 82
4, 19839, Note_on_c, 1, 62, 0
4, 19840, Note_on_c, 1, 65, 95
4, 19879, Note_on_c, 1, 65, 0
4, 19890, Note_on_c, 1, 62, 82
4, 19920, Note_on_c, 1, 65, 82
4, 19929, Note_on_c, 1, 62, 0
4, 19959, Note_on_c, 1, 65, 0
4, 19960, Note_on_c, 1, 62, 78
4, 19999, Note_on_c, 1, 62, 0
4, 20010, Note_on_c, 1, 65, 74
4, 20040, Note_on_c, 1, 62, 95
4, 20049, Note_on_c, 1, 65, 0
4, 20079, Note_on_c, 1, 62, 0
4, 20080, Note_on_c, 1, 65, 78
4, 20119, Note_on_c, 1, 65, 0
4, 20120, Note_on_c, 1, 62, 74
4, 20159, Note_on_c, 1, 62, 0
4, 20160, Note_on_c, 1, 67, 90
4, 20199, Note_on_c, 1, 67, 0
4, 20200, Note_on_c, 1, 64, 100
4, 20239, Note_on_c, 1, 64, 0
4, 20240, Note_on_c, 1, 67, 60
4, 20279, Note_on_c, 1, 67, 0
4, 20280, Note_on_c, 1, 64, 90
4, 20319, Note_on_c, 1, 64, 0
4, 20320, Note_on_c, 1, 67, 67
4, 20359, Note_on_c, 1, 67, 0
4, 20360, Note_on_c, 1, 64, 95
4, 20399, Note_on_c, 1, 64, 0
4, 20400, Note_on_c, 1, 67, 74
4, 20439, Note_on_c, 1, 67, 0
4, 20440, Note_on_c, 1, 64, 95
4, 20479, Note_on_c, 1, 64, 0
4, 20480, Note_on_c, 1, 67, 78
4, 20519, Note_on_c, 1, 67, 0
4, 20520, Note_on_c, 1, 64, 95
4, 20559, Note_on_c, 1, 64, 0
4, 20560, Note_on_c, 1, 67, 70
4, 20599, Note_on_c, 1, 67, 0
4, 20610, Note_on_c, 1, 64, 78
4, 20640, Note_on_c, 1, 67, 72
4, 20649, Note_on_c, 1, 64, 0
4, 20679, Note_on_c, 1, 67, 0
4, 20680, Note_on_c, 1, 65, 77
4, 20719, Note_on_c, 1, 65, 0
4, 20720, Note_on_c, 1, 67, 73
4, 20759, Note_on_c, 1, 67, 0
4, 20760, Note_on_c, 1, 65, 81
4, 20799, Note_on_c, 1, 65, 0
4, 20800, Note_on_c, 1, 67, 74
4, 20839, Note_on_c, 1, 67, 0
4, 20840, Note_on_c, 1, 65, 87
4, 20879, Note_on_c, 1, 65, 0
4, 20880, Note_on_c, 1, 67, 72
4, 20919, Note_on_c, 1, 67, 0
4, 20920, Note_on_c, 1, 65, 77
4, 20959, Note_on_c, 1, 65, 0
4, 20960, Note_on_c, 1, 67, 73
4, 20999, Note_on_c, 1, 67, 0
4, 21000, Note_on_c, 1, 65, 81
4, 21039, Note_on_c, 1, 65, 0
4, 21040, Note_on_c, 1, 67, 74
4, 21079, Note_on_c, 1, 67, 0
4, 21080, Note_on_c, 1, 65, 87
4, 21119, Note_on_c, 1, 65, 0
4, 21120, Note_on_c, 1, 67, 90
4, 21159, Note_on_c, 1, 67, 0
4, 21160, Note_on_c, 1, 64, 95
4, 21199, Note_on_c, 1, 64, 0
4, 21200, Note_on_c, 1, 67, 64
4, 21239, Note_on_c, 1, 67, 0
4, 21240, Note_on_c, 1, 64, 90
4, 21279, Note_on_c, 1, 64, 0
4, 21280, Note_on_c, 1, 67, 60
4, 21319, Note_on_c, 1, 67, 0
4, 21320, Note_on_c, 1, 64, 78
4, 21359, Note_on_c, 1, 64, 0
4, 21360, Note_on_c, 1, 67, 90
4, 21399, Note_on_c, 1, 67, 0
4, 21400, Note_on_c, 1, 64, 95
4, 21439, Note_on_c, 1, 64, 0
4, 21440, Note_on_c, 1, 67, 64
4, 21479, Note_on_c, 1, 67, 0
4, 21480, Note_on_c, 1, 64, 90
4, 21519, Note_on_c, 1, 64, 0
4, 21520, Note_on_c, 1, 67, 60
4, 21559, Note_on_c, 1, 67, 0
4, 21560, Note_on_c, 1, 64, 78
4, 21599, Note_on_c, 1, 64, 0
4, 21600, Note_on_c, 1, 67, 83
4, 21639, Note_on_c, 1, 67, 0
4, 21640, Note_on_c, 1, 65, 71
4, 21679, Note_on_c, 1, 65, 0
4, 21680, Note_on_c, 1, 67, 71
4, 21719, Note_on_c, 1, 67, 0
4, 21720, Note_on_c, 1, 65, 70
4, 21749, Note_on_c, 1, 65, 0
4, 21760, Note_on_c, 1, 67, 70
4, 21799, Note_on_c, 1, 67, 0
4, 21800, Note_on_c, 1, 65, 71
4, 21839, Note_on_c, 1, 65, 0
4, 21840, Note_on_c, 1, 67, 73
4, 21879, Note_on_c, 1, 67, 0
4, 21880, Note_on_c, 1, 65, 73
4, 21919, Note_on_c, 1, 65, 0
4, 21920, Note_on_c, 1, 67, 73
4, 21959, Note_on_c, 1, 67, 0
4, 21960, Note_on_c, 1, 65, 71
4, 21999, Note_on_c, 1, 65, 0
4, 22000, Note_on_c, 1, 67, 74
4, 22039, Note_on_c, 1, 67, 0
4, 22040, Note_on_c, 1, 65, 79
4, 22079, Note_on_c, 1, 65, 0
4, 22080, Note_on_c, 1, 64, 85
4, 22080, Note_on_c, 1, 67, 85
4, 22260, Note_on_c, 1, 69, 95
4, 22289, Note_on_c, 1, 69, 0
4, 22289, Note_on_c, 1, 67, 0
4, 22289, Note_on_c, 1, 64, 0
4, 22290, Note_on_c, 1, 71, 100
4, 22319, Note_on_c, 1, 71, 0
4, 22320, Note_on_c, 1, 72, 110
4, 22379, Note_on_c, 1, 72, 0
4, 22380, Note_on_c, 1, 71, 105
4, 22409, Note_on_c, 1, 71, 0
4, 22410, Note_on_c, 1, 69, 90
4, 22439, Note_on_c, 1, 69, 0
4, 22440, Note_on_c, 1, 67, 95
4, 22499, Note_on_c, 1, 67, 0
4, 22500, Note_on_c, 1, 69, 86
4, 22529, Note_on_c, 1, 69, 0
4, 22530, Note_on_c, 1, 71, 105
4, 22559, Note_on_c, 1, 71, 0
4, 22560, Note_on_c, 1, 72, 95
4, 22619, Note_on_c, 1, 72, 0
4, 22620, Note_on_c, 1, 71, 105
4, 22649, Note_on_c, 1, 71, 0
4, 22650, Note_on_c, 1, 69, 95
4, 22679, Note_on_c, 1, 69, 0
4, 22680, Note_on_c, 1, 67, 100
4, 22740, Note_on_c, 1, 69, 90
4, 22769, Note_on_c, 1, 69, 0
4, 22769, Note_on_c, 1, 67, 0
4, 22770, Note_on_c, 1, 71, 100
4, 22799, Note_on_c, 1, 71, 0
4, 22800, Note_on_c, 1, 72, 97
4, 22919, Note_on_c, 1, 72, 0
4, 23040, Note_on_c, 1, 57, 75
4, 23099, Note_on_c, 1, 57, 0
4, 23100, Note_on_c, 1, 60, 75
4, 23159, Note_on_c, 1, 60, 0
4, 23160, Note_on_c, 1, 57, 73
4, 23219, Note_on_c, 1, 57, 0
4, 23220, Note_on_c, 1, 60, 70
4, 23279, Note_on_c, 1, 60, 0
4, 23280, Note_on_c, 1, 55, 69
4, 23339, Note_on_c, 1, 55, 0
4, 23340, Note_on_c, 1, 60, 67
4, 23399, Note_on_c, 1, 60, 0
4, 23400, Note_on_c, 1, 55, 69
4, 23459, Note_on_c, 1, 55, 0
4, 23460, Note_on_c, 1, 60, 71
4, 23519, Note_on_c, 1, 60, 0
4, 23520, Note_on_c, 1, 55, 71
4, 23580, Note_on_c, 1, 59, 71
4, 23609, Note_on_c, 1, 55, 0
4, 23639, Note_on_c, 1, 59, 0
4, 23640, Note_on_c, 1, 55, 70
4, 23699, Note_on_c, 1, 55, 0
4, 23700, Note_on_c, 1, 59, 71
4, 23759, Note_on_c, 1, 59, 0
4, 23760, Note_on_c, 1, 64, 100
4, 23760, Note_on_c, 1, 67, 74
4, 23940, Note_on_c, 1, 69, 95
4, 23969, Note_on_c, 1, 69, 0
4, 23969, Note_on_c, 1, 67, 0
4, 23969, Note_on_c, 1, 64, 0
4, 23970, Note_on_c, 1, 71, 100
4, 23999, Note_on_c, 1, 71, 0
4, 24000, Note_on_c, 1, 72, 110
4, 24059, Note_on_c, 1, 72, 0
4, 24060, Note_on_c, 1, 71, 105
4, 24089, Note_on_c, 1, 71, 0
4, 24090, Note_on_c, 1, 69, 90
4, 24119, Note_on_c, 1, 69, 0
4, 24120, Note_on_c, 1, 67, 95
4, 24179, Note_on_c, 1, 67, 0
4, 24180, Note_on_c, 1, 69, 86
4, 24209, Note_on_c, 1, 69, 0
4, 24210, Note_on_c, 1, 71, 105
4, 24239, Note_on_c, 1, 71, 0
4, 24240, Note_on_c, 1, 72, 95
4, 24299, Note_on_c, 1, 72, 0
4, 24300, Note_on_c, 1, 71, 105
4, 24329, Note_on_c, 1, 71, 0
4, 24330, Note_on_c, 1, 69, 95
4, 24359, Note_on_c, 1, 69, 0
4, 24360, Note_on_c, 1, 67, 100
4, 24420, Note_on_c, 1, 69, 90
4, 24449, Note_on_c, 1, 69, 0
4, 24449, Note_on_c, 1, 67, 0
4, 24450, Note_on_c, 1, 71, 100
4, 24479, Note_on_c, 1, 71, 0
4, 24480, Note_on_c, 1, 72, 100
4, 24569, Note_on_c, 1, 72, 0
4, 24720, Note_on_c, 1, 57, 72
4, 24779, Note_on_c, 1, 57, 0
4, 24780, Note_on_c, 1, 60, 72
4, 24839, Note_on_c, 1, 60, 0
4, 24840, Note_on_c, 1, 57, 66
4, 24899, Note_on_c, 1, 57, 0
4, 24900, Note_on_c, 1, 60, 64
4, 24959, Note_on_c, 1, 60, 0
4, 24960, Note_on_c, 1, 55, 62
4, 25019, Note_on_c, 1, 55, 0
4, 25020, Note_on_c, 1, 60, 63
4, 25079, Note_on_c, 1, 60, 0
4, 25080, Note_on_c, 1, 55, 63
4, 25139, Note_on_c, 1, 55, 0
4, 25140, Note_on_c, 1, 60, 64
4, 25199, Note_on_c, 1, 60, 0
4, 25200, Note_on_c, 1, 55, 66
4, 25260, Note_on_c, 1, 59, 64
4, 25289, Note_on_c, 1, 55, 0
4, 25319, Note_on_c, 1, 59, 0
4, 25320, Note_on_c, 1, 55, 64
4, 25379, Note_on_c, 1, 55, 0
4, 25380, Note_on_c, 1, 59, 64
4, 25439, Note_on_c, 1, 59, 0
4, 25440, Note_on_c, 1, 55, 66
4, 25469, Note_on_c, 1, 55, 0
4, 25500, Note_on_c, 1, 60, 69
4, 25539, Note_on_c, 1, 60, 0
4, 25560, Note_on_c, 1, 60, 64
4, 25599, Note_on_c, 1, 60, 0
4, 25620, Note_on_c, 1, 60, 66
4, 25659, Note_on_c, 1, 60, 0
4, 25680, Note_on_c, 1, 57, 72
4, 25739, Note_on_c, 1, 57, 0
4, 25740, Note_on_c, 1, 60, 72
4, 25799, Note_on_c, 1, 60, 0
4, 25800, Note_on_c, 1, 57, 66
4, 25859, Note_on_c, 1, 57, 0
4, 25860, Note_on_c, 1, 60, 64
4, 25919, Note_on_c, 1, 60, 0
4, 25920, Note_on_c, 1, 55, 62
4, 25979, Note_on_c, 1, 55, 0
4, 25980, Note_on_c, 1, 60, 63
4, 26039, Note_on_c, 1, 60, 0
4, 26040, Note_on_c, 1, 55, 63
4, 26099, Note_on_c, 1, 55, 0
4, 26100, Note_on_c, 1, 60, 64
4, 26159, Note_on_c, 1, 60, 0
4, 26160, Note_on_c, 1, 55, 66
4, 26220, Note_on_c, 1, 59, 64
4, 26249, Note_on_c, 1, 55, 0
4, 26279, Note_on_c, 1, 59, 0
4, 26280, Note_on_c, 1, 55, 64
4, 26339, Note_on_c, 1, 55, 0
4, 26340, Note_on_c, 1, 59, 64
4, 26399, Note_on_c, 1, 59, 0
4, 26400, Note_on_c, 1, 60, 91
4, 26439, Note_on_c, 1, 60, 0
4, 26440, Note_on_c, 1, 67, 97
4, 26479, Note_on_c, 1, 67, 0
4, 26480, Note_on_c, 1, 67, 101
4, 26519, Note_on_c, 1, 67, 0
4, 26520, Note_on_c, 1, 67, 103
4, 26559, Note_on_c, 1, 67, 0
4, 26560, Note_on_c, 1, 65, 102
4, 26599, Note_on_c, 1, 65, 0
4, 26600, Note_on_c, 1, 64, 101
4, 26639, Note_on_c, 1, 64, 0
4, 26640, Note_on_c, 1, 69, 99
4, 26679, Note_on_c, 1, 69, 0
4, 26680, Note_on_c, 1, 69, 97
4, 26719, Note_on_c, 1, 69, 0
4, 26720, Note_on_c, 1, 69, 95
4, 26759, Note_on_c, 1, 69, 0
4, 26760, Note_on_c, 1, 65, 95
4, 26799, Note_on_c, 1, 65, 0
4, 26800, Note_on_c, 1, 65, 95
4, 26839, Note_on_c, 1, 65, 0
4, 26840, Note_on_c, 1, 65, 97
4, 26879, Note_on_c, 1, 65, 0
4, 26880, Note_on_c, 1, 67, 99
4, 26919, Note_on_c, 1, 67, 0
4, 26920, Note_on_c, 1, 67, 99
4, 26959, Note_on_c, 1, 67, 0
4, 26960, Note_on_c, 1, 67, 99
4, 26999, Note_on_c, 1, 67, 0
4, 27000, Note_on_c, 1, 64, 99
4, 27039, Note_on_c, 1, 64, 0
4, 27040, Note_on_c, 1, 64, 97
4, 27079, Note_on_c, 1, 64, 0
4, 27080, Note_on_c, 1, 64, 94
4, 27119, Note_on_c, 1, 64, 0
4, 27120, Note_on_c, 1, 62, 89
4, 27159, Note_on_c, 1, 62, 0
4, 27160, Note_on_c, 1, 62, 86
4, 27199, Note_on_c, 1, 62, 0
4, 27200, Note_on_c, 1, 62, 86
4, 27239, Note_on_c, 1, 62, 0
4, 27240, Note_on_c, 1, 62, 86
4, 27279, Note_on_c, 1, 62, 0
4, 27280, Note_on_c, 1, 60, 88
4, 27319, Note_on_c, 1, 60, 0
4, 27320, Note_on_c, 1, 62, 89
4, 27359, Note_on_c, 1, 62, 0
4, 27360, Note_on_c, 1, 60, 89
4, 27399, Note_on_c, 1, 60, 0
4, 27400, Note_on_c, 1, 60, 91
4, 27439, Note_on_c, 1, 60, 0
4, 27440, Note_on_c, 1, 60, 91
4, 27479, Note_on_c, 1, 60, 0
4, 27480, Note_on_c, 1, 60, 93
4, 27879, Note_on_c, 1, 60, 0
4, 27880, Note_on_c, 1, 60, 84
4, 27919, Note_on_c, 1, 60, 0
4, 27920, Note_on_c, 1, 60, 84
4, 27959, Note_on_c, 1, 60, 0
4, 27960, Note_on_c, 1, 60, 85
4, 28319, Note_on_c, 1, 60, 0
4, 28360, Note_on_c, 1, 60, 89
4, 28399, Note_on_c, 1, 60, 0
4, 28400, Note_on_c, 1, 60, 89
4, 28439, Note_on_c, 1, 60, 0
4, 28440, Note_on_c, 1, 60, 91
4, 28839, Note_on_c, 1, 60, 0
4, 28840, Note_on_c, 1, 60, 83
4, 28879, Note_on_c, 1, 60, 0
4, 28880, Note_on_c, 1, 60, 83
4, 28919, Note_on_c, 1, 60, 0
4, 28920, Note_on_c, 1, 60, 84
4, 29199, Note_on_c, 1, 60, 0
4, 29240, Note_on_c, 1, 60, 78
4, 29240, Note_on_c, 1, 60, 78
4, 29279, Note_on_c, 1, 60, 0
4, 29279, Note_on_c, 1, 60, 0
4, 29280, Note_on_c, 1, 60, 86
4, 29399, Note_on_c, 1, 60, 0
4, 29480, Note_on_c, 1, 60, 86
4, 29480, Note_on_c, 1, 60, 86
4, 29519, Note_on_c, 1, 60, 0
4, 29519, Note_on_c, 1, 60, 0
4, 29520, Note_on_c, 1, 60, 86
4, 29679, Note_on_c, 1, 60, 0
4, 29720, Note_on_c, 1, 60, 81
4, 29720, Note_on_c, 1, 60, 81
4, 29759, Note_on_c, 1, 60, 0
4, 29759, Note_on_c, 1, 60, 0
4, 29760, Note_on_c, 1, 60, 84
4, 29839, Note_on_c, 1, 60, 0
4, 29960, Note_on_c, 1, 60, 81
4, 29960, Note_on_c, 1, 60, 81
4, 29999, Note_on_c, 1, 60, 0
4, 29999, Note_on_c, 1, 60, 0
4, 30000, Note_on_c, 1, 60, 87
4, 30079, Note_on_c, 1, 60, 0
4, 30200, Note_on_c, 1, 60, 84
4, 30200, Note_on_c, 1, 60, 84
4, 30239, Note_on_c, 1, 60, 0
4, 30239, Note_on_c, 1, 60, 0
4, 30240, Note_on_c, 1, 60, 85
4, 30319, Note_on_c, 1, 60, 0
4, 30319, End_track
5, 0, Start_track
5, 0, MIDI_port, 0
5, 0, Title_t, "Cello"
5, 0, Program_c, 2, 42
5, 0, Control_c, 2, 7, 100
5, 0, Control_c, 2, 10, 100
5, 0, Control_c, 2, 121, 0
5, 0, Control_c, 2, 0, 0
5, 0, Program_c, 2, 42
5, 0, Pitch_bend_c, 2, 8192
5, 0, Control_c, 2, 10, 100
5, 0, Control_c, 2, 91, 90
5, 0, Control_c, 2, 93, 20
5, 0, Control_c, 2, 7, 100
5, 0, Note_on_c, 2, 41, 72
5, 719, Note_on_c, 2, 41, 0
5, 720, Note_on_c, 2, 36, 67
5, 959, Note_on_c, 2, 36, 0
5, 960, Note_on_c, 2, 41, 71
5, 1409, Note_on_c, 2, 41, 0
5, 1440, Note_on_c, 2, 41, 74
5, 1919, Note_on_c, 2, 41, 0
5, 1920, Note_on_c, 2, 53, 88
5, 2039, Note_on_c, 2, 53, 0
5, 2040, Note_on_c, 2, 57, 102
5, 2159, Note_on_c, 2, 57, 0
5, 2160, Note_on_c, 2, 55, 105
5, 2339, Note_on_c, 2, 55, 0
5, 2340, Note_on_c, 2, 53, 96
5, 2399, Note_on_c, 2, 53, 0
5, 2400, Note_on_c, 2, 46, 100
5, 2519, Note_on_c, 2, 46, 0
5, 2520, Note_on_c, 2, 53, 102
5, 2639, Note_on_c, 2, 53, 0
5, 2640, Note_on_c, 2, 48, 104
5, 2819, Note_on_c, 2, 48, 0
5, 2880, Note_on_c, 2, 41, 100
5, 2999, Note_on_c, 2, 41, 0
5, 3000, Note_on_c, 2, 45, 110
5, 3119, Note_on_c, 2, 45, 0
5, 3120, Note_on_c, 2, 43, 112
5, 3299, Note_on_c, 2, 43, 0
5, 3300, Note_on_c, 2, 41, 100
5, 3359, Note_on_c, 2, 41, 0
5, 3360, Note_on_c, 2, 46, 109
5, 3479, Note_on_c, 2, 46, 0
5, 3480, Note_on_c, 2, 41, 93
5, 3599, Note_on_c, 2, 41, 0
5, 3600, Note_on_c, 2, 48, 55
5, 3719, Note_on_c, 2, 48, 0
5, 3780, Note_on_c, 2, 48, 55
5, 3839, Note_on_c, 2, 48, 0
5, 3840, Note_on_c, 2, 48, 64
5, 4019, Note_on_c, 2, 48, 0
5, 4020, Note_on_c, 2, 48, 74
5, 4079, Note_on_c, 2, 48, 0
5, 4080, Note_on_c, 2, 48, 74
5, 4199, Note_on_c, 2, 48, 0
5, 4260, Note_on_c, 2, 48, 78
5, 4319, Note_on_c, 2, 48, 0
5, 4320, Note_on_c, 2, 48, 110
5, 4439, Note_on_c, 2, 48, 0
5, 4500, Note_on_c, 2, 48, 127
5, 4559, Note_on_c, 2, 48, 0
5, 4560, Note_on_c, 2, 48, 116
5, 4739, Note_on_c, 2, 48, 0
5, 4740, Note_on_c, 2, 48, 127
5, 4799, Note_on_c, 2, 48, 0
5, 4800, Note_on_c, 2, 48, 127
5, 4919, Note_on_c, 2, 48, 0
5, 4980, Note_on_c, 2, 48, 127
5, 5039, Note_on_c, 2, 48, 0
5, 5040, Note_on_c, 2, 48, 122
5, 5219, Note_on_c, 2, 48, 0
5, 5220, Note_on_c, 2, 48, 82
5, 5279, Note_on_c, 2, 48, 0
5, 5280, Note_on_c, 2, 48, 64
5, 5399, Note_on_c, 2, 48, 0
5, 5460, Note_on_c, 2, 48, 90
5, 5519, Note_on_c, 2, 48, 0
5, 5520, Note_on_c, 2, 48, 70
5, 5639, Note_on_c, 2, 48, 0
5, 5700, Note_on_c, 2, 48, 82
5, 5759, Note_on_c, 2, 48, 0
5, 5760, Note_on_c, 2, 48, 64
5, 5939, Note_on_c, 2, 48, 0
5, 11040, Note_on_c, 2, 41, 116
5, 11309, Note_on_c, 2, 41, 0
5, 11340, Note_on_c, 2, 41, 106
5, 11399, Note_on_c, 2, 41, 0
5, 11400, Note_on_c, 2, 41, 108
5, 11459, Note_on_c, 2, 41, 0
5, 11460, Note_on_c, 2, 41, 111
5, 11519, Note_on_c, 2, 41, 0
5, 11520, Note_on_c, 2, 41, 117
5, 11789, Note_on_c, 2, 41, 0
5, 11820, Note_on_c, 2, 41, 102
5, 11879, Note_on_c, 2, 41, 0
5, 11880, Note_on_c, 2, 41, 104
5, 11939, Note_on_c, 2, 41, 0
5, 11940, Note_on_c, 2, 41, 105
5, 11999, Note_on_c, 2, 41, 0
5, 12000, Note_on_c, 2, 41, 109
5, 12149, Note_on_c, 2, 41, 0
5, 12180, Note_on_c, 2, 41, 96
5, 12239, Note_on_c, 2, 41, 0
5, 12240, Note_on_c, 2, 41, 101
5, 12419, Note_on_c, 2, 41, 0
5, 12420, Note_on_c, 2, 41, 86
5, 12479, Note_on_c, 2, 41, 0
5, 12480, Note_on_c, 2, 41, 88
5, 12569, Note_on_c, 2, 41, 0
5, 13440, Note_on_c, 2, 50, 83
5, 13499, Note_on_c, 2, 50, 0
5, 14400, Note_on_c, 2, 48, 57
5, 14459, Note_on_c, 2, 48, 0
5, 14880, Note_on_c, 2, 47, 57
5, 14939, Note_on_c, 2, 47, 0
5, 15660, Note_on_c, 2, 45, 119
5, 15720, Note_on_c, 2, 43, 113
5, 15725, Note_on_c, 2, 45, 0
5, 15749, Note_on_c, 2, 43, 0
5, 15780, Note_on_c, 2, 42, 113
5, 15809, Note_on_c, 2, 42, 0
5, 15840, Note_on_c, 2, 43, 100
5, 16319, Note_on_c, 2, 43, 0
5, 16320, Note_on_c, 2, 48, 91
5, 16799, Note_on_c, 2, 48, 0
5, 16800, Note_on_c, 2, 47, 109
5, 16919, Note_on_c, 2, 47, 0
5, 16920, Note_on_c, 2, 47, 100
5, 17039, Note_on_c, 2, 47, 0
5, 17040, Note_on_c, 2, 47, 101
5, 17159, Note_on_c, 2, 47, 0
5, 17160, Note_on_c, 2, 50, 113
5, 17219, Note_on_c, 2, 50, 0
5, 17220, Note_on_c, 2, 47, 112
5, 17279, Note_on_c, 2, 47, 0
5, 17280, Note_on_c, 2, 48, 106
5, 17399, Note_on_c, 2, 48, 0
5, 17400, Note_on_c, 2, 48, 90
5, 17519, Note_on_c, 2, 48, 0
5, 17520, Note_on_c, 2, 48, 90
5, 17639, Note_on_c, 2, 48, 0
5, 17640, Note_on_c, 2, 52, 102
5, 17699, Note_on_c, 2, 52, 0
5, 17700, Note_on_c, 2, 48, 94
5, 17759, Note_on_c, 2, 48, 0
5, 17760, Note_on_c, 2, 57, 123
5, 17819, Note_on_c, 2, 57, 0
5, 17820, Note_on_c, 2, 55, 118
5, 17879, Note_on_c, 2, 55, 0
5, 17880, Note_on_c, 2, 53, 116
5, 17939, Note_on_c, 2, 53, 0
5, 17940, Note_on_c, 2, 50, 116
5, 17999, Note_on_c, 2, 50, 0
5, 18000, Note_on_c, 2, 43, 120
5, 18059, Note_on_c, 2, 43, 0
5, 18060, Note_on_c, 2, 53, 124
5, 18119, Note_on_c, 2, 53, 0
5, 18120, Note_on_c, 2, 50, 126
5, 18179, Note_on_c, 2, 50, 0
5, 18180, Note_on_c, 2, 43, 118
5, 18239, Note_on_c, 2, 43, 0
5, 18240, Note_on_c, 2, 57, 123
5, 18299, Note_on_c, 2, 57, 0
5, 18300, Note_on_c, 2, 55, 120
5, 18359, Note_on_c, 2, 55, 0
5, 18360, Note_on_c, 2, 52, 116
5, 18419, Note_on_c, 2, 52, 0
5, 18420, Note_on_c, 2, 48, 118
5, 18479, Note_on_c, 2, 48, 0
5, 18480, Note_on_c, 2, 43, 120
5, 18539, Note_on_c, 2, 43, 0
5, 18540, Note_on_c, 2, 52, 126
5, 18599, Note_on_c, 2, 52, 0
5, 18600, Note_on_c, 2, 48, 119
5, 18659, Note_on_c, 2, 48, 0
5, 18660, Note_on_c, 2, 43, 114
5, 18719, Note_on_c, 2, 43, 0
5, 18720, Note_on_c, 2, 57, 114
5, 18779, Note_on_c, 2, 57, 0
5, 18780, Note_on_c, 2, 55, 107
5, 18839, Note_on_c, 2, 55, 0
5, 18840, Note_on_c, 2, 53, 104
5, 18899, Note_on_c, 2, 53, 0
5, 18900, Note_on_c, 2, 50, 105
5, 18959, Note_on_c, 2, 50, 0
5, 18960, Note_on_c, 2, 43, 113
5, 19019, Note_on_c, 2, 43, 0
5, 19020, Note_on_c, 2, 53, 114
5, 19079, Note_on_c, 2, 53, 0
5, 19080, Note_on_c, 2, 50, 110
5, 19139, Note_on_c, 2, 50, 0
5, 19140, Note_on_c, 2, 43, 104
5, 19199, Note_on_c, 2, 43, 0
5, 19200, Note_on_c, 2, 57, 112
5, 19259, Note_on_c, 2, 57, 0
5, 19260, Note_on_c, 2, 55, 108
5, 19319, Note_on_c, 2, 55, 0
5, 19320, Note_on_c, 2, 52, 102
5, 19379, Note_on_c, 2, 52, 0
5, 19380, Note_on_c, 2, 48, 102
5, 19439, Note_on_c, 2, 48, 0
5, 19440, Note_on_c, 2, 43, 112
5, 19499, Note_on_c, 2, 43, 0
5, 19500, Note_on_c, 2, 52, 116
5, 19559, Note_on_c, 2, 52, 0
5, 19560, Note_on_c, 2, 48, 113
5, 19619, Note_on_c, 2, 48, 0
5, 19620, Note_on_c, 2, 43, 104
5, 19679, Note_on_c, 2, 43, 0
5, 19680, Note_on_c, 2, 43, 127
5, 19680, Control_c, 2, 7, 69
5, 19700, Control_c, 2, 7, 70
5, 19710, Control_c, 2, 7, 72
5, 19720, Control_c, 2, 7, 73
5, 19730, Control_c, 2, 7, 77
5, 19740, Control_c, 2, 7, 85
5, 19750, Control_c, 2, 7, 89
5, 19760, Control_c, 2, 7, 91
5, 19770, Control_c, 2, 7, 98
5, 19780, Control_c, 2, 7, 102
5, 19790, Control_c, 2, 7, 107
5, 19800, Control_c, 2, 7, 110
5, 19810, Control_c, 2, 7, 115
5, 19820, Control_c, 2, 7, 121
5, 19830, Control_c, 2, 7, 123
5, 19850, Control_c, 2, 7, 125
5, 19880, Control_c, 2, 7, 126
5, 19900, Control_c, 2, 7, 123
5, 19920, Control_c, 2, 7, 122
5, 19930, Control_c, 2, 7, 119
5, 19940, Control_c, 2, 7, 118
5, 19950, Control_c, 2, 7, 117
5, 19960, Control_c, 2, 7, 114
5, 19970, Control_c, 2, 7, 111
5, 19980, Control_c, 2, 7, 109
5, 20000, Control_c, 2, 7, 107
5, 20010, Control_c, 2, 7, 106
5, 20020, Control_c, 2, 7, 105
5, 20030, Control_c, 2, 7, 104
5, 20040, Control_c, 2, 7, 102
5, 20050, Control_c, 2, 7, 101
5, 20060, Control_c, 2, 7, 99
5, 20080, Control_c, 2, 7, 96
5, 20090, Control_c, 2, 7, 94
5, 20100, Control_c, 2, 7, 92
5, 20110, Control_c, 2, 7, 91
5, 20120, Control_c, 2, 7, 89
5, 20130, Control_c, 2, 7, 87
5, 20140, Control_c, 2, 7, 85
5, 20150, Control_c, 2, 7, 83
5, 20159, Note_on_c, 2, 43, 0
5, 20160, Note_on_c, 2, 48, 125
5, 20160, Control_c, 2, 7, 74
5, 20170, Control_c, 2, 7, 76
5, 20180, Control_c, 2, 7, 79
5, 20200, Control_c, 2, 7, 82
5, 20210, Control_c, 2, 7, 85
5, 20220, Control_c, 2, 7, 87
5, 20230, Control_c, 2, 7, 89
5, 20240, Control_c, 2, 7, 91
5, 20250, Control_c, 2, 7, 94
5, 20260, Control_c, 2, 7, 96
5, 20270, Control_c, 2, 7, 97
5, 20280, Control_c, 2, 7, 103
5, 20290, Control_c, 2, 7, 111
5, 20300, Control_c, 2, 7, 114
5, 20310, Control_c, 2, 7, 116
5, 20320, Control_c, 2, 7, 119
5, 20330, Control_c, 2, 7, 120
5, 20340, Control_c, 2, 7, 126
5, 20350, Control_c, 2, 7, 127
5, 20370, Control_c, 2, 7, 125
5, 20400, Control_c, 2, 7, 123
5, 20410, Control_c, 2, 7, 122
5, 20420, Control_c, 2, 7, 121
5, 20440, Control_c, 2, 7, 119
5, 20450, Control_c, 2, 7, 116
5, 20460, Control_c, 2, 7, 115
5, 20470, Control_c, 2, 7, 113
5, 20480, Control_c, 2, 7, 111
5, 20500, Control_c, 2, 7, 109
5, 20520, Control_c, 2, 7, 107
5, 20530, Control_c, 2, 7, 105
5, 20540, Control_c, 2, 7, 103
5, 20550, Control_c, 2, 7, 102
5, 20560, Control_c, 2, 7, 99
5, 20570, Control_c, 2, 7, 95
5, 20580, Control_c, 2, 7, 92
5, 20590, Control_c, 2, 7, 90
5, 20600, Control_c, 2, 7, 69
5, 20639, Note_on_c, 2, 48, 0
5, 20640, Note_on_c, 2, 47, 123
5, 20759, Note_on_c, 2, 47, 0
5, 20760, Note_on_c, 2, 47, 115
5, 20879, Note_on_c, 2, 47, 0
5, 20880, Note_on_c, 2, 47, 124
5, 20999, Note_on_c, 2, 47, 0
5, 21000, Note_on_c, 2, 50, 119
5, 21059, Note_on_c, 2, 50, 0
5, 21060, Note_on_c, 2, 47, 123
5, 21119, Note_on_c, 2, 47, 0
5, 21120, Note_on_c, 2, 48, 123
5, 21239, Note_on_c, 2, 48, 0
5, 21240, Note_on_c, 2, 48, 115
5, 21299, Note_on_c, 2, 48, 0
5, 21360, Note_on_c, 2, 48, 124
5, 21479, Note_on_c, 2, 48, 0
5, 21480, Note_on_c, 2, 52, 119
5, 21539, Note_on_c, 2, 52, 0
5, 21540, Note_on_c, 2, 48, 117
5, 21599, Note_on_c, 2, 48, 0
5, 21600, Note_on_c, 2, 50, 121
5, 21719, Note_on_c, 2, 50, 0
5, 21720, Note_on_c, 2, 50, 119
5, 21839, Note_on_c, 2, 50, 0
5, 21840, Note_on_c, 2, 50, 117
5, 21959, Note_on_c, 2, 50, 0
5, 21960, Note_on_c, 2, 53, 120
5, 22019, Note_on_c, 2, 53, 0
5, 22020, Note_on_c, 2, 50, 117
5, 22079, Note_on_c, 2, 50, 0
5, 22080, Note_on_c, 2, 48, 114
5, 22799, Note_on_c, 2, 48, 0
5, 22800, Note_on_c, 2, 41, 95
5, 22859, Note_on_c, 2, 41, 0
5, 23040, Note_on_c, 2, 41, 76
5, 23279, Note_on_c, 2, 41, 0
5, 23280, Note_on_c, 2, 48, 70
5, 23519, Note_on_c, 2, 48, 0
5, 23520, Note_on_c, 2, 43, 74
5, 23759, Note_on_c, 2, 43, 0
5, 23760, Note_on_c, 2, 48, 110
5, 24479, Note_on_c, 2, 48, 0
5, 24480, Note_on_c, 2, 41, 100
5, 24569, Note_on_c, 2, 41, 0
5, 24720, Note_on_c, 2, 41, 86
5, 24959, Note_on_c, 2, 41, 0
5, 24960, Note_on_c, 2, 48, 70
5, 25199, Note_on_c, 2, 48, 0
5, 25200, Note_on_c, 2, 43, 82
5, 25439, Note_on_c, 2, 43, 0
5, 25440, Note_on_c, 2, 48, 78
5, 25499, Note_on_c, 2, 48, 0
5, 25560, Note_on_c, 2, 48, 90
5, 25679, Note_on_c, 2, 48, 0
5, 25680, Note_on_c, 2, 41, 100
5, 25739, Note_on_c, 2, 41, 0
5, 25800, Note_on_c, 2, 41, 86
5, 25919, Note_on_c, 2, 41, 0
5, 25920, Note_on_c, 2, 48, 74
5, 25979, Note_on_c, 2, 48, 0
5, 26040, Note_on_c, 2, 48, 86
5, 26159, Note_on_c, 2, 48, 0
5, 26160, Note_on_c, 2, 43, 78
5, 26219, Note_on_c, 2, 43, 0
5, 26280, Note_on_c, 2, 43, 95
5, 26399, Note_on_c, 2, 43, 0
5, 26400, Note_on_c, 2, 48, 115
5, 26439, Note_on_c, 2, 48, 0
5, 26440, Note_on_c, 2, 48, 121
5, 26479, Note_on_c, 2, 48, 0
5, 26480, Note_on_c, 2, 48, 123
5, 26519, Note_on_c, 2, 48, 0
5, 26520, Note_on_c, 2, 48, 119
5, 26559, Note_on_c, 2, 48, 0
5, 26560, Note_on_c, 2, 50, 125
5, 26599, Note_on_c, 2, 50, 0
5, 26600, Note_on_c, 2, 52, 125
5, 26639, Note_on_c, 2, 52, 0
5, 26640, Note_on_c, 2, 53, 127
5, 26679, Note_on_c, 2, 53, 0
5, 26680, Note_on_c, 2, 53, 125
5, 26719, Note_on_c, 2, 53, 0
5, 26720, Note_on_c, 2, 53, 117
5, 26759, Note_on_c, 2, 53, 0
5, 26760, Note_on_c, 2, 57, 113
5, 26799, Note_on_c, 2, 57, 0
5, 26800, Note_on_c, 2, 57, 113
5, 26839, Note_on_c, 2, 57, 0
5, 26840, Note_on_c, 2, 57, 113
5, 26879, Note_on_c, 2, 57, 0
5, 26880, Note_on_c, 2, 60, 117
5, 26919, Note_on_c, 2, 60, 0
5, 26920, Note_on_c, 2, 60, 110
5, 26959, Note_on_c, 2, 60, 0
5, 26960, Note_on_c, 2, 60, 110
5, 26999, Note_on_c, 2, 60, 0
5, 27000, Note_on_c, 2, 64, 110
5, 27039, Note_on_c, 2, 64, 0
5, 27040, Note_on_c, 2, 64, 122
5, 27079, Note_on_c, 2, 64, 0
5, 27080, Note_on_c, 2, 64, 105
5, 27119, Note_on_c, 2, 64, 0
5, 27120, Note_on_c, 2, 67, 110
5, 27159, Note_on_c, 2, 67, 0
5, 27160, Note_on_c, 2, 43, 105
5, 27199, Note_on_c, 2, 43, 0
5, 27200, Note_on_c, 2, 43, 116
5, 27239, Note_on_c, 2, 43, 0
5, 27240, Note_on_c, 2, 43, 105
5, 27279, Note_on_c, 2, 43, 0
5, 27280, Note_on_c, 2, 43, 110
5, 27319, Note_on_c, 2, 43, 0
5, 27320, Note_on_c, 2, 43, 110
5, 27359, Note_on_c, 2, 43, 0
5, 27360, Note_on_c, 2, 48, 116
5, 27399, Note_on_c, 2, 48, 0
5, 27400, Note_on_c, 2, 48, 105
5, 27439, Note_on_c, 2, 48, 0
5, 27440, Note_on_c, 2, 48, 110
5, 27440, Note_on_c, 2, 48, 105
5, 27479, Note_on_c, 2, 48, 0
5, 27479, Note_on_c, 2, 48, 0
5, 27480, Note_on_c, 2, 48, 110
5, 27869, Note_on_c, 2, 48, 0
5, 27880, Note_on_c, 2, 48, 110
5, 27919, Note_on_c, 2, 48, 0
5, 27920, Note_on_c, 2, 48, 111
5, 27959, Note_on_c, 2, 48, 0
5, 27960, Note_on_c, 2, 48, 116
5, 28319, Note_on_c, 2, 48, 0
5, 28360, Note_on_c, 2, 48, 107
5, 28399, Note_on_c, 2, 48, 0
5, 28400, Note_on_c, 2, 48, 111
5, 28439, Note_on_c, 2, 48, 0
5, 28440, Note_on_c, 2, 48, 118
5, 28829, Note_on_c, 2, 48, 0
5, 28840, Note_on_c, 2, 48, 107
5, 28879, Note_on_c, 2, 48, 0
5, 28880, Note_on_c, 2, 48, 109
5, 28919, Note_on_c, 2, 48, 0
5, 28920, Note_on_c, 2, 48, 115
5, 29309, Note_on_c, 2, 48, 0
5, 29320, Note_on_c, 2, 48, 103
5, 29359, Note_on_c, 2, 48, 0
5, 29360, Note_on_c, 2, 48, 99
5, 29399, Note_on_c, 2, 48, 0
5, 29400, Note_on_c, 2, 48, 100
5, 29559, Note_on_c, 2, 48, 0
5, 29560, Note_on_c, 2, 48, 89
5, 29589, Note_on_c, 2, 48, 0
5, 29600, Note_on_c, 2, 48, 89
5, 29600, Note_on_c, 2, 48, 89
5, 29639, Note_on_c, 2, 48, 0
5, 29639, Note_on_c, 2, 48, 0
5, 29640, Note_on_c, 2, 48, 94
5, 29799, Note_on_c, 2, 48, 0
5, 29800, Note_on_c, 2, 48, 83
5, 29839, Note_on_c, 2, 48, 0
5, 29840, Note_on_c, 2, 48, 83
5, 29879, Note_on_c, 2, 48, 0
5, 29880, Note_on_c, 2, 48, 87
5, 30029, Note_on_c, 2, 48, 0
5, 30040, Note_on_c, 2, 48, 73
5, 30069, Note_on_c, 2, 48, 0
5, 30080, Note_on_c, 2, 48, 74
5, 30080, Note_on_c, 2, 48, 74
5, 30119, Note_on_c, 2, 48, 0
5, 30119, Note_on_c, 2, 48, 0
5, 30120, Note_on_c, 2, 48, 78
5, 30269, Note_on_c, 2, 48, 0
5, 30280, Note_on_c, 2, 48, 69
5, 30319, Note_on_c, 2, 48, 0
5, 30320, Note_on_c, 2, 48, 71
5, 30359, Note_on_c, 2, 48, 0
5, 30360, Note_on_c, 2, 48, 75
5, 30519, Note_on_c, 2, 48, 0
5, 30520, Note_on_c, 2, 48, 59
5, 30549, Note_on_c, 2, 48, 0
5, 30560, Note_on_c, 2, 48, 57
5, 30560, Note_on_c, 2, 48, 57
5, 30599, Note_on_c, 2, 48, 0
5, 30599, Note_on_c, 2, 48, 0
5, 30600, Note_on_c, 2, 48, 57
5, 30759, Note_on_c, 2, 48, 0
5, 30760, Note_on_c, 2, 48, 56
5, 30799, Note_on_c, 2, 48, 0
5, 30800, Note_on_c, 2, 48, 51
5, 30839, Note_on_c, 2, 48, 0
5, 30840, Note_on_c, 2, 48, 50
5, 30989, Note_on_c, 2, 48, 0
5, 31000, Note_on_c, 2, 48, 48
5, 31029, Note_on_c, 2, 48, 0
5, 31040, Note_on_c, 2, 48, 45
5, 31040, Note_on_c, 2, 48, 45
5, 31079, Note_on_c, 2, 48, 0
5, 31079, Note_on_c, 2, 48, 0
5, 31080, Note_on_c, 2, 48, 53
5, 31229, Note_on_c, 2, 48, 0
5, 31229, End_track
6, 0, Start_track
6, 0, MIDI_port, 0
6, 0, Title_t, "Flute"
6, 0, Program_c, 3, 73
6, 0, Control_c, 3, 7, 90
6, 0, Control_c, 3, 10, 40
6, 8640, Control_c, 3, 121, 0
6, 8640, Control_c, 3, 0, 0
6, 8640, Program_c, 3, 73
6, 8640, Pitch_bend_c, 3, 8192
6, 8640, Control_c, 3, 10, 40
6, 8640, Control_c, 3, 91, 100
6, 8640, Control_c, 3, 93, 30
6, 8640, Control_c, 3, 7, 90
6, 8640, Note_on_c, 3, 81, 119
6, 8669, Note_on_c, 3, 81, 0
6, 8700, Note_on_c, 3, 81, 117
6, 8729, Note_on_c, 3, 81, 0
6, 8760, Note_on_c, 3, 82, 122
6, 8789, Note_on_c, 3, 82, 0
6, 8820, Note_on_c, 3, 86, 116
6, 8849, Note_on_c, 3, 86, 0
6, 8880, Note_on_c, 3, 84, 100
6, 8939, Note_on_c, 3, 84, 0
6, 8940, Note_on_c, 3, 82, 86
6, 8969, Note_on_c, 3, 82, 0
6, 8970, Note_on_c, 3, 81, 78
6, 8999, Note_on_c, 3, 81, 0
6, 9000, Note_on_c, 3, 79, 110
6, 9029, Note_on_c, 3, 79, 0
6, 9060, Note_on_c, 3, 72, 90
6, 9089, Note_on_c, 3, 72, 0
6, 9120, Note_on_c, 3, 77, 100
6, 9149, Note_on_c, 3, 77, 0
6, 9180, Note_on_c, 3, 79, 95
6, 9209, Note_on_c, 3, 79, 0
6, 9240, Note_on_c, 3, 81, 90
6, 9299, Note_on_c, 3, 81, 0
6, 9300, Note_on_c, 3, 82, 90
6, 9329, Note_on_c, 3, 82, 0
6, 9330, Note_on_c, 3, 81, 86
6, 9359, Note_on_c, 3, 81, 0
6, 9360, Note_on_c, 3, 79, 110
6, 9389, Note_on_c, 3, 79, 0
6, 9420, Note_on_c, 3, 81, 95
6, 9449, Note_on_c, 3, 81, 0
6, 9480, Note_on_c, 3, 82, 95
6, 9539, Note_on_c, 3, 82, 0
6, 9540, Note_on_c, 3, 84, 90
6, 9569, Note_on_c, 3, 84, 0
6, 9570, Note_on_c, 3, 82, 86
6, 9599, Note_on_c, 3, 82, 0
6, 9600, Note_on_c, 3, 81, 95
6, 9659, Note_on_c, 3, 81, 0
6, 9660, Note_on_c, 3, 84, 105
6, 9689, Note_on_c, 3, 84, 0
6, 9720, Note_on_c, 3, 84, 110
6, 9749, Note_on_c, 3, 84, 0
6, 9780, Note_on_c, 3, 84, 110
6, 9809, Note_on_c, 3, 84, 0
6, 9827, Note_on_c, 3, 86, 91
6, 9840, Note_on_c, 3, 84, 92
6, 9855, Note_on_c, 3, 83, 94
6, 9856, Note_on_c, 3, 86, 0
6, 9869, Note_on_c, 3, 84, 0
6, 9870, Note_on_c, 3, 84, 111
6, 9884, Note_on_c, 3, 83, 0
6, 9947, Note_on_c, 3, 86, 94
6, 9959, Note_on_c, 3, 84, 0
6, 9960, Note_on_c, 3, 84, 94
6, 9975, Note_on_c, 3, 83, 99
6, 9976, Note_on_c, 3, 86, 0
6, 9989, Note_on_c, 3, 84, 0
6, 9990, Note_on_c, 3, 84, 110
6, 10004, Note_on_c, 3, 83, 0
6, 10079, Note_on_c, 3, 84, 0
6, 10080, Note_on_c, 3, 76, 105
6, 10109, Note_on_c, 3, 76, 0
6, 10140, Note_on_c, 3, 77, 100
6, 10169, Note_on_c, 3, 77, 0
6, 10200, Note_on_c, 3, 79, 114
6, 10259, Note_on_c, 3, 79, 0
6, 10260, Note_on_c, 3, 81, 95
6, 10289, Note_on_c, 3, 81, 0
6, 10290, Note_on_c, 3, 79, 90
6, 10319, Note_on_c, 3, 79, 0
6, 10320, Note_on_c, 3, 77, 95
6, 10349, Note_on_c, 3, 77, 0
6, 10380, Note_on_c, 3, 79, 95
6, 10409, Note_on_c, 3, 79, 0
6, 10440, Note_on_c, 3, 81, 111
6, 10499, Note_on_c, 3, 81, 0
6, 10500, Note_on_c, 3, 82, 95
6, 10529, Note_on_c, 3, 82, 0
6, 10530, Note_on_c, 3, 81, 90
6, 10559, Note_on_c, 3, 81, 0
6, 10560, Note_on_c, 3, 79, 105
6, 10619, Note_on_c, 3, 79, 0
6, 10620, Note_on_c, 3, 82, 109
6, 10649, Note_on_c, 3, 82, 0
6, 10680, Note_on_c, 3, 82, 115
6, 10709, Note_on_c, 3, 82, 0
6, 10740, Note_on_c, 3, 82, 123
6, 10769, Note_on_c, 3, 82, 0
6, 10787, Note_on_c, 3, 84, 95
6, 10800, Note_on_c, 3, 82, 96
6, 10815, Note_on_c, 3, 81, 102
6, 10816, Note_on_c, 3, 84, 0
6, 10829, Note_on_c, 3, 82, 0
6, 10830, Note_on_c, 3, 82, 112
6, 10844, Note_on_c, 3, 81, 0
6, 10907, Note_on_c, 3, 86, 90
6, 10919, Note_on_c, 3, 82, 0
6, 10920, Note_on_c, 3, 84, 93
6, 10935, Note_on_c, 3, 83, 96
6, 10936, Note_on_c, 3, 86, 0
6, 10949, Note_on_c, 3, 84, 0
6, 10950, Note_on_c, 3, 84, 117
6, 10964, Note_on_c, 3, 83, 0
6, 11039, Note_on_c, 3, 84, 0
6, 11147, Note_on_c, 3, 86, 104
6, 11160, Note_on_c, 3, 84, 107
6, 11175, Note_on_c, 3, 83, 110
6, 11176, Note_on_c, 3, 86, 0
6, 11189, Note_on_c, 3, 84, 0
6, 11190, Note_on_c, 3, 84, 121
6, 11204, Note_on_c, 3, 83, 0
6, 11249, Note_on_c, 3, 84, 0
6, 11387, Note_on_c, 3, 86, 98
6, 11400, Note_on_c, 3, 84, 103
6, 11415, Note_on_c, 3, 83, 105
6, 11416, Note_on_c, 3, 86, 0
6, 11429, Note_on_c, 3, 84, 0
6, 11430, Note_on_c, 3, 84, 121
6, 11444, Note_on_c, 3, 83, 0
6, 11489, Note_on_c, 3, 84, 0
6, 11627, Note_on_c, 3, 86, 105
6, 11640, Note_on_c, 3, 84, 105
6, 11655, Note_on_c, 3, 83, 105
6, 11656, Note_on_c, 3, 86, 0
6, 11669, Note_on_c, 3, 84, 0
6, 11670, Note_on_c, 3, 84, 121
6, 11684, Note_on_c, 3, 83, 0
6, 11729, Note_on_c, 3, 84, 0
6, 11867, Note_on_c, 3, 86, 107
6, 11880, Note_on_c, 3, 84, 109
6, 11895, Note_on_c, 3, 83, 113
6, 11896, Note_on_c, 3, 86, 0
6, 11909, Note_on_c, 3, 84, 0
6, 11910, Note_on_c, 3, 84, 120
6, 11924, Note_on_c, 3, 83, 0
6, 11969, Note_on_c, 3, 84, 0
6, 11987, Note_on_c, 3, 86, 105
6, 12000, Note_on_c, 3, 84, 105
6, 12015, Note_on_c, 3, 83, 109
6, 12016, Note_on_c, 3, 86, 0
6, 12029, Note_on_c, 3, 84, 0
6, 12030, Note_on_c, 3, 84, 121
6, 12044, Note_on_c, 3, 83, 0
6, 12089, Note_on_c, 3, 84, 0
6, 12227, Note_on_c, 3, 86, 101
6, 12240, Note_on_c, 3, 84, 101
6, 12255, Note_on_c, 3, 83, 108
6, 12256, Note_on_c, 3, 86, 0
6, 12269, Note_on_c, 3, 84, 0
6, 12270, Note_on_c, 3, 84, 121
6, 12284, Note_on_c, 3, 83, 0
6, 12329, Note_on_c, 3, 84, 0
6, 12480, Note_on_c, 3, 81, 100
6, 12539, Note_on_c, 3, 81, 0
6, 18720, Note_on_c, 3, 79, 122
6, 18720, Control_c, 3, 7, 75
6, 18730, Control_c, 3, 7, 79
6, 18740, Control_c, 3, 7, 80
6, 18750, Control_c, 3, 7, 83
6, 18760, Control_c, 3, 7, 88
6, 18770, Control_c, 3, 7, 91
6, 18780, Control_c, 3, 7, 93
6, 18790, Control_c, 3, 7, 97
6, 18800, Control_c, 3, 7, 100
6, 18810, Control_c, 3, 7, 101
6, 18820, Control_c, 3, 7, 103
6, 18830, Control_c, 3, 7, 105
6, 18840, Control_c, 3, 7, 108
6, 18850, Control_c, 3, 7, 110
6, 18860, Control_c, 3, 7, 111
6, 18870, Control_c, 3, 7, 113
6, 18880, Control_c, 3, 7, 116
6, 18890, Control_c, 3, 7, 118
6, 18900, Control_c, 3, 7, 119
6, 18910, Control_c, 3, 7, 121
6, 18920, Control_c, 3, 7, 122
6, 18930, Control_c, 3, 7, 123
6, 18940, Control_c, 3, 7, 124
6, 18950, Control_c, 3, 7, 126
6, 18970, Control_c, 3, 7, 124
6, 18980, Control_c, 3, 7, 123
6, 18990, Control_c, 3, 7, 122
6, 19000, Control_c, 3, 7, 121
6, 19020, Control_c, 3, 7, 119
6, 19040, Control_c, 3, 7, 118
6, 19050, Control_c, 3, 7, 117
6, 19060, Control_c, 3, 7, 115
6, 19080, Control_c, 3, 7, 113
6, 19100, Control_c, 3, 7, 111
6, 19120, Control_c, 3, 7, 109
6, 19130, Control_c, 3, 7, 107
6, 19140, Control_c, 3, 7, 105
6, 19150, Control_c, 3, 7, 104
6, 19160, Control_c, 3, 7, 101
6, 19170, Control_c, 3, 7, 98
6, 19180, Control_c, 3, 7, 96
6, 19190, Control_c, 3, 7, 94
6, 19199, Note_on_c, 3, 79, 0
6, 19200, Note_on_c, 3, 84, 124
6, 19200, Control_c, 3, 7, 89
6, 19210, Control_c, 3, 7, 82
6, 19230, Control_c, 3, 7, 84
6, 19240, Control_c, 3, 7, 87
6, 19250, Control_c, 3, 7, 90
6, 19260, Control_c, 3, 7, 92
6, 19270, Control_c, 3, 7, 94
6, 19280, Control_c, 3, 7, 97
6, 19290, Control_c, 3, 7, 103
6, 19300, Control_c, 3, 7, 105
6, 19310, Control_c, 3, 7, 107
6, 19320, Control_c, 3, 7, 109
6, 19330, Control_c, 3, 7, 111
6, 19340, Control_c, 3, 7, 113
6, 19360, Control_c, 3, 7, 117
6, 19370, Control_c, 3, 7, 119
6, 19380, Control_c, 3, 7, 121
6, 19390, Control_c, 3, 7, 122
6, 19400, Control_c, 3, 7, 123
6, 19410, Control_c, 3, 7, 124
6, 19430, Control_c, 3, 7, 125
6, 19460, Control_c, 3, 7, 125
6, 19480, Control_c, 3, 7, 124
6, 19490, Control_c, 3, 7, 122
6, 19520, Control_c, 3, 7, 120
6, 19530, Control_c, 3, 7, 119
6, 19540, Control_c, 3, 7, 118
6, 19560, Control_c, 3, 7, 116
6, 19570, Control_c, 3, 7, 115
6, 19580, Control_c, 3, 7, 114
6, 19590, Control_c, 3, 7, 113
6, 19600, Control_c, 3, 7, 111
6, 19610, Control_c, 3, 7, 109
6, 19620, Control_c, 3, 7, 107
6, 19630, Control_c, 3, 7, 105
6, 19640, Control_c, 3, 7, 101
6, 19650, Control_c, 3, 7, 90
6, 19660, Control_c, 3, 7, 86
6, 19670, Control_c, 3, 7, 78
6, 19679, Note_on_c, 3, 84, 0
6, 19680, Note_on_c, 3, 83, 114
6, 19680, Control_c, 3, 7, 92
6, 19690, Control_c, 3, 7, 95
6, 19700, Control_c, 3, 7, 96
6, 19710, Control_c, 3, 7, 99
6, 19720, Control_c, 3, 7, 101
6, 19730, Control_c, 3, 7, 104
6, 19740, Control_c, 3, 7, 105
6, 19750, Control_c, 3, 7, 107
6, 19760, Control_c, 3, 7, 108
6, 19770, Control_c, 3, 7, 109
6, 19799, Note_on_c, 3, 83, 0
6, 19800, Note_on_c, 3, 83, 110
6, 19800, Control_c, 3, 7, 107
6, 19820, Control_c, 3, 7, 105
6, 19830, Control_c, 3, 7, 103
6, 19840, Control_c, 3, 7, 102
6, 19850, Control_c, 3, 7, 101
6, 19860, Control_c, 3, 7, 100
6, 19870, Control_c, 3, 7, 99
6, 19880, Control_c, 3, 7, 98
6, 19890, Control_c, 3, 7, 97
6, 19900, Control_c, 3, 7, 96
6, 19910, Control_c, 3, 7, 95
6, 19919, Note_on_c, 3, 83, 0
6, 19920, Note_on_c, 3, 83, 116
6, 19920, Control_c, 3, 7, 94
6, 19930, Control_c, 3, 7, 93
6, 19960, Control_c, 3, 7, 96
6, 19970, Control_c, 3, 7, 97
6, 19980, Control_c, 3, 7, 98
6, 19990, Control_c, 3, 7, 99
6, 20000, Control_c, 3, 7, 100
6, 20020, Control_c, 3, 7, 101
6, 20030, Control_c, 3, 7, 102
6, 20039, Note_on_c, 3, 83, 0
6, 20040, Note_on_c, 3, 86, 111
6, 20040, Control_c, 3, 7, 103
6, 20060, Control_c, 3, 7, 104
6, 20070, Control_c, 3, 7, 105
6, 20099, Note_on_c, 3, 86, 0
6, 20100, Note_on_c, 3, 83, 105
6, 20150, Control_c, 3, 7, 103
6, 20159, Note_on_c, 3, 83, 0
6, 20160, Note_on_c, 3, 84, 109
6, 20170, Control_c, 3, 7, 101
6, 20180, Control_c, 3, 7, 100
6, 20190, Control_c, 3, 7, 98
6, 20200, Control_c, 3, 7, 95
6, 20260, Control_c, 3, 7, 94
6, 20270, Control_c, 3, 7, 99
6, 20279, Note_on_c, 3, 84, 0
6, 20280, Note_on_c, 3, 84, 108
6, 20280, Control_c, 3, 7, 101
6, 20290, Control_c, 3, 7, 102
6, 20300, Control_c, 3, 7, 103
6, 20320, Control_c, 3, 7, 105
6, 20330, Control_c, 3, 7, 107
6, 20350, Control_c, 3, 7, 109
6, 20380, Control_c, 3, 7, 111
6, 20399, Note_on_c, 3, 84, 0
6, 20400, Note_on_c, 3, 84, 105
6, 20410, Control_c, 3, 7, 110
6, 20430, Control_c, 3, 7, 108
6, 20440, Control_c, 3, 7, 107
6, 20450, Control_c, 3, 7, 105
6, 20470, Control_c, 3, 7, 104
6, 20480, Control_c, 3, 7, 102
6, 20490, Control_c, 3, 7, 101
6, 20510, Control_c, 3, 7, 101
6, 20519, Note_on_c, 3, 84, 0
6, 20520, Note_on_c, 3, 88, 96
6, 20520, Control_c, 3, 7, 99
6, 20579, Note_on_c, 3, 88, 0
6, 20580, Note_on_c, 3, 84, 92
6, 20639, Note_on_c, 3, 84, 0
6, 20640, Note_on_c, 3, 93, 103
6, 20699, Note_on_c, 3, 93, 0
6, 20700, Note_on_c, 3, 91, 95
6, 20759, Note_on_c, 3, 91, 0
6, 20760, Note_on_c, 3, 89, 95
6, 20819, Note_on_c, 3, 89, 0
6, 20820, Note_on_c, 3, 86, 105
6, 20879, Note_on_c, 3, 86, 0
6, 20880, Note_on_c, 3, 79, 106
6, 20939, Note_on_c, 3, 79, 0
6, 20940, Note_on_c, 3, 89, 110
6, 20999, Note_on_c, 3, 89, 0
6, 21000, Note_on_c, 3, 86, 105
6, 21059, Note_on_c, 3, 86, 0
6, 21060, Note_on_c, 3, 79, 95
6, 21119, Note_on_c, 3, 79, 0
6, 21120, Note_on_c, 3, 93, 95
6, 21179, Note_on_c, 3, 93, 0
6, 21180, Note_on_c, 3, 91, 100
6, 21239, Note_on_c, 3, 91, 0
6, 21240, Note_on_c, 3, 88, 95
6, 21299, Note_on_c, 3, 88, 0
6, 21300, Note_on_c, 3, 84, 95
6, 21359, Note_on_c, 3, 84, 0
6, 21360, Note_on_c, 3, 79, 85
6, 21419, Note_on_c, 3, 79, 0
6, 21420, Note_on_c, 3, 88, 92
6, 21479, Note_on_c, 3, 88, 0
6, 21480, Note_on_c, 3, 84, 95
6, 21539, Note_on_c, 3, 84, 0
6, 21540, Note_on_c, 3, 79, 92
6, 21599, Note_on_c, 3, 79, 0
6, 21600, Note_on_c, 3, 93, 82
6, 21659, Note_on_c, 3, 93, 0
6, 21660, Note_on_c, 3, 91, 90
6, 21719, Note_on_c, 3, 91, 0
6, 21720, Note_on_c, 3, 89, 78
6, 21779, Note_on_c, 3, 89, 0
6, 21780, Note_on_c, 3, 86, 90
6, 21839, Note_on_c, 3, 86, 0
6, 21840, Note_on_c, 3, 79, 82
6, 21899, Note_on_c, 3, 79, 0
6, 21900, Note_on_c, 3, 89, 95
6, 21959, Note_on_c, 3, 89, 0
6, 21960, Note_on_c, 3, 86, 90
6, 22019, Note_on_c, 3, 86, 0
6, 22020, Note_on_c, 3, 79, 83
6, 22079, Note_on_c, 3, 79, 0
6, 22080, Note_on_c, 3, 84, 89
6, 22080, Note_on_c, 3, 88, 89
6, 22139, Note_on_c, 3, 88, 0
6, 22139, Note_on_c, 3, 84, 0
6, 22800, Note_on_c, 3, 93, 66
6, 22800, Note_on_c, 3, 89, 66
6, 22889, Note_on_c, 3, 89, 0
6, 22889, Note_on_c, 3, 93, 0
6, 24480, Note_on_c, 3, 93, 66
6, 24480, Note_on_c, 3, 89, 66
6, 24539, Note_on_c, 3, 89, 0
6, 24539, Note_on_c, 3, 93, 0
6, 26760, Note_on_c, 3, 89, 95
6, 26760, Note_on_c, 3, 93, 100
6, 26819, Note_on_c, 3, 93, 0
6, 26819, Note_on_c, 3, 89, 0
6, 26880, Note_on_c, 3, 88, 95
6, 26880, Note_on_c, 3, 91, 95
6, 26939, Note_on_c, 3, 91, 0
6, 26939, Note_on_c, 3, 88, 0
6, 27000, Note_on_c, 3, 84, 94
6, 27000, Note_on_c, 3, 88, 94
6, 27059, Note_on_c, 3, 88, 0
6, 27059, Note_on_c, 3, 84, 0
6, 27120, Note_on_c, 3, 83, 82
6, 27120, Note_on_c, 3, 86, 82
6, 27179, Note_on_c, 3, 86, 0
6, 27179, Note_on_c, 3, 83, 0
6, 27240, Note_on_c, 3, 83, 87
6, 27240, Note_on_c, 3, 91, 87
6, 27299, Note_on_c, 3, 91, 0
6, 27299, Note_on_c, 3, 83, 0
6, 27360, Note_on_c, 3, 84, 87
6, 27479, Note_on_c, 3, 84, 0
6, 27480, Note_on_c, 3, 79, 74
6, 27839, Note_on_c, 3, 79, 0
6, 27840, Note_on_c, 3, 88, 82
6, 27959, Note_on_c, 3, 88, 0
6, 27960, Note_on_c, 3, 84, 67
6, 28319, Note_on_c, 3, 84, 0
6, 28320, Note_on_c, 3, 84, 81
6, 28439, Note_on_c, 3, 84, 0
6, 28440, Note_on_c, 3, 79, 74
6, 28799, Note_on_c, 3, 79, 0
6, 28800, Note_on_c, 3, 88, 81
6, 28919, Note_on_c, 3, 88, 0
6, 28920, Note_on_c, 3, 84, 67
6, 29279, Note_on_c, 3, 84, 0
6, 29280, Note_on_c, 3, 84, 76
6, 29399, Note_on_c, 3, 84, 0
6, 29400, Note_on_c, 3, 79, 64
6, 29519, Note_on_c, 3, 79, 0
6, 29520, Note_on_c, 3, 84, 77
6, 29639, Note_on_c, 3, 84, 0
6, 29640, Note_on_c, 3, 79, 63
6, 29759, Note_on_c, 3, 79, 0
6, 29760, Note_on_c, 3, 84, 67
6, 29879, Note_on_c, 3, 84, 0
6, 29880, Note_on_c, 3, 79, 60
6, 29999, Note_on_c, 3, 79, 0
6, 30000, Note_on_c, 3, 84, 62
6, 30119, Note_on_c, 3, 84, 0
6, 30120, Note_on_c, 3, 79, 54
6, 30239, Note_on_c, 3, 79, 0
6, 30240, Note_on_c, 3, 84, 60
6, 30299, Note_on_c, 3, 84, 0
6, 30299, End_track
7, 0, Start_track
7, 0, MIDI_port, 0
7, 0, Title_t, "Bassoon"
7, 0, Program_c, 4, 70
7, 0, Control_c, 4, 7, 100
7, 0, Control_c, 4, 10, 30
7, 4560, Control_c, 4, 121, 0
7, 4560, Control_c, 4, 0, 0
7, 4560, Program_c, 4, 70
7, 4560, Pitch_bend_c, 4, 8192
7, 4560, Control_c, 4, 10, 30
7, 4560, Control_c, 4, 91, 100
7, 4560, Control_c, 4, 93, 50
7, 4560, Control_c, 4, 7, 100
7, 4560, Note_on_c, 4, 60, 126
7, 4589, Note_on_c, 4, 60, 0
7, 4620, Note_on_c, 4, 55, 127
7, 4649, Note_on_c, 4, 55, 0
7, 4650, Note_on_c, 4, 57, 127
7, 4679, Note_on_c, 4, 57, 0
7, 4680, Note_on_c, 4, 58, 126
7, 4709, Note_on_c, 4, 58, 0
7, 4740, Note_on_c, 4, 59, 127
7, 4769, Note_on_c, 4, 59, 0
7, 4800, Note_on_c, 4, 60, 127
7, 4859, Note_on_c, 4, 60, 0
7, 7740, Note_on_c, 4, 57, 102
7, 7769, Note_on_c, 4, 57, 0
7, 7800, Note_on_c, 4, 58, 106
7, 7829, Note_on_c, 4, 58, 0
7, 7860, Note_on_c, 4, 62, 110
7, 7889, Note_on_c, 4, 62, 0
7, 7920, Note_on_c, 4, 60, 114
7, 7979, Note_on_c, 4, 60, 0
7, 7980, Note_on_c, 4, 58, 105
7, 8009, Note_on_c, 4, 58, 0
7, 8010, Note_on_c, 4, 57, 78
7, 8039, Note_on_c, 4, 57, 0
7, 8040, Note_on_c, 4, 55, 110
7, 8069, Note_on_c, 4, 55, 0
7, 8100, Note_on_c, 4, 48, 95
7, 8129, Note_on_c, 4, 48, 0
7, 8160, Note_on_c, 4, 53, 95
7, 8189, Note_on_c, 4, 53, 0
7, 8220, Note_on_c, 4, 55, 116
7, 8249, Note_on_c, 4, 55, 0
7, 8280, Note_on_c, 4, 57, 90
7, 8339, Note_on_c, 4, 57, 0
7, 8340, Note_on_c, 4, 58, 95
7, 8369, Note_on_c, 4, 58, 0
7, 8370, Note_on_c, 4, 57, 82
7, 8399, Note_on_c, 4, 57, 0
7, 8400, Note_on_c, 4, 55, 95
7, 8429, Note_on_c, 4, 55, 0
7, 8460, Note_on_c, 4, 57, 95
7, 8489, Note_on_c, 4, 57, 0
7, 8520, Note_on_c, 4, 58, 100
7, 8579, Note_on_c, 4, 58, 0
7, 8580, Note_on_c, 4, 60, 105
7, 8609, Note_on_c, 4, 60, 0
7, 8610, Note_on_c, 4, 58, 100
7, 8639, Note_on_c, 4, 58, 0
7, 8640, Note_on_c, 4, 57, 116
7, 8669, Note_on_c, 4, 57, 0
7, 8700, Note_on_c, 4, 60, 105
7, 8729, Note_on_c, 4, 60, 0
7, 8760, Note_on_c, 4, 60, 110
7, 8789, Note_on_c, 4, 60, 0
7, 8820, Note_on_c, 4, 60, 110
7, 8849, Note_on_c, 4, 60, 0
7, 8880, Note_on_c, 4, 60, 110
7, 8939, Note_on_c, 4, 60, 0
7, 8940, Note_on_c, 4, 58, 116
7, 8969, Note_on_c, 4, 58, 0
7, 8970, Note_on_c, 4, 57, 95
7, 8999, Note_on_c, 4, 57, 0
7, 9000, Note_on_c, 4, 55, 105
7, 9029, Note_on_c, 4, 55, 0
7, 9060, Note_on_c, 4, 48, 112
7, 9089, Note_on_c, 4, 48, 0
7, 9120, Note_on_c, 4, 53, 109
7, 9149, Note_on_c, 4, 53, 0
7, 9180, Note_on_c, 4, 55, 108
7, 9209, Note_on_c, 4, 55, 0
7, 9240, Note_on_c, 4, 57, 114
7, 9359, Note_on_c, 4, 57, 0
7, 9360, Note_on_c, 4, 55, 110
7, 9389, Note_on_c, 4, 55, 0
7, 9420, Note_on_c, 4, 57, 102
7, 9449, Note_on_c, 4, 57, 0
7, 9480, Note_on_c, 4, 58, 108
7, 9599, Note_on_c, 4, 58, 0
7, 9600, Note_on_c, 4, 57, 114
7, 9659, Note_on_c, 4, 57, 0
7, 9660, Note_on_c, 4, 60, 107
7, 9689, Note_on_c, 4, 60, 0
7, 9720, Note_on_c, 4, 60, 106
7, 9749, Note_on_c, 4, 60, 0
7, 9780, Note_on_c, 4, 60, 107
7, 9809, Note_on_c, 4, 60, 0
7, 9840, Note_on_c, 4, 60, 102
7, 9959, Note_on_c, 4, 60, 0
7, 9960, Note_on_c, 4, 57, 97
7, 10019, Note_on_c, 4, 57, 0
7, 10020, Note_on_c, 4, 53, 101
7, 10049, Note_on_c, 4, 53, 0
7, 10080, Note_on_c, 4, 58, 110
7, 10139, Note_on_c, 4, 58, 0
7, 10140, Note_on_c, 4, 57, 110
7, 10169, Note_on_c, 4, 57, 0
7, 10200, Note_on_c, 4, 55, 95
7, 10259, Note_on_c, 4, 55, 0
7, 10260, Note_on_c, 4, 53, 100
7, 10289, Note_on_c, 4, 53, 0
7, 10290, Note_on_c, 4, 55, 100
7, 10319, Note_on_c, 4, 55, 0
7, 10320, Note_on_c, 4, 57, 110
7, 10379, Note_on_c, 4, 57, 0
7, 10380, Note_on_c, 4, 55, 110
7, 10409, Note_on_c, 4, 55, 0
7, 10440, Note_on_c, 4, 53, 110
7, 10469, Note_on_c, 4, 53, 0
7, 10500, Note_on_c, 4, 52, 103
7, 10529, Note_on_c, 4, 52, 0
7, 10530, Note_on_c, 4, 53, 107
7, 10559, Note_on_c, 4, 53, 0
7, 10560, Note_on_c, 4, 55, 107
7, 10589, Note_on_c, 4, 55, 0
7, 10620, Note_on_c, 4, 52, 95
7, 10649, Note_on_c, 4, 52, 0
7, 10680, Note_on_c, 4, 48, 95
7, 10709, Note_on_c, 4, 48, 0
7, 10740, Note_on_c, 4, 52, 95
7, 10769, Note_on_c, 4, 52, 0
7, 10800, Note_on_c, 4, 55, 105
7, 10829, Note_on_c, 4, 55, 0
7, 10860, Note_on_c, 4, 52, 105
7, 10889, Note_on_c, 4, 52, 0
7, 10920, Note_on_c, 4, 48, 91
7, 10949, Note_on_c, 4, 48, 0
7, 10980, Note_on_c, 4, 60, 95
7, 11009, Note_on_c, 4, 60, 0
7, 11040, Note_on_c, 4, 57, 105
7, 11069, Note_on_c, 4, 57, 0
7, 11100, Note_on_c, 4, 55, 100
7, 11129, Note_on_c, 4, 55, 0
7, 11160, Note_on_c, 4, 53, 95
7, 11219, Note_on_c, 4, 53, 0
7, 11220, Note_on_c, 4, 52, 100
7, 11249, Note_on_c, 4, 52, 0
7, 11250, Note_on_c, 4, 53, 82
7, 11279, Note_on_c, 4, 53, 0
7, 11280, Note_on_c, 4, 55, 95
7, 11309, Note_on_c, 4, 55, 0
7, 11340, Note_on_c, 4, 48, 81
7, 11369, Note_on_c, 4, 48, 0
7, 11400, Note_on_c, 4, 55, 95
7, 11429, Note_on_c, 4, 55, 0
7, 11460, Note_on_c, 4, 48, 90
7, 11489, Note_on_c, 4, 48, 0
7, 11520, Note_on_c, 4, 57, 95
7, 11549, Note_on_c, 4, 57, 0
7, 11580, Note_on_c, 4, 55, 95
7, 11609, Note_on_c, 4, 55, 0
7, 11640, Note_on_c, 4, 53, 110
7, 11699, Note_on_c, 4, 53, 0
7, 11700, Note_on_c, 4, 52, 110
7, 11729, Note_on_c, 4, 52, 0
7, 11730, Note_on_c, 4, 53, 110
7, 11759, Note_on_c, 4, 53, 0
7, 11760, Note_on_c, 4, 55, 110
7, 11789, Note_on_c, 4, 55, 0
7, 11820, Note_on_c, 4, 48, 96
7, 11849, Note_on_c, 4, 48, 0
7, 11880, Note_on_c, 4, 55, 95
7, 11909, Note_on_c, 4, 55, 0
7, 11940, Note_on_c, 4, 48, 105
7, 11969, Note_on_c, 4, 48, 0
7, 12000, Note_on_c, 4, 53, 95
7, 12029, Note_on_c, 4, 53, 0
7, 12060, Note_on_c, 4, 58, 95
7, 12089, Note_on_c, 4, 58, 0
7, 12120, Note_on_c, 4, 55, 78
7, 12149, Note_on_c, 4, 55, 0
7, 12180, Note_on_c, 4, 58, 90
7, 12209, Note_on_c, 4, 58, 0
7, 12240, Note_on_c, 4, 57, 100
7, 12269, Note_on_c, 4, 57, 0
7, 12300, Note_on_c, 4, 58, 90
7, 12329, Note_on_c, 4, 58, 0
7, 12360, Note_on_c, 4, 55, 90
7, 12389, Note_on_c, 4, 55, 0
7, 12420, Note_on_c, 4, 58, 95
7, 12449, Note_on_c, 4, 58, 0
7, 12480, Note_on_c, 4, 53, 78
7, 12480, Note_on_c, 4, 57, 86
7, 12509, Note_on_c, 4, 57, 0
7, 12509, Note_on_c, 4, 53, 0
7, 12520, Note_on_c, 4, 57, 66
7, 12520, Note_on_c, 4, 53, 66
7, 12549, Note_on_c, 4, 53, 0
7, 12549, Note_on_c, 4, 57, 0
7, 12560, Note_on_c, 4, 57, 66
7, 12560, Note_on_c, 4, 53, 66
7, 12589, Note_on_c, 4, 53, 0
7, 12589, Note_on_c, 4, 57, 0
7, 12600, Note_on_c, 4, 53, 71
7, 12600, Note_on_c, 4, 57, 71
7, 12629, Note_on_c, 4, 57, 0
7, 12629, Note_on_c, 4, 53, 0
7, 12640, Note_on_c, 4, 57, 67
7, 12640, Note_on_c, 4, 53, 67
7, 12669, Note_on_c, 4, 53, 0
7, 12669, Note_on_c, 4, 57, 0
7, 12680, Note_on_c, 4, 57, 67
7, 12680, Note_on_c, 4, 53, 67
7, 12709, Note_on_c, 4, 53, 0
7, 12709, Note_on_c, 4, 57, 0
7, 12720, Note_on_c, 4, 57, 69
7, 12720, Note_on_c, 4, 53, 69
7, 12749, Note_on_c, 4, 53, 0
7, 12749, Note_on_c, 4, 57, 0
7, 13440, Note_on_c, 4, 50, 52
7, 13440, Note_on_c, 4, 57, 52
7, 13649, Note_on_c, 4, 57, 0
7, 13649, Note_on_c, 4, 50, 0
7, 13680, Note_on_c, 4, 50, 46
7, 13680, Note_on_c, 4, 57, 46
7, 13739, Note_on_c, 4, 57, 0
7, 13739, Note_on_c, 4, 50, 0
7, 14400, Note_on_c, 4, 48, 47
7, 14400, Note_on_c, 4, 57, 47
7, 14609, Note_on_c, 4, 57, 0
7, 14609, Note_on_c, 4, 48, 0
7, 14640, Note_on_c, 4, 48, 42
7, 14640, Note_on_c, 4, 57, 42
7, 14699, Note_on_c, 4, 57, 0
7, 14699, Note_on_c, 4, 48, 0
7, 14880, Note_on_c, 4, 62, 42
7, 14880, Note_on_c, 4, 59, 42
7, 15089, Note_on_c, 4, 59, 0
7, 15089, Note_on_c, 4, 62, 0
7, 15120, Note_on_c, 4, 59, 36
7, 15120, Note_on_c, 4, 62, 36
7, 15179, Note_on_c, 4, 62, 0
7, 15179, Note_on_c, 4, 59, 0
7, 20160, Note_on_c, 4, 69, 110
7, 20219, Note_on_c, 4, 69, 0
7, 20220, Note_on_c, 4, 67, 109
7, 20279, Note_on_c, 4, 67, 0
7, 20280, Note_on_c, 4, 64, 104
7, 20339, Note_on_c, 4, 64, 0
7, 20340, Note_on_c, 4, 60, 98
7, 20399, Note_on_c, 4, 60, 0
7, 20400, Note_on_c, 4, 55, 97
7, 20459, Note_on_c, 4, 55, 0
7, 20460, Note_on_c, 4, 64, 97
7, 20519, Note_on_c, 4, 64, 0
7, 20520, Note_on_c, 4, 60, 96
7, 20579, Note_on_c, 4, 60, 0
7, 20580, Note_on_c, 4, 55, 97
7, 20639, Note_on_c, 4, 55, 0
7, 20640, Note_on_c, 4, 69, 102
7, 20699, Note_on_c, 4, 69, 0
7, 20700, Note_on_c, 4, 67, 107
7, 20759, Note_on_c, 4, 67, 0
7, 20760, Note_on_c, 4, 65, 107
7, 20819, Note_on_c, 4, 65, 0
7, 20820, Note_on_c, 4, 62, 107
7, 20879, Note_on_c, 4, 62, 0
7, 20880, Note_on_c, 4, 55, 105
7, 20939, Note_on_c, 4, 55, 0
7, 20940, Note_on_c, 4, 65, 100
7, 20999, Note_on_c, 4, 65, 0
7, 21000, Note_on_c, 4, 62, 100
7, 21059, Note_on_c, 4, 62, 0
7, 21060, Note_on_c, 4, 55, 100
7, 21119, Note_on_c, 4, 55, 0
7, 21120, Note_on_c, 4, 69, 110
7, 21179, Note_on_c, 4, 69, 0
7, 21180, Note_on_c, 4, 67, 109
7, 21239, Note_on_c, 4, 67, 0
7, 21240, Note_on_c, 4, 64, 104
7, 21299, Note_on_c, 4, 64, 0
7, 21300, Note_on_c, 4, 60, 98
7, 21359, Note_on_c, 4, 60, 0
7, 21360, Note_on_c, 4, 55, 97
7, 21419, Note_on_c, 4, 55, 0
7, 21420, Note_on_c, 4, 64, 97
7, 21479, Note_on_c, 4, 64, 0
7, 21480, Note_on_c, 4, 60, 96
7, 21539, Note_on_c, 4, 60, 0
7, 21540, Note_on_c, 4, 55, 97
7, 21599, Note_on_c, 4, 55, 0
7, 21600, Note_on_c, 4, 69, 102
7, 21659, Note_on_c, 4, 69, 0
7, 21660, Note_on_c, 4, 67, 107
7, 21719, Note_on_c, 4, 67, 0
7, 21720, Note_on_c, 4, 65, 107
7, 21779, Note_on_c, 4, 65, 0
7, 21780, Note_on_c, 4, 62, 107
7, 21839, Note_on_c, 4, 62, 0
7, 21840, Note_on_c, 4, 55, 105
7, 21899, Note_on_c, 4, 55, 0
7, 21900, Note_on_c, 4, 65, 99
7, 21959, Note_on_c, 4, 65, 0
7, 21960, Note_on_c, 4, 62, 98
7, 22019, Note_on_c, 4, 62, 0
7, 22020, Note_on_c, 4, 55, 96
7, 22079, Note_on_c, 4, 55, 0
7, 22080, Note_on_c, 4, 64, 94
7, 22080, Note_on_c, 4, 60, 94
7, 22139, Note_on_c, 4, 60, 0
7, 22139, Note_on_c, 4, 64, 0
7, 22800, Note_on_c, 4, 60, 69
7, 22800, Note_on_c, 4, 64, 69
7, 22859, Note_on_c, 4, 64, 0
7, 22859, Note_on_c, 4, 60, 0
7, 23280, Note_on_c, 4, 67, 112
7, 23399, Note_on_c, 4, 67, 0
7, 23400, Note_on_c, 4, 65, 106
7, 23459, Note_on_c, 4, 65, 0
7, 23460, Note_on_c, 4, 64, 105
7, 23519, Note_on_c, 4, 64, 0
7, 23520, Note_on_c, 4, 64, 108
7, 23579, Note_on_c, 4, 64, 0
7, 23580, Note_on_c, 4, 62, 104
7, 23639, Note_on_c, 4, 62, 0
7, 23640, Note_on_c, 4, 60, 100
7, 23699, Note_on_c, 4, 60, 0
7, 23700, Note_on_c, 4, 62, 104
7, 23759, Note_on_c, 4, 62, 0
7, 23760, Note_on_c, 4, 64, 100
7, 23819, Note_on_c, 4, 64, 0
7, 24480, Note_on_c, 4, 57, 69
7, 24539, Note_on_c, 4, 57, 0
7, 24720, Note_on_c, 4, 60, 103
7, 24839, Note_on_c, 4, 60, 0
7, 24840, Note_on_c, 4, 59, 99
7, 24899, Note_on_c, 4, 59, 0
7, 24900, Note_on_c, 4, 57, 95
7, 24959, Note_on_c, 4, 57, 0
7, 24960, Note_on_c, 4, 55, 106
7, 25079, Note_on_c, 4, 55, 0
7, 25080, Note_on_c, 4, 53, 94
7, 25139, Note_on_c, 4, 53, 0
7, 25140, Note_on_c, 4, 52, 96
7, 25199, Note_on_c, 4, 52, 0
7, 25200, Note_on_c, 4, 50, 104
7, 25319, Note_on_c, 4, 50, 0
7, 25320, Note_on_c, 4, 48, 92
7, 25379, Note_on_c, 4, 48, 0
7, 25380, Note_on_c, 4, 50, 96
7, 25439, Note_on_c, 4, 50, 0
7, 25440, Note_on_c, 4, 52, 102
7, 25469, Note_on_c, 4, 52, 0
7, 25500, Note_on_c, 4, 52, 94
7, 25559, Note_on_c, 4, 52, 0
7, 25560, Note_on_c, 4, 53, 91
7, 25619, Note_on_c, 4, 53, 0
7, 25620, Note_on_c, 4, 55, 96
7, 25679, Note_on_c, 4, 55, 0
7, 25680, Note_on_c, 4, 57, 103
7, 25709, Note_on_c, 4, 57, 0
7, 25740, Note_on_c, 4, 60, 104
7, 25799, Note_on_c, 4, 60, 0
7, 25800, Note_on_c, 4, 59, 100
7, 25859, Note_on_c, 4, 59, 0
7, 25860, Note_on_c, 4, 57, 93
7, 25919, Note_on_c, 4, 57, 0
7, 25920, Note_on_c, 4, 55, 94
7, 25949, Note_on_c, 4, 55, 0
7, 25980, Note_on_c, 4, 55, 96
7, 26039, Note_on_c, 4, 55, 0
7, 26040, Note_on_c, 4, 53, 97
7, 26099, Note_on_c, 4, 53, 0
7, 26100, Note_on_c, 4, 52, 93
7, 26159, Note_on_c, 4, 52, 0
7, 26160, Note_on_c, 4, 50, 91
7, 26219, Note_on_c, 4, 50, 0
7, 26280, Note_on_c, 4, 48, 94
7, 26339, Note_on_c, 4, 48, 0
7, 26340, Note_on_c, 4, 50, 99
7, 26399, Note_on_c, 4, 50, 0
7, 26400, Note_on_c, 4, 52, 99
7, 26459, Note_on_c, 4, 52, 0
7, 26520, Note_on_c, 4, 55, 95
7, 26579, Note_on_c, 4, 55, 0
7, 26640, Note_on_c, 4, 57, 93
7, 26699, Note_on_c, 4, 57, 0
7, 26760, Note_on_c, 4, 57, 102
7, 26819, Note_on_c, 4, 57, 0
7, 26880, Note_on_c, 4, 55, 102
7, 26939, Note_on_c, 4, 55, 0
7, 27000, Note_on_c, 4, 60, 102
7, 27059, Note_on_c, 4, 60, 0
7, 27120, Note_on_c, 4, 59, 95
7, 27179, Note_on_c, 4, 59, 0
7, 27240, Note_on_c, 4, 59, 92
7, 27299, Note_on_c, 4, 59, 0
7, 27360, Note_on_c, 4, 60, 109
7, 27479, Note_on_c, 4, 60, 0
7, 27480, Note_on_c, 4, 55, 103
7, 27809, Note_on_c, 4, 55, 0
7, 27840, Note_on_c, 4, 64, 102
7, 27959, Note_on_c, 4, 64, 0
7, 27960, Note_on_c, 4, 60, 94
7, 28319, Note_on_c, 4, 60, 0
7, 28320, Note_on_c, 4, 60, 92
7, 28439, Note_on_c, 4, 60, 0
7, 28440, Note_on_c, 4, 55, 86
7, 28799, Note_on_c, 4, 55, 0
7, 28800, Note_on_c, 4, 64, 89
7, 28919, Note_on_c, 4, 64, 0
7, 28920, Note_on_c, 4, 60, 83
7, 29249, Note_on_c, 4, 60, 0
7, 29280, Note_on_c, 4, 60, 83
7, 29399, Note_on_c, 4, 60, 0
7, 29400, Note_on_c, 4, 55, 77
7, 29519, Note_on_c, 4, 55, 0
7, 29520, Note_on_c, 4, 60, 74
7, 29639, Note_on_c, 4, 60, 0
7, 29640, Note_on_c, 4, 55, 69
7, 29759, Note_on_c, 4, 55, 0
7, 29760, Note_on_c, 4, 60, 69
7, 29879, Note_on_c, 4, 60, 0
7, 29880, Note_on_c, 4, 55, 65
7, 29999, Note_on_c, 4, 55, 0
7, 30000, Note_on_c, 4, 60, 65
7, 30119, Note_on_c, 4, 60, 0
7, 30120, Note_on_c, 4, 55, 65
7, 30239, Note_on_c, 4, 55, 0
7, 30240, Note_on_c, 4, 60, 69
7, 30299, Note_on_c, 4, 60, 0
7, 30299, End_track
8, 0, Start_track
8, 0, MIDI_port, 0
8, 0, Title_t, "Clarinet"
8, 0, Program_c, 5, 71
8, 0, Control_c, 5, 7, 90
8, 0, Control_c, 5, 10, 10
8, 6300, Control_c, 5, 121, 0
8, 6300, Control_c, 5, 0, 0
8, 6300, Program_c, 5, 71
8, 6300, Control_c, 5, 10, 10
8, 6300, Pitch_bend_c, 5, 8192
8, 6300, Control_c, 5, 91, 100
8, 6300, Control_c, 5, 93, 30
8, 6300, Control_c, 5, 7, 90
8, 6300, Note_on_c, 5, 58, 98
8, 6330, Note_on_c, 5, 60, 96
8, 6359, Note_on_c, 5, 60, 0
8, 6359, Note_on_c, 5, 58, 0
8, 6360, Note_on_c, 5, 62, 108
8, 6389, Note_on_c, 5, 62, 0
8, 6420, Note_on_c, 5, 64, 101
8, 6449, Note_on_c, 5, 64, 0
8, 6480, Note_on_c, 5, 65, 111
8, 6539, Note_on_c, 5, 65, 0
8, 7740, Note_on_c, 5, 69, 102
8, 7769, Note_on_c, 5, 69, 0
8, 7800, Note_on_c, 5, 70, 106
8, 7829, Note_on_c, 5, 70, 0
8, 7860, Note_on_c, 5, 74, 110
8, 7889, Note_on_c, 5, 74, 0
8, 7920, Note_on_c, 5, 72, 114
8, 7979, Note_on_c, 5, 72, 0
8, 7980, Note_on_c, 5, 70, 105
8, 8009, Note_on_c, 5, 70, 0
8, 8010, Note_on_c, 5, 69, 78
8, 8039, Note_on_c, 5, 69, 0
8, 8040, Note_on_c, 5, 67, 110
8, 8069, Note_on_c, 5, 67, 0
8, 8100, Note_on_c, 5, 60, 95
8, 8129, Note_on_c, 5, 60, 0
8, 8160, Note_on_c, 5, 65, 95
8, 8189, Note_on_c, 5, 65, 0
8, 8220, Note_on_c, 5, 67, 116
8, 8249, Note_on_c, 5, 67, 0
8, 8280, Note_on_c, 5, 69, 90
8, 8339, Note_on_c, 5, 69, 0
8, 8340, Note_on_c, 5, 70, 95
8, 8369, Note_on_c, 5, 70, 0
8, 8370, Note_on_c, 5, 69, 82
8, 8399, Note_on_c, 5, 69, 0
8, 8400, Note_on_c, 5, 67, 95
8, 8429, Note_on_c, 5, 67, 0
8, 8460, Note_on_c, 5, 69, 95
8, 8489, Note_on_c, 5, 69, 0
8, 8520, Note_on_c, 5, 70, 100
8, 8579, Note_on_c, 5, 70, 0
8, 8580, Note_on_c, 5, 72, 105
8, 8609, Note_on_c, 5, 72, 0
8, 8610, Note_on_c, 5, 70, 100
8, 8639, Note_on_c, 5, 70, 0
8, 8640, Note_on_c, 5, 69, 100
8, 8669, Note_on_c, 5, 69, 0
8, 8700, Note_on_c, 5, 69, 102
8, 8729, Note_on_c, 5, 69, 0
8, 8760, Note_on_c, 5, 70, 106
8, 8789, Note_on_c, 5, 70, 0
8, 8820, Note_on_c, 5, 74, 110
8, 8849, Note_on_c, 5, 74, 0
8, 8880, Note_on_c, 5, 72, 114
8, 8939, Note_on_c, 5, 72, 0
8, 8940, Note_on_c, 5, 70, 105
8, 8969, Note_on_c, 5, 70, 0
8, 8970, Note_on_c, 5, 69, 78
8, 8999, Note_on_c, 5, 69, 0
8, 9000, Note_on_c, 5, 67, 110
8, 9029, Note_on_c, 5, 67, 0
8, 9060, Note_on_c, 5, 60, 95
8, 9089, Note_on_c, 5, 60, 0
8, 9120, Note_on_c, 5, 65, 95
8, 9149, Note_on_c, 5, 65, 0
8, 9180, Note_on_c, 5, 67, 116
8, 9209, Note_on_c, 5, 67, 0
8, 9240, Note_on_c, 5, 69, 90
8, 9299, Note_on_c, 5, 69, 0
8, 9300, Note_on_c, 5, 70, 95
8, 9329, Note_on_c, 5, 70, 0
8, 9330, Note_on_c, 5, 69, 82
8, 9359, Note_on_c, 5, 69, 0
8, 9360, Note_on_c, 5, 67, 95
8, 9389, Note_on_c, 5, 67, 0
8, 9420, Note_on_c, 5, 69, 95
8, 9449, Note_on_c, 5, 69, 0
8, 9480, Note_on_c, 5, 70, 100
8, 9539, Note_on_c, 5, 70, 0
8, 9540, Note_on_c, 5, 72, 105
8, 9569, Note_on_c, 5, 72, 0
8, 9570, Note_on_c, 5, 70, 100
8, 9599, Note_on_c, 5, 70, 0
8, 9600, Note_on_c, 5, 69, 104
8, 9629, Note_on_c, 5, 69, 0
8, 9660, Note_on_c, 5, 72, 104
8, 9689, Note_on_c, 5, 72, 0
8, 9720, Note_on_c, 5, 72, 102
8, 9749, Note_on_c, 5, 72, 0
8, 9780, Note_on_c, 5, 72, 110
8, 9809, Note_on_c, 5, 72, 0
8, 9840, Note_on_c, 5, 72, 110
8, 9959, Note_on_c, 5, 72, 0
8, 9960, Note_on_c, 5, 70, 110
8, 9989, Note_on_c, 5, 70, 0
8, 9990, Note_on_c, 5, 69, 95
8, 10019, Note_on_c, 5, 69, 0
8, 10020, Note_on_c, 5, 67, 95
8, 10049, Note_on_c, 5, 67, 0
8, 10050, Note_on_c, 5, 65, 86
8, 10079, Note_on_c, 5, 65, 0
8, 10080, Note_on_c, 5, 64, 105
8, 10109, Note_on_c, 5, 64, 0
8, 10140, Note_on_c, 5, 65, 100
8, 10169, Note_on_c, 5, 65, 0
8, 10200, Note_on_c, 5, 67, 114
8, 10259, Note_on_c, 5, 67, 0
8, 10260, Note_on_c, 5, 69, 95
8, 10289, Note_on_c, 5, 69, 0
8, 10290, Note_on_c, 5, 67, 90
8, 10319, Note_on_c, 5, 67, 0
8, 10320, Note_on_c, 5, 65, 95
8, 10349, Note_on_c, 5, 65, 0
8, 10380, Note_on_c, 5, 67, 95
8, 10409, Note_on_c, 5, 67, 0
8, 10440, Note_on_c, 5, 69, 111
8, 10499, Note_on_c, 5, 69, 0
8, 10500, Note_on_c, 5, 70, 95
8, 10529, Note_on_c, 5, 70, 0
8, 10530, Note_on_c, 5, 69, 90
8, 10559, Note_on_c, 5, 69, 0
8, 10560, Note_on_c, 5, 67, 105
8, 10619, Note_on_c, 5, 67, 0
8, 10620, Note_on_c, 5, 70, 109
8, 10649, Note_on_c, 5, 70, 0
8, 10680, Note_on_c, 5, 70, 115
8, 10709, Note_on_c, 5, 70, 0
8, 10740, Note_on_c, 5, 70, 123
8, 10769, Note_on_c, 5, 70, 0
8, 10800, Note_on_c, 5, 70, 127
8, 10919, Note_on_c, 5, 70, 0
8, 10920, Note_on_c, 5, 72, 110
8, 10949, Note_on_c, 5, 72, 0
8, 10950, Note_on_c, 5, 70, 110
8, 10980, Note_on_c, 5, 69, 94
8, 11009, Note_on_c, 5, 69, 0
8, 11009, Note_on_c, 5, 70, 0
8, 11010, Note_on_c, 5, 67, 105
8, 11039, Note_on_c, 5, 67, 0
8, 11040, Note_on_c, 5, 69, 110
8, 11069, Note_on_c, 5, 69, 0
8, 11100, Note_on_c, 5, 70, 116
8, 11129, Note_on_c, 5, 70, 0
8, 11160, Note_on_c, 5, 72, 121
8, 11219, Note_on_c, 5, 72, 0
8, 11220, Note_on_c, 5, 74, 98
8, 11249, Note_on_c, 5, 74, 0
8, 11250, Note_on_c, 5, 72, 96
8, 11279, Note_on_c, 5, 72, 0
8, 11280, Note_on_c, 5, 70, 116
8, 11340, Note_on_c, 5, 72, 116
8, 11369, Note_on_c, 5, 72, 0
8, 11369, Note_on_c, 5, 70, 0
8, 11370, Note_on_c, 5, 70, 108
8, 11399, Note_on_c, 5, 70, 0
8, 11400, Note_on_c, 5, 67, 110
8, 11459, Note_on_c, 5, 67, 0
8, 11460, Note_on_c, 5, 72, 108
8, 11489, Note_on_c, 5, 72, 0
8, 11490, Note_on_c, 5, 70, 96
8, 11519, Note_on_c, 5, 70, 0
8, 11520, Note_on_c, 5, 69, 102
8, 11549, Note_on_c, 5, 69, 0
8, 11580, Note_on_c, 5, 70, 99
8, 11609, Note_on_c, 5, 70, 0
8, 11640, Note_on_c, 5, 72, 111
8, 11699, Note_on_c, 5, 72, 0
8, 11700, Note_on_c, 5, 74, 99
8, 11729, Note_on_c, 5, 74, 0
8, 11730, Note_on_c, 5, 72, 105
8, 11759, Note_on_c, 5, 72, 0
8, 11760, Note_on_c, 5, 70, 116
8, 11819, Note_on_c, 5, 70, 0
8, 11820, Note_on_c, 5, 72, 103
8, 11849, Note_on_c, 5, 72, 0
8, 11850, Note_on_c, 5, 70, 103
8, 11879, Note_on_c, 5, 70, 0
8, 11880, Note_on_c, 5, 67, 115
8, 11939, Note_on_c, 5, 67, 0
8, 11940, Note_on_c, 5, 72, 95
8, 11969, Note_on_c, 5, 72, 0
8, 11970, Note_on_c, 5, 70, 95
8, 11999, Note_on_c, 5, 70, 0
8, 12000, Note_on_c, 5, 69, 101
8, 12059, Note_on_c, 5, 69, 0
8, 12060, Note_on_c, 5, 72, 87
8, 12089, Note_on_c, 5, 72, 0
8, 12090, Note_on_c, 5, 70, 80
8, 12119, Note_on_c, 5, 70, 0
8, 12120, Note_on_c, 5, 67, 91
8, 12179, Note_on_c, 5, 67, 0
8, 12180, Note_on_c, 5, 72, 83
8, 12209, Note_on_c, 5, 72, 0
8, 12210, Note_on_c, 5, 70, 76
8, 12239, Note_on_c, 5, 70, 0
8, 12240, Note_on_c, 5, 69, 83
8, 12299, Note_on_c, 5, 69, 0
8, 12300, Note_on_c, 5, 72, 85
8, 12329, Note_on_c, 5, 72, 0
8, 12330, Note_on_c, 5, 70, 74
8, 12359, Note_on_c, 5, 70, 0
8, 12360, Note_on_c, 5, 67, 75
8, 12419, Note_on_c, 5, 67, 0
8, 12420, Note_on_c, 5, 72, 83
8, 12449, Note_on_c, 5, 72, 0
8, 12450, Note_on_c, 5, 70, 73
8, 12479, Note_on_c, 5, 70, 0
8, 12480, Note_on_c, 5, 69, 98
8, 12509, Note_on_c, 5, 69, 0
8, 12520, Note_on_c, 5, 69, 67
8, 12549, Note_on_c, 5, 69, 0
8, 12560, Note_on_c, 5, 69, 66
8, 12589, Note_on_c, 5, 69, 0
8, 12600, Note_on_c, 5, 69, 82
8, 12629, Note_on_c, 5, 69, 0
8, 12640, Note_on_c, 5, 69, 72
8, 12669, Note_on_c, 5, 69, 0
8, 12680, Note_on_c, 5, 69, 66
8, 12709, Note_on_c, 5, 69, 0
8, 12720, Note_on_c, 5, 69, 81
8, 12809, Note_on_c, 5, 69, 0
8, 19680, Note_on_c, 5, 81, 97
8, 19740, Note_on_c, 5, 79, 96
8, 19769, Note_on_c, 5, 81, 0
8, 19800, Note_on_c, 5, 77, 93
8, 19819, Note_on_c, 5, 79, 0
8, 19859, Note_on_c, 5, 77, 0
8, 19860, Note_on_c, 5, 74, 90
8, 19919, Note_on_c, 5, 74, 0
8, 19920, Note_on_c, 5, 67, 89
8, 19979, Note_on_c, 5, 67, 0
8, 19980, Note_on_c, 5, 77, 91
8, 20040, Note_on_c, 5, 74, 91
8, 20059, Note_on_c, 5, 77, 0
8, 20099, Note_on_c, 5, 74, 0
8, 20100, Note_on_c, 5, 67, 87
8, 20159, Note_on_c, 5, 67, 0
8, 20160, Note_on_c, 5, 81, 89
8, 20220, Note_on_c, 5, 79, 93
8, 20239, Note_on_c, 5, 81, 0
8, 20280, Note_on_c, 5, 76, 90
8, 20299, Note_on_c, 5, 79, 0
8, 20339, Note_on_c, 5, 76, 0
8, 20340, Note_on_c, 5, 72, 87
8, 20399, Note_on_c, 5, 72, 0
8, 20400, Note_on_c, 5, 67, 87
8, 20459, Note_on_c, 5, 67, 0
8, 20460, Note_on_c, 5, 76, 87
8, 20520, Note_on_c, 5, 72, 81
8, 20539, Note_on_c, 5, 76, 0
8, 20579, Note_on_c, 5, 72, 0
8, 20580, Note_on_c, 5, 67, 81
8, 20639, Note_on_c, 5, 67, 0
8, 20640, Note_on_c, 5, 81, 79
8, 20700, Note_on_c, 5, 79, 70
8, 20709, Note_on_c, 5, 81, 0
8, 20759, Note_on_c, 5, 79, 0
8, 20760, Note_on_c, 5, 77, 69
8, 20819, Note_on_c, 5, 77, 0
8, 20820, Note_on_c, 5, 74, 67
8, 20879, Note_on_c, 5, 74, 0
8, 20880, Note_on_c, 5, 67, 68
8, 20939, Note_on_c, 5, 67, 0
8, 20940, Note_on_c, 5, 77, 76
8, 20999, Note_on_c, 5, 77, 0
8, 21000, Note_on_c, 5, 74, 67
8, 21059, Note_on_c, 5, 74, 0
8, 21060, Note_on_c, 5, 67, 71
8, 21119, Note_on_c, 5, 67, 0
8, 21120, Note_on_c, 5, 81, 73
8, 21180, Note_on_c, 5, 79, 68
8, 21189, Note_on_c, 5, 81, 0
8, 21239, Note_on_c, 5, 79, 0
8, 21240, Note_on_c, 5, 76, 68
8, 21299, Note_on_c, 5, 76, 0
8, 21300, Note_on_c, 5, 72, 67
8, 21359, Note_on_c, 5, 72, 0
8, 21360, Note_on_c, 5, 67, 69
8, 21419, Note_on_c, 5, 67, 0
8, 21420, Note_on_c, 5, 76, 75
8, 21479, Note_on_c, 5, 76, 0
8, 21480, Note_on_c, 5, 72, 70
8, 21539, Note_on_c, 5, 72, 0
8, 21540, Note_on_c, 5, 67, 64
8, 21599, Note_on_c, 5, 67, 0
8, 21600, Note_on_c, 5, 81, 72
8, 21660, Note_on_c, 5, 79, 68
8, 21669, Note_on_c, 5, 81, 0
8, 21719, Note_on_c, 5, 79, 0
8, 21720, Note_on_c, 5, 77, 70
8, 21779, Note_on_c, 5, 77, 0
8, 21780, Note_on_c, 5, 74, 65
8, 21839, Note_on_c, 5, 74, 0
8, 21840, Note_on_c, 5, 67, 67
8, 21899, Note_on_c, 5, 67, 0
8, 21900, Note_on_c, 5, 77, 71
8, 21959, Note_on_c, 5, 77, 0
8, 21960, Note_on_c, 5, 74, 66
8, 22019, Note_on_c, 5, 74, 0
8, 22020, Note_on_c, 5, 67, 64
8, 22079, Note_on_c, 5, 67, 0
8, 22080, Note_on_c, 5, 67, 71
8, 22080, Note_on_c, 5, 76, 71
8, 22139, Note_on_c, 5, 76, 0
8, 22139, Note_on_c, 5, 67, 0
8, 22800, Note_on_c, 5, 69, 55
8, 22800, Note_on_c, 5, 77, 55
8, 22859, Note_on_c, 5, 77, 0
8, 22859, Note_on_c, 5, 69, 0
8, 24480, Note_on_c, 5, 69, 58
8, 24480, Note_on_c, 5, 77, 58
8, 24569, Note_on_c, 5, 77, 0
8, 24569, Note_on_c, 5, 69, 0
8, 24960, Note_on_c, 5, 67, 97
8, 25079, Note_on_c, 5, 67, 0
8, 25080, Note_on_c, 5, 65, 84
8, 25139, Note_on_c, 5, 65, 0
8, 25140, Note_on_c, 5, 64, 87
8, 25199, Note_on_c, 5, 64, 0
8, 25200, Note_on_c, 5, 64, 94
8, 25259, Note_on_c, 5, 64, 0
8, 25260, Note_on_c, 5, 62, 85
8, 25319, Note_on_c, 5, 62, 0
8, 25320, Note_on_c, 5, 60, 91
8, 25379, Note_on_c, 5, 60, 0
8, 25380, Note_on_c, 5, 62, 83
8, 25439, Note_on_c, 5, 62, 0
8, 25440, Note_on_c, 5, 64, 89
8, 25469, Note_on_c, 5, 64, 0
8, 25500, Note_on_c, 5, 64, 72
8, 25559, Note_on_c, 5, 64, 0
8, 25560, Note_on_c, 5, 65, 76
8, 25619, Note_on_c, 5, 65, 0
8, 25620, Note_on_c, 5, 67, 84
8, 25679, Note_on_c, 5, 67, 0
8, 25680, Note_on_c, 5, 69, 86
8, 25709, Note_on_c, 5, 69, 0
8, 25740, Note_on_c, 5, 72, 97
8, 25799, Note_on_c, 5, 72, 0
8, 25800, Note_on_c, 5, 71, 82
8, 25859, Note_on_c, 5, 71, 0
8, 25860, Note_on_c, 5, 69, 78
8, 25919, Note_on_c, 5, 69, 0
8, 25920, Note_on_c, 5, 67, 78
8, 25949, Note_on_c, 5, 67, 0
8, 25980, Note_on_c, 5, 67, 90
8, 26039, Note_on_c, 5, 67, 0
8, 26040, Note_on_c, 5, 65, 82
8, 26099, Note_on_c, 5, 65, 0
8, 26100, Note_on_c, 5, 64, 85
8, 26159, Note_on_c, 5, 64, 0
8, 26160, Note_on_c, 5, 64, 99
8, 26219, Note_on_c, 5, 64, 0
8, 26220, Note_on_c, 5, 62, 104
8, 26279, Note_on_c, 5, 62, 0
8, 26280, Note_on_c, 5, 60, 100
8, 26339, Note_on_c, 5, 60, 0
8, 26340, Note_on_c, 5, 62, 103
8, 26399, Note_on_c, 5, 62, 0
8, 26400, Note_on_c, 5, 64, 105
8, 26459, Note_on_c, 5, 64, 0
8, 26520, Note_on_c, 5, 72, 107
8, 26579, Note_on_c, 5, 72, 0
8, 26640, Note_on_c, 5, 72, 103
8, 26699, Note_on_c, 5, 72, 0
8, 26760, Note_on_c, 5, 77, 99
8, 26819, Note_on_c, 5, 77, 0
8, 26880, Note_on_c, 5, 76, 97
8, 26939, Note_on_c, 5, 76, 0
8, 27000, Note_on_c, 5, 76, 109
8, 27059, Note_on_c, 5, 76, 0
8, 27120, Note_on_c, 5, 77, 99
8, 27179, Note_on_c, 5, 77, 0
8, 27240, Note_on_c, 5, 77, 99
8, 27299, Note_on_c, 5, 77, 0
8, 27360, Note_on_c, 5, 72, 90
8, 27449, Note_on_c, 5, 72, 0
8, 27480, Note_on_c, 5, 67, 84
8, 27779, Note_on_c, 5, 67, 0
8, 27840, Note_on_c, 5, 76, 81
8, 27929, Note_on_c, 5, 76, 0
8, 27960, Note_on_c, 5, 72, 76
8, 28319, Note_on_c, 5, 72, 0
8, 28320, Note_on_c, 5, 72, 77
8, 28409, Note_on_c, 5, 72, 0
8, 28440, Note_on_c, 5, 67, 70
8, 28739, Note_on_c, 5, 67, 0
8, 28800, Note_on_c, 5, 76, 74
8, 28889, Note_on_c, 5, 76, 0
8, 28920, Note_on_c, 5, 72, 68
8, 29279, Note_on_c, 5, 72, 0
8, 29280, Note_on_c, 5, 72, 72
8, 29399, Note_on_c, 5, 72, 0
8, 29400, Note_on_c, 5, 67, 66
8, 29519, Note_on_c, 5, 67, 0
8, 29520, Note_on_c, 5, 72, 67
8, 29639, Note_on_c, 5, 72, 0
8, 29640, Note_on_c, 5, 67, 58
8, 29759, Note_on_c, 5, 67, 0
8, 29760, Note_on_c, 5, 72, 62
8, 29879, Note_on_c, 5, 72, 0
8, 29880, Note_on_c, 5, 67, 56
8, 29999, Note_on_c, 5, 67, 0
8, 30000, Note_on_c, 5, 72, 57
8, 30119, Note_on_c, 5, 72, 0
8, 30120, Note_on_c, 5, 67, 53
8, 30239, Note_on_c, 5, 67, 0
8, 30240, Note_on_c, 5, 72, 52
8, 30299, Note_on_c, 5, 72, 0
8, 30299, End_track
9, 0, Start_track
9, 0, MIDI_port, 0
9, 0, Title_t, "Oboe"
9, 0, Program_c, 6, 68
9, 0, Control_c, 6, 7, 90
9, 0, Control_c, 6, 10, 20
9, 6540, Control_c, 6, 121, 0
9, 6540, Control_c, 6, 0, 0
9, 6540, Program_c, 6, 68
9, 6540, Control_c, 6, 10, 20
9, 6540, Pitch_bend_c, 6, 8192
9, 6540, Control_c, 6, 91, 110
9, 6540, Control_c, 6, 93, 60
9, 6540, Control_c, 6, 7, 90
9, 6540, Note_on_c, 6, 74, 101
9, 6569, Note_on_c, 6, 74, 0
9, 6570, Note_on_c, 6, 76, 114
9, 6599, Note_on_c, 6, 76, 0
9, 6600, Note_on_c, 6, 77, 122
9, 6629, Note_on_c, 6, 77, 0
9, 6660, Note_on_c, 6, 79, 115
9, 6689, Note_on_c, 6, 79, 0
9, 6720, Note_on_c, 6, 81, 110
9, 6749, Note_on_c, 6, 81, 0
9, 6780, Note_on_c, 6, 81, 74
9, 6809, Note_on_c, 6, 81, 0
9, 6840, Note_on_c, 6, 82, 74
9, 6869, Note_on_c, 6, 82, 0
9, 6900, Note_on_c, 6, 86, 78
9, 6929, Note_on_c, 6, 86, 0
9, 6960, Note_on_c, 6, 84, 84
9, 7019, Note_on_c, 6, 84, 0
9, 7020, Note_on_c, 6, 82, 84
9, 7049, Note_on_c, 6, 82, 0
9, 7050, Note_on_c, 6, 81, 84
9, 7079, Note_on_c, 6, 81, 0
9, 7080, Note_on_c, 6, 79, 80
9, 7109, Note_on_c, 6, 79, 0
9, 7140, Note_on_c, 6, 72, 80
9, 7169, Note_on_c, 6, 72, 0
9, 7200, Note_on_c, 6, 77, 82
9, 7229, Note_on_c, 6, 77, 0
9, 7260, Note_on_c, 6, 79, 82
9, 7289, Note_on_c, 6, 79, 0
9, 7320, Note_on_c, 6, 77, 93
9, 7320, Note_on_c, 6, 81, 93
9, 7379, Note_on_c, 6, 81, 0
9, 7379, Note_on_c, 6, 77, 0
9, 7380, Note_on_c, 6, 79, 90
9, 7380, Note_on_c, 6, 82, 90
9, 7409, Note_on_c, 6, 82, 0
9, 7409, Note_on_c, 6, 79, 0
9, 7410, Note_on_c, 6, 77, 92
9, 7410, Note_on_c, 6, 81, 92
9, 7439, Note_on_c, 6, 81, 0
9, 7439, Note_on_c, 6, 77, 0
9, 7440, Note_on_c, 6, 76, 94
9, 7440, Note_on_c, 6, 79, 94
9, 7469, Note_on_c, 6, 79, 0
9, 7469, Note_on_c, 6, 76, 0
9, 7500, Note_on_c, 6, 77, 94
9, 7500, Note_on_c, 6, 81, 94
9, 7529, Note_on_c, 6, 81, 0
9, 7529, Note_on_c, 6, 77, 0
9, 7560, Note_on_c, 6, 79, 102
9, 7560, Note_on_c, 6, 82, 102
9, 7619, Note_on_c, 6, 82, 0
9, 7619, Note_on_c, 6, 79, 0
9, 7620, Note_on_c, 6, 81, 99
9, 7620, Note_on_c, 6, 84, 99
9, 7649, Note_on_c, 6, 84, 0
9, 7649, Note_on_c, 6, 81, 0
9, 7650, Note_on_c, 6, 79, 94
9, 7650, Note_on_c, 6, 82, 94
9, 7679, Note_on_c, 6, 82, 0
9, 7679, Note_on_c, 6, 79, 0
9, 7680, Note_on_c, 6, 77, 106
9, 7680, Note_on_c, 6, 81, 106
9, 7709, Note_on_c, 6, 81, 0
9, 7709, Note_on_c, 6, 77, 0
9, 7740, Note_on_c, 6, 72, 82
9, 7740, Note_on_c, 6, 84, 82
9, 7769, Note_on_c, 6, 84, 0
9, 7769, Note_on_c, 6, 72, 0
9, 7800, Note_on_c, 6, 72, 92
9, 7800, Note_on_c, 6, 84, 92
9, 7829, Note_on_c, 6, 84, 0
9, 7829, Note_on_c, 6, 72, 0
9, 7860, Note_on_c, 6, 72, 84
9, 7860, Note_on_c, 6, 84, 84
9, 7889, Note_on_c, 6, 84, 0
9, 7889, Note_on_c, 6, 72, 0
9, 7920, Note_on_c, 6, 84, 86
9, 7949, Note_on_c, 6, 84, 0
9, 7950, Note_on_c, 6, 72, 84
9, 7979, Note_on_c, 6, 72, 0
9, 7980, Note_on_c, 6, 84, 84
9, 8009, Note_on_c, 6, 84, 0
9, 8010, Note_on_c, 6, 72, 84
9, 8039, Note_on_c, 6, 72, 0
9, 8040, Note_on_c, 6, 84, 88
9, 8069, Note_on_c, 6, 84, 0
9, 8070, Note_on_c, 6, 72, 89
9, 8099, Note_on_c, 6, 72, 0
9, 8100, Note_on_c, 6, 84, 88
9, 8129, Note_on_c, 6, 84, 0
9, 8130, Note_on_c, 6, 72, 88
9, 8159, Note_on_c, 6, 72, 0
9, 8160, Note_on_c, 6, 84, 86
9, 8189, Note_on_c, 6, 84, 0
9, 8190, Note_on_c, 6, 72, 86
9, 8219, Note_on_c, 6, 72, 0
9, 8220, Note_on_c, 6, 84, 88
9, 8249, Note_on_c, 6, 84, 0
9, 8250, Note_on_c, 6, 72, 88
9, 8279, Note_on_c, 6, 72, 0
9, 8280, Note_on_c, 6, 84, 88
9, 8309, Note_on_c, 6, 84, 0
9, 8310, Note_on_c, 6, 72, 88
9, 8339, Note_on_c, 6, 72, 0
9, 8340, Note_on_c, 6, 84, 85
9, 8369, Note_on_c, 6, 84, 0
9, 8370, Note_on_c, 6, 72, 82
9, 8399, Note_on_c, 6, 72, 0
9, 8400, Note_on_c, 6, 84, 81
9, 8429, Note_on_c, 6, 84, 0
9, 8430, Note_on_c, 6, 72, 82
9, 8459, Note_on_c, 6, 72, 0
9, 8460, Note_on_c, 6, 84, 86
9, 8489, Note_on_c, 6, 84, 0
9, 8490, Note_on_c, 6, 72, 89
9, 8519, Note_on_c, 6, 72, 0
9, 8520, Note_on_c, 6, 84, 86
9, 8549, Note_on_c, 6, 84, 0
9, 8550, Note_on_c, 6, 72, 84
9, 8579, Note_on_c, 6, 72, 0
9, 8580, Note_on_c, 6, 84, 82
9, 8609, Note_on_c, 6, 84, 0
9, 8610, Note_on_c, 6, 72, 89
9, 8639, Note_on_c, 6, 72, 0
9, 8640, Note_on_c, 6, 81, 103
9, 8669, Note_on_c, 6, 81, 0
9, 8700, Note_on_c, 6, 81, 103
9, 8729, Note_on_c, 6, 81, 0
9, 8760, Note_on_c, 6, 82, 105
9, 8789, Note_on_c, 6, 82, 0
9, 8820, Note_on_c, 6, 86, 105
9, 8849, Note_on_c, 6, 86, 0
9, 8880, Note_on_c, 6, 84, 110
9, 8939, Note_on_c, 6, 84, 0
9, 8940, Note_on_c, 6, 82, 90
9, 8969, Note_on_c, 6, 82, 0
9, 8970, Note_on_c, 6, 81, 95
9, 8999, Note_on_c, 6, 81, 0
9, 9000, Note_on_c, 6, 79, 110
9, 9029, Note_on_c, 6, 79, 0
9, 9060, Note_on_c, 6, 72, 100
9, 9089, Note_on_c, 6, 72, 0
9, 9120, Note_on_c, 6, 77, 116
9, 9149, Note_on_c, 6, 77, 0
9, 9180, Note_on_c, 6, 79, 116
9, 9209, Note_on_c, 6, 79, 0
9, 9240, Note_on_c, 6, 81, 110
9, 9299, Note_on_c, 6, 81, 0
9, 9300, Note_on_c, 6, 82, 95
9, 9329, Note_on_c, 6, 82, 0
9, 9330, Note_on_c, 6, 81, 95
9, 9359, Note_on_c, 6, 81, 0
9, 9360, Note_on_c, 6, 79, 110
9, 9389, Note_on_c, 6, 79, 0
9, 9420, Note_on_c, 6, 81, 116
9, 9449, Note_on_c, 6, 81, 0
9, 9480, Note_on_c, 6, 82, 105
9, 9539, Note_on_c, 6, 82, 0
9, 9540, Note_on_c, 6, 84, 100
9, 9569, Note_on_c, 6, 84, 0
9, 9570, Note_on_c, 6, 82, 95
9, 9599, Note_on_c, 6, 82, 0
9, 9600, Note_on_c, 6, 81, 105
9, 9659, Note_on_c, 6, 81, 0
9, 9660, Note_on_c, 6, 84, 110
9, 9689, Note_on_c, 6, 84, 0
9, 9720, Note_on_c, 6, 84, 110
9, 9749, Note_on_c, 6, 84, 0
9, 9780, Note_on_c, 6, 84, 110
9, 9809, Note_on_c, 6, 84, 0
9, 9840, Note_on_c, 6, 84, 122
9, 9959, Note_on_c, 6, 84, 0
9, 9960, Note_on_c, 6, 82, 105
9, 9989, Note_on_c, 6, 82, 0
9, 9990, Note_on_c, 6, 81, 100
9, 10019, Note_on_c, 6, 81, 0
9, 10020, Note_on_c, 6, 79, 105
9, 10049, Note_on_c, 6, 79, 0
9, 10050, Note_on_c, 6, 77, 95
9, 10079, Note_on_c, 6, 77, 0
9, 10080, Note_on_c, 6, 76, 118
9, 10109, Note_on_c, 6, 76, 0
9, 10140, Note_on_c, 6, 77, 116
9, 10169, Note_on_c, 6, 77, 0
9, 10200, Note_on_c, 6, 79, 95
9, 10259, Note_on_c, 6, 79, 0
9, 10260, Note_on_c, 6, 81, 110
9, 10289, Note_on_c, 6, 81, 0
9, 10290, Note_on_c, 6, 79, 110
9, 10319, Note_on_c, 6, 79, 0
9, 10320, Note_on_c, 6, 77, 95
9, 10349, Note_on_c, 6, 77, 0
9, 10380, Note_on_c, 6, 79, 116
9, 10409, Note_on_c, 6, 79, 0
9, 10440, Note_on_c, 6, 81, 110
9, 10499, Note_on_c, 6, 81, 0
9, 10500, Note_on_c, 6, 82, 95
9, 10529, Note_on_c, 6, 82, 0
9, 10530, Note_on_c, 6, 81, 95
9, 10559, Note_on_c, 6, 81, 0
9, 10560, Note_on_c, 6, 79, 105
9, 10619, Note_on_c, 6, 79, 0
9, 10620, Note_on_c, 6, 82, 110
9, 10649, Note_on_c, 6, 82, 0
9, 10680, Note_on_c, 6, 82, 106
9, 10709, Note_on_c, 6, 82, 0
9, 10740, Note_on_c, 6, 82, 116
9, 10769, Note_on_c, 6, 82, 0
9, 10800, Note_on_c, 6, 82, 110
9, 10919, Note_on_c, 6, 82, 0
9, 10920, Note_on_c, 6, 84, 116
9, 10949, Note_on_c, 6, 84, 0
9, 10950, Note_on_c, 6, 82, 105
9, 10979, Note_on_c, 6, 82, 0
9, 10980, Note_on_c, 6, 81, 105
9, 11009, Note_on_c, 6, 81, 0
9, 11010, Note_on_c, 6, 79, 105
9, 11039, Note_on_c, 6, 79, 0
9, 11040, Note_on_c, 6, 81, 110
9, 11069, Note_on_c, 6, 81, 0
9, 11100, Note_on_c, 6, 82, 108
9, 11129, Note_on_c, 6, 82, 0
9, 11160, Note_on_c, 6, 84, 105
9, 11279, Note_on_c, 6, 84, 0
9, 11280, Note_on_c, 6, 82, 100
9, 11339, Note_on_c, 6, 82, 0
9, 11340, Note_on_c, 6, 79, 90
9, 11399, Note_on_c, 6, 79, 0
9, 11400, Note_on_c, 6, 82, 105
9, 11459, Note_on_c, 6, 82, 0
9, 11460, Note_on_c, 6, 79, 95
9, 11519, Note_on_c, 6, 79, 0
9, 11520, Note_on_c, 6, 81, 116
9, 11549, Note_on_c, 6, 81, 0
9, 11580, Note_on_c, 6, 82, 110
9, 11609, Note_on_c, 6, 82, 0
9, 11640, Note_on_c, 6, 84, 110
9, 11759, Note_on_c, 6, 84, 0
9, 11760, Note_on_c, 6, 82, 100
9, 11819, Note_on_c, 6, 82, 0
9, 11820, Note_on_c, 6, 79, 90
9, 11879, Note_on_c, 6, 79, 0
9, 11880, Note_on_c, 6, 82, 94
9, 11939, Note_on_c, 6, 82, 0
9, 11940, Note_on_c, 6, 79, 89
9, 11999, Note_on_c, 6, 79, 0
9, 12000, Note_on_c, 6, 81, 87
9, 12059, Note_on_c, 6, 81, 0
9, 12060, Note_on_c, 6, 79, 86
9, 12119, Note_on_c, 6, 79, 0
9, 12120, Note_on_c, 6, 82, 87
9, 12179, Note_on_c, 6, 82, 0
9, 12180, Note_on_c, 6, 79, 85
9, 12239, Note_on_c, 6, 79, 0
9, 12240, Note_on_c, 6, 81, 89
9, 12299, Note_on_c, 6, 81, 0
9, 12300, Note_on_c, 6, 79, 87
9, 12359, Note_on_c, 6, 79, 0
9, 12360, Note_on_c, 6, 82, 83
9, 12419, Note_on_c, 6, 82, 0
9, 12420, Note_on_c, 6, 79, 85
9, 12479, Note_on_c, 6, 79, 0
9, 12480, Note_on_c, 6, 81, 89
9, 12480, Note_on_c, 6, 77, 89
9, 12539, Note_on_c, 6, 77, 0
9, 12539, Note_on_c, 6, 81, 0
9, 20640, Note_on_c, 6, 79, 75
9, 21119, Note_on_c, 6, 79, 0
9, 21120, Note_on_c, 6, 84, 71
9, 21569, Note_on_c, 6, 84, 0
9, 21600, Note_on_c, 6, 81, 84
9, 21659, Note_on_c, 6, 81, 0
9, 21660, Note_on_c, 6, 79, 74
9, 21719, Note_on_c, 6, 79, 0
9, 21720, Note_on_c, 6, 77, 79
9, 21779, Note_on_c, 6, 77, 0
9, 21780, Note_on_c, 6, 74, 77
9, 21839, Note_on_c, 6, 74, 0
9, 21840, Note_on_c, 6, 67, 79
9, 21899, Note_on_c, 6, 67, 0
9, 21900, Note_on_c, 6, 77, 83
9, 21959, Note_on_c, 6, 77, 0
9, 21960, Note_on_c, 6, 74, 78
9, 22019, Note_on_c, 6, 74, 0
9, 22020, Note_on_c, 6, 67, 77
9, 22079, Note_on_c, 6, 67, 0
9, 22080, Note_on_c, 6, 79, 79
9, 22080, Note_on_c, 6, 76, 79
9, 22169, Note_on_c, 6, 76, 0
9, 22169, Note_on_c, 6, 79, 0
9, 22800, Note_on_c, 6, 84, 91
9, 22800, Note_on_c, 6, 81, 91
9, 22889, Note_on_c, 6, 81, 0
9, 22889, Note_on_c, 6, 84, 0
9, 23040, Note_on_c, 6, 81, 82
9, 23040, Note_on_c, 6, 84, 82
9, 23159, Note_on_c, 6, 84, 0
9, 23159, Note_on_c, 6, 81, 0
9, 23160, Note_on_c, 6, 79, 82
9, 23160, Note_on_c, 6, 83, 82
9, 23219, Note_on_c, 6, 83, 0
9, 23219, Note_on_c, 6, 79, 0
9, 23220, Note_on_c, 6, 77, 77
9, 23220, Note_on_c, 6, 81, 77
9, 23279, Note_on_c, 6, 81, 0
9, 23279, Note_on_c, 6, 77, 0
9, 23280, Note_on_c, 6, 76, 85
9, 23280, Note_on_c, 6, 79, 85
9, 23399, Note_on_c, 6, 79, 0
9, 23399, Note_on_c, 6, 76, 0
9, 23400, Note_on_c, 6, 74, 83
9, 23400, Note_on_c, 6, 77, 83
9, 23459, Note_on_c, 6, 77, 0
9, 23459, Note_on_c, 6, 74, 0
9, 23460, Note_on_c, 6, 72, 74
9, 23460, Note_on_c, 6, 76, 74
9, 23519, Note_on_c, 6, 76, 0
9, 23519, Note_on_c, 6, 72, 0
9, 23520, Note_on_c, 6, 72, 75
9, 23520, Note_on_c, 6, 76, 75
9, 23579, Note_on_c, 6, 76, 0
9, 23579, Note_on_c, 6, 72, 0
9, 23580, Note_on_c, 6, 71, 70
9, 23580, Note_on_c, 6, 74, 70
9, 23639, Note_on_c, 6, 74, 0
9, 23639, Note_on_c, 6, 71, 0
9, 23640, Note_on_c, 6, 69, 75
9, 23640, Note_on_c, 6, 72, 75
9, 23699, Note_on_c, 6, 72, 0
9, 23699, Note_on_c, 6, 69, 0
9, 23700, Note_on_c, 6, 71, 66
9, 23700, Note_on_c, 6, 74, 66
9, 23759, Note_on_c, 6, 74, 0
9, 23759, Note_on_c, 6, 71, 0
9, 23760, Note_on_c, 6, 72, 79
9, 23760, Note_on_c, 6, 76, 79
9, 23849, Note_on_c, 6, 76, 0
9, 23849, Note_on_c, 6, 72, 0
9, 24480, Note_on_c, 6, 81, 88
9, 24480, Note_on_c, 6, 84, 88
9, 24569, Note_on_c, 6, 84, 0
9, 24569, Note_on_c, 6, 81, 0
9, 24720, Note_on_c, 6, 81, 83
9, 24720, Note_on_c, 6, 84, 83
9, 24839, Note_on_c, 6, 84, 0
9, 24839, Note_on_c, 6, 81, 0
9, 24840, Note_on_c, 6, 83, 83
9, 24899, Note_on_c, 6, 83, 0
9, 24900, Note_on_c, 6, 81, 75
9, 24959, Note_on_c, 6, 81, 0
9, 24960, Note_on_c, 6, 79, 79
9, 25079, Note_on_c, 6, 79, 0
9, 25080, Note_on_c, 6, 77, 88
9, 25139, Note_on_c, 6, 77, 0
9, 25140, Note_on_c, 6, 76, 86
9, 25199, Note_on_c, 6, 76, 0
9, 25200, Note_on_c, 6, 76, 90
9, 25259, Note_on_c, 6, 76, 0
9, 25260, Note_on_c, 6, 74, 83
9, 25319, Note_on_c, 6, 74, 0
9, 25320, Note_on_c, 6, 72, 81
9, 25379, Note_on_c, 6, 72, 0
9, 25380, Note_on_c, 6, 74, 83
9, 25439, Note_on_c, 6, 74, 0
9, 25440, Note_on_c, 6, 76, 88
9, 25499, Note_on_c, 6, 76, 0
9, 25500, Note_on_c, 6, 72, 92
9, 25559, Note_on_c, 6, 72, 0
9, 25560, Note_on_c, 6, 84, 96
9, 25619, Note_on_c, 6, 84, 0
9, 25620, Note_on_c, 6, 84, 102
9, 25679, Note_on_c, 6, 84, 0
9, 25680, Note_on_c, 6, 84, 102
9, 25739, Note_on_c, 6, 84, 0
9, 25740, Note_on_c, 6, 84, 96
9, 25799, Note_on_c, 6, 84, 0
9, 25800, Note_on_c, 6, 83, 91
9, 25859, Note_on_c, 6, 83, 0
9, 25860, Note_on_c, 6, 81, 94
9, 25919, Note_on_c, 6, 81, 0
9, 25920, Note_on_c, 6, 79, 100
9, 25979, Note_on_c, 6, 79, 0
9, 25980, Note_on_c, 6, 79, 92
9, 26039, Note_on_c, 6, 79, 0
9, 26040, Note_on_c, 6, 77, 90
9, 26099, Note_on_c, 6, 77, 0
9, 26100, Note_on_c, 6, 76, 94
9, 26159, Note_on_c, 6, 76, 0
9, 26160, Note_on_c, 6, 76, 98
9, 26219, Note_on_c, 6, 76, 0
9, 26220, Note_on_c, 6, 74, 94
9, 26279, Note_on_c, 6, 74, 0
9, 26280, Note_on_c, 6, 72, 90
9, 26339, Note_on_c, 6, 72, 0
9, 26340, Note_on_c, 6, 74, 96
9, 26399, Note_on_c, 6, 74, 0
9, 26400, Note_on_c, 6, 76, 102
9, 26459, Note_on_c, 6, 76, 0
9, 26520, Note_on_c, 6, 84, 105
9, 26579, Note_on_c, 6, 84, 0
9, 26640, Note_on_c, 6, 84, 110
9, 26699, Note_on_c, 6, 84, 0
9, 26760, Note_on_c, 6, 84, 98
9, 26819, Note_on_c, 6, 84, 0
9, 26880, Note_on_c, 6, 84, 98
9, 26939, Note_on_c, 6, 84, 0
9, 27000, Note_on_c, 6, 79, 96
9, 27059, Note_on_c, 6, 79, 0
9, 27120, Note_on_c, 6, 79, 100
9, 27179, Note_on_c, 6, 79, 0
9, 27240, Note_on_c, 6, 83, 94
9, 27299, Note_on_c, 6, 83, 0
9, 27360, Note_on_c, 6, 84, 97
9, 27479, Note_on_c, 6, 84, 0
9, 27480, Note_on_c, 6, 79, 85
9, 27839, Note_on_c, 6, 79, 0
9, 27840, Note_on_c, 6, 76, 93
9, 27959, Note_on_c, 6, 76, 0
9, 27960, Note_on_c, 6, 72, 88
9, 28319, Note_on_c, 6, 72, 0
9, 28320, Note_on_c, 6, 84, 80
9, 28439, Note_on_c, 6, 84, 0
9, 28440, Note_on_c, 6, 79, 76
9, 28799, Note_on_c, 6, 79, 0
9, 28800, Note_on_c, 6, 76, 78
9, 28919, Note_on_c, 6, 76, 0
9, 28920, Note_on_c, 6, 72, 71
9, 29279, Note_on_c, 6, 72, 0
9, 29280, Note_on_c, 6, 72, 74
9, 29369, Note_on_c, 6, 72, 0
9, 29400, Note_on_c, 6, 67, 66
9, 29489, Note_on_c, 6, 67, 0
9, 29520, Note_on_c, 6, 72, 71
9, 29609, Note_on_c, 6, 72, 0
9, 29640, Note_on_c, 6, 67, 64
9, 29729, Note_on_c, 6, 67, 0
9, 29760, Note_on_c, 6, 72, 68
9, 29849, Note_on_c, 6, 72, 0
9, 29880, Note_on_c, 6, 67, 60
9, 29969, Note_on_c, 6, 67, 0
9, 30000, Note_on_c, 6, 72, 63
9, 30089, Note_on_c, 6, 72, 0
9, 30120, Note_on_c, 6, 67, 58
9, 30209, Note_on_c, 6, 67, 0
9, 30240, Note_on_c, 6, 72, 66
9, 30299, Note_on_c, 6, 72, 0
9, 30299, End_track
10, 0, Start_track
10, 0, MIDI_port, 0
10, 0, Title_t, "Tremolo String"
10, 0, Program_c, 7, 44
10, 0, Control_c, 7, 7, 100
10, 0, Control_c, 7, 10, 80
10, 6720, Control_c, 7, 121, 0
10, 6720, Control_c, 7, 0, 0
10, 6720, Program_c, 7, 44
10, 6720, Pitch_bend_c, 7, 8192
10, 6720, Control_c, 7, 10, 80
10, 6720, Control_c, 7, 91, 80
10, 6720, Control_c, 7, 93, 20
10, 6720, Control_c, 7, 7, 100
10, 6720, Note_on_c, 7, 48, 65
10, 6720, Note_on_c, 7, 41, 65
10, 6929, Note_on_c, 7, 41, 0
10, 6959, Note_on_c, 7, 48, 0
10, 6960, Note_on_c, 7, 48, 56
10, 6960, Note_on_c, 7, 41, 56
10, 7169, Note_on_c, 7, 41, 0
10, 7199, Note_on_c, 7, 48, 0
10, 7200, Note_on_c, 7, 48, 73
10, 7200, Note_on_c, 7, 41, 73
10, 7409, Note_on_c, 7, 41, 0
10, 7439, Note_on_c, 7, 48, 0
10, 7440, Note_on_c, 7, 48, 68
10, 7440, Note_on_c, 7, 41, 68
10, 7649, Note_on_c, 7, 41, 0
10, 7679, Note_on_c, 7, 48, 0
10, 7680, Note_on_c, 7, 48, 87
10, 7680, Note_on_c, 7, 41, 87
10, 7680, Control_c, 7, 7, 76
10, 7700, Control_c, 7, 7, 77
10, 7720, Control_c, 7, 7, 79
10, 7730, Control_c, 7, 7, 80
10, 7740, Control_c, 7, 7, 81
10, 7760, Control_c, 7, 7, 82
10, 7770, Control_c, 7, 7, 83
10, 7790, Control_c, 7, 7, 84
10, 7800, Control_c, 7, 7, 85
10, 7810, Control_c, 7, 7, 86
10, 7820, Control_c, 7, 7, 87
10, 7840, Control_c, 7, 7, 88
10, 7850, Control_c, 7, 7, 89
10, 7860, Control_c, 7, 7, 90
10, 7870, Control_c, 7, 7, 91
10, 7889, Note_on_c, 7, 41, 0
10, 7890, Control_c, 7, 7, 93
10, 7919, Note_on_c, 7, 48, 0
10, 7920, Note_on_c, 7, 48, 83
10, 7920, Note_on_c, 7, 41, 83
10, 7920, Control_c, 7, 7, 94
10, 7930, Control_c, 7, 7, 95
10, 7960, Control_c, 7, 7, 96
10, 7970, Control_c, 7, 7, 97
10, 8000, Control_c, 7, 7, 98
10, 8010, Control_c, 7, 7, 99
10, 8040, Control_c, 7, 7, 100
10, 8050, Control_c, 7, 7, 101
10, 8090, Control_c, 7, 7, 102
10, 8110, Control_c, 7, 7, 103
10, 8129, Note_on_c, 7, 41, 0
10, 8159, Note_on_c, 7, 48, 0
10, 8160, Note_on_c, 7, 48, 90
10, 8160, Note_on_c, 7, 41, 90
10, 8160, Control_c, 7, 7, 104
10, 8170, Control_c, 7, 7, 105
10, 8210, Control_c, 7, 7, 106
10, 8220, Control_c, 7, 7, 107
10, 8260, Control_c, 7, 7, 108
10, 8290, Control_c, 7, 7, 109
10, 8310, Control_c, 7, 7, 111
10, 8350, Control_c, 7, 7, 112
10, 8360, Control_c, 7, 7, 113
10, 8369, Note_on_c, 7, 41, 0
10, 8380, Control_c, 7, 7, 114
10, 8390, Control_c, 7, 7, 115
10, 8399, Note_on_c, 7, 48, 0
10, 8400, Note_on_c, 7, 48, 92
10, 8400, Note_on_c, 7, 41, 92
10, 8420, Control_c, 7, 7, 116
10, 8430, Control_c, 7, 7, 117
10, 8460, Control_c, 7, 7, 118
10, 8470, Control_c, 7, 7, 119
10, 8520, Control_c, 7, 7, 120
10, 8530, Control_c, 7, 7, 121
10, 8580, Control_c, 7, 7, 122
10, 8600, Control_c, 7, 7, 123
10, 8609, Note_on_c, 7, 41, 0
10, 8639, Note_on_c, 7, 48, 0
10, 8640, Note_on_c, 7, 48, 105
10, 8640, Note_on_c, 7, 41, 105
10, 8640, Control_c, 7, 7, 124
10, 8670, Control_c, 7, 7, 125
10, 8710, Control_c, 7, 7, 125
10, 8720, Control_c, 7, 7, 126
10, 8750, Control_c, 7, 7, 125
10, 8780, Control_c, 7, 7, 122
10, 8830, Control_c, 7, 7, 124
10, 8849, Note_on_c, 7, 41, 0
10, 8860, Control_c, 7, 7, 124
10, 8870, Control_c, 7, 7, 123
10, 8879, Note_on_c, 7, 48, 0
10, 8880, Note_on_c, 7, 48, 95
10, 8880, Note_on_c, 7, 41, 95
10, 8880, Control_c, 7, 7, 122
10, 8940, Control_c, 7, 7, 124
10, 8980, Control_c, 7, 7, 123
10, 9070, Control_c, 7, 7, 122
10, 9089, Note_on_c, 7, 41, 0
10, 9119, Note_on_c, 7, 48, 0
10, 9120, Note_on_c, 7, 48, 99
10, 9120, Note_on_c, 7, 41, 99
10, 9120, Control_c, 7, 7, 121
10, 9310, Control_c, 7, 7, 120
10, 9329, Note_on_c, 7, 41, 0
10, 9359, Note_on_c, 7, 48, 0
10, 9360, Note_on_c, 7, 48, 97
10, 9360, Note_on_c, 7, 41, 97
10, 9420, Control_c, 7, 7, 119
10, 9510, Control_c, 7, 7, 118
10, 9520, Control_c, 7, 7, 117
10, 9569, Note_on_c, 7, 41, 0
10, 9580, Control_c, 7, 7, 116
10, 9599, Note_on_c, 7, 48, 0
10, 9600, Note_on_c, 7, 48, 91
10, 9600, Note_on_c, 7, 41, 91
10, 9600, Control_c, 7, 7, 115
10, 9630, Control_c, 7, 7, 113
10, 9670, Control_c, 7, 7, 111
10, 9700, Control_c, 7, 7, 110
10, 9710, Control_c, 7, 7, 109
10, 9740, Control_c, 7, 7, 107
10, 9750, Control_c, 7, 7, 106
10, 9760, Control_c, 7, 7, 105
10, 9790, Control_c, 7, 7, 103
10, 9809, Note_on_c, 7, 41, 0
10, 9820, Control_c, 7, 7, 101
10, 9830, Control_c, 7, 7, 100
10, 9839, Note_on_c, 7, 48, 0
10, 9840, Note_on_c, 7, 48, 88
10, 9840, Note_on_c, 7, 41, 88
10, 9840, Control_c, 7, 7, 99
10, 9860, Control_c, 7, 7, 98
10, 9870, Control_c, 7, 7, 97
10, 9900, Control_c, 7, 7, 95
10, 10049, Note_on_c, 7, 41, 0
10, 10079, Note_on_c, 7, 48, 0
10, 10080, Note_on_c, 7, 48, 88
10, 10080, Note_on_c, 7, 36, 88
10, 10319, Note_on_c, 7, 36, 0
10, 10319, Note_on_c, 7, 48, 0
10, 10320, Note_on_c, 7, 48, 93
10, 10320, Note_on_c, 7, 36, 93
10, 10559, Note_on_c, 7, 36, 0
10, 10559, Note_on_c, 7, 48, 0
10, 10560, Note_on_c, 7, 48, 93
10, 10560, Note_on_c, 7, 36, 93
10, 10799, Note_on_c, 7, 36, 0
10, 10799, Note_on_c, 7, 48, 0
10, 10800, Note_on_c, 7, 48, 93
10, 10800, Note_on_c, 7, 36, 93
10, 11039, Note_on_c, 7, 36, 0
10, 11039, Note_on_c, 7, 48, 0
10, 11039, End_track
11, 0, Start_track
11, 0, MIDI_port, 0
11, 0, Title_t, "F. Horn"
11, 0, Program_c, 8, 60
11, 0, Control_c, 8, 7, 100
11, 0, Control_c, 8, 10, 50
11, 2880, Control_c, 8, 121, 0
11, 2880, Control_c, 8, 0, 0
11, 2880, Program_c, 8, 60
11, 2880, Pitch_bend_c, 8, 8192
11, 2880, Control_c, 8, 10, 50
11, 2880, Control_c, 8, 91, 90
11, 2880, Control_c, 8, 93, 40
11, 2880, Control_c, 8, 7, 100
11, 2880, Note_on_c, 8, 48, 116
11, 2880, Note_on_c, 8, 60, 116
11, 2969, Note_on_c, 8, 60, 0
11, 2999, Note_on_c, 8, 48, 0
11, 3000, Note_on_c, 8, 48, 107
11, 3000, Note_on_c, 8, 60, 107
11, 3089, Note_on_c, 8, 60, 0
11, 3089, Note_on_c, 8, 48, 0
11, 3120, Note_on_c, 8, 48, 113
11, 3120, Note_on_c, 8, 60, 113
11, 3239, Note_on_c, 8, 60, 0
11, 3239, Note_on_c, 8, 48, 0
11, 3300, Note_on_c, 8, 65, 91
11, 3300, Note_on_c, 8, 53, 91
11, 3359, Note_on_c, 8, 53, 0
11, 3359, Note_on_c, 8, 65, 0
11, 3360, Note_on_c, 8, 53, 94
11, 3360, Note_on_c, 8, 65, 94
11, 3449, Note_on_c, 8, 65, 0
11, 3479, Note_on_c, 8, 53, 0
11, 3480, Note_on_c, 8, 53, 91
11, 3480, Note_on_c, 8, 65, 91
11, 3569, Note_on_c, 8, 65, 0
11, 3569, Note_on_c, 8, 53, 0
11, 3600, Note_on_c, 8, 48, 78
11, 3600, Note_on_c, 8, 60, 78
11, 3719, Note_on_c, 8, 60, 0
11, 3719, Note_on_c, 8, 48, 0
11, 3840, Note_on_c, 8, 48, 75
11, 3840, Note_on_c, 8, 60, 75
11, 3959, Note_on_c, 8, 60, 0
11, 3959, Note_on_c, 8, 48, 0
11, 4080, Note_on_c, 8, 48, 79
11, 4080, Note_on_c, 8, 60, 79
11, 4199, Note_on_c, 8, 60, 0
11, 4199, Note_on_c, 8, 48, 0
11, 4320, Note_on_c, 8, 48, 106
11, 4320, Note_on_c, 8, 60, 106
11, 4469, Note_on_c, 8, 60, 0
11, 4469, Note_on_c, 8, 48, 0
11, 4560, Note_on_c, 8, 48, 118
11, 4560, Note_on_c, 8, 60, 118
11, 4679, Note_on_c, 8, 48, 0
11, 4709, Note_on_c, 8, 60, 0
11, 4800, Note_on_c, 8, 48, 124
11, 4800, Note_on_c, 8, 60, 124
11, 4919, Note_on_c, 8, 48, 0
11, 4949, Note_on_c, 8, 60, 0
11, 5040, Note_on_c, 8, 48, 107
11, 5040, Note_on_c, 8, 60, 107
11, 5159, Note_on_c, 8, 48, 0
11, 5189, Note_on_c, 8, 60, 0
11, 5280, Note_on_c, 8, 48, 86
11, 5280, Note_on_c, 8, 60, 86
11, 5399, Note_on_c, 8, 60, 0
11, 5399, Note_on_c, 8, 48, 0
11, 5520, Note_on_c, 8, 48, 77
11, 5520, Note_on_c, 8, 60, 77
11, 5639, Note_on_c, 8, 60, 0
11, 5639, Note_on_c, 8, 48, 0
11, 5760, Note_on_c, 8, 48, 71
11, 5760, Note_on_c, 8, 60, 71
11, 5879, Note_on_c, 8, 48, 0
11, 5909, Note_on_c, 8, 60, 0
11, 6720, Note_on_c, 8, 53, 52
11, 6720, Note_on_c, 8, 60, 55
11, 7679, Note_on_c, 8, 60, 0
11, 7679, Note_on_c, 8, 53, 0
11, 7740, Note_on_c, 8, 53, 67
11, 7740, Note_on_c, 8, 60, 67
11, 7769, Note_on_c, 8, 60, 0
11, 7769, Note_on_c, 8, 53, 0
11, 7860, Note_on_c, 8, 53, 70
11, 7860, Note_on_c, 8, 60, 70
11, 7889, Note_on_c, 8, 60, 0
11, 7889, Note_on_c, 8, 53, 0
11, 7980, Note_on_c, 8, 53, 73
11, 7980, Note_on_c, 8, 60, 73
11, 8009, Note_on_c, 8, 60, 0
11, 8009, Note_on_c, 8, 53, 0
11, 8100, Note_on_c, 8, 53, 89
11, 8100, Note_on_c, 8, 60, 89
11, 8129, Note_on_c, 8, 60, 0
11, 8129, Note_on_c, 8, 53, 0
11, 8220, Note_on_c, 8, 53, 102
11, 8220, Note_on_c, 8, 60, 102
11, 8249, Note_on_c, 8, 60, 0
11, 8249, Note_on_c, 8, 53, 0
11, 8340, Note_on_c, 8, 53, 106
11, 8340, Note_on_c, 8, 60, 106
11, 8369, Note_on_c, 8, 60, 0
11, 8369, Note_on_c, 8, 53, 0
11, 8460, Note_on_c, 8, 53, 108
11, 8460, Note_on_c, 8, 60, 108
11, 8489, Note_on_c, 8, 60, 0
11, 8489, Note_on_c, 8, 53, 0
11, 8580, Note_on_c, 8, 53, 105
11, 8580, Note_on_c, 8, 60, 105
11, 8609, Note_on_c, 8, 60, 0
11, 8609, Note_on_c, 8, 53, 0
11, 8640, Note_on_c, 8, 53, 113
11, 8640, Note_on_c, 8, 60, 113
11, 8669, Note_on_c, 8, 60, 0
11, 8669, Note_on_c, 8, 53, 0
11, 8700, Note_on_c, 8, 57, 108
11, 8700, Note_on_c, 8, 53, 108
11, 8729, Note_on_c, 8, 53, 0
11, 8729, Note_on_c, 8, 57, 0
11, 8760, Note_on_c, 8, 58, 99
11, 8760, Note_on_c, 8, 55, 99
11, 8789, Note_on_c, 8, 55, 0
11, 8789, Note_on_c, 8, 58, 0
11, 8820, Note_on_c, 8, 55, 97
11, 8820, Note_on_c, 8, 58, 97
11, 8849, Note_on_c, 8, 58, 0
11, 8849, Note_on_c, 8, 55, 0
11, 8880, Note_on_c, 8, 60, 100
11, 8939, Note_on_c, 8, 60, 0
11, 8940, Note_on_c, 8, 58, 86
11, 8969, Note_on_c, 8, 58, 0
11, 8970, Note_on_c, 8, 57, 78
11, 8999, Note_on_c, 8, 57, 0
11, 9000, Note_on_c, 8, 55, 110
11, 9029, Note_on_c, 8, 55, 0
11, 9060, Note_on_c, 8, 48, 90
11, 9089, Note_on_c, 8, 48, 0
11, 9120, Note_on_c, 8, 53, 100
11, 9149, Note_on_c, 8, 53, 0
11, 9180, Note_on_c, 8, 55, 95
11, 9209, Note_on_c, 8, 55, 0
11, 9240, Note_on_c, 8, 57, 90
11, 9299, Note_on_c, 8, 57, 0
11, 9300, Note_on_c, 8, 58, 90
11, 9329, Note_on_c, 8, 58, 0
11, 9330, Note_on_c, 8, 57, 86
11, 9359, Note_on_c, 8, 57, 0
11, 9360, Note_on_c, 8, 55, 110
11, 9389, Note_on_c, 8, 55, 0
11, 9420, Note_on_c, 8, 57, 95
11, 9449, Note_on_c, 8, 57, 0
11, 9480, Note_on_c, 8, 58, 95
11, 9539, Note_on_c, 8, 58, 0
11, 9540, Note_on_c, 8, 60, 90
11, 9569, Note_on_c, 8, 60, 0
11, 9570, Note_on_c, 8, 58, 86
11, 9599, Note_on_c, 8, 58, 0
11, 9600, Note_on_c, 8, 57, 95
11, 9659, Note_on_c, 8, 57, 0
11, 9660, Note_on_c, 8, 60, 105
11, 9689, Note_on_c, 8, 60, 0
11, 9720, Note_on_c, 8, 60, 110
11, 9749, Note_on_c, 8, 60, 0
11, 9780, Note_on_c, 8, 60, 110
11, 9809, Note_on_c, 8, 60, 0
11, 9840, Note_on_c, 8, 60, 110
11, 9959, Note_on_c, 8, 60, 0
11, 9960, Note_on_c, 8, 58, 110
11, 9989, Note_on_c, 8, 58, 0
11, 9990, Note_on_c, 8, 57, 95
11, 10019, Note_on_c, 8, 57, 0
11, 10020, Note_on_c, 8, 55, 95
11, 10049, Note_on_c, 8, 55, 0
11, 10050, Note_on_c, 8, 53, 86
11, 10079, Note_on_c, 8, 53, 0
11, 10080, Note_on_c, 8, 52, 105
11, 10109, Note_on_c, 8, 52, 0
11, 10140, Note_on_c, 8, 53, 100
11, 10169, Note_on_c, 8, 53, 0
11, 10200, Note_on_c, 8, 55, 114
11, 10259, Note_on_c, 8, 55, 0
11, 10260, Note_on_c, 8, 57, 95
11, 10289, Note_on_c, 8, 57, 0
11, 10290, Note_on_c, 8, 55, 90
11, 10319, Note_on_c, 8, 55, 0
11, 10320, Note_on_c, 8, 53, 95
11, 10349, Note_on_c, 8, 53, 0
11, 10380, Note_on_c, 8, 55, 95
11, 10409, Note_on_c, 8, 55, 0
11, 10440, Note_on_c, 8, 57, 111
11, 10499, Note_on_c, 8, 57, 0
11, 10500, Note_on_c, 8, 58, 95
11, 10529, Note_on_c, 8, 58, 0
11, 10530, Note_on_c, 8, 57, 90
11, 10559, Note_on_c, 8, 57, 0
11, 10560, Note_on_c, 8, 55, 105
11, 10619, Note_on_c, 8, 55, 0
11, 10620, Note_on_c, 8, 58, 109
11, 10649, Note_on_c, 8, 58, 0
11, 10680, Note_on_c, 8, 58, 115
11, 10709, Note_on_c, 8, 58, 0
11, 10740, Note_on_c, 8, 58, 123
11, 10769, Note_on_c, 8, 58, 0
11, 10800, Note_on_c, 8, 58, 127
11, 10919, Note_on_c, 8, 58, 0
11, 10920, Note_on_c, 8, 60, 117
11, 10949, Note_on_c, 8, 60, 0
11, 10950, Note_on_c, 8, 58, 97
11, 10979, Note_on_c, 8, 58, 0
11, 10980, Note_on_c, 8, 57, 95
11, 11009, Note_on_c, 8, 57, 0
11, 11010, Note_on_c, 8, 55, 96
11, 11039, Note_on_c, 8, 55, 0
11, 11040, Note_on_c, 8, 57, 110
11, 11069, Note_on_c, 8, 57, 0
11, 11100, Note_on_c, 8, 58, 116
11, 11129, Note_on_c, 8, 58, 0
11, 11160, Note_on_c, 8, 60, 121
11, 11219, Note_on_c, 8, 60, 0
11, 11220, Note_on_c, 8, 62, 98
11, 11249, Note_on_c, 8, 62, 0
11, 11250, Note_on_c, 8, 60, 90
11, 11279, Note_on_c, 8, 60, 0
11, 11280, Note_on_c, 8, 58, 116
11, 11339, Note_on_c, 8, 58, 0
11, 11340, Note_on_c, 8, 60, 95
11, 11369, Note_on_c, 8, 60, 0
11, 11370, Note_on_c, 8, 58, 90
11, 11399, Note_on_c, 8, 58, 0
11, 11400, Note_on_c, 8, 55, 113
11, 11459, Note_on_c, 8, 55, 0
11, 11460, Note_on_c, 8, 60, 105
11, 11489, Note_on_c, 8, 60, 0
11, 11490, Note_on_c, 8, 58, 96
11, 11519, Note_on_c, 8, 58, 0
11, 11520, Note_on_c, 8, 57, 104
11, 11549, Note_on_c, 8, 57, 0
11, 11580, Note_on_c, 8, 58, 107
11, 11609, Note_on_c, 8, 58, 0
11, 11640, Note_on_c, 8, 60, 114
11, 11699, Note_on_c, 8, 60, 0
11, 11700, Note_on_c, 8, 62, 100
11, 11729, Note_on_c, 8, 62, 0
11, 11730, Note_on_c, 8, 60, 93
11, 11759, Note_on_c, 8, 60, 0
11, 11760, Note_on_c, 8, 58, 107
11, 11819, Note_on_c, 8, 58, 0
11, 11820, Note_on_c, 8, 60, 100
11, 11849, Note_on_c, 8, 60, 0
11, 11850, Note_on_c, 8, 58, 91
11, 11879, Note_on_c, 8, 58, 0
11, 11880, Note_on_c, 8, 55, 107
11, 11939, Note_on_c, 8, 55, 0
11, 11940, Note_on_c, 8, 60, 99
11, 11969, Note_on_c, 8, 60, 0
11, 11970, Note_on_c, 8, 58, 89
11, 11999, Note_on_c, 8, 58, 0
11, 12000, Note_on_c, 8, 57, 98
11, 12059, Note_on_c, 8, 57, 0
11, 12060, Note_on_c, 8, 60, 94
11, 12089, Note_on_c, 8, 60, 0
11, 12090, Note_on_c, 8, 58, 86
11, 12119, Note_on_c, 8, 58, 0
11, 12120, Note_on_c, 8, 55, 91
11, 12179, Note_on_c, 8, 55, 0
11, 12180, Note_on_c, 8, 60, 86
11, 12209, Note_on_c, 8, 60, 0
11, 12210, Note_on_c, 8, 58, 79
11, 12239, Note_on_c, 8, 58, 0
11, 12240, Note_on_c, 8, 57, 84
11, 12299, Note_on_c, 8, 57, 0
11, 12300, Note_on_c, 8, 60, 80
11, 12329, Note_on_c, 8, 60, 0
11, 12330, Note_on_c, 8, 58, 72
11, 12359, Note_on_c, 8, 58, 0
11, 12360, Note_on_c, 8, 55, 78
11, 12419, Note_on_c, 8, 55, 0
11, 12420, Note_on_c, 8, 60, 74
11, 12449, Note_on_c, 8, 60, 0
11, 12450, Note_on_c, 8, 58, 64
11, 12479, Note_on_c, 8, 58, 0
11, 12480, Note_on_c, 8, 53, 72
11, 12480, Note_on_c, 8, 57, 72
11, 12539, Note_on_c, 8, 57, 0
11, 12539, Note_on_c, 8, 53, 0
11, 13440, Note_on_c, 8, 45, 64
11, 13440, Note_on_c, 8, 53, 64
11, 13649, Note_on_c, 8, 45, 0
11, 13679, Note_on_c, 8, 53, 0
11, 13680, Note_on_c, 8, 45, 58
11, 13680, Note_on_c, 8, 53, 58
11, 13769, Note_on_c, 8, 53, 0
11, 13769, Note_on_c, 8, 45, 0
11, 14400, Note_on_c, 8, 45, 61
11, 14400, Note_on_c, 8, 53, 61
11, 14609, Note_on_c, 8, 53, 0
11, 14609, Note_on_c, 8, 45, 0
11, 14640, Note_on_c, 8, 45, 57
11, 14640, Note_on_c, 8, 53, 57
11, 14729, Note_on_c, 8, 53, 0
11, 14729, Note_on_c, 8, 45, 0
11, 20640, Note_on_c, 8, 55, 107
11, 20640, Control_c, 8, 7, 97
11, 20650, Control_c, 8, 7, 99
11, 20660, Control_c, 8, 7, 101
11, 20670, Control_c, 8, 7, 102
11, 20680, Control_c, 8, 7, 104
11, 20690, Control_c, 8, 7, 105
11, 20700, Control_c, 8, 7, 107
11, 20720, Control_c, 8, 7, 109
11, 20730, Control_c, 8, 7, 110
11, 20740, Control_c, 8, 7, 111
11, 20750, Control_c, 8, 7, 112
11, 20760, Control_c, 8, 7, 113
11, 20770, Control_c, 8, 7, 115
11, 20790, Control_c, 8, 7, 117
11, 20810, Control_c, 8, 7, 119
11, 20820, Control_c, 8, 7, 121
11, 20830, Control_c, 8, 7, 122
11, 20840, Control_c, 8, 7, 123
11, 20850, Control_c, 8, 7, 124
11, 20860, Control_c, 8, 7, 125
11, 20890, Control_c, 8, 7, 126
11, 20900, Control_c, 8, 7, 125
11, 20940, Control_c, 8, 7, 123
11, 20950, Control_c, 8, 7, 122
11, 20960, Control_c, 8, 7, 121
11, 20980, Control_c, 8, 7, 119
11, 20990, Control_c, 8, 7, 116
11, 21000, Control_c, 8, 7, 111
11, 21010, Control_c, 8, 7, 106
11, 21020, Control_c, 8, 7, 101
11, 21030, Control_c, 8, 7, 96
11, 21040, Control_c, 8, 7, 93
11, 21050, Control_c, 8, 7, 91
11, 21060, Control_c, 8, 7, 90
11, 21070, Control_c, 8, 7, 88
11, 21080, Control_c, 8, 7, 86
11, 21100, Control_c, 8, 7, 85
11, 21110, Control_c, 8, 7, 83
11, 21119, Note_on_c, 8, 55, 0
11, 21120, Note_on_c, 8, 60, 109
11, 21120, Control_c, 8, 7, 84
11, 21130, Control_c, 8, 7, 85
11, 21140, Control_c, 8, 7, 86
11, 21150, Control_c, 8, 7, 90
11, 21160, Control_c, 8, 7, 93
11, 21170, Control_c, 8, 7, 97
11, 21180, Control_c, 8, 7, 98
11, 21190, Control_c, 8, 7, 103
11, 21200, Control_c, 8, 7, 106
11, 21210, Control_c, 8, 7, 107
11, 21220, Control_c, 8, 7, 108
11, 21230, Control_c, 8, 7, 111
11, 21240, Control_c, 8, 7, 113
11, 21250, Control_c, 8, 7, 114
11, 21260, Control_c, 8, 7, 115
11, 21270, Control_c, 8, 7, 117
11, 21280, Control_c, 8, 7, 118
11, 21290, Control_c, 8, 7, 119
11, 21300, Control_c, 8, 7, 120
11, 21320, Control_c, 8, 7, 122
11, 21330, Control_c, 8, 7, 124
11, 21350, Control_c, 8, 7, 126
11, 21360, Control_c, 8, 7, 127
11, 21390, Control_c, 8, 7, 126
11, 21400, Control_c, 8, 7, 125
11, 21410, Control_c, 8, 7, 124
11, 21430, Control_c, 8, 7, 122
11, 21440, Control_c, 8, 7, 121
11, 21450, Control_c, 8, 7, 118
11, 21490, Control_c, 8, 7, 118
11, 21500, Control_c, 8, 7, 117
11, 21510, Control_c, 8, 7, 115
11, 21520, Control_c, 8, 7, 112
11, 21530, Control_c, 8, 7, 110
11, 21540, Control_c, 8, 7, 109
11, 21550, Control_c, 8, 7, 105
11, 21560, Control_c, 8, 7, 102
11, 21570, Control_c, 8, 7, 82
11, 21590, Control_c, 8, 7, 81
11, 21599, Note_on_c, 8, 60, 0
11, 21600, Note_on_c, 8, 59, 118
11, 21679, Note_on_c, 8, 59, 0
11, 21720, Note_on_c, 8, 59, 114
11, 21799, Note_on_c, 8, 59, 0
11, 21840, Note_on_c, 8, 59, 118
11, 21959, Note_on_c, 8, 59, 0
11, 21960, Note_on_c, 8, 62, 114
11, 22019, Note_on_c, 8, 62, 0
11, 22020, Note_on_c, 8, 59, 116
11, 22079, Note_on_c, 8, 59, 0
11, 22080, Note_on_c, 8, 48, 120
11, 22080, Note_on_c, 8, 60, 120
11, 22559, Note_on_c, 8, 60, 0
11, 22589, Note_on_c, 8, 48, 0
11, 22620, Note_on_c, 8, 60, 108
11, 22620, Note_on_c, 8, 48, 108
11, 22679, Note_on_c, 8, 48, 0
11, 22679, Note_on_c, 8, 60, 0
11, 22680, Note_on_c, 8, 48, 107
11, 22680, Note_on_c, 8, 60, 107
11, 22739, Note_on_c, 8, 60, 0
11, 22739, Note_on_c, 8, 48, 0
11, 22740, Note_on_c, 8, 60, 110
11, 22740, Note_on_c, 8, 48, 110
11, 22799, Note_on_c, 8, 48, 0
11, 22799, Note_on_c, 8, 60, 0
11, 22800, Note_on_c, 8, 60, 115
11, 22800, Note_on_c, 8, 48, 115
11, 22889, Note_on_c, 8, 48, 0
11, 22889, Note_on_c, 8, 60, 0
11, 23760, Note_on_c, 8, 48, 113
11, 23760, Note_on_c, 8, 60, 113
11, 24239, Note_on_c, 8, 60, 0
11, 24269, Note_on_c, 8, 48, 0
11, 24280, Note_on_c, 8, 48, 100
11, 24280, Note_on_c, 8, 60, 100
11, 24309, Note_on_c, 8, 60, 0
11, 24319, Note_on_c, 8, 48, 0
11, 24320, Note_on_c, 8, 48, 91
11, 24320, Note_on_c, 8, 60, 91
11, 24349, Note_on_c, 8, 60, 0
11, 24359, Note_on_c, 8, 48, 0
11, 24360, Note_on_c, 8, 60, 90
11, 24360, Note_on_c, 8, 48, 90
11, 24389, Note_on_c, 8, 60, 0
11, 24399, Note_on_c, 8, 48, 0
11, 24400, Note_on_c, 8, 48, 88
11, 24400, Note_on_c, 8, 60, 88
11, 24429, Note_on_c, 8, 60, 0
11, 24439, Note_on_c, 8, 48, 0
11, 24440, Note_on_c, 8, 48, 86
11, 24440, Note_on_c, 8, 60, 86
11, 24469, Note_on_c, 8, 60, 0
11, 24479, Note_on_c, 8, 48, 0
11, 24480, Note_on_c, 8, 60, 96
11, 24480, Note_on_c, 8, 48, 96
11, 24569, Note_on_c, 8, 48, 0
11, 24569, Note_on_c, 8, 60, 0
11, 24720, Note_on_c, 8, 60, 72
11, 24720, Note_on_c, 8, 48, 72
11, 25199, Note_on_c, 8, 48, 0
11, 25199, Note_on_c, 8, 60, 0
11, 25200, Note_on_c, 8, 67, 63
11, 25409, Note_on_c, 8, 67, 0
11, 25440, Note_on_c, 8, 48, 86
11, 25440, Note_on_c, 8, 60, 78
11, 25559, Note_on_c, 8, 60, 0
11, 25559, Note_on_c, 8, 48, 0
11, 25560, Note_on_c, 8, 48, 86
11, 25560, Note_on_c, 8, 60, 86
11, 25769, Note_on_c, 8, 48, 0
11, 25799, Note_on_c, 8, 60, 0
11, 25800, Note_on_c, 8, 48, 86
11, 25800, Note_on_c, 8, 60, 86
11, 26039, Note_on_c, 8, 60, 0
11, 26039, Note_on_c, 8, 48, 0
11, 26040, Note_on_c, 8, 48, 86
11, 26040, Note_on_c, 8, 60, 86
11, 26159, Note_on_c, 8, 60, 0
11, 26159, Note_on_c, 8, 48, 0
11, 26160, Note_on_c, 8, 55, 84
11, 26160, Note_on_c, 8, 67, 84
11, 26239, Note_on_c, 8, 67, 0
11, 26249, Note_on_c, 8, 55, 0
11, 26280, Note_on_c, 8, 55, 82
11, 26280, Note_on_c, 8, 67, 82
11, 26369, Note_on_c, 8, 67, 0
11, 26369, Note_on_c, 8, 55, 0
11, 26400, Note_on_c, 8, 48, 88
11, 26400, Note_on_c, 8, 60, 88
11, 26639, Note_on_c, 8, 60, 0
11, 26639, Note_on_c, 8, 48, 0
11, 26640, Note_on_c, 8, 65, 91
11, 26640, Note_on_c, 8, 53, 91
11, 26699, Note_on_c, 8, 53, 0
11, 26699, Note_on_c, 8, 65, 0
11, 26760, Note_on_c, 8, 57, 95
11, 26760, Note_on_c, 8, 69, 95
11, 26819, Note_on_c, 8, 69, 0
11, 26819, Note_on_c, 8, 57, 0
11, 26880, Note_on_c, 8, 60, 99
11, 26880, Note_on_c, 8, 72, 99
11, 26939, Note_on_c, 8, 72, 0
11, 26939, Note_on_c, 8, 60, 0
11, 27000, Note_on_c, 8, 55, 99
11, 27000, Note_on_c, 8, 67, 99
11, 27059, Note_on_c, 8, 67, 0
11, 27059, Note_on_c, 8, 55, 0
11, 27120, Note_on_c, 8, 55, 93
11, 27120, Note_on_c, 8, 67, 93
11, 27179, Note_on_c, 8, 67, 0
11, 27179, Note_on_c, 8, 55, 0
11, 27240, Note_on_c, 8, 55, 93
11, 27240, Note_on_c, 8, 67, 93
11, 27299, Note_on_c, 8, 67, 0
11, 27299, Note_on_c, 8, 55, 0
11, 27360, Note_on_c, 8, 48, 122
11, 27399, Note_on_c, 8, 48, 0
11, 27400, Note_on_c, 8, 48, 119
11, 27439, Note_on_c, 8, 48, 0
11, 27440, Note_on_c, 8, 48, 119
11, 27440, Note_on_c, 8, 48, 119
11, 27479, Note_on_c, 8, 48, 0
11, 27479, Note_on_c, 8, 48, 0
11, 27480, Note_on_c, 8, 48, 124
11, 27869, Note_on_c, 8, 48, 0
11, 27880, Note_on_c, 8, 48, 120
11, 27919, Note_on_c, 8, 48, 0
11, 27920, Note_on_c, 8, 48, 122
11, 27959, Note_on_c, 8, 48, 0
11, 27960, Note_on_c, 8, 48, 127
11, 28319, Note_on_c, 8, 48, 0
11, 28360, Note_on_c, 8, 48, 122
11, 28399, Note_on_c, 8, 48, 0
11, 28400, Note_on_c, 8, 48, 123
11, 28439, Note_on_c, 8, 48, 0
11, 28440, Note_on_c, 8, 48, 125
11, 28829, Note_on_c, 8, 48, 0
11, 28840, Note_on_c, 8, 48, 109
11, 28879, Note_on_c, 8, 48, 0
11, 28880, Note_on_c, 8, 48, 108
11, 28919, Note_on_c, 8, 48, 0
11, 28920, Note_on_c, 8, 48, 112
11, 29309, Note_on_c, 8, 48, 0
11, 29320, Note_on_c, 8, 48, 97
11, 29359, Note_on_c, 8, 48, 0
11, 29360, Note_on_c, 8, 48, 96
11, 29399, Note_on_c, 8, 48, 0
11, 29400, Note_on_c, 8, 48, 103
11, 29559, Note_on_c, 8, 48, 0
11, 29560, Note_on_c, 8, 48, 91
11, 29589, Note_on_c, 8, 48, 0
11, 29600, Note_on_c, 8, 48, 94
11, 29600, Note_on_c, 8, 48, 94
11, 29639, Note_on_c, 8, 48, 0
11, 29639, Note_on_c, 8, 48, 0
11, 29640, Note_on_c, 8, 48, 96
11, 29799, Note_on_c, 8, 48, 0
11, 29800, Note_on_c, 8, 48, 82
11, 29839, Note_on_c, 8, 48, 0
11, 29840, Note_on_c, 8, 48, 75
11, 29879, Note_on_c, 8, 48, 0
11, 29880, Note_on_c, 8, 48, 89
11, 30029, Note_on_c, 8, 48, 0
11, 30040, Note_on_c, 8, 48, 76
11, 30069, Note_on_c, 8, 48, 0
11, 30080, Note_on_c, 8, 48, 74
11, 30080, Note_on_c, 8, 48, 74
11, 30119, Note_on_c, 8, 48, 0
11, 30119, Note_on_c, 8, 48, 0
11, 30120, Note_on_c, 8, 48, 82
11, 30269, Note_on_c, 8, 48, 0
11, 30280, Note_on_c, 8, 48, 75
11, 30319, Note_on_c, 8, 48, 0
11, 30320, Note_on_c, 8, 48, 74
11, 30359, Note_on_c, 8, 48, 0
11, 30360, Note_on_c, 8, 48, 81
11, 30519, Note_on_c, 8, 48, 0
11, 30520, Note_on_c, 8, 48, 74
11, 30549, Note_on_c, 8, 48, 0
11, 30560, Note_on_c, 8, 48, 63
11, 30560, Note_on_c, 8, 48, 63
11, 30599, Note_on_c, 8, 48, 0
11, 30599, Note_on_c, 8, 48, 0
11, 30600, Note_on_c, 8, 48, 72
11, 30759, Note_on_c, 8, 48, 0
11, 30760, Note_on_c, 8, 48, 65
11, 30799, Note_on_c, 8, 48, 0
11, 30800, Note_on_c, 8, 48, 58
11, 30839, Note_on_c, 8, 48, 0
11, 30840, Note_on_c, 8, 48, 64
11, 30989, Note_on_c, 8, 48, 0
11, 31000, Note_on_c, 8, 48, 61
11, 31029, Note_on_c, 8, 48, 0
11, 31040, Note_on_c, 8, 48, 56
11, 31040, Note_on_c, 8, 48, 56
11, 31079, Note_on_c, 8, 48, 0
11, 31079, Note_on_c, 8, 48, 0
11, 31080, Note_on_c, 8, 48, 60
11, 31409, Note_on_c, 8, 48, 0
11, 31409, End_track
12, 0, Start_track
12, 0, MIDI_port, 0
12, 0, Title_t, "Tremolo String"
12, 0, Program_c, 7, 44
12, 0, Control_c, 7, 7, 100
12, 0, Control_c, 7, 10, 80
12, 8640, Control_c, 7, 121, 0
12, 8640, Control_c, 7, 0, 0
12, 8640, Program_c, 7, 44
12, 8640, Pitch_bend_c, 7, 8192
12, 8640, Control_c, 7, 10, 80
12, 8640, Control_c, 7, 91, 90
12, 8640, Control_c, 7, 93, 20
12, 8640, Control_c, 7, 7, 90
12, 8640, Note_on_c, 7, 65, 82
12, 8699, Note_on_c, 7, 65, 0
12, 8700, Note_on_c, 7, 48, 76
12, 8700, Note_on_c, 7, 60, 75
12, 8849, Note_on_c, 7, 60, 0
12, 8849, Note_on_c, 7, 48, 0
12, 8880, Note_on_c, 7, 48, 76
12, 8880, Note_on_c, 7, 60, 77
12, 9089, Note_on_c, 7, 48, 0
12, 9119, Note_on_c, 7, 60, 0
12, 9120, Note_on_c, 7, 48, 76
12, 9120, Note_on_c, 7, 60, 77
12, 9329, Note_on_c, 7, 48, 0
12, 9359, Note_on_c, 7, 60, 0
12, 9360, Note_on_c, 7, 48, 76
12, 9360, Note_on_c, 7, 60, 77
12, 9569, Note_on_c, 7, 48, 0
12, 9599, Note_on_c, 7, 60, 0
12, 9600, Note_on_c, 7, 48, 76
12, 9600, Note_on_c, 7, 60, 77
12, 9809, Note_on_c, 7, 48, 0
12, 9839, Note_on_c, 7, 60, 0
12, 9840, Note_on_c, 7, 48, 76
12, 9840, Note_on_c, 7, 60, 77
12, 10049, Note_on_c, 7, 48, 0
12, 10079, Note_on_c, 7, 60, 0
12, 10080, Note_on_c, 7, 48, 76
12, 10080, Note_on_c, 7, 60, 77
12, 10289, Note_on_c, 7, 48, 0
12, 10319, Note_on_c, 7, 60, 0
12, 10320, Note_on_c, 7, 48, 76
12, 10320, Note_on_c, 7, 60, 77
12, 10529, Note_on_c, 7, 48, 0
12, 10559, Note_on_c, 7, 60, 0
12, 10560, Note_on_c, 7, 48, 76
12, 10560, Note_on_c, 7, 60, 77
12, 10769, Note_on_c, 7, 48, 0
12, 10799, Note_on_c, 7, 60, 0
12, 10800, Note_on_c, 7, 48, 76
12, 10800, Note_on_c, 7, 60, 77
12, 11009, Note_on_c, 7, 48, 0
12, 11039, Note_on_c, 7, 60, 0
12, 11040, Note_on_c, 7, 48, 76
12, 11040, Note_on_c, 7, 60, 77
12, 11249, Note_on_c, 7, 48, 0
12, 11279, Note_on_c, 7, 60, 0
12, 11280, Note_on_c, 7, 48, 76
12, 11280, Note_on_c, 7, 60, 77
12, 11489, Note_on_c, 7, 48, 0
12, 11519, Note_on_c, 7, 60, 0
12, 11520, Note_on_c, 7, 48, 76
12, 11520, Note_on_c, 7, 60, 77
12, 11729, Note_on_c, 7, 48, 0
12, 11759, Note_on_c, 7, 60, 0
12, 11760, Note_on_c, 7, 48, 76
12, 11760, Note_on_c, 7, 60, 77
12, 11969, Note_on_c, 7, 48, 0
12, 11999, Note_on_c, 7, 60, 0
12, 12000, Note_on_c, 7, 48, 76
12, 12000, Note_on_c, 7, 60, 77
12, 12209, Note_on_c, 7, 48, 0
12, 12239, Note_on_c, 7, 60, 0
12, 12240, Note_on_c, 7, 60, 72
12, 12240, Note_on_c, 7, 48, 76
12, 12479, Note_on_c, 7, 48, 0
12, 12479, Note_on_c, 7, 60, 0
12, 12480, Note_on_c, 7, 53, 86
12, 12569, Note_on_c, 7, 53, 0
12, 12569, End_track
13, 0, Start_track
13, 0, MIDI_port, 0
13, 0, Title_t, "Beethoven "
13, 0, End_track
14, 0, Start_track
14, 0, MIDI_port, 0
14, 0, Title_t, "Pastorale"
14, 0, End_track
15, 0, Start_track
15, 0, MIDI_port, 0
15, 0, Title_t, "Symphony No 6"
15, 0, End_track
16, 0, Start_track
16, 0, MIDI_port, 0
16, 0, Title_t, "Allegro ma non troppo"
16, 0, End_track
17, 0, Start_track
17, 0, MIDI_port, 0
17, 0, Title_t, "Creative Labs Inc."
17, 0, End_track
18, 0, Start_track
18, 0, MIDI_port, 0
18, 0, Title_t, "(c) 1994"
18, 0, End_track
19, 0, Start_track
19, 0, MIDI_port, 0
19, 0, Title_t, "Recorded by Dr. Chew"
19, 0, End_track
0, 0, End_of_file
