0, 0, Header, 1, 17, 96
1, 0, Start_track
1, 0, Tempo, 344827
1, 0, Time_signature, 3, 2, 24, 8
1, 0, Key_signature, -1, "minor"
1, 0, Title_t, "[SC55]\214ð\213¿\213È\221æ\202X\224Ô\203j\222Z\222²\221æ\223ñ\212y\217Í Beethoven       by \222\217"
1, 0, Text_t, "CVS Ver5.05 Created"
1, 0, Text_t, "Beethoven"
1, 0, Text_t, "Symphonie 9 d moll op.125"
1, 0, Text_t, "II Molto vivace"
1, 0, Text_t, "----------------------------"
1, 0, Text_t, "Timebase:96"
1, 0, Text_t, "\202µ\202©\202µ\211¹\220\224\202ª\221½\202¢...."
1, 0, Text_t, "----------------------------"
1, 0, Text_t, "by \222\217"
1, 0, Text_t, "NIFTY-Serve ID : NCA01761"
1, 0, Text_t, "PC-VAN      ID : KEG99309"
1, 16, Tempo, 689655
1, 192, Time_signature, 4, 2, 24, 8
1, 192, Tempo, 344827
1, 336, Tempo, 504201
1, 480, Tempo, 344827
1, 624, Tempo, 504201
1, 768, Tempo, 363636
1, 912, Tempo, 357142
1, 1056, Tempo, 491803
1, 1200, Tempo, 555555
1, 1344, Tempo, 368098
1, 1488, Tempo, 363636
1, 1632, Tempo, 350877
1, 1776, Tempo, 357142
1, 1920, Tempo, 368098
1, 2064, Tempo, 363636
1, 2208, Tempo, 350877
1, 2352, Tempo, 357142
1, 2496, Tempo, 368098
1, 2640, Tempo, 363636
1, 2784, Tempo, 350877
1, 2928, Tempo, 357142
1, 3072, Tempo, 368098
1, 3216, Tempo, 363636
1, 3360, Tempo, 350877
1, 3504, Tempo, 357142
1, 3648, Tempo, 368098
1, 3792, Tempo, 363636
1, 3936, Tempo, 350877
1, 4080, Tempo, 357142
1, 5808, Tempo, 368098
1, 5952, Tempo, 357142
1, 7104, Tempo, 350877
1, 7680, Tempo, 344827
1, 8112, Tempo, 340909
1, 8256, Tempo, 368098
1, 8400, Tempo, 357142
1, 8544, Tempo, 350877
1, 8688, Tempo, 357142
1, 8832, Tempo, 368098
1, 8976, Tempo, 357142
1, 9120, Tempo, 350877
1, 9264, Tempo, 357142
1, 9408, Tempo, 368098
1, 9552, Tempo, 357142
1, 9696, Tempo, 350877
1, 9840, Tempo, 357142
1, 9984, Tempo, 368098
1, 10128, Tempo, 357142
1, 10272, Tempo, 350877
1, 10416, Tempo, 357142
1, 10560, Tempo, 368098
1, 10704, Tempo, 357142
1, 10848, Tempo, 350877
1, 10992, Tempo, 368098
1, 11136, Tempo, 375000
1, 11280, Tempo, 368098
1, 11424, Tempo, 363636
1, 11568, Tempo, 357142
1, 11712, Tempo, 350877
1, 11856, Tempo, 357142
1, 12000, Tempo, 363636
1, 12144, Tempo, 368098
1, 12288, Tempo, 375000
1, 12432, Tempo, 368098
1, 12576, Tempo, 363636
1, 12720, Tempo, 357142
1, 12864, Tempo, 350877
1, 13008, Tempo, 357142
1, 13152, Tempo, 363636
1, 13296, Tempo, 368098
1, 13584, Tempo, 357142
1, 14016, Tempo, 368098
1, 14160, Tempo, 357142
1, 14592, Tempo, 368098
1, 14736, Tempo, 357142
1, 15168, Tempo, 368098
1, 15312, Tempo, 357142
1, 15744, Tempo, 368098
1, 15888, Tempo, 350877
1, 16032, Tempo, 368098
1, 16176, Tempo, 350877
1, 16320, Tempo, 368098
1, 16464, Tempo, 350877
1, 16608, Tempo, 368098
1, 16752, Tempo, 350877
1, 16896, Tempo, 375000
1, 17011, Tempo, 368098
1, 17126, Tempo, 363636
1, 17241, Tempo, 357142
1, 17356, Tempo, 350877
1, 17471, Tempo, 344827
1, 17472, Tempo, 350877
1, 17616, Tempo, 368098
1, 17904, Tempo, 363636
1, 18048, Tempo, 357142
1, 18192, Tempo, 350877
1, 18336, Tempo, 357142
1, 19632, Tempo, 368098
1, 19776, Tempo, 357142
1, 19920, Tempo, 368098
1, 20064, Tempo, 344827
1, 20352, Tempo, 363636
1, 20640, Tempo, 357142
1, 21216, Tempo, 444444
1, 21792, Time_signature, 12, 3, 24, 8
1, 21792, Tempo, 368098
1, 21936, Tempo, 363636
1, 22080, Tempo, 350877
1, 22224, Tempo, 357142
1, 22368, Tempo, 368098
1, 22512, Tempo, 363636
1, 22656, Tempo, 350877
1, 22800, Tempo, 357142
1, 22944, Tempo, 368098
1, 23088, Tempo, 363636
1, 23232, Tempo, 350877
1, 23376, Tempo, 357142
1, 23520, Tempo, 368098
1, 23664, Tempo, 363636
1, 23808, Tempo, 350877
1, 23952, Tempo, 357142
1, 24096, Tempo, 368098
1, 24240, Tempo, 363636
1, 24384, Tempo, 350877
1, 24528, Tempo, 357142
1, 26256, Tempo, 368098
1, 26400, Tempo, 357142
1, 27552, Tempo, 350877
1, 28128, Tempo, 344827
1, 28560, Tempo, 340909
1, 28704, Tempo, 368098
1, 28848, Tempo, 357142
1, 28992, Tempo, 350877
1, 29136, Tempo, 357142
1, 29280, Tempo, 368098
1, 29424, Tempo, 357142
1, 29568, Tempo, 350877
1, 29712, Tempo, 357142
1, 29856, Tempo, 368098
1, 30000, Tempo, 357142
1, 30144, Tempo, 350877
1, 30288, Tempo, 357142
1, 30432, Tempo, 368098
1, 30576, Tempo, 357142
1, 30720, Tempo, 350877
1, 30864, Tempo, 357142
1, 31008, Tempo, 368098
1, 31152, Tempo, 357142
1, 31296, Tempo, 350877
1, 31440, Tempo, 368098
1, 31584, Tempo, 375000
1, 31728, Tempo, 368098
1, 31872, Tempo, 363636
1, 32016, Tempo, 357142
1, 32160, Tempo, 350877
1, 32304, Tempo, 357142
1, 32448, Tempo, 363636
1, 32592, Tempo, 368098
1, 32736, Tempo, 375000
1, 32880, Tempo, 368098
1, 33024, Tempo, 363636
1, 33168, Tempo, 357142
1, 33312, Tempo, 350877
1, 33456, Tempo, 357142
1, 33600, Tempo, 363636
1, 33744, Tempo, 368098
1, 34032, Tempo, 357142
1, 34464, Tempo, 368098
1, 34608, Tempo, 357142
1, 35040, Tempo, 368098
1, 35184, Tempo, 357142
1, 35616, Tempo, 368098
1, 35760, Tempo, 357142
1, 36192, Tempo, 368098
1, 36336, Tempo, 350877
1, 36480, Tempo, 368098
1, 36624, Tempo, 350877
1, 36768, Tempo, 368098
1, 36912, Tempo, 350877
1, 37056, Tempo, 368098
1, 37200, Tempo, 350877
1, 37344, Tempo, 375000
1, 37459, Tempo, 368098
1, 37574, Tempo, 363636
1, 37689, Tempo, 357142
1, 37804, Tempo, 350877
1, 37919, Tempo, 344827
1, 37920, Tempo, 350877
1, 38064, Tempo, 368098
1, 38352, Tempo, 363636
1, 38496, Tempo, 357142
1, 38640, Tempo, 350877
1, 38784, Tempo, 357142
1, 40080, Tempo, 368098
1, 40224, Tempo, 357142
1, 40368, Tempo, 368098
1, 40512, Tempo, 344827
1, 40800, Tempo, 363636
1, 41088, Tempo, 357142
1, 41664, Tempo, 444444
1, 42240, Tempo, 357142
1, 42816, Tempo, 444444
1, 43392, Tempo, 357142
1, 43968, Tempo, 350877
1, 44544, Tempo, 344827
1, 45120, Tempo, 340909
1, 45408, Tempo, 344827
1, 45696, Tempo, 357142
1, 45936, Tempo, 2222222
1, 46008, Tempo, 7500000
1, 46032, Tempo, 368098
1, 46176, Tempo, 357142
1, 46320, Tempo, 363636
1, 46464, Tempo, 368098
1, 46608, Tempo, 357142
1, 46752, Tempo, 363636
1, 46896, Tempo, 368098
1, 47040, Tempo, 357142
1, 47184, Tempo, 363636
1, 47328, Tempo, 368098
1, 47472, Tempo, 357142
1, 47616, Tempo, 363636
1, 48192, Tempo, 368098
1, 48336, Tempo, 357142
1, 48480, Tempo, 363636
1, 48624, Tempo, 382165
1, 48768, Tempo, 357142
1, 49056, Tempo, 382165
1, 49200, Tempo, 357142
1, 49488, Tempo, 382165
1, 49632, Tempo, 357142
1, 49920, Tempo, 382165
1, 50064, Tempo, 357142
1, 50496, Tempo, 368098
1, 50640, Tempo, 357142
1, 50784, Tempo, 363636
1, 51216, Tempo, 350877
1, 51648, Tempo, 363636
1, 52080, Tempo, 350877
1, 52512, Tempo, 363636
1, 52944, Tempo, 357142
1, 56256, Tempo, 368098
1, 56400, Tempo, 363636
1, 56544, Tempo, 357142
1, 56688, Tempo, 350877
1, 56832, Tempo, 357142
1, 57408, Tempo, 368098
1, 57552, Tempo, 363636
1, 57696, Tempo, 357142
1, 57840, Tempo, 350877
1, 57984, Tempo, 357142
1, 59136, Tempo, 363636
1, 59712, Tempo, 368098
1, 59856, Tempo, 350877
1, 60000, Tempo, 344827
1, 60144, Tempo, 350877
1, 60288, Tempo, 357142
1, 60432, Tempo, 350877
1, 60576, Tempo, 344827
1, 60720, Tempo, 350877
1, 60864, Tempo, 357142
1, 61008, Tempo, 350877
1, 61152, Tempo, 344827
1, 61296, Tempo, 350877
1, 62016, Tempo, 357142
1, 62592, Tempo, 350877
1, 62880, Tempo, 344827
1, 63168, Tempo, 375000
1, 63312, Tempo, 368098
1, 63456, Tempo, 363636
1, 63600, Tempo, 357142
1, 63744, Tempo, 350877
1, 63888, Tempo, 357142
1, 64032, Tempo, 363636
1, 64176, Tempo, 368098
1, 64320, Tempo, 357142
1, 64608, Tempo, 375000
1, 64752, Tempo, 368098
1, 64896, Tempo, 363636
1, 65040, Tempo, 357142
1, 65184, Tempo, 350877
1, 65328, Tempo, 357142
1, 65472, Tempo, 363636
1, 65616, Tempo, 368098
1, 65760, Tempo, 375000
1, 65904, Tempo, 368098
1, 66048, Tempo, 363636
1, 66192, Tempo, 357142
1, 66336, Tempo, 350877
1, 66480, Tempo, 357142
1, 66624, Tempo, 363636
1, 66768, Tempo, 368098
1, 66912, Tempo, 375000
1, 67056, Tempo, 368098
1, 67200, Tempo, 363636
1, 67344, Tempo, 357142
1, 67488, Tempo, 350877
1, 67632, Tempo, 357142
1, 67776, Tempo, 363636
1, 67920, Tempo, 357142
1, 68064, Tempo, 368098
1, 68208, Tempo, 357142
1, 68640, Tempo, 368098
1, 68784, Tempo, 357142
1, 69216, Tempo, 368098
1, 69360, Tempo, 357142
1, 69792, Tempo, 368098
1, 69936, Tempo, 357142
1, 70368, Tempo, 368098
1, 70512, Tempo, 357142
1, 70656, Tempo, 368098
1, 70800, Tempo, 357142
1, 70944, Tempo, 368098
1, 71088, Tempo, 357142
1, 71232, Tempo, 368098
1, 71376, Tempo, 357142
1, 71520, Tempo, 368098
1, 71712, Tempo, 363636
1, 71904, Tempo, 357142
1, 72095, Tempo, 350877
1, 72192, Tempo, 357142
1, 72288, Tempo, 363636
1, 72383, Tempo, 368098
1, 72384, Tempo, 363636
1, 72960, Tempo, 357142
1, 74256, Tempo, 368098
1, 74400, Tempo, 357142
1, 74544, Tempo, 368098
1, 74688, Tempo, 344827
1, 74976, Tempo, 363636
1, 75264, Tempo, 357142
1, 75840, Tempo, 434782
1, 76416, Tempo, 357142
1, 77568, Tempo, 434782
1, 78144, Tempo, 357142
1, 78720, Tempo, 350877
1, 79296, Tempo, 344827
1, 79872, Tempo, 340909
1, 80160, Tempo, 344827
1, 80448, Tempo, 357142
1, 80688, Tempo, 2222222
1, 80760, Tempo, 7500000
1, 80784, Tempo, 368098
1, 80928, Tempo, 357142
1, 81072, Tempo, 363636
1, 81216, Tempo, 368098
1, 81360, Tempo, 357142
1, 81504, Tempo, 363636
1, 81648, Tempo, 368098
1, 81792, Tempo, 357142
1, 81936, Tempo, 363636
1, 82080, Tempo, 368098
1, 82224, Tempo, 357142
1, 82368, Tempo, 363636
1, 82944, Tempo, 368098
1, 83088, Tempo, 357142
1, 83232, Tempo, 363636
1, 83376, Tempo, 382165
1, 83520, Tempo, 357142
1, 83808, Tempo, 382165
1, 83952, Tempo, 357142
1, 84240, Tempo, 382165
1, 84384, Tempo, 357142
1, 84672, Tempo, 382165
1, 84816, Tempo, 357142
1, 85248, Tempo, 368098
1, 85392, Tempo, 357142
1, 85536, Tempo, 363636
1, 85968, Tempo, 350877
1, 86400, Tempo, 363636
1, 86832, Tempo, 350877
1, 87264, Tempo, 363636
1, 87696, Tempo, 357142
1, 91008, Tempo, 368098
1, 91152, Tempo, 363636
1, 91296, Tempo, 357142
1, 91440, Tempo, 350877
1, 91584, Tempo, 357142
1, 92160, Tempo, 368098
1, 92304, Tempo, 363636
1, 92448, Tempo, 357142
1, 92592, Tempo, 350877
1, 92736, Tempo, 357142
1, 93888, Tempo, 363636
1, 94464, Tempo, 368098
1, 94608, Tempo, 350877
1, 94752, Tempo, 344827
1, 94896, Tempo, 350877
1, 95040, Tempo, 357142
1, 95184, Tempo, 350877
1, 95328, Tempo, 344827
1, 95472, Tempo, 350877
1, 95616, Tempo, 357142
1, 95760, Tempo, 350877
1, 95904, Tempo, 344827
1, 96048, Tempo, 350877
1, 96768, Tempo, 357142
1, 97344, Tempo, 350877
1, 97632, Tempo, 344827
1, 97920, Tempo, 375000
1, 98064, Tempo, 368098
1, 98208, Tempo, 363636
1, 98352, Tempo, 357142
1, 98496, Tempo, 350877
1, 98640, Tempo, 357142
1, 98784, Tempo, 363636
1, 98928, Tempo, 368098
1, 99072, Tempo, 357142
1, 99360, Tempo, 375000
1, 99504, Tempo, 368098
1, 99648, Tempo, 363636
1, 99792, Tempo, 357142
1, 99936, Tempo, 350877
1, 100080, Tempo, 357142
1, 100224, Tempo, 363636
1, 100368, Tempo, 368098
1, 100512, Tempo, 375000
1, 100656, Tempo, 368098
1, 100800, Tempo, 363636
1, 100944, Tempo, 357142
1, 101088, Tempo, 350877
1, 101232, Tempo, 357142
1, 101376, Tempo, 363636
1, 101520, Tempo, 368098
1, 101664, Tempo, 375000
1, 101808, Tempo, 368098
1, 101952, Tempo, 363636
1, 102096, Tempo, 357142
1, 102240, Tempo, 350877
1, 102384, Tempo, 357142
1, 102528, Tempo, 363636
1, 102672, Tempo, 357142
1, 102816, Tempo, 368098
1, 102960, Tempo, 357142
1, 103392, Tempo, 368098
1, 103536, Tempo, 357142
1, 103968, Tempo, 368098
1, 104112, Tempo, 357142
1, 104544, Tempo, 368098
1, 104688, Tempo, 357142
1, 105120, Tempo, 368098
1, 105264, Tempo, 357142
1, 105408, Tempo, 368098
1, 105552, Tempo, 357142
1, 105696, Tempo, 368098
1, 105840, Tempo, 357142
1, 105984, Tempo, 368098
1, 106128, Tempo, 357142
1, 106272, Tempo, 368098
1, 106464, Tempo, 363636
1, 106656, Tempo, 357142
1, 106847, Tempo, 350877
1, 106944, Tempo, 357142
1, 107040, Tempo, 363636
1, 107135, Tempo, 368098
1, 107136, Tempo, 363636
1, 107712, Tempo, 357142
1, 109008, Tempo, 368098
1, 109152, Tempo, 357142
1, 109296, Tempo, 368098
1, 109440, Tempo, 344827
1, 109728, Tempo, 363636
1, 110016, Tempo, 357142
1, 110592, Tempo, 434782
1, 111168, Tempo, 357142
1, 112272, Tempo, 6000000
1, 112320, Tempo, 2222222
1, 112368, Tempo, 363636
1, 112512, Tempo, 357142
1, 112944, Tempo, 363636
1, 113088, Tempo, 357142
1, 113625, Tempo, 350877
1, 113730, Tempo, 344827
1, 113834, Tempo, 340909
1, 113939, Tempo, 335195
1, 114044, Tempo, 329670
1, 114148, Tempo, 326086
1, 114253, Tempo, 320855
1, 114358, Tempo, 315789
1, 114462, Tempo, 310880
1, 114567, Tempo, 307692
1, 114671, Tempo, 303030
1, 114672, Tempo, 344827
1, 115008, Tempo, 491803
1, 115056, Tempo, 375000
1, 118224, Time_signature, 2, 2, 24, 8
1, 118512, Time_signature, 12, 3, 24, 8
1, 119472, Tempo, 389610
1, 119664, Tempo, 375000
1, 121008, Tempo, 402684
1, 121200, Tempo, 382165
1, 122736, Tempo, 394736
1, 122832, Tempo, 382165
1, 125904, Tempo, 375000
1, 126384, Tempo, 368098
1, 126864, Tempo, 363636
1, 127343, Tempo, 357142
1, 127776, Tempo, 363636
1, 128016, Tempo, 368098
1, 128256, Tempo, 375000
1, 128304, Tempo, 382165
1, 130320, Tempo, 375000
1, 130704, Tempo, 368098
1, 131088, Tempo, 363636
1, 131471, Tempo, 357142
1, 131472, Tempo, 375000
1, 132720, Tempo, 389610
1, 132912, Tempo, 375000
1, 134256, Tempo, 402684
1, 134448, Tempo, 382165
1, 135984, Tempo, 394736
1, 136080, Tempo, 382165
1, 139152, Tempo, 375000
1, 139632, Tempo, 368098
1, 140112, Tempo, 363636
1, 140591, Tempo, 357142
1, 141024, Tempo, 363636
1, 141264, Tempo, 368098
1, 141504, Tempo, 375000
1, 141552, Tempo, 382165
1, 143568, Tempo, 375000
1, 143952, Tempo, 368098
1, 144336, Tempo, 363636
1, 144432, Tempo, 375000
1, 144624, Time_signature, 4, 2, 24, 8
1, 146160, Tempo, 368098
1, 146544, Tempo, 363636
1, 146928, Tempo, 402684
1, 147696, Tempo, 375000
1, 148464, Tempo, 368098
1, 148848, Tempo, 363636
1, 149232, Tempo, 402684
1, 150000, Tempo, 410958
1, 151920, Tempo, 555555
1, 151937, Tempo, 566037
1, 151954, Tempo, 582524
1, 151971, Tempo, 600000
1, 151987, Tempo, 618556
1, 152004, Tempo, 631578
1, 152021, Tempo, 652173
1, 152038, Tempo, 674157
1, 152054, Tempo, 689655
1, 152071, Tempo, 714285
1, 152088, Tempo, 740740
1, 152105, Tempo, 769230
1, 152121, Tempo, 789473
1, 152138, Tempo, 821917
1, 152155, Tempo, 857142
1, 152172, Tempo, 895522
1, 152188, Tempo, 923076
1, 152205, Tempo, 967741
1, 152222, Tempo, 1016949
1, 152239, Tempo, 1052631
1, 152255, Tempo, 1111111
1, 152256, Tempo, 12000000
1, 152280, Tempo, 3750000
1, 152304, Tempo, 344827
1, 152448, Tempo, 504201
1, 152592, Tempo, 344827
1, 152736, Tempo, 504201
1, 152880, Tempo, 363636
1, 153024, Tempo, 357142
1, 153168, Tempo, 491803
1, 153312, Tempo, 555555
1, 153456, Tempo, 368098
1, 153600, Tempo, 363636
1, 153744, Tempo, 350877
1, 153888, Tempo, 357142
1, 154032, Tempo, 368098
1, 154176, Tempo, 363636
1, 154320, Tempo, 350877
1, 154464, Tempo, 357142
1, 154608, Tempo, 368098
1, 154752, Tempo, 363636
1, 154896, Tempo, 350877
1, 155040, Tempo, 357142
1, 155184, Tempo, 368098
1, 155328, Tempo, 363636
1, 155472, Tempo, 350877
1, 155616, Tempo, 357142
1, 155760, Tempo, 368098
1, 155904, Tempo, 363636
1, 156048, Tempo, 350877
1, 156192, Tempo, 357142
1, 157920, Tempo, 368098
1, 158064, Tempo, 357142
1, 159216, Tempo, 350877
1, 159792, Tempo, 344827
1, 160224, Tempo, 340909
1, 160368, Tempo, 368098
1, 160512, Tempo, 357142
1, 160656, Tempo, 350877
1, 160800, Tempo, 357142
1, 160944, Tempo, 368098
1, 161088, Tempo, 357142
1, 161232, Tempo, 350877
1, 161376, Tempo, 357142
1, 161520, Tempo, 368098
1, 161664, Tempo, 357142
1, 161808, Tempo, 350877
1, 161952, Tempo, 357142
1, 162096, Tempo, 368098
1, 162240, Tempo, 357142
1, 162384, Tempo, 350877
1, 162528, Tempo, 357142
1, 162672, Tempo, 368098
1, 162816, Tempo, 357142
1, 162960, Tempo, 350877
1, 163104, Tempo, 368098
1, 163248, Tempo, 375000
1, 163392, Tempo, 368098
1, 163536, Tempo, 363636
1, 163680, Tempo, 357142
1, 163824, Tempo, 350877
1, 163968, Tempo, 357142
1, 164112, Tempo, 363636
1, 164256, Tempo, 368098
1, 164400, Tempo, 375000
1, 164544, Tempo, 368098
1, 164688, Tempo, 363636
1, 164832, Tempo, 357142
1, 164976, Tempo, 350877
1, 165120, Tempo, 357142
1, 165264, Tempo, 363636
1, 165408, Tempo, 368098
1, 165696, Tempo, 357142
1, 166128, Tempo, 368098
1, 166272, Tempo, 357142
1, 166704, Tempo, 368098
1, 166848, Tempo, 357142
1, 167280, Tempo, 368098
1, 167424, Tempo, 357142
1, 167856, Tempo, 368098
1, 168000, Tempo, 350877
1, 168144, Tempo, 368098
1, 168288, Tempo, 350877
1, 168432, Tempo, 368098
1, 168576, Tempo, 350877
1, 168720, Tempo, 368098
1, 168864, Tempo, 350877
1, 169008, Tempo, 375000
1, 169123, Tempo, 368098
1, 169238, Tempo, 363636
1, 169353, Tempo, 357142
1, 169468, Tempo, 350877
1, 169583, Tempo, 344827
1, 169584, Tempo, 350877
1, 169728, Tempo, 368098
1, 170016, Tempo, 363636
1, 170160, Tempo, 357142
1, 170304, Tempo, 350877
1, 170448, Tempo, 357142
1, 171744, Tempo, 368098
1, 171888, Tempo, 357142
1, 172032, Tempo, 368098
1, 172176, Tempo, 344827
1, 172464, Tempo, 363636
1, 172752, Tempo, 357142
1, 173328, Tempo, 444444
1, 173904, Time_signature, 12, 3, 24, 8
1, 173904, Tempo, 357142
1, 174480, Tempo, 444444
1, 175056, Tempo, 357142
1, 175632, Tempo, 350877
1, 176208, Tempo, 344827
1, 176784, Tempo, 340909
1, 177072, Tempo, 344827
1, 177360, Tempo, 357142
1, 177600, Tempo, 2222222
1, 177672, Tempo, 7500000
1, 177696, Tempo, 368098
1, 177840, Tempo, 357142
1, 177984, Tempo, 363636
1, 178128, Tempo, 368098
1, 178272, Tempo, 357142
1, 178416, Tempo, 363636
1, 178560, Tempo, 368098
1, 178704, Tempo, 357142
1, 178848, Tempo, 363636
1, 178992, Tempo, 368098
1, 179136, Tempo, 357142
1, 179280, Tempo, 363636
1, 179856, Tempo, 368098
1, 180000, Tempo, 357142
1, 180144, Tempo, 363636
1, 180288, Tempo, 382165
1, 180432, Tempo, 357142
1, 180720, Tempo, 382165
1, 180864, Tempo, 357142
1, 181152, Tempo, 382165
1, 181296, Tempo, 357142
1, 181584, Tempo, 382165
1, 181728, Tempo, 357142
1, 182160, Tempo, 368098
1, 182304, Tempo, 357142
1, 182448, Tempo, 363636
1, 182880, Tempo, 350877
1, 183312, Tempo, 363636
1, 183744, Tempo, 350877
1, 184176, Tempo, 363636
1, 184608, Tempo, 357142
1, 187920, Tempo, 368098
1, 188064, Tempo, 363636
1, 188208, Tempo, 357142
1, 188352, Tempo, 350877
1, 188496, Tempo, 357142
1, 189072, Tempo, 368098
1, 189216, Tempo, 363636
1, 189360, Tempo, 357142
1, 189504, Tempo, 350877
1, 189648, Tempo, 357142
1, 190800, Tempo, 363636
1, 191376, Tempo, 368098
1, 191520, Tempo, 350877
1, 191664, Tempo, 344827
1, 191808, Tempo, 350877
1, 191952, Tempo, 357142
1, 192096, Tempo, 350877
1, 192240, Tempo, 344827
1, 192384, Tempo, 350877
1, 192528, Tempo, 357142
1, 192672, Tempo, 350877
1, 192816, Tempo, 344827
1, 192960, Tempo, 350877
1, 193680, Tempo, 357142
1, 194256, Tempo, 350877
1, 194544, Tempo, 344827
1, 194832, Tempo, 375000
1, 194976, Tempo, 368098
1, 195120, Tempo, 363636
1, 195264, Tempo, 357142
1, 195408, Tempo, 350877
1, 195552, Tempo, 357142
1, 195696, Tempo, 363636
1, 195840, Tempo, 368098
1, 195984, Tempo, 357142
1, 196272, Tempo, 375000
1, 196416, Tempo, 368098
1, 196560, Tempo, 363636
1, 196704, Tempo, 357142
1, 196848, Tempo, 350877
1, 196992, Tempo, 357142
1, 197136, Tempo, 363636
1, 197280, Tempo, 368098
1, 197424, Tempo, 375000
1, 197568, Tempo, 368098
1, 197712, Tempo, 363636
1, 197856, Tempo, 357142
1, 198000, Tempo, 350877
1, 198144, Tempo, 357142
1, 198288, Tempo, 363636
1, 198432, Tempo, 368098
1, 198576, Tempo, 375000
1, 198720, Tempo, 368098
1, 198864, Tempo, 363636
1, 199008, Tempo, 357142
1, 199152, Tempo, 350877
1, 199296, Tempo, 357142
1, 199440, Tempo, 363636
1, 199584, Tempo, 357142
1, 199728, Tempo, 368098
1, 199872, Tempo, 357142
1, 200304, Tempo, 368098
1, 200448, Tempo, 357142
1, 200880, Tempo, 368098
1, 201024, Tempo, 357142
1, 201456, Tempo, 368098
1, 201600, Tempo, 357142
1, 202032, Tempo, 368098
1, 202176, Tempo, 357142
1, 202320, Tempo, 368098
1, 202464, Tempo, 357142
1, 202608, Tempo, 368098
1, 202752, Tempo, 357142
1, 202896, Tempo, 368098
1, 203040, Tempo, 357142
1, 203184, Tempo, 368098
1, 203376, Tempo, 363636
1, 203568, Tempo, 357142
1, 203759, Tempo, 350877
1, 203856, Tempo, 357142
1, 203952, Tempo, 363636
1, 204047, Tempo, 368098
1, 204048, Tempo, 363636
1, 204624, Tempo, 357142
1, 205920, Tempo, 368098
1, 206064, Tempo, 357142
1, 206208, Tempo, 368098
1, 206352, Tempo, 344827
1, 206640, Tempo, 363636
1, 206928, Tempo, 357142
1, 207504, Tempo, 434782
1, 208080, Tempo, 357142
1, 209184, Tempo, 6000000
1, 209232, Tempo, 2222222
1, 209280, Tempo, 363636
1, 209424, Tempo, 357142
1, 209856, Tempo, 363636
1, 210000, Tempo, 357142
1, 210537, Tempo, 350877
1, 210642, Tempo, 344827
1, 210746, Tempo, 340909
1, 210851, Tempo, 335195
1, 210956, Tempo, 329670
1, 211060, Tempo, 326086
1, 211165, Tempo, 320855
1, 211270, Tempo, 315789
1, 211374, Tempo, 310880
1, 211479, Tempo, 307692
1, 211583, Tempo, 303030
1, 211584, Tempo, 344827
1, 211920, Tempo, 491803
1, 211968, Tempo, 375000
1, 213312, Tempo, 631578
1, 213504, Tempo, 344827
1, 213840, Tempo, 555555
1, 213984, Tempo, 1111111
1, 214080, Time_signature, 4, 2, 24, 8
1, 214080, End_track
2, 0, Start_track
2, 0, Title_t, "Violino I"
2, 0, MIDI_port, 0
2, 184, Control_c, 0, 7, 123
2, 186, Control_c, 0, 91, 80
2, 188, Control_c, 0, 93, 20
2, 190, Control_c, 0, 10, 30
2, 192, Control_c, 0, 11, 120
2, 192, Program_c, 0, 48
2, 192, Control_c, 0, 99, 1
2, 192, Control_c, 0, 98, 99
2, 192, Control_c, 0, 6, 14
2, 192, Note_on_c, 0, 86, 110
2, 232, Note_on_c, 0, 86, 0
2, 267, Note_on_c, 0, 74, 100
2, 285, Note_on_c, 0, 74, 0
2, 291, Note_on_c, 0, 74, 100
2, 329, Note_on_c, 0, 74, 0
2, 483, Note_on_c, 0, 81, 110
2, 518, Note_on_c, 0, 81, 0
2, 555, Note_on_c, 0, 69, 100
2, 567, Note_on_c, 0, 69, 0
2, 579, Note_on_c, 0, 69, 100
2, 603, Note_on_c, 0, 69, 0
2, 915, Note_on_c, 0, 74, 110
2, 950, Note_on_c, 0, 74, 0
2, 987, Note_on_c, 0, 62, 100
2, 999, Note_on_c, 0, 62, 0
2, 1011, Note_on_c, 0, 62, 100
2, 1035, Note_on_c, 0, 62, 0
2, 3072, Note_on_c, 0, 86, 60
2, 3107, Note_on_c, 0, 86, 0
2, 3144, Note_on_c, 0, 74, 50
2, 3156, Note_on_c, 0, 74, 0
2, 3168, Note_on_c, 0, 74, 50
2, 3192, Note_on_c, 0, 74, 0
2, 3216, Note_on_c, 0, 81, 55
2, 3240, Note_on_c, 0, 81, 0
2, 3264, Note_on_c, 0, 83, 50
2, 3288, Note_on_c, 0, 83, 0
2, 3312, Note_on_c, 0, 84, 50
2, 3336, Note_on_c, 0, 84, 0
2, 3360, Note_on_c, 0, 83, 55
2, 3384, Note_on_c, 0, 83, 0
2, 3408, Note_on_c, 0, 84, 50
2, 3432, Note_on_c, 0, 84, 0
2, 3456, Note_on_c, 0, 86, 50
2, 3480, Note_on_c, 0, 86, 0
2, 3504, Note_on_c, 0, 84, 55
2, 3528, Note_on_c, 0, 84, 0
2, 3552, Note_on_c, 0, 83, 50
2, 3576, Note_on_c, 0, 83, 0
2, 3600, Note_on_c, 0, 81, 50
2, 3624, Note_on_c, 0, 81, 0
2, 3648, Note_on_c, 0, 82, 55
2, 3672, Note_on_c, 0, 82, 0
2, 3696, Note_on_c, 0, 81, 50
2, 3720, Note_on_c, 0, 81, 0
2, 3744, Note_on_c, 0, 79, 50
2, 3768, Note_on_c, 0, 79, 0
2, 3792, Note_on_c, 0, 77, 55
2, 3816, Note_on_c, 0, 77, 0
2, 3840, Note_on_c, 0, 76, 50
2, 3864, Note_on_c, 0, 76, 0
2, 3888, Note_on_c, 0, 74, 50
2, 3912, Note_on_c, 0, 74, 0
2, 3936, Note_on_c, 0, 73, 55
2, 3960, Note_on_c, 0, 73, 0
2, 3984, Note_on_c, 0, 74, 50
2, 4008, Note_on_c, 0, 74, 0
2, 4032, Note_on_c, 0, 76, 50
2, 4056, Note_on_c, 0, 76, 0
2, 4080, Note_on_c, 0, 74, 55
2, 4104, Note_on_c, 0, 74, 0
2, 4128, Note_on_c, 0, 73, 50
2, 4152, Note_on_c, 0, 73, 0
2, 4176, Note_on_c, 0, 74, 50
2, 4200, Note_on_c, 0, 74, 0
2, 4224, Note_on_c, 0, 69, 55
2, 4248, Note_on_c, 0, 69, 0
2, 4272, Note_on_c, 0, 81, 50
2, 4296, Note_on_c, 0, 81, 0
2, 4320, Note_on_c, 0, 81, 50
2, 4344, Note_on_c, 0, 81, 0
2, 4368, Note_on_c, 0, 81, 55
2, 4392, Note_on_c, 0, 81, 0
2, 4416, Note_on_c, 0, 88, 50
2, 4440, Note_on_c, 0, 88, 0
2, 4464, Note_on_c, 0, 88, 50
2, 4488, Note_on_c, 0, 88, 0
2, 4512, Note_on_c, 0, 88, 55
2, 4536, Note_on_c, 0, 88, 0
2, 4560, Note_on_c, 0, 88, 50
2, 4584, Note_on_c, 0, 88, 0
2, 4608, Note_on_c, 0, 88, 50
2, 4632, Note_on_c, 0, 88, 0
2, 4656, Note_on_c, 0, 88, 55
2, 4680, Note_on_c, 0, 88, 0
2, 4704, Note_on_c, 0, 88, 50
2, 4728, Note_on_c, 0, 88, 0
2, 4752, Note_on_c, 0, 81, 50
2, 4776, Note_on_c, 0, 81, 0
2, 4800, Note_on_c, 0, 81, 55
2, 4824, Note_on_c, 0, 81, 0
2, 4848, Note_on_c, 0, 81, 50
2, 4872, Note_on_c, 0, 81, 0
2, 4896, Note_on_c, 0, 81, 50
2, 4920, Note_on_c, 0, 81, 0
2, 4944, Note_on_c, 0, 81, 55
2, 4968, Note_on_c, 0, 81, 0
2, 4992, Note_on_c, 0, 81, 50
2, 5016, Note_on_c, 0, 81, 0
2, 5040, Note_on_c, 0, 81, 50
2, 5064, Note_on_c, 0, 81, 0
2, 5088, Note_on_c, 0, 82, 55
2, 5112, Note_on_c, 0, 82, 0
2, 5136, Note_on_c, 0, 81, 50
2, 5160, Note_on_c, 0, 81, 0
2, 5184, Note_on_c, 0, 79, 50
2, 5208, Note_on_c, 0, 79, 0
2, 5232, Note_on_c, 0, 77, 55
2, 5256, Note_on_c, 0, 77, 0
2, 5280, Note_on_c, 0, 76, 50
2, 5304, Note_on_c, 0, 76, 0
2, 5328, Note_on_c, 0, 74, 50
2, 5352, Note_on_c, 0, 74, 0
2, 5376, Note_on_c, 0, 77, 55
2, 5400, Note_on_c, 0, 77, 0
2, 5424, Note_on_c, 0, 76, 50
2, 5448, Note_on_c, 0, 76, 0
2, 5472, Note_on_c, 0, 74, 50
2, 5496, Note_on_c, 0, 74, 0
2, 5520, Note_on_c, 0, 72, 55
2, 5544, Note_on_c, 0, 72, 0
2, 5568, Note_on_c, 0, 71, 50
2, 5592, Note_on_c, 0, 71, 0
2, 5616, Note_on_c, 0, 69, 50
2, 5640, Note_on_c, 0, 69, 0
2, 5664, Note_on_c, 0, 68, 55
2, 5688, Note_on_c, 0, 68, 0
2, 5712, Note_on_c, 0, 69, 50
2, 5736, Note_on_c, 0, 69, 0
2, 5760, Note_on_c, 0, 71, 50
2, 5784, Note_on_c, 0, 71, 0
2, 5808, Note_on_c, 0, 69, 55
2, 5832, Note_on_c, 0, 69, 0
2, 5856, Note_on_c, 0, 68, 50
2, 5880, Note_on_c, 0, 68, 0
2, 5904, Note_on_c, 0, 69, 50
2, 5928, Note_on_c, 0, 69, 0
2, 5952, Note_on_c, 0, 73, 55
2, 5976, Note_on_c, 0, 73, 0
2, 6000, Note_on_c, 0, 74, 50
2, 6024, Note_on_c, 0, 74, 0
2, 6048, Note_on_c, 0, 76, 50
2, 6072, Note_on_c, 0, 76, 0
2, 6096, Note_on_c, 0, 77, 55
2, 6120, Note_on_c, 0, 77, 0
2, 6144, Note_on_c, 0, 79, 50
2, 6168, Note_on_c, 0, 79, 0
2, 6192, Note_on_c, 0, 81, 50
2, 6216, Note_on_c, 0, 81, 0
2, 6240, Note_on_c, 0, 82, 55
2, 6264, Note_on_c, 0, 82, 0
2, 6288, Note_on_c, 0, 81, 50
2, 6312, Note_on_c, 0, 81, 0
2, 6336, Note_on_c, 0, 79, 50
2, 6360, Note_on_c, 0, 79, 0
2, 6384, Note_on_c, 0, 77, 55
2, 6408, Note_on_c, 0, 77, 0
2, 6432, Note_on_c, 0, 76, 50
2, 6456, Note_on_c, 0, 76, 0
2, 6480, Note_on_c, 0, 74, 50
2, 6504, Note_on_c, 0, 74, 0
2, 6528, Note_on_c, 0, 73, 55
2, 6552, Note_on_c, 0, 73, 0
2, 6576, Note_on_c, 0, 74, 51
2, 6600, Note_on_c, 0, 74, 0
2, 6624, Note_on_c, 0, 76, 53
2, 6648, Note_on_c, 0, 76, 0
2, 6672, Note_on_c, 0, 74, 60
2, 6696, Note_on_c, 0, 74, 0
2, 6720, Note_on_c, 0, 73, 56
2, 6744, Note_on_c, 0, 73, 0
2, 6768, Note_on_c, 0, 74, 58
2, 6792, Note_on_c, 0, 74, 0
2, 6816, Note_on_c, 0, 73, 65
2, 6840, Note_on_c, 0, 73, 0
2, 6864, Note_on_c, 0, 74, 61
2, 6888, Note_on_c, 0, 74, 0
2, 6912, Note_on_c, 0, 76, 63
2, 6936, Note_on_c, 0, 76, 0
2, 6960, Note_on_c, 0, 74, 70
2, 6984, Note_on_c, 0, 74, 0
2, 7008, Note_on_c, 0, 73, 66
2, 7032, Note_on_c, 0, 73, 0
2, 7056, Note_on_c, 0, 74, 68
2, 7080, Note_on_c, 0, 74, 0
2, 7104, Note_on_c, 0, 73, 75
2, 7128, Note_on_c, 0, 73, 0
2, 7152, Note_on_c, 0, 74, 71
2, 7176, Note_on_c, 0, 74, 0
2, 7200, Note_on_c, 0, 76, 73
2, 7224, Note_on_c, 0, 76, 0
2, 7248, Note_on_c, 0, 74, 80
2, 7272, Note_on_c, 0, 74, 0
2, 7296, Note_on_c, 0, 73, 77
2, 7320, Note_on_c, 0, 73, 0
2, 7344, Note_on_c, 0, 74, 78
2, 7368, Note_on_c, 0, 74, 0
2, 7392, Note_on_c, 0, 76, 85
2, 7416, Note_on_c, 0, 76, 0
2, 7440, Note_on_c, 0, 77, 82
2, 7464, Note_on_c, 0, 77, 0
2, 7488, Note_on_c, 0, 79, 83
2, 7512, Note_on_c, 0, 79, 0
2, 7536, Note_on_c, 0, 77, 90
2, 7560, Note_on_c, 0, 77, 0
2, 7584, Note_on_c, 0, 76, 87
2, 7608, Note_on_c, 0, 76, 0
2, 7632, Note_on_c, 0, 77, 88
2, 7656, Note_on_c, 0, 77, 0
2, 7680, Note_on_c, 0, 76, 95
2, 7704, Note_on_c, 0, 76, 0
2, 7728, Note_on_c, 0, 77, 92
2, 7752, Note_on_c, 0, 77, 0
2, 7776, Note_on_c, 0, 79, 93
2, 7800, Note_on_c, 0, 79, 0
2, 7824, Note_on_c, 0, 77, 100
2, 7848, Note_on_c, 0, 77, 0
2, 7872, Note_on_c, 0, 76, 97
2, 7896, Note_on_c, 0, 76, 0
2, 7920, Note_on_c, 0, 77, 98
2, 7944, Note_on_c, 0, 77, 0
2, 7968, Note_on_c, 0, 76, 105
2, 7992, Note_on_c, 0, 76, 0
2, 8016, Note_on_c, 0, 77, 102
2, 8040, Note_on_c, 0, 77, 0
2, 8064, Note_on_c, 0, 79, 104
2, 8088, Note_on_c, 0, 79, 0
2, 8112, Note_on_c, 0, 81, 110
2, 8147, Note_on_c, 0, 81, 0
2, 8184, Note_on_c, 0, 69, 108
2, 8196, Note_on_c, 0, 69, 0
2, 8208, Note_on_c, 0, 69, 109
2, 8232, Note_on_c, 0, 69, 0
2, 8256, Note_on_c, 0, 62, 102
2, 8261, Note_on_c, 0, 69, 106
2, 8264, Note_on_c, 0, 81, 115
2, 8280, Note_on_c, 0, 62, 0
2, 8285, Note_on_c, 0, 69, 0
2, 8288, Note_on_c, 0, 81, 0
2, 8330, Note_on_c, 0, 69, 110
2, 8342, Note_on_c, 0, 69, 0
2, 8354, Note_on_c, 0, 69, 110
2, 8378, Note_on_c, 0, 69, 0
2, 8402, Note_on_c, 0, 74, 115
2, 8426, Note_on_c, 0, 74, 0
2, 8450, Note_on_c, 0, 76, 110
2, 8474, Note_on_c, 0, 76, 0
2, 8498, Note_on_c, 0, 77, 110
2, 8522, Note_on_c, 0, 77, 0
2, 8546, Note_on_c, 0, 76, 115
2, 8570, Note_on_c, 0, 76, 0
2, 8594, Note_on_c, 0, 77, 110
2, 8618, Note_on_c, 0, 77, 0
2, 8642, Note_on_c, 0, 79, 110
2, 8666, Note_on_c, 0, 79, 0
2, 8690, Note_on_c, 0, 77, 115
2, 8714, Note_on_c, 0, 77, 0
2, 8738, Note_on_c, 0, 76, 110
2, 8762, Note_on_c, 0, 76, 0
2, 8786, Note_on_c, 0, 74, 110
2, 8810, Note_on_c, 0, 74, 0
2, 8834, Note_on_c, 0, 82, 115
2, 8858, Note_on_c, 0, 82, 0
2, 8882, Note_on_c, 0, 81, 110
2, 8906, Note_on_c, 0, 81, 0
2, 8930, Note_on_c, 0, 79, 110
2, 8954, Note_on_c, 0, 79, 0
2, 8978, Note_on_c, 0, 77, 115
2, 9002, Note_on_c, 0, 77, 0
2, 9026, Note_on_c, 0, 76, 110
2, 9050, Note_on_c, 0, 76, 0
2, 9074, Note_on_c, 0, 74, 110
2, 9098, Note_on_c, 0, 74, 0
2, 9122, Note_on_c, 0, 73, 115
2, 9146, Note_on_c, 0, 73, 0
2, 9170, Note_on_c, 0, 74, 110
2, 9194, Note_on_c, 0, 74, 0
2, 9218, Note_on_c, 0, 76, 110
2, 9242, Note_on_c, 0, 76, 0
2, 9266, Note_on_c, 0, 74, 115
2, 9290, Note_on_c, 0, 74, 0
2, 9314, Note_on_c, 0, 73, 110
2, 9338, Note_on_c, 0, 73, 0
2, 9362, Note_on_c, 0, 74, 110
2, 9386, Note_on_c, 0, 74, 0
2, 9410, Note_on_c, 0, 82, 115
2, 9434, Note_on_c, 0, 82, 0
2, 9458, Note_on_c, 0, 81, 110
2, 9482, Note_on_c, 0, 81, 0
2, 9506, Note_on_c, 0, 79, 110
2, 9530, Note_on_c, 0, 79, 0
2, 9554, Note_on_c, 0, 77, 115
2, 9578, Note_on_c, 0, 77, 0
2, 9602, Note_on_c, 0, 76, 110
2, 9626, Note_on_c, 0, 76, 0
2, 9650, Note_on_c, 0, 74, 110
2, 9674, Note_on_c, 0, 74, 0
2, 9698, Note_on_c, 0, 73, 115
2, 9722, Note_on_c, 0, 73, 0
2, 9746, Note_on_c, 0, 74, 110
2, 9770, Note_on_c, 0, 74, 0
2, 9794, Note_on_c, 0, 76, 110
2, 9818, Note_on_c, 0, 76, 0
2, 9842, Note_on_c, 0, 74, 115
2, 9866, Note_on_c, 0, 74, 0
2, 9890, Note_on_c, 0, 73, 110
2, 9914, Note_on_c, 0, 73, 0
2, 9938, Note_on_c, 0, 74, 110
2, 9962, Note_on_c, 0, 74, 0
2, 9986, Note_on_c, 0, 81, 115
2, 10010, Note_on_c, 0, 81, 0
2, 10034, Note_on_c, 0, 79, 110
2, 10058, Note_on_c, 0, 79, 0
2, 10082, Note_on_c, 0, 77, 110
2, 10106, Note_on_c, 0, 77, 0
2, 10130, Note_on_c, 0, 76, 115
2, 10154, Note_on_c, 0, 76, 0
2, 10178, Note_on_c, 0, 74, 110
2, 10202, Note_on_c, 0, 74, 0
2, 10226, Note_on_c, 0, 72, 110
2, 10250, Note_on_c, 0, 72, 0
2, 10274, Note_on_c, 0, 71, 115
2, 10298, Note_on_c, 0, 71, 0
2, 10322, Note_on_c, 0, 72, 110
2, 10346, Note_on_c, 0, 72, 0
2, 10370, Note_on_c, 0, 74, 110
2, 10394, Note_on_c, 0, 74, 0
2, 10418, Note_on_c, 0, 72, 110
2, 10442, Note_on_c, 0, 72, 0
2, 10466, Note_on_c, 0, 81, 118
2, 10490, Note_on_c, 0, 81, 0
2, 10514, Note_on_c, 0, 81, 118
2, 10538, Note_on_c, 0, 81, 0
2, 10562, Note_on_c, 0, 81, 115
2, 10586, Note_on_c, 0, 81, 0
2, 10610, Note_on_c, 0, 79, 110
2, 10634, Note_on_c, 0, 79, 0
2, 10658, Note_on_c, 0, 77, 110
2, 10682, Note_on_c, 0, 77, 0
2, 10706, Note_on_c, 0, 76, 115
2, 10730, Note_on_c, 0, 76, 0
2, 10754, Note_on_c, 0, 74, 110
2, 10778, Note_on_c, 0, 74, 0
2, 10802, Note_on_c, 0, 72, 110
2, 10826, Note_on_c, 0, 72, 0
2, 10850, Note_on_c, 0, 79, 115
2, 10874, Note_on_c, 0, 79, 0
2, 10898, Note_on_c, 0, 77, 110
2, 10922, Note_on_c, 0, 77, 0
2, 10946, Note_on_c, 0, 76, 110
2, 10970, Note_on_c, 0, 76, 0
2, 10994, Note_on_c, 0, 88, 115
2, 11018, Note_on_c, 0, 88, 0
2, 11042, Note_on_c, 0, 86, 110
2, 11066, Note_on_c, 0, 86, 0
2, 11090, Note_on_c, 0, 84, 110
2, 11114, Note_on_c, 0, 84, 0
2, 11138, Note_on_c, 0, 67, 102
2, 11141, Note_on_c, 0, 74, 106
2, 11144, Note_on_c, 0, 83, 110
2, 11162, Note_on_c, 0, 67, 0
2, 11165, Note_on_c, 0, 74, 0
2, 11168, Note_on_c, 0, 83, 0
2, 11424, Note_on_c, 0, 81, 69
2, 11459, Note_on_c, 0, 81, 0
2, 11496, Note_on_c, 0, 69, 74
2, 11508, Note_on_c, 0, 69, 0
2, 11520, Note_on_c, 0, 69, 76
2, 11544, Note_on_c, 0, 69, 0
2, 11568, Note_on_c, 0, 86, 79
2, 11603, Note_on_c, 0, 86, 0
2, 11640, Note_on_c, 0, 74, 84
2, 11652, Note_on_c, 0, 74, 0
2, 11664, Note_on_c, 0, 74, 85
2, 11688, Note_on_c, 0, 74, 0
2, 11712, Note_on_c, 0, 86, 89
2, 11747, Note_on_c, 0, 86, 0
2, 11784, Note_on_c, 0, 74, 93
2, 11796, Note_on_c, 0, 74, 0
2, 11808, Note_on_c, 0, 74, 95
2, 11832, Note_on_c, 0, 74, 0
2, 11856, Note_on_c, 0, 84, 100
2, 11891, Note_on_c, 0, 84, 0
2, 11928, Note_on_c, 0, 72, 93
2, 11940, Note_on_c, 0, 72, 0
2, 11952, Note_on_c, 0, 72, 91
2, 11976, Note_on_c, 0, 72, 0
2, 12000, Note_on_c, 0, 84, 86
2, 12035, Note_on_c, 0, 84, 0
2, 12072, Note_on_c, 0, 72, 78
2, 12084, Note_on_c, 0, 72, 0
2, 12096, Note_on_c, 0, 72, 76
2, 12120, Note_on_c, 0, 72, 0
2, 12144, Note_on_c, 0, 83, 71
2, 12179, Note_on_c, 0, 83, 0
2, 12216, Note_on_c, 0, 71, 64
2, 12228, Note_on_c, 0, 71, 0
2, 12240, Note_on_c, 0, 71, 61
2, 12264, Note_on_c, 0, 71, 0
2, 12720, Note_on_c, 0, 86, 69
2, 12755, Note_on_c, 0, 86, 0
2, 12792, Note_on_c, 0, 74, 73
2, 12804, Note_on_c, 0, 74, 0
2, 12816, Note_on_c, 0, 74, 75
2, 12840, Note_on_c, 0, 74, 0
2, 12864, Note_on_c, 0, 86, 78
2, 12899, Note_on_c, 0, 86, 0
2, 12936, Note_on_c, 0, 74, 82
2, 12948, Note_on_c, 0, 74, 0
2, 12960, Note_on_c, 0, 74, 84
2, 12984, Note_on_c, 0, 74, 0
2, 13008, Note_on_c, 0, 84, 87
2, 13043, Note_on_c, 0, 84, 0
2, 13080, Note_on_c, 0, 72, 91
2, 13092, Note_on_c, 0, 72, 0
2, 13104, Note_on_c, 0, 72, 93
2, 13128, Note_on_c, 0, 72, 0
2, 13152, Note_on_c, 0, 84, 96
2, 13187, Note_on_c, 0, 84, 0
2, 13224, Note_on_c, 0, 72, 101
2, 13236, Note_on_c, 0, 72, 0
2, 13248, Note_on_c, 0, 72, 102
2, 13272, Note_on_c, 0, 72, 0
2, 13296, Note_on_c, 0, 83, 105
2, 13331, Note_on_c, 0, 83, 0
2, 13368, Note_on_c, 0, 71, 110
2, 13380, Note_on_c, 0, 71, 0
2, 13392, Note_on_c, 0, 71, 111
2, 13416, Note_on_c, 0, 71, 0
2, 13440, Note_on_c, 0, 84, 120
2, 13475, Note_on_c, 0, 84, 0
2, 13512, Note_on_c, 0, 72, 113
2, 13524, Note_on_c, 0, 72, 0
2, 13536, Note_on_c, 0, 72, 113
2, 13560, Note_on_c, 0, 72, 0
2, 13584, Note_on_c, 0, 84, 120
2, 13619, Note_on_c, 0, 84, 0
2, 13656, Note_on_c, 0, 72, 113
2, 13668, Note_on_c, 0, 72, 0
2, 13680, Note_on_c, 0, 72, 113
2, 13704, Note_on_c, 0, 72, 0
2, 13728, Note_on_c, 0, 84, 120
2, 13763, Note_on_c, 0, 84, 0
2, 13800, Note_on_c, 0, 72, 113
2, 13812, Note_on_c, 0, 72, 0
2, 13824, Note_on_c, 0, 72, 113
2, 13848, Note_on_c, 0, 72, 0
2, 13872, Note_on_c, 0, 84, 120
2, 13907, Note_on_c, 0, 84, 0
2, 13944, Note_on_c, 0, 72, 113
2, 13956, Note_on_c, 0, 72, 0
2, 13968, Note_on_c, 0, 72, 113
2, 13992, Note_on_c, 0, 72, 0
2, 14016, Note_on_c, 0, 84, 120
2, 14051, Note_on_c, 0, 84, 0
2, 14088, Note_on_c, 0, 72, 113
2, 14100, Note_on_c, 0, 72, 0
2, 14112, Note_on_c, 0, 72, 113
2, 14136, Note_on_c, 0, 72, 0
2, 14160, Note_on_c, 0, 84, 120
2, 14195, Note_on_c, 0, 84, 0
2, 14232, Note_on_c, 0, 72, 113
2, 14244, Note_on_c, 0, 72, 0
2, 14256, Note_on_c, 0, 72, 113
2, 14280, Note_on_c, 0, 72, 0
2, 14304, Note_on_c, 0, 84, 120
2, 14339, Note_on_c, 0, 84, 0
2, 14376, Note_on_c, 0, 72, 113
2, 14388, Note_on_c, 0, 72, 0
2, 14400, Note_on_c, 0, 72, 113
2, 14424, Note_on_c, 0, 72, 0
2, 14448, Note_on_c, 0, 84, 120
2, 14483, Note_on_c, 0, 84, 0
2, 14520, Note_on_c, 0, 72, 113
2, 14532, Note_on_c, 0, 72, 0
2, 14544, Note_on_c, 0, 72, 113
2, 14568, Note_on_c, 0, 72, 0
2, 14592, Note_on_c, 0, 84, 120
2, 14627, Note_on_c, 0, 84, 0
2, 14664, Note_on_c, 0, 72, 113
2, 14676, Note_on_c, 0, 72, 0
2, 14688, Note_on_c, 0, 72, 113
2, 14712, Note_on_c, 0, 72, 0
2, 14736, Note_on_c, 0, 84, 120
2, 14771, Note_on_c, 0, 84, 0
2, 14808, Note_on_c, 0, 72, 113
2, 14820, Note_on_c, 0, 72, 0
2, 14832, Note_on_c, 0, 72, 113
2, 14856, Note_on_c, 0, 72, 0
2, 14880, Note_on_c, 0, 84, 120
2, 14915, Note_on_c, 0, 84, 0
2, 14952, Note_on_c, 0, 72, 113
2, 14964, Note_on_c, 0, 72, 0
2, 14976, Note_on_c, 0, 72, 113
2, 15000, Note_on_c, 0, 72, 0
2, 15024, Note_on_c, 0, 84, 120
2, 15059, Note_on_c, 0, 84, 0
2, 15096, Note_on_c, 0, 72, 113
2, 15108, Note_on_c, 0, 72, 0
2, 15120, Note_on_c, 0, 72, 113
2, 15144, Note_on_c, 0, 72, 0
2, 15168, Note_on_c, 0, 84, 120
2, 15203, Note_on_c, 0, 84, 0
2, 15240, Note_on_c, 0, 72, 113
2, 15252, Note_on_c, 0, 72, 0
2, 15264, Note_on_c, 0, 72, 113
2, 15288, Note_on_c, 0, 72, 0
2, 15312, Note_on_c, 0, 84, 120
2, 15347, Note_on_c, 0, 84, 0
2, 15384, Note_on_c, 0, 72, 113
2, 15396, Note_on_c, 0, 72, 0
2, 15408, Note_on_c, 0, 72, 113
2, 15432, Note_on_c, 0, 72, 0
2, 15456, Note_on_c, 0, 84, 120
2, 15491, Note_on_c, 0, 84, 0
2, 15528, Note_on_c, 0, 72, 113
2, 15540, Note_on_c, 0, 72, 0
2, 15552, Note_on_c, 0, 72, 113
2, 15576, Note_on_c, 0, 72, 0
2, 15600, Note_on_c, 0, 84, 120
2, 15635, Note_on_c, 0, 84, 0
2, 15672, Note_on_c, 0, 72, 113
2, 15684, Note_on_c, 0, 72, 0
2, 15696, Note_on_c, 0, 72, 113
2, 15720, Note_on_c, 0, 72, 0
2, 15744, Note_on_c, 0, 84, 113
2, 15768, Note_on_c, 0, 84, 0
2, 16032, Note_on_c, 0, 81, 120
2, 16067, Note_on_c, 0, 81, 0
2, 16104, Note_on_c, 0, 69, 113
2, 16116, Note_on_c, 0, 69, 0
2, 16128, Note_on_c, 0, 69, 113
2, 16152, Note_on_c, 0, 69, 0
2, 16176, Note_on_c, 0, 81, 117
2, 16200, Note_on_c, 0, 81, 0
2, 16224, Note_on_c, 0, 77, 113
2, 16248, Note_on_c, 0, 77, 0
2, 16272, Note_on_c, 0, 76, 113
2, 16296, Note_on_c, 0, 76, 0
2, 16320, Note_on_c, 0, 74, 113
2, 16344, Note_on_c, 0, 74, 0
2, 16608, Note_on_c, 0, 79, 120
2, 16643, Note_on_c, 0, 79, 0
2, 16680, Note_on_c, 0, 67, 113
2, 16692, Note_on_c, 0, 67, 0
2, 16704, Note_on_c, 0, 67, 113
2, 16728, Note_on_c, 0, 67, 0
2, 16752, Note_on_c, 0, 79, 117
2, 16776, Note_on_c, 0, 79, 0
2, 16800, Note_on_c, 0, 76, 113
2, 16824, Note_on_c, 0, 76, 0
2, 16848, Note_on_c, 0, 74, 113
2, 16872, Note_on_c, 0, 74, 0
2, 16896, Control_c, 0, 11, 60
2, 16896, Note_on_c, 0, 72, 113
2, 17088, Note_on_c, 0, 72, 0
2, 17088, Note_on_c, 0, 74, 113
2, 17136, Note_on_c, 0, 74, 0
2, 17136, Note_on_c, 0, 76, 113
2, 17184, Note_on_c, 0, 76, 0
2, 17184, Control_c, 0, 11, 60
2, 17184, Note_on_c, 0, 77, 113
2, 17199, Control_c, 0, 11, 61
2, 17213, Control_c, 0, 11, 62
2, 17228, Control_c, 0, 11, 63
2, 17242, Control_c, 0, 11, 64
2, 17256, Control_c, 0, 11, 65
2, 17271, Control_c, 0, 11, 66
2, 17285, Control_c, 0, 11, 67
2, 17299, Control_c, 0, 11, 68
2, 17314, Control_c, 0, 11, 69
2, 17328, Note_on_c, 0, 76, 113
2, 17328, Control_c, 0, 11, 70
2, 17329, Note_on_c, 0, 77, 0
2, 17342, Control_c, 0, 11, 71
2, 17357, Control_c, 0, 11, 72
2, 17371, Control_c, 0, 11, 73
2, 17385, Control_c, 0, 11, 74
2, 17400, Control_c, 0, 11, 75
2, 17414, Control_c, 0, 11, 76
2, 17428, Control_c, 0, 11, 77
2, 17443, Control_c, 0, 11, 78
2, 17457, Control_c, 0, 11, 79
2, 17471, Control_c, 0, 11, 80
2, 17472, Note_on_c, 0, 76, 0
2, 17472, Control_c, 0, 11, 80
2, 17472, Note_on_c, 0, 76, 113
2, 17487, Control_c, 0, 11, 79
2, 17501, Control_c, 0, 11, 78
2, 17516, Control_c, 0, 11, 77
2, 17530, Control_c, 0, 11, 76
2, 17544, Control_c, 0, 11, 75
2, 17559, Control_c, 0, 11, 74
2, 17573, Control_c, 0, 11, 73
2, 17587, Control_c, 0, 11, 72
2, 17602, Control_c, 0, 11, 71
2, 17616, Control_c, 0, 11, 70
2, 17630, Control_c, 0, 11, 69
2, 17645, Control_c, 0, 11, 68
2, 17659, Control_c, 0, 11, 67
2, 17664, Note_on_c, 0, 76, 0
2, 17664, Note_on_c, 0, 74, 113
2, 17673, Control_c, 0, 11, 66
2, 17688, Control_c, 0, 11, 65
2, 17702, Control_c, 0, 11, 64
2, 17712, Note_on_c, 0, 74, 0
2, 17712, Note_on_c, 0, 72, 113
2, 17716, Control_c, 0, 11, 63
2, 17731, Control_c, 0, 11, 62
2, 17745, Control_c, 0, 11, 61
2, 17759, Control_c, 0, 11, 60
2, 17760, Note_on_c, 0, 72, 0
2, 18624, Control_c, 0, 11, 120
2, 18624, Note_on_c, 0, 88, 105
2, 18648, Note_on_c, 0, 88, 0
2, 18672, Note_on_c, 0, 84, 100
2, 18696, Note_on_c, 0, 84, 0
2, 18720, Note_on_c, 0, 89, 100
2, 18744, Note_on_c, 0, 89, 0
2, 18768, Note_on_c, 0, 86, 105
2, 18792, Note_on_c, 0, 86, 0
2, 18816, Note_on_c, 0, 83, 100
2, 18840, Note_on_c, 0, 83, 0
2, 18864, Note_on_c, 0, 88, 100
2, 18888, Note_on_c, 0, 88, 0
2, 18912, Note_on_c, 0, 84, 105
2, 18936, Note_on_c, 0, 84, 0
2, 19200, Note_on_c, 0, 88, 105
2, 19224, Note_on_c, 0, 88, 0
2, 19248, Note_on_c, 0, 84, 100
2, 19272, Note_on_c, 0, 84, 0
2, 19296, Note_on_c, 0, 89, 100
2, 19320, Note_on_c, 0, 89, 0
2, 19344, Note_on_c, 0, 86, 105
2, 19368, Note_on_c, 0, 86, 0
2, 19392, Note_on_c, 0, 83, 100
2, 19416, Note_on_c, 0, 83, 0
2, 19440, Note_on_c, 0, 88, 100
2, 19464, Note_on_c, 0, 88, 0
2, 19488, Note_on_c, 0, 84, 107
2, 19523, Note_on_c, 0, 84, 0
2, 19562, Note_on_c, 0, 72, 100
2, 19574, Note_on_c, 0, 72, 0
2, 19586, Note_on_c, 0, 72, 100
2, 19610, Note_on_c, 0, 72, 0
2, 19634, Note_on_c, 0, 67, 95
2, 19658, Note_on_c, 0, 67, 0
2, 19778, Note_on_c, 0, 84, 107
2, 19813, Note_on_c, 0, 84, 0
2, 19850, Note_on_c, 0, 72, 100
2, 19862, Note_on_c, 0, 72, 0
2, 19874, Note_on_c, 0, 72, 100
2, 19898, Note_on_c, 0, 72, 0
2, 19922, Note_on_c, 0, 67, 95
2, 19946, Note_on_c, 0, 67, 0
2, 20058, Control_c, 0, 6, 64
2, 20064, Note_on_c, 0, 77, 57
2, 20112, Note_on_c, 0, 77, 0
2, 20112, Note_on_c, 0, 76, 56
2, 20160, Note_on_c, 0, 76, 0
2, 20160, Note_on_c, 0, 74, 54
2, 20208, Note_on_c, 0, 74, 0
2, 20208, Note_on_c, 0, 72, 53
2, 20256, Note_on_c, 0, 72, 0
2, 20256, Note_on_c, 0, 71, 51
2, 20304, Note_on_c, 0, 71, 0
2, 20304, Note_on_c, 0, 69, 50
2, 20352, Note_on_c, 0, 69, 0
2, 20352, Note_on_c, 0, 67, 47
2, 20400, Note_on_c, 0, 67, 0
2, 20400, Note_on_c, 0, 69, 50
2, 20448, Note_on_c, 0, 69, 0
2, 20448, Note_on_c, 0, 67, 47
2, 20496, Note_on_c, 0, 67, 0
2, 20496, Note_on_c, 0, 65, 45
2, 20544, Note_on_c, 0, 65, 0
2, 20544, Note_on_c, 0, 64, 45
2, 20592, Note_on_c, 0, 64, 0
2, 20592, Note_on_c, 0, 62, 45
2, 20616, Note_on_c, 0, 62, 0
2, 20616, Note_on_c, 0, 71, 50
2, 20640, Note_on_c, 0, 71, 0
2, 20640, Control_c, 0, 6, 14
2, 20640, Note_on_c, 0, 72, 60
2, 20675, Note_on_c, 0, 72, 0
2, 20712, Note_on_c, 0, 60, 50
2, 20724, Note_on_c, 0, 60, 0
2, 20736, Note_on_c, 0, 60, 50
2, 20760, Note_on_c, 0, 60, 0
2, 20784, Note_on_c, 0, 60, 55
2, 20808, Note_on_c, 0, 60, 0
2, 20928, Note_on_c, 0, 72, 60
2, 20963, Note_on_c, 0, 72, 0
2, 21000, Note_on_c, 0, 60, 50
2, 21012, Note_on_c, 0, 60, 0
2, 21024, Note_on_c, 0, 60, 50
2, 21048, Note_on_c, 0, 60, 0
2, 21072, Note_on_c, 0, 62, 55
2, 21096, Note_on_c, 0, 62, 0
2, 23520, Note_on_c, 0, 86, 60
2, 23555, Note_on_c, 0, 86, 0
2, 23592, Note_on_c, 0, 74, 50
2, 23604, Note_on_c, 0, 74, 0
2, 23616, Note_on_c, 0, 74, 50
2, 23640, Note_on_c, 0, 74, 0
2, 23664, Note_on_c, 0, 81, 55
2, 23688, Note_on_c, 0, 81, 0
2, 23712, Note_on_c, 0, 83, 50
2, 23736, Note_on_c, 0, 83, 0
2, 23760, Note_on_c, 0, 84, 50
2, 23784, Note_on_c, 0, 84, 0
2, 23808, Note_on_c, 0, 83, 55
2, 23832, Note_on_c, 0, 83, 0
2, 23856, Note_on_c, 0, 84, 50
2, 23880, Note_on_c, 0, 84, 0
2, 23904, Note_on_c, 0, 86, 50
2, 23928, Note_on_c, 0, 86, 0
2, 23952, Note_on_c, 0, 84, 55
2, 23976, Note_on_c, 0, 84, 0
2, 24000, Note_on_c, 0, 83, 50
2, 24024, Note_on_c, 0, 83, 0
2, 24048, Note_on_c, 0, 81, 50
2, 24072, Note_on_c, 0, 81, 0
2, 24096, Note_on_c, 0, 82, 55
2, 24120, Note_on_c, 0, 82, 0
2, 24144, Note_on_c, 0, 81, 50
2, 24168, Note_on_c, 0, 81, 0
2, 24192, Note_on_c, 0, 79, 50
2, 24216, Note_on_c, 0, 79, 0
2, 24240, Note_on_c, 0, 77, 55
2, 24264, Note_on_c, 0, 77, 0
2, 24288, Note_on_c, 0, 76, 50
2, 24312, Note_on_c, 0, 76, 0
2, 24336, Note_on_c, 0, 74, 50
2, 24360, Note_on_c, 0, 74, 0
2, 24384, Note_on_c, 0, 73, 55
2, 24408, Note_on_c, 0, 73, 0
2, 24432, Note_on_c, 0, 74, 50
2, 24456, Note_on_c, 0, 74, 0
2, 24480, Note_on_c, 0, 76, 50
2, 24504, Note_on_c, 0, 76, 0
2, 24528, Note_on_c, 0, 74, 55
2, 24552, Note_on_c, 0, 74, 0
2, 24576, Note_on_c, 0, 73, 50
2, 24600, Note_on_c, 0, 73, 0
2, 24624, Note_on_c, 0, 74, 50
2, 24648, Note_on_c, 0, 74, 0
2, 24672, Note_on_c, 0, 69, 55
2, 24696, Note_on_c, 0, 69, 0
2, 24720, Note_on_c, 0, 81, 50
2, 24744, Note_on_c, 0, 81, 0
2, 24768, Note_on_c, 0, 81, 50
2, 24792, Note_on_c, 0, 81, 0
2, 24816, Note_on_c, 0, 81, 55
2, 24840, Note_on_c, 0, 81, 0
2, 24864, Note_on_c, 0, 88, 50
2, 24888, Note_on_c, 0, 88, 0
2, 24912, Note_on_c, 0, 88, 50
2, 24936, Note_on_c, 0, 88, 0
2, 24960, Note_on_c, 0, 88, 55
2, 24984, Note_on_c, 0, 88, 0
2, 25008, Note_on_c, 0, 88, 50
2, 25032, Note_on_c, 0, 88, 0
2, 25056, Note_on_c, 0, 88, 50
2, 25080, Note_on_c, 0, 88, 0
2, 25104, Note_on_c, 0, 88, 55
2, 25128, Note_on_c, 0, 88, 0
2, 25152, Note_on_c, 0, 88, 50
2, 25176, Note_on_c, 0, 88, 0
2, 25200, Note_on_c, 0, 81, 50
2, 25224, Note_on_c, 0, 81, 0
2, 25248, Note_on_c, 0, 81, 55
2, 25272, Note_on_c, 0, 81, 0
2, 25296, Note_on_c, 0, 81, 50
2, 25320, Note_on_c, 0, 81, 0
2, 25344, Note_on_c, 0, 81, 50
2, 25368, Note_on_c, 0, 81, 0
2, 25392, Note_on_c, 0, 81, 55
2, 25416, Note_on_c, 0, 81, 0
2, 25440, Note_on_c, 0, 81, 50
2, 25464, Note_on_c, 0, 81, 0
2, 25488, Note_on_c, 0, 81, 50
2, 25512, Note_on_c, 0, 81, 0
2, 25536, Note_on_c, 0, 82, 55
2, 25560, Note_on_c, 0, 82, 0
2, 25584, Note_on_c, 0, 81, 50
2, 25608, Note_on_c, 0, 81, 0
2, 25632, Note_on_c, 0, 79, 50
2, 25656, Note_on_c, 0, 79, 0
2, 25680, Note_on_c, 0, 77, 55
2, 25704, Note_on_c, 0, 77, 0
2, 25728, Note_on_c, 0, 76, 50
2, 25752, Note_on_c, 0, 76, 0
2, 25776, Note_on_c, 0, 74, 50
2, 25800, Note_on_c, 0, 74, 0
2, 25824, Note_on_c, 0, 77, 55
2, 25848, Note_on_c, 0, 77, 0
2, 25872, Note_on_c, 0, 76, 50
2, 25896, Note_on_c, 0, 76, 0
2, 25920, Note_on_c, 0, 74, 50
2, 25944, Note_on_c, 0, 74, 0
2, 25968, Note_on_c, 0, 72, 55
2, 25992, Note_on_c, 0, 72, 0
2, 26016, Note_on_c, 0, 71, 50
2, 26040, Note_on_c, 0, 71, 0
2, 26064, Note_on_c, 0, 69, 50
2, 26088, Note_on_c, 0, 69, 0
2, 26112, Note_on_c, 0, 68, 55
2, 26136, Note_on_c, 0, 68, 0
2, 26160, Note_on_c, 0, 69, 50
2, 26184, Note_on_c, 0, 69, 0
2, 26208, Note_on_c, 0, 71, 50
2, 26232, Note_on_c, 0, 71, 0
2, 26256, Note_on_c, 0, 69, 55
2, 26280, Note_on_c, 0, 69, 0
2, 26304, Note_on_c, 0, 68, 50
2, 26328, Note_on_c, 0, 68, 0
2, 26352, Note_on_c, 0, 69, 50
2, 26376, Note_on_c, 0, 69, 0
2, 26400, Note_on_c, 0, 73, 55
2, 26424, Note_on_c, 0, 73, 0
2, 26448, Note_on_c, 0, 74, 50
2, 26472, Note_on_c, 0, 74, 0
2, 26496, Note_on_c, 0, 76, 50
2, 26520, Note_on_c, 0, 76, 0
2, 26544, Note_on_c, 0, 77, 55
2, 26568, Note_on_c, 0, 77, 0
2, 26592, Note_on_c, 0, 79, 50
2, 26616, Note_on_c, 0, 79, 0
2, 26640, Note_on_c, 0, 81, 50
2, 26664, Note_on_c, 0, 81, 0
2, 26688, Note_on_c, 0, 82, 55
2, 26712, Note_on_c, 0, 82, 0
2, 26736, Note_on_c, 0, 81, 50
2, 26760, Note_on_c, 0, 81, 0
2, 26784, Note_on_c, 0, 79, 50
2, 26808, Note_on_c, 0, 79, 0
2, 26832, Note_on_c, 0, 77, 55
2, 26856, Note_on_c, 0, 77, 0
2, 26880, Note_on_c, 0, 76, 50
2, 26904, Note_on_c, 0, 76, 0
2, 26928, Note_on_c, 0, 74, 50
2, 26952, Note_on_c, 0, 74, 0
2, 26976, Note_on_c, 0, 73, 55
2, 27000, Note_on_c, 0, 73, 0
2, 27024, Note_on_c, 0, 74, 51
2, 27048, Note_on_c, 0, 74, 0
2, 27072, Note_on_c, 0, 76, 53
2, 27096, Note_on_c, 0, 76, 0
2, 27120, Note_on_c, 0, 74, 60
2, 27144, Note_on_c, 0, 74, 0
2, 27168, Note_on_c, 0, 73, 56
2, 27192, Note_on_c, 0, 73, 0
2, 27216, Note_on_c, 0, 74, 58
2, 27240, Note_on_c, 0, 74, 0
2, 27264, Note_on_c, 0, 73, 65
2, 27288, Note_on_c, 0, 73, 0
2, 27312, Note_on_c, 0, 74, 61
2, 27336, Note_on_c, 0, 74, 0
2, 27360, Note_on_c, 0, 76, 63
2, 27384, Note_on_c, 0, 76, 0
2, 27408, Note_on_c, 0, 74, 70
2, 27432, Note_on_c, 0, 74, 0
2, 27456, Note_on_c, 0, 73, 66
2, 27480, Note_on_c, 0, 73, 0
2, 27504, Note_on_c, 0, 74, 68
2, 27528, Note_on_c, 0, 74, 0
2, 27552, Note_on_c, 0, 73, 75
2, 27576, Note_on_c, 0, 73, 0
2, 27600, Note_on_c, 0, 74, 71
2, 27624, Note_on_c, 0, 74, 0
2, 27648, Note_on_c, 0, 76, 73
2, 27672, Note_on_c, 0, 76, 0
2, 27696, Note_on_c, 0, 74, 80
2, 27720, Note_on_c, 0, 74, 0
2, 27744, Note_on_c, 0, 73, 77
2, 27768, Note_on_c, 0, 73, 0
2, 27792, Note_on_c, 0, 74, 78
2, 27816, Note_on_c, 0, 74, 0
2, 27840, Note_on_c, 0, 76, 85
2, 27864, Note_on_c, 0, 76, 0
2, 27888, Note_on_c, 0, 77, 82
2, 27912, Note_on_c, 0, 77, 0
2, 27936, Note_on_c, 0, 79, 83
2, 27960, Note_on_c, 0, 79, 0
2, 27984, Note_on_c, 0, 77, 90
2, 28008, Note_on_c, 0, 77, 0
2, 28032, Note_on_c, 0, 76, 87
2, 28056, Note_on_c, 0, 76, 0
2, 28080, Note_on_c, 0, 77, 88
2, 28104, Note_on_c, 0, 77, 0
2, 28128, Note_on_c, 0, 76, 95
2, 28152, Note_on_c, 0, 76, 0
2, 28176, Note_on_c, 0, 77, 92
2, 28200, Note_on_c, 0, 77, 0
2, 28224, Note_on_c, 0, 79, 93
2, 28248, Note_on_c, 0, 79, 0
2, 28272, Note_on_c, 0, 77, 100
2, 28296, Note_on_c, 0, 77, 0
2, 28320, Note_on_c, 0, 76, 97
2, 28344, Note_on_c, 0, 76, 0
2, 28368, Note_on_c, 0, 77, 98
2, 28392, Note_on_c, 0, 77, 0
2, 28416, Note_on_c, 0, 76, 105
2, 28440, Note_on_c, 0, 76, 0
2, 28464, Note_on_c, 0, 77, 102
2, 28488, Note_on_c, 0, 77, 0
2, 28512, Note_on_c, 0, 79, 104
2, 28536, Note_on_c, 0, 79, 0
2, 28560, Note_on_c, 0, 81, 110
2, 28595, Note_on_c, 0, 81, 0
2, 28632, Note_on_c, 0, 69, 108
2, 28644, Note_on_c, 0, 69, 0
2, 28656, Note_on_c, 0, 69, 109
2, 28680, Note_on_c, 0, 69, 0
2, 28704, Note_on_c, 0, 62, 102
2, 28709, Note_on_c, 0, 69, 106
2, 28712, Note_on_c, 0, 81, 115
2, 28728, Note_on_c, 0, 62, 0
2, 28733, Note_on_c, 0, 69, 0
2, 28736, Note_on_c, 0, 81, 0
2, 28778, Note_on_c, 0, 69, 110
2, 28790, Note_on_c, 0, 69, 0
2, 28802, Note_on_c, 0, 69, 110
2, 28826, Note_on_c, 0, 69, 0
2, 28850, Note_on_c, 0, 74, 115
2, 28874, Note_on_c, 0, 74, 0
2, 28898, Note_on_c, 0, 76, 110
2, 28922, Note_on_c, 0, 76, 0
2, 28946, Note_on_c, 0, 77, 110
2, 28970, Note_on_c, 0, 77, 0
2, 28994, Note_on_c, 0, 76, 115
2, 29018, Note_on_c, 0, 76, 0
2, 29042, Note_on_c, 0, 77, 110
2, 29066, Note_on_c, 0, 77, 0
2, 29090, Note_on_c, 0, 79, 110
2, 29114, Note_on_c, 0, 79, 0
2, 29138, Note_on_c, 0, 77, 115
2, 29162, Note_on_c, 0, 77, 0
2, 29186, Note_on_c, 0, 76, 110
2, 29210, Note_on_c, 0, 76, 0
2, 29234, Note_on_c, 0, 74, 110
2, 29258, Note_on_c, 0, 74, 0
2, 29282, Note_on_c, 0, 82, 115
2, 29306, Note_on_c, 0, 82, 0
2, 29330, Note_on_c, 0, 81, 110
2, 29354, Note_on_c, 0, 81, 0
2, 29378, Note_on_c, 0, 79, 110
2, 29402, Note_on_c, 0, 79, 0
2, 29426, Note_on_c, 0, 77, 115
2, 29450, Note_on_c, 0, 77, 0
2, 29474, Note_on_c, 0, 76, 110
2, 29498, Note_on_c, 0, 76, 0
2, 29522, Note_on_c, 0, 74, 110
2, 29546, Note_on_c, 0, 74, 0
2, 29570, Note_on_c, 0, 73, 115
2, 29594, Note_on_c, 0, 73, 0
2, 29618, Note_on_c, 0, 74, 110
2, 29642, Note_on_c, 0, 74, 0
2, 29666, Note_on_c, 0, 76, 110
2, 29690, Note_on_c, 0, 76, 0
2, 29714, Note_on_c, 0, 74, 115
2, 29738, Note_on_c, 0, 74, 0
2, 29762, Note_on_c, 0, 73, 110
2, 29786, Note_on_c, 0, 73, 0
2, 29810, Note_on_c, 0, 74, 110
2, 29834, Note_on_c, 0, 74, 0
2, 29858, Note_on_c, 0, 82, 115
2, 29882, Note_on_c, 0, 82, 0
2, 29906, Note_on_c, 0, 81, 110
2, 29930, Note_on_c, 0, 81, 0
2, 29954, Note_on_c, 0, 79, 110
2, 29978, Note_on_c, 0, 79, 0
2, 30002, Note_on_c, 0, 77, 115
2, 30026, Note_on_c, 0, 77, 0
2, 30050, Note_on_c, 0, 76, 110
2, 30074, Note_on_c, 0, 76, 0
2, 30098, Note_on_c, 0, 74, 110
2, 30122, Note_on_c, 0, 74, 0
2, 30146, Note_on_c, 0, 73, 115
2, 30170, Note_on_c, 0, 73, 0
2, 30194, Note_on_c, 0, 74, 110
2, 30218, Note_on_c, 0, 74, 0
2, 30242, Note_on_c, 0, 76, 110
2, 30266, Note_on_c, 0, 76, 0
2, 30290, Note_on_c, 0, 74, 115
2, 30314, Note_on_c, 0, 74, 0
2, 30338, Note_on_c, 0, 73, 110
2, 30362, Note_on_c, 0, 73, 0
2, 30386, Note_on_c, 0, 74, 110
2, 30410, Note_on_c, 0, 74, 0
2, 30434, Note_on_c, 0, 81, 115
2, 30458, Note_on_c, 0, 81, 0
2, 30482, Note_on_c, 0, 79, 110
2, 30506, Note_on_c, 0, 79, 0
2, 30530, Note_on_c, 0, 77, 110
2, 30554, Note_on_c, 0, 77, 0
2, 30578, Note_on_c, 0, 76, 115
2, 30602, Note_on_c, 0, 76, 0
2, 30626, Note_on_c, 0, 74, 110
2, 30650, Note_on_c, 0, 74, 0
2, 30674, Note_on_c, 0, 72, 110
2, 30698, Note_on_c, 0, 72, 0
2, 30722, Note_on_c, 0, 71, 115
2, 30746, Note_on_c, 0, 71, 0
2, 30770, Note_on_c, 0, 72, 110
2, 30794, Note_on_c, 0, 72, 0
2, 30818, Note_on_c, 0, 74, 110
2, 30842, Note_on_c, 0, 74, 0
2, 30866, Note_on_c, 0, 72, 110
2, 30890, Note_on_c, 0, 72, 0
2, 30914, Note_on_c, 0, 81, 118
2, 30938, Note_on_c, 0, 81, 0
2, 30962, Note_on_c, 0, 81, 118
2, 30986, Note_on_c, 0, 81, 0
2, 31010, Note_on_c, 0, 81, 115
2, 31034, Note_on_c, 0, 81, 0
2, 31058, Note_on_c, 0, 79, 110
2, 31082, Note_on_c, 0, 79, 0
2, 31106, Note_on_c, 0, 77, 110
2, 31130, Note_on_c, 0, 77, 0
2, 31154, Note_on_c, 0, 76, 115
2, 31178, Note_on_c, 0, 76, 0
2, 31202, Note_on_c, 0, 74, 110
2, 31226, Note_on_c, 0, 74, 0
2, 31250, Note_on_c, 0, 72, 110
2, 31274, Note_on_c, 0, 72, 0
2, 31298, Note_on_c, 0, 79, 115
2, 31322, Note_on_c, 0, 79, 0
2, 31346, Note_on_c, 0, 77, 110
2, 31370, Note_on_c, 0, 77, 0
2, 31394, Note_on_c, 0, 76, 110
2, 31418, Note_on_c, 0, 76, 0
2, 31442, Note_on_c, 0, 88, 115
2, 31466, Note_on_c, 0, 88, 0
2, 31490, Note_on_c, 0, 86, 110
2, 31514, Note_on_c, 0, 86, 0
2, 31538, Note_on_c, 0, 84, 110
2, 31562, Note_on_c, 0, 84, 0
2, 31586, Note_on_c, 0, 67, 102
2, 31589, Note_on_c, 0, 74, 106
2, 31592, Note_on_c, 0, 83, 110
2, 31610, Note_on_c, 0, 67, 0
2, 31613, Note_on_c, 0, 74, 0
2, 31616, Note_on_c, 0, 83, 0
2, 31872, Note_on_c, 0, 81, 69
2, 31907, Note_on_c, 0, 81, 0
2, 31944, Note_on_c, 0, 69, 74
2, 31956, Note_on_c, 0, 69, 0
2, 31968, Note_on_c, 0, 69, 76
2, 31992, Note_on_c, 0, 69, 0
2, 32016, Note_on_c, 0, 86, 79
2, 32051, Note_on_c, 0, 86, 0
2, 32088, Note_on_c, 0, 74, 84
2, 32100, Note_on_c, 0, 74, 0
2, 32112, Note_on_c, 0, 74, 85
2, 32136, Note_on_c, 0, 74, 0
2, 32160, Note_on_c, 0, 86, 89
2, 32195, Note_on_c, 0, 86, 0
2, 32232, Note_on_c, 0, 74, 93
2, 32244, Note_on_c, 0, 74, 0
2, 32256, Note_on_c, 0, 74, 95
2, 32280, Note_on_c, 0, 74, 0
2, 32304, Note_on_c, 0, 84, 100
2, 32339, Note_on_c, 0, 84, 0
2, 32376, Note_on_c, 0, 72, 93
2, 32388, Note_on_c, 0, 72, 0
2, 32400, Note_on_c, 0, 72, 91
2, 32424, Note_on_c, 0, 72, 0
2, 32448, Note_on_c, 0, 84, 86
2, 32483, Note_on_c, 0, 84, 0
2, 32520, Note_on_c, 0, 72, 78
2, 32532, Note_on_c, 0, 72, 0
2, 32544, Note_on_c, 0, 72, 76
2, 32568, Note_on_c, 0, 72, 0
2, 32592, Note_on_c, 0, 83, 71
2, 32627, Note_on_c, 0, 83, 0
2, 32664, Note_on_c, 0, 71, 64
2, 32676, Note_on_c, 0, 71, 0
2, 32688, Note_on_c, 0, 71, 61
2, 32712, Note_on_c, 0, 71, 0
2, 33168, Note_on_c, 0, 86, 69
2, 33203, Note_on_c, 0, 86, 0
2, 33240, Note_on_c, 0, 74, 73
2, 33252, Note_on_c, 0, 74, 0
2, 33264, Note_on_c, 0, 74, 75
2, 33288, Note_on_c, 0, 74, 0
2, 33312, Note_on_c, 0, 86, 78
2, 33347, Note_on_c, 0, 86, 0
2, 33384, Note_on_c, 0, 74, 82
2, 33396, Note_on_c, 0, 74, 0
2, 33408, Note_on_c, 0, 74, 84
2, 33432, Note_on_c, 0, 74, 0
2, 33456, Note_on_c, 0, 84, 87
2, 33491, Note_on_c, 0, 84, 0
2, 33528, Note_on_c, 0, 72, 91
2, 33540, Note_on_c, 0, 72, 0
2, 33552, Note_on_c, 0, 72, 93
2, 33576, Note_on_c, 0, 72, 0
2, 33600, Note_on_c, 0, 84, 96
2, 33635, Note_on_c, 0, 84, 0
2, 33672, Note_on_c, 0, 72, 101
2, 33684, Note_on_c, 0, 72, 0
2, 33696, Note_on_c, 0, 72, 102
2, 33720, Note_on_c, 0, 72, 0
2, 33744, Note_on_c, 0, 83, 105
2, 33779, Note_on_c, 0, 83, 0
2, 33816, Note_on_c, 0, 71, 110
2, 33828, Note_on_c, 0, 71, 0
2, 33840, Note_on_c, 0, 71, 111
2, 33864, Note_on_c, 0, 71, 0
2, 33888, Note_on_c, 0, 84, 120
2, 33923, Note_on_c, 0, 84, 0
2, 33960, Note_on_c, 0, 72, 113
2, 33972, Note_on_c, 0, 72, 0
2, 33984, Note_on_c, 0, 72, 113
2, 34008, Note_on_c, 0, 72, 0
2, 34032, Note_on_c, 0, 84, 120
2, 34067, Note_on_c, 0, 84, 0
2, 34104, Note_on_c, 0, 72, 113
2, 34116, Note_on_c, 0, 72, 0
2, 34128, Note_on_c, 0, 72, 113
2, 34152, Note_on_c, 0, 72, 0
2, 34176, Note_on_c, 0, 84, 120
2, 34211, Note_on_c, 0, 84, 0
2, 34248, Note_on_c, 0, 72, 113
2, 34260, Note_on_c, 0, 72, 0
2, 34272, Note_on_c, 0, 72, 113
2, 34296, Note_on_c, 0, 72, 0
2, 34320, Note_on_c, 0, 84, 120
2, 34355, Note_on_c, 0, 84, 0
2, 34392, Note_on_c, 0, 72, 113
2, 34404, Note_on_c, 0, 72, 0
2, 34416, Note_on_c, 0, 72, 113
2, 34440, Note_on_c, 0, 72, 0
2, 34464, Note_on_c, 0, 84, 120
2, 34499, Note_on_c, 0, 84, 0
2, 34536, Note_on_c, 0, 72, 113
2, 34548, Note_on_c, 0, 72, 0
2, 34560, Note_on_c, 0, 72, 113
2, 34584, Note_on_c, 0, 72, 0
2, 34608, Note_on_c, 0, 84, 120
2, 34643, Note_on_c, 0, 84, 0
2, 34680, Note_on_c, 0, 72, 113
2, 34692, Note_on_c, 0, 72, 0
2, 34704, Note_on_c, 0, 72, 113
2, 34728, Note_on_c, 0, 72, 0
2, 34752, Note_on_c, 0, 84, 120
2, 34787, Note_on_c, 0, 84, 0
2, 34824, Note_on_c, 0, 72, 113
2, 34836, Note_on_c, 0, 72, 0
2, 34848, Note_on_c, 0, 72, 113
2, 34872, Note_on_c, 0, 72, 0
2, 34896, Note_on_c, 0, 84, 120
2, 34931, Note_on_c, 0, 84, 0
2, 34968, Note_on_c, 0, 72, 113
2, 34980, Note_on_c, 0, 72, 0
2, 34992, Note_on_c, 0, 72, 113
2, 35016, Note_on_c, 0, 72, 0
2, 35040, Note_on_c, 0, 84, 120
2, 35075, Note_on_c, 0, 84, 0
2, 35112, Note_on_c, 0, 72, 113
2, 35124, Note_on_c, 0, 72, 0
2, 35136, Note_on_c, 0, 72, 113
2, 35160, Note_on_c, 0, 72, 0
2, 35184, Note_on_c, 0, 84, 120
2, 35219, Note_on_c, 0, 84, 0
2, 35256, Note_on_c, 0, 72, 113
2, 35268, Note_on_c, 0, 72, 0
2, 35280, Note_on_c, 0, 72, 113
2, 35304, Note_on_c, 0, 72, 0
2, 35328, Note_on_c, 0, 84, 120
2, 35363, Note_on_c, 0, 84, 0
2, 35400, Note_on_c, 0, 72, 113
2, 35412, Note_on_c, 0, 72, 0
2, 35424, Note_on_c, 0, 72, 113
2, 35448, Note_on_c, 0, 72, 0
2, 35472, Note_on_c, 0, 84, 120
2, 35507, Note_on_c, 0, 84, 0
2, 35544, Note_on_c, 0, 72, 113
2, 35556, Note_on_c, 0, 72, 0
2, 35568, Note_on_c, 0, 72, 113
2, 35592, Note_on_c, 0, 72, 0
2, 35616, Note_on_c, 0, 84, 120
2, 35651, Note_on_c, 0, 84, 0
2, 35688, Note_on_c, 0, 72, 113
2, 35700, Note_on_c, 0, 72, 0
2, 35712, Note_on_c, 0, 72, 113
2, 35736, Note_on_c, 0, 72, 0
2, 35760, Note_on_c, 0, 84, 120
2, 35795, Note_on_c, 0, 84, 0
2, 35832, Note_on_c, 0, 72, 113
2, 35844, Note_on_c, 0, 72, 0
2, 35856, Note_on_c, 0, 72, 113
2, 35880, Note_on_c, 0, 72, 0
2, 35904, Note_on_c, 0, 84, 120
2, 35939, Note_on_c, 0, 84, 0
2, 35976, Note_on_c, 0, 72, 113
2, 35988, Note_on_c, 0, 72, 0
2, 36000, Note_on_c, 0, 72, 113
2, 36024, Note_on_c, 0, 72, 0
2, 36048, Note_on_c, 0, 84, 120
2, 36083, Note_on_c, 0, 84, 0
2, 36120, Note_on_c, 0, 72, 113
2, 36132, Note_on_c, 0, 72, 0
2, 36144, Note_on_c, 0, 72, 113
2, 36168, Note_on_c, 0, 72, 0
2, 36192, Note_on_c, 0, 84, 113
2, 36216, Note_on_c, 0, 84, 0
2, 36480, Note_on_c, 0, 81, 120
2, 36515, Note_on_c, 0, 81, 0
2, 36552, Note_on_c, 0, 69, 113
2, 36564, Note_on_c, 0, 69, 0
2, 36576, Note_on_c, 0, 69, 113
2, 36600, Note_on_c, 0, 69, 0
2, 36624, Note_on_c, 0, 81, 117
2, 36648, Note_on_c, 0, 81, 0
2, 36672, Note_on_c, 0, 77, 113
2, 36696, Note_on_c, 0, 77, 0
2, 36720, Note_on_c, 0, 76, 113
2, 36744, Note_on_c, 0, 76, 0
2, 36768, Note_on_c, 0, 74, 113
2, 36792, Note_on_c, 0, 74, 0
2, 37056, Note_on_c, 0, 79, 120
2, 37091, Note_on_c, 0, 79, 0
2, 37128, Note_on_c, 0, 67, 113
2, 37140, Note_on_c, 0, 67, 0
2, 37152, Note_on_c, 0, 67, 113
2, 37176, Note_on_c, 0, 67, 0
2, 37200, Note_on_c, 0, 79, 117
2, 37224, Note_on_c, 0, 79, 0
2, 37248, Note_on_c, 0, 76, 113
2, 37272, Note_on_c, 0, 76, 0
2, 37296, Note_on_c, 0, 74, 113
2, 37320, Note_on_c, 0, 74, 0
2, 37344, Control_c, 0, 11, 60
2, 37344, Note_on_c, 0, 72, 113
2, 37536, Note_on_c, 0, 72, 0
2, 37536, Note_on_c, 0, 74, 113
2, 37584, Note_on_c, 0, 74, 0
2, 37584, Note_on_c, 0, 76, 113
2, 37632, Note_on_c, 0, 76, 0
2, 37632, Control_c, 0, 11, 60
2, 37632, Note_on_c, 0, 77, 113
2, 37647, Control_c, 0, 11, 61
2, 37661, Control_c, 0, 11, 62
2, 37676, Control_c, 0, 11, 63
2, 37690, Control_c, 0, 11, 64
2, 37704, Control_c, 0, 11, 65
2, 37719, Control_c, 0, 11, 66
2, 37733, Control_c, 0, 11, 67
2, 37747, Control_c, 0, 11, 68
2, 37762, Control_c, 0, 11, 69
2, 37776, Note_on_c, 0, 76, 113
2, 37776, Control_c, 0, 11, 70
2, 37777, Note_on_c, 0, 77, 0
2, 37790, Control_c, 0, 11, 71
2, 37805, Control_c, 0, 11, 72
2, 37819, Control_c, 0, 11, 73
2, 37833, Control_c, 0, 11, 74
2, 37848, Control_c, 0, 11, 75
2, 37862, Control_c, 0, 11, 76
2, 37876, Control_c, 0, 11, 77
2, 37891, Control_c, 0, 11, 78
2, 37905, Control_c, 0, 11, 79
2, 37919, Control_c, 0, 11, 80
2, 37920, Note_on_c, 0, 76, 0
2, 37920, Control_c, 0, 11, 80
2, 37920, Note_on_c, 0, 76, 113
2, 37935, Control_c, 0, 11, 79
2, 37949, Control_c, 0, 11, 78
2, 37964, Control_c, 0, 11, 77
2, 37978, Control_c, 0, 11, 76
2, 37992, Control_c, 0, 11, 75
2, 38007, Control_c, 0, 11, 74
2, 38021, Control_c, 0, 11, 73
2, 38035, Control_c, 0, 11, 72
2, 38050, Control_c, 0, 11, 71
2, 38064, Control_c, 0, 11, 70
2, 38078, Control_c, 0, 11, 69
2, 38093, Control_c, 0, 11, 68
2, 38107, Control_c, 0, 11, 67
2, 38112, Note_on_c, 0, 76, 0
2, 38112, Note_on_c, 0, 74, 113
2, 38121, Control_c, 0, 11, 66
2, 38136, Control_c, 0, 11, 65
2, 38150, Control_c, 0, 11, 64
2, 38160, Note_on_c, 0, 74, 0
2, 38160, Note_on_c, 0, 72, 113
2, 38164, Control_c, 0, 11, 63
2, 38179, Control_c, 0, 11, 62
2, 38193, Control_c, 0, 11, 61
2, 38207, Control_c, 0, 11, 60
2, 38208, Note_on_c, 0, 72, 0
2, 39072, Control_c, 0, 11, 120
2, 39072, Note_on_c, 0, 88, 105
2, 39096, Note_on_c, 0, 88, 0
2, 39120, Note_on_c, 0, 84, 100
2, 39144, Note_on_c, 0, 84, 0
2, 39168, Note_on_c, 0, 89, 100
2, 39192, Note_on_c, 0, 89, 0
2, 39216, Note_on_c, 0, 86, 105
2, 39240, Note_on_c, 0, 86, 0
2, 39264, Note_on_c, 0, 83, 100
2, 39288, Note_on_c, 0, 83, 0
2, 39312, Note_on_c, 0, 88, 100
2, 39336, Note_on_c, 0, 88, 0
2, 39360, Note_on_c, 0, 84, 105
2, 39384, Note_on_c, 0, 84, 0
2, 39648, Note_on_c, 0, 88, 105
2, 39672, Note_on_c, 0, 88, 0
2, 39696, Note_on_c, 0, 84, 100
2, 39720, Note_on_c, 0, 84, 0
2, 39744, Note_on_c, 0, 89, 100
2, 39768, Note_on_c, 0, 89, 0
2, 39792, Note_on_c, 0, 86, 105
2, 39816, Note_on_c, 0, 86, 0
2, 39840, Note_on_c, 0, 83, 100
2, 39864, Note_on_c, 0, 83, 0
2, 39888, Note_on_c, 0, 88, 100
2, 39912, Note_on_c, 0, 88, 0
2, 39936, Note_on_c, 0, 84, 107
2, 39971, Note_on_c, 0, 84, 0
2, 40010, Note_on_c, 0, 72, 100
2, 40022, Note_on_c, 0, 72, 0
2, 40034, Note_on_c, 0, 72, 100
2, 40058, Note_on_c, 0, 72, 0
2, 40082, Note_on_c, 0, 67, 95
2, 40106, Note_on_c, 0, 67, 0
2, 40226, Note_on_c, 0, 84, 107
2, 40261, Note_on_c, 0, 84, 0
2, 40298, Note_on_c, 0, 72, 100
2, 40310, Note_on_c, 0, 72, 0
2, 40322, Note_on_c, 0, 72, 100
2, 40346, Note_on_c, 0, 72, 0
2, 40370, Note_on_c, 0, 67, 95
2, 40394, Note_on_c, 0, 67, 0
2, 40506, Control_c, 0, 6, 64
2, 40512, Note_on_c, 0, 77, 57
2, 40560, Note_on_c, 0, 77, 0
2, 40560, Note_on_c, 0, 76, 56
2, 40608, Note_on_c, 0, 76, 0
2, 40608, Note_on_c, 0, 74, 54
2, 40656, Note_on_c, 0, 74, 0
2, 40656, Note_on_c, 0, 72, 53
2, 40704, Note_on_c, 0, 72, 0
2, 40704, Note_on_c, 0, 71, 51
2, 40752, Note_on_c, 0, 71, 0
2, 40752, Note_on_c, 0, 69, 50
2, 40800, Note_on_c, 0, 69, 0
2, 40800, Note_on_c, 0, 67, 47
2, 40848, Note_on_c, 0, 67, 0
2, 40848, Note_on_c, 0, 69, 50
2, 40896, Note_on_c, 0, 69, 0
2, 40896, Note_on_c, 0, 67, 47
2, 40944, Note_on_c, 0, 67, 0
2, 40944, Note_on_c, 0, 65, 45
2, 40992, Note_on_c, 0, 65, 0
2, 40992, Note_on_c, 0, 64, 45
2, 41040, Note_on_c, 0, 64, 0
2, 41040, Note_on_c, 0, 62, 45
2, 41064, Note_on_c, 0, 62, 0
2, 41064, Note_on_c, 0, 71, 50
2, 41088, Note_on_c, 0, 71, 0
2, 41088, Control_c, 0, 6, 14
2, 41088, Note_on_c, 0, 72, 60
2, 41123, Note_on_c, 0, 72, 0
2, 41160, Note_on_c, 0, 60, 50
2, 41172, Note_on_c, 0, 60, 0
2, 41184, Note_on_c, 0, 60, 50
2, 41208, Note_on_c, 0, 60, 0
2, 41232, Note_on_c, 0, 60, 55
2, 41256, Note_on_c, 0, 60, 0
2, 41376, Note_on_c, 0, 72, 60
2, 41411, Note_on_c, 0, 72, 0
2, 41448, Note_on_c, 0, 60, 50
2, 41460, Note_on_c, 0, 60, 0
2, 41472, Note_on_c, 0, 60, 50
2, 41496, Note_on_c, 0, 60, 0
2, 41520, Note_on_c, 0, 62, 55
2, 41544, Note_on_c, 0, 62, 0
2, 42240, Note_on_c, 0, 74, 60
2, 42275, Note_on_c, 0, 74, 0
2, 42312, Note_on_c, 0, 62, 50
2, 42324, Note_on_c, 0, 62, 0
2, 42336, Note_on_c, 0, 62, 50
2, 42360, Note_on_c, 0, 62, 0
2, 42384, Note_on_c, 0, 62, 55
2, 42408, Note_on_c, 0, 62, 0
2, 42528, Note_on_c, 0, 74, 60
2, 42563, Note_on_c, 0, 74, 0
2, 42600, Note_on_c, 0, 62, 50
2, 42612, Note_on_c, 0, 62, 0
2, 42624, Note_on_c, 0, 62, 50
2, 42648, Note_on_c, 0, 62, 0
2, 42672, Note_on_c, 0, 63, 55
2, 42696, Note_on_c, 0, 63, 0
2, 43392, Note_on_c, 0, 75, 70
2, 43427, Note_on_c, 0, 75, 0
2, 43464, Note_on_c, 0, 63, 61
2, 43476, Note_on_c, 0, 63, 0
2, 43488, Note_on_c, 0, 63, 61
2, 43512, Note_on_c, 0, 63, 0
2, 43536, Note_on_c, 0, 63, 65
2, 43560, Note_on_c, 0, 63, 0
2, 43680, Note_on_c, 0, 75, 75
2, 43715, Note_on_c, 0, 75, 0
2, 43752, Note_on_c, 0, 63, 67
2, 43764, Note_on_c, 0, 63, 0
2, 43776, Note_on_c, 0, 63, 67
2, 43800, Note_on_c, 0, 63, 0
2, 43824, Note_on_c, 0, 65, 71
2, 43848, Note_on_c, 0, 65, 0
2, 43968, Note_on_c, 0, 77, 80
2, 44003, Note_on_c, 0, 77, 0
2, 44040, Note_on_c, 0, 65, 72
2, 44052, Note_on_c, 0, 65, 0
2, 44064, Note_on_c, 0, 65, 73
2, 44088, Note_on_c, 0, 65, 0
2, 44112, Note_on_c, 0, 65, 74
2, 44136, Note_on_c, 0, 65, 0
2, 44256, Note_on_c, 0, 78, 86
2, 44291, Note_on_c, 0, 78, 0
2, 44328, Note_on_c, 0, 66, 78
2, 44340, Note_on_c, 0, 66, 0
2, 44352, Note_on_c, 0, 66, 78
2, 44376, Note_on_c, 0, 66, 0
2, 44400, Note_on_c, 0, 66, 79
2, 44424, Note_on_c, 0, 66, 0
2, 44544, Note_on_c, 0, 78, 92
2, 44579, Note_on_c, 0, 78, 0
2, 44616, Note_on_c, 0, 66, 83
2, 44628, Note_on_c, 0, 66, 0
2, 44640, Note_on_c, 0, 66, 84
2, 44664, Note_on_c, 0, 66, 0
2, 44688, Note_on_c, 0, 68, 85
2, 44712, Note_on_c, 0, 68, 0
2, 44832, Note_on_c, 0, 80, 98
2, 44867, Note_on_c, 0, 80, 0
2, 44904, Note_on_c, 0, 68, 89
2, 44916, Note_on_c, 0, 68, 0
2, 44928, Note_on_c, 0, 68, 90
2, 44952, Note_on_c, 0, 68, 0
2, 44976, Note_on_c, 0, 68, 90
2, 45000, Note_on_c, 0, 68, 0
2, 45120, Note_on_c, 0, 81, 110
2, 45155, Note_on_c, 0, 81, 0
2, 45192, Note_on_c, 0, 69, 100
2, 45204, Note_on_c, 0, 69, 0
2, 45216, Note_on_c, 0, 69, 100
2, 45240, Note_on_c, 0, 69, 0
2, 45408, Note_on_c, 0, 82, 119
2, 45443, Note_on_c, 0, 82, 0
2, 45480, Note_on_c, 0, 70, 113
2, 45492, Note_on_c, 0, 70, 0
2, 45504, Note_on_c, 0, 70, 113
2, 45528, Note_on_c, 0, 70, 0
2, 45696, Note_on_c, 0, 83, 120
2, 45731, Note_on_c, 0, 83, 0
2, 45768, Note_on_c, 0, 71, 113
2, 45780, Note_on_c, 0, 71, 0
2, 45792, Note_on_c, 0, 71, 113
2, 45816, Note_on_c, 0, 71, 0
2, 46032, Program_c, 0, 45
2, 46036, Control_c, 0, 7, 105
2, 46176, Note_on_c, 0, 64, 60
2, 46200, Note_on_c, 0, 64, 0
2, 46320, Note_on_c, 0, 59, 57
2, 46344, Note_on_c, 0, 59, 0
2, 46608, Note_on_c, 0, 64, 60
2, 46632, Note_on_c, 0, 64, 0
2, 46752, Note_on_c, 0, 59, 57
2, 46776, Note_on_c, 0, 59, 0
2, 47040, Note_on_c, 0, 64, 60
2, 47064, Note_on_c, 0, 64, 0
2, 47184, Note_on_c, 0, 59, 57
2, 47208, Note_on_c, 0, 59, 0
2, 47472, Note_on_c, 0, 76, 60
2, 47496, Note_on_c, 0, 76, 0
2, 47616, Note_on_c, 0, 64, 57
2, 47640, Note_on_c, 0, 64, 0
2, 47904, Note_on_c, 0, 69, 60
2, 47928, Note_on_c, 0, 69, 0
2, 48048, Note_on_c, 0, 64, 57
2, 48072, Note_on_c, 0, 64, 0
2, 48336, Note_on_c, 0, 69, 60
2, 48360, Note_on_c, 0, 69, 0
2, 48480, Note_on_c, 0, 64, 57
2, 48504, Note_on_c, 0, 64, 0
2, 48768, Note_on_c, 0, 77, 60
2, 48792, Note_on_c, 0, 77, 0
2, 48912, Note_on_c, 0, 65, 57
2, 48936, Note_on_c, 0, 65, 0
2, 49200, Note_on_c, 0, 77, 60
2, 49224, Note_on_c, 0, 77, 0
2, 49344, Note_on_c, 0, 65, 57
2, 49368, Note_on_c, 0, 65, 0
2, 49632, Note_on_c, 0, 77, 60
2, 49656, Note_on_c, 0, 77, 0
2, 49776, Note_on_c, 0, 65, 57
2, 49800, Note_on_c, 0, 65, 0
2, 50064, Note_on_c, 0, 77, 60
2, 50088, Note_on_c, 0, 77, 0
2, 50208, Note_on_c, 0, 65, 57
2, 50232, Note_on_c, 0, 65, 0
2, 50352, Note_on_c, 0, 77, 60
2, 50376, Note_on_c, 0, 77, 0
2, 50496, Note_on_c, 0, 65, 57
2, 50520, Note_on_c, 0, 65, 0
2, 50640, Note_on_c, 0, 77, 60
2, 50664, Note_on_c, 0, 77, 0
2, 50784, Program_c, 0, 48
2, 50784, Control_c, 0, 7, 123
2, 50784, Note_on_c, 0, 76, 55
2, 50808, Note_on_c, 0, 76, 0
2, 50832, Note_on_c, 0, 77, 50
2, 50856, Note_on_c, 0, 77, 0
2, 50880, Note_on_c, 0, 79, 50
2, 50904, Note_on_c, 0, 79, 0
2, 50928, Note_on_c, 0, 79, 55
2, 50952, Note_on_c, 0, 79, 0
2, 50976, Note_on_c, 0, 77, 50
2, 51000, Note_on_c, 0, 77, 0
2, 51024, Note_on_c, 0, 76, 50
2, 51048, Note_on_c, 0, 76, 0
2, 51072, Note_on_c, 0, 76, 55
2, 51096, Note_on_c, 0, 76, 0
2, 51120, Note_on_c, 0, 77, 50
2, 51144, Note_on_c, 0, 77, 0
2, 51168, Note_on_c, 0, 76, 50
2, 51192, Note_on_c, 0, 76, 0
2, 51216, Program_c, 0, 45
2, 51216, Control_c, 0, 7, 105
2, 51216, Note_on_c, 0, 74, 50
2, 51240, Note_on_c, 0, 74, 0
2, 51360, Note_on_c, 0, 62, 47
2, 51384, Note_on_c, 0, 62, 0
2, 51504, Note_on_c, 0, 74, 50
2, 51528, Note_on_c, 0, 74, 0
2, 51648, Program_c, 0, 48
2, 51648, Control_c, 0, 7, 123
2, 51648, Note_on_c, 0, 73, 55
2, 51672, Note_on_c, 0, 73, 0
2, 51696, Note_on_c, 0, 74, 50
2, 51720, Note_on_c, 0, 74, 0
2, 51744, Note_on_c, 0, 76, 50
2, 51768, Note_on_c, 0, 76, 0
2, 51792, Note_on_c, 0, 76, 55
2, 51816, Note_on_c, 0, 76, 0
2, 51840, Note_on_c, 0, 74, 50
2, 51864, Note_on_c, 0, 74, 0
2, 51888, Note_on_c, 0, 73, 50
2, 51912, Note_on_c, 0, 73, 0
2, 51936, Note_on_c, 0, 73, 55
2, 51960, Note_on_c, 0, 73, 0
2, 51984, Note_on_c, 0, 74, 50
2, 52008, Note_on_c, 0, 74, 0
2, 52032, Note_on_c, 0, 73, 50
2, 52056, Note_on_c, 0, 73, 0
2, 52224, Program_c, 0, 45
2, 52224, Control_c, 0, 7, 105
2, 52224, Note_on_c, 0, 69, 50
2, 52248, Note_on_c, 0, 69, 0
2, 52368, Note_on_c, 0, 81, 47
2, 52392, Note_on_c, 0, 81, 0
2, 52512, Program_c, 0, 48
2, 52512, Control_c, 0, 7, 123
2, 52512, Note_on_c, 0, 73, 55
2, 52536, Note_on_c, 0, 73, 0
2, 52560, Note_on_c, 0, 74, 50
2, 52584, Note_on_c, 0, 74, 0
2, 52608, Note_on_c, 0, 76, 50
2, 52632, Note_on_c, 0, 76, 0
2, 52656, Note_on_c, 0, 76, 55
2, 52680, Note_on_c, 0, 76, 0
2, 52704, Note_on_c, 0, 74, 50
2, 52728, Note_on_c, 0, 74, 0
2, 52752, Note_on_c, 0, 73, 50
2, 52776, Note_on_c, 0, 73, 0
2, 52800, Note_on_c, 0, 73, 55
2, 52824, Note_on_c, 0, 73, 0
2, 52848, Note_on_c, 0, 74, 50
2, 52872, Note_on_c, 0, 74, 0
2, 52896, Note_on_c, 0, 73, 50
2, 52920, Note_on_c, 0, 73, 0
2, 52944, Note_on_c, 0, 73, 55
2, 52968, Note_on_c, 0, 73, 0
2, 52992, Note_on_c, 0, 74, 50
2, 53016, Note_on_c, 0, 74, 0
2, 53040, Note_on_c, 0, 76, 50
2, 53064, Note_on_c, 0, 76, 0
2, 53088, Note_on_c, 0, 77, 55
2, 53112, Note_on_c, 0, 77, 0
2, 53232, Program_c, 0, 45
2, 53232, Control_c, 0, 7, 105
2, 53232, Note_on_c, 0, 57, 50
2, 53256, Note_on_c, 0, 57, 0
2, 53520, Note_on_c, 0, 62, 50
2, 53544, Note_on_c, 0, 62, 0
2, 53664, Note_on_c, 0, 57, 47
2, 53688, Note_on_c, 0, 57, 0
2, 53952, Note_on_c, 0, 62, 50
2, 53976, Note_on_c, 0, 62, 0
2, 54096, Note_on_c, 0, 57, 47
2, 54120, Note_on_c, 0, 57, 0
2, 54528, Program_c, 0, 48
2, 54528, Control_c, 0, 7, 123
2, 55104, Note_on_c, 0, 79, 60
2, 55139, Note_on_c, 0, 79, 0
2, 55176, Note_on_c, 0, 67, 50
2, 55188, Note_on_c, 0, 67, 0
2, 55200, Note_on_c, 0, 67, 50
2, 55224, Note_on_c, 0, 67, 0
2, 55248, Note_on_c, 0, 72, 55
2, 55272, Note_on_c, 0, 72, 0
2, 55296, Note_on_c, 0, 74, 50
2, 55320, Note_on_c, 0, 74, 0
2, 55344, Note_on_c, 0, 75, 50
2, 55368, Note_on_c, 0, 75, 0
2, 55392, Note_on_c, 0, 74, 55
2, 55416, Note_on_c, 0, 74, 0
2, 55440, Note_on_c, 0, 75, 50
2, 55464, Note_on_c, 0, 75, 0
2, 55488, Note_on_c, 0, 77, 50
2, 55512, Note_on_c, 0, 77, 0
2, 55536, Note_on_c, 0, 75, 55
2, 55560, Note_on_c, 0, 75, 0
2, 55584, Note_on_c, 0, 74, 50
2, 55608, Note_on_c, 0, 74, 0
2, 55632, Note_on_c, 0, 75, 50
2, 55656, Note_on_c, 0, 75, 0
2, 55680, Note_on_c, 0, 74, 55
2, 55704, Note_on_c, 0, 74, 0
2, 55728, Note_on_c, 0, 75, 50
2, 55752, Note_on_c, 0, 75, 0
2, 55776, Note_on_c, 0, 77, 50
2, 55800, Note_on_c, 0, 77, 0
2, 55824, Note_on_c, 0, 75, 55
2, 55848, Note_on_c, 0, 75, 0
2, 55872, Note_on_c, 0, 74, 50
2, 55896, Note_on_c, 0, 74, 0
2, 55920, Note_on_c, 0, 75, 50
2, 55944, Note_on_c, 0, 75, 0
2, 55968, Note_on_c, 0, 82, 60
2, 56003, Note_on_c, 0, 82, 0
2, 56040, Note_on_c, 0, 70, 50
2, 56052, Note_on_c, 0, 70, 0
2, 56064, Note_on_c, 0, 70, 50
2, 56088, Note_on_c, 0, 70, 0
2, 56112, Note_on_c, 0, 75, 55
2, 56136, Note_on_c, 0, 75, 0
2, 56160, Note_on_c, 0, 77, 50
2, 56184, Note_on_c, 0, 77, 0
2, 56208, Note_on_c, 0, 79, 50
2, 56232, Note_on_c, 0, 79, 0
2, 56256, Note_on_c, 0, 80, 50
2, 56831, Note_on_c, 0, 80, 0
2, 56832, Note_on_c, 0, 79, 55
2, 56856, Note_on_c, 0, 79, 0
2, 56880, Note_on_c, 0, 77, 50
2, 56904, Note_on_c, 0, 77, 0
2, 56928, Note_on_c, 0, 75, 50
2, 56952, Note_on_c, 0, 75, 0
2, 56976, Note_on_c, 0, 82, 55
2, 57000, Note_on_c, 0, 82, 0
2, 57024, Note_on_c, 0, 80, 50
2, 57048, Note_on_c, 0, 80, 0
2, 57072, Note_on_c, 0, 79, 50
2, 57096, Note_on_c, 0, 79, 0
2, 57120, Note_on_c, 0, 79, 55
2, 57144, Note_on_c, 0, 79, 0
2, 57168, Note_on_c, 0, 77, 50
2, 57192, Note_on_c, 0, 77, 0
2, 57216, Note_on_c, 0, 75, 50
2, 57240, Note_on_c, 0, 75, 0
2, 57264, Note_on_c, 0, 82, 55
2, 57288, Note_on_c, 0, 82, 0
2, 57312, Note_on_c, 0, 80, 50
2, 57336, Note_on_c, 0, 80, 0
2, 57360, Note_on_c, 0, 79, 50
2, 57384, Note_on_c, 0, 79, 0
2, 57408, Control_c, 0, 6, 64
2, 57408, Control_c, 0, 11, 50
2, 57408, Note_on_c, 0, 80, 120
2, 57425, Control_c, 0, 11, 51
2, 57441, Control_c, 0, 11, 52
2, 57458, Control_c, 0, 11, 53
2, 57474, Control_c, 0, 11, 54
2, 57491, Control_c, 0, 11, 55
2, 57507, Control_c, 0, 11, 56
2, 57524, Control_c, 0, 11, 57
2, 57540, Control_c, 0, 11, 58
2, 57556, Control_c, 0, 11, 59
2, 57573, Control_c, 0, 11, 60
2, 57589, Control_c, 0, 11, 61
2, 57606, Control_c, 0, 11, 62
2, 57622, Control_c, 0, 11, 63
2, 57639, Control_c, 0, 11, 64
2, 57655, Control_c, 0, 11, 65
2, 57672, Control_c, 0, 11, 66
2, 57688, Control_c, 0, 11, 67
2, 57704, Control_c, 0, 11, 68
2, 57721, Control_c, 0, 11, 69
2, 57737, Control_c, 0, 11, 70
2, 57754, Control_c, 0, 11, 71
2, 57770, Control_c, 0, 11, 72
2, 57787, Control_c, 0, 11, 73
2, 57803, Control_c, 0, 11, 74
2, 57820, Control_c, 0, 11, 75
2, 57836, Control_c, 0, 11, 76
2, 57852, Control_c, 0, 11, 77
2, 57869, Control_c, 0, 11, 78
2, 57885, Control_c, 0, 11, 79
2, 57902, Control_c, 0, 11, 80
2, 57918, Control_c, 0, 11, 81
2, 57935, Control_c, 0, 11, 82
2, 57951, Control_c, 0, 11, 83
2, 57968, Control_c, 0, 11, 84
2, 57983, Note_on_c, 0, 80, 0
2, 57984, Note_on_c, 0, 81, 120
2, 57984, Control_c, 0, 11, 85
2, 58000, Control_c, 0, 11, 86
2, 58017, Control_c, 0, 11, 87
2, 58033, Control_c, 0, 11, 88
2, 58050, Control_c, 0, 11, 89
2, 58066, Control_c, 0, 11, 90
2, 58083, Control_c, 0, 11, 91
2, 58099, Control_c, 0, 11, 92
2, 58116, Control_c, 0, 11, 93
2, 58132, Control_c, 0, 11, 94
2, 58148, Control_c, 0, 11, 95
2, 58165, Control_c, 0, 11, 96
2, 58181, Control_c, 0, 11, 97
2, 58198, Control_c, 0, 11, 98
2, 58214, Control_c, 0, 11, 99
2, 58231, Control_c, 0, 11, 100
2, 58247, Control_c, 0, 11, 101
2, 58264, Control_c, 0, 11, 102
2, 58271, Note_on_c, 0, 81, 0
2, 58272, Note_on_c, 0, 86, 120
2, 58280, Control_c, 0, 11, 103
2, 58296, Control_c, 0, 11, 104
2, 58313, Control_c, 0, 11, 105
2, 58329, Control_c, 0, 11, 106
2, 58346, Control_c, 0, 11, 107
2, 58362, Control_c, 0, 11, 108
2, 58379, Control_c, 0, 11, 109
2, 58395, Control_c, 0, 11, 110
2, 58412, Control_c, 0, 11, 111
2, 58428, Control_c, 0, 11, 112
2, 58444, Control_c, 0, 11, 113
2, 58461, Control_c, 0, 11, 114
2, 58477, Control_c, 0, 11, 115
2, 58494, Control_c, 0, 11, 116
2, 58510, Control_c, 0, 11, 117
2, 58527, Control_c, 0, 11, 118
2, 58543, Control_c, 0, 11, 119
2, 58559, Note_on_c, 0, 86, 0
2, 58559, Control_c, 0, 11, 120
2, 58560, Control_c, 0, 6, 14
2, 58560, Note_on_c, 0, 69, 120
2, 58560, Note_on_c, 0, 89, 120
2, 58590, Note_on_c, 0, 89, 0
2, 58590, Note_on_c, 0, 69, 0
2, 58848, Note_on_c, 0, 69, 120
2, 58848, Note_on_c, 0, 93, 120
2, 58878, Note_on_c, 0, 93, 0
2, 58878, Note_on_c, 0, 69, 0
2, 59136, Note_on_c, 0, 69, 125
2, 59136, Note_on_c, 0, 93, 125
2, 59171, Note_on_c, 0, 93, 0
2, 59171, Note_on_c, 0, 69, 0
2, 59208, Note_on_c, 0, 69, 115
2, 59220, Note_on_c, 0, 69, 0
2, 59232, Note_on_c, 0, 69, 115
2, 59256, Note_on_c, 0, 69, 0
2, 59280, Note_on_c, 0, 69, 125
2, 59280, Note_on_c, 0, 93, 125
2, 59315, Note_on_c, 0, 93, 0
2, 59315, Note_on_c, 0, 69, 0
2, 59352, Note_on_c, 0, 69, 115
2, 59364, Note_on_c, 0, 69, 0
2, 59376, Note_on_c, 0, 69, 115
2, 59400, Note_on_c, 0, 69, 0
2, 59424, Note_on_c, 0, 69, 125
2, 59424, Note_on_c, 0, 93, 125
2, 59459, Note_on_c, 0, 93, 0
2, 59459, Note_on_c, 0, 69, 0
2, 59496, Note_on_c, 0, 69, 115
2, 59508, Note_on_c, 0, 69, 0
2, 59520, Note_on_c, 0, 69, 115
2, 59544, Note_on_c, 0, 69, 0
2, 59568, Note_on_c, 0, 69, 125
2, 59568, Note_on_c, 0, 93, 125
2, 59603, Note_on_c, 0, 93, 0
2, 59603, Note_on_c, 0, 69, 0
2, 59640, Note_on_c, 0, 69, 115
2, 59652, Note_on_c, 0, 69, 0
2, 59664, Note_on_c, 0, 69, 115
2, 59688, Note_on_c, 0, 69, 0
2, 59712, Note_on_c, 0, 69, 125
2, 59712, Note_on_c, 0, 93, 125
2, 59747, Note_on_c, 0, 93, 0
2, 59747, Note_on_c, 0, 69, 0
2, 59784, Note_on_c, 0, 69, 115
2, 59796, Note_on_c, 0, 69, 0
2, 59808, Note_on_c, 0, 69, 115
2, 59832, Note_on_c, 0, 69, 0
2, 59856, Note_on_c, 0, 86, 120
2, 59880, Note_on_c, 0, 86, 0
2, 59904, Note_on_c, 0, 88, 115
2, 59928, Note_on_c, 0, 88, 0
2, 59952, Note_on_c, 0, 89, 115
2, 59976, Note_on_c, 0, 89, 0
2, 60000, Note_on_c, 0, 88, 120
2, 60024, Note_on_c, 0, 88, 0
2, 60048, Note_on_c, 0, 89, 115
2, 60072, Note_on_c, 0, 89, 0
2, 60096, Note_on_c, 0, 91, 115
2, 60120, Note_on_c, 0, 91, 0
2, 60144, Note_on_c, 0, 89, 120
2, 60168, Note_on_c, 0, 89, 0
2, 60192, Note_on_c, 0, 88, 115
2, 60216, Note_on_c, 0, 88, 0
2, 60240, Note_on_c, 0, 86, 115
2, 60264, Note_on_c, 0, 86, 0
2, 60288, Note_on_c, 0, 82, 120
2, 60312, Note_on_c, 0, 82, 0
2, 60336, Note_on_c, 0, 81, 115
2, 60360, Note_on_c, 0, 81, 0
2, 60384, Note_on_c, 0, 79, 115
2, 60408, Note_on_c, 0, 79, 0
2, 60432, Note_on_c, 0, 77, 120
2, 60456, Note_on_c, 0, 77, 0
2, 60480, Note_on_c, 0, 88, 115
2, 60504, Note_on_c, 0, 88, 0
2, 60528, Note_on_c, 0, 86, 115
2, 60552, Note_on_c, 0, 86, 0
2, 60576, Note_on_c, 0, 85, 120
2, 60600, Note_on_c, 0, 85, 0
2, 60624, Note_on_c, 0, 86, 115
2, 60648, Note_on_c, 0, 86, 0
2, 60672, Note_on_c, 0, 88, 115
2, 60696, Note_on_c, 0, 88, 0
2, 60720, Note_on_c, 0, 86, 120
2, 60744, Note_on_c, 0, 86, 0
2, 60768, Note_on_c, 0, 85, 115
2, 60792, Note_on_c, 0, 85, 0
2, 60816, Note_on_c, 0, 86, 115
2, 60840, Note_on_c, 0, 86, 0
2, 60864, Note_on_c, 0, 82, 120
2, 60888, Note_on_c, 0, 82, 0
2, 60912, Note_on_c, 0, 81, 115
2, 60936, Note_on_c, 0, 81, 0
2, 60960, Note_on_c, 0, 79, 115
2, 60984, Note_on_c, 0, 79, 0
2, 61008, Note_on_c, 0, 77, 120
2, 61032, Note_on_c, 0, 77, 0
2, 61056, Note_on_c, 0, 88, 115
2, 61080, Note_on_c, 0, 88, 0
2, 61104, Note_on_c, 0, 86, 115
2, 61128, Note_on_c, 0, 86, 0
2, 61152, Note_on_c, 0, 85, 120
2, 61176, Note_on_c, 0, 85, 0
2, 61200, Note_on_c, 0, 86, 115
2, 61224, Note_on_c, 0, 86, 0
2, 61248, Note_on_c, 0, 88, 115
2, 61272, Note_on_c, 0, 88, 0
2, 61296, Note_on_c, 0, 86, 120
2, 61320, Note_on_c, 0, 86, 0
2, 61344, Note_on_c, 0, 85, 115
2, 61368, Note_on_c, 0, 85, 0
2, 61392, Note_on_c, 0, 86, 115
2, 61416, Note_on_c, 0, 86, 0
2, 61440, Note_on_c, 0, 84, 120
2, 61464, Note_on_c, 0, 84, 0
2, 61488, Note_on_c, 0, 86, 115
2, 61512, Note_on_c, 0, 86, 0
2, 61536, Note_on_c, 0, 87, 115
2, 61560, Note_on_c, 0, 87, 0
2, 61584, Note_on_c, 0, 79, 120
2, 61608, Note_on_c, 0, 79, 0
2, 61632, Note_on_c, 0, 81, 115
2, 61656, Note_on_c, 0, 81, 0
2, 61680, Note_on_c, 0, 82, 115
2, 61704, Note_on_c, 0, 82, 0
2, 61728, Note_on_c, 0, 81, 120
2, 61752, Note_on_c, 0, 81, 0
2, 61776, Note_on_c, 0, 82, 115
2, 61800, Note_on_c, 0, 82, 0
2, 61824, Note_on_c, 0, 84, 115
2, 61848, Note_on_c, 0, 84, 0
2, 61872, Note_on_c, 0, 82, 120
2, 61896, Note_on_c, 0, 82, 0
2, 61920, Note_on_c, 0, 81, 115
2, 61944, Note_on_c, 0, 81, 0
2, 61968, Note_on_c, 0, 79, 115
2, 61992, Note_on_c, 0, 79, 0
2, 62016, Note_on_c, 0, 75, 105
2, 62040, Note_on_c, 0, 75, 0
2, 62067, Note_on_c, 0, 74, 100
2, 62091, Note_on_c, 0, 74, 0
2, 62115, Note_on_c, 0, 72, 100
2, 62139, Note_on_c, 0, 72, 0
2, 62163, Note_on_c, 0, 70, 105
2, 62187, Note_on_c, 0, 70, 0
2, 62211, Note_on_c, 0, 69, 100
2, 62235, Note_on_c, 0, 69, 0
2, 62259, Note_on_c, 0, 67, 100
2, 62283, Note_on_c, 0, 67, 0
2, 62307, Note_on_c, 0, 77, 105
2, 62331, Note_on_c, 0, 77, 0
2, 62355, Note_on_c, 0, 75, 100
2, 62379, Note_on_c, 0, 75, 0
2, 62403, Note_on_c, 0, 74, 100
2, 62427, Note_on_c, 0, 74, 0
2, 62451, Note_on_c, 0, 72, 105
2, 62475, Note_on_c, 0, 72, 0
2, 62499, Note_on_c, 0, 70, 100
2, 62523, Note_on_c, 0, 70, 0
2, 62547, Note_on_c, 0, 69, 100
2, 62571, Note_on_c, 0, 69, 0
2, 62595, Note_on_c, 0, 79, 105
2, 62619, Note_on_c, 0, 79, 0
2, 62643, Note_on_c, 0, 77, 100
2, 62667, Note_on_c, 0, 77, 0
2, 62691, Note_on_c, 0, 75, 100
2, 62715, Note_on_c, 0, 75, 0
2, 62739, Note_on_c, 0, 74, 105
2, 62763, Note_on_c, 0, 74, 0
2, 62787, Note_on_c, 0, 72, 100
2, 62811, Note_on_c, 0, 72, 0
2, 62835, Note_on_c, 0, 70, 100
2, 62859, Note_on_c, 0, 70, 0
2, 62883, Note_on_c, 0, 69, 105
2, 62907, Note_on_c, 0, 69, 0
2, 62931, Note_on_c, 0, 67, 100
2, 62955, Note_on_c, 0, 67, 0
2, 62979, Note_on_c, 0, 65, 100
2, 63003, Note_on_c, 0, 65, 0
2, 63027, Note_on_c, 0, 63, 105
2, 63051, Note_on_c, 0, 63, 0
2, 63075, Note_on_c, 0, 62, 100
2, 63099, Note_on_c, 0, 62, 0
2, 63123, Note_on_c, 0, 60, 100
2, 63147, Note_on_c, 0, 60, 0
2, 63171, Note_on_c, 0, 58, 105
2, 63195, Note_on_c, 0, 58, 0
2, 63456, Note_on_c, 0, 79, 65
2, 63491, Note_on_c, 0, 79, 0
2, 63528, Note_on_c, 0, 67, 64
2, 63540, Note_on_c, 0, 67, 0
2, 63552, Note_on_c, 0, 67, 66
2, 63576, Note_on_c, 0, 67, 0
2, 63600, Note_on_c, 0, 79, 75
2, 63635, Note_on_c, 0, 79, 0
2, 63672, Note_on_c, 0, 67, 74
2, 63684, Note_on_c, 0, 67, 0
2, 63696, Note_on_c, 0, 67, 75
2, 63720, Note_on_c, 0, 67, 0
2, 63744, Note_on_c, 0, 81, 84
2, 63779, Note_on_c, 0, 81, 0
2, 63816, Note_on_c, 0, 69, 83
2, 63828, Note_on_c, 0, 69, 0
2, 63840, Note_on_c, 0, 69, 85
2, 63864, Note_on_c, 0, 69, 0
2, 63888, Note_on_c, 0, 82, 90
2, 63923, Note_on_c, 0, 82, 0
2, 63960, Note_on_c, 0, 70, 85
2, 63972, Note_on_c, 0, 70, 0
2, 63984, Note_on_c, 0, 70, 83
2, 64008, Note_on_c, 0, 70, 0
2, 64032, Note_on_c, 0, 82, 79
2, 64067, Note_on_c, 0, 82, 0
2, 64104, Note_on_c, 0, 70, 74
2, 64116, Note_on_c, 0, 70, 0
2, 64128, Note_on_c, 0, 70, 72
2, 64152, Note_on_c, 0, 70, 0
2, 64176, Note_on_c, 0, 81, 68
2, 64211, Note_on_c, 0, 81, 0
2, 64248, Note_on_c, 0, 69, 62
2, 64260, Note_on_c, 0, 69, 0
2, 64272, Note_on_c, 0, 69, 60
2, 64296, Note_on_c, 0, 69, 0
2, 64896, Note_on_c, 0, 83, 65
2, 64931, Note_on_c, 0, 83, 0
2, 64968, Note_on_c, 0, 71, 63
2, 64980, Note_on_c, 0, 71, 0
2, 64992, Note_on_c, 0, 71, 67
2, 65016, Note_on_c, 0, 71, 0
2, 65040, Note_on_c, 0, 88, 71
2, 65075, Note_on_c, 0, 88, 0
2, 65112, Note_on_c, 0, 76, 76
2, 65124, Note_on_c, 0, 76, 0
2, 65136, Note_on_c, 0, 76, 78
2, 65160, Note_on_c, 0, 76, 0
2, 65184, Note_on_c, 0, 88, 89
2, 65219, Note_on_c, 0, 88, 0
2, 65256, Note_on_c, 0, 76, 88
2, 65268, Note_on_c, 0, 76, 0
2, 65280, Note_on_c, 0, 76, 90
2, 65304, Note_on_c, 0, 76, 0
2, 65328, Note_on_c, 0, 86, 90
2, 65363, Note_on_c, 0, 86, 0
2, 65400, Note_on_c, 0, 74, 85
2, 65412, Note_on_c, 0, 74, 0
2, 65424, Note_on_c, 0, 74, 83
2, 65448, Note_on_c, 0, 74, 0
2, 65472, Note_on_c, 0, 86, 79
2, 65507, Note_on_c, 0, 86, 0
2, 65544, Note_on_c, 0, 74, 74
2, 65556, Note_on_c, 0, 74, 0
2, 65568, Note_on_c, 0, 74, 72
2, 65592, Note_on_c, 0, 74, 0
2, 65616, Note_on_c, 0, 85, 68
2, 65651, Note_on_c, 0, 85, 0
2, 65688, Note_on_c, 0, 73, 62
2, 65700, Note_on_c, 0, 73, 0
2, 65712, Note_on_c, 0, 73, 60
2, 65736, Note_on_c, 0, 73, 0
2, 66192, Note_on_c, 0, 76, 65
2, 66227, Note_on_c, 0, 76, 0
2, 66264, Note_on_c, 0, 64, 69
2, 66276, Note_on_c, 0, 64, 0
2, 66288, Note_on_c, 0, 64, 72
2, 66312, Note_on_c, 0, 64, 0
2, 66336, Note_on_c, 0, 76, 78
2, 66371, Note_on_c, 0, 76, 0
2, 66408, Note_on_c, 0, 64, 87
2, 66420, Note_on_c, 0, 64, 0
2, 66432, Note_on_c, 0, 64, 90
2, 66456, Note_on_c, 0, 64, 0
2, 66480, Note_on_c, 0, 74, 90
2, 66515, Note_on_c, 0, 74, 0
2, 66552, Note_on_c, 0, 62, 85
2, 66564, Note_on_c, 0, 62, 0
2, 66576, Note_on_c, 0, 62, 83
2, 66600, Note_on_c, 0, 62, 0
2, 66624, Note_on_c, 0, 74, 79
2, 66659, Note_on_c, 0, 74, 0
2, 66696, Note_on_c, 0, 62, 74
2, 66708, Note_on_c, 0, 62, 0
2, 66720, Note_on_c, 0, 62, 72
2, 66744, Note_on_c, 0, 62, 0
2, 66768, Note_on_c, 0, 73, 68
2, 66803, Note_on_c, 0, 73, 0
2, 66840, Note_on_c, 0, 61, 62
2, 66852, Note_on_c, 0, 61, 0
2, 66864, Note_on_c, 0, 61, 60
2, 66888, Note_on_c, 0, 61, 0
2, 66912, Program_c, 0, 45
2, 66912, Control_c, 0, 7, 105
2, 67008, Note_on_c, 0, 69, 60
2, 67032, Note_on_c, 0, 69, 0
2, 67152, Note_on_c, 0, 81, 67
2, 67176, Note_on_c, 0, 81, 0
2, 67296, Note_on_c, 0, 78, 74
2, 67320, Note_on_c, 0, 78, 0
2, 67440, Note_on_c, 0, 79, 81
2, 67464, Note_on_c, 0, 79, 0
2, 67584, Note_on_c, 0, 76, 89
2, 67608, Note_on_c, 0, 76, 0
2, 67728, Note_on_c, 0, 78, 96
2, 67752, Note_on_c, 0, 78, 0
2, 67872, Note_on_c, 0, 81, 103
2, 67896, Note_on_c, 0, 81, 0
2, 68016, Note_on_c, 0, 85, 111
2, 68040, Note_on_c, 0, 85, 0
2, 68064, Program_c, 0, 48
2, 68064, Control_c, 0, 7, 123
2, 68064, Note_on_c, 0, 86, 120
2, 68099, Note_on_c, 0, 86, 0
2, 68140, Note_on_c, 0, 74, 113
2, 68152, Note_on_c, 0, 74, 0
2, 68164, Note_on_c, 0, 74, 113
2, 68188, Note_on_c, 0, 74, 0
2, 68212, Note_on_c, 0, 86, 120
2, 68247, Note_on_c, 0, 86, 0
2, 68284, Note_on_c, 0, 74, 113
2, 68296, Note_on_c, 0, 74, 0
2, 68308, Note_on_c, 0, 74, 113
2, 68332, Note_on_c, 0, 74, 0
2, 68356, Note_on_c, 0, 86, 120
2, 68391, Note_on_c, 0, 86, 0
2, 68428, Note_on_c, 0, 74, 113
2, 68440, Note_on_c, 0, 74, 0
2, 68452, Note_on_c, 0, 74, 113
2, 68476, Note_on_c, 0, 74, 0
2, 68500, Note_on_c, 0, 86, 120
2, 68535, Note_on_c, 0, 86, 0
2, 68572, Note_on_c, 0, 74, 113
2, 68584, Note_on_c, 0, 74, 0
2, 68596, Note_on_c, 0, 74, 113
2, 68620, Note_on_c, 0, 74, 0
2, 68644, Note_on_c, 0, 86, 120
2, 68679, Note_on_c, 0, 86, 0
2, 68716, Note_on_c, 0, 74, 113
2, 68728, Note_on_c, 0, 74, 0
2, 68740, Note_on_c, 0, 74, 113
2, 68764, Note_on_c, 0, 74, 0
2, 68788, Note_on_c, 0, 86, 120
2, 68823, Note_on_c, 0, 86, 0
2, 68860, Note_on_c, 0, 74, 113
2, 68872, Note_on_c, 0, 74, 0
2, 68884, Note_on_c, 0, 74, 113
2, 68908, Note_on_c, 0, 74, 0
2, 68932, Note_on_c, 0, 86, 120
2, 68967, Note_on_c, 0, 86, 0
2, 69004, Note_on_c, 0, 74, 113
2, 69016, Note_on_c, 0, 74, 0
2, 69028, Note_on_c, 0, 74, 113
2, 69052, Note_on_c, 0, 74, 0
2, 69076, Note_on_c, 0, 86, 120
2, 69111, Note_on_c, 0, 86, 0
2, 69148, Note_on_c, 0, 74, 113
2, 69160, Note_on_c, 0, 74, 0
2, 69172, Note_on_c, 0, 74, 113
2, 69196, Note_on_c, 0, 74, 0
2, 69220, Note_on_c, 0, 86, 120
2, 69255, Note_on_c, 0, 86, 0
2, 69292, Note_on_c, 0, 74, 113
2, 69304, Note_on_c, 0, 74, 0
2, 69316, Note_on_c, 0, 74, 113
2, 69340, Note_on_c, 0, 74, 0
2, 69364, Note_on_c, 0, 86, 120
2, 69399, Note_on_c, 0, 86, 0
2, 69436, Note_on_c, 0, 74, 113
2, 69448, Note_on_c, 0, 74, 0
2, 69460, Note_on_c, 0, 74, 113
2, 69484, Note_on_c, 0, 74, 0
2, 69508, Note_on_c, 0, 86, 120
2, 69543, Note_on_c, 0, 86, 0
2, 69580, Note_on_c, 0, 74, 113
2, 69592, Note_on_c, 0, 74, 0
2, 69604, Note_on_c, 0, 74, 113
2, 69628, Note_on_c, 0, 74, 0
2, 69652, Note_on_c, 0, 86, 120
2, 69687, Note_on_c, 0, 86, 0
2, 69724, Note_on_c, 0, 74, 113
2, 69736, Note_on_c, 0, 74, 0
2, 69748, Note_on_c, 0, 74, 113
2, 69772, Note_on_c, 0, 74, 0
2, 69796, Note_on_c, 0, 86, 120
2, 69831, Note_on_c, 0, 86, 0
2, 69868, Note_on_c, 0, 74, 113
2, 69880, Note_on_c, 0, 74, 0
2, 69892, Note_on_c, 0, 74, 113
2, 69916, Note_on_c, 0, 74, 0
2, 69940, Note_on_c, 0, 86, 120
2, 69975, Note_on_c, 0, 86, 0
2, 70012, Note_on_c, 0, 74, 113
2, 70024, Note_on_c, 0, 74, 0
2, 70036, Note_on_c, 0, 74, 113
2, 70060, Note_on_c, 0, 74, 0
2, 70084, Note_on_c, 0, 86, 120
2, 70119, Note_on_c, 0, 86, 0
2, 70156, Note_on_c, 0, 74, 113
2, 70168, Note_on_c, 0, 74, 0
2, 70180, Note_on_c, 0, 74, 113
2, 70204, Note_on_c, 0, 74, 0
2, 70228, Note_on_c, 0, 86, 120
2, 70263, Note_on_c, 0, 86, 0
2, 70300, Note_on_c, 0, 74, 113
2, 70312, Note_on_c, 0, 74, 0
2, 70324, Note_on_c, 0, 74, 113
2, 70348, Note_on_c, 0, 74, 0
2, 70368, Note_on_c, 0, 74, 120
2, 70368, Note_on_c, 0, 86, 120
2, 70392, Note_on_c, 0, 86, 0
2, 70392, Note_on_c, 0, 74, 0
2, 70656, Note_on_c, 0, 82, 118
2, 70691, Note_on_c, 0, 82, 0
2, 70728, Note_on_c, 0, 70, 113
2, 70740, Note_on_c, 0, 70, 0
2, 70752, Note_on_c, 0, 70, 113
2, 70776, Note_on_c, 0, 70, 0
2, 70800, Note_on_c, 0, 82, 118
2, 70824, Note_on_c, 0, 82, 0
2, 70848, Note_on_c, 0, 79, 113
2, 70872, Note_on_c, 0, 79, 0
2, 70896, Note_on_c, 0, 77, 113
2, 70920, Note_on_c, 0, 77, 0
2, 70944, Note_on_c, 0, 76, 118
2, 70968, Note_on_c, 0, 76, 0
2, 71234, Note_on_c, 0, 81, 118
2, 71269, Note_on_c, 0, 81, 0
2, 71306, Note_on_c, 0, 69, 113
2, 71318, Note_on_c, 0, 69, 0
2, 71330, Note_on_c, 0, 69, 113
2, 71354, Note_on_c, 0, 69, 0
2, 71378, Note_on_c, 0, 81, 118
2, 71402, Note_on_c, 0, 81, 0
2, 71426, Note_on_c, 0, 77, 113
2, 71450, Note_on_c, 0, 77, 0
2, 71474, Note_on_c, 0, 76, 113
2, 71498, Note_on_c, 0, 76, 0
2, 71520, Control_c, 0, 6, 64
2, 71520, Note_on_c, 0, 74, 60
2, 71712, Note_on_c, 0, 74, 0
2, 71712, Note_on_c, 0, 76, 60
2, 71760, Note_on_c, 0, 76, 0
2, 71760, Note_on_c, 0, 78, 60
2, 71808, Note_on_c, 0, 78, 0
2, 71808, Control_c, 0, 11, 60
2, 71808, Note_on_c, 0, 79, 110
2, 71823, Control_c, 0, 11, 61
2, 71837, Control_c, 0, 11, 62
2, 71852, Control_c, 0, 11, 63
2, 71866, Control_c, 0, 11, 64
2, 71880, Control_c, 0, 11, 65
2, 71895, Control_c, 0, 11, 66
2, 71909, Control_c, 0, 11, 67
2, 71923, Control_c, 0, 11, 68
2, 71938, Control_c, 0, 11, 69
2, 71950, Note_on_c, 0, 79, 0
2, 71952, Note_on_c, 0, 79, 110
2, 71952, Control_c, 0, 11, 70
2, 71966, Control_c, 0, 11, 71
2, 71981, Control_c, 0, 11, 72
2, 71995, Control_c, 0, 11, 73
2, 72009, Control_c, 0, 11, 74
2, 72024, Control_c, 0, 11, 75
2, 72038, Control_c, 0, 11, 76
2, 72052, Control_c, 0, 11, 77
2, 72067, Control_c, 0, 11, 78
2, 72081, Control_c, 0, 11, 79
2, 72094, Note_on_c, 0, 79, 0
2, 72095, Control_c, 0, 11, 80
2, 72096, Control_c, 0, 11, 80
2, 72096, Note_on_c, 0, 79, 110
2, 72111, Control_c, 0, 11, 79
2, 72125, Control_c, 0, 11, 78
2, 72140, Control_c, 0, 11, 77
2, 72154, Control_c, 0, 11, 76
2, 72168, Control_c, 0, 11, 75
2, 72183, Control_c, 0, 11, 74
2, 72197, Control_c, 0, 11, 73
2, 72211, Control_c, 0, 11, 72
2, 72226, Control_c, 0, 11, 71
2, 72238, Note_on_c, 0, 79, 0
2, 72240, Note_on_c, 0, 79, 110
2, 72240, Control_c, 0, 11, 70
2, 72254, Control_c, 0, 11, 69
2, 72269, Control_c, 0, 11, 68
2, 72283, Control_c, 0, 11, 67
2, 72288, Note_on_c, 0, 79, 0
2, 72288, Note_on_c, 0, 77, 110
2, 72297, Control_c, 0, 11, 66
2, 72312, Control_c, 0, 11, 65
2, 72326, Control_c, 0, 11, 64
2, 72336, Note_on_c, 0, 77, 0
2, 72336, Note_on_c, 0, 76, 110
2, 72340, Control_c, 0, 11, 63
2, 72355, Control_c, 0, 11, 62
2, 72369, Control_c, 0, 11, 61
2, 72383, Control_c, 0, 11, 60
2, 72384, Note_on_c, 0, 76, 0
2, 72960, Control_c, 0, 6, 14
2, 73248, Control_c, 0, 11, 120
2, 73248, Note_on_c, 0, 77, 105
2, 73272, Note_on_c, 0, 77, 0
2, 73296, Note_on_c, 0, 74, 100
2, 73320, Note_on_c, 0, 74, 0
2, 73344, Note_on_c, 0, 79, 100
2, 73368, Note_on_c, 0, 79, 0
2, 73392, Note_on_c, 0, 76, 105
2, 73416, Note_on_c, 0, 76, 0
2, 73440, Note_on_c, 0, 73, 100
2, 73464, Note_on_c, 0, 73, 0
2, 73488, Note_on_c, 0, 77, 100
2, 73512, Note_on_c, 0, 77, 0
2, 73536, Note_on_c, 0, 74, 105
2, 73560, Note_on_c, 0, 74, 0
2, 73824, Note_on_c, 0, 77, 105
2, 73848, Note_on_c, 0, 77, 0
2, 73872, Note_on_c, 0, 74, 100
2, 73896, Note_on_c, 0, 74, 0
2, 73920, Note_on_c, 0, 79, 100
2, 73944, Note_on_c, 0, 79, 0
2, 73968, Note_on_c, 0, 76, 105
2, 73992, Note_on_c, 0, 76, 0
2, 74016, Note_on_c, 0, 73, 100
2, 74040, Note_on_c, 0, 73, 0
2, 74064, Note_on_c, 0, 77, 100
2, 74088, Note_on_c, 0, 77, 0
2, 74112, Note_on_c, 0, 86, 110
2, 74147, Note_on_c, 0, 86, 0
2, 74184, Note_on_c, 0, 74, 100
2, 74196, Note_on_c, 0, 74, 0
2, 74208, Note_on_c, 0, 74, 100
2, 74232, Note_on_c, 0, 74, 0
2, 74256, Note_on_c, 0, 69, 105
2, 74280, Note_on_c, 0, 69, 0
2, 74400, Note_on_c, 0, 86, 110
2, 74435, Note_on_c, 0, 86, 0
2, 74472, Note_on_c, 0, 74, 100
2, 74484, Note_on_c, 0, 74, 0
2, 74496, Note_on_c, 0, 74, 100
2, 74520, Note_on_c, 0, 74, 0
2, 74544, Note_on_c, 0, 69, 105
2, 74568, Note_on_c, 0, 69, 0
2, 74682, Control_c, 0, 6, 64
2, 74688, Note_on_c, 0, 79, 64
2, 74736, Note_on_c, 0, 79, 0
2, 74736, Note_on_c, 0, 76, 61
2, 74784, Note_on_c, 0, 76, 0
2, 74784, Note_on_c, 0, 73, 58
2, 74832, Note_on_c, 0, 73, 0
2, 74832, Note_on_c, 0, 67, 52
2, 74880, Note_on_c, 0, 67, 0
2, 74880, Note_on_c, 0, 64, 49
2, 74928, Note_on_c, 0, 64, 0
2, 74928, Note_on_c, 0, 61, 46
2, 74976, Note_on_c, 0, 61, 0
2, 74976, Note_on_c, 0, 55, 40
2, 75024, Note_on_c, 0, 55, 0
2, 75024, Note_on_c, 0, 61, 46
2, 75072, Note_on_c, 0, 61, 0
2, 75072, Note_on_c, 0, 64, 49
2, 75120, Note_on_c, 0, 64, 0
2, 75120, Note_on_c, 0, 67, 52
2, 75168, Note_on_c, 0, 67, 0
2, 75168, Note_on_c, 0, 73, 58
2, 75216, Note_on_c, 0, 73, 0
2, 75216, Note_on_c, 0, 76, 61
2, 75264, Note_on_c, 0, 76, 0
2, 75264, Control_c, 0, 6, 14
2, 75264, Note_on_c, 0, 74, 60
2, 75299, Note_on_c, 0, 74, 0
2, 75336, Note_on_c, 0, 62, 50
2, 75348, Note_on_c, 0, 62, 0
2, 75360, Note_on_c, 0, 62, 50
2, 75384, Note_on_c, 0, 62, 0
2, 75408, Note_on_c, 0, 62, 55
2, 75432, Note_on_c, 0, 62, 0
2, 75552, Note_on_c, 0, 74, 60
2, 75587, Note_on_c, 0, 74, 0
2, 75624, Note_on_c, 0, 62, 50
2, 75636, Note_on_c, 0, 62, 0
2, 75648, Note_on_c, 0, 62, 50
2, 75672, Note_on_c, 0, 62, 0
2, 75696, Note_on_c, 0, 62, 55
2, 75720, Note_on_c, 0, 62, 0
2, 76416, Note_on_c, 0, 74, 60
2, 76451, Note_on_c, 0, 74, 0
2, 76488, Note_on_c, 0, 62, 50
2, 76500, Note_on_c, 0, 62, 0
2, 76512, Note_on_c, 0, 62, 50
2, 76536, Note_on_c, 0, 62, 0
2, 76560, Note_on_c, 0, 62, 55
2, 76584, Note_on_c, 0, 62, 0
2, 76704, Note_on_c, 0, 74, 60
2, 76739, Note_on_c, 0, 74, 0
2, 76776, Note_on_c, 0, 62, 50
2, 76788, Note_on_c, 0, 62, 0
2, 76800, Note_on_c, 0, 62, 50
2, 76824, Note_on_c, 0, 62, 0
2, 76848, Note_on_c, 0, 62, 50
2, 76848, Note_on_c, 0, 65, 50
2, 76872, Note_on_c, 0, 65, 0
2, 76872, Note_on_c, 0, 62, 0
2, 76992, Note_on_c, 0, 74, 60
2, 77027, Note_on_c, 0, 74, 0
2, 77064, Note_on_c, 0, 62, 50
2, 77076, Note_on_c, 0, 62, 0
2, 77088, Note_on_c, 0, 62, 50
2, 77112, Note_on_c, 0, 62, 0
2, 77136, Note_on_c, 0, 62, 50
2, 77136, Note_on_c, 0, 70, 50
2, 77160, Note_on_c, 0, 70, 0
2, 77160, Note_on_c, 0, 62, 0
2, 77280, Note_on_c, 0, 70, 60
2, 77315, Note_on_c, 0, 70, 0
2, 77352, Note_on_c, 0, 58, 50
2, 77364, Note_on_c, 0, 58, 0
2, 77376, Note_on_c, 0, 58, 50
2, 77400, Note_on_c, 0, 58, 0
2, 77424, Note_on_c, 0, 58, 50
2, 77448, Note_on_c, 0, 58, 0
2, 78144, Note_on_c, 0, 75, 70
2, 78179, Note_on_c, 0, 75, 0
2, 78216, Note_on_c, 0, 63, 61
2, 78228, Note_on_c, 0, 63, 0
2, 78240, Note_on_c, 0, 63, 61
2, 78264, Note_on_c, 0, 63, 0
2, 78288, Note_on_c, 0, 63, 65
2, 78312, Note_on_c, 0, 63, 0
2, 78432, Note_on_c, 0, 75, 75
2, 78467, Note_on_c, 0, 75, 0
2, 78504, Note_on_c, 0, 63, 67
2, 78516, Note_on_c, 0, 63, 0
2, 78528, Note_on_c, 0, 63, 67
2, 78552, Note_on_c, 0, 63, 0
2, 78576, Note_on_c, 0, 65, 71
2, 78600, Note_on_c, 0, 65, 0
2, 78720, Note_on_c, 0, 77, 80
2, 78755, Note_on_c, 0, 77, 0
2, 78792, Note_on_c, 0, 65, 72
2, 78804, Note_on_c, 0, 65, 0
2, 78816, Note_on_c, 0, 65, 73
2, 78840, Note_on_c, 0, 65, 0
2, 78864, Note_on_c, 0, 65, 74
2, 78888, Note_on_c, 0, 65, 0
2, 79008, Note_on_c, 0, 78, 86
2, 79043, Note_on_c, 0, 78, 0
2, 79080, Note_on_c, 0, 66, 78
2, 79092, Note_on_c, 0, 66, 0
2, 79104, Note_on_c, 0, 66, 78
2, 79128, Note_on_c, 0, 66, 0
2, 79152, Note_on_c, 0, 66, 79
2, 79176, Note_on_c, 0, 66, 0
2, 79296, Note_on_c, 0, 78, 92
2, 79331, Note_on_c, 0, 78, 0
2, 79368, Note_on_c, 0, 66, 83
2, 79380, Note_on_c, 0, 66, 0
2, 79392, Note_on_c, 0, 66, 84
2, 79416, Note_on_c, 0, 66, 0
2, 79440, Note_on_c, 0, 68, 85
2, 79464, Note_on_c, 0, 68, 0
2, 79584, Note_on_c, 0, 80, 98
2, 79619, Note_on_c, 0, 80, 0
2, 79656, Note_on_c, 0, 68, 89
2, 79668, Note_on_c, 0, 68, 0
2, 79680, Note_on_c, 0, 68, 90
2, 79704, Note_on_c, 0, 68, 0
2, 79728, Note_on_c, 0, 68, 90
2, 79752, Note_on_c, 0, 68, 0
2, 79872, Note_on_c, 0, 81, 110
2, 79907, Note_on_c, 0, 81, 0
2, 79944, Note_on_c, 0, 69, 100
2, 79956, Note_on_c, 0, 69, 0
2, 79968, Note_on_c, 0, 69, 100
2, 79992, Note_on_c, 0, 69, 0
2, 80160, Note_on_c, 0, 82, 119
2, 80195, Note_on_c, 0, 82, 0
2, 80232, Note_on_c, 0, 70, 113
2, 80244, Note_on_c, 0, 70, 0
2, 80256, Note_on_c, 0, 70, 113
2, 80280, Note_on_c, 0, 70, 0
2, 80448, Note_on_c, 0, 83, 120
2, 80483, Note_on_c, 0, 83, 0
2, 80520, Note_on_c, 0, 71, 113
2, 80532, Note_on_c, 0, 71, 0
2, 80544, Note_on_c, 0, 71, 113
2, 80568, Note_on_c, 0, 71, 0
2, 80784, Program_c, 0, 45
2, 80788, Control_c, 0, 7, 105
2, 80928, Note_on_c, 0, 64, 60
2, 80952, Note_on_c, 0, 64, 0
2, 81072, Note_on_c, 0, 59, 57
2, 81096, Note_on_c, 0, 59, 0
2, 81360, Note_on_c, 0, 64, 60
2, 81384, Note_on_c, 0, 64, 0
2, 81504, Note_on_c, 0, 59, 57
2, 81528, Note_on_c, 0, 59, 0
2, 81792, Note_on_c, 0, 64, 60
2, 81816, Note_on_c, 0, 64, 0
2, 81936, Note_on_c, 0, 59, 57
2, 81960, Note_on_c, 0, 59, 0
2, 82224, Note_on_c, 0, 76, 60
2, 82248, Note_on_c, 0, 76, 0
2, 82368, Note_on_c, 0, 64, 57
2, 82392, Note_on_c, 0, 64, 0
2, 82656, Note_on_c, 0, 69, 60
2, 82680, Note_on_c, 0, 69, 0
2, 82800, Note_on_c, 0, 64, 57
2, 82824, Note_on_c, 0, 64, 0
2, 83088, Note_on_c, 0, 69, 60
2, 83112, Note_on_c, 0, 69, 0
2, 83232, Note_on_c, 0, 64, 57
2, 83256, Note_on_c, 0, 64, 0
2, 83520, Note_on_c, 0, 77, 60
2, 83544, Note_on_c, 0, 77, 0
2, 83664, Note_on_c, 0, 65, 57
2, 83688, Note_on_c, 0, 65, 0
2, 83952, Note_on_c, 0, 77, 60
2, 83976, Note_on_c, 0, 77, 0
2, 84096, Note_on_c, 0, 65, 57
2, 84120, Note_on_c, 0, 65, 0
2, 84384, Note_on_c, 0, 77, 60
2, 84408, Note_on_c, 0, 77, 0
2, 84528, Note_on_c, 0, 65, 57
2, 84552, Note_on_c, 0, 65, 0
2, 84816, Note_on_c, 0, 77, 60
2, 84840, Note_on_c, 0, 77, 0
2, 84960, Note_on_c, 0, 65, 57
2, 84984, Note_on_c, 0, 65, 0
2, 85104, Note_on_c, 0, 77, 60
2, 85128, Note_on_c, 0, 77, 0
2, 85248, Note_on_c, 0, 65, 57
2, 85272, Note_on_c, 0, 65, 0
2, 85392, Note_on_c, 0, 77, 60
2, 85416, Note_on_c, 0, 77, 0
2, 85536, Program_c, 0, 48
2, 85536, Control_c, 0, 7, 123
2, 85536, Note_on_c, 0, 76, 55
2, 85560, Note_on_c, 0, 76, 0
2, 85584, Note_on_c, 0, 77, 50
2, 85608, Note_on_c, 0, 77, 0
2, 85632, Note_on_c, 0, 79, 50
2, 85656, Note_on_c, 0, 79, 0
2, 85680, Note_on_c, 0, 79, 55
2, 85704, Note_on_c, 0, 79, 0
2, 85728, Note_on_c, 0, 77, 50
2, 85752, Note_on_c, 0, 77, 0
2, 85776, Note_on_c, 0, 76, 50
2, 85800, Note_on_c, 0, 76, 0
2, 85824, Note_on_c, 0, 76, 55
2, 85848, Note_on_c, 0, 76, 0
2, 85872, Note_on_c, 0, 77, 50
2, 85896, Note_on_c, 0, 77, 0
2, 85920, Note_on_c, 0, 76, 50
2, 85944, Note_on_c, 0, 76, 0
2, 85968, Program_c, 0, 45
2, 85968, Control_c, 0, 7, 105
2, 85968, Note_on_c, 0, 74, 50
2, 85992, Note_on_c, 0, 74, 0
2, 86112, Note_on_c, 0, 62, 47
2, 86136, Note_on_c, 0, 62, 0
2, 86256, Note_on_c, 0, 74, 50
2, 86280, Note_on_c, 0, 74, 0
2, 86400, Program_c, 0, 48
2, 86400, Control_c, 0, 7, 123
2, 86400, Note_on_c, 0, 73, 55
2, 86424, Note_on_c, 0, 73, 0
2, 86448, Note_on_c, 0, 74, 50
2, 86472, Note_on_c, 0, 74, 0
2, 86496, Note_on_c, 0, 76, 50
2, 86520, Note_on_c, 0, 76, 0
2, 86544, Note_on_c, 0, 76, 55
2, 86568, Note_on_c, 0, 76, 0
2, 86592, Note_on_c, 0, 74, 50
2, 86616, Note_on_c, 0, 74, 0
2, 86640, Note_on_c, 0, 73, 50
2, 86664, Note_on_c, 0, 73, 0
2, 86688, Note_on_c, 0, 73, 55
2, 86712, Note_on_c, 0, 73, 0
2, 86736, Note_on_c, 0, 74, 50
2, 86760, Note_on_c, 0, 74, 0
2, 86784, Note_on_c, 0, 73, 50
2, 86808, Note_on_c, 0, 73, 0
2, 86976, Program_c, 0, 45
2, 86976, Control_c, 0, 7, 105
2, 86976, Note_on_c, 0, 69, 50
2, 87000, Note_on_c, 0, 69, 0
2, 87120, Note_on_c, 0, 81, 47
2, 87144, Note_on_c, 0, 81, 0
2, 87264, Program_c, 0, 48
2, 87264, Control_c, 0, 7, 123
2, 87264, Note_on_c, 0, 73, 55
2, 87288, Note_on_c, 0, 73, 0
2, 87312, Note_on_c, 0, 74, 50
2, 87336, Note_on_c, 0, 74, 0
2, 87360, Note_on_c, 0, 76, 50
2, 87384, Note_on_c, 0, 76, 0
2, 87408, Note_on_c, 0, 76, 55
2, 87432, Note_on_c, 0, 76, 0
2, 87456, Note_on_c, 0, 74, 50
2, 87480, Note_on_c, 0, 74, 0
2, 87504, Note_on_c, 0, 73, 50
2, 87528, Note_on_c, 0, 73, 0
2, 87552, Note_on_c, 0, 73, 55
2, 87576, Note_on_c, 0, 73, 0
2, 87600, Note_on_c, 0, 74, 50
2, 87624, Note_on_c, 0, 74, 0
2, 87648, Note_on_c, 0, 73, 50
2, 87672, Note_on_c, 0, 73, 0
2, 87696, Note_on_c, 0, 73, 55
2, 87720, Note_on_c, 0, 73, 0
2, 87744, Note_on_c, 0, 74, 50
2, 87768, Note_on_c, 0, 74, 0
2, 87792, Note_on_c, 0, 76, 50
2, 87816, Note_on_c, 0, 76, 0
2, 87840, Note_on_c, 0, 77, 55
2, 87864, Note_on_c, 0, 77, 0
2, 87984, Program_c, 0, 45
2, 87984, Control_c, 0, 7, 105
2, 87984, Note_on_c, 0, 57, 50
2, 88008, Note_on_c, 0, 57, 0
2, 88272, Note_on_c, 0, 62, 50
2, 88296, Note_on_c, 0, 62, 0
2, 88416, Note_on_c, 0, 57, 47
2, 88440, Note_on_c, 0, 57, 0
2, 88704, Note_on_c, 0, 62, 50
2, 88728, Note_on_c, 0, 62, 0
2, 88848, Note_on_c, 0, 57, 47
2, 88872, Note_on_c, 0, 57, 0
2, 89280, Program_c, 0, 48
2, 89280, Control_c, 0, 7, 123
2, 89856, Note_on_c, 0, 79, 60
2, 89891, Note_on_c, 0, 79, 0
2, 89928, Note_on_c, 0, 67, 50
2, 89940, Note_on_c, 0, 67, 0
2, 89952, Note_on_c, 0, 67, 50
2, 89976, Note_on_c, 0, 67, 0
2, 90000, Note_on_c, 0, 72, 55
2, 90024, Note_on_c, 0, 72, 0
2, 90048, Note_on_c, 0, 74, 50
2, 90072, Note_on_c, 0, 74, 0
2, 90096, Note_on_c, 0, 75, 50
2, 90120, Note_on_c, 0, 75, 0
2, 90144, Note_on_c, 0, 74, 55
2, 90168, Note_on_c, 0, 74, 0
2, 90192, Note_on_c, 0, 75, 50
2, 90216, Note_on_c, 0, 75, 0
2, 90240, Note_on_c, 0, 77, 50
2, 90264, Note_on_c, 0, 77, 0
2, 90288, Note_on_c, 0, 75, 55
2, 90312, Note_on_c, 0, 75, 0
2, 90336, Note_on_c, 0, 74, 50
2, 90360, Note_on_c, 0, 74, 0
2, 90384, Note_on_c, 0, 75, 50
2, 90408, Note_on_c, 0, 75, 0
2, 90432, Note_on_c, 0, 74, 55
2, 90456, Note_on_c, 0, 74, 0
2, 90480, Note_on_c, 0, 75, 50
2, 90504, Note_on_c, 0, 75, 0
2, 90528, Note_on_c, 0, 77, 50
2, 90552, Note_on_c, 0, 77, 0
2, 90576, Note_on_c, 0, 75, 55
2, 90600, Note_on_c, 0, 75, 0
2, 90624, Note_on_c, 0, 74, 50
2, 90648, Note_on_c, 0, 74, 0
2, 90672, Note_on_c, 0, 75, 50
2, 90696, Note_on_c, 0, 75, 0
2, 90720, Note_on_c, 0, 82, 60
2, 90755, Note_on_c, 0, 82, 0
2, 90792, Note_on_c, 0, 70, 50
2, 90804, Note_on_c, 0, 70, 0
2, 90816, Note_on_c, 0, 70, 50
2, 90840, Note_on_c, 0, 70, 0
2, 90864, Note_on_c, 0, 75, 55
2, 90888, Note_on_c, 0, 75, 0
2, 90912, Note_on_c, 0, 77, 50
2, 90936, Note_on_c, 0, 77, 0
2, 90960, Note_on_c, 0, 79, 50
2, 90984, Note_on_c, 0, 79, 0
2, 91008, Note_on_c, 0, 80, 50
2, 91583, Note_on_c, 0, 80, 0
2, 91584, Note_on_c, 0, 79, 55
2, 91608, Note_on_c, 0, 79, 0
2, 91632, Note_on_c, 0, 77, 50
2, 91656, Note_on_c, 0, 77, 0
2, 91680, Note_on_c, 0, 75, 50
2, 91704, Note_on_c, 0, 75, 0
2, 91728, Note_on_c, 0, 82, 55
2, 91752, Note_on_c, 0, 82, 0
2, 91776, Note_on_c, 0, 80, 50
2, 91800, Note_on_c, 0, 80, 0
2, 91824, Note_on_c, 0, 79, 50
2, 91848, Note_on_c, 0, 79, 0
2, 91872, Note_on_c, 0, 79, 55
2, 91896, Note_on_c, 0, 79, 0
2, 91920, Note_on_c, 0, 77, 50
2, 91944, Note_on_c, 0, 77, 0
2, 91968, Note_on_c, 0, 75, 50
2, 91992, Note_on_c, 0, 75, 0
2, 92016, Note_on_c, 0, 82, 55
2, 92040, Note_on_c, 0, 82, 0
2, 92064, Note_on_c, 0, 80, 50
2, 92088, Note_on_c, 0, 80, 0
2, 92112, Note_on_c, 0, 79, 50
2, 92136, Note_on_c, 0, 79, 0
2, 92160, Control_c, 0, 6, 64
2, 92160, Control_c, 0, 11, 50
2, 92160, Note_on_c, 0, 80, 120
2, 92177, Control_c, 0, 11, 51
2, 92193, Control_c, 0, 11, 52
2, 92210, Control_c, 0, 11, 53
2, 92226, Control_c, 0, 11, 54
2, 92243, Control_c, 0, 11, 55
2, 92259, Control_c, 0, 11, 56
2, 92276, Control_c, 0, 11, 57
2, 92292, Control_c, 0, 11, 58
2, 92308, Control_c, 0, 11, 59
2, 92325, Control_c, 0, 11, 60
2, 92341, Control_c, 0, 11, 61
2, 92358, Control_c, 0, 11, 62
2, 92374, Control_c, 0, 11, 63
2, 92391, Control_c, 0, 11, 64
2, 92407, Control_c, 0, 11, 65
2, 92424, Control_c, 0, 11, 66
2, 92440, Control_c, 0, 11, 67
2, 92456, Control_c, 0, 11, 68
2, 92473, Control_c, 0, 11, 69
2, 92489, Control_c, 0, 11, 70
2, 92506, Control_c, 0, 11, 71
2, 92522, Control_c, 0, 11, 72
2, 92539, Control_c, 0, 11, 73
2, 92555, Control_c, 0, 11, 74
2, 92572, Control_c, 0, 11, 75
2, 92588, Control_c, 0, 11, 76
2, 92604, Control_c, 0, 11, 77
2, 92621, Control_c, 0, 11, 78
2, 92637, Control_c, 0, 11, 79
2, 92654, Control_c, 0, 11, 80
2, 92670, Control_c, 0, 11, 81
2, 92687, Control_c, 0, 11, 82
2, 92703, Control_c, 0, 11, 83
2, 92720, Control_c, 0, 11, 84
2, 92735, Note_on_c, 0, 80, 0
2, 92736, Note_on_c, 0, 81, 120
2, 92736, Control_c, 0, 11, 85
2, 92752, Control_c, 0, 11, 86
2, 92769, Control_c, 0, 11, 87
2, 92785, Control_c, 0, 11, 88
2, 92802, Control_c, 0, 11, 89
2, 92818, Control_c, 0, 11, 90
2, 92835, Control_c, 0, 11, 91
2, 92851, Control_c, 0, 11, 92
2, 92868, Control_c, 0, 11, 93
2, 92884, Control_c, 0, 11, 94
2, 92900, Control_c, 0, 11, 95
2, 92917, Control_c, 0, 11, 96
2, 92933, Control_c, 0, 11, 97
2, 92950, Control_c, 0, 11, 98
2, 92966, Control_c, 0, 11, 99
2, 92983, Control_c, 0, 11, 100
2, 92999, Control_c, 0, 11, 101
2, 93016, Control_c, 0, 11, 102
2, 93023, Note_on_c, 0, 81, 0
2, 93024, Note_on_c, 0, 86, 120
2, 93032, Control_c, 0, 11, 103
2, 93048, Control_c, 0, 11, 104
2, 93065, Control_c, 0, 11, 105
2, 93081, Control_c, 0, 11, 106
2, 93098, Control_c, 0, 11, 107
2, 93114, Control_c, 0, 11, 108
2, 93131, Control_c, 0, 11, 109
2, 93147, Control_c, 0, 11, 110
2, 93164, Control_c, 0, 11, 111
2, 93180, Control_c, 0, 11, 112
2, 93196, Control_c, 0, 11, 113
2, 93213, Control_c, 0, 11, 114
2, 93229, Control_c, 0, 11, 115
2, 93246, Control_c, 0, 11, 116
2, 93262, Control_c, 0, 11, 117
2, 93279, Control_c, 0, 11, 118
2, 93295, Control_c, 0, 11, 119
2, 93311, Note_on_c, 0, 86, 0
2, 93311, Control_c, 0, 11, 120
2, 93312, Control_c, 0, 6, 14
2, 93312, Note_on_c, 0, 69, 120
2, 93312, Note_on_c, 0, 89, 120
2, 93342, Note_on_c, 0, 89, 0
2, 93342, Note_on_c, 0, 69, 0
2, 93600, Note_on_c, 0, 69, 120
2, 93600, Note_on_c, 0, 93, 120
2, 93630, Note_on_c, 0, 93, 0
2, 93630, Note_on_c, 0, 69, 0
2, 93888, Note_on_c, 0, 69, 125
2, 93888, Note_on_c, 0, 93, 125
2, 93923, Note_on_c, 0, 93, 0
2, 93923, Note_on_c, 0, 69, 0
2, 93960, Note_on_c, 0, 69, 115
2, 93972, Note_on_c, 0, 69, 0
2, 93984, Note_on_c, 0, 69, 115
2, 94008, Note_on_c, 0, 69, 0
2, 94032, Note_on_c, 0, 69, 125
2, 94032, Note_on_c, 0, 93, 125
2, 94067, Note_on_c, 0, 93, 0
2, 94067, Note_on_c, 0, 69, 0
2, 94104, Note_on_c, 0, 69, 115
2, 94116, Note_on_c, 0, 69, 0
2, 94128, Note_on_c, 0, 69, 115
2, 94152, Note_on_c, 0, 69, 0
2, 94176, Note_on_c, 0, 69, 125
2, 94176, Note_on_c, 0, 93, 125
2, 94211, Note_on_c, 0, 93, 0
2, 94211, Note_on_c, 0, 69, 0
2, 94248, Note_on_c, 0, 69, 115
2, 94260, Note_on_c, 0, 69, 0
2, 94272, Note_on_c, 0, 69, 115
2, 94296, Note_on_c, 0, 69, 0
2, 94320, Note_on_c, 0, 69, 125
2, 94320, Note_on_c, 0, 93, 125
2, 94355, Note_on_c, 0, 93, 0
2, 94355, Note_on_c, 0, 69, 0
2, 94392, Note_on_c, 0, 69, 115
2, 94404, Note_on_c, 0, 69, 0
2, 94416, Note_on_c, 0, 69, 115
2, 94440, Note_on_c, 0, 69, 0
2, 94464, Note_on_c, 0, 69, 125
2, 94464, Note_on_c, 0, 93, 125
2, 94499, Note_on_c, 0, 93, 0
2, 94499, Note_on_c, 0, 69, 0
2, 94536, Note_on_c, 0, 69, 115
2, 94548, Note_on_c, 0, 69, 0
2, 94560, Note_on_c, 0, 69, 115
2, 94584, Note_on_c, 0, 69, 0
2, 94608, Note_on_c, 0, 86, 120
2, 94632, Note_on_c, 0, 86, 0
2, 94656, Note_on_c, 0, 88, 115
2, 94680, Note_on_c, 0, 88, 0
2, 94704, Note_on_c, 0, 89, 115
2, 94728, Note_on_c, 0, 89, 0
2, 94752, Note_on_c, 0, 88, 120
2, 94776, Note_on_c, 0, 88, 0
2, 94800, Note_on_c, 0, 89, 115
2, 94824, Note_on_c, 0, 89, 0
2, 94848, Note_on_c, 0, 91, 115
2, 94872, Note_on_c, 0, 91, 0
2, 94896, Note_on_c, 0, 89, 120
2, 94920, Note_on_c, 0, 89, 0
2, 94944, Note_on_c, 0, 88, 115
2, 94968, Note_on_c, 0, 88, 0
2, 94992, Note_on_c, 0, 86, 115
2, 95016, Note_on_c, 0, 86, 0
2, 95040, Note_on_c, 0, 82, 120
2, 95064, Note_on_c, 0, 82, 0
2, 95088, Note_on_c, 0, 81, 115
2, 95112, Note_on_c, 0, 81, 0
2, 95136, Note_on_c, 0, 79, 115
2, 95160, Note_on_c, 0, 79, 0
2, 95184, Note_on_c, 0, 77, 120
2, 95208, Note_on_c, 0, 77, 0
2, 95232, Note_on_c, 0, 88, 115
2, 95256, Note_on_c, 0, 88, 0
2, 95280, Note_on_c, 0, 86, 115
2, 95304, Note_on_c, 0, 86, 0
2, 95328, Note_on_c, 0, 85, 120
2, 95352, Note_on_c, 0, 85, 0
2, 95376, Note_on_c, 0, 86, 115
2, 95400, Note_on_c, 0, 86, 0
2, 95424, Note_on_c, 0, 88, 115
2, 95448, Note_on_c, 0, 88, 0
2, 95472, Note_on_c, 0, 86, 120
2, 95496, Note_on_c, 0, 86, 0
2, 95520, Note_on_c, 0, 85, 115
2, 95544, Note_on_c, 0, 85, 0
2, 95568, Note_on_c, 0, 86, 115
2, 95592, Note_on_c, 0, 86, 0
2, 95616, Note_on_c, 0, 82, 120
2, 95640, Note_on_c, 0, 82, 0
2, 95664, Note_on_c, 0, 81, 115
2, 95688, Note_on_c, 0, 81, 0
2, 95712, Note_on_c, 0, 79, 115
2, 95736, Note_on_c, 0, 79, 0
2, 95760, Note_on_c, 0, 77, 120
2, 95784, Note_on_c, 0, 77, 0
2, 95808, Note_on_c, 0, 88, 115
2, 95832, Note_on_c, 0, 88, 0
2, 95856, Note_on_c, 0, 86, 115
2, 95880, Note_on_c, 0, 86, 0
2, 95904, Note_on_c, 0, 85, 120
2, 95928, Note_on_c, 0, 85, 0
2, 95952, Note_on_c, 0, 86, 115
2, 95976, Note_on_c, 0, 86, 0
2, 96000, Note_on_c, 0, 88, 115
2, 96024, Note_on_c, 0, 88, 0
2, 96048, Note_on_c, 0, 86, 120
2, 96072, Note_on_c, 0, 86, 0
2, 96096, Note_on_c, 0, 85, 115
2, 96120, Note_on_c, 0, 85, 0
2, 96144, Note_on_c, 0, 86, 115
2, 96168, Note_on_c, 0, 86, 0
2, 96192, Note_on_c, 0, 84, 120
2, 96216, Note_on_c, 0, 84, 0
2, 96240, Note_on_c, 0, 86, 115
2, 96264, Note_on_c, 0, 86, 0
2, 96288, Note_on_c, 0, 87, 115
2, 96312, Note_on_c, 0, 87, 0
2, 96336, Note_on_c, 0, 79, 120
2, 96360, Note_on_c, 0, 79, 0
2, 96384, Note_on_c, 0, 81, 115
2, 96408, Note_on_c, 0, 81, 0
2, 96432, Note_on_c, 0, 82, 115
2, 96456, Note_on_c, 0, 82, 0
2, 96480, Note_on_c, 0, 81, 120
2, 96504, Note_on_c, 0, 81, 0
2, 96528, Note_on_c, 0, 82, 115
2, 96552, Note_on_c, 0, 82, 0
2, 96576, Note_on_c, 0, 84, 115
2, 96600, Note_on_c, 0, 84, 0
2, 96624, Note_on_c, 0, 82, 120
2, 96648, Note_on_c, 0, 82, 0
2, 96672, Note_on_c, 0, 81, 115
2, 96696, Note_on_c, 0, 81, 0
2, 96720, Note_on_c, 0, 79, 115
2, 96744, Note_on_c, 0, 79, 0
2, 96768, Note_on_c, 0, 75, 105
2, 96792, Note_on_c, 0, 75, 0
2, 96819, Note_on_c, 0, 74, 100
2, 96843, Note_on_c, 0, 74, 0
2, 96867, Note_on_c, 0, 72, 100
2, 96891, Note_on_c, 0, 72, 0
2, 96915, Note_on_c, 0, 70, 105
2, 96939, Note_on_c, 0, 70, 0
2, 96963, Note_on_c, 0, 69, 100
2, 96987, Note_on_c, 0, 69, 0
2, 97011, Note_on_c, 0, 67, 100
2, 97035, Note_on_c, 0, 67, 0
2, 97059, Note_on_c, 0, 77, 105
2, 97083, Note_on_c, 0, 77, 0
2, 97107, Note_on_c, 0, 75, 100
2, 97131, Note_on_c, 0, 75, 0
2, 97155, Note_on_c, 0, 74, 100
2, 97179, Note_on_c, 0, 74, 0
2, 97203, Note_on_c, 0, 72, 105
2, 97227, Note_on_c, 0, 72, 0
2, 97251, Note_on_c, 0, 70, 100
2, 97275, Note_on_c, 0, 70, 0
2, 97299, Note_on_c, 0, 69, 100
2, 97323, Note_on_c, 0, 69, 0
2, 97347, Note_on_c, 0, 79, 105
2, 97371, Note_on_c, 0, 79, 0
2, 97395, Note_on_c, 0, 77, 100
2, 97419, Note_on_c, 0, 77, 0
2, 97443, Note_on_c, 0, 75, 100
2, 97467, Note_on_c, 0, 75, 0
2, 97491, Note_on_c, 0, 74, 105
2, 97515, Note_on_c, 0, 74, 0
2, 97539, Note_on_c, 0, 72, 100
2, 97563, Note_on_c, 0, 72, 0
2, 97587, Note_on_c, 0, 70, 100
2, 97611, Note_on_c, 0, 70, 0
2, 97635, Note_on_c, 0, 69, 105
2, 97659, Note_on_c, 0, 69, 0
2, 97683, Note_on_c, 0, 67, 100
2, 97707, Note_on_c, 0, 67, 0
2, 97731, Note_on_c, 0, 65, 100
2, 97755, Note_on_c, 0, 65, 0
2, 97779, Note_on_c, 0, 63, 105
2, 97803, Note_on_c, 0, 63, 0
2, 97827, Note_on_c, 0, 62, 100
2, 97851, Note_on_c, 0, 62, 0
2, 97875, Note_on_c, 0, 60, 100
2, 97899, Note_on_c, 0, 60, 0
2, 97923, Note_on_c, 0, 58, 105
2, 97947, Note_on_c, 0, 58, 0
2, 98208, Note_on_c, 0, 79, 65
2, 98243, Note_on_c, 0, 79, 0
2, 98280, Note_on_c, 0, 67, 64
2, 98292, Note_on_c, 0, 67, 0
2, 98304, Note_on_c, 0, 67, 66
2, 98328, Note_on_c, 0, 67, 0
2, 98352, Note_on_c, 0, 79, 75
2, 98387, Note_on_c, 0, 79, 0
2, 98424, Note_on_c, 0, 67, 74
2, 98436, Note_on_c, 0, 67, 0
2, 98448, Note_on_c, 0, 67, 75
2, 98472, Note_on_c, 0, 67, 0
2, 98496, Note_on_c, 0, 81, 84
2, 98531, Note_on_c, 0, 81, 0
2, 98568, Note_on_c, 0, 69, 83
2, 98580, Note_on_c, 0, 69, 0
2, 98592, Note_on_c, 0, 69, 85
2, 98616, Note_on_c, 0, 69, 0
2, 98640, Note_on_c, 0, 82, 90
2, 98675, Note_on_c, 0, 82, 0
2, 98712, Note_on_c, 0, 70, 85
2, 98724, Note_on_c, 0, 70, 0
2, 98736, Note_on_c, 0, 70, 83
2, 98760, Note_on_c, 0, 70, 0
2, 98784, Note_on_c, 0, 82, 79
2, 98819, Note_on_c, 0, 82, 0
2, 98856, Note_on_c, 0, 70, 74
2, 98868, Note_on_c, 0, 70, 0
2, 98880, Note_on_c, 0, 70, 72
2, 98904, Note_on_c, 0, 70, 0
2, 98928, Note_on_c, 0, 81, 68
2, 98963, Note_on_c, 0, 81, 0
2, 99000, Note_on_c, 0, 69, 62
2, 99012, Note_on_c, 0, 69, 0
2, 99024, Note_on_c, 0, 69, 60
2, 99048, Note_on_c, 0, 69, 0
2, 99648, Note_on_c, 0, 83, 65
2, 99683, Note_on_c, 0, 83, 0
2, 99720, Note_on_c, 0, 71, 63
2, 99732, Note_on_c, 0, 71, 0
2, 99744, Note_on_c, 0, 71, 67
2, 99768, Note_on_c, 0, 71, 0
2, 99792, Note_on_c, 0, 88, 71
2, 99827, Note_on_c, 0, 88, 0
2, 99864, Note_on_c, 0, 76, 76
2, 99876, Note_on_c, 0, 76, 0
2, 99888, Note_on_c, 0, 76, 78
2, 99912, Note_on_c, 0, 76, 0
2, 99936, Note_on_c, 0, 88, 89
2, 99971, Note_on_c, 0, 88, 0
2, 100008, Note_on_c, 0, 76, 88
2, 100020, Note_on_c, 0, 76, 0
2, 100032, Note_on_c, 0, 76, 90
2, 100056, Note_on_c, 0, 76, 0
2, 100080, Note_on_c, 0, 86, 90
2, 100115, Note_on_c, 0, 86, 0
2, 100152, Note_on_c, 0, 74, 85
2, 100164, Note_on_c, 0, 74, 0
2, 100176, Note_on_c, 0, 74, 83
2, 100200, Note_on_c, 0, 74, 0
2, 100224, Note_on_c, 0, 86, 79
2, 100259, Note_on_c, 0, 86, 0
2, 100296, Note_on_c, 0, 74, 74
2, 100308, Note_on_c, 0, 74, 0
2, 100320, Note_on_c, 0, 74, 72
2, 100344, Note_on_c, 0, 74, 0
2, 100368, Note_on_c, 0, 85, 68
2, 100403, Note_on_c, 0, 85, 0
2, 100440, Note_on_c, 0, 73, 62
2, 100452, Note_on_c, 0, 73, 0
2, 100464, Note_on_c, 0, 73, 60
2, 100488, Note_on_c, 0, 73, 0
2, 100944, Note_on_c, 0, 76, 65
2, 100979, Note_on_c, 0, 76, 0
2, 101016, Note_on_c, 0, 64, 69
2, 101028, Note_on_c, 0, 64, 0
2, 101040, Note_on_c, 0, 64, 72
2, 101064, Note_on_c, 0, 64, 0
2, 101088, Note_on_c, 0, 76, 78
2, 101123, Note_on_c, 0, 76, 0
2, 101160, Note_on_c, 0, 64, 87
2, 101172, Note_on_c, 0, 64, 0
2, 101184, Note_on_c, 0, 64, 90
2, 101208, Note_on_c, 0, 64, 0
2, 101232, Note_on_c, 0, 74, 90
2, 101267, Note_on_c, 0, 74, 0
2, 101304, Note_on_c, 0, 62, 85
2, 101316, Note_on_c, 0, 62, 0
2, 101328, Note_on_c, 0, 62, 83
2, 101352, Note_on_c, 0, 62, 0
2, 101376, Note_on_c, 0, 74, 79
2, 101411, Note_on_c, 0, 74, 0
2, 101448, Note_on_c, 0, 62, 74
2, 101460, Note_on_c, 0, 62, 0
2, 101472, Note_on_c, 0, 62, 72
2, 101496, Note_on_c, 0, 62, 0
2, 101520, Note_on_c, 0, 73, 68
2, 101555, Note_on_c, 0, 73, 0
2, 101592, Note_on_c, 0, 61, 62
2, 101604, Note_on_c, 0, 61, 0
2, 101616, Note_on_c, 0, 61, 60
2, 101640, Note_on_c, 0, 61, 0
2, 101664, Program_c, 0, 45
2, 101664, Control_c, 0, 7, 105
2, 101760, Note_on_c, 0, 69, 60
2, 101784, Note_on_c, 0, 69, 0
2, 101904, Note_on_c, 0, 81, 67
2, 101928, Note_on_c, 0, 81, 0
2, 102048, Note_on_c, 0, 78, 74
2, 102072, Note_on_c, 0, 78, 0
2, 102192, Note_on_c, 0, 79, 81
2, 102216, Note_on_c, 0, 79, 0
2, 102336, Note_on_c, 0, 76, 89
2, 102360, Note_on_c, 0, 76, 0
2, 102480, Note_on_c, 0, 78, 96
2, 102504, Note_on_c, 0, 78, 0
2, 102624, Note_on_c, 0, 81, 103
2, 102648, Note_on_c, 0, 81, 0
2, 102768, Note_on_c, 0, 85, 111
2, 102792, Note_on_c, 0, 85, 0
2, 102816, Program_c, 0, 48
2, 102816, Control_c, 0, 7, 123
2, 102816, Note_on_c, 0, 86, 120
2, 102851, Note_on_c, 0, 86, 0
2, 102892, Note_on_c, 0, 74, 113
2, 102904, Note_on_c, 0, 74, 0
2, 102916, Note_on_c, 0, 74, 113
2, 102940, Note_on_c, 0, 74, 0
2, 102964, Note_on_c, 0, 86, 120
2, 102999, Note_on_c, 0, 86, 0
2, 103036, Note_on_c, 0, 74, 113
2, 103048, Note_on_c, 0, 74, 0
2, 103060, Note_on_c, 0, 74, 113
2, 103084, Note_on_c, 0, 74, 0
2, 103108, Note_on_c, 0, 86, 120
2, 103143, Note_on_c, 0, 86, 0
2, 103180, Note_on_c, 0, 74, 113
2, 103192, Note_on_c, 0, 74, 0
2, 103204, Note_on_c, 0, 74, 113
2, 103228, Note_on_c, 0, 74, 0
2, 103252, Note_on_c, 0, 86, 120
2, 103287, Note_on_c, 0, 86, 0
2, 103324, Note_on_c, 0, 74, 113
2, 103336, Note_on_c, 0, 74, 0
2, 103348, Note_on_c, 0, 74, 113
2, 103372, Note_on_c, 0, 74, 0
2, 103396, Note_on_c, 0, 86, 120
2, 103431, Note_on_c, 0, 86, 0
2, 103468, Note_on_c, 0, 74, 113
2, 103480, Note_on_c, 0, 74, 0
2, 103492, Note_on_c, 0, 74, 113
2, 103516, Note_on_c, 0, 74, 0
2, 103540, Note_on_c, 0, 86, 120
2, 103575, Note_on_c, 0, 86, 0
2, 103612, Note_on_c, 0, 74, 113
2, 103624, Note_on_c, 0, 74, 0
2, 103636, Note_on_c, 0, 74, 113
2, 103660, Note_on_c, 0, 74, 0
2, 103684, Note_on_c, 0, 86, 120
2, 103719, Note_on_c, 0, 86, 0
2, 103756, Note_on_c, 0, 74, 113
2, 103768, Note_on_c, 0, 74, 0
2, 103780, Note_on_c, 0, 74, 113
2, 103804, Note_on_c, 0, 74, 0
2, 103828, Note_on_c, 0, 86, 120
2, 103863, Note_on_c, 0, 86, 0
2, 103900, Note_on_c, 0, 74, 113
2, 103912, Note_on_c, 0, 74, 0
2, 103924, Note_on_c, 0, 74, 113
2, 103948, Note_on_c, 0, 74, 0
2, 103972, Note_on_c, 0, 86, 120
2, 104007, Note_on_c, 0, 86, 0
2, 104044, Note_on_c, 0, 74, 113
2, 104056, Note_on_c, 0, 74, 0
2, 104068, Note_on_c, 0, 74, 113
2, 104092, Note_on_c, 0, 74, 0
2, 104116, Note_on_c, 0, 86, 120
2, 104151, Note_on_c, 0, 86, 0
2, 104188, Note_on_c, 0, 74, 113
2, 104200, Note_on_c, 0, 74, 0
2, 104212, Note_on_c, 0, 74, 113
2, 104236, Note_on_c, 0, 74, 0
2, 104260, Note_on_c, 0, 86, 120
2, 104295, Note_on_c, 0, 86, 0
2, 104332, Note_on_c, 0, 74, 113
2, 104344, Note_on_c, 0, 74, 0
2, 104356, Note_on_c, 0, 74, 113
2, 104380, Note_on_c, 0, 74, 0
2, 104404, Note_on_c, 0, 86, 120
2, 104439, Note_on_c, 0, 86, 0
2, 104476, Note_on_c, 0, 74, 113
2, 104488, Note_on_c, 0, 74, 0
2, 104500, Note_on_c, 0, 74, 113
2, 104524, Note_on_c, 0, 74, 0
2, 104548, Note_on_c, 0, 86, 120
2, 104583, Note_on_c, 0, 86, 0
2, 104620, Note_on_c, 0, 74, 113
2, 104632, Note_on_c, 0, 74, 0
2, 104644, Note_on_c, 0, 74, 113
2, 104668, Note_on_c, 0, 74, 0
2, 104692, Note_on_c, 0, 86, 120
2, 104727, Note_on_c, 0, 86, 0
2, 104764, Note_on_c, 0, 74, 113
2, 104776, Note_on_c, 0, 74, 0
2, 104788, Note_on_c, 0, 74, 113
2, 104812, Note_on_c, 0, 74, 0
2, 104836, Note_on_c, 0, 86, 120
2, 104871, Note_on_c, 0, 86, 0
2, 104908, Note_on_c, 0, 74, 113
2, 104920, Note_on_c, 0, 74, 0
2, 104932, Note_on_c, 0, 74, 113
2, 104956, Note_on_c, 0, 74, 0
2, 104980, Note_on_c, 0, 86, 120
2, 105015, Note_on_c, 0, 86, 0
2, 105052, Note_on_c, 0, 74, 113
2, 105064, Note_on_c, 0, 74, 0
2, 105076, Note_on_c, 0, 74, 113
2, 105100, Note_on_c, 0, 74, 0
2, 105120, Note_on_c, 0, 74, 120
2, 105120, Note_on_c, 0, 86, 120
2, 105144, Note_on_c, 0, 86, 0
2, 105144, Note_on_c, 0, 74, 0
2, 105408, Note_on_c, 0, 82, 118
2, 105443, Note_on_c, 0, 82, 0
2, 105480, Note_on_c, 0, 70, 113
2, 105492, Note_on_c, 0, 70, 0
2, 105504, Note_on_c, 0, 70, 113
2, 105528, Note_on_c, 0, 70, 0
2, 105552, Note_on_c, 0, 82, 118
2, 105576, Note_on_c, 0, 82, 0
2, 105600, Note_on_c, 0, 79, 113
2, 105624, Note_on_c, 0, 79, 0
2, 105648, Note_on_c, 0, 77, 113
2, 105672, Note_on_c, 0, 77, 0
2, 105696, Note_on_c, 0, 76, 118
2, 105720, Note_on_c, 0, 76, 0
2, 105986, Note_on_c, 0, 81, 118
2, 106021, Note_on_c, 0, 81, 0
2, 106058, Note_on_c, 0, 69, 113
2, 106070, Note_on_c, 0, 69, 0
2, 106082, Note_on_c, 0, 69, 113
2, 106106, Note_on_c, 0, 69, 0
2, 106130, Note_on_c, 0, 81, 118
2, 106154, Note_on_c, 0, 81, 0
2, 106178, Note_on_c, 0, 77, 113
2, 106202, Note_on_c, 0, 77, 0
2, 106226, Note_on_c, 0, 76, 113
2, 106250, Note_on_c, 0, 76, 0
2, 106272, Control_c, 0, 6, 64
2, 106272, Note_on_c, 0, 74, 60
2, 106464, Note_on_c, 0, 74, 0
2, 106464, Note_on_c, 0, 76, 60
2, 106512, Note_on_c, 0, 76, 0
2, 106512, Note_on_c, 0, 78, 60
2, 106560, Note_on_c, 0, 78, 0
2, 106560, Control_c, 0, 11, 60
2, 106560, Note_on_c, 0, 79, 110
2, 106575, Control_c, 0, 11, 61
2, 106589, Control_c, 0, 11, 62
2, 106604, Control_c, 0, 11, 63
2, 106618, Control_c, 0, 11, 64
2, 106632, Control_c, 0, 11, 65
2, 106647, Control_c, 0, 11, 66
2, 106661, Control_c, 0, 11, 67
2, 106675, Control_c, 0, 11, 68
2, 106690, Control_c, 0, 11, 69
2, 106702, Note_on_c, 0, 79, 0
2, 106704, Note_on_c, 0, 79, 110
2, 106704, Control_c, 0, 11, 70
2, 106718, Control_c, 0, 11, 71
2, 106733, Control_c, 0, 11, 72
2, 106747, Control_c, 0, 11, 73
2, 106761, Control_c, 0, 11, 74
2, 106776, Control_c, 0, 11, 75
2, 106790, Control_c, 0, 11, 76
2, 106804, Control_c, 0, 11, 77
2, 106819, Control_c, 0, 11, 78
2, 106833, Control_c, 0, 11, 79
2, 106846, Note_on_c, 0, 79, 0
2, 106847, Control_c, 0, 11, 80
2, 106848, Control_c, 0, 11, 80
2, 106848, Note_on_c, 0, 79, 110
2, 106863, Control_c, 0, 11, 79
2, 106877, Control_c, 0, 11, 78
2, 106892, Control_c, 0, 11, 77
2, 106906, Control_c, 0, 11, 76
2, 106920, Control_c, 0, 11, 75
2, 106935, Control_c, 0, 11, 74
2, 106949, Control_c, 0, 11, 73
2, 106963, Control_c, 0, 11, 72
2, 106978, Control_c, 0, 11, 71
2, 106990, Note_on_c, 0, 79, 0
2, 106992, Note_on_c, 0, 79, 110
2, 106992, Control_c, 0, 11, 70
2, 107006, Control_c, 0, 11, 69
2, 107021, Control_c, 0, 11, 68
2, 107035, Control_c, 0, 11, 67
2, 107040, Note_on_c, 0, 79, 0
2, 107040, Note_on_c, 0, 77, 110
2, 107049, Control_c, 0, 11, 66
2, 107064, Control_c, 0, 11, 65
2, 107078, Control_c, 0, 11, 64
2, 107088, Note_on_c, 0, 77, 0
2, 107088, Note_on_c, 0, 76, 110
2, 107092, Control_c, 0, 11, 63
2, 107107, Control_c, 0, 11, 62
2, 107121, Control_c, 0, 11, 61
2, 107135, Control_c, 0, 11, 60
2, 107136, Note_on_c, 0, 76, 0
2, 107712, Control_c, 0, 6, 14
2, 108000, Control_c, 0, 11, 120
2, 108000, Note_on_c, 0, 77, 105
2, 108024, Note_on_c, 0, 77, 0
2, 108048, Note_on_c, 0, 74, 100
2, 108072, Note_on_c, 0, 74, 0
2, 108096, Note_on_c, 0, 79, 100
2, 108120, Note_on_c, 0, 79, 0
2, 108144, Note_on_c, 0, 76, 105
2, 108168, Note_on_c, 0, 76, 0
2, 108192, Note_on_c, 0, 73, 100
2, 108216, Note_on_c, 0, 73, 0
2, 108240, Note_on_c, 0, 77, 100
2, 108264, Note_on_c, 0, 77, 0
2, 108288, Note_on_c, 0, 74, 105
2, 108312, Note_on_c, 0, 74, 0
2, 108576, Note_on_c, 0, 77, 105
2, 108600, Note_on_c, 0, 77, 0
2, 108624, Note_on_c, 0, 74, 100
2, 108648, Note_on_c, 0, 74, 0
2, 108672, Note_on_c, 0, 79, 100
2, 108696, Note_on_c, 0, 79, 0
2, 108720, Note_on_c, 0, 76, 105
2, 108744, Note_on_c, 0, 76, 0
2, 108768, Note_on_c, 0, 73, 100
2, 108792, Note_on_c, 0, 73, 0
2, 108816, Note_on_c, 0, 77, 100
2, 108840, Note_on_c, 0, 77, 0
2, 108864, Note_on_c, 0, 86, 110
2, 108899, Note_on_c, 0, 86, 0
2, 108936, Note_on_c, 0, 74, 100
2, 108948, Note_on_c, 0, 74, 0
2, 108960, Note_on_c, 0, 74, 100
2, 108984, Note_on_c, 0, 74, 0
2, 109008, Note_on_c, 0, 69, 105
2, 109032, Note_on_c, 0, 69, 0
2, 109152, Note_on_c, 0, 86, 110
2, 109187, Note_on_c, 0, 86, 0
2, 109224, Note_on_c, 0, 74, 100
2, 109236, Note_on_c, 0, 74, 0
2, 109248, Note_on_c, 0, 74, 100
2, 109272, Note_on_c, 0, 74, 0
2, 109296, Note_on_c, 0, 69, 105
2, 109320, Note_on_c, 0, 69, 0
2, 109434, Control_c, 0, 6, 64
2, 109440, Note_on_c, 0, 79, 64
2, 109488, Note_on_c, 0, 79, 0
2, 109488, Note_on_c, 0, 76, 61
2, 109536, Note_on_c, 0, 76, 0
2, 109536, Note_on_c, 0, 73, 58
2, 109584, Note_on_c, 0, 73, 0
2, 109584, Note_on_c, 0, 67, 52
2, 109632, Note_on_c, 0, 67, 0
2, 109632, Note_on_c, 0, 64, 49
2, 109680, Note_on_c, 0, 64, 0
2, 109680, Note_on_c, 0, 61, 46
2, 109728, Note_on_c, 0, 61, 0
2, 109728, Note_on_c, 0, 55, 40
2, 109776, Note_on_c, 0, 55, 0
2, 109776, Note_on_c, 0, 61, 46
2, 109824, Note_on_c, 0, 61, 0
2, 109824, Note_on_c, 0, 64, 49
2, 109872, Note_on_c, 0, 64, 0
2, 109872, Note_on_c, 0, 67, 52
2, 109920, Note_on_c, 0, 67, 0
2, 109920, Note_on_c, 0, 73, 58
2, 109968, Note_on_c, 0, 73, 0
2, 109968, Note_on_c, 0, 76, 61
2, 110016, Note_on_c, 0, 76, 0
2, 110016, Control_c, 0, 6, 14
2, 110016, Note_on_c, 0, 74, 60
2, 110051, Note_on_c, 0, 74, 0
2, 110088, Note_on_c, 0, 62, 50
2, 110100, Note_on_c, 0, 62, 0
2, 110112, Note_on_c, 0, 62, 50
2, 110136, Note_on_c, 0, 62, 0
2, 110160, Note_on_c, 0, 62, 55
2, 110184, Note_on_c, 0, 62, 0
2, 110304, Note_on_c, 0, 74, 60
2, 110339, Note_on_c, 0, 74, 0
2, 110376, Note_on_c, 0, 62, 50
2, 110388, Note_on_c, 0, 62, 0
2, 110400, Note_on_c, 0, 62, 50
2, 110424, Note_on_c, 0, 62, 0
2, 110448, Note_on_c, 0, 62, 55
2, 110472, Note_on_c, 0, 62, 0
2, 111168, Note_on_c, 0, 74, 55
2, 111203, Note_on_c, 0, 74, 0
2, 111240, Note_on_c, 0, 62, 54
2, 111252, Note_on_c, 0, 62, 0
2, 111264, Note_on_c, 0, 62, 56
2, 111288, Note_on_c, 0, 62, 0
2, 111312, Note_on_c, 0, 62, 59
2, 111336, Note_on_c, 0, 62, 0
2, 111456, Note_on_c, 0, 74, 73
2, 111491, Note_on_c, 0, 74, 0
2, 111528, Note_on_c, 0, 62, 72
2, 111540, Note_on_c, 0, 62, 0
2, 111552, Note_on_c, 0, 62, 74
2, 111576, Note_on_c, 0, 62, 0
2, 111600, Note_on_c, 0, 62, 77
2, 111600, Note_on_c, 0, 65, 77
2, 111624, Note_on_c, 0, 65, 0
2, 111624, Note_on_c, 0, 62, 0
2, 111744, Note_on_c, 0, 74, 86
2, 111779, Note_on_c, 0, 74, 0
2, 111816, Note_on_c, 0, 62, 90
2, 111828, Note_on_c, 0, 62, 0
2, 111840, Note_on_c, 0, 62, 92
2, 111864, Note_on_c, 0, 62, 0
2, 111888, Note_on_c, 0, 62, 95
2, 111888, Note_on_c, 0, 70, 95
2, 111912, Note_on_c, 0, 70, 0
2, 111912, Note_on_c, 0, 62, 0
2, 112032, Note_on_c, 0, 74, 104
2, 112067, Note_on_c, 0, 74, 0
2, 112104, Note_on_c, 0, 62, 108
2, 112116, Note_on_c, 0, 62, 0
2, 112128, Note_on_c, 0, 62, 110
2, 112152, Note_on_c, 0, 62, 0
2, 112176, Note_on_c, 0, 73, 113
2, 112176, Note_on_c, 0, 76, 113
2, 112200, Note_on_c, 0, 76, 0
2, 112200, Note_on_c, 0, 73, 0
2, 112368, Note_on_c, 0, 81, 60
2, 112403, Note_on_c, 0, 81, 0
2, 112440, Note_on_c, 0, 69, 50
2, 112452, Note_on_c, 0, 69, 0
2, 112464, Note_on_c, 0, 69, 50
2, 112488, Note_on_c, 0, 69, 0
2, 112512, Note_on_c, 0, 74, 55
2, 112536, Note_on_c, 0, 74, 0
2, 112560, Note_on_c, 0, 76, 50
2, 112584, Note_on_c, 0, 76, 0
2, 112608, Note_on_c, 0, 77, 50
2, 112632, Note_on_c, 0, 77, 0
2, 112656, Note_on_c, 0, 81, 55
2, 112680, Note_on_c, 0, 81, 0
2, 112704, Note_on_c, 0, 82, 50
2, 112728, Note_on_c, 0, 82, 0
2, 112752, Note_on_c, 0, 84, 50
2, 112776, Note_on_c, 0, 84, 0
2, 112800, Note_on_c, 0, 86, 55
2, 112824, Note_on_c, 0, 86, 0
2, 112848, Note_on_c, 0, 84, 50
2, 112872, Note_on_c, 0, 84, 0
2, 112896, Note_on_c, 0, 82, 50
2, 112920, Note_on_c, 0, 82, 0
2, 112944, Note_on_c, 0, 81, 60
2, 112979, Note_on_c, 0, 81, 0
2, 113016, Note_on_c, 0, 69, 50
2, 113028, Note_on_c, 0, 69, 0
2, 113040, Note_on_c, 0, 69, 50
2, 113064, Note_on_c, 0, 69, 0
2, 113088, Note_on_c, 0, 74, 55
2, 113112, Note_on_c, 0, 74, 0
2, 113136, Note_on_c, 0, 76, 50
2, 113160, Note_on_c, 0, 76, 0
2, 113184, Note_on_c, 0, 77, 50
2, 113208, Note_on_c, 0, 77, 0
2, 113232, Note_on_c, 0, 81, 55
2, 113256, Note_on_c, 0, 81, 0
2, 113280, Note_on_c, 0, 82, 50
2, 113304, Note_on_c, 0, 82, 0
2, 113328, Note_on_c, 0, 84, 50
2, 113352, Note_on_c, 0, 84, 0
2, 113376, Note_on_c, 0, 86, 55
2, 113400, Note_on_c, 0, 86, 0
2, 113424, Note_on_c, 0, 84, 50
2, 113448, Note_on_c, 0, 84, 0
2, 113472, Note_on_c, 0, 82, 50
2, 113496, Note_on_c, 0, 82, 0
2, 113520, Note_on_c, 0, 81, 60
2, 113555, Note_on_c, 0, 81, 0
2, 113592, Note_on_c, 0, 69, 54
2, 113604, Note_on_c, 0, 69, 0
2, 113616, Note_on_c, 0, 69, 55
2, 113640, Note_on_c, 0, 69, 0
2, 113664, Note_on_c, 0, 74, 62
2, 113688, Note_on_c, 0, 74, 0
2, 113712, Note_on_c, 0, 76, 61
2, 113736, Note_on_c, 0, 76, 0
2, 113760, Note_on_c, 0, 77, 64
2, 113784, Note_on_c, 0, 77, 0
2, 113808, Note_on_c, 0, 81, 76
2, 113843, Note_on_c, 0, 81, 0
2, 113880, Note_on_c, 0, 69, 71
2, 113892, Note_on_c, 0, 69, 0
2, 113904, Note_on_c, 0, 69, 72
2, 113928, Note_on_c, 0, 69, 0
2, 113952, Note_on_c, 0, 74, 75
2, 113976, Note_on_c, 0, 74, 0
2, 114000, Note_on_c, 0, 76, 78
2, 114024, Note_on_c, 0, 76, 0
2, 114048, Note_on_c, 0, 77, 80
2, 114072, Note_on_c, 0, 77, 0
2, 114096, Note_on_c, 0, 81, 93
2, 114131, Note_on_c, 0, 81, 0
2, 114168, Note_on_c, 0, 69, 87
2, 114180, Note_on_c, 0, 69, 0
2, 114192, Note_on_c, 0, 69, 89
2, 114216, Note_on_c, 0, 69, 0
2, 114240, Note_on_c, 0, 74, 92
2, 114264, Note_on_c, 0, 74, 0
2, 114288, Note_on_c, 0, 76, 95
2, 114312, Note_on_c, 0, 76, 0
2, 114336, Note_on_c, 0, 77, 97
2, 114360, Note_on_c, 0, 77, 0
2, 114384, Note_on_c, 0, 81, 110
2, 114419, Note_on_c, 0, 81, 0
2, 114456, Note_on_c, 0, 69, 104
2, 114468, Note_on_c, 0, 69, 0
2, 114480, Note_on_c, 0, 69, 106
2, 114504, Note_on_c, 0, 69, 0
2, 114528, Note_on_c, 0, 74, 109
2, 114552, Note_on_c, 0, 74, 0
2, 114576, Note_on_c, 0, 76, 111
2, 114600, Note_on_c, 0, 76, 0
2, 114624, Note_on_c, 0, 77, 114
2, 114648, Note_on_c, 0, 77, 0
2, 114672, Note_on_c, 0, 81, 125
2, 114696, Note_on_c, 0, 81, 0
2, 114720, Note_on_c, 0, 69, 115
2, 114744, Note_on_c, 0, 69, 0
2, 114768, Note_on_c, 0, 74, 125
2, 114792, Note_on_c, 0, 74, 0
2, 114816, Note_on_c, 0, 62, 115
2, 114840, Note_on_c, 0, 62, 0
2, 114864, Note_on_c, 0, 69, 125
2, 114888, Note_on_c, 0, 69, 0
2, 114912, Note_on_c, 0, 57, 115
2, 114936, Note_on_c, 0, 57, 0
2, 114960, Note_on_c, 0, 81, 125
2, 114984, Note_on_c, 0, 81, 0
2, 115008, Note_on_c, 0, 69, 120
2, 115032, Note_on_c, 0, 69, 0
2, 115056, Note_on_c, 0, 62, 120
2, 115080, Note_on_c, 0, 62, 0
2, 115248, Control_c, 0, 6, 64
2, 118608, Control_c, 0, 11, 60
2, 118608, Note_on_c, 0, 69, 100
2, 118636, Control_c, 0, 11, 61
2, 118663, Control_c, 0, 11, 62
2, 118690, Control_c, 0, 11, 63
2, 118717, Control_c, 0, 11, 64
2, 118744, Control_c, 0, 11, 65
2, 118771, Control_c, 0, 11, 66
2, 118799, Control_c, 0, 11, 67
2, 118800, Note_on_c, 0, 69, 0
2, 118800, Note_on_c, 0, 68, 100
2, 118826, Control_c, 0, 11, 68
2, 118853, Control_c, 0, 11, 69
2, 118880, Control_c, 0, 11, 70
2, 118896, Note_on_c, 0, 68, 0
2, 118896, Note_on_c, 0, 69, 100
2, 118907, Control_c, 0, 11, 71
2, 118934, Control_c, 0, 11, 72
2, 118962, Control_c, 0, 11, 73
2, 118989, Control_c, 0, 11, 74
2, 118992, Note_on_c, 0, 69, 0
2, 118992, Note_on_c, 0, 71, 100
2, 119016, Control_c, 0, 11, 75
2, 119040, Note_on_c, 0, 71, 0
2, 119040, Note_on_c, 0, 73, 100
2, 119043, Control_c, 0, 11, 76
2, 119070, Control_c, 0, 11, 77
2, 119088, Note_on_c, 0, 73, 0
2, 119088, Note_on_c, 0, 74, 100
2, 119097, Control_c, 0, 11, 78
2, 119125, Control_c, 0, 11, 79
2, 119136, Note_on_c, 0, 74, 0
2, 119136, Note_on_c, 0, 73, 100
2, 119152, Control_c, 0, 11, 80
2, 119179, Control_c, 0, 11, 81
2, 119184, Note_on_c, 0, 73, 0
2, 119184, Note_on_c, 0, 74, 100
2, 119206, Control_c, 0, 11, 82
2, 119232, Note_on_c, 0, 74, 0
2, 119232, Note_on_c, 0, 76, 100
2, 119233, Control_c, 0, 11, 83
2, 119260, Control_c, 0, 11, 84
2, 119280, Note_on_c, 0, 76, 0
2, 119280, Note_on_c, 0, 78, 100
2, 119288, Control_c, 0, 11, 85
2, 119315, Control_c, 0, 11, 86
2, 119328, Note_on_c, 0, 78, 0
2, 119328, Note_on_c, 0, 81, 100
2, 119342, Control_c, 0, 11, 87
2, 119369, Control_c, 0, 11, 88
2, 119376, Note_on_c, 0, 81, 0
2, 119376, Control_c, 0, 11, 88
2, 119376, Note_on_c, 0, 83, 100
2, 119381, Control_c, 0, 11, 87
2, 119385, Control_c, 0, 11, 86
2, 119389, Control_c, 0, 11, 85
2, 119393, Control_c, 0, 11, 84
2, 119397, Control_c, 0, 11, 83
2, 119401, Control_c, 0, 11, 82
2, 119405, Control_c, 0, 11, 81
2, 119410, Control_c, 0, 11, 80
2, 119414, Control_c, 0, 11, 79
2, 119418, Control_c, 0, 11, 78
2, 119422, Control_c, 0, 11, 77
2, 119424, Note_on_c, 0, 83, 0
2, 119424, Note_on_c, 0, 79, 100
2, 119426, Control_c, 0, 11, 76
2, 119430, Control_c, 0, 11, 75
2, 119434, Control_c, 0, 11, 74
2, 119438, Control_c, 0, 11, 73
2, 119443, Control_c, 0, 11, 72
2, 119447, Control_c, 0, 11, 71
2, 119451, Control_c, 0, 11, 70
2, 119455, Control_c, 0, 11, 69
2, 119459, Control_c, 0, 11, 68
2, 119463, Control_c, 0, 11, 67
2, 119467, Control_c, 0, 11, 66
2, 119471, Control_c, 0, 11, 65
2, 119472, Note_on_c, 0, 79, 0
2, 119472, Control_c, 0, 11, 60
2, 119472, Note_on_c, 0, 78, 100
2, 119520, Note_on_c, 0, 78, 0
2, 119568, Note_on_c, 0, 73, 100
2, 119568, Note_on_c, 0, 76, 100
2, 119616, Note_on_c, 0, 76, 0
2, 119616, Note_on_c, 0, 73, 0
2, 119664, Note_on_c, 0, 74, 104
2, 119702, Note_on_c, 0, 74, 0
2, 119712, Note_on_c, 0, 66, 96
2, 119760, Note_on_c, 0, 66, 0
2, 119760, Note_on_c, 0, 62, 92
2, 119808, Note_on_c, 0, 62, 0
2, 119808, Note_on_c, 0, 61, 91
2, 119856, Note_on_c, 0, 61, 0
2, 119856, Note_on_c, 0, 62, 92
2, 119904, Note_on_c, 0, 62, 0
2, 119904, Note_on_c, 0, 64, 94
2, 119952, Note_on_c, 0, 64, 0
2, 119952, Note_on_c, 0, 66, 96
2, 120000, Note_on_c, 0, 66, 0
2, 120000, Note_on_c, 0, 67, 97
2, 120048, Note_on_c, 0, 67, 0
2, 120048, Note_on_c, 0, 64, 94
2, 120096, Note_on_c, 0, 64, 0
2, 120480, Control_c, 0, 11, 60
2, 120480, Note_on_c, 0, 69, 100
2, 120496, Control_c, 0, 11, 61
2, 120512, Control_c, 0, 11, 62
2, 120528, Note_on_c, 0, 69, 0
2, 120528, Note_on_c, 0, 71, 100
2, 120528, Control_c, 0, 11, 63
2, 120544, Control_c, 0, 11, 64
2, 120560, Control_c, 0, 11, 65
2, 120576, Note_on_c, 0, 71, 0
2, 120576, Note_on_c, 0, 73, 100
2, 120576, Control_c, 0, 11, 66
2, 120592, Control_c, 0, 11, 67
2, 120608, Control_c, 0, 11, 68
2, 120624, Note_on_c, 0, 73, 0
2, 120624, Note_on_c, 0, 74, 100
2, 120624, Control_c, 0, 11, 69
2, 120640, Control_c, 0, 11, 70
2, 120656, Control_c, 0, 11, 71
2, 120672, Note_on_c, 0, 74, 0
2, 120672, Note_on_c, 0, 73, 100
2, 120672, Control_c, 0, 11, 72
2, 120688, Control_c, 0, 11, 73
2, 120704, Control_c, 0, 11, 74
2, 120720, Note_on_c, 0, 73, 0
2, 120720, Note_on_c, 0, 74, 100
2, 120720, Control_c, 0, 11, 75
2, 120736, Control_c, 0, 11, 76
2, 120752, Control_c, 0, 11, 77
2, 120768, Note_on_c, 0, 74, 0
2, 120768, Note_on_c, 0, 76, 100
2, 120768, Control_c, 0, 11, 78
2, 120784, Control_c, 0, 11, 79
2, 120800, Control_c, 0, 11, 80
2, 120816, Note_on_c, 0, 76, 0
2, 120816, Note_on_c, 0, 78, 100
2, 120816, Control_c, 0, 11, 81
2, 120832, Control_c, 0, 11, 82
2, 120848, Control_c, 0, 11, 83
2, 120864, Note_on_c, 0, 78, 0
2, 120864, Note_on_c, 0, 81, 100
2, 120864, Control_c, 0, 11, 84
2, 120880, Control_c, 0, 11, 85
2, 120896, Control_c, 0, 11, 86
2, 120912, Note_on_c, 0, 81, 0
2, 120912, Control_c, 0, 11, 86
2, 120912, Note_on_c, 0, 79, 100
2, 120917, Control_c, 0, 11, 85
2, 120921, Control_c, 0, 11, 84
2, 120925, Control_c, 0, 11, 83
2, 120930, Control_c, 0, 11, 82
2, 120934, Control_c, 0, 11, 81
2, 120938, Control_c, 0, 11, 80
2, 120943, Control_c, 0, 11, 79
2, 120947, Control_c, 0, 11, 78
2, 120951, Control_c, 0, 11, 77
2, 120956, Control_c, 0, 11, 76
2, 120960, Note_on_c, 0, 79, 0
2, 120960, Note_on_c, 0, 71, 100
2, 120960, Control_c, 0, 11, 75
2, 120964, Control_c, 0, 11, 74
2, 120969, Control_c, 0, 11, 73
2, 120973, Control_c, 0, 11, 72
2, 120977, Control_c, 0, 11, 71
2, 120982, Control_c, 0, 11, 70
2, 120986, Control_c, 0, 11, 69
2, 120990, Control_c, 0, 11, 68
2, 120995, Control_c, 0, 11, 67
2, 120999, Control_c, 0, 11, 66
2, 121003, Control_c, 0, 11, 65
2, 121007, Control_c, 0, 11, 64
2, 121008, Note_on_c, 0, 71, 0
2, 121008, Control_c, 0, 11, 60
2, 121008, Note_on_c, 0, 74, 100
2, 121056, Note_on_c, 0, 74, 0
2, 121104, Note_on_c, 0, 73, 100
2, 121152, Note_on_c, 0, 73, 0
2, 121200, Control_c, 0, 11, 120
2, 121200, Note_on_c, 0, 74, 60
2, 121248, Note_on_c, 0, 74, 0
2, 121296, Note_on_c, 0, 86, 68
2, 121320, Note_on_c, 0, 86, 0
2, 121344, Note_on_c, 0, 85, 67
2, 121368, Note_on_c, 0, 85, 0
2, 121392, Note_on_c, 0, 86, 68
2, 121416, Note_on_c, 0, 86, 0
2, 121440, Note_on_c, 0, 83, 65
2, 121464, Note_on_c, 0, 83, 0
2, 121488, Note_on_c, 0, 81, 63
2, 121512, Note_on_c, 0, 81, 0
2, 121536, Note_on_c, 0, 79, 61
2, 121560, Note_on_c, 0, 79, 0
2, 121584, Note_on_c, 0, 78, 60
2, 121608, Note_on_c, 0, 78, 0
2, 121632, Note_on_c, 0, 76, 58
2, 121656, Note_on_c, 0, 76, 0
2, 121680, Note_on_c, 0, 74, 56
2, 121704, Note_on_c, 0, 74, 0
2, 121728, Note_on_c, 0, 72, 54
2, 121752, Note_on_c, 0, 72, 0
2, 121776, Note_on_c, 0, 71, 53
2, 121800, Note_on_c, 0, 71, 0
2, 121824, Note_on_c, 0, 73, 55
2, 121848, Note_on_c, 0, 73, 0
2, 121872, Note_on_c, 0, 74, 56
2, 121896, Note_on_c, 0, 74, 0
2, 121920, Note_on_c, 0, 78, 60
2, 121944, Note_on_c, 0, 78, 0
2, 121968, Note_on_c, 0, 81, 63
2, 121992, Note_on_c, 0, 81, 0
2, 122016, Note_on_c, 0, 79, 61
2, 122040, Note_on_c, 0, 79, 0
2, 122064, Note_on_c, 0, 78, 60
2, 122088, Note_on_c, 0, 78, 0
2, 123600, Note_on_c, 0, 86, 68
2, 123624, Note_on_c, 0, 86, 0
2, 123648, Note_on_c, 0, 85, 67
2, 123672, Note_on_c, 0, 85, 0
2, 123696, Note_on_c, 0, 86, 68
2, 123720, Note_on_c, 0, 86, 0
2, 123744, Note_on_c, 0, 83, 65
2, 123768, Note_on_c, 0, 83, 0
2, 123792, Note_on_c, 0, 81, 63
2, 123816, Note_on_c, 0, 81, 0
2, 123840, Note_on_c, 0, 79, 61
2, 123864, Note_on_c, 0, 79, 0
2, 123888, Note_on_c, 0, 78, 60
2, 123912, Note_on_c, 0, 78, 0
2, 123936, Note_on_c, 0, 76, 58
2, 123960, Note_on_c, 0, 76, 0
2, 123984, Note_on_c, 0, 74, 56
2, 124008, Note_on_c, 0, 74, 0
2, 124032, Note_on_c, 0, 72, 54
2, 124056, Note_on_c, 0, 72, 0
2, 124080, Note_on_c, 0, 71, 53
2, 124104, Note_on_c, 0, 71, 0
2, 124128, Note_on_c, 0, 73, 55
2, 124152, Note_on_c, 0, 73, 0
2, 124176, Note_on_c, 0, 74, 56
2, 124200, Note_on_c, 0, 74, 0
2, 124224, Note_on_c, 0, 78, 60
2, 124248, Note_on_c, 0, 78, 0
2, 124272, Note_on_c, 0, 81, 63
2, 124296, Note_on_c, 0, 81, 0
2, 128304, Control_c, 0, 11, 90
2, 128304, Note_on_c, 0, 74, 120
2, 128305, Control_c, 0, 11, 86
2, 128306, Control_c, 0, 11, 83
2, 128307, Control_c, 0, 11, 80
2, 128308, Control_c, 0, 11, 78
2, 128309, Control_c, 0, 11, 76
2, 128310, Control_c, 0, 11, 74
2, 128311, Control_c, 0, 11, 72
2, 128312, Control_c, 0, 11, 71
2, 128313, Control_c, 0, 11, 70
2, 128314, Control_c, 0, 11, 69
2, 128315, Control_c, 0, 11, 68
2, 128316, Control_c, 0, 11, 67
2, 128317, Control_c, 0, 11, 66
2, 128318, Control_c, 0, 11, 65
2, 128320, Control_c, 0, 11, 64
2, 128321, Control_c, 0, 11, 63
2, 128324, Control_c, 0, 11, 62
2, 128327, Control_c, 0, 11, 61
2, 128333, Control_c, 0, 11, 60
2, 128496, Control_c, 0, 11, 60
2, 128538, Control_c, 0, 11, 61
2, 128579, Control_c, 0, 11, 62
2, 128588, Note_on_c, 0, 74, 0
2, 128592, Note_on_c, 0, 76, 120
2, 128620, Control_c, 0, 11, 63
2, 128661, Control_c, 0, 11, 64
2, 128684, Note_on_c, 0, 76, 0
2, 128688, Note_on_c, 0, 78, 120
2, 128702, Control_c, 0, 11, 65
2, 128743, Control_c, 0, 11, 66
2, 128784, Control_c, 0, 11, 67
2, 128825, Control_c, 0, 11, 68
2, 128832, Note_on_c, 0, 78, 0
2, 128832, Note_on_c, 0, 79, 120
2, 128856, Note_on_c, 0, 79, 0
2, 128856, Note_on_c, 0, 81, 120
2, 128867, Control_c, 0, 11, 69
2, 128880, Note_on_c, 0, 81, 0
2, 128880, Note_on_c, 0, 79, 120
2, 128904, Note_on_c, 0, 79, 0
2, 128908, Control_c, 0, 11, 70
2, 128928, Note_on_c, 0, 79, 117
2, 128949, Control_c, 0, 11, 71
2, 128952, Note_on_c, 0, 79, 0
2, 128976, Note_on_c, 0, 78, 120
2, 128990, Control_c, 0, 11, 72
2, 129000, Note_on_c, 0, 78, 0
2, 129024, Note_on_c, 0, 78, 117
2, 129031, Control_c, 0, 11, 73
2, 129048, Note_on_c, 0, 78, 0
2, 129072, Note_on_c, 0, 76, 116
2, 129072, Control_c, 0, 11, 74
2, 129113, Control_c, 0, 11, 75
2, 129154, Control_c, 0, 11, 76
2, 129164, Note_on_c, 0, 76, 0
2, 129168, Note_on_c, 0, 74, 120
2, 129195, Control_c, 0, 11, 77
2, 129237, Control_c, 0, 11, 78
2, 129278, Control_c, 0, 11, 79
2, 129319, Control_c, 0, 11, 80
2, 129356, Note_on_c, 0, 74, 0
2, 129360, Note_on_c, 0, 76, 120
2, 129360, Control_c, 0, 11, 81
2, 129401, Control_c, 0, 11, 82
2, 129442, Control_c, 0, 11, 83
2, 129452, Note_on_c, 0, 76, 0
2, 129456, Note_on_c, 0, 78, 120
2, 129483, Control_c, 0, 11, 84
2, 129524, Control_c, 0, 11, 85
2, 129565, Control_c, 0, 11, 86
2, 129600, Note_on_c, 0, 78, 0
2, 129600, Note_on_c, 0, 79, 120
2, 129607, Control_c, 0, 11, 87
2, 129624, Note_on_c, 0, 79, 0
2, 129624, Note_on_c, 0, 81, 120
2, 129648, Note_on_c, 0, 81, 0
2, 129648, Note_on_c, 0, 79, 120
2, 129648, Control_c, 0, 11, 88
2, 129672, Note_on_c, 0, 79, 0
2, 129689, Control_c, 0, 11, 89
2, 129696, Note_on_c, 0, 79, 117
2, 129720, Note_on_c, 0, 79, 0
2, 129730, Control_c, 0, 11, 90
2, 129744, Note_on_c, 0, 78, 120
2, 129768, Note_on_c, 0, 78, 0
2, 129771, Control_c, 0, 11, 91
2, 129792, Note_on_c, 0, 78, 117
2, 129812, Control_c, 0, 11, 92
2, 129816, Note_on_c, 0, 78, 0
2, 129840, Note_on_c, 0, 76, 116
2, 129853, Control_c, 0, 11, 93
2, 129885, Note_on_c, 0, 76, 0
2, 129894, Control_c, 0, 11, 94
2, 129935, Control_c, 0, 11, 95
2, 129936, Note_on_c, 0, 74, 118
2, 130124, Note_on_c, 0, 74, 0
2, 130128, Note_on_c, 0, 76, 120
2, 130220, Note_on_c, 0, 76, 0
2, 130224, Note_on_c, 0, 78, 120
2, 130368, Note_on_c, 0, 78, 0
2, 130368, Note_on_c, 0, 79, 120
2, 130392, Note_on_c, 0, 79, 0
2, 130392, Note_on_c, 0, 81, 120
2, 130416, Note_on_c, 0, 81, 0
2, 130416, Note_on_c, 0, 79, 120
2, 130440, Note_on_c, 0, 79, 0
2, 130464, Note_on_c, 0, 79, 117
2, 130488, Note_on_c, 0, 79, 0
2, 130512, Note_on_c, 0, 78, 120
2, 130536, Note_on_c, 0, 78, 0
2, 130560, Note_on_c, 0, 78, 117
2, 130584, Note_on_c, 0, 78, 0
2, 130608, Note_on_c, 0, 76, 116
2, 130700, Note_on_c, 0, 76, 0
2, 130704, Note_on_c, 0, 74, 120
2, 130892, Note_on_c, 0, 74, 0
2, 130896, Note_on_c, 0, 76, 120
2, 130988, Note_on_c, 0, 76, 0
2, 130992, Note_on_c, 0, 78, 120
2, 131136, Note_on_c, 0, 78, 0
2, 131136, Note_on_c, 0, 79, 120
2, 131160, Note_on_c, 0, 79, 0
2, 131160, Note_on_c, 0, 81, 120
2, 131184, Note_on_c, 0, 81, 0
2, 131184, Note_on_c, 0, 83, 120
2, 131208, Note_on_c, 0, 83, 0
2, 131232, Note_on_c, 0, 83, 120
2, 131256, Note_on_c, 0, 83, 0
2, 131280, Note_on_c, 0, 85, 122
2, 131304, Note_on_c, 0, 85, 0
2, 131328, Note_on_c, 0, 85, 122
2, 131352, Note_on_c, 0, 85, 0
2, 131376, Note_on_c, 0, 86, 123
2, 131400, Note_on_c, 0, 86, 0
2, 131856, Control_c, 0, 11, 60
2, 131856, Note_on_c, 0, 69, 100
2, 131884, Control_c, 0, 11, 61
2, 131911, Control_c, 0, 11, 62
2, 131938, Control_c, 0, 11, 63
2, 131965, Control_c, 0, 11, 64
2, 131992, Control_c, 0, 11, 65
2, 132019, Control_c, 0, 11, 66
2, 132047, Control_c, 0, 11, 67
2, 132048, Note_on_c, 0, 69, 0
2, 132048, Note_on_c, 0, 68, 100
2, 132074, Control_c, 0, 11, 68
2, 132101, Control_c, 0, 11, 69
2, 132128, Control_c, 0, 11, 70
2, 132144, Note_on_c, 0, 68, 0
2, 132144, Note_on_c, 0, 69, 100
2, 132155, Control_c, 0, 11, 71
2, 132182, Control_c, 0, 11, 72
2, 132210, Control_c, 0, 11, 73
2, 132237, Control_c, 0, 11, 74
2, 132240, Note_on_c, 0, 69, 0
2, 132240, Note_on_c, 0, 71, 100
2, 132264, Control_c, 0, 11, 75
2, 132288, Note_on_c, 0, 71, 0
2, 132288, Note_on_c, 0, 73, 100
2, 132291, Control_c, 0, 11, 76
2, 132318, Control_c, 0, 11, 77
2, 132336, Note_on_c, 0, 73, 0
2, 132336, Note_on_c, 0, 74, 100
2, 132345, Control_c, 0, 11, 78
2, 132373, Control_c, 0, 11, 79
2, 132384, Note_on_c, 0, 74, 0
2, 132384, Note_on_c, 0, 73, 100
2, 132400, Control_c, 0, 11, 80
2, 132427, Control_c, 0, 11, 81
2, 132432, Note_on_c, 0, 73, 0
2, 132432, Note_on_c, 0, 74, 100
2, 132454, Control_c, 0, 11, 82
2, 132480, Note_on_c, 0, 74, 0
2, 132480, Note_on_c, 0, 76, 100
2, 132481, Control_c, 0, 11, 83
2, 132508, Control_c, 0, 11, 84
2, 132528, Note_on_c, 0, 76, 0
2, 132528, Note_on_c, 0, 78, 100
2, 132536, Control_c, 0, 11, 85
2, 132563, Control_c, 0, 11, 86
2, 132576, Note_on_c, 0, 78, 0
2, 132576, Note_on_c, 0, 81, 100
2, 132590, Control_c, 0, 11, 87
2, 132617, Control_c, 0, 11, 88
2, 132624, Note_on_c, 0, 81, 0
2, 132624, Control_c, 0, 11, 88
2, 132624, Note_on_c, 0, 83, 100
2, 132629, Control_c, 0, 11, 87
2, 132633, Control_c, 0, 11, 86
2, 132637, Control_c, 0, 11, 85
2, 132641, Control_c, 0, 11, 84
2, 132645, Control_c, 0, 11, 83
2, 132649, Control_c, 0, 11, 82
2, 132653, Control_c, 0, 11, 81
2, 132658, Control_c, 0, 11, 80
2, 132662, Control_c, 0, 11, 79
2, 132666, Control_c, 0, 11, 78
2, 132670, Control_c, 0, 11, 77
2, 132672, Note_on_c, 0, 83, 0
2, 132672, Note_on_c, 0, 79, 100
2, 132674, Control_c, 0, 11, 76
2, 132678, Control_c, 0, 11, 75
2, 132682, Control_c, 0, 11, 74
2, 132686, Control_c, 0, 11, 73
2, 132691, Control_c, 0, 11, 72
2, 132695, Control_c, 0, 11, 71
2, 132699, Control_c, 0, 11, 70
2, 132703, Control_c, 0, 11, 69
2, 132707, Control_c, 0, 11, 68
2, 132711, Control_c, 0, 11, 67
2, 132715, Control_c, 0, 11, 66
2, 132719, Control_c, 0, 11, 65
2, 132720, Note_on_c, 0, 79, 0
2, 132720, Control_c, 0, 11, 60
2, 132720, Note_on_c, 0, 78, 100
2, 132768, Note_on_c, 0, 78, 0
2, 132816, Note_on_c, 0, 73, 100
2, 132816, Note_on_c, 0, 76, 100
2, 132864, Note_on_c, 0, 76, 0
2, 132864, Note_on_c, 0, 73, 0
2, 132912, Note_on_c, 0, 74, 104
2, 132950, Note_on_c, 0, 74, 0
2, 132960, Note_on_c, 0, 66, 96
2, 133008, Note_on_c, 0, 66, 0
2, 133008, Note_on_c, 0, 62, 92
2, 133056, Note_on_c, 0, 62, 0
2, 133056, Note_on_c, 0, 61, 91
2, 133104, Note_on_c, 0, 61, 0
2, 133104, Note_on_c, 0, 62, 92
2, 133152, Note_on_c, 0, 62, 0
2, 133152, Note_on_c, 0, 64, 94
2, 133200, Note_on_c, 0, 64, 0
2, 133200, Note_on_c, 0, 66, 96
2, 133248, Note_on_c, 0, 66, 0
2, 133248, Note_on_c, 0, 67, 97
2, 133296, Note_on_c, 0, 67, 0
2, 133296, Note_on_c, 0, 64, 94
2, 133344, Note_on_c, 0, 64, 0
2, 133728, Control_c, 0, 11, 60
2, 133728, Note_on_c, 0, 69, 100
2, 133744, Control_c, 0, 11, 61
2, 133760, Control_c, 0, 11, 62
2, 133776, Note_on_c, 0, 69, 0
2, 133776, Note_on_c, 0, 71, 100
2, 133776, Control_c, 0, 11, 63
2, 133792, Control_c, 0, 11, 64
2, 133808, Control_c, 0, 11, 65
2, 133824, Note_on_c, 0, 71, 0
2, 133824, Note_on_c, 0, 73, 100
2, 133824, Control_c, 0, 11, 66
2, 133840, Control_c, 0, 11, 67
2, 133856, Control_c, 0, 11, 68
2, 133872, Note_on_c, 0, 73, 0
2, 133872, Note_on_c, 0, 74, 100
2, 133872, Control_c, 0, 11, 69
2, 133888, Control_c, 0, 11, 70
2, 133904, Control_c, 0, 11, 71
2, 133920, Note_on_c, 0, 74, 0
2, 133920, Note_on_c, 0, 73, 100
2, 133920, Control_c, 0, 11, 72
2, 133936, Control_c, 0, 11, 73
2, 133952, Control_c, 0, 11, 74
2, 133968, Note_on_c, 0, 73, 0
2, 133968, Note_on_c, 0, 74, 100
2, 133968, Control_c, 0, 11, 75
2, 133984, Control_c, 0, 11, 76
2, 134000, Control_c, 0, 11, 77
2, 134016, Note_on_c, 0, 74, 0
2, 134016, Note_on_c, 0, 76, 100
2, 134016, Control_c, 0, 11, 78
2, 134032, Control_c, 0, 11, 79
2, 134048, Control_c, 0, 11, 80
2, 134064, Note_on_c, 0, 76, 0
2, 134064, Note_on_c, 0, 78, 100
2, 134064, Control_c, 0, 11, 81
2, 134080, Control_c, 0, 11, 82
2, 134096, Control_c, 0, 11, 83
2, 134112, Note_on_c, 0, 78, 0
2, 134112, Note_on_c, 0, 81, 100
2, 134112, Control_c, 0, 11, 84
2, 134128, Control_c, 0, 11, 85
2, 134144, Control_c, 0, 11, 86
2, 134160, Note_on_c, 0, 81, 0
2, 134160, Control_c, 0, 11, 86
2, 134160, Note_on_c, 0, 79, 100
2, 134165, Control_c, 0, 11, 85
2, 134169, Control_c, 0, 11, 84
2, 134173, Control_c, 0, 11, 83
2, 134178, Control_c, 0, 11, 82
2, 134182, Control_c, 0, 11, 81
2, 134186, Control_c, 0, 11, 80
2, 134191, Control_c, 0, 11, 79
2, 134195, Control_c, 0, 11, 78
2, 134199, Control_c, 0, 11, 77
2, 134204, Control_c, 0, 11, 76
2, 134208, Note_on_c, 0, 79, 0
2, 134208, Note_on_c, 0, 71, 100
2, 134208, Control_c, 0, 11, 75
2, 134212, Control_c, 0, 11, 74
2, 134217, Control_c, 0, 11, 73
2, 134221, Control_c, 0, 11, 72
2, 134225, Control_c, 0, 11, 71
2, 134230, Control_c, 0, 11, 70
2, 134234, Control_c, 0, 11, 69
2, 134238, Control_c, 0, 11, 68
2, 134243, Control_c, 0, 11, 67
2, 134247, Control_c, 0, 11, 66
2, 134251, Control_c, 0, 11, 65
2, 134255, Control_c, 0, 11, 64
2, 134256, Note_on_c, 0, 71, 0
2, 134256, Control_c, 0, 11, 60
2, 134256, Note_on_c, 0, 74, 100
2, 134304, Note_on_c, 0, 74, 0
2, 134352, Note_on_c, 0, 73, 100
2, 134400, Note_on_c, 0, 73, 0
2, 134448, Control_c, 0, 11, 120
2, 134448, Note_on_c, 0, 74, 60
2, 134496, Note_on_c, 0, 74, 0
2, 134544, Note_on_c, 0, 86, 68
2, 134568, Note_on_c, 0, 86, 0
2, 134592, Note_on_c, 0, 85, 67
2, 134616, Note_on_c, 0, 85, 0
2, 134640, Note_on_c, 0, 86, 68
2, 134664, Note_on_c, 0, 86, 0
2, 134688, Note_on_c, 0, 83, 65
2, 134712, Note_on_c, 0, 83, 0
2, 134736, Note_on_c, 0, 81, 63
2, 134760, Note_on_c, 0, 81, 0
2, 134784, Note_on_c, 0, 79, 61
2, 134808, Note_on_c, 0, 79, 0
2, 134832, Note_on_c, 0, 78, 60
2, 134856, Note_on_c, 0, 78, 0
2, 134880, Note_on_c, 0, 76, 58
2, 134904, Note_on_c, 0, 76, 0
2, 134928, Note_on_c, 0, 74, 56
2, 134952, Note_on_c, 0, 74, 0
2, 134976, Note_on_c, 0, 72, 54
2, 135000, Note_on_c, 0, 72, 0
2, 135024, Note_on_c, 0, 71, 53
2, 135048, Note_on_c, 0, 71, 0
2, 135072, Note_on_c, 0, 73, 55
2, 135096, Note_on_c, 0, 73, 0
2, 135120, Note_on_c, 0, 74, 56
2, 135144, Note_on_c, 0, 74, 0
2, 135168, Note_on_c, 0, 78, 60
2, 135192, Note_on_c, 0, 78, 0
2, 135216, Note_on_c, 0, 81, 63
2, 135240, Note_on_c, 0, 81, 0
2, 135264, Note_on_c, 0, 79, 61
2, 135288, Note_on_c, 0, 79, 0
2, 135312, Note_on_c, 0, 78, 60
2, 135336, Note_on_c, 0, 78, 0
2, 136848, Note_on_c, 0, 86, 68
2, 136872, Note_on_c, 0, 86, 0
2, 136896, Note_on_c, 0, 85, 67
2, 136920, Note_on_c, 0, 85, 0
2, 136944, Note_on_c, 0, 86, 68
2, 136968, Note_on_c, 0, 86, 0
2, 136992, Note_on_c, 0, 83, 65
2, 137016, Note_on_c, 0, 83, 0
2, 137040, Note_on_c, 0, 81, 63
2, 137064, Note_on_c, 0, 81, 0
2, 137088, Note_on_c, 0, 79, 61
2, 137112, Note_on_c, 0, 79, 0
2, 137136, Note_on_c, 0, 78, 60
2, 137160, Note_on_c, 0, 78, 0
2, 137184, Note_on_c, 0, 76, 58
2, 137208, Note_on_c, 0, 76, 0
2, 137232, Note_on_c, 0, 74, 56
2, 137256, Note_on_c, 0, 74, 0
2, 137280, Note_on_c, 0, 72, 54
2, 137304, Note_on_c, 0, 72, 0
2, 137328, Note_on_c, 0, 71, 53
2, 137352, Note_on_c, 0, 71, 0
2, 137376, Note_on_c, 0, 73, 55
2, 137400, Note_on_c, 0, 73, 0
2, 137424, Note_on_c, 0, 74, 56
2, 137448, Note_on_c, 0, 74, 0
2, 137472, Note_on_c, 0, 78, 60
2, 137496, Note_on_c, 0, 78, 0
2, 137520, Note_on_c, 0, 81, 63
2, 137544, Note_on_c, 0, 81, 0
2, 141552, Control_c, 0, 11, 90
2, 141552, Note_on_c, 0, 74, 120
2, 141553, Control_c, 0, 11, 86
2, 141554, Control_c, 0, 11, 83
2, 141555, Control_c, 0, 11, 80
2, 141556, Control_c, 0, 11, 78
2, 141557, Control_c, 0, 11, 76
2, 141558, Control_c, 0, 11, 74
2, 141559, Control_c, 0, 11, 72
2, 141560, Control_c, 0, 11, 71
2, 141561, Control_c, 0, 11, 70
2, 141562, Control_c, 0, 11, 69
2, 141563, Control_c, 0, 11, 68
2, 141564, Control_c, 0, 11, 67
2, 141565, Control_c, 0, 11, 66
2, 141566, Control_c, 0, 11, 65
2, 141568, Control_c, 0, 11, 64
2, 141569, Control_c, 0, 11, 63
2, 141572, Control_c, 0, 11, 62
2, 141575, Control_c, 0, 11, 61
2, 141581, Control_c, 0, 11, 60
2, 141744, Control_c, 0, 11, 60
2, 141786, Control_c, 0, 11, 61
2, 141827, Control_c, 0, 11, 62
2, 141836, Note_on_c, 0, 74, 0
2, 141840, Note_on_c, 0, 76, 120
2, 141868, Control_c, 0, 11, 63
2, 141909, Control_c, 0, 11, 64
2, 141932, Note_on_c, 0, 76, 0
2, 141936, Note_on_c, 0, 78, 120
2, 141950, Control_c, 0, 11, 65
2, 141991, Control_c, 0, 11, 66
2, 142032, Control_c, 0, 11, 67
2, 142073, Control_c, 0, 11, 68
2, 142080, Note_on_c, 0, 78, 0
2, 142080, Note_on_c, 0, 79, 120
2, 142104, Note_on_c, 0, 79, 0
2, 142104, Note_on_c, 0, 81, 120
2, 142115, Control_c, 0, 11, 69
2, 142128, Note_on_c, 0, 81, 0
2, 142128, Note_on_c, 0, 79, 120
2, 142152, Note_on_c, 0, 79, 0
2, 142156, Control_c, 0, 11, 70
2, 142176, Note_on_c, 0, 79, 117
2, 142197, Control_c, 0, 11, 71
2, 142200, Note_on_c, 0, 79, 0
2, 142224, Note_on_c, 0, 78, 120
2, 142238, Control_c, 0, 11, 72
2, 142248, Note_on_c, 0, 78, 0
2, 142272, Note_on_c, 0, 78, 117
2, 142279, Control_c, 0, 11, 73
2, 142296, Note_on_c, 0, 78, 0
2, 142320, Note_on_c, 0, 76, 116
2, 142320, Control_c, 0, 11, 74
2, 142361, Control_c, 0, 11, 75
2, 142402, Control_c, 0, 11, 76
2, 142412, Note_on_c, 0, 76, 0
2, 142416, Note_on_c, 0, 74, 120
2, 142443, Control_c, 0, 11, 77
2, 142485, Control_c, 0, 11, 78
2, 142526, Control_c, 0, 11, 79
2, 142567, Control_c, 0, 11, 80
2, 142604, Note_on_c, 0, 74, 0
2, 142608, Note_on_c, 0, 76, 120
2, 142608, Control_c, 0, 11, 81
2, 142649, Control_c, 0, 11, 82
2, 142690, Control_c, 0, 11, 83
2, 142700, Note_on_c, 0, 76, 0
2, 142704, Note_on_c, 0, 78, 120
2, 142731, Control_c, 0, 11, 84
2, 142772, Control_c, 0, 11, 85
2, 142813, Control_c, 0, 11, 86
2, 142848, Note_on_c, 0, 78, 0
2, 142848, Note_on_c, 0, 79, 120
2, 142855, Control_c, 0, 11, 87
2, 142872, Note_on_c, 0, 79, 0
2, 142872, Note_on_c, 0, 81, 120
2, 142896, Note_on_c, 0, 81, 0
2, 142896, Note_on_c, 0, 79, 120
2, 142896, Control_c, 0, 11, 88
2, 142920, Note_on_c, 0, 79, 0
2, 142937, Control_c, 0, 11, 89
2, 142944, Note_on_c, 0, 79, 117
2, 142968, Note_on_c, 0, 79, 0
2, 142978, Control_c, 0, 11, 90
2, 142992, Note_on_c, 0, 78, 120
2, 143016, Note_on_c, 0, 78, 0
2, 143019, Control_c, 0, 11, 91
2, 143040, Note_on_c, 0, 78, 117
2, 143060, Control_c, 0, 11, 92
2, 143064, Note_on_c, 0, 78, 0
2, 143088, Note_on_c, 0, 76, 116
2, 143101, Control_c, 0, 11, 93
2, 143133, Note_on_c, 0, 76, 0
2, 143142, Control_c, 0, 11, 94
2, 143183, Control_c, 0, 11, 95
2, 143184, Note_on_c, 0, 74, 118
2, 143372, Note_on_c, 0, 74, 0
2, 143376, Note_on_c, 0, 76, 120
2, 143468, Note_on_c, 0, 76, 0
2, 143472, Note_on_c, 0, 78, 120
2, 143616, Note_on_c, 0, 78, 0
2, 143616, Note_on_c, 0, 79, 120
2, 143640, Note_on_c, 0, 79, 0
2, 143640, Note_on_c, 0, 81, 120
2, 143664, Note_on_c, 0, 81, 0
2, 143664, Note_on_c, 0, 79, 120
2, 143688, Note_on_c, 0, 79, 0
2, 143712, Note_on_c, 0, 79, 117
2, 143736, Note_on_c, 0, 79, 0
2, 143760, Note_on_c, 0, 78, 120
2, 143784, Note_on_c, 0, 78, 0
2, 143808, Note_on_c, 0, 78, 117
2, 143832, Note_on_c, 0, 78, 0
2, 143856, Note_on_c, 0, 76, 116
2, 143948, Note_on_c, 0, 76, 0
2, 143952, Note_on_c, 0, 74, 120
2, 144140, Note_on_c, 0, 74, 0
2, 144144, Note_on_c, 0, 76, 120
2, 144236, Note_on_c, 0, 76, 0
2, 144240, Note_on_c, 0, 78, 120
2, 144384, Note_on_c, 0, 78, 0
2, 144384, Note_on_c, 0, 79, 120
2, 144408, Note_on_c, 0, 79, 0
2, 144408, Note_on_c, 0, 81, 120
2, 144432, Note_on_c, 0, 81, 0
2, 144432, Note_on_c, 0, 83, 120
2, 144456, Note_on_c, 0, 83, 0
2, 144480, Note_on_c, 0, 83, 120
2, 144504, Note_on_c, 0, 83, 0
2, 144528, Note_on_c, 0, 85, 122
2, 144552, Note_on_c, 0, 85, 0
2, 144576, Note_on_c, 0, 85, 122
2, 144600, Note_on_c, 0, 85, 0
2, 144624, Control_c, 0, 11, 95
2, 144624, Note_on_c, 0, 74, 120
2, 144624, Note_on_c, 0, 86, 120
2, 144625, Control_c, 0, 11, 90
2, 144626, Control_c, 0, 11, 87
2, 144627, Control_c, 0, 11, 84
2, 144628, Control_c, 0, 11, 81
2, 144629, Control_c, 0, 11, 79
2, 144630, Control_c, 0, 11, 77
2, 144631, Control_c, 0, 11, 74
2, 144632, Control_c, 0, 11, 73
2, 144633, Control_c, 0, 11, 71
2, 144634, Control_c, 0, 11, 70
2, 144635, Control_c, 0, 11, 69
2, 144636, Control_c, 0, 11, 68
2, 144637, Control_c, 0, 11, 67
2, 144638, Control_c, 0, 11, 66
2, 144639, Control_c, 0, 11, 65
2, 144641, Control_c, 0, 11, 64
2, 144642, Control_c, 0, 11, 63
2, 144645, Control_c, 0, 11, 62
2, 144648, Control_c, 0, 11, 61
2, 144654, Control_c, 0, 11, 60
2, 145392, Control_c, 0, 11, 60
2, 145436, Control_c, 0, 11, 61
2, 145480, Control_c, 0, 11, 62
2, 145524, Control_c, 0, 11, 63
2, 145568, Control_c, 0, 11, 64
2, 145612, Control_c, 0, 11, 65
2, 145656, Control_c, 0, 11, 66
2, 145699, Control_c, 0, 11, 67
2, 145743, Control_c, 0, 11, 68
2, 145787, Control_c, 0, 11, 69
2, 145831, Control_c, 0, 11, 70
2, 145875, Control_c, 0, 11, 71
2, 145919, Control_c, 0, 11, 72
2, 145963, Control_c, 0, 11, 73
2, 146006, Control_c, 0, 11, 74
2, 146050, Control_c, 0, 11, 75
2, 146094, Control_c, 0, 11, 76
2, 146138, Control_c, 0, 11, 77
2, 146182, Control_c, 0, 11, 78
2, 146226, Control_c, 0, 11, 79
2, 146270, Control_c, 0, 11, 80
2, 146313, Control_c, 0, 11, 81
2, 146357, Control_c, 0, 11, 82
2, 146401, Control_c, 0, 11, 83
2, 146445, Control_c, 0, 11, 84
2, 146489, Control_c, 0, 11, 85
2, 146533, Control_c, 0, 11, 86
2, 146577, Control_c, 0, 11, 87
2, 146620, Control_c, 0, 11, 88
2, 146664, Control_c, 0, 11, 89
2, 146708, Control_c, 0, 11, 90
2, 146752, Control_c, 0, 11, 91
2, 146796, Control_c, 0, 11, 92
2, 146840, Control_c, 0, 11, 93
2, 146884, Control_c, 0, 11, 94
2, 146926, Note_on_c, 0, 86, 0
2, 146926, Note_on_c, 0, 74, 0
2, 146927, Control_c, 0, 11, 95
2, 146928, Control_c, 0, 99, 1
2, 146928, Control_c, 0, 98, 102
2, 146928, Control_c, 0, 6, 68
2, 146928, Note_on_c, 0, 74, 120
2, 146928, Note_on_c, 0, 86, 120
2, 146998, Note_on_c, 0, 86, 0
2, 146998, Note_on_c, 0, 74, 0
2, 147024, Note_on_c, 0, 74, 115
2, 147024, Note_on_c, 0, 86, 115
2, 147094, Note_on_c, 0, 86, 0
2, 147094, Note_on_c, 0, 74, 0
2, 147120, Note_on_c, 0, 76, 120
2, 147120, Note_on_c, 0, 85, 120
2, 147190, Note_on_c, 0, 85, 0
2, 147190, Note_on_c, 0, 76, 0
2, 147216, Note_on_c, 0, 76, 115
2, 147216, Note_on_c, 0, 85, 115
2, 147286, Note_on_c, 0, 85, 0
2, 147286, Note_on_c, 0, 76, 0
2, 147312, Note_on_c, 0, 74, 120
2, 147312, Note_on_c, 0, 86, 120
2, 147382, Note_on_c, 0, 86, 0
2, 147382, Note_on_c, 0, 74, 0
2, 147408, Note_on_c, 0, 74, 111
2, 147408, Note_on_c, 0, 86, 111
2, 147478, Note_on_c, 0, 86, 0
2, 147478, Note_on_c, 0, 74, 0
2, 147504, Note_on_c, 0, 76, 101
2, 147504, Note_on_c, 0, 85, 101
2, 147574, Note_on_c, 0, 85, 0
2, 147574, Note_on_c, 0, 76, 0
2, 147600, Note_on_c, 0, 76, 91
2, 147600, Note_on_c, 0, 85, 91
2, 147670, Note_on_c, 0, 85, 0
2, 147670, Note_on_c, 0, 76, 0
2, 147696, Control_c, 0, 6, 64
2, 147696, Control_c, 0, 11, 60
2, 147696, Note_on_c, 0, 74, 120
2, 147696, Note_on_c, 0, 86, 120
2, 147740, Control_c, 0, 11, 61
2, 147784, Control_c, 0, 11, 62
2, 147828, Control_c, 0, 11, 63
2, 147872, Control_c, 0, 11, 64
2, 147916, Control_c, 0, 11, 65
2, 147960, Control_c, 0, 11, 66
2, 148003, Control_c, 0, 11, 67
2, 148047, Control_c, 0, 11, 68
2, 148091, Control_c, 0, 11, 69
2, 148135, Control_c, 0, 11, 70
2, 148179, Control_c, 0, 11, 71
2, 148223, Control_c, 0, 11, 72
2, 148267, Control_c, 0, 11, 73
2, 148310, Control_c, 0, 11, 74
2, 148354, Control_c, 0, 11, 75
2, 148398, Control_c, 0, 11, 76
2, 148442, Control_c, 0, 11, 77
2, 148486, Control_c, 0, 11, 78
2, 148530, Control_c, 0, 11, 79
2, 148574, Control_c, 0, 11, 80
2, 148617, Control_c, 0, 11, 81
2, 148661, Control_c, 0, 11, 82
2, 148705, Control_c, 0, 11, 83
2, 148749, Control_c, 0, 11, 84
2, 148793, Control_c, 0, 11, 85
2, 148837, Control_c, 0, 11, 86
2, 148881, Control_c, 0, 11, 87
2, 148924, Control_c, 0, 11, 88
2, 148968, Control_c, 0, 11, 89
2, 149012, Control_c, 0, 11, 90
2, 149056, Control_c, 0, 11, 91
2, 149100, Control_c, 0, 11, 92
2, 149144, Control_c, 0, 11, 93
2, 149188, Control_c, 0, 11, 94
2, 149230, Note_on_c, 0, 86, 0
2, 149230, Note_on_c, 0, 74, 0
2, 149231, Control_c, 0, 11, 95
2, 149232, Control_c, 0, 6, 68
2, 149232, Note_on_c, 0, 74, 120
2, 149232, Note_on_c, 0, 86, 120
2, 149302, Note_on_c, 0, 86, 0
2, 149302, Note_on_c, 0, 74, 0
2, 149328, Note_on_c, 0, 74, 115
2, 149328, Note_on_c, 0, 86, 115
2, 149398, Note_on_c, 0, 86, 0
2, 149398, Note_on_c, 0, 74, 0
2, 149424, Note_on_c, 0, 76, 120
2, 149424, Note_on_c, 0, 85, 120
2, 149494, Note_on_c, 0, 85, 0
2, 149494, Note_on_c, 0, 76, 0
2, 149520, Note_on_c, 0, 76, 115
2, 149520, Note_on_c, 0, 85, 115
2, 149590, Note_on_c, 0, 85, 0
2, 149590, Note_on_c, 0, 76, 0
2, 149616, Note_on_c, 0, 74, 120
2, 149616, Note_on_c, 0, 86, 120
2, 149686, Note_on_c, 0, 86, 0
2, 149686, Note_on_c, 0, 74, 0
2, 149712, Note_on_c, 0, 74, 118
2, 149712, Note_on_c, 0, 86, 118
2, 149782, Note_on_c, 0, 86, 0
2, 149782, Note_on_c, 0, 74, 0
2, 149808, Note_on_c, 0, 76, 115
2, 149808, Note_on_c, 0, 85, 115
2, 149878, Note_on_c, 0, 85, 0
2, 149878, Note_on_c, 0, 76, 0
2, 149904, Note_on_c, 0, 76, 113
2, 149904, Note_on_c, 0, 85, 113
2, 149974, Note_on_c, 0, 85, 0
2, 149974, Note_on_c, 0, 76, 0
2, 150000, Note_on_c, 0, 74, 110
2, 150000, Note_on_c, 0, 86, 110
2, 150070, Note_on_c, 0, 86, 0
2, 150070, Note_on_c, 0, 74, 0
2, 150096, Note_on_c, 0, 74, 107
2, 150096, Note_on_c, 0, 86, 107
2, 150166, Note_on_c, 0, 86, 0
2, 150166, Note_on_c, 0, 74, 0
2, 150192, Note_on_c, 0, 76, 105
2, 150192, Note_on_c, 0, 85, 105
2, 150262, Note_on_c, 0, 85, 0
2, 150262, Note_on_c, 0, 76, 0
2, 150288, Note_on_c, 0, 76, 102
2, 150288, Note_on_c, 0, 85, 102
2, 150358, Note_on_c, 0, 85, 0
2, 150358, Note_on_c, 0, 76, 0
2, 150384, Note_on_c, 0, 74, 99
2, 150384, Note_on_c, 0, 86, 99
2, 150454, Note_on_c, 0, 86, 0
2, 150454, Note_on_c, 0, 74, 0
2, 150480, Note_on_c, 0, 74, 97
2, 150480, Note_on_c, 0, 86, 97
2, 150550, Note_on_c, 0, 86, 0
2, 150550, Note_on_c, 0, 74, 0
2, 150576, Note_on_c, 0, 76, 94
2, 150576, Note_on_c, 0, 85, 94
2, 150646, Note_on_c, 0, 85, 0
2, 150646, Note_on_c, 0, 76, 0
2, 150672, Note_on_c, 0, 76, 92
2, 150672, Note_on_c, 0, 85, 92
2, 150742, Note_on_c, 0, 85, 0
2, 150742, Note_on_c, 0, 76, 0
2, 150768, Control_c, 0, 6, 64
2, 150768, Note_on_c, 0, 74, 75
2, 150768, Note_on_c, 0, 86, 75
2, 151197, Note_on_c, 0, 86, 0
2, 151197, Note_on_c, 0, 74, 0
2, 151200, Note_on_c, 0, 74, 72
2, 151245, Note_on_c, 0, 74, 0
2, 151248, Note_on_c, 0, 74, 72
2, 151296, Note_on_c, 0, 74, 0
2, 151296, Note_on_c, 0, 73, 71
2, 151344, Note_on_c, 0, 73, 0
2, 151344, Note_on_c, 0, 74, 71
2, 151392, Note_on_c, 0, 74, 0
2, 151392, Note_on_c, 0, 71, 71
2, 151440, Note_on_c, 0, 71, 0
2, 151440, Note_on_c, 0, 69, 70
2, 151488, Note_on_c, 0, 69, 0
2, 151488, Note_on_c, 0, 67, 70
2, 151536, Note_on_c, 0, 67, 0
2, 151536, Note_on_c, 0, 74, 69
2, 151581, Note_on_c, 0, 74, 0
2, 152112, Note_on_c, 0, 86, 65
2, 152160, Note_on_c, 0, 86, 0
2, 152160, Note_on_c, 0, 82, 65
2, 152208, Note_on_c, 0, 82, 0
2, 152208, Note_on_c, 0, 81, 64
2, 152256, Note_on_c, 0, 81, 0
2, 152256, Note_on_c, 0, 79, 64
2, 152280, Note_on_c, 0, 79, 0
2, 152304, Control_c, 0, 11, 120
2, 152304, Program_c, 0, 48
2, 152304, Control_c, 0, 99, 1
2, 152304, Control_c, 0, 98, 99
2, 152304, Control_c, 0, 6, 14
2, 152304, Note_on_c, 0, 86, 110
2, 152344, Note_on_c, 0, 86, 0
2, 152379, Note_on_c, 0, 74, 100
2, 152397, Note_on_c, 0, 74, 0
2, 152403, Note_on_c, 0, 74, 100
2, 152441, Note_on_c, 0, 74, 0
2, 152595, Note_on_c, 0, 81, 110
2, 152630, Note_on_c, 0, 81, 0
2, 152667, Note_on_c, 0, 69, 100
2, 152679, Note_on_c, 0, 69, 0
2, 152691, Note_on_c, 0, 69, 100
2, 152715, Note_on_c, 0, 69, 0
2, 153027, Note_on_c, 0, 74, 110
2, 153062, Note_on_c, 0, 74, 0
2, 153099, Note_on_c, 0, 62, 100
2, 153111, Note_on_c, 0, 62, 0
2, 153123, Note_on_c, 0, 62, 100
2, 153147, Note_on_c, 0, 62, 0
2, 155184, Note_on_c, 0, 86, 60
2, 155219, Note_on_c, 0, 86, 0
2, 155256, Note_on_c, 0, 74, 50
2, 155268, Note_on_c, 0, 74, 0
2, 155280, Note_on_c, 0, 74, 50
2, 155304, Note_on_c, 0, 74, 0
2, 155328, Note_on_c, 0, 81, 55
2, 155352, Note_on_c, 0, 81, 0
2, 155376, Note_on_c, 0, 83, 50
2, 155400, Note_on_c, 0, 83, 0
2, 155424, Note_on_c, 0, 84, 50
2, 155448, Note_on_c, 0, 84, 0
2, 155472, Note_on_c, 0, 83, 55
2, 155496, Note_on_c, 0, 83, 0
2, 155520, Note_on_c, 0, 84, 50
2, 155544, Note_on_c, 0, 84, 0
2, 155568, Note_on_c, 0, 86, 50
2, 155592, Note_on_c, 0, 86, 0
2, 155616, Note_on_c, 0, 84, 55
2, 155640, Note_on_c, 0, 84, 0
2, 155664, Note_on_c, 0, 83, 50
2, 155688, Note_on_c, 0, 83, 0
2, 155712, Note_on_c, 0, 81, 50
2, 155736, Note_on_c, 0, 81, 0
2, 155760, Note_on_c, 0, 82, 55
2, 155784, Note_on_c, 0, 82, 0
2, 155808, Note_on_c, 0, 81, 50
2, 155832, Note_on_c, 0, 81, 0
2, 155856, Note_on_c, 0, 79, 50
2, 155880, Note_on_c, 0, 79, 0
2, 155904, Note_on_c, 0, 77, 55
2, 155928, Note_on_c, 0, 77, 0
2, 155952, Note_on_c, 0, 76, 50
2, 155976, Note_on_c, 0, 76, 0
2, 156000, Note_on_c, 0, 74, 50
2, 156024, Note_on_c, 0, 74, 0
2, 156048, Note_on_c, 0, 73, 55
2, 156072, Note_on_c, 0, 73, 0
2, 156096, Note_on_c, 0, 74, 50
2, 156120, Note_on_c, 0, 74, 0
2, 156144, Note_on_c, 0, 76, 50
2, 156168, Note_on_c, 0, 76, 0
2, 156192, Note_on_c, 0, 74, 55
2, 156216, Note_on_c, 0, 74, 0
2, 156240, Note_on_c, 0, 73, 50
2, 156264, Note_on_c, 0, 73, 0
2, 156288, Note_on_c, 0, 74, 50
2, 156312, Note_on_c, 0, 74, 0
2, 156336, Note_on_c, 0, 69, 55
2, 156360, Note_on_c, 0, 69, 0
2, 156384, Note_on_c, 0, 81, 50
2, 156408, Note_on_c, 0, 81, 0
2, 156432, Note_on_c, 0, 81, 50
2, 156456, Note_on_c, 0, 81, 0
2, 156480, Note_on_c, 0, 81, 55
2, 156504, Note_on_c, 0, 81, 0
2, 156528, Note_on_c, 0, 88, 50
2, 156552, Note_on_c, 0, 88, 0
2, 156576, Note_on_c, 0, 88, 50
2, 156600, Note_on_c, 0, 88, 0
2, 156624, Note_on_c, 0, 88, 55
2, 156648, Note_on_c, 0, 88, 0
2, 156672, Note_on_c, 0, 88, 50
2, 156696, Note_on_c, 0, 88, 0
2, 156720, Note_on_c, 0, 88, 50
2, 156744, Note_on_c, 0, 88, 0
2, 156768, Note_on_c, 0, 88, 55
2, 156792, Note_on_c, 0, 88, 0
2, 156816, Note_on_c, 0, 88, 50
2, 156840, Note_on_c, 0, 88, 0
2, 156864, Note_on_c, 0, 81, 50
2, 156888, Note_on_c, 0, 81, 0
2, 156912, Note_on_c, 0, 81, 55
2, 156936, Note_on_c, 0, 81, 0
2, 156960, Note_on_c, 0, 81, 50
2, 156984, Note_on_c, 0, 81, 0
2, 157008, Note_on_c, 0, 81, 50
2, 157032, Note_on_c, 0, 81, 0
2, 157056, Note_on_c, 0, 81, 55
2, 157080, Note_on_c, 0, 81, 0
2, 157104, Note_on_c, 0, 81, 50
2, 157128, Note_on_c, 0, 81, 0
2, 157152, Note_on_c, 0, 81, 50
2, 157176, Note_on_c, 0, 81, 0
2, 157200, Note_on_c, 0, 82, 55
2, 157224, Note_on_c, 0, 82, 0
2, 157248, Note_on_c, 0, 81, 50
2, 157272, Note_on_c, 0, 81, 0
2, 157296, Note_on_c, 0, 79, 50
2, 157320, Note_on_c, 0, 79, 0
2, 157344, Note_on_c, 0, 77, 55
2, 157368, Note_on_c, 0, 77, 0
2, 157392, Note_on_c, 0, 76, 50
2, 157416, Note_on_c, 0, 76, 0
2, 157440, Note_on_c, 0, 74, 50
2, 157464, Note_on_c, 0, 74, 0
2, 157488, Note_on_c, 0, 77, 55
2, 157512, Note_on_c, 0, 77, 0
2, 157536, Note_on_c, 0, 76, 50
2, 157560, Note_on_c, 0, 76, 0
2, 157584, Note_on_c, 0, 74, 50
2, 157608, Note_on_c, 0, 74, 0
2, 157632, Note_on_c, 0, 72, 55
2, 157656, Note_on_c, 0, 72, 0
2, 157680, Note_on_c, 0, 71, 50
2, 157704, Note_on_c, 0, 71, 0
2, 157728, Note_on_c, 0, 69, 50
2, 157752, Note_on_c, 0, 69, 0
2, 157776, Note_on_c, 0, 68, 55
2, 157800, Note_on_c, 0, 68, 0
2, 157824, Note_on_c, 0, 69, 50
2, 157848, Note_on_c, 0, 69, 0
2, 157872, Note_on_c, 0, 71, 50
2, 157896, Note_on_c, 0, 71, 0
2, 157920, Note_on_c, 0, 69, 55
2, 157944, Note_on_c, 0, 69, 0
2, 157968, Note_on_c, 0, 68, 50
2, 157992, Note_on_c, 0, 68, 0
2, 158016, Note_on_c, 0, 69, 50
2, 158040, Note_on_c, 0, 69, 0
2, 158064, Note_on_c, 0, 73, 55
2, 158088, Note_on_c, 0, 73, 0
2, 158112, Note_on_c, 0, 74, 50
2, 158136, Note_on_c, 0, 74, 0
2, 158160, Note_on_c, 0, 76, 50
2, 158184, Note_on_c, 0, 76, 0
2, 158208, Note_on_c, 0, 77, 55
2, 158232, Note_on_c, 0, 77, 0
2, 158256, Note_on_c, 0, 79, 50
2, 158280, Note_on_c, 0, 79, 0
2, 158304, Note_on_c, 0, 81, 50
2, 158328, Note_on_c, 0, 81, 0
2, 158352, Note_on_c, 0, 82, 55
2, 158376, Note_on_c, 0, 82, 0
2, 158400, Note_on_c, 0, 81, 50
2, 158424, Note_on_c, 0, 81, 0
2, 158448, Note_on_c, 0, 79, 50
2, 158472, Note_on_c, 0, 79, 0
2, 158496, Note_on_c, 0, 77, 55
2, 158520, Note_on_c, 0, 77, 0
2, 158544, Note_on_c, 0, 76, 50
2, 158568, Note_on_c, 0, 76, 0
2, 158592, Note_on_c, 0, 74, 50
2, 158616, Note_on_c, 0, 74, 0
2, 158640, Note_on_c, 0, 73, 55
2, 158664, Note_on_c, 0, 73, 0
2, 158688, Note_on_c, 0, 74, 51
2, 158712, Note_on_c, 0, 74, 0
2, 158736, Note_on_c, 0, 76, 53
2, 158760, Note_on_c, 0, 76, 0
2, 158784, Note_on_c, 0, 74, 60
2, 158808, Note_on_c, 0, 74, 0
2, 158832, Note_on_c, 0, 73, 56
2, 158856, Note_on_c, 0, 73, 0
2, 158880, Note_on_c, 0, 74, 58
2, 158904, Note_on_c, 0, 74, 0
2, 158928, Note_on_c, 0, 73, 65
2, 158952, Note_on_c, 0, 73, 0
2, 158976, Note_on_c, 0, 74, 61
2, 159000, Note_on_c, 0, 74, 0
2, 159024, Note_on_c, 0, 76, 63
2, 159048, Note_on_c, 0, 76, 0
2, 159072, Note_on_c, 0, 74, 70
2, 159096, Note_on_c, 0, 74, 0
2, 159120, Note_on_c, 0, 73, 66
2, 159144, Note_on_c, 0, 73, 0
2, 159168, Note_on_c, 0, 74, 68
2, 159192, Note_on_c, 0, 74, 0
2, 159216, Note_on_c, 0, 73, 75
2, 159240, Note_on_c, 0, 73, 0
2, 159264, Note_on_c, 0, 74, 71
2, 159288, Note_on_c, 0, 74, 0
2, 159312, Note_on_c, 0, 76, 73
2, 159336, Note_on_c, 0, 76, 0
2, 159360, Note_on_c, 0, 74, 80
2, 159384, Note_on_c, 0, 74, 0
2, 159408, Note_on_c, 0, 73, 77
2, 159432, Note_on_c, 0, 73, 0
2, 159456, Note_on_c, 0, 74, 78
2, 159480, Note_on_c, 0, 74, 0
2, 159504, Note_on_c, 0, 76, 85
2, 159528, Note_on_c, 0, 76, 0
2, 159552, Note_on_c, 0, 77, 82
2, 159576, Note_on_c, 0, 77, 0
2, 159600, Note_on_c, 0, 79, 83
2, 159624, Note_on_c, 0, 79, 0
2, 159648, Note_on_c, 0, 77, 90
2, 159672, Note_on_c, 0, 77, 0
2, 159696, Note_on_c, 0, 76, 87
2, 159720, Note_on_c, 0, 76, 0
2, 159744, Note_on_c, 0, 77, 88
2, 159768, Note_on_c, 0, 77, 0
2, 159792, Note_on_c, 0, 76, 95
2, 159816, Note_on_c, 0, 76, 0
2, 159840, Note_on_c, 0, 77, 92
2, 159864, Note_on_c, 0, 77, 0
2, 159888, Note_on_c, 0, 79, 93
2, 159912, Note_on_c, 0, 79, 0
2, 159936, Note_on_c, 0, 77, 100
2, 159960, Note_on_c, 0, 77, 0
2, 159984, Note_on_c, 0, 76, 97
2, 160008, Note_on_c, 0, 76, 0
2, 160032, Note_on_c, 0, 77, 98
2, 160056, Note_on_c, 0, 77, 0
2, 160080, Note_on_c, 0, 76, 105
2, 160104, Note_on_c, 0, 76, 0
2, 160128, Note_on_c, 0, 77, 102
2, 160152, Note_on_c, 0, 77, 0
2, 160176, Note_on_c, 0, 79, 104
2, 160200, Note_on_c, 0, 79, 0
2, 160224, Note_on_c, 0, 81, 110
2, 160259, Note_on_c, 0, 81, 0
2, 160296, Note_on_c, 0, 69, 108
2, 160308, Note_on_c, 0, 69, 0
2, 160320, Note_on_c, 0, 69, 109
2, 160344, Note_on_c, 0, 69, 0
2, 160368, Note_on_c, 0, 62, 102
2, 160373, Note_on_c, 0, 69, 106
2, 160376, Note_on_c, 0, 81, 115
2, 160392, Note_on_c, 0, 62, 0
2, 160397, Note_on_c, 0, 69, 0
2, 160400, Note_on_c, 0, 81, 0
2, 160442, Note_on_c, 0, 69, 110
2, 160454, Note_on_c, 0, 69, 0
2, 160466, Note_on_c, 0, 69, 110
2, 160490, Note_on_c, 0, 69, 0
2, 160514, Note_on_c, 0, 74, 115
2, 160538, Note_on_c, 0, 74, 0
2, 160562, Note_on_c, 0, 76, 110
2, 160586, Note_on_c, 0, 76, 0
2, 160610, Note_on_c, 0, 77, 110
2, 160634, Note_on_c, 0, 77, 0
2, 160658, Note_on_c, 0, 76, 115
2, 160682, Note_on_c, 0, 76, 0
2, 160706, Note_on_c, 0, 77, 110
2, 160730, Note_on_c, 0, 77, 0
2, 160754, Note_on_c, 0, 79, 110
2, 160778, Note_on_c, 0, 79, 0
2, 160802, Note_on_c, 0, 77, 115
2, 160826, Note_on_c, 0, 77, 0
2, 160850, Note_on_c, 0, 76, 110
2, 160874, Note_on_c, 0, 76, 0
2, 160898, Note_on_c, 0, 74, 110
2, 160922, Note_on_c, 0, 74, 0
2, 160946, Note_on_c, 0, 82, 115
2, 160970, Note_on_c, 0, 82, 0
2, 160994, Note_on_c, 0, 81, 110
2, 161018, Note_on_c, 0, 81, 0
2, 161042, Note_on_c, 0, 79, 110
2, 161066, Note_on_c, 0, 79, 0
2, 161090, Note_on_c, 0, 77, 115
2, 161114, Note_on_c, 0, 77, 0
2, 161138, Note_on_c, 0, 76, 110
2, 161162, Note_on_c, 0, 76, 0
2, 161186, Note_on_c, 0, 74, 110
2, 161210, Note_on_c, 0, 74, 0
2, 161234, Note_on_c, 0, 73, 115
2, 161258, Note_on_c, 0, 73, 0
2, 161282, Note_on_c, 0, 74, 110
2, 161306, Note_on_c, 0, 74, 0
2, 161330, Note_on_c, 0, 76, 110
2, 161354, Note_on_c, 0, 76, 0
2, 161378, Note_on_c, 0, 74, 115
2, 161402, Note_on_c, 0, 74, 0
2, 161426, Note_on_c, 0, 73, 110
2, 161450, Note_on_c, 0, 73, 0
2, 161474, Note_on_c, 0, 74, 110
2, 161498, Note_on_c, 0, 74, 0
2, 161522, Note_on_c, 0, 82, 115
2, 161546, Note_on_c, 0, 82, 0
2, 161570, Note_on_c, 0, 81, 110
2, 161594, Note_on_c, 0, 81, 0
2, 161618, Note_on_c, 0, 79, 110
2, 161642, Note_on_c, 0, 79, 0
2, 161666, Note_on_c, 0, 77, 115
2, 161690, Note_on_c, 0, 77, 0
2, 161714, Note_on_c, 0, 76, 110
2, 161738, Note_on_c, 0, 76, 0
2, 161762, Note_on_c, 0, 74, 110
2, 161786, Note_on_c, 0, 74, 0
2, 161810, Note_on_c, 0, 73, 115
2, 161834, Note_on_c, 0, 73, 0
2, 161858, Note_on_c, 0, 74, 110
2, 161882, Note_on_c, 0, 74, 0
2, 161906, Note_on_c, 0, 76, 110
2, 161930, Note_on_c, 0, 76, 0
2, 161954, Note_on_c, 0, 74, 115
2, 161978, Note_on_c, 0, 74, 0
2, 162002, Note_on_c, 0, 73, 110
2, 162026, Note_on_c, 0, 73, 0
2, 162050, Note_on_c, 0, 74, 110
2, 162074, Note_on_c, 0, 74, 0
2, 162098, Note_on_c, 0, 81, 115
2, 162122, Note_on_c, 0, 81, 0
2, 162146, Note_on_c, 0, 79, 110
2, 162170, Note_on_c, 0, 79, 0
2, 162194, Note_on_c, 0, 77, 110
2, 162218, Note_on_c, 0, 77, 0
2, 162242, Note_on_c, 0, 76, 115
2, 162266, Note_on_c, 0, 76, 0
2, 162290, Note_on_c, 0, 74, 110
2, 162314, Note_on_c, 0, 74, 0
2, 162338, Note_on_c, 0, 72, 110
2, 162362, Note_on_c, 0, 72, 0
2, 162386, Note_on_c, 0, 71, 115
2, 162410, Note_on_c, 0, 71, 0
2, 162434, Note_on_c, 0, 72, 110
2, 162458, Note_on_c, 0, 72, 0
2, 162482, Note_on_c, 0, 74, 110
2, 162506, Note_on_c, 0, 74, 0
2, 162530, Note_on_c, 0, 72, 110
2, 162554, Note_on_c, 0, 72, 0
2, 162578, Note_on_c, 0, 81, 118
2, 162602, Note_on_c, 0, 81, 0
2, 162626, Note_on_c, 0, 81, 118
2, 162650, Note_on_c, 0, 81, 0
2, 162674, Note_on_c, 0, 81, 115
2, 162698, Note_on_c, 0, 81, 0
2, 162722, Note_on_c, 0, 79, 110
2, 162746, Note_on_c, 0, 79, 0
2, 162770, Note_on_c, 0, 77, 110
2, 162794, Note_on_c, 0, 77, 0
2, 162818, Note_on_c, 0, 76, 115
2, 162842, Note_on_c, 0, 76, 0
2, 162866, Note_on_c, 0, 74, 110
2, 162890, Note_on_c, 0, 74, 0
2, 162914, Note_on_c, 0, 72, 110
2, 162938, Note_on_c, 0, 72, 0
2, 162962, Note_on_c, 0, 79, 115
2, 162986, Note_on_c, 0, 79, 0
2, 163010, Note_on_c, 0, 77, 110
2, 163034, Note_on_c, 0, 77, 0
2, 163058, Note_on_c, 0, 76, 110
2, 163082, Note_on_c, 0, 76, 0
2, 163106, Note_on_c, 0, 88, 115
2, 163130, Note_on_c, 0, 88, 0
2, 163154, Note_on_c, 0, 86, 110
2, 163178, Note_on_c, 0, 86, 0
2, 163202, Note_on_c, 0, 84, 110
2, 163226, Note_on_c, 0, 84, 0
2, 163250, Note_on_c, 0, 67, 102
2, 163253, Note_on_c, 0, 74, 106
2, 163256, Note_on_c, 0, 83, 110
2, 163274, Note_on_c, 0, 67, 0
2, 163277, Note_on_c, 0, 74, 0
2, 163280, Note_on_c, 0, 83, 0
2, 163536, Note_on_c, 0, 81, 69
2, 163571, Note_on_c, 0, 81, 0
2, 163608, Note_on_c, 0, 69, 74
2, 163620, Note_on_c, 0, 69, 0
2, 163632, Note_on_c, 0, 69, 76
2, 163656, Note_on_c, 0, 69, 0
2, 163680, Note_on_c, 0, 86, 79
2, 163715, Note_on_c, 0, 86, 0
2, 163752, Note_on_c, 0, 74, 84
2, 163764, Note_on_c, 0, 74, 0
2, 163776, Note_on_c, 0, 74, 85
2, 163800, Note_on_c, 0, 74, 0
2, 163824, Note_on_c, 0, 86, 89
2, 163859, Note_on_c, 0, 86, 0
2, 163896, Note_on_c, 0, 74, 93
2, 163908, Note_on_c, 0, 74, 0
2, 163920, Note_on_c, 0, 74, 95
2, 163944, Note_on_c, 0, 74, 0
2, 163968, Note_on_c, 0, 84, 100
2, 164003, Note_on_c, 0, 84, 0
2, 164040, Note_on_c, 0, 72, 93
2, 164052, Note_on_c, 0, 72, 0
2, 164064, Note_on_c, 0, 72, 91
2, 164088, Note_on_c, 0, 72, 0
2, 164112, Note_on_c, 0, 84, 86
2, 164147, Note_on_c, 0, 84, 0
2, 164184, Note_on_c, 0, 72, 78
2, 164196, Note_on_c, 0, 72, 0
2, 164208, Note_on_c, 0, 72, 76
2, 164232, Note_on_c, 0, 72, 0
2, 164256, Note_on_c, 0, 83, 71
2, 164291, Note_on_c, 0, 83, 0
2, 164328, Note_on_c, 0, 71, 64
2, 164340, Note_on_c, 0, 71, 0
2, 164352, Note_on_c, 0, 71, 61
2, 164376, Note_on_c, 0, 71, 0
2, 164832, Note_on_c, 0, 86, 69
2, 164867, Note_on_c, 0, 86, 0
2, 164904, Note_on_c, 0, 74, 73
2, 164916, Note_on_c, 0, 74, 0
2, 164928, Note_on_c, 0, 74, 75
2, 164952, Note_on_c, 0, 74, 0
2, 164976, Note_on_c, 0, 86, 78
2, 165011, Note_on_c, 0, 86, 0
2, 165048, Note_on_c, 0, 74, 82
2, 165060, Note_on_c, 0, 74, 0
2, 165072, Note_on_c, 0, 74, 84
2, 165096, Note_on_c, 0, 74, 0
2, 165120, Note_on_c, 0, 84, 87
2, 165155, Note_on_c, 0, 84, 0
2, 165192, Note_on_c, 0, 72, 91
2, 165204, Note_on_c, 0, 72, 0
2, 165216, Note_on_c, 0, 72, 93
2, 165240, Note_on_c, 0, 72, 0
2, 165264, Note_on_c, 0, 84, 96
2, 165299, Note_on_c, 0, 84, 0
2, 165336, Note_on_c, 0, 72, 101
2, 165348, Note_on_c, 0, 72, 0
2, 165360, Note_on_c, 0, 72, 102
2, 165384, Note_on_c, 0, 72, 0
2, 165408, Note_on_c, 0, 83, 105
2, 165443, Note_on_c, 0, 83, 0
2, 165480, Note_on_c, 0, 71, 110
2, 165492, Note_on_c, 0, 71, 0
2, 165504, Note_on_c, 0, 71, 111
2, 165528, Note_on_c, 0, 71, 0
2, 165552, Note_on_c, 0, 84, 120
2, 165587, Note_on_c, 0, 84, 0
2, 165624, Note_on_c, 0, 72, 113
2, 165636, Note_on_c, 0, 72, 0
2, 165648, Note_on_c, 0, 72, 113
2, 165672, Note_on_c, 0, 72, 0
2, 165696, Note_on_c, 0, 84, 120
2, 165731, Note_on_c, 0, 84, 0
2, 165768, Note_on_c, 0, 72, 113
2, 165780, Note_on_c, 0, 72, 0
2, 165792, Note_on_c, 0, 72, 113
2, 165816, Note_on_c, 0, 72, 0
2, 165840, Note_on_c, 0, 84, 120
2, 165875, Note_on_c, 0, 84, 0
2, 165912, Note_on_c, 0, 72, 113
2, 165924, Note_on_c, 0, 72, 0
2, 165936, Note_on_c, 0, 72, 113
2, 165960, Note_on_c, 0, 72, 0
2, 165984, Note_on_c, 0, 84, 120
2, 166019, Note_on_c, 0, 84, 0
2, 166056, Note_on_c, 0, 72, 113
2, 166068, Note_on_c, 0, 72, 0
2, 166080, Note_on_c, 0, 72, 113
2, 166104, Note_on_c, 0, 72, 0
2, 166128, Note_on_c, 0, 84, 120
2, 166163, Note_on_c, 0, 84, 0
2, 166200, Note_on_c, 0, 72, 113
2, 166212, Note_on_c, 0, 72, 0
2, 166224, Note_on_c, 0, 72, 113
2, 166248, Note_on_c, 0, 72, 0
2, 166272, Note_on_c, 0, 84, 120
2, 166307, Note_on_c, 0, 84, 0
2, 166344, Note_on_c, 0, 72, 113
2, 166356, Note_on_c, 0, 72, 0
2, 166368, Note_on_c, 0, 72, 113
2, 166392, Note_on_c, 0, 72, 0
2, 166416, Note_on_c, 0, 84, 120
2, 166451, Note_on_c, 0, 84, 0
2, 166488, Note_on_c, 0, 72, 113
2, 166500, Note_on_c, 0, 72, 0
2, 166512, Note_on_c, 0, 72, 113
2, 166536, Note_on_c, 0, 72, 0
2, 166560, Note_on_c, 0, 84, 120
2, 166595, Note_on_c, 0, 84, 0
2, 166632, Note_on_c, 0, 72, 113
2, 166644, Note_on_c, 0, 72, 0
2, 166656, Note_on_c, 0, 72, 113
2, 166680, Note_on_c, 0, 72, 0
2, 166704, Note_on_c, 0, 84, 120
2, 166739, Note_on_c, 0, 84, 0
2, 166776, Note_on_c, 0, 72, 113
2, 166788, Note_on_c, 0, 72, 0
2, 166800, Note_on_c, 0, 72, 113
2, 166824, Note_on_c, 0, 72, 0
2, 166848, Note_on_c, 0, 84, 120
2, 166883, Note_on_c, 0, 84, 0
2, 166920, Note_on_c, 0, 72, 113
2, 166932, Note_on_c, 0, 72, 0
2, 166944, Note_on_c, 0, 72, 113
2, 166968, Note_on_c, 0, 72, 0
2, 166992, Note_on_c, 0, 84, 120
2, 167027, Note_on_c, 0, 84, 0
2, 167064, Note_on_c, 0, 72, 113
2, 167076, Note_on_c, 0, 72, 0
2, 167088, Note_on_c, 0, 72, 113
2, 167112, Note_on_c, 0, 72, 0
2, 167136, Note_on_c, 0, 84, 120
2, 167171, Note_on_c, 0, 84, 0
2, 167208, Note_on_c, 0, 72, 113
2, 167220, Note_on_c, 0, 72, 0
2, 167232, Note_on_c, 0, 72, 113
2, 167256, Note_on_c, 0, 72, 0
2, 167280, Note_on_c, 0, 84, 120
2, 167315, Note_on_c, 0, 84, 0
2, 167352, Note_on_c, 0, 72, 113
2, 167364, Note_on_c, 0, 72, 0
2, 167376, Note_on_c, 0, 72, 113
2, 167400, Note_on_c, 0, 72, 0
2, 167424, Note_on_c, 0, 84, 120
2, 167459, Note_on_c, 0, 84, 0
2, 167496, Note_on_c, 0, 72, 113
2, 167508, Note_on_c, 0, 72, 0
2, 167520, Note_on_c, 0, 72, 113
2, 167544, Note_on_c, 0, 72, 0
2, 167568, Note_on_c, 0, 84, 120
2, 167603, Note_on_c, 0, 84, 0
2, 167640, Note_on_c, 0, 72, 113
2, 167652, Note_on_c, 0, 72, 0
2, 167664, Note_on_c, 0, 72, 113
2, 167688, Note_on_c, 0, 72, 0
2, 167712, Note_on_c, 0, 84, 120
2, 167747, Note_on_c, 0, 84, 0
2, 167784, Note_on_c, 0, 72, 113
2, 167796, Note_on_c, 0, 72, 0
2, 167808, Note_on_c, 0, 72, 113
2, 167832, Note_on_c, 0, 72, 0
2, 167856, Note_on_c, 0, 84, 113
2, 167880, Note_on_c, 0, 84, 0
2, 168144, Note_on_c, 0, 81, 120
2, 168179, Note_on_c, 0, 81, 0
2, 168216, Note_on_c, 0, 69, 113
2, 168228, Note_on_c, 0, 69, 0
2, 168240, Note_on_c, 0, 69, 113
2, 168264, Note_on_c, 0, 69, 0
2, 168288, Note_on_c, 0, 81, 117
2, 168312, Note_on_c, 0, 81, 0
2, 168336, Note_on_c, 0, 77, 113
2, 168360, Note_on_c, 0, 77, 0
2, 168384, Note_on_c, 0, 76, 113
2, 168408, Note_on_c, 0, 76, 0
2, 168432, Note_on_c, 0, 74, 113
2, 168456, Note_on_c, 0, 74, 0
2, 168720, Note_on_c, 0, 79, 120
2, 168755, Note_on_c, 0, 79, 0
2, 168792, Note_on_c, 0, 67, 113
2, 168804, Note_on_c, 0, 67, 0
2, 168816, Note_on_c, 0, 67, 113
2, 168840, Note_on_c, 0, 67, 0
2, 168864, Note_on_c, 0, 79, 117
2, 168888, Note_on_c, 0, 79, 0
2, 168912, Note_on_c, 0, 76, 113
2, 168936, Note_on_c, 0, 76, 0
2, 168960, Note_on_c, 0, 74, 113
2, 168984, Note_on_c, 0, 74, 0
2, 169008, Control_c, 0, 11, 60
2, 169008, Note_on_c, 0, 72, 113
2, 169200, Note_on_c, 0, 72, 0
2, 169200, Note_on_c, 0, 74, 113
2, 169248, Note_on_c, 0, 74, 0
2, 169248, Note_on_c, 0, 76, 113
2, 169296, Note_on_c, 0, 76, 0
2, 169296, Control_c, 0, 11, 60
2, 169296, Note_on_c, 0, 77, 113
2, 169311, Control_c, 0, 11, 61
2, 169325, Control_c, 0, 11, 62
2, 169340, Control_c, 0, 11, 63
2, 169354, Control_c, 0, 11, 64
2, 169368, Control_c, 0, 11, 65
2, 169383, Control_c, 0, 11, 66
2, 169397, Control_c, 0, 11, 67
2, 169411, Control_c, 0, 11, 68
2, 169426, Control_c, 0, 11, 69
2, 169440, Note_on_c, 0, 76, 113
2, 169440, Control_c, 0, 11, 70
2, 169441, Note_on_c, 0, 77, 0
2, 169454, Control_c, 0, 11, 71
2, 169469, Control_c, 0, 11, 72
2, 169483, Control_c, 0, 11, 73
2, 169497, Control_c, 0, 11, 74
2, 169512, Control_c, 0, 11, 75
2, 169526, Control_c, 0, 11, 76
2, 169540, Control_c, 0, 11, 77
2, 169555, Control_c, 0, 11, 78
2, 169569, Control_c, 0, 11, 79
2, 169583, Control_c, 0, 11, 80
2, 169584, Note_on_c, 0, 76, 0
2, 169584, Control_c, 0, 11, 80
2, 169584, Note_on_c, 0, 76, 113
2, 169599, Control_c, 0, 11, 79
2, 169613, Control_c, 0, 11, 78
2, 169628, Control_c, 0, 11, 77
2, 169642, Control_c, 0, 11, 76
2, 169656, Control_c, 0, 11, 75
2, 169671, Control_c, 0, 11, 74
2, 169685, Control_c, 0, 11, 73
2, 169699, Control_c, 0, 11, 72
2, 169714, Control_c, 0, 11, 71
2, 169728, Control_c, 0, 11, 70
2, 169742, Control_c, 0, 11, 69
2, 169757, Control_c, 0, 11, 68
2, 169771, Control_c, 0, 11, 67
2, 169776, Note_on_c, 0, 76, 0
2, 169776, Note_on_c, 0, 74, 113
2, 169785, Control_c, 0, 11, 66
2, 169800, Control_c, 0, 11, 65
2, 169814, Control_c, 0, 11, 64
2, 169824, Note_on_c, 0, 74, 0
2, 169824, Note_on_c, 0, 72, 113
2, 169828, Control_c, 0, 11, 63
2, 169843, Control_c, 0, 11, 62
2, 169857, Control_c, 0, 11, 61
2, 169871, Control_c, 0, 11, 60
2, 169872, Note_on_c, 0, 72, 0
2, 170736, Control_c, 0, 11, 120
2, 170736, Note_on_c, 0, 88, 105
2, 170760, Note_on_c, 0, 88, 0
2, 170784, Note_on_c, 0, 84, 100
2, 170808, Note_on_c, 0, 84, 0
2, 170832, Note_on_c, 0, 89, 100
2, 170856, Note_on_c, 0, 89, 0
2, 170880, Note_on_c, 0, 86, 105
2, 170904, Note_on_c, 0, 86, 0
2, 170928, Note_on_c, 0, 83, 100
2, 170952, Note_on_c, 0, 83, 0
2, 170976, Note_on_c, 0, 88, 100
2, 171000, Note_on_c, 0, 88, 0
2, 171024, Note_on_c, 0, 84, 105
2, 171048, Note_on_c, 0, 84, 0
2, 171312, Note_on_c, 0, 88, 105
2, 171336, Note_on_c, 0, 88, 0
2, 171360, Note_on_c, 0, 84, 100
2, 171384, Note_on_c, 0, 84, 0
2, 171408, Note_on_c, 0, 89, 100
2, 171432, Note_on_c, 0, 89, 0
2, 171456, Note_on_c, 0, 86, 105
2, 171480, Note_on_c, 0, 86, 0
2, 171504, Note_on_c, 0, 83, 100
2, 171528, Note_on_c, 0, 83, 0
2, 171552, Note_on_c, 0, 88, 100
2, 171576, Note_on_c, 0, 88, 0
2, 171600, Note_on_c, 0, 84, 107
2, 171635, Note_on_c, 0, 84, 0
2, 171674, Note_on_c, 0, 72, 100
2, 171686, Note_on_c, 0, 72, 0
2, 171698, Note_on_c, 0, 72, 100
2, 171722, Note_on_c, 0, 72, 0
2, 171746, Note_on_c, 0, 67, 95
2, 171770, Note_on_c, 0, 67, 0
2, 171890, Note_on_c, 0, 84, 107
2, 171925, Note_on_c, 0, 84, 0
2, 171962, Note_on_c, 0, 72, 100
2, 171974, Note_on_c, 0, 72, 0
2, 171986, Note_on_c, 0, 72, 100
2, 172010, Note_on_c, 0, 72, 0
2, 172034, Note_on_c, 0, 67, 95
2, 172058, Note_on_c, 0, 67, 0
2, 172170, Control_c, 0, 6, 64
2, 172176, Note_on_c, 0, 77, 57
2, 172224, Note_on_c, 0, 77, 0
2, 172224, Note_on_c, 0, 76, 56
2, 172272, Note_on_c, 0, 76, 0
2, 172272, Note_on_c, 0, 74, 54
2, 172320, Note_on_c, 0, 74, 0
2, 172320, Note_on_c, 0, 72, 53
2, 172368, Note_on_c, 0, 72, 0
2, 172368, Note_on_c, 0, 71, 51
2, 172416, Note_on_c, 0, 71, 0
2, 172416, Note_on_c, 0, 69, 50
2, 172464, Note_on_c, 0, 69, 0
2, 172464, Note_on_c, 0, 67, 47
2, 172512, Note_on_c, 0, 67, 0
2, 172512, Note_on_c, 0, 69, 50
2, 172560, Note_on_c, 0, 69, 0
2, 172560, Note_on_c, 0, 67, 47
2, 172608, Note_on_c, 0, 67, 0
2, 172608, Note_on_c, 0, 65, 45
2, 172656, Note_on_c, 0, 65, 0
2, 172656, Note_on_c, 0, 64, 45
2, 172704, Note_on_c, 0, 64, 0
2, 172704, Note_on_c, 0, 62, 45
2, 172728, Note_on_c, 0, 62, 0
2, 172728, Note_on_c, 0, 71, 50
2, 172752, Note_on_c, 0, 71, 0
2, 172752, Control_c, 0, 6, 14
2, 172752, Note_on_c, 0, 72, 60
2, 172787, Note_on_c, 0, 72, 0
2, 172824, Note_on_c, 0, 60, 50
2, 172836, Note_on_c, 0, 60, 0
2, 172848, Note_on_c, 0, 60, 50
2, 172872, Note_on_c, 0, 60, 0
2, 172896, Note_on_c, 0, 60, 55
2, 172920, Note_on_c, 0, 60, 0
2, 173040, Note_on_c, 0, 72, 60
2, 173075, Note_on_c, 0, 72, 0
2, 173112, Note_on_c, 0, 60, 50
2, 173124, Note_on_c, 0, 60, 0
2, 173136, Note_on_c, 0, 60, 50
2, 173160, Note_on_c, 0, 60, 0
2, 173184, Note_on_c, 0, 62, 55
2, 173208, Note_on_c, 0, 62, 0
2, 173904, Note_on_c, 0, 74, 60
2, 173939, Note_on_c, 0, 74, 0
2, 173976, Note_on_c, 0, 62, 50
2, 173988, Note_on_c, 0, 62, 0
2, 174000, Note_on_c, 0, 62, 50
2, 174024, Note_on_c, 0, 62, 0
2, 174048, Note_on_c, 0, 62, 55
2, 174072, Note_on_c, 0, 62, 0
2, 174192, Note_on_c, 0, 74, 60
2, 174227, Note_on_c, 0, 74, 0
2, 174264, Note_on_c, 0, 62, 50
2, 174276, Note_on_c, 0, 62, 0
2, 174288, Note_on_c, 0, 62, 50
2, 174312, Note_on_c, 0, 62, 0
2, 174336, Note_on_c, 0, 63, 55
2, 174360, Note_on_c, 0, 63, 0
2, 175056, Note_on_c, 0, 75, 70
2, 175091, Note_on_c, 0, 75, 0
2, 175128, Note_on_c, 0, 63, 61
2, 175140, Note_on_c, 0, 63, 0
2, 175152, Note_on_c, 0, 63, 61
2, 175176, Note_on_c, 0, 63, 0
2, 175200, Note_on_c, 0, 63, 65
2, 175224, Note_on_c, 0, 63, 0
2, 175344, Note_on_c, 0, 75, 75
2, 175379, Note_on_c, 0, 75, 0
2, 175416, Note_on_c, 0, 63, 67
2, 175428, Note_on_c, 0, 63, 0
2, 175440, Note_on_c, 0, 63, 67
2, 175464, Note_on_c, 0, 63, 0
2, 175488, Note_on_c, 0, 65, 71
2, 175512, Note_on_c, 0, 65, 0
2, 175632, Note_on_c, 0, 77, 80
2, 175667, Note_on_c, 0, 77, 0
2, 175704, Note_on_c, 0, 65, 72
2, 175716, Note_on_c, 0, 65, 0
2, 175728, Note_on_c, 0, 65, 73
2, 175752, Note_on_c, 0, 65, 0
2, 175776, Note_on_c, 0, 65, 74
2, 175800, Note_on_c, 0, 65, 0
2, 175920, Note_on_c, 0, 78, 86
2, 175955, Note_on_c, 0, 78, 0
2, 175992, Note_on_c, 0, 66, 78
2, 176004, Note_on_c, 0, 66, 0
2, 176016, Note_on_c, 0, 66, 78
2, 176040, Note_on_c, 0, 66, 0
2, 176064, Note_on_c, 0, 66, 79
2, 176088, Note_on_c, 0, 66, 0
2, 176208, Note_on_c, 0, 78, 92
2, 176243, Note_on_c, 0, 78, 0
2, 176280, Note_on_c, 0, 66, 83
2, 176292, Note_on_c, 0, 66, 0
2, 176304, Note_on_c, 0, 66, 84
2, 176328, Note_on_c, 0, 66, 0
2, 176352, Note_on_c, 0, 68, 85
2, 176376, Note_on_c, 0, 68, 0
2, 176496, Note_on_c, 0, 80, 98
2, 176531, Note_on_c, 0, 80, 0
2, 176568, Note_on_c, 0, 68, 89
2, 176580, Note_on_c, 0, 68, 0
2, 176592, Note_on_c, 0, 68, 90
2, 176616, Note_on_c, 0, 68, 0
2, 176640, Note_on_c, 0, 68, 90
2, 176664, Note_on_c, 0, 68, 0
2, 176784, Note_on_c, 0, 81, 110
2, 176819, Note_on_c, 0, 81, 0
2, 176856, Note_on_c, 0, 69, 100
2, 176868, Note_on_c, 0, 69, 0
2, 176880, Note_on_c, 0, 69, 100
2, 176904, Note_on_c, 0, 69, 0
2, 177072, Note_on_c, 0, 82, 119
2, 177107, Note_on_c, 0, 82, 0
2, 177144, Note_on_c, 0, 70, 113
2, 177156, Note_on_c, 0, 70, 0
2, 177168, Note_on_c, 0, 70, 113
2, 177192, Note_on_c, 0, 70, 0
2, 177360, Note_on_c, 0, 83, 120
2, 177395, Note_on_c, 0, 83, 0
2, 177432, Note_on_c, 0, 71, 113
2, 177444, Note_on_c, 0, 71, 0
2, 177456, Note_on_c, 0, 71, 113
2, 177480, Note_on_c, 0, 71, 0
2, 177696, Program_c, 0, 45
2, 177700, Control_c, 0, 7, 105
2, 177840, Note_on_c, 0, 64, 60
2, 177864, Note_on_c, 0, 64, 0
2, 177984, Note_on_c, 0, 59, 57
2, 178008, Note_on_c, 0, 59, 0
2, 178272, Note_on_c, 0, 64, 60
2, 178296, Note_on_c, 0, 64, 0
2, 178416, Note_on_c, 0, 59, 57
2, 178440, Note_on_c, 0, 59, 0
2, 178704, Note_on_c, 0, 64, 60
2, 178728, Note_on_c, 0, 64, 0
2, 178848, Note_on_c, 0, 59, 57
2, 178872, Note_on_c, 0, 59, 0
2, 179136, Note_on_c, 0, 76, 60
2, 179160, Note_on_c, 0, 76, 0
2, 179280, Note_on_c, 0, 64, 57
2, 179304, Note_on_c, 0, 64, 0
2, 179568, Note_on_c, 0, 69, 60
2, 179592, Note_on_c, 0, 69, 0
2, 179712, Note_on_c, 0, 64, 57
2, 179736, Note_on_c, 0, 64, 0
2, 180000, Note_on_c, 0, 69, 60
2, 180024, Note_on_c, 0, 69, 0
2, 180144, Note_on_c, 0, 64, 57
2, 180168, Note_on_c, 0, 64, 0
2, 180432, Note_on_c, 0, 77, 60
2, 180456, Note_on_c, 0, 77, 0
2, 180576, Note_on_c, 0, 65, 57
2, 180600, Note_on_c, 0, 65, 0
2, 180864, Note_on_c, 0, 77, 60
2, 180888, Note_on_c, 0, 77, 0
2, 181008, Note_on_c, 0, 65, 57
2, 181032, Note_on_c, 0, 65, 0
2, 181296, Note_on_c, 0, 77, 60
2, 181320, Note_on_c, 0, 77, 0
2, 181440, Note_on_c, 0, 65, 57
2, 181464, Note_on_c, 0, 65, 0
2, 181728, Note_on_c, 0, 77, 60
2, 181752, Note_on_c, 0, 77, 0
2, 181872, Note_on_c, 0, 65, 57
2, 181896, Note_on_c, 0, 65, 0
2, 182016, Note_on_c, 0, 77, 60
2, 182040, Note_on_c, 0, 77, 0
2, 182160, Note_on_c, 0, 65, 57
2, 182184, Note_on_c, 0, 65, 0
2, 182304, Note_on_c, 0, 77, 60
2, 182328, Note_on_c, 0, 77, 0
2, 182448, Program_c, 0, 48
2, 182448, Control_c, 0, 7, 123
2, 182448, Note_on_c, 0, 76, 55
2, 182472, Note_on_c, 0, 76, 0
2, 182496, Note_on_c, 0, 77, 50
2, 182520, Note_on_c, 0, 77, 0
2, 182544, Note_on_c, 0, 79, 50
2, 182568, Note_on_c, 0, 79, 0
2, 182592, Note_on_c, 0, 79, 55
2, 182616, Note_on_c, 0, 79, 0
2, 182640, Note_on_c, 0, 77, 50
2, 182664, Note_on_c, 0, 77, 0
2, 182688, Note_on_c, 0, 76, 50
2, 182712, Note_on_c, 0, 76, 0
2, 182736, Note_on_c, 0, 76, 55
2, 182760, Note_on_c, 0, 76, 0
2, 182784, Note_on_c, 0, 77, 50
2, 182808, Note_on_c, 0, 77, 0
2, 182832, Note_on_c, 0, 76, 50
2, 182856, Note_on_c, 0, 76, 0
2, 182880, Program_c, 0, 45
2, 182880, Control_c, 0, 7, 105
2, 182880, Note_on_c, 0, 74, 50
2, 182904, Note_on_c, 0, 74, 0
2, 183024, Note_on_c, 0, 62, 47
2, 183048, Note_on_c, 0, 62, 0
2, 183168, Note_on_c, 0, 74, 50
2, 183192, Note_on_c, 0, 74, 0
2, 183312, Program_c, 0, 48
2, 183312, Control_c, 0, 7, 123
2, 183312, Note_on_c, 0, 73, 55
2, 183336, Note_on_c, 0, 73, 0
2, 183360, Note_on_c, 0, 74, 50
2, 183384, Note_on_c, 0, 74, 0
2, 183408, Note_on_c, 0, 76, 50
2, 183432, Note_on_c, 0, 76, 0
2, 183456, Note_on_c, 0, 76, 55
2, 183480, Note_on_c, 0, 76, 0
2, 183504, Note_on_c, 0, 74, 50
2, 183528, Note_on_c, 0, 74, 0
2, 183552, Note_on_c, 0, 73, 50
2, 183576, Note_on_c, 0, 73, 0
2, 183600, Note_on_c, 0, 73, 55
2, 183624, Note_on_c, 0, 73, 0
2, 183648, Note_on_c, 0, 74, 50
2, 183672, Note_on_c, 0, 74, 0
2, 183696, Note_on_c, 0, 73, 50
2, 183720, Note_on_c, 0, 73, 0
2, 183888, Program_c, 0, 45
2, 183888, Control_c, 0, 7, 105
2, 183888, Note_on_c, 0, 69, 50
2, 183912, Note_on_c, 0, 69, 0
2, 184032, Note_on_c, 0, 81, 47
2, 184056, Note_on_c, 0, 81, 0
2, 184176, Program_c, 0, 48
2, 184176, Control_c, 0, 7, 123
2, 184176, Note_on_c, 0, 73, 55
2, 184200, Note_on_c, 0, 73, 0
2, 184224, Note_on_c, 0, 74, 50
2, 184248, Note_on_c, 0, 74, 0
2, 184272, Note_on_c, 0, 76, 50
2, 184296, Note_on_c, 0, 76, 0
2, 184320, Note_on_c, 0, 76, 55
2, 184344, Note_on_c, 0, 76, 0
2, 184368, Note_on_c, 0, 74, 50
2, 184392, Note_on_c, 0, 74, 0
2, 184416, Note_on_c, 0, 73, 50
2, 184440, Note_on_c, 0, 73, 0
2, 184464, Note_on_c, 0, 73, 55
2, 184488, Note_on_c, 0, 73, 0
2, 184512, Note_on_c, 0, 74, 50
2, 184536, Note_on_c, 0, 74, 0
2, 184560, Note_on_c, 0, 73, 50
2, 184584, Note_on_c, 0, 73, 0
2, 184608, Note_on_c, 0, 73, 55
2, 184632, Note_on_c, 0, 73, 0
2, 184656, Note_on_c, 0, 74, 50
2, 184680, Note_on_c, 0, 74, 0
2, 184704, Note_on_c, 0, 76, 50
2, 184728, Note_on_c, 0, 76, 0
2, 184752, Note_on_c, 0, 77, 55
2, 184776, Note_on_c, 0, 77, 0
2, 184896, Program_c, 0, 45
2, 184896, Control_c, 0, 7, 105
2, 184896, Note_on_c, 0, 57, 50
2, 184920, Note_on_c, 0, 57, 0
2, 185184, Note_on_c, 0, 62, 50
2, 185208, Note_on_c, 0, 62, 0
2, 185328, Note_on_c, 0, 57, 47
2, 185352, Note_on_c, 0, 57, 0
2, 185616, Note_on_c, 0, 62, 50
2, 185640, Note_on_c, 0, 62, 0
2, 185760, Note_on_c, 0, 57, 47
2, 185784, Note_on_c, 0, 57, 0
2, 186192, Program_c, 0, 48
2, 186192, Control_c, 0, 7, 123
2, 186768, Note_on_c, 0, 79, 60
2, 186803, Note_on_c, 0, 79, 0
2, 186840, Note_on_c, 0, 67, 50
2, 186852, Note_on_c, 0, 67, 0
2, 186864, Note_on_c, 0, 67, 50
2, 186888, Note_on_c, 0, 67, 0
2, 186912, Note_on_c, 0, 72, 55
2, 186936, Note_on_c, 0, 72, 0
2, 186960, Note_on_c, 0, 74, 50
2, 186984, Note_on_c, 0, 74, 0
2, 187008, Note_on_c, 0, 75, 50
2, 187032, Note_on_c, 0, 75, 0
2, 187056, Note_on_c, 0, 74, 55
2, 187080, Note_on_c, 0, 74, 0
2, 187104, Note_on_c, 0, 75, 50
2, 187128, Note_on_c, 0, 75, 0
2, 187152, Note_on_c, 0, 77, 50
2, 187176, Note_on_c, 0, 77, 0
2, 187200, Note_on_c, 0, 75, 55
2, 187224, Note_on_c, 0, 75, 0
2, 187248, Note_on_c, 0, 74, 50
2, 187272, Note_on_c, 0, 74, 0
2, 187296, Note_on_c, 0, 75, 50
2, 187320, Note_on_c, 0, 75, 0
2, 187344, Note_on_c, 0, 74, 55
2, 187368, Note_on_c, 0, 74, 0
2, 187392, Note_on_c, 0, 75, 50
2, 187416, Note_on_c, 0, 75, 0
2, 187440, Note_on_c, 0, 77, 50
2, 187464, Note_on_c, 0, 77, 0
2, 187488, Note_on_c, 0, 75, 55
2, 187512, Note_on_c, 0, 75, 0
2, 187536, Note_on_c, 0, 74, 50
2, 187560, Note_on_c, 0, 74, 0
2, 187584, Note_on_c, 0, 75, 50
2, 187608, Note_on_c, 0, 75, 0
2, 187632, Note_on_c, 0, 82, 60
2, 187667, Note_on_c, 0, 82, 0
2, 187704, Note_on_c, 0, 70, 50
2, 187716, Note_on_c, 0, 70, 0
2, 187728, Note_on_c, 0, 70, 50
2, 187752, Note_on_c, 0, 70, 0
2, 187776, Note_on_c, 0, 75, 55
2, 187800, Note_on_c, 0, 75, 0
2, 187824, Note_on_c, 0, 77, 50
2, 187848, Note_on_c, 0, 77, 0
2, 187872, Note_on_c, 0, 79, 50
2, 187896, Note_on_c, 0, 79, 0
2, 187920, Note_on_c, 0, 80, 50
2, 188495, Note_on_c, 0, 80, 0
2, 188496, Note_on_c, 0, 79, 55
2, 188520, Note_on_c, 0, 79, 0
2, 188544, Note_on_c, 0, 77, 50
2, 188568, Note_on_c, 0, 77, 0
2, 188592, Note_on_c, 0, 75, 50
2, 188616, Note_on_c, 0, 75, 0
2, 188640, Note_on_c, 0, 82, 55
2, 188664, Note_on_c, 0, 82, 0
2, 188688, Note_on_c, 0, 80, 50
2, 188712, Note_on_c, 0, 80, 0
2, 188736, Note_on_c, 0, 79, 50
2, 188760, Note_on_c, 0, 79, 0
2, 188784, Note_on_c, 0, 79, 55
2, 188808, Note_on_c, 0, 79, 0
2, 188832, Note_on_c, 0, 77, 50
2, 188856, Note_on_c, 0, 77, 0
2, 188880, Note_on_c, 0, 75, 50
2, 188904, Note_on_c, 0, 75, 0
2, 188928, Note_on_c, 0, 82, 55
2, 188952, Note_on_c, 0, 82, 0
2, 188976, Note_on_c, 0, 80, 50
2, 189000, Note_on_c, 0, 80, 0
2, 189024, Note_on_c, 0, 79, 50
2, 189048, Note_on_c, 0, 79, 0
2, 189072, Control_c, 0, 6, 64
2, 189072, Control_c, 0, 11, 50
2, 189072, Note_on_c, 0, 80, 120
2, 189089, Control_c, 0, 11, 51
2, 189105, Control_c, 0, 11, 52
2, 189122, Control_c, 0, 11, 53
2, 189138, Control_c, 0, 11, 54
2, 189155, Control_c, 0, 11, 55
2, 189171, Control_c, 0, 11, 56
2, 189188, Control_c, 0, 11, 57
2, 189204, Control_c, 0, 11, 58
2, 189220, Control_c, 0, 11, 59
2, 189237, Control_c, 0, 11, 60
2, 189253, Control_c, 0, 11, 61
2, 189270, Control_c, 0, 11, 62
2, 189286, Control_c, 0, 11, 63
2, 189303, Control_c, 0, 11, 64
2, 189319, Control_c, 0, 11, 65
2, 189336, Control_c, 0, 11, 66
2, 189352, Control_c, 0, 11, 67
2, 189368, Control_c, 0, 11, 68
2, 189385, Control_c, 0, 11, 69
2, 189401, Control_c, 0, 11, 70
2, 189418, Control_c, 0, 11, 71
2, 189434, Control_c, 0, 11, 72
2, 189451, Control_c, 0, 11, 73
2, 189467, Control_c, 0, 11, 74
2, 189484, Control_c, 0, 11, 75
2, 189500, Control_c, 0, 11, 76
2, 189516, Control_c, 0, 11, 77
2, 189533, Control_c, 0, 11, 78
2, 189549, Control_c, 0, 11, 79
2, 189566, Control_c, 0, 11, 80
2, 189582, Control_c, 0, 11, 81
2, 189599, Control_c, 0, 11, 82
2, 189615, Control_c, 0, 11, 83
2, 189632, Control_c, 0, 11, 84
2, 189647, Note_on_c, 0, 80, 0
2, 189648, Note_on_c, 0, 81, 120
2, 189648, Control_c, 0, 11, 85
2, 189664, Control_c, 0, 11, 86
2, 189681, Control_c, 0, 11, 87
2, 189697, Control_c, 0, 11, 88
2, 189714, Control_c, 0, 11, 89
2, 189730, Control_c, 0, 11, 90
2, 189747, Control_c, 0, 11, 91
2, 189763, Control_c, 0, 11, 92
2, 189780, Control_c, 0, 11, 93
2, 189796, Control_c, 0, 11, 94
2, 189812, Control_c, 0, 11, 95
2, 189829, Control_c, 0, 11, 96
2, 189845, Control_c, 0, 11, 97
2, 189862, Control_c, 0, 11, 98
2, 189878, Control_c, 0, 11, 99
2, 189895, Control_c, 0, 11, 100
2, 189911, Control_c, 0, 11, 101
2, 189928, Control_c, 0, 11, 102
2, 189935, Note_on_c, 0, 81, 0
2, 189936, Note_on_c, 0, 86, 120
2, 189944, Control_c, 0, 11, 103
2, 189960, Control_c, 0, 11, 104
2, 189977, Control_c, 0, 11, 105
2, 189993, Control_c, 0, 11, 106
2, 190010, Control_c, 0, 11, 107
2, 190026, Control_c, 0, 11, 108
2, 190043, Control_c, 0, 11, 109
2, 190059, Control_c, 0, 11, 110
2, 190076, Control_c, 0, 11, 111
2, 190092, Control_c, 0, 11, 112
2, 190108, Control_c, 0, 11, 113
2, 190125, Control_c, 0, 11, 114
2, 190141, Control_c, 0, 11, 115
2, 190158, Control_c, 0, 11, 116
2, 190174, Control_c, 0, 11, 117
2, 190191, Control_c, 0, 11, 118
2, 190207, Control_c, 0, 11, 119
2, 190223, Note_on_c, 0, 86, 0
2, 190223, Control_c, 0, 11, 120
2, 190224, Control_c, 0, 6, 14
2, 190224, Note_on_c, 0, 69, 120
2, 190224, Note_on_c, 0, 89, 120
2, 190254, Note_on_c, 0, 89, 0
2, 190254, Note_on_c, 0, 69, 0
2, 190512, Note_on_c, 0, 69, 120
2, 190512, Note_on_c, 0, 93, 120
2, 190542, Note_on_c, 0, 93, 0
2, 190542, Note_on_c, 0, 69, 0
2, 190800, Note_on_c, 0, 69, 125
2, 190800, Note_on_c, 0, 93, 125
2, 190835, Note_on_c, 0, 93, 0
2, 190835, Note_on_c, 0, 69, 0
2, 190872, Note_on_c, 0, 69, 115
2, 190884, Note_on_c, 0, 69, 0
2, 190896, Note_on_c, 0, 69, 115
2, 190920, Note_on_c, 0, 69, 0
2, 190944, Note_on_c, 0, 69, 125
2, 190944, Note_on_c, 0, 93, 125
2, 190979, Note_on_c, 0, 93, 0
2, 190979, Note_on_c, 0, 69, 0
2, 191016, Note_on_c, 0, 69, 115
2, 191028, Note_on_c, 0, 69, 0
2, 191040, Note_on_c, 0, 69, 115
2, 191064, Note_on_c, 0, 69, 0
2, 191088, Note_on_c, 0, 69, 125
2, 191088, Note_on_c, 0, 93, 125
2, 191123, Note_on_c, 0, 93, 0
2, 191123, Note_on_c, 0, 69, 0
2, 191160, Note_on_c, 0, 69, 115
2, 191172, Note_on_c, 0, 69, 0
2, 191184, Note_on_c, 0, 69, 115
2, 191208, Note_on_c, 0, 69, 0
2, 191232, Note_on_c, 0, 69, 125
2, 191232, Note_on_c, 0, 93, 125
2, 191267, Note_on_c, 0, 93, 0
2, 191267, Note_on_c, 0, 69, 0
2, 191304, Note_on_c, 0, 69, 115
2, 191316, Note_on_c, 0, 69, 0
2, 191328, Note_on_c, 0, 69, 115
2, 191352, Note_on_c, 0, 69, 0
2, 191376, Note_on_c, 0, 69, 125
2, 191376, Note_on_c, 0, 93, 125
2, 191411, Note_on_c, 0, 93, 0
2, 191411, Note_on_c, 0, 69, 0
2, 191448, Note_on_c, 0, 69, 115
2, 191460, Note_on_c, 0, 69, 0
2, 191472, Note_on_c, 0, 69, 115
2, 191496, Note_on_c, 0, 69, 0
2, 191520, Note_on_c, 0, 86, 120
2, 191544, Note_on_c, 0, 86, 0
2, 191568, Note_on_c, 0, 88, 115
2, 191592, Note_on_c, 0, 88, 0
2, 191616, Note_on_c, 0, 89, 115
2, 191640, Note_on_c, 0, 89, 0
2, 191664, Note_on_c, 0, 88, 120
2, 191688, Note_on_c, 0, 88, 0
2, 191712, Note_on_c, 0, 89, 115
2, 191736, Note_on_c, 0, 89, 0
2, 191760, Note_on_c, 0, 91, 115
2, 191784, Note_on_c, 0, 91, 0
2, 191808, Note_on_c, 0, 89, 120
2, 191832, Note_on_c, 0, 89, 0
2, 191856, Note_on_c, 0, 88, 115
2, 191880, Note_on_c, 0, 88, 0
2, 191904, Note_on_c, 0, 86, 115
2, 191928, Note_on_c, 0, 86, 0
2, 191952, Note_on_c, 0, 82, 120
2, 191976, Note_on_c, 0, 82, 0
2, 192000, Note_on_c, 0, 81, 115
2, 192024, Note_on_c, 0, 81, 0
2, 192048, Note_on_c, 0, 79, 115
2, 192072, Note_on_c, 0, 79, 0
2, 192096, Note_on_c, 0, 77, 120
2, 192120, Note_on_c, 0, 77, 0
2, 192144, Note_on_c, 0, 88, 115
2, 192168, Note_on_c, 0, 88, 0
2, 192192, Note_on_c, 0, 86, 115
2, 192216, Note_on_c, 0, 86, 0
2, 192240, Note_on_c, 0, 85, 120
2, 192264, Note_on_c, 0, 85, 0
2, 192288, Note_on_c, 0, 86, 115
2, 192312, Note_on_c, 0, 86, 0
2, 192336, Note_on_c, 0, 88, 115
2, 192360, Note_on_c, 0, 88, 0
2, 192384, Note_on_c, 0, 86, 120
2, 192408, Note_on_c, 0, 86, 0
2, 192432, Note_on_c, 0, 85, 115
2, 192456, Note_on_c, 0, 85, 0
2, 192480, Note_on_c, 0, 86, 115
2, 192504, Note_on_c, 0, 86, 0
2, 192528, Note_on_c, 0, 82, 120
2, 192552, Note_on_c, 0, 82, 0
2, 192576, Note_on_c, 0, 81, 115
2, 192600, Note_on_c, 0, 81, 0
2, 192624, Note_on_c, 0, 79, 115
2, 192648, Note_on_c, 0, 79, 0
2, 192672, Note_on_c, 0, 77, 120
2, 192696, Note_on_c, 0, 77, 0
2, 192720, Note_on_c, 0, 88, 115
2, 192744, Note_on_c, 0, 88, 0
2, 192768, Note_on_c, 0, 86, 115
2, 192792, Note_on_c, 0, 86, 0
2, 192816, Note_on_c, 0, 85, 120
2, 192840, Note_on_c, 0, 85, 0
2, 192864, Note_on_c, 0, 86, 115
2, 192888, Note_on_c, 0, 86, 0
2, 192912, Note_on_c, 0, 88, 115
2, 192936, Note_on_c, 0, 88, 0
2, 192960, Note_on_c, 0, 86, 120
2, 192984, Note_on_c, 0, 86, 0
2, 193008, Note_on_c, 0, 85, 115
2, 193032, Note_on_c, 0, 85, 0
2, 193056, Note_on_c, 0, 86, 115
2, 193080, Note_on_c, 0, 86, 0
2, 193104, Note_on_c, 0, 84, 120
2, 193128, Note_on_c, 0, 84, 0
2, 193152, Note_on_c, 0, 86, 115
2, 193176, Note_on_c, 0, 86, 0
2, 193200, Note_on_c, 0, 87, 115
2, 193224, Note_on_c, 0, 87, 0
2, 193248, Note_on_c, 0, 79, 120
2, 193272, Note_on_c, 0, 79, 0
2, 193296, Note_on_c, 0, 81, 115
2, 193320, Note_on_c, 0, 81, 0
2, 193344, Note_on_c, 0, 82, 115
2, 193368, Note_on_c, 0, 82, 0
2, 193392, Note_on_c, 0, 81, 120
2, 193416, Note_on_c, 0, 81, 0
2, 193440, Note_on_c, 0, 82, 115
2, 193464, Note_on_c, 0, 82, 0
2, 193488, Note_on_c, 0, 84, 115
2, 193512, Note_on_c, 0, 84, 0
2, 193536, Note_on_c, 0, 82, 120
2, 193560, Note_on_c, 0, 82, 0
2, 193584, Note_on_c, 0, 81, 115
2, 193608, Note_on_c, 0, 81, 0
2, 193632, Note_on_c, 0, 79, 115
2, 193656, Note_on_c, 0, 79, 0
2, 193680, Note_on_c, 0, 75, 105
2, 193704, Note_on_c, 0, 75, 0
2, 193731, Note_on_c, 0, 74, 100
2, 193755, Note_on_c, 0, 74, 0
2, 193779, Note_on_c, 0, 72, 100
2, 193803, Note_on_c, 0, 72, 0
2, 193827, Note_on_c, 0, 70, 105
2, 193851, Note_on_c, 0, 70, 0
2, 193875, Note_on_c, 0, 69, 100
2, 193899, Note_on_c, 0, 69, 0
2, 193923, Note_on_c, 0, 67, 100
2, 193947, Note_on_c, 0, 67, 0
2, 193971, Note_on_c, 0, 77, 105
2, 193995, Note_on_c, 0, 77, 0
2, 194019, Note_on_c, 0, 75, 100
2, 194043, Note_on_c, 0, 75, 0
2, 194067, Note_on_c, 0, 74, 100
2, 194091, Note_on_c, 0, 74, 0
2, 194115, Note_on_c, 0, 72, 105
2, 194139, Note_on_c, 0, 72, 0
2, 194163, Note_on_c, 0, 70, 100
2, 194187, Note_on_c, 0, 70, 0
2, 194211, Note_on_c, 0, 69, 100
2, 194235, Note_on_c, 0, 69, 0
2, 194259, Note_on_c, 0, 79, 105
2, 194283, Note_on_c, 0, 79, 0
2, 194307, Note_on_c, 0, 77, 100
2, 194331, Note_on_c, 0, 77, 0
2, 194355, Note_on_c, 0, 75, 100
2, 194379, Note_on_c, 0, 75, 0
2, 194403, Note_on_c, 0, 74, 105
2, 194427, Note_on_c, 0, 74, 0
2, 194451, Note_on_c, 0, 72, 100
2, 194475, Note_on_c, 0, 72, 0
2, 194499, Note_on_c, 0, 70, 100
2, 194523, Note_on_c, 0, 70, 0
2, 194547, Note_on_c, 0, 69, 105
2, 194571, Note_on_c, 0, 69, 0
2, 194595, Note_on_c, 0, 67, 100
2, 194619, Note_on_c, 0, 67, 0
2, 194643, Note_on_c, 0, 65, 100
2, 194667, Note_on_c, 0, 65, 0
2, 194691, Note_on_c, 0, 63, 105
2, 194715, Note_on_c, 0, 63, 0
2, 194739, Note_on_c, 0, 62, 100
2, 194763, Note_on_c, 0, 62, 0
2, 194787, Note_on_c, 0, 60, 100
2, 194811, Note_on_c, 0, 60, 0
2, 194835, Note_on_c, 0, 58, 105
2, 194859, Note_on_c, 0, 58, 0
2, 195120, Note_on_c, 0, 79, 65
2, 195155, Note_on_c, 0, 79, 0
2, 195192, Note_on_c, 0, 67, 64
2, 195204, Note_on_c, 0, 67, 0
2, 195216, Note_on_c, 0, 67, 66
2, 195240, Note_on_c, 0, 67, 0
2, 195264, Note_on_c, 0, 79, 75
2, 195299, Note_on_c, 0, 79, 0
2, 195336, Note_on_c, 0, 67, 74
2, 195348, Note_on_c, 0, 67, 0
2, 195360, Note_on_c, 0, 67, 75
2, 195384, Note_on_c, 0, 67, 0
2, 195408, Note_on_c, 0, 81, 84
2, 195443, Note_on_c, 0, 81, 0
2, 195480, Note_on_c, 0, 69, 83
2, 195492, Note_on_c, 0, 69, 0
2, 195504, Note_on_c, 0, 69, 85
2, 195528, Note_on_c, 0, 69, 0
2, 195552, Note_on_c, 0, 82, 90
2, 195587, Note_on_c, 0, 82, 0
2, 195624, Note_on_c, 0, 70, 85
2, 195636, Note_on_c, 0, 70, 0
2, 195648, Note_on_c, 0, 70, 83
2, 195672, Note_on_c, 0, 70, 0
2, 195696, Note_on_c, 0, 82, 79
2, 195731, Note_on_c, 0, 82, 0
2, 195768, Note_on_c, 0, 70, 74
2, 195780, Note_on_c, 0, 70, 0
2, 195792, Note_on_c, 0, 70, 72
2, 195816, Note_on_c, 0, 70, 0
2, 195840, Note_on_c, 0, 81, 68
2, 195875, Note_on_c, 0, 81, 0
2, 195912, Note_on_c, 0, 69, 62
2, 195924, Note_on_c, 0, 69, 0
2, 195936, Note_on_c, 0, 69, 60
2, 195960, Note_on_c, 0, 69, 0
2, 196560, Note_on_c, 0, 83, 65
2, 196595, Note_on_c, 0, 83, 0
2, 196632, Note_on_c, 0, 71, 63
2, 196644, Note_on_c, 0, 71, 0
2, 196656, Note_on_c, 0, 71, 67
2, 196680, Note_on_c, 0, 71, 0
2, 196704, Note_on_c, 0, 88, 71
2, 196739, Note_on_c, 0, 88, 0
2, 196776, Note_on_c, 0, 76, 76
2, 196788, Note_on_c, 0, 76, 0
2, 196800, Note_on_c, 0, 76, 78
2, 196824, Note_on_c, 0, 76, 0
2, 196848, Note_on_c, 0, 88, 89
2, 196883, Note_on_c, 0, 88, 0
2, 196920, Note_on_c, 0, 76, 88
2, 196932, Note_on_c, 0, 76, 0
2, 196944, Note_on_c, 0, 76, 90
2, 196968, Note_on_c, 0, 76, 0
2, 196992, Note_on_c, 0, 86, 90
2, 197027, Note_on_c, 0, 86, 0
2, 197064, Note_on_c, 0, 74, 85
2, 197076, Note_on_c, 0, 74, 0
2, 197088, Note_on_c, 0, 74, 83
2, 197112, Note_on_c, 0, 74, 0
2, 197136, Note_on_c, 0, 86, 79
2, 197171, Note_on_c, 0, 86, 0
2, 197208, Note_on_c, 0, 74, 74
2, 197220, Note_on_c, 0, 74, 0
2, 197232, Note_on_c, 0, 74, 72
2, 197256, Note_on_c, 0, 74, 0
2, 197280, Note_on_c, 0, 85, 68
2, 197315, Note_on_c, 0, 85, 0
2, 197352, Note_on_c, 0, 73, 62
2, 197364, Note_on_c, 0, 73, 0
2, 197376, Note_on_c, 0, 73, 60
2, 197400, Note_on_c, 0, 73, 0
2, 197856, Note_on_c, 0, 76, 65
2, 197891, Note_on_c, 0, 76, 0
2, 197928, Note_on_c, 0, 64, 69
2, 197940, Note_on_c, 0, 64, 0
2, 197952, Note_on_c, 0, 64, 72
2, 197976, Note_on_c, 0, 64, 0
2, 198000, Note_on_c, 0, 76, 78
2, 198035, Note_on_c, 0, 76, 0
2, 198072, Note_on_c, 0, 64, 87
2, 198084, Note_on_c, 0, 64, 0
2, 198096, Note_on_c, 0, 64, 90
2, 198120, Note_on_c, 0, 64, 0
2, 198144, Note_on_c, 0, 74, 90
2, 198179, Note_on_c, 0, 74, 0
2, 198216, Note_on_c, 0, 62, 85
2, 198228, Note_on_c, 0, 62, 0
2, 198240, Note_on_c, 0, 62, 83
2, 198264, Note_on_c, 0, 62, 0
2, 198288, Note_on_c, 0, 74, 79
2, 198323, Note_on_c, 0, 74, 0
2, 198360, Note_on_c, 0, 62, 74
2, 198372, Note_on_c, 0, 62, 0
2, 198384, Note_on_c, 0, 62, 72
2, 198408, Note_on_c, 0, 62, 0
2, 198432, Note_on_c, 0, 73, 68
2, 198467, Note_on_c, 0, 73, 0
2, 198504, Note_on_c, 0, 61, 62
2, 198516, Note_on_c, 0, 61, 0
2, 198528, Note_on_c, 0, 61, 60
2, 198552, Note_on_c, 0, 61, 0
2, 198576, Program_c, 0, 45
2, 198576, Control_c, 0, 7, 105
2, 198672, Note_on_c, 0, 69, 60
2, 198696, Note_on_c, 0, 69, 0
2, 198816, Note_on_c, 0, 81, 67
2, 198840, Note_on_c, 0, 81, 0
2, 198960, Note_on_c, 0, 78, 74
2, 198984, Note_on_c, 0, 78, 0
2, 199104, Note_on_c, 0, 79, 81
2, 199128, Note_on_c, 0, 79, 0
2, 199248, Note_on_c, 0, 76, 89
2, 199272, Note_on_c, 0, 76, 0
2, 199392, Note_on_c, 0, 78, 96
2, 199416, Note_on_c, 0, 78, 0
2, 199536, Note_on_c, 0, 81, 103
2, 199560, Note_on_c, 0, 81, 0
2, 199680, Note_on_c, 0, 85, 111
2, 199704, Note_on_c, 0, 85, 0
2, 199728, Program_c, 0, 48
2, 199728, Control_c, 0, 7, 123
2, 199728, Note_on_c, 0, 86, 120
2, 199763, Note_on_c, 0, 86, 0
2, 199804, Note_on_c, 0, 74, 113
2, 199816, Note_on_c, 0, 74, 0
2, 199828, Note_on_c, 0, 74, 113
2, 199852, Note_on_c, 0, 74, 0
2, 199876, Note_on_c, 0, 86, 120
2, 199911, Note_on_c, 0, 86, 0
2, 199948, Note_on_c, 0, 74, 113
2, 199960, Note_on_c, 0, 74, 0
2, 199972, Note_on_c, 0, 74, 113
2, 199996, Note_on_c, 0, 74, 0
2, 200020, Note_on_c, 0, 86, 120
2, 200055, Note_on_c, 0, 86, 0
2, 200092, Note_on_c, 0, 74, 113
2, 200104, Note_on_c, 0, 74, 0
2, 200116, Note_on_c, 0, 74, 113
2, 200140, Note_on_c, 0, 74, 0
2, 200164, Note_on_c, 0, 86, 120
2, 200199, Note_on_c, 0, 86, 0
2, 200236, Note_on_c, 0, 74, 113
2, 200248, Note_on_c, 0, 74, 0
2, 200260, Note_on_c, 0, 74, 113
2, 200284, Note_on_c, 0, 74, 0
2, 200308, Note_on_c, 0, 86, 120
2, 200343, Note_on_c, 0, 86, 0
2, 200380, Note_on_c, 0, 74, 113
2, 200392, Note_on_c, 0, 74, 0
2, 200404, Note_on_c, 0, 74, 113
2, 200428, Note_on_c, 0, 74, 0
2, 200452, Note_on_c, 0, 86, 120
2, 200487, Note_on_c, 0, 86, 0
2, 200524, Note_on_c, 0, 74, 113
2, 200536, Note_on_c, 0, 74, 0
2, 200548, Note_on_c, 0, 74, 113
2, 200572, Note_on_c, 0, 74, 0
2, 200596, Note_on_c, 0, 86, 120
2, 200631, Note_on_c, 0, 86, 0
2, 200668, Note_on_c, 0, 74, 113
2, 200680, Note_on_c, 0, 74, 0
2, 200692, Note_on_c, 0, 74, 113
2, 200716, Note_on_c, 0, 74, 0
2, 200740, Note_on_c, 0, 86, 120
2, 200775, Note_on_c, 0, 86, 0
2, 200812, Note_on_c, 0, 74, 113
2, 200824, Note_on_c, 0, 74, 0
2, 200836, Note_on_c, 0, 74, 113
2, 200860, Note_on_c, 0, 74, 0
2, 200884, Note_on_c, 0, 86, 120
2, 200919, Note_on_c, 0, 86, 0
2, 200956, Note_on_c, 0, 74, 113
2, 200968, Note_on_c, 0, 74, 0
2, 200980, Note_on_c, 0, 74, 113
2, 201004, Note_on_c, 0, 74, 0
2, 201028, Note_on_c, 0, 86, 120
2, 201063, Note_on_c, 0, 86, 0
2, 201100, Note_on_c, 0, 74, 113
2, 201112, Note_on_c, 0, 74, 0
2, 201124, Note_on_c, 0, 74, 113
2, 201148, Note_on_c, 0, 74, 0
2, 201172, Note_on_c, 0, 86, 120
2, 201207, Note_on_c, 0, 86, 0
2, 201244, Note_on_c, 0, 74, 113
2, 201256, Note_on_c, 0, 74, 0
2, 201268, Note_on_c, 0, 74, 113
2, 201292, Note_on_c, 0, 74, 0
2, 201316, Note_on_c, 0, 86, 120
2, 201351, Note_on_c, 0, 86, 0
2, 201388, Note_on_c, 0, 74, 113
2, 201400, Note_on_c, 0, 74, 0
2, 201412, Note_on_c, 0, 74, 113
2, 201436, Note_on_c, 0, 74, 0
2, 201460, Note_on_c, 0, 86, 120
2, 201495, Note_on_c, 0, 86, 0
2, 201532, Note_on_c, 0, 74, 113
2, 201544, Note_on_c, 0, 74, 0
2, 201556, Note_on_c, 0, 74, 113
2, 201580, Note_on_c, 0, 74, 0
2, 201604, Note_on_c, 0, 86, 120
2, 201639, Note_on_c, 0, 86, 0
2, 201676, Note_on_c, 0, 74, 113
2, 201688, Note_on_c, 0, 74, 0
2, 201700, Note_on_c, 0, 74, 113
2, 201724, Note_on_c, 0, 74, 0
2, 201748, Note_on_c, 0, 86, 120
2, 201783, Note_on_c, 0, 86, 0
2, 201820, Note_on_c, 0, 74, 113
2, 201832, Note_on_c, 0, 74, 0
2, 201844, Note_on_c, 0, 74, 113
2, 201868, Note_on_c, 0, 74, 0
2, 201892, Note_on_c, 0, 86, 120
2, 201927, Note_on_c, 0, 86, 0
2, 201964, Note_on_c, 0, 74, 113
2, 201976, Note_on_c, 0, 74, 0
2, 201988, Note_on_c, 0, 74, 113
2, 202012, Note_on_c, 0, 74, 0
2, 202032, Note_on_c, 0, 74, 120
2, 202032, Note_on_c, 0, 86, 120
2, 202056, Note_on_c, 0, 86, 0
2, 202056, Note_on_c, 0, 74, 0
2, 202320, Note_on_c, 0, 82, 118
2, 202355, Note_on_c, 0, 82, 0
2, 202392, Note_on_c, 0, 70, 113
2, 202404, Note_on_c, 0, 70, 0
2, 202416, Note_on_c, 0, 70, 113
2, 202440, Note_on_c, 0, 70, 0
2, 202464, Note_on_c, 0, 82, 118
2, 202488, Note_on_c, 0, 82, 0
2, 202512, Note_on_c, 0, 79, 113
2, 202536, Note_on_c, 0, 79, 0
2, 202560, Note_on_c, 0, 77, 113
2, 202584, Note_on_c, 0, 77, 0
2, 202608, Note_on_c, 0, 76, 118
2, 202632, Note_on_c, 0, 76, 0
2, 202898, Note_on_c, 0, 81, 118
2, 202933, Note_on_c, 0, 81, 0
2, 202970, Note_on_c, 0, 69, 113
2, 202982, Note_on_c, 0, 69, 0
2, 202994, Note_on_c, 0, 69, 113
2, 203018, Note_on_c, 0, 69, 0
2, 203042, Note_on_c, 0, 81, 118
2, 203066, Note_on_c, 0, 81, 0
2, 203090, Note_on_c, 0, 77, 113
2, 203114, Note_on_c, 0, 77, 0
2, 203138, Note_on_c, 0, 76, 113
2, 203162, Note_on_c, 0, 76, 0
2, 203184, Control_c, 0, 6, 64
2, 203184, Note_on_c, 0, 74, 60
2, 203376, Note_on_c, 0, 74, 0
2, 203376, Note_on_c, 0, 76, 60
2, 203424, Note_on_c, 0, 76, 0
2, 203424, Note_on_c, 0, 78, 60
2, 203472, Note_on_c, 0, 78, 0
2, 203472, Control_c, 0, 11, 60
2, 203472, Note_on_c, 0, 79, 110
2, 203487, Control_c, 0, 11, 61
2, 203501, Control_c, 0, 11, 62
2, 203516, Control_c, 0, 11, 63
2, 203530, Control_c, 0, 11, 64
2, 203544, Control_c, 0, 11, 65
2, 203559, Control_c, 0, 11, 66
2, 203573, Control_c, 0, 11, 67
2, 203587, Control_c, 0, 11, 68
2, 203602, Control_c, 0, 11, 69
2, 203614, Note_on_c, 0, 79, 0
2, 203616, Note_on_c, 0, 79, 110
2, 203616, Control_c, 0, 11, 70
2, 203630, Control_c, 0, 11, 71
2, 203645, Control_c, 0, 11, 72
2, 203659, Control_c, 0, 11, 73
2, 203673, Control_c, 0, 11, 74
2, 203688, Control_c, 0, 11, 75
2, 203702, Control_c, 0, 11, 76
2, 203716, Control_c, 0, 11, 77
2, 203731, Control_c, 0, 11, 78
2, 203745, Control_c, 0, 11, 79
2, 203758, Note_on_c, 0, 79, 0
2, 203759, Control_c, 0, 11, 80
2, 203760, Control_c, 0, 11, 80
2, 203760, Note_on_c, 0, 79, 110
2, 203775, Control_c, 0, 11, 79
2, 203789, Control_c, 0, 11, 78
2, 203804, Control_c, 0, 11, 77
2, 203818, Control_c, 0, 11, 76
2, 203832, Control_c, 0, 11, 75
2, 203847, Control_c, 0, 11, 74
2, 203861, Control_c, 0, 11, 73
2, 203875, Control_c, 0, 11, 72
2, 203890, Control_c, 0, 11, 71
2, 203902, Note_on_c, 0, 79, 0
2, 203904, Note_on_c, 0, 79, 110
2, 203904, Control_c, 0, 11, 70
2, 203918, Control_c, 0, 11, 69
2, 203933, Control_c, 0, 11, 68
2, 203947, Control_c, 0, 11, 67
2, 203952, Note_on_c, 0, 79, 0
2, 203952, Note_on_c, 0, 77, 110
2, 203961, Control_c, 0, 11, 66
2, 203976, Control_c, 0, 11, 65
2, 203990, Control_c, 0, 11, 64
2, 204000, Note_on_c, 0, 77, 0
2, 204000, Note_on_c, 0, 76, 110
2, 204004, Control_c, 0, 11, 63
2, 204019, Control_c, 0, 11, 62
2, 204033, Control_c, 0, 11, 61
2, 204047, Control_c, 0, 11, 60
2, 204048, Note_on_c, 0, 76, 0
2, 204624, Control_c, 0, 6, 14
2, 204912, Control_c, 0, 11, 120
2, 204912, Note_on_c, 0, 77, 105
2, 204936, Note_on_c, 0, 77, 0
2, 204960, Note_on_c, 0, 74, 100
2, 204984, Note_on_c, 0, 74, 0
2, 205008, Note_on_c, 0, 79, 100
2, 205032, Note_on_c, 0, 79, 0
2, 205056, Note_on_c, 0, 76, 105
2, 205080, Note_on_c, 0, 76, 0
2, 205104, Note_on_c, 0, 73, 100
2, 205128, Note_on_c, 0, 73, 0
2, 205152, Note_on_c, 0, 77, 100
2, 205176, Note_on_c, 0, 77, 0
2, 205200, Note_on_c, 0, 74, 105
2, 205224, Note_on_c, 0, 74, 0
2, 205488, Note_on_c, 0, 77, 105
2, 205512, Note_on_c, 0, 77, 0
2, 205536, Note_on_c, 0, 74, 100
2, 205560, Note_on_c, 0, 74, 0
2, 205584, Note_on_c, 0, 79, 100
2, 205608, Note_on_c, 0, 79, 0
2, 205632, Note_on_c, 0, 76, 105
2, 205656, Note_on_c, 0, 76, 0
2, 205680, Note_on_c, 0, 73, 100
2, 205704, Note_on_c, 0, 73, 0
2, 205728, Note_on_c, 0, 77, 100
2, 205752, Note_on_c, 0, 77, 0
2, 205776, Note_on_c, 0, 86, 110
2, 205811, Note_on_c, 0, 86, 0
2, 205848, Note_on_c, 0, 74, 100
2, 205860, Note_on_c, 0, 74, 0
2, 205872, Note_on_c, 0, 74, 100
2, 205896, Note_on_c, 0, 74, 0
2, 205920, Note_on_c, 0, 69, 105
2, 205944, Note_on_c, 0, 69, 0
2, 206064, Note_on_c, 0, 86, 110
2, 206099, Note_on_c, 0, 86, 0
2, 206136, Note_on_c, 0, 74, 100
2, 206148, Note_on_c, 0, 74, 0
2, 206160, Note_on_c, 0, 74, 100
2, 206184, Note_on_c, 0, 74, 0
2, 206208, Note_on_c, 0, 69, 105
2, 206232, Note_on_c, 0, 69, 0
2, 206346, Control_c, 0, 6, 64
2, 206352, Note_on_c, 0, 79, 64
2, 206400, Note_on_c, 0, 79, 0
2, 206400, Note_on_c, 0, 76, 61
2, 206448, Note_on_c, 0, 76, 0
2, 206448, Note_on_c, 0, 73, 58
2, 206496, Note_on_c, 0, 73, 0
2, 206496, Note_on_c, 0, 67, 52
2, 206544, Note_on_c, 0, 67, 0
2, 206544, Note_on_c, 0, 64, 49
2, 206592, Note_on_c, 0, 64, 0
2, 206592, Note_on_c, 0, 61, 46
2, 206640, Note_on_c, 0, 61, 0
2, 206640, Note_on_c, 0, 55, 40
2, 206688, Note_on_c, 0, 55, 0
2, 206688, Note_on_c, 0, 61, 46
2, 206736, Note_on_c, 0, 61, 0
2, 206736, Note_on_c, 0, 64, 49
2, 206784, Note_on_c, 0, 64, 0
2, 206784, Note_on_c, 0, 67, 52
2, 206832, Note_on_c, 0, 67, 0
2, 206832, Note_on_c, 0, 73, 58
2, 206880, Note_on_c, 0, 73, 0
2, 206880, Note_on_c, 0, 76, 61
2, 206928, Note_on_c, 0, 76, 0
2, 206928, Control_c, 0, 6, 14
2, 206928, Note_on_c, 0, 74, 60
2, 206963, Note_on_c, 0, 74, 0
2, 207000, Note_on_c, 0, 62, 50
2, 207012, Note_on_c, 0, 62, 0
2, 207024, Note_on_c, 0, 62, 50
2, 207048, Note_on_c, 0, 62, 0
2, 207072, Note_on_c, 0, 62, 55
2, 207096, Note_on_c, 0, 62, 0
2, 207216, Note_on_c, 0, 74, 60
2, 207251, Note_on_c, 0, 74, 0
2, 207288, Note_on_c, 0, 62, 50
2, 207300, Note_on_c, 0, 62, 0
2, 207312, Note_on_c, 0, 62, 50
2, 207336, Note_on_c, 0, 62, 0
2, 207360, Note_on_c, 0, 62, 55
2, 207384, Note_on_c, 0, 62, 0
2, 208080, Note_on_c, 0, 74, 55
2, 208115, Note_on_c, 0, 74, 0
2, 208152, Note_on_c, 0, 62, 54
2, 208164, Note_on_c, 0, 62, 0
2, 208176, Note_on_c, 0, 62, 56
2, 208200, Note_on_c, 0, 62, 0
2, 208224, Note_on_c, 0, 62, 59
2, 208248, Note_on_c, 0, 62, 0
2, 208368, Note_on_c, 0, 74, 73
2, 208403, Note_on_c, 0, 74, 0
2, 208440, Note_on_c, 0, 62, 72
2, 208452, Note_on_c, 0, 62, 0
2, 208464, Note_on_c, 0, 62, 74
2, 208488, Note_on_c, 0, 62, 0
2, 208512, Note_on_c, 0, 62, 77
2, 208512, Note_on_c, 0, 65, 77
2, 208536, Note_on_c, 0, 65, 0
2, 208536, Note_on_c, 0, 62, 0
2, 208656, Note_on_c, 0, 74, 86
2, 208691, Note_on_c, 0, 74, 0
2, 208728, Note_on_c, 0, 62, 90
2, 208740, Note_on_c, 0, 62, 0
2, 208752, Note_on_c, 0, 62, 92
2, 208776, Note_on_c, 0, 62, 0
2, 208800, Note_on_c, 0, 62, 95
2, 208800, Note_on_c, 0, 70, 95
2, 208824, Note_on_c, 0, 70, 0
2, 208824, Note_on_c, 0, 62, 0
2, 208944, Note_on_c, 0, 74, 104
2, 208979, Note_on_c, 0, 74, 0
2, 209016, Note_on_c, 0, 62, 108
2, 209028, Note_on_c, 0, 62, 0
2, 209040, Note_on_c, 0, 62, 110
2, 209064, Note_on_c, 0, 62, 0
2, 209088, Note_on_c, 0, 73, 113
2, 209088, Note_on_c, 0, 76, 113
2, 209112, Note_on_c, 0, 76, 0
2, 209112, Note_on_c, 0, 73, 0
2, 209280, Note_on_c, 0, 81, 60
2, 209315, Note_on_c, 0, 81, 0
2, 209352, Note_on_c, 0, 69, 50
2, 209364, Note_on_c, 0, 69, 0
2, 209376, Note_on_c, 0, 69, 50
2, 209400, Note_on_c, 0, 69, 0
2, 209424, Note_on_c, 0, 74, 55
2, 209448, Note_on_c, 0, 74, 0
2, 209472, Note_on_c, 0, 76, 50
2, 209496, Note_on_c, 0, 76, 0
2, 209520, Note_on_c, 0, 77, 50
2, 209544, Note_on_c, 0, 77, 0
2, 209568, Note_on_c, 0, 81, 55
2, 209592, Note_on_c, 0, 81, 0
2, 209616, Note_on_c, 0, 82, 50
2, 209640, Note_on_c, 0, 82, 0
2, 209664, Note_on_c, 0, 84, 50
2, 209688, Note_on_c, 0, 84, 0
2, 209712, Note_on_c, 0, 86, 55
2, 209736, Note_on_c, 0, 86, 0
2, 209760, Note_on_c, 0, 84, 50
2, 209784, Note_on_c, 0, 84, 0
2, 209808, Note_on_c, 0, 82, 50
2, 209832, Note_on_c, 0, 82, 0
2, 209856, Note_on_c, 0, 81, 60
2, 209891, Note_on_c, 0, 81, 0
2, 209928, Note_on_c, 0, 69, 50
2, 209940, Note_on_c, 0, 69, 0
2, 209952, Note_on_c, 0, 69, 50
2, 209976, Note_on_c, 0, 69, 0
2, 210000, Note_on_c, 0, 74, 55
2, 210024, Note_on_c, 0, 74, 0
2, 210048, Note_on_c, 0, 76, 50
2, 210072, Note_on_c, 0, 76, 0
2, 210096, Note_on_c, 0, 77, 50
2, 210120, Note_on_c, 0, 77, 0
2, 210144, Note_on_c, 0, 81, 55
2, 210168, Note_on_c, 0, 81, 0
2, 210192, Note_on_c, 0, 82, 50
2, 210216, Note_on_c, 0, 82, 0
2, 210240, Note_on_c, 0, 84, 50
2, 210264, Note_on_c, 0, 84, 0
2, 210288, Note_on_c, 0, 86, 55
2, 210312, Note_on_c, 0, 86, 0
2, 210336, Note_on_c, 0, 84, 50
2, 210360, Note_on_c, 0, 84, 0
2, 210384, Note_on_c, 0, 82, 50
2, 210408, Note_on_c, 0, 82, 0
2, 210432, Note_on_c, 0, 81, 60
2, 210467, Note_on_c, 0, 81, 0
2, 210504, Note_on_c, 0, 69, 54
2, 210516, Note_on_c, 0, 69, 0
2, 210528, Note_on_c, 0, 69, 55
2, 210552, Note_on_c, 0, 69, 0
2, 210576, Note_on_c, 0, 74, 62
2, 210600, Note_on_c, 0, 74, 0
2, 210624, Note_on_c, 0, 76, 61
2, 210648, Note_on_c, 0, 76, 0
2, 210672, Note_on_c, 0, 77, 64
2, 210696, Note_on_c, 0, 77, 0
2, 210720, Note_on_c, 0, 81, 76
2, 210755, Note_on_c, 0, 81, 0
2, 210792, Note_on_c, 0, 69, 71
2, 210804, Note_on_c, 0, 69, 0
2, 210816, Note_on_c, 0, 69, 72
2, 210840, Note_on_c, 0, 69, 0
2, 210864, Note_on_c, 0, 74, 75
2, 210888, Note_on_c, 0, 74, 0
2, 210912, Note_on_c, 0, 76, 78
2, 210936, Note_on_c, 0, 76, 0
2, 210960, Note_on_c, 0, 77, 80
2, 210984, Note_on_c, 0, 77, 0
2, 211008, Note_on_c, 0, 81, 93
2, 211043, Note_on_c, 0, 81, 0
2, 211080, Note_on_c, 0, 69, 87
2, 211092, Note_on_c, 0, 69, 0
2, 211104, Note_on_c, 0, 69, 89
2, 211128, Note_on_c, 0, 69, 0
2, 211152, Note_on_c, 0, 74, 92
2, 211176, Note_on_c, 0, 74, 0
2, 211200, Note_on_c, 0, 76, 95
2, 211224, Note_on_c, 0, 76, 0
2, 211248, Note_on_c, 0, 77, 97
2, 211272, Note_on_c, 0, 77, 0
2, 211296, Note_on_c, 0, 81, 110
2, 211331, Note_on_c, 0, 81, 0
2, 211368, Note_on_c, 0, 69, 104
2, 211380, Note_on_c, 0, 69, 0
2, 211392, Note_on_c, 0, 69, 106
2, 211416, Note_on_c, 0, 69, 0
2, 211440, Note_on_c, 0, 74, 109
2, 211464, Note_on_c, 0, 74, 0
2, 211488, Note_on_c, 0, 76, 111
2, 211512, Note_on_c, 0, 76, 0
2, 211536, Note_on_c, 0, 77, 114
2, 211560, Note_on_c, 0, 77, 0
2, 211584, Note_on_c, 0, 81, 125
2, 211608, Note_on_c, 0, 81, 0
2, 211632, Note_on_c, 0, 69, 115
2, 211656, Note_on_c, 0, 69, 0
2, 211680, Note_on_c, 0, 74, 125
2, 211704, Note_on_c, 0, 74, 0
2, 211728, Note_on_c, 0, 62, 115
2, 211752, Note_on_c, 0, 62, 0
2, 211776, Note_on_c, 0, 69, 125
2, 211800, Note_on_c, 0, 69, 0
2, 211824, Note_on_c, 0, 57, 115
2, 211848, Note_on_c, 0, 57, 0
2, 211872, Note_on_c, 0, 81, 125
2, 211896, Note_on_c, 0, 81, 0
2, 211920, Note_on_c, 0, 69, 120
2, 211944, Note_on_c, 0, 69, 0
2, 211968, Control_c, 0, 11, 95
2, 211968, Note_on_c, 0, 74, 120
2, 211968, Note_on_c, 0, 86, 120
2, 211969, Control_c, 0, 11, 91
2, 211970, Control_c, 0, 11, 88
2, 211971, Control_c, 0, 11, 85
2, 211972, Control_c, 0, 11, 83
2, 211973, Control_c, 0, 11, 81
2, 211974, Control_c, 0, 11, 79
2, 211975, Control_c, 0, 11, 77
2, 211976, Control_c, 0, 11, 76
2, 211977, Control_c, 0, 11, 75
2, 211978, Control_c, 0, 11, 74
2, 211979, Control_c, 0, 11, 73
2, 211980, Control_c, 0, 11, 72
2, 211981, Control_c, 0, 11, 71
2, 211982, Control_c, 0, 11, 70
2, 211984, Control_c, 0, 11, 69
2, 211985, Control_c, 0, 11, 68
2, 211988, Control_c, 0, 11, 67
2, 211991, Control_c, 0, 11, 66
2, 211997, Control_c, 0, 11, 65
2, 213316, Note_on_c, 0, 86, 0
2, 213316, Note_on_c, 0, 74, 0
2, 213507, Control_c, 0, 11, 127
2, 213507, Note_on_c, 0, 81, 127
2, 213531, Note_on_c, 0, 81, 0
2, 213555, Note_on_c, 0, 69, 115
2, 213579, Note_on_c, 0, 69, 0
2, 213603, Note_on_c, 0, 74, 125
2, 213627, Note_on_c, 0, 74, 0
2, 213651, Note_on_c, 0, 62, 115
2, 213675, Note_on_c, 0, 62, 0
2, 213699, Note_on_c, 0, 69, 125
2, 213723, Note_on_c, 0, 69, 0
2, 213747, Note_on_c, 0, 57, 115
2, 213771, Note_on_c, 0, 57, 0
2, 213795, Note_on_c, 0, 81, 125
2, 213819, Note_on_c, 0, 81, 0
2, 213843, Note_on_c, 0, 69, 115
2, 213867, Note_on_c, 0, 69, 0
2, 213891, Note_on_c, 0, 62, 125
2, 213915, Note_on_c, 0, 62, 0
2, 214080, End_track
3, 0, Start_track
3, 0, Title_t, "Violino II"
3, 0, MIDI_port, 0
3, 183, Control_c, 1, 7, 123
3, 186, Control_c, 1, 91, 80
3, 188, Control_c, 1, 93, 20
3, 190, Control_c, 1, 10, 45
3, 192, Program_c, 1, 48
3, 192, Control_c, 1, 11, 120
3, 192, Control_c, 1, 99, 1
3, 192, Control_c, 1, 98, 99
3, 192, Control_c, 1, 6, 14
3, 192, Note_on_c, 1, 86, 110
3, 227, Note_on_c, 1, 86, 0
3, 264, Note_on_c, 1, 74, 100
3, 276, Note_on_c, 1, 74, 0
3, 288, Note_on_c, 1, 74, 100
3, 312, Note_on_c, 1, 74, 0
3, 480, Note_on_c, 1, 81, 110
3, 515, Note_on_c, 1, 81, 0
3, 552, Note_on_c, 1, 69, 100
3, 564, Note_on_c, 1, 69, 0
3, 576, Note_on_c, 1, 69, 100
3, 600, Note_on_c, 1, 69, 0
3, 912, Note_on_c, 1, 74, 110
3, 947, Note_on_c, 1, 74, 0
3, 984, Note_on_c, 1, 62, 100
3, 996, Note_on_c, 1, 62, 0
3, 1008, Note_on_c, 1, 62, 100
3, 1032, Note_on_c, 1, 62, 0
3, 1344, Note_on_c, 1, 81, 60
3, 1379, Note_on_c, 1, 81, 0
3, 1416, Note_on_c, 1, 69, 50
3, 1428, Note_on_c, 1, 69, 0
3, 1440, Note_on_c, 1, 69, 50
3, 1464, Note_on_c, 1, 69, 0
3, 1488, Note_on_c, 1, 74, 55
3, 1512, Note_on_c, 1, 74, 0
3, 1536, Note_on_c, 1, 76, 50
3, 1560, Note_on_c, 1, 76, 0
3, 1584, Note_on_c, 1, 77, 50
3, 1608, Note_on_c, 1, 77, 0
3, 1632, Note_on_c, 1, 76, 55
3, 1656, Note_on_c, 1, 76, 0
3, 1680, Note_on_c, 1, 77, 50
3, 1704, Note_on_c, 1, 77, 0
3, 1728, Note_on_c, 1, 79, 50
3, 1752, Note_on_c, 1, 79, 0
3, 1776, Note_on_c, 1, 77, 55
3, 1800, Note_on_c, 1, 77, 0
3, 1824, Note_on_c, 1, 76, 50
3, 1848, Note_on_c, 1, 76, 0
3, 1872, Note_on_c, 1, 74, 50
3, 1896, Note_on_c, 1, 74, 0
3, 1920, Note_on_c, 1, 77, 55
3, 1944, Note_on_c, 1, 77, 0
3, 1968, Note_on_c, 1, 76, 50
3, 1992, Note_on_c, 1, 76, 0
3, 2016, Note_on_c, 1, 74, 50
3, 2040, Note_on_c, 1, 74, 0
3, 2064, Note_on_c, 1, 72, 55
3, 2088, Note_on_c, 1, 72, 0
3, 2112, Note_on_c, 1, 71, 50
3, 2136, Note_on_c, 1, 71, 0
3, 2160, Note_on_c, 1, 69, 50
3, 2184, Note_on_c, 1, 69, 0
3, 2208, Note_on_c, 1, 68, 55
3, 2232, Note_on_c, 1, 68, 0
3, 2256, Note_on_c, 1, 69, 50
3, 2280, Note_on_c, 1, 69, 0
3, 2304, Note_on_c, 1, 71, 50
3, 2328, Note_on_c, 1, 71, 0
3, 2352, Note_on_c, 1, 69, 55
3, 2376, Note_on_c, 1, 69, 0
3, 2400, Note_on_c, 1, 68, 50
3, 2424, Note_on_c, 1, 68, 0
3, 2448, Note_on_c, 1, 69, 50
3, 2472, Note_on_c, 1, 69, 0
3, 2496, Note_on_c, 1, 67, 55
3, 2520, Note_on_c, 1, 67, 0
3, 2544, Note_on_c, 1, 65, 50
3, 2568, Note_on_c, 1, 65, 0
3, 2592, Note_on_c, 1, 64, 50
3, 2616, Note_on_c, 1, 64, 0
3, 2640, Note_on_c, 1, 62, 55
3, 2664, Note_on_c, 1, 62, 0
3, 2688, Note_on_c, 1, 67, 50
3, 2712, Note_on_c, 1, 67, 0
3, 2736, Note_on_c, 1, 69, 50
3, 2760, Note_on_c, 1, 69, 0
3, 2784, Note_on_c, 1, 69, 55
3, 2808, Note_on_c, 1, 69, 0
3, 2832, Note_on_c, 1, 69, 50
3, 2856, Note_on_c, 1, 69, 0
3, 2880, Note_on_c, 1, 69, 50
3, 2904, Note_on_c, 1, 69, 0
3, 2928, Note_on_c, 1, 69, 55
3, 2952, Note_on_c, 1, 69, 0
3, 2976, Note_on_c, 1, 69, 50
3, 3000, Note_on_c, 1, 69, 0
3, 3024, Note_on_c, 1, 81, 50
3, 3048, Note_on_c, 1, 81, 0
3, 3072, Note_on_c, 1, 74, 55
3, 3096, Note_on_c, 1, 74, 0
3, 3120, Note_on_c, 1, 76, 50
3, 3144, Note_on_c, 1, 76, 0
3, 3168, Note_on_c, 1, 77, 50
3, 3192, Note_on_c, 1, 77, 0
3, 3216, Note_on_c, 1, 76, 55
3, 3240, Note_on_c, 1, 76, 0
3, 3264, Note_on_c, 1, 74, 50
3, 3288, Note_on_c, 1, 74, 0
3, 3312, Note_on_c, 1, 72, 50
3, 3336, Note_on_c, 1, 72, 0
3, 3360, Note_on_c, 1, 71, 55
3, 3384, Note_on_c, 1, 71, 0
3, 3408, Note_on_c, 1, 69, 50
3, 3432, Note_on_c, 1, 69, 0
3, 3456, Note_on_c, 1, 68, 50
3, 3480, Note_on_c, 1, 68, 0
3, 3504, Note_on_c, 1, 69, 55
3, 3528, Note_on_c, 1, 69, 0
3, 3552, Note_on_c, 1, 74, 50
3, 3576, Note_on_c, 1, 74, 0
3, 3600, Note_on_c, 1, 72, 50
3, 3624, Note_on_c, 1, 72, 0
3, 3648, Note_on_c, 1, 73, 55
3, 3672, Note_on_c, 1, 73, 0
3, 3696, Note_on_c, 1, 74, 50
3, 3720, Note_on_c, 1, 74, 0
3, 3744, Note_on_c, 1, 76, 50
3, 3768, Note_on_c, 1, 76, 0
3, 3792, Note_on_c, 1, 74, 55
3, 3816, Note_on_c, 1, 74, 0
3, 3840, Note_on_c, 1, 73, 50
3, 3864, Note_on_c, 1, 73, 0
3, 3888, Note_on_c, 1, 74, 50
3, 3912, Note_on_c, 1, 74, 0
3, 3936, Note_on_c, 1, 69, 55
3, 3960, Note_on_c, 1, 69, 0
3, 3984, Note_on_c, 1, 69, 50
3, 4008, Note_on_c, 1, 69, 0
3, 4032, Note_on_c, 1, 69, 50
3, 4056, Note_on_c, 1, 69, 0
3, 4080, Note_on_c, 1, 69, 55
3, 4104, Note_on_c, 1, 69, 0
3, 4128, Note_on_c, 1, 69, 50
3, 4152, Note_on_c, 1, 69, 0
3, 4176, Note_on_c, 1, 69, 50
3, 4200, Note_on_c, 1, 69, 0
3, 4224, Note_on_c, 1, 81, 55
3, 4248, Note_on_c, 1, 81, 0
3, 4272, Note_on_c, 1, 79, 50
3, 4296, Note_on_c, 1, 79, 0
3, 4320, Note_on_c, 1, 77, 50
3, 4344, Note_on_c, 1, 77, 0
3, 4368, Note_on_c, 1, 76, 55
3, 4392, Note_on_c, 1, 76, 0
3, 4416, Note_on_c, 1, 74, 50
3, 4440, Note_on_c, 1, 74, 0
3, 4464, Note_on_c, 1, 72, 50
3, 4488, Note_on_c, 1, 72, 0
3, 4512, Note_on_c, 1, 71, 55
3, 4536, Note_on_c, 1, 71, 0
3, 4560, Note_on_c, 1, 72, 50
3, 4584, Note_on_c, 1, 72, 0
3, 4608, Note_on_c, 1, 74, 50
3, 4632, Note_on_c, 1, 74, 0
3, 4656, Note_on_c, 1, 72, 55
3, 4680, Note_on_c, 1, 72, 0
3, 4704, Note_on_c, 1, 59, 50
3, 4728, Note_on_c, 1, 59, 0
3, 4752, Note_on_c, 1, 60, 50
3, 4776, Note_on_c, 1, 60, 0
3, 4800, Note_on_c, 1, 61, 55
3, 4824, Note_on_c, 1, 61, 0
3, 4848, Note_on_c, 1, 62, 50
3, 4872, Note_on_c, 1, 62, 0
3, 4896, Note_on_c, 1, 64, 50
3, 4920, Note_on_c, 1, 64, 0
3, 4944, Note_on_c, 1, 65, 55
3, 4968, Note_on_c, 1, 65, 0
3, 4992, Note_on_c, 1, 67, 50
3, 5016, Note_on_c, 1, 67, 0
3, 5040, Note_on_c, 1, 69, 50
3, 5064, Note_on_c, 1, 69, 0
3, 5088, Note_on_c, 1, 69, 55
3, 5112, Note_on_c, 1, 69, 0
3, 5136, Note_on_c, 1, 69, 50
3, 5160, Note_on_c, 1, 69, 0
3, 5184, Note_on_c, 1, 69, 50
3, 5208, Note_on_c, 1, 69, 0
3, 5232, Note_on_c, 1, 69, 55
3, 5256, Note_on_c, 1, 69, 0
3, 5280, Note_on_c, 1, 69, 50
3, 5304, Note_on_c, 1, 69, 0
3, 5328, Note_on_c, 1, 69, 50
3, 5352, Note_on_c, 1, 69, 0
3, 5376, Note_on_c, 1, 74, 55
3, 5400, Note_on_c, 1, 74, 0
3, 5424, Note_on_c, 1, 72, 50
3, 5448, Note_on_c, 1, 72, 0
3, 5472, Note_on_c, 1, 68, 50
3, 5496, Note_on_c, 1, 68, 0
3, 5520, Note_on_c, 1, 69, 55
3, 5544, Note_on_c, 1, 69, 0
3, 5568, Note_on_c, 1, 68, 50
3, 5592, Note_on_c, 1, 68, 0
3, 5616, Note_on_c, 1, 69, 50
3, 5640, Note_on_c, 1, 69, 0
3, 5664, Note_on_c, 1, 59, 55
3, 5688, Note_on_c, 1, 59, 0
3, 5712, Note_on_c, 1, 60, 50
3, 5736, Note_on_c, 1, 60, 0
3, 5760, Note_on_c, 1, 56, 50
3, 5784, Note_on_c, 1, 56, 0
3, 5808, Note_on_c, 1, 64, 55
3, 5832, Note_on_c, 1, 64, 0
3, 5856, Note_on_c, 1, 62, 50
3, 5880, Note_on_c, 1, 62, 0
3, 5904, Note_on_c, 1, 60, 50
3, 5928, Note_on_c, 1, 60, 0
3, 5952, Note_on_c, 1, 70, 55
3, 5976, Note_on_c, 1, 70, 0
3, 6000, Note_on_c, 1, 69, 50
3, 6024, Note_on_c, 1, 69, 0
3, 6048, Note_on_c, 1, 67, 50
3, 6072, Note_on_c, 1, 67, 0
3, 6096, Note_on_c, 1, 65, 55
3, 6120, Note_on_c, 1, 65, 0
3, 6144, Note_on_c, 1, 64, 50
3, 6168, Note_on_c, 1, 64, 0
3, 6192, Note_on_c, 1, 62, 50
3, 6216, Note_on_c, 1, 62, 0
3, 6240, Note_on_c, 1, 61, 55
3, 6264, Note_on_c, 1, 61, 0
3, 6288, Note_on_c, 1, 62, 50
3, 6312, Note_on_c, 1, 62, 0
3, 6336, Note_on_c, 1, 64, 50
3, 6360, Note_on_c, 1, 64, 0
3, 6384, Note_on_c, 1, 62, 55
3, 6408, Note_on_c, 1, 62, 0
3, 6432, Note_on_c, 1, 61, 50
3, 6456, Note_on_c, 1, 61, 0
3, 6480, Note_on_c, 1, 62, 50
3, 6504, Note_on_c, 1, 62, 0
3, 6528, Note_on_c, 1, 64, 55
3, 6552, Note_on_c, 1, 64, 0
3, 6576, Note_on_c, 1, 65, 51
3, 6600, Note_on_c, 1, 65, 0
3, 6624, Note_on_c, 1, 67, 53
3, 6648, Note_on_c, 1, 67, 0
3, 6672, Note_on_c, 1, 65, 60
3, 6696, Note_on_c, 1, 65, 0
3, 6720, Note_on_c, 1, 64, 56
3, 6744, Note_on_c, 1, 64, 0
3, 6768, Note_on_c, 1, 65, 58
3, 6792, Note_on_c, 1, 65, 0
3, 6816, Note_on_c, 1, 64, 65
3, 6840, Note_on_c, 1, 64, 0
3, 6864, Note_on_c, 1, 65, 61
3, 6888, Note_on_c, 1, 65, 0
3, 6912, Note_on_c, 1, 67, 63
3, 6936, Note_on_c, 1, 67, 0
3, 6960, Note_on_c, 1, 65, 70
3, 6984, Note_on_c, 1, 65, 0
3, 7008, Note_on_c, 1, 64, 66
3, 7032, Note_on_c, 1, 64, 0
3, 7056, Note_on_c, 1, 65, 68
3, 7080, Note_on_c, 1, 65, 0
3, 7104, Note_on_c, 1, 64, 75
3, 7128, Note_on_c, 1, 64, 0
3, 7152, Note_on_c, 1, 65, 71
3, 7176, Note_on_c, 1, 65, 0
3, 7200, Note_on_c, 1, 67, 73
3, 7224, Note_on_c, 1, 67, 0
3, 7248, Note_on_c, 1, 65, 80
3, 7272, Note_on_c, 1, 65, 0
3, 7296, Note_on_c, 1, 64, 77
3, 7320, Note_on_c, 1, 64, 0
3, 7344, Note_on_c, 1, 65, 78
3, 7368, Note_on_c, 1, 65, 0
3, 7392, Note_on_c, 1, 73, 85
3, 7416, Note_on_c, 1, 73, 0
3, 7440, Note_on_c, 1, 74, 82
3, 7464, Note_on_c, 1, 74, 0
3, 7488, Note_on_c, 1, 76, 83
3, 7512, Note_on_c, 1, 76, 0
3, 7536, Note_on_c, 1, 74, 90
3, 7560, Note_on_c, 1, 74, 0
3, 7584, Note_on_c, 1, 73, 87
3, 7608, Note_on_c, 1, 73, 0
3, 7632, Note_on_c, 1, 74, 88
3, 7656, Note_on_c, 1, 74, 0
3, 7680, Note_on_c, 1, 73, 95
3, 7704, Note_on_c, 1, 73, 0
3, 7728, Note_on_c, 1, 74, 92
3, 7752, Note_on_c, 1, 74, 0
3, 7776, Note_on_c, 1, 76, 93
3, 7800, Note_on_c, 1, 76, 0
3, 7824, Note_on_c, 1, 74, 100
3, 7848, Note_on_c, 1, 74, 0
3, 7872, Note_on_c, 1, 73, 97
3, 7896, Note_on_c, 1, 73, 0
3, 7920, Note_on_c, 1, 74, 98
3, 7944, Note_on_c, 1, 74, 0
3, 7968, Note_on_c, 1, 64, 105
3, 7968, Note_on_c, 1, 73, 105
3, 7992, Note_on_c, 1, 73, 0
3, 7992, Note_on_c, 1, 64, 0
3, 8016, Note_on_c, 1, 74, 102
3, 8040, Note_on_c, 1, 74, 0
3, 8064, Note_on_c, 1, 76, 104
3, 8088, Note_on_c, 1, 76, 0
3, 8112, Note_on_c, 1, 64, 110
3, 8112, Note_on_c, 1, 76, 110
3, 8136, Note_on_c, 1, 76, 0
3, 8136, Note_on_c, 1, 64, 0
3, 8160, Note_on_c, 1, 77, 107
3, 8184, Note_on_c, 1, 77, 0
3, 8208, Note_on_c, 1, 79, 109
3, 8232, Note_on_c, 1, 79, 0
3, 8256, Note_on_c, 1, 62, 102
3, 8257, Note_on_c, 1, 69, 106
3, 8260, Note_on_c, 1, 81, 115
3, 8280, Note_on_c, 1, 62, 0
3, 8281, Note_on_c, 1, 69, 0
3, 8284, Note_on_c, 1, 81, 0
3, 8326, Note_on_c, 1, 69, 110
3, 8338, Note_on_c, 1, 69, 0
3, 8350, Note_on_c, 1, 69, 110
3, 8374, Note_on_c, 1, 69, 0
3, 8398, Note_on_c, 1, 74, 115
3, 8422, Note_on_c, 1, 74, 0
3, 8446, Note_on_c, 1, 76, 110
3, 8470, Note_on_c, 1, 76, 0
3, 8494, Note_on_c, 1, 77, 110
3, 8518, Note_on_c, 1, 77, 0
3, 8542, Note_on_c, 1, 76, 115
3, 8566, Note_on_c, 1, 76, 0
3, 8590, Note_on_c, 1, 77, 110
3, 8614, Note_on_c, 1, 77, 0
3, 8638, Note_on_c, 1, 79, 110
3, 8662, Note_on_c, 1, 79, 0
3, 8686, Note_on_c, 1, 77, 115
3, 8710, Note_on_c, 1, 77, 0
3, 8734, Note_on_c, 1, 76, 110
3, 8758, Note_on_c, 1, 76, 0
3, 8782, Note_on_c, 1, 74, 110
3, 8806, Note_on_c, 1, 74, 0
3, 8830, Note_on_c, 1, 82, 115
3, 8854, Note_on_c, 1, 82, 0
3, 8878, Note_on_c, 1, 81, 110
3, 8902, Note_on_c, 1, 81, 0
3, 8926, Note_on_c, 1, 79, 110
3, 8950, Note_on_c, 1, 79, 0
3, 8974, Note_on_c, 1, 77, 115
3, 8998, Note_on_c, 1, 77, 0
3, 9022, Note_on_c, 1, 76, 110
3, 9046, Note_on_c, 1, 76, 0
3, 9070, Note_on_c, 1, 74, 110
3, 9094, Note_on_c, 1, 74, 0
3, 9118, Note_on_c, 1, 73, 115
3, 9142, Note_on_c, 1, 73, 0
3, 9166, Note_on_c, 1, 74, 110
3, 9190, Note_on_c, 1, 74, 0
3, 9214, Note_on_c, 1, 76, 110
3, 9238, Note_on_c, 1, 76, 0
3, 9262, Note_on_c, 1, 74, 115
3, 9286, Note_on_c, 1, 74, 0
3, 9310, Note_on_c, 1, 73, 110
3, 9334, Note_on_c, 1, 73, 0
3, 9358, Note_on_c, 1, 74, 110
3, 9382, Note_on_c, 1, 74, 0
3, 9406, Note_on_c, 1, 82, 115
3, 9430, Note_on_c, 1, 82, 0
3, 9454, Note_on_c, 1, 81, 110
3, 9478, Note_on_c, 1, 81, 0
3, 9502, Note_on_c, 1, 79, 110
3, 9526, Note_on_c, 1, 79, 0
3, 9550, Note_on_c, 1, 77, 115
3, 9574, Note_on_c, 1, 77, 0
3, 9598, Note_on_c, 1, 76, 110
3, 9622, Note_on_c, 1, 76, 0
3, 9646, Note_on_c, 1, 74, 110
3, 9670, Note_on_c, 1, 74, 0
3, 9694, Note_on_c, 1, 73, 115
3, 9718, Note_on_c, 1, 73, 0
3, 9742, Note_on_c, 1, 74, 110
3, 9766, Note_on_c, 1, 74, 0
3, 9790, Note_on_c, 1, 76, 110
3, 9814, Note_on_c, 1, 76, 0
3, 9838, Note_on_c, 1, 74, 115
3, 9862, Note_on_c, 1, 74, 0
3, 9886, Note_on_c, 1, 73, 110
3, 9910, Note_on_c, 1, 73, 0
3, 9934, Note_on_c, 1, 74, 110
3, 9958, Note_on_c, 1, 74, 0
3, 9982, Note_on_c, 1, 81, 115
3, 10006, Note_on_c, 1, 81, 0
3, 10030, Note_on_c, 1, 79, 110
3, 10054, Note_on_c, 1, 79, 0
3, 10078, Note_on_c, 1, 77, 110
3, 10102, Note_on_c, 1, 77, 0
3, 10126, Note_on_c, 1, 76, 115
3, 10150, Note_on_c, 1, 76, 0
3, 10174, Note_on_c, 1, 74, 110
3, 10198, Note_on_c, 1, 74, 0
3, 10222, Note_on_c, 1, 72, 110
3, 10246, Note_on_c, 1, 72, 0
3, 10270, Note_on_c, 1, 71, 115
3, 10294, Note_on_c, 1, 71, 0
3, 10318, Note_on_c, 1, 72, 110
3, 10342, Note_on_c, 1, 72, 0
3, 10366, Note_on_c, 1, 74, 110
3, 10390, Note_on_c, 1, 74, 0
3, 10414, Note_on_c, 1, 72, 110
3, 10438, Note_on_c, 1, 72, 0
3, 10462, Note_on_c, 1, 81, 118
3, 10486, Note_on_c, 1, 81, 0
3, 10510, Note_on_c, 1, 81, 118
3, 10534, Note_on_c, 1, 81, 0
3, 10558, Note_on_c, 1, 81, 115
3, 10582, Note_on_c, 1, 81, 0
3, 10606, Note_on_c, 1, 79, 110
3, 10630, Note_on_c, 1, 79, 0
3, 10654, Note_on_c, 1, 77, 110
3, 10678, Note_on_c, 1, 77, 0
3, 10702, Note_on_c, 1, 76, 115
3, 10726, Note_on_c, 1, 76, 0
3, 10750, Note_on_c, 1, 74, 110
3, 10774, Note_on_c, 1, 74, 0
3, 10798, Note_on_c, 1, 72, 110
3, 10822, Note_on_c, 1, 72, 0
3, 10846, Note_on_c, 1, 79, 115
3, 10870, Note_on_c, 1, 79, 0
3, 10894, Note_on_c, 1, 77, 110
3, 10918, Note_on_c, 1, 77, 0
3, 10942, Note_on_c, 1, 76, 110
3, 10966, Note_on_c, 1, 76, 0
3, 10990, Note_on_c, 1, 88, 115
3, 11014, Note_on_c, 1, 88, 0
3, 11038, Note_on_c, 1, 86, 110
3, 11062, Note_on_c, 1, 86, 0
3, 11086, Note_on_c, 1, 84, 110
3, 11110, Note_on_c, 1, 84, 0
3, 11136, Note_on_c, 1, 79, 110
3, 11171, Note_on_c, 1, 79, 0
3, 11208, Note_on_c, 1, 67, 60
3, 11220, Note_on_c, 1, 67, 0
3, 11232, Note_on_c, 1, 67, 60
3, 11256, Note_on_c, 1, 67, 0
3, 11280, Note_on_c, 1, 79, 60
3, 11315, Note_on_c, 1, 79, 0
3, 11352, Note_on_c, 1, 67, 64
3, 11364, Note_on_c, 1, 67, 0
3, 11376, Note_on_c, 1, 67, 66
3, 11400, Note_on_c, 1, 67, 0
3, 11424, Note_on_c, 1, 79, 69
3, 11459, Note_on_c, 1, 79, 0
3, 11496, Note_on_c, 1, 67, 74
3, 11508, Note_on_c, 1, 67, 0
3, 11520, Note_on_c, 1, 67, 76
3, 11544, Note_on_c, 1, 67, 0
3, 11568, Note_on_c, 1, 77, 79
3, 11603, Note_on_c, 1, 77, 0
3, 11640, Note_on_c, 1, 65, 84
3, 11652, Note_on_c, 1, 65, 0
3, 11664, Note_on_c, 1, 65, 85
3, 11688, Note_on_c, 1, 65, 0
3, 11712, Note_on_c, 1, 77, 89
3, 11747, Note_on_c, 1, 77, 0
3, 11784, Note_on_c, 1, 65, 93
3, 11796, Note_on_c, 1, 65, 0
3, 11808, Note_on_c, 1, 65, 95
3, 11832, Note_on_c, 1, 65, 0
3, 11856, Note_on_c, 1, 76, 100
3, 11891, Note_on_c, 1, 76, 0
3, 11928, Note_on_c, 1, 64, 93
3, 11940, Note_on_c, 1, 64, 0
3, 11952, Note_on_c, 1, 64, 91
3, 11976, Note_on_c, 1, 64, 0
3, 12000, Note_on_c, 1, 75, 86
3, 12035, Note_on_c, 1, 75, 0
3, 12072, Note_on_c, 1, 63, 78
3, 12084, Note_on_c, 1, 63, 0
3, 12096, Note_on_c, 1, 63, 76
3, 12120, Note_on_c, 1, 63, 0
3, 12144, Note_on_c, 1, 74, 71
3, 12179, Note_on_c, 1, 74, 0
3, 12216, Note_on_c, 1, 62, 64
3, 12228, Note_on_c, 1, 62, 0
3, 12240, Note_on_c, 1, 62, 61
3, 12264, Note_on_c, 1, 62, 0
3, 12576, Note_on_c, 1, 69, 60
3, 12611, Note_on_c, 1, 69, 0
3, 12648, Note_on_c, 1, 57, 64
3, 12660, Note_on_c, 1, 57, 0
3, 12672, Note_on_c, 1, 57, 66
3, 12696, Note_on_c, 1, 57, 0
3, 12720, Note_on_c, 1, 69, 69
3, 12755, Note_on_c, 1, 69, 0
3, 12792, Note_on_c, 1, 57, 73
3, 12804, Note_on_c, 1, 57, 0
3, 12816, Note_on_c, 1, 57, 75
3, 12840, Note_on_c, 1, 57, 0
3, 12864, Note_on_c, 1, 68, 78
3, 12899, Note_on_c, 1, 68, 0
3, 12936, Note_on_c, 1, 56, 82
3, 12948, Note_on_c, 1, 56, 0
3, 12960, Note_on_c, 1, 56, 84
3, 12984, Note_on_c, 1, 56, 0
3, 13008, Note_on_c, 1, 67, 87
3, 13043, Note_on_c, 1, 67, 0
3, 13080, Note_on_c, 1, 55, 91
3, 13092, Note_on_c, 1, 55, 0
3, 13104, Note_on_c, 1, 55, 93
3, 13128, Note_on_c, 1, 55, 0
3, 13152, Note_on_c, 1, 67, 96
3, 13187, Note_on_c, 1, 67, 0
3, 13224, Note_on_c, 1, 55, 101
3, 13236, Note_on_c, 1, 55, 0
3, 13248, Note_on_c, 1, 55, 102
3, 13272, Note_on_c, 1, 55, 0
3, 13296, Note_on_c, 1, 67, 105
3, 13331, Note_on_c, 1, 67, 0
3, 13368, Note_on_c, 1, 55, 110
3, 13380, Note_on_c, 1, 55, 0
3, 13392, Note_on_c, 1, 55, 111
3, 13416, Note_on_c, 1, 55, 0
3, 13440, Note_on_c, 1, 72, 120
3, 13475, Note_on_c, 1, 72, 0
3, 13512, Note_on_c, 1, 60, 113
3, 13524, Note_on_c, 1, 60, 0
3, 13536, Note_on_c, 1, 60, 113
3, 13560, Note_on_c, 1, 60, 0
3, 13584, Note_on_c, 1, 72, 120
3, 13619, Note_on_c, 1, 72, 0
3, 13656, Note_on_c, 1, 60, 113
3, 13668, Note_on_c, 1, 60, 0
3, 13680, Note_on_c, 1, 60, 113
3, 13704, Note_on_c, 1, 60, 0
3, 13728, Note_on_c, 1, 72, 120
3, 13763, Note_on_c, 1, 72, 0
3, 13800, Note_on_c, 1, 60, 113
3, 13812, Note_on_c, 1, 60, 0
3, 13824, Note_on_c, 1, 60, 113
3, 13848, Note_on_c, 1, 60, 0
3, 13872, Note_on_c, 1, 72, 120
3, 13907, Note_on_c, 1, 72, 0
3, 13944, Note_on_c, 1, 60, 113
3, 13956, Note_on_c, 1, 60, 0
3, 13968, Note_on_c, 1, 60, 113
3, 13992, Note_on_c, 1, 60, 0
3, 14016, Note_on_c, 1, 72, 120
3, 14051, Note_on_c, 1, 72, 0
3, 14088, Note_on_c, 1, 60, 113
3, 14100, Note_on_c, 1, 60, 0
3, 14112, Note_on_c, 1, 60, 113
3, 14136, Note_on_c, 1, 60, 0
3, 14160, Note_on_c, 1, 72, 120
3, 14195, Note_on_c, 1, 72, 0
3, 14232, Note_on_c, 1, 60, 113
3, 14244, Note_on_c, 1, 60, 0
3, 14256, Note_on_c, 1, 60, 113
3, 14280, Note_on_c, 1, 60, 0
3, 14304, Note_on_c, 1, 72, 120
3, 14339, Note_on_c, 1, 72, 0
3, 14376, Note_on_c, 1, 60, 113
3, 14388, Note_on_c, 1, 60, 0
3, 14400, Note_on_c, 1, 60, 113
3, 14424, Note_on_c, 1, 60, 0
3, 14448, Note_on_c, 1, 72, 120
3, 14483, Note_on_c, 1, 72, 0
3, 14520, Note_on_c, 1, 60, 113
3, 14532, Note_on_c, 1, 60, 0
3, 14544, Note_on_c, 1, 60, 113
3, 14568, Note_on_c, 1, 60, 0
3, 14592, Note_on_c, 1, 72, 120
3, 14627, Note_on_c, 1, 72, 0
3, 14664, Note_on_c, 1, 60, 113
3, 14676, Note_on_c, 1, 60, 0
3, 14688, Note_on_c, 1, 60, 113
3, 14712, Note_on_c, 1, 60, 0
3, 14736, Note_on_c, 1, 72, 120
3, 14771, Note_on_c, 1, 72, 0
3, 14808, Note_on_c, 1, 60, 113
3, 14820, Note_on_c, 1, 60, 0
3, 14832, Note_on_c, 1, 60, 113
3, 14856, Note_on_c, 1, 60, 0
3, 14880, Note_on_c, 1, 72, 120
3, 14915, Note_on_c, 1, 72, 0
3, 14952, Note_on_c, 1, 60, 113
3, 14964, Note_on_c, 1, 60, 0
3, 14976, Note_on_c, 1, 60, 113
3, 15000, Note_on_c, 1, 60, 0
3, 15024, Note_on_c, 1, 72, 120
3, 15059, Note_on_c, 1, 72, 0
3, 15096, Note_on_c, 1, 60, 113
3, 15108, Note_on_c, 1, 60, 0
3, 15120, Note_on_c, 1, 60, 113
3, 15144, Note_on_c, 1, 60, 0
3, 15168, Note_on_c, 1, 72, 120
3, 15203, Note_on_c, 1, 72, 0
3, 15240, Note_on_c, 1, 60, 113
3, 15252, Note_on_c, 1, 60, 0
3, 15264, Note_on_c, 1, 60, 113
3, 15288, Note_on_c, 1, 60, 0
3, 15312, Note_on_c, 1, 72, 120
3, 15347, Note_on_c, 1, 72, 0
3, 15384, Note_on_c, 1, 60, 113
3, 15396, Note_on_c, 1, 60, 0
3, 15408, Note_on_c, 1, 60, 113
3, 15432, Note_on_c, 1, 60, 0
3, 15456, Note_on_c, 1, 72, 120
3, 15491, Note_on_c, 1, 72, 0
3, 15528, Note_on_c, 1, 60, 113
3, 15540, Note_on_c, 1, 60, 0
3, 15552, Note_on_c, 1, 60, 113
3, 15576, Note_on_c, 1, 60, 0
3, 15600, Note_on_c, 1, 72, 120
3, 15635, Note_on_c, 1, 72, 0
3, 15672, Note_on_c, 1, 60, 113
3, 15684, Note_on_c, 1, 60, 0
3, 15696, Note_on_c, 1, 60, 113
3, 15720, Note_on_c, 1, 60, 0
3, 15744, Note_on_c, 1, 72, 113
3, 15768, Note_on_c, 1, 72, 0
3, 16032, Note_on_c, 1, 69, 120
3, 16067, Note_on_c, 1, 69, 0
3, 16104, Note_on_c, 1, 57, 113
3, 16116, Note_on_c, 1, 57, 0
3, 16128, Note_on_c, 1, 57, 113
3, 16152, Note_on_c, 1, 57, 0
3, 16176, Note_on_c, 1, 69, 117
3, 16200, Note_on_c, 1, 69, 0
3, 16224, Note_on_c, 1, 65, 113
3, 16248, Note_on_c, 1, 65, 0
3, 16272, Note_on_c, 1, 64, 113
3, 16296, Note_on_c, 1, 64, 0
3, 16320, Note_on_c, 1, 62, 113
3, 16344, Note_on_c, 1, 62, 0
3, 16608, Note_on_c, 1, 67, 120
3, 16643, Note_on_c, 1, 67, 0
3, 16680, Note_on_c, 1, 55, 113
3, 16692, Note_on_c, 1, 55, 0
3, 16704, Note_on_c, 1, 55, 113
3, 16728, Note_on_c, 1, 55, 0
3, 16752, Note_on_c, 1, 67, 117
3, 16776, Note_on_c, 1, 67, 0
3, 16800, Note_on_c, 1, 64, 113
3, 16824, Note_on_c, 1, 64, 0
3, 16848, Note_on_c, 1, 62, 113
3, 16872, Note_on_c, 1, 62, 0
3, 16896, Control_c, 1, 11, 60
3, 16896, Control_c, 1, 6, 64
3, 16896, Note_on_c, 1, 55, 113
3, 16944, Note_on_c, 1, 65, 113
3, 16992, Note_on_c, 1, 65, 0
3, 16992, Note_on_c, 1, 64, 113
3, 17088, Note_on_c, 1, 64, 0
3, 17088, Note_on_c, 1, 65, 113
3, 17136, Note_on_c, 1, 65, 0
3, 17136, Note_on_c, 1, 67, 113
3, 17184, Note_on_c, 1, 67, 0
3, 17184, Control_c, 1, 11, 60
3, 17184, Note_on_c, 1, 65, 113
3, 17199, Control_c, 1, 11, 61
3, 17213, Control_c, 1, 11, 62
3, 17228, Control_c, 1, 11, 63
3, 17232, Note_on_c, 1, 65, 0
3, 17232, Note_on_c, 1, 55, 0
3, 17232, Note_on_c, 1, 64, 113
3, 17242, Control_c, 1, 11, 64
3, 17256, Control_c, 1, 11, 65
3, 17271, Control_c, 1, 11, 66
3, 17280, Note_on_c, 1, 64, 0
3, 17280, Note_on_c, 1, 65, 113
3, 17285, Control_c, 1, 11, 67
3, 17299, Control_c, 1, 11, 68
3, 17314, Control_c, 1, 11, 69
3, 17328, Note_on_c, 1, 65, 0
3, 17328, Note_on_c, 1, 67, 113
3, 17328, Control_c, 1, 11, 70
3, 17342, Control_c, 1, 11, 71
3, 17357, Control_c, 1, 11, 72
3, 17371, Control_c, 1, 11, 73
3, 17376, Note_on_c, 1, 67, 0
3, 17376, Note_on_c, 1, 60, 113
3, 17385, Control_c, 1, 11, 74
3, 17400, Control_c, 1, 11, 75
3, 17414, Control_c, 1, 11, 76
3, 17424, Note_on_c, 1, 60, 0
3, 17424, Note_on_c, 1, 76, 113
3, 17428, Control_c, 1, 11, 77
3, 17443, Control_c, 1, 11, 78
3, 17457, Control_c, 1, 11, 79
3, 17471, Control_c, 1, 11, 80
3, 17472, Control_c, 1, 11, 80
3, 17487, Control_c, 1, 11, 79
3, 17501, Control_c, 1, 11, 78
3, 17516, Control_c, 1, 11, 77
3, 17530, Control_c, 1, 11, 76
3, 17544, Control_c, 1, 11, 75
3, 17559, Control_c, 1, 11, 74
3, 17568, Note_on_c, 1, 76, 0
3, 17568, Note_on_c, 1, 60, 113
3, 17573, Control_c, 1, 11, 73
3, 17587, Control_c, 1, 11, 72
3, 17602, Control_c, 1, 11, 71
3, 17616, Control_c, 1, 11, 70
3, 17630, Control_c, 1, 11, 69
3, 17645, Control_c, 1, 11, 68
3, 17659, Control_c, 1, 11, 67
3, 17664, Note_on_c, 1, 60, 0
3, 17664, Note_on_c, 1, 62, 113
3, 17673, Control_c, 1, 11, 66
3, 17688, Control_c, 1, 11, 65
3, 17702, Control_c, 1, 11, 64
3, 17712, Note_on_c, 1, 62, 0
3, 17712, Note_on_c, 1, 64, 113
3, 17716, Control_c, 1, 11, 63
3, 17731, Control_c, 1, 11, 62
3, 17745, Control_c, 1, 11, 61
3, 17759, Control_c, 1, 11, 60
3, 17760, Note_on_c, 1, 64, 0
3, 18624, Control_c, 1, 11, 120
3, 18624, Control_c, 1, 6, 14
3, 18624, Note_on_c, 1, 76, 105
3, 18648, Note_on_c, 1, 76, 0
3, 18672, Note_on_c, 1, 64, 100
3, 18696, Note_on_c, 1, 64, 0
3, 18720, Note_on_c, 1, 81, 100
3, 18744, Note_on_c, 1, 81, 0
3, 18768, Note_on_c, 1, 81, 105
3, 18792, Note_on_c, 1, 81, 0
3, 18816, Note_on_c, 1, 79, 100
3, 18840, Note_on_c, 1, 79, 0
3, 18864, Note_on_c, 1, 72, 100
3, 18864, Note_on_c, 1, 76, 100
3, 18888, Note_on_c, 1, 76, 0
3, 18888, Note_on_c, 1, 72, 0
3, 18912, Note_on_c, 1, 72, 105
3, 18912, Note_on_c, 1, 76, 105
3, 18936, Note_on_c, 1, 76, 0
3, 18936, Note_on_c, 1, 72, 0
3, 19200, Note_on_c, 1, 76, 105
3, 19224, Note_on_c, 1, 76, 0
3, 19248, Note_on_c, 1, 72, 100
3, 19272, Note_on_c, 1, 72, 0
3, 19296, Note_on_c, 1, 77, 100
3, 19320, Note_on_c, 1, 77, 0
3, 19344, Note_on_c, 1, 74, 105
3, 19368, Note_on_c, 1, 74, 0
3, 19392, Note_on_c, 1, 71, 100
3, 19416, Note_on_c, 1, 71, 0
3, 19440, Note_on_c, 1, 76, 100
3, 19464, Note_on_c, 1, 76, 0
3, 19488, Note_on_c, 1, 60, 103
3, 19490, Note_on_c, 1, 67, 105
3, 19492, Note_on_c, 1, 76, 107
3, 19523, Note_on_c, 1, 60, 0
3, 19525, Note_on_c, 1, 67, 0
3, 19527, Note_on_c, 1, 76, 0
3, 19560, Note_on_c, 1, 72, 100
3, 19572, Note_on_c, 1, 72, 0
3, 19584, Note_on_c, 1, 72, 100
3, 19608, Note_on_c, 1, 72, 0
3, 19632, Note_on_c, 1, 67, 95
3, 19656, Note_on_c, 1, 67, 0
3, 19776, Note_on_c, 1, 72, 107
3, 19811, Note_on_c, 1, 72, 0
3, 19848, Note_on_c, 1, 60, 100
3, 19860, Note_on_c, 1, 60, 0
3, 19872, Note_on_c, 1, 60, 100
3, 19896, Note_on_c, 1, 60, 0
3, 19920, Note_on_c, 1, 55, 100
3, 19944, Note_on_c, 1, 55, 0
3, 20058, Control_c, 1, 6, 64
3, 20064, Note_on_c, 1, 65, 57
3, 20112, Note_on_c, 1, 65, 0
3, 20112, Note_on_c, 1, 64, 56
3, 20160, Note_on_c, 1, 64, 0
3, 20160, Note_on_c, 1, 62, 54
3, 20208, Note_on_c, 1, 62, 0
3, 20208, Note_on_c, 1, 60, 53
3, 20256, Note_on_c, 1, 60, 0
3, 20256, Note_on_c, 1, 59, 51
3, 20304, Note_on_c, 1, 59, 0
3, 20304, Note_on_c, 1, 57, 50
3, 20352, Note_on_c, 1, 57, 0
3, 20352, Note_on_c, 1, 55, 49
3, 20400, Note_on_c, 1, 55, 0
3, 20400, Note_on_c, 1, 57, 51
3, 20448, Note_on_c, 1, 57, 0
3, 20448, Note_on_c, 1, 55, 49
3, 20639, Note_on_c, 1, 55, 0
3, 20640, Control_c, 1, 6, 14
3, 20640, Note_on_c, 1, 55, 60
3, 20640, Note_on_c, 1, 64, 60
3, 20675, Note_on_c, 1, 64, 0
3, 20675, Note_on_c, 1, 55, 0
3, 20712, Note_on_c, 1, 67, 50
3, 20724, Note_on_c, 1, 67, 0
3, 20736, Note_on_c, 1, 67, 50
3, 20760, Note_on_c, 1, 67, 0
3, 20784, Note_on_c, 1, 69, 53
3, 20808, Note_on_c, 1, 69, 0
3, 20928, Note_on_c, 1, 69, 60
3, 20963, Note_on_c, 1, 69, 0
3, 21000, Note_on_c, 1, 69, 50
3, 21012, Note_on_c, 1, 69, 0
3, 21024, Note_on_c, 1, 69, 50
3, 21048, Note_on_c, 1, 69, 0
3, 21072, Note_on_c, 1, 69, 55
3, 21096, Note_on_c, 1, 69, 0
3, 21792, Note_on_c, 1, 81, 60
3, 21827, Note_on_c, 1, 81, 0
3, 21864, Note_on_c, 1, 69, 50
3, 21876, Note_on_c, 1, 69, 0
3, 21888, Note_on_c, 1, 69, 50
3, 21912, Note_on_c, 1, 69, 0
3, 21936, Note_on_c, 1, 74, 55
3, 21960, Note_on_c, 1, 74, 0
3, 21984, Note_on_c, 1, 76, 50
3, 22008, Note_on_c, 1, 76, 0
3, 22032, Note_on_c, 1, 77, 50
3, 22056, Note_on_c, 1, 77, 0
3, 22080, Note_on_c, 1, 76, 55
3, 22104, Note_on_c, 1, 76, 0
3, 22128, Note_on_c, 1, 77, 50
3, 22152, Note_on_c, 1, 77, 0
3, 22176, Note_on_c, 1, 79, 50
3, 22200, Note_on_c, 1, 79, 0
3, 22224, Note_on_c, 1, 77, 55
3, 22248, Note_on_c, 1, 77, 0
3, 22272, Note_on_c, 1, 76, 50
3, 22296, Note_on_c, 1, 76, 0
3, 22320, Note_on_c, 1, 74, 50
3, 22344, Note_on_c, 1, 74, 0
3, 22368, Note_on_c, 1, 77, 55
3, 22392, Note_on_c, 1, 77, 0
3, 22416, Note_on_c, 1, 76, 50
3, 22440, Note_on_c, 1, 76, 0
3, 22464, Note_on_c, 1, 74, 50
3, 22488, Note_on_c, 1, 74, 0
3, 22512, Note_on_c, 1, 72, 55
3, 22536, Note_on_c, 1, 72, 0
3, 22560, Note_on_c, 1, 71, 50
3, 22584, Note_on_c, 1, 71, 0
3, 22608, Note_on_c, 1, 69, 50
3, 22632, Note_on_c, 1, 69, 0
3, 22656, Note_on_c, 1, 68, 55
3, 22680, Note_on_c, 1, 68, 0
3, 22704, Note_on_c, 1, 69, 50
3, 22728, Note_on_c, 1, 69, 0
3, 22752, Note_on_c, 1, 71, 50
3, 22776, Note_on_c, 1, 71, 0
3, 22800, Note_on_c, 1, 69, 55
3, 22824, Note_on_c, 1, 69, 0
3, 22848, Note_on_c, 1, 68, 50
3, 22872, Note_on_c, 1, 68, 0
3, 22896, Note_on_c, 1, 69, 50
3, 22920, Note_on_c, 1, 69, 0
3, 22944, Note_on_c, 1, 67, 55
3, 22968, Note_on_c, 1, 67, 0
3, 22992, Note_on_c, 1, 65, 50
3, 23016, Note_on_c, 1, 65, 0
3, 23040, Note_on_c, 1, 64, 50
3, 23064, Note_on_c, 1, 64, 0
3, 23088, Note_on_c, 1, 62, 55
3, 23112, Note_on_c, 1, 62, 0
3, 23136, Note_on_c, 1, 67, 50
3, 23160, Note_on_c, 1, 67, 0
3, 23184, Note_on_c, 1, 69, 50
3, 23208, Note_on_c, 1, 69, 0
3, 23232, Note_on_c, 1, 69, 55
3, 23256, Note_on_c, 1, 69, 0
3, 23280, Note_on_c, 1, 69, 50
3, 23304, Note_on_c, 1, 69, 0
3, 23328, Note_on_c, 1, 69, 50
3, 23352, Note_on_c, 1, 69, 0
3, 23376, Note_on_c, 1, 69, 55
3, 23400, Note_on_c, 1, 69, 0
3, 23424, Note_on_c, 1, 69, 50
3, 23448, Note_on_c, 1, 69, 0
3, 23472, Note_on_c, 1, 81, 50
3, 23496, Note_on_c, 1, 81, 0
3, 23520, Note_on_c, 1, 74, 55
3, 23544, Note_on_c, 1, 74, 0
3, 23568, Note_on_c, 1, 76, 50
3, 23592, Note_on_c, 1, 76, 0
3, 23616, Note_on_c, 1, 77, 50
3, 23640, Note_on_c, 1, 77, 0
3, 23664, Note_on_c, 1, 76, 55
3, 23688, Note_on_c, 1, 76, 0
3, 23712, Note_on_c, 1, 74, 50
3, 23736, Note_on_c, 1, 74, 0
3, 23760, Note_on_c, 1, 72, 50
3, 23784, Note_on_c, 1, 72, 0
3, 23808, Note_on_c, 1, 71, 55
3, 23832, Note_on_c, 1, 71, 0
3, 23856, Note_on_c, 1, 69, 50
3, 23880, Note_on_c, 1, 69, 0
3, 23904, Note_on_c, 1, 68, 50
3, 23928, Note_on_c, 1, 68, 0
3, 23952, Note_on_c, 1, 69, 55
3, 23976, Note_on_c, 1, 69, 0
3, 24000, Note_on_c, 1, 74, 50
3, 24024, Note_on_c, 1, 74, 0
3, 24048, Note_on_c, 1, 72, 50
3, 24072, Note_on_c, 1, 72, 0
3, 24096, Note_on_c, 1, 73, 55
3, 24120, Note_on_c, 1, 73, 0
3, 24144, Note_on_c, 1, 74, 50
3, 24168, Note_on_c, 1, 74, 0
3, 24192, Note_on_c, 1, 76, 50
3, 24216, Note_on_c, 1, 76, 0
3, 24240, Note_on_c, 1, 74, 55
3, 24264, Note_on_c, 1, 74, 0
3, 24288, Note_on_c, 1, 73, 50
3, 24312, Note_on_c, 1, 73, 0
3, 24336, Note_on_c, 1, 74, 50
3, 24360, Note_on_c, 1, 74, 0
3, 24384, Note_on_c, 1, 69, 55
3, 24408, Note_on_c, 1, 69, 0
3, 24432, Note_on_c, 1, 69, 50
3, 24456, Note_on_c, 1, 69, 0
3, 24480, Note_on_c, 1, 69, 50
3, 24504, Note_on_c, 1, 69, 0
3, 24528, Note_on_c, 1, 69, 55
3, 24552, Note_on_c, 1, 69, 0
3, 24576, Note_on_c, 1, 69, 50
3, 24600, Note_on_c, 1, 69, 0
3, 24624, Note_on_c, 1, 69, 50
3, 24648, Note_on_c, 1, 69, 0
3, 24672, Note_on_c, 1, 81, 55
3, 24696, Note_on_c, 1, 81, 0
3, 24720, Note_on_c, 1, 79, 50
3, 24744, Note_on_c, 1, 79, 0
3, 24768, Note_on_c, 1, 77, 50
3, 24792, Note_on_c, 1, 77, 0
3, 24816, Note_on_c, 1, 76, 55
3, 24840, Note_on_c, 1, 76, 0
3, 24864, Note_on_c, 1, 74, 50
3, 24888, Note_on_c, 1, 74, 0
3, 24912, Note_on_c, 1, 72, 50
3, 24936, Note_on_c, 1, 72, 0
3, 24960, Note_on_c, 1, 71, 55
3, 24984, Note_on_c, 1, 71, 0
3, 25008, Note_on_c, 1, 72, 50
3, 25032, Note_on_c, 1, 72, 0
3, 25056, Note_on_c, 1, 74, 50
3, 25080, Note_on_c, 1, 74, 0
3, 25104, Note_on_c, 1, 72, 55
3, 25128, Note_on_c, 1, 72, 0
3, 25152, Note_on_c, 1, 59, 50
3, 25176, Note_on_c, 1, 59, 0
3, 25200, Note_on_c, 1, 60, 50
3, 25224, Note_on_c, 1, 60, 0
3, 25248, Note_on_c, 1, 61, 55
3, 25272, Note_on_c, 1, 61, 0
3, 25296, Note_on_c, 1, 62, 50
3, 25320, Note_on_c, 1, 62, 0
3, 25344, Note_on_c, 1, 64, 50
3, 25368, Note_on_c, 1, 64, 0
3, 25392, Note_on_c, 1, 65, 55
3, 25416, Note_on_c, 1, 65, 0
3, 25440, Note_on_c, 1, 67, 50
3, 25464, Note_on_c, 1, 67, 0
3, 25488, Note_on_c, 1, 69, 50
3, 25512, Note_on_c, 1, 69, 0
3, 25536, Note_on_c, 1, 69, 55
3, 25560, Note_on_c, 1, 69, 0
3, 25584, Note_on_c, 1, 69, 50
3, 25608, Note_on_c, 1, 69, 0
3, 25632, Note_on_c, 1, 69, 50
3, 25656, Note_on_c, 1, 69, 0
3, 25680, Note_on_c, 1, 69, 55
3, 25704, Note_on_c, 1, 69, 0
3, 25728, Note_on_c, 1, 69, 50
3, 25752, Note_on_c, 1, 69, 0
3, 25776, Note_on_c, 1, 69, 50
3, 25800, Note_on_c, 1, 69, 0
3, 25824, Note_on_c, 1, 74, 55
3, 25848, Note_on_c, 1, 74, 0
3, 25872, Note_on_c, 1, 72, 50
3, 25896, Note_on_c, 1, 72, 0
3, 25920, Note_on_c, 1, 68, 50
3, 25944, Note_on_c, 1, 68, 0
3, 25968, Note_on_c, 1, 69, 55
3, 25992, Note_on_c, 1, 69, 0
3, 26016, Note_on_c, 1, 68, 50
3, 26040, Note_on_c, 1, 68, 0
3, 26064, Note_on_c, 1, 69, 50
3, 26088, Note_on_c, 1, 69, 0
3, 26112, Note_on_c, 1, 59, 55
3, 26136, Note_on_c, 1, 59, 0
3, 26160, Note_on_c, 1, 60, 50
3, 26184, Note_on_c, 1, 60, 0
3, 26208, Note_on_c, 1, 56, 50
3, 26232, Note_on_c, 1, 56, 0
3, 26256, Note_on_c, 1, 64, 55
3, 26280, Note_on_c, 1, 64, 0
3, 26304, Note_on_c, 1, 62, 50
3, 26328, Note_on_c, 1, 62, 0
3, 26352, Note_on_c, 1, 60, 50
3, 26376, Note_on_c, 1, 60, 0
3, 26400, Note_on_c, 1, 70, 55
3, 26424, Note_on_c, 1, 70, 0
3, 26448, Note_on_c, 1, 69, 50
3, 26472, Note_on_c, 1, 69, 0
3, 26496, Note_on_c, 1, 67, 50
3, 26520, Note_on_c, 1, 67, 0
3, 26544, Note_on_c, 1, 65, 55
3, 26568, Note_on_c, 1, 65, 0
3, 26592, Note_on_c, 1, 64, 50
3, 26616, Note_on_c, 1, 64, 0
3, 26640, Note_on_c, 1, 62, 50
3, 26664, Note_on_c, 1, 62, 0
3, 26688, Note_on_c, 1, 61, 55
3, 26712, Note_on_c, 1, 61, 0
3, 26736, Note_on_c, 1, 62, 50
3, 26760, Note_on_c, 1, 62, 0
3, 26784, Note_on_c, 1, 64, 50
3, 26808, Note_on_c, 1, 64, 0
3, 26832, Note_on_c, 1, 62, 55
3, 26856, Note_on_c, 1, 62, 0
3, 26880, Note_on_c, 1, 61, 50
3, 26904, Note_on_c, 1, 61, 0
3, 26928, Note_on_c, 1, 62, 50
3, 26952, Note_on_c, 1, 62, 0
3, 26976, Note_on_c, 1, 64, 55
3, 27000, Note_on_c, 1, 64, 0
3, 27024, Note_on_c, 1, 65, 51
3, 27048, Note_on_c, 1, 65, 0
3, 27072, Note_on_c, 1, 67, 53
3, 27096, Note_on_c, 1, 67, 0
3, 27120, Note_on_c, 1, 65, 60
3, 27144, Note_on_c, 1, 65, 0
3, 27168, Note_on_c, 1, 64, 56
3, 27192, Note_on_c, 1, 64, 0
3, 27216, Note_on_c, 1, 65, 58
3, 27240, Note_on_c, 1, 65, 0
3, 27264, Note_on_c, 1, 64, 65
3, 27288, Note_on_c, 1, 64, 0
3, 27312, Note_on_c, 1, 65, 61
3, 27336, Note_on_c, 1, 65, 0
3, 27360, Note_on_c, 1, 67, 63
3, 27384, Note_on_c, 1, 67, 0
3, 27408, Note_on_c, 1, 65, 70
3, 27432, Note_on_c, 1, 65, 0
3, 27456, Note_on_c, 1, 64, 66
3, 27480, Note_on_c, 1, 64, 0
3, 27504, Note_on_c, 1, 65, 68
3, 27528, Note_on_c, 1, 65, 0
3, 27552, Note_on_c, 1, 64, 75
3, 27576, Note_on_c, 1, 64, 0
3, 27600, Note_on_c, 1, 65, 71
3, 27624, Note_on_c, 1, 65, 0
3, 27648, Note_on_c, 1, 67, 73
3, 27672, Note_on_c, 1, 67, 0
3, 27696, Note_on_c, 1, 65, 80
3, 27720, Note_on_c, 1, 65, 0
3, 27744, Note_on_c, 1, 64, 77
3, 27768, Note_on_c, 1, 64, 0
3, 27792, Note_on_c, 1, 65, 78
3, 27816, Note_on_c, 1, 65, 0
3, 27840, Note_on_c, 1, 73, 85
3, 27864, Note_on_c, 1, 73, 0
3, 27888, Note_on_c, 1, 74, 82
3, 27912, Note_on_c, 1, 74, 0
3, 27936, Note_on_c, 1, 76, 83
3, 27960, Note_on_c, 1, 76, 0
3, 27984, Note_on_c, 1, 74, 90
3, 28008, Note_on_c, 1, 74, 0
3, 28032, Note_on_c, 1, 73, 87
3, 28056, Note_on_c, 1, 73, 0
3, 28080, Note_on_c, 1, 74, 88
3, 28104, Note_on_c, 1, 74, 0
3, 28128, Note_on_c, 1, 73, 95
3, 28152, Note_on_c, 1, 73, 0
3, 28176, Note_on_c, 1, 74, 92
3, 28200, Note_on_c, 1, 74, 0
3, 28224, Note_on_c, 1, 76, 93
3, 28248, Note_on_c, 1, 76, 0
3, 28272, Note_on_c, 1, 74, 100
3, 28296, Note_on_c, 1, 74, 0
3, 28320, Note_on_c, 1, 73, 97
3, 28344, Note_on_c, 1, 73, 0
3, 28368, Note_on_c, 1, 74, 98
3, 28392, Note_on_c, 1, 74, 0
3, 28416, Note_on_c, 1, 64, 105
3, 28416, Note_on_c, 1, 73, 105
3, 28440, Note_on_c, 1, 73, 0
3, 28440, Note_on_c, 1, 64, 0
3, 28464, Note_on_c, 1, 74, 102
3, 28488, Note_on_c, 1, 74, 0
3, 28512, Note_on_c, 1, 76, 104
3, 28536, Note_on_c, 1, 76, 0
3, 28560, Note_on_c, 1, 64, 110
3, 28560, Note_on_c, 1, 76, 110
3, 28584, Note_on_c, 1, 76, 0
3, 28584, Note_on_c, 1, 64, 0
3, 28608, Note_on_c, 1, 77, 107
3, 28632, Note_on_c, 1, 77, 0
3, 28656, Note_on_c, 1, 79, 109
3, 28680, Note_on_c, 1, 79, 0
3, 28704, Note_on_c, 1, 62, 102
3, 28705, Note_on_c, 1, 69, 106
3, 28708, Note_on_c, 1, 81, 115
3, 28728, Note_on_c, 1, 62, 0
3, 28729, Note_on_c, 1, 69, 0
3, 28732, Note_on_c, 1, 81, 0
3, 28774, Note_on_c, 1, 69, 110
3, 28786, Note_on_c, 1, 69, 0
3, 28798, Note_on_c, 1, 69, 110
3, 28822, Note_on_c, 1, 69, 0
3, 28846, Note_on_c, 1, 74, 115
3, 28870, Note_on_c, 1, 74, 0
3, 28894, Note_on_c, 1, 76, 110
3, 28918, Note_on_c, 1, 76, 0
3, 28942, Note_on_c, 1, 77, 110
3, 28966, Note_on_c, 1, 77, 0
3, 28990, Note_on_c, 1, 76, 115
3, 29014, Note_on_c, 1, 76, 0
3, 29038, Note_on_c, 1, 77, 110
3, 29062, Note_on_c, 1, 77, 0
3, 29086, Note_on_c, 1, 79, 110
3, 29110, Note_on_c, 1, 79, 0
3, 29134, Note_on_c, 1, 77, 115
3, 29158, Note_on_c, 1, 77, 0
3, 29182, Note_on_c, 1, 76, 110
3, 29206, Note_on_c, 1, 76, 0
3, 29230, Note_on_c, 1, 74, 110
3, 29254, Note_on_c, 1, 74, 0
3, 29278, Note_on_c, 1, 82, 115
3, 29302, Note_on_c, 1, 82, 0
3, 29326, Note_on_c, 1, 81, 110
3, 29350, Note_on_c, 1, 81, 0
3, 29374, Note_on_c, 1, 79, 110
3, 29398, Note_on_c, 1, 79, 0
3, 29422, Note_on_c, 1, 77, 115
3, 29446, Note_on_c, 1, 77, 0
3, 29470, Note_on_c, 1, 76, 110
3, 29494, Note_on_c, 1, 76, 0
3, 29518, Note_on_c, 1, 74, 110
3, 29542, Note_on_c, 1, 74, 0
3, 29566, Note_on_c, 1, 73, 115
3, 29590, Note_on_c, 1, 73, 0
3, 29614, Note_on_c, 1, 74, 110
3, 29638, Note_on_c, 1, 74, 0
3, 29662, Note_on_c, 1, 76, 110
3, 29686, Note_on_c, 1, 76, 0
3, 29710, Note_on_c, 1, 74, 115
3, 29734, Note_on_c, 1, 74, 0
3, 29758, Note_on_c, 1, 73, 110
3, 29782, Note_on_c, 1, 73, 0
3, 29806, Note_on_c, 1, 74, 110
3, 29830, Note_on_c, 1, 74, 0
3, 29854, Note_on_c, 1, 82, 115
3, 29878, Note_on_c, 1, 82, 0
3, 29902, Note_on_c, 1, 81, 110
3, 29926, Note_on_c, 1, 81, 0
3, 29950, Note_on_c, 1, 79, 110
3, 29974, Note_on_c, 1, 79, 0
3, 29998, Note_on_c, 1, 77, 115
3, 30022, Note_on_c, 1, 77, 0
3, 30046, Note_on_c, 1, 76, 110
3, 30070, Note_on_c, 1, 76, 0
3, 30094, Note_on_c, 1, 74, 110
3, 30118, Note_on_c, 1, 74, 0
3, 30142, Note_on_c, 1, 73, 115
3, 30166, Note_on_c, 1, 73, 0
3, 30190, Note_on_c, 1, 74, 110
3, 30214, Note_on_c, 1, 74, 0
3, 30238, Note_on_c, 1, 76, 110
3, 30262, Note_on_c, 1, 76, 0
3, 30286, Note_on_c, 1, 74, 115
3, 30310, Note_on_c, 1, 74, 0
3, 30334, Note_on_c, 1, 73, 110
3, 30358, Note_on_c, 1, 73, 0
3, 30382, Note_on_c, 1, 74, 110
3, 30406, Note_on_c, 1, 74, 0
3, 30430, Note_on_c, 1, 81, 115
3, 30454, Note_on_c, 1, 81, 0
3, 30478, Note_on_c, 1, 79, 110
3, 30502, Note_on_c, 1, 79, 0
3, 30526, Note_on_c, 1, 77, 110
3, 30550, Note_on_c, 1, 77, 0
3, 30574, Note_on_c, 1, 76, 115
3, 30598, Note_on_c, 1, 76, 0
3, 30622, Note_on_c, 1, 74, 110
3, 30646, Note_on_c, 1, 74, 0
3, 30670, Note_on_c, 1, 72, 110
3, 30694, Note_on_c, 1, 72, 0
3, 30718, Note_on_c, 1, 71, 115
3, 30742, Note_on_c, 1, 71, 0
3, 30766, Note_on_c, 1, 72, 110
3, 30790, Note_on_c, 1, 72, 0
3, 30814, Note_on_c, 1, 74, 110
3, 30838, Note_on_c, 1, 74, 0
3, 30862, Note_on_c, 1, 72, 110
3, 30886, Note_on_c, 1, 72, 0
3, 30910, Note_on_c, 1, 81, 118
3, 30934, Note_on_c, 1, 81, 0
3, 30958, Note_on_c, 1, 81, 118
3, 30982, Note_on_c, 1, 81, 0
3, 31006, Note_on_c, 1, 81, 115
3, 31030, Note_on_c, 1, 81, 0
3, 31054, Note_on_c, 1, 79, 110
3, 31078, Note_on_c, 1, 79, 0
3, 31102, Note_on_c, 1, 77, 110
3, 31126, Note_on_c, 1, 77, 0
3, 31150, Note_on_c, 1, 76, 115
3, 31174, Note_on_c, 1, 76, 0
3, 31198, Note_on_c, 1, 74, 110
3, 31222, Note_on_c, 1, 74, 0
3, 31246, Note_on_c, 1, 72, 110
3, 31270, Note_on_c, 1, 72, 0
3, 31294, Note_on_c, 1, 79, 115
3, 31318, Note_on_c, 1, 79, 0
3, 31342, Note_on_c, 1, 77, 110
3, 31366, Note_on_c, 1, 77, 0
3, 31390, Note_on_c, 1, 76, 110
3, 31414, Note_on_c, 1, 76, 0
3, 31438, Note_on_c, 1, 88, 115
3, 31462, Note_on_c, 1, 88, 0
3, 31486, Note_on_c, 1, 86, 110
3, 31510, Note_on_c, 1, 86, 0
3, 31534, Note_on_c, 1, 84, 110
3, 31558, Note_on_c, 1, 84, 0
3, 31584, Note_on_c, 1, 79, 110
3, 31619, Note_on_c, 1, 79, 0
3, 31656, Note_on_c, 1, 67, 60
3, 31668, Note_on_c, 1, 67, 0
3, 31680, Note_on_c, 1, 67, 60
3, 31704, Note_on_c, 1, 67, 0
3, 31728, Note_on_c, 1, 79, 60
3, 31763, Note_on_c, 1, 79, 0
3, 31800, Note_on_c, 1, 67, 64
3, 31812, Note_on_c, 1, 67, 0
3, 31824, Note_on_c, 1, 67, 66
3, 31848, Note_on_c, 1, 67, 0
3, 31872, Note_on_c, 1, 79, 69
3, 31907, Note_on_c, 1, 79, 0
3, 31944, Note_on_c, 1, 67, 74
3, 31956, Note_on_c, 1, 67, 0
3, 31968, Note_on_c, 1, 67, 76
3, 31992, Note_on_c, 1, 67, 0
3, 32016, Note_on_c, 1, 77, 79
3, 32051, Note_on_c, 1, 77, 0
3, 32088, Note_on_c, 1, 65, 84
3, 32100, Note_on_c, 1, 65, 0
3, 32112, Note_on_c, 1, 65, 85
3, 32136, Note_on_c, 1, 65, 0
3, 32160, Note_on_c, 1, 77, 89
3, 32195, Note_on_c, 1, 77, 0
3, 32232, Note_on_c, 1, 65, 93
3, 32244, Note_on_c, 1, 65, 0
3, 32256, Note_on_c, 1, 65, 95
3, 32280, Note_on_c, 1, 65, 0
3, 32304, Note_on_c, 1, 76, 100
3, 32339, Note_on_c, 1, 76, 0
3, 32376, Note_on_c, 1, 64, 93
3, 32388, Note_on_c, 1, 64, 0
3, 32400, Note_on_c, 1, 64, 91
3, 32424, Note_on_c, 1, 64, 0
3, 32448, Note_on_c, 1, 75, 86
3, 32483, Note_on_c, 1, 75, 0
3, 32520, Note_on_c, 1, 63, 78
3, 32532, Note_on_c, 1, 63, 0
3, 32544, Note_on_c, 1, 63, 76
3, 32568, Note_on_c, 1, 63, 0
3, 32592, Note_on_c, 1, 74, 71
3, 32627, Note_on_c, 1, 74, 0
3, 32664, Note_on_c, 1, 62, 64
3, 32676, Note_on_c, 1, 62, 0
3, 32688, Note_on_c, 1, 62, 61
3, 32712, Note_on_c, 1, 62, 0
3, 33024, Note_on_c, 1, 69, 60
3, 33059, Note_on_c, 1, 69, 0
3, 33096, Note_on_c, 1, 57, 64
3, 33108, Note_on_c, 1, 57, 0
3, 33120, Note_on_c, 1, 57, 66
3, 33144, Note_on_c, 1, 57, 0
3, 33168, Note_on_c, 1, 69, 69
3, 33203, Note_on_c, 1, 69, 0
3, 33240, Note_on_c, 1, 57, 73
3, 33252, Note_on_c, 1, 57, 0
3, 33264, Note_on_c, 1, 57, 75
3, 33288, Note_on_c, 1, 57, 0
3, 33312, Note_on_c, 1, 68, 78
3, 33347, Note_on_c, 1, 68, 0
3, 33384, Note_on_c, 1, 56, 82
3, 33396, Note_on_c, 1, 56, 0
3, 33408, Note_on_c, 1, 56, 84
3, 33432, Note_on_c, 1, 56, 0
3, 33456, Note_on_c, 1, 67, 87
3, 33491, Note_on_c, 1, 67, 0
3, 33528, Note_on_c, 1, 55, 91
3, 33540, Note_on_c, 1, 55, 0
3, 33552, Note_on_c, 1, 55, 93
3, 33576, Note_on_c, 1, 55, 0
3, 33600, Note_on_c, 1, 67, 96
3, 33635, Note_on_c, 1, 67, 0
3, 33672, Note_on_c, 1, 55, 101
3, 33684, Note_on_c, 1, 55, 0
3, 33696, Note_on_c, 1, 55, 102
3, 33720, Note_on_c, 1, 55, 0
3, 33744, Note_on_c, 1, 67, 105
3, 33779, Note_on_c, 1, 67, 0
3, 33816, Note_on_c, 1, 55, 110
3, 33828, Note_on_c, 1, 55, 0
3, 33840, Note_on_c, 1, 55, 111
3, 33864, Note_on_c, 1, 55, 0
3, 33888, Note_on_c, 1, 72, 120
3, 33923, Note_on_c, 1, 72, 0
3, 33960, Note_on_c, 1, 60, 113
3, 33972, Note_on_c, 1, 60, 0
3, 33984, Note_on_c, 1, 60, 113
3, 34008, Note_on_c, 1, 60, 0
3, 34032, Note_on_c, 1, 72, 120
3, 34067, Note_on_c, 1, 72, 0
3, 34104, Note_on_c, 1, 60, 113
3, 34116, Note_on_c, 1, 60, 0
3, 34128, Note_on_c, 1, 60, 113
3, 34152, Note_on_c, 1, 60, 0
3, 34176, Note_on_c, 1, 72, 120
3, 34211, Note_on_c, 1, 72, 0
3, 34248, Note_on_c, 1, 60, 113
3, 34260, Note_on_c, 1, 60, 0
3, 34272, Note_on_c, 1, 60, 113
3, 34296, Note_on_c, 1, 60, 0
3, 34320, Note_on_c, 1, 72, 120
3, 34355, Note_on_c, 1, 72, 0
3, 34392, Note_on_c, 1, 60, 113
3, 34404, Note_on_c, 1, 60, 0
3, 34416, Note_on_c, 1, 60, 113
3, 34440, Note_on_c, 1, 60, 0
3, 34464, Note_on_c, 1, 72, 120
3, 34499, Note_on_c, 1, 72, 0
3, 34536, Note_on_c, 1, 60, 113
3, 34548, Note_on_c, 1, 60, 0
3, 34560, Note_on_c, 1, 60, 113
3, 34584, Note_on_c, 1, 60, 0
3, 34608, Note_on_c, 1, 72, 120
3, 34643, Note_on_c, 1, 72, 0
3, 34680, Note_on_c, 1, 60, 113
3, 34692, Note_on_c, 1, 60, 0
3, 34704, Note_on_c, 1, 60, 113
3, 34728, Note_on_c, 1, 60, 0
3, 34752, Note_on_c, 1, 72, 120
3, 34787, Note_on_c, 1, 72, 0
3, 34824, Note_on_c, 1, 60, 113
3, 34836, Note_on_c, 1, 60, 0
3, 34848, Note_on_c, 1, 60, 113
3, 34872, Note_on_c, 1, 60, 0
3, 34896, Note_on_c, 1, 72, 120
3, 34931, Note_on_c, 1, 72, 0
3, 34968, Note_on_c, 1, 60, 113
3, 34980, Note_on_c, 1, 60, 0
3, 34992, Note_on_c, 1, 60, 113
3, 35016, Note_on_c, 1, 60, 0
3, 35040, Note_on_c, 1, 72, 120
3, 35075, Note_on_c, 1, 72, 0
3, 35112, Note_on_c, 1, 60, 113
3, 35124, Note_on_c, 1, 60, 0
3, 35136, Note_on_c, 1, 60, 113
3, 35160, Note_on_c, 1, 60, 0
3, 35184, Note_on_c, 1, 72, 120
3, 35219, Note_on_c, 1, 72, 0
3, 35256, Note_on_c, 1, 60, 113
3, 35268, Note_on_c, 1, 60, 0
3, 35280, Note_on_c, 1, 60, 113
3, 35304, Note_on_c, 1, 60, 0
3, 35328, Note_on_c, 1, 72, 120
3, 35363, Note_on_c, 1, 72, 0
3, 35400, Note_on_c, 1, 60, 113
3, 35412, Note_on_c, 1, 60, 0
3, 35424, Note_on_c, 1, 60, 113
3, 35448, Note_on_c, 1, 60, 0
3, 35472, Note_on_c, 1, 72, 120
3, 35507, Note_on_c, 1, 72, 0
3, 35544, Note_on_c, 1, 60, 113
3, 35556, Note_on_c, 1, 60, 0
3, 35568, Note_on_c, 1, 60, 113
3, 35592, Note_on_c, 1, 60, 0
3, 35616, Note_on_c, 1, 72, 120
3, 35651, Note_on_c, 1, 72, 0
3, 35688, Note_on_c, 1, 60, 113
3, 35700, Note_on_c, 1, 60, 0
3, 35712, Note_on_c, 1, 60, 113
3, 35736, Note_on_c, 1, 60, 0
3, 35760, Note_on_c, 1, 72, 120
3, 35795, Note_on_c, 1, 72, 0
3, 35832, Note_on_c, 1, 60, 113
3, 35844, Note_on_c, 1, 60, 0
3, 35856, Note_on_c, 1, 60, 113
3, 35880, Note_on_c, 1, 60, 0
3, 35904, Note_on_c, 1, 72, 120
3, 35939, Note_on_c, 1, 72, 0
3, 35976, Note_on_c, 1, 60, 113
3, 35988, Note_on_c, 1, 60, 0
3, 36000, Note_on_c, 1, 60, 113
3, 36024, Note_on_c, 1, 60, 0
3, 36048, Note_on_c, 1, 72, 120
3, 36083, Note_on_c, 1, 72, 0
3, 36120, Note_on_c, 1, 60, 113
3, 36132, Note_on_c, 1, 60, 0
3, 36144, Note_on_c, 1, 60, 113
3, 36168, Note_on_c, 1, 60, 0
3, 36192, Note_on_c, 1, 72, 113
3, 36216, Note_on_c, 1, 72, 0
3, 36480, Note_on_c, 1, 69, 120
3, 36515, Note_on_c, 1, 69, 0
3, 36552, Note_on_c, 1, 57, 113
3, 36564, Note_on_c, 1, 57, 0
3, 36576, Note_on_c, 1, 57, 113
3, 36600, Note_on_c, 1, 57, 0
3, 36624, Note_on_c, 1, 69, 117
3, 36648, Note_on_c, 1, 69, 0
3, 36672, Note_on_c, 1, 65, 113
3, 36696, Note_on_c, 1, 65, 0
3, 36720, Note_on_c, 1, 64, 113
3, 36744, Note_on_c, 1, 64, 0
3, 36768, Note_on_c, 1, 62, 113
3, 36792, Note_on_c, 1, 62, 0
3, 37056, Note_on_c, 1, 67, 120
3, 37091, Note_on_c, 1, 67, 0
3, 37128, Note_on_c, 1, 55, 113
3, 37140, Note_on_c, 1, 55, 0
3, 37152, Note_on_c, 1, 55, 113
3, 37176, Note_on_c, 1, 55, 0
3, 37200, Note_on_c, 1, 67, 117
3, 37224, Note_on_c, 1, 67, 0
3, 37248, Note_on_c, 1, 64, 113
3, 37272, Note_on_c, 1, 64, 0
3, 37296, Note_on_c, 1, 62, 113
3, 37320, Note_on_c, 1, 62, 0
3, 37344, Control_c, 1, 11, 60
3, 37344, Control_c, 1, 6, 64
3, 37344, Note_on_c, 1, 55, 113
3, 37392, Note_on_c, 1, 65, 113
3, 37440, Note_on_c, 1, 65, 0
3, 37440, Note_on_c, 1, 64, 113
3, 37536, Note_on_c, 1, 64, 0
3, 37536, Note_on_c, 1, 65, 113
3, 37584, Note_on_c, 1, 65, 0
3, 37584, Note_on_c, 1, 67, 113
3, 37632, Note_on_c, 1, 67, 0
3, 37632, Control_c, 1, 11, 60
3, 37632, Note_on_c, 1, 65, 113
3, 37647, Control_c, 1, 11, 61
3, 37661, Control_c, 1, 11, 62
3, 37676, Control_c, 1, 11, 63
3, 37680, Note_on_c, 1, 65, 0
3, 37680, Note_on_c, 1, 55, 0
3, 37680, Note_on_c, 1, 64, 113
3, 37690, Control_c, 1, 11, 64
3, 37704, Control_c, 1, 11, 65
3, 37719, Control_c, 1, 11, 66
3, 37728, Note_on_c, 1, 64, 0
3, 37728, Note_on_c, 1, 65, 113
3, 37733, Control_c, 1, 11, 67
3, 37747, Control_c, 1, 11, 68
3, 37762, Control_c, 1, 11, 69
3, 37776, Note_on_c, 1, 65, 0
3, 37776, Note_on_c, 1, 67, 113
3, 37776, Control_c, 1, 11, 70
3, 37790, Control_c, 1, 11, 71
3, 37805, Control_c, 1, 11, 72
3, 37819, Control_c, 1, 11, 73
3, 37824, Note_on_c, 1, 67, 0
3, 37824, Note_on_c, 1, 60, 113
3, 37833, Control_c, 1, 11, 74
3, 37848, Control_c, 1, 11, 75
3, 37862, Control_c, 1, 11, 76
3, 37872, Note_on_c, 1, 60, 0
3, 37872, Note_on_c, 1, 76, 113
3, 37876, Control_c, 1, 11, 77
3, 37891, Control_c, 1, 11, 78
3, 37905, Control_c, 1, 11, 79
3, 37919, Control_c, 1, 11, 80
3, 37920, Control_c, 1, 11, 80
3, 37935, Control_c, 1, 11, 79
3, 37949, Control_c, 1, 11, 78
3, 37964, Control_c, 1, 11, 77
3, 37978, Control_c, 1, 11, 76
3, 37992, Control_c, 1, 11, 75
3, 38007, Control_c, 1, 11, 74
3, 38016, Note_on_c, 1, 76, 0
3, 38016, Note_on_c, 1, 60, 113
3, 38021, Control_c, 1, 11, 73
3, 38035, Control_c, 1, 11, 72
3, 38050, Control_c, 1, 11, 71
3, 38064, Control_c, 1, 11, 70
3, 38078, Control_c, 1, 11, 69
3, 38093, Control_c, 1, 11, 68
3, 38107, Control_c, 1, 11, 67
3, 38112, Note_on_c, 1, 60, 0
3, 38112, Note_on_c, 1, 62, 113
3, 38121, Control_c, 1, 11, 66
3, 38136, Control_c, 1, 11, 65
3, 38150, Control_c, 1, 11, 64
3, 38160, Note_on_c, 1, 62, 0
3, 38160, Note_on_c, 1, 64, 113
3, 38164, Control_c, 1, 11, 63
3, 38179, Control_c, 1, 11, 62
3, 38193, Control_c, 1, 11, 61
3, 38207, Control_c, 1, 11, 60
3, 38208, Note_on_c, 1, 64, 0
3, 39072, Control_c, 1, 11, 120
3, 39072, Control_c, 1, 6, 14
3, 39072, Note_on_c, 1, 76, 105
3, 39096, Note_on_c, 1, 76, 0
3, 39120, Note_on_c, 1, 64, 100
3, 39144, Note_on_c, 1, 64, 0
3, 39168, Note_on_c, 1, 81, 100
3, 39192, Note_on_c, 1, 81, 0
3, 39216, Note_on_c, 1, 81, 105
3, 39240, Note_on_c, 1, 81, 0
3, 39264, Note_on_c, 1, 79, 100
3, 39288, Note_on_c, 1, 79, 0
3, 39312, Note_on_c, 1, 72, 100
3, 39312, Note_on_c, 1, 76, 100
3, 39336, Note_on_c, 1, 76, 0
3, 39336, Note_on_c, 1, 72, 0
3, 39360, Note_on_c, 1, 72, 105
3, 39360, Note_on_c, 1, 76, 105
3, 39384, Note_on_c, 1, 76, 0
3, 39384, Note_on_c, 1, 72, 0
3, 39648, Note_on_c, 1, 76, 105
3, 39672, Note_on_c, 1, 76, 0
3, 39696, Note_on_c, 1, 72, 100
3, 39720, Note_on_c, 1, 72, 0
3, 39744, Note_on_c, 1, 77, 100
3, 39768, Note_on_c, 1, 77, 0
3, 39792, Note_on_c, 1, 74, 105
3, 39816, Note_on_c, 1, 74, 0
3, 39840, Note_on_c, 1, 71, 100
3, 39864, Note_on_c, 1, 71, 0
3, 39888, Note_on_c, 1, 76, 100
3, 39912, Note_on_c, 1, 76, 0
3, 39936, Note_on_c, 1, 60, 103
3, 39938, Note_on_c, 1, 67, 105
3, 39940, Note_on_c, 1, 76, 107
3, 39971, Note_on_c, 1, 60, 0
3, 39973, Note_on_c, 1, 67, 0
3, 39975, Note_on_c, 1, 76, 0
3, 40008, Note_on_c, 1, 72, 100
3, 40020, Note_on_c, 1, 72, 0
3, 40032, Note_on_c, 1, 72, 100
3, 40056, Note_on_c, 1, 72, 0
3, 40080, Note_on_c, 1, 67, 95
3, 40104, Note_on_c, 1, 67, 0
3, 40224, Note_on_c, 1, 72, 107
3, 40259, Note_on_c, 1, 72, 0
3, 40296, Note_on_c, 1, 60, 100
3, 40308, Note_on_c, 1, 60, 0
3, 40320, Note_on_c, 1, 60, 100
3, 40344, Note_on_c, 1, 60, 0
3, 40368, Note_on_c, 1, 55, 100
3, 40392, Note_on_c, 1, 55, 0
3, 40506, Control_c, 1, 6, 64
3, 40512, Note_on_c, 1, 65, 57
3, 40560, Note_on_c, 1, 65, 0
3, 40560, Note_on_c, 1, 64, 56
3, 40608, Note_on_c, 1, 64, 0
3, 40608, Note_on_c, 1, 62, 54
3, 40656, Note_on_c, 1, 62, 0
3, 40656, Note_on_c, 1, 60, 53
3, 40704, Note_on_c, 1, 60, 0
3, 40704, Note_on_c, 1, 59, 51
3, 40752, Note_on_c, 1, 59, 0
3, 40752, Note_on_c, 1, 57, 50
3, 40800, Note_on_c, 1, 57, 0
3, 40800, Note_on_c, 1, 55, 49
3, 40848, Note_on_c, 1, 55, 0
3, 40848, Note_on_c, 1, 57, 51
3, 40896, Note_on_c, 1, 57, 0
3, 40896, Note_on_c, 1, 55, 49
3, 41087, Note_on_c, 1, 55, 0
3, 41088, Control_c, 1, 6, 14
3, 41088, Note_on_c, 1, 55, 60
3, 41088, Note_on_c, 1, 64, 60
3, 41123, Note_on_c, 1, 64, 0
3, 41123, Note_on_c, 1, 55, 0
3, 41160, Note_on_c, 1, 67, 50
3, 41172, Note_on_c, 1, 67, 0
3, 41184, Note_on_c, 1, 67, 50
3, 41208, Note_on_c, 1, 67, 0
3, 41232, Note_on_c, 1, 69, 53
3, 41256, Note_on_c, 1, 69, 0
3, 41376, Note_on_c, 1, 69, 60
3, 41411, Note_on_c, 1, 69, 0
3, 41448, Note_on_c, 1, 69, 50
3, 41460, Note_on_c, 1, 69, 0
3, 41472, Note_on_c, 1, 69, 50
3, 41496, Note_on_c, 1, 69, 0
3, 41520, Note_on_c, 1, 69, 55
3, 41544, Note_on_c, 1, 69, 0
3, 42240, Note_on_c, 1, 57, 60
3, 42275, Note_on_c, 1, 57, 0
3, 42312, Note_on_c, 1, 69, 50
3, 42324, Note_on_c, 1, 69, 0
3, 42336, Note_on_c, 1, 69, 50
3, 42360, Note_on_c, 1, 69, 0
3, 42384, Note_on_c, 1, 70, 55
3, 42408, Note_on_c, 1, 70, 0
3, 42528, Note_on_c, 1, 58, 60
3, 42563, Note_on_c, 1, 58, 0
3, 42600, Note_on_c, 1, 70, 50
3, 42612, Note_on_c, 1, 70, 0
3, 42624, Note_on_c, 1, 70, 50
3, 42648, Note_on_c, 1, 70, 0
3, 42672, Note_on_c, 1, 70, 55
3, 42696, Note_on_c, 1, 70, 0
3, 43392, Note_on_c, 1, 58, 70
3, 43427, Note_on_c, 1, 58, 0
3, 43464, Note_on_c, 1, 70, 61
3, 43476, Note_on_c, 1, 70, 0
3, 43488, Note_on_c, 1, 70, 61
3, 43512, Note_on_c, 1, 70, 0
3, 43536, Note_on_c, 1, 72, 62
3, 43560, Note_on_c, 1, 72, 0
3, 43680, Note_on_c, 1, 60, 75
3, 43715, Note_on_c, 1, 60, 0
3, 43752, Note_on_c, 1, 72, 67
3, 43764, Note_on_c, 1, 72, 0
3, 43776, Note_on_c, 1, 72, 67
3, 43800, Note_on_c, 1, 72, 0
3, 43824, Note_on_c, 1, 68, 68
3, 43848, Note_on_c, 1, 68, 0
3, 43968, Note_on_c, 1, 68, 80
3, 44003, Note_on_c, 1, 68, 0
3, 44040, Note_on_c, 1, 65, 72
3, 44052, Note_on_c, 1, 65, 0
3, 44064, Note_on_c, 1, 65, 73
3, 44088, Note_on_c, 1, 65, 0
3, 44112, Note_on_c, 1, 70, 74
3, 44136, Note_on_c, 1, 70, 0
3, 44256, Note_on_c, 1, 61, 86
3, 44291, Note_on_c, 1, 61, 0
3, 44328, Note_on_c, 1, 70, 78
3, 44340, Note_on_c, 1, 70, 0
3, 44352, Note_on_c, 1, 70, 78
3, 44376, Note_on_c, 1, 70, 0
3, 44400, Note_on_c, 1, 70, 79
3, 44424, Note_on_c, 1, 70, 0
3, 44544, Note_on_c, 1, 75, 92
3, 44579, Note_on_c, 1, 75, 0
3, 44616, Note_on_c, 1, 63, 83
3, 44628, Note_on_c, 1, 63, 0
3, 44640, Note_on_c, 1, 63, 84
3, 44664, Note_on_c, 1, 63, 0
3, 44688, Note_on_c, 1, 63, 85
3, 44712, Note_on_c, 1, 63, 0
3, 44832, Note_on_c, 1, 64, 98
3, 44867, Note_on_c, 1, 64, 0
3, 44904, Note_on_c, 1, 71, 89
3, 44916, Note_on_c, 1, 71, 0
3, 44928, Note_on_c, 1, 71, 90
3, 44952, Note_on_c, 1, 71, 0
3, 44976, Note_on_c, 1, 73, 90
3, 45000, Note_on_c, 1, 73, 0
3, 45120, Note_on_c, 1, 57, 110
3, 45155, Note_on_c, 1, 57, 0
3, 45192, Note_on_c, 1, 69, 100
3, 45204, Note_on_c, 1, 69, 0
3, 45216, Note_on_c, 1, 69, 100
3, 45240, Note_on_c, 1, 69, 0
3, 45408, Note_on_c, 1, 58, 119
3, 45443, Note_on_c, 1, 58, 0
3, 45480, Note_on_c, 1, 70, 113
3, 45492, Note_on_c, 1, 70, 0
3, 45504, Note_on_c, 1, 70, 113
3, 45528, Note_on_c, 1, 70, 0
3, 45696, Note_on_c, 1, 59, 120
3, 45731, Note_on_c, 1, 59, 0
3, 45768, Note_on_c, 1, 71, 113
3, 45780, Note_on_c, 1, 71, 0
3, 45792, Note_on_c, 1, 71, 113
3, 45816, Note_on_c, 1, 71, 0
3, 46032, Program_c, 1, 45
3, 46032, Control_c, 1, 7, 105
3, 46178, Note_on_c, 1, 64, 60
3, 46202, Note_on_c, 1, 64, 0
3, 46322, Note_on_c, 1, 59, 57
3, 46346, Note_on_c, 1, 59, 0
3, 46608, Note_on_c, 1, 64, 60
3, 46632, Note_on_c, 1, 64, 0
3, 46752, Note_on_c, 1, 59, 57
3, 46776, Note_on_c, 1, 59, 0
3, 47040, Note_on_c, 1, 64, 60
3, 47064, Note_on_c, 1, 64, 0
3, 47184, Note_on_c, 1, 59, 57
3, 47208, Note_on_c, 1, 59, 0
3, 47472, Note_on_c, 1, 76, 60
3, 47496, Note_on_c, 1, 76, 0
3, 47616, Note_on_c, 1, 64, 57
3, 47640, Note_on_c, 1, 64, 0
3, 47904, Note_on_c, 1, 69, 60
3, 47928, Note_on_c, 1, 69, 0
3, 48048, Note_on_c, 1, 64, 57
3, 48072, Note_on_c, 1, 64, 0
3, 48336, Note_on_c, 1, 69, 60
3, 48360, Note_on_c, 1, 69, 0
3, 48480, Note_on_c, 1, 64, 57
3, 48504, Note_on_c, 1, 64, 0
3, 48768, Note_on_c, 1, 65, 60
3, 48792, Note_on_c, 1, 65, 0
3, 48912, Note_on_c, 1, 65, 57
3, 48936, Note_on_c, 1, 65, 0
3, 49200, Note_on_c, 1, 65, 60
3, 49224, Note_on_c, 1, 65, 0
3, 49344, Note_on_c, 1, 65, 57
3, 49368, Note_on_c, 1, 65, 0
3, 49632, Note_on_c, 1, 65, 60
3, 49656, Note_on_c, 1, 65, 0
3, 49776, Note_on_c, 1, 65, 57
3, 49800, Note_on_c, 1, 65, 0
3, 50064, Note_on_c, 1, 65, 60
3, 50088, Note_on_c, 1, 65, 0
3, 50208, Note_on_c, 1, 65, 57
3, 50232, Note_on_c, 1, 65, 0
3, 50352, Note_on_c, 1, 65, 60
3, 50376, Note_on_c, 1, 65, 0
3, 50496, Note_on_c, 1, 65, 60
3, 50520, Note_on_c, 1, 65, 0
3, 50640, Note_on_c, 1, 65, 58
3, 50664, Note_on_c, 1, 65, 0
3, 50784, Program_c, 1, 48
3, 50784, Control_c, 1, 7, 123
3, 50784, Note_on_c, 1, 67, 55
3, 50808, Note_on_c, 1, 67, 0
3, 50832, Note_on_c, 1, 69, 50
3, 50856, Note_on_c, 1, 69, 0
3, 50880, Note_on_c, 1, 70, 50
3, 50904, Note_on_c, 1, 70, 0
3, 50928, Note_on_c, 1, 70, 55
3, 50952, Note_on_c, 1, 70, 0
3, 50976, Note_on_c, 1, 69, 50
3, 51000, Note_on_c, 1, 69, 0
3, 51024, Note_on_c, 1, 67, 50
3, 51048, Note_on_c, 1, 67, 0
3, 51072, Note_on_c, 1, 67, 55
3, 51096, Note_on_c, 1, 67, 0
3, 51120, Note_on_c, 1, 69, 50
3, 51144, Note_on_c, 1, 69, 0
3, 51168, Note_on_c, 1, 67, 50
3, 51192, Note_on_c, 1, 67, 0
3, 51216, Program_c, 1, 45
3, 51216, Control_c, 1, 7, 105
3, 51216, Note_on_c, 1, 62, 50
3, 51240, Note_on_c, 1, 62, 0
3, 51360, Note_on_c, 1, 62, 47
3, 51384, Note_on_c, 1, 62, 0
3, 51504, Note_on_c, 1, 62, 50
3, 51528, Note_on_c, 1, 62, 0
3, 51648, Program_c, 1, 48
3, 51648, Control_c, 1, 7, 123
3, 51648, Note_on_c, 1, 64, 55
3, 51672, Note_on_c, 1, 64, 0
3, 51696, Note_on_c, 1, 65, 50
3, 51720, Note_on_c, 1, 65, 0
3, 51744, Note_on_c, 1, 67, 50
3, 51768, Note_on_c, 1, 67, 0
3, 51792, Note_on_c, 1, 67, 55
3, 51816, Note_on_c, 1, 67, 0
3, 51840, Note_on_c, 1, 65, 50
3, 51864, Note_on_c, 1, 65, 0
3, 51888, Note_on_c, 1, 64, 50
3, 51912, Note_on_c, 1, 64, 0
3, 51936, Note_on_c, 1, 64, 55
3, 51960, Note_on_c, 1, 64, 0
3, 51984, Note_on_c, 1, 65, 50
3, 52008, Note_on_c, 1, 65, 0
3, 52032, Note_on_c, 1, 64, 50
3, 52056, Note_on_c, 1, 64, 0
3, 52224, Program_c, 1, 45
3, 52224, Control_c, 1, 7, 105
3, 52224, Note_on_c, 1, 57, 50
3, 52248, Note_on_c, 1, 57, 0
3, 52368, Note_on_c, 1, 69, 47
3, 52392, Note_on_c, 1, 69, 0
3, 52512, Program_c, 1, 48
3, 52512, Control_c, 1, 7, 123
3, 52512, Note_on_c, 1, 64, 55
3, 52536, Note_on_c, 1, 64, 0
3, 52560, Note_on_c, 1, 65, 50
3, 52584, Note_on_c, 1, 65, 0
3, 52608, Note_on_c, 1, 67, 50
3, 52632, Note_on_c, 1, 67, 0
3, 52656, Note_on_c, 1, 67, 55
3, 52680, Note_on_c, 1, 67, 0
3, 52704, Note_on_c, 1, 65, 50
3, 52728, Note_on_c, 1, 65, 0
3, 52752, Note_on_c, 1, 64, 50
3, 52776, Note_on_c, 1, 64, 0
3, 52800, Note_on_c, 1, 64, 55
3, 52824, Note_on_c, 1, 64, 0
3, 52848, Note_on_c, 1, 65, 50
3, 52872, Note_on_c, 1, 65, 0
3, 52896, Note_on_c, 1, 64, 50
3, 52920, Note_on_c, 1, 64, 0
3, 52944, Note_on_c, 1, 64, 55
3, 52968, Note_on_c, 1, 64, 0
3, 52992, Note_on_c, 1, 65, 50
3, 53016, Note_on_c, 1, 65, 0
3, 53040, Note_on_c, 1, 67, 50
3, 53064, Note_on_c, 1, 67, 0
3, 53088, Note_on_c, 1, 69, 55
3, 53112, Note_on_c, 1, 69, 0
3, 53232, Program_c, 1, 45
3, 53232, Control_c, 1, 7, 105
3, 53232, Note_on_c, 1, 57, 50
3, 53256, Note_on_c, 1, 57, 0
3, 53520, Note_on_c, 1, 62, 50
3, 53544, Note_on_c, 1, 62, 0
3, 53664, Note_on_c, 1, 57, 47
3, 53688, Note_on_c, 1, 57, 0
3, 53952, Note_on_c, 1, 62, 50
3, 53976, Note_on_c, 1, 62, 0
3, 54096, Note_on_c, 1, 57, 47
3, 54120, Note_on_c, 1, 57, 0
3, 54816, Program_c, 1, 48
3, 54816, Control_c, 1, 7, 123
3, 54816, Note_on_c, 1, 79, 60
3, 54851, Note_on_c, 1, 79, 0
3, 54888, Note_on_c, 1, 67, 50
3, 54900, Note_on_c, 1, 67, 0
3, 54912, Note_on_c, 1, 67, 50
3, 54936, Note_on_c, 1, 67, 0
3, 54960, Note_on_c, 1, 72, 55
3, 54984, Note_on_c, 1, 72, 0
3, 55008, Note_on_c, 1, 74, 50
3, 55032, Note_on_c, 1, 74, 0
3, 55056, Note_on_c, 1, 75, 50
3, 55080, Note_on_c, 1, 75, 0
3, 55104, Note_on_c, 1, 74, 55
3, 55128, Note_on_c, 1, 74, 0
3, 55152, Note_on_c, 1, 75, 50
3, 55176, Note_on_c, 1, 75, 0
3, 55200, Note_on_c, 1, 77, 50
3, 55224, Note_on_c, 1, 77, 0
3, 55248, Note_on_c, 1, 75, 55
3, 55272, Note_on_c, 1, 75, 0
3, 55296, Note_on_c, 1, 71, 50
3, 55320, Note_on_c, 1, 71, 0
3, 55344, Note_on_c, 1, 72, 50
3, 55368, Note_on_c, 1, 72, 0
3, 55392, Note_on_c, 1, 70, 55
3, 55416, Note_on_c, 1, 70, 0
3, 55440, Note_on_c, 1, 70, 50
3, 55464, Note_on_c, 1, 70, 0
3, 55488, Note_on_c, 1, 70, 50
3, 55512, Note_on_c, 1, 70, 0
3, 55536, Note_on_c, 1, 70, 55
3, 55560, Note_on_c, 1, 70, 0
3, 55584, Note_on_c, 1, 70, 50
3, 55608, Note_on_c, 1, 70, 0
3, 55632, Note_on_c, 1, 70, 50
3, 55656, Note_on_c, 1, 70, 0
3, 55680, Note_on_c, 1, 68, 55
3, 55704, Note_on_c, 1, 68, 0
3, 55728, Note_on_c, 1, 67, 50
3, 55752, Note_on_c, 1, 67, 0
3, 55776, Note_on_c, 1, 65, 50
3, 55800, Note_on_c, 1, 65, 0
3, 55824, Note_on_c, 1, 70, 55
3, 55848, Note_on_c, 1, 70, 0
3, 55872, Note_on_c, 1, 70, 50
3, 55896, Note_on_c, 1, 70, 0
3, 55920, Note_on_c, 1, 70, 50
3, 55944, Note_on_c, 1, 70, 0
3, 55968, Note_on_c, 1, 70, 55
3, 55992, Note_on_c, 1, 70, 0
3, 56016, Note_on_c, 1, 75, 50
3, 56040, Note_on_c, 1, 75, 0
3, 56064, Note_on_c, 1, 77, 50
3, 56088, Note_on_c, 1, 77, 0
3, 56112, Note_on_c, 1, 79, 55
3, 56136, Note_on_c, 1, 79, 0
3, 56160, Note_on_c, 1, 77, 50
3, 56184, Note_on_c, 1, 77, 0
3, 56208, Note_on_c, 1, 75, 50
3, 56232, Note_on_c, 1, 75, 0
3, 56256, Note_on_c, 1, 74, 50
3, 56831, Note_on_c, 1, 74, 0
3, 56832, Note_on_c, 1, 70, 55
3, 56856, Note_on_c, 1, 70, 0
3, 56880, Note_on_c, 1, 68, 50
3, 56904, Note_on_c, 1, 68, 0
3, 56928, Note_on_c, 1, 67, 50
3, 56952, Note_on_c, 1, 67, 0
3, 56976, Note_on_c, 1, 79, 55
3, 57000, Note_on_c, 1, 79, 0
3, 57024, Note_on_c, 1, 77, 50
3, 57048, Note_on_c, 1, 77, 0
3, 57072, Note_on_c, 1, 75, 50
3, 57096, Note_on_c, 1, 75, 0
3, 57120, Note_on_c, 1, 82, 55
3, 57144, Note_on_c, 1, 82, 0
3, 57168, Note_on_c, 1, 80, 50
3, 57192, Note_on_c, 1, 80, 0
3, 57216, Note_on_c, 1, 79, 50
3, 57240, Note_on_c, 1, 79, 0
3, 57264, Note_on_c, 1, 79, 55
3, 57288, Note_on_c, 1, 79, 0
3, 57312, Note_on_c, 1, 77, 50
3, 57336, Note_on_c, 1, 77, 0
3, 57360, Note_on_c, 1, 75, 50
3, 57384, Note_on_c, 1, 75, 0
3, 57408, Control_c, 1, 6, 64
3, 57408, Control_c, 1, 11, 50
3, 57408, Note_on_c, 1, 65, 120
3, 57425, Control_c, 1, 11, 51
3, 57441, Control_c, 1, 11, 52
3, 57458, Control_c, 1, 11, 53
3, 57474, Control_c, 1, 11, 54
3, 57491, Control_c, 1, 11, 55
3, 57507, Control_c, 1, 11, 56
3, 57524, Control_c, 1, 11, 57
3, 57540, Control_c, 1, 11, 58
3, 57556, Control_c, 1, 11, 59
3, 57573, Control_c, 1, 11, 60
3, 57589, Control_c, 1, 11, 61
3, 57606, Control_c, 1, 11, 62
3, 57622, Control_c, 1, 11, 63
3, 57639, Control_c, 1, 11, 64
3, 57655, Control_c, 1, 11, 65
3, 57672, Control_c, 1, 11, 66
3, 57688, Control_c, 1, 11, 67
3, 57704, Control_c, 1, 11, 68
3, 57721, Control_c, 1, 11, 69
3, 57737, Control_c, 1, 11, 70
3, 57754, Control_c, 1, 11, 71
3, 57770, Control_c, 1, 11, 72
3, 57787, Control_c, 1, 11, 73
3, 57803, Control_c, 1, 11, 74
3, 57820, Control_c, 1, 11, 75
3, 57836, Control_c, 1, 11, 76
3, 57852, Control_c, 1, 11, 77
3, 57869, Control_c, 1, 11, 78
3, 57885, Control_c, 1, 11, 79
3, 57902, Control_c, 1, 11, 80
3, 57918, Control_c, 1, 11, 81
3, 57935, Control_c, 1, 11, 82
3, 57951, Control_c, 1, 11, 83
3, 57968, Control_c, 1, 11, 84
3, 57983, Note_on_c, 1, 65, 0
3, 57984, Note_on_c, 1, 65, 120
3, 57984, Control_c, 1, 11, 85
3, 58000, Control_c, 1, 11, 86
3, 58017, Control_c, 1, 11, 87
3, 58033, Control_c, 1, 11, 88
3, 58050, Control_c, 1, 11, 89
3, 58066, Control_c, 1, 11, 90
3, 58083, Control_c, 1, 11, 91
3, 58099, Control_c, 1, 11, 92
3, 58116, Control_c, 1, 11, 93
3, 58132, Control_c, 1, 11, 94
3, 58148, Control_c, 1, 11, 95
3, 58165, Control_c, 1, 11, 96
3, 58181, Control_c, 1, 11, 97
3, 58198, Control_c, 1, 11, 98
3, 58214, Control_c, 1, 11, 99
3, 58231, Control_c, 1, 11, 100
3, 58247, Control_c, 1, 11, 101
3, 58264, Control_c, 1, 11, 102
3, 58280, Control_c, 1, 11, 103
3, 58296, Control_c, 1, 11, 104
3, 58313, Control_c, 1, 11, 105
3, 58329, Control_c, 1, 11, 106
3, 58346, Control_c, 1, 11, 107
3, 58362, Control_c, 1, 11, 108
3, 58379, Control_c, 1, 11, 109
3, 58395, Control_c, 1, 11, 110
3, 58412, Control_c, 1, 11, 111
3, 58428, Control_c, 1, 11, 112
3, 58444, Control_c, 1, 11, 113
3, 58461, Control_c, 1, 11, 114
3, 58477, Control_c, 1, 11, 115
3, 58494, Control_c, 1, 11, 116
3, 58510, Control_c, 1, 11, 117
3, 58527, Control_c, 1, 11, 118
3, 58543, Control_c, 1, 11, 119
3, 58559, Note_on_c, 1, 65, 0
3, 58559, Control_c, 1, 11, 120
3, 58560, Control_c, 1, 6, 14
3, 58560, Note_on_c, 1, 69, 120
3, 58560, Note_on_c, 1, 77, 120
3, 58590, Note_on_c, 1, 77, 0
3, 58590, Note_on_c, 1, 69, 0
3, 58848, Note_on_c, 1, 69, 120
3, 58848, Note_on_c, 1, 81, 120
3, 58878, Note_on_c, 1, 81, 0
3, 58878, Note_on_c, 1, 69, 0
3, 59136, Note_on_c, 1, 69, 125
3, 59136, Note_on_c, 1, 81, 125
3, 59171, Note_on_c, 1, 81, 0
3, 59171, Note_on_c, 1, 69, 0
3, 59208, Note_on_c, 1, 69, 115
3, 59220, Note_on_c, 1, 69, 0
3, 59232, Note_on_c, 1, 69, 115
3, 59256, Note_on_c, 1, 69, 0
3, 59280, Note_on_c, 1, 69, 125
3, 59280, Note_on_c, 1, 81, 125
3, 59315, Note_on_c, 1, 81, 0
3, 59315, Note_on_c, 1, 69, 0
3, 59352, Note_on_c, 1, 69, 115
3, 59364, Note_on_c, 1, 69, 0
3, 59376, Note_on_c, 1, 69, 115
3, 59400, Note_on_c, 1, 69, 0
3, 59424, Note_on_c, 1, 69, 125
3, 59424, Note_on_c, 1, 81, 125
3, 59459, Note_on_c, 1, 81, 0
3, 59459, Note_on_c, 1, 69, 0
3, 59496, Note_on_c, 1, 69, 115
3, 59508, Note_on_c, 1, 69, 0
3, 59520, Note_on_c, 1, 69, 115
3, 59544, Note_on_c, 1, 69, 0
3, 59568, Note_on_c, 1, 69, 125
3, 59568, Note_on_c, 1, 81, 125
3, 59603, Note_on_c, 1, 81, 0
3, 59603, Note_on_c, 1, 69, 0
3, 59640, Note_on_c, 1, 69, 115
3, 59652, Note_on_c, 1, 69, 0
3, 59664, Note_on_c, 1, 69, 115
3, 59688, Note_on_c, 1, 69, 0
3, 59712, Note_on_c, 1, 69, 125
3, 59712, Note_on_c, 1, 81, 125
3, 59747, Note_on_c, 1, 81, 0
3, 59747, Note_on_c, 1, 69, 0
3, 59784, Note_on_c, 1, 69, 115
3, 59796, Note_on_c, 1, 69, 0
3, 59808, Note_on_c, 1, 69, 115
3, 59832, Note_on_c, 1, 69, 0
3, 59856, Note_on_c, 1, 74, 120
3, 59880, Note_on_c, 1, 74, 0
3, 59904, Note_on_c, 1, 76, 115
3, 59928, Note_on_c, 1, 76, 0
3, 59952, Note_on_c, 1, 77, 115
3, 59976, Note_on_c, 1, 77, 0
3, 60000, Note_on_c, 1, 76, 120
3, 60024, Note_on_c, 1, 76, 0
3, 60048, Note_on_c, 1, 77, 115
3, 60072, Note_on_c, 1, 77, 0
3, 60096, Note_on_c, 1, 79, 115
3, 60120, Note_on_c, 1, 79, 0
3, 60144, Note_on_c, 1, 77, 120
3, 60168, Note_on_c, 1, 77, 0
3, 60192, Note_on_c, 1, 76, 115
3, 60216, Note_on_c, 1, 76, 0
3, 60240, Note_on_c, 1, 74, 115
3, 60264, Note_on_c, 1, 74, 0
3, 60288, Note_on_c, 1, 70, 120
3, 60312, Note_on_c, 1, 70, 0
3, 60336, Note_on_c, 1, 69, 115
3, 60360, Note_on_c, 1, 69, 0
3, 60384, Note_on_c, 1, 67, 115
3, 60408, Note_on_c, 1, 67, 0
3, 60432, Note_on_c, 1, 65, 120
3, 60456, Note_on_c, 1, 65, 0
3, 60480, Note_on_c, 1, 76, 115
3, 60504, Note_on_c, 1, 76, 0
3, 60528, Note_on_c, 1, 74, 115
3, 60552, Note_on_c, 1, 74, 0
3, 60576, Note_on_c, 1, 73, 120
3, 60600, Note_on_c, 1, 73, 0
3, 60624, Note_on_c, 1, 74, 115
3, 60648, Note_on_c, 1, 74, 0
3, 60672, Note_on_c, 1, 76, 115
3, 60696, Note_on_c, 1, 76, 0
3, 60720, Note_on_c, 1, 74, 120
3, 60744, Note_on_c, 1, 74, 0
3, 60768, Note_on_c, 1, 73, 115
3, 60792, Note_on_c, 1, 73, 0
3, 60816, Note_on_c, 1, 74, 115
3, 60840, Note_on_c, 1, 74, 0
3, 60864, Note_on_c, 1, 70, 120
3, 60888, Note_on_c, 1, 70, 0
3, 60912, Note_on_c, 1, 69, 115
3, 60936, Note_on_c, 1, 69, 0
3, 60960, Note_on_c, 1, 67, 115
3, 60984, Note_on_c, 1, 67, 0
3, 61008, Note_on_c, 1, 65, 120
3, 61032, Note_on_c, 1, 65, 0
3, 61056, Note_on_c, 1, 76, 115
3, 61080, Note_on_c, 1, 76, 0
3, 61104, Note_on_c, 1, 74, 115
3, 61128, Note_on_c, 1, 74, 0
3, 61152, Note_on_c, 1, 73, 120
3, 61176, Note_on_c, 1, 73, 0
3, 61200, Note_on_c, 1, 74, 115
3, 61224, Note_on_c, 1, 74, 0
3, 61248, Note_on_c, 1, 76, 115
3, 61272, Note_on_c, 1, 76, 0
3, 61296, Note_on_c, 1, 74, 120
3, 61320, Note_on_c, 1, 74, 0
3, 61344, Note_on_c, 1, 73, 115
3, 61368, Note_on_c, 1, 73, 0
3, 61392, Note_on_c, 1, 74, 115
3, 61416, Note_on_c, 1, 74, 0
3, 61440, Note_on_c, 1, 72, 120
3, 61464, Note_on_c, 1, 72, 0
3, 61488, Note_on_c, 1, 74, 115
3, 61512, Note_on_c, 1, 74, 0
3, 61536, Note_on_c, 1, 75, 115
3, 61560, Note_on_c, 1, 75, 0
3, 61584, Note_on_c, 1, 67, 120
3, 61608, Note_on_c, 1, 67, 0
3, 61632, Note_on_c, 1, 69, 115
3, 61656, Note_on_c, 1, 69, 0
3, 61680, Note_on_c, 1, 70, 115
3, 61704, Note_on_c, 1, 70, 0
3, 61728, Note_on_c, 1, 69, 120
3, 61752, Note_on_c, 1, 69, 0
3, 61776, Note_on_c, 1, 70, 115
3, 61800, Note_on_c, 1, 70, 0
3, 61824, Note_on_c, 1, 72, 115
3, 61848, Note_on_c, 1, 72, 0
3, 61872, Note_on_c, 1, 70, 120
3, 61896, Note_on_c, 1, 70, 0
3, 61920, Note_on_c, 1, 69, 115
3, 61944, Note_on_c, 1, 69, 0
3, 61968, Note_on_c, 1, 67, 115
3, 61992, Note_on_c, 1, 67, 0
3, 62016, Note_on_c, 1, 75, 105
3, 62040, Note_on_c, 1, 75, 0
3, 62064, Note_on_c, 1, 74, 100
3, 62088, Note_on_c, 1, 74, 0
3, 62112, Note_on_c, 1, 72, 100
3, 62136, Note_on_c, 1, 72, 0
3, 62160, Note_on_c, 1, 70, 105
3, 62184, Note_on_c, 1, 70, 0
3, 62208, Note_on_c, 1, 69, 100
3, 62232, Note_on_c, 1, 69, 0
3, 62256, Note_on_c, 1, 67, 100
3, 62280, Note_on_c, 1, 67, 0
3, 62304, Note_on_c, 1, 77, 105
3, 62328, Note_on_c, 1, 77, 0
3, 62352, Note_on_c, 1, 75, 100
3, 62376, Note_on_c, 1, 75, 0
3, 62400, Note_on_c, 1, 74, 100
3, 62424, Note_on_c, 1, 74, 0
3, 62448, Note_on_c, 1, 72, 105
3, 62472, Note_on_c, 1, 72, 0
3, 62496, Note_on_c, 1, 70, 100
3, 62520, Note_on_c, 1, 70, 0
3, 62544, Note_on_c, 1, 69, 100
3, 62568, Note_on_c, 1, 69, 0
3, 62592, Note_on_c, 1, 79, 105
3, 62616, Note_on_c, 1, 79, 0
3, 62640, Note_on_c, 1, 77, 100
3, 62664, Note_on_c, 1, 77, 0
3, 62688, Note_on_c, 1, 75, 100
3, 62712, Note_on_c, 1, 75, 0
3, 62736, Note_on_c, 1, 74, 105
3, 62760, Note_on_c, 1, 74, 0
3, 62784, Note_on_c, 1, 72, 100
3, 62808, Note_on_c, 1, 72, 0
3, 62832, Note_on_c, 1, 70, 100
3, 62856, Note_on_c, 1, 70, 0
3, 62880, Note_on_c, 1, 69, 105
3, 62904, Note_on_c, 1, 69, 0
3, 62928, Note_on_c, 1, 67, 100
3, 62952, Note_on_c, 1, 67, 0
3, 62976, Note_on_c, 1, 65, 100
3, 63000, Note_on_c, 1, 65, 0
3, 63024, Note_on_c, 1, 63, 105
3, 63048, Note_on_c, 1, 63, 0
3, 63072, Note_on_c, 1, 62, 100
3, 63096, Note_on_c, 1, 62, 0
3, 63120, Note_on_c, 1, 60, 100
3, 63144, Note_on_c, 1, 60, 0
3, 63168, Note_on_c, 1, 58, 100
3, 63192, Note_on_c, 1, 58, 0
3, 63312, Note_on_c, 1, 77, 65
3, 63347, Note_on_c, 1, 77, 0
3, 63384, Note_on_c, 1, 65, 60
3, 63396, Note_on_c, 1, 65, 0
3, 63408, Note_on_c, 1, 65, 60
3, 63432, Note_on_c, 1, 65, 0
3, 63456, Note_on_c, 1, 77, 65
3, 63491, Note_on_c, 1, 77, 0
3, 63528, Note_on_c, 1, 65, 64
3, 63540, Note_on_c, 1, 65, 0
3, 63552, Note_on_c, 1, 65, 66
3, 63576, Note_on_c, 1, 65, 0
3, 63600, Note_on_c, 1, 75, 75
3, 63635, Note_on_c, 1, 75, 0
3, 63672, Note_on_c, 1, 63, 74
3, 63684, Note_on_c, 1, 63, 0
3, 63696, Note_on_c, 1, 63, 75
3, 63720, Note_on_c, 1, 63, 0
3, 63744, Note_on_c, 1, 75, 84
3, 63779, Note_on_c, 1, 75, 0
3, 63816, Note_on_c, 1, 63, 83
3, 63828, Note_on_c, 1, 63, 0
3, 63840, Note_on_c, 1, 63, 85
3, 63864, Note_on_c, 1, 63, 0
3, 63888, Note_on_c, 1, 77, 90
3, 63923, Note_on_c, 1, 77, 0
3, 63960, Note_on_c, 1, 65, 85
3, 63972, Note_on_c, 1, 65, 0
3, 63984, Note_on_c, 1, 65, 83
3, 64008, Note_on_c, 1, 65, 0
3, 64032, Note_on_c, 1, 77, 79
3, 64067, Note_on_c, 1, 77, 0
3, 64104, Note_on_c, 1, 65, 74
3, 64116, Note_on_c, 1, 65, 0
3, 64128, Note_on_c, 1, 65, 72
3, 64152, Note_on_c, 1, 65, 0
3, 64176, Note_on_c, 1, 77, 68
3, 64211, Note_on_c, 1, 77, 0
3, 64248, Note_on_c, 1, 65, 62
3, 64260, Note_on_c, 1, 65, 0
3, 64272, Note_on_c, 1, 65, 60
3, 64296, Note_on_c, 1, 65, 0
3, 64752, Note_on_c, 1, 81, 60
3, 64787, Note_on_c, 1, 81, 0
3, 64824, Note_on_c, 1, 69, 63
3, 64836, Note_on_c, 1, 69, 0
3, 64848, Note_on_c, 1, 69, 65
3, 64872, Note_on_c, 1, 69, 0
3, 64896, Note_on_c, 1, 79, 67
3, 64931, Note_on_c, 1, 79, 0
3, 64968, Note_on_c, 1, 67, 71
3, 64980, Note_on_c, 1, 67, 0
3, 64992, Note_on_c, 1, 67, 73
3, 65016, Note_on_c, 1, 67, 0
3, 65040, Note_on_c, 1, 79, 75
3, 65075, Note_on_c, 1, 79, 0
3, 65112, Note_on_c, 1, 67, 79
3, 65124, Note_on_c, 1, 67, 0
3, 65136, Note_on_c, 1, 67, 81
3, 65160, Note_on_c, 1, 67, 0
3, 65184, Note_on_c, 1, 79, 83
3, 65219, Note_on_c, 1, 79, 0
3, 65256, Note_on_c, 1, 67, 87
3, 65268, Note_on_c, 1, 67, 0
3, 65280, Note_on_c, 1, 67, 88
3, 65304, Note_on_c, 1, 67, 0
3, 65328, Note_on_c, 1, 78, 90
3, 65363, Note_on_c, 1, 78, 0
3, 65400, Note_on_c, 1, 66, 85
3, 65412, Note_on_c, 1, 66, 0
3, 65424, Note_on_c, 1, 66, 83
3, 65448, Note_on_c, 1, 66, 0
3, 65472, Note_on_c, 1, 77, 79
3, 65507, Note_on_c, 1, 77, 0
3, 65544, Note_on_c, 1, 65, 74
3, 65556, Note_on_c, 1, 65, 0
3, 65568, Note_on_c, 1, 65, 72
3, 65592, Note_on_c, 1, 65, 0
3, 65616, Note_on_c, 1, 76, 68
3, 65651, Note_on_c, 1, 76, 0
3, 65688, Note_on_c, 1, 64, 62
3, 65700, Note_on_c, 1, 64, 0
3, 65712, Note_on_c, 1, 64, 60
3, 65736, Note_on_c, 1, 64, 0
3, 66048, Note_on_c, 1, 70, 60
3, 66083, Note_on_c, 1, 70, 0
3, 66120, Note_on_c, 1, 58, 65
3, 66132, Note_on_c, 1, 58, 0
3, 66144, Note_on_c, 1, 58, 67
3, 66168, Note_on_c, 1, 58, 0
3, 66192, Note_on_c, 1, 70, 71
3, 66227, Note_on_c, 1, 70, 0
3, 66264, Note_on_c, 1, 58, 76
3, 66276, Note_on_c, 1, 58, 0
3, 66288, Note_on_c, 1, 58, 78
3, 66312, Note_on_c, 1, 58, 0
3, 66336, Note_on_c, 1, 69, 82
3, 66371, Note_on_c, 1, 69, 0
3, 66408, Note_on_c, 1, 57, 88
3, 66420, Note_on_c, 1, 57, 0
3, 66432, Note_on_c, 1, 57, 90
3, 66456, Note_on_c, 1, 57, 0
3, 66480, Note_on_c, 1, 69, 90
3, 66515, Note_on_c, 1, 69, 0
3, 66552, Note_on_c, 1, 57, 85
3, 66564, Note_on_c, 1, 57, 0
3, 66576, Note_on_c, 1, 57, 83
3, 66600, Note_on_c, 1, 57, 0
3, 66624, Note_on_c, 1, 68, 79
3, 66659, Note_on_c, 1, 68, 0
3, 66696, Note_on_c, 1, 56, 74
3, 66708, Note_on_c, 1, 56, 0
3, 66720, Note_on_c, 1, 56, 72
3, 66744, Note_on_c, 1, 56, 0
3, 66768, Note_on_c, 1, 69, 68
3, 66803, Note_on_c, 1, 69, 0
3, 66840, Note_on_c, 1, 57, 62
3, 66852, Note_on_c, 1, 57, 0
3, 66864, Note_on_c, 1, 57, 60
3, 66888, Note_on_c, 1, 57, 0
3, 66912, Program_c, 1, 45
3, 66912, Control_c, 1, 7, 105
3, 67008, Note_on_c, 1, 57, 60
3, 67032, Note_on_c, 1, 57, 0
3, 67152, Note_on_c, 1, 69, 67
3, 67176, Note_on_c, 1, 69, 0
3, 67296, Note_on_c, 1, 75, 74
3, 67320, Note_on_c, 1, 75, 0
3, 67440, Note_on_c, 1, 76, 81
3, 67464, Note_on_c, 1, 76, 0
3, 67584, Note_on_c, 1, 69, 89
3, 67608, Note_on_c, 1, 69, 0
3, 67728, Note_on_c, 1, 69, 96
3, 67752, Note_on_c, 1, 69, 0
3, 67872, Note_on_c, 1, 74, 103
3, 67896, Note_on_c, 1, 74, 0
3, 68016, Note_on_c, 1, 69, 111
3, 68040, Note_on_c, 1, 69, 0
3, 68064, Program_c, 1, 48
3, 68064, Control_c, 1, 7, 123
3, 68064, Note_on_c, 1, 74, 120
3, 68099, Note_on_c, 1, 74, 0
3, 68138, Note_on_c, 1, 62, 113
3, 68150, Note_on_c, 1, 62, 0
3, 68162, Note_on_c, 1, 62, 113
3, 68186, Note_on_c, 1, 62, 0
3, 68210, Note_on_c, 1, 74, 120
3, 68245, Note_on_c, 1, 74, 0
3, 68282, Note_on_c, 1, 62, 113
3, 68294, Note_on_c, 1, 62, 0
3, 68306, Note_on_c, 1, 62, 113
3, 68330, Note_on_c, 1, 62, 0
3, 68354, Note_on_c, 1, 74, 120
3, 68389, Note_on_c, 1, 74, 0
3, 68426, Note_on_c, 1, 62, 113
3, 68438, Note_on_c, 1, 62, 0
3, 68450, Note_on_c, 1, 62, 113
3, 68474, Note_on_c, 1, 62, 0
3, 68498, Note_on_c, 1, 74, 120
3, 68533, Note_on_c, 1, 74, 0
3, 68570, Note_on_c, 1, 62, 113
3, 68582, Note_on_c, 1, 62, 0
3, 68594, Note_on_c, 1, 62, 113
3, 68618, Note_on_c, 1, 62, 0
3, 68642, Note_on_c, 1, 74, 120
3, 68677, Note_on_c, 1, 74, 0
3, 68714, Note_on_c, 1, 62, 113
3, 68726, Note_on_c, 1, 62, 0
3, 68738, Note_on_c, 1, 62, 113
3, 68762, Note_on_c, 1, 62, 0
3, 68786, Note_on_c, 1, 74, 120
3, 68821, Note_on_c, 1, 74, 0
3, 68858, Note_on_c, 1, 62, 113
3, 68870, Note_on_c, 1, 62, 0
3, 68882, Note_on_c, 1, 62, 113
3, 68906, Note_on_c, 1, 62, 0
3, 68930, Note_on_c, 1, 74, 120
3, 68965, Note_on_c, 1, 74, 0
3, 69002, Note_on_c, 1, 62, 113
3, 69014, Note_on_c, 1, 62, 0
3, 69026, Note_on_c, 1, 62, 113
3, 69050, Note_on_c, 1, 62, 0
3, 69074, Note_on_c, 1, 74, 120
3, 69109, Note_on_c, 1, 74, 0
3, 69146, Note_on_c, 1, 62, 113
3, 69158, Note_on_c, 1, 62, 0
3, 69170, Note_on_c, 1, 62, 113
3, 69194, Note_on_c, 1, 62, 0
3, 69218, Note_on_c, 1, 74, 120
3, 69253, Note_on_c, 1, 74, 0
3, 69290, Note_on_c, 1, 62, 113
3, 69302, Note_on_c, 1, 62, 0
3, 69314, Note_on_c, 1, 62, 113
3, 69338, Note_on_c, 1, 62, 0
3, 69362, Note_on_c, 1, 74, 120
3, 69397, Note_on_c, 1, 74, 0
3, 69434, Note_on_c, 1, 62, 113
3, 69446, Note_on_c, 1, 62, 0
3, 69458, Note_on_c, 1, 62, 113
3, 69482, Note_on_c, 1, 62, 0
3, 69506, Note_on_c, 1, 74, 120
3, 69541, Note_on_c, 1, 74, 0
3, 69578, Note_on_c, 1, 62, 113
3, 69590, Note_on_c, 1, 62, 0
3, 69602, Note_on_c, 1, 62, 113
3, 69626, Note_on_c, 1, 62, 0
3, 69650, Note_on_c, 1, 74, 120
3, 69685, Note_on_c, 1, 74, 0
3, 69722, Note_on_c, 1, 62, 113
3, 69734, Note_on_c, 1, 62, 0
3, 69746, Note_on_c, 1, 62, 113
3, 69770, Note_on_c, 1, 62, 0
3, 69794, Note_on_c, 1, 74, 120
3, 69829, Note_on_c, 1, 74, 0
3, 69866, Note_on_c, 1, 62, 113
3, 69878, Note_on_c, 1, 62, 0
3, 69890, Note_on_c, 1, 62, 113
3, 69914, Note_on_c, 1, 62, 0
3, 69938, Note_on_c, 1, 74, 120
3, 69973, Note_on_c, 1, 74, 0
3, 70010, Note_on_c, 1, 62, 113
3, 70022, Note_on_c, 1, 62, 0
3, 70034, Note_on_c, 1, 62, 113
3, 70058, Note_on_c, 1, 62, 0
3, 70082, Note_on_c, 1, 74, 120
3, 70117, Note_on_c, 1, 74, 0
3, 70154, Note_on_c, 1, 62, 113
3, 70166, Note_on_c, 1, 62, 0
3, 70178, Note_on_c, 1, 62, 113
3, 70202, Note_on_c, 1, 62, 0
3, 70226, Note_on_c, 1, 74, 120
3, 70261, Note_on_c, 1, 74, 0
3, 70298, Note_on_c, 1, 62, 113
3, 70310, Note_on_c, 1, 62, 0
3, 70322, Note_on_c, 1, 62, 113
3, 70346, Note_on_c, 1, 62, 0
3, 70368, Note_on_c, 1, 62, 120
3, 70368, Note_on_c, 1, 74, 120
3, 70392, Note_on_c, 1, 74, 0
3, 70392, Note_on_c, 1, 62, 0
3, 70656, Note_on_c, 1, 70, 118
3, 70691, Note_on_c, 1, 70, 0
3, 70728, Note_on_c, 1, 58, 113
3, 70740, Note_on_c, 1, 58, 0
3, 70752, Note_on_c, 1, 58, 113
3, 70776, Note_on_c, 1, 58, 0
3, 70800, Note_on_c, 1, 70, 118
3, 70824, Note_on_c, 1, 70, 0
3, 70848, Note_on_c, 1, 67, 113
3, 70872, Note_on_c, 1, 67, 0
3, 70896, Note_on_c, 1, 65, 113
3, 70920, Note_on_c, 1, 65, 0
3, 70944, Note_on_c, 1, 64, 118
3, 70968, Note_on_c, 1, 64, 0
3, 71232, Note_on_c, 1, 81, 118
3, 71267, Note_on_c, 1, 81, 0
3, 71304, Note_on_c, 1, 69, 113
3, 71316, Note_on_c, 1, 69, 0
3, 71328, Note_on_c, 1, 69, 113
3, 71352, Note_on_c, 1, 69, 0
3, 71376, Note_on_c, 1, 81, 118
3, 71400, Note_on_c, 1, 81, 0
3, 71424, Note_on_c, 1, 77, 113
3, 71448, Note_on_c, 1, 77, 0
3, 71472, Note_on_c, 1, 76, 113
3, 71496, Note_on_c, 1, 76, 0
3, 71520, Control_c, 1, 6, 64
3, 71520, Control_c, 1, 11, 60
3, 71520, Note_on_c, 1, 62, 100
3, 71568, Note_on_c, 1, 62, 0
3, 71568, Note_on_c, 1, 64, 100
3, 71616, Note_on_c, 1, 64, 0
3, 71616, Note_on_c, 1, 66, 100
3, 71664, Note_on_c, 1, 66, 0
3, 71664, Note_on_c, 1, 67, 100
3, 71808, Control_c, 1, 11, 60
3, 71823, Control_c, 1, 11, 61
3, 71837, Control_c, 1, 11, 62
3, 71852, Control_c, 1, 11, 63
3, 71856, Note_on_c, 1, 67, 0
3, 71856, Note_on_c, 1, 65, 100
3, 71866, Control_c, 1, 11, 64
3, 71880, Control_c, 1, 11, 65
3, 71895, Control_c, 1, 11, 66
3, 71904, Note_on_c, 1, 65, 0
3, 71904, Note_on_c, 1, 63, 100
3, 71909, Control_c, 1, 11, 67
3, 71923, Control_c, 1, 11, 68
3, 71938, Control_c, 1, 11, 69
3, 71952, Note_on_c, 1, 63, 0
3, 71952, Note_on_c, 1, 75, 100
3, 71952, Control_c, 1, 11, 70
3, 71967, Control_c, 1, 11, 71
3, 71981, Control_c, 1, 11, 72
3, 71995, Control_c, 1, 11, 73
3, 72000, Note_on_c, 1, 75, 0
3, 72000, Note_on_c, 1, 77, 100
3, 72010, Control_c, 1, 11, 74
3, 72024, Control_c, 1, 11, 75
3, 72038, Control_c, 1, 11, 76
3, 72048, Note_on_c, 1, 77, 0
3, 72048, Note_on_c, 1, 79, 100
3, 72053, Control_c, 1, 11, 77
3, 72067, Control_c, 1, 11, 78
3, 72081, Control_c, 1, 11, 79
3, 72096, Note_on_c, 1, 79, 0
3, 72096, Note_on_c, 1, 76, 100
3, 72096, Control_c, 1, 11, 80
3, 72110, Control_c, 1, 11, 81
3, 72125, Control_c, 1, 11, 82
3, 72139, Control_c, 1, 11, 83
3, 72144, Note_on_c, 1, 76, 0
3, 72144, Note_on_c, 1, 77, 100
3, 72153, Control_c, 1, 11, 84
3, 72168, Control_c, 1, 11, 85
3, 72182, Control_c, 1, 11, 86
3, 72192, Note_on_c, 1, 77, 0
3, 72192, Note_on_c, 1, 79, 100
3, 72196, Control_c, 1, 11, 87
3, 72211, Control_c, 1, 11, 88
3, 72225, Control_c, 1, 11, 89
3, 72239, Control_c, 1, 11, 90
3, 72240, Note_on_c, 1, 79, 0
3, 72240, Control_c, 1, 11, 90
3, 72240, Note_on_c, 1, 76, 100
3, 72245, Control_c, 1, 11, 89
3, 72250, Control_c, 1, 11, 88
3, 72255, Control_c, 1, 11, 87
3, 72260, Control_c, 1, 11, 86
3, 72264, Control_c, 1, 11, 85
3, 72269, Control_c, 1, 11, 84
3, 72274, Control_c, 1, 11, 83
3, 72279, Control_c, 1, 11, 82
3, 72283, Control_c, 1, 11, 81
3, 72288, Note_on_c, 1, 76, 0
3, 72288, Note_on_c, 1, 74, 100
3, 72288, Control_c, 1, 11, 80
3, 72293, Control_c, 1, 11, 79
3, 72298, Control_c, 1, 11, 78
3, 72302, Control_c, 1, 11, 77
3, 72307, Control_c, 1, 11, 76
3, 72312, Control_c, 1, 11, 75
3, 72317, Control_c, 1, 11, 74
3, 72322, Control_c, 1, 11, 73
3, 72326, Control_c, 1, 11, 72
3, 72331, Control_c, 1, 11, 71
3, 72336, Note_on_c, 1, 74, 0
3, 72336, Note_on_c, 1, 73, 100
3, 72336, Control_c, 1, 11, 70
3, 72341, Control_c, 1, 11, 69
3, 72345, Control_c, 1, 11, 68
3, 72350, Control_c, 1, 11, 67
3, 72355, Control_c, 1, 11, 66
3, 72360, Control_c, 1, 11, 65
3, 72364, Control_c, 1, 11, 64
3, 72369, Control_c, 1, 11, 63
3, 72374, Control_c, 1, 11, 62
3, 72379, Control_c, 1, 11, 61
3, 72383, Control_c, 1, 11, 60
3, 72384, Note_on_c, 1, 73, 0
3, 72960, Control_c, 1, 6, 14
3, 73248, Control_c, 1, 11, 120
3, 73248, Note_on_c, 1, 65, 105
3, 73272, Note_on_c, 1, 65, 0
3, 73296, Note_on_c, 1, 67, 100
3, 73320, Note_on_c, 1, 67, 0
3, 73344, Note_on_c, 1, 74, 100
3, 73368, Note_on_c, 1, 74, 0
3, 73392, Note_on_c, 1, 74, 105
3, 73392, Note_on_c, 1, 76, 105
3, 73416, Note_on_c, 1, 76, 0
3, 73416, Note_on_c, 1, 74, 0
3, 73440, Note_on_c, 1, 73, 100
3, 73440, Note_on_c, 1, 76, 100
3, 73464, Note_on_c, 1, 76, 0
3, 73464, Note_on_c, 1, 73, 0
3, 73488, Note_on_c, 1, 65, 100
3, 73488, Note_on_c, 1, 74, 100
3, 73512, Note_on_c, 1, 74, 0
3, 73512, Note_on_c, 1, 65, 0
3, 73536, Note_on_c, 1, 65, 110
3, 73536, Note_on_c, 1, 74, 110
3, 73560, Note_on_c, 1, 74, 0
3, 73560, Note_on_c, 1, 65, 0
3, 73824, Note_on_c, 1, 74, 105
3, 73848, Note_on_c, 1, 74, 0
3, 73872, Note_on_c, 1, 86, 100
3, 73896, Note_on_c, 1, 86, 0
3, 73920, Note_on_c, 1, 86, 100
3, 73944, Note_on_c, 1, 86, 0
3, 73968, Note_on_c, 1, 88, 105
3, 73992, Note_on_c, 1, 88, 0
3, 74016, Note_on_c, 1, 73, 100
3, 74040, Note_on_c, 1, 73, 0
3, 74064, Note_on_c, 1, 77, 100
3, 74088, Note_on_c, 1, 77, 0
3, 74112, Note_on_c, 1, 74, 110
3, 74147, Note_on_c, 1, 74, 0
3, 74184, Note_on_c, 1, 62, 100
3, 74196, Note_on_c, 1, 62, 0
3, 74208, Note_on_c, 1, 62, 100
3, 74232, Note_on_c, 1, 62, 0
3, 74256, Note_on_c, 1, 57, 105
3, 74280, Note_on_c, 1, 57, 0
3, 74400, Note_on_c, 1, 74, 110
3, 74435, Note_on_c, 1, 74, 0
3, 74472, Note_on_c, 1, 62, 100
3, 74484, Note_on_c, 1, 62, 0
3, 74496, Note_on_c, 1, 62, 100
3, 74520, Note_on_c, 1, 62, 0
3, 74544, Note_on_c, 1, 57, 105
3, 74568, Note_on_c, 1, 57, 0
3, 74826, Control_c, 1, 6, 64
3, 74832, Note_on_c, 1, 64, 49
3, 74880, Note_on_c, 1, 64, 0
3, 74880, Note_on_c, 1, 61, 46
3, 74928, Note_on_c, 1, 61, 0
3, 74928, Note_on_c, 1, 55, 40
3, 74976, Note_on_c, 1, 55, 0
3, 74976, Note_on_c, 1, 61, 49
3, 75024, Note_on_c, 1, 61, 0
3, 75024, Note_on_c, 1, 64, 49
3, 75072, Note_on_c, 1, 64, 0
3, 75072, Note_on_c, 1, 67, 52
3, 75120, Note_on_c, 1, 67, 0
3, 75120, Note_on_c, 1, 64, 49
3, 75168, Note_on_c, 1, 64, 0
3, 75168, Note_on_c, 1, 67, 52
3, 75216, Note_on_c, 1, 67, 0
3, 75216, Note_on_c, 1, 73, 58
3, 75264, Note_on_c, 1, 73, 0
3, 75264, Control_c, 1, 6, 14
3, 75264, Note_on_c, 1, 69, 60
3, 75299, Note_on_c, 1, 69, 0
3, 75336, Note_on_c, 1, 57, 50
3, 75348, Note_on_c, 1, 57, 0
3, 75360, Note_on_c, 1, 57, 50
3, 75384, Note_on_c, 1, 57, 0
3, 75408, Note_on_c, 1, 57, 55
3, 75432, Note_on_c, 1, 57, 0
3, 75552, Note_on_c, 1, 69, 60
3, 75587, Note_on_c, 1, 69, 0
3, 75624, Note_on_c, 1, 57, 50
3, 75636, Note_on_c, 1, 57, 0
3, 75648, Note_on_c, 1, 57, 50
3, 75672, Note_on_c, 1, 57, 0
3, 75696, Note_on_c, 1, 57, 55
3, 75720, Note_on_c, 1, 57, 0
3, 76416, Note_on_c, 1, 69, 60
3, 76451, Note_on_c, 1, 69, 0
3, 76488, Note_on_c, 1, 57, 50
3, 76500, Note_on_c, 1, 57, 0
3, 76512, Note_on_c, 1, 57, 50
3, 76536, Note_on_c, 1, 57, 0
3, 76560, Note_on_c, 1, 58, 55
3, 76584, Note_on_c, 1, 58, 0
3, 76704, Note_on_c, 1, 58, 60
3, 76739, Note_on_c, 1, 58, 0
3, 76776, Note_on_c, 1, 58, 50
3, 76788, Note_on_c, 1, 58, 0
3, 76800, Note_on_c, 1, 58, 50
3, 76824, Note_on_c, 1, 58, 0
3, 76848, Note_on_c, 1, 58, 55
3, 76872, Note_on_c, 1, 58, 0
3, 76992, Note_on_c, 1, 58, 60
3, 77027, Note_on_c, 1, 58, 0
3, 77064, Note_on_c, 1, 58, 50
3, 77076, Note_on_c, 1, 58, 0
3, 77088, Note_on_c, 1, 58, 50
3, 77112, Note_on_c, 1, 58, 0
3, 77136, Note_on_c, 1, 58, 55
3, 77160, Note_on_c, 1, 58, 0
3, 77280, Note_on_c, 1, 58, 60
3, 77315, Note_on_c, 1, 58, 0
3, 77352, Note_on_c, 1, 70, 50
3, 77364, Note_on_c, 1, 70, 0
3, 77376, Note_on_c, 1, 70, 50
3, 77400, Note_on_c, 1, 70, 0
3, 77424, Note_on_c, 1, 70, 55
3, 77448, Note_on_c, 1, 70, 0
3, 78144, Note_on_c, 1, 58, 70
3, 78179, Note_on_c, 1, 58, 0
3, 78216, Note_on_c, 1, 70, 61
3, 78228, Note_on_c, 1, 70, 0
3, 78240, Note_on_c, 1, 70, 61
3, 78264, Note_on_c, 1, 70, 0
3, 78288, Note_on_c, 1, 72, 62
3, 78312, Note_on_c, 1, 72, 0
3, 78432, Note_on_c, 1, 60, 75
3, 78467, Note_on_c, 1, 60, 0
3, 78504, Note_on_c, 1, 72, 67
3, 78516, Note_on_c, 1, 72, 0
3, 78528, Note_on_c, 1, 72, 67
3, 78552, Note_on_c, 1, 72, 0
3, 78576, Note_on_c, 1, 68, 68
3, 78600, Note_on_c, 1, 68, 0
3, 78720, Note_on_c, 1, 68, 80
3, 78755, Note_on_c, 1, 68, 0
3, 78792, Note_on_c, 1, 65, 72
3, 78804, Note_on_c, 1, 65, 0
3, 78816, Note_on_c, 1, 65, 73
3, 78840, Note_on_c, 1, 65, 0
3, 78864, Note_on_c, 1, 70, 74
3, 78888, Note_on_c, 1, 70, 0
3, 79008, Note_on_c, 1, 61, 86
3, 79043, Note_on_c, 1, 61, 0
3, 79080, Note_on_c, 1, 70, 78
3, 79092, Note_on_c, 1, 70, 0
3, 79104, Note_on_c, 1, 70, 78
3, 79128, Note_on_c, 1, 70, 0
3, 79152, Note_on_c, 1, 70, 79
3, 79176, Note_on_c, 1, 70, 0
3, 79296, Note_on_c, 1, 75, 92
3, 79331, Note_on_c, 1, 75, 0
3, 79368, Note_on_c, 1, 63, 83
3, 79380, Note_on_c, 1, 63, 0
3, 79392, Note_on_c, 1, 63, 84
3, 79416, Note_on_c, 1, 63, 0
3, 79440, Note_on_c, 1, 63, 85
3, 79464, Note_on_c, 1, 63, 0
3, 79584, Note_on_c, 1, 64, 98
3, 79619, Note_on_c, 1, 64, 0
3, 79656, Note_on_c, 1, 71, 89
3, 79668, Note_on_c, 1, 71, 0
3, 79680, Note_on_c, 1, 71, 90
3, 79704, Note_on_c, 1, 71, 0
3, 79728, Note_on_c, 1, 73, 90
3, 79752, Note_on_c, 1, 73, 0
3, 79872, Note_on_c, 1, 57, 110
3, 79907, Note_on_c, 1, 57, 0
3, 79944, Note_on_c, 1, 69, 100
3, 79956, Note_on_c, 1, 69, 0
3, 79968, Note_on_c, 1, 69, 100
3, 79992, Note_on_c, 1, 69, 0
3, 80160, Note_on_c, 1, 58, 119
3, 80195, Note_on_c, 1, 58, 0
3, 80232, Note_on_c, 1, 70, 113
3, 80244, Note_on_c, 1, 70, 0
3, 80256, Note_on_c, 1, 70, 113
3, 80280, Note_on_c, 1, 70, 0
3, 80448, Note_on_c, 1, 59, 120
3, 80483, Note_on_c, 1, 59, 0
3, 80520, Note_on_c, 1, 71, 113
3, 80532, Note_on_c, 1, 71, 0
3, 80544, Note_on_c, 1, 71, 113
3, 80568, Note_on_c, 1, 71, 0
3, 80784, Program_c, 1, 45
3, 80784, Control_c, 1, 7, 105
3, 80930, Note_on_c, 1, 64, 60
3, 80954, Note_on_c, 1, 64, 0
3, 81074, Note_on_c, 1, 59, 57
3, 81098, Note_on_c, 1, 59, 0
3, 81360, Note_on_c, 1, 64, 60
3, 81384, Note_on_c, 1, 64, 0
3, 81504, Note_on_c, 1, 59, 57
3, 81528, Note_on_c, 1, 59, 0
3, 81792, Note_on_c, 1, 64, 60
3, 81816, Note_on_c, 1, 64, 0
3, 81936, Note_on_c, 1, 59, 57
3, 81960, Note_on_c, 1, 59, 0
3, 82224, Note_on_c, 1, 76, 60
3, 82248, Note_on_c, 1, 76, 0
3, 82368, Note_on_c, 1, 64, 57
3, 82392, Note_on_c, 1, 64, 0
3, 82656, Note_on_c, 1, 69, 60
3, 82680, Note_on_c, 1, 69, 0
3, 82800, Note_on_c, 1, 64, 57
3, 82824, Note_on_c, 1, 64, 0
3, 83088, Note_on_c, 1, 69, 60
3, 83112, Note_on_c, 1, 69, 0
3, 83232, Note_on_c, 1, 64, 57
3, 83256, Note_on_c, 1, 64, 0
3, 83520, Note_on_c, 1, 65, 60
3, 83544, Note_on_c, 1, 65, 0
3, 83664, Note_on_c, 1, 65, 57
3, 83688, Note_on_c, 1, 65, 0
3, 83952, Note_on_c, 1, 65, 60
3, 83976, Note_on_c, 1, 65, 0
3, 84096, Note_on_c, 1, 65, 57
3, 84120, Note_on_c, 1, 65, 0
3, 84384, Note_on_c, 1, 65, 60
3, 84408, Note_on_c, 1, 65, 0
3, 84528, Note_on_c, 1, 65, 57
3, 84552, Note_on_c, 1, 65, 0
3, 84816, Note_on_c, 1, 65, 60
3, 84840, Note_on_c, 1, 65, 0
3, 84960, Note_on_c, 1, 65, 57
3, 84984, Note_on_c, 1, 65, 0
3, 85104, Note_on_c, 1, 65, 60
3, 85128, Note_on_c, 1, 65, 0
3, 85248, Note_on_c, 1, 65, 60
3, 85272, Note_on_c, 1, 65, 0
3, 85392, Note_on_c, 1, 65, 58
3, 85416, Note_on_c, 1, 65, 0
3, 85536, Program_c, 1, 48
3, 85536, Control_c, 1, 7, 123
3, 85536, Note_on_c, 1, 67, 55
3, 85560, Note_on_c, 1, 67, 0
3, 85584, Note_on_c, 1, 69, 50
3, 85608, Note_on_c, 1, 69, 0
3, 85632, Note_on_c, 1, 70, 50
3, 85656, Note_on_c, 1, 70, 0
3, 85680, Note_on_c, 1, 70, 55
3, 85704, Note_on_c, 1, 70, 0
3, 85728, Note_on_c, 1, 69, 50
3, 85752, Note_on_c, 1, 69, 0
3, 85776, Note_on_c, 1, 67, 50
3, 85800, Note_on_c, 1, 67, 0
3, 85824, Note_on_c, 1, 67, 55
3, 85848, Note_on_c, 1, 67, 0
3, 85872, Note_on_c, 1, 69, 50
3, 85896, Note_on_c, 1, 69, 0
3, 85920, Note_on_c, 1, 67, 50
3, 85944, Note_on_c, 1, 67, 0
3, 85968, Program_c, 1, 45
3, 85968, Control_c, 1, 7, 105
3, 85968, Note_on_c, 1, 62, 50
3, 85992, Note_on_c, 1, 62, 0
3, 86112, Note_on_c, 1, 62, 47
3, 86136, Note_on_c, 1, 62, 0
3, 86256, Note_on_c, 1, 62, 50
3, 86280, Note_on_c, 1, 62, 0
3, 86400, Program_c, 1, 48
3, 86400, Control_c, 1, 7, 123
3, 86400, Note_on_c, 1, 64, 55
3, 86424, Note_on_c, 1, 64, 0
3, 86448, Note_on_c, 1, 65, 50
3, 86472, Note_on_c, 1, 65, 0
3, 86496, Note_on_c, 1, 67, 50
3, 86520, Note_on_c, 1, 67, 0
3, 86544, Note_on_c, 1, 67, 55
3, 86568, Note_on_c, 1, 67, 0
3, 86592, Note_on_c, 1, 65, 50
3, 86616, Note_on_c, 1, 65, 0
3, 86640, Note_on_c, 1, 64, 50
3, 86664, Note_on_c, 1, 64, 0
3, 86688, Note_on_c, 1, 64, 55
3, 86712, Note_on_c, 1, 64, 0
3, 86736, Note_on_c, 1, 65, 50
3, 86760, Note_on_c, 1, 65, 0
3, 86784, Note_on_c, 1, 64, 50
3, 86808, Note_on_c, 1, 64, 0
3, 86976, Program_c, 1, 45
3, 86976, Control_c, 1, 7, 105
3, 86976, Note_on_c, 1, 57, 50
3, 87000, Note_on_c, 1, 57, 0
3, 87120, Note_on_c, 1, 69, 47
3, 87144, Note_on_c, 1, 69, 0
3, 87264, Program_c, 1, 48
3, 87264, Control_c, 1, 7, 123
3, 87264, Note_on_c, 1, 64, 55
3, 87288, Note_on_c, 1, 64, 0
3, 87312, Note_on_c, 1, 65, 50
3, 87336, Note_on_c, 1, 65, 0
3, 87360, Note_on_c, 1, 67, 50
3, 87384, Note_on_c, 1, 67, 0
3, 87408, Note_on_c, 1, 67, 55
3, 87432, Note_on_c, 1, 67, 0
3, 87456, Note_on_c, 1, 65, 50
3, 87480, Note_on_c, 1, 65, 0
3, 87504, Note_on_c, 1, 64, 50
3, 87528, Note_on_c, 1, 64, 0
3, 87552, Note_on_c, 1, 64, 55
3, 87576, Note_on_c, 1, 64, 0
3, 87600, Note_on_c, 1, 65, 50
3, 87624, Note_on_c, 1, 65, 0
3, 87648, Note_on_c, 1, 64, 50
3, 87672, Note_on_c, 1, 64, 0
3, 87696, Note_on_c, 1, 64, 55
3, 87720, Note_on_c, 1, 64, 0
3, 87744, Note_on_c, 1, 65, 50
3, 87768, Note_on_c, 1, 65, 0
3, 87792, Note_on_c, 1, 67, 50
3, 87816, Note_on_c, 1, 67, 0
3, 87840, Note_on_c, 1, 69, 55
3, 87864, Note_on_c, 1, 69, 0
3, 87984, Program_c, 1, 45
3, 87984, Control_c, 1, 7, 105
3, 87984, Note_on_c, 1, 57, 50
3, 88008, Note_on_c, 1, 57, 0
3, 88272, Note_on_c, 1, 62, 50
3, 88296, Note_on_c, 1, 62, 0
3, 88416, Note_on_c, 1, 57, 47
3, 88440, Note_on_c, 1, 57, 0
3, 88704, Note_on_c, 1, 62, 50
3, 88728, Note_on_c, 1, 62, 0
3, 88848, Note_on_c, 1, 57, 47
3, 88872, Note_on_c, 1, 57, 0
3, 89568, Program_c, 1, 48
3, 89568, Control_c, 1, 7, 123
3, 89568, Note_on_c, 1, 79, 60
3, 89603, Note_on_c, 1, 79, 0
3, 89640, Note_on_c, 1, 67, 50
3, 89652, Note_on_c, 1, 67, 0
3, 89664, Note_on_c, 1, 67, 50
3, 89688, Note_on_c, 1, 67, 0
3, 89712, Note_on_c, 1, 72, 55
3, 89736, Note_on_c, 1, 72, 0
3, 89760, Note_on_c, 1, 74, 50
3, 89784, Note_on_c, 1, 74, 0
3, 89808, Note_on_c, 1, 75, 50
3, 89832, Note_on_c, 1, 75, 0
3, 89856, Note_on_c, 1, 74, 55
3, 89880, Note_on_c, 1, 74, 0
3, 89904, Note_on_c, 1, 75, 50
3, 89928, Note_on_c, 1, 75, 0
3, 89952, Note_on_c, 1, 77, 50
3, 89976, Note_on_c, 1, 77, 0
3, 90000, Note_on_c, 1, 75, 55
3, 90024, Note_on_c, 1, 75, 0
3, 90048, Note_on_c, 1, 71, 50
3, 90072, Note_on_c, 1, 71, 0
3, 90096, Note_on_c, 1, 72, 50
3, 90120, Note_on_c, 1, 72, 0
3, 90144, Note_on_c, 1, 70, 55
3, 90168, Note_on_c, 1, 70, 0
3, 90192, Note_on_c, 1, 70, 50
3, 90216, Note_on_c, 1, 70, 0
3, 90240, Note_on_c, 1, 70, 50
3, 90264, Note_on_c, 1, 70, 0
3, 90288, Note_on_c, 1, 70, 55
3, 90312, Note_on_c, 1, 70, 0
3, 90336, Note_on_c, 1, 70, 50
3, 90360, Note_on_c, 1, 70, 0
3, 90384, Note_on_c, 1, 70, 50
3, 90408, Note_on_c, 1, 70, 0
3, 90432, Note_on_c, 1, 68, 55
3, 90456, Note_on_c, 1, 68, 0
3, 90480, Note_on_c, 1, 67, 50
3, 90504, Note_on_c, 1, 67, 0
3, 90528, Note_on_c, 1, 65, 50
3, 90552, Note_on_c, 1, 65, 0
3, 90576, Note_on_c, 1, 70, 55
3, 90600, Note_on_c, 1, 70, 0
3, 90624, Note_on_c, 1, 70, 50
3, 90648, Note_on_c, 1, 70, 0
3, 90672, Note_on_c, 1, 70, 50
3, 90696, Note_on_c, 1, 70, 0
3, 90720, Note_on_c, 1, 70, 55
3, 90744, Note_on_c, 1, 70, 0
3, 90768, Note_on_c, 1, 75, 50
3, 90792, Note_on_c, 1, 75, 0
3, 90816, Note_on_c, 1, 77, 50
3, 90840, Note_on_c, 1, 77, 0
3, 90864, Note_on_c, 1, 79, 55
3, 90888, Note_on_c, 1, 79, 0
3, 90912, Note_on_c, 1, 77, 50
3, 90936, Note_on_c, 1, 77, 0
3, 90960, Note_on_c, 1, 75, 50
3, 90984, Note_on_c, 1, 75, 0
3, 91008, Note_on_c, 1, 74, 50
3, 91583, Note_on_c, 1, 74, 0
3, 91584, Note_on_c, 1, 70, 55
3, 91608, Note_on_c, 1, 70, 0
3, 91632, Note_on_c, 1, 68, 50
3, 91656, Note_on_c, 1, 68, 0
3, 91680, Note_on_c, 1, 67, 50
3, 91704, Note_on_c, 1, 67, 0
3, 91728, Note_on_c, 1, 79, 55
3, 91752, Note_on_c, 1, 79, 0
3, 91776, Note_on_c, 1, 77, 50
3, 91800, Note_on_c, 1, 77, 0
3, 91824, Note_on_c, 1, 75, 50
3, 91848, Note_on_c, 1, 75, 0
3, 91872, Note_on_c, 1, 82, 55
3, 91896, Note_on_c, 1, 82, 0
3, 91920, Note_on_c, 1, 80, 50
3, 91944, Note_on_c, 1, 80, 0
3, 91968, Note_on_c, 1, 79, 50
3, 91992, Note_on_c, 1, 79, 0
3, 92016, Note_on_c, 1, 79, 55
3, 92040, Note_on_c, 1, 79, 0
3, 92064, Note_on_c, 1, 77, 50
3, 92088, Note_on_c, 1, 77, 0
3, 92112, Note_on_c, 1, 75, 50
3, 92136, Note_on_c, 1, 75, 0
3, 92160, Control_c, 1, 6, 64
3, 92160, Control_c, 1, 11, 50
3, 92160, Note_on_c, 1, 65, 120
3, 92177, Control_c, 1, 11, 51
3, 92193, Control_c, 1, 11, 52
3, 92210, Control_c, 1, 11, 53
3, 92226, Control_c, 1, 11, 54
3, 92243, Control_c, 1, 11, 55
3, 92259, Control_c, 1, 11, 56
3, 92276, Control_c, 1, 11, 57
3, 92292, Control_c, 1, 11, 58
3, 92308, Control_c, 1, 11, 59
3, 92325, Control_c, 1, 11, 60
3, 92341, Control_c, 1, 11, 61
3, 92358, Control_c, 1, 11, 62
3, 92374, Control_c, 1, 11, 63
3, 92391, Control_c, 1, 11, 64
3, 92407, Control_c, 1, 11, 65
3, 92424, Control_c, 1, 11, 66
3, 92440, Control_c, 1, 11, 67
3, 92456, Control_c, 1, 11, 68
3, 92473, Control_c, 1, 11, 69
3, 92489, Control_c, 1, 11, 70
3, 92506, Control_c, 1, 11, 71
3, 92522, Control_c, 1, 11, 72
3, 92539, Control_c, 1, 11, 73
3, 92555, Control_c, 1, 11, 74
3, 92572, Control_c, 1, 11, 75
3, 92588, Control_c, 1, 11, 76
3, 92604, Control_c, 1, 11, 77
3, 92621, Control_c, 1, 11, 78
3, 92637, Control_c, 1, 11, 79
3, 92654, Control_c, 1, 11, 80
3, 92670, Control_c, 1, 11, 81
3, 92687, Control_c, 1, 11, 82
3, 92703, Control_c, 1, 11, 83
3, 92720, Control_c, 1, 11, 84
3, 92735, Note_on_c, 1, 65, 0
3, 92736, Note_on_c, 1, 65, 120
3, 92736, Control_c, 1, 11, 85
3, 92752, Control_c, 1, 11, 86
3, 92769, Control_c, 1, 11, 87
3, 92785, Control_c, 1, 11, 88
3, 92802, Control_c, 1, 11, 89
3, 92818, Control_c, 1, 11, 90
3, 92835, Control_c, 1, 11, 91
3, 92851, Control_c, 1, 11, 92
3, 92868, Control_c, 1, 11, 93
3, 92884, Control_c, 1, 11, 94
3, 92900, Control_c, 1, 11, 95
3, 92917, Control_c, 1, 11, 96
3, 92933, Control_c, 1, 11, 97
3, 92950, Control_c, 1, 11, 98
3, 92966, Control_c, 1, 11, 99
3, 92983, Control_c, 1, 11, 100
3, 92999, Control_c, 1, 11, 101
3, 93016, Control_c, 1, 11, 102
3, 93032, Control_c, 1, 11, 103
3, 93048, Control_c, 1, 11, 104
3, 93065, Control_c, 1, 11, 105
3, 93081, Control_c, 1, 11, 106
3, 93098, Control_c, 1, 11, 107
3, 93114, Control_c, 1, 11, 108
3, 93131, Control_c, 1, 11, 109
3, 93147, Control_c, 1, 11, 110
3, 93164, Control_c, 1, 11, 111
3, 93180, Control_c, 1, 11, 112
3, 93196, Control_c, 1, 11, 113
3, 93213, Control_c, 1, 11, 114
3, 93229, Control_c, 1, 11, 115
3, 93246, Control_c, 1, 11, 116
3, 93262, Control_c, 1, 11, 117
3, 93279, Control_c, 1, 11, 118
3, 93295, Control_c, 1, 11, 119
3, 93311, Note_on_c, 1, 65, 0
3, 93311, Control_c, 1, 11, 120
3, 93312, Control_c, 1, 6, 14
3, 93312, Note_on_c, 1, 69, 120
3, 93312, Note_on_c, 1, 77, 120
3, 93342, Note_on_c, 1, 77, 0
3, 93342, Note_on_c, 1, 69, 0
3, 93600, Note_on_c, 1, 69, 120
3, 93600, Note_on_c, 1, 81, 120
3, 93630, Note_on_c, 1, 81, 0
3, 93630, Note_on_c, 1, 69, 0
3, 93888, Note_on_c, 1, 69, 125
3, 93888, Note_on_c, 1, 81, 125
3, 93923, Note_on_c, 1, 81, 0
3, 93923, Note_on_c, 1, 69, 0
3, 93960, Note_on_c, 1, 69, 115
3, 93972, Note_on_c, 1, 69, 0
3, 93984, Note_on_c, 1, 69, 115
3, 94008, Note_on_c, 1, 69, 0
3, 94032, Note_on_c, 1, 69, 125
3, 94032, Note_on_c, 1, 81, 125
3, 94067, Note_on_c, 1, 81, 0
3, 94067, Note_on_c, 1, 69, 0
3, 94104, Note_on_c, 1, 69, 115
3, 94116, Note_on_c, 1, 69, 0
3, 94128, Note_on_c, 1, 69, 115
3, 94152, Note_on_c, 1, 69, 0
3, 94176, Note_on_c, 1, 69, 125
3, 94176, Note_on_c, 1, 81, 125
3, 94211, Note_on_c, 1, 81, 0
3, 94211, Note_on_c, 1, 69, 0
3, 94248, Note_on_c, 1, 69, 115
3, 94260, Note_on_c, 1, 69, 0
3, 94272, Note_on_c, 1, 69, 115
3, 94296, Note_on_c, 1, 69, 0
3, 94320, Note_on_c, 1, 69, 125
3, 94320, Note_on_c, 1, 81, 125
3, 94355, Note_on_c, 1, 81, 0
3, 94355, Note_on_c, 1, 69, 0
3, 94392, Note_on_c, 1, 69, 115
3, 94404, Note_on_c, 1, 69, 0
3, 94416, Note_on_c, 1, 69, 115
3, 94440, Note_on_c, 1, 69, 0
3, 94464, Note_on_c, 1, 69, 125
3, 94464, Note_on_c, 1, 81, 125
3, 94499, Note_on_c, 1, 81, 0
3, 94499, Note_on_c, 1, 69, 0
3, 94536, Note_on_c, 1, 69, 115
3, 94548, Note_on_c, 1, 69, 0
3, 94560, Note_on_c, 1, 69, 115
3, 94584, Note_on_c, 1, 69, 0
3, 94608, Note_on_c, 1, 74, 120
3, 94632, Note_on_c, 1, 74, 0
3, 94656, Note_on_c, 1, 76, 115
3, 94680, Note_on_c, 1, 76, 0
3, 94704, Note_on_c, 1, 77, 115
3, 94728, Note_on_c, 1, 77, 0
3, 94752, Note_on_c, 1, 76, 120
3, 94776, Note_on_c, 1, 76, 0
3, 94800, Note_on_c, 1, 77, 115
3, 94824, Note_on_c, 1, 77, 0
3, 94848, Note_on_c, 1, 79, 115
3, 94872, Note_on_c, 1, 79, 0
3, 94896, Note_on_c, 1, 77, 120
3, 94920, Note_on_c, 1, 77, 0
3, 94944, Note_on_c, 1, 76, 115
3, 94968, Note_on_c, 1, 76, 0
3, 94992, Note_on_c, 1, 74, 115
3, 95016, Note_on_c, 1, 74, 0
3, 95040, Note_on_c, 1, 70, 120
3, 95064, Note_on_c, 1, 70, 0
3, 95088, Note_on_c, 1, 69, 115
3, 95112, Note_on_c, 1, 69, 0
3, 95136, Note_on_c, 1, 67, 115
3, 95160, Note_on_c, 1, 67, 0
3, 95184, Note_on_c, 1, 65, 120
3, 95208, Note_on_c, 1, 65, 0
3, 95232, Note_on_c, 1, 76, 115
3, 95256, Note_on_c, 1, 76, 0
3, 95280, Note_on_c, 1, 74, 115
3, 95304, Note_on_c, 1, 74, 0
3, 95328, Note_on_c, 1, 73, 120
3, 95352, Note_on_c, 1, 73, 0
3, 95376, Note_on_c, 1, 74, 115
3, 95400, Note_on_c, 1, 74, 0
3, 95424, Note_on_c, 1, 76, 115
3, 95448, Note_on_c, 1, 76, 0
3, 95472, Note_on_c, 1, 74, 120
3, 95496, Note_on_c, 1, 74, 0
3, 95520, Note_on_c, 1, 73, 115
3, 95544, Note_on_c, 1, 73, 0
3, 95568, Note_on_c, 1, 74, 115
3, 95592, Note_on_c, 1, 74, 0
3, 95616, Note_on_c, 1, 70, 120
3, 95640, Note_on_c, 1, 70, 0
3, 95664, Note_on_c, 1, 69, 115
3, 95688, Note_on_c, 1, 69, 0
3, 95712, Note_on_c, 1, 67, 115
3, 95736, Note_on_c, 1, 67, 0
3, 95760, Note_on_c, 1, 65, 120
3, 95784, Note_on_c, 1, 65, 0
3, 95808, Note_on_c, 1, 76, 115
3, 95832, Note_on_c, 1, 76, 0
3, 95856, Note_on_c, 1, 74, 115
3, 95880, Note_on_c, 1, 74, 0
3, 95904, Note_on_c, 1, 73, 120
3, 95928, Note_on_c, 1, 73, 0
3, 95952, Note_on_c, 1, 74, 115
3, 95976, Note_on_c, 1, 74, 0
3, 96000, Note_on_c, 1, 76, 115
3, 96024, Note_on_c, 1, 76, 0
3, 96048, Note_on_c, 1, 74, 120
3, 96072, Note_on_c, 1, 74, 0
3, 96096, Note_on_c, 1, 73, 115
3, 96120, Note_on_c, 1, 73, 0
3, 96144, Note_on_c, 1, 74, 115
3, 96168, Note_on_c, 1, 74, 0
3, 96192, Note_on_c, 1, 72, 120
3, 96216, Note_on_c, 1, 72, 0
3, 96240, Note_on_c, 1, 74, 115
3, 96264, Note_on_c, 1, 74, 0
3, 96288, Note_on_c, 1, 75, 115
3, 96312, Note_on_c, 1, 75, 0
3, 96336, Note_on_c, 1, 67, 120
3, 96360, Note_on_c, 1, 67, 0
3, 96384, Note_on_c, 1, 69, 115
3, 96408, Note_on_c, 1, 69, 0
3, 96432, Note_on_c, 1, 70, 115
3, 96456, Note_on_c, 1, 70, 0
3, 96480, Note_on_c, 1, 69, 120
3, 96504, Note_on_c, 1, 69, 0
3, 96528, Note_on_c, 1, 70, 115
3, 96552, Note_on_c, 1, 70, 0
3, 96576, Note_on_c, 1, 72, 115
3, 96600, Note_on_c, 1, 72, 0
3, 96624, Note_on_c, 1, 70, 120
3, 96648, Note_on_c, 1, 70, 0
3, 96672, Note_on_c, 1, 69, 115
3, 96696, Note_on_c, 1, 69, 0
3, 96720, Note_on_c, 1, 67, 115
3, 96744, Note_on_c, 1, 67, 0
3, 96768, Note_on_c, 1, 75, 105
3, 96792, Note_on_c, 1, 75, 0
3, 96816, Note_on_c, 1, 74, 100
3, 96840, Note_on_c, 1, 74, 0
3, 96864, Note_on_c, 1, 72, 100
3, 96888, Note_on_c, 1, 72, 0
3, 96912, Note_on_c, 1, 70, 105
3, 96936, Note_on_c, 1, 70, 0
3, 96960, Note_on_c, 1, 69, 100
3, 96984, Note_on_c, 1, 69, 0
3, 97008, Note_on_c, 1, 67, 100
3, 97032, Note_on_c, 1, 67, 0
3, 97056, Note_on_c, 1, 77, 105
3, 97080, Note_on_c, 1, 77, 0
3, 97104, Note_on_c, 1, 75, 100
3, 97128, Note_on_c, 1, 75, 0
3, 97152, Note_on_c, 1, 74, 100
3, 97176, Note_on_c, 1, 74, 0
3, 97200, Note_on_c, 1, 72, 105
3, 97224, Note_on_c, 1, 72, 0
3, 97248, Note_on_c, 1, 70, 100
3, 97272, Note_on_c, 1, 70, 0
3, 97296, Note_on_c, 1, 69, 100
3, 97320, Note_on_c, 1, 69, 0
3, 97344, Note_on_c, 1, 79, 105
3, 97368, Note_on_c, 1, 79, 0
3, 97392, Note_on_c, 1, 77, 100
3, 97416, Note_on_c, 1, 77, 0
3, 97440, Note_on_c, 1, 75, 100
3, 97464, Note_on_c, 1, 75, 0
3, 97488, Note_on_c, 1, 74, 105
3, 97512, Note_on_c, 1, 74, 0
3, 97536, Note_on_c, 1, 72, 100
3, 97560, Note_on_c, 1, 72, 0
3, 97584, Note_on_c, 1, 70, 100
3, 97608, Note_on_c, 1, 70, 0
3, 97632, Note_on_c, 1, 69, 105
3, 97656, Note_on_c, 1, 69, 0
3, 97680, Note_on_c, 1, 67, 100
3, 97704, Note_on_c, 1, 67, 0
3, 97728, Note_on_c, 1, 65, 100
3, 97752, Note_on_c, 1, 65, 0
3, 97776, Note_on_c, 1, 63, 105
3, 97800, Note_on_c, 1, 63, 0
3, 97824, Note_on_c, 1, 62, 100
3, 97848, Note_on_c, 1, 62, 0
3, 97872, Note_on_c, 1, 60, 100
3, 97896, Note_on_c, 1, 60, 0
3, 97920, Note_on_c, 1, 58, 100
3, 97944, Note_on_c, 1, 58, 0
3, 98064, Note_on_c, 1, 77, 65
3, 98099, Note_on_c, 1, 77, 0
3, 98136, Note_on_c, 1, 65, 60
3, 98148, Note_on_c, 1, 65, 0
3, 98160, Note_on_c, 1, 65, 60
3, 98184, Note_on_c, 1, 65, 0
3, 98208, Note_on_c, 1, 77, 65
3, 98243, Note_on_c, 1, 77, 0
3, 98280, Note_on_c, 1, 65, 64
3, 98292, Note_on_c, 1, 65, 0
3, 98304, Note_on_c, 1, 65, 66
3, 98328, Note_on_c, 1, 65, 0
3, 98352, Note_on_c, 1, 75, 75
3, 98387, Note_on_c, 1, 75, 0
3, 98424, Note_on_c, 1, 63, 74
3, 98436, Note_on_c, 1, 63, 0
3, 98448, Note_on_c, 1, 63, 75
3, 98472, Note_on_c, 1, 63, 0
3, 98496, Note_on_c, 1, 75, 84
3, 98531, Note_on_c, 1, 75, 0
3, 98568, Note_on_c, 1, 63, 83
3, 98580, Note_on_c, 1, 63, 0
3, 98592, Note_on_c, 1, 63, 85
3, 98616, Note_on_c, 1, 63, 0
3, 98640, Note_on_c, 1, 77, 90
3, 98675, Note_on_c, 1, 77, 0
3, 98712, Note_on_c, 1, 65, 85
3, 98724, Note_on_c, 1, 65, 0
3, 98736, Note_on_c, 1, 65, 83
3, 98760, Note_on_c, 1, 65, 0
3, 98784, Note_on_c, 1, 77, 79
3, 98819, Note_on_c, 1, 77, 0
3, 98856, Note_on_c, 1, 65, 74
3, 98868, Note_on_c, 1, 65, 0
3, 98880, Note_on_c, 1, 65, 72
3, 98904, Note_on_c, 1, 65, 0
3, 98928, Note_on_c, 1, 77, 68
3, 98963, Note_on_c, 1, 77, 0
3, 99000, Note_on_c, 1, 65, 62
3, 99012, Note_on_c, 1, 65, 0
3, 99024, Note_on_c, 1, 65, 60
3, 99048, Note_on_c, 1, 65, 0
3, 99504, Note_on_c, 1, 81, 60
3, 99539, Note_on_c, 1, 81, 0
3, 99576, Note_on_c, 1, 69, 63
3, 99588, Note_on_c, 1, 69, 0
3, 99600, Note_on_c, 1, 69, 65
3, 99624, Note_on_c, 1, 69, 0
3, 99648, Note_on_c, 1, 79, 67
3, 99683, Note_on_c, 1, 79, 0
3, 99720, Note_on_c, 1, 67, 71
3, 99732, Note_on_c, 1, 67, 0
3, 99744, Note_on_c, 1, 67, 73
3, 99768, Note_on_c, 1, 67, 0
3, 99792, Note_on_c, 1, 79, 75
3, 99827, Note_on_c, 1, 79, 0
3, 99864, Note_on_c, 1, 67, 79
3, 99876, Note_on_c, 1, 67, 0
3, 99888, Note_on_c, 1, 67, 81
3, 99912, Note_on_c, 1, 67, 0
3, 99936, Note_on_c, 1, 79, 83
3, 99971, Note_on_c, 1, 79, 0
3, 100008, Note_on_c, 1, 67, 87
3, 100020, Note_on_c, 1, 67, 0
3, 100032, Note_on_c, 1, 67, 88
3, 100056, Note_on_c, 1, 67, 0
3, 100080, Note_on_c, 1, 78, 90
3, 100115, Note_on_c, 1, 78, 0
3, 100152, Note_on_c, 1, 66, 85
3, 100164, Note_on_c, 1, 66, 0
3, 100176, Note_on_c, 1, 66, 83
3, 100200, Note_on_c, 1, 66, 0
3, 100224, Note_on_c, 1, 77, 79
3, 100259, Note_on_c, 1, 77, 0
3, 100296, Note_on_c, 1, 65, 74
3, 100308, Note_on_c, 1, 65, 0
3, 100320, Note_on_c, 1, 65, 72
3, 100344, Note_on_c, 1, 65, 0
3, 100368, Note_on_c, 1, 76, 68
3, 100403, Note_on_c, 1, 76, 0
3, 100440, Note_on_c, 1, 64, 62
3, 100452, Note_on_c, 1, 64, 0
3, 100464, Note_on_c, 1, 64, 60
3, 100488, Note_on_c, 1, 64, 0
3, 100800, Note_on_c, 1, 70, 60
3, 100835, Note_on_c, 1, 70, 0
3, 100872, Note_on_c, 1, 58, 65
3, 100884, Note_on_c, 1, 58, 0
3, 100896, Note_on_c, 1, 58, 67
3, 100920, Note_on_c, 1, 58, 0
3, 100944, Note_on_c, 1, 70, 71
3, 100979, Note_on_c, 1, 70, 0
3, 101016, Note_on_c, 1, 58, 76
3, 101028, Note_on_c, 1, 58, 0
3, 101040, Note_on_c, 1, 58, 78
3, 101064, Note_on_c, 1, 58, 0
3, 101088, Note_on_c, 1, 69, 82
3, 101123, Note_on_c, 1, 69, 0
3, 101160, Note_on_c, 1, 57, 88
3, 101172, Note_on_c, 1, 57, 0
3, 101184, Note_on_c, 1, 57, 90
3, 101208, Note_on_c, 1, 57, 0
3, 101232, Note_on_c, 1, 69, 90
3, 101267, Note_on_c, 1, 69, 0
3, 101304, Note_on_c, 1, 57, 85
3, 101316, Note_on_c, 1, 57, 0
3, 101328, Note_on_c, 1, 57, 83
3, 101352, Note_on_c, 1, 57, 0
3, 101376, Note_on_c, 1, 68, 79
3, 101411, Note_on_c, 1, 68, 0
3, 101448, Note_on_c, 1, 56, 74
3, 101460, Note_on_c, 1, 56, 0
3, 101472, Note_on_c, 1, 56, 72
3, 101496, Note_on_c, 1, 56, 0
3, 101520, Note_on_c, 1, 69, 68
3, 101555, Note_on_c, 1, 69, 0
3, 101592, Note_on_c, 1, 57, 62
3, 101604, Note_on_c, 1, 57, 0
3, 101616, Note_on_c, 1, 57, 60
3, 101640, Note_on_c, 1, 57, 0
3, 101664, Program_c, 1, 45
3, 101664, Control_c, 1, 7, 105
3, 101760, Note_on_c, 1, 57, 60
3, 101784, Note_on_c, 1, 57, 0
3, 101904, Note_on_c, 1, 69, 67
3, 101928, Note_on_c, 1, 69, 0
3, 102048, Note_on_c, 1, 75, 74
3, 102072, Note_on_c, 1, 75, 0
3, 102192, Note_on_c, 1, 76, 81
3, 102216, Note_on_c, 1, 76, 0
3, 102336, Note_on_c, 1, 69, 89
3, 102360, Note_on_c, 1, 69, 0
3, 102480, Note_on_c, 1, 69, 96
3, 102504, Note_on_c, 1, 69, 0
3, 102624, Note_on_c, 1, 74, 103
3, 102648, Note_on_c, 1, 74, 0
3, 102768, Note_on_c, 1, 69, 111
3, 102792, Note_on_c, 1, 69, 0
3, 102816, Program_c, 1, 48
3, 102816, Control_c, 1, 7, 123
3, 102816, Note_on_c, 1, 74, 120
3, 102851, Note_on_c, 1, 74, 0
3, 102890, Note_on_c, 1, 62, 113
3, 102902, Note_on_c, 1, 62, 0
3, 102914, Note_on_c, 1, 62, 113
3, 102938, Note_on_c, 1, 62, 0
3, 102962, Note_on_c, 1, 74, 120
3, 102997, Note_on_c, 1, 74, 0
3, 103034, Note_on_c, 1, 62, 113
3, 103046, Note_on_c, 1, 62, 0
3, 103058, Note_on_c, 1, 62, 113
3, 103082, Note_on_c, 1, 62, 0
3, 103106, Note_on_c, 1, 74, 120
3, 103141, Note_on_c, 1, 74, 0
3, 103178, Note_on_c, 1, 62, 113
3, 103190, Note_on_c, 1, 62, 0
3, 103202, Note_on_c, 1, 62, 113
3, 103226, Note_on_c, 1, 62, 0
3, 103250, Note_on_c, 1, 74, 120
3, 103285, Note_on_c, 1, 74, 0
3, 103322, Note_on_c, 1, 62, 113
3, 103334, Note_on_c, 1, 62, 0
3, 103346, Note_on_c, 1, 62, 113
3, 103370, Note_on_c, 1, 62, 0
3, 103394, Note_on_c, 1, 74, 120
3, 103429, Note_on_c, 1, 74, 0
3, 103466, Note_on_c, 1, 62, 113
3, 103478, Note_on_c, 1, 62, 0
3, 103490, Note_on_c, 1, 62, 113
3, 103514, Note_on_c, 1, 62, 0
3, 103538, Note_on_c, 1, 74, 120
3, 103573, Note_on_c, 1, 74, 0
3, 103610, Note_on_c, 1, 62, 113
3, 103622, Note_on_c, 1, 62, 0
3, 103634, Note_on_c, 1, 62, 113
3, 103658, Note_on_c, 1, 62, 0
3, 103682, Note_on_c, 1, 74, 120
3, 103717, Note_on_c, 1, 74, 0
3, 103754, Note_on_c, 1, 62, 113
3, 103766, Note_on_c, 1, 62, 0
3, 103778, Note_on_c, 1, 62, 113
3, 103802, Note_on_c, 1, 62, 0
3, 103826, Note_on_c, 1, 74, 120
3, 103861, Note_on_c, 1, 74, 0
3, 103898, Note_on_c, 1, 62, 113
3, 103910, Note_on_c, 1, 62, 0
3, 103922, Note_on_c, 1, 62, 113
3, 103946, Note_on_c, 1, 62, 0
3, 103970, Note_on_c, 1, 74, 120
3, 104005, Note_on_c, 1, 74, 0
3, 104042, Note_on_c, 1, 62, 113
3, 104054, Note_on_c, 1, 62, 0
3, 104066, Note_on_c, 1, 62, 113
3, 104090, Note_on_c, 1, 62, 0
3, 104114, Note_on_c, 1, 74, 120
3, 104149, Note_on_c, 1, 74, 0
3, 104186, Note_on_c, 1, 62, 113
3, 104198, Note_on_c, 1, 62, 0
3, 104210, Note_on_c, 1, 62, 113
3, 104234, Note_on_c, 1, 62, 0
3, 104258, Note_on_c, 1, 74, 120
3, 104293, Note_on_c, 1, 74, 0
3, 104330, Note_on_c, 1, 62, 113
3, 104342, Note_on_c, 1, 62, 0
3, 104354, Note_on_c, 1, 62, 113
3, 104378, Note_on_c, 1, 62, 0
3, 104402, Note_on_c, 1, 74, 120
3, 104437, Note_on_c, 1, 74, 0
3, 104474, Note_on_c, 1, 62, 113
3, 104486, Note_on_c, 1, 62, 0
3, 104498, Note_on_c, 1, 62, 113
3, 104522, Note_on_c, 1, 62, 0
3, 104546, Note_on_c, 1, 74, 120
3, 104581, Note_on_c, 1, 74, 0
3, 104618, Note_on_c, 1, 62, 113
3, 104630, Note_on_c, 1, 62, 0
3, 104642, Note_on_c, 1, 62, 113
3, 104666, Note_on_c, 1, 62, 0
3, 104690, Note_on_c, 1, 74, 120
3, 104725, Note_on_c, 1, 74, 0
3, 104762, Note_on_c, 1, 62, 113
3, 104774, Note_on_c, 1, 62, 0
3, 104786, Note_on_c, 1, 62, 113
3, 104810, Note_on_c, 1, 62, 0
3, 104834, Note_on_c, 1, 74, 120
3, 104869, Note_on_c, 1, 74, 0
3, 104906, Note_on_c, 1, 62, 113
3, 104918, Note_on_c, 1, 62, 0
3, 104930, Note_on_c, 1, 62, 113
3, 104954, Note_on_c, 1, 62, 0
3, 104978, Note_on_c, 1, 74, 120
3, 105013, Note_on_c, 1, 74, 0
3, 105050, Note_on_c, 1, 62, 113
3, 105062, Note_on_c, 1, 62, 0
3, 105074, Note_on_c, 1, 62, 113
3, 105098, Note_on_c, 1, 62, 0
3, 105120, Note_on_c, 1, 62, 120
3, 105120, Note_on_c, 1, 74, 120
3, 105144, Note_on_c, 1, 74, 0
3, 105144, Note_on_c, 1, 62, 0
3, 105408, Note_on_c, 1, 70, 118
3, 105443, Note_on_c, 1, 70, 0
3, 105480, Note_on_c, 1, 58, 113
3, 105492, Note_on_c, 1, 58, 0
3, 105504, Note_on_c, 1, 58, 113
3, 105528, Note_on_c, 1, 58, 0
3, 105552, Note_on_c, 1, 70, 118
3, 105576, Note_on_c, 1, 70, 0
3, 105600, Note_on_c, 1, 67, 113
3, 105624, Note_on_c, 1, 67, 0
3, 105648, Note_on_c, 1, 65, 113
3, 105672, Note_on_c, 1, 65, 0
3, 105696, Note_on_c, 1, 64, 118
3, 105720, Note_on_c, 1, 64, 0
3, 105984, Note_on_c, 1, 81, 118
3, 106019, Note_on_c, 1, 81, 0
3, 106056, Note_on_c, 1, 69, 113
3, 106068, Note_on_c, 1, 69, 0
3, 106080, Note_on_c, 1, 69, 113
3, 106104, Note_on_c, 1, 69, 0
3, 106128, Note_on_c, 1, 81, 118
3, 106152, Note_on_c, 1, 81, 0
3, 106176, Note_on_c, 1, 77, 113
3, 106200, Note_on_c, 1, 77, 0
3, 106224, Note_on_c, 1, 76, 113
3, 106248, Note_on_c, 1, 76, 0
3, 106272, Control_c, 1, 6, 64
3, 106272, Control_c, 1, 11, 60
3, 106272, Note_on_c, 1, 62, 100
3, 106320, Note_on_c, 1, 62, 0
3, 106320, Note_on_c, 1, 64, 100
3, 106368, Note_on_c, 1, 64, 0
3, 106368, Note_on_c, 1, 66, 100
3, 106416, Note_on_c, 1, 66, 0
3, 106416, Note_on_c, 1, 67, 100
3, 106560, Control_c, 1, 11, 60
3, 106575, Control_c, 1, 11, 61
3, 106589, Control_c, 1, 11, 62
3, 106604, Control_c, 1, 11, 63
3, 106608, Note_on_c, 1, 67, 0
3, 106608, Note_on_c, 1, 65, 100
3, 106618, Control_c, 1, 11, 64
3, 106632, Control_c, 1, 11, 65
3, 106647, Control_c, 1, 11, 66
3, 106656, Note_on_c, 1, 65, 0
3, 106656, Note_on_c, 1, 63, 100
3, 106661, Control_c, 1, 11, 67
3, 106675, Control_c, 1, 11, 68
3, 106690, Control_c, 1, 11, 69
3, 106704, Note_on_c, 1, 63, 0
3, 106704, Note_on_c, 1, 75, 100
3, 106704, Control_c, 1, 11, 70
3, 106719, Control_c, 1, 11, 71
3, 106733, Control_c, 1, 11, 72
3, 106747, Control_c, 1, 11, 73
3, 106752, Note_on_c, 1, 75, 0
3, 106752, Note_on_c, 1, 77, 100
3, 106762, Control_c, 1, 11, 74
3, 106776, Control_c, 1, 11, 75
3, 106790, Control_c, 1, 11, 76
3, 106800, Note_on_c, 1, 77, 0
3, 106800, Note_on_c, 1, 79, 100
3, 106805, Control_c, 1, 11, 77
3, 106819, Control_c, 1, 11, 78
3, 106833, Control_c, 1, 11, 79
3, 106848, Note_on_c, 1, 79, 0
3, 106848, Note_on_c, 1, 76, 100
3, 106848, Control_c, 1, 11, 80
3, 106862, Control_c, 1, 11, 81
3, 106877, Control_c, 1, 11, 82
3, 106891, Control_c, 1, 11, 83
3, 106896, Note_on_c, 1, 76, 0
3, 106896, Note_on_c, 1, 77, 100
3, 106905, Control_c, 1, 11, 84
3, 106920, Control_c, 1, 11, 85
3, 106934, Control_c, 1, 11, 86
3, 106944, Note_on_c, 1, 77, 0
3, 106944, Note_on_c, 1, 79, 100
3, 106948, Control_c, 1, 11, 87
3, 106963, Control_c, 1, 11, 88
3, 106977, Control_c, 1, 11, 89
3, 106991, Control_c, 1, 11, 90
3, 106992, Note_on_c, 1, 79, 0
3, 106992, Control_c, 1, 11, 90
3, 106992, Note_on_c, 1, 76, 100
3, 106997, Control_c, 1, 11, 89
3, 107002, Control_c, 1, 11, 88
3, 107007, Control_c, 1, 11, 87
3, 107012, Control_c, 1, 11, 86
3, 107016, Control_c, 1, 11, 85
3, 107021, Control_c, 1, 11, 84
3, 107026, Control_c, 1, 11, 83
3, 107031, Control_c, 1, 11, 82
3, 107035, Control_c, 1, 11, 81
3, 107040, Note_on_c, 1, 76, 0
3, 107040, Note_on_c, 1, 74, 100
3, 107040, Control_c, 1, 11, 80
3, 107045, Control_c, 1, 11, 79
3, 107050, Control_c, 1, 11, 78
3, 107054, Control_c, 1, 11, 77
3, 107059, Control_c, 1, 11, 76
3, 107064, Control_c, 1, 11, 75
3, 107069, Control_c, 1, 11, 74
3, 107074, Control_c, 1, 11, 73
3, 107078, Control_c, 1, 11, 72
3, 107083, Control_c, 1, 11, 71
3, 107088, Note_on_c, 1, 74, 0
3, 107088, Note_on_c, 1, 73, 100
3, 107088, Control_c, 1, 11, 70
3, 107093, Control_c, 1, 11, 69
3, 107097, Control_c, 1, 11, 68
3, 107102, Control_c, 1, 11, 67
3, 107107, Control_c, 1, 11, 66
3, 107112, Control_c, 1, 11, 65
3, 107116, Control_c, 1, 11, 64
3, 107121, Control_c, 1, 11, 63
3, 107126, Control_c, 1, 11, 62
3, 107131, Control_c, 1, 11, 61
3, 107135, Control_c, 1, 11, 60
3, 107136, Note_on_c, 1, 73, 0
3, 107712, Control_c, 1, 6, 14
3, 108000, Control_c, 1, 11, 120
3, 108000, Note_on_c, 1, 65, 105
3, 108024, Note_on_c, 1, 65, 0
3, 108048, Note_on_c, 1, 67, 100
3, 108072, Note_on_c, 1, 67, 0
3, 108096, Note_on_c, 1, 74, 100
3, 108120, Note_on_c, 1, 74, 0
3, 108144, Note_on_c, 1, 74, 105
3, 108144, Note_on_c, 1, 76, 105
3, 108168, Note_on_c, 1, 76, 0
3, 108168, Note_on_c, 1, 74, 0
3, 108192, Note_on_c, 1, 73, 100
3, 108192, Note_on_c, 1, 76, 100
3, 108216, Note_on_c, 1, 76, 0
3, 108216, Note_on_c, 1, 73, 0
3, 108240, Note_on_c, 1, 65, 100
3, 108240, Note_on_c, 1, 74, 100
3, 108264, Note_on_c, 1, 74, 0
3, 108264, Note_on_c, 1, 65, 0
3, 108288, Note_on_c, 1, 65, 110
3, 108288, Note_on_c, 1, 74, 110
3, 108312, Note_on_c, 1, 74, 0
3, 108312, Note_on_c, 1, 65, 0
3, 108576, Note_on_c, 1, 74, 105
3, 108600, Note_on_c, 1, 74, 0
3, 108624, Note_on_c, 1, 86, 100
3, 108648, Note_on_c, 1, 86, 0
3, 108672, Note_on_c, 1, 86, 100
3, 108696, Note_on_c, 1, 86, 0
3, 108720, Note_on_c, 1, 88, 105
3, 108744, Note_on_c, 1, 88, 0
3, 108768, Note_on_c, 1, 73, 100
3, 108792, Note_on_c, 1, 73, 0
3, 108816, Note_on_c, 1, 77, 100
3, 108840, Note_on_c, 1, 77, 0
3, 108864, Note_on_c, 1, 74, 110
3, 108899, Note_on_c, 1, 74, 0
3, 108936, Note_on_c, 1, 62, 100
3, 108948, Note_on_c, 1, 62, 0
3, 108960, Note_on_c, 1, 62, 100
3, 108984, Note_on_c, 1, 62, 0
3, 109008, Note_on_c, 1, 57, 105
3, 109032, Note_on_c, 1, 57, 0
3, 109152, Note_on_c, 1, 74, 110
3, 109187, Note_on_c, 1, 74, 0
3, 109224, Note_on_c, 1, 62, 100
3, 109236, Note_on_c, 1, 62, 0
3, 109248, Note_on_c, 1, 62, 100
3, 109272, Note_on_c, 1, 62, 0
3, 109296, Note_on_c, 1, 57, 105
3, 109320, Note_on_c, 1, 57, 0
3, 109578, Control_c, 1, 6, 64
3, 109584, Note_on_c, 1, 64, 49
3, 109632, Note_on_c, 1, 64, 0
3, 109632, Note_on_c, 1, 61, 46
3, 109680, Note_on_c, 1, 61, 0
3, 109680, Note_on_c, 1, 55, 40
3, 109728, Note_on_c, 1, 55, 0
3, 109728, Note_on_c, 1, 61, 49
3, 109776, Note_on_c, 1, 61, 0
3, 109776, Note_on_c, 1, 64, 49
3, 109824, Note_on_c, 1, 64, 0
3, 109824, Note_on_c, 1, 67, 52
3, 109872, Note_on_c, 1, 67, 0
3, 109872, Note_on_c, 1, 64, 49
3, 109920, Note_on_c, 1, 64, 0
3, 109920, Note_on_c, 1, 67, 52
3, 109968, Note_on_c, 1, 67, 0
3, 109968, Note_on_c, 1, 73, 58
3, 110016, Note_on_c, 1, 73, 0
3, 110016, Control_c, 1, 6, 14
3, 110016, Note_on_c, 1, 69, 60
3, 110051, Note_on_c, 1, 69, 0
3, 110088, Note_on_c, 1, 57, 50
3, 110100, Note_on_c, 1, 57, 0
3, 110112, Note_on_c, 1, 57, 50
3, 110136, Note_on_c, 1, 57, 0
3, 110160, Note_on_c, 1, 57, 55
3, 110184, Note_on_c, 1, 57, 0
3, 110304, Note_on_c, 1, 69, 60
3, 110339, Note_on_c, 1, 69, 0
3, 110376, Note_on_c, 1, 57, 50
3, 110388, Note_on_c, 1, 57, 0
3, 110400, Note_on_c, 1, 57, 50
3, 110424, Note_on_c, 1, 57, 0
3, 110448, Note_on_c, 1, 57, 55
3, 110472, Note_on_c, 1, 57, 0
3, 111168, Note_on_c, 1, 69, 55
3, 111203, Note_on_c, 1, 69, 0
3, 111240, Note_on_c, 1, 57, 54
3, 111252, Note_on_c, 1, 57, 0
3, 111264, Note_on_c, 1, 57, 56
3, 111288, Note_on_c, 1, 57, 0
3, 111312, Note_on_c, 1, 57, 59
3, 111336, Note_on_c, 1, 57, 0
3, 111456, Note_on_c, 1, 69, 73
3, 111491, Note_on_c, 1, 69, 0
3, 111528, Note_on_c, 1, 57, 72
3, 111540, Note_on_c, 1, 57, 0
3, 111552, Note_on_c, 1, 57, 74
3, 111576, Note_on_c, 1, 57, 0
3, 111600, Note_on_c, 1, 57, 77
3, 111624, Note_on_c, 1, 57, 0
3, 111744, Note_on_c, 1, 62, 86
3, 111779, Note_on_c, 1, 62, 0
3, 111816, Note_on_c, 1, 65, 90
3, 111828, Note_on_c, 1, 65, 0
3, 111840, Note_on_c, 1, 65, 92
3, 111864, Note_on_c, 1, 65, 0
3, 111888, Note_on_c, 1, 67, 95
3, 111912, Note_on_c, 1, 67, 0
3, 112032, Note_on_c, 1, 67, 104
3, 112067, Note_on_c, 1, 67, 0
3, 112104, Note_on_c, 1, 74, 108
3, 112116, Note_on_c, 1, 74, 0
3, 112128, Note_on_c, 1, 74, 110
3, 112152, Note_on_c, 1, 74, 0
3, 112176, Note_on_c, 1, 64, 113
3, 112176, Note_on_c, 1, 73, 113
3, 112200, Note_on_c, 1, 73, 0
3, 112200, Note_on_c, 1, 64, 0
3, 112368, Note_on_c, 1, 64, 55
3, 112392, Note_on_c, 1, 64, 0
3, 112416, Note_on_c, 1, 65, 50
3, 112440, Note_on_c, 1, 65, 0
3, 112464, Note_on_c, 1, 67, 50
3, 112488, Note_on_c, 1, 67, 0
3, 112512, Note_on_c, 1, 69, 55
3, 112536, Note_on_c, 1, 69, 0
3, 112560, Note_on_c, 1, 67, 50
3, 112584, Note_on_c, 1, 67, 0
3, 112608, Note_on_c, 1, 65, 50
3, 112632, Note_on_c, 1, 65, 0
3, 112656, Note_on_c, 1, 66, 55
3, 112680, Note_on_c, 1, 66, 0
3, 112704, Note_on_c, 1, 67, 50
3, 112728, Note_on_c, 1, 67, 0
3, 112752, Note_on_c, 1, 69, 50
3, 112776, Note_on_c, 1, 69, 0
3, 112800, Note_on_c, 1, 70, 55
3, 112824, Note_on_c, 1, 70, 0
3, 112848, Note_on_c, 1, 69, 50
3, 112872, Note_on_c, 1, 69, 0
3, 112896, Note_on_c, 1, 67, 50
3, 112920, Note_on_c, 1, 67, 0
3, 112944, Note_on_c, 1, 64, 55
3, 112968, Note_on_c, 1, 64, 0
3, 112992, Note_on_c, 1, 65, 50
3, 113016, Note_on_c, 1, 65, 0
3, 113040, Note_on_c, 1, 67, 50
3, 113064, Note_on_c, 1, 67, 0
3, 113088, Note_on_c, 1, 69, 55
3, 113112, Note_on_c, 1, 69, 0
3, 113136, Note_on_c, 1, 67, 50
3, 113160, Note_on_c, 1, 67, 0
3, 113184, Note_on_c, 1, 65, 50
3, 113208, Note_on_c, 1, 65, 0
3, 113232, Note_on_c, 1, 66, 55
3, 113256, Note_on_c, 1, 66, 0
3, 113280, Note_on_c, 1, 67, 50
3, 113304, Note_on_c, 1, 67, 0
3, 113328, Note_on_c, 1, 69, 50
3, 113352, Note_on_c, 1, 69, 0
3, 113376, Note_on_c, 1, 70, 55
3, 113400, Note_on_c, 1, 70, 0
3, 113424, Note_on_c, 1, 69, 50
3, 113448, Note_on_c, 1, 69, 0
3, 113472, Note_on_c, 1, 67, 50
3, 113496, Note_on_c, 1, 67, 0
3, 113520, Note_on_c, 1, 81, 60
3, 113555, Note_on_c, 1, 81, 0
3, 113592, Note_on_c, 1, 69, 54
3, 113604, Note_on_c, 1, 69, 0
3, 113616, Note_on_c, 1, 69, 55
3, 113640, Note_on_c, 1, 69, 0
3, 113664, Note_on_c, 1, 74, 62
3, 113688, Note_on_c, 1, 74, 0
3, 113712, Note_on_c, 1, 76, 61
3, 113736, Note_on_c, 1, 76, 0
3, 113760, Note_on_c, 1, 77, 64
3, 113784, Note_on_c, 1, 77, 0
3, 113808, Note_on_c, 1, 81, 76
3, 113843, Note_on_c, 1, 81, 0
3, 113880, Note_on_c, 1, 69, 71
3, 113892, Note_on_c, 1, 69, 0
3, 113904, Note_on_c, 1, 69, 72
3, 113928, Note_on_c, 1, 69, 0
3, 113952, Note_on_c, 1, 74, 75
3, 113976, Note_on_c, 1, 74, 0
3, 114000, Note_on_c, 1, 76, 78
3, 114024, Note_on_c, 1, 76, 0
3, 114048, Note_on_c, 1, 77, 80
3, 114072, Note_on_c, 1, 77, 0
3, 114096, Note_on_c, 1, 81, 93
3, 114131, Note_on_c, 1, 81, 0
3, 114168, Note_on_c, 1, 69, 87
3, 114180, Note_on_c, 1, 69, 0
3, 114192, Note_on_c, 1, 69, 89
3, 114216, Note_on_c, 1, 69, 0
3, 114240, Note_on_c, 1, 74, 92
3, 114264, Note_on_c, 1, 74, 0
3, 114288, Note_on_c, 1, 76, 95
3, 114312, Note_on_c, 1, 76, 0
3, 114336, Note_on_c, 1, 77, 97
3, 114360, Note_on_c, 1, 77, 0
3, 114384, Note_on_c, 1, 81, 110
3, 114419, Note_on_c, 1, 81, 0
3, 114456, Note_on_c, 1, 69, 104
3, 114468, Note_on_c, 1, 69, 0
3, 114480, Note_on_c, 1, 69, 106
3, 114504, Note_on_c, 1, 69, 0
3, 114528, Note_on_c, 1, 74, 109
3, 114552, Note_on_c, 1, 74, 0
3, 114576, Note_on_c, 1, 76, 111
3, 114600, Note_on_c, 1, 76, 0
3, 114624, Note_on_c, 1, 77, 114
3, 114648, Note_on_c, 1, 77, 0
3, 114672, Note_on_c, 1, 81, 125
3, 114696, Note_on_c, 1, 81, 0
3, 114720, Note_on_c, 1, 69, 115
3, 114744, Note_on_c, 1, 69, 0
3, 114768, Note_on_c, 1, 74, 125
3, 114792, Note_on_c, 1, 74, 0
3, 114816, Note_on_c, 1, 62, 115
3, 114840, Note_on_c, 1, 62, 0
3, 114864, Note_on_c, 1, 69, 125
3, 114888, Note_on_c, 1, 69, 0
3, 114912, Note_on_c, 1, 57, 115
3, 114936, Note_on_c, 1, 57, 0
3, 114960, Note_on_c, 1, 81, 125
3, 114984, Note_on_c, 1, 81, 0
3, 115008, Note_on_c, 1, 69, 120
3, 115032, Note_on_c, 1, 69, 0
3, 115056, Note_on_c, 1, 62, 120
3, 115080, Note_on_c, 1, 62, 0
3, 115256, Control_c, 1, 99, 1
3, 115258, Control_c, 1, 98, 99
3, 115260, Control_c, 1, 6, 64
3, 118608, Control_c, 1, 11, 60
3, 118608, Note_on_c, 1, 57, 100
3, 118636, Control_c, 1, 11, 61
3, 118663, Control_c, 1, 11, 62
3, 118690, Control_c, 1, 11, 63
3, 118717, Control_c, 1, 11, 64
3, 118744, Control_c, 1, 11, 65
3, 118771, Control_c, 1, 11, 66
3, 118799, Control_c, 1, 11, 67
3, 118800, Note_on_c, 1, 57, 0
3, 118800, Note_on_c, 1, 56, 100
3, 118826, Control_c, 1, 11, 68
3, 118853, Control_c, 1, 11, 69
3, 118880, Control_c, 1, 11, 70
3, 118896, Note_on_c, 1, 56, 0
3, 118896, Note_on_c, 1, 57, 100
3, 118907, Control_c, 1, 11, 71
3, 118934, Control_c, 1, 11, 72
3, 118962, Control_c, 1, 11, 73
3, 118989, Control_c, 1, 11, 74
3, 118992, Note_on_c, 1, 57, 0
3, 118992, Note_on_c, 1, 59, 100
3, 119016, Control_c, 1, 11, 75
3, 119040, Note_on_c, 1, 59, 0
3, 119040, Note_on_c, 1, 61, 100
3, 119043, Control_c, 1, 11, 76
3, 119070, Control_c, 1, 11, 77
3, 119088, Note_on_c, 1, 61, 0
3, 119088, Note_on_c, 1, 62, 100
3, 119097, Control_c, 1, 11, 78
3, 119125, Control_c, 1, 11, 79
3, 119136, Note_on_c, 1, 62, 0
3, 119136, Note_on_c, 1, 61, 100
3, 119152, Control_c, 1, 11, 80
3, 119179, Control_c, 1, 11, 81
3, 119184, Note_on_c, 1, 61, 0
3, 119184, Note_on_c, 1, 62, 100
3, 119206, Control_c, 1, 11, 82
3, 119232, Note_on_c, 1, 62, 0
3, 119232, Note_on_c, 1, 64, 100
3, 119233, Control_c, 1, 11, 83
3, 119260, Control_c, 1, 11, 84
3, 119280, Note_on_c, 1, 64, 0
3, 119280, Note_on_c, 1, 57, 100
3, 119288, Control_c, 1, 11, 85
3, 119315, Control_c, 1, 11, 86
3, 119328, Note_on_c, 1, 57, 0
3, 119328, Note_on_c, 1, 69, 100
3, 119342, Control_c, 1, 11, 87
3, 119369, Control_c, 1, 11, 88
3, 119376, Note_on_c, 1, 69, 0
3, 119376, Control_c, 1, 11, 88
3, 119376, Note_on_c, 1, 55, 100
3, 119376, Note_on_c, 1, 67, 100
3, 119381, Control_c, 1, 11, 87
3, 119385, Control_c, 1, 11, 86
3, 119389, Control_c, 1, 11, 85
3, 119393, Control_c, 1, 11, 84
3, 119397, Control_c, 1, 11, 83
3, 119401, Control_c, 1, 11, 82
3, 119405, Control_c, 1, 11, 81
3, 119410, Control_c, 1, 11, 80
3, 119414, Control_c, 1, 11, 79
3, 119418, Control_c, 1, 11, 78
3, 119422, Control_c, 1, 11, 77
3, 119424, Note_on_c, 1, 67, 0
3, 119424, Note_on_c, 1, 55, 0
3, 119424, Note_on_c, 1, 71, 100
3, 119426, Control_c, 1, 11, 76
3, 119430, Control_c, 1, 11, 75
3, 119434, Control_c, 1, 11, 74
3, 119438, Control_c, 1, 11, 73
3, 119443, Control_c, 1, 11, 72
3, 119447, Control_c, 1, 11, 71
3, 119451, Control_c, 1, 11, 70
3, 119455, Control_c, 1, 11, 69
3, 119459, Control_c, 1, 11, 68
3, 119463, Control_c, 1, 11, 67
3, 119467, Control_c, 1, 11, 66
3, 119471, Control_c, 1, 11, 65
3, 119472, Note_on_c, 1, 71, 0
3, 119472, Control_c, 1, 11, 60
3, 119472, Note_on_c, 1, 62, 100
3, 119472, Note_on_c, 1, 74, 100
3, 119520, Note_on_c, 1, 74, 0
3, 119520, Note_on_c, 1, 62, 0
3, 119568, Note_on_c, 1, 76, 100
3, 119568, Note_on_c, 1, 73, 100
3, 119616, Note_on_c, 1, 73, 0
3, 119616, Note_on_c, 1, 76, 0
3, 119664, Note_on_c, 1, 66, 100
3, 119664, Note_on_c, 1, 74, 100
3, 119712, Note_on_c, 1, 74, 0
3, 119712, Note_on_c, 1, 66, 0
3, 120096, Control_c, 1, 11, 60
3, 120096, Note_on_c, 1, 69, 100
3, 120125, Control_c, 1, 11, 61
3, 120144, Note_on_c, 1, 69, 0
3, 120144, Note_on_c, 1, 68, 100
3, 120154, Control_c, 1, 11, 62
3, 120183, Control_c, 1, 11, 63
3, 120192, Note_on_c, 1, 68, 0
3, 120192, Note_on_c, 1, 69, 100
3, 120212, Control_c, 1, 11, 64
3, 120240, Note_on_c, 1, 69, 0
3, 120240, Note_on_c, 1, 71, 100
3, 120240, Control_c, 1, 11, 65
3, 120269, Control_c, 1, 11, 66
3, 120288, Note_on_c, 1, 71, 0
3, 120288, Note_on_c, 1, 64, 100
3, 120298, Control_c, 1, 11, 67
3, 120327, Control_c, 1, 11, 68
3, 120336, Note_on_c, 1, 64, 0
3, 120336, Note_on_c, 1, 66, 100
3, 120355, Control_c, 1, 11, 69
3, 120384, Note_on_c, 1, 66, 0
3, 120384, Note_on_c, 1, 68, 100
3, 120384, Control_c, 1, 11, 70
3, 120413, Control_c, 1, 11, 71
3, 120432, Note_on_c, 1, 68, 0
3, 120432, Note_on_c, 1, 69, 100
3, 120442, Control_c, 1, 11, 72
3, 120470, Control_c, 1, 11, 73
3, 120480, Note_on_c, 1, 69, 0
3, 120499, Control_c, 1, 11, 74
3, 120528, Note_on_c, 1, 66, 100
3, 120528, Control_c, 1, 11, 75
3, 120557, Control_c, 1, 11, 76
3, 120576, Note_on_c, 1, 66, 0
3, 120576, Note_on_c, 1, 67, 100
3, 120586, Control_c, 1, 11, 77
3, 120614, Control_c, 1, 11, 78
3, 120624, Note_on_c, 1, 67, 0
3, 120624, Note_on_c, 1, 69, 100
3, 120643, Control_c, 1, 11, 79
3, 120672, Note_on_c, 1, 69, 0
3, 120672, Note_on_c, 1, 67, 100
3, 120672, Control_c, 1, 11, 80
3, 120701, Control_c, 1, 11, 81
3, 120720, Note_on_c, 1, 67, 0
3, 120720, Note_on_c, 1, 62, 100
3, 120729, Control_c, 1, 11, 82
3, 120758, Control_c, 1, 11, 83
3, 120768, Note_on_c, 1, 62, 0
3, 120768, Note_on_c, 1, 73, 100
3, 120787, Control_c, 1, 11, 84
3, 120816, Note_on_c, 1, 73, 0
3, 120816, Note_on_c, 1, 74, 100
3, 120816, Control_c, 1, 11, 85
3, 120844, Control_c, 1, 11, 86
3, 120864, Note_on_c, 1, 74, 0
3, 120864, Note_on_c, 1, 62, 100
3, 120873, Control_c, 1, 11, 87
3, 120902, Control_c, 1, 11, 88
3, 120912, Note_on_c, 1, 62, 0
3, 120912, Control_c, 1, 11, 88
3, 120912, Note_on_c, 1, 67, 100
3, 120917, Control_c, 1, 11, 87
3, 120921, Control_c, 1, 11, 86
3, 120925, Control_c, 1, 11, 85
3, 120929, Control_c, 1, 11, 84
3, 120933, Control_c, 1, 11, 83
3, 120937, Control_c, 1, 11, 82
3, 120941, Control_c, 1, 11, 81
3, 120946, Control_c, 1, 11, 80
3, 120950, Control_c, 1, 11, 79
3, 120954, Control_c, 1, 11, 78
3, 120958, Control_c, 1, 11, 77
3, 120960, Note_on_c, 1, 67, 0
3, 120960, Note_on_c, 1, 71, 100
3, 120962, Control_c, 1, 11, 76
3, 120966, Control_c, 1, 11, 75
3, 120970, Control_c, 1, 11, 74
3, 120974, Control_c, 1, 11, 73
3, 120979, Control_c, 1, 11, 72
3, 120983, Control_c, 1, 11, 71
3, 120987, Control_c, 1, 11, 70
3, 120991, Control_c, 1, 11, 69
3, 120995, Control_c, 1, 11, 68
3, 120999, Control_c, 1, 11, 67
3, 121003, Control_c, 1, 11, 66
3, 121007, Control_c, 1, 11, 65
3, 121008, Note_on_c, 1, 71, 0
3, 121008, Control_c, 1, 11, 60
3, 121008, Note_on_c, 1, 74, 100
3, 121056, Note_on_c, 1, 74, 0
3, 121104, Note_on_c, 1, 69, 100
3, 121152, Note_on_c, 1, 69, 0
3, 121200, Note_on_c, 1, 69, 100
3, 121248, Note_on_c, 1, 69, 0
3, 122064, Control_c, 1, 11, 120
3, 122064, Note_on_c, 1, 74, 68
3, 122088, Note_on_c, 1, 74, 0
3, 122112, Note_on_c, 1, 73, 67
3, 122136, Note_on_c, 1, 73, 0
3, 122160, Note_on_c, 1, 74, 68
3, 122184, Note_on_c, 1, 74, 0
3, 122208, Note_on_c, 1, 71, 65
3, 122232, Note_on_c, 1, 71, 0
3, 122256, Note_on_c, 1, 69, 63
3, 122280, Note_on_c, 1, 69, 0
3, 122304, Note_on_c, 1, 67, 61
3, 122328, Note_on_c, 1, 67, 0
3, 122352, Note_on_c, 1, 66, 60
3, 122376, Note_on_c, 1, 66, 0
3, 122400, Note_on_c, 1, 64, 58
3, 122424, Note_on_c, 1, 64, 0
3, 122448, Note_on_c, 1, 62, 56
3, 122472, Note_on_c, 1, 62, 0
3, 122496, Note_on_c, 1, 60, 54
3, 122520, Note_on_c, 1, 60, 0
3, 122544, Note_on_c, 1, 59, 53
3, 122568, Note_on_c, 1, 59, 0
3, 122592, Note_on_c, 1, 61, 55
3, 122616, Note_on_c, 1, 61, 0
3, 122640, Note_on_c, 1, 62, 56
3, 122664, Note_on_c, 1, 62, 0
3, 122688, Note_on_c, 1, 66, 60
3, 122712, Note_on_c, 1, 66, 0
3, 122736, Note_on_c, 1, 69, 63
3, 122760, Note_on_c, 1, 69, 0
3, 123600, Note_on_c, 1, 74, 68
3, 123624, Note_on_c, 1, 74, 0
3, 123648, Note_on_c, 1, 73, 67
3, 123672, Note_on_c, 1, 73, 0
3, 123696, Note_on_c, 1, 74, 68
3, 123720, Note_on_c, 1, 74, 0
3, 123744, Note_on_c, 1, 71, 65
3, 123768, Note_on_c, 1, 71, 0
3, 123792, Note_on_c, 1, 69, 63
3, 123816, Note_on_c, 1, 69, 0
3, 123840, Note_on_c, 1, 67, 61
3, 123864, Note_on_c, 1, 67, 0
3, 123888, Note_on_c, 1, 66, 60
3, 123912, Note_on_c, 1, 66, 0
3, 123936, Note_on_c, 1, 64, 58
3, 123960, Note_on_c, 1, 64, 0
3, 123984, Note_on_c, 1, 62, 56
3, 124008, Note_on_c, 1, 62, 0
3, 124032, Note_on_c, 1, 60, 54
3, 124056, Note_on_c, 1, 60, 0
3, 124080, Note_on_c, 1, 59, 53
3, 124104, Note_on_c, 1, 59, 0
3, 124128, Note_on_c, 1, 61, 55
3, 124152, Note_on_c, 1, 61, 0
3, 124176, Note_on_c, 1, 62, 56
3, 124200, Note_on_c, 1, 62, 0
3, 124224, Note_on_c, 1, 66, 60
3, 124248, Note_on_c, 1, 66, 0
3, 124272, Note_on_c, 1, 69, 63
3, 124296, Note_on_c, 1, 69, 0
3, 128304, Control_c, 1, 11, 90
3, 128304, Note_on_c, 1, 62, 120
3, 128305, Control_c, 1, 11, 86
3, 128306, Control_c, 1, 11, 83
3, 128307, Control_c, 1, 11, 80
3, 128308, Control_c, 1, 11, 78
3, 128309, Control_c, 1, 11, 76
3, 128310, Control_c, 1, 11, 74
3, 128311, Control_c, 1, 11, 72
3, 128312, Control_c, 1, 11, 71
3, 128313, Control_c, 1, 11, 70
3, 128314, Control_c, 1, 11, 69
3, 128315, Control_c, 1, 11, 68
3, 128316, Control_c, 1, 11, 67
3, 128317, Control_c, 1, 11, 66
3, 128318, Control_c, 1, 11, 65
3, 128320, Control_c, 1, 11, 64
3, 128321, Control_c, 1, 11, 63
3, 128324, Control_c, 1, 11, 62
3, 128327, Control_c, 1, 11, 61
3, 128333, Control_c, 1, 11, 60
3, 128496, Control_c, 1, 11, 60
3, 128538, Control_c, 1, 11, 61
3, 128579, Control_c, 1, 11, 62
3, 128588, Note_on_c, 1, 62, 0
3, 128592, Note_on_c, 1, 64, 120
3, 128620, Control_c, 1, 11, 63
3, 128661, Control_c, 1, 11, 64
3, 128684, Note_on_c, 1, 64, 0
3, 128688, Note_on_c, 1, 66, 120
3, 128702, Control_c, 1, 11, 65
3, 128743, Control_c, 1, 11, 66
3, 128784, Control_c, 1, 11, 67
3, 128825, Control_c, 1, 11, 68
3, 128832, Note_on_c, 1, 66, 0
3, 128832, Note_on_c, 1, 67, 120
3, 128856, Note_on_c, 1, 67, 0
3, 128856, Note_on_c, 1, 69, 120
3, 128867, Control_c, 1, 11, 69
3, 128880, Note_on_c, 1, 69, 0
3, 128880, Note_on_c, 1, 67, 120
3, 128904, Note_on_c, 1, 67, 0
3, 128908, Control_c, 1, 11, 70
3, 128928, Note_on_c, 1, 67, 120
3, 128949, Control_c, 1, 11, 71
3, 128952, Note_on_c, 1, 67, 0
3, 128976, Note_on_c, 1, 66, 120
3, 128990, Control_c, 1, 11, 72
3, 129000, Note_on_c, 1, 66, 0
3, 129024, Note_on_c, 1, 66, 120
3, 129031, Control_c, 1, 11, 73
3, 129048, Note_on_c, 1, 66, 0
3, 129072, Note_on_c, 1, 64, 120
3, 129072, Control_c, 1, 11, 74
3, 129113, Control_c, 1, 11, 75
3, 129154, Control_c, 1, 11, 76
3, 129164, Note_on_c, 1, 64, 0
3, 129168, Note_on_c, 1, 62, 120
3, 129195, Control_c, 1, 11, 77
3, 129237, Control_c, 1, 11, 78
3, 129278, Control_c, 1, 11, 79
3, 129319, Control_c, 1, 11, 80
3, 129356, Note_on_c, 1, 62, 0
3, 129360, Note_on_c, 1, 64, 120
3, 129360, Control_c, 1, 11, 81
3, 129401, Control_c, 1, 11, 82
3, 129442, Control_c, 1, 11, 83
3, 129452, Note_on_c, 1, 64, 0
3, 129456, Note_on_c, 1, 66, 120
3, 129483, Control_c, 1, 11, 84
3, 129524, Control_c, 1, 11, 85
3, 129565, Control_c, 1, 11, 86
3, 129600, Note_on_c, 1, 66, 0
3, 129600, Note_on_c, 1, 67, 120
3, 129607, Control_c, 1, 11, 87
3, 129624, Note_on_c, 1, 67, 0
3, 129624, Note_on_c, 1, 69, 120
3, 129648, Note_on_c, 1, 69, 0
3, 129648, Note_on_c, 1, 67, 120
3, 129648, Control_c, 1, 11, 88
3, 129672, Note_on_c, 1, 67, 0
3, 129689, Control_c, 1, 11, 89
3, 129696, Note_on_c, 1, 67, 117
3, 129720, Note_on_c, 1, 67, 0
3, 129730, Control_c, 1, 11, 90
3, 129744, Note_on_c, 1, 66, 120
3, 129768, Note_on_c, 1, 66, 0
3, 129771, Control_c, 1, 11, 91
3, 129792, Note_on_c, 1, 66, 117
3, 129812, Control_c, 1, 11, 92
3, 129816, Note_on_c, 1, 66, 0
3, 129840, Note_on_c, 1, 64, 116
3, 129853, Control_c, 1, 11, 93
3, 129885, Note_on_c, 1, 64, 0
3, 129894, Control_c, 1, 11, 94
3, 129935, Control_c, 1, 11, 95
3, 129936, Note_on_c, 1, 62, 118
3, 130124, Note_on_c, 1, 62, 0
3, 130128, Note_on_c, 1, 64, 120
3, 130220, Note_on_c, 1, 64, 0
3, 130224, Note_on_c, 1, 66, 120
3, 130368, Note_on_c, 1, 66, 0
3, 130368, Note_on_c, 1, 67, 120
3, 130392, Note_on_c, 1, 67, 0
3, 130392, Note_on_c, 1, 69, 120
3, 130416, Note_on_c, 1, 69, 0
3, 130416, Note_on_c, 1, 67, 120
3, 130440, Note_on_c, 1, 67, 0
3, 130464, Note_on_c, 1, 67, 117
3, 130488, Note_on_c, 1, 67, 0
3, 130512, Note_on_c, 1, 66, 120
3, 130536, Note_on_c, 1, 66, 0
3, 130560, Note_on_c, 1, 66, 117
3, 130584, Note_on_c, 1, 66, 0
3, 130608, Note_on_c, 1, 64, 116
3, 130700, Note_on_c, 1, 64, 0
3, 130704, Note_on_c, 1, 62, 120
3, 130892, Note_on_c, 1, 62, 0
3, 130896, Note_on_c, 1, 64, 120
3, 130988, Note_on_c, 1, 64, 0
3, 130992, Note_on_c, 1, 66, 120
3, 131136, Note_on_c, 1, 66, 0
3, 131136, Note_on_c, 1, 67, 120
3, 131160, Note_on_c, 1, 67, 0
3, 131160, Note_on_c, 1, 69, 120
3, 131184, Note_on_c, 1, 69, 0
3, 131184, Note_on_c, 1, 71, 120
3, 131208, Note_on_c, 1, 71, 0
3, 131232, Note_on_c, 1, 71, 120
3, 131256, Note_on_c, 1, 71, 0
3, 131280, Note_on_c, 1, 73, 122
3, 131304, Note_on_c, 1, 73, 0
3, 131328, Note_on_c, 1, 73, 122
3, 131352, Note_on_c, 1, 73, 0
3, 131376, Note_on_c, 1, 74, 123
3, 131400, Note_on_c, 1, 74, 0
3, 131856, Control_c, 1, 11, 60
3, 131856, Note_on_c, 1, 57, 100
3, 131884, Control_c, 1, 11, 61
3, 131911, Control_c, 1, 11, 62
3, 131938, Control_c, 1, 11, 63
3, 131965, Control_c, 1, 11, 64
3, 131992, Control_c, 1, 11, 65
3, 132019, Control_c, 1, 11, 66
3, 132047, Control_c, 1, 11, 67
3, 132048, Note_on_c, 1, 57, 0
3, 132048, Note_on_c, 1, 56, 100
3, 132074, Control_c, 1, 11, 68
3, 132101, Control_c, 1, 11, 69
3, 132128, Control_c, 1, 11, 70
3, 132144, Note_on_c, 1, 56, 0
3, 132144, Note_on_c, 1, 57, 100
3, 132155, Control_c, 1, 11, 71
3, 132182, Control_c, 1, 11, 72
3, 132210, Control_c, 1, 11, 73
3, 132237, Control_c, 1, 11, 74
3, 132240, Note_on_c, 1, 57, 0
3, 132240, Note_on_c, 1, 59, 100
3, 132264, Control_c, 1, 11, 75
3, 132288, Note_on_c, 1, 59, 0
3, 132288, Note_on_c, 1, 61, 100
3, 132291, Control_c, 1, 11, 76
3, 132318, Control_c, 1, 11, 77
3, 132336, Note_on_c, 1, 61, 0
3, 132336, Note_on_c, 1, 62, 100
3, 132345, Control_c, 1, 11, 78
3, 132373, Control_c, 1, 11, 79
3, 132384, Note_on_c, 1, 62, 0
3, 132384, Note_on_c, 1, 61, 100
3, 132400, Control_c, 1, 11, 80
3, 132427, Control_c, 1, 11, 81
3, 132432, Note_on_c, 1, 61, 0
3, 132432, Note_on_c, 1, 62, 100
3, 132454, Control_c, 1, 11, 82
3, 132480, Note_on_c, 1, 62, 0
3, 132480, Note_on_c, 1, 64, 100
3, 132481, Control_c, 1, 11, 83
3, 132508, Control_c, 1, 11, 84
3, 132528, Note_on_c, 1, 64, 0
3, 132528, Note_on_c, 1, 57, 100
3, 132536, Control_c, 1, 11, 85
3, 132563, Control_c, 1, 11, 86
3, 132576, Note_on_c, 1, 57, 0
3, 132576, Note_on_c, 1, 69, 100
3, 132590, Control_c, 1, 11, 87
3, 132617, Control_c, 1, 11, 88
3, 132624, Note_on_c, 1, 69, 0
3, 132624, Control_c, 1, 11, 88
3, 132624, Note_on_c, 1, 55, 100
3, 132624, Note_on_c, 1, 67, 100
3, 132629, Control_c, 1, 11, 87
3, 132633, Control_c, 1, 11, 86
3, 132637, Control_c, 1, 11, 85
3, 132641, Control_c, 1, 11, 84
3, 132645, Control_c, 1, 11, 83
3, 132649, Control_c, 1, 11, 82
3, 132653, Control_c, 1, 11, 81
3, 132658, Control_c, 1, 11, 80
3, 132662, Control_c, 1, 11, 79
3, 132666, Control_c, 1, 11, 78
3, 132670, Control_c, 1, 11, 77
3, 132672, Note_on_c, 1, 67, 0
3, 132672, Note_on_c, 1, 55, 0
3, 132672, Note_on_c, 1, 71, 100
3, 132674, Control_c, 1, 11, 76
3, 132678, Control_c, 1, 11, 75
3, 132682, Control_c, 1, 11, 74
3, 132686, Control_c, 1, 11, 73
3, 132691, Control_c, 1, 11, 72
3, 132695, Control_c, 1, 11, 71
3, 132699, Control_c, 1, 11, 70
3, 132703, Control_c, 1, 11, 69
3, 132707, Control_c, 1, 11, 68
3, 132711, Control_c, 1, 11, 67
3, 132715, Control_c, 1, 11, 66
3, 132719, Control_c, 1, 11, 65
3, 132720, Note_on_c, 1, 71, 0
3, 132720, Control_c, 1, 11, 60
3, 132720, Note_on_c, 1, 62, 100
3, 132720, Note_on_c, 1, 74, 100
3, 132768, Note_on_c, 1, 74, 0
3, 132768, Note_on_c, 1, 62, 0
3, 132816, Note_on_c, 1, 76, 100
3, 132816, Note_on_c, 1, 73, 100
3, 132864, Note_on_c, 1, 73, 0
3, 132864, Note_on_c, 1, 76, 0
3, 132912, Note_on_c, 1, 66, 100
3, 132912, Note_on_c, 1, 74, 100
3, 132960, Note_on_c, 1, 74, 0
3, 132960, Note_on_c, 1, 66, 0
3, 133344, Control_c, 1, 11, 60
3, 133344, Note_on_c, 1, 69, 100
3, 133373, Control_c, 1, 11, 61
3, 133392, Note_on_c, 1, 69, 0
3, 133392, Note_on_c, 1, 68, 100
3, 133402, Control_c, 1, 11, 62
3, 133431, Control_c, 1, 11, 63
3, 133440, Note_on_c, 1, 68, 0
3, 133440, Note_on_c, 1, 69, 100
3, 133460, Control_c, 1, 11, 64
3, 133488, Note_on_c, 1, 69, 0
3, 133488, Note_on_c, 1, 71, 100
3, 133488, Control_c, 1, 11, 65
3, 133517, Control_c, 1, 11, 66
3, 133536, Note_on_c, 1, 71, 0
3, 133536, Note_on_c, 1, 64, 100
3, 133546, Control_c, 1, 11, 67
3, 133575, Control_c, 1, 11, 68
3, 133584, Note_on_c, 1, 64, 0
3, 133584, Note_on_c, 1, 66, 100
3, 133603, Control_c, 1, 11, 69
3, 133632, Note_on_c, 1, 66, 0
3, 133632, Note_on_c, 1, 68, 100
3, 133632, Control_c, 1, 11, 70
3, 133661, Control_c, 1, 11, 71
3, 133680, Note_on_c, 1, 68, 0
3, 133680, Note_on_c, 1, 69, 100
3, 133690, Control_c, 1, 11, 72
3, 133718, Control_c, 1, 11, 73
3, 133728, Note_on_c, 1, 69, 0
3, 133747, Control_c, 1, 11, 74
3, 133776, Note_on_c, 1, 66, 100
3, 133776, Control_c, 1, 11, 75
3, 133805, Control_c, 1, 11, 76
3, 133824, Note_on_c, 1, 66, 0
3, 133824, Note_on_c, 1, 67, 100
3, 133834, Control_c, 1, 11, 77
3, 133862, Control_c, 1, 11, 78
3, 133872, Note_on_c, 1, 67, 0
3, 133872, Note_on_c, 1, 69, 100
3, 133891, Control_c, 1, 11, 79
3, 133920, Note_on_c, 1, 69, 0
3, 133920, Note_on_c, 1, 67, 100
3, 133920, Control_c, 1, 11, 80
3, 133949, Control_c, 1, 11, 81
3, 133968, Note_on_c, 1, 67, 0
3, 133968, Note_on_c, 1, 62, 100
3, 133977, Control_c, 1, 11, 82
3, 134006, Control_c, 1, 11, 83
3, 134016, Note_on_c, 1, 62, 0
3, 134016, Note_on_c, 1, 73, 100
3, 134035, Control_c, 1, 11, 84
3, 134064, Note_on_c, 1, 73, 0
3, 134064, Note_on_c, 1, 74, 100
3, 134064, Control_c, 1, 11, 85
3, 134092, Control_c, 1, 11, 86
3, 134112, Note_on_c, 1, 74, 0
3, 134112, Note_on_c, 1, 62, 100
3, 134121, Control_c, 1, 11, 87
3, 134150, Control_c, 1, 11, 88
3, 134160, Note_on_c, 1, 62, 0
3, 134160, Control_c, 1, 11, 88
3, 134160, Note_on_c, 1, 67, 100
3, 134165, Control_c, 1, 11, 87
3, 134169, Control_c, 1, 11, 86
3, 134173, Control_c, 1, 11, 85
3, 134177, Control_c, 1, 11, 84
3, 134181, Control_c, 1, 11, 83
3, 134185, Control_c, 1, 11, 82
3, 134189, Control_c, 1, 11, 81
3, 134194, Control_c, 1, 11, 80
3, 134198, Control_c, 1, 11, 79
3, 134202, Control_c, 1, 11, 78
3, 134206, Control_c, 1, 11, 77
3, 134208, Note_on_c, 1, 67, 0
3, 134208, Note_on_c, 1, 71, 100
3, 134210, Control_c, 1, 11, 76
3, 134214, Control_c, 1, 11, 75
3, 134218, Control_c, 1, 11, 74
3, 134222, Control_c, 1, 11, 73
3, 134227, Control_c, 1, 11, 72
3, 134231, Control_c, 1, 11, 71
3, 134235, Control_c, 1, 11, 70
3, 134239, Control_c, 1, 11, 69
3, 134243, Control_c, 1, 11, 68
3, 134247, Control_c, 1, 11, 67
3, 134251, Control_c, 1, 11, 66
3, 134255, Control_c, 1, 11, 65
3, 134256, Note_on_c, 1, 71, 0
3, 134256, Control_c, 1, 11, 60
3, 134256, Note_on_c, 1, 74, 100
3, 134304, Note_on_c, 1, 74, 0
3, 134352, Note_on_c, 1, 69, 100
3, 134400, Note_on_c, 1, 69, 0
3, 134448, Note_on_c, 1, 69, 100
3, 134496, Note_on_c, 1, 69, 0
3, 135312, Control_c, 1, 11, 120
3, 135312, Note_on_c, 1, 74, 68
3, 135336, Note_on_c, 1, 74, 0
3, 135360, Note_on_c, 1, 73, 67
3, 135384, Note_on_c, 1, 73, 0
3, 135408, Note_on_c, 1, 74, 68
3, 135432, Note_on_c, 1, 74, 0
3, 135456, Note_on_c, 1, 71, 65
3, 135480, Note_on_c, 1, 71, 0
3, 135504, Note_on_c, 1, 69, 63
3, 135528, Note_on_c, 1, 69, 0
3, 135552, Note_on_c, 1, 67, 61
3, 135576, Note_on_c, 1, 67, 0
3, 135600, Note_on_c, 1, 66, 60
3, 135624, Note_on_c, 1, 66, 0
3, 135648, Note_on_c, 1, 64, 58
3, 135672, Note_on_c, 1, 64, 0
3, 135696, Note_on_c, 1, 62, 56
3, 135720, Note_on_c, 1, 62, 0
3, 135744, Note_on_c, 1, 60, 54
3, 135768, Note_on_c, 1, 60, 0
3, 135792, Note_on_c, 1, 59, 53
3, 135816, Note_on_c, 1, 59, 0
3, 135840, Note_on_c, 1, 61, 55
3, 135864, Note_on_c, 1, 61, 0
3, 135888, Note_on_c, 1, 62, 56
3, 135912, Note_on_c, 1, 62, 0
3, 135936, Note_on_c, 1, 66, 60
3, 135960, Note_on_c, 1, 66, 0
3, 135984, Note_on_c, 1, 69, 63
3, 136008, Note_on_c, 1, 69, 0
3, 136848, Note_on_c, 1, 74, 68
3, 136872, Note_on_c, 1, 74, 0
3, 136896, Note_on_c, 1, 73, 67
3, 136920, Note_on_c, 1, 73, 0
3, 136944, Note_on_c, 1, 74, 68
3, 136968, Note_on_c, 1, 74, 0
3, 136992, Note_on_c, 1, 71, 65
3, 137016, Note_on_c, 1, 71, 0
3, 137040, Note_on_c, 1, 69, 63
3, 137064, Note_on_c, 1, 69, 0
3, 137088, Note_on_c, 1, 67, 61
3, 137112, Note_on_c, 1, 67, 0
3, 137136, Note_on_c, 1, 66, 60
3, 137160, Note_on_c, 1, 66, 0
3, 137184, Note_on_c, 1, 64, 58
3, 137208, Note_on_c, 1, 64, 0
3, 137232, Note_on_c, 1, 62, 56
3, 137256, Note_on_c, 1, 62, 0
3, 137280, Note_on_c, 1, 60, 54
3, 137304, Note_on_c, 1, 60, 0
3, 137328, Note_on_c, 1, 59, 53
3, 137352, Note_on_c, 1, 59, 0
3, 137376, Note_on_c, 1, 61, 55
3, 137400, Note_on_c, 1, 61, 0
3, 137424, Note_on_c, 1, 62, 56
3, 137448, Note_on_c, 1, 62, 0
3, 137472, Note_on_c, 1, 66, 60
3, 137496, Note_on_c, 1, 66, 0
3, 137520, Note_on_c, 1, 69, 63
3, 137544, Note_on_c, 1, 69, 0
3, 141552, Control_c, 1, 11, 90
3, 141552, Note_on_c, 1, 62, 120
3, 141553, Control_c, 1, 11, 86
3, 141554, Control_c, 1, 11, 83
3, 141555, Control_c, 1, 11, 80
3, 141556, Control_c, 1, 11, 78
3, 141557, Control_c, 1, 11, 76
3, 141558, Control_c, 1, 11, 74
3, 141559, Control_c, 1, 11, 72
3, 141560, Control_c, 1, 11, 71
3, 141561, Control_c, 1, 11, 70
3, 141562, Control_c, 1, 11, 69
3, 141563, Control_c, 1, 11, 68
3, 141564, Control_c, 1, 11, 67
3, 141565, Control_c, 1, 11, 66
3, 141566, Control_c, 1, 11, 65
3, 141568, Control_c, 1, 11, 64
3, 141569, Control_c, 1, 11, 63
3, 141572, Control_c, 1, 11, 62
3, 141575, Control_c, 1, 11, 61
3, 141581, Control_c, 1, 11, 60
3, 141744, Control_c, 1, 11, 60
3, 141786, Control_c, 1, 11, 61
3, 141827, Control_c, 1, 11, 62
3, 141836, Note_on_c, 1, 62, 0
3, 141840, Note_on_c, 1, 64, 120
3, 141868, Control_c, 1, 11, 63
3, 141909, Control_c, 1, 11, 64
3, 141932, Note_on_c, 1, 64, 0
3, 141936, Note_on_c, 1, 66, 120
3, 141950, Control_c, 1, 11, 65
3, 141991, Control_c, 1, 11, 66
3, 142032, Control_c, 1, 11, 67
3, 142073, Control_c, 1, 11, 68
3, 142080, Note_on_c, 1, 66, 0
3, 142080, Note_on_c, 1, 67, 120
3, 142104, Note_on_c, 1, 67, 0
3, 142104, Note_on_c, 1, 69, 120
3, 142115, Control_c, 1, 11, 69
3, 142128, Note_on_c, 1, 69, 0
3, 142128, Note_on_c, 1, 67, 120
3, 142152, Note_on_c, 1, 67, 0
3, 142156, Control_c, 1, 11, 70
3, 142176, Note_on_c, 1, 67, 120
3, 142197, Control_c, 1, 11, 71
3, 142200, Note_on_c, 1, 67, 0
3, 142224, Note_on_c, 1, 66, 120
3, 142238, Control_c, 1, 11, 72
3, 142248, Note_on_c, 1, 66, 0
3, 142272, Note_on_c, 1, 66, 120
3, 142279, Control_c, 1, 11, 73
3, 142296, Note_on_c, 1, 66, 0
3, 142320, Note_on_c, 1, 64, 120
3, 142320, Control_c, 1, 11, 74
3, 142361, Control_c, 1, 11, 75
3, 142402, Control_c, 1, 11, 76
3, 142412, Note_on_c, 1, 64, 0
3, 142416, Note_on_c, 1, 62, 120
3, 142443, Control_c, 1, 11, 77
3, 142485, Control_c, 1, 11, 78
3, 142526, Control_c, 1, 11, 79
3, 142567, Control_c, 1, 11, 80
3, 142604, Note_on_c, 1, 62, 0
3, 142608, Note_on_c, 1, 64, 120
3, 142608, Control_c, 1, 11, 81
3, 142649, Control_c, 1, 11, 82
3, 142690, Control_c, 1, 11, 83
3, 142700, Note_on_c, 1, 64, 0
3, 142704, Note_on_c, 1, 66, 120
3, 142731, Control_c, 1, 11, 84
3, 142772, Control_c, 1, 11, 85
3, 142813, Control_c, 1, 11, 86
3, 142848, Note_on_c, 1, 66, 0
3, 142848, Note_on_c, 1, 67, 120
3, 142855, Control_c, 1, 11, 87
3, 142872, Note_on_c, 1, 67, 0
3, 142872, Note_on_c, 1, 69, 120
3, 142896, Note_on_c, 1, 69, 0
3, 142896, Note_on_c, 1, 67, 120
3, 142896, Control_c, 1, 11, 88
3, 142920, Note_on_c, 1, 67, 0
3, 142937, Control_c, 1, 11, 89
3, 142944, Note_on_c, 1, 67, 117
3, 142968, Note_on_c, 1, 67, 0
3, 142978, Control_c, 1, 11, 90
3, 142992, Note_on_c, 1, 66, 120
3, 143016, Note_on_c, 1, 66, 0
3, 143019, Control_c, 1, 11, 91
3, 143040, Note_on_c, 1, 66, 117
3, 143060, Control_c, 1, 11, 92
3, 143064, Note_on_c, 1, 66, 0
3, 143088, Note_on_c, 1, 64, 116
3, 143101, Control_c, 1, 11, 93
3, 143133, Note_on_c, 1, 64, 0
3, 143142, Control_c, 1, 11, 94
3, 143183, Control_c, 1, 11, 95
3, 143184, Note_on_c, 1, 62, 118
3, 143372, Note_on_c, 1, 62, 0
3, 143376, Note_on_c, 1, 64, 120
3, 143468, Note_on_c, 1, 64, 0
3, 143472, Note_on_c, 1, 66, 120
3, 143616, Note_on_c, 1, 66, 0
3, 143616, Note_on_c, 1, 67, 120
3, 143640, Note_on_c, 1, 67, 0
3, 143640, Note_on_c, 1, 69, 120
3, 143664, Note_on_c, 1, 69, 0
3, 143664, Note_on_c, 1, 67, 120
3, 143688, Note_on_c, 1, 67, 0
3, 143712, Note_on_c, 1, 67, 117
3, 143736, Note_on_c, 1, 67, 0
3, 143760, Note_on_c, 1, 66, 120
3, 143784, Note_on_c, 1, 66, 0
3, 143808, Note_on_c, 1, 66, 117
3, 143832, Note_on_c, 1, 66, 0
3, 143856, Note_on_c, 1, 64, 116
3, 143948, Note_on_c, 1, 64, 0
3, 143952, Note_on_c, 1, 62, 120
3, 144140, Note_on_c, 1, 62, 0
3, 144144, Note_on_c, 1, 64, 120
3, 144236, Note_on_c, 1, 64, 0
3, 144240, Note_on_c, 1, 66, 120
3, 144384, Note_on_c, 1, 66, 0
3, 144384, Note_on_c, 1, 67, 120
3, 144408, Note_on_c, 1, 67, 0
3, 144408, Note_on_c, 1, 69, 120
3, 144432, Note_on_c, 1, 69, 0
3, 144432, Note_on_c, 1, 71, 120
3, 144456, Note_on_c, 1, 71, 0
3, 144480, Note_on_c, 1, 71, 120
3, 144504, Note_on_c, 1, 71, 0
3, 144528, Note_on_c, 1, 73, 122
3, 144552, Note_on_c, 1, 73, 0
3, 144576, Note_on_c, 1, 73, 122
3, 144600, Note_on_c, 1, 73, 0
3, 144624, Note_on_c, 1, 62, 120
3, 144624, Note_on_c, 1, 74, 120
3, 145008, Control_c, 1, 11, 95
3, 145009, Control_c, 1, 11, 90
3, 145010, Control_c, 1, 11, 87
3, 145011, Control_c, 1, 11, 84
3, 145012, Control_c, 1, 11, 81
3, 145013, Control_c, 1, 11, 79
3, 145014, Control_c, 1, 11, 77
3, 145015, Control_c, 1, 11, 74
3, 145016, Control_c, 1, 11, 73
3, 145017, Control_c, 1, 11, 71
3, 145018, Control_c, 1, 11, 70
3, 145019, Control_c, 1, 11, 69
3, 145020, Control_c, 1, 11, 68
3, 145021, Control_c, 1, 11, 67
3, 145022, Control_c, 1, 11, 66
3, 145023, Control_c, 1, 11, 65
3, 145025, Control_c, 1, 11, 64
3, 145026, Control_c, 1, 11, 63
3, 145029, Control_c, 1, 11, 62
3, 145032, Control_c, 1, 11, 61
3, 145038, Control_c, 1, 11, 60
3, 145392, Control_c, 1, 11, 60
3, 145436, Control_c, 1, 11, 61
3, 145480, Control_c, 1, 11, 62
3, 145524, Control_c, 1, 11, 63
3, 145568, Control_c, 1, 11, 64
3, 145612, Control_c, 1, 11, 65
3, 145656, Control_c, 1, 11, 66
3, 145699, Control_c, 1, 11, 67
3, 145743, Control_c, 1, 11, 68
3, 145787, Control_c, 1, 11, 69
3, 145831, Control_c, 1, 11, 70
3, 145875, Control_c, 1, 11, 71
3, 145919, Control_c, 1, 11, 72
3, 145963, Control_c, 1, 11, 73
3, 146006, Control_c, 1, 11, 74
3, 146050, Control_c, 1, 11, 75
3, 146094, Control_c, 1, 11, 76
3, 146138, Control_c, 1, 11, 77
3, 146182, Control_c, 1, 11, 78
3, 146226, Control_c, 1, 11, 79
3, 146270, Control_c, 1, 11, 80
3, 146313, Control_c, 1, 11, 81
3, 146357, Control_c, 1, 11, 82
3, 146401, Control_c, 1, 11, 83
3, 146445, Control_c, 1, 11, 84
3, 146489, Control_c, 1, 11, 85
3, 146533, Control_c, 1, 11, 86
3, 146577, Control_c, 1, 11, 87
3, 146620, Control_c, 1, 11, 88
3, 146664, Control_c, 1, 11, 89
3, 146708, Control_c, 1, 11, 90
3, 146752, Control_c, 1, 11, 91
3, 146796, Control_c, 1, 11, 92
3, 146840, Control_c, 1, 11, 93
3, 146884, Control_c, 1, 11, 94
3, 146926, Note_on_c, 1, 74, 0
3, 146926, Note_on_c, 1, 62, 0
3, 146927, Control_c, 1, 11, 95
3, 146928, Control_c, 1, 99, 1
3, 146928, Control_c, 1, 98, 102
3, 146928, Control_c, 1, 6, 68
3, 146928, Note_on_c, 1, 62, 120
3, 146928, Note_on_c, 1, 74, 120
3, 146998, Note_on_c, 1, 74, 0
3, 146998, Note_on_c, 1, 62, 0
3, 147024, Note_on_c, 1, 62, 115
3, 147024, Note_on_c, 1, 74, 115
3, 147094, Note_on_c, 1, 74, 0
3, 147094, Note_on_c, 1, 62, 0
3, 147120, Note_on_c, 1, 64, 120
3, 147120, Note_on_c, 1, 73, 120
3, 147190, Note_on_c, 1, 73, 0
3, 147190, Note_on_c, 1, 64, 0
3, 147216, Note_on_c, 1, 64, 115
3, 147216, Note_on_c, 1, 73, 115
3, 147286, Note_on_c, 1, 73, 0
3, 147286, Note_on_c, 1, 64, 0
3, 147312, Note_on_c, 1, 62, 120
3, 147312, Note_on_c, 1, 74, 120
3, 147382, Note_on_c, 1, 74, 0
3, 147382, Note_on_c, 1, 62, 0
3, 147408, Note_on_c, 1, 62, 111
3, 147408, Note_on_c, 1, 74, 111
3, 147478, Note_on_c, 1, 74, 0
3, 147478, Note_on_c, 1, 62, 0
3, 147504, Note_on_c, 1, 64, 101
3, 147504, Note_on_c, 1, 73, 101
3, 147574, Note_on_c, 1, 73, 0
3, 147574, Note_on_c, 1, 64, 0
3, 147600, Note_on_c, 1, 64, 91
3, 147600, Note_on_c, 1, 73, 91
3, 147670, Note_on_c, 1, 73, 0
3, 147670, Note_on_c, 1, 64, 0
3, 147696, Control_c, 1, 99, 1
3, 147696, Control_c, 1, 98, 102
3, 147696, Control_c, 1, 6, 64
3, 147696, Control_c, 1, 11, 60
3, 147696, Note_on_c, 1, 62, 120
3, 147696, Note_on_c, 1, 74, 120
3, 147740, Control_c, 1, 11, 61
3, 147784, Control_c, 1, 11, 62
3, 147828, Control_c, 1, 11, 63
3, 147872, Control_c, 1, 11, 64
3, 147916, Control_c, 1, 11, 65
3, 147960, Control_c, 1, 11, 66
3, 148003, Control_c, 1, 11, 67
3, 148047, Control_c, 1, 11, 68
3, 148091, Control_c, 1, 11, 69
3, 148135, Control_c, 1, 11, 70
3, 148179, Control_c, 1, 11, 71
3, 148223, Control_c, 1, 11, 72
3, 148267, Control_c, 1, 11, 73
3, 148310, Control_c, 1, 11, 74
3, 148354, Control_c, 1, 11, 75
3, 148398, Control_c, 1, 11, 76
3, 148442, Control_c, 1, 11, 77
3, 148486, Control_c, 1, 11, 78
3, 148530, Control_c, 1, 11, 79
3, 148574, Control_c, 1, 11, 80
3, 148617, Control_c, 1, 11, 81
3, 148661, Control_c, 1, 11, 82
3, 148705, Control_c, 1, 11, 83
3, 148749, Control_c, 1, 11, 84
3, 148793, Control_c, 1, 11, 85
3, 148837, Control_c, 1, 11, 86
3, 148881, Control_c, 1, 11, 87
3, 148924, Control_c, 1, 11, 88
3, 148968, Control_c, 1, 11, 89
3, 149012, Control_c, 1, 11, 90
3, 149056, Control_c, 1, 11, 91
3, 149100, Control_c, 1, 11, 92
3, 149144, Control_c, 1, 11, 93
3, 149188, Control_c, 1, 11, 94
3, 149230, Note_on_c, 1, 74, 0
3, 149230, Note_on_c, 1, 62, 0
3, 149231, Control_c, 1, 11, 95
3, 149232, Control_c, 1, 6, 68
3, 149232, Note_on_c, 1, 62, 120
3, 149232, Note_on_c, 1, 74, 120
3, 149302, Note_on_c, 1, 74, 0
3, 149302, Note_on_c, 1, 62, 0
3, 149328, Note_on_c, 1, 62, 115
3, 149328, Note_on_c, 1, 74, 115
3, 149398, Note_on_c, 1, 74, 0
3, 149398, Note_on_c, 1, 62, 0
3, 149424, Note_on_c, 1, 64, 120
3, 149424, Note_on_c, 1, 73, 120
3, 149494, Note_on_c, 1, 73, 0
3, 149494, Note_on_c, 1, 64, 0
3, 149520, Note_on_c, 1, 64, 115
3, 149520, Note_on_c, 1, 73, 115
3, 149590, Note_on_c, 1, 73, 0
3, 149590, Note_on_c, 1, 64, 0
3, 149616, Note_on_c, 1, 62, 120
3, 149616, Note_on_c, 1, 74, 120
3, 149686, Note_on_c, 1, 74, 0
3, 149686, Note_on_c, 1, 62, 0
3, 149712, Note_on_c, 1, 62, 118
3, 149712, Note_on_c, 1, 74, 118
3, 149782, Note_on_c, 1, 74, 0
3, 149782, Note_on_c, 1, 62, 0
3, 149808, Note_on_c, 1, 64, 115
3, 149808, Note_on_c, 1, 73, 115
3, 149878, Note_on_c, 1, 73, 0
3, 149878, Note_on_c, 1, 64, 0
3, 149904, Note_on_c, 1, 64, 113
3, 149904, Note_on_c, 1, 73, 113
3, 149974, Note_on_c, 1, 73, 0
3, 149974, Note_on_c, 1, 64, 0
3, 150000, Note_on_c, 1, 62, 110
3, 150000, Note_on_c, 1, 74, 110
3, 150070, Note_on_c, 1, 74, 0
3, 150070, Note_on_c, 1, 62, 0
3, 150096, Note_on_c, 1, 62, 107
3, 150096, Note_on_c, 1, 74, 107
3, 150166, Note_on_c, 1, 74, 0
3, 150166, Note_on_c, 1, 62, 0
3, 150192, Note_on_c, 1, 64, 105
3, 150192, Note_on_c, 1, 73, 105
3, 150262, Note_on_c, 1, 73, 0
3, 150262, Note_on_c, 1, 64, 0
3, 150288, Note_on_c, 1, 64, 102
3, 150288, Note_on_c, 1, 73, 102
3, 150358, Note_on_c, 1, 73, 0
3, 150358, Note_on_c, 1, 64, 0
3, 150384, Note_on_c, 1, 62, 99
3, 150384, Note_on_c, 1, 74, 99
3, 150454, Note_on_c, 1, 74, 0
3, 150454, Note_on_c, 1, 62, 0
3, 150480, Note_on_c, 1, 62, 97
3, 150480, Note_on_c, 1, 74, 97
3, 150550, Note_on_c, 1, 74, 0
3, 150550, Note_on_c, 1, 62, 0
3, 150576, Note_on_c, 1, 64, 94
3, 150576, Note_on_c, 1, 73, 94
3, 150646, Note_on_c, 1, 73, 0
3, 150646, Note_on_c, 1, 64, 0
3, 150672, Note_on_c, 1, 64, 92
3, 150672, Note_on_c, 1, 73, 92
3, 150742, Note_on_c, 1, 73, 0
3, 150742, Note_on_c, 1, 64, 0
3, 150768, Control_c, 1, 6, 64
3, 150768, Note_on_c, 1, 62, 75
3, 150768, Note_on_c, 1, 74, 75
3, 151918, Note_on_c, 1, 74, 0
3, 151918, Note_on_c, 1, 62, 0
3, 151920, Note_on_c, 1, 74, 66
3, 151968, Note_on_c, 1, 74, 0
3, 151968, Note_on_c, 1, 71, 66
3, 152016, Note_on_c, 1, 71, 0
3, 152016, Note_on_c, 1, 69, 66
3, 152064, Note_on_c, 1, 69, 0
3, 152064, Note_on_c, 1, 67, 65
3, 152112, Note_on_c, 1, 67, 0
3, 152112, Note_on_c, 1, 62, 65
3, 152112, Note_on_c, 1, 74, 65
3, 152280, Note_on_c, 1, 74, 0
3, 152280, Note_on_c, 1, 62, 0
3, 152304, Program_c, 1, 48
3, 152304, Control_c, 1, 11, 120
3, 152304, Control_c, 1, 99, 1
3, 152304, Control_c, 1, 98, 99
3, 152304, Control_c, 1, 6, 14
3, 152304, Note_on_c, 1, 86, 110
3, 152339, Note_on_c, 1, 86, 0
3, 152376, Note_on_c, 1, 74, 100
3, 152388, Note_on_c, 1, 74, 0
3, 152400, Note_on_c, 1, 74, 100
3, 152424, Note_on_c, 1, 74, 0
3, 152592, Note_on_c, 1, 81, 110
3, 152627, Note_on_c, 1, 81, 0
3, 152664, Note_on_c, 1, 69, 100
3, 152676, Note_on_c, 1, 69, 0
3, 152688, Note_on_c, 1, 69, 100
3, 152712, Note_on_c, 1, 69, 0
3, 153024, Note_on_c, 1, 74, 110
3, 153059, Note_on_c, 1, 74, 0
3, 153096, Note_on_c, 1, 62, 100
3, 153108, Note_on_c, 1, 62, 0
3, 153120, Note_on_c, 1, 62, 100
3, 153144, Note_on_c, 1, 62, 0
3, 153456, Note_on_c, 1, 81, 60
3, 153491, Note_on_c, 1, 81, 0
3, 153528, Note_on_c, 1, 69, 50
3, 153540, Note_on_c, 1, 69, 0
3, 153552, Note_on_c, 1, 69, 50
3, 153576, Note_on_c, 1, 69, 0
3, 153600, Note_on_c, 1, 74, 55
3, 153624, Note_on_c, 1, 74, 0
3, 153648, Note_on_c, 1, 76, 50
3, 153672, Note_on_c, 1, 76, 0
3, 153696, Note_on_c, 1, 77, 50
3, 153720, Note_on_c, 1, 77, 0
3, 153744, Note_on_c, 1, 76, 55
3, 153768, Note_on_c, 1, 76, 0
3, 153792, Note_on_c, 1, 77, 50
3, 153816, Note_on_c, 1, 77, 0
3, 153840, Note_on_c, 1, 79, 50
3, 153864, Note_on_c, 1, 79, 0
3, 153888, Note_on_c, 1, 77, 55
3, 153912, Note_on_c, 1, 77, 0
3, 153936, Note_on_c, 1, 76, 50
3, 153960, Note_on_c, 1, 76, 0
3, 153984, Note_on_c, 1, 74, 50
3, 154008, Note_on_c, 1, 74, 0
3, 154032, Note_on_c, 1, 77, 55
3, 154056, Note_on_c, 1, 77, 0
3, 154080, Note_on_c, 1, 76, 50
3, 154104, Note_on_c, 1, 76, 0
3, 154128, Note_on_c, 1, 74, 50
3, 154152, Note_on_c, 1, 74, 0
3, 154176, Note_on_c, 1, 72, 55
3, 154200, Note_on_c, 1, 72, 0
3, 154224, Note_on_c, 1, 71, 50
3, 154248, Note_on_c, 1, 71, 0
3, 154272, Note_on_c, 1, 69, 50
3, 154296, Note_on_c, 1, 69, 0
3, 154320, Note_on_c, 1, 68, 55
3, 154344, Note_on_c, 1, 68, 0
3, 154368, Note_on_c, 1, 69, 50
3, 154392, Note_on_c, 1, 69, 0
3, 154416, Note_on_c, 1, 71, 50
3, 154440, Note_on_c, 1, 71, 0
3, 154464, Note_on_c, 1, 69, 55
3, 154488, Note_on_c, 1, 69, 0
3, 154512, Note_on_c, 1, 68, 50
3, 154536, Note_on_c, 1, 68, 0
3, 154560, Note_on_c, 1, 69, 50
3, 154584, Note_on_c, 1, 69, 0
3, 154608, Note_on_c, 1, 67, 55
3, 154632, Note_on_c, 1, 67, 0
3, 154656, Note_on_c, 1, 65, 50
3, 154680, Note_on_c, 1, 65, 0
3, 154704, Note_on_c, 1, 64, 50
3, 154728, Note_on_c, 1, 64, 0
3, 154752, Note_on_c, 1, 62, 55
3, 154776, Note_on_c, 1, 62, 0
3, 154800, Note_on_c, 1, 67, 50
3, 154824, Note_on_c, 1, 67, 0
3, 154848, Note_on_c, 1, 69, 50
3, 154872, Note_on_c, 1, 69, 0
3, 154896, Note_on_c, 1, 69, 55
3, 154920, Note_on_c, 1, 69, 0
3, 154944, Note_on_c, 1, 69, 50
3, 154968, Note_on_c, 1, 69, 0
3, 154992, Note_on_c, 1, 69, 50
3, 155016, Note_on_c, 1, 69, 0
3, 155040, Note_on_c, 1, 69, 55
3, 155064, Note_on_c, 1, 69, 0
3, 155088, Note_on_c, 1, 69, 50
3, 155112, Note_on_c, 1, 69, 0
3, 155136, Note_on_c, 1, 81, 50
3, 155160, Note_on_c, 1, 81, 0
3, 155184, Note_on_c, 1, 74, 55
3, 155208, Note_on_c, 1, 74, 0
3, 155232, Note_on_c, 1, 76, 50
3, 155256, Note_on_c, 1, 76, 0
3, 155280, Note_on_c, 1, 77, 50
3, 155304, Note_on_c, 1, 77, 0
3, 155328, Note_on_c, 1, 76, 55
3, 155352, Note_on_c, 1, 76, 0
3, 155376, Note_on_c, 1, 74, 50
3, 155400, Note_on_c, 1, 74, 0
3, 155424, Note_on_c, 1, 72, 50
3, 155448, Note_on_c, 1, 72, 0
3, 155472, Note_on_c, 1, 71, 55
3, 155496, Note_on_c, 1, 71, 0
3, 155520, Note_on_c, 1, 69, 50
3, 155544, Note_on_c, 1, 69, 0
3, 155568, Note_on_c, 1, 68, 50
3, 155592, Note_on_c, 1, 68, 0
3, 155616, Note_on_c, 1, 69, 55
3, 155640, Note_on_c, 1, 69, 0
3, 155664, Note_on_c, 1, 74, 50
3, 155688, Note_on_c, 1, 74, 0
3, 155712, Note_on_c, 1, 72, 50
3, 155736, Note_on_c, 1, 72, 0
3, 155760, Note_on_c, 1, 73, 55
3, 155784, Note_on_c, 1, 73, 0
3, 155808, Note_on_c, 1, 74, 50
3, 155832, Note_on_c, 1, 74, 0
3, 155856, Note_on_c, 1, 76, 50
3, 155880, Note_on_c, 1, 76, 0
3, 155904, Note_on_c, 1, 74, 55
3, 155928, Note_on_c, 1, 74, 0
3, 155952, Note_on_c, 1, 73, 50
3, 155976, Note_on_c, 1, 73, 0
3, 156000, Note_on_c, 1, 74, 50
3, 156024, Note_on_c, 1, 74, 0
3, 156048, Note_on_c, 1, 69, 55
3, 156072, Note_on_c, 1, 69, 0
3, 156096, Note_on_c, 1, 69, 50
3, 156120, Note_on_c, 1, 69, 0
3, 156144, Note_on_c, 1, 69, 50
3, 156168, Note_on_c, 1, 69, 0
3, 156192, Note_on_c, 1, 69, 55
3, 156216, Note_on_c, 1, 69, 0
3, 156240, Note_on_c, 1, 69, 50
3, 156264, Note_on_c, 1, 69, 0
3, 156288, Note_on_c, 1, 69, 50
3, 156312, Note_on_c, 1, 69, 0
3, 156336, Note_on_c, 1, 81, 55
3, 156360, Note_on_c, 1, 81, 0
3, 156384, Note_on_c, 1, 79, 50
3, 156408, Note_on_c, 1, 79, 0
3, 156432, Note_on_c, 1, 77, 50
3, 156456, Note_on_c, 1, 77, 0
3, 156480, Note_on_c, 1, 76, 55
3, 156504, Note_on_c, 1, 76, 0
3, 156528, Note_on_c, 1, 74, 50
3, 156552, Note_on_c, 1, 74, 0
3, 156576, Note_on_c, 1, 72, 50
3, 156600, Note_on_c, 1, 72, 0
3, 156624, Note_on_c, 1, 71, 55
3, 156648, Note_on_c, 1, 71, 0
3, 156672, Note_on_c, 1, 72, 50
3, 156696, Note_on_c, 1, 72, 0
3, 156720, Note_on_c, 1, 74, 50
3, 156744, Note_on_c, 1, 74, 0
3, 156768, Note_on_c, 1, 72, 55
3, 156792, Note_on_c, 1, 72, 0
3, 156816, Note_on_c, 1, 59, 50
3, 156840, Note_on_c, 1, 59, 0
3, 156864, Note_on_c, 1, 60, 50
3, 156888, Note_on_c, 1, 60, 0
3, 156912, Note_on_c, 1, 61, 55
3, 156936, Note_on_c, 1, 61, 0
3, 156960, Note_on_c, 1, 62, 50
3, 156984, Note_on_c, 1, 62, 0
3, 157008, Note_on_c, 1, 64, 50
3, 157032, Note_on_c, 1, 64, 0
3, 157056, Note_on_c, 1, 65, 55
3, 157080, Note_on_c, 1, 65, 0
3, 157104, Note_on_c, 1, 67, 50
3, 157128, Note_on_c, 1, 67, 0
3, 157152, Note_on_c, 1, 69, 50
3, 157176, Note_on_c, 1, 69, 0
3, 157200, Note_on_c, 1, 69, 55
3, 157224, Note_on_c, 1, 69, 0
3, 157248, Note_on_c, 1, 69, 50
3, 157272, Note_on_c, 1, 69, 0
3, 157296, Note_on_c, 1, 69, 50
3, 157320, Note_on_c, 1, 69, 0
3, 157344, Note_on_c, 1, 69, 55
3, 157368, Note_on_c, 1, 69, 0
3, 157392, Note_on_c, 1, 69, 50
3, 157416, Note_on_c, 1, 69, 0
3, 157440, Note_on_c, 1, 69, 50
3, 157464, Note_on_c, 1, 69, 0
3, 157488, Note_on_c, 1, 74, 55
3, 157512, Note_on_c, 1, 74, 0
3, 157536, Note_on_c, 1, 72, 50
3, 157560, Note_on_c, 1, 72, 0
3, 157584, Note_on_c, 1, 68, 50
3, 157608, Note_on_c, 1, 68, 0
3, 157632, Note_on_c, 1, 69, 55
3, 157656, Note_on_c, 1, 69, 0
3, 157680, Note_on_c, 1, 68, 50
3, 157704, Note_on_c, 1, 68, 0
3, 157728, Note_on_c, 1, 69, 50
3, 157752, Note_on_c, 1, 69, 0
3, 157776, Note_on_c, 1, 59, 55
3, 157800, Note_on_c, 1, 59, 0
3, 157824, Note_on_c, 1, 60, 50
3, 157848, Note_on_c, 1, 60, 0
3, 157872, Note_on_c, 1, 56, 50
3, 157896, Note_on_c, 1, 56, 0
3, 157920, Note_on_c, 1, 64, 55
3, 157944, Note_on_c, 1, 64, 0
3, 157968, Note_on_c, 1, 62, 50
3, 157992, Note_on_c, 1, 62, 0
3, 158016, Note_on_c, 1, 60, 50
3, 158040, Note_on_c, 1, 60, 0
3, 158064, Note_on_c, 1, 70, 55
3, 158088, Note_on_c, 1, 70, 0
3, 158112, Note_on_c, 1, 69, 50
3, 158136, Note_on_c, 1, 69, 0
3, 158160, Note_on_c, 1, 67, 50
3, 158184, Note_on_c, 1, 67, 0
3, 158208, Note_on_c, 1, 65, 55
3, 158232, Note_on_c, 1, 65, 0
3, 158256, Note_on_c, 1, 64, 50
3, 158280, Note_on_c, 1, 64, 0
3, 158304, Note_on_c, 1, 62, 50
3, 158328, Note_on_c, 1, 62, 0
3, 158352, Note_on_c, 1, 61, 55
3, 158376, Note_on_c, 1, 61, 0
3, 158400, Note_on_c, 1, 62, 50
3, 158424, Note_on_c, 1, 62, 0
3, 158448, Note_on_c, 1, 64, 50
3, 158472, Note_on_c, 1, 64, 0
3, 158496, Note_on_c, 1, 62, 55
3, 158520, Note_on_c, 1, 62, 0
3, 158544, Note_on_c, 1, 61, 50
3, 158568, Note_on_c, 1, 61, 0
3, 158592, Note_on_c, 1, 62, 50
3, 158616, Note_on_c, 1, 62, 0
3, 158640, Note_on_c, 1, 64, 55
3, 158664, Note_on_c, 1, 64, 0
3, 158688, Note_on_c, 1, 65, 51
3, 158712, Note_on_c, 1, 65, 0
3, 158736, Note_on_c, 1, 67, 53
3, 158760, Note_on_c, 1, 67, 0
3, 158784, Note_on_c, 1, 65, 60
3, 158808, Note_on_c, 1, 65, 0
3, 158832, Note_on_c, 1, 64, 56
3, 158856, Note_on_c, 1, 64, 0
3, 158880, Note_on_c, 1, 65, 58
3, 158904, Note_on_c, 1, 65, 0
3, 158928, Note_on_c, 1, 64, 65
3, 158952, Note_on_c, 1, 64, 0
3, 158976, Note_on_c, 1, 65, 61
3, 159000, Note_on_c, 1, 65, 0
3, 159024, Note_on_c, 1, 67, 63
3, 159048, Note_on_c, 1, 67, 0
3, 159072, Note_on_c, 1, 65, 70
3, 159096, Note_on_c, 1, 65, 0
3, 159120, Note_on_c, 1, 64, 66
3, 159144, Note_on_c, 1, 64, 0
3, 159168, Note_on_c, 1, 65, 68
3, 159192, Note_on_c, 1, 65, 0
3, 159216, Note_on_c, 1, 64, 75
3, 159240, Note_on_c, 1, 64, 0
3, 159264, Note_on_c, 1, 65, 71
3, 159288, Note_on_c, 1, 65, 0
3, 159312, Note_on_c, 1, 67, 73
3, 159336, Note_on_c, 1, 67, 0
3, 159360, Note_on_c, 1, 65, 80
3, 159384, Note_on_c, 1, 65, 0
3, 159408, Note_on_c, 1, 64, 77
3, 159432, Note_on_c, 1, 64, 0
3, 159456, Note_on_c, 1, 65, 78
3, 159480, Note_on_c, 1, 65, 0
3, 159504, Note_on_c, 1, 73, 85
3, 159528, Note_on_c, 1, 73, 0
3, 159552, Note_on_c, 1, 74, 82
3, 159576, Note_on_c, 1, 74, 0
3, 159600, Note_on_c, 1, 76, 83
3, 159624, Note_on_c, 1, 76, 0
3, 159648, Note_on_c, 1, 74, 90
3, 159672, Note_on_c, 1, 74, 0
3, 159696, Note_on_c, 1, 73, 87
3, 159720, Note_on_c, 1, 73, 0
3, 159744, Note_on_c, 1, 74, 88
3, 159768, Note_on_c, 1, 74, 0
3, 159792, Note_on_c, 1, 73, 95
3, 159816, Note_on_c, 1, 73, 0
3, 159840, Note_on_c, 1, 74, 92
3, 159864, Note_on_c, 1, 74, 0
3, 159888, Note_on_c, 1, 76, 93
3, 159912, Note_on_c, 1, 76, 0
3, 159936, Note_on_c, 1, 74, 100
3, 159960, Note_on_c, 1, 74, 0
3, 159984, Note_on_c, 1, 73, 97
3, 160008, Note_on_c, 1, 73, 0
3, 160032, Note_on_c, 1, 74, 98
3, 160056, Note_on_c, 1, 74, 0
3, 160080, Note_on_c, 1, 64, 105
3, 160080, Note_on_c, 1, 73, 105
3, 160104, Note_on_c, 1, 73, 0
3, 160104, Note_on_c, 1, 64, 0
3, 160128, Note_on_c, 1, 74, 102
3, 160152, Note_on_c, 1, 74, 0
3, 160176, Note_on_c, 1, 76, 104
3, 160200, Note_on_c, 1, 76, 0
3, 160224, Note_on_c, 1, 64, 110
3, 160224, Note_on_c, 1, 76, 110
3, 160248, Note_on_c, 1, 76, 0
3, 160248, Note_on_c, 1, 64, 0
3, 160272, Note_on_c, 1, 77, 107
3, 160296, Note_on_c, 1, 77, 0
3, 160320, Note_on_c, 1, 79, 109
3, 160344, Note_on_c, 1, 79, 0
3, 160368, Note_on_c, 1, 62, 102
3, 160369, Note_on_c, 1, 69, 106
3, 160372, Note_on_c, 1, 81, 115
3, 160392, Note_on_c, 1, 62, 0
3, 160393, Note_on_c, 1, 69, 0
3, 160396, Note_on_c, 1, 81, 0
3, 160438, Note_on_c, 1, 69, 110
3, 160450, Note_on_c, 1, 69, 0
3, 160462, Note_on_c, 1, 69, 110
3, 160486, Note_on_c, 1, 69, 0
3, 160510, Note_on_c, 1, 74, 115
3, 160534, Note_on_c, 1, 74, 0
3, 160558, Note_on_c, 1, 76, 110
3, 160582, Note_on_c, 1, 76, 0
3, 160606, Note_on_c, 1, 77, 110
3, 160630, Note_on_c, 1, 77, 0
3, 160654, Note_on_c, 1, 76, 115
3, 160678, Note_on_c, 1, 76, 0
3, 160702, Note_on_c, 1, 77, 110
3, 160726, Note_on_c, 1, 77, 0
3, 160750, Note_on_c, 1, 79, 110
3, 160774, Note_on_c, 1, 79, 0
3, 160798, Note_on_c, 1, 77, 115
3, 160822, Note_on_c, 1, 77, 0
3, 160846, Note_on_c, 1, 76, 110
3, 160870, Note_on_c, 1, 76, 0
3, 160894, Note_on_c, 1, 74, 110
3, 160918, Note_on_c, 1, 74, 0
3, 160942, Note_on_c, 1, 82, 115
3, 160966, Note_on_c, 1, 82, 0
3, 160990, Note_on_c, 1, 81, 110
3, 161014, Note_on_c, 1, 81, 0
3, 161038, Note_on_c, 1, 79, 110
3, 161062, Note_on_c, 1, 79, 0
3, 161086, Note_on_c, 1, 77, 115
3, 161110, Note_on_c, 1, 77, 0
3, 161134, Note_on_c, 1, 76, 110
3, 161158, Note_on_c, 1, 76, 0
3, 161182, Note_on_c, 1, 74, 110
3, 161206, Note_on_c, 1, 74, 0
3, 161230, Note_on_c, 1, 73, 115
3, 161254, Note_on_c, 1, 73, 0
3, 161278, Note_on_c, 1, 74, 110
3, 161302, Note_on_c, 1, 74, 0
3, 161326, Note_on_c, 1, 76, 110
3, 161350, Note_on_c, 1, 76, 0
3, 161374, Note_on_c, 1, 74, 115
3, 161398, Note_on_c, 1, 74, 0
3, 161422, Note_on_c, 1, 73, 110
3, 161446, Note_on_c, 1, 73, 0
3, 161470, Note_on_c, 1, 74, 110
3, 161494, Note_on_c, 1, 74, 0
3, 161518, Note_on_c, 1, 82, 115
3, 161542, Note_on_c, 1, 82, 0
3, 161566, Note_on_c, 1, 81, 110
3, 161590, Note_on_c, 1, 81, 0
3, 161614, Note_on_c, 1, 79, 110
3, 161638, Note_on_c, 1, 79, 0
3, 161662, Note_on_c, 1, 77, 115
3, 161686, Note_on_c, 1, 77, 0
3, 161710, Note_on_c, 1, 76, 110
3, 161734, Note_on_c, 1, 76, 0
3, 161758, Note_on_c, 1, 74, 110
3, 161782, Note_on_c, 1, 74, 0
3, 161806, Note_on_c, 1, 73, 115
3, 161830, Note_on_c, 1, 73, 0
3, 161854, Note_on_c, 1, 74, 110
3, 161878, Note_on_c, 1, 74, 0
3, 161902, Note_on_c, 1, 76, 110
3, 161926, Note_on_c, 1, 76, 0
3, 161950, Note_on_c, 1, 74, 115
3, 161974, Note_on_c, 1, 74, 0
3, 161998, Note_on_c, 1, 73, 110
3, 162022, Note_on_c, 1, 73, 0
3, 162046, Note_on_c, 1, 74, 110
3, 162070, Note_on_c, 1, 74, 0
3, 162094, Note_on_c, 1, 81, 115
3, 162118, Note_on_c, 1, 81, 0
3, 162142, Note_on_c, 1, 79, 110
3, 162166, Note_on_c, 1, 79, 0
3, 162190, Note_on_c, 1, 77, 110
3, 162214, Note_on_c, 1, 77, 0
3, 162238, Note_on_c, 1, 76, 115
3, 162262, Note_on_c, 1, 76, 0
3, 162286, Note_on_c, 1, 74, 110
3, 162310, Note_on_c, 1, 74, 0
3, 162334, Note_on_c, 1, 72, 110
3, 162358, Note_on_c, 1, 72, 0
3, 162382, Note_on_c, 1, 71, 115
3, 162406, Note_on_c, 1, 71, 0
3, 162430, Note_on_c, 1, 72, 110
3, 162454, Note_on_c, 1, 72, 0
3, 162478, Note_on_c, 1, 74, 110
3, 162502, Note_on_c, 1, 74, 0
3, 162526, Note_on_c, 1, 72, 110
3, 162550, Note_on_c, 1, 72, 0
3, 162574, Note_on_c, 1, 81, 118
3, 162598, Note_on_c, 1, 81, 0
3, 162622, Note_on_c, 1, 81, 118
3, 162646, Note_on_c, 1, 81, 0
3, 162670, Note_on_c, 1, 81, 115
3, 162694, Note_on_c, 1, 81, 0
3, 162718, Note_on_c, 1, 79, 110
3, 162742, Note_on_c, 1, 79, 0
3, 162766, Note_on_c, 1, 77, 110
3, 162790, Note_on_c, 1, 77, 0
3, 162814, Note_on_c, 1, 76, 115
3, 162838, Note_on_c, 1, 76, 0
3, 162862, Note_on_c, 1, 74, 110
3, 162886, Note_on_c, 1, 74, 0
3, 162910, Note_on_c, 1, 72, 110
3, 162934, Note_on_c, 1, 72, 0
3, 162958, Note_on_c, 1, 79, 115
3, 162982, Note_on_c, 1, 79, 0
3, 163006, Note_on_c, 1, 77, 110
3, 163030, Note_on_c, 1, 77, 0
3, 163054, Note_on_c, 1, 76, 110
3, 163078, Note_on_c, 1, 76, 0
3, 163102, Note_on_c, 1, 88, 115
3, 163126, Note_on_c, 1, 88, 0
3, 163150, Note_on_c, 1, 86, 110
3, 163174, Note_on_c, 1, 86, 0
3, 163198, Note_on_c, 1, 84, 110
3, 163222, Note_on_c, 1, 84, 0
3, 163248, Note_on_c, 1, 79, 110
3, 163283, Note_on_c, 1, 79, 0
3, 163320, Note_on_c, 1, 67, 60
3, 163332, Note_on_c, 1, 67, 0
3, 163344, Note_on_c, 1, 67, 60
3, 163368, Note_on_c, 1, 67, 0
3, 163392, Note_on_c, 1, 79, 60
3, 163427, Note_on_c, 1, 79, 0
3, 163464, Note_on_c, 1, 67, 64
3, 163476, Note_on_c, 1, 67, 0
3, 163488, Note_on_c, 1, 67, 66
3, 163512, Note_on_c, 1, 67, 0
3, 163536, Note_on_c, 1, 79, 69
3, 163571, Note_on_c, 1, 79, 0
3, 163608, Note_on_c, 1, 67, 74
3, 163620, Note_on_c, 1, 67, 0
3, 163632, Note_on_c, 1, 67, 76
3, 163656, Note_on_c, 1, 67, 0
3, 163680, Note_on_c, 1, 77, 79
3, 163715, Note_on_c, 1, 77, 0
3, 163752, Note_on_c, 1, 65, 84
3, 163764, Note_on_c, 1, 65, 0
3, 163776, Note_on_c, 1, 65, 85
3, 163800, Note_on_c, 1, 65, 0
3, 163824, Note_on_c, 1, 77, 89
3, 163859, Note_on_c, 1, 77, 0
3, 163896, Note_on_c, 1, 65, 93
3, 163908, Note_on_c, 1, 65, 0
3, 163920, Note_on_c, 1, 65, 95
3, 163944, Note_on_c, 1, 65, 0
3, 163968, Note_on_c, 1, 76, 100
3, 164003, Note_on_c, 1, 76, 0
3, 164040, Note_on_c, 1, 64, 93
3, 164052, Note_on_c, 1, 64, 0
3, 164064, Note_on_c, 1, 64, 91
3, 164088, Note_on_c, 1, 64, 0
3, 164112, Note_on_c, 1, 75, 86
3, 164147, Note_on_c, 1, 75, 0
3, 164184, Note_on_c, 1, 63, 78
3, 164196, Note_on_c, 1, 63, 0
3, 164208, Note_on_c, 1, 63, 76
3, 164232, Note_on_c, 1, 63, 0
3, 164256, Note_on_c, 1, 74, 71
3, 164291, Note_on_c, 1, 74, 0
3, 164328, Note_on_c, 1, 62, 64
3, 164340, Note_on_c, 1, 62, 0
3, 164352, Note_on_c, 1, 62, 61
3, 164376, Note_on_c, 1, 62, 0
3, 164688, Note_on_c, 1, 69, 60
3, 164723, Note_on_c, 1, 69, 0
3, 164760, Note_on_c, 1, 57, 64
3, 164772, Note_on_c, 1, 57, 0
3, 164784, Note_on_c, 1, 57, 66
3, 164808, Note_on_c, 1, 57, 0
3, 164832, Note_on_c, 1, 69, 69
3, 164867, Note_on_c, 1, 69, 0
3, 164904, Note_on_c, 1, 57, 73
3, 164916, Note_on_c, 1, 57, 0
3, 164928, Note_on_c, 1, 57, 75
3, 164952, Note_on_c, 1, 57, 0
3, 164976, Note_on_c, 1, 68, 78
3, 165011, Note_on_c, 1, 68, 0
3, 165048, Note_on_c, 1, 56, 82
3, 165060, Note_on_c, 1, 56, 0
3, 165072, Note_on_c, 1, 56, 84
3, 165096, Note_on_c, 1, 56, 0
3, 165120, Note_on_c, 1, 67, 87
3, 165155, Note_on_c, 1, 67, 0
3, 165192, Note_on_c, 1, 55, 91
3, 165204, Note_on_c, 1, 55, 0
3, 165216, Note_on_c, 1, 55, 93
3, 165240, Note_on_c, 1, 55, 0
3, 165264, Note_on_c, 1, 67, 96
3, 165299, Note_on_c, 1, 67, 0
3, 165336, Note_on_c, 1, 55, 101
3, 165348, Note_on_c, 1, 55, 0
3, 165360, Note_on_c, 1, 55, 102
3, 165384, Note_on_c, 1, 55, 0
3, 165408, Note_on_c, 1, 67, 105
3, 165443, Note_on_c, 1, 67, 0
3, 165480, Note_on_c, 1, 55, 110
3, 165492, Note_on_c, 1, 55, 0
3, 165504, Note_on_c, 1, 55, 111
3, 165528, Note_on_c, 1, 55, 0
3, 165552, Note_on_c, 1, 72, 120
3, 165587, Note_on_c, 1, 72, 0
3, 165624, Note_on_c, 1, 60, 113
3, 165636, Note_on_c, 1, 60, 0
3, 165648, Note_on_c, 1, 60, 113
3, 165672, Note_on_c, 1, 60, 0
3, 165696, Note_on_c, 1, 72, 120
3, 165731, Note_on_c, 1, 72, 0
3, 165768, Note_on_c, 1, 60, 113
3, 165780, Note_on_c, 1, 60, 0
3, 165792, Note_on_c, 1, 60, 113
3, 165816, Note_on_c, 1, 60, 0
3, 165840, Note_on_c, 1, 72, 120
3, 165875, Note_on_c, 1, 72, 0
3, 165912, Note_on_c, 1, 60, 113
3, 165924, Note_on_c, 1, 60, 0
3, 165936, Note_on_c, 1, 60, 113
3, 165960, Note_on_c, 1, 60, 0
3, 165984, Note_on_c, 1, 72, 120
3, 166019, Note_on_c, 1, 72, 0
3, 166056, Note_on_c, 1, 60, 113
3, 166068, Note_on_c, 1, 60, 0
3, 166080, Note_on_c, 1, 60, 113
3, 166104, Note_on_c, 1, 60, 0
3, 166128, Note_on_c, 1, 72, 120
3, 166163, Note_on_c, 1, 72, 0
3, 166200, Note_on_c, 1, 60, 113
3, 166212, Note_on_c, 1, 60, 0
3, 166224, Note_on_c, 1, 60, 113
3, 166248, Note_on_c, 1, 60, 0
3, 166272, Note_on_c, 1, 72, 120
3, 166307, Note_on_c, 1, 72, 0
3, 166344, Note_on_c, 1, 60, 113
3, 166356, Note_on_c, 1, 60, 0
3, 166368, Note_on_c, 1, 60, 113
3, 166392, Note_on_c, 1, 60, 0
3, 166416, Note_on_c, 1, 72, 120
3, 166451, Note_on_c, 1, 72, 0
3, 166488, Note_on_c, 1, 60, 113
3, 166500, Note_on_c, 1, 60, 0
3, 166512, Note_on_c, 1, 60, 113
3, 166536, Note_on_c, 1, 60, 0
3, 166560, Note_on_c, 1, 72, 120
3, 166595, Note_on_c, 1, 72, 0
3, 166632, Note_on_c, 1, 60, 113
3, 166644, Note_on_c, 1, 60, 0
3, 166656, Note_on_c, 1, 60, 113
3, 166680, Note_on_c, 1, 60, 0
3, 166704, Note_on_c, 1, 72, 120
3, 166739, Note_on_c, 1, 72, 0
3, 166776, Note_on_c, 1, 60, 113
3, 166788, Note_on_c, 1, 60, 0
3, 166800, Note_on_c, 1, 60, 113
3, 166824, Note_on_c, 1, 60, 0
3, 166848, Note_on_c, 1, 72, 120
3, 166883, Note_on_c, 1, 72, 0
3, 166920, Note_on_c, 1, 60, 113
3, 166932, Note_on_c, 1, 60, 0
3, 166944, Note_on_c, 1, 60, 113
3, 166968, Note_on_c, 1, 60, 0
3, 166992, Note_on_c, 1, 72, 120
3, 167027, Note_on_c, 1, 72, 0
3, 167064, Note_on_c, 1, 60, 113
3, 167076, Note_on_c, 1, 60, 0
3, 167088, Note_on_c, 1, 60, 113
3, 167112, Note_on_c, 1, 60, 0
3, 167136, Note_on_c, 1, 72, 120
3, 167171, Note_on_c, 1, 72, 0
3, 167208, Note_on_c, 1, 60, 113
3, 167220, Note_on_c, 1, 60, 0
3, 167232, Note_on_c, 1, 60, 113
3, 167256, Note_on_c, 1, 60, 0
3, 167280, Note_on_c, 1, 72, 120
3, 167315, Note_on_c, 1, 72, 0
3, 167352, Note_on_c, 1, 60, 113
3, 167364, Note_on_c, 1, 60, 0
3, 167376, Note_on_c, 1, 60, 113
3, 167400, Note_on_c, 1, 60, 0
3, 167424, Note_on_c, 1, 72, 120
3, 167459, Note_on_c, 1, 72, 0
3, 167496, Note_on_c, 1, 60, 113
3, 167508, Note_on_c, 1, 60, 0
3, 167520, Note_on_c, 1, 60, 113
3, 167544, Note_on_c, 1, 60, 0
3, 167568, Note_on_c, 1, 72, 120
3, 167603, Note_on_c, 1, 72, 0
3, 167640, Note_on_c, 1, 60, 113
3, 167652, Note_on_c, 1, 60, 0
3, 167664, Note_on_c, 1, 60, 113
3, 167688, Note_on_c, 1, 60, 0
3, 167712, Note_on_c, 1, 72, 120
3, 167747, Note_on_c, 1, 72, 0
3, 167784, Note_on_c, 1, 60, 113
3, 167796, Note_on_c, 1, 60, 0
3, 167808, Note_on_c, 1, 60, 113
3, 167832, Note_on_c, 1, 60, 0
3, 167856, Note_on_c, 1, 72, 113
3, 167880, Note_on_c, 1, 72, 0
3, 168144, Note_on_c, 1, 69, 120
3, 168179, Note_on_c, 1, 69, 0
3, 168216, Note_on_c, 1, 57, 113
3, 168228, Note_on_c, 1, 57, 0
3, 168240, Note_on_c, 1, 57, 113
3, 168264, Note_on_c, 1, 57, 0
3, 168288, Note_on_c, 1, 69, 117
3, 168312, Note_on_c, 1, 69, 0
3, 168336, Note_on_c, 1, 65, 113
3, 168360, Note_on_c, 1, 65, 0
3, 168384, Note_on_c, 1, 64, 113
3, 168408, Note_on_c, 1, 64, 0
3, 168432, Note_on_c, 1, 62, 113
3, 168456, Note_on_c, 1, 62, 0
3, 168720, Note_on_c, 1, 67, 120
3, 168755, Note_on_c, 1, 67, 0
3, 168792, Note_on_c, 1, 55, 113
3, 168804, Note_on_c, 1, 55, 0
3, 168816, Note_on_c, 1, 55, 113
3, 168840, Note_on_c, 1, 55, 0
3, 168864, Note_on_c, 1, 67, 117
3, 168888, Note_on_c, 1, 67, 0
3, 168912, Note_on_c, 1, 64, 113
3, 168936, Note_on_c, 1, 64, 0
3, 168960, Note_on_c, 1, 62, 113
3, 168984, Note_on_c, 1, 62, 0
3, 169008, Control_c, 1, 11, 60
3, 169008, Control_c, 1, 6, 64
3, 169008, Note_on_c, 1, 55, 113
3, 169056, Note_on_c, 1, 65, 113
3, 169104, Note_on_c, 1, 65, 0
3, 169104, Note_on_c, 1, 64, 113
3, 169200, Note_on_c, 1, 64, 0
3, 169200, Note_on_c, 1, 65, 113
3, 169248, Note_on_c, 1, 65, 0
3, 169248, Note_on_c, 1, 67, 113
3, 169296, Note_on_c, 1, 67, 0
3, 169296, Control_c, 1, 11, 60
3, 169296, Note_on_c, 1, 65, 113
3, 169311, Control_c, 1, 11, 61
3, 169325, Control_c, 1, 11, 62
3, 169340, Control_c, 1, 11, 63
3, 169344, Note_on_c, 1, 65, 0
3, 169344, Note_on_c, 1, 55, 0
3, 169344, Note_on_c, 1, 64, 113
3, 169354, Control_c, 1, 11, 64
3, 169368, Control_c, 1, 11, 65
3, 169383, Control_c, 1, 11, 66
3, 169392, Note_on_c, 1, 64, 0
3, 169392, Note_on_c, 1, 65, 113
3, 169397, Control_c, 1, 11, 67
3, 169411, Control_c, 1, 11, 68
3, 169426, Control_c, 1, 11, 69
3, 169440, Note_on_c, 1, 65, 0
3, 169440, Note_on_c, 1, 67, 113
3, 169440, Control_c, 1, 11, 70
3, 169454, Control_c, 1, 11, 71
3, 169469, Control_c, 1, 11, 72
3, 169483, Control_c, 1, 11, 73
3, 169488, Note_on_c, 1, 67, 0
3, 169488, Note_on_c, 1, 60, 113
3, 169497, Control_c, 1, 11, 74
3, 169512, Control_c, 1, 11, 75
3, 169526, Control_c, 1, 11, 76
3, 169536, Note_on_c, 1, 60, 0
3, 169536, Note_on_c, 1, 76, 113
3, 169540, Control_c, 1, 11, 77
3, 169555, Control_c, 1, 11, 78
3, 169569, Control_c, 1, 11, 79
3, 169583, Control_c, 1, 11, 80
3, 169584, Control_c, 1, 11, 80
3, 169599, Control_c, 1, 11, 79
3, 169613, Control_c, 1, 11, 78
3, 169628, Control_c, 1, 11, 77
3, 169642, Control_c, 1, 11, 76
3, 169656, Control_c, 1, 11, 75
3, 169671, Control_c, 1, 11, 74
3, 169680, Note_on_c, 1, 76, 0
3, 169680, Note_on_c, 1, 60, 113
3, 169685, Control_c, 1, 11, 73
3, 169699, Control_c, 1, 11, 72
3, 169714, Control_c, 1, 11, 71
3, 169728, Control_c, 1, 11, 70
3, 169742, Control_c, 1, 11, 69
3, 169757, Control_c, 1, 11, 68
3, 169771, Control_c, 1, 11, 67
3, 169776, Note_on_c, 1, 60, 0
3, 169776, Note_on_c, 1, 62, 113
3, 169785, Control_c, 1, 11, 66
3, 169800, Control_c, 1, 11, 65
3, 169814, Control_c, 1, 11, 64
3, 169824, Note_on_c, 1, 62, 0
3, 169824, Note_on_c, 1, 64, 113
3, 169828, Control_c, 1, 11, 63
3, 169843, Control_c, 1, 11, 62
3, 169857, Control_c, 1, 11, 61
3, 169871, Control_c, 1, 11, 60
3, 169872, Note_on_c, 1, 64, 0
3, 170736, Control_c, 1, 11, 120
3, 170736, Control_c, 1, 6, 14
3, 170736, Note_on_c, 1, 76, 105
3, 170760, Note_on_c, 1, 76, 0
3, 170784, Note_on_c, 1, 64, 100
3, 170808, Note_on_c, 1, 64, 0
3, 170832, Note_on_c, 1, 81, 100
3, 170856, Note_on_c, 1, 81, 0
3, 170880, Note_on_c, 1, 81, 105
3, 170904, Note_on_c, 1, 81, 0
3, 170928, Note_on_c, 1, 79, 100
3, 170952, Note_on_c, 1, 79, 0
3, 170976, Note_on_c, 1, 72, 100
3, 170976, Note_on_c, 1, 76, 100
3, 171000, Note_on_c, 1, 76, 0
3, 171000, Note_on_c, 1, 72, 0
3, 171024, Note_on_c, 1, 72, 105
3, 171024, Note_on_c, 1, 76, 105
3, 171048, Note_on_c, 1, 76, 0
3, 171048, Note_on_c, 1, 72, 0
3, 171312, Note_on_c, 1, 76, 105
3, 171336, Note_on_c, 1, 76, 0
3, 171360, Note_on_c, 1, 72, 100
3, 171384, Note_on_c, 1, 72, 0
3, 171408, Note_on_c, 1, 77, 100
3, 171432, Note_on_c, 1, 77, 0
3, 171456, Note_on_c, 1, 74, 105
3, 171480, Note_on_c, 1, 74, 0
3, 171504, Note_on_c, 1, 71, 100
3, 171528, Note_on_c, 1, 71, 0
3, 171552, Note_on_c, 1, 76, 100
3, 171576, Note_on_c, 1, 76, 0
3, 171600, Note_on_c, 1, 60, 103
3, 171602, Note_on_c, 1, 67, 105
3, 171604, Note_on_c, 1, 76, 107
3, 171635, Note_on_c, 1, 60, 0
3, 171637, Note_on_c, 1, 67, 0
3, 171639, Note_on_c, 1, 76, 0
3, 171672, Note_on_c, 1, 72, 100
3, 171684, Note_on_c, 1, 72, 0
3, 171696, Note_on_c, 1, 72, 100
3, 171720, Note_on_c, 1, 72, 0
3, 171744, Note_on_c, 1, 67, 95
3, 171768, Note_on_c, 1, 67, 0
3, 171888, Note_on_c, 1, 72, 107
3, 171923, Note_on_c, 1, 72, 0
3, 171960, Note_on_c, 1, 60, 100
3, 171972, Note_on_c, 1, 60, 0
3, 171984, Note_on_c, 1, 60, 100
3, 172008, Note_on_c, 1, 60, 0
3, 172032, Note_on_c, 1, 55, 100
3, 172056, Note_on_c, 1, 55, 0
3, 172170, Control_c, 1, 6, 64
3, 172176, Note_on_c, 1, 65, 57
3, 172224, Note_on_c, 1, 65, 0
3, 172224, Note_on_c, 1, 64, 56
3, 172272, Note_on_c, 1, 64, 0
3, 172272, Note_on_c, 1, 62, 54
3, 172320, Note_on_c, 1, 62, 0
3, 172320, Note_on_c, 1, 60, 53
3, 172368, Note_on_c, 1, 60, 0
3, 172368, Note_on_c, 1, 59, 51
3, 172416, Note_on_c, 1, 59, 0
3, 172416, Note_on_c, 1, 57, 50
3, 172464, Note_on_c, 1, 57, 0
3, 172464, Note_on_c, 1, 55, 49
3, 172512, Note_on_c, 1, 55, 0
3, 172512, Note_on_c, 1, 57, 51
3, 172560, Note_on_c, 1, 57, 0
3, 172560, Note_on_c, 1, 55, 49
3, 172751, Note_on_c, 1, 55, 0
3, 172752, Control_c, 1, 6, 14
3, 172752, Note_on_c, 1, 55, 60
3, 172752, Note_on_c, 1, 64, 60
3, 172787, Note_on_c, 1, 64, 0
3, 172787, Note_on_c, 1, 55, 0
3, 172824, Note_on_c, 1, 67, 50
3, 172836, Note_on_c, 1, 67, 0
3, 172848, Note_on_c, 1, 67, 50
3, 172872, Note_on_c, 1, 67, 0
3, 172896, Note_on_c, 1, 69, 53
3, 172920, Note_on_c, 1, 69, 0
3, 173040, Note_on_c, 1, 69, 60
3, 173075, Note_on_c, 1, 69, 0
3, 173112, Note_on_c, 1, 69, 50
3, 173124, Note_on_c, 1, 69, 0
3, 173136, Note_on_c, 1, 69, 50
3, 173160, Note_on_c, 1, 69, 0
3, 173184, Note_on_c, 1, 69, 55
3, 173208, Note_on_c, 1, 69, 0
3, 173904, Note_on_c, 1, 57, 60
3, 173939, Note_on_c, 1, 57, 0
3, 173976, Note_on_c, 1, 69, 50
3, 173988, Note_on_c, 1, 69, 0
3, 174000, Note_on_c, 1, 69, 50
3, 174024, Note_on_c, 1, 69, 0
3, 174048, Note_on_c, 1, 70, 55
3, 174072, Note_on_c, 1, 70, 0
3, 174192, Note_on_c, 1, 58, 60
3, 174227, Note_on_c, 1, 58, 0
3, 174264, Note_on_c, 1, 70, 50
3, 174276, Note_on_c, 1, 70, 0
3, 174288, Note_on_c, 1, 70, 50
3, 174312, Note_on_c, 1, 70, 0
3, 174336, Note_on_c, 1, 70, 55
3, 174360, Note_on_c, 1, 70, 0
3, 175056, Note_on_c, 1, 58, 70
3, 175091, Note_on_c, 1, 58, 0
3, 175128, Note_on_c, 1, 70, 61
3, 175140, Note_on_c, 1, 70, 0
3, 175152, Note_on_c, 1, 70, 61
3, 175176, Note_on_c, 1, 70, 0
3, 175200, Note_on_c, 1, 72, 62
3, 175224, Note_on_c, 1, 72, 0
3, 175344, Note_on_c, 1, 60, 75
3, 175379, Note_on_c, 1, 60, 0
3, 175416, Note_on_c, 1, 72, 67
3, 175428, Note_on_c, 1, 72, 0
3, 175440, Note_on_c, 1, 72, 67
3, 175464, Note_on_c, 1, 72, 0
3, 175488, Note_on_c, 1, 68, 68
3, 175512, Note_on_c, 1, 68, 0
3, 175632, Note_on_c, 1, 68, 80
3, 175667, Note_on_c, 1, 68, 0
3, 175704, Note_on_c, 1, 65, 72
3, 175716, Note_on_c, 1, 65, 0
3, 175728, Note_on_c, 1, 65, 73
3, 175752, Note_on_c, 1, 65, 0
3, 175776, Note_on_c, 1, 70, 74
3, 175800, Note_on_c, 1, 70, 0
3, 175920, Note_on_c, 1, 61, 86
3, 175955, Note_on_c, 1, 61, 0
3, 175992, Note_on_c, 1, 70, 78
3, 176004, Note_on_c, 1, 70, 0
3, 176016, Note_on_c, 1, 70, 78
3, 176040, Note_on_c, 1, 70, 0
3, 176064, Note_on_c, 1, 70, 79
3, 176088, Note_on_c, 1, 70, 0
3, 176208, Note_on_c, 1, 75, 92
3, 176243, Note_on_c, 1, 75, 0
3, 176280, Note_on_c, 1, 63, 83
3, 176292, Note_on_c, 1, 63, 0
3, 176304, Note_on_c, 1, 63, 84
3, 176328, Note_on_c, 1, 63, 0
3, 176352, Note_on_c, 1, 63, 85
3, 176376, Note_on_c, 1, 63, 0
3, 176496, Note_on_c, 1, 64, 98
3, 176531, Note_on_c, 1, 64, 0
3, 176568, Note_on_c, 1, 71, 89
3, 176580, Note_on_c, 1, 71, 0
3, 176592, Note_on_c, 1, 71, 90
3, 176616, Note_on_c, 1, 71, 0
3, 176640, Note_on_c, 1, 73, 90
3, 176664, Note_on_c, 1, 73, 0
3, 176784, Note_on_c, 1, 57, 110
3, 176819, Note_on_c, 1, 57, 0
3, 176856, Note_on_c, 1, 69, 100
3, 176868, Note_on_c, 1, 69, 0
3, 176880, Note_on_c, 1, 69, 100
3, 176904, Note_on_c, 1, 69, 0
3, 177072, Note_on_c, 1, 58, 119
3, 177107, Note_on_c, 1, 58, 0
3, 177144, Note_on_c, 1, 70, 113
3, 177156, Note_on_c, 1, 70, 0
3, 177168, Note_on_c, 1, 70, 113
3, 177192, Note_on_c, 1, 70, 0
3, 177360, Note_on_c, 1, 59, 120
3, 177395, Note_on_c, 1, 59, 0
3, 177432, Note_on_c, 1, 71, 113
3, 177444, Note_on_c, 1, 71, 0
3, 177456, Note_on_c, 1, 71, 113
3, 177480, Note_on_c, 1, 71, 0
3, 177696, Program_c, 1, 45
3, 177696, Control_c, 1, 7, 105
3, 177842, Note_on_c, 1, 64, 60
3, 177866, Note_on_c, 1, 64, 0
3, 177986, Note_on_c, 1, 59, 57
3, 178010, Note_on_c, 1, 59, 0
3, 178272, Note_on_c, 1, 64, 60
3, 178296, Note_on_c, 1, 64, 0
3, 178416, Note_on_c, 1, 59, 57
3, 178440, Note_on_c, 1, 59, 0
3, 178704, Note_on_c, 1, 64, 60
3, 178728, Note_on_c, 1, 64, 0
3, 178848, Note_on_c, 1, 59, 57
3, 178872, Note_on_c, 1, 59, 0
3, 179136, Note_on_c, 1, 76, 60
3, 179160, Note_on_c, 1, 76, 0
3, 179280, Note_on_c, 1, 64, 57
3, 179304, Note_on_c, 1, 64, 0
3, 179568, Note_on_c, 1, 69, 60
3, 179592, Note_on_c, 1, 69, 0
3, 179712, Note_on_c, 1, 64, 57
3, 179736, Note_on_c, 1, 64, 0
3, 180000, Note_on_c, 1, 69, 60
3, 180024, Note_on_c, 1, 69, 0
3, 180144, Note_on_c, 1, 64, 57
3, 180168, Note_on_c, 1, 64, 0
3, 180432, Note_on_c, 1, 65, 60
3, 180456, Note_on_c, 1, 65, 0
3, 180576, Note_on_c, 1, 65, 57
3, 180600, Note_on_c, 1, 65, 0
3, 180864, Note_on_c, 1, 65, 60
3, 180888, Note_on_c, 1, 65, 0
3, 181008, Note_on_c, 1, 65, 57
3, 181032, Note_on_c, 1, 65, 0
3, 181296, Note_on_c, 1, 65, 60
3, 181320, Note_on_c, 1, 65, 0
3, 181440, Note_on_c, 1, 65, 57
3, 181464, Note_on_c, 1, 65, 0
3, 181728, Note_on_c, 1, 65, 60
3, 181752, Note_on_c, 1, 65, 0
3, 181872, Note_on_c, 1, 65, 57
3, 181896, Note_on_c, 1, 65, 0
3, 182016, Note_on_c, 1, 65, 60
3, 182040, Note_on_c, 1, 65, 0
3, 182160, Note_on_c, 1, 65, 60
3, 182184, Note_on_c, 1, 65, 0
3, 182304, Note_on_c, 1, 65, 58
3, 182328, Note_on_c, 1, 65, 0
3, 182448, Program_c, 1, 48
3, 182448, Control_c, 1, 7, 123
3, 182448, Note_on_c, 1, 67, 55
3, 182472, Note_on_c, 1, 67, 0
3, 182496, Note_on_c, 1, 69, 50
3, 182520, Note_on_c, 1, 69, 0
3, 182544, Note_on_c, 1, 70, 50
3, 182568, Note_on_c, 1, 70, 0
3, 182592, Note_on_c, 1, 70, 55
3, 182616, Note_on_c, 1, 70, 0
3, 182640, Note_on_c, 1, 69, 50
3, 182664, Note_on_c, 1, 69, 0
3, 182688, Note_on_c, 1, 67, 50
3, 182712, Note_on_c, 1, 67, 0
3, 182736, Note_on_c, 1, 67, 55
3, 182760, Note_on_c, 1, 67, 0
3, 182784, Note_on_c, 1, 69, 50
3, 182808, Note_on_c, 1, 69, 0
3, 182832, Note_on_c, 1, 67, 50
3, 182856, Note_on_c, 1, 67, 0
3, 182880, Program_c, 1, 45
3, 182880, Control_c, 1, 7, 105
3, 182880, Note_on_c, 1, 62, 50
3, 182904, Note_on_c, 1, 62, 0
3, 183024, Note_on_c, 1, 62, 47
3, 183048, Note_on_c, 1, 62, 0
3, 183168, Note_on_c, 1, 62, 50
3, 183192, Note_on_c, 1, 62, 0
3, 183312, Program_c, 1, 48
3, 183312, Control_c, 1, 7, 123
3, 183312, Note_on_c, 1, 64, 55
3, 183336, Note_on_c, 1, 64, 0
3, 183360, Note_on_c, 1, 65, 50
3, 183384, Note_on_c, 1, 65, 0
3, 183408, Note_on_c, 1, 67, 50
3, 183432, Note_on_c, 1, 67, 0
3, 183456, Note_on_c, 1, 67, 55
3, 183480, Note_on_c, 1, 67, 0
3, 183504, Note_on_c, 1, 65, 50
3, 183528, Note_on_c, 1, 65, 0
3, 183552, Note_on_c, 1, 64, 50
3, 183576, Note_on_c, 1, 64, 0
3, 183600, Note_on_c, 1, 64, 55
3, 183624, Note_on_c, 1, 64, 0
3, 183648, Note_on_c, 1, 65, 50
3, 183672, Note_on_c, 1, 65, 0
3, 183696, Note_on_c, 1, 64, 50
3, 183720, Note_on_c, 1, 64, 0
3, 183888, Program_c, 1, 45
3, 183888, Control_c, 1, 7, 105
3, 183888, Note_on_c, 1, 57, 50
3, 183912, Note_on_c, 1, 57, 0
3, 184032, Note_on_c, 1, 69, 47
3, 184056, Note_on_c, 1, 69, 0
3, 184176, Program_c, 1, 48
3, 184176, Control_c, 1, 7, 123
3, 184176, Note_on_c, 1, 64, 55
3, 184200, Note_on_c, 1, 64, 0
3, 184224, Note_on_c, 1, 65, 50
3, 184248, Note_on_c, 1, 65, 0
3, 184272, Note_on_c, 1, 67, 50
3, 184296, Note_on_c, 1, 67, 0
3, 184320, Note_on_c, 1, 67, 55
3, 184344, Note_on_c, 1, 67, 0
3, 184368, Note_on_c, 1, 65, 50
3, 184392, Note_on_c, 1, 65, 0
3, 184416, Note_on_c, 1, 64, 50
3, 184440, Note_on_c, 1, 64, 0
3, 184464, Note_on_c, 1, 64, 55
3, 184488, Note_on_c, 1, 64, 0
3, 184512, Note_on_c, 1, 65, 50
3, 184536, Note_on_c, 1, 65, 0
3, 184560, Note_on_c, 1, 64, 50
3, 184584, Note_on_c, 1, 64, 0
3, 184608, Note_on_c, 1, 64, 55
3, 184632, Note_on_c, 1, 64, 0
3, 184656, Note_on_c, 1, 65, 50
3, 184680, Note_on_c, 1, 65, 0
3, 184704, Note_on_c, 1, 67, 50
3, 184728, Note_on_c, 1, 67, 0
3, 184752, Note_on_c, 1, 69, 55
3, 184776, Note_on_c, 1, 69, 0
3, 184896, Program_c, 1, 45
3, 184896, Control_c, 1, 7, 105
3, 184896, Note_on_c, 1, 57, 50
3, 184920, Note_on_c, 1, 57, 0
3, 185184, Note_on_c, 1, 62, 50
3, 185208, Note_on_c, 1, 62, 0
3, 185328, Note_on_c, 1, 57, 47
3, 185352, Note_on_c, 1, 57, 0
3, 185616, Note_on_c, 1, 62, 50
3, 185640, Note_on_c, 1, 62, 0
3, 185760, Note_on_c, 1, 57, 47
3, 185784, Note_on_c, 1, 57, 0
3, 186480, Program_c, 1, 48
3, 186480, Control_c, 1, 7, 123
3, 186480, Note_on_c, 1, 79, 60
3, 186515, Note_on_c, 1, 79, 0
3, 186552, Note_on_c, 1, 67, 50
3, 186564, Note_on_c, 1, 67, 0
3, 186576, Note_on_c, 1, 67, 50
3, 186600, Note_on_c, 1, 67, 0
3, 186624, Note_on_c, 1, 72, 55
3, 186648, Note_on_c, 1, 72, 0
3, 186672, Note_on_c, 1, 74, 50
3, 186696, Note_on_c, 1, 74, 0
3, 186720, Note_on_c, 1, 75, 50
3, 186744, Note_on_c, 1, 75, 0
3, 186768, Note_on_c, 1, 74, 55
3, 186792, Note_on_c, 1, 74, 0
3, 186816, Note_on_c, 1, 75, 50
3, 186840, Note_on_c, 1, 75, 0
3, 186864, Note_on_c, 1, 77, 50
3, 186888, Note_on_c, 1, 77, 0
3, 186912, Note_on_c, 1, 75, 55
3, 186936, Note_on_c, 1, 75, 0
3, 186960, Note_on_c, 1, 71, 50
3, 186984, Note_on_c, 1, 71, 0
3, 187008, Note_on_c, 1, 72, 50
3, 187032, Note_on_c, 1, 72, 0
3, 187056, Note_on_c, 1, 70, 55
3, 187080, Note_on_c, 1, 70, 0
3, 187104, Note_on_c, 1, 70, 50
3, 187128, Note_on_c, 1, 70, 0
3, 187152, Note_on_c, 1, 70, 50
3, 187176, Note_on_c, 1, 70, 0
3, 187200, Note_on_c, 1, 70, 55
3, 187224, Note_on_c, 1, 70, 0
3, 187248, Note_on_c, 1, 70, 50
3, 187272, Note_on_c, 1, 70, 0
3, 187296, Note_on_c, 1, 70, 50
3, 187320, Note_on_c, 1, 70, 0
3, 187344, Note_on_c, 1, 68, 55
3, 187368, Note_on_c, 1, 68, 0
3, 187392, Note_on_c, 1, 67, 50
3, 187416, Note_on_c, 1, 67, 0
3, 187440, Note_on_c, 1, 65, 50
3, 187464, Note_on_c, 1, 65, 0
3, 187488, Note_on_c, 1, 70, 55
3, 187512, Note_on_c, 1, 70, 0
3, 187536, Note_on_c, 1, 70, 50
3, 187560, Note_on_c, 1, 70, 0
3, 187584, Note_on_c, 1, 70, 50
3, 187608, Note_on_c, 1, 70, 0
3, 187632, Note_on_c, 1, 70, 55
3, 187656, Note_on_c, 1, 70, 0
3, 187680, Note_on_c, 1, 75, 50
3, 187704, Note_on_c, 1, 75, 0
3, 187728, Note_on_c, 1, 77, 50
3, 187752, Note_on_c, 1, 77, 0
3, 187776, Note_on_c, 1, 79, 55
3, 187800, Note_on_c, 1, 79, 0
3, 187824, Note_on_c, 1, 77, 50
3, 187848, Note_on_c, 1, 77, 0
3, 187872, Note_on_c, 1, 75, 50
3, 187896, Note_on_c, 1, 75, 0
3, 187920, Note_on_c, 1, 74, 50
3, 188495, Note_on_c, 1, 74, 0
3, 188496, Note_on_c, 1, 70, 55
3, 188520, Note_on_c, 1, 70, 0
3, 188544, Note_on_c, 1, 68, 50
3, 188568, Note_on_c, 1, 68, 0
3, 188592, Note_on_c, 1, 67, 50
3, 188616, Note_on_c, 1, 67, 0
3, 188640, Note_on_c, 1, 79, 55
3, 188664, Note_on_c, 1, 79, 0
3, 188688, Note_on_c, 1, 77, 50
3, 188712, Note_on_c, 1, 77, 0
3, 188736, Note_on_c, 1, 75, 50
3, 188760, Note_on_c, 1, 75, 0
3, 188784, Note_on_c, 1, 82, 55
3, 188808, Note_on_c, 1, 82, 0
3, 188832, Note_on_c, 1, 80, 50
3, 188856, Note_on_c, 1, 80, 0
3, 188880, Note_on_c, 1, 79, 50
3, 188904, Note_on_c, 1, 79, 0
3, 188928, Note_on_c, 1, 79, 55
3, 188952, Note_on_c, 1, 79, 0
3, 188976, Note_on_c, 1, 77, 50
3, 189000, Note_on_c, 1, 77, 0
3, 189024, Note_on_c, 1, 75, 50
3, 189048, Note_on_c, 1, 75, 0
3, 189072, Control_c, 1, 6, 64
3, 189072, Control_c, 1, 11, 50
3, 189072, Note_on_c, 1, 65, 120
3, 189089, Control_c, 1, 11, 51
3, 189105, Control_c, 1, 11, 52
3, 189122, Control_c, 1, 11, 53
3, 189138, Control_c, 1, 11, 54
3, 189155, Control_c, 1, 11, 55
3, 189171, Control_c, 1, 11, 56
3, 189188, Control_c, 1, 11, 57
3, 189204, Control_c, 1, 11, 58
3, 189220, Control_c, 1, 11, 59
3, 189237, Control_c, 1, 11, 60
3, 189253, Control_c, 1, 11, 61
3, 189270, Control_c, 1, 11, 62
3, 189286, Control_c, 1, 11, 63
3, 189303, Control_c, 1, 11, 64
3, 189319, Control_c, 1, 11, 65
3, 189336, Control_c, 1, 11, 66
3, 189352, Control_c, 1, 11, 67
3, 189368, Control_c, 1, 11, 68
3, 189385, Control_c, 1, 11, 69
3, 189401, Control_c, 1, 11, 70
3, 189418, Control_c, 1, 11, 71
3, 189434, Control_c, 1, 11, 72
3, 189451, Control_c, 1, 11, 73
3, 189467, Control_c, 1, 11, 74
3, 189484, Control_c, 1, 11, 75
3, 189500, Control_c, 1, 11, 76
3, 189516, Control_c, 1, 11, 77
3, 189533, Control_c, 1, 11, 78
3, 189549, Control_c, 1, 11, 79
3, 189566, Control_c, 1, 11, 80
3, 189582, Control_c, 1, 11, 81
3, 189599, Control_c, 1, 11, 82
3, 189615, Control_c, 1, 11, 83
3, 189632, Control_c, 1, 11, 84
3, 189647, Note_on_c, 1, 65, 0
3, 189648, Note_on_c, 1, 65, 120
3, 189648, Control_c, 1, 11, 85
3, 189664, Control_c, 1, 11, 86
3, 189681, Control_c, 1, 11, 87
3, 189697, Control_c, 1, 11, 88
3, 189714, Control_c, 1, 11, 89
3, 189730, Control_c, 1, 11, 90
3, 189747, Control_c, 1, 11, 91
3, 189763, Control_c, 1, 11, 92
3, 189780, Control_c, 1, 11, 93
3, 189796, Control_c, 1, 11, 94
3, 189812, Control_c, 1, 11, 95
3, 189829, Control_c, 1, 11, 96
3, 189845, Control_c, 1, 11, 97
3, 189862, Control_c, 1, 11, 98
3, 189878, Control_c, 1, 11, 99
3, 189895, Control_c, 1, 11, 100
3, 189911, Control_c, 1, 11, 101
3, 189928, Control_c, 1, 11, 102
3, 189944, Control_c, 1, 11, 103
3, 189960, Control_c, 1, 11, 104
3, 189977, Control_c, 1, 11, 105
3, 189993, Control_c, 1, 11, 106
3, 190010, Control_c, 1, 11, 107
3, 190026, Control_c, 1, 11, 108
3, 190043, Control_c, 1, 11, 109
3, 190059, Control_c, 1, 11, 110
3, 190076, Control_c, 1, 11, 111
3, 190092, Control_c, 1, 11, 112
3, 190108, Control_c, 1, 11, 113
3, 190125, Control_c, 1, 11, 114
3, 190141, Control_c, 1, 11, 115
3, 190158, Control_c, 1, 11, 116
3, 190174, Control_c, 1, 11, 117
3, 190191, Control_c, 1, 11, 118
3, 190207, Control_c, 1, 11, 119
3, 190223, Note_on_c, 1, 65, 0
3, 190223, Control_c, 1, 11, 120
3, 190224, Control_c, 1, 6, 14
3, 190224, Note_on_c, 1, 69, 120
3, 190224, Note_on_c, 1, 77, 120
3, 190254, Note_on_c, 1, 77, 0
3, 190254, Note_on_c, 1, 69, 0
3, 190512, Note_on_c, 1, 69, 120
3, 190512, Note_on_c, 1, 81, 120
3, 190542, Note_on_c, 1, 81, 0
3, 190542, Note_on_c, 1, 69, 0
3, 190800, Note_on_c, 1, 69, 125
3, 190800, Note_on_c, 1, 81, 125
3, 190835, Note_on_c, 1, 81, 0
3, 190835, Note_on_c, 1, 69, 0
3, 190872, Note_on_c, 1, 69, 115
3, 190884, Note_on_c, 1, 69, 0
3, 190896, Note_on_c, 1, 69, 115
3, 190920, Note_on_c, 1, 69, 0
3, 190944, Note_on_c, 1, 69, 125
3, 190944, Note_on_c, 1, 81, 125
3, 190979, Note_on_c, 1, 81, 0
3, 190979, Note_on_c, 1, 69, 0
3, 191016, Note_on_c, 1, 69, 115
3, 191028, Note_on_c, 1, 69, 0
3, 191040, Note_on_c, 1, 69, 115
3, 191064, Note_on_c, 1, 69, 0
3, 191088, Note_on_c, 1, 69, 125
3, 191088, Note_on_c, 1, 81, 125
3, 191123, Note_on_c, 1, 81, 0
3, 191123, Note_on_c, 1, 69, 0
3, 191160, Note_on_c, 1, 69, 115
3, 191172, Note_on_c, 1, 69, 0
3, 191184, Note_on_c, 1, 69, 115
3, 191208, Note_on_c, 1, 69, 0
3, 191232, Note_on_c, 1, 69, 125
3, 191232, Note_on_c, 1, 81, 125
3, 191267, Note_on_c, 1, 81, 0
3, 191267, Note_on_c, 1, 69, 0
3, 191304, Note_on_c, 1, 69, 115
3, 191316, Note_on_c, 1, 69, 0
3, 191328, Note_on_c, 1, 69, 115
3, 191352, Note_on_c, 1, 69, 0
3, 191376, Note_on_c, 1, 69, 125
3, 191376, Note_on_c, 1, 81, 125
3, 191411, Note_on_c, 1, 81, 0
3, 191411, Note_on_c, 1, 69, 0
3, 191448, Note_on_c, 1, 69, 115
3, 191460, Note_on_c, 1, 69, 0
3, 191472, Note_on_c, 1, 69, 115
3, 191496, Note_on_c, 1, 69, 0
3, 191520, Note_on_c, 1, 74, 120
3, 191544, Note_on_c, 1, 74, 0
3, 191568, Note_on_c, 1, 76, 115
3, 191592, Note_on_c, 1, 76, 0
3, 191616, Note_on_c, 1, 77, 115
3, 191640, Note_on_c, 1, 77, 0
3, 191664, Note_on_c, 1, 76, 120
3, 191688, Note_on_c, 1, 76, 0
3, 191712, Note_on_c, 1, 77, 115
3, 191736, Note_on_c, 1, 77, 0
3, 191760, Note_on_c, 1, 79, 115
3, 191784, Note_on_c, 1, 79, 0
3, 191808, Note_on_c, 1, 77, 120
3, 191832, Note_on_c, 1, 77, 0
3, 191856, Note_on_c, 1, 76, 115
3, 191880, Note_on_c, 1, 76, 0
3, 191904, Note_on_c, 1, 74, 115
3, 191928, Note_on_c, 1, 74, 0
3, 191952, Note_on_c, 1, 70, 120
3, 191976, Note_on_c, 1, 70, 0
3, 192000, Note_on_c, 1, 69, 115
3, 192024, Note_on_c, 1, 69, 0
3, 192048, Note_on_c, 1, 67, 115
3, 192072, Note_on_c, 1, 67, 0
3, 192096, Note_on_c, 1, 65, 120
3, 192120, Note_on_c, 1, 65, 0
3, 192144, Note_on_c, 1, 76, 115
3, 192168, Note_on_c, 1, 76, 0
3, 192192, Note_on_c, 1, 74, 115
3, 192216, Note_on_c, 1, 74, 0
3, 192240, Note_on_c, 1, 73, 120
3, 192264, Note_on_c, 1, 73, 0
3, 192288, Note_on_c, 1, 74, 115
3, 192312, Note_on_c, 1, 74, 0
3, 192336, Note_on_c, 1, 76, 115
3, 192360, Note_on_c, 1, 76, 0
3, 192384, Note_on_c, 1, 74, 120
3, 192408, Note_on_c, 1, 74, 0
3, 192432, Note_on_c, 1, 73, 115
3, 192456, Note_on_c, 1, 73, 0
3, 192480, Note_on_c, 1, 74, 115
3, 192504, Note_on_c, 1, 74, 0
3, 192528, Note_on_c, 1, 70, 120
3, 192552, Note_on_c, 1, 70, 0
3, 192576, Note_on_c, 1, 69, 115
3, 192600, Note_on_c, 1, 69, 0
3, 192624, Note_on_c, 1, 67, 115
3, 192648, Note_on_c, 1, 67, 0
3, 192672, Note_on_c, 1, 65, 120
3, 192696, Note_on_c, 1, 65, 0
3, 192720, Note_on_c, 1, 76, 115
3, 192744, Note_on_c, 1, 76, 0
3, 192768, Note_on_c, 1, 74, 115
3, 192792, Note_on_c, 1, 74, 0
3, 192816, Note_on_c, 1, 73, 120
3, 192840, Note_on_c, 1, 73, 0
3, 192864, Note_on_c, 1, 74, 115
3, 192888, Note_on_c, 1, 74, 0
3, 192912, Note_on_c, 1, 76, 115
3, 192936, Note_on_c, 1, 76, 0
3, 192960, Note_on_c, 1, 74, 120
3, 192984, Note_on_c, 1, 74, 0
3, 193008, Note_on_c, 1, 73, 115
3, 193032, Note_on_c, 1, 73, 0
3, 193056, Note_on_c, 1, 74, 115
3, 193080, Note_on_c, 1, 74, 0
3, 193104, Note_on_c, 1, 72, 120
3, 193128, Note_on_c, 1, 72, 0
3, 193152, Note_on_c, 1, 74, 115
3, 193176, Note_on_c, 1, 74, 0
3, 193200, Note_on_c, 1, 75, 115
3, 193224, Note_on_c, 1, 75, 0
3, 193248, Note_on_c, 1, 67, 120
3, 193272, Note_on_c, 1, 67, 0
3, 193296, Note_on_c, 1, 69, 115
3, 193320, Note_on_c, 1, 69, 0
3, 193344, Note_on_c, 1, 70, 115
3, 193368, Note_on_c, 1, 70, 0
3, 193392, Note_on_c, 1, 69, 120
3, 193416, Note_on_c, 1, 69, 0
3, 193440, Note_on_c, 1, 70, 115
3, 193464, Note_on_c, 1, 70, 0
3, 193488, Note_on_c, 1, 72, 115
3, 193512, Note_on_c, 1, 72, 0
3, 193536, Note_on_c, 1, 70, 120
3, 193560, Note_on_c, 1, 70, 0
3, 193584, Note_on_c, 1, 69, 115
3, 193608, Note_on_c, 1, 69, 0
3, 193632, Note_on_c, 1, 67, 115
3, 193656, Note_on_c, 1, 67, 0
3, 193680, Note_on_c, 1, 75, 105
3, 193704, Note_on_c, 1, 75, 0
3, 193728, Note_on_c, 1, 74, 100
3, 193752, Note_on_c, 1, 74, 0
3, 193776, Note_on_c, 1, 72, 100
3, 193800, Note_on_c, 1, 72, 0
3, 193824, Note_on_c, 1, 70, 105
3, 193848, Note_on_c, 1, 70, 0
3, 193872, Note_on_c, 1, 69, 100
3, 193896, Note_on_c, 1, 69, 0
3, 193920, Note_on_c, 1, 67, 100
3, 193944, Note_on_c, 1, 67, 0
3, 193968, Note_on_c, 1, 77, 105
3, 193992, Note_on_c, 1, 77, 0
3, 194016, Note_on_c, 1, 75, 100
3, 194040, Note_on_c, 1, 75, 0
3, 194064, Note_on_c, 1, 74, 100
3, 194088, Note_on_c, 1, 74, 0
3, 194112, Note_on_c, 1, 72, 105
3, 194136, Note_on_c, 1, 72, 0
3, 194160, Note_on_c, 1, 70, 100
3, 194184, Note_on_c, 1, 70, 0
3, 194208, Note_on_c, 1, 69, 100
3, 194232, Note_on_c, 1, 69, 0
3, 194256, Note_on_c, 1, 79, 105
3, 194280, Note_on_c, 1, 79, 0
3, 194304, Note_on_c, 1, 77, 100
3, 194328, Note_on_c, 1, 77, 0
3, 194352, Note_on_c, 1, 75, 100
3, 194376, Note_on_c, 1, 75, 0
3, 194400, Note_on_c, 1, 74, 105
3, 194424, Note_on_c, 1, 74, 0
3, 194448, Note_on_c, 1, 72, 100
3, 194472, Note_on_c, 1, 72, 0
3, 194496, Note_on_c, 1, 70, 100
3, 194520, Note_on_c, 1, 70, 0
3, 194544, Note_on_c, 1, 69, 105
3, 194568, Note_on_c, 1, 69, 0
3, 194592, Note_on_c, 1, 67, 100
3, 194616, Note_on_c, 1, 67, 0
3, 194640, Note_on_c, 1, 65, 100
3, 194664, Note_on_c, 1, 65, 0
3, 194688, Note_on_c, 1, 63, 105
3, 194712, Note_on_c, 1, 63, 0
3, 194736, Note_on_c, 1, 62, 100
3, 194760, Note_on_c, 1, 62, 0
3, 194784, Note_on_c, 1, 60, 100
3, 194808, Note_on_c, 1, 60, 0
3, 194832, Note_on_c, 1, 58, 100
3, 194856, Note_on_c, 1, 58, 0
3, 194976, Note_on_c, 1, 77, 65
3, 195011, Note_on_c, 1, 77, 0
3, 195048, Note_on_c, 1, 65, 60
3, 195060, Note_on_c, 1, 65, 0
3, 195072, Note_on_c, 1, 65, 60
3, 195096, Note_on_c, 1, 65, 0
3, 195120, Note_on_c, 1, 77, 65
3, 195155, Note_on_c, 1, 77, 0
3, 195192, Note_on_c, 1, 65, 64
3, 195204, Note_on_c, 1, 65, 0
3, 195216, Note_on_c, 1, 65, 66
3, 195240, Note_on_c, 1, 65, 0
3, 195264, Note_on_c, 1, 75, 75
3, 195299, Note_on_c, 1, 75, 0
3, 195336, Note_on_c, 1, 63, 74
3, 195348, Note_on_c, 1, 63, 0
3, 195360, Note_on_c, 1, 63, 75
3, 195384, Note_on_c, 1, 63, 0
3, 195408, Note_on_c, 1, 75, 84
3, 195443, Note_on_c, 1, 75, 0
3, 195480, Note_on_c, 1, 63, 83
3, 195492, Note_on_c, 1, 63, 0
3, 195504, Note_on_c, 1, 63, 85
3, 195528, Note_on_c, 1, 63, 0
3, 195552, Note_on_c, 1, 77, 90
3, 195587, Note_on_c, 1, 77, 0
3, 195624, Note_on_c, 1, 65, 85
3, 195636, Note_on_c, 1, 65, 0
3, 195648, Note_on_c, 1, 65, 83
3, 195672, Note_on_c, 1, 65, 0
3, 195696, Note_on_c, 1, 77, 79
3, 195731, Note_on_c, 1, 77, 0
3, 195768, Note_on_c, 1, 65, 74
3, 195780, Note_on_c, 1, 65, 0
3, 195792, Note_on_c, 1, 65, 72
3, 195816, Note_on_c, 1, 65, 0
3, 195840, Note_on_c, 1, 77, 68
3, 195875, Note_on_c, 1, 77, 0
3, 195912, Note_on_c, 1, 65, 62
3, 195924, Note_on_c, 1, 65, 0
3, 195936, Note_on_c, 1, 65, 60
3, 195960, Note_on_c, 1, 65, 0
3, 196416, Note_on_c, 1, 81, 60
3, 196451, Note_on_c, 1, 81, 0
3, 196488, Note_on_c, 1, 69, 63
3, 196500, Note_on_c, 1, 69, 0
3, 196512, Note_on_c, 1, 69, 65
3, 196536, Note_on_c, 1, 69, 0
3, 196560, Note_on_c, 1, 79, 67
3, 196595, Note_on_c, 1, 79, 0
3, 196632, Note_on_c, 1, 67, 71
3, 196644, Note_on_c, 1, 67, 0
3, 196656, Note_on_c, 1, 67, 73
3, 196680, Note_on_c, 1, 67, 0
3, 196704, Note_on_c, 1, 79, 75
3, 196739, Note_on_c, 1, 79, 0
3, 196776, Note_on_c, 1, 67, 79
3, 196788, Note_on_c, 1, 67, 0
3, 196800, Note_on_c, 1, 67, 81
3, 196824, Note_on_c, 1, 67, 0
3, 196848, Note_on_c, 1, 79, 83
3, 196883, Note_on_c, 1, 79, 0
3, 196920, Note_on_c, 1, 67, 87
3, 196932, Note_on_c, 1, 67, 0
3, 196944, Note_on_c, 1, 67, 88
3, 196968, Note_on_c, 1, 67, 0
3, 196992, Note_on_c, 1, 78, 90
3, 197027, Note_on_c, 1, 78, 0
3, 197064, Note_on_c, 1, 66, 85
3, 197076, Note_on_c, 1, 66, 0
3, 197088, Note_on_c, 1, 66, 83
3, 197112, Note_on_c, 1, 66, 0
3, 197136, Note_on_c, 1, 77, 79
3, 197171, Note_on_c, 1, 77, 0
3, 197208, Note_on_c, 1, 65, 74
3, 197220, Note_on_c, 1, 65, 0
3, 197232, Note_on_c, 1, 65, 72
3, 197256, Note_on_c, 1, 65, 0
3, 197280, Note_on_c, 1, 76, 68
3, 197315, Note_on_c, 1, 76, 0
3, 197352, Note_on_c, 1, 64, 62
3, 197364, Note_on_c, 1, 64, 0
3, 197376, Note_on_c, 1, 64, 60
3, 197400, Note_on_c, 1, 64, 0
3, 197712, Note_on_c, 1, 70, 60
3, 197747, Note_on_c, 1, 70, 0
3, 197784, Note_on_c, 1, 58, 65
3, 197796, Note_on_c, 1, 58, 0
3, 197808, Note_on_c, 1, 58, 67
3, 197832, Note_on_c, 1, 58, 0
3, 197856, Note_on_c, 1, 70, 71
3, 197891, Note_on_c, 1, 70, 0
3, 197928, Note_on_c, 1, 58, 76
3, 197940, Note_on_c, 1, 58, 0
3, 197952, Note_on_c, 1, 58, 78
3, 197976, Note_on_c, 1, 58, 0
3, 198000, Note_on_c, 1, 69, 82
3, 198035, Note_on_c, 1, 69, 0
3, 198072, Note_on_c, 1, 57, 88
3, 198084, Note_on_c, 1, 57, 0
3, 198096, Note_on_c, 1, 57, 90
3, 198120, Note_on_c, 1, 57, 0
3, 198144, Note_on_c, 1, 69, 90
3, 198179, Note_on_c, 1, 69, 0
3, 198216, Note_on_c, 1, 57, 85
3, 198228, Note_on_c, 1, 57, 0
3, 198240, Note_on_c, 1, 57, 83
3, 198264, Note_on_c, 1, 57, 0
3, 198288, Note_on_c, 1, 68, 79
3, 198323, Note_on_c, 1, 68, 0
3, 198360, Note_on_c, 1, 56, 74
3, 198372, Note_on_c, 1, 56, 0
3, 198384, Note_on_c, 1, 56, 72
3, 198408, Note_on_c, 1, 56, 0
3, 198432, Note_on_c, 1, 69, 68
3, 198467, Note_on_c, 1, 69, 0
3, 198504, Note_on_c, 1, 57, 62
3, 198516, Note_on_c, 1, 57, 0
3, 198528, Note_on_c, 1, 57, 60
3, 198552, Note_on_c, 1, 57, 0
3, 198576, Program_c, 1, 45
3, 198576, Control_c, 1, 7, 105
3, 198672, Note_on_c, 1, 57, 60
3, 198696, Note_on_c, 1, 57, 0
3, 198816, Note_on_c, 1, 69, 67
3, 198840, Note_on_c, 1, 69, 0
3, 198960, Note_on_c, 1, 75, 74
3, 198984, Note_on_c, 1, 75, 0
3, 199104, Note_on_c, 1, 76, 81
3, 199128, Note_on_c, 1, 76, 0
3, 199248, Note_on_c, 1, 69, 89
3, 199272, Note_on_c, 1, 69, 0
3, 199392, Note_on_c, 1, 69, 96
3, 199416, Note_on_c, 1, 69, 0
3, 199536, Note_on_c, 1, 74, 103
3, 199560, Note_on_c, 1, 74, 0
3, 199680, Note_on_c, 1, 69, 111
3, 199704, Note_on_c, 1, 69, 0
3, 199728, Program_c, 1, 48
3, 199728, Control_c, 1, 7, 123
3, 199728, Note_on_c, 1, 74, 120
3, 199763, Note_on_c, 1, 74, 0
3, 199802, Note_on_c, 1, 62, 113
3, 199814, Note_on_c, 1, 62, 0
3, 199826, Note_on_c, 1, 62, 113
3, 199850, Note_on_c, 1, 62, 0
3, 199874, Note_on_c, 1, 74, 120
3, 199909, Note_on_c, 1, 74, 0
3, 199946, Note_on_c, 1, 62, 113
3, 199958, Note_on_c, 1, 62, 0
3, 199970, Note_on_c, 1, 62, 113
3, 199994, Note_on_c, 1, 62, 0
3, 200018, Note_on_c, 1, 74, 120
3, 200053, Note_on_c, 1, 74, 0
3, 200090, Note_on_c, 1, 62, 113
3, 200102, Note_on_c, 1, 62, 0
3, 200114, Note_on_c, 1, 62, 113
3, 200138, Note_on_c, 1, 62, 0
3, 200162, Note_on_c, 1, 74, 120
3, 200197, Note_on_c, 1, 74, 0
3, 200234, Note_on_c, 1, 62, 113
3, 200246, Note_on_c, 1, 62, 0
3, 200258, Note_on_c, 1, 62, 113
3, 200282, Note_on_c, 1, 62, 0
3, 200306, Note_on_c, 1, 74, 120
3, 200341, Note_on_c, 1, 74, 0
3, 200378, Note_on_c, 1, 62, 113
3, 200390, Note_on_c, 1, 62, 0
3, 200402, Note_on_c, 1, 62, 113
3, 200426, Note_on_c, 1, 62, 0
3, 200450, Note_on_c, 1, 74, 120
3, 200485, Note_on_c, 1, 74, 0
3, 200522, Note_on_c, 1, 62, 113
3, 200534, Note_on_c, 1, 62, 0
3, 200546, Note_on_c, 1, 62, 113
3, 200570, Note_on_c, 1, 62, 0
3, 200594, Note_on_c, 1, 74, 120
3, 200629, Note_on_c, 1, 74, 0
3, 200666, Note_on_c, 1, 62, 113
3, 200678, Note_on_c, 1, 62, 0
3, 200690, Note_on_c, 1, 62, 113
3, 200714, Note_on_c, 1, 62, 0
3, 200738, Note_on_c, 1, 74, 120
3, 200773, Note_on_c, 1, 74, 0
3, 200810, Note_on_c, 1, 62, 113
3, 200822, Note_on_c, 1, 62, 0
3, 200834, Note_on_c, 1, 62, 113
3, 200858, Note_on_c, 1, 62, 0
3, 200882, Note_on_c, 1, 74, 120
3, 200917, Note_on_c, 1, 74, 0
3, 200954, Note_on_c, 1, 62, 113
3, 200966, Note_on_c, 1, 62, 0
3, 200978, Note_on_c, 1, 62, 113
3, 201002, Note_on_c, 1, 62, 0
3, 201026, Note_on_c, 1, 74, 120
3, 201061, Note_on_c, 1, 74, 0
3, 201098, Note_on_c, 1, 62, 113
3, 201110, Note_on_c, 1, 62, 0
3, 201122, Note_on_c, 1, 62, 113
3, 201146, Note_on_c, 1, 62, 0
3, 201170, Note_on_c, 1, 74, 120
3, 201205, Note_on_c, 1, 74, 0
3, 201242, Note_on_c, 1, 62, 113
3, 201254, Note_on_c, 1, 62, 0
3, 201266, Note_on_c, 1, 62, 113
3, 201290, Note_on_c, 1, 62, 0
3, 201314, Note_on_c, 1, 74, 120
3, 201349, Note_on_c, 1, 74, 0
3, 201386, Note_on_c, 1, 62, 113
3, 201398, Note_on_c, 1, 62, 0
3, 201410, Note_on_c, 1, 62, 113
3, 201434, Note_on_c, 1, 62, 0
3, 201458, Note_on_c, 1, 74, 120
3, 201493, Note_on_c, 1, 74, 0
3, 201530, Note_on_c, 1, 62, 113
3, 201542, Note_on_c, 1, 62, 0
3, 201554, Note_on_c, 1, 62, 113
3, 201578, Note_on_c, 1, 62, 0
3, 201602, Note_on_c, 1, 74, 120
3, 201637, Note_on_c, 1, 74, 0
3, 201674, Note_on_c, 1, 62, 113
3, 201686, Note_on_c, 1, 62, 0
3, 201698, Note_on_c, 1, 62, 113
3, 201722, Note_on_c, 1, 62, 0
3, 201746, Note_on_c, 1, 74, 120
3, 201781, Note_on_c, 1, 74, 0
3, 201818, Note_on_c, 1, 62, 113
3, 201830, Note_on_c, 1, 62, 0
3, 201842, Note_on_c, 1, 62, 113
3, 201866, Note_on_c, 1, 62, 0
3, 201890, Note_on_c, 1, 74, 120
3, 201925, Note_on_c, 1, 74, 0
3, 201962, Note_on_c, 1, 62, 113
3, 201974, Note_on_c, 1, 62, 0
3, 201986, Note_on_c, 1, 62, 113
3, 202010, Note_on_c, 1, 62, 0
3, 202032, Note_on_c, 1, 62, 120
3, 202032, Note_on_c, 1, 74, 120
3, 202056, Note_on_c, 1, 74, 0
3, 202056, Note_on_c, 1, 62, 0
3, 202320, Note_on_c, 1, 70, 118
3, 202355, Note_on_c, 1, 70, 0
3, 202392, Note_on_c, 1, 58, 113
3, 202404, Note_on_c, 1, 58, 0
3, 202416, Note_on_c, 1, 58, 113
3, 202440, Note_on_c, 1, 58, 0
3, 202464, Note_on_c, 1, 70, 118
3, 202488, Note_on_c, 1, 70, 0
3, 202512, Note_on_c, 1, 67, 113
3, 202536, Note_on_c, 1, 67, 0
3, 202560, Note_on_c, 1, 65, 113
3, 202584, Note_on_c, 1, 65, 0
3, 202608, Note_on_c, 1, 64, 118
3, 202632, Note_on_c, 1, 64, 0
3, 202896, Note_on_c, 1, 81, 118
3, 202931, Note_on_c, 1, 81, 0
3, 202968, Note_on_c, 1, 69, 113
3, 202980, Note_on_c, 1, 69, 0
3, 202992, Note_on_c, 1, 69, 113
3, 203016, Note_on_c, 1, 69, 0
3, 203040, Note_on_c, 1, 81, 118
3, 203064, Note_on_c, 1, 81, 0
3, 203088, Note_on_c, 1, 77, 113
3, 203112, Note_on_c, 1, 77, 0
3, 203136, Note_on_c, 1, 76, 113
3, 203160, Note_on_c, 1, 76, 0
3, 203184, Control_c, 1, 6, 64
3, 203184, Control_c, 1, 11, 60
3, 203184, Note_on_c, 1, 62, 100
3, 203232, Note_on_c, 1, 62, 0
3, 203232, Note_on_c, 1, 64, 100
3, 203280, Note_on_c, 1, 64, 0
3, 203280, Note_on_c, 1, 66, 100
3, 203328, Note_on_c, 1, 66, 0
3, 203328, Note_on_c, 1, 67, 100
3, 203472, Control_c, 1, 11, 60
3, 203487, Control_c, 1, 11, 61
3, 203501, Control_c, 1, 11, 62
3, 203516, Control_c, 1, 11, 63
3, 203520, Note_on_c, 1, 67, 0
3, 203520, Note_on_c, 1, 65, 100
3, 203530, Control_c, 1, 11, 64
3, 203544, Control_c, 1, 11, 65
3, 203559, Control_c, 1, 11, 66
3, 203568, Note_on_c, 1, 65, 0
3, 203568, Note_on_c, 1, 63, 100
3, 203573, Control_c, 1, 11, 67
3, 203587, Control_c, 1, 11, 68
3, 203602, Control_c, 1, 11, 69
3, 203616, Note_on_c, 1, 63, 0
3, 203616, Note_on_c, 1, 75, 100
3, 203616, Control_c, 1, 11, 70
3, 203631, Control_c, 1, 11, 71
3, 203645, Control_c, 1, 11, 72
3, 203659, Control_c, 1, 11, 73
3, 203664, Note_on_c, 1, 75, 0
3, 203664, Note_on_c, 1, 77, 100
3, 203674, Control_c, 1, 11, 74
3, 203688, Control_c, 1, 11, 75
3, 203702, Control_c, 1, 11, 76
3, 203712, Note_on_c, 1, 77, 0
3, 203712, Note_on_c, 1, 79, 100
3, 203717, Control_c, 1, 11, 77
3, 203731, Control_c, 1, 11, 78
3, 203745, Control_c, 1, 11, 79
3, 203760, Note_on_c, 1, 79, 0
3, 203760, Note_on_c, 1, 76, 100
3, 203760, Control_c, 1, 11, 80
3, 203774, Control_c, 1, 11, 81
3, 203789, Control_c, 1, 11, 82
3, 203803, Control_c, 1, 11, 83
3, 203808, Note_on_c, 1, 76, 0
3, 203808, Note_on_c, 1, 77, 100
3, 203817, Control_c, 1, 11, 84
3, 203832, Control_c, 1, 11, 85
3, 203846, Control_c, 1, 11, 86
3, 203856, Note_on_c, 1, 77, 0
3, 203856, Note_on_c, 1, 79, 100
3, 203860, Control_c, 1, 11, 87
3, 203875, Control_c, 1, 11, 88
3, 203889, Control_c, 1, 11, 89
3, 203903, Control_c, 1, 11, 90
3, 203904, Note_on_c, 1, 79, 0
3, 203904, Control_c, 1, 11, 90
3, 203904, Note_on_c, 1, 76, 100
3, 203909, Control_c, 1, 11, 89
3, 203914, Control_c, 1, 11, 88
3, 203919, Control_c, 1, 11, 87
3, 203924, Control_c, 1, 11, 86
3, 203928, Control_c, 1, 11, 85
3, 203933, Control_c, 1, 11, 84
3, 203938, Control_c, 1, 11, 83
3, 203943, Control_c, 1, 11, 82
3, 203947, Control_c, 1, 11, 81
3, 203952, Note_on_c, 1, 76, 0
3, 203952, Note_on_c, 1, 74, 100
3, 203952, Control_c, 1, 11, 80
3, 203957, Control_c, 1, 11, 79
3, 203962, Control_c, 1, 11, 78
3, 203966, Control_c, 1, 11, 77
3, 203971, Control_c, 1, 11, 76
3, 203976, Control_c, 1, 11, 75
3, 203981, Control_c, 1, 11, 74
3, 203986, Control_c, 1, 11, 73
3, 203990, Control_c, 1, 11, 72
3, 203995, Control_c, 1, 11, 71
3, 204000, Note_on_c, 1, 74, 0
3, 204000, Note_on_c, 1, 73, 100
3, 204000, Control_c, 1, 11, 70
3, 204005, Control_c, 1, 11, 69
3, 204009, Control_c, 1, 11, 68
3, 204014, Control_c, 1, 11, 67
3, 204019, Control_c, 1, 11, 66
3, 204024, Control_c, 1, 11, 65
3, 204028, Control_c, 1, 11, 64
3, 204033, Control_c, 1, 11, 63
3, 204038, Control_c, 1, 11, 62
3, 204043, Control_c, 1, 11, 61
3, 204047, Control_c, 1, 11, 60
3, 204048, Note_on_c, 1, 73, 0
3, 204624, Control_c, 1, 6, 14
3, 204912, Control_c, 1, 11, 120
3, 204912, Note_on_c, 1, 65, 105
3, 204936, Note_on_c, 1, 65, 0
3, 204960, Note_on_c, 1, 67, 100
3, 204984, Note_on_c, 1, 67, 0
3, 205008, Note_on_c, 1, 74, 100
3, 205032, Note_on_c, 1, 74, 0
3, 205056, Note_on_c, 1, 74, 105
3, 205056, Note_on_c, 1, 76, 105
3, 205080, Note_on_c, 1, 76, 0
3, 205080, Note_on_c, 1, 74, 0
3, 205104, Note_on_c, 1, 73, 100
3, 205104, Note_on_c, 1, 76, 100
3, 205128, Note_on_c, 1, 76, 0
3, 205128, Note_on_c, 1, 73, 0
3, 205152, Note_on_c, 1, 65, 100
3, 205152, Note_on_c, 1, 74, 100
3, 205176, Note_on_c, 1, 74, 0
3, 205176, Note_on_c, 1, 65, 0
3, 205200, Note_on_c, 1, 65, 110
3, 205200, Note_on_c, 1, 74, 110
3, 205224, Note_on_c, 1, 74, 0
3, 205224, Note_on_c, 1, 65, 0
3, 205488, Note_on_c, 1, 74, 105
3, 205512, Note_on_c, 1, 74, 0
3, 205536, Note_on_c, 1, 86, 100
3, 205560, Note_on_c, 1, 86, 0
3, 205584, Note_on_c, 1, 86, 100
3, 205608, Note_on_c, 1, 86, 0
3, 205632, Note_on_c, 1, 88, 105
3, 205656, Note_on_c, 1, 88, 0
3, 205680, Note_on_c, 1, 73, 100
3, 205704, Note_on_c, 1, 73, 0
3, 205728, Note_on_c, 1, 77, 100
3, 205752, Note_on_c, 1, 77, 0
3, 205776, Note_on_c, 1, 74, 110
3, 205811, Note_on_c, 1, 74, 0
3, 205848, Note_on_c, 1, 62, 100
3, 205860, Note_on_c, 1, 62, 0
3, 205872, Note_on_c, 1, 62, 100
3, 205896, Note_on_c, 1, 62, 0
3, 205920, Note_on_c, 1, 57, 105
3, 205944, Note_on_c, 1, 57, 0
3, 206064, Note_on_c, 1, 74, 110
3, 206099, Note_on_c, 1, 74, 0
3, 206136, Note_on_c, 1, 62, 100
3, 206148, Note_on_c, 1, 62, 0
3, 206160, Note_on_c, 1, 62, 100
3, 206184, Note_on_c, 1, 62, 0
3, 206208, Note_on_c, 1, 57, 105
3, 206232, Note_on_c, 1, 57, 0
3, 206490, Control_c, 1, 6, 64
3, 206496, Note_on_c, 1, 64, 49
3, 206544, Note_on_c, 1, 64, 0
3, 206544, Note_on_c, 1, 61, 46
3, 206592, Note_on_c, 1, 61, 0
3, 206592, Note_on_c, 1, 55, 40
3, 206640, Note_on_c, 1, 55, 0
3, 206640, Note_on_c, 1, 61, 49
3, 206688, Note_on_c, 1, 61, 0
3, 206688, Note_on_c, 1, 64, 49
3, 206736, Note_on_c, 1, 64, 0
3, 206736, Note_on_c, 1, 67, 52
3, 206784, Note_on_c, 1, 67, 0
3, 206784, Note_on_c, 1, 64, 49
3, 206832, Note_on_c, 1, 64, 0
3, 206832, Note_on_c, 1, 67, 52
3, 206880, Note_on_c, 1, 67, 0
3, 206880, Note_on_c, 1, 73, 58
3, 206928, Note_on_c, 1, 73, 0
3, 206928, Control_c, 1, 6, 14
3, 206928, Note_on_c, 1, 69, 60
3, 206963, Note_on_c, 1, 69, 0
3, 207000, Note_on_c, 1, 57, 50
3, 207012, Note_on_c, 1, 57, 0
3, 207024, Note_on_c, 1, 57, 50
3, 207048, Note_on_c, 1, 57, 0
3, 207072, Note_on_c, 1, 57, 55
3, 207096, Note_on_c, 1, 57, 0
3, 207216, Note_on_c, 1, 69, 60
3, 207251, Note_on_c, 1, 69, 0
3, 207288, Note_on_c, 1, 57, 50
3, 207300, Note_on_c, 1, 57, 0
3, 207312, Note_on_c, 1, 57, 50
3, 207336, Note_on_c, 1, 57, 0
3, 207360, Note_on_c, 1, 57, 55
3, 207384, Note_on_c, 1, 57, 0
3, 208080, Note_on_c, 1, 69, 55
3, 208115, Note_on_c, 1, 69, 0
3, 208152, Note_on_c, 1, 57, 54
3, 208164, Note_on_c, 1, 57, 0
3, 208176, Note_on_c, 1, 57, 56
3, 208200, Note_on_c, 1, 57, 0
3, 208224, Note_on_c, 1, 57, 59
3, 208248, Note_on_c, 1, 57, 0
3, 208368, Note_on_c, 1, 69, 73
3, 208403, Note_on_c, 1, 69, 0
3, 208440, Note_on_c, 1, 57, 72
3, 208452, Note_on_c, 1, 57, 0
3, 208464, Note_on_c, 1, 57, 74
3, 208488, Note_on_c, 1, 57, 0
3, 208512, Note_on_c, 1, 57, 77
3, 208536, Note_on_c, 1, 57, 0
3, 208656, Note_on_c, 1, 62, 86
3, 208691, Note_on_c, 1, 62, 0
3, 208728, Note_on_c, 1, 65, 90
3, 208740, Note_on_c, 1, 65, 0
3, 208752, Note_on_c, 1, 65, 92
3, 208776, Note_on_c, 1, 65, 0
3, 208800, Note_on_c, 1, 67, 95
3, 208824, Note_on_c, 1, 67, 0
3, 208944, Note_on_c, 1, 67, 104
3, 208979, Note_on_c, 1, 67, 0
3, 209016, Note_on_c, 1, 74, 108
3, 209028, Note_on_c, 1, 74, 0
3, 209040, Note_on_c, 1, 74, 110
3, 209064, Note_on_c, 1, 74, 0
3, 209088, Note_on_c, 1, 64, 113
3, 209088, Note_on_c, 1, 73, 113
3, 209112, Note_on_c, 1, 73, 0
3, 209112, Note_on_c, 1, 64, 0
3, 209280, Note_on_c, 1, 64, 55
3, 209304, Note_on_c, 1, 64, 0
3, 209328, Note_on_c, 1, 65, 50
3, 209352, Note_on_c, 1, 65, 0
3, 209376, Note_on_c, 1, 67, 50
3, 209400, Note_on_c, 1, 67, 0
3, 209424, Note_on_c, 1, 69, 55
3, 209448, Note_on_c, 1, 69, 0
3, 209472, Note_on_c, 1, 67, 50
3, 209496, Note_on_c, 1, 67, 0
3, 209520, Note_on_c, 1, 65, 50
3, 209544, Note_on_c, 1, 65, 0
3, 209568, Note_on_c, 1, 66, 55
3, 209592, Note_on_c, 1, 66, 0
3, 209616, Note_on_c, 1, 67, 50
3, 209640, Note_on_c, 1, 67, 0
3, 209664, Note_on_c, 1, 69, 50
3, 209688, Note_on_c, 1, 69, 0
3, 209712, Note_on_c, 1, 70, 55
3, 209736, Note_on_c, 1, 70, 0
3, 209760, Note_on_c, 1, 69, 50
3, 209784, Note_on_c, 1, 69, 0
3, 209808, Note_on_c, 1, 67, 50
3, 209832, Note_on_c, 1, 67, 0
3, 209856, Note_on_c, 1, 64, 55
3, 209880, Note_on_c, 1, 64, 0
3, 209904, Note_on_c, 1, 65, 50
3, 209928, Note_on_c, 1, 65, 0
3, 209952, Note_on_c, 1, 67, 50
3, 209976, Note_on_c, 1, 67, 0
3, 210000, Note_on_c, 1, 69, 55
3, 210024, Note_on_c, 1, 69, 0
3, 210048, Note_on_c, 1, 67, 50
3, 210072, Note_on_c, 1, 67, 0
3, 210096, Note_on_c, 1, 65, 50
3, 210120, Note_on_c, 1, 65, 0
3, 210144, Note_on_c, 1, 66, 55
3, 210168, Note_on_c, 1, 66, 0
3, 210192, Note_on_c, 1, 67, 50
3, 210216, Note_on_c, 1, 67, 0
3, 210240, Note_on_c, 1, 69, 50
3, 210264, Note_on_c, 1, 69, 0
3, 210288, Note_on_c, 1, 70, 55
3, 210312, Note_on_c, 1, 70, 0
3, 210336, Note_on_c, 1, 69, 50
3, 210360, Note_on_c, 1, 69, 0
3, 210384, Note_on_c, 1, 67, 50
3, 210408, Note_on_c, 1, 67, 0
3, 210432, Note_on_c, 1, 81, 60
3, 210467, Note_on_c, 1, 81, 0
3, 210504, Note_on_c, 1, 69, 54
3, 210516, Note_on_c, 1, 69, 0
3, 210528, Note_on_c, 1, 69, 55
3, 210552, Note_on_c, 1, 69, 0
3, 210576, Note_on_c, 1, 74, 62
3, 210600, Note_on_c, 1, 74, 0
3, 210624, Note_on_c, 1, 76, 61
3, 210648, Note_on_c, 1, 76, 0
3, 210672, Note_on_c, 1, 77, 64
3, 210696, Note_on_c, 1, 77, 0
3, 210720, Note_on_c, 1, 81, 76
3, 210755, Note_on_c, 1, 81, 0
3, 210792, Note_on_c, 1, 69, 71
3, 210804, Note_on_c, 1, 69, 0
3, 210816, Note_on_c, 1, 69, 72
3, 210840, Note_on_c, 1, 69, 0
3, 210864, Note_on_c, 1, 74, 75
3, 210888, Note_on_c, 1, 74, 0
3, 210912, Note_on_c, 1, 76, 78
3, 210936, Note_on_c, 1, 76, 0
3, 210960, Note_on_c, 1, 77, 80
3, 210984, Note_on_c, 1, 77, 0
3, 211008, Note_on_c, 1, 81, 93
3, 211043, Note_on_c, 1, 81, 0
3, 211080, Note_on_c, 1, 69, 87
3, 211092, Note_on_c, 1, 69, 0
3, 211104, Note_on_c, 1, 69, 89
3, 211128, Note_on_c, 1, 69, 0
3, 211152, Note_on_c, 1, 74, 92
3, 211176, Note_on_c, 1, 74, 0
3, 211200, Note_on_c, 1, 76, 95
3, 211224, Note_on_c, 1, 76, 0
3, 211248, Note_on_c, 1, 77, 97
3, 211272, Note_on_c, 1, 77, 0
3, 211296, Note_on_c, 1, 81, 110
3, 211331, Note_on_c, 1, 81, 0
3, 211368, Note_on_c, 1, 69, 104
3, 211380, Note_on_c, 1, 69, 0
3, 211392, Note_on_c, 1, 69, 106
3, 211416, Note_on_c, 1, 69, 0
3, 211440, Note_on_c, 1, 74, 109
3, 211464, Note_on_c, 1, 74, 0
3, 211488, Note_on_c, 1, 76, 111
3, 211512, Note_on_c, 1, 76, 0
3, 211536, Note_on_c, 1, 77, 114
3, 211560, Note_on_c, 1, 77, 0
3, 211584, Note_on_c, 1, 81, 125
3, 211608, Note_on_c, 1, 81, 0
3, 211632, Note_on_c, 1, 69, 115
3, 211656, Note_on_c, 1, 69, 0
3, 211680, Note_on_c, 1, 74, 125
3, 211704, Note_on_c, 1, 74, 0
3, 211728, Note_on_c, 1, 62, 115
3, 211752, Note_on_c, 1, 62, 0
3, 211776, Note_on_c, 1, 69, 125
3, 211800, Note_on_c, 1, 69, 0
3, 211824, Note_on_c, 1, 57, 115
3, 211848, Note_on_c, 1, 57, 0
3, 211872, Note_on_c, 1, 81, 125
3, 211896, Note_on_c, 1, 81, 0
3, 211920, Note_on_c, 1, 69, 120
3, 211944, Note_on_c, 1, 69, 0
3, 211968, Control_c, 1, 11, 95
3, 211968, Note_on_c, 1, 74, 120
3, 211968, Note_on_c, 1, 86, 120
3, 211969, Control_c, 1, 11, 91
3, 211970, Control_c, 1, 11, 88
3, 211971, Control_c, 1, 11, 85
3, 211972, Control_c, 1, 11, 83
3, 211973, Control_c, 1, 11, 81
3, 211974, Control_c, 1, 11, 79
3, 211975, Control_c, 1, 11, 77
3, 211976, Control_c, 1, 11, 76
3, 211977, Control_c, 1, 11, 75
3, 211978, Control_c, 1, 11, 74
3, 211979, Control_c, 1, 11, 73
3, 211980, Control_c, 1, 11, 72
3, 211981, Control_c, 1, 11, 71
3, 211982, Control_c, 1, 11, 70
3, 211984, Control_c, 1, 11, 69
3, 211985, Control_c, 1, 11, 68
3, 211988, Control_c, 1, 11, 67
3, 211991, Control_c, 1, 11, 66
3, 211997, Control_c, 1, 11, 65
3, 213315, Note_on_c, 1, 86, 0
3, 213315, Note_on_c, 1, 74, 0
3, 213506, Control_c, 1, 11, 127
3, 213506, Note_on_c, 1, 81, 127
3, 213530, Note_on_c, 1, 81, 0
3, 213554, Note_on_c, 1, 69, 115
3, 213578, Note_on_c, 1, 69, 0
3, 213602, Note_on_c, 1, 74, 125
3, 213626, Note_on_c, 1, 74, 0
3, 213650, Note_on_c, 1, 62, 115
3, 213674, Note_on_c, 1, 62, 0
3, 213698, Note_on_c, 1, 69, 125
3, 213722, Note_on_c, 1, 69, 0
3, 213746, Note_on_c, 1, 57, 115
3, 213770, Note_on_c, 1, 57, 0
3, 213794, Note_on_c, 1, 81, 125
3, 213818, Note_on_c, 1, 81, 0
3, 213842, Note_on_c, 1, 69, 115
3, 213866, Note_on_c, 1, 69, 0
3, 213890, Note_on_c, 1, 62, 125
3, 213914, Note_on_c, 1, 62, 0
3, 214080, End_track
4, 0, Start_track
4, 0, Title_t, "Viola"
4, 0, MIDI_port, 0
4, 176, Control_c, 2, 91, 80
4, 178, Control_c, 2, 93, 20
4, 180, Control_c, 2, 10, 64
4, 182, Control_c, 2, 99, 1
4, 184, Control_c, 2, 98, 32
4, 186, Control_c, 2, 6, 59
4, 188, Control_c, 2, 98, 33
4, 190, Control_c, 2, 6, 50
4, 192, Control_c, 2, 7, 123
4, 192, Control_c, 2, 11, 120
4, 192, Program_c, 2, 48
4, 192, Control_c, 2, 99, 1
4, 192, Control_c, 2, 98, 99
4, 192, Control_c, 2, 6, 14
4, 192, Note_on_c, 2, 74, 110
4, 227, Note_on_c, 2, 74, 0
4, 264, Note_on_c, 2, 62, 100
4, 276, Note_on_c, 2, 62, 0
4, 288, Note_on_c, 2, 62, 100
4, 312, Note_on_c, 2, 62, 0
4, 480, Note_on_c, 2, 69, 110
4, 515, Note_on_c, 2, 69, 0
4, 552, Note_on_c, 2, 57, 100
4, 564, Note_on_c, 2, 57, 0
4, 576, Note_on_c, 2, 57, 100
4, 600, Note_on_c, 2, 57, 0
4, 912, Note_on_c, 2, 62, 110
4, 947, Note_on_c, 2, 62, 0
4, 984, Note_on_c, 2, 50, 100
4, 996, Note_on_c, 2, 50, 0
4, 1008, Note_on_c, 2, 50, 100
4, 1032, Note_on_c, 2, 50, 0
4, 1920, Note_on_c, 2, 74, 60
4, 1955, Note_on_c, 2, 74, 0
4, 1992, Note_on_c, 2, 62, 50
4, 2004, Note_on_c, 2, 62, 0
4, 2016, Note_on_c, 2, 62, 50
4, 2040, Note_on_c, 2, 62, 0
4, 2064, Note_on_c, 2, 69, 55
4, 2088, Note_on_c, 2, 69, 0
4, 2112, Note_on_c, 2, 71, 50
4, 2136, Note_on_c, 2, 71, 0
4, 2160, Note_on_c, 2, 72, 50
4, 2184, Note_on_c, 2, 72, 0
4, 2208, Note_on_c, 2, 71, 55
4, 2232, Note_on_c, 2, 71, 0
4, 2256, Note_on_c, 2, 72, 50
4, 2280, Note_on_c, 2, 72, 0
4, 2304, Note_on_c, 2, 74, 50
4, 2328, Note_on_c, 2, 74, 0
4, 2352, Note_on_c, 2, 72, 55
4, 2376, Note_on_c, 2, 72, 0
4, 2400, Note_on_c, 2, 71, 50
4, 2424, Note_on_c, 2, 71, 0
4, 2448, Note_on_c, 2, 69, 50
4, 2472, Note_on_c, 2, 69, 0
4, 2496, Note_on_c, 2, 70, 55
4, 2520, Note_on_c, 2, 70, 0
4, 2544, Note_on_c, 2, 69, 50
4, 2568, Note_on_c, 2, 69, 0
4, 2592, Note_on_c, 2, 67, 50
4, 2616, Note_on_c, 2, 67, 0
4, 2640, Note_on_c, 2, 65, 55
4, 2664, Note_on_c, 2, 65, 0
4, 2688, Note_on_c, 2, 64, 50
4, 2712, Note_on_c, 2, 64, 0
4, 2736, Note_on_c, 2, 62, 50
4, 2760, Note_on_c, 2, 62, 0
4, 2784, Note_on_c, 2, 61, 55
4, 2808, Note_on_c, 2, 61, 0
4, 2832, Note_on_c, 2, 62, 50
4, 2856, Note_on_c, 2, 62, 0
4, 2880, Note_on_c, 2, 64, 50
4, 2904, Note_on_c, 2, 64, 0
4, 2928, Note_on_c, 2, 62, 55
4, 2952, Note_on_c, 2, 62, 0
4, 2976, Note_on_c, 2, 61, 50
4, 3000, Note_on_c, 2, 61, 0
4, 3024, Note_on_c, 2, 62, 50
4, 3048, Note_on_c, 2, 62, 0
4, 3072, Note_on_c, 2, 69, 55
4, 3096, Note_on_c, 2, 69, 0
4, 3120, Note_on_c, 2, 67, 50
4, 3144, Note_on_c, 2, 67, 0
4, 3168, Note_on_c, 2, 65, 50
4, 3192, Note_on_c, 2, 65, 0
4, 3216, Note_on_c, 2, 64, 55
4, 3240, Note_on_c, 2, 64, 0
4, 3264, Note_on_c, 2, 76, 50
4, 3288, Note_on_c, 2, 76, 0
4, 3312, Note_on_c, 2, 76, 50
4, 3336, Note_on_c, 2, 76, 0
4, 3360, Note_on_c, 2, 76, 55
4, 3384, Note_on_c, 2, 76, 0
4, 3408, Note_on_c, 2, 76, 50
4, 3432, Note_on_c, 2, 76, 0
4, 3456, Note_on_c, 2, 76, 50
4, 3480, Note_on_c, 2, 76, 0
4, 3504, Note_on_c, 2, 76, 55
4, 3528, Note_on_c, 2, 76, 0
4, 3552, Note_on_c, 2, 76, 50
4, 3576, Note_on_c, 2, 76, 0
4, 3600, Note_on_c, 2, 76, 50
4, 3624, Note_on_c, 2, 76, 0
4, 3648, Note_on_c, 2, 64, 55
4, 3672, Note_on_c, 2, 64, 0
4, 3696, Note_on_c, 2, 65, 50
4, 3720, Note_on_c, 2, 65, 0
4, 3744, Note_on_c, 2, 67, 50
4, 3768, Note_on_c, 2, 67, 0
4, 3792, Note_on_c, 2, 65, 55
4, 3816, Note_on_c, 2, 65, 0
4, 3840, Note_on_c, 2, 67, 50
4, 3864, Note_on_c, 2, 67, 0
4, 3888, Note_on_c, 2, 69, 50
4, 3912, Note_on_c, 2, 69, 0
4, 3936, Note_on_c, 2, 67, 55
4, 3960, Note_on_c, 2, 67, 0
4, 3984, Note_on_c, 2, 65, 50
4, 4008, Note_on_c, 2, 65, 0
4, 4032, Note_on_c, 2, 64, 50
4, 4056, Note_on_c, 2, 64, 0
4, 4080, Note_on_c, 2, 62, 55
4, 4104, Note_on_c, 2, 62, 0
4, 4128, Note_on_c, 2, 67, 50
4, 4152, Note_on_c, 2, 67, 0
4, 4176, Note_on_c, 2, 65, 50
4, 4200, Note_on_c, 2, 65, 0
4, 4224, Note_on_c, 2, 64, 55
4, 4248, Note_on_c, 2, 64, 0
4, 4272, Note_on_c, 2, 65, 50
4, 4296, Note_on_c, 2, 65, 0
4, 4320, Note_on_c, 2, 67, 50
4, 4344, Note_on_c, 2, 67, 0
4, 4368, Note_on_c, 2, 57, 55
4, 4392, Note_on_c, 2, 57, 0
4, 4416, Note_on_c, 2, 68, 50
4, 4440, Note_on_c, 2, 68, 0
4, 4464, Note_on_c, 2, 69, 50
4, 4488, Note_on_c, 2, 69, 0
4, 4512, Note_on_c, 2, 64, 55
4, 4536, Note_on_c, 2, 64, 0
4, 4560, Note_on_c, 2, 64, 50
4, 4584, Note_on_c, 2, 64, 0
4, 4608, Note_on_c, 2, 64, 50
4, 4632, Note_on_c, 2, 64, 0
4, 4656, Note_on_c, 2, 64, 55
4, 4680, Note_on_c, 2, 64, 0
4, 4704, Note_on_c, 2, 64, 50
4, 4728, Note_on_c, 2, 64, 0
4, 4752, Note_on_c, 2, 64, 50
4, 4776, Note_on_c, 2, 64, 0
4, 4800, Note_on_c, 2, 55, 55
4, 4824, Note_on_c, 2, 55, 0
4, 4848, Note_on_c, 2, 53, 50
4, 4872, Note_on_c, 2, 53, 0
4, 4896, Note_on_c, 2, 52, 50
4, 4920, Note_on_c, 2, 52, 0
4, 4944, Note_on_c, 2, 57, 55
4, 4968, Note_on_c, 2, 57, 0
4, 4992, Note_on_c, 2, 55, 50
4, 5016, Note_on_c, 2, 55, 0
4, 5040, Note_on_c, 2, 53, 50
4, 5064, Note_on_c, 2, 53, 0
4, 5088, Note_on_c, 2, 52, 55
4, 5112, Note_on_c, 2, 52, 0
4, 5136, Note_on_c, 2, 53, 50
4, 5160, Note_on_c, 2, 53, 0
4, 5184, Note_on_c, 2, 55, 50
4, 5208, Note_on_c, 2, 55, 0
4, 5232, Note_on_c, 2, 57, 55
4, 5256, Note_on_c, 2, 57, 0
4, 5280, Note_on_c, 2, 57, 50
4, 5304, Note_on_c, 2, 57, 0
4, 5328, Note_on_c, 2, 57, 50
4, 5352, Note_on_c, 2, 57, 0
4, 5376, Note_on_c, 2, 56, 55
4, 5400, Note_on_c, 2, 56, 0
4, 5424, Note_on_c, 2, 57, 50
4, 5448, Note_on_c, 2, 57, 0
4, 5472, Note_on_c, 2, 59, 50
4, 5496, Note_on_c, 2, 59, 0
4, 5520, Note_on_c, 2, 60, 55
4, 5544, Note_on_c, 2, 60, 0
4, 5568, Note_on_c, 2, 62, 50
4, 5592, Note_on_c, 2, 62, 0
4, 5616, Note_on_c, 2, 64, 50
4, 5640, Note_on_c, 2, 64, 0
4, 5664, Note_on_c, 2, 65, 55
4, 5688, Note_on_c, 2, 65, 0
4, 5712, Note_on_c, 2, 64, 50
4, 5736, Note_on_c, 2, 64, 0
4, 5760, Note_on_c, 2, 62, 50
4, 5784, Note_on_c, 2, 62, 0
4, 5808, Note_on_c, 2, 60, 55
4, 5832, Note_on_c, 2, 60, 0
4, 5856, Note_on_c, 2, 59, 50
4, 5880, Note_on_c, 2, 59, 0
4, 5904, Note_on_c, 2, 57, 50
4, 5928, Note_on_c, 2, 57, 0
4, 5952, Note_on_c, 2, 57, 55
4, 5976, Note_on_c, 2, 57, 0
4, 6000, Note_on_c, 2, 57, 50
4, 6024, Note_on_c, 2, 57, 0
4, 6048, Note_on_c, 2, 57, 50
4, 6072, Note_on_c, 2, 57, 0
4, 6096, Note_on_c, 2, 57, 55
4, 6120, Note_on_c, 2, 57, 0
4, 6144, Note_on_c, 2, 55, 50
4, 6168, Note_on_c, 2, 55, 0
4, 6192, Note_on_c, 2, 53, 50
4, 6216, Note_on_c, 2, 53, 0
4, 6240, Note_on_c, 2, 55, 55
4, 6264, Note_on_c, 2, 55, 0
4, 6288, Note_on_c, 2, 57, 50
4, 6312, Note_on_c, 2, 57, 0
4, 6336, Note_on_c, 2, 58, 50
4, 6360, Note_on_c, 2, 58, 0
4, 6384, Note_on_c, 2, 57, 55
4, 6408, Note_on_c, 2, 57, 0
4, 6432, Note_on_c, 2, 58, 50
4, 6456, Note_on_c, 2, 58, 0
4, 6480, Note_on_c, 2, 57, 50
4, 6504, Note_on_c, 2, 57, 0
4, 6528, Note_on_c, 2, 58, 55
4, 6552, Note_on_c, 2, 58, 0
4, 6576, Note_on_c, 2, 57, 51
4, 6600, Note_on_c, 2, 57, 0
4, 6624, Note_on_c, 2, 55, 53
4, 6648, Note_on_c, 2, 55, 0
4, 6672, Note_on_c, 2, 57, 60
4, 6696, Note_on_c, 2, 57, 0
4, 6720, Note_on_c, 2, 58, 56
4, 6744, Note_on_c, 2, 58, 0
4, 6768, Note_on_c, 2, 57, 58
4, 6792, Note_on_c, 2, 57, 0
4, 6816, Note_on_c, 2, 58, 65
4, 6840, Note_on_c, 2, 58, 0
4, 6864, Note_on_c, 2, 57, 61
4, 6888, Note_on_c, 2, 57, 0
4, 6912, Note_on_c, 2, 55, 63
4, 6936, Note_on_c, 2, 55, 0
4, 6960, Note_on_c, 2, 57, 70
4, 6984, Note_on_c, 2, 57, 0
4, 7008, Note_on_c, 2, 58, 66
4, 7032, Note_on_c, 2, 58, 0
4, 7056, Note_on_c, 2, 57, 68
4, 7080, Note_on_c, 2, 57, 0
4, 7104, Note_on_c, 2, 58, 75
4, 7128, Note_on_c, 2, 58, 0
4, 7152, Note_on_c, 2, 57, 71
4, 7176, Note_on_c, 2, 57, 0
4, 7200, Note_on_c, 2, 55, 73
4, 7224, Note_on_c, 2, 55, 0
4, 7248, Note_on_c, 2, 57, 80
4, 7272, Note_on_c, 2, 57, 0
4, 7296, Note_on_c, 2, 58, 77
4, 7320, Note_on_c, 2, 58, 0
4, 7344, Note_on_c, 2, 57, 78
4, 7368, Note_on_c, 2, 57, 0
4, 7392, Note_on_c, 2, 55, 85
4, 7416, Note_on_c, 2, 55, 0
4, 7440, Note_on_c, 2, 53, 82
4, 7464, Note_on_c, 2, 53, 0
4, 7488, Note_on_c, 2, 52, 83
4, 7512, Note_on_c, 2, 52, 0
4, 7536, Note_on_c, 2, 53, 90
4, 7560, Note_on_c, 2, 53, 0
4, 7584, Note_on_c, 2, 55, 87
4, 7608, Note_on_c, 2, 55, 0
4, 7632, Note_on_c, 2, 53, 88
4, 7656, Note_on_c, 2, 53, 0
4, 7680, Note_on_c, 2, 55, 95
4, 7704, Note_on_c, 2, 55, 0
4, 7728, Note_on_c, 2, 53, 92
4, 7752, Note_on_c, 2, 53, 0
4, 7776, Note_on_c, 2, 52, 93
4, 7800, Note_on_c, 2, 52, 0
4, 7824, Note_on_c, 2, 53, 100
4, 7848, Note_on_c, 2, 53, 0
4, 7872, Note_on_c, 2, 55, 97
4, 7896, Note_on_c, 2, 55, 0
4, 7920, Note_on_c, 2, 53, 98
4, 7944, Note_on_c, 2, 53, 0
4, 7968, Note_on_c, 2, 55, 105
4, 7992, Note_on_c, 2, 55, 0
4, 8016, Note_on_c, 2, 53, 102
4, 8040, Note_on_c, 2, 53, 0
4, 8064, Note_on_c, 2, 52, 104
4, 8088, Note_on_c, 2, 52, 0
4, 8112, Note_on_c, 2, 64, 110
4, 8136, Note_on_c, 2, 64, 0
4, 8160, Note_on_c, 2, 62, 107
4, 8184, Note_on_c, 2, 62, 0
4, 8208, Note_on_c, 2, 61, 109
4, 8232, Note_on_c, 2, 61, 0
4, 8256, Note_on_c, 2, 57, 108
4, 8258, Note_on_c, 2, 65, 110
4, 8260, Note_on_c, 2, 74, 112
4, 8280, Note_on_c, 2, 57, 0
4, 8282, Note_on_c, 2, 65, 0
4, 8284, Note_on_c, 2, 74, 0
4, 8400, Note_on_c, 2, 57, 108
4, 8402, Note_on_c, 2, 65, 110
4, 8404, Note_on_c, 2, 74, 112
4, 8424, Note_on_c, 2, 57, 0
4, 8426, Note_on_c, 2, 65, 0
4, 8428, Note_on_c, 2, 74, 0
4, 8544, Note_on_c, 2, 69, 110
4, 8544, Note_on_c, 2, 73, 112
4, 8568, Note_on_c, 2, 73, 0
4, 8568, Note_on_c, 2, 69, 0
4, 8688, Note_on_c, 2, 62, 110
4, 8688, Note_on_c, 2, 74, 112
4, 8712, Note_on_c, 2, 74, 0
4, 8712, Note_on_c, 2, 62, 0
4, 8832, Note_on_c, 2, 55, 108
4, 8834, Note_on_c, 2, 62, 110
4, 8836, Note_on_c, 2, 74, 112
4, 8856, Note_on_c, 2, 55, 0
4, 8858, Note_on_c, 2, 62, 0
4, 8860, Note_on_c, 2, 74, 0
4, 8976, Note_on_c, 2, 57, 108
4, 8978, Note_on_c, 2, 65, 110
4, 8980, Note_on_c, 2, 74, 112
4, 9000, Note_on_c, 2, 57, 0
4, 9002, Note_on_c, 2, 65, 0
4, 9004, Note_on_c, 2, 74, 0
4, 9120, Note_on_c, 2, 57, 108
4, 9122, Note_on_c, 2, 67, 110
4, 9124, Note_on_c, 2, 76, 112
4, 9144, Note_on_c, 2, 57, 0
4, 9146, Note_on_c, 2, 67, 0
4, 9148, Note_on_c, 2, 76, 0
4, 9264, Note_on_c, 2, 65, 108
4, 9264, Note_on_c, 2, 69, 110
4, 9288, Note_on_c, 2, 69, 0
4, 9288, Note_on_c, 2, 65, 0
4, 9408, Note_on_c, 2, 55, 110
4, 9408, Note_on_c, 2, 67, 112
4, 9432, Note_on_c, 2, 67, 0
4, 9432, Note_on_c, 2, 55, 0
4, 9552, Note_on_c, 2, 57, 108
4, 9554, Note_on_c, 2, 62, 110
4, 9556, Note_on_c, 2, 74, 112
4, 9576, Note_on_c, 2, 57, 0
4, 9578, Note_on_c, 2, 62, 0
4, 9580, Note_on_c, 2, 74, 0
4, 9696, Note_on_c, 2, 57, 108
4, 9698, Note_on_c, 2, 67, 110
4, 9700, Note_on_c, 2, 76, 112
4, 9720, Note_on_c, 2, 57, 0
4, 9722, Note_on_c, 2, 67, 0
4, 9724, Note_on_c, 2, 76, 0
4, 9840, Note_on_c, 2, 65, 110
4, 9840, Note_on_c, 2, 69, 110
4, 9864, Note_on_c, 2, 69, 0
4, 9864, Note_on_c, 2, 65, 0
4, 9936, Note_on_c, 2, 65, 108
4, 9936, Note_on_c, 2, 71, 110
4, 9960, Note_on_c, 2, 71, 0
4, 9960, Note_on_c, 2, 65, 0
4, 9984, Note_on_c, 2, 55, 108
4, 9986, Note_on_c, 2, 62, 110
4, 9988, Note_on_c, 2, 71, 112
4, 10008, Note_on_c, 2, 55, 0
4, 10010, Note_on_c, 2, 62, 0
4, 10012, Note_on_c, 2, 71, 0
4, 10128, Note_on_c, 2, 55, 108
4, 10130, Note_on_c, 2, 64, 110
4, 10132, Note_on_c, 2, 76, 112
4, 10152, Note_on_c, 2, 55, 0
4, 10154, Note_on_c, 2, 64, 0
4, 10156, Note_on_c, 2, 76, 0
4, 10272, Note_on_c, 2, 55, 108
4, 10274, Note_on_c, 2, 65, 110
4, 10276, Note_on_c, 2, 74, 112
4, 10296, Note_on_c, 2, 55, 0
4, 10298, Note_on_c, 2, 65, 0
4, 10300, Note_on_c, 2, 74, 0
4, 10416, Note_on_c, 2, 55, 110
4, 10416, Note_on_c, 2, 64, 112
4, 10440, Note_on_c, 2, 64, 0
4, 10440, Note_on_c, 2, 55, 0
4, 10464, Note_on_c, 2, 55, 108
4, 10464, Note_on_c, 2, 65, 110
4, 10488, Note_on_c, 2, 65, 0
4, 10488, Note_on_c, 2, 55, 0
4, 10512, Note_on_c, 2, 55, 108
4, 10512, Note_on_c, 2, 65, 110
4, 10536, Note_on_c, 2, 65, 0
4, 10536, Note_on_c, 2, 55, 0
4, 10560, Note_on_c, 2, 55, 108
4, 10562, Note_on_c, 2, 65, 110
4, 10564, Note_on_c, 2, 74, 112
4, 10584, Note_on_c, 2, 55, 0
4, 10586, Note_on_c, 2, 65, 0
4, 10588, Note_on_c, 2, 74, 0
4, 10704, Note_on_c, 2, 55, 108
4, 10706, Note_on_c, 2, 64, 110
4, 10708, Note_on_c, 2, 76, 112
4, 10728, Note_on_c, 2, 55, 0
4, 10730, Note_on_c, 2, 64, 0
4, 10732, Note_on_c, 2, 76, 0
4, 10848, Note_on_c, 2, 55, 108
4, 10850, Note_on_c, 2, 64, 110
4, 10852, Note_on_c, 2, 72, 112
4, 10872, Note_on_c, 2, 55, 0
4, 10874, Note_on_c, 2, 64, 0
4, 10876, Note_on_c, 2, 72, 0
4, 10992, Note_on_c, 2, 55, 108
4, 10994, Note_on_c, 2, 64, 110
4, 10996, Note_on_c, 2, 72, 112
4, 11016, Note_on_c, 2, 55, 0
4, 11018, Note_on_c, 2, 64, 0
4, 11020, Note_on_c, 2, 72, 0
4, 11136, Note_on_c, 2, 55, 110
4, 11136, Note_on_c, 2, 67, 112
4, 11160, Note_on_c, 2, 67, 0
4, 11160, Note_on_c, 2, 55, 0
4, 11568, Note_on_c, 2, 65, 60
4, 11603, Note_on_c, 2, 65, 0
4, 11640, Note_on_c, 2, 69, 69
4, 11652, Note_on_c, 2, 69, 0
4, 11664, Note_on_c, 2, 69, 73
4, 11688, Note_on_c, 2, 69, 0
4, 11712, Note_on_c, 2, 65, 79
4, 11747, Note_on_c, 2, 65, 0
4, 11784, Note_on_c, 2, 68, 89
4, 11796, Note_on_c, 2, 68, 0
4, 11808, Note_on_c, 2, 68, 92
4, 11832, Note_on_c, 2, 68, 0
4, 11856, Note_on_c, 2, 64, 99
4, 11891, Note_on_c, 2, 64, 0
4, 11928, Note_on_c, 2, 67, 99
4, 11940, Note_on_c, 2, 67, 0
4, 11952, Note_on_c, 2, 67, 96
4, 11976, Note_on_c, 2, 67, 0
4, 12000, Note_on_c, 2, 63, 90
4, 12035, Note_on_c, 2, 63, 0
4, 12072, Note_on_c, 2, 67, 81
4, 12084, Note_on_c, 2, 67, 0
4, 12096, Note_on_c, 2, 67, 78
4, 12120, Note_on_c, 2, 67, 0
4, 12144, Note_on_c, 2, 62, 72
4, 12179, Note_on_c, 2, 62, 0
4, 12216, Note_on_c, 2, 67, 63
4, 12228, Note_on_c, 2, 67, 0
4, 12240, Note_on_c, 2, 67, 60
4, 12264, Note_on_c, 2, 67, 0
4, 12288, Note_on_c, 2, 67, 60
4, 12323, Note_on_c, 2, 67, 0
4, 12360, Note_on_c, 2, 55, 63
4, 12372, Note_on_c, 2, 55, 0
4, 12384, Note_on_c, 2, 55, 64
4, 12408, Note_on_c, 2, 55, 0
4, 12432, Note_on_c, 2, 67, 66
4, 12467, Note_on_c, 2, 67, 0
4, 12504, Note_on_c, 2, 55, 69
4, 12516, Note_on_c, 2, 55, 0
4, 12528, Note_on_c, 2, 55, 70
4, 12552, Note_on_c, 2, 55, 0
4, 12576, Note_on_c, 2, 67, 72
4, 12611, Note_on_c, 2, 67, 0
4, 12648, Note_on_c, 2, 55, 75
4, 12660, Note_on_c, 2, 55, 0
4, 12672, Note_on_c, 2, 55, 76
4, 12696, Note_on_c, 2, 55, 0
4, 12720, Note_on_c, 2, 65, 78
4, 12755, Note_on_c, 2, 65, 0
4, 12792, Note_on_c, 2, 53, 81
4, 12804, Note_on_c, 2, 53, 0
4, 12816, Note_on_c, 2, 53, 82
4, 12840, Note_on_c, 2, 53, 0
4, 12864, Note_on_c, 2, 65, 84
4, 12899, Note_on_c, 2, 65, 0
4, 12936, Note_on_c, 2, 53, 87
4, 12948, Note_on_c, 2, 53, 0
4, 12960, Note_on_c, 2, 53, 88
4, 12984, Note_on_c, 2, 53, 0
4, 13008, Note_on_c, 2, 64, 90
4, 13043, Note_on_c, 2, 64, 0
4, 13080, Note_on_c, 2, 52, 94
4, 13092, Note_on_c, 2, 52, 0
4, 13104, Note_on_c, 2, 52, 95
4, 13128, Note_on_c, 2, 52, 0
4, 13152, Note_on_c, 2, 63, 97
4, 13187, Note_on_c, 2, 63, 0
4, 13224, Note_on_c, 2, 51, 100
4, 13236, Note_on_c, 2, 51, 0
4, 13248, Note_on_c, 2, 51, 101
4, 13272, Note_on_c, 2, 51, 0
4, 13296, Note_on_c, 2, 62, 103
4, 13331, Note_on_c, 2, 62, 0
4, 13368, Note_on_c, 2, 50, 106
4, 13380, Note_on_c, 2, 50, 0
4, 13392, Note_on_c, 2, 50, 107
4, 13416, Note_on_c, 2, 50, 0
4, 13440, Note_on_c, 2, 60, 120
4, 13475, Note_on_c, 2, 60, 0
4, 13512, Note_on_c, 2, 48, 113
4, 13524, Note_on_c, 2, 48, 0
4, 13536, Note_on_c, 2, 48, 113
4, 13560, Note_on_c, 2, 48, 0
4, 13584, Note_on_c, 2, 60, 120
4, 13619, Note_on_c, 2, 60, 0
4, 13656, Note_on_c, 2, 48, 113
4, 13668, Note_on_c, 2, 48, 0
4, 13680, Note_on_c, 2, 48, 113
4, 13704, Note_on_c, 2, 48, 0
4, 13728, Note_on_c, 2, 60, 120
4, 13763, Note_on_c, 2, 60, 0
4, 13800, Note_on_c, 2, 48, 113
4, 13812, Note_on_c, 2, 48, 0
4, 13824, Note_on_c, 2, 48, 113
4, 13848, Note_on_c, 2, 48, 0
4, 13872, Note_on_c, 2, 60, 120
4, 13907, Note_on_c, 2, 60, 0
4, 13944, Note_on_c, 2, 48, 113
4, 13956, Note_on_c, 2, 48, 0
4, 13968, Note_on_c, 2, 48, 113
4, 13992, Note_on_c, 2, 48, 0
4, 14016, Note_on_c, 2, 60, 120
4, 14051, Note_on_c, 2, 60, 0
4, 14088, Note_on_c, 2, 48, 113
4, 14100, Note_on_c, 2, 48, 0
4, 14112, Note_on_c, 2, 48, 113
4, 14136, Note_on_c, 2, 48, 0
4, 14160, Note_on_c, 2, 60, 120
4, 14195, Note_on_c, 2, 60, 0
4, 14232, Note_on_c, 2, 48, 113
4, 14244, Note_on_c, 2, 48, 0
4, 14256, Note_on_c, 2, 48, 113
4, 14280, Note_on_c, 2, 48, 0
4, 14304, Note_on_c, 2, 60, 120
4, 14339, Note_on_c, 2, 60, 0
4, 14376, Note_on_c, 2, 48, 113
4, 14388, Note_on_c, 2, 48, 0
4, 14400, Note_on_c, 2, 48, 113
4, 14424, Note_on_c, 2, 48, 0
4, 14448, Note_on_c, 2, 60, 120
4, 14483, Note_on_c, 2, 60, 0
4, 14520, Note_on_c, 2, 48, 113
4, 14532, Note_on_c, 2, 48, 0
4, 14544, Note_on_c, 2, 48, 113
4, 14568, Note_on_c, 2, 48, 0
4, 14592, Note_on_c, 2, 60, 120
4, 14627, Note_on_c, 2, 60, 0
4, 14664, Note_on_c, 2, 48, 113
4, 14676, Note_on_c, 2, 48, 0
4, 14688, Note_on_c, 2, 48, 113
4, 14712, Note_on_c, 2, 48, 0
4, 14736, Note_on_c, 2, 60, 120
4, 14771, Note_on_c, 2, 60, 0
4, 14808, Note_on_c, 2, 48, 113
4, 14820, Note_on_c, 2, 48, 0
4, 14832, Note_on_c, 2, 48, 113
4, 14856, Note_on_c, 2, 48, 0
4, 14880, Note_on_c, 2, 60, 120
4, 14915, Note_on_c, 2, 60, 0
4, 14952, Note_on_c, 2, 48, 113
4, 14964, Note_on_c, 2, 48, 0
4, 14976, Note_on_c, 2, 48, 113
4, 15000, Note_on_c, 2, 48, 0
4, 15024, Note_on_c, 2, 60, 120
4, 15059, Note_on_c, 2, 60, 0
4, 15096, Note_on_c, 2, 48, 113
4, 15108, Note_on_c, 2, 48, 0
4, 15120, Note_on_c, 2, 48, 113
4, 15144, Note_on_c, 2, 48, 0
4, 15168, Note_on_c, 2, 60, 120
4, 15203, Note_on_c, 2, 60, 0
4, 15240, Note_on_c, 2, 48, 113
4, 15252, Note_on_c, 2, 48, 0
4, 15264, Note_on_c, 2, 48, 113
4, 15288, Note_on_c, 2, 48, 0
4, 15312, Note_on_c, 2, 60, 120
4, 15347, Note_on_c, 2, 60, 0
4, 15384, Note_on_c, 2, 48, 113
4, 15396, Note_on_c, 2, 48, 0
4, 15408, Note_on_c, 2, 48, 113
4, 15432, Note_on_c, 2, 48, 0
4, 15456, Note_on_c, 2, 60, 120
4, 15491, Note_on_c, 2, 60, 0
4, 15528, Note_on_c, 2, 48, 113
4, 15540, Note_on_c, 2, 48, 0
4, 15552, Note_on_c, 2, 48, 113
4, 15576, Note_on_c, 2, 48, 0
4, 15600, Note_on_c, 2, 60, 120
4, 15635, Note_on_c, 2, 60, 0
4, 15672, Note_on_c, 2, 48, 113
4, 15684, Note_on_c, 2, 48, 0
4, 15696, Note_on_c, 2, 48, 113
4, 15720, Note_on_c, 2, 48, 0
4, 15744, Note_on_c, 2, 60, 113
4, 15768, Note_on_c, 2, 60, 0
4, 16032, Note_on_c, 2, 65, 120
4, 16067, Note_on_c, 2, 65, 0
4, 16104, Note_on_c, 2, 53, 113
4, 16116, Note_on_c, 2, 53, 0
4, 16128, Note_on_c, 2, 53, 113
4, 16152, Note_on_c, 2, 53, 0
4, 16176, Note_on_c, 2, 65, 117
4, 16200, Note_on_c, 2, 65, 0
4, 16224, Note_on_c, 2, 62, 113
4, 16248, Note_on_c, 2, 62, 0
4, 16272, Note_on_c, 2, 60, 113
4, 16296, Note_on_c, 2, 60, 0
4, 16320, Note_on_c, 2, 59, 113
4, 16344, Note_on_c, 2, 59, 0
4, 16608, Note_on_c, 2, 64, 120
4, 16643, Note_on_c, 2, 64, 0
4, 16680, Note_on_c, 2, 52, 113
4, 16692, Note_on_c, 2, 52, 0
4, 16704, Note_on_c, 2, 52, 113
4, 16728, Note_on_c, 2, 52, 0
4, 16752, Note_on_c, 2, 64, 117
4, 16776, Note_on_c, 2, 64, 0
4, 16800, Note_on_c, 2, 60, 113
4, 16824, Note_on_c, 2, 60, 0
4, 16848, Note_on_c, 2, 59, 113
4, 16872, Note_on_c, 2, 59, 0
4, 16896, Control_c, 2, 6, 64
4, 16896, Control_c, 2, 11, 60
4, 16896, Note_on_c, 2, 52, 113
4, 16944, Note_on_c, 2, 52, 0
4, 16944, Note_on_c, 2, 50, 113
4, 16992, Note_on_c, 2, 50, 0
4, 16992, Note_on_c, 2, 48, 113
4, 17040, Note_on_c, 2, 48, 0
4, 17040, Note_on_c, 2, 55, 113
4, 17088, Note_on_c, 2, 55, 0
4, 17088, Note_on_c, 2, 53, 113
4, 17136, Note_on_c, 2, 53, 0
4, 17136, Note_on_c, 2, 52, 113
4, 17184, Note_on_c, 2, 52, 0
4, 17184, Control_c, 2, 11, 60
4, 17184, Note_on_c, 2, 50, 113
4, 17199, Control_c, 2, 11, 61
4, 17213, Control_c, 2, 11, 62
4, 17228, Control_c, 2, 11, 63
4, 17232, Note_on_c, 2, 50, 0
4, 17232, Note_on_c, 2, 48, 113
4, 17242, Control_c, 2, 11, 64
4, 17256, Control_c, 2, 11, 65
4, 17271, Control_c, 2, 11, 66
4, 17280, Note_on_c, 2, 48, 0
4, 17280, Note_on_c, 2, 50, 113
4, 17285, Control_c, 2, 11, 67
4, 17299, Control_c, 2, 11, 68
4, 17314, Control_c, 2, 11, 69
4, 17328, Note_on_c, 2, 50, 0
4, 17328, Note_on_c, 2, 52, 113
4, 17328, Control_c, 2, 11, 70
4, 17342, Control_c, 2, 11, 71
4, 17357, Control_c, 2, 11, 72
4, 17371, Control_c, 2, 11, 73
4, 17376, Note_on_c, 2, 52, 0
4, 17376, Note_on_c, 2, 53, 113
4, 17385, Control_c, 2, 11, 74
4, 17400, Control_c, 2, 11, 75
4, 17414, Control_c, 2, 11, 76
4, 17424, Note_on_c, 2, 53, 0
4, 17424, Note_on_c, 2, 55, 113
4, 17428, Control_c, 2, 11, 77
4, 17443, Control_c, 2, 11, 78
4, 17457, Control_c, 2, 11, 79
4, 17471, Control_c, 2, 11, 80
4, 17472, Note_on_c, 2, 55, 0
4, 17472, Control_c, 2, 11, 80
4, 17472, Note_on_c, 2, 54, 113
4, 17487, Control_c, 2, 11, 79
4, 17501, Control_c, 2, 11, 78
4, 17516, Control_c, 2, 11, 77
4, 17520, Note_on_c, 2, 54, 0
4, 17520, Note_on_c, 2, 55, 113
4, 17530, Control_c, 2, 11, 76
4, 17544, Control_c, 2, 11, 75
4, 17559, Control_c, 2, 11, 74
4, 17568, Note_on_c, 2, 55, 0
4, 17568, Note_on_c, 2, 57, 113
4, 17573, Control_c, 2, 11, 73
4, 17587, Control_c, 2, 11, 72
4, 17602, Control_c, 2, 11, 71
4, 17616, Note_on_c, 2, 57, 0
4, 17616, Note_on_c, 2, 55, 113
4, 17616, Control_c, 2, 11, 70
4, 17630, Control_c, 2, 11, 69
4, 17645, Control_c, 2, 11, 68
4, 17659, Control_c, 2, 11, 67
4, 17664, Note_on_c, 2, 55, 0
4, 17664, Note_on_c, 2, 53, 113
4, 17673, Control_c, 2, 11, 66
4, 17688, Control_c, 2, 11, 65
4, 17702, Control_c, 2, 11, 64
4, 17712, Note_on_c, 2, 53, 0
4, 17712, Note_on_c, 2, 52, 113
4, 17716, Control_c, 2, 11, 63
4, 17731, Control_c, 2, 11, 62
4, 17745, Control_c, 2, 11, 61
4, 17759, Control_c, 2, 11, 60
4, 17760, Note_on_c, 2, 52, 0
4, 17760, Control_c, 2, 11, 60
4, 17760, Note_on_c, 2, 52, 113
4, 17778, Control_c, 2, 11, 61
4, 17796, Control_c, 2, 11, 62
4, 17814, Control_c, 2, 11, 63
4, 17832, Control_c, 2, 11, 64
4, 17850, Control_c, 2, 11, 65
4, 17868, Control_c, 2, 11, 66
4, 17886, Control_c, 2, 11, 67
4, 17904, Control_c, 2, 11, 68
4, 17922, Control_c, 2, 11, 69
4, 17940, Control_c, 2, 11, 70
4, 17958, Control_c, 2, 11, 71
4, 17976, Control_c, 2, 11, 72
4, 17994, Control_c, 2, 11, 73
4, 18012, Control_c, 2, 11, 74
4, 18030, Control_c, 2, 11, 75
4, 18048, Control_c, 2, 11, 76
4, 18066, Control_c, 2, 11, 77
4, 18084, Control_c, 2, 11, 78
4, 18102, Control_c, 2, 11, 79
4, 18120, Control_c, 2, 11, 80
4, 18138, Control_c, 2, 11, 81
4, 18156, Control_c, 2, 11, 82
4, 18174, Control_c, 2, 11, 83
4, 18192, Control_c, 2, 11, 84
4, 18210, Control_c, 2, 11, 85
4, 18228, Control_c, 2, 11, 86
4, 18246, Control_c, 2, 11, 87
4, 18264, Control_c, 2, 11, 88
4, 18282, Control_c, 2, 11, 89
4, 18300, Control_c, 2, 11, 90
4, 18318, Control_c, 2, 11, 91
4, 18336, Control_c, 2, 11, 92
4, 18354, Control_c, 2, 11, 93
4, 18372, Control_c, 2, 11, 94
4, 18384, Note_on_c, 2, 52, 0
4, 18390, Control_c, 2, 11, 95
4, 18408, Control_c, 2, 11, 96
4, 18426, Control_c, 2, 11, 97
4, 18444, Control_c, 2, 11, 98
4, 18462, Control_c, 2, 11, 99
4, 18479, Control_c, 2, 11, 100
4, 18618, Control_c, 2, 6, 14
4, 18624, Control_c, 2, 11, 120
4, 18624, Note_on_c, 2, 64, 105
4, 18648, Note_on_c, 2, 64, 0
4, 18672, Note_on_c, 2, 76, 100
4, 18696, Note_on_c, 2, 76, 0
4, 18720, Note_on_c, 2, 72, 100
4, 18744, Note_on_c, 2, 72, 0
4, 18768, Note_on_c, 2, 69, 105
4, 18792, Note_on_c, 2, 69, 0
4, 18816, Note_on_c, 2, 71, 100
4, 18840, Note_on_c, 2, 71, 0
4, 18864, Note_on_c, 2, 72, 105
4, 18888, Note_on_c, 2, 72, 0
4, 18912, Note_on_c, 2, 72, 100
4, 18936, Note_on_c, 2, 72, 0
4, 19200, Note_on_c, 2, 64, 105
4, 19224, Note_on_c, 2, 64, 0
4, 19248, Note_on_c, 2, 60, 100
4, 19272, Note_on_c, 2, 60, 0
4, 19296, Note_on_c, 2, 65, 100
4, 19320, Note_on_c, 2, 65, 0
4, 19344, Note_on_c, 2, 62, 105
4, 19368, Note_on_c, 2, 62, 0
4, 19392, Note_on_c, 2, 59, 100
4, 19416, Note_on_c, 2, 59, 0
4, 19440, Note_on_c, 2, 62, 100
4, 19464, Note_on_c, 2, 62, 0
4, 19488, Note_on_c, 2, 48, 97
4, 19490, Note_on_c, 2, 55, 100
4, 19492, Note_on_c, 2, 64, 105
4, 19512, Note_on_c, 2, 48, 0
4, 19514, Note_on_c, 2, 55, 0
4, 19516, Note_on_c, 2, 64, 0
4, 19632, Note_on_c, 2, 67, 110
4, 19667, Note_on_c, 2, 67, 0
4, 19704, Note_on_c, 2, 55, 100
4, 19716, Note_on_c, 2, 55, 0
4, 19728, Note_on_c, 2, 55, 100
4, 19752, Note_on_c, 2, 55, 0
4, 19776, Note_on_c, 2, 48, 100
4, 19800, Note_on_c, 2, 48, 0
4, 19920, Note_on_c, 2, 67, 110
4, 19955, Note_on_c, 2, 67, 0
4, 19992, Note_on_c, 2, 55, 100
4, 20004, Note_on_c, 2, 55, 0
4, 20016, Note_on_c, 2, 55, 100
4, 20040, Note_on_c, 2, 55, 0
4, 20060, Control_c, 2, 6, 64
4, 20064, Note_on_c, 2, 60, 57
4, 20112, Note_on_c, 2, 60, 0
4, 20112, Note_on_c, 2, 59, 56
4, 20160, Note_on_c, 2, 59, 0
4, 20160, Note_on_c, 2, 57, 54
4, 20208, Note_on_c, 2, 57, 0
4, 20208, Note_on_c, 2, 55, 53
4, 20256, Note_on_c, 2, 55, 0
4, 20256, Note_on_c, 2, 53, 51
4, 20304, Note_on_c, 2, 53, 0
4, 20304, Note_on_c, 2, 52, 50
4, 20352, Note_on_c, 2, 52, 0
4, 20352, Note_on_c, 2, 50, 47
4, 20400, Note_on_c, 2, 50, 0
4, 20400, Note_on_c, 2, 52, 50
4, 20448, Note_on_c, 2, 52, 0
4, 20448, Note_on_c, 2, 50, 47
4, 20472, Note_on_c, 2, 50, 0
4, 20472, Note_on_c, 2, 62, 55
4, 20496, Note_on_c, 2, 62, 0
4, 20496, Note_on_c, 2, 60, 50
4, 20544, Note_on_c, 2, 60, 0
4, 20544, Note_on_c, 2, 59, 49
4, 20592, Note_on_c, 2, 59, 0
4, 20592, Note_on_c, 2, 57, 47
4, 20616, Note_on_c, 2, 57, 0
4, 20616, Note_on_c, 2, 55, 46
4, 20640, Note_on_c, 2, 55, 0
4, 20640, Control_c, 2, 6, 14
4, 20640, Note_on_c, 2, 52, 60
4, 20640, Note_on_c, 2, 55, 60
4, 20675, Note_on_c, 2, 55, 0
4, 20675, Note_on_c, 2, 52, 0
4, 20712, Note_on_c, 2, 64, 50
4, 20724, Note_on_c, 2, 64, 0
4, 20736, Note_on_c, 2, 64, 50
4, 20760, Note_on_c, 2, 64, 0
4, 20784, Note_on_c, 2, 64, 50
4, 20808, Note_on_c, 2, 64, 0
4, 20928, Note_on_c, 2, 57, 60
4, 20963, Note_on_c, 2, 57, 0
4, 21000, Note_on_c, 2, 65, 50
4, 21012, Note_on_c, 2, 65, 0
4, 21024, Note_on_c, 2, 65, 50
4, 21048, Note_on_c, 2, 65, 0
4, 21072, Note_on_c, 2, 65, 50
4, 21096, Note_on_c, 2, 65, 0
4, 22368, Note_on_c, 2, 74, 60
4, 22403, Note_on_c, 2, 74, 0
4, 22440, Note_on_c, 2, 62, 50
4, 22452, Note_on_c, 2, 62, 0
4, 22464, Note_on_c, 2, 62, 50
4, 22488, Note_on_c, 2, 62, 0
4, 22512, Note_on_c, 2, 69, 55
4, 22536, Note_on_c, 2, 69, 0
4, 22560, Note_on_c, 2, 71, 50
4, 22584, Note_on_c, 2, 71, 0
4, 22608, Note_on_c, 2, 72, 50
4, 22632, Note_on_c, 2, 72, 0
4, 22656, Note_on_c, 2, 71, 55
4, 22680, Note_on_c, 2, 71, 0
4, 22704, Note_on_c, 2, 72, 50
4, 22728, Note_on_c, 2, 72, 0
4, 22752, Note_on_c, 2, 74, 50
4, 22776, Note_on_c, 2, 74, 0
4, 22800, Note_on_c, 2, 72, 55
4, 22824, Note_on_c, 2, 72, 0
4, 22848, Note_on_c, 2, 71, 50
4, 22872, Note_on_c, 2, 71, 0
4, 22896, Note_on_c, 2, 69, 50
4, 22920, Note_on_c, 2, 69, 0
4, 22944, Note_on_c, 2, 70, 55
4, 22968, Note_on_c, 2, 70, 0
4, 22992, Note_on_c, 2, 69, 50
4, 23016, Note_on_c, 2, 69, 0
4, 23040, Note_on_c, 2, 67, 50
4, 23064, Note_on_c, 2, 67, 0
4, 23088, Note_on_c, 2, 65, 55
4, 23112, Note_on_c, 2, 65, 0
4, 23136, Note_on_c, 2, 64, 50
4, 23160, Note_on_c, 2, 64, 0
4, 23184, Note_on_c, 2, 62, 50
4, 23208, Note_on_c, 2, 62, 0
4, 23232, Note_on_c, 2, 61, 55
4, 23256, Note_on_c, 2, 61, 0
4, 23280, Note_on_c, 2, 62, 50
4, 23304, Note_on_c, 2, 62, 0
4, 23328, Note_on_c, 2, 64, 50
4, 23352, Note_on_c, 2, 64, 0
4, 23376, Note_on_c, 2, 62, 55
4, 23400, Note_on_c, 2, 62, 0
4, 23424, Note_on_c, 2, 61, 50
4, 23448, Note_on_c, 2, 61, 0
4, 23472, Note_on_c, 2, 62, 50
4, 23496, Note_on_c, 2, 62, 0
4, 23520, Note_on_c, 2, 69, 55
4, 23544, Note_on_c, 2, 69, 0
4, 23568, Note_on_c, 2, 67, 50
4, 23592, Note_on_c, 2, 67, 0
4, 23616, Note_on_c, 2, 65, 50
4, 23640, Note_on_c, 2, 65, 0
4, 23664, Note_on_c, 2, 64, 55
4, 23688, Note_on_c, 2, 64, 0
4, 23712, Note_on_c, 2, 76, 50
4, 23736, Note_on_c, 2, 76, 0
4, 23760, Note_on_c, 2, 76, 50
4, 23784, Note_on_c, 2, 76, 0
4, 23808, Note_on_c, 2, 76, 55
4, 23832, Note_on_c, 2, 76, 0
4, 23856, Note_on_c, 2, 76, 50
4, 23880, Note_on_c, 2, 76, 0
4, 23904, Note_on_c, 2, 76, 50
4, 23928, Note_on_c, 2, 76, 0
4, 23952, Note_on_c, 2, 76, 55
4, 23976, Note_on_c, 2, 76, 0
4, 24000, Note_on_c, 2, 76, 50
4, 24024, Note_on_c, 2, 76, 0
4, 24048, Note_on_c, 2, 76, 50
4, 24072, Note_on_c, 2, 76, 0
4, 24096, Note_on_c, 2, 64, 55
4, 24120, Note_on_c, 2, 64, 0
4, 24144, Note_on_c, 2, 65, 50
4, 24168, Note_on_c, 2, 65, 0
4, 24192, Note_on_c, 2, 67, 50
4, 24216, Note_on_c, 2, 67, 0
4, 24240, Note_on_c, 2, 65, 55
4, 24264, Note_on_c, 2, 65, 0
4, 24288, Note_on_c, 2, 67, 50
4, 24312, Note_on_c, 2, 67, 0
4, 24336, Note_on_c, 2, 69, 50
4, 24360, Note_on_c, 2, 69, 0
4, 24384, Note_on_c, 2, 67, 55
4, 24408, Note_on_c, 2, 67, 0
4, 24432, Note_on_c, 2, 65, 50
4, 24456, Note_on_c, 2, 65, 0
4, 24480, Note_on_c, 2, 64, 50
4, 24504, Note_on_c, 2, 64, 0
4, 24528, Note_on_c, 2, 62, 55
4, 24552, Note_on_c, 2, 62, 0
4, 24576, Note_on_c, 2, 67, 50
4, 24600, Note_on_c, 2, 67, 0
4, 24624, Note_on_c, 2, 65, 50
4, 24648, Note_on_c, 2, 65, 0
4, 24672, Note_on_c, 2, 64, 55
4, 24696, Note_on_c, 2, 64, 0
4, 24720, Note_on_c, 2, 65, 50
4, 24744, Note_on_c, 2, 65, 0
4, 24768, Note_on_c, 2, 67, 50
4, 24792, Note_on_c, 2, 67, 0
4, 24816, Note_on_c, 2, 57, 55
4, 24840, Note_on_c, 2, 57, 0
4, 24864, Note_on_c, 2, 68, 50
4, 24888, Note_on_c, 2, 68, 0
4, 24912, Note_on_c, 2, 69, 50
4, 24936, Note_on_c, 2, 69, 0
4, 24960, Note_on_c, 2, 64, 55
4, 24984, Note_on_c, 2, 64, 0
4, 25008, Note_on_c, 2, 64, 50
4, 25032, Note_on_c, 2, 64, 0
4, 25056, Note_on_c, 2, 64, 50
4, 25080, Note_on_c, 2, 64, 0
4, 25104, Note_on_c, 2, 64, 55
4, 25128, Note_on_c, 2, 64, 0
4, 25152, Note_on_c, 2, 64, 50
4, 25176, Note_on_c, 2, 64, 0
4, 25200, Note_on_c, 2, 64, 50
4, 25224, Note_on_c, 2, 64, 0
4, 25248, Note_on_c, 2, 55, 55
4, 25272, Note_on_c, 2, 55, 0
4, 25296, Note_on_c, 2, 53, 50
4, 25320, Note_on_c, 2, 53, 0
4, 25344, Note_on_c, 2, 52, 50
4, 25368, Note_on_c, 2, 52, 0
4, 25392, Note_on_c, 2, 57, 55
4, 25416, Note_on_c, 2, 57, 0
4, 25440, Note_on_c, 2, 55, 50
4, 25464, Note_on_c, 2, 55, 0
4, 25488, Note_on_c, 2, 53, 50
4, 25512, Note_on_c, 2, 53, 0
4, 25536, Note_on_c, 2, 52, 55
4, 25560, Note_on_c, 2, 52, 0
4, 25584, Note_on_c, 2, 53, 50
4, 25608, Note_on_c, 2, 53, 0
4, 25632, Note_on_c, 2, 55, 50
4, 25656, Note_on_c, 2, 55, 0
4, 25680, Note_on_c, 2, 57, 55
4, 25704, Note_on_c, 2, 57, 0
4, 25728, Note_on_c, 2, 57, 50
4, 25752, Note_on_c, 2, 57, 0
4, 25776, Note_on_c, 2, 57, 50
4, 25800, Note_on_c, 2, 57, 0
4, 25824, Note_on_c, 2, 56, 55
4, 25848, Note_on_c, 2, 56, 0
4, 25872, Note_on_c, 2, 57, 50
4, 25896, Note_on_c, 2, 57, 0
4, 25920, Note_on_c, 2, 59, 50
4, 25944, Note_on_c, 2, 59, 0
4, 25968, Note_on_c, 2, 60, 55
4, 25992, Note_on_c, 2, 60, 0
4, 26016, Note_on_c, 2, 62, 50
4, 26040, Note_on_c, 2, 62, 0
4, 26064, Note_on_c, 2, 64, 50
4, 26088, Note_on_c, 2, 64, 0
4, 26112, Note_on_c, 2, 65, 55
4, 26136, Note_on_c, 2, 65, 0
4, 26160, Note_on_c, 2, 64, 50
4, 26184, Note_on_c, 2, 64, 0
4, 26208, Note_on_c, 2, 62, 50
4, 26232, Note_on_c, 2, 62, 0
4, 26256, Note_on_c, 2, 60, 55
4, 26280, Note_on_c, 2, 60, 0
4, 26304, Note_on_c, 2, 59, 50
4, 26328, Note_on_c, 2, 59, 0
4, 26352, Note_on_c, 2, 57, 50
4, 26376, Note_on_c, 2, 57, 0
4, 26400, Note_on_c, 2, 57, 55
4, 26424, Note_on_c, 2, 57, 0
4, 26448, Note_on_c, 2, 57, 50
4, 26472, Note_on_c, 2, 57, 0
4, 26496, Note_on_c, 2, 57, 50
4, 26520, Note_on_c, 2, 57, 0
4, 26544, Note_on_c, 2, 57, 55
4, 26568, Note_on_c, 2, 57, 0
4, 26592, Note_on_c, 2, 55, 50
4, 26616, Note_on_c, 2, 55, 0
4, 26640, Note_on_c, 2, 53, 50
4, 26664, Note_on_c, 2, 53, 0
4, 26688, Note_on_c, 2, 55, 55
4, 26712, Note_on_c, 2, 55, 0
4, 26736, Note_on_c, 2, 57, 50
4, 26760, Note_on_c, 2, 57, 0
4, 26784, Note_on_c, 2, 58, 50
4, 26808, Note_on_c, 2, 58, 0
4, 26832, Note_on_c, 2, 57, 55
4, 26856, Note_on_c, 2, 57, 0
4, 26880, Note_on_c, 2, 58, 50
4, 26904, Note_on_c, 2, 58, 0
4, 26928, Note_on_c, 2, 57, 50
4, 26952, Note_on_c, 2, 57, 0
4, 26976, Note_on_c, 2, 58, 55
4, 27000, Note_on_c, 2, 58, 0
4, 27024, Note_on_c, 2, 57, 51
4, 27048, Note_on_c, 2, 57, 0
4, 27072, Note_on_c, 2, 55, 53
4, 27096, Note_on_c, 2, 55, 0
4, 27120, Note_on_c, 2, 57, 60
4, 27144, Note_on_c, 2, 57, 0
4, 27168, Note_on_c, 2, 58, 56
4, 27192, Note_on_c, 2, 58, 0
4, 27216, Note_on_c, 2, 57, 58
4, 27240, Note_on_c, 2, 57, 0
4, 27264, Note_on_c, 2, 58, 65
4, 27288, Note_on_c, 2, 58, 0
4, 27312, Note_on_c, 2, 57, 61
4, 27336, Note_on_c, 2, 57, 0
4, 27360, Note_on_c, 2, 55, 63
4, 27384, Note_on_c, 2, 55, 0
4, 27408, Note_on_c, 2, 57, 70
4, 27432, Note_on_c, 2, 57, 0
4, 27456, Note_on_c, 2, 58, 66
4, 27480, Note_on_c, 2, 58, 0
4, 27504, Note_on_c, 2, 57, 68
4, 27528, Note_on_c, 2, 57, 0
4, 27552, Note_on_c, 2, 58, 75
4, 27576, Note_on_c, 2, 58, 0
4, 27600, Note_on_c, 2, 57, 71
4, 27624, Note_on_c, 2, 57, 0
4, 27648, Note_on_c, 2, 55, 73
4, 27672, Note_on_c, 2, 55, 0
4, 27696, Note_on_c, 2, 57, 80
4, 27720, Note_on_c, 2, 57, 0
4, 27744, Note_on_c, 2, 58, 77
4, 27768, Note_on_c, 2, 58, 0
4, 27792, Note_on_c, 2, 57, 78
4, 27816, Note_on_c, 2, 57, 0
4, 27840, Note_on_c, 2, 55, 85
4, 27864, Note_on_c, 2, 55, 0
4, 27888, Note_on_c, 2, 53, 82
4, 27912, Note_on_c, 2, 53, 0
4, 27936, Note_on_c, 2, 52, 83
4, 27960, Note_on_c, 2, 52, 0
4, 27984, Note_on_c, 2, 53, 90
4, 28008, Note_on_c, 2, 53, 0
4, 28032, Note_on_c, 2, 55, 87
4, 28056, Note_on_c, 2, 55, 0
4, 28080, Note_on_c, 2, 53, 88
4, 28104, Note_on_c, 2, 53, 0
4, 28128, Note_on_c, 2, 55, 95
4, 28152, Note_on_c, 2, 55, 0
4, 28176, Note_on_c, 2, 53, 92
4, 28200, Note_on_c, 2, 53, 0
4, 28224, Note_on_c, 2, 52, 93
4, 28248, Note_on_c, 2, 52, 0
4, 28272, Note_on_c, 2, 53, 100
4, 28296, Note_on_c, 2, 53, 0
4, 28320, Note_on_c, 2, 55, 97
4, 28344, Note_on_c, 2, 55, 0
4, 28368, Note_on_c, 2, 53, 98
4, 28392, Note_on_c, 2, 53, 0
4, 28416, Note_on_c, 2, 55, 105
4, 28440, Note_on_c, 2, 55, 0
4, 28464, Note_on_c, 2, 53, 102
4, 28488, Note_on_c, 2, 53, 0
4, 28512, Note_on_c, 2, 52, 104
4, 28536, Note_on_c, 2, 52, 0
4, 28560, Note_on_c, 2, 64, 110
4, 28584, Note_on_c, 2, 64, 0
4, 28608, Note_on_c, 2, 62, 107
4, 28632, Note_on_c, 2, 62, 0
4, 28656, Note_on_c, 2, 61, 109
4, 28680, Note_on_c, 2, 61, 0
4, 28704, Note_on_c, 2, 57, 108
4, 28706, Note_on_c, 2, 65, 110
4, 28708, Note_on_c, 2, 74, 112
4, 28728, Note_on_c, 2, 57, 0
4, 28730, Note_on_c, 2, 65, 0
4, 28732, Note_on_c, 2, 74, 0
4, 28848, Note_on_c, 2, 57, 108
4, 28850, Note_on_c, 2, 65, 110
4, 28852, Note_on_c, 2, 74, 112
4, 28872, Note_on_c, 2, 57, 0
4, 28874, Note_on_c, 2, 65, 0
4, 28876, Note_on_c, 2, 74, 0
4, 28992, Note_on_c, 2, 69, 110
4, 28992, Note_on_c, 2, 73, 112
4, 29016, Note_on_c, 2, 73, 0
4, 29016, Note_on_c, 2, 69, 0
4, 29136, Note_on_c, 2, 62, 110
4, 29136, Note_on_c, 2, 74, 112
4, 29160, Note_on_c, 2, 74, 0
4, 29160, Note_on_c, 2, 62, 0
4, 29280, Note_on_c, 2, 55, 108
4, 29282, Note_on_c, 2, 62, 110
4, 29284, Note_on_c, 2, 74, 112
4, 29304, Note_on_c, 2, 55, 0
4, 29306, Note_on_c, 2, 62, 0
4, 29308, Note_on_c, 2, 74, 0
4, 29424, Note_on_c, 2, 57, 108
4, 29426, Note_on_c, 2, 65, 110
4, 29428, Note_on_c, 2, 74, 112
4, 29448, Note_on_c, 2, 57, 0
4, 29450, Note_on_c, 2, 65, 0
4, 29452, Note_on_c, 2, 74, 0
4, 29568, Note_on_c, 2, 57, 108
4, 29570, Note_on_c, 2, 67, 110
4, 29572, Note_on_c, 2, 76, 112
4, 29592, Note_on_c, 2, 57, 0
4, 29594, Note_on_c, 2, 67, 0
4, 29596, Note_on_c, 2, 76, 0
4, 29712, Note_on_c, 2, 65, 108
4, 29712, Note_on_c, 2, 69, 110
4, 29736, Note_on_c, 2, 69, 0
4, 29736, Note_on_c, 2, 65, 0
4, 29856, Note_on_c, 2, 55, 110
4, 29856, Note_on_c, 2, 67, 112
4, 29880, Note_on_c, 2, 67, 0
4, 29880, Note_on_c, 2, 55, 0
4, 30000, Note_on_c, 2, 57, 108
4, 30002, Note_on_c, 2, 62, 110
4, 30004, Note_on_c, 2, 74, 112
4, 30024, Note_on_c, 2, 57, 0
4, 30026, Note_on_c, 2, 62, 0
4, 30028, Note_on_c, 2, 74, 0
4, 30144, Note_on_c, 2, 57, 108
4, 30146, Note_on_c, 2, 67, 110
4, 30148, Note_on_c, 2, 76, 112
4, 30168, Note_on_c, 2, 57, 0
4, 30170, Note_on_c, 2, 67, 0
4, 30172, Note_on_c, 2, 76, 0
4, 30288, Note_on_c, 2, 65, 110
4, 30288, Note_on_c, 2, 69, 110
4, 30312, Note_on_c, 2, 69, 0
4, 30312, Note_on_c, 2, 65, 0
4, 30384, Note_on_c, 2, 65, 108
4, 30384, Note_on_c, 2, 71, 110
4, 30408, Note_on_c, 2, 71, 0
4, 30408, Note_on_c, 2, 65, 0
4, 30432, Note_on_c, 2, 55, 108
4, 30434, Note_on_c, 2, 62, 110
4, 30436, Note_on_c, 2, 71, 112
4, 30456, Note_on_c, 2, 55, 0
4, 30458, Note_on_c, 2, 62, 0
4, 30460, Note_on_c, 2, 71, 0
4, 30576, Note_on_c, 2, 55, 108
4, 30578, Note_on_c, 2, 64, 110
4, 30580, Note_on_c, 2, 76, 112
4, 30600, Note_on_c, 2, 55, 0
4, 30602, Note_on_c, 2, 64, 0
4, 30604, Note_on_c, 2, 76, 0
4, 30720, Note_on_c, 2, 55, 108
4, 30722, Note_on_c, 2, 65, 110
4, 30724, Note_on_c, 2, 74, 112
4, 30744, Note_on_c, 2, 55, 0
4, 30746, Note_on_c, 2, 65, 0
4, 30748, Note_on_c, 2, 74, 0
4, 30864, Note_on_c, 2, 55, 110
4, 30864, Note_on_c, 2, 64, 112
4, 30888, Note_on_c, 2, 64, 0
4, 30888, Note_on_c, 2, 55, 0
4, 30912, Note_on_c, 2, 55, 108
4, 30912, Note_on_c, 2, 65, 110
4, 30936, Note_on_c, 2, 65, 0
4, 30936, Note_on_c, 2, 55, 0
4, 30960, Note_on_c, 2, 55, 108
4, 30960, Note_on_c, 2, 65, 110
4, 30984, Note_on_c, 2, 65, 0
4, 30984, Note_on_c, 2, 55, 0
4, 31008, Note_on_c, 2, 55, 108
4, 31010, Note_on_c, 2, 65, 110
4, 31012, Note_on_c, 2, 74, 112
4, 31032, Note_on_c, 2, 55, 0
4, 31034, Note_on_c, 2, 65, 0
4, 31036, Note_on_c, 2, 74, 0
4, 31152, Note_on_c, 2, 55, 108
4, 31154, Note_on_c, 2, 64, 110
4, 31156, Note_on_c, 2, 76, 112
4, 31176, Note_on_c, 2, 55, 0
4, 31178, Note_on_c, 2, 64, 0
4, 31180, Note_on_c, 2, 76, 0
4, 31296, Note_on_c, 2, 55, 108
4, 31298, Note_on_c, 2, 64, 110
4, 31300, Note_on_c, 2, 72, 112
4, 31320, Note_on_c, 2, 55, 0
4, 31322, Note_on_c, 2, 64, 0
4, 31324, Note_on_c, 2, 72, 0
4, 31440, Note_on_c, 2, 55, 108
4, 31442, Note_on_c, 2, 64, 110
4, 31444, Note_on_c, 2, 72, 112
4, 31464, Note_on_c, 2, 55, 0
4, 31466, Note_on_c, 2, 64, 0
4, 31468, Note_on_c, 2, 72, 0
4, 31584, Note_on_c, 2, 55, 110
4, 31584, Note_on_c, 2, 67, 112
4, 31608, Note_on_c, 2, 67, 0
4, 31608, Note_on_c, 2, 55, 0
4, 32016, Note_on_c, 2, 65, 60
4, 32051, Note_on_c, 2, 65, 0
4, 32088, Note_on_c, 2, 69, 69
4, 32100, Note_on_c, 2, 69, 0
4, 32112, Note_on_c, 2, 69, 73
4, 32136, Note_on_c, 2, 69, 0
4, 32160, Note_on_c, 2, 65, 79
4, 32195, Note_on_c, 2, 65, 0
4, 32232, Note_on_c, 2, 68, 89
4, 32244, Note_on_c, 2, 68, 0
4, 32256, Note_on_c, 2, 68, 92
4, 32280, Note_on_c, 2, 68, 0
4, 32304, Note_on_c, 2, 64, 99
4, 32339, Note_on_c, 2, 64, 0
4, 32376, Note_on_c, 2, 67, 99
4, 32388, Note_on_c, 2, 67, 0
4, 32400, Note_on_c, 2, 67, 96
4, 32424, Note_on_c, 2, 67, 0
4, 32448, Note_on_c, 2, 63, 90
4, 32483, Note_on_c, 2, 63, 0
4, 32520, Note_on_c, 2, 67, 81
4, 32532, Note_on_c, 2, 67, 0
4, 32544, Note_on_c, 2, 67, 78
4, 32568, Note_on_c, 2, 67, 0
4, 32592, Note_on_c, 2, 62, 72
4, 32627, Note_on_c, 2, 62, 0
4, 32664, Note_on_c, 2, 67, 63
4, 32676, Note_on_c, 2, 67, 0
4, 32688, Note_on_c, 2, 67, 60
4, 32712, Note_on_c, 2, 67, 0
4, 32736, Note_on_c, 2, 67, 60
4, 32771, Note_on_c, 2, 67, 0
4, 32808, Note_on_c, 2, 55, 63
4, 32820, Note_on_c, 2, 55, 0
4, 32832, Note_on_c, 2, 55, 64
4, 32856, Note_on_c, 2, 55, 0
4, 32880, Note_on_c, 2, 67, 66
4, 32915, Note_on_c, 2, 67, 0
4, 32952, Note_on_c, 2, 55, 69
4, 32964, Note_on_c, 2, 55, 0
4, 32976, Note_on_c, 2, 55, 70
4, 33000, Note_on_c, 2, 55, 0
4, 33024, Note_on_c, 2, 67, 72
4, 33059, Note_on_c, 2, 67, 0
4, 33096, Note_on_c, 2, 55, 75
4, 33108, Note_on_c, 2, 55, 0
4, 33120, Note_on_c, 2, 55, 76
4, 33144, Note_on_c, 2, 55, 0
4, 33168, Note_on_c, 2, 65, 78
4, 33203, Note_on_c, 2, 65, 0
4, 33240, Note_on_c, 2, 53, 81
4, 33252, Note_on_c, 2, 53, 0
4, 33264, Note_on_c, 2, 53, 82
4, 33288, Note_on_c, 2, 53, 0
4, 33312, Note_on_c, 2, 65, 84
4, 33347, Note_on_c, 2, 65, 0
4, 33384, Note_on_c, 2, 53, 87
4, 33396, Note_on_c, 2, 53, 0
4, 33408, Note_on_c, 2, 53, 88
4, 33432, Note_on_c, 2, 53, 0
4, 33456, Note_on_c, 2, 64, 90
4, 33491, Note_on_c, 2, 64, 0
4, 33528, Note_on_c, 2, 52, 94
4, 33540, Note_on_c, 2, 52, 0
4, 33552, Note_on_c, 2, 52, 95
4, 33576, Note_on_c, 2, 52, 0
4, 33600, Note_on_c, 2, 63, 97
4, 33635, Note_on_c, 2, 63, 0
4, 33672, Note_on_c, 2, 51, 100
4, 33684, Note_on_c, 2, 51, 0
4, 33696, Note_on_c, 2, 51, 101
4, 33720, Note_on_c, 2, 51, 0
4, 33744, Note_on_c, 2, 62, 103
4, 33779, Note_on_c, 2, 62, 0
4, 33816, Note_on_c, 2, 50, 106
4, 33828, Note_on_c, 2, 50, 0
4, 33840, Note_on_c, 2, 50, 107
4, 33864, Note_on_c, 2, 50, 0
4, 33888, Note_on_c, 2, 60, 120
4, 33923, Note_on_c, 2, 60, 0
4, 33960, Note_on_c, 2, 48, 113
4, 33972, Note_on_c, 2, 48, 0
4, 33984, Note_on_c, 2, 48, 113
4, 34008, Note_on_c, 2, 48, 0
4, 34032, Note_on_c, 2, 60, 120
4, 34067, Note_on_c, 2, 60, 0
4, 34104, Note_on_c, 2, 48, 113
4, 34116, Note_on_c, 2, 48, 0
4, 34128, Note_on_c, 2, 48, 113
4, 34152, Note_on_c, 2, 48, 0
4, 34176, Note_on_c, 2, 60, 120
4, 34211, Note_on_c, 2, 60, 0
4, 34248, Note_on_c, 2, 48, 113
4, 34260, Note_on_c, 2, 48, 0
4, 34272, Note_on_c, 2, 48, 113
4, 34296, Note_on_c, 2, 48, 0
4, 34320, Note_on_c, 2, 60, 120
4, 34355, Note_on_c, 2, 60, 0
4, 34392, Note_on_c, 2, 48, 113
4, 34404, Note_on_c, 2, 48, 0
4, 34416, Note_on_c, 2, 48, 113
4, 34440, Note_on_c, 2, 48, 0
4, 34464, Note_on_c, 2, 60, 120
4, 34499, Note_on_c, 2, 60, 0
4, 34536, Note_on_c, 2, 48, 113
4, 34548, Note_on_c, 2, 48, 0
4, 34560, Note_on_c, 2, 48, 113
4, 34584, Note_on_c, 2, 48, 0
4, 34608, Note_on_c, 2, 60, 120
4, 34643, Note_on_c, 2, 60, 0
4, 34680, Note_on_c, 2, 48, 113
4, 34692, Note_on_c, 2, 48, 0
4, 34704, Note_on_c, 2, 48, 113
4, 34728, Note_on_c, 2, 48, 0
4, 34752, Note_on_c, 2, 60, 120
4, 34787, Note_on_c, 2, 60, 0
4, 34824, Note_on_c, 2, 48, 113
4, 34836, Note_on_c, 2, 48, 0
4, 34848, Note_on_c, 2, 48, 113
4, 34872, Note_on_c, 2, 48, 0
4, 34896, Note_on_c, 2, 60, 120
4, 34931, Note_on_c, 2, 60, 0
4, 34968, Note_on_c, 2, 48, 113
4, 34980, Note_on_c, 2, 48, 0
4, 34992, Note_on_c, 2, 48, 113
4, 35016, Note_on_c, 2, 48, 0
4, 35040, Note_on_c, 2, 60, 120
4, 35075, Note_on_c, 2, 60, 0
4, 35112, Note_on_c, 2, 48, 113
4, 35124, Note_on_c, 2, 48, 0
4, 35136, Note_on_c, 2, 48, 113
4, 35160, Note_on_c, 2, 48, 0
4, 35184, Note_on_c, 2, 60, 120
4, 35219, Note_on_c, 2, 60, 0
4, 35256, Note_on_c, 2, 48, 113
4, 35268, Note_on_c, 2, 48, 0
4, 35280, Note_on_c, 2, 48, 113
4, 35304, Note_on_c, 2, 48, 0
4, 35328, Note_on_c, 2, 60, 120
4, 35363, Note_on_c, 2, 60, 0
4, 35400, Note_on_c, 2, 48, 113
4, 35412, Note_on_c, 2, 48, 0
4, 35424, Note_on_c, 2, 48, 113
4, 35448, Note_on_c, 2, 48, 0
4, 35472, Note_on_c, 2, 60, 120
4, 35507, Note_on_c, 2, 60, 0
4, 35544, Note_on_c, 2, 48, 113
4, 35556, Note_on_c, 2, 48, 0
4, 35568, Note_on_c, 2, 48, 113
4, 35592, Note_on_c, 2, 48, 0
4, 35616, Note_on_c, 2, 60, 120
4, 35651, Note_on_c, 2, 60, 0
4, 35688, Note_on_c, 2, 48, 113
4, 35700, Note_on_c, 2, 48, 0
4, 35712, Note_on_c, 2, 48, 113
4, 35736, Note_on_c, 2, 48, 0
4, 35760, Note_on_c, 2, 60, 120
4, 35795, Note_on_c, 2, 60, 0
4, 35832, Note_on_c, 2, 48, 113
4, 35844, Note_on_c, 2, 48, 0
4, 35856, Note_on_c, 2, 48, 113
4, 35880, Note_on_c, 2, 48, 0
4, 35904, Note_on_c, 2, 60, 120
4, 35939, Note_on_c, 2, 60, 0
4, 35976, Note_on_c, 2, 48, 113
4, 35988, Note_on_c, 2, 48, 0
4, 36000, Note_on_c, 2, 48, 113
4, 36024, Note_on_c, 2, 48, 0
4, 36048, Note_on_c, 2, 60, 120
4, 36083, Note_on_c, 2, 60, 0
4, 36120, Note_on_c, 2, 48, 113
4, 36132, Note_on_c, 2, 48, 0
4, 36144, Note_on_c, 2, 48, 113
4, 36168, Note_on_c, 2, 48, 0
4, 36192, Note_on_c, 2, 60, 113
4, 36216, Note_on_c, 2, 60, 0
4, 36480, Note_on_c, 2, 65, 120
4, 36515, Note_on_c, 2, 65, 0
4, 36552, Note_on_c, 2, 53, 113
4, 36564, Note_on_c, 2, 53, 0
4, 36576, Note_on_c, 2, 53, 113
4, 36600, Note_on_c, 2, 53, 0
4, 36624, Note_on_c, 2, 65, 117
4, 36648, Note_on_c, 2, 65, 0
4, 36672, Note_on_c, 2, 62, 113
4, 36696, Note_on_c, 2, 62, 0
4, 36720, Note_on_c, 2, 60, 113
4, 36744, Note_on_c, 2, 60, 0
4, 36768, Note_on_c, 2, 59, 113
4, 36792, Note_on_c, 2, 59, 0
4, 37056, Note_on_c, 2, 64, 120
4, 37091, Note_on_c, 2, 64, 0
4, 37128, Note_on_c, 2, 52, 113
4, 37140, Note_on_c, 2, 52, 0
4, 37152, Note_on_c, 2, 52, 113
4, 37176, Note_on_c, 2, 52, 0
4, 37200, Note_on_c, 2, 64, 117
4, 37224, Note_on_c, 2, 64, 0
4, 37248, Note_on_c, 2, 60, 113
4, 37272, Note_on_c, 2, 60, 0
4, 37296, Note_on_c, 2, 59, 113
4, 37320, Note_on_c, 2, 59, 0
4, 37344, Control_c, 2, 6, 64
4, 37344, Control_c, 2, 11, 60
4, 37344, Note_on_c, 2, 52, 113
4, 37392, Note_on_c, 2, 52, 0
4, 37392, Note_on_c, 2, 50, 113
4, 37440, Note_on_c, 2, 50, 0
4, 37440, Note_on_c, 2, 48, 113
4, 37488, Note_on_c, 2, 48, 0
4, 37488, Note_on_c, 2, 55, 113
4, 37536, Note_on_c, 2, 55, 0
4, 37536, Note_on_c, 2, 53, 113
4, 37584, Note_on_c, 2, 53, 0
4, 37584, Note_on_c, 2, 52, 113
4, 37632, Note_on_c, 2, 52, 0
4, 37632, Control_c, 2, 11, 60
4, 37632, Note_on_c, 2, 50, 113
4, 37647, Control_c, 2, 11, 61
4, 37661, Control_c, 2, 11, 62
4, 37676, Control_c, 2, 11, 63
4, 37680, Note_on_c, 2, 50, 0
4, 37680, Note_on_c, 2, 48, 113
4, 37690, Control_c, 2, 11, 64
4, 37704, Control_c, 2, 11, 65
4, 37719, Control_c, 2, 11, 66
4, 37728, Note_on_c, 2, 48, 0
4, 37728, Note_on_c, 2, 50, 113
4, 37733, Control_c, 2, 11, 67
4, 37747, Control_c, 2, 11, 68
4, 37762, Control_c, 2, 11, 69
4, 37776, Note_on_c, 2, 50, 0
4, 37776, Note_on_c, 2, 52, 113
4, 37776, Control_c, 2, 11, 70
4, 37790, Control_c, 2, 11, 71
4, 37805, Control_c, 2, 11, 72
4, 37819, Control_c, 2, 11, 73
4, 37824, Note_on_c, 2, 52, 0
4, 37824, Note_on_c, 2, 53, 113
4, 37833, Control_c, 2, 11, 74
4, 37848, Control_c, 2, 11, 75
4, 37862, Control_c, 2, 11, 76
4, 37872, Note_on_c, 2, 53, 0
4, 37872, Note_on_c, 2, 55, 113
4, 37876, Control_c, 2, 11, 77
4, 37891, Control_c, 2, 11, 78
4, 37905, Control_c, 2, 11, 79
4, 37919, Control_c, 2, 11, 80
4, 37920, Note_on_c, 2, 55, 0
4, 37920, Control_c, 2, 11, 80
4, 37920, Note_on_c, 2, 54, 113
4, 37935, Control_c, 2, 11, 79
4, 37949, Control_c, 2, 11, 78
4, 37964, Control_c, 2, 11, 77
4, 37968, Note_on_c, 2, 54, 0
4, 37968, Note_on_c, 2, 55, 113
4, 37978, Control_c, 2, 11, 76
4, 37992, Control_c, 2, 11, 75
4, 38007, Control_c, 2, 11, 74
4, 38016, Note_on_c, 2, 55, 0
4, 38016, Note_on_c, 2, 57, 113
4, 38021, Control_c, 2, 11, 73
4, 38035, Control_c, 2, 11, 72
4, 38050, Control_c, 2, 11, 71
4, 38064, Note_on_c, 2, 57, 0
4, 38064, Note_on_c, 2, 55, 113
4, 38064, Control_c, 2, 11, 70
4, 38078, Control_c, 2, 11, 69
4, 38093, Control_c, 2, 11, 68
4, 38107, Control_c, 2, 11, 67
4, 38112, Note_on_c, 2, 55, 0
4, 38112, Note_on_c, 2, 53, 113
4, 38121, Control_c, 2, 11, 66
4, 38136, Control_c, 2, 11, 65
4, 38150, Control_c, 2, 11, 64
4, 38160, Note_on_c, 2, 53, 0
4, 38160, Note_on_c, 2, 52, 113
4, 38164, Control_c, 2, 11, 63
4, 38179, Control_c, 2, 11, 62
4, 38193, Control_c, 2, 11, 61
4, 38207, Control_c, 2, 11, 60
4, 38208, Note_on_c, 2, 52, 0
4, 38208, Control_c, 2, 11, 60
4, 38208, Note_on_c, 2, 52, 113
4, 38226, Control_c, 2, 11, 61
4, 38244, Control_c, 2, 11, 62
4, 38262, Control_c, 2, 11, 63
4, 38280, Control_c, 2, 11, 64
4, 38298, Control_c, 2, 11, 65
4, 38316, Control_c, 2, 11, 66
4, 38334, Control_c, 2, 11, 67
4, 38352, Control_c, 2, 11, 68
4, 38370, Control_c, 2, 11, 69
4, 38388, Control_c, 2, 11, 70
4, 38406, Control_c, 2, 11, 71
4, 38424, Control_c, 2, 11, 72
4, 38442, Control_c, 2, 11, 73
4, 38460, Control_c, 2, 11, 74
4, 38478, Control_c, 2, 11, 75
4, 38496, Control_c, 2, 11, 76
4, 38514, Control_c, 2, 11, 77
4, 38532, Control_c, 2, 11, 78
4, 38550, Control_c, 2, 11, 79
4, 38568, Control_c, 2, 11, 80
4, 38586, Control_c, 2, 11, 81
4, 38604, Control_c, 2, 11, 82
4, 38622, Control_c, 2, 11, 83
4, 38640, Control_c, 2, 11, 84
4, 38658, Control_c, 2, 11, 85
4, 38676, Control_c, 2, 11, 86
4, 38694, Control_c, 2, 11, 87
4, 38712, Control_c, 2, 11, 88
4, 38730, Control_c, 2, 11, 89
4, 38748, Control_c, 2, 11, 90
4, 38766, Control_c, 2, 11, 91
4, 38784, Control_c, 2, 11, 92
4, 38802, Control_c, 2, 11, 93
4, 38820, Control_c, 2, 11, 94
4, 38832, Note_on_c, 2, 52, 0
4, 38838, Control_c, 2, 11, 95
4, 38856, Control_c, 2, 11, 96
4, 38874, Control_c, 2, 11, 97
4, 38892, Control_c, 2, 11, 98
4, 38910, Control_c, 2, 11, 99
4, 38927, Control_c, 2, 11, 100
4, 39066, Control_c, 2, 6, 14
4, 39072, Control_c, 2, 11, 120
4, 39072, Note_on_c, 2, 64, 105
4, 39096, Note_on_c, 2, 64, 0
4, 39120, Note_on_c, 2, 76, 100
4, 39144, Note_on_c, 2, 76, 0
4, 39168, Note_on_c, 2, 72, 100
4, 39192, Note_on_c, 2, 72, 0
4, 39216, Note_on_c, 2, 69, 105
4, 39240, Note_on_c, 2, 69, 0
4, 39264, Note_on_c, 2, 71, 100
4, 39288, Note_on_c, 2, 71, 0
4, 39312, Note_on_c, 2, 72, 105
4, 39336, Note_on_c, 2, 72, 0
4, 39360, Note_on_c, 2, 72, 100
4, 39384, Note_on_c, 2, 72, 0
4, 39648, Note_on_c, 2, 64, 105
4, 39672, Note_on_c, 2, 64, 0
4, 39696, Note_on_c, 2, 60, 100
4, 39720, Note_on_c, 2, 60, 0
4, 39744, Note_on_c, 2, 65, 100
4, 39768, Note_on_c, 2, 65, 0
4, 39792, Note_on_c, 2, 62, 105
4, 39816, Note_on_c, 2, 62, 0
4, 39840, Note_on_c, 2, 59, 100
4, 39864, Note_on_c, 2, 59, 0
4, 39888, Note_on_c, 2, 62, 100
4, 39912, Note_on_c, 2, 62, 0
4, 39936, Note_on_c, 2, 48, 97
4, 39938, Note_on_c, 2, 55, 100
4, 39940, Note_on_c, 2, 64, 105
4, 39960, Note_on_c, 2, 48, 0
4, 39962, Note_on_c, 2, 55, 0
4, 39964, Note_on_c, 2, 64, 0
4, 40080, Note_on_c, 2, 67, 110
4, 40115, Note_on_c, 2, 67, 0
4, 40152, Note_on_c, 2, 55, 100
4, 40164, Note_on_c, 2, 55, 0
4, 40176, Note_on_c, 2, 55, 100
4, 40200, Note_on_c, 2, 55, 0
4, 40224, Note_on_c, 2, 48, 100
4, 40248, Note_on_c, 2, 48, 0
4, 40368, Note_on_c, 2, 67, 110
4, 40403, Note_on_c, 2, 67, 0
4, 40440, Note_on_c, 2, 55, 100
4, 40452, Note_on_c, 2, 55, 0
4, 40464, Note_on_c, 2, 55, 100
4, 40488, Note_on_c, 2, 55, 0
4, 40508, Control_c, 2, 6, 64
4, 40512, Note_on_c, 2, 60, 57
4, 40560, Note_on_c, 2, 60, 0
4, 40560, Note_on_c, 2, 59, 56
4, 40608, Note_on_c, 2, 59, 0
4, 40608, Note_on_c, 2, 57, 54
4, 40656, Note_on_c, 2, 57, 0
4, 40656, Note_on_c, 2, 55, 53
4, 40704, Note_on_c, 2, 55, 0
4, 40704, Note_on_c, 2, 53, 51
4, 40752, Note_on_c, 2, 53, 0
4, 40752, Note_on_c, 2, 52, 50
4, 40800, Note_on_c, 2, 52, 0
4, 40800, Note_on_c, 2, 50, 47
4, 40848, Note_on_c, 2, 50, 0
4, 40848, Note_on_c, 2, 52, 50
4, 40896, Note_on_c, 2, 52, 0
4, 40896, Note_on_c, 2, 50, 47
4, 40920, Note_on_c, 2, 50, 0
4, 40920, Note_on_c, 2, 62, 55
4, 40944, Note_on_c, 2, 62, 0
4, 40944, Note_on_c, 2, 60, 50
4, 40992, Note_on_c, 2, 60, 0
4, 40992, Note_on_c, 2, 59, 49
4, 41040, Note_on_c, 2, 59, 0
4, 41040, Note_on_c, 2, 57, 47
4, 41064, Note_on_c, 2, 57, 0
4, 41064, Note_on_c, 2, 55, 46
4, 41088, Note_on_c, 2, 55, 0
4, 41088, Control_c, 2, 6, 14
4, 41088, Note_on_c, 2, 52, 60
4, 41088, Note_on_c, 2, 55, 60
4, 41123, Note_on_c, 2, 55, 0
4, 41123, Note_on_c, 2, 52, 0
4, 41160, Note_on_c, 2, 64, 50
4, 41172, Note_on_c, 2, 64, 0
4, 41184, Note_on_c, 2, 64, 50
4, 41208, Note_on_c, 2, 64, 0
4, 41232, Note_on_c, 2, 64, 50
4, 41256, Note_on_c, 2, 64, 0
4, 41376, Note_on_c, 2, 57, 60
4, 41411, Note_on_c, 2, 57, 0
4, 41448, Note_on_c, 2, 65, 50
4, 41460, Note_on_c, 2, 65, 0
4, 41472, Note_on_c, 2, 65, 50
4, 41496, Note_on_c, 2, 65, 0
4, 41520, Note_on_c, 2, 65, 50
4, 41544, Note_on_c, 2, 65, 0
4, 42240, Note_on_c, 2, 53, 60
4, 42275, Note_on_c, 2, 53, 0
4, 42312, Note_on_c, 2, 65, 50
4, 42324, Note_on_c, 2, 65, 0
4, 42336, Note_on_c, 2, 65, 50
4, 42360, Note_on_c, 2, 65, 0
4, 42384, Note_on_c, 2, 65, 55
4, 42408, Note_on_c, 2, 65, 0
4, 42528, Note_on_c, 2, 55, 60
4, 42563, Note_on_c, 2, 55, 0
4, 42600, Note_on_c, 2, 67, 50
4, 42612, Note_on_c, 2, 67, 0
4, 42624, Note_on_c, 2, 67, 50
4, 42648, Note_on_c, 2, 67, 0
4, 42672, Note_on_c, 2, 67, 55
4, 42696, Note_on_c, 2, 67, 0
4, 43392, Note_on_c, 2, 43, 70
4, 43427, Note_on_c, 2, 43, 0
4, 43464, Note_on_c, 2, 55, 61
4, 43476, Note_on_c, 2, 55, 0
4, 43488, Note_on_c, 2, 55, 61
4, 43512, Note_on_c, 2, 55, 0
4, 43536, Note_on_c, 2, 55, 65
4, 43560, Note_on_c, 2, 55, 0
4, 43680, Note_on_c, 2, 60, 75
4, 43715, Note_on_c, 2, 60, 0
4, 43752, Note_on_c, 2, 48, 67
4, 43764, Note_on_c, 2, 48, 0
4, 43776, Note_on_c, 2, 48, 67
4, 43800, Note_on_c, 2, 48, 0
4, 43824, Note_on_c, 2, 56, 71
4, 43848, Note_on_c, 2, 56, 0
4, 43968, Note_on_c, 2, 53, 80
4, 44003, Note_on_c, 2, 53, 0
4, 44040, Note_on_c, 2, 65, 72
4, 44052, Note_on_c, 2, 65, 0
4, 44064, Note_on_c, 2, 65, 73
4, 44088, Note_on_c, 2, 65, 0
4, 44112, Note_on_c, 2, 61, 74
4, 44136, Note_on_c, 2, 61, 0
4, 44256, Note_on_c, 2, 58, 86
4, 44291, Note_on_c, 2, 58, 0
4, 44328, Note_on_c, 2, 61, 78
4, 44340, Note_on_c, 2, 61, 0
4, 44352, Note_on_c, 2, 61, 78
4, 44376, Note_on_c, 2, 61, 0
4, 44400, Note_on_c, 2, 63, 79
4, 44424, Note_on_c, 2, 63, 0
4, 44544, Note_on_c, 2, 51, 92
4, 44579, Note_on_c, 2, 51, 0
4, 44616, Note_on_c, 2, 63, 83
4, 44628, Note_on_c, 2, 63, 0
4, 44640, Note_on_c, 2, 63, 84
4, 44664, Note_on_c, 2, 63, 0
4, 44688, Note_on_c, 2, 59, 85
4, 44712, Note_on_c, 2, 59, 0
4, 44832, Note_on_c, 2, 59, 98
4, 44867, Note_on_c, 2, 59, 0
4, 44904, Note_on_c, 2, 64, 89
4, 44916, Note_on_c, 2, 64, 0
4, 44928, Note_on_c, 2, 64, 90
4, 44952, Note_on_c, 2, 64, 0
4, 44976, Note_on_c, 2, 64, 90
4, 45000, Note_on_c, 2, 64, 0
4, 45120, Note_on_c, 2, 57, 110
4, 45155, Note_on_c, 2, 57, 0
4, 45192, Note_on_c, 2, 69, 100
4, 45204, Note_on_c, 2, 69, 0
4, 45216, Note_on_c, 2, 69, 100
4, 45240, Note_on_c, 2, 69, 0
4, 45408, Note_on_c, 2, 58, 119
4, 45443, Note_on_c, 2, 58, 0
4, 45480, Note_on_c, 2, 70, 113
4, 45492, Note_on_c, 2, 70, 0
4, 45504, Note_on_c, 2, 70, 113
4, 45528, Note_on_c, 2, 70, 0
4, 45696, Note_on_c, 2, 59, 120
4, 45731, Note_on_c, 2, 59, 0
4, 45768, Note_on_c, 2, 71, 113
4, 45780, Note_on_c, 2, 71, 0
4, 45792, Note_on_c, 2, 71, 113
4, 45816, Note_on_c, 2, 71, 0
4, 46032, Program_c, 2, 45
4, 46035, Control_c, 2, 7, 105
4, 46176, Note_on_c, 2, 59, 60
4, 46200, Note_on_c, 2, 59, 0
4, 46320, Note_on_c, 2, 59, 57
4, 46344, Note_on_c, 2, 59, 0
4, 46608, Note_on_c, 2, 59, 60
4, 46632, Note_on_c, 2, 59, 0
4, 46752, Note_on_c, 2, 59, 57
4, 46776, Note_on_c, 2, 59, 0
4, 47040, Note_on_c, 2, 59, 60
4, 47064, Note_on_c, 2, 59, 0
4, 47184, Note_on_c, 2, 59, 57
4, 47208, Note_on_c, 2, 59, 0
4, 47472, Note_on_c, 2, 64, 60
4, 47496, Note_on_c, 2, 64, 0
4, 47616, Note_on_c, 2, 52, 57
4, 47640, Note_on_c, 2, 52, 0
4, 47904, Note_on_c, 2, 57, 60
4, 47928, Note_on_c, 2, 57, 0
4, 48048, Note_on_c, 2, 52, 57
4, 48072, Note_on_c, 2, 52, 0
4, 48336, Note_on_c, 2, 57, 60
4, 48360, Note_on_c, 2, 57, 0
4, 48480, Note_on_c, 2, 52, 57
4, 48504, Note_on_c, 2, 52, 0
4, 48768, Note_on_c, 2, 65, 60
4, 48792, Note_on_c, 2, 65, 0
4, 48912, Note_on_c, 2, 53, 57
4, 48936, Note_on_c, 2, 53, 0
4, 49200, Note_on_c, 2, 65, 60
4, 49224, Note_on_c, 2, 65, 0
4, 49344, Note_on_c, 2, 53, 57
4, 49368, Note_on_c, 2, 53, 0
4, 49632, Note_on_c, 2, 65, 60
4, 49656, Note_on_c, 2, 65, 0
4, 49776, Note_on_c, 2, 53, 57
4, 49800, Note_on_c, 2, 53, 0
4, 50064, Note_on_c, 2, 65, 60
4, 50088, Note_on_c, 2, 65, 0
4, 50208, Note_on_c, 2, 53, 57
4, 50232, Note_on_c, 2, 53, 0
4, 50352, Note_on_c, 2, 65, 60
4, 50376, Note_on_c, 2, 65, 0
4, 50496, Note_on_c, 2, 53, 57
4, 50520, Note_on_c, 2, 53, 0
4, 50640, Note_on_c, 2, 65, 60
4, 50664, Note_on_c, 2, 65, 0
4, 50784, Program_c, 2, 48
4, 50784, Control_c, 2, 7, 123
4, 50784, Note_on_c, 2, 58, 55
4, 50784, Note_on_c, 2, 67, 55
4, 50808, Note_on_c, 2, 67, 0
4, 50808, Note_on_c, 2, 58, 0
4, 50832, Note_on_c, 2, 57, 50
4, 50832, Note_on_c, 2, 65, 50
4, 50856, Note_on_c, 2, 65, 0
4, 50856, Note_on_c, 2, 57, 0
4, 50880, Note_on_c, 2, 55, 50
4, 50880, Note_on_c, 2, 64, 50
4, 50904, Note_on_c, 2, 64, 0
4, 50904, Note_on_c, 2, 55, 0
4, 50928, Note_on_c, 2, 55, 55
4, 50928, Note_on_c, 2, 64, 55
4, 50952, Note_on_c, 2, 64, 0
4, 50952, Note_on_c, 2, 55, 0
4, 50976, Note_on_c, 2, 57, 50
4, 50976, Note_on_c, 2, 65, 50
4, 51000, Note_on_c, 2, 65, 0
4, 51000, Note_on_c, 2, 57, 0
4, 51024, Note_on_c, 2, 58, 50
4, 51024, Note_on_c, 2, 67, 50
4, 51048, Note_on_c, 2, 67, 0
4, 51048, Note_on_c, 2, 58, 0
4, 51072, Note_on_c, 2, 58, 55
4, 51072, Note_on_c, 2, 67, 55
4, 51096, Note_on_c, 2, 67, 0
4, 51096, Note_on_c, 2, 58, 0
4, 51120, Note_on_c, 2, 57, 50
4, 51120, Note_on_c, 2, 65, 50
4, 51144, Note_on_c, 2, 65, 0
4, 51144, Note_on_c, 2, 57, 0
4, 51168, Note_on_c, 2, 58, 50
4, 51168, Note_on_c, 2, 67, 50
4, 51192, Note_on_c, 2, 67, 0
4, 51192, Note_on_c, 2, 58, 0
4, 51216, Program_c, 2, 45
4, 51216, Control_c, 2, 7, 105
4, 51216, Note_on_c, 2, 62, 50
4, 51240, Note_on_c, 2, 62, 0
4, 51360, Note_on_c, 2, 50, 47
4, 51384, Note_on_c, 2, 50, 0
4, 51504, Note_on_c, 2, 62, 50
4, 51528, Note_on_c, 2, 62, 0
4, 51648, Program_c, 2, 48
4, 51648, Control_c, 2, 7, 123
4, 51648, Note_on_c, 2, 55, 55
4, 51648, Note_on_c, 2, 64, 55
4, 51672, Note_on_c, 2, 64, 0
4, 51672, Note_on_c, 2, 55, 0
4, 51696, Note_on_c, 2, 53, 50
4, 51696, Note_on_c, 2, 62, 50
4, 51720, Note_on_c, 2, 62, 0
4, 51720, Note_on_c, 2, 53, 0
4, 51744, Note_on_c, 2, 52, 50
4, 51744, Note_on_c, 2, 61, 50
4, 51768, Note_on_c, 2, 61, 0
4, 51768, Note_on_c, 2, 52, 0
4, 51792, Note_on_c, 2, 52, 55
4, 51792, Note_on_c, 2, 61, 55
4, 51816, Note_on_c, 2, 61, 0
4, 51816, Note_on_c, 2, 52, 0
4, 51840, Note_on_c, 2, 53, 50
4, 51840, Note_on_c, 2, 62, 50
4, 51864, Note_on_c, 2, 62, 0
4, 51864, Note_on_c, 2, 53, 0
4, 51888, Note_on_c, 2, 55, 50
4, 51888, Note_on_c, 2, 64, 50
4, 51912, Note_on_c, 2, 64, 0
4, 51912, Note_on_c, 2, 55, 0
4, 51936, Note_on_c, 2, 55, 55
4, 51936, Note_on_c, 2, 64, 55
4, 51960, Note_on_c, 2, 64, 0
4, 51960, Note_on_c, 2, 55, 0
4, 51984, Note_on_c, 2, 53, 50
4, 51984, Note_on_c, 2, 62, 50
4, 52008, Note_on_c, 2, 62, 0
4, 52008, Note_on_c, 2, 53, 0
4, 52032, Note_on_c, 2, 55, 50
4, 52032, Note_on_c, 2, 64, 50
4, 52056, Note_on_c, 2, 64, 0
4, 52056, Note_on_c, 2, 55, 0
4, 52080, Program_c, 2, 45
4, 52080, Control_c, 2, 7, 105
4, 52080, Note_on_c, 2, 69, 50
4, 52104, Note_on_c, 2, 69, 0
4, 52224, Note_on_c, 2, 57, 47
4, 52248, Note_on_c, 2, 57, 0
4, 52368, Note_on_c, 2, 69, 50
4, 52392, Note_on_c, 2, 69, 0
4, 52512, Program_c, 2, 48
4, 52512, Control_c, 2, 7, 123
4, 52512, Note_on_c, 2, 55, 55
4, 52512, Note_on_c, 2, 64, 55
4, 52536, Note_on_c, 2, 64, 0
4, 52536, Note_on_c, 2, 55, 0
4, 52560, Note_on_c, 2, 53, 50
4, 52560, Note_on_c, 2, 62, 50
4, 52584, Note_on_c, 2, 62, 0
4, 52584, Note_on_c, 2, 53, 0
4, 52608, Note_on_c, 2, 52, 50
4, 52608, Note_on_c, 2, 61, 50
4, 52632, Note_on_c, 2, 61, 0
4, 52632, Note_on_c, 2, 52, 0
4, 52656, Note_on_c, 2, 52, 55
4, 52656, Note_on_c, 2, 61, 55
4, 52680, Note_on_c, 2, 61, 0
4, 52680, Note_on_c, 2, 52, 0
4, 52704, Note_on_c, 2, 53, 50
4, 52704, Note_on_c, 2, 62, 50
4, 52728, Note_on_c, 2, 62, 0
4, 52728, Note_on_c, 2, 53, 0
4, 52752, Note_on_c, 2, 55, 50
4, 52752, Note_on_c, 2, 64, 50
4, 52776, Note_on_c, 2, 64, 0
4, 52776, Note_on_c, 2, 55, 0
4, 52800, Note_on_c, 2, 55, 55
4, 52800, Note_on_c, 2, 64, 55
4, 52824, Note_on_c, 2, 64, 0
4, 52824, Note_on_c, 2, 55, 0
4, 52848, Note_on_c, 2, 53, 50
4, 52848, Note_on_c, 2, 62, 50
4, 52872, Note_on_c, 2, 62, 0
4, 52872, Note_on_c, 2, 53, 0
4, 52896, Note_on_c, 2, 55, 50
4, 52896, Note_on_c, 2, 64, 50
4, 52920, Note_on_c, 2, 64, 0
4, 52920, Note_on_c, 2, 55, 0
4, 52944, Note_on_c, 2, 58, 55
4, 52968, Note_on_c, 2, 58, 0
4, 52992, Note_on_c, 2, 57, 50
4, 53016, Note_on_c, 2, 57, 0
4, 53040, Note_on_c, 2, 55, 50
4, 53064, Note_on_c, 2, 55, 0
4, 53088, Note_on_c, 2, 53, 55
4, 53112, Note_on_c, 2, 53, 0
4, 53232, Program_c, 2, 45
4, 53232, Control_c, 2, 7, 105
4, 53232, Note_on_c, 2, 57, 50
4, 53256, Note_on_c, 2, 57, 0
4, 53520, Note_on_c, 2, 57, 50
4, 53544, Note_on_c, 2, 57, 0
4, 53664, Note_on_c, 2, 57, 47
4, 53688, Note_on_c, 2, 57, 0
4, 53952, Note_on_c, 2, 57, 50
4, 53976, Note_on_c, 2, 57, 0
4, 54096, Note_on_c, 2, 57, 47
4, 54120, Note_on_c, 2, 57, 0
4, 54528, Program_c, 2, 48
4, 54528, Control_c, 2, 7, 123
4, 54528, Note_on_c, 2, 69, 60
4, 54563, Note_on_c, 2, 69, 0
4, 54600, Note_on_c, 2, 57, 50
4, 54612, Note_on_c, 2, 57, 0
4, 54624, Note_on_c, 2, 57, 50
4, 54648, Note_on_c, 2, 57, 0
4, 54672, Note_on_c, 2, 62, 55
4, 54696, Note_on_c, 2, 62, 0
4, 54720, Note_on_c, 2, 64, 50
4, 54744, Note_on_c, 2, 64, 0
4, 54768, Note_on_c, 2, 65, 50
4, 54792, Note_on_c, 2, 65, 0
4, 54816, Note_on_c, 2, 62, 55
4, 54840, Note_on_c, 2, 62, 0
4, 54864, Note_on_c, 2, 63, 50
4, 54888, Note_on_c, 2, 63, 0
4, 54912, Note_on_c, 2, 65, 50
4, 54936, Note_on_c, 2, 65, 0
4, 54960, Note_on_c, 2, 63, 55
4, 54984, Note_on_c, 2, 63, 0
4, 55008, Note_on_c, 2, 62, 50
4, 55032, Note_on_c, 2, 62, 0
4, 55056, Note_on_c, 2, 60, 50
4, 55080, Note_on_c, 2, 60, 0
4, 55104, Note_on_c, 2, 62, 55
4, 55128, Note_on_c, 2, 62, 0
4, 55152, Note_on_c, 2, 60, 50
4, 55176, Note_on_c, 2, 60, 0
4, 55200, Note_on_c, 2, 59, 50
4, 55224, Note_on_c, 2, 59, 0
4, 55248, Note_on_c, 2, 60, 55
4, 55272, Note_on_c, 2, 60, 0
4, 55296, Note_on_c, 2, 65, 50
4, 55320, Note_on_c, 2, 65, 0
4, 55344, Note_on_c, 2, 67, 50
4, 55368, Note_on_c, 2, 67, 0
4, 55392, Note_on_c, 2, 65, 55
4, 55416, Note_on_c, 2, 65, 0
4, 55440, Note_on_c, 2, 67, 50
4, 55464, Note_on_c, 2, 67, 0
4, 55488, Note_on_c, 2, 68, 50
4, 55512, Note_on_c, 2, 68, 0
4, 55536, Note_on_c, 2, 67, 55
4, 55560, Note_on_c, 2, 67, 0
4, 55584, Note_on_c, 2, 65, 50
4, 55608, Note_on_c, 2, 65, 0
4, 55632, Note_on_c, 2, 63, 50
4, 55656, Note_on_c, 2, 63, 0
4, 55680, Note_on_c, 2, 70, 55
4, 55715, Note_on_c, 2, 70, 0
4, 55752, Note_on_c, 2, 58, 50
4, 55764, Note_on_c, 2, 58, 0
4, 55776, Note_on_c, 2, 58, 50
4, 55800, Note_on_c, 2, 58, 0
4, 55824, Note_on_c, 2, 63, 55
4, 55848, Note_on_c, 2, 63, 0
4, 55872, Note_on_c, 2, 65, 50
4, 55896, Note_on_c, 2, 65, 0
4, 55920, Note_on_c, 2, 67, 50
4, 55944, Note_on_c, 2, 67, 0
4, 55968, Note_on_c, 2, 65, 55
4, 55992, Note_on_c, 2, 65, 0
4, 56016, Note_on_c, 2, 63, 50
4, 56040, Note_on_c, 2, 63, 0
4, 56064, Note_on_c, 2, 62, 50
4, 56088, Note_on_c, 2, 62, 0
4, 56112, Note_on_c, 2, 58, 55
4, 56136, Note_on_c, 2, 58, 0
4, 56160, Note_on_c, 2, 62, 50
4, 56184, Note_on_c, 2, 62, 0
4, 56208, Note_on_c, 2, 63, 50
4, 56232, Note_on_c, 2, 63, 0
4, 56256, Note_on_c, 2, 65, 50
4, 56831, Note_on_c, 2, 65, 0
4, 56832, Note_on_c, 2, 51, 50
4, 56856, Note_on_c, 2, 51, 0
4, 56880, Note_on_c, 2, 53, 50
4, 56904, Note_on_c, 2, 53, 0
4, 56928, Note_on_c, 2, 55, 50
4, 56952, Note_on_c, 2, 55, 0
4, 56976, Note_on_c, 2, 55, 50
4, 57000, Note_on_c, 2, 55, 0
4, 57024, Note_on_c, 2, 56, 50
4, 57048, Note_on_c, 2, 56, 0
4, 57072, Note_on_c, 2, 58, 50
4, 57096, Note_on_c, 2, 58, 0
4, 57120, Note_on_c, 2, 63, 50
4, 57144, Note_on_c, 2, 63, 0
4, 57168, Note_on_c, 2, 65, 50
4, 57192, Note_on_c, 2, 65, 0
4, 57216, Note_on_c, 2, 67, 50
4, 57240, Note_on_c, 2, 67, 0
4, 57264, Note_on_c, 2, 67, 50
4, 57288, Note_on_c, 2, 67, 0
4, 57312, Note_on_c, 2, 68, 50
4, 57336, Note_on_c, 2, 68, 0
4, 57360, Note_on_c, 2, 70, 50
4, 57384, Note_on_c, 2, 70, 0
4, 57408, Control_c, 2, 6, 64
4, 57408, Control_c, 2, 11, 50
4, 57408, Note_on_c, 2, 74, 120
4, 57425, Control_c, 2, 11, 51
4, 57441, Control_c, 2, 11, 52
4, 57458, Control_c, 2, 11, 53
4, 57474, Control_c, 2, 11, 54
4, 57491, Control_c, 2, 11, 55
4, 57507, Control_c, 2, 11, 56
4, 57524, Control_c, 2, 11, 57
4, 57540, Control_c, 2, 11, 58
4, 57556, Control_c, 2, 11, 59
4, 57573, Control_c, 2, 11, 60
4, 57589, Control_c, 2, 11, 61
4, 57606, Control_c, 2, 11, 62
4, 57622, Control_c, 2, 11, 63
4, 57639, Control_c, 2, 11, 64
4, 57655, Control_c, 2, 11, 65
4, 57672, Control_c, 2, 11, 66
4, 57688, Control_c, 2, 11, 67
4, 57704, Control_c, 2, 11, 68
4, 57721, Control_c, 2, 11, 69
4, 57737, Control_c, 2, 11, 70
4, 57754, Control_c, 2, 11, 71
4, 57770, Control_c, 2, 11, 72
4, 57787, Control_c, 2, 11, 73
4, 57803, Control_c, 2, 11, 74
4, 57820, Control_c, 2, 11, 75
4, 57836, Control_c, 2, 11, 76
4, 57852, Control_c, 2, 11, 77
4, 57869, Control_c, 2, 11, 78
4, 57885, Control_c, 2, 11, 79
4, 57902, Control_c, 2, 11, 80
4, 57918, Control_c, 2, 11, 81
4, 57935, Control_c, 2, 11, 82
4, 57951, Control_c, 2, 11, 83
4, 57968, Control_c, 2, 11, 84
4, 57983, Note_on_c, 2, 74, 0
4, 57984, Note_on_c, 2, 74, 120
4, 57984, Control_c, 2, 11, 85
4, 58000, Control_c, 2, 11, 86
4, 58017, Control_c, 2, 11, 87
4, 58033, Control_c, 2, 11, 88
4, 58050, Control_c, 2, 11, 89
4, 58066, Control_c, 2, 11, 90
4, 58083, Control_c, 2, 11, 91
4, 58099, Control_c, 2, 11, 92
4, 58116, Control_c, 2, 11, 93
4, 58132, Control_c, 2, 11, 94
4, 58148, Control_c, 2, 11, 95
4, 58165, Control_c, 2, 11, 96
4, 58181, Control_c, 2, 11, 97
4, 58198, Control_c, 2, 11, 98
4, 58214, Control_c, 2, 11, 99
4, 58231, Control_c, 2, 11, 100
4, 58247, Control_c, 2, 11, 101
4, 58264, Control_c, 2, 11, 102
4, 58280, Control_c, 2, 11, 103
4, 58296, Control_c, 2, 11, 104
4, 58313, Control_c, 2, 11, 105
4, 58329, Control_c, 2, 11, 106
4, 58346, Control_c, 2, 11, 107
4, 58362, Control_c, 2, 11, 108
4, 58379, Control_c, 2, 11, 109
4, 58395, Control_c, 2, 11, 110
4, 58412, Control_c, 2, 11, 111
4, 58428, Control_c, 2, 11, 112
4, 58444, Control_c, 2, 11, 113
4, 58461, Control_c, 2, 11, 114
4, 58477, Control_c, 2, 11, 115
4, 58494, Control_c, 2, 11, 116
4, 58510, Control_c, 2, 11, 117
4, 58527, Control_c, 2, 11, 118
4, 58543, Control_c, 2, 11, 119
4, 58559, Note_on_c, 2, 74, 0
4, 58559, Control_c, 2, 11, 120
4, 58560, Control_c, 2, 6, 14
4, 58560, Control_c, 2, 11, 120
4, 58560, Note_on_c, 2, 57, 110
4, 58562, Note_on_c, 2, 65, 115
4, 58564, Note_on_c, 2, 74, 120
4, 58590, Note_on_c, 2, 57, 0
4, 58592, Note_on_c, 2, 65, 0
4, 58594, Note_on_c, 2, 74, 0
4, 58848, Note_on_c, 2, 62, 120
4, 58848, Note_on_c, 2, 65, 120
4, 58878, Note_on_c, 2, 65, 0
4, 58878, Note_on_c, 2, 62, 0
4, 59136, Note_on_c, 2, 57, 115
4, 59138, Note_on_c, 2, 65, 120
4, 59140, Note_on_c, 2, 74, 125
4, 59166, Note_on_c, 2, 57, 0
4, 59168, Note_on_c, 2, 65, 0
4, 59170, Note_on_c, 2, 74, 0
4, 59208, Note_on_c, 2, 65, 115
4, 59208, Note_on_c, 2, 69, 115
4, 59220, Note_on_c, 2, 69, 0
4, 59220, Note_on_c, 2, 65, 0
4, 59232, Note_on_c, 2, 65, 115
4, 59232, Note_on_c, 2, 69, 115
4, 59256, Note_on_c, 2, 69, 0
4, 59256, Note_on_c, 2, 65, 0
4, 59280, Note_on_c, 2, 57, 115
4, 59282, Note_on_c, 2, 65, 120
4, 59284, Note_on_c, 2, 74, 125
4, 59310, Note_on_c, 2, 57, 0
4, 59312, Note_on_c, 2, 65, 0
4, 59314, Note_on_c, 2, 74, 0
4, 59352, Note_on_c, 2, 65, 115
4, 59352, Note_on_c, 2, 69, 115
4, 59364, Note_on_c, 2, 69, 0
4, 59364, Note_on_c, 2, 65, 0
4, 59376, Note_on_c, 2, 65, 115
4, 59376, Note_on_c, 2, 69, 115
4, 59400, Note_on_c, 2, 69, 0
4, 59400, Note_on_c, 2, 65, 0
4, 59424, Note_on_c, 2, 57, 115
4, 59426, Note_on_c, 2, 65, 120
4, 59428, Note_on_c, 2, 74, 125
4, 59454, Note_on_c, 2, 57, 0
4, 59456, Note_on_c, 2, 65, 0
4, 59458, Note_on_c, 2, 74, 0
4, 59496, Note_on_c, 2, 65, 115
4, 59496, Note_on_c, 2, 69, 115
4, 59508, Note_on_c, 2, 69, 0
4, 59508, Note_on_c, 2, 65, 0
4, 59520, Note_on_c, 2, 65, 115
4, 59520, Note_on_c, 2, 69, 115
4, 59544, Note_on_c, 2, 69, 0
4, 59544, Note_on_c, 2, 65, 0
4, 59568, Note_on_c, 2, 57, 115
4, 59570, Note_on_c, 2, 65, 120
4, 59572, Note_on_c, 2, 74, 125
4, 59598, Note_on_c, 2, 57, 0
4, 59600, Note_on_c, 2, 65, 0
4, 59602, Note_on_c, 2, 74, 0
4, 59640, Note_on_c, 2, 65, 115
4, 59640, Note_on_c, 2, 69, 115
4, 59652, Note_on_c, 2, 69, 0
4, 59652, Note_on_c, 2, 65, 0
4, 59664, Note_on_c, 2, 65, 115
4, 59664, Note_on_c, 2, 69, 115
4, 59688, Note_on_c, 2, 69, 0
4, 59688, Note_on_c, 2, 65, 0
4, 59712, Note_on_c, 2, 57, 125
4, 59712, Note_on_c, 2, 69, 125
4, 59747, Note_on_c, 2, 69, 0
4, 59747, Note_on_c, 2, 57, 0
4, 59784, Note_on_c, 2, 57, 115
4, 59796, Note_on_c, 2, 57, 0
4, 59808, Note_on_c, 2, 57, 115
4, 59832, Note_on_c, 2, 57, 0
4, 59856, Note_on_c, 2, 62, 120
4, 59880, Note_on_c, 2, 62, 0
4, 59904, Note_on_c, 2, 64, 115
4, 59928, Note_on_c, 2, 64, 0
4, 59952, Note_on_c, 2, 65, 115
4, 59976, Note_on_c, 2, 65, 0
4, 60000, Note_on_c, 2, 64, 120
4, 60024, Note_on_c, 2, 64, 0
4, 60048, Note_on_c, 2, 65, 115
4, 60072, Note_on_c, 2, 65, 0
4, 60096, Note_on_c, 2, 67, 115
4, 60120, Note_on_c, 2, 67, 0
4, 60144, Note_on_c, 2, 65, 120
4, 60168, Note_on_c, 2, 65, 0
4, 60192, Note_on_c, 2, 64, 115
4, 60216, Note_on_c, 2, 64, 0
4, 60240, Note_on_c, 2, 62, 115
4, 60264, Note_on_c, 2, 62, 0
4, 60288, Note_on_c, 2, 58, 120
4, 60312, Note_on_c, 2, 58, 0
4, 60336, Note_on_c, 2, 57, 115
4, 60360, Note_on_c, 2, 57, 0
4, 60384, Note_on_c, 2, 55, 115
4, 60408, Note_on_c, 2, 55, 0
4, 60432, Note_on_c, 2, 53, 120
4, 60456, Note_on_c, 2, 53, 0
4, 60480, Note_on_c, 2, 64, 115
4, 60504, Note_on_c, 2, 64, 0
4, 60528, Note_on_c, 2, 62, 115
4, 60552, Note_on_c, 2, 62, 0
4, 60576, Note_on_c, 2, 61, 120
4, 60600, Note_on_c, 2, 61, 0
4, 60624, Note_on_c, 2, 62, 115
4, 60648, Note_on_c, 2, 62, 0
4, 60672, Note_on_c, 2, 64, 115
4, 60696, Note_on_c, 2, 64, 0
4, 60720, Note_on_c, 2, 62, 120
4, 60744, Note_on_c, 2, 62, 0
4, 60768, Note_on_c, 2, 61, 115
4, 60792, Note_on_c, 2, 61, 0
4, 60816, Note_on_c, 2, 62, 115
4, 60840, Note_on_c, 2, 62, 0
4, 60864, Note_on_c, 2, 58, 120
4, 60888, Note_on_c, 2, 58, 0
4, 60912, Note_on_c, 2, 57, 115
4, 60936, Note_on_c, 2, 57, 0
4, 60960, Note_on_c, 2, 55, 115
4, 60984, Note_on_c, 2, 55, 0
4, 61008, Note_on_c, 2, 53, 120
4, 61032, Note_on_c, 2, 53, 0
4, 61056, Note_on_c, 2, 64, 115
4, 61080, Note_on_c, 2, 64, 0
4, 61104, Note_on_c, 2, 62, 115
4, 61128, Note_on_c, 2, 62, 0
4, 61152, Note_on_c, 2, 61, 120
4, 61176, Note_on_c, 2, 61, 0
4, 61200, Note_on_c, 2, 62, 115
4, 61224, Note_on_c, 2, 62, 0
4, 61248, Note_on_c, 2, 64, 115
4, 61272, Note_on_c, 2, 64, 0
4, 61296, Note_on_c, 2, 62, 120
4, 61320, Note_on_c, 2, 62, 0
4, 61344, Note_on_c, 2, 61, 115
4, 61368, Note_on_c, 2, 61, 0
4, 61392, Note_on_c, 2, 62, 115
4, 61416, Note_on_c, 2, 62, 0
4, 61440, Note_on_c, 2, 60, 120
4, 61464, Note_on_c, 2, 60, 0
4, 61488, Note_on_c, 2, 62, 115
4, 61512, Note_on_c, 2, 62, 0
4, 61536, Note_on_c, 2, 63, 115
4, 61560, Note_on_c, 2, 63, 0
4, 61584, Note_on_c, 2, 55, 120
4, 61608, Note_on_c, 2, 55, 0
4, 61632, Note_on_c, 2, 57, 115
4, 61656, Note_on_c, 2, 57, 0
4, 61680, Note_on_c, 2, 58, 115
4, 61704, Note_on_c, 2, 58, 0
4, 61728, Note_on_c, 2, 57, 120
4, 61752, Note_on_c, 2, 57, 0
4, 61776, Note_on_c, 2, 58, 115
4, 61800, Note_on_c, 2, 58, 0
4, 61824, Note_on_c, 2, 60, 115
4, 61848, Note_on_c, 2, 60, 0
4, 61872, Note_on_c, 2, 58, 120
4, 61896, Note_on_c, 2, 58, 0
4, 61920, Note_on_c, 2, 57, 115
4, 61944, Note_on_c, 2, 57, 0
4, 61968, Note_on_c, 2, 55, 115
4, 61992, Note_on_c, 2, 55, 0
4, 62016, Note_on_c, 2, 63, 105
4, 62040, Note_on_c, 2, 63, 0
4, 62064, Note_on_c, 2, 62, 100
4, 62088, Note_on_c, 2, 62, 0
4, 62112, Note_on_c, 2, 60, 100
4, 62136, Note_on_c, 2, 60, 0
4, 62160, Note_on_c, 2, 58, 105
4, 62184, Note_on_c, 2, 58, 0
4, 62208, Note_on_c, 2, 57, 100
4, 62232, Note_on_c, 2, 57, 0
4, 62256, Note_on_c, 2, 55, 100
4, 62280, Note_on_c, 2, 55, 0
4, 62304, Note_on_c, 2, 65, 105
4, 62328, Note_on_c, 2, 65, 0
4, 62352, Note_on_c, 2, 63, 100
4, 62376, Note_on_c, 2, 63, 0
4, 62400, Note_on_c, 2, 62, 100
4, 62424, Note_on_c, 2, 62, 0
4, 62448, Note_on_c, 2, 60, 105
4, 62472, Note_on_c, 2, 60, 0
4, 62496, Note_on_c, 2, 58, 100
4, 62520, Note_on_c, 2, 58, 0
4, 62544, Note_on_c, 2, 57, 100
4, 62568, Note_on_c, 2, 57, 0
4, 62592, Note_on_c, 2, 67, 105
4, 62616, Note_on_c, 2, 67, 0
4, 62640, Note_on_c, 2, 65, 100
4, 62664, Note_on_c, 2, 65, 0
4, 62688, Note_on_c, 2, 63, 100
4, 62712, Note_on_c, 2, 63, 0
4, 62736, Note_on_c, 2, 62, 105
4, 62760, Note_on_c, 2, 62, 0
4, 62784, Note_on_c, 2, 60, 100
4, 62808, Note_on_c, 2, 60, 0
4, 62832, Note_on_c, 2, 58, 100
4, 62856, Note_on_c, 2, 58, 0
4, 62880, Note_on_c, 2, 57, 105
4, 62904, Note_on_c, 2, 57, 0
4, 62928, Note_on_c, 2, 55, 100
4, 62952, Note_on_c, 2, 55, 0
4, 62976, Note_on_c, 2, 53, 100
4, 63000, Note_on_c, 2, 53, 0
4, 63024, Note_on_c, 2, 63, 105
4, 63048, Note_on_c, 2, 63, 0
4, 63072, Note_on_c, 2, 62, 100
4, 63096, Note_on_c, 2, 62, 0
4, 63120, Note_on_c, 2, 60, 100
4, 63144, Note_on_c, 2, 60, 0
4, 63168, Note_on_c, 2, 58, 105
4, 63192, Note_on_c, 2, 58, 0
4, 63600, Note_on_c, 2, 72, 68
4, 63635, Note_on_c, 2, 72, 0
4, 63672, Note_on_c, 2, 60, 67
4, 63684, Note_on_c, 2, 60, 0
4, 63696, Note_on_c, 2, 60, 69
4, 63720, Note_on_c, 2, 60, 0
4, 63744, Note_on_c, 2, 72, 82
4, 63779, Note_on_c, 2, 72, 0
4, 63816, Note_on_c, 2, 60, 81
4, 63828, Note_on_c, 2, 60, 0
4, 63840, Note_on_c, 2, 60, 84
4, 63864, Note_on_c, 2, 60, 0
4, 63888, Note_on_c, 2, 74, 89
4, 63923, Note_on_c, 2, 74, 0
4, 63960, Note_on_c, 2, 62, 84
4, 63972, Note_on_c, 2, 62, 0
4, 63984, Note_on_c, 2, 62, 82
4, 64008, Note_on_c, 2, 62, 0
4, 64032, Note_on_c, 2, 73, 79
4, 64067, Note_on_c, 2, 73, 0
4, 64104, Note_on_c, 2, 61, 73
4, 64116, Note_on_c, 2, 61, 0
4, 64128, Note_on_c, 2, 61, 72
4, 64152, Note_on_c, 2, 61, 0
4, 64176, Note_on_c, 2, 72, 68
4, 64211, Note_on_c, 2, 72, 0
4, 64248, Note_on_c, 2, 60, 63
4, 64260, Note_on_c, 2, 60, 0
4, 64272, Note_on_c, 2, 60, 61
4, 64296, Note_on_c, 2, 60, 0
4, 65040, Note_on_c, 2, 71, 60
4, 65075, Note_on_c, 2, 71, 0
4, 65112, Note_on_c, 2, 59, 69
4, 65124, Note_on_c, 2, 59, 0
4, 65136, Note_on_c, 2, 59, 72
4, 65160, Note_on_c, 2, 59, 0
4, 65184, Note_on_c, 2, 70, 78
4, 65219, Note_on_c, 2, 70, 0
4, 65256, Note_on_c, 2, 58, 87
4, 65268, Note_on_c, 2, 58, 0
4, 65280, Note_on_c, 2, 58, 90
4, 65304, Note_on_c, 2, 58, 0
4, 65328, Note_on_c, 2, 69, 90
4, 65363, Note_on_c, 2, 69, 0
4, 65400, Note_on_c, 2, 57, 85
4, 65412, Note_on_c, 2, 57, 0
4, 65424, Note_on_c, 2, 57, 83
4, 65448, Note_on_c, 2, 57, 0
4, 65472, Note_on_c, 2, 69, 79
4, 65507, Note_on_c, 2, 69, 0
4, 65544, Note_on_c, 2, 57, 74
4, 65556, Note_on_c, 2, 57, 0
4, 65568, Note_on_c, 2, 57, 72
4, 65592, Note_on_c, 2, 57, 0
4, 65616, Note_on_c, 2, 69, 68
4, 65651, Note_on_c, 2, 69, 0
4, 65688, Note_on_c, 2, 57, 62
4, 65700, Note_on_c, 2, 57, 0
4, 65712, Note_on_c, 2, 57, 60
4, 65736, Note_on_c, 2, 57, 0
4, 65904, Note_on_c, 2, 69, 60
4, 65939, Note_on_c, 2, 69, 0
4, 65976, Note_on_c, 2, 57, 63
4, 65988, Note_on_c, 2, 57, 0
4, 66000, Note_on_c, 2, 57, 65
4, 66024, Note_on_c, 2, 57, 0
4, 66048, Note_on_c, 2, 69, 67
4, 66083, Note_on_c, 2, 69, 0
4, 66120, Note_on_c, 2, 57, 71
4, 66132, Note_on_c, 2, 57, 0
4, 66144, Note_on_c, 2, 57, 73
4, 66168, Note_on_c, 2, 57, 0
4, 66192, Note_on_c, 2, 67, 75
4, 66227, Note_on_c, 2, 67, 0
4, 66264, Note_on_c, 2, 55, 79
4, 66276, Note_on_c, 2, 55, 0
4, 66288, Note_on_c, 2, 55, 81
4, 66312, Note_on_c, 2, 55, 0
4, 66336, Note_on_c, 2, 67, 83
4, 66371, Note_on_c, 2, 67, 0
4, 66408, Note_on_c, 2, 55, 87
4, 66420, Note_on_c, 2, 55, 0
4, 66432, Note_on_c, 2, 55, 88
4, 66456, Note_on_c, 2, 55, 0
4, 66480, Note_on_c, 2, 66, 90
4, 66515, Note_on_c, 2, 66, 0
4, 66552, Note_on_c, 2, 54, 85
4, 66564, Note_on_c, 2, 54, 0
4, 66576, Note_on_c, 2, 54, 83
4, 66600, Note_on_c, 2, 54, 0
4, 66624, Note_on_c, 2, 65, 79
4, 66659, Note_on_c, 2, 65, 0
4, 66696, Note_on_c, 2, 53, 74
4, 66708, Note_on_c, 2, 53, 0
4, 66720, Note_on_c, 2, 53, 72
4, 66744, Note_on_c, 2, 53, 0
4, 66768, Note_on_c, 2, 64, 68
4, 66803, Note_on_c, 2, 64, 0
4, 66840, Note_on_c, 2, 52, 62
4, 66852, Note_on_c, 2, 52, 0
4, 66864, Note_on_c, 2, 52, 60
4, 66888, Note_on_c, 2, 52, 0
4, 66912, Program_c, 2, 45
4, 66912, Control_c, 2, 7, 105
4, 67008, Note_on_c, 2, 69, 60
4, 67032, Note_on_c, 2, 69, 0
4, 67152, Note_on_c, 2, 69, 67
4, 67176, Note_on_c, 2, 69, 0
4, 67296, Note_on_c, 2, 71, 74
4, 67320, Note_on_c, 2, 71, 0
4, 67440, Note_on_c, 2, 64, 81
4, 67464, Note_on_c, 2, 64, 0
4, 67584, Note_on_c, 2, 64, 89
4, 67608, Note_on_c, 2, 64, 0
4, 67728, Note_on_c, 2, 62, 96
4, 67752, Note_on_c, 2, 62, 0
4, 67872, Note_on_c, 2, 62, 103
4, 67896, Note_on_c, 2, 62, 0
4, 68016, Note_on_c, 2, 67, 111
4, 68040, Note_on_c, 2, 67, 0
4, 68064, Program_c, 2, 48
4, 68064, Control_c, 2, 7, 123
4, 68064, Note_on_c, 2, 62, 120
4, 68099, Note_on_c, 2, 62, 0
4, 68136, Note_on_c, 2, 50, 113
4, 68148, Note_on_c, 2, 50, 0
4, 68160, Note_on_c, 2, 50, 113
4, 68184, Note_on_c, 2, 50, 0
4, 68208, Note_on_c, 2, 62, 120
4, 68243, Note_on_c, 2, 62, 0
4, 68280, Note_on_c, 2, 50, 113
4, 68292, Note_on_c, 2, 50, 0
4, 68304, Note_on_c, 2, 50, 113
4, 68328, Note_on_c, 2, 50, 0
4, 68352, Note_on_c, 2, 62, 120
4, 68387, Note_on_c, 2, 62, 0
4, 68424, Note_on_c, 2, 50, 113
4, 68436, Note_on_c, 2, 50, 0
4, 68448, Note_on_c, 2, 50, 113
4, 68472, Note_on_c, 2, 50, 0
4, 68496, Note_on_c, 2, 62, 120
4, 68531, Note_on_c, 2, 62, 0
4, 68568, Note_on_c, 2, 50, 113
4, 68580, Note_on_c, 2, 50, 0
4, 68592, Note_on_c, 2, 50, 113
4, 68616, Note_on_c, 2, 50, 0
4, 68640, Note_on_c, 2, 62, 120
4, 68675, Note_on_c, 2, 62, 0
4, 68712, Note_on_c, 2, 50, 113
4, 68724, Note_on_c, 2, 50, 0
4, 68736, Note_on_c, 2, 50, 113
4, 68760, Note_on_c, 2, 50, 0
4, 68784, Note_on_c, 2, 62, 120
4, 68819, Note_on_c, 2, 62, 0
4, 68856, Note_on_c, 2, 50, 113
4, 68868, Note_on_c, 2, 50, 0
4, 68880, Note_on_c, 2, 50, 113
4, 68904, Note_on_c, 2, 50, 0
4, 68928, Note_on_c, 2, 62, 120
4, 68963, Note_on_c, 2, 62, 0
4, 69000, Note_on_c, 2, 50, 113
4, 69012, Note_on_c, 2, 50, 0
4, 69024, Note_on_c, 2, 50, 113
4, 69048, Note_on_c, 2, 50, 0
4, 69072, Note_on_c, 2, 62, 120
4, 69107, Note_on_c, 2, 62, 0
4, 69144, Note_on_c, 2, 50, 113
4, 69156, Note_on_c, 2, 50, 0
4, 69168, Note_on_c, 2, 50, 113
4, 69192, Note_on_c, 2, 50, 0
4, 69216, Note_on_c, 2, 62, 120
4, 69251, Note_on_c, 2, 62, 0
4, 69288, Note_on_c, 2, 50, 113
4, 69300, Note_on_c, 2, 50, 0
4, 69312, Note_on_c, 2, 50, 113
4, 69336, Note_on_c, 2, 50, 0
4, 69360, Note_on_c, 2, 62, 120
4, 69395, Note_on_c, 2, 62, 0
4, 69432, Note_on_c, 2, 50, 113
4, 69444, Note_on_c, 2, 50, 0
4, 69456, Note_on_c, 2, 50, 113
4, 69480, Note_on_c, 2, 50, 0
4, 69504, Note_on_c, 2, 62, 120
4, 69539, Note_on_c, 2, 62, 0
4, 69576, Note_on_c, 2, 50, 113
4, 69588, Note_on_c, 2, 50, 0
4, 69600, Note_on_c, 2, 50, 113
4, 69624, Note_on_c, 2, 50, 0
4, 69648, Note_on_c, 2, 62, 120
4, 69683, Note_on_c, 2, 62, 0
4, 69720, Note_on_c, 2, 50, 113
4, 69732, Note_on_c, 2, 50, 0
4, 69744, Note_on_c, 2, 50, 113
4, 69768, Note_on_c, 2, 50, 0
4, 69792, Note_on_c, 2, 62, 120
4, 69827, Note_on_c, 2, 62, 0
4, 69864, Note_on_c, 2, 50, 113
4, 69876, Note_on_c, 2, 50, 0
4, 69888, Note_on_c, 2, 50, 113
4, 69912, Note_on_c, 2, 50, 0
4, 69936, Note_on_c, 2, 62, 120
4, 69971, Note_on_c, 2, 62, 0
4, 70008, Note_on_c, 2, 50, 113
4, 70020, Note_on_c, 2, 50, 0
4, 70032, Note_on_c, 2, 50, 113
4, 70056, Note_on_c, 2, 50, 0
4, 70080, Note_on_c, 2, 62, 120
4, 70115, Note_on_c, 2, 62, 0
4, 70152, Note_on_c, 2, 50, 113
4, 70164, Note_on_c, 2, 50, 0
4, 70176, Note_on_c, 2, 50, 113
4, 70200, Note_on_c, 2, 50, 0
4, 70224, Note_on_c, 2, 62, 120
4, 70259, Note_on_c, 2, 62, 0
4, 70296, Note_on_c, 2, 50, 113
4, 70308, Note_on_c, 2, 50, 0
4, 70320, Note_on_c, 2, 50, 113
4, 70344, Note_on_c, 2, 50, 0
4, 70368, Note_on_c, 2, 62, 113
4, 70392, Note_on_c, 2, 62, 0
4, 70656, Note_on_c, 2, 67, 118
4, 70691, Note_on_c, 2, 67, 0
4, 70728, Note_on_c, 2, 55, 113
4, 70740, Note_on_c, 2, 55, 0
4, 70752, Note_on_c, 2, 55, 113
4, 70776, Note_on_c, 2, 55, 0
4, 70800, Note_on_c, 2, 55, 118
4, 70824, Note_on_c, 2, 55, 0
4, 70848, Note_on_c, 2, 52, 113
4, 70872, Note_on_c, 2, 52, 0
4, 70896, Note_on_c, 2, 50, 113
4, 70920, Note_on_c, 2, 50, 0
4, 70944, Note_on_c, 2, 48, 113
4, 70944, Note_on_c, 2, 60, 113
4, 70968, Note_on_c, 2, 60, 0
4, 70968, Note_on_c, 2, 48, 0
4, 71232, Note_on_c, 2, 65, 118
4, 71267, Note_on_c, 2, 65, 0
4, 71304, Note_on_c, 2, 53, 113
4, 71316, Note_on_c, 2, 53, 0
4, 71328, Note_on_c, 2, 53, 113
4, 71352, Note_on_c, 2, 53, 0
4, 71376, Note_on_c, 2, 53, 118
4, 71400, Note_on_c, 2, 53, 0
4, 71424, Note_on_c, 2, 50, 113
4, 71448, Note_on_c, 2, 50, 0
4, 71472, Note_on_c, 2, 48, 113
4, 71496, Note_on_c, 2, 48, 0
4, 71520, Control_c, 2, 6, 64
4, 71520, Control_c, 2, 11, 60
4, 71520, Note_on_c, 2, 50, 100
4, 71568, Note_on_c, 2, 50, 0
4, 71568, Note_on_c, 2, 52, 100
4, 71616, Note_on_c, 2, 52, 0
4, 71616, Note_on_c, 2, 54, 100
4, 71664, Note_on_c, 2, 54, 0
4, 71664, Note_on_c, 2, 55, 100
4, 71808, Control_c, 2, 11, 60
4, 71823, Control_c, 2, 11, 61
4, 71837, Control_c, 2, 11, 62
4, 71852, Control_c, 2, 11, 63
4, 71856, Note_on_c, 2, 55, 0
4, 71856, Note_on_c, 2, 53, 100
4, 71866, Control_c, 2, 11, 64
4, 71880, Control_c, 2, 11, 65
4, 71895, Control_c, 2, 11, 66
4, 71904, Note_on_c, 2, 53, 0
4, 71904, Note_on_c, 2, 51, 100
4, 71909, Control_c, 2, 11, 67
4, 71923, Control_c, 2, 11, 68
4, 71938, Control_c, 2, 11, 69
4, 71952, Note_on_c, 2, 51, 0
4, 71952, Note_on_c, 2, 67, 100
4, 71952, Control_c, 2, 11, 70
4, 71967, Control_c, 2, 11, 71
4, 71981, Control_c, 2, 11, 72
4, 71995, Control_c, 2, 11, 73
4, 72000, Note_on_c, 2, 67, 0
4, 72000, Note_on_c, 2, 65, 100
4, 72010, Control_c, 2, 11, 74
4, 72024, Control_c, 2, 11, 75
4, 72038, Control_c, 2, 11, 76
4, 72048, Note_on_c, 2, 65, 0
4, 72048, Note_on_c, 2, 63, 100
4, 72053, Control_c, 2, 11, 77
4, 72067, Control_c, 2, 11, 78
4, 72081, Control_c, 2, 11, 79
4, 72096, Note_on_c, 2, 63, 0
4, 72096, Note_on_c, 2, 70, 100
4, 72096, Control_c, 2, 11, 80
4, 72110, Control_c, 2, 11, 81
4, 72125, Control_c, 2, 11, 82
4, 72139, Control_c, 2, 11, 83
4, 72144, Note_on_c, 2, 70, 0
4, 72144, Note_on_c, 2, 69, 100
4, 72153, Control_c, 2, 11, 84
4, 72168, Control_c, 2, 11, 85
4, 72182, Control_c, 2, 11, 86
4, 72192, Note_on_c, 2, 69, 0
4, 72192, Note_on_c, 2, 70, 100
4, 72196, Control_c, 2, 11, 87
4, 72211, Control_c, 2, 11, 88
4, 72225, Control_c, 2, 11, 89
4, 72239, Control_c, 2, 11, 90
4, 72240, Control_c, 2, 11, 90
4, 72245, Control_c, 2, 11, 89
4, 72250, Control_c, 2, 11, 88
4, 72255, Control_c, 2, 11, 87
4, 72260, Control_c, 2, 11, 86
4, 72264, Control_c, 2, 11, 85
4, 72269, Control_c, 2, 11, 84
4, 72274, Control_c, 2, 11, 83
4, 72279, Control_c, 2, 11, 82
4, 72283, Control_c, 2, 11, 81
4, 72288, Note_on_c, 2, 70, 0
4, 72288, Note_on_c, 2, 69, 100
4, 72288, Control_c, 2, 11, 80
4, 72293, Control_c, 2, 11, 79
4, 72298, Control_c, 2, 11, 78
4, 72302, Control_c, 2, 11, 77
4, 72307, Control_c, 2, 11, 76
4, 72312, Control_c, 2, 11, 75
4, 72317, Control_c, 2, 11, 74
4, 72322, Control_c, 2, 11, 73
4, 72326, Control_c, 2, 11, 72
4, 72331, Control_c, 2, 11, 71
4, 72336, Note_on_c, 2, 69, 0
4, 72336, Note_on_c, 2, 67, 100
4, 72336, Control_c, 2, 11, 70
4, 72341, Control_c, 2, 11, 69
4, 72345, Control_c, 2, 11, 68
4, 72350, Control_c, 2, 11, 67
4, 72355, Control_c, 2, 11, 66
4, 72360, Control_c, 2, 11, 65
4, 72364, Control_c, 2, 11, 64
4, 72369, Control_c, 2, 11, 63
4, 72374, Control_c, 2, 11, 62
4, 72379, Control_c, 2, 11, 61
4, 72383, Control_c, 2, 11, 60
4, 72384, Note_on_c, 2, 67, 0
4, 72960, Control_c, 2, 6, 14
4, 73248, Control_c, 2, 11, 120
4, 73248, Note_on_c, 2, 69, 105
4, 73272, Note_on_c, 2, 69, 0
4, 73296, Note_on_c, 2, 70, 100
4, 73320, Note_on_c, 2, 70, 0
4, 73344, Note_on_c, 2, 70, 100
4, 73368, Note_on_c, 2, 70, 0
4, 73392, Note_on_c, 2, 71, 105
4, 73416, Note_on_c, 2, 71, 0
4, 73440, Note_on_c, 2, 69, 100
4, 73464, Note_on_c, 2, 69, 0
4, 73488, Note_on_c, 2, 62, 100
4, 73488, Note_on_c, 2, 74, 100
4, 73512, Note_on_c, 2, 74, 0
4, 73512, Note_on_c, 2, 62, 0
4, 73536, Note_on_c, 2, 62, 105
4, 73536, Note_on_c, 2, 74, 105
4, 73560, Note_on_c, 2, 74, 0
4, 73560, Note_on_c, 2, 62, 0
4, 73824, Note_on_c, 2, 65, 105
4, 73848, Note_on_c, 2, 65, 0
4, 73872, Note_on_c, 2, 62, 100
4, 73896, Note_on_c, 2, 62, 0
4, 73920, Note_on_c, 2, 67, 100
4, 73944, Note_on_c, 2, 67, 0
4, 73968, Note_on_c, 2, 64, 105
4, 73992, Note_on_c, 2, 64, 0
4, 74016, Note_on_c, 2, 61, 100
4, 74040, Note_on_c, 2, 61, 0
4, 74064, Note_on_c, 2, 69, 100
4, 74088, Note_on_c, 2, 69, 0
4, 74112, Note_on_c, 2, 62, 100
4, 74112, Note_on_c, 2, 74, 100
4, 74136, Note_on_c, 2, 74, 0
4, 74136, Note_on_c, 2, 62, 0
4, 74256, Note_on_c, 2, 69, 110
4, 74291, Note_on_c, 2, 69, 0
4, 74328, Note_on_c, 2, 57, 100
4, 74340, Note_on_c, 2, 57, 0
4, 74352, Note_on_c, 2, 57, 100
4, 74376, Note_on_c, 2, 57, 0
4, 74400, Note_on_c, 2, 50, 105
4, 74424, Note_on_c, 2, 50, 0
4, 74544, Note_on_c, 2, 69, 110
4, 74579, Note_on_c, 2, 69, 0
4, 74616, Note_on_c, 2, 57, 100
4, 74628, Note_on_c, 2, 57, 0
4, 74640, Note_on_c, 2, 57, 100
4, 74664, Note_on_c, 2, 57, 0
4, 74682, Control_c, 2, 6, 64
4, 74688, Note_on_c, 2, 67, 64
4, 74736, Note_on_c, 2, 67, 0
4, 74736, Note_on_c, 2, 64, 61
4, 74784, Note_on_c, 2, 64, 0
4, 74784, Note_on_c, 2, 61, 58
4, 74832, Note_on_c, 2, 61, 0
4, 74832, Note_on_c, 2, 55, 52
4, 74880, Note_on_c, 2, 55, 0
4, 74880, Note_on_c, 2, 52, 49
4, 74928, Note_on_c, 2, 52, 0
4, 74928, Note_on_c, 2, 49, 46
4, 74976, Note_on_c, 2, 49, 0
4, 74976, Note_on_c, 2, 52, 40
4, 75024, Note_on_c, 2, 52, 0
4, 75024, Note_on_c, 2, 55, 46
4, 75072, Note_on_c, 2, 55, 0
4, 75072, Note_on_c, 2, 61, 50
4, 75168, Note_on_c, 2, 61, 0
4, 75168, Note_on_c, 2, 64, 58
4, 75216, Note_on_c, 2, 64, 0
4, 75216, Note_on_c, 2, 67, 61
4, 75264, Note_on_c, 2, 67, 0
4, 75264, Control_c, 2, 6, 14
4, 75264, Note_on_c, 2, 65, 60
4, 75299, Note_on_c, 2, 65, 0
4, 75336, Note_on_c, 2, 53, 50
4, 75348, Note_on_c, 2, 53, 0
4, 75360, Note_on_c, 2, 53, 50
4, 75384, Note_on_c, 2, 53, 0
4, 75408, Note_on_c, 2, 53, 55
4, 75432, Note_on_c, 2, 53, 0
4, 75552, Note_on_c, 2, 65, 60
4, 75587, Note_on_c, 2, 65, 0
4, 75624, Note_on_c, 2, 53, 50
4, 75636, Note_on_c, 2, 53, 0
4, 75648, Note_on_c, 2, 53, 50
4, 75672, Note_on_c, 2, 53, 0
4, 75696, Note_on_c, 2, 53, 55
4, 75720, Note_on_c, 2, 53, 0
4, 76416, Note_on_c, 2, 65, 60
4, 76451, Note_on_c, 2, 65, 0
4, 76488, Note_on_c, 2, 53, 50
4, 76500, Note_on_c, 2, 53, 0
4, 76512, Note_on_c, 2, 53, 50
4, 76536, Note_on_c, 2, 53, 0
4, 76560, Note_on_c, 2, 53, 55
4, 76584, Note_on_c, 2, 53, 0
4, 76704, Note_on_c, 2, 53, 60
4, 76739, Note_on_c, 2, 53, 0
4, 76776, Note_on_c, 2, 53, 50
4, 76788, Note_on_c, 2, 53, 0
4, 76800, Note_on_c, 2, 53, 50
4, 76824, Note_on_c, 2, 53, 0
4, 76848, Note_on_c, 2, 53, 55
4, 76872, Note_on_c, 2, 53, 0
4, 76992, Note_on_c, 2, 53, 60
4, 77027, Note_on_c, 2, 53, 0
4, 77064, Note_on_c, 2, 53, 50
4, 77076, Note_on_c, 2, 53, 0
4, 77088, Note_on_c, 2, 53, 50
4, 77112, Note_on_c, 2, 53, 0
4, 77136, Note_on_c, 2, 53, 55
4, 77160, Note_on_c, 2, 53, 0
4, 77280, Note_on_c, 2, 65, 60
4, 77315, Note_on_c, 2, 65, 0
4, 77352, Note_on_c, 2, 53, 50
4, 77364, Note_on_c, 2, 53, 0
4, 77376, Note_on_c, 2, 53, 50
4, 77400, Note_on_c, 2, 53, 0
4, 77424, Note_on_c, 2, 53, 55
4, 77448, Note_on_c, 2, 53, 0
4, 78144, Note_on_c, 2, 43, 70
4, 78179, Note_on_c, 2, 43, 0
4, 78216, Note_on_c, 2, 55, 61
4, 78228, Note_on_c, 2, 55, 0
4, 78240, Note_on_c, 2, 55, 61
4, 78264, Note_on_c, 2, 55, 0
4, 78288, Note_on_c, 2, 55, 65
4, 78312, Note_on_c, 2, 55, 0
4, 78432, Note_on_c, 2, 60, 75
4, 78467, Note_on_c, 2, 60, 0
4, 78504, Note_on_c, 2, 48, 67
4, 78516, Note_on_c, 2, 48, 0
4, 78528, Note_on_c, 2, 48, 67
4, 78552, Note_on_c, 2, 48, 0
4, 78576, Note_on_c, 2, 56, 71
4, 78600, Note_on_c, 2, 56, 0
4, 78720, Note_on_c, 2, 53, 80
4, 78755, Note_on_c, 2, 53, 0
4, 78792, Note_on_c, 2, 65, 72
4, 78804, Note_on_c, 2, 65, 0
4, 78816, Note_on_c, 2, 65, 73
4, 78840, Note_on_c, 2, 65, 0
4, 78864, Note_on_c, 2, 61, 74
4, 78888, Note_on_c, 2, 61, 0
4, 79008, Note_on_c, 2, 58, 86
4, 79043, Note_on_c, 2, 58, 0
4, 79080, Note_on_c, 2, 61, 78
4, 79092, Note_on_c, 2, 61, 0
4, 79104, Note_on_c, 2, 61, 78
4, 79128, Note_on_c, 2, 61, 0
4, 79152, Note_on_c, 2, 63, 79
4, 79176, Note_on_c, 2, 63, 0
4, 79296, Note_on_c, 2, 51, 92
4, 79331, Note_on_c, 2, 51, 0
4, 79368, Note_on_c, 2, 63, 83
4, 79380, Note_on_c, 2, 63, 0
4, 79392, Note_on_c, 2, 63, 84
4, 79416, Note_on_c, 2, 63, 0
4, 79440, Note_on_c, 2, 59, 85
4, 79464, Note_on_c, 2, 59, 0
4, 79584, Note_on_c, 2, 59, 98
4, 79619, Note_on_c, 2, 59, 0
4, 79656, Note_on_c, 2, 64, 89
4, 79668, Note_on_c, 2, 64, 0
4, 79680, Note_on_c, 2, 64, 90
4, 79704, Note_on_c, 2, 64, 0
4, 79728, Note_on_c, 2, 64, 90
4, 79752, Note_on_c, 2, 64, 0
4, 79872, Note_on_c, 2, 57, 110
4, 79907, Note_on_c, 2, 57, 0
4, 79944, Note_on_c, 2, 69, 100
4, 79956, Note_on_c, 2, 69, 0
4, 79968, Note_on_c, 2, 69, 100
4, 79992, Note_on_c, 2, 69, 0
4, 80160, Note_on_c, 2, 58, 119
4, 80195, Note_on_c, 2, 58, 0
4, 80232, Note_on_c, 2, 70, 113
4, 80244, Note_on_c, 2, 70, 0
4, 80256, Note_on_c, 2, 70, 113
4, 80280, Note_on_c, 2, 70, 0
4, 80448, Note_on_c, 2, 59, 120
4, 80483, Note_on_c, 2, 59, 0
4, 80520, Note_on_c, 2, 71, 113
4, 80532, Note_on_c, 2, 71, 0
4, 80544, Note_on_c, 2, 71, 113
4, 80568, Note_on_c, 2, 71, 0
4, 80784, Program_c, 2, 45
4, 80787, Control_c, 2, 7, 105
4, 80928, Note_on_c, 2, 59, 60
4, 80952, Note_on_c, 2, 59, 0
4, 81072, Note_on_c, 2, 59, 57
4, 81096, Note_on_c, 2, 59, 0
4, 81360, Note_on_c, 2, 59, 60
4, 81384, Note_on_c, 2, 59, 0
4, 81504, Note_on_c, 2, 59, 57
4, 81528, Note_on_c, 2, 59, 0
4, 81792, Note_on_c, 2, 59, 60
4, 81816, Note_on_c, 2, 59, 0
4, 81936, Note_on_c, 2, 59, 57
4, 81960, Note_on_c, 2, 59, 0
4, 82224, Note_on_c, 2, 64, 60
4, 82248, Note_on_c, 2, 64, 0
4, 82368, Note_on_c, 2, 52, 57
4, 82392, Note_on_c, 2, 52, 0
4, 82656, Note_on_c, 2, 57, 60
4, 82680, Note_on_c, 2, 57, 0
4, 82800, Note_on_c, 2, 52, 57
4, 82824, Note_on_c, 2, 52, 0
4, 83088, Note_on_c, 2, 57, 60
4, 83112, Note_on_c, 2, 57, 0
4, 83232, Note_on_c, 2, 52, 57
4, 83256, Note_on_c, 2, 52, 0
4, 83520, Note_on_c, 2, 65, 60
4, 83544, Note_on_c, 2, 65, 0
4, 83664, Note_on_c, 2, 53, 57
4, 83688, Note_on_c, 2, 53, 0
4, 83952, Note_on_c, 2, 65, 60
4, 83976, Note_on_c, 2, 65, 0
4, 84096, Note_on_c, 2, 53, 57
4, 84120, Note_on_c, 2, 53, 0
4, 84384, Note_on_c, 2, 65, 60
4, 84408, Note_on_c, 2, 65, 0
4, 84528, Note_on_c, 2, 53, 57
4, 84552, Note_on_c, 2, 53, 0
4, 84816, Note_on_c, 2, 65, 60
4, 84840, Note_on_c, 2, 65, 0
4, 84960, Note_on_c, 2, 53, 57
4, 84984, Note_on_c, 2, 53, 0
4, 85104, Note_on_c, 2, 65, 60
4, 85128, Note_on_c, 2, 65, 0
4, 85248, Note_on_c, 2, 53, 57
4, 85272, Note_on_c, 2, 53, 0
4, 85392, Note_on_c, 2, 65, 60
4, 85416, Note_on_c, 2, 65, 0
4, 85536, Program_c, 2, 48
4, 85536, Control_c, 2, 7, 123
4, 85536, Note_on_c, 2, 58, 55
4, 85536, Note_on_c, 2, 67, 55
4, 85560, Note_on_c, 2, 67, 0
4, 85560, Note_on_c, 2, 58, 0
4, 85584, Note_on_c, 2, 57, 50
4, 85584, Note_on_c, 2, 65, 50
4, 85608, Note_on_c, 2, 65, 0
4, 85608, Note_on_c, 2, 57, 0
4, 85632, Note_on_c, 2, 55, 50
4, 85632, Note_on_c, 2, 64, 50
4, 85656, Note_on_c, 2, 64, 0
4, 85656, Note_on_c, 2, 55, 0
4, 85680, Note_on_c, 2, 55, 55
4, 85680, Note_on_c, 2, 64, 55
4, 85704, Note_on_c, 2, 64, 0
4, 85704, Note_on_c, 2, 55, 0
4, 85728, Note_on_c, 2, 57, 50
4, 85728, Note_on_c, 2, 65, 50
4, 85752, Note_on_c, 2, 65, 0
4, 85752, Note_on_c, 2, 57, 0
4, 85776, Note_on_c, 2, 58, 50
4, 85776, Note_on_c, 2, 67, 50
4, 85800, Note_on_c, 2, 67, 0
4, 85800, Note_on_c, 2, 58, 0
4, 85824, Note_on_c, 2, 58, 55
4, 85824, Note_on_c, 2, 67, 55
4, 85848, Note_on_c, 2, 67, 0
4, 85848, Note_on_c, 2, 58, 0
4, 85872, Note_on_c, 2, 57, 50
4, 85872, Note_on_c, 2, 65, 50
4, 85896, Note_on_c, 2, 65, 0
4, 85896, Note_on_c, 2, 57, 0
4, 85920, Note_on_c, 2, 58, 50
4, 85920, Note_on_c, 2, 67, 50
4, 85944, Note_on_c, 2, 67, 0
4, 85944, Note_on_c, 2, 58, 0
4, 85968, Program_c, 2, 45
4, 85968, Control_c, 2, 7, 105
4, 85968, Note_on_c, 2, 62, 50
4, 85992, Note_on_c, 2, 62, 0
4, 86112, Note_on_c, 2, 50, 47
4, 86136, Note_on_c, 2, 50, 0
4, 86256, Note_on_c, 2, 62, 50
4, 86280, Note_on_c, 2, 62, 0
4, 86400, Program_c, 2, 48
4, 86400, Control_c, 2, 7, 123
4, 86400, Note_on_c, 2, 55, 55
4, 86400, Note_on_c, 2, 64, 55
4, 86424, Note_on_c, 2, 64, 0
4, 86424, Note_on_c, 2, 55, 0
4, 86448, Note_on_c, 2, 53, 50
4, 86448, Note_on_c, 2, 62, 50
4, 86472, Note_on_c, 2, 62, 0
4, 86472, Note_on_c, 2, 53, 0
4, 86496, Note_on_c, 2, 52, 50
4, 86496, Note_on_c, 2, 61, 50
4, 86520, Note_on_c, 2, 61, 0
4, 86520, Note_on_c, 2, 52, 0
4, 86544, Note_on_c, 2, 52, 55
4, 86544, Note_on_c, 2, 61, 55
4, 86568, Note_on_c, 2, 61, 0
4, 86568, Note_on_c, 2, 52, 0
4, 86592, Note_on_c, 2, 53, 50
4, 86592, Note_on_c, 2, 62, 50
4, 86616, Note_on_c, 2, 62, 0
4, 86616, Note_on_c, 2, 53, 0
4, 86640, Note_on_c, 2, 55, 50
4, 86640, Note_on_c, 2, 64, 50
4, 86664, Note_on_c, 2, 64, 0
4, 86664, Note_on_c, 2, 55, 0
4, 86688, Note_on_c, 2, 55, 55
4, 86688, Note_on_c, 2, 64, 55
4, 86712, Note_on_c, 2, 64, 0
4, 86712, Note_on_c, 2, 55, 0
4, 86736, Note_on_c, 2, 53, 50
4, 86736, Note_on_c, 2, 62, 50
4, 86760, Note_on_c, 2, 62, 0
4, 86760, Note_on_c, 2, 53, 0
4, 86784, Note_on_c, 2, 55, 50
4, 86784, Note_on_c, 2, 64, 50
4, 86808, Note_on_c, 2, 64, 0
4, 86808, Note_on_c, 2, 55, 0
4, 86832, Program_c, 2, 45
4, 86832, Control_c, 2, 7, 105
4, 86832, Note_on_c, 2, 69, 50
4, 86856, Note_on_c, 2, 69, 0
4, 86976, Note_on_c, 2, 57, 47
4, 87000, Note_on_c, 2, 57, 0
4, 87120, Note_on_c, 2, 69, 50
4, 87144, Note_on_c, 2, 69, 0
4, 87264, Program_c, 2, 48
4, 87264, Control_c, 2, 7, 123
4, 87264, Note_on_c, 2, 55, 55
4, 87264, Note_on_c, 2, 64, 55
4, 87288, Note_on_c, 2, 64, 0
4, 87288, Note_on_c, 2, 55, 0
4, 87312, Note_on_c, 2, 53, 50
4, 87312, Note_on_c, 2, 62, 50
4, 87336, Note_on_c, 2, 62, 0
4, 87336, Note_on_c, 2, 53, 0
4, 87360, Note_on_c, 2, 52, 50
4, 87360, Note_on_c, 2, 61, 50
4, 87384, Note_on_c, 2, 61, 0
4, 87384, Note_on_c, 2, 52, 0
4, 87408, Note_on_c, 2, 52, 55
4, 87408, Note_on_c, 2, 61, 55
4, 87432, Note_on_c, 2, 61, 0
4, 87432, Note_on_c, 2, 52, 0
4, 87456, Note_on_c, 2, 53, 50
4, 87456, Note_on_c, 2, 62, 50
4, 87480, Note_on_c, 2, 62, 0
4, 87480, Note_on_c, 2, 53, 0
4, 87504, Note_on_c, 2, 55, 50
4, 87504, Note_on_c, 2, 64, 50
4, 87528, Note_on_c, 2, 64, 0
4, 87528, Note_on_c, 2, 55, 0
4, 87552, Note_on_c, 2, 55, 55
4, 87552, Note_on_c, 2, 64, 55
4, 87576, Note_on_c, 2, 64, 0
4, 87576, Note_on_c, 2, 55, 0
4, 87600, Note_on_c, 2, 53, 50
4, 87600, Note_on_c, 2, 62, 50
4, 87624, Note_on_c, 2, 62, 0
4, 87624, Note_on_c, 2, 53, 0
4, 87648, Note_on_c, 2, 55, 50
4, 87648, Note_on_c, 2, 64, 50
4, 87672, Note_on_c, 2, 64, 0
4, 87672, Note_on_c, 2, 55, 0
4, 87696, Note_on_c, 2, 58, 55
4, 87720, Note_on_c, 2, 58, 0
4, 87744, Note_on_c, 2, 57, 50
4, 87768, Note_on_c, 2, 57, 0
4, 87792, Note_on_c, 2, 55, 50
4, 87816, Note_on_c, 2, 55, 0
4, 87840, Note_on_c, 2, 53, 55
4, 87864, Note_on_c, 2, 53, 0
4, 87984, Program_c, 2, 45
4, 87984, Control_c, 2, 7, 105
4, 87984, Note_on_c, 2, 57, 50
4, 88008, Note_on_c, 2, 57, 0
4, 88272, Note_on_c, 2, 57, 50
4, 88296, Note_on_c, 2, 57, 0
4, 88416, Note_on_c, 2, 57, 47
4, 88440, Note_on_c, 2, 57, 0
4, 88704, Note_on_c, 2, 57, 50
4, 88728, Note_on_c, 2, 57, 0
4, 88848, Note_on_c, 2, 57, 47
4, 88872, Note_on_c, 2, 57, 0
4, 89280, Program_c, 2, 48
4, 89280, Control_c, 2, 7, 123
4, 89280, Note_on_c, 2, 69, 60
4, 89315, Note_on_c, 2, 69, 0
4, 89352, Note_on_c, 2, 57, 50
4, 89364, Note_on_c, 2, 57, 0
4, 89376, Note_on_c, 2, 57, 50
4, 89400, Note_on_c, 2, 57, 0
4, 89424, Note_on_c, 2, 62, 55
4, 89448, Note_on_c, 2, 62, 0
4, 89472, Note_on_c, 2, 64, 50
4, 89496, Note_on_c, 2, 64, 0
4, 89520, Note_on_c, 2, 65, 50
4, 89544, Note_on_c, 2, 65, 0
4, 89568, Note_on_c, 2, 62, 55
4, 89592, Note_on_c, 2, 62, 0
4, 89616, Note_on_c, 2, 63, 50
4, 89640, Note_on_c, 2, 63, 0
4, 89664, Note_on_c, 2, 65, 50
4, 89688, Note_on_c, 2, 65, 0
4, 89712, Note_on_c, 2, 63, 55
4, 89736, Note_on_c, 2, 63, 0
4, 89760, Note_on_c, 2, 62, 50
4, 89784, Note_on_c, 2, 62, 0
4, 89808, Note_on_c, 2, 60, 50
4, 89832, Note_on_c, 2, 60, 0
4, 89856, Note_on_c, 2, 62, 55
4, 89880, Note_on_c, 2, 62, 0
4, 89904, Note_on_c, 2, 60, 50
4, 89928, Note_on_c, 2, 60, 0
4, 89952, Note_on_c, 2, 59, 50
4, 89976, Note_on_c, 2, 59, 0
4, 90000, Note_on_c, 2, 60, 55
4, 90024, Note_on_c, 2, 60, 0
4, 90048, Note_on_c, 2, 65, 50
4, 90072, Note_on_c, 2, 65, 0
4, 90096, Note_on_c, 2, 67, 50
4, 90120, Note_on_c, 2, 67, 0
4, 90144, Note_on_c, 2, 65, 55
4, 90168, Note_on_c, 2, 65, 0
4, 90192, Note_on_c, 2, 67, 50
4, 90216, Note_on_c, 2, 67, 0
4, 90240, Note_on_c, 2, 68, 50
4, 90264, Note_on_c, 2, 68, 0
4, 90288, Note_on_c, 2, 67, 55
4, 90312, Note_on_c, 2, 67, 0
4, 90336, Note_on_c, 2, 65, 50
4, 90360, Note_on_c, 2, 65, 0
4, 90384, Note_on_c, 2, 63, 50
4, 90408, Note_on_c, 2, 63, 0
4, 90432, Note_on_c, 2, 70, 55
4, 90467, Note_on_c, 2, 70, 0
4, 90504, Note_on_c, 2, 58, 50
4, 90516, Note_on_c, 2, 58, 0
4, 90528, Note_on_c, 2, 58, 50
4, 90552, Note_on_c, 2, 58, 0
4, 90576, Note_on_c, 2, 63, 55
4, 90600, Note_on_c, 2, 63, 0
4, 90624, Note_on_c, 2, 65, 50
4, 90648, Note_on_c, 2, 65, 0
4, 90672, Note_on_c, 2, 67, 50
4, 90696, Note_on_c, 2, 67, 0
4, 90720, Note_on_c, 2, 65, 55
4, 90744, Note_on_c, 2, 65, 0
4, 90768, Note_on_c, 2, 63, 50
4, 90792, Note_on_c, 2, 63, 0
4, 90816, Note_on_c, 2, 62, 50
4, 90840, Note_on_c, 2, 62, 0
4, 90864, Note_on_c, 2, 58, 55
4, 90888, Note_on_c, 2, 58, 0
4, 90912, Note_on_c, 2, 62, 50
4, 90936, Note_on_c, 2, 62, 0
4, 90960, Note_on_c, 2, 63, 50
4, 90984, Note_on_c, 2, 63, 0
4, 91008, Note_on_c, 2, 65, 50
4, 91583, Note_on_c, 2, 65, 0
4, 91584, Note_on_c, 2, 51, 50
4, 91608, Note_on_c, 2, 51, 0
4, 91632, Note_on_c, 2, 53, 50
4, 91656, Note_on_c, 2, 53, 0
4, 91680, Note_on_c, 2, 55, 50
4, 91704, Note_on_c, 2, 55, 0
4, 91728, Note_on_c, 2, 55, 50
4, 91752, Note_on_c, 2, 55, 0
4, 91776, Note_on_c, 2, 56, 50
4, 91800, Note_on_c, 2, 56, 0
4, 91824, Note_on_c, 2, 58, 50
4, 91848, Note_on_c, 2, 58, 0
4, 91872, Note_on_c, 2, 63, 50
4, 91896, Note_on_c, 2, 63, 0
4, 91920, Note_on_c, 2, 65, 50
4, 91944, Note_on_c, 2, 65, 0
4, 91968, Note_on_c, 2, 67, 50
4, 91992, Note_on_c, 2, 67, 0
4, 92016, Note_on_c, 2, 67, 50
4, 92040, Note_on_c, 2, 67, 0
4, 92064, Note_on_c, 2, 68, 50
4, 92088, Note_on_c, 2, 68, 0
4, 92112, Note_on_c, 2, 70, 50
4, 92136, Note_on_c, 2, 70, 0
4, 92160, Control_c, 2, 6, 64
4, 92160, Control_c, 2, 11, 50
4, 92160, Note_on_c, 2, 74, 120
4, 92177, Control_c, 2, 11, 51
4, 92193, Control_c, 2, 11, 52
4, 92210, Control_c, 2, 11, 53
4, 92226, Control_c, 2, 11, 54
4, 92243, Control_c, 2, 11, 55
4, 92259, Control_c, 2, 11, 56
4, 92276, Control_c, 2, 11, 57
4, 92292, Control_c, 2, 11, 58
4, 92308, Control_c, 2, 11, 59
4, 92325, Control_c, 2, 11, 60
4, 92341, Control_c, 2, 11, 61
4, 92358, Control_c, 2, 11, 62
4, 92374, Control_c, 2, 11, 63
4, 92391, Control_c, 2, 11, 64
4, 92407, Control_c, 2, 11, 65
4, 92424, Control_c, 2, 11, 66
4, 92440, Control_c, 2, 11, 67
4, 92456, Control_c, 2, 11, 68
4, 92473, Control_c, 2, 11, 69
4, 92489, Control_c, 2, 11, 70
4, 92506, Control_c, 2, 11, 71
4, 92522, Control_c, 2, 11, 72
4, 92539, Control_c, 2, 11, 73
4, 92555, Control_c, 2, 11, 74
4, 92572, Control_c, 2, 11, 75
4, 92588, Control_c, 2, 11, 76
4, 92604, Control_c, 2, 11, 77
4, 92621, Control_c, 2, 11, 78
4, 92637, Control_c, 2, 11, 79
4, 92654, Control_c, 2, 11, 80
4, 92670, Control_c, 2, 11, 81
4, 92687, Control_c, 2, 11, 82
4, 92703, Control_c, 2, 11, 83
4, 92720, Control_c, 2, 11, 84
4, 92735, Note_on_c, 2, 74, 0
4, 92736, Note_on_c, 2, 74, 120
4, 92736, Control_c, 2, 11, 85
4, 92752, Control_c, 2, 11, 86
4, 92769, Control_c, 2, 11, 87
4, 92785, Control_c, 2, 11, 88
4, 92802, Control_c, 2, 11, 89
4, 92818, Control_c, 2, 11, 90
4, 92835, Control_c, 2, 11, 91
4, 92851, Control_c, 2, 11, 92
4, 92868, Control_c, 2, 11, 93
4, 92884, Control_c, 2, 11, 94
4, 92900, Control_c, 2, 11, 95
4, 92917, Control_c, 2, 11, 96
4, 92933, Control_c, 2, 11, 97
4, 92950, Control_c, 2, 11, 98
4, 92966, Control_c, 2, 11, 99
4, 92983, Control_c, 2, 11, 100
4, 92999, Control_c, 2, 11, 101
4, 93016, Control_c, 2, 11, 102
4, 93032, Control_c, 2, 11, 103
4, 93048, Control_c, 2, 11, 104
4, 93065, Control_c, 2, 11, 105
4, 93081, Control_c, 2, 11, 106
4, 93098, Control_c, 2, 11, 107
4, 93114, Control_c, 2, 11, 108
4, 93131, Control_c, 2, 11, 109
4, 93147, Control_c, 2, 11, 110
4, 93164, Control_c, 2, 11, 111
4, 93180, Control_c, 2, 11, 112
4, 93196, Control_c, 2, 11, 113
4, 93213, Control_c, 2, 11, 114
4, 93229, Control_c, 2, 11, 115
4, 93246, Control_c, 2, 11, 116
4, 93262, Control_c, 2, 11, 117
4, 93279, Control_c, 2, 11, 118
4, 93295, Control_c, 2, 11, 119
4, 93311, Note_on_c, 2, 74, 0
4, 93311, Control_c, 2, 11, 120
4, 93312, Control_c, 2, 6, 14
4, 93312, Control_c, 2, 11, 120
4, 93312, Note_on_c, 2, 57, 110
4, 93314, Note_on_c, 2, 65, 115
4, 93316, Note_on_c, 2, 74, 120
4, 93342, Note_on_c, 2, 57, 0
4, 93344, Note_on_c, 2, 65, 0
4, 93346, Note_on_c, 2, 74, 0
4, 93600, Note_on_c, 2, 62, 120
4, 93600, Note_on_c, 2, 65, 120
4, 93630, Note_on_c, 2, 65, 0
4, 93630, Note_on_c, 2, 62, 0
4, 93888, Note_on_c, 2, 57, 115
4, 93890, Note_on_c, 2, 65, 120
4, 93892, Note_on_c, 2, 74, 125
4, 93918, Note_on_c, 2, 57, 0
4, 93920, Note_on_c, 2, 65, 0
4, 93922, Note_on_c, 2, 74, 0
4, 93960, Note_on_c, 2, 65, 115
4, 93960, Note_on_c, 2, 69, 115
4, 93972, Note_on_c, 2, 69, 0
4, 93972, Note_on_c, 2, 65, 0
4, 93984, Note_on_c, 2, 65, 115
4, 93984, Note_on_c, 2, 69, 115
4, 94008, Note_on_c, 2, 69, 0
4, 94008, Note_on_c, 2, 65, 0
4, 94032, Note_on_c, 2, 57, 115
4, 94034, Note_on_c, 2, 65, 120
4, 94036, Note_on_c, 2, 74, 125
4, 94062, Note_on_c, 2, 57, 0
4, 94064, Note_on_c, 2, 65, 0
4, 94066, Note_on_c, 2, 74, 0
4, 94104, Note_on_c, 2, 65, 115
4, 94104, Note_on_c, 2, 69, 115
4, 94116, Note_on_c, 2, 69, 0
4, 94116, Note_on_c, 2, 65, 0
4, 94128, Note_on_c, 2, 65, 115
4, 94128, Note_on_c, 2, 69, 115
4, 94152, Note_on_c, 2, 69, 0
4, 94152, Note_on_c, 2, 65, 0
4, 94176, Note_on_c, 2, 57, 115
4, 94178, Note_on_c, 2, 65, 120
4, 94180, Note_on_c, 2, 74, 125
4, 94206, Note_on_c, 2, 57, 0
4, 94208, Note_on_c, 2, 65, 0
4, 94210, Note_on_c, 2, 74, 0
4, 94248, Note_on_c, 2, 65, 115
4, 94248, Note_on_c, 2, 69, 115
4, 94260, Note_on_c, 2, 69, 0
4, 94260, Note_on_c, 2, 65, 0
4, 94272, Note_on_c, 2, 65, 115
4, 94272, Note_on_c, 2, 69, 115
4, 94296, Note_on_c, 2, 69, 0
4, 94296, Note_on_c, 2, 65, 0
4, 94320, Note_on_c, 2, 57, 115
4, 94322, Note_on_c, 2, 65, 120
4, 94324, Note_on_c, 2, 74, 125
4, 94350, Note_on_c, 2, 57, 0
4, 94352, Note_on_c, 2, 65, 0
4, 94354, Note_on_c, 2, 74, 0
4, 94392, Note_on_c, 2, 65, 115
4, 94392, Note_on_c, 2, 69, 115
4, 94404, Note_on_c, 2, 69, 0
4, 94404, Note_on_c, 2, 65, 0
4, 94416, Note_on_c, 2, 65, 115
4, 94416, Note_on_c, 2, 69, 115
4, 94440, Note_on_c, 2, 69, 0
4, 94440, Note_on_c, 2, 65, 0
4, 94464, Note_on_c, 2, 57, 125
4, 94464, Note_on_c, 2, 69, 125
4, 94499, Note_on_c, 2, 69, 0
4, 94499, Note_on_c, 2, 57, 0
4, 94536, Note_on_c, 2, 57, 115
4, 94548, Note_on_c, 2, 57, 0
4, 94560, Note_on_c, 2, 57, 115
4, 94584, Note_on_c, 2, 57, 0
4, 94608, Note_on_c, 2, 62, 120
4, 94632, Note_on_c, 2, 62, 0
4, 94656, Note_on_c, 2, 64, 115
4, 94680, Note_on_c, 2, 64, 0
4, 94704, Note_on_c, 2, 65, 115
4, 94728, Note_on_c, 2, 65, 0
4, 94752, Note_on_c, 2, 64, 120
4, 94776, Note_on_c, 2, 64, 0
4, 94800, Note_on_c, 2, 65, 115
4, 94824, Note_on_c, 2, 65, 0
4, 94848, Note_on_c, 2, 67, 115
4, 94872, Note_on_c, 2, 67, 0
4, 94896, Note_on_c, 2, 65, 120
4, 94920, Note_on_c, 2, 65, 0
4, 94944, Note_on_c, 2, 64, 115
4, 94968, Note_on_c, 2, 64, 0
4, 94992, Note_on_c, 2, 62, 115
4, 95016, Note_on_c, 2, 62, 0
4, 95040, Note_on_c, 2, 58, 120
4, 95064, Note_on_c, 2, 58, 0
4, 95088, Note_on_c, 2, 57, 115
4, 95112, Note_on_c, 2, 57, 0
4, 95136, Note_on_c, 2, 55, 115
4, 95160, Note_on_c, 2, 55, 0
4, 95184, Note_on_c, 2, 53, 120
4, 95208, Note_on_c, 2, 53, 0
4, 95232, Note_on_c, 2, 64, 115
4, 95256, Note_on_c, 2, 64, 0
4, 95280, Note_on_c, 2, 62, 115
4, 95304, Note_on_c, 2, 62, 0
4, 95328, Note_on_c, 2, 61, 120
4, 95352, Note_on_c, 2, 61, 0
4, 95376, Note_on_c, 2, 62, 115
4, 95400, Note_on_c, 2, 62, 0
4, 95424, Note_on_c, 2, 64, 115
4, 95448, Note_on_c, 2, 64, 0
4, 95472, Note_on_c, 2, 62, 120
4, 95496, Note_on_c, 2, 62, 0
4, 95520, Note_on_c, 2, 61, 115
4, 95544, Note_on_c, 2, 61, 0
4, 95568, Note_on_c, 2, 62, 115
4, 95592, Note_on_c, 2, 62, 0
4, 95616, Note_on_c, 2, 58, 120
4, 95640, Note_on_c, 2, 58, 0
4, 95664, Note_on_c, 2, 57, 115
4, 95688, Note_on_c, 2, 57, 0
4, 95712, Note_on_c, 2, 55, 115
4, 95736, Note_on_c, 2, 55, 0
4, 95760, Note_on_c, 2, 53, 120
4, 95784, Note_on_c, 2, 53, 0
4, 95808, Note_on_c, 2, 64, 115
4, 95832, Note_on_c, 2, 64, 0
4, 95856, Note_on_c, 2, 62, 115
4, 95880, Note_on_c, 2, 62, 0
4, 95904, Note_on_c, 2, 61, 120
4, 95928, Note_on_c, 2, 61, 0
4, 95952, Note_on_c, 2, 62, 115
4, 95976, Note_on_c, 2, 62, 0
4, 96000, Note_on_c, 2, 64, 115
4, 96024, Note_on_c, 2, 64, 0
4, 96048, Note_on_c, 2, 62, 120
4, 96072, Note_on_c, 2, 62, 0
4, 96096, Note_on_c, 2, 61, 115
4, 96120, Note_on_c, 2, 61, 0
4, 96144, Note_on_c, 2, 62, 115
4, 96168, Note_on_c, 2, 62, 0
4, 96192, Note_on_c, 2, 60, 120
4, 96216, Note_on_c, 2, 60, 0
4, 96240, Note_on_c, 2, 62, 115
4, 96264, Note_on_c, 2, 62, 0
4, 96288, Note_on_c, 2, 63, 115
4, 96312, Note_on_c, 2, 63, 0
4, 96336, Note_on_c, 2, 55, 120
4, 96360, Note_on_c, 2, 55, 0
4, 96384, Note_on_c, 2, 57, 115
4, 96408, Note_on_c, 2, 57, 0
4, 96432, Note_on_c, 2, 58, 115
4, 96456, Note_on_c, 2, 58, 0
4, 96480, Note_on_c, 2, 57, 120
4, 96504, Note_on_c, 2, 57, 0
4, 96528, Note_on_c, 2, 58, 115
4, 96552, Note_on_c, 2, 58, 0
4, 96576, Note_on_c, 2, 60, 115
4, 96600, Note_on_c, 2, 60, 0
4, 96624, Note_on_c, 2, 58, 120
4, 96648, Note_on_c, 2, 58, 0
4, 96672, Note_on_c, 2, 57, 115
4, 96696, Note_on_c, 2, 57, 0
4, 96720, Note_on_c, 2, 55, 115
4, 96744, Note_on_c, 2, 55, 0
4, 96768, Note_on_c, 2, 63, 105
4, 96792, Note_on_c, 2, 63, 0
4, 96816, Note_on_c, 2, 62, 100
4, 96840, Note_on_c, 2, 62, 0
4, 96864, Note_on_c, 2, 60, 100
4, 96888, Note_on_c, 2, 60, 0
4, 96912, Note_on_c, 2, 58, 105
4, 96936, Note_on_c, 2, 58, 0
4, 96960, Note_on_c, 2, 57, 100
4, 96984, Note_on_c, 2, 57, 0
4, 97008, Note_on_c, 2, 55, 100
4, 97032, Note_on_c, 2, 55, 0
4, 97056, Note_on_c, 2, 65, 105
4, 97080, Note_on_c, 2, 65, 0
4, 97104, Note_on_c, 2, 63, 100
4, 97128, Note_on_c, 2, 63, 0
4, 97152, Note_on_c, 2, 62, 100
4, 97176, Note_on_c, 2, 62, 0
4, 97200, Note_on_c, 2, 60, 105
4, 97224, Note_on_c, 2, 60, 0
4, 97248, Note_on_c, 2, 58, 100
4, 97272, Note_on_c, 2, 58, 0
4, 97296, Note_on_c, 2, 57, 100
4, 97320, Note_on_c, 2, 57, 0
4, 97344, Note_on_c, 2, 67, 105
4, 97368, Note_on_c, 2, 67, 0
4, 97392, Note_on_c, 2, 65, 100
4, 97416, Note_on_c, 2, 65, 0
4, 97440, Note_on_c, 2, 63, 100
4, 97464, Note_on_c, 2, 63, 0
4, 97488, Note_on_c, 2, 62, 105
4, 97512, Note_on_c, 2, 62, 0
4, 97536, Note_on_c, 2, 60, 100
4, 97560, Note_on_c, 2, 60, 0
4, 97584, Note_on_c, 2, 58, 100
4, 97608, Note_on_c, 2, 58, 0
4, 97632, Note_on_c, 2, 57, 105
4, 97656, Note_on_c, 2, 57, 0
4, 97680, Note_on_c, 2, 55, 100
4, 97704, Note_on_c, 2, 55, 0
4, 97728, Note_on_c, 2, 53, 100
4, 97752, Note_on_c, 2, 53, 0
4, 97776, Note_on_c, 2, 63, 105
4, 97800, Note_on_c, 2, 63, 0
4, 97824, Note_on_c, 2, 62, 100
4, 97848, Note_on_c, 2, 62, 0
4, 97872, Note_on_c, 2, 60, 100
4, 97896, Note_on_c, 2, 60, 0
4, 97920, Note_on_c, 2, 58, 105
4, 97944, Note_on_c, 2, 58, 0
4, 98352, Note_on_c, 2, 72, 68
4, 98387, Note_on_c, 2, 72, 0
4, 98424, Note_on_c, 2, 60, 67
4, 98436, Note_on_c, 2, 60, 0
4, 98448, Note_on_c, 2, 60, 69
4, 98472, Note_on_c, 2, 60, 0
4, 98496, Note_on_c, 2, 72, 82
4, 98531, Note_on_c, 2, 72, 0
4, 98568, Note_on_c, 2, 60, 81
4, 98580, Note_on_c, 2, 60, 0
4, 98592, Note_on_c, 2, 60, 84
4, 98616, Note_on_c, 2, 60, 0
4, 98640, Note_on_c, 2, 74, 89
4, 98675, Note_on_c, 2, 74, 0
4, 98712, Note_on_c, 2, 62, 84
4, 98724, Note_on_c, 2, 62, 0
4, 98736, Note_on_c, 2, 62, 82
4, 98760, Note_on_c, 2, 62, 0
4, 98784, Note_on_c, 2, 73, 79
4, 98819, Note_on_c, 2, 73, 0
4, 98856, Note_on_c, 2, 61, 73
4, 98868, Note_on_c, 2, 61, 0
4, 98880, Note_on_c, 2, 61, 72
4, 98904, Note_on_c, 2, 61, 0
4, 98928, Note_on_c, 2, 72, 68
4, 98963, Note_on_c, 2, 72, 0
4, 99000, Note_on_c, 2, 60, 63
4, 99012, Note_on_c, 2, 60, 0
4, 99024, Note_on_c, 2, 60, 61
4, 99048, Note_on_c, 2, 60, 0
4, 99792, Note_on_c, 2, 71, 60
4, 99827, Note_on_c, 2, 71, 0
4, 99864, Note_on_c, 2, 59, 69
4, 99876, Note_on_c, 2, 59, 0
4, 99888, Note_on_c, 2, 59, 72
4, 99912, Note_on_c, 2, 59, 0
4, 99936, Note_on_c, 2, 70, 78
4, 99971, Note_on_c, 2, 70, 0
4, 100008, Note_on_c, 2, 58, 87
4, 100020, Note_on_c, 2, 58, 0
4, 100032, Note_on_c, 2, 58, 90
4, 100056, Note_on_c, 2, 58, 0
4, 100080, Note_on_c, 2, 69, 90
4, 100115, Note_on_c, 2, 69, 0
4, 100152, Note_on_c, 2, 57, 85
4, 100164, Note_on_c, 2, 57, 0
4, 100176, Note_on_c, 2, 57, 83
4, 100200, Note_on_c, 2, 57, 0
4, 100224, Note_on_c, 2, 69, 79
4, 100259, Note_on_c, 2, 69, 0
4, 100296, Note_on_c, 2, 57, 74
4, 100308, Note_on_c, 2, 57, 0
4, 100320, Note_on_c, 2, 57, 72
4, 100344, Note_on_c, 2, 57, 0
4, 100368, Note_on_c, 2, 69, 68
4, 100403, Note_on_c, 2, 69, 0
4, 100440, Note_on_c, 2, 57, 62
4, 100452, Note_on_c, 2, 57, 0
4, 100464, Note_on_c, 2, 57, 60
4, 100488, Note_on_c, 2, 57, 0
4, 100656, Note_on_c, 2, 69, 60
4, 100691, Note_on_c, 2, 69, 0
4, 100728, Note_on_c, 2, 57, 63
4, 100740, Note_on_c, 2, 57, 0
4, 100752, Note_on_c, 2, 57, 65
4, 100776, Note_on_c, 2, 57, 0
4, 100800, Note_on_c, 2, 69, 67
4, 100835, Note_on_c, 2, 69, 0
4, 100872, Note_on_c, 2, 57, 71
4, 100884, Note_on_c, 2, 57, 0
4, 100896, Note_on_c, 2, 57, 73
4, 100920, Note_on_c, 2, 57, 0
4, 100944, Note_on_c, 2, 67, 75
4, 100979, Note_on_c, 2, 67, 0
4, 101016, Note_on_c, 2, 55, 79
4, 101028, Note_on_c, 2, 55, 0
4, 101040, Note_on_c, 2, 55, 81
4, 101064, Note_on_c, 2, 55, 0
4, 101088, Note_on_c, 2, 67, 83
4, 101123, Note_on_c, 2, 67, 0
4, 101160, Note_on_c, 2, 55, 87
4, 101172, Note_on_c, 2, 55, 0
4, 101184, Note_on_c, 2, 55, 88
4, 101208, Note_on_c, 2, 55, 0
4, 101232, Note_on_c, 2, 66, 90
4, 101267, Note_on_c, 2, 66, 0
4, 101304, Note_on_c, 2, 54, 85
4, 101316, Note_on_c, 2, 54, 0
4, 101328, Note_on_c, 2, 54, 83
4, 101352, Note_on_c, 2, 54, 0
4, 101376, Note_on_c, 2, 65, 79
4, 101411, Note_on_c, 2, 65, 0
4, 101448, Note_on_c, 2, 53, 74
4, 101460, Note_on_c, 2, 53, 0
4, 101472, Note_on_c, 2, 53, 72
4, 101496, Note_on_c, 2, 53, 0
4, 101520, Note_on_c, 2, 64, 68
4, 101555, Note_on_c, 2, 64, 0
4, 101592, Note_on_c, 2, 52, 62
4, 101604, Note_on_c, 2, 52, 0
4, 101616, Note_on_c, 2, 52, 60
4, 101640, Note_on_c, 2, 52, 0
4, 101664, Program_c, 2, 45
4, 101664, Control_c, 2, 7, 105
4, 101760, Note_on_c, 2, 69, 60
4, 101784, Note_on_c, 2, 69, 0
4, 101904, Note_on_c, 2, 69, 67
4, 101928, Note_on_c, 2, 69, 0
4, 102048, Note_on_c, 2, 71, 74
4, 102072, Note_on_c, 2, 71, 0
4, 102192, Note_on_c, 2, 64, 81
4, 102216, Note_on_c, 2, 64, 0
4, 102336, Note_on_c, 2, 64, 89
4, 102360, Note_on_c, 2, 64, 0
4, 102480, Note_on_c, 2, 62, 96
4, 102504, Note_on_c, 2, 62, 0
4, 102624, Note_on_c, 2, 62, 103
4, 102648, Note_on_c, 2, 62, 0
4, 102768, Note_on_c, 2, 67, 111
4, 102792, Note_on_c, 2, 67, 0
4, 102816, Program_c, 2, 48
4, 102816, Control_c, 2, 7, 123
4, 102816, Note_on_c, 2, 62, 120
4, 102851, Note_on_c, 2, 62, 0
4, 102888, Note_on_c, 2, 50, 113
4, 102900, Note_on_c, 2, 50, 0
4, 102912, Note_on_c, 2, 50, 113
4, 102936, Note_on_c, 2, 50, 0
4, 102960, Note_on_c, 2, 62, 120
4, 102995, Note_on_c, 2, 62, 0
4, 103032, Note_on_c, 2, 50, 113
4, 103044, Note_on_c, 2, 50, 0
4, 103056, Note_on_c, 2, 50, 113
4, 103080, Note_on_c, 2, 50, 0
4, 103104, Note_on_c, 2, 62, 120
4, 103139, Note_on_c, 2, 62, 0
4, 103176, Note_on_c, 2, 50, 113
4, 103188, Note_on_c, 2, 50, 0
4, 103200, Note_on_c, 2, 50, 113
4, 103224, Note_on_c, 2, 50, 0
4, 103248, Note_on_c, 2, 62, 120
4, 103283, Note_on_c, 2, 62, 0
4, 103320, Note_on_c, 2, 50, 113
4, 103332, Note_on_c, 2, 50, 0
4, 103344, Note_on_c, 2, 50, 113
4, 103368, Note_on_c, 2, 50, 0
4, 103392, Note_on_c, 2, 62, 120
4, 103427, Note_on_c, 2, 62, 0
4, 103464, Note_on_c, 2, 50, 113
4, 103476, Note_on_c, 2, 50, 0
4, 103488, Note_on_c, 2, 50, 113
4, 103512, Note_on_c, 2, 50, 0
4, 103536, Note_on_c, 2, 62, 120
4, 103571, Note_on_c, 2, 62, 0
4, 103608, Note_on_c, 2, 50, 113
4, 103620, Note_on_c, 2, 50, 0
4, 103632, Note_on_c, 2, 50, 113
4, 103656, Note_on_c, 2, 50, 0
4, 103680, Note_on_c, 2, 62, 120
4, 103715, Note_on_c, 2, 62, 0
4, 103752, Note_on_c, 2, 50, 113
4, 103764, Note_on_c, 2, 50, 0
4, 103776, Note_on_c, 2, 50, 113
4, 103800, Note_on_c, 2, 50, 0
4, 103824, Note_on_c, 2, 62, 120
4, 103859, Note_on_c, 2, 62, 0
4, 103896, Note_on_c, 2, 50, 113
4, 103908, Note_on_c, 2, 50, 0
4, 103920, Note_on_c, 2, 50, 113
4, 103944, Note_on_c, 2, 50, 0
4, 103968, Note_on_c, 2, 62, 120
4, 104003, Note_on_c, 2, 62, 0
4, 104040, Note_on_c, 2, 50, 113
4, 104052, Note_on_c, 2, 50, 0
4, 104064, Note_on_c, 2, 50, 113
4, 104088, Note_on_c, 2, 50, 0
4, 104112, Note_on_c, 2, 62, 120
4, 104147, Note_on_c, 2, 62, 0
4, 104184, Note_on_c, 2, 50, 113
4, 104196, Note_on_c, 2, 50, 0
4, 104208, Note_on_c, 2, 50, 113
4, 104232, Note_on_c, 2, 50, 0
4, 104256, Note_on_c, 2, 62, 120
4, 104291, Note_on_c, 2, 62, 0
4, 104328, Note_on_c, 2, 50, 113
4, 104340, Note_on_c, 2, 50, 0
4, 104352, Note_on_c, 2, 50, 113
4, 104376, Note_on_c, 2, 50, 0
4, 104400, Note_on_c, 2, 62, 120
4, 104435, Note_on_c, 2, 62, 0
4, 104472, Note_on_c, 2, 50, 113
4, 104484, Note_on_c, 2, 50, 0
4, 104496, Note_on_c, 2, 50, 113
4, 104520, Note_on_c, 2, 50, 0
4, 104544, Note_on_c, 2, 62, 120
4, 104579, Note_on_c, 2, 62, 0
4, 104616, Note_on_c, 2, 50, 113
4, 104628, Note_on_c, 2, 50, 0
4, 104640, Note_on_c, 2, 50, 113
4, 104664, Note_on_c, 2, 50, 0
4, 104688, Note_on_c, 2, 62, 120
4, 104723, Note_on_c, 2, 62, 0
4, 104760, Note_on_c, 2, 50, 113
4, 104772, Note_on_c, 2, 50, 0
4, 104784, Note_on_c, 2, 50, 113
4, 104808, Note_on_c, 2, 50, 0
4, 104832, Note_on_c, 2, 62, 120
4, 104867, Note_on_c, 2, 62, 0
4, 104904, Note_on_c, 2, 50, 113
4, 104916, Note_on_c, 2, 50, 0
4, 104928, Note_on_c, 2, 50, 113
4, 104952, Note_on_c, 2, 50, 0
4, 104976, Note_on_c, 2, 62, 120
4, 105011, Note_on_c, 2, 62, 0
4, 105048, Note_on_c, 2, 50, 113
4, 105060, Note_on_c, 2, 50, 0
4, 105072, Note_on_c, 2, 50, 113
4, 105096, Note_on_c, 2, 50, 0
4, 105120, Note_on_c, 2, 62, 113
4, 105144, Note_on_c, 2, 62, 0
4, 105408, Note_on_c, 2, 67, 118
4, 105443, Note_on_c, 2, 67, 0
4, 105480, Note_on_c, 2, 55, 113
4, 105492, Note_on_c, 2, 55, 0
4, 105504, Note_on_c, 2, 55, 113
4, 105528, Note_on_c, 2, 55, 0
4, 105552, Note_on_c, 2, 55, 118
4, 105576, Note_on_c, 2, 55, 0
4, 105600, Note_on_c, 2, 52, 113
4, 105624, Note_on_c, 2, 52, 0
4, 105648, Note_on_c, 2, 50, 113
4, 105672, Note_on_c, 2, 50, 0
4, 105696, Note_on_c, 2, 48, 113
4, 105696, Note_on_c, 2, 60, 113
4, 105720, Note_on_c, 2, 60, 0
4, 105720, Note_on_c, 2, 48, 0
4, 105984, Note_on_c, 2, 65, 118
4, 106019, Note_on_c, 2, 65, 0
4, 106056, Note_on_c, 2, 53, 113
4, 106068, Note_on_c, 2, 53, 0
4, 106080, Note_on_c, 2, 53, 113
4, 106104, Note_on_c, 2, 53, 0
4, 106128, Note_on_c, 2, 53, 118
4, 106152, Note_on_c, 2, 53, 0
4, 106176, Note_on_c, 2, 50, 113
4, 106200, Note_on_c, 2, 50, 0
4, 106224, Note_on_c, 2, 48, 113
4, 106248, Note_on_c, 2, 48, 0
4, 106272, Control_c, 2, 6, 64
4, 106272, Control_c, 2, 11, 60
4, 106272, Note_on_c, 2, 50, 100
4, 106320, Note_on_c, 2, 50, 0
4, 106320, Note_on_c, 2, 52, 100
4, 106368, Note_on_c, 2, 52, 0
4, 106368, Note_on_c, 2, 54, 100
4, 106416, Note_on_c, 2, 54, 0
4, 106416, Note_on_c, 2, 55, 100
4, 106560, Control_c, 2, 11, 60
4, 106575, Control_c, 2, 11, 61
4, 106589, Control_c, 2, 11, 62
4, 106604, Control_c, 2, 11, 63
4, 106608, Note_on_c, 2, 55, 0
4, 106608, Note_on_c, 2, 53, 100
4, 106618, Control_c, 2, 11, 64
4, 106632, Control_c, 2, 11, 65
4, 106647, Control_c, 2, 11, 66
4, 106656, Note_on_c, 2, 53, 0
4, 106656, Note_on_c, 2, 51, 100
4, 106661, Control_c, 2, 11, 67
4, 106675, Control_c, 2, 11, 68
4, 106690, Control_c, 2, 11, 69
4, 106704, Note_on_c, 2, 51, 0
4, 106704, Note_on_c, 2, 67, 100
4, 106704, Control_c, 2, 11, 70
4, 106719, Control_c, 2, 11, 71
4, 106733, Control_c, 2, 11, 72
4, 106747, Control_c, 2, 11, 73
4, 106752, Note_on_c, 2, 67, 0
4, 106752, Note_on_c, 2, 65, 100
4, 106762, Control_c, 2, 11, 74
4, 106776, Control_c, 2, 11, 75
4, 106790, Control_c, 2, 11, 76
4, 106800, Note_on_c, 2, 65, 0
4, 106800, Note_on_c, 2, 63, 100
4, 106805, Control_c, 2, 11, 77
4, 106819, Control_c, 2, 11, 78
4, 106833, Control_c, 2, 11, 79
4, 106848, Note_on_c, 2, 63, 0
4, 106848, Note_on_c, 2, 70, 100
4, 106848, Control_c, 2, 11, 80
4, 106862, Control_c, 2, 11, 81
4, 106877, Control_c, 2, 11, 82
4, 106891, Control_c, 2, 11, 83
4, 106896, Note_on_c, 2, 70, 0
4, 106896, Note_on_c, 2, 69, 100
4, 106905, Control_c, 2, 11, 84
4, 106920, Control_c, 2, 11, 85
4, 106934, Control_c, 2, 11, 86
4, 106944, Note_on_c, 2, 69, 0
4, 106944, Note_on_c, 2, 70, 100
4, 106948, Control_c, 2, 11, 87
4, 106963, Control_c, 2, 11, 88
4, 106977, Control_c, 2, 11, 89
4, 106991, Control_c, 2, 11, 90
4, 106992, Control_c, 2, 11, 90
4, 106997, Control_c, 2, 11, 89
4, 107002, Control_c, 2, 11, 88
4, 107007, Control_c, 2, 11, 87
4, 107012, Control_c, 2, 11, 86
4, 107016, Control_c, 2, 11, 85
4, 107021, Control_c, 2, 11, 84
4, 107026, Control_c, 2, 11, 83
4, 107031, Control_c, 2, 11, 82
4, 107035, Control_c, 2, 11, 81
4, 107040, Note_on_c, 2, 70, 0
4, 107040, Note_on_c, 2, 69, 100
4, 107040, Control_c, 2, 11, 80
4, 107045, Control_c, 2, 11, 79
4, 107050, Control_c, 2, 11, 78
4, 107054, Control_c, 2, 11, 77
4, 107059, Control_c, 2, 11, 76
4, 107064, Control_c, 2, 11, 75
4, 107069, Control_c, 2, 11, 74
4, 107074, Control_c, 2, 11, 73
4, 107078, Control_c, 2, 11, 72
4, 107083, Control_c, 2, 11, 71
4, 107088, Note_on_c, 2, 69, 0
4, 107088, Note_on_c, 2, 67, 100
4, 107088, Control_c, 2, 11, 70
4, 107093, Control_c, 2, 11, 69
4, 107097, Control_c, 2, 11, 68
4, 107102, Control_c, 2, 11, 67
4, 107107, Control_c, 2, 11, 66
4, 107112, Control_c, 2, 11, 65
4, 107116, Control_c, 2, 11, 64
4, 107121, Control_c, 2, 11, 63
4, 107126, Control_c, 2, 11, 62
4, 107131, Control_c, 2, 11, 61
4, 107135, Control_c, 2, 11, 60
4, 107136, Note_on_c, 2, 67, 0
4, 107712, Control_c, 2, 6, 14
4, 108000, Control_c, 2, 11, 120
4, 108000, Note_on_c, 2, 69, 105
4, 108024, Note_on_c, 2, 69, 0
4, 108048, Note_on_c, 2, 70, 100
4, 108072, Note_on_c, 2, 70, 0
4, 108096, Note_on_c, 2, 70, 100
4, 108120, Note_on_c, 2, 70, 0
4, 108144, Note_on_c, 2, 71, 105
4, 108168, Note_on_c, 2, 71, 0
4, 108192, Note_on_c, 2, 69, 100
4, 108216, Note_on_c, 2, 69, 0
4, 108240, Note_on_c, 2, 62, 100
4, 108240, Note_on_c, 2, 74, 100
4, 108264, Note_on_c, 2, 74, 0
4, 108264, Note_on_c, 2, 62, 0
4, 108288, Note_on_c, 2, 62, 105
4, 108288, Note_on_c, 2, 74, 105
4, 108312, Note_on_c, 2, 74, 0
4, 108312, Note_on_c, 2, 62, 0
4, 108576, Note_on_c, 2, 65, 105
4, 108600, Note_on_c, 2, 65, 0
4, 108624, Note_on_c, 2, 62, 100
4, 108648, Note_on_c, 2, 62, 0
4, 108672, Note_on_c, 2, 67, 100
4, 108696, Note_on_c, 2, 67, 0
4, 108720, Note_on_c, 2, 64, 105
4, 108744, Note_on_c, 2, 64, 0
4, 108768, Note_on_c, 2, 61, 100
4, 108792, Note_on_c, 2, 61, 0
4, 108816, Note_on_c, 2, 69, 100
4, 108840, Note_on_c, 2, 69, 0
4, 108864, Note_on_c, 2, 62, 100
4, 108864, Note_on_c, 2, 74, 100
4, 108888, Note_on_c, 2, 74, 0
4, 108888, Note_on_c, 2, 62, 0
4, 109008, Note_on_c, 2, 69, 110
4, 109043, Note_on_c, 2, 69, 0
4, 109080, Note_on_c, 2, 57, 100
4, 109092, Note_on_c, 2, 57, 0
4, 109104, Note_on_c, 2, 57, 100
4, 109128, Note_on_c, 2, 57, 0
4, 109152, Note_on_c, 2, 50, 105
4, 109176, Note_on_c, 2, 50, 0
4, 109296, Note_on_c, 2, 69, 110
4, 109331, Note_on_c, 2, 69, 0
4, 109368, Note_on_c, 2, 57, 100
4, 109380, Note_on_c, 2, 57, 0
4, 109392, Note_on_c, 2, 57, 100
4, 109416, Note_on_c, 2, 57, 0
4, 109434, Control_c, 2, 6, 64
4, 109440, Note_on_c, 2, 67, 64
4, 109488, Note_on_c, 2, 67, 0
4, 109488, Note_on_c, 2, 64, 61
4, 109536, Note_on_c, 2, 64, 0
4, 109536, Note_on_c, 2, 61, 58
4, 109584, Note_on_c, 2, 61, 0
4, 109584, Note_on_c, 2, 55, 52
4, 109632, Note_on_c, 2, 55, 0
4, 109632, Note_on_c, 2, 52, 49
4, 109680, Note_on_c, 2, 52, 0
4, 109680, Note_on_c, 2, 49, 46
4, 109728, Note_on_c, 2, 49, 0
4, 109728, Note_on_c, 2, 52, 40
4, 109776, Note_on_c, 2, 52, 0
4, 109776, Note_on_c, 2, 55, 46
4, 109824, Note_on_c, 2, 55, 0
4, 109824, Note_on_c, 2, 61, 50
4, 109920, Note_on_c, 2, 61, 0
4, 109920, Note_on_c, 2, 64, 58
4, 109968, Note_on_c, 2, 64, 0
4, 109968, Note_on_c, 2, 67, 61
4, 110016, Note_on_c, 2, 67, 0
4, 110016, Control_c, 2, 6, 14
4, 110016, Note_on_c, 2, 65, 60
4, 110051, Note_on_c, 2, 65, 0
4, 110088, Note_on_c, 2, 53, 50
4, 110100, Note_on_c, 2, 53, 0
4, 110112, Note_on_c, 2, 53, 50
4, 110136, Note_on_c, 2, 53, 0
4, 110160, Note_on_c, 2, 53, 55
4, 110184, Note_on_c, 2, 53, 0
4, 110304, Note_on_c, 2, 65, 60
4, 110339, Note_on_c, 2, 65, 0
4, 110376, Note_on_c, 2, 53, 50
4, 110388, Note_on_c, 2, 53, 0
4, 110400, Note_on_c, 2, 53, 50
4, 110424, Note_on_c, 2, 53, 0
4, 110448, Note_on_c, 2, 53, 55
4, 110472, Note_on_c, 2, 53, 0
4, 111168, Note_on_c, 2, 65, 55
4, 111203, Note_on_c, 2, 65, 0
4, 111240, Note_on_c, 2, 53, 54
4, 111252, Note_on_c, 2, 53, 0
4, 111264, Note_on_c, 2, 53, 56
4, 111288, Note_on_c, 2, 53, 0
4, 111312, Note_on_c, 2, 53, 59
4, 111336, Note_on_c, 2, 53, 0
4, 111456, Note_on_c, 2, 53, 73
4, 111491, Note_on_c, 2, 53, 0
4, 111528, Note_on_c, 2, 53, 72
4, 111540, Note_on_c, 2, 53, 0
4, 111552, Note_on_c, 2, 53, 74
4, 111576, Note_on_c, 2, 53, 0
4, 111600, Note_on_c, 2, 53, 77
4, 111624, Note_on_c, 2, 53, 0
4, 111744, Note_on_c, 2, 53, 86
4, 111779, Note_on_c, 2, 53, 0
4, 111816, Note_on_c, 2, 62, 90
4, 111828, Note_on_c, 2, 62, 0
4, 111840, Note_on_c, 2, 62, 92
4, 111864, Note_on_c, 2, 62, 0
4, 111888, Note_on_c, 2, 58, 95
4, 111888, Note_on_c, 2, 62, 95
4, 111912, Note_on_c, 2, 62, 0
4, 111912, Note_on_c, 2, 58, 0
4, 112032, Note_on_c, 2, 58, 104
4, 112032, Note_on_c, 2, 62, 104
4, 112067, Note_on_c, 2, 62, 0
4, 112067, Note_on_c, 2, 58, 0
4, 112104, Note_on_c, 2, 67, 108
4, 112116, Note_on_c, 2, 67, 0
4, 112128, Note_on_c, 2, 67, 110
4, 112152, Note_on_c, 2, 67, 0
4, 112176, Note_on_c, 2, 61, 113
4, 112176, Note_on_c, 2, 64, 113
4, 112200, Note_on_c, 2, 64, 0
4, 112200, Note_on_c, 2, 61, 0
4, 112368, Note_on_c, 2, 52, 55
4, 112392, Note_on_c, 2, 52, 0
4, 112416, Note_on_c, 2, 53, 50
4, 112440, Note_on_c, 2, 53, 0
4, 112464, Note_on_c, 2, 55, 50
4, 112488, Note_on_c, 2, 55, 0
4, 112512, Note_on_c, 2, 57, 55
4, 112536, Note_on_c, 2, 57, 0
4, 112560, Note_on_c, 2, 55, 50
4, 112584, Note_on_c, 2, 55, 0
4, 112608, Note_on_c, 2, 53, 50
4, 112632, Note_on_c, 2, 53, 0
4, 112656, Note_on_c, 2, 54, 55
4, 112680, Note_on_c, 2, 54, 0
4, 112704, Note_on_c, 2, 55, 50
4, 112728, Note_on_c, 2, 55, 0
4, 112752, Note_on_c, 2, 57, 50
4, 112776, Note_on_c, 2, 57, 0
4, 112800, Note_on_c, 2, 58, 55
4, 112824, Note_on_c, 2, 58, 0
4, 112848, Note_on_c, 2, 57, 50
4, 112872, Note_on_c, 2, 57, 0
4, 112896, Note_on_c, 2, 55, 50
4, 112920, Note_on_c, 2, 55, 0
4, 112944, Note_on_c, 2, 52, 55
4, 112968, Note_on_c, 2, 52, 0
4, 112992, Note_on_c, 2, 53, 50
4, 113016, Note_on_c, 2, 53, 0
4, 113040, Note_on_c, 2, 55, 50
4, 113064, Note_on_c, 2, 55, 0
4, 113088, Note_on_c, 2, 57, 55
4, 113112, Note_on_c, 2, 57, 0
4, 113136, Note_on_c, 2, 55, 50
4, 113160, Note_on_c, 2, 55, 0
4, 113184, Note_on_c, 2, 53, 50
4, 113208, Note_on_c, 2, 53, 0
4, 113232, Note_on_c, 2, 54, 55
4, 113256, Note_on_c, 2, 54, 0
4, 113280, Note_on_c, 2, 55, 50
4, 113304, Note_on_c, 2, 55, 0
4, 113328, Note_on_c, 2, 57, 50
4, 113352, Note_on_c, 2, 57, 0
4, 113376, Note_on_c, 2, 58, 55
4, 113400, Note_on_c, 2, 58, 0
4, 113424, Note_on_c, 2, 57, 50
4, 113448, Note_on_c, 2, 57, 0
4, 113472, Note_on_c, 2, 55, 50
4, 113496, Note_on_c, 2, 55, 0
4, 113520, Note_on_c, 2, 69, 60
4, 113555, Note_on_c, 2, 69, 0
4, 113592, Note_on_c, 2, 57, 54
4, 113604, Note_on_c, 2, 57, 0
4, 113616, Note_on_c, 2, 57, 55
4, 113640, Note_on_c, 2, 57, 0
4, 113664, Note_on_c, 2, 62, 62
4, 113688, Note_on_c, 2, 62, 0
4, 113712, Note_on_c, 2, 64, 61
4, 113736, Note_on_c, 2, 64, 0
4, 113760, Note_on_c, 2, 65, 64
4, 113784, Note_on_c, 2, 65, 0
4, 113808, Note_on_c, 2, 69, 76
4, 113843, Note_on_c, 2, 69, 0
4, 113880, Note_on_c, 2, 57, 71
4, 113892, Note_on_c, 2, 57, 0
4, 113904, Note_on_c, 2, 57, 72
4, 113928, Note_on_c, 2, 57, 0
4, 113952, Note_on_c, 2, 62, 79
4, 113976, Note_on_c, 2, 62, 0
4, 114000, Note_on_c, 2, 64, 78
4, 114024, Note_on_c, 2, 64, 0
4, 114048, Note_on_c, 2, 65, 80
4, 114072, Note_on_c, 2, 65, 0
4, 114096, Note_on_c, 2, 69, 93
4, 114131, Note_on_c, 2, 69, 0
4, 114168, Note_on_c, 2, 57, 87
4, 114180, Note_on_c, 2, 57, 0
4, 114192, Note_on_c, 2, 57, 89
4, 114216, Note_on_c, 2, 57, 0
4, 114240, Note_on_c, 2, 62, 93
4, 114264, Note_on_c, 2, 62, 0
4, 114288, Note_on_c, 2, 64, 95
4, 114312, Note_on_c, 2, 64, 0
4, 114336, Note_on_c, 2, 65, 97
4, 114360, Note_on_c, 2, 65, 0
4, 114384, Note_on_c, 2, 69, 110
4, 114419, Note_on_c, 2, 69, 0
4, 114456, Note_on_c, 2, 57, 104
4, 114468, Note_on_c, 2, 57, 0
4, 114480, Note_on_c, 2, 57, 106
4, 114504, Note_on_c, 2, 57, 0
4, 114528, Note_on_c, 2, 62, 112
4, 114552, Note_on_c, 2, 62, 0
4, 114576, Note_on_c, 2, 64, 111
4, 114600, Note_on_c, 2, 64, 0
4, 114624, Note_on_c, 2, 65, 114
4, 114648, Note_on_c, 2, 65, 0
4, 114672, Note_on_c, 2, 69, 125
4, 114696, Note_on_c, 2, 69, 0
4, 114720, Note_on_c, 2, 57, 115
4, 114744, Note_on_c, 2, 57, 0
4, 114768, Note_on_c, 2, 62, 125
4, 114792, Note_on_c, 2, 62, 0
4, 114816, Note_on_c, 2, 50, 115
4, 114840, Note_on_c, 2, 50, 0
4, 114864, Note_on_c, 2, 57, 125
4, 114888, Note_on_c, 2, 57, 0
4, 114912, Note_on_c, 2, 57, 115
4, 114936, Note_on_c, 2, 57, 0
4, 114960, Note_on_c, 2, 69, 125
4, 114984, Note_on_c, 2, 69, 0
4, 115008, Note_on_c, 2, 57, 120
4, 115032, Note_on_c, 2, 57, 0
4, 115056, Note_on_c, 2, 50, 120
4, 115080, Note_on_c, 2, 50, 0
4, 115266, Control_c, 2, 6, 64
4, 118224, Control_c, 2, 11, 60
4, 118224, Note_on_c, 2, 50, 100
4, 118274, Note_on_c, 2, 50, 0
4, 118274, Note_on_c, 2, 52, 100
4, 118322, Note_on_c, 2, 52, 0
4, 118322, Note_on_c, 2, 54, 100
4, 118370, Note_on_c, 2, 54, 0
4, 118370, Note_on_c, 2, 55, 100
4, 118418, Note_on_c, 2, 55, 0
4, 118418, Control_c, 2, 11, 60
4, 118418, Note_on_c, 2, 57, 100
4, 118446, Control_c, 2, 11, 61
4, 118466, Note_on_c, 2, 57, 0
4, 118466, Note_on_c, 2, 59, 100
4, 118474, Control_c, 2, 11, 62
4, 118502, Control_c, 2, 11, 63
4, 118514, Note_on_c, 2, 59, 0
4, 118514, Note_on_c, 2, 59, 100
4, 118530, Control_c, 2, 11, 64
4, 118558, Control_c, 2, 11, 65
4, 118562, Note_on_c, 2, 59, 0
4, 118562, Note_on_c, 2, 57, 100
4, 118586, Control_c, 2, 11, 66
4, 118610, Note_on_c, 2, 57, 0
4, 118610, Note_on_c, 2, 59, 100
4, 118613, Control_c, 2, 11, 67
4, 118641, Control_c, 2, 11, 68
4, 118658, Note_on_c, 2, 59, 0
4, 118658, Note_on_c, 2, 61, 100
4, 118669, Control_c, 2, 11, 69
4, 118697, Control_c, 2, 11, 70
4, 118706, Note_on_c, 2, 61, 0
4, 118706, Note_on_c, 2, 62, 100
4, 118725, Control_c, 2, 11, 71
4, 118753, Control_c, 2, 11, 72
4, 118754, Note_on_c, 2, 62, 0
4, 118754, Note_on_c, 2, 61, 100
4, 118780, Control_c, 2, 11, 73
4, 118802, Note_on_c, 2, 61, 0
4, 118802, Note_on_c, 2, 62, 100
4, 118808, Control_c, 2, 11, 74
4, 118836, Control_c, 2, 11, 75
4, 118850, Note_on_c, 2, 62, 0
4, 118850, Note_on_c, 2, 64, 100
4, 118864, Control_c, 2, 11, 76
4, 118892, Control_c, 2, 11, 77
4, 118898, Note_on_c, 2, 64, 0
4, 118898, Note_on_c, 2, 62, 100
4, 118920, Control_c, 2, 11, 78
4, 118946, Note_on_c, 2, 62, 0
4, 118946, Note_on_c, 2, 61, 100
4, 118947, Control_c, 2, 11, 79
4, 118975, Control_c, 2, 11, 80
4, 118994, Note_on_c, 2, 61, 0
4, 118994, Note_on_c, 2, 62, 100
4, 119003, Control_c, 2, 11, 81
4, 119031, Control_c, 2, 11, 82
4, 119042, Note_on_c, 2, 62, 0
4, 119042, Note_on_c, 2, 64, 100
4, 119059, Control_c, 2, 11, 83
4, 119087, Control_c, 2, 11, 84
4, 119090, Note_on_c, 2, 64, 0
4, 119090, Note_on_c, 2, 66, 100
4, 119114, Control_c, 2, 11, 85
4, 119138, Note_on_c, 2, 66, 0
4, 119138, Note_on_c, 2, 64, 100
4, 119142, Control_c, 2, 11, 86
4, 119170, Control_c, 2, 11, 87
4, 119186, Note_on_c, 2, 64, 0
4, 119186, Note_on_c, 2, 66, 100
4, 119198, Control_c, 2, 11, 88
4, 119226, Control_c, 2, 11, 89
4, 119234, Note_on_c, 2, 66, 0
4, 119234, Note_on_c, 2, 67, 100
4, 119254, Control_c, 2, 11, 90
4, 119281, Control_c, 2, 11, 91
4, 119282, Note_on_c, 2, 67, 0
4, 119282, Note_on_c, 2, 69, 100
4, 119378, Note_on_c, 2, 69, 0
4, 119378, Control_c, 2, 11, 91
4, 119378, Note_on_c, 2, 71, 100
4, 119382, Control_c, 2, 11, 90
4, 119386, Control_c, 2, 11, 89
4, 119390, Control_c, 2, 11, 88
4, 119394, Control_c, 2, 11, 87
4, 119398, Control_c, 2, 11, 86
4, 119402, Control_c, 2, 11, 85
4, 119406, Control_c, 2, 11, 84
4, 119410, Control_c, 2, 11, 83
4, 119414, Control_c, 2, 11, 82
4, 119418, Control_c, 2, 11, 81
4, 119422, Control_c, 2, 11, 80
4, 119426, Note_on_c, 2, 71, 0
4, 119426, Note_on_c, 2, 67, 100
4, 119426, Control_c, 2, 11, 79
4, 119430, Control_c, 2, 11, 78
4, 119434, Control_c, 2, 11, 77
4, 119438, Control_c, 2, 11, 76
4, 119442, Control_c, 2, 11, 75
4, 119446, Control_c, 2, 11, 74
4, 119450, Control_c, 2, 11, 73
4, 119454, Control_c, 2, 11, 72
4, 119458, Control_c, 2, 11, 71
4, 119462, Control_c, 2, 11, 70
4, 119466, Control_c, 2, 11, 69
4, 119470, Control_c, 2, 11, 68
4, 119473, Control_c, 2, 11, 67
4, 119474, Note_on_c, 2, 67, 0
4, 119474, Control_c, 2, 11, 60
4, 119474, Note_on_c, 2, 66, 100
4, 119522, Note_on_c, 2, 66, 0
4, 119570, Note_on_c, 2, 64, 100
4, 119618, Note_on_c, 2, 64, 0
4, 119666, Note_on_c, 2, 62, 100
4, 119714, Note_on_c, 2, 62, 0
4, 119762, Note_on_c, 2, 50, 100
4, 119810, Note_on_c, 2, 50, 0
4, 119810, Note_on_c, 2, 52, 100
4, 119858, Note_on_c, 2, 52, 0
4, 119858, Note_on_c, 2, 54, 100
4, 119906, Note_on_c, 2, 54, 0
4, 119906, Note_on_c, 2, 55, 100
4, 119954, Note_on_c, 2, 55, 0
4, 119954, Note_on_c, 2, 57, 100
4, 120002, Note_on_c, 2, 57, 0
4, 120002, Note_on_c, 2, 59, 100
4, 120050, Note_on_c, 2, 59, 0
4, 120050, Note_on_c, 2, 59, 100
4, 120098, Note_on_c, 2, 59, 0
4, 120098, Control_c, 2, 11, 60
4, 120098, Note_on_c, 2, 57, 100
4, 120122, Control_c, 2, 11, 61
4, 120146, Note_on_c, 2, 57, 0
4, 120146, Note_on_c, 2, 59, 100
4, 120146, Control_c, 2, 11, 62
4, 120170, Control_c, 2, 11, 63
4, 120194, Note_on_c, 2, 59, 0
4, 120194, Note_on_c, 2, 61, 100
4, 120194, Control_c, 2, 11, 64
4, 120218, Control_c, 2, 11, 65
4, 120242, Note_on_c, 2, 61, 0
4, 120242, Note_on_c, 2, 62, 100
4, 120242, Control_c, 2, 11, 66
4, 120266, Control_c, 2, 11, 67
4, 120290, Note_on_c, 2, 62, 0
4, 120290, Note_on_c, 2, 61, 100
4, 120290, Control_c, 2, 11, 68
4, 120314, Control_c, 2, 11, 69
4, 120338, Note_on_c, 2, 61, 0
4, 120338, Note_on_c, 2, 62, 100
4, 120338, Control_c, 2, 11, 70
4, 120362, Control_c, 2, 11, 71
4, 120386, Note_on_c, 2, 62, 0
4, 120386, Note_on_c, 2, 64, 100
4, 120386, Control_c, 2, 11, 72
4, 120410, Control_c, 2, 11, 73
4, 120434, Note_on_c, 2, 64, 0
4, 120434, Note_on_c, 2, 62, 100
4, 120434, Control_c, 2, 11, 74
4, 120458, Control_c, 2, 11, 75
4, 120482, Note_on_c, 2, 62, 0
4, 120482, Note_on_c, 2, 61, 100
4, 120482, Control_c, 2, 11, 76
4, 120506, Control_c, 2, 11, 77
4, 120530, Note_on_c, 2, 61, 0
4, 120530, Note_on_c, 2, 62, 100
4, 120530, Control_c, 2, 11, 78
4, 120554, Control_c, 2, 11, 79
4, 120578, Note_on_c, 2, 62, 0
4, 120578, Note_on_c, 2, 64, 100
4, 120578, Control_c, 2, 11, 80
4, 120602, Control_c, 2, 11, 81
4, 120626, Note_on_c, 2, 64, 0
4, 120626, Note_on_c, 2, 66, 100
4, 120626, Control_c, 2, 11, 82
4, 120650, Control_c, 2, 11, 83
4, 120674, Note_on_c, 2, 66, 0
4, 120674, Note_on_c, 2, 64, 100
4, 120674, Control_c, 2, 11, 84
4, 120698, Control_c, 2, 11, 85
4, 120722, Note_on_c, 2, 64, 0
4, 120722, Note_on_c, 2, 66, 100
4, 120722, Control_c, 2, 11, 86
4, 120746, Control_c, 2, 11, 87
4, 120770, Note_on_c, 2, 66, 0
4, 120770, Note_on_c, 2, 67, 100
4, 120770, Control_c, 2, 11, 88
4, 120794, Control_c, 2, 11, 89
4, 120817, Control_c, 2, 11, 90
4, 120818, Note_on_c, 2, 67, 0
4, 120818, Note_on_c, 2, 69, 100
4, 120914, Note_on_c, 2, 69, 0
4, 120914, Control_c, 2, 11, 90
4, 120914, Note_on_c, 2, 71, 100
4, 120918, Control_c, 2, 11, 89
4, 120922, Control_c, 2, 11, 88
4, 120926, Control_c, 2, 11, 87
4, 120930, Control_c, 2, 11, 86
4, 120934, Control_c, 2, 11, 85
4, 120938, Control_c, 2, 11, 84
4, 120942, Control_c, 2, 11, 83
4, 120946, Control_c, 2, 11, 82
4, 120950, Control_c, 2, 11, 81
4, 120954, Control_c, 2, 11, 80
4, 120958, Control_c, 2, 11, 79
4, 120962, Note_on_c, 2, 71, 0
4, 120962, Note_on_c, 2, 67, 100
4, 120962, Control_c, 2, 11, 78
4, 120966, Control_c, 2, 11, 77
4, 120970, Control_c, 2, 11, 76
4, 120974, Control_c, 2, 11, 75
4, 120978, Control_c, 2, 11, 74
4, 120982, Control_c, 2, 11, 73
4, 120986, Control_c, 2, 11, 72
4, 120990, Control_c, 2, 11, 71
4, 120994, Control_c, 2, 11, 70
4, 120998, Control_c, 2, 11, 69
4, 121002, Control_c, 2, 11, 68
4, 121006, Control_c, 2, 11, 67
4, 121009, Control_c, 2, 11, 66
4, 121010, Note_on_c, 2, 67, 0
4, 121010, Control_c, 2, 11, 60
4, 121010, Note_on_c, 2, 66, 100
4, 121058, Note_on_c, 2, 66, 0
4, 121106, Note_on_c, 2, 64, 100
4, 121154, Note_on_c, 2, 64, 0
4, 122736, Control_c, 2, 11, 120
4, 122832, Note_on_c, 2, 74, 68
4, 122856, Note_on_c, 2, 74, 0
4, 122880, Note_on_c, 2, 73, 67
4, 122904, Note_on_c, 2, 73, 0
4, 122928, Note_on_c, 2, 74, 68
4, 122952, Note_on_c, 2, 74, 0
4, 122976, Note_on_c, 2, 71, 65
4, 123000, Note_on_c, 2, 71, 0
4, 123024, Note_on_c, 2, 69, 63
4, 123048, Note_on_c, 2, 69, 0
4, 123072, Note_on_c, 2, 67, 61
4, 123096, Note_on_c, 2, 67, 0
4, 123120, Note_on_c, 2, 66, 60
4, 123144, Note_on_c, 2, 66, 0
4, 123168, Note_on_c, 2, 64, 58
4, 123192, Note_on_c, 2, 64, 0
4, 123216, Note_on_c, 2, 62, 56
4, 123240, Note_on_c, 2, 62, 0
4, 123264, Note_on_c, 2, 60, 54
4, 123288, Note_on_c, 2, 60, 0
4, 123312, Note_on_c, 2, 59, 53
4, 123336, Note_on_c, 2, 59, 0
4, 123360, Note_on_c, 2, 61, 55
4, 123384, Note_on_c, 2, 61, 0
4, 123408, Note_on_c, 2, 62, 56
4, 123432, Note_on_c, 2, 62, 0
4, 123456, Note_on_c, 2, 66, 60
4, 123480, Note_on_c, 2, 66, 0
4, 123504, Note_on_c, 2, 69, 63
4, 123528, Note_on_c, 2, 69, 0
4, 123552, Note_on_c, 2, 67, 61
4, 123576, Note_on_c, 2, 67, 0
4, 123600, Note_on_c, 2, 66, 60
4, 123624, Note_on_c, 2, 66, 0
4, 128304, Note_on_c, 2, 54, 100
4, 128328, Note_on_c, 2, 54, 0
4, 128400, Note_on_c, 2, 66, 60
4, 128424, Note_on_c, 2, 66, 0
4, 128448, Note_on_c, 2, 64, 60
4, 128472, Note_on_c, 2, 64, 0
4, 128496, Note_on_c, 2, 66, 60
4, 128520, Note_on_c, 2, 66, 0
4, 128544, Note_on_c, 2, 62, 60
4, 128568, Note_on_c, 2, 62, 0
4, 128592, Note_on_c, 2, 61, 61
4, 128616, Note_on_c, 2, 61, 0
4, 128640, Note_on_c, 2, 59, 62
4, 128664, Note_on_c, 2, 59, 0
4, 128688, Note_on_c, 2, 57, 63
4, 128712, Note_on_c, 2, 57, 0
4, 128736, Note_on_c, 2, 55, 63
4, 128760, Note_on_c, 2, 55, 0
4, 128784, Note_on_c, 2, 54, 64
4, 128808, Note_on_c, 2, 54, 0
4, 128832, Note_on_c, 2, 50, 65
4, 128856, Note_on_c, 2, 50, 0
4, 128880, Note_on_c, 2, 50, 66
4, 128904, Note_on_c, 2, 50, 0
4, 128928, Note_on_c, 2, 52, 66
4, 128952, Note_on_c, 2, 52, 0
4, 128976, Note_on_c, 2, 54, 67
4, 129000, Note_on_c, 2, 54, 0
4, 129024, Note_on_c, 2, 57, 68
4, 129048, Note_on_c, 2, 57, 0
4, 129072, Note_on_c, 2, 61, 69
4, 129096, Note_on_c, 2, 61, 0
4, 129120, Note_on_c, 2, 64, 69
4, 129144, Note_on_c, 2, 64, 0
4, 129168, Note_on_c, 2, 66, 70
4, 129192, Note_on_c, 2, 66, 0
4, 129216, Note_on_c, 2, 64, 71
4, 129240, Note_on_c, 2, 64, 0
4, 129264, Note_on_c, 2, 66, 72
4, 129288, Note_on_c, 2, 66, 0
4, 129312, Note_on_c, 2, 62, 72
4, 129336, Note_on_c, 2, 62, 0
4, 129360, Note_on_c, 2, 61, 73
4, 129384, Note_on_c, 2, 61, 0
4, 129408, Note_on_c, 2, 59, 74
4, 129432, Note_on_c, 2, 59, 0
4, 129456, Note_on_c, 2, 57, 75
4, 129480, Note_on_c, 2, 57, 0
4, 129504, Note_on_c, 2, 55, 75
4, 129528, Note_on_c, 2, 55, 0
4, 129552, Note_on_c, 2, 54, 76
4, 129576, Note_on_c, 2, 54, 0
4, 129600, Note_on_c, 2, 50, 77
4, 129624, Note_on_c, 2, 50, 0
4, 129648, Note_on_c, 2, 50, 78
4, 129672, Note_on_c, 2, 50, 0
4, 129696, Note_on_c, 2, 52, 78
4, 129720, Note_on_c, 2, 52, 0
4, 129744, Note_on_c, 2, 54, 79
4, 129768, Note_on_c, 2, 54, 0
4, 129792, Note_on_c, 2, 57, 80
4, 129816, Note_on_c, 2, 57, 0
4, 129840, Note_on_c, 2, 61, 81
4, 129864, Note_on_c, 2, 61, 0
4, 129888, Note_on_c, 2, 64, 81
4, 129912, Note_on_c, 2, 64, 0
4, 129936, Note_on_c, 2, 66, 82
4, 129960, Note_on_c, 2, 66, 0
4, 129984, Note_on_c, 2, 64, 83
4, 130008, Note_on_c, 2, 64, 0
4, 130032, Note_on_c, 2, 66, 84
4, 130056, Note_on_c, 2, 66, 0
4, 130080, Note_on_c, 2, 62, 84
4, 130104, Note_on_c, 2, 62, 0
4, 130128, Note_on_c, 2, 61, 85
4, 130152, Note_on_c, 2, 61, 0
4, 130176, Note_on_c, 2, 59, 86
4, 130200, Note_on_c, 2, 59, 0
4, 130224, Note_on_c, 2, 57, 87
4, 130248, Note_on_c, 2, 57, 0
4, 130272, Note_on_c, 2, 55, 87
4, 130296, Note_on_c, 2, 55, 0
4, 130320, Note_on_c, 2, 54, 88
4, 130344, Note_on_c, 2, 54, 0
4, 130368, Note_on_c, 2, 50, 89
4, 130392, Note_on_c, 2, 50, 0
4, 130416, Note_on_c, 2, 50, 90
4, 130440, Note_on_c, 2, 50, 0
4, 130464, Note_on_c, 2, 52, 90
4, 130488, Note_on_c, 2, 52, 0
4, 130512, Note_on_c, 2, 54, 91
4, 130536, Note_on_c, 2, 54, 0
4, 130560, Note_on_c, 2, 57, 92
4, 130584, Note_on_c, 2, 57, 0
4, 130608, Note_on_c, 2, 61, 93
4, 130632, Note_on_c, 2, 61, 0
4, 130656, Note_on_c, 2, 64, 93
4, 130680, Note_on_c, 2, 64, 0
4, 130704, Note_on_c, 2, 66, 100
4, 130728, Note_on_c, 2, 66, 0
4, 130752, Note_on_c, 2, 64, 100
4, 130776, Note_on_c, 2, 64, 0
4, 130800, Note_on_c, 2, 66, 106
4, 130824, Note_on_c, 2, 66, 0
4, 130848, Note_on_c, 2, 62, 102
4, 130872, Note_on_c, 2, 62, 0
4, 130896, Note_on_c, 2, 61, 101
4, 130920, Note_on_c, 2, 61, 0
4, 130944, Note_on_c, 2, 59, 99
4, 130968, Note_on_c, 2, 59, 0
4, 130992, Note_on_c, 2, 57, 97
4, 131016, Note_on_c, 2, 57, 0
4, 131040, Note_on_c, 2, 55, 95
4, 131064, Note_on_c, 2, 55, 0
4, 131088, Note_on_c, 2, 54, 94
4, 131112, Note_on_c, 2, 54, 0
4, 131136, Note_on_c, 2, 50, 90
4, 131160, Note_on_c, 2, 50, 0
4, 131184, Note_on_c, 2, 50, 90
4, 131208, Note_on_c, 2, 50, 0
4, 131232, Note_on_c, 2, 62, 102
4, 131256, Note_on_c, 2, 62, 0
4, 131280, Note_on_c, 2, 57, 97
4, 131304, Note_on_c, 2, 57, 0
4, 131328, Note_on_c, 2, 69, 109
4, 131352, Note_on_c, 2, 69, 0
4, 131376, Note_on_c, 2, 62, 106
4, 131376, Note_on_c, 2, 66, 106
4, 131400, Note_on_c, 2, 66, 0
4, 131400, Note_on_c, 2, 62, 0
4, 131472, Control_c, 2, 11, 60
4, 131472, Note_on_c, 2, 50, 100
4, 131522, Note_on_c, 2, 50, 0
4, 131522, Note_on_c, 2, 52, 100
4, 131570, Note_on_c, 2, 52, 0
4, 131570, Note_on_c, 2, 54, 100
4, 131618, Note_on_c, 2, 54, 0
4, 131618, Note_on_c, 2, 55, 100
4, 131666, Note_on_c, 2, 55, 0
4, 131666, Control_c, 2, 11, 60
4, 131666, Note_on_c, 2, 57, 100
4, 131694, Control_c, 2, 11, 61
4, 131714, Note_on_c, 2, 57, 0
4, 131714, Note_on_c, 2, 59, 100
4, 131722, Control_c, 2, 11, 62
4, 131750, Control_c, 2, 11, 63
4, 131762, Note_on_c, 2, 59, 0
4, 131762, Note_on_c, 2, 59, 100
4, 131778, Control_c, 2, 11, 64
4, 131806, Control_c, 2, 11, 65
4, 131810, Note_on_c, 2, 59, 0
4, 131810, Note_on_c, 2, 57, 100
4, 131834, Control_c, 2, 11, 66
4, 131858, Note_on_c, 2, 57, 0
4, 131858, Note_on_c, 2, 59, 100
4, 131861, Control_c, 2, 11, 67
4, 131889, Control_c, 2, 11, 68
4, 131906, Note_on_c, 2, 59, 0
4, 131906, Note_on_c, 2, 61, 100
4, 131917, Control_c, 2, 11, 69
4, 131945, Control_c, 2, 11, 70
4, 131954, Note_on_c, 2, 61, 0
4, 131954, Note_on_c, 2, 62, 100
4, 131973, Control_c, 2, 11, 71
4, 132001, Control_c, 2, 11, 72
4, 132002, Note_on_c, 2, 62, 0
4, 132002, Note_on_c, 2, 61, 100
4, 132028, Control_c, 2, 11, 73
4, 132050, Note_on_c, 2, 61, 0
4, 132050, Note_on_c, 2, 62, 100
4, 132056, Control_c, 2, 11, 74
4, 132084, Control_c, 2, 11, 75
4, 132098, Note_on_c, 2, 62, 0
4, 132098, Note_on_c, 2, 64, 100
4, 132112, Control_c, 2, 11, 76
4, 132140, Control_c, 2, 11, 77
4, 132146, Note_on_c, 2, 64, 0
4, 132146, Note_on_c, 2, 62, 100
4, 132168, Control_c, 2, 11, 78
4, 132194, Note_on_c, 2, 62, 0
4, 132194, Note_on_c, 2, 61, 100
4, 132195, Control_c, 2, 11, 79
4, 132223, Control_c, 2, 11, 80
4, 132242, Note_on_c, 2, 61, 0
4, 132242, Note_on_c, 2, 62, 100
4, 132251, Control_c, 2, 11, 81
4, 132279, Control_c, 2, 11, 82
4, 132290, Note_on_c, 2, 62, 0
4, 132290, Note_on_c, 2, 64, 100
4, 132307, Control_c, 2, 11, 83
4, 132335, Control_c, 2, 11, 84
4, 132338, Note_on_c, 2, 64, 0
4, 132338, Note_on_c, 2, 66, 100
4, 132362, Control_c, 2, 11, 85
4, 132386, Note_on_c, 2, 66, 0
4, 132386, Note_on_c, 2, 64, 100
4, 132390, Control_c, 2, 11, 86
4, 132418, Control_c, 2, 11, 87
4, 132434, Note_on_c, 2, 64, 0
4, 132434, Note_on_c, 2, 66, 100
4, 132446, Control_c, 2, 11, 88
4, 132474, Control_c, 2, 11, 89
4, 132482, Note_on_c, 2, 66, 0
4, 132482, Note_on_c, 2, 67, 100
4, 132502, Control_c, 2, 11, 90
4, 132529, Control_c, 2, 11, 91
4, 132530, Note_on_c, 2, 67, 0
4, 132530, Note_on_c, 2, 69, 100
4, 132626, Note_on_c, 2, 69, 0
4, 132626, Control_c, 2, 11, 91
4, 132626, Note_on_c, 2, 71, 100
4, 132630, Control_c, 2, 11, 90
4, 132634, Control_c, 2, 11, 89
4, 132638, Control_c, 2, 11, 88
4, 132642, Control_c, 2, 11, 87
4, 132646, Control_c, 2, 11, 86
4, 132650, Control_c, 2, 11, 85
4, 132654, Control_c, 2, 11, 84
4, 132658, Control_c, 2, 11, 83
4, 132662, Control_c, 2, 11, 82
4, 132666, Control_c, 2, 11, 81
4, 132670, Control_c, 2, 11, 80
4, 132674, Note_on_c, 2, 71, 0
4, 132674, Note_on_c, 2, 67, 100
4, 132674, Control_c, 2, 11, 79
4, 132678, Control_c, 2, 11, 78
4, 132682, Control_c, 2, 11, 77
4, 132686, Control_c, 2, 11, 76
4, 132690, Control_c, 2, 11, 75
4, 132694, Control_c, 2, 11, 74
4, 132698, Control_c, 2, 11, 73
4, 132702, Control_c, 2, 11, 72
4, 132706, Control_c, 2, 11, 71
4, 132710, Control_c, 2, 11, 70
4, 132714, Control_c, 2, 11, 69
4, 132718, Control_c, 2, 11, 68
4, 132721, Control_c, 2, 11, 67
4, 132722, Note_on_c, 2, 67, 0
4, 132722, Control_c, 2, 11, 60
4, 132722, Note_on_c, 2, 66, 100
4, 132770, Note_on_c, 2, 66, 0
4, 132818, Note_on_c, 2, 64, 100
4, 132866, Note_on_c, 2, 64, 0
4, 132914, Note_on_c, 2, 62, 100
4, 132962, Note_on_c, 2, 62, 0
4, 133010, Note_on_c, 2, 50, 100
4, 133058, Note_on_c, 2, 50, 0
4, 133058, Note_on_c, 2, 52, 100
4, 133106, Note_on_c, 2, 52, 0
4, 133106, Note_on_c, 2, 54, 100
4, 133154, Note_on_c, 2, 54, 0
4, 133154, Note_on_c, 2, 55, 100
4, 133202, Note_on_c, 2, 55, 0
4, 133202, Note_on_c, 2, 57, 100
4, 133250, Note_on_c, 2, 57, 0
4, 133250, Note_on_c, 2, 59, 100
4, 133298, Note_on_c, 2, 59, 0
4, 133298, Note_on_c, 2, 59, 100
4, 133346, Note_on_c, 2, 59, 0
4, 133346, Control_c, 2, 11, 60
4, 133346, Note_on_c, 2, 57, 100
4, 133370, Control_c, 2, 11, 61
4, 133394, Note_on_c, 2, 57, 0
4, 133394, Note_on_c, 2, 59, 100
4, 133394, Control_c, 2, 11, 62
4, 133418, Control_c, 2, 11, 63
4, 133442, Note_on_c, 2, 59, 0
4, 133442, Note_on_c, 2, 61, 100
4, 133442, Control_c, 2, 11, 64
4, 133466, Control_c, 2, 11, 65
4, 133490, Note_on_c, 2, 61, 0
4, 133490, Note_on_c, 2, 62, 100
4, 133490, Control_c, 2, 11, 66
4, 133514, Control_c, 2, 11, 67
4, 133538, Note_on_c, 2, 62, 0
4, 133538, Note_on_c, 2, 61, 100
4, 133538, Control_c, 2, 11, 68
4, 133562, Control_c, 2, 11, 69
4, 133586, Note_on_c, 2, 61, 0
4, 133586, Note_on_c, 2, 62, 100
4, 133586, Control_c, 2, 11, 70
4, 133610, Control_c, 2, 11, 71
4, 133634, Note_on_c, 2, 62, 0
4, 133634, Note_on_c, 2, 64, 100
4, 133634, Control_c, 2, 11, 72
4, 133658, Control_c, 2, 11, 73
4, 133682, Note_on_c, 2, 64, 0
4, 133682, Note_on_c, 2, 62, 100
4, 133682, Control_c, 2, 11, 74
4, 133706, Control_c, 2, 11, 75
4, 133730, Note_on_c, 2, 62, 0
4, 133730, Note_on_c, 2, 61, 100
4, 133730, Control_c, 2, 11, 76
4, 133754, Control_c, 2, 11, 77
4, 133778, Note_on_c, 2, 61, 0
4, 133778, Note_on_c, 2, 62, 100
4, 133778, Control_c, 2, 11, 78
4, 133802, Control_c, 2, 11, 79
4, 133826, Note_on_c, 2, 62, 0
4, 133826, Note_on_c, 2, 64, 100
4, 133826, Control_c, 2, 11, 80
4, 133850, Control_c, 2, 11, 81
4, 133874, Note_on_c, 2, 64, 0
4, 133874, Note_on_c, 2, 66, 100
4, 133874, Control_c, 2, 11, 82
4, 133898, Control_c, 2, 11, 83
4, 133922, Note_on_c, 2, 66, 0
4, 133922, Note_on_c, 2, 64, 100
4, 133922, Control_c, 2, 11, 84
4, 133946, Control_c, 2, 11, 85
4, 133970, Note_on_c, 2, 64, 0
4, 133970, Note_on_c, 2, 66, 100
4, 133970, Control_c, 2, 11, 86
4, 133994, Control_c, 2, 11, 87
4, 134018, Note_on_c, 2, 66, 0
4, 134018, Note_on_c, 2, 67, 100
4, 134018, Control_c, 2, 11, 88
4, 134042, Control_c, 2, 11, 89
4, 134065, Control_c, 2, 11, 90
4, 134066, Note_on_c, 2, 67, 0
4, 134066, Note_on_c, 2, 69, 100
4, 134162, Note_on_c, 2, 69, 0
4, 134162, Control_c, 2, 11, 90
4, 134162, Note_on_c, 2, 71, 100
4, 134166, Control_c, 2, 11, 89
4, 134170, Control_c, 2, 11, 88
4, 134174, Control_c, 2, 11, 87
4, 134178, Control_c, 2, 11, 86
4, 134182, Control_c, 2, 11, 85
4, 134186, Control_c, 2, 11, 84
4, 134190, Control_c, 2, 11, 83
4, 134194, Control_c, 2, 11, 82
4, 134198, Control_c, 2, 11, 81
4, 134202, Control_c, 2, 11, 80
4, 134206, Control_c, 2, 11, 79
4, 134210, Note_on_c, 2, 71, 0
4, 134210, Note_on_c, 2, 67, 100
4, 134210, Control_c, 2, 11, 78
4, 134214, Control_c, 2, 11, 77
4, 134218, Control_c, 2, 11, 76
4, 134222, Control_c, 2, 11, 75
4, 134226, Control_c, 2, 11, 74
4, 134230, Control_c, 2, 11, 73
4, 134234, Control_c, 2, 11, 72
4, 134238, Control_c, 2, 11, 71
4, 134242, Control_c, 2, 11, 70
4, 134246, Control_c, 2, 11, 69
4, 134250, Control_c, 2, 11, 68
4, 134254, Control_c, 2, 11, 67
4, 134257, Control_c, 2, 11, 66
4, 134258, Note_on_c, 2, 67, 0
4, 134258, Control_c, 2, 11, 60
4, 134258, Note_on_c, 2, 66, 100
4, 134306, Note_on_c, 2, 66, 0
4, 134354, Note_on_c, 2, 64, 100
4, 134402, Note_on_c, 2, 64, 0
4, 135984, Control_c, 2, 11, 120
4, 136080, Note_on_c, 2, 74, 68
4, 136104, Note_on_c, 2, 74, 0
4, 136128, Note_on_c, 2, 73, 67
4, 136152, Note_on_c, 2, 73, 0
4, 136176, Note_on_c, 2, 74, 68
4, 136200, Note_on_c, 2, 74, 0
4, 136224, Note_on_c, 2, 71, 65
4, 136248, Note_on_c, 2, 71, 0
4, 136272, Note_on_c, 2, 69, 63
4, 136296, Note_on_c, 2, 69, 0
4, 136320, Note_on_c, 2, 67, 61
4, 136344, Note_on_c, 2, 67, 0
4, 136368, Note_on_c, 2, 66, 60
4, 136392, Note_on_c, 2, 66, 0
4, 136416, Note_on_c, 2, 64, 58
4, 136440, Note_on_c, 2, 64, 0
4, 136464, Note_on_c, 2, 62, 56
4, 136488, Note_on_c, 2, 62, 0
4, 136512, Note_on_c, 2, 60, 54
4, 136536, Note_on_c, 2, 60, 0
4, 136560, Note_on_c, 2, 59, 53
4, 136584, Note_on_c, 2, 59, 0
4, 136608, Note_on_c, 2, 61, 55
4, 136632, Note_on_c, 2, 61, 0
4, 136656, Note_on_c, 2, 62, 56
4, 136680, Note_on_c, 2, 62, 0
4, 136704, Note_on_c, 2, 66, 60
4, 136728, Note_on_c, 2, 66, 0
4, 136752, Note_on_c, 2, 69, 63
4, 136776, Note_on_c, 2, 69, 0
4, 136800, Note_on_c, 2, 67, 61
4, 136824, Note_on_c, 2, 67, 0
4, 136848, Note_on_c, 2, 66, 60
4, 136872, Note_on_c, 2, 66, 0
4, 141552, Note_on_c, 2, 54, 100
4, 141576, Note_on_c, 2, 54, 0
4, 141648, Note_on_c, 2, 66, 60
4, 141672, Note_on_c, 2, 66, 0
4, 141696, Note_on_c, 2, 64, 60
4, 141720, Note_on_c, 2, 64, 0
4, 141744, Note_on_c, 2, 66, 60
4, 141768, Note_on_c, 2, 66, 0
4, 141792, Note_on_c, 2, 62, 60
4, 141816, Note_on_c, 2, 62, 0
4, 141840, Note_on_c, 2, 61, 61
4, 141864, Note_on_c, 2, 61, 0
4, 141888, Note_on_c, 2, 59, 62
4, 141912, Note_on_c, 2, 59, 0
4, 141936, Note_on_c, 2, 57, 63
4, 141960, Note_on_c, 2, 57, 0
4, 141984, Note_on_c, 2, 55, 63
4, 142008, Note_on_c, 2, 55, 0
4, 142032, Note_on_c, 2, 54, 64
4, 142056, Note_on_c, 2, 54, 0
4, 142080, Note_on_c, 2, 50, 65
4, 142104, Note_on_c, 2, 50, 0
4, 142128, Note_on_c, 2, 50, 66
4, 142152, Note_on_c, 2, 50, 0
4, 142176, Note_on_c, 2, 52, 66
4, 142200, Note_on_c, 2, 52, 0
4, 142224, Note_on_c, 2, 54, 67
4, 142248, Note_on_c, 2, 54, 0
4, 142272, Note_on_c, 2, 57, 68
4, 142296, Note_on_c, 2, 57, 0
4, 142320, Note_on_c, 2, 61, 69
4, 142344, Note_on_c, 2, 61, 0
4, 142368, Note_on_c, 2, 64, 69
4, 142392, Note_on_c, 2, 64, 0
4, 142416, Note_on_c, 2, 66, 70
4, 142440, Note_on_c, 2, 66, 0
4, 142464, Note_on_c, 2, 64, 71
4, 142488, Note_on_c, 2, 64, 0
4, 142512, Note_on_c, 2, 66, 72
4, 142536, Note_on_c, 2, 66, 0
4, 142560, Note_on_c, 2, 62, 72
4, 142584, Note_on_c, 2, 62, 0
4, 142608, Note_on_c, 2, 61, 73
4, 142632, Note_on_c, 2, 61, 0
4, 142656, Note_on_c, 2, 59, 74
4, 142680, Note_on_c, 2, 59, 0
4, 142704, Note_on_c, 2, 57, 75
4, 142728, Note_on_c, 2, 57, 0
4, 142752, Note_on_c, 2, 55, 75
4, 142776, Note_on_c, 2, 55, 0
4, 142800, Note_on_c, 2, 54, 76
4, 142824, Note_on_c, 2, 54, 0
4, 142848, Note_on_c, 2, 50, 77
4, 142872, Note_on_c, 2, 50, 0
4, 142896, Note_on_c, 2, 50, 78
4, 142920, Note_on_c, 2, 50, 0
4, 142944, Note_on_c, 2, 52, 78
4, 142968, Note_on_c, 2, 52, 0
4, 142992, Note_on_c, 2, 54, 79
4, 143016, Note_on_c, 2, 54, 0
4, 143040, Note_on_c, 2, 57, 80
4, 143064, Note_on_c, 2, 57, 0
4, 143088, Note_on_c, 2, 61, 81
4, 143112, Note_on_c, 2, 61, 0
4, 143136, Note_on_c, 2, 64, 81
4, 143160, Note_on_c, 2, 64, 0
4, 143184, Note_on_c, 2, 66, 82
4, 143208, Note_on_c, 2, 66, 0
4, 143232, Note_on_c, 2, 64, 83
4, 143256, Note_on_c, 2, 64, 0
4, 143280, Note_on_c, 2, 66, 84
4, 143304, Note_on_c, 2, 66, 0
4, 143328, Note_on_c, 2, 62, 84
4, 143352, Note_on_c, 2, 62, 0
4, 143376, Note_on_c, 2, 61, 85
4, 143400, Note_on_c, 2, 61, 0
4, 143424, Note_on_c, 2, 59, 86
4, 143448, Note_on_c, 2, 59, 0
4, 143472, Note_on_c, 2, 57, 87
4, 143496, Note_on_c, 2, 57, 0
4, 143520, Note_on_c, 2, 55, 87
4, 143544, Note_on_c, 2, 55, 0
4, 143568, Note_on_c, 2, 54, 88
4, 143592, Note_on_c, 2, 54, 0
4, 143616, Note_on_c, 2, 50, 89
4, 143640, Note_on_c, 2, 50, 0
4, 143664, Note_on_c, 2, 50, 90
4, 143688, Note_on_c, 2, 50, 0
4, 143712, Note_on_c, 2, 52, 90
4, 143736, Note_on_c, 2, 52, 0
4, 143760, Note_on_c, 2, 54, 91
4, 143784, Note_on_c, 2, 54, 0
4, 143808, Note_on_c, 2, 57, 92
4, 143832, Note_on_c, 2, 57, 0
4, 143856, Note_on_c, 2, 61, 93
4, 143880, Note_on_c, 2, 61, 0
4, 143904, Note_on_c, 2, 64, 93
4, 143928, Note_on_c, 2, 64, 0
4, 143952, Note_on_c, 2, 66, 100
4, 143976, Note_on_c, 2, 66, 0
4, 144000, Note_on_c, 2, 64, 100
4, 144024, Note_on_c, 2, 64, 0
4, 144048, Note_on_c, 2, 66, 106
4, 144072, Note_on_c, 2, 66, 0
4, 144096, Note_on_c, 2, 62, 102
4, 144120, Note_on_c, 2, 62, 0
4, 144144, Note_on_c, 2, 61, 101
4, 144168, Note_on_c, 2, 61, 0
4, 144192, Note_on_c, 2, 59, 99
4, 144216, Note_on_c, 2, 59, 0
4, 144240, Note_on_c, 2, 57, 97
4, 144264, Note_on_c, 2, 57, 0
4, 144288, Note_on_c, 2, 55, 95
4, 144312, Note_on_c, 2, 55, 0
4, 144336, Note_on_c, 2, 54, 94
4, 144360, Note_on_c, 2, 54, 0
4, 144384, Note_on_c, 2, 50, 90
4, 144408, Note_on_c, 2, 50, 0
4, 144432, Note_on_c, 2, 50, 100
4, 144456, Note_on_c, 2, 50, 0
4, 144480, Note_on_c, 2, 62, 100
4, 144504, Note_on_c, 2, 62, 0
4, 144528, Note_on_c, 2, 57, 110
4, 144552, Note_on_c, 2, 57, 0
4, 144576, Note_on_c, 2, 69, 110
4, 144600, Note_on_c, 2, 69, 0
4, 144624, Control_c, 2, 11, 95
4, 144624, Note_on_c, 2, 50, 120
4, 144625, Control_c, 2, 11, 90
4, 144626, Control_c, 2, 11, 87
4, 144627, Control_c, 2, 11, 84
4, 144628, Control_c, 2, 11, 81
4, 144629, Control_c, 2, 11, 79
4, 144630, Control_c, 2, 11, 77
4, 144631, Control_c, 2, 11, 74
4, 144632, Control_c, 2, 11, 73
4, 144633, Control_c, 2, 11, 71
4, 144634, Control_c, 2, 11, 70
4, 144635, Control_c, 2, 11, 69
4, 144636, Control_c, 2, 11, 68
4, 144637, Control_c, 2, 11, 67
4, 144638, Control_c, 2, 11, 66
4, 144639, Control_c, 2, 11, 65
4, 144641, Control_c, 2, 11, 64
4, 144642, Control_c, 2, 11, 63
4, 144645, Control_c, 2, 11, 62
4, 144648, Control_c, 2, 11, 61
4, 144654, Control_c, 2, 11, 60
4, 144908, Note_on_c, 2, 50, 0
4, 144912, Note_on_c, 2, 52, 120
4, 145004, Note_on_c, 2, 52, 0
4, 145008, Note_on_c, 2, 54, 120
4, 145152, Note_on_c, 2, 55, 120
4, 145153, Note_on_c, 2, 54, 0
4, 145176, Note_on_c, 2, 55, 0
4, 145176, Note_on_c, 2, 57, 120
4, 145200, Note_on_c, 2, 57, 0
4, 145200, Note_on_c, 2, 55, 120
4, 145224, Note_on_c, 2, 55, 0
4, 145248, Note_on_c, 2, 55, 120
4, 145272, Note_on_c, 2, 55, 0
4, 145296, Note_on_c, 2, 54, 120
4, 145320, Note_on_c, 2, 54, 0
4, 145344, Note_on_c, 2, 54, 120
4, 145368, Note_on_c, 2, 54, 0
4, 145392, Note_on_c, 2, 52, 120
4, 145484, Note_on_c, 2, 52, 0
4, 145488, Control_c, 2, 11, 60
4, 145488, Note_on_c, 2, 50, 120
4, 145530, Control_c, 2, 11, 61
4, 145571, Control_c, 2, 11, 62
4, 145612, Control_c, 2, 11, 63
4, 145653, Control_c, 2, 11, 64
4, 145678, Note_on_c, 2, 50, 0
4, 145680, Note_on_c, 2, 52, 120
4, 145694, Control_c, 2, 11, 65
4, 145735, Control_c, 2, 11, 66
4, 145772, Note_on_c, 2, 52, 0
4, 145776, Note_on_c, 2, 54, 120
4, 145776, Control_c, 2, 11, 67
4, 145817, Control_c, 2, 11, 68
4, 145859, Control_c, 2, 11, 69
4, 145868, Note_on_c, 2, 54, 0
4, 145872, Note_on_c, 2, 54, 120
4, 145900, Control_c, 2, 11, 70
4, 145941, Control_c, 2, 11, 71
4, 145982, Control_c, 2, 11, 72
4, 146023, Control_c, 2, 11, 73
4, 146062, Note_on_c, 2, 54, 0
4, 146064, Note_on_c, 2, 55, 120
4, 146064, Control_c, 2, 11, 74
4, 146105, Control_c, 2, 11, 75
4, 146146, Control_c, 2, 11, 76
4, 146156, Note_on_c, 2, 55, 0
4, 146160, Note_on_c, 2, 57, 120
4, 146187, Control_c, 2, 11, 77
4, 146229, Control_c, 2, 11, 78
4, 146252, Note_on_c, 2, 57, 0
4, 146256, Note_on_c, 2, 57, 120
4, 146270, Control_c, 2, 11, 79
4, 146311, Control_c, 2, 11, 80
4, 146352, Control_c, 2, 11, 81
4, 146393, Control_c, 2, 11, 82
4, 146434, Control_c, 2, 11, 83
4, 146446, Note_on_c, 2, 57, 0
4, 146448, Note_on_c, 2, 55, 120
4, 146475, Control_c, 2, 11, 84
4, 146516, Control_c, 2, 11, 85
4, 146540, Note_on_c, 2, 55, 0
4, 146544, Note_on_c, 2, 54, 120
4, 146557, Control_c, 2, 11, 86
4, 146599, Control_c, 2, 11, 87
4, 146636, Note_on_c, 2, 54, 0
4, 146640, Note_on_c, 2, 54, 120
4, 146640, Note_on_c, 2, 57, 120
4, 146640, Control_c, 2, 11, 88
4, 146681, Control_c, 2, 11, 89
4, 146722, Control_c, 2, 11, 90
4, 146763, Control_c, 2, 11, 91
4, 146804, Control_c, 2, 11, 92
4, 146830, Note_on_c, 2, 57, 0
4, 146830, Note_on_c, 2, 54, 0
4, 146832, Note_on_c, 2, 52, 120
4, 146832, Note_on_c, 2, 55, 120
4, 146845, Control_c, 2, 11, 93
4, 146886, Control_c, 2, 11, 94
4, 146924, Note_on_c, 2, 55, 0
4, 146924, Note_on_c, 2, 52, 0
4, 146927, Control_c, 2, 11, 95
4, 146928, Control_c, 2, 99, 1
4, 146928, Control_c, 2, 98, 102
4, 146928, Control_c, 2, 6, 68
4, 146928, Note_on_c, 2, 54, 120
4, 146928, Note_on_c, 2, 57, 120
4, 146998, Note_on_c, 2, 57, 0
4, 146998, Note_on_c, 2, 54, 0
4, 147024, Note_on_c, 2, 54, 115
4, 147094, Note_on_c, 2, 54, 0
4, 147120, Note_on_c, 2, 52, 120
4, 147120, Note_on_c, 2, 55, 120
4, 147190, Note_on_c, 2, 55, 0
4, 147190, Note_on_c, 2, 52, 0
4, 147216, Note_on_c, 2, 52, 115
4, 147216, Note_on_c, 2, 55, 115
4, 147286, Note_on_c, 2, 55, 0
4, 147286, Note_on_c, 2, 52, 0
4, 147312, Note_on_c, 2, 54, 120
4, 147382, Note_on_c, 2, 54, 0
4, 147408, Note_on_c, 2, 54, 111
4, 147478, Note_on_c, 2, 54, 0
4, 147504, Note_on_c, 2, 52, 101
4, 147504, Note_on_c, 2, 55, 101
4, 147574, Note_on_c, 2, 55, 0
4, 147574, Note_on_c, 2, 52, 0
4, 147600, Note_on_c, 2, 52, 91
4, 147600, Note_on_c, 2, 55, 91
4, 147670, Note_on_c, 2, 55, 0
4, 147670, Note_on_c, 2, 52, 0
4, 147696, Control_c, 2, 6, 64
4, 147696, Note_on_c, 2, 54, 60
4, 147788, Note_on_c, 2, 54, 0
4, 147792, Note_on_c, 2, 62, 62
4, 147816, Note_on_c, 2, 62, 0
4, 147840, Note_on_c, 2, 61, 63
4, 147864, Note_on_c, 2, 61, 0
4, 147888, Note_on_c, 2, 62, 64
4, 147912, Note_on_c, 2, 62, 0
4, 147936, Note_on_c, 2, 59, 65
4, 147960, Note_on_c, 2, 59, 0
4, 147984, Note_on_c, 2, 57, 66
4, 148008, Note_on_c, 2, 57, 0
4, 148032, Note_on_c, 2, 55, 67
4, 148056, Note_on_c, 2, 55, 0
4, 148080, Note_on_c, 2, 54, 69
4, 148104, Note_on_c, 2, 54, 0
4, 148128, Note_on_c, 2, 50, 70
4, 148152, Note_on_c, 2, 50, 0
4, 148176, Note_on_c, 2, 66, 71
4, 148200, Note_on_c, 2, 66, 0
4, 148224, Note_on_c, 2, 64, 72
4, 148248, Note_on_c, 2, 64, 0
4, 148272, Note_on_c, 2, 66, 73
4, 148296, Note_on_c, 2, 66, 0
4, 148320, Note_on_c, 2, 62, 74
4, 148344, Note_on_c, 2, 62, 0
4, 148368, Note_on_c, 2, 61, 75
4, 148392, Note_on_c, 2, 61, 0
4, 148416, Note_on_c, 2, 59, 76
4, 148440, Note_on_c, 2, 59, 0
4, 148464, Note_on_c, 2, 57, 78
4, 148488, Note_on_c, 2, 57, 0
4, 148512, Note_on_c, 2, 54, 79
4, 148536, Note_on_c, 2, 54, 0
4, 148560, Note_on_c, 2, 69, 80
4, 148584, Note_on_c, 2, 69, 0
4, 148608, Note_on_c, 2, 68, 81
4, 148632, Note_on_c, 2, 68, 0
4, 148656, Note_on_c, 2, 69, 82
4, 148680, Note_on_c, 2, 69, 0
4, 148704, Note_on_c, 2, 66, 83
4, 148728, Note_on_c, 2, 66, 0
4, 148752, Note_on_c, 2, 64, 84
4, 148776, Note_on_c, 2, 64, 0
4, 148800, Note_on_c, 2, 62, 85
4, 148824, Note_on_c, 2, 62, 0
4, 148848, Note_on_c, 2, 57, 87
4, 148872, Note_on_c, 2, 57, 0
4, 148896, Note_on_c, 2, 62, 88
4, 148920, Note_on_c, 2, 62, 0
4, 148944, Note_on_c, 2, 69, 89
4, 148968, Note_on_c, 2, 69, 0
4, 148992, Note_on_c, 2, 68, 90
4, 149016, Note_on_c, 2, 68, 0
4, 149040, Note_on_c, 2, 69, 91
4, 149064, Note_on_c, 2, 69, 0
4, 149088, Note_on_c, 2, 66, 92
4, 149112, Note_on_c, 2, 66, 0
4, 149136, Note_on_c, 2, 64, 93
4, 149160, Note_on_c, 2, 64, 0
4, 149184, Note_on_c, 2, 62, 94
4, 149208, Note_on_c, 2, 62, 0
4, 149232, Note_on_c, 2, 57, 95
4, 149256, Note_on_c, 2, 57, 0
4, 149280, Note_on_c, 2, 62, 95
4, 149304, Note_on_c, 2, 62, 0
4, 149328, Note_on_c, 2, 64, 95
4, 149352, Note_on_c, 2, 64, 0
4, 149376, Note_on_c, 2, 62, 95
4, 149400, Note_on_c, 2, 62, 0
4, 149424, Note_on_c, 2, 57, 95
4, 149448, Note_on_c, 2, 57, 0
4, 149472, Note_on_c, 2, 64, 95
4, 149496, Note_on_c, 2, 64, 0
4, 149520, Note_on_c, 2, 66, 95
4, 149544, Note_on_c, 2, 66, 0
4, 149568, Note_on_c, 2, 64, 95
4, 149592, Note_on_c, 2, 64, 0
4, 149616, Note_on_c, 2, 57, 95
4, 149640, Note_on_c, 2, 57, 0
4, 149664, Note_on_c, 2, 62, 94
4, 149688, Note_on_c, 2, 62, 0
4, 149712, Note_on_c, 2, 64, 93
4, 149736, Note_on_c, 2, 64, 0
4, 149760, Note_on_c, 2, 62, 92
4, 149784, Note_on_c, 2, 62, 0
4, 149808, Note_on_c, 2, 57, 91
4, 149832, Note_on_c, 2, 57, 0
4, 149856, Note_on_c, 2, 64, 90
4, 149880, Note_on_c, 2, 64, 0
4, 149904, Note_on_c, 2, 66, 89
4, 149928, Note_on_c, 2, 66, 0
4, 149952, Note_on_c, 2, 64, 88
4, 149976, Note_on_c, 2, 64, 0
4, 150000, Note_on_c, 2, 57, 86
4, 150024, Note_on_c, 2, 57, 0
4, 150048, Note_on_c, 2, 62, 85
4, 150072, Note_on_c, 2, 62, 0
4, 150096, Note_on_c, 2, 64, 84
4, 150120, Note_on_c, 2, 64, 0
4, 150144, Note_on_c, 2, 62, 83
4, 150168, Note_on_c, 2, 62, 0
4, 150192, Note_on_c, 2, 57, 82
4, 150216, Note_on_c, 2, 57, 0
4, 150240, Note_on_c, 2, 64, 81
4, 150264, Note_on_c, 2, 64, 0
4, 150288, Note_on_c, 2, 66, 80
4, 150312, Note_on_c, 2, 66, 0
4, 150336, Note_on_c, 2, 64, 79
4, 150360, Note_on_c, 2, 64, 0
4, 150384, Note_on_c, 2, 57, 77
4, 150408, Note_on_c, 2, 57, 0
4, 150432, Note_on_c, 2, 62, 76
4, 150456, Note_on_c, 2, 62, 0
4, 150480, Note_on_c, 2, 64, 75
4, 150504, Note_on_c, 2, 64, 0
4, 150528, Note_on_c, 2, 62, 74
4, 150552, Note_on_c, 2, 62, 0
4, 150576, Note_on_c, 2, 57, 73
4, 150600, Note_on_c, 2, 57, 0
4, 150624, Note_on_c, 2, 64, 72
4, 150648, Note_on_c, 2, 64, 0
4, 150672, Note_on_c, 2, 66, 71
4, 150696, Note_on_c, 2, 66, 0
4, 150720, Note_on_c, 2, 64, 70
4, 150744, Note_on_c, 2, 64, 0
4, 150768, Note_on_c, 2, 57, 70
4, 150792, Note_on_c, 2, 57, 0
4, 150816, Note_on_c, 2, 62, 70
4, 150840, Note_on_c, 2, 62, 0
4, 150864, Note_on_c, 2, 62, 69
4, 150912, Note_on_c, 2, 62, 0
4, 150912, Note_on_c, 2, 61, 69
4, 150960, Note_on_c, 2, 61, 0
4, 150960, Note_on_c, 2, 62, 68
4, 151008, Note_on_c, 2, 62, 0
4, 151008, Note_on_c, 2, 59, 68
4, 151056, Note_on_c, 2, 59, 0
4, 151056, Note_on_c, 2, 57, 67
4, 151104, Note_on_c, 2, 57, 0
4, 151104, Note_on_c, 2, 55, 67
4, 151152, Note_on_c, 2, 55, 0
4, 151152, Note_on_c, 2, 62, 66
4, 151200, Note_on_c, 2, 62, 0
4, 152304, Control_c, 2, 7, 123
4, 152304, Control_c, 2, 11, 120
4, 152304, Program_c, 2, 48
4, 152304, Control_c, 2, 99, 1
4, 152304, Control_c, 2, 98, 99
4, 152304, Control_c, 2, 6, 14
4, 152304, Note_on_c, 2, 74, 110
4, 152339, Note_on_c, 2, 74, 0
4, 152376, Note_on_c, 2, 62, 100
4, 152388, Note_on_c, 2, 62, 0
4, 152400, Note_on_c, 2, 62, 100
4, 152424, Note_on_c, 2, 62, 0
4, 152592, Note_on_c, 2, 69, 110
4, 152627, Note_on_c, 2, 69, 0
4, 152664, Note_on_c, 2, 57, 100
4, 152676, Note_on_c, 2, 57, 0
4, 152688, Note_on_c, 2, 57, 100
4, 152712, Note_on_c, 2, 57, 0
4, 153024, Note_on_c, 2, 62, 110
4, 153059, Note_on_c, 2, 62, 0
4, 153096, Note_on_c, 2, 50, 100
4, 153108, Note_on_c, 2, 50, 0
4, 153120, Note_on_c, 2, 50, 100
4, 153144, Note_on_c, 2, 50, 0
4, 154032, Note_on_c, 2, 74, 60
4, 154067, Note_on_c, 2, 74, 0
4, 154104, Note_on_c, 2, 62, 50
4, 154116, Note_on_c, 2, 62, 0
4, 154128, Note_on_c, 2, 62, 50
4, 154152, Note_on_c, 2, 62, 0
4, 154176, Note_on_c, 2, 69, 55
4, 154200, Note_on_c, 2, 69, 0
4, 154224, Note_on_c, 2, 71, 50
4, 154248, Note_on_c, 2, 71, 0
4, 154272, Note_on_c, 2, 72, 50
4, 154296, Note_on_c, 2, 72, 0
4, 154320, Note_on_c, 2, 71, 55
4, 154344, Note_on_c, 2, 71, 0
4, 154368, Note_on_c, 2, 72, 50
4, 154392, Note_on_c, 2, 72, 0
4, 154416, Note_on_c, 2, 74, 50
4, 154440, Note_on_c, 2, 74, 0
4, 154464, Note_on_c, 2, 72, 55
4, 154488, Note_on_c, 2, 72, 0
4, 154512, Note_on_c, 2, 71, 50
4, 154536, Note_on_c, 2, 71, 0
4, 154560, Note_on_c, 2, 69, 50
4, 154584, Note_on_c, 2, 69, 0
4, 154608, Note_on_c, 2, 70, 55
4, 154632, Note_on_c, 2, 70, 0
4, 154656, Note_on_c, 2, 69, 50
4, 154680, Note_on_c, 2, 69, 0
4, 154704, Note_on_c, 2, 67, 50
4, 154728, Note_on_c, 2, 67, 0
4, 154752, Note_on_c, 2, 65, 55
4, 154776, Note_on_c, 2, 65, 0
4, 154800, Note_on_c, 2, 64, 50
4, 154824, Note_on_c, 2, 64, 0
4, 154848, Note_on_c, 2, 62, 50
4, 154872, Note_on_c, 2, 62, 0
4, 154896, Note_on_c, 2, 61, 55
4, 154920, Note_on_c, 2, 61, 0
4, 154944, Note_on_c, 2, 62, 50
4, 154968, Note_on_c, 2, 62, 0
4, 154992, Note_on_c, 2, 64, 50
4, 155016, Note_on_c, 2, 64, 0
4, 155040, Note_on_c, 2, 62, 55
4, 155064, Note_on_c, 2, 62, 0
4, 155088, Note_on_c, 2, 61, 50
4, 155112, Note_on_c, 2, 61, 0
4, 155136, Note_on_c, 2, 62, 50
4, 155160, Note_on_c, 2, 62, 0
4, 155184, Note_on_c, 2, 69, 55
4, 155208, Note_on_c, 2, 69, 0
4, 155232, Note_on_c, 2, 67, 50
4, 155256, Note_on_c, 2, 67, 0
4, 155280, Note_on_c, 2, 65, 50
4, 155304, Note_on_c, 2, 65, 0
4, 155328, Note_on_c, 2, 64, 55
4, 155352, Note_on_c, 2, 64, 0
4, 155376, Note_on_c, 2, 76, 50
4, 155400, Note_on_c, 2, 76, 0
4, 155424, Note_on_c, 2, 76, 50
4, 155448, Note_on_c, 2, 76, 0
4, 155472, Note_on_c, 2, 76, 55
4, 155496, Note_on_c, 2, 76, 0
4, 155520, Note_on_c, 2, 76, 50
4, 155544, Note_on_c, 2, 76, 0
4, 155568, Note_on_c, 2, 76, 50
4, 155592, Note_on_c, 2, 76, 0
4, 155616, Note_on_c, 2, 76, 55
4, 155640, Note_on_c, 2, 76, 0
4, 155664, Note_on_c, 2, 76, 50
4, 155688, Note_on_c, 2, 76, 0
4, 155712, Note_on_c, 2, 76, 50
4, 155736, Note_on_c, 2, 76, 0
4, 155760, Note_on_c, 2, 64, 55
4, 155784, Note_on_c, 2, 64, 0
4, 155808, Note_on_c, 2, 65, 50
4, 155832, Note_on_c, 2, 65, 0
4, 155856, Note_on_c, 2, 67, 50
4, 155880, Note_on_c, 2, 67, 0
4, 155904, Note_on_c, 2, 65, 55
4, 155928, Note_on_c, 2, 65, 0
4, 155952, Note_on_c, 2, 67, 50
4, 155976, Note_on_c, 2, 67, 0
4, 156000, Note_on_c, 2, 69, 50
4, 156024, Note_on_c, 2, 69, 0
4, 156048, Note_on_c, 2, 67, 55
4, 156072, Note_on_c, 2, 67, 0
4, 156096, Note_on_c, 2, 65, 50
4, 156120, Note_on_c, 2, 65, 0
4, 156144, Note_on_c, 2, 64, 50
4, 156168, Note_on_c, 2, 64, 0
4, 156192, Note_on_c, 2, 62, 55
4, 156216, Note_on_c, 2, 62, 0
4, 156240, Note_on_c, 2, 67, 50
4, 156264, Note_on_c, 2, 67, 0
4, 156288, Note_on_c, 2, 65, 50
4, 156312, Note_on_c, 2, 65, 0
4, 156336, Note_on_c, 2, 64, 55
4, 156360, Note_on_c, 2, 64, 0
4, 156384, Note_on_c, 2, 65, 50
4, 156408, Note_on_c, 2, 65, 0
4, 156432, Note_on_c, 2, 67, 50
4, 156456, Note_on_c, 2, 67, 0
4, 156480, Note_on_c, 2, 57, 55
4, 156504, Note_on_c, 2, 57, 0
4, 156528, Note_on_c, 2, 68, 50
4, 156552, Note_on_c, 2, 68, 0
4, 156576, Note_on_c, 2, 69, 50
4, 156600, Note_on_c, 2, 69, 0
4, 156624, Note_on_c, 2, 64, 55
4, 156648, Note_on_c, 2, 64, 0
4, 156672, Note_on_c, 2, 64, 50
4, 156696, Note_on_c, 2, 64, 0
4, 156720, Note_on_c, 2, 64, 50
4, 156744, Note_on_c, 2, 64, 0
4, 156768, Note_on_c, 2, 64, 55
4, 156792, Note_on_c, 2, 64, 0
4, 156816, Note_on_c, 2, 64, 50
4, 156840, Note_on_c, 2, 64, 0
4, 156864, Note_on_c, 2, 64, 50
4, 156888, Note_on_c, 2, 64, 0
4, 156912, Note_on_c, 2, 55, 55
4, 156936, Note_on_c, 2, 55, 0
4, 156960, Note_on_c, 2, 53, 50
4, 156984, Note_on_c, 2, 53, 0
4, 157008, Note_on_c, 2, 52, 50
4, 157032, Note_on_c, 2, 52, 0
4, 157056, Note_on_c, 2, 57, 55
4, 157080, Note_on_c, 2, 57, 0
4, 157104, Note_on_c, 2, 55, 50
4, 157128, Note_on_c, 2, 55, 0
4, 157152, Note_on_c, 2, 53, 50
4, 157176, Note_on_c, 2, 53, 0
4, 157200, Note_on_c, 2, 52, 55
4, 157224, Note_on_c, 2, 52, 0
4, 157248, Note_on_c, 2, 53, 50
4, 157272, Note_on_c, 2, 53, 0
4, 157296, Note_on_c, 2, 55, 50
4, 157320, Note_on_c, 2, 55, 0
4, 157344, Note_on_c, 2, 57, 55
4, 157368, Note_on_c, 2, 57, 0
4, 157392, Note_on_c, 2, 57, 50
4, 157416, Note_on_c, 2, 57, 0
4, 157440, Note_on_c, 2, 57, 50
4, 157464, Note_on_c, 2, 57, 0
4, 157488, Note_on_c, 2, 56, 55
4, 157512, Note_on_c, 2, 56, 0
4, 157536, Note_on_c, 2, 57, 50
4, 157560, Note_on_c, 2, 57, 0
4, 157584, Note_on_c, 2, 59, 50
4, 157608, Note_on_c, 2, 59, 0
4, 157632, Note_on_c, 2, 60, 55
4, 157656, Note_on_c, 2, 60, 0
4, 157680, Note_on_c, 2, 62, 50
4, 157704, Note_on_c, 2, 62, 0
4, 157728, Note_on_c, 2, 64, 50
4, 157752, Note_on_c, 2, 64, 0
4, 157776, Note_on_c, 2, 65, 55
4, 157800, Note_on_c, 2, 65, 0
4, 157824, Note_on_c, 2, 64, 50
4, 157848, Note_on_c, 2, 64, 0
4, 157872, Note_on_c, 2, 62, 50
4, 157896, Note_on_c, 2, 62, 0
4, 157920, Note_on_c, 2, 60, 55
4, 157944, Note_on_c, 2, 60, 0
4, 157968, Note_on_c, 2, 59, 50
4, 157992, Note_on_c, 2, 59, 0
4, 158016, Note_on_c, 2, 57, 50
4, 158040, Note_on_c, 2, 57, 0
4, 158064, Note_on_c, 2, 57, 55
4, 158088, Note_on_c, 2, 57, 0
4, 158112, Note_on_c, 2, 57, 50
4, 158136, Note_on_c, 2, 57, 0
4, 158160, Note_on_c, 2, 57, 50
4, 158184, Note_on_c, 2, 57, 0
4, 158208, Note_on_c, 2, 57, 55
4, 158232, Note_on_c, 2, 57, 0
4, 158256, Note_on_c, 2, 55, 50
4, 158280, Note_on_c, 2, 55, 0
4, 158304, Note_on_c, 2, 53, 50
4, 158328, Note_on_c, 2, 53, 0
4, 158352, Note_on_c, 2, 55, 55
4, 158376, Note_on_c, 2, 55, 0
4, 158400, Note_on_c, 2, 57, 50
4, 158424, Note_on_c, 2, 57, 0
4, 158448, Note_on_c, 2, 58, 50
4, 158472, Note_on_c, 2, 58, 0
4, 158496, Note_on_c, 2, 57, 55
4, 158520, Note_on_c, 2, 57, 0
4, 158544, Note_on_c, 2, 58, 50
4, 158568, Note_on_c, 2, 58, 0
4, 158592, Note_on_c, 2, 57, 50
4, 158616, Note_on_c, 2, 57, 0
4, 158640, Note_on_c, 2, 58, 55
4, 158664, Note_on_c, 2, 58, 0
4, 158688, Note_on_c, 2, 57, 51
4, 158712, Note_on_c, 2, 57, 0
4, 158736, Note_on_c, 2, 55, 53
4, 158760, Note_on_c, 2, 55, 0
4, 158784, Note_on_c, 2, 57, 60
4, 158808, Note_on_c, 2, 57, 0
4, 158832, Note_on_c, 2, 58, 56
4, 158856, Note_on_c, 2, 58, 0
4, 158880, Note_on_c, 2, 57, 58
4, 158904, Note_on_c, 2, 57, 0
4, 158928, Note_on_c, 2, 58, 65
4, 158952, Note_on_c, 2, 58, 0
4, 158976, Note_on_c, 2, 57, 61
4, 159000, Note_on_c, 2, 57, 0
4, 159024, Note_on_c, 2, 55, 63
4, 159048, Note_on_c, 2, 55, 0
4, 159072, Note_on_c, 2, 57, 70
4, 159096, Note_on_c, 2, 57, 0
4, 159120, Note_on_c, 2, 58, 66
4, 159144, Note_on_c, 2, 58, 0
4, 159168, Note_on_c, 2, 57, 68
4, 159192, Note_on_c, 2, 57, 0
4, 159216, Note_on_c, 2, 58, 75
4, 159240, Note_on_c, 2, 58, 0
4, 159264, Note_on_c, 2, 57, 71
4, 159288, Note_on_c, 2, 57, 0
4, 159312, Note_on_c, 2, 55, 73
4, 159336, Note_on_c, 2, 55, 0
4, 159360, Note_on_c, 2, 57, 80
4, 159384, Note_on_c, 2, 57, 0
4, 159408, Note_on_c, 2, 58, 77
4, 159432, Note_on_c, 2, 58, 0
4, 159456, Note_on_c, 2, 57, 78
4, 159480, Note_on_c, 2, 57, 0
4, 159504, Note_on_c, 2, 55, 85
4, 159528, Note_on_c, 2, 55, 0
4, 159552, Note_on_c, 2, 53, 82
4, 159576, Note_on_c, 2, 53, 0
4, 159600, Note_on_c, 2, 52, 83
4, 159624, Note_on_c, 2, 52, 0
4, 159648, Note_on_c, 2, 53, 90
4, 159672, Note_on_c, 2, 53, 0
4, 159696, Note_on_c, 2, 55, 87
4, 159720, Note_on_c, 2, 55, 0
4, 159744, Note_on_c, 2, 53, 88
4, 159768, Note_on_c, 2, 53, 0
4, 159792, Note_on_c, 2, 55, 95
4, 159816, Note_on_c, 2, 55, 0
4, 159840, Note_on_c, 2, 53, 92
4, 159864, Note_on_c, 2, 53, 0
4, 159888, Note_on_c, 2, 52, 93
4, 159912, Note_on_c, 2, 52, 0
4, 159936, Note_on_c, 2, 53, 100
4, 159960, Note_on_c, 2, 53, 0
4, 159984, Note_on_c, 2, 55, 97
4, 160008, Note_on_c, 2, 55, 0
4, 160032, Note_on_c, 2, 53, 98
4, 160056, Note_on_c, 2, 53, 0
4, 160080, Note_on_c, 2, 55, 105
4, 160104, Note_on_c, 2, 55, 0
4, 160128, Note_on_c, 2, 53, 102
4, 160152, Note_on_c, 2, 53, 0
4, 160176, Note_on_c, 2, 52, 104
4, 160200, Note_on_c, 2, 52, 0
4, 160224, Note_on_c, 2, 64, 110
4, 160248, Note_on_c, 2, 64, 0
4, 160272, Note_on_c, 2, 62, 107
4, 160296, Note_on_c, 2, 62, 0
4, 160320, Note_on_c, 2, 61, 109
4, 160344, Note_on_c, 2, 61, 0
4, 160368, Note_on_c, 2, 57, 108
4, 160370, Note_on_c, 2, 65, 110
4, 160372, Note_on_c, 2, 74, 112
4, 160392, Note_on_c, 2, 57, 0
4, 160394, Note_on_c, 2, 65, 0
4, 160396, Note_on_c, 2, 74, 0
4, 160512, Note_on_c, 2, 57, 108
4, 160514, Note_on_c, 2, 65, 110
4, 160516, Note_on_c, 2, 74, 112
4, 160536, Note_on_c, 2, 57, 0
4, 160538, Note_on_c, 2, 65, 0
4, 160540, Note_on_c, 2, 74, 0
4, 160656, Note_on_c, 2, 69, 110
4, 160656, Note_on_c, 2, 73, 112
4, 160680, Note_on_c, 2, 73, 0
4, 160680, Note_on_c, 2, 69, 0
4, 160800, Note_on_c, 2, 62, 110
4, 160800, Note_on_c, 2, 74, 112
4, 160824, Note_on_c, 2, 74, 0
4, 160824, Note_on_c, 2, 62, 0
4, 160944, Note_on_c, 2, 55, 108
4, 160946, Note_on_c, 2, 62, 110
4, 160948, Note_on_c, 2, 74, 112
4, 160968, Note_on_c, 2, 55, 0
4, 160970, Note_on_c, 2, 62, 0
4, 160972, Note_on_c, 2, 74, 0
4, 161088, Note_on_c, 2, 57, 108
4, 161090, Note_on_c, 2, 65, 110
4, 161092, Note_on_c, 2, 74, 112
4, 161112, Note_on_c, 2, 57, 0
4, 161114, Note_on_c, 2, 65, 0
4, 161116, Note_on_c, 2, 74, 0
4, 161232, Note_on_c, 2, 57, 108
4, 161234, Note_on_c, 2, 67, 110
4, 161236, Note_on_c, 2, 76, 112
4, 161256, Note_on_c, 2, 57, 0
4, 161258, Note_on_c, 2, 67, 0
4, 161260, Note_on_c, 2, 76, 0
4, 161376, Note_on_c, 2, 65, 108
4, 161376, Note_on_c, 2, 69, 110
4, 161400, Note_on_c, 2, 69, 0
4, 161400, Note_on_c, 2, 65, 0
4, 161520, Note_on_c, 2, 55, 110
4, 161520, Note_on_c, 2, 67, 112
4, 161544, Note_on_c, 2, 67, 0
4, 161544, Note_on_c, 2, 55, 0
4, 161664, Note_on_c, 2, 57, 108
4, 161666, Note_on_c, 2, 62, 110
4, 161668, Note_on_c, 2, 74, 112
4, 161688, Note_on_c, 2, 57, 0
4, 161690, Note_on_c, 2, 62, 0
4, 161692, Note_on_c, 2, 74, 0
4, 161808, Note_on_c, 2, 57, 108
4, 161810, Note_on_c, 2, 67, 110
4, 161812, Note_on_c, 2, 76, 112
4, 161832, Note_on_c, 2, 57, 0
4, 161834, Note_on_c, 2, 67, 0
4, 161836, Note_on_c, 2, 76, 0
4, 161952, Note_on_c, 2, 65, 110
4, 161952, Note_on_c, 2, 69, 110
4, 161976, Note_on_c, 2, 69, 0
4, 161976, Note_on_c, 2, 65, 0
4, 162048, Note_on_c, 2, 65, 108
4, 162048, Note_on_c, 2, 71, 110
4, 162072, Note_on_c, 2, 71, 0
4, 162072, Note_on_c, 2, 65, 0
4, 162096, Note_on_c, 2, 55, 108
4, 162098, Note_on_c, 2, 62, 110
4, 162100, Note_on_c, 2, 71, 112
4, 162120, Note_on_c, 2, 55, 0
4, 162122, Note_on_c, 2, 62, 0
4, 162124, Note_on_c, 2, 71, 0
4, 162240, Note_on_c, 2, 55, 108
4, 162242, Note_on_c, 2, 64, 110
4, 162244, Note_on_c, 2, 76, 112
4, 162264, Note_on_c, 2, 55, 0
4, 162266, Note_on_c, 2, 64, 0
4, 162268, Note_on_c, 2, 76, 0
4, 162384, Note_on_c, 2, 55, 108
4, 162386, Note_on_c, 2, 65, 110
4, 162388, Note_on_c, 2, 74, 112
4, 162408, Note_on_c, 2, 55, 0
4, 162410, Note_on_c, 2, 65, 0
4, 162412, Note_on_c, 2, 74, 0
4, 162528, Note_on_c, 2, 55, 110
4, 162528, Note_on_c, 2, 64, 112
4, 162552, Note_on_c, 2, 64, 0
4, 162552, Note_on_c, 2, 55, 0
4, 162576, Note_on_c, 2, 55, 108
4, 162576, Note_on_c, 2, 65, 110
4, 162600, Note_on_c, 2, 65, 0
4, 162600, Note_on_c, 2, 55, 0
4, 162624, Note_on_c, 2, 55, 108
4, 162624, Note_on_c, 2, 65, 110
4, 162648, Note_on_c, 2, 65, 0
4, 162648, Note_on_c, 2, 55, 0
4, 162672, Note_on_c, 2, 55, 108
4, 162674, Note_on_c, 2, 65, 110
4, 162676, Note_on_c, 2, 74, 112
4, 162696, Note_on_c, 2, 55, 0
4, 162698, Note_on_c, 2, 65, 0
4, 162700, Note_on_c, 2, 74, 0
4, 162816, Note_on_c, 2, 55, 108
4, 162818, Note_on_c, 2, 64, 110
4, 162820, Note_on_c, 2, 76, 112
4, 162840, Note_on_c, 2, 55, 0
4, 162842, Note_on_c, 2, 64, 0
4, 162844, Note_on_c, 2, 76, 0
4, 162960, Note_on_c, 2, 55, 108
4, 162962, Note_on_c, 2, 64, 110
4, 162964, Note_on_c, 2, 72, 112
4, 162984, Note_on_c, 2, 55, 0
4, 162986, Note_on_c, 2, 64, 0
4, 162988, Note_on_c, 2, 72, 0
4, 163104, Note_on_c, 2, 55, 108
4, 163106, Note_on_c, 2, 64, 110
4, 163108, Note_on_c, 2, 72, 112
4, 163128, Note_on_c, 2, 55, 0
4, 163130, Note_on_c, 2, 64, 0
4, 163132, Note_on_c, 2, 72, 0
4, 163248, Note_on_c, 2, 55, 110
4, 163248, Note_on_c, 2, 67, 112
4, 163272, Note_on_c, 2, 67, 0
4, 163272, Note_on_c, 2, 55, 0
4, 163680, Note_on_c, 2, 65, 60
4, 163715, Note_on_c, 2, 65, 0
4, 163752, Note_on_c, 2, 69, 69
4, 163764, Note_on_c, 2, 69, 0
4, 163776, Note_on_c, 2, 69, 73
4, 163800, Note_on_c, 2, 69, 0
4, 163824, Note_on_c, 2, 65, 79
4, 163859, Note_on_c, 2, 65, 0
4, 163896, Note_on_c, 2, 68, 89
4, 163908, Note_on_c, 2, 68, 0
4, 163920, Note_on_c, 2, 68, 92
4, 163944, Note_on_c, 2, 68, 0
4, 163968, Note_on_c, 2, 64, 99
4, 164003, Note_on_c, 2, 64, 0
4, 164040, Note_on_c, 2, 67, 99
4, 164052, Note_on_c, 2, 67, 0
4, 164064, Note_on_c, 2, 67, 96
4, 164088, Note_on_c, 2, 67, 0
4, 164112, Note_on_c, 2, 63, 90
4, 164147, Note_on_c, 2, 63, 0
4, 164184, Note_on_c, 2, 67, 81
4, 164196, Note_on_c, 2, 67, 0
4, 164208, Note_on_c, 2, 67, 78
4, 164232, Note_on_c, 2, 67, 0
4, 164256, Note_on_c, 2, 62, 72
4, 164291, Note_on_c, 2, 62, 0
4, 164328, Note_on_c, 2, 67, 63
4, 164340, Note_on_c, 2, 67, 0
4, 164352, Note_on_c, 2, 67, 60
4, 164376, Note_on_c, 2, 67, 0
4, 164400, Note_on_c, 2, 67, 60
4, 164435, Note_on_c, 2, 67, 0
4, 164472, Note_on_c, 2, 55, 63
4, 164484, Note_on_c, 2, 55, 0
4, 164496, Note_on_c, 2, 55, 64
4, 164520, Note_on_c, 2, 55, 0
4, 164544, Note_on_c, 2, 67, 66
4, 164579, Note_on_c, 2, 67, 0
4, 164616, Note_on_c, 2, 55, 69
4, 164628, Note_on_c, 2, 55, 0
4, 164640, Note_on_c, 2, 55, 70
4, 164664, Note_on_c, 2, 55, 0
4, 164688, Note_on_c, 2, 67, 72
4, 164723, Note_on_c, 2, 67, 0
4, 164760, Note_on_c, 2, 55, 75
4, 164772, Note_on_c, 2, 55, 0
4, 164784, Note_on_c, 2, 55, 76
4, 164808, Note_on_c, 2, 55, 0
4, 164832, Note_on_c, 2, 65, 78
4, 164867, Note_on_c, 2, 65, 0
4, 164904, Note_on_c, 2, 53, 81
4, 164916, Note_on_c, 2, 53, 0
4, 164928, Note_on_c, 2, 53, 82
4, 164952, Note_on_c, 2, 53, 0
4, 164976, Note_on_c, 2, 65, 84
4, 165011, Note_on_c, 2, 65, 0
4, 165048, Note_on_c, 2, 53, 87
4, 165060, Note_on_c, 2, 53, 0
4, 165072, Note_on_c, 2, 53, 88
4, 165096, Note_on_c, 2, 53, 0
4, 165120, Note_on_c, 2, 64, 90
4, 165155, Note_on_c, 2, 64, 0
4, 165192, Note_on_c, 2, 52, 94
4, 165204, Note_on_c, 2, 52, 0
4, 165216, Note_on_c, 2, 52, 95
4, 165240, Note_on_c, 2, 52, 0
4, 165264, Note_on_c, 2, 63, 97
4, 165299, Note_on_c, 2, 63, 0
4, 165336, Note_on_c, 2, 51, 100
4, 165348, Note_on_c, 2, 51, 0
4, 165360, Note_on_c, 2, 51, 101
4, 165384, Note_on_c, 2, 51, 0
4, 165408, Note_on_c, 2, 62, 103
4, 165443, Note_on_c, 2, 62, 0
4, 165480, Note_on_c, 2, 50, 106
4, 165492, Note_on_c, 2, 50, 0
4, 165504, Note_on_c, 2, 50, 107
4, 165528, Note_on_c, 2, 50, 0
4, 165552, Note_on_c, 2, 60, 120
4, 165587, Note_on_c, 2, 60, 0
4, 165624, Note_on_c, 2, 48, 113
4, 165636, Note_on_c, 2, 48, 0
4, 165648, Note_on_c, 2, 48, 113
4, 165672, Note_on_c, 2, 48, 0
4, 165696, Note_on_c, 2, 60, 120
4, 165731, Note_on_c, 2, 60, 0
4, 165768, Note_on_c, 2, 48, 113
4, 165780, Note_on_c, 2, 48, 0
4, 165792, Note_on_c, 2, 48, 113
4, 165816, Note_on_c, 2, 48, 0
4, 165840, Note_on_c, 2, 60, 120
4, 165875, Note_on_c, 2, 60, 0
4, 165912, Note_on_c, 2, 48, 113
4, 165924, Note_on_c, 2, 48, 0
4, 165936, Note_on_c, 2, 48, 113
4, 165960, Note_on_c, 2, 48, 0
4, 165984, Note_on_c, 2, 60, 120
4, 166019, Note_on_c, 2, 60, 0
4, 166056, Note_on_c, 2, 48, 113
4, 166068, Note_on_c, 2, 48, 0
4, 166080, Note_on_c, 2, 48, 113
4, 166104, Note_on_c, 2, 48, 0
4, 166128, Note_on_c, 2, 60, 120
4, 166163, Note_on_c, 2, 60, 0
4, 166200, Note_on_c, 2, 48, 113
4, 166212, Note_on_c, 2, 48, 0
4, 166224, Note_on_c, 2, 48, 113
4, 166248, Note_on_c, 2, 48, 0
4, 166272, Note_on_c, 2, 60, 120
4, 166307, Note_on_c, 2, 60, 0
4, 166344, Note_on_c, 2, 48, 113
4, 166356, Note_on_c, 2, 48, 0
4, 166368, Note_on_c, 2, 48, 113
4, 166392, Note_on_c, 2, 48, 0
4, 166416, Note_on_c, 2, 60, 120
4, 166451, Note_on_c, 2, 60, 0
4, 166488, Note_on_c, 2, 48, 113
4, 166500, Note_on_c, 2, 48, 0
4, 166512, Note_on_c, 2, 48, 113
4, 166536, Note_on_c, 2, 48, 0
4, 166560, Note_on_c, 2, 60, 120
4, 166595, Note_on_c, 2, 60, 0
4, 166632, Note_on_c, 2, 48, 113
4, 166644, Note_on_c, 2, 48, 0
4, 166656, Note_on_c, 2, 48, 113
4, 166680, Note_on_c, 2, 48, 0
4, 166704, Note_on_c, 2, 60, 120
4, 166739, Note_on_c, 2, 60, 0
4, 166776, Note_on_c, 2, 48, 113
4, 166788, Note_on_c, 2, 48, 0
4, 166800, Note_on_c, 2, 48, 113
4, 166824, Note_on_c, 2, 48, 0
4, 166848, Note_on_c, 2, 60, 120
4, 166883, Note_on_c, 2, 60, 0
4, 166920, Note_on_c, 2, 48, 113
4, 166932, Note_on_c, 2, 48, 0
4, 166944, Note_on_c, 2, 48, 113
4, 166968, Note_on_c, 2, 48, 0
4, 166992, Note_on_c, 2, 60, 120
4, 167027, Note_on_c, 2, 60, 0
4, 167064, Note_on_c, 2, 48, 113
4, 167076, Note_on_c, 2, 48, 0
4, 167088, Note_on_c, 2, 48, 113
4, 167112, Note_on_c, 2, 48, 0
4, 167136, Note_on_c, 2, 60, 120
4, 167171, Note_on_c, 2, 60, 0
4, 167208, Note_on_c, 2, 48, 113
4, 167220, Note_on_c, 2, 48, 0
4, 167232, Note_on_c, 2, 48, 113
4, 167256, Note_on_c, 2, 48, 0
4, 167280, Note_on_c, 2, 60, 120
4, 167315, Note_on_c, 2, 60, 0
4, 167352, Note_on_c, 2, 48, 113
4, 167364, Note_on_c, 2, 48, 0
4, 167376, Note_on_c, 2, 48, 113
4, 167400, Note_on_c, 2, 48, 0
4, 167424, Note_on_c, 2, 60, 120
4, 167459, Note_on_c, 2, 60, 0
4, 167496, Note_on_c, 2, 48, 113
4, 167508, Note_on_c, 2, 48, 0
4, 167520, Note_on_c, 2, 48, 113
4, 167544, Note_on_c, 2, 48, 0
4, 167568, Note_on_c, 2, 60, 120
4, 167603, Note_on_c, 2, 60, 0
4, 167640, Note_on_c, 2, 48, 113
4, 167652, Note_on_c, 2, 48, 0
4, 167664, Note_on_c, 2, 48, 113
4, 167688, Note_on_c, 2, 48, 0
4, 167712, Note_on_c, 2, 60, 120
4, 167747, Note_on_c, 2, 60, 0
4, 167784, Note_on_c, 2, 48, 113
4, 167796, Note_on_c, 2, 48, 0
4, 167808, Note_on_c, 2, 48, 113
4, 167832, Note_on_c, 2, 48, 0
4, 167856, Note_on_c, 2, 60, 113
4, 167880, Note_on_c, 2, 60, 0
4, 168144, Note_on_c, 2, 65, 120
4, 168179, Note_on_c, 2, 65, 0
4, 168216, Note_on_c, 2, 53, 113
4, 168228, Note_on_c, 2, 53, 0
4, 168240, Note_on_c, 2, 53, 113
4, 168264, Note_on_c, 2, 53, 0
4, 168288, Note_on_c, 2, 65, 117
4, 168312, Note_on_c, 2, 65, 0
4, 168336, Note_on_c, 2, 62, 113
4, 168360, Note_on_c, 2, 62, 0
4, 168384, Note_on_c, 2, 60, 113
4, 168408, Note_on_c, 2, 60, 0
4, 168432, Note_on_c, 2, 59, 113
4, 168456, Note_on_c, 2, 59, 0
4, 168720, Note_on_c, 2, 64, 120
4, 168755, Note_on_c, 2, 64, 0
4, 168792, Note_on_c, 2, 52, 113
4, 168804, Note_on_c, 2, 52, 0
4, 168816, Note_on_c, 2, 52, 113
4, 168840, Note_on_c, 2, 52, 0
4, 168864, Note_on_c, 2, 64, 117
4, 168888, Note_on_c, 2, 64, 0
4, 168912, Note_on_c, 2, 60, 113
4, 168936, Note_on_c, 2, 60, 0
4, 168960, Note_on_c, 2, 59, 113
4, 168984, Note_on_c, 2, 59, 0
4, 169008, Control_c, 2, 6, 64
4, 169008, Control_c, 2, 11, 60
4, 169008, Note_on_c, 2, 52, 113
4, 169056, Note_on_c, 2, 52, 0
4, 169056, Note_on_c, 2, 50, 113
4, 169104, Note_on_c, 2, 50, 0
4, 169104, Note_on_c, 2, 48, 113
4, 169152, Note_on_c, 2, 48, 0
4, 169152, Note_on_c, 2, 55, 113
4, 169200, Note_on_c, 2, 55, 0
4, 169200, Note_on_c, 2, 53, 113
4, 169248, Note_on_c, 2, 53, 0
4, 169248, Note_on_c, 2, 52, 113
4, 169296, Note_on_c, 2, 52, 0
4, 169296, Control_c, 2, 11, 60
4, 169296, Note_on_c, 2, 50, 113
4, 169311, Control_c, 2, 11, 61
4, 169325, Control_c, 2, 11, 62
4, 169340, Control_c, 2, 11, 63
4, 169344, Note_on_c, 2, 50, 0
4, 169344, Note_on_c, 2, 48, 113
4, 169354, Control_c, 2, 11, 64
4, 169368, Control_c, 2, 11, 65
4, 169383, Control_c, 2, 11, 66
4, 169392, Note_on_c, 2, 48, 0
4, 169392, Note_on_c, 2, 50, 113
4, 169397, Control_c, 2, 11, 67
4, 169411, Control_c, 2, 11, 68
4, 169426, Control_c, 2, 11, 69
4, 169440, Note_on_c, 2, 50, 0
4, 169440, Note_on_c, 2, 52, 113
4, 169440, Control_c, 2, 11, 70
4, 169454, Control_c, 2, 11, 71
4, 169469, Control_c, 2, 11, 72
4, 169483, Control_c, 2, 11, 73
4, 169488, Note_on_c, 2, 52, 0
4, 169488, Note_on_c, 2, 53, 113
4, 169497, Control_c, 2, 11, 74
4, 169512, Control_c, 2, 11, 75
4, 169526, Control_c, 2, 11, 76
4, 169536, Note_on_c, 2, 53, 0
4, 169536, Note_on_c, 2, 55, 113
4, 169540, Control_c, 2, 11, 77
4, 169555, Control_c, 2, 11, 78
4, 169569, Control_c, 2, 11, 79
4, 169583, Control_c, 2, 11, 80
4, 169584, Note_on_c, 2, 55, 0
4, 169584, Control_c, 2, 11, 80
4, 169584, Note_on_c, 2, 54, 113
4, 169599, Control_c, 2, 11, 79
4, 169613, Control_c, 2, 11, 78
4, 169628, Control_c, 2, 11, 77
4, 169632, Note_on_c, 2, 54, 0
4, 169632, Note_on_c, 2, 55, 113
4, 169642, Control_c, 2, 11, 76
4, 169656, Control_c, 2, 11, 75
4, 169671, Control_c, 2, 11, 74
4, 169680, Note_on_c, 2, 55, 0
4, 169680, Note_on_c, 2, 57, 113
4, 169685, Control_c, 2, 11, 73
4, 169699, Control_c, 2, 11, 72
4, 169714, Control_c, 2, 11, 71
4, 169728, Note_on_c, 2, 57, 0
4, 169728, Note_on_c, 2, 55, 113
4, 169728, Control_c, 2, 11, 70
4, 169742, Control_c, 2, 11, 69
4, 169757, Control_c, 2, 11, 68
4, 169771, Control_c, 2, 11, 67
4, 169776, Note_on_c, 2, 55, 0
4, 169776, Note_on_c, 2, 53, 113
4, 169785, Control_c, 2, 11, 66
4, 169800, Control_c, 2, 11, 65
4, 169814, Control_c, 2, 11, 64
4, 169824, Note_on_c, 2, 53, 0
4, 169824, Note_on_c, 2, 52, 113
4, 169828, Control_c, 2, 11, 63
4, 169843, Control_c, 2, 11, 62
4, 169857, Control_c, 2, 11, 61
4, 169871, Control_c, 2, 11, 60
4, 169872, Note_on_c, 2, 52, 0
4, 169872, Control_c, 2, 11, 60
4, 169872, Note_on_c, 2, 52, 113
4, 169890, Control_c, 2, 11, 61
4, 169908, Control_c, 2, 11, 62
4, 169926, Control_c, 2, 11, 63
4, 169944, Control_c, 2, 11, 64
4, 169962, Control_c, 2, 11, 65
4, 169980, Control_c, 2, 11, 66
4, 169998, Control_c, 2, 11, 67
4, 170016, Control_c, 2, 11, 68
4, 170034, Control_c, 2, 11, 69
4, 170052, Control_c, 2, 11, 70
4, 170070, Control_c, 2, 11, 71
4, 170088, Control_c, 2, 11, 72
4, 170106, Control_c, 2, 11, 73
4, 170124, Control_c, 2, 11, 74
4, 170142, Control_c, 2, 11, 75
4, 170160, Control_c, 2, 11, 76
4, 170178, Control_c, 2, 11, 77
4, 170196, Control_c, 2, 11, 78
4, 170214, Control_c, 2, 11, 79
4, 170232, Control_c, 2, 11, 80
4, 170250, Control_c, 2, 11, 81
4, 170268, Control_c, 2, 11, 82
4, 170286, Control_c, 2, 11, 83
4, 170304, Control_c, 2, 11, 84
4, 170322, Control_c, 2, 11, 85
4, 170340, Control_c, 2, 11, 86
4, 170358, Control_c, 2, 11, 87
4, 170376, Control_c, 2, 11, 88
4, 170394, Control_c, 2, 11, 89
4, 170412, Control_c, 2, 11, 90
4, 170430, Control_c, 2, 11, 91
4, 170448, Control_c, 2, 11, 92
4, 170466, Control_c, 2, 11, 93
4, 170484, Control_c, 2, 11, 94
4, 170496, Note_on_c, 2, 52, 0
4, 170502, Control_c, 2, 11, 95
4, 170520, Control_c, 2, 11, 96
4, 170538, Control_c, 2, 11, 97
4, 170556, Control_c, 2, 11, 98
4, 170574, Control_c, 2, 11, 99
4, 170591, Control_c, 2, 11, 100
4, 170730, Control_c, 2, 6, 14
4, 170736, Control_c, 2, 11, 120
4, 170736, Note_on_c, 2, 64, 105
4, 170760, Note_on_c, 2, 64, 0
4, 170784, Note_on_c, 2, 76, 100
4, 170808, Note_on_c, 2, 76, 0
4, 170832, Note_on_c, 2, 72, 100
4, 170856, Note_on_c, 2, 72, 0
4, 170880, Note_on_c, 2, 69, 105
4, 170904, Note_on_c, 2, 69, 0
4, 170928, Note_on_c, 2, 71, 100
4, 170952, Note_on_c, 2, 71, 0
4, 170976, Note_on_c, 2, 72, 105
4, 171000, Note_on_c, 2, 72, 0
4, 171024, Note_on_c, 2, 72, 100
4, 171048, Note_on_c, 2, 72, 0
4, 171312, Note_on_c, 2, 64, 105
4, 171336, Note_on_c, 2, 64, 0
4, 171360, Note_on_c, 2, 60, 100
4, 171384, Note_on_c, 2, 60, 0
4, 171408, Note_on_c, 2, 65, 100
4, 171432, Note_on_c, 2, 65, 0
4, 171456, Note_on_c, 2, 62, 105
4, 171480, Note_on_c, 2, 62, 0
4, 171504, Note_on_c, 2, 59, 100
4, 171528, Note_on_c, 2, 59, 0
4, 171552, Note_on_c, 2, 62, 100
4, 171576, Note_on_c, 2, 62, 0
4, 171600, Note_on_c, 2, 48, 97
4, 171602, Note_on_c, 2, 55, 100
4, 171604, Note_on_c, 2, 64, 105
4, 171624, Note_on_c, 2, 48, 0
4, 171626, Note_on_c, 2, 55, 0
4, 171628, Note_on_c, 2, 64, 0
4, 171744, Note_on_c, 2, 67, 110
4, 171779, Note_on_c, 2, 67, 0
4, 171816, Note_on_c, 2, 55, 100
4, 171828, Note_on_c, 2, 55, 0
4, 171840, Note_on_c, 2, 55, 100
4, 171864, Note_on_c, 2, 55, 0
4, 171888, Note_on_c, 2, 48, 100
4, 171912, Note_on_c, 2, 48, 0
4, 172032, Note_on_c, 2, 67, 110
4, 172067, Note_on_c, 2, 67, 0
4, 172104, Note_on_c, 2, 55, 100
4, 172116, Note_on_c, 2, 55, 0
4, 172128, Note_on_c, 2, 55, 100
4, 172152, Note_on_c, 2, 55, 0
4, 172172, Control_c, 2, 6, 64
4, 172176, Note_on_c, 2, 60, 57
4, 172224, Note_on_c, 2, 60, 0
4, 172224, Note_on_c, 2, 59, 56
4, 172272, Note_on_c, 2, 59, 0
4, 172272, Note_on_c, 2, 57, 54
4, 172320, Note_on_c, 2, 57, 0
4, 172320, Note_on_c, 2, 55, 53
4, 172368, Note_on_c, 2, 55, 0
4, 172368, Note_on_c, 2, 53, 51
4, 172416, Note_on_c, 2, 53, 0
4, 172416, Note_on_c, 2, 52, 50
4, 172464, Note_on_c, 2, 52, 0
4, 172464, Note_on_c, 2, 50, 47
4, 172512, Note_on_c, 2, 50, 0
4, 172512, Note_on_c, 2, 52, 50
4, 172560, Note_on_c, 2, 52, 0
4, 172560, Note_on_c, 2, 50, 47
4, 172584, Note_on_c, 2, 50, 0
4, 172584, Note_on_c, 2, 62, 55
4, 172608, Note_on_c, 2, 62, 0
4, 172608, Note_on_c, 2, 60, 50
4, 172656, Note_on_c, 2, 60, 0
4, 172656, Note_on_c, 2, 59, 49
4, 172704, Note_on_c, 2, 59, 0
4, 172704, Note_on_c, 2, 57, 47
4, 172728, Note_on_c, 2, 57, 0
4, 172728, Note_on_c, 2, 55, 46
4, 172752, Note_on_c, 2, 55, 0
4, 172752, Control_c, 2, 6, 14
4, 172752, Note_on_c, 2, 52, 60
4, 172752, Note_on_c, 2, 55, 60
4, 172787, Note_on_c, 2, 55, 0
4, 172787, Note_on_c, 2, 52, 0
4, 172824, Note_on_c, 2, 64, 50
4, 172836, Note_on_c, 2, 64, 0
4, 172848, Note_on_c, 2, 64, 50
4, 172872, Note_on_c, 2, 64, 0
4, 172896, Note_on_c, 2, 64, 50
4, 172920, Note_on_c, 2, 64, 0
4, 173040, Note_on_c, 2, 57, 60
4, 173075, Note_on_c, 2, 57, 0
4, 173112, Note_on_c, 2, 65, 50
4, 173124, Note_on_c, 2, 65, 0
4, 173136, Note_on_c, 2, 65, 50
4, 173160, Note_on_c, 2, 65, 0
4, 173184, Note_on_c, 2, 65, 50
4, 173208, Note_on_c, 2, 65, 0
4, 173904, Note_on_c, 2, 53, 60
4, 173939, Note_on_c, 2, 53, 0
4, 173976, Note_on_c, 2, 65, 50
4, 173988, Note_on_c, 2, 65, 0
4, 174000, Note_on_c, 2, 65, 50
4, 174024, Note_on_c, 2, 65, 0
4, 174048, Note_on_c, 2, 65, 55
4, 174072, Note_on_c, 2, 65, 0
4, 174192, Note_on_c, 2, 55, 60
4, 174227, Note_on_c, 2, 55, 0
4, 174264, Note_on_c, 2, 67, 50
4, 174276, Note_on_c, 2, 67, 0
4, 174288, Note_on_c, 2, 67, 50
4, 174312, Note_on_c, 2, 67, 0
4, 174336, Note_on_c, 2, 67, 55
4, 174360, Note_on_c, 2, 67, 0
4, 175056, Note_on_c, 2, 43, 70
4, 175091, Note_on_c, 2, 43, 0
4, 175128, Note_on_c, 2, 55, 61
4, 175140, Note_on_c, 2, 55, 0
4, 175152, Note_on_c, 2, 55, 61
4, 175176, Note_on_c, 2, 55, 0
4, 175200, Note_on_c, 2, 55, 65
4, 175224, Note_on_c, 2, 55, 0
4, 175344, Note_on_c, 2, 60, 75
4, 175379, Note_on_c, 2, 60, 0
4, 175416, Note_on_c, 2, 48, 67
4, 175428, Note_on_c, 2, 48, 0
4, 175440, Note_on_c, 2, 48, 67
4, 175464, Note_on_c, 2, 48, 0
4, 175488, Note_on_c, 2, 56, 71
4, 175512, Note_on_c, 2, 56, 0
4, 175632, Note_on_c, 2, 53, 80
4, 175667, Note_on_c, 2, 53, 0
4, 175704, Note_on_c, 2, 65, 72
4, 175716, Note_on_c, 2, 65, 0
4, 175728, Note_on_c, 2, 65, 73
4, 175752, Note_on_c, 2, 65, 0
4, 175776, Note_on_c, 2, 61, 74
4, 175800, Note_on_c, 2, 61, 0
4, 175920, Note_on_c, 2, 58, 86
4, 175955, Note_on_c, 2, 58, 0
4, 175992, Note_on_c, 2, 61, 78
4, 176004, Note_on_c, 2, 61, 0
4, 176016, Note_on_c, 2, 61, 78
4, 176040, Note_on_c, 2, 61, 0
4, 176064, Note_on_c, 2, 63, 79
4, 176088, Note_on_c, 2, 63, 0
4, 176208, Note_on_c, 2, 51, 92
4, 176243, Note_on_c, 2, 51, 0
4, 176280, Note_on_c, 2, 63, 83
4, 176292, Note_on_c, 2, 63, 0
4, 176304, Note_on_c, 2, 63, 84
4, 176328, Note_on_c, 2, 63, 0
4, 176352, Note_on_c, 2, 59, 85
4, 176376, Note_on_c, 2, 59, 0
4, 176496, Note_on_c, 2, 59, 98
4, 176531, Note_on_c, 2, 59, 0
4, 176568, Note_on_c, 2, 64, 89
4, 176580, Note_on_c, 2, 64, 0
4, 176592, Note_on_c, 2, 64, 90
4, 176616, Note_on_c, 2, 64, 0
4, 176640, Note_on_c, 2, 64, 90
4, 176664, Note_on_c, 2, 64, 0
4, 176784, Note_on_c, 2, 57, 110
4, 176819, Note_on_c, 2, 57, 0
4, 176856, Note_on_c, 2, 69, 100
4, 176868, Note_on_c, 2, 69, 0
4, 176880, Note_on_c, 2, 69, 100
4, 176904, Note_on_c, 2, 69, 0
4, 177072, Note_on_c, 2, 58, 119
4, 177107, Note_on_c, 2, 58, 0
4, 177144, Note_on_c, 2, 70, 113
4, 177156, Note_on_c, 2, 70, 0
4, 177168, Note_on_c, 2, 70, 113
4, 177192, Note_on_c, 2, 70, 0
4, 177360, Note_on_c, 2, 59, 120
4, 177395, Note_on_c, 2, 59, 0
4, 177432, Note_on_c, 2, 71, 113
4, 177444, Note_on_c, 2, 71, 0
4, 177456, Note_on_c, 2, 71, 113
4, 177480, Note_on_c, 2, 71, 0
4, 177696, Program_c, 2, 45
4, 177699, Control_c, 2, 7, 105
4, 177840, Note_on_c, 2, 59, 60
4, 177864, Note_on_c, 2, 59, 0
4, 177984, Note_on_c, 2, 59, 57
4, 178008, Note_on_c, 2, 59, 0
4, 178272, Note_on_c, 2, 59, 60
4, 178296, Note_on_c, 2, 59, 0
4, 178416, Note_on_c, 2, 59, 57
4, 178440, Note_on_c, 2, 59, 0
4, 178704, Note_on_c, 2, 59, 60
4, 178728, Note_on_c, 2, 59, 0
4, 178848, Note_on_c, 2, 59, 57
4, 178872, Note_on_c, 2, 59, 0
4, 179136, Note_on_c, 2, 64, 60
4, 179160, Note_on_c, 2, 64, 0
4, 179280, Note_on_c, 2, 52, 57
4, 179304, Note_on_c, 2, 52, 0
4, 179568, Note_on_c, 2, 57, 60
4, 179592, Note_on_c, 2, 57, 0
4, 179712, Note_on_c, 2, 52, 57
4, 179736, Note_on_c, 2, 52, 0
4, 180000, Note_on_c, 2, 57, 60
4, 180024, Note_on_c, 2, 57, 0
4, 180144, Note_on_c, 2, 52, 57
4, 180168, Note_on_c, 2, 52, 0
4, 180432, Note_on_c, 2, 65, 60
4, 180456, Note_on_c, 2, 65, 0
4, 180576, Note_on_c, 2, 53, 57
4, 180600, Note_on_c, 2, 53, 0
4, 180864, Note_on_c, 2, 65, 60
4, 180888, Note_on_c, 2, 65, 0
4, 181008, Note_on_c, 2, 53, 57
4, 181032, Note_on_c, 2, 53, 0
4, 181296, Note_on_c, 2, 65, 60
4, 181320, Note_on_c, 2, 65, 0
4, 181440, Note_on_c, 2, 53, 57
4, 181464, Note_on_c, 2, 53, 0
4, 181728, Note_on_c, 2, 65, 60
4, 181752, Note_on_c, 2, 65, 0
4, 181872, Note_on_c, 2, 53, 57
4, 181896, Note_on_c, 2, 53, 0
4, 182016, Note_on_c, 2, 65, 60
4, 182040, Note_on_c, 2, 65, 0
4, 182160, Note_on_c, 2, 53, 57
4, 182184, Note_on_c, 2, 53, 0
4, 182304, Note_on_c, 2, 65, 60
4, 182328, Note_on_c, 2, 65, 0
4, 182448, Program_c, 2, 48
4, 182448, Control_c, 2, 7, 123
4, 182448, Note_on_c, 2, 58, 55
4, 182448, Note_on_c, 2, 67, 55
4, 182472, Note_on_c, 2, 67, 0
4, 182472, Note_on_c, 2, 58, 0
4, 182496, Note_on_c, 2, 57, 50
4, 182496, Note_on_c, 2, 65, 50
4, 182520, Note_on_c, 2, 65, 0
4, 182520, Note_on_c, 2, 57, 0
4, 182544, Note_on_c, 2, 55, 50
4, 182544, Note_on_c, 2, 64, 50
4, 182568, Note_on_c, 2, 64, 0
4, 182568, Note_on_c, 2, 55, 0
4, 182592, Note_on_c, 2, 55, 55
4, 182592, Note_on_c, 2, 64, 55
4, 182616, Note_on_c, 2, 64, 0
4, 182616, Note_on_c, 2, 55, 0
4, 182640, Note_on_c, 2, 57, 50
4, 182640, Note_on_c, 2, 65, 50
4, 182664, Note_on_c, 2, 65, 0
4, 182664, Note_on_c, 2, 57, 0
4, 182688, Note_on_c, 2, 58, 50
4, 182688, Note_on_c, 2, 67, 50
4, 182712, Note_on_c, 2, 67, 0
4, 182712, Note_on_c, 2, 58, 0
4, 182736, Note_on_c, 2, 58, 55
4, 182736, Note_on_c, 2, 67, 55
4, 182760, Note_on_c, 2, 67, 0
4, 182760, Note_on_c, 2, 58, 0
4, 182784, Note_on_c, 2, 57, 50
4, 182784, Note_on_c, 2, 65, 50
4, 182808, Note_on_c, 2, 65, 0
4, 182808, Note_on_c, 2, 57, 0
4, 182832, Note_on_c, 2, 58, 50
4, 182832, Note_on_c, 2, 67, 50
4, 182856, Note_on_c, 2, 67, 0
4, 182856, Note_on_c, 2, 58, 0
4, 182880, Program_c, 2, 45
4, 182880, Control_c, 2, 7, 105
4, 182880, Note_on_c, 2, 62, 50
4, 182904, Note_on_c, 2, 62, 0
4, 183024, Note_on_c, 2, 50, 47
4, 183048, Note_on_c, 2, 50, 0
4, 183168, Note_on_c, 2, 62, 50
4, 183192, Note_on_c, 2, 62, 0
4, 183312, Program_c, 2, 48
4, 183312, Control_c, 2, 7, 123
4, 183312, Note_on_c, 2, 55, 55
4, 183312, Note_on_c, 2, 64, 55
4, 183336, Note_on_c, 2, 64, 0
4, 183336, Note_on_c, 2, 55, 0
4, 183360, Note_on_c, 2, 53, 50
4, 183360, Note_on_c, 2, 62, 50
4, 183384, Note_on_c, 2, 62, 0
4, 183384, Note_on_c, 2, 53, 0
4, 183408, Note_on_c, 2, 52, 50
4, 183408, Note_on_c, 2, 61, 50
4, 183432, Note_on_c, 2, 61, 0
4, 183432, Note_on_c, 2, 52, 0
4, 183456, Note_on_c, 2, 52, 55
4, 183456, Note_on_c, 2, 61, 55
4, 183480, Note_on_c, 2, 61, 0
4, 183480, Note_on_c, 2, 52, 0
4, 183504, Note_on_c, 2, 53, 50
4, 183504, Note_on_c, 2, 62, 50
4, 183528, Note_on_c, 2, 62, 0
4, 183528, Note_on_c, 2, 53, 0
4, 183552, Note_on_c, 2, 55, 50
4, 183552, Note_on_c, 2, 64, 50
4, 183576, Note_on_c, 2, 64, 0
4, 183576, Note_on_c, 2, 55, 0
4, 183600, Note_on_c, 2, 55, 55
4, 183600, Note_on_c, 2, 64, 55
4, 183624, Note_on_c, 2, 64, 0
4, 183624, Note_on_c, 2, 55, 0
4, 183648, Note_on_c, 2, 53, 50
4, 183648, Note_on_c, 2, 62, 50
4, 183672, Note_on_c, 2, 62, 0
4, 183672, Note_on_c, 2, 53, 0
4, 183696, Note_on_c, 2, 55, 50
4, 183696, Note_on_c, 2, 64, 50
4, 183720, Note_on_c, 2, 64, 0
4, 183720, Note_on_c, 2, 55, 0
4, 183744, Program_c, 2, 45
4, 183744, Control_c, 2, 7, 105
4, 183744, Note_on_c, 2, 69, 50
4, 183768, Note_on_c, 2, 69, 0
4, 183888, Note_on_c, 2, 57, 47
4, 183912, Note_on_c, 2, 57, 0
4, 184032, Note_on_c, 2, 69, 50
4, 184056, Note_on_c, 2, 69, 0
4, 184176, Program_c, 2, 48
4, 184176, Control_c, 2, 7, 123
4, 184176, Note_on_c, 2, 55, 55
4, 184176, Note_on_c, 2, 64, 55
4, 184200, Note_on_c, 2, 64, 0
4, 184200, Note_on_c, 2, 55, 0
4, 184224, Note_on_c, 2, 53, 50
4, 184224, Note_on_c, 2, 62, 50
4, 184248, Note_on_c, 2, 62, 0
4, 184248, Note_on_c, 2, 53, 0
4, 184272, Note_on_c, 2, 52, 50
4, 184272, Note_on_c, 2, 61, 50
4, 184296, Note_on_c, 2, 61, 0
4, 184296, Note_on_c, 2, 52, 0
4, 184320, Note_on_c, 2, 52, 55
4, 184320, Note_on_c, 2, 61, 55
4, 184344, Note_on_c, 2, 61, 0
4, 184344, Note_on_c, 2, 52, 0
4, 184368, Note_on_c, 2, 53, 50
4, 184368, Note_on_c, 2, 62, 50
4, 184392, Note_on_c, 2, 62, 0
4, 184392, Note_on_c, 2, 53, 0
4, 184416, Note_on_c, 2, 55, 50
4, 184416, Note_on_c, 2, 64, 50
4, 184440, Note_on_c, 2, 64, 0
4, 184440, Note_on_c, 2, 55, 0
4, 184464, Note_on_c, 2, 55, 55
4, 184464, Note_on_c, 2, 64, 55
4, 184488, Note_on_c, 2, 64, 0
4, 184488, Note_on_c, 2, 55, 0
4, 184512, Note_on_c, 2, 53, 50
4, 184512, Note_on_c, 2, 62, 50
4, 184536, Note_on_c, 2, 62, 0
4, 184536, Note_on_c, 2, 53, 0
4, 184560, Note_on_c, 2, 55, 50
4, 184560, Note_on_c, 2, 64, 50
4, 184584, Note_on_c, 2, 64, 0
4, 184584, Note_on_c, 2, 55, 0
4, 184608, Note_on_c, 2, 58, 55
4, 184632, Note_on_c, 2, 58, 0
4, 184656, Note_on_c, 2, 57, 50
4, 184680, Note_on_c, 2, 57, 0
4, 184704, Note_on_c, 2, 55, 50
4, 184728, Note_on_c, 2, 55, 0
4, 184752, Note_on_c, 2, 53, 55
4, 184776, Note_on_c, 2, 53, 0
4, 184896, Program_c, 2, 45
4, 184896, Control_c, 2, 7, 105
4, 184896, Note_on_c, 2, 57, 50
4, 184920, Note_on_c, 2, 57, 0
4, 185184, Note_on_c, 2, 57, 50
4, 185208, Note_on_c, 2, 57, 0
4, 185328, Note_on_c, 2, 57, 47
4, 185352, Note_on_c, 2, 57, 0
4, 185616, Note_on_c, 2, 57, 50
4, 185640, Note_on_c, 2, 57, 0
4, 185760, Note_on_c, 2, 57, 47
4, 185784, Note_on_c, 2, 57, 0
4, 186192, Program_c, 2, 48
4, 186192, Control_c, 2, 7, 123
4, 186192, Note_on_c, 2, 69, 60
4, 186227, Note_on_c, 2, 69, 0
4, 186264, Note_on_c, 2, 57, 50
4, 186276, Note_on_c, 2, 57, 0
4, 186288, Note_on_c, 2, 57, 50
4, 186312, Note_on_c, 2, 57, 0
4, 186336, Note_on_c, 2, 62, 55
4, 186360, Note_on_c, 2, 62, 0
4, 186384, Note_on_c, 2, 64, 50
4, 186408, Note_on_c, 2, 64, 0
4, 186432, Note_on_c, 2, 65, 50
4, 186456, Note_on_c, 2, 65, 0
4, 186480, Note_on_c, 2, 62, 55
4, 186504, Note_on_c, 2, 62, 0
4, 186528, Note_on_c, 2, 63, 50
4, 186552, Note_on_c, 2, 63, 0
4, 186576, Note_on_c, 2, 65, 50
4, 186600, Note_on_c, 2, 65, 0
4, 186624, Note_on_c, 2, 63, 55
4, 186648, Note_on_c, 2, 63, 0
4, 186672, Note_on_c, 2, 62, 50
4, 186696, Note_on_c, 2, 62, 0
4, 186720, Note_on_c, 2, 60, 50
4, 186744, Note_on_c, 2, 60, 0
4, 186768, Note_on_c, 2, 62, 55
4, 186792, Note_on_c, 2, 62, 0
4, 186816, Note_on_c, 2, 60, 50
4, 186840, Note_on_c, 2, 60, 0
4, 186864, Note_on_c, 2, 59, 50
4, 186888, Note_on_c, 2, 59, 0
4, 186912, Note_on_c, 2, 60, 55
4, 186936, Note_on_c, 2, 60, 0
4, 186960, Note_on_c, 2, 65, 50
4, 186984, Note_on_c, 2, 65, 0
4, 187008, Note_on_c, 2, 67, 50
4, 187032, Note_on_c, 2, 67, 0
4, 187056, Note_on_c, 2, 65, 55
4, 187080, Note_on_c, 2, 65, 0
4, 187104, Note_on_c, 2, 67, 50
4, 187128, Note_on_c, 2, 67, 0
4, 187152, Note_on_c, 2, 68, 50
4, 187176, Note_on_c, 2, 68, 0
4, 187200, Note_on_c, 2, 67, 55
4, 187224, Note_on_c, 2, 67, 0
4, 187248, Note_on_c, 2, 65, 50
4, 187272, Note_on_c, 2, 65, 0
4, 187296, Note_on_c, 2, 63, 50
4, 187320, Note_on_c, 2, 63, 0
4, 187344, Note_on_c, 2, 70, 55
4, 187379, Note_on_c, 2, 70, 0
4, 187416, Note_on_c, 2, 58, 50
4, 187428, Note_on_c, 2, 58, 0
4, 187440, Note_on_c, 2, 58, 50
4, 187464, Note_on_c, 2, 58, 0
4, 187488, Note_on_c, 2, 63, 55
4, 187512, Note_on_c, 2, 63, 0
4, 187536, Note_on_c, 2, 65, 50
4, 187560, Note_on_c, 2, 65, 0
4, 187584, Note_on_c, 2, 67, 50
4, 187608, Note_on_c, 2, 67, 0
4, 187632, Note_on_c, 2, 65, 55
4, 187656, Note_on_c, 2, 65, 0
4, 187680, Note_on_c, 2, 63, 50
4, 187704, Note_on_c, 2, 63, 0
4, 187728, Note_on_c, 2, 62, 50
4, 187752, Note_on_c, 2, 62, 0
4, 187776, Note_on_c, 2, 58, 55
4, 187800, Note_on_c, 2, 58, 0
4, 187824, Note_on_c, 2, 62, 50
4, 187848, Note_on_c, 2, 62, 0
4, 187872, Note_on_c, 2, 63, 50
4, 187896, Note_on_c, 2, 63, 0
4, 187920, Note_on_c, 2, 65, 50
4, 188495, Note_on_c, 2, 65, 0
4, 188496, Note_on_c, 2, 51, 50
4, 188520, Note_on_c, 2, 51, 0
4, 188544, Note_on_c, 2, 53, 50
4, 188568, Note_on_c, 2, 53, 0
4, 188592, Note_on_c, 2, 55, 50
4, 188616, Note_on_c, 2, 55, 0
4, 188640, Note_on_c, 2, 55, 50
4, 188664, Note_on_c, 2, 55, 0
4, 188688, Note_on_c, 2, 56, 50
4, 188712, Note_on_c, 2, 56, 0
4, 188736, Note_on_c, 2, 58, 50
4, 188760, Note_on_c, 2, 58, 0
4, 188784, Note_on_c, 2, 63, 50
4, 188808, Note_on_c, 2, 63, 0
4, 188832, Note_on_c, 2, 65, 50
4, 188856, Note_on_c, 2, 65, 0
4, 188880, Note_on_c, 2, 67, 50
4, 188904, Note_on_c, 2, 67, 0
4, 188928, Note_on_c, 2, 67, 50
4, 188952, Note_on_c, 2, 67, 0
4, 188976, Note_on_c, 2, 68, 50
4, 189000, Note_on_c, 2, 68, 0
4, 189024, Note_on_c, 2, 70, 50
4, 189048, Note_on_c, 2, 70, 0
4, 189072, Control_c, 2, 6, 64
4, 189072, Control_c, 2, 11, 50
4, 189072, Note_on_c, 2, 74, 120
4, 189089, Control_c, 2, 11, 51
4, 189105, Control_c, 2, 11, 52
4, 189122, Control_c, 2, 11, 53
4, 189138, Control_c, 2, 11, 54
4, 189155, Control_c, 2, 11, 55
4, 189171, Control_c, 2, 11, 56
4, 189188, Control_c, 2, 11, 57
4, 189204, Control_c, 2, 11, 58
4, 189220, Control_c, 2, 11, 59
4, 189237, Control_c, 2, 11, 60
4, 189253, Control_c, 2, 11, 61
4, 189270, Control_c, 2, 11, 62
4, 189286, Control_c, 2, 11, 63
4, 189303, Control_c, 2, 11, 64
4, 189319, Control_c, 2, 11, 65
4, 189336, Control_c, 2, 11, 66
4, 189352, Control_c, 2, 11, 67
4, 189368, Control_c, 2, 11, 68
4, 189385, Control_c, 2, 11, 69
4, 189401, Control_c, 2, 11, 70
4, 189418, Control_c, 2, 11, 71
4, 189434, Control_c, 2, 11, 72
4, 189451, Control_c, 2, 11, 73
4, 189467, Control_c, 2, 11, 74
4, 189484, Control_c, 2, 11, 75
4, 189500, Control_c, 2, 11, 76
4, 189516, Control_c, 2, 11, 77
4, 189533, Control_c, 2, 11, 78
4, 189549, Control_c, 2, 11, 79
4, 189566, Control_c, 2, 11, 80
4, 189582, Control_c, 2, 11, 81
4, 189599, Control_c, 2, 11, 82
4, 189615, Control_c, 2, 11, 83
4, 189632, Control_c, 2, 11, 84
4, 189647, Note_on_c, 2, 74, 0
4, 189648, Note_on_c, 2, 74, 120
4, 189648, Control_c, 2, 11, 85
4, 189664, Control_c, 2, 11, 86
4, 189681, Control_c, 2, 11, 87
4, 189697, Control_c, 2, 11, 88
4, 189714, Control_c, 2, 11, 89
4, 189730, Control_c, 2, 11, 90
4, 189747, Control_c, 2, 11, 91
4, 189763, Control_c, 2, 11, 92
4, 189780, Control_c, 2, 11, 93
4, 189796, Control_c, 2, 11, 94
4, 189812, Control_c, 2, 11, 95
4, 189829, Control_c, 2, 11, 96
4, 189845, Control_c, 2, 11, 97
4, 189862, Control_c, 2, 11, 98
4, 189878, Control_c, 2, 11, 99
4, 189895, Control_c, 2, 11, 100
4, 189911, Control_c, 2, 11, 101
4, 189928, Control_c, 2, 11, 102
4, 189944, Control_c, 2, 11, 103
4, 189960, Control_c, 2, 11, 104
4, 189977, Control_c, 2, 11, 105
4, 189993, Control_c, 2, 11, 106
4, 190010, Control_c, 2, 11, 107
4, 190026, Control_c, 2, 11, 108
4, 190043, Control_c, 2, 11, 109
4, 190059, Control_c, 2, 11, 110
4, 190076, Control_c, 2, 11, 111
4, 190092, Control_c, 2, 11, 112
4, 190108, Control_c, 2, 11, 113
4, 190125, Control_c, 2, 11, 114
4, 190141, Control_c, 2, 11, 115
4, 190158, Control_c, 2, 11, 116
4, 190174, Control_c, 2, 11, 117
4, 190191, Control_c, 2, 11, 118
4, 190207, Control_c, 2, 11, 119
4, 190223, Note_on_c, 2, 74, 0
4, 190223, Control_c, 2, 11, 120
4, 190224, Control_c, 2, 6, 14
4, 190224, Control_c, 2, 11, 120
4, 190224, Note_on_c, 2, 57, 110
4, 190226, Note_on_c, 2, 65, 115
4, 190228, Note_on_c, 2, 74, 120
4, 190254, Note_on_c, 2, 57, 0
4, 190256, Note_on_c, 2, 65, 0
4, 190258, Note_on_c, 2, 74, 0
4, 190512, Note_on_c, 2, 62, 120
4, 190512, Note_on_c, 2, 65, 120
4, 190542, Note_on_c, 2, 65, 0
4, 190542, Note_on_c, 2, 62, 0
4, 190800, Note_on_c, 2, 57, 115
4, 190802, Note_on_c, 2, 65, 120
4, 190804, Note_on_c, 2, 74, 125
4, 190830, Note_on_c, 2, 57, 0
4, 190832, Note_on_c, 2, 65, 0
4, 190834, Note_on_c, 2, 74, 0
4, 190872, Note_on_c, 2, 65, 115
4, 190872, Note_on_c, 2, 69, 115
4, 190884, Note_on_c, 2, 69, 0
4, 190884, Note_on_c, 2, 65, 0
4, 190896, Note_on_c, 2, 65, 115
4, 190896, Note_on_c, 2, 69, 115
4, 190920, Note_on_c, 2, 69, 0
4, 190920, Note_on_c, 2, 65, 0
4, 190944, Note_on_c, 2, 57, 115
4, 190946, Note_on_c, 2, 65, 120
4, 190948, Note_on_c, 2, 74, 125
4, 190974, Note_on_c, 2, 57, 0
4, 190976, Note_on_c, 2, 65, 0
4, 190978, Note_on_c, 2, 74, 0
4, 191016, Note_on_c, 2, 65, 115
4, 191016, Note_on_c, 2, 69, 115
4, 191028, Note_on_c, 2, 69, 0
4, 191028, Note_on_c, 2, 65, 0
4, 191040, Note_on_c, 2, 65, 115
4, 191040, Note_on_c, 2, 69, 115
4, 191064, Note_on_c, 2, 69, 0
4, 191064, Note_on_c, 2, 65, 0
4, 191088, Note_on_c, 2, 57, 115
4, 191090, Note_on_c, 2, 65, 120
4, 191092, Note_on_c, 2, 74, 125
4, 191118, Note_on_c, 2, 57, 0
4, 191120, Note_on_c, 2, 65, 0
4, 191122, Note_on_c, 2, 74, 0
4, 191160, Note_on_c, 2, 65, 115
4, 191160, Note_on_c, 2, 69, 115
4, 191172, Note_on_c, 2, 69, 0
4, 191172, Note_on_c, 2, 65, 0
4, 191184, Note_on_c, 2, 65, 115
4, 191184, Note_on_c, 2, 69, 115
4, 191208, Note_on_c, 2, 69, 0
4, 191208, Note_on_c, 2, 65, 0
4, 191232, Note_on_c, 2, 57, 115
4, 191234, Note_on_c, 2, 65, 120
4, 191236, Note_on_c, 2, 74, 125
4, 191262, Note_on_c, 2, 57, 0
4, 191264, Note_on_c, 2, 65, 0
4, 191266, Note_on_c, 2, 74, 0
4, 191304, Note_on_c, 2, 65, 115
4, 191304, Note_on_c, 2, 69, 115
4, 191316, Note_on_c, 2, 69, 0
4, 191316, Note_on_c, 2, 65, 0
4, 191328, Note_on_c, 2, 65, 115
4, 191328, Note_on_c, 2, 69, 115
4, 191352, Note_on_c, 2, 69, 0
4, 191352, Note_on_c, 2, 65, 0
4, 191376, Note_on_c, 2, 57, 125
4, 191376, Note_on_c, 2, 69, 125
4, 191411, Note_on_c, 2, 69, 0
4, 191411, Note_on_c, 2, 57, 0
4, 191448, Note_on_c, 2, 57, 115
4, 191460, Note_on_c, 2, 57, 0
4, 191472, Note_on_c, 2, 57, 115
4, 191496, Note_on_c, 2, 57, 0
4, 191520, Note_on_c, 2, 62, 120
4, 191544, Note_on_c, 2, 62, 0
4, 191568, Note_on_c, 2, 64, 115
4, 191592, Note_on_c, 2, 64, 0
4, 191616, Note_on_c, 2, 65, 115
4, 191640, Note_on_c, 2, 65, 0
4, 191664, Note_on_c, 2, 64, 120
4, 191688, Note_on_c, 2, 64, 0
4, 191712, Note_on_c, 2, 65, 115
4, 191736, Note_on_c, 2, 65, 0
4, 191760, Note_on_c, 2, 67, 115
4, 191784, Note_on_c, 2, 67, 0
4, 191808, Note_on_c, 2, 65, 120
4, 191832, Note_on_c, 2, 65, 0
4, 191856, Note_on_c, 2, 64, 115
4, 191880, Note_on_c, 2, 64, 0
4, 191904, Note_on_c, 2, 62, 115
4, 191928, Note_on_c, 2, 62, 0
4, 191952, Note_on_c, 2, 58, 120
4, 191976, Note_on_c, 2, 58, 0
4, 192000, Note_on_c, 2, 57, 115
4, 192024, Note_on_c, 2, 57, 0
4, 192048, Note_on_c, 2, 55, 115
4, 192072, Note_on_c, 2, 55, 0
4, 192096, Note_on_c, 2, 53, 120
4, 192120, Note_on_c, 2, 53, 0
4, 192144, Note_on_c, 2, 64, 115
4, 192168, Note_on_c, 2, 64, 0
4, 192192, Note_on_c, 2, 62, 115
4, 192216, Note_on_c, 2, 62, 0
4, 192240, Note_on_c, 2, 61, 120
4, 192264, Note_on_c, 2, 61, 0
4, 192288, Note_on_c, 2, 62, 115
4, 192312, Note_on_c, 2, 62, 0
4, 192336, Note_on_c, 2, 64, 115
4, 192360, Note_on_c, 2, 64, 0
4, 192384, Note_on_c, 2, 62, 120
4, 192408, Note_on_c, 2, 62, 0
4, 192432, Note_on_c, 2, 61, 115
4, 192456, Note_on_c, 2, 61, 0
4, 192480, Note_on_c, 2, 62, 115
4, 192504, Note_on_c, 2, 62, 0
4, 192528, Note_on_c, 2, 58, 120
4, 192552, Note_on_c, 2, 58, 0
4, 192576, Note_on_c, 2, 57, 115
4, 192600, Note_on_c, 2, 57, 0
4, 192624, Note_on_c, 2, 55, 115
4, 192648, Note_on_c, 2, 55, 0
4, 192672, Note_on_c, 2, 53, 120
4, 192696, Note_on_c, 2, 53, 0
4, 192720, Note_on_c, 2, 64, 115
4, 192744, Note_on_c, 2, 64, 0
4, 192768, Note_on_c, 2, 62, 115
4, 192792, Note_on_c, 2, 62, 0
4, 192816, Note_on_c, 2, 61, 120
4, 192840, Note_on_c, 2, 61, 0
4, 192864, Note_on_c, 2, 62, 115
4, 192888, Note_on_c, 2, 62, 0
4, 192912, Note_on_c, 2, 64, 115
4, 192936, Note_on_c, 2, 64, 0
4, 192960, Note_on_c, 2, 62, 120
4, 192984, Note_on_c, 2, 62, 0
4, 193008, Note_on_c, 2, 61, 115
4, 193032, Note_on_c, 2, 61, 0
4, 193056, Note_on_c, 2, 62, 115
4, 193080, Note_on_c, 2, 62, 0
4, 193104, Note_on_c, 2, 60, 120
4, 193128, Note_on_c, 2, 60, 0
4, 193152, Note_on_c, 2, 62, 115
4, 193176, Note_on_c, 2, 62, 0
4, 193200, Note_on_c, 2, 63, 115
4, 193224, Note_on_c, 2, 63, 0
4, 193248, Note_on_c, 2, 55, 120
4, 193272, Note_on_c, 2, 55, 0
4, 193296, Note_on_c, 2, 57, 115
4, 193320, Note_on_c, 2, 57, 0
4, 193344, Note_on_c, 2, 58, 115
4, 193368, Note_on_c, 2, 58, 0
4, 193392, Note_on_c, 2, 57, 120
4, 193416, Note_on_c, 2, 57, 0
4, 193440, Note_on_c, 2, 58, 115
4, 193464, Note_on_c, 2, 58, 0
4, 193488, Note_on_c, 2, 60, 115
4, 193512, Note_on_c, 2, 60, 0
4, 193536, Note_on_c, 2, 58, 120
4, 193560, Note_on_c, 2, 58, 0
4, 193584, Note_on_c, 2, 57, 115
4, 193608, Note_on_c, 2, 57, 0
4, 193632, Note_on_c, 2, 55, 115
4, 193656, Note_on_c, 2, 55, 0
4, 193680, Note_on_c, 2, 63, 105
4, 193704, Note_on_c, 2, 63, 0
4, 193728, Note_on_c, 2, 62, 100
4, 193752, Note_on_c, 2, 62, 0
4, 193776, Note_on_c, 2, 60, 100
4, 193800, Note_on_c, 2, 60, 0
4, 193824, Note_on_c, 2, 58, 105
4, 193848, Note_on_c, 2, 58, 0
4, 193872, Note_on_c, 2, 57, 100
4, 193896, Note_on_c, 2, 57, 0
4, 193920, Note_on_c, 2, 55, 100
4, 193944, Note_on_c, 2, 55, 0
4, 193968, Note_on_c, 2, 65, 105
4, 193992, Note_on_c, 2, 65, 0
4, 194016, Note_on_c, 2, 63, 100
4, 194040, Note_on_c, 2, 63, 0
4, 194064, Note_on_c, 2, 62, 100
4, 194088, Note_on_c, 2, 62, 0
4, 194112, Note_on_c, 2, 60, 105
4, 194136, Note_on_c, 2, 60, 0
4, 194160, Note_on_c, 2, 58, 100
4, 194184, Note_on_c, 2, 58, 0
4, 194208, Note_on_c, 2, 57, 100
4, 194232, Note_on_c, 2, 57, 0
4, 194256, Note_on_c, 2, 67, 105
4, 194280, Note_on_c, 2, 67, 0
4, 194304, Note_on_c, 2, 65, 100
4, 194328, Note_on_c, 2, 65, 0
4, 194352, Note_on_c, 2, 63, 100
4, 194376, Note_on_c, 2, 63, 0
4, 194400, Note_on_c, 2, 62, 105
4, 194424, Note_on_c, 2, 62, 0
4, 194448, Note_on_c, 2, 60, 100
4, 194472, Note_on_c, 2, 60, 0
4, 194496, Note_on_c, 2, 58, 100
4, 194520, Note_on_c, 2, 58, 0
4, 194544, Note_on_c, 2, 57, 105
4, 194568, Note_on_c, 2, 57, 0
4, 194592, Note_on_c, 2, 55, 100
4, 194616, Note_on_c, 2, 55, 0
4, 194640, Note_on_c, 2, 53, 100
4, 194664, Note_on_c, 2, 53, 0
4, 194688, Note_on_c, 2, 63, 105
4, 194712, Note_on_c, 2, 63, 0
4, 194736, Note_on_c, 2, 62, 100
4, 194760, Note_on_c, 2, 62, 0
4, 194784, Note_on_c, 2, 60, 100
4, 194808, Note_on_c, 2, 60, 0
4, 194832, Note_on_c, 2, 58, 105
4, 194856, Note_on_c, 2, 58, 0
4, 195264, Note_on_c, 2, 72, 68
4, 195299, Note_on_c, 2, 72, 0
4, 195336, Note_on_c, 2, 60, 67
4, 195348, Note_on_c, 2, 60, 0
4, 195360, Note_on_c, 2, 60, 69
4, 195384, Note_on_c, 2, 60, 0
4, 195408, Note_on_c, 2, 72, 82
4, 195443, Note_on_c, 2, 72, 0
4, 195480, Note_on_c, 2, 60, 81
4, 195492, Note_on_c, 2, 60, 0
4, 195504, Note_on_c, 2, 60, 84
4, 195528, Note_on_c, 2, 60, 0
4, 195552, Note_on_c, 2, 74, 89
4, 195587, Note_on_c, 2, 74, 0
4, 195624, Note_on_c, 2, 62, 84
4, 195636, Note_on_c, 2, 62, 0
4, 195648, Note_on_c, 2, 62, 82
4, 195672, Note_on_c, 2, 62, 0
4, 195696, Note_on_c, 2, 73, 79
4, 195731, Note_on_c, 2, 73, 0
4, 195768, Note_on_c, 2, 61, 73
4, 195780, Note_on_c, 2, 61, 0
4, 195792, Note_on_c, 2, 61, 72
4, 195816, Note_on_c, 2, 61, 0
4, 195840, Note_on_c, 2, 72, 68
4, 195875, Note_on_c, 2, 72, 0
4, 195912, Note_on_c, 2, 60, 63
4, 195924, Note_on_c, 2, 60, 0
4, 195936, Note_on_c, 2, 60, 61
4, 195960, Note_on_c, 2, 60, 0
4, 196704, Note_on_c, 2, 71, 60
4, 196739, Note_on_c, 2, 71, 0
4, 196776, Note_on_c, 2, 59, 69
4, 196788, Note_on_c, 2, 59, 0
4, 196800, Note_on_c, 2, 59, 72
4, 196824, Note_on_c, 2, 59, 0
4, 196848, Note_on_c, 2, 70, 78
4, 196883, Note_on_c, 2, 70, 0
4, 196920, Note_on_c, 2, 58, 87
4, 196932, Note_on_c, 2, 58, 0
4, 196944, Note_on_c, 2, 58, 90
4, 196968, Note_on_c, 2, 58, 0
4, 196992, Note_on_c, 2, 69, 90
4, 197027, Note_on_c, 2, 69, 0
4, 197064, Note_on_c, 2, 57, 85
4, 197076, Note_on_c, 2, 57, 0
4, 197088, Note_on_c, 2, 57, 83
4, 197112, Note_on_c, 2, 57, 0
4, 197136, Note_on_c, 2, 69, 79
4, 197171, Note_on_c, 2, 69, 0
4, 197208, Note_on_c, 2, 57, 74
4, 197220, Note_on_c, 2, 57, 0
4, 197232, Note_on_c, 2, 57, 72
4, 197256, Note_on_c, 2, 57, 0
4, 197280, Note_on_c, 2, 69, 68
4, 197315, Note_on_c, 2, 69, 0
4, 197352, Note_on_c, 2, 57, 62
4, 197364, Note_on_c, 2, 57, 0
4, 197376, Note_on_c, 2, 57, 60
4, 197400, Note_on_c, 2, 57, 0
4, 197568, Note_on_c, 2, 69, 60
4, 197603, Note_on_c, 2, 69, 0
4, 197640, Note_on_c, 2, 57, 63
4, 197652, Note_on_c, 2, 57, 0
4, 197664, Note_on_c, 2, 57, 65
4, 197688, Note_on_c, 2, 57, 0
4, 197712, Note_on_c, 2, 69, 67
4, 197747, Note_on_c, 2, 69, 0
4, 197784, Note_on_c, 2, 57, 71
4, 197796, Note_on_c, 2, 57, 0
4, 197808, Note_on_c, 2, 57, 73
4, 197832, Note_on_c, 2, 57, 0
4, 197856, Note_on_c, 2, 67, 75
4, 197891, Note_on_c, 2, 67, 0
4, 197928, Note_on_c, 2, 55, 79
4, 197940, Note_on_c, 2, 55, 0
4, 197952, Note_on_c, 2, 55, 81
4, 197976, Note_on_c, 2, 55, 0
4, 198000, Note_on_c, 2, 67, 83
4, 198035, Note_on_c, 2, 67, 0
4, 198072, Note_on_c, 2, 55, 87
4, 198084, Note_on_c, 2, 55, 0
4, 198096, Note_on_c, 2, 55, 88
4, 198120, Note_on_c, 2, 55, 0
4, 198144, Note_on_c, 2, 66, 90
4, 198179, Note_on_c, 2, 66, 0
4, 198216, Note_on_c, 2, 54, 85
4, 198228, Note_on_c, 2, 54, 0
4, 198240, Note_on_c, 2, 54, 83
4, 198264, Note_on_c, 2, 54, 0
4, 198288, Note_on_c, 2, 65, 79
4, 198323, Note_on_c, 2, 65, 0
4, 198360, Note_on_c, 2, 53, 74
4, 198372, Note_on_c, 2, 53, 0
4, 198384, Note_on_c, 2, 53, 72
4, 198408, Note_on_c, 2, 53, 0
4, 198432, Note_on_c, 2, 64, 68
4, 198467, Note_on_c, 2, 64, 0
4, 198504, Note_on_c, 2, 52, 62
4, 198516, Note_on_c, 2, 52, 0
4, 198528, Note_on_c, 2, 52, 60
4, 198552, Note_on_c, 2, 52, 0
4, 198576, Program_c, 2, 45
4, 198576, Control_c, 2, 7, 105
4, 198672, Note_on_c, 2, 69, 60
4, 198696, Note_on_c, 2, 69, 0
4, 198816, Note_on_c, 2, 69, 67
4, 198840, Note_on_c, 2, 69, 0
4, 198960, Note_on_c, 2, 71, 74
4, 198984, Note_on_c, 2, 71, 0
4, 199104, Note_on_c, 2, 64, 81
4, 199128, Note_on_c, 2, 64, 0
4, 199248, Note_on_c, 2, 64, 89
4, 199272, Note_on_c, 2, 64, 0
4, 199392, Note_on_c, 2, 62, 96
4, 199416, Note_on_c, 2, 62, 0
4, 199536, Note_on_c, 2, 62, 103
4, 199560, Note_on_c, 2, 62, 0
4, 199680, Note_on_c, 2, 67, 111
4, 199704, Note_on_c, 2, 67, 0
4, 199728, Program_c, 2, 48
4, 199728, Control_c, 2, 7, 123
4, 199728, Note_on_c, 2, 62, 120
4, 199763, Note_on_c, 2, 62, 0
4, 199800, Note_on_c, 2, 50, 113
4, 199812, Note_on_c, 2, 50, 0
4, 199824, Note_on_c, 2, 50, 113
4, 199848, Note_on_c, 2, 50, 0
4, 199872, Note_on_c, 2, 62, 120
4, 199907, Note_on_c, 2, 62, 0
4, 199944, Note_on_c, 2, 50, 113
4, 199956, Note_on_c, 2, 50, 0
4, 199968, Note_on_c, 2, 50, 113
4, 199992, Note_on_c, 2, 50, 0
4, 200016, Note_on_c, 2, 62, 120
4, 200051, Note_on_c, 2, 62, 0
4, 200088, Note_on_c, 2, 50, 113
4, 200100, Note_on_c, 2, 50, 0
4, 200112, Note_on_c, 2, 50, 113
4, 200136, Note_on_c, 2, 50, 0
4, 200160, Note_on_c, 2, 62, 120
4, 200195, Note_on_c, 2, 62, 0
4, 200232, Note_on_c, 2, 50, 113
4, 200244, Note_on_c, 2, 50, 0
4, 200256, Note_on_c, 2, 50, 113
4, 200280, Note_on_c, 2, 50, 0
4, 200304, Note_on_c, 2, 62, 120
4, 200339, Note_on_c, 2, 62, 0
4, 200376, Note_on_c, 2, 50, 113
4, 200388, Note_on_c, 2, 50, 0
4, 200400, Note_on_c, 2, 50, 113
4, 200424, Note_on_c, 2, 50, 0
4, 200448, Note_on_c, 2, 62, 120
4, 200483, Note_on_c, 2, 62, 0
4, 200520, Note_on_c, 2, 50, 113
4, 200532, Note_on_c, 2, 50, 0
4, 200544, Note_on_c, 2, 50, 113
4, 200568, Note_on_c, 2, 50, 0
4, 200592, Note_on_c, 2, 62, 120
4, 200627, Note_on_c, 2, 62, 0
4, 200664, Note_on_c, 2, 50, 113
4, 200676, Note_on_c, 2, 50, 0
4, 200688, Note_on_c, 2, 50, 113
4, 200712, Note_on_c, 2, 50, 0
4, 200736, Note_on_c, 2, 62, 120
4, 200771, Note_on_c, 2, 62, 0
4, 200808, Note_on_c, 2, 50, 113
4, 200820, Note_on_c, 2, 50, 0
4, 200832, Note_on_c, 2, 50, 113
4, 200856, Note_on_c, 2, 50, 0
4, 200880, Note_on_c, 2, 62, 120
4, 200915, Note_on_c, 2, 62, 0
4, 200952, Note_on_c, 2, 50, 113
4, 200964, Note_on_c, 2, 50, 0
4, 200976, Note_on_c, 2, 50, 113
4, 201000, Note_on_c, 2, 50, 0
4, 201024, Note_on_c, 2, 62, 120
4, 201059, Note_on_c, 2, 62, 0
4, 201096, Note_on_c, 2, 50, 113
4, 201108, Note_on_c, 2, 50, 0
4, 201120, Note_on_c, 2, 50, 113
4, 201144, Note_on_c, 2, 50, 0
4, 201168, Note_on_c, 2, 62, 120
4, 201203, Note_on_c, 2, 62, 0
4, 201240, Note_on_c, 2, 50, 113
4, 201252, Note_on_c, 2, 50, 0
4, 201264, Note_on_c, 2, 50, 113
4, 201288, Note_on_c, 2, 50, 0
4, 201312, Note_on_c, 2, 62, 120
4, 201347, Note_on_c, 2, 62, 0
4, 201384, Note_on_c, 2, 50, 113
4, 201396, Note_on_c, 2, 50, 0
4, 201408, Note_on_c, 2, 50, 113
4, 201432, Note_on_c, 2, 50, 0
4, 201456, Note_on_c, 2, 62, 120
4, 201491, Note_on_c, 2, 62, 0
4, 201528, Note_on_c, 2, 50, 113
4, 201540, Note_on_c, 2, 50, 0
4, 201552, Note_on_c, 2, 50, 113
4, 201576, Note_on_c, 2, 50, 0
4, 201600, Note_on_c, 2, 62, 120
4, 201635, Note_on_c, 2, 62, 0
4, 201672, Note_on_c, 2, 50, 113
4, 201684, Note_on_c, 2, 50, 0
4, 201696, Note_on_c, 2, 50, 113
4, 201720, Note_on_c, 2, 50, 0
4, 201744, Note_on_c, 2, 62, 120
4, 201779, Note_on_c, 2, 62, 0
4, 201816, Note_on_c, 2, 50, 113
4, 201828, Note_on_c, 2, 50, 0
4, 201840, Note_on_c, 2, 50, 113
4, 201864, Note_on_c, 2, 50, 0
4, 201888, Note_on_c, 2, 62, 120
4, 201923, Note_on_c, 2, 62, 0
4, 201960, Note_on_c, 2, 50, 113
4, 201972, Note_on_c, 2, 50, 0
4, 201984, Note_on_c, 2, 50, 113
4, 202008, Note_on_c, 2, 50, 0
4, 202032, Note_on_c, 2, 62, 113
4, 202056, Note_on_c, 2, 62, 0
4, 202320, Note_on_c, 2, 67, 118
4, 202355, Note_on_c, 2, 67, 0
4, 202392, Note_on_c, 2, 55, 113
4, 202404, Note_on_c, 2, 55, 0
4, 202416, Note_on_c, 2, 55, 113
4, 202440, Note_on_c, 2, 55, 0
4, 202464, Note_on_c, 2, 55, 118
4, 202488, Note_on_c, 2, 55, 0
4, 202512, Note_on_c, 2, 52, 113
4, 202536, Note_on_c, 2, 52, 0
4, 202560, Note_on_c, 2, 50, 113
4, 202584, Note_on_c, 2, 50, 0
4, 202608, Note_on_c, 2, 48, 113
4, 202608, Note_on_c, 2, 60, 113
4, 202632, Note_on_c, 2, 60, 0
4, 202632, Note_on_c, 2, 48, 0
4, 202896, Note_on_c, 2, 65, 118
4, 202931, Note_on_c, 2, 65, 0
4, 202968, Note_on_c, 2, 53, 113
4, 202980, Note_on_c, 2, 53, 0
4, 202992, Note_on_c, 2, 53, 113
4, 203016, Note_on_c, 2, 53, 0
4, 203040, Note_on_c, 2, 53, 118
4, 203064, Note_on_c, 2, 53, 0
4, 203088, Note_on_c, 2, 50, 113
4, 203112, Note_on_c, 2, 50, 0
4, 203136, Note_on_c, 2, 48, 113
4, 203160, Note_on_c, 2, 48, 0
4, 203184, Control_c, 2, 6, 64
4, 203184, Control_c, 2, 11, 60
4, 203184, Note_on_c, 2, 50, 100
4, 203232, Note_on_c, 2, 50, 0
4, 203232, Note_on_c, 2, 52, 100
4, 203280, Note_on_c, 2, 52, 0
4, 203280, Note_on_c, 2, 54, 100
4, 203328, Note_on_c, 2, 54, 0
4, 203328, Note_on_c, 2, 55, 100
4, 203472, Control_c, 2, 11, 60
4, 203487, Control_c, 2, 11, 61
4, 203501, Control_c, 2, 11, 62
4, 203516, Control_c, 2, 11, 63
4, 203520, Note_on_c, 2, 55, 0
4, 203520, Note_on_c, 2, 53, 100
4, 203530, Control_c, 2, 11, 64
4, 203544, Control_c, 2, 11, 65
4, 203559, Control_c, 2, 11, 66
4, 203568, Note_on_c, 2, 53, 0
4, 203568, Note_on_c, 2, 51, 100
4, 203573, Control_c, 2, 11, 67
4, 203587, Control_c, 2, 11, 68
4, 203602, Control_c, 2, 11, 69
4, 203616, Note_on_c, 2, 51, 0
4, 203616, Note_on_c, 2, 67, 100
4, 203616, Control_c, 2, 11, 70
4, 203631, Control_c, 2, 11, 71
4, 203645, Control_c, 2, 11, 72
4, 203659, Control_c, 2, 11, 73
4, 203664, Note_on_c, 2, 67, 0
4, 203664, Note_on_c, 2, 65, 100
4, 203674, Control_c, 2, 11, 74
4, 203688, Control_c, 2, 11, 75
4, 203702, Control_c, 2, 11, 76
4, 203712, Note_on_c, 2, 65, 0
4, 203712, Note_on_c, 2, 63, 100
4, 203717, Control_c, 2, 11, 77
4, 203731, Control_c, 2, 11, 78
4, 203745, Control_c, 2, 11, 79
4, 203760, Note_on_c, 2, 63, 0
4, 203760, Note_on_c, 2, 70, 100
4, 203760, Control_c, 2, 11, 80
4, 203774, Control_c, 2, 11, 81
4, 203789, Control_c, 2, 11, 82
4, 203803, Control_c, 2, 11, 83
4, 203808, Note_on_c, 2, 70, 0
4, 203808, Note_on_c, 2, 69, 100
4, 203817, Control_c, 2, 11, 84
4, 203832, Control_c, 2, 11, 85
4, 203846, Control_c, 2, 11, 86
4, 203856, Note_on_c, 2, 69, 0
4, 203856, Note_on_c, 2, 70, 100
4, 203860, Control_c, 2, 11, 87
4, 203875, Control_c, 2, 11, 88
4, 203889, Control_c, 2, 11, 89
4, 203903, Control_c, 2, 11, 90
4, 203904, Control_c, 2, 11, 90
4, 203909, Control_c, 2, 11, 89
4, 203914, Control_c, 2, 11, 88
4, 203919, Control_c, 2, 11, 87
4, 203924, Control_c, 2, 11, 86
4, 203928, Control_c, 2, 11, 85
4, 203933, Control_c, 2, 11, 84
4, 203938, Control_c, 2, 11, 83
4, 203943, Control_c, 2, 11, 82
4, 203947, Control_c, 2, 11, 81
4, 203952, Note_on_c, 2, 70, 0
4, 203952, Note_on_c, 2, 69, 100
4, 203952, Control_c, 2, 11, 80
4, 203957, Control_c, 2, 11, 79
4, 203962, Control_c, 2, 11, 78
4, 203966, Control_c, 2, 11, 77
4, 203971, Control_c, 2, 11, 76
4, 203976, Control_c, 2, 11, 75
4, 203981, Control_c, 2, 11, 74
4, 203986, Control_c, 2, 11, 73
4, 203990, Control_c, 2, 11, 72
4, 203995, Control_c, 2, 11, 71
4, 204000, Note_on_c, 2, 69, 0
4, 204000, Note_on_c, 2, 67, 100
4, 204000, Control_c, 2, 11, 70
4, 204005, Control_c, 2, 11, 69
4, 204009, Control_c, 2, 11, 68
4, 204014, Control_c, 2, 11, 67
4, 204019, Control_c, 2, 11, 66
4, 204024, Control_c, 2, 11, 65
4, 204028, Control_c, 2, 11, 64
4, 204033, Control_c, 2, 11, 63
4, 204038, Control_c, 2, 11, 62
4, 204043, Control_c, 2, 11, 61
4, 204047, Control_c, 2, 11, 60
4, 204048, Note_on_c, 2, 67, 0
4, 204624, Control_c, 2, 6, 14
4, 204912, Control_c, 2, 11, 120
4, 204912, Note_on_c, 2, 69, 105
4, 204936, Note_on_c, 2, 69, 0
4, 204960, Note_on_c, 2, 70, 100
4, 204984, Note_on_c, 2, 70, 0
4, 205008, Note_on_c, 2, 70, 100
4, 205032, Note_on_c, 2, 70, 0
4, 205056, Note_on_c, 2, 71, 105
4, 205080, Note_on_c, 2, 71, 0
4, 205104, Note_on_c, 2, 69, 100
4, 205128, Note_on_c, 2, 69, 0
4, 205152, Note_on_c, 2, 62, 100
4, 205152, Note_on_c, 2, 74, 100
4, 205176, Note_on_c, 2, 74, 0
4, 205176, Note_on_c, 2, 62, 0
4, 205200, Note_on_c, 2, 62, 105
4, 205200, Note_on_c, 2, 74, 105
4, 205224, Note_on_c, 2, 74, 0
4, 205224, Note_on_c, 2, 62, 0
4, 205488, Note_on_c, 2, 65, 105
4, 205512, Note_on_c, 2, 65, 0
4, 205536, Note_on_c, 2, 62, 100
4, 205560, Note_on_c, 2, 62, 0
4, 205584, Note_on_c, 2, 67, 100
4, 205608, Note_on_c, 2, 67, 0
4, 205632, Note_on_c, 2, 64, 105
4, 205656, Note_on_c, 2, 64, 0
4, 205680, Note_on_c, 2, 61, 100
4, 205704, Note_on_c, 2, 61, 0
4, 205728, Note_on_c, 2, 69, 100
4, 205752, Note_on_c, 2, 69, 0
4, 205776, Note_on_c, 2, 62, 100
4, 205776, Note_on_c, 2, 74, 100
4, 205800, Note_on_c, 2, 74, 0
4, 205800, Note_on_c, 2, 62, 0
4, 205920, Note_on_c, 2, 69, 110
4, 205955, Note_on_c, 2, 69, 0
4, 205992, Note_on_c, 2, 57, 100
4, 206004, Note_on_c, 2, 57, 0
4, 206016, Note_on_c, 2, 57, 100
4, 206040, Note_on_c, 2, 57, 0
4, 206064, Note_on_c, 2, 50, 105
4, 206088, Note_on_c, 2, 50, 0
4, 206208, Note_on_c, 2, 69, 110
4, 206243, Note_on_c, 2, 69, 0
4, 206280, Note_on_c, 2, 57, 100
4, 206292, Note_on_c, 2, 57, 0
4, 206304, Note_on_c, 2, 57, 100
4, 206328, Note_on_c, 2, 57, 0
4, 206346, Control_c, 2, 6, 64
4, 206352, Note_on_c, 2, 67, 64
4, 206400, Note_on_c, 2, 67, 0
4, 206400, Note_on_c, 2, 64, 61
4, 206448, Note_on_c, 2, 64, 0
4, 206448, Note_on_c, 2, 61, 58
4, 206496, Note_on_c, 2, 61, 0
4, 206496, Note_on_c, 2, 55, 52
4, 206544, Note_on_c, 2, 55, 0
4, 206544, Note_on_c, 2, 52, 49
4, 206592, Note_on_c, 2, 52, 0
4, 206592, Note_on_c, 2, 49, 46
4, 206640, Note_on_c, 2, 49, 0
4, 206640, Note_on_c, 2, 52, 40
4, 206688, Note_on_c, 2, 52, 0
4, 206688, Note_on_c, 2, 55, 46
4, 206736, Note_on_c, 2, 55, 0
4, 206736, Note_on_c, 2, 61, 50
4, 206832, Note_on_c, 2, 61, 0
4, 206832, Note_on_c, 2, 64, 58
4, 206880, Note_on_c, 2, 64, 0
4, 206880, Note_on_c, 2, 67, 61
4, 206928, Note_on_c, 2, 67, 0
4, 206928, Control_c, 2, 6, 14
4, 206928, Note_on_c, 2, 65, 60
4, 206963, Note_on_c, 2, 65, 0
4, 207000, Note_on_c, 2, 53, 50
4, 207012, Note_on_c, 2, 53, 0
4, 207024, Note_on_c, 2, 53, 50
4, 207048, Note_on_c, 2, 53, 0
4, 207072, Note_on_c, 2, 53, 55
4, 207096, Note_on_c, 2, 53, 0
4, 207216, Note_on_c, 2, 65, 60
4, 207251, Note_on_c, 2, 65, 0
4, 207288, Note_on_c, 2, 53, 50
4, 207300, Note_on_c, 2, 53, 0
4, 207312, Note_on_c, 2, 53, 50
4, 207336, Note_on_c, 2, 53, 0
4, 207360, Note_on_c, 2, 53, 55
4, 207384, Note_on_c, 2, 53, 0
4, 208080, Note_on_c, 2, 65, 55
4, 208115, Note_on_c, 2, 65, 0
4, 208152, Note_on_c, 2, 53, 54
4, 208164, Note_on_c, 2, 53, 0
4, 208176, Note_on_c, 2, 53, 56
4, 208200, Note_on_c, 2, 53, 0
4, 208224, Note_on_c, 2, 53, 59
4, 208248, Note_on_c, 2, 53, 0
4, 208368, Note_on_c, 2, 53, 73
4, 208403, Note_on_c, 2, 53, 0
4, 208440, Note_on_c, 2, 53, 72
4, 208452, Note_on_c, 2, 53, 0
4, 208464, Note_on_c, 2, 53, 74
4, 208488, Note_on_c, 2, 53, 0
4, 208512, Note_on_c, 2, 53, 77
4, 208536, Note_on_c, 2, 53, 0
4, 208656, Note_on_c, 2, 53, 86
4, 208691, Note_on_c, 2, 53, 0
4, 208728, Note_on_c, 2, 62, 90
4, 208740, Note_on_c, 2, 62, 0
4, 208752, Note_on_c, 2, 62, 92
4, 208776, Note_on_c, 2, 62, 0
4, 208800, Note_on_c, 2, 58, 95
4, 208800, Note_on_c, 2, 62, 95
4, 208824, Note_on_c, 2, 62, 0
4, 208824, Note_on_c, 2, 58, 0
4, 208944, Note_on_c, 2, 58, 104
4, 208944, Note_on_c, 2, 62, 104
4, 208979, Note_on_c, 2, 62, 0
4, 208979, Note_on_c, 2, 58, 0
4, 209016, Note_on_c, 2, 67, 108
4, 209028, Note_on_c, 2, 67, 0
4, 209040, Note_on_c, 2, 67, 110
4, 209064, Note_on_c, 2, 67, 0
4, 209088, Note_on_c, 2, 61, 113
4, 209088, Note_on_c, 2, 64, 113
4, 209112, Note_on_c, 2, 64, 0
4, 209112, Note_on_c, 2, 61, 0
4, 209280, Note_on_c, 2, 52, 55
4, 209304, Note_on_c, 2, 52, 0
4, 209328, Note_on_c, 2, 53, 50
4, 209352, Note_on_c, 2, 53, 0
4, 209376, Note_on_c, 2, 55, 50
4, 209400, Note_on_c, 2, 55, 0
4, 209424, Note_on_c, 2, 57, 55
4, 209448, Note_on_c, 2, 57, 0
4, 209472, Note_on_c, 2, 55, 50
4, 209496, Note_on_c, 2, 55, 0
4, 209520, Note_on_c, 2, 53, 50
4, 209544, Note_on_c, 2, 53, 0
4, 209568, Note_on_c, 2, 54, 55
4, 209592, Note_on_c, 2, 54, 0
4, 209616, Note_on_c, 2, 55, 50
4, 209640, Note_on_c, 2, 55, 0
4, 209664, Note_on_c, 2, 57, 50
4, 209688, Note_on_c, 2, 57, 0
4, 209712, Note_on_c, 2, 58, 55
4, 209736, Note_on_c, 2, 58, 0
4, 209760, Note_on_c, 2, 57, 50
4, 209784, Note_on_c, 2, 57, 0
4, 209808, Note_on_c, 2, 55, 50
4, 209832, Note_on_c, 2, 55, 0
4, 209856, Note_on_c, 2, 52, 55
4, 209880, Note_on_c, 2, 52, 0
4, 209904, Note_on_c, 2, 53, 50
4, 209928, Note_on_c, 2, 53, 0
4, 209952, Note_on_c, 2, 55, 50
4, 209976, Note_on_c, 2, 55, 0
4, 210000, Note_on_c, 2, 57, 55
4, 210024, Note_on_c, 2, 57, 0
4, 210048, Note_on_c, 2, 55, 50
4, 210072, Note_on_c, 2, 55, 0
4, 210096, Note_on_c, 2, 53, 50
4, 210120, Note_on_c, 2, 53, 0
4, 210144, Note_on_c, 2, 54, 55
4, 210168, Note_on_c, 2, 54, 0
4, 210192, Note_on_c, 2, 55, 50
4, 210216, Note_on_c, 2, 55, 0
4, 210240, Note_on_c, 2, 57, 50
4, 210264, Note_on_c, 2, 57, 0
4, 210288, Note_on_c, 2, 58, 55
4, 210312, Note_on_c, 2, 58, 0
4, 210336, Note_on_c, 2, 57, 50
4, 210360, Note_on_c, 2, 57, 0
4, 210384, Note_on_c, 2, 55, 50
4, 210408, Note_on_c, 2, 55, 0
4, 210432, Note_on_c, 2, 69, 60
4, 210467, Note_on_c, 2, 69, 0
4, 210504, Note_on_c, 2, 57, 54
4, 210516, Note_on_c, 2, 57, 0
4, 210528, Note_on_c, 2, 57, 55
4, 210552, Note_on_c, 2, 57, 0
4, 210576, Note_on_c, 2, 62, 62
4, 210600, Note_on_c, 2, 62, 0
4, 210624, Note_on_c, 2, 64, 61
4, 210648, Note_on_c, 2, 64, 0
4, 210672, Note_on_c, 2, 65, 64
4, 210696, Note_on_c, 2, 65, 0
4, 210720, Note_on_c, 2, 69, 76
4, 210755, Note_on_c, 2, 69, 0
4, 210792, Note_on_c, 2, 57, 71
4, 210804, Note_on_c, 2, 57, 0
4, 210816, Note_on_c, 2, 57, 72
4, 210840, Note_on_c, 2, 57, 0
4, 210864, Note_on_c, 2, 62, 79
4, 210888, Note_on_c, 2, 62, 0
4, 210912, Note_on_c, 2, 64, 78
4, 210936, Note_on_c, 2, 64, 0
4, 210960, Note_on_c, 2, 65, 80
4, 210984, Note_on_c, 2, 65, 0
4, 211008, Note_on_c, 2, 69, 93
4, 211043, Note_on_c, 2, 69, 0
4, 211080, Note_on_c, 2, 57, 87
4, 211092, Note_on_c, 2, 57, 0
4, 211104, Note_on_c, 2, 57, 89
4, 211128, Note_on_c, 2, 57, 0
4, 211152, Note_on_c, 2, 62, 93
4, 211176, Note_on_c, 2, 62, 0
4, 211200, Note_on_c, 2, 64, 95
4, 211224, Note_on_c, 2, 64, 0
4, 211248, Note_on_c, 2, 65, 97
4, 211272, Note_on_c, 2, 65, 0
4, 211296, Note_on_c, 2, 69, 110
4, 211331, Note_on_c, 2, 69, 0
4, 211368, Note_on_c, 2, 57, 104
4, 211380, Note_on_c, 2, 57, 0
4, 211392, Note_on_c, 2, 57, 106
4, 211416, Note_on_c, 2, 57, 0
4, 211440, Note_on_c, 2, 62, 112
4, 211464, Note_on_c, 2, 62, 0
4, 211488, Note_on_c, 2, 64, 111
4, 211512, Note_on_c, 2, 64, 0
4, 211536, Note_on_c, 2, 65, 114
4, 211560, Note_on_c, 2, 65, 0
4, 211584, Note_on_c, 2, 69, 125
4, 211608, Note_on_c, 2, 69, 0
4, 211632, Note_on_c, 2, 57, 115
4, 211656, Note_on_c, 2, 57, 0
4, 211680, Note_on_c, 2, 62, 125
4, 211704, Note_on_c, 2, 62, 0
4, 211728, Note_on_c, 2, 50, 115
4, 211752, Note_on_c, 2, 50, 0
4, 211776, Note_on_c, 2, 57, 125
4, 211800, Note_on_c, 2, 57, 0
4, 211824, Note_on_c, 2, 57, 115
4, 211848, Note_on_c, 2, 57, 0
4, 211872, Note_on_c, 2, 69, 125
4, 211896, Note_on_c, 2, 69, 0
4, 211920, Note_on_c, 2, 57, 120
4, 211944, Note_on_c, 2, 57, 0
4, 211968, Control_c, 2, 11, 95
4, 211968, Note_on_c, 2, 62, 120
4, 211968, Note_on_c, 2, 74, 120
4, 211969, Control_c, 2, 11, 91
4, 211970, Control_c, 2, 11, 88
4, 211971, Control_c, 2, 11, 85
4, 211972, Control_c, 2, 11, 83
4, 211973, Control_c, 2, 11, 81
4, 211974, Control_c, 2, 11, 79
4, 211975, Control_c, 2, 11, 77
4, 211976, Control_c, 2, 11, 76
4, 211977, Control_c, 2, 11, 75
4, 211978, Control_c, 2, 11, 74
4, 211979, Control_c, 2, 11, 73
4, 211980, Control_c, 2, 11, 72
4, 211981, Control_c, 2, 11, 71
4, 211982, Control_c, 2, 11, 70
4, 211984, Control_c, 2, 11, 69
4, 211985, Control_c, 2, 11, 68
4, 211988, Control_c, 2, 11, 67
4, 211991, Control_c, 2, 11, 66
4, 211997, Control_c, 2, 11, 65
4, 213314, Note_on_c, 2, 74, 0
4, 213314, Note_on_c, 2, 62, 0
4, 213505, Control_c, 2, 11, 127
4, 213505, Note_on_c, 2, 69, 127
4, 213529, Note_on_c, 2, 69, 0
4, 213553, Note_on_c, 2, 57, 115
4, 213577, Note_on_c, 2, 57, 0
4, 213601, Note_on_c, 2, 62, 125
4, 213625, Note_on_c, 2, 62, 0
4, 213649, Note_on_c, 2, 50, 115
4, 213673, Note_on_c, 2, 50, 0
4, 213697, Note_on_c, 2, 57, 125
4, 213721, Note_on_c, 2, 57, 0
4, 213745, Note_on_c, 2, 57, 115
4, 213769, Note_on_c, 2, 57, 0
4, 213793, Note_on_c, 2, 69, 125
4, 213817, Note_on_c, 2, 69, 0
4, 213841, Note_on_c, 2, 57, 115
4, 213865, Note_on_c, 2, 57, 0
4, 213889, Note_on_c, 2, 50, 125
4, 213913, Note_on_c, 2, 50, 0
4, 214080, End_track
5, 0, Start_track
5, 0, Title_t, "Violoncello"
5, 0, MIDI_port, 0
5, 186, Control_c, 3, 91, 80
5, 188, Control_c, 3, 93, 20
5, 190, Control_c, 3, 10, 100
5, 192, Control_c, 3, 99, 1
5, 192, Control_c, 3, 98, 32
5, 192, Control_c, 3, 6, 54
5, 192, Control_c, 3, 98, 33
5, 192, Control_c, 3, 6, 48
5, 192, Program_c, 3, 48
5, 192, Control_c, 3, 7, 123
5, 192, Control_c, 3, 11, 120
5, 192, Control_c, 3, 99, 1
5, 192, Control_c, 3, 98, 99
5, 192, Control_c, 3, 6, 14
5, 192, Note_on_c, 3, 62, 110
5, 227, Note_on_c, 3, 62, 0
5, 264, Note_on_c, 3, 50, 100
5, 276, Note_on_c, 3, 50, 0
5, 288, Note_on_c, 3, 50, 100
5, 312, Note_on_c, 3, 50, 0
5, 480, Note_on_c, 3, 57, 110
5, 515, Note_on_c, 3, 57, 0
5, 552, Note_on_c, 3, 45, 100
5, 564, Note_on_c, 3, 45, 0
5, 576, Note_on_c, 3, 45, 100
5, 600, Note_on_c, 3, 45, 0
5, 912, Note_on_c, 3, 50, 110
5, 947, Note_on_c, 3, 50, 0
5, 984, Note_on_c, 3, 38, 100
5, 996, Note_on_c, 3, 38, 0
5, 1008, Note_on_c, 3, 38, 100
5, 1032, Note_on_c, 3, 38, 0
5, 2496, Note_on_c, 3, 69, 60
5, 2531, Note_on_c, 3, 69, 0
5, 2568, Note_on_c, 3, 57, 50
5, 2580, Note_on_c, 3, 57, 0
5, 2592, Note_on_c, 3, 57, 50
5, 2616, Note_on_c, 3, 57, 0
5, 2640, Note_on_c, 3, 50, 55
5, 2664, Note_on_c, 3, 50, 0
5, 2688, Note_on_c, 3, 52, 50
5, 2712, Note_on_c, 3, 52, 0
5, 2736, Note_on_c, 3, 53, 50
5, 2760, Note_on_c, 3, 53, 0
5, 2784, Note_on_c, 3, 52, 55
5, 2808, Note_on_c, 3, 52, 0
5, 2832, Note_on_c, 3, 53, 50
5, 2856, Note_on_c, 3, 53, 0
5, 2880, Note_on_c, 3, 55, 50
5, 2904, Note_on_c, 3, 55, 0
5, 2928, Note_on_c, 3, 53, 55
5, 2952, Note_on_c, 3, 53, 0
5, 2976, Note_on_c, 3, 52, 50
5, 3000, Note_on_c, 3, 52, 0
5, 3024, Note_on_c, 3, 50, 50
5, 3048, Note_on_c, 3, 50, 0
5, 3072, Note_on_c, 3, 65, 55
5, 3096, Note_on_c, 3, 65, 0
5, 3120, Note_on_c, 3, 64, 50
5, 3144, Note_on_c, 3, 64, 0
5, 3168, Note_on_c, 3, 62, 50
5, 3192, Note_on_c, 3, 62, 0
5, 3216, Note_on_c, 3, 60, 55
5, 3240, Note_on_c, 3, 60, 0
5, 3264, Note_on_c, 3, 59, 50
5, 3288, Note_on_c, 3, 59, 0
5, 3312, Note_on_c, 3, 57, 50
5, 3336, Note_on_c, 3, 57, 0
5, 3360, Note_on_c, 3, 56, 55
5, 3384, Note_on_c, 3, 56, 0
5, 3408, Note_on_c, 3, 57, 50
5, 3432, Note_on_c, 3, 57, 0
5, 3456, Note_on_c, 3, 59, 50
5, 3480, Note_on_c, 3, 59, 0
5, 3504, Note_on_c, 3, 57, 55
5, 3528, Note_on_c, 3, 57, 0
5, 3552, Note_on_c, 3, 56, 50
5, 3576, Note_on_c, 3, 56, 0
5, 3600, Note_on_c, 3, 57, 50
5, 3624, Note_on_c, 3, 57, 0
5, 3648, Note_on_c, 3, 55, 55
5, 3672, Note_on_c, 3, 55, 0
5, 3696, Note_on_c, 3, 53, 50
5, 3720, Note_on_c, 3, 53, 0
5, 3744, Note_on_c, 3, 52, 50
5, 3768, Note_on_c, 3, 52, 0
5, 3792, Note_on_c, 3, 50, 55
5, 3816, Note_on_c, 3, 50, 0
5, 3840, Note_on_c, 3, 57, 50
5, 3864, Note_on_c, 3, 57, 0
5, 3888, Note_on_c, 3, 57, 50
5, 3912, Note_on_c, 3, 57, 0
5, 3936, Note_on_c, 3, 57, 55
5, 3960, Note_on_c, 3, 57, 0
5, 3984, Note_on_c, 3, 57, 50
5, 4008, Note_on_c, 3, 57, 0
5, 4032, Note_on_c, 3, 57, 50
5, 4056, Note_on_c, 3, 57, 0
5, 4080, Note_on_c, 3, 57, 55
5, 4104, Note_on_c, 3, 57, 0
5, 4128, Note_on_c, 3, 69, 50
5, 4152, Note_on_c, 3, 69, 0
5, 4176, Note_on_c, 3, 69, 50
5, 4200, Note_on_c, 3, 69, 0
5, 4224, Note_on_c, 3, 69, 55
5, 4248, Note_on_c, 3, 69, 0
5, 4272, Note_on_c, 3, 69, 50
5, 4296, Note_on_c, 3, 69, 0
5, 4320, Note_on_c, 3, 69, 50
5, 4344, Note_on_c, 3, 69, 0
5, 4368, Note_on_c, 3, 69, 55
5, 4392, Note_on_c, 3, 69, 0
5, 4416, Note_on_c, 3, 64, 50
5, 4440, Note_on_c, 3, 64, 0
5, 4464, Note_on_c, 3, 64, 50
5, 4488, Note_on_c, 3, 64, 0
5, 4512, Note_on_c, 3, 62, 55
5, 4536, Note_on_c, 3, 62, 0
5, 4560, Note_on_c, 3, 60, 50
5, 4584, Note_on_c, 3, 60, 0
5, 4608, Note_on_c, 3, 59, 50
5, 4632, Note_on_c, 3, 59, 0
5, 4656, Note_on_c, 3, 60, 55
5, 4680, Note_on_c, 3, 60, 0
5, 4704, Note_on_c, 3, 62, 50
5, 4728, Note_on_c, 3, 62, 0
5, 4752, Note_on_c, 3, 60, 50
5, 4776, Note_on_c, 3, 60, 0
5, 4800, Note_on_c, 3, 58, 55
5, 4824, Note_on_c, 3, 58, 0
5, 4848, Note_on_c, 3, 57, 50
5, 4872, Note_on_c, 3, 57, 0
5, 4896, Note_on_c, 3, 55, 50
5, 4920, Note_on_c, 3, 55, 0
5, 4944, Note_on_c, 3, 53, 55
5, 4968, Note_on_c, 3, 53, 0
5, 4992, Note_on_c, 3, 52, 50
5, 5016, Note_on_c, 3, 52, 0
5, 5040, Note_on_c, 3, 50, 50
5, 5064, Note_on_c, 3, 50, 0
5, 5088, Note_on_c, 3, 49, 55
5, 5112, Note_on_c, 3, 49, 0
5, 5136, Note_on_c, 3, 50, 50
5, 5160, Note_on_c, 3, 50, 0
5, 5184, Note_on_c, 3, 52, 50
5, 5208, Note_on_c, 3, 52, 0
5, 5232, Note_on_c, 3, 50, 55
5, 5256, Note_on_c, 3, 50, 0
5, 5280, Note_on_c, 3, 49, 50
5, 5304, Note_on_c, 3, 49, 0
5, 5328, Note_on_c, 3, 50, 50
5, 5352, Note_on_c, 3, 50, 0
5, 5376, Note_on_c, 3, 47, 55
5, 5400, Note_on_c, 3, 47, 0
5, 5424, Note_on_c, 3, 48, 50
5, 5448, Note_on_c, 3, 48, 0
5, 5472, Note_on_c, 3, 53, 50
5, 5496, Note_on_c, 3, 53, 0
5, 5520, Note_on_c, 3, 52, 55
5, 5544, Note_on_c, 3, 52, 0
5, 5568, Note_on_c, 3, 53, 50
5, 5592, Note_on_c, 3, 53, 0
5, 5616, Note_on_c, 3, 52, 50
5, 5640, Note_on_c, 3, 52, 0
5, 5664, Note_on_c, 3, 50, 55
5, 5688, Note_on_c, 3, 50, 0
5, 5712, Note_on_c, 3, 52, 50
5, 5736, Note_on_c, 3, 52, 0
5, 5760, Note_on_c, 3, 53, 50
5, 5784, Note_on_c, 3, 53, 0
5, 5808, Note_on_c, 3, 52, 55
5, 5832, Note_on_c, 3, 52, 0
5, 5856, Note_on_c, 3, 53, 50
5, 5880, Note_on_c, 3, 53, 0
5, 5904, Note_on_c, 3, 52, 50
5, 5928, Note_on_c, 3, 52, 0
5, 5952, Note_on_c, 3, 55, 55
5, 5976, Note_on_c, 3, 55, 0
5, 6000, Note_on_c, 3, 53, 50
5, 6024, Note_on_c, 3, 53, 0
5, 6048, Note_on_c, 3, 52, 50
5, 6072, Note_on_c, 3, 52, 0
5, 6096, Note_on_c, 3, 50, 55
5, 6120, Note_on_c, 3, 50, 0
5, 6144, Note_on_c, 3, 52, 50
5, 6168, Note_on_c, 3, 52, 0
5, 6192, Note_on_c, 3, 53, 50
5, 6216, Note_on_c, 3, 53, 0
5, 6240, Note_on_c, 3, 52, 55
5, 6264, Note_on_c, 3, 52, 0
5, 6288, Note_on_c, 3, 53, 50
5, 6312, Note_on_c, 3, 53, 0
5, 6336, Note_on_c, 3, 55, 50
5, 6360, Note_on_c, 3, 55, 0
5, 6384, Note_on_c, 3, 57, 55
5, 6408, Note_on_c, 3, 57, 0
5, 6432, Note_on_c, 3, 55, 50
5, 6456, Note_on_c, 3, 55, 0
5, 6480, Note_on_c, 3, 53, 50
5, 6504, Note_on_c, 3, 53, 0
5, 6528, Note_on_c, 3, 55, 55
5, 6552, Note_on_c, 3, 55, 0
5, 6576, Note_on_c, 3, 53, 51
5, 6600, Note_on_c, 3, 53, 0
5, 6624, Note_on_c, 3, 52, 53
5, 6648, Note_on_c, 3, 52, 0
5, 6672, Note_on_c, 3, 53, 60
5, 6696, Note_on_c, 3, 53, 0
5, 6720, Note_on_c, 3, 55, 56
5, 6744, Note_on_c, 3, 55, 0
5, 6768, Note_on_c, 3, 53, 58
5, 6792, Note_on_c, 3, 53, 0
5, 6816, Note_on_c, 3, 55, 65
5, 6840, Note_on_c, 3, 55, 0
5, 6864, Note_on_c, 3, 53, 61
5, 6888, Note_on_c, 3, 53, 0
5, 6912, Note_on_c, 3, 52, 63
5, 6936, Note_on_c, 3, 52, 0
5, 6960, Note_on_c, 3, 53, 70
5, 6984, Note_on_c, 3, 53, 0
5, 7008, Note_on_c, 3, 55, 66
5, 7032, Note_on_c, 3, 55, 0
5, 7056, Note_on_c, 3, 53, 68
5, 7080, Note_on_c, 3, 53, 0
5, 7104, Note_on_c, 3, 55, 75
5, 7128, Note_on_c, 3, 55, 0
5, 7152, Note_on_c, 3, 53, 71
5, 7176, Note_on_c, 3, 53, 0
5, 7200, Note_on_c, 3, 52, 73
5, 7224, Note_on_c, 3, 52, 0
5, 7248, Note_on_c, 3, 53, 80
5, 7272, Note_on_c, 3, 53, 0
5, 7296, Note_on_c, 3, 55, 77
5, 7320, Note_on_c, 3, 55, 0
5, 7344, Note_on_c, 3, 53, 78
5, 7368, Note_on_c, 3, 53, 0
5, 7392, Note_on_c, 3, 52, 85
5, 7416, Note_on_c, 3, 52, 0
5, 7440, Note_on_c, 3, 50, 82
5, 7464, Note_on_c, 3, 50, 0
5, 7488, Note_on_c, 3, 49, 83
5, 7512, Note_on_c, 3, 49, 0
5, 7536, Note_on_c, 3, 50, 90
5, 7560, Note_on_c, 3, 50, 0
5, 7584, Note_on_c, 3, 52, 87
5, 7608, Note_on_c, 3, 52, 0
5, 7632, Note_on_c, 3, 50, 88
5, 7656, Note_on_c, 3, 50, 0
5, 7680, Note_on_c, 3, 52, 95
5, 7704, Note_on_c, 3, 52, 0
5, 7728, Note_on_c, 3, 50, 92
5, 7752, Note_on_c, 3, 50, 0
5, 7776, Note_on_c, 3, 49, 93
5, 7800, Note_on_c, 3, 49, 0
5, 7824, Note_on_c, 3, 50, 100
5, 7848, Note_on_c, 3, 50, 0
5, 7872, Note_on_c, 3, 52, 97
5, 7896, Note_on_c, 3, 52, 0
5, 7920, Note_on_c, 3, 50, 98
5, 7944, Note_on_c, 3, 50, 0
5, 7968, Note_on_c, 3, 52, 105
5, 7992, Note_on_c, 3, 52, 0
5, 8016, Note_on_c, 3, 50, 102
5, 8040, Note_on_c, 3, 50, 0
5, 8064, Note_on_c, 3, 49, 104
5, 8088, Note_on_c, 3, 49, 0
5, 8112, Note_on_c, 3, 61, 110
5, 8136, Note_on_c, 3, 61, 0
5, 8160, Note_on_c, 3, 62, 107
5, 8184, Note_on_c, 3, 62, 0
5, 8208, Note_on_c, 3, 64, 109
5, 8232, Note_on_c, 3, 64, 0
5, 8256, Note_on_c, 3, 50, 110
5, 8280, Note_on_c, 3, 50, 0
5, 8400, Note_on_c, 3, 62, 110
5, 8424, Note_on_c, 3, 62, 0
5, 8544, Note_on_c, 3, 57, 110
5, 8568, Note_on_c, 3, 57, 0
5, 8688, Note_on_c, 3, 50, 110
5, 8712, Note_on_c, 3, 50, 0
5, 8832, Note_on_c, 3, 55, 110
5, 8856, Note_on_c, 3, 55, 0
5, 8976, Note_on_c, 3, 57, 110
5, 9000, Note_on_c, 3, 57, 0
5, 9120, Note_on_c, 3, 45, 110
5, 9144, Note_on_c, 3, 45, 0
5, 9264, Note_on_c, 3, 50, 110
5, 9288, Note_on_c, 3, 50, 0
5, 9408, Note_on_c, 3, 55, 110
5, 9432, Note_on_c, 3, 55, 0
5, 9552, Note_on_c, 3, 57, 110
5, 9576, Note_on_c, 3, 57, 0
5, 9696, Note_on_c, 3, 45, 110
5, 9720, Note_on_c, 3, 45, 0
5, 9840, Note_on_c, 3, 50, 110
5, 9864, Note_on_c, 3, 50, 0
5, 9936, Note_on_c, 3, 43, 110
5, 9960, Note_on_c, 3, 43, 0
5, 9984, Note_on_c, 3, 43, 110
5, 10008, Note_on_c, 3, 43, 0
5, 10128, Note_on_c, 3, 48, 110
5, 10152, Note_on_c, 3, 48, 0
5, 10272, Note_on_c, 3, 55, 110
5, 10296, Note_on_c, 3, 55, 0
5, 10416, Note_on_c, 3, 60, 110
5, 10440, Note_on_c, 3, 60, 0
5, 10464, Note_on_c, 3, 55, 110
5, 10488, Note_on_c, 3, 55, 0
5, 10512, Note_on_c, 3, 55, 110
5, 10536, Note_on_c, 3, 55, 0
5, 10560, Note_on_c, 3, 43, 110
5, 10584, Note_on_c, 3, 43, 0
5, 10704, Note_on_c, 3, 48, 110
5, 10728, Note_on_c, 3, 48, 0
5, 10848, Note_on_c, 3, 60, 110
5, 10872, Note_on_c, 3, 60, 0
5, 10992, Note_on_c, 3, 60, 110
5, 11016, Note_on_c, 3, 60, 0
5, 11136, Note_on_c, 3, 55, 110
5, 11160, Note_on_c, 3, 55, 0
5, 12432, Program_c, 3, 45
5, 12432, Control_c, 3, 7, 105
5, 12432, Note_on_c, 3, 60, 63
5, 12477, Note_on_c, 3, 60, 0
5, 12576, Note_on_c, 3, 53, 70
5, 12621, Note_on_c, 3, 53, 0
5, 12720, Note_on_c, 3, 50, 78
5, 12765, Note_on_c, 3, 50, 0
5, 12864, Note_on_c, 3, 55, 86
5, 12909, Note_on_c, 3, 55, 0
5, 13008, Note_on_c, 3, 60, 94
5, 13053, Note_on_c, 3, 60, 0
5, 13152, Note_on_c, 3, 55, 102
5, 13197, Note_on_c, 3, 55, 0
5, 13296, Note_on_c, 3, 43, 110
5, 13341, Note_on_c, 3, 43, 0
5, 13440, Program_c, 3, 48
5, 13440, Control_c, 3, 7, 123
5, 13440, Note_on_c, 3, 48, 120
5, 13475, Note_on_c, 3, 48, 0
5, 13512, Note_on_c, 3, 36, 113
5, 13524, Note_on_c, 3, 36, 0
5, 13536, Note_on_c, 3, 36, 113
5, 13560, Note_on_c, 3, 36, 0
5, 13584, Note_on_c, 3, 48, 120
5, 13619, Note_on_c, 3, 48, 0
5, 13656, Note_on_c, 3, 36, 113
5, 13668, Note_on_c, 3, 36, 0
5, 13680, Note_on_c, 3, 36, 113
5, 13704, Note_on_c, 3, 36, 0
5, 13728, Note_on_c, 3, 48, 120
5, 13763, Note_on_c, 3, 48, 0
5, 13800, Note_on_c, 3, 36, 113
5, 13812, Note_on_c, 3, 36, 0
5, 13824, Note_on_c, 3, 36, 113
5, 13848, Note_on_c, 3, 36, 0
5, 13872, Note_on_c, 3, 48, 120
5, 13907, Note_on_c, 3, 48, 0
5, 13944, Note_on_c, 3, 36, 113
5, 13956, Note_on_c, 3, 36, 0
5, 13968, Note_on_c, 3, 36, 113
5, 13992, Note_on_c, 3, 36, 0
5, 14016, Note_on_c, 3, 48, 120
5, 14051, Note_on_c, 3, 48, 0
5, 14088, Note_on_c, 3, 36, 113
5, 14100, Note_on_c, 3, 36, 0
5, 14112, Note_on_c, 3, 36, 113
5, 14136, Note_on_c, 3, 36, 0
5, 14160, Note_on_c, 3, 48, 120
5, 14195, Note_on_c, 3, 48, 0
5, 14232, Note_on_c, 3, 36, 113
5, 14244, Note_on_c, 3, 36, 0
5, 14256, Note_on_c, 3, 36, 113
5, 14280, Note_on_c, 3, 36, 0
5, 14304, Note_on_c, 3, 48, 120
5, 14339, Note_on_c, 3, 48, 0
5, 14376, Note_on_c, 3, 36, 113
5, 14388, Note_on_c, 3, 36, 0
5, 14400, Note_on_c, 3, 36, 113
5, 14424, Note_on_c, 3, 36, 0
5, 14448, Note_on_c, 3, 48, 120
5, 14483, Note_on_c, 3, 48, 0
5, 14520, Note_on_c, 3, 36, 113
5, 14532, Note_on_c, 3, 36, 0
5, 14544, Note_on_c, 3, 36, 113
5, 14568, Note_on_c, 3, 36, 0
5, 14592, Note_on_c, 3, 48, 120
5, 14627, Note_on_c, 3, 48, 0
5, 14664, Note_on_c, 3, 36, 113
5, 14676, Note_on_c, 3, 36, 0
5, 14688, Note_on_c, 3, 36, 113
5, 14712, Note_on_c, 3, 36, 0
5, 14736, Note_on_c, 3, 48, 120
5, 14771, Note_on_c, 3, 48, 0
5, 14808, Note_on_c, 3, 36, 113
5, 14820, Note_on_c, 3, 36, 0
5, 14832, Note_on_c, 3, 36, 113
5, 14856, Note_on_c, 3, 36, 0
5, 14880, Note_on_c, 3, 48, 120
5, 14915, Note_on_c, 3, 48, 0
5, 14952, Note_on_c, 3, 36, 113
5, 14964, Note_on_c, 3, 36, 0
5, 14976, Note_on_c, 3, 36, 113
5, 15000, Note_on_c, 3, 36, 0
5, 15024, Note_on_c, 3, 48, 120
5, 15059, Note_on_c, 3, 48, 0
5, 15096, Note_on_c, 3, 36, 113
5, 15108, Note_on_c, 3, 36, 0
5, 15120, Note_on_c, 3, 36, 113
5, 15144, Note_on_c, 3, 36, 0
5, 15168, Note_on_c, 3, 48, 120
5, 15203, Note_on_c, 3, 48, 0
5, 15240, Note_on_c, 3, 36, 113
5, 15252, Note_on_c, 3, 36, 0
5, 15264, Note_on_c, 3, 36, 113
5, 15288, Note_on_c, 3, 36, 0
5, 15312, Note_on_c, 3, 48, 120
5, 15347, Note_on_c, 3, 48, 0
5, 15384, Note_on_c, 3, 36, 113
5, 15396, Note_on_c, 3, 36, 0
5, 15408, Note_on_c, 3, 36, 113
5, 15432, Note_on_c, 3, 36, 0
5, 15456, Note_on_c, 3, 48, 120
5, 15491, Note_on_c, 3, 48, 0
5, 15528, Note_on_c, 3, 36, 113
5, 15540, Note_on_c, 3, 36, 0
5, 15552, Note_on_c, 3, 36, 113
5, 15576, Note_on_c, 3, 36, 0
5, 15600, Note_on_c, 3, 48, 120
5, 15635, Note_on_c, 3, 48, 0
5, 15672, Note_on_c, 3, 36, 113
5, 15684, Note_on_c, 3, 36, 0
5, 15696, Note_on_c, 3, 36, 113
5, 15720, Note_on_c, 3, 36, 0
5, 15744, Note_on_c, 3, 48, 113
5, 15768, Note_on_c, 3, 48, 0
5, 16032, Note_on_c, 3, 53, 120
5, 16067, Note_on_c, 3, 53, 0
5, 16104, Note_on_c, 3, 41, 113
5, 16116, Note_on_c, 3, 41, 0
5, 16128, Note_on_c, 3, 41, 113
5, 16152, Note_on_c, 3, 41, 0
5, 16176, Note_on_c, 3, 53, 117
5, 16200, Note_on_c, 3, 53, 0
5, 16224, Note_on_c, 3, 50, 113
5, 16248, Note_on_c, 3, 50, 0
5, 16272, Note_on_c, 3, 48, 113
5, 16296, Note_on_c, 3, 48, 0
5, 16320, Note_on_c, 3, 47, 113
5, 16344, Note_on_c, 3, 47, 0
5, 16608, Note_on_c, 3, 64, 120
5, 16643, Note_on_c, 3, 64, 0
5, 16680, Note_on_c, 3, 52, 113
5, 16692, Note_on_c, 3, 52, 0
5, 16704, Note_on_c, 3, 52, 113
5, 16728, Note_on_c, 3, 52, 0
5, 16752, Note_on_c, 3, 64, 117
5, 16776, Note_on_c, 3, 64, 0
5, 16800, Note_on_c, 3, 60, 113
5, 16824, Note_on_c, 3, 60, 0
5, 16848, Note_on_c, 3, 59, 113
5, 16872, Note_on_c, 3, 59, 0
5, 16896, Control_c, 3, 11, 60
5, 16896, Note_on_c, 3, 58, 113
5, 17184, Control_c, 3, 11, 60
5, 17199, Control_c, 3, 11, 61
5, 17213, Control_c, 3, 11, 62
5, 17228, Control_c, 3, 11, 63
5, 17242, Control_c, 3, 11, 64
5, 17256, Control_c, 3, 11, 65
5, 17271, Control_c, 3, 11, 66
5, 17285, Control_c, 3, 11, 67
5, 17299, Control_c, 3, 11, 68
5, 17314, Control_c, 3, 11, 69
5, 17328, Control_c, 3, 11, 70
5, 17342, Control_c, 3, 11, 71
5, 17357, Control_c, 3, 11, 72
5, 17371, Control_c, 3, 11, 73
5, 17376, Note_on_c, 3, 58, 0
5, 17376, Note_on_c, 3, 57, 113
5, 17385, Control_c, 3, 11, 74
5, 17400, Control_c, 3, 11, 75
5, 17414, Control_c, 3, 11, 76
5, 17424, Note_on_c, 3, 57, 0
5, 17424, Note_on_c, 3, 55, 113
5, 17428, Control_c, 3, 11, 77
5, 17443, Control_c, 3, 11, 78
5, 17457, Control_c, 3, 11, 79
5, 17471, Control_c, 3, 11, 80
5, 17472, Note_on_c, 3, 55, 0
5, 17472, Note_on_c, 3, 57, 113
5, 17487, Control_c, 3, 11, 79
5, 17501, Control_c, 3, 11, 78
5, 17516, Control_c, 3, 11, 77
5, 17520, Note_on_c, 3, 57, 0
5, 17520, Note_on_c, 3, 55, 113
5, 17530, Control_c, 3, 11, 76
5, 17544, Control_c, 3, 11, 75
5, 17559, Control_c, 3, 11, 74
5, 17568, Note_on_c, 3, 55, 0
5, 17568, Note_on_c, 3, 54, 113
5, 17573, Control_c, 3, 11, 73
5, 17587, Control_c, 3, 11, 72
5, 17602, Control_c, 3, 11, 71
5, 17616, Note_on_c, 3, 54, 0
5, 17616, Note_on_c, 3, 55, 113
5, 17616, Control_c, 3, 11, 70
5, 17630, Control_c, 3, 11, 69
5, 17645, Control_c, 3, 11, 68
5, 17659, Control_c, 3, 11, 67
5, 17673, Control_c, 3, 11, 66
5, 17688, Control_c, 3, 11, 65
5, 17702, Control_c, 3, 11, 64
5, 17716, Control_c, 3, 11, 63
5, 17731, Control_c, 3, 11, 62
5, 17745, Control_c, 3, 11, 61
5, 17759, Control_c, 3, 11, 60
5, 17760, Note_on_c, 3, 55, 0
5, 18624, Control_c, 3, 11, 120
5, 18624, Note_on_c, 3, 55, 105
5, 18648, Note_on_c, 3, 55, 0
5, 18672, Note_on_c, 3, 60, 100
5, 18696, Note_on_c, 3, 60, 0
5, 18720, Note_on_c, 3, 57, 100
5, 18744, Note_on_c, 3, 57, 0
5, 18768, Note_on_c, 3, 53, 105
5, 18792, Note_on_c, 3, 53, 0
5, 18816, Note_on_c, 3, 55, 100
5, 18840, Note_on_c, 3, 55, 0
5, 18864, Note_on_c, 3, 43, 100
5, 18888, Note_on_c, 3, 43, 0
5, 18912, Note_on_c, 3, 48, 105
5, 18936, Note_on_c, 3, 48, 0
5, 19200, Note_on_c, 3, 55, 105
5, 19224, Note_on_c, 3, 55, 0
5, 19248, Note_on_c, 3, 52, 100
5, 19272, Note_on_c, 3, 52, 0
5, 19296, Note_on_c, 3, 57, 100
5, 19320, Note_on_c, 3, 57, 0
5, 19344, Note_on_c, 3, 53, 105
5, 19368, Note_on_c, 3, 53, 0
5, 19392, Note_on_c, 3, 50, 100
5, 19416, Note_on_c, 3, 50, 0
5, 19440, Note_on_c, 3, 55, 100
5, 19464, Note_on_c, 3, 55, 0
5, 19488, Note_on_c, 3, 48, 100
5, 19512, Note_on_c, 3, 48, 0
5, 19632, Note_on_c, 3, 67, 110
5, 19667, Note_on_c, 3, 67, 0
5, 19704, Note_on_c, 3, 55, 100
5, 19716, Note_on_c, 3, 55, 0
5, 19728, Note_on_c, 3, 55, 100
5, 19752, Note_on_c, 3, 55, 0
5, 19776, Note_on_c, 3, 48, 100
5, 19800, Note_on_c, 3, 48, 0
5, 19920, Note_on_c, 3, 67, 110
5, 19955, Note_on_c, 3, 67, 0
5, 19992, Note_on_c, 3, 55, 100
5, 20004, Note_on_c, 3, 55, 0
5, 20016, Note_on_c, 3, 55, 100
5, 20040, Note_on_c, 3, 55, 0
5, 20064, Control_c, 3, 6, 64
5, 20064, Note_on_c, 3, 57, 57
5, 20112, Note_on_c, 3, 57, 0
5, 20112, Note_on_c, 3, 55, 56
5, 20160, Note_on_c, 3, 55, 0
5, 20160, Note_on_c, 3, 53, 54
5, 20208, Note_on_c, 3, 53, 0
5, 20208, Note_on_c, 3, 52, 53
5, 20256, Note_on_c, 3, 52, 0
5, 20256, Note_on_c, 3, 50, 51
5, 20304, Note_on_c, 3, 50, 0
5, 20304, Note_on_c, 3, 48, 50
5, 20352, Note_on_c, 3, 48, 0
5, 20352, Note_on_c, 3, 47, 47
5, 20400, Note_on_c, 3, 47, 0
5, 20400, Note_on_c, 3, 48, 48
5, 20448, Note_on_c, 3, 48, 0
5, 20448, Note_on_c, 3, 47, 47
5, 20472, Note_on_c, 3, 47, 0
5, 20472, Note_on_c, 3, 59, 59
5, 20496, Note_on_c, 3, 59, 0
5, 20496, Note_on_c, 3, 57, 57
5, 20544, Note_on_c, 3, 57, 0
5, 20544, Note_on_c, 3, 55, 55
5, 20592, Note_on_c, 3, 55, 0
5, 20592, Note_on_c, 3, 53, 53
5, 20640, Note_on_c, 3, 53, 0
5, 20640, Control_c, 3, 6, 14
5, 20640, Note_on_c, 3, 36, 60
5, 20675, Note_on_c, 3, 36, 0
5, 20712, Note_on_c, 3, 48, 50
5, 20724, Note_on_c, 3, 48, 0
5, 20736, Note_on_c, 3, 48, 50
5, 20760, Note_on_c, 3, 48, 0
5, 20784, Note_on_c, 3, 45, 55
5, 20808, Note_on_c, 3, 45, 0
5, 20928, Note_on_c, 3, 41, 60
5, 20963, Note_on_c, 3, 41, 0
5, 21000, Note_on_c, 3, 53, 50
5, 21012, Note_on_c, 3, 53, 0
5, 21024, Note_on_c, 3, 53, 50
5, 21048, Note_on_c, 3, 53, 0
5, 21072, Note_on_c, 3, 50, 55
5, 21096, Note_on_c, 3, 50, 0
5, 22944, Note_on_c, 3, 69, 60
5, 22979, Note_on_c, 3, 69, 0
5, 23016, Note_on_c, 3, 57, 50
5, 23028, Note_on_c, 3, 57, 0
5, 23040, Note_on_c, 3, 57, 50
5, 23064, Note_on_c, 3, 57, 0
5, 23088, Note_on_c, 3, 50, 55
5, 23112, Note_on_c, 3, 50, 0
5, 23136, Note_on_c, 3, 52, 50
5, 23160, Note_on_c, 3, 52, 0
5, 23184, Note_on_c, 3, 53, 50
5, 23208, Note_on_c, 3, 53, 0
5, 23232, Note_on_c, 3, 52, 55
5, 23256, Note_on_c, 3, 52, 0
5, 23280, Note_on_c, 3, 53, 50
5, 23304, Note_on_c, 3, 53, 0
5, 23328, Note_on_c, 3, 55, 50
5, 23352, Note_on_c, 3, 55, 0
5, 23376, Note_on_c, 3, 53, 55
5, 23400, Note_on_c, 3, 53, 0
5, 23424, Note_on_c, 3, 52, 50
5, 23448, Note_on_c, 3, 52, 0
5, 23472, Note_on_c, 3, 50, 50
5, 23496, Note_on_c, 3, 50, 0
5, 23520, Note_on_c, 3, 65, 55
5, 23544, Note_on_c, 3, 65, 0
5, 23568, Note_on_c, 3, 64, 50
5, 23592, Note_on_c, 3, 64, 0
5, 23616, Note_on_c, 3, 62, 50
5, 23640, Note_on_c, 3, 62, 0
5, 23664, Note_on_c, 3, 60, 55
5, 23688, Note_on_c, 3, 60, 0
5, 23712, Note_on_c, 3, 59, 50
5, 23736, Note_on_c, 3, 59, 0
5, 23760, Note_on_c, 3, 57, 50
5, 23784, Note_on_c, 3, 57, 0
5, 23808, Note_on_c, 3, 56, 55
5, 23832, Note_on_c, 3, 56, 0
5, 23856, Note_on_c, 3, 57, 50
5, 23880, Note_on_c, 3, 57, 0
5, 23904, Note_on_c, 3, 59, 50
5, 23928, Note_on_c, 3, 59, 0
5, 23952, Note_on_c, 3, 57, 55
5, 23976, Note_on_c, 3, 57, 0
5, 24000, Note_on_c, 3, 56, 50
5, 24024, Note_on_c, 3, 56, 0
5, 24048, Note_on_c, 3, 57, 50
5, 24072, Note_on_c, 3, 57, 0
5, 24096, Note_on_c, 3, 55, 55
5, 24120, Note_on_c, 3, 55, 0
5, 24144, Note_on_c, 3, 53, 50
5, 24168, Note_on_c, 3, 53, 0
5, 24192, Note_on_c, 3, 52, 50
5, 24216, Note_on_c, 3, 52, 0
5, 24240, Note_on_c, 3, 50, 55
5, 24264, Note_on_c, 3, 50, 0
5, 24288, Note_on_c, 3, 57, 50
5, 24312, Note_on_c, 3, 57, 0
5, 24336, Note_on_c, 3, 57, 50
5, 24360, Note_on_c, 3, 57, 0
5, 24384, Note_on_c, 3, 57, 55
5, 24408, Note_on_c, 3, 57, 0
5, 24432, Note_on_c, 3, 57, 50
5, 24456, Note_on_c, 3, 57, 0
5, 24480, Note_on_c, 3, 57, 50
5, 24504, Note_on_c, 3, 57, 0
5, 24528, Note_on_c, 3, 57, 55
5, 24552, Note_on_c, 3, 57, 0
5, 24576, Note_on_c, 3, 69, 50
5, 24600, Note_on_c, 3, 69, 0
5, 24624, Note_on_c, 3, 69, 50
5, 24648, Note_on_c, 3, 69, 0
5, 24672, Note_on_c, 3, 69, 55
5, 24696, Note_on_c, 3, 69, 0
5, 24720, Note_on_c, 3, 69, 50
5, 24744, Note_on_c, 3, 69, 0
5, 24768, Note_on_c, 3, 69, 50
5, 24792, Note_on_c, 3, 69, 0
5, 24816, Note_on_c, 3, 69, 55
5, 24840, Note_on_c, 3, 69, 0
5, 24864, Note_on_c, 3, 64, 50
5, 24888, Note_on_c, 3, 64, 0
5, 24912, Note_on_c, 3, 64, 50
5, 24936, Note_on_c, 3, 64, 0
5, 24960, Note_on_c, 3, 62, 55
5, 24984, Note_on_c, 3, 62, 0
5, 25008, Note_on_c, 3, 60, 50
5, 25032, Note_on_c, 3, 60, 0
5, 25056, Note_on_c, 3, 59, 50
5, 25080, Note_on_c, 3, 59, 0
5, 25104, Note_on_c, 3, 60, 55
5, 25128, Note_on_c, 3, 60, 0
5, 25152, Note_on_c, 3, 62, 50
5, 25176, Note_on_c, 3, 62, 0
5, 25200, Note_on_c, 3, 60, 50
5, 25224, Note_on_c, 3, 60, 0
5, 25248, Note_on_c, 3, 58, 55
5, 25272, Note_on_c, 3, 58, 0
5, 25296, Note_on_c, 3, 57, 50
5, 25320, Note_on_c, 3, 57, 0
5, 25344, Note_on_c, 3, 55, 50
5, 25368, Note_on_c, 3, 55, 0
5, 25392, Note_on_c, 3, 53, 55
5, 25416, Note_on_c, 3, 53, 0
5, 25440, Note_on_c, 3, 52, 50
5, 25464, Note_on_c, 3, 52, 0
5, 25488, Note_on_c, 3, 50, 50
5, 25512, Note_on_c, 3, 50, 0
5, 25536, Note_on_c, 3, 49, 55
5, 25560, Note_on_c, 3, 49, 0
5, 25584, Note_on_c, 3, 50, 50
5, 25608, Note_on_c, 3, 50, 0
5, 25632, Note_on_c, 3, 52, 50
5, 25656, Note_on_c, 3, 52, 0
5, 25680, Note_on_c, 3, 50, 55
5, 25704, Note_on_c, 3, 50, 0
5, 25728, Note_on_c, 3, 49, 50
5, 25752, Note_on_c, 3, 49, 0
5, 25776, Note_on_c, 3, 50, 50
5, 25800, Note_on_c, 3, 50, 0
5, 25824, Note_on_c, 3, 47, 55
5, 25848, Note_on_c, 3, 47, 0
5, 25872, Note_on_c, 3, 48, 50
5, 25896, Note_on_c, 3, 48, 0
5, 25920, Note_on_c, 3, 53, 50
5, 25944, Note_on_c, 3, 53, 0
5, 25968, Note_on_c, 3, 52, 55
5, 25992, Note_on_c, 3, 52, 0
5, 26016, Note_on_c, 3, 53, 50
5, 26040, Note_on_c, 3, 53, 0
5, 26064, Note_on_c, 3, 52, 50
5, 26088, Note_on_c, 3, 52, 0
5, 26112, Note_on_c, 3, 50, 55
5, 26136, Note_on_c, 3, 50, 0
5, 26160, Note_on_c, 3, 52, 50
5, 26184, Note_on_c, 3, 52, 0
5, 26208, Note_on_c, 3, 53, 50
5, 26232, Note_on_c, 3, 53, 0
5, 26256, Note_on_c, 3, 52, 55
5, 26280, Note_on_c, 3, 52, 0
5, 26304, Note_on_c, 3, 53, 50
5, 26328, Note_on_c, 3, 53, 0
5, 26352, Note_on_c, 3, 52, 50
5, 26376, Note_on_c, 3, 52, 0
5, 26400, Note_on_c, 3, 55, 55
5, 26424, Note_on_c, 3, 55, 0
5, 26448, Note_on_c, 3, 53, 50
5, 26472, Note_on_c, 3, 53, 0
5, 26496, Note_on_c, 3, 52, 50
5, 26520, Note_on_c, 3, 52, 0
5, 26544, Note_on_c, 3, 50, 55
5, 26568, Note_on_c, 3, 50, 0
5, 26592, Note_on_c, 3, 52, 50
5, 26616, Note_on_c, 3, 52, 0
5, 26640, Note_on_c, 3, 53, 50
5, 26664, Note_on_c, 3, 53, 0
5, 26688, Note_on_c, 3, 52, 55
5, 26712, Note_on_c, 3, 52, 0
5, 26736, Note_on_c, 3, 53, 50
5, 26760, Note_on_c, 3, 53, 0
5, 26784, Note_on_c, 3, 55, 50
5, 26808, Note_on_c, 3, 55, 0
5, 26832, Note_on_c, 3, 57, 55
5, 26856, Note_on_c, 3, 57, 0
5, 26880, Note_on_c, 3, 55, 50
5, 26904, Note_on_c, 3, 55, 0
5, 26928, Note_on_c, 3, 53, 50
5, 26952, Note_on_c, 3, 53, 0
5, 26976, Note_on_c, 3, 55, 55
5, 27000, Note_on_c, 3, 55, 0
5, 27024, Note_on_c, 3, 53, 51
5, 27048, Note_on_c, 3, 53, 0
5, 27072, Note_on_c, 3, 52, 53
5, 27096, Note_on_c, 3, 52, 0
5, 27120, Note_on_c, 3, 53, 60
5, 27144, Note_on_c, 3, 53, 0
5, 27168, Note_on_c, 3, 55, 56
5, 27192, Note_on_c, 3, 55, 0
5, 27216, Note_on_c, 3, 53, 58
5, 27240, Note_on_c, 3, 53, 0
5, 27264, Note_on_c, 3, 55, 65
5, 27288, Note_on_c, 3, 55, 0
5, 27312, Note_on_c, 3, 53, 61
5, 27336, Note_on_c, 3, 53, 0
5, 27360, Note_on_c, 3, 52, 63
5, 27384, Note_on_c, 3, 52, 0
5, 27408, Note_on_c, 3, 53, 70
5, 27432, Note_on_c, 3, 53, 0
5, 27456, Note_on_c, 3, 55, 66
5, 27480, Note_on_c, 3, 55, 0
5, 27504, Note_on_c, 3, 53, 68
5, 27528, Note_on_c, 3, 53, 0
5, 27552, Note_on_c, 3, 55, 75
5, 27576, Note_on_c, 3, 55, 0
5, 27600, Note_on_c, 3, 53, 71
5, 27624, Note_on_c, 3, 53, 0
5, 27648, Note_on_c, 3, 52, 73
5, 27672, Note_on_c, 3, 52, 0
5, 27696, Note_on_c, 3, 53, 80
5, 27720, Note_on_c, 3, 53, 0
5, 27744, Note_on_c, 3, 55, 77
5, 27768, Note_on_c, 3, 55, 0
5, 27792, Note_on_c, 3, 53, 78
5, 27816, Note_on_c, 3, 53, 0
5, 27840, Note_on_c, 3, 52, 85
5, 27864, Note_on_c, 3, 52, 0
5, 27888, Note_on_c, 3, 50, 82
5, 27912, Note_on_c, 3, 50, 0
5, 27936, Note_on_c, 3, 49, 83
5, 27960, Note_on_c, 3, 49, 0
5, 27984, Note_on_c, 3, 50, 90
5, 28008, Note_on_c, 3, 50, 0
5, 28032, Note_on_c, 3, 52, 87
5, 28056, Note_on_c, 3, 52, 0
5, 28080, Note_on_c, 3, 50, 88
5, 28104, Note_on_c, 3, 50, 0
5, 28128, Note_on_c, 3, 52, 95
5, 28152, Note_on_c, 3, 52, 0
5, 28176, Note_on_c, 3, 50, 92
5, 28200, Note_on_c, 3, 50, 0
5, 28224, Note_on_c, 3, 49, 93
5, 28248, Note_on_c, 3, 49, 0
5, 28272, Note_on_c, 3, 50, 100
5, 28296, Note_on_c, 3, 50, 0
5, 28320, Note_on_c, 3, 52, 97
5, 28344, Note_on_c, 3, 52, 0
5, 28368, Note_on_c, 3, 50, 98
5, 28392, Note_on_c, 3, 50, 0
5, 28416, Note_on_c, 3, 52, 105
5, 28440, Note_on_c, 3, 52, 0
5, 28464, Note_on_c, 3, 50, 102
5, 28488, Note_on_c, 3, 50, 0
5, 28512, Note_on_c, 3, 49, 104
5, 28536, Note_on_c, 3, 49, 0
5, 28560, Note_on_c, 3, 61, 110
5, 28584, Note_on_c, 3, 61, 0
5, 28608, Note_on_c, 3, 62, 107
5, 28632, Note_on_c, 3, 62, 0
5, 28656, Note_on_c, 3, 64, 109
5, 28680, Note_on_c, 3, 64, 0
5, 28704, Note_on_c, 3, 50, 110
5, 28728, Note_on_c, 3, 50, 0
5, 28848, Note_on_c, 3, 62, 110
5, 28872, Note_on_c, 3, 62, 0
5, 28992, Note_on_c, 3, 57, 110
5, 29016, Note_on_c, 3, 57, 0
5, 29136, Note_on_c, 3, 50, 110
5, 29160, Note_on_c, 3, 50, 0
5, 29280, Note_on_c, 3, 55, 110
5, 29304, Note_on_c, 3, 55, 0
5, 29424, Note_on_c, 3, 57, 110
5, 29448, Note_on_c, 3, 57, 0
5, 29568, Note_on_c, 3, 45, 110
5, 29592, Note_on_c, 3, 45, 0
5, 29712, Note_on_c, 3, 50, 110
5, 29736, Note_on_c, 3, 50, 0
5, 29856, Note_on_c, 3, 55, 110
5, 29880, Note_on_c, 3, 55, 0
5, 30000, Note_on_c, 3, 57, 110
5, 30024, Note_on_c, 3, 57, 0
5, 30144, Note_on_c, 3, 45, 110
5, 30168, Note_on_c, 3, 45, 0
5, 30288, Note_on_c, 3, 50, 110
5, 30312, Note_on_c, 3, 50, 0
5, 30384, Note_on_c, 3, 43, 110
5, 30408, Note_on_c, 3, 43, 0
5, 30432, Note_on_c, 3, 43, 110
5, 30456, Note_on_c, 3, 43, 0
5, 30576, Note_on_c, 3, 48, 110
5, 30600, Note_on_c, 3, 48, 0
5, 30720, Note_on_c, 3, 55, 110
5, 30744, Note_on_c, 3, 55, 0
5, 30864, Note_on_c, 3, 60, 110
5, 30888, Note_on_c, 3, 60, 0
5, 30912, Note_on_c, 3, 55, 110
5, 30936, Note_on_c, 3, 55, 0
5, 30960, Note_on_c, 3, 55, 110
5, 30984, Note_on_c, 3, 55, 0
5, 31008, Note_on_c, 3, 43, 110
5, 31032, Note_on_c, 3, 43, 0
5, 31152, Note_on_c, 3, 48, 110
5, 31176, Note_on_c, 3, 48, 0
5, 31296, Note_on_c, 3, 60, 110
5, 31320, Note_on_c, 3, 60, 0
5, 31440, Note_on_c, 3, 60, 110
5, 31464, Note_on_c, 3, 60, 0
5, 31584, Note_on_c, 3, 55, 110
5, 31608, Note_on_c, 3, 55, 0
5, 32880, Program_c, 3, 45
5, 32880, Control_c, 3, 7, 105
5, 32880, Note_on_c, 3, 60, 63
5, 32925, Note_on_c, 3, 60, 0
5, 33024, Note_on_c, 3, 53, 70
5, 33069, Note_on_c, 3, 53, 0
5, 33168, Note_on_c, 3, 50, 78
5, 33213, Note_on_c, 3, 50, 0
5, 33312, Note_on_c, 3, 55, 86
5, 33357, Note_on_c, 3, 55, 0
5, 33456, Note_on_c, 3, 60, 94
5, 33501, Note_on_c, 3, 60, 0
5, 33600, Note_on_c, 3, 55, 102
5, 33645, Note_on_c, 3, 55, 0
5, 33744, Note_on_c, 3, 43, 110
5, 33789, Note_on_c, 3, 43, 0
5, 33888, Program_c, 3, 48
5, 33888, Control_c, 3, 7, 123
5, 33888, Note_on_c, 3, 48, 120
5, 33923, Note_on_c, 3, 48, 0
5, 33960, Note_on_c, 3, 36, 113
5, 33972, Note_on_c, 3, 36, 0
5, 33984, Note_on_c, 3, 36, 113
5, 34008, Note_on_c, 3, 36, 0
5, 34032, Note_on_c, 3, 48, 120
5, 34067, Note_on_c, 3, 48, 0
5, 34104, Note_on_c, 3, 36, 113
5, 34116, Note_on_c, 3, 36, 0
5, 34128, Note_on_c, 3, 36, 113
5, 34152, Note_on_c, 3, 36, 0
5, 34176, Note_on_c, 3, 48, 120
5, 34211, Note_on_c, 3, 48, 0
5, 34248, Note_on_c, 3, 36, 113
5, 34260, Note_on_c, 3, 36, 0
5, 34272, Note_on_c, 3, 36, 113
5, 34296, Note_on_c, 3, 36, 0
5, 34320, Note_on_c, 3, 48, 120
5, 34355, Note_on_c, 3, 48, 0
5, 34392, Note_on_c, 3, 36, 113
5, 34404, Note_on_c, 3, 36, 0
5, 34416, Note_on_c, 3, 36, 113
5, 34440, Note_on_c, 3, 36, 0
5, 34464, Note_on_c, 3, 48, 120
5, 34499, Note_on_c, 3, 48, 0
5, 34536, Note_on_c, 3, 36, 113
5, 34548, Note_on_c, 3, 36, 0
5, 34560, Note_on_c, 3, 36, 113
5, 34584, Note_on_c, 3, 36, 0
5, 34608, Note_on_c, 3, 48, 120
5, 34643, Note_on_c, 3, 48, 0
5, 34680, Note_on_c, 3, 36, 113
5, 34692, Note_on_c, 3, 36, 0
5, 34704, Note_on_c, 3, 36, 113
5, 34728, Note_on_c, 3, 36, 0
5, 34752, Note_on_c, 3, 48, 120
5, 34787, Note_on_c, 3, 48, 0
5, 34824, Note_on_c, 3, 36, 113
5, 34836, Note_on_c, 3, 36, 0
5, 34848, Note_on_c, 3, 36, 113
5, 34872, Note_on_c, 3, 36, 0
5, 34896, Note_on_c, 3, 48, 120
5, 34931, Note_on_c, 3, 48, 0
5, 34968, Note_on_c, 3, 36, 113
5, 34980, Note_on_c, 3, 36, 0
5, 34992, Note_on_c, 3, 36, 113
5, 35016, Note_on_c, 3, 36, 0
5, 35040, Note_on_c, 3, 48, 120
5, 35075, Note_on_c, 3, 48, 0
5, 35112, Note_on_c, 3, 36, 113
5, 35124, Note_on_c, 3, 36, 0
5, 35136, Note_on_c, 3, 36, 113
5, 35160, Note_on_c, 3, 36, 0
5, 35184, Note_on_c, 3, 48, 120
5, 35219, Note_on_c, 3, 48, 0
5, 35256, Note_on_c, 3, 36, 113
5, 35268, Note_on_c, 3, 36, 0
5, 35280, Note_on_c, 3, 36, 113
5, 35304, Note_on_c, 3, 36, 0
5, 35328, Note_on_c, 3, 48, 120
5, 35363, Note_on_c, 3, 48, 0
5, 35400, Note_on_c, 3, 36, 113
5, 35412, Note_on_c, 3, 36, 0
5, 35424, Note_on_c, 3, 36, 113
5, 35448, Note_on_c, 3, 36, 0
5, 35472, Note_on_c, 3, 48, 120
5, 35507, Note_on_c, 3, 48, 0
5, 35544, Note_on_c, 3, 36, 113
5, 35556, Note_on_c, 3, 36, 0
5, 35568, Note_on_c, 3, 36, 113
5, 35592, Note_on_c, 3, 36, 0
5, 35616, Note_on_c, 3, 48, 120
5, 35651, Note_on_c, 3, 48, 0
5, 35688, Note_on_c, 3, 36, 113
5, 35700, Note_on_c, 3, 36, 0
5, 35712, Note_on_c, 3, 36, 113
5, 35736, Note_on_c, 3, 36, 0
5, 35760, Note_on_c, 3, 48, 120
5, 35795, Note_on_c, 3, 48, 0
5, 35832, Note_on_c, 3, 36, 113
5, 35844, Note_on_c, 3, 36, 0
5, 35856, Note_on_c, 3, 36, 113
5, 35880, Note_on_c, 3, 36, 0
5, 35904, Note_on_c, 3, 48, 120
5, 35939, Note_on_c, 3, 48, 0
5, 35976, Note_on_c, 3, 36, 113
5, 35988, Note_on_c, 3, 36, 0
5, 36000, Note_on_c, 3, 36, 113
5, 36024, Note_on_c, 3, 36, 0
5, 36048, Note_on_c, 3, 48, 120
5, 36083, Note_on_c, 3, 48, 0
5, 36120, Note_on_c, 3, 36, 113
5, 36132, Note_on_c, 3, 36, 0
5, 36144, Note_on_c, 3, 36, 113
5, 36168, Note_on_c, 3, 36, 0
5, 36192, Note_on_c, 3, 48, 113
5, 36216, Note_on_c, 3, 48, 0
5, 36480, Note_on_c, 3, 53, 120
5, 36515, Note_on_c, 3, 53, 0
5, 36552, Note_on_c, 3, 41, 113
5, 36564, Note_on_c, 3, 41, 0
5, 36576, Note_on_c, 3, 41, 113
5, 36600, Note_on_c, 3, 41, 0
5, 36624, Note_on_c, 3, 53, 117
5, 36648, Note_on_c, 3, 53, 0
5, 36672, Note_on_c, 3, 50, 113
5, 36696, Note_on_c, 3, 50, 0
5, 36720, Note_on_c, 3, 48, 113
5, 36744, Note_on_c, 3, 48, 0
5, 36768, Note_on_c, 3, 47, 113
5, 36792, Note_on_c, 3, 47, 0
5, 37056, Note_on_c, 3, 64, 120
5, 37091, Note_on_c, 3, 64, 0
5, 37128, Note_on_c, 3, 52, 113
5, 37140, Note_on_c, 3, 52, 0
5, 37152, Note_on_c, 3, 52, 113
5, 37176, Note_on_c, 3, 52, 0
5, 37200, Note_on_c, 3, 64, 117
5, 37224, Note_on_c, 3, 64, 0
5, 37248, Note_on_c, 3, 60, 113
5, 37272, Note_on_c, 3, 60, 0
5, 37296, Note_on_c, 3, 59, 113
5, 37320, Note_on_c, 3, 59, 0
5, 37344, Control_c, 3, 11, 60
5, 37344, Note_on_c, 3, 58, 113
5, 37632, Control_c, 3, 11, 60
5, 37647, Control_c, 3, 11, 61
5, 37661, Control_c, 3, 11, 62
5, 37676, Control_c, 3, 11, 63
5, 37690, Control_c, 3, 11, 64
5, 37704, Control_c, 3, 11, 65
5, 37719, Control_c, 3, 11, 66
5, 37733, Control_c, 3, 11, 67
5, 37747, Control_c, 3, 11, 68
5, 37762, Control_c, 3, 11, 69
5, 37776, Control_c, 3, 11, 70
5, 37790, Control_c, 3, 11, 71
5, 37805, Control_c, 3, 11, 72
5, 37819, Control_c, 3, 11, 73
5, 37824, Note_on_c, 3, 58, 0
5, 37824, Note_on_c, 3, 57, 113
5, 37833, Control_c, 3, 11, 74
5, 37848, Control_c, 3, 11, 75
5, 37862, Control_c, 3, 11, 76
5, 37872, Note_on_c, 3, 57, 0
5, 37872, Note_on_c, 3, 55, 113
5, 37876, Control_c, 3, 11, 77
5, 37891, Control_c, 3, 11, 78
5, 37905, Control_c, 3, 11, 79
5, 37919, Control_c, 3, 11, 80
5, 37920, Note_on_c, 3, 55, 0
5, 37920, Note_on_c, 3, 57, 113
5, 37935, Control_c, 3, 11, 79
5, 37949, Control_c, 3, 11, 78
5, 37964, Control_c, 3, 11, 77
5, 37968, Note_on_c, 3, 57, 0
5, 37968, Note_on_c, 3, 55, 113
5, 37978, Control_c, 3, 11, 76
5, 37992, Control_c, 3, 11, 75
5, 38007, Control_c, 3, 11, 74
5, 38016, Note_on_c, 3, 55, 0
5, 38016, Note_on_c, 3, 54, 113
5, 38021, Control_c, 3, 11, 73
5, 38035, Control_c, 3, 11, 72
5, 38050, Control_c, 3, 11, 71
5, 38064, Note_on_c, 3, 54, 0
5, 38064, Note_on_c, 3, 55, 113
5, 38064, Control_c, 3, 11, 70
5, 38078, Control_c, 3, 11, 69
5, 38093, Control_c, 3, 11, 68
5, 38107, Control_c, 3, 11, 67
5, 38121, Control_c, 3, 11, 66
5, 38136, Control_c, 3, 11, 65
5, 38150, Control_c, 3, 11, 64
5, 38164, Control_c, 3, 11, 63
5, 38179, Control_c, 3, 11, 62
5, 38193, Control_c, 3, 11, 61
5, 38207, Control_c, 3, 11, 60
5, 38208, Note_on_c, 3, 55, 0
5, 39072, Control_c, 3, 11, 120
5, 39072, Note_on_c, 3, 55, 105
5, 39096, Note_on_c, 3, 55, 0
5, 39120, Note_on_c, 3, 60, 100
5, 39144, Note_on_c, 3, 60, 0
5, 39168, Note_on_c, 3, 57, 100
5, 39192, Note_on_c, 3, 57, 0
5, 39216, Note_on_c, 3, 53, 105
5, 39240, Note_on_c, 3, 53, 0
5, 39264, Note_on_c, 3, 55, 100
5, 39288, Note_on_c, 3, 55, 0
5, 39312, Note_on_c, 3, 43, 100
5, 39336, Note_on_c, 3, 43, 0
5, 39360, Note_on_c, 3, 48, 105
5, 39384, Note_on_c, 3, 48, 0
5, 39648, Note_on_c, 3, 55, 105
5, 39672, Note_on_c, 3, 55, 0
5, 39696, Note_on_c, 3, 52, 100
5, 39720, Note_on_c, 3, 52, 0
5, 39744, Note_on_c, 3, 57, 100
5, 39768, Note_on_c, 3, 57, 0
5, 39792, Note_on_c, 3, 53, 105
5, 39816, Note_on_c, 3, 53, 0
5, 39840, Note_on_c, 3, 50, 100
5, 39864, Note_on_c, 3, 50, 0
5, 39888, Note_on_c, 3, 55, 100
5, 39912, Note_on_c, 3, 55, 0
5, 39936, Note_on_c, 3, 48, 100
5, 39960, Note_on_c, 3, 48, 0
5, 40080, Note_on_c, 3, 67, 110
5, 40115, Note_on_c, 3, 67, 0
5, 40152, Note_on_c, 3, 55, 100
5, 40164, Note_on_c, 3, 55, 0
5, 40176, Note_on_c, 3, 55, 100
5, 40200, Note_on_c, 3, 55, 0
5, 40224, Note_on_c, 3, 48, 100
5, 40248, Note_on_c, 3, 48, 0
5, 40368, Note_on_c, 3, 67, 110
5, 40403, Note_on_c, 3, 67, 0
5, 40440, Note_on_c, 3, 55, 100
5, 40452, Note_on_c, 3, 55, 0
5, 40464, Note_on_c, 3, 55, 100
5, 40488, Note_on_c, 3, 55, 0
5, 40512, Control_c, 3, 6, 64
5, 40512, Note_on_c, 3, 57, 57
5, 40560, Note_on_c, 3, 57, 0
5, 40560, Note_on_c, 3, 55, 56
5, 40608, Note_on_c, 3, 55, 0
5, 40608, Note_on_c, 3, 53, 54
5, 40656, Note_on_c, 3, 53, 0
5, 40656, Note_on_c, 3, 52, 53
5, 40704, Note_on_c, 3, 52, 0
5, 40704, Note_on_c, 3, 50, 51
5, 40752, Note_on_c, 3, 50, 0
5, 40752, Note_on_c, 3, 48, 50
5, 40800, Note_on_c, 3, 48, 0
5, 40800, Note_on_c, 3, 47, 47
5, 40848, Note_on_c, 3, 47, 0
5, 40848, Note_on_c, 3, 48, 48
5, 40896, Note_on_c, 3, 48, 0
5, 40896, Note_on_c, 3, 47, 47
5, 40920, Note_on_c, 3, 47, 0
5, 40920, Note_on_c, 3, 59, 59
5, 40944, Note_on_c, 3, 59, 0
5, 40944, Note_on_c, 3, 57, 57
5, 40992, Note_on_c, 3, 57, 0
5, 40992, Note_on_c, 3, 55, 55
5, 41040, Note_on_c, 3, 55, 0
5, 41040, Note_on_c, 3, 53, 53
5, 41088, Note_on_c, 3, 53, 0
5, 41088, Control_c, 3, 6, 14
5, 41088, Note_on_c, 3, 36, 60
5, 41123, Note_on_c, 3, 36, 0
5, 41160, Note_on_c, 3, 48, 50
5, 41172, Note_on_c, 3, 48, 0
5, 41184, Note_on_c, 3, 48, 50
5, 41208, Note_on_c, 3, 48, 0
5, 41232, Note_on_c, 3, 45, 55
5, 41256, Note_on_c, 3, 45, 0
5, 41376, Note_on_c, 3, 41, 60
5, 41411, Note_on_c, 3, 41, 0
5, 41448, Note_on_c, 3, 53, 50
5, 41460, Note_on_c, 3, 53, 0
5, 41472, Note_on_c, 3, 53, 50
5, 41496, Note_on_c, 3, 53, 0
5, 41520, Note_on_c, 3, 50, 55
5, 41544, Note_on_c, 3, 50, 0
5, 42240, Note_on_c, 3, 38, 60
5, 42275, Note_on_c, 3, 38, 0
5, 42312, Note_on_c, 3, 50, 50
5, 42324, Note_on_c, 3, 50, 0
5, 42336, Note_on_c, 3, 50, 50
5, 42360, Note_on_c, 3, 50, 0
5, 42384, Note_on_c, 3, 46, 55
5, 42408, Note_on_c, 3, 46, 0
5, 42528, Note_on_c, 3, 43, 60
5, 42563, Note_on_c, 3, 43, 0
5, 42600, Note_on_c, 3, 55, 50
5, 42612, Note_on_c, 3, 55, 0
5, 42624, Note_on_c, 3, 55, 50
5, 42648, Note_on_c, 3, 55, 0
5, 42672, Note_on_c, 3, 51, 55
5, 42696, Note_on_c, 3, 51, 0
5, 43392, Note_on_c, 3, 51, 70
5, 43427, Note_on_c, 3, 51, 0
5, 43464, Note_on_c, 3, 63, 61
5, 43476, Note_on_c, 3, 63, 0
5, 43488, Note_on_c, 3, 63, 61
5, 43512, Note_on_c, 3, 63, 0
5, 43536, Note_on_c, 3, 60, 62
5, 43560, Note_on_c, 3, 60, 0
5, 43680, Note_on_c, 3, 44, 75
5, 43715, Note_on_c, 3, 44, 0
5, 43752, Note_on_c, 3, 56, 67
5, 43764, Note_on_c, 3, 56, 0
5, 43776, Note_on_c, 3, 56, 67
5, 43800, Note_on_c, 3, 56, 0
5, 43824, Note_on_c, 3, 53, 68
5, 43848, Note_on_c, 3, 53, 0
5, 43968, Note_on_c, 3, 49, 80
5, 44003, Note_on_c, 3, 49, 0
5, 44040, Note_on_c, 3, 61, 72
5, 44052, Note_on_c, 3, 61, 0
5, 44064, Note_on_c, 3, 61, 73
5, 44088, Note_on_c, 3, 61, 0
5, 44112, Note_on_c, 3, 58, 74
5, 44136, Note_on_c, 3, 58, 0
5, 44256, Note_on_c, 3, 42, 86
5, 44291, Note_on_c, 3, 42, 0
5, 44328, Note_on_c, 3, 54, 78
5, 44340, Note_on_c, 3, 54, 0
5, 44352, Note_on_c, 3, 54, 78
5, 44376, Note_on_c, 3, 54, 0
5, 44400, Note_on_c, 3, 51, 79
5, 44424, Note_on_c, 3, 51, 0
5, 44544, Note_on_c, 3, 47, 92
5, 44579, Note_on_c, 3, 47, 0
5, 44616, Note_on_c, 3, 59, 83
5, 44628, Note_on_c, 3, 59, 0
5, 44640, Note_on_c, 3, 59, 84
5, 44664, Note_on_c, 3, 59, 0
5, 44688, Note_on_c, 3, 56, 85
5, 44712, Note_on_c, 3, 56, 0
5, 44832, Note_on_c, 3, 52, 98
5, 44867, Note_on_c, 3, 52, 0
5, 44904, Note_on_c, 3, 64, 89
5, 44916, Note_on_c, 3, 64, 0
5, 44928, Note_on_c, 3, 64, 90
5, 44952, Note_on_c, 3, 64, 0
5, 44976, Note_on_c, 3, 61, 90
5, 45000, Note_on_c, 3, 61, 0
5, 45120, Note_on_c, 3, 45, 110
5, 45155, Note_on_c, 3, 45, 0
5, 45192, Note_on_c, 3, 57, 100
5, 45204, Note_on_c, 3, 57, 0
5, 45216, Note_on_c, 3, 57, 100
5, 45240, Note_on_c, 3, 57, 0
5, 45408, Note_on_c, 3, 46, 119
5, 45443, Note_on_c, 3, 46, 0
5, 45480, Note_on_c, 3, 58, 113
5, 45492, Note_on_c, 3, 58, 0
5, 45504, Note_on_c, 3, 58, 113
5, 45528, Note_on_c, 3, 58, 0
5, 45696, Note_on_c, 3, 47, 120
5, 45731, Note_on_c, 3, 47, 0
5, 45768, Note_on_c, 3, 59, 113
5, 45780, Note_on_c, 3, 59, 0
5, 45792, Note_on_c, 3, 59, 113
5, 45816, Note_on_c, 3, 59, 0
5, 46032, Program_c, 3, 45
5, 46170, Control_c, 3, 7, 105
5, 46176, Note_on_c, 3, 52, 60
5, 46200, Note_on_c, 3, 52, 0
5, 46320, Note_on_c, 3, 47, 57
5, 46344, Note_on_c, 3, 47, 0
5, 46608, Note_on_c, 3, 52, 60
5, 46632, Note_on_c, 3, 52, 0
5, 46752, Note_on_c, 3, 47, 57
5, 46776, Note_on_c, 3, 47, 0
5, 47040, Note_on_c, 3, 52, 60
5, 47064, Note_on_c, 3, 52, 0
5, 47184, Note_on_c, 3, 47, 57
5, 47208, Note_on_c, 3, 47, 0
5, 47472, Note_on_c, 3, 64, 60
5, 47496, Note_on_c, 3, 64, 0
5, 47616, Note_on_c, 3, 52, 57
5, 47640, Note_on_c, 3, 52, 0
5, 47904, Note_on_c, 3, 57, 60
5, 47928, Note_on_c, 3, 57, 0
5, 48048, Note_on_c, 3, 52, 57
5, 48072, Note_on_c, 3, 52, 0
5, 48336, Note_on_c, 3, 57, 60
5, 48360, Note_on_c, 3, 57, 0
5, 48480, Note_on_c, 3, 52, 57
5, 48504, Note_on_c, 3, 52, 0
5, 48768, Note_on_c, 3, 65, 60
5, 48792, Note_on_c, 3, 65, 0
5, 48912, Note_on_c, 3, 53, 57
5, 48936, Note_on_c, 3, 53, 0
5, 49200, Note_on_c, 3, 65, 60
5, 49224, Note_on_c, 3, 65, 0
5, 49344, Note_on_c, 3, 53, 57
5, 49368, Note_on_c, 3, 53, 0
5, 49632, Note_on_c, 3, 65, 60
5, 49656, Note_on_c, 3, 65, 0
5, 49776, Note_on_c, 3, 53, 57
5, 49800, Note_on_c, 3, 53, 0
5, 50064, Note_on_c, 3, 65, 60
5, 50088, Note_on_c, 3, 65, 0
5, 50208, Note_on_c, 3, 53, 57
5, 50232, Note_on_c, 3, 53, 0
5, 50352, Note_on_c, 3, 53, 60
5, 50376, Note_on_c, 3, 53, 0
5, 50496, Note_on_c, 3, 41, 60
5, 50520, Note_on_c, 3, 41, 0
5, 50640, Note_on_c, 3, 53, 57
5, 50664, Note_on_c, 3, 53, 0
5, 50784, Program_c, 3, 48
5, 50784, Control_c, 3, 7, 123
5, 50784, Note_on_c, 3, 60, 55
5, 50808, Note_on_c, 3, 60, 0
5, 50832, Note_on_c, 3, 60, 50
5, 50856, Note_on_c, 3, 60, 0
5, 50880, Note_on_c, 3, 60, 50
5, 50904, Note_on_c, 3, 60, 0
5, 50928, Note_on_c, 3, 60, 55
5, 50952, Note_on_c, 3, 60, 0
5, 50976, Note_on_c, 3, 60, 50
5, 51000, Note_on_c, 3, 60, 0
5, 51024, Note_on_c, 3, 60, 50
5, 51048, Note_on_c, 3, 60, 0
5, 51072, Note_on_c, 3, 60, 55
5, 51096, Note_on_c, 3, 60, 0
5, 51120, Note_on_c, 3, 60, 50
5, 51144, Note_on_c, 3, 60, 0
5, 51168, Note_on_c, 3, 60, 50
5, 51192, Note_on_c, 3, 60, 0
5, 51216, Program_c, 3, 45
5, 51216, Control_c, 3, 7, 105
5, 51216, Note_on_c, 3, 62, 50
5, 51240, Note_on_c, 3, 62, 0
5, 51360, Note_on_c, 3, 50, 47
5, 51384, Note_on_c, 3, 50, 0
5, 51504, Note_on_c, 3, 62, 50
5, 51528, Note_on_c, 3, 62, 0
5, 51648, Note_on_c, 3, 57, 50
5, 51672, Note_on_c, 3, 57, 0
5, 51792, Note_on_c, 3, 45, 47
5, 51816, Note_on_c, 3, 45, 0
5, 51936, Note_on_c, 3, 57, 50
5, 51960, Note_on_c, 3, 57, 0
5, 52080, Note_on_c, 3, 57, 50
5, 52104, Note_on_c, 3, 57, 0
5, 52224, Note_on_c, 3, 45, 47
5, 52248, Note_on_c, 3, 45, 0
5, 52368, Note_on_c, 3, 57, 50
5, 52392, Note_on_c, 3, 57, 0
5, 52512, Note_on_c, 3, 57, 50
5, 52536, Note_on_c, 3, 57, 0
5, 52656, Note_on_c, 3, 45, 47
5, 52680, Note_on_c, 3, 45, 0
5, 52800, Note_on_c, 3, 57, 50
5, 52824, Note_on_c, 3, 57, 0
5, 52944, Note_on_c, 3, 55, 55
5, 52968, Note_on_c, 3, 55, 0
5, 52992, Note_on_c, 3, 53, 50
5, 53016, Note_on_c, 3, 53, 0
5, 53040, Note_on_c, 3, 52, 50
5, 53064, Note_on_c, 3, 52, 0
5, 53088, Note_on_c, 3, 50, 55
5, 53112, Note_on_c, 3, 50, 0
5, 53232, Note_on_c, 3, 45, 50
5, 53256, Note_on_c, 3, 45, 0
5, 53520, Note_on_c, 3, 50, 50
5, 53544, Note_on_c, 3, 50, 0
5, 53664, Note_on_c, 3, 45, 47
5, 53688, Note_on_c, 3, 45, 0
5, 53952, Note_on_c, 3, 50, 50
5, 53976, Note_on_c, 3, 50, 0
5, 54096, Note_on_c, 3, 45, 47
5, 54120, Note_on_c, 3, 45, 0
5, 54240, Program_c, 3, 48
5, 54240, Control_c, 3, 7, 123
5, 54240, Note_on_c, 3, 57, 60
5, 54275, Note_on_c, 3, 57, 0
5, 54312, Note_on_c, 3, 45, 50
5, 54324, Note_on_c, 3, 45, 0
5, 54336, Note_on_c, 3, 45, 50
5, 54360, Note_on_c, 3, 45, 0
5, 54384, Note_on_c, 3, 69, 60
5, 54419, Note_on_c, 3, 69, 0
5, 54456, Note_on_c, 3, 57, 50
5, 54468, Note_on_c, 3, 57, 0
5, 54480, Note_on_c, 3, 57, 50
5, 54504, Note_on_c, 3, 57, 0
5, 54528, Note_on_c, 3, 61, 55
5, 54552, Note_on_c, 3, 61, 0
5, 54576, Note_on_c, 3, 62, 50
5, 54600, Note_on_c, 3, 62, 0
5, 54624, Note_on_c, 3, 64, 50
5, 54648, Note_on_c, 3, 64, 0
5, 54672, Note_on_c, 3, 69, 55
5, 54696, Note_on_c, 3, 69, 0
5, 54720, Note_on_c, 3, 67, 50
5, 54744, Note_on_c, 3, 67, 0
5, 54768, Note_on_c, 3, 65, 50
5, 54792, Note_on_c, 3, 65, 0
5, 54816, Note_on_c, 3, 65, 55
5, 54840, Note_on_c, 3, 65, 0
5, 54864, Note_on_c, 3, 63, 50
5, 54888, Note_on_c, 3, 63, 0
5, 54912, Note_on_c, 3, 59, 50
5, 54936, Note_on_c, 3, 59, 0
5, 54960, Note_on_c, 3, 60, 55
5, 54984, Note_on_c, 3, 60, 0
5, 55008, Note_on_c, 3, 65, 50
5, 55032, Note_on_c, 3, 65, 0
5, 55056, Note_on_c, 3, 63, 50
5, 55080, Note_on_c, 3, 63, 0
5, 55104, Note_on_c, 3, 65, 55
5, 55128, Note_on_c, 3, 65, 0
5, 55152, Note_on_c, 3, 63, 50
5, 55176, Note_on_c, 3, 63, 0
5, 55200, Note_on_c, 3, 67, 50
5, 55224, Note_on_c, 3, 67, 0
5, 55248, Note_on_c, 3, 67, 55
5, 55272, Note_on_c, 3, 67, 0
5, 55296, Note_on_c, 3, 65, 50
5, 55320, Note_on_c, 3, 65, 0
5, 55344, Note_on_c, 3, 63, 50
5, 55368, Note_on_c, 3, 63, 0
5, 55392, Note_on_c, 3, 68, 55
5, 55416, Note_on_c, 3, 68, 0
5, 55440, Note_on_c, 3, 67, 50
5, 55464, Note_on_c, 3, 67, 0
5, 55488, Note_on_c, 3, 65, 50
5, 55512, Note_on_c, 3, 65, 0
5, 55536, Note_on_c, 3, 67, 55
5, 55560, Note_on_c, 3, 67, 0
5, 55584, Note_on_c, 3, 58, 50
5, 55608, Note_on_c, 3, 58, 0
5, 55632, Note_on_c, 3, 58, 50
5, 55656, Note_on_c, 3, 58, 0
5, 55680, Note_on_c, 3, 65, 55
5, 55704, Note_on_c, 3, 65, 0
5, 55728, Note_on_c, 3, 63, 50
5, 55752, Note_on_c, 3, 63, 0
5, 55776, Note_on_c, 3, 62, 50
5, 55800, Note_on_c, 3, 62, 0
5, 55824, Note_on_c, 3, 58, 55
5, 55848, Note_on_c, 3, 58, 0
5, 55872, Note_on_c, 3, 56, 50
5, 55896, Note_on_c, 3, 56, 0
5, 55920, Note_on_c, 3, 55, 50
5, 55944, Note_on_c, 3, 55, 0
5, 55968, Note_on_c, 3, 62, 55
5, 55992, Note_on_c, 3, 62, 0
5, 56016, Note_on_c, 3, 63, 50
5, 56040, Note_on_c, 3, 63, 0
5, 56064, Note_on_c, 3, 58, 50
5, 56088, Note_on_c, 3, 58, 0
5, 56112, Note_on_c, 3, 58, 55
5, 56136, Note_on_c, 3, 58, 0
5, 56160, Note_on_c, 3, 56, 50
5, 56184, Note_on_c, 3, 56, 0
5, 56208, Note_on_c, 3, 55, 50
5, 56232, Note_on_c, 3, 55, 0
5, 56256, Note_on_c, 3, 46, 50
5, 57408, Note_on_c, 3, 46, 0
5, 57408, Control_c, 3, 6, 64
5, 57408, Control_c, 3, 11, 50
5, 57408, Note_on_c, 3, 46, 120
5, 57425, Control_c, 3, 11, 51
5, 57441, Control_c, 3, 11, 52
5, 57458, Control_c, 3, 11, 53
5, 57474, Control_c, 3, 11, 54
5, 57491, Control_c, 3, 11, 55
5, 57507, Control_c, 3, 11, 56
5, 57524, Control_c, 3, 11, 57
5, 57540, Control_c, 3, 11, 58
5, 57556, Control_c, 3, 11, 59
5, 57573, Control_c, 3, 11, 60
5, 57589, Control_c, 3, 11, 61
5, 57606, Control_c, 3, 11, 62
5, 57622, Control_c, 3, 11, 63
5, 57639, Control_c, 3, 11, 64
5, 57655, Control_c, 3, 11, 65
5, 57672, Control_c, 3, 11, 66
5, 57688, Control_c, 3, 11, 67
5, 57704, Control_c, 3, 11, 68
5, 57721, Control_c, 3, 11, 69
5, 57737, Control_c, 3, 11, 70
5, 57754, Control_c, 3, 11, 71
5, 57770, Control_c, 3, 11, 72
5, 57787, Control_c, 3, 11, 73
5, 57803, Control_c, 3, 11, 74
5, 57820, Control_c, 3, 11, 75
5, 57836, Control_c, 3, 11, 76
5, 57852, Control_c, 3, 11, 77
5, 57869, Control_c, 3, 11, 78
5, 57885, Control_c, 3, 11, 79
5, 57902, Control_c, 3, 11, 80
5, 57918, Control_c, 3, 11, 81
5, 57935, Control_c, 3, 11, 82
5, 57951, Control_c, 3, 11, 83
5, 57968, Control_c, 3, 11, 84
5, 57983, Note_on_c, 3, 46, 0
5, 57984, Note_on_c, 3, 45, 120
5, 57984, Control_c, 3, 11, 85
5, 58000, Control_c, 3, 11, 86
5, 58017, Control_c, 3, 11, 87
5, 58033, Control_c, 3, 11, 88
5, 58050, Control_c, 3, 11, 89
5, 58066, Control_c, 3, 11, 90
5, 58083, Control_c, 3, 11, 91
5, 58099, Control_c, 3, 11, 92
5, 58116, Control_c, 3, 11, 93
5, 58132, Control_c, 3, 11, 94
5, 58148, Control_c, 3, 11, 95
5, 58165, Control_c, 3, 11, 96
5, 58181, Control_c, 3, 11, 97
5, 58198, Control_c, 3, 11, 98
5, 58214, Control_c, 3, 11, 99
5, 58231, Control_c, 3, 11, 100
5, 58247, Control_c, 3, 11, 101
5, 58264, Control_c, 3, 11, 102
5, 58280, Control_c, 3, 11, 103
5, 58296, Control_c, 3, 11, 104
5, 58313, Control_c, 3, 11, 105
5, 58329, Control_c, 3, 11, 106
5, 58346, Control_c, 3, 11, 107
5, 58362, Control_c, 3, 11, 108
5, 58379, Control_c, 3, 11, 109
5, 58395, Control_c, 3, 11, 110
5, 58412, Control_c, 3, 11, 111
5, 58428, Control_c, 3, 11, 112
5, 58444, Control_c, 3, 11, 113
5, 58461, Control_c, 3, 11, 114
5, 58477, Control_c, 3, 11, 115
5, 58494, Control_c, 3, 11, 116
5, 58510, Control_c, 3, 11, 117
5, 58527, Control_c, 3, 11, 118
5, 58543, Control_c, 3, 11, 119
5, 58559, Control_c, 3, 11, 120
5, 58560, Note_on_c, 3, 45, 0
5, 58560, Control_c, 3, 6, 14
5, 58560, Control_c, 3, 11, 120
5, 58560, Note_on_c, 3, 45, 120
5, 58590, Note_on_c, 3, 45, 0
5, 58848, Note_on_c, 3, 45, 120
5, 58878, Note_on_c, 3, 45, 0
5, 59136, Note_on_c, 3, 38, 125
5, 59171, Note_on_c, 3, 38, 0
5, 59208, Note_on_c, 3, 50, 115
5, 59220, Note_on_c, 3, 50, 0
5, 59232, Note_on_c, 3, 50, 115
5, 59256, Note_on_c, 3, 50, 0
5, 59280, Note_on_c, 3, 38, 125
5, 59315, Note_on_c, 3, 38, 0
5, 59352, Note_on_c, 3, 50, 115
5, 59364, Note_on_c, 3, 50, 0
5, 59376, Note_on_c, 3, 50, 115
5, 59400, Note_on_c, 3, 50, 0
5, 59424, Note_on_c, 3, 38, 125
5, 59459, Note_on_c, 3, 38, 0
5, 59496, Note_on_c, 3, 50, 115
5, 59508, Note_on_c, 3, 50, 0
5, 59520, Note_on_c, 3, 50, 115
5, 59544, Note_on_c, 3, 50, 0
5, 59568, Note_on_c, 3, 38, 125
5, 59603, Note_on_c, 3, 38, 0
5, 59640, Note_on_c, 3, 50, 115
5, 59652, Note_on_c, 3, 50, 0
5, 59664, Note_on_c, 3, 50, 115
5, 59688, Note_on_c, 3, 50, 0
5, 59712, Note_on_c, 3, 38, 125
5, 59747, Note_on_c, 3, 38, 0
5, 59784, Note_on_c, 3, 50, 115
5, 59796, Note_on_c, 3, 50, 0
5, 59808, Note_on_c, 3, 50, 115
5, 59832, Note_on_c, 3, 50, 0
5, 59856, Note_on_c, 3, 38, 125
5, 59891, Note_on_c, 3, 38, 0
5, 59928, Note_on_c, 3, 50, 115
5, 59940, Note_on_c, 3, 50, 0
5, 59952, Note_on_c, 3, 50, 115
5, 59976, Note_on_c, 3, 50, 0
5, 60000, Note_on_c, 3, 38, 125
5, 60035, Note_on_c, 3, 38, 0
5, 60072, Note_on_c, 3, 50, 115
5, 60084, Note_on_c, 3, 50, 0
5, 60096, Note_on_c, 3, 50, 115
5, 60120, Note_on_c, 3, 50, 0
5, 60144, Note_on_c, 3, 38, 125
5, 60179, Note_on_c, 3, 38, 0
5, 60216, Note_on_c, 3, 50, 115
5, 60228, Note_on_c, 3, 50, 0
5, 60240, Note_on_c, 3, 50, 115
5, 60264, Note_on_c, 3, 50, 0
5, 60288, Note_on_c, 3, 38, 125
5, 60323, Note_on_c, 3, 38, 0
5, 60360, Note_on_c, 3, 50, 115
5, 60372, Note_on_c, 3, 50, 0
5, 60384, Note_on_c, 3, 50, 115
5, 60408, Note_on_c, 3, 50, 0
5, 60432, Note_on_c, 3, 38, 125
5, 60467, Note_on_c, 3, 38, 0
5, 60504, Note_on_c, 3, 50, 115
5, 60516, Note_on_c, 3, 50, 0
5, 60528, Note_on_c, 3, 50, 115
5, 60552, Note_on_c, 3, 50, 0
5, 60576, Note_on_c, 3, 38, 125
5, 60611, Note_on_c, 3, 38, 0
5, 60648, Note_on_c, 3, 50, 115
5, 60660, Note_on_c, 3, 50, 0
5, 60672, Note_on_c, 3, 50, 115
5, 60696, Note_on_c, 3, 50, 0
5, 60720, Note_on_c, 3, 38, 125
5, 60755, Note_on_c, 3, 38, 0
5, 60792, Note_on_c, 3, 50, 115
5, 60804, Note_on_c, 3, 50, 0
5, 60816, Note_on_c, 3, 50, 115
5, 60840, Note_on_c, 3, 50, 0
5, 60864, Note_on_c, 3, 38, 125
5, 60899, Note_on_c, 3, 38, 0
5, 60936, Note_on_c, 3, 50, 115
5, 60948, Note_on_c, 3, 50, 0
5, 60960, Note_on_c, 3, 50, 115
5, 60984, Note_on_c, 3, 50, 0
5, 61008, Note_on_c, 3, 38, 125
5, 61043, Note_on_c, 3, 38, 0
5, 61080, Note_on_c, 3, 50, 115
5, 61092, Note_on_c, 3, 50, 0
5, 61104, Note_on_c, 3, 50, 115
5, 61128, Note_on_c, 3, 50, 0
5, 61152, Note_on_c, 3, 38, 125
5, 61187, Note_on_c, 3, 38, 0
5, 61224, Note_on_c, 3, 50, 115
5, 61236, Note_on_c, 3, 50, 0
5, 61248, Note_on_c, 3, 50, 115
5, 61272, Note_on_c, 3, 50, 0
5, 61296, Note_on_c, 3, 38, 125
5, 61331, Note_on_c, 3, 38, 0
5, 61368, Note_on_c, 3, 50, 115
5, 61380, Note_on_c, 3, 50, 0
5, 61392, Note_on_c, 3, 50, 115
5, 61416, Note_on_c, 3, 50, 0
5, 61440, Note_on_c, 3, 63, 120
5, 61464, Note_on_c, 3, 63, 0
5, 61488, Note_on_c, 3, 62, 115
5, 61512, Note_on_c, 3, 62, 0
5, 61536, Note_on_c, 3, 60, 115
5, 61560, Note_on_c, 3, 60, 0
5, 61584, Note_on_c, 3, 58, 120
5, 61608, Note_on_c, 3, 58, 0
5, 61632, Note_on_c, 3, 57, 115
5, 61656, Note_on_c, 3, 57, 0
5, 61680, Note_on_c, 3, 55, 115
5, 61704, Note_on_c, 3, 55, 0
5, 61728, Note_on_c, 3, 54, 120
5, 61752, Note_on_c, 3, 54, 0
5, 61776, Note_on_c, 3, 55, 115
5, 61800, Note_on_c, 3, 55, 0
5, 61824, Note_on_c, 3, 57, 115
5, 61848, Note_on_c, 3, 57, 0
5, 61872, Note_on_c, 3, 55, 120
5, 61896, Note_on_c, 3, 55, 0
5, 61920, Note_on_c, 3, 57, 115
5, 61944, Note_on_c, 3, 57, 0
5, 61968, Note_on_c, 3, 58, 115
5, 61992, Note_on_c, 3, 58, 0
5, 62016, Note_on_c, 3, 63, 105
5, 62040, Note_on_c, 3, 63, 0
5, 62064, Note_on_c, 3, 62, 100
5, 62088, Note_on_c, 3, 62, 0
5, 62112, Note_on_c, 3, 60, 100
5, 62136, Note_on_c, 3, 60, 0
5, 62160, Note_on_c, 3, 58, 105
5, 62184, Note_on_c, 3, 58, 0
5, 62208, Note_on_c, 3, 57, 100
5, 62232, Note_on_c, 3, 57, 0
5, 62256, Note_on_c, 3, 55, 100
5, 62280, Note_on_c, 3, 55, 0
5, 62304, Note_on_c, 3, 65, 105
5, 62328, Note_on_c, 3, 65, 0
5, 62352, Note_on_c, 3, 63, 100
5, 62376, Note_on_c, 3, 63, 0
5, 62400, Note_on_c, 3, 62, 100
5, 62424, Note_on_c, 3, 62, 0
5, 62448, Note_on_c, 3, 60, 105
5, 62472, Note_on_c, 3, 60, 0
5, 62496, Note_on_c, 3, 58, 100
5, 62520, Note_on_c, 3, 58, 0
5, 62544, Note_on_c, 3, 57, 100
5, 62568, Note_on_c, 3, 57, 0
5, 62592, Note_on_c, 3, 67, 105
5, 62616, Note_on_c, 3, 67, 0
5, 62640, Note_on_c, 3, 65, 100
5, 62664, Note_on_c, 3, 65, 0
5, 62688, Note_on_c, 3, 63, 100
5, 62712, Note_on_c, 3, 63, 0
5, 62736, Note_on_c, 3, 62, 105
5, 62760, Note_on_c, 3, 62, 0
5, 62784, Note_on_c, 3, 60, 100
5, 62808, Note_on_c, 3, 60, 0
5, 62832, Note_on_c, 3, 58, 100
5, 62856, Note_on_c, 3, 58, 0
5, 62880, Note_on_c, 3, 57, 105
5, 62904, Note_on_c, 3, 57, 0
5, 62928, Note_on_c, 3, 55, 100
5, 62952, Note_on_c, 3, 55, 0
5, 62976, Note_on_c, 3, 53, 100
5, 63000, Note_on_c, 3, 53, 0
5, 63024, Note_on_c, 3, 51, 105
5, 63048, Note_on_c, 3, 51, 0
5, 63072, Note_on_c, 3, 50, 100
5, 63096, Note_on_c, 3, 50, 0
5, 63120, Note_on_c, 3, 48, 100
5, 63144, Note_on_c, 3, 48, 0
5, 63168, Note_on_c, 3, 46, 100
5, 63192, Note_on_c, 3, 46, 0
5, 63312, Program_c, 3, 45
5, 63312, Control_c, 3, 7, 105
5, 63312, Note_on_c, 3, 58, 60
5, 63336, Note_on_c, 3, 58, 0
5, 63456, Note_on_c, 3, 51, 60
5, 63480, Note_on_c, 3, 51, 0
5, 63600, Note_on_c, 3, 48, 60
5, 63624, Note_on_c, 3, 48, 0
5, 63744, Note_on_c, 3, 53, 60
5, 63768, Note_on_c, 3, 53, 0
5, 63888, Note_on_c, 3, 46, 60
5, 63912, Note_on_c, 3, 46, 0
5, 64032, Note_on_c, 3, 53, 60
5, 64056, Note_on_c, 3, 53, 0
5, 64176, Note_on_c, 3, 41, 60
5, 64200, Note_on_c, 3, 41, 0
5, 65760, Program_c, 3, 48
5, 65760, Control_c, 3, 7, 123
5, 65760, Control_c, 3, 11, 60
5, 65760, Note_on_c, 3, 57, 100
5, 65784, Control_c, 3, 11, 61
5, 65808, Control_c, 3, 11, 62
5, 65832, Control_c, 3, 11, 63
5, 65856, Control_c, 3, 11, 64
5, 65880, Control_c, 3, 11, 65
5, 65904, Control_c, 3, 11, 66
5, 65928, Control_c, 3, 11, 67
5, 65952, Control_c, 3, 11, 68
5, 65976, Control_c, 3, 11, 69
5, 66000, Control_c, 3, 11, 70
5, 66024, Control_c, 3, 11, 71
5, 66048, Control_c, 3, 11, 72
5, 66072, Control_c, 3, 11, 73
5, 66096, Control_c, 3, 11, 74
5, 66120, Control_c, 3, 11, 75
5, 66144, Control_c, 3, 11, 76
5, 66168, Control_c, 3, 11, 77
5, 66192, Note_on_c, 3, 55, 100
5, 66192, Control_c, 3, 11, 78
5, 66193, Note_on_c, 3, 57, 0
5, 66216, Control_c, 3, 11, 79
5, 66240, Control_c, 3, 11, 80
5, 66264, Control_c, 3, 11, 81
5, 66288, Control_c, 3, 11, 82
5, 66312, Control_c, 3, 11, 83
5, 66336, Control_c, 3, 11, 84
5, 66360, Control_c, 3, 11, 85
5, 66384, Control_c, 3, 11, 86
5, 66408, Control_c, 3, 11, 87
5, 66432, Control_c, 3, 11, 88
5, 66456, Control_c, 3, 11, 89
5, 66479, Control_c, 3, 11, 90
5, 66480, Control_c, 3, 11, 90
5, 66480, Note_on_c, 3, 54, 100
5, 66481, Note_on_c, 3, 55, 0
5, 66495, Control_c, 3, 11, 89
5, 66509, Control_c, 3, 11, 88
5, 66524, Control_c, 3, 11, 87
5, 66538, Control_c, 3, 11, 86
5, 66552, Control_c, 3, 11, 85
5, 66567, Control_c, 3, 11, 84
5, 66581, Control_c, 3, 11, 83
5, 66595, Control_c, 3, 11, 82
5, 66610, Control_c, 3, 11, 81
5, 66624, Note_on_c, 3, 53, 100
5, 66624, Control_c, 3, 11, 80
5, 66625, Note_on_c, 3, 54, 0
5, 66639, Control_c, 3, 11, 79
5, 66653, Control_c, 3, 11, 78
5, 66667, Control_c, 3, 11, 77
5, 66682, Control_c, 3, 11, 76
5, 66696, Control_c, 3, 11, 75
5, 66710, Control_c, 3, 11, 74
5, 66725, Control_c, 3, 11, 73
5, 66739, Control_c, 3, 11, 72
5, 66753, Control_c, 3, 11, 71
5, 66768, Note_on_c, 3, 52, 100
5, 66768, Control_c, 3, 11, 70
5, 66769, Note_on_c, 3, 53, 0
5, 66782, Control_c, 3, 11, 69
5, 66797, Control_c, 3, 11, 68
5, 66811, Control_c, 3, 11, 67
5, 66825, Control_c, 3, 11, 66
5, 66840, Control_c, 3, 11, 65
5, 66854, Control_c, 3, 11, 64
5, 66868, Control_c, 3, 11, 63
5, 66883, Control_c, 3, 11, 62
5, 66897, Control_c, 3, 11, 61
5, 66909, Note_on_c, 3, 52, 0
5, 66911, Control_c, 3, 11, 120
5, 66912, Note_on_c, 3, 57, 60
5, 66947, Note_on_c, 3, 57, 0
5, 66984, Note_on_c, 3, 45, 63
5, 66996, Note_on_c, 3, 45, 0
5, 67008, Note_on_c, 3, 45, 64
5, 67032, Note_on_c, 3, 45, 0
5, 67056, Note_on_c, 3, 57, 66
5, 67091, Note_on_c, 3, 57, 0
5, 67128, Note_on_c, 3, 45, 70
5, 67140, Note_on_c, 3, 45, 0
5, 67152, Note_on_c, 3, 45, 71
5, 67176, Note_on_c, 3, 45, 0
5, 67200, Note_on_c, 3, 59, 73
5, 67235, Note_on_c, 3, 59, 0
5, 67272, Note_on_c, 3, 47, 76
5, 67284, Note_on_c, 3, 47, 0
5, 67296, Note_on_c, 3, 47, 78
5, 67320, Note_on_c, 3, 47, 0
5, 67344, Note_on_c, 3, 64, 80
5, 67379, Note_on_c, 3, 64, 0
5, 67416, Note_on_c, 3, 52, 83
5, 67428, Note_on_c, 3, 52, 0
5, 67440, Note_on_c, 3, 52, 84
5, 67464, Note_on_c, 3, 52, 0
5, 67488, Note_on_c, 3, 61, 87
5, 67523, Note_on_c, 3, 61, 0
5, 67560, Note_on_c, 3, 49, 90
5, 67572, Note_on_c, 3, 49, 0
5, 67584, Note_on_c, 3, 49, 91
5, 67608, Note_on_c, 3, 49, 0
5, 67632, Note_on_c, 3, 62, 93
5, 67667, Note_on_c, 3, 62, 0
5, 67704, Note_on_c, 3, 50, 97
5, 67716, Note_on_c, 3, 50, 0
5, 67728, Note_on_c, 3, 50, 98
5, 67752, Note_on_c, 3, 50, 0
5, 67776, Note_on_c, 3, 62, 100
5, 67811, Note_on_c, 3, 62, 0
5, 67848, Note_on_c, 3, 50, 103
5, 67860, Note_on_c, 3, 50, 0
5, 67872, Note_on_c, 3, 50, 105
5, 67896, Note_on_c, 3, 50, 0
5, 67920, Note_on_c, 3, 69, 107
5, 67955, Note_on_c, 3, 69, 0
5, 67992, Note_on_c, 3, 57, 110
5, 68004, Note_on_c, 3, 57, 0
5, 68016, Note_on_c, 3, 57, 111
5, 68040, Note_on_c, 3, 57, 0
5, 68064, Program_c, 3, 48
5, 68064, Control_c, 3, 7, 123
5, 68064, Note_on_c, 3, 62, 120
5, 68099, Note_on_c, 3, 62, 0
5, 68136, Note_on_c, 3, 50, 113
5, 68148, Note_on_c, 3, 50, 0
5, 68160, Note_on_c, 3, 50, 113
5, 68184, Note_on_c, 3, 50, 0
5, 68208, Note_on_c, 3, 62, 120
5, 68243, Note_on_c, 3, 62, 0
5, 68280, Note_on_c, 3, 50, 113
5, 68292, Note_on_c, 3, 50, 0
5, 68304, Note_on_c, 3, 50, 113
5, 68328, Note_on_c, 3, 50, 0
5, 68352, Note_on_c, 3, 62, 120
5, 68387, Note_on_c, 3, 62, 0
5, 68424, Note_on_c, 3, 50, 113
5, 68436, Note_on_c, 3, 50, 0
5, 68448, Note_on_c, 3, 50, 113
5, 68472, Note_on_c, 3, 50, 0
5, 68496, Note_on_c, 3, 62, 120
5, 68531, Note_on_c, 3, 62, 0
5, 68568, Note_on_c, 3, 50, 113
5, 68580, Note_on_c, 3, 50, 0
5, 68592, Note_on_c, 3, 50, 113
5, 68616, Note_on_c, 3, 50, 0
5, 68640, Note_on_c, 3, 62, 120
5, 68675, Note_on_c, 3, 62, 0
5, 68712, Note_on_c, 3, 50, 113
5, 68724, Note_on_c, 3, 50, 0
5, 68736, Note_on_c, 3, 50, 113
5, 68760, Note_on_c, 3, 50, 0
5, 68784, Note_on_c, 3, 62, 120
5, 68819, Note_on_c, 3, 62, 0
5, 68856, Note_on_c, 3, 50, 113
5, 68868, Note_on_c, 3, 50, 0
5, 68880, Note_on_c, 3, 50, 113
5, 68904, Note_on_c, 3, 50, 0
5, 68928, Note_on_c, 3, 62, 120
5, 68963, Note_on_c, 3, 62, 0
5, 69000, Note_on_c, 3, 50, 113
5, 69012, Note_on_c, 3, 50, 0
5, 69024, Note_on_c, 3, 50, 113
5, 69048, Note_on_c, 3, 50, 0
5, 69072, Note_on_c, 3, 62, 120
5, 69107, Note_on_c, 3, 62, 0
5, 69144, Note_on_c, 3, 50, 113
5, 69156, Note_on_c, 3, 50, 0
5, 69168, Note_on_c, 3, 50, 113
5, 69192, Note_on_c, 3, 50, 0
5, 69216, Note_on_c, 3, 62, 120
5, 69251, Note_on_c, 3, 62, 0
5, 69288, Note_on_c, 3, 50, 113
5, 69300, Note_on_c, 3, 50, 0
5, 69312, Note_on_c, 3, 50, 113
5, 69336, Note_on_c, 3, 50, 0
5, 69360, Note_on_c, 3, 62, 120
5, 69395, Note_on_c, 3, 62, 0
5, 69432, Note_on_c, 3, 50, 113
5, 69444, Note_on_c, 3, 50, 0
5, 69456, Note_on_c, 3, 50, 113
5, 69480, Note_on_c, 3, 50, 0
5, 69504, Note_on_c, 3, 62, 120
5, 69539, Note_on_c, 3, 62, 0
5, 69576, Note_on_c, 3, 50, 113
5, 69588, Note_on_c, 3, 50, 0
5, 69600, Note_on_c, 3, 50, 113
5, 69624, Note_on_c, 3, 50, 0
5, 69648, Note_on_c, 3, 62, 120
5, 69683, Note_on_c, 3, 62, 0
5, 69720, Note_on_c, 3, 50, 113
5, 69732, Note_on_c, 3, 50, 0
5, 69744, Note_on_c, 3, 50, 113
5, 69768, Note_on_c, 3, 50, 0
5, 69792, Note_on_c, 3, 62, 120
5, 69827, Note_on_c, 3, 62, 0
5, 69864, Note_on_c, 3, 50, 113
5, 69876, Note_on_c, 3, 50, 0
5, 69888, Note_on_c, 3, 50, 113
5, 69912, Note_on_c, 3, 50, 0
5, 69936, Note_on_c, 3, 62, 120
5, 69971, Note_on_c, 3, 62, 0
5, 70008, Note_on_c, 3, 50, 113
5, 70020, Note_on_c, 3, 50, 0
5, 70032, Note_on_c, 3, 50, 113
5, 70056, Note_on_c, 3, 50, 0
5, 70080, Note_on_c, 3, 62, 120
5, 70115, Note_on_c, 3, 62, 0
5, 70152, Note_on_c, 3, 50, 113
5, 70164, Note_on_c, 3, 50, 0
5, 70176, Note_on_c, 3, 50, 113
5, 70200, Note_on_c, 3, 50, 0
5, 70224, Note_on_c, 3, 62, 120
5, 70259, Note_on_c, 3, 62, 0
5, 70296, Note_on_c, 3, 50, 113
5, 70308, Note_on_c, 3, 50, 0
5, 70320, Note_on_c, 3, 50, 113
5, 70344, Note_on_c, 3, 50, 0
5, 70368, Note_on_c, 3, 62, 120
5, 70392, Note_on_c, 3, 62, 0
5, 70656, Note_on_c, 3, 55, 118
5, 70691, Note_on_c, 3, 55, 0
5, 70728, Note_on_c, 3, 43, 113
5, 70740, Note_on_c, 3, 43, 0
5, 70752, Note_on_c, 3, 43, 113
5, 70776, Note_on_c, 3, 43, 0
5, 70800, Note_on_c, 3, 43, 118
5, 70824, Note_on_c, 3, 43, 0
5, 70848, Note_on_c, 3, 40, 113
5, 70872, Note_on_c, 3, 40, 0
5, 70896, Note_on_c, 3, 38, 113
5, 70920, Note_on_c, 3, 38, 0
5, 70944, Note_on_c, 3, 36, 118
5, 70944, Note_on_c, 3, 48, 118
5, 70968, Note_on_c, 3, 48, 0
5, 70968, Note_on_c, 3, 36, 0
5, 71232, Note_on_c, 3, 65, 118
5, 71267, Note_on_c, 3, 65, 0
5, 71304, Note_on_c, 3, 53, 113
5, 71316, Note_on_c, 3, 53, 0
5, 71328, Note_on_c, 3, 53, 113
5, 71352, Note_on_c, 3, 53, 0
5, 71376, Note_on_c, 3, 53, 118
5, 71400, Note_on_c, 3, 53, 0
5, 71424, Note_on_c, 3, 50, 113
5, 71448, Note_on_c, 3, 50, 0
5, 71472, Note_on_c, 3, 48, 113
5, 71496, Note_on_c, 3, 48, 0
5, 71520, Control_c, 3, 6, 64
5, 71520, Control_c, 3, 11, 60
5, 71520, Note_on_c, 3, 48, 95
5, 71613, Note_on_c, 3, 48, 0
5, 71616, Note_on_c, 3, 60, 105
5, 71658, Note_on_c, 3, 60, 0
5, 71664, Note_on_c, 3, 58, 100
5, 71808, Control_c, 3, 11, 60
5, 71823, Control_c, 3, 11, 61
5, 71837, Control_c, 3, 11, 62
5, 71852, Control_c, 3, 11, 63
5, 71866, Control_c, 3, 11, 64
5, 71880, Control_c, 3, 11, 65
5, 71895, Control_c, 3, 11, 66
5, 71909, Control_c, 3, 11, 67
5, 71923, Control_c, 3, 11, 68
5, 71938, Control_c, 3, 11, 69
5, 71952, Control_c, 3, 11, 70
5, 71967, Control_c, 3, 11, 71
5, 71981, Control_c, 3, 11, 72
5, 71995, Control_c, 3, 11, 73
5, 72000, Note_on_c, 3, 58, 0
5, 72000, Note_on_c, 3, 56, 100
5, 72010, Control_c, 3, 11, 74
5, 72024, Control_c, 3, 11, 75
5, 72038, Control_c, 3, 11, 76
5, 72048, Note_on_c, 3, 56, 0
5, 72048, Note_on_c, 3, 55, 100
5, 72053, Control_c, 3, 11, 77
5, 72067, Control_c, 3, 11, 78
5, 72081, Control_c, 3, 11, 79
5, 72096, Note_on_c, 3, 55, 0
5, 72096, Note_on_c, 3, 55, 100
5, 72096, Control_c, 3, 11, 80
5, 72110, Control_c, 3, 11, 81
5, 72125, Control_c, 3, 11, 82
5, 72139, Control_c, 3, 11, 83
5, 72153, Control_c, 3, 11, 84
5, 72168, Control_c, 3, 11, 85
5, 72182, Control_c, 3, 11, 86
5, 72196, Control_c, 3, 11, 87
5, 72211, Control_c, 3, 11, 88
5, 72225, Control_c, 3, 11, 89
5, 72239, Note_on_c, 3, 55, 0
5, 72239, Control_c, 3, 11, 90
5, 72240, Control_c, 3, 11, 90
5, 72240, Note_on_c, 3, 57, 100
5, 72245, Control_c, 3, 11, 89
5, 72250, Control_c, 3, 11, 88
5, 72255, Control_c, 3, 11, 87
5, 72260, Control_c, 3, 11, 86
5, 72264, Control_c, 3, 11, 85
5, 72269, Control_c, 3, 11, 84
5, 72274, Control_c, 3, 11, 83
5, 72279, Control_c, 3, 11, 82
5, 72283, Control_c, 3, 11, 81
5, 72288, Control_c, 3, 11, 80
5, 72293, Control_c, 3, 11, 79
5, 72298, Control_c, 3, 11, 78
5, 72302, Control_c, 3, 11, 77
5, 72307, Control_c, 3, 11, 76
5, 72312, Control_c, 3, 11, 75
5, 72317, Control_c, 3, 11, 74
5, 72322, Control_c, 3, 11, 73
5, 72326, Control_c, 3, 11, 72
5, 72331, Control_c, 3, 11, 71
5, 72336, Control_c, 3, 11, 70
5, 72341, Control_c, 3, 11, 69
5, 72345, Control_c, 3, 11, 68
5, 72350, Control_c, 3, 11, 67
5, 72355, Control_c, 3, 11, 66
5, 72360, Control_c, 3, 11, 65
5, 72364, Control_c, 3, 11, 64
5, 72369, Control_c, 3, 11, 63
5, 72374, Control_c, 3, 11, 62
5, 72379, Control_c, 3, 11, 61
5, 72383, Note_on_c, 3, 57, 0
5, 72383, Control_c, 3, 11, 60
5, 72960, Control_c, 3, 6, 14
5, 73248, Control_c, 3, 11, 120
5, 73248, Note_on_c, 3, 62, 105
5, 73272, Note_on_c, 3, 62, 0
5, 73296, Note_on_c, 3, 58, 100
5, 73320, Note_on_c, 3, 58, 0
5, 73344, Note_on_c, 3, 55, 100
5, 73368, Note_on_c, 3, 55, 0
5, 73392, Note_on_c, 3, 56, 105
5, 73416, Note_on_c, 3, 56, 0
5, 73440, Note_on_c, 3, 57, 100
5, 73464, Note_on_c, 3, 57, 0
5, 73488, Note_on_c, 3, 45, 100
5, 73512, Note_on_c, 3, 45, 0
5, 73536, Note_on_c, 3, 50, 105
5, 73560, Note_on_c, 3, 50, 0
5, 73824, Note_on_c, 3, 57, 105
5, 73848, Note_on_c, 3, 57, 0
5, 73872, Note_on_c, 3, 53, 100
5, 73896, Note_on_c, 3, 53, 0
5, 73920, Note_on_c, 3, 58, 100
5, 73944, Note_on_c, 3, 58, 0
5, 73968, Note_on_c, 3, 55, 105
5, 73992, Note_on_c, 3, 55, 0
5, 74016, Note_on_c, 3, 52, 100
5, 74040, Note_on_c, 3, 52, 0
5, 74064, Note_on_c, 3, 57, 100
5, 74088, Note_on_c, 3, 57, 0
5, 74112, Note_on_c, 3, 50, 105
5, 74136, Note_on_c, 3, 50, 0
5, 74256, Note_on_c, 3, 57, 110
5, 74291, Note_on_c, 3, 57, 0
5, 74328, Note_on_c, 3, 45, 100
5, 74340, Note_on_c, 3, 45, 0
5, 74352, Note_on_c, 3, 45, 100
5, 74376, Note_on_c, 3, 45, 0
5, 74400, Note_on_c, 3, 38, 105
5, 74424, Note_on_c, 3, 38, 0
5, 74544, Note_on_c, 3, 57, 110
5, 74579, Note_on_c, 3, 57, 0
5, 74616, Note_on_c, 3, 45, 100
5, 74628, Note_on_c, 3, 45, 0
5, 74640, Note_on_c, 3, 45, 100
5, 74664, Note_on_c, 3, 45, 0
5, 74688, Note_on_c, 3, 45, 55
5, 74712, Note_on_c, 3, 45, 0
5, 74736, Note_on_c, 3, 45, 50
5, 74760, Note_on_c, 3, 45, 0
5, 74784, Note_on_c, 3, 45, 50
5, 74808, Note_on_c, 3, 45, 0
5, 74832, Note_on_c, 3, 45, 55
5, 74856, Note_on_c, 3, 45, 0
5, 74880, Note_on_c, 3, 45, 50
5, 74904, Note_on_c, 3, 45, 0
5, 74928, Note_on_c, 3, 45, 50
5, 74952, Note_on_c, 3, 45, 0
5, 74976, Note_on_c, 3, 45, 55
5, 75000, Note_on_c, 3, 45, 0
5, 75024, Note_on_c, 3, 45, 50
5, 75048, Note_on_c, 3, 45, 0
5, 75072, Note_on_c, 3, 45, 50
5, 75096, Note_on_c, 3, 45, 0
5, 75120, Note_on_c, 3, 45, 55
5, 75144, Note_on_c, 3, 45, 0
5, 75168, Note_on_c, 3, 45, 50
5, 75192, Note_on_c, 3, 45, 0
5, 75216, Note_on_c, 3, 45, 50
5, 75240, Note_on_c, 3, 45, 0
5, 75264, Note_on_c, 3, 38, 60
5, 75299, Note_on_c, 3, 38, 0
5, 75336, Note_on_c, 3, 50, 50
5, 75348, Note_on_c, 3, 50, 0
5, 75360, Note_on_c, 3, 50, 50
5, 75384, Note_on_c, 3, 50, 0
5, 75408, Note_on_c, 3, 45, 55
5, 75432, Note_on_c, 3, 45, 0
5, 75552, Note_on_c, 3, 41, 60
5, 75587, Note_on_c, 3, 41, 0
5, 75624, Note_on_c, 3, 53, 50
5, 75636, Note_on_c, 3, 53, 0
5, 75648, Note_on_c, 3, 53, 50
5, 75672, Note_on_c, 3, 53, 0
5, 75696, Note_on_c, 3, 50, 55
5, 75720, Note_on_c, 3, 50, 0
5, 76416, Note_on_c, 3, 38, 60
5, 76451, Note_on_c, 3, 38, 0
5, 76488, Note_on_c, 3, 50, 50
5, 76500, Note_on_c, 3, 50, 0
5, 76512, Note_on_c, 3, 50, 50
5, 76536, Note_on_c, 3, 50, 0
5, 76560, Note_on_c, 3, 46, 55
5, 76584, Note_on_c, 3, 46, 0
5, 76704, Note_on_c, 3, 41, 60
5, 76739, Note_on_c, 3, 41, 0
5, 76776, Note_on_c, 3, 53, 50
5, 76788, Note_on_c, 3, 53, 0
5, 76800, Note_on_c, 3, 53, 50
5, 76824, Note_on_c, 3, 53, 0
5, 76848, Note_on_c, 3, 50, 55
5, 76872, Note_on_c, 3, 50, 0
5, 76992, Note_on_c, 3, 46, 60
5, 77027, Note_on_c, 3, 46, 0
5, 77064, Note_on_c, 3, 58, 50
5, 77076, Note_on_c, 3, 58, 0
5, 77088, Note_on_c, 3, 58, 50
5, 77112, Note_on_c, 3, 58, 0
5, 77136, Note_on_c, 3, 53, 55
5, 77160, Note_on_c, 3, 53, 0
5, 77280, Note_on_c, 3, 50, 60
5, 77315, Note_on_c, 3, 50, 0
5, 77352, Note_on_c, 3, 62, 50
5, 77364, Note_on_c, 3, 62, 0
5, 77376, Note_on_c, 3, 62, 50
5, 77400, Note_on_c, 3, 62, 0
5, 77424, Note_on_c, 3, 63, 55
5, 77448, Note_on_c, 3, 63, 0
5, 78144, Note_on_c, 3, 51, 70
5, 78179, Note_on_c, 3, 51, 0
5, 78216, Note_on_c, 3, 63, 61
5, 78228, Note_on_c, 3, 63, 0
5, 78240, Note_on_c, 3, 63, 61
5, 78264, Note_on_c, 3, 63, 0
5, 78288, Note_on_c, 3, 60, 62
5, 78312, Note_on_c, 3, 60, 0
5, 78432, Note_on_c, 3, 44, 75
5, 78467, Note_on_c, 3, 44, 0
5, 78504, Note_on_c, 3, 56, 67
5, 78516, Note_on_c, 3, 56, 0
5, 78528, Note_on_c, 3, 56, 67
5, 78552, Note_on_c, 3, 56, 0
5, 78576, Note_on_c, 3, 53, 68
5, 78600, Note_on_c, 3, 53, 0
5, 78720, Note_on_c, 3, 49, 80
5, 78755, Note_on_c, 3, 49, 0
5, 78792, Note_on_c, 3, 61, 72
5, 78804, Note_on_c, 3, 61, 0
5, 78816, Note_on_c, 3, 61, 73
5, 78840, Note_on_c, 3, 61, 0
5, 78864, Note_on_c, 3, 58, 74
5, 78888, Note_on_c, 3, 58, 0
5, 79008, Note_on_c, 3, 42, 86
5, 79043, Note_on_c, 3, 42, 0
5, 79080, Note_on_c, 3, 54, 78
5, 79092, Note_on_c, 3, 54, 0
5, 79104, Note_on_c, 3, 54, 78
5, 79128, Note_on_c, 3, 54, 0
5, 79152, Note_on_c, 3, 51, 79
5, 79176, Note_on_c, 3, 51, 0
5, 79296, Note_on_c, 3, 47, 92
5, 79331, Note_on_c, 3, 47, 0
5, 79368, Note_on_c, 3, 59, 83
5, 79380, Note_on_c, 3, 59, 0
5, 79392, Note_on_c, 3, 59, 84
5, 79416, Note_on_c, 3, 59, 0
5, 79440, Note_on_c, 3, 56, 85
5, 79464, Note_on_c, 3, 56, 0
5, 79584, Note_on_c, 3, 52, 98
5, 79619, Note_on_c, 3, 52, 0
5, 79656, Note_on_c, 3, 64, 89
5, 79668, Note_on_c, 3, 64, 0
5, 79680, Note_on_c, 3, 64, 90
5, 79704, Note_on_c, 3, 64, 0
5, 79728, Note_on_c, 3, 61, 90
5, 79752, Note_on_c, 3, 61, 0
5, 79872, Note_on_c, 3, 45, 110
5, 79907, Note_on_c, 3, 45, 0
5, 79944, Note_on_c, 3, 57, 100
5, 79956, Note_on_c, 3, 57, 0
5, 79968, Note_on_c, 3, 57, 100
5, 79992, Note_on_c, 3, 57, 0
5, 80160, Note_on_c, 3, 46, 119
5, 80195, Note_on_c, 3, 46, 0
5, 80232, Note_on_c, 3, 58, 113
5, 80244, Note_on_c, 3, 58, 0
5, 80256, Note_on_c, 3, 58, 113
5, 80280, Note_on_c, 3, 58, 0
5, 80448, Note_on_c, 3, 47, 120
5, 80483, Note_on_c, 3, 47, 0
5, 80520, Note_on_c, 3, 59, 113
5, 80532, Note_on_c, 3, 59, 0
5, 80544, Note_on_c, 3, 59, 113
5, 80568, Note_on_c, 3, 59, 0
5, 80784, Program_c, 3, 45
5, 80922, Control_c, 3, 7, 105
5, 80928, Note_on_c, 3, 52, 60
5, 80952, Note_on_c, 3, 52, 0
5, 81072, Note_on_c, 3, 47, 57
5, 81096, Note_on_c, 3, 47, 0
5, 81360, Note_on_c, 3, 52, 60
5, 81384, Note_on_c, 3, 52, 0
5, 81504, Note_on_c, 3, 47, 57
5, 81528, Note_on_c, 3, 47, 0
5, 81792, Note_on_c, 3, 52, 60
5, 81816, Note_on_c, 3, 52, 0
5, 81936, Note_on_c, 3, 47, 57
5, 81960, Note_on_c, 3, 47, 0
5, 82224, Note_on_c, 3, 64, 60
5, 82248, Note_on_c, 3, 64, 0
5, 82368, Note_on_c, 3, 52, 57
5, 82392, Note_on_c, 3, 52, 0
5, 82656, Note_on_c, 3, 57, 60
5, 82680, Note_on_c, 3, 57, 0
5, 82800, Note_on_c, 3, 52, 57
5, 82824, Note_on_c, 3, 52, 0
5, 83088, Note_on_c, 3, 57, 60
5, 83112, Note_on_c, 3, 57, 0
5, 83232, Note_on_c, 3, 52, 57
5, 83256, Note_on_c, 3, 52, 0
5, 83520, Note_on_c, 3, 65, 60
5, 83544, Note_on_c, 3, 65, 0
5, 83664, Note_on_c, 3, 53, 57
5, 83688, Note_on_c, 3, 53, 0
5, 83952, Note_on_c, 3, 65, 60
5, 83976, Note_on_c, 3, 65, 0
5, 84096, Note_on_c, 3, 53, 57
5, 84120, Note_on_c, 3, 53, 0
5, 84384, Note_on_c, 3, 65, 60
5, 84408, Note_on_c, 3, 65, 0
5, 84528, Note_on_c, 3, 53, 57
5, 84552, Note_on_c, 3, 53, 0
5, 84816, Note_on_c, 3, 65, 60
5, 84840, Note_on_c, 3, 65, 0
5, 84960, Note_on_c, 3, 53, 57
5, 84984, Note_on_c, 3, 53, 0
5, 85104, Note_on_c, 3, 53, 60
5, 85128, Note_on_c, 3, 53, 0
5, 85248, Note_on_c, 3, 41, 60
5, 85272, Note_on_c, 3, 41, 0
5, 85392, Note_on_c, 3, 53, 57
5, 85416, Note_on_c, 3, 53, 0
5, 85536, Program_c, 3, 48
5, 85536, Control_c, 3, 7, 123
5, 85536, Note_on_c, 3, 60, 55
5, 85560, Note_on_c, 3, 60, 0
5, 85584, Note_on_c, 3, 60, 50
5, 85608, Note_on_c, 3, 60, 0
5, 85632, Note_on_c, 3, 60, 50
5, 85656, Note_on_c, 3, 60, 0
5, 85680, Note_on_c, 3, 60, 55
5, 85704, Note_on_c, 3, 60, 0
5, 85728, Note_on_c, 3, 60, 50
5, 85752, Note_on_c, 3, 60, 0
5, 85776, Note_on_c, 3, 60, 50
5, 85800, Note_on_c, 3, 60, 0
5, 85824, Note_on_c, 3, 60, 55
5, 85848, Note_on_c, 3, 60, 0
5, 85872, Note_on_c, 3, 60, 50
5, 85896, Note_on_c, 3, 60, 0
5, 85920, Note_on_c, 3, 60, 50
5, 85944, Note_on_c, 3, 60, 0
5, 85968, Program_c, 3, 45
5, 85968, Control_c, 3, 7, 105
5, 85968, Note_on_c, 3, 62, 50
5, 85992, Note_on_c, 3, 62, 0
5, 86112, Note_on_c, 3, 50, 47
5, 86136, Note_on_c, 3, 50, 0
5, 86256, Note_on_c, 3, 62, 50
5, 86280, Note_on_c, 3, 62, 0
5, 86400, Note_on_c, 3, 57, 50
5, 86424, Note_on_c, 3, 57, 0
5, 86544, Note_on_c, 3, 45, 47
5, 86568, Note_on_c, 3, 45, 0
5, 86688, Note_on_c, 3, 57, 50
5, 86712, Note_on_c, 3, 57, 0
5, 86832, Note_on_c, 3, 57, 50
5, 86856, Note_on_c, 3, 57, 0
5, 86976, Note_on_c, 3, 45, 47
5, 87000, Note_on_c, 3, 45, 0
5, 87120, Note_on_c, 3, 57, 50
5, 87144, Note_on_c, 3, 57, 0
5, 87264, Note_on_c, 3, 57, 50
5, 87288, Note_on_c, 3, 57, 0
5, 87408, Note_on_c, 3, 45, 47
5, 87432, Note_on_c, 3, 45, 0
5, 87552, Note_on_c, 3, 57, 50
5, 87576, Note_on_c, 3, 57, 0
5, 87696, Note_on_c, 3, 55, 55
5, 87720, Note_on_c, 3, 55, 0
5, 87744, Note_on_c, 3, 53, 50
5, 87768, Note_on_c, 3, 53, 0
5, 87792, Note_on_c, 3, 52, 50
5, 87816, Note_on_c, 3, 52, 0
5, 87840, Note_on_c, 3, 50, 55
5, 87864, Note_on_c, 3, 50, 0
5, 87984, Note_on_c, 3, 45, 50
5, 88008, Note_on_c, 3, 45, 0
5, 88272, Note_on_c, 3, 50, 50
5, 88296, Note_on_c, 3, 50, 0
5, 88416, Note_on_c, 3, 45, 47
5, 88440, Note_on_c, 3, 45, 0
5, 88704, Note_on_c, 3, 50, 50
5, 88728, Note_on_c, 3, 50, 0
5, 88848, Note_on_c, 3, 45, 47
5, 88872, Note_on_c, 3, 45, 0
5, 88992, Program_c, 3, 48
5, 88992, Control_c, 3, 7, 123
5, 88992, Note_on_c, 3, 57, 60
5, 89027, Note_on_c, 3, 57, 0
5, 89064, Note_on_c, 3, 45, 50
5, 89076, Note_on_c, 3, 45, 0
5, 89088, Note_on_c, 3, 45, 50
5, 89112, Note_on_c, 3, 45, 0
5, 89136, Note_on_c, 3, 69, 60
5, 89171, Note_on_c, 3, 69, 0
5, 89208, Note_on_c, 3, 57, 50
5, 89220, Note_on_c, 3, 57, 0
5, 89232, Note_on_c, 3, 57, 50
5, 89256, Note_on_c, 3, 57, 0
5, 89280, Note_on_c, 3, 61, 55
5, 89304, Note_on_c, 3, 61, 0
5, 89328, Note_on_c, 3, 62, 50
5, 89352, Note_on_c, 3, 62, 0
5, 89376, Note_on_c, 3, 64, 50
5, 89400, Note_on_c, 3, 64, 0
5, 89424, Note_on_c, 3, 69, 55
5, 89448, Note_on_c, 3, 69, 0
5, 89472, Note_on_c, 3, 67, 50
5, 89496, Note_on_c, 3, 67, 0
5, 89520, Note_on_c, 3, 65, 50
5, 89544, Note_on_c, 3, 65, 0
5, 89568, Note_on_c, 3, 65, 55
5, 89592, Note_on_c, 3, 65, 0
5, 89616, Note_on_c, 3, 63, 50
5, 89640, Note_on_c, 3, 63, 0
5, 89664, Note_on_c, 3, 59, 50
5, 89688, Note_on_c, 3, 59, 0
5, 89712, Note_on_c, 3, 60, 55
5, 89736, Note_on_c, 3, 60, 0
5, 89760, Note_on_c, 3, 65, 50
5, 89784, Note_on_c, 3, 65, 0
5, 89808, Note_on_c, 3, 63, 50
5, 89832, Note_on_c, 3, 63, 0
5, 89856, Note_on_c, 3, 65, 55
5, 89880, Note_on_c, 3, 65, 0
5, 89904, Note_on_c, 3, 63, 50
5, 89928, Note_on_c, 3, 63, 0
5, 89952, Note_on_c, 3, 67, 50
5, 89976, Note_on_c, 3, 67, 0
5, 90000, Note_on_c, 3, 67, 55
5, 90024, Note_on_c, 3, 67, 0
5, 90048, Note_on_c, 3, 65, 50
5, 90072, Note_on_c, 3, 65, 0
5, 90096, Note_on_c, 3, 63, 50
5, 90120, Note_on_c, 3, 63, 0
5, 90144, Note_on_c, 3, 68, 55
5, 90168, Note_on_c, 3, 68, 0
5, 90192, Note_on_c, 3, 67, 50
5, 90216, Note_on_c, 3, 67, 0
5, 90240, Note_on_c, 3, 65, 50
5, 90264, Note_on_c, 3, 65, 0
5, 90288, Note_on_c, 3, 67, 55
5, 90312, Note_on_c, 3, 67, 0
5, 90336, Note_on_c, 3, 58, 50
5, 90360, Note_on_c, 3, 58, 0
5, 90384, Note_on_c, 3, 58, 50
5, 90408, Note_on_c, 3, 58, 0
5, 90432, Note_on_c, 3, 65, 55
5, 90456, Note_on_c, 3, 65, 0
5, 90480, Note_on_c, 3, 63, 50
5, 90504, Note_on_c, 3, 63, 0
5, 90528, Note_on_c, 3, 62, 50
5, 90552, Note_on_c, 3, 62, 0
5, 90576, Note_on_c, 3, 58, 55
5, 90600, Note_on_c, 3, 58, 0
5, 90624, Note_on_c, 3, 56, 50
5, 90648, Note_on_c, 3, 56, 0
5, 90672, Note_on_c, 3, 55, 50
5, 90696, Note_on_c, 3, 55, 0
5, 90720, Note_on_c, 3, 62, 55
5, 90744, Note_on_c, 3, 62, 0
5, 90768, Note_on_c, 3, 63, 50
5, 90792, Note_on_c, 3, 63, 0
5, 90816, Note_on_c, 3, 58, 50
5, 90840, Note_on_c, 3, 58, 0
5, 90864, Note_on_c, 3, 58, 55
5, 90888, Note_on_c, 3, 58, 0
5, 90912, Note_on_c, 3, 56, 50
5, 90936, Note_on_c, 3, 56, 0
5, 90960, Note_on_c, 3, 55, 50
5, 90984, Note_on_c, 3, 55, 0
5, 91008, Note_on_c, 3, 46, 50
5, 92160, Note_on_c, 3, 46, 0
5, 92160, Control_c, 3, 6, 64
5, 92160, Control_c, 3, 11, 50
5, 92160, Note_on_c, 3, 46, 120
5, 92177, Control_c, 3, 11, 51
5, 92193, Control_c, 3, 11, 52
5, 92210, Control_c, 3, 11, 53
5, 92226, Control_c, 3, 11, 54
5, 92243, Control_c, 3, 11, 55
5, 92259, Control_c, 3, 11, 56
5, 92276, Control_c, 3, 11, 57
5, 92292, Control_c, 3, 11, 58
5, 92308, Control_c, 3, 11, 59
5, 92325, Control_c, 3, 11, 60
5, 92341, Control_c, 3, 11, 61
5, 92358, Control_c, 3, 11, 62
5, 92374, Control_c, 3, 11, 63
5, 92391, Control_c, 3, 11, 64
5, 92407, Control_c, 3, 11, 65
5, 92424, Control_c, 3, 11, 66
5, 92440, Control_c, 3, 11, 67
5, 92456, Control_c, 3, 11, 68
5, 92473, Control_c, 3, 11, 69
5, 92489, Control_c, 3, 11, 70
5, 92506, Control_c, 3, 11, 71
5, 92522, Control_c, 3, 11, 72
5, 92539, Control_c, 3, 11, 73
5, 92555, Control_c, 3, 11, 74
5, 92572, Control_c, 3, 11, 75
5, 92588, Control_c, 3, 11, 76
5, 92604, Control_c, 3, 11, 77
5, 92621, Control_c, 3, 11, 78
5, 92637, Control_c, 3, 11, 79
5, 92654, Control_c, 3, 11, 80
5, 92670, Control_c, 3, 11, 81
5, 92687, Control_c, 3, 11, 82
5, 92703, Control_c, 3, 11, 83
5, 92720, Control_c, 3, 11, 84
5, 92735, Note_on_c, 3, 46, 0
5, 92736, Note_on_c, 3, 45, 120
5, 92736, Control_c, 3, 11, 85
5, 92752, Control_c, 3, 11, 86
5, 92769, Control_c, 3, 11, 87
5, 92785, Control_c, 3, 11, 88
5, 92802, Control_c, 3, 11, 89
5, 92818, Control_c, 3, 11, 90
5, 92835, Control_c, 3, 11, 91
5, 92851, Control_c, 3, 11, 92
5, 92868, Control_c, 3, 11, 93
5, 92884, Control_c, 3, 11, 94
5, 92900, Control_c, 3, 11, 95
5, 92917, Control_c, 3, 11, 96
5, 92933, Control_c, 3, 11, 97
5, 92950, Control_c, 3, 11, 98
5, 92966, Control_c, 3, 11, 99
5, 92983, Control_c, 3, 11, 100
5, 92999, Control_c, 3, 11, 101
5, 93016, Control_c, 3, 11, 102
5, 93032, Control_c, 3, 11, 103
5, 93048, Control_c, 3, 11, 104
5, 93065, Control_c, 3, 11, 105
5, 93081, Control_c, 3, 11, 106
5, 93098, Control_c, 3, 11, 107
5, 93114, Control_c, 3, 11, 108
5, 93131, Control_c, 3, 11, 109
5, 93147, Control_c, 3, 11, 110
5, 93164, Control_c, 3, 11, 111
5, 93180, Control_c, 3, 11, 112
5, 93196, Control_c, 3, 11, 113
5, 93213, Control_c, 3, 11, 114
5, 93229, Control_c, 3, 11, 115
5, 93246, Control_c, 3, 11, 116
5, 93262, Control_c, 3, 11, 117
5, 93279, Control_c, 3, 11, 118
5, 93295, Control_c, 3, 11, 119
5, 93311, Control_c, 3, 11, 120
5, 93312, Note_on_c, 3, 45, 0
5, 93312, Control_c, 3, 6, 14
5, 93312, Control_c, 3, 11, 120
5, 93312, Note_on_c, 3, 45, 120
5, 93342, Note_on_c, 3, 45, 0
5, 93600, Note_on_c, 3, 45, 120
5, 93630, Note_on_c, 3, 45, 0
5, 93888, Note_on_c, 3, 38, 125
5, 93923, Note_on_c, 3, 38, 0
5, 93960, Note_on_c, 3, 50, 115
5, 93972, Note_on_c, 3, 50, 0
5, 93984, Note_on_c, 3, 50, 115
5, 94008, Note_on_c, 3, 50, 0
5, 94032, Note_on_c, 3, 38, 125
5, 94067, Note_on_c, 3, 38, 0
5, 94104, Note_on_c, 3, 50, 115
5, 94116, Note_on_c, 3, 50, 0
5, 94128, Note_on_c, 3, 50, 115
5, 94152, Note_on_c, 3, 50, 0
5, 94176, Note_on_c, 3, 38, 125
5, 94211, Note_on_c, 3, 38, 0
5, 94248, Note_on_c, 3, 50, 115
5, 94260, Note_on_c, 3, 50, 0
5, 94272, Note_on_c, 3, 50, 115
5, 94296, Note_on_c, 3, 50, 0
5, 94320, Note_on_c, 3, 38, 125
5, 94355, Note_on_c, 3, 38, 0
5, 94392, Note_on_c, 3, 50, 115
5, 94404, Note_on_c, 3, 50, 0
5, 94416, Note_on_c, 3, 50, 115
5, 94440, Note_on_c, 3, 50, 0
5, 94464, Note_on_c, 3, 38, 125
5, 94499, Note_on_c, 3, 38, 0
5, 94536, Note_on_c, 3, 50, 115
5, 94548, Note_on_c, 3, 50, 0
5, 94560, Note_on_c, 3, 50, 115
5, 94584, Note_on_c, 3, 50, 0
5, 94608, Note_on_c, 3, 38, 125
5, 94643, Note_on_c, 3, 38, 0
5, 94680, Note_on_c, 3, 50, 115
5, 94692, Note_on_c, 3, 50, 0
5, 94704, Note_on_c, 3, 50, 115
5, 94728, Note_on_c, 3, 50, 0
5, 94752, Note_on_c, 3, 38, 125
5, 94787, Note_on_c, 3, 38, 0
5, 94824, Note_on_c, 3, 50, 115
5, 94836, Note_on_c, 3, 50, 0
5, 94848, Note_on_c, 3, 50, 115
5, 94872, Note_on_c, 3, 50, 0
5, 94896, Note_on_c, 3, 38, 125
5, 94931, Note_on_c, 3, 38, 0
5, 94968, Note_on_c, 3, 50, 115
5, 94980, Note_on_c, 3, 50, 0
5, 94992, Note_on_c, 3, 50, 115
5, 95016, Note_on_c, 3, 50, 0
5, 95040, Note_on_c, 3, 38, 125
5, 95075, Note_on_c, 3, 38, 0
5, 95112, Note_on_c, 3, 50, 115
5, 95124, Note_on_c, 3, 50, 0
5, 95136, Note_on_c, 3, 50, 115
5, 95160, Note_on_c, 3, 50, 0
5, 95184, Note_on_c, 3, 38, 125
5, 95219, Note_on_c, 3, 38, 0
5, 95256, Note_on_c, 3, 50, 115
5, 95268, Note_on_c, 3, 50, 0
5, 95280, Note_on_c, 3, 50, 115
5, 95304, Note_on_c, 3, 50, 0
5, 95328, Note_on_c, 3, 38, 125
5, 95363, Note_on_c, 3, 38, 0
5, 95400, Note_on_c, 3, 50, 115
5, 95412, Note_on_c, 3, 50, 0
5, 95424, Note_on_c, 3, 50, 115
5, 95448, Note_on_c, 3, 50, 0
5, 95472, Note_on_c, 3, 38, 125
5, 95507, Note_on_c, 3, 38, 0
5, 95544, Note_on_c, 3, 50, 115
5, 95556, Note_on_c, 3, 50, 0
5, 95568, Note_on_c, 3, 50, 115
5, 95592, Note_on_c, 3, 50, 0
5, 95616, Note_on_c, 3, 38, 125
5, 95651, Note_on_c, 3, 38, 0
5, 95688, Note_on_c, 3, 50, 115
5, 95700, Note_on_c, 3, 50, 0
5, 95712, Note_on_c, 3, 50, 115
5, 95736, Note_on_c, 3, 50, 0
5, 95760, Note_on_c, 3, 38, 125
5, 95795, Note_on_c, 3, 38, 0
5, 95832, Note_on_c, 3, 50, 115
5, 95844, Note_on_c, 3, 50, 0
5, 95856, Note_on_c, 3, 50, 115
5, 95880, Note_on_c, 3, 50, 0
5, 95904, Note_on_c, 3, 38, 125
5, 95939, Note_on_c, 3, 38, 0
5, 95976, Note_on_c, 3, 50, 115
5, 95988, Note_on_c, 3, 50, 0
5, 96000, Note_on_c, 3, 50, 115
5, 96024, Note_on_c, 3, 50, 0
5, 96048, Note_on_c, 3, 38, 125
5, 96083, Note_on_c, 3, 38, 0
5, 96120, Note_on_c, 3, 50, 115
5, 96132, Note_on_c, 3, 50, 0
5, 96144, Note_on_c, 3, 50, 115
5, 96168, Note_on_c, 3, 50, 0
5, 96192, Note_on_c, 3, 63, 120
5, 96216, Note_on_c, 3, 63, 0
5, 96240, Note_on_c, 3, 62, 115
5, 96264, Note_on_c, 3, 62, 0
5, 96288, Note_on_c, 3, 60, 115
5, 96312, Note_on_c, 3, 60, 0
5, 96336, Note_on_c, 3, 58, 120
5, 96360, Note_on_c, 3, 58, 0
5, 96384, Note_on_c, 3, 57, 115
5, 96408, Note_on_c, 3, 57, 0
5, 96432, Note_on_c, 3, 55, 115
5, 96456, Note_on_c, 3, 55, 0
5, 96480, Note_on_c, 3, 54, 120
5, 96504, Note_on_c, 3, 54, 0
5, 96528, Note_on_c, 3, 55, 115
5, 96552, Note_on_c, 3, 55, 0
5, 96576, Note_on_c, 3, 57, 115
5, 96600, Note_on_c, 3, 57, 0
5, 96624, Note_on_c, 3, 55, 120
5, 96648, Note_on_c, 3, 55, 0
5, 96672, Note_on_c, 3, 57, 115
5, 96696, Note_on_c, 3, 57, 0
5, 96720, Note_on_c, 3, 58, 115
5, 96744, Note_on_c, 3, 58, 0
5, 96768, Note_on_c, 3, 63, 105
5, 96792, Note_on_c, 3, 63, 0
5, 96816, Note_on_c, 3, 62, 100
5, 96840, Note_on_c, 3, 62, 0
5, 96864, Note_on_c, 3, 60, 100
5, 96888, Note_on_c, 3, 60, 0
5, 96912, Note_on_c, 3, 58, 105
5, 96936, Note_on_c, 3, 58, 0
5, 96960, Note_on_c, 3, 57, 100
5, 96984, Note_on_c, 3, 57, 0
5, 97008, Note_on_c, 3, 55, 100
5, 97032, Note_on_c, 3, 55, 0
5, 97056, Note_on_c, 3, 65, 105
5, 97080, Note_on_c, 3, 65, 0
5, 97104, Note_on_c, 3, 63, 100
5, 97128, Note_on_c, 3, 63, 0
5, 97152, Note_on_c, 3, 62, 100
5, 97176, Note_on_c, 3, 62, 0
5, 97200, Note_on_c, 3, 60, 105
5, 97224, Note_on_c, 3, 60, 0
5, 97248, Note_on_c, 3, 58, 100
5, 97272, Note_on_c, 3, 58, 0
5, 97296, Note_on_c, 3, 57, 100
5, 97320, Note_on_c, 3, 57, 0
5, 97344, Note_on_c, 3, 67, 105
5, 97368, Note_on_c, 3, 67, 0
5, 97392, Note_on_c, 3, 65, 100
5, 97416, Note_on_c, 3, 65, 0
5, 97440, Note_on_c, 3, 63, 100
5, 97464, Note_on_c, 3, 63, 0
5, 97488, Note_on_c, 3, 62, 105
5, 97512, Note_on_c, 3, 62, 0
5, 97536, Note_on_c, 3, 60, 100
5, 97560, Note_on_c, 3, 60, 0
5, 97584, Note_on_c, 3, 58, 100
5, 97608, Note_on_c, 3, 58, 0
5, 97632, Note_on_c, 3, 57, 105
5, 97656, Note_on_c, 3, 57, 0
5, 97680, Note_on_c, 3, 55, 100
5, 97704, Note_on_c, 3, 55, 0
5, 97728, Note_on_c, 3, 53, 100
5, 97752, Note_on_c, 3, 53, 0
5, 97776, Note_on_c, 3, 51, 105
5, 97800, Note_on_c, 3, 51, 0
5, 97824, Note_on_c, 3, 50, 100
5, 97848, Note_on_c, 3, 50, 0
5, 97872, Note_on_c, 3, 48, 100
5, 97896, Note_on_c, 3, 48, 0
5, 97920, Note_on_c, 3, 46, 100
5, 97944, Note_on_c, 3, 46, 0
5, 98064, Program_c, 3, 45
5, 98064, Control_c, 3, 7, 105
5, 98064, Note_on_c, 3, 58, 60
5, 98088, Note_on_c, 3, 58, 0
5, 98208, Note_on_c, 3, 51, 60
5, 98232, Note_on_c, 3, 51, 0
5, 98352, Note_on_c, 3, 48, 60
5, 98376, Note_on_c, 3, 48, 0
5, 98496, Note_on_c, 3, 53, 60
5, 98520, Note_on_c, 3, 53, 0
5, 98640, Note_on_c, 3, 46, 60
5, 98664, Note_on_c, 3, 46, 0
5, 98784, Note_on_c, 3, 53, 60
5, 98808, Note_on_c, 3, 53, 0
5, 98928, Note_on_c, 3, 41, 60
5, 98952, Note_on_c, 3, 41, 0
5, 100512, Program_c, 3, 48
5, 100512, Control_c, 3, 7, 123
5, 100512, Control_c, 3, 11, 60
5, 100512, Note_on_c, 3, 57, 100
5, 100536, Control_c, 3, 11, 61
5, 100560, Control_c, 3, 11, 62
5, 100584, Control_c, 3, 11, 63
5, 100608, Control_c, 3, 11, 64
5, 100632, Control_c, 3, 11, 65
5, 100656, Control_c, 3, 11, 66
5, 100680, Control_c, 3, 11, 67
5, 100704, Control_c, 3, 11, 68
5, 100728, Control_c, 3, 11, 69
5, 100752, Control_c, 3, 11, 70
5, 100776, Control_c, 3, 11, 71
5, 100800, Control_c, 3, 11, 72
5, 100824, Control_c, 3, 11, 73
5, 100848, Control_c, 3, 11, 74
5, 100872, Control_c, 3, 11, 75
5, 100896, Control_c, 3, 11, 76
5, 100920, Control_c, 3, 11, 77
5, 100944, Note_on_c, 3, 55, 100
5, 100944, Control_c, 3, 11, 78
5, 100945, Note_on_c, 3, 57, 0
5, 100968, Control_c, 3, 11, 79
5, 100992, Control_c, 3, 11, 80
5, 101016, Control_c, 3, 11, 81
5, 101040, Control_c, 3, 11, 82
5, 101064, Control_c, 3, 11, 83
5, 101088, Control_c, 3, 11, 84
5, 101112, Control_c, 3, 11, 85
5, 101136, Control_c, 3, 11, 86
5, 101160, Control_c, 3, 11, 87
5, 101184, Control_c, 3, 11, 88
5, 101208, Control_c, 3, 11, 89
5, 101231, Control_c, 3, 11, 90
5, 101232, Control_c, 3, 11, 90
5, 101232, Note_on_c, 3, 54, 100
5, 101233, Note_on_c, 3, 55, 0
5, 101247, Control_c, 3, 11, 89
5, 101261, Control_c, 3, 11, 88
5, 101276, Control_c, 3, 11, 87
5, 101290, Control_c, 3, 11, 86
5, 101304, Control_c, 3, 11, 85
5, 101319, Control_c, 3, 11, 84
5, 101333, Control_c, 3, 11, 83
5, 101347, Control_c, 3, 11, 82
5, 101362, Control_c, 3, 11, 81
5, 101376, Note_on_c, 3, 53, 100
5, 101376, Control_c, 3, 11, 80
5, 101377, Note_on_c, 3, 54, 0
5, 101391, Control_c, 3, 11, 79
5, 101405, Control_c, 3, 11, 78
5, 101419, Control_c, 3, 11, 77
5, 101434, Control_c, 3, 11, 76
5, 101448, Control_c, 3, 11, 75
5, 101462, Control_c, 3, 11, 74
5, 101477, Control_c, 3, 11, 73
5, 101491, Control_c, 3, 11, 72
5, 101505, Control_c, 3, 11, 71
5, 101520, Note_on_c, 3, 52, 100
5, 101520, Control_c, 3, 11, 70
5, 101521, Note_on_c, 3, 53, 0
5, 101534, Control_c, 3, 11, 69
5, 101549, Control_c, 3, 11, 68
5, 101563, Control_c, 3, 11, 67
5, 101577, Control_c, 3, 11, 66
5, 101592, Control_c, 3, 11, 65
5, 101606, Control_c, 3, 11, 64
5, 101620, Control_c, 3, 11, 63
5, 101635, Control_c, 3, 11, 62
5, 101649, Control_c, 3, 11, 61
5, 101661, Note_on_c, 3, 52, 0
5, 101663, Control_c, 3, 11, 120
5, 101664, Note_on_c, 3, 57, 60
5, 101699, Note_on_c, 3, 57, 0
5, 101736, Note_on_c, 3, 45, 63
5, 101748, Note_on_c, 3, 45, 0
5, 101760, Note_on_c, 3, 45, 64
5, 101784, Note_on_c, 3, 45, 0
5, 101808, Note_on_c, 3, 57, 66
5, 101843, Note_on_c, 3, 57, 0
5, 101880, Note_on_c, 3, 45, 70
5, 101892, Note_on_c, 3, 45, 0
5, 101904, Note_on_c, 3, 45, 71
5, 101928, Note_on_c, 3, 45, 0
5, 101952, Note_on_c, 3, 59, 73
5, 101987, Note_on_c, 3, 59, 0
5, 102024, Note_on_c, 3, 47, 76
5, 102036, Note_on_c, 3, 47, 0
5, 102048, Note_on_c, 3, 47, 78
5, 102072, Note_on_c, 3, 47, 0
5, 102096, Note_on_c, 3, 64, 80
5, 102131, Note_on_c, 3, 64, 0
5, 102168, Note_on_c, 3, 52, 83
5, 102180, Note_on_c, 3, 52, 0
5, 102192, Note_on_c, 3, 52, 84
5, 102216, Note_on_c, 3, 52, 0
5, 102240, Note_on_c, 3, 61, 87
5, 102275, Note_on_c, 3, 61, 0
5, 102312, Note_on_c, 3, 49, 90
5, 102324, Note_on_c, 3, 49, 0
5, 102336, Note_on_c, 3, 49, 91
5, 102360, Note_on_c, 3, 49, 0
5, 102384, Note_on_c, 3, 62, 93
5, 102419, Note_on_c, 3, 62, 0
5, 102456, Note_on_c, 3, 50, 97
5, 102468, Note_on_c, 3, 50, 0
5, 102480, Note_on_c, 3, 50, 98
5, 102504, Note_on_c, 3, 50, 0
5, 102528, Note_on_c, 3, 62, 100
5, 102563, Note_on_c, 3, 62, 0
5, 102600, Note_on_c, 3, 50, 103
5, 102612, Note_on_c, 3, 50, 0
5, 102624, Note_on_c, 3, 50, 105
5, 102648, Note_on_c, 3, 50, 0
5, 102672, Note_on_c, 3, 69, 107
5, 102707, Note_on_c, 3, 69, 0
5, 102744, Note_on_c, 3, 57, 110
5, 102756, Note_on_c, 3, 57, 0
5, 102768, Note_on_c, 3, 57, 111
5, 102792, Note_on_c, 3, 57, 0
5, 102816, Program_c, 3, 48
5, 102816, Control_c, 3, 7, 123
5, 102816, Note_on_c, 3, 62, 120
5, 102851, Note_on_c, 3, 62, 0
5, 102888, Note_on_c, 3, 50, 113
5, 102900, Note_on_c, 3, 50, 0
5, 102912, Note_on_c, 3, 50, 113
5, 102936, Note_on_c, 3, 50, 0
5, 102960, Note_on_c, 3, 62, 120
5, 102995, Note_on_c, 3, 62, 0
5, 103032, Note_on_c, 3, 50, 113
5, 103044, Note_on_c, 3, 50, 0
5, 103056, Note_on_c, 3, 50, 113
5, 103080, Note_on_c, 3, 50, 0
5, 103104, Note_on_c, 3, 62, 120
5, 103139, Note_on_c, 3, 62, 0
5, 103176, Note_on_c, 3, 50, 113
5, 103188, Note_on_c, 3, 50, 0
5, 103200, Note_on_c, 3, 50, 113
5, 103224, Note_on_c, 3, 50, 0
5, 103248, Note_on_c, 3, 62, 120
5, 103283, Note_on_c, 3, 62, 0
5, 103320, Note_on_c, 3, 50, 113
5, 103332, Note_on_c, 3, 50, 0
5, 103344, Note_on_c, 3, 50, 113
5, 103368, Note_on_c, 3, 50, 0
5, 103392, Note_on_c, 3, 62, 120
5, 103427, Note_on_c, 3, 62, 0
5, 103464, Note_on_c, 3, 50, 113
5, 103476, Note_on_c, 3, 50, 0
5, 103488, Note_on_c, 3, 50, 113
5, 103512, Note_on_c, 3, 50, 0
5, 103536, Note_on_c, 3, 62, 120
5, 103571, Note_on_c, 3, 62, 0
5, 103608, Note_on_c, 3, 50, 113
5, 103620, Note_on_c, 3, 50, 0
5, 103632, Note_on_c, 3, 50, 113
5, 103656, Note_on_c, 3, 50, 0
5, 103680, Note_on_c, 3, 62, 120
5, 103715, Note_on_c, 3, 62, 0
5, 103752, Note_on_c, 3, 50, 113
5, 103764, Note_on_c, 3, 50, 0
5, 103776, Note_on_c, 3, 50, 113
5, 103800, Note_on_c, 3, 50, 0
5, 103824, Note_on_c, 3, 62, 120
5, 103859, Note_on_c, 3, 62, 0
5, 103896, Note_on_c, 3, 50, 113
5, 103908, Note_on_c, 3, 50, 0
5, 103920, Note_on_c, 3, 50, 113
5, 103944, Note_on_c, 3, 50, 0
5, 103968, Note_on_c, 3, 62, 120
5, 104003, Note_on_c, 3, 62, 0
5, 104040, Note_on_c, 3, 50, 113
5, 104052, Note_on_c, 3, 50, 0
5, 104064, Note_on_c, 3, 50, 113
5, 104088, Note_on_c, 3, 50, 0
5, 104112, Note_on_c, 3, 62, 120
5, 104147, Note_on_c, 3, 62, 0
5, 104184, Note_on_c, 3, 50, 113
5, 104196, Note_on_c, 3, 50, 0
5, 104208, Note_on_c, 3, 50, 113
5, 104232, Note_on_c, 3, 50, 0
5, 104256, Note_on_c, 3, 62, 120
5, 104291, Note_on_c, 3, 62, 0
5, 104328, Note_on_c, 3, 50, 113
5, 104340, Note_on_c, 3, 50, 0
5, 104352, Note_on_c, 3, 50, 113
5, 104376, Note_on_c, 3, 50, 0
5, 104400, Note_on_c, 3, 62, 120
5, 104435, Note_on_c, 3, 62, 0
5, 104472, Note_on_c, 3, 50, 113
5, 104484, Note_on_c, 3, 50, 0
5, 104496, Note_on_c, 3, 50, 113
5, 104520, Note_on_c, 3, 50, 0
5, 104544, Note_on_c, 3, 62, 120
5, 104579, Note_on_c, 3, 62, 0
5, 104616, Note_on_c, 3, 50, 113
5, 104628, Note_on_c, 3, 50, 0
5, 104640, Note_on_c, 3, 50, 113
5, 104664, Note_on_c, 3, 50, 0
5, 104688, Note_on_c, 3, 62, 120
5, 104723, Note_on_c, 3, 62, 0
5, 104760, Note_on_c, 3, 50, 113
5, 104772, Note_on_c, 3, 50, 0
5, 104784, Note_on_c, 3, 50, 113
5, 104808, Note_on_c, 3, 50, 0
5, 104832, Note_on_c, 3, 62, 120
5, 104867, Note_on_c, 3, 62, 0
5, 104904, Note_on_c, 3, 50, 113
5, 104916, Note_on_c, 3, 50, 0
5, 104928, Note_on_c, 3, 50, 113
5, 104952, Note_on_c, 3, 50, 0
5, 104976, Note_on_c, 3, 62, 120
5, 105011, Note_on_c, 3, 62, 0
5, 105048, Note_on_c, 3, 50, 113
5, 105060, Note_on_c, 3, 50, 0
5, 105072, Note_on_c, 3, 50, 113
5, 105096, Note_on_c, 3, 50, 0
5, 105120, Note_on_c, 3, 62, 120
5, 105144, Note_on_c, 3, 62, 0
5, 105408, Note_on_c, 3, 55, 118
5, 105443, Note_on_c, 3, 55, 0
5, 105480, Note_on_c, 3, 43, 113
5, 105492, Note_on_c, 3, 43, 0
5, 105504, Note_on_c, 3, 43, 113
5, 105528, Note_on_c, 3, 43, 0
5, 105552, Note_on_c, 3, 43, 118
5, 105576, Note_on_c, 3, 43, 0
5, 105600, Note_on_c, 3, 40, 113
5, 105624, Note_on_c, 3, 40, 0
5, 105648, Note_on_c, 3, 38, 113
5, 105672, Note_on_c, 3, 38, 0
5, 105696, Note_on_c, 3, 36, 118
5, 105696, Note_on_c, 3, 48, 118
5, 105720, Note_on_c, 3, 48, 0
5, 105720, Note_on_c, 3, 36, 0
5, 105984, Note_on_c, 3, 65, 118
5, 106019, Note_on_c, 3, 65, 0
5, 106056, Note_on_c, 3, 53, 113
5, 106068, Note_on_c, 3, 53, 0
5, 106080, Note_on_c, 3, 53, 113
5, 106104, Note_on_c, 3, 53, 0
5, 106128, Note_on_c, 3, 53, 118
5, 106152, Note_on_c, 3, 53, 0
5, 106176, Note_on_c, 3, 50, 113
5, 106200, Note_on_c, 3, 50, 0
5, 106224, Note_on_c, 3, 48, 113
5, 106248, Note_on_c, 3, 48, 0
5, 106272, Control_c, 3, 6, 64
5, 106272, Control_c, 3, 11, 60
5, 106272, Note_on_c, 3, 48, 95
5, 106365, Note_on_c, 3, 48, 0
5, 106368, Note_on_c, 3, 60, 105
5, 106410, Note_on_c, 3, 60, 0
5, 106416, Note_on_c, 3, 58, 100
5, 106560, Control_c, 3, 11, 60
5, 106575, Control_c, 3, 11, 61
5, 106589, Control_c, 3, 11, 62
5, 106604, Control_c, 3, 11, 63
5, 106618, Control_c, 3, 11, 64
5, 106632, Control_c, 3, 11, 65
5, 106647, Control_c, 3, 11, 66
5, 106661, Control_c, 3, 11, 67
5, 106675, Control_c, 3, 11, 68
5, 106690, Control_c, 3, 11, 69
5, 106704, Control_c, 3, 11, 70
5, 106719, Control_c, 3, 11, 71
5, 106733, Control_c, 3, 11, 72
5, 106747, Control_c, 3, 11, 73
5, 106752, Note_on_c, 3, 58, 0
5, 106752, Note_on_c, 3, 56, 100
5, 106762, Control_c, 3, 11, 74
5, 106776, Control_c, 3, 11, 75
5, 106790, Control_c, 3, 11, 76
5, 106800, Note_on_c, 3, 56, 0
5, 106800, Note_on_c, 3, 55, 100
5, 106805, Control_c, 3, 11, 77
5, 106819, Control_c, 3, 11, 78
5, 106833, Control_c, 3, 11, 79
5, 106848, Note_on_c, 3, 55, 0
5, 106848, Note_on_c, 3, 55, 100
5, 106848, Control_c, 3, 11, 80
5, 106862, Control_c, 3, 11, 81
5, 106877, Control_c, 3, 11, 82
5, 106891, Control_c, 3, 11, 83
5, 106905, Control_c, 3, 11, 84
5, 106920, Control_c, 3, 11, 85
5, 106934, Control_c, 3, 11, 86
5, 106948, Control_c, 3, 11, 87
5, 106963, Control_c, 3, 11, 88
5, 106977, Control_c, 3, 11, 89
5, 106991, Note_on_c, 3, 55, 0
5, 106991, Control_c, 3, 11, 90
5, 106992, Control_c, 3, 11, 90
5, 106992, Note_on_c, 3, 57, 100
5, 106997, Control_c, 3, 11, 89
5, 107002, Control_c, 3, 11, 88
5, 107007, Control_c, 3, 11, 87
5, 107012, Control_c, 3, 11, 86
5, 107016, Control_c, 3, 11, 85
5, 107021, Control_c, 3, 11, 84
5, 107026, Control_c, 3, 11, 83
5, 107031, Control_c, 3, 11, 82
5, 107035, Control_c, 3, 11, 81
5, 107040, Control_c, 3, 11, 80
5, 107045, Control_c, 3, 11, 79
5, 107050, Control_c, 3, 11, 78
5, 107054, Control_c, 3, 11, 77
5, 107059, Control_c, 3, 11, 76
5, 107064, Control_c, 3, 11, 75
5, 107069, Control_c, 3, 11, 74
5, 107074, Control_c, 3, 11, 73
5, 107078, Control_c, 3, 11, 72
5, 107083, Control_c, 3, 11, 71
5, 107088, Control_c, 3, 11, 70
5, 107093, Control_c, 3, 11, 69
5, 107097, Control_c, 3, 11, 68
5, 107102, Control_c, 3, 11, 67
5, 107107, Control_c, 3, 11, 66
5, 107112, Control_c, 3, 11, 65
5, 107116, Control_c, 3, 11, 64
5, 107121, Control_c, 3, 11, 63
5, 107126, Control_c, 3, 11, 62
5, 107131, Control_c, 3, 11, 61
5, 107135, Note_on_c, 3, 57, 0
5, 107135, Control_c, 3, 11, 60
5, 107712, Control_c, 3, 6, 14
5, 108000, Control_c, 3, 11, 120
5, 108000, Note_on_c, 3, 62, 105
5, 108024, Note_on_c, 3, 62, 0
5, 108048, Note_on_c, 3, 58, 100
5, 108072, Note_on_c, 3, 58, 0
5, 108096, Note_on_c, 3, 55, 100
5, 108120, Note_on_c, 3, 55, 0
5, 108144, Note_on_c, 3, 56, 105
5, 108168, Note_on_c, 3, 56, 0
5, 108192, Note_on_c, 3, 57, 100
5, 108216, Note_on_c, 3, 57, 0
5, 108240, Note_on_c, 3, 45, 100
5, 108264, Note_on_c, 3, 45, 0
5, 108288, Note_on_c, 3, 50, 105
5, 108312, Note_on_c, 3, 50, 0
5, 108576, Note_on_c, 3, 57, 105
5, 108600, Note_on_c, 3, 57, 0
5, 108624, Note_on_c, 3, 53, 100
5, 108648, Note_on_c, 3, 53, 0
5, 108672, Note_on_c, 3, 58, 100
5, 108696, Note_on_c, 3, 58, 0
5, 108720, Note_on_c, 3, 55, 105
5, 108744, Note_on_c, 3, 55, 0
5, 108768, Note_on_c, 3, 52, 100
5, 108792, Note_on_c, 3, 52, 0
5, 108816, Note_on_c, 3, 57, 100
5, 108840, Note_on_c, 3, 57, 0
5, 108864, Note_on_c, 3, 50, 105
5, 108888, Note_on_c, 3, 50, 0
5, 109008, Note_on_c, 3, 57, 110
5, 109043, Note_on_c, 3, 57, 0
5, 109080, Note_on_c, 3, 45, 100
5, 109092, Note_on_c, 3, 45, 0
5, 109104, Note_on_c, 3, 45, 100
5, 109128, Note_on_c, 3, 45, 0
5, 109152, Note_on_c, 3, 38, 105
5, 109176, Note_on_c, 3, 38, 0
5, 109296, Note_on_c, 3, 57, 110
5, 109331, Note_on_c, 3, 57, 0
5, 109368, Note_on_c, 3, 45, 100
5, 109380, Note_on_c, 3, 45, 0
5, 109392, Note_on_c, 3, 45, 100
5, 109416, Note_on_c, 3, 45, 0
5, 109440, Note_on_c, 3, 45, 55
5, 109464, Note_on_c, 3, 45, 0
5, 109488, Note_on_c, 3, 45, 50
5, 109512, Note_on_c, 3, 45, 0
5, 109536, Note_on_c, 3, 45, 50
5, 109560, Note_on_c, 3, 45, 0
5, 109584, Note_on_c, 3, 45, 55
5, 109608, Note_on_c, 3, 45, 0
5, 109632, Note_on_c, 3, 45, 50
5, 109656, Note_on_c, 3, 45, 0
5, 109680, Note_on_c, 3, 45, 50
5, 109704, Note_on_c, 3, 45, 0
5, 109728, Note_on_c, 3, 45, 55
5, 109752, Note_on_c, 3, 45, 0
5, 109776, Note_on_c, 3, 45, 50
5, 109800, Note_on_c, 3, 45, 0
5, 109824, Note_on_c, 3, 45, 50
5, 109848, Note_on_c, 3, 45, 0
5, 109872, Note_on_c, 3, 45, 55
5, 109896, Note_on_c, 3, 45, 0
5, 109920, Note_on_c, 3, 45, 50
5, 109944, Note_on_c, 3, 45, 0
5, 109968, Note_on_c, 3, 45, 50
5, 109992, Note_on_c, 3, 45, 0
5, 110016, Note_on_c, 3, 38, 60
5, 110051, Note_on_c, 3, 38, 0
5, 110088, Note_on_c, 3, 50, 50
5, 110100, Note_on_c, 3, 50, 0
5, 110112, Note_on_c, 3, 50, 50
5, 110136, Note_on_c, 3, 50, 0
5, 110160, Note_on_c, 3, 45, 55
5, 110184, Note_on_c, 3, 45, 0
5, 110304, Note_on_c, 3, 41, 60
5, 110339, Note_on_c, 3, 41, 0
5, 110376, Note_on_c, 3, 53, 50
5, 110388, Note_on_c, 3, 53, 0
5, 110400, Note_on_c, 3, 53, 50
5, 110424, Note_on_c, 3, 53, 0
5, 110448, Note_on_c, 3, 50, 55
5, 110472, Note_on_c, 3, 50, 0
5, 111168, Note_on_c, 3, 50, 55
5, 111203, Note_on_c, 3, 50, 0
5, 111240, Note_on_c, 3, 62, 54
5, 111252, Note_on_c, 3, 62, 0
5, 111264, Note_on_c, 3, 62, 56
5, 111288, Note_on_c, 3, 62, 0
5, 111312, Note_on_c, 3, 57, 59
5, 111336, Note_on_c, 3, 57, 0
5, 111456, Note_on_c, 3, 53, 73
5, 111491, Note_on_c, 3, 53, 0
5, 111528, Note_on_c, 3, 65, 72
5, 111540, Note_on_c, 3, 65, 0
5, 111552, Note_on_c, 3, 65, 74
5, 111576, Note_on_c, 3, 65, 0
5, 111600, Note_on_c, 3, 62, 77
5, 111624, Note_on_c, 3, 62, 0
5, 111744, Note_on_c, 3, 46, 86
5, 111779, Note_on_c, 3, 46, 0
5, 111816, Note_on_c, 3, 58, 90
5, 111828, Note_on_c, 3, 58, 0
5, 111840, Note_on_c, 3, 58, 92
5, 111864, Note_on_c, 3, 58, 0
5, 111888, Note_on_c, 3, 55, 95
5, 111912, Note_on_c, 3, 55, 0
5, 112032, Note_on_c, 3, 46, 104
5, 112067, Note_on_c, 3, 46, 0
5, 112104, Note_on_c, 3, 58, 108
5, 112116, Note_on_c, 3, 58, 0
5, 112128, Note_on_c, 3, 58, 110
5, 112152, Note_on_c, 3, 58, 0
5, 112176, Note_on_c, 3, 57, 113
5, 112200, Note_on_c, 3, 57, 0
5, 112368, Note_on_c, 3, 49, 55
5, 112392, Note_on_c, 3, 49, 0
5, 112416, Note_on_c, 3, 50, 50
5, 112440, Note_on_c, 3, 50, 0
5, 112464, Note_on_c, 3, 52, 50
5, 112488, Note_on_c, 3, 52, 0
5, 112512, Note_on_c, 3, 53, 55
5, 112536, Note_on_c, 3, 53, 0
5, 112560, Note_on_c, 3, 52, 50
5, 112584, Note_on_c, 3, 52, 0
5, 112608, Note_on_c, 3, 50, 50
5, 112632, Note_on_c, 3, 50, 0
5, 112656, Note_on_c, 3, 48, 55
5, 112680, Note_on_c, 3, 48, 0
5, 112704, Note_on_c, 3, 46, 50
5, 112728, Note_on_c, 3, 46, 0
5, 112752, Note_on_c, 3, 45, 50
5, 112776, Note_on_c, 3, 45, 0
5, 112800, Note_on_c, 3, 43, 55
5, 112824, Note_on_c, 3, 43, 0
5, 112848, Note_on_c, 3, 45, 50
5, 112872, Note_on_c, 3, 45, 0
5, 112896, Note_on_c, 3, 46, 50
5, 112920, Note_on_c, 3, 46, 0
5, 112944, Note_on_c, 3, 49, 55
5, 112968, Note_on_c, 3, 49, 0
5, 112992, Note_on_c, 3, 50, 50
5, 113016, Note_on_c, 3, 50, 0
5, 113040, Note_on_c, 3, 52, 50
5, 113064, Note_on_c, 3, 52, 0
5, 113088, Note_on_c, 3, 53, 55
5, 113112, Note_on_c, 3, 53, 0
5, 113136, Note_on_c, 3, 52, 50
5, 113160, Note_on_c, 3, 52, 0
5, 113184, Note_on_c, 3, 50, 50
5, 113208, Note_on_c, 3, 50, 0
5, 113232, Note_on_c, 3, 48, 55
5, 113256, Note_on_c, 3, 48, 0
5, 113280, Note_on_c, 3, 46, 50
5, 113304, Note_on_c, 3, 46, 0
5, 113328, Note_on_c, 3, 45, 50
5, 113352, Note_on_c, 3, 45, 0
5, 113376, Note_on_c, 3, 43, 55
5, 113400, Note_on_c, 3, 43, 0
5, 113424, Note_on_c, 3, 45, 50
5, 113448, Note_on_c, 3, 45, 0
5, 113472, Note_on_c, 3, 46, 50
5, 113496, Note_on_c, 3, 46, 0
5, 113520, Note_on_c, 3, 57, 60
5, 113555, Note_on_c, 3, 57, 0
5, 113591, Note_on_c, 3, 45, 54
5, 113603, Note_on_c, 3, 45, 0
5, 113615, Note_on_c, 3, 45, 55
5, 113639, Note_on_c, 3, 45, 0
5, 113663, Note_on_c, 3, 50, 58
5, 113687, Note_on_c, 3, 50, 0
5, 113711, Note_on_c, 3, 52, 61
5, 113735, Note_on_c, 3, 52, 0
5, 113759, Note_on_c, 3, 53, 64
5, 113783, Note_on_c, 3, 53, 0
5, 113807, Note_on_c, 3, 57, 76
5, 113842, Note_on_c, 3, 57, 0
5, 113879, Note_on_c, 3, 45, 71
5, 113891, Note_on_c, 3, 45, 0
5, 113903, Note_on_c, 3, 45, 72
5, 113927, Note_on_c, 3, 45, 0
5, 113951, Note_on_c, 3, 50, 75
5, 113975, Note_on_c, 3, 50, 0
5, 113999, Note_on_c, 3, 52, 78
5, 114023, Note_on_c, 3, 52, 0
5, 114047, Note_on_c, 3, 53, 80
5, 114071, Note_on_c, 3, 53, 0
5, 114095, Note_on_c, 3, 57, 93
5, 114130, Note_on_c, 3, 57, 0
5, 114167, Note_on_c, 3, 45, 87
5, 114179, Note_on_c, 3, 45, 0
5, 114191, Note_on_c, 3, 45, 89
5, 114215, Note_on_c, 3, 45, 0
5, 114239, Note_on_c, 3, 50, 92
5, 114263, Note_on_c, 3, 50, 0
5, 114287, Note_on_c, 3, 52, 95
5, 114311, Note_on_c, 3, 52, 0
5, 114335, Note_on_c, 3, 53, 97
5, 114359, Note_on_c, 3, 53, 0
5, 114383, Note_on_c, 3, 57, 110
5, 114418, Note_on_c, 3, 57, 0
5, 114455, Note_on_c, 3, 45, 104
5, 114467, Note_on_c, 3, 45, 0
5, 114479, Note_on_c, 3, 45, 106
5, 114503, Note_on_c, 3, 45, 0
5, 114527, Note_on_c, 3, 50, 109
5, 114551, Note_on_c, 3, 50, 0
5, 114575, Note_on_c, 3, 52, 111
5, 114599, Note_on_c, 3, 52, 0
5, 114623, Note_on_c, 3, 53, 114
5, 114647, Note_on_c, 3, 53, 0
5, 114671, Note_on_c, 3, 69, 125
5, 114695, Note_on_c, 3, 69, 0
5, 114719, Note_on_c, 3, 57, 115
5, 114743, Note_on_c, 3, 57, 0
5, 114767, Note_on_c, 3, 62, 125
5, 114791, Note_on_c, 3, 62, 0
5, 114815, Note_on_c, 3, 50, 115
5, 114839, Note_on_c, 3, 50, 0
5, 114863, Note_on_c, 3, 57, 125
5, 114887, Note_on_c, 3, 57, 0
5, 114911, Note_on_c, 3, 45, 115
5, 114935, Note_on_c, 3, 45, 0
5, 114959, Note_on_c, 3, 57, 125
5, 114983, Note_on_c, 3, 57, 0
5, 115007, Note_on_c, 3, 45, 120
5, 115031, Note_on_c, 3, 45, 0
5, 115055, Note_on_c, 3, 50, 120
5, 115079, Note_on_c, 3, 50, 0
5, 115247, Control_c, 3, 6, 64
5, 118224, Control_c, 3, 6, 64
5, 118224, Control_c, 3, 11, 60
5, 118224, Note_on_c, 3, 50, 100
5, 118271, Note_on_c, 3, 52, 100
5, 118272, Note_on_c, 3, 50, 0
5, 118319, Note_on_c, 3, 52, 0
5, 118319, Note_on_c, 3, 54, 100
5, 118367, Note_on_c, 3, 54, 0
5, 118367, Note_on_c, 3, 55, 100
5, 118415, Note_on_c, 3, 55, 0
5, 118415, Control_c, 3, 11, 60
5, 118415, Note_on_c, 3, 57, 100
5, 118444, Control_c, 3, 11, 61
5, 118463, Note_on_c, 3, 57, 0
5, 118463, Note_on_c, 3, 59, 100
5, 118473, Control_c, 3, 11, 62
5, 118502, Control_c, 3, 11, 63
5, 118511, Note_on_c, 3, 59, 0
5, 118511, Note_on_c, 3, 59, 100
5, 118531, Control_c, 3, 11, 64
5, 118559, Note_on_c, 3, 59, 0
5, 118559, Note_on_c, 3, 57, 100
5, 118559, Control_c, 3, 11, 65
5, 118588, Control_c, 3, 11, 66
5, 118607, Note_on_c, 3, 57, 0
5, 118607, Note_on_c, 3, 59, 100
5, 118617, Control_c, 3, 11, 67
5, 118646, Control_c, 3, 11, 68
5, 118655, Note_on_c, 3, 59, 0
5, 118655, Note_on_c, 3, 61, 100
5, 118674, Control_c, 3, 11, 69
5, 118703, Note_on_c, 3, 61, 0
5, 118703, Note_on_c, 3, 62, 100
5, 118703, Control_c, 3, 11, 70
5, 118732, Control_c, 3, 11, 71
5, 118751, Note_on_c, 3, 62, 0
5, 118751, Note_on_c, 3, 61, 100
5, 118761, Control_c, 3, 11, 72
5, 118789, Control_c, 3, 11, 73
5, 118799, Note_on_c, 3, 61, 0
5, 118799, Note_on_c, 3, 62, 100
5, 118818, Control_c, 3, 11, 74
5, 118847, Note_on_c, 3, 62, 0
5, 118847, Note_on_c, 3, 64, 100
5, 118847, Control_c, 3, 11, 75
5, 118876, Control_c, 3, 11, 76
5, 118895, Note_on_c, 3, 64, 0
5, 118895, Note_on_c, 3, 62, 100
5, 118905, Control_c, 3, 11, 77
5, 118933, Control_c, 3, 11, 78
5, 118943, Note_on_c, 3, 62, 0
5, 118943, Note_on_c, 3, 61, 100
5, 118962, Control_c, 3, 11, 79
5, 118991, Note_on_c, 3, 61, 0
5, 118991, Note_on_c, 3, 62, 100
5, 118991, Control_c, 3, 11, 80
5, 119020, Control_c, 3, 11, 81
5, 119039, Note_on_c, 3, 62, 0
5, 119039, Note_on_c, 3, 64, 100
5, 119048, Control_c, 3, 11, 82
5, 119077, Control_c, 3, 11, 83
5, 119087, Note_on_c, 3, 64, 0
5, 119087, Note_on_c, 3, 66, 100
5, 119106, Control_c, 3, 11, 84
5, 119135, Note_on_c, 3, 66, 0
5, 119135, Note_on_c, 3, 64, 100
5, 119135, Control_c, 3, 11, 85
5, 119163, Control_c, 3, 11, 86
5, 119183, Note_on_c, 3, 64, 0
5, 119183, Note_on_c, 3, 66, 100
5, 119192, Control_c, 3, 11, 87
5, 119221, Control_c, 3, 11, 88
5, 119231, Note_on_c, 3, 66, 0
5, 119231, Note_on_c, 3, 67, 100
5, 119250, Control_c, 3, 11, 89
5, 119278, Control_c, 3, 11, 90
5, 119279, Note_on_c, 3, 67, 0
5, 119279, Note_on_c, 3, 69, 100
5, 119375, Note_on_c, 3, 69, 0
5, 119375, Control_c, 3, 11, 90
5, 119375, Note_on_c, 3, 71, 100
5, 119379, Control_c, 3, 11, 89
5, 119383, Control_c, 3, 11, 88
5, 119387, Control_c, 3, 11, 87
5, 119391, Control_c, 3, 11, 86
5, 119395, Control_c, 3, 11, 85
5, 119399, Control_c, 3, 11, 84
5, 119403, Control_c, 3, 11, 83
5, 119407, Control_c, 3, 11, 82
5, 119411, Control_c, 3, 11, 81
5, 119415, Control_c, 3, 11, 80
5, 119419, Control_c, 3, 11, 79
5, 119423, Note_on_c, 3, 71, 0
5, 119423, Note_on_c, 3, 67, 100
5, 119423, Control_c, 3, 11, 78
5, 119427, Control_c, 3, 11, 77
5, 119431, Control_c, 3, 11, 76
5, 119435, Control_c, 3, 11, 75
5, 119439, Control_c, 3, 11, 74
5, 119443, Control_c, 3, 11, 73
5, 119447, Control_c, 3, 11, 72
5, 119451, Control_c, 3, 11, 71
5, 119455, Control_c, 3, 11, 70
5, 119459, Control_c, 3, 11, 69
5, 119463, Control_c, 3, 11, 68
5, 119467, Control_c, 3, 11, 67
5, 119470, Control_c, 3, 11, 66
5, 119471, Note_on_c, 3, 67, 0
5, 119471, Control_c, 3, 11, 60
5, 119471, Note_on_c, 3, 66, 100
5, 119519, Note_on_c, 3, 66, 0
5, 119567, Note_on_c, 3, 64, 100
5, 119615, Note_on_c, 3, 64, 0
5, 119663, Note_on_c, 3, 62, 100
5, 119711, Note_on_c, 3, 62, 0
5, 119759, Note_on_c, 3, 50, 100
5, 119807, Note_on_c, 3, 50, 0
5, 119807, Note_on_c, 3, 52, 100
5, 119855, Note_on_c, 3, 52, 0
5, 119855, Note_on_c, 3, 54, 100
5, 119903, Note_on_c, 3, 54, 0
5, 119903, Note_on_c, 3, 55, 100
5, 119951, Note_on_c, 3, 55, 0
5, 119951, Note_on_c, 3, 57, 100
5, 119999, Note_on_c, 3, 57, 0
5, 119999, Note_on_c, 3, 59, 100
5, 120047, Note_on_c, 3, 59, 0
5, 120047, Note_on_c, 3, 59, 100
5, 120095, Note_on_c, 3, 59, 0
5, 120095, Note_on_c, 3, 57, 100
5, 120143, Note_on_c, 3, 57, 0
5, 120143, Control_c, 3, 11, 60
5, 120143, Note_on_c, 3, 59, 100
5, 120166, Control_c, 3, 11, 61
5, 120188, Control_c, 3, 11, 62
5, 120191, Note_on_c, 3, 59, 0
5, 120191, Note_on_c, 3, 61, 100
5, 120211, Control_c, 3, 11, 63
5, 120233, Control_c, 3, 11, 64
5, 120239, Note_on_c, 3, 61, 0
5, 120239, Note_on_c, 3, 62, 100
5, 120255, Control_c, 3, 11, 65
5, 120278, Control_c, 3, 11, 66
5, 120287, Note_on_c, 3, 62, 0
5, 120287, Note_on_c, 3, 61, 100
5, 120300, Control_c, 3, 11, 67
5, 120322, Control_c, 3, 11, 68
5, 120335, Note_on_c, 3, 61, 0
5, 120335, Note_on_c, 3, 62, 100
5, 120345, Control_c, 3, 11, 69
5, 120367, Control_c, 3, 11, 70
5, 120383, Note_on_c, 3, 62, 0
5, 120383, Note_on_c, 3, 64, 100
5, 120390, Control_c, 3, 11, 71
5, 120412, Control_c, 3, 11, 72
5, 120431, Note_on_c, 3, 64, 0
5, 120431, Note_on_c, 3, 62, 100
5, 120434, Control_c, 3, 11, 73
5, 120457, Control_c, 3, 11, 74
5, 120479, Note_on_c, 3, 62, 0
5, 120479, Note_on_c, 3, 61, 100
5, 120479, Control_c, 3, 11, 75
5, 120501, Control_c, 3, 11, 76
5, 120524, Control_c, 3, 11, 77
5, 120527, Note_on_c, 3, 61, 0
5, 120527, Note_on_c, 3, 62, 100
5, 120546, Control_c, 3, 11, 78
5, 120568, Control_c, 3, 11, 79
5, 120575, Note_on_c, 3, 62, 0
5, 120575, Note_on_c, 3, 64, 100
5, 120591, Control_c, 3, 11, 80
5, 120613, Control_c, 3, 11, 81
5, 120623, Note_on_c, 3, 64, 0
5, 120623, Note_on_c, 3, 66, 100
5, 120636, Control_c, 3, 11, 82
5, 120658, Control_c, 3, 11, 83
5, 120671, Note_on_c, 3, 66, 0
5, 120671, Note_on_c, 3, 64, 100
5, 120680, Control_c, 3, 11, 84
5, 120703, Control_c, 3, 11, 85
5, 120719, Note_on_c, 3, 64, 0
5, 120719, Note_on_c, 3, 66, 100
5, 120725, Control_c, 3, 11, 86
5, 120747, Control_c, 3, 11, 87
5, 120767, Note_on_c, 3, 66, 0
5, 120767, Note_on_c, 3, 67, 100
5, 120770, Control_c, 3, 11, 88
5, 120792, Control_c, 3, 11, 89
5, 120814, Control_c, 3, 11, 90
5, 120815, Note_on_c, 3, 67, 0
5, 120815, Note_on_c, 3, 69, 100
5, 120911, Note_on_c, 3, 69, 0
5, 120911, Control_c, 3, 11, 90
5, 120911, Note_on_c, 3, 71, 100
5, 120915, Control_c, 3, 11, 89
5, 120919, Control_c, 3, 11, 88
5, 120922, Control_c, 3, 11, 87
5, 120926, Control_c, 3, 11, 86
5, 120930, Control_c, 3, 11, 85
5, 120933, Control_c, 3, 11, 84
5, 120937, Control_c, 3, 11, 83
5, 120941, Control_c, 3, 11, 82
5, 120944, Control_c, 3, 11, 81
5, 120948, Control_c, 3, 11, 80
5, 120952, Control_c, 3, 11, 79
5, 120955, Control_c, 3, 11, 78
5, 120959, Note_on_c, 3, 71, 0
5, 120959, Note_on_c, 3, 67, 100
5, 120959, Control_c, 3, 11, 77
5, 120963, Control_c, 3, 11, 76
5, 120966, Control_c, 3, 11, 75
5, 120970, Control_c, 3, 11, 74
5, 120974, Control_c, 3, 11, 73
5, 120977, Control_c, 3, 11, 72
5, 120981, Control_c, 3, 11, 71
5, 120985, Control_c, 3, 11, 70
5, 120988, Control_c, 3, 11, 69
5, 120992, Control_c, 3, 11, 68
5, 120996, Control_c, 3, 11, 67
5, 120999, Control_c, 3, 11, 66
5, 121003, Control_c, 3, 11, 65
5, 121006, Control_c, 3, 11, 64
5, 121007, Note_on_c, 3, 67, 0
5, 121007, Control_c, 3, 11, 60
5, 121007, Note_on_c, 3, 66, 100
5, 121055, Note_on_c, 3, 66, 0
5, 121103, Note_on_c, 3, 64, 100
5, 121151, Note_on_c, 3, 64, 0
5, 122736, Control_c, 3, 11, 120
5, 122832, Note_on_c, 3, 62, 68
5, 122856, Note_on_c, 3, 62, 0
5, 122880, Note_on_c, 3, 61, 67
5, 122904, Note_on_c, 3, 61, 0
5, 122928, Note_on_c, 3, 62, 68
5, 122952, Note_on_c, 3, 62, 0
5, 122976, Note_on_c, 3, 59, 65
5, 123000, Note_on_c, 3, 59, 0
5, 123024, Note_on_c, 3, 57, 63
5, 123048, Note_on_c, 3, 57, 0
5, 123072, Note_on_c, 3, 55, 61
5, 123096, Note_on_c, 3, 55, 0
5, 123120, Note_on_c, 3, 54, 60
5, 123144, Note_on_c, 3, 54, 0
5, 123168, Note_on_c, 3, 52, 58
5, 123192, Note_on_c, 3, 52, 0
5, 123216, Note_on_c, 3, 50, 56
5, 123240, Note_on_c, 3, 50, 0
5, 123264, Note_on_c, 3, 48, 54
5, 123288, Note_on_c, 3, 48, 0
5, 123312, Note_on_c, 3, 47, 53
5, 123336, Note_on_c, 3, 47, 0
5, 123360, Note_on_c, 3, 49, 55
5, 123384, Note_on_c, 3, 49, 0
5, 123408, Note_on_c, 3, 50, 56
5, 123432, Note_on_c, 3, 50, 0
5, 123456, Note_on_c, 3, 54, 60
5, 123480, Note_on_c, 3, 54, 0
5, 123504, Note_on_c, 3, 57, 63
5, 123528, Note_on_c, 3, 57, 0
5, 123552, Note_on_c, 3, 55, 61
5, 123576, Note_on_c, 3, 55, 0
5, 123600, Note_on_c, 3, 54, 60
5, 123624, Note_on_c, 3, 54, 0
5, 124252, Text_t, "\203t\203@\203S\203b\203g\202Q"
5, 124252, Text_t, "\217o\222£"
5, 124252, Program_c, 3, 70
5, 124254, Control_c, 3, 99, 1
5, 124256, Control_c, 3, 98, 32
5, 124258, Control_c, 3, 6, 51
5, 124260, Control_c, 3, 98, 33
5, 124262, Control_c, 3, 6, 53
5, 124264, Control_c, 3, 7, 96
5, 124266, Control_c, 3, 91, 50
5, 124268, Control_c, 3, 93, 5
5, 124270, Control_c, 3, 10, 72
5, 124272, Control_c, 3, 1, 0
5, 124272, Note_on_c, 3, 57, 60
5, 124273, Control_c, 3, 1, 1
5, 124274, Control_c, 3, 1, 2
5, 124275, Control_c, 3, 1, 3
5, 124278, Control_c, 3, 1, 4
5, 124280, Control_c, 3, 1, 5
5, 124282, Control_c, 3, 1, 6
5, 124284, Control_c, 3, 1, 7
5, 124287, Control_c, 3, 1, 8
5, 124290, Control_c, 3, 1, 9
5, 124293, Control_c, 3, 1, 10
5, 124296, Control_c, 3, 1, 11
5, 124299, Control_c, 3, 1, 12
5, 124304, Control_c, 3, 1, 13
5, 124308, Control_c, 3, 1, 14
5, 124314, Control_c, 3, 1, 15
5, 124320, Control_c, 3, 1, 16
5, 124327, Control_c, 3, 1, 17
5, 124337, Control_c, 3, 1, 18
5, 124351, Control_c, 3, 1, 19
5, 124375, Control_c, 3, 1, 20
5, 125520, Note_on_c, 3, 57, 0
5, 125616, Program_c, 3, 48
5, 125625, Control_c, 3, 7, 123
5, 125634, Control_c, 3, 11, 120
5, 125643, Control_c, 3, 91, 80
5, 125652, Control_c, 3, 93, 20
5, 125661, Control_c, 3, 10, 100
5, 125670, Control_c, 3, 99, 1
5, 125679, Control_c, 3, 98, 32
5, 125688, Control_c, 3, 6, 54
5, 125697, Control_c, 3, 98, 33
5, 125706, Control_c, 3, 6, 48
5, 125715, Control_c, 3, 1, 0
5, 128304, Note_on_c, 3, 50, 100
5, 128328, Note_on_c, 3, 50, 0
5, 128400, Note_on_c, 3, 62, 68
5, 128424, Note_on_c, 3, 62, 0
5, 128448, Note_on_c, 3, 61, 67
5, 128472, Note_on_c, 3, 61, 0
5, 128496, Note_on_c, 3, 62, 68
5, 128520, Note_on_c, 3, 62, 0
5, 128544, Note_on_c, 3, 59, 65
5, 128568, Note_on_c, 3, 59, 0
5, 128592, Note_on_c, 3, 57, 63
5, 128616, Note_on_c, 3, 57, 0
5, 128640, Note_on_c, 3, 55, 61
5, 128664, Note_on_c, 3, 55, 0
5, 128688, Note_on_c, 3, 54, 60
5, 128712, Note_on_c, 3, 54, 0
5, 128736, Note_on_c, 3, 52, 58
5, 128760, Note_on_c, 3, 52, 0
5, 128784, Note_on_c, 3, 50, 56
5, 128808, Note_on_c, 3, 50, 0
5, 128832, Note_on_c, 3, 48, 54
5, 128856, Note_on_c, 3, 48, 0
5, 128880, Note_on_c, 3, 47, 66
5, 128904, Note_on_c, 3, 47, 0
5, 128928, Note_on_c, 3, 49, 66
5, 128952, Note_on_c, 3, 49, 0
5, 128976, Note_on_c, 3, 50, 67
5, 129000, Note_on_c, 3, 50, 0
5, 129024, Note_on_c, 3, 54, 68
5, 129048, Note_on_c, 3, 54, 0
5, 129072, Note_on_c, 3, 57, 69
5, 129096, Note_on_c, 3, 57, 0
5, 129120, Note_on_c, 3, 61, 69
5, 129144, Note_on_c, 3, 61, 0
5, 129168, Note_on_c, 3, 62, 70
5, 129192, Note_on_c, 3, 62, 0
5, 129216, Note_on_c, 3, 61, 71
5, 129240, Note_on_c, 3, 61, 0
5, 129264, Note_on_c, 3, 62, 72
5, 129288, Note_on_c, 3, 62, 0
5, 129312, Note_on_c, 3, 59, 72
5, 129336, Note_on_c, 3, 59, 0
5, 129360, Note_on_c, 3, 57, 73
5, 129384, Note_on_c, 3, 57, 0
5, 129408, Note_on_c, 3, 55, 74
5, 129432, Note_on_c, 3, 55, 0
5, 129456, Note_on_c, 3, 54, 75
5, 129480, Note_on_c, 3, 54, 0
5, 129504, Note_on_c, 3, 52, 75
5, 129528, Note_on_c, 3, 52, 0
5, 129552, Note_on_c, 3, 50, 76
5, 129576, Note_on_c, 3, 50, 0
5, 129600, Note_on_c, 3, 48, 77
5, 129624, Note_on_c, 3, 48, 0
5, 129648, Note_on_c, 3, 47, 78
5, 129672, Note_on_c, 3, 47, 0
5, 129696, Note_on_c, 3, 49, 78
5, 129720, Note_on_c, 3, 49, 0
5, 129744, Note_on_c, 3, 50, 79
5, 129768, Note_on_c, 3, 50, 0
5, 129792, Note_on_c, 3, 54, 80
5, 129816, Note_on_c, 3, 54, 0
5, 129840, Note_on_c, 3, 57, 81
5, 129864, Note_on_c, 3, 57, 0
5, 129888, Note_on_c, 3, 61, 81
5, 129912, Note_on_c, 3, 61, 0
5, 129936, Note_on_c, 3, 62, 82
5, 129960, Note_on_c, 3, 62, 0
5, 129984, Note_on_c, 3, 61, 83
5, 130008, Note_on_c, 3, 61, 0
5, 130032, Note_on_c, 3, 62, 84
5, 130056, Note_on_c, 3, 62, 0
5, 130080, Note_on_c, 3, 59, 84
5, 130104, Note_on_c, 3, 59, 0
5, 130128, Note_on_c, 3, 57, 85
5, 130152, Note_on_c, 3, 57, 0
5, 130176, Note_on_c, 3, 55, 86
5, 130200, Note_on_c, 3, 55, 0
5, 130224, Note_on_c, 3, 54, 87
5, 130248, Note_on_c, 3, 54, 0
5, 130272, Note_on_c, 3, 52, 87
5, 130296, Note_on_c, 3, 52, 0
5, 130320, Note_on_c, 3, 50, 88
5, 130344, Note_on_c, 3, 50, 0
5, 130368, Note_on_c, 3, 48, 89
5, 130392, Note_on_c, 3, 48, 0
5, 130416, Note_on_c, 3, 47, 90
5, 130440, Note_on_c, 3, 47, 0
5, 130464, Note_on_c, 3, 49, 90
5, 130488, Note_on_c, 3, 49, 0
5, 130512, Note_on_c, 3, 50, 91
5, 130536, Note_on_c, 3, 50, 0
5, 130560, Note_on_c, 3, 54, 92
5, 130584, Note_on_c, 3, 54, 0
5, 130608, Note_on_c, 3, 57, 93
5, 130632, Note_on_c, 3, 57, 0
5, 130656, Note_on_c, 3, 61, 93
5, 130680, Note_on_c, 3, 61, 0
5, 130704, Note_on_c, 3, 62, 107
5, 130728, Note_on_c, 3, 62, 0
5, 130752, Note_on_c, 3, 61, 106
5, 130776, Note_on_c, 3, 61, 0
5, 130800, Note_on_c, 3, 62, 107
5, 130824, Note_on_c, 3, 62, 0
5, 130848, Note_on_c, 3, 59, 104
5, 130872, Note_on_c, 3, 59, 0
5, 130896, Note_on_c, 3, 57, 102
5, 130920, Note_on_c, 3, 57, 0
5, 130944, Note_on_c, 3, 55, 100
5, 130968, Note_on_c, 3, 55, 0
5, 130992, Note_on_c, 3, 54, 99
5, 131016, Note_on_c, 3, 54, 0
5, 131040, Note_on_c, 3, 52, 97
5, 131064, Note_on_c, 3, 52, 0
5, 131088, Note_on_c, 3, 50, 95
5, 131112, Note_on_c, 3, 50, 0
5, 131136, Note_on_c, 3, 48, 93
5, 131160, Note_on_c, 3, 48, 0
5, 131184, Note_on_c, 3, 47, 92
5, 131208, Note_on_c, 3, 47, 0
5, 131232, Note_on_c, 3, 43, 88
5, 131256, Note_on_c, 3, 43, 0
5, 131280, Note_on_c, 3, 45, 90
5, 131304, Note_on_c, 3, 45, 0
5, 131328, Note_on_c, 3, 57, 102
5, 131352, Note_on_c, 3, 57, 0
5, 131376, Note_on_c, 3, 50, 95
5, 131400, Note_on_c, 3, 50, 0
5, 131472, Control_c, 3, 11, 60
5, 131472, Note_on_c, 3, 50, 100
5, 131519, Note_on_c, 3, 52, 100
5, 131520, Note_on_c, 3, 50, 0
5, 131567, Note_on_c, 3, 52, 0
5, 131567, Note_on_c, 3, 54, 100
5, 131615, Note_on_c, 3, 54, 0
5, 131615, Note_on_c, 3, 55, 100
5, 131663, Note_on_c, 3, 55, 0
5, 131663, Control_c, 3, 11, 60
5, 131663, Note_on_c, 3, 57, 100
5, 131692, Control_c, 3, 11, 61
5, 131711, Note_on_c, 3, 57, 0
5, 131711, Note_on_c, 3, 59, 100
5, 131721, Control_c, 3, 11, 62
5, 131750, Control_c, 3, 11, 63
5, 131759, Note_on_c, 3, 59, 0
5, 131759, Note_on_c, 3, 59, 100
5, 131779, Control_c, 3, 11, 64
5, 131807, Note_on_c, 3, 59, 0
5, 131807, Note_on_c, 3, 57, 100
5, 131807, Control_c, 3, 11, 65
5, 131836, Control_c, 3, 11, 66
5, 131855, Note_on_c, 3, 57, 0
5, 131855, Note_on_c, 3, 59, 100
5, 131865, Control_c, 3, 11, 67
5, 131894, Control_c, 3, 11, 68
5, 131903, Note_on_c, 3, 59, 0
5, 131903, Note_on_c, 3, 61, 100
5, 131922, Control_c, 3, 11, 69
5, 131951, Note_on_c, 3, 61, 0
5, 131951, Note_on_c, 3, 62, 100
5, 131951, Control_c, 3, 11, 70
5, 131980, Control_c, 3, 11, 71
5, 131999, Note_on_c, 3, 62, 0
5, 131999, Note_on_c, 3, 61, 100
5, 132009, Control_c, 3, 11, 72
5, 132037, Control_c, 3, 11, 73
5, 132047, Note_on_c, 3, 61, 0
5, 132047, Note_on_c, 3, 62, 100
5, 132066, Control_c, 3, 11, 74
5, 132095, Note_on_c, 3, 62, 0
5, 132095, Note_on_c, 3, 64, 100
5, 132095, Control_c, 3, 11, 75
5, 132124, Control_c, 3, 11, 76
5, 132143, Note_on_c, 3, 64, 0
5, 132143, Note_on_c, 3, 62, 100
5, 132153, Control_c, 3, 11, 77
5, 132181, Control_c, 3, 11, 78
5, 132191, Note_on_c, 3, 62, 0
5, 132191, Note_on_c, 3, 61, 100
5, 132210, Control_c, 3, 11, 79
5, 132239, Note_on_c, 3, 61, 0
5, 132239, Note_on_c, 3, 62, 100
5, 132239, Control_c, 3, 11, 80
5, 132268, Control_c, 3, 11, 81
5, 132287, Note_on_c, 3, 62, 0
5, 132287, Note_on_c, 3, 64, 100
5, 132296, Control_c, 3, 11, 82
5, 132325, Control_c, 3, 11, 83
5, 132335, Note_on_c, 3, 64, 0
5, 132335, Note_on_c, 3, 66, 100
5, 132354, Control_c, 3, 11, 84
5, 132383, Note_on_c, 3, 66, 0
5, 132383, Note_on_c, 3, 64, 100
5, 132383, Control_c, 3, 11, 85
5, 132411, Control_c, 3, 11, 86
5, 132431, Note_on_c, 3, 64, 0
5, 132431, Note_on_c, 3, 66, 100
5, 132440, Control_c, 3, 11, 87
5, 132469, Control_c, 3, 11, 88
5, 132479, Note_on_c, 3, 66, 0
5, 132479, Note_on_c, 3, 67, 100
5, 132498, Control_c, 3, 11, 89
5, 132526, Control_c, 3, 11, 90
5, 132527, Note_on_c, 3, 67, 0
5, 132527, Note_on_c, 3, 69, 100
5, 132623, Note_on_c, 3, 69, 0
5, 132623, Control_c, 3, 11, 90
5, 132623, Note_on_c, 3, 71, 100
5, 132627, Control_c, 3, 11, 89
5, 132631, Control_c, 3, 11, 88
5, 132635, Control_c, 3, 11, 87
5, 132639, Control_c, 3, 11, 86
5, 132643, Control_c, 3, 11, 85
5, 132647, Control_c, 3, 11, 84
5, 132651, Control_c, 3, 11, 83
5, 132655, Control_c, 3, 11, 82
5, 132659, Control_c, 3, 11, 81
5, 132663, Control_c, 3, 11, 80
5, 132667, Control_c, 3, 11, 79
5, 132671, Note_on_c, 3, 71, 0
5, 132671, Note_on_c, 3, 67, 100
5, 132671, Control_c, 3, 11, 78
5, 132675, Control_c, 3, 11, 77
5, 132679, Control_c, 3, 11, 76
5, 132683, Control_c, 3, 11, 75
5, 132687, Control_c, 3, 11, 74
5, 132691, Control_c, 3, 11, 73
5, 132695, Control_c, 3, 11, 72
5, 132699, Control_c, 3, 11, 71
5, 132703, Control_c, 3, 11, 70
5, 132707, Control_c, 3, 11, 69
5, 132711, Control_c, 3, 11, 68
5, 132715, Control_c, 3, 11, 67
5, 132718, Control_c, 3, 11, 66
5, 132719, Note_on_c, 3, 67, 0
5, 132719, Control_c, 3, 11, 60
5, 132719, Note_on_c, 3, 66, 100
5, 132767, Note_on_c, 3, 66, 0
5, 132815, Note_on_c, 3, 64, 100
5, 132863, Note_on_c, 3, 64, 0
5, 132911, Note_on_c, 3, 62, 100
5, 132959, Note_on_c, 3, 62, 0
5, 133007, Note_on_c, 3, 50, 100
5, 133055, Note_on_c, 3, 50, 0
5, 133055, Note_on_c, 3, 52, 100
5, 133103, Note_on_c, 3, 52, 0
5, 133103, Note_on_c, 3, 54, 100
5, 133151, Note_on_c, 3, 54, 0
5, 133151, Note_on_c, 3, 55, 100
5, 133199, Note_on_c, 3, 55, 0
5, 133199, Note_on_c, 3, 57, 100
5, 133247, Note_on_c, 3, 57, 0
5, 133247, Note_on_c, 3, 59, 100
5, 133295, Note_on_c, 3, 59, 0
5, 133295, Note_on_c, 3, 59, 100
5, 133343, Note_on_c, 3, 59, 0
5, 133343, Note_on_c, 3, 57, 100
5, 133391, Note_on_c, 3, 57, 0
5, 133391, Control_c, 3, 11, 60
5, 133391, Note_on_c, 3, 59, 100
5, 133414, Control_c, 3, 11, 61
5, 133436, Control_c, 3, 11, 62
5, 133439, Note_on_c, 3, 59, 0
5, 133439, Note_on_c, 3, 61, 100
5, 133459, Control_c, 3, 11, 63
5, 133481, Control_c, 3, 11, 64
5, 133487, Note_on_c, 3, 61, 0
5, 133487, Note_on_c, 3, 62, 100
5, 133503, Control_c, 3, 11, 65
5, 133526, Control_c, 3, 11, 66
5, 133535, Note_on_c, 3, 62, 0
5, 133535, Note_on_c, 3, 61, 100
5, 133548, Control_c, 3, 11, 67
5, 133570, Control_c, 3, 11, 68
5, 133583, Note_on_c, 3, 61, 0
5, 133583, Note_on_c, 3, 62, 100
5, 133593, Control_c, 3, 11, 69
5, 133615, Control_c, 3, 11, 70
5, 133631, Note_on_c, 3, 62, 0
5, 133631, Note_on_c, 3, 64, 100
5, 133638, Control_c, 3, 11, 71
5, 133660, Control_c, 3, 11, 72
5, 133679, Note_on_c, 3, 64, 0
5, 133679, Note_on_c, 3, 62, 100
5, 133682, Control_c, 3, 11, 73
5, 133705, Control_c, 3, 11, 74
5, 133727, Note_on_c, 3, 62, 0
5, 133727, Note_on_c, 3, 61, 100
5, 133727, Control_c, 3, 11, 75
5, 133749, Control_c, 3, 11, 76
5, 133772, Control_c, 3, 11, 77
5, 133775, Note_on_c, 3, 61, 0
5, 133775, Note_on_c, 3, 62, 100
5, 133794, Control_c, 3, 11, 78
5, 133816, Control_c, 3, 11, 79
5, 133823, Note_on_c, 3, 62, 0
5, 133823, Note_on_c, 3, 64, 100
5, 133839, Control_c, 3, 11, 80
5, 133861, Control_c, 3, 11, 81
5, 133871, Note_on_c, 3, 64, 0
5, 133871, Note_on_c, 3, 66, 100
5, 133884, Control_c, 3, 11, 82
5, 133906, Control_c, 3, 11, 83
5, 133919, Note_on_c, 3, 66, 0
5, 133919, Note_on_c, 3, 64, 100
5, 133928, Control_c, 3, 11, 84
5, 133951, Control_c, 3, 11, 85
5, 133967, Note_on_c, 3, 64, 0
5, 133967, Note_on_c, 3, 66, 100
5, 133973, Control_c, 3, 11, 86
5, 133995, Control_c, 3, 11, 87
5, 134015, Note_on_c, 3, 66, 0
5, 134015, Note_on_c, 3, 67, 100
5, 134018, Control_c, 3, 11, 88
5, 134040, Control_c, 3, 11, 89
5, 134062, Control_c, 3, 11, 90
5, 134063, Note_on_c, 3, 67, 0
5, 134063, Note_on_c, 3, 69, 100
5, 134159, Note_on_c, 3, 69, 0
5, 134159, Control_c, 3, 11, 90
5, 134159, Note_on_c, 3, 71, 100
5, 134163, Control_c, 3, 11, 89
5, 134167, Control_c, 3, 11, 88
5, 134170, Control_c, 3, 11, 87
5, 134174, Control_c, 3, 11, 86
5, 134178, Control_c, 3, 11, 85
5, 134181, Control_c, 3, 11, 84
5, 134185, Control_c, 3, 11, 83
5, 134189, Control_c, 3, 11, 82
5, 134192, Control_c, 3, 11, 81
5, 134196, Control_c, 3, 11, 80
5, 134200, Control_c, 3, 11, 79
5, 134203, Control_c, 3, 11, 78
5, 134207, Note_on_c, 3, 71, 0
5, 134207, Note_on_c, 3, 67, 100
5, 134207, Control_c, 3, 11, 77
5, 134211, Control_c, 3, 11, 76
5, 134214, Control_c, 3, 11, 75
5, 134218, Control_c, 3, 11, 74
5, 134222, Control_c, 3, 11, 73
5, 134225, Control_c, 3, 11, 72
5, 134229, Control_c, 3, 11, 71
5, 134233, Control_c, 3, 11, 70
5, 134236, Control_c, 3, 11, 69
5, 134240, Control_c, 3, 11, 68
5, 134244, Control_c, 3, 11, 67
5, 134247, Control_c, 3, 11, 66
5, 134251, Control_c, 3, 11, 65
5, 134254, Control_c, 3, 11, 64
5, 134255, Note_on_c, 3, 67, 0
5, 134255, Control_c, 3, 11, 60
5, 134255, Note_on_c, 3, 66, 100
5, 134303, Note_on_c, 3, 66, 0
5, 134351, Note_on_c, 3, 64, 100
5, 134399, Note_on_c, 3, 64, 0
5, 135984, Control_c, 3, 11, 120
5, 136080, Note_on_c, 3, 62, 68
5, 136104, Note_on_c, 3, 62, 0
5, 136128, Note_on_c, 3, 61, 67
5, 136152, Note_on_c, 3, 61, 0
5, 136176, Note_on_c, 3, 62, 68
5, 136200, Note_on_c, 3, 62, 0
5, 136224, Note_on_c, 3, 59, 65
5, 136248, Note_on_c, 3, 59, 0
5, 136272, Note_on_c, 3, 57, 63
5, 136296, Note_on_c, 3, 57, 0
5, 136320, Note_on_c, 3, 55, 61
5, 136344, Note_on_c, 3, 55, 0
5, 136368, Note_on_c, 3, 54, 60
5, 136392, Note_on_c, 3, 54, 0
5, 136416, Note_on_c, 3, 52, 58
5, 136440, Note_on_c, 3, 52, 0
5, 136464, Note_on_c, 3, 50, 56
5, 136488, Note_on_c, 3, 50, 0
5, 136512, Note_on_c, 3, 48, 54
5, 136536, Note_on_c, 3, 48, 0
5, 136560, Note_on_c, 3, 47, 53
5, 136584, Note_on_c, 3, 47, 0
5, 136608, Note_on_c, 3, 49, 55
5, 136632, Note_on_c, 3, 49, 0
5, 136656, Note_on_c, 3, 50, 56
5, 136680, Note_on_c, 3, 50, 0
5, 136704, Note_on_c, 3, 54, 60
5, 136728, Note_on_c, 3, 54, 0
5, 136752, Note_on_c, 3, 57, 63
5, 136776, Note_on_c, 3, 57, 0
5, 136800, Note_on_c, 3, 55, 61
5, 136824, Note_on_c, 3, 55, 0
5, 136848, Note_on_c, 3, 54, 60
5, 136872, Note_on_c, 3, 54, 0
5, 137500, Program_c, 3, 70
5, 137502, Control_c, 3, 99, 1
5, 137504, Control_c, 3, 98, 32
5, 137506, Control_c, 3, 6, 51
5, 137508, Control_c, 3, 98, 33
5, 137510, Control_c, 3, 6, 53
5, 137512, Control_c, 3, 7, 96
5, 137514, Control_c, 3, 91, 50
5, 137516, Control_c, 3, 93, 5
5, 137518, Control_c, 3, 10, 72
5, 137520, Control_c, 3, 1, 0
5, 137520, Note_on_c, 3, 57, 60
5, 137521, Control_c, 3, 1, 1
5, 137522, Control_c, 3, 1, 2
5, 137523, Control_c, 3, 1, 3
5, 137526, Control_c, 3, 1, 4
5, 137528, Control_c, 3, 1, 5
5, 137530, Control_c, 3, 1, 6
5, 137532, Control_c, 3, 1, 7
5, 137535, Control_c, 3, 1, 8
5, 137538, Control_c, 3, 1, 9
5, 137541, Control_c, 3, 1, 10
5, 137544, Control_c, 3, 1, 11
5, 137547, Control_c, 3, 1, 12
5, 137552, Control_c, 3, 1, 13
5, 137556, Control_c, 3, 1, 14
5, 137562, Control_c, 3, 1, 15
5, 137568, Control_c, 3, 1, 16
5, 137575, Control_c, 3, 1, 17
5, 137585, Control_c, 3, 1, 18
5, 137599, Control_c, 3, 1, 19
5, 137623, Control_c, 3, 1, 20
5, 138768, Note_on_c, 3, 57, 0
5, 138864, Program_c, 3, 48
5, 138873, Control_c, 3, 7, 123
5, 138882, Control_c, 3, 11, 120
5, 138891, Control_c, 3, 91, 80
5, 138900, Control_c, 3, 93, 20
5, 138909, Control_c, 3, 10, 100
5, 138918, Control_c, 3, 99, 1
5, 138927, Control_c, 3, 98, 32
5, 138936, Control_c, 3, 6, 54
5, 138945, Control_c, 3, 98, 33
5, 138954, Control_c, 3, 6, 48
5, 138963, Control_c, 3, 1, 0
5, 141552, Note_on_c, 3, 50, 100
5, 141576, Note_on_c, 3, 50, 0
5, 141648, Note_on_c, 3, 62, 68
5, 141672, Note_on_c, 3, 62, 0
5, 141696, Note_on_c, 3, 61, 67
5, 141720, Note_on_c, 3, 61, 0
5, 141744, Note_on_c, 3, 62, 68
5, 141768, Note_on_c, 3, 62, 0
5, 141792, Note_on_c, 3, 59, 65
5, 141816, Note_on_c, 3, 59, 0
5, 141840, Note_on_c, 3, 57, 63
5, 141864, Note_on_c, 3, 57, 0
5, 141888, Note_on_c, 3, 55, 61
5, 141912, Note_on_c, 3, 55, 0
5, 141936, Note_on_c, 3, 54, 60
5, 141960, Note_on_c, 3, 54, 0
5, 141984, Note_on_c, 3, 52, 58
5, 142008, Note_on_c, 3, 52, 0
5, 142032, Note_on_c, 3, 50, 56
5, 142056, Note_on_c, 3, 50, 0
5, 142080, Note_on_c, 3, 48, 54
5, 142104, Note_on_c, 3, 48, 0
5, 142128, Note_on_c, 3, 47, 66
5, 142152, Note_on_c, 3, 47, 0
5, 142176, Note_on_c, 3, 49, 66
5, 142200, Note_on_c, 3, 49, 0
5, 142224, Note_on_c, 3, 50, 67
5, 142248, Note_on_c, 3, 50, 0
5, 142272, Note_on_c, 3, 54, 68
5, 142296, Note_on_c, 3, 54, 0
5, 142320, Note_on_c, 3, 57, 69
5, 142344, Note_on_c, 3, 57, 0
5, 142368, Note_on_c, 3, 61, 69
5, 142392, Note_on_c, 3, 61, 0
5, 142416, Note_on_c, 3, 62, 70
5, 142440, Note_on_c, 3, 62, 0
5, 142464, Note_on_c, 3, 61, 71
5, 142488, Note_on_c, 3, 61, 0
5, 142512, Note_on_c, 3, 62, 72
5, 142536, Note_on_c, 3, 62, 0
5, 142560, Note_on_c, 3, 59, 72
5, 142584, Note_on_c, 3, 59, 0
5, 142608, Note_on_c, 3, 57, 73
5, 142632, Note_on_c, 3, 57, 0
5, 142656, Note_on_c, 3, 55, 74
5, 142680, Note_on_c, 3, 55, 0
5, 142704, Note_on_c, 3, 54, 75
5, 142728, Note_on_c, 3, 54, 0
5, 142752, Note_on_c, 3, 52, 75
5, 142776, Note_on_c, 3, 52, 0
5, 142800, Note_on_c, 3, 50, 76
5, 142824, Note_on_c, 3, 50, 0
5, 142848, Note_on_c, 3, 48, 77
5, 142872, Note_on_c, 3, 48, 0
5, 142896, Note_on_c, 3, 47, 78
5, 142920, Note_on_c, 3, 47, 0
5, 142944, Note_on_c, 3, 49, 78
5, 142968, Note_on_c, 3, 49, 0
5, 142992, Note_on_c, 3, 50, 79
5, 143016, Note_on_c, 3, 50, 0
5, 143040, Note_on_c, 3, 54, 80
5, 143064, Note_on_c, 3, 54, 0
5, 143088, Note_on_c, 3, 57, 81
5, 143112, Note_on_c, 3, 57, 0
5, 143136, Note_on_c, 3, 61, 81
5, 143160, Note_on_c, 3, 61, 0
5, 143184, Note_on_c, 3, 62, 82
5, 143208, Note_on_c, 3, 62, 0
5, 143232, Note_on_c, 3, 61, 83
5, 143256, Note_on_c, 3, 61, 0
5, 143280, Note_on_c, 3, 62, 84
5, 143304, Note_on_c, 3, 62, 0
5, 143328, Note_on_c, 3, 59, 84
5, 143352, Note_on_c, 3, 59, 0
5, 143376, Note_on_c, 3, 57, 85
5, 143400, Note_on_c, 3, 57, 0
5, 143424, Note_on_c, 3, 55, 86
5, 143448, Note_on_c, 3, 55, 0
5, 143472, Note_on_c, 3, 54, 87
5, 143496, Note_on_c, 3, 54, 0
5, 143520, Note_on_c, 3, 52, 87
5, 143544, Note_on_c, 3, 52, 0
5, 143568, Note_on_c, 3, 50, 88
5, 143592, Note_on_c, 3, 50, 0
5, 143616, Note_on_c, 3, 48, 89
5, 143640, Note_on_c, 3, 48, 0
5, 143664, Note_on_c, 3, 47, 90
5, 143688, Note_on_c, 3, 47, 0
5, 143712, Note_on_c, 3, 49, 90
5, 143736, Note_on_c, 3, 49, 0
5, 143760, Note_on_c, 3, 50, 91
5, 143784, Note_on_c, 3, 50, 0
5, 143808, Note_on_c, 3, 54, 92
5, 143832, Note_on_c, 3, 54, 0
5, 143856, Note_on_c, 3, 57, 93
5, 143880, Note_on_c, 3, 57, 0
5, 143904, Note_on_c, 3, 61, 93
5, 143928, Note_on_c, 3, 61, 0
5, 143952, Note_on_c, 3, 62, 107
5, 143976, Note_on_c, 3, 62, 0
5, 144000, Note_on_c, 3, 61, 106
5, 144024, Note_on_c, 3, 61, 0
5, 144048, Note_on_c, 3, 62, 107
5, 144072, Note_on_c, 3, 62, 0
5, 144096, Note_on_c, 3, 59, 104
5, 144120, Note_on_c, 3, 59, 0
5, 144144, Note_on_c, 3, 57, 102
5, 144168, Note_on_c, 3, 57, 0
5, 144192, Note_on_c, 3, 55, 100
5, 144216, Note_on_c, 3, 55, 0
5, 144240, Note_on_c, 3, 54, 99
5, 144264, Note_on_c, 3, 54, 0
5, 144288, Note_on_c, 3, 52, 97
5, 144312, Note_on_c, 3, 52, 0
5, 144336, Note_on_c, 3, 50, 95
5, 144360, Note_on_c, 3, 50, 0
5, 144384, Note_on_c, 3, 48, 93
5, 144408, Note_on_c, 3, 48, 0
5, 144432, Note_on_c, 3, 47, 92
5, 144456, Note_on_c, 3, 47, 0
5, 144480, Note_on_c, 3, 43, 88
5, 144504, Note_on_c, 3, 43, 0
5, 144528, Note_on_c, 3, 45, 90
5, 144552, Note_on_c, 3, 45, 0
5, 144576, Note_on_c, 3, 57, 102
5, 144600, Note_on_c, 3, 57, 0
5, 144624, Control_c, 3, 11, 95
5, 144624, Note_on_c, 3, 50, 120
5, 144625, Control_c, 3, 11, 90
5, 144626, Control_c, 3, 11, 87
5, 144627, Control_c, 3, 11, 84
5, 144628, Control_c, 3, 11, 81
5, 144629, Control_c, 3, 11, 79
5, 144630, Control_c, 3, 11, 77
5, 144631, Control_c, 3, 11, 74
5, 144632, Control_c, 3, 11, 73
5, 144633, Control_c, 3, 11, 71
5, 144634, Control_c, 3, 11, 70
5, 144635, Control_c, 3, 11, 69
5, 144636, Control_c, 3, 11, 68
5, 144637, Control_c, 3, 11, 67
5, 144638, Control_c, 3, 11, 66
5, 144639, Control_c, 3, 11, 65
5, 144641, Control_c, 3, 11, 64
5, 144642, Control_c, 3, 11, 63
5, 144645, Control_c, 3, 11, 62
5, 144648, Control_c, 3, 11, 61
5, 144654, Control_c, 3, 11, 60
5, 144908, Note_on_c, 3, 50, 0
5, 144912, Note_on_c, 3, 52, 118
5, 145004, Note_on_c, 3, 52, 0
5, 145008, Note_on_c, 3, 54, 120
5, 145152, Note_on_c, 3, 55, 122
5, 145153, Note_on_c, 3, 54, 0
5, 145176, Note_on_c, 3, 55, 0
5, 145176, Note_on_c, 3, 57, 123
5, 145200, Note_on_c, 3, 57, 0
5, 145200, Note_on_c, 3, 55, 121
5, 145224, Note_on_c, 3, 55, 0
5, 145248, Note_on_c, 3, 55, 120
5, 145272, Note_on_c, 3, 55, 0
5, 145296, Note_on_c, 3, 54, 120
5, 145320, Note_on_c, 3, 54, 0
5, 145344, Note_on_c, 3, 54, 119
5, 145368, Note_on_c, 3, 54, 0
5, 145392, Note_on_c, 3, 52, 118
5, 145484, Note_on_c, 3, 52, 0
5, 145488, Control_c, 3, 11, 60
5, 145488, Note_on_c, 3, 50, 120
5, 145530, Control_c, 3, 11, 61
5, 145571, Control_c, 3, 11, 62
5, 145612, Control_c, 3, 11, 63
5, 145653, Control_c, 3, 11, 64
5, 145678, Note_on_c, 3, 50, 0
5, 145680, Note_on_c, 3, 52, 120
5, 145694, Control_c, 3, 11, 65
5, 145735, Control_c, 3, 11, 66
5, 145772, Note_on_c, 3, 52, 0
5, 145776, Note_on_c, 3, 54, 120
5, 145776, Control_c, 3, 11, 67
5, 145817, Control_c, 3, 11, 68
5, 145859, Control_c, 3, 11, 69
5, 145868, Note_on_c, 3, 54, 0
5, 145872, Note_on_c, 3, 54, 120
5, 145900, Control_c, 3, 11, 70
5, 145941, Control_c, 3, 11, 71
5, 145982, Control_c, 3, 11, 72
5, 146023, Control_c, 3, 11, 73
5, 146062, Note_on_c, 3, 54, 0
5, 146064, Note_on_c, 3, 55, 120
5, 146064, Control_c, 3, 11, 74
5, 146105, Control_c, 3, 11, 75
5, 146146, Control_c, 3, 11, 76
5, 146156, Note_on_c, 3, 55, 0
5, 146160, Note_on_c, 3, 57, 120
5, 146187, Control_c, 3, 11, 77
5, 146229, Control_c, 3, 11, 78
5, 146252, Note_on_c, 3, 57, 0
5, 146256, Note_on_c, 3, 57, 120
5, 146270, Control_c, 3, 11, 79
5, 146311, Control_c, 3, 11, 80
5, 146352, Control_c, 3, 11, 81
5, 146393, Control_c, 3, 11, 82
5, 146434, Control_c, 3, 11, 83
5, 146446, Note_on_c, 3, 57, 0
5, 146448, Note_on_c, 3, 55, 120
5, 146475, Control_c, 3, 11, 84
5, 146516, Control_c, 3, 11, 85
5, 146540, Note_on_c, 3, 55, 0
5, 146544, Note_on_c, 3, 54, 120
5, 146557, Control_c, 3, 11, 86
5, 146599, Control_c, 3, 11, 87
5, 146636, Note_on_c, 3, 54, 0
5, 146640, Note_on_c, 3, 54, 120
5, 146640, Control_c, 3, 11, 88
5, 146681, Control_c, 3, 11, 89
5, 146722, Control_c, 3, 11, 90
5, 146763, Control_c, 3, 11, 91
5, 146804, Control_c, 3, 11, 92
5, 146830, Note_on_c, 3, 54, 0
5, 146832, Note_on_c, 3, 55, 120
5, 146845, Control_c, 3, 11, 93
5, 146886, Control_c, 3, 11, 94
5, 146924, Note_on_c, 3, 55, 0
5, 146927, Control_c, 3, 11, 95
5, 146928, Control_c, 3, 99, 1
5, 146928, Control_c, 3, 98, 102
5, 146928, Control_c, 3, 6, 68
5, 146928, Note_on_c, 3, 54, 120
5, 146998, Note_on_c, 3, 54, 0
5, 147024, Note_on_c, 3, 54, 120
5, 147094, Note_on_c, 3, 54, 0
5, 147120, Note_on_c, 3, 52, 115
5, 147190, Note_on_c, 3, 52, 0
5, 147216, Note_on_c, 3, 52, 115
5, 147286, Note_on_c, 3, 52, 0
5, 147312, Note_on_c, 3, 54, 120
5, 147382, Note_on_c, 3, 54, 0
5, 147408, Note_on_c, 3, 54, 111
5, 147478, Note_on_c, 3, 54, 0
5, 147504, Note_on_c, 3, 52, 101
5, 147574, Note_on_c, 3, 52, 0
5, 147600, Note_on_c, 3, 52, 91
5, 147670, Note_on_c, 3, 52, 0
5, 147696, Control_c, 3, 6, 64
5, 147696, Note_on_c, 3, 54, 60
5, 147788, Note_on_c, 3, 54, 0
5, 147792, Note_on_c, 3, 62, 62
5, 147816, Note_on_c, 3, 62, 0
5, 147840, Note_on_c, 3, 61, 63
5, 147864, Note_on_c, 3, 61, 0
5, 147888, Note_on_c, 3, 62, 64
5, 147912, Note_on_c, 3, 62, 0
5, 147936, Note_on_c, 3, 59, 65
5, 147960, Note_on_c, 3, 59, 0
5, 147984, Note_on_c, 3, 57, 66
5, 148008, Note_on_c, 3, 57, 0
5, 148032, Note_on_c, 3, 55, 67
5, 148056, Note_on_c, 3, 55, 0
5, 148080, Note_on_c, 3, 54, 69
5, 148104, Note_on_c, 3, 54, 0
5, 148128, Note_on_c, 3, 50, 70
5, 148152, Note_on_c, 3, 50, 0
5, 148176, Note_on_c, 3, 66, 71
5, 148200, Note_on_c, 3, 66, 0
5, 148224, Note_on_c, 3, 64, 72
5, 148248, Note_on_c, 3, 64, 0
5, 148272, Note_on_c, 3, 66, 73
5, 148296, Note_on_c, 3, 66, 0
5, 148320, Note_on_c, 3, 62, 74
5, 148344, Note_on_c, 3, 62, 0
5, 148368, Note_on_c, 3, 61, 75
5, 148392, Note_on_c, 3, 61, 0
5, 148416, Note_on_c, 3, 59, 76
5, 148440, Note_on_c, 3, 59, 0
5, 148464, Note_on_c, 3, 57, 78
5, 148488, Note_on_c, 3, 57, 0
5, 148512, Note_on_c, 3, 54, 79
5, 148536, Note_on_c, 3, 54, 0
5, 148560, Note_on_c, 3, 69, 80
5, 148584, Note_on_c, 3, 69, 0
5, 148608, Note_on_c, 3, 68, 81
5, 148632, Note_on_c, 3, 68, 0
5, 148656, Note_on_c, 3, 69, 82
5, 148680, Note_on_c, 3, 69, 0
5, 148704, Note_on_c, 3, 66, 83
5, 148728, Note_on_c, 3, 66, 0
5, 148752, Note_on_c, 3, 64, 84
5, 148776, Note_on_c, 3, 64, 0
5, 148800, Note_on_c, 3, 62, 85
5, 148824, Note_on_c, 3, 62, 0
5, 148848, Note_on_c, 3, 57, 87
5, 148872, Note_on_c, 3, 57, 0
5, 148896, Note_on_c, 3, 62, 88
5, 148920, Note_on_c, 3, 62, 0
5, 148944, Note_on_c, 3, 69, 89
5, 148968, Note_on_c, 3, 69, 0
5, 148992, Note_on_c, 3, 68, 90
5, 149016, Note_on_c, 3, 68, 0
5, 149040, Note_on_c, 3, 69, 91
5, 149064, Note_on_c, 3, 69, 0
5, 149088, Note_on_c, 3, 66, 92
5, 149112, Note_on_c, 3, 66, 0
5, 149136, Note_on_c, 3, 64, 93
5, 149160, Note_on_c, 3, 64, 0
5, 149184, Note_on_c, 3, 62, 94
5, 149208, Note_on_c, 3, 62, 0
5, 149232, Note_on_c, 3, 57, 92
5, 149256, Note_on_c, 3, 57, 0
5, 149280, Note_on_c, 3, 62, 97
5, 149304, Note_on_c, 3, 62, 0
5, 149328, Note_on_c, 3, 64, 99
5, 149352, Note_on_c, 3, 64, 0
5, 149376, Note_on_c, 3, 62, 97
5, 149400, Note_on_c, 3, 62, 0
5, 149424, Note_on_c, 3, 57, 92
5, 149448, Note_on_c, 3, 57, 0
5, 149472, Note_on_c, 3, 64, 99
5, 149496, Note_on_c, 3, 64, 0
5, 149520, Note_on_c, 3, 66, 101
5, 149544, Note_on_c, 3, 66, 0
5, 149568, Note_on_c, 3, 64, 99
5, 149592, Note_on_c, 3, 64, 0
5, 149616, Note_on_c, 3, 57, 95
5, 149640, Note_on_c, 3, 57, 0
5, 149664, Note_on_c, 3, 62, 94
5, 149688, Note_on_c, 3, 62, 0
5, 149712, Note_on_c, 3, 64, 93
5, 149736, Note_on_c, 3, 64, 0
5, 149760, Note_on_c, 3, 62, 92
5, 149784, Note_on_c, 3, 62, 0
5, 149808, Note_on_c, 3, 57, 91
5, 149832, Note_on_c, 3, 57, 0
5, 149856, Note_on_c, 3, 64, 90
5, 149880, Note_on_c, 3, 64, 0
5, 149904, Note_on_c, 3, 66, 89
5, 149928, Note_on_c, 3, 66, 0
5, 149952, Note_on_c, 3, 64, 88
5, 149976, Note_on_c, 3, 64, 0
5, 150000, Note_on_c, 3, 57, 86
5, 150024, Note_on_c, 3, 57, 0
5, 150048, Note_on_c, 3, 62, 85
5, 150072, Note_on_c, 3, 62, 0
5, 150096, Note_on_c, 3, 64, 84
5, 150120, Note_on_c, 3, 64, 0
5, 150144, Note_on_c, 3, 62, 83
5, 150168, Note_on_c, 3, 62, 0
5, 150192, Note_on_c, 3, 57, 82
5, 150216, Note_on_c, 3, 57, 0
5, 150240, Note_on_c, 3, 64, 81
5, 150264, Note_on_c, 3, 64, 0
5, 150288, Note_on_c, 3, 66, 80
5, 150312, Note_on_c, 3, 66, 0
5, 150336, Note_on_c, 3, 64, 79
5, 150360, Note_on_c, 3, 64, 0
5, 150384, Note_on_c, 3, 57, 77
5, 150408, Note_on_c, 3, 57, 0
5, 150432, Note_on_c, 3, 62, 76
5, 150456, Note_on_c, 3, 62, 0
5, 150480, Note_on_c, 3, 64, 75
5, 150504, Note_on_c, 3, 64, 0
5, 150528, Note_on_c, 3, 62, 74
5, 150552, Note_on_c, 3, 62, 0
5, 150576, Note_on_c, 3, 57, 73
5, 150600, Note_on_c, 3, 57, 0
5, 150624, Note_on_c, 3, 64, 72
5, 150648, Note_on_c, 3, 64, 0
5, 150672, Note_on_c, 3, 66, 71
5, 150696, Note_on_c, 3, 66, 0
5, 150720, Note_on_c, 3, 64, 70
5, 150744, Note_on_c, 3, 64, 0
5, 150768, Note_on_c, 3, 57, 70
5, 150792, Note_on_c, 3, 57, 0
5, 150816, Note_on_c, 3, 62, 70
5, 150840, Note_on_c, 3, 62, 0
5, 150864, Note_on_c, 3, 62, 70
5, 150912, Note_on_c, 3, 62, 0
5, 150912, Note_on_c, 3, 61, 70
5, 150960, Note_on_c, 3, 61, 0
5, 150960, Note_on_c, 3, 62, 70
5, 151008, Note_on_c, 3, 62, 0
5, 151008, Note_on_c, 3, 59, 70
5, 151056, Note_on_c, 3, 59, 0
5, 151056, Note_on_c, 3, 57, 69
5, 151104, Note_on_c, 3, 57, 0
5, 151104, Note_on_c, 3, 55, 69
5, 151152, Note_on_c, 3, 55, 0
5, 151152, Note_on_c, 3, 62, 69
5, 151200, Note_on_c, 3, 62, 0
5, 151536, Note_on_c, 3, 57, 67
5, 151560, Note_on_c, 3, 57, 0
5, 151584, Note_on_c, 3, 62, 67
5, 151608, Note_on_c, 3, 62, 0
5, 151632, Note_on_c, 3, 62, 67
5, 151680, Note_on_c, 3, 62, 0
5, 151680, Note_on_c, 3, 61, 67
5, 151728, Note_on_c, 3, 61, 0
5, 151728, Note_on_c, 3, 62, 67
5, 151776, Note_on_c, 3, 62, 0
5, 151776, Note_on_c, 3, 59, 67
5, 151824, Note_on_c, 3, 59, 0
5, 151824, Note_on_c, 3, 57, 66
5, 151872, Note_on_c, 3, 57, 0
5, 151872, Note_on_c, 3, 55, 66
5, 151920, Note_on_c, 3, 55, 0
5, 151920, Note_on_c, 3, 62, 66
5, 151965, Note_on_c, 3, 62, 0
5, 151968, Note_on_c, 3, 50, 66
5, 152280, Note_on_c, 3, 50, 0
5, 152304, Program_c, 3, 48
5, 152304, Control_c, 3, 7, 123
5, 152304, Control_c, 3, 11, 120
5, 152304, Control_c, 3, 99, 1
5, 152304, Control_c, 3, 98, 99
5, 152304, Control_c, 3, 6, 14
5, 152304, Note_on_c, 3, 62, 110
5, 152339, Note_on_c, 3, 62, 0
5, 152376, Note_on_c, 3, 50, 100
5, 152388, Note_on_c, 3, 50, 0
5, 152400, Note_on_c, 3, 50, 100
5, 152424, Note_on_c, 3, 50, 0
5, 152592, Note_on_c, 3, 57, 110
5, 152627, Note_on_c, 3, 57, 0
5, 152664, Note_on_c, 3, 45, 100
5, 152676, Note_on_c, 3, 45, 0
5, 152688, Note_on_c, 3, 45, 100
5, 152712, Note_on_c, 3, 45, 0
5, 153024, Note_on_c, 3, 50, 110
5, 153059, Note_on_c, 3, 50, 0
5, 153096, Note_on_c, 3, 38, 100
5, 153108, Note_on_c, 3, 38, 0
5, 153120, Note_on_c, 3, 38, 100
5, 153144, Note_on_c, 3, 38, 0
5, 154608, Note_on_c, 3, 69, 60
5, 154643, Note_on_c, 3, 69, 0
5, 154680, Note_on_c, 3, 57, 50
5, 154692, Note_on_c, 3, 57, 0
5, 154704, Note_on_c, 3, 57, 50
5, 154728, Note_on_c, 3, 57, 0
5, 154752, Note_on_c, 3, 50, 55
5, 154776, Note_on_c, 3, 50, 0
5, 154800, Note_on_c, 3, 52, 50
5, 154824, Note_on_c, 3, 52, 0
5, 154848, Note_on_c, 3, 53, 50
5, 154872, Note_on_c, 3, 53, 0
5, 154896, Note_on_c, 3, 52, 55
5, 154920, Note_on_c, 3, 52, 0
5, 154944, Note_on_c, 3, 53, 50
5, 154968, Note_on_c, 3, 53, 0
5, 154992, Note_on_c, 3, 55, 50
5, 155016, Note_on_c, 3, 55, 0
5, 155040, Note_on_c, 3, 53, 55
5, 155064, Note_on_c, 3, 53, 0
5, 155088, Note_on_c, 3, 52, 50
5, 155112, Note_on_c, 3, 52, 0
5, 155136, Note_on_c, 3, 50, 50
5, 155160, Note_on_c, 3, 50, 0
5, 155184, Note_on_c, 3, 65, 55
5, 155208, Note_on_c, 3, 65, 0
5, 155232, Note_on_c, 3, 64, 50
5, 155256, Note_on_c, 3, 64, 0
5, 155280, Note_on_c, 3, 62, 50
5, 155304, Note_on_c, 3, 62, 0
5, 155328, Note_on_c, 3, 60, 55
5, 155352, Note_on_c, 3, 60, 0
5, 155376, Note_on_c, 3, 59, 50
5, 155400, Note_on_c, 3, 59, 0
5, 155424, Note_on_c, 3, 57, 50
5, 155448, Note_on_c, 3, 57, 0
5, 155472, Note_on_c, 3, 56, 55
5, 155496, Note_on_c, 3, 56, 0
5, 155520, Note_on_c, 3, 57, 50
5, 155544, Note_on_c, 3, 57, 0
5, 155568, Note_on_c, 3, 59, 50
5, 155592, Note_on_c, 3, 59, 0
5, 155616, Note_on_c, 3, 57, 55
5, 155640, Note_on_c, 3, 57, 0
5, 155664, Note_on_c, 3, 56, 50
5, 155688, Note_on_c, 3, 56, 0
5, 155712, Note_on_c, 3, 57, 50
5, 155736, Note_on_c, 3, 57, 0
5, 155760, Note_on_c, 3, 55, 55
5, 155784, Note_on_c, 3, 55, 0
5, 155808, Note_on_c, 3, 53, 50
5, 155832, Note_on_c, 3, 53, 0
5, 155856, Note_on_c, 3, 52, 50
5, 155880, Note_on_c, 3, 52, 0
5, 155904, Note_on_c, 3, 50, 55
5, 155928, Note_on_c, 3, 50, 0
5, 155952, Note_on_c, 3, 57, 50
5, 155976, Note_on_c, 3, 57, 0
5, 156000, Note_on_c, 3, 57, 50
5, 156024, Note_on_c, 3, 57, 0
5, 156048, Note_on_c, 3, 57, 55
5, 156072, Note_on_c, 3, 57, 0
5, 156096, Note_on_c, 3, 57, 50
5, 156120, Note_on_c, 3, 57, 0
5, 156144, Note_on_c, 3, 57, 50
5, 156168, Note_on_c, 3, 57, 0
5, 156192, Note_on_c, 3, 57, 55
5, 156216, Note_on_c, 3, 57, 0
5, 156240, Note_on_c, 3, 69, 50
5, 156264, Note_on_c, 3, 69, 0
5, 156288, Note_on_c, 3, 69, 50
5, 156312, Note_on_c, 3, 69, 0
5, 156336, Note_on_c, 3, 69, 55
5, 156360, Note_on_c, 3, 69, 0
5, 156384, Note_on_c, 3, 69, 50
5, 156408, Note_on_c, 3, 69, 0
5, 156432, Note_on_c, 3, 69, 50
5, 156456, Note_on_c, 3, 69, 0
5, 156480, Note_on_c, 3, 69, 55
5, 156504, Note_on_c, 3, 69, 0
5, 156528, Note_on_c, 3, 64, 50
5, 156552, Note_on_c, 3, 64, 0
5, 156576, Note_on_c, 3, 64, 50
5, 156600, Note_on_c, 3, 64, 0
5, 156624, Note_on_c, 3, 62, 55
5, 156648, Note_on_c, 3, 62, 0
5, 156672, Note_on_c, 3, 60, 50
5, 156696, Note_on_c, 3, 60, 0
5, 156720, Note_on_c, 3, 59, 50
5, 156744, Note_on_c, 3, 59, 0
5, 156768, Note_on_c, 3, 60, 55
5, 156792, Note_on_c, 3, 60, 0
5, 156816, Note_on_c, 3, 62, 50
5, 156840, Note_on_c, 3, 62, 0
5, 156864, Note_on_c, 3, 60, 50
5, 156888, Note_on_c, 3, 60, 0
5, 156912, Note_on_c, 3, 58, 55
5, 156936, Note_on_c, 3, 58, 0
5, 156960, Note_on_c, 3, 57, 50
5, 156984, Note_on_c, 3, 57, 0
5, 157008, Note_on_c, 3, 55, 50
5, 157032, Note_on_c, 3, 55, 0
5, 157056, Note_on_c, 3, 53, 55
5, 157080, Note_on_c, 3, 53, 0
5, 157104, Note_on_c, 3, 52, 50
5, 157128, Note_on_c, 3, 52, 0
5, 157152, Note_on_c, 3, 50, 50
5, 157176, Note_on_c, 3, 50, 0
5, 157200, Note_on_c, 3, 49, 55
5, 157224, Note_on_c, 3, 49, 0
5, 157248, Note_on_c, 3, 50, 50
5, 157272, Note_on_c, 3, 50, 0
5, 157296, Note_on_c, 3, 52, 50
5, 157320, Note_on_c, 3, 52, 0
5, 157344, Note_on_c, 3, 50, 55
5, 157368, Note_on_c, 3, 50, 0
5, 157392, Note_on_c, 3, 49, 50
5, 157416, Note_on_c, 3, 49, 0
5, 157440, Note_on_c, 3, 50, 50
5, 157464, Note_on_c, 3, 50, 0
5, 157488, Note_on_c, 3, 47, 55
5, 157512, Note_on_c, 3, 47, 0
5, 157536, Note_on_c, 3, 48, 50
5, 157560, Note_on_c, 3, 48, 0
5, 157584, Note_on_c, 3, 53, 50
5, 157608, Note_on_c, 3, 53, 0
5, 157632, Note_on_c, 3, 52, 55
5, 157656, Note_on_c, 3, 52, 0
5, 157680, Note_on_c, 3, 53, 50
5, 157704, Note_on_c, 3, 53, 0
5, 157728, Note_on_c, 3, 52, 50
5, 157752, Note_on_c, 3, 52, 0
5, 157776, Note_on_c, 3, 50, 55
5, 157800, Note_on_c, 3, 50, 0
5, 157824, Note_on_c, 3, 52, 50
5, 157848, Note_on_c, 3, 52, 0
5, 157872, Note_on_c, 3, 53, 50
5, 157896, Note_on_c, 3, 53, 0
5, 157920, Note_on_c, 3, 52, 55
5, 157944, Note_on_c, 3, 52, 0
5, 157968, Note_on_c, 3, 53, 50
5, 157992, Note_on_c, 3, 53, 0
5, 158016, Note_on_c, 3, 52, 50
5, 158040, Note_on_c, 3, 52, 0
5, 158064, Note_on_c, 3, 55, 55
5, 158088, Note_on_c, 3, 55, 0
5, 158112, Note_on_c, 3, 53, 50
5, 158136, Note_on_c, 3, 53, 0
5, 158160, Note_on_c, 3, 52, 50
5, 158184, Note_on_c, 3, 52, 0
5, 158208, Note_on_c, 3, 50, 55
5, 158232, Note_on_c, 3, 50, 0
5, 158256, Note_on_c, 3, 52, 50
5, 158280, Note_on_c, 3, 52, 0
5, 158304, Note_on_c, 3, 53, 50
5, 158328, Note_on_c, 3, 53, 0
5, 158352, Note_on_c, 3, 52, 55
5, 158376, Note_on_c, 3, 52, 0
5, 158400, Note_on_c, 3, 53, 50
5, 158424, Note_on_c, 3, 53, 0
5, 158448, Note_on_c, 3, 55, 50
5, 158472, Note_on_c, 3, 55, 0
5, 158496, Note_on_c, 3, 57, 55
5, 158520, Note_on_c, 3, 57, 0
5, 158544, Note_on_c, 3, 55, 50
5, 158568, Note_on_c, 3, 55, 0
5, 158592, Note_on_c, 3, 53, 50
5, 158616, Note_on_c, 3, 53, 0
5, 158640, Note_on_c, 3, 55, 55
5, 158664, Note_on_c, 3, 55, 0
5, 158688, Note_on_c, 3, 53, 51
5, 158712, Note_on_c, 3, 53, 0
5, 158736, Note_on_c, 3, 52, 53
5, 158760, Note_on_c, 3, 52, 0
5, 158784, Note_on_c, 3, 53, 60
5, 158808, Note_on_c, 3, 53, 0
5, 158832, Note_on_c, 3, 55, 56
5, 158856, Note_on_c, 3, 55, 0
5, 158880, Note_on_c, 3, 53, 58
5, 158904, Note_on_c, 3, 53, 0
5, 158928, Note_on_c, 3, 55, 65
5, 158952, Note_on_c, 3, 55, 0
5, 158976, Note_on_c, 3, 53, 61
5, 159000, Note_on_c, 3, 53, 0
5, 159024, Note_on_c, 3, 52, 63
5, 159048, Note_on_c, 3, 52, 0
5, 159072, Note_on_c, 3, 53, 70
5, 159096, Note_on_c, 3, 53, 0
5, 159120, Note_on_c, 3, 55, 66
5, 159144, Note_on_c, 3, 55, 0
5, 159168, Note_on_c, 3, 53, 68
5, 159192, Note_on_c, 3, 53, 0
5, 159216, Note_on_c, 3, 55, 75
5, 159240, Note_on_c, 3, 55, 0
5, 159264, Note_on_c, 3, 53, 71
5, 159288, Note_on_c, 3, 53, 0
5, 159312, Note_on_c, 3, 52, 73
5, 159336, Note_on_c, 3, 52, 0
5, 159360, Note_on_c, 3, 53, 80
5, 159384, Note_on_c, 3, 53, 0
5, 159408, Note_on_c, 3, 55, 77
5, 159432, Note_on_c, 3, 55, 0
5, 159456, Note_on_c, 3, 53, 78
5, 159480, Note_on_c, 3, 53, 0
5, 159504, Note_on_c, 3, 52, 85
5, 159528, Note_on_c, 3, 52, 0
5, 159552, Note_on_c, 3, 50, 82
5, 159576, Note_on_c, 3, 50, 0
5, 159600, Note_on_c, 3, 49, 83
5, 159624, Note_on_c, 3, 49, 0
5, 159648, Note_on_c, 3, 50, 90
5, 159672, Note_on_c, 3, 50, 0
5, 159696, Note_on_c, 3, 52, 87
5, 159720, Note_on_c, 3, 52, 0
5, 159744, Note_on_c, 3, 50, 88
5, 159768, Note_on_c, 3, 50, 0
5, 159792, Note_on_c, 3, 52, 95
5, 159816, Note_on_c, 3, 52, 0
5, 159840, Note_on_c, 3, 50, 92
5, 159864, Note_on_c, 3, 50, 0
5, 159888, Note_on_c, 3, 49, 93
5, 159912, Note_on_c, 3, 49, 0
5, 159936, Note_on_c, 3, 50, 100
5, 159960, Note_on_c, 3, 50, 0
5, 159984, Note_on_c, 3, 52, 97
5, 160008, Note_on_c, 3, 52, 0
5, 160032, Note_on_c, 3, 50, 98
5, 160056, Note_on_c, 3, 50, 0
5, 160080, Note_on_c, 3, 52, 105
5, 160104, Note_on_c, 3, 52, 0
5, 160128, Note_on_c, 3, 50, 102
5, 160152, Note_on_c, 3, 50, 0
5, 160176, Note_on_c, 3, 49, 104
5, 160200, Note_on_c, 3, 49, 0
5, 160224, Note_on_c, 3, 61, 110
5, 160248, Note_on_c, 3, 61, 0
5, 160272, Note_on_c, 3, 62, 107
5, 160296, Note_on_c, 3, 62, 0
5, 160320, Note_on_c, 3, 64, 109
5, 160344, Note_on_c, 3, 64, 0
5, 160368, Note_on_c, 3, 50, 110
5, 160392, Note_on_c, 3, 50, 0
5, 160512, Note_on_c, 3, 62, 110
5, 160536, Note_on_c, 3, 62, 0
5, 160656, Note_on_c, 3, 57, 110
5, 160680, Note_on_c, 3, 57, 0
5, 160800, Note_on_c, 3, 50, 110
5, 160824, Note_on_c, 3, 50, 0
5, 160944, Note_on_c, 3, 55, 110
5, 160968, Note_on_c, 3, 55, 0
5, 161088, Note_on_c, 3, 57, 110
5, 161112, Note_on_c, 3, 57, 0
5, 161232, Note_on_c, 3, 45, 110
5, 161256, Note_on_c, 3, 45, 0
5, 161376, Note_on_c, 3, 50, 110
5, 161400, Note_on_c, 3, 50, 0
5, 161520, Note_on_c, 3, 55, 110
5, 161544, Note_on_c, 3, 55, 0
5, 161664, Note_on_c, 3, 57, 110
5, 161688, Note_on_c, 3, 57, 0
5, 161808, Note_on_c, 3, 45, 110
5, 161832, Note_on_c, 3, 45, 0
5, 161952, Note_on_c, 3, 50, 110
5, 161976, Note_on_c, 3, 50, 0
5, 162048, Note_on_c, 3, 43, 110
5, 162072, Note_on_c, 3, 43, 0
5, 162096, Note_on_c, 3, 43, 110
5, 162120, Note_on_c, 3, 43, 0
5, 162240, Note_on_c, 3, 48, 110
5, 162264, Note_on_c, 3, 48, 0
5, 162384, Note_on_c, 3, 55, 110
5, 162408, Note_on_c, 3, 55, 0
5, 162528, Note_on_c, 3, 60, 110
5, 162552, Note_on_c, 3, 60, 0
5, 162576, Note_on_c, 3, 55, 110
5, 162600, Note_on_c, 3, 55, 0
5, 162624, Note_on_c, 3, 55, 110
5, 162648, Note_on_c, 3, 55, 0
5, 162672, Note_on_c, 3, 43, 110
5, 162696, Note_on_c, 3, 43, 0
5, 162816, Note_on_c, 3, 48, 110
5, 162840, Note_on_c, 3, 48, 0
5, 162960, Note_on_c, 3, 60, 110
5, 162984, Note_on_c, 3, 60, 0
5, 163104, Note_on_c, 3, 60, 110
5, 163128, Note_on_c, 3, 60, 0
5, 163248, Note_on_c, 3, 55, 110
5, 163272, Note_on_c, 3, 55, 0
5, 164544, Program_c, 3, 45
5, 164544, Control_c, 3, 7, 105
5, 164544, Note_on_c, 3, 60, 63
5, 164589, Note_on_c, 3, 60, 0
5, 164688, Note_on_c, 3, 53, 70
5, 164733, Note_on_c, 3, 53, 0
5, 164832, Note_on_c, 3, 50, 78
5, 164877, Note_on_c, 3, 50, 0
5, 164976, Note_on_c, 3, 55, 86
5, 165021, Note_on_c, 3, 55, 0
5, 165120, Note_on_c, 3, 60, 94
5, 165165, Note_on_c, 3, 60, 0
5, 165264, Note_on_c, 3, 55, 102
5, 165309, Note_on_c, 3, 55, 0
5, 165408, Note_on_c, 3, 43, 110
5, 165453, Note_on_c, 3, 43, 0
5, 165552, Program_c, 3, 48
5, 165552, Control_c, 3, 7, 123
5, 165552, Note_on_c, 3, 48, 120
5, 165587, Note_on_c, 3, 48, 0
5, 165624, Note_on_c, 3, 36, 113
5, 165636, Note_on_c, 3, 36, 0
5, 165648, Note_on_c, 3, 36, 113
5, 165672, Note_on_c, 3, 36, 0
5, 165696, Note_on_c, 3, 48, 120
5, 165731, Note_on_c, 3, 48, 0
5, 165768, Note_on_c, 3, 36, 113
5, 165780, Note_on_c, 3, 36, 0
5, 165792, Note_on_c, 3, 36, 113
5, 165816, Note_on_c, 3, 36, 0
5, 165840, Note_on_c, 3, 48, 120
5, 165875, Note_on_c, 3, 48, 0
5, 165912, Note_on_c, 3, 36, 113
5, 165924, Note_on_c, 3, 36, 0
5, 165936, Note_on_c, 3, 36, 113
5, 165960, Note_on_c, 3, 36, 0
5, 165984, Note_on_c, 3, 48, 120
5, 166019, Note_on_c, 3, 48, 0
5, 166056, Note_on_c, 3, 36, 113
5, 166068, Note_on_c, 3, 36, 0
5, 166080, Note_on_c, 3, 36, 113
5, 166104, Note_on_c, 3, 36, 0
5, 166128, Note_on_c, 3, 48, 120
5, 166163, Note_on_c, 3, 48, 0
5, 166200, Note_on_c, 3, 36, 113
5, 166212, Note_on_c, 3, 36, 0
5, 166224, Note_on_c, 3, 36, 113
5, 166248, Note_on_c, 3, 36, 0
5, 166272, Note_on_c, 3, 48, 120
5, 166307, Note_on_c, 3, 48, 0
5, 166344, Note_on_c, 3, 36, 113
5, 166356, Note_on_c, 3, 36, 0
5, 166368, Note_on_c, 3, 36, 113
5, 166392, Note_on_c, 3, 36, 0
5, 166416, Note_on_c, 3, 48, 120
5, 166451, Note_on_c, 3, 48, 0
5, 166488, Note_on_c, 3, 36, 113
5, 166500, Note_on_c, 3, 36, 0
5, 166512, Note_on_c, 3, 36, 113
5, 166536, Note_on_c, 3, 36, 0
5, 166560, Note_on_c, 3, 48, 120
5, 166595, Note_on_c, 3, 48, 0
5, 166632, Note_on_c, 3, 36, 113
5, 166644, Note_on_c, 3, 36, 0
5, 166656, Note_on_c, 3, 36, 113
5, 166680, Note_on_c, 3, 36, 0
5, 166704, Note_on_c, 3, 48, 120
5, 166739, Note_on_c, 3, 48, 0
5, 166776, Note_on_c, 3, 36, 113
5, 166788, Note_on_c, 3, 36, 0
5, 166800, Note_on_c, 3, 36, 113
5, 166824, Note_on_c, 3, 36, 0
5, 166848, Note_on_c, 3, 48, 120
5, 166883, Note_on_c, 3, 48, 0
5, 166920, Note_on_c, 3, 36, 113
5, 166932, Note_on_c, 3, 36, 0
5, 166944, Note_on_c, 3, 36, 113
5, 166968, Note_on_c, 3, 36, 0
5, 166992, Note_on_c, 3, 48, 120
5, 167027, Note_on_c, 3, 48, 0
5, 167064, Note_on_c, 3, 36, 113
5, 167076, Note_on_c, 3, 36, 0
5, 167088, Note_on_c, 3, 36, 113
5, 167112, Note_on_c, 3, 36, 0
5, 167136, Note_on_c, 3, 48, 120
5, 167171, Note_on_c, 3, 48, 0
5, 167208, Note_on_c, 3, 36, 113
5, 167220, Note_on_c, 3, 36, 0
5, 167232, Note_on_c, 3, 36, 113
5, 167256, Note_on_c, 3, 36, 0
5, 167280, Note_on_c, 3, 48, 120
5, 167315, Note_on_c, 3, 48, 0
5, 167352, Note_on_c, 3, 36, 113
5, 167364, Note_on_c, 3, 36, 0
5, 167376, Note_on_c, 3, 36, 113
5, 167400, Note_on_c, 3, 36, 0
5, 167424, Note_on_c, 3, 48, 120
5, 167459, Note_on_c, 3, 48, 0
5, 167496, Note_on_c, 3, 36, 113
5, 167508, Note_on_c, 3, 36, 0
5, 167520, Note_on_c, 3, 36, 113
5, 167544, Note_on_c, 3, 36, 0
5, 167568, Note_on_c, 3, 48, 120
5, 167603, Note_on_c, 3, 48, 0
5, 167640, Note_on_c, 3, 36, 113
5, 167652, Note_on_c, 3, 36, 0
5, 167664, Note_on_c, 3, 36, 113
5, 167688, Note_on_c, 3, 36, 0
5, 167712, Note_on_c, 3, 48, 120
5, 167747, Note_on_c, 3, 48, 0
5, 167784, Note_on_c, 3, 36, 113
5, 167796, Note_on_c, 3, 36, 0
5, 167808, Note_on_c, 3, 36, 113
5, 167832, Note_on_c, 3, 36, 0
5, 167856, Note_on_c, 3, 48, 113
5, 167880, Note_on_c, 3, 48, 0
5, 168144, Note_on_c, 3, 53, 120
5, 168179, Note_on_c, 3, 53, 0
5, 168216, Note_on_c, 3, 41, 113
5, 168228, Note_on_c, 3, 41, 0
5, 168240, Note_on_c, 3, 41, 113
5, 168264, Note_on_c, 3, 41, 0
5, 168288, Note_on_c, 3, 53, 117
5, 168312, Note_on_c, 3, 53, 0
5, 168336, Note_on_c, 3, 50, 113
5, 168360, Note_on_c, 3, 50, 0
5, 168384, Note_on_c, 3, 48, 113
5, 168408, Note_on_c, 3, 48, 0
5, 168432, Note_on_c, 3, 47, 113
5, 168456, Note_on_c, 3, 47, 0
5, 168720, Note_on_c, 3, 64, 120
5, 168755, Note_on_c, 3, 64, 0
5, 168792, Note_on_c, 3, 52, 113
5, 168804, Note_on_c, 3, 52, 0
5, 168816, Note_on_c, 3, 52, 113
5, 168840, Note_on_c, 3, 52, 0
5, 168864, Note_on_c, 3, 64, 117
5, 168888, Note_on_c, 3, 64, 0
5, 168912, Note_on_c, 3, 60, 113
5, 168936, Note_on_c, 3, 60, 0
5, 168960, Note_on_c, 3, 59, 113
5, 168984, Note_on_c, 3, 59, 0
5, 169008, Control_c, 3, 11, 60
5, 169008, Note_on_c, 3, 58, 113
5, 169296, Control_c, 3, 11, 60
5, 169311, Control_c, 3, 11, 61
5, 169325, Control_c, 3, 11, 62
5, 169340, Control_c, 3, 11, 63
5, 169354, Control_c, 3, 11, 64
5, 169368, Control_c, 3, 11, 65
5, 169383, Control_c, 3, 11, 66
5, 169397, Control_c, 3, 11, 67
5, 169411, Control_c, 3, 11, 68
5, 169426, Control_c, 3, 11, 69
5, 169440, Control_c, 3, 11, 70
5, 169454, Control_c, 3, 11, 71
5, 169469, Control_c, 3, 11, 72
5, 169483, Control_c, 3, 11, 73
5, 169488, Note_on_c, 3, 58, 0
5, 169488, Note_on_c, 3, 57, 113
5, 169497, Control_c, 3, 11, 74
5, 169512, Control_c, 3, 11, 75
5, 169526, Control_c, 3, 11, 76
5, 169536, Note_on_c, 3, 57, 0
5, 169536, Note_on_c, 3, 55, 113
5, 169540, Control_c, 3, 11, 77
5, 169555, Control_c, 3, 11, 78
5, 169569, Control_c, 3, 11, 79
5, 169583, Control_c, 3, 11, 80
5, 169584, Note_on_c, 3, 55, 0
5, 169584, Note_on_c, 3, 57, 113
5, 169599, Control_c, 3, 11, 79
5, 169613, Control_c, 3, 11, 78
5, 169628, Control_c, 3, 11, 77
5, 169632, Note_on_c, 3, 57, 0
5, 169632, Note_on_c, 3, 55, 113
5, 169642, Control_c, 3, 11, 76
5, 169656, Control_c, 3, 11, 75
5, 169671, Control_c, 3, 11, 74
5, 169680, Note_on_c, 3, 55, 0
5, 169680, Note_on_c, 3, 54, 113
5, 169685, Control_c, 3, 11, 73
5, 169699, Control_c, 3, 11, 72
5, 169714, Control_c, 3, 11, 71
5, 169728, Note_on_c, 3, 54, 0
5, 169728, Note_on_c, 3, 55, 113
5, 169728, Control_c, 3, 11, 70
5, 169742, Control_c, 3, 11, 69
5, 169757, Control_c, 3, 11, 68
5, 169771, Control_c, 3, 11, 67
5, 169785, Control_c, 3, 11, 66
5, 169800, Control_c, 3, 11, 65
5, 169814, Control_c, 3, 11, 64
5, 169828, Control_c, 3, 11, 63
5, 169843, Control_c, 3, 11, 62
5, 169857, Control_c, 3, 11, 61
5, 169871, Control_c, 3, 11, 60
5, 169872, Note_on_c, 3, 55, 0
5, 170736, Control_c, 3, 11, 120
5, 170736, Note_on_c, 3, 55, 105
5, 170760, Note_on_c, 3, 55, 0
5, 170784, Note_on_c, 3, 60, 100
5, 170808, Note_on_c, 3, 60, 0
5, 170832, Note_on_c, 3, 57, 100
5, 170856, Note_on_c, 3, 57, 0
5, 170880, Note_on_c, 3, 53, 105
5, 170904, Note_on_c, 3, 53, 0
5, 170928, Note_on_c, 3, 55, 100
5, 170952, Note_on_c, 3, 55, 0
5, 170976, Note_on_c, 3, 43, 100
5, 171000, Note_on_c, 3, 43, 0
5, 171024, Note_on_c, 3, 48, 105
5, 171048, Note_on_c, 3, 48, 0
5, 171312, Note_on_c, 3, 55, 105
5, 171336, Note_on_c, 3, 55, 0
5, 171360, Note_on_c, 3, 52, 100
5, 171384, Note_on_c, 3, 52, 0
5, 171408, Note_on_c, 3, 57, 100
5, 171432, Note_on_c, 3, 57, 0
5, 171456, Note_on_c, 3, 53, 105
5, 171480, Note_on_c, 3, 53, 0
5, 171504, Note_on_c, 3, 50, 100
5, 171528, Note_on_c, 3, 50, 0
5, 171552, Note_on_c, 3, 55, 100
5, 171576, Note_on_c, 3, 55, 0
5, 171600, Note_on_c, 3, 48, 100
5, 171624, Note_on_c, 3, 48, 0
5, 171744, Note_on_c, 3, 67, 110
5, 171779, Note_on_c, 3, 67, 0
5, 171816, Note_on_c, 3, 55, 100
5, 171828, Note_on_c, 3, 55, 0
5, 171840, Note_on_c, 3, 55, 100
5, 171864, Note_on_c, 3, 55, 0
5, 171888, Note_on_c, 3, 48, 100
5, 171912, Note_on_c, 3, 48, 0
5, 172032, Note_on_c, 3, 67, 110
5, 172067, Note_on_c, 3, 67, 0
5, 172104, Note_on_c, 3, 55, 100
5, 172116, Note_on_c, 3, 55, 0
5, 172128, Note_on_c, 3, 55, 100
5, 172152, Note_on_c, 3, 55, 0
5, 172176, Control_c, 3, 6, 64
5, 172176, Note_on_c, 3, 57, 57
5, 172224, Note_on_c, 3, 57, 0
5, 172224, Note_on_c, 3, 55, 56
5, 172272, Note_on_c, 3, 55, 0
5, 172272, Note_on_c, 3, 53, 54
5, 172320, Note_on_c, 3, 53, 0
5, 172320, Note_on_c, 3, 52, 53
5, 172368, Note_on_c, 3, 52, 0
5, 172368, Note_on_c, 3, 50, 51
5, 172416, Note_on_c, 3, 50, 0
5, 172416, Note_on_c, 3, 48, 50
5, 172464, Note_on_c, 3, 48, 0
5, 172464, Note_on_c, 3, 47, 47
5, 172512, Note_on_c, 3, 47, 0
5, 172512, Note_on_c, 3, 48, 48
5, 172560, Note_on_c, 3, 48, 0
5, 172560, Note_on_c, 3, 47, 47
5, 172584, Note_on_c, 3, 47, 0
5, 172584, Note_on_c, 3, 59, 59
5, 172608, Note_on_c, 3, 59, 0
5, 172608, Note_on_c, 3, 57, 57
5, 172656, Note_on_c, 3, 57, 0
5, 172656, Note_on_c, 3, 55, 55
5, 172704, Note_on_c, 3, 55, 0
5, 172704, Note_on_c, 3, 53, 53
5, 172752, Note_on_c, 3, 53, 0
5, 172752, Control_c, 3, 6, 14
5, 172752, Note_on_c, 3, 36, 60
5, 172787, Note_on_c, 3, 36, 0
5, 172824, Note_on_c, 3, 48, 50
5, 172836, Note_on_c, 3, 48, 0
5, 172848, Note_on_c, 3, 48, 50
5, 172872, Note_on_c, 3, 48, 0
5, 172896, Note_on_c, 3, 45, 55
5, 172920, Note_on_c, 3, 45, 0
5, 173040, Note_on_c, 3, 41, 60
5, 173075, Note_on_c, 3, 41, 0
5, 173112, Note_on_c, 3, 53, 50
5, 173124, Note_on_c, 3, 53, 0
5, 173136, Note_on_c, 3, 53, 50
5, 173160, Note_on_c, 3, 53, 0
5, 173184, Note_on_c, 3, 50, 55
5, 173208, Note_on_c, 3, 50, 0
5, 173904, Note_on_c, 3, 38, 60
5, 173939, Note_on_c, 3, 38, 0
5, 173976, Note_on_c, 3, 50, 50
5, 173988, Note_on_c, 3, 50, 0
5, 174000, Note_on_c, 3, 50, 50
5, 174024, Note_on_c, 3, 50, 0
5, 174048, Note_on_c, 3, 46, 55
5, 174072, Note_on_c, 3, 46, 0
5, 174192, Note_on_c, 3, 43, 60
5, 174227, Note_on_c, 3, 43, 0
5, 174264, Note_on_c, 3, 55, 50
5, 174276, Note_on_c, 3, 55, 0
5, 174288, Note_on_c, 3, 55, 50
5, 174312, Note_on_c, 3, 55, 0
5, 174336, Note_on_c, 3, 51, 55
5, 174360, Note_on_c, 3, 51, 0
5, 175056, Note_on_c, 3, 51, 70
5, 175091, Note_on_c, 3, 51, 0
5, 175128, Note_on_c, 3, 63, 61
5, 175140, Note_on_c, 3, 63, 0
5, 175152, Note_on_c, 3, 63, 61
5, 175176, Note_on_c, 3, 63, 0
5, 175200, Note_on_c, 3, 60, 62
5, 175224, Note_on_c, 3, 60, 0
5, 175344, Note_on_c, 3, 44, 75
5, 175379, Note_on_c, 3, 44, 0
5, 175416, Note_on_c, 3, 56, 67
5, 175428, Note_on_c, 3, 56, 0
5, 175440, Note_on_c, 3, 56, 67
5, 175464, Note_on_c, 3, 56, 0
5, 175488, Note_on_c, 3, 53, 68
5, 175512, Note_on_c, 3, 53, 0
5, 175632, Note_on_c, 3, 49, 80
5, 175667, Note_on_c, 3, 49, 0
5, 175704, Note_on_c, 3, 61, 72
5, 175716, Note_on_c, 3, 61, 0
5, 175728, Note_on_c, 3, 61, 73
5, 175752, Note_on_c, 3, 61, 0
5, 175776, Note_on_c, 3, 58, 74
5, 175800, Note_on_c, 3, 58, 0
5, 175920, Note_on_c, 3, 42, 86
5, 175955, Note_on_c, 3, 42, 0
5, 175992, Note_on_c, 3, 54, 78
5, 176004, Note_on_c, 3, 54, 0
5, 176016, Note_on_c, 3, 54, 78
5, 176040, Note_on_c, 3, 54, 0
5, 176064, Note_on_c, 3, 51, 79
5, 176088, Note_on_c, 3, 51, 0
5, 176208, Note_on_c, 3, 47, 92
5, 176243, Note_on_c, 3, 47, 0
5, 176280, Note_on_c, 3, 59, 83
5, 176292, Note_on_c, 3, 59, 0
5, 176304, Note_on_c, 3, 59, 84
5, 176328, Note_on_c, 3, 59, 0
5, 176352, Note_on_c, 3, 56, 85
5, 176376, Note_on_c, 3, 56, 0
5, 176496, Note_on_c, 3, 52, 98
5, 176531, Note_on_c, 3, 52, 0
5, 176568, Note_on_c, 3, 64, 89
5, 176580, Note_on_c, 3, 64, 0
5, 176592, Note_on_c, 3, 64, 90
5, 176616, Note_on_c, 3, 64, 0
5, 176640, Note_on_c, 3, 61, 90
5, 176664, Note_on_c, 3, 61, 0
5, 176784, Note_on_c, 3, 45, 110
5, 176819, Note_on_c, 3, 45, 0
5, 176856, Note_on_c, 3, 57, 100
5, 176868, Note_on_c, 3, 57, 0
5, 176880, Note_on_c, 3, 57, 100
5, 176904, Note_on_c, 3, 57, 0
5, 177072, Note_on_c, 3, 46, 119
5, 177107, Note_on_c, 3, 46, 0
5, 177144, Note_on_c, 3, 58, 113
5, 177156, Note_on_c, 3, 58, 0
5, 177168, Note_on_c, 3, 58, 113
5, 177192, Note_on_c, 3, 58, 0
5, 177360, Note_on_c, 3, 47, 120
5, 177395, Note_on_c, 3, 47, 0
5, 177432, Note_on_c, 3, 59, 113
5, 177444, Note_on_c, 3, 59, 0
5, 177456, Note_on_c, 3, 59, 113
5, 177480, Note_on_c, 3, 59, 0
5, 177696, Program_c, 3, 45
5, 177834, Control_c, 3, 7, 105
5, 177840, Note_on_c, 3, 52, 60
5, 177864, Note_on_c, 3, 52, 0
5, 177984, Note_on_c, 3, 47, 57
5, 178008, Note_on_c, 3, 47, 0
5, 178272, Note_on_c, 3, 52, 60
5, 178296, Note_on_c, 3, 52, 0
5, 178416, Note_on_c, 3, 47, 57
5, 178440, Note_on_c, 3, 47, 0
5, 178704, Note_on_c, 3, 52, 60
5, 178728, Note_on_c, 3, 52, 0
5, 178848, Note_on_c, 3, 47, 57
5, 178872, Note_on_c, 3, 47, 0
5, 179136, Note_on_c, 3, 64, 60
5, 179160, Note_on_c, 3, 64, 0
5, 179280, Note_on_c, 3, 52, 57
5, 179304, Note_on_c, 3, 52, 0
5, 179568, Note_on_c, 3, 57, 60
5, 179592, Note_on_c, 3, 57, 0
5, 179712, Note_on_c, 3, 52, 57
5, 179736, Note_on_c, 3, 52, 0
5, 180000, Note_on_c, 3, 57, 60
5, 180024, Note_on_c, 3, 57, 0
5, 180144, Note_on_c, 3, 52, 57
5, 180168, Note_on_c, 3, 52, 0
5, 180432, Note_on_c, 3, 65, 60
5, 180456, Note_on_c, 3, 65, 0
5, 180576, Note_on_c, 3, 53, 57
5, 180600, Note_on_c, 3, 53, 0
5, 180864, Note_on_c, 3, 65, 60
5, 180888, Note_on_c, 3, 65, 0
5, 181008, Note_on_c, 3, 53, 57
5, 181032, Note_on_c, 3, 53, 0
5, 181296, Note_on_c, 3, 65, 60
5, 181320, Note_on_c, 3, 65, 0
5, 181440, Note_on_c, 3, 53, 57
5, 181464, Note_on_c, 3, 53, 0
5, 181728, Note_on_c, 3, 65, 60
5, 181752, Note_on_c, 3, 65, 0
5, 181872, Note_on_c, 3, 53, 57
5, 181896, Note_on_c, 3, 53, 0
5, 182016, Note_on_c, 3, 53, 60
5, 182040, Note_on_c, 3, 53, 0
5, 182160, Note_on_c, 3, 41, 60
5, 182184, Note_on_c, 3, 41, 0
5, 182304, Note_on_c, 3, 53, 57
5, 182328, Note_on_c, 3, 53, 0
5, 182448, Program_c, 3, 48
5, 182448, Control_c, 3, 7, 123
5, 182448, Note_on_c, 3, 60, 55
5, 182472, Note_on_c, 3, 60, 0
5, 182496, Note_on_c, 3, 60, 50
5, 182520, Note_on_c, 3, 60, 0
5, 182544, Note_on_c, 3, 60, 50
5, 182568, Note_on_c, 3, 60, 0
5, 182592, Note_on_c, 3, 60, 55
5, 182616, Note_on_c, 3, 60, 0
5, 182640, Note_on_c, 3, 60, 50
5, 182664, Note_on_c, 3, 60, 0
5, 182688, Note_on_c, 3, 60, 50
5, 182712, Note_on_c, 3, 60, 0
5, 182736, Note_on_c, 3, 60, 55
5, 182760, Note_on_c, 3, 60, 0
5, 182784, Note_on_c, 3, 60, 50
5, 182808, Note_on_c, 3, 60, 0
5, 182832, Note_on_c, 3, 60, 50
5, 182856, Note_on_c, 3, 60, 0
5, 182880, Program_c, 3, 45
5, 182880, Control_c, 3, 7, 105
5, 182880, Note_on_c, 3, 62, 50
5, 182904, Note_on_c, 3, 62, 0
5, 183024, Note_on_c, 3, 50, 47
5, 183048, Note_on_c, 3, 50, 0
5, 183168, Note_on_c, 3, 62, 50
5, 183192, Note_on_c, 3, 62, 0
5, 183312, Note_on_c, 3, 57, 50
5, 183336, Note_on_c, 3, 57, 0
5, 183456, Note_on_c, 3, 45, 47
5, 183480, Note_on_c, 3, 45, 0
5, 183600, Note_on_c, 3, 57, 50
5, 183624, Note_on_c, 3, 57, 0
5, 183744, Note_on_c, 3, 57, 50
5, 183768, Note_on_c, 3, 57, 0
5, 183888, Note_on_c, 3, 45, 47
5, 183912, Note_on_c, 3, 45, 0
5, 184032, Note_on_c, 3, 57, 50
5, 184056, Note_on_c, 3, 57, 0
5, 184176, Note_on_c, 3, 57, 50
5, 184200, Note_on_c, 3, 57, 0
5, 184320, Note_on_c, 3, 45, 47
5, 184344, Note_on_c, 3, 45, 0
5, 184464, Note_on_c, 3, 57, 50
5, 184488, Note_on_c, 3, 57, 0
5, 184608, Note_on_c, 3, 55, 55
5, 184632, Note_on_c, 3, 55, 0
5, 184656, Note_on_c, 3, 53, 50
5, 184680, Note_on_c, 3, 53, 0
5, 184704, Note_on_c, 3, 52, 50
5, 184728, Note_on_c, 3, 52, 0
5, 184752, Note_on_c, 3, 50, 55
5, 184776, Note_on_c, 3, 50, 0
5, 184896, Note_on_c, 3, 45, 50
5, 184920, Note_on_c, 3, 45, 0
5, 185184, Note_on_c, 3, 50, 50
5, 185208, Note_on_c, 3, 50, 0
5, 185328, Note_on_c, 3, 45, 47
5, 185352, Note_on_c, 3, 45, 0
5, 185616, Note_on_c, 3, 50, 50
5, 185640, Note_on_c, 3, 50, 0
5, 185760, Note_on_c, 3, 45, 47
5, 185784, Note_on_c, 3, 45, 0
5, 185904, Program_c, 3, 48
5, 185904, Control_c, 3, 7, 123
5, 185904, Note_on_c, 3, 57, 60
5, 185939, Note_on_c, 3, 57, 0
5, 185976, Note_on_c, 3, 45, 50
5, 185988, Note_on_c, 3, 45, 0
5, 186000, Note_on_c, 3, 45, 50
5, 186024, Note_on_c, 3, 45, 0
5, 186048, Note_on_c, 3, 69, 60
5, 186083, Note_on_c, 3, 69, 0
5, 186120, Note_on_c, 3, 57, 50
5, 186132, Note_on_c, 3, 57, 0
5, 186144, Note_on_c, 3, 57, 50
5, 186168, Note_on_c, 3, 57, 0
5, 186192, Note_on_c, 3, 61, 55
5, 186216, Note_on_c, 3, 61, 0
5, 186240, Note_on_c, 3, 62, 50
5, 186264, Note_on_c, 3, 62, 0
5, 186288, Note_on_c, 3, 64, 50
5, 186312, Note_on_c, 3, 64, 0
5, 186336, Note_on_c, 3, 69, 55
5, 186360, Note_on_c, 3, 69, 0
5, 186384, Note_on_c, 3, 67, 50
5, 186408, Note_on_c, 3, 67, 0
5, 186432, Note_on_c, 3, 65, 50
5, 186456, Note_on_c, 3, 65, 0
5, 186480, Note_on_c, 3, 65, 55
5, 186504, Note_on_c, 3, 65, 0
5, 186528, Note_on_c, 3, 63, 50
5, 186552, Note_on_c, 3, 63, 0
5, 186576, Note_on_c, 3, 59, 50
5, 186600, Note_on_c, 3, 59, 0
5, 186624, Note_on_c, 3, 60, 55
5, 186648, Note_on_c, 3, 60, 0
5, 186672, Note_on_c, 3, 65, 50
5, 186696, Note_on_c, 3, 65, 0
5, 186720, Note_on_c, 3, 63, 50
5, 186744, Note_on_c, 3, 63, 0
5, 186768, Note_on_c, 3, 65, 55
5, 186792, Note_on_c, 3, 65, 0
5, 186816, Note_on_c, 3, 63, 50
5, 186840, Note_on_c, 3, 63, 0
5, 186864, Note_on_c, 3, 67, 50
5, 186888, Note_on_c, 3, 67, 0
5, 186912, Note_on_c, 3, 67, 55
5, 186936, Note_on_c, 3, 67, 0
5, 186960, Note_on_c, 3, 65, 50
5, 186984, Note_on_c, 3, 65, 0
5, 187008, Note_on_c, 3, 63, 50
5, 187032, Note_on_c, 3, 63, 0
5, 187056, Note_on_c, 3, 68, 55
5, 187080, Note_on_c, 3, 68, 0
5, 187104, Note_on_c, 3, 67, 50
5, 187128, Note_on_c, 3, 67, 0
5, 187152, Note_on_c, 3, 65, 50
5, 187176, Note_on_c, 3, 65, 0
5, 187200, Note_on_c, 3, 67, 55
5, 187224, Note_on_c, 3, 67, 0
5, 187248, Note_on_c, 3, 58, 50
5, 187272, Note_on_c, 3, 58, 0
5, 187296, Note_on_c, 3, 58, 50
5, 187320, Note_on_c, 3, 58, 0
5, 187344, Note_on_c, 3, 65, 55
5, 187368, Note_on_c, 3, 65, 0
5, 187392, Note_on_c, 3, 63, 50
5, 187416, Note_on_c, 3, 63, 0
5, 187440, Note_on_c, 3, 62, 50
5, 187464, Note_on_c, 3, 62, 0
5, 187488, Note_on_c, 3, 58, 55
5, 187512, Note_on_c, 3, 58, 0
5, 187536, Note_on_c, 3, 56, 50
5, 187560, Note_on_c, 3, 56, 0
5, 187584, Note_on_c, 3, 55, 50
5, 187608, Note_on_c, 3, 55, 0
5, 187632, Note_on_c, 3, 62, 55
5, 187656, Note_on_c, 3, 62, 0
5, 187680, Note_on_c, 3, 63, 50
5, 187704, Note_on_c, 3, 63, 0
5, 187728, Note_on_c, 3, 58, 50
5, 187752, Note_on_c, 3, 58, 0
5, 187776, Note_on_c, 3, 58, 55
5, 187800, Note_on_c, 3, 58, 0
5, 187824, Note_on_c, 3, 56, 50
5, 187848, Note_on_c, 3, 56, 0
5, 187872, Note_on_c, 3, 55, 50
5, 187896, Note_on_c, 3, 55, 0
5, 187920, Note_on_c, 3, 46, 50
5, 189072, Note_on_c, 3, 46, 0
5, 189072, Control_c, 3, 6, 64
5, 189072, Control_c, 3, 11, 50
5, 189072, Note_on_c, 3, 46, 120
5, 189089, Control_c, 3, 11, 51
5, 189105, Control_c, 3, 11, 52
5, 189122, Control_c, 3, 11, 53
5, 189138, Control_c, 3, 11, 54
5, 189155, Control_c, 3, 11, 55
5, 189171, Control_c, 3, 11, 56
5, 189188, Control_c, 3, 11, 57
5, 189204, Control_c, 3, 11, 58
5, 189220, Control_c, 3, 11, 59
5, 189237, Control_c, 3, 11, 60
5, 189253, Control_c, 3, 11, 61
5, 189270, Control_c, 3, 11, 62
5, 189286, Control_c, 3, 11, 63
5, 189303, Control_c, 3, 11, 64
5, 189319, Control_c, 3, 11, 65
5, 189336, Control_c, 3, 11, 66
5, 189352, Control_c, 3, 11, 67
5, 189368, Control_c, 3, 11, 68
5, 189385, Control_c, 3, 11, 69
5, 189401, Control_c, 3, 11, 70
5, 189418, Control_c, 3, 11, 71
5, 189434, Control_c, 3, 11, 72
5, 189451, Control_c, 3, 11, 73
5, 189467, Control_c, 3, 11, 74
5, 189484, Control_c, 3, 11, 75
5, 189500, Control_c, 3, 11, 76
5, 189516, Control_c, 3, 11, 77
5, 189533, Control_c, 3, 11, 78
5, 189549, Control_c, 3, 11, 79
5, 189566, Control_c, 3, 11, 80
5, 189582, Control_c, 3, 11, 81
5, 189599, Control_c, 3, 11, 82
5, 189615, Control_c, 3, 11, 83
5, 189632, Control_c, 3, 11, 84
5, 189647, Note_on_c, 3, 46, 0
5, 189648, Note_on_c, 3, 45, 120
5, 189648, Control_c, 3, 11, 85
5, 189664, Control_c, 3, 11, 86
5, 189681, Control_c, 3, 11, 87
5, 189697, Control_c, 3, 11, 88
5, 189714, Control_c, 3, 11, 89
5, 189730, Control_c, 3, 11, 90
5, 189747, Control_c, 3, 11, 91
5, 189763, Control_c, 3, 11, 92
5, 189780, Control_c, 3, 11, 93
5, 189796, Control_c, 3, 11, 94
5, 189812, Control_c, 3, 11, 95
5, 189829, Control_c, 3, 11, 96
5, 189845, Control_c, 3, 11, 97
5, 189862, Control_c, 3, 11, 98
5, 189878, Control_c, 3, 11, 99
5, 189895, Control_c, 3, 11, 100
5, 189911, Control_c, 3, 11, 101
5, 189928, Control_c, 3, 11, 102
5, 189944, Control_c, 3, 11, 103
5, 189960, Control_c, 3, 11, 104
5, 189977, Control_c, 3, 11, 105
5, 189993, Control_c, 3, 11, 106
5, 190010, Control_c, 3, 11, 107
5, 190026, Control_c, 3, 11, 108
5, 190043, Control_c, 3, 11, 109
5, 190059, Control_c, 3, 11, 110
5, 190076, Control_c, 3, 11, 111
5, 190092, Control_c, 3, 11, 112
5, 190108, Control_c, 3, 11, 113
5, 190125, Control_c, 3, 11, 114
5, 190141, Control_c, 3, 11, 115
5, 190158, Control_c, 3, 11, 116
5, 190174, Control_c, 3, 11, 117
5, 190191, Control_c, 3, 11, 118
5, 190207, Control_c, 3, 11, 119
5, 190223, Control_c, 3, 11, 120
5, 190224, Note_on_c, 3, 45, 0
5, 190224, Control_c, 3, 6, 14
5, 190224, Control_c, 3, 11, 120
5, 190224, Note_on_c, 3, 45, 120
5, 190254, Note_on_c, 3, 45, 0
5, 190512, Note_on_c, 3, 45, 120
5, 190542, Note_on_c, 3, 45, 0
5, 190800, Note_on_c, 3, 38, 125
5, 190835, Note_on_c, 3, 38, 0
5, 190872, Note_on_c, 3, 50, 115
5, 190884, Note_on_c, 3, 50, 0
5, 190896, Note_on_c, 3, 50, 115
5, 190920, Note_on_c, 3, 50, 0
5, 190944, Note_on_c, 3, 38, 125
5, 190979, Note_on_c, 3, 38, 0
5, 191016, Note_on_c, 3, 50, 115
5, 191028, Note_on_c, 3, 50, 0
5, 191040, Note_on_c, 3, 50, 115
5, 191064, Note_on_c, 3, 50, 0
5, 191088, Note_on_c, 3, 38, 125
5, 191123, Note_on_c, 3, 38, 0
5, 191160, Note_on_c, 3, 50, 115
5, 191172, Note_on_c, 3, 50, 0
5, 191184, Note_on_c, 3, 50, 115
5, 191208, Note_on_c, 3, 50, 0
5, 191232, Note_on_c, 3, 38, 125
5, 191267, Note_on_c, 3, 38, 0
5, 191304, Note_on_c, 3, 50, 115
5, 191316, Note_on_c, 3, 50, 0
5, 191328, Note_on_c, 3, 50, 115
5, 191352, Note_on_c, 3, 50, 0
5, 191376, Note_on_c, 3, 38, 125
5, 191411, Note_on_c, 3, 38, 0
5, 191448, Note_on_c, 3, 50, 115
5, 191460, Note_on_c, 3, 50, 0
5, 191472, Note_on_c, 3, 50, 115
5, 191496, Note_on_c, 3, 50, 0
5, 191520, Note_on_c, 3, 38, 125
5, 191555, Note_on_c, 3, 38, 0
5, 191592, Note_on_c, 3, 50, 115
5, 191604, Note_on_c, 3, 50, 0
5, 191616, Note_on_c, 3, 50, 115
5, 191640, Note_on_c, 3, 50, 0
5, 191664, Note_on_c, 3, 38, 125
5, 191699, Note_on_c, 3, 38, 0
5, 191736, Note_on_c, 3, 50, 115
5, 191748, Note_on_c, 3, 50, 0
5, 191760, Note_on_c, 3, 50, 115
5, 191784, Note_on_c, 3, 50, 0
5, 191808, Note_on_c, 3, 38, 125
5, 191843, Note_on_c, 3, 38, 0
5, 191880, Note_on_c, 3, 50, 115
5, 191892, Note_on_c, 3, 50, 0
5, 191904, Note_on_c, 3, 50, 115
5, 191928, Note_on_c, 3, 50, 0
5, 191952, Note_on_c, 3, 38, 125
5, 191987, Note_on_c, 3, 38, 0
5, 192024, Note_on_c, 3, 50, 115
5, 192036, Note_on_c, 3, 50, 0
5, 192048, Note_on_c, 3, 50, 115
5, 192072, Note_on_c, 3, 50, 0
5, 192096, Note_on_c, 3, 38, 125
5, 192131, Note_on_c, 3, 38, 0
5, 192168, Note_on_c, 3, 50, 115
5, 192180, Note_on_c, 3, 50, 0
5, 192192, Note_on_c, 3, 50, 115
5, 192216, Note_on_c, 3, 50, 0
5, 192240, Note_on_c, 3, 38, 125
5, 192275, Note_on_c, 3, 38, 0
5, 192312, Note_on_c, 3, 50, 115
5, 192324, Note_on_c, 3, 50, 0
5, 192336, Note_on_c, 3, 50, 115
5, 192360, Note_on_c, 3, 50, 0
5, 192384, Note_on_c, 3, 38, 125
5, 192419, Note_on_c, 3, 38, 0
5, 192456, Note_on_c, 3, 50, 115
5, 192468, Note_on_c, 3, 50, 0
5, 192480, Note_on_c, 3, 50, 115
5, 192504, Note_on_c, 3, 50, 0
5, 192528, Note_on_c, 3, 38, 125
5, 192563, Note_on_c, 3, 38, 0
5, 192600, Note_on_c, 3, 50, 115
5, 192612, Note_on_c, 3, 50, 0
5, 192624, Note_on_c, 3, 50, 115
5, 192648, Note_on_c, 3, 50, 0
5, 192672, Note_on_c, 3, 38, 125
5, 192707, Note_on_c, 3, 38, 0
5, 192744, Note_on_c, 3, 50, 115
5, 192756, Note_on_c, 3, 50, 0
5, 192768, Note_on_c, 3, 50, 115
5, 192792, Note_on_c, 3, 50, 0
5, 192816, Note_on_c, 3, 38, 125
5, 192851, Note_on_c, 3, 38, 0
5, 192888, Note_on_c, 3, 50, 115
5, 192900, Note_on_c, 3, 50, 0
5, 192912, Note_on_c, 3, 50, 115
5, 192936, Note_on_c, 3, 50, 0
5, 192960, Note_on_c, 3, 38, 125
5, 192995, Note_on_c, 3, 38, 0
5, 193032, Note_on_c, 3, 50, 115
5, 193044, Note_on_c, 3, 50, 0
5, 193056, Note_on_c, 3, 50, 115
5, 193080, Note_on_c, 3, 50, 0
5, 193104, Note_on_c, 3, 63, 120
5, 193128, Note_on_c, 3, 63, 0
5, 193152, Note_on_c, 3, 62, 115
5, 193176, Note_on_c, 3, 62, 0
5, 193200, Note_on_c, 3, 60, 115
5, 193224, Note_on_c, 3, 60, 0
5, 193248, Note_on_c, 3, 58, 120
5, 193272, Note_on_c, 3, 58, 0
5, 193296, Note_on_c, 3, 57, 115
5, 193320, Note_on_c, 3, 57, 0
5, 193344, Note_on_c, 3, 55, 115
5, 193368, Note_on_c, 3, 55, 0
5, 193392, Note_on_c, 3, 54, 120
5, 193416, Note_on_c, 3, 54, 0
5, 193440, Note_on_c, 3, 55, 115
5, 193464, Note_on_c, 3, 55, 0
5, 193488, Note_on_c, 3, 57, 115
5, 193512, Note_on_c, 3, 57, 0
5, 193536, Note_on_c, 3, 55, 120
5, 193560, Note_on_c, 3, 55, 0
5, 193584, Note_on_c, 3, 57, 115
5, 193608, Note_on_c, 3, 57, 0
5, 193632, Note_on_c, 3, 58, 115
5, 193656, Note_on_c, 3, 58, 0
5, 193680, Note_on_c, 3, 63, 105
5, 193704, Note_on_c, 3, 63, 0
5, 193728, Note_on_c, 3, 62, 100
5, 193752, Note_on_c, 3, 62, 0
5, 193776, Note_on_c, 3, 60, 100
5, 193800, Note_on_c, 3, 60, 0
5, 193824, Note_on_c, 3, 58, 105
5, 193848, Note_on_c, 3, 58, 0
5, 193872, Note_on_c, 3, 57, 100
5, 193896, Note_on_c, 3, 57, 0
5, 193920, Note_on_c, 3, 55, 100
5, 193944, Note_on_c, 3, 55, 0
5, 193968, Note_on_c, 3, 65, 105
5, 193992, Note_on_c, 3, 65, 0
5, 194016, Note_on_c, 3, 63, 100
5, 194040, Note_on_c, 3, 63, 0
5, 194064, Note_on_c, 3, 62, 100
5, 194088, Note_on_c, 3, 62, 0
5, 194112, Note_on_c, 3, 60, 105
5, 194136, Note_on_c, 3, 60, 0
5, 194160, Note_on_c, 3, 58, 100
5, 194184, Note_on_c, 3, 58, 0
5, 194208, Note_on_c, 3, 57, 100
5, 194232, Note_on_c, 3, 57, 0
5, 194256, Note_on_c, 3, 67, 105
5, 194280, Note_on_c, 3, 67, 0
5, 194304, Note_on_c, 3, 65, 100
5, 194328, Note_on_c, 3, 65, 0
5, 194352, Note_on_c, 3, 63, 100
5, 194376, Note_on_c, 3, 63, 0
5, 194400, Note_on_c, 3, 62, 105
5, 194424, Note_on_c, 3, 62, 0
5, 194448, Note_on_c, 3, 60, 100
5, 194472, Note_on_c, 3, 60, 0
5, 194496, Note_on_c, 3, 58, 100
5, 194520, Note_on_c, 3, 58, 0
5, 194544, Note_on_c, 3, 57, 105
5, 194568, Note_on_c, 3, 57, 0
5, 194592, Note_on_c, 3, 55, 100
5, 194616, Note_on_c, 3, 55, 0
5, 194640, Note_on_c, 3, 53, 100
5, 194664, Note_on_c, 3, 53, 0
5, 194688, Note_on_c, 3, 51, 105
5, 194712, Note_on_c, 3, 51, 0
5, 194736, Note_on_c, 3, 50, 100
5, 194760, Note_on_c, 3, 50, 0
5, 194784, Note_on_c, 3, 48, 100
5, 194808, Note_on_c, 3, 48, 0
5, 194832, Note_on_c, 3, 46, 100
5, 194856, Note_on_c, 3, 46, 0
5, 194976, Program_c, 3, 45
5, 194976, Control_c, 3, 7, 105
5, 194976, Note_on_c, 3, 58, 60
5, 195000, Note_on_c, 3, 58, 0
5, 195120, Note_on_c, 3, 51, 60
5, 195144, Note_on_c, 3, 51, 0
5, 195264, Note_on_c, 3, 48, 60
5, 195288, Note_on_c, 3, 48, 0
5, 195408, Note_on_c, 3, 53, 60
5, 195432, Note_on_c, 3, 53, 0
5, 195552, Note_on_c, 3, 46, 60
5, 195576, Note_on_c, 3, 46, 0
5, 195696, Note_on_c, 3, 53, 60
5, 195720, Note_on_c, 3, 53, 0
5, 195840, Note_on_c, 3, 41, 60
5, 195864, Note_on_c, 3, 41, 0
5, 197424, Program_c, 3, 48
5, 197424, Control_c, 3, 7, 123
5, 197424, Control_c, 3, 11, 60
5, 197424, Note_on_c, 3, 57, 100
5, 197448, Control_c, 3, 11, 61
5, 197472, Control_c, 3, 11, 62
5, 197496, Control_c, 3, 11, 63
5, 197520, Control_c, 3, 11, 64
5, 197544, Control_c, 3, 11, 65
5, 197568, Control_c, 3, 11, 66
5, 197592, Control_c, 3, 11, 67
5, 197616, Control_c, 3, 11, 68
5, 197640, Control_c, 3, 11, 69
5, 197664, Control_c, 3, 11, 70
5, 197688, Control_c, 3, 11, 71
5, 197712, Control_c, 3, 11, 72
5, 197736, Control_c, 3, 11, 73
5, 197760, Control_c, 3, 11, 74
5, 197784, Control_c, 3, 11, 75
5, 197808, Control_c, 3, 11, 76
5, 197832, Control_c, 3, 11, 77
5, 197856, Note_on_c, 3, 55, 100
5, 197856, Control_c, 3, 11, 78
5, 197857, Note_on_c, 3, 57, 0
5, 197880, Control_c, 3, 11, 79
5, 197904, Control_c, 3, 11, 80
5, 197928, Control_c, 3, 11, 81
5, 197952, Control_c, 3, 11, 82
5, 197976, Control_c, 3, 11, 83
5, 198000, Control_c, 3, 11, 84
5, 198024, Control_c, 3, 11, 85
5, 198048, Control_c, 3, 11, 86
5, 198072, Control_c, 3, 11, 87
5, 198096, Control_c, 3, 11, 88
5, 198120, Control_c, 3, 11, 89
5, 198143, Control_c, 3, 11, 90
5, 198144, Control_c, 3, 11, 90
5, 198144, Note_on_c, 3, 54, 100
5, 198145, Note_on_c, 3, 55, 0
5, 198159, Control_c, 3, 11, 89
5, 198173, Control_c, 3, 11, 88
5, 198188, Control_c, 3, 11, 87
5, 198202, Control_c, 3, 11, 86
5, 198216, Control_c, 3, 11, 85
5, 198231, Control_c, 3, 11, 84
5, 198245, Control_c, 3, 11, 83
5, 198259, Control_c, 3, 11, 82
5, 198274, Control_c, 3, 11, 81
5, 198288, Note_on_c, 3, 53, 100
5, 198288, Control_c, 3, 11, 80
5, 198289, Note_on_c, 3, 54, 0
5, 198303, Control_c, 3, 11, 79
5, 198317, Control_c, 3, 11, 78
5, 198331, Control_c, 3, 11, 77
5, 198346, Control_c, 3, 11, 76
5, 198360, Control_c, 3, 11, 75
5, 198374, Control_c, 3, 11, 74
5, 198389, Control_c, 3, 11, 73
5, 198403, Control_c, 3, 11, 72
5, 198417, Control_c, 3, 11, 71
5, 198432, Note_on_c, 3, 52, 100
5, 198432, Control_c, 3, 11, 70
5, 198433, Note_on_c, 3, 53, 0
5, 198446, Control_c, 3, 11, 69
5, 198461, Control_c, 3, 11, 68
5, 198475, Control_c, 3, 11, 67
5, 198489, Control_c, 3, 11, 66
5, 198504, Control_c, 3, 11, 65
5, 198518, Control_c, 3, 11, 64
5, 198532, Control_c, 3, 11, 63
5, 198547, Control_c, 3, 11, 62
5, 198561, Control_c, 3, 11, 61
5, 198573, Note_on_c, 3, 52, 0
5, 198575, Control_c, 3, 11, 120
5, 198576, Note_on_c, 3, 57, 60
5, 198611, Note_on_c, 3, 57, 0
5, 198648, Note_on_c, 3, 45, 63
5, 198660, Note_on_c, 3, 45, 0
5, 198672, Note_on_c, 3, 45, 64
5, 198696, Note_on_c, 3, 45, 0
5, 198720, Note_on_c, 3, 57, 66
5, 198755, Note_on_c, 3, 57, 0
5, 198792, Note_on_c, 3, 45, 70
5, 198804, Note_on_c, 3, 45, 0
5, 198816, Note_on_c, 3, 45, 71
5, 198840, Note_on_c, 3, 45, 0
5, 198864, Note_on_c, 3, 59, 73
5, 198899, Note_on_c, 3, 59, 0
5, 198936, Note_on_c, 3, 47, 76
5, 198948, Note_on_c, 3, 47, 0
5, 198960, Note_on_c, 3, 47, 78
5, 198984, Note_on_c, 3, 47, 0
5, 199008, Note_on_c, 3, 64, 80
5, 199043, Note_on_c, 3, 64, 0
5, 199080, Note_on_c, 3, 52, 83
5, 199092, Note_on_c, 3, 52, 0
5, 199104, Note_on_c, 3, 52, 84
5, 199128, Note_on_c, 3, 52, 0
5, 199152, Note_on_c, 3, 61, 87
5, 199187, Note_on_c, 3, 61, 0
5, 199224, Note_on_c, 3, 49, 90
5, 199236, Note_on_c, 3, 49, 0
5, 199248, Note_on_c, 3, 49, 91
5, 199272, Note_on_c, 3, 49, 0
5, 199296, Note_on_c, 3, 62, 93
5, 199331, Note_on_c, 3, 62, 0
5, 199368, Note_on_c, 3, 50, 97
5, 199380, Note_on_c, 3, 50, 0
5, 199392, Note_on_c, 3, 50, 98
5, 199416, Note_on_c, 3, 50, 0
5, 199440, Note_on_c, 3, 62, 100
5, 199475, Note_on_c, 3, 62, 0
5, 199512, Note_on_c, 3, 50, 103
5, 199524, Note_on_c, 3, 50, 0
5, 199536, Note_on_c, 3, 50, 105
5, 199560, Note_on_c, 3, 50, 0
5, 199584, Note_on_c, 3, 69, 107
5, 199619, Note_on_c, 3, 69, 0
5, 199656, Note_on_c, 3, 57, 110
5, 199668, Note_on_c, 3, 57, 0
5, 199680, Note_on_c, 3, 57, 111
5, 199704, Note_on_c, 3, 57, 0
5, 199728, Program_c, 3, 48
5, 199728, Control_c, 3, 7, 123
5, 199728, Note_on_c, 3, 62, 120
5, 199763, Note_on_c, 3, 62, 0
5, 199800, Note_on_c, 3, 50, 113
5, 199812, Note_on_c, 3, 50, 0
5, 199824, Note_on_c, 3, 50, 113
5, 199848, Note_on_c, 3, 50, 0
5, 199872, Note_on_c, 3, 62, 120
5, 199907, Note_on_c, 3, 62, 0
5, 199944, Note_on_c, 3, 50, 113
5, 199956, Note_on_c, 3, 50, 0
5, 199968, Note_on_c, 3, 50, 113
5, 199992, Note_on_c, 3, 50, 0
5, 200016, Note_on_c, 3, 62, 120
5, 200051, Note_on_c, 3, 62, 0
5, 200088, Note_on_c, 3, 50, 113
5, 200100, Note_on_c, 3, 50, 0
5, 200112, Note_on_c, 3, 50, 113
5, 200136, Note_on_c, 3, 50, 0
5, 200160, Note_on_c, 3, 62, 120
5, 200195, Note_on_c, 3, 62, 0
5, 200232, Note_on_c, 3, 50, 113
5, 200244, Note_on_c, 3, 50, 0
5, 200256, Note_on_c, 3, 50, 113
5, 200280, Note_on_c, 3, 50, 0
5, 200304, Note_on_c, 3, 62, 120
5, 200339, Note_on_c, 3, 62, 0
5, 200376, Note_on_c, 3, 50, 113
5, 200388, Note_on_c, 3, 50, 0
5, 200400, Note_on_c, 3, 50, 113
5, 200424, Note_on_c, 3, 50, 0
5, 200448, Note_on_c, 3, 62, 120
5, 200483, Note_on_c, 3, 62, 0
5, 200520, Note_on_c, 3, 50, 113
5, 200532, Note_on_c, 3, 50, 0
5, 200544, Note_on_c, 3, 50, 113
5, 200568, Note_on_c, 3, 50, 0
5, 200592, Note_on_c, 3, 62, 120
5, 200627, Note_on_c, 3, 62, 0
5, 200664, Note_on_c, 3, 50, 113
5, 200676, Note_on_c, 3, 50, 0
5, 200688, Note_on_c, 3, 50, 113
5, 200712, Note_on_c, 3, 50, 0
5, 200736, Note_on_c, 3, 62, 120
5, 200771, Note_on_c, 3, 62, 0
5, 200808, Note_on_c, 3, 50, 113
5, 200820, Note_on_c, 3, 50, 0
5, 200832, Note_on_c, 3, 50, 113
5, 200856, Note_on_c, 3, 50, 0
5, 200880, Note_on_c, 3, 62, 120
5, 200915, Note_on_c, 3, 62, 0
5, 200952, Note_on_c, 3, 50, 113
5, 200964, Note_on_c, 3, 50, 0
5, 200976, Note_on_c, 3, 50, 113
5, 201000, Note_on_c, 3, 50, 0
5, 201024, Note_on_c, 3, 62, 120
5, 201059, Note_on_c, 3, 62, 0
5, 201096, Note_on_c, 3, 50, 113
5, 201108, Note_on_c, 3, 50, 0
5, 201120, Note_on_c, 3, 50, 113
5, 201144, Note_on_c, 3, 50, 0
5, 201168, Note_on_c, 3, 62, 120
5, 201203, Note_on_c, 3, 62, 0
5, 201240, Note_on_c, 3, 50, 113
5, 201252, Note_on_c, 3, 50, 0
5, 201264, Note_on_c, 3, 50, 113
5, 201288, Note_on_c, 3, 50, 0
5, 201312, Note_on_c, 3, 62, 120
5, 201347, Note_on_c, 3, 62, 0
5, 201384, Note_on_c, 3, 50, 113
5, 201396, Note_on_c, 3, 50, 0
5, 201408, Note_on_c, 3, 50, 113
5, 201432, Note_on_c, 3, 50, 0
5, 201456, Note_on_c, 3, 62, 120
5, 201491, Note_on_c, 3, 62, 0
5, 201528, Note_on_c, 3, 50, 113
5, 201540, Note_on_c, 3, 50, 0
5, 201552, Note_on_c, 3, 50, 113
5, 201576, Note_on_c, 3, 50, 0
5, 201600, Note_on_c, 3, 62, 120
5, 201635, Note_on_c, 3, 62, 0
5, 201672, Note_on_c, 3, 50, 113
5, 201684, Note_on_c, 3, 50, 0
5, 201696, Note_on_c, 3, 50, 113
5, 201720, Note_on_c, 3, 50, 0
5, 201744, Note_on_c, 3, 62, 120
5, 201779, Note_on_c, 3, 62, 0
5, 201816, Note_on_c, 3, 50, 113
5, 201828, Note_on_c, 3, 50, 0
5, 201840, Note_on_c, 3, 50, 113
5, 201864, Note_on_c, 3, 50, 0
5, 201888, Note_on_c, 3, 62, 120
5, 201923, Note_on_c, 3, 62, 0
5, 201960, Note_on_c, 3, 50, 113
5, 201972, Note_on_c, 3, 50, 0
5, 201984, Note_on_c, 3, 50, 113
5, 202008, Note_on_c, 3, 50, 0
5, 202032, Note_on_c, 3, 62, 120
5, 202056, Note_on_c, 3, 62, 0
5, 202320, Note_on_c, 3, 55, 118
5, 202355, Note_on_c, 3, 55, 0
5, 202392, Note_on_c, 3, 43, 113
5, 202404, Note_on_c, 3, 43, 0
5, 202416, Note_on_c, 3, 43, 113
5, 202440, Note_on_c, 3, 43, 0
5, 202464, Note_on_c, 3, 43, 118
5, 202488, Note_on_c, 3, 43, 0
5, 202512, Note_on_c, 3, 40, 113
5, 202536, Note_on_c, 3, 40, 0
5, 202560, Note_on_c, 3, 38, 113
5, 202584, Note_on_c, 3, 38, 0
5, 202608, Note_on_c, 3, 36, 118
5, 202608, Note_on_c, 3, 48, 118
5, 202632, Note_on_c, 3, 48, 0
5, 202632, Note_on_c, 3, 36, 0
5, 202896, Note_on_c, 3, 65, 118
5, 202931, Note_on_c, 3, 65, 0
5, 202968, Note_on_c, 3, 53, 113
5, 202980, Note_on_c, 3, 53, 0
5, 202992, Note_on_c, 3, 53, 113
5, 203016, Note_on_c, 3, 53, 0
5, 203040, Note_on_c, 3, 53, 118
5, 203064, Note_on_c, 3, 53, 0
5, 203088, Note_on_c, 3, 50, 113
5, 203112, Note_on_c, 3, 50, 0
5, 203136, Note_on_c, 3, 48, 113
5, 203160, Note_on_c, 3, 48, 0
5, 203184, Control_c, 3, 6, 64
5, 203184, Control_c, 3, 11, 60
5, 203184, Note_on_c, 3, 48, 95
5, 203277, Note_on_c, 3, 48, 0
5, 203280, Note_on_c, 3, 60, 105
5, 203322, Note_on_c, 3, 60, 0
5, 203328, Note_on_c, 3, 58, 100
5, 203472, Control_c, 3, 11, 60
5, 203487, Control_c, 3, 11, 61
5, 203501, Control_c, 3, 11, 62
5, 203516, Control_c, 3, 11, 63
5, 203530, Control_c, 3, 11, 64
5, 203544, Control_c, 3, 11, 65
5, 203559, Control_c, 3, 11, 66
5, 203573, Control_c, 3, 11, 67
5, 203587, Control_c, 3, 11, 68
5, 203602, Control_c, 3, 11, 69
5, 203616, Control_c, 3, 11, 70
5, 203631, Control_c, 3, 11, 71
5, 203645, Control_c, 3, 11, 72
5, 203659, Control_c, 3, 11, 73
5, 203664, Note_on_c, 3, 58, 0
5, 203664, Note_on_c, 3, 56, 100
5, 203674, Control_c, 3, 11, 74
5, 203688, Control_c, 3, 11, 75
5, 203702, Control_c, 3, 11, 76
5, 203712, Note_on_c, 3, 56, 0
5, 203712, Note_on_c, 3, 55, 100
5, 203717, Control_c, 3, 11, 77
5, 203731, Control_c, 3, 11, 78
5, 203745, Control_c, 3, 11, 79
5, 203760, Note_on_c, 3, 55, 0
5, 203760, Note_on_c, 3, 55, 100
5, 203760, Control_c, 3, 11, 80
5, 203774, Control_c, 3, 11, 81
5, 203789, Control_c, 3, 11, 82
5, 203803, Control_c, 3, 11, 83
5, 203817, Control_c, 3, 11, 84
5, 203832, Control_c, 3, 11, 85
5, 203846, Control_c, 3, 11, 86
5, 203860, Control_c, 3, 11, 87
5, 203875, Control_c, 3, 11, 88
5, 203889, Control_c, 3, 11, 89
5, 203903, Note_on_c, 3, 55, 0
5, 203903, Control_c, 3, 11, 90
5, 203904, Control_c, 3, 11, 90
5, 203904, Note_on_c, 3, 57, 100
5, 203909, Control_c, 3, 11, 89
5, 203914, Control_c, 3, 11, 88
5, 203919, Control_c, 3, 11, 87
5, 203924, Control_c, 3, 11, 86
5, 203928, Control_c, 3, 11, 85
5, 203933, Control_c, 3, 11, 84
5, 203938, Control_c, 3, 11, 83
5, 203943, Control_c, 3, 11, 82
5, 203947, Control_c, 3, 11, 81
5, 203952, Control_c, 3, 11, 80
5, 203957, Control_c, 3, 11, 79
5, 203962, Control_c, 3, 11, 78
5, 203966, Control_c, 3, 11, 77
5, 203971, Control_c, 3, 11, 76
5, 203976, Control_c, 3, 11, 75
5, 203981, Control_c, 3, 11, 74
5, 203986, Control_c, 3, 11, 73
5, 203990, Control_c, 3, 11, 72
5, 203995, Control_c, 3, 11, 71
5, 204000, Control_c, 3, 11, 70
5, 204005, Control_c, 3, 11, 69
5, 204009, Control_c, 3, 11, 68
5, 204014, Control_c, 3, 11, 67
5, 204019, Control_c, 3, 11, 66
5, 204024, Control_c, 3, 11, 65
5, 204028, Control_c, 3, 11, 64
5, 204033, Control_c, 3, 11, 63
5, 204038, Control_c, 3, 11, 62
5, 204043, Control_c, 3, 11, 61
5, 204047, Note_on_c, 3, 57, 0
5, 204047, Control_c, 3, 11, 60
5, 204624, Control_c, 3, 6, 14
5, 204912, Control_c, 3, 11, 120
5, 204912, Note_on_c, 3, 62, 105
5, 204936, Note_on_c, 3, 62, 0
5, 204960, Note_on_c, 3, 58, 100
5, 204984, Note_on_c, 3, 58, 0
5, 205008, Note_on_c, 3, 55, 100
5, 205032, Note_on_c, 3, 55, 0
5, 205056, Note_on_c, 3, 56, 105
5, 205080, Note_on_c, 3, 56, 0
5, 205104, Note_on_c, 3, 57, 100
5, 205128, Note_on_c, 3, 57, 0
5, 205152, Note_on_c, 3, 45, 100
5, 205176, Note_on_c, 3, 45, 0
5, 205200, Note_on_c, 3, 50, 105
5, 205224, Note_on_c, 3, 50, 0
5, 205488, Note_on_c, 3, 57, 105
5, 205512, Note_on_c, 3, 57, 0
5, 205536, Note_on_c, 3, 53, 100
5, 205560, Note_on_c, 3, 53, 0
5, 205584, Note_on_c, 3, 58, 100
5, 205608, Note_on_c, 3, 58, 0
5, 205632, Note_on_c, 3, 55, 105
5, 205656, Note_on_c, 3, 55, 0
5, 205680, Note_on_c, 3, 52, 100
5, 205704, Note_on_c, 3, 52, 0
5, 205728, Note_on_c, 3, 57, 100
5, 205752, Note_on_c, 3, 57, 0
5, 205776, Note_on_c, 3, 50, 105
5, 205800, Note_on_c, 3, 50, 0
5, 205920, Note_on_c, 3, 57, 110
5, 205955, Note_on_c, 3, 57, 0
5, 205992, Note_on_c, 3, 45, 100
5, 206004, Note_on_c, 3, 45, 0
5, 206016, Note_on_c, 3, 45, 100
5, 206040, Note_on_c, 3, 45, 0
5, 206064, Note_on_c, 3, 38, 105
5, 206088, Note_on_c, 3, 38, 0
5, 206208, Note_on_c, 3, 57, 110
5, 206243, Note_on_c, 3, 57, 0
5, 206280, Note_on_c, 3, 45, 100
5, 206292, Note_on_c, 3, 45, 0
5, 206304, Note_on_c, 3, 45, 100
5, 206328, Note_on_c, 3, 45, 0
5, 206352, Note_on_c, 3, 45, 55
5, 206376, Note_on_c, 3, 45, 0
5, 206400, Note_on_c, 3, 45, 50
5, 206424, Note_on_c, 3, 45, 0
5, 206448, Note_on_c, 3, 45, 50
5, 206472, Note_on_c, 3, 45, 0
5, 206496, Note_on_c, 3, 45, 55
5, 206520, Note_on_c, 3, 45, 0
5, 206544, Note_on_c, 3, 45, 50
5, 206568, Note_on_c, 3, 45, 0
5, 206592, Note_on_c, 3, 45, 50
5, 206616, Note_on_c, 3, 45, 0
5, 206640, Note_on_c, 3, 45, 55
5, 206664, Note_on_c, 3, 45, 0
5, 206688, Note_on_c, 3, 45, 50
5, 206712, Note_on_c, 3, 45, 0
5, 206736, Note_on_c, 3, 45, 50
5, 206760, Note_on_c, 3, 45, 0
5, 206784, Note_on_c, 3, 45, 55
5, 206808, Note_on_c, 3, 45, 0
5, 206832, Note_on_c, 3, 45, 50
5, 206856, Note_on_c, 3, 45, 0
5, 206880, Note_on_c, 3, 45, 50
5, 206904, Note_on_c, 3, 45, 0
5, 206928, Note_on_c, 3, 38, 60
5, 206963, Note_on_c, 3, 38, 0
5, 207000, Note_on_c, 3, 50, 50
5, 207012, Note_on_c, 3, 50, 0
5, 207024, Note_on_c, 3, 50, 50
5, 207048, Note_on_c, 3, 50, 0
5, 207072, Note_on_c, 3, 45, 55
5, 207096, Note_on_c, 3, 45, 0
5, 207216, Note_on_c, 3, 41, 60
5, 207251, Note_on_c, 3, 41, 0
5, 207288, Note_on_c, 3, 53, 50
5, 207300, Note_on_c, 3, 53, 0
5, 207312, Note_on_c, 3, 53, 50
5, 207336, Note_on_c, 3, 53, 0
5, 207360, Note_on_c, 3, 50, 55
5, 207384, Note_on_c, 3, 50, 0
5, 208080, Note_on_c, 3, 50, 55
5, 208115, Note_on_c, 3, 50, 0
5, 208152, Note_on_c, 3, 62, 54
5, 208164, Note_on_c, 3, 62, 0
5, 208176, Note_on_c, 3, 62, 56
5, 208200, Note_on_c, 3, 62, 0
5, 208224, Note_on_c, 3, 57, 59
5, 208248, Note_on_c, 3, 57, 0
5, 208368, Note_on_c, 3, 53, 73
5, 208403, Note_on_c, 3, 53, 0
5, 208440, Note_on_c, 3, 65, 72
5, 208452, Note_on_c, 3, 65, 0
5, 208464, Note_on_c, 3, 65, 74
5, 208488, Note_on_c, 3, 65, 0
5, 208512, Note_on_c, 3, 62, 77
5, 208536, Note_on_c, 3, 62, 0
5, 208656, Note_on_c, 3, 46, 86
5, 208691, Note_on_c, 3, 46, 0
5, 208728, Note_on_c, 3, 58, 90
5, 208740, Note_on_c, 3, 58, 0
5, 208752, Note_on_c, 3, 58, 92
5, 208776, Note_on_c, 3, 58, 0
5, 208800, Note_on_c, 3, 55, 95
5, 208824, Note_on_c, 3, 55, 0
5, 208944, Note_on_c, 3, 46, 104
5, 208979, Note_on_c, 3, 46, 0
5, 209016, Note_on_c, 3, 58, 108
5, 209028, Note_on_c, 3, 58, 0
5, 209040, Note_on_c, 3, 58, 110
5, 209064, Note_on_c, 3, 58, 0
5, 209088, Note_on_c, 3, 57, 113
5, 209112, Note_on_c, 3, 57, 0
5, 209280, Note_on_c, 3, 49, 55
5, 209304, Note_on_c, 3, 49, 0
5, 209328, Note_on_c, 3, 50, 50
5, 209352, Note_on_c, 3, 50, 0
5, 209376, Note_on_c, 3, 52, 50
5, 209400, Note_on_c, 3, 52, 0
5, 209424, Note_on_c, 3, 53, 55
5, 209448, Note_on_c, 3, 53, 0
5, 209472, Note_on_c, 3, 52, 50
5, 209496, Note_on_c, 3, 52, 0
5, 209520, Note_on_c, 3, 50, 50
5, 209544, Note_on_c, 3, 50, 0
5, 209568, Note_on_c, 3, 48, 55
5, 209592, Note_on_c, 3, 48, 0
5, 209616, Note_on_c, 3, 46, 50
5, 209640, Note_on_c, 3, 46, 0
5, 209664, Note_on_c, 3, 45, 50
5, 209688, Note_on_c, 3, 45, 0
5, 209712, Note_on_c, 3, 43, 55
5, 209736, Note_on_c, 3, 43, 0
5, 209760, Note_on_c, 3, 45, 50
5, 209784, Note_on_c, 3, 45, 0
5, 209808, Note_on_c, 3, 46, 50
5, 209832, Note_on_c, 3, 46, 0
5, 209856, Note_on_c, 3, 49, 55
5, 209880, Note_on_c, 3, 49, 0
5, 209904, Note_on_c, 3, 50, 50
5, 209928, Note_on_c, 3, 50, 0
5, 209952, Note_on_c, 3, 52, 50
5, 209976, Note_on_c, 3, 52, 0
5, 210000, Note_on_c, 3, 53, 55
5, 210024, Note_on_c, 3, 53, 0
5, 210048, Note_on_c, 3, 52, 50
5, 210072, Note_on_c, 3, 52, 0
5, 210096, Note_on_c, 3, 50, 50
5, 210120, Note_on_c, 3, 50, 0
5, 210144, Note_on_c, 3, 48, 55
5, 210168, Note_on_c, 3, 48, 0
5, 210192, Note_on_c, 3, 46, 50
5, 210216, Note_on_c, 3, 46, 0
5, 210240, Note_on_c, 3, 45, 50
5, 210264, Note_on_c, 3, 45, 0
5, 210288, Note_on_c, 3, 43, 55
5, 210312, Note_on_c, 3, 43, 0
5, 210336, Note_on_c, 3, 45, 50
5, 210360, Note_on_c, 3, 45, 0
5, 210384, Note_on_c, 3, 46, 50
5, 210408, Note_on_c, 3, 46, 0
5, 210432, Note_on_c, 3, 57, 60
5, 210467, Note_on_c, 3, 57, 0
5, 210503, Note_on_c, 3, 45, 54
5, 210515, Note_on_c, 3, 45, 0
5, 210527, Note_on_c, 3, 45, 55
5, 210551, Note_on_c, 3, 45, 0
5, 210575, Note_on_c, 3, 50, 58
5, 210599, Note_on_c, 3, 50, 0
5, 210623, Note_on_c, 3, 52, 61
5, 210647, Note_on_c, 3, 52, 0
5, 210671, Note_on_c, 3, 53, 64
5, 210695, Note_on_c, 3, 53, 0
5, 210719, Note_on_c, 3, 57, 76
5, 210754, Note_on_c, 3, 57, 0
5, 210791, Note_on_c, 3, 45, 71
5, 210803, Note_on_c, 3, 45, 0
5, 210815, Note_on_c, 3, 45, 72
5, 210839, Note_on_c, 3, 45, 0
5, 210863, Note_on_c, 3, 50, 75
5, 210887, Note_on_c, 3, 50, 0
5, 210911, Note_on_c, 3, 52, 78
5, 210935, Note_on_c, 3, 52, 0
5, 210959, Note_on_c, 3, 53, 80
5, 210983, Note_on_c, 3, 53, 0
5, 211007, Note_on_c, 3, 57, 93
5, 211042, Note_on_c, 3, 57, 0
5, 211079, Note_on_c, 3, 45, 87
5, 211091, Note_on_c, 3, 45, 0
5, 211103, Note_on_c, 3, 45, 89
5, 211127, Note_on_c, 3, 45, 0
5, 211151, Note_on_c, 3, 50, 92
5, 211175, Note_on_c, 3, 50, 0
5, 211199, Note_on_c, 3, 52, 95
5, 211223, Note_on_c, 3, 52, 0
5, 211247, Note_on_c, 3, 53, 97
5, 211271, Note_on_c, 3, 53, 0
5, 211295, Note_on_c, 3, 57, 110
5, 211330, Note_on_c, 3, 57, 0
5, 211367, Note_on_c, 3, 45, 104
5, 211379, Note_on_c, 3, 45, 0
5, 211391, Note_on_c, 3, 45, 106
5, 211415, Note_on_c, 3, 45, 0
5, 211439, Note_on_c, 3, 50, 109
5, 211463, Note_on_c, 3, 50, 0
5, 211487, Note_on_c, 3, 52, 111
5, 211511, Note_on_c, 3, 52, 0
5, 211535, Note_on_c, 3, 53, 114
5, 211559, Note_on_c, 3, 53, 0
5, 211583, Note_on_c, 3, 69, 125
5, 211607, Note_on_c, 3, 69, 0
5, 211631, Note_on_c, 3, 57, 115
5, 211655, Note_on_c, 3, 57, 0
5, 211679, Note_on_c, 3, 62, 125
5, 211703, Note_on_c, 3, 62, 0
5, 211727, Note_on_c, 3, 50, 115
5, 211751, Note_on_c, 3, 50, 0
5, 211775, Note_on_c, 3, 57, 125
5, 211799, Note_on_c, 3, 57, 0
5, 211823, Note_on_c, 3, 45, 115
5, 211847, Note_on_c, 3, 45, 0
5, 211871, Note_on_c, 3, 57, 125
5, 211895, Note_on_c, 3, 57, 0
5, 211919, Note_on_c, 3, 45, 120
5, 211943, Note_on_c, 3, 45, 0
5, 211967, Control_c, 3, 11, 95
5, 211967, Note_on_c, 3, 38, 120
5, 211967, Note_on_c, 3, 50, 120
5, 211968, Control_c, 3, 11, 91
5, 211969, Control_c, 3, 11, 88
5, 211970, Control_c, 3, 11, 85
5, 211971, Control_c, 3, 11, 83
5, 211972, Control_c, 3, 11, 81
5, 211973, Control_c, 3, 11, 79
5, 211974, Control_c, 3, 11, 77
5, 211975, Control_c, 3, 11, 76
5, 211976, Control_c, 3, 11, 75
5, 211977, Control_c, 3, 11, 74
5, 211978, Control_c, 3, 11, 73
5, 211979, Control_c, 3, 11, 72
5, 211980, Control_c, 3, 11, 71
5, 211981, Control_c, 3, 11, 70
5, 211983, Control_c, 3, 11, 69
5, 211984, Control_c, 3, 11, 68
5, 211987, Control_c, 3, 11, 67
5, 211990, Control_c, 3, 11, 66
5, 211996, Control_c, 3, 11, 65
5, 213313, Note_on_c, 3, 50, 0
5, 213313, Note_on_c, 3, 38, 0
5, 213504, Control_c, 3, 11, 127
5, 213504, Note_on_c, 3, 69, 127
5, 213528, Note_on_c, 3, 69, 0
5, 213552, Note_on_c, 3, 57, 115
5, 213576, Note_on_c, 3, 57, 0
5, 213600, Note_on_c, 3, 62, 125
5, 213624, Note_on_c, 3, 62, 0
5, 213648, Note_on_c, 3, 50, 115
5, 213672, Note_on_c, 3, 50, 0
5, 213696, Note_on_c, 3, 57, 125
5, 213720, Note_on_c, 3, 57, 0
5, 213744, Note_on_c, 3, 45, 115
5, 213768, Note_on_c, 3, 45, 0
5, 213792, Note_on_c, 3, 57, 125
5, 213816, Note_on_c, 3, 57, 0
5, 213840, Note_on_c, 3, 45, 115
5, 213864, Note_on_c, 3, 45, 0
5, 213888, Note_on_c, 3, 50, 125
5, 213912, Note_on_c, 3, 50, 0
5, 214080, End_track
6, 0, Start_track
6, 0, Title_t, "Contra-Basso"
6, 0, MIDI_port, 0
6, 180, Control_c, 4, 7, 120
6, 186, Control_c, 4, 91, 80
6, 188, Control_c, 4, 93, 20
6, 190, Control_c, 4, 10, 106
6, 192, Program_c, 4, 48
6, 192, Control_c, 4, 11, 120
6, 192, Control_c, 4, 99, 1
6, 192, Control_c, 4, 98, 99
6, 192, Control_c, 4, 6, 14
6, 192, Note_on_c, 4, 50, 110
6, 227, Note_on_c, 4, 50, 0
6, 264, Note_on_c, 4, 38, 100
6, 276, Note_on_c, 4, 38, 0
6, 288, Note_on_c, 4, 38, 100
6, 312, Note_on_c, 4, 38, 0
6, 480, Note_on_c, 4, 45, 110
6, 515, Note_on_c, 4, 45, 0
6, 552, Note_on_c, 4, 33, 100
6, 564, Note_on_c, 4, 33, 0
6, 576, Note_on_c, 4, 33, 100
6, 600, Note_on_c, 4, 33, 0
6, 912, Note_on_c, 4, 38, 110
6, 947, Note_on_c, 4, 38, 0
6, 984, Note_on_c, 4, 26, 100
6, 996, Note_on_c, 4, 26, 0
6, 1008, Note_on_c, 4, 26, 100
6, 1032, Note_on_c, 4, 26, 0
6, 3648, Note_on_c, 4, 45, 60
6, 3683, Note_on_c, 4, 45, 0
6, 3720, Note_on_c, 4, 33, 50
6, 3732, Note_on_c, 4, 33, 0
6, 3744, Note_on_c, 4, 33, 50
6, 3768, Note_on_c, 4, 33, 0
6, 3792, Note_on_c, 4, 38, 55
6, 3816, Note_on_c, 4, 38, 0
6, 3840, Note_on_c, 4, 40, 50
6, 3864, Note_on_c, 4, 40, 0
6, 3888, Note_on_c, 4, 41, 50
6, 3912, Note_on_c, 4, 41, 0
6, 3936, Note_on_c, 4, 40, 55
6, 3960, Note_on_c, 4, 40, 0
6, 3984, Note_on_c, 4, 41, 50
6, 4008, Note_on_c, 4, 41, 0
6, 4032, Note_on_c, 4, 43, 50
6, 4056, Note_on_c, 4, 43, 0
6, 4080, Note_on_c, 4, 41, 55
6, 4104, Note_on_c, 4, 41, 0
6, 4128, Note_on_c, 4, 40, 50
6, 4152, Note_on_c, 4, 40, 0
6, 4176, Note_on_c, 4, 38, 50
6, 4200, Note_on_c, 4, 38, 0
6, 4224, Note_on_c, 4, 41, 55
6, 4248, Note_on_c, 4, 41, 0
6, 4272, Note_on_c, 4, 40, 50
6, 4296, Note_on_c, 4, 40, 0
6, 4320, Note_on_c, 4, 38, 50
6, 4344, Note_on_c, 4, 38, 0
6, 4368, Note_on_c, 4, 36, 55
6, 4392, Note_on_c, 4, 36, 0
6, 4416, Note_on_c, 4, 35, 50
6, 4440, Note_on_c, 4, 35, 0
6, 4464, Note_on_c, 4, 33, 50
6, 4488, Note_on_c, 4, 33, 0
6, 4512, Note_on_c, 4, 32, 55
6, 4536, Note_on_c, 4, 32, 0
6, 4560, Note_on_c, 4, 33, 50
6, 4584, Note_on_c, 4, 33, 0
6, 4608, Note_on_c, 4, 35, 50
6, 4632, Note_on_c, 4, 35, 0
6, 4656, Note_on_c, 4, 33, 55
6, 4680, Note_on_c, 4, 33, 0
6, 4704, Note_on_c, 4, 32, 50
6, 4728, Note_on_c, 4, 32, 0
6, 4752, Note_on_c, 4, 33, 50
6, 4776, Note_on_c, 4, 33, 0
6, 4800, Note_on_c, 4, 33, 55
6, 4824, Note_on_c, 4, 33, 0
6, 4848, Note_on_c, 4, 33, 50
6, 4872, Note_on_c, 4, 33, 0
6, 4896, Note_on_c, 4, 33, 50
6, 4920, Note_on_c, 4, 33, 0
6, 4944, Note_on_c, 4, 33, 55
6, 4968, Note_on_c, 4, 33, 0
6, 4992, Note_on_c, 4, 33, 50
6, 5016, Note_on_c, 4, 33, 0
6, 5040, Note_on_c, 4, 33, 50
6, 5064, Note_on_c, 4, 33, 0
6, 5088, Note_on_c, 4, 33, 55
6, 5112, Note_on_c, 4, 33, 0
6, 5136, Note_on_c, 4, 33, 50
6, 5160, Note_on_c, 4, 33, 0
6, 5184, Note_on_c, 4, 33, 50
6, 5208, Note_on_c, 4, 33, 0
6, 5232, Note_on_c, 4, 33, 55
6, 5256, Note_on_c, 4, 33, 0
6, 5280, Note_on_c, 4, 33, 50
6, 5304, Note_on_c, 4, 33, 0
6, 5328, Note_on_c, 4, 33, 50
6, 5352, Note_on_c, 4, 33, 0
6, 5376, Note_on_c, 4, 33, 55
6, 5400, Note_on_c, 4, 33, 0
6, 5424, Note_on_c, 4, 33, 50
6, 5448, Note_on_c, 4, 33, 0
6, 5472, Note_on_c, 4, 33, 50
6, 5496, Note_on_c, 4, 33, 0
6, 5520, Note_on_c, 4, 33, 55
6, 5544, Note_on_c, 4, 33, 0
6, 5568, Note_on_c, 4, 33, 50
6, 5592, Note_on_c, 4, 33, 0
6, 5616, Note_on_c, 4, 33, 50
6, 5640, Note_on_c, 4, 33, 0
6, 5664, Note_on_c, 4, 33, 55
6, 5688, Note_on_c, 4, 33, 0
6, 5712, Note_on_c, 4, 33, 50
6, 5736, Note_on_c, 4, 33, 0
6, 5760, Note_on_c, 4, 33, 50
6, 5784, Note_on_c, 4, 33, 0
6, 5808, Note_on_c, 4, 33, 55
6, 5832, Note_on_c, 4, 33, 0
6, 5856, Note_on_c, 4, 33, 50
6, 5880, Note_on_c, 4, 33, 0
6, 5904, Note_on_c, 4, 33, 50
6, 5928, Note_on_c, 4, 33, 0
6, 5952, Note_on_c, 4, 33, 55
6, 5976, Note_on_c, 4, 33, 0
6, 6000, Note_on_c, 4, 33, 50
6, 6024, Note_on_c, 4, 33, 0
6, 6048, Note_on_c, 4, 33, 50
6, 6072, Note_on_c, 4, 33, 0
6, 6096, Note_on_c, 4, 33, 55
6, 6120, Note_on_c, 4, 33, 0
6, 6144, Note_on_c, 4, 33, 50
6, 6168, Note_on_c, 4, 33, 0
6, 6192, Note_on_c, 4, 33, 50
6, 6216, Note_on_c, 4, 33, 0
6, 6240, Note_on_c, 4, 33, 55
6, 6264, Note_on_c, 4, 33, 0
6, 6288, Note_on_c, 4, 33, 50
6, 6312, Note_on_c, 4, 33, 0
6, 6336, Note_on_c, 4, 33, 50
6, 6360, Note_on_c, 4, 33, 0
6, 6384, Note_on_c, 4, 33, 55
6, 6408, Note_on_c, 4, 33, 0
6, 6432, Note_on_c, 4, 33, 50
6, 6456, Note_on_c, 4, 33, 0
6, 6480, Note_on_c, 4, 33, 50
6, 6504, Note_on_c, 4, 33, 0
6, 6528, Note_on_c, 4, 33, 55
6, 6552, Note_on_c, 4, 33, 0
6, 6576, Note_on_c, 4, 33, 51
6, 6600, Note_on_c, 4, 33, 0
6, 6624, Note_on_c, 4, 33, 53
6, 6648, Note_on_c, 4, 33, 0
6, 6672, Note_on_c, 4, 33, 60
6, 6696, Note_on_c, 4, 33, 0
6, 6720, Note_on_c, 4, 33, 56
6, 6744, Note_on_c, 4, 33, 0
6, 6768, Note_on_c, 4, 33, 58
6, 6792, Note_on_c, 4, 33, 0
6, 6816, Note_on_c, 4, 33, 65
6, 6840, Note_on_c, 4, 33, 0
6, 6864, Note_on_c, 4, 33, 61
6, 6888, Note_on_c, 4, 33, 0
6, 6912, Note_on_c, 4, 33, 63
6, 6936, Note_on_c, 4, 33, 0
6, 6960, Note_on_c, 4, 33, 70
6, 6984, Note_on_c, 4, 33, 0
6, 7008, Note_on_c, 4, 33, 66
6, 7032, Note_on_c, 4, 33, 0
6, 7056, Note_on_c, 4, 33, 68
6, 7080, Note_on_c, 4, 33, 0
6, 7104, Note_on_c, 4, 33, 75
6, 7128, Note_on_c, 4, 33, 0
6, 7152, Note_on_c, 4, 33, 71
6, 7176, Note_on_c, 4, 33, 0
6, 7200, Note_on_c, 4, 33, 73
6, 7224, Note_on_c, 4, 33, 0
6, 7248, Note_on_c, 4, 33, 80
6, 7272, Note_on_c, 4, 33, 0
6, 7296, Note_on_c, 4, 33, 77
6, 7320, Note_on_c, 4, 33, 0
6, 7344, Note_on_c, 4, 33, 78
6, 7368, Note_on_c, 4, 33, 0
6, 7392, Note_on_c, 4, 33, 85
6, 7416, Note_on_c, 4, 33, 0
6, 7440, Note_on_c, 4, 33, 82
6, 7464, Note_on_c, 4, 33, 0
6, 7488, Note_on_c, 4, 33, 83
6, 7512, Note_on_c, 4, 33, 0
6, 7536, Note_on_c, 4, 33, 90
6, 7560, Note_on_c, 4, 33, 0
6, 7584, Note_on_c, 4, 33, 87
6, 7608, Note_on_c, 4, 33, 0
6, 7632, Note_on_c, 4, 33, 88
6, 7656, Note_on_c, 4, 33, 0
6, 7680, Note_on_c, 4, 33, 95
6, 7704, Note_on_c, 4, 33, 0
6, 7728, Note_on_c, 4, 33, 92
6, 7752, Note_on_c, 4, 33, 0
6, 7776, Note_on_c, 4, 33, 93
6, 7800, Note_on_c, 4, 33, 0
6, 7824, Note_on_c, 4, 33, 100
6, 7848, Note_on_c, 4, 33, 0
6, 7872, Note_on_c, 4, 33, 97
6, 7896, Note_on_c, 4, 33, 0
6, 7920, Note_on_c, 4, 33, 98
6, 7944, Note_on_c, 4, 33, 0
6, 7968, Note_on_c, 4, 33, 105
6, 7992, Note_on_c, 4, 33, 0
6, 8016, Note_on_c, 4, 33, 102
6, 8040, Note_on_c, 4, 33, 0
6, 8064, Note_on_c, 4, 33, 104
6, 8088, Note_on_c, 4, 33, 0
6, 8112, Note_on_c, 4, 43, 110
6, 8136, Note_on_c, 4, 43, 0
6, 8160, Note_on_c, 4, 41, 107
6, 8184, Note_on_c, 4, 41, 0
6, 8208, Note_on_c, 4, 40, 109
6, 8232, Note_on_c, 4, 40, 0
6, 8256, Note_on_c, 4, 38, 110
6, 8280, Note_on_c, 4, 38, 0
6, 8400, Note_on_c, 4, 50, 110
6, 8424, Note_on_c, 4, 50, 0
6, 8544, Note_on_c, 4, 45, 110
6, 8568, Note_on_c, 4, 45, 0
6, 8688, Note_on_c, 4, 38, 110
6, 8712, Note_on_c, 4, 38, 0
6, 8832, Note_on_c, 4, 43, 110
6, 8856, Note_on_c, 4, 43, 0
6, 8976, Note_on_c, 4, 45, 110
6, 9000, Note_on_c, 4, 45, 0
6, 9120, Note_on_c, 4, 33, 110
6, 9144, Note_on_c, 4, 33, 0
6, 9264, Note_on_c, 4, 38, 110
6, 9288, Note_on_c, 4, 38, 0
6, 9408, Note_on_c, 4, 43, 110
6, 9432, Note_on_c, 4, 43, 0
6, 9552, Note_on_c, 4, 45, 110
6, 9576, Note_on_c, 4, 45, 0
6, 9696, Note_on_c, 4, 33, 110
6, 9720, Note_on_c, 4, 33, 0
6, 9840, Note_on_c, 4, 38, 110
6, 9864, Note_on_c, 4, 38, 0
6, 9936, Note_on_c, 4, 31, 110
6, 9960, Note_on_c, 4, 31, 0
6, 9984, Note_on_c, 4, 31, 110
6, 10008, Note_on_c, 4, 31, 0
6, 10128, Note_on_c, 4, 36, 110
6, 10152, Note_on_c, 4, 36, 0
6, 10272, Note_on_c, 4, 43, 110
6, 10296, Note_on_c, 4, 43, 0
6, 10416, Note_on_c, 4, 48, 110
6, 10440, Note_on_c, 4, 48, 0
6, 10464, Note_on_c, 4, 43, 110
6, 10488, Note_on_c, 4, 43, 0
6, 10512, Note_on_c, 4, 43, 110
6, 10536, Note_on_c, 4, 43, 0
6, 10560, Note_on_c, 4, 31, 110
6, 10584, Note_on_c, 4, 31, 0
6, 10704, Note_on_c, 4, 36, 110
6, 10728, Note_on_c, 4, 36, 0
6, 10848, Note_on_c, 4, 48, 110
6, 10872, Note_on_c, 4, 48, 0
6, 10992, Note_on_c, 4, 48, 110
6, 11016, Note_on_c, 4, 48, 0
6, 11136, Note_on_c, 4, 43, 110
6, 11160, Note_on_c, 4, 43, 0
6, 12432, Program_c, 4, 32
6, 12432, Note_on_c, 4, 48, 63
6, 12477, Note_on_c, 4, 48, 0
6, 12576, Note_on_c, 4, 41, 70
6, 12621, Note_on_c, 4, 41, 0
6, 12720, Note_on_c, 4, 38, 78
6, 12765, Note_on_c, 4, 38, 0
6, 12864, Note_on_c, 4, 43, 86
6, 12909, Note_on_c, 4, 43, 0
6, 13008, Note_on_c, 4, 48, 94
6, 13053, Note_on_c, 4, 48, 0
6, 13152, Note_on_c, 4, 43, 102
6, 13197, Note_on_c, 4, 43, 0
6, 13296, Note_on_c, 4, 31, 110
6, 13341, Note_on_c, 4, 31, 0
6, 13440, Program_c, 4, 48
6, 13440, Note_on_c, 4, 36, 120
6, 13475, Note_on_c, 4, 36, 0
6, 13512, Note_on_c, 4, 24, 113
6, 13524, Note_on_c, 4, 24, 0
6, 13536, Note_on_c, 4, 24, 113
6, 13560, Note_on_c, 4, 24, 0
6, 13584, Note_on_c, 4, 36, 120
6, 13619, Note_on_c, 4, 36, 0
6, 13656, Note_on_c, 4, 24, 113
6, 13668, Note_on_c, 4, 24, 0
6, 13680, Note_on_c, 4, 24, 113
6, 13704, Note_on_c, 4, 24, 0
6, 13728, Note_on_c, 4, 36, 120
6, 13763, Note_on_c, 4, 36, 0
6, 13800, Note_on_c, 4, 24, 113
6, 13812, Note_on_c, 4, 24, 0
6, 13824, Note_on_c, 4, 24, 113
6, 13848, Note_on_c, 4, 24, 0
6, 13872, Note_on_c, 4, 36, 120
6, 13907, Note_on_c, 4, 36, 0
6, 13944, Note_on_c, 4, 24, 113
6, 13956, Note_on_c, 4, 24, 0
6, 13968, Note_on_c, 4, 24, 113
6, 13992, Note_on_c, 4, 24, 0
6, 14016, Note_on_c, 4, 36, 120
6, 14051, Note_on_c, 4, 36, 0
6, 14088, Note_on_c, 4, 24, 113
6, 14100, Note_on_c, 4, 24, 0
6, 14112, Note_on_c, 4, 24, 113
6, 14136, Note_on_c, 4, 24, 0
6, 14160, Note_on_c, 4, 36, 120
6, 14195, Note_on_c, 4, 36, 0
6, 14232, Note_on_c, 4, 24, 113
6, 14244, Note_on_c, 4, 24, 0
6, 14256, Note_on_c, 4, 24, 113
6, 14280, Note_on_c, 4, 24, 0
6, 14304, Note_on_c, 4, 36, 120
6, 14339, Note_on_c, 4, 36, 0
6, 14376, Note_on_c, 4, 24, 113
6, 14388, Note_on_c, 4, 24, 0
6, 14400, Note_on_c, 4, 24, 113
6, 14424, Note_on_c, 4, 24, 0
6, 14448, Note_on_c, 4, 36, 120
6, 14483, Note_on_c, 4, 36, 0
6, 14520, Note_on_c, 4, 24, 113
6, 14532, Note_on_c, 4, 24, 0
6, 14544, Note_on_c, 4, 24, 113
6, 14568, Note_on_c, 4, 24, 0
6, 14592, Note_on_c, 4, 36, 120
6, 14627, Note_on_c, 4, 36, 0
6, 14664, Note_on_c, 4, 24, 113
6, 14676, Note_on_c, 4, 24, 0
6, 14688, Note_on_c, 4, 24, 113
6, 14712, Note_on_c, 4, 24, 0
6, 14736, Note_on_c, 4, 36, 120
6, 14771, Note_on_c, 4, 36, 0
6, 14808, Note_on_c, 4, 24, 113
6, 14820, Note_on_c, 4, 24, 0
6, 14832, Note_on_c, 4, 24, 113
6, 14856, Note_on_c, 4, 24, 0
6, 14880, Note_on_c, 4, 36, 120
6, 14915, Note_on_c, 4, 36, 0
6, 14952, Note_on_c, 4, 24, 113
6, 14964, Note_on_c, 4, 24, 0
6, 14976, Note_on_c, 4, 24, 113
6, 15000, Note_on_c, 4, 24, 0
6, 15024, Note_on_c, 4, 36, 120
6, 15059, Note_on_c, 4, 36, 0
6, 15096, Note_on_c, 4, 24, 113
6, 15108, Note_on_c, 4, 24, 0
6, 15120, Note_on_c, 4, 24, 113
6, 15144, Note_on_c, 4, 24, 0
6, 15168, Note_on_c, 4, 36, 120
6, 15203, Note_on_c, 4, 36, 0
6, 15240, Note_on_c, 4, 24, 113
6, 15252, Note_on_c, 4, 24, 0
6, 15264, Note_on_c, 4, 24, 113
6, 15288, Note_on_c, 4, 24, 0
6, 15312, Note_on_c, 4, 36, 120
6, 15347, Note_on_c, 4, 36, 0
6, 15384, Note_on_c, 4, 24, 113
6, 15396, Note_on_c, 4, 24, 0
6, 15408, Note_on_c, 4, 24, 113
6, 15432, Note_on_c, 4, 24, 0
6, 15456, Note_on_c, 4, 36, 120
6, 15491, Note_on_c, 4, 36, 0
6, 15528, Note_on_c, 4, 24, 113
6, 15540, Note_on_c, 4, 24, 0
6, 15552, Note_on_c, 4, 24, 113
6, 15576, Note_on_c, 4, 24, 0
6, 15600, Note_on_c, 4, 36, 120
6, 15635, Note_on_c, 4, 36, 0
6, 15672, Note_on_c, 4, 24, 113
6, 15684, Note_on_c, 4, 24, 0
6, 15696, Note_on_c, 4, 24, 113
6, 15720, Note_on_c, 4, 24, 0
6, 15744, Note_on_c, 4, 36, 113
6, 15768, Note_on_c, 4, 36, 0
6, 16032, Note_on_c, 4, 41, 120
6, 16067, Note_on_c, 4, 41, 0
6, 16104, Note_on_c, 4, 29, 113
6, 16116, Note_on_c, 4, 29, 0
6, 16128, Note_on_c, 4, 29, 113
6, 16152, Note_on_c, 4, 29, 0
6, 16176, Note_on_c, 4, 41, 113
6, 16200, Note_on_c, 4, 41, 0
6, 16224, Note_on_c, 4, 38, 113
6, 16248, Note_on_c, 4, 38, 0
6, 16272, Note_on_c, 4, 36, 113
6, 16296, Note_on_c, 4, 36, 0
6, 16320, Note_on_c, 4, 35, 113
6, 16344, Note_on_c, 4, 35, 0
6, 16608, Note_on_c, 4, 52, 120
6, 16643, Note_on_c, 4, 52, 0
6, 16680, Note_on_c, 4, 40, 113
6, 16692, Note_on_c, 4, 40, 0
6, 16704, Note_on_c, 4, 40, 113
6, 16728, Note_on_c, 4, 40, 0
6, 16752, Note_on_c, 4, 52, 117
6, 16776, Note_on_c, 4, 52, 0
6, 16800, Note_on_c, 4, 48, 113
6, 16824, Note_on_c, 4, 48, 0
6, 16848, Note_on_c, 4, 47, 113
6, 16872, Note_on_c, 4, 47, 0
6, 16896, Control_c, 4, 11, 60
6, 16896, Note_on_c, 4, 46, 113
6, 17184, Control_c, 4, 11, 60
6, 17199, Control_c, 4, 11, 61
6, 17213, Control_c, 4, 11, 62
6, 17228, Control_c, 4, 11, 63
6, 17242, Control_c, 4, 11, 64
6, 17256, Control_c, 4, 11, 65
6, 17271, Control_c, 4, 11, 66
6, 17285, Control_c, 4, 11, 67
6, 17299, Control_c, 4, 11, 68
6, 17314, Control_c, 4, 11, 69
6, 17328, Control_c, 4, 11, 70
6, 17342, Control_c, 4, 11, 71
6, 17357, Control_c, 4, 11, 72
6, 17371, Control_c, 4, 11, 73
6, 17376, Note_on_c, 4, 46, 0
6, 17376, Note_on_c, 4, 45, 113
6, 17385, Control_c, 4, 11, 74
6, 17400, Control_c, 4, 11, 75
6, 17414, Control_c, 4, 11, 76
6, 17424, Note_on_c, 4, 45, 0
6, 17424, Note_on_c, 4, 43, 113
6, 17428, Control_c, 4, 11, 77
6, 17443, Control_c, 4, 11, 78
6, 17457, Control_c, 4, 11, 79
6, 17471, Control_c, 4, 11, 80
6, 17472, Note_on_c, 4, 43, 0
6, 17472, Note_on_c, 4, 45, 113
6, 17487, Control_c, 4, 11, 79
6, 17501, Control_c, 4, 11, 78
6, 17516, Control_c, 4, 11, 77
6, 17520, Note_on_c, 4, 45, 0
6, 17520, Note_on_c, 4, 43, 113
6, 17530, Control_c, 4, 11, 76
6, 17544, Control_c, 4, 11, 75
6, 17559, Control_c, 4, 11, 74
6, 17568, Note_on_c, 4, 43, 0
6, 17568, Note_on_c, 4, 42, 113
6, 17573, Control_c, 4, 11, 73
6, 17587, Control_c, 4, 11, 72
6, 17602, Control_c, 4, 11, 71
6, 17616, Note_on_c, 4, 42, 0
6, 17616, Note_on_c, 4, 43, 113
6, 17616, Control_c, 4, 11, 70
6, 17630, Control_c, 4, 11, 69
6, 17645, Control_c, 4, 11, 68
6, 17659, Control_c, 4, 11, 67
6, 17673, Control_c, 4, 11, 66
6, 17688, Control_c, 4, 11, 65
6, 17702, Control_c, 4, 11, 64
6, 17716, Control_c, 4, 11, 63
6, 17731, Control_c, 4, 11, 62
6, 17745, Control_c, 4, 11, 61
6, 17759, Control_c, 4, 11, 60
6, 17760, Note_on_c, 4, 43, 0
6, 18624, Control_c, 4, 11, 120
6, 18624, Note_on_c, 4, 43, 105
6, 18648, Note_on_c, 4, 43, 0
6, 18672, Note_on_c, 4, 48, 100
6, 18696, Note_on_c, 4, 48, 0
6, 18720, Note_on_c, 4, 45, 100
6, 18744, Note_on_c, 4, 45, 0
6, 18768, Note_on_c, 4, 41, 105
6, 18792, Note_on_c, 4, 41, 0
6, 18816, Note_on_c, 4, 43, 100
6, 18840, Note_on_c, 4, 43, 0
6, 18864, Note_on_c, 4, 31, 100
6, 18888, Note_on_c, 4, 31, 0
6, 18912, Note_on_c, 4, 36, 105
6, 18936, Note_on_c, 4, 36, 0
6, 19200, Note_on_c, 4, 43, 105
6, 19224, Note_on_c, 4, 43, 0
6, 19248, Note_on_c, 4, 40, 100
6, 19272, Note_on_c, 4, 40, 0
6, 19296, Note_on_c, 4, 45, 100
6, 19320, Note_on_c, 4, 45, 0
6, 19344, Note_on_c, 4, 41, 105
6, 19368, Note_on_c, 4, 41, 0
6, 19392, Note_on_c, 4, 38, 100
6, 19416, Note_on_c, 4, 38, 0
6, 19440, Note_on_c, 4, 43, 100
6, 19464, Note_on_c, 4, 43, 0
6, 19488, Note_on_c, 4, 36, 100
6, 19512, Note_on_c, 4, 36, 0
6, 19632, Note_on_c, 4, 55, 110
6, 19667, Note_on_c, 4, 55, 0
6, 19704, Note_on_c, 4, 43, 100
6, 19716, Note_on_c, 4, 43, 0
6, 19728, Note_on_c, 4, 43, 100
6, 19752, Note_on_c, 4, 43, 0
6, 19776, Note_on_c, 4, 36, 105
6, 19800, Note_on_c, 4, 36, 0
6, 19920, Note_on_c, 4, 55, 110
6, 19955, Note_on_c, 4, 55, 0
6, 19992, Note_on_c, 4, 43, 100
6, 20004, Note_on_c, 4, 43, 0
6, 20016, Note_on_c, 4, 43, 100
6, 20040, Note_on_c, 4, 43, 0
6, 20064, Note_on_c, 4, 31, 55
6, 20088, Note_on_c, 4, 31, 0
6, 20112, Note_on_c, 4, 31, 50
6, 20136, Note_on_c, 4, 31, 0
6, 20160, Note_on_c, 4, 31, 50
6, 20184, Note_on_c, 4, 31, 0
6, 20208, Note_on_c, 4, 31, 55
6, 20232, Note_on_c, 4, 31, 0
6, 20256, Note_on_c, 4, 31, 50
6, 20280, Note_on_c, 4, 31, 0
6, 20304, Note_on_c, 4, 31, 50
6, 20328, Note_on_c, 4, 31, 0
6, 20352, Note_on_c, 4, 31, 55
6, 20376, Note_on_c, 4, 31, 0
6, 20400, Note_on_c, 4, 31, 50
6, 20424, Note_on_c, 4, 31, 0
6, 20448, Note_on_c, 4, 31, 50
6, 20472, Note_on_c, 4, 31, 0
6, 20496, Note_on_c, 4, 31, 55
6, 20520, Note_on_c, 4, 31, 0
6, 20544, Note_on_c, 4, 31, 50
6, 20568, Note_on_c, 4, 31, 0
6, 20592, Note_on_c, 4, 31, 50
6, 20616, Note_on_c, 4, 31, 0
6, 20640, Note_on_c, 4, 24, 60
6, 20675, Note_on_c, 4, 24, 0
6, 20712, Note_on_c, 4, 36, 50
6, 20724, Note_on_c, 4, 36, 0
6, 20736, Note_on_c, 4, 36, 50
6, 20760, Note_on_c, 4, 36, 0
6, 20784, Note_on_c, 4, 33, 55
6, 20808, Note_on_c, 4, 33, 0
6, 20928, Note_on_c, 4, 29, 60
6, 20963, Note_on_c, 4, 29, 0
6, 21000, Note_on_c, 4, 41, 50
6, 21012, Note_on_c, 4, 41, 0
6, 21024, Note_on_c, 4, 41, 50
6, 21048, Note_on_c, 4, 41, 0
6, 21072, Note_on_c, 4, 38, 55
6, 21096, Note_on_c, 4, 38, 0
6, 24096, Note_on_c, 4, 45, 60
6, 24131, Note_on_c, 4, 45, 0
6, 24168, Note_on_c, 4, 33, 50
6, 24180, Note_on_c, 4, 33, 0
6, 24192, Note_on_c, 4, 33, 50
6, 24216, Note_on_c, 4, 33, 0
6, 24240, Note_on_c, 4, 38, 55
6, 24264, Note_on_c, 4, 38, 0
6, 24288, Note_on_c, 4, 40, 50
6, 24312, Note_on_c, 4, 40, 0
6, 24336, Note_on_c, 4, 41, 50
6, 24360, Note_on_c, 4, 41, 0
6, 24384, Note_on_c, 4, 40, 55
6, 24408, Note_on_c, 4, 40, 0
6, 24432, Note_on_c, 4, 41, 50
6, 24456, Note_on_c, 4, 41, 0
6, 24480, Note_on_c, 4, 43, 50
6, 24504, Note_on_c, 4, 43, 0
6, 24528, Note_on_c, 4, 41, 55
6, 24552, Note_on_c, 4, 41, 0
6, 24576, Note_on_c, 4, 40, 50
6, 24600, Note_on_c, 4, 40, 0
6, 24624, Note_on_c, 4, 38, 50
6, 24648, Note_on_c, 4, 38, 0
6, 24672, Note_on_c, 4, 41, 55
6, 24696, Note_on_c, 4, 41, 0
6, 24720, Note_on_c, 4, 40, 50
6, 24744, Note_on_c, 4, 40, 0
6, 24768, Note_on_c, 4, 38, 50
6, 24792, Note_on_c, 4, 38, 0
6, 24816, Note_on_c, 4, 36, 55
6, 24840, Note_on_c, 4, 36, 0
6, 24864, Note_on_c, 4, 35, 50
6, 24888, Note_on_c, 4, 35, 0
6, 24912, Note_on_c, 4, 33, 50
6, 24936, Note_on_c, 4, 33, 0
6, 24960, Note_on_c, 4, 32, 55
6, 24984, Note_on_c, 4, 32, 0
6, 25008, Note_on_c, 4, 33, 50
6, 25032, Note_on_c, 4, 33, 0
6, 25056, Note_on_c, 4, 35, 50
6, 25080, Note_on_c, 4, 35, 0
6, 25104, Note_on_c, 4, 33, 55
6, 25128, Note_on_c, 4, 33, 0
6, 25152, Note_on_c, 4, 32, 50
6, 25176, Note_on_c, 4, 32, 0
6, 25200, Note_on_c, 4, 33, 50
6, 25224, Note_on_c, 4, 33, 0
6, 25248, Note_on_c, 4, 33, 55
6, 25272, Note_on_c, 4, 33, 0
6, 25296, Note_on_c, 4, 33, 50
6, 25320, Note_on_c, 4, 33, 0
6, 25344, Note_on_c, 4, 33, 50
6, 25368, Note_on_c, 4, 33, 0
6, 25392, Note_on_c, 4, 33, 55
6, 25416, Note_on_c, 4, 33, 0
6, 25440, Note_on_c, 4, 33, 50
6, 25464, Note_on_c, 4, 33, 0
6, 25488, Note_on_c, 4, 33, 50
6, 25512, Note_on_c, 4, 33, 0
6, 25536, Note_on_c, 4, 33, 55
6, 25560, Note_on_c, 4, 33, 0
6, 25584, Note_on_c, 4, 33, 50
6, 25608, Note_on_c, 4, 33, 0
6, 25632, Note_on_c, 4, 33, 50
6, 25656, Note_on_c, 4, 33, 0
6, 25680, Note_on_c, 4, 33, 55
6, 25704, Note_on_c, 4, 33, 0
6, 25728, Note_on_c, 4, 33, 50
6, 25752, Note_on_c, 4, 33, 0
6, 25776, Note_on_c, 4, 33, 50
6, 25800, Note_on_c, 4, 33, 0
6, 25824, Note_on_c, 4, 33, 55
6, 25848, Note_on_c, 4, 33, 0
6, 25872, Note_on_c, 4, 33, 50
6, 25896, Note_on_c, 4, 33, 0
6, 25920, Note_on_c, 4, 33, 50
6, 25944, Note_on_c, 4, 33, 0
6, 25968, Note_on_c, 4, 33, 55
6, 25992, Note_on_c, 4, 33, 0
6, 26016, Note_on_c, 4, 33, 50
6, 26040, Note_on_c, 4, 33, 0
6, 26064, Note_on_c, 4, 33, 50
6, 26088, Note_on_c, 4, 33, 0
6, 26112, Note_on_c, 4, 33, 55
6, 26136, Note_on_c, 4, 33, 0
6, 26160, Note_on_c, 4, 33, 50
6, 26184, Note_on_c, 4, 33, 0
6, 26208, Note_on_c, 4, 33, 50
6, 26232, Note_on_c, 4, 33, 0
6, 26256, Note_on_c, 4, 33, 55
6, 26280, Note_on_c, 4, 33, 0
6, 26304, Note_on_c, 4, 33, 50
6, 26328, Note_on_c, 4, 33, 0
6, 26352, Note_on_c, 4, 33, 50
6, 26376, Note_on_c, 4, 33, 0
6, 26400, Note_on_c, 4, 33, 55
6, 26424, Note_on_c, 4, 33, 0
6, 26448, Note_on_c, 4, 33, 50
6, 26472, Note_on_c, 4, 33, 0
6, 26496, Note_on_c, 4, 33, 50
6, 26520, Note_on_c, 4, 33, 0
6, 26544, Note_on_c, 4, 33, 55
6, 26568, Note_on_c, 4, 33, 0
6, 26592, Note_on_c, 4, 33, 50
6, 26616, Note_on_c, 4, 33, 0
6, 26640, Note_on_c, 4, 33, 50
6, 26664, Note_on_c, 4, 33, 0
6, 26688, Note_on_c, 4, 33, 55
6, 26712, Note_on_c, 4, 33, 0
6, 26736, Note_on_c, 4, 33, 50
6, 26760, Note_on_c, 4, 33, 0
6, 26784, Note_on_c, 4, 33, 50
6, 26808, Note_on_c, 4, 33, 0
6, 26832, Note_on_c, 4, 33, 55
6, 26856, Note_on_c, 4, 33, 0
6, 26880, Note_on_c, 4, 33, 50
6, 26904, Note_on_c, 4, 33, 0
6, 26928, Note_on_c, 4, 33, 50
6, 26952, Note_on_c, 4, 33, 0
6, 26976, Note_on_c, 4, 33, 55
6, 27000, Note_on_c, 4, 33, 0
6, 27024, Note_on_c, 4, 33, 51
6, 27048, Note_on_c, 4, 33, 0
6, 27072, Note_on_c, 4, 33, 53
6, 27096, Note_on_c, 4, 33, 0
6, 27120, Note_on_c, 4, 33, 60
6, 27144, Note_on_c, 4, 33, 0
6, 27168, Note_on_c, 4, 33, 56
6, 27192, Note_on_c, 4, 33, 0
6, 27216, Note_on_c, 4, 33, 58
6, 27240, Note_on_c, 4, 33, 0
6, 27264, Note_on_c, 4, 33, 65
6, 27288, Note_on_c, 4, 33, 0
6, 27312, Note_on_c, 4, 33, 61
6, 27336, Note_on_c, 4, 33, 0
6, 27360, Note_on_c, 4, 33, 63
6, 27384, Note_on_c, 4, 33, 0
6, 27408, Note_on_c, 4, 33, 70
6, 27432, Note_on_c, 4, 33, 0
6, 27456, Note_on_c, 4, 33, 66
6, 27480, Note_on_c, 4, 33, 0
6, 27504, Note_on_c, 4, 33, 68
6, 27528, Note_on_c, 4, 33, 0
6, 27552, Note_on_c, 4, 33, 75
6, 27576, Note_on_c, 4, 33, 0
6, 27600, Note_on_c, 4, 33, 71
6, 27624, Note_on_c, 4, 33, 0
6, 27648, Note_on_c, 4, 33, 73
6, 27672, Note_on_c, 4, 33, 0
6, 27696, Note_on_c, 4, 33, 80
6, 27720, Note_on_c, 4, 33, 0
6, 27744, Note_on_c, 4, 33, 77
6, 27768, Note_on_c, 4, 33, 0
6, 27792, Note_on_c, 4, 33, 78
6, 27816, Note_on_c, 4, 33, 0
6, 27840, Note_on_c, 4, 33, 85
6, 27864, Note_on_c, 4, 33, 0
6, 27888, Note_on_c, 4, 33, 82
6, 27912, Note_on_c, 4, 33, 0
6, 27936, Note_on_c, 4, 33, 83
6, 27960, Note_on_c, 4, 33, 0
6, 27984, Note_on_c, 4, 33, 90
6, 28008, Note_on_c, 4, 33, 0
6, 28032, Note_on_c, 4, 33, 87
6, 28056, Note_on_c, 4, 33, 0
6, 28080, Note_on_c, 4, 33, 88
6, 28104, Note_on_c, 4, 33, 0
6, 28128, Note_on_c, 4, 33, 95
6, 28152, Note_on_c, 4, 33, 0
6, 28176, Note_on_c, 4, 33, 92
6, 28200, Note_on_c, 4, 33, 0
6, 28224, Note_on_c, 4, 33, 93
6, 28248, Note_on_c, 4, 33, 0
6, 28272, Note_on_c, 4, 33, 100
6, 28296, Note_on_c, 4, 33, 0
6, 28320, Note_on_c, 4, 33, 97
6, 28344, Note_on_c, 4, 33, 0
6, 28368, Note_on_c, 4, 33, 98
6, 28392, Note_on_c, 4, 33, 0
6, 28416, Note_on_c, 4, 33, 105
6, 28440, Note_on_c, 4, 33, 0
6, 28464, Note_on_c, 4, 33, 102
6, 28488, Note_on_c, 4, 33, 0
6, 28512, Note_on_c, 4, 33, 104
6, 28536, Note_on_c, 4, 33, 0
6, 28560, Note_on_c, 4, 43, 110
6, 28584, Note_on_c, 4, 43, 0
6, 28608, Note_on_c, 4, 41, 107
6, 28632, Note_on_c, 4, 41, 0
6, 28656, Note_on_c, 4, 40, 109
6, 28680, Note_on_c, 4, 40, 0
6, 28704, Note_on_c, 4, 38, 110
6, 28728, Note_on_c, 4, 38, 0
6, 28848, Note_on_c, 4, 50, 110
6, 28872, Note_on_c, 4, 50, 0
6, 28992, Note_on_c, 4, 45, 110
6, 29016, Note_on_c, 4, 45, 0
6, 29136, Note_on_c, 4, 38, 110
6, 29160, Note_on_c, 4, 38, 0
6, 29280, Note_on_c, 4, 43, 110
6, 29304, Note_on_c, 4, 43, 0
6, 29424, Note_on_c, 4, 45, 110
6, 29448, Note_on_c, 4, 45, 0
6, 29568, Note_on_c, 4, 33, 110
6, 29592, Note_on_c, 4, 33, 0
6, 29712, Note_on_c, 4, 38, 110
6, 29736, Note_on_c, 4, 38, 0
6, 29856, Note_on_c, 4, 43, 110
6, 29880, Note_on_c, 4, 43, 0
6, 30000, Note_on_c, 4, 45, 110
6, 30024, Note_on_c, 4, 45, 0
6, 30144, Note_on_c, 4, 33, 110
6, 30168, Note_on_c, 4, 33, 0
6, 30288, Note_on_c, 4, 38, 110
6, 30312, Note_on_c, 4, 38, 0
6, 30384, Note_on_c, 4, 31, 110
6, 30408, Note_on_c, 4, 31, 0
6, 30432, Note_on_c, 4, 31, 110
6, 30456, Note_on_c, 4, 31, 0
6, 30576, Note_on_c, 4, 36, 110
6, 30600, Note_on_c, 4, 36, 0
6, 30720, Note_on_c, 4, 43, 110
6, 30744, Note_on_c, 4, 43, 0
6, 30864, Note_on_c, 4, 48, 110
6, 30888, Note_on_c, 4, 48, 0
6, 30912, Note_on_c, 4, 43, 110
6, 30936, Note_on_c, 4, 43, 0
6, 30960, Note_on_c, 4, 43, 110
6, 30984, Note_on_c, 4, 43, 0
6, 31008, Note_on_c, 4, 31, 110
6, 31032, Note_on_c, 4, 31, 0
6, 31152, Note_on_c, 4, 36, 110
6, 31176, Note_on_c, 4, 36, 0
6, 31296, Note_on_c, 4, 48, 110
6, 31320, Note_on_c, 4, 48, 0
6, 31440, Note_on_c, 4, 48, 110
6, 31464, Note_on_c, 4, 48, 0
6, 31584, Note_on_c, 4, 43, 110
6, 31608, Note_on_c, 4, 43, 0
6, 32880, Program_c, 4, 32
6, 32880, Note_on_c, 4, 48, 63
6, 32925, Note_on_c, 4, 48, 0
6, 33024, Note_on_c, 4, 41, 70
6, 33069, Note_on_c, 4, 41, 0
6, 33168, Note_on_c, 4, 38, 78
6, 33213, Note_on_c, 4, 38, 0
6, 33312, Note_on_c, 4, 43, 86
6, 33357, Note_on_c, 4, 43, 0
6, 33456, Note_on_c, 4, 48, 94
6, 33501, Note_on_c, 4, 48, 0
6, 33600, Note_on_c, 4, 43, 102
6, 33645, Note_on_c, 4, 43, 0
6, 33744, Note_on_c, 4, 31, 110
6, 33789, Note_on_c, 4, 31, 0
6, 33888, Program_c, 4, 48
6, 33888, Note_on_c, 4, 36, 120
6, 33923, Note_on_c, 4, 36, 0
6, 33960, Note_on_c, 4, 24, 113
6, 33972, Note_on_c, 4, 24, 0
6, 33984, Note_on_c, 4, 24, 113
6, 34008, Note_on_c, 4, 24, 0
6, 34032, Note_on_c, 4, 36, 120
6, 34067, Note_on_c, 4, 36, 0
6, 34104, Note_on_c, 4, 24, 113
6, 34116, Note_on_c, 4, 24, 0
6, 34128, Note_on_c, 4, 24, 113
6, 34152, Note_on_c, 4, 24, 0
6, 34176, Note_on_c, 4, 36, 120
6, 34211, Note_on_c, 4, 36, 0
6, 34248, Note_on_c, 4, 24, 113
6, 34260, Note_on_c, 4, 24, 0
6, 34272, Note_on_c, 4, 24, 113
6, 34296, Note_on_c, 4, 24, 0
6, 34320, Note_on_c, 4, 36, 120
6, 34355, Note_on_c, 4, 36, 0
6, 34392, Note_on_c, 4, 24, 113
6, 34404, Note_on_c, 4, 24, 0
6, 34416, Note_on_c, 4, 24, 113
6, 34440, Note_on_c, 4, 24, 0
6, 34464, Note_on_c, 4, 36, 120
6, 34499, Note_on_c, 4, 36, 0
6, 34536, Note_on_c, 4, 24, 113
6, 34548, Note_on_c, 4, 24, 0
6, 34560, Note_on_c, 4, 24, 113
6, 34584, Note_on_c, 4, 24, 0
6, 34608, Note_on_c, 4, 36, 120
6, 34643, Note_on_c, 4, 36, 0
6, 34680, Note_on_c, 4, 24, 113
6, 34692, Note_on_c, 4, 24, 0
6, 34704, Note_on_c, 4, 24, 113
6, 34728, Note_on_c, 4, 24, 0
6, 34752, Note_on_c, 4, 36, 120
6, 34787, Note_on_c, 4, 36, 0
6, 34824, Note_on_c, 4, 24, 113
6, 34836, Note_on_c, 4, 24, 0
6, 34848, Note_on_c, 4, 24, 113
6, 34872, Note_on_c, 4, 24, 0
6, 34896, Note_on_c, 4, 36, 120
6, 34931, Note_on_c, 4, 36, 0
6, 34968, Note_on_c, 4, 24, 113
6, 34980, Note_on_c, 4, 24, 0
6, 34992, Note_on_c, 4, 24, 113
6, 35016, Note_on_c, 4, 24, 0
6, 35040, Note_on_c, 4, 36, 120
6, 35075, Note_on_c, 4, 36, 0
6, 35112, Note_on_c, 4, 24, 113
6, 35124, Note_on_c, 4, 24, 0
6, 35136, Note_on_c, 4, 24, 113
6, 35160, Note_on_c, 4, 24, 0
6, 35184, Note_on_c, 4, 36, 120
6, 35219, Note_on_c, 4, 36, 0
6, 35256, Note_on_c, 4, 24, 113
6, 35268, Note_on_c, 4, 24, 0
6, 35280, Note_on_c, 4, 24, 113
6, 35304, Note_on_c, 4, 24, 0
6, 35328, Note_on_c, 4, 36, 120
6, 35363, Note_on_c, 4, 36, 0
6, 35400, Note_on_c, 4, 24, 113
6, 35412, Note_on_c, 4, 24, 0
6, 35424, Note_on_c, 4, 24, 113
6, 35448, Note_on_c, 4, 24, 0
6, 35472, Note_on_c, 4, 36, 120
6, 35507, Note_on_c, 4, 36, 0
6, 35544, Note_on_c, 4, 24, 113
6, 35556, Note_on_c, 4, 24, 0
6, 35568, Note_on_c, 4, 24, 113
6, 35592, Note_on_c, 4, 24, 0
6, 35616, Note_on_c, 4, 36, 120
6, 35651, Note_on_c, 4, 36, 0
6, 35688, Note_on_c, 4, 24, 113
6, 35700, Note_on_c, 4, 24, 0
6, 35712, Note_on_c, 4, 24, 113
6, 35736, Note_on_c, 4, 24, 0
6, 35760, Note_on_c, 4, 36, 120
6, 35795, Note_on_c, 4, 36, 0
6, 35832, Note_on_c, 4, 24, 113
6, 35844, Note_on_c, 4, 24, 0
6, 35856, Note_on_c, 4, 24, 113
6, 35880, Note_on_c, 4, 24, 0
6, 35904, Note_on_c, 4, 36, 120
6, 35939, Note_on_c, 4, 36, 0
6, 35976, Note_on_c, 4, 24, 113
6, 35988, Note_on_c, 4, 24, 0
6, 36000, Note_on_c, 4, 24, 113
6, 36024, Note_on_c, 4, 24, 0
6, 36048, Note_on_c, 4, 36, 120
6, 36083, Note_on_c, 4, 36, 0
6, 36120, Note_on_c, 4, 24, 113
6, 36132, Note_on_c, 4, 24, 0
6, 36144, Note_on_c, 4, 24, 113
6, 36168, Note_on_c, 4, 24, 0
6, 36192, Note_on_c, 4, 36, 113
6, 36216, Note_on_c, 4, 36, 0
6, 36480, Note_on_c, 4, 41, 120
6, 36515, Note_on_c, 4, 41, 0
6, 36552, Note_on_c, 4, 29, 113
6, 36564, Note_on_c, 4, 29, 0
6, 36576, Note_on_c, 4, 29, 113
6, 36600, Note_on_c, 4, 29, 0
6, 36624, Note_on_c, 4, 41, 113
6, 36648, Note_on_c, 4, 41, 0
6, 36672, Note_on_c, 4, 38, 113
6, 36696, Note_on_c, 4, 38, 0
6, 36720, Note_on_c, 4, 36, 113
6, 36744, Note_on_c, 4, 36, 0
6, 36768, Note_on_c, 4, 35, 113
6, 36792, Note_on_c, 4, 35, 0
6, 37056, Note_on_c, 4, 52, 120
6, 37091, Note_on_c, 4, 52, 0
6, 37128, Note_on_c, 4, 40, 113
6, 37140, Note_on_c, 4, 40, 0
6, 37152, Note_on_c, 4, 40, 113
6, 37176, Note_on_c, 4, 40, 0
6, 37200, Note_on_c, 4, 52, 117
6, 37224, Note_on_c, 4, 52, 0
6, 37248, Note_on_c, 4, 48, 113
6, 37272, Note_on_c, 4, 48, 0
6, 37296, Note_on_c, 4, 47, 113
6, 37320, Note_on_c, 4, 47, 0
6, 37344, Control_c, 4, 11, 60
6, 37344, Note_on_c, 4, 46, 113
6, 37632, Control_c, 4, 11, 60
6, 37647, Control_c, 4, 11, 61
6, 37661, Control_c, 4, 11, 62
6, 37676, Control_c, 4, 11, 63
6, 37690, Control_c, 4, 11, 64
6, 37704, Control_c, 4, 11, 65
6, 37719, Control_c, 4, 11, 66
6, 37733, Control_c, 4, 11, 67
6, 37747, Control_c, 4, 11, 68
6, 37762, Control_c, 4, 11, 69
6, 37776, Control_c, 4, 11, 70
6, 37790, Control_c, 4, 11, 71
6, 37805, Control_c, 4, 11, 72
6, 37819, Control_c, 4, 11, 73
6, 37824, Note_on_c, 4, 46, 0
6, 37824, Note_on_c, 4, 45, 113
6, 37833, Control_c, 4, 11, 74
6, 37848, Control_c, 4, 11, 75
6, 37862, Control_c, 4, 11, 76
6, 37872, Note_on_c, 4, 45, 0
6, 37872, Note_on_c, 4, 43, 113
6, 37876, Control_c, 4, 11, 77
6, 37891, Control_c, 4, 11, 78
6, 37905, Control_c, 4, 11, 79
6, 37919, Control_c, 4, 11, 80
6, 37920, Note_on_c, 4, 43, 0
6, 37920, Note_on_c, 4, 45, 113
6, 37935, Control_c, 4, 11, 79
6, 37949, Control_c, 4, 11, 78
6, 37964, Control_c, 4, 11, 77
6, 37968, Note_on_c, 4, 45, 0
6, 37968, Note_on_c, 4, 43, 113
6, 37978, Control_c, 4, 11, 76
6, 37992, Control_c, 4, 11, 75
6, 38007, Control_c, 4, 11, 74
6, 38016, Note_on_c, 4, 43, 0
6, 38016, Note_on_c, 4, 42, 113
6, 38021, Control_c, 4, 11, 73
6, 38035, Control_c, 4, 11, 72
6, 38050, Control_c, 4, 11, 71
6, 38064, Note_on_c, 4, 42, 0
6, 38064, Note_on_c, 4, 43, 113
6, 38064, Control_c, 4, 11, 70
6, 38078, Control_c, 4, 11, 69
6, 38093, Control_c, 4, 11, 68
6, 38107, Control_c, 4, 11, 67
6, 38121, Control_c, 4, 11, 66
6, 38136, Control_c, 4, 11, 65
6, 38150, Control_c, 4, 11, 64
6, 38164, Control_c, 4, 11, 63
6, 38179, Control_c, 4, 11, 62
6, 38193, Control_c, 4, 11, 61
6, 38207, Control_c, 4, 11, 60
6, 38208, Note_on_c, 4, 43, 0
6, 39072, Control_c, 4, 11, 120
6, 39072, Note_on_c, 4, 43, 105
6, 39096, Note_on_c, 4, 43, 0
6, 39120, Note_on_c, 4, 48, 100
6, 39144, Note_on_c, 4, 48, 0
6, 39168, Note_on_c, 4, 45, 100
6, 39192, Note_on_c, 4, 45, 0
6, 39216, Note_on_c, 4, 41, 105
6, 39240, Note_on_c, 4, 41, 0
6, 39264, Note_on_c, 4, 43, 100
6, 39288, Note_on_c, 4, 43, 0
6, 39312, Note_on_c, 4, 31, 100
6, 39336, Note_on_c, 4, 31, 0
6, 39360, Note_on_c, 4, 36, 105
6, 39384, Note_on_c, 4, 36, 0
6, 39648, Note_on_c, 4, 43, 105
6, 39672, Note_on_c, 4, 43, 0
6, 39696, Note_on_c, 4, 40, 100
6, 39720, Note_on_c, 4, 40, 0
6, 39744, Note_on_c, 4, 45, 100
6, 39768, Note_on_c, 4, 45, 0
6, 39792, Note_on_c, 4, 41, 105
6, 39816, Note_on_c, 4, 41, 0
6, 39840, Note_on_c, 4, 38, 100
6, 39864, Note_on_c, 4, 38, 0
6, 39888, Note_on_c, 4, 43, 100
6, 39912, Note_on_c, 4, 43, 0
6, 39936, Note_on_c, 4, 36, 100
6, 39960, Note_on_c, 4, 36, 0
6, 40080, Note_on_c, 4, 55, 110
6, 40115, Note_on_c, 4, 55, 0
6, 40152, Note_on_c, 4, 43, 100
6, 40164, Note_on_c, 4, 43, 0
6, 40176, Note_on_c, 4, 43, 100
6, 40200, Note_on_c, 4, 43, 0
6, 40224, Note_on_c, 4, 36, 105
6, 40248, Note_on_c, 4, 36, 0
6, 40368, Note_on_c, 4, 55, 110
6, 40403, Note_on_c, 4, 55, 0
6, 40440, Note_on_c, 4, 43, 100
6, 40452, Note_on_c, 4, 43, 0
6, 40464, Note_on_c, 4, 43, 100
6, 40488, Note_on_c, 4, 43, 0
6, 40512, Note_on_c, 4, 31, 55
6, 40536, Note_on_c, 4, 31, 0
6, 40560, Note_on_c, 4, 31, 50
6, 40584, Note_on_c, 4, 31, 0
6, 40608, Note_on_c, 4, 31, 50
6, 40632, Note_on_c, 4, 31, 0
6, 40656, Note_on_c, 4, 31, 55
6, 40680, Note_on_c, 4, 31, 0
6, 40704, Note_on_c, 4, 31, 50
6, 40728, Note_on_c, 4, 31, 0
6, 40752, Note_on_c, 4, 31, 50
6, 40776, Note_on_c, 4, 31, 0
6, 40800, Note_on_c, 4, 31, 55
6, 40824, Note_on_c, 4, 31, 0
6, 40848, Note_on_c, 4, 31, 50
6, 40872, Note_on_c, 4, 31, 0
6, 40896, Note_on_c, 4, 31, 50
6, 40920, Note_on_c, 4, 31, 0
6, 40944, Note_on_c, 4, 31, 55
6, 40968, Note_on_c, 4, 31, 0
6, 40992, Note_on_c, 4, 31, 50
6, 41016, Note_on_c, 4, 31, 0
6, 41040, Note_on_c, 4, 31, 50
6, 41064, Note_on_c, 4, 31, 0
6, 41088, Note_on_c, 4, 24, 60
6, 41123, Note_on_c, 4, 24, 0
6, 41160, Note_on_c, 4, 36, 50
6, 41172, Note_on_c, 4, 36, 0
6, 41184, Note_on_c, 4, 36, 50
6, 41208, Note_on_c, 4, 36, 0
6, 41232, Note_on_c, 4, 33, 55
6, 41256, Note_on_c, 4, 33, 0
6, 41376, Note_on_c, 4, 29, 60
6, 41411, Note_on_c, 4, 29, 0
6, 41448, Note_on_c, 4, 41, 50
6, 41460, Note_on_c, 4, 41, 0
6, 41472, Note_on_c, 4, 41, 50
6, 41496, Note_on_c, 4, 41, 0
6, 41520, Note_on_c, 4, 38, 55
6, 41544, Note_on_c, 4, 38, 0
6, 42240, Note_on_c, 4, 26, 60
6, 42275, Note_on_c, 4, 26, 0
6, 42312, Note_on_c, 4, 38, 50
6, 42324, Note_on_c, 4, 38, 0
6, 42336, Note_on_c, 4, 38, 50
6, 42360, Note_on_c, 4, 38, 0
6, 42384, Note_on_c, 4, 34, 55
6, 42408, Note_on_c, 4, 34, 0
6, 42528, Note_on_c, 4, 31, 60
6, 42563, Note_on_c, 4, 31, 0
6, 42600, Note_on_c, 4, 43, 50
6, 42612, Note_on_c, 4, 43, 0
6, 42624, Note_on_c, 4, 43, 50
6, 42648, Note_on_c, 4, 43, 0
6, 42672, Note_on_c, 4, 39, 55
6, 42696, Note_on_c, 4, 39, 0
6, 43392, Note_on_c, 4, 39, 70
6, 43427, Note_on_c, 4, 39, 0
6, 43464, Note_on_c, 4, 51, 61
6, 43476, Note_on_c, 4, 51, 0
6, 43488, Note_on_c, 4, 51, 61
6, 43512, Note_on_c, 4, 51, 0
6, 43536, Note_on_c, 4, 48, 65
6, 43560, Note_on_c, 4, 48, 0
6, 43680, Note_on_c, 4, 32, 75
6, 43715, Note_on_c, 4, 32, 0
6, 43752, Note_on_c, 4, 44, 67
6, 43764, Note_on_c, 4, 44, 0
6, 43776, Note_on_c, 4, 44, 67
6, 43800, Note_on_c, 4, 44, 0
6, 43824, Note_on_c, 4, 41, 71
6, 43848, Note_on_c, 4, 41, 0
6, 43968, Note_on_c, 4, 37, 80
6, 44003, Note_on_c, 4, 37, 0
6, 44040, Note_on_c, 4, 49, 72
6, 44052, Note_on_c, 4, 49, 0
6, 44064, Note_on_c, 4, 49, 73
6, 44088, Note_on_c, 4, 49, 0
6, 44112, Note_on_c, 4, 46, 74
6, 44136, Note_on_c, 4, 46, 0
6, 44256, Note_on_c, 4, 30, 86
6, 44291, Note_on_c, 4, 30, 0
6, 44328, Note_on_c, 4, 42, 78
6, 44340, Note_on_c, 4, 42, 0
6, 44352, Note_on_c, 4, 42, 78
6, 44376, Note_on_c, 4, 42, 0
6, 44400, Note_on_c, 4, 39, 79
6, 44424, Note_on_c, 4, 39, 0
6, 44544, Note_on_c, 4, 35, 92
6, 44579, Note_on_c, 4, 35, 0
6, 44616, Note_on_c, 4, 47, 83
6, 44628, Note_on_c, 4, 47, 0
6, 44640, Note_on_c, 4, 47, 84
6, 44664, Note_on_c, 4, 47, 0
6, 44688, Note_on_c, 4, 44, 85
6, 44712, Note_on_c, 4, 44, 0
6, 44832, Note_on_c, 4, 40, 98
6, 44867, Note_on_c, 4, 40, 0
6, 44904, Note_on_c, 4, 52, 89
6, 44916, Note_on_c, 4, 52, 0
6, 44928, Note_on_c, 4, 52, 90
6, 44952, Note_on_c, 4, 52, 0
6, 44976, Note_on_c, 4, 49, 90
6, 45000, Note_on_c, 4, 49, 0
6, 45120, Note_on_c, 4, 33, 110
6, 45155, Note_on_c, 4, 33, 0
6, 45192, Note_on_c, 4, 45, 100
6, 45204, Note_on_c, 4, 45, 0
6, 45216, Note_on_c, 4, 45, 100
6, 45240, Note_on_c, 4, 45, 0
6, 45408, Note_on_c, 4, 34, 119
6, 45443, Note_on_c, 4, 34, 0
6, 45480, Note_on_c, 4, 46, 113
6, 45492, Note_on_c, 4, 46, 0
6, 45504, Note_on_c, 4, 46, 113
6, 45528, Note_on_c, 4, 46, 0
6, 45696, Note_on_c, 4, 35, 120
6, 45731, Note_on_c, 4, 35, 0
6, 45768, Note_on_c, 4, 47, 113
6, 45780, Note_on_c, 4, 47, 0
6, 45792, Note_on_c, 4, 47, 113
6, 45816, Note_on_c, 4, 47, 0
6, 46032, Program_c, 4, 32
6, 46176, Note_on_c, 4, 40, 60
6, 46200, Note_on_c, 4, 40, 0
6, 46320, Note_on_c, 4, 35, 57
6, 46344, Note_on_c, 4, 35, 0
6, 46608, Note_on_c, 4, 40, 60
6, 46632, Note_on_c, 4, 40, 0
6, 46752, Note_on_c, 4, 35, 57
6, 46776, Note_on_c, 4, 35, 0
6, 47040, Note_on_c, 4, 40, 60
6, 47064, Note_on_c, 4, 40, 0
6, 47184, Note_on_c, 4, 35, 57
6, 47208, Note_on_c, 4, 35, 0
6, 47472, Note_on_c, 4, 52, 60
6, 47496, Note_on_c, 4, 52, 0
6, 47616, Note_on_c, 4, 40, 57
6, 47640, Note_on_c, 4, 40, 0
6, 47904, Note_on_c, 4, 45, 60
6, 47928, Note_on_c, 4, 45, 0
6, 48048, Note_on_c, 4, 40, 57
6, 48072, Note_on_c, 4, 40, 0
6, 48336, Note_on_c, 4, 45, 60
6, 48360, Note_on_c, 4, 45, 0
6, 48480, Note_on_c, 4, 40, 57
6, 48504, Note_on_c, 4, 40, 0
6, 48768, Note_on_c, 4, 53, 60
6, 48792, Note_on_c, 4, 53, 0
6, 48912, Note_on_c, 4, 41, 57
6, 48936, Note_on_c, 4, 41, 0
6, 49200, Note_on_c, 4, 53, 60
6, 49224, Note_on_c, 4, 53, 0
6, 49344, Note_on_c, 4, 41, 57
6, 49368, Note_on_c, 4, 41, 0
6, 49632, Note_on_c, 4, 53, 60
6, 49656, Note_on_c, 4, 53, 0
6, 49776, Note_on_c, 4, 41, 57
6, 49800, Note_on_c, 4, 41, 0
6, 50064, Note_on_c, 4, 53, 60
6, 50088, Note_on_c, 4, 53, 0
6, 50208, Note_on_c, 4, 41, 57
6, 50232, Note_on_c, 4, 41, 0
6, 50352, Note_on_c, 4, 41, 60
6, 50376, Note_on_c, 4, 41, 0
6, 50496, Note_on_c, 4, 29, 57
6, 50520, Note_on_c, 4, 29, 0
6, 50640, Note_on_c, 4, 41, 60
6, 50664, Note_on_c, 4, 41, 0
6, 50784, Note_on_c, 4, 48, 50
6, 50808, Note_on_c, 4, 48, 0
6, 50928, Note_on_c, 4, 36, 47
6, 50952, Note_on_c, 4, 36, 0
6, 51072, Note_on_c, 4, 48, 50
6, 51096, Note_on_c, 4, 48, 0
6, 51216, Note_on_c, 4, 50, 50
6, 51240, Note_on_c, 4, 50, 0
6, 51360, Note_on_c, 4, 38, 47
6, 51384, Note_on_c, 4, 38, 0
6, 51504, Note_on_c, 4, 50, 50
6, 51528, Note_on_c, 4, 50, 0
6, 51648, Note_on_c, 4, 45, 50
6, 51672, Note_on_c, 4, 45, 0
6, 51792, Note_on_c, 4, 33, 47
6, 51816, Note_on_c, 4, 33, 0
6, 51936, Note_on_c, 4, 45, 50
6, 51960, Note_on_c, 4, 45, 0
6, 52080, Note_on_c, 4, 45, 50
6, 52104, Note_on_c, 4, 45, 0
6, 52224, Note_on_c, 4, 33, 47
6, 52248, Note_on_c, 4, 33, 0
6, 52368, Note_on_c, 4, 45, 50
6, 52392, Note_on_c, 4, 45, 0
6, 52512, Note_on_c, 4, 45, 50
6, 52536, Note_on_c, 4, 45, 0
6, 52656, Note_on_c, 4, 33, 47
6, 52680, Note_on_c, 4, 33, 0
6, 52800, Note_on_c, 4, 45, 50
6, 52824, Note_on_c, 4, 45, 0
6, 52944, Note_on_c, 4, 43, 55
6, 52968, Note_on_c, 4, 43, 0
6, 52992, Note_on_c, 4, 41, 50
6, 53016, Note_on_c, 4, 41, 0
6, 53040, Note_on_c, 4, 40, 50
6, 53064, Note_on_c, 4, 40, 0
6, 53088, Note_on_c, 4, 38, 55
6, 53112, Note_on_c, 4, 38, 0
6, 53232, Note_on_c, 4, 33, 50
6, 53256, Note_on_c, 4, 33, 0
6, 53520, Note_on_c, 4, 38, 50
6, 53544, Note_on_c, 4, 38, 0
6, 53664, Note_on_c, 4, 33, 47
6, 53688, Note_on_c, 4, 33, 0
6, 53952, Note_on_c, 4, 38, 50
6, 53976, Note_on_c, 4, 38, 0
6, 54096, Note_on_c, 4, 33, 47
6, 54120, Note_on_c, 4, 33, 0
6, 54240, Program_c, 4, 48
6, 54240, Note_on_c, 4, 45, 60
6, 54275, Note_on_c, 4, 45, 0
6, 54312, Note_on_c, 4, 33, 50
6, 54324, Note_on_c, 4, 33, 0
6, 54336, Note_on_c, 4, 33, 50
6, 54360, Note_on_c, 4, 33, 0
6, 54384, Note_on_c, 4, 38, 55
6, 54408, Note_on_c, 4, 38, 0
6, 54432, Note_on_c, 4, 40, 50
6, 54456, Note_on_c, 4, 40, 0
6, 54480, Note_on_c, 4, 41, 50
6, 54504, Note_on_c, 4, 41, 0
6, 54528, Note_on_c, 4, 40, 55
6, 54552, Note_on_c, 4, 40, 0
6, 54576, Note_on_c, 4, 41, 50
6, 54600, Note_on_c, 4, 41, 0
6, 54624, Note_on_c, 4, 43, 50
6, 54648, Note_on_c, 4, 43, 0
6, 54672, Note_on_c, 4, 41, 55
6, 54696, Note_on_c, 4, 41, 0
6, 54720, Note_on_c, 4, 40, 50
6, 54744, Note_on_c, 4, 40, 0
6, 54768, Note_on_c, 4, 38, 50
6, 54792, Note_on_c, 4, 38, 0
6, 54816, Note_on_c, 4, 35, 55
6, 54840, Note_on_c, 4, 35, 0
6, 54864, Note_on_c, 4, 36, 50
6, 54888, Note_on_c, 4, 36, 0
6, 54912, Note_on_c, 4, 38, 50
6, 54936, Note_on_c, 4, 38, 0
6, 54960, Note_on_c, 4, 36, 55
6, 54984, Note_on_c, 4, 36, 0
6, 55008, Note_on_c, 4, 35, 50
6, 55032, Note_on_c, 4, 35, 0
6, 55056, Note_on_c, 4, 36, 50
6, 55080, Note_on_c, 4, 36, 0
6, 55104, Note_on_c, 4, 35, 55
6, 55128, Note_on_c, 4, 35, 0
6, 55152, Note_on_c, 4, 36, 50
6, 55176, Note_on_c, 4, 36, 0
6, 55200, Note_on_c, 4, 38, 50
6, 55224, Note_on_c, 4, 38, 0
6, 55248, Note_on_c, 4, 36, 55
6, 55272, Note_on_c, 4, 36, 0
6, 55296, Note_on_c, 4, 36, 50
6, 55320, Note_on_c, 4, 36, 0
6, 55344, Note_on_c, 4, 36, 50
6, 55368, Note_on_c, 4, 36, 0
6, 55392, Note_on_c, 4, 46, 60
6, 55427, Note_on_c, 4, 46, 0
6, 55464, Note_on_c, 4, 34, 50
6, 55476, Note_on_c, 4, 34, 0
6, 55488, Note_on_c, 4, 34, 50
6, 55512, Note_on_c, 4, 34, 0
6, 55536, Note_on_c, 4, 39, 55
6, 55560, Note_on_c, 4, 39, 0
6, 55584, Note_on_c, 4, 41, 50
6, 55608, Note_on_c, 4, 41, 0
6, 55632, Note_on_c, 4, 43, 50
6, 55656, Note_on_c, 4, 43, 0
6, 55680, Note_on_c, 4, 41, 55
6, 55704, Note_on_c, 4, 41, 0
6, 55728, Note_on_c, 4, 43, 50
6, 55752, Note_on_c, 4, 43, 0
6, 55776, Note_on_c, 4, 44, 50
6, 55800, Note_on_c, 4, 44, 0
6, 55824, Note_on_c, 4, 43, 55
6, 55848, Note_on_c, 4, 43, 0
6, 55872, Note_on_c, 4, 41, 50
6, 55896, Note_on_c, 4, 41, 0
6, 55920, Note_on_c, 4, 39, 50
6, 55944, Note_on_c, 4, 39, 0
6, 55968, Note_on_c, 4, 38, 55
6, 55992, Note_on_c, 4, 38, 0
6, 56016, Note_on_c, 4, 36, 50
6, 56040, Note_on_c, 4, 36, 0
6, 56064, Note_on_c, 4, 34, 50
6, 56088, Note_on_c, 4, 34, 0
6, 56112, Note_on_c, 4, 34, 55
6, 56136, Note_on_c, 4, 34, 0
6, 56160, Note_on_c, 4, 34, 50
6, 56184, Note_on_c, 4, 34, 0
6, 56208, Note_on_c, 4, 34, 50
6, 56232, Note_on_c, 4, 34, 0
6, 56256, Note_on_c, 4, 34, 50
6, 57408, Note_on_c, 4, 34, 0
6, 57408, Control_c, 4, 11, 50
6, 57408, Note_on_c, 4, 34, 120
6, 57425, Control_c, 4, 11, 51
6, 57441, Control_c, 4, 11, 52
6, 57458, Control_c, 4, 11, 53
6, 57474, Control_c, 4, 11, 54
6, 57491, Control_c, 4, 11, 55
6, 57507, Control_c, 4, 11, 56
6, 57524, Control_c, 4, 11, 57
6, 57540, Control_c, 4, 11, 58
6, 57556, Control_c, 4, 11, 59
6, 57573, Control_c, 4, 11, 60
6, 57589, Control_c, 4, 11, 61
6, 57606, Control_c, 4, 11, 62
6, 57622, Control_c, 4, 11, 63
6, 57639, Control_c, 4, 11, 64
6, 57655, Control_c, 4, 11, 65
6, 57672, Control_c, 4, 11, 66
6, 57688, Control_c, 4, 11, 67
6, 57704, Control_c, 4, 11, 68
6, 57721, Control_c, 4, 11, 69
6, 57737, Control_c, 4, 11, 70
6, 57754, Control_c, 4, 11, 71
6, 57770, Control_c, 4, 11, 72
6, 57787, Control_c, 4, 11, 73
6, 57803, Control_c, 4, 11, 74
6, 57820, Control_c, 4, 11, 75
6, 57836, Control_c, 4, 11, 76
6, 57852, Control_c, 4, 11, 77
6, 57869, Control_c, 4, 11, 78
6, 57885, Control_c, 4, 11, 79
6, 57902, Control_c, 4, 11, 80
6, 57918, Control_c, 4, 11, 81
6, 57935, Control_c, 4, 11, 82
6, 57951, Control_c, 4, 11, 83
6, 57968, Control_c, 4, 11, 84
6, 57983, Note_on_c, 4, 34, 0
6, 57984, Note_on_c, 4, 33, 120
6, 57984, Control_c, 4, 11, 85
6, 58000, Control_c, 4, 11, 86
6, 58017, Control_c, 4, 11, 87
6, 58033, Control_c, 4, 11, 88
6, 58050, Control_c, 4, 11, 89
6, 58066, Control_c, 4, 11, 90
6, 58083, Control_c, 4, 11, 91
6, 58099, Control_c, 4, 11, 92
6, 58116, Control_c, 4, 11, 93
6, 58132, Control_c, 4, 11, 94
6, 58148, Control_c, 4, 11, 95
6, 58165, Control_c, 4, 11, 96
6, 58181, Control_c, 4, 11, 97
6, 58198, Control_c, 4, 11, 98
6, 58214, Control_c, 4, 11, 99
6, 58231, Control_c, 4, 11, 100
6, 58247, Control_c, 4, 11, 101
6, 58264, Control_c, 4, 11, 102
6, 58280, Control_c, 4, 11, 103
6, 58296, Control_c, 4, 11, 104
6, 58313, Control_c, 4, 11, 105
6, 58329, Control_c, 4, 11, 106
6, 58346, Control_c, 4, 11, 107
6, 58362, Control_c, 4, 11, 108
6, 58379, Control_c, 4, 11, 109
6, 58395, Control_c, 4, 11, 110
6, 58412, Control_c, 4, 11, 111
6, 58428, Control_c, 4, 11, 112
6, 58444, Control_c, 4, 11, 113
6, 58461, Control_c, 4, 11, 114
6, 58477, Control_c, 4, 11, 115
6, 58494, Control_c, 4, 11, 116
6, 58510, Control_c, 4, 11, 117
6, 58527, Control_c, 4, 11, 118
6, 58543, Control_c, 4, 11, 119
6, 58559, Control_c, 4, 11, 120
6, 58560, Note_on_c, 4, 33, 0
6, 58560, Control_c, 4, 11, 120
6, 58560, Note_on_c, 4, 33, 120
6, 58590, Note_on_c, 4, 33, 0
6, 58848, Note_on_c, 4, 33, 120
6, 58878, Note_on_c, 4, 33, 0
6, 59136, Note_on_c, 4, 26, 125
6, 59171, Note_on_c, 4, 26, 0
6, 59208, Note_on_c, 4, 38, 115
6, 59220, Note_on_c, 4, 38, 0
6, 59232, Note_on_c, 4, 38, 115
6, 59256, Note_on_c, 4, 38, 0
6, 59280, Note_on_c, 4, 26, 125
6, 59315, Note_on_c, 4, 26, 0
6, 59352, Note_on_c, 4, 38, 115
6, 59364, Note_on_c, 4, 38, 0
6, 59376, Note_on_c, 4, 38, 115
6, 59400, Note_on_c, 4, 38, 0
6, 59424, Note_on_c, 4, 26, 125
6, 59459, Note_on_c, 4, 26, 0
6, 59496, Note_on_c, 4, 38, 115
6, 59508, Note_on_c, 4, 38, 0
6, 59520, Note_on_c, 4, 38, 115
6, 59544, Note_on_c, 4, 38, 0
6, 59568, Note_on_c, 4, 26, 125
6, 59603, Note_on_c, 4, 26, 0
6, 59640, Note_on_c, 4, 38, 115
6, 59652, Note_on_c, 4, 38, 0
6, 59664, Note_on_c, 4, 38, 115
6, 59688, Note_on_c, 4, 38, 0
6, 59712, Note_on_c, 4, 26, 125
6, 59747, Note_on_c, 4, 26, 0
6, 59784, Note_on_c, 4, 38, 115
6, 59796, Note_on_c, 4, 38, 0
6, 59808, Note_on_c, 4, 38, 115
6, 59832, Note_on_c, 4, 38, 0
6, 59856, Note_on_c, 4, 26, 125
6, 59891, Note_on_c, 4, 26, 0
6, 59928, Note_on_c, 4, 38, 115
6, 59940, Note_on_c, 4, 38, 0
6, 59952, Note_on_c, 4, 38, 115
6, 59976, Note_on_c, 4, 38, 0
6, 60000, Note_on_c, 4, 26, 125
6, 60035, Note_on_c, 4, 26, 0
6, 60072, Note_on_c, 4, 38, 115
6, 60084, Note_on_c, 4, 38, 0
6, 60096, Note_on_c, 4, 38, 115
6, 60120, Note_on_c, 4, 38, 0
6, 60144, Note_on_c, 4, 26, 125
6, 60179, Note_on_c, 4, 26, 0
6, 60216, Note_on_c, 4, 38, 115
6, 60228, Note_on_c, 4, 38, 0
6, 60240, Note_on_c, 4, 38, 115
6, 60264, Note_on_c, 4, 38, 0
6, 60288, Note_on_c, 4, 26, 125
6, 60323, Note_on_c, 4, 26, 0
6, 60360, Note_on_c, 4, 38, 115
6, 60372, Note_on_c, 4, 38, 0
6, 60384, Note_on_c, 4, 38, 115
6, 60408, Note_on_c, 4, 38, 0
6, 60432, Note_on_c, 4, 26, 125
6, 60467, Note_on_c, 4, 26, 0
6, 60504, Note_on_c, 4, 38, 115
6, 60516, Note_on_c, 4, 38, 0
6, 60528, Note_on_c, 4, 38, 115
6, 60552, Note_on_c, 4, 38, 0
6, 60576, Note_on_c, 4, 26, 125
6, 60611, Note_on_c, 4, 26, 0
6, 60648, Note_on_c, 4, 38, 115
6, 60660, Note_on_c, 4, 38, 0
6, 60672, Note_on_c, 4, 38, 115
6, 60696, Note_on_c, 4, 38, 0
6, 60720, Note_on_c, 4, 26, 125
6, 60755, Note_on_c, 4, 26, 0
6, 60792, Note_on_c, 4, 38, 115
6, 60804, Note_on_c, 4, 38, 0
6, 60816, Note_on_c, 4, 38, 115
6, 60840, Note_on_c, 4, 38, 0
6, 60864, Note_on_c, 4, 26, 125
6, 60899, Note_on_c, 4, 26, 0
6, 60936, Note_on_c, 4, 38, 115
6, 60948, Note_on_c, 4, 38, 0
6, 60960, Note_on_c, 4, 38, 115
6, 60984, Note_on_c, 4, 38, 0
6, 61008, Note_on_c, 4, 26, 125
6, 61043, Note_on_c, 4, 26, 0
6, 61080, Note_on_c, 4, 38, 115
6, 61092, Note_on_c, 4, 38, 0
6, 61104, Note_on_c, 4, 38, 115
6, 61128, Note_on_c, 4, 38, 0
6, 61152, Note_on_c, 4, 26, 125
6, 61187, Note_on_c, 4, 26, 0
6, 61224, Note_on_c, 4, 38, 115
6, 61236, Note_on_c, 4, 38, 0
6, 61248, Note_on_c, 4, 38, 115
6, 61272, Note_on_c, 4, 38, 0
6, 61296, Note_on_c, 4, 26, 125
6, 61331, Note_on_c, 4, 26, 0
6, 61368, Note_on_c, 4, 38, 115
6, 61380, Note_on_c, 4, 38, 0
6, 61392, Note_on_c, 4, 38, 115
6, 61416, Note_on_c, 4, 38, 0
6, 61440, Note_on_c, 4, 51, 120
6, 61464, Note_on_c, 4, 51, 0
6, 61488, Note_on_c, 4, 50, 115
6, 61512, Note_on_c, 4, 50, 0
6, 61536, Note_on_c, 4, 48, 115
6, 61560, Note_on_c, 4, 48, 0
6, 61584, Note_on_c, 4, 46, 120
6, 61608, Note_on_c, 4, 46, 0
6, 61632, Note_on_c, 4, 45, 115
6, 61656, Note_on_c, 4, 45, 0
6, 61680, Note_on_c, 4, 43, 115
6, 61704, Note_on_c, 4, 43, 0
6, 61728, Note_on_c, 4, 42, 120
6, 61752, Note_on_c, 4, 42, 0
6, 61776, Note_on_c, 4, 43, 115
6, 61800, Note_on_c, 4, 43, 0
6, 61824, Note_on_c, 4, 45, 115
6, 61848, Note_on_c, 4, 45, 0
6, 61872, Note_on_c, 4, 43, 120
6, 61896, Note_on_c, 4, 43, 0
6, 61920, Note_on_c, 4, 45, 115
6, 61944, Note_on_c, 4, 45, 0
6, 61968, Note_on_c, 4, 46, 115
6, 61992, Note_on_c, 4, 46, 0
6, 62016, Note_on_c, 4, 51, 105
6, 62040, Note_on_c, 4, 51, 0
6, 62064, Note_on_c, 4, 50, 100
6, 62088, Note_on_c, 4, 50, 0
6, 62112, Note_on_c, 4, 48, 100
6, 62136, Note_on_c, 4, 48, 0
6, 62160, Note_on_c, 4, 46, 105
6, 62184, Note_on_c, 4, 46, 0
6, 62208, Note_on_c, 4, 45, 100
6, 62232, Note_on_c, 4, 45, 0
6, 62256, Note_on_c, 4, 43, 100
6, 62280, Note_on_c, 4, 43, 0
6, 62304, Note_on_c, 4, 53, 105
6, 62328, Note_on_c, 4, 53, 0
6, 62352, Note_on_c, 4, 51, 100
6, 62376, Note_on_c, 4, 51, 0
6, 62400, Note_on_c, 4, 50, 100
6, 62424, Note_on_c, 4, 50, 0
6, 62448, Note_on_c, 4, 48, 105
6, 62472, Note_on_c, 4, 48, 0
6, 62496, Note_on_c, 4, 46, 100
6, 62520, Note_on_c, 4, 46, 0
6, 62544, Note_on_c, 4, 45, 100
6, 62568, Note_on_c, 4, 45, 0
6, 62592, Note_on_c, 4, 55, 105
6, 62616, Note_on_c, 4, 55, 0
6, 62640, Note_on_c, 4, 53, 100
6, 62664, Note_on_c, 4, 53, 0
6, 62688, Note_on_c, 4, 51, 100
6, 62712, Note_on_c, 4, 51, 0
6, 62736, Note_on_c, 4, 50, 105
6, 62760, Note_on_c, 4, 50, 0
6, 62784, Note_on_c, 4, 48, 100
6, 62808, Note_on_c, 4, 48, 0
6, 62832, Note_on_c, 4, 46, 100
6, 62856, Note_on_c, 4, 46, 0
6, 62880, Note_on_c, 4, 45, 105
6, 62904, Note_on_c, 4, 45, 0
6, 62928, Note_on_c, 4, 43, 100
6, 62952, Note_on_c, 4, 43, 0
6, 62976, Note_on_c, 4, 41, 100
6, 63000, Note_on_c, 4, 41, 0
6, 63024, Note_on_c, 4, 39, 105
6, 63048, Note_on_c, 4, 39, 0
6, 63072, Note_on_c, 4, 38, 100
6, 63096, Note_on_c, 4, 38, 0
6, 63120, Note_on_c, 4, 36, 100
6, 63144, Note_on_c, 4, 36, 0
6, 63168, Note_on_c, 4, 34, 100
6, 63192, Note_on_c, 4, 34, 0
6, 63312, Program_c, 4, 32
6, 63312, Note_on_c, 4, 46, 60
6, 63336, Note_on_c, 4, 46, 0
6, 63456, Note_on_c, 4, 39, 60
6, 63480, Note_on_c, 4, 39, 0
6, 63600, Note_on_c, 4, 36, 60
6, 63624, Note_on_c, 4, 36, 0
6, 63744, Note_on_c, 4, 41, 60
6, 63768, Note_on_c, 4, 41, 0
6, 63888, Note_on_c, 4, 34, 60
6, 63912, Note_on_c, 4, 34, 0
6, 64032, Note_on_c, 4, 41, 60
6, 64056, Note_on_c, 4, 41, 0
6, 64176, Note_on_c, 4, 29, 60
6, 64200, Note_on_c, 4, 29, 0
6, 65904, Program_c, 4, 32
6, 65904, Note_on_c, 4, 45, 60
6, 65928, Note_on_c, 4, 45, 0
6, 66048, Note_on_c, 4, 33, 67
6, 66072, Note_on_c, 4, 33, 0
6, 66192, Note_on_c, 4, 45, 74
6, 66216, Note_on_c, 4, 45, 0
6, 66336, Note_on_c, 4, 33, 81
6, 66360, Note_on_c, 4, 33, 0
6, 66480, Note_on_c, 4, 45, 89
6, 66504, Note_on_c, 4, 45, 0
6, 66624, Note_on_c, 4, 33, 90
6, 66648, Note_on_c, 4, 33, 0
6, 66768, Note_on_c, 4, 45, 76
6, 66792, Note_on_c, 4, 45, 0
6, 66912, Note_on_c, 4, 33, 61
6, 66936, Note_on_c, 4, 33, 0
6, 67152, Note_on_c, 4, 45, 60
6, 67176, Note_on_c, 4, 45, 0
6, 67296, Note_on_c, 4, 45, 69
6, 67320, Note_on_c, 4, 45, 0
6, 67440, Note_on_c, 4, 45, 78
6, 67464, Note_on_c, 4, 45, 0
6, 67584, Note_on_c, 4, 43, 87
6, 67608, Note_on_c, 4, 43, 0
6, 67728, Note_on_c, 4, 42, 96
6, 67752, Note_on_c, 4, 42, 0
6, 67872, Note_on_c, 4, 41, 105
6, 67896, Note_on_c, 4, 41, 0
6, 68016, Note_on_c, 4, 40, 114
6, 68040, Note_on_c, 4, 40, 0
6, 68064, Program_c, 4, 48
6, 68064, Note_on_c, 4, 50, 120
6, 68099, Note_on_c, 4, 50, 0
6, 68136, Note_on_c, 4, 38, 113
6, 68148, Note_on_c, 4, 38, 0
6, 68160, Note_on_c, 4, 38, 113
6, 68184, Note_on_c, 4, 38, 0
6, 68208, Note_on_c, 4, 50, 120
6, 68243, Note_on_c, 4, 50, 0
6, 68280, Note_on_c, 4, 38, 113
6, 68292, Note_on_c, 4, 38, 0
6, 68304, Note_on_c, 4, 38, 113
6, 68328, Note_on_c, 4, 38, 0
6, 68352, Note_on_c, 4, 50, 120
6, 68387, Note_on_c, 4, 50, 0
6, 68424, Note_on_c, 4, 38, 113
6, 68436, Note_on_c, 4, 38, 0
6, 68448, Note_on_c, 4, 38, 113
6, 68472, Note_on_c, 4, 38, 0
6, 68496, Note_on_c, 4, 50, 120
6, 68531, Note_on_c, 4, 50, 0
6, 68568, Note_on_c, 4, 38, 113
6, 68580, Note_on_c, 4, 38, 0
6, 68592, Note_on_c, 4, 38, 113
6, 68616, Note_on_c, 4, 38, 0
6, 68640, Note_on_c, 4, 50, 120
6, 68675, Note_on_c, 4, 50, 0
6, 68712, Note_on_c, 4, 38, 113
6, 68724, Note_on_c, 4, 38, 0
6, 68736, Note_on_c, 4, 38, 113
6, 68760, Note_on_c, 4, 38, 0
6, 68784, Note_on_c, 4, 50, 120
6, 68819, Note_on_c, 4, 50, 0
6, 68856, Note_on_c, 4, 38, 113
6, 68868, Note_on_c, 4, 38, 0
6, 68880, Note_on_c, 4, 38, 113
6, 68904, Note_on_c, 4, 38, 0
6, 68928, Note_on_c, 4, 50, 120
6, 68963, Note_on_c, 4, 50, 0
6, 69000, Note_on_c, 4, 38, 113
6, 69012, Note_on_c, 4, 38, 0
6, 69024, Note_on_c, 4, 38, 113
6, 69048, Note_on_c, 4, 38, 0
6, 69072, Note_on_c, 4, 50, 120
6, 69107, Note_on_c, 4, 50, 0
6, 69144, Note_on_c, 4, 38, 113
6, 69156, Note_on_c, 4, 38, 0
6, 69168, Note_on_c, 4, 38, 113
6, 69192, Note_on_c, 4, 38, 0
6, 69216, Note_on_c, 4, 50, 120
6, 69251, Note_on_c, 4, 50, 0
6, 69288, Note_on_c, 4, 38, 113
6, 69300, Note_on_c, 4, 38, 0
6, 69312, Note_on_c, 4, 38, 113
6, 69336, Note_on_c, 4, 38, 0
6, 69360, Note_on_c, 4, 50, 120
6, 69395, Note_on_c, 4, 50, 0
6, 69432, Note_on_c, 4, 38, 113
6, 69444, Note_on_c, 4, 38, 0
6, 69456, Note_on_c, 4, 38, 113
6, 69480, Note_on_c, 4, 38, 0
6, 69504, Note_on_c, 4, 50, 120
6, 69539, Note_on_c, 4, 50, 0
6, 69576, Note_on_c, 4, 38, 113
6, 69588, Note_on_c, 4, 38, 0
6, 69600, Note_on_c, 4, 38, 113
6, 69624, Note_on_c, 4, 38, 0
6, 69648, Note_on_c, 4, 50, 120
6, 69683, Note_on_c, 4, 50, 0
6, 69720, Note_on_c, 4, 38, 113
6, 69732, Note_on_c, 4, 38, 0
6, 69744, Note_on_c, 4, 38, 113
6, 69768, Note_on_c, 4, 38, 0
6, 69792, Note_on_c, 4, 50, 120
6, 69827, Note_on_c, 4, 50, 0
6, 69864, Note_on_c, 4, 38, 113
6, 69876, Note_on_c, 4, 38, 0
6, 69888, Note_on_c, 4, 38, 113
6, 69912, Note_on_c, 4, 38, 0
6, 69936, Note_on_c, 4, 50, 120
6, 69971, Note_on_c, 4, 50, 0
6, 70008, Note_on_c, 4, 38, 113
6, 70020, Note_on_c, 4, 38, 0
6, 70032, Note_on_c, 4, 38, 113
6, 70056, Note_on_c, 4, 38, 0
6, 70080, Note_on_c, 4, 50, 120
6, 70115, Note_on_c, 4, 50, 0
6, 70152, Note_on_c, 4, 38, 113
6, 70164, Note_on_c, 4, 38, 0
6, 70176, Note_on_c, 4, 38, 113
6, 70200, Note_on_c, 4, 38, 0
6, 70224, Note_on_c, 4, 50, 120
6, 70259, Note_on_c, 4, 50, 0
6, 70296, Note_on_c, 4, 38, 113
6, 70308, Note_on_c, 4, 38, 0
6, 70320, Note_on_c, 4, 38, 113
6, 70344, Note_on_c, 4, 38, 0
6, 70368, Note_on_c, 4, 50, 120
6, 70392, Note_on_c, 4, 50, 0
6, 70656, Note_on_c, 4, 43, 118
6, 70691, Note_on_c, 4, 43, 0
6, 70728, Note_on_c, 4, 31, 113
6, 70740, Note_on_c, 4, 31, 0
6, 70752, Note_on_c, 4, 31, 113
6, 70776, Note_on_c, 4, 31, 0
6, 70800, Note_on_c, 4, 31, 118
6, 70824, Note_on_c, 4, 31, 0
6, 70848, Note_on_c, 4, 28, 113
6, 70872, Note_on_c, 4, 28, 0
6, 70896, Note_on_c, 4, 26, 113
6, 70920, Note_on_c, 4, 26, 0
6, 70944, Note_on_c, 4, 24, 120
6, 70944, Note_on_c, 4, 36, 120
6, 70968, Note_on_c, 4, 36, 0
6, 70968, Note_on_c, 4, 24, 0
6, 71232, Note_on_c, 4, 53, 120
6, 71267, Note_on_c, 4, 53, 0
6, 71304, Note_on_c, 4, 41, 113
6, 71316, Note_on_c, 4, 41, 0
6, 71328, Note_on_c, 4, 41, 113
6, 71352, Note_on_c, 4, 41, 0
6, 71376, Note_on_c, 4, 41, 118
6, 71400, Note_on_c, 4, 41, 0
6, 71424, Note_on_c, 4, 38, 113
6, 71448, Note_on_c, 4, 38, 0
6, 71472, Note_on_c, 4, 36, 113
6, 71496, Note_on_c, 4, 36, 0
6, 71520, Control_c, 4, 11, 60
6, 71520, Note_on_c, 4, 36, 95
6, 71613, Note_on_c, 4, 36, 0
6, 71616, Note_on_c, 4, 48, 105
6, 71658, Note_on_c, 4, 48, 0
6, 71664, Note_on_c, 4, 46, 100
6, 71808, Control_c, 4, 11, 60
6, 71823, Control_c, 4, 11, 61
6, 71837, Control_c, 4, 11, 62
6, 71852, Control_c, 4, 11, 63
6, 71866, Control_c, 4, 11, 64
6, 71880, Control_c, 4, 11, 65
6, 71895, Control_c, 4, 11, 66
6, 71909, Control_c, 4, 11, 67
6, 71923, Control_c, 4, 11, 68
6, 71938, Control_c, 4, 11, 69
6, 71952, Control_c, 4, 11, 70
6, 71967, Control_c, 4, 11, 71
6, 71981, Control_c, 4, 11, 72
6, 71995, Control_c, 4, 11, 73
6, 72000, Note_on_c, 4, 46, 0
6, 72000, Note_on_c, 4, 44, 100
6, 72010, Control_c, 4, 11, 74
6, 72024, Control_c, 4, 11, 75
6, 72038, Control_c, 4, 11, 76
6, 72048, Note_on_c, 4, 44, 0
6, 72048, Note_on_c, 4, 43, 100
6, 72053, Control_c, 4, 11, 77
6, 72067, Control_c, 4, 11, 78
6, 72081, Control_c, 4, 11, 79
6, 72096, Note_on_c, 4, 43, 0
6, 72096, Note_on_c, 4, 43, 100
6, 72096, Control_c, 4, 11, 80
6, 72110, Control_c, 4, 11, 81
6, 72125, Control_c, 4, 11, 82
6, 72139, Control_c, 4, 11, 83
6, 72153, Control_c, 4, 11, 84
6, 72168, Control_c, 4, 11, 85
6, 72182, Control_c, 4, 11, 86
6, 72196, Control_c, 4, 11, 87
6, 72211, Control_c, 4, 11, 88
6, 72225, Control_c, 4, 11, 89
6, 72239, Note_on_c, 4, 43, 0
6, 72239, Control_c, 4, 11, 90
6, 72240, Control_c, 4, 11, 90
6, 72240, Note_on_c, 4, 45, 100
6, 72245, Control_c, 4, 11, 89
6, 72250, Control_c, 4, 11, 88
6, 72255, Control_c, 4, 11, 87
6, 72260, Control_c, 4, 11, 86
6, 72264, Control_c, 4, 11, 85
6, 72269, Control_c, 4, 11, 84
6, 72274, Control_c, 4, 11, 83
6, 72279, Control_c, 4, 11, 82
6, 72283, Control_c, 4, 11, 81
6, 72288, Control_c, 4, 11, 80
6, 72293, Control_c, 4, 11, 79
6, 72298, Control_c, 4, 11, 78
6, 72302, Control_c, 4, 11, 77
6, 72307, Control_c, 4, 11, 76
6, 72312, Control_c, 4, 11, 75
6, 72317, Control_c, 4, 11, 74
6, 72322, Control_c, 4, 11, 73
6, 72326, Control_c, 4, 11, 72
6, 72331, Control_c, 4, 11, 71
6, 72336, Control_c, 4, 11, 70
6, 72341, Control_c, 4, 11, 69
6, 72345, Control_c, 4, 11, 68
6, 72350, Control_c, 4, 11, 67
6, 72355, Control_c, 4, 11, 66
6, 72360, Control_c, 4, 11, 65
6, 72364, Control_c, 4, 11, 64
6, 72369, Control_c, 4, 11, 63
6, 72374, Control_c, 4, 11, 62
6, 72379, Control_c, 4, 11, 61
6, 72383, Note_on_c, 4, 45, 0
6, 72383, Control_c, 4, 11, 60
6, 73248, Control_c, 4, 11, 120
6, 73248, Note_on_c, 4, 50, 105
6, 73272, Note_on_c, 4, 50, 0
6, 73296, Note_on_c, 4, 46, 100
6, 73320, Note_on_c, 4, 46, 0
6, 73344, Note_on_c, 4, 43, 100
6, 73368, Note_on_c, 4, 43, 0
6, 73392, Note_on_c, 4, 44, 105
6, 73416, Note_on_c, 4, 44, 0
6, 73440, Note_on_c, 4, 45, 100
6, 73464, Note_on_c, 4, 45, 0
6, 73488, Note_on_c, 4, 33, 100
6, 73512, Note_on_c, 4, 33, 0
6, 73536, Note_on_c, 4, 38, 105
6, 73560, Note_on_c, 4, 38, 0
6, 73824, Note_on_c, 4, 45, 105
6, 73848, Note_on_c, 4, 45, 0
6, 73872, Note_on_c, 4, 41, 100
6, 73896, Note_on_c, 4, 41, 0
6, 73920, Note_on_c, 4, 46, 100
6, 73944, Note_on_c, 4, 46, 0
6, 73968, Note_on_c, 4, 43, 105
6, 73992, Note_on_c, 4, 43, 0
6, 74016, Note_on_c, 4, 40, 100
6, 74040, Note_on_c, 4, 40, 0
6, 74064, Note_on_c, 4, 45, 100
6, 74088, Note_on_c, 4, 45, 0
6, 74112, Note_on_c, 4, 38, 100
6, 74136, Note_on_c, 4, 38, 0
6, 74256, Note_on_c, 4, 45, 110
6, 74291, Note_on_c, 4, 45, 0
6, 74328, Note_on_c, 4, 33, 100
6, 74340, Note_on_c, 4, 33, 0
6, 74352, Note_on_c, 4, 33, 100
6, 74376, Note_on_c, 4, 33, 0
6, 74400, Note_on_c, 4, 26, 105
6, 74424, Note_on_c, 4, 26, 0
6, 74544, Note_on_c, 4, 45, 110
6, 74579, Note_on_c, 4, 45, 0
6, 74616, Note_on_c, 4, 33, 100
6, 74628, Note_on_c, 4, 33, 0
6, 74640, Note_on_c, 4, 33, 100
6, 74664, Note_on_c, 4, 33, 0
6, 74688, Note_on_c, 4, 33, 55
6, 74712, Note_on_c, 4, 33, 0
6, 74736, Note_on_c, 4, 33, 50
6, 74760, Note_on_c, 4, 33, 0
6, 74784, Note_on_c, 4, 33, 50
6, 74808, Note_on_c, 4, 33, 0
6, 74832, Note_on_c, 4, 33, 55
6, 74856, Note_on_c, 4, 33, 0
6, 74880, Note_on_c, 4, 33, 50
6, 74904, Note_on_c, 4, 33, 0
6, 74928, Note_on_c, 4, 33, 50
6, 74952, Note_on_c, 4, 33, 0
6, 74976, Note_on_c, 4, 33, 55
6, 75000, Note_on_c, 4, 33, 0
6, 75024, Note_on_c, 4, 33, 50
6, 75048, Note_on_c, 4, 33, 0
6, 75072, Note_on_c, 4, 33, 50
6, 75096, Note_on_c, 4, 33, 0
6, 75120, Note_on_c, 4, 33, 55
6, 75144, Note_on_c, 4, 33, 0
6, 75168, Note_on_c, 4, 33, 50
6, 75192, Note_on_c, 4, 33, 0
6, 75216, Note_on_c, 4, 33, 50
6, 75240, Note_on_c, 4, 33, 0
6, 75264, Note_on_c, 4, 26, 60
6, 75299, Note_on_c, 4, 26, 0
6, 75336, Note_on_c, 4, 38, 50
6, 75348, Note_on_c, 4, 38, 0
6, 75360, Note_on_c, 4, 38, 50
6, 75384, Note_on_c, 4, 38, 0
6, 75408, Note_on_c, 4, 33, 55
6, 75432, Note_on_c, 4, 33, 0
6, 75552, Note_on_c, 4, 29, 60
6, 75587, Note_on_c, 4, 29, 0
6, 75624, Note_on_c, 4, 41, 50
6, 75636, Note_on_c, 4, 41, 0
6, 75648, Note_on_c, 4, 41, 50
6, 75672, Note_on_c, 4, 41, 0
6, 75696, Note_on_c, 4, 38, 55
6, 75720, Note_on_c, 4, 38, 0
6, 76416, Note_on_c, 4, 26, 60
6, 76451, Note_on_c, 4, 26, 0
6, 76488, Note_on_c, 4, 38, 50
6, 76500, Note_on_c, 4, 38, 0
6, 76512, Note_on_c, 4, 38, 50
6, 76536, Note_on_c, 4, 38, 0
6, 76560, Note_on_c, 4, 34, 55
6, 76584, Note_on_c, 4, 34, 0
6, 76704, Note_on_c, 4, 29, 60
6, 76739, Note_on_c, 4, 29, 0
6, 76776, Note_on_c, 4, 41, 50
6, 76788, Note_on_c, 4, 41, 0
6, 76800, Note_on_c, 4, 41, 50
6, 76824, Note_on_c, 4, 41, 0
6, 76848, Note_on_c, 4, 38, 55
6, 76872, Note_on_c, 4, 38, 0
6, 76992, Note_on_c, 4, 34, 60
6, 77027, Note_on_c, 4, 34, 0
6, 77064, Note_on_c, 4, 46, 50
6, 77076, Note_on_c, 4, 46, 0
6, 77088, Note_on_c, 4, 46, 50
6, 77112, Note_on_c, 4, 46, 0
6, 77136, Note_on_c, 4, 41, 55
6, 77160, Note_on_c, 4, 41, 0
6, 77280, Note_on_c, 4, 38, 60
6, 77315, Note_on_c, 4, 38, 0
6, 77352, Note_on_c, 4, 50, 50
6, 77364, Note_on_c, 4, 50, 0
6, 77376, Note_on_c, 4, 50, 50
6, 77400, Note_on_c, 4, 50, 0
6, 77424, Note_on_c, 4, 51, 55
6, 77448, Note_on_c, 4, 51, 0
6, 78144, Note_on_c, 4, 39, 70
6, 78179, Note_on_c, 4, 39, 0
6, 78216, Note_on_c, 4, 51, 61
6, 78228, Note_on_c, 4, 51, 0
6, 78240, Note_on_c, 4, 51, 61
6, 78264, Note_on_c, 4, 51, 0
6, 78288, Note_on_c, 4, 48, 65
6, 78312, Note_on_c, 4, 48, 0
6, 78432, Note_on_c, 4, 32, 75
6, 78467, Note_on_c, 4, 32, 0
6, 78504, Note_on_c, 4, 44, 67
6, 78516, Note_on_c, 4, 44, 0
6, 78528, Note_on_c, 4, 44, 67
6, 78552, Note_on_c, 4, 44, 0
6, 78576, Note_on_c, 4, 41, 71
6, 78600, Note_on_c, 4, 41, 0
6, 78720, Note_on_c, 4, 37, 80
6, 78755, Note_on_c, 4, 37, 0
6, 78792, Note_on_c, 4, 49, 72
6, 78804, Note_on_c, 4, 49, 0
6, 78816, Note_on_c, 4, 49, 73
6, 78840, Note_on_c, 4, 49, 0
6, 78864, Note_on_c, 4, 46, 74
6, 78888, Note_on_c, 4, 46, 0
6, 79008, Note_on_c, 4, 30, 86
6, 79043, Note_on_c, 4, 30, 0
6, 79080, Note_on_c, 4, 42, 78
6, 79092, Note_on_c, 4, 42, 0
6, 79104, Note_on_c, 4, 42, 78
6, 79128, Note_on_c, 4, 42, 0
6, 79152, Note_on_c, 4, 39, 79
6, 79176, Note_on_c, 4, 39, 0
6, 79296, Note_on_c, 4, 35, 92
6, 79331, Note_on_c, 4, 35, 0
6, 79368, Note_on_c, 4, 47, 83
6, 79380, Note_on_c, 4, 47, 0
6, 79392, Note_on_c, 4, 47, 84
6, 79416, Note_on_c, 4, 47, 0
6, 79440, Note_on_c, 4, 44, 85
6, 79464, Note_on_c, 4, 44, 0
6, 79584, Note_on_c, 4, 40, 98
6, 79619, Note_on_c, 4, 40, 0
6, 79656, Note_on_c, 4, 52, 89
6, 79668, Note_on_c, 4, 52, 0
6, 79680, Note_on_c, 4, 52, 90
6, 79704, Note_on_c, 4, 52, 0
6, 79728, Note_on_c, 4, 49, 90
6, 79752, Note_on_c, 4, 49, 0
6, 79872, Note_on_c, 4, 33, 110
6, 79907, Note_on_c, 4, 33, 0
6, 79944, Note_on_c, 4, 45, 100
6, 79956, Note_on_c, 4, 45, 0
6, 79968, Note_on_c, 4, 45, 100
6, 79992, Note_on_c, 4, 45, 0
6, 80160, Note_on_c, 4, 34, 119
6, 80195, Note_on_c, 4, 34, 0
6, 80232, Note_on_c, 4, 46, 113
6, 80244, Note_on_c, 4, 46, 0
6, 80256, Note_on_c, 4, 46, 113
6, 80280, Note_on_c, 4, 46, 0
6, 80448, Note_on_c, 4, 35, 120
6, 80483, Note_on_c, 4, 35, 0
6, 80520, Note_on_c, 4, 47, 113
6, 80532, Note_on_c, 4, 47, 0
6, 80544, Note_on_c, 4, 47, 113
6, 80568, Note_on_c, 4, 47, 0
6, 80784, Program_c, 4, 32
6, 80928, Note_on_c, 4, 40, 60
6, 80952, Note_on_c, 4, 40, 0
6, 81072, Note_on_c, 4, 35, 57
6, 81096, Note_on_c, 4, 35, 0
6, 81360, Note_on_c, 4, 40, 60
6, 81384, Note_on_c, 4, 40, 0
6, 81504, Note_on_c, 4, 35, 57
6, 81528, Note_on_c, 4, 35, 0
6, 81792, Note_on_c, 4, 40, 60
6, 81816, Note_on_c, 4, 40, 0
6, 81936, Note_on_c, 4, 35, 57
6, 81960, Note_on_c, 4, 35, 0
6, 82224, Note_on_c, 4, 52, 60
6, 82248, Note_on_c, 4, 52, 0
6, 82368, Note_on_c, 4, 40, 57
6, 82392, Note_on_c, 4, 40, 0
6, 82656, Note_on_c, 4, 45, 60
6, 82680, Note_on_c, 4, 45, 0
6, 82800, Note_on_c, 4, 40, 57
6, 82824, Note_on_c, 4, 40, 0
6, 83088, Note_on_c, 4, 45, 60
6, 83112, Note_on_c, 4, 45, 0
6, 83232, Note_on_c, 4, 40, 57
6, 83256, Note_on_c, 4, 40, 0
6, 83520, Note_on_c, 4, 53, 60
6, 83544, Note_on_c, 4, 53, 0
6, 83664, Note_on_c, 4, 41, 57
6, 83688, Note_on_c, 4, 41, 0
6, 83952, Note_on_c, 4, 53, 60
6, 83976, Note_on_c, 4, 53, 0
6, 84096, Note_on_c, 4, 41, 57
6, 84120, Note_on_c, 4, 41, 0
6, 84384, Note_on_c, 4, 53, 60
6, 84408, Note_on_c, 4, 53, 0
6, 84528, Note_on_c, 4, 41, 57
6, 84552, Note_on_c, 4, 41, 0
6, 84816, Note_on_c, 4, 53, 60
6, 84840, Note_on_c, 4, 53, 0
6, 84960, Note_on_c, 4, 41, 57
6, 84984, Note_on_c, 4, 41, 0
6, 85104, Note_on_c, 4, 41, 60
6, 85128, Note_on_c, 4, 41, 0
6, 85248, Note_on_c, 4, 29, 57
6, 85272, Note_on_c, 4, 29, 0
6, 85392, Note_on_c, 4, 41, 60
6, 85416, Note_on_c, 4, 41, 0
6, 85536, Note_on_c, 4, 48, 50
6, 85560, Note_on_c, 4, 48, 0
6, 85680, Note_on_c, 4, 36, 47
6, 85704, Note_on_c, 4, 36, 0
6, 85824, Note_on_c, 4, 48, 50
6, 85848, Note_on_c, 4, 48, 0
6, 85968, Note_on_c, 4, 50, 50
6, 85992, Note_on_c, 4, 50, 0
6, 86112, Note_on_c, 4, 38, 47
6, 86136, Note_on_c, 4, 38, 0
6, 86256, Note_on_c, 4, 50, 50
6, 86280, Note_on_c, 4, 50, 0
6, 86400, Note_on_c, 4, 45, 50
6, 86424, Note_on_c, 4, 45, 0
6, 86544, Note_on_c, 4, 33, 47
6, 86568, Note_on_c, 4, 33, 0
6, 86688, Note_on_c, 4, 45, 50
6, 86712, Note_on_c, 4, 45, 0
6, 86832, Note_on_c, 4, 45, 50
6, 86856, Note_on_c, 4, 45, 0
6, 86976, Note_on_c, 4, 33, 47
6, 87000, Note_on_c, 4, 33, 0
6, 87120, Note_on_c, 4, 45, 50
6, 87144, Note_on_c, 4, 45, 0
6, 87264, Note_on_c, 4, 45, 50
6, 87288, Note_on_c, 4, 45, 0
6, 87408, Note_on_c, 4, 33, 47
6, 87432, Note_on_c, 4, 33, 0
6, 87552, Note_on_c, 4, 45, 50
6, 87576, Note_on_c, 4, 45, 0
6, 87696, Note_on_c, 4, 43, 55
6, 87720, Note_on_c, 4, 43, 0
6, 87744, Note_on_c, 4, 41, 50
6, 87768, Note_on_c, 4, 41, 0
6, 87792, Note_on_c, 4, 40, 50
6, 87816, Note_on_c, 4, 40, 0
6, 87840, Note_on_c, 4, 38, 55
6, 87864, Note_on_c, 4, 38, 0
6, 87984, Note_on_c, 4, 33, 50
6, 88008, Note_on_c, 4, 33, 0
6, 88272, Note_on_c, 4, 38, 50
6, 88296, Note_on_c, 4, 38, 0
6, 88416, Note_on_c, 4, 33, 47
6, 88440, Note_on_c, 4, 33, 0
6, 88704, Note_on_c, 4, 38, 50
6, 88728, Note_on_c, 4, 38, 0
6, 88848, Note_on_c, 4, 33, 47
6, 88872, Note_on_c, 4, 33, 0
6, 88992, Program_c, 4, 48
6, 88992, Note_on_c, 4, 45, 60
6, 89027, Note_on_c, 4, 45, 0
6, 89064, Note_on_c, 4, 33, 50
6, 89076, Note_on_c, 4, 33, 0
6, 89088, Note_on_c, 4, 33, 50
6, 89112, Note_on_c, 4, 33, 0
6, 89136, Note_on_c, 4, 38, 55
6, 89160, Note_on_c, 4, 38, 0
6, 89184, Note_on_c, 4, 40, 50
6, 89208, Note_on_c, 4, 40, 0
6, 89232, Note_on_c, 4, 41, 50
6, 89256, Note_on_c, 4, 41, 0
6, 89280, Note_on_c, 4, 40, 55
6, 89304, Note_on_c, 4, 40, 0
6, 89328, Note_on_c, 4, 41, 50
6, 89352, Note_on_c, 4, 41, 0
6, 89376, Note_on_c, 4, 43, 50
6, 89400, Note_on_c, 4, 43, 0
6, 89424, Note_on_c, 4, 41, 55
6, 89448, Note_on_c, 4, 41, 0
6, 89472, Note_on_c, 4, 40, 50
6, 89496, Note_on_c, 4, 40, 0
6, 89520, Note_on_c, 4, 38, 50
6, 89544, Note_on_c, 4, 38, 0
6, 89568, Note_on_c, 4, 35, 55
6, 89592, Note_on_c, 4, 35, 0
6, 89616, Note_on_c, 4, 36, 50
6, 89640, Note_on_c, 4, 36, 0
6, 89664, Note_on_c, 4, 38, 50
6, 89688, Note_on_c, 4, 38, 0
6, 89712, Note_on_c, 4, 36, 55
6, 89736, Note_on_c, 4, 36, 0
6, 89760, Note_on_c, 4, 35, 50
6, 89784, Note_on_c, 4, 35, 0
6, 89808, Note_on_c, 4, 36, 50
6, 89832, Note_on_c, 4, 36, 0
6, 89856, Note_on_c, 4, 35, 55
6, 89880, Note_on_c, 4, 35, 0
6, 89904, Note_on_c, 4, 36, 50
6, 89928, Note_on_c, 4, 36, 0
6, 89952, Note_on_c, 4, 38, 50
6, 89976, Note_on_c, 4, 38, 0
6, 90000, Note_on_c, 4, 36, 55
6, 90024, Note_on_c, 4, 36, 0
6, 90048, Note_on_c, 4, 36, 50
6, 90072, Note_on_c, 4, 36, 0
6, 90096, Note_on_c, 4, 36, 50
6, 90120, Note_on_c, 4, 36, 0
6, 90144, Note_on_c, 4, 46, 60
6, 90179, Note_on_c, 4, 46, 0
6, 90216, Note_on_c, 4, 34, 50
6, 90228, Note_on_c, 4, 34, 0
6, 90240, Note_on_c, 4, 34, 50
6, 90264, Note_on_c, 4, 34, 0
6, 90288, Note_on_c, 4, 39, 55
6, 90312, Note_on_c, 4, 39, 0
6, 90336, Note_on_c, 4, 41, 50
6, 90360, Note_on_c, 4, 41, 0
6, 90384, Note_on_c, 4, 43, 50
6, 90408, Note_on_c, 4, 43, 0
6, 90432, Note_on_c, 4, 41, 55
6, 90456, Note_on_c, 4, 41, 0
6, 90480, Note_on_c, 4, 43, 50
6, 90504, Note_on_c, 4, 43, 0
6, 90528, Note_on_c, 4, 44, 50
6, 90552, Note_on_c, 4, 44, 0
6, 90576, Note_on_c, 4, 43, 55
6, 90600, Note_on_c, 4, 43, 0
6, 90624, Note_on_c, 4, 41, 50
6, 90648, Note_on_c, 4, 41, 0
6, 90672, Note_on_c, 4, 39, 50
6, 90696, Note_on_c, 4, 39, 0
6, 90720, Note_on_c, 4, 38, 55
6, 90744, Note_on_c, 4, 38, 0
6, 90768, Note_on_c, 4, 36, 50
6, 90792, Note_on_c, 4, 36, 0
6, 90816, Note_on_c, 4, 34, 50
6, 90840, Note_on_c, 4, 34, 0
6, 90864, Note_on_c, 4, 34, 55
6, 90888, Note_on_c, 4, 34, 0
6, 90912, Note_on_c, 4, 34, 50
6, 90936, Note_on_c, 4, 34, 0
6, 90960, Note_on_c, 4, 34, 50
6, 90984, Note_on_c, 4, 34, 0
6, 91008, Note_on_c, 4, 34, 50
6, 92160, Note_on_c, 4, 34, 0
6, 92160, Control_c, 4, 11, 50
6, 92160, Note_on_c, 4, 34, 120
6, 92177, Control_c, 4, 11, 51
6, 92193, Control_c, 4, 11, 52
6, 92210, Control_c, 4, 11, 53
6, 92226, Control_c, 4, 11, 54
6, 92243, Control_c, 4, 11, 55
6, 92259, Control_c, 4, 11, 56
6, 92276, Control_c, 4, 11, 57
6, 92292, Control_c, 4, 11, 58
6, 92308, Control_c, 4, 11, 59
6, 92325, Control_c, 4, 11, 60
6, 92341, Control_c, 4, 11, 61
6, 92358, Control_c, 4, 11, 62
6, 92374, Control_c, 4, 11, 63
6, 92391, Control_c, 4, 11, 64
6, 92407, Control_c, 4, 11, 65
6, 92424, Control_c, 4, 11, 66
6, 92440, Control_c, 4, 11, 67
6, 92456, Control_c, 4, 11, 68
6, 92473, Control_c, 4, 11, 69
6, 92489, Control_c, 4, 11, 70
6, 92506, Control_c, 4, 11, 71
6, 92522, Control_c, 4, 11, 72
6, 92539, Control_c, 4, 11, 73
6, 92555, Control_c, 4, 11, 74
6, 92572, Control_c, 4, 11, 75
6, 92588, Control_c, 4, 11, 76
6, 92604, Control_c, 4, 11, 77
6, 92621, Control_c, 4, 11, 78
6, 92637, Control_c, 4, 11, 79
6, 92654, Control_c, 4, 11, 80
6, 92670, Control_c, 4, 11, 81
6, 92687, Control_c, 4, 11, 82
6, 92703, Control_c, 4, 11, 83
6, 92720, Control_c, 4, 11, 84
6, 92735, Note_on_c, 4, 34, 0
6, 92736, Note_on_c, 4, 33, 120
6, 92736, Control_c, 4, 11, 85
6, 92752, Control_c, 4, 11, 86
6, 92769, Control_c, 4, 11, 87
6, 92785, Control_c, 4, 11, 88
6, 92802, Control_c, 4, 11, 89
6, 92818, Control_c, 4, 11, 90
6, 92835, Control_c, 4, 11, 91
6, 92851, Control_c, 4, 11, 92
6, 92868, Control_c, 4, 11, 93
6, 92884, Control_c, 4, 11, 94
6, 92900, Control_c, 4, 11, 95
6, 92917, Control_c, 4, 11, 96
6, 92933, Control_c, 4, 11, 97
6, 92950, Control_c, 4, 11, 98
6, 92966, Control_c, 4, 11, 99
6, 92983, Control_c, 4, 11, 100
6, 92999, Control_c, 4, 11, 101
6, 93016, Control_c, 4, 11, 102
6, 93032, Control_c, 4, 11, 103
6, 93048, Control_c, 4, 11, 104
6, 93065, Control_c, 4, 11, 105
6, 93081, Control_c, 4, 11, 106
6, 93098, Control_c, 4, 11, 107
6, 93114, Control_c, 4, 11, 108
6, 93131, Control_c, 4, 11, 109
6, 93147, Control_c, 4, 11, 110
6, 93164, Control_c, 4, 11, 111
6, 93180, Control_c, 4, 11, 112
6, 93196, Control_c, 4, 11, 113
6, 93213, Control_c, 4, 11, 114
6, 93229, Control_c, 4, 11, 115
6, 93246, Control_c, 4, 11, 116
6, 93262, Control_c, 4, 11, 117
6, 93279, Control_c, 4, 11, 118
6, 93295, Control_c, 4, 11, 119
6, 93311, Control_c, 4, 11, 120
6, 93312, Note_on_c, 4, 33, 0
6, 93312, Control_c, 4, 11, 120
6, 93312, Note_on_c, 4, 33, 120
6, 93342, Note_on_c, 4, 33, 0
6, 93600, Note_on_c, 4, 33, 120
6, 93630, Note_on_c, 4, 33, 0
6, 93888, Note_on_c, 4, 26, 125
6, 93923, Note_on_c, 4, 26, 0
6, 93960, Note_on_c, 4, 38, 115
6, 93972, Note_on_c, 4, 38, 0
6, 93984, Note_on_c, 4, 38, 115
6, 94008, Note_on_c, 4, 38, 0
6, 94032, Note_on_c, 4, 26, 125
6, 94067, Note_on_c, 4, 26, 0
6, 94104, Note_on_c, 4, 38, 115
6, 94116, Note_on_c, 4, 38, 0
6, 94128, Note_on_c, 4, 38, 115
6, 94152, Note_on_c, 4, 38, 0
6, 94176, Note_on_c, 4, 26, 125
6, 94211, Note_on_c, 4, 26, 0
6, 94248, Note_on_c, 4, 38, 115
6, 94260, Note_on_c, 4, 38, 0
6, 94272, Note_on_c, 4, 38, 115
6, 94296, Note_on_c, 4, 38, 0
6, 94320, Note_on_c, 4, 26, 125
6, 94355, Note_on_c, 4, 26, 0
6, 94392, Note_on_c, 4, 38, 115
6, 94404, Note_on_c, 4, 38, 0
6, 94416, Note_on_c, 4, 38, 115
6, 94440, Note_on_c, 4, 38, 0
6, 94464, Note_on_c, 4, 26, 125
6, 94499, Note_on_c, 4, 26, 0
6, 94536, Note_on_c, 4, 38, 115
6, 94548, Note_on_c, 4, 38, 0
6, 94560, Note_on_c, 4, 38, 115
6, 94584, Note_on_c, 4, 38, 0
6, 94608, Note_on_c, 4, 26, 125
6, 94643, Note_on_c, 4, 26, 0
6, 94680, Note_on_c, 4, 38, 115
6, 94692, Note_on_c, 4, 38, 0
6, 94704, Note_on_c, 4, 38, 115
6, 94728, Note_on_c, 4, 38, 0
6, 94752, Note_on_c, 4, 26, 125
6, 94787, Note_on_c, 4, 26, 0
6, 94824, Note_on_c, 4, 38, 115
6, 94836, Note_on_c, 4, 38, 0
6, 94848, Note_on_c, 4, 38, 115
6, 94872, Note_on_c, 4, 38, 0
6, 94896, Note_on_c, 4, 26, 125
6, 94931, Note_on_c, 4, 26, 0
6, 94968, Note_on_c, 4, 38, 115
6, 94980, Note_on_c, 4, 38, 0
6, 94992, Note_on_c, 4, 38, 115
6, 95016, Note_on_c, 4, 38, 0
6, 95040, Note_on_c, 4, 26, 125
6, 95075, Note_on_c, 4, 26, 0
6, 95112, Note_on_c, 4, 38, 115
6, 95124, Note_on_c, 4, 38, 0
6, 95136, Note_on_c, 4, 38, 115
6, 95160, Note_on_c, 4, 38, 0
6, 95184, Note_on_c, 4, 26, 125
6, 95219, Note_on_c, 4, 26, 0
6, 95256, Note_on_c, 4, 38, 115
6, 95268, Note_on_c, 4, 38, 0
6, 95280, Note_on_c, 4, 38, 115
6, 95304, Note_on_c, 4, 38, 0
6, 95328, Note_on_c, 4, 26, 125
6, 95363, Note_on_c, 4, 26, 0
6, 95400, Note_on_c, 4, 38, 115
6, 95412, Note_on_c, 4, 38, 0
6, 95424, Note_on_c, 4, 38, 115
6, 95448, Note_on_c, 4, 38, 0
6, 95472, Note_on_c, 4, 26, 125
6, 95507, Note_on_c, 4, 26, 0
6, 95544, Note_on_c, 4, 38, 115
6, 95556, Note_on_c, 4, 38, 0
6, 95568, Note_on_c, 4, 38, 115
6, 95592, Note_on_c, 4, 38, 0
6, 95616, Note_on_c, 4, 26, 125
6, 95651, Note_on_c, 4, 26, 0
6, 95688, Note_on_c, 4, 38, 115
6, 95700, Note_on_c, 4, 38, 0
6, 95712, Note_on_c, 4, 38, 115
6, 95736, Note_on_c, 4, 38, 0
6, 95760, Note_on_c, 4, 26, 125
6, 95795, Note_on_c, 4, 26, 0
6, 95832, Note_on_c, 4, 38, 115
6, 95844, Note_on_c, 4, 38, 0
6, 95856, Note_on_c, 4, 38, 115
6, 95880, Note_on_c, 4, 38, 0
6, 95904, Note_on_c, 4, 26, 125
6, 95939, Note_on_c, 4, 26, 0
6, 95976, Note_on_c, 4, 38, 115
6, 95988, Note_on_c, 4, 38, 0
6, 96000, Note_on_c, 4, 38, 115
6, 96024, Note_on_c, 4, 38, 0
6, 96048, Note_on_c, 4, 26, 125
6, 96083, Note_on_c, 4, 26, 0
6, 96120, Note_on_c, 4, 38, 115
6, 96132, Note_on_c, 4, 38, 0
6, 96144, Note_on_c, 4, 38, 115
6, 96168, Note_on_c, 4, 38, 0
6, 96192, Note_on_c, 4, 51, 120
6, 96216, Note_on_c, 4, 51, 0
6, 96240, Note_on_c, 4, 50, 115
6, 96264, Note_on_c, 4, 50, 0
6, 96288, Note_on_c, 4, 48, 115
6, 96312, Note_on_c, 4, 48, 0
6, 96336, Note_on_c, 4, 46, 120
6, 96360, Note_on_c, 4, 46, 0
6, 96384, Note_on_c, 4, 45, 115
6, 96408, Note_on_c, 4, 45, 0
6, 96432, Note_on_c, 4, 43, 115
6, 96456, Note_on_c, 4, 43, 0
6, 96480, Note_on_c, 4, 42, 120
6, 96504, Note_on_c, 4, 42, 0
6, 96528, Note_on_c, 4, 43, 115
6, 96552, Note_on_c, 4, 43, 0
6, 96576, Note_on_c, 4, 45, 115
6, 96600, Note_on_c, 4, 45, 0
6, 96624, Note_on_c, 4, 43, 120
6, 96648, Note_on_c, 4, 43, 0
6, 96672, Note_on_c, 4, 45, 115
6, 96696, Note_on_c, 4, 45, 0
6, 96720, Note_on_c, 4, 46, 115
6, 96744, Note_on_c, 4, 46, 0
6, 96768, Note_on_c, 4, 51, 105
6, 96792, Note_on_c, 4, 51, 0
6, 96816, Note_on_c, 4, 50, 100
6, 96840, Note_on_c, 4, 50, 0
6, 96864, Note_on_c, 4, 48, 100
6, 96888, Note_on_c, 4, 48, 0
6, 96912, Note_on_c, 4, 46, 105
6, 96936, Note_on_c, 4, 46, 0
6, 96960, Note_on_c, 4, 45, 100
6, 96984, Note_on_c, 4, 45, 0
6, 97008, Note_on_c, 4, 43, 100
6, 97032, Note_on_c, 4, 43, 0
6, 97056, Note_on_c, 4, 53, 105
6, 97080, Note_on_c, 4, 53, 0
6, 97104, Note_on_c, 4, 51, 100
6, 97128, Note_on_c, 4, 51, 0
6, 97152, Note_on_c, 4, 50, 100
6, 97176, Note_on_c, 4, 50, 0
6, 97200, Note_on_c, 4, 48, 105
6, 97224, Note_on_c, 4, 48, 0
6, 97248, Note_on_c, 4, 46, 100
6, 97272, Note_on_c, 4, 46, 0
6, 97296, Note_on_c, 4, 45, 100
6, 97320, Note_on_c, 4, 45, 0
6, 97344, Note_on_c, 4, 55, 105
6, 97368, Note_on_c, 4, 55, 0
6, 97392, Note_on_c, 4, 53, 100
6, 97416, Note_on_c, 4, 53, 0
6, 97440, Note_on_c, 4, 51, 100
6, 97464, Note_on_c, 4, 51, 0
6, 97488, Note_on_c, 4, 50, 105
6, 97512, Note_on_c, 4, 50, 0
6, 97536, Note_on_c, 4, 48, 100
6, 97560, Note_on_c, 4, 48, 0
6, 97584, Note_on_c, 4, 46, 100
6, 97608, Note_on_c, 4, 46, 0
6, 97632, Note_on_c, 4, 45, 105
6, 97656, Note_on_c, 4, 45, 0
6, 97680, Note_on_c, 4, 43, 100
6, 97704, Note_on_c, 4, 43, 0
6, 97728, Note_on_c, 4, 41, 100
6, 97752, Note_on_c, 4, 41, 0
6, 97776, Note_on_c, 4, 39, 105
6, 97800, Note_on_c, 4, 39, 0
6, 97824, Note_on_c, 4, 38, 100
6, 97848, Note_on_c, 4, 38, 0
6, 97872, Note_on_c, 4, 36, 100
6, 97896, Note_on_c, 4, 36, 0
6, 97920, Note_on_c, 4, 34, 100
6, 97944, Note_on_c, 4, 34, 0
6, 98064, Program_c, 4, 32
6, 98064, Note_on_c, 4, 46, 60
6, 98088, Note_on_c, 4, 46, 0
6, 98208, Note_on_c, 4, 39, 60
6, 98232, Note_on_c, 4, 39, 0
6, 98352, Note_on_c, 4, 36, 60
6, 98376, Note_on_c, 4, 36, 0
6, 98496, Note_on_c, 4, 41, 60
6, 98520, Note_on_c, 4, 41, 0
6, 98640, Note_on_c, 4, 34, 60
6, 98664, Note_on_c, 4, 34, 0
6, 98784, Note_on_c, 4, 41, 60
6, 98808, Note_on_c, 4, 41, 0
6, 98928, Note_on_c, 4, 29, 60
6, 98952, Note_on_c, 4, 29, 0
6, 100656, Program_c, 4, 32
6, 100656, Note_on_c, 4, 45, 60
6, 100680, Note_on_c, 4, 45, 0
6, 100800, Note_on_c, 4, 33, 67
6, 100824, Note_on_c, 4, 33, 0
6, 100944, Note_on_c, 4, 45, 74
6, 100968, Note_on_c, 4, 45, 0
6, 101088, Note_on_c, 4, 33, 81
6, 101112, Note_on_c, 4, 33, 0
6, 101232, Note_on_c, 4, 45, 89
6, 101256, Note_on_c, 4, 45, 0
6, 101376, Note_on_c, 4, 33, 90
6, 101400, Note_on_c, 4, 33, 0
6, 101520, Note_on_c, 4, 45, 76
6, 101544, Note_on_c, 4, 45, 0
6, 101664, Note_on_c, 4, 33, 61
6, 101688, Note_on_c, 4, 33, 0
6, 101904, Note_on_c, 4, 45, 60
6, 101928, Note_on_c, 4, 45, 0
6, 102048, Note_on_c, 4, 45, 69
6, 102072, Note_on_c, 4, 45, 0
6, 102192, Note_on_c, 4, 45, 78
6, 102216, Note_on_c, 4, 45, 0
6, 102336, Note_on_c, 4, 43, 87
6, 102360, Note_on_c, 4, 43, 0
6, 102480, Note_on_c, 4, 42, 96
6, 102504, Note_on_c, 4, 42, 0
6, 102624, Note_on_c, 4, 41, 105
6, 102648, Note_on_c, 4, 41, 0
6, 102768, Note_on_c, 4, 40, 114
6, 102792, Note_on_c, 4, 40, 0
6, 102816, Program_c, 4, 48
6, 102816, Note_on_c, 4, 50, 120
6, 102851, Note_on_c, 4, 50, 0
6, 102888, Note_on_c, 4, 38, 113
6, 102900, Note_on_c, 4, 38, 0
6, 102912, Note_on_c, 4, 38, 113
6, 102936, Note_on_c, 4, 38, 0
6, 102960, Note_on_c, 4, 50, 120
6, 102995, Note_on_c, 4, 50, 0
6, 103032, Note_on_c, 4, 38, 113
6, 103044, Note_on_c, 4, 38, 0
6, 103056, Note_on_c, 4, 38, 113
6, 103080, Note_on_c, 4, 38, 0
6, 103104, Note_on_c, 4, 50, 120
6, 103139, Note_on_c, 4, 50, 0
6, 103176, Note_on_c, 4, 38, 113
6, 103188, Note_on_c, 4, 38, 0
6, 103200, Note_on_c, 4, 38, 113
6, 103224, Note_on_c, 4, 38, 0
6, 103248, Note_on_c, 4, 50, 120
6, 103283, Note_on_c, 4, 50, 0
6, 103320, Note_on_c, 4, 38, 113
6, 103332, Note_on_c, 4, 38, 0
6, 103344, Note_on_c, 4, 38, 113
6, 103368, Note_on_c, 4, 38, 0
6, 103392, Note_on_c, 4, 50, 120
6, 103427, Note_on_c, 4, 50, 0
6, 103464, Note_on_c, 4, 38, 113
6, 103476, Note_on_c, 4, 38, 0
6, 103488, Note_on_c, 4, 38, 113
6, 103512, Note_on_c, 4, 38, 0
6, 103536, Note_on_c, 4, 50, 120
6, 103571, Note_on_c, 4, 50, 0
6, 103608, Note_on_c, 4, 38, 113
6, 103620, Note_on_c, 4, 38, 0
6, 103632, Note_on_c, 4, 38, 113
6, 103656, Note_on_c, 4, 38, 0
6, 103680, Note_on_c, 4, 50, 120
6, 103715, Note_on_c, 4, 50, 0
6, 103752, Note_on_c, 4, 38, 113
6, 103764, Note_on_c, 4, 38, 0
6, 103776, Note_on_c, 4, 38, 113
6, 103800, Note_on_c, 4, 38, 0
6, 103824, Note_on_c, 4, 50, 120
6, 103859, Note_on_c, 4, 50, 0
6, 103896, Note_on_c, 4, 38, 113
6, 103908, Note_on_c, 4, 38, 0
6, 103920, Note_on_c, 4, 38, 113
6, 103944, Note_on_c, 4, 38, 0
6, 103968, Note_on_c, 4, 50, 120
6, 104003, Note_on_c, 4, 50, 0
6, 104040, Note_on_c, 4, 38, 113
6, 104052, Note_on_c, 4, 38, 0
6, 104064, Note_on_c, 4, 38, 113
6, 104088, Note_on_c, 4, 38, 0
6, 104112, Note_on_c, 4, 50, 120
6, 104147, Note_on_c, 4, 50, 0
6, 104184, Note_on_c, 4, 38, 113
6, 104196, Note_on_c, 4, 38, 0
6, 104208, Note_on_c, 4, 38, 113
6, 104232, Note_on_c, 4, 38, 0
6, 104256, Note_on_c, 4, 50, 120
6, 104291, Note_on_c, 4, 50, 0
6, 104328, Note_on_c, 4, 38, 113
6, 104340, Note_on_c, 4, 38, 0
6, 104352, Note_on_c, 4, 38, 113
6, 104376, Note_on_c, 4, 38, 0
6, 104400, Note_on_c, 4, 50, 120
6, 104435, Note_on_c, 4, 50, 0
6, 104472, Note_on_c, 4, 38, 113
6, 104484, Note_on_c, 4, 38, 0
6, 104496, Note_on_c, 4, 38, 113
6, 104520, Note_on_c, 4, 38, 0
6, 104544, Note_on_c, 4, 50, 120
6, 104579, Note_on_c, 4, 50, 0
6, 104616, Note_on_c, 4, 38, 113
6, 104628, Note_on_c, 4, 38, 0
6, 104640, Note_on_c, 4, 38, 113
6, 104664, Note_on_c, 4, 38, 0
6, 104688, Note_on_c, 4, 50, 120
6, 104723, Note_on_c, 4, 50, 0
6, 104760, Note_on_c, 4, 38, 113
6, 104772, Note_on_c, 4, 38, 0
6, 104784, Note_on_c, 4, 38, 113
6, 104808, Note_on_c, 4, 38, 0
6, 104832, Note_on_c, 4, 50, 120
6, 104867, Note_on_c, 4, 50, 0
6, 104904, Note_on_c, 4, 38, 113
6, 104916, Note_on_c, 4, 38, 0
6, 104928, Note_on_c, 4, 38, 113
6, 104952, Note_on_c, 4, 38, 0
6, 104976, Note_on_c, 4, 50, 120
6, 105011, Note_on_c, 4, 50, 0
6, 105048, Note_on_c, 4, 38, 113
6, 105060, Note_on_c, 4, 38, 0
6, 105072, Note_on_c, 4, 38, 113
6, 105096, Note_on_c, 4, 38, 0
6, 105120, Note_on_c, 4, 50, 120
6, 105144, Note_on_c, 4, 50, 0
6, 105408, Note_on_c, 4, 43, 118
6, 105443, Note_on_c, 4, 43, 0
6, 105480, Note_on_c, 4, 31, 113
6, 105492, Note_on_c, 4, 31, 0
6, 105504, Note_on_c, 4, 31, 113
6, 105528, Note_on_c, 4, 31, 0
6, 105552, Note_on_c, 4, 31, 118
6, 105576, Note_on_c, 4, 31, 0
6, 105600, Note_on_c, 4, 28, 113
6, 105624, Note_on_c, 4, 28, 0
6, 105648, Note_on_c, 4, 26, 113
6, 105672, Note_on_c, 4, 26, 0
6, 105696, Note_on_c, 4, 24, 120
6, 105696, Note_on_c, 4, 36, 120
6, 105720, Note_on_c, 4, 36, 0
6, 105720, Note_on_c, 4, 24, 0
6, 105984, Note_on_c, 4, 53, 120
6, 106019, Note_on_c, 4, 53, 0
6, 106056, Note_on_c, 4, 41, 113
6, 106068, Note_on_c, 4, 41, 0
6, 106080, Note_on_c, 4, 41, 113
6, 106104, Note_on_c, 4, 41, 0
6, 106128, Note_on_c, 4, 41, 118
6, 106152, Note_on_c, 4, 41, 0
6, 106176, Note_on_c, 4, 38, 113
6, 106200, Note_on_c, 4, 38, 0
6, 106224, Note_on_c, 4, 36, 113
6, 106248, Note_on_c, 4, 36, 0
6, 106272, Control_c, 4, 11, 60
6, 106272, Note_on_c, 4, 36, 95
6, 106365, Note_on_c, 4, 36, 0
6, 106368, Note_on_c, 4, 48, 105
6, 106410, Note_on_c, 4, 48, 0
6, 106416, Note_on_c, 4, 46, 100
6, 106560, Control_c, 4, 11, 60
6, 106575, Control_c, 4, 11, 61
6, 106589, Control_c, 4, 11, 62
6, 106604, Control_c, 4, 11, 63
6, 106618, Control_c, 4, 11, 64
6, 106632, Control_c, 4, 11, 65
6, 106647, Control_c, 4, 11, 66
6, 106661, Control_c, 4, 11, 67
6, 106675, Control_c, 4, 11, 68
6, 106690, Control_c, 4, 11, 69
6, 106704, Control_c, 4, 11, 70
6, 106719, Control_c, 4, 11, 71
6, 106733, Control_c, 4, 11, 72
6, 106747, Control_c, 4, 11, 73
6, 106752, Note_on_c, 4, 46, 0
6, 106752, Note_on_c, 4, 44, 100
6, 106762, Control_c, 4, 11, 74
6, 106776, Control_c, 4, 11, 75
6, 106790, Control_c, 4, 11, 76
6, 106800, Note_on_c, 4, 44, 0
6, 106800, Note_on_c, 4, 43, 100
6, 106805, Control_c, 4, 11, 77
6, 106819, Control_c, 4, 11, 78
6, 106833, Control_c, 4, 11, 79
6, 106848, Note_on_c, 4, 43, 0
6, 106848, Note_on_c, 4, 43, 100
6, 106848, Control_c, 4, 11, 80
6, 106862, Control_c, 4, 11, 81
6, 106877, Control_c, 4, 11, 82
6, 106891, Control_c, 4, 11, 83
6, 106905, Control_c, 4, 11, 84
6, 106920, Control_c, 4, 11, 85
6, 106934, Control_c, 4, 11, 86
6, 106948, Control_c, 4, 11, 87
6, 106963, Control_c, 4, 11, 88
6, 106977, Control_c, 4, 11, 89
6, 106991, Note_on_c, 4, 43, 0
6, 106991, Control_c, 4, 11, 90
6, 106992, Control_c, 4, 11, 90
6, 106992, Note_on_c, 4, 45, 100
6, 106997, Control_c, 4, 11, 89
6, 107002, Control_c, 4, 11, 88
6, 107007, Control_c, 4, 11, 87
6, 107012, Control_c, 4, 11, 86
6, 107016, Control_c, 4, 11, 85
6, 107021, Control_c, 4, 11, 84
6, 107026, Control_c, 4, 11, 83
6, 107031, Control_c, 4, 11, 82
6, 107035, Control_c, 4, 11, 81
6, 107040, Control_c, 4, 11, 80
6, 107045, Control_c, 4, 11, 79
6, 107050, Control_c, 4, 11, 78
6, 107054, Control_c, 4, 11, 77
6, 107059, Control_c, 4, 11, 76
6, 107064, Control_c, 4, 11, 75
6, 107069, Control_c, 4, 11, 74
6, 107074, Control_c, 4, 11, 73
6, 107078, Control_c, 4, 11, 72
6, 107083, Control_c, 4, 11, 71
6, 107088, Control_c, 4, 11, 70
6, 107093, Control_c, 4, 11, 69
6, 107097, Control_c, 4, 11, 68
6, 107102, Control_c, 4, 11, 67
6, 107107, Control_c, 4, 11, 66
6, 107112, Control_c, 4, 11, 65
6, 107116, Control_c, 4, 11, 64
6, 107121, Control_c, 4, 11, 63
6, 107126, Control_c, 4, 11, 62
6, 107131, Control_c, 4, 11, 61
6, 107135, Note_on_c, 4, 45, 0
6, 107135, Control_c, 4, 11, 60
6, 108000, Control_c, 4, 11, 120
6, 108000, Note_on_c, 4, 50, 105
6, 108024, Note_on_c, 4, 50, 0
6, 108048, Note_on_c, 4, 46, 100
6, 108072, Note_on_c, 4, 46, 0
6, 108096, Note_on_c, 4, 43, 100
6, 108120, Note_on_c, 4, 43, 0
6, 108144, Note_on_c, 4, 44, 105
6, 108168, Note_on_c, 4, 44, 0
6, 108192, Note_on_c, 4, 45, 100
6, 108216, Note_on_c, 4, 45, 0
6, 108240, Note_on_c, 4, 33, 100
6, 108264, Note_on_c, 4, 33, 0
6, 108288, Note_on_c, 4, 38, 105
6, 108312, Note_on_c, 4, 38, 0
6, 108576, Note_on_c, 4, 45, 105
6, 108600, Note_on_c, 4, 45, 0
6, 108624, Note_on_c, 4, 41, 100
6, 108648, Note_on_c, 4, 41, 0
6, 108672, Note_on_c, 4, 46, 100
6, 108696, Note_on_c, 4, 46, 0
6, 108720, Note_on_c, 4, 43, 105
6, 108744, Note_on_c, 4, 43, 0
6, 108768, Note_on_c, 4, 40, 100
6, 108792, Note_on_c, 4, 40, 0
6, 108816, Note_on_c, 4, 45, 100
6, 108840, Note_on_c, 4, 45, 0
6, 108864, Note_on_c, 4, 38, 100
6, 108888, Note_on_c, 4, 38, 0
6, 109008, Note_on_c, 4, 45, 110
6, 109043, Note_on_c, 4, 45, 0
6, 109080, Note_on_c, 4, 33, 100
6, 109092, Note_on_c, 4, 33, 0
6, 109104, Note_on_c, 4, 33, 100
6, 109128, Note_on_c, 4, 33, 0
6, 109152, Note_on_c, 4, 26, 105
6, 109176, Note_on_c, 4, 26, 0
6, 109296, Note_on_c, 4, 45, 110
6, 109331, Note_on_c, 4, 45, 0
6, 109368, Note_on_c, 4, 33, 100
6, 109380, Note_on_c, 4, 33, 0
6, 109392, Note_on_c, 4, 33, 100
6, 109416, Note_on_c, 4, 33, 0
6, 109440, Note_on_c, 4, 33, 55
6, 109464, Note_on_c, 4, 33, 0
6, 109488, Note_on_c, 4, 33, 50
6, 109512, Note_on_c, 4, 33, 0
6, 109536, Note_on_c, 4, 33, 50
6, 109560, Note_on_c, 4, 33, 0
6, 109584, Note_on_c, 4, 33, 55
6, 109608, Note_on_c, 4, 33, 0
6, 109632, Note_on_c, 4, 33, 50
6, 109656, Note_on_c, 4, 33, 0
6, 109680, Note_on_c, 4, 33, 50
6, 109704, Note_on_c, 4, 33, 0
6, 109728, Note_on_c, 4, 33, 55
6, 109752, Note_on_c, 4, 33, 0
6, 109776, Note_on_c, 4, 33, 50
6, 109800, Note_on_c, 4, 33, 0
6, 109824, Note_on_c, 4, 33, 50
6, 109848, Note_on_c, 4, 33, 0
6, 109872, Note_on_c, 4, 33, 55
6, 109896, Note_on_c, 4, 33, 0
6, 109920, Note_on_c, 4, 33, 50
6, 109944, Note_on_c, 4, 33, 0
6, 109968, Note_on_c, 4, 33, 50
6, 109992, Note_on_c, 4, 33, 0
6, 110016, Note_on_c, 4, 26, 60
6, 110051, Note_on_c, 4, 26, 0
6, 110088, Note_on_c, 4, 38, 50
6, 110100, Note_on_c, 4, 38, 0
6, 110112, Note_on_c, 4, 38, 50
6, 110136, Note_on_c, 4, 38, 0
6, 110160, Note_on_c, 4, 33, 55
6, 110184, Note_on_c, 4, 33, 0
6, 110304, Note_on_c, 4, 29, 60
6, 110339, Note_on_c, 4, 29, 0
6, 110376, Note_on_c, 4, 41, 50
6, 110388, Note_on_c, 4, 41, 0
6, 110400, Note_on_c, 4, 41, 50
6, 110424, Note_on_c, 4, 41, 0
6, 110448, Note_on_c, 4, 38, 55
6, 110472, Note_on_c, 4, 38, 0
6, 111168, Note_on_c, 4, 38, 55
6, 111203, Note_on_c, 4, 38, 0
6, 111240, Note_on_c, 4, 50, 54
6, 111252, Note_on_c, 4, 50, 0
6, 111264, Note_on_c, 4, 50, 56
6, 111288, Note_on_c, 4, 50, 0
6, 111312, Note_on_c, 4, 45, 59
6, 111336, Note_on_c, 4, 45, 0
6, 111456, Note_on_c, 4, 41, 73
6, 111491, Note_on_c, 4, 41, 0
6, 111528, Note_on_c, 4, 53, 72
6, 111540, Note_on_c, 4, 53, 0
6, 111552, Note_on_c, 4, 53, 74
6, 111576, Note_on_c, 4, 53, 0
6, 111600, Note_on_c, 4, 50, 77
6, 111624, Note_on_c, 4, 50, 0
6, 111744, Note_on_c, 4, 34, 86
6, 111779, Note_on_c, 4, 34, 0
6, 111816, Note_on_c, 4, 46, 90
6, 111828, Note_on_c, 4, 46, 0
6, 111840, Note_on_c, 4, 46, 92
6, 111864, Note_on_c, 4, 46, 0
6, 111888, Note_on_c, 4, 43, 95
6, 111912, Note_on_c, 4, 43, 0
6, 112032, Note_on_c, 4, 34, 104
6, 112067, Note_on_c, 4, 34, 0
6, 112104, Note_on_c, 4, 46, 108
6, 112116, Note_on_c, 4, 46, 0
6, 112128, Note_on_c, 4, 46, 110
6, 112152, Note_on_c, 4, 46, 0
6, 112176, Note_on_c, 4, 45, 113
6, 112200, Note_on_c, 4, 45, 0
6, 112368, Note_on_c, 4, 37, 55
6, 112392, Note_on_c, 4, 37, 0
6, 112416, Note_on_c, 4, 38, 50
6, 112440, Note_on_c, 4, 38, 0
6, 112464, Note_on_c, 4, 40, 50
6, 112488, Note_on_c, 4, 40, 0
6, 112512, Note_on_c, 4, 41, 55
6, 112536, Note_on_c, 4, 41, 0
6, 112560, Note_on_c, 4, 40, 50
6, 112584, Note_on_c, 4, 40, 0
6, 112608, Note_on_c, 4, 38, 50
6, 112632, Note_on_c, 4, 38, 0
6, 112656, Note_on_c, 4, 36, 55
6, 112680, Note_on_c, 4, 36, 0
6, 112704, Note_on_c, 4, 34, 50
6, 112728, Note_on_c, 4, 34, 0
6, 112752, Note_on_c, 4, 33, 50
6, 112776, Note_on_c, 4, 33, 0
6, 112800, Note_on_c, 4, 31, 55
6, 112824, Note_on_c, 4, 31, 0
6, 112848, Note_on_c, 4, 33, 50
6, 112872, Note_on_c, 4, 33, 0
6, 112896, Note_on_c, 4, 34, 50
6, 112920, Note_on_c, 4, 34, 0
6, 112944, Note_on_c, 4, 37, 55
6, 112968, Note_on_c, 4, 37, 0
6, 112992, Note_on_c, 4, 38, 50
6, 113016, Note_on_c, 4, 38, 0
6, 113040, Note_on_c, 4, 40, 50
6, 113064, Note_on_c, 4, 40, 0
6, 113088, Note_on_c, 4, 41, 55
6, 113112, Note_on_c, 4, 41, 0
6, 113136, Note_on_c, 4, 40, 50
6, 113160, Note_on_c, 4, 40, 0
6, 113184, Note_on_c, 4, 38, 50
6, 113208, Note_on_c, 4, 38, 0
6, 113232, Note_on_c, 4, 36, 55
6, 113256, Note_on_c, 4, 36, 0
6, 113280, Note_on_c, 4, 34, 50
6, 113304, Note_on_c, 4, 34, 0
6, 113328, Note_on_c, 4, 33, 50
6, 113352, Note_on_c, 4, 33, 0
6, 113376, Note_on_c, 4, 31, 55
6, 113400, Note_on_c, 4, 31, 0
6, 113424, Note_on_c, 4, 33, 50
6, 113448, Note_on_c, 4, 33, 0
6, 113472, Note_on_c, 4, 34, 50
6, 113496, Note_on_c, 4, 34, 0
6, 113520, Note_on_c, 4, 45, 60
6, 113555, Note_on_c, 4, 45, 0
6, 113590, Note_on_c, 4, 33, 54
6, 113602, Note_on_c, 4, 33, 0
6, 113614, Note_on_c, 4, 33, 55
6, 113638, Note_on_c, 4, 33, 0
6, 113662, Note_on_c, 4, 38, 62
6, 113686, Note_on_c, 4, 38, 0
6, 113710, Note_on_c, 4, 40, 61
6, 113734, Note_on_c, 4, 40, 0
6, 113758, Note_on_c, 4, 41, 64
6, 113782, Note_on_c, 4, 41, 0
6, 113806, Note_on_c, 4, 45, 76
6, 113841, Note_on_c, 4, 45, 0
6, 113878, Note_on_c, 4, 33, 71
6, 113890, Note_on_c, 4, 33, 0
6, 113902, Note_on_c, 4, 33, 72
6, 113926, Note_on_c, 4, 33, 0
6, 113950, Note_on_c, 4, 38, 75
6, 113974, Note_on_c, 4, 38, 0
6, 113998, Note_on_c, 4, 40, 78
6, 114022, Note_on_c, 4, 40, 0
6, 114046, Note_on_c, 4, 41, 80
6, 114070, Note_on_c, 4, 41, 0
6, 114094, Note_on_c, 4, 45, 93
6, 114129, Note_on_c, 4, 45, 0
6, 114166, Note_on_c, 4, 33, 87
6, 114178, Note_on_c, 4, 33, 0
6, 114190, Note_on_c, 4, 33, 89
6, 114214, Note_on_c, 4, 33, 0
6, 114238, Note_on_c, 4, 38, 92
6, 114262, Note_on_c, 4, 38, 0
6, 114286, Note_on_c, 4, 40, 95
6, 114310, Note_on_c, 4, 40, 0
6, 114334, Note_on_c, 4, 41, 97
6, 114358, Note_on_c, 4, 41, 0
6, 114382, Note_on_c, 4, 45, 110
6, 114417, Note_on_c, 4, 45, 0
6, 114454, Note_on_c, 4, 33, 104
6, 114466, Note_on_c, 4, 33, 0
6, 114478, Note_on_c, 4, 33, 106
6, 114502, Note_on_c, 4, 33, 0
6, 114526, Note_on_c, 4, 38, 109
6, 114550, Note_on_c, 4, 38, 0
6, 114574, Note_on_c, 4, 40, 111
6, 114598, Note_on_c, 4, 40, 0
6, 114622, Note_on_c, 4, 41, 114
6, 114646, Note_on_c, 4, 41, 0
6, 114670, Note_on_c, 4, 57, 125
6, 114694, Note_on_c, 4, 57, 0
6, 114718, Note_on_c, 4, 45, 115
6, 114742, Note_on_c, 4, 45, 0
6, 114766, Note_on_c, 4, 50, 125
6, 114790, Note_on_c, 4, 50, 0
6, 114814, Note_on_c, 4, 38, 115
6, 114838, Note_on_c, 4, 38, 0
6, 114862, Note_on_c, 4, 45, 125
6, 114886, Note_on_c, 4, 45, 0
6, 114910, Note_on_c, 4, 33, 115
6, 114934, Note_on_c, 4, 33, 0
6, 114958, Note_on_c, 4, 45, 125
6, 114982, Note_on_c, 4, 45, 0
6, 115006, Note_on_c, 4, 33, 120
6, 115030, Note_on_c, 4, 33, 0
6, 115054, Note_on_c, 4, 38, 120
6, 115078, Note_on_c, 4, 38, 0
6, 118224, Control_c, 4, 99, 1
6, 118224, Control_c, 4, 98, 99
6, 118224, Control_c, 4, 6, 64
6, 118224, Control_c, 4, 11, 60
6, 118224, Note_on_c, 4, 38, 100
6, 118511, Note_on_c, 4, 38, 0
6, 118512, Note_on_c, 4, 37, 100
6, 118608, Control_c, 4, 11, 60
6, 118634, Control_c, 4, 11, 61
6, 118660, Control_c, 4, 11, 62
6, 118685, Control_c, 4, 11, 63
6, 118703, Note_on_c, 4, 37, 0
6, 118704, Note_on_c, 4, 35, 100
6, 118711, Control_c, 4, 11, 64
6, 118736, Control_c, 4, 11, 65
6, 118762, Control_c, 4, 11, 66
6, 118787, Control_c, 4, 11, 67
6, 118813, Control_c, 4, 11, 68
6, 118839, Control_c, 4, 11, 69
6, 118864, Control_c, 4, 11, 70
6, 118890, Control_c, 4, 11, 71
6, 118895, Note_on_c, 4, 35, 0
6, 118896, Note_on_c, 4, 33, 100
6, 118915, Control_c, 4, 11, 72
6, 118941, Control_c, 4, 11, 73
6, 118966, Control_c, 4, 11, 74
6, 118992, Control_c, 4, 11, 75
6, 119018, Control_c, 4, 11, 76
6, 119043, Control_c, 4, 11, 77
6, 119069, Control_c, 4, 11, 78
6, 119094, Control_c, 4, 11, 79
6, 119120, Control_c, 4, 11, 80
6, 119145, Control_c, 4, 11, 81
6, 119171, Control_c, 4, 11, 82
6, 119184, Note_on_c, 4, 33, 0
6, 119184, Note_on_c, 4, 31, 100
6, 119197, Control_c, 4, 11, 83
6, 119222, Control_c, 4, 11, 84
6, 119248, Control_c, 4, 11, 85
6, 119273, Control_c, 4, 11, 86
6, 119280, Note_on_c, 4, 31, 0
6, 119280, Note_on_c, 4, 30, 100
6, 119299, Control_c, 4, 11, 87
6, 119324, Control_c, 4, 11, 88
6, 119328, Note_on_c, 4, 30, 0
6, 119328, Note_on_c, 4, 42, 100
6, 119350, Control_c, 4, 11, 89
6, 119375, Control_c, 4, 11, 90
6, 119376, Note_on_c, 4, 42, 0
6, 119376, Control_c, 4, 11, 90
6, 119376, Note_on_c, 4, 40, 100
6, 119380, Control_c, 4, 11, 89
6, 119384, Control_c, 4, 11, 88
6, 119388, Control_c, 4, 11, 87
6, 119392, Control_c, 4, 11, 86
6, 119395, Control_c, 4, 11, 85
6, 119399, Control_c, 4, 11, 84
6, 119403, Control_c, 4, 11, 83
6, 119407, Control_c, 4, 11, 82
6, 119411, Control_c, 4, 11, 81
6, 119414, Control_c, 4, 11, 80
6, 119418, Control_c, 4, 11, 79
6, 119422, Control_c, 4, 11, 78
6, 119424, Note_on_c, 4, 40, 0
6, 119424, Note_on_c, 4, 43, 100
6, 119426, Control_c, 4, 11, 77
6, 119430, Control_c, 4, 11, 76
6, 119433, Control_c, 4, 11, 75
6, 119437, Control_c, 4, 11, 74
6, 119441, Control_c, 4, 11, 73
6, 119445, Control_c, 4, 11, 72
6, 119449, Control_c, 4, 11, 71
6, 119452, Control_c, 4, 11, 70
6, 119456, Control_c, 4, 11, 69
6, 119460, Control_c, 4, 11, 68
6, 119464, Control_c, 4, 11, 67
6, 119468, Control_c, 4, 11, 66
6, 119471, Control_c, 4, 11, 65
6, 119472, Note_on_c, 4, 43, 0
6, 119472, Control_c, 4, 11, 60
6, 119472, Note_on_c, 4, 45, 100
6, 119520, Note_on_c, 4, 45, 0
6, 119568, Note_on_c, 4, 33, 100
6, 119616, Note_on_c, 4, 33, 0
6, 119664, Note_on_c, 4, 38, 100
6, 119856, Note_on_c, 4, 37, 100
6, 119857, Note_on_c, 4, 38, 0
6, 119952, Control_c, 4, 11, 60
6, 119978, Control_c, 4, 11, 61
6, 120004, Control_c, 4, 11, 62
6, 120029, Control_c, 4, 11, 63
6, 120047, Note_on_c, 4, 37, 0
6, 120048, Note_on_c, 4, 35, 100
6, 120055, Control_c, 4, 11, 64
6, 120080, Control_c, 4, 11, 65
6, 120106, Control_c, 4, 11, 66
6, 120131, Control_c, 4, 11, 67
6, 120157, Control_c, 4, 11, 68
6, 120183, Control_c, 4, 11, 69
6, 120208, Control_c, 4, 11, 70
6, 120234, Control_c, 4, 11, 71
6, 120240, Note_on_c, 4, 35, 0
6, 120240, Note_on_c, 4, 33, 100
6, 120259, Control_c, 4, 11, 72
6, 120285, Control_c, 4, 11, 73
6, 120310, Control_c, 4, 11, 74
6, 120336, Control_c, 4, 11, 75
6, 120362, Control_c, 4, 11, 76
6, 120387, Control_c, 4, 11, 77
6, 120413, Control_c, 4, 11, 78
6, 120438, Control_c, 4, 11, 79
6, 120464, Control_c, 4, 11, 80
6, 120489, Control_c, 4, 11, 81
6, 120515, Control_c, 4, 11, 82
6, 120541, Control_c, 4, 11, 83
6, 120566, Control_c, 4, 11, 84
6, 120576, Note_on_c, 4, 33, 0
6, 120576, Note_on_c, 4, 31, 100
6, 120592, Control_c, 4, 11, 85
6, 120617, Control_c, 4, 11, 86
6, 120624, Note_on_c, 4, 31, 0
6, 120624, Note_on_c, 4, 30, 100
6, 120643, Control_c, 4, 11, 87
6, 120668, Control_c, 4, 11, 88
6, 120672, Note_on_c, 4, 30, 0
6, 120672, Note_on_c, 4, 42, 100
6, 120694, Control_c, 4, 11, 89
6, 120719, Control_c, 4, 11, 90
6, 120720, Note_on_c, 4, 42, 0
6, 120720, Control_c, 4, 11, 90
6, 120720, Note_on_c, 4, 40, 100
6, 120724, Control_c, 4, 11, 89
6, 120728, Control_c, 4, 11, 88
6, 120732, Control_c, 4, 11, 87
6, 120736, Control_c, 4, 11, 86
6, 120739, Control_c, 4, 11, 85
6, 120743, Control_c, 4, 11, 84
6, 120747, Control_c, 4, 11, 83
6, 120751, Control_c, 4, 11, 82
6, 120755, Control_c, 4, 11, 81
6, 120758, Control_c, 4, 11, 80
6, 120762, Control_c, 4, 11, 79
6, 120766, Control_c, 4, 11, 78
6, 120768, Note_on_c, 4, 40, 0
6, 120768, Note_on_c, 4, 42, 100
6, 120770, Control_c, 4, 11, 77
6, 120774, Control_c, 4, 11, 76
6, 120777, Control_c, 4, 11, 75
6, 120781, Control_c, 4, 11, 74
6, 120785, Control_c, 4, 11, 73
6, 120789, Control_c, 4, 11, 72
6, 120793, Control_c, 4, 11, 71
6, 120796, Control_c, 4, 11, 70
6, 120800, Control_c, 4, 11, 69
6, 120804, Control_c, 4, 11, 68
6, 120808, Control_c, 4, 11, 67
6, 120812, Control_c, 4, 11, 66
6, 120815, Control_c, 4, 11, 65
6, 120816, Note_on_c, 4, 42, 0
6, 120816, Control_c, 4, 11, 60
6, 120816, Note_on_c, 4, 45, 100
6, 120864, Note_on_c, 4, 45, 0
6, 120912, Note_on_c, 4, 33, 100
6, 120960, Note_on_c, 4, 33, 0
6, 121008, Note_on_c, 4, 38, 100
6, 121056, Note_on_c, 4, 38, 0
6, 128304, Control_c, 4, 11, 120
6, 128304, Note_on_c, 4, 38, 100
6, 128328, Note_on_c, 4, 38, 0
6, 128400, Note_on_c, 4, 50, 60
6, 128424, Note_on_c, 4, 50, 0
6, 128448, Note_on_c, 4, 49, 60
6, 128472, Note_on_c, 4, 49, 0
6, 128496, Note_on_c, 4, 50, 60
6, 128520, Note_on_c, 4, 50, 0
6, 128544, Note_on_c, 4, 47, 60
6, 128568, Note_on_c, 4, 47, 0
6, 128592, Note_on_c, 4, 45, 61
6, 128616, Note_on_c, 4, 45, 0
6, 128640, Note_on_c, 4, 43, 62
6, 128664, Note_on_c, 4, 43, 0
6, 128688, Note_on_c, 4, 42, 63
6, 128712, Note_on_c, 4, 42, 0
6, 128736, Note_on_c, 4, 40, 63
6, 128760, Note_on_c, 4, 40, 0
6, 128784, Note_on_c, 4, 38, 64
6, 128808, Note_on_c, 4, 38, 0
6, 128832, Note_on_c, 4, 36, 65
6, 128856, Note_on_c, 4, 36, 0
6, 128880, Note_on_c, 4, 35, 66
6, 128904, Note_on_c, 4, 35, 0
6, 128928, Note_on_c, 4, 37, 66
6, 128952, Note_on_c, 4, 37, 0
6, 128976, Note_on_c, 4, 38, 67
6, 129000, Note_on_c, 4, 38, 0
6, 129024, Note_on_c, 4, 42, 68
6, 129048, Note_on_c, 4, 42, 0
6, 129072, Note_on_c, 4, 45, 69
6, 129096, Note_on_c, 4, 45, 0
6, 129120, Note_on_c, 4, 49, 69
6, 129144, Note_on_c, 4, 49, 0
6, 129168, Note_on_c, 4, 50, 70
6, 129192, Note_on_c, 4, 50, 0
6, 129216, Note_on_c, 4, 49, 71
6, 129240, Note_on_c, 4, 49, 0
6, 129264, Note_on_c, 4, 50, 72
6, 129288, Note_on_c, 4, 50, 0
6, 129312, Note_on_c, 4, 47, 72
6, 129336, Note_on_c, 4, 47, 0
6, 129360, Note_on_c, 4, 45, 73
6, 129384, Note_on_c, 4, 45, 0
6, 129408, Note_on_c, 4, 43, 74
6, 129432, Note_on_c, 4, 43, 0
6, 129456, Note_on_c, 4, 42, 75
6, 129480, Note_on_c, 4, 42, 0
6, 129504, Note_on_c, 4, 40, 75
6, 129528, Note_on_c, 4, 40, 0
6, 129552, Note_on_c, 4, 38, 76
6, 129576, Note_on_c, 4, 38, 0
6, 129600, Note_on_c, 4, 36, 77
6, 129624, Note_on_c, 4, 36, 0
6, 129648, Note_on_c, 4, 35, 78
6, 129672, Note_on_c, 4, 35, 0
6, 129696, Note_on_c, 4, 37, 78
6, 129720, Note_on_c, 4, 37, 0
6, 129744, Note_on_c, 4, 38, 79
6, 129768, Note_on_c, 4, 38, 0
6, 129792, Note_on_c, 4, 42, 80
6, 129816, Note_on_c, 4, 42, 0
6, 129840, Note_on_c, 4, 45, 81
6, 129864, Note_on_c, 4, 45, 0
6, 129888, Note_on_c, 4, 49, 81
6, 129912, Note_on_c, 4, 49, 0
6, 129936, Note_on_c, 4, 50, 82
6, 129960, Note_on_c, 4, 50, 0
6, 129984, Note_on_c, 4, 49, 83
6, 130008, Note_on_c, 4, 49, 0
6, 130032, Note_on_c, 4, 50, 84
6, 130056, Note_on_c, 4, 50, 0
6, 130080, Note_on_c, 4, 47, 84
6, 130104, Note_on_c, 4, 47, 0
6, 130128, Note_on_c, 4, 45, 85
6, 130152, Note_on_c, 4, 45, 0
6, 130176, Note_on_c, 4, 43, 86
6, 130200, Note_on_c, 4, 43, 0
6, 130224, Note_on_c, 4, 42, 87
6, 130248, Note_on_c, 4, 42, 0
6, 130272, Note_on_c, 4, 40, 87
6, 130296, Note_on_c, 4, 40, 0
6, 130320, Note_on_c, 4, 38, 88
6, 130344, Note_on_c, 4, 38, 0
6, 130368, Note_on_c, 4, 36, 89
6, 130392, Note_on_c, 4, 36, 0
6, 130416, Note_on_c, 4, 35, 90
6, 130440, Note_on_c, 4, 35, 0
6, 130464, Note_on_c, 4, 37, 90
6, 130488, Note_on_c, 4, 37, 0
6, 130512, Note_on_c, 4, 38, 91
6, 130536, Note_on_c, 4, 38, 0
6, 130560, Note_on_c, 4, 42, 92
6, 130584, Note_on_c, 4, 42, 0
6, 130608, Note_on_c, 4, 45, 93
6, 130632, Note_on_c, 4, 45, 0
6, 130656, Note_on_c, 4, 49, 93
6, 130680, Note_on_c, 4, 49, 0
6, 130704, Note_on_c, 4, 50, 107
6, 130728, Note_on_c, 4, 50, 0
6, 130752, Note_on_c, 4, 49, 106
6, 130776, Note_on_c, 4, 49, 0
6, 130800, Note_on_c, 4, 50, 107
6, 130824, Note_on_c, 4, 50, 0
6, 130848, Note_on_c, 4, 47, 104
6, 130872, Note_on_c, 4, 47, 0
6, 130896, Note_on_c, 4, 45, 102
6, 130920, Note_on_c, 4, 45, 0
6, 130944, Note_on_c, 4, 43, 100
6, 130968, Note_on_c, 4, 43, 0
6, 130992, Note_on_c, 4, 42, 99
6, 131016, Note_on_c, 4, 42, 0
6, 131040, Note_on_c, 4, 40, 97
6, 131064, Note_on_c, 4, 40, 0
6, 131088, Note_on_c, 4, 38, 95
6, 131112, Note_on_c, 4, 38, 0
6, 131136, Note_on_c, 4, 36, 93
6, 131160, Note_on_c, 4, 36, 0
6, 131184, Note_on_c, 4, 35, 92
6, 131208, Note_on_c, 4, 35, 0
6, 131232, Note_on_c, 4, 31, 88
6, 131256, Note_on_c, 4, 31, 0
6, 131280, Note_on_c, 4, 33, 90
6, 131304, Note_on_c, 4, 33, 0
6, 131328, Note_on_c, 4, 45, 102
6, 131352, Note_on_c, 4, 45, 0
6, 131376, Note_on_c, 4, 38, 95
6, 131400, Note_on_c, 4, 38, 0
6, 131472, Control_c, 4, 11, 60
6, 131472, Note_on_c, 4, 38, 100
6, 131759, Note_on_c, 4, 38, 0
6, 131760, Note_on_c, 4, 37, 100
6, 131856, Control_c, 4, 11, 60
6, 131882, Control_c, 4, 11, 61
6, 131908, Control_c, 4, 11, 62
6, 131933, Control_c, 4, 11, 63
6, 131951, Note_on_c, 4, 37, 0
6, 131952, Note_on_c, 4, 35, 100
6, 131959, Control_c, 4, 11, 64
6, 131984, Control_c, 4, 11, 65
6, 132010, Control_c, 4, 11, 66
6, 132035, Control_c, 4, 11, 67
6, 132061, Control_c, 4, 11, 68
6, 132087, Control_c, 4, 11, 69
6, 132112, Control_c, 4, 11, 70
6, 132138, Control_c, 4, 11, 71
6, 132143, Note_on_c, 4, 35, 0
6, 132144, Note_on_c, 4, 33, 100
6, 132163, Control_c, 4, 11, 72
6, 132189, Control_c, 4, 11, 73
6, 132214, Control_c, 4, 11, 74
6, 132240, Control_c, 4, 11, 75
6, 132266, Control_c, 4, 11, 76
6, 132291, Control_c, 4, 11, 77
6, 132317, Control_c, 4, 11, 78
6, 132342, Control_c, 4, 11, 79
6, 132368, Control_c, 4, 11, 80
6, 132393, Control_c, 4, 11, 81
6, 132419, Control_c, 4, 11, 82
6, 132432, Note_on_c, 4, 33, 0
6, 132432, Note_on_c, 4, 31, 100
6, 132445, Control_c, 4, 11, 83
6, 132470, Control_c, 4, 11, 84
6, 132496, Control_c, 4, 11, 85
6, 132521, Control_c, 4, 11, 86
6, 132528, Note_on_c, 4, 31, 0
6, 132528, Note_on_c, 4, 30, 100
6, 132547, Control_c, 4, 11, 87
6, 132572, Control_c, 4, 11, 88
6, 132576, Note_on_c, 4, 30, 0
6, 132576, Note_on_c, 4, 42, 100
6, 132598, Control_c, 4, 11, 89
6, 132623, Control_c, 4, 11, 90
6, 132624, Note_on_c, 4, 42, 0
6, 132624, Control_c, 4, 11, 90
6, 132624, Note_on_c, 4, 40, 100
6, 132628, Control_c, 4, 11, 89
6, 132632, Control_c, 4, 11, 88
6, 132636, Control_c, 4, 11, 87
6, 132640, Control_c, 4, 11, 86
6, 132643, Control_c, 4, 11, 85
6, 132647, Control_c, 4, 11, 84
6, 132651, Control_c, 4, 11, 83
6, 132655, Control_c, 4, 11, 82
6, 132659, Control_c, 4, 11, 81
6, 132662, Control_c, 4, 11, 80
6, 132666, Control_c, 4, 11, 79
6, 132670, Control_c, 4, 11, 78
6, 132672, Note_on_c, 4, 40, 0
6, 132672, Note_on_c, 4, 43, 100
6, 132674, Control_c, 4, 11, 77
6, 132678, Control_c, 4, 11, 76
6, 132681, Control_c, 4, 11, 75
6, 132685, Control_c, 4, 11, 74
6, 132689, Control_c, 4, 11, 73
6, 132693, Control_c, 4, 11, 72
6, 132697, Control_c, 4, 11, 71
6, 132700, Control_c, 4, 11, 70
6, 132704, Control_c, 4, 11, 69
6, 132708, Control_c, 4, 11, 68
6, 132712, Control_c, 4, 11, 67
6, 132716, Control_c, 4, 11, 66
6, 132719, Control_c, 4, 11, 65
6, 132720, Note_on_c, 4, 43, 0
6, 132720, Control_c, 4, 11, 60
6, 132720, Note_on_c, 4, 45, 100
6, 132768, Note_on_c, 4, 45, 0
6, 132816, Note_on_c, 4, 33, 100
6, 132864, Note_on_c, 4, 33, 0
6, 132912, Note_on_c, 4, 38, 100
6, 133104, Note_on_c, 4, 37, 100
6, 133105, Note_on_c, 4, 38, 0
6, 133200, Control_c, 4, 11, 60
6, 133226, Control_c, 4, 11, 61
6, 133252, Control_c, 4, 11, 62
6, 133277, Control_c, 4, 11, 63
6, 133295, Note_on_c, 4, 37, 0
6, 133296, Note_on_c, 4, 35, 100
6, 133303, Control_c, 4, 11, 64
6, 133328, Control_c, 4, 11, 65
6, 133354, Control_c, 4, 11, 66
6, 133379, Control_c, 4, 11, 67
6, 133405, Control_c, 4, 11, 68
6, 133431, Control_c, 4, 11, 69
6, 133456, Control_c, 4, 11, 70
6, 133482, Control_c, 4, 11, 71
6, 133488, Note_on_c, 4, 35, 0
6, 133488, Note_on_c, 4, 33, 100
6, 133507, Control_c, 4, 11, 72
6, 133533, Control_c, 4, 11, 73
6, 133558, Control_c, 4, 11, 74
6, 133584, Control_c, 4, 11, 75
6, 133610, Control_c, 4, 11, 76
6, 133635, Control_c, 4, 11, 77
6, 133661, Control_c, 4, 11, 78
6, 133686, Control_c, 4, 11, 79
6, 133712, Control_c, 4, 11, 80
6, 133737, Control_c, 4, 11, 81
6, 133763, Control_c, 4, 11, 82
6, 133789, Control_c, 4, 11, 83
6, 133814, Control_c, 4, 11, 84
6, 133824, Note_on_c, 4, 33, 0
6, 133824, Note_on_c, 4, 31, 100
6, 133840, Control_c, 4, 11, 85
6, 133865, Control_c, 4, 11, 86
6, 133872, Note_on_c, 4, 31, 0
6, 133872, Note_on_c, 4, 30, 100
6, 133891, Control_c, 4, 11, 87
6, 133916, Control_c, 4, 11, 88
6, 133920, Note_on_c, 4, 30, 0
6, 133920, Note_on_c, 4, 42, 100
6, 133942, Control_c, 4, 11, 89
6, 133967, Control_c, 4, 11, 90
6, 133968, Note_on_c, 4, 42, 0
6, 133968, Control_c, 4, 11, 90
6, 133968, Note_on_c, 4, 40, 100
6, 133972, Control_c, 4, 11, 89
6, 133976, Control_c, 4, 11, 88
6, 133980, Control_c, 4, 11, 87
6, 133984, Control_c, 4, 11, 86
6, 133987, Control_c, 4, 11, 85
6, 133991, Control_c, 4, 11, 84
6, 133995, Control_c, 4, 11, 83
6, 133999, Control_c, 4, 11, 82
6, 134003, Control_c, 4, 11, 81
6, 134006, Control_c, 4, 11, 80
6, 134010, Control_c, 4, 11, 79
6, 134014, Control_c, 4, 11, 78
6, 134016, Note_on_c, 4, 40, 0
6, 134016, Note_on_c, 4, 42, 100
6, 134018, Control_c, 4, 11, 77
6, 134022, Control_c, 4, 11, 76
6, 134025, Control_c, 4, 11, 75
6, 134029, Control_c, 4, 11, 74
6, 134033, Control_c, 4, 11, 73
6, 134037, Control_c, 4, 11, 72
6, 134041, Control_c, 4, 11, 71
6, 134044, Control_c, 4, 11, 70
6, 134048, Control_c, 4, 11, 69
6, 134052, Control_c, 4, 11, 68
6, 134056, Control_c, 4, 11, 67
6, 134060, Control_c, 4, 11, 66
6, 134063, Control_c, 4, 11, 65
6, 134064, Note_on_c, 4, 42, 0
6, 134064, Control_c, 4, 11, 60
6, 134064, Note_on_c, 4, 45, 100
6, 134112, Note_on_c, 4, 45, 0
6, 134160, Note_on_c, 4, 33, 100
6, 134208, Note_on_c, 4, 33, 0
6, 134256, Note_on_c, 4, 38, 100
6, 134304, Note_on_c, 4, 38, 0
6, 141552, Control_c, 4, 11, 120
6, 141552, Note_on_c, 4, 38, 100
6, 141576, Note_on_c, 4, 38, 0
6, 141648, Note_on_c, 4, 50, 60
6, 141672, Note_on_c, 4, 50, 0
6, 141696, Note_on_c, 4, 49, 60
6, 141720, Note_on_c, 4, 49, 0
6, 141744, Note_on_c, 4, 50, 60
6, 141768, Note_on_c, 4, 50, 0
6, 141792, Note_on_c, 4, 47, 60
6, 141816, Note_on_c, 4, 47, 0
6, 141840, Note_on_c, 4, 45, 61
6, 141864, Note_on_c, 4, 45, 0
6, 141888, Note_on_c, 4, 43, 62
6, 141912, Note_on_c, 4, 43, 0
6, 141936, Note_on_c, 4, 42, 63
6, 141960, Note_on_c, 4, 42, 0
6, 141984, Note_on_c, 4, 40, 63
6, 142008, Note_on_c, 4, 40, 0
6, 142032, Note_on_c, 4, 38, 64
6, 142056, Note_on_c, 4, 38, 0
6, 142080, Note_on_c, 4, 36, 65
6, 142104, Note_on_c, 4, 36, 0
6, 142128, Note_on_c, 4, 35, 66
6, 142152, Note_on_c, 4, 35, 0
6, 142176, Note_on_c, 4, 37, 66
6, 142200, Note_on_c, 4, 37, 0
6, 142224, Note_on_c, 4, 38, 67
6, 142248, Note_on_c, 4, 38, 0
6, 142272, Note_on_c, 4, 42, 68
6, 142296, Note_on_c, 4, 42, 0
6, 142320, Note_on_c, 4, 45, 69
6, 142344, Note_on_c, 4, 45, 0
6, 142368, Note_on_c, 4, 49, 69
6, 142392, Note_on_c, 4, 49, 0
6, 142416, Note_on_c, 4, 50, 70
6, 142440, Note_on_c, 4, 50, 0
6, 142464, Note_on_c, 4, 49, 71
6, 142488, Note_on_c, 4, 49, 0
6, 142512, Note_on_c, 4, 50, 72
6, 142536, Note_on_c, 4, 50, 0
6, 142560, Note_on_c, 4, 47, 72
6, 142584, Note_on_c, 4, 47, 0
6, 142608, Note_on_c, 4, 45, 73
6, 142632, Note_on_c, 4, 45, 0
6, 142656, Note_on_c, 4, 43, 74
6, 142680, Note_on_c, 4, 43, 0
6, 142704, Note_on_c, 4, 42, 75
6, 142728, Note_on_c, 4, 42, 0
6, 142752, Note_on_c, 4, 40, 75
6, 142776, Note_on_c, 4, 40, 0
6, 142800, Note_on_c, 4, 38, 76
6, 142824, Note_on_c, 4, 38, 0
6, 142848, Note_on_c, 4, 36, 77
6, 142872, Note_on_c, 4, 36, 0
6, 142896, Note_on_c, 4, 35, 78
6, 142920, Note_on_c, 4, 35, 0
6, 142944, Note_on_c, 4, 37, 78
6, 142968, Note_on_c, 4, 37, 0
6, 142992, Note_on_c, 4, 38, 79
6, 143016, Note_on_c, 4, 38, 0
6, 143040, Note_on_c, 4, 42, 80
6, 143064, Note_on_c, 4, 42, 0
6, 143088, Note_on_c, 4, 45, 81
6, 143112, Note_on_c, 4, 45, 0
6, 143136, Note_on_c, 4, 49, 81
6, 143160, Note_on_c, 4, 49, 0
6, 143184, Note_on_c, 4, 50, 82
6, 143208, Note_on_c, 4, 50, 0
6, 143232, Note_on_c, 4, 49, 83
6, 143256, Note_on_c, 4, 49, 0
6, 143280, Note_on_c, 4, 50, 84
6, 143304, Note_on_c, 4, 50, 0
6, 143328, Note_on_c, 4, 47, 84
6, 143352, Note_on_c, 4, 47, 0
6, 143376, Note_on_c, 4, 45, 85
6, 143400, Note_on_c, 4, 45, 0
6, 143424, Note_on_c, 4, 43, 86
6, 143448, Note_on_c, 4, 43, 0
6, 143472, Note_on_c, 4, 42, 87
6, 143496, Note_on_c, 4, 42, 0
6, 143520, Note_on_c, 4, 40, 87
6, 143544, Note_on_c, 4, 40, 0
6, 143568, Note_on_c, 4, 38, 88
6, 143592, Note_on_c, 4, 38, 0
6, 143616, Note_on_c, 4, 36, 89
6, 143640, Note_on_c, 4, 36, 0
6, 143664, Note_on_c, 4, 35, 90
6, 143688, Note_on_c, 4, 35, 0
6, 143712, Note_on_c, 4, 37, 90
6, 143736, Note_on_c, 4, 37, 0
6, 143760, Note_on_c, 4, 38, 91
6, 143784, Note_on_c, 4, 38, 0
6, 143808, Note_on_c, 4, 42, 92
6, 143832, Note_on_c, 4, 42, 0
6, 143856, Note_on_c, 4, 45, 93
6, 143880, Note_on_c, 4, 45, 0
6, 143904, Note_on_c, 4, 49, 93
6, 143928, Note_on_c, 4, 49, 0
6, 143952, Note_on_c, 4, 50, 107
6, 143976, Note_on_c, 4, 50, 0
6, 144000, Note_on_c, 4, 49, 106
6, 144024, Note_on_c, 4, 49, 0
6, 144048, Note_on_c, 4, 50, 107
6, 144072, Note_on_c, 4, 50, 0
6, 144096, Note_on_c, 4, 47, 104
6, 144120, Note_on_c, 4, 47, 0
6, 144144, Note_on_c, 4, 45, 102
6, 144168, Note_on_c, 4, 45, 0
6, 144192, Note_on_c, 4, 43, 100
6, 144216, Note_on_c, 4, 43, 0
6, 144240, Note_on_c, 4, 42, 99
6, 144264, Note_on_c, 4, 42, 0
6, 144288, Note_on_c, 4, 40, 97
6, 144312, Note_on_c, 4, 40, 0
6, 144336, Note_on_c, 4, 38, 95
6, 144360, Note_on_c, 4, 38, 0
6, 144384, Note_on_c, 4, 36, 93
6, 144408, Note_on_c, 4, 36, 0
6, 144432, Note_on_c, 4, 35, 92
6, 144456, Note_on_c, 4, 35, 0
6, 144480, Note_on_c, 4, 31, 88
6, 144504, Note_on_c, 4, 31, 0
6, 144528, Note_on_c, 4, 33, 90
6, 144552, Note_on_c, 4, 33, 0
6, 144576, Note_on_c, 4, 45, 102
6, 144600, Note_on_c, 4, 45, 0
6, 144624, Control_c, 4, 11, 95
6, 144624, Note_on_c, 4, 38, 120
6, 144625, Control_c, 4, 11, 90
6, 144626, Control_c, 4, 11, 87
6, 144627, Control_c, 4, 11, 84
6, 144628, Control_c, 4, 11, 81
6, 144629, Control_c, 4, 11, 79
6, 144630, Control_c, 4, 11, 77
6, 144631, Control_c, 4, 11, 74
6, 144632, Control_c, 4, 11, 73
6, 144633, Control_c, 4, 11, 71
6, 144634, Control_c, 4, 11, 70
6, 144635, Control_c, 4, 11, 69
6, 144636, Control_c, 4, 11, 68
6, 144637, Control_c, 4, 11, 67
6, 144638, Control_c, 4, 11, 66
6, 144639, Control_c, 4, 11, 65
6, 144641, Control_c, 4, 11, 64
6, 144642, Control_c, 4, 11, 63
6, 144645, Control_c, 4, 11, 62
6, 144648, Control_c, 4, 11, 61
6, 144654, Control_c, 4, 11, 60
6, 145488, Note_on_c, 4, 38, 0
6, 145488, Control_c, 4, 11, 60
6, 145488, Note_on_c, 4, 38, 120
6, 145530, Control_c, 4, 11, 61
6, 145571, Control_c, 4, 11, 62
6, 145612, Control_c, 4, 11, 63
6, 145653, Control_c, 4, 11, 64
6, 145694, Control_c, 4, 11, 65
6, 145735, Control_c, 4, 11, 66
6, 145776, Control_c, 4, 11, 67
6, 145817, Control_c, 4, 11, 68
6, 145859, Control_c, 4, 11, 69
6, 145900, Control_c, 4, 11, 70
6, 145941, Control_c, 4, 11, 71
6, 145982, Control_c, 4, 11, 72
6, 146023, Control_c, 4, 11, 73
6, 146064, Control_c, 4, 11, 74
6, 146105, Control_c, 4, 11, 75
6, 146146, Control_c, 4, 11, 76
6, 146187, Control_c, 4, 11, 77
6, 146229, Control_c, 4, 11, 78
6, 146270, Control_c, 4, 11, 79
6, 146311, Control_c, 4, 11, 80
6, 146352, Control_c, 4, 11, 81
6, 146393, Control_c, 4, 11, 82
6, 146434, Control_c, 4, 11, 83
6, 146475, Control_c, 4, 11, 84
6, 146516, Control_c, 4, 11, 85
6, 146557, Control_c, 4, 11, 86
6, 146599, Control_c, 4, 11, 87
6, 146640, Control_c, 4, 11, 88
6, 146681, Control_c, 4, 11, 89
6, 146722, Control_c, 4, 11, 90
6, 146763, Control_c, 4, 11, 91
6, 146804, Control_c, 4, 11, 92
6, 146845, Control_c, 4, 11, 93
6, 146886, Control_c, 4, 11, 94
6, 146927, Control_c, 4, 11, 95
6, 147312, Control_c, 4, 11, 95
6, 147328, Control_c, 4, 11, 94
6, 147344, Control_c, 4, 11, 93
6, 147360, Control_c, 4, 11, 92
6, 147376, Control_c, 4, 11, 91
6, 147392, Control_c, 4, 11, 90
6, 147408, Control_c, 4, 11, 89
6, 147424, Control_c, 4, 11, 88
6, 147440, Control_c, 4, 11, 87
6, 147456, Control_c, 4, 11, 86
6, 147472, Control_c, 4, 11, 85
6, 147488, Control_c, 4, 11, 84
6, 147504, Control_c, 4, 11, 83
6, 147520, Control_c, 4, 11, 82
6, 147536, Control_c, 4, 11, 81
6, 147552, Control_c, 4, 11, 80
6, 147568, Control_c, 4, 11, 79
6, 147584, Control_c, 4, 11, 78
6, 147600, Control_c, 4, 11, 77
6, 147616, Control_c, 4, 11, 76
6, 147632, Control_c, 4, 11, 75
6, 147648, Control_c, 4, 11, 74
6, 147664, Control_c, 4, 11, 73
6, 147680, Control_c, 4, 11, 72
6, 147696, Control_c, 4, 11, 71
6, 147712, Control_c, 4, 11, 70
6, 147728, Control_c, 4, 11, 69
6, 147744, Control_c, 4, 11, 68
6, 147760, Control_c, 4, 11, 67
6, 147776, Control_c, 4, 11, 66
6, 147791, Control_c, 4, 11, 65
6, 147792, Control_c, 4, 11, 65
6, 147840, Control_c, 4, 11, 66
6, 147888, Control_c, 4, 11, 67
6, 147936, Control_c, 4, 11, 68
6, 147984, Control_c, 4, 11, 69
6, 148032, Control_c, 4, 11, 70
6, 148080, Control_c, 4, 11, 71
6, 148128, Control_c, 4, 11, 72
6, 148176, Control_c, 4, 11, 73
6, 148224, Control_c, 4, 11, 74
6, 148272, Control_c, 4, 11, 75
6, 148320, Control_c, 4, 11, 76
6, 148368, Control_c, 4, 11, 77
6, 148416, Control_c, 4, 11, 78
6, 148464, Control_c, 4, 11, 79
6, 148512, Control_c, 4, 11, 80
6, 148560, Control_c, 4, 11, 81
6, 148608, Control_c, 4, 11, 82
6, 148656, Control_c, 4, 11, 83
6, 148704, Control_c, 4, 11, 84
6, 148752, Control_c, 4, 11, 85
6, 148800, Control_c, 4, 11, 86
6, 148848, Control_c, 4, 11, 87
6, 148896, Control_c, 4, 11, 88
6, 148944, Control_c, 4, 11, 89
6, 148992, Control_c, 4, 11, 90
6, 149040, Control_c, 4, 11, 91
6, 149088, Control_c, 4, 11, 92
6, 149136, Control_c, 4, 11, 93
6, 149184, Control_c, 4, 11, 94
6, 149231, Control_c, 4, 11, 95
6, 149616, Control_c, 4, 11, 95
6, 149655, Control_c, 4, 11, 94
6, 149693, Control_c, 4, 11, 93
6, 149732, Control_c, 4, 11, 92
6, 149770, Control_c, 4, 11, 91
6, 149808, Control_c, 4, 11, 90
6, 149847, Control_c, 4, 11, 89
6, 149885, Control_c, 4, 11, 88
6, 149923, Control_c, 4, 11, 87
6, 149962, Control_c, 4, 11, 86
6, 150000, Control_c, 4, 11, 85
6, 150039, Control_c, 4, 11, 84
6, 150077, Control_c, 4, 11, 83
6, 150115, Control_c, 4, 11, 82
6, 150154, Control_c, 4, 11, 81
6, 150192, Control_c, 4, 11, 80
6, 150230, Control_c, 4, 11, 79
6, 150269, Control_c, 4, 11, 78
6, 150307, Control_c, 4, 11, 77
6, 150345, Control_c, 4, 11, 76
6, 150384, Control_c, 4, 11, 75
6, 150422, Control_c, 4, 11, 74
6, 150461, Control_c, 4, 11, 73
6, 150499, Control_c, 4, 11, 72
6, 150537, Control_c, 4, 11, 71
6, 150576, Control_c, 4, 11, 70
6, 150614, Control_c, 4, 11, 69
6, 150652, Control_c, 4, 11, 68
6, 150691, Control_c, 4, 11, 67
6, 150729, Control_c, 4, 11, 66
6, 150767, Control_c, 4, 11, 65
6, 151920, Control_c, 4, 11, 60
6, 152280, Note_on_c, 4, 38, 0
6, 152304, Program_c, 4, 48
6, 152304, Control_c, 4, 11, 120
6, 152304, Control_c, 4, 99, 1
6, 152304, Control_c, 4, 98, 99
6, 152304, Control_c, 4, 6, 14
6, 152304, Note_on_c, 4, 50, 110
6, 152339, Note_on_c, 4, 50, 0
6, 152376, Note_on_c, 4, 38, 100
6, 152388, Note_on_c, 4, 38, 0
6, 152400, Note_on_c, 4, 38, 100
6, 152424, Note_on_c, 4, 38, 0
6, 152592, Note_on_c, 4, 45, 110
6, 152627, Note_on_c, 4, 45, 0
6, 152664, Note_on_c, 4, 33, 100
6, 152676, Note_on_c, 4, 33, 0
6, 152688, Note_on_c, 4, 33, 100
6, 152712, Note_on_c, 4, 33, 0
6, 153024, Note_on_c, 4, 38, 110
6, 153059, Note_on_c, 4, 38, 0
6, 153096, Note_on_c, 4, 26, 100
6, 153108, Note_on_c, 4, 26, 0
6, 153120, Note_on_c, 4, 26, 100
6, 153144, Note_on_c, 4, 26, 0
6, 155760, Note_on_c, 4, 45, 60
6, 155795, Note_on_c, 4, 45, 0
6, 155832, Note_on_c, 4, 33, 50
6, 155844, Note_on_c, 4, 33, 0
6, 155856, Note_on_c, 4, 33, 50
6, 155880, Note_on_c, 4, 33, 0
6, 155904, Note_on_c, 4, 38, 55
6, 155928, Note_on_c, 4, 38, 0
6, 155952, Note_on_c, 4, 40, 50
6, 155976, Note_on_c, 4, 40, 0
6, 156000, Note_on_c, 4, 41, 50
6, 156024, Note_on_c, 4, 41, 0
6, 156048, Note_on_c, 4, 40, 55
6, 156072, Note_on_c, 4, 40, 0
6, 156096, Note_on_c, 4, 41, 50
6, 156120, Note_on_c, 4, 41, 0
6, 156144, Note_on_c, 4, 43, 50
6, 156168, Note_on_c, 4, 43, 0
6, 156192, Note_on_c, 4, 41, 55
6, 156216, Note_on_c, 4, 41, 0
6, 156240, Note_on_c, 4, 40, 50
6, 156264, Note_on_c, 4, 40, 0
6, 156288, Note_on_c, 4, 38, 50
6, 156312, Note_on_c, 4, 38, 0
6, 156336, Note_on_c, 4, 41, 55
6, 156360, Note_on_c, 4, 41, 0
6, 156384, Note_on_c, 4, 40, 50
6, 156408, Note_on_c, 4, 40, 0
6, 156432, Note_on_c, 4, 38, 50
6, 156456, Note_on_c, 4, 38, 0
6, 156480, Note_on_c, 4, 36, 55
6, 156504, Note_on_c, 4, 36, 0
6, 156528, Note_on_c, 4, 35, 50
6, 156552, Note_on_c, 4, 35, 0
6, 156576, Note_on_c, 4, 33, 50
6, 156600, Note_on_c, 4, 33, 0
6, 156624, Note_on_c, 4, 32, 55
6, 156648, Note_on_c, 4, 32, 0
6, 156672, Note_on_c, 4, 33, 50
6, 156696, Note_on_c, 4, 33, 0
6, 156720, Note_on_c, 4, 35, 50
6, 156744, Note_on_c, 4, 35, 0
6, 156768, Note_on_c, 4, 33, 55
6, 156792, Note_on_c, 4, 33, 0
6, 156816, Note_on_c, 4, 32, 50
6, 156840, Note_on_c, 4, 32, 0
6, 156864, Note_on_c, 4, 33, 50
6, 156888, Note_on_c, 4, 33, 0
6, 156912, Note_on_c, 4, 33, 55
6, 156936, Note_on_c, 4, 33, 0
6, 156960, Note_on_c, 4, 33, 50
6, 156984, Note_on_c, 4, 33, 0
6, 157008, Note_on_c, 4, 33, 50
6, 157032, Note_on_c, 4, 33, 0
6, 157056, Note_on_c, 4, 33, 55
6, 157080, Note_on_c, 4, 33, 0
6, 157104, Note_on_c, 4, 33, 50
6, 157128, Note_on_c, 4, 33, 0
6, 157152, Note_on_c, 4, 33, 50
6, 157176, Note_on_c, 4, 33, 0
6, 157200, Note_on_c, 4, 33, 55
6, 157224, Note_on_c, 4, 33, 0
6, 157248, Note_on_c, 4, 33, 50
6, 157272, Note_on_c, 4, 33, 0
6, 157296, Note_on_c, 4, 33, 50
6, 157320, Note_on_c, 4, 33, 0
6, 157344, Note_on_c, 4, 33, 55
6, 157368, Note_on_c, 4, 33, 0
6, 157392, Note_on_c, 4, 33, 50
6, 157416, Note_on_c, 4, 33, 0
6, 157440, Note_on_c, 4, 33, 50
6, 157464, Note_on_c, 4, 33, 0
6, 157488, Note_on_c, 4, 33, 55
6, 157512, Note_on_c, 4, 33, 0
6, 157536, Note_on_c, 4, 33, 50
6, 157560, Note_on_c, 4, 33, 0
6, 157584, Note_on_c, 4, 33, 50
6, 157608, Note_on_c, 4, 33, 0
6, 157632, Note_on_c, 4, 33, 55
6, 157656, Note_on_c, 4, 33, 0
6, 157680, Note_on_c, 4, 33, 50
6, 157704, Note_on_c, 4, 33, 0
6, 157728, Note_on_c, 4, 33, 50
6, 157752, Note_on_c, 4, 33, 0
6, 157776, Note_on_c, 4, 33, 55
6, 157800, Note_on_c, 4, 33, 0
6, 157824, Note_on_c, 4, 33, 50
6, 157848, Note_on_c, 4, 33, 0
6, 157872, Note_on_c, 4, 33, 50
6, 157896, Note_on_c, 4, 33, 0
6, 157920, Note_on_c, 4, 33, 55
6, 157944, Note_on_c, 4, 33, 0
6, 157968, Note_on_c, 4, 33, 50
6, 157992, Note_on_c, 4, 33, 0
6, 158016, Note_on_c, 4, 33, 50
6, 158040, Note_on_c, 4, 33, 0
6, 158064, Note_on_c, 4, 33, 55
6, 158088, Note_on_c, 4, 33, 0
6, 158112, Note_on_c, 4, 33, 50
6, 158136, Note_on_c, 4, 33, 0
6, 158160, Note_on_c, 4, 33, 50
6, 158184, Note_on_c, 4, 33, 0
6, 158208, Note_on_c, 4, 33, 55
6, 158232, Note_on_c, 4, 33, 0
6, 158256, Note_on_c, 4, 33, 50
6, 158280, Note_on_c, 4, 33, 0
6, 158304, Note_on_c, 4, 33, 50
6, 158328, Note_on_c, 4, 33, 0
6, 158352, Note_on_c, 4, 33, 55
6, 158376, Note_on_c, 4, 33, 0
6, 158400, Note_on_c, 4, 33, 50
6, 158424, Note_on_c, 4, 33, 0
6, 158448, Note_on_c, 4, 33, 50
6, 158472, Note_on_c, 4, 33, 0
6, 158496, Note_on_c, 4, 33, 55
6, 158520, Note_on_c, 4, 33, 0
6, 158544, Note_on_c, 4, 33, 50
6, 158568, Note_on_c, 4, 33, 0
6, 158592, Note_on_c, 4, 33, 50
6, 158616, Note_on_c, 4, 33, 0
6, 158640, Note_on_c, 4, 33, 55
6, 158664, Note_on_c, 4, 33, 0
6, 158688, Note_on_c, 4, 33, 51
6, 158712, Note_on_c, 4, 33, 0
6, 158736, Note_on_c, 4, 33, 53
6, 158760, Note_on_c, 4, 33, 0
6, 158784, Note_on_c, 4, 33, 60
6, 158808, Note_on_c, 4, 33, 0
6, 158832, Note_on_c, 4, 33, 56
6, 158856, Note_on_c, 4, 33, 0
6, 158880, Note_on_c, 4, 33, 58
6, 158904, Note_on_c, 4, 33, 0
6, 158928, Note_on_c, 4, 33, 65
6, 158952, Note_on_c, 4, 33, 0
6, 158976, Note_on_c, 4, 33, 61
6, 159000, Note_on_c, 4, 33, 0
6, 159024, Note_on_c, 4, 33, 63
6, 159048, Note_on_c, 4, 33, 0
6, 159072, Note_on_c, 4, 33, 70
6, 159096, Note_on_c, 4, 33, 0
6, 159120, Note_on_c, 4, 33, 66
6, 159144, Note_on_c, 4, 33, 0
6, 159168, Note_on_c, 4, 33, 68
6, 159192, Note_on_c, 4, 33, 0
6, 159216, Note_on_c, 4, 33, 75
6, 159240, Note_on_c, 4, 33, 0
6, 159264, Note_on_c, 4, 33, 71
6, 159288, Note_on_c, 4, 33, 0
6, 159312, Note_on_c, 4, 33, 73
6, 159336, Note_on_c, 4, 33, 0
6, 159360, Note_on_c, 4, 33, 80
6, 159384, Note_on_c, 4, 33, 0
6, 159408, Note_on_c, 4, 33, 77
6, 159432, Note_on_c, 4, 33, 0
6, 159456, Note_on_c, 4, 33, 78
6, 159480, Note_on_c, 4, 33, 0
6, 159504, Note_on_c, 4, 33, 85
6, 159528, Note_on_c, 4, 33, 0
6, 159552, Note_on_c, 4, 33, 82
6, 159576, Note_on_c, 4, 33, 0
6, 159600, Note_on_c, 4, 33, 83
6, 159624, Note_on_c, 4, 33, 0
6, 159648, Note_on_c, 4, 33, 90
6, 159672, Note_on_c, 4, 33, 0
6, 159696, Note_on_c, 4, 33, 87
6, 159720, Note_on_c, 4, 33, 0
6, 159744, Note_on_c, 4, 33, 88
6, 159768, Note_on_c, 4, 33, 0
6, 159792, Note_on_c, 4, 33, 95
6, 159816, Note_on_c, 4, 33, 0
6, 159840, Note_on_c, 4, 33, 92
6, 159864, Note_on_c, 4, 33, 0
6, 159888, Note_on_c, 4, 33, 93
6, 159912, Note_on_c, 4, 33, 0
6, 159936, Note_on_c, 4, 33, 100
6, 159960, Note_on_c, 4, 33, 0
6, 159984, Note_on_c, 4, 33, 97
6, 160008, Note_on_c, 4, 33, 0
6, 160032, Note_on_c, 4, 33, 98
6, 160056, Note_on_c, 4, 33, 0
6, 160080, Note_on_c, 4, 33, 105
6, 160104, Note_on_c, 4, 33, 0
6, 160128, Note_on_c, 4, 33, 102
6, 160152, Note_on_c, 4, 33, 0
6, 160176, Note_on_c, 4, 33, 104
6, 160200, Note_on_c, 4, 33, 0
6, 160224, Note_on_c, 4, 43, 110
6, 160248, Note_on_c, 4, 43, 0
6, 160272, Note_on_c, 4, 41, 107
6, 160296, Note_on_c, 4, 41, 0
6, 160320, Note_on_c, 4, 40, 109
6, 160344, Note_on_c, 4, 40, 0
6, 160368, Note_on_c, 4, 38, 110
6, 160392, Note_on_c, 4, 38, 0
6, 160512, Note_on_c, 4, 50, 110
6, 160536, Note_on_c, 4, 50, 0
6, 160656, Note_on_c, 4, 45, 110
6, 160680, Note_on_c, 4, 45, 0
6, 160800, Note_on_c, 4, 38, 110
6, 160824, Note_on_c, 4, 38, 0
6, 160944, Note_on_c, 4, 43, 110
6, 160968, Note_on_c, 4, 43, 0
6, 161088, Note_on_c, 4, 45, 110
6, 161112, Note_on_c, 4, 45, 0
6, 161232, Note_on_c, 4, 33, 110
6, 161256, Note_on_c, 4, 33, 0
6, 161376, Note_on_c, 4, 38, 110
6, 161400, Note_on_c, 4, 38, 0
6, 161520, Note_on_c, 4, 43, 110
6, 161544, Note_on_c, 4, 43, 0
6, 161664, Note_on_c, 4, 45, 110
6, 161688, Note_on_c, 4, 45, 0
6, 161808, Note_on_c, 4, 33, 110
6, 161832, Note_on_c, 4, 33, 0
6, 161952, Note_on_c, 4, 38, 110
6, 161976, Note_on_c, 4, 38, 0
6, 162048, Note_on_c, 4, 31, 110
6, 162072, Note_on_c, 4, 31, 0
6, 162096, Note_on_c, 4, 31, 110
6, 162120, Note_on_c, 4, 31, 0
6, 162240, Note_on_c, 4, 36, 110
6, 162264, Note_on_c, 4, 36, 0
6, 162384, Note_on_c, 4, 43, 110
6, 162408, Note_on_c, 4, 43, 0
6, 162528, Note_on_c, 4, 48, 110
6, 162552, Note_on_c, 4, 48, 0
6, 162576, Note_on_c, 4, 43, 110
6, 162600, Note_on_c, 4, 43, 0
6, 162624, Note_on_c, 4, 43, 110
6, 162648, Note_on_c, 4, 43, 0
6, 162672, Note_on_c, 4, 31, 110
6, 162696, Note_on_c, 4, 31, 0
6, 162816, Note_on_c, 4, 36, 110
6, 162840, Note_on_c, 4, 36, 0
6, 162960, Note_on_c, 4, 48, 110
6, 162984, Note_on_c, 4, 48, 0
6, 163104, Note_on_c, 4, 48, 110
6, 163128, Note_on_c, 4, 48, 0
6, 163248, Note_on_c, 4, 43, 110
6, 163272, Note_on_c, 4, 43, 0
6, 164544, Program_c, 4, 32
6, 164544, Note_on_c, 4, 48, 63
6, 164589, Note_on_c, 4, 48, 0
6, 164688, Note_on_c, 4, 41, 70
6, 164733, Note_on_c, 4, 41, 0
6, 164832, Note_on_c, 4, 38, 78
6, 164877, Note_on_c, 4, 38, 0
6, 164976, Note_on_c, 4, 43, 86
6, 165021, Note_on_c, 4, 43, 0
6, 165120, Note_on_c, 4, 48, 94
6, 165165, Note_on_c, 4, 48, 0
6, 165264, Note_on_c, 4, 43, 102
6, 165309, Note_on_c, 4, 43, 0
6, 165408, Note_on_c, 4, 31, 110
6, 165453, Note_on_c, 4, 31, 0
6, 165552, Program_c, 4, 48
6, 165552, Note_on_c, 4, 36, 120
6, 165587, Note_on_c, 4, 36, 0
6, 165624, Note_on_c, 4, 24, 113
6, 165636, Note_on_c, 4, 24, 0
6, 165648, Note_on_c, 4, 24, 113
6, 165672, Note_on_c, 4, 24, 0
6, 165696, Note_on_c, 4, 36, 120
6, 165731, Note_on_c, 4, 36, 0
6, 165768, Note_on_c, 4, 24, 113
6, 165780, Note_on_c, 4, 24, 0
6, 165792, Note_on_c, 4, 24, 113
6, 165816, Note_on_c, 4, 24, 0
6, 165840, Note_on_c, 4, 36, 120
6, 165875, Note_on_c, 4, 36, 0
6, 165912, Note_on_c, 4, 24, 113
6, 165924, Note_on_c, 4, 24, 0
6, 165936, Note_on_c, 4, 24, 113
6, 165960, Note_on_c, 4, 24, 0
6, 165984, Note_on_c, 4, 36, 120
6, 166019, Note_on_c, 4, 36, 0
6, 166056, Note_on_c, 4, 24, 113
6, 166068, Note_on_c, 4, 24, 0
6, 166080, Note_on_c, 4, 24, 113
6, 166104, Note_on_c, 4, 24, 0
6, 166128, Note_on_c, 4, 36, 120
6, 166163, Note_on_c, 4, 36, 0
6, 166200, Note_on_c, 4, 24, 113
6, 166212, Note_on_c, 4, 24, 0
6, 166224, Note_on_c, 4, 24, 113
6, 166248, Note_on_c, 4, 24, 0
6, 166272, Note_on_c, 4, 36, 120
6, 166307, Note_on_c, 4, 36, 0
6, 166344, Note_on_c, 4, 24, 113
6, 166356, Note_on_c, 4, 24, 0
6, 166368, Note_on_c, 4, 24, 113
6, 166392, Note_on_c, 4, 24, 0
6, 166416, Note_on_c, 4, 36, 120
6, 166451, Note_on_c, 4, 36, 0
6, 166488, Note_on_c, 4, 24, 113
6, 166500, Note_on_c, 4, 24, 0
6, 166512, Note_on_c, 4, 24, 113
6, 166536, Note_on_c, 4, 24, 0
6, 166560, Note_on_c, 4, 36, 120
6, 166595, Note_on_c, 4, 36, 0
6, 166632, Note_on_c, 4, 24, 113
6, 166644, Note_on_c, 4, 24, 0
6, 166656, Note_on_c, 4, 24, 113
6, 166680, Note_on_c, 4, 24, 0
6, 166704, Note_on_c, 4, 36, 120
6, 166739, Note_on_c, 4, 36, 0
6, 166776, Note_on_c, 4, 24, 113
6, 166788, Note_on_c, 4, 24, 0
6, 166800, Note_on_c, 4, 24, 113
6, 166824, Note_on_c, 4, 24, 0
6, 166848, Note_on_c, 4, 36, 120
6, 166883, Note_on_c, 4, 36, 0
6, 166920, Note_on_c, 4, 24, 113
6, 166932, Note_on_c, 4, 24, 0
6, 166944, Note_on_c, 4, 24, 113
6, 166968, Note_on_c, 4, 24, 0
6, 166992, Note_on_c, 4, 36, 120
6, 167027, Note_on_c, 4, 36, 0
6, 167064, Note_on_c, 4, 24, 113
6, 167076, Note_on_c, 4, 24, 0
6, 167088, Note_on_c, 4, 24, 113
6, 167112, Note_on_c, 4, 24, 0
6, 167136, Note_on_c, 4, 36, 120
6, 167171, Note_on_c, 4, 36, 0
6, 167208, Note_on_c, 4, 24, 113
6, 167220, Note_on_c, 4, 24, 0
6, 167232, Note_on_c, 4, 24, 113
6, 167256, Note_on_c, 4, 24, 0
6, 167280, Note_on_c, 4, 36, 120
6, 167315, Note_on_c, 4, 36, 0
6, 167352, Note_on_c, 4, 24, 113
6, 167364, Note_on_c, 4, 24, 0
6, 167376, Note_on_c, 4, 24, 113
6, 167400, Note_on_c, 4, 24, 0
6, 167424, Note_on_c, 4, 36, 120
6, 167459, Note_on_c, 4, 36, 0
6, 167496, Note_on_c, 4, 24, 113
6, 167508, Note_on_c, 4, 24, 0
6, 167520, Note_on_c, 4, 24, 113
6, 167544, Note_on_c, 4, 24, 0
6, 167568, Note_on_c, 4, 36, 120
6, 167603, Note_on_c, 4, 36, 0
6, 167640, Note_on_c, 4, 24, 113
6, 167652, Note_on_c, 4, 24, 0
6, 167664, Note_on_c, 4, 24, 113
6, 167688, Note_on_c, 4, 24, 0
6, 167712, Note_on_c, 4, 36, 120
6, 167747, Note_on_c, 4, 36, 0
6, 167784, Note_on_c, 4, 24, 113
6, 167796, Note_on_c, 4, 24, 0
6, 167808, Note_on_c, 4, 24, 113
6, 167832, Note_on_c, 4, 24, 0
6, 167856, Note_on_c, 4, 36, 113
6, 167880, Note_on_c, 4, 36, 0
6, 168144, Note_on_c, 4, 41, 120
6, 168179, Note_on_c, 4, 41, 0
6, 168216, Note_on_c, 4, 29, 113
6, 168228, Note_on_c, 4, 29, 0
6, 168240, Note_on_c, 4, 29, 113
6, 168264, Note_on_c, 4, 29, 0
6, 168288, Note_on_c, 4, 41, 113
6, 168312, Note_on_c, 4, 41, 0
6, 168336, Note_on_c, 4, 38, 113
6, 168360, Note_on_c, 4, 38, 0
6, 168384, Note_on_c, 4, 36, 113
6, 168408, Note_on_c, 4, 36, 0
6, 168432, Note_on_c, 4, 35, 113
6, 168456, Note_on_c, 4, 35, 0
6, 168720, Note_on_c, 4, 52, 120
6, 168755, Note_on_c, 4, 52, 0
6, 168792, Note_on_c, 4, 40, 113
6, 168804, Note_on_c, 4, 40, 0
6, 168816, Note_on_c, 4, 40, 113
6, 168840, Note_on_c, 4, 40, 0
6, 168864, Note_on_c, 4, 52, 117
6, 168888, Note_on_c, 4, 52, 0
6, 168912, Note_on_c, 4, 48, 113
6, 168936, Note_on_c, 4, 48, 0
6, 168960, Note_on_c, 4, 47, 113
6, 168984, Note_on_c, 4, 47, 0
6, 169008, Control_c, 4, 11, 60
6, 169008, Note_on_c, 4, 46, 113
6, 169296, Control_c, 4, 11, 60
6, 169311, Control_c, 4, 11, 61
6, 169325, Control_c, 4, 11, 62
6, 169340, Control_c, 4, 11, 63
6, 169354, Control_c, 4, 11, 64
6, 169368, Control_c, 4, 11, 65
6, 169383, Control_c, 4, 11, 66
6, 169397, Control_c, 4, 11, 67
6, 169411, Control_c, 4, 11, 68
6, 169426, Control_c, 4, 11, 69
6, 169440, Control_c, 4, 11, 70
6, 169454, Control_c, 4, 11, 71
6, 169469, Control_c, 4, 11, 72
6, 169483, Control_c, 4, 11, 73
6, 169488, Note_on_c, 4, 46, 0
6, 169488, Note_on_c, 4, 45, 113
6, 169497, Control_c, 4, 11, 74
6, 169512, Control_c, 4, 11, 75
6, 169526, Control_c, 4, 11, 76
6, 169536, Note_on_c, 4, 45, 0
6, 169536, Note_on_c, 4, 43, 113
6, 169540, Control_c, 4, 11, 77
6, 169555, Control_c, 4, 11, 78
6, 169569, Control_c, 4, 11, 79
6, 169583, Control_c, 4, 11, 80
6, 169584, Note_on_c, 4, 43, 0
6, 169584, Note_on_c, 4, 45, 113
6, 169599, Control_c, 4, 11, 79
6, 169613, Control_c, 4, 11, 78
6, 169628, Control_c, 4, 11, 77
6, 169632, Note_on_c, 4, 45, 0
6, 169632, Note_on_c, 4, 43, 113
6, 169642, Control_c, 4, 11, 76
6, 169656, Control_c, 4, 11, 75
6, 169671, Control_c, 4, 11, 74
6, 169680, Note_on_c, 4, 43, 0
6, 169680, Note_on_c, 4, 42, 113
6, 169685, Control_c, 4, 11, 73
6, 169699, Control_c, 4, 11, 72
6, 169714, Control_c, 4, 11, 71
6, 169728, Note_on_c, 4, 42, 0
6, 169728, Note_on_c, 4, 43, 113
6, 169728, Control_c, 4, 11, 70
6, 169742, Control_c, 4, 11, 69
6, 169757, Control_c, 4, 11, 68
6, 169771, Control_c, 4, 11, 67
6, 169785, Control_c, 4, 11, 66
6, 169800, Control_c, 4, 11, 65
6, 169814, Control_c, 4, 11, 64
6, 169828, Control_c, 4, 11, 63
6, 169843, Control_c, 4, 11, 62
6, 169857, Control_c, 4, 11, 61
6, 169871, Control_c, 4, 11, 60
6, 169872, Note_on_c, 4, 43, 0
6, 170736, Control_c, 4, 11, 120
6, 170736, Note_on_c, 4, 43, 105
6, 170760, Note_on_c, 4, 43, 0
6, 170784, Note_on_c, 4, 48, 100
6, 170808, Note_on_c, 4, 48, 0
6, 170832, Note_on_c, 4, 45, 100
6, 170856, Note_on_c, 4, 45, 0
6, 170880, Note_on_c, 4, 41, 105
6, 170904, Note_on_c, 4, 41, 0
6, 170928, Note_on_c, 4, 43, 100
6, 170952, Note_on_c, 4, 43, 0
6, 170976, Note_on_c, 4, 31, 100
6, 171000, Note_on_c, 4, 31, 0
6, 171024, Note_on_c, 4, 36, 105
6, 171048, Note_on_c, 4, 36, 0
6, 171312, Note_on_c, 4, 43, 105
6, 171336, Note_on_c, 4, 43, 0
6, 171360, Note_on_c, 4, 40, 100
6, 171384, Note_on_c, 4, 40, 0
6, 171408, Note_on_c, 4, 45, 100
6, 171432, Note_on_c, 4, 45, 0
6, 171456, Note_on_c, 4, 41, 105
6, 171480, Note_on_c, 4, 41, 0
6, 171504, Note_on_c, 4, 38, 100
6, 171528, Note_on_c, 4, 38, 0
6, 171552, Note_on_c, 4, 43, 100
6, 171576, Note_on_c, 4, 43, 0
6, 171600, Note_on_c, 4, 36, 100
6, 171624, Note_on_c, 4, 36, 0
6, 171744, Note_on_c, 4, 55, 110
6, 171779, Note_on_c, 4, 55, 0
6, 171816, Note_on_c, 4, 43, 100
6, 171828, Note_on_c, 4, 43, 0
6, 171840, Note_on_c, 4, 43, 100
6, 171864, Note_on_c, 4, 43, 0
6, 171888, Note_on_c, 4, 36, 105
6, 171912, Note_on_c, 4, 36, 0
6, 172032, Note_on_c, 4, 55, 110
6, 172067, Note_on_c, 4, 55, 0
6, 172104, Note_on_c, 4, 43, 100
6, 172116, Note_on_c, 4, 43, 0
6, 172128, Note_on_c, 4, 43, 100
6, 172152, Note_on_c, 4, 43, 0
6, 172176, Note_on_c, 4, 31, 55
6, 172200, Note_on_c, 4, 31, 0
6, 172224, Note_on_c, 4, 31, 50
6, 172248, Note_on_c, 4, 31, 0
6, 172272, Note_on_c, 4, 31, 50
6, 172296, Note_on_c, 4, 31, 0
6, 172320, Note_on_c, 4, 31, 55
6, 172344, Note_on_c, 4, 31, 0
6, 172368, Note_on_c, 4, 31, 50
6, 172392, Note_on_c, 4, 31, 0
6, 172416, Note_on_c, 4, 31, 50
6, 172440, Note_on_c, 4, 31, 0
6, 172464, Note_on_c, 4, 31, 55
6, 172488, Note_on_c, 4, 31, 0
6, 172512, Note_on_c, 4, 31, 50
6, 172536, Note_on_c, 4, 31, 0
6, 172560, Note_on_c, 4, 31, 50
6, 172584, Note_on_c, 4, 31, 0
6, 172608, Note_on_c, 4, 31, 55
6, 172632, Note_on_c, 4, 31, 0
6, 172656, Note_on_c, 4, 31, 50
6, 172680, Note_on_c, 4, 31, 0
6, 172704, Note_on_c, 4, 31, 50
6, 172728, Note_on_c, 4, 31, 0
6, 172752, Note_on_c, 4, 24, 60
6, 172787, Note_on_c, 4, 24, 0
6, 172824, Note_on_c, 4, 36, 50
6, 172836, Note_on_c, 4, 36, 0
6, 172848, Note_on_c, 4, 36, 50
6, 172872, Note_on_c, 4, 36, 0
6, 172896, Note_on_c, 4, 33, 55
6, 172920, Note_on_c, 4, 33, 0
6, 173040, Note_on_c, 4, 29, 60
6, 173075, Note_on_c, 4, 29, 0
6, 173112, Note_on_c, 4, 41, 50
6, 173124, Note_on_c, 4, 41, 0
6, 173136, Note_on_c, 4, 41, 50
6, 173160, Note_on_c, 4, 41, 0
6, 173184, Note_on_c, 4, 38, 55
6, 173208, Note_on_c, 4, 38, 0
6, 173904, Note_on_c, 4, 26, 60
6, 173939, Note_on_c, 4, 26, 0
6, 173976, Note_on_c, 4, 38, 50
6, 173988, Note_on_c, 4, 38, 0
6, 174000, Note_on_c, 4, 38, 50
6, 174024, Note_on_c, 4, 38, 0
6, 174048, Note_on_c, 4, 34, 55
6, 174072, Note_on_c, 4, 34, 0
6, 174192, Note_on_c, 4, 31, 60
6, 174227, Note_on_c, 4, 31, 0
6, 174264, Note_on_c, 4, 43, 50
6, 174276, Note_on_c, 4, 43, 0
6, 174288, Note_on_c, 4, 43, 50
6, 174312, Note_on_c, 4, 43, 0
6, 174336, Note_on_c, 4, 39, 55
6, 174360, Note_on_c, 4, 39, 0
6, 175056, Note_on_c, 4, 39, 70
6, 175091, Note_on_c, 4, 39, 0
6, 175128, Note_on_c, 4, 51, 61
6, 175140, Note_on_c, 4, 51, 0
6, 175152, Note_on_c, 4, 51, 61
6, 175176, Note_on_c, 4, 51, 0
6, 175200, Note_on_c, 4, 48, 65
6, 175224, Note_on_c, 4, 48, 0
6, 175344, Note_on_c, 4, 32, 75
6, 175379, Note_on_c, 4, 32, 0
6, 175416, Note_on_c, 4, 44, 67
6, 175428, Note_on_c, 4, 44, 0
6, 175440, Note_on_c, 4, 44, 67
6, 175464, Note_on_c, 4, 44, 0
6, 175488, Note_on_c, 4, 41, 71
6, 175512, Note_on_c, 4, 41, 0
6, 175632, Note_on_c, 4, 37, 80
6, 175667, Note_on_c, 4, 37, 0
6, 175704, Note_on_c, 4, 49, 72
6, 175716, Note_on_c, 4, 49, 0
6, 175728, Note_on_c, 4, 49, 73
6, 175752, Note_on_c, 4, 49, 0
6, 175776, Note_on_c, 4, 46, 74
6, 175800, Note_on_c, 4, 46, 0
6, 175920, Note_on_c, 4, 30, 86
6, 175955, Note_on_c, 4, 30, 0
6, 175992, Note_on_c, 4, 42, 78
6, 176004, Note_on_c, 4, 42, 0
6, 176016, Note_on_c, 4, 42, 78
6, 176040, Note_on_c, 4, 42, 0
6, 176064, Note_on_c, 4, 39, 79
6, 176088, Note_on_c, 4, 39, 0
6, 176208, Note_on_c, 4, 35, 92
6, 176243, Note_on_c, 4, 35, 0
6, 176280, Note_on_c, 4, 47, 83
6, 176292, Note_on_c, 4, 47, 0
6, 176304, Note_on_c, 4, 47, 84
6, 176328, Note_on_c, 4, 47, 0
6, 176352, Note_on_c, 4, 44, 85
6, 176376, Note_on_c, 4, 44, 0
6, 176496, Note_on_c, 4, 40, 98
6, 176531, Note_on_c, 4, 40, 0
6, 176568, Note_on_c, 4, 52, 89
6, 176580, Note_on_c, 4, 52, 0
6, 176592, Note_on_c, 4, 52, 90
6, 176616, Note_on_c, 4, 52, 0
6, 176640, Note_on_c, 4, 49, 90
6, 176664, Note_on_c, 4, 49, 0
6, 176784, Note_on_c, 4, 33, 110
6, 176819, Note_on_c, 4, 33, 0
6, 176856, Note_on_c, 4, 45, 100
6, 176868, Note_on_c, 4, 45, 0
6, 176880, Note_on_c, 4, 45, 100
6, 176904, Note_on_c, 4, 45, 0
6, 177072, Note_on_c, 4, 34, 119
6, 177107, Note_on_c, 4, 34, 0
6, 177144, Note_on_c, 4, 46, 113
6, 177156, Note_on_c, 4, 46, 0
6, 177168, Note_on_c, 4, 46, 113
6, 177192, Note_on_c, 4, 46, 0
6, 177360, Note_on_c, 4, 35, 120
6, 177395, Note_on_c, 4, 35, 0
6, 177432, Note_on_c, 4, 47, 113
6, 177444, Note_on_c, 4, 47, 0
6, 177456, Note_on_c, 4, 47, 113
6, 177480, Note_on_c, 4, 47, 0
6, 177696, Program_c, 4, 32
6, 177840, Note_on_c, 4, 40, 60
6, 177864, Note_on_c, 4, 40, 0
6, 177984, Note_on_c, 4, 35, 57
6, 178008, Note_on_c, 4, 35, 0
6, 178272, Note_on_c, 4, 40, 60
6, 178296, Note_on_c, 4, 40, 0
6, 178416, Note_on_c, 4, 35, 57
6, 178440, Note_on_c, 4, 35, 0
6, 178704, Note_on_c, 4, 40, 60
6, 178728, Note_on_c, 4, 40, 0
6, 178848, Note_on_c, 4, 35, 57
6, 178872, Note_on_c, 4, 35, 0
6, 179136, Note_on_c, 4, 52, 60
6, 179160, Note_on_c, 4, 52, 0
6, 179280, Note_on_c, 4, 40, 57
6, 179304, Note_on_c, 4, 40, 0
6, 179568, Note_on_c, 4, 45, 60
6, 179592, Note_on_c, 4, 45, 0
6, 179712, Note_on_c, 4, 40, 57
6, 179736, Note_on_c, 4, 40, 0
6, 180000, Note_on_c, 4, 45, 60
6, 180024, Note_on_c, 4, 45, 0
6, 180144, Note_on_c, 4, 40, 57
6, 180168, Note_on_c, 4, 40, 0
6, 180432, Note_on_c, 4, 53, 60
6, 180456, Note_on_c, 4, 53, 0
6, 180576, Note_on_c, 4, 41, 57
6, 180600, Note_on_c, 4, 41, 0
6, 180864, Note_on_c, 4, 53, 60
6, 180888, Note_on_c, 4, 53, 0
6, 181008, Note_on_c, 4, 41, 57
6, 181032, Note_on_c, 4, 41, 0
6, 181296, Note_on_c, 4, 53, 60
6, 181320, Note_on_c, 4, 53, 0
6, 181440, Note_on_c, 4, 41, 57
6, 181464, Note_on_c, 4, 41, 0
6, 181728, Note_on_c, 4, 53, 60
6, 181752, Note_on_c, 4, 53, 0
6, 181872, Note_on_c, 4, 41, 57
6, 181896, Note_on_c, 4, 41, 0
6, 182016, Note_on_c, 4, 41, 60
6, 182040, Note_on_c, 4, 41, 0
6, 182160, Note_on_c, 4, 29, 57
6, 182184, Note_on_c, 4, 29, 0
6, 182304, Note_on_c, 4, 41, 60
6, 182328, Note_on_c, 4, 41, 0
6, 182448, Note_on_c, 4, 48, 50
6, 182472, Note_on_c, 4, 48, 0
6, 182592, Note_on_c, 4, 36, 47
6, 182616, Note_on_c, 4, 36, 0
6, 182736, Note_on_c, 4, 48, 50
6, 182760, Note_on_c, 4, 48, 0
6, 182880, Note_on_c, 4, 50, 50
6, 182904, Note_on_c, 4, 50, 0
6, 183024, Note_on_c, 4, 38, 47
6, 183048, Note_on_c, 4, 38, 0
6, 183168, Note_on_c, 4, 50, 50
6, 183192, Note_on_c, 4, 50, 0
6, 183312, Note_on_c, 4, 45, 50
6, 183336, Note_on_c, 4, 45, 0
6, 183456, Note_on_c, 4, 33, 47
6, 183480, Note_on_c, 4, 33, 0
6, 183600, Note_on_c, 4, 45, 50
6, 183624, Note_on_c, 4, 45, 0
6, 183744, Note_on_c, 4, 45, 50
6, 183768, Note_on_c, 4, 45, 0
6, 183888, Note_on_c, 4, 33, 47
6, 183912, Note_on_c, 4, 33, 0
6, 184032, Note_on_c, 4, 45, 50
6, 184056, Note_on_c, 4, 45, 0
6, 184176, Note_on_c, 4, 45, 50
6, 184200, Note_on_c, 4, 45, 0
6, 184320, Note_on_c, 4, 33, 47
6, 184344, Note_on_c, 4, 33, 0
6, 184464, Note_on_c, 4, 45, 50
6, 184488, Note_on_c, 4, 45, 0
6, 184608, Note_on_c, 4, 43, 55
6, 184632, Note_on_c, 4, 43, 0
6, 184656, Note_on_c, 4, 41, 50
6, 184680, Note_on_c, 4, 41, 0
6, 184704, Note_on_c, 4, 40, 50
6, 184728, Note_on_c, 4, 40, 0
6, 184752, Note_on_c, 4, 38, 55
6, 184776, Note_on_c, 4, 38, 0
6, 184896, Note_on_c, 4, 33, 50
6, 184920, Note_on_c, 4, 33, 0
6, 185184, Note_on_c, 4, 38, 50
6, 185208, Note_on_c, 4, 38, 0
6, 185328, Note_on_c, 4, 33, 47
6, 185352, Note_on_c, 4, 33, 0
6, 185616, Note_on_c, 4, 38, 50
6, 185640, Note_on_c, 4, 38, 0
6, 185760, Note_on_c, 4, 33, 47
6, 185784, Note_on_c, 4, 33, 0
6, 185904, Program_c, 4, 48
6, 185904, Note_on_c, 4, 45, 60
6, 185939, Note_on_c, 4, 45, 0
6, 185976, Note_on_c, 4, 33, 50
6, 185988, Note_on_c, 4, 33, 0
6, 186000, Note_on_c, 4, 33, 50
6, 186024, Note_on_c, 4, 33, 0
6, 186048, Note_on_c, 4, 38, 55
6, 186072, Note_on_c, 4, 38, 0
6, 186096, Note_on_c, 4, 40, 50
6, 186120, Note_on_c, 4, 40, 0
6, 186144, Note_on_c, 4, 41, 50
6, 186168, Note_on_c, 4, 41, 0
6, 186192, Note_on_c, 4, 40, 55
6, 186216, Note_on_c, 4, 40, 0
6, 186240, Note_on_c, 4, 41, 50
6, 186264, Note_on_c, 4, 41, 0
6, 186288, Note_on_c, 4, 43, 50
6, 186312, Note_on_c, 4, 43, 0
6, 186336, Note_on_c, 4, 41, 55
6, 186360, Note_on_c, 4, 41, 0
6, 186384, Note_on_c, 4, 40, 50
6, 186408, Note_on_c, 4, 40, 0
6, 186432, Note_on_c, 4, 38, 50
6, 186456, Note_on_c, 4, 38, 0
6, 186480, Note_on_c, 4, 35, 55
6, 186504, Note_on_c, 4, 35, 0
6, 186528, Note_on_c, 4, 36, 50
6, 186552, Note_on_c, 4, 36, 0
6, 186576, Note_on_c, 4, 38, 50
6, 186600, Note_on_c, 4, 38, 0
6, 186624, Note_on_c, 4, 36, 55
6, 186648, Note_on_c, 4, 36, 0
6, 186672, Note_on_c, 4, 35, 50
6, 186696, Note_on_c, 4, 35, 0
6, 186720, Note_on_c, 4, 36, 50
6, 186744, Note_on_c, 4, 36, 0
6, 186768, Note_on_c, 4, 35, 55
6, 186792, Note_on_c, 4, 35, 0
6, 186816, Note_on_c, 4, 36, 50
6, 186840, Note_on_c, 4, 36, 0
6, 186864, Note_on_c, 4, 38, 50
6, 186888, Note_on_c, 4, 38, 0
6, 186912, Note_on_c, 4, 36, 55
6, 186936, Note_on_c, 4, 36, 0
6, 186960, Note_on_c, 4, 36, 50
6, 186984, Note_on_c, 4, 36, 0
6, 187008, Note_on_c, 4, 36, 50
6, 187032, Note_on_c, 4, 36, 0
6, 187056, Note_on_c, 4, 46, 60
6, 187091, Note_on_c, 4, 46, 0
6, 187128, Note_on_c, 4, 34, 50
6, 187140, Note_on_c, 4, 34, 0
6, 187152, Note_on_c, 4, 34, 50
6, 187176, Note_on_c, 4, 34, 0
6, 187200, Note_on_c, 4, 39, 55
6, 187224, Note_on_c, 4, 39, 0
6, 187248, Note_on_c, 4, 41, 50
6, 187272, Note_on_c, 4, 41, 0
6, 187296, Note_on_c, 4, 43, 50
6, 187320, Note_on_c, 4, 43, 0
6, 187344, Note_on_c, 4, 41, 55
6, 187368, Note_on_c, 4, 41, 0
6, 187392, Note_on_c, 4, 43, 50
6, 187416, Note_on_c, 4, 43, 0
6, 187440, Note_on_c, 4, 44, 50
6, 187464, Note_on_c, 4, 44, 0
6, 187488, Note_on_c, 4, 43, 55
6, 187512, Note_on_c, 4, 43, 0
6, 187536, Note_on_c, 4, 41, 50
6, 187560, Note_on_c, 4, 41, 0
6, 187584, Note_on_c, 4, 39, 50
6, 187608, Note_on_c, 4, 39, 0
6, 187632, Note_on_c, 4, 38, 55
6, 187656, Note_on_c, 4, 38, 0
6, 187680, Note_on_c, 4, 36, 50
6, 187704, Note_on_c, 4, 36, 0
6, 187728, Note_on_c, 4, 34, 50
6, 187752, Note_on_c, 4, 34, 0
6, 187776, Note_on_c, 4, 34, 55
6, 187800, Note_on_c, 4, 34, 0
6, 187824, Note_on_c, 4, 34, 50
6, 187848, Note_on_c, 4, 34, 0
6, 187872, Note_on_c, 4, 34, 50
6, 187896, Note_on_c, 4, 34, 0
6, 187920, Note_on_c, 4, 34, 50
6, 189072, Note_on_c, 4, 34, 0
6, 189072, Control_c, 4, 11, 50
6, 189072, Note_on_c, 4, 34, 120
6, 189089, Control_c, 4, 11, 51
6, 189105, Control_c, 4, 11, 52
6, 189122, Control_c, 4, 11, 53
6, 189138, Control_c, 4, 11, 54
6, 189155, Control_c, 4, 11, 55
6, 189171, Control_c, 4, 11, 56
6, 189188, Control_c, 4, 11, 57
6, 189204, Control_c, 4, 11, 58
6, 189220, Control_c, 4, 11, 59
6, 189237, Control_c, 4, 11, 60
6, 189253, Control_c, 4, 11, 61
6, 189270, Control_c, 4, 11, 62
6, 189286, Control_c, 4, 11, 63
6, 189303, Control_c, 4, 11, 64
6, 189319, Control_c, 4, 11, 65
6, 189336, Control_c, 4, 11, 66
6, 189352, Control_c, 4, 11, 67
6, 189368, Control_c, 4, 11, 68
6, 189385, Control_c, 4, 11, 69
6, 189401, Control_c, 4, 11, 70
6, 189418, Control_c, 4, 11, 71
6, 189434, Control_c, 4, 11, 72
6, 189451, Control_c, 4, 11, 73
6, 189467, Control_c, 4, 11, 74
6, 189484, Control_c, 4, 11, 75
6, 189500, Control_c, 4, 11, 76
6, 189516, Control_c, 4, 11, 77
6, 189533, Control_c, 4, 11, 78
6, 189549, Control_c, 4, 11, 79
6, 189566, Control_c, 4, 11, 80
6, 189582, Control_c, 4, 11, 81
6, 189599, Control_c, 4, 11, 82
6, 189615, Control_c, 4, 11, 83
6, 189632, Control_c, 4, 11, 84
6, 189647, Note_on_c, 4, 34, 0
6, 189648, Note_on_c, 4, 33, 120
6, 189648, Control_c, 4, 11, 85
6, 189664, Control_c, 4, 11, 86
6, 189681, Control_c, 4, 11, 87
6, 189697, Control_c, 4, 11, 88
6, 189714, Control_c, 4, 11, 89
6, 189730, Control_c, 4, 11, 90
6, 189747, Control_c, 4, 11, 91
6, 189763, Control_c, 4, 11, 92
6, 189780, Control_c, 4, 11, 93
6, 189796, Control_c, 4, 11, 94
6, 189812, Control_c, 4, 11, 95
6, 189829, Control_c, 4, 11, 96
6, 189845, Control_c, 4, 11, 97
6, 189862, Control_c, 4, 11, 98
6, 189878, Control_c, 4, 11, 99
6, 189895, Control_c, 4, 11, 100
6, 189911, Control_c, 4, 11, 101
6, 189928, Control_c, 4, 11, 102
6, 189944, Control_c, 4, 11, 103
6, 189960, Control_c, 4, 11, 104
6, 189977, Control_c, 4, 11, 105
6, 189993, Control_c, 4, 11, 106
6, 190010, Control_c, 4, 11, 107
6, 190026, Control_c, 4, 11, 108
6, 190043, Control_c, 4, 11, 109
6, 190059, Control_c, 4, 11, 110
6, 190076, Control_c, 4, 11, 111
6, 190092, Control_c, 4, 11, 112
6, 190108, Control_c, 4, 11, 113
6, 190125, Control_c, 4, 11, 114
6, 190141, Control_c, 4, 11, 115
6, 190158, Control_c, 4, 11, 116
6, 190174, Control_c, 4, 11, 117
6, 190191, Control_c, 4, 11, 118
6, 190207, Control_c, 4, 11, 119
6, 190223, Control_c, 4, 11, 120
6, 190224, Note_on_c, 4, 33, 0
6, 190224, Control_c, 4, 11, 120
6, 190224, Note_on_c, 4, 33, 120
6, 190254, Note_on_c, 4, 33, 0
6, 190512, Note_on_c, 4, 33, 120
6, 190542, Note_on_c, 4, 33, 0
6, 190800, Note_on_c, 4, 26, 125
6, 190835, Note_on_c, 4, 26, 0
6, 190872, Note_on_c, 4, 38, 115
6, 190884, Note_on_c, 4, 38, 0
6, 190896, Note_on_c, 4, 38, 115
6, 190920, Note_on_c, 4, 38, 0
6, 190944, Note_on_c, 4, 26, 125
6, 190979, Note_on_c, 4, 26, 0
6, 191016, Note_on_c, 4, 38, 115
6, 191028, Note_on_c, 4, 38, 0
6, 191040, Note_on_c, 4, 38, 115
6, 191064, Note_on_c, 4, 38, 0
6, 191088, Note_on_c, 4, 26, 125
6, 191123, Note_on_c, 4, 26, 0
6, 191160, Note_on_c, 4, 38, 115
6, 191172, Note_on_c, 4, 38, 0
6, 191184, Note_on_c, 4, 38, 115
6, 191208, Note_on_c, 4, 38, 0
6, 191232, Note_on_c, 4, 26, 125
6, 191267, Note_on_c, 4, 26, 0
6, 191304, Note_on_c, 4, 38, 115
6, 191316, Note_on_c, 4, 38, 0
6, 191328, Note_on_c, 4, 38, 115
6, 191352, Note_on_c, 4, 38, 0
6, 191376, Note_on_c, 4, 26, 125
6, 191411, Note_on_c, 4, 26, 0
6, 191448, Note_on_c, 4, 38, 115
6, 191460, Note_on_c, 4, 38, 0
6, 191472, Note_on_c, 4, 38, 115
6, 191496, Note_on_c, 4, 38, 0
6, 191520, Note_on_c, 4, 26, 125
6, 191555, Note_on_c, 4, 26, 0
6, 191592, Note_on_c, 4, 38, 115
6, 191604, Note_on_c, 4, 38, 0
6, 191616, Note_on_c, 4, 38, 115
6, 191640, Note_on_c, 4, 38, 0
6, 191664, Note_on_c, 4, 26, 125
6, 191699, Note_on_c, 4, 26, 0
6, 191736, Note_on_c, 4, 38, 115
6, 191748, Note_on_c, 4, 38, 0
6, 191760, Note_on_c, 4, 38, 115
6, 191784, Note_on_c, 4, 38, 0
6, 191808, Note_on_c, 4, 26, 125
6, 191843, Note_on_c, 4, 26, 0
6, 191880, Note_on_c, 4, 38, 115
6, 191892, Note_on_c, 4, 38, 0
6, 191904, Note_on_c, 4, 38, 115
6, 191928, Note_on_c, 4, 38, 0
6, 191952, Note_on_c, 4, 26, 125
6, 191987, Note_on_c, 4, 26, 0
6, 192024, Note_on_c, 4, 38, 115
6, 192036, Note_on_c, 4, 38, 0
6, 192048, Note_on_c, 4, 38, 115
6, 192072, Note_on_c, 4, 38, 0
6, 192096, Note_on_c, 4, 26, 125
6, 192131, Note_on_c, 4, 26, 0
6, 192168, Note_on_c, 4, 38, 115
6, 192180, Note_on_c, 4, 38, 0
6, 192192, Note_on_c, 4, 38, 115
6, 192216, Note_on_c, 4, 38, 0
6, 192240, Note_on_c, 4, 26, 125
6, 192275, Note_on_c, 4, 26, 0
6, 192312, Note_on_c, 4, 38, 115
6, 192324, Note_on_c, 4, 38, 0
6, 192336, Note_on_c, 4, 38, 115
6, 192360, Note_on_c, 4, 38, 0
6, 192384, Note_on_c, 4, 26, 125
6, 192419, Note_on_c, 4, 26, 0
6, 192456, Note_on_c, 4, 38, 115
6, 192468, Note_on_c, 4, 38, 0
6, 192480, Note_on_c, 4, 38, 115
6, 192504, Note_on_c, 4, 38, 0
6, 192528, Note_on_c, 4, 26, 125
6, 192563, Note_on_c, 4, 26, 0
6, 192600, Note_on_c, 4, 38, 115
6, 192612, Note_on_c, 4, 38, 0
6, 192624, Note_on_c, 4, 38, 115
6, 192648, Note_on_c, 4, 38, 0
6, 192672, Note_on_c, 4, 26, 125
6, 192707, Note_on_c, 4, 26, 0
6, 192744, Note_on_c, 4, 38, 115
6, 192756, Note_on_c, 4, 38, 0
6, 192768, Note_on_c, 4, 38, 115
6, 192792, Note_on_c, 4, 38, 0
6, 192816, Note_on_c, 4, 26, 125
6, 192851, Note_on_c, 4, 26, 0
6, 192888, Note_on_c, 4, 38, 115
6, 192900, Note_on_c, 4, 38, 0
6, 192912, Note_on_c, 4, 38, 115
6, 192936, Note_on_c, 4, 38, 0
6, 192960, Note_on_c, 4, 26, 125
6, 192995, Note_on_c, 4, 26, 0
6, 193032, Note_on_c, 4, 38, 115
6, 193044, Note_on_c, 4, 38, 0
6, 193056, Note_on_c, 4, 38, 115
6, 193080, Note_on_c, 4, 38, 0
6, 193104, Note_on_c, 4, 51, 120
6, 193128, Note_on_c, 4, 51, 0
6, 193152, Note_on_c, 4, 50, 115
6, 193176, Note_on_c, 4, 50, 0
6, 193200, Note_on_c, 4, 48, 115
6, 193224, Note_on_c, 4, 48, 0
6, 193248, Note_on_c, 4, 46, 120
6, 193272, Note_on_c, 4, 46, 0
6, 193296, Note_on_c, 4, 45, 115
6, 193320, Note_on_c, 4, 45, 0
6, 193344, Note_on_c, 4, 43, 115
6, 193368, Note_on_c, 4, 43, 0
6, 193392, Note_on_c, 4, 42, 120
6, 193416, Note_on_c, 4, 42, 0
6, 193440, Note_on_c, 4, 43, 115
6, 193464, Note_on_c, 4, 43, 0
6, 193488, Note_on_c, 4, 45, 115
6, 193512, Note_on_c, 4, 45, 0
6, 193536, Note_on_c, 4, 43, 120
6, 193560, Note_on_c, 4, 43, 0
6, 193584, Note_on_c, 4, 45, 115
6, 193608, Note_on_c, 4, 45, 0
6, 193632, Note_on_c, 4, 46, 115
6, 193656, Note_on_c, 4, 46, 0
6, 193680, Note_on_c, 4, 51, 105
6, 193704, Note_on_c, 4, 51, 0
6, 193728, Note_on_c, 4, 50, 100
6, 193752, Note_on_c, 4, 50, 0
6, 193776, Note_on_c, 4, 48, 100
6, 193800, Note_on_c, 4, 48, 0
6, 193824, Note_on_c, 4, 46, 105
6, 193848, Note_on_c, 4, 46, 0
6, 193872, Note_on_c, 4, 45, 100
6, 193896, Note_on_c, 4, 45, 0
6, 193920, Note_on_c, 4, 43, 100
6, 193944, Note_on_c, 4, 43, 0
6, 193968, Note_on_c, 4, 53, 105
6, 193992, Note_on_c, 4, 53, 0
6, 194016, Note_on_c, 4, 51, 100
6, 194040, Note_on_c, 4, 51, 0
6, 194064, Note_on_c, 4, 50, 100
6, 194088, Note_on_c, 4, 50, 0
6, 194112, Note_on_c, 4, 48, 105
6, 194136, Note_on_c, 4, 48, 0
6, 194160, Note_on_c, 4, 46, 100
6, 194184, Note_on_c, 4, 46, 0
6, 194208, Note_on_c, 4, 45, 100
6, 194232, Note_on_c, 4, 45, 0
6, 194256, Note_on_c, 4, 55, 105
6, 194280, Note_on_c, 4, 55, 0
6, 194304, Note_on_c, 4, 53, 100
6, 194328, Note_on_c, 4, 53, 0
6, 194352, Note_on_c, 4, 51, 100
6, 194376, Note_on_c, 4, 51, 0
6, 194400, Note_on_c, 4, 50, 105
6, 194424, Note_on_c, 4, 50, 0
6, 194448, Note_on_c, 4, 48, 100
6, 194472, Note_on_c, 4, 48, 0
6, 194496, Note_on_c, 4, 46, 100
6, 194520, Note_on_c, 4, 46, 0
6, 194544, Note_on_c, 4, 45, 105
6, 194568, Note_on_c, 4, 45, 0
6, 194592, Note_on_c, 4, 43, 100
6, 194616, Note_on_c, 4, 43, 0
6, 194640, Note_on_c, 4, 41, 100
6, 194664, Note_on_c, 4, 41, 0
6, 194688, Note_on_c, 4, 39, 105
6, 194712, Note_on_c, 4, 39, 0
6, 194736, Note_on_c, 4, 38, 100
6, 194760, Note_on_c, 4, 38, 0
6, 194784, Note_on_c, 4, 36, 100
6, 194808, Note_on_c, 4, 36, 0
6, 194832, Note_on_c, 4, 34, 100
6, 194856, Note_on_c, 4, 34, 0
6, 194976, Program_c, 4, 32
6, 194976, Note_on_c, 4, 46, 60
6, 195000, Note_on_c, 4, 46, 0
6, 195120, Note_on_c, 4, 39, 60
6, 195144, Note_on_c, 4, 39, 0
6, 195264, Note_on_c, 4, 36, 60
6, 195288, Note_on_c, 4, 36, 0
6, 195408, Note_on_c, 4, 41, 60
6, 195432, Note_on_c, 4, 41, 0
6, 195552, Note_on_c, 4, 34, 60
6, 195576, Note_on_c, 4, 34, 0
6, 195696, Note_on_c, 4, 41, 60
6, 195720, Note_on_c, 4, 41, 0
6, 195840, Note_on_c, 4, 29, 60
6, 195864, Note_on_c, 4, 29, 0
6, 197568, Program_c, 4, 32
6, 197568, Note_on_c, 4, 45, 60
6, 197592, Note_on_c, 4, 45, 0
6, 197712, Note_on_c, 4, 33, 67
6, 197736, Note_on_c, 4, 33, 0
6, 197856, Note_on_c, 4, 45, 74
6, 197880, Note_on_c, 4, 45, 0
6, 198000, Note_on_c, 4, 33, 81
6, 198024, Note_on_c, 4, 33, 0
6, 198144, Note_on_c, 4, 45, 89
6, 198168, Note_on_c, 4, 45, 0
6, 198288, Note_on_c, 4, 33, 90
6, 198312, Note_on_c, 4, 33, 0
6, 198432, Note_on_c, 4, 45, 76
6, 198456, Note_on_c, 4, 45, 0
6, 198576, Note_on_c, 4, 33, 61
6, 198600, Note_on_c, 4, 33, 0
6, 198816, Note_on_c, 4, 45, 60
6, 198840, Note_on_c, 4, 45, 0
6, 198960, Note_on_c, 4, 45, 69
6, 198984, Note_on_c, 4, 45, 0
6, 199104, Note_on_c, 4, 45, 78
6, 199128, Note_on_c, 4, 45, 0
6, 199248, Note_on_c, 4, 43, 87
6, 199272, Note_on_c, 4, 43, 0
6, 199392, Note_on_c, 4, 42, 96
6, 199416, Note_on_c, 4, 42, 0
6, 199536, Note_on_c, 4, 41, 105
6, 199560, Note_on_c, 4, 41, 0
6, 199680, Note_on_c, 4, 40, 114
6, 199704, Note_on_c, 4, 40, 0
6, 199728, Program_c, 4, 48
6, 199728, Note_on_c, 4, 50, 120
6, 199763, Note_on_c, 4, 50, 0
6, 199800, Note_on_c, 4, 38, 113
6, 199812, Note_on_c, 4, 38, 0
6, 199824, Note_on_c, 4, 38, 113
6, 199848, Note_on_c, 4, 38, 0
6, 199872, Note_on_c, 4, 50, 120
6, 199907, Note_on_c, 4, 50, 0
6, 199944, Note_on_c, 4, 38, 113
6, 199956, Note_on_c, 4, 38, 0
6, 199968, Note_on_c, 4, 38, 113
6, 199992, Note_on_c, 4, 38, 0
6, 200016, Note_on_c, 4, 50, 120
6, 200051, Note_on_c, 4, 50, 0
6, 200088, Note_on_c, 4, 38, 113
6, 200100, Note_on_c, 4, 38, 0
6, 200112, Note_on_c, 4, 38, 113
6, 200136, Note_on_c, 4, 38, 0
6, 200160, Note_on_c, 4, 50, 120
6, 200195, Note_on_c, 4, 50, 0
6, 200232, Note_on_c, 4, 38, 113
6, 200244, Note_on_c, 4, 38, 0
6, 200256, Note_on_c, 4, 38, 113
6, 200280, Note_on_c, 4, 38, 0
6, 200304, Note_on_c, 4, 50, 120
6, 200339, Note_on_c, 4, 50, 0
6, 200376, Note_on_c, 4, 38, 113
6, 200388, Note_on_c, 4, 38, 0
6, 200400, Note_on_c, 4, 38, 113
6, 200424, Note_on_c, 4, 38, 0
6, 200448, Note_on_c, 4, 50, 120
6, 200483, Note_on_c, 4, 50, 0
6, 200520, Note_on_c, 4, 38, 113
6, 200532, Note_on_c, 4, 38, 0
6, 200544, Note_on_c, 4, 38, 113
6, 200568, Note_on_c, 4, 38, 0
6, 200592, Note_on_c, 4, 50, 120
6, 200627, Note_on_c, 4, 50, 0
6, 200664, Note_on_c, 4, 38, 113
6, 200676, Note_on_c, 4, 38, 0
6, 200688, Note_on_c, 4, 38, 113
6, 200712, Note_on_c, 4, 38, 0
6, 200736, Note_on_c, 4, 50, 120
6, 200771, Note_on_c, 4, 50, 0
6, 200808, Note_on_c, 4, 38, 113
6, 200820, Note_on_c, 4, 38, 0
6, 200832, Note_on_c, 4, 38, 113
6, 200856, Note_on_c, 4, 38, 0
6, 200880, Note_on_c, 4, 50, 120
6, 200915, Note_on_c, 4, 50, 0
6, 200952, Note_on_c, 4, 38, 113
6, 200964, Note_on_c, 4, 38, 0
6, 200976, Note_on_c, 4, 38, 113
6, 201000, Note_on_c, 4, 38, 0
6, 201024, Note_on_c, 4, 50, 120
6, 201059, Note_on_c, 4, 50, 0
6, 201096, Note_on_c, 4, 38, 113
6, 201108, Note_on_c, 4, 38, 0
6, 201120, Note_on_c, 4, 38, 113
6, 201144, Note_on_c, 4, 38, 0
6, 201168, Note_on_c, 4, 50, 120
6, 201203, Note_on_c, 4, 50, 0
6, 201240, Note_on_c, 4, 38, 113
6, 201252, Note_on_c, 4, 38, 0
6, 201264, Note_on_c, 4, 38, 113
6, 201288, Note_on_c, 4, 38, 0
6, 201312, Note_on_c, 4, 50, 120
6, 201347, Note_on_c, 4, 50, 0
6, 201384, Note_on_c, 4, 38, 113
6, 201396, Note_on_c, 4, 38, 0
6, 201408, Note_on_c, 4, 38, 113
6, 201432, Note_on_c, 4, 38, 0
6, 201456, Note_on_c, 4, 50, 120
6, 201491, Note_on_c, 4, 50, 0
6, 201528, Note_on_c, 4, 38, 113
6, 201540, Note_on_c, 4, 38, 0
6, 201552, Note_on_c, 4, 38, 113
6, 201576, Note_on_c, 4, 38, 0
6, 201600, Note_on_c, 4, 50, 120
6, 201635, Note_on_c, 4, 50, 0
6, 201672, Note_on_c, 4, 38, 113
6, 201684, Note_on_c, 4, 38, 0
6, 201696, Note_on_c, 4, 38, 113
6, 201720, Note_on_c, 4, 38, 0
6, 201744, Note_on_c, 4, 50, 120
6, 201779, Note_on_c, 4, 50, 0
6, 201816, Note_on_c, 4, 38, 113
6, 201828, Note_on_c, 4, 38, 0
6, 201840, Note_on_c, 4, 38, 113
6, 201864, Note_on_c, 4, 38, 0
6, 201888, Note_on_c, 4, 50, 120
6, 201923, Note_on_c, 4, 50, 0
6, 201960, Note_on_c, 4, 38, 113
6, 201972, Note_on_c, 4, 38, 0
6, 201984, Note_on_c, 4, 38, 113
6, 202008, Note_on_c, 4, 38, 0
6, 202032, Note_on_c, 4, 50, 120
6, 202056, Note_on_c, 4, 50, 0
6, 202320, Note_on_c, 4, 43, 118
6, 202355, Note_on_c, 4, 43, 0
6, 202392, Note_on_c, 4, 31, 113
6, 202404, Note_on_c, 4, 31, 0
6, 202416, Note_on_c, 4, 31, 113
6, 202440, Note_on_c, 4, 31, 0
6, 202464, Note_on_c, 4, 31, 118
6, 202488, Note_on_c, 4, 31, 0
6, 202512, Note_on_c, 4, 28, 113
6, 202536, Note_on_c, 4, 28, 0
6, 202560, Note_on_c, 4, 26, 113
6, 202584, Note_on_c, 4, 26, 0
6, 202608, Note_on_c, 4, 24, 120
6, 202608, Note_on_c, 4, 36, 120
6, 202632, Note_on_c, 4, 36, 0
6, 202632, Note_on_c, 4, 24, 0
6, 202896, Note_on_c, 4, 53, 120
6, 202931, Note_on_c, 4, 53, 0
6, 202968, Note_on_c, 4, 41, 113
6, 202980, Note_on_c, 4, 41, 0
6, 202992, Note_on_c, 4, 41, 113
6, 203016, Note_on_c, 4, 41, 0
6, 203040, Note_on_c, 4, 41, 118
6, 203064, Note_on_c, 4, 41, 0
6, 203088, Note_on_c, 4, 38, 113
6, 203112, Note_on_c, 4, 38, 0
6, 203136, Note_on_c, 4, 36, 113
6, 203160, Note_on_c, 4, 36, 0
6, 203184, Control_c, 4, 11, 60
6, 203184, Note_on_c, 4, 36, 95
6, 203277, Note_on_c, 4, 36, 0
6, 203280, Note_on_c, 4, 48, 105
6, 203322, Note_on_c, 4, 48, 0
6, 203328, Note_on_c, 4, 46, 100
6, 203472, Control_c, 4, 11, 60
6, 203487, Control_c, 4, 11, 61
6, 203501, Control_c, 4, 11, 62
6, 203516, Control_c, 4, 11, 63
6, 203530, Control_c, 4, 11, 64
6, 203544, Control_c, 4, 11, 65
6, 203559, Control_c, 4, 11, 66
6, 203573, Control_c, 4, 11, 67
6, 203587, Control_c, 4, 11, 68
6, 203602, Control_c, 4, 11, 69
6, 203616, Control_c, 4, 11, 70
6, 203631, Control_c, 4, 11, 71
6, 203645, Control_c, 4, 11, 72
6, 203659, Control_c, 4, 11, 73
6, 203664, Note_on_c, 4, 46, 0
6, 203664, Note_on_c, 4, 44, 100
6, 203674, Control_c, 4, 11, 74
6, 203688, Control_c, 4, 11, 75
6, 203702, Control_c, 4, 11, 76
6, 203712, Note_on_c, 4, 44, 0
6, 203712, Note_on_c, 4, 43, 100
6, 203717, Control_c, 4, 11, 77
6, 203731, Control_c, 4, 11, 78
6, 203745, Control_c, 4, 11, 79
6, 203760, Note_on_c, 4, 43, 0
6, 203760, Note_on_c, 4, 43, 100
6, 203760, Control_c, 4, 11, 80
6, 203774, Control_c, 4, 11, 81
6, 203789, Control_c, 4, 11, 82
6, 203803, Control_c, 4, 11, 83
6, 203817, Control_c, 4, 11, 84
6, 203832, Control_c, 4, 11, 85
6, 203846, Control_c, 4, 11, 86
6, 203860, Control_c, 4, 11, 87
6, 203875, Control_c, 4, 11, 88
6, 203889, Control_c, 4, 11, 89
6, 203903, Note_on_c, 4, 43, 0
6, 203903, Control_c, 4, 11, 90
6, 203904, Control_c, 4, 11, 90
6, 203904, Note_on_c, 4, 45, 100
6, 203909, Control_c, 4, 11, 89
6, 203914, Control_c, 4, 11, 88
6, 203919, Control_c, 4, 11, 87
6, 203924, Control_c, 4, 11, 86
6, 203928, Control_c, 4, 11, 85
6, 203933, Control_c, 4, 11, 84
6, 203938, Control_c, 4, 11, 83
6, 203943, Control_c, 4, 11, 82
6, 203947, Control_c, 4, 11, 81
6, 203952, Control_c, 4, 11, 80
6, 203957, Control_c, 4, 11, 79
6, 203962, Control_c, 4, 11, 78
6, 203966, Control_c, 4, 11, 77
6, 203971, Control_c, 4, 11, 76
6, 203976, Control_c, 4, 11, 75
6, 203981, Control_c, 4, 11, 74
6, 203986, Control_c, 4, 11, 73
6, 203990, Control_c, 4, 11, 72
6, 203995, Control_c, 4, 11, 71
6, 204000, Control_c, 4, 11, 70
6, 204005, Control_c, 4, 11, 69
6, 204009, Control_c, 4, 11, 68
6, 204014, Control_c, 4, 11, 67
6, 204019, Control_c, 4, 11, 66
6, 204024, Control_c, 4, 11, 65
6, 204028, Control_c, 4, 11, 64
6, 204033, Control_c, 4, 11, 63
6, 204038, Control_c, 4, 11, 62
6, 204043, Control_c, 4, 11, 61
6, 204047, Note_on_c, 4, 45, 0
6, 204047, Control_c, 4, 11, 60
6, 204912, Control_c, 4, 11, 120
6, 204912, Note_on_c, 4, 50, 105
6, 204936, Note_on_c, 4, 50, 0
6, 204960, Note_on_c, 4, 46, 100
6, 204984, Note_on_c, 4, 46, 0
6, 205008, Note_on_c, 4, 43, 100
6, 205032, Note_on_c, 4, 43, 0
6, 205056, Note_on_c, 4, 44, 105
6, 205080, Note_on_c, 4, 44, 0
6, 205104, Note_on_c, 4, 45, 100
6, 205128, Note_on_c, 4, 45, 0
6, 205152, Note_on_c, 4, 33, 100
6, 205176, Note_on_c, 4, 33, 0
6, 205200, Note_on_c, 4, 38, 105
6, 205224, Note_on_c, 4, 38, 0
6, 205488, Note_on_c, 4, 45, 105
6, 205512, Note_on_c, 4, 45, 0
6, 205536, Note_on_c, 4, 41, 100
6, 205560, Note_on_c, 4, 41, 0
6, 205584, Note_on_c, 4, 46, 100
6, 205608, Note_on_c, 4, 46, 0
6, 205632, Note_on_c, 4, 43, 105
6, 205656, Note_on_c, 4, 43, 0
6, 205680, Note_on_c, 4, 40, 100
6, 205704, Note_on_c, 4, 40, 0
6, 205728, Note_on_c, 4, 45, 100
6, 205752, Note_on_c, 4, 45, 0
6, 205776, Note_on_c, 4, 38, 100
6, 205800, Note_on_c, 4, 38, 0
6, 205920, Note_on_c, 4, 45, 110
6, 205955, Note_on_c, 4, 45, 0
6, 205992, Note_on_c, 4, 33, 100
6, 206004, Note_on_c, 4, 33, 0
6, 206016, Note_on_c, 4, 33, 100
6, 206040, Note_on_c, 4, 33, 0
6, 206064, Note_on_c, 4, 26, 105
6, 206088, Note_on_c, 4, 26, 0
6, 206208, Note_on_c, 4, 45, 110
6, 206243, Note_on_c, 4, 45, 0
6, 206280, Note_on_c, 4, 33, 100
6, 206292, Note_on_c, 4, 33, 0
6, 206304, Note_on_c, 4, 33, 100
6, 206328, Note_on_c, 4, 33, 0
6, 206352, Note_on_c, 4, 33, 55
6, 206376, Note_on_c, 4, 33, 0
6, 206400, Note_on_c, 4, 33, 50
6, 206424, Note_on_c, 4, 33, 0
6, 206448, Note_on_c, 4, 33, 50
6, 206472, Note_on_c, 4, 33, 0
6, 206496, Note_on_c, 4, 33, 55
6, 206520, Note_on_c, 4, 33, 0
6, 206544, Note_on_c, 4, 33, 50
6, 206568, Note_on_c, 4, 33, 0
6, 206592, Note_on_c, 4, 33, 50
6, 206616, Note_on_c, 4, 33, 0
6, 206640, Note_on_c, 4, 33, 55
6, 206664, Note_on_c, 4, 33, 0
6, 206688, Note_on_c, 4, 33, 50
6, 206712, Note_on_c, 4, 33, 0
6, 206736, Note_on_c, 4, 33, 50
6, 206760, Note_on_c, 4, 33, 0
6, 206784, Note_on_c, 4, 33, 55
6, 206808, Note_on_c, 4, 33, 0
6, 206832, Note_on_c, 4, 33, 50
6, 206856, Note_on_c, 4, 33, 0
6, 206880, Note_on_c, 4, 33, 50
6, 206904, Note_on_c, 4, 33, 0
6, 206928, Note_on_c, 4, 26, 60
6, 206963, Note_on_c, 4, 26, 0
6, 207000, Note_on_c, 4, 38, 50
6, 207012, Note_on_c, 4, 38, 0
6, 207024, Note_on_c, 4, 38, 50
6, 207048, Note_on_c, 4, 38, 0
6, 207072, Note_on_c, 4, 33, 55
6, 207096, Note_on_c, 4, 33, 0
6, 207216, Note_on_c, 4, 29, 60
6, 207251, Note_on_c, 4, 29, 0
6, 207288, Note_on_c, 4, 41, 50
6, 207300, Note_on_c, 4, 41, 0
6, 207312, Note_on_c, 4, 41, 50
6, 207336, Note_on_c, 4, 41, 0
6, 207360, Note_on_c, 4, 38, 55
6, 207384, Note_on_c, 4, 38, 0
6, 208080, Note_on_c, 4, 38, 55
6, 208115, Note_on_c, 4, 38, 0
6, 208152, Note_on_c, 4, 50, 54
6, 208164, Note_on_c, 4, 50, 0
6, 208176, Note_on_c, 4, 50, 56
6, 208200, Note_on_c, 4, 50, 0
6, 208224, Note_on_c, 4, 45, 59
6, 208248, Note_on_c, 4, 45, 0
6, 208368, Note_on_c, 4, 41, 73
6, 208403, Note_on_c, 4, 41, 0
6, 208440, Note_on_c, 4, 53, 72
6, 208452, Note_on_c, 4, 53, 0
6, 208464, Note_on_c, 4, 53, 74
6, 208488, Note_on_c, 4, 53, 0
6, 208512, Note_on_c, 4, 50, 77
6, 208536, Note_on_c, 4, 50, 0
6, 208656, Note_on_c, 4, 34, 86
6, 208691, Note_on_c, 4, 34, 0
6, 208728, Note_on_c, 4, 46, 90
6, 208740, Note_on_c, 4, 46, 0
6, 208752, Note_on_c, 4, 46, 92
6, 208776, Note_on_c, 4, 46, 0
6, 208800, Note_on_c, 4, 43, 95
6, 208824, Note_on_c, 4, 43, 0
6, 208944, Note_on_c, 4, 34, 104
6, 208979, Note_on_c, 4, 34, 0
6, 209016, Note_on_c, 4, 46, 108
6, 209028, Note_on_c, 4, 46, 0
6, 209040, Note_on_c, 4, 46, 110
6, 209064, Note_on_c, 4, 46, 0
6, 209088, Note_on_c, 4, 45, 113
6, 209112, Note_on_c, 4, 45, 0
6, 209280, Note_on_c, 4, 37, 55
6, 209304, Note_on_c, 4, 37, 0
6, 209328, Note_on_c, 4, 38, 50
6, 209352, Note_on_c, 4, 38, 0
6, 209376, Note_on_c, 4, 40, 50
6, 209400, Note_on_c, 4, 40, 0
6, 209424, Note_on_c, 4, 41, 55
6, 209448, Note_on_c, 4, 41, 0
6, 209472, Note_on_c, 4, 40, 50
6, 209496, Note_on_c, 4, 40, 0
6, 209520, Note_on_c, 4, 38, 50
6, 209544, Note_on_c, 4, 38, 0
6, 209568, Note_on_c, 4, 36, 55
6, 209592, Note_on_c, 4, 36, 0
6, 209616, Note_on_c, 4, 34, 50
6, 209640, Note_on_c, 4, 34, 0
6, 209664, Note_on_c, 4, 33, 50
6, 209688, Note_on_c, 4, 33, 0
6, 209712, Note_on_c, 4, 31, 55
6, 209736, Note_on_c, 4, 31, 0
6, 209760, Note_on_c, 4, 33, 50
6, 209784, Note_on_c, 4, 33, 0
6, 209808, Note_on_c, 4, 34, 50
6, 209832, Note_on_c, 4, 34, 0
6, 209856, Note_on_c, 4, 37, 55
6, 209880, Note_on_c, 4, 37, 0
6, 209904, Note_on_c, 4, 38, 50
6, 209928, Note_on_c, 4, 38, 0
6, 209952, Note_on_c, 4, 40, 50
6, 209976, Note_on_c, 4, 40, 0
6, 210000, Note_on_c, 4, 41, 55
6, 210024, Note_on_c, 4, 41, 0
6, 210048, Note_on_c, 4, 40, 50
6, 210072, Note_on_c, 4, 40, 0
6, 210096, Note_on_c, 4, 38, 50
6, 210120, Note_on_c, 4, 38, 0
6, 210144, Note_on_c, 4, 36, 55
6, 210168, Note_on_c, 4, 36, 0
6, 210192, Note_on_c, 4, 34, 50
6, 210216, Note_on_c, 4, 34, 0
6, 210240, Note_on_c, 4, 33, 50
6, 210264, Note_on_c, 4, 33, 0
6, 210288, Note_on_c, 4, 31, 55
6, 210312, Note_on_c, 4, 31, 0
6, 210336, Note_on_c, 4, 33, 50
6, 210360, Note_on_c, 4, 33, 0
6, 210384, Note_on_c, 4, 34, 50
6, 210408, Note_on_c, 4, 34, 0
6, 210432, Note_on_c, 4, 45, 60
6, 210467, Note_on_c, 4, 45, 0
6, 210502, Note_on_c, 4, 33, 54
6, 210514, Note_on_c, 4, 33, 0
6, 210526, Note_on_c, 4, 33, 55
6, 210550, Note_on_c, 4, 33, 0
6, 210574, Note_on_c, 4, 38, 62
6, 210598, Note_on_c, 4, 38, 0
6, 210622, Note_on_c, 4, 40, 61
6, 210646, Note_on_c, 4, 40, 0
6, 210670, Note_on_c, 4, 41, 64
6, 210694, Note_on_c, 4, 41, 0
6, 210718, Note_on_c, 4, 45, 76
6, 210753, Note_on_c, 4, 45, 0
6, 210790, Note_on_c, 4, 33, 71
6, 210802, Note_on_c, 4, 33, 0
6, 210814, Note_on_c, 4, 33, 72
6, 210838, Note_on_c, 4, 33, 0
6, 210862, Note_on_c, 4, 38, 75
6, 210886, Note_on_c, 4, 38, 0
6, 210910, Note_on_c, 4, 40, 78
6, 210934, Note_on_c, 4, 40, 0
6, 210958, Note_on_c, 4, 41, 80
6, 210982, Note_on_c, 4, 41, 0
6, 211006, Note_on_c, 4, 45, 93
6, 211041, Note_on_c, 4, 45, 0
6, 211078, Note_on_c, 4, 33, 87
6, 211090, Note_on_c, 4, 33, 0
6, 211102, Note_on_c, 4, 33, 89
6, 211126, Note_on_c, 4, 33, 0
6, 211150, Note_on_c, 4, 38, 92
6, 211174, Note_on_c, 4, 38, 0
6, 211198, Note_on_c, 4, 40, 95
6, 211222, Note_on_c, 4, 40, 0
6, 211246, Note_on_c, 4, 41, 97
6, 211270, Note_on_c, 4, 41, 0
6, 211294, Note_on_c, 4, 45, 110
6, 211329, Note_on_c, 4, 45, 0
6, 211366, Note_on_c, 4, 33, 104
6, 211378, Note_on_c, 4, 33, 0
6, 211390, Note_on_c, 4, 33, 106
6, 211414, Note_on_c, 4, 33, 0
6, 211438, Note_on_c, 4, 38, 109
6, 211462, Note_on_c, 4, 38, 0
6, 211486, Note_on_c, 4, 40, 111
6, 211510, Note_on_c, 4, 40, 0
6, 211534, Note_on_c, 4, 41, 114
6, 211558, Note_on_c, 4, 41, 0
6, 211582, Note_on_c, 4, 57, 125
6, 211606, Note_on_c, 4, 57, 0
6, 211630, Note_on_c, 4, 45, 115
6, 211654, Note_on_c, 4, 45, 0
6, 211678, Note_on_c, 4, 50, 125
6, 211702, Note_on_c, 4, 50, 0
6, 211726, Note_on_c, 4, 38, 115
6, 211750, Note_on_c, 4, 38, 0
6, 211774, Note_on_c, 4, 45, 125
6, 211798, Note_on_c, 4, 45, 0
6, 211822, Note_on_c, 4, 33, 115
6, 211846, Note_on_c, 4, 33, 0
6, 211870, Note_on_c, 4, 45, 125
6, 211894, Note_on_c, 4, 45, 0
6, 211918, Note_on_c, 4, 33, 120
6, 211942, Note_on_c, 4, 33, 0
6, 211966, Control_c, 4, 11, 95
6, 211966, Note_on_c, 4, 38, 120
6, 211967, Control_c, 4, 11, 91
6, 211968, Control_c, 4, 11, 88
6, 211969, Control_c, 4, 11, 85
6, 211970, Control_c, 4, 11, 83
6, 211971, Control_c, 4, 11, 81
6, 211972, Control_c, 4, 11, 79
6, 211973, Control_c, 4, 11, 77
6, 211974, Control_c, 4, 11, 76
6, 211975, Control_c, 4, 11, 75
6, 211976, Control_c, 4, 11, 74
6, 211977, Control_c, 4, 11, 73
6, 211978, Control_c, 4, 11, 72
6, 211979, Control_c, 4, 11, 71
6, 211980, Control_c, 4, 11, 70
6, 211982, Control_c, 4, 11, 69
6, 211983, Control_c, 4, 11, 68
6, 211986, Control_c, 4, 11, 67
6, 211989, Control_c, 4, 11, 66
6, 211995, Control_c, 4, 11, 65
6, 213313, Note_on_c, 4, 38, 0
6, 213504, Control_c, 4, 11, 127
6, 213504, Note_on_c, 4, 57, 127
6, 213528, Note_on_c, 4, 57, 0
6, 213552, Note_on_c, 4, 45, 115
6, 213576, Note_on_c, 4, 45, 0
6, 213600, Note_on_c, 4, 50, 125
6, 213624, Note_on_c, 4, 50, 0
6, 213648, Note_on_c, 4, 38, 115
6, 213672, Note_on_c, 4, 38, 0
6, 213696, Note_on_c, 4, 45, 125
6, 213720, Note_on_c, 4, 45, 0
6, 213744, Note_on_c, 4, 33, 115
6, 213768, Note_on_c, 4, 33, 0
6, 213792, Note_on_c, 4, 45, 125
6, 213816, Note_on_c, 4, 45, 0
6, 213840, Note_on_c, 4, 33, 115
6, 213864, Note_on_c, 4, 33, 0
6, 213888, Note_on_c, 4, 38, 125
6, 213912, Note_on_c, 4, 38, 0
6, 214080, End_track
7, 0, Start_track
7, 0, Title_t, "Flauti"
7, 0, MIDI_port, 0
7, 186, Control_c, 5, 91, 50
7, 188, Control_c, 5, 93, 5
7, 190, Control_c, 5, 10, 34
7, 192, Control_c, 5, 7, 105
7, 195, Control_c, 5, 11, 120
7, 768, Control_c, 5, 1, 0
7, 912, Program_c, 5, 73
7, 912, Note_on_c, 5, 86, 110
7, 947, Note_on_c, 5, 86, 0
7, 984, Note_on_c, 5, 74, 100
7, 996, Note_on_c, 5, 74, 0
7, 1008, Note_on_c, 5, 74, 100
7, 1032, Note_on_c, 5, 74, 0
7, 3072, Note_on_c, 5, 86, 50
7, 3096, Note_on_c, 5, 86, 0
7, 3216, Note_on_c, 5, 81, 50
7, 3240, Note_on_c, 5, 81, 0
7, 3360, Note_on_c, 5, 83, 50
7, 3384, Note_on_c, 5, 83, 0
7, 3504, Note_on_c, 5, 84, 50
7, 3528, Note_on_c, 5, 84, 0
7, 3648, Note_on_c, 5, 82, 50
7, 3672, Note_on_c, 5, 82, 0
7, 3696, Note_on_c, 5, 81, 48
7, 3720, Note_on_c, 5, 81, 0
7, 3744, Note_on_c, 5, 79, 48
7, 3768, Note_on_c, 5, 79, 0
7, 3792, Note_on_c, 5, 86, 50
7, 3816, Note_on_c, 5, 86, 0
7, 3936, Note_on_c, 5, 85, 50
7, 3960, Note_on_c, 5, 85, 0
7, 4080, Note_on_c, 5, 86, 50
7, 4104, Note_on_c, 5, 86, 0
7, 4224, Note_on_c, 5, 86, 50
7, 4248, Note_on_c, 5, 86, 0
7, 4368, Note_on_c, 5, 88, 50
7, 4392, Note_on_c, 5, 88, 0
7, 4512, Note_on_c, 5, 88, 50
7, 4536, Note_on_c, 5, 88, 0
7, 4656, Note_on_c, 5, 88, 50
7, 4680, Note_on_c, 5, 88, 0
7, 4800, Note_on_c, 5, 85, 50
7, 4800, Note_on_c, 5, 88, 50
7, 4824, Note_on_c, 5, 88, 0
7, 4824, Note_on_c, 5, 85, 0
7, 4944, Note_on_c, 5, 81, 50
7, 4944, Note_on_c, 5, 86, 50
7, 4968, Note_on_c, 5, 86, 0
7, 4968, Note_on_c, 5, 81, 0
7, 5088, Note_on_c, 5, 81, 50
7, 5088, Note_on_c, 5, 88, 50
7, 5112, Note_on_c, 5, 88, 0
7, 5112, Note_on_c, 5, 81, 0
7, 5232, Note_on_c, 5, 81, 50
7, 5232, Note_on_c, 5, 89, 50
7, 5256, Note_on_c, 5, 89, 0
7, 5256, Note_on_c, 5, 81, 0
7, 5376, Note_on_c, 5, 77, 55
7, 5376, Note_on_c, 5, 89, 55
7, 5400, Note_on_c, 5, 89, 0
7, 5400, Note_on_c, 5, 77, 0
7, 5424, Note_on_c, 5, 76, 50
7, 5424, Note_on_c, 5, 88, 50
7, 5448, Note_on_c, 5, 88, 0
7, 5448, Note_on_c, 5, 76, 0
7, 5472, Note_on_c, 5, 74, 50
7, 5472, Note_on_c, 5, 86, 50
7, 5496, Note_on_c, 5, 86, 0
7, 5496, Note_on_c, 5, 74, 0
7, 5520, Note_on_c, 5, 72, 55
7, 5520, Note_on_c, 5, 84, 55
7, 5544, Note_on_c, 5, 84, 0
7, 5544, Note_on_c, 5, 72, 0
7, 5568, Note_on_c, 5, 71, 50
7, 5568, Note_on_c, 5, 83, 50
7, 5592, Note_on_c, 5, 83, 0
7, 5592, Note_on_c, 5, 71, 0
7, 5616, Note_on_c, 5, 69, 50
7, 5616, Note_on_c, 5, 81, 50
7, 5640, Note_on_c, 5, 81, 0
7, 5640, Note_on_c, 5, 69, 0
7, 5664, Note_on_c, 5, 68, 55
7, 5664, Note_on_c, 5, 80, 55
7, 5688, Note_on_c, 5, 80, 0
7, 5688, Note_on_c, 5, 68, 0
7, 5712, Note_on_c, 5, 69, 50
7, 5712, Note_on_c, 5, 81, 50
7, 5736, Note_on_c, 5, 81, 0
7, 5736, Note_on_c, 5, 69, 0
7, 5760, Note_on_c, 5, 71, 50
7, 5760, Note_on_c, 5, 83, 50
7, 5784, Note_on_c, 5, 83, 0
7, 5784, Note_on_c, 5, 71, 0
7, 5808, Note_on_c, 5, 69, 55
7, 5808, Note_on_c, 5, 81, 55
7, 5832, Note_on_c, 5, 81, 0
7, 5832, Note_on_c, 5, 69, 0
7, 5856, Note_on_c, 5, 68, 50
7, 5856, Note_on_c, 5, 80, 50
7, 5880, Note_on_c, 5, 80, 0
7, 5880, Note_on_c, 5, 68, 0
7, 5904, Note_on_c, 5, 69, 50
7, 5904, Note_on_c, 5, 81, 50
7, 5928, Note_on_c, 5, 81, 0
7, 5928, Note_on_c, 5, 69, 0
7, 6048, Note_on_c, 5, 69, 50
7, 6048, Note_on_c, 5, 81, 50
7, 6072, Note_on_c, 5, 81, 0
7, 6072, Note_on_c, 5, 69, 0
7, 6192, Note_on_c, 5, 69, 50
7, 6192, Note_on_c, 5, 81, 50
7, 6216, Note_on_c, 5, 81, 0
7, 6216, Note_on_c, 5, 69, 0
7, 6336, Note_on_c, 5, 69, 50
7, 6336, Note_on_c, 5, 81, 50
7, 6360, Note_on_c, 5, 81, 0
7, 6360, Note_on_c, 5, 69, 0
7, 6480, Note_on_c, 5, 69, 50
7, 6480, Note_on_c, 5, 81, 50
7, 6504, Note_on_c, 5, 81, 0
7, 6504, Note_on_c, 5, 69, 0
7, 6624, Note_on_c, 5, 69, 53
7, 6624, Note_on_c, 5, 81, 53
7, 6648, Note_on_c, 5, 81, 0
7, 6648, Note_on_c, 5, 69, 0
7, 6768, Note_on_c, 5, 69, 58
7, 6768, Note_on_c, 5, 81, 58
7, 6792, Note_on_c, 5, 81, 0
7, 6792, Note_on_c, 5, 69, 0
7, 6912, Note_on_c, 5, 69, 63
7, 6912, Note_on_c, 5, 81, 63
7, 6936, Note_on_c, 5, 81, 0
7, 6936, Note_on_c, 5, 69, 0
7, 7056, Note_on_c, 5, 69, 68
7, 7056, Note_on_c, 5, 81, 68
7, 7080, Note_on_c, 5, 81, 0
7, 7080, Note_on_c, 5, 69, 0
7, 7200, Note_on_c, 5, 69, 73
7, 7200, Note_on_c, 5, 81, 73
7, 7224, Note_on_c, 5, 81, 0
7, 7224, Note_on_c, 5, 69, 0
7, 7344, Note_on_c, 5, 69, 78
7, 7344, Note_on_c, 5, 81, 78
7, 7368, Note_on_c, 5, 81, 0
7, 7368, Note_on_c, 5, 69, 0
7, 7488, Note_on_c, 5, 69, 83
7, 7488, Note_on_c, 5, 81, 83
7, 7512, Note_on_c, 5, 81, 0
7, 7512, Note_on_c, 5, 69, 0
7, 7632, Note_on_c, 5, 69, 88
7, 7632, Note_on_c, 5, 81, 88
7, 7656, Note_on_c, 5, 81, 0
7, 7656, Note_on_c, 5, 69, 0
7, 7776, Note_on_c, 5, 69, 93
7, 7776, Note_on_c, 5, 81, 93
7, 7800, Note_on_c, 5, 81, 0
7, 7800, Note_on_c, 5, 69, 0
7, 7920, Note_on_c, 5, 81, 98
7, 7944, Note_on_c, 5, 81, 0
7, 7968, Note_on_c, 5, 81, 100
7, 7968, Note_on_c, 5, 88, 100
7, 7992, Note_on_c, 5, 88, 0
7, 7992, Note_on_c, 5, 81, 0
7, 8016, Note_on_c, 5, 81, 102
7, 8016, Note_on_c, 5, 89, 102
7, 8040, Note_on_c, 5, 89, 0
7, 8040, Note_on_c, 5, 81, 0
7, 8064, Note_on_c, 5, 81, 104
7, 8064, Note_on_c, 5, 91, 104
7, 8088, Note_on_c, 5, 91, 0
7, 8088, Note_on_c, 5, 81, 0
7, 8112, Note_on_c, 5, 81, 105
7, 8112, Note_on_c, 5, 93, 105
7, 8147, Note_on_c, 5, 93, 0
7, 8147, Note_on_c, 5, 81, 0
7, 8184, Note_on_c, 5, 69, 108
7, 8184, Note_on_c, 5, 81, 108
7, 8196, Note_on_c, 5, 81, 0
7, 8196, Note_on_c, 5, 69, 0
7, 8208, Note_on_c, 5, 69, 109
7, 8208, Note_on_c, 5, 81, 109
7, 8232, Note_on_c, 5, 81, 0
7, 8232, Note_on_c, 5, 69, 0
7, 8256, Note_on_c, 5, 81, 115
7, 8256, Note_on_c, 5, 93, 115
7, 8291, Note_on_c, 5, 93, 0
7, 8291, Note_on_c, 5, 81, 0
7, 8328, Note_on_c, 5, 69, 110
7, 8328, Note_on_c, 5, 81, 110
7, 8340, Note_on_c, 5, 81, 0
7, 8340, Note_on_c, 5, 69, 0
7, 8352, Note_on_c, 5, 69, 110
7, 8352, Note_on_c, 5, 81, 110
7, 8376, Note_on_c, 5, 81, 0
7, 8376, Note_on_c, 5, 69, 0
7, 8400, Note_on_c, 5, 81, 115
7, 8400, Note_on_c, 5, 86, 115
7, 8424, Note_on_c, 5, 86, 0
7, 8424, Note_on_c, 5, 81, 0
7, 8448, Note_on_c, 5, 81, 110
7, 8448, Note_on_c, 5, 88, 110
7, 8472, Note_on_c, 5, 88, 0
7, 8472, Note_on_c, 5, 81, 0
7, 8496, Note_on_c, 5, 81, 110
7, 8496, Note_on_c, 5, 89, 110
7, 8520, Note_on_c, 5, 89, 0
7, 8520, Note_on_c, 5, 81, 0
7, 8544, Note_on_c, 5, 81, 115
7, 8544, Note_on_c, 5, 88, 115
7, 8568, Note_on_c, 5, 88, 0
7, 8568, Note_on_c, 5, 81, 0
7, 8592, Note_on_c, 5, 81, 110
7, 8592, Note_on_c, 5, 89, 110
7, 8616, Note_on_c, 5, 89, 0
7, 8616, Note_on_c, 5, 81, 0
7, 8640, Note_on_c, 5, 81, 110
7, 8640, Note_on_c, 5, 91, 110
7, 8664, Note_on_c, 5, 91, 0
7, 8664, Note_on_c, 5, 81, 0
7, 8688, Note_on_c, 5, 81, 115
7, 8688, Note_on_c, 5, 89, 115
7, 8712, Note_on_c, 5, 89, 0
7, 8712, Note_on_c, 5, 81, 0
7, 8736, Note_on_c, 5, 86, 110
7, 8736, Note_on_c, 5, 88, 110
7, 8760, Note_on_c, 5, 88, 0
7, 8760, Note_on_c, 5, 86, 0
7, 8784, Note_on_c, 5, 86, 110
7, 8808, Note_on_c, 5, 86, 0
7, 8832, Note_on_c, 5, 82, 115
7, 8832, Note_on_c, 5, 86, 115
7, 8856, Note_on_c, 5, 86, 0
7, 8856, Note_on_c, 5, 82, 0
7, 8880, Note_on_c, 5, 86, 110
7, 8880, Note_on_c, 5, 93, 110
7, 8904, Note_on_c, 5, 93, 0
7, 8904, Note_on_c, 5, 86, 0
7, 8928, Note_on_c, 5, 86, 110
7, 8928, Note_on_c, 5, 91, 110
7, 8952, Note_on_c, 5, 91, 0
7, 8952, Note_on_c, 5, 86, 0
7, 8976, Note_on_c, 5, 89, 115
7, 9000, Note_on_c, 5, 89, 0
7, 9024, Note_on_c, 5, 88, 110
7, 9048, Note_on_c, 5, 88, 0
7, 9072, Note_on_c, 5, 81, 110
7, 9072, Note_on_c, 5, 86, 110
7, 9096, Note_on_c, 5, 86, 0
7, 9096, Note_on_c, 5, 81, 0
7, 9120, Note_on_c, 5, 81, 115
7, 9120, Note_on_c, 5, 85, 115
7, 9144, Note_on_c, 5, 85, 0
7, 9144, Note_on_c, 5, 81, 0
7, 9168, Note_on_c, 5, 81, 110
7, 9168, Note_on_c, 5, 86, 110
7, 9192, Note_on_c, 5, 86, 0
7, 9192, Note_on_c, 5, 81, 0
7, 9216, Note_on_c, 5, 81, 110
7, 9216, Note_on_c, 5, 88, 110
7, 9240, Note_on_c, 5, 88, 0
7, 9240, Note_on_c, 5, 81, 0
7, 9264, Note_on_c, 5, 81, 115
7, 9264, Note_on_c, 5, 86, 115
7, 9288, Note_on_c, 5, 86, 0
7, 9288, Note_on_c, 5, 81, 0
7, 9312, Note_on_c, 5, 81, 110
7, 9312, Note_on_c, 5, 85, 110
7, 9336, Note_on_c, 5, 85, 0
7, 9336, Note_on_c, 5, 81, 0
7, 9360, Note_on_c, 5, 81, 110
7, 9360, Note_on_c, 5, 86, 110
7, 9384, Note_on_c, 5, 86, 0
7, 9384, Note_on_c, 5, 81, 0
7, 9408, Note_on_c, 5, 82, 115
7, 9408, Note_on_c, 5, 86, 115
7, 9432, Note_on_c, 5, 86, 0
7, 9432, Note_on_c, 5, 82, 0
7, 9456, Note_on_c, 5, 86, 110
7, 9456, Note_on_c, 5, 93, 110
7, 9480, Note_on_c, 5, 93, 0
7, 9480, Note_on_c, 5, 86, 0
7, 9504, Note_on_c, 5, 86, 110
7, 9504, Note_on_c, 5, 91, 110
7, 9528, Note_on_c, 5, 91, 0
7, 9528, Note_on_c, 5, 86, 0
7, 9552, Note_on_c, 5, 86, 115
7, 9552, Note_on_c, 5, 89, 115
7, 9576, Note_on_c, 5, 89, 0
7, 9576, Note_on_c, 5, 86, 0
7, 9600, Note_on_c, 5, 86, 110
7, 9600, Note_on_c, 5, 88, 110
7, 9624, Note_on_c, 5, 88, 0
7, 9624, Note_on_c, 5, 86, 0
7, 9648, Note_on_c, 5, 86, 110
7, 9672, Note_on_c, 5, 86, 0
7, 9696, Note_on_c, 5, 76, 115
7, 9696, Note_on_c, 5, 85, 115
7, 9720, Note_on_c, 5, 85, 0
7, 9720, Note_on_c, 5, 76, 0
7, 9744, Note_on_c, 5, 77, 110
7, 9744, Note_on_c, 5, 86, 110
7, 9768, Note_on_c, 5, 86, 0
7, 9768, Note_on_c, 5, 77, 0
7, 9792, Note_on_c, 5, 79, 110
7, 9792, Note_on_c, 5, 88, 110
7, 9816, Note_on_c, 5, 88, 0
7, 9816, Note_on_c, 5, 79, 0
7, 9840, Note_on_c, 5, 77, 115
7, 9840, Note_on_c, 5, 86, 115
7, 9864, Note_on_c, 5, 86, 0
7, 9864, Note_on_c, 5, 77, 0
7, 9888, Note_on_c, 5, 77, 110
7, 9888, Note_on_c, 5, 85, 110
7, 9912, Note_on_c, 5, 85, 0
7, 9912, Note_on_c, 5, 77, 0
7, 9936, Note_on_c, 5, 77, 110
7, 9936, Note_on_c, 5, 86, 110
7, 9960, Note_on_c, 5, 86, 0
7, 9960, Note_on_c, 5, 77, 0
7, 9984, Note_on_c, 5, 89, 115
7, 9984, Note_on_c, 5, 93, 115
7, 10008, Note_on_c, 5, 93, 0
7, 10008, Note_on_c, 5, 89, 0
7, 10032, Note_on_c, 5, 83, 110
7, 10032, Note_on_c, 5, 91, 110
7, 10056, Note_on_c, 5, 91, 0
7, 10056, Note_on_c, 5, 83, 0
7, 10080, Note_on_c, 5, 86, 110
7, 10080, Note_on_c, 5, 89, 110
7, 10104, Note_on_c, 5, 89, 0
7, 10104, Note_on_c, 5, 86, 0
7, 10128, Note_on_c, 5, 84, 115
7, 10128, Note_on_c, 5, 88, 115
7, 10152, Note_on_c, 5, 88, 0
7, 10152, Note_on_c, 5, 84, 0
7, 10176, Note_on_c, 5, 83, 110
7, 10176, Note_on_c, 5, 86, 110
7, 10200, Note_on_c, 5, 86, 0
7, 10200, Note_on_c, 5, 83, 0
7, 10224, Note_on_c, 5, 79, 110
7, 10224, Note_on_c, 5, 86, 110
7, 10248, Note_on_c, 5, 86, 0
7, 10248, Note_on_c, 5, 79, 0
7, 10272, Note_on_c, 5, 79, 115
7, 10272, Note_on_c, 5, 83, 115
7, 10296, Note_on_c, 5, 83, 0
7, 10296, Note_on_c, 5, 79, 0
7, 10320, Note_on_c, 5, 79, 110
7, 10320, Note_on_c, 5, 84, 110
7, 10344, Note_on_c, 5, 84, 0
7, 10344, Note_on_c, 5, 79, 0
7, 10368, Note_on_c, 5, 79, 110
7, 10368, Note_on_c, 5, 86, 110
7, 10392, Note_on_c, 5, 86, 0
7, 10392, Note_on_c, 5, 79, 0
7, 10416, Note_on_c, 5, 76, 110
7, 10416, Note_on_c, 5, 84, 110
7, 10440, Note_on_c, 5, 84, 0
7, 10440, Note_on_c, 5, 76, 0
7, 10464, Note_on_c, 5, 89, 115
7, 10464, Note_on_c, 5, 93, 115
7, 10488, Note_on_c, 5, 93, 0
7, 10488, Note_on_c, 5, 89, 0
7, 10512, Note_on_c, 5, 89, 115
7, 10512, Note_on_c, 5, 93, 115
7, 10536, Note_on_c, 5, 93, 0
7, 10536, Note_on_c, 5, 89, 0
7, 10560, Note_on_c, 5, 89, 115
7, 10560, Note_on_c, 5, 93, 115
7, 10584, Note_on_c, 5, 93, 0
7, 10584, Note_on_c, 5, 89, 0
7, 10608, Note_on_c, 5, 83, 110
7, 10608, Note_on_c, 5, 91, 110
7, 10632, Note_on_c, 5, 91, 0
7, 10632, Note_on_c, 5, 83, 0
7, 10656, Note_on_c, 5, 86, 110
7, 10656, Note_on_c, 5, 89, 110
7, 10680, Note_on_c, 5, 89, 0
7, 10680, Note_on_c, 5, 86, 0
7, 10704, Note_on_c, 5, 84, 115
7, 10704, Note_on_c, 5, 88, 115
7, 10728, Note_on_c, 5, 88, 0
7, 10728, Note_on_c, 5, 84, 0
7, 10752, Note_on_c, 5, 83, 110
7, 10752, Note_on_c, 5, 86, 110
7, 10776, Note_on_c, 5, 86, 0
7, 10776, Note_on_c, 5, 83, 0
7, 10800, Note_on_c, 5, 79, 110
7, 10800, Note_on_c, 5, 86, 110
7, 10824, Note_on_c, 5, 86, 0
7, 10824, Note_on_c, 5, 79, 0
7, 10848, Note_on_c, 5, 88, 115
7, 10848, Note_on_c, 5, 91, 115
7, 10872, Note_on_c, 5, 91, 0
7, 10872, Note_on_c, 5, 88, 0
7, 10896, Note_on_c, 5, 89, 110
7, 10896, Note_on_c, 5, 86, 110
7, 10920, Note_on_c, 5, 86, 0
7, 10920, Note_on_c, 5, 89, 0
7, 10944, Note_on_c, 5, 84, 110
7, 10944, Note_on_c, 5, 88, 110
7, 10968, Note_on_c, 5, 88, 0
7, 10968, Note_on_c, 5, 84, 0
7, 10992, Note_on_c, 5, 79, 115
7, 10992, Note_on_c, 5, 88, 115
7, 11016, Note_on_c, 5, 88, 0
7, 11016, Note_on_c, 5, 79, 0
7, 11040, Note_on_c, 5, 77, 110
7, 11040, Note_on_c, 5, 86, 110
7, 11064, Note_on_c, 5, 86, 0
7, 11064, Note_on_c, 5, 77, 0
7, 11088, Note_on_c, 5, 76, 110
7, 11088, Note_on_c, 5, 84, 110
7, 11112, Note_on_c, 5, 84, 0
7, 11112, Note_on_c, 5, 76, 0
7, 11136, Note_on_c, 5, 74, 110
7, 11136, Note_on_c, 5, 83, 110
7, 11160, Note_on_c, 5, 83, 0
7, 11160, Note_on_c, 5, 74, 0
7, 11568, Control_c, 5, 11, 60
7, 11568, Control_c, 5, 1, 0
7, 11568, Note_on_c, 5, 86, 110
7, 11569, Control_c, 5, 1, 1
7, 11570, Control_c, 5, 1, 2
7, 11571, Control_c, 5, 1, 3
7, 11572, Control_c, 5, 1, 4
7, 11574, Control_c, 5, 1, 5
7, 11576, Control_c, 5, 11, 61
7, 11576, Control_c, 5, 1, 6
7, 11577, Control_c, 5, 1, 7
7, 11579, Control_c, 5, 1, 8
7, 11581, Control_c, 5, 1, 9
7, 11583, Control_c, 5, 11, 62
7, 11584, Control_c, 5, 1, 10
7, 11586, Control_c, 5, 1, 11
7, 11589, Control_c, 5, 1, 12
7, 11590, Control_c, 5, 11, 63
7, 11592, Control_c, 5, 1, 13
7, 11595, Control_c, 5, 1, 14
7, 11597, Control_c, 5, 11, 64
7, 11599, Control_c, 5, 1, 15
7, 11604, Control_c, 5, 11, 65
7, 11604, Control_c, 5, 1, 16
7, 11609, Control_c, 5, 1, 17
7, 11612, Control_c, 5, 11, 66
7, 11617, Control_c, 5, 1, 18
7, 11619, Control_c, 5, 11, 67
7, 11626, Control_c, 5, 11, 68
7, 11627, Control_c, 5, 1, 19
7, 11633, Control_c, 5, 11, 69
7, 11640, Control_c, 5, 11, 70
7, 11645, Control_c, 5, 1, 20
7, 11647, Control_c, 5, 11, 71
7, 11655, Control_c, 5, 11, 72
7, 11662, Control_c, 5, 11, 73
7, 11669, Control_c, 5, 11, 74
7, 11676, Control_c, 5, 11, 75
7, 11683, Control_c, 5, 11, 76
7, 11690, Control_c, 5, 11, 77
7, 11698, Control_c, 5, 11, 78
7, 11705, Control_c, 5, 11, 79
7, 11712, Control_c, 5, 11, 80
7, 11719, Control_c, 5, 11, 81
7, 11726, Control_c, 5, 11, 82
7, 11734, Control_c, 5, 11, 83
7, 11741, Control_c, 5, 11, 84
7, 11748, Control_c, 5, 11, 85
7, 11755, Control_c, 5, 11, 86
7, 11762, Control_c, 5, 11, 87
7, 11769, Control_c, 5, 11, 88
7, 11777, Control_c, 5, 11, 89
7, 11784, Control_c, 5, 11, 90
7, 11791, Control_c, 5, 11, 91
7, 11798, Control_c, 5, 11, 92
7, 11805, Control_c, 5, 11, 93
7, 11812, Control_c, 5, 11, 94
7, 11820, Control_c, 5, 11, 95
7, 11827, Control_c, 5, 11, 96
7, 11834, Control_c, 5, 11, 97
7, 11841, Control_c, 5, 11, 98
7, 11848, Control_c, 5, 11, 99
7, 11855, Control_c, 5, 11, 100
7, 11856, Control_c, 5, 11, 100
7, 11856, Note_on_c, 5, 84, 110
7, 11857, Note_on_c, 5, 86, 0
7, 11867, Control_c, 5, 11, 99
7, 11878, Control_c, 5, 11, 98
7, 11889, Control_c, 5, 11, 97
7, 11900, Control_c, 5, 11, 96
7, 11910, Control_c, 5, 11, 95
7, 11921, Control_c, 5, 11, 94
7, 11932, Control_c, 5, 11, 93
7, 11943, Control_c, 5, 11, 92
7, 11953, Control_c, 5, 11, 91
7, 11964, Control_c, 5, 11, 90
7, 11975, Control_c, 5, 11, 89
7, 11986, Control_c, 5, 11, 88
7, 11997, Control_c, 5, 11, 87
7, 12007, Control_c, 5, 11, 86
7, 12018, Control_c, 5, 11, 85
7, 12029, Control_c, 5, 11, 84
7, 12040, Control_c, 5, 11, 83
7, 12050, Control_c, 5, 11, 82
7, 12061, Control_c, 5, 11, 81
7, 12072, Control_c, 5, 11, 80
7, 12083, Control_c, 5, 11, 79
7, 12094, Control_c, 5, 11, 78
7, 12104, Control_c, 5, 11, 77
7, 12115, Control_c, 5, 11, 76
7, 12126, Control_c, 5, 11, 75
7, 12137, Control_c, 5, 11, 74
7, 12144, Note_on_c, 5, 83, 110
7, 12145, Note_on_c, 5, 84, 0
7, 12147, Control_c, 5, 11, 73
7, 12158, Control_c, 5, 11, 72
7, 12169, Control_c, 5, 11, 71
7, 12180, Control_c, 5, 11, 70
7, 12191, Control_c, 5, 11, 69
7, 12201, Control_c, 5, 11, 68
7, 12212, Control_c, 5, 11, 67
7, 12223, Control_c, 5, 11, 66
7, 12234, Control_c, 5, 11, 65
7, 12244, Control_c, 5, 11, 64
7, 12255, Control_c, 5, 11, 63
7, 12266, Control_c, 5, 11, 62
7, 12277, Control_c, 5, 11, 61
7, 12287, Note_on_c, 5, 83, 0
7, 12287, Control_c, 5, 11, 60
7, 12720, Control_c, 5, 11, 60
7, 12720, Control_c, 5, 1, 0
7, 12720, Note_on_c, 5, 81, 110
7, 12720, Note_on_c, 5, 86, 110
7, 12721, Control_c, 5, 1, 1
7, 12722, Control_c, 5, 1, 2
7, 12723, Control_c, 5, 1, 3
7, 12724, Control_c, 5, 1, 4
7, 12726, Control_c, 5, 1, 5
7, 12728, Control_c, 5, 1, 6
7, 12729, Control_c, 5, 1, 7
7, 12731, Control_c, 5, 1, 8
7, 12732, Control_c, 5, 11, 61
7, 12733, Control_c, 5, 1, 9
7, 12736, Control_c, 5, 1, 10
7, 12738, Control_c, 5, 1, 11
7, 12741, Control_c, 5, 1, 12
7, 12744, Control_c, 5, 11, 62
7, 12744, Control_c, 5, 1, 13
7, 12747, Control_c, 5, 1, 14
7, 12751, Control_c, 5, 1, 15
7, 12756, Control_c, 5, 11, 63
7, 12756, Control_c, 5, 1, 16
7, 12761, Control_c, 5, 1, 17
7, 12768, Control_c, 5, 11, 64
7, 12769, Control_c, 5, 1, 18
7, 12779, Control_c, 5, 1, 19
7, 12780, Control_c, 5, 11, 65
7, 12792, Control_c, 5, 11, 66
7, 12797, Control_c, 5, 1, 20
7, 12804, Control_c, 5, 11, 67
7, 12816, Control_c, 5, 11, 68
7, 12828, Control_c, 5, 11, 69
7, 12840, Control_c, 5, 11, 70
7, 12852, Control_c, 5, 11, 71
7, 12864, Note_on_c, 5, 83, 110
7, 12864, Control_c, 5, 11, 72
7, 12865, Note_on_c, 5, 81, 0
7, 12876, Control_c, 5, 11, 73
7, 12888, Control_c, 5, 11, 74
7, 12900, Control_c, 5, 11, 75
7, 12912, Control_c, 5, 11, 76
7, 12924, Control_c, 5, 11, 77
7, 12936, Control_c, 5, 11, 78
7, 12948, Control_c, 5, 11, 79
7, 12960, Control_c, 5, 11, 80
7, 12972, Control_c, 5, 11, 81
7, 12984, Control_c, 5, 11, 82
7, 12996, Control_c, 5, 11, 83
7, 13008, Note_on_c, 5, 84, 110
7, 13008, Control_c, 5, 11, 84
7, 13009, Note_on_c, 5, 86, 0
7, 13009, Note_on_c, 5, 83, 0
7, 13020, Control_c, 5, 11, 85
7, 13032, Control_c, 5, 11, 86
7, 13044, Control_c, 5, 11, 87
7, 13056, Control_c, 5, 11, 88
7, 13068, Control_c, 5, 11, 89
7, 13080, Control_c, 5, 11, 90
7, 13092, Control_c, 5, 11, 91
7, 13104, Control_c, 5, 11, 92
7, 13116, Control_c, 5, 11, 93
7, 13128, Control_c, 5, 11, 94
7, 13140, Control_c, 5, 11, 95
7, 13152, Control_c, 5, 11, 96
7, 13164, Control_c, 5, 11, 97
7, 13176, Control_c, 5, 11, 98
7, 13188, Control_c, 5, 11, 99
7, 13200, Control_c, 5, 11, 100
7, 13212, Control_c, 5, 11, 101
7, 13224, Control_c, 5, 11, 102
7, 13236, Control_c, 5, 11, 103
7, 13248, Control_c, 5, 11, 104
7, 13260, Control_c, 5, 11, 105
7, 13272, Control_c, 5, 11, 106
7, 13284, Control_c, 5, 11, 107
7, 13296, Note_on_c, 5, 83, 110
7, 13296, Control_c, 5, 11, 108
7, 13297, Note_on_c, 5, 84, 0
7, 13308, Control_c, 5, 11, 109
7, 13320, Control_c, 5, 11, 110
7, 13332, Control_c, 5, 11, 111
7, 13344, Control_c, 5, 11, 112
7, 13356, Control_c, 5, 11, 113
7, 13368, Control_c, 5, 11, 114
7, 13380, Control_c, 5, 11, 115
7, 13392, Control_c, 5, 11, 116
7, 13404, Control_c, 5, 11, 117
7, 13416, Control_c, 5, 11, 118
7, 13428, Control_c, 5, 11, 119
7, 13439, Note_on_c, 5, 83, 0
7, 13439, Control_c, 5, 11, 120
7, 13440, Control_c, 5, 1, 0
7, 13440, Note_on_c, 5, 84, 113
7, 13536, Note_on_c, 5, 86, 110
7, 13560, Note_on_c, 5, 86, 0
7, 13560, Note_on_c, 5, 88, 111
7, 13584, Note_on_c, 5, 88, 0
7, 13584, Note_on_c, 5, 89, 113
7, 13608, Note_on_c, 5, 89, 0
7, 13608, Note_on_c, 5, 84, 0
7, 13680, Note_on_c, 5, 84, 110
7, 13680, Note_on_c, 5, 88, 110
7, 13704, Note_on_c, 5, 88, 0
7, 13704, Note_on_c, 5, 84, 0
7, 13728, Note_on_c, 5, 84, 113
7, 13728, Note_on_c, 5, 86, 113
7, 13752, Note_on_c, 5, 86, 0
7, 13752, Note_on_c, 5, 84, 0
7, 13824, Note_on_c, 5, 84, 110
7, 13848, Note_on_c, 5, 84, 0
7, 13872, Note_on_c, 5, 83, 113
7, 13872, Note_on_c, 5, 86, 113
7, 13896, Note_on_c, 5, 86, 0
7, 13896, Note_on_c, 5, 83, 0
7, 13968, Note_on_c, 5, 83, 110
7, 13992, Note_on_c, 5, 83, 0
7, 14016, Note_on_c, 5, 84, 113
7, 14016, Note_on_c, 5, 88, 113
7, 14112, Note_on_c, 5, 88, 0
7, 14112, Note_on_c, 5, 84, 0
7, 14112, Note_on_c, 5, 86, 110
7, 14112, Note_on_c, 5, 89, 110
7, 14136, Note_on_c, 5, 89, 0
7, 14136, Note_on_c, 5, 86, 0
7, 14136, Note_on_c, 5, 88, 111
7, 14136, Note_on_c, 5, 91, 111
7, 14160, Note_on_c, 5, 91, 0
7, 14160, Note_on_c, 5, 88, 0
7, 14160, Note_on_c, 5, 89, 113
7, 14160, Note_on_c, 5, 93, 113
7, 14184, Note_on_c, 5, 93, 0
7, 14184, Note_on_c, 5, 89, 0
7, 14256, Note_on_c, 5, 88, 110
7, 14256, Note_on_c, 5, 91, 110
7, 14280, Note_on_c, 5, 91, 0
7, 14280, Note_on_c, 5, 88, 0
7, 14304, Note_on_c, 5, 86, 113
7, 14304, Note_on_c, 5, 89, 113
7, 14328, Note_on_c, 5, 89, 0
7, 14328, Note_on_c, 5, 86, 0
7, 14400, Note_on_c, 5, 84, 110
7, 14400, Note_on_c, 5, 88, 110
7, 14424, Note_on_c, 5, 88, 0
7, 14424, Note_on_c, 5, 84, 0
7, 14448, Note_on_c, 5, 86, 113
7, 14448, Note_on_c, 5, 89, 113
7, 14472, Note_on_c, 5, 89, 0
7, 14472, Note_on_c, 5, 86, 0
7, 14544, Note_on_c, 5, 83, 110
7, 14544, Note_on_c, 5, 86, 110
7, 14568, Note_on_c, 5, 86, 0
7, 14568, Note_on_c, 5, 83, 0
7, 14592, Note_on_c, 5, 84, 113
7, 14616, Note_on_c, 5, 84, 0
7, 14640, Note_on_c, 5, 84, 109
7, 14688, Note_on_c, 5, 84, 0
7, 14688, Note_on_c, 5, 84, 110
7, 14688, Note_on_c, 5, 86, 111
7, 14712, Note_on_c, 5, 86, 0
7, 14712, Note_on_c, 5, 84, 0
7, 14712, Note_on_c, 5, 88, 111
7, 14736, Note_on_c, 5, 88, 0
7, 14736, Note_on_c, 5, 84, 113
7, 14736, Note_on_c, 5, 89, 113
7, 14760, Note_on_c, 5, 89, 0
7, 14760, Note_on_c, 5, 84, 0
7, 14784, Note_on_c, 5, 84, 111
7, 14784, Note_on_c, 5, 89, 111
7, 14808, Note_on_c, 5, 89, 0
7, 14808, Note_on_c, 5, 84, 0
7, 14832, Note_on_c, 5, 84, 111
7, 14832, Note_on_c, 5, 88, 111
7, 14856, Note_on_c, 5, 88, 0
7, 14856, Note_on_c, 5, 84, 0
7, 14880, Note_on_c, 5, 84, 113
7, 14880, Note_on_c, 5, 86, 113
7, 14904, Note_on_c, 5, 86, 0
7, 14904, Note_on_c, 5, 84, 0
7, 14928, Note_on_c, 5, 84, 111
7, 14928, Note_on_c, 5, 86, 111
7, 14952, Note_on_c, 5, 86, 0
7, 14952, Note_on_c, 5, 84, 0
7, 14976, Note_on_c, 5, 84, 111
7, 15000, Note_on_c, 5, 84, 0
7, 15024, Note_on_c, 5, 86, 113
7, 15048, Note_on_c, 5, 86, 0
7, 15072, Note_on_c, 5, 86, 111
7, 15096, Note_on_c, 5, 86, 0
7, 15120, Note_on_c, 5, 83, 111
7, 15144, Note_on_c, 5, 83, 0
7, 15168, Note_on_c, 5, 84, 113
7, 15168, Note_on_c, 5, 88, 113
7, 15192, Note_on_c, 5, 88, 0
7, 15192, Note_on_c, 5, 84, 0
7, 15216, Note_on_c, 5, 84, 110
7, 15216, Note_on_c, 5, 88, 110
7, 15264, Note_on_c, 5, 88, 0
7, 15264, Note_on_c, 5, 84, 0
7, 15264, Note_on_c, 5, 86, 111
7, 15264, Note_on_c, 5, 89, 111
7, 15288, Note_on_c, 5, 89, 0
7, 15288, Note_on_c, 5, 86, 0
7, 15288, Note_on_c, 5, 88, 112
7, 15288, Note_on_c, 5, 91, 112
7, 15312, Note_on_c, 5, 91, 0
7, 15312, Note_on_c, 5, 88, 0
7, 15312, Note_on_c, 5, 89, 113
7, 15312, Note_on_c, 5, 93, 113
7, 15336, Note_on_c, 5, 93, 0
7, 15336, Note_on_c, 5, 89, 0
7, 15360, Note_on_c, 5, 89, 111
7, 15360, Note_on_c, 5, 93, 111
7, 15384, Note_on_c, 5, 93, 0
7, 15384, Note_on_c, 5, 89, 0
7, 15408, Note_on_c, 5, 88, 111
7, 15408, Note_on_c, 5, 91, 111
7, 15432, Note_on_c, 5, 91, 0
7, 15432, Note_on_c, 5, 88, 0
7, 15456, Note_on_c, 5, 86, 113
7, 15456, Note_on_c, 5, 89, 113
7, 15480, Note_on_c, 5, 89, 0
7, 15480, Note_on_c, 5, 86, 0
7, 15504, Note_on_c, 5, 86, 111
7, 15504, Note_on_c, 5, 89, 111
7, 15528, Note_on_c, 5, 89, 0
7, 15528, Note_on_c, 5, 86, 0
7, 15552, Note_on_c, 5, 84, 111
7, 15552, Note_on_c, 5, 88, 111
7, 15576, Note_on_c, 5, 88, 0
7, 15576, Note_on_c, 5, 84, 0
7, 15600, Note_on_c, 5, 86, 113
7, 15600, Note_on_c, 5, 89, 113
7, 15624, Note_on_c, 5, 89, 0
7, 15624, Note_on_c, 5, 86, 0
7, 15648, Note_on_c, 5, 86, 111
7, 15648, Note_on_c, 5, 89, 111
7, 15672, Note_on_c, 5, 89, 0
7, 15672, Note_on_c, 5, 86, 0
7, 15696, Note_on_c, 5, 83, 111
7, 15696, Note_on_c, 5, 86, 111
7, 15720, Note_on_c, 5, 86, 0
7, 15720, Note_on_c, 5, 83, 0
7, 15744, Note_on_c, 5, 88, 120
7, 15779, Note_on_c, 5, 88, 0
7, 15816, Note_on_c, 5, 76, 113
7, 15828, Note_on_c, 5, 76, 0
7, 15840, Note_on_c, 5, 76, 113
7, 15864, Note_on_c, 5, 76, 0
7, 15888, Note_on_c, 5, 88, 116
7, 15912, Note_on_c, 5, 88, 0
7, 15936, Note_on_c, 5, 89, 113
7, 15960, Note_on_c, 5, 89, 0
7, 15984, Note_on_c, 5, 91, 113
7, 16008, Note_on_c, 5, 91, 0
7, 16032, Note_on_c, 5, 93, 116
7, 16056, Note_on_c, 5, 93, 0
7, 16176, Note_on_c, 5, 69, 115
7, 16176, Note_on_c, 5, 81, 115
7, 16200, Note_on_c, 5, 81, 0
7, 16200, Note_on_c, 5, 69, 0
7, 16224, Note_on_c, 5, 71, 113
7, 16224, Note_on_c, 5, 83, 113
7, 16248, Note_on_c, 5, 83, 0
7, 16248, Note_on_c, 5, 71, 0
7, 16272, Note_on_c, 5, 72, 113
7, 16272, Note_on_c, 5, 84, 113
7, 16296, Note_on_c, 5, 84, 0
7, 16296, Note_on_c, 5, 72, 0
7, 16320, Note_on_c, 5, 86, 120
7, 16355, Note_on_c, 5, 86, 0
7, 16392, Note_on_c, 5, 74, 113
7, 16404, Note_on_c, 5, 74, 0
7, 16416, Note_on_c, 5, 74, 113
7, 16440, Note_on_c, 5, 74, 0
7, 16464, Note_on_c, 5, 74, 115
7, 16464, Note_on_c, 5, 86, 115
7, 16488, Note_on_c, 5, 86, 0
7, 16488, Note_on_c, 5, 74, 0
7, 16512, Note_on_c, 5, 76, 113
7, 16512, Note_on_c, 5, 88, 113
7, 16536, Note_on_c, 5, 88, 0
7, 16536, Note_on_c, 5, 76, 0
7, 16560, Note_on_c, 5, 77, 113
7, 16560, Note_on_c, 5, 89, 113
7, 16584, Note_on_c, 5, 89, 0
7, 16584, Note_on_c, 5, 77, 0
7, 16608, Note_on_c, 5, 79, 115
7, 16608, Note_on_c, 5, 91, 115
7, 16632, Note_on_c, 5, 91, 0
7, 16632, Note_on_c, 5, 79, 0
7, 16752, Note_on_c, 5, 67, 115
7, 16752, Note_on_c, 5, 79, 115
7, 16776, Note_on_c, 5, 79, 0
7, 16776, Note_on_c, 5, 67, 0
7, 16800, Note_on_c, 5, 72, 113
7, 16800, Note_on_c, 5, 84, 113
7, 16824, Note_on_c, 5, 84, 0
7, 16824, Note_on_c, 5, 72, 0
7, 16848, Note_on_c, 5, 74, 113
7, 16848, Note_on_c, 5, 86, 113
7, 16872, Note_on_c, 5, 86, 0
7, 16872, Note_on_c, 5, 74, 0
7, 16896, Note_on_c, 5, 76, 60
7, 16896, Note_on_c, 5, 91, 60
7, 16920, Note_on_c, 5, 91, 0
7, 16920, Note_on_c, 5, 76, 0
7, 17760, Control_c, 5, 11, 60
7, 17760, Control_c, 5, 1, 0
7, 17760, Note_on_c, 5, 84, 100
7, 17760, Note_on_c, 5, 89, 100
7, 17761, Control_c, 5, 1, 1
7, 17762, Control_c, 5, 1, 2
7, 17763, Control_c, 5, 1, 3
7, 17764, Control_c, 5, 1, 4
7, 17766, Control_c, 5, 1, 5
7, 17768, Control_c, 5, 1, 6
7, 17769, Control_c, 5, 1, 7
7, 17770, Control_c, 5, 11, 61
7, 17771, Control_c, 5, 1, 8
7, 17773, Control_c, 5, 1, 9
7, 17776, Control_c, 5, 1, 10
7, 17778, Control_c, 5, 1, 11
7, 17780, Control_c, 5, 11, 62
7, 17781, Control_c, 5, 1, 12
7, 17784, Control_c, 5, 1, 13
7, 17787, Control_c, 5, 1, 14
7, 17789, Control_c, 5, 11, 63
7, 17791, Control_c, 5, 1, 15
7, 17796, Control_c, 5, 1, 16
7, 17799, Control_c, 5, 11, 64
7, 17801, Control_c, 5, 1, 17
7, 17808, Control_c, 5, 11, 65
7, 17809, Control_c, 5, 1, 18
7, 17818, Control_c, 5, 11, 66
7, 17819, Control_c, 5, 1, 19
7, 17828, Control_c, 5, 11, 67
7, 17837, Control_c, 5, 11, 68
7, 17837, Control_c, 5, 1, 20
7, 17847, Control_c, 5, 11, 69
7, 17856, Control_c, 5, 11, 70
7, 17866, Control_c, 5, 11, 71
7, 17875, Control_c, 5, 11, 72
7, 17885, Control_c, 5, 11, 73
7, 17895, Control_c, 5, 11, 74
7, 17904, Note_on_c, 5, 89, 0
7, 17904, Note_on_c, 5, 88, 100
7, 17904, Control_c, 5, 11, 75
7, 17914, Control_c, 5, 11, 76
7, 17923, Control_c, 5, 11, 77
7, 17933, Control_c, 5, 11, 78
7, 17943, Control_c, 5, 11, 79
7, 17952, Control_c, 5, 11, 80
7, 17962, Control_c, 5, 11, 81
7, 17971, Control_c, 5, 11, 82
7, 17981, Control_c, 5, 11, 83
7, 17990, Control_c, 5, 11, 84
7, 18000, Control_c, 5, 11, 85
7, 18010, Control_c, 5, 11, 86
7, 18019, Control_c, 5, 11, 87
7, 18029, Control_c, 5, 11, 88
7, 18038, Control_c, 5, 11, 89
7, 18048, Note_on_c, 5, 88, 0
7, 18048, Note_on_c, 5, 88, 100
7, 18048, Control_c, 5, 11, 90
7, 18058, Control_c, 5, 11, 91
7, 18067, Control_c, 5, 11, 92
7, 18077, Control_c, 5, 11, 93
7, 18086, Control_c, 5, 11, 94
7, 18096, Control_c, 5, 11, 95
7, 18105, Control_c, 5, 11, 96
7, 18115, Control_c, 5, 11, 97
7, 18125, Control_c, 5, 11, 98
7, 18134, Control_c, 5, 11, 99
7, 18144, Control_c, 5, 11, 100
7, 18153, Control_c, 5, 11, 101
7, 18163, Control_c, 5, 11, 102
7, 18173, Control_c, 5, 11, 103
7, 18182, Control_c, 5, 11, 104
7, 18192, Control_c, 5, 11, 105
7, 18201, Control_c, 5, 11, 106
7, 18211, Control_c, 5, 11, 107
7, 18220, Control_c, 5, 11, 108
7, 18230, Control_c, 5, 11, 109
7, 18240, Note_on_c, 5, 88, 0
7, 18240, Note_on_c, 5, 84, 0
7, 18240, Note_on_c, 5, 86, 100
7, 18240, Note_on_c, 5, 89, 100
7, 18240, Control_c, 5, 11, 110
7, 18249, Control_c, 5, 11, 111
7, 18259, Control_c, 5, 11, 112
7, 18268, Control_c, 5, 11, 113
7, 18278, Control_c, 5, 11, 114
7, 18288, Note_on_c, 5, 89, 0
7, 18288, Note_on_c, 5, 86, 0
7, 18288, Note_on_c, 5, 88, 100
7, 18288, Note_on_c, 5, 91, 100
7, 18288, Control_c, 5, 11, 115
7, 18297, Control_c, 5, 11, 116
7, 18307, Control_c, 5, 11, 117
7, 18316, Control_c, 5, 11, 118
7, 18326, Control_c, 5, 11, 119
7, 18335, Control_c, 5, 11, 120
7, 18336, Note_on_c, 5, 91, 0
7, 18336, Note_on_c, 5, 88, 0
7, 18336, Control_c, 5, 1, 0
7, 18336, Note_on_c, 5, 79, 105
7, 18336, Note_on_c, 5, 91, 105
7, 18360, Note_on_c, 5, 91, 0
7, 18360, Note_on_c, 5, 79, 0
7, 18384, Note_on_c, 5, 76, 100
7, 18384, Note_on_c, 5, 88, 100
7, 18408, Note_on_c, 5, 88, 0
7, 18408, Note_on_c, 5, 76, 0
7, 18432, Note_on_c, 5, 81, 100
7, 18432, Note_on_c, 5, 93, 100
7, 18456, Note_on_c, 5, 93, 0
7, 18456, Note_on_c, 5, 81, 0
7, 18480, Note_on_c, 5, 77, 105
7, 18480, Note_on_c, 5, 89, 105
7, 18504, Note_on_c, 5, 89, 0
7, 18504, Note_on_c, 5, 77, 0
7, 18528, Note_on_c, 5, 74, 100
7, 18528, Note_on_c, 5, 86, 100
7, 18552, Note_on_c, 5, 86, 0
7, 18552, Note_on_c, 5, 74, 0
7, 18576, Note_on_c, 5, 79, 100
7, 18576, Note_on_c, 5, 91, 100
7, 18600, Note_on_c, 5, 91, 0
7, 18600, Note_on_c, 5, 79, 0
7, 18624, Note_on_c, 5, 72, 105
7, 18624, Note_on_c, 5, 84, 105
7, 18648, Note_on_c, 5, 84, 0
7, 18648, Note_on_c, 5, 72, 0
7, 18912, Note_on_c, 5, 79, 105
7, 18912, Note_on_c, 5, 91, 105
7, 18936, Note_on_c, 5, 91, 0
7, 18936, Note_on_c, 5, 79, 0
7, 18960, Note_on_c, 5, 76, 100
7, 18960, Note_on_c, 5, 88, 100
7, 18984, Note_on_c, 5, 88, 0
7, 18984, Note_on_c, 5, 76, 0
7, 19008, Note_on_c, 5, 81, 100
7, 19008, Note_on_c, 5, 93, 100
7, 19032, Note_on_c, 5, 93, 0
7, 19032, Note_on_c, 5, 81, 0
7, 19056, Note_on_c, 5, 77, 105
7, 19056, Note_on_c, 5, 89, 105
7, 19080, Note_on_c, 5, 89, 0
7, 19080, Note_on_c, 5, 77, 0
7, 19104, Note_on_c, 5, 74, 100
7, 19104, Note_on_c, 5, 86, 100
7, 19128, Note_on_c, 5, 86, 0
7, 19128, Note_on_c, 5, 74, 0
7, 19152, Note_on_c, 5, 79, 100
7, 19152, Note_on_c, 5, 91, 100
7, 19176, Note_on_c, 5, 91, 0
7, 19176, Note_on_c, 5, 79, 0
7, 19200, Note_on_c, 5, 79, 105
7, 19200, Note_on_c, 5, 91, 105
7, 19224, Note_on_c, 5, 91, 0
7, 19224, Note_on_c, 5, 79, 0
7, 19248, Note_on_c, 5, 79, 100
7, 19248, Note_on_c, 5, 91, 100
7, 19272, Note_on_c, 5, 91, 0
7, 19272, Note_on_c, 5, 79, 0
7, 19296, Note_on_c, 5, 79, 100
7, 19296, Note_on_c, 5, 91, 100
7, 19320, Note_on_c, 5, 91, 0
7, 19320, Note_on_c, 5, 79, 0
7, 19344, Note_on_c, 5, 79, 105
7, 19344, Note_on_c, 5, 91, 105
7, 19368, Note_on_c, 5, 91, 0
7, 19368, Note_on_c, 5, 79, 0
7, 19392, Note_on_c, 5, 79, 100
7, 19392, Note_on_c, 5, 91, 100
7, 19416, Note_on_c, 5, 91, 0
7, 19416, Note_on_c, 5, 79, 0
7, 19440, Note_on_c, 5, 79, 100
7, 19440, Note_on_c, 5, 91, 100
7, 19464, Note_on_c, 5, 91, 0
7, 19464, Note_on_c, 5, 79, 0
7, 19488, Note_on_c, 5, 84, 105
7, 19488, Note_on_c, 5, 88, 105
7, 19512, Note_on_c, 5, 88, 0
7, 19512, Note_on_c, 5, 84, 0
7, 19536, Note_on_c, 5, 84, 100
7, 19560, Note_on_c, 5, 84, 0
7, 19584, Note_on_c, 5, 88, 100
7, 19584, Note_on_c, 5, 91, 100
7, 19608, Note_on_c, 5, 91, 0
7, 19608, Note_on_c, 5, 88, 0
7, 19632, Note_on_c, 5, 86, 105
7, 19632, Note_on_c, 5, 89, 105
7, 19656, Note_on_c, 5, 89, 0
7, 19656, Note_on_c, 5, 86, 0
7, 19680, Note_on_c, 5, 83, 100
7, 19680, Note_on_c, 5, 86, 100
7, 19704, Note_on_c, 5, 86, 0
7, 19704, Note_on_c, 5, 83, 0
7, 19728, Note_on_c, 5, 83, 100
7, 19728, Note_on_c, 5, 91, 100
7, 19752, Note_on_c, 5, 91, 0
7, 19752, Note_on_c, 5, 83, 0
7, 19776, Note_on_c, 5, 84, 105
7, 19776, Note_on_c, 5, 88, 105
7, 19800, Note_on_c, 5, 88, 0
7, 19800, Note_on_c, 5, 84, 0
7, 19824, Note_on_c, 5, 84, 100
7, 19848, Note_on_c, 5, 84, 0
7, 19872, Note_on_c, 5, 88, 100
7, 19872, Note_on_c, 5, 91, 100
7, 19896, Note_on_c, 5, 91, 0
7, 19896, Note_on_c, 5, 88, 0
7, 19920, Note_on_c, 5, 86, 105
7, 19920, Note_on_c, 5, 89, 105
7, 19944, Note_on_c, 5, 89, 0
7, 19944, Note_on_c, 5, 86, 0
7, 19968, Note_on_c, 5, 83, 100
7, 19968, Note_on_c, 5, 86, 100
7, 19992, Note_on_c, 5, 86, 0
7, 19992, Note_on_c, 5, 83, 0
7, 20016, Note_on_c, 5, 83, 100
7, 20016, Note_on_c, 5, 91, 100
7, 20040, Note_on_c, 5, 91, 0
7, 20040, Note_on_c, 5, 83, 0
7, 20064, Control_c, 5, 1, 0
7, 20064, Note_on_c, 5, 79, 49
7, 20065, Control_c, 5, 1, 1
7, 20066, Control_c, 5, 1, 2
7, 20067, Control_c, 5, 1, 3
7, 20068, Control_c, 5, 1, 4
7, 20070, Control_c, 5, 1, 5
7, 20072, Control_c, 5, 1, 6
7, 20073, Control_c, 5, 1, 7
7, 20075, Control_c, 5, 1, 8
7, 20077, Control_c, 5, 1, 9
7, 20080, Control_c, 5, 1, 10
7, 20082, Control_c, 5, 1, 11
7, 20085, Control_c, 5, 1, 12
7, 20088, Control_c, 5, 1, 13
7, 20091, Control_c, 5, 1, 14
7, 20095, Control_c, 5, 1, 15
7, 20100, Control_c, 5, 1, 16
7, 20105, Control_c, 5, 1, 17
7, 20112, Note_on_c, 5, 79, 0
7, 20112, Note_on_c, 5, 81, 51
7, 20113, Control_c, 5, 1, 18
7, 20123, Control_c, 5, 1, 19
7, 20141, Control_c, 5, 1, 20
7, 20160, Note_on_c, 5, 81, 0
7, 20160, Note_on_c, 5, 83, 53
7, 20208, Note_on_c, 5, 83, 0
7, 20208, Note_on_c, 5, 84, 54
7, 20256, Note_on_c, 5, 84, 0
7, 20256, Note_on_c, 5, 86, 56
7, 20304, Note_on_c, 5, 86, 0
7, 20304, Note_on_c, 5, 88, 58
7, 20352, Note_on_c, 5, 88, 0
7, 20352, Note_on_c, 5, 89, 59
7, 20400, Note_on_c, 5, 89, 0
7, 20400, Note_on_c, 5, 88, 58
7, 20448, Note_on_c, 5, 88, 0
7, 20448, Note_on_c, 5, 89, 59
7, 20496, Note_on_c, 5, 89, 0
7, 20496, Note_on_c, 5, 91, 61
7, 20544, Note_on_c, 5, 91, 0
7, 20544, Note_on_c, 5, 93, 63
7, 20592, Note_on_c, 5, 93, 0
7, 20592, Note_on_c, 5, 83, 53
7, 20640, Note_on_c, 5, 83, 0
7, 20640, Note_on_c, 5, 84, 50
7, 20664, Note_on_c, 5, 84, 0
7, 20784, Note_on_c, 5, 84, 50
7, 20819, Note_on_c, 5, 84, 0
7, 20856, Note_on_c, 5, 72, 50
7, 20868, Note_on_c, 5, 72, 0
7, 20880, Note_on_c, 5, 72, 50
7, 20904, Note_on_c, 5, 72, 0
7, 20928, Note_on_c, 5, 72, 50
7, 20952, Note_on_c, 5, 72, 0
7, 21072, Control_c, 5, 1, 0
7, 21072, Note_on_c, 5, 86, 50
7, 21107, Note_on_c, 5, 86, 0
7, 21144, Note_on_c, 5, 74, 50
7, 21156, Note_on_c, 5, 74, 0
7, 21168, Note_on_c, 5, 74, 50
7, 21192, Note_on_c, 5, 74, 0
7, 21216, Note_on_c, 5, 74, 50
7, 21240, Note_on_c, 5, 74, 0
7, 23520, Note_on_c, 5, 86, 50
7, 23544, Note_on_c, 5, 86, 0
7, 23664, Note_on_c, 5, 81, 50
7, 23688, Note_on_c, 5, 81, 0
7, 23808, Note_on_c, 5, 83, 50
7, 23832, Note_on_c, 5, 83, 0
7, 23952, Note_on_c, 5, 84, 50
7, 23976, Note_on_c, 5, 84, 0
7, 24096, Note_on_c, 5, 82, 50
7, 24120, Note_on_c, 5, 82, 0
7, 24144, Note_on_c, 5, 81, 48
7, 24168, Note_on_c, 5, 81, 0
7, 24192, Note_on_c, 5, 79, 48
7, 24216, Note_on_c, 5, 79, 0
7, 24240, Note_on_c, 5, 86, 50
7, 24264, Note_on_c, 5, 86, 0
7, 24384, Note_on_c, 5, 85, 50
7, 24408, Note_on_c, 5, 85, 0
7, 24528, Note_on_c, 5, 86, 50
7, 24552, Note_on_c, 5, 86, 0
7, 24672, Note_on_c, 5, 86, 50
7, 24696, Note_on_c, 5, 86, 0
7, 24816, Note_on_c, 5, 88, 50
7, 24840, Note_on_c, 5, 88, 0
7, 24960, Note_on_c, 5, 88, 50
7, 24984, Note_on_c, 5, 88, 0
7, 25104, Note_on_c, 5, 88, 50
7, 25128, Note_on_c, 5, 88, 0
7, 25248, Note_on_c, 5, 85, 50
7, 25248, Note_on_c, 5, 88, 50
7, 25272, Note_on_c, 5, 88, 0
7, 25272, Note_on_c, 5, 85, 0
7, 25392, Note_on_c, 5, 81, 50
7, 25392, Note_on_c, 5, 86, 50
7, 25416, Note_on_c, 5, 86, 0
7, 25416, Note_on_c, 5, 81, 0
7, 25536, Note_on_c, 5, 81, 50
7, 25536, Note_on_c, 5, 88, 50
7, 25560, Note_on_c, 5, 88, 0
7, 25560, Note_on_c, 5, 81, 0
7, 25680, Note_on_c, 5, 81, 50
7, 25680, Note_on_c, 5, 89, 50
7, 25704, Note_on_c, 5, 89, 0
7, 25704, Note_on_c, 5, 81, 0
7, 25824, Note_on_c, 5, 77, 55
7, 25824, Note_on_c, 5, 89, 55
7, 25848, Note_on_c, 5, 89, 0
7, 25848, Note_on_c, 5, 77, 0
7, 25872, Note_on_c, 5, 76, 50
7, 25872, Note_on_c, 5, 88, 50
7, 25896, Note_on_c, 5, 88, 0
7, 25896, Note_on_c, 5, 76, 0
7, 25920, Note_on_c, 5, 74, 50
7, 25920, Note_on_c, 5, 86, 50
7, 25944, Note_on_c, 5, 86, 0
7, 25944, Note_on_c, 5, 74, 0
7, 25968, Note_on_c, 5, 72, 55
7, 25968, Note_on_c, 5, 84, 55
7, 25992, Note_on_c, 5, 84, 0
7, 25992, Note_on_c, 5, 72, 0
7, 26016, Note_on_c, 5, 71, 50
7, 26016, Note_on_c, 5, 83, 50
7, 26040, Note_on_c, 5, 83, 0
7, 26040, Note_on_c, 5, 71, 0
7, 26064, Note_on_c, 5, 69, 50
7, 26064, Note_on_c, 5, 81, 50
7, 26088, Note_on_c, 5, 81, 0
7, 26088, Note_on_c, 5, 69, 0
7, 26112, Note_on_c, 5, 68, 55
7, 26112, Note_on_c, 5, 80, 55
7, 26136, Note_on_c, 5, 80, 0
7, 26136, Note_on_c, 5, 68, 0
7, 26160, Note_on_c, 5, 69, 50
7, 26160, Note_on_c, 5, 81, 50
7, 26184, Note_on_c, 5, 81, 0
7, 26184, Note_on_c, 5, 69, 0
7, 26208, Note_on_c, 5, 71, 50
7, 26208, Note_on_c, 5, 83, 50
7, 26232, Note_on_c, 5, 83, 0
7, 26232, Note_on_c, 5, 71, 0
7, 26256, Note_on_c, 5, 69, 55
7, 26256, Note_on_c, 5, 81, 55
7, 26280, Note_on_c, 5, 81, 0
7, 26280, Note_on_c, 5, 69, 0
7, 26304, Note_on_c, 5, 68, 50
7, 26304, Note_on_c, 5, 80, 50
7, 26328, Note_on_c, 5, 80, 0
7, 26328, Note_on_c, 5, 68, 0
7, 26352, Note_on_c, 5, 69, 50
7, 26352, Note_on_c, 5, 81, 50
7, 26376, Note_on_c, 5, 81, 0
7, 26376, Note_on_c, 5, 69, 0
7, 26496, Note_on_c, 5, 69, 50
7, 26496, Note_on_c, 5, 81, 50
7, 26520, Note_on_c, 5, 81, 0
7, 26520, Note_on_c, 5, 69, 0
7, 26640, Note_on_c, 5, 69, 50
7, 26640, Note_on_c, 5, 81, 50
7, 26664, Note_on_c, 5, 81, 0
7, 26664, Note_on_c, 5, 69, 0
7, 26784, Note_on_c, 5, 69, 50
7, 26784, Note_on_c, 5, 81, 50
7, 26808, Note_on_c, 5, 81, 0
7, 26808, Note_on_c, 5, 69, 0
7, 26928, Note_on_c, 5, 69, 50
7, 26928, Note_on_c, 5, 81, 50
7, 26952, Note_on_c, 5, 81, 0
7, 26952, Note_on_c, 5, 69, 0
7, 27072, Note_on_c, 5, 69, 53
7, 27072, Note_on_c, 5, 81, 53
7, 27096, Note_on_c, 5, 81, 0
7, 27096, Note_on_c, 5, 69, 0
7, 27216, Note_on_c, 5, 69, 58
7, 27216, Note_on_c, 5, 81, 58
7, 27240, Note_on_c, 5, 81, 0
7, 27240, Note_on_c, 5, 69, 0
7, 27360, Note_on_c, 5, 69, 63
7, 27360, Note_on_c, 5, 81, 63
7, 27384, Note_on_c, 5, 81, 0
7, 27384, Note_on_c, 5, 69, 0
7, 27504, Note_on_c, 5, 69, 68
7, 27504, Note_on_c, 5, 81, 68
7, 27528, Note_on_c, 5, 81, 0
7, 27528, Note_on_c, 5, 69, 0
7, 27648, Note_on_c, 5, 69, 73
7, 27648, Note_on_c, 5, 81, 73
7, 27672, Note_on_c, 5, 81, 0
7, 27672, Note_on_c, 5, 69, 0
7, 27792, Note_on_c, 5, 69, 78
7, 27792, Note_on_c, 5, 81, 78
7, 27816, Note_on_c, 5, 81, 0
7, 27816, Note_on_c, 5, 69, 0
7, 27936, Note_on_c, 5, 69, 83
7, 27936, Note_on_c, 5, 81, 83
7, 27960, Note_on_c, 5, 81, 0
7, 27960, Note_on_c, 5, 69, 0
7, 28080, Note_on_c, 5, 69, 88
7, 28080, Note_on_c, 5, 81, 88
7, 28104, Note_on_c, 5, 81, 0
7, 28104, Note_on_c, 5, 69, 0
7, 28224, Note_on_c, 5, 69, 93
7, 28224, Note_on_c, 5, 81, 93
7, 28248, Note_on_c, 5, 81, 0
7, 28248, Note_on_c, 5, 69, 0
7, 28368, Note_on_c, 5, 81, 98
7, 28392, Note_on_c, 5, 81, 0
7, 28416, Note_on_c, 5, 81, 100
7, 28416, Note_on_c, 5, 88, 100
7, 28440, Note_on_c, 5, 88, 0
7, 28440, Note_on_c, 5, 81, 0
7, 28464, Note_on_c, 5, 81, 102
7, 28464, Note_on_c, 5, 89, 102
7, 28488, Note_on_c, 5, 89, 0
7, 28488, Note_on_c, 5, 81, 0
7, 28512, Note_on_c, 5, 81, 104
7, 28512, Note_on_c, 5, 91, 104
7, 28536, Note_on_c, 5, 91, 0
7, 28536, Note_on_c, 5, 81, 0
7, 28560, Note_on_c, 5, 81, 105
7, 28560, Note_on_c, 5, 93, 105
7, 28595, Note_on_c, 5, 93, 0
7, 28595, Note_on_c, 5, 81, 0
7, 28632, Note_on_c, 5, 69, 108
7, 28632, Note_on_c, 5, 81, 108
7, 28644, Note_on_c, 5, 81, 0
7, 28644, Note_on_c, 5, 69, 0
7, 28656, Note_on_c, 5, 69, 109
7, 28656, Note_on_c, 5, 81, 109
7, 28680, Note_on_c, 5, 81, 0
7, 28680, Note_on_c, 5, 69, 0
7, 28704, Note_on_c, 5, 81, 115
7, 28704, Note_on_c, 5, 93, 115
7, 28739, Note_on_c, 5, 93, 0
7, 28739, Note_on_c, 5, 81, 0
7, 28776, Note_on_c, 5, 69, 110
7, 28776, Note_on_c, 5, 81, 110
7, 28788, Note_on_c, 5, 81, 0
7, 28788, Note_on_c, 5, 69, 0
7, 28800, Note_on_c, 5, 69, 110
7, 28800, Note_on_c, 5, 81, 110
7, 28824, Note_on_c, 5, 81, 0
7, 28824, Note_on_c, 5, 69, 0
7, 28848, Note_on_c, 5, 81, 115
7, 28848, Note_on_c, 5, 86, 115
7, 28872, Note_on_c, 5, 86, 0
7, 28872, Note_on_c, 5, 81, 0
7, 28896, Note_on_c, 5, 81, 110
7, 28896, Note_on_c, 5, 88, 110
7, 28920, Note_on_c, 5, 88, 0
7, 28920, Note_on_c, 5, 81, 0
7, 28944, Note_on_c, 5, 81, 110
7, 28944, Note_on_c, 5, 89, 110
7, 28968, Note_on_c, 5, 89, 0
7, 28968, Note_on_c, 5, 81, 0
7, 28992, Note_on_c, 5, 81, 115
7, 28992, Note_on_c, 5, 88, 115
7, 29016, Note_on_c, 5, 88, 0
7, 29016, Note_on_c, 5, 81, 0
7, 29040, Note_on_c, 5, 81, 110
7, 29040, Note_on_c, 5, 89, 110
7, 29064, Note_on_c, 5, 89, 0
7, 29064, Note_on_c, 5, 81, 0
7, 29088, Note_on_c, 5, 81, 110
7, 29088, Note_on_c, 5, 91, 110
7, 29112, Note_on_c, 5, 91, 0
7, 29112, Note_on_c, 5, 81, 0
7, 29136, Note_on_c, 5, 81, 115
7, 29136, Note_on_c, 5, 89, 115
7, 29160, Note_on_c, 5, 89, 0
7, 29160, Note_on_c, 5, 81, 0
7, 29184, Note_on_c, 5, 86, 110
7, 29184, Note_on_c, 5, 88, 110
7, 29208, Note_on_c, 5, 88, 0
7, 29208, Note_on_c, 5, 86, 0
7, 29232, Note_on_c, 5, 86, 110
7, 29256, Note_on_c, 5, 86, 0
7, 29280, Note_on_c, 5, 82, 115
7, 29280, Note_on_c, 5, 86, 115
7, 29304, Note_on_c, 5, 86, 0
7, 29304, Note_on_c, 5, 82, 0
7, 29328, Note_on_c, 5, 86, 110
7, 29328, Note_on_c, 5, 93, 110
7, 29352, Note_on_c, 5, 93, 0
7, 29352, Note_on_c, 5, 86, 0
7, 29376, Note_on_c, 5, 86, 110
7, 29376, Note_on_c, 5, 91, 110
7, 29400, Note_on_c, 5, 91, 0
7, 29400, Note_on_c, 5, 86, 0
7, 29424, Note_on_c, 5, 89, 115
7, 29448, Note_on_c, 5, 89, 0
7, 29472, Note_on_c, 5, 88, 110
7, 29496, Note_on_c, 5, 88, 0
7, 29520, Note_on_c, 5, 81, 110
7, 29520, Note_on_c, 5, 86, 110
7, 29544, Note_on_c, 5, 86, 0
7, 29544, Note_on_c, 5, 81, 0
7, 29568, Note_on_c, 5, 81, 115
7, 29568, Note_on_c, 5, 85, 115
7, 29592, Note_on_c, 5, 85, 0
7, 29592, Note_on_c, 5, 81, 0
7, 29616, Note_on_c, 5, 81, 110
7, 29616, Note_on_c, 5, 86, 110
7, 29640, Note_on_c, 5, 86, 0
7, 29640, Note_on_c, 5, 81, 0
7, 29664, Note_on_c, 5, 81, 110
7, 29664, Note_on_c, 5, 88, 110
7, 29688, Note_on_c, 5, 88, 0
7, 29688, Note_on_c, 5, 81, 0
7, 29712, Note_on_c, 5, 81, 115
7, 29712, Note_on_c, 5, 86, 115
7, 29736, Note_on_c, 5, 86, 0
7, 29736, Note_on_c, 5, 81, 0
7, 29760, Note_on_c, 5, 81, 110
7, 29760, Note_on_c, 5, 85, 110
7, 29784, Note_on_c, 5, 85, 0
7, 29784, Note_on_c, 5, 81, 0
7, 29808, Note_on_c, 5, 81, 110
7, 29808, Note_on_c, 5, 86, 110
7, 29832, Note_on_c, 5, 86, 0
7, 29832, Note_on_c, 5, 81, 0
7, 29856, Note_on_c, 5, 82, 115
7, 29856, Note_on_c, 5, 86, 115
7, 29880, Note_on_c, 5, 86, 0
7, 29880, Note_on_c, 5, 82, 0
7, 29904, Note_on_c, 5, 86, 110
7, 29904, Note_on_c, 5, 93, 110
7, 29928, Note_on_c, 5, 93, 0
7, 29928, Note_on_c, 5, 86, 0
7, 29952, Note_on_c, 5, 86, 110
7, 29952, Note_on_c, 5, 91, 110
7, 29976, Note_on_c, 5, 91, 0
7, 29976, Note_on_c, 5, 86, 0
7, 30000, Note_on_c, 5, 86, 115
7, 30000, Note_on_c, 5, 89, 115
7, 30024, Note_on_c, 5, 89, 0
7, 30024, Note_on_c, 5, 86, 0
7, 30048, Note_on_c, 5, 86, 110
7, 30048, Note_on_c, 5, 88, 110
7, 30072, Note_on_c, 5, 88, 0
7, 30072, Note_on_c, 5, 86, 0
7, 30096, Note_on_c, 5, 86, 110
7, 30120, Note_on_c, 5, 86, 0
7, 30144, Note_on_c, 5, 76, 115
7, 30144, Note_on_c, 5, 85, 115
7, 30168, Note_on_c, 5, 85, 0
7, 30168, Note_on_c, 5, 76, 0
7, 30192, Note_on_c, 5, 77, 110
7, 30192, Note_on_c, 5, 86, 110
7, 30216, Note_on_c, 5, 86, 0
7, 30216, Note_on_c, 5, 77, 0
7, 30240, Note_on_c, 5, 79, 110
7, 30240, Note_on_c, 5, 88, 110
7, 30264, Note_on_c, 5, 88, 0
7, 30264, Note_on_c, 5, 79, 0
7, 30288, Note_on_c, 5, 77, 115
7, 30288, Note_on_c, 5, 86, 115
7, 30312, Note_on_c, 5, 86, 0
7, 30312, Note_on_c, 5, 77, 0
7, 30336, Note_on_c, 5, 77, 110
7, 30336, Note_on_c, 5, 85, 110
7, 30360, Note_on_c, 5, 85, 0
7, 30360, Note_on_c, 5, 77, 0
7, 30384, Note_on_c, 5, 77, 110
7, 30384, Note_on_c, 5, 86, 110
7, 30408, Note_on_c, 5, 86, 0
7, 30408, Note_on_c, 5, 77, 0
7, 30432, Note_on_c, 5, 89, 115
7, 30432, Note_on_c, 5, 93, 115
7, 30456, Note_on_c, 5, 93, 0
7, 30456, Note_on_c, 5, 89, 0
7, 30480, Note_on_c, 5, 83, 110
7, 30480, Note_on_c, 5, 91, 110
7, 30504, Note_on_c, 5, 91, 0
7, 30504, Note_on_c, 5, 83, 0
7, 30528, Note_on_c, 5, 86, 110
7, 30528, Note_on_c, 5, 89, 110
7, 30552, Note_on_c, 5, 89, 0
7, 30552, Note_on_c, 5, 86, 0
7, 30576, Note_on_c, 5, 84, 115
7, 30576, Note_on_c, 5, 88, 115
7, 30600, Note_on_c, 5, 88, 0
7, 30600, Note_on_c, 5, 84, 0
7, 30624, Note_on_c, 5, 83, 110
7, 30624, Note_on_c, 5, 86, 110
7, 30648, Note_on_c, 5, 86, 0
7, 30648, Note_on_c, 5, 83, 0
7, 30672, Note_on_c, 5, 79, 110
7, 30672, Note_on_c, 5, 86, 110
7, 30696, Note_on_c, 5, 86, 0
7, 30696, Note_on_c, 5, 79, 0
7, 30720, Note_on_c, 5, 79, 115
7, 30720, Note_on_c, 5, 83, 115
7, 30744, Note_on_c, 5, 83, 0
7, 30744, Note_on_c, 5, 79, 0
7, 30768, Note_on_c, 5, 79, 110
7, 30768, Note_on_c, 5, 84, 110
7, 30792, Note_on_c, 5, 84, 0
7, 30792, Note_on_c, 5, 79, 0
7, 30816, Note_on_c, 5, 79, 110
7, 30816, Note_on_c, 5, 86, 110
7, 30840, Note_on_c, 5, 86, 0
7, 30840, Note_on_c, 5, 79, 0
7, 30864, Note_on_c, 5, 76, 110
7, 30864, Note_on_c, 5, 84, 110
7, 30888, Note_on_c, 5, 84, 0
7, 30888, Note_on_c, 5, 76, 0
7, 30912, Note_on_c, 5, 89, 115
7, 30912, Note_on_c, 5, 93, 115
7, 30936, Note_on_c, 5, 93, 0
7, 30936, Note_on_c, 5, 89, 0
7, 30960, Note_on_c, 5, 89, 115
7, 30960, Note_on_c, 5, 93, 115
7, 30984, Note_on_c, 5, 93, 0
7, 30984, Note_on_c, 5, 89, 0
7, 31008, Note_on_c, 5, 89, 115
7, 31008, Note_on_c, 5, 93, 115
7, 31032, Note_on_c, 5, 93, 0
7, 31032, Note_on_c, 5, 89, 0
7, 31056, Note_on_c, 5, 83, 110
7, 31056, Note_on_c, 5, 91, 110
7, 31080, Note_on_c, 5, 91, 0
7, 31080, Note_on_c, 5, 83, 0
7, 31104, Note_on_c, 5, 86, 110
7, 31104, Note_on_c, 5, 89, 110
7, 31128, Note_on_c, 5, 89, 0
7, 31128, Note_on_c, 5, 86, 0
7, 31152, Note_on_c, 5, 84, 115
7, 31152, Note_on_c, 5, 88, 115
7, 31176, Note_on_c, 5, 88, 0
7, 31176, Note_on_c, 5, 84, 0
7, 31200, Note_on_c, 5, 83, 110
7, 31200, Note_on_c, 5, 86, 110
7, 31224, Note_on_c, 5, 86, 0
7, 31224, Note_on_c, 5, 83, 0
7, 31248, Note_on_c, 5, 79, 110
7, 31248, Note_on_c, 5, 86, 110
7, 31272, Note_on_c, 5, 86, 0
7, 31272, Note_on_c, 5, 79, 0
7, 31296, Note_on_c, 5, 88, 115
7, 31296, Note_on_c, 5, 91, 115
7, 31320, Note_on_c, 5, 91, 0
7, 31320, Note_on_c, 5, 88, 0
7, 31344, Note_on_c, 5, 89, 110
7, 31344, Note_on_c, 5, 86, 110
7, 31368, Note_on_c, 5, 86, 0
7, 31368, Note_on_c, 5, 89, 0
7, 31392, Note_on_c, 5, 84, 110
7, 31392, Note_on_c, 5, 88, 110
7, 31416, Note_on_c, 5, 88, 0
7, 31416, Note_on_c, 5, 84, 0
7, 31440, Note_on_c, 5, 79, 115
7, 31440, Note_on_c, 5, 88, 115
7, 31464, Note_on_c, 5, 88, 0
7, 31464, Note_on_c, 5, 79, 0
7, 31488, Note_on_c, 5, 77, 110
7, 31488, Note_on_c, 5, 86, 110
7, 31512, Note_on_c, 5, 86, 0
7, 31512, Note_on_c, 5, 77, 0
7, 31536, Note_on_c, 5, 76, 110
7, 31536, Note_on_c, 5, 84, 110
7, 31560, Note_on_c, 5, 84, 0
7, 31560, Note_on_c, 5, 76, 0
7, 31584, Note_on_c, 5, 74, 110
7, 31584, Note_on_c, 5, 83, 110
7, 31608, Note_on_c, 5, 83, 0
7, 31608, Note_on_c, 5, 74, 0
7, 32016, Control_c, 5, 11, 60
7, 32016, Control_c, 5, 1, 0
7, 32016, Note_on_c, 5, 86, 110
7, 32017, Control_c, 5, 1, 1
7, 32018, Control_c, 5, 1, 2
7, 32019, Control_c, 5, 1, 3
7, 32020, Control_c, 5, 1, 4
7, 32022, Control_c, 5, 1, 5
7, 32024, Control_c, 5, 11, 61
7, 32024, Control_c, 5, 1, 6
7, 32025, Control_c, 5, 1, 7
7, 32027, Control_c, 5, 1, 8
7, 32029, Control_c, 5, 1, 9
7, 32031, Control_c, 5, 11, 62
7, 32032, Control_c, 5, 1, 10
7, 32034, Control_c, 5, 1, 11
7, 32037, Control_c, 5, 1, 12
7, 32038, Control_c, 5, 11, 63
7, 32040, Control_c, 5, 1, 13
7, 32043, Control_c, 5, 1, 14
7, 32045, Control_c, 5, 11, 64
7, 32047, Control_c, 5, 1, 15
7, 32052, Control_c, 5, 11, 65
7, 32052, Control_c, 5, 1, 16
7, 32057, Control_c, 5, 1, 17
7, 32060, Control_c, 5, 11, 66
7, 32065, Control_c, 5, 1, 18
7, 32067, Control_c, 5, 11, 67
7, 32074, Control_c, 5, 11, 68
7, 32075, Control_c, 5, 1, 19
7, 32081, Control_c, 5, 11, 69
7, 32088, Control_c, 5, 11, 70
7, 32093, Control_c, 5, 1, 20
7, 32095, Control_c, 5, 11, 71
7, 32103, Control_c, 5, 11, 72
7, 32110, Control_c, 5, 11, 73
7, 32117, Control_c, 5, 11, 74
7, 32124, Control_c, 5, 11, 75
7, 32131, Control_c, 5, 11, 76
7, 32138, Control_c, 5, 11, 77
7, 32146, Control_c, 5, 11, 78
7, 32153, Control_c, 5, 11, 79
7, 32160, Control_c, 5, 11, 80
7, 32167, Control_c, 5, 11, 81
7, 32174, Control_c, 5, 11, 82
7, 32182, Control_c, 5, 11, 83
7, 32189, Control_c, 5, 11, 84
7, 32196, Control_c, 5, 11, 85
7, 32203, Control_c, 5, 11, 86
7, 32210, Control_c, 5, 11, 87
7, 32217, Control_c, 5, 11, 88
7, 32225, Control_c, 5, 11, 89
7, 32232, Control_c, 5, 11, 90
7, 32239, Control_c, 5, 11, 91
7, 32246, Control_c, 5, 11, 92
7, 32253, Control_c, 5, 11, 93
7, 32260, Control_c, 5, 11, 94
7, 32268, Control_c, 5, 11, 95
7, 32275, Control_c, 5, 11, 96
7, 32282, Control_c, 5, 11, 97
7, 32289, Control_c, 5, 11, 98
7, 32296, Control_c, 5, 11, 99
7, 32303, Control_c, 5, 11, 100
7, 32304, Control_c, 5, 11, 100
7, 32304, Note_on_c, 5, 84, 110
7, 32305, Note_on_c, 5, 86, 0
7, 32315, Control_c, 5, 11, 99
7, 32326, Control_c, 5, 11, 98
7, 32337, Control_c, 5, 11, 97
7, 32348, Control_c, 5, 11, 96
7, 32358, Control_c, 5, 11, 95
7, 32369, Control_c, 5, 11, 94
7, 32380, Control_c, 5, 11, 93
7, 32391, Control_c, 5, 11, 92
7, 32401, Control_c, 5, 11, 91
7, 32412, Control_c, 5, 11, 90
7, 32423, Control_c, 5, 11, 89
7, 32434, Control_c, 5, 11, 88
7, 32445, Control_c, 5, 11, 87
7, 32455, Control_c, 5, 11, 86
7, 32466, Control_c, 5, 11, 85
7, 32477, Control_c, 5, 11, 84
7, 32488, Control_c, 5, 11, 83
7, 32498, Control_c, 5, 11, 82
7, 32509, Control_c, 5, 11, 81
7, 32520, Control_c, 5, 11, 80
7, 32531, Control_c, 5, 11, 79
7, 32542, Control_c, 5, 11, 78
7, 32552, Control_c, 5, 11, 77
7, 32563, Control_c, 5, 11, 76
7, 32574, Control_c, 5, 11, 75
7, 32585, Control_c, 5, 11, 74
7, 32592, Note_on_c, 5, 83, 110
7, 32593, Note_on_c, 5, 84, 0
7, 32595, Control_c, 5, 11, 73
7, 32606, Control_c, 5, 11, 72
7, 32617, Control_c, 5, 11, 71
7, 32628, Control_c, 5, 11, 70
7, 32639, Control_c, 5, 11, 69
7, 32649, Control_c, 5, 11, 68
7, 32660, Control_c, 5, 11, 67
7, 32671, Control_c, 5, 11, 66
7, 32682, Control_c, 5, 11, 65
7, 32692, Control_c, 5, 11, 64
7, 32703, Control_c, 5, 11, 63
7, 32714, Control_c, 5, 11, 62
7, 32725, Control_c, 5, 11, 61
7, 32735, Note_on_c, 5, 83, 0
7, 32735, Control_c, 5, 11, 60
7, 33168, Control_c, 5, 11, 60
7, 33168, Control_c, 5, 1, 0
7, 33168, Note_on_c, 5, 81, 110
7, 33168, Note_on_c, 5, 86, 110
7, 33169, Control_c, 5, 1, 1
7, 33170, Control_c, 5, 1, 2
7, 33171, Control_c, 5, 1, 3
7, 33172, Control_c, 5, 1, 4
7, 33174, Control_c, 5, 1, 5
7, 33176, Control_c, 5, 1, 6
7, 33177, Control_c, 5, 1, 7
7, 33179, Control_c, 5, 1, 8
7, 33180, Control_c, 5, 11, 61
7, 33181, Control_c, 5, 1, 9
7, 33184, Control_c, 5, 1, 10
7, 33186, Control_c, 5, 1, 11
7, 33189, Control_c, 5, 1, 12
7, 33192, Control_c, 5, 11, 62
7, 33192, Control_c, 5, 1, 13
7, 33195, Control_c, 5, 1, 14
7, 33199, Control_c, 5, 1, 15
7, 33204, Control_c, 5, 11, 63
7, 33204, Control_c, 5, 1, 16
7, 33209, Control_c, 5, 1, 17
7, 33216, Control_c, 5, 11, 64
7, 33217, Control_c, 5, 1, 18
7, 33227, Control_c, 5, 1, 19
7, 33228, Control_c, 5, 11, 65
7, 33240, Control_c, 5, 11, 66
7, 33245, Control_c, 5, 1, 20
7, 33252, Control_c, 5, 11, 67
7, 33264, Control_c, 5, 11, 68
7, 33276, Control_c, 5, 11, 69
7, 33288, Control_c, 5, 11, 70
7, 33300, Control_c, 5, 11, 71
7, 33312, Note_on_c, 5, 83, 110
7, 33312, Control_c, 5, 11, 72
7, 33313, Note_on_c, 5, 81, 0
7, 33324, Control_c, 5, 11, 73
7, 33336, Control_c, 5, 11, 74
7, 33348, Control_c, 5, 11, 75
7, 33360, Control_c, 5, 11, 76
7, 33372, Control_c, 5, 11, 77
7, 33384, Control_c, 5, 11, 78
7, 33396, Control_c, 5, 11, 79
7, 33408, Control_c, 5, 11, 80
7, 33420, Control_c, 5, 11, 81
7, 33432, Control_c, 5, 11, 82
7, 33444, Control_c, 5, 11, 83
7, 33456, Note_on_c, 5, 84, 110
7, 33456, Control_c, 5, 11, 84
7, 33457, Note_on_c, 5, 86, 0
7, 33457, Note_on_c, 5, 83, 0
7, 33468, Control_c, 5, 11, 85
7, 33480, Control_c, 5, 11, 86
7, 33492, Control_c, 5, 11, 87
7, 33504, Control_c, 5, 11, 88
7, 33516, Control_c, 5, 11, 89
7, 33528, Control_c, 5, 11, 90
7, 33540, Control_c, 5, 11, 91
7, 33552, Control_c, 5, 11, 92
7, 33564, Control_c, 5, 11, 93
7, 33576, Control_c, 5, 11, 94
7, 33588, Control_c, 5, 11, 95
7, 33600, Control_c, 5, 11, 96
7, 33612, Control_c, 5, 11, 97
7, 33624, Control_c, 5, 11, 98
7, 33636, Control_c, 5, 11, 99
7, 33648, Control_c, 5, 11, 100
7, 33660, Control_c, 5, 11, 101
7, 33672, Control_c, 5, 11, 102
7, 33684, Control_c, 5, 11, 103
7, 33696, Control_c, 5, 11, 104
7, 33708, Control_c, 5, 11, 105
7, 33720, Control_c, 5, 11, 106
7, 33732, Control_c, 5, 11, 107
7, 33744, Note_on_c, 5, 83, 110
7, 33744, Control_c, 5, 11, 108
7, 33745, Note_on_c, 5, 84, 0
7, 33756, Control_c, 5, 11, 109
7, 33768, Control_c, 5, 11, 110
7, 33780, Control_c, 5, 11, 111
7, 33792, Control_c, 5, 11, 112
7, 33804, Control_c, 5, 11, 113
7, 33816, Control_c, 5, 11, 114
7, 33828, Control_c, 5, 11, 115
7, 33840, Control_c, 5, 11, 116
7, 33852, Control_c, 5, 11, 117
7, 33864, Control_c, 5, 11, 118
7, 33876, Control_c, 5, 11, 119
7, 33887, Note_on_c, 5, 83, 0
7, 33887, Control_c, 5, 11, 120
7, 33888, Control_c, 5, 1, 0
7, 33888, Note_on_c, 5, 84, 113
7, 33984, Note_on_c, 5, 86, 110
7, 34008, Note_on_c, 5, 86, 0
7, 34008, Note_on_c, 5, 88, 111
7, 34032, Note_on_c, 5, 88, 0
7, 34032, Note_on_c, 5, 89, 113
7, 34056, Note_on_c, 5, 89, 0
7, 34056, Note_on_c, 5, 84, 0
7, 34128, Note_on_c, 5, 84, 110
7, 34128, Note_on_c, 5, 88, 110
7, 34152, Note_on_c, 5, 88, 0
7, 34152, Note_on_c, 5, 84, 0
7, 34176, Note_on_c, 5, 84, 113
7, 34176, Note_on_c, 5, 86, 113
7, 34200, Note_on_c, 5, 86, 0
7, 34200, Note_on_c, 5, 84, 0
7, 34272, Note_on_c, 5, 84, 110
7, 34296, Note_on_c, 5, 84, 0
7, 34320, Note_on_c, 5, 83, 113
7, 34320, Note_on_c, 5, 86, 113
7, 34344, Note_on_c, 5, 86, 0
7, 34344, Note_on_c, 5, 83, 0
7, 34416, Note_on_c, 5, 83, 110
7, 34440, Note_on_c, 5, 83, 0
7, 34464, Note_on_c, 5, 84, 113
7, 34464, Note_on_c, 5, 88, 113
7, 34560, Note_on_c, 5, 88, 0
7, 34560, Note_on_c, 5, 84, 0
7, 34560, Note_on_c, 5, 86, 110
7, 34560, Note_on_c, 5, 89, 110
7, 34584, Note_on_c, 5, 89, 0
7, 34584, Note_on_c, 5, 86, 0
7, 34584, Note_on_c, 5, 88, 111
7, 34584, Note_on_c, 5, 91, 111
7, 34608, Note_on_c, 5, 91, 0
7, 34608, Note_on_c, 5, 88, 0
7, 34608, Note_on_c, 5, 89, 113
7, 34608, Note_on_c, 5, 93, 113
7, 34632, Note_on_c, 5, 93, 0
7, 34632, Note_on_c, 5, 89, 0
7, 34704, Note_on_c, 5, 88, 110
7, 34704, Note_on_c, 5, 91, 110
7, 34728, Note_on_c, 5, 91, 0
7, 34728, Note_on_c, 5, 88, 0
7, 34752, Note_on_c, 5, 86, 113
7, 34752, Note_on_c, 5, 89, 113
7, 34776, Note_on_c, 5, 89, 0
7, 34776, Note_on_c, 5, 86, 0
7, 34848, Note_on_c, 5, 84, 110
7, 34848, Note_on_c, 5, 88, 110
7, 34872, Note_on_c, 5, 88, 0
7, 34872, Note_on_c, 5, 84, 0
7, 34896, Note_on_c, 5, 86, 113
7, 34896, Note_on_c, 5, 89, 113
7, 34920, Note_on_c, 5, 89, 0
7, 34920, Note_on_c, 5, 86, 0
7, 34992, Note_on_c, 5, 83, 110
7, 34992, Note_on_c, 5, 86, 110
7, 35016, Note_on_c, 5, 86, 0
7, 35016, Note_on_c, 5, 83, 0
7, 35040, Note_on_c, 5, 84, 113
7, 35064, Note_on_c, 5, 84, 0
7, 35088, Note_on_c, 5, 84, 109
7, 35136, Note_on_c, 5, 84, 0
7, 35136, Note_on_c, 5, 84, 110
7, 35136, Note_on_c, 5, 86, 111
7, 35160, Note_on_c, 5, 86, 0
7, 35160, Note_on_c, 5, 84, 0
7, 35160, Note_on_c, 5, 88, 111
7, 35184, Note_on_c, 5, 88, 0
7, 35184, Note_on_c, 5, 84, 113
7, 35184, Note_on_c, 5, 89, 113
7, 35208, Note_on_c, 5, 89, 0
7, 35208, Note_on_c, 5, 84, 0
7, 35232, Note_on_c, 5, 84, 111
7, 35232, Note_on_c, 5, 89, 111
7, 35256, Note_on_c, 5, 89, 0
7, 35256, Note_on_c, 5, 84, 0
7, 35280, Note_on_c, 5, 84, 111
7, 35280, Note_on_c, 5, 88, 111
7, 35304, Note_on_c, 5, 88, 0
7, 35304, Note_on_c, 5, 84, 0
7, 35328, Note_on_c, 5, 84, 113
7, 35328, Note_on_c, 5, 86, 113
7, 35352, Note_on_c, 5, 86, 0
7, 35352, Note_on_c, 5, 84, 0
7, 35376, Note_on_c, 5, 84, 111
7, 35376, Note_on_c, 5, 86, 111
7, 35400, Note_on_c, 5, 86, 0
7, 35400, Note_on_c, 5, 84, 0
7, 35424, Note_on_c, 5, 84, 111
7, 35448, Note_on_c, 5, 84, 0
7, 35472, Note_on_c, 5, 86, 113
7, 35496, Note_on_c, 5, 86, 0
7, 35520, Note_on_c, 5, 86, 111
7, 35544, Note_on_c, 5, 86, 0
7, 35568, Note_on_c, 5, 83, 111
7, 35592, Note_on_c, 5, 83, 0
7, 35616, Note_on_c, 5, 84, 113
7, 35616, Note_on_c, 5, 88, 113
7, 35640, Note_on_c, 5, 88, 0
7, 35640, Note_on_c, 5, 84, 0
7, 35664, Note_on_c, 5, 84, 110
7, 35664, Note_on_c, 5, 88, 110
7, 35712, Note_on_c, 5, 88, 0
7, 35712, Note_on_c, 5, 84, 0
7, 35712, Note_on_c, 5, 86, 111
7, 35712, Note_on_c, 5, 89, 111
7, 35736, Note_on_c, 5, 89, 0
7, 35736, Note_on_c, 5, 86, 0
7, 35736, Note_on_c, 5, 88, 112
7, 35736, Note_on_c, 5, 91, 112
7, 35760, Note_on_c, 5, 91, 0
7, 35760, Note_on_c, 5, 88, 0
7, 35760, Note_on_c, 5, 89, 113
7, 35760, Note_on_c, 5, 93, 113
7, 35784, Note_on_c, 5, 93, 0
7, 35784, Note_on_c, 5, 89, 0
7, 35808, Note_on_c, 5, 89, 111
7, 35808, Note_on_c, 5, 93, 111
7, 35832, Note_on_c, 5, 93, 0
7, 35832, Note_on_c, 5, 89, 0
7, 35856, Note_on_c, 5, 88, 111
7, 35856, Note_on_c, 5, 91, 111
7, 35880, Note_on_c, 5, 91, 0
7, 35880, Note_on_c, 5, 88, 0
7, 35904, Note_on_c, 5, 86, 113
7, 35904, Note_on_c, 5, 89, 113
7, 35928, Note_on_c, 5, 89, 0
7, 35928, Note_on_c, 5, 86, 0
7, 35952, Note_on_c, 5, 86, 111
7, 35952, Note_on_c, 5, 89, 111
7, 35976, Note_on_c, 5, 89, 0
7, 35976, Note_on_c, 5, 86, 0
7, 36000, Note_on_c, 5, 84, 111
7, 36000, Note_on_c, 5, 88, 111
7, 36024, Note_on_c, 5, 88, 0
7, 36024, Note_on_c, 5, 84, 0
7, 36048, Note_on_c, 5, 86, 113
7, 36048, Note_on_c, 5, 89, 113
7, 36072, Note_on_c, 5, 89, 0
7, 36072, Note_on_c, 5, 86, 0
7, 36096, Note_on_c, 5, 86, 111
7, 36096, Note_on_c, 5, 89, 111
7, 36120, Note_on_c, 5, 89, 0
7, 36120, Note_on_c, 5, 86, 0
7, 36144, Note_on_c, 5, 83, 111
7, 36144, Note_on_c, 5, 86, 111
7, 36168, Note_on_c, 5, 86, 0
7, 36168, Note_on_c, 5, 83, 0
7, 36192, Note_on_c, 5, 88, 120
7, 36227, Note_on_c, 5, 88, 0
7, 36264, Note_on_c, 5, 76, 113
7, 36276, Note_on_c, 5, 76, 0
7, 36288, Note_on_c, 5, 76, 113
7, 36312, Note_on_c, 5, 76, 0
7, 36336, Note_on_c, 5, 88, 116
7, 36360, Note_on_c, 5, 88, 0
7, 36384, Note_on_c, 5, 89, 113
7, 36408, Note_on_c, 5, 89, 0
7, 36432, Note_on_c, 5, 91, 113
7, 36456, Note_on_c, 5, 91, 0
7, 36480, Note_on_c, 5, 93, 116
7, 36504, Note_on_c, 5, 93, 0
7, 36624, Note_on_c, 5, 69, 115
7, 36624, Note_on_c, 5, 81, 115
7, 36648, Note_on_c, 5, 81, 0
7, 36648, Note_on_c, 5, 69, 0
7, 36672, Note_on_c, 5, 71, 113
7, 36672, Note_on_c, 5, 83, 113
7, 36696, Note_on_c, 5, 83, 0
7, 36696, Note_on_c, 5, 71, 0
7, 36720, Note_on_c, 5, 72, 113
7, 36720, Note_on_c, 5, 84, 113
7, 36744, Note_on_c, 5, 84, 0
7, 36744, Note_on_c, 5, 72, 0
7, 36768, Note_on_c, 5, 86, 120
7, 36803, Note_on_c, 5, 86, 0
7, 36840, Note_on_c, 5, 74, 113
7, 36852, Note_on_c, 5, 74, 0
7, 36864, Note_on_c, 5, 74, 113
7, 36888, Note_on_c, 5, 74, 0
7, 36912, Note_on_c, 5, 74, 115
7, 36912, Note_on_c, 5, 86, 115
7, 36936, Note_on_c, 5, 86, 0
7, 36936, Note_on_c, 5, 74, 0
7, 36960, Note_on_c, 5, 76, 113
7, 36960, Note_on_c, 5, 88, 113
7, 36984, Note_on_c, 5, 88, 0
7, 36984, Note_on_c, 5, 76, 0
7, 37008, Note_on_c, 5, 77, 113
7, 37008, Note_on_c, 5, 89, 113
7, 37032, Note_on_c, 5, 89, 0
7, 37032, Note_on_c, 5, 77, 0
7, 37056, Note_on_c, 5, 79, 115
7, 37056, Note_on_c, 5, 91, 115
7, 37080, Note_on_c, 5, 91, 0
7, 37080, Note_on_c, 5, 79, 0
7, 37200, Note_on_c, 5, 67, 115
7, 37200, Note_on_c, 5, 79, 115
7, 37224, Note_on_c, 5, 79, 0
7, 37224, Note_on_c, 5, 67, 0
7, 37248, Note_on_c, 5, 72, 113
7, 37248, Note_on_c, 5, 84, 113
7, 37272, Note_on_c, 5, 84, 0
7, 37272, Note_on_c, 5, 72, 0
7, 37296, Note_on_c, 5, 74, 113
7, 37296, Note_on_c, 5, 86, 113
7, 37320, Note_on_c, 5, 86, 0
7, 37320, Note_on_c, 5, 74, 0
7, 37344, Note_on_c, 5, 76, 60
7, 37344, Note_on_c, 5, 91, 60
7, 37368, Note_on_c, 5, 91, 0
7, 37368, Note_on_c, 5, 76, 0
7, 38208, Control_c, 5, 11, 60
7, 38208, Control_c, 5, 1, 0
7, 38208, Note_on_c, 5, 84, 100
7, 38208, Note_on_c, 5, 89, 100
7, 38209, Control_c, 5, 1, 1
7, 38210, Control_c, 5, 1, 2
7, 38211, Control_c, 5, 1, 3
7, 38212, Control_c, 5, 1, 4
7, 38214, Control_c, 5, 1, 5
7, 38216, Control_c, 5, 1, 6
7, 38217, Control_c, 5, 1, 7
7, 38218, Control_c, 5, 11, 61
7, 38219, Control_c, 5, 1, 8
7, 38221, Control_c, 5, 1, 9
7, 38224, Control_c, 5, 1, 10
7, 38226, Control_c, 5, 1, 11
7, 38228, Control_c, 5, 11, 62
7, 38229, Control_c, 5, 1, 12
7, 38232, Control_c, 5, 1, 13
7, 38235, Control_c, 5, 1, 14
7, 38237, Control_c, 5, 11, 63
7, 38239, Control_c, 5, 1, 15
7, 38244, Control_c, 5, 1, 16
7, 38247, Control_c, 5, 11, 64
7, 38249, Control_c, 5, 1, 17
7, 38256, Control_c, 5, 11, 65
7, 38257, Control_c, 5, 1, 18
7, 38266, Control_c, 5, 11, 66
7, 38267, Control_c, 5, 1, 19
7, 38276, Control_c, 5, 11, 67
7, 38285, Control_c, 5, 11, 68
7, 38285, Control_c, 5, 1, 20
7, 38295, Control_c, 5, 11, 69
7, 38304, Control_c, 5, 11, 70
7, 38314, Control_c, 5, 11, 71
7, 38323, Control_c, 5, 11, 72
7, 38333, Control_c, 5, 11, 73
7, 38343, Control_c, 5, 11, 74
7, 38352, Note_on_c, 5, 89, 0
7, 38352, Note_on_c, 5, 88, 100
7, 38352, Control_c, 5, 11, 75
7, 38362, Control_c, 5, 11, 76
7, 38371, Control_c, 5, 11, 77
7, 38381, Control_c, 5, 11, 78
7, 38391, Control_c, 5, 11, 79
7, 38400, Control_c, 5, 11, 80
7, 38410, Control_c, 5, 11, 81
7, 38419, Control_c, 5, 11, 82
7, 38429, Control_c, 5, 11, 83
7, 38438, Control_c, 5, 11, 84
7, 38448, Control_c, 5, 11, 85
7, 38458, Control_c, 5, 11, 86
7, 38467, Control_c, 5, 11, 87
7, 38477, Control_c, 5, 11, 88
7, 38486, Control_c, 5, 11, 89
7, 38496, Note_on_c, 5, 88, 0
7, 38496, Note_on_c, 5, 88, 100
7, 38496, Control_c, 5, 11, 90
7, 38506, Control_c, 5, 11, 91
7, 38515, Control_c, 5, 11, 92
7, 38525, Control_c, 5, 11, 93
7, 38534, Control_c, 5, 11, 94
7, 38544, Control_c, 5, 11, 95
7, 38553, Control_c, 5, 11, 96
7, 38563, Control_c, 5, 11, 97
7, 38573, Control_c, 5, 11, 98
7, 38582, Control_c, 5, 11, 99
7, 38592, Control_c, 5, 11, 100
7, 38601, Control_c, 5, 11, 101
7, 38611, Control_c, 5, 11, 102
7, 38621, Control_c, 5, 11, 103
7, 38630, Control_c, 5, 11, 104
7, 38640, Control_c, 5, 11, 105
7, 38649, Control_c, 5, 11, 106
7, 38659, Control_c, 5, 11, 107
7, 38668, Control_c, 5, 11, 108
7, 38678, Control_c, 5, 11, 109
7, 38688, Note_on_c, 5, 88, 0
7, 38688, Note_on_c, 5, 84, 0
7, 38688, Note_on_c, 5, 86, 100
7, 38688, Note_on_c, 5, 89, 100
7, 38688, Control_c, 5, 11, 110
7, 38697, Control_c, 5, 11, 111
7, 38707, Control_c, 5, 11, 112
7, 38716, Control_c, 5, 11, 113
7, 38726, Control_c, 5, 11, 114
7, 38736, Note_on_c, 5, 89, 0
7, 38736, Note_on_c, 5, 86, 0
7, 38736, Note_on_c, 5, 88, 100
7, 38736, Note_on_c, 5, 91, 100
7, 38736, Control_c, 5, 11, 115
7, 38745, Control_c, 5, 11, 116
7, 38755, Control_c, 5, 11, 117
7, 38764, Control_c, 5, 11, 118
7, 38774, Control_c, 5, 11, 119
7, 38783, Control_c, 5, 11, 120
7, 38784, Note_on_c, 5, 91, 0
7, 38784, Note_on_c, 5, 88, 0
7, 38784, Control_c, 5, 1, 0
7, 38784, Note_on_c, 5, 79, 105
7, 38784, Note_on_c, 5, 91, 105
7, 38808, Note_on_c, 5, 91, 0
7, 38808, Note_on_c, 5, 79, 0
7, 38832, Note_on_c, 5, 76, 100
7, 38832, Note_on_c, 5, 88, 100
7, 38856, Note_on_c, 5, 88, 0
7, 38856, Note_on_c, 5, 76, 0
7, 38880, Note_on_c, 5, 81, 100
7, 38880, Note_on_c, 5, 93, 100
7, 38904, Note_on_c, 5, 93, 0
7, 38904, Note_on_c, 5, 81, 0
7, 38928, Note_on_c, 5, 77, 105
7, 38928, Note_on_c, 5, 89, 105
7, 38952, Note_on_c, 5, 89, 0
7, 38952, Note_on_c, 5, 77, 0
7, 38976, Note_on_c, 5, 74, 100
7, 38976, Note_on_c, 5, 86, 100
7, 39000, Note_on_c, 5, 86, 0
7, 39000, Note_on_c, 5, 74, 0
7, 39024, Note_on_c, 5, 79, 100
7, 39024, Note_on_c, 5, 91, 100
7, 39048, Note_on_c, 5, 91, 0
7, 39048, Note_on_c, 5, 79, 0
7, 39072, Note_on_c, 5, 72, 105
7, 39072, Note_on_c, 5, 84, 105
7, 39096, Note_on_c, 5, 84, 0
7, 39096, Note_on_c, 5, 72, 0
7, 39360, Note_on_c, 5, 79, 105
7, 39360, Note_on_c, 5, 91, 105
7, 39384, Note_on_c, 5, 91, 0
7, 39384, Note_on_c, 5, 79, 0
7, 39408, Note_on_c, 5, 76, 100
7, 39408, Note_on_c, 5, 88, 100
7, 39432, Note_on_c, 5, 88, 0
7, 39432, Note_on_c, 5, 76, 0
7, 39456, Note_on_c, 5, 81, 100
7, 39456, Note_on_c, 5, 93, 100
7, 39480, Note_on_c, 5, 93, 0
7, 39480, Note_on_c, 5, 81, 0
7, 39504, Note_on_c, 5, 77, 105
7, 39504, Note_on_c, 5, 89, 105
7, 39528, Note_on_c, 5, 89, 0
7, 39528, Note_on_c, 5, 77, 0
7, 39552, Note_on_c, 5, 74, 100
7, 39552, Note_on_c, 5, 86, 100
7, 39576, Note_on_c, 5, 86, 0
7, 39576, Note_on_c, 5, 74, 0
7, 39600, Note_on_c, 5, 79, 100
7, 39600, Note_on_c, 5, 91, 100
7, 39624, Note_on_c, 5, 91, 0
7, 39624, Note_on_c, 5, 79, 0
7, 39648, Note_on_c, 5, 79, 105
7, 39648, Note_on_c, 5, 91, 105
7, 39672, Note_on_c, 5, 91, 0
7, 39672, Note_on_c, 5, 79, 0
7, 39696, Note_on_c, 5, 79, 100
7, 39696, Note_on_c, 5, 91, 100
7, 39720, Note_on_c, 5, 91, 0
7, 39720, Note_on_c, 5, 79, 0
7, 39744, Note_on_c, 5, 79, 100
7, 39744, Note_on_c, 5, 91, 100
7, 39768, Note_on_c, 5, 91, 0
7, 39768, Note_on_c, 5, 79, 0
7, 39792, Note_on_c, 5, 79, 105
7, 39792, Note_on_c, 5, 91, 105
7, 39816, Note_on_c, 5, 91, 0
7, 39816, Note_on_c, 5, 79, 0
7, 39840, Note_on_c, 5, 79, 100
7, 39840, Note_on_c, 5, 91, 100
7, 39864, Note_on_c, 5, 91, 0
7, 39864, Note_on_c, 5, 79, 0
7, 39888, Note_on_c, 5, 79, 100
7, 39888, Note_on_c, 5, 91, 100
7, 39912, Note_on_c, 5, 91, 0
7, 39912, Note_on_c, 5, 79, 0
7, 39936, Note_on_c, 5, 84, 105
7, 39936, Note_on_c, 5, 88, 105
7, 39960, Note_on_c, 5, 88, 0
7, 39960, Note_on_c, 5, 84, 0
7, 39984, Note_on_c, 5, 84, 100
7, 40008, Note_on_c, 5, 84, 0
7, 40032, Note_on_c, 5, 88, 100
7, 40032, Note_on_c, 5, 91, 100
7, 40056, Note_on_c, 5, 91, 0
7, 40056, Note_on_c, 5, 88, 0
7, 40080, Note_on_c, 5, 86, 105
7, 40080, Note_on_c, 5, 89, 105
7, 40104, Note_on_c, 5, 89, 0
7, 40104, Note_on_c, 5, 86, 0
7, 40128, Note_on_c, 5, 83, 100
7, 40128, Note_on_c, 5, 86, 100
7, 40152, Note_on_c, 5, 86, 0
7, 40152, Note_on_c, 5, 83, 0
7, 40176, Note_on_c, 5, 83, 100
7, 40176, Note_on_c, 5, 91, 100
7, 40200, Note_on_c, 5, 91, 0
7, 40200, Note_on_c, 5, 83, 0
7, 40224, Note_on_c, 5, 84, 105
7, 40224, Note_on_c, 5, 88, 105
7, 40248, Note_on_c, 5, 88, 0
7, 40248, Note_on_c, 5, 84, 0
7, 40272, Note_on_c, 5, 84, 100
7, 40296, Note_on_c, 5, 84, 0
7, 40320, Note_on_c, 5, 88, 100
7, 40320, Note_on_c, 5, 91, 100
7, 40344, Note_on_c, 5, 91, 0
7, 40344, Note_on_c, 5, 88, 0
7, 40368, Note_on_c, 5, 86, 105
7, 40368, Note_on_c, 5, 89, 105
7, 40392, Note_on_c, 5, 89, 0
7, 40392, Note_on_c, 5, 86, 0
7, 40416, Note_on_c, 5, 83, 100
7, 40416, Note_on_c, 5, 86, 100
7, 40440, Note_on_c, 5, 86, 0
7, 40440, Note_on_c, 5, 83, 0
7, 40464, Note_on_c, 5, 83, 100
7, 40464, Note_on_c, 5, 91, 100
7, 40488, Note_on_c, 5, 91, 0
7, 40488, Note_on_c, 5, 83, 0
7, 40512, Control_c, 5, 1, 0
7, 40512, Note_on_c, 5, 79, 49
7, 40513, Control_c, 5, 1, 1
7, 40514, Control_c, 5, 1, 2
7, 40515, Control_c, 5, 1, 3
7, 40516, Control_c, 5, 1, 4
7, 40518, Control_c, 5, 1, 5
7, 40520, Control_c, 5, 1, 6
7, 40521, Control_c, 5, 1, 7
7, 40523, Control_c, 5, 1, 8
7, 40525, Control_c, 5, 1, 9
7, 40528, Control_c, 5, 1, 10
7, 40530, Control_c, 5, 1, 11
7, 40533, Control_c, 5, 1, 12
7, 40536, Control_c, 5, 1, 13
7, 40539, Control_c, 5, 1, 14
7, 40543, Control_c, 5, 1, 15
7, 40548, Control_c, 5, 1, 16
7, 40553, Control_c, 5, 1, 17
7, 40560, Note_on_c, 5, 79, 0
7, 40560, Note_on_c, 5, 81, 51
7, 40561, Control_c, 5, 1, 18
7, 40571, Control_c, 5, 1, 19
7, 40589, Control_c, 5, 1, 20
7, 40608, Note_on_c, 5, 81, 0
7, 40608, Note_on_c, 5, 83, 53
7, 40656, Note_on_c, 5, 83, 0
7, 40656, Note_on_c, 5, 84, 54
7, 40704, Note_on_c, 5, 84, 0
7, 40704, Note_on_c, 5, 86, 56
7, 40752, Note_on_c, 5, 86, 0
7, 40752, Note_on_c, 5, 88, 58
7, 40800, Note_on_c, 5, 88, 0
7, 40800, Note_on_c, 5, 89, 59
7, 40848, Note_on_c, 5, 89, 0
7, 40848, Note_on_c, 5, 88, 58
7, 40896, Note_on_c, 5, 88, 0
7, 40896, Note_on_c, 5, 89, 59
7, 40944, Note_on_c, 5, 89, 0
7, 40944, Note_on_c, 5, 91, 61
7, 40992, Note_on_c, 5, 91, 0
7, 40992, Note_on_c, 5, 93, 63
7, 41040, Note_on_c, 5, 93, 0
7, 41040, Note_on_c, 5, 83, 53
7, 41088, Note_on_c, 5, 83, 0
7, 41088, Note_on_c, 5, 84, 50
7, 41112, Note_on_c, 5, 84, 0
7, 41232, Note_on_c, 5, 84, 50
7, 41267, Note_on_c, 5, 84, 0
7, 41304, Note_on_c, 5, 72, 50
7, 41316, Note_on_c, 5, 72, 0
7, 41328, Note_on_c, 5, 72, 50
7, 41352, Note_on_c, 5, 72, 0
7, 41376, Note_on_c, 5, 72, 50
7, 41400, Note_on_c, 5, 72, 0
7, 41520, Control_c, 5, 1, 0
7, 41520, Note_on_c, 5, 86, 50
7, 41555, Note_on_c, 5, 86, 0
7, 41592, Note_on_c, 5, 74, 50
7, 41604, Note_on_c, 5, 74, 0
7, 41616, Note_on_c, 5, 74, 50
7, 41640, Note_on_c, 5, 74, 0
7, 41664, Note_on_c, 5, 74, 50
7, 41688, Note_on_c, 5, 74, 0
7, 42384, Note_on_c, 5, 86, 60
7, 42419, Note_on_c, 5, 86, 0
7, 42456, Note_on_c, 5, 74, 50
7, 42468, Note_on_c, 5, 74, 0
7, 42480, Note_on_c, 5, 74, 50
7, 42504, Note_on_c, 5, 74, 0
7, 42528, Note_on_c, 5, 74, 50
7, 42552, Note_on_c, 5, 74, 0
7, 42672, Note_on_c, 5, 87, 60
7, 42707, Note_on_c, 5, 87, 0
7, 42744, Note_on_c, 5, 75, 50
7, 42756, Note_on_c, 5, 75, 0
7, 42768, Note_on_c, 5, 75, 50
7, 42792, Note_on_c, 5, 75, 0
7, 42816, Note_on_c, 5, 75, 50
7, 42840, Note_on_c, 5, 75, 0
7, 43536, Note_on_c, 5, 87, 60
7, 43571, Note_on_c, 5, 87, 0
7, 43608, Note_on_c, 5, 75, 61
7, 43620, Note_on_c, 5, 75, 0
7, 43632, Note_on_c, 5, 75, 62
7, 43656, Note_on_c, 5, 75, 0
7, 43680, Note_on_c, 5, 75, 63
7, 43704, Note_on_c, 5, 75, 0
7, 43824, Note_on_c, 5, 89, 66
7, 43859, Note_on_c, 5, 89, 0
7, 43896, Note_on_c, 5, 77, 68
7, 43908, Note_on_c, 5, 77, 0
7, 43920, Note_on_c, 5, 77, 69
7, 43944, Note_on_c, 5, 77, 0
7, 43968, Note_on_c, 5, 77, 70
7, 43992, Note_on_c, 5, 77, 0
7, 44112, Note_on_c, 5, 89, 73
7, 44147, Note_on_c, 5, 89, 0
7, 44184, Note_on_c, 5, 77, 75
7, 44196, Note_on_c, 5, 77, 0
7, 44208, Note_on_c, 5, 77, 75
7, 44232, Note_on_c, 5, 77, 0
7, 44256, Note_on_c, 5, 78, 76
7, 44280, Note_on_c, 5, 78, 0
7, 44400, Note_on_c, 5, 90, 80
7, 44435, Note_on_c, 5, 90, 0
7, 44472, Note_on_c, 5, 78, 81
7, 44484, Note_on_c, 5, 78, 0
7, 44496, Note_on_c, 5, 78, 82
7, 44520, Note_on_c, 5, 78, 0
7, 44544, Note_on_c, 5, 78, 83
7, 44568, Note_on_c, 5, 78, 0
7, 44688, Note_on_c, 5, 92, 87
7, 44723, Note_on_c, 5, 92, 0
7, 44760, Note_on_c, 5, 80, 88
7, 44772, Note_on_c, 5, 80, 0
7, 44784, Note_on_c, 5, 80, 89
7, 44808, Note_on_c, 5, 80, 0
7, 44832, Note_on_c, 5, 80, 90
7, 44856, Note_on_c, 5, 80, 0
7, 44976, Note_on_c, 5, 92, 93
7, 45011, Note_on_c, 5, 92, 0
7, 45048, Note_on_c, 5, 80, 95
7, 45060, Note_on_c, 5, 80, 0
7, 45072, Note_on_c, 5, 80, 96
7, 45096, Note_on_c, 5, 80, 0
7, 45120, Note_on_c, 5, 81, 100
7, 45144, Note_on_c, 5, 81, 0
7, 45264, Note_on_c, 5, 81, 100
7, 45264, Note_on_c, 5, 93, 100
7, 45299, Note_on_c, 5, 93, 0
7, 45299, Note_on_c, 5, 81, 0
7, 45336, Note_on_c, 5, 69, 100
7, 45336, Note_on_c, 5, 81, 100
7, 45348, Note_on_c, 5, 81, 0
7, 45348, Note_on_c, 5, 69, 0
7, 45360, Note_on_c, 5, 69, 100
7, 45360, Note_on_c, 5, 81, 100
7, 45384, Note_on_c, 5, 81, 0
7, 45384, Note_on_c, 5, 69, 0
7, 45552, Note_on_c, 5, 94, 113
7, 45587, Note_on_c, 5, 94, 0
7, 45624, Note_on_c, 5, 82, 113
7, 45636, Note_on_c, 5, 82, 0
7, 45648, Note_on_c, 5, 82, 113
7, 45672, Note_on_c, 5, 82, 0
7, 45840, Note_on_c, 5, 95, 113
7, 45875, Note_on_c, 5, 95, 0
7, 45912, Note_on_c, 5, 83, 113
7, 45924, Note_on_c, 5, 83, 0
7, 45936, Note_on_c, 5, 83, 113
7, 46008, Note_on_c, 5, 83, 0
7, 47328, Note_on_c, 5, 88, 75
7, 47363, Note_on_c, 5, 88, 0
7, 47400, Note_on_c, 5, 76, 70
7, 47412, Note_on_c, 5, 76, 0
7, 47424, Note_on_c, 5, 76, 70
7, 47448, Note_on_c, 5, 76, 0
7, 47472, Note_on_c, 5, 81, 65
7, 47496, Note_on_c, 5, 81, 0
7, 47520, Note_on_c, 5, 83, 60
7, 47544, Note_on_c, 5, 83, 0
7, 47568, Note_on_c, 5, 84, 60
7, 47592, Note_on_c, 5, 84, 0
7, 47616, Note_on_c, 5, 83, 65
7, 47640, Note_on_c, 5, 83, 0
7, 47664, Note_on_c, 5, 84, 60
7, 47688, Note_on_c, 5, 84, 0
7, 47712, Note_on_c, 5, 86, 60
7, 47736, Note_on_c, 5, 86, 0
7, 47760, Note_on_c, 5, 84, 65
7, 47784, Note_on_c, 5, 84, 0
7, 47808, Note_on_c, 5, 88, 60
7, 47832, Note_on_c, 5, 88, 0
7, 47856, Note_on_c, 5, 88, 60
7, 47880, Note_on_c, 5, 88, 0
7, 47904, Note_on_c, 5, 88, 65
7, 47928, Note_on_c, 5, 88, 0
7, 47952, Note_on_c, 5, 86, 60
7, 47976, Note_on_c, 5, 86, 0
7, 48000, Note_on_c, 5, 84, 60
7, 48024, Note_on_c, 5, 84, 0
7, 48048, Note_on_c, 5, 86, 65
7, 48072, Note_on_c, 5, 86, 0
7, 48096, Note_on_c, 5, 84, 60
7, 48120, Note_on_c, 5, 84, 0
7, 48144, Note_on_c, 5, 83, 60
7, 48168, Note_on_c, 5, 83, 0
7, 48192, Note_on_c, 5, 88, 65
7, 48227, Note_on_c, 5, 88, 0
7, 48264, Note_on_c, 5, 76, 60
7, 48276, Note_on_c, 5, 76, 0
7, 48288, Note_on_c, 5, 76, 60
7, 48312, Note_on_c, 5, 76, 0
7, 48336, Note_on_c, 5, 81, 65
7, 48360, Note_on_c, 5, 81, 0
7, 48384, Note_on_c, 5, 83, 60
7, 48408, Note_on_c, 5, 83, 0
7, 48432, Note_on_c, 5, 84, 60
7, 48456, Note_on_c, 5, 84, 0
7, 48480, Note_on_c, 5, 83, 65
7, 48504, Note_on_c, 5, 83, 0
7, 48528, Note_on_c, 5, 84, 60
7, 48552, Note_on_c, 5, 84, 0
7, 48576, Note_on_c, 5, 86, 60
7, 48600, Note_on_c, 5, 86, 0
7, 48768, Note_on_c, 5, 81, 65
7, 48792, Note_on_c, 5, 81, 0
7, 48816, Note_on_c, 5, 82, 60
7, 48840, Note_on_c, 5, 82, 0
7, 48864, Note_on_c, 5, 84, 60
7, 48888, Note_on_c, 5, 84, 0
7, 48912, Note_on_c, 5, 82, 65
7, 48936, Note_on_c, 5, 82, 0
7, 48960, Note_on_c, 5, 84, 60
7, 48984, Note_on_c, 5, 84, 0
7, 49008, Note_on_c, 5, 86, 60
7, 49032, Note_on_c, 5, 86, 0
7, 49200, Note_on_c, 5, 84, 65
7, 49224, Note_on_c, 5, 84, 0
7, 49248, Note_on_c, 5, 88, 60
7, 49272, Note_on_c, 5, 88, 0
7, 49296, Note_on_c, 5, 89, 60
7, 49320, Note_on_c, 5, 89, 0
7, 49344, Note_on_c, 5, 88, 65
7, 49368, Note_on_c, 5, 88, 0
7, 49392, Note_on_c, 5, 89, 60
7, 49416, Note_on_c, 5, 89, 0
7, 49440, Note_on_c, 5, 91, 60
7, 49464, Note_on_c, 5, 91, 0
7, 49632, Note_on_c, 5, 77, 65
7, 49632, Note_on_c, 5, 89, 65
7, 49656, Note_on_c, 5, 89, 0
7, 49656, Note_on_c, 5, 77, 0
7, 49680, Note_on_c, 5, 77, 60
7, 49680, Note_on_c, 5, 89, 60
7, 49704, Note_on_c, 5, 89, 0
7, 49704, Note_on_c, 5, 77, 0
7, 49728, Note_on_c, 5, 77, 60
7, 49728, Note_on_c, 5, 89, 60
7, 49752, Note_on_c, 5, 89, 0
7, 49752, Note_on_c, 5, 77, 0
7, 49776, Note_on_c, 5, 77, 65
7, 49776, Note_on_c, 5, 89, 65
7, 49800, Note_on_c, 5, 89, 0
7, 49800, Note_on_c, 5, 77, 0
7, 49824, Note_on_c, 5, 77, 60
7, 49824, Note_on_c, 5, 89, 60
7, 49848, Note_on_c, 5, 89, 0
7, 49848, Note_on_c, 5, 77, 0
7, 49872, Note_on_c, 5, 77, 60
7, 49872, Note_on_c, 5, 89, 60
7, 49896, Note_on_c, 5, 89, 0
7, 49896, Note_on_c, 5, 77, 0
7, 50064, Note_on_c, 5, 84, 65
7, 50064, Note_on_c, 5, 93, 65
7, 50088, Note_on_c, 5, 93, 0
7, 50088, Note_on_c, 5, 84, 0
7, 50112, Note_on_c, 5, 84, 60
7, 50112, Note_on_c, 5, 91, 60
7, 50136, Note_on_c, 5, 91, 0
7, 50136, Note_on_c, 5, 84, 0
7, 50160, Note_on_c, 5, 84, 60
7, 50160, Note_on_c, 5, 89, 60
7, 50184, Note_on_c, 5, 89, 0
7, 50184, Note_on_c, 5, 84, 0
7, 50208, Note_on_c, 5, 84, 65
7, 50208, Note_on_c, 5, 91, 65
7, 50232, Note_on_c, 5, 91, 0
7, 50232, Note_on_c, 5, 84, 0
7, 50256, Note_on_c, 5, 84, 60
7, 50256, Note_on_c, 5, 89, 60
7, 50280, Note_on_c, 5, 89, 0
7, 50280, Note_on_c, 5, 84, 0
7, 50304, Note_on_c, 5, 84, 60
7, 50304, Note_on_c, 5, 88, 60
7, 50328, Note_on_c, 5, 88, 0
7, 50328, Note_on_c, 5, 84, 0
7, 50352, Note_on_c, 5, 84, 65
7, 50352, Note_on_c, 5, 89, 65
7, 50376, Note_on_c, 5, 89, 0
7, 50376, Note_on_c, 5, 84, 0
7, 50400, Note_on_c, 5, 84, 60
7, 50400, Note_on_c, 5, 91, 60
7, 50424, Note_on_c, 5, 91, 0
7, 50424, Note_on_c, 5, 84, 0
7, 50448, Note_on_c, 5, 84, 60
7, 50448, Note_on_c, 5, 93, 60
7, 50472, Note_on_c, 5, 93, 0
7, 50472, Note_on_c, 5, 84, 0
7, 50496, Note_on_c, 5, 84, 65
7, 50496, Note_on_c, 5, 93, 65
7, 50520, Note_on_c, 5, 93, 0
7, 50520, Note_on_c, 5, 84, 0
7, 50544, Note_on_c, 5, 84, 60
7, 50544, Note_on_c, 5, 91, 60
7, 50568, Note_on_c, 5, 91, 0
7, 50568, Note_on_c, 5, 84, 0
7, 50592, Note_on_c, 5, 84, 60
7, 50592, Note_on_c, 5, 89, 60
7, 50616, Note_on_c, 5, 89, 0
7, 50616, Note_on_c, 5, 84, 0
7, 50640, Note_on_c, 5, 84, 65
7, 50640, Note_on_c, 5, 89, 65
7, 50664, Note_on_c, 5, 89, 0
7, 50664, Note_on_c, 5, 84, 0
7, 50688, Note_on_c, 5, 84, 60
7, 50688, Note_on_c, 5, 91, 60
7, 50712, Note_on_c, 5, 91, 0
7, 50712, Note_on_c, 5, 84, 0
7, 50736, Note_on_c, 5, 84, 60
7, 50736, Note_on_c, 5, 89, 60
7, 50760, Note_on_c, 5, 89, 0
7, 50760, Note_on_c, 5, 84, 0
7, 50928, Note_on_c, 5, 84, 55
7, 50963, Note_on_c, 5, 84, 0
7, 51000, Note_on_c, 5, 72, 50
7, 51012, Note_on_c, 5, 72, 0
7, 51024, Note_on_c, 5, 72, 50
7, 51048, Note_on_c, 5, 72, 0
7, 51216, Note_on_c, 5, 81, 55
7, 51216, Note_on_c, 5, 86, 55
7, 51240, Note_on_c, 5, 86, 0
7, 51240, Note_on_c, 5, 81, 0
7, 51264, Note_on_c, 5, 81, 50
7, 51264, Note_on_c, 5, 88, 50
7, 51288, Note_on_c, 5, 88, 0
7, 51288, Note_on_c, 5, 81, 0
7, 51312, Note_on_c, 5, 81, 50
7, 51312, Note_on_c, 5, 89, 50
7, 51336, Note_on_c, 5, 89, 0
7, 51336, Note_on_c, 5, 81, 0
7, 51360, Note_on_c, 5, 81, 55
7, 51360, Note_on_c, 5, 89, 55
7, 51384, Note_on_c, 5, 89, 0
7, 51384, Note_on_c, 5, 81, 0
7, 51408, Note_on_c, 5, 81, 50
7, 51408, Note_on_c, 5, 88, 50
7, 51432, Note_on_c, 5, 88, 0
7, 51432, Note_on_c, 5, 81, 0
7, 51456, Note_on_c, 5, 81, 50
7, 51456, Note_on_c, 5, 86, 50
7, 51480, Note_on_c, 5, 86, 0
7, 51480, Note_on_c, 5, 81, 0
7, 51504, Note_on_c, 5, 81, 55
7, 51504, Note_on_c, 5, 86, 55
7, 51528, Note_on_c, 5, 86, 0
7, 51528, Note_on_c, 5, 81, 0
7, 51552, Note_on_c, 5, 81, 50
7, 51552, Note_on_c, 5, 88, 50
7, 51576, Note_on_c, 5, 88, 0
7, 51576, Note_on_c, 5, 81, 0
7, 51600, Note_on_c, 5, 81, 50
7, 51600, Note_on_c, 5, 86, 50
7, 51624, Note_on_c, 5, 86, 0
7, 51624, Note_on_c, 5, 81, 0
7, 52080, Note_on_c, 5, 81, 55
7, 52080, Note_on_c, 5, 86, 55
7, 52104, Note_on_c, 5, 86, 0
7, 52104, Note_on_c, 5, 81, 0
7, 52128, Note_on_c, 5, 81, 50
7, 52128, Note_on_c, 5, 88, 50
7, 52152, Note_on_c, 5, 88, 0
7, 52152, Note_on_c, 5, 81, 0
7, 52176, Note_on_c, 5, 81, 50
7, 52176, Note_on_c, 5, 89, 50
7, 52200, Note_on_c, 5, 89, 0
7, 52200, Note_on_c, 5, 81, 0
7, 52224, Note_on_c, 5, 81, 55
7, 52224, Note_on_c, 5, 89, 55
7, 52248, Note_on_c, 5, 89, 0
7, 52248, Note_on_c, 5, 81, 0
7, 52272, Note_on_c, 5, 81, 50
7, 52272, Note_on_c, 5, 88, 50
7, 52296, Note_on_c, 5, 88, 0
7, 52296, Note_on_c, 5, 81, 0
7, 52320, Note_on_c, 5, 81, 50
7, 52320, Note_on_c, 5, 86, 50
7, 52344, Note_on_c, 5, 86, 0
7, 52344, Note_on_c, 5, 81, 0
7, 52368, Note_on_c, 5, 81, 55
7, 52368, Note_on_c, 5, 86, 55
7, 52392, Note_on_c, 5, 86, 0
7, 52392, Note_on_c, 5, 81, 0
7, 52416, Note_on_c, 5, 81, 50
7, 52416, Note_on_c, 5, 88, 50
7, 52440, Note_on_c, 5, 88, 0
7, 52440, Note_on_c, 5, 81, 0
7, 52464, Note_on_c, 5, 81, 50
7, 52464, Note_on_c, 5, 86, 50
7, 52488, Note_on_c, 5, 86, 0
7, 52488, Note_on_c, 5, 81, 0
7, 53424, Note_on_c, 5, 81, 50
7, 53448, Note_on_c, 5, 81, 0
7, 53472, Note_on_c, 5, 81, 50
7, 53496, Note_on_c, 5, 81, 0
7, 53520, Note_on_c, 5, 81, 55
7, 53544, Note_on_c, 5, 81, 0
7, 53568, Note_on_c, 5, 81, 50
7, 53592, Note_on_c, 5, 81, 0
7, 53616, Note_on_c, 5, 81, 50
7, 53640, Note_on_c, 5, 81, 0
7, 53664, Note_on_c, 5, 81, 55
7, 53688, Note_on_c, 5, 81, 0
7, 53712, Note_on_c, 5, 81, 50
7, 53736, Note_on_c, 5, 81, 0
7, 53760, Note_on_c, 5, 81, 50
7, 53784, Note_on_c, 5, 81, 0
7, 53808, Note_on_c, 5, 93, 55
7, 53843, Note_on_c, 5, 93, 0
7, 53880, Note_on_c, 5, 81, 50
7, 53892, Note_on_c, 5, 81, 0
7, 53904, Note_on_c, 5, 81, 50
7, 53928, Note_on_c, 5, 81, 0
7, 53952, Note_on_c, 5, 86, 55
7, 53976, Note_on_c, 5, 86, 0
7, 54000, Note_on_c, 5, 88, 50
7, 54024, Note_on_c, 5, 88, 0
7, 54048, Note_on_c, 5, 89, 50
7, 54072, Note_on_c, 5, 89, 0
7, 54096, Note_on_c, 5, 88, 55
7, 54120, Note_on_c, 5, 88, 0
7, 54144, Note_on_c, 5, 89, 50
7, 54168, Note_on_c, 5, 89, 0
7, 54192, Note_on_c, 5, 91, 50
7, 54216, Note_on_c, 5, 91, 0
7, 54240, Note_on_c, 5, 89, 55
7, 54264, Note_on_c, 5, 89, 0
7, 54288, Note_on_c, 5, 93, 50
7, 54312, Note_on_c, 5, 93, 0
7, 54336, Note_on_c, 5, 93, 50
7, 54360, Note_on_c, 5, 93, 0
7, 54384, Note_on_c, 5, 93, 55
7, 54408, Note_on_c, 5, 93, 0
7, 54432, Note_on_c, 5, 91, 50
7, 54456, Note_on_c, 5, 91, 0
7, 54480, Note_on_c, 5, 89, 50
7, 54504, Note_on_c, 5, 89, 0
7, 54528, Note_on_c, 5, 91, 55
7, 54552, Note_on_c, 5, 91, 0
7, 54576, Note_on_c, 5, 89, 50
7, 54600, Note_on_c, 5, 89, 0
7, 54624, Note_on_c, 5, 88, 50
7, 54648, Note_on_c, 5, 88, 0
7, 54672, Note_on_c, 5, 86, 55
7, 54696, Note_on_c, 5, 86, 0
7, 54720, Note_on_c, 5, 85, 50
7, 54744, Note_on_c, 5, 85, 0
7, 54768, Note_on_c, 5, 86, 50
7, 54792, Note_on_c, 5, 86, 0
7, 54816, Note_on_c, 5, 86, 55
7, 54840, Note_on_c, 5, 86, 0
7, 54864, Note_on_c, 5, 91, 50
7, 54888, Note_on_c, 5, 91, 0
7, 54912, Note_on_c, 5, 91, 50
7, 54936, Note_on_c, 5, 91, 0
7, 54960, Note_on_c, 5, 91, 55
7, 54984, Note_on_c, 5, 91, 0
7, 55008, Note_on_c, 5, 91, 50
7, 55032, Note_on_c, 5, 91, 0
7, 55056, Note_on_c, 5, 91, 50
7, 55080, Note_on_c, 5, 91, 0
7, 55104, Note_on_c, 5, 91, 55
7, 55128, Note_on_c, 5, 91, 0
7, 55152, Note_on_c, 5, 91, 50
7, 55176, Note_on_c, 5, 91, 0
7, 55200, Note_on_c, 5, 91, 50
7, 55224, Note_on_c, 5, 91, 0
7, 55248, Note_on_c, 5, 91, 55
7, 55272, Note_on_c, 5, 91, 0
7, 55296, Note_on_c, 5, 91, 50
7, 55320, Note_on_c, 5, 91, 0
7, 55344, Note_on_c, 5, 91, 50
7, 55368, Note_on_c, 5, 91, 0
7, 55392, Note_on_c, 5, 86, 55
7, 55416, Note_on_c, 5, 86, 0
7, 55440, Note_on_c, 5, 82, 50
7, 55464, Note_on_c, 5, 82, 0
7, 55488, Note_on_c, 5, 82, 50
7, 55512, Note_on_c, 5, 82, 0
7, 55536, Note_on_c, 5, 82, 55
7, 55560, Note_on_c, 5, 82, 0
7, 55584, Note_on_c, 5, 86, 50
7, 55608, Note_on_c, 5, 86, 0
7, 55632, Note_on_c, 5, 87, 50
7, 55656, Note_on_c, 5, 87, 0
7, 55680, Note_on_c, 5, 86, 55
7, 55704, Note_on_c, 5, 86, 0
7, 55728, Note_on_c, 5, 87, 50
7, 55752, Note_on_c, 5, 87, 0
7, 55776, Note_on_c, 5, 89, 50
7, 55800, Note_on_c, 5, 89, 0
7, 55824, Note_on_c, 5, 87, 55
7, 55848, Note_on_c, 5, 87, 0
7, 55872, Note_on_c, 5, 86, 50
7, 55896, Note_on_c, 5, 86, 0
7, 55920, Note_on_c, 5, 87, 50
7, 55944, Note_on_c, 5, 87, 0
7, 55968, Note_on_c, 5, 89, 55
7, 55992, Note_on_c, 5, 89, 0
7, 56016, Note_on_c, 5, 91, 50
7, 56040, Note_on_c, 5, 91, 0
7, 56064, Note_on_c, 5, 92, 50
7, 56088, Note_on_c, 5, 92, 0
7, 56112, Note_on_c, 5, 91, 55
7, 56136, Note_on_c, 5, 91, 0
7, 56160, Note_on_c, 5, 89, 50
7, 56184, Note_on_c, 5, 89, 0
7, 56208, Note_on_c, 5, 87, 50
7, 56232, Note_on_c, 5, 87, 0
7, 56256, Note_on_c, 5, 86, 50
7, 56256, Note_on_c, 5, 92, 50
7, 56280, Note_on_c, 5, 92, 0
7, 56280, Note_on_c, 5, 86, 0
7, 56832, Note_on_c, 5, 87, 50
7, 56832, Note_on_c, 5, 91, 50
7, 56856, Note_on_c, 5, 91, 0
7, 56856, Note_on_c, 5, 87, 0
7, 56976, Note_on_c, 5, 87, 50
7, 56976, Note_on_c, 5, 91, 50
7, 57000, Note_on_c, 5, 91, 0
7, 57000, Note_on_c, 5, 87, 0
7, 57120, Note_on_c, 5, 87, 50
7, 57120, Note_on_c, 5, 91, 50
7, 57144, Note_on_c, 5, 91, 0
7, 57144, Note_on_c, 5, 87, 0
7, 57264, Note_on_c, 5, 87, 50
7, 57264, Note_on_c, 5, 91, 50
7, 57288, Note_on_c, 5, 91, 0
7, 57288, Note_on_c, 5, 87, 0
7, 57408, Note_on_c, 5, 89, 50
7, 57408, Note_on_c, 5, 92, 50
7, 57432, Note_on_c, 5, 92, 0
7, 57432, Note_on_c, 5, 89, 0
7, 57984, Note_on_c, 5, 89, 77
7, 57984, Note_on_c, 5, 93, 77
7, 58008, Note_on_c, 5, 93, 0
7, 58008, Note_on_c, 5, 89, 0
7, 58272, Note_on_c, 5, 81, 90
7, 58272, Note_on_c, 5, 86, 90
7, 58296, Note_on_c, 5, 86, 0
7, 58296, Note_on_c, 5, 81, 0
7, 58560, Note_on_c, 5, 86, 120
7, 58560, Note_on_c, 5, 89, 120
7, 58590, Note_on_c, 5, 89, 0
7, 58590, Note_on_c, 5, 86, 0
7, 58848, Note_on_c, 5, 89, 120
7, 58848, Note_on_c, 5, 93, 120
7, 58878, Note_on_c, 5, 93, 0
7, 58878, Note_on_c, 5, 89, 0
7, 59136, Note_on_c, 5, 81, 125
7, 59136, Note_on_c, 5, 93, 125
7, 59171, Note_on_c, 5, 93, 0
7, 59171, Note_on_c, 5, 81, 0
7, 59208, Note_on_c, 5, 69, 115
7, 59208, Note_on_c, 5, 81, 115
7, 59220, Note_on_c, 5, 81, 0
7, 59220, Note_on_c, 5, 69, 0
7, 59232, Note_on_c, 5, 69, 115
7, 59232, Note_on_c, 5, 81, 115
7, 59256, Note_on_c, 5, 81, 0
7, 59256, Note_on_c, 5, 69, 0
7, 59280, Note_on_c, 5, 81, 125
7, 59280, Note_on_c, 5, 93, 125
7, 59315, Note_on_c, 5, 93, 0
7, 59315, Note_on_c, 5, 81, 0
7, 59352, Note_on_c, 5, 69, 115
7, 59352, Note_on_c, 5, 81, 115
7, 59364, Note_on_c, 5, 81, 0
7, 59364, Note_on_c, 5, 69, 0
7, 59376, Note_on_c, 5, 69, 115
7, 59376, Note_on_c, 5, 81, 115
7, 59400, Note_on_c, 5, 81, 0
7, 59400, Note_on_c, 5, 69, 0
7, 59424, Note_on_c, 5, 81, 125
7, 59424, Note_on_c, 5, 93, 125
7, 59459, Note_on_c, 5, 93, 0
7, 59459, Note_on_c, 5, 81, 0
7, 59496, Note_on_c, 5, 69, 115
7, 59496, Note_on_c, 5, 81, 115
7, 59508, Note_on_c, 5, 81, 0
7, 59508, Note_on_c, 5, 69, 0
7, 59520, Note_on_c, 5, 69, 115
7, 59520, Note_on_c, 5, 81, 115
7, 59544, Note_on_c, 5, 81, 0
7, 59544, Note_on_c, 5, 69, 0
7, 59568, Note_on_c, 5, 81, 125
7, 59568, Note_on_c, 5, 93, 125
7, 59603, Note_on_c, 5, 93, 0
7, 59603, Note_on_c, 5, 81, 0
7, 59640, Note_on_c, 5, 69, 115
7, 59640, Note_on_c, 5, 81, 115
7, 59652, Note_on_c, 5, 81, 0
7, 59652, Note_on_c, 5, 69, 0
7, 59664, Note_on_c, 5, 69, 115
7, 59664, Note_on_c, 5, 81, 115
7, 59688, Note_on_c, 5, 81, 0
7, 59688, Note_on_c, 5, 69, 0
7, 59712, Note_on_c, 5, 81, 125
7, 59712, Note_on_c, 5, 93, 125
7, 59747, Note_on_c, 5, 93, 0
7, 59747, Note_on_c, 5, 81, 0
7, 59784, Note_on_c, 5, 69, 115
7, 59784, Note_on_c, 5, 81, 115
7, 59796, Note_on_c, 5, 81, 0
7, 59796, Note_on_c, 5, 69, 0
7, 59808, Note_on_c, 5, 69, 115
7, 59808, Note_on_c, 5, 81, 115
7, 59832, Note_on_c, 5, 81, 0
7, 59832, Note_on_c, 5, 69, 0
7, 59856, Note_on_c, 5, 74, 120
7, 59856, Note_on_c, 5, 86, 120
7, 59880, Note_on_c, 5, 86, 0
7, 59880, Note_on_c, 5, 74, 0
7, 59904, Note_on_c, 5, 76, 115
7, 59904, Note_on_c, 5, 88, 115
7, 59928, Note_on_c, 5, 88, 0
7, 59928, Note_on_c, 5, 76, 0
7, 59952, Note_on_c, 5, 77, 115
7, 59952, Note_on_c, 5, 89, 115
7, 59976, Note_on_c, 5, 89, 0
7, 59976, Note_on_c, 5, 77, 0
7, 60000, Note_on_c, 5, 76, 120
7, 60000, Note_on_c, 5, 88, 120
7, 60024, Note_on_c, 5, 88, 0
7, 60024, Note_on_c, 5, 76, 0
7, 60048, Note_on_c, 5, 77, 115
7, 60048, Note_on_c, 5, 89, 115
7, 60072, Note_on_c, 5, 89, 0
7, 60072, Note_on_c, 5, 77, 0
7, 60096, Note_on_c, 5, 79, 115
7, 60096, Note_on_c, 5, 91, 115
7, 60120, Note_on_c, 5, 91, 0
7, 60120, Note_on_c, 5, 79, 0
7, 60144, Note_on_c, 5, 77, 120
7, 60144, Note_on_c, 5, 89, 120
7, 60168, Note_on_c, 5, 89, 0
7, 60168, Note_on_c, 5, 77, 0
7, 60192, Note_on_c, 5, 76, 115
7, 60192, Note_on_c, 5, 88, 115
7, 60216, Note_on_c, 5, 88, 0
7, 60216, Note_on_c, 5, 76, 0
7, 60240, Note_on_c, 5, 74, 115
7, 60240, Note_on_c, 5, 86, 115
7, 60264, Note_on_c, 5, 86, 0
7, 60264, Note_on_c, 5, 74, 0
7, 60288, Note_on_c, 5, 82, 120
7, 60312, Note_on_c, 5, 82, 0
7, 60336, Note_on_c, 5, 81, 115
7, 60336, Note_on_c, 5, 93, 115
7, 60360, Note_on_c, 5, 93, 0
7, 60360, Note_on_c, 5, 81, 0
7, 60384, Note_on_c, 5, 79, 115
7, 60384, Note_on_c, 5, 91, 115
7, 60408, Note_on_c, 5, 91, 0
7, 60408, Note_on_c, 5, 79, 0
7, 60432, Note_on_c, 5, 77, 120
7, 60432, Note_on_c, 5, 89, 120
7, 60456, Note_on_c, 5, 89, 0
7, 60456, Note_on_c, 5, 77, 0
7, 60480, Note_on_c, 5, 76, 115
7, 60480, Note_on_c, 5, 88, 115
7, 60504, Note_on_c, 5, 88, 0
7, 60504, Note_on_c, 5, 76, 0
7, 60528, Note_on_c, 5, 74, 115
7, 60528, Note_on_c, 5, 86, 115
7, 60552, Note_on_c, 5, 86, 0
7, 60552, Note_on_c, 5, 74, 0
7, 60576, Note_on_c, 5, 73, 120
7, 60576, Note_on_c, 5, 85, 120
7, 60600, Note_on_c, 5, 85, 0
7, 60600, Note_on_c, 5, 73, 0
7, 60624, Note_on_c, 5, 74, 115
7, 60624, Note_on_c, 5, 86, 115
7, 60648, Note_on_c, 5, 86, 0
7, 60648, Note_on_c, 5, 74, 0
7, 60672, Note_on_c, 5, 76, 115
7, 60672, Note_on_c, 5, 88, 115
7, 60696, Note_on_c, 5, 88, 0
7, 60696, Note_on_c, 5, 76, 0
7, 60720, Note_on_c, 5, 74, 120
7, 60720, Note_on_c, 5, 86, 120
7, 60744, Note_on_c, 5, 86, 0
7, 60744, Note_on_c, 5, 74, 0
7, 60768, Note_on_c, 5, 73, 115
7, 60768, Note_on_c, 5, 85, 115
7, 60792, Note_on_c, 5, 85, 0
7, 60792, Note_on_c, 5, 73, 0
7, 60816, Note_on_c, 5, 74, 115
7, 60816, Note_on_c, 5, 86, 115
7, 60840, Note_on_c, 5, 86, 0
7, 60840, Note_on_c, 5, 74, 0
7, 60864, Note_on_c, 5, 82, 120
7, 60888, Note_on_c, 5, 82, 0
7, 60912, Note_on_c, 5, 81, 115
7, 60912, Note_on_c, 5, 93, 115
7, 60936, Note_on_c, 5, 93, 0
7, 60936, Note_on_c, 5, 81, 0
7, 60960, Note_on_c, 5, 79, 115
7, 60960, Note_on_c, 5, 91, 115
7, 60984, Note_on_c, 5, 91, 0
7, 60984, Note_on_c, 5, 79, 0
7, 61008, Note_on_c, 5, 77, 120
7, 61008, Note_on_c, 5, 89, 120
7, 61032, Note_on_c, 5, 89, 0
7, 61032, Note_on_c, 5, 77, 0
7, 61056, Note_on_c, 5, 76, 115
7, 61056, Note_on_c, 5, 88, 115
7, 61080, Note_on_c, 5, 88, 0
7, 61080, Note_on_c, 5, 76, 0
7, 61104, Note_on_c, 5, 74, 115
7, 61104, Note_on_c, 5, 86, 115
7, 61128, Note_on_c, 5, 86, 0
7, 61128, Note_on_c, 5, 74, 0
7, 61152, Note_on_c, 5, 73, 120
7, 61152, Note_on_c, 5, 85, 120
7, 61176, Note_on_c, 5, 85, 0
7, 61176, Note_on_c, 5, 73, 0
7, 61200, Note_on_c, 5, 74, 115
7, 61200, Note_on_c, 5, 86, 115
7, 61224, Note_on_c, 5, 86, 0
7, 61224, Note_on_c, 5, 74, 0
7, 61248, Note_on_c, 5, 76, 115
7, 61248, Note_on_c, 5, 88, 115
7, 61272, Note_on_c, 5, 88, 0
7, 61272, Note_on_c, 5, 76, 0
7, 61296, Note_on_c, 5, 74, 120
7, 61296, Note_on_c, 5, 86, 120
7, 61320, Note_on_c, 5, 86, 0
7, 61320, Note_on_c, 5, 74, 0
7, 61344, Note_on_c, 5, 73, 115
7, 61344, Note_on_c, 5, 85, 115
7, 61368, Note_on_c, 5, 85, 0
7, 61368, Note_on_c, 5, 73, 0
7, 61392, Note_on_c, 5, 74, 115
7, 61392, Note_on_c, 5, 86, 115
7, 61416, Note_on_c, 5, 86, 0
7, 61416, Note_on_c, 5, 74, 0
7, 61440, Note_on_c, 5, 84, 120
7, 61464, Note_on_c, 5, 84, 0
7, 61488, Note_on_c, 5, 86, 115
7, 61512, Note_on_c, 5, 86, 0
7, 61536, Note_on_c, 5, 87, 115
7, 61560, Note_on_c, 5, 87, 0
7, 61584, Note_on_c, 5, 79, 120
7, 61584, Note_on_c, 5, 91, 120
7, 61608, Note_on_c, 5, 91, 0
7, 61608, Note_on_c, 5, 79, 0
7, 61632, Note_on_c, 5, 81, 115
7, 61632, Note_on_c, 5, 93, 115
7, 61656, Note_on_c, 5, 93, 0
7, 61656, Note_on_c, 5, 81, 0
7, 61680, Note_on_c, 5, 82, 115
7, 61704, Note_on_c, 5, 82, 0
7, 61728, Note_on_c, 5, 81, 120
7, 61752, Note_on_c, 5, 81, 0
7, 61776, Note_on_c, 5, 82, 115
7, 61800, Note_on_c, 5, 82, 0
7, 61824, Note_on_c, 5, 84, 115
7, 61848, Note_on_c, 5, 84, 0
7, 61872, Note_on_c, 5, 82, 120
7, 61896, Note_on_c, 5, 82, 0
7, 61920, Note_on_c, 5, 81, 115
7, 61944, Note_on_c, 5, 81, 0
7, 61968, Note_on_c, 5, 79, 115
7, 61992, Note_on_c, 5, 79, 0
7, 62016, Note_on_c, 5, 87, 105
7, 62040, Note_on_c, 5, 87, 0
7, 62064, Note_on_c, 5, 86, 100
7, 62088, Note_on_c, 5, 86, 0
7, 62112, Note_on_c, 5, 84, 100
7, 62136, Note_on_c, 5, 84, 0
7, 62160, Note_on_c, 5, 82, 105
7, 62184, Note_on_c, 5, 82, 0
7, 62208, Note_on_c, 5, 81, 100
7, 62232, Note_on_c, 5, 81, 0
7, 62256, Note_on_c, 5, 79, 100
7, 62280, Note_on_c, 5, 79, 0
7, 62304, Note_on_c, 5, 89, 105
7, 62328, Note_on_c, 5, 89, 0
7, 62352, Note_on_c, 5, 87, 100
7, 62376, Note_on_c, 5, 87, 0
7, 62400, Note_on_c, 5, 86, 100
7, 62424, Note_on_c, 5, 86, 0
7, 62448, Note_on_c, 5, 84, 105
7, 62472, Note_on_c, 5, 84, 0
7, 62496, Note_on_c, 5, 82, 100
7, 62520, Note_on_c, 5, 82, 0
7, 62544, Note_on_c, 5, 81, 100
7, 62568, Note_on_c, 5, 81, 0
7, 62592, Note_on_c, 5, 69, 105
7, 62616, Note_on_c, 5, 69, 0
7, 62640, Note_on_c, 5, 70, 100
7, 62664, Note_on_c, 5, 70, 0
7, 62688, Note_on_c, 5, 72, 100
7, 62712, Note_on_c, 5, 72, 0
7, 62736, Note_on_c, 5, 74, 105
7, 62760, Note_on_c, 5, 74, 0
7, 62784, Note_on_c, 5, 75, 100
7, 62808, Note_on_c, 5, 75, 0
7, 62832, Note_on_c, 5, 77, 100
7, 62856, Note_on_c, 5, 77, 0
7, 62880, Note_on_c, 5, 79, 105
7, 62904, Note_on_c, 5, 79, 0
7, 62928, Note_on_c, 5, 81, 100
7, 62952, Note_on_c, 5, 81, 0
7, 62976, Note_on_c, 5, 82, 100
7, 63000, Note_on_c, 5, 82, 0
7, 63024, Note_on_c, 5, 84, 105
7, 63048, Note_on_c, 5, 84, 0
7, 63072, Note_on_c, 5, 86, 100
7, 63096, Note_on_c, 5, 86, 0
7, 63120, Note_on_c, 5, 87, 100
7, 63144, Note_on_c, 5, 87, 0
7, 63168, Control_c, 5, 1, 0
7, 63168, Note_on_c, 5, 77, 100
7, 63168, Note_on_c, 5, 89, 100
7, 63169, Control_c, 5, 1, 1
7, 63170, Control_c, 5, 1, 2
7, 63171, Control_c, 5, 1, 3
7, 63172, Control_c, 5, 1, 4
7, 63174, Control_c, 5, 1, 5
7, 63176, Control_c, 5, 1, 6
7, 63177, Control_c, 5, 1, 7
7, 63179, Control_c, 5, 1, 8
7, 63181, Control_c, 5, 1, 9
7, 63184, Control_c, 5, 1, 10
7, 63186, Control_c, 5, 1, 11
7, 63189, Control_c, 5, 1, 12
7, 63192, Note_on_c, 5, 77, 0
7, 63192, Control_c, 5, 11, 60
7, 63192, Control_c, 5, 1, 13
7, 63195, Control_c, 5, 1, 14
7, 63199, Control_c, 5, 1, 15
7, 63204, Control_c, 5, 1, 16
7, 63209, Control_c, 5, 1, 17
7, 63217, Control_c, 5, 1, 18
7, 63227, Control_c, 5, 1, 19
7, 63245, Control_c, 5, 1, 20
7, 63456, Control_c, 5, 11, 60
7, 63476, Control_c, 5, 11, 61
7, 63495, Control_c, 5, 11, 62
7, 63514, Control_c, 5, 11, 63
7, 63533, Control_c, 5, 11, 64
7, 63552, Control_c, 5, 11, 65
7, 63571, Control_c, 5, 11, 66
7, 63591, Control_c, 5, 11, 67
7, 63600, Note_on_c, 5, 87, 100
7, 63601, Note_on_c, 5, 89, 0
7, 63610, Control_c, 5, 11, 68
7, 63629, Control_c, 5, 11, 69
7, 63648, Control_c, 5, 11, 70
7, 63667, Control_c, 5, 11, 71
7, 63686, Control_c, 5, 11, 72
7, 63706, Control_c, 5, 11, 73
7, 63725, Control_c, 5, 11, 74
7, 63744, Control_c, 5, 11, 75
7, 63763, Control_c, 5, 11, 76
7, 63782, Control_c, 5, 11, 77
7, 63801, Control_c, 5, 11, 78
7, 63821, Control_c, 5, 11, 79
7, 63840, Control_c, 5, 11, 80
7, 63859, Control_c, 5, 11, 81
7, 63878, Control_c, 5, 11, 82
7, 63888, Note_on_c, 5, 86, 100
7, 63889, Note_on_c, 5, 87, 0
7, 63897, Control_c, 5, 11, 83
7, 63916, Control_c, 5, 11, 84
7, 63936, Control_c, 5, 11, 85
7, 63955, Control_c, 5, 11, 86
7, 63974, Control_c, 5, 11, 87
7, 63993, Control_c, 5, 11, 88
7, 64012, Control_c, 5, 11, 89
7, 64031, Control_c, 5, 11, 90
7, 64032, Control_c, 5, 11, 90
7, 64032, Note_on_c, 5, 85, 100
7, 64033, Note_on_c, 5, 86, 0
7, 64042, Control_c, 5, 11, 89
7, 64052, Control_c, 5, 11, 88
7, 64061, Control_c, 5, 11, 87
7, 64071, Control_c, 5, 11, 86
7, 64080, Control_c, 5, 11, 85
7, 64090, Control_c, 5, 11, 84
7, 64099, Control_c, 5, 11, 83
7, 64109, Control_c, 5, 11, 82
7, 64119, Control_c, 5, 11, 81
7, 64128, Control_c, 5, 11, 80
7, 64138, Control_c, 5, 11, 79
7, 64147, Control_c, 5, 11, 78
7, 64157, Control_c, 5, 11, 77
7, 64166, Control_c, 5, 11, 76
7, 64176, Note_on_c, 5, 84, 100
7, 64176, Control_c, 5, 11, 75
7, 64177, Note_on_c, 5, 85, 0
7, 64186, Control_c, 5, 11, 74
7, 64195, Control_c, 5, 11, 73
7, 64205, Control_c, 5, 11, 72
7, 64214, Control_c, 5, 11, 71
7, 64224, Control_c, 5, 11, 70
7, 64233, Control_c, 5, 11, 69
7, 64243, Control_c, 5, 11, 68
7, 64253, Control_c, 5, 11, 67
7, 64262, Control_c, 5, 11, 66
7, 64272, Control_c, 5, 11, 65
7, 64281, Control_c, 5, 11, 64
7, 64291, Control_c, 5, 11, 63
7, 64300, Control_c, 5, 11, 62
7, 64310, Control_c, 5, 11, 61
7, 64319, Control_c, 5, 11, 60
7, 64320, Note_on_c, 5, 82, 100
7, 64321, Note_on_c, 5, 84, 0
7, 64344, Note_on_c, 5, 82, 0
7, 65040, Control_c, 5, 1, 0
7, 65040, Control_c, 5, 11, 60
7, 65040, Note_on_c, 5, 88, 100
7, 65041, Control_c, 5, 1, 1
7, 65042, Control_c, 5, 1, 2
7, 65043, Control_c, 5, 1, 3
7, 65044, Control_c, 5, 1, 4
7, 65046, Control_c, 5, 1, 5
7, 65048, Control_c, 5, 11, 61
7, 65048, Control_c, 5, 1, 6
7, 65049, Control_c, 5, 1, 7
7, 65051, Control_c, 5, 1, 8
7, 65053, Control_c, 5, 1, 9
7, 65055, Control_c, 5, 11, 62
7, 65056, Control_c, 5, 1, 10
7, 65058, Control_c, 5, 1, 11
7, 65061, Control_c, 5, 1, 12
7, 65062, Control_c, 5, 11, 63
7, 65064, Control_c, 5, 1, 13
7, 65067, Control_c, 5, 1, 14
7, 65069, Control_c, 5, 11, 64
7, 65071, Control_c, 5, 1, 15
7, 65076, Control_c, 5, 11, 65
7, 65076, Control_c, 5, 1, 16
7, 65081, Control_c, 5, 1, 17
7, 65084, Control_c, 5, 11, 66
7, 65089, Control_c, 5, 1, 18
7, 65091, Control_c, 5, 11, 67
7, 65098, Control_c, 5, 11, 68
7, 65099, Control_c, 5, 1, 19
7, 65105, Control_c, 5, 11, 69
7, 65112, Control_c, 5, 11, 70
7, 65117, Control_c, 5, 1, 20
7, 65119, Control_c, 5, 11, 71
7, 65127, Control_c, 5, 11, 72
7, 65134, Control_c, 5, 11, 73
7, 65141, Control_c, 5, 11, 74
7, 65148, Control_c, 5, 11, 75
7, 65155, Control_c, 5, 11, 76
7, 65162, Control_c, 5, 11, 77
7, 65170, Control_c, 5, 11, 78
7, 65177, Control_c, 5, 11, 79
7, 65184, Control_c, 5, 11, 80
7, 65191, Control_c, 5, 11, 81
7, 65198, Control_c, 5, 11, 82
7, 65206, Control_c, 5, 11, 83
7, 65213, Control_c, 5, 11, 84
7, 65220, Control_c, 5, 11, 85
7, 65227, Control_c, 5, 11, 86
7, 65234, Control_c, 5, 11, 87
7, 65241, Control_c, 5, 11, 88
7, 65249, Control_c, 5, 11, 89
7, 65256, Control_c, 5, 11, 90
7, 65263, Control_c, 5, 11, 91
7, 65270, Control_c, 5, 11, 92
7, 65277, Control_c, 5, 11, 93
7, 65284, Control_c, 5, 11, 94
7, 65292, Control_c, 5, 11, 95
7, 65299, Control_c, 5, 11, 96
7, 65306, Control_c, 5, 11, 97
7, 65313, Control_c, 5, 11, 98
7, 65320, Control_c, 5, 11, 99
7, 65327, Control_c, 5, 11, 100
7, 65328, Control_c, 5, 11, 100
7, 65328, Note_on_c, 5, 86, 100
7, 65329, Note_on_c, 5, 88, 0
7, 65339, Control_c, 5, 11, 99
7, 65350, Control_c, 5, 11, 98
7, 65361, Control_c, 5, 11, 97
7, 65372, Control_c, 5, 11, 96
7, 65382, Control_c, 5, 11, 95
7, 65393, Control_c, 5, 11, 94
7, 65404, Control_c, 5, 11, 93
7, 65415, Control_c, 5, 11, 92
7, 65425, Control_c, 5, 11, 91
7, 65436, Control_c, 5, 11, 90
7, 65447, Control_c, 5, 11, 89
7, 65458, Control_c, 5, 11, 88
7, 65469, Control_c, 5, 11, 87
7, 65479, Control_c, 5, 11, 86
7, 65490, Control_c, 5, 11, 85
7, 65501, Control_c, 5, 11, 84
7, 65512, Control_c, 5, 11, 83
7, 65522, Control_c, 5, 11, 82
7, 65533, Control_c, 5, 11, 81
7, 65544, Control_c, 5, 11, 80
7, 65555, Control_c, 5, 11, 79
7, 65566, Control_c, 5, 11, 78
7, 65576, Control_c, 5, 11, 77
7, 65587, Control_c, 5, 11, 76
7, 65598, Control_c, 5, 11, 75
7, 65609, Control_c, 5, 11, 74
7, 65616, Note_on_c, 5, 85, 100
7, 65617, Note_on_c, 5, 86, 0
7, 65619, Control_c, 5, 11, 73
7, 65630, Control_c, 5, 11, 72
7, 65641, Control_c, 5, 11, 71
7, 65652, Control_c, 5, 11, 70
7, 65663, Control_c, 5, 11, 69
7, 65673, Control_c, 5, 11, 68
7, 65684, Control_c, 5, 11, 67
7, 65695, Control_c, 5, 11, 66
7, 65706, Control_c, 5, 11, 65
7, 65716, Control_c, 5, 11, 64
7, 65727, Control_c, 5, 11, 63
7, 65738, Control_c, 5, 11, 62
7, 65749, Control_c, 5, 11, 61
7, 65759, Control_c, 5, 11, 60
7, 65760, Note_on_c, 5, 85, 0
7, 67056, Control_c, 5, 11, 60
7, 67056, Control_c, 5, 1, 0
7, 67056, Note_on_c, 5, 90, 100
7, 67057, Control_c, 5, 1, 1
7, 67058, Control_c, 5, 1, 2
7, 67059, Control_c, 5, 1, 3
7, 67061, Control_c, 5, 1, 4
7, 67062, Control_c, 5, 1, 5
7, 67064, Control_c, 5, 1, 6
7, 67066, Control_c, 5, 1, 7
7, 67068, Control_c, 5, 1, 8
7, 67070, Control_c, 5, 1, 9
7, 67072, Control_c, 5, 1, 10
7, 67073, Control_c, 5, 11, 61
7, 67075, Control_c, 5, 1, 11
7, 67078, Control_c, 5, 1, 12
7, 67081, Control_c, 5, 1, 13
7, 67085, Control_c, 5, 1, 14
7, 67089, Control_c, 5, 1, 15
7, 67090, Control_c, 5, 11, 62
7, 67094, Control_c, 5, 1, 16
7, 67100, Control_c, 5, 1, 17
7, 67107, Control_c, 5, 11, 63
7, 67107, Control_c, 5, 1, 18
7, 67118, Control_c, 5, 1, 19
7, 67124, Control_c, 5, 11, 64
7, 67137, Control_c, 5, 1, 20
7, 67140, Control_c, 5, 11, 65
7, 67157, Control_c, 5, 11, 66
7, 67174, Control_c, 5, 11, 67
7, 67191, Control_c, 5, 11, 68
7, 67200, Note_on_c, 5, 87, 100
7, 67208, Control_c, 5, 11, 69
7, 67224, Control_c, 5, 11, 70
7, 67241, Control_c, 5, 11, 71
7, 67258, Control_c, 5, 11, 72
7, 67275, Control_c, 5, 11, 73
7, 67291, Control_c, 5, 11, 74
7, 67308, Control_c, 5, 11, 75
7, 67325, Control_c, 5, 11, 76
7, 67342, Control_c, 5, 11, 77
7, 67344, Note_on_c, 5, 88, 100
7, 67344, Note_on_c, 5, 91, 100
7, 67345, Note_on_c, 5, 90, 0
7, 67345, Note_on_c, 5, 87, 0
7, 67359, Control_c, 5, 11, 78
7, 67375, Control_c, 5, 11, 79
7, 67392, Control_c, 5, 11, 80
7, 67409, Control_c, 5, 11, 81
7, 67426, Control_c, 5, 11, 82
7, 67443, Control_c, 5, 11, 83
7, 67459, Control_c, 5, 11, 84
7, 67476, Control_c, 5, 11, 85
7, 67488, Note_on_c, 5, 85, 100
7, 67489, Note_on_c, 5, 91, 0
7, 67493, Control_c, 5, 11, 86
7, 67510, Control_c, 5, 11, 87
7, 67526, Control_c, 5, 11, 88
7, 67543, Control_c, 5, 11, 89
7, 67560, Control_c, 5, 11, 90
7, 67577, Control_c, 5, 11, 91
7, 67594, Control_c, 5, 11, 92
7, 67610, Control_c, 5, 11, 93
7, 67627, Control_c, 5, 11, 94
7, 67632, Note_on_c, 5, 86, 100
7, 67632, Note_on_c, 5, 90, 100
7, 67633, Note_on_c, 5, 88, 0
7, 67633, Note_on_c, 5, 85, 0
7, 67644, Control_c, 5, 11, 95
7, 67661, Control_c, 5, 11, 96
7, 67677, Control_c, 5, 11, 97
7, 67694, Control_c, 5, 11, 98
7, 67711, Control_c, 5, 11, 99
7, 67728, Control_c, 5, 11, 100
7, 67745, Control_c, 5, 11, 101
7, 67761, Control_c, 5, 11, 102
7, 67776, Note_on_c, 5, 93, 100
7, 67777, Note_on_c, 5, 90, 0
7, 67778, Control_c, 5, 11, 103
7, 67795, Control_c, 5, 11, 104
7, 67812, Control_c, 5, 11, 105
7, 67829, Control_c, 5, 11, 106
7, 67845, Control_c, 5, 11, 107
7, 67862, Control_c, 5, 11, 108
7, 67879, Control_c, 5, 11, 109
7, 67896, Control_c, 5, 11, 110
7, 67912, Control_c, 5, 11, 111
7, 67920, Note_on_c, 5, 85, 100
7, 67921, Note_on_c, 5, 86, 0
7, 67929, Control_c, 5, 11, 112
7, 67946, Control_c, 5, 11, 113
7, 67963, Control_c, 5, 11, 114
7, 67980, Control_c, 5, 11, 115
7, 67996, Control_c, 5, 11, 116
7, 68013, Control_c, 5, 11, 117
7, 68016, Note_on_c, 5, 93, 0
7, 68016, Note_on_c, 5, 85, 0
7, 68016, Note_on_c, 5, 85, 100
7, 68030, Control_c, 5, 11, 118
7, 68047, Control_c, 5, 11, 119
7, 68063, Control_c, 5, 11, 120
7, 68064, Note_on_c, 5, 85, 0
7, 68064, Control_c, 5, 1, 0
7, 68064, Note_on_c, 5, 86, 113
7, 68160, Note_on_c, 5, 86, 0
7, 68160, Note_on_c, 5, 88, 111
7, 68184, Note_on_c, 5, 88, 0
7, 68184, Note_on_c, 5, 90, 112
7, 68208, Note_on_c, 5, 90, 0
7, 68208, Note_on_c, 5, 91, 113
7, 68232, Note_on_c, 5, 91, 0
7, 68304, Note_on_c, 5, 90, 110
7, 68328, Note_on_c, 5, 90, 0
7, 68352, Note_on_c, 5, 88, 113
7, 68376, Note_on_c, 5, 88, 0
7, 68448, Note_on_c, 5, 86, 110
7, 68472, Note_on_c, 5, 86, 0
7, 68496, Note_on_c, 5, 88, 113
7, 68520, Note_on_c, 5, 88, 0
7, 68592, Note_on_c, 5, 85, 110
7, 68616, Note_on_c, 5, 85, 0
7, 68640, Note_on_c, 5, 86, 113
7, 68640, Note_on_c, 5, 90, 113
7, 68736, Note_on_c, 5, 90, 0
7, 68736, Note_on_c, 5, 86, 0
7, 68736, Note_on_c, 5, 88, 110
7, 68736, Note_on_c, 5, 91, 110
7, 68760, Note_on_c, 5, 91, 0
7, 68760, Note_on_c, 5, 88, 0
7, 68760, Note_on_c, 5, 90, 111
7, 68760, Note_on_c, 5, 93, 111
7, 68784, Note_on_c, 5, 93, 0
7, 68784, Note_on_c, 5, 90, 0
7, 68784, Note_on_c, 5, 83, 113
7, 68808, Note_on_c, 5, 83, 0
7, 68880, Note_on_c, 5, 90, 110
7, 68880, Note_on_c, 5, 93, 110
7, 68904, Note_on_c, 5, 93, 0
7, 68904, Note_on_c, 5, 90, 0
7, 68928, Note_on_c, 5, 88, 113
7, 68928, Note_on_c, 5, 91, 113
7, 68952, Note_on_c, 5, 91, 0
7, 68952, Note_on_c, 5, 88, 0
7, 69024, Note_on_c, 5, 86, 110
7, 69024, Note_on_c, 5, 90, 110
7, 69048, Note_on_c, 5, 90, 0
7, 69048, Note_on_c, 5, 86, 0
7, 69072, Note_on_c, 5, 88, 113
7, 69072, Note_on_c, 5, 91, 113
7, 69096, Note_on_c, 5, 91, 0
7, 69096, Note_on_c, 5, 88, 0
7, 69168, Note_on_c, 5, 85, 110
7, 69168, Note_on_c, 5, 88, 110
7, 69192, Note_on_c, 5, 88, 0
7, 69192, Note_on_c, 5, 85, 0
7, 69216, Note_on_c, 5, 86, 113
7, 69240, Note_on_c, 5, 86, 0
7, 69264, Note_on_c, 5, 86, 110
7, 69312, Note_on_c, 5, 86, 0
7, 69312, Note_on_c, 5, 88, 111
7, 69336, Note_on_c, 5, 88, 0
7, 69336, Note_on_c, 5, 89, 112
7, 69360, Note_on_c, 5, 89, 0
7, 69360, Note_on_c, 5, 91, 113
7, 69384, Note_on_c, 5, 91, 0
7, 69408, Note_on_c, 5, 91, 111
7, 69432, Note_on_c, 5, 91, 0
7, 69456, Note_on_c, 5, 89, 111
7, 69480, Note_on_c, 5, 89, 0
7, 69504, Note_on_c, 5, 88, 113
7, 69528, Note_on_c, 5, 88, 0
7, 69552, Note_on_c, 5, 88, 111
7, 69576, Note_on_c, 5, 88, 0
7, 69600, Note_on_c, 5, 86, 111
7, 69624, Note_on_c, 5, 86, 0
7, 69648, Note_on_c, 5, 88, 113
7, 69672, Note_on_c, 5, 88, 0
7, 69696, Note_on_c, 5, 88, 111
7, 69720, Note_on_c, 5, 88, 0
7, 69744, Note_on_c, 5, 85, 111
7, 69768, Note_on_c, 5, 85, 0
7, 69792, Note_on_c, 5, 86, 113
7, 69792, Note_on_c, 5, 89, 113
7, 69816, Note_on_c, 5, 89, 0
7, 69816, Note_on_c, 5, 86, 0
7, 69840, Note_on_c, 5, 86, 110
7, 69840, Note_on_c, 5, 89, 110
7, 69888, Note_on_c, 5, 89, 0
7, 69888, Note_on_c, 5, 86, 0
7, 69888, Note_on_c, 5, 88, 111
7, 69888, Note_on_c, 5, 91, 111
7, 69912, Note_on_c, 5, 91, 0
7, 69912, Note_on_c, 5, 88, 0
7, 69912, Note_on_c, 5, 89, 112
7, 69912, Note_on_c, 5, 93, 112
7, 69936, Note_on_c, 5, 93, 0
7, 69936, Note_on_c, 5, 89, 0
7, 69936, Note_on_c, 5, 82, 113
7, 69960, Note_on_c, 5, 82, 0
7, 69984, Note_on_c, 5, 82, 110
7, 70008, Note_on_c, 5, 82, 0
7, 70032, Note_on_c, 5, 89, 110
7, 70032, Note_on_c, 5, 93, 110
7, 70056, Note_on_c, 5, 93, 0
7, 70056, Note_on_c, 5, 89, 0
7, 70080, Note_on_c, 5, 88, 113
7, 70080, Note_on_c, 5, 91, 113
7, 70104, Note_on_c, 5, 91, 0
7, 70104, Note_on_c, 5, 88, 0
7, 70128, Note_on_c, 5, 88, 110
7, 70128, Note_on_c, 5, 91, 110
7, 70152, Note_on_c, 5, 91, 0
7, 70152, Note_on_c, 5, 88, 0
7, 70176, Note_on_c, 5, 86, 110
7, 70176, Note_on_c, 5, 89, 110
7, 70200, Note_on_c, 5, 89, 0
7, 70200, Note_on_c, 5, 86, 0
7, 70224, Note_on_c, 5, 88, 113
7, 70224, Note_on_c, 5, 91, 113
7, 70248, Note_on_c, 5, 91, 0
7, 70248, Note_on_c, 5, 88, 0
7, 70272, Note_on_c, 5, 88, 110
7, 70272, Note_on_c, 5, 91, 110
7, 70296, Note_on_c, 5, 91, 0
7, 70296, Note_on_c, 5, 88, 0
7, 70320, Note_on_c, 5, 85, 110
7, 70320, Note_on_c, 5, 88, 110
7, 70344, Note_on_c, 5, 88, 0
7, 70344, Note_on_c, 5, 85, 0
7, 70368, Note_on_c, 5, 89, 116
7, 70403, Note_on_c, 5, 89, 0
7, 70440, Note_on_c, 5, 77, 113
7, 70452, Note_on_c, 5, 77, 0
7, 70464, Note_on_c, 5, 77, 113
7, 70488, Note_on_c, 5, 77, 0
7, 70512, Note_on_c, 5, 77, 116
7, 70512, Note_on_c, 5, 89, 116
7, 70536, Note_on_c, 5, 89, 0
7, 70536, Note_on_c, 5, 77, 0
7, 70560, Note_on_c, 5, 79, 113
7, 70560, Note_on_c, 5, 91, 113
7, 70584, Note_on_c, 5, 91, 0
7, 70584, Note_on_c, 5, 79, 0
7, 70608, Note_on_c, 5, 81, 113
7, 70608, Note_on_c, 5, 93, 113
7, 70632, Note_on_c, 5, 93, 0
7, 70632, Note_on_c, 5, 81, 0
7, 70656, Note_on_c, 5, 82, 116
7, 70680, Note_on_c, 5, 82, 0
7, 70944, Note_on_c, 5, 88, 116
7, 70979, Note_on_c, 5, 88, 0
7, 71016, Note_on_c, 5, 76, 113
7, 71028, Note_on_c, 5, 76, 0
7, 71040, Note_on_c, 5, 76, 113
7, 71064, Note_on_c, 5, 76, 0
7, 71088, Note_on_c, 5, 76, 116
7, 71088, Note_on_c, 5, 88, 116
7, 71112, Note_on_c, 5, 88, 0
7, 71112, Note_on_c, 5, 76, 0
7, 71136, Note_on_c, 5, 77, 113
7, 71136, Note_on_c, 5, 89, 113
7, 71160, Note_on_c, 5, 89, 0
7, 71160, Note_on_c, 5, 77, 0
7, 71184, Note_on_c, 5, 79, 113
7, 71184, Note_on_c, 5, 91, 113
7, 71208, Note_on_c, 5, 91, 0
7, 71208, Note_on_c, 5, 79, 0
7, 71232, Note_on_c, 5, 81, 116
7, 71256, Note_on_c, 5, 81, 0
7, 71376, Note_on_c, 5, 81, 113
7, 71400, Note_on_c, 5, 81, 0
7, 71424, Note_on_c, 5, 86, 113
7, 71448, Note_on_c, 5, 86, 0
7, 71472, Note_on_c, 5, 76, 113
7, 71472, Note_on_c, 5, 88, 113
7, 71496, Note_on_c, 5, 88, 0
7, 71496, Note_on_c, 5, 76, 0
7, 71520, Note_on_c, 5, 78, 60
7, 71520, Note_on_c, 5, 90, 60
7, 71544, Note_on_c, 5, 90, 0
7, 71544, Note_on_c, 5, 78, 0
7, 71808, Note_on_c, 5, 79, 60
7, 71808, Note_on_c, 5, 91, 60
7, 71832, Note_on_c, 5, 91, 0
7, 71832, Note_on_c, 5, 79, 0
7, 72384, Control_c, 5, 1, 0
7, 72384, Control_c, 5, 11, 60
7, 72384, Note_on_c, 5, 87, 100
7, 72384, Note_on_c, 5, 91, 100
7, 72385, Control_c, 5, 1, 1
7, 72386, Control_c, 5, 1, 2
7, 72387, Control_c, 5, 1, 3
7, 72388, Control_c, 5, 1, 4
7, 72390, Control_c, 5, 1, 5
7, 72392, Control_c, 5, 1, 6
7, 72393, Control_c, 5, 1, 7
7, 72394, Control_c, 5, 11, 61
7, 72395, Control_c, 5, 1, 8
7, 72397, Control_c, 5, 1, 9
7, 72400, Control_c, 5, 1, 10
7, 72402, Control_c, 5, 1, 11
7, 72404, Control_c, 5, 11, 62
7, 72405, Control_c, 5, 1, 12
7, 72408, Control_c, 5, 1, 13
7, 72411, Control_c, 5, 1, 14
7, 72413, Control_c, 5, 11, 63
7, 72415, Control_c, 5, 1, 15
7, 72420, Control_c, 5, 1, 16
7, 72423, Control_c, 5, 11, 64
7, 72425, Control_c, 5, 1, 17
7, 72432, Control_c, 5, 11, 65
7, 72433, Control_c, 5, 1, 18
7, 72442, Control_c, 5, 11, 66
7, 72443, Control_c, 5, 1, 19
7, 72452, Control_c, 5, 11, 67
7, 72461, Control_c, 5, 11, 68
7, 72461, Control_c, 5, 1, 20
7, 72471, Control_c, 5, 11, 69
7, 72480, Control_c, 5, 11, 70
7, 72490, Control_c, 5, 11, 71
7, 72499, Control_c, 5, 11, 72
7, 72509, Control_c, 5, 11, 73
7, 72519, Control_c, 5, 11, 74
7, 72527, Note_on_c, 5, 91, 0
7, 72527, Note_on_c, 5, 87, 0
7, 72528, Note_on_c, 5, 87, 100
7, 72528, Note_on_c, 5, 91, 100
7, 72528, Control_c, 5, 11, 75
7, 72538, Control_c, 5, 11, 76
7, 72547, Control_c, 5, 11, 77
7, 72557, Control_c, 5, 11, 78
7, 72567, Control_c, 5, 11, 79
7, 72576, Control_c, 5, 11, 80
7, 72586, Control_c, 5, 11, 81
7, 72595, Control_c, 5, 11, 82
7, 72605, Control_c, 5, 11, 83
7, 72614, Control_c, 5, 11, 84
7, 72624, Control_c, 5, 11, 85
7, 72634, Control_c, 5, 11, 86
7, 72643, Control_c, 5, 11, 87
7, 72653, Control_c, 5, 11, 88
7, 72662, Control_c, 5, 11, 89
7, 72671, Note_on_c, 5, 91, 0
7, 72671, Note_on_c, 5, 87, 0
7, 72672, Note_on_c, 5, 88, 100
7, 72672, Note_on_c, 5, 91, 100
7, 72672, Control_c, 5, 11, 90
7, 72682, Control_c, 5, 11, 91
7, 72691, Control_c, 5, 11, 92
7, 72701, Control_c, 5, 11, 93
7, 72710, Control_c, 5, 11, 94
7, 72720, Control_c, 5, 11, 95
7, 72729, Control_c, 5, 11, 96
7, 72739, Control_c, 5, 11, 97
7, 72749, Control_c, 5, 11, 98
7, 72758, Control_c, 5, 11, 99
7, 72768, Control_c, 5, 11, 100
7, 72777, Control_c, 5, 11, 101
7, 72787, Control_c, 5, 11, 102
7, 72797, Control_c, 5, 11, 103
7, 72806, Control_c, 5, 11, 104
7, 72816, Control_c, 5, 11, 105
7, 72825, Control_c, 5, 11, 106
7, 72835, Control_c, 5, 11, 107
7, 72844, Control_c, 5, 11, 108
7, 72854, Control_c, 5, 11, 109
7, 72864, Note_on_c, 5, 91, 0
7, 72864, Note_on_c, 5, 88, 0
7, 72864, Note_on_c, 5, 86, 100
7, 72864, Note_on_c, 5, 89, 100
7, 72864, Control_c, 5, 11, 110
7, 72873, Control_c, 5, 11, 111
7, 72883, Control_c, 5, 11, 112
7, 72892, Control_c, 5, 11, 113
7, 72902, Control_c, 5, 11, 114
7, 72912, Note_on_c, 5, 89, 0
7, 72912, Note_on_c, 5, 86, 0
7, 72912, Note_on_c, 5, 88, 100
7, 72912, Note_on_c, 5, 91, 100
7, 72912, Control_c, 5, 11, 115
7, 72921, Control_c, 5, 11, 116
7, 72931, Control_c, 5, 11, 117
7, 72940, Control_c, 5, 11, 118
7, 72950, Control_c, 5, 11, 119
7, 72959, Control_c, 5, 11, 120
7, 72960, Note_on_c, 5, 91, 0
7, 72960, Note_on_c, 5, 88, 0
7, 72960, Control_c, 5, 1, 0
7, 72960, Note_on_c, 5, 81, 105
7, 72960, Note_on_c, 5, 93, 105
7, 72984, Note_on_c, 5, 93, 0
7, 72984, Note_on_c, 5, 81, 0
7, 73008, Note_on_c, 5, 77, 100
7, 73008, Note_on_c, 5, 89, 100
7, 73032, Note_on_c, 5, 89, 0
7, 73032, Note_on_c, 5, 77, 0
7, 73056, Note_on_c, 5, 82, 100
7, 73080, Note_on_c, 5, 82, 0
7, 73104, Note_on_c, 5, 79, 105
7, 73104, Note_on_c, 5, 91, 105
7, 73128, Note_on_c, 5, 91, 0
7, 73128, Note_on_c, 5, 79, 0
7, 73152, Note_on_c, 5, 76, 100
7, 73152, Note_on_c, 5, 88, 100
7, 73176, Note_on_c, 5, 88, 0
7, 73176, Note_on_c, 5, 76, 0
7, 73200, Note_on_c, 5, 81, 100
7, 73200, Note_on_c, 5, 93, 100
7, 73224, Note_on_c, 5, 93, 0
7, 73224, Note_on_c, 5, 81, 0
7, 73248, Note_on_c, 5, 77, 105
7, 73248, Note_on_c, 5, 89, 105
7, 73272, Note_on_c, 5, 89, 0
7, 73272, Note_on_c, 5, 77, 0
7, 73536, Note_on_c, 5, 81, 105
7, 73536, Note_on_c, 5, 93, 105
7, 73560, Note_on_c, 5, 93, 0
7, 73560, Note_on_c, 5, 81, 0
7, 73584, Note_on_c, 5, 77, 100
7, 73584, Note_on_c, 5, 89, 100
7, 73608, Note_on_c, 5, 89, 0
7, 73608, Note_on_c, 5, 77, 0
7, 73632, Note_on_c, 5, 82, 100
7, 73656, Note_on_c, 5, 82, 0
7, 73680, Note_on_c, 5, 79, 105
7, 73680, Note_on_c, 5, 91, 105
7, 73704, Note_on_c, 5, 91, 0
7, 73704, Note_on_c, 5, 79, 0
7, 73728, Note_on_c, 5, 76, 100
7, 73728, Note_on_c, 5, 88, 100
7, 73752, Note_on_c, 5, 88, 0
7, 73752, Note_on_c, 5, 76, 0
7, 73776, Note_on_c, 5, 81, 100
7, 73776, Note_on_c, 5, 93, 100
7, 73800, Note_on_c, 5, 93, 0
7, 73800, Note_on_c, 5, 81, 0
7, 73824, Note_on_c, 5, 81, 105
7, 73824, Note_on_c, 5, 93, 105
7, 73848, Note_on_c, 5, 93, 0
7, 73848, Note_on_c, 5, 81, 0
7, 73872, Note_on_c, 5, 81, 100
7, 73872, Note_on_c, 5, 93, 100
7, 73896, Note_on_c, 5, 93, 0
7, 73896, Note_on_c, 5, 81, 0
7, 73920, Note_on_c, 5, 81, 100
7, 73920, Note_on_c, 5, 93, 100
7, 73944, Note_on_c, 5, 93, 0
7, 73944, Note_on_c, 5, 81, 0
7, 73968, Note_on_c, 5, 81, 105
7, 73968, Note_on_c, 5, 93, 105
7, 73992, Note_on_c, 5, 93, 0
7, 73992, Note_on_c, 5, 81, 0
7, 74016, Note_on_c, 5, 81, 100
7, 74016, Note_on_c, 5, 93, 100
7, 74040, Note_on_c, 5, 93, 0
7, 74040, Note_on_c, 5, 81, 0
7, 74064, Note_on_c, 5, 81, 100
7, 74064, Note_on_c, 5, 93, 100
7, 74088, Note_on_c, 5, 93, 0
7, 74088, Note_on_c, 5, 81, 0
7, 74112, Note_on_c, 5, 86, 105
7, 74112, Note_on_c, 5, 89, 105
7, 74136, Note_on_c, 5, 89, 0
7, 74136, Note_on_c, 5, 86, 0
7, 74160, Note_on_c, 5, 81, 100
7, 74160, Note_on_c, 5, 86, 100
7, 74184, Note_on_c, 5, 86, 0
7, 74184, Note_on_c, 5, 81, 0
7, 74208, Note_on_c, 5, 89, 100
7, 74208, Note_on_c, 5, 93, 100
7, 74232, Note_on_c, 5, 93, 0
7, 74232, Note_on_c, 5, 89, 0
7, 74256, Note_on_c, 5, 88, 105
7, 74256, Note_on_c, 5, 91, 105
7, 74280, Note_on_c, 5, 91, 0
7, 74280, Note_on_c, 5, 88, 0
7, 74304, Note_on_c, 5, 81, 100
7, 74304, Note_on_c, 5, 88, 100
7, 74328, Note_on_c, 5, 88, 0
7, 74328, Note_on_c, 5, 81, 0
7, 74352, Note_on_c, 5, 88, 100
7, 74352, Note_on_c, 5, 93, 100
7, 74376, Note_on_c, 5, 93, 0
7, 74376, Note_on_c, 5, 88, 0
7, 74400, Note_on_c, 5, 86, 105
7, 74400, Note_on_c, 5, 89, 105
7, 74424, Note_on_c, 5, 89, 0
7, 74424, Note_on_c, 5, 86, 0
7, 74448, Note_on_c, 5, 81, 100
7, 74448, Note_on_c, 5, 86, 100
7, 74472, Note_on_c, 5, 86, 0
7, 74472, Note_on_c, 5, 81, 0
7, 74496, Note_on_c, 5, 89, 100
7, 74496, Note_on_c, 5, 93, 100
7, 74520, Note_on_c, 5, 93, 0
7, 74520, Note_on_c, 5, 89, 0
7, 74544, Note_on_c, 5, 88, 105
7, 74544, Note_on_c, 5, 91, 105
7, 74568, Note_on_c, 5, 91, 0
7, 74568, Note_on_c, 5, 88, 0
7, 74592, Note_on_c, 5, 81, 100
7, 74592, Note_on_c, 5, 88, 100
7, 74616, Note_on_c, 5, 88, 0
7, 74616, Note_on_c, 5, 81, 0
7, 74640, Note_on_c, 5, 88, 100
7, 74640, Note_on_c, 5, 93, 100
7, 74664, Note_on_c, 5, 93, 0
7, 74664, Note_on_c, 5, 88, 0
7, 74688, Control_c, 5, 1, 0
7, 74688, Note_on_c, 5, 69, 44
7, 74689, Control_c, 5, 1, 2
7, 74690, Control_c, 5, 1, 3
7, 74691, Control_c, 5, 1, 4
7, 74692, Control_c, 5, 1, 5
7, 74693, Control_c, 5, 1, 6
7, 74694, Control_c, 5, 1, 7
7, 74696, Control_c, 5, 1, 8
7, 74697, Control_c, 5, 1, 9
7, 74699, Control_c, 5, 1, 10
7, 74700, Control_c, 5, 1, 11
7, 74702, Control_c, 5, 1, 12
7, 74704, Control_c, 5, 1, 13
7, 74706, Control_c, 5, 1, 14
7, 74709, Control_c, 5, 1, 15
7, 74712, Control_c, 5, 1, 16
7, 74716, Control_c, 5, 1, 17
7, 74720, Control_c, 5, 1, 18
7, 74727, Control_c, 5, 1, 19
7, 74736, Note_on_c, 5, 69, 0
7, 74736, Note_on_c, 5, 73, 48
7, 74739, Control_c, 5, 1, 20
7, 74784, Note_on_c, 5, 73, 0
7, 74784, Note_on_c, 5, 76, 51
7, 74832, Note_on_c, 5, 76, 0
7, 74832, Note_on_c, 5, 79, 54
7, 74880, Note_on_c, 5, 79, 0
7, 74880, Note_on_c, 5, 85, 60
7, 74928, Note_on_c, 5, 85, 0
7, 74928, Note_on_c, 5, 88, 63
7, 74976, Note_on_c, 5, 88, 0
7, 74976, Note_on_c, 5, 91, 66
7, 75168, Note_on_c, 5, 91, 0
7, 75168, Note_on_c, 5, 88, 63
7, 75216, Note_on_c, 5, 88, 0
7, 75216, Note_on_c, 5, 85, 60
7, 75264, Note_on_c, 5, 85, 0
7, 75264, Note_on_c, 5, 86, 50
7, 75312, Note_on_c, 5, 86, 0
7, 75408, Control_c, 5, 1, 0
7, 75408, Note_on_c, 5, 86, 55
7, 75443, Note_on_c, 5, 86, 0
7, 75480, Note_on_c, 5, 74, 50
7, 75492, Note_on_c, 5, 74, 0
7, 75504, Note_on_c, 5, 74, 50
7, 75528, Note_on_c, 5, 74, 0
7, 75552, Note_on_c, 5, 74, 50
7, 75576, Note_on_c, 5, 74, 0
7, 75696, Note_on_c, 5, 86, 55
7, 75731, Note_on_c, 5, 86, 0
7, 75768, Note_on_c, 5, 74, 50
7, 75780, Note_on_c, 5, 74, 0
7, 75792, Note_on_c, 5, 74, 50
7, 75816, Note_on_c, 5, 74, 0
7, 75840, Note_on_c, 5, 74, 50
7, 75864, Note_on_c, 5, 74, 0
7, 76560, Note_on_c, 5, 86, 55
7, 76595, Note_on_c, 5, 86, 0
7, 76632, Note_on_c, 5, 74, 50
7, 76644, Note_on_c, 5, 74, 0
7, 76656, Note_on_c, 5, 74, 50
7, 76680, Note_on_c, 5, 74, 0
7, 76704, Note_on_c, 5, 74, 55
7, 76728, Note_on_c, 5, 74, 0
7, 76848, Note_on_c, 5, 86, 50
7, 76883, Note_on_c, 5, 86, 0
7, 76920, Note_on_c, 5, 74, 50
7, 76932, Note_on_c, 5, 74, 0
7, 76944, Note_on_c, 5, 74, 50
7, 76968, Note_on_c, 5, 74, 0
7, 76992, Note_on_c, 5, 77, 50
7, 77016, Note_on_c, 5, 77, 0
7, 77136, Note_on_c, 5, 86, 55
7, 77171, Note_on_c, 5, 86, 0
7, 77208, Note_on_c, 5, 82, 50
7, 77220, Note_on_c, 5, 82, 0
7, 77232, Note_on_c, 5, 82, 50
7, 77256, Note_on_c, 5, 82, 0
7, 77280, Note_on_c, 5, 82, 50
7, 77304, Note_on_c, 5, 82, 0
7, 77424, Note_on_c, 5, 82, 55
7, 77459, Note_on_c, 5, 82, 0
7, 77496, Note_on_c, 5, 82, 50
7, 77508, Note_on_c, 5, 82, 0
7, 77520, Note_on_c, 5, 82, 50
7, 77544, Note_on_c, 5, 82, 0
7, 77568, Note_on_c, 5, 82, 50
7, 77592, Note_on_c, 5, 82, 0
7, 78288, Note_on_c, 5, 87, 60
7, 78323, Note_on_c, 5, 87, 0
7, 78360, Note_on_c, 5, 75, 61
7, 78372, Note_on_c, 5, 75, 0
7, 78384, Note_on_c, 5, 75, 62
7, 78408, Note_on_c, 5, 75, 0
7, 78432, Note_on_c, 5, 75, 63
7, 78456, Note_on_c, 5, 75, 0
7, 78576, Note_on_c, 5, 89, 66
7, 78611, Note_on_c, 5, 89, 0
7, 78648, Note_on_c, 5, 77, 68
7, 78660, Note_on_c, 5, 77, 0
7, 78672, Note_on_c, 5, 77, 69
7, 78696, Note_on_c, 5, 77, 0
7, 78720, Note_on_c, 5, 77, 70
7, 78744, Note_on_c, 5, 77, 0
7, 78864, Note_on_c, 5, 89, 73
7, 78899, Note_on_c, 5, 89, 0
7, 78936, Note_on_c, 5, 77, 75
7, 78948, Note_on_c, 5, 77, 0
7, 78960, Note_on_c, 5, 77, 75
7, 78984, Note_on_c, 5, 77, 0
7, 79008, Note_on_c, 5, 78, 76
7, 79032, Note_on_c, 5, 78, 0
7, 79152, Note_on_c, 5, 90, 80
7, 79187, Note_on_c, 5, 90, 0
7, 79224, Note_on_c, 5, 78, 81
7, 79236, Note_on_c, 5, 78, 0
7, 79248, Note_on_c, 5, 78, 82
7, 79272, Note_on_c, 5, 78, 0
7, 79296, Note_on_c, 5, 78, 83
7, 79320, Note_on_c, 5, 78, 0
7, 79440, Note_on_c, 5, 92, 87
7, 79475, Note_on_c, 5, 92, 0
7, 79512, Note_on_c, 5, 80, 88
7, 79524, Note_on_c, 5, 80, 0
7, 79536, Note_on_c, 5, 80, 89
7, 79560, Note_on_c, 5, 80, 0
7, 79584, Note_on_c, 5, 80, 90
7, 79608, Note_on_c, 5, 80, 0
7, 79728, Note_on_c, 5, 92, 93
7, 79763, Note_on_c, 5, 92, 0
7, 79800, Note_on_c, 5, 80, 95
7, 79812, Note_on_c, 5, 80, 0
7, 79824, Note_on_c, 5, 80, 96
7, 79848, Note_on_c, 5, 80, 0
7, 79872, Note_on_c, 5, 81, 100
7, 79896, Note_on_c, 5, 81, 0
7, 80016, Note_on_c, 5, 81, 100
7, 80016, Note_on_c, 5, 93, 100
7, 80051, Note_on_c, 5, 93, 0
7, 80051, Note_on_c, 5, 81, 0
7, 80088, Note_on_c, 5, 69, 100
7, 80088, Note_on_c, 5, 81, 100
7, 80100, Note_on_c, 5, 81, 0
7, 80100, Note_on_c, 5, 69, 0
7, 80112, Note_on_c, 5, 69, 100
7, 80112, Note_on_c, 5, 81, 100
7, 80136, Note_on_c, 5, 81, 0
7, 80136, Note_on_c, 5, 69, 0
7, 80304, Note_on_c, 5, 94, 113
7, 80339, Note_on_c, 5, 94, 0
7, 80376, Note_on_c, 5, 82, 113
7, 80388, Note_on_c, 5, 82, 0
7, 80400, Note_on_c, 5, 82, 113
7, 80424, Note_on_c, 5, 82, 0
7, 80592, Note_on_c, 5, 95, 113
7, 80627, Note_on_c, 5, 95, 0
7, 80664, Note_on_c, 5, 83, 113
7, 80676, Note_on_c, 5, 83, 0
7, 80688, Note_on_c, 5, 83, 113
7, 80760, Note_on_c, 5, 83, 0
7, 82080, Note_on_c, 5, 88, 75
7, 82115, Note_on_c, 5, 88, 0
7, 82152, Note_on_c, 5, 76, 70
7, 82164, Note_on_c, 5, 76, 0
7, 82176, Note_on_c, 5, 76, 70
7, 82200, Note_on_c, 5, 76, 0
7, 82224, Note_on_c, 5, 81, 65
7, 82248, Note_on_c, 5, 81, 0
7, 82272, Note_on_c, 5, 83, 60
7, 82296, Note_on_c, 5, 83, 0
7, 82320, Note_on_c, 5, 84, 60
7, 82344, Note_on_c, 5, 84, 0
7, 82368, Note_on_c, 5, 83, 65
7, 82392, Note_on_c, 5, 83, 0
7, 82416, Note_on_c, 5, 84, 60
7, 82440, Note_on_c, 5, 84, 0
7, 82464, Note_on_c, 5, 86, 60
7, 82488, Note_on_c, 5, 86, 0
7, 82512, Note_on_c, 5, 84, 65
7, 82536, Note_on_c, 5, 84, 0
7, 82560, Note_on_c, 5, 88, 60
7, 82584, Note_on_c, 5, 88, 0
7, 82608, Note_on_c, 5, 88, 60
7, 82632, Note_on_c, 5, 88, 0
7, 82656, Note_on_c, 5, 88, 65
7, 82680, Note_on_c, 5, 88, 0
7, 82704, Note_on_c, 5, 86, 60
7, 82728, Note_on_c, 5, 86, 0
7, 82752, Note_on_c, 5, 84, 60
7, 82776, Note_on_c, 5, 84, 0
7, 82800, Note_on_c, 5, 86, 65
7, 82824, Note_on_c, 5, 86, 0
7, 82848, Note_on_c, 5, 84, 60
7, 82872, Note_on_c, 5, 84, 0
7, 82896, Note_on_c, 5, 83, 60
7, 82920, Note_on_c, 5, 83, 0
7, 82944, Note_on_c, 5, 88, 65
7, 82979, Note_on_c, 5, 88, 0
7, 83016, Note_on_c, 5, 76, 60
7, 83028, Note_on_c, 5, 76, 0
7, 83040, Note_on_c, 5, 76, 60
7, 83064, Note_on_c, 5, 76, 0
7, 83088, Note_on_c, 5, 81, 65
7, 83112, Note_on_c, 5, 81, 0
7, 83136, Note_on_c, 5, 83, 60
7, 83160, Note_on_c, 5, 83, 0
7, 83184, Note_on_c, 5, 84, 60
7, 83208, Note_on_c, 5, 84, 0
7, 83232, Note_on_c, 5, 83, 65
7, 83256, Note_on_c, 5, 83, 0
7, 83280, Note_on_c, 5, 84, 60
7, 83304, Note_on_c, 5, 84, 0
7, 83328, Note_on_c, 5, 86, 60
7, 83352, Note_on_c, 5, 86, 0
7, 83520, Note_on_c, 5, 81, 65
7, 83544, Note_on_c, 5, 81, 0
7, 83568, Note_on_c, 5, 82, 60
7, 83592, Note_on_c, 5, 82, 0
7, 83616, Note_on_c, 5, 84, 60
7, 83640, Note_on_c, 5, 84, 0
7, 83664, Note_on_c, 5, 82, 65
7, 83688, Note_on_c, 5, 82, 0
7, 83712, Note_on_c, 5, 84, 60
7, 83736, Note_on_c, 5, 84, 0
7, 83760, Note_on_c, 5, 86, 60
7, 83784, Note_on_c, 5, 86, 0
7, 83952, Note_on_c, 5, 84, 65
7, 83976, Note_on_c, 5, 84, 0
7, 84000, Note_on_c, 5, 88, 60
7, 84024, Note_on_c, 5, 88, 0
7, 84048, Note_on_c, 5, 89, 60
7, 84072, Note_on_c, 5, 89, 0
7, 84096, Note_on_c, 5, 88, 65
7, 84120, Note_on_c, 5, 88, 0
7, 84144, Note_on_c, 5, 89, 60
7, 84168, Note_on_c, 5, 89, 0
7, 84192, Note_on_c, 5, 91, 60
7, 84216, Note_on_c, 5, 91, 0
7, 84384, Note_on_c, 5, 77, 65
7, 84384, Note_on_c, 5, 89, 65
7, 84408, Note_on_c, 5, 89, 0
7, 84408, Note_on_c, 5, 77, 0
7, 84432, Note_on_c, 5, 77, 60
7, 84432, Note_on_c, 5, 89, 60
7, 84456, Note_on_c, 5, 89, 0
7, 84456, Note_on_c, 5, 77, 0
7, 84480, Note_on_c, 5, 77, 60
7, 84480, Note_on_c, 5, 89, 60
7, 84504, Note_on_c, 5, 89, 0
7, 84504, Note_on_c, 5, 77, 0
7, 84528, Note_on_c, 5, 77, 65
7, 84528, Note_on_c, 5, 89, 65
7, 84552, Note_on_c, 5, 89, 0
7, 84552, Note_on_c, 5, 77, 0
7, 84576, Note_on_c, 5, 77, 60
7, 84576, Note_on_c, 5, 89, 60
7, 84600, Note_on_c, 5, 89, 0
7, 84600, Note_on_c, 5, 77, 0
7, 84624, Note_on_c, 5, 77, 60
7, 84624, Note_on_c, 5, 89, 60
7, 84648, Note_on_c, 5, 89, 0
7, 84648, Note_on_c, 5, 77, 0
7, 84816, Note_on_c, 5, 84, 65
7, 84816, Note_on_c, 5, 93, 65
7, 84840, Note_on_c, 5, 93, 0
7, 84840, Note_on_c, 5, 84, 0
7, 84864, Note_on_c, 5, 84, 60
7, 84864, Note_on_c, 5, 91, 60
7, 84888, Note_on_c, 5, 91, 0
7, 84888, Note_on_c, 5, 84, 0
7, 84912, Note_on_c, 5, 84, 60
7, 84912, Note_on_c, 5, 89, 60
7, 84936, Note_on_c, 5, 89, 0
7, 84936, Note_on_c, 5, 84, 0
7, 84960, Note_on_c, 5, 84, 65
7, 84960, Note_on_c, 5, 91, 65
7, 84984, Note_on_c, 5, 91, 0
7, 84984, Note_on_c, 5, 84, 0
7, 85008, Note_on_c, 5, 84, 60
7, 85008, Note_on_c, 5, 89, 60
7, 85032, Note_on_c, 5, 89, 0
7, 85032, Note_on_c, 5, 84, 0
7, 85056, Note_on_c, 5, 84, 60
7, 85056, Note_on_c, 5, 88, 60
7, 85080, Note_on_c, 5, 88, 0
7, 85080, Note_on_c, 5, 84, 0
7, 85104, Note_on_c, 5, 84, 65
7, 85104, Note_on_c, 5, 89, 65
7, 85128, Note_on_c, 5, 89, 0
7, 85128, Note_on_c, 5, 84, 0
7, 85152, Note_on_c, 5, 84, 60
7, 85152, Note_on_c, 5, 91, 60
7, 85176, Note_on_c, 5, 91, 0
7, 85176, Note_on_c, 5, 84, 0
7, 85200, Note_on_c, 5, 84, 60
7, 85200, Note_on_c, 5, 93, 60
7, 85224, Note_on_c, 5, 93, 0
7, 85224, Note_on_c, 5, 84, 0
7, 85248, Note_on_c, 5, 84, 65
7, 85248, Note_on_c, 5, 93, 65
7, 85272, Note_on_c, 5, 93, 0
7, 85272, Note_on_c, 5, 84, 0
7, 85296, Note_on_c, 5, 84, 60
7, 85296, Note_on_c, 5, 91, 60
7, 85320, Note_on_c, 5, 91, 0
7, 85320, Note_on_c, 5, 84, 0
7, 85344, Note_on_c, 5, 84, 60
7, 85344, Note_on_c, 5, 89, 60
7, 85368, Note_on_c, 5, 89, 0
7, 85368, Note_on_c, 5, 84, 0
7, 85392, Note_on_c, 5, 84, 65
7, 85392, Note_on_c, 5, 89, 65
7, 85416, Note_on_c, 5, 89, 0
7, 85416, Note_on_c, 5, 84, 0
7, 85440, Note_on_c, 5, 84, 60
7, 85440, Note_on_c, 5, 91, 60
7, 85464, Note_on_c, 5, 91, 0
7, 85464, Note_on_c, 5, 84, 0
7, 85488, Note_on_c, 5, 84, 60
7, 85488, Note_on_c, 5, 89, 60
7, 85512, Note_on_c, 5, 89, 0
7, 85512, Note_on_c, 5, 84, 0
7, 85680, Note_on_c, 5, 84, 55
7, 85715, Note_on_c, 5, 84, 0
7, 85752, Note_on_c, 5, 72, 50
7, 85764, Note_on_c, 5, 72, 0
7, 85776, Note_on_c, 5, 72, 50
7, 85800, Note_on_c, 5, 72, 0
7, 85968, Note_on_c, 5, 81, 55
7, 85968, Note_on_c, 5, 86, 55
7, 85992, Note_on_c, 5, 86, 0
7, 85992, Note_on_c, 5, 81, 0
7, 86016, Note_on_c, 5, 81, 50
7, 86016, Note_on_c, 5, 88, 50
7, 86040, Note_on_c, 5, 88, 0
7, 86040, Note_on_c, 5, 81, 0
7, 86064, Note_on_c, 5, 81, 50
7, 86064, Note_on_c, 5, 89, 50
7, 86088, Note_on_c, 5, 89, 0
7, 86088, Note_on_c, 5, 81, 0
7, 86112, Note_on_c, 5, 81, 55
7, 86112, Note_on_c, 5, 89, 55
7, 86136, Note_on_c, 5, 89, 0
7, 86136, Note_on_c, 5, 81, 0
7, 86160, Note_on_c, 5, 81, 50
7, 86160, Note_on_c, 5, 88, 50
7, 86184, Note_on_c, 5, 88, 0
7, 86184, Note_on_c, 5, 81, 0
7, 86208, Note_on_c, 5, 81, 50
7, 86208, Note_on_c, 5, 86, 50
7, 86232, Note_on_c, 5, 86, 0
7, 86232, Note_on_c, 5, 81, 0
7, 86256, Note_on_c, 5, 81, 55
7, 86256, Note_on_c, 5, 86, 55
7, 86280, Note_on_c, 5, 86, 0
7, 86280, Note_on_c, 5, 81, 0
7, 86304, Note_on_c, 5, 81, 50
7, 86304, Note_on_c, 5, 88, 50
7, 86328, Note_on_c, 5, 88, 0
7, 86328, Note_on_c, 5, 81, 0
7, 86352, Note_on_c, 5, 81, 50
7, 86352, Note_on_c, 5, 86, 50
7, 86376, Note_on_c, 5, 86, 0
7, 86376, Note_on_c, 5, 81, 0
7, 86832, Note_on_c, 5, 81, 55
7, 86832, Note_on_c, 5, 86, 55
7, 86856, Note_on_c, 5, 86, 0
7, 86856, Note_on_c, 5, 81, 0
7, 86880, Note_on_c, 5, 81, 50
7, 86880, Note_on_c, 5, 88, 50
7, 86904, Note_on_c, 5, 88, 0
7, 86904, Note_on_c, 5, 81, 0
7, 86928, Note_on_c, 5, 81, 50
7, 86928, Note_on_c, 5, 89, 50
7, 86952, Note_on_c, 5, 89, 0
7, 86952, Note_on_c, 5, 81, 0
7, 86976, Note_on_c, 5, 81, 55
7, 86976, Note_on_c, 5, 89, 55
7, 87000, Note_on_c, 5, 89, 0
7, 87000, Note_on_c, 5, 81, 0
7, 87024, Note_on_c, 5, 81, 50
7, 87024, Note_on_c, 5, 88, 50
7, 87048, Note_on_c, 5, 88, 0
7, 87048, Note_on_c, 5, 81, 0
7, 87072, Note_on_c, 5, 81, 50
7, 87072, Note_on_c, 5, 86, 50
7, 87096, Note_on_c, 5, 86, 0
7, 87096, Note_on_c, 5, 81, 0
7, 87120, Note_on_c, 5, 81, 55
7, 87120, Note_on_c, 5, 86, 55
7, 87144, Note_on_c, 5, 86, 0
7, 87144, Note_on_c, 5, 81, 0
7, 87168, Note_on_c, 5, 81, 50
7, 87168, Note_on_c, 5, 88, 50
7, 87192, Note_on_c, 5, 88, 0
7, 87192, Note_on_c, 5, 81, 0
7, 87216, Note_on_c, 5, 81, 50
7, 87216, Note_on_c, 5, 86, 50
7, 87240, Note_on_c, 5, 86, 0
7, 87240, Note_on_c, 5, 81, 0
7, 88176, Note_on_c, 5, 81, 50
7, 88200, Note_on_c, 5, 81, 0
7, 88224, Note_on_c, 5, 81, 50
7, 88248, Note_on_c, 5, 81, 0
7, 88272, Note_on_c, 5, 81, 55
7, 88296, Note_on_c, 5, 81, 0
7, 88320, Note_on_c, 5, 81, 50
7, 88344, Note_on_c, 5, 81, 0
7, 88368, Note_on_c, 5, 81, 50
7, 88392, Note_on_c, 5, 81, 0
7, 88416, Note_on_c, 5, 81, 55
7, 88440, Note_on_c, 5, 81, 0
7, 88464, Note_on_c, 5, 81, 50
7, 88488, Note_on_c, 5, 81, 0
7, 88512, Note_on_c, 5, 81, 50
7, 88536, Note_on_c, 5, 81, 0
7, 88560, Note_on_c, 5, 93, 55
7, 88595, Note_on_c, 5, 93, 0
7, 88632, Note_on_c, 5, 81, 50
7, 88644, Note_on_c, 5, 81, 0
7, 88656, Note_on_c, 5, 81, 50
7, 88680, Note_on_c, 5, 81, 0
7, 88704, Note_on_c, 5, 86, 55
7, 88728, Note_on_c, 5, 86, 0
7, 88752, Note_on_c, 5, 88, 50
7, 88776, Note_on_c, 5, 88, 0
7, 88800, Note_on_c, 5, 89, 50
7, 88824, Note_on_c, 5, 89, 0
7, 88848, Note_on_c, 5, 88, 55
7, 88872, Note_on_c, 5, 88, 0
7, 88896, Note_on_c, 5, 89, 50
7, 88920, Note_on_c, 5, 89, 0
7, 88944, Note_on_c, 5, 91, 50
7, 88968, Note_on_c, 5, 91, 0
7, 88992, Note_on_c, 5, 89, 55
7, 89016, Note_on_c, 5, 89, 0
7, 89040, Note_on_c, 5, 93, 50
7, 89064, Note_on_c, 5, 93, 0
7, 89088, Note_on_c, 5, 93, 50
7, 89112, Note_on_c, 5, 93, 0
7, 89136, Note_on_c, 5, 93, 55
7, 89160, Note_on_c, 5, 93, 0
7, 89184, Note_on_c, 5, 91, 50
7, 89208, Note_on_c, 5, 91, 0
7, 89232, Note_on_c, 5, 89, 50
7, 89256, Note_on_c, 5, 89, 0
7, 89280, Note_on_c, 5, 91, 55
7, 89304, Note_on_c, 5, 91, 0
7, 89328, Note_on_c, 5, 89, 50
7, 89352, Note_on_c, 5, 89, 0
7, 89376, Note_on_c, 5, 88, 50
7, 89400, Note_on_c, 5, 88, 0
7, 89424, Note_on_c, 5, 86, 55
7, 89448, Note_on_c, 5, 86, 0
7, 89472, Note_on_c, 5, 85, 50
7, 89496, Note_on_c, 5, 85, 0
7, 89520, Note_on_c, 5, 86, 50
7, 89544, Note_on_c, 5, 86, 0
7, 89568, Note_on_c, 5, 86, 55
7, 89592, Note_on_c, 5, 86, 0
7, 89616, Note_on_c, 5, 91, 50
7, 89640, Note_on_c, 5, 91, 0
7, 89664, Note_on_c, 5, 91, 50
7, 89688, Note_on_c, 5, 91, 0
7, 89712, Note_on_c, 5, 91, 55
7, 89736, Note_on_c, 5, 91, 0
7, 89760, Note_on_c, 5, 91, 50
7, 89784, Note_on_c, 5, 91, 0
7, 89808, Note_on_c, 5, 91, 50
7, 89832, Note_on_c, 5, 91, 0
7, 89856, Note_on_c, 5, 91, 55
7, 89880, Note_on_c, 5, 91, 0
7, 89904, Note_on_c, 5, 91, 50
7, 89928, Note_on_c, 5, 91, 0
7, 89952, Note_on_c, 5, 91, 50
7, 89976, Note_on_c, 5, 91, 0
7, 90000, Note_on_c, 5, 91, 55
7, 90024, Note_on_c, 5, 91, 0
7, 90048, Note_on_c, 5, 91, 50
7, 90072, Note_on_c, 5, 91, 0
7, 90096, Note_on_c, 5, 91, 50
7, 90120, Note_on_c, 5, 91, 0
7, 90144, Note_on_c, 5, 86, 55
7, 90168, Note_on_c, 5, 86, 0
7, 90192, Note_on_c, 5, 82, 50
7, 90216, Note_on_c, 5, 82, 0
7, 90240, Note_on_c, 5, 82, 50
7, 90264, Note_on_c, 5, 82, 0
7, 90288, Note_on_c, 5, 82, 55
7, 90312, Note_on_c, 5, 82, 0
7, 90336, Note_on_c, 5, 86, 50
7, 90360, Note_on_c, 5, 86, 0
7, 90384, Note_on_c, 5, 87, 50
7, 90408, Note_on_c, 5, 87, 0
7, 90432, Note_on_c, 5, 86, 55
7, 90456, Note_on_c, 5, 86, 0
7, 90480, Note_on_c, 5, 87, 50
7, 90504, Note_on_c, 5, 87, 0
7, 90528, Note_on_c, 5, 89, 50
7, 90552, Note_on_c, 5, 89, 0
7, 90576, Note_on_c, 5, 87, 55
7, 90600, Note_on_c, 5, 87, 0
7, 90624, Note_on_c, 5, 86, 50
7, 90648, Note_on_c, 5, 86, 0
7, 90672, Note_on_c, 5, 87, 50
7, 90696, Note_on_c, 5, 87, 0
7, 90720, Note_on_c, 5, 89, 55
7, 90744, Note_on_c, 5, 89, 0
7, 90768, Note_on_c, 5, 91, 50
7, 90792, Note_on_c, 5, 91, 0
7, 90816, Note_on_c, 5, 92, 50
7, 90840, Note_on_c, 5, 92, 0
7, 90864, Note_on_c, 5, 91, 55
7, 90888, Note_on_c, 5, 91, 0
7, 90912, Note_on_c, 5, 89, 50
7, 90936, Note_on_c, 5, 89, 0
7, 90960, Note_on_c, 5, 87, 50
7, 90984, Note_on_c, 5, 87, 0
7, 91008, Note_on_c, 5, 86, 50
7, 91008, Note_on_c, 5, 92, 50
7, 91032, Note_on_c, 5, 92, 0
7, 91032, Note_on_c, 5, 86, 0
7, 91584, Note_on_c, 5, 87, 50
7, 91584, Note_on_c, 5, 91, 50
7, 91608, Note_on_c, 5, 91, 0
7, 91608, Note_on_c, 5, 87, 0
7, 91728, Note_on_c, 5, 87, 50
7, 91728, Note_on_c, 5, 91, 50
7, 91752, Note_on_c, 5, 91, 0
7, 91752, Note_on_c, 5, 87, 0
7, 91872, Note_on_c, 5, 87, 50
7, 91872, Note_on_c, 5, 91, 50
7, 91896, Note_on_c, 5, 91, 0
7, 91896, Note_on_c, 5, 87, 0
7, 92016, Note_on_c, 5, 87, 50
7, 92016, Note_on_c, 5, 91, 50
7, 92040, Note_on_c, 5, 91, 0
7, 92040, Note_on_c, 5, 87, 0
7, 92160, Note_on_c, 5, 89, 50
7, 92160, Note_on_c, 5, 92, 50
7, 92184, Note_on_c, 5, 92, 0
7, 92184, Note_on_c, 5, 89, 0
7, 92736, Note_on_c, 5, 89, 77
7, 92736, Note_on_c, 5, 93, 77
7, 92760, Note_on_c, 5, 93, 0
7, 92760, Note_on_c, 5, 89, 0
7, 93024, Note_on_c, 5, 81, 90
7, 93024, Note_on_c, 5, 86, 90
7, 93048, Note_on_c, 5, 86, 0
7, 93048, Note_on_c, 5, 81, 0
7, 93312, Note_on_c, 5, 86, 120
7, 93312, Note_on_c, 5, 89, 120
7, 93342, Note_on_c, 5, 89, 0
7, 93342, Note_on_c, 5, 86, 0
7, 93600, Note_on_c, 5, 89, 120
7, 93600, Note_on_c, 5, 93, 120
7, 93630, Note_on_c, 5, 93, 0
7, 93630, Note_on_c, 5, 89, 0
7, 93888, Note_on_c, 5, 81, 125
7, 93888, Note_on_c, 5, 93, 125
7, 93923, Note_on_c, 5, 93, 0
7, 93923, Note_on_c, 5, 81, 0
7, 93960, Note_on_c, 5, 69, 115
7, 93960, Note_on_c, 5, 81, 115
7, 93972, Note_on_c, 5, 81, 0
7, 93972, Note_on_c, 5, 69, 0
7, 93984, Note_on_c, 5, 69, 115
7, 93984, Note_on_c, 5, 81, 115
7, 94008, Note_on_c, 5, 81, 0
7, 94008, Note_on_c, 5, 69, 0
7, 94032, Note_on_c, 5, 81, 125
7, 94032, Note_on_c, 5, 93, 125
7, 94067, Note_on_c, 5, 93, 0
7, 94067, Note_on_c, 5, 81, 0
7, 94104, Note_on_c, 5, 69, 115
7, 94104, Note_on_c, 5, 81, 115
7, 94116, Note_on_c, 5, 81, 0
7, 94116, Note_on_c, 5, 69, 0
7, 94128, Note_on_c, 5, 69, 115
7, 94128, Note_on_c, 5, 81, 115
7, 94152, Note_on_c, 5, 81, 0
7, 94152, Note_on_c, 5, 69, 0
7, 94176, Note_on_c, 5, 81, 125
7, 94176, Note_on_c, 5, 93, 125
7, 94211, Note_on_c, 5, 93, 0
7, 94211, Note_on_c, 5, 81, 0
7, 94248, Note_on_c, 5, 69, 115
7, 94248, Note_on_c, 5, 81, 115
7, 94260, Note_on_c, 5, 81, 0
7, 94260, Note_on_c, 5, 69, 0
7, 94272, Note_on_c, 5, 69, 115
7, 94272, Note_on_c, 5, 81, 115
7, 94296, Note_on_c, 5, 81, 0
7, 94296, Note_on_c, 5, 69, 0
7, 94320, Note_on_c, 5, 81, 125
7, 94320, Note_on_c, 5, 93, 125
7, 94355, Note_on_c, 5, 93, 0
7, 94355, Note_on_c, 5, 81, 0
7, 94392, Note_on_c, 5, 69, 115
7, 94392, Note_on_c, 5, 81, 115
7, 94404, Note_on_c, 5, 81, 0
7, 94404, Note_on_c, 5, 69, 0
7, 94416, Note_on_c, 5, 69, 115
7, 94416, Note_on_c, 5, 81, 115
7, 94440, Note_on_c, 5, 81, 0
7, 94440, Note_on_c, 5, 69, 0
7, 94464, Note_on_c, 5, 81, 125
7, 94464, Note_on_c, 5, 93, 125
7, 94499, Note_on_c, 5, 93, 0
7, 94499, Note_on_c, 5, 81, 0
7, 94536, Note_on_c, 5, 69, 115
7, 94536, Note_on_c, 5, 81, 115
7, 94548, Note_on_c, 5, 81, 0
7, 94548, Note_on_c, 5, 69, 0
7, 94560, Note_on_c, 5, 69, 115
7, 94560, Note_on_c, 5, 81, 115
7, 94584, Note_on_c, 5, 81, 0
7, 94584, Note_on_c, 5, 69, 0
7, 94608, Note_on_c, 5, 74, 120
7, 94608, Note_on_c, 5, 86, 120
7, 94632, Note_on_c, 5, 86, 0
7, 94632, Note_on_c, 5, 74, 0
7, 94656, Note_on_c, 5, 76, 115
7, 94656, Note_on_c, 5, 88, 115
7, 94680, Note_on_c, 5, 88, 0
7, 94680, Note_on_c, 5, 76, 0
7, 94704, Note_on_c, 5, 77, 115
7, 94704, Note_on_c, 5, 89, 115
7, 94728, Note_on_c, 5, 89, 0
7, 94728, Note_on_c, 5, 77, 0
7, 94752, Note_on_c, 5, 76, 120
7, 94752, Note_on_c, 5, 88, 120
7, 94776, Note_on_c, 5, 88, 0
7, 94776, Note_on_c, 5, 76, 0
7, 94800, Note_on_c, 5, 77, 115
7, 94800, Note_on_c, 5, 89, 115
7, 94824, Note_on_c, 5, 89, 0
7, 94824, Note_on_c, 5, 77, 0
7, 94848, Note_on_c, 5, 79, 115
7, 94848, Note_on_c, 5, 91, 115
7, 94872, Note_on_c, 5, 91, 0
7, 94872, Note_on_c, 5, 79, 0
7, 94896, Note_on_c, 5, 77, 120
7, 94896, Note_on_c, 5, 89, 120
7, 94920, Note_on_c, 5, 89, 0
7, 94920, Note_on_c, 5, 77, 0
7, 94944, Note_on_c, 5, 76, 115
7, 94944, Note_on_c, 5, 88, 115
7, 94968, Note_on_c, 5, 88, 0
7, 94968, Note_on_c, 5, 76, 0
7, 94992, Note_on_c, 5, 74, 115
7, 94992, Note_on_c, 5, 86, 115
7, 95016, Note_on_c, 5, 86, 0
7, 95016, Note_on_c, 5, 74, 0
7, 95040, Note_on_c, 5, 82, 120
7, 95064, Note_on_c, 5, 82, 0
7, 95088, Note_on_c, 5, 81, 115
7, 95088, Note_on_c, 5, 93, 115
7, 95112, Note_on_c, 5, 93, 0
7, 95112, Note_on_c, 5, 81, 0
7, 95136, Note_on_c, 5, 79, 115
7, 95136, Note_on_c, 5, 91, 115
7, 95160, Note_on_c, 5, 91, 0
7, 95160, Note_on_c, 5, 79, 0
7, 95184, Note_on_c, 5, 77, 120
7, 95184, Note_on_c, 5, 89, 120
7, 95208, Note_on_c, 5, 89, 0
7, 95208, Note_on_c, 5, 77, 0
7, 95232, Note_on_c, 5, 76, 115
7, 95232, Note_on_c, 5, 88, 115
7, 95256, Note_on_c, 5, 88, 0
7, 95256, Note_on_c, 5, 76, 0
7, 95280, Note_on_c, 5, 74, 115
7, 95280, Note_on_c, 5, 86, 115
7, 95304, Note_on_c, 5, 86, 0
7, 95304, Note_on_c, 5, 74, 0
7, 95328, Note_on_c, 5, 73, 120
7, 95328, Note_on_c, 5, 85, 120
7, 95352, Note_on_c, 5, 85, 0
7, 95352, Note_on_c, 5, 73, 0
7, 95376, Note_on_c, 5, 74, 115
7, 95376, Note_on_c, 5, 86, 115
7, 95400, Note_on_c, 5, 86, 0
7, 95400, Note_on_c, 5, 74, 0
7, 95424, Note_on_c, 5, 76, 115
7, 95424, Note_on_c, 5, 88, 115
7, 95448, Note_on_c, 5, 88, 0
7, 95448, Note_on_c, 5, 76, 0
7, 95472, Note_on_c, 5, 74, 120
7, 95472, Note_on_c, 5, 86, 120
7, 95496, Note_on_c, 5, 86, 0
7, 95496, Note_on_c, 5, 74, 0
7, 95520, Note_on_c, 5, 73, 115
7, 95520, Note_on_c, 5, 85, 115
7, 95544, Note_on_c, 5, 85, 0
7, 95544, Note_on_c, 5, 73, 0
7, 95568, Note_on_c, 5, 74, 115
7, 95568, Note_on_c, 5, 86, 115
7, 95592, Note_on_c, 5, 86, 0
7, 95592, Note_on_c, 5, 74, 0
7, 95616, Note_on_c, 5, 82, 120
7, 95640, Note_on_c, 5, 82, 0
7, 95664, Note_on_c, 5, 81, 115
7, 95664, Note_on_c, 5, 93, 115
7, 95688, Note_on_c, 5, 93, 0
7, 95688, Note_on_c, 5, 81, 0
7, 95712, Note_on_c, 5, 79, 115
7, 95712, Note_on_c, 5, 91, 115
7, 95736, Note_on_c, 5, 91, 0
7, 95736, Note_on_c, 5, 79, 0
7, 95760, Note_on_c, 5, 77, 120
7, 95760, Note_on_c, 5, 89, 120
7, 95784, Note_on_c, 5, 89, 0
7, 95784, Note_on_c, 5, 77, 0
7, 95808, Note_on_c, 5, 76, 115
7, 95808, Note_on_c, 5, 88, 115
7, 95832, Note_on_c, 5, 88, 0
7, 95832, Note_on_c, 5, 76, 0
7, 95856, Note_on_c, 5, 74, 115
7, 95856, Note_on_c, 5, 86, 115
7, 95880, Note_on_c, 5, 86, 0
7, 95880, Note_on_c, 5, 74, 0
7, 95904, Note_on_c, 5, 73, 120
7, 95904, Note_on_c, 5, 85, 120
7, 95928, Note_on_c, 5, 85, 0
7, 95928, Note_on_c, 5, 73, 0
7, 95952, Note_on_c, 5, 74, 115
7, 95952, Note_on_c, 5, 86, 115
7, 95976, Note_on_c, 5, 86, 0
7, 95976, Note_on_c, 5, 74, 0
7, 96000, Note_on_c, 5, 76, 115
7, 96000, Note_on_c, 5, 88, 115
7, 96024, Note_on_c, 5, 88, 0
7, 96024, Note_on_c, 5, 76, 0
7, 96048, Note_on_c, 5, 74, 120
7, 96048, Note_on_c, 5, 86, 120
7, 96072, Note_on_c, 5, 86, 0
7, 96072, Note_on_c, 5, 74, 0
7, 96096, Note_on_c, 5, 73, 115
7, 96096, Note_on_c, 5, 85, 115
7, 96120, Note_on_c, 5, 85, 0
7, 96120, Note_on_c, 5, 73, 0
7, 96144, Note_on_c, 5, 74, 115
7, 96144, Note_on_c, 5, 86, 115
7, 96168, Note_on_c, 5, 86, 0
7, 96168, Note_on_c, 5, 74, 0
7, 96192, Note_on_c, 5, 84, 120
7, 96216, Note_on_c, 5, 84, 0
7, 96240, Note_on_c, 5, 86, 115
7, 96264, Note_on_c, 5, 86, 0
7, 96288, Note_on_c, 5, 87, 115
7, 96312, Note_on_c, 5, 87, 0
7, 96336, Note_on_c, 5, 79, 120
7, 96336, Note_on_c, 5, 91, 120
7, 96360, Note_on_c, 5, 91, 0
7, 96360, Note_on_c, 5, 79, 0
7, 96384, Note_on_c, 5, 81, 115
7, 96384, Note_on_c, 5, 93, 115
7, 96408, Note_on_c, 5, 93, 0
7, 96408, Note_on_c, 5, 81, 0
7, 96432, Note_on_c, 5, 82, 115
7, 96456, Note_on_c, 5, 82, 0
7, 96480, Note_on_c, 5, 81, 120
7, 96504, Note_on_c, 5, 81, 0
7, 96528, Note_on_c, 5, 82, 115
7, 96552, Note_on_c, 5, 82, 0
7, 96576, Note_on_c, 5, 84, 115
7, 96600, Note_on_c, 5, 84, 0
7, 96624, Note_on_c, 5, 82, 120
7, 96648, Note_on_c, 5, 82, 0
7, 96672, Note_on_c, 5, 81, 115
7, 96696, Note_on_c, 5, 81, 0
7, 96720, Note_on_c, 5, 79, 115
7, 96744, Note_on_c, 5, 79, 0
7, 96768, Note_on_c, 5, 87, 105
7, 96792, Note_on_c, 5, 87, 0
7, 96816, Note_on_c, 5, 86, 100
7, 96840, Note_on_c, 5, 86, 0
7, 96864, Note_on_c, 5, 84, 100
7, 96888, Note_on_c, 5, 84, 0
7, 96912, Note_on_c, 5, 82, 105
7, 96936, Note_on_c, 5, 82, 0
7, 96960, Note_on_c, 5, 81, 100
7, 96984, Note_on_c, 5, 81, 0
7, 97008, Note_on_c, 5, 79, 100
7, 97032, Note_on_c, 5, 79, 0
7, 97056, Note_on_c, 5, 89, 105
7, 97080, Note_on_c, 5, 89, 0
7, 97104, Note_on_c, 5, 87, 100
7, 97128, Note_on_c, 5, 87, 0
7, 97152, Note_on_c, 5, 86, 100
7, 97176, Note_on_c, 5, 86, 0
7, 97200, Note_on_c, 5, 84, 105
7, 97224, Note_on_c, 5, 84, 0
7, 97248, Note_on_c, 5, 82, 100
7, 97272, Note_on_c, 5, 82, 0
7, 97296, Note_on_c, 5, 81, 100
7, 97320, Note_on_c, 5, 81, 0
7, 97344, Note_on_c, 5, 69, 105
7, 97368, Note_on_c, 5, 69, 0
7, 97392, Note_on_c, 5, 70, 100
7, 97416, Note_on_c, 5, 70, 0
7, 97440, Note_on_c, 5, 72, 100
7, 97464, Note_on_c, 5, 72, 0
7, 97488, Note_on_c, 5, 74, 105
7, 97512, Note_on_c, 5, 74, 0
7, 97536, Note_on_c, 5, 75, 100
7, 97560, Note_on_c, 5, 75, 0
7, 97584, Note_on_c, 5, 77, 100
7, 97608, Note_on_c, 5, 77, 0
7, 97632, Note_on_c, 5, 79, 105
7, 97656, Note_on_c, 5, 79, 0
7, 97680, Note_on_c, 5, 81, 100
7, 97704, Note_on_c, 5, 81, 0
7, 97728, Note_on_c, 5, 82, 100
7, 97752, Note_on_c, 5, 82, 0
7, 97776, Note_on_c, 5, 84, 105
7, 97800, Note_on_c, 5, 84, 0
7, 97824, Note_on_c, 5, 86, 100
7, 97848, Note_on_c, 5, 86, 0
7, 97872, Note_on_c, 5, 87, 100
7, 97896, Note_on_c, 5, 87, 0
7, 97920, Control_c, 5, 1, 0
7, 97920, Note_on_c, 5, 77, 100
7, 97920, Note_on_c, 5, 89, 100
7, 97921, Control_c, 5, 1, 1
7, 97922, Control_c, 5, 1, 2
7, 97923, Control_c, 5, 1, 3
7, 97924, Control_c, 5, 1, 4
7, 97926, Control_c, 5, 1, 5
7, 97928, Control_c, 5, 1, 6
7, 97929, Control_c, 5, 1, 7
7, 97931, Control_c, 5, 1, 8
7, 97933, Control_c, 5, 1, 9
7, 97936, Control_c, 5, 1, 10
7, 97938, Control_c, 5, 1, 11
7, 97941, Control_c, 5, 1, 12
7, 97944, Note_on_c, 5, 77, 0
7, 97944, Control_c, 5, 11, 60
7, 97944, Control_c, 5, 1, 13
7, 97947, Control_c, 5, 1, 14
7, 97951, Control_c, 5, 1, 15
7, 97956, Control_c, 5, 1, 16
7, 97961, Control_c, 5, 1, 17
7, 97969, Control_c, 5, 1, 18
7, 97979, Control_c, 5, 1, 19
7, 97997, Control_c, 5, 1, 20
7, 98208, Control_c, 5, 11, 60
7, 98228, Control_c, 5, 11, 61
7, 98247, Control_c, 5, 11, 62
7, 98266, Control_c, 5, 11, 63
7, 98285, Control_c, 5, 11, 64
7, 98304, Control_c, 5, 11, 65
7, 98323, Control_c, 5, 11, 66
7, 98343, Control_c, 5, 11, 67
7, 98352, Note_on_c, 5, 87, 100
7, 98353, Note_on_c, 5, 89, 0
7, 98362, Control_c, 5, 11, 68
7, 98381, Control_c, 5, 11, 69
7, 98400, Control_c, 5, 11, 70
7, 98419, Control_c, 5, 11, 71
7, 98438, Control_c, 5, 11, 72
7, 98458, Control_c, 5, 11, 73
7, 98477, Control_c, 5, 11, 74
7, 98496, Control_c, 5, 11, 75
7, 98515, Control_c, 5, 11, 76
7, 98534, Control_c, 5, 11, 77
7, 98553, Control_c, 5, 11, 78
7, 98573, Control_c, 5, 11, 79
7, 98592, Control_c, 5, 11, 80
7, 98611, Control_c, 5, 11, 81
7, 98630, Control_c, 5, 11, 82
7, 98640, Note_on_c, 5, 86, 100
7, 98641, Note_on_c, 5, 87, 0
7, 98649, Control_c, 5, 11, 83
7, 98668, Control_c, 5, 11, 84
7, 98688, Control_c, 5, 11, 85
7, 98707, Control_c, 5, 11, 86
7, 98726, Control_c, 5, 11, 87
7, 98745, Control_c, 5, 11, 88
7, 98764, Control_c, 5, 11, 89
7, 98783, Control_c, 5, 11, 90
7, 98784, Control_c, 5, 11, 90
7, 98784, Note_on_c, 5, 85, 100
7, 98785, Note_on_c, 5, 86, 0
7, 98794, Control_c, 5, 11, 89
7, 98804, Control_c, 5, 11, 88
7, 98813, Control_c, 5, 11, 87
7, 98823, Control_c, 5, 11, 86
7, 98832, Control_c, 5, 11, 85
7, 98842, Control_c, 5, 11, 84
7, 98851, Control_c, 5, 11, 83
7, 98861, Control_c, 5, 11, 82
7, 98871, Control_c, 5, 11, 81
7, 98880, Control_c, 5, 11, 80
7, 98890, Control_c, 5, 11, 79
7, 98899, Control_c, 5, 11, 78
7, 98909, Control_c, 5, 11, 77
7, 98918, Control_c, 5, 11, 76
7, 98928, Note_on_c, 5, 84, 100
7, 98928, Control_c, 5, 11, 75
7, 98929, Note_on_c, 5, 85, 0
7, 98938, Control_c, 5, 11, 74
7, 98947, Control_c, 5, 11, 73
7, 98957, Control_c, 5, 11, 72
7, 98966, Control_c, 5, 11, 71
7, 98976, Control_c, 5, 11, 70
7, 98985, Control_c, 5, 11, 69
7, 98995, Control_c, 5, 11, 68
7, 99005, Control_c, 5, 11, 67
7, 99014, Control_c, 5, 11, 66
7, 99024, Control_c, 5, 11, 65
7, 99033, Control_c, 5, 11, 64
7, 99043, Control_c, 5, 11, 63
7, 99052, Control_c, 5, 11, 62
7, 99062, Control_c, 5, 11, 61
7, 99071, Control_c, 5, 11, 60
7, 99072, Note_on_c, 5, 82, 100
7, 99073, Note_on_c, 5, 84, 0
7, 99096, Note_on_c, 5, 82, 0
7, 99792, Control_c, 5, 1, 0
7, 99792, Control_c, 5, 11, 60
7, 99792, Note_on_c, 5, 88, 100
7, 99793, Control_c, 5, 1, 1
7, 99794, Control_c, 5, 1, 2
7, 99795, Control_c, 5, 1, 3
7, 99796, Control_c, 5, 1, 4
7, 99798, Control_c, 5, 1, 5
7, 99800, Control_c, 5, 11, 61
7, 99800, Control_c, 5, 1, 6
7, 99801, Control_c, 5, 1, 7
7, 99803, Control_c, 5, 1, 8
7, 99805, Control_c, 5, 1, 9
7, 99807, Control_c, 5, 11, 62
7, 99808, Control_c, 5, 1, 10
7, 99810, Control_c, 5, 1, 11
7, 99813, Control_c, 5, 1, 12
7, 99814, Control_c, 5, 11, 63
7, 99816, Control_c, 5, 1, 13
7, 99819, Control_c, 5, 1, 14
7, 99821, Control_c, 5, 11, 64
7, 99823, Control_c, 5, 1, 15
7, 99828, Control_c, 5, 11, 65
7, 99828, Control_c, 5, 1, 16
7, 99833, Control_c, 5, 1, 17
7, 99836, Control_c, 5, 11, 66
7, 99841, Control_c, 5, 1, 18
7, 99843, Control_c, 5, 11, 67
7, 99850, Control_c, 5, 11, 68
7, 99851, Control_c, 5, 1, 19
7, 99857, Control_c, 5, 11, 69
7, 99864, Control_c, 5, 11, 70
7, 99869, Control_c, 5, 1, 20
7, 99871, Control_c, 5, 11, 71
7, 99879, Control_c, 5, 11, 72
7, 99886, Control_c, 5, 11, 73
7, 99893, Control_c, 5, 11, 74
7, 99900, Control_c, 5, 11, 75
7, 99907, Control_c, 5, 11, 76
7, 99914, Control_c, 5, 11, 77
7, 99922, Control_c, 5, 11, 78
7, 99929, Control_c, 5, 11, 79
7, 99936, Control_c, 5, 11, 80
7, 99943, Control_c, 5, 11, 81
7, 99950, Control_c, 5, 11, 82
7, 99958, Control_c, 5, 11, 83
7, 99965, Control_c, 5, 11, 84
7, 99972, Control_c, 5, 11, 85
7, 99979, Control_c, 5, 11, 86
7, 99986, Control_c, 5, 11, 87
7, 99993, Control_c, 5, 11, 88
7, 100001, Control_c, 5, 11, 89
7, 100008, Control_c, 5, 11, 90
7, 100015, Control_c, 5, 11, 91
7, 100022, Control_c, 5, 11, 92
7, 100029, Control_c, 5, 11, 93
7, 100036, Control_c, 5, 11, 94
7, 100044, Control_c, 5, 11, 95
7, 100051, Control_c, 5, 11, 96
7, 100058, Control_c, 5, 11, 97
7, 100065, Control_c, 5, 11, 98
7, 100072, Control_c, 5, 11, 99
7, 100079, Control_c, 5, 11, 100
7, 100080, Control_c, 5, 11, 100
7, 100080, Note_on_c, 5, 86, 100
7, 100081, Note_on_c, 5, 88, 0
7, 100091, Control_c, 5, 11, 99
7, 100102, Control_c, 5, 11, 98
7, 100113, Control_c, 5, 11, 97
7, 100124, Control_c, 5, 11, 96
7, 100134, Control_c, 5, 11, 95
7, 100145, Control_c, 5, 11, 94
7, 100156, Control_c, 5, 11, 93
7, 100167, Control_c, 5, 11, 92
7, 100177, Control_c, 5, 11, 91
7, 100188, Control_c, 5, 11, 90
7, 100199, Control_c, 5, 11, 89
7, 100210, Control_c, 5, 11, 88
7, 100221, Control_c, 5, 11, 87
7, 100231, Control_c, 5, 11, 86
7, 100242, Control_c, 5, 11, 85
7, 100253, Control_c, 5, 11, 84
7, 100264, Control_c, 5, 11, 83
7, 100274, Control_c, 5, 11, 82
7, 100285, Control_c, 5, 11, 81
7, 100296, Control_c, 5, 11, 80
7, 100307, Control_c, 5, 11, 79
7, 100318, Control_c, 5, 11, 78
7, 100328, Control_c, 5, 11, 77
7, 100339, Control_c, 5, 11, 76
7, 100350, Control_c, 5, 11, 75
7, 100361, Control_c, 5, 11, 74
7, 100368, Note_on_c, 5, 85, 100
7, 100369, Note_on_c, 5, 86, 0
7, 100371, Control_c, 5, 11, 73
7, 100382, Control_c, 5, 11, 72
7, 100393, Control_c, 5, 11, 71
7, 100404, Control_c, 5, 11, 70
7, 100415, Control_c, 5, 11, 69
7, 100425, Control_c, 5, 11, 68
7, 100436, Control_c, 5, 11, 67
7, 100447, Control_c, 5, 11, 66
7, 100458, Control_c, 5, 11, 65
7, 100468, Control_c, 5, 11, 64
7, 100479, Control_c, 5, 11, 63
7, 100490, Control_c, 5, 11, 62
7, 100501, Control_c, 5, 11, 61
7, 100511, Control_c, 5, 11, 60
7, 100512, Note_on_c, 5, 85, 0
7, 101808, Control_c, 5, 11, 60
7, 101808, Control_c, 5, 1, 0
7, 101808, Note_on_c, 5, 90, 100
7, 101809, Control_c, 5, 1, 1
7, 101810, Control_c, 5, 1, 2
7, 101811, Control_c, 5, 1, 3
7, 101813, Control_c, 5, 1, 4
7, 101814, Control_c, 5, 1, 5
7, 101816, Control_c, 5, 1, 6
7, 101818, Control_c, 5, 1, 7
7, 101820, Control_c, 5, 1, 8
7, 101822, Control_c, 5, 1, 9
7, 101824, Control_c, 5, 1, 10
7, 101825, Control_c, 5, 11, 61
7, 101827, Control_c, 5, 1, 11
7, 101830, Control_c, 5, 1, 12
7, 101833, Control_c, 5, 1, 13
7, 101837, Control_c, 5, 1, 14
7, 101841, Control_c, 5, 1, 15
7, 101842, Control_c, 5, 11, 62
7, 101846, Control_c, 5, 1, 16
7, 101852, Control_c, 5, 1, 17
7, 101859, Control_c, 5, 11, 63
7, 101859, Control_c, 5, 1, 18
7, 101870, Control_c, 5, 1, 19
7, 101876, Control_c, 5, 11, 64
7, 101889, Control_c, 5, 1, 20
7, 101892, Control_c, 5, 11, 65
7, 101909, Control_c, 5, 11, 66
7, 101926, Control_c, 5, 11, 67
7, 101943, Control_c, 5, 11, 68
7, 101952, Note_on_c, 5, 87, 100
7, 101960, Control_c, 5, 11, 69
7, 101976, Control_c, 5, 11, 70
7, 101993, Control_c, 5, 11, 71
7, 102010, Control_c, 5, 11, 72
7, 102027, Control_c, 5, 11, 73
7, 102043, Control_c, 5, 11, 74
7, 102060, Control_c, 5, 11, 75
7, 102077, Control_c, 5, 11, 76
7, 102094, Control_c, 5, 11, 77
7, 102096, Note_on_c, 5, 88, 100
7, 102096, Note_on_c, 5, 91, 100
7, 102097, Note_on_c, 5, 90, 0
7, 102097, Note_on_c, 5, 87, 0
7, 102111, Control_c, 5, 11, 78
7, 102127, Control_c, 5, 11, 79
7, 102144, Control_c, 5, 11, 80
7, 102161, Control_c, 5, 11, 81
7, 102178, Control_c, 5, 11, 82
7, 102195, Control_c, 5, 11, 83
7, 102211, Control_c, 5, 11, 84
7, 102228, Control_c, 5, 11, 85
7, 102240, Note_on_c, 5, 85, 100
7, 102241, Note_on_c, 5, 91, 0
7, 102245, Control_c, 5, 11, 86
7, 102262, Control_c, 5, 11, 87
7, 102278, Control_c, 5, 11, 88
7, 102295, Control_c, 5, 11, 89
7, 102312, Control_c, 5, 11, 90
7, 102329, Control_c, 5, 11, 91
7, 102346, Control_c, 5, 11, 92
7, 102362, Control_c, 5, 11, 93
7, 102379, Control_c, 5, 11, 94
7, 102384, Note_on_c, 5, 86, 100
7, 102384, Note_on_c, 5, 90, 100
7, 102385, Note_on_c, 5, 88, 0
7, 102385, Note_on_c, 5, 85, 0
7, 102396, Control_c, 5, 11, 95
7, 102413, Control_c, 5, 11, 96
7, 102429, Control_c, 5, 11, 97
7, 102446, Control_c, 5, 11, 98
7, 102463, Control_c, 5, 11, 99
7, 102480, Control_c, 5, 11, 100
7, 102497, Control_c, 5, 11, 101
7, 102513, Control_c, 5, 11, 102
7, 102528, Note_on_c, 5, 93, 100
7, 102529, Note_on_c, 5, 90, 0
7, 102530, Control_c, 5, 11, 103
7, 102547, Control_c, 5, 11, 104
7, 102564, Control_c, 5, 11, 105
7, 102581, Control_c, 5, 11, 106
7, 102597, Control_c, 5, 11, 107
7, 102614, Control_c, 5, 11, 108
7, 102631, Control_c, 5, 11, 109
7, 102648, Control_c, 5, 11, 110
7, 102664, Control_c, 5, 11, 111
7, 102672, Note_on_c, 5, 85, 100
7, 102673, Note_on_c, 5, 86, 0
7, 102681, Control_c, 5, 11, 112
7, 102698, Control_c, 5, 11, 113
7, 102715, Control_c, 5, 11, 114
7, 102732, Control_c, 5, 11, 115
7, 102748, Control_c, 5, 11, 116
7, 102765, Control_c, 5, 11, 117
7, 102768, Note_on_c, 5, 93, 0
7, 102768, Note_on_c, 5, 85, 0
7, 102768, Note_on_c, 5, 85, 100
7, 102782, Control_c, 5, 11, 118
7, 102799, Control_c, 5, 11, 119
7, 102815, Control_c, 5, 11, 120
7, 102816, Note_on_c, 5, 85, 0
7, 102816, Control_c, 5, 1, 0
7, 102816, Note_on_c, 5, 86, 113
7, 102912, Note_on_c, 5, 86, 0
7, 102912, Note_on_c, 5, 88, 111
7, 102936, Note_on_c, 5, 88, 0
7, 102936, Note_on_c, 5, 90, 112
7, 102960, Note_on_c, 5, 90, 0
7, 102960, Note_on_c, 5, 91, 113
7, 102984, Note_on_c, 5, 91, 0
7, 103056, Note_on_c, 5, 90, 110
7, 103080, Note_on_c, 5, 90, 0
7, 103104, Note_on_c, 5, 88, 113
7, 103128, Note_on_c, 5, 88, 0
7, 103200, Note_on_c, 5, 86, 110
7, 103224, Note_on_c, 5, 86, 0
7, 103248, Note_on_c, 5, 88, 113
7, 103272, Note_on_c, 5, 88, 0
7, 103344, Note_on_c, 5, 85, 110
7, 103368, Note_on_c, 5, 85, 0
7, 103392, Note_on_c, 5, 86, 113
7, 103392, Note_on_c, 5, 90, 113
7, 103488, Note_on_c, 5, 90, 0
7, 103488, Note_on_c, 5, 86, 0
7, 103488, Note_on_c, 5, 88, 110
7, 103488, Note_on_c, 5, 91, 110
7, 103512, Note_on_c, 5, 91, 0
7, 103512, Note_on_c, 5, 88, 0
7, 103512, Note_on_c, 5, 90, 111
7, 103512, Note_on_c, 5, 93, 111
7, 103536, Note_on_c, 5, 93, 0
7, 103536, Note_on_c, 5, 90, 0
7, 103536, Note_on_c, 5, 83, 113
7, 103560, Note_on_c, 5, 83, 0
7, 103632, Note_on_c, 5, 90, 110
7, 103632, Note_on_c, 5, 93, 110
7, 103656, Note_on_c, 5, 93, 0
7, 103656, Note_on_c, 5, 90, 0
7, 103680, Note_on_c, 5, 88, 113
7, 103680, Note_on_c, 5, 91, 113
7, 103704, Note_on_c, 5, 91, 0
7, 103704, Note_on_c, 5, 88, 0
7, 103776, Note_on_c, 5, 86, 110
7, 103776, Note_on_c, 5, 90, 110
7, 103800, Note_on_c, 5, 90, 0
7, 103800, Note_on_c, 5, 86, 0
7, 103824, Note_on_c, 5, 88, 113
7, 103824, Note_on_c, 5, 91, 113
7, 103848, Note_on_c, 5, 91, 0
7, 103848, Note_on_c, 5, 88, 0
7, 103920, Note_on_c, 5, 85, 110
7, 103920, Note_on_c, 5, 88, 110
7, 103944, Note_on_c, 5, 88, 0
7, 103944, Note_on_c, 5, 85, 0
7, 103968, Note_on_c, 5, 86, 113
7, 103992, Note_on_c, 5, 86, 0
7, 104016, Note_on_c, 5, 86, 110
7, 104064, Note_on_c, 5, 86, 0
7, 104064, Note_on_c, 5, 88, 111
7, 104088, Note_on_c, 5, 88, 0
7, 104088, Note_on_c, 5, 89, 112
7, 104112, Note_on_c, 5, 89, 0
7, 104112, Note_on_c, 5, 91, 113
7, 104136, Note_on_c, 5, 91, 0
7, 104160, Note_on_c, 5, 91, 111
7, 104184, Note_on_c, 5, 91, 0
7, 104208, Note_on_c, 5, 89, 111
7, 104232, Note_on_c, 5, 89, 0
7, 104256, Note_on_c, 5, 88, 113
7, 104280, Note_on_c, 5, 88, 0
7, 104304, Note_on_c, 5, 88, 111
7, 104328, Note_on_c, 5, 88, 0
7, 104352, Note_on_c, 5, 86, 111
7, 104376, Note_on_c, 5, 86, 0
7, 104400, Note_on_c, 5, 88, 113
7, 104424, Note_on_c, 5, 88, 0
7, 104448, Note_on_c, 5, 88, 111
7, 104472, Note_on_c, 5, 88, 0
7, 104496, Note_on_c, 5, 85, 111
7, 104520, Note_on_c, 5, 85, 0
7, 104544, Note_on_c, 5, 86, 113
7, 104544, Note_on_c, 5, 89, 113
7, 104568, Note_on_c, 5, 89, 0
7, 104568, Note_on_c, 5, 86, 0
7, 104592, Note_on_c, 5, 86, 110
7, 104592, Note_on_c, 5, 89, 110
7, 104640, Note_on_c, 5, 89, 0
7, 104640, Note_on_c, 5, 86, 0
7, 104640, Note_on_c, 5, 88, 111
7, 104640, Note_on_c, 5, 91, 111
7, 104664, Note_on_c, 5, 91, 0
7, 104664, Note_on_c, 5, 88, 0
7, 104664, Note_on_c, 5, 89, 112
7, 104664, Note_on_c, 5, 93, 112
7, 104688, Note_on_c, 5, 93, 0
7, 104688, Note_on_c, 5, 89, 0
7, 104688, Note_on_c, 5, 82, 113
7, 104712, Note_on_c, 5, 82, 0
7, 104736, Note_on_c, 5, 82, 110
7, 104760, Note_on_c, 5, 82, 0
7, 104784, Note_on_c, 5, 89, 110
7, 104784, Note_on_c, 5, 93, 110
7, 104808, Note_on_c, 5, 93, 0
7, 104808, Note_on_c, 5, 89, 0
7, 104832, Note_on_c, 5, 88, 113
7, 104832, Note_on_c, 5, 91, 113
7, 104856, Note_on_c, 5, 91, 0
7, 104856, Note_on_c, 5, 88, 0
7, 104880, Note_on_c, 5, 88, 110
7, 104880, Note_on_c, 5, 91, 110
7, 104904, Note_on_c, 5, 91, 0
7, 104904, Note_on_c, 5, 88, 0
7, 104928, Note_on_c, 5, 86, 110
7, 104928, Note_on_c, 5, 89, 110
7, 104952, Note_on_c, 5, 89, 0
7, 104952, Note_on_c, 5, 86, 0
7, 104976, Note_on_c, 5, 88, 113
7, 104976, Note_on_c, 5, 91, 113
7, 105000, Note_on_c, 5, 91, 0
7, 105000, Note_on_c, 5, 88, 0
7, 105024, Note_on_c, 5, 88, 110
7, 105024, Note_on_c, 5, 91, 110
7, 105048, Note_on_c, 5, 91, 0
7, 105048, Note_on_c, 5, 88, 0
7, 105072, Note_on_c, 5, 85, 110
7, 105072, Note_on_c, 5, 88, 110
7, 105096, Note_on_c, 5, 88, 0
7, 105096, Note_on_c, 5, 85, 0
7, 105120, Note_on_c, 5, 89, 116
7, 105155, Note_on_c, 5, 89, 0
7, 105192, Note_on_c, 5, 77, 113
7, 105204, Note_on_c, 5, 77, 0
7, 105216, Note_on_c, 5, 77, 113
7, 105240, Note_on_c, 5, 77, 0
7, 105264, Note_on_c, 5, 77, 116
7, 105264, Note_on_c, 5, 89, 116
7, 105288, Note_on_c, 5, 89, 0
7, 105288, Note_on_c, 5, 77, 0
7, 105312, Note_on_c, 5, 79, 113
7, 105312, Note_on_c, 5, 91, 113
7, 105336, Note_on_c, 5, 91, 0
7, 105336, Note_on_c, 5, 79, 0
7, 105360, Note_on_c, 5, 81, 113
7, 105360, Note_on_c, 5, 93, 113
7, 105384, Note_on_c, 5, 93, 0
7, 105384, Note_on_c, 5, 81, 0
7, 105408, Note_on_c, 5, 82, 116
7, 105432, Note_on_c, 5, 82, 0
7, 105696, Note_on_c, 5, 88, 116
7, 105731, Note_on_c, 5, 88, 0
7, 105768, Note_on_c, 5, 76, 113
7, 105780, Note_on_c, 5, 76, 0
7, 105792, Note_on_c, 5, 76, 113
7, 105816, Note_on_c, 5, 76, 0
7, 105840, Note_on_c, 5, 76, 116
7, 105840, Note_on_c, 5, 88, 116
7, 105864, Note_on_c, 5, 88, 0
7, 105864, Note_on_c, 5, 76, 0
7, 105888, Note_on_c, 5, 77, 113
7, 105888, Note_on_c, 5, 89, 113
7, 105912, Note_on_c, 5, 89, 0
7, 105912, Note_on_c, 5, 77, 0
7, 105936, Note_on_c, 5, 79, 113
7, 105936, Note_on_c, 5, 91, 113
7, 105960, Note_on_c, 5, 91, 0
7, 105960, Note_on_c, 5, 79, 0
7, 105984, Note_on_c, 5, 81, 116
7, 106008, Note_on_c, 5, 81, 0
7, 106128, Note_on_c, 5, 81, 113
7, 106152, Note_on_c, 5, 81, 0
7, 106176, Note_on_c, 5, 86, 113
7, 106200, Note_on_c, 5, 86, 0
7, 106224, Note_on_c, 5, 76, 113
7, 106224, Note_on_c, 5, 88, 113
7, 106248, Note_on_c, 5, 88, 0
7, 106248, Note_on_c, 5, 76, 0
7, 106272, Note_on_c, 5, 78, 60
7, 106272, Note_on_c, 5, 90, 60
7, 106296, Note_on_c, 5, 90, 0
7, 106296, Note_on_c, 5, 78, 0
7, 106560, Note_on_c, 5, 79, 60
7, 106560, Note_on_c, 5, 91, 60
7, 106584, Note_on_c, 5, 91, 0
7, 106584, Note_on_c, 5, 79, 0
7, 107136, Control_c, 5, 1, 0
7, 107136, Control_c, 5, 11, 60
7, 107136, Note_on_c, 5, 87, 100
7, 107136, Note_on_c, 5, 91, 100
7, 107137, Control_c, 5, 1, 1
7, 107138, Control_c, 5, 1, 2
7, 107139, Control_c, 5, 1, 3
7, 107140, Control_c, 5, 1, 4
7, 107142, Control_c, 5, 1, 5
7, 107144, Control_c, 5, 1, 6
7, 107145, Control_c, 5, 1, 7
7, 107146, Control_c, 5, 11, 61
7, 107147, Control_c, 5, 1, 8
7, 107149, Control_c, 5, 1, 9
7, 107152, Control_c, 5, 1, 10
7, 107154, Control_c, 5, 1, 11
7, 107156, Control_c, 5, 11, 62
7, 107157, Control_c, 5, 1, 12
7, 107160, Control_c, 5, 1, 13
7, 107163, Control_c, 5, 1, 14
7, 107165, Control_c, 5, 11, 63
7, 107167, Control_c, 5, 1, 15
7, 107172, Control_c, 5, 1, 16
7, 107175, Control_c, 5, 11, 64
7, 107177, Control_c, 5, 1, 17
7, 107184, Control_c, 5, 11, 65
7, 107185, Control_c, 5, 1, 18
7, 107194, Control_c, 5, 11, 66
7, 107195, Control_c, 5, 1, 19
7, 107204, Control_c, 5, 11, 67
7, 107213, Control_c, 5, 11, 68
7, 107213, Control_c, 5, 1, 20
7, 107223, Control_c, 5, 11, 69
7, 107232, Control_c, 5, 11, 70
7, 107242, Control_c, 5, 11, 71
7, 107251, Control_c, 5, 11, 72
7, 107261, Control_c, 5, 11, 73
7, 107271, Control_c, 5, 11, 74
7, 107279, Note_on_c, 5, 91, 0
7, 107279, Note_on_c, 5, 87, 0
7, 107280, Note_on_c, 5, 87, 100
7, 107280, Note_on_c, 5, 91, 100
7, 107280, Control_c, 5, 11, 75
7, 107290, Control_c, 5, 11, 76
7, 107299, Control_c, 5, 11, 77
7, 107309, Control_c, 5, 11, 78
7, 107319, Control_c, 5, 11, 79
7, 107328, Control_c, 5, 11, 80
7, 107338, Control_c, 5, 11, 81
7, 107347, Control_c, 5, 11, 82
7, 107357, Control_c, 5, 11, 83
7, 107366, Control_c, 5, 11, 84
7, 107376, Control_c, 5, 11, 85
7, 107386, Control_c, 5, 11, 86
7, 107395, Control_c, 5, 11, 87
7, 107405, Control_c, 5, 11, 88
7, 107414, Control_c, 5, 11, 89
7, 107423, Note_on_c, 5, 91, 0
7, 107423, Note_on_c, 5, 87, 0
7, 107424, Note_on_c, 5, 88, 100
7, 107424, Note_on_c, 5, 91, 100
7, 107424, Control_c, 5, 11, 90
7, 107434, Control_c, 5, 11, 91
7, 107443, Control_c, 5, 11, 92
7, 107453, Control_c, 5, 11, 93
7, 107462, Control_c, 5, 11, 94
7, 107472, Control_c, 5, 11, 95
7, 107481, Control_c, 5, 11, 96
7, 107491, Control_c, 5, 11, 97
7, 107501, Control_c, 5, 11, 98
7, 107510, Control_c, 5, 11, 99
7, 107520, Control_c, 5, 11, 100
7, 107529, Control_c, 5, 11, 101
7, 107539, Control_c, 5, 11, 102
7, 107549, Control_c, 5, 11, 103
7, 107558, Control_c, 5, 11, 104
7, 107568, Control_c, 5, 11, 105
7, 107577, Control_c, 5, 11, 106
7, 107587, Control_c, 5, 11, 107
7, 107596, Control_c, 5, 11, 108
7, 107606, Control_c, 5, 11, 109
7, 107616, Note_on_c, 5, 91, 0
7, 107616, Note_on_c, 5, 88, 0
7, 107616, Note_on_c, 5, 86, 100
7, 107616, Note_on_c, 5, 89, 100
7, 107616, Control_c, 5, 11, 110
7, 107625, Control_c, 5, 11, 111
7, 107635, Control_c, 5, 11, 112
7, 107644, Control_c, 5, 11, 113
7, 107654, Control_c, 5, 11, 114
7, 107664, Note_on_c, 5, 89, 0
7, 107664, Note_on_c, 5, 86, 0
7, 107664, Note_on_c, 5, 88, 100
7, 107664, Note_on_c, 5, 91, 100
7, 107664, Control_c, 5, 11, 115
7, 107673, Control_c, 5, 11, 116
7, 107683, Control_c, 5, 11, 117
7, 107692, Control_c, 5, 11, 118
7, 107702, Control_c, 5, 11, 119
7, 107711, Control_c, 5, 11, 120
7, 107712, Note_on_c, 5, 91, 0
7, 107712, Note_on_c, 5, 88, 0
7, 107712, Control_c, 5, 1, 0
7, 107712, Note_on_c, 5, 81, 105
7, 107712, Note_on_c, 5, 93, 105
7, 107736, Note_on_c, 5, 93, 0
7, 107736, Note_on_c, 5, 81, 0
7, 107760, Note_on_c, 5, 77, 100
7, 107760, Note_on_c, 5, 89, 100
7, 107784, Note_on_c, 5, 89, 0
7, 107784, Note_on_c, 5, 77, 0
7, 107808, Note_on_c, 5, 82, 100
7, 107832, Note_on_c, 5, 82, 0
7, 107856, Note_on_c, 5, 79, 105
7, 107856, Note_on_c, 5, 91, 105
7, 107880, Note_on_c, 5, 91, 0
7, 107880, Note_on_c, 5, 79, 0
7, 107904, Note_on_c, 5, 76, 100
7, 107904, Note_on_c, 5, 88, 100
7, 107928, Note_on_c, 5, 88, 0
7, 107928, Note_on_c, 5, 76, 0
7, 107952, Note_on_c, 5, 81, 100
7, 107952, Note_on_c, 5, 93, 100
7, 107976, Note_on_c, 5, 93, 0
7, 107976, Note_on_c, 5, 81, 0
7, 108000, Note_on_c, 5, 77, 105
7, 108000, Note_on_c, 5, 89, 105
7, 108024, Note_on_c, 5, 89, 0
7, 108024, Note_on_c, 5, 77, 0
7, 108288, Note_on_c, 5, 81, 105
7, 108288, Note_on_c, 5, 93, 105
7, 108312, Note_on_c, 5, 93, 0
7, 108312, Note_on_c, 5, 81, 0
7, 108336, Note_on_c, 5, 77, 100
7, 108336, Note_on_c, 5, 89, 100
7, 108360, Note_on_c, 5, 89, 0
7, 108360, Note_on_c, 5, 77, 0
7, 108384, Note_on_c, 5, 82, 100
7, 108408, Note_on_c, 5, 82, 0
7, 108432, Note_on_c, 5, 79, 105
7, 108432, Note_on_c, 5, 91, 105
7, 108456, Note_on_c, 5, 91, 0
7, 108456, Note_on_c, 5, 79, 0
7, 108480, Note_on_c, 5, 76, 100
7, 108480, Note_on_c, 5, 88, 100
7, 108504, Note_on_c, 5, 88, 0
7, 108504, Note_on_c, 5, 76, 0
7, 108528, Note_on_c, 5, 81, 100
7, 108528, Note_on_c, 5, 93, 100
7, 108552, Note_on_c, 5, 93, 0
7, 108552, Note_on_c, 5, 81, 0
7, 108576, Note_on_c, 5, 81, 105
7, 108576, Note_on_c, 5, 93, 105
7, 108600, Note_on_c, 5, 93, 0
7, 108600, Note_on_c, 5, 81, 0
7, 108624, Note_on_c, 5, 81, 100
7, 108624, Note_on_c, 5, 93, 100
7, 108648, Note_on_c, 5, 93, 0
7, 108648, Note_on_c, 5, 81, 0
7, 108672, Note_on_c, 5, 81, 100
7, 108672, Note_on_c, 5, 93, 100
7, 108696, Note_on_c, 5, 93, 0
7, 108696, Note_on_c, 5, 81, 0
7, 108720, Note_on_c, 5, 81, 105
7, 108720, Note_on_c, 5, 93, 105
7, 108744, Note_on_c, 5, 93, 0
7, 108744, Note_on_c, 5, 81, 0
7, 108768, Note_on_c, 5, 81, 100
7, 108768, Note_on_c, 5, 93, 100
7, 108792, Note_on_c, 5, 93, 0
7, 108792, Note_on_c, 5, 81, 0
7, 108816, Note_on_c, 5, 81, 100
7, 108816, Note_on_c, 5, 93, 100
7, 108840, Note_on_c, 5, 93, 0
7, 108840, Note_on_c, 5, 81, 0
7, 108864, Note_on_c, 5, 86, 105
7, 108864, Note_on_c, 5, 89, 105
7, 108888, Note_on_c, 5, 89, 0
7, 108888, Note_on_c, 5, 86, 0
7, 108912, Note_on_c, 5, 81, 100
7, 108912, Note_on_c, 5, 86, 100
7, 108936, Note_on_c, 5, 86, 0
7, 108936, Note_on_c, 5, 81, 0
7, 108960, Note_on_c, 5, 89, 100
7, 108960, Note_on_c, 5, 93, 100
7, 108984, Note_on_c, 5, 93, 0
7, 108984, Note_on_c, 5, 89, 0
7, 109008, Note_on_c, 5, 88, 105
7, 109008, Note_on_c, 5, 91, 105
7, 109032, Note_on_c, 5, 91, 0
7, 109032, Note_on_c, 5, 88, 0
7, 109056, Note_on_c, 5, 81, 100
7, 109056, Note_on_c, 5, 88, 100
7, 109080, Note_on_c, 5, 88, 0
7, 109080, Note_on_c, 5, 81, 0
7, 109104, Note_on_c, 5, 88, 100
7, 109104, Note_on_c, 5, 93, 100
7, 109128, Note_on_c, 5, 93, 0
7, 109128, Note_on_c, 5, 88, 0
7, 109152, Note_on_c, 5, 86, 105
7, 109152, Note_on_c, 5, 89, 105
7, 109176, Note_on_c, 5, 89, 0
7, 109176, Note_on_c, 5, 86, 0
7, 109200, Note_on_c, 5, 81, 100
7, 109200, Note_on_c, 5, 86, 100
7, 109224, Note_on_c, 5, 86, 0
7, 109224, Note_on_c, 5, 81, 0
7, 109248, Note_on_c, 5, 89, 100
7, 109248, Note_on_c, 5, 93, 100
7, 109272, Note_on_c, 5, 93, 0
7, 109272, Note_on_c, 5, 89, 0
7, 109296, Note_on_c, 5, 88, 105
7, 109296, Note_on_c, 5, 91, 105
7, 109320, Note_on_c, 5, 91, 0
7, 109320, Note_on_c, 5, 88, 0
7, 109344, Note_on_c, 5, 81, 100
7, 109344, Note_on_c, 5, 88, 100
7, 109368, Note_on_c, 5, 88, 0
7, 109368, Note_on_c, 5, 81, 0
7, 109392, Note_on_c, 5, 88, 100
7, 109392, Note_on_c, 5, 93, 100
7, 109416, Note_on_c, 5, 93, 0
7, 109416, Note_on_c, 5, 88, 0
7, 109440, Control_c, 5, 1, 0
7, 109440, Note_on_c, 5, 69, 44
7, 109441, Control_c, 5, 1, 2
7, 109442, Control_c, 5, 1, 3
7, 109443, Control_c, 5, 1, 4
7, 109444, Control_c, 5, 1, 5
7, 109445, Control_c, 5, 1, 6
7, 109446, Control_c, 5, 1, 7
7, 109448, Control_c, 5, 1, 8
7, 109449, Control_c, 5, 1, 9
7, 109451, Control_c, 5, 1, 10
7, 109452, Control_c, 5, 1, 11
7, 109454, Control_c, 5, 1, 12
7, 109456, Control_c, 5, 1, 13
7, 109458, Control_c, 5, 1, 14
7, 109461, Control_c, 5, 1, 15
7, 109464, Control_c, 5, 1, 16
7, 109468, Control_c, 5, 1, 17
7, 109472, Control_c, 5, 1, 18
7, 109479, Control_c, 5, 1, 19
7, 109488, Note_on_c, 5, 69, 0
7, 109488, Note_on_c, 5, 73, 48
7, 109491, Control_c, 5, 1, 20
7, 109536, Note_on_c, 5, 73, 0
7, 109536, Note_on_c, 5, 76, 51
7, 109584, Note_on_c, 5, 76, 0
7, 109584, Note_on_c, 5, 79, 54
7, 109632, Note_on_c, 5, 79, 0
7, 109632, Note_on_c, 5, 85, 60
7, 109680, Note_on_c, 5, 85, 0
7, 109680, Note_on_c, 5, 88, 63
7, 109728, Note_on_c, 5, 88, 0
7, 109728, Note_on_c, 5, 91, 66
7, 109920, Note_on_c, 5, 91, 0
7, 109920, Note_on_c, 5, 88, 63
7, 109968, Note_on_c, 5, 88, 0
7, 109968, Note_on_c, 5, 85, 60
7, 110016, Note_on_c, 5, 85, 0
7, 110016, Note_on_c, 5, 86, 50
7, 110064, Note_on_c, 5, 86, 0
7, 110160, Control_c, 5, 1, 0
7, 110160, Note_on_c, 5, 86, 55
7, 110195, Note_on_c, 5, 86, 0
7, 110232, Note_on_c, 5, 74, 50
7, 110244, Note_on_c, 5, 74, 0
7, 110256, Note_on_c, 5, 74, 50
7, 110280, Note_on_c, 5, 74, 0
7, 110304, Note_on_c, 5, 74, 50
7, 110328, Note_on_c, 5, 74, 0
7, 110448, Note_on_c, 5, 86, 55
7, 110483, Note_on_c, 5, 86, 0
7, 110520, Note_on_c, 5, 74, 50
7, 110532, Note_on_c, 5, 74, 0
7, 110544, Note_on_c, 5, 74, 50
7, 110568, Note_on_c, 5, 74, 0
7, 110592, Note_on_c, 5, 74, 50
7, 110616, Note_on_c, 5, 74, 0
7, 111312, Note_on_c, 5, 86, 58
7, 111347, Note_on_c, 5, 86, 0
7, 111384, Note_on_c, 5, 74, 62
7, 111396, Note_on_c, 5, 74, 0
7, 111408, Note_on_c, 5, 74, 64
7, 111432, Note_on_c, 5, 74, 0
7, 111456, Note_on_c, 5, 74, 66
7, 111480, Note_on_c, 5, 74, 0
7, 111600, Note_on_c, 5, 86, 75
7, 111635, Note_on_c, 5, 86, 0
7, 111672, Note_on_c, 5, 74, 79
7, 111684, Note_on_c, 5, 74, 0
7, 111696, Note_on_c, 5, 74, 80
7, 111720, Note_on_c, 5, 74, 0
7, 111744, Note_on_c, 5, 74, 83
7, 111768, Note_on_c, 5, 74, 0
7, 111888, Note_on_c, 5, 86, 92
7, 111923, Note_on_c, 5, 86, 0
7, 111960, Note_on_c, 5, 74, 96
7, 111972, Note_on_c, 5, 74, 0
7, 111984, Note_on_c, 5, 74, 97
7, 112008, Note_on_c, 5, 74, 0
7, 112032, Note_on_c, 5, 74, 100
7, 112056, Note_on_c, 5, 74, 0
7, 112176, Note_on_c, 5, 76, 109
7, 112176, Note_on_c, 5, 88, 109
7, 112211, Note_on_c, 5, 88, 0
7, 112211, Note_on_c, 5, 76, 0
7, 112248, Note_on_c, 5, 76, 113
7, 112260, Note_on_c, 5, 76, 0
7, 112272, Control_c, 5, 1, 0
7, 112272, Note_on_c, 5, 76, 114
7, 112272, Note_on_c, 5, 88, 114
7, 112273, Control_c, 5, 1, 3
7, 112274, Control_c, 5, 1, 5
7, 112275, Control_c, 5, 1, 7
7, 112276, Control_c, 5, 1, 8
7, 112277, Control_c, 5, 1, 10
7, 112278, Control_c, 5, 1, 11
7, 112279, Control_c, 5, 1, 12
7, 112280, Control_c, 5, 1, 13
7, 112281, Control_c, 5, 1, 14
7, 112283, Control_c, 5, 1, 15
7, 112284, Control_c, 5, 1, 16
7, 112286, Control_c, 5, 1, 17
7, 112288, Control_c, 5, 1, 18
7, 112292, Control_c, 5, 1, 19
7, 112298, Control_c, 5, 1, 20
7, 112317, Note_on_c, 5, 88, 0
7, 112317, Note_on_c, 5, 76, 0
7, 112368, Control_c, 5, 1, 0
7, 112656, Note_on_c, 5, 86, 55
7, 112691, Note_on_c, 5, 86, 0
7, 112728, Note_on_c, 5, 74, 50
7, 112740, Note_on_c, 5, 74, 0
7, 112752, Note_on_c, 5, 74, 50
7, 112776, Note_on_c, 5, 74, 0
7, 112800, Note_on_c, 5, 79, 55
7, 112824, Note_on_c, 5, 79, 0
7, 112848, Note_on_c, 5, 81, 50
7, 112872, Note_on_c, 5, 81, 0
7, 112896, Note_on_c, 5, 82, 50
7, 112920, Note_on_c, 5, 82, 0
7, 113232, Note_on_c, 5, 86, 55
7, 113267, Note_on_c, 5, 86, 0
7, 113304, Note_on_c, 5, 74, 50
7, 113316, Note_on_c, 5, 74, 0
7, 113328, Note_on_c, 5, 74, 50
7, 113352, Note_on_c, 5, 74, 0
7, 113376, Note_on_c, 5, 79, 55
7, 113400, Note_on_c, 5, 79, 0
7, 113424, Note_on_c, 5, 81, 50
7, 113448, Note_on_c, 5, 81, 0
7, 113472, Note_on_c, 5, 82, 50
7, 113496, Note_on_c, 5, 82, 0
7, 113520, Note_on_c, 5, 81, 50
7, 113520, Note_on_c, 5, 93, 50
7, 113555, Note_on_c, 5, 93, 0
7, 113555, Note_on_c, 5, 81, 0
7, 113592, Note_on_c, 5, 69, 54
7, 113592, Note_on_c, 5, 81, 54
7, 113604, Note_on_c, 5, 81, 0
7, 113604, Note_on_c, 5, 69, 0
7, 113616, Note_on_c, 5, 69, 55
7, 113616, Note_on_c, 5, 81, 55
7, 113640, Note_on_c, 5, 81, 0
7, 113640, Note_on_c, 5, 69, 0
7, 113664, Note_on_c, 5, 74, 58
7, 113664, Note_on_c, 5, 86, 58
7, 113688, Note_on_c, 5, 86, 0
7, 113688, Note_on_c, 5, 74, 0
7, 113712, Note_on_c, 5, 76, 61
7, 113712, Note_on_c, 5, 88, 61
7, 113736, Note_on_c, 5, 88, 0
7, 113736, Note_on_c, 5, 76, 0
7, 113760, Note_on_c, 5, 77, 64
7, 113760, Note_on_c, 5, 89, 64
7, 113784, Note_on_c, 5, 89, 0
7, 113784, Note_on_c, 5, 77, 0
7, 113808, Note_on_c, 5, 81, 66
7, 113808, Note_on_c, 5, 93, 66
7, 113843, Note_on_c, 5, 93, 0
7, 113843, Note_on_c, 5, 81, 0
7, 113880, Note_on_c, 5, 69, 71
7, 113880, Note_on_c, 5, 81, 71
7, 113892, Note_on_c, 5, 81, 0
7, 113892, Note_on_c, 5, 69, 0
7, 113904, Note_on_c, 5, 69, 72
7, 113904, Note_on_c, 5, 81, 72
7, 113928, Note_on_c, 5, 81, 0
7, 113928, Note_on_c, 5, 69, 0
7, 113952, Note_on_c, 5, 74, 75
7, 113952, Note_on_c, 5, 86, 75
7, 113976, Note_on_c, 5, 86, 0
7, 113976, Note_on_c, 5, 74, 0
7, 114000, Note_on_c, 5, 76, 78
7, 114000, Note_on_c, 5, 88, 78
7, 114024, Note_on_c, 5, 88, 0
7, 114024, Note_on_c, 5, 76, 0
7, 114048, Note_on_c, 5, 77, 80
7, 114048, Note_on_c, 5, 89, 80
7, 114072, Note_on_c, 5, 89, 0
7, 114072, Note_on_c, 5, 77, 0
7, 114096, Note_on_c, 5, 81, 83
7, 114096, Note_on_c, 5, 93, 83
7, 114131, Note_on_c, 5, 93, 0
7, 114131, Note_on_c, 5, 81, 0
7, 114168, Note_on_c, 5, 69, 87
7, 114168, Note_on_c, 5, 81, 87
7, 114180, Note_on_c, 5, 81, 0
7, 114180, Note_on_c, 5, 69, 0
7, 114192, Note_on_c, 5, 69, 89
7, 114192, Note_on_c, 5, 81, 89
7, 114216, Note_on_c, 5, 81, 0
7, 114216, Note_on_c, 5, 69, 0
7, 114240, Note_on_c, 5, 74, 92
7, 114240, Note_on_c, 5, 86, 92
7, 114264, Note_on_c, 5, 86, 0
7, 114264, Note_on_c, 5, 74, 0
7, 114288, Note_on_c, 5, 76, 95
7, 114288, Note_on_c, 5, 88, 95
7, 114312, Note_on_c, 5, 88, 0
7, 114312, Note_on_c, 5, 76, 0
7, 114336, Note_on_c, 5, 77, 97
7, 114336, Note_on_c, 5, 89, 97
7, 114360, Note_on_c, 5, 89, 0
7, 114360, Note_on_c, 5, 77, 0
7, 114384, Note_on_c, 5, 81, 100
7, 114384, Note_on_c, 5, 93, 100
7, 114419, Note_on_c, 5, 93, 0
7, 114419, Note_on_c, 5, 81, 0
7, 114456, Note_on_c, 5, 69, 104
7, 114456, Note_on_c, 5, 81, 104
7, 114468, Note_on_c, 5, 81, 0
7, 114468, Note_on_c, 5, 69, 0
7, 114480, Note_on_c, 5, 69, 106
7, 114480, Note_on_c, 5, 81, 106
7, 114504, Note_on_c, 5, 81, 0
7, 114504, Note_on_c, 5, 69, 0
7, 114528, Note_on_c, 5, 74, 109
7, 114528, Note_on_c, 5, 86, 109
7, 114552, Note_on_c, 5, 86, 0
7, 114552, Note_on_c, 5, 74, 0
7, 114576, Note_on_c, 5, 76, 111
7, 114576, Note_on_c, 5, 88, 111
7, 114600, Note_on_c, 5, 88, 0
7, 114600, Note_on_c, 5, 76, 0
7, 114624, Note_on_c, 5, 77, 114
7, 114624, Note_on_c, 5, 89, 114
7, 114648, Note_on_c, 5, 89, 0
7, 114648, Note_on_c, 5, 77, 0
7, 114672, Note_on_c, 5, 81, 125
7, 114672, Note_on_c, 5, 93, 125
7, 114696, Note_on_c, 5, 93, 0
7, 114696, Note_on_c, 5, 81, 0
7, 114720, Note_on_c, 5, 69, 120
7, 114720, Note_on_c, 5, 81, 120
7, 114744, Note_on_c, 5, 81, 0
7, 114744, Note_on_c, 5, 69, 0
7, 114768, Note_on_c, 5, 74, 125
7, 114768, Note_on_c, 5, 86, 125
7, 114792, Note_on_c, 5, 86, 0
7, 114792, Note_on_c, 5, 74, 0
7, 114816, Note_on_c, 5, 62, 120
7, 114816, Note_on_c, 5, 74, 120
7, 114840, Note_on_c, 5, 74, 0
7, 114840, Note_on_c, 5, 62, 0
7, 114864, Note_on_c, 5, 69, 125
7, 114864, Note_on_c, 5, 81, 125
7, 114888, Note_on_c, 5, 81, 0
7, 114888, Note_on_c, 5, 69, 0
7, 114912, Note_on_c, 5, 69, 120
7, 114936, Note_on_c, 5, 69, 0
7, 114960, Note_on_c, 5, 81, 125
7, 114960, Note_on_c, 5, 93, 125
7, 114984, Note_on_c, 5, 93, 0
7, 114984, Note_on_c, 5, 81, 0
7, 115008, Note_on_c, 5, 69, 120
7, 115008, Note_on_c, 5, 81, 120
7, 115032, Note_on_c, 5, 81, 0
7, 115032, Note_on_c, 5, 69, 0
7, 115056, Note_on_c, 5, 74, 115
7, 115080, Note_on_c, 5, 74, 0
7, 120480, Control_c, 5, 1, 0
7, 120480, Control_c, 5, 11, 60
7, 120480, Note_on_c, 5, 81, 100
7, 120481, Control_c, 5, 1, 2
7, 120482, Control_c, 5, 1, 3
7, 120483, Control_c, 5, 1, 4
7, 120484, Control_c, 5, 1, 5
7, 120485, Control_c, 5, 1, 6
7, 120486, Control_c, 5, 1, 7
7, 120488, Control_c, 5, 1, 8
7, 120489, Control_c, 5, 1, 9
7, 120491, Control_c, 5, 1, 10
7, 120492, Control_c, 5, 1, 11
7, 120494, Control_c, 5, 1, 12
7, 120496, Control_c, 5, 11, 61
7, 120496, Control_c, 5, 1, 13
7, 120498, Control_c, 5, 1, 14
7, 120501, Control_c, 5, 1, 15
7, 120504, Control_c, 5, 1, 16
7, 120508, Control_c, 5, 1, 17
7, 120512, Control_c, 5, 11, 62
7, 120512, Control_c, 5, 1, 18
7, 120519, Control_c, 5, 1, 19
7, 120528, Note_on_c, 5, 81, 0
7, 120528, Note_on_c, 5, 83, 100
7, 120528, Control_c, 5, 11, 63
7, 120531, Control_c, 5, 1, 20
7, 120544, Control_c, 5, 11, 64
7, 120560, Control_c, 5, 11, 65
7, 120576, Note_on_c, 5, 83, 0
7, 120576, Note_on_c, 5, 85, 100
7, 120576, Control_c, 5, 11, 66
7, 120592, Control_c, 5, 11, 67
7, 120608, Control_c, 5, 11, 68
7, 120624, Note_on_c, 5, 85, 0
7, 120624, Note_on_c, 5, 86, 100
7, 120624, Control_c, 5, 11, 69
7, 120640, Control_c, 5, 11, 70
7, 120656, Control_c, 5, 11, 71
7, 120672, Note_on_c, 5, 86, 0
7, 120672, Note_on_c, 5, 85, 100
7, 120672, Control_c, 5, 11, 72
7, 120688, Control_c, 5, 11, 73
7, 120704, Control_c, 5, 11, 74
7, 120720, Note_on_c, 5, 85, 0
7, 120720, Note_on_c, 5, 86, 100
7, 120720, Control_c, 5, 11, 75
7, 120736, Control_c, 5, 11, 76
7, 120752, Control_c, 5, 11, 77
7, 120768, Note_on_c, 5, 86, 0
7, 120768, Note_on_c, 5, 88, 100
7, 120768, Control_c, 5, 11, 78
7, 120784, Control_c, 5, 11, 79
7, 120800, Control_c, 5, 11, 80
7, 120816, Note_on_c, 5, 88, 0
7, 120816, Control_c, 5, 1, 0
7, 120816, Note_on_c, 5, 90, 100
7, 120816, Control_c, 5, 11, 81
7, 120817, Control_c, 5, 1, 3
7, 120818, Control_c, 5, 1, 5
7, 120819, Control_c, 5, 1, 7
7, 120820, Control_c, 5, 1, 8
7, 120821, Control_c, 5, 1, 10
7, 120822, Control_c, 5, 1, 11
7, 120823, Control_c, 5, 1, 12
7, 120824, Control_c, 5, 1, 13
7, 120825, Control_c, 5, 1, 14
7, 120827, Control_c, 5, 1, 15
7, 120828, Control_c, 5, 1, 16
7, 120830, Control_c, 5, 1, 17
7, 120832, Control_c, 5, 11, 82
7, 120832, Control_c, 5, 1, 18
7, 120836, Control_c, 5, 1, 19
7, 120842, Control_c, 5, 1, 20
7, 120848, Control_c, 5, 11, 83
7, 120864, Note_on_c, 5, 90, 0
7, 120864, Note_on_c, 5, 93, 100
7, 120864, Control_c, 5, 11, 84
7, 120880, Control_c, 5, 11, 85
7, 120896, Control_c, 5, 11, 86
7, 120912, Note_on_c, 5, 93, 0
7, 120912, Control_c, 5, 11, 86
7, 120912, Note_on_c, 5, 95, 100
7, 120917, Control_c, 5, 11, 85
7, 120922, Control_c, 5, 11, 84
7, 120926, Control_c, 5, 11, 83
7, 120931, Control_c, 5, 11, 82
7, 120935, Control_c, 5, 11, 81
7, 120940, Control_c, 5, 11, 80
7, 120944, Control_c, 5, 11, 79
7, 120949, Control_c, 5, 11, 78
7, 120953, Control_c, 5, 11, 77
7, 120958, Control_c, 5, 11, 76
7, 120960, Note_on_c, 5, 95, 0
7, 120960, Note_on_c, 5, 91, 100
7, 120962, Control_c, 5, 11, 75
7, 120967, Control_c, 5, 11, 74
7, 120971, Control_c, 5, 11, 73
7, 120976, Control_c, 5, 11, 72
7, 120980, Control_c, 5, 11, 71
7, 120985, Control_c, 5, 11, 70
7, 120989, Control_c, 5, 11, 69
7, 120994, Control_c, 5, 11, 68
7, 120998, Control_c, 5, 11, 67
7, 121003, Control_c, 5, 11, 66
7, 121007, Control_c, 5, 11, 65
7, 121008, Note_on_c, 5, 91, 0
7, 121008, Control_c, 5, 11, 60
7, 121008, Control_c, 5, 1, 0
7, 121008, Note_on_c, 5, 81, 100
7, 121008, Note_on_c, 5, 86, 100
7, 121056, Note_on_c, 5, 86, 0
7, 121056, Note_on_c, 5, 81, 0
7, 121104, Note_on_c, 5, 81, 100
7, 121104, Note_on_c, 5, 85, 100
7, 121152, Note_on_c, 5, 85, 0
7, 121152, Note_on_c, 5, 81, 0
7, 128304, Control_c, 5, 1, 0
7, 128304, Control_c, 5, 11, 90
7, 128304, Note_on_c, 5, 86, 120
7, 128305, Control_c, 5, 11, 86
7, 128305, Control_c, 5, 1, 1
7, 128306, Control_c, 5, 11, 83
7, 128306, Control_c, 5, 1, 2
7, 128307, Control_c, 5, 11, 80
7, 128307, Control_c, 5, 1, 3
7, 128308, Control_c, 5, 11, 78
7, 128309, Control_c, 5, 11, 76
7, 128309, Control_c, 5, 1, 4
7, 128310, Control_c, 5, 11, 74
7, 128311, Control_c, 5, 11, 72
7, 128311, Control_c, 5, 1, 5
7, 128312, Control_c, 5, 11, 71
7, 128313, Control_c, 5, 11, 70
7, 128313, Control_c, 5, 1, 6
7, 128314, Control_c, 5, 11, 69
7, 128315, Control_c, 5, 11, 68
7, 128316, Control_c, 5, 11, 67
7, 128316, Control_c, 5, 1, 7
7, 128317, Control_c, 5, 11, 66
7, 128318, Control_c, 5, 11, 65
7, 128318, Control_c, 5, 1, 8
7, 128320, Control_c, 5, 11, 64
7, 128320, Control_c, 5, 1, 9
7, 128321, Control_c, 5, 11, 63
7, 128323, Control_c, 5, 1, 10
7, 128324, Control_c, 5, 11, 62
7, 128326, Control_c, 5, 1, 11
7, 128327, Control_c, 5, 11, 61
7, 128330, Control_c, 5, 1, 12
7, 128333, Control_c, 5, 11, 60
7, 128333, Control_c, 5, 1, 13
7, 128337, Control_c, 5, 1, 14
7, 128342, Control_c, 5, 1, 15
7, 128347, Control_c, 5, 1, 16
7, 128354, Control_c, 5, 1, 17
7, 128361, Control_c, 5, 1, 18
7, 128371, Control_c, 5, 1, 19
7, 128384, Control_c, 5, 1, 20
7, 128407, Control_c, 5, 1, 21
7, 128496, Control_c, 5, 11, 60
7, 128538, Control_c, 5, 11, 61
7, 128579, Control_c, 5, 11, 62
7, 128588, Note_on_c, 5, 86, 0
7, 128592, Control_c, 5, 1, 0
7, 128592, Note_on_c, 5, 88, 120
7, 128593, Control_c, 5, 1, 2
7, 128594, Control_c, 5, 1, 3
7, 128595, Control_c, 5, 1, 4
7, 128597, Control_c, 5, 1, 5
7, 128598, Control_c, 5, 1, 6
7, 128600, Control_c, 5, 1, 7
7, 128601, Control_c, 5, 1, 8
7, 128603, Control_c, 5, 1, 9
7, 128605, Control_c, 5, 1, 10
7, 128607, Control_c, 5, 1, 11
7, 128610, Control_c, 5, 1, 12
7, 128613, Control_c, 5, 1, 13
7, 128617, Control_c, 5, 1, 14
7, 128620, Control_c, 5, 11, 63
7, 128622, Control_c, 5, 1, 15
7, 128628, Control_c, 5, 1, 16
7, 128640, Control_c, 5, 1, 17
7, 128661, Control_c, 5, 11, 64
7, 128684, Note_on_c, 5, 88, 0
7, 128688, Control_c, 5, 1, 0
7, 128688, Note_on_c, 5, 90, 120
7, 128689, Control_c, 5, 1, 1
7, 128690, Control_c, 5, 1, 2
7, 128691, Control_c, 5, 1, 3
7, 128692, Control_c, 5, 1, 4
7, 128694, Control_c, 5, 1, 5
7, 128696, Control_c, 5, 1, 6
7, 128697, Control_c, 5, 1, 7
7, 128699, Control_c, 5, 1, 8
7, 128701, Control_c, 5, 1, 9
7, 128702, Control_c, 5, 11, 65
7, 128704, Control_c, 5, 1, 10
7, 128706, Control_c, 5, 1, 11
7, 128709, Control_c, 5, 1, 12
7, 128712, Control_c, 5, 1, 13
7, 128715, Control_c, 5, 1, 14
7, 128719, Control_c, 5, 1, 15
7, 128724, Control_c, 5, 1, 16
7, 128729, Control_c, 5, 1, 17
7, 128737, Control_c, 5, 1, 18
7, 128743, Control_c, 5, 11, 66
7, 128747, Control_c, 5, 1, 19
7, 128765, Control_c, 5, 1, 20
7, 128784, Control_c, 5, 11, 67
7, 128825, Control_c, 5, 11, 68
7, 128832, Note_on_c, 5, 90, 0
7, 128832, Note_on_c, 5, 91, 120
7, 128856, Note_on_c, 5, 91, 0
7, 128856, Note_on_c, 5, 93, 120
7, 128867, Control_c, 5, 11, 69
7, 128880, Note_on_c, 5, 93, 0
7, 128880, Control_c, 5, 1, 0
7, 128880, Note_on_c, 5, 91, 120
7, 128904, Note_on_c, 5, 91, 0
7, 128908, Control_c, 5, 11, 70
7, 128928, Note_on_c, 5, 91, 120
7, 128949, Control_c, 5, 11, 71
7, 128952, Note_on_c, 5, 91, 0
7, 128976, Note_on_c, 5, 90, 120
7, 128990, Control_c, 5, 11, 72
7, 129000, Note_on_c, 5, 90, 0
7, 129024, Note_on_c, 5, 90, 120
7, 129031, Control_c, 5, 11, 73
7, 129048, Note_on_c, 5, 90, 0
7, 129072, Control_c, 5, 1, 0
7, 129072, Note_on_c, 5, 88, 120
7, 129072, Control_c, 5, 11, 74
7, 129073, Control_c, 5, 1, 1
7, 129074, Control_c, 5, 1, 2
7, 129075, Control_c, 5, 1, 3
7, 129076, Control_c, 5, 1, 4
7, 129078, Control_c, 5, 1, 5
7, 129079, Control_c, 5, 1, 6
7, 129081, Control_c, 5, 1, 7
7, 129083, Control_c, 5, 1, 8
7, 129085, Control_c, 5, 1, 9
7, 129088, Control_c, 5, 1, 10
7, 129091, Control_c, 5, 1, 11
7, 129095, Control_c, 5, 1, 12
7, 129100, Control_c, 5, 1, 13
7, 129106, Control_c, 5, 1, 14
7, 129113, Control_c, 5, 11, 75
7, 129118, Control_c, 5, 1, 15
7, 129154, Control_c, 5, 11, 76
7, 129164, Note_on_c, 5, 88, 0
7, 129168, Control_c, 5, 1, 0
7, 129168, Note_on_c, 5, 86, 120
7, 129169, Control_c, 5, 1, 2
7, 129170, Control_c, 5, 1, 3
7, 129171, Control_c, 5, 1, 4
7, 129172, Control_c, 5, 1, 5
7, 129173, Control_c, 5, 1, 6
7, 129174, Control_c, 5, 1, 7
7, 129176, Control_c, 5, 1, 8
7, 129177, Control_c, 5, 1, 9
7, 129179, Control_c, 5, 1, 10
7, 129180, Control_c, 5, 1, 11
7, 129182, Control_c, 5, 1, 12
7, 129184, Control_c, 5, 1, 13
7, 129186, Control_c, 5, 1, 14
7, 129189, Control_c, 5, 1, 15
7, 129192, Control_c, 5, 1, 16
7, 129195, Control_c, 5, 11, 77
7, 129196, Control_c, 5, 1, 17
7, 129200, Control_c, 5, 1, 18
7, 129207, Control_c, 5, 1, 19
7, 129219, Control_c, 5, 1, 20
7, 129237, Control_c, 5, 11, 78
7, 129278, Control_c, 5, 11, 79
7, 129319, Control_c, 5, 11, 80
7, 129356, Note_on_c, 5, 86, 0
7, 129360, Control_c, 5, 1, 0
7, 129360, Note_on_c, 5, 88, 120
7, 129360, Control_c, 5, 11, 81
7, 129361, Control_c, 5, 1, 2
7, 129362, Control_c, 5, 1, 3
7, 129363, Control_c, 5, 1, 4
7, 129365, Control_c, 5, 1, 5
7, 129366, Control_c, 5, 1, 6
7, 129368, Control_c, 5, 1, 7
7, 129369, Control_c, 5, 1, 8
7, 129371, Control_c, 5, 1, 9
7, 129373, Control_c, 5, 1, 10
7, 129375, Control_c, 5, 1, 11
7, 129378, Control_c, 5, 1, 12
7, 129381, Control_c, 5, 1, 13
7, 129385, Control_c, 5, 1, 14
7, 129390, Control_c, 5, 1, 15
7, 129396, Control_c, 5, 1, 16
7, 129401, Control_c, 5, 11, 82
7, 129408, Control_c, 5, 1, 17
7, 129442, Control_c, 5, 11, 83
7, 129452, Note_on_c, 5, 88, 0
7, 129456, Control_c, 5, 1, 0
7, 129456, Note_on_c, 5, 90, 120
7, 129457, Control_c, 5, 1, 1
7, 129458, Control_c, 5, 1, 2
7, 129459, Control_c, 5, 1, 3
7, 129460, Control_c, 5, 1, 4
7, 129462, Control_c, 5, 1, 5
7, 129464, Control_c, 5, 1, 6
7, 129465, Control_c, 5, 1, 7
7, 129467, Control_c, 5, 1, 8
7, 129469, Control_c, 5, 1, 9
7, 129472, Control_c, 5, 1, 10
7, 129474, Control_c, 5, 1, 11
7, 129477, Control_c, 5, 1, 12
7, 129480, Control_c, 5, 1, 13
7, 129483, Control_c, 5, 11, 84
7, 129483, Control_c, 5, 1, 14
7, 129487, Control_c, 5, 1, 15
7, 129492, Control_c, 5, 1, 16
7, 129497, Control_c, 5, 1, 17
7, 129505, Control_c, 5, 1, 18
7, 129515, Control_c, 5, 1, 19
7, 129524, Control_c, 5, 11, 85
7, 129533, Control_c, 5, 1, 20
7, 129565, Control_c, 5, 11, 86
7, 129600, Note_on_c, 5, 90, 0
7, 129600, Note_on_c, 5, 91, 120
7, 129607, Control_c, 5, 11, 87
7, 129624, Note_on_c, 5, 91, 0
7, 129624, Note_on_c, 5, 93, 120
7, 129648, Note_on_c, 5, 93, 0
7, 129648, Control_c, 5, 1, 0
7, 129648, Note_on_c, 5, 91, 120
7, 129648, Control_c, 5, 11, 88
7, 129672, Note_on_c, 5, 91, 0
7, 129689, Control_c, 5, 11, 89
7, 129696, Note_on_c, 5, 91, 120
7, 129720, Note_on_c, 5, 91, 0
7, 129730, Control_c, 5, 11, 90
7, 129744, Note_on_c, 5, 90, 120
7, 129768, Note_on_c, 5, 90, 0
7, 129771, Control_c, 5, 11, 91
7, 129792, Note_on_c, 5, 90, 120
7, 129812, Control_c, 5, 11, 92
7, 129816, Note_on_c, 5, 90, 0
7, 129840, Note_on_c, 5, 88, 120
7, 129853, Control_c, 5, 11, 93
7, 129885, Note_on_c, 5, 88, 0
7, 129894, Control_c, 5, 11, 94
7, 129935, Control_c, 5, 11, 95
7, 129936, Control_c, 5, 1, 0
7, 129936, Note_on_c, 5, 86, 120
7, 129937, Control_c, 5, 1, 2
7, 129938, Control_c, 5, 1, 3
7, 129939, Control_c, 5, 1, 4
7, 129940, Control_c, 5, 1, 5
7, 129941, Control_c, 5, 1, 6
7, 129942, Control_c, 5, 1, 7
7, 129944, Control_c, 5, 1, 8
7, 129945, Control_c, 5, 1, 9
7, 129947, Control_c, 5, 1, 10
7, 129948, Control_c, 5, 1, 11
7, 129950, Control_c, 5, 1, 12
7, 129952, Control_c, 5, 1, 13
7, 129954, Control_c, 5, 1, 14
7, 129957, Control_c, 5, 1, 15
7, 129960, Control_c, 5, 1, 16
7, 129964, Control_c, 5, 1, 17
7, 129968, Control_c, 5, 1, 18
7, 129975, Control_c, 5, 1, 19
7, 129987, Control_c, 5, 1, 20
7, 130124, Note_on_c, 5, 86, 0
7, 130128, Control_c, 5, 1, 0
7, 130128, Note_on_c, 5, 88, 120
7, 130129, Control_c, 5, 1, 2
7, 130130, Control_c, 5, 1, 3
7, 130131, Control_c, 5, 1, 4
7, 130133, Control_c, 5, 1, 5
7, 130134, Control_c, 5, 1, 6
7, 130136, Control_c, 5, 1, 7
7, 130137, Control_c, 5, 1, 8
7, 130139, Control_c, 5, 1, 9
7, 130141, Control_c, 5, 1, 10
7, 130143, Control_c, 5, 1, 11
7, 130146, Control_c, 5, 1, 12
7, 130149, Control_c, 5, 1, 13
7, 130153, Control_c, 5, 1, 14
7, 130158, Control_c, 5, 1, 15
7, 130164, Control_c, 5, 1, 16
7, 130176, Control_c, 5, 1, 17
7, 130220, Note_on_c, 5, 88, 0
7, 130224, Control_c, 5, 1, 0
7, 130224, Note_on_c, 5, 90, 120
7, 130225, Control_c, 5, 1, 1
7, 130226, Control_c, 5, 1, 2
7, 130227, Control_c, 5, 1, 3
7, 130229, Control_c, 5, 1, 4
7, 130231, Control_c, 5, 1, 5
7, 130232, Control_c, 5, 1, 6
7, 130235, Control_c, 5, 1, 7
7, 130237, Control_c, 5, 1, 8
7, 130239, Control_c, 5, 1, 9
7, 130242, Control_c, 5, 1, 10
7, 130245, Control_c, 5, 1, 11
7, 130249, Control_c, 5, 1, 12
7, 130252, Control_c, 5, 1, 13
7, 130257, Control_c, 5, 1, 14
7, 130263, Control_c, 5, 1, 15
7, 130270, Control_c, 5, 1, 16
7, 130280, Control_c, 5, 1, 17
7, 130297, Control_c, 5, 1, 18
7, 130368, Note_on_c, 5, 90, 0
7, 130368, Control_c, 5, 1, 0
7, 130368, Note_on_c, 5, 91, 120
7, 130392, Note_on_c, 5, 91, 0
7, 130392, Note_on_c, 5, 93, 120
7, 130416, Note_on_c, 5, 93, 0
7, 130416, Note_on_c, 5, 91, 120
7, 130440, Note_on_c, 5, 91, 0
7, 130464, Note_on_c, 5, 91, 120
7, 130488, Note_on_c, 5, 91, 0
7, 130512, Note_on_c, 5, 90, 120
7, 130536, Note_on_c, 5, 90, 0
7, 130560, Note_on_c, 5, 90, 120
7, 130584, Note_on_c, 5, 90, 0
7, 130608, Control_c, 5, 1, 0
7, 130608, Note_on_c, 5, 88, 120
7, 130609, Control_c, 5, 1, 2
7, 130610, Control_c, 5, 1, 3
7, 130611, Control_c, 5, 1, 4
7, 130613, Control_c, 5, 1, 5
7, 130614, Control_c, 5, 1, 6
7, 130616, Control_c, 5, 1, 7
7, 130617, Control_c, 5, 1, 8
7, 130619, Control_c, 5, 1, 9
7, 130621, Control_c, 5, 1, 10
7, 130623, Control_c, 5, 1, 11
7, 130626, Control_c, 5, 1, 12
7, 130629, Control_c, 5, 1, 13
7, 130633, Control_c, 5, 1, 14
7, 130638, Control_c, 5, 1, 15
7, 130644, Control_c, 5, 1, 16
7, 130656, Control_c, 5, 1, 17
7, 130700, Note_on_c, 5, 88, 0
7, 130704, Control_c, 5, 1, 0
7, 130704, Note_on_c, 5, 86, 120
7, 130705, Control_c, 5, 1, 2
7, 130706, Control_c, 5, 1, 3
7, 130707, Control_c, 5, 1, 4
7, 130709, Control_c, 5, 1, 5
7, 130710, Control_c, 5, 1, 6
7, 130712, Control_c, 5, 1, 7
7, 130713, Control_c, 5, 1, 8
7, 130715, Control_c, 5, 1, 9
7, 130717, Control_c, 5, 1, 10
7, 130719, Control_c, 5, 1, 11
7, 130722, Control_c, 5, 1, 12
7, 130725, Control_c, 5, 1, 13
7, 130729, Control_c, 5, 1, 14
7, 130734, Control_c, 5, 1, 15
7, 130740, Control_c, 5, 1, 16
7, 130752, Control_c, 5, 1, 17
7, 130892, Note_on_c, 5, 86, 0
7, 130896, Control_c, 5, 1, 0
7, 130896, Note_on_c, 5, 88, 120
7, 130897, Control_c, 5, 1, 2
7, 130898, Control_c, 5, 1, 3
7, 130899, Control_c, 5, 1, 4
7, 130900, Control_c, 5, 1, 5
7, 130902, Control_c, 5, 1, 6
7, 130903, Control_c, 5, 1, 7
7, 130904, Control_c, 5, 1, 8
7, 130905, Control_c, 5, 1, 9
7, 130907, Control_c, 5, 1, 10
7, 130909, Control_c, 5, 1, 11
7, 130911, Control_c, 5, 1, 12
7, 130913, Control_c, 5, 1, 13
7, 130916, Control_c, 5, 1, 14
7, 130919, Control_c, 5, 1, 15
7, 130923, Control_c, 5, 1, 16
7, 130928, Control_c, 5, 1, 17
7, 130935, Control_c, 5, 1, 18
7, 130946, Control_c, 5, 1, 19
7, 130988, Note_on_c, 5, 88, 0
7, 130992, Control_c, 5, 1, 0
7, 130992, Note_on_c, 5, 90, 120
7, 130993, Control_c, 5, 1, 1
7, 130994, Control_c, 5, 1, 2
7, 130995, Control_c, 5, 1, 3
7, 130996, Control_c, 5, 1, 4
7, 130998, Control_c, 5, 1, 5
7, 131000, Control_c, 5, 1, 6
7, 131001, Control_c, 5, 1, 7
7, 131003, Control_c, 5, 1, 8
7, 131005, Control_c, 5, 1, 9
7, 131008, Control_c, 5, 1, 10
7, 131010, Control_c, 5, 1, 11
7, 131013, Control_c, 5, 1, 12
7, 131016, Control_c, 5, 1, 13
7, 131019, Control_c, 5, 1, 14
7, 131023, Control_c, 5, 1, 15
7, 131028, Control_c, 5, 1, 16
7, 131033, Control_c, 5, 1, 17
7, 131041, Control_c, 5, 1, 18
7, 131051, Control_c, 5, 1, 19
7, 131069, Control_c, 5, 1, 20
7, 131136, Note_on_c, 5, 90, 0
7, 131136, Note_on_c, 5, 91, 120
7, 131160, Note_on_c, 5, 91, 0
7, 131160, Note_on_c, 5, 93, 120
7, 131184, Note_on_c, 5, 93, 0
7, 131184, Control_c, 5, 1, 0
7, 131184, Note_on_c, 5, 91, 120
7, 131208, Note_on_c, 5, 91, 0
7, 131232, Note_on_c, 5, 91, 120
7, 131256, Note_on_c, 5, 91, 0
7, 131280, Note_on_c, 5, 90, 118
7, 131304, Note_on_c, 5, 90, 0
7, 131328, Note_on_c, 5, 90, 118
7, 131352, Note_on_c, 5, 90, 0
7, 131376, Note_on_c, 5, 86, 120
7, 131400, Note_on_c, 5, 86, 0
7, 133728, Control_c, 5, 1, 0
7, 133728, Control_c, 5, 11, 60
7, 133728, Note_on_c, 5, 81, 100
7, 133729, Control_c, 5, 1, 2
7, 133730, Control_c, 5, 1, 3
7, 133731, Control_c, 5, 1, 4
7, 133732, Control_c, 5, 1, 5
7, 133733, Control_c, 5, 1, 6
7, 133734, Control_c, 5, 1, 7
7, 133736, Control_c, 5, 1, 8
7, 133737, Control_c, 5, 1, 9
7, 133739, Control_c, 5, 1, 10
7, 133740, Control_c, 5, 1, 11
7, 133742, Control_c, 5, 1, 12
7, 133744, Control_c, 5, 11, 61
7, 133744, Control_c, 5, 1, 13
7, 133746, Control_c, 5, 1, 14
7, 133749, Control_c, 5, 1, 15
7, 133752, Control_c, 5, 1, 16
7, 133756, Control_c, 5, 1, 17
7, 133760, Control_c, 5, 11, 62
7, 133760, Control_c, 5, 1, 18
7, 133767, Control_c, 5, 1, 19
7, 133776, Note_on_c, 5, 81, 0
7, 133776, Note_on_c, 5, 83, 100
7, 133776, Control_c, 5, 11, 63
7, 133779, Control_c, 5, 1, 20
7, 133792, Control_c, 5, 11, 64
7, 133808, Control_c, 5, 11, 65
7, 133824, Note_on_c, 5, 83, 0
7, 133824, Note_on_c, 5, 85, 100
7, 133824, Control_c, 5, 11, 66
7, 133840, Control_c, 5, 11, 67
7, 133856, Control_c, 5, 11, 68
7, 133872, Note_on_c, 5, 85, 0
7, 133872, Note_on_c, 5, 86, 100
7, 133872, Control_c, 5, 11, 69
7, 133888, Control_c, 5, 11, 70
7, 133904, Control_c, 5, 11, 71
7, 133920, Note_on_c, 5, 86, 0
7, 133920, Note_on_c, 5, 85, 100
7, 133920, Control_c, 5, 11, 72
7, 133936, Control_c, 5, 11, 73
7, 133952, Control_c, 5, 11, 74
7, 133968, Note_on_c, 5, 85, 0
7, 133968, Note_on_c, 5, 86, 100
7, 133968, Control_c, 5, 11, 75
7, 133984, Control_c, 5, 11, 76
7, 134000, Control_c, 5, 11, 77
7, 134016, Note_on_c, 5, 86, 0
7, 134016, Note_on_c, 5, 88, 100
7, 134016, Control_c, 5, 11, 78
7, 134032, Control_c, 5, 11, 79
7, 134048, Control_c, 5, 11, 80
7, 134064, Note_on_c, 5, 88, 0
7, 134064, Control_c, 5, 1, 0
7, 134064, Note_on_c, 5, 90, 100
7, 134064, Control_c, 5, 11, 81
7, 134065, Control_c, 5, 1, 3
7, 134066, Control_c, 5, 1, 5
7, 134067, Control_c, 5, 1, 7
7, 134068, Control_c, 5, 1, 8
7, 134069, Control_c, 5, 1, 10
7, 134070, Control_c, 5, 1, 11
7, 134071, Control_c, 5, 1, 12
7, 134072, Control_c, 5, 1, 13
7, 134073, Control_c, 5, 1, 14
7, 134075, Control_c, 5, 1, 15
7, 134076, Control_c, 5, 1, 16
7, 134078, Control_c, 5, 1, 17
7, 134080, Control_c, 5, 11, 82
7, 134080, Control_c, 5, 1, 18
7, 134084, Control_c, 5, 1, 19
7, 134090, Control_c, 5, 1, 20
7, 134096, Control_c, 5, 11, 83
7, 134112, Note_on_c, 5, 90, 0
7, 134112, Note_on_c, 5, 93, 100
7, 134112, Control_c, 5, 11, 84
7, 134128, Control_c, 5, 11, 85
7, 134144, Control_c, 5, 11, 86
7, 134160, Note_on_c, 5, 93, 0
7, 134160, Control_c, 5, 11, 86
7, 134160, Note_on_c, 5, 95, 100
7, 134165, Control_c, 5, 11, 85
7, 134170, Control_c, 5, 11, 84
7, 134174, Control_c, 5, 11, 83
7, 134179, Control_c, 5, 11, 82
7, 134183, Control_c, 5, 11, 81
7, 134188, Control_c, 5, 11, 80
7, 134192, Control_c, 5, 11, 79
7, 134197, Control_c, 5, 11, 78
7, 134201, Control_c, 5, 11, 77
7, 134206, Control_c, 5, 11, 76
7, 134208, Note_on_c, 5, 95, 0
7, 134208, Note_on_c, 5, 91, 100
7, 134210, Control_c, 5, 11, 75
7, 134215, Control_c, 5, 11, 74
7, 134219, Control_c, 5, 11, 73
7, 134224, Control_c, 5, 11, 72
7, 134228, Control_c, 5, 11, 71
7, 134233, Control_c, 5, 11, 70
7, 134237, Control_c, 5, 11, 69
7, 134242, Control_c, 5, 11, 68
7, 134246, Control_c, 5, 11, 67
7, 134251, Control_c, 5, 11, 66
7, 134255, Control_c, 5, 11, 65
7, 134256, Note_on_c, 5, 91, 0
7, 134256, Control_c, 5, 11, 60
7, 134256, Control_c, 5, 1, 0
7, 134256, Note_on_c, 5, 81, 100
7, 134256, Note_on_c, 5, 86, 100
7, 134304, Note_on_c, 5, 86, 0
7, 134304, Note_on_c, 5, 81, 0
7, 134352, Note_on_c, 5, 81, 100
7, 134352, Note_on_c, 5, 85, 100
7, 134400, Note_on_c, 5, 85, 0
7, 134400, Note_on_c, 5, 81, 0
7, 141552, Control_c, 5, 1, 0
7, 141552, Control_c, 5, 11, 90
7, 141552, Note_on_c, 5, 86, 120
7, 141553, Control_c, 5, 11, 86
7, 141553, Control_c, 5, 1, 1
7, 141554, Control_c, 5, 11, 83
7, 141554, Control_c, 5, 1, 2
7, 141555, Control_c, 5, 11, 80
7, 141555, Control_c, 5, 1, 3
7, 141556, Control_c, 5, 11, 78
7, 141557, Control_c, 5, 11, 76
7, 141557, Control_c, 5, 1, 4
7, 141558, Control_c, 5, 11, 74
7, 141559, Control_c, 5, 11, 72
7, 141559, Control_c, 5, 1, 5
7, 141560, Control_c, 5, 11, 71
7, 141561, Control_c, 5, 11, 70
7, 141561, Control_c, 5, 1, 6
7, 141562, Control_c, 5, 11, 69
7, 141563, Control_c, 5, 11, 68
7, 141564, Control_c, 5, 11, 67
7, 141564, Control_c, 5, 1, 7
7, 141565, Control_c, 5, 11, 66
7, 141566, Control_c, 5, 11, 65
7, 141566, Control_c, 5, 1, 8
7, 141568, Control_c, 5, 11, 64
7, 141568, Control_c, 5, 1, 9
7, 141569, Control_c, 5, 11, 63
7, 141571, Control_c, 5, 1, 10
7, 141572, Control_c, 5, 11, 62
7, 141574, Control_c, 5, 1, 11
7, 141575, Control_c, 5, 11, 61
7, 141578, Control_c, 5, 1, 12
7, 141581, Control_c, 5, 11, 60
7, 141581, Control_c, 5, 1, 13
7, 141585, Control_c, 5, 1, 14
7, 141590, Control_c, 5, 1, 15
7, 141595, Control_c, 5, 1, 16
7, 141602, Control_c, 5, 1, 17
7, 141609, Control_c, 5, 1, 18
7, 141619, Control_c, 5, 1, 19
7, 141632, Control_c, 5, 1, 20
7, 141655, Control_c, 5, 1, 21
7, 141744, Control_c, 5, 11, 60
7, 141786, Control_c, 5, 11, 61
7, 141827, Control_c, 5, 11, 62
7, 141836, Note_on_c, 5, 86, 0
7, 141840, Control_c, 5, 1, 0
7, 141840, Note_on_c, 5, 88, 120
7, 141841, Control_c, 5, 1, 2
7, 141842, Control_c, 5, 1, 3
7, 141843, Control_c, 5, 1, 4
7, 141845, Control_c, 5, 1, 5
7, 141846, Control_c, 5, 1, 6
7, 141848, Control_c, 5, 1, 7
7, 141849, Control_c, 5, 1, 8
7, 141851, Control_c, 5, 1, 9
7, 141853, Control_c, 5, 1, 10
7, 141855, Control_c, 5, 1, 11
7, 141858, Control_c, 5, 1, 12
7, 141861, Control_c, 5, 1, 13
7, 141865, Control_c, 5, 1, 14
7, 141868, Control_c, 5, 11, 63
7, 141870, Control_c, 5, 1, 15
7, 141876, Control_c, 5, 1, 16
7, 141888, Control_c, 5, 1, 17
7, 141909, Control_c, 5, 11, 64
7, 141932, Note_on_c, 5, 88, 0
7, 141936, Control_c, 5, 1, 0
7, 141936, Note_on_c, 5, 90, 120
7, 141937, Control_c, 5, 1, 1
7, 141938, Control_c, 5, 1, 2
7, 141939, Control_c, 5, 1, 3
7, 141940, Control_c, 5, 1, 4
7, 141942, Control_c, 5, 1, 5
7, 141944, Control_c, 5, 1, 6
7, 141945, Control_c, 5, 1, 7
7, 141947, Control_c, 5, 1, 8
7, 141949, Control_c, 5, 1, 9
7, 141950, Control_c, 5, 11, 65
7, 141952, Control_c, 5, 1, 10
7, 141954, Control_c, 5, 1, 11
7, 141957, Control_c, 5, 1, 12
7, 141960, Control_c, 5, 1, 13
7, 141963, Control_c, 5, 1, 14
7, 141967, Control_c, 5, 1, 15
7, 141972, Control_c, 5, 1, 16
7, 141977, Control_c, 5, 1, 17
7, 141985, Control_c, 5, 1, 18
7, 141991, Control_c, 5, 11, 66
7, 141995, Control_c, 5, 1, 19
7, 142013, Control_c, 5, 1, 20
7, 142032, Control_c, 5, 11, 67
7, 142073, Control_c, 5, 11, 68
7, 142080, Note_on_c, 5, 90, 0
7, 142080, Note_on_c, 5, 91, 120
7, 142104, Note_on_c, 5, 91, 0
7, 142104, Note_on_c, 5, 93, 120
7, 142115, Control_c, 5, 11, 69
7, 142128, Note_on_c, 5, 93, 0
7, 142128, Control_c, 5, 1, 0
7, 142128, Note_on_c, 5, 91, 120
7, 142152, Note_on_c, 5, 91, 0
7, 142156, Control_c, 5, 11, 70
7, 142176, Note_on_c, 5, 91, 120
7, 142197, Control_c, 5, 11, 71
7, 142200, Note_on_c, 5, 91, 0
7, 142224, Note_on_c, 5, 90, 120
7, 142238, Control_c, 5, 11, 72
7, 142248, Note_on_c, 5, 90, 0
7, 142272, Note_on_c, 5, 90, 120
7, 142279, Control_c, 5, 11, 73
7, 142296, Note_on_c, 5, 90, 0
7, 142320, Control_c, 5, 1, 0
7, 142320, Note_on_c, 5, 88, 120
7, 142320, Control_c, 5, 11, 74
7, 142321, Control_c, 5, 1, 1
7, 142322, Control_c, 5, 1, 2
7, 142323, Control_c, 5, 1, 3
7, 142324, Control_c, 5, 1, 4
7, 142326, Control_c, 5, 1, 5
7, 142327, Control_c, 5, 1, 6
7, 142329, Control_c, 5, 1, 7
7, 142331, Control_c, 5, 1, 8
7, 142333, Control_c, 5, 1, 9
7, 142336, Control_c, 5, 1, 10
7, 142339, Control_c, 5, 1, 11
7, 142343, Control_c, 5, 1, 12
7, 142348, Control_c, 5, 1, 13
7, 142354, Control_c, 5, 1, 14
7, 142361, Control_c, 5, 11, 75
7, 142366, Control_c, 5, 1, 15
7, 142402, Control_c, 5, 11, 76
7, 142412, Note_on_c, 5, 88, 0
7, 142416, Control_c, 5, 1, 0
7, 142416, Note_on_c, 5, 86, 120
7, 142417, Control_c, 5, 1, 2
7, 142418, Control_c, 5, 1, 3
7, 142419, Control_c, 5, 1, 4
7, 142420, Control_c, 5, 1, 5
7, 142421, Control_c, 5, 1, 6
7, 142422, Control_c, 5, 1, 7
7, 142424, Control_c, 5, 1, 8
7, 142425, Control_c, 5, 1, 9
7, 142427, Control_c, 5, 1, 10
7, 142428, Control_c, 5, 1, 11
7, 142430, Control_c, 5, 1, 12
7, 142432, Control_c, 5, 1, 13
7, 142434, Control_c, 5, 1, 14
7, 142437, Control_c, 5, 1, 15
7, 142440, Control_c, 5, 1, 16
7, 142443, Control_c, 5, 11, 77
7, 142444, Control_c, 5, 1, 17
7, 142448, Control_c, 5, 1, 18
7, 142455, Control_c, 5, 1, 19
7, 142467, Control_c, 5, 1, 20
7, 142485, Control_c, 5, 11, 78
7, 142526, Control_c, 5, 11, 79
7, 142567, Control_c, 5, 11, 80
7, 142604, Note_on_c, 5, 86, 0
7, 142608, Control_c, 5, 1, 0
7, 142608, Note_on_c, 5, 88, 120
7, 142608, Control_c, 5, 11, 81
7, 142609, Control_c, 5, 1, 2
7, 142610, Control_c, 5, 1, 3
7, 142611, Control_c, 5, 1, 4
7, 142613, Control_c, 5, 1, 5
7, 142614, Control_c, 5, 1, 6
7, 142616, Control_c, 5, 1, 7
7, 142617, Control_c, 5, 1, 8
7, 142619, Control_c, 5, 1, 9
7, 142621, Control_c, 5, 1, 10
7, 142623, Control_c, 5, 1, 11
7, 142626, Control_c, 5, 1, 12
7, 142629, Control_c, 5, 1, 13
7, 142633, Control_c, 5, 1, 14
7, 142638, Control_c, 5, 1, 15
7, 142644, Control_c, 5, 1, 16
7, 142649, Control_c, 5, 11, 82
7, 142656, Control_c, 5, 1, 17
7, 142690, Control_c, 5, 11, 83
7, 142700, Note_on_c, 5, 88, 0
7, 142704, Control_c, 5, 1, 0
7, 142704, Note_on_c, 5, 90, 120
7, 142705, Control_c, 5, 1, 1
7, 142706, Control_c, 5, 1, 2
7, 142707, Control_c, 5, 1, 3
7, 142708, Control_c, 5, 1, 4
7, 142710, Control_c, 5, 1, 5
7, 142712, Control_c, 5, 1, 6
7, 142713, Control_c, 5, 1, 7
7, 142715, Control_c, 5, 1, 8
7, 142717, Control_c, 5, 1, 9
7, 142720, Control_c, 5, 1, 10
7, 142722, Control_c, 5, 1, 11
7, 142725, Control_c, 5, 1, 12
7, 142728, Control_c, 5, 1, 13
7, 142731, Control_c, 5, 11, 84
7, 142731, Control_c, 5, 1, 14
7, 142735, Control_c, 5, 1, 15
7, 142740, Control_c, 5, 1, 16
7, 142745, Control_c, 5, 1, 17
7, 142753, Control_c, 5, 1, 18
7, 142763, Control_c, 5, 1, 19
7, 142772, Control_c, 5, 11, 85
7, 142781, Control_c, 5, 1, 20
7, 142813, Control_c, 5, 11, 86
7, 142848, Note_on_c, 5, 90, 0
7, 142848, Note_on_c, 5, 91, 120
7, 142855, Control_c, 5, 11, 87
7, 142872, Note_on_c, 5, 91, 0
7, 142872, Note_on_c, 5, 93, 120
7, 142896, Note_on_c, 5, 93, 0
7, 142896, Control_c, 5, 1, 0
7, 142896, Note_on_c, 5, 91, 120
7, 142896, Control_c, 5, 11, 88
7, 142920, Note_on_c, 5, 91, 0
7, 142937, Control_c, 5, 11, 89
7, 142944, Note_on_c, 5, 91, 120
7, 142968, Note_on_c, 5, 91, 0
7, 142978, Control_c, 5, 11, 90
7, 142992, Note_on_c, 5, 90, 120
7, 143016, Note_on_c, 5, 90, 0
7, 143019, Control_c, 5, 11, 91
7, 143040, Note_on_c, 5, 90, 120
7, 143060, Control_c, 5, 11, 92
7, 143064, Note_on_c, 5, 90, 0
7, 143088, Note_on_c, 5, 88, 120
7, 143101, Control_c, 5, 11, 93
7, 143133, Note_on_c, 5, 88, 0
7, 143142, Control_c, 5, 11, 94
7, 143183, Control_c, 5, 11, 95
7, 143184, Control_c, 5, 1, 0
7, 143184, Note_on_c, 5, 86, 120
7, 143185, Control_c, 5, 1, 2
7, 143186, Control_c, 5, 1, 3
7, 143187, Control_c, 5, 1, 4
7, 143188, Control_c, 5, 1, 5
7, 143189, Control_c, 5, 1, 6
7, 143190, Control_c, 5, 1, 7
7, 143192, Control_c, 5, 1, 8
7, 143193, Control_c, 5, 1, 9
7, 143195, Control_c, 5, 1, 10
7, 143196, Control_c, 5, 1, 11
7, 143198, Control_c, 5, 1, 12
7, 143200, Control_c, 5, 1, 13
7, 143202, Control_c, 5, 1, 14
7, 143205, Control_c, 5, 1, 15
7, 143208, Control_c, 5, 1, 16
7, 143212, Control_c, 5, 1, 17
7, 143216, Control_c, 5, 1, 18
7, 143223, Control_c, 5, 1, 19
7, 143235, Control_c, 5, 1, 20
7, 143372, Note_on_c, 5, 86, 0
7, 143376, Control_c, 5, 1, 0
7, 143376, Note_on_c, 5, 88, 120
7, 143377, Control_c, 5, 1, 2
7, 143378, Control_c, 5, 1, 3
7, 143379, Control_c, 5, 1, 4
7, 143381, Control_c, 5, 1, 5
7, 143382, Control_c, 5, 1, 6
7, 143384, Control_c, 5, 1, 7
7, 143385, Control_c, 5, 1, 8
7, 143387, Control_c, 5, 1, 9
7, 143389, Control_c, 5, 1, 10
7, 143391, Control_c, 5, 1, 11
7, 143394, Control_c, 5, 1, 12
7, 143397, Control_c, 5, 1, 13
7, 143401, Control_c, 5, 1, 14
7, 143406, Control_c, 5, 1, 15
7, 143412, Control_c, 5, 1, 16
7, 143424, Control_c, 5, 1, 17
7, 143468, Note_on_c, 5, 88, 0
7, 143472, Control_c, 5, 1, 0
7, 143472, Note_on_c, 5, 90, 120
7, 143473, Control_c, 5, 1, 1
7, 143474, Control_c, 5, 1, 2
7, 143475, Control_c, 5, 1, 3
7, 143477, Control_c, 5, 1, 4
7, 143479, Control_c, 5, 1, 5
7, 143480, Control_c, 5, 1, 6
7, 143483, Control_c, 5, 1, 7
7, 143485, Control_c, 5, 1, 8
7, 143487, Control_c, 5, 1, 9
7, 143490, Control_c, 5, 1, 10
7, 143493, Control_c, 5, 1, 11
7, 143497, Control_c, 5, 1, 12
7, 143500, Control_c, 5, 1, 13
7, 143505, Control_c, 5, 1, 14
7, 143511, Control_c, 5, 1, 15
7, 143518, Control_c, 5, 1, 16
7, 143528, Control_c, 5, 1, 17
7, 143545, Control_c, 5, 1, 18
7, 143616, Note_on_c, 5, 90, 0
7, 143616, Control_c, 5, 1, 0
7, 143616, Note_on_c, 5, 91, 120
7, 143640, Note_on_c, 5, 91, 0
7, 143640, Note_on_c, 5, 93, 120
7, 143664, Note_on_c, 5, 93, 0
7, 143664, Note_on_c, 5, 91, 120
7, 143688, Note_on_c, 5, 91, 0
7, 143712, Note_on_c, 5, 91, 120
7, 143736, Note_on_c, 5, 91, 0
7, 143760, Note_on_c, 5, 90, 120
7, 143784, Note_on_c, 5, 90, 0
7, 143808, Note_on_c, 5, 90, 120
7, 143832, Note_on_c, 5, 90, 0
7, 143856, Control_c, 5, 1, 0
7, 143856, Note_on_c, 5, 88, 120
7, 143857, Control_c, 5, 1, 2
7, 143858, Control_c, 5, 1, 3
7, 143859, Control_c, 5, 1, 4
7, 143861, Control_c, 5, 1, 5
7, 143862, Control_c, 5, 1, 6
7, 143864, Control_c, 5, 1, 7
7, 143865, Control_c, 5, 1, 8
7, 143867, Control_c, 5, 1, 9
7, 143869, Control_c, 5, 1, 10
7, 143871, Control_c, 5, 1, 11
7, 143874, Control_c, 5, 1, 12
7, 143877, Control_c, 5, 1, 13
7, 143881, Control_c, 5, 1, 14
7, 143886, Control_c, 5, 1, 15
7, 143892, Control_c, 5, 1, 16
7, 143904, Control_c, 5, 1, 17
7, 143948, Note_on_c, 5, 88, 0
7, 143952, Control_c, 5, 1, 0
7, 143952, Note_on_c, 5, 86, 120
7, 143953, Control_c, 5, 1, 2
7, 143954, Control_c, 5, 1, 3
7, 143955, Control_c, 5, 1, 4
7, 143957, Control_c, 5, 1, 5
7, 143958, Control_c, 5, 1, 6
7, 143960, Control_c, 5, 1, 7
7, 143961, Control_c, 5, 1, 8
7, 143963, Control_c, 5, 1, 9
7, 143965, Control_c, 5, 1, 10
7, 143967, Control_c, 5, 1, 11
7, 143970, Control_c, 5, 1, 12
7, 143973, Control_c, 5, 1, 13
7, 143977, Control_c, 5, 1, 14
7, 143982, Control_c, 5, 1, 15
7, 143988, Control_c, 5, 1, 16
7, 144000, Control_c, 5, 1, 17
7, 144140, Note_on_c, 5, 86, 0
7, 144144, Control_c, 5, 1, 0
7, 144144, Note_on_c, 5, 88, 120
7, 144145, Control_c, 5, 1, 2
7, 144146, Control_c, 5, 1, 3
7, 144147, Control_c, 5, 1, 4
7, 144148, Control_c, 5, 1, 5
7, 144150, Control_c, 5, 1, 6
7, 144151, Control_c, 5, 1, 7
7, 144152, Control_c, 5, 1, 8
7, 144153, Control_c, 5, 1, 9
7, 144155, Control_c, 5, 1, 10
7, 144157, Control_c, 5, 1, 11
7, 144159, Control_c, 5, 1, 12
7, 144161, Control_c, 5, 1, 13
7, 144164, Control_c, 5, 1, 14
7, 144167, Control_c, 5, 1, 15
7, 144171, Control_c, 5, 1, 16
7, 144176, Control_c, 5, 1, 17
7, 144183, Control_c, 5, 1, 18
7, 144194, Control_c, 5, 1, 19
7, 144236, Note_on_c, 5, 88, 0
7, 144240, Control_c, 5, 1, 0
7, 144240, Note_on_c, 5, 90, 120
7, 144241, Control_c, 5, 1, 1
7, 144242, Control_c, 5, 1, 2
7, 144243, Control_c, 5, 1, 3
7, 144244, Control_c, 5, 1, 4
7, 144246, Control_c, 5, 1, 5
7, 144248, Control_c, 5, 1, 6
7, 144249, Control_c, 5, 1, 7
7, 144251, Control_c, 5, 1, 8
7, 144253, Control_c, 5, 1, 9
7, 144256, Control_c, 5, 1, 10
7, 144258, Control_c, 5, 1, 11
7, 144261, Control_c, 5, 1, 12
7, 144264, Control_c, 5, 1, 13
7, 144267, Control_c, 5, 1, 14
7, 144271, Control_c, 5, 1, 15
7, 144276, Control_c, 5, 1, 16
7, 144281, Control_c, 5, 1, 17
7, 144289, Control_c, 5, 1, 18
7, 144299, Control_c, 5, 1, 19
7, 144317, Control_c, 5, 1, 20
7, 144384, Note_on_c, 5, 90, 0
7, 144384, Note_on_c, 5, 91, 120
7, 144408, Note_on_c, 5, 91, 0
7, 144408, Note_on_c, 5, 93, 120
7, 144432, Note_on_c, 5, 93, 0
7, 144432, Control_c, 5, 1, 0
7, 144432, Note_on_c, 5, 91, 120
7, 144456, Note_on_c, 5, 91, 0
7, 144480, Note_on_c, 5, 91, 120
7, 144504, Note_on_c, 5, 91, 0
7, 144528, Note_on_c, 5, 90, 118
7, 144552, Note_on_c, 5, 90, 0
7, 144576, Note_on_c, 5, 90, 118
7, 144600, Note_on_c, 5, 90, 0
7, 144624, Note_on_c, 5, 86, 120
7, 144648, Note_on_c, 5, 86, 0
7, 144720, Control_c, 5, 11, 120
7, 144720, Note_on_c, 5, 86, 62
7, 144744, Note_on_c, 5, 86, 0
7, 144768, Note_on_c, 5, 85, 61
7, 144792, Note_on_c, 5, 85, 0
7, 144816, Note_on_c, 5, 86, 62
7, 144840, Note_on_c, 5, 86, 0
7, 144864, Note_on_c, 5, 83, 59
7, 144888, Note_on_c, 5, 83, 0
7, 144912, Note_on_c, 5, 81, 57
7, 144936, Note_on_c, 5, 81, 0
7, 144960, Note_on_c, 5, 79, 55
7, 144984, Note_on_c, 5, 79, 0
7, 145008, Note_on_c, 5, 78, 54
7, 145032, Note_on_c, 5, 78, 0
7, 145056, Note_on_c, 5, 88, 59
7, 145080, Note_on_c, 5, 88, 0
7, 145104, Note_on_c, 5, 86, 62
7, 145128, Note_on_c, 5, 86, 0
7, 145152, Note_on_c, 5, 84, 60
7, 145176, Note_on_c, 5, 84, 0
7, 145200, Note_on_c, 5, 83, 59
7, 145224, Note_on_c, 5, 83, 0
7, 145248, Note_on_c, 5, 85, 61
7, 145272, Note_on_c, 5, 85, 0
7, 145296, Note_on_c, 5, 86, 62
7, 145320, Note_on_c, 5, 86, 0
7, 145344, Note_on_c, 5, 90, 66
7, 145368, Note_on_c, 5, 90, 0
7, 145392, Note_on_c, 5, 93, 69
7, 145416, Note_on_c, 5, 93, 0
7, 145440, Note_on_c, 5, 85, 61
7, 145464, Note_on_c, 5, 85, 0
7, 145488, Note_on_c, 5, 86, 62
7, 145512, Note_on_c, 5, 86, 0
7, 145536, Note_on_c, 5, 85, 61
7, 145560, Note_on_c, 5, 85, 0
7, 145584, Note_on_c, 5, 86, 62
7, 145608, Note_on_c, 5, 86, 0
7, 145632, Note_on_c, 5, 83, 59
7, 145656, Note_on_c, 5, 83, 0
7, 145680, Note_on_c, 5, 81, 57
7, 145704, Note_on_c, 5, 81, 0
7, 145728, Note_on_c, 5, 79, 55
7, 145752, Note_on_c, 5, 79, 0
7, 145776, Note_on_c, 5, 78, 66
7, 145800, Note_on_c, 5, 78, 0
7, 145824, Note_on_c, 5, 74, 67
7, 145848, Note_on_c, 5, 74, 0
7, 145872, Note_on_c, 5, 90, 69
7, 145896, Note_on_c, 5, 90, 0
7, 145920, Note_on_c, 5, 88, 70
7, 145944, Note_on_c, 5, 88, 0
7, 145968, Note_on_c, 5, 90, 71
7, 145992, Note_on_c, 5, 90, 0
7, 146016, Note_on_c, 5, 86, 72
7, 146040, Note_on_c, 5, 86, 0
7, 146064, Note_on_c, 5, 85, 73
7, 146088, Note_on_c, 5, 85, 0
7, 146112, Note_on_c, 5, 83, 74
7, 146136, Note_on_c, 5, 83, 0
7, 146160, Note_on_c, 5, 81, 75
7, 146184, Note_on_c, 5, 81, 0
7, 146208, Note_on_c, 5, 78, 76
7, 146232, Note_on_c, 5, 78, 0
7, 146256, Note_on_c, 5, 93, 78
7, 146280, Note_on_c, 5, 93, 0
7, 146304, Note_on_c, 5, 92, 79
7, 146328, Note_on_c, 5, 92, 0
7, 146352, Note_on_c, 5, 93, 80
7, 146376, Note_on_c, 5, 93, 0
7, 146400, Note_on_c, 5, 90, 81
7, 146424, Note_on_c, 5, 90, 0
7, 146448, Note_on_c, 5, 88, 82
7, 146472, Note_on_c, 5, 88, 0
7, 146496, Note_on_c, 5, 85, 83
7, 146520, Note_on_c, 5, 85, 0
7, 146544, Note_on_c, 5, 81, 84
7, 146568, Note_on_c, 5, 81, 0
7, 146592, Note_on_c, 5, 92, 85
7, 146616, Note_on_c, 5, 92, 0
7, 146640, Note_on_c, 5, 93, 87
7, 146664, Note_on_c, 5, 93, 0
7, 146688, Note_on_c, 5, 92, 88
7, 146712, Note_on_c, 5, 92, 0
7, 146736, Note_on_c, 5, 93, 89
7, 146760, Note_on_c, 5, 93, 0
7, 146784, Note_on_c, 5, 90, 90
7, 146808, Note_on_c, 5, 90, 0
7, 146832, Note_on_c, 5, 88, 91
7, 146856, Note_on_c, 5, 88, 0
7, 146880, Note_on_c, 5, 85, 92
7, 146904, Note_on_c, 5, 85, 0
7, 146928, Note_on_c, 5, 81, 95
7, 146952, Note_on_c, 5, 81, 0
7, 146976, Note_on_c, 5, 86, 95
7, 147000, Note_on_c, 5, 86, 0
7, 147024, Note_on_c, 5, 88, 95
7, 147048, Note_on_c, 5, 88, 0
7, 147072, Note_on_c, 5, 86, 95
7, 147096, Note_on_c, 5, 86, 0
7, 147120, Note_on_c, 5, 81, 95
7, 147144, Note_on_c, 5, 81, 0
7, 147168, Note_on_c, 5, 88, 95
7, 147192, Note_on_c, 5, 88, 0
7, 147216, Note_on_c, 5, 90, 95
7, 147240, Note_on_c, 5, 90, 0
7, 147264, Note_on_c, 5, 88, 95
7, 147288, Note_on_c, 5, 88, 0
7, 147312, Note_on_c, 5, 81, 95
7, 147336, Note_on_c, 5, 81, 0
7, 147360, Note_on_c, 5, 86, 92
7, 147384, Note_on_c, 5, 86, 0
7, 147408, Note_on_c, 5, 88, 88
7, 147432, Note_on_c, 5, 88, 0
7, 147456, Note_on_c, 5, 86, 84
7, 147480, Note_on_c, 5, 86, 0
7, 147504, Note_on_c, 5, 81, 80
7, 147528, Note_on_c, 5, 81, 0
7, 147552, Note_on_c, 5, 88, 77
7, 147576, Note_on_c, 5, 88, 0
7, 147600, Note_on_c, 5, 90, 73
7, 147624, Note_on_c, 5, 90, 0
7, 147648, Note_on_c, 5, 88, 69
7, 147672, Note_on_c, 5, 88, 0
7, 147696, Note_on_c, 5, 86, 65
7, 147720, Note_on_c, 5, 86, 0
7, 148560, Control_c, 5, 1, 0
7, 148560, Control_c, 5, 11, 65
7, 148560, Note_on_c, 5, 86, 120
7, 148561, Control_c, 5, 1, 1
7, 148562, Control_c, 5, 1, 2
7, 148563, Control_c, 5, 1, 3
7, 148566, Control_c, 5, 1, 4
7, 148568, Control_c, 5, 1, 5
7, 148570, Control_c, 5, 1, 6
7, 148572, Control_c, 5, 1, 7
7, 148575, Control_c, 5, 1, 8
7, 148578, Control_c, 5, 1, 9
7, 148581, Control_c, 5, 1, 10
7, 148583, Control_c, 5, 11, 66
7, 148584, Control_c, 5, 1, 11
7, 148587, Control_c, 5, 1, 12
7, 148592, Control_c, 5, 1, 13
7, 148596, Control_c, 5, 1, 14
7, 148602, Control_c, 5, 1, 15
7, 148605, Control_c, 5, 11, 67
7, 148608, Control_c, 5, 1, 16
7, 148615, Control_c, 5, 1, 17
7, 148625, Control_c, 5, 1, 18
7, 148628, Control_c, 5, 11, 68
7, 148639, Control_c, 5, 1, 19
7, 148650, Control_c, 5, 11, 69
7, 148663, Control_c, 5, 1, 20
7, 148672, Control_c, 5, 11, 70
7, 148695, Control_c, 5, 11, 71
7, 148717, Control_c, 5, 11, 72
7, 148739, Control_c, 5, 11, 73
7, 148750, Note_on_c, 5, 86, 0
7, 148752, Control_c, 5, 1, 0
7, 148752, Note_on_c, 5, 88, 120
7, 148753, Control_c, 5, 1, 2
7, 148754, Control_c, 5, 1, 3
7, 148755, Control_c, 5, 1, 4
7, 148756, Control_c, 5, 1, 5
7, 148757, Control_c, 5, 1, 6
7, 148758, Control_c, 5, 1, 7
7, 148760, Control_c, 5, 1, 8
7, 148761, Control_c, 5, 1, 9
7, 148762, Control_c, 5, 11, 74
7, 148763, Control_c, 5, 1, 10
7, 148764, Control_c, 5, 1, 11
7, 148766, Control_c, 5, 1, 12
7, 148768, Control_c, 5, 1, 13
7, 148770, Control_c, 5, 1, 14
7, 148773, Control_c, 5, 1, 15
7, 148776, Control_c, 5, 1, 16
7, 148780, Control_c, 5, 1, 17
7, 148784, Control_c, 5, 11, 75
7, 148784, Control_c, 5, 1, 18
7, 148791, Control_c, 5, 1, 19
7, 148803, Control_c, 5, 1, 20
7, 148807, Control_c, 5, 11, 76
7, 148829, Control_c, 5, 11, 77
7, 148844, Note_on_c, 5, 88, 0
7, 148848, Control_c, 5, 1, 0
7, 148848, Note_on_c, 5, 90, 120
7, 148849, Control_c, 5, 1, 2
7, 148851, Control_c, 5, 11, 78
7, 148851, Control_c, 5, 1, 3
7, 148852, Control_c, 5, 1, 4
7, 148853, Control_c, 5, 1, 5
7, 148855, Control_c, 5, 1, 6
7, 148856, Control_c, 5, 1, 7
7, 148858, Control_c, 5, 1, 8
7, 148860, Control_c, 5, 1, 9
7, 148863, Control_c, 5, 1, 10
7, 148865, Control_c, 5, 1, 11
7, 148868, Control_c, 5, 1, 12
7, 148872, Control_c, 5, 1, 13
7, 148874, Control_c, 5, 11, 79
7, 148877, Control_c, 5, 1, 14
7, 148884, Control_c, 5, 1, 15
7, 148896, Control_c, 5, 11, 80
7, 148896, Control_c, 5, 1, 16
7, 148918, Control_c, 5, 11, 81
7, 148940, Note_on_c, 5, 90, 0
7, 148941, Control_c, 5, 11, 82
7, 148944, Control_c, 5, 1, 0
7, 148944, Note_on_c, 5, 86, 120
7, 148944, Note_on_c, 5, 90, 120
7, 148945, Control_c, 5, 1, 1
7, 148946, Control_c, 5, 1, 2
7, 148947, Control_c, 5, 1, 3
7, 148950, Control_c, 5, 1, 4
7, 148952, Control_c, 5, 1, 5
7, 148954, Control_c, 5, 1, 6
7, 148956, Control_c, 5, 1, 7
7, 148959, Control_c, 5, 1, 8
7, 148962, Control_c, 5, 1, 9
7, 148963, Control_c, 5, 11, 83
7, 148965, Control_c, 5, 1, 10
7, 148968, Control_c, 5, 1, 11
7, 148971, Control_c, 5, 1, 12
7, 148976, Control_c, 5, 1, 13
7, 148980, Control_c, 5, 1, 14
7, 148985, Control_c, 5, 11, 84
7, 148986, Control_c, 5, 1, 15
7, 148992, Control_c, 5, 1, 16
7, 148999, Control_c, 5, 1, 17
7, 149008, Control_c, 5, 11, 85
7, 149009, Control_c, 5, 1, 18
7, 149023, Control_c, 5, 1, 19
7, 149030, Control_c, 5, 11, 86
7, 149047, Control_c, 5, 1, 20
7, 149053, Control_c, 5, 11, 87
7, 149075, Control_c, 5, 11, 88
7, 149097, Control_c, 5, 11, 89
7, 149120, Control_c, 5, 11, 90
7, 149134, Note_on_c, 5, 90, 0
7, 149134, Note_on_c, 5, 86, 0
7, 149136, Control_c, 5, 1, 0
7, 149136, Note_on_c, 5, 88, 120
7, 149136, Note_on_c, 5, 91, 120
7, 149137, Control_c, 5, 1, 1
7, 149138, Control_c, 5, 1, 2
7, 149139, Control_c, 5, 1, 3
7, 149140, Control_c, 5, 1, 4
7, 149142, Control_c, 5, 11, 91
7, 149142, Control_c, 5, 1, 5
7, 149143, Control_c, 5, 1, 6
7, 149145, Control_c, 5, 1, 7
7, 149147, Control_c, 5, 1, 8
7, 149149, Control_c, 5, 1, 9
7, 149152, Control_c, 5, 1, 10
7, 149155, Control_c, 5, 1, 11
7, 149159, Control_c, 5, 1, 12
7, 149164, Control_c, 5, 11, 92
7, 149164, Control_c, 5, 1, 13
7, 149170, Control_c, 5, 1, 14
7, 149182, Control_c, 5, 1, 15
7, 149187, Control_c, 5, 11, 93
7, 149209, Control_c, 5, 11, 94
7, 149228, Note_on_c, 5, 91, 0
7, 149228, Note_on_c, 5, 88, 0
7, 149231, Control_c, 5, 11, 95
7, 149232, Control_c, 5, 1, 0
7, 149232, Note_on_c, 5, 90, 120
7, 149232, Note_on_c, 5, 93, 120
7, 149302, Note_on_c, 5, 93, 0
7, 149302, Note_on_c, 5, 90, 0
7, 149328, Note_on_c, 5, 90, 117
7, 149328, Note_on_c, 5, 93, 117
7, 149398, Note_on_c, 5, 93, 0
7, 149398, Note_on_c, 5, 90, 0
7, 149424, Note_on_c, 5, 88, 120
7, 149424, Note_on_c, 5, 93, 120
7, 149494, Note_on_c, 5, 93, 0
7, 149494, Note_on_c, 5, 88, 0
7, 149520, Note_on_c, 5, 88, 117
7, 149520, Note_on_c, 5, 93, 117
7, 149590, Note_on_c, 5, 93, 0
7, 149590, Note_on_c, 5, 88, 0
7, 149616, Control_c, 5, 11, 95
7, 149616, Note_on_c, 5, 90, 120
7, 149616, Note_on_c, 5, 93, 120
7, 149655, Control_c, 5, 11, 94
7, 149686, Note_on_c, 5, 93, 0
7, 149686, Note_on_c, 5, 90, 0
7, 149693, Control_c, 5, 11, 93
7, 149712, Note_on_c, 5, 90, 120
7, 149712, Note_on_c, 5, 93, 120
7, 149732, Control_c, 5, 11, 92
7, 149770, Control_c, 5, 11, 91
7, 149782, Note_on_c, 5, 93, 0
7, 149782, Note_on_c, 5, 90, 0
7, 149808, Note_on_c, 5, 88, 120
7, 149808, Note_on_c, 5, 93, 120
7, 149808, Control_c, 5, 11, 90
7, 149847, Control_c, 5, 11, 89
7, 149878, Note_on_c, 5, 93, 0
7, 149878, Note_on_c, 5, 88, 0
7, 149885, Control_c, 5, 11, 88
7, 149904, Note_on_c, 5, 88, 120
7, 149904, Note_on_c, 5, 93, 120
7, 149923, Control_c, 5, 11, 87
7, 149962, Control_c, 5, 11, 86
7, 149974, Note_on_c, 5, 93, 0
7, 149974, Note_on_c, 5, 88, 0
7, 150000, Note_on_c, 5, 90, 120
7, 150000, Note_on_c, 5, 93, 120
7, 150000, Control_c, 5, 11, 85
7, 150039, Control_c, 5, 11, 84
7, 150070, Note_on_c, 5, 93, 0
7, 150070, Note_on_c, 5, 90, 0
7, 150077, Control_c, 5, 11, 83
7, 150096, Note_on_c, 5, 90, 120
7, 150096, Note_on_c, 5, 93, 120
7, 150115, Control_c, 5, 11, 82
7, 150154, Control_c, 5, 11, 81
7, 150166, Note_on_c, 5, 93, 0
7, 150166, Note_on_c, 5, 90, 0
7, 150192, Note_on_c, 5, 88, 120
7, 150192, Note_on_c, 5, 93, 120
7, 150192, Control_c, 5, 11, 80
7, 150230, Control_c, 5, 11, 79
7, 150262, Note_on_c, 5, 93, 0
7, 150262, Note_on_c, 5, 88, 0
7, 150269, Control_c, 5, 11, 78
7, 150288, Note_on_c, 5, 88, 120
7, 150288, Note_on_c, 5, 93, 120
7, 150307, Control_c, 5, 11, 77
7, 150345, Control_c, 5, 11, 76
7, 150358, Note_on_c, 5, 93, 0
7, 150358, Note_on_c, 5, 88, 0
7, 150384, Note_on_c, 5, 90, 120
7, 150384, Note_on_c, 5, 93, 120
7, 150384, Control_c, 5, 11, 75
7, 150422, Control_c, 5, 11, 74
7, 150454, Note_on_c, 5, 93, 0
7, 150454, Note_on_c, 5, 90, 0
7, 150461, Control_c, 5, 11, 73
7, 150480, Note_on_c, 5, 90, 120
7, 150480, Note_on_c, 5, 93, 120
7, 150499, Control_c, 5, 11, 72
7, 150537, Control_c, 5, 11, 71
7, 150550, Note_on_c, 5, 93, 0
7, 150550, Note_on_c, 5, 90, 0
7, 150576, Note_on_c, 5, 88, 120
7, 150576, Note_on_c, 5, 93, 120
7, 150576, Control_c, 5, 11, 70
7, 150614, Control_c, 5, 11, 69
7, 150646, Note_on_c, 5, 93, 0
7, 150646, Note_on_c, 5, 88, 0
7, 150652, Control_c, 5, 11, 68
7, 150672, Note_on_c, 5, 88, 120
7, 150672, Note_on_c, 5, 93, 120
7, 150691, Control_c, 5, 11, 67
7, 150729, Control_c, 5, 11, 66
7, 150742, Note_on_c, 5, 93, 0
7, 150742, Note_on_c, 5, 88, 0
7, 150767, Control_c, 5, 11, 65
7, 150768, Control_c, 5, 11, 60
7, 150768, Note_on_c, 5, 90, 120
7, 150768, Note_on_c, 5, 93, 120
7, 150838, Note_on_c, 5, 93, 0
7, 150838, Note_on_c, 5, 90, 0
7, 150864, Control_c, 5, 1, 0
7, 150864, Note_on_c, 5, 74, 120
7, 150864, Note_on_c, 5, 86, 120
7, 150865, Control_c, 5, 1, 2
7, 150866, Control_c, 5, 1, 3
7, 150867, Control_c, 5, 1, 4
7, 150868, Control_c, 5, 1, 5
7, 150869, Control_c, 5, 1, 6
7, 150870, Control_c, 5, 1, 7
7, 150872, Control_c, 5, 1, 8
7, 150873, Control_c, 5, 1, 9
7, 150875, Control_c, 5, 1, 10
7, 150876, Control_c, 5, 1, 11
7, 150878, Control_c, 5, 1, 12
7, 150880, Control_c, 5, 1, 13
7, 150882, Control_c, 5, 1, 14
7, 150885, Control_c, 5, 1, 15
7, 150888, Control_c, 5, 1, 16
7, 150892, Control_c, 5, 1, 17
7, 150896, Control_c, 5, 1, 18
7, 150903, Control_c, 5, 1, 19
7, 150915, Control_c, 5, 1, 20
7, 152112, Control_c, 5, 11, 55
7, 152280, Note_on_c, 5, 86, 0
7, 152280, Note_on_c, 5, 74, 0
7, 152304, Control_c, 5, 7, 105
7, 152307, Control_c, 5, 11, 120
7, 152880, Control_c, 5, 1, 0
7, 153024, Program_c, 5, 73
7, 153024, Note_on_c, 5, 86, 110
7, 153059, Note_on_c, 5, 86, 0
7, 153096, Note_on_c, 5, 74, 100
7, 153108, Note_on_c, 5, 74, 0
7, 153120, Note_on_c, 5, 74, 100
7, 153144, Note_on_c, 5, 74, 0
7, 155184, Note_on_c, 5, 86, 50
7, 155208, Note_on_c, 5, 86, 0
7, 155328, Note_on_c, 5, 81, 50
7, 155352, Note_on_c, 5, 81, 0
7, 155472, Note_on_c, 5, 83, 50
7, 155496, Note_on_c, 5, 83, 0
7, 155616, Note_on_c, 5, 84, 50
7, 155640, Note_on_c, 5, 84, 0
7, 155760, Note_on_c, 5, 82, 50
7, 155784, Note_on_c, 5, 82, 0
7, 155808, Note_on_c, 5, 81, 48
7, 155832, Note_on_c, 5, 81, 0
7, 155856, Note_on_c, 5, 79, 48
7, 155880, Note_on_c, 5, 79, 0
7, 155904, Note_on_c, 5, 86, 50
7, 155928, Note_on_c, 5, 86, 0
7, 156048, Note_on_c, 5, 85, 50
7, 156072, Note_on_c, 5, 85, 0
7, 156192, Note_on_c, 5, 86, 50
7, 156216, Note_on_c, 5, 86, 0
7, 156336, Note_on_c, 5, 86, 50
7, 156360, Note_on_c, 5, 86, 0
7, 156480, Note_on_c, 5, 88, 50
7, 156504, Note_on_c, 5, 88, 0
7, 156624, Note_on_c, 5, 88, 50
7, 156648, Note_on_c, 5, 88, 0
7, 156768, Note_on_c, 5, 88, 50
7, 156792, Note_on_c, 5, 88, 0
7, 156912, Note_on_c, 5, 85, 50
7, 156912, Note_on_c, 5, 88, 50
7, 156936, Note_on_c, 5, 88, 0
7, 156936, Note_on_c, 5, 85, 0
7, 157056, Note_on_c, 5, 81, 50
7, 157056, Note_on_c, 5, 86, 50
7, 157080, Note_on_c, 5, 86, 0
7, 157080, Note_on_c, 5, 81, 0
7, 157200, Note_on_c, 5, 81, 50
7, 157200, Note_on_c, 5, 88, 50
7, 157224, Note_on_c, 5, 88, 0
7, 157224, Note_on_c, 5, 81, 0
7, 157344, Note_on_c, 5, 81, 50
7, 157344, Note_on_c, 5, 89, 50
7, 157368, Note_on_c, 5, 89, 0
7, 157368, Note_on_c, 5, 81, 0
7, 157488, Note_on_c, 5, 77, 55
7, 157488, Note_on_c, 5, 89, 55
7, 157512, Note_on_c, 5, 89, 0
7, 157512, Note_on_c, 5, 77, 0
7, 157536, Note_on_c, 5, 76, 50
7, 157536, Note_on_c, 5, 88, 50
7, 157560, Note_on_c, 5, 88, 0
7, 157560, Note_on_c, 5, 76, 0
7, 157584, Note_on_c, 5, 74, 50
7, 157584, Note_on_c, 5, 86, 50
7, 157608, Note_on_c, 5, 86, 0
7, 157608, Note_on_c, 5, 74, 0
7, 157632, Note_on_c, 5, 72, 55
7, 157632, Note_on_c, 5, 84, 55
7, 157656, Note_on_c, 5, 84, 0
7, 157656, Note_on_c, 5, 72, 0
7, 157680, Note_on_c, 5, 71, 50
7, 157680, Note_on_c, 5, 83, 50
7, 157704, Note_on_c, 5, 83, 0
7, 157704, Note_on_c, 5, 71, 0
7, 157728, Note_on_c, 5, 69, 50
7, 157728, Note_on_c, 5, 81, 50
7, 157752, Note_on_c, 5, 81, 0
7, 157752, Note_on_c, 5, 69, 0
7, 157776, Note_on_c, 5, 68, 55
7, 157776, Note_on_c, 5, 80, 55
7, 157800, Note_on_c, 5, 80, 0
7, 157800, Note_on_c, 5, 68, 0
7, 157824, Note_on_c, 5, 69, 50
7, 157824, Note_on_c, 5, 81, 50
7, 157848, Note_on_c, 5, 81, 0
7, 157848, Note_on_c, 5, 69, 0
7, 157872, Note_on_c, 5, 71, 50
7, 157872, Note_on_c, 5, 83, 50
7, 157896, Note_on_c, 5, 83, 0
7, 157896, Note_on_c, 5, 71, 0
7, 157920, Note_on_c, 5, 69, 55
7, 157920, Note_on_c, 5, 81, 55
7, 157944, Note_on_c, 5, 81, 0
7, 157944, Note_on_c, 5, 69, 0
7, 157968, Note_on_c, 5, 68, 50
7, 157968, Note_on_c, 5, 80, 50
7, 157992, Note_on_c, 5, 80, 0
7, 157992, Note_on_c, 5, 68, 0
7, 158016, Note_on_c, 5, 69, 50
7, 158016, Note_on_c, 5, 81, 50
7, 158040, Note_on_c, 5, 81, 0
7, 158040, Note_on_c, 5, 69, 0
7, 158160, Note_on_c, 5, 69, 50
7, 158160, Note_on_c, 5, 81, 50
7, 158184, Note_on_c, 5, 81, 0
7, 158184, Note_on_c, 5, 69, 0
7, 158304, Note_on_c, 5, 69, 50
7, 158304, Note_on_c, 5, 81, 50
7, 158328, Note_on_c, 5, 81, 0
7, 158328, Note_on_c, 5, 69, 0
7, 158448, Note_on_c, 5, 69, 50
7, 158448, Note_on_c, 5, 81, 50
7, 158472, Note_on_c, 5, 81, 0
7, 158472, Note_on_c, 5, 69, 0
7, 158592, Note_on_c, 5, 69, 50
7, 158592, Note_on_c, 5, 81, 50
7, 158616, Note_on_c, 5, 81, 0
7, 158616, Note_on_c, 5, 69, 0
7, 158736, Note_on_c, 5, 69, 53
7, 158736, Note_on_c, 5, 81, 53
7, 158760, Note_on_c, 5, 81, 0
7, 158760, Note_on_c, 5, 69, 0
7, 158880, Note_on_c, 5, 69, 58
7, 158880, Note_on_c, 5, 81, 58
7, 158904, Note_on_c, 5, 81, 0
7, 158904, Note_on_c, 5, 69, 0
7, 159024, Note_on_c, 5, 69, 63
7, 159024, Note_on_c, 5, 81, 63
7, 159048, Note_on_c, 5, 81, 0
7, 159048, Note_on_c, 5, 69, 0
7, 159168, Note_on_c, 5, 69, 68
7, 159168, Note_on_c, 5, 81, 68
7, 159192, Note_on_c, 5, 81, 0
7, 159192, Note_on_c, 5, 69, 0
7, 159312, Note_on_c, 5, 69, 73
7, 159312, Note_on_c, 5, 81, 73
7, 159336, Note_on_c, 5, 81, 0
7, 159336, Note_on_c, 5, 69, 0
7, 159456, Note_on_c, 5, 69, 78
7, 159456, Note_on_c, 5, 81, 78
7, 159480, Note_on_c, 5, 81, 0
7, 159480, Note_on_c, 5, 69, 0
7, 159600, Note_on_c, 5, 69, 83
7, 159600, Note_on_c, 5, 81, 83
7, 159624, Note_on_c, 5, 81, 0
7, 159624, Note_on_c, 5, 69, 0
7, 159744, Note_on_c, 5, 69, 88
7, 159744, Note_on_c, 5, 81, 88
7, 159768, Note_on_c, 5, 81, 0
7, 159768, Note_on_c, 5, 69, 0
7, 159888, Note_on_c, 5, 69, 93
7, 159888, Note_on_c, 5, 81, 93
7, 159912, Note_on_c, 5, 81, 0
7, 159912, Note_on_c, 5, 69, 0
7, 160032, Note_on_c, 5, 81, 98
7, 160056, Note_on_c, 5, 81, 0
7, 160080, Note_on_c, 5, 81, 100
7, 160080, Note_on_c, 5, 88, 100
7, 160104, Note_on_c, 5, 88, 0
7, 160104, Note_on_c, 5, 81, 0
7, 160128, Note_on_c, 5, 81, 102
7, 160128, Note_on_c, 5, 89, 102
7, 160152, Note_on_c, 5, 89, 0
7, 160152, Note_on_c, 5, 81, 0
7, 160176, Note_on_c, 5, 81, 104
7, 160176, Note_on_c, 5, 91, 104
7, 160200, Note_on_c, 5, 91, 0
7, 160200, Note_on_c, 5, 81, 0
7, 160224, Note_on_c, 5, 81, 105
7, 160224, Note_on_c, 5, 93, 105
7, 160259, Note_on_c, 5, 93, 0
7, 160259, Note_on_c, 5, 81, 0
7, 160296, Note_on_c, 5, 69, 108
7, 160296, Note_on_c, 5, 81, 108
7, 160308, Note_on_c, 5, 81, 0
7, 160308, Note_on_c, 5, 69, 0
7, 160320, Note_on_c, 5, 69, 109
7, 160320, Note_on_c, 5, 81, 109
7, 160344, Note_on_c, 5, 81, 0
7, 160344, Note_on_c, 5, 69, 0
7, 160368, Note_on_c, 5, 81, 115
7, 160368, Note_on_c, 5, 93, 115
7, 160403, Note_on_c, 5, 93, 0
7, 160403, Note_on_c, 5, 81, 0
7, 160440, Note_on_c, 5, 69, 110
7, 160440, Note_on_c, 5, 81, 110
7, 160452, Note_on_c, 5, 81, 0
7, 160452, Note_on_c, 5, 69, 0
7, 160464, Note_on_c, 5, 69, 110
7, 160464, Note_on_c, 5, 81, 110
7, 160488, Note_on_c, 5, 81, 0
7, 160488, Note_on_c, 5, 69, 0
7, 160512, Note_on_c, 5, 81, 115
7, 160512, Note_on_c, 5, 86, 115
7, 160536, Note_on_c, 5, 86, 0
7, 160536, Note_on_c, 5, 81, 0
7, 160560, Note_on_c, 5, 81, 110
7, 160560, Note_on_c, 5, 88, 110
7, 160584, Note_on_c, 5, 88, 0
7, 160584, Note_on_c, 5, 81, 0
7, 160608, Note_on_c, 5, 81, 110
7, 160608, Note_on_c, 5, 89, 110
7, 160632, Note_on_c, 5, 89, 0
7, 160632, Note_on_c, 5, 81, 0
7, 160656, Note_on_c, 5, 81, 115
7, 160656, Note_on_c, 5, 88, 115
7, 160680, Note_on_c, 5, 88, 0
7, 160680, Note_on_c, 5, 81, 0
7, 160704, Note_on_c, 5, 81, 110
7, 160704, Note_on_c, 5, 89, 110
7, 160728, Note_on_c, 5, 89, 0
7, 160728, Note_on_c, 5, 81, 0
7, 160752, Note_on_c, 5, 81, 110
7, 160752, Note_on_c, 5, 91, 110
7, 160776, Note_on_c, 5, 91, 0
7, 160776, Note_on_c, 5, 81, 0
7, 160800, Note_on_c, 5, 81, 115
7, 160800, Note_on_c, 5, 89, 115
7, 160824, Note_on_c, 5, 89, 0
7, 160824, Note_on_c, 5, 81, 0
7, 160848, Note_on_c, 5, 86, 110
7, 160848, Note_on_c, 5, 88, 110
7, 160872, Note_on_c, 5, 88, 0
7, 160872, Note_on_c, 5, 86, 0
7, 160896, Note_on_c, 5, 86, 110
7, 160920, Note_on_c, 5, 86, 0
7, 160944, Note_on_c, 5, 82, 115
7, 160944, Note_on_c, 5, 86, 115
7, 160968, Note_on_c, 5, 86, 0
7, 160968, Note_on_c, 5, 82, 0
7, 160992, Note_on_c, 5, 86, 110
7, 160992, Note_on_c, 5, 93, 110
7, 161016, Note_on_c, 5, 93, 0
7, 161016, Note_on_c, 5, 86, 0
7, 161040, Note_on_c, 5, 86, 110
7, 161040, Note_on_c, 5, 91, 110
7, 161064, Note_on_c, 5, 91, 0
7, 161064, Note_on_c, 5, 86, 0
7, 161088, Note_on_c, 5, 89, 115
7, 161112, Note_on_c, 5, 89, 0
7, 161136, Note_on_c, 5, 88, 110
7, 161160, Note_on_c, 5, 88, 0
7, 161184, Note_on_c, 5, 81, 110
7, 161184, Note_on_c, 5, 86, 110
7, 161208, Note_on_c, 5, 86, 0
7, 161208, Note_on_c, 5, 81, 0
7, 161232, Note_on_c, 5, 81, 115
7, 161232, Note_on_c, 5, 85, 115
7, 161256, Note_on_c, 5, 85, 0
7, 161256, Note_on_c, 5, 81, 0
7, 161280, Note_on_c, 5, 81, 110
7, 161280, Note_on_c, 5, 86, 110
7, 161304, Note_on_c, 5, 86, 0
7, 161304, Note_on_c, 5, 81, 0
7, 161328, Note_on_c, 5, 81, 110
7, 161328, Note_on_c, 5, 88, 110
7, 161352, Note_on_c, 5, 88, 0
7, 161352, Note_on_c, 5, 81, 0
7, 161376, Note_on_c, 5, 81, 115
7, 161376, Note_on_c, 5, 86, 115
7, 161400, Note_on_c, 5, 86, 0
7, 161400, Note_on_c, 5, 81, 0
7, 161424, Note_on_c, 5, 81, 110
7, 161424, Note_on_c, 5, 85, 110
7, 161448, Note_on_c, 5, 85, 0
7, 161448, Note_on_c, 5, 81, 0
7, 161472, Note_on_c, 5, 81, 110
7, 161472, Note_on_c, 5, 86, 110
7, 161496, Note_on_c, 5, 86, 0
7, 161496, Note_on_c, 5, 81, 0
7, 161520, Note_on_c, 5, 82, 115
7, 161520, Note_on_c, 5, 86, 115
7, 161544, Note_on_c, 5, 86, 0
7, 161544, Note_on_c, 5, 82, 0
7, 161568, Note_on_c, 5, 86, 110
7, 161568, Note_on_c, 5, 93, 110
7, 161592, Note_on_c, 5, 93, 0
7, 161592, Note_on_c, 5, 86, 0
7, 161616, Note_on_c, 5, 86, 110
7, 161616, Note_on_c, 5, 91, 110
7, 161640, Note_on_c, 5, 91, 0
7, 161640, Note_on_c, 5, 86, 0
7, 161664, Note_on_c, 5, 86, 115
7, 161664, Note_on_c, 5, 89, 115
7, 161688, Note_on_c, 5, 89, 0
7, 161688, Note_on_c, 5, 86, 0
7, 161712, Note_on_c, 5, 86, 110
7, 161712, Note_on_c, 5, 88, 110
7, 161736, Note_on_c, 5, 88, 0
7, 161736, Note_on_c, 5, 86, 0
7, 161760, Note_on_c, 5, 86, 110
7, 161784, Note_on_c, 5, 86, 0
7, 161808, Note_on_c, 5, 76, 115
7, 161808, Note_on_c, 5, 85, 115
7, 161832, Note_on_c, 5, 85, 0
7, 161832, Note_on_c, 5, 76, 0
7, 161856, Note_on_c, 5, 77, 110
7, 161856, Note_on_c, 5, 86, 110
7, 161880, Note_on_c, 5, 86, 0
7, 161880, Note_on_c, 5, 77, 0
7, 161904, Note_on_c, 5, 79, 110
7, 161904, Note_on_c, 5, 88, 110
7, 161928, Note_on_c, 5, 88, 0
7, 161928, Note_on_c, 5, 79, 0
7, 161952, Note_on_c, 5, 77, 115
7, 161952, Note_on_c, 5, 86, 115
7, 161976, Note_on_c, 5, 86, 0
7, 161976, Note_on_c, 5, 77, 0
7, 162000, Note_on_c, 5, 77, 110
7, 162000, Note_on_c, 5, 85, 110
7, 162024, Note_on_c, 5, 85, 0
7, 162024, Note_on_c, 5, 77, 0
7, 162048, Note_on_c, 5, 77, 110
7, 162048, Note_on_c, 5, 86, 110
7, 162072, Note_on_c, 5, 86, 0
7, 162072, Note_on_c, 5, 77, 0
7, 162096, Note_on_c, 5, 89, 115
7, 162096, Note_on_c, 5, 93, 115
7, 162120, Note_on_c, 5, 93, 0
7, 162120, Note_on_c, 5, 89, 0
7, 162144, Note_on_c, 5, 83, 110
7, 162144, Note_on_c, 5, 91, 110
7, 162168, Note_on_c, 5, 91, 0
7, 162168, Note_on_c, 5, 83, 0
7, 162192, Note_on_c, 5, 86, 110
7, 162192, Note_on_c, 5, 89, 110
7, 162216, Note_on_c, 5, 89, 0
7, 162216, Note_on_c, 5, 86, 0
7, 162240, Note_on_c, 5, 84, 115
7, 162240, Note_on_c, 5, 88, 115
7, 162264, Note_on_c, 5, 88, 0
7, 162264, Note_on_c, 5, 84, 0
7, 162288, Note_on_c, 5, 83, 110
7, 162288, Note_on_c, 5, 86, 110
7, 162312, Note_on_c, 5, 86, 0
7, 162312, Note_on_c, 5, 83, 0
7, 162336, Note_on_c, 5, 79, 110
7, 162336, Note_on_c, 5, 86, 110
7, 162360, Note_on_c, 5, 86, 0
7, 162360, Note_on_c, 5, 79, 0
7, 162384, Note_on_c, 5, 79, 115
7, 162384, Note_on_c, 5, 83, 115
7, 162408, Note_on_c, 5, 83, 0
7, 162408, Note_on_c, 5, 79, 0
7, 162432, Note_on_c, 5, 79, 110
7, 162432, Note_on_c, 5, 84, 110
7, 162456, Note_on_c, 5, 84, 0
7, 162456, Note_on_c, 5, 79, 0
7, 162480, Note_on_c, 5, 79, 110
7, 162480, Note_on_c, 5, 86, 110
7, 162504, Note_on_c, 5, 86, 0
7, 162504, Note_on_c, 5, 79, 0
7, 162528, Note_on_c, 5, 76, 110
7, 162528, Note_on_c, 5, 84, 110
7, 162552, Note_on_c, 5, 84, 0
7, 162552, Note_on_c, 5, 76, 0
7, 162576, Note_on_c, 5, 89, 115
7, 162576, Note_on_c, 5, 93, 115
7, 162600, Note_on_c, 5, 93, 0
7, 162600, Note_on_c, 5, 89, 0
7, 162624, Note_on_c, 5, 89, 115
7, 162624, Note_on_c, 5, 93, 115
7, 162648, Note_on_c, 5, 93, 0
7, 162648, Note_on_c, 5, 89, 0
7, 162672, Note_on_c, 5, 89, 115
7, 162672, Note_on_c, 5, 93, 115
7, 162696, Note_on_c, 5, 93, 0
7, 162696, Note_on_c, 5, 89, 0
7, 162720, Note_on_c, 5, 83, 110
7, 162720, Note_on_c, 5, 91, 110
7, 162744, Note_on_c, 5, 91, 0
7, 162744, Note_on_c, 5, 83, 0
7, 162768, Note_on_c, 5, 86, 110
7, 162768, Note_on_c, 5, 89, 110
7, 162792, Note_on_c, 5, 89, 0
7, 162792, Note_on_c, 5, 86, 0
7, 162816, Note_on_c, 5, 84, 115
7, 162816, Note_on_c, 5, 88, 115
7, 162840, Note_on_c, 5, 88, 0
7, 162840, Note_on_c, 5, 84, 0
7, 162864, Note_on_c, 5, 83, 110
7, 162864, Note_on_c, 5, 86, 110
7, 162888, Note_on_c, 5, 86, 0
7, 162888, Note_on_c, 5, 83, 0
7, 162912, Note_on_c, 5, 79, 110
7, 162912, Note_on_c, 5, 86, 110
7, 162936, Note_on_c, 5, 86, 0
7, 162936, Note_on_c, 5, 79, 0
7, 162960, Note_on_c, 5, 88, 115
7, 162960, Note_on_c, 5, 91, 115
7, 162984, Note_on_c, 5, 91, 0
7, 162984, Note_on_c, 5, 88, 0
7, 163008, Note_on_c, 5, 89, 110
7, 163008, Note_on_c, 5, 86, 110
7, 163032, Note_on_c, 5, 86, 0
7, 163032, Note_on_c, 5, 89, 0
7, 163056, Note_on_c, 5, 84, 110
7, 163056, Note_on_c, 5, 88, 110
7, 163080, Note_on_c, 5, 88, 0
7, 163080, Note_on_c, 5, 84, 0
7, 163104, Note_on_c, 5, 79, 115
7, 163104, Note_on_c, 5, 88, 115
7, 163128, Note_on_c, 5, 88, 0
7, 163128, Note_on_c, 5, 79, 0
7, 163152, Note_on_c, 5, 77, 110
7, 163152, Note_on_c, 5, 86, 110
7, 163176, Note_on_c, 5, 86, 0
7, 163176, Note_on_c, 5, 77, 0
7, 163200, Note_on_c, 5, 76, 110
7, 163200, Note_on_c, 5, 84, 110
7, 163224, Note_on_c, 5, 84, 0
7, 163224, Note_on_c, 5, 76, 0
7, 163248, Note_on_c, 5, 74, 110
7, 163248, Note_on_c, 5, 83, 110
7, 163272, Note_on_c, 5, 83, 0
7, 163272, Note_on_c, 5, 74, 0
7, 163680, Control_c, 5, 11, 60
7, 163680, Control_c, 5, 1, 0
7, 163680, Note_on_c, 5, 86, 110
7, 163681, Control_c, 5, 1, 1
7, 163682, Control_c, 5, 1, 2
7, 163683, Control_c, 5, 1, 3
7, 163684, Control_c, 5, 1, 4
7, 163686, Control_c, 5, 1, 5
7, 163688, Control_c, 5, 11, 61
7, 163688, Control_c, 5, 1, 6
7, 163689, Control_c, 5, 1, 7
7, 163691, Control_c, 5, 1, 8
7, 163693, Control_c, 5, 1, 9
7, 163695, Control_c, 5, 11, 62
7, 163696, Control_c, 5, 1, 10
7, 163698, Control_c, 5, 1, 11
7, 163701, Control_c, 5, 1, 12
7, 163702, Control_c, 5, 11, 63
7, 163704, Control_c, 5, 1, 13
7, 163707, Control_c, 5, 1, 14
7, 163709, Control_c, 5, 11, 64
7, 163711, Control_c, 5, 1, 15
7, 163716, Control_c, 5, 11, 65
7, 163716, Control_c, 5, 1, 16
7, 163721, Control_c, 5, 1, 17
7, 163724, Control_c, 5, 11, 66
7, 163729, Control_c, 5, 1, 18
7, 163731, Control_c, 5, 11, 67
7, 163738, Control_c, 5, 11, 68
7, 163739, Control_c, 5, 1, 19
7, 163745, Control_c, 5, 11, 69
7, 163752, Control_c, 5, 11, 70
7, 163757, Control_c, 5, 1, 20
7, 163759, Control_c, 5, 11, 71
7, 163767, Control_c, 5, 11, 72
7, 163774, Control_c, 5, 11, 73
7, 163781, Control_c, 5, 11, 74
7, 163788, Control_c, 5, 11, 75
7, 163795, Control_c, 5, 11, 76
7, 163802, Control_c, 5, 11, 77
7, 163810, Control_c, 5, 11, 78
7, 163817, Control_c, 5, 11, 79
7, 163824, Control_c, 5, 11, 80
7, 163831, Control_c, 5, 11, 81
7, 163838, Control_c, 5, 11, 82
7, 163846, Control_c, 5, 11, 83
7, 163853, Control_c, 5, 11, 84
7, 163860, Control_c, 5, 11, 85
7, 163867, Control_c, 5, 11, 86
7, 163874, Control_c, 5, 11, 87
7, 163881, Control_c, 5, 11, 88
7, 163889, Control_c, 5, 11, 89
7, 163896, Control_c, 5, 11, 90
7, 163903, Control_c, 5, 11, 91
7, 163910, Control_c, 5, 11, 92
7, 163917, Control_c, 5, 11, 93
7, 163924, Control_c, 5, 11, 94
7, 163932, Control_c, 5, 11, 95
7, 163939, Control_c, 5, 11, 96
7, 163946, Control_c, 5, 11, 97
7, 163953, Control_c, 5, 11, 98
7, 163960, Control_c, 5, 11, 99
7, 163967, Control_c, 5, 11, 100
7, 163968, Control_c, 5, 11, 100
7, 163968, Note_on_c, 5, 84, 110
7, 163969, Note_on_c, 5, 86, 0
7, 163979, Control_c, 5, 11, 99
7, 163990, Control_c, 5, 11, 98
7, 164001, Control_c, 5, 11, 97
7, 164012, Control_c, 5, 11, 96
7, 164022, Control_c, 5, 11, 95
7, 164033, Control_c, 5, 11, 94
7, 164044, Control_c, 5, 11, 93
7, 164055, Control_c, 5, 11, 92
7, 164065, Control_c, 5, 11, 91
7, 164076, Control_c, 5, 11, 90
7, 164087, Control_c, 5, 11, 89
7, 164098, Control_c, 5, 11, 88
7, 164109, Control_c, 5, 11, 87
7, 164119, Control_c, 5, 11, 86
7, 164130, Control_c, 5, 11, 85
7, 164141, Control_c, 5, 11, 84
7, 164152, Control_c, 5, 11, 83
7, 164162, Control_c, 5, 11, 82
7, 164173, Control_c, 5, 11, 81
7, 164184, Control_c, 5, 11, 80
7, 164195, Control_c, 5, 11, 79
7, 164206, Control_c, 5, 11, 78
7, 164216, Control_c, 5, 11, 77
7, 164227, Control_c, 5, 11, 76
7, 164238, Control_c, 5, 11, 75
7, 164249, Control_c, 5, 11, 74
7, 164256, Note_on_c, 5, 83, 110
7, 164257, Note_on_c, 5, 84, 0
7, 164259, Control_c, 5, 11, 73
7, 164270, Control_c, 5, 11, 72
7, 164281, Control_c, 5, 11, 71
7, 164292, Control_c, 5, 11, 70
7, 164303, Control_c, 5, 11, 69
7, 164313, Control_c, 5, 11, 68
7, 164324, Control_c, 5, 11, 67
7, 164335, Control_c, 5, 11, 66
7, 164346, Control_c, 5, 11, 65
7, 164356, Control_c, 5, 11, 64
7, 164367, Control_c, 5, 11, 63
7, 164378, Control_c, 5, 11, 62
7, 164389, Control_c, 5, 11, 61
7, 164399, Note_on_c, 5, 83, 0
7, 164399, Control_c, 5, 11, 60
7, 164832, Control_c, 5, 11, 60
7, 164832, Control_c, 5, 1, 0
7, 164832, Note_on_c, 5, 81, 110
7, 164832, Note_on_c, 5, 86, 110
7, 164833, Control_c, 5, 1, 1
7, 164834, Control_c, 5, 1, 2
7, 164835, Control_c, 5, 1, 3
7, 164836, Control_c, 5, 1, 4
7, 164838, Control_c, 5, 1, 5
7, 164840, Control_c, 5, 1, 6
7, 164841, Control_c, 5, 1, 7
7, 164843, Control_c, 5, 1, 8
7, 164844, Control_c, 5, 11, 61
7, 164845, Control_c, 5, 1, 9
7, 164848, Control_c, 5, 1, 10
7, 164850, Control_c, 5, 1, 11
7, 164853, Control_c, 5, 1, 12
7, 164856, Control_c, 5, 11, 62
7, 164856, Control_c, 5, 1, 13
7, 164859, Control_c, 5, 1, 14
7, 164863, Control_c, 5, 1, 15
7, 164868, Control_c, 5, 11, 63
7, 164868, Control_c, 5, 1, 16
7, 164873, Control_c, 5, 1, 17
7, 164880, Control_c, 5, 11, 64
7, 164881, Control_c, 5, 1, 18
7, 164891, Control_c, 5, 1, 19
7, 164892, Control_c, 5, 11, 65
7, 164904, Control_c, 5, 11, 66
7, 164909, Control_c, 5, 1, 20
7, 164916, Control_c, 5, 11, 67
7, 164928, Control_c, 5, 11, 68
7, 164940, Control_c, 5, 11, 69
7, 164952, Control_c, 5, 11, 70
7, 164964, Control_c, 5, 11, 71
7, 164976, Note_on_c, 5, 83, 110
7, 164976, Control_c, 5, 11, 72
7, 164977, Note_on_c, 5, 81, 0
7, 164988, Control_c, 5, 11, 73
7, 165000, Control_c, 5, 11, 74
7, 165012, Control_c, 5, 11, 75
7, 165024, Control_c, 5, 11, 76
7, 165036, Control_c, 5, 11, 77
7, 165048, Control_c, 5, 11, 78
7, 165060, Control_c, 5, 11, 79
7, 165072, Control_c, 5, 11, 80
7, 165084, Control_c, 5, 11, 81
7, 165096, Control_c, 5, 11, 82
7, 165108, Control_c, 5, 11, 83
7, 165120, Note_on_c, 5, 84, 110
7, 165120, Control_c, 5, 11, 84
7, 165121, Note_on_c, 5, 86, 0
7, 165121, Note_on_c, 5, 83, 0
7, 165132, Control_c, 5, 11, 85
7, 165144, Control_c, 5, 11, 86
7, 165156, Control_c, 5, 11, 87
7, 165168, Control_c, 5, 11, 88
7, 165180, Control_c, 5, 11, 89
7, 165192, Control_c, 5, 11, 90
7, 165204, Control_c, 5, 11, 91
7, 165216, Control_c, 5, 11, 92
7, 165228, Control_c, 5, 11, 93
7, 165240, Control_c, 5, 11, 94
7, 165252, Control_c, 5, 11, 95
7, 165264, Control_c, 5, 11, 96
7, 165276, Control_c, 5, 11, 97
7, 165288, Control_c, 5, 11, 98
7, 165300, Control_c, 5, 11, 99
7, 165312, Control_c, 5, 11, 100
7, 165324, Control_c, 5, 11, 101
7, 165336, Control_c, 5, 11, 102
7, 165348, Control_c, 5, 11, 103
7, 165360, Control_c, 5, 11, 104
7, 165372, Control_c, 5, 11, 105
7, 165384, Control_c, 5, 11, 106
7, 165396, Control_c, 5, 11, 107
7, 165408, Note_on_c, 5, 83, 110
7, 165408, Control_c, 5, 11, 108
7, 165409, Note_on_c, 5, 84, 0
7, 165420, Control_c, 5, 11, 109
7, 165432, Control_c, 5, 11, 110
7, 165444, Control_c, 5, 11, 111
7, 165456, Control_c, 5, 11, 112
7, 165468, Control_c, 5, 11, 113
7, 165480, Control_c, 5, 11, 114
7, 165492, Control_c, 5, 11, 115
7, 165504, Control_c, 5, 11, 116
7, 165516, Control_c, 5, 11, 117
7, 165528, Control_c, 5, 11, 118
7, 165540, Control_c, 5, 11, 119
7, 165551, Note_on_c, 5, 83, 0
7, 165551, Control_c, 5, 11, 120
7, 165552, Control_c, 5, 1, 0
7, 165552, Note_on_c, 5, 84, 113
7, 165648, Note_on_c, 5, 86, 110
7, 165672, Note_on_c, 5, 86, 0
7, 165672, Note_on_c, 5, 88, 111
7, 165696, Note_on_c, 5, 88, 0
7, 165696, Note_on_c, 5, 89, 113
7, 165720, Note_on_c, 5, 89, 0
7, 165720, Note_on_c, 5, 84, 0
7, 165792, Note_on_c, 5, 84, 110
7, 165792, Note_on_c, 5, 88, 110
7, 165816, Note_on_c, 5, 88, 0
7, 165816, Note_on_c, 5, 84, 0
7, 165840, Note_on_c, 5, 84, 113
7, 165840, Note_on_c, 5, 86, 113
7, 165864, Note_on_c, 5, 86, 0
7, 165864, Note_on_c, 5, 84, 0
7, 165936, Note_on_c, 5, 84, 110
7, 165960, Note_on_c, 5, 84, 0
7, 165984, Note_on_c, 5, 83, 113
7, 165984, Note_on_c, 5, 86, 113
7, 166008, Note_on_c, 5, 86, 0
7, 166008, Note_on_c, 5, 83, 0
7, 166080, Note_on_c, 5, 83, 110
7, 166104, Note_on_c, 5, 83, 0
7, 166128, Note_on_c, 5, 84, 113
7, 166128, Note_on_c, 5, 88, 113
7, 166224, Note_on_c, 5, 88, 0
7, 166224, Note_on_c, 5, 84, 0
7, 166224, Note_on_c, 5, 86, 110
7, 166224, Note_on_c, 5, 89, 110
7, 166248, Note_on_c, 5, 89, 0
7, 166248, Note_on_c, 5, 86, 0
7, 166248, Note_on_c, 5, 88, 111
7, 166248, Note_on_c, 5, 91, 111
7, 166272, Note_on_c, 5, 91, 0
7, 166272, Note_on_c, 5, 88, 0
7, 166272, Note_on_c, 5, 89, 113
7, 166272, Note_on_c, 5, 93, 113
7, 166296, Note_on_c, 5, 93, 0
7, 166296, Note_on_c, 5, 89, 0
7, 166368, Note_on_c, 5, 88, 110
7, 166368, Note_on_c, 5, 91, 110
7, 166392, Note_on_c, 5, 91, 0
7, 166392, Note_on_c, 5, 88, 0
7, 166416, Note_on_c, 5, 86, 113
7, 166416, Note_on_c, 5, 89, 113
7, 166440, Note_on_c, 5, 89, 0
7, 166440, Note_on_c, 5, 86, 0
7, 166512, Note_on_c, 5, 84, 110
7, 166512, Note_on_c, 5, 88, 110
7, 166536, Note_on_c, 5, 88, 0
7, 166536, Note_on_c, 5, 84, 0
7, 166560, Note_on_c, 5, 86, 113
7, 166560, Note_on_c, 5, 89, 113
7, 166584, Note_on_c, 5, 89, 0
7, 166584, Note_on_c, 5, 86, 0
7, 166656, Note_on_c, 5, 83, 110
7, 166656, Note_on_c, 5, 86, 110
7, 166680, Note_on_c, 5, 86, 0
7, 166680, Note_on_c, 5, 83, 0
7, 166704, Note_on_c, 5, 84, 113
7, 166728, Note_on_c, 5, 84, 0
7, 166752, Note_on_c, 5, 84, 109
7, 166800, Note_on_c, 5, 84, 0
7, 166800, Note_on_c, 5, 84, 110
7, 166800, Note_on_c, 5, 86, 111
7, 166824, Note_on_c, 5, 86, 0
7, 166824, Note_on_c, 5, 84, 0
7, 166824, Note_on_c, 5, 88, 111
7, 166848, Note_on_c, 5, 88, 0
7, 166848, Note_on_c, 5, 84, 113
7, 166848, Note_on_c, 5, 89, 113
7, 166872, Note_on_c, 5, 89, 0
7, 166872, Note_on_c, 5, 84, 0
7, 166896, Note_on_c, 5, 84, 111
7, 166896, Note_on_c, 5, 89, 111
7, 166920, Note_on_c, 5, 89, 0
7, 166920, Note_on_c, 5, 84, 0
7, 166944, Note_on_c, 5, 84, 111
7, 166944, Note_on_c, 5, 88, 111
7, 166968, Note_on_c, 5, 88, 0
7, 166968, Note_on_c, 5, 84, 0
7, 166992, Note_on_c, 5, 84, 113
7, 166992, Note_on_c, 5, 86, 113
7, 167016, Note_on_c, 5, 86, 0
7, 167016, Note_on_c, 5, 84, 0
7, 167040, Note_on_c, 5, 84, 111
7, 167040, Note_on_c, 5, 86, 111
7, 167064, Note_on_c, 5, 86, 0
7, 167064, Note_on_c, 5, 84, 0
7, 167088, Note_on_c, 5, 84, 111
7, 167112, Note_on_c, 5, 84, 0
7, 167136, Note_on_c, 5, 86, 113
7, 167160, Note_on_c, 5, 86, 0
7, 167184, Note_on_c, 5, 86, 111
7, 167208, Note_on_c, 5, 86, 0
7, 167232, Note_on_c, 5, 83, 111
7, 167256, Note_on_c, 5, 83, 0
7, 167280, Note_on_c, 5, 84, 113
7, 167280, Note_on_c, 5, 88, 113
7, 167304, Note_on_c, 5, 88, 0
7, 167304, Note_on_c, 5, 84, 0
7, 167328, Note_on_c, 5, 84, 110
7, 167328, Note_on_c, 5, 88, 110
7, 167376, Note_on_c, 5, 88, 0
7, 167376, Note_on_c, 5, 84, 0
7, 167376, Note_on_c, 5, 86, 111
7, 167376, Note_on_c, 5, 89, 111
7, 167400, Note_on_c, 5, 89, 0
7, 167400, Note_on_c, 5, 86, 0
7, 167400, Note_on_c, 5, 88, 112
7, 167400, Note_on_c, 5, 91, 112
7, 167424, Note_on_c, 5, 91, 0
7, 167424, Note_on_c, 5, 88, 0
7, 167424, Note_on_c, 5, 89, 113
7, 167424, Note_on_c, 5, 93, 113
7, 167448, Note_on_c, 5, 93, 0
7, 167448, Note_on_c, 5, 89, 0
7, 167472, Note_on_c, 5, 89, 111
7, 167472, Note_on_c, 5, 93, 111
7, 167496, Note_on_c, 5, 93, 0
7, 167496, Note_on_c, 5, 89, 0
7, 167520, Note_on_c, 5, 88, 111
7, 167520, Note_on_c, 5, 91, 111
7, 167544, Note_on_c, 5, 91, 0
7, 167544, Note_on_c, 5, 88, 0
7, 167568, Note_on_c, 5, 86, 113
7, 167568, Note_on_c, 5, 89, 113
7, 167592, Note_on_c, 5, 89, 0
7, 167592, Note_on_c, 5, 86, 0
7, 167616, Note_on_c, 5, 86, 111
7, 167616, Note_on_c, 5, 89, 111
7, 167640, Note_on_c, 5, 89, 0
7, 167640, Note_on_c, 5, 86, 0
7, 167664, Note_on_c, 5, 84, 111
7, 167664, Note_on_c, 5, 88, 111
7, 167688, Note_on_c, 5, 88, 0
7, 167688, Note_on_c, 5, 84, 0
7, 167712, Note_on_c, 5, 86, 113
7, 167712, Note_on_c, 5, 89, 113
7, 167736, Note_on_c, 5, 89, 0
7, 167736, Note_on_c, 5, 86, 0
7, 167760, Note_on_c, 5, 86, 111
7, 167760, Note_on_c, 5, 89, 111
7, 167784, Note_on_c, 5, 89, 0
7, 167784, Note_on_c, 5, 86, 0
7, 167808, Note_on_c, 5, 83, 111
7, 167808, Note_on_c, 5, 86, 111
7, 167832, Note_on_c, 5, 86, 0
7, 167832, Note_on_c, 5, 83, 0
7, 167856, Note_on_c, 5, 88, 120
7, 167891, Note_on_c, 5, 88, 0
7, 167928, Note_on_c, 5, 76, 113
7, 167940, Note_on_c, 5, 76, 0
7, 167952, Note_on_c, 5, 76, 113
7, 167976, Note_on_c, 5, 76, 0
7, 168000, Note_on_c, 5, 88, 116
7, 168024, Note_on_c, 5, 88, 0
7, 168048, Note_on_c, 5, 89, 113
7, 168072, Note_on_c, 5, 89, 0
7, 168096, Note_on_c, 5, 91, 113
7, 168120, Note_on_c, 5, 91, 0
7, 168144, Note_on_c, 5, 93, 116
7, 168168, Note_on_c, 5, 93, 0
7, 168288, Note_on_c, 5, 69, 115
7, 168288, Note_on_c, 5, 81, 115
7, 168312, Note_on_c, 5, 81, 0
7, 168312, Note_on_c, 5, 69, 0
7, 168336, Note_on_c, 5, 71, 113
7, 168336, Note_on_c, 5, 83, 113
7, 168360, Note_on_c, 5, 83, 0
7, 168360, Note_on_c, 5, 71, 0
7, 168384, Note_on_c, 5, 72, 113
7, 168384, Note_on_c, 5, 84, 113
7, 168408, Note_on_c, 5, 84, 0
7, 168408, Note_on_c, 5, 72, 0
7, 168432, Note_on_c, 5, 86, 120
7, 168467, Note_on_c, 5, 86, 0
7, 168504, Note_on_c, 5, 74, 113
7, 168516, Note_on_c, 5, 74, 0
7, 168528, Note_on_c, 5, 74, 113
7, 168552, Note_on_c, 5, 74, 0
7, 168576, Note_on_c, 5, 74, 115
7, 168576, Note_on_c, 5, 86, 115
7, 168600, Note_on_c, 5, 86, 0
7, 168600, Note_on_c, 5, 74, 0
7, 168624, Note_on_c, 5, 76, 113
7, 168624, Note_on_c, 5, 88, 113
7, 168648, Note_on_c, 5, 88, 0
7, 168648, Note_on_c, 5, 76, 0
7, 168672, Note_on_c, 5, 77, 113
7, 168672, Note_on_c, 5, 89, 113
7, 168696, Note_on_c, 5, 89, 0
7, 168696, Note_on_c, 5, 77, 0
7, 168720, Note_on_c, 5, 79, 115
7, 168720, Note_on_c, 5, 91, 115
7, 168744, Note_on_c, 5, 91, 0
7, 168744, Note_on_c, 5, 79, 0
7, 168864, Note_on_c, 5, 67, 115
7, 168864, Note_on_c, 5, 79, 115
7, 168888, Note_on_c, 5, 79, 0
7, 168888, Note_on_c, 5, 67, 0
7, 168912, Note_on_c, 5, 72, 113
7, 168912, Note_on_c, 5, 84, 113
7, 168936, Note_on_c, 5, 84, 0
7, 168936, Note_on_c, 5, 72, 0
7, 168960, Note_on_c, 5, 74, 113
7, 168960, Note_on_c, 5, 86, 113
7, 168984, Note_on_c, 5, 86, 0
7, 168984, Note_on_c, 5, 74, 0
7, 169008, Note_on_c, 5, 76, 60
7, 169008, Note_on_c, 5, 91, 60
7, 169032, Note_on_c, 5, 91, 0
7, 169032, Note_on_c, 5, 76, 0
7, 169872, Control_c, 5, 11, 60
7, 169872, Control_c, 5, 1, 0
7, 169872, Note_on_c, 5, 84, 100
7, 169872, Note_on_c, 5, 89, 100
7, 169873, Control_c, 5, 1, 1
7, 169874, Control_c, 5, 1, 2
7, 169875, Control_c, 5, 1, 3
7, 169876, Control_c, 5, 1, 4
7, 169878, Control_c, 5, 1, 5
7, 169880, Control_c, 5, 1, 6
7, 169881, Control_c, 5, 1, 7
7, 169882, Control_c, 5, 11, 61
7, 169883, Control_c, 5, 1, 8
7, 169885, Control_c, 5, 1, 9
7, 169888, Control_c, 5, 1, 10
7, 169890, Control_c, 5, 1, 11
7, 169892, Control_c, 5, 11, 62
7, 169893, Control_c, 5, 1, 12
7, 169896, Control_c, 5, 1, 13
7, 169899, Control_c, 5, 1, 14
7, 169901, Control_c, 5, 11, 63
7, 169903, Control_c, 5, 1, 15
7, 169908, Control_c, 5, 1, 16
7, 169911, Control_c, 5, 11, 64
7, 169913, Control_c, 5, 1, 17
7, 169920, Control_c, 5, 11, 65
7, 169921, Control_c, 5, 1, 18
7, 169930, Control_c, 5, 11, 66
7, 169931, Control_c, 5, 1, 19
7, 169940, Control_c, 5, 11, 67
7, 169949, Control_c, 5, 11, 68
7, 169949, Control_c, 5, 1, 20
7, 169959, Control_c, 5, 11, 69
7, 169968, Control_c, 5, 11, 70
7, 169978, Control_c, 5, 11, 71
7, 169987, Control_c, 5, 11, 72
7, 169997, Control_c, 5, 11, 73
7, 170007, Control_c, 5, 11, 74
7, 170016, Note_on_c, 5, 89, 0
7, 170016, Note_on_c, 5, 88, 100
7, 170016, Control_c, 5, 11, 75
7, 170026, Control_c, 5, 11, 76
7, 170035, Control_c, 5, 11, 77
7, 170045, Control_c, 5, 11, 78
7, 170055, Control_c, 5, 11, 79
7, 170064, Control_c, 5, 11, 80
7, 170074, Control_c, 5, 11, 81
7, 170083, Control_c, 5, 11, 82
7, 170093, Control_c, 5, 11, 83
7, 170102, Control_c, 5, 11, 84
7, 170112, Control_c, 5, 11, 85
7, 170122, Control_c, 5, 11, 86
7, 170131, Control_c, 5, 11, 87
7, 170141, Control_c, 5, 11, 88
7, 170150, Control_c, 5, 11, 89
7, 170160, Note_on_c, 5, 88, 0
7, 170160, Note_on_c, 5, 88, 100
7, 170160, Control_c, 5, 11, 90
7, 170170, Control_c, 5, 11, 91
7, 170179, Control_c, 5, 11, 92
7, 170189, Control_c, 5, 11, 93
7, 170198, Control_c, 5, 11, 94
7, 170208, Control_c, 5, 11, 95
7, 170217, Control_c, 5, 11, 96
7, 170227, Control_c, 5, 11, 97
7, 170237, Control_c, 5, 11, 98
7, 170246, Control_c, 5, 11, 99
7, 170256, Control_c, 5, 11, 100
7, 170265, Control_c, 5, 11, 101
7, 170275, Control_c, 5, 11, 102
7, 170285, Control_c, 5, 11, 103
7, 170294, Control_c, 5, 11, 104
7, 170304, Control_c, 5, 11, 105
7, 170313, Control_c, 5, 11, 106
7, 170323, Control_c, 5, 11, 107
7, 170332, Control_c, 5, 11, 108
7, 170342, Control_c, 5, 11, 109
7, 170352, Note_on_c, 5, 88, 0
7, 170352, Note_on_c, 5, 84, 0
7, 170352, Note_on_c, 5, 86, 100
7, 170352, Note_on_c, 5, 89, 100
7, 170352, Control_c, 5, 11, 110
7, 170361, Control_c, 5, 11, 111
7, 170371, Control_c, 5, 11, 112
7, 170380, Control_c, 5, 11, 113
7, 170390, Control_c, 5, 11, 114
7, 170400, Note_on_c, 5, 89, 0
7, 170400, Note_on_c, 5, 86, 0
7, 170400, Note_on_c, 5, 88, 100
7, 170400, Note_on_c, 5, 91, 100
7, 170400, Control_c, 5, 11, 115
7, 170409, Control_c, 5, 11, 116
7, 170419, Control_c, 5, 11, 117
7, 170428, Control_c, 5, 11, 118
7, 170438, Control_c, 5, 11, 119
7, 170447, Control_c, 5, 11, 120
7, 170448, Note_on_c, 5, 91, 0
7, 170448, Note_on_c, 5, 88, 0
7, 170448, Control_c, 5, 1, 0
7, 170448, Note_on_c, 5, 79, 105
7, 170448, Note_on_c, 5, 91, 105
7, 170472, Note_on_c, 5, 91, 0
7, 170472, Note_on_c, 5, 79, 0
7, 170496, Note_on_c, 5, 76, 100
7, 170496, Note_on_c, 5, 88, 100
7, 170520, Note_on_c, 5, 88, 0
7, 170520, Note_on_c, 5, 76, 0
7, 170544, Note_on_c, 5, 81, 100
7, 170544, Note_on_c, 5, 93, 100
7, 170568, Note_on_c, 5, 93, 0
7, 170568, Note_on_c, 5, 81, 0
7, 170592, Note_on_c, 5, 77, 105
7, 170592, Note_on_c, 5, 89, 105
7, 170616, Note_on_c, 5, 89, 0
7, 170616, Note_on_c, 5, 77, 0
7, 170640, Note_on_c, 5, 74, 100
7, 170640, Note_on_c, 5, 86, 100
7, 170664, Note_on_c, 5, 86, 0
7, 170664, Note_on_c, 5, 74, 0
7, 170688, Note_on_c, 5, 79, 100
7, 170688, Note_on_c, 5, 91, 100
7, 170712, Note_on_c, 5, 91, 0
7, 170712, Note_on_c, 5, 79, 0
7, 170736, Note_on_c, 5, 72, 105
7, 170736, Note_on_c, 5, 84, 105
7, 170760, Note_on_c, 5, 84, 0
7, 170760, Note_on_c, 5, 72, 0
7, 171024, Note_on_c, 5, 79, 105
7, 171024, Note_on_c, 5, 91, 105
7, 171048, Note_on_c, 5, 91, 0
7, 171048, Note_on_c, 5, 79, 0
7, 171072, Note_on_c, 5, 76, 100
7, 171072, Note_on_c, 5, 88, 100
7, 171096, Note_on_c, 5, 88, 0
7, 171096, Note_on_c, 5, 76, 0
7, 171120, Note_on_c, 5, 81, 100
7, 171120, Note_on_c, 5, 93, 100
7, 171144, Note_on_c, 5, 93, 0
7, 171144, Note_on_c, 5, 81, 0
7, 171168, Note_on_c, 5, 77, 105
7, 171168, Note_on_c, 5, 89, 105
7, 171192, Note_on_c, 5, 89, 0
7, 171192, Note_on_c, 5, 77, 0
7, 171216, Note_on_c, 5, 74, 100
7, 171216, Note_on_c, 5, 86, 100
7, 171240, Note_on_c, 5, 86, 0
7, 171240, Note_on_c, 5, 74, 0
7, 171264, Note_on_c, 5, 79, 100
7, 171264, Note_on_c, 5, 91, 100
7, 171288, Note_on_c, 5, 91, 0
7, 171288, Note_on_c, 5, 79, 0
7, 171312, Note_on_c, 5, 79, 105
7, 171312, Note_on_c, 5, 91, 105
7, 171336, Note_on_c, 5, 91, 0
7, 171336, Note_on_c, 5, 79, 0
7, 171360, Note_on_c, 5, 79, 100
7, 171360, Note_on_c, 5, 91, 100
7, 171384, Note_on_c, 5, 91, 0
7, 171384, Note_on_c, 5, 79, 0
7, 171408, Note_on_c, 5, 79, 100
7, 171408, Note_on_c, 5, 91, 100
7, 171432, Note_on_c, 5, 91, 0
7, 171432, Note_on_c, 5, 79, 0
7, 171456, Note_on_c, 5, 79, 105
7, 171456, Note_on_c, 5, 91, 105
7, 171480, Note_on_c, 5, 91, 0
7, 171480, Note_on_c, 5, 79, 0
7, 171504, Note_on_c, 5, 79, 100
7, 171504, Note_on_c, 5, 91, 100
7, 171528, Note_on_c, 5, 91, 0
7, 171528, Note_on_c, 5, 79, 0
7, 171552, Note_on_c, 5, 79, 100
7, 171552, Note_on_c, 5, 91, 100
7, 171576, Note_on_c, 5, 91, 0
7, 171576, Note_on_c, 5, 79, 0
7, 171600, Note_on_c, 5, 84, 105
7, 171600, Note_on_c, 5, 88, 105
7, 171624, Note_on_c, 5, 88, 0
7, 171624, Note_on_c, 5, 84, 0
7, 171648, Note_on_c, 5, 84, 100
7, 171672, Note_on_c, 5, 84, 0
7, 171696, Note_on_c, 5, 88, 100
7, 171696, Note_on_c, 5, 91, 100
7, 171720, Note_on_c, 5, 91, 0
7, 171720, Note_on_c, 5, 88, 0
7, 171744, Note_on_c, 5, 86, 105
7, 171744, Note_on_c, 5, 89, 105
7, 171768, Note_on_c, 5, 89, 0
7, 171768, Note_on_c, 5, 86, 0
7, 171792, Note_on_c, 5, 83, 100
7, 171792, Note_on_c, 5, 86, 100
7, 171816, Note_on_c, 5, 86, 0
7, 171816, Note_on_c, 5, 83, 0
7, 171840, Note_on_c, 5, 83, 100
7, 171840, Note_on_c, 5, 91, 100
7, 171864, Note_on_c, 5, 91, 0
7, 171864, Note_on_c, 5, 83, 0
7, 171888, Note_on_c, 5, 84, 105
7, 171888, Note_on_c, 5, 88, 105
7, 171912, Note_on_c, 5, 88, 0
7, 171912, Note_on_c, 5, 84, 0
7, 171936, Note_on_c, 5, 84, 100
7, 171960, Note_on_c, 5, 84, 0
7, 171984, Note_on_c, 5, 88, 100
7, 171984, Note_on_c, 5, 91, 100
7, 172008, Note_on_c, 5, 91, 0
7, 172008, Note_on_c, 5, 88, 0
7, 172032, Note_on_c, 5, 86, 105
7, 172032, Note_on_c, 5, 89, 105
7, 172056, Note_on_c, 5, 89, 0
7, 172056, Note_on_c, 5, 86, 0
7, 172080, Note_on_c, 5, 83, 100
7, 172080, Note_on_c, 5, 86, 100
7, 172104, Note_on_c, 5, 86, 0
7, 172104, Note_on_c, 5, 83, 0
7, 172128, Note_on_c, 5, 83, 100
7, 172128, Note_on_c, 5, 91, 100
7, 172152, Note_on_c, 5, 91, 0
7, 172152, Note_on_c, 5, 83, 0
7, 172176, Control_c, 5, 1, 0
7, 172176, Note_on_c, 5, 79, 49
7, 172177, Control_c, 5, 1, 1
7, 172178, Control_c, 5, 1, 2
7, 172179, Control_c, 5, 1, 3
7, 172180, Control_c, 5, 1, 4
7, 172182, Control_c, 5, 1, 5
7, 172184, Control_c, 5, 1, 6
7, 172185, Control_c, 5, 1, 7
7, 172187, Control_c, 5, 1, 8
7, 172189, Control_c, 5, 1, 9
7, 172192, Control_c, 5, 1, 10
7, 172194, Control_c, 5, 1, 11
7, 172197, Control_c, 5, 1, 12
7, 172200, Control_c, 5, 1, 13
7, 172203, Control_c, 5, 1, 14
7, 172207, Control_c, 5, 1, 15
7, 172212, Control_c, 5, 1, 16
7, 172217, Control_c, 5, 1, 17
7, 172224, Note_on_c, 5, 79, 0
7, 172224, Note_on_c, 5, 81, 51
7, 172225, Control_c, 5, 1, 18
7, 172235, Control_c, 5, 1, 19
7, 172253, Control_c, 5, 1, 20
7, 172272, Note_on_c, 5, 81, 0
7, 172272, Note_on_c, 5, 83, 53
7, 172320, Note_on_c, 5, 83, 0
7, 172320, Note_on_c, 5, 84, 54
7, 172368, Note_on_c, 5, 84, 0
7, 172368, Note_on_c, 5, 86, 56
7, 172416, Note_on_c, 5, 86, 0
7, 172416, Note_on_c, 5, 88, 58
7, 172464, Note_on_c, 5, 88, 0
7, 172464, Note_on_c, 5, 89, 59
7, 172512, Note_on_c, 5, 89, 0
7, 172512, Note_on_c, 5, 88, 58
7, 172560, Note_on_c, 5, 88, 0
7, 172560, Note_on_c, 5, 89, 59
7, 172608, Note_on_c, 5, 89, 0
7, 172608, Note_on_c, 5, 91, 61
7, 172656, Note_on_c, 5, 91, 0
7, 172656, Note_on_c, 5, 93, 63
7, 172704, Note_on_c, 5, 93, 0
7, 172704, Note_on_c, 5, 83, 53
7, 172752, Note_on_c, 5, 83, 0
7, 172752, Note_on_c, 5, 84, 50
7, 172776, Note_on_c, 5, 84, 0
7, 172896, Note_on_c, 5, 84, 50
7, 172931, Note_on_c, 5, 84, 0
7, 172968, Note_on_c, 5, 72, 50
7, 172980, Note_on_c, 5, 72, 0
7, 172992, Note_on_c, 5, 72, 50
7, 173016, Note_on_c, 5, 72, 0
7, 173040, Note_on_c, 5, 72, 50
7, 173064, Note_on_c, 5, 72, 0
7, 173184, Control_c, 5, 1, 0
7, 173184, Note_on_c, 5, 86, 50
7, 173219, Note_on_c, 5, 86, 0
7, 173256, Note_on_c, 5, 74, 50
7, 173268, Note_on_c, 5, 74, 0
7, 173280, Note_on_c, 5, 74, 50
7, 173304, Note_on_c, 5, 74, 0
7, 173328, Note_on_c, 5, 74, 50
7, 173352, Note_on_c, 5, 74, 0
7, 174048, Note_on_c, 5, 86, 60
7, 174083, Note_on_c, 5, 86, 0
7, 174120, Note_on_c, 5, 74, 50
7, 174132, Note_on_c, 5, 74, 0
7, 174144, Note_on_c, 5, 74, 50
7, 174168, Note_on_c, 5, 74, 0
7, 174192, Note_on_c, 5, 74, 50
7, 174216, Note_on_c, 5, 74, 0
7, 174336, Note_on_c, 5, 87, 60
7, 174371, Note_on_c, 5, 87, 0
7, 174408, Note_on_c, 5, 75, 50
7, 174420, Note_on_c, 5, 75, 0
7, 174432, Note_on_c, 5, 75, 50
7, 174456, Note_on_c, 5, 75, 0
7, 174480, Note_on_c, 5, 75, 50
7, 174504, Note_on_c, 5, 75, 0
7, 175200, Note_on_c, 5, 87, 60
7, 175235, Note_on_c, 5, 87, 0
7, 175272, Note_on_c, 5, 75, 61
7, 175284, Note_on_c, 5, 75, 0
7, 175296, Note_on_c, 5, 75, 62
7, 175320, Note_on_c, 5, 75, 0
7, 175344, Note_on_c, 5, 75, 63
7, 175368, Note_on_c, 5, 75, 0
7, 175488, Note_on_c, 5, 89, 66
7, 175523, Note_on_c, 5, 89, 0
7, 175560, Note_on_c, 5, 77, 68
7, 175572, Note_on_c, 5, 77, 0
7, 175584, Note_on_c, 5, 77, 69
7, 175608, Note_on_c, 5, 77, 0
7, 175632, Note_on_c, 5, 77, 70
7, 175656, Note_on_c, 5, 77, 0
7, 175776, Note_on_c, 5, 89, 73
7, 175811, Note_on_c, 5, 89, 0
7, 175848, Note_on_c, 5, 77, 75
7, 175860, Note_on_c, 5, 77, 0
7, 175872, Note_on_c, 5, 77, 75
7, 175896, Note_on_c, 5, 77, 0
7, 175920, Note_on_c, 5, 78, 76
7, 175944, Note_on_c, 5, 78, 0
7, 176064, Note_on_c, 5, 90, 80
7, 176099, Note_on_c, 5, 90, 0
7, 176136, Note_on_c, 5, 78, 81
7, 176148, Note_on_c, 5, 78, 0
7, 176160, Note_on_c, 5, 78, 82
7, 176184, Note_on_c, 5, 78, 0
7, 176208, Note_on_c, 5, 78, 83
7, 176232, Note_on_c, 5, 78, 0
7, 176352, Note_on_c, 5, 92, 87
7, 176387, Note_on_c, 5, 92, 0
7, 176424, Note_on_c, 5, 80, 88
7, 176436, Note_on_c, 5, 80, 0
7, 176448, Note_on_c, 5, 80, 89
7, 176472, Note_on_c, 5, 80, 0
7, 176496, Note_on_c, 5, 80, 90
7, 176520, Note_on_c, 5, 80, 0
7, 176640, Note_on_c, 5, 92, 93
7, 176675, Note_on_c, 5, 92, 0
7, 176712, Note_on_c, 5, 80, 95
7, 176724, Note_on_c, 5, 80, 0
7, 176736, Note_on_c, 5, 80, 96
7, 176760, Note_on_c, 5, 80, 0
7, 176784, Note_on_c, 5, 81, 100
7, 176808, Note_on_c, 5, 81, 0
7, 176928, Note_on_c, 5, 81, 100
7, 176928, Note_on_c, 5, 93, 100
7, 176963, Note_on_c, 5, 93, 0
7, 176963, Note_on_c, 5, 81, 0
7, 177000, Note_on_c, 5, 69, 100
7, 177000, Note_on_c, 5, 81, 100
7, 177012, Note_on_c, 5, 81, 0
7, 177012, Note_on_c, 5, 69, 0
7, 177024, Note_on_c, 5, 69, 100
7, 177024, Note_on_c, 5, 81, 100
7, 177048, Note_on_c, 5, 81, 0
7, 177048, Note_on_c, 5, 69, 0
7, 177216, Note_on_c, 5, 94, 113
7, 177251, Note_on_c, 5, 94, 0
7, 177288, Note_on_c, 5, 82, 113
7, 177300, Note_on_c, 5, 82, 0
7, 177312, Note_on_c, 5, 82, 113
7, 177336, Note_on_c, 5, 82, 0
7, 177504, Note_on_c, 5, 95, 113
7, 177539, Note_on_c, 5, 95, 0
7, 177576, Note_on_c, 5, 83, 113
7, 177588, Note_on_c, 5, 83, 0
7, 177600, Note_on_c, 5, 83, 113
7, 177672, Note_on_c, 5, 83, 0
7, 178992, Note_on_c, 5, 88, 75
7, 179027, Note_on_c, 5, 88, 0
7, 179064, Note_on_c, 5, 76, 70
7, 179076, Note_on_c, 5, 76, 0
7, 179088, Note_on_c, 5, 76, 70
7, 179112, Note_on_c, 5, 76, 0
7, 179136, Note_on_c, 5, 81, 65
7, 179160, Note_on_c, 5, 81, 0
7, 179184, Note_on_c, 5, 83, 60
7, 179208, Note_on_c, 5, 83, 0
7, 179232, Note_on_c, 5, 84, 60
7, 179256, Note_on_c, 5, 84, 0
7, 179280, Note_on_c, 5, 83, 65
7, 179304, Note_on_c, 5, 83, 0
7, 179328, Note_on_c, 5, 84, 60
7, 179352, Note_on_c, 5, 84, 0
7, 179376, Note_on_c, 5, 86, 60
7, 179400, Note_on_c, 5, 86, 0
7, 179424, Note_on_c, 5, 84, 65
7, 179448, Note_on_c, 5, 84, 0
7, 179472, Note_on_c, 5, 88, 60
7, 179496, Note_on_c, 5, 88, 0
7, 179520, Note_on_c, 5, 88, 60
7, 179544, Note_on_c, 5, 88, 0
7, 179568, Note_on_c, 5, 88, 65
7, 179592, Note_on_c, 5, 88, 0
7, 179616, Note_on_c, 5, 86, 60
7, 179640, Note_on_c, 5, 86, 0
7, 179664, Note_on_c, 5, 84, 60
7, 179688, Note_on_c, 5, 84, 0
7, 179712, Note_on_c, 5, 86, 65
7, 179736, Note_on_c, 5, 86, 0
7, 179760, Note_on_c, 5, 84, 60
7, 179784, Note_on_c, 5, 84, 0
7, 179808, Note_on_c, 5, 83, 60
7, 179832, Note_on_c, 5, 83, 0
7, 179856, Note_on_c, 5, 88, 65
7, 179891, Note_on_c, 5, 88, 0
7, 179928, Note_on_c, 5, 76, 60
7, 179940, Note_on_c, 5, 76, 0
7, 179952, Note_on_c, 5, 76, 60
7, 179976, Note_on_c, 5, 76, 0
7, 180000, Note_on_c, 5, 81, 65
7, 180024, Note_on_c, 5, 81, 0
7, 180048, Note_on_c, 5, 83, 60
7, 180072, Note_on_c, 5, 83, 0
7, 180096, Note_on_c, 5, 84, 60
7, 180120, Note_on_c, 5, 84, 0
7, 180144, Note_on_c, 5, 83, 65
7, 180168, Note_on_c, 5, 83, 0
7, 180192, Note_on_c, 5, 84, 60
7, 180216, Note_on_c, 5, 84, 0
7, 180240, Note_on_c, 5, 86, 60
7, 180264, Note_on_c, 5, 86, 0
7, 180432, Note_on_c, 5, 81, 65
7, 180456, Note_on_c, 5, 81, 0
7, 180480, Note_on_c, 5, 82, 60
7, 180504, Note_on_c, 5, 82, 0
7, 180528, Note_on_c, 5, 84, 60
7, 180552, Note_on_c, 5, 84, 0
7, 180576, Note_on_c, 5, 82, 65
7, 180600, Note_on_c, 5, 82, 0
7, 180624, Note_on_c, 5, 84, 60
7, 180648, Note_on_c, 5, 84, 0
7, 180672, Note_on_c, 5, 86, 60
7, 180696, Note_on_c, 5, 86, 0
7, 180864, Note_on_c, 5, 84, 65
7, 180888, Note_on_c, 5, 84, 0
7, 180912, Note_on_c, 5, 88, 60
7, 180936, Note_on_c, 5, 88, 0
7, 180960, Note_on_c, 5, 89, 60
7, 180984, Note_on_c, 5, 89, 0
7, 181008, Note_on_c, 5, 88, 65
7, 181032, Note_on_c, 5, 88, 0
7, 181056, Note_on_c, 5, 89, 60
7, 181080, Note_on_c, 5, 89, 0
7, 181104, Note_on_c, 5, 91, 60
7, 181128, Note_on_c, 5, 91, 0
7, 181296, Note_on_c, 5, 77, 65
7, 181296, Note_on_c, 5, 89, 65
7, 181320, Note_on_c, 5, 89, 0
7, 181320, Note_on_c, 5, 77, 0
7, 181344, Note_on_c, 5, 77, 60
7, 181344, Note_on_c, 5, 89, 60
7, 181368, Note_on_c, 5, 89, 0
7, 181368, Note_on_c, 5, 77, 0
7, 181392, Note_on_c, 5, 77, 60
7, 181392, Note_on_c, 5, 89, 60
7, 181416, Note_on_c, 5, 89, 0
7, 181416, Note_on_c, 5, 77, 0
7, 181440, Note_on_c, 5, 77, 65
7, 181440, Note_on_c, 5, 89, 65
7, 181464, Note_on_c, 5, 89, 0
7, 181464, Note_on_c, 5, 77, 0
7, 181488, Note_on_c, 5, 77, 60
7, 181488, Note_on_c, 5, 89, 60
7, 181512, Note_on_c, 5, 89, 0
7, 181512, Note_on_c, 5, 77, 0
7, 181536, Note_on_c, 5, 77, 60
7, 181536, Note_on_c, 5, 89, 60
7, 181560, Note_on_c, 5, 89, 0
7, 181560, Note_on_c, 5, 77, 0
7, 181728, Note_on_c, 5, 84, 65
7, 181728, Note_on_c, 5, 93, 65
7, 181752, Note_on_c, 5, 93, 0
7, 181752, Note_on_c, 5, 84, 0
7, 181776, Note_on_c, 5, 84, 60
7, 181776, Note_on_c, 5, 91, 60
7, 181800, Note_on_c, 5, 91, 0
7, 181800, Note_on_c, 5, 84, 0
7, 181824, Note_on_c, 5, 84, 60
7, 181824, Note_on_c, 5, 89, 60
7, 181848, Note_on_c, 5, 89, 0
7, 181848, Note_on_c, 5, 84, 0
7, 181872, Note_on_c, 5, 84, 65
7, 181872, Note_on_c, 5, 91, 65
7, 181896, Note_on_c, 5, 91, 0
7, 181896, Note_on_c, 5, 84, 0
7, 181920, Note_on_c, 5, 84, 60
7, 181920, Note_on_c, 5, 89, 60
7, 181944, Note_on_c, 5, 89, 0
7, 181944, Note_on_c, 5, 84, 0
7, 181968, Note_on_c, 5, 84, 60
7, 181968, Note_on_c, 5, 88, 60
7, 181992, Note_on_c, 5, 88, 0
7, 181992, Note_on_c, 5, 84, 0
7, 182016, Note_on_c, 5, 84, 65
7, 182016, Note_on_c, 5, 89, 65
7, 182040, Note_on_c, 5, 89, 0
7, 182040, Note_on_c, 5, 84, 0
7, 182064, Note_on_c, 5, 84, 60
7, 182064, Note_on_c, 5, 91, 60
7, 182088, Note_on_c, 5, 91, 0
7, 182088, Note_on_c, 5, 84, 0
7, 182112, Note_on_c, 5, 84, 60
7, 182112, Note_on_c, 5, 93, 60
7, 182136, Note_on_c, 5, 93, 0
7, 182136, Note_on_c, 5, 84, 0
7, 182160, Note_on_c, 5, 84, 65
7, 182160, Note_on_c, 5, 93, 65
7, 182184, Note_on_c, 5, 93, 0
7, 182184, Note_on_c, 5, 84, 0
7, 182208, Note_on_c, 5, 84, 60
7, 182208, Note_on_c, 5, 91, 60
7, 182232, Note_on_c, 5, 91, 0
7, 182232, Note_on_c, 5, 84, 0
7, 182256, Note_on_c, 5, 84, 60
7, 182256, Note_on_c, 5, 89, 60
7, 182280, Note_on_c, 5, 89, 0
7, 182280, Note_on_c, 5, 84, 0
7, 182304, Note_on_c, 5, 84, 65
7, 182304, Note_on_c, 5, 89, 65
7, 182328, Note_on_c, 5, 89, 0
7, 182328, Note_on_c, 5, 84, 0
7, 182352, Note_on_c, 5, 84, 60
7, 182352, Note_on_c, 5, 91, 60
7, 182376, Note_on_c, 5, 91, 0
7, 182376, Note_on_c, 5, 84, 0
7, 182400, Note_on_c, 5, 84, 60
7, 182400, Note_on_c, 5, 89, 60
7, 182424, Note_on_c, 5, 89, 0
7, 182424, Note_on_c, 5, 84, 0
7, 182592, Note_on_c, 5, 84, 55
7, 182627, Note_on_c, 5, 84, 0
7, 182664, Note_on_c, 5, 72, 50
7, 182676, Note_on_c, 5, 72, 0
7, 182688, Note_on_c, 5, 72, 50
7, 182712, Note_on_c, 5, 72, 0
7, 182880, Note_on_c, 5, 81, 55
7, 182880, Note_on_c, 5, 86, 55
7, 182904, Note_on_c, 5, 86, 0
7, 182904, Note_on_c, 5, 81, 0
7, 182928, Note_on_c, 5, 81, 50
7, 182928, Note_on_c, 5, 88, 50
7, 182952, Note_on_c, 5, 88, 0
7, 182952, Note_on_c, 5, 81, 0
7, 182976, Note_on_c, 5, 81, 50
7, 182976, Note_on_c, 5, 89, 50
7, 183000, Note_on_c, 5, 89, 0
7, 183000, Note_on_c, 5, 81, 0
7, 183024, Note_on_c, 5, 81, 55
7, 183024, Note_on_c, 5, 89, 55
7, 183048, Note_on_c, 5, 89, 0
7, 183048, Note_on_c, 5, 81, 0
7, 183072, Note_on_c, 5, 81, 50
7, 183072, Note_on_c, 5, 88, 50
7, 183096, Note_on_c, 5, 88, 0
7, 183096, Note_on_c, 5, 81, 0
7, 183120, Note_on_c, 5, 81, 50
7, 183120, Note_on_c, 5, 86, 50
7, 183144, Note_on_c, 5, 86, 0
7, 183144, Note_on_c, 5, 81, 0
7, 183168, Note_on_c, 5, 81, 55
7, 183168, Note_on_c, 5, 86, 55
7, 183192, Note_on_c, 5, 86, 0
7, 183192, Note_on_c, 5, 81, 0
7, 183216, Note_on_c, 5, 81, 50
7, 183216, Note_on_c, 5, 88, 50
7, 183240, Note_on_c, 5, 88, 0
7, 183240, Note_on_c, 5, 81, 0
7, 183264, Note_on_c, 5, 81, 50
7, 183264, Note_on_c, 5, 86, 50
7, 183288, Note_on_c, 5, 86, 0
7, 183288, Note_on_c, 5, 81, 0
7, 183744, Note_on_c, 5, 81, 55
7, 183744, Note_on_c, 5, 86, 55
7, 183768, Note_on_c, 5, 86, 0
7, 183768, Note_on_c, 5, 81, 0
7, 183792, Note_on_c, 5, 81, 50
7, 183792, Note_on_c, 5, 88, 50
7, 183816, Note_on_c, 5, 88, 0
7, 183816, Note_on_c, 5, 81, 0
7, 183840, Note_on_c, 5, 81, 50
7, 183840, Note_on_c, 5, 89, 50
7, 183864, Note_on_c, 5, 89, 0
7, 183864, Note_on_c, 5, 81, 0
7, 183888, Note_on_c, 5, 81, 55
7, 183888, Note_on_c, 5, 89, 55
7, 183912, Note_on_c, 5, 89, 0
7, 183912, Note_on_c, 5, 81, 0
7, 183936, Note_on_c, 5, 81, 50
7, 183936, Note_on_c, 5, 88, 50
7, 183960, Note_on_c, 5, 88, 0
7, 183960, Note_on_c, 5, 81, 0
7, 183984, Note_on_c, 5, 81, 50
7, 183984, Note_on_c, 5, 86, 50
7, 184008, Note_on_c, 5, 86, 0
7, 184008, Note_on_c, 5, 81, 0
7, 184032, Note_on_c, 5, 81, 55
7, 184032, Note_on_c, 5, 86, 55
7, 184056, Note_on_c, 5, 86, 0
7, 184056, Note_on_c, 5, 81, 0
7, 184080, Note_on_c, 5, 81, 50
7, 184080, Note_on_c, 5, 88, 50
7, 184104, Note_on_c, 5, 88, 0
7, 184104, Note_on_c, 5, 81, 0
7, 184128, Note_on_c, 5, 81, 50
7, 184128, Note_on_c, 5, 86, 50
7, 184152, Note_on_c, 5, 86, 0
7, 184152, Note_on_c, 5, 81, 0
7, 185088, Note_on_c, 5, 81, 50
7, 185112, Note_on_c, 5, 81, 0
7, 185136, Note_on_c, 5, 81, 50
7, 185160, Note_on_c, 5, 81, 0
7, 185184, Note_on_c, 5, 81, 55
7, 185208, Note_on_c, 5, 81, 0
7, 185232, Note_on_c, 5, 81, 50
7, 185256, Note_on_c, 5, 81, 0
7, 185280, Note_on_c, 5, 81, 50
7, 185304, Note_on_c, 5, 81, 0
7, 185328, Note_on_c, 5, 81, 55
7, 185352, Note_on_c, 5, 81, 0
7, 185376, Note_on_c, 5, 81, 50
7, 185400, Note_on_c, 5, 81, 0
7, 185424, Note_on_c, 5, 81, 50
7, 185448, Note_on_c, 5, 81, 0
7, 185472, Note_on_c, 5, 93, 55
7, 185507, Note_on_c, 5, 93, 0
7, 185544, Note_on_c, 5, 81, 50
7, 185556, Note_on_c, 5, 81, 0
7, 185568, Note_on_c, 5, 81, 50
7, 185592, Note_on_c, 5, 81, 0
7, 185616, Note_on_c, 5, 86, 55
7, 185640, Note_on_c, 5, 86, 0
7, 185664, Note_on_c, 5, 88, 50
7, 185688, Note_on_c, 5, 88, 0
7, 185712, Note_on_c, 5, 89, 50
7, 185736, Note_on_c, 5, 89, 0
7, 185760, Note_on_c, 5, 88, 55
7, 185784, Note_on_c, 5, 88, 0
7, 185808, Note_on_c, 5, 89, 50
7, 185832, Note_on_c, 5, 89, 0
7, 185856, Note_on_c, 5, 91, 50
7, 185880, Note_on_c, 5, 91, 0
7, 185904, Note_on_c, 5, 89, 55
7, 185928, Note_on_c, 5, 89, 0
7, 185952, Note_on_c, 5, 93, 50
7, 185976, Note_on_c, 5, 93, 0
7, 186000, Note_on_c, 5, 93, 50
7, 186024, Note_on_c, 5, 93, 0
7, 186048, Note_on_c, 5, 93, 55
7, 186072, Note_on_c, 5, 93, 0
7, 186096, Note_on_c, 5, 91, 50
7, 186120, Note_on_c, 5, 91, 0
7, 186144, Note_on_c, 5, 89, 50
7, 186168, Note_on_c, 5, 89, 0
7, 186192, Note_on_c, 5, 91, 55
7, 186216, Note_on_c, 5, 91, 0
7, 186240, Note_on_c, 5, 89, 50
7, 186264, Note_on_c, 5, 89, 0
7, 186288, Note_on_c, 5, 88, 50
7, 186312, Note_on_c, 5, 88, 0
7, 186336, Note_on_c, 5, 86, 55
7, 186360, Note_on_c, 5, 86, 0
7, 186384, Note_on_c, 5, 85, 50
7, 186408, Note_on_c, 5, 85, 0
7, 186432, Note_on_c, 5, 86, 50
7, 186456, Note_on_c, 5, 86, 0
7, 186480, Note_on_c, 5, 86, 55
7, 186504, Note_on_c, 5, 86, 0
7, 186528, Note_on_c, 5, 91, 50
7, 186552, Note_on_c, 5, 91, 0
7, 186576, Note_on_c, 5, 91, 50
7, 186600, Note_on_c, 5, 91, 0
7, 186624, Note_on_c, 5, 91, 55
7, 186648, Note_on_c, 5, 91, 0
7, 186672, Note_on_c, 5, 91, 50
7, 186696, Note_on_c, 5, 91, 0
7, 186720, Note_on_c, 5, 91, 50
7, 186744, Note_on_c, 5, 91, 0
7, 186768, Note_on_c, 5, 91, 55
7, 186792, Note_on_c, 5, 91, 0
7, 186816, Note_on_c, 5, 91, 50
7, 186840, Note_on_c, 5, 91, 0
7, 186864, Note_on_c, 5, 91, 50
7, 186888, Note_on_c, 5, 91, 0
7, 186912, Note_on_c, 5, 91, 55
7, 186936, Note_on_c, 5, 91, 0
7, 186960, Note_on_c, 5, 91, 50
7, 186984, Note_on_c, 5, 91, 0
7, 187008, Note_on_c, 5, 91, 50
7, 187032, Note_on_c, 5, 91, 0
7, 187056, Note_on_c, 5, 86, 55
7, 187080, Note_on_c, 5, 86, 0
7, 187104, Note_on_c, 5, 82, 50
7, 187128, Note_on_c, 5, 82, 0
7, 187152, Note_on_c, 5, 82, 50
7, 187176, Note_on_c, 5, 82, 0
7, 187200, Note_on_c, 5, 82, 55
7, 187224, Note_on_c, 5, 82, 0
7, 187248, Note_on_c, 5, 86, 50
7, 187272, Note_on_c, 5, 86, 0
7, 187296, Note_on_c, 5, 87, 50
7, 187320, Note_on_c, 5, 87, 0
7, 187344, Note_on_c, 5, 86, 55
7, 187368, Note_on_c, 5, 86, 0
7, 187392, Note_on_c, 5, 87, 50
7, 187416, Note_on_c, 5, 87, 0
7, 187440, Note_on_c, 5, 89, 50
7, 187464, Note_on_c, 5, 89, 0
7, 187488, Note_on_c, 5, 87, 55
7, 187512, Note_on_c, 5, 87, 0
7, 187536, Note_on_c, 5, 86, 50
7, 187560, Note_on_c, 5, 86, 0
7, 187584, Note_on_c, 5, 87, 50
7, 187608, Note_on_c, 5, 87, 0
7, 187632, Note_on_c, 5, 89, 55
7, 187656, Note_on_c, 5, 89, 0
7, 187680, Note_on_c, 5, 91, 50
7, 187704, Note_on_c, 5, 91, 0
7, 187728, Note_on_c, 5, 92, 50
7, 187752, Note_on_c, 5, 92, 0
7, 187776, Note_on_c, 5, 91, 55
7, 187800, Note_on_c, 5, 91, 0
7, 187824, Note_on_c, 5, 89, 50
7, 187848, Note_on_c, 5, 89, 0
7, 187872, Note_on_c, 5, 87, 50
7, 187896, Note_on_c, 5, 87, 0
7, 187920, Note_on_c, 5, 86, 50
7, 187920, Note_on_c, 5, 92, 50
7, 187944, Note_on_c, 5, 92, 0
7, 187944, Note_on_c, 5, 86, 0
7, 188496, Note_on_c, 5, 87, 50
7, 188496, Note_on_c, 5, 91, 50
7, 188520, Note_on_c, 5, 91, 0
7, 188520, Note_on_c, 5, 87, 0
7, 188640, Note_on_c, 5, 87, 50
7, 188640, Note_on_c, 5, 91, 50
7, 188664, Note_on_c, 5, 91, 0
7, 188664, Note_on_c, 5, 87, 0
7, 188784, Note_on_c, 5, 87, 50
7, 188784, Note_on_c, 5, 91, 50
7, 188808, Note_on_c, 5, 91, 0
7, 188808, Note_on_c, 5, 87, 0
7, 188928, Note_on_c, 5, 87, 50
7, 188928, Note_on_c, 5, 91, 50
7, 188952, Note_on_c, 5, 91, 0
7, 188952, Note_on_c, 5, 87, 0
7, 189072, Note_on_c, 5, 89, 50
7, 189072, Note_on_c, 5, 92, 50
7, 189096, Note_on_c, 5, 92, 0
7, 189096, Note_on_c, 5, 89, 0
7, 189648, Note_on_c, 5, 89, 77
7, 189648, Note_on_c, 5, 93, 77
7, 189672, Note_on_c, 5, 93, 0
7, 189672, Note_on_c, 5, 89, 0
7, 189936, Note_on_c, 5, 81, 90
7, 189936, Note_on_c, 5, 86, 90
7, 189960, Note_on_c, 5, 86, 0
7, 189960, Note_on_c, 5, 81, 0
7, 190224, Note_on_c, 5, 86, 120
7, 190224, Note_on_c, 5, 89, 120
7, 190254, Note_on_c, 5, 89, 0
7, 190254, Note_on_c, 5, 86, 0
7, 190512, Note_on_c, 5, 89, 120
7, 190512, Note_on_c, 5, 93, 120
7, 190542, Note_on_c, 5, 93, 0
7, 190542, Note_on_c, 5, 89, 0
7, 190800, Note_on_c, 5, 81, 125
7, 190800, Note_on_c, 5, 93, 125
7, 190835, Note_on_c, 5, 93, 0
7, 190835, Note_on_c, 5, 81, 0
7, 190872, Note_on_c, 5, 69, 115
7, 190872, Note_on_c, 5, 81, 115
7, 190884, Note_on_c, 5, 81, 0
7, 190884, Note_on_c, 5, 69, 0
7, 190896, Note_on_c, 5, 69, 115
7, 190896, Note_on_c, 5, 81, 115
7, 190920, Note_on_c, 5, 81, 0
7, 190920, Note_on_c, 5, 69, 0
7, 190944, Note_on_c, 5, 81, 125
7, 190944, Note_on_c, 5, 93, 125
7, 190979, Note_on_c, 5, 93, 0
7, 190979, Note_on_c, 5, 81, 0
7, 191016, Note_on_c, 5, 69, 115
7, 191016, Note_on_c, 5, 81, 115
7, 191028, Note_on_c, 5, 81, 0
7, 191028, Note_on_c, 5, 69, 0
7, 191040, Note_on_c, 5, 69, 115
7, 191040, Note_on_c, 5, 81, 115
7, 191064, Note_on_c, 5, 81, 0
7, 191064, Note_on_c, 5, 69, 0
7, 191088, Note_on_c, 5, 81, 125
7, 191088, Note_on_c, 5, 93, 125
7, 191123, Note_on_c, 5, 93, 0
7, 191123, Note_on_c, 5, 81, 0
7, 191160, Note_on_c, 5, 69, 115
7, 191160, Note_on_c, 5, 81, 115
7, 191172, Note_on_c, 5, 81, 0
7, 191172, Note_on_c, 5, 69, 0
7, 191184, Note_on_c, 5, 69, 115
7, 191184, Note_on_c, 5, 81, 115
7, 191208, Note_on_c, 5, 81, 0
7, 191208, Note_on_c, 5, 69, 0
7, 191232, Note_on_c, 5, 81, 125
7, 191232, Note_on_c, 5, 93, 125
7, 191267, Note_on_c, 5, 93, 0
7, 191267, Note_on_c, 5, 81, 0
7, 191304, Note_on_c, 5, 69, 115
7, 191304, Note_on_c, 5, 81, 115
7, 191316, Note_on_c, 5, 81, 0
7, 191316, Note_on_c, 5, 69, 0
7, 191328, Note_on_c, 5, 69, 115
7, 191328, Note_on_c, 5, 81, 115
7, 191352, Note_on_c, 5, 81, 0
7, 191352, Note_on_c, 5, 69, 0
7, 191376, Note_on_c, 5, 81, 125
7, 191376, Note_on_c, 5, 93, 125
7, 191411, Note_on_c, 5, 93, 0
7, 191411, Note_on_c, 5, 81, 0
7, 191448, Note_on_c, 5, 69, 115
7, 191448, Note_on_c, 5, 81, 115
7, 191460, Note_on_c, 5, 81, 0
7, 191460, Note_on_c, 5, 69, 0
7, 191472, Note_on_c, 5, 69, 115
7, 191472, Note_on_c, 5, 81, 115
7, 191496, Note_on_c, 5, 81, 0
7, 191496, Note_on_c, 5, 69, 0
7, 191520, Note_on_c, 5, 74, 120
7, 191520, Note_on_c, 5, 86, 120
7, 191544, Note_on_c, 5, 86, 0
7, 191544, Note_on_c, 5, 74, 0
7, 191568, Note_on_c, 5, 76, 115
7, 191568, Note_on_c, 5, 88, 115
7, 191592, Note_on_c, 5, 88, 0
7, 191592, Note_on_c, 5, 76, 0
7, 191616, Note_on_c, 5, 77, 115
7, 191616, Note_on_c, 5, 89, 115
7, 191640, Note_on_c, 5, 89, 0
7, 191640, Note_on_c, 5, 77, 0
7, 191664, Note_on_c, 5, 76, 120
7, 191664, Note_on_c, 5, 88, 120
7, 191688, Note_on_c, 5, 88, 0
7, 191688, Note_on_c, 5, 76, 0
7, 191712, Note_on_c, 5, 77, 115
7, 191712, Note_on_c, 5, 89, 115
7, 191736, Note_on_c, 5, 89, 0
7, 191736, Note_on_c, 5, 77, 0
7, 191760, Note_on_c, 5, 79, 115
7, 191760, Note_on_c, 5, 91, 115
7, 191784, Note_on_c, 5, 91, 0
7, 191784, Note_on_c, 5, 79, 0
7, 191808, Note_on_c, 5, 77, 120
7, 191808, Note_on_c, 5, 89, 120
7, 191832, Note_on_c, 5, 89, 0
7, 191832, Note_on_c, 5, 77, 0
7, 191856, Note_on_c, 5, 76, 115
7, 191856, Note_on_c, 5, 88, 115
7, 191880, Note_on_c, 5, 88, 0
7, 191880, Note_on_c, 5, 76, 0
7, 191904, Note_on_c, 5, 74, 115
7, 191904, Note_on_c, 5, 86, 115
7, 191928, Note_on_c, 5, 86, 0
7, 191928, Note_on_c, 5, 74, 0
7, 191952, Note_on_c, 5, 82, 120
7, 191976, Note_on_c, 5, 82, 0
7, 192000, Note_on_c, 5, 81, 115
7, 192000, Note_on_c, 5, 93, 115
7, 192024, Note_on_c, 5, 93, 0
7, 192024, Note_on_c, 5, 81, 0
7, 192048, Note_on_c, 5, 79, 115
7, 192048, Note_on_c, 5, 91, 115
7, 192072, Note_on_c, 5, 91, 0
7, 192072, Note_on_c, 5, 79, 0
7, 192096, Note_on_c, 5, 77, 120
7, 192096, Note_on_c, 5, 89, 120
7, 192120, Note_on_c, 5, 89, 0
7, 192120, Note_on_c, 5, 77, 0
7, 192144, Note_on_c, 5, 76, 115
7, 192144, Note_on_c, 5, 88, 115
7, 192168, Note_on_c, 5, 88, 0
7, 192168, Note_on_c, 5, 76, 0
7, 192192, Note_on_c, 5, 74, 115
7, 192192, Note_on_c, 5, 86, 115
7, 192216, Note_on_c, 5, 86, 0
7, 192216, Note_on_c, 5, 74, 0
7, 192240, Note_on_c, 5, 73, 120
7, 192240, Note_on_c, 5, 85, 120
7, 192264, Note_on_c, 5, 85, 0
7, 192264, Note_on_c, 5, 73, 0
7, 192288, Note_on_c, 5, 74, 115
7, 192288, Note_on_c, 5, 86, 115
7, 192312, Note_on_c, 5, 86, 0
7, 192312, Note_on_c, 5, 74, 0
7, 192336, Note_on_c, 5, 76, 115
7, 192336, Note_on_c, 5, 88, 115
7, 192360, Note_on_c, 5, 88, 0
7, 192360, Note_on_c, 5, 76, 0
7, 192384, Note_on_c, 5, 74, 120
7, 192384, Note_on_c, 5, 86, 120
7, 192408, Note_on_c, 5, 86, 0
7, 192408, Note_on_c, 5, 74, 0
7, 192432, Note_on_c, 5, 73, 115
7, 192432, Note_on_c, 5, 85, 115
7, 192456, Note_on_c, 5, 85, 0
7, 192456, Note_on_c, 5, 73, 0
7, 192480, Note_on_c, 5, 74, 115
7, 192480, Note_on_c, 5, 86, 115
7, 192504, Note_on_c, 5, 86, 0
7, 192504, Note_on_c, 5, 74, 0
7, 192528, Note_on_c, 5, 82, 120
7, 192552, Note_on_c, 5, 82, 0
7, 192576, Note_on_c, 5, 81, 115
7, 192576, Note_on_c, 5, 93, 115
7, 192600, Note_on_c, 5, 93, 0
7, 192600, Note_on_c, 5, 81, 0
7, 192624, Note_on_c, 5, 79, 115
7, 192624, Note_on_c, 5, 91, 115
7, 192648, Note_on_c, 5, 91, 0
7, 192648, Note_on_c, 5, 79, 0
7, 192672, Note_on_c, 5, 77, 120
7, 192672, Note_on_c, 5, 89, 120
7, 192696, Note_on_c, 5, 89, 0
7, 192696, Note_on_c, 5, 77, 0
7, 192720, Note_on_c, 5, 76, 115
7, 192720, Note_on_c, 5, 88, 115
7, 192744, Note_on_c, 5, 88, 0
7, 192744, Note_on_c, 5, 76, 0
7, 192768, Note_on_c, 5, 74, 115
7, 192768, Note_on_c, 5, 86, 115
7, 192792, Note_on_c, 5, 86, 0
7, 192792, Note_on_c, 5, 74, 0
7, 192816, Note_on_c, 5, 73, 120
7, 192816, Note_on_c, 5, 85, 120
7, 192840, Note_on_c, 5, 85, 0
7, 192840, Note_on_c, 5, 73, 0
7, 192864, Note_on_c, 5, 74, 115
7, 192864, Note_on_c, 5, 86, 115
7, 192888, Note_on_c, 5, 86, 0
7, 192888, Note_on_c, 5, 74, 0
7, 192912, Note_on_c, 5, 76, 115
7, 192912, Note_on_c, 5, 88, 115
7, 192936, Note_on_c, 5, 88, 0
7, 192936, Note_on_c, 5, 76, 0
7, 192960, Note_on_c, 5, 74, 120
7, 192960, Note_on_c, 5, 86, 120
7, 192984, Note_on_c, 5, 86, 0
7, 192984, Note_on_c, 5, 74, 0
7, 193008, Note_on_c, 5, 73, 115
7, 193008, Note_on_c, 5, 85, 115
7, 193032, Note_on_c, 5, 85, 0
7, 193032, Note_on_c, 5, 73, 0
7, 193056, Note_on_c, 5, 74, 115
7, 193056, Note_on_c, 5, 86, 115
7, 193080, Note_on_c, 5, 86, 0
7, 193080, Note_on_c, 5, 74, 0
7, 193104, Note_on_c, 5, 84, 120
7, 193128, Note_on_c, 5, 84, 0
7, 193152, Note_on_c, 5, 86, 115
7, 193176, Note_on_c, 5, 86, 0
7, 193200, Note_on_c, 5, 87, 115
7, 193224, Note_on_c, 5, 87, 0
7, 193248, Note_on_c, 5, 79, 120
7, 193248, Note_on_c, 5, 91, 120
7, 193272, Note_on_c, 5, 91, 0
7, 193272, Note_on_c, 5, 79, 0
7, 193296, Note_on_c, 5, 81, 115
7, 193296, Note_on_c, 5, 93, 115
7, 193320, Note_on_c, 5, 93, 0
7, 193320, Note_on_c, 5, 81, 0
7, 193344, Note_on_c, 5, 82, 115
7, 193368, Note_on_c, 5, 82, 0
7, 193392, Note_on_c, 5, 81, 120
7, 193416, Note_on_c, 5, 81, 0
7, 193440, Note_on_c, 5, 82, 115
7, 193464, Note_on_c, 5, 82, 0
7, 193488, Note_on_c, 5, 84, 115
7, 193512, Note_on_c, 5, 84, 0
7, 193536, Note_on_c, 5, 82, 120
7, 193560, Note_on_c, 5, 82, 0
7, 193584, Note_on_c, 5, 81, 115
7, 193608, Note_on_c, 5, 81, 0
7, 193632, Note_on_c, 5, 79, 115
7, 193656, Note_on_c, 5, 79, 0
7, 193680, Note_on_c, 5, 87, 105
7, 193704, Note_on_c, 5, 87, 0
7, 193728, Note_on_c, 5, 86, 100
7, 193752, Note_on_c, 5, 86, 0
7, 193776, Note_on_c, 5, 84, 100
7, 193800, Note_on_c, 5, 84, 0
7, 193824, Note_on_c, 5, 82, 105
7, 193848, Note_on_c, 5, 82, 0
7, 193872, Note_on_c, 5, 81, 100
7, 193896, Note_on_c, 5, 81, 0
7, 193920, Note_on_c, 5, 79, 100
7, 193944, Note_on_c, 5, 79, 0
7, 193968, Note_on_c, 5, 89, 105
7, 193992, Note_on_c, 5, 89, 0
7, 194016, Note_on_c, 5, 87, 100
7, 194040, Note_on_c, 5, 87, 0
7, 194064, Note_on_c, 5, 86, 100
7, 194088, Note_on_c, 5, 86, 0
7, 194112, Note_on_c, 5, 84, 105
7, 194136, Note_on_c, 5, 84, 0
7, 194160, Note_on_c, 5, 82, 100
7, 194184, Note_on_c, 5, 82, 0
7, 194208, Note_on_c, 5, 81, 100
7, 194232, Note_on_c, 5, 81, 0
7, 194256, Note_on_c, 5, 69, 105
7, 194280, Note_on_c, 5, 69, 0
7, 194304, Note_on_c, 5, 70, 100
7, 194328, Note_on_c, 5, 70, 0
7, 194352, Note_on_c, 5, 72, 100
7, 194376, Note_on_c, 5, 72, 0
7, 194400, Note_on_c, 5, 74, 105
7, 194424, Note_on_c, 5, 74, 0
7, 194448, Note_on_c, 5, 75, 100
7, 194472, Note_on_c, 5, 75, 0
7, 194496, Note_on_c, 5, 77, 100
7, 194520, Note_on_c, 5, 77, 0
7, 194544, Note_on_c, 5, 79, 105
7, 194568, Note_on_c, 5, 79, 0
7, 194592, Note_on_c, 5, 81, 100
7, 194616, Note_on_c, 5, 81, 0
7, 194640, Note_on_c, 5, 82, 100
7, 194664, Note_on_c, 5, 82, 0
7, 194688, Note_on_c, 5, 84, 105
7, 194712, Note_on_c, 5, 84, 0
7, 194736, Note_on_c, 5, 86, 100
7, 194760, Note_on_c, 5, 86, 0
7, 194784, Note_on_c, 5, 87, 100
7, 194808, Note_on_c, 5, 87, 0
7, 194832, Control_c, 5, 1, 0
7, 194832, Note_on_c, 5, 77, 100
7, 194832, Note_on_c, 5, 89, 100
7, 194833, Control_c, 5, 1, 1
7, 194834, Control_c, 5, 1, 2
7, 194835, Control_c, 5, 1, 3
7, 194836, Control_c, 5, 1, 4
7, 194838, Control_c, 5, 1, 5
7, 194840, Control_c, 5, 1, 6
7, 194841, Control_c, 5, 1, 7
7, 194843, Control_c, 5, 1, 8
7, 194845, Control_c, 5, 1, 9
7, 194848, Control_c, 5, 1, 10
7, 194850, Control_c, 5, 1, 11
7, 194853, Control_c, 5, 1, 12
7, 194856, Note_on_c, 5, 77, 0
7, 194856, Control_c, 5, 11, 60
7, 194856, Control_c, 5, 1, 13
7, 194859, Control_c, 5, 1, 14
7, 194863, Control_c, 5, 1, 15
7, 194868, Control_c, 5, 1, 16
7, 194873, Control_c, 5, 1, 17
7, 194881, Control_c, 5, 1, 18
7, 194891, Control_c, 5, 1, 19
7, 194909, Control_c, 5, 1, 20
7, 195120, Control_c, 5, 11, 60
7, 195140, Control_c, 5, 11, 61
7, 195159, Control_c, 5, 11, 62
7, 195178, Control_c, 5, 11, 63
7, 195197, Control_c, 5, 11, 64
7, 195216, Control_c, 5, 11, 65
7, 195235, Control_c, 5, 11, 66
7, 195255, Control_c, 5, 11, 67
7, 195264, Note_on_c, 5, 87, 100
7, 195265, Note_on_c, 5, 89, 0
7, 195274, Control_c, 5, 11, 68
7, 195293, Control_c, 5, 11, 69
7, 195312, Control_c, 5, 11, 70
7, 195331, Control_c, 5, 11, 71
7, 195350, Control_c, 5, 11, 72
7, 195370, Control_c, 5, 11, 73
7, 195389, Control_c, 5, 11, 74
7, 195408, Control_c, 5, 11, 75
7, 195427, Control_c, 5, 11, 76
7, 195446, Control_c, 5, 11, 77
7, 195465, Control_c, 5, 11, 78
7, 195485, Control_c, 5, 11, 79
7, 195504, Control_c, 5, 11, 80
7, 195523, Control_c, 5, 11, 81
7, 195542, Control_c, 5, 11, 82
7, 195552, Note_on_c, 5, 86, 100
7, 195553, Note_on_c, 5, 87, 0
7, 195561, Control_c, 5, 11, 83
7, 195580, Control_c, 5, 11, 84
7, 195600, Control_c, 5, 11, 85
7, 195619, Control_c, 5, 11, 86
7, 195638, Control_c, 5, 11, 87
7, 195657, Control_c, 5, 11, 88
7, 195676, Control_c, 5, 11, 89
7, 195695, Control_c, 5, 11, 90
7, 195696, Control_c, 5, 11, 90
7, 195696, Note_on_c, 5, 85, 100
7, 195697, Note_on_c, 5, 86, 0
7, 195706, Control_c, 5, 11, 89
7, 195716, Control_c, 5, 11, 88
7, 195725, Control_c, 5, 11, 87
7, 195735, Control_c, 5, 11, 86
7, 195744, Control_c, 5, 11, 85
7, 195754, Control_c, 5, 11, 84
7, 195763, Control_c, 5, 11, 83
7, 195773, Control_c, 5, 11, 82
7, 195783, Control_c, 5, 11, 81
7, 195792, Control_c, 5, 11, 80
7, 195802, Control_c, 5, 11, 79
7, 195811, Control_c, 5, 11, 78
7, 195821, Control_c, 5, 11, 77
7, 195830, Control_c, 5, 11, 76
7, 195840, Note_on_c, 5, 84, 100
7, 195840, Control_c, 5, 11, 75
7, 195841, Note_on_c, 5, 85, 0
7, 195850, Control_c, 5, 11, 74
7, 195859, Control_c, 5, 11, 73
7, 195869, Control_c, 5, 11, 72
7, 195878, Control_c, 5, 11, 71
7, 195888, Control_c, 5, 11, 70
7, 195897, Control_c, 5, 11, 69
7, 195907, Control_c, 5, 11, 68
7, 195917, Control_c, 5, 11, 67
7, 195926, Control_c, 5, 11, 66
7, 195936, Control_c, 5, 11, 65
7, 195945, Control_c, 5, 11, 64
7, 195955, Control_c, 5, 11, 63
7, 195964, Control_c, 5, 11, 62
7, 195974, Control_c, 5, 11, 61
7, 195983, Control_c, 5, 11, 60
7, 195984, Note_on_c, 5, 82, 100
7, 195985, Note_on_c, 5, 84, 0
7, 196008, Note_on_c, 5, 82, 0
7, 196704, Control_c, 5, 1, 0
7, 196704, Control_c, 5, 11, 60
7, 196704, Note_on_c, 5, 88, 100
7, 196705, Control_c, 5, 1, 1
7, 196706, Control_c, 5, 1, 2
7, 196707, Control_c, 5, 1, 3
7, 196708, Control_c, 5, 1, 4
7, 196710, Control_c, 5, 1, 5
7, 196712, Control_c, 5, 11, 61
7, 196712, Control_c, 5, 1, 6
7, 196713, Control_c, 5, 1, 7
7, 196715, Control_c, 5, 1, 8
7, 196717, Control_c, 5, 1, 9
7, 196719, Control_c, 5, 11, 62
7, 196720, Control_c, 5, 1, 10
7, 196722, Control_c, 5, 1, 11
7, 196725, Control_c, 5, 1, 12
7, 196726, Control_c, 5, 11, 63
7, 196728, Control_c, 5, 1, 13
7, 196731, Control_c, 5, 1, 14
7, 196733, Control_c, 5, 11, 64
7, 196735, Control_c, 5, 1, 15
7, 196740, Control_c, 5, 11, 65
7, 196740, Control_c, 5, 1, 16
7, 196745, Control_c, 5, 1, 17
7, 196748, Control_c, 5, 11, 66
7, 196753, Control_c, 5, 1, 18
7, 196755, Control_c, 5, 11, 67
7, 196762, Control_c, 5, 11, 68
7, 196763, Control_c, 5, 1, 19
7, 196769, Control_c, 5, 11, 69
7, 196776, Control_c, 5, 11, 70
7, 196781, Control_c, 5, 1, 20
7, 196783, Control_c, 5, 11, 71
7, 196791, Control_c, 5, 11, 72
7, 196798, Control_c, 5, 11, 73
7, 196805, Control_c, 5, 11, 74
7, 196812, Control_c, 5, 11, 75
7, 196819, Control_c, 5, 11, 76
7, 196826, Control_c, 5, 11, 77
7, 196834, Control_c, 5, 11, 78
7, 196841, Control_c, 5, 11, 79
7, 196848, Control_c, 5, 11, 80
7, 196855, Control_c, 5, 11, 81
7, 196862, Control_c, 5, 11, 82
7, 196870, Control_c, 5, 11, 83
7, 196877, Control_c, 5, 11, 84
7, 196884, Control_c, 5, 11, 85
7, 196891, Control_c, 5, 11, 86
7, 196898, Control_c, 5, 11, 87
7, 196905, Control_c, 5, 11, 88
7, 196913, Control_c, 5, 11, 89
7, 196920, Control_c, 5, 11, 90
7, 196927, Control_c, 5, 11, 91
7, 196934, Control_c, 5, 11, 92
7, 196941, Control_c, 5, 11, 93
7, 196948, Control_c, 5, 11, 94
7, 196956, Control_c, 5, 11, 95
7, 196963, Control_c, 5, 11, 96
7, 196970, Control_c, 5, 11, 97
7, 196977, Control_c, 5, 11, 98
7, 196984, Control_c, 5, 11, 99
7, 196991, Control_c, 5, 11, 100
7, 196992, Control_c, 5, 11, 100
7, 196992, Note_on_c, 5, 86, 100
7, 196993, Note_on_c, 5, 88, 0
7, 197003, Control_c, 5, 11, 99
7, 197014, Control_c, 5, 11, 98
7, 197025, Control_c, 5, 11, 97
7, 197036, Control_c, 5, 11, 96
7, 197046, Control_c, 5, 11, 95
7, 197057, Control_c, 5, 11, 94
7, 197068, Control_c, 5, 11, 93
7, 197079, Control_c, 5, 11, 92
7, 197089, Control_c, 5, 11, 91
7, 197100, Control_c, 5, 11, 90
7, 197111, Control_c, 5, 11, 89
7, 197122, Control_c, 5, 11, 88
7, 197133, Control_c, 5, 11, 87
7, 197143, Control_c, 5, 11, 86
7, 197154, Control_c, 5, 11, 85
7, 197165, Control_c, 5, 11, 84
7, 197176, Control_c, 5, 11, 83
7, 197186, Control_c, 5, 11, 82
7, 197197, Control_c, 5, 11, 81
7, 197208, Control_c, 5, 11, 80
7, 197219, Control_c, 5, 11, 79
7, 197230, Control_c, 5, 11, 78
7, 197240, Control_c, 5, 11, 77
7, 197251, Control_c, 5, 11, 76
7, 197262, Control_c, 5, 11, 75
7, 197273, Control_c, 5, 11, 74
7, 197280, Note_on_c, 5, 85, 100
7, 197281, Note_on_c, 5, 86, 0
7, 197283, Control_c, 5, 11, 73
7, 197294, Control_c, 5, 11, 72
7, 197305, Control_c, 5, 11, 71
7, 197316, Control_c, 5, 11, 70
7, 197327, Control_c, 5, 11, 69
7, 197337, Control_c, 5, 11, 68
7, 197348, Control_c, 5, 11, 67
7, 197359, Control_c, 5, 11, 66
7, 197370, Control_c, 5, 11, 65
7, 197380, Control_c, 5, 11, 64
7, 197391, Control_c, 5, 11, 63
7, 197402, Control_c, 5, 11, 62
7, 197413, Control_c, 5, 11, 61
7, 197423, Control_c, 5, 11, 60
7, 197424, Note_on_c, 5, 85, 0
7, 198720, Control_c, 5, 11, 60
7, 198720, Control_c, 5, 1, 0
7, 198720, Note_on_c, 5, 90, 100
7, 198721, Control_c, 5, 1, 1
7, 198722, Control_c, 5, 1, 2
7, 198723, Control_c, 5, 1, 3
7, 198725, Control_c, 5, 1, 4
7, 198726, Control_c, 5, 1, 5
7, 198728, Control_c, 5, 1, 6
7, 198730, Control_c, 5, 1, 7
7, 198732, Control_c, 5, 1, 8
7, 198734, Control_c, 5, 1, 9
7, 198736, Control_c, 5, 1, 10
7, 198737, Control_c, 5, 11, 61
7, 198739, Control_c, 5, 1, 11
7, 198742, Control_c, 5, 1, 12
7, 198745, Control_c, 5, 1, 13
7, 198749, Control_c, 5, 1, 14
7, 198753, Control_c, 5, 1, 15
7, 198754, Control_c, 5, 11, 62
7, 198758, Control_c, 5, 1, 16
7, 198764, Control_c, 5, 1, 17
7, 198771, Control_c, 5, 11, 63
7, 198771, Control_c, 5, 1, 18
7, 198782, Control_c, 5, 1, 19
7, 198788, Control_c, 5, 11, 64
7, 198801, Control_c, 5, 1, 20
7, 198804, Control_c, 5, 11, 65
7, 198821, Control_c, 5, 11, 66
7, 198838, Control_c, 5, 11, 67
7, 198855, Control_c, 5, 11, 68
7, 198864, Note_on_c, 5, 87, 100
7, 198872, Control_c, 5, 11, 69
7, 198888, Control_c, 5, 11, 70
7, 198905, Control_c, 5, 11, 71
7, 198922, Control_c, 5, 11, 72
7, 198939, Control_c, 5, 11, 73
7, 198955, Control_c, 5, 11, 74
7, 198972, Control_c, 5, 11, 75
7, 198989, Control_c, 5, 11, 76
7, 199006, Control_c, 5, 11, 77
7, 199008, Note_on_c, 5, 88, 100
7, 199008, Note_on_c, 5, 91, 100
7, 199009, Note_on_c, 5, 90, 0
7, 199009, Note_on_c, 5, 87, 0
7, 199023, Control_c, 5, 11, 78
7, 199039, Control_c, 5, 11, 79
7, 199056, Control_c, 5, 11, 80
7, 199073, Control_c, 5, 11, 81
7, 199090, Control_c, 5, 11, 82
7, 199107, Control_c, 5, 11, 83
7, 199123, Control_c, 5, 11, 84
7, 199140, Control_c, 5, 11, 85
7, 199152, Note_on_c, 5, 85, 100
7, 199153, Note_on_c, 5, 91, 0
7, 199157, Control_c, 5, 11, 86
7, 199174, Control_c, 5, 11, 87
7, 199190, Control_c, 5, 11, 88
7, 199207, Control_c, 5, 11, 89
7, 199224, Control_c, 5, 11, 90
7, 199241, Control_c, 5, 11, 91
7, 199258, Control_c, 5, 11, 92
7, 199274, Control_c, 5, 11, 93
7, 199291, Control_c, 5, 11, 94
7, 199296, Note_on_c, 5, 86, 100
7, 199296, Note_on_c, 5, 90, 100
7, 199297, Note_on_c, 5, 88, 0
7, 199297, Note_on_c, 5, 85, 0
7, 199308, Control_c, 5, 11, 95
7, 199325, Control_c, 5, 11, 96
7, 199341, Control_c, 5, 11, 97
7, 199358, Control_c, 5, 11, 98
7, 199375, Control_c, 5, 11, 99
7, 199392, Control_c, 5, 11, 100
7, 199409, Control_c, 5, 11, 101
7, 199425, Control_c, 5, 11, 102
7, 199440, Note_on_c, 5, 93, 100
7, 199441, Note_on_c, 5, 90, 0
7, 199442, Control_c, 5, 11, 103
7, 199459, Control_c, 5, 11, 104
7, 199476, Control_c, 5, 11, 105
7, 199493, Control_c, 5, 11, 106
7, 199509, Control_c, 5, 11, 107
7, 199526, Control_c, 5, 11, 108
7, 199543, Control_c, 5, 11, 109
7, 199560, Control_c, 5, 11, 110
7, 199576, Control_c, 5, 11, 111
7, 199584, Note_on_c, 5, 85, 100
7, 199585, Note_on_c, 5, 86, 0
7, 199593, Control_c, 5, 11, 112
7, 199610, Control_c, 5, 11, 113
7, 199627, Control_c, 5, 11, 114
7, 199644, Control_c, 5, 11, 115
7, 199660, Control_c, 5, 11, 116
7, 199677, Control_c, 5, 11, 117
7, 199680, Note_on_c, 5, 93, 0
7, 199680, Note_on_c, 5, 85, 0
7, 199680, Note_on_c, 5, 85, 100
7, 199694, Control_c, 5, 11, 118
7, 199711, Control_c, 5, 11, 119
7, 199727, Control_c, 5, 11, 120
7, 199728, Note_on_c, 5, 85, 0
7, 199728, Control_c, 5, 1, 0
7, 199728, Note_on_c, 5, 86, 113
7, 199824, Note_on_c, 5, 86, 0
7, 199824, Note_on_c, 5, 88, 111
7, 199848, Note_on_c, 5, 88, 0
7, 199848, Note_on_c, 5, 90, 112
7, 199872, Note_on_c, 5, 90, 0
7, 199872, Note_on_c, 5, 91, 113
7, 199896, Note_on_c, 5, 91, 0
7, 199968, Note_on_c, 5, 90, 110
7, 199992, Note_on_c, 5, 90, 0
7, 200016, Note_on_c, 5, 88, 113
7, 200040, Note_on_c, 5, 88, 0
7, 200112, Note_on_c, 5, 86, 110
7, 200136, Note_on_c, 5, 86, 0
7, 200160, Note_on_c, 5, 88, 113
7, 200184, Note_on_c, 5, 88, 0
7, 200256, Note_on_c, 5, 85, 110
7, 200280, Note_on_c, 5, 85, 0
7, 200304, Note_on_c, 5, 86, 113
7, 200304, Note_on_c, 5, 90, 113
7, 200400, Note_on_c, 5, 90, 0
7, 200400, Note_on_c, 5, 86, 0
7, 200400, Note_on_c, 5, 88, 110
7, 200400, Note_on_c, 5, 91, 110
7, 200424, Note_on_c, 5, 91, 0
7, 200424, Note_on_c, 5, 88, 0
7, 200424, Note_on_c, 5, 90, 111
7, 200424, Note_on_c, 5, 93, 111
7, 200448, Note_on_c, 5, 93, 0
7, 200448, Note_on_c, 5, 90, 0
7, 200448, Note_on_c, 5, 83, 113
7, 200472, Note_on_c, 5, 83, 0
7, 200544, Note_on_c, 5, 90, 110
7, 200544, Note_on_c, 5, 93, 110
7, 200568, Note_on_c, 5, 93, 0
7, 200568, Note_on_c, 5, 90, 0
7, 200592, Note_on_c, 5, 88, 113
7, 200592, Note_on_c, 5, 91, 113
7, 200616, Note_on_c, 5, 91, 0
7, 200616, Note_on_c, 5, 88, 0
7, 200688, Note_on_c, 5, 86, 110
7, 200688, Note_on_c, 5, 90, 110
7, 200712, Note_on_c, 5, 90, 0
7, 200712, Note_on_c, 5, 86, 0
7, 200736, Note_on_c, 5, 88, 113
7, 200736, Note_on_c, 5, 91, 113
7, 200760, Note_on_c, 5, 91, 0
7, 200760, Note_on_c, 5, 88, 0
7, 200832, Note_on_c, 5, 85, 110
7, 200832, Note_on_c, 5, 88, 110
7, 200856, Note_on_c, 5, 88, 0
7, 200856, Note_on_c, 5, 85, 0
7, 200880, Note_on_c, 5, 86, 113
7, 200904, Note_on_c, 5, 86, 0
7, 200928, Note_on_c, 5, 86, 110
7, 200976, Note_on_c, 5, 86, 0
7, 200976, Note_on_c, 5, 88, 111
7, 201000, Note_on_c, 5, 88, 0
7, 201000, Note_on_c, 5, 89, 112
7, 201024, Note_on_c, 5, 89, 0
7, 201024, Note_on_c, 5, 91, 113
7, 201048, Note_on_c, 5, 91, 0
7, 201072, Note_on_c, 5, 91, 111
7, 201096, Note_on_c, 5, 91, 0
7, 201120, Note_on_c, 5, 89, 111
7, 201144, Note_on_c, 5, 89, 0
7, 201168, Note_on_c, 5, 88, 113
7, 201192, Note_on_c, 5, 88, 0
7, 201216, Note_on_c, 5, 88, 111
7, 201240, Note_on_c, 5, 88, 0
7, 201264, Note_on_c, 5, 86, 111
7, 201288, Note_on_c, 5, 86, 0
7, 201312, Note_on_c, 5, 88, 113
7, 201336, Note_on_c, 5, 88, 0
7, 201360, Note_on_c, 5, 88, 111
7, 201384, Note_on_c, 5, 88, 0
7, 201408, Note_on_c, 5, 85, 111
7, 201432, Note_on_c, 5, 85, 0
7, 201456, Note_on_c, 5, 86, 113
7, 201456, Note_on_c, 5, 89, 113
7, 201480, Note_on_c, 5, 89, 0
7, 201480, Note_on_c, 5, 86, 0
7, 201504, Note_on_c, 5, 86, 110
7, 201504, Note_on_c, 5, 89, 110
7, 201552, Note_on_c, 5, 89, 0
7, 201552, Note_on_c, 5, 86, 0
7, 201552, Note_on_c, 5, 88, 111
7, 201552, Note_on_c, 5, 91, 111
7, 201576, Note_on_c, 5, 91, 0
7, 201576, Note_on_c, 5, 88, 0
7, 201576, Note_on_c, 5, 89, 112
7, 201576, Note_on_c, 5, 93, 112
7, 201600, Note_on_c, 5, 93, 0
7, 201600, Note_on_c, 5, 89, 0
7, 201600, Note_on_c, 5, 82, 113
7, 201624, Note_on_c, 5, 82, 0
7, 201648, Note_on_c, 5, 82, 110
7, 201672, Note_on_c, 5, 82, 0
7, 201696, Note_on_c, 5, 89, 110
7, 201696, Note_on_c, 5, 93, 110
7, 201720, Note_on_c, 5, 93, 0
7, 201720, Note_on_c, 5, 89, 0
7, 201744, Note_on_c, 5, 88, 113
7, 201744, Note_on_c, 5, 91, 113
7, 201768, Note_on_c, 5, 91, 0
7, 201768, Note_on_c, 5, 88, 0
7, 201792, Note_on_c, 5, 88, 110
7, 201792, Note_on_c, 5, 91, 110
7, 201816, Note_on_c, 5, 91, 0
7, 201816, Note_on_c, 5, 88, 0
7, 201840, Note_on_c, 5, 86, 110
7, 201840, Note_on_c, 5, 89, 110
7, 201864, Note_on_c, 5, 89, 0
7, 201864, Note_on_c, 5, 86, 0
7, 201888, Note_on_c, 5, 88, 113
7, 201888, Note_on_c, 5, 91, 113
7, 201912, Note_on_c, 5, 91, 0
7, 201912, Note_on_c, 5, 88, 0
7, 201936, Note_on_c, 5, 88, 110
7, 201936, Note_on_c, 5, 91, 110
7, 201960, Note_on_c, 5, 91, 0
7, 201960, Note_on_c, 5, 88, 0
7, 201984, Note_on_c, 5, 85, 110
7, 201984, Note_on_c, 5, 88, 110
7, 202008, Note_on_c, 5, 88, 0
7, 202008, Note_on_c, 5, 85, 0
7, 202032, Note_on_c, 5, 89, 116
7, 202067, Note_on_c, 5, 89, 0
7, 202104, Note_on_c, 5, 77, 113
7, 202116, Note_on_c, 5, 77, 0
7, 202128, Note_on_c, 5, 77, 113
7, 202152, Note_on_c, 5, 77, 0
7, 202176, Note_on_c, 5, 77, 116
7, 202176, Note_on_c, 5, 89, 116
7, 202200, Note_on_c, 5, 89, 0
7, 202200, Note_on_c, 5, 77, 0
7, 202224, Note_on_c, 5, 79, 113
7, 202224, Note_on_c, 5, 91, 113
7, 202248, Note_on_c, 5, 91, 0
7, 202248, Note_on_c, 5, 79, 0
7, 202272, Note_on_c, 5, 81, 113
7, 202272, Note_on_c, 5, 93, 113
7, 202296, Note_on_c, 5, 93, 0
7, 202296, Note_on_c, 5, 81, 0
7, 202320, Note_on_c, 5, 82, 116
7, 202344, Note_on_c, 5, 82, 0
7, 202608, Note_on_c, 5, 88, 116
7, 202643, Note_on_c, 5, 88, 0
7, 202680, Note_on_c, 5, 76, 113
7, 202692, Note_on_c, 5, 76, 0
7, 202704, Note_on_c, 5, 76, 113
7, 202728, Note_on_c, 5, 76, 0
7, 202752, Note_on_c, 5, 76, 116
7, 202752, Note_on_c, 5, 88, 116
7, 202776, Note_on_c, 5, 88, 0
7, 202776, Note_on_c, 5, 76, 0
7, 202800, Note_on_c, 5, 77, 113
7, 202800, Note_on_c, 5, 89, 113
7, 202824, Note_on_c, 5, 89, 0
7, 202824, Note_on_c, 5, 77, 0
7, 202848, Note_on_c, 5, 79, 113
7, 202848, Note_on_c, 5, 91, 113
7, 202872, Note_on_c, 5, 91, 0
7, 202872, Note_on_c, 5, 79, 0
7, 202896, Note_on_c, 5, 81, 116
7, 202920, Note_on_c, 5, 81, 0
7, 203040, Note_on_c, 5, 81, 113
7, 203064, Note_on_c, 5, 81, 0
7, 203088, Note_on_c, 5, 86, 113
7, 203112, Note_on_c, 5, 86, 0
7, 203136, Note_on_c, 5, 76, 113
7, 203136, Note_on_c, 5, 88, 113
7, 203160, Note_on_c, 5, 88, 0
7, 203160, Note_on_c, 5, 76, 0
7, 203184, Note_on_c, 5, 78, 60
7, 203184, Note_on_c, 5, 90, 60
7, 203208, Note_on_c, 5, 90, 0
7, 203208, Note_on_c, 5, 78, 0
7, 203472, Note_on_c, 5, 79, 60
7, 203472, Note_on_c, 5, 91, 60
7, 203496, Note_on_c, 5, 91, 0
7, 203496, Note_on_c, 5, 79, 0
7, 204048, Control_c, 5, 1, 0
7, 204048, Control_c, 5, 11, 60
7, 204048, Note_on_c, 5, 87, 100
7, 204048, Note_on_c, 5, 91, 100
7, 204049, Control_c, 5, 1, 1
7, 204050, Control_c, 5, 1, 2
7, 204051, Control_c, 5, 1, 3
7, 204052, Control_c, 5, 1, 4
7, 204054, Control_c, 5, 1, 5
7, 204056, Control_c, 5, 1, 6
7, 204057, Control_c, 5, 1, 7
7, 204058, Control_c, 5, 11, 61
7, 204059, Control_c, 5, 1, 8
7, 204061, Control_c, 5, 1, 9
7, 204064, Control_c, 5, 1, 10
7, 204066, Control_c, 5, 1, 11
7, 204068, Control_c, 5, 11, 62
7, 204069, Control_c, 5, 1, 12
7, 204072, Control_c, 5, 1, 13
7, 204075, Control_c, 5, 1, 14
7, 204077, Control_c, 5, 11, 63
7, 204079, Control_c, 5, 1, 15
7, 204084, Control_c, 5, 1, 16
7, 204087, Control_c, 5, 11, 64
7, 204089, Control_c, 5, 1, 17
7, 204096, Control_c, 5, 11, 65
7, 204097, Control_c, 5, 1, 18
7, 204106, Control_c, 5, 11, 66
7, 204107, Control_c, 5, 1, 19
7, 204116, Control_c, 5, 11, 67
7, 204125, Control_c, 5, 11, 68
7, 204125, Control_c, 5, 1, 20
7, 204135, Control_c, 5, 11, 69
7, 204144, Control_c, 5, 11, 70
7, 204154, Control_c, 5, 11, 71
7, 204163, Control_c, 5, 11, 72
7, 204173, Control_c, 5, 11, 73
7, 204183, Control_c, 5, 11, 74
7, 204191, Note_on_c, 5, 91, 0
7, 204191, Note_on_c, 5, 87, 0
7, 204192, Note_on_c, 5, 87, 100
7, 204192, Note_on_c, 5, 91, 100
7, 204192, Control_c, 5, 11, 75
7, 204202, Control_c, 5, 11, 76
7, 204211, Control_c, 5, 11, 77
7, 204221, Control_c, 5, 11, 78
7, 204231, Control_c, 5, 11, 79
7, 204240, Control_c, 5, 11, 80
7, 204250, Control_c, 5, 11, 81
7, 204259, Control_c, 5, 11, 82
7, 204269, Control_c, 5, 11, 83
7, 204278, Control_c, 5, 11, 84
7, 204288, Control_c, 5, 11, 85
7, 204298, Control_c, 5, 11, 86
7, 204307, Control_c, 5, 11, 87
7, 204317, Control_c, 5, 11, 88
7, 204326, Control_c, 5, 11, 89
7, 204335, Note_on_c, 5, 91, 0
7, 204335, Note_on_c, 5, 87, 0
7, 204336, Note_on_c, 5, 88, 100
7, 204336, Note_on_c, 5, 91, 100
7, 204336, Control_c, 5, 11, 90
7, 204346, Control_c, 5, 11, 91
7, 204355, Control_c, 5, 11, 92
7, 204365, Control_c, 5, 11, 93
7, 204374, Control_c, 5, 11, 94
7, 204384, Control_c, 5, 11, 95
7, 204393, Control_c, 5, 11, 96
7, 204403, Control_c, 5, 11, 97
7, 204413, Control_c, 5, 11, 98
7, 204422, Control_c, 5, 11, 99
7, 204432, Control_c, 5, 11, 100
7, 204441, Control_c, 5, 11, 101
7, 204451, Control_c, 5, 11, 102
7, 204461, Control_c, 5, 11, 103
7, 204470, Control_c, 5, 11, 104
7, 204480, Control_c, 5, 11, 105
7, 204489, Control_c, 5, 11, 106
7, 204499, Control_c, 5, 11, 107
7, 204508, Control_c, 5, 11, 108
7, 204518, Control_c, 5, 11, 109
7, 204528, Note_on_c, 5, 91, 0
7, 204528, Note_on_c, 5, 88, 0
7, 204528, Note_on_c, 5, 86, 100
7, 204528, Note_on_c, 5, 89, 100
7, 204528, Control_c, 5, 11, 110
7, 204537, Control_c, 5, 11, 111
7, 204547, Control_c, 5, 11, 112
7, 204556, Control_c, 5, 11, 113
7, 204566, Control_c, 5, 11, 114
7, 204576, Note_on_c, 5, 89, 0
7, 204576, Note_on_c, 5, 86, 0
7, 204576, Note_on_c, 5, 88, 100
7, 204576, Note_on_c, 5, 91, 100
7, 204576, Control_c, 5, 11, 115
7, 204585, Control_c, 5, 11, 116
7, 204595, Control_c, 5, 11, 117
7, 204604, Control_c, 5, 11, 118
7, 204614, Control_c, 5, 11, 119
7, 204623, Control_c, 5, 11, 120
7, 204624, Note_on_c, 5, 91, 0
7, 204624, Note_on_c, 5, 88, 0
7, 204624, Control_c, 5, 1, 0
7, 204624, Note_on_c, 5, 81, 105
7, 204624, Note_on_c, 5, 93, 105
7, 204648, Note_on_c, 5, 93, 0
7, 204648, Note_on_c, 5, 81, 0
7, 204672, Note_on_c, 5, 77, 100
7, 204672, Note_on_c, 5, 89, 100
7, 204696, Note_on_c, 5, 89, 0
7, 204696, Note_on_c, 5, 77, 0
7, 204720, Note_on_c, 5, 82, 100
7, 204744, Note_on_c, 5, 82, 0
7, 204768, Note_on_c, 5, 79, 105
7, 204768, Note_on_c, 5, 91, 105
7, 204792, Note_on_c, 5, 91, 0
7, 204792, Note_on_c, 5, 79, 0
7, 204816, Note_on_c, 5, 76, 100
7, 204816, Note_on_c, 5, 88, 100
7, 204840, Note_on_c, 5, 88, 0
7, 204840, Note_on_c, 5, 76, 0
7, 204864, Note_on_c, 5, 81, 100
7, 204864, Note_on_c, 5, 93, 100
7, 204888, Note_on_c, 5, 93, 0
7, 204888, Note_on_c, 5, 81, 0
7, 204912, Note_on_c, 5, 77, 105
7, 204912, Note_on_c, 5, 89, 105
7, 204936, Note_on_c, 5, 89, 0
7, 204936, Note_on_c, 5, 77, 0
7, 205200, Note_on_c, 5, 81, 105
7, 205200, Note_on_c, 5, 93, 105
7, 205224, Note_on_c, 5, 93, 0
7, 205224, Note_on_c, 5, 81, 0
7, 205248, Note_on_c, 5, 77, 100
7, 205248, Note_on_c, 5, 89, 100
7, 205272, Note_on_c, 5, 89, 0
7, 205272, Note_on_c, 5, 77, 0
7, 205296, Note_on_c, 5, 82, 100
7, 205320, Note_on_c, 5, 82, 0
7, 205344, Note_on_c, 5, 79, 105
7, 205344, Note_on_c, 5, 91, 105
7, 205368, Note_on_c, 5, 91, 0
7, 205368, Note_on_c, 5, 79, 0
7, 205392, Note_on_c, 5, 76, 100
7, 205392, Note_on_c, 5, 88, 100
7, 205416, Note_on_c, 5, 88, 0
7, 205416, Note_on_c, 5, 76, 0
7, 205440, Note_on_c, 5, 81, 100
7, 205440, Note_on_c, 5, 93, 100
7, 205464, Note_on_c, 5, 93, 0
7, 205464, Note_on_c, 5, 81, 0
7, 205488, Note_on_c, 5, 81, 105
7, 205488, Note_on_c, 5, 93, 105
7, 205512, Note_on_c, 5, 93, 0
7, 205512, Note_on_c, 5, 81, 0
7, 205536, Note_on_c, 5, 81, 100
7, 205536, Note_on_c, 5, 93, 100
7, 205560, Note_on_c, 5, 93, 0
7, 205560, Note_on_c, 5, 81, 0
7, 205584, Note_on_c, 5, 81, 100
7, 205584, Note_on_c, 5, 93, 100
7, 205608, Note_on_c, 5, 93, 0
7, 205608, Note_on_c, 5, 81, 0
7, 205632, Note_on_c, 5, 81, 105
7, 205632, Note_on_c, 5, 93, 105
7, 205656, Note_on_c, 5, 93, 0
7, 205656, Note_on_c, 5, 81, 0
7, 205680, Note_on_c, 5, 81, 100
7, 205680, Note_on_c, 5, 93, 100
7, 205704, Note_on_c, 5, 93, 0
7, 205704, Note_on_c, 5, 81, 0
7, 205728, Note_on_c, 5, 81, 100
7, 205728, Note_on_c, 5, 93, 100
7, 205752, Note_on_c, 5, 93, 0
7, 205752, Note_on_c, 5, 81, 0
7, 205776, Note_on_c, 5, 86, 105
7, 205776, Note_on_c, 5, 89, 105
7, 205800, Note_on_c, 5, 89, 0
7, 205800, Note_on_c, 5, 86, 0
7, 205824, Note_on_c, 5, 81, 100
7, 205824, Note_on_c, 5, 86, 100
7, 205848, Note_on_c, 5, 86, 0
7, 205848, Note_on_c, 5, 81, 0
7, 205872, Note_on_c, 5, 89, 100
7, 205872, Note_on_c, 5, 93, 100
7, 205896, Note_on_c, 5, 93, 0
7, 205896, Note_on_c, 5, 89, 0
7, 205920, Note_on_c, 5, 88, 105
7, 205920, Note_on_c, 5, 91, 105
7, 205944, Note_on_c, 5, 91, 0
7, 205944, Note_on_c, 5, 88, 0
7, 205968, Note_on_c, 5, 81, 100
7, 205968, Note_on_c, 5, 88, 100
7, 205992, Note_on_c, 5, 88, 0
7, 205992, Note_on_c, 5, 81, 0
7, 206016, Note_on_c, 5, 88, 100
7, 206016, Note_on_c, 5, 93, 100
7, 206040, Note_on_c, 5, 93, 0
7, 206040, Note_on_c, 5, 88, 0
7, 206064, Note_on_c, 5, 86, 105
7, 206064, Note_on_c, 5, 89, 105
7, 206088, Note_on_c, 5, 89, 0
7, 206088, Note_on_c, 5, 86, 0
7, 206112, Note_on_c, 5, 81, 100
7, 206112, Note_on_c, 5, 86, 100
7, 206136, Note_on_c, 5, 86, 0
7, 206136, Note_on_c, 5, 81, 0
7, 206160, Note_on_c, 5, 89, 100
7, 206160, Note_on_c, 5, 93, 100
7, 206184, Note_on_c, 5, 93, 0
7, 206184, Note_on_c, 5, 89, 0
7, 206208, Note_on_c, 5, 88, 105
7, 206208, Note_on_c, 5, 91, 105
7, 206232, Note_on_c, 5, 91, 0
7, 206232, Note_on_c, 5, 88, 0
7, 206256, Note_on_c, 5, 81, 100
7, 206256, Note_on_c, 5, 88, 100
7, 206280, Note_on_c, 5, 88, 0
7, 206280, Note_on_c, 5, 81, 0
7, 206304, Note_on_c, 5, 88, 100
7, 206304, Note_on_c, 5, 93, 100
7, 206328, Note_on_c, 5, 93, 0
7, 206328, Note_on_c, 5, 88, 0
7, 206352, Control_c, 5, 1, 0
7, 206352, Note_on_c, 5, 69, 44
7, 206353, Control_c, 5, 1, 2
7, 206354, Control_c, 5, 1, 3
7, 206355, Control_c, 5, 1, 4
7, 206356, Control_c, 5, 1, 5
7, 206357, Control_c, 5, 1, 6
7, 206358, Control_c, 5, 1, 7
7, 206360, Control_c, 5, 1, 8
7, 206361, Control_c, 5, 1, 9
7, 206363, Control_c, 5, 1, 10
7, 206364, Control_c, 5, 1, 11
7, 206366, Control_c, 5, 1, 12
7, 206368, Control_c, 5, 1, 13
7, 206370, Control_c, 5, 1, 14
7, 206373, Control_c, 5, 1, 15
7, 206376, Control_c, 5, 1, 16
7, 206380, Control_c, 5, 1, 17
7, 206384, Control_c, 5, 1, 18
7, 206391, Control_c, 5, 1, 19
7, 206400, Note_on_c, 5, 69, 0
7, 206400, Note_on_c, 5, 73, 48
7, 206403, Control_c, 5, 1, 20
7, 206448, Note_on_c, 5, 73, 0
7, 206448, Note_on_c, 5, 76, 51
7, 206496, Note_on_c, 5, 76, 0
7, 206496, Note_on_c, 5, 79, 54
7, 206544, Note_on_c, 5, 79, 0
7, 206544, Note_on_c, 5, 85, 60
7, 206592, Note_on_c, 5, 85, 0
7, 206592, Note_on_c, 5, 88, 63
7, 206640, Note_on_c, 5, 88, 0
7, 206640, Note_on_c, 5, 91, 66
7, 206832, Note_on_c, 5, 91, 0
7, 206832, Note_on_c, 5, 88, 63
7, 206880, Note_on_c, 5, 88, 0
7, 206880, Note_on_c, 5, 85, 60
7, 206928, Note_on_c, 5, 85, 0
7, 206928, Note_on_c, 5, 86, 50
7, 206976, Note_on_c, 5, 86, 0
7, 207072, Control_c, 5, 1, 0
7, 207072, Note_on_c, 5, 86, 55
7, 207107, Note_on_c, 5, 86, 0
7, 207144, Note_on_c, 5, 74, 50
7, 207156, Note_on_c, 5, 74, 0
7, 207168, Note_on_c, 5, 74, 50
7, 207192, Note_on_c, 5, 74, 0
7, 207216, Note_on_c, 5, 74, 50
7, 207240, Note_on_c, 5, 74, 0
7, 207360, Note_on_c, 5, 86, 55
7, 207395, Note_on_c, 5, 86, 0
7, 207432, Note_on_c, 5, 74, 50
7, 207444, Note_on_c, 5, 74, 0
7, 207456, Note_on_c, 5, 74, 50
7, 207480, Note_on_c, 5, 74, 0
7, 207504, Note_on_c, 5, 74, 50
7, 207528, Note_on_c, 5, 74, 0
7, 208224, Note_on_c, 5, 86, 58
7, 208259, Note_on_c, 5, 86, 0
7, 208296, Note_on_c, 5, 74, 62
7, 208308, Note_on_c, 5, 74, 0
7, 208320, Note_on_c, 5, 74, 64
7, 208344, Note_on_c, 5, 74, 0
7, 208368, Note_on_c, 5, 74, 66
7, 208392, Note_on_c, 5, 74, 0
7, 208512, Note_on_c, 5, 86, 75
7, 208547, Note_on_c, 5, 86, 0
7, 208584, Note_on_c, 5, 74, 79
7, 208596, Note_on_c, 5, 74, 0
7, 208608, Note_on_c, 5, 74, 80
7, 208632, Note_on_c, 5, 74, 0
7, 208656, Note_on_c, 5, 74, 83
7, 208680, Note_on_c, 5, 74, 0
7, 208800, Note_on_c, 5, 86, 92
7, 208835, Note_on_c, 5, 86, 0
7, 208872, Note_on_c, 5, 74, 96
7, 208884, Note_on_c, 5, 74, 0
7, 208896, Note_on_c, 5, 74, 97
7, 208920, Note_on_c, 5, 74, 0
7, 208944, Note_on_c, 5, 74, 100
7, 208968, Note_on_c, 5, 74, 0
7, 209088, Note_on_c, 5, 76, 109
7, 209088, Note_on_c, 5, 88, 109
7, 209123, Note_on_c, 5, 88, 0
7, 209123, Note_on_c, 5, 76, 0
7, 209160, Note_on_c, 5, 76, 113
7, 209172, Note_on_c, 5, 76, 0
7, 209184, Control_c, 5, 1, 0
7, 209184, Note_on_c, 5, 76, 114
7, 209184, Note_on_c, 5, 88, 114
7, 209185, Control_c, 5, 1, 3
7, 209186, Control_c, 5, 1, 5
7, 209187, Control_c, 5, 1, 7
7, 209188, Control_c, 5, 1, 8
7, 209189, Control_c, 5, 1, 10
7, 209190, Control_c, 5, 1, 11
7, 209191, Control_c, 5, 1, 12
7, 209192, Control_c, 5, 1, 13
7, 209193, Control_c, 5, 1, 14
7, 209195, Control_c, 5, 1, 15
7, 209196, Control_c, 5, 1, 16
7, 209198, Control_c, 5, 1, 17
7, 209200, Control_c, 5, 1, 18
7, 209204, Control_c, 5, 1, 19
7, 209210, Control_c, 5, 1, 20
7, 209229, Note_on_c, 5, 88, 0
7, 209229, Note_on_c, 5, 76, 0
7, 209280, Control_c, 5, 1, 0
7, 209568, Note_on_c, 5, 86, 55
7, 209603, Note_on_c, 5, 86, 0
7, 209640, Note_on_c, 5, 74, 50
7, 209652, Note_on_c, 5, 74, 0
7, 209664, Note_on_c, 5, 74, 50
7, 209688, Note_on_c, 5, 74, 0
7, 209712, Note_on_c, 5, 79, 55
7, 209736, Note_on_c, 5, 79, 0
7, 209760, Note_on_c, 5, 81, 50
7, 209784, Note_on_c, 5, 81, 0
7, 209808, Note_on_c, 5, 82, 50
7, 209832, Note_on_c, 5, 82, 0
7, 210144, Note_on_c, 5, 86, 55
7, 210179, Note_on_c, 5, 86, 0
7, 210216, Note_on_c, 5, 74, 50
7, 210228, Note_on_c, 5, 74, 0
7, 210240, Note_on_c, 5, 74, 50
7, 210264, Note_on_c, 5, 74, 0
7, 210288, Note_on_c, 5, 79, 55
7, 210312, Note_on_c, 5, 79, 0
7, 210336, Note_on_c, 5, 81, 50
7, 210360, Note_on_c, 5, 81, 0
7, 210384, Note_on_c, 5, 82, 50
7, 210408, Note_on_c, 5, 82, 0
7, 210432, Note_on_c, 5, 81, 50
7, 210432, Note_on_c, 5, 93, 50
7, 210467, Note_on_c, 5, 93, 0
7, 210467, Note_on_c, 5, 81, 0
7, 210504, Note_on_c, 5, 69, 54
7, 210504, Note_on_c, 5, 81, 54
7, 210516, Note_on_c, 5, 81, 0
7, 210516, Note_on_c, 5, 69, 0
7, 210528, Note_on_c, 5, 69, 55
7, 210528, Note_on_c, 5, 81, 55
7, 210552, Note_on_c, 5, 81, 0
7, 210552, Note_on_c, 5, 69, 0
7, 210576, Note_on_c, 5, 74, 58
7, 210576, Note_on_c, 5, 86, 58
7, 210600, Note_on_c, 5, 86, 0
7, 210600, Note_on_c, 5, 74, 0
7, 210624, Note_on_c, 5, 76, 61
7, 210624, Note_on_c, 5, 88, 61
7, 210648, Note_on_c, 5, 88, 0
7, 210648, Note_on_c, 5, 76, 0
7, 210672, Note_on_c, 5, 77, 64
7, 210672, Note_on_c, 5, 89, 64
7, 210696, Note_on_c, 5, 89, 0
7, 210696, Note_on_c, 5, 77, 0
7, 210720, Note_on_c, 5, 81, 66
7, 210720, Note_on_c, 5, 93, 66
7, 210755, Note_on_c, 5, 93, 0
7, 210755, Note_on_c, 5, 81, 0
7, 210792, Note_on_c, 5, 69, 71
7, 210792, Note_on_c, 5, 81, 71
7, 210804, Note_on_c, 5, 81, 0
7, 210804, Note_on_c, 5, 69, 0
7, 210816, Note_on_c, 5, 69, 72
7, 210816, Note_on_c, 5, 81, 72
7, 210840, Note_on_c, 5, 81, 0
7, 210840, Note_on_c, 5, 69, 0
7, 210864, Note_on_c, 5, 74, 75
7, 210864, Note_on_c, 5, 86, 75
7, 210888, Note_on_c, 5, 86, 0
7, 210888, Note_on_c, 5, 74, 0
7, 210912, Note_on_c, 5, 76, 78
7, 210912, Note_on_c, 5, 88, 78
7, 210936, Note_on_c, 5, 88, 0
7, 210936, Note_on_c, 5, 76, 0
7, 210960, Note_on_c, 5, 77, 80
7, 210960, Note_on_c, 5, 89, 80
7, 210984, Note_on_c, 5, 89, 0
7, 210984, Note_on_c, 5, 77, 0
7, 211008, Note_on_c, 5, 81, 83
7, 211008, Note_on_c, 5, 93, 83
7, 211043, Note_on_c, 5, 93, 0
7, 211043, Note_on_c, 5, 81, 0
7, 211080, Note_on_c, 5, 69, 87
7, 211080, Note_on_c, 5, 81, 87
7, 211092, Note_on_c, 5, 81, 0
7, 211092, Note_on_c, 5, 69, 0
7, 211104, Note_on_c, 5, 69, 89
7, 211104, Note_on_c, 5, 81, 89
7, 211128, Note_on_c, 5, 81, 0
7, 211128, Note_on_c, 5, 69, 0
7, 211152, Note_on_c, 5, 74, 92
7, 211152, Note_on_c, 5, 86, 92
7, 211176, Note_on_c, 5, 86, 0
7, 211176, Note_on_c, 5, 74, 0
7, 211200, Note_on_c, 5, 76, 95
7, 211200, Note_on_c, 5, 88, 95
7, 211224, Note_on_c, 5, 88, 0
7, 211224, Note_on_c, 5, 76, 0
7, 211248, Note_on_c, 5, 77, 97
7, 211248, Note_on_c, 5, 89, 97
7, 211272, Note_on_c, 5, 89, 0
7, 211272, Note_on_c, 5, 77, 0
7, 211296, Note_on_c, 5, 81, 100
7, 211296, Note_on_c, 5, 93, 100
7, 211331, Note_on_c, 5, 93, 0
7, 211331, Note_on_c, 5, 81, 0
7, 211368, Note_on_c, 5, 69, 104
7, 211368, Note_on_c, 5, 81, 104
7, 211380, Note_on_c, 5, 81, 0
7, 211380, Note_on_c, 5, 69, 0
7, 211392, Note_on_c, 5, 69, 106
7, 211392, Note_on_c, 5, 81, 106
7, 211416, Note_on_c, 5, 81, 0
7, 211416, Note_on_c, 5, 69, 0
7, 211440, Note_on_c, 5, 74, 109
7, 211440, Note_on_c, 5, 86, 109
7, 211464, Note_on_c, 5, 86, 0
7, 211464, Note_on_c, 5, 74, 0
7, 211488, Note_on_c, 5, 76, 111
7, 211488, Note_on_c, 5, 88, 111
7, 211512, Note_on_c, 5, 88, 0
7, 211512, Note_on_c, 5, 76, 0
7, 211536, Note_on_c, 5, 77, 114
7, 211536, Note_on_c, 5, 89, 114
7, 211560, Note_on_c, 5, 89, 0
7, 211560, Note_on_c, 5, 77, 0
7, 211584, Note_on_c, 5, 81, 125
7, 211584, Note_on_c, 5, 93, 125
7, 211608, Note_on_c, 5, 93, 0
7, 211608, Note_on_c, 5, 81, 0
7, 211632, Note_on_c, 5, 69, 120
7, 211632, Note_on_c, 5, 81, 120
7, 211656, Note_on_c, 5, 81, 0
7, 211656, Note_on_c, 5, 69, 0
7, 211680, Note_on_c, 5, 74, 125
7, 211680, Note_on_c, 5, 86, 125
7, 211704, Note_on_c, 5, 86, 0
7, 211704, Note_on_c, 5, 74, 0
7, 211728, Note_on_c, 5, 62, 120
7, 211728, Note_on_c, 5, 74, 120
7, 211752, Note_on_c, 5, 74, 0
7, 211752, Note_on_c, 5, 62, 0
7, 211776, Note_on_c, 5, 69, 125
7, 211776, Note_on_c, 5, 81, 125
7, 211800, Note_on_c, 5, 81, 0
7, 211800, Note_on_c, 5, 69, 0
7, 211824, Note_on_c, 5, 69, 120
7, 211848, Note_on_c, 5, 69, 0
7, 211872, Note_on_c, 5, 81, 125
7, 211872, Note_on_c, 5, 93, 125
7, 211896, Note_on_c, 5, 93, 0
7, 211896, Note_on_c, 5, 81, 0
7, 211920, Note_on_c, 5, 69, 120
7, 211920, Note_on_c, 5, 81, 120
7, 211944, Note_on_c, 5, 81, 0
7, 211944, Note_on_c, 5, 69, 0
7, 211968, Control_c, 5, 1, 0
7, 211968, Control_c, 5, 11, 120
7, 211968, Note_on_c, 5, 86, 110
7, 211969, Control_c, 5, 1, 2
7, 211970, Control_c, 5, 1, 3
7, 211971, Control_c, 5, 1, 4
7, 211972, Control_c, 5, 11, 119
7, 211972, Control_c, 5, 1, 5
7, 211973, Control_c, 5, 1, 6
7, 211974, Control_c, 5, 1, 7
7, 211975, Control_c, 5, 11, 118
7, 211976, Control_c, 5, 1, 8
7, 211977, Control_c, 5, 1, 9
7, 211978, Control_c, 5, 11, 117
7, 211979, Control_c, 5, 1, 10
7, 211980, Control_c, 5, 1, 11
7, 211981, Control_c, 5, 11, 116
7, 211982, Control_c, 5, 1, 12
7, 211984, Control_c, 5, 11, 115
7, 211984, Control_c, 5, 1, 13
7, 211986, Control_c, 5, 1, 14
7, 211988, Control_c, 5, 11, 114
7, 211989, Control_c, 5, 1, 15
7, 211991, Control_c, 5, 11, 113
7, 211992, Control_c, 5, 1, 16
7, 211994, Control_c, 5, 11, 112
7, 211996, Control_c, 5, 1, 17
7, 211997, Control_c, 5, 11, 111
7, 212000, Control_c, 5, 11, 110
7, 212000, Control_c, 5, 1, 18
7, 212004, Control_c, 5, 11, 109
7, 212007, Control_c, 5, 11, 108
7, 212007, Control_c, 5, 1, 19
7, 212010, Control_c, 5, 11, 107
7, 212013, Control_c, 5, 11, 106
7, 212016, Control_c, 5, 11, 105
7, 212019, Control_c, 5, 11, 104
7, 212019, Control_c, 5, 1, 20
7, 212023, Control_c, 5, 11, 103
7, 212026, Control_c, 5, 11, 102
7, 212029, Control_c, 5, 11, 101
7, 212032, Control_c, 5, 11, 100
7, 212035, Control_c, 5, 11, 99
7, 212039, Control_c, 5, 11, 98
7, 212042, Control_c, 5, 11, 97
7, 212045, Control_c, 5, 11, 96
7, 212048, Control_c, 5, 11, 95
7, 212051, Control_c, 5, 11, 94
7, 212054, Control_c, 5, 11, 93
7, 212058, Control_c, 5, 11, 92
7, 212061, Control_c, 5, 11, 91
7, 212064, Control_c, 5, 11, 90
7, 212067, Control_c, 5, 11, 89
7, 212070, Control_c, 5, 11, 88
7, 212074, Control_c, 5, 11, 87
7, 212077, Control_c, 5, 11, 86
7, 212080, Control_c, 5, 11, 85
7, 212083, Control_c, 5, 11, 84
7, 212086, Control_c, 5, 11, 83
7, 212089, Control_c, 5, 11, 82
7, 212093, Control_c, 5, 11, 81
7, 212096, Control_c, 5, 11, 80
7, 212099, Control_c, 5, 11, 79
7, 212102, Control_c, 5, 11, 78
7, 212105, Control_c, 5, 11, 77
7, 212109, Control_c, 5, 11, 76
7, 212112, Control_c, 5, 11, 75
7, 212115, Control_c, 5, 11, 74
7, 212118, Control_c, 5, 11, 73
7, 212121, Control_c, 5, 11, 72
7, 212124, Control_c, 5, 11, 71
7, 212128, Control_c, 5, 11, 70
7, 212131, Control_c, 5, 11, 69
7, 212134, Control_c, 5, 11, 68
7, 212137, Control_c, 5, 11, 67
7, 212140, Control_c, 5, 11, 66
7, 212144, Control_c, 5, 11, 65
7, 212147, Control_c, 5, 11, 64
7, 212150, Control_c, 5, 11, 63
7, 212153, Control_c, 5, 11, 62
7, 212156, Control_c, 5, 11, 61
7, 212159, Control_c, 5, 11, 60
7, 212256, Note_on_c, 5, 86, 0
7, 212256, Note_on_c, 5, 88, 100
7, 212352, Note_on_c, 5, 88, 0
7, 212352, Control_c, 5, 11, 120
7, 212352, Control_c, 5, 1, 0
7, 212352, Note_on_c, 5, 90, 60
7, 212353, Control_c, 5, 1, 1
7, 212354, Control_c, 5, 1, 2
7, 212355, Control_c, 5, 1, 3
7, 212356, Control_c, 5, 1, 4
7, 212358, Control_c, 5, 1, 5
7, 212360, Control_c, 5, 1, 6
7, 212361, Control_c, 5, 1, 7
7, 212363, Control_c, 5, 1, 8
7, 212365, Control_c, 5, 1, 9
7, 212368, Control_c, 5, 1, 10
7, 212370, Control_c, 5, 1, 11
7, 212373, Control_c, 5, 1, 12
7, 212376, Control_c, 5, 1, 13
7, 212379, Control_c, 5, 1, 14
7, 212383, Control_c, 5, 1, 15
7, 212388, Control_c, 5, 1, 16
7, 212393, Control_c, 5, 1, 17
7, 212401, Control_c, 5, 1, 18
7, 212411, Control_c, 5, 1, 19
7, 212429, Control_c, 5, 1, 20
7, 212496, Note_on_c, 5, 90, 0
7, 212496, Note_on_c, 5, 91, 60
7, 212520, Note_on_c, 5, 91, 0
7, 212520, Note_on_c, 5, 93, 60
7, 212544, Note_on_c, 5, 93, 0
7, 212544, Control_c, 5, 1, 0
7, 212544, Note_on_c, 5, 91, 60
7, 212568, Note_on_c, 5, 91, 0
7, 212592, Note_on_c, 5, 91, 60
7, 212616, Note_on_c, 5, 91, 0
7, 212640, Note_on_c, 5, 90, 60
7, 212664, Note_on_c, 5, 90, 0
7, 212688, Note_on_c, 5, 90, 60
7, 212712, Note_on_c, 5, 90, 0
7, 212736, Control_c, 5, 1, 0
7, 212736, Note_on_c, 5, 88, 60
7, 212737, Control_c, 5, 1, 1
7, 212738, Control_c, 5, 1, 2
7, 212739, Control_c, 5, 1, 3
7, 212740, Control_c, 5, 1, 4
7, 212742, Control_c, 5, 1, 5
7, 212743, Control_c, 5, 1, 6
7, 212745, Control_c, 5, 1, 7
7, 212747, Control_c, 5, 1, 8
7, 212749, Control_c, 5, 1, 9
7, 212752, Control_c, 5, 1, 10
7, 212755, Control_c, 5, 1, 11
7, 212759, Control_c, 5, 1, 12
7, 212764, Control_c, 5, 1, 13
7, 212770, Control_c, 5, 1, 14
7, 212782, Control_c, 5, 1, 15
7, 212828, Note_on_c, 5, 88, 0
7, 212832, Control_c, 5, 1, 0
7, 212832, Note_on_c, 5, 86, 60
7, 212833, Control_c, 5, 1, 1
7, 212834, Control_c, 5, 1, 2
7, 212835, Control_c, 5, 1, 3
7, 212838, Control_c, 5, 1, 4
7, 212840, Control_c, 5, 1, 5
7, 212842, Control_c, 5, 1, 6
7, 212844, Control_c, 5, 1, 7
7, 212847, Control_c, 5, 1, 8
7, 212850, Control_c, 5, 1, 9
7, 212853, Control_c, 5, 1, 10
7, 212856, Control_c, 5, 1, 11
7, 212859, Control_c, 5, 1, 12
7, 212864, Control_c, 5, 1, 13
7, 212868, Control_c, 5, 1, 14
7, 212874, Control_c, 5, 1, 15
7, 212880, Control_c, 5, 1, 16
7, 212887, Control_c, 5, 1, 17
7, 212897, Control_c, 5, 1, 18
7, 212911, Control_c, 5, 1, 19
7, 212935, Control_c, 5, 1, 20
7, 213022, Note_on_c, 5, 86, 0
7, 213024, Control_c, 5, 1, 0
7, 213024, Note_on_c, 5, 88, 60
7, 213025, Control_c, 5, 1, 1
7, 213026, Control_c, 5, 1, 2
7, 213027, Control_c, 5, 1, 3
7, 213028, Control_c, 5, 1, 4
7, 213030, Control_c, 5, 1, 5
7, 213031, Control_c, 5, 1, 6
7, 213033, Control_c, 5, 1, 7
7, 213035, Control_c, 5, 1, 8
7, 213037, Control_c, 5, 1, 9
7, 213040, Control_c, 5, 1, 10
7, 213043, Control_c, 5, 1, 11
7, 213047, Control_c, 5, 1, 12
7, 213052, Control_c, 5, 1, 13
7, 213058, Control_c, 5, 1, 14
7, 213070, Control_c, 5, 1, 15
7, 213120, Note_on_c, 5, 88, 0
7, 213120, Note_on_c, 5, 90, 60
7, 213264, Note_on_c, 5, 90, 0
7, 213264, Note_on_c, 5, 91, 60
7, 213288, Note_on_c, 5, 91, 0
7, 213288, Note_on_c, 5, 93, 60
7, 213312, Note_on_c, 5, 93, 0
7, 213504, Control_c, 5, 1, 0
7, 213504, Control_c, 5, 11, 127
7, 213504, Note_on_c, 5, 81, 127
7, 213504, Note_on_c, 5, 93, 127
7, 213528, Note_on_c, 5, 93, 0
7, 213528, Note_on_c, 5, 81, 0
7, 213552, Note_on_c, 5, 69, 115
7, 213552, Note_on_c, 5, 81, 115
7, 213576, Note_on_c, 5, 81, 0
7, 213576, Note_on_c, 5, 69, 0
7, 213600, Note_on_c, 5, 74, 125
7, 213600, Note_on_c, 5, 86, 125
7, 213624, Note_on_c, 5, 86, 0
7, 213624, Note_on_c, 5, 74, 0
7, 213648, Note_on_c, 5, 62, 115
7, 213648, Note_on_c, 5, 74, 115
7, 213672, Note_on_c, 5, 74, 0
7, 213672, Note_on_c, 5, 62, 0
7, 213696, Note_on_c, 5, 69, 125
7, 213696, Note_on_c, 5, 81, 125
7, 213720, Note_on_c, 5, 81, 0
7, 213720, Note_on_c, 5, 69, 0
7, 213744, Note_on_c, 5, 69, 115
7, 213768, Note_on_c, 5, 69, 0
7, 213792, Note_on_c, 5, 81, 125
7, 213792, Note_on_c, 5, 93, 125
7, 213816, Note_on_c, 5, 93, 0
7, 213816, Note_on_c, 5, 81, 0
7, 213840, Note_on_c, 5, 69, 115
7, 213840, Note_on_c, 5, 81, 115
7, 213864, Note_on_c, 5, 81, 0
7, 213864, Note_on_c, 5, 69, 0
7, 213888, Note_on_c, 5, 74, 125
7, 213912, Note_on_c, 5, 74, 0
7, 214080, End_track
8, 0, Start_track
8, 0, Title_t, "Oboi"
8, 0, MIDI_port, 0
8, 186, Control_c, 6, 91, 50
8, 188, Control_c, 6, 93, 5
8, 190, Control_c, 6, 10, 54
8, 192, Control_c, 6, 7, 86
8, 194, Control_c, 6, 11, 120
8, 768, Control_c, 6, 1, 0
8, 912, Program_c, 6, 68
8, 912, Note_on_c, 6, 74, 110
8, 912, Note_on_c, 6, 86, 110
8, 947, Note_on_c, 6, 86, 0
8, 947, Note_on_c, 6, 74, 0
8, 984, Note_on_c, 6, 62, 100
8, 984, Note_on_c, 6, 74, 100
8, 996, Note_on_c, 6, 74, 0
8, 996, Note_on_c, 6, 62, 0
8, 1008, Note_on_c, 6, 62, 100
8, 1008, Note_on_c, 6, 74, 100
8, 1032, Note_on_c, 6, 74, 0
8, 1032, Note_on_c, 6, 62, 0
8, 1344, Note_on_c, 6, 81, 50
8, 1368, Note_on_c, 6, 81, 0
8, 1488, Note_on_c, 6, 74, 50
8, 1512, Note_on_c, 6, 74, 0
8, 1632, Note_on_c, 6, 76, 50
8, 1656, Note_on_c, 6, 76, 0
8, 1776, Note_on_c, 6, 77, 50
8, 1800, Note_on_c, 6, 77, 0
8, 1920, Note_on_c, 6, 77, 50
8, 1944, Note_on_c, 6, 77, 0
8, 2064, Note_on_c, 6, 72, 50
8, 2088, Note_on_c, 6, 72, 0
8, 2208, Note_on_c, 6, 68, 50
8, 2232, Note_on_c, 6, 68, 0
8, 2352, Note_on_c, 6, 69, 50
8, 2376, Note_on_c, 6, 69, 0
8, 2496, Note_on_c, 6, 67, 50
8, 2520, Note_on_c, 6, 67, 0
8, 2640, Note_on_c, 6, 62, 50
8, 2664, Note_on_c, 6, 62, 0
8, 2784, Note_on_c, 6, 69, 50
8, 2808, Note_on_c, 6, 69, 0
8, 2928, Note_on_c, 6, 69, 50
8, 2952, Note_on_c, 6, 69, 0
8, 3072, Note_on_c, 6, 74, 50
8, 3096, Note_on_c, 6, 74, 0
8, 3216, Note_on_c, 6, 76, 50
8, 3240, Note_on_c, 6, 76, 0
8, 3360, Note_on_c, 6, 76, 50
8, 3384, Note_on_c, 6, 76, 0
8, 3504, Note_on_c, 6, 76, 50
8, 3528, Note_on_c, 6, 76, 0
8, 3648, Note_on_c, 6, 79, 50
8, 3672, Note_on_c, 6, 79, 0
8, 3792, Note_on_c, 6, 77, 50
8, 3816, Note_on_c, 6, 77, 0
8, 3936, Note_on_c, 6, 81, 50
8, 3960, Note_on_c, 6, 81, 0
8, 4080, Note_on_c, 6, 81, 50
8, 4104, Note_on_c, 6, 81, 0
8, 4224, Note_on_c, 6, 81, 50
8, 4248, Note_on_c, 6, 81, 0
8, 4368, Note_on_c, 6, 81, 50
8, 4392, Note_on_c, 6, 81, 0
8, 4512, Note_on_c, 6, 83, 50
8, 4536, Note_on_c, 6, 83, 0
8, 4656, Note_on_c, 6, 76, 50
8, 4680, Note_on_c, 6, 76, 0
8, 4800, Note_on_c, 6, 81, 55
8, 4824, Note_on_c, 6, 81, 0
8, 4848, Note_on_c, 6, 81, 50
8, 4872, Note_on_c, 6, 81, 0
8, 4896, Note_on_c, 6, 81, 50
8, 4920, Note_on_c, 6, 81, 0
8, 4944, Note_on_c, 6, 81, 55
8, 4968, Note_on_c, 6, 81, 0
8, 4992, Note_on_c, 6, 81, 50
8, 5016, Note_on_c, 6, 81, 0
8, 5040, Note_on_c, 6, 81, 50
8, 5064, Note_on_c, 6, 81, 0
8, 5088, Note_on_c, 6, 82, 55
8, 5112, Note_on_c, 6, 82, 0
8, 5136, Note_on_c, 6, 81, 50
8, 5160, Note_on_c, 6, 81, 0
8, 5184, Note_on_c, 6, 79, 50
8, 5208, Note_on_c, 6, 79, 0
8, 5232, Note_on_c, 6, 77, 55
8, 5256, Note_on_c, 6, 77, 0
8, 5280, Note_on_c, 6, 76, 50
8, 5304, Note_on_c, 6, 76, 0
8, 5328, Note_on_c, 6, 74, 50
8, 5352, Note_on_c, 6, 74, 0
8, 5376, Note_on_c, 6, 74, 50
8, 5376, Note_on_c, 6, 77, 50
8, 5400, Note_on_c, 6, 77, 0
8, 5400, Note_on_c, 6, 74, 0
8, 5520, Note_on_c, 6, 69, 50
8, 5520, Note_on_c, 6, 72, 50
8, 5544, Note_on_c, 6, 72, 0
8, 5544, Note_on_c, 6, 69, 0
8, 5664, Note_on_c, 6, 71, 50
8, 5664, Note_on_c, 6, 74, 50
8, 5688, Note_on_c, 6, 74, 0
8, 5688, Note_on_c, 6, 71, 0
8, 5808, Note_on_c, 6, 72, 50
8, 5808, Note_on_c, 6, 76, 50
8, 5832, Note_on_c, 6, 76, 0
8, 5832, Note_on_c, 6, 72, 0
8, 5952, Note_on_c, 6, 73, 55
8, 5976, Note_on_c, 6, 73, 0
8, 6000, Note_on_c, 6, 74, 50
8, 6024, Note_on_c, 6, 74, 0
8, 6048, Note_on_c, 6, 76, 50
8, 6072, Note_on_c, 6, 76, 0
8, 6096, Note_on_c, 6, 77, 55
8, 6120, Note_on_c, 6, 77, 0
8, 6144, Note_on_c, 6, 79, 50
8, 6168, Note_on_c, 6, 79, 0
8, 6192, Note_on_c, 6, 81, 50
8, 6216, Note_on_c, 6, 81, 0
8, 6240, Note_on_c, 6, 82, 55
8, 6264, Note_on_c, 6, 82, 0
8, 6288, Note_on_c, 6, 81, 50
8, 6312, Note_on_c, 6, 81, 0
8, 6336, Note_on_c, 6, 79, 50
8, 6360, Note_on_c, 6, 79, 0
8, 6384, Note_on_c, 6, 77, 55
8, 6408, Note_on_c, 6, 77, 0
8, 6432, Note_on_c, 6, 76, 50
8, 6456, Note_on_c, 6, 76, 0
8, 6480, Note_on_c, 6, 74, 50
8, 6504, Note_on_c, 6, 74, 0
8, 6528, Note_on_c, 6, 73, 50
8, 6552, Note_on_c, 6, 73, 0
8, 6576, Note_on_c, 6, 74, 51
8, 6600, Note_on_c, 6, 74, 0
8, 6624, Note_on_c, 6, 76, 53
8, 6648, Note_on_c, 6, 76, 0
8, 6672, Note_on_c, 6, 74, 55
8, 6696, Note_on_c, 6, 74, 0
8, 6720, Note_on_c, 6, 73, 56
8, 6744, Note_on_c, 6, 73, 0
8, 6768, Note_on_c, 6, 74, 58
8, 6792, Note_on_c, 6, 74, 0
8, 6816, Note_on_c, 6, 73, 60
8, 6840, Note_on_c, 6, 73, 0
8, 6864, Note_on_c, 6, 74, 61
8, 6888, Note_on_c, 6, 74, 0
8, 6912, Note_on_c, 6, 76, 63
8, 6936, Note_on_c, 6, 76, 0
8, 6960, Note_on_c, 6, 74, 65
8, 6984, Note_on_c, 6, 74, 0
8, 7008, Note_on_c, 6, 73, 66
8, 7032, Note_on_c, 6, 73, 0
8, 7056, Note_on_c, 6, 74, 68
8, 7080, Note_on_c, 6, 74, 0
8, 7104, Note_on_c, 6, 73, 70
8, 7128, Note_on_c, 6, 73, 0
8, 7152, Note_on_c, 6, 74, 71
8, 7176, Note_on_c, 6, 74, 0
8, 7200, Note_on_c, 6, 76, 73
8, 7224, Note_on_c, 6, 76, 0
8, 7248, Note_on_c, 6, 74, 75
8, 7272, Note_on_c, 6, 74, 0
8, 7296, Note_on_c, 6, 73, 77
8, 7320, Note_on_c, 6, 73, 0
8, 7344, Note_on_c, 6, 74, 78
8, 7368, Note_on_c, 6, 74, 0
8, 7392, Note_on_c, 6, 73, 80
8, 7392, Note_on_c, 6, 76, 80
8, 7416, Note_on_c, 6, 76, 0
8, 7416, Note_on_c, 6, 73, 0
8, 7440, Note_on_c, 6, 74, 82
8, 7440, Note_on_c, 6, 77, 82
8, 7464, Note_on_c, 6, 77, 0
8, 7464, Note_on_c, 6, 74, 0
8, 7488, Note_on_c, 6, 76, 83
8, 7488, Note_on_c, 6, 79, 83
8, 7512, Note_on_c, 6, 79, 0
8, 7512, Note_on_c, 6, 76, 0
8, 7536, Note_on_c, 6, 74, 85
8, 7536, Note_on_c, 6, 77, 85
8, 7560, Note_on_c, 6, 77, 0
8, 7560, Note_on_c, 6, 74, 0
8, 7584, Note_on_c, 6, 73, 87
8, 7584, Note_on_c, 6, 76, 87
8, 7608, Note_on_c, 6, 76, 0
8, 7608, Note_on_c, 6, 73, 0
8, 7632, Note_on_c, 6, 74, 88
8, 7632, Note_on_c, 6, 77, 88
8, 7656, Note_on_c, 6, 77, 0
8, 7656, Note_on_c, 6, 74, 0
8, 7680, Note_on_c, 6, 73, 90
8, 7680, Note_on_c, 6, 76, 90
8, 7704, Note_on_c, 6, 76, 0
8, 7704, Note_on_c, 6, 73, 0
8, 7728, Note_on_c, 6, 74, 92
8, 7728, Note_on_c, 6, 77, 92
8, 7752, Note_on_c, 6, 77, 0
8, 7752, Note_on_c, 6, 74, 0
8, 7776, Note_on_c, 6, 76, 93
8, 7776, Note_on_c, 6, 79, 93
8, 7800, Note_on_c, 6, 79, 0
8, 7800, Note_on_c, 6, 76, 0
8, 7824, Note_on_c, 6, 74, 95
8, 7824, Note_on_c, 6, 77, 95
8, 7848, Note_on_c, 6, 77, 0
8, 7848, Note_on_c, 6, 74, 0
8, 7872, Note_on_c, 6, 73, 97
8, 7872, Note_on_c, 6, 76, 97
8, 7896, Note_on_c, 6, 76, 0
8, 7896, Note_on_c, 6, 73, 0
8, 7920, Note_on_c, 6, 74, 98
8, 7920, Note_on_c, 6, 77, 98
8, 7944, Note_on_c, 6, 77, 0
8, 7944, Note_on_c, 6, 74, 0
8, 7968, Note_on_c, 6, 73, 100
8, 7968, Note_on_c, 6, 76, 100
8, 7992, Note_on_c, 6, 76, 0
8, 7992, Note_on_c, 6, 73, 0
8, 8016, Note_on_c, 6, 74, 102
8, 8016, Note_on_c, 6, 77, 102
8, 8040, Note_on_c, 6, 77, 0
8, 8040, Note_on_c, 6, 74, 0
8, 8064, Note_on_c, 6, 76, 104
8, 8064, Note_on_c, 6, 79, 104
8, 8088, Note_on_c, 6, 79, 0
8, 8088, Note_on_c, 6, 76, 0
8, 8112, Note_on_c, 6, 73, 105
8, 8112, Note_on_c, 6, 76, 105
8, 8136, Note_on_c, 6, 76, 0
8, 8136, Note_on_c, 6, 73, 0
8, 8160, Note_on_c, 6, 74, 107
8, 8160, Note_on_c, 6, 77, 107
8, 8184, Note_on_c, 6, 77, 0
8, 8184, Note_on_c, 6, 74, 0
8, 8208, Note_on_c, 6, 76, 109
8, 8208, Note_on_c, 6, 79, 109
8, 8232, Note_on_c, 6, 79, 0
8, 8232, Note_on_c, 6, 76, 0
8, 8256, Note_on_c, 6, 77, 115
8, 8256, Note_on_c, 6, 81, 115
8, 8291, Note_on_c, 6, 81, 0
8, 8291, Note_on_c, 6, 77, 0
8, 8328, Note_on_c, 6, 69, 110
8, 8340, Note_on_c, 6, 69, 0
8, 8352, Note_on_c, 6, 69, 110
8, 8376, Note_on_c, 6, 69, 0
8, 8400, Note_on_c, 6, 74, 115
8, 8400, Note_on_c, 6, 81, 115
8, 8424, Note_on_c, 6, 81, 0
8, 8424, Note_on_c, 6, 74, 0
8, 8448, Note_on_c, 6, 76, 110
8, 8448, Note_on_c, 6, 81, 110
8, 8472, Note_on_c, 6, 81, 0
8, 8472, Note_on_c, 6, 76, 0
8, 8496, Note_on_c, 6, 77, 110
8, 8496, Note_on_c, 6, 81, 110
8, 8520, Note_on_c, 6, 81, 0
8, 8520, Note_on_c, 6, 77, 0
8, 8544, Note_on_c, 6, 76, 115
8, 8544, Note_on_c, 6, 81, 115
8, 8568, Note_on_c, 6, 81, 0
8, 8568, Note_on_c, 6, 76, 0
8, 8592, Note_on_c, 6, 77, 110
8, 8592, Note_on_c, 6, 81, 110
8, 8616, Note_on_c, 6, 81, 0
8, 8616, Note_on_c, 6, 77, 0
8, 8640, Note_on_c, 6, 79, 110
8, 8640, Note_on_c, 6, 81, 110
8, 8664, Note_on_c, 6, 81, 0
8, 8664, Note_on_c, 6, 79, 0
8, 8688, Note_on_c, 6, 77, 115
8, 8688, Note_on_c, 6, 81, 115
8, 8712, Note_on_c, 6, 81, 0
8, 8712, Note_on_c, 6, 77, 0
8, 8736, Note_on_c, 6, 76, 110
8, 8736, Note_on_c, 6, 81, 110
8, 8760, Note_on_c, 6, 81, 0
8, 8760, Note_on_c, 6, 76, 0
8, 8784, Note_on_c, 6, 74, 110
8, 8784, Note_on_c, 6, 81, 110
8, 8808, Note_on_c, 6, 81, 0
8, 8808, Note_on_c, 6, 74, 0
8, 8832, Note_on_c, 6, 74, 115
8, 8832, Note_on_c, 6, 82, 115
8, 8856, Note_on_c, 6, 82, 0
8, 8856, Note_on_c, 6, 74, 0
8, 8880, Note_on_c, 6, 74, 110
8, 8880, Note_on_c, 6, 81, 110
8, 8904, Note_on_c, 6, 81, 0
8, 8904, Note_on_c, 6, 74, 0
8, 8928, Note_on_c, 6, 74, 110
8, 8928, Note_on_c, 6, 79, 110
8, 8952, Note_on_c, 6, 79, 0
8, 8952, Note_on_c, 6, 74, 0
8, 8976, Note_on_c, 6, 69, 115
8, 8976, Note_on_c, 6, 77, 115
8, 9000, Note_on_c, 6, 77, 0
8, 9000, Note_on_c, 6, 69, 0
8, 9024, Note_on_c, 6, 76, 110
8, 9024, Note_on_c, 6, 81, 110
8, 9048, Note_on_c, 6, 81, 0
8, 9048, Note_on_c, 6, 76, 0
8, 9072, Note_on_c, 6, 74, 110
8, 9072, Note_on_c, 6, 81, 110
8, 9096, Note_on_c, 6, 81, 0
8, 9096, Note_on_c, 6, 74, 0
8, 9120, Note_on_c, 6, 73, 115
8, 9120, Note_on_c, 6, 81, 115
8, 9144, Note_on_c, 6, 81, 0
8, 9144, Note_on_c, 6, 73, 0
8, 9168, Note_on_c, 6, 74, 110
8, 9168, Note_on_c, 6, 81, 110
8, 9192, Note_on_c, 6, 81, 0
8, 9192, Note_on_c, 6, 74, 0
8, 9216, Note_on_c, 6, 76, 110
8, 9216, Note_on_c, 6, 81, 110
8, 9240, Note_on_c, 6, 81, 0
8, 9240, Note_on_c, 6, 76, 0
8, 9264, Note_on_c, 6, 74, 115
8, 9264, Note_on_c, 6, 81, 115
8, 9288, Note_on_c, 6, 81, 0
8, 9288, Note_on_c, 6, 74, 0
8, 9312, Note_on_c, 6, 73, 110
8, 9312, Note_on_c, 6, 81, 110
8, 9336, Note_on_c, 6, 81, 0
8, 9336, Note_on_c, 6, 73, 0
8, 9360, Note_on_c, 6, 74, 110
8, 9360, Note_on_c, 6, 81, 110
8, 9384, Note_on_c, 6, 81, 0
8, 9384, Note_on_c, 6, 74, 0
8, 9408, Note_on_c, 6, 74, 115
8, 9408, Note_on_c, 6, 82, 115
8, 9432, Note_on_c, 6, 82, 0
8, 9432, Note_on_c, 6, 74, 0
8, 9456, Note_on_c, 6, 74, 110
8, 9456, Note_on_c, 6, 81, 110
8, 9480, Note_on_c, 6, 81, 0
8, 9480, Note_on_c, 6, 74, 0
8, 9504, Note_on_c, 6, 74, 110
8, 9504, Note_on_c, 6, 79, 110
8, 9528, Note_on_c, 6, 79, 0
8, 9528, Note_on_c, 6, 74, 0
8, 9552, Note_on_c, 6, 69, 115
8, 9552, Note_on_c, 6, 77, 115
8, 9576, Note_on_c, 6, 77, 0
8, 9576, Note_on_c, 6, 69, 0
8, 9600, Note_on_c, 6, 69, 110
8, 9600, Note_on_c, 6, 76, 110
8, 9624, Note_on_c, 6, 76, 0
8, 9624, Note_on_c, 6, 69, 0
8, 9648, Note_on_c, 6, 69, 110
8, 9648, Note_on_c, 6, 74, 110
8, 9672, Note_on_c, 6, 74, 0
8, 9672, Note_on_c, 6, 69, 0
8, 9696, Note_on_c, 6, 73, 115
8, 9696, Note_on_c, 6, 81, 115
8, 9720, Note_on_c, 6, 81, 0
8, 9720, Note_on_c, 6, 73, 0
8, 9744, Note_on_c, 6, 74, 110
8, 9744, Note_on_c, 6, 81, 110
8, 9768, Note_on_c, 6, 81, 0
8, 9768, Note_on_c, 6, 74, 0
8, 9792, Note_on_c, 6, 76, 110
8, 9792, Note_on_c, 6, 81, 110
8, 9816, Note_on_c, 6, 81, 0
8, 9816, Note_on_c, 6, 76, 0
8, 9840, Note_on_c, 6, 69, 115
8, 9840, Note_on_c, 6, 81, 115
8, 9864, Note_on_c, 6, 81, 0
8, 9864, Note_on_c, 6, 69, 0
8, 9888, Note_on_c, 6, 77, 110
8, 9888, Note_on_c, 6, 81, 110
8, 9912, Note_on_c, 6, 81, 0
8, 9912, Note_on_c, 6, 77, 0
8, 9936, Note_on_c, 6, 77, 110
8, 9936, Note_on_c, 6, 83, 110
8, 9960, Note_on_c, 6, 83, 0
8, 9960, Note_on_c, 6, 77, 0
8, 9984, Note_on_c, 6, 77, 115
8, 9984, Note_on_c, 6, 83, 115
8, 10008, Note_on_c, 6, 83, 0
8, 10008, Note_on_c, 6, 77, 0
8, 10032, Note_on_c, 6, 71, 110
8, 10032, Note_on_c, 6, 77, 110
8, 10056, Note_on_c, 6, 77, 0
8, 10056, Note_on_c, 6, 71, 0
8, 10080, Note_on_c, 6, 74, 110
8, 10080, Note_on_c, 6, 77, 110
8, 10104, Note_on_c, 6, 77, 0
8, 10104, Note_on_c, 6, 74, 0
8, 10128, Note_on_c, 6, 67, 115
8, 10128, Note_on_c, 6, 76, 115
8, 10152, Note_on_c, 6, 76, 0
8, 10152, Note_on_c, 6, 67, 0
8, 10176, Note_on_c, 6, 74, 110
8, 10176, Note_on_c, 6, 79, 110
8, 10200, Note_on_c, 6, 79, 0
8, 10200, Note_on_c, 6, 74, 0
8, 10224, Note_on_c, 6, 72, 110
8, 10224, Note_on_c, 6, 79, 110
8, 10248, Note_on_c, 6, 79, 0
8, 10248, Note_on_c, 6, 72, 0
8, 10272, Note_on_c, 6, 71, 115
8, 10272, Note_on_c, 6, 79, 115
8, 10296, Note_on_c, 6, 79, 0
8, 10296, Note_on_c, 6, 71, 0
8, 10320, Note_on_c, 6, 72, 110
8, 10320, Note_on_c, 6, 79, 110
8, 10344, Note_on_c, 6, 79, 0
8, 10344, Note_on_c, 6, 72, 0
8, 10368, Note_on_c, 6, 74, 110
8, 10368, Note_on_c, 6, 79, 110
8, 10392, Note_on_c, 6, 79, 0
8, 10392, Note_on_c, 6, 74, 0
8, 10416, Note_on_c, 6, 72, 115
8, 10416, Note_on_c, 6, 79, 115
8, 10440, Note_on_c, 6, 79, 0
8, 10440, Note_on_c, 6, 72, 0
8, 10464, Note_on_c, 6, 71, 110
8, 10464, Note_on_c, 6, 81, 110
8, 10488, Note_on_c, 6, 81, 0
8, 10488, Note_on_c, 6, 71, 0
8, 10512, Note_on_c, 6, 71, 110
8, 10512, Note_on_c, 6, 81, 110
8, 10536, Note_on_c, 6, 81, 0
8, 10536, Note_on_c, 6, 71, 0
8, 10560, Note_on_c, 6, 71, 115
8, 10560, Note_on_c, 6, 81, 115
8, 10584, Note_on_c, 6, 81, 0
8, 10584, Note_on_c, 6, 71, 0
8, 10608, Note_on_c, 6, 71, 110
8, 10608, Note_on_c, 6, 79, 110
8, 10632, Note_on_c, 6, 79, 0
8, 10632, Note_on_c, 6, 71, 0
8, 10656, Note_on_c, 6, 74, 110
8, 10656, Note_on_c, 6, 77, 110
8, 10680, Note_on_c, 6, 77, 0
8, 10680, Note_on_c, 6, 74, 0
8, 10704, Note_on_c, 6, 72, 115
8, 10704, Note_on_c, 6, 76, 115
8, 10728, Note_on_c, 6, 76, 0
8, 10728, Note_on_c, 6, 72, 0
8, 10752, Note_on_c, 6, 71, 110
8, 10752, Note_on_c, 6, 79, 110
8, 10776, Note_on_c, 6, 79, 0
8, 10776, Note_on_c, 6, 71, 0
8, 10800, Note_on_c, 6, 72, 110
8, 10800, Note_on_c, 6, 79, 110
8, 10824, Note_on_c, 6, 79, 0
8, 10824, Note_on_c, 6, 72, 0
8, 10848, Note_on_c, 6, 76, 115
8, 10848, Note_on_c, 6, 79, 115
8, 10872, Note_on_c, 6, 79, 0
8, 10872, Note_on_c, 6, 76, 0
8, 10896, Note_on_c, 6, 74, 110
8, 10896, Note_on_c, 6, 79, 110
8, 10920, Note_on_c, 6, 79, 0
8, 10920, Note_on_c, 6, 74, 0
8, 10944, Note_on_c, 6, 72, 110
8, 10944, Note_on_c, 6, 79, 110
8, 10968, Note_on_c, 6, 79, 0
8, 10968, Note_on_c, 6, 72, 0
8, 10992, Note_on_c, 6, 76, 115
8, 10992, Note_on_c, 6, 79, 115
8, 11016, Note_on_c, 6, 79, 0
8, 11016, Note_on_c, 6, 76, 0
8, 11040, Note_on_c, 6, 74, 110
8, 11040, Note_on_c, 6, 79, 110
8, 11064, Note_on_c, 6, 79, 0
8, 11064, Note_on_c, 6, 74, 0
8, 11088, Note_on_c, 6, 72, 110
8, 11088, Note_on_c, 6, 79, 110
8, 11112, Note_on_c, 6, 79, 0
8, 11112, Note_on_c, 6, 72, 0
8, 11136, Control_c, 6, 1, 0
8, 11136, Note_on_c, 6, 79, 110
8, 11137, Control_c, 6, 1, 1
8, 11138, Control_c, 6, 1, 2
8, 11139, Control_c, 6, 1, 3
8, 11140, Control_c, 6, 1, 4
8, 11142, Control_c, 6, 1, 5
8, 11144, Control_c, 6, 1, 6
8, 11146, Control_c, 6, 1, 7
8, 11147, Control_c, 6, 1, 8
8, 11150, Control_c, 6, 1, 9
8, 11152, Control_c, 6, 1, 10
8, 11155, Control_c, 6, 1, 11
8, 11157, Control_c, 6, 1, 12
8, 11160, Control_c, 6, 11, 60
8, 11160, Control_c, 6, 1, 13
8, 11164, Control_c, 6, 1, 14
8, 11168, Control_c, 6, 1, 15
8, 11173, Control_c, 6, 1, 16
8, 11178, Control_c, 6, 11, 61
8, 11178, Control_c, 6, 1, 17
8, 11185, Control_c, 6, 1, 18
8, 11195, Control_c, 6, 11, 62
8, 11196, Control_c, 6, 1, 19
8, 11213, Control_c, 6, 11, 63
8, 11214, Control_c, 6, 1, 20
8, 11230, Control_c, 6, 11, 64
8, 11247, Control_c, 6, 11, 65
8, 11265, Control_c, 6, 11, 66
8, 11282, Control_c, 6, 11, 67
8, 11299, Control_c, 6, 11, 68
8, 11317, Control_c, 6, 11, 69
8, 11334, Control_c, 6, 11, 70
8, 11352, Control_c, 6, 11, 71
8, 11369, Control_c, 6, 11, 72
8, 11386, Control_c, 6, 11, 73
8, 11404, Control_c, 6, 11, 74
8, 11421, Control_c, 6, 11, 75
8, 11424, Note_on_c, 6, 81, 110
8, 11438, Control_c, 6, 11, 76
8, 11456, Control_c, 6, 11, 77
8, 11473, Control_c, 6, 11, 78
8, 11491, Control_c, 6, 11, 79
8, 11508, Control_c, 6, 11, 80
8, 11525, Control_c, 6, 11, 81
8, 11543, Control_c, 6, 11, 82
8, 11560, Control_c, 6, 11, 83
8, 11568, Note_on_c, 6, 77, 110
8, 11569, Note_on_c, 6, 79, 0
8, 11577, Control_c, 6, 11, 84
8, 11595, Control_c, 6, 11, 85
8, 11612, Control_c, 6, 11, 86
8, 11630, Control_c, 6, 11, 87
8, 11647, Control_c, 6, 11, 88
8, 11664, Control_c, 6, 11, 89
8, 11682, Control_c, 6, 11, 90
8, 11699, Control_c, 6, 11, 91
8, 11712, Note_on_c, 6, 80, 110
8, 11713, Note_on_c, 6, 81, 0
8, 11716, Control_c, 6, 11, 92
8, 11734, Control_c, 6, 11, 93
8, 11751, Control_c, 6, 11, 94
8, 11769, Control_c, 6, 11, 95
8, 11786, Control_c, 6, 11, 96
8, 11803, Control_c, 6, 11, 97
8, 11821, Control_c, 6, 11, 98
8, 11838, Control_c, 6, 11, 99
8, 11855, Control_c, 6, 11, 100
8, 11856, Control_c, 6, 11, 100
8, 11856, Note_on_c, 6, 76, 110
8, 11856, Note_on_c, 6, 79, 110
8, 11857, Note_on_c, 6, 80, 0
8, 11857, Note_on_c, 6, 77, 0
8, 11867, Control_c, 6, 11, 99
8, 11878, Control_c, 6, 11, 98
8, 11889, Control_c, 6, 11, 97
8, 11900, Control_c, 6, 11, 96
8, 11910, Control_c, 6, 11, 95
8, 11921, Control_c, 6, 11, 94
8, 11932, Control_c, 6, 11, 93
8, 11943, Control_c, 6, 11, 92
8, 11953, Control_c, 6, 11, 91
8, 11964, Control_c, 6, 11, 90
8, 11975, Control_c, 6, 11, 89
8, 11986, Control_c, 6, 11, 88
8, 11997, Control_c, 6, 11, 87
8, 12000, Note_on_c, 6, 75, 110
8, 12001, Note_on_c, 6, 76, 0
8, 12007, Control_c, 6, 11, 86
8, 12018, Control_c, 6, 11, 85
8, 12029, Control_c, 6, 11, 84
8, 12040, Control_c, 6, 11, 83
8, 12050, Control_c, 6, 11, 82
8, 12061, Control_c, 6, 11, 81
8, 12072, Control_c, 6, 11, 80
8, 12083, Control_c, 6, 11, 79
8, 12094, Control_c, 6, 11, 78
8, 12104, Control_c, 6, 11, 77
8, 12115, Control_c, 6, 11, 76
8, 12126, Control_c, 6, 11, 75
8, 12137, Control_c, 6, 11, 74
8, 12144, Note_on_c, 6, 74, 110
8, 12145, Note_on_c, 6, 75, 0
8, 12147, Control_c, 6, 11, 73
8, 12158, Control_c, 6, 11, 72
8, 12169, Control_c, 6, 11, 71
8, 12180, Control_c, 6, 11, 70
8, 12191, Control_c, 6, 11, 69
8, 12201, Control_c, 6, 11, 68
8, 12212, Control_c, 6, 11, 67
8, 12223, Control_c, 6, 11, 66
8, 12234, Control_c, 6, 11, 65
8, 12244, Control_c, 6, 11, 64
8, 12255, Control_c, 6, 11, 63
8, 12266, Control_c, 6, 11, 62
8, 12277, Control_c, 6, 11, 61
8, 12287, Note_on_c, 6, 79, 0
8, 12287, Note_on_c, 6, 74, 0
8, 12287, Control_c, 6, 11, 60
8, 12288, Control_c, 6, 1, 0
8, 12288, Control_c, 6, 11, 60
8, 12288, Note_on_c, 6, 79, 110
8, 12289, Control_c, 6, 1, 1
8, 12290, Control_c, 6, 1, 2
8, 12291, Control_c, 6, 1, 3
8, 12292, Control_c, 6, 1, 4
8, 12294, Control_c, 6, 1, 5
8, 12296, Control_c, 6, 1, 6
8, 12297, Control_c, 6, 1, 7
8, 12299, Control_c, 6, 1, 8
8, 12301, Control_c, 6, 1, 9
8, 12304, Control_c, 6, 1, 10
8, 12306, Control_c, 6, 1, 11
8, 12308, Control_c, 6, 11, 61
8, 12309, Control_c, 6, 1, 12
8, 12312, Control_c, 6, 1, 13
8, 12315, Control_c, 6, 1, 14
8, 12319, Control_c, 6, 1, 15
8, 12324, Control_c, 6, 1, 16
8, 12327, Control_c, 6, 11, 62
8, 12329, Control_c, 6, 1, 17
8, 12337, Control_c, 6, 1, 18
8, 12346, Control_c, 6, 11, 63
8, 12347, Control_c, 6, 1, 19
8, 12365, Control_c, 6, 11, 64
8, 12365, Control_c, 6, 1, 20
8, 12384, Control_c, 6, 11, 65
8, 12404, Control_c, 6, 11, 66
8, 12423, Control_c, 6, 11, 67
8, 12442, Control_c, 6, 11, 68
8, 12461, Control_c, 6, 11, 69
8, 12480, Control_c, 6, 11, 70
8, 12500, Control_c, 6, 11, 71
8, 12519, Control_c, 6, 11, 72
8, 12538, Control_c, 6, 11, 73
8, 12557, Control_c, 6, 11, 74
8, 12576, Note_on_c, 6, 81, 110
8, 12576, Control_c, 6, 11, 75
8, 12595, Control_c, 6, 11, 76
8, 12615, Control_c, 6, 11, 77
8, 12634, Control_c, 6, 11, 78
8, 12653, Control_c, 6, 11, 79
8, 12672, Control_c, 6, 11, 80
8, 12691, Control_c, 6, 11, 81
8, 12711, Control_c, 6, 11, 82
8, 12720, Note_on_c, 6, 77, 110
8, 12721, Note_on_c, 6, 79, 0
8, 12730, Control_c, 6, 11, 83
8, 12749, Control_c, 6, 11, 84
8, 12768, Control_c, 6, 11, 85
8, 12787, Control_c, 6, 11, 86
8, 12806, Control_c, 6, 11, 87
8, 12826, Control_c, 6, 11, 88
8, 12845, Control_c, 6, 11, 89
8, 12864, Note_on_c, 6, 71, 110
8, 12864, Note_on_c, 6, 80, 110
8, 12864, Control_c, 6, 11, 90
8, 12865, Note_on_c, 6, 81, 0
8, 12865, Note_on_c, 6, 77, 0
8, 12883, Control_c, 6, 11, 91
8, 12902, Control_c, 6, 11, 92
8, 12922, Control_c, 6, 11, 93
8, 12941, Control_c, 6, 11, 94
8, 12960, Control_c, 6, 11, 95
8, 12979, Control_c, 6, 11, 96
8, 12998, Control_c, 6, 11, 97
8, 13008, Note_on_c, 6, 72, 110
8, 13008, Note_on_c, 6, 79, 110
8, 13009, Note_on_c, 6, 80, 0
8, 13009, Note_on_c, 6, 71, 0
8, 13017, Control_c, 6, 11, 98
8, 13037, Control_c, 6, 11, 99
8, 13056, Control_c, 6, 11, 100
8, 13075, Control_c, 6, 11, 101
8, 13094, Control_c, 6, 11, 102
8, 13113, Control_c, 6, 11, 103
8, 13133, Control_c, 6, 11, 104
8, 13152, Control_c, 6, 11, 105
8, 13171, Control_c, 6, 11, 106
8, 13190, Control_c, 6, 11, 107
8, 13209, Control_c, 6, 11, 108
8, 13228, Control_c, 6, 11, 109
8, 13248, Control_c, 6, 11, 110
8, 13267, Control_c, 6, 11, 111
8, 13286, Control_c, 6, 11, 112
8, 13296, Note_on_c, 6, 71, 110
8, 13297, Note_on_c, 6, 72, 0
8, 13305, Control_c, 6, 11, 113
8, 13324, Control_c, 6, 11, 114
8, 13344, Control_c, 6, 11, 115
8, 13363, Control_c, 6, 11, 116
8, 13382, Control_c, 6, 11, 117
8, 13401, Control_c, 6, 11, 118
8, 13420, Control_c, 6, 11, 119
8, 13439, Note_on_c, 6, 79, 0
8, 13439, Note_on_c, 6, 71, 0
8, 13439, Control_c, 6, 11, 120
8, 13440, Control_c, 6, 1, 0
8, 13440, Note_on_c, 6, 64, 113
8, 13440, Note_on_c, 6, 72, 113
8, 13536, Note_on_c, 6, 72, 0
8, 13536, Note_on_c, 6, 64, 0
8, 13536, Note_on_c, 6, 65, 110
8, 13536, Note_on_c, 6, 74, 110
8, 13560, Note_on_c, 6, 74, 0
8, 13560, Note_on_c, 6, 65, 0
8, 13560, Note_on_c, 6, 67, 112
8, 13560, Note_on_c, 6, 76, 112
8, 13584, Note_on_c, 6, 76, 0
8, 13584, Note_on_c, 6, 67, 0
8, 13584, Note_on_c, 6, 69, 113
8, 13584, Note_on_c, 6, 77, 113
8, 13608, Note_on_c, 6, 77, 0
8, 13608, Note_on_c, 6, 69, 0
8, 13680, Note_on_c, 6, 67, 110
8, 13680, Note_on_c, 6, 76, 110
8, 13704, Note_on_c, 6, 76, 0
8, 13704, Note_on_c, 6, 67, 0
8, 13728, Note_on_c, 6, 65, 112
8, 13728, Note_on_c, 6, 74, 113
8, 13752, Note_on_c, 6, 74, 0
8, 13752, Note_on_c, 6, 65, 0
8, 13824, Note_on_c, 6, 64, 110
8, 13824, Note_on_c, 6, 72, 110
8, 13848, Note_on_c, 6, 72, 0
8, 13848, Note_on_c, 6, 64, 0
8, 13872, Note_on_c, 6, 65, 113
8, 13872, Note_on_c, 6, 74, 113
8, 13896, Note_on_c, 6, 74, 0
8, 13896, Note_on_c, 6, 65, 0
8, 13968, Note_on_c, 6, 62, 110
8, 13968, Note_on_c, 6, 71, 110
8, 13992, Note_on_c, 6, 71, 0
8, 13992, Note_on_c, 6, 62, 0
8, 14016, Note_on_c, 6, 72, 113
8, 14016, Note_on_c, 6, 76, 113
8, 14112, Note_on_c, 6, 76, 0
8, 14112, Note_on_c, 6, 72, 0
8, 14112, Note_on_c, 6, 74, 110
8, 14112, Note_on_c, 6, 77, 110
8, 14136, Note_on_c, 6, 77, 0
8, 14136, Note_on_c, 6, 74, 0
8, 14136, Note_on_c, 6, 76, 111
8, 14136, Note_on_c, 6, 79, 111
8, 14160, Note_on_c, 6, 79, 0
8, 14160, Note_on_c, 6, 76, 0
8, 14160, Note_on_c, 6, 77, 113
8, 14160, Note_on_c, 6, 81, 113
8, 14184, Note_on_c, 6, 81, 0
8, 14184, Note_on_c, 6, 77, 0
8, 14256, Note_on_c, 6, 76, 110
8, 14256, Note_on_c, 6, 79, 110
8, 14280, Note_on_c, 6, 79, 0
8, 14280, Note_on_c, 6, 76, 0
8, 14304, Note_on_c, 6, 74, 113
8, 14304, Note_on_c, 6, 77, 113
8, 14328, Note_on_c, 6, 77, 0
8, 14328, Note_on_c, 6, 74, 0
8, 14400, Note_on_c, 6, 72, 110
8, 14400, Note_on_c, 6, 76, 110
8, 14424, Note_on_c, 6, 76, 0
8, 14424, Note_on_c, 6, 72, 0
8, 14448, Note_on_c, 6, 74, 113
8, 14448, Note_on_c, 6, 77, 113
8, 14472, Note_on_c, 6, 77, 0
8, 14472, Note_on_c, 6, 74, 0
8, 14544, Note_on_c, 6, 71, 110
8, 14544, Note_on_c, 6, 74, 110
8, 14568, Note_on_c, 6, 74, 0
8, 14568, Note_on_c, 6, 71, 0
8, 14592, Note_on_c, 6, 64, 113
8, 14592, Note_on_c, 6, 72, 113
8, 14616, Note_on_c, 6, 72, 0
8, 14616, Note_on_c, 6, 64, 0
8, 14640, Note_on_c, 6, 64, 110
8, 14640, Note_on_c, 6, 72, 110
8, 14688, Note_on_c, 6, 72, 0
8, 14688, Note_on_c, 6, 64, 0
8, 14688, Note_on_c, 6, 65, 111
8, 14688, Note_on_c, 6, 74, 111
8, 14712, Note_on_c, 6, 74, 0
8, 14712, Note_on_c, 6, 65, 0
8, 14712, Note_on_c, 6, 67, 112
8, 14712, Note_on_c, 6, 76, 112
8, 14736, Note_on_c, 6, 76, 0
8, 14736, Note_on_c, 6, 67, 0
8, 14736, Note_on_c, 6, 69, 113
8, 14736, Note_on_c, 6, 77, 113
8, 14760, Note_on_c, 6, 77, 0
8, 14760, Note_on_c, 6, 69, 0
8, 14784, Note_on_c, 6, 69, 110
8, 14784, Note_on_c, 6, 77, 110
8, 14808, Note_on_c, 6, 77, 0
8, 14808, Note_on_c, 6, 69, 0
8, 14832, Note_on_c, 6, 67, 110
8, 14832, Note_on_c, 6, 76, 110
8, 14856, Note_on_c, 6, 76, 0
8, 14856, Note_on_c, 6, 67, 0
8, 14880, Note_on_c, 6, 65, 113
8, 14880, Note_on_c, 6, 74, 113
8, 14904, Note_on_c, 6, 74, 0
8, 14904, Note_on_c, 6, 65, 0
8, 14928, Note_on_c, 6, 65, 110
8, 14928, Note_on_c, 6, 74, 110
8, 14952, Note_on_c, 6, 74, 0
8, 14952, Note_on_c, 6, 65, 0
8, 14976, Note_on_c, 6, 64, 110
8, 14976, Note_on_c, 6, 72, 110
8, 15000, Note_on_c, 6, 72, 0
8, 15000, Note_on_c, 6, 64, 0
8, 15024, Note_on_c, 6, 65, 113
8, 15024, Note_on_c, 6, 74, 113
8, 15048, Note_on_c, 6, 74, 0
8, 15048, Note_on_c, 6, 65, 0
8, 15072, Note_on_c, 6, 65, 110
8, 15072, Note_on_c, 6, 74, 110
8, 15096, Note_on_c, 6, 74, 0
8, 15096, Note_on_c, 6, 65, 0
8, 15120, Note_on_c, 6, 62, 110
8, 15120, Note_on_c, 6, 71, 110
8, 15144, Note_on_c, 6, 71, 0
8, 15144, Note_on_c, 6, 62, 0
8, 15168, Note_on_c, 6, 72, 113
8, 15168, Note_on_c, 6, 76, 113
8, 15192, Note_on_c, 6, 76, 0
8, 15192, Note_on_c, 6, 72, 0
8, 15216, Note_on_c, 6, 72, 110
8, 15216, Note_on_c, 6, 76, 110
8, 15264, Note_on_c, 6, 76, 0
8, 15264, Note_on_c, 6, 72, 0
8, 15264, Note_on_c, 6, 74, 111
8, 15264, Note_on_c, 6, 77, 111
8, 15288, Note_on_c, 6, 77, 0
8, 15288, Note_on_c, 6, 74, 0
8, 15288, Note_on_c, 6, 76, 112
8, 15288, Note_on_c, 6, 79, 112
8, 15312, Note_on_c, 6, 79, 0
8, 15312, Note_on_c, 6, 76, 0
8, 15312, Note_on_c, 6, 77, 113
8, 15312, Note_on_c, 6, 81, 113
8, 15336, Note_on_c, 6, 81, 0
8, 15336, Note_on_c, 6, 77, 0
8, 15360, Note_on_c, 6, 77, 110
8, 15360, Note_on_c, 6, 81, 110
8, 15384, Note_on_c, 6, 81, 0
8, 15384, Note_on_c, 6, 77, 0
8, 15408, Note_on_c, 6, 76, 110
8, 15408, Note_on_c, 6, 79, 110
8, 15432, Note_on_c, 6, 79, 0
8, 15432, Note_on_c, 6, 76, 0
8, 15456, Note_on_c, 6, 74, 113
8, 15456, Note_on_c, 6, 77, 113
8, 15480, Note_on_c, 6, 77, 0
8, 15480, Note_on_c, 6, 74, 0
8, 15504, Note_on_c, 6, 74, 110
8, 15504, Note_on_c, 6, 77, 110
8, 15528, Note_on_c, 6, 77, 0
8, 15528, Note_on_c, 6, 74, 0
8, 15552, Note_on_c, 6, 76, 110
8, 15552, Note_on_c, 6, 84, 110
8, 15576, Note_on_c, 6, 84, 0
8, 15576, Note_on_c, 6, 76, 0
8, 15600, Note_on_c, 6, 77, 113
8, 15600, Note_on_c, 6, 86, 113
8, 15624, Note_on_c, 6, 86, 0
8, 15624, Note_on_c, 6, 77, 0
8, 15648, Note_on_c, 6, 77, 110
8, 15648, Note_on_c, 6, 86, 110
8, 15672, Note_on_c, 6, 86, 0
8, 15672, Note_on_c, 6, 77, 0
8, 15696, Note_on_c, 6, 74, 110
8, 15696, Note_on_c, 6, 83, 110
8, 15720, Note_on_c, 6, 83, 0
8, 15720, Note_on_c, 6, 74, 0
8, 15744, Note_on_c, 6, 76, 120
8, 15779, Note_on_c, 6, 76, 0
8, 15816, Note_on_c, 6, 64, 113
8, 15828, Note_on_c, 6, 64, 0
8, 15840, Note_on_c, 6, 64, 113
8, 15864, Note_on_c, 6, 64, 0
8, 15888, Note_on_c, 6, 64, 116
8, 15888, Note_on_c, 6, 76, 116
8, 15912, Note_on_c, 6, 76, 0
8, 15912, Note_on_c, 6, 64, 0
8, 15936, Note_on_c, 6, 65, 113
8, 15936, Note_on_c, 6, 77, 113
8, 15960, Note_on_c, 6, 77, 0
8, 15960, Note_on_c, 6, 65, 0
8, 15984, Note_on_c, 6, 67, 113
8, 15984, Note_on_c, 6, 79, 113
8, 16008, Note_on_c, 6, 79, 0
8, 16008, Note_on_c, 6, 67, 0
8, 16032, Note_on_c, 6, 69, 116
8, 16032, Note_on_c, 6, 81, 116
8, 16056, Note_on_c, 6, 81, 0
8, 16056, Note_on_c, 6, 69, 0
8, 16176, Note_on_c, 6, 69, 116
8, 16176, Note_on_c, 6, 81, 116
8, 16200, Note_on_c, 6, 81, 0
8, 16200, Note_on_c, 6, 69, 0
8, 16224, Note_on_c, 6, 71, 113
8, 16224, Note_on_c, 6, 83, 113
8, 16248, Note_on_c, 6, 83, 0
8, 16248, Note_on_c, 6, 71, 0
8, 16272, Note_on_c, 6, 72, 113
8, 16272, Note_on_c, 6, 84, 113
8, 16296, Note_on_c, 6, 84, 0
8, 16296, Note_on_c, 6, 72, 0
8, 16320, Note_on_c, 6, 74, 120
8, 16320, Note_on_c, 6, 86, 120
8, 16355, Note_on_c, 6, 86, 0
8, 16355, Note_on_c, 6, 74, 0
8, 16392, Note_on_c, 6, 62, 113
8, 16392, Note_on_c, 6, 74, 113
8, 16404, Note_on_c, 6, 74, 0
8, 16404, Note_on_c, 6, 62, 0
8, 16416, Note_on_c, 6, 62, 113
8, 16416, Note_on_c, 6, 74, 113
8, 16440, Note_on_c, 6, 74, 0
8, 16440, Note_on_c, 6, 62, 0
8, 16464, Note_on_c, 6, 62, 116
8, 16464, Note_on_c, 6, 74, 116
8, 16488, Note_on_c, 6, 74, 0
8, 16488, Note_on_c, 6, 62, 0
8, 16512, Note_on_c, 6, 64, 113
8, 16512, Note_on_c, 6, 76, 113
8, 16536, Note_on_c, 6, 76, 0
8, 16536, Note_on_c, 6, 64, 0
8, 16560, Note_on_c, 6, 65, 113
8, 16560, Note_on_c, 6, 77, 113
8, 16584, Note_on_c, 6, 77, 0
8, 16584, Note_on_c, 6, 65, 0
8, 16608, Note_on_c, 6, 67, 116
8, 16608, Note_on_c, 6, 79, 116
8, 16632, Note_on_c, 6, 79, 0
8, 16632, Note_on_c, 6, 67, 0
8, 16752, Note_on_c, 6, 67, 116
8, 16752, Note_on_c, 6, 79, 116
8, 16776, Note_on_c, 6, 79, 0
8, 16776, Note_on_c, 6, 67, 0
8, 16800, Note_on_c, 6, 72, 113
8, 16800, Note_on_c, 6, 84, 113
8, 16824, Note_on_c, 6, 84, 0
8, 16824, Note_on_c, 6, 72, 0
8, 16848, Note_on_c, 6, 74, 113
8, 16848, Note_on_c, 6, 86, 113
8, 16872, Note_on_c, 6, 86, 0
8, 16872, Note_on_c, 6, 74, 0
8, 16896, Note_on_c, 6, 72, 60
8, 16896, Note_on_c, 6, 84, 60
8, 16920, Note_on_c, 6, 84, 0
8, 16920, Note_on_c, 6, 72, 0
8, 17758, Control_c, 6, 11, 60
8, 17759, Control_c, 6, 1, 0
8, 17760, Note_on_c, 6, 72, 100
8, 17760, Note_on_c, 6, 77, 100
8, 17761, Control_c, 6, 1, 1
8, 17762, Control_c, 6, 1, 2
8, 17763, Control_c, 6, 1, 3
8, 17764, Control_c, 6, 1, 4
8, 17766, Control_c, 6, 1, 5
8, 17768, Control_c, 6, 1, 6
8, 17769, Control_c, 6, 1, 7
8, 17770, Control_c, 6, 11, 61
8, 17771, Control_c, 6, 1, 8
8, 17773, Control_c, 6, 1, 9
8, 17776, Control_c, 6, 1, 10
8, 17778, Control_c, 6, 1, 11
8, 17780, Control_c, 6, 11, 62
8, 17781, Control_c, 6, 1, 12
8, 17784, Control_c, 6, 1, 13
8, 17787, Control_c, 6, 1, 14
8, 17789, Control_c, 6, 11, 63
8, 17791, Control_c, 6, 1, 15
8, 17796, Control_c, 6, 1, 16
8, 17799, Control_c, 6, 11, 64
8, 17801, Control_c, 6, 1, 17
8, 17808, Control_c, 6, 11, 65
8, 17809, Control_c, 6, 1, 18
8, 17818, Control_c, 6, 11, 66
8, 17819, Control_c, 6, 1, 19
8, 17828, Control_c, 6, 11, 67
8, 17837, Control_c, 6, 11, 68
8, 17837, Control_c, 6, 1, 20
8, 17847, Control_c, 6, 11, 69
8, 17856, Control_c, 6, 11, 70
8, 17866, Control_c, 6, 11, 71
8, 17875, Control_c, 6, 11, 72
8, 17885, Control_c, 6, 11, 73
8, 17895, Control_c, 6, 11, 74
8, 17904, Note_on_c, 6, 77, 0
8, 17904, Note_on_c, 6, 76, 100
8, 17904, Control_c, 6, 11, 75
8, 17914, Control_c, 6, 11, 76
8, 17923, Control_c, 6, 11, 77
8, 17933, Control_c, 6, 11, 78
8, 17943, Control_c, 6, 11, 79
8, 17952, Control_c, 6, 11, 80
8, 17962, Control_c, 6, 11, 81
8, 17971, Control_c, 6, 11, 82
8, 17981, Control_c, 6, 11, 83
8, 17990, Control_c, 6, 11, 84
8, 18000, Control_c, 6, 11, 85
8, 18010, Control_c, 6, 11, 86
8, 18019, Control_c, 6, 11, 87
8, 18029, Control_c, 6, 11, 88
8, 18038, Control_c, 6, 11, 89
8, 18048, Note_on_c, 6, 76, 0
8, 18048, Note_on_c, 6, 76, 100
8, 18048, Control_c, 6, 11, 90
8, 18058, Control_c, 6, 11, 91
8, 18067, Control_c, 6, 11, 92
8, 18077, Control_c, 6, 11, 93
8, 18086, Control_c, 6, 11, 94
8, 18096, Control_c, 6, 11, 95
8, 18105, Control_c, 6, 11, 96
8, 18115, Control_c, 6, 11, 97
8, 18125, Control_c, 6, 11, 98
8, 18134, Control_c, 6, 11, 99
8, 18144, Control_c, 6, 11, 100
8, 18153, Control_c, 6, 11, 101
8, 18163, Control_c, 6, 11, 102
8, 18173, Control_c, 6, 11, 103
8, 18182, Control_c, 6, 11, 104
8, 18192, Control_c, 6, 11, 105
8, 18201, Control_c, 6, 11, 106
8, 18211, Control_c, 6, 11, 107
8, 18220, Control_c, 6, 11, 108
8, 18230, Control_c, 6, 11, 109
8, 18240, Note_on_c, 6, 76, 0
8, 18240, Note_on_c, 6, 72, 0
8, 18240, Note_on_c, 6, 74, 100
8, 18240, Note_on_c, 6, 77, 100
8, 18240, Control_c, 6, 11, 110
8, 18249, Control_c, 6, 11, 111
8, 18259, Control_c, 6, 11, 112
8, 18268, Control_c, 6, 11, 113
8, 18278, Control_c, 6, 11, 114
8, 18288, Note_on_c, 6, 77, 0
8, 18288, Note_on_c, 6, 74, 0
8, 18288, Note_on_c, 6, 76, 100
8, 18288, Note_on_c, 6, 79, 100
8, 18288, Control_c, 6, 11, 115
8, 18297, Control_c, 6, 11, 116
8, 18307, Control_c, 6, 11, 117
8, 18316, Control_c, 6, 11, 118
8, 18326, Control_c, 6, 11, 119
8, 18335, Control_c, 6, 11, 120
8, 18336, Note_on_c, 6, 79, 0
8, 18336, Note_on_c, 6, 76, 0
8, 18336, Control_c, 6, 1, 0
8, 18336, Note_on_c, 6, 67, 105
8, 18336, Note_on_c, 6, 79, 105
8, 18360, Note_on_c, 6, 79, 0
8, 18360, Note_on_c, 6, 67, 0
8, 18384, Note_on_c, 6, 64, 100
8, 18384, Note_on_c, 6, 76, 100
8, 18408, Note_on_c, 6, 76, 0
8, 18408, Note_on_c, 6, 64, 0
8, 18432, Note_on_c, 6, 69, 100
8, 18432, Note_on_c, 6, 81, 100
8, 18456, Note_on_c, 6, 81, 0
8, 18456, Note_on_c, 6, 69, 0
8, 18480, Note_on_c, 6, 65, 105
8, 18480, Note_on_c, 6, 77, 105
8, 18504, Note_on_c, 6, 77, 0
8, 18504, Note_on_c, 6, 65, 0
8, 18528, Note_on_c, 6, 62, 100
8, 18528, Note_on_c, 6, 74, 100
8, 18552, Note_on_c, 6, 74, 0
8, 18552, Note_on_c, 6, 62, 0
8, 18576, Note_on_c, 6, 67, 100
8, 18576, Note_on_c, 6, 79, 100
8, 18600, Note_on_c, 6, 79, 0
8, 18600, Note_on_c, 6, 67, 0
8, 18624, Note_on_c, 6, 60, 105
8, 18624, Note_on_c, 6, 72, 105
8, 18648, Note_on_c, 6, 72, 0
8, 18648, Note_on_c, 6, 60, 0
8, 18912, Note_on_c, 6, 67, 105
8, 18912, Note_on_c, 6, 79, 105
8, 18936, Note_on_c, 6, 79, 0
8, 18936, Note_on_c, 6, 67, 0
8, 18960, Note_on_c, 6, 64, 100
8, 18960, Note_on_c, 6, 76, 100
8, 18984, Note_on_c, 6, 76, 0
8, 18984, Note_on_c, 6, 64, 0
8, 19008, Note_on_c, 6, 69, 100
8, 19008, Note_on_c, 6, 81, 100
8, 19032, Note_on_c, 6, 81, 0
8, 19032, Note_on_c, 6, 69, 0
8, 19056, Note_on_c, 6, 65, 105
8, 19056, Note_on_c, 6, 77, 105
8, 19080, Note_on_c, 6, 77, 0
8, 19080, Note_on_c, 6, 65, 0
8, 19104, Note_on_c, 6, 62, 100
8, 19104, Note_on_c, 6, 74, 100
8, 19128, Note_on_c, 6, 74, 0
8, 19128, Note_on_c, 6, 62, 0
8, 19152, Note_on_c, 6, 67, 100
8, 19152, Note_on_c, 6, 79, 100
8, 19176, Note_on_c, 6, 79, 0
8, 19176, Note_on_c, 6, 67, 0
8, 19200, Note_on_c, 6, 67, 105
8, 19200, Note_on_c, 6, 79, 105
8, 19224, Note_on_c, 6, 79, 0
8, 19224, Note_on_c, 6, 67, 0
8, 19248, Note_on_c, 6, 67, 100
8, 19248, Note_on_c, 6, 79, 100
8, 19272, Note_on_c, 6, 79, 0
8, 19272, Note_on_c, 6, 67, 0
8, 19296, Note_on_c, 6, 67, 100
8, 19296, Note_on_c, 6, 79, 100
8, 19320, Note_on_c, 6, 79, 0
8, 19320, Note_on_c, 6, 67, 0
8, 19344, Note_on_c, 6, 67, 105
8, 19344, Note_on_c, 6, 79, 105
8, 19368, Note_on_c, 6, 79, 0
8, 19368, Note_on_c, 6, 67, 0
8, 19392, Note_on_c, 6, 67, 100
8, 19392, Note_on_c, 6, 79, 100
8, 19416, Note_on_c, 6, 79, 0
8, 19416, Note_on_c, 6, 67, 0
8, 19440, Note_on_c, 6, 67, 100
8, 19440, Note_on_c, 6, 79, 100
8, 19464, Note_on_c, 6, 79, 0
8, 19464, Note_on_c, 6, 67, 0
8, 19488, Note_on_c, 6, 76, 105
8, 19488, Note_on_c, 6, 84, 105
8, 19512, Note_on_c, 6, 84, 0
8, 19512, Note_on_c, 6, 76, 0
8, 19536, Note_on_c, 6, 76, 100
8, 19536, Note_on_c, 6, 79, 100
8, 19560, Note_on_c, 6, 79, 0
8, 19560, Note_on_c, 6, 76, 0
8, 19584, Note_on_c, 6, 76, 100
8, 19584, Note_on_c, 6, 84, 100
8, 19608, Note_on_c, 6, 84, 0
8, 19608, Note_on_c, 6, 76, 0
8, 19632, Note_on_c, 6, 77, 105
8, 19632, Note_on_c, 6, 86, 105
8, 19656, Note_on_c, 6, 86, 0
8, 19656, Note_on_c, 6, 77, 0
8, 19680, Note_on_c, 6, 77, 100
8, 19680, Note_on_c, 6, 79, 100
8, 19704, Note_on_c, 6, 79, 0
8, 19704, Note_on_c, 6, 77, 0
8, 19728, Note_on_c, 6, 77, 100
8, 19728, Note_on_c, 6, 86, 100
8, 19752, Note_on_c, 6, 86, 0
8, 19752, Note_on_c, 6, 77, 0
8, 19776, Note_on_c, 6, 76, 105
8, 19776, Note_on_c, 6, 84, 105
8, 19800, Note_on_c, 6, 84, 0
8, 19800, Note_on_c, 6, 76, 0
8, 19824, Note_on_c, 6, 76, 100
8, 19824, Note_on_c, 6, 79, 100
8, 19848, Note_on_c, 6, 79, 0
8, 19848, Note_on_c, 6, 76, 0
8, 19872, Note_on_c, 6, 76, 100
8, 19872, Note_on_c, 6, 84, 100
8, 19896, Note_on_c, 6, 84, 0
8, 19896, Note_on_c, 6, 76, 0
8, 19920, Note_on_c, 6, 77, 105
8, 19920, Note_on_c, 6, 86, 105
8, 19944, Note_on_c, 6, 86, 0
8, 19944, Note_on_c, 6, 77, 0
8, 19968, Note_on_c, 6, 77, 100
8, 19968, Note_on_c, 6, 79, 100
8, 19992, Note_on_c, 6, 79, 0
8, 19992, Note_on_c, 6, 77, 0
8, 20016, Note_on_c, 6, 77, 100
8, 20016, Note_on_c, 6, 86, 100
8, 20040, Note_on_c, 6, 86, 0
8, 20040, Note_on_c, 6, 77, 0
8, 20208, Control_c, 6, 1, 0
8, 20208, Note_on_c, 6, 72, 47
8, 20209, Control_c, 6, 1, 2
8, 20210, Control_c, 6, 1, 3
8, 20211, Control_c, 6, 1, 4
8, 20212, Control_c, 6, 1, 5
8, 20213, Control_c, 6, 1, 6
8, 20214, Control_c, 6, 1, 7
8, 20216, Control_c, 6, 1, 8
8, 20217, Control_c, 6, 1, 9
8, 20219, Control_c, 6, 1, 10
8, 20220, Control_c, 6, 1, 11
8, 20222, Control_c, 6, 1, 12
8, 20224, Control_c, 6, 1, 13
8, 20226, Control_c, 6, 1, 14
8, 20229, Control_c, 6, 1, 15
8, 20232, Control_c, 6, 1, 16
8, 20236, Control_c, 6, 1, 17
8, 20240, Control_c, 6, 1, 18
8, 20247, Control_c, 6, 1, 19
8, 20256, Note_on_c, 6, 72, 0
8, 20256, Note_on_c, 6, 74, 49
8, 20259, Control_c, 6, 1, 20
8, 20304, Note_on_c, 6, 74, 0
8, 20304, Note_on_c, 6, 76, 51
8, 20352, Note_on_c, 6, 76, 0
8, 20352, Note_on_c, 6, 77, 52
8, 20400, Note_on_c, 6, 77, 0
8, 20400, Note_on_c, 6, 76, 51
8, 20448, Note_on_c, 6, 76, 0
8, 20448, Note_on_c, 6, 77, 52
8, 20496, Note_on_c, 6, 77, 0
8, 20496, Note_on_c, 6, 79, 54
8, 20544, Note_on_c, 6, 79, 0
8, 20544, Note_on_c, 6, 81, 56
8, 20592, Note_on_c, 6, 81, 0
8, 20592, Note_on_c, 6, 83, 48
8, 20640, Note_on_c, 6, 83, 0
8, 20640, Note_on_c, 6, 84, 59
8, 20664, Note_on_c, 6, 84, 0
8, 20784, Control_c, 6, 1, 0
8, 20784, Note_on_c, 6, 72, 55
8, 20819, Note_on_c, 6, 72, 0
8, 20856, Note_on_c, 6, 72, 50
8, 20868, Note_on_c, 6, 72, 0
8, 20880, Note_on_c, 6, 72, 50
8, 20904, Note_on_c, 6, 72, 0
8, 20928, Note_on_c, 6, 72, 50
8, 20952, Note_on_c, 6, 72, 0
8, 21072, Note_on_c, 6, 74, 55
8, 21107, Note_on_c, 6, 74, 0
8, 21144, Note_on_c, 6, 74, 50
8, 21156, Note_on_c, 6, 74, 0
8, 21168, Note_on_c, 6, 74, 50
8, 21192, Note_on_c, 6, 74, 0
8, 21216, Note_on_c, 6, 74, 50
8, 21240, Note_on_c, 6, 74, 0
8, 21792, Note_on_c, 6, 81, 50
8, 21816, Note_on_c, 6, 81, 0
8, 21936, Note_on_c, 6, 74, 50
8, 21960, Note_on_c, 6, 74, 0
8, 22080, Note_on_c, 6, 76, 50
8, 22104, Note_on_c, 6, 76, 0
8, 22224, Note_on_c, 6, 77, 50
8, 22248, Note_on_c, 6, 77, 0
8, 22368, Note_on_c, 6, 77, 50
8, 22392, Note_on_c, 6, 77, 0
8, 22512, Note_on_c, 6, 72, 50
8, 22536, Note_on_c, 6, 72, 0
8, 22656, Note_on_c, 6, 68, 50
8, 22680, Note_on_c, 6, 68, 0
8, 22800, Note_on_c, 6, 69, 50
8, 22824, Note_on_c, 6, 69, 0
8, 22944, Note_on_c, 6, 67, 50
8, 22968, Note_on_c, 6, 67, 0
8, 23088, Note_on_c, 6, 62, 50
8, 23112, Note_on_c, 6, 62, 0
8, 23232, Note_on_c, 6, 69, 50
8, 23256, Note_on_c, 6, 69, 0
8, 23376, Note_on_c, 6, 69, 50
8, 23400, Note_on_c, 6, 69, 0
8, 23520, Note_on_c, 6, 74, 50
8, 23544, Note_on_c, 6, 74, 0
8, 23664, Note_on_c, 6, 76, 50
8, 23688, Note_on_c, 6, 76, 0
8, 23808, Note_on_c, 6, 76, 50
8, 23832, Note_on_c, 6, 76, 0
8, 23952, Note_on_c, 6, 76, 50
8, 23976, Note_on_c, 6, 76, 0
8, 24096, Note_on_c, 6, 79, 50
8, 24120, Note_on_c, 6, 79, 0
8, 24240, Note_on_c, 6, 77, 50
8, 24264, Note_on_c, 6, 77, 0
8, 24384, Note_on_c, 6, 81, 50
8, 24408, Note_on_c, 6, 81, 0
8, 24528, Note_on_c, 6, 81, 50
8, 24552, Note_on_c, 6, 81, 0
8, 24672, Note_on_c, 6, 81, 50
8, 24696, Note_on_c, 6, 81, 0
8, 24816, Note_on_c, 6, 81, 50
8, 24840, Note_on_c, 6, 81, 0
8, 24960, Note_on_c, 6, 83, 50
8, 24984, Note_on_c, 6, 83, 0
8, 25104, Note_on_c, 6, 76, 50
8, 25128, Note_on_c, 6, 76, 0
8, 25248, Note_on_c, 6, 81, 55
8, 25272, Note_on_c, 6, 81, 0
8, 25296, Note_on_c, 6, 81, 50
8, 25320, Note_on_c, 6, 81, 0
8, 25344, Note_on_c, 6, 81, 50
8, 25368, Note_on_c, 6, 81, 0
8, 25392, Note_on_c, 6, 81, 55
8, 25416, Note_on_c, 6, 81, 0
8, 25440, Note_on_c, 6, 81, 50
8, 25464, Note_on_c, 6, 81, 0
8, 25488, Note_on_c, 6, 81, 50
8, 25512, Note_on_c, 6, 81, 0
8, 25536, Note_on_c, 6, 82, 55
8, 25560, Note_on_c, 6, 82, 0
8, 25584, Note_on_c, 6, 81, 50
8, 25608, Note_on_c, 6, 81, 0
8, 25632, Note_on_c, 6, 79, 50
8, 25656, Note_on_c, 6, 79, 0
8, 25680, Note_on_c, 6, 77, 55
8, 25704, Note_on_c, 6, 77, 0
8, 25728, Note_on_c, 6, 76, 50
8, 25752, Note_on_c, 6, 76, 0
8, 25776, Note_on_c, 6, 74, 50
8, 25800, Note_on_c, 6, 74, 0
8, 25824, Note_on_c, 6, 74, 50
8, 25824, Note_on_c, 6, 77, 50
8, 25848, Note_on_c, 6, 77, 0
8, 25848, Note_on_c, 6, 74, 0
8, 25968, Note_on_c, 6, 69, 50
8, 25968, Note_on_c, 6, 72, 50
8, 25992, Note_on_c, 6, 72, 0
8, 25992, Note_on_c, 6, 69, 0
8, 26112, Note_on_c, 6, 71, 50
8, 26112, Note_on_c, 6, 74, 50
8, 26136, Note_on_c, 6, 74, 0
8, 26136, Note_on_c, 6, 71, 0
8, 26256, Note_on_c, 6, 72, 50
8, 26256, Note_on_c, 6, 76, 50
8, 26280, Note_on_c, 6, 76, 0
8, 26280, Note_on_c, 6, 72, 0
8, 26400, Note_on_c, 6, 73, 55
8, 26424, Note_on_c, 6, 73, 0
8, 26448, Note_on_c, 6, 74, 50
8, 26472, Note_on_c, 6, 74, 0
8, 26496, Note_on_c, 6, 76, 50
8, 26520, Note_on_c, 6, 76, 0
8, 26544, Note_on_c, 6, 77, 55
8, 26568, Note_on_c, 6, 77, 0
8, 26592, Note_on_c, 6, 79, 50
8, 26616, Note_on_c, 6, 79, 0
8, 26640, Note_on_c, 6, 81, 50
8, 26664, Note_on_c, 6, 81, 0
8, 26688, Note_on_c, 6, 82, 55
8, 26712, Note_on_c, 6, 82, 0
8, 26736, Note_on_c, 6, 81, 50
8, 26760, Note_on_c, 6, 81, 0
8, 26784, Note_on_c, 6, 79, 50
8, 26808, Note_on_c, 6, 79, 0
8, 26832, Note_on_c, 6, 77, 55
8, 26856, Note_on_c, 6, 77, 0
8, 26880, Note_on_c, 6, 76, 50
8, 26904, Note_on_c, 6, 76, 0
8, 26928, Note_on_c, 6, 74, 50
8, 26952, Note_on_c, 6, 74, 0
8, 26976, Note_on_c, 6, 73, 50
8, 27000, Note_on_c, 6, 73, 0
8, 27024, Note_on_c, 6, 74, 51
8, 27048, Note_on_c, 6, 74, 0
8, 27072, Note_on_c, 6, 76, 53
8, 27096, Note_on_c, 6, 76, 0
8, 27120, Note_on_c, 6, 74, 55
8, 27144, Note_on_c, 6, 74, 0
8, 27168, Note_on_c, 6, 73, 56
8, 27192, Note_on_c, 6, 73, 0
8, 27216, Note_on_c, 6, 74, 58
8, 27240, Note_on_c, 6, 74, 0
8, 27264, Note_on_c, 6, 73, 60
8, 27288, Note_on_c, 6, 73, 0
8, 27312, Note_on_c, 6, 74, 61
8, 27336, Note_on_c, 6, 74, 0
8, 27360, Note_on_c, 6, 76, 63
8, 27384, Note_on_c, 6, 76, 0
8, 27408, Note_on_c, 6, 74, 65
8, 27432, Note_on_c, 6, 74, 0
8, 27456, Note_on_c, 6, 73, 66
8, 27480, Note_on_c, 6, 73, 0
8, 27504, Note_on_c, 6, 74, 68
8, 27528, Note_on_c, 6, 74, 0
8, 27552, Note_on_c, 6, 73, 70
8, 27576, Note_on_c, 6, 73, 0
8, 27600, Note_on_c, 6, 74, 71
8, 27624, Note_on_c, 6, 74, 0
8, 27648, Note_on_c, 6, 76, 73
8, 27672, Note_on_c, 6, 76, 0
8, 27696, Note_on_c, 6, 74, 75
8, 27720, Note_on_c, 6, 74, 0
8, 27744, Note_on_c, 6, 73, 77
8, 27768, Note_on_c, 6, 73, 0
8, 27792, Note_on_c, 6, 74, 78
8, 27816, Note_on_c, 6, 74, 0
8, 27840, Note_on_c, 6, 73, 80
8, 27840, Note_on_c, 6, 76, 80
8, 27864, Note_on_c, 6, 76, 0
8, 27864, Note_on_c, 6, 73, 0
8, 27888, Note_on_c, 6, 74, 82
8, 27888, Note_on_c, 6, 77, 82
8, 27912, Note_on_c, 6, 77, 0
8, 27912, Note_on_c, 6, 74, 0
8, 27936, Note_on_c, 6, 76, 83
8, 27936, Note_on_c, 6, 79, 83
8, 27960, Note_on_c, 6, 79, 0
8, 27960, Note_on_c, 6, 76, 0
8, 27984, Note_on_c, 6, 74, 85
8, 27984, Note_on_c, 6, 77, 85
8, 28008, Note_on_c, 6, 77, 0
8, 28008, Note_on_c, 6, 74, 0
8, 28032, Note_on_c, 6, 73, 87
8, 28032, Note_on_c, 6, 76, 87
8, 28056, Note_on_c, 6, 76, 0
8, 28056, Note_on_c, 6, 73, 0
8, 28080, Note_on_c, 6, 74, 88
8, 28080, Note_on_c, 6, 77, 88
8, 28104, Note_on_c, 6, 77, 0
8, 28104, Note_on_c, 6, 74, 0
8, 28128, Note_on_c, 6, 73, 90
8, 28128, Note_on_c, 6, 76, 90
8, 28152, Note_on_c, 6, 76, 0
8, 28152, Note_on_c, 6, 73, 0
8, 28176, Note_on_c, 6, 74, 92
8, 28176, Note_on_c, 6, 77, 92
8, 28200, Note_on_c, 6, 77, 0
8, 28200, Note_on_c, 6, 74, 0
8, 28224, Note_on_c, 6, 76, 93
8, 28224, Note_on_c, 6, 79, 93
8, 28248, Note_on_c, 6, 79, 0
8, 28248, Note_on_c, 6, 76, 0
8, 28272, Note_on_c, 6, 74, 95
8, 28272, Note_on_c, 6, 77, 95
8, 28296, Note_on_c, 6, 77, 0
8, 28296, Note_on_c, 6, 74, 0
8, 28320, Note_on_c, 6, 73, 97
8, 28320, Note_on_c, 6, 76, 97
8, 28344, Note_on_c, 6, 76, 0
8, 28344, Note_on_c, 6, 73, 0
8, 28368, Note_on_c, 6, 74, 98
8, 28368, Note_on_c, 6, 77, 98
8, 28392, Note_on_c, 6, 77, 0
8, 28392, Note_on_c, 6, 74, 0
8, 28416, Note_on_c, 6, 73, 100
8, 28416, Note_on_c, 6, 76, 100
8, 28440, Note_on_c, 6, 76, 0
8, 28440, Note_on_c, 6, 73, 0
8, 28464, Note_on_c, 6, 74, 102
8, 28464, Note_on_c, 6, 77, 102
8, 28488, Note_on_c, 6, 77, 0
8, 28488, Note_on_c, 6, 74, 0
8, 28512, Note_on_c, 6, 76, 104
8, 28512, Note_on_c, 6, 79, 104
8, 28536, Note_on_c, 6, 79, 0
8, 28536, Note_on_c, 6, 76, 0
8, 28560, Note_on_c, 6, 73, 105
8, 28560, Note_on_c, 6, 76, 105
8, 28584, Note_on_c, 6, 76, 0
8, 28584, Note_on_c, 6, 73, 0
8, 28608, Note_on_c, 6, 74, 107
8, 28608, Note_on_c, 6, 77, 107
8, 28632, Note_on_c, 6, 77, 0
8, 28632, Note_on_c, 6, 74, 0
8, 28656, Note_on_c, 6, 76, 109
8, 28656, Note_on_c, 6, 79, 109
8, 28680, Note_on_c, 6, 79, 0
8, 28680, Note_on_c, 6, 76, 0
8, 28704, Note_on_c, 6, 77, 115
8, 28704, Note_on_c, 6, 81, 115
8, 28739, Note_on_c, 6, 81, 0
8, 28739, Note_on_c, 6, 77, 0
8, 28776, Note_on_c, 6, 69, 110
8, 28788, Note_on_c, 6, 69, 0
8, 28800, Note_on_c, 6, 69, 110
8, 28824, Note_on_c, 6, 69, 0
8, 28848, Note_on_c, 6, 74, 115
8, 28848, Note_on_c, 6, 81, 115
8, 28872, Note_on_c, 6, 81, 0
8, 28872, Note_on_c, 6, 74, 0
8, 28896, Note_on_c, 6, 76, 110
8, 28896, Note_on_c, 6, 81, 110
8, 28920, Note_on_c, 6, 81, 0
8, 28920, Note_on_c, 6, 76, 0
8, 28944, Note_on_c, 6, 77, 110
8, 28944, Note_on_c, 6, 81, 110
8, 28968, Note_on_c, 6, 81, 0
8, 28968, Note_on_c, 6, 77, 0
8, 28992, Note_on_c, 6, 76, 115
8, 28992, Note_on_c, 6, 81, 115
8, 29016, Note_on_c, 6, 81, 0
8, 29016, Note_on_c, 6, 76, 0
8, 29040, Note_on_c, 6, 77, 110
8, 29040, Note_on_c, 6, 81, 110
8, 29064, Note_on_c, 6, 81, 0
8, 29064, Note_on_c, 6, 77, 0
8, 29088, Note_on_c, 6, 79, 110
8, 29088, Note_on_c, 6, 81, 110
8, 29112, Note_on_c, 6, 81, 0
8, 29112, Note_on_c, 6, 79, 0
8, 29136, Note_on_c, 6, 77, 115
8, 29136, Note_on_c, 6, 81, 115
8, 29160, Note_on_c, 6, 81, 0
8, 29160, Note_on_c, 6, 77, 0
8, 29184, Note_on_c, 6, 76, 110
8, 29184, Note_on_c, 6, 81, 110
8, 29208, Note_on_c, 6, 81, 0
8, 29208, Note_on_c, 6, 76, 0
8, 29232, Note_on_c, 6, 74, 110
8, 29232, Note_on_c, 6, 81, 110
8, 29256, Note_on_c, 6, 81, 0
8, 29256, Note_on_c, 6, 74, 0
8, 29280, Note_on_c, 6, 74, 115
8, 29280, Note_on_c, 6, 82, 115
8, 29304, Note_on_c, 6, 82, 0
8, 29304, Note_on_c, 6, 74, 0
8, 29328, Note_on_c, 6, 74, 110
8, 29328, Note_on_c, 6, 81, 110
8, 29352, Note_on_c, 6, 81, 0
8, 29352, Note_on_c, 6, 74, 0
8, 29376, Note_on_c, 6, 74, 110
8, 29376, Note_on_c, 6, 79, 110
8, 29400, Note_on_c, 6, 79, 0
8, 29400, Note_on_c, 6, 74, 0
8, 29424, Note_on_c, 6, 69, 115
8, 29424, Note_on_c, 6, 77, 115
8, 29448, Note_on_c, 6, 77, 0
8, 29448, Note_on_c, 6, 69, 0
8, 29472, Note_on_c, 6, 76, 110
8, 29472, Note_on_c, 6, 81, 110
8, 29496, Note_on_c, 6, 81, 0
8, 29496, Note_on_c, 6, 76, 0
8, 29520, Note_on_c, 6, 74, 110
8, 29520, Note_on_c, 6, 81, 110
8, 29544, Note_on_c, 6, 81, 0
8, 29544, Note_on_c, 6, 74, 0
8, 29568, Note_on_c, 6, 73, 115
8, 29568, Note_on_c, 6, 81, 115
8, 29592, Note_on_c, 6, 81, 0
8, 29592, Note_on_c, 6, 73, 0
8, 29616, Note_on_c, 6, 74, 110
8, 29616, Note_on_c, 6, 81, 110
8, 29640, Note_on_c, 6, 81, 0
8, 29640, Note_on_c, 6, 74, 0
8, 29664, Note_on_c, 6, 76, 110
8, 29664, Note_on_c, 6, 81, 110
8, 29688, Note_on_c, 6, 81, 0
8, 29688, Note_on_c, 6, 76, 0
8, 29712, Note_on_c, 6, 74, 115
8, 29712, Note_on_c, 6, 81, 115
8, 29736, Note_on_c, 6, 81, 0
8, 29736, Note_on_c, 6, 74, 0
8, 29760, Note_on_c, 6, 73, 110
8, 29760, Note_on_c, 6, 81, 110
8, 29784, Note_on_c, 6, 81, 0
8, 29784, Note_on_c, 6, 73, 0
8, 29808, Note_on_c, 6, 74, 110
8, 29808, Note_on_c, 6, 81, 110
8, 29832, Note_on_c, 6, 81, 0
8, 29832, Note_on_c, 6, 74, 0
8, 29856, Note_on_c, 6, 74, 115
8, 29856, Note_on_c, 6, 82, 115
8, 29880, Note_on_c, 6, 82, 0
8, 29880, Note_on_c, 6, 74, 0
8, 29904, Note_on_c, 6, 74, 110
8, 29904, Note_on_c, 6, 81, 110
8, 29928, Note_on_c, 6, 81, 0
8, 29928, Note_on_c, 6, 74, 0
8, 29952, Note_on_c, 6, 74, 110
8, 29952, Note_on_c, 6, 79, 110
8, 29976, Note_on_c, 6, 79, 0
8, 29976, Note_on_c, 6, 74, 0
8, 30000, Note_on_c, 6, 69, 115
8, 30000, Note_on_c, 6, 77, 115
8, 30024, Note_on_c, 6, 77, 0
8, 30024, Note_on_c, 6, 69, 0
8, 30048, Note_on_c, 6, 69, 110
8, 30048, Note_on_c, 6, 76, 110
8, 30072, Note_on_c, 6, 76, 0
8, 30072, Note_on_c, 6, 69, 0
8, 30096, Note_on_c, 6, 69, 110
8, 30096, Note_on_c, 6, 74, 110
8, 30120, Note_on_c, 6, 74, 0
8, 30120, Note_on_c, 6, 69, 0
8, 30144, Note_on_c, 6, 73, 115
8, 30144, Note_on_c, 6, 81, 115
8, 30168, Note_on_c, 6, 81, 0
8, 30168, Note_on_c, 6, 73, 0
8, 30192, Note_on_c, 6, 74, 110
8, 30192, Note_on_c, 6, 81, 110
8, 30216, Note_on_c, 6, 81, 0
8, 30216, Note_on_c, 6, 74, 0
8, 30240, Note_on_c, 6, 76, 110
8, 30240, Note_on_c, 6, 81, 110
8, 30264, Note_on_c, 6, 81, 0
8, 30264, Note_on_c, 6, 76, 0
8, 30288, Note_on_c, 6, 69, 115
8, 30288, Note_on_c, 6, 81, 115
8, 30312, Note_on_c, 6, 81, 0
8, 30312, Note_on_c, 6, 69, 0
8, 30336, Note_on_c, 6, 77, 110
8, 30336, Note_on_c, 6, 81, 110
8, 30360, Note_on_c, 6, 81, 0
8, 30360, Note_on_c, 6, 77, 0
8, 30384, Note_on_c, 6, 77, 110
8, 30384, Note_on_c, 6, 83, 110
8, 30408, Note_on_c, 6, 83, 0
8, 30408, Note_on_c, 6, 77, 0
8, 30432, Note_on_c, 6, 77, 115
8, 30432, Note_on_c, 6, 83, 115
8, 30456, Note_on_c, 6, 83, 0
8, 30456, Note_on_c, 6, 77, 0
8, 30480, Note_on_c, 6, 71, 110
8, 30480, Note_on_c, 6, 77, 110
8, 30504, Note_on_c, 6, 77, 0
8, 30504, Note_on_c, 6, 71, 0
8, 30528, Note_on_c, 6, 74, 110
8, 30528, Note_on_c, 6, 77, 110
8, 30552, Note_on_c, 6, 77, 0
8, 30552, Note_on_c, 6, 74, 0
8, 30576, Note_on_c, 6, 67, 115
8, 30576, Note_on_c, 6, 76, 115
8, 30600, Note_on_c, 6, 76, 0
8, 30600, Note_on_c, 6, 67, 0
8, 30624, Note_on_c, 6, 74, 110
8, 30624, Note_on_c, 6, 79, 110
8, 30648, Note_on_c, 6, 79, 0
8, 30648, Note_on_c, 6, 74, 0
8, 30672, Note_on_c, 6, 72, 110
8, 30672, Note_on_c, 6, 79, 110
8, 30696, Note_on_c, 6, 79, 0
8, 30696, Note_on_c, 6, 72, 0
8, 30720, Note_on_c, 6, 71, 115
8, 30720, Note_on_c, 6, 79, 115
8, 30744, Note_on_c, 6, 79, 0
8, 30744, Note_on_c, 6, 71, 0
8, 30768, Note_on_c, 6, 72, 110
8, 30768, Note_on_c, 6, 79, 110
8, 30792, Note_on_c, 6, 79, 0
8, 30792, Note_on_c, 6, 72, 0
8, 30816, Note_on_c, 6, 74, 110
8, 30816, Note_on_c, 6, 79, 110
8, 30840, Note_on_c, 6, 79, 0
8, 30840, Note_on_c, 6, 74, 0
8, 30864, Note_on_c, 6, 72, 115
8, 30864, Note_on_c, 6, 79, 115
8, 30888, Note_on_c, 6, 79, 0
8, 30888, Note_on_c, 6, 72, 0
8, 30912, Note_on_c, 6, 71, 110
8, 30912, Note_on_c, 6, 81, 110
8, 30936, Note_on_c, 6, 81, 0
8, 30936, Note_on_c, 6, 71, 0
8, 30960, Note_on_c, 6, 71, 110
8, 30960, Note_on_c, 6, 81, 110
8, 30984, Note_on_c, 6, 81, 0
8, 30984, Note_on_c, 6, 71, 0
8, 31008, Note_on_c, 6, 71, 115
8, 31008, Note_on_c, 6, 81, 115
8, 31032, Note_on_c, 6, 81, 0
8, 31032, Note_on_c, 6, 71, 0
8, 31056, Note_on_c, 6, 71, 110
8, 31056, Note_on_c, 6, 79, 110
8, 31080, Note_on_c, 6, 79, 0
8, 31080, Note_on_c, 6, 71, 0
8, 31104, Note_on_c, 6, 74, 110
8, 31104, Note_on_c, 6, 77, 110
8, 31128, Note_on_c, 6, 77, 0
8, 31128, Note_on_c, 6, 74, 0
8, 31152, Note_on_c, 6, 72, 115
8, 31152, Note_on_c, 6, 76, 115
8, 31176, Note_on_c, 6, 76, 0
8, 31176, Note_on_c, 6, 72, 0
8, 31200, Note_on_c, 6, 71, 110
8, 31200, Note_on_c, 6, 79, 110
8, 31224, Note_on_c, 6, 79, 0
8, 31224, Note_on_c, 6, 71, 0
8, 31248, Note_on_c, 6, 72, 110
8, 31248, Note_on_c, 6, 79, 110
8, 31272, Note_on_c, 6, 79, 0
8, 31272, Note_on_c, 6, 72, 0
8, 31296, Note_on_c, 6, 76, 115
8, 31296, Note_on_c, 6, 79, 115
8, 31320, Note_on_c, 6, 79, 0
8, 31320, Note_on_c, 6, 76, 0
8, 31344, Note_on_c, 6, 74, 110
8, 31344, Note_on_c, 6, 79, 110
8, 31368, Note_on_c, 6, 79, 0
8, 31368, Note_on_c, 6, 74, 0
8, 31392, Note_on_c, 6, 72, 110
8, 31392, Note_on_c, 6, 79, 110
8, 31416, Note_on_c, 6, 79, 0
8, 31416, Note_on_c, 6, 72, 0
8, 31440, Note_on_c, 6, 76, 115
8, 31440, Note_on_c, 6, 79, 115
8, 31464, Note_on_c, 6, 79, 0
8, 31464, Note_on_c, 6, 76, 0
8, 31488, Note_on_c, 6, 74, 110
8, 31488, Note_on_c, 6, 79, 110
8, 31512, Note_on_c, 6, 79, 0
8, 31512, Note_on_c, 6, 74, 0
8, 31536, Note_on_c, 6, 72, 110
8, 31536, Note_on_c, 6, 79, 110
8, 31560, Note_on_c, 6, 79, 0
8, 31560, Note_on_c, 6, 72, 0
8, 31584, Control_c, 6, 1, 0
8, 31584, Note_on_c, 6, 79, 110
8, 31585, Control_c, 6, 1, 1
8, 31586, Control_c, 6, 1, 2
8, 31587, Control_c, 6, 1, 3
8, 31588, Control_c, 6, 1, 4
8, 31590, Control_c, 6, 1, 5
8, 31592, Control_c, 6, 1, 6
8, 31594, Control_c, 6, 1, 7
8, 31595, Control_c, 6, 1, 8
8, 31598, Control_c, 6, 1, 9
8, 31600, Control_c, 6, 1, 10
8, 31603, Control_c, 6, 1, 11
8, 31605, Control_c, 6, 1, 12
8, 31608, Control_c, 6, 11, 60
8, 31608, Control_c, 6, 1, 13
8, 31612, Control_c, 6, 1, 14
8, 31616, Control_c, 6, 1, 15
8, 31621, Control_c, 6, 1, 16
8, 31626, Control_c, 6, 11, 61
8, 31626, Control_c, 6, 1, 17
8, 31633, Control_c, 6, 1, 18
8, 31643, Control_c, 6, 11, 62
8, 31644, Control_c, 6, 1, 19
8, 31661, Control_c, 6, 11, 63
8, 31662, Control_c, 6, 1, 20
8, 31678, Control_c, 6, 11, 64
8, 31695, Control_c, 6, 11, 65
8, 31713, Control_c, 6, 11, 66
8, 31730, Control_c, 6, 11, 67
8, 31747, Control_c, 6, 11, 68
8, 31765, Control_c, 6, 11, 69
8, 31782, Control_c, 6, 11, 70
8, 31800, Control_c, 6, 11, 71
8, 31817, Control_c, 6, 11, 72
8, 31834, Control_c, 6, 11, 73
8, 31852, Control_c, 6, 11, 74
8, 31869, Control_c, 6, 11, 75
8, 31872, Note_on_c, 6, 81, 110
8, 31886, Control_c, 6, 11, 76
8, 31904, Control_c, 6, 11, 77
8, 31921, Control_c, 6, 11, 78
8, 31939, Control_c, 6, 11, 79
8, 31956, Control_c, 6, 11, 80
8, 31973, Control_c, 6, 11, 81
8, 31991, Control_c, 6, 11, 82
8, 32008, Control_c, 6, 11, 83
8, 32016, Note_on_c, 6, 77, 110
8, 32017, Note_on_c, 6, 79, 0
8, 32025, Control_c, 6, 11, 84
8, 32043, Control_c, 6, 11, 85
8, 32060, Control_c, 6, 11, 86
8, 32078, Control_c, 6, 11, 87
8, 32095, Control_c, 6, 11, 88
8, 32112, Control_c, 6, 11, 89
8, 32130, Control_c, 6, 11, 90
8, 32147, Control_c, 6, 11, 91
8, 32160, Note_on_c, 6, 80, 110
8, 32161, Note_on_c, 6, 81, 0
8, 32164, Control_c, 6, 11, 92
8, 32182, Control_c, 6, 11, 93
8, 32199, Control_c, 6, 11, 94
8, 32217, Control_c, 6, 11, 95
8, 32234, Control_c, 6, 11, 96
8, 32251, Control_c, 6, 11, 97
8, 32269, Control_c, 6, 11, 98
8, 32286, Control_c, 6, 11, 99
8, 32303, Control_c, 6, 11, 100
8, 32304, Control_c, 6, 11, 100
8, 32304, Note_on_c, 6, 76, 110
8, 32304, Note_on_c, 6, 79, 110
8, 32305, Note_on_c, 6, 80, 0
8, 32305, Note_on_c, 6, 77, 0
8, 32315, Control_c, 6, 11, 99
8, 32326, Control_c, 6, 11, 98
8, 32337, Control_c, 6, 11, 97
8, 32348, Control_c, 6, 11, 96
8, 32358, Control_c, 6, 11, 95
8, 32369, Control_c, 6, 11, 94
8, 32380, Control_c, 6, 11, 93
8, 32391, Control_c, 6, 11, 92
8, 32401, Control_c, 6, 11, 91
8, 32412, Control_c, 6, 11, 90
8, 32423, Control_c, 6, 11, 89
8, 32434, Control_c, 6, 11, 88
8, 32445, Control_c, 6, 11, 87
8, 32448, Note_on_c, 6, 75, 110
8, 32449, Note_on_c, 6, 76, 0
8, 32455, Control_c, 6, 11, 86
8, 32466, Control_c, 6, 11, 85
8, 32477, Control_c, 6, 11, 84
8, 32488, Control_c, 6, 11, 83
8, 32498, Control_c, 6, 11, 82
8, 32509, Control_c, 6, 11, 81
8, 32520, Control_c, 6, 11, 80
8, 32531, Control_c, 6, 11, 79
8, 32542, Control_c, 6, 11, 78
8, 32552, Control_c, 6, 11, 77
8, 32563, Control_c, 6, 11, 76
8, 32574, Control_c, 6, 11, 75
8, 32585, Control_c, 6, 11, 74
8, 32592, Note_on_c, 6, 74, 110
8, 32593, Note_on_c, 6, 75, 0
8, 32595, Control_c, 6, 11, 73
8, 32606, Control_c, 6, 11, 72
8, 32617, Control_c, 6, 11, 71
8, 32628, Control_c, 6, 11, 70
8, 32639, Control_c, 6, 11, 69
8, 32649, Control_c, 6, 11, 68
8, 32660, Control_c, 6, 11, 67
8, 32671, Control_c, 6, 11, 66
8, 32682, Control_c, 6, 11, 65
8, 32692, Control_c, 6, 11, 64
8, 32703, Control_c, 6, 11, 63
8, 32714, Control_c, 6, 11, 62
8, 32725, Control_c, 6, 11, 61
8, 32735, Note_on_c, 6, 79, 0
8, 32735, Note_on_c, 6, 74, 0
8, 32735, Control_c, 6, 11, 60
8, 32736, Control_c, 6, 1, 0
8, 32736, Control_c, 6, 11, 60
8, 32736, Note_on_c, 6, 79, 110
8, 32737, Control_c, 6, 1, 1
8, 32738, Control_c, 6, 1, 2
8, 32739, Control_c, 6, 1, 3
8, 32740, Control_c, 6, 1, 4
8, 32742, Control_c, 6, 1, 5
8, 32744, Control_c, 6, 1, 6
8, 32745, Control_c, 6, 1, 7
8, 32747, Control_c, 6, 1, 8
8, 32749, Control_c, 6, 1, 9
8, 32752, Control_c, 6, 1, 10
8, 32754, Control_c, 6, 1, 11
8, 32756, Control_c, 6, 11, 61
8, 32757, Control_c, 6, 1, 12
8, 32760, Control_c, 6, 1, 13
8, 32763, Control_c, 6, 1, 14
8, 32767, Control_c, 6, 1, 15
8, 32772, Control_c, 6, 1, 16
8, 32775, Control_c, 6, 11, 62
8, 32777, Control_c, 6, 1, 17
8, 32785, Control_c, 6, 1, 18
8, 32794, Control_c, 6, 11, 63
8, 32795, Control_c, 6, 1, 19
8, 32813, Control_c, 6, 11, 64
8, 32813, Control_c, 6, 1, 20
8, 32832, Control_c, 6, 11, 65
8, 32852, Control_c, 6, 11, 66
8, 32871, Control_c, 6, 11, 67
8, 32890, Control_c, 6, 11, 68
8, 32909, Control_c, 6, 11, 69
8, 32928, Control_c, 6, 11, 70
8, 32948, Control_c, 6, 11, 71
8, 32967, Control_c, 6, 11, 72
8, 32986, Control_c, 6, 11, 73
8, 33005, Control_c, 6, 11, 74
8, 33024, Note_on_c, 6, 81, 110
8, 33024, Control_c, 6, 11, 75
8, 33043, Control_c, 6, 11, 76
8, 33063, Control_c, 6, 11, 77
8, 33082, Control_c, 6, 11, 78
8, 33101, Control_c, 6, 11, 79
8, 33120, Control_c, 6, 11, 80
8, 33139, Control_c, 6, 11, 81
8, 33159, Control_c, 6, 11, 82
8, 33168, Note_on_c, 6, 77, 110
8, 33169, Note_on_c, 6, 79, 0
8, 33178, Control_c, 6, 11, 83
8, 33197, Control_c, 6, 11, 84
8, 33216, Control_c, 6, 11, 85
8, 33235, Control_c, 6, 11, 86
8, 33254, Control_c, 6, 11, 87
8, 33274, Control_c, 6, 11, 88
8, 33293, Control_c, 6, 11, 89
8, 33312, Note_on_c, 6, 71, 110
8, 33312, Note_on_c, 6, 80, 110
8, 33312, Control_c, 6, 11, 90
8, 33313, Note_on_c, 6, 81, 0
8, 33313, Note_on_c, 6, 77, 0
8, 33331, Control_c, 6, 11, 91
8, 33350, Control_c, 6, 11, 92
8, 33370, Control_c, 6, 11, 93
8, 33389, Control_c, 6, 11, 94
8, 33408, Control_c, 6, 11, 95
8, 33427, Control_c, 6, 11, 96
8, 33446, Control_c, 6, 11, 97
8, 33456, Note_on_c, 6, 72, 110
8, 33456, Note_on_c, 6, 79, 110
8, 33457, Note_on_c, 6, 80, 0
8, 33457, Note_on_c, 6, 71, 0
8, 33465, Control_c, 6, 11, 98
8, 33485, Control_c, 6, 11, 99
8, 33504, Control_c, 6, 11, 100
8, 33523, Control_c, 6, 11, 101
8, 33542, Control_c, 6, 11, 102
8, 33561, Control_c, 6, 11, 103
8, 33581, Control_c, 6, 11, 104
8, 33600, Control_c, 6, 11, 105
8, 33619, Control_c, 6, 11, 106
8, 33638, Control_c, 6, 11, 107
8, 33657, Control_c, 6, 11, 108
8, 33676, Control_c, 6, 11, 109
8, 33696, Control_c, 6, 11, 110
8, 33715, Control_c, 6, 11, 111
8, 33734, Control_c, 6, 11, 112
8, 33744, Note_on_c, 6, 71, 110
8, 33745, Note_on_c, 6, 72, 0
8, 33753, Control_c, 6, 11, 113
8, 33772, Control_c, 6, 11, 114
8, 33792, Control_c, 6, 11, 115
8, 33811, Control_c, 6, 11, 116
8, 33830, Control_c, 6, 11, 117
8, 33849, Control_c, 6, 11, 118
8, 33868, Control_c, 6, 11, 119
8, 33887, Note_on_c, 6, 79, 0
8, 33887, Note_on_c, 6, 71, 0
8, 33887, Control_c, 6, 11, 120
8, 33888, Control_c, 6, 1, 0
8, 33888, Note_on_c, 6, 64, 113
8, 33888, Note_on_c, 6, 72, 113
8, 33984, Note_on_c, 6, 72, 0
8, 33984, Note_on_c, 6, 64, 0
8, 33984, Note_on_c, 6, 65, 110
8, 33984, Note_on_c, 6, 74, 110
8, 34008, Note_on_c, 6, 74, 0
8, 34008, Note_on_c, 6, 65, 0
8, 34008, Note_on_c, 6, 67, 112
8, 34008, Note_on_c, 6, 76, 112
8, 34032, Note_on_c, 6, 76, 0
8, 34032, Note_on_c, 6, 67, 0
8, 34032, Note_on_c, 6, 69, 113
8, 34032, Note_on_c, 6, 77, 113
8, 34056, Note_on_c, 6, 77, 0
8, 34056, Note_on_c, 6, 69, 0
8, 34128, Note_on_c, 6, 67, 110
8, 34128, Note_on_c, 6, 76, 110
8, 34152, Note_on_c, 6, 76, 0
8, 34152, Note_on_c, 6, 67, 0
8, 34176, Note_on_c, 6, 65, 112
8, 34176, Note_on_c, 6, 74, 113
8, 34200, Note_on_c, 6, 74, 0
8, 34200, Note_on_c, 6, 65, 0
8, 34272, Note_on_c, 6, 64, 110
8, 34272, Note_on_c, 6, 72, 110
8, 34296, Note_on_c, 6, 72, 0
8, 34296, Note_on_c, 6, 64, 0
8, 34320, Note_on_c, 6, 65, 113
8, 34320, Note_on_c, 6, 74, 113
8, 34344, Note_on_c, 6, 74, 0
8, 34344, Note_on_c, 6, 65, 0
8, 34416, Note_on_c, 6, 62, 110
8, 34416, Note_on_c, 6, 71, 110
8, 34440, Note_on_c, 6, 71, 0
8, 34440, Note_on_c, 6, 62, 0
8, 34464, Note_on_c, 6, 72, 113
8, 34464, Note_on_c, 6, 76, 113
8, 34560, Note_on_c, 6, 76, 0
8, 34560, Note_on_c, 6, 72, 0
8, 34560, Note_on_c, 6, 74, 110
8, 34560, Note_on_c, 6, 77, 110
8, 34584, Note_on_c, 6, 77, 0
8, 34584, Note_on_c, 6, 74, 0
8, 34584, Note_on_c, 6, 76, 111
8, 34584, Note_on_c, 6, 79, 111
8, 34608, Note_on_c, 6, 79, 0
8, 34608, Note_on_c, 6, 76, 0
8, 34608, Note_on_c, 6, 77, 113
8, 34608, Note_on_c, 6, 81, 113
8, 34632, Note_on_c, 6, 81, 0
8, 34632, Note_on_c, 6, 77, 0
8, 34704, Note_on_c, 6, 76, 110
8, 34704, Note_on_c, 6, 79, 110
8, 34728, Note_on_c, 6, 79, 0
8, 34728, Note_on_c, 6, 76, 0
8, 34752, Note_on_c, 6, 74, 113
8, 34752, Note_on_c, 6, 77, 113
8, 34776, Note_on_c, 6, 77, 0
8, 34776, Note_on_c, 6, 74, 0
8, 34848, Note_on_c, 6, 72, 110
8, 34848, Note_on_c, 6, 76, 110
8, 34872, Note_on_c, 6, 76, 0
8, 34872, Note_on_c, 6, 72, 0
8, 34896, Note_on_c, 6, 74, 113
8, 34896, Note_on_c, 6, 77, 113
8, 34920, Note_on_c, 6, 77, 0
8, 34920, Note_on_c, 6, 74, 0
8, 34992, Note_on_c, 6, 71, 110
8, 34992, Note_on_c, 6, 74, 110
8, 35016, Note_on_c, 6, 74, 0
8, 35016, Note_on_c, 6, 71, 0
8, 35040, Note_on_c, 6, 64, 113
8, 35040, Note_on_c, 6, 72, 113
8, 35064, Note_on_c, 6, 72, 0
8, 35064, Note_on_c, 6, 64, 0
8, 35088, Note_on_c, 6, 64, 110
8, 35088, Note_on_c, 6, 72, 110
8, 35136, Note_on_c, 6, 72, 0
8, 35136, Note_on_c, 6, 64, 0
8, 35136, Note_on_c, 6, 65, 111
8, 35136, Note_on_c, 6, 74, 111
8, 35160, Note_on_c, 6, 74, 0
8, 35160, Note_on_c, 6, 65, 0
8, 35160, Note_on_c, 6, 67, 112
8, 35160, Note_on_c, 6, 76, 112
8, 35184, Note_on_c, 6, 76, 0
8, 35184, Note_on_c, 6, 67, 0
8, 35184, Note_on_c, 6, 69, 113
8, 35184, Note_on_c, 6, 77, 113
8, 35208, Note_on_c, 6, 77, 0
8, 35208, Note_on_c, 6, 69, 0
8, 35232, Note_on_c, 6, 69, 110
8, 35232, Note_on_c, 6, 77, 110
8, 35256, Note_on_c, 6, 77, 0
8, 35256, Note_on_c, 6, 69, 0
8, 35280, Note_on_c, 6, 67, 110
8, 35280, Note_on_c, 6, 76, 110
8, 35304, Note_on_c, 6, 76, 0
8, 35304, Note_on_c, 6, 67, 0
8, 35328, Note_on_c, 6, 65, 113
8, 35328, Note_on_c, 6, 74, 113
8, 35352, Note_on_c, 6, 74, 0
8, 35352, Note_on_c, 6, 65, 0
8, 35376, Note_on_c, 6, 65, 110
8, 35376, Note_on_c, 6, 74, 110
8, 35400, Note_on_c, 6, 74, 0
8, 35400, Note_on_c, 6, 65, 0
8, 35424, Note_on_c, 6, 64, 110
8, 35424, Note_on_c, 6, 72, 110
8, 35448, Note_on_c, 6, 72, 0
8, 35448, Note_on_c, 6, 64, 0
8, 35472, Note_on_c, 6, 65, 113
8, 35472, Note_on_c, 6, 74, 113
8, 35496, Note_on_c, 6, 74, 0
8, 35496, Note_on_c, 6, 65, 0
8, 35520, Note_on_c, 6, 65, 110
8, 35520, Note_on_c, 6, 74, 110
8, 35544, Note_on_c, 6, 74, 0
8, 35544, Note_on_c, 6, 65, 0
8, 35568, Note_on_c, 6, 62, 110
8, 35568, Note_on_c, 6, 71, 110
8, 35592, Note_on_c, 6, 71, 0
8, 35592, Note_on_c, 6, 62, 0
8, 35616, Note_on_c, 6, 72, 113
8, 35616, Note_on_c, 6, 76, 113
8, 35640, Note_on_c, 6, 76, 0
8, 35640, Note_on_c, 6, 72, 0
8, 35664, Note_on_c, 6, 72, 110
8, 35664, Note_on_c, 6, 76, 110
8, 35712, Note_on_c, 6, 76, 0
8, 35712, Note_on_c, 6, 72, 0
8, 35712, Note_on_c, 6, 74, 111
8, 35712, Note_on_c, 6, 77, 111
8, 35736, Note_on_c, 6, 77, 0
8, 35736, Note_on_c, 6, 74, 0
8, 35736, Note_on_c, 6, 76, 112
8, 35736, Note_on_c, 6, 79, 112
8, 35760, Note_on_c, 6, 79, 0
8, 35760, Note_on_c, 6, 76, 0
8, 35760, Note_on_c, 6, 77, 113
8, 35760, Note_on_c, 6, 81, 113
8, 35784, Note_on_c, 6, 81, 0
8, 35784, Note_on_c, 6, 77, 0
8, 35808, Note_on_c, 6, 77, 110
8, 35808, Note_on_c, 6, 81, 110
8, 35832, Note_on_c, 6, 81, 0
8, 35832, Note_on_c, 6, 77, 0
8, 35856, Note_on_c, 6, 76, 110
8, 35856, Note_on_c, 6, 79, 110
8, 35880, Note_on_c, 6, 79, 0
8, 35880, Note_on_c, 6, 76, 0
8, 35904, Note_on_c, 6, 74, 113
8, 35904, Note_on_c, 6, 77, 113
8, 35928, Note_on_c, 6, 77, 0
8, 35928, Note_on_c, 6, 74, 0
8, 35952, Note_on_c, 6, 74, 110
8, 35952, Note_on_c, 6, 77, 110
8, 35976, Note_on_c, 6, 77, 0
8, 35976, Note_on_c, 6, 74, 0
8, 36000, Note_on_c, 6, 76, 110
8, 36000, Note_on_c, 6, 84, 110
8, 36024, Note_on_c, 6, 84, 0
8, 36024, Note_on_c, 6, 76, 0
8, 36048, Note_on_c, 6, 77, 113
8, 36048, Note_on_c, 6, 86, 113
8, 36072, Note_on_c, 6, 86, 0
8, 36072, Note_on_c, 6, 77, 0
8, 36096, Note_on_c, 6, 77, 110
8, 36096, Note_on_c, 6, 86, 110
8, 36120, Note_on_c, 6, 86, 0
8, 36120, Note_on_c, 6, 77, 0
8, 36144, Note_on_c, 6, 74, 110
8, 36144, Note_on_c, 6, 83, 110
8, 36168, Note_on_c, 6, 83, 0
8, 36168, Note_on_c, 6, 74, 0
8, 36192, Note_on_c, 6, 76, 120
8, 36227, Note_on_c, 6, 76, 0
8, 36264, Note_on_c, 6, 64, 113
8, 36276, Note_on_c, 6, 64, 0
8, 36288, Note_on_c, 6, 64, 113
8, 36312, Note_on_c, 6, 64, 0
8, 36336, Note_on_c, 6, 64, 116
8, 36336, Note_on_c, 6, 76, 116
8, 36360, Note_on_c, 6, 76, 0
8, 36360, Note_on_c, 6, 64, 0
8, 36384, Note_on_c, 6, 65, 113
8, 36384, Note_on_c, 6, 77, 113
8, 36408, Note_on_c, 6, 77, 0
8, 36408, Note_on_c, 6, 65, 0
8, 36432, Note_on_c, 6, 67, 113
8, 36432, Note_on_c, 6, 79, 113
8, 36456, Note_on_c, 6, 79, 0
8, 36456, Note_on_c, 6, 67, 0
8, 36480, Note_on_c, 6, 69, 116
8, 36480, Note_on_c, 6, 81, 116
8, 36504, Note_on_c, 6, 81, 0
8, 36504, Note_on_c, 6, 69, 0
8, 36624, Note_on_c, 6, 69, 116
8, 36624, Note_on_c, 6, 81, 116
8, 36648, Note_on_c, 6, 81, 0
8, 36648, Note_on_c, 6, 69, 0
8, 36672, Note_on_c, 6, 71, 113
8, 36672, Note_on_c, 6, 83, 113
8, 36696, Note_on_c, 6, 83, 0
8, 36696, Note_on_c, 6, 71, 0
8, 36720, Note_on_c, 6, 72, 113
8, 36720, Note_on_c, 6, 84, 113
8, 36744, Note_on_c, 6, 84, 0
8, 36744, Note_on_c, 6, 72, 0
8, 36768, Note_on_c, 6, 74, 120
8, 36768, Note_on_c, 6, 86, 120
8, 36803, Note_on_c, 6, 86, 0
8, 36803, Note_on_c, 6, 74, 0
8, 36840, Note_on_c, 6, 62, 113
8, 36840, Note_on_c, 6, 74, 113
8, 36852, Note_on_c, 6, 74, 0
8, 36852, Note_on_c, 6, 62, 0
8, 36864, Note_on_c, 6, 62, 113
8, 36864, Note_on_c, 6, 74, 113
8, 36888, Note_on_c, 6, 74, 0
8, 36888, Note_on_c, 6, 62, 0
8, 36912, Note_on_c, 6, 62, 116
8, 36912, Note_on_c, 6, 74, 116
8, 36936, Note_on_c, 6, 74, 0
8, 36936, Note_on_c, 6, 62, 0
8, 36960, Note_on_c, 6, 64, 113
8, 36960, Note_on_c, 6, 76, 113
8, 36984, Note_on_c, 6, 76, 0
8, 36984, Note_on_c, 6, 64, 0
8, 37008, Note_on_c, 6, 65, 113
8, 37008, Note_on_c, 6, 77, 113
8, 37032, Note_on_c, 6, 77, 0
8, 37032, Note_on_c, 6, 65, 0
8, 37056, Note_on_c, 6, 67, 116
8, 37056, Note_on_c, 6, 79, 116
8, 37080, Note_on_c, 6, 79, 0
8, 37080, Note_on_c, 6, 67, 0
8, 37200, Note_on_c, 6, 67, 116
8, 37200, Note_on_c, 6, 79, 116
8, 37224, Note_on_c, 6, 79, 0
8, 37224, Note_on_c, 6, 67, 0
8, 37248, Note_on_c, 6, 72, 113
8, 37248, Note_on_c, 6, 84, 113
8, 37272, Note_on_c, 6, 84, 0
8, 37272, Note_on_c, 6, 72, 0
8, 37296, Note_on_c, 6, 74, 113
8, 37296, Note_on_c, 6, 86, 113
8, 37320, Note_on_c, 6, 86, 0
8, 37320, Note_on_c, 6, 74, 0
8, 37344, Note_on_c, 6, 72, 60
8, 37344, Note_on_c, 6, 84, 60
8, 37368, Note_on_c, 6, 84, 0
8, 37368, Note_on_c, 6, 72, 0
8, 38206, Control_c, 6, 11, 60
8, 38207, Control_c, 6, 1, 0
8, 38208, Note_on_c, 6, 72, 100
8, 38208, Note_on_c, 6, 77, 100
8, 38209, Control_c, 6, 1, 1
8, 38210, Control_c, 6, 1, 2
8, 38211, Control_c, 6, 1, 3
8, 38212, Control_c, 6, 1, 4
8, 38214, Control_c, 6, 1, 5
8, 38216, Control_c, 6, 1, 6
8, 38217, Control_c, 6, 1, 7
8, 38218, Control_c, 6, 11, 61
8, 38219, Control_c, 6, 1, 8
8, 38221, Control_c, 6, 1, 9
8, 38224, Control_c, 6, 1, 10
8, 38226, Control_c, 6, 1, 11
8, 38228, Control_c, 6, 11, 62
8, 38229, Control_c, 6, 1, 12
8, 38232, Control_c, 6, 1, 13
8, 38235, Control_c, 6, 1, 14
8, 38237, Control_c, 6, 11, 63
8, 38239, Control_c, 6, 1, 15
8, 38244, Control_c, 6, 1, 16
8, 38247, Control_c, 6, 11, 64
8, 38249, Control_c, 6, 1, 17
8, 38256, Control_c, 6, 11, 65
8, 38257, Control_c, 6, 1, 18
8, 38266, Control_c, 6, 11, 66
8, 38267, Control_c, 6, 1, 19
8, 38276, Control_c, 6, 11, 67
8, 38285, Control_c, 6, 11, 68
8, 38285, Control_c, 6, 1, 20
8, 38295, Control_c, 6, 11, 69
8, 38304, Control_c, 6, 11, 70
8, 38314, Control_c, 6, 11, 71
8, 38323, Control_c, 6, 11, 72
8, 38333, Control_c, 6, 11, 73
8, 38343, Control_c, 6, 11, 74
8, 38352, Note_on_c, 6, 77, 0
8, 38352, Note_on_c, 6, 76, 100
8, 38352, Control_c, 6, 11, 75
8, 38362, Control_c, 6, 11, 76
8, 38371, Control_c, 6, 11, 77
8, 38381, Control_c, 6, 11, 78
8, 38391, Control_c, 6, 11, 79
8, 38400, Control_c, 6, 11, 80
8, 38410, Control_c, 6, 11, 81
8, 38419, Control_c, 6, 11, 82
8, 38429, Control_c, 6, 11, 83
8, 38438, Control_c, 6, 11, 84
8, 38448, Control_c, 6, 11, 85
8, 38458, Control_c, 6, 11, 86
8, 38467, Control_c, 6, 11, 87
8, 38477, Control_c, 6, 11, 88
8, 38486, Control_c, 6, 11, 89
8, 38496, Note_on_c, 6, 76, 0
8, 38496, Note_on_c, 6, 76, 100
8, 38496, Control_c, 6, 11, 90
8, 38506, Control_c, 6, 11, 91
8, 38515, Control_c, 6, 11, 92
8, 38525, Control_c, 6, 11, 93
8, 38534, Control_c, 6, 11, 94
8, 38544, Control_c, 6, 11, 95
8, 38553, Control_c, 6, 11, 96
8, 38563, Control_c, 6, 11, 97
8, 38573, Control_c, 6, 11, 98
8, 38582, Control_c, 6, 11, 99
8, 38592, Control_c, 6, 11, 100
8, 38601, Control_c, 6, 11, 101
8, 38611, Control_c, 6, 11, 102
8, 38621, Control_c, 6, 11, 103
8, 38630, Control_c, 6, 11, 104
8, 38640, Control_c, 6, 11, 105
8, 38649, Control_c, 6, 11, 106
8, 38659, Control_c, 6, 11, 107
8, 38668, Control_c, 6, 11, 108
8, 38678, Control_c, 6, 11, 109
8, 38688, Note_on_c, 6, 76, 0
8, 38688, Note_on_c, 6, 72, 0
8, 38688, Note_on_c, 6, 74, 100
8, 38688, Note_on_c, 6, 77, 100
8, 38688, Control_c, 6, 11, 110
8, 38697, Control_c, 6, 11, 111
8, 38707, Control_c, 6, 11, 112
8, 38716, Control_c, 6, 11, 113
8, 38726, Control_c, 6, 11, 114
8, 38736, Note_on_c, 6, 77, 0
8, 38736, Note_on_c, 6, 74, 0
8, 38736, Note_on_c, 6, 76, 100
8, 38736, Note_on_c, 6, 79, 100
8, 38736, Control_c, 6, 11, 115
8, 38745, Control_c, 6, 11, 116
8, 38755, Control_c, 6, 11, 117
8, 38764, Control_c, 6, 11, 118
8, 38774, Control_c, 6, 11, 119
8, 38783, Control_c, 6, 11, 120
8, 38784, Note_on_c, 6, 79, 0
8, 38784, Note_on_c, 6, 76, 0
8, 38784, Control_c, 6, 1, 0
8, 38784, Note_on_c, 6, 67, 105
8, 38784, Note_on_c, 6, 79, 105
8, 38808, Note_on_c, 6, 79, 0
8, 38808, Note_on_c, 6, 67, 0
8, 38832, Note_on_c, 6, 64, 100
8, 38832, Note_on_c, 6, 76, 100
8, 38856, Note_on_c, 6, 76, 0
8, 38856, Note_on_c, 6, 64, 0
8, 38880, Note_on_c, 6, 69, 100
8, 38880, Note_on_c, 6, 81, 100
8, 38904, Note_on_c, 6, 81, 0
8, 38904, Note_on_c, 6, 69, 0
8, 38928, Note_on_c, 6, 65, 105
8, 38928, Note_on_c, 6, 77, 105
8, 38952, Note_on_c, 6, 77, 0
8, 38952, Note_on_c, 6, 65, 0
8, 38976, Note_on_c, 6, 62, 100
8, 38976, Note_on_c, 6, 74, 100
8, 39000, Note_on_c, 6, 74, 0
8, 39000, Note_on_c, 6, 62, 0
8, 39024, Note_on_c, 6, 67, 100
8, 39024, Note_on_c, 6, 79, 100
8, 39048, Note_on_c, 6, 79, 0
8, 39048, Note_on_c, 6, 67, 0
8, 39072, Note_on_c, 6, 60, 105
8, 39072, Note_on_c, 6, 72, 105
8, 39096, Note_on_c, 6, 72, 0
8, 39096, Note_on_c, 6, 60, 0
8, 39360, Note_on_c, 6, 67, 105
8, 39360, Note_on_c, 6, 79, 105
8, 39384, Note_on_c, 6, 79, 0
8, 39384, Note_on_c, 6, 67, 0
8, 39408, Note_on_c, 6, 64, 100
8, 39408, Note_on_c, 6, 76, 100
8, 39432, Note_on_c, 6, 76, 0
8, 39432, Note_on_c, 6, 64, 0
8, 39456, Note_on_c, 6, 69, 100
8, 39456, Note_on_c, 6, 81, 100
8, 39480, Note_on_c, 6, 81, 0
8, 39480, Note_on_c, 6, 69, 0
8, 39504, Note_on_c, 6, 65, 105
8, 39504, Note_on_c, 6, 77, 105
8, 39528, Note_on_c, 6, 77, 0
8, 39528, Note_on_c, 6, 65, 0
8, 39552, Note_on_c, 6, 62, 100
8, 39552, Note_on_c, 6, 74, 100
8, 39576, Note_on_c, 6, 74, 0
8, 39576, Note_on_c, 6, 62, 0
8, 39600, Note_on_c, 6, 67, 100
8, 39600, Note_on_c, 6, 79, 100
8, 39624, Note_on_c, 6, 79, 0
8, 39624, Note_on_c, 6, 67, 0
8, 39648, Note_on_c, 6, 67, 105
8, 39648, Note_on_c, 6, 79, 105
8, 39672, Note_on_c, 6, 79, 0
8, 39672, Note_on_c, 6, 67, 0
8, 39696, Note_on_c, 6, 67, 100
8, 39696, Note_on_c, 6, 79, 100
8, 39720, Note_on_c, 6, 79, 0
8, 39720, Note_on_c, 6, 67, 0
8, 39744, Note_on_c, 6, 67, 100
8, 39744, Note_on_c, 6, 79, 100
8, 39768, Note_on_c, 6, 79, 0
8, 39768, Note_on_c, 6, 67, 0
8, 39792, Note_on_c, 6, 67, 105
8, 39792, Note_on_c, 6, 79, 105
8, 39816, Note_on_c, 6, 79, 0
8, 39816, Note_on_c, 6, 67, 0
8, 39840, Note_on_c, 6, 67, 100
8, 39840, Note_on_c, 6, 79, 100
8, 39864, Note_on_c, 6, 79, 0
8, 39864, Note_on_c, 6, 67, 0
8, 39888, Note_on_c, 6, 67, 100
8, 39888, Note_on_c, 6, 79, 100
8, 39912, Note_on_c, 6, 79, 0
8, 39912, Note_on_c, 6, 67, 0
8, 39936, Note_on_c, 6, 76, 105
8, 39936, Note_on_c, 6, 84, 105
8, 39960, Note_on_c, 6, 84, 0
8, 39960, Note_on_c, 6, 76, 0
8, 39984, Note_on_c, 6, 76, 100
8, 39984, Note_on_c, 6, 79, 100
8, 40008, Note_on_c, 6, 79, 0
8, 40008, Note_on_c, 6, 76, 0
8, 40032, Note_on_c, 6, 76, 100
8, 40032, Note_on_c, 6, 84, 100
8, 40056, Note_on_c, 6, 84, 0
8, 40056, Note_on_c, 6, 76, 0
8, 40080, Note_on_c, 6, 77, 105
8, 40080, Note_on_c, 6, 86, 105
8, 40104, Note_on_c, 6, 86, 0
8, 40104, Note_on_c, 6, 77, 0
8, 40128, Note_on_c, 6, 77, 100
8, 40128, Note_on_c, 6, 79, 100
8, 40152, Note_on_c, 6, 79, 0
8, 40152, Note_on_c, 6, 77, 0
8, 40176, Note_on_c, 6, 77, 100
8, 40176, Note_on_c, 6, 86, 100
8, 40200, Note_on_c, 6, 86, 0
8, 40200, Note_on_c, 6, 77, 0
8, 40224, Note_on_c, 6, 76, 105
8, 40224, Note_on_c, 6, 84, 105
8, 40248, Note_on_c, 6, 84, 0
8, 40248, Note_on_c, 6, 76, 0
8, 40272, Note_on_c, 6, 76, 100
8, 40272, Note_on_c, 6, 79, 100
8, 40296, Note_on_c, 6, 79, 0
8, 40296, Note_on_c, 6, 76, 0
8, 40320, Note_on_c, 6, 76, 100
8, 40320, Note_on_c, 6, 84, 100
8, 40344, Note_on_c, 6, 84, 0
8, 40344, Note_on_c, 6, 76, 0
8, 40368, Note_on_c, 6, 77, 105
8, 40368, Note_on_c, 6, 86, 105
8, 40392, Note_on_c, 6, 86, 0
8, 40392, Note_on_c, 6, 77, 0
8, 40416, Note_on_c, 6, 77, 100
8, 40416, Note_on_c, 6, 79, 100
8, 40440, Note_on_c, 6, 79, 0
8, 40440, Note_on_c, 6, 77, 0
8, 40464, Note_on_c, 6, 77, 100
8, 40464, Note_on_c, 6, 86, 100
8, 40488, Note_on_c, 6, 86, 0
8, 40488, Note_on_c, 6, 77, 0
8, 40656, Control_c, 6, 1, 0
8, 40656, Note_on_c, 6, 72, 47
8, 40657, Control_c, 6, 1, 2
8, 40658, Control_c, 6, 1, 3
8, 40659, Control_c, 6, 1, 4
8, 40660, Control_c, 6, 1, 5
8, 40661, Control_c, 6, 1, 6
8, 40662, Control_c, 6, 1, 7
8, 40664, Control_c, 6, 1, 8
8, 40665, Control_c, 6, 1, 9
8, 40667, Control_c, 6, 1, 10
8, 40668, Control_c, 6, 1, 11
8, 40670, Control_c, 6, 1, 12
8, 40672, Control_c, 6, 1, 13
8, 40674, Control_c, 6, 1, 14
8, 40677, Control_c, 6, 1, 15
8, 40680, Control_c, 6, 1, 16
8, 40684, Control_c, 6, 1, 17
8, 40688, Control_c, 6, 1, 18
8, 40695, Control_c, 6, 1, 19
8, 40704, Note_on_c, 6, 72, 0
8, 40704, Note_on_c, 6, 74, 49
8, 40707, Control_c, 6, 1, 20
8, 40752, Note_on_c, 6, 74, 0
8, 40752, Note_on_c, 6, 76, 51
8, 40800, Note_on_c, 6, 76, 0
8, 40800, Note_on_c, 6, 77, 52
8, 40848, Note_on_c, 6, 77, 0
8, 40848, Note_on_c, 6, 76, 51
8, 40896, Note_on_c, 6, 76, 0
8, 40896, Note_on_c, 6, 77, 52
8, 40944, Note_on_c, 6, 77, 0
8, 40944, Note_on_c, 6, 79, 54
8, 40992, Note_on_c, 6, 79, 0
8, 40992, Note_on_c, 6, 81, 56
8, 41040, Note_on_c, 6, 81, 0
8, 41040, Note_on_c, 6, 83, 48
8, 41088, Note_on_c, 6, 83, 0
8, 41088, Note_on_c, 6, 84, 59
8, 41112, Note_on_c, 6, 84, 0
8, 41232, Control_c, 6, 1, 0
8, 41232, Note_on_c, 6, 72, 55
8, 41267, Note_on_c, 6, 72, 0
8, 41304, Note_on_c, 6, 72, 50
8, 41316, Note_on_c, 6, 72, 0
8, 41328, Note_on_c, 6, 72, 50
8, 41352, Note_on_c, 6, 72, 0
8, 41376, Note_on_c, 6, 72, 50
8, 41400, Note_on_c, 6, 72, 0
8, 41520, Note_on_c, 6, 74, 55
8, 41555, Note_on_c, 6, 74, 0
8, 41592, Note_on_c, 6, 74, 50
8, 41604, Note_on_c, 6, 74, 0
8, 41616, Note_on_c, 6, 74, 50
8, 41640, Note_on_c, 6, 74, 0
8, 41664, Note_on_c, 6, 74, 50
8, 41688, Note_on_c, 6, 74, 0
8, 42384, Note_on_c, 6, 70, 60
8, 42384, Note_on_c, 6, 74, 60
8, 42419, Note_on_c, 6, 74, 0
8, 42419, Note_on_c, 6, 70, 0
8, 42456, Note_on_c, 6, 70, 50
8, 42456, Note_on_c, 6, 74, 50
8, 42468, Note_on_c, 6, 74, 0
8, 42468, Note_on_c, 6, 70, 0
8, 42480, Note_on_c, 6, 70, 50
8, 42480, Note_on_c, 6, 74, 50
8, 42504, Note_on_c, 6, 74, 0
8, 42504, Note_on_c, 6, 70, 0
8, 42528, Note_on_c, 6, 70, 50
8, 42528, Note_on_c, 6, 74, 50
8, 42552, Note_on_c, 6, 74, 0
8, 42552, Note_on_c, 6, 70, 0
8, 42672, Note_on_c, 6, 70, 60
8, 42672, Note_on_c, 6, 75, 60
8, 42707, Note_on_c, 6, 75, 0
8, 42707, Note_on_c, 6, 70, 0
8, 42744, Note_on_c, 6, 70, 50
8, 42744, Note_on_c, 6, 75, 50
8, 42756, Note_on_c, 6, 75, 0
8, 42756, Note_on_c, 6, 70, 0
8, 42768, Note_on_c, 6, 70, 50
8, 42768, Note_on_c, 6, 75, 50
8, 42792, Note_on_c, 6, 75, 0
8, 42792, Note_on_c, 6, 70, 0
8, 42816, Note_on_c, 6, 70, 50
8, 42816, Note_on_c, 6, 75, 50
8, 42840, Note_on_c, 6, 75, 0
8, 42840, Note_on_c, 6, 70, 0
8, 43536, Note_on_c, 6, 67, 60
8, 43536, Note_on_c, 6, 75, 60
8, 43571, Note_on_c, 6, 75, 0
8, 43571, Note_on_c, 6, 67, 0
8, 43608, Note_on_c, 6, 67, 61
8, 43608, Note_on_c, 6, 75, 61
8, 43620, Note_on_c, 6, 75, 0
8, 43620, Note_on_c, 6, 67, 0
8, 43632, Note_on_c, 6, 67, 62
8, 43632, Note_on_c, 6, 75, 62
8, 43656, Note_on_c, 6, 75, 0
8, 43656, Note_on_c, 6, 67, 0
8, 43680, Note_on_c, 6, 72, 63
8, 43680, Note_on_c, 6, 75, 63
8, 43704, Note_on_c, 6, 75, 0
8, 43704, Note_on_c, 6, 72, 0
8, 43824, Note_on_c, 6, 72, 66
8, 43824, Note_on_c, 6, 77, 66
8, 43859, Note_on_c, 6, 77, 0
8, 43859, Note_on_c, 6, 72, 0
8, 43896, Note_on_c, 6, 72, 68
8, 43896, Note_on_c, 6, 77, 68
8, 43908, Note_on_c, 6, 77, 0
8, 43908, Note_on_c, 6, 72, 0
8, 43920, Note_on_c, 6, 72, 69
8, 43920, Note_on_c, 6, 77, 69
8, 43944, Note_on_c, 6, 77, 0
8, 43944, Note_on_c, 6, 72, 0
8, 43968, Note_on_c, 6, 73, 70
8, 43968, Note_on_c, 6, 77, 70
8, 43992, Note_on_c, 6, 77, 0
8, 43992, Note_on_c, 6, 73, 0
8, 44112, Note_on_c, 6, 73, 73
8, 44112, Note_on_c, 6, 77, 73
8, 44147, Note_on_c, 6, 77, 0
8, 44147, Note_on_c, 6, 73, 0
8, 44184, Note_on_c, 6, 73, 73
8, 44184, Note_on_c, 6, 77, 75
8, 44196, Note_on_c, 6, 77, 0
8, 44196, Note_on_c, 6, 73, 0
8, 44208, Note_on_c, 6, 73, 75
8, 44208, Note_on_c, 6, 77, 75
8, 44232, Note_on_c, 6, 77, 0
8, 44232, Note_on_c, 6, 73, 0
8, 44256, Note_on_c, 6, 73, 76
8, 44256, Note_on_c, 6, 78, 76
8, 44280, Note_on_c, 6, 78, 0
8, 44280, Note_on_c, 6, 73, 0
8, 44400, Note_on_c, 6, 75, 80
8, 44400, Note_on_c, 6, 78, 80
8, 44435, Note_on_c, 6, 78, 0
8, 44435, Note_on_c, 6, 75, 0
8, 44472, Note_on_c, 6, 75, 81
8, 44472, Note_on_c, 6, 78, 81
8, 44484, Note_on_c, 6, 78, 0
8, 44484, Note_on_c, 6, 75, 0
8, 44496, Note_on_c, 6, 75, 82
8, 44496, Note_on_c, 6, 78, 82
8, 44520, Note_on_c, 6, 78, 0
8, 44520, Note_on_c, 6, 75, 0
8, 44544, Note_on_c, 6, 75, 83
8, 44544, Note_on_c, 6, 78, 83
8, 44568, Note_on_c, 6, 78, 0
8, 44568, Note_on_c, 6, 75, 0
8, 44688, Note_on_c, 6, 75, 87
8, 44688, Note_on_c, 6, 80, 87
8, 44723, Note_on_c, 6, 80, 0
8, 44723, Note_on_c, 6, 75, 0
8, 44760, Note_on_c, 6, 75, 88
8, 44760, Note_on_c, 6, 80, 88
8, 44772, Note_on_c, 6, 80, 0
8, 44772, Note_on_c, 6, 75, 0
8, 44784, Note_on_c, 6, 75, 89
8, 44784, Note_on_c, 6, 80, 89
8, 44808, Note_on_c, 6, 80, 0
8, 44808, Note_on_c, 6, 75, 0
8, 44832, Note_on_c, 6, 76, 90
8, 44832, Note_on_c, 6, 80, 90
8, 44856, Note_on_c, 6, 80, 0
8, 44856, Note_on_c, 6, 76, 0
8, 44976, Note_on_c, 6, 76, 93
8, 44976, Note_on_c, 6, 80, 93
8, 45011, Note_on_c, 6, 80, 0
8, 45011, Note_on_c, 6, 76, 0
8, 45048, Note_on_c, 6, 76, 95
8, 45048, Note_on_c, 6, 80, 95
8, 45060, Note_on_c, 6, 80, 0
8, 45060, Note_on_c, 6, 76, 0
8, 45072, Note_on_c, 6, 76, 96
8, 45072, Note_on_c, 6, 80, 96
8, 45096, Note_on_c, 6, 80, 0
8, 45096, Note_on_c, 6, 76, 0
8, 45120, Note_on_c, 6, 76, 100
8, 45120, Note_on_c, 6, 81, 100
8, 45144, Note_on_c, 6, 81, 0
8, 45144, Note_on_c, 6, 76, 0
8, 45264, Note_on_c, 6, 81, 100
8, 45299, Note_on_c, 6, 81, 0
8, 45336, Note_on_c, 6, 69, 100
8, 45348, Note_on_c, 6, 69, 0
8, 45360, Note_on_c, 6, 69, 100
8, 45384, Note_on_c, 6, 69, 0
8, 45552, Note_on_c, 6, 70, 113
8, 45552, Note_on_c, 6, 82, 113
8, 45587, Note_on_c, 6, 82, 0
8, 45587, Note_on_c, 6, 70, 0
8, 45624, Note_on_c, 6, 70, 113
8, 45636, Note_on_c, 6, 70, 0
8, 45648, Note_on_c, 6, 70, 113
8, 45672, Note_on_c, 6, 70, 0
8, 45840, Note_on_c, 6, 71, 113
8, 45840, Note_on_c, 6, 83, 113
8, 45875, Note_on_c, 6, 83, 0
8, 45875, Note_on_c, 6, 71, 0
8, 45912, Note_on_c, 6, 71, 113
8, 45924, Note_on_c, 6, 71, 0
8, 45936, Note_on_c, 6, 71, 113
8, 46008, Note_on_c, 6, 71, 0
8, 46464, Note_on_c, 6, 83, 75
8, 46499, Note_on_c, 6, 83, 0
8, 46536, Note_on_c, 6, 71, 70
8, 46548, Note_on_c, 6, 71, 0
8, 46560, Note_on_c, 6, 71, 70
8, 46584, Note_on_c, 6, 71, 0
8, 46608, Note_on_c, 6, 76, 65
8, 46632, Note_on_c, 6, 76, 0
8, 46656, Note_on_c, 6, 75, 60
8, 46656, Note_on_c, 6, 78, 60
8, 46680, Note_on_c, 6, 78, 0
8, 46680, Note_on_c, 6, 75, 0
8, 46704, Note_on_c, 6, 76, 60
8, 46704, Note_on_c, 6, 79, 60
8, 46728, Note_on_c, 6, 79, 0
8, 46728, Note_on_c, 6, 76, 0
8, 46752, Note_on_c, 6, 75, 65
8, 46752, Note_on_c, 6, 78, 65
8, 46776, Note_on_c, 6, 78, 0
8, 46776, Note_on_c, 6, 75, 0
8, 46800, Note_on_c, 6, 76, 60
8, 46800, Note_on_c, 6, 79, 60
8, 46824, Note_on_c, 6, 79, 0
8, 46824, Note_on_c, 6, 76, 0
8, 46848, Note_on_c, 6, 78, 60
8, 46848, Note_on_c, 6, 81, 60
8, 46872, Note_on_c, 6, 81, 0
8, 46872, Note_on_c, 6, 78, 0
8, 46896, Note_on_c, 6, 76, 65
8, 46896, Note_on_c, 6, 79, 65
8, 46920, Note_on_c, 6, 79, 0
8, 46920, Note_on_c, 6, 76, 0
8, 46944, Note_on_c, 6, 79, 60
8, 46944, Note_on_c, 6, 83, 60
8, 46968, Note_on_c, 6, 83, 0
8, 46968, Note_on_c, 6, 79, 0
8, 46992, Note_on_c, 6, 79, 60
8, 46992, Note_on_c, 6, 83, 60
8, 47016, Note_on_c, 6, 83, 0
8, 47016, Note_on_c, 6, 79, 0
8, 47040, Note_on_c, 6, 79, 65
8, 47040, Note_on_c, 6, 83, 65
8, 47064, Note_on_c, 6, 83, 0
8, 47064, Note_on_c, 6, 79, 0
8, 47088, Note_on_c, 6, 78, 60
8, 47088, Note_on_c, 6, 81, 60
8, 47112, Note_on_c, 6, 81, 0
8, 47112, Note_on_c, 6, 78, 0
8, 47136, Note_on_c, 6, 76, 60
8, 47136, Note_on_c, 6, 79, 60
8, 47160, Note_on_c, 6, 79, 0
8, 47160, Note_on_c, 6, 76, 0
8, 47184, Note_on_c, 6, 78, 65
8, 47184, Note_on_c, 6, 81, 65
8, 47208, Note_on_c, 6, 81, 0
8, 47208, Note_on_c, 6, 78, 0
8, 47232, Note_on_c, 6, 76, 60
8, 47232, Note_on_c, 6, 79, 60
8, 47256, Note_on_c, 6, 79, 0
8, 47256, Note_on_c, 6, 76, 0
8, 47280, Note_on_c, 6, 75, 60
8, 47280, Note_on_c, 6, 78, 60
8, 47304, Note_on_c, 6, 78, 0
8, 47304, Note_on_c, 6, 75, 0
8, 47328, Note_on_c, 6, 76, 65
8, 47363, Note_on_c, 6, 76, 0
8, 47400, Note_on_c, 6, 64, 60
8, 47412, Note_on_c, 6, 64, 0
8, 47424, Note_on_c, 6, 64, 60
8, 47448, Note_on_c, 6, 64, 0
8, 47472, Note_on_c, 6, 76, 65
8, 47496, Note_on_c, 6, 76, 0
8, 47520, Note_on_c, 6, 80, 60
8, 47544, Note_on_c, 6, 80, 0
8, 47568, Note_on_c, 6, 81, 60
8, 47592, Note_on_c, 6, 81, 0
8, 47616, Note_on_c, 6, 80, 65
8, 47640, Note_on_c, 6, 80, 0
8, 47664, Note_on_c, 6, 81, 60
8, 47688, Note_on_c, 6, 81, 0
8, 47712, Note_on_c, 6, 83, 60
8, 47736, Note_on_c, 6, 83, 0
8, 47760, Note_on_c, 6, 81, 65
8, 47784, Note_on_c, 6, 81, 0
8, 47808, Note_on_c, 6, 84, 60
8, 47832, Note_on_c, 6, 84, 0
8, 47856, Note_on_c, 6, 84, 60
8, 47880, Note_on_c, 6, 84, 0
8, 47904, Note_on_c, 6, 84, 65
8, 47928, Note_on_c, 6, 84, 0
8, 47952, Note_on_c, 6, 83, 60
8, 47976, Note_on_c, 6, 83, 0
8, 48000, Note_on_c, 6, 81, 60
8, 48024, Note_on_c, 6, 81, 0
8, 48048, Note_on_c, 6, 83, 65
8, 48072, Note_on_c, 6, 83, 0
8, 48096, Note_on_c, 6, 81, 60
8, 48120, Note_on_c, 6, 81, 0
8, 48144, Note_on_c, 6, 80, 60
8, 48168, Note_on_c, 6, 80, 0
8, 48192, Note_on_c, 6, 76, 65
8, 48227, Note_on_c, 6, 76, 0
8, 48264, Note_on_c, 6, 64, 60
8, 48276, Note_on_c, 6, 64, 0
8, 48288, Note_on_c, 6, 64, 60
8, 48312, Note_on_c, 6, 64, 0
8, 48336, Note_on_c, 6, 76, 65
8, 48360, Note_on_c, 6, 76, 0
8, 48384, Note_on_c, 6, 80, 60
8, 48408, Note_on_c, 6, 80, 0
8, 48432, Note_on_c, 6, 81, 60
8, 48456, Note_on_c, 6, 81, 0
8, 48480, Note_on_c, 6, 80, 65
8, 48504, Note_on_c, 6, 80, 0
8, 48528, Note_on_c, 6, 81, 60
8, 48552, Note_on_c, 6, 81, 0
8, 48576, Note_on_c, 6, 83, 60
8, 48600, Note_on_c, 6, 83, 0
8, 48768, Note_on_c, 6, 77, 65
8, 48792, Note_on_c, 6, 77, 0
8, 48816, Note_on_c, 6, 79, 60
8, 48840, Note_on_c, 6, 79, 0
8, 48864, Note_on_c, 6, 81, 60
8, 48888, Note_on_c, 6, 81, 0
8, 48912, Note_on_c, 6, 79, 65
8, 48936, Note_on_c, 6, 79, 0
8, 48960, Note_on_c, 6, 81, 60
8, 48984, Note_on_c, 6, 81, 0
8, 49008, Note_on_c, 6, 82, 60
8, 49032, Note_on_c, 6, 82, 0
8, 49200, Note_on_c, 6, 81, 65
8, 49224, Note_on_c, 6, 81, 0
8, 49248, Note_on_c, 6, 79, 60
8, 49272, Note_on_c, 6, 79, 0
8, 49296, Note_on_c, 6, 81, 60
8, 49320, Note_on_c, 6, 81, 0
8, 49344, Note_on_c, 6, 79, 65
8, 49368, Note_on_c, 6, 79, 0
8, 49392, Note_on_c, 6, 81, 60
8, 49416, Note_on_c, 6, 81, 0
8, 49440, Note_on_c, 6, 82, 60
8, 49464, Note_on_c, 6, 82, 0
8, 49632, Note_on_c, 6, 77, 65
8, 49632, Note_on_c, 6, 81, 65
8, 49656, Note_on_c, 6, 81, 0
8, 49656, Note_on_c, 6, 77, 0
8, 49680, Note_on_c, 6, 79, 60
8, 49680, Note_on_c, 6, 82, 60
8, 49704, Note_on_c, 6, 82, 0
8, 49704, Note_on_c, 6, 79, 0
8, 49728, Note_on_c, 6, 81, 60
8, 49728, Note_on_c, 6, 84, 60
8, 49752, Note_on_c, 6, 84, 0
8, 49752, Note_on_c, 6, 81, 0
8, 49776, Note_on_c, 6, 79, 65
8, 49776, Note_on_c, 6, 82, 65
8, 49800, Note_on_c, 6, 82, 0
8, 49800, Note_on_c, 6, 79, 0
8, 49824, Note_on_c, 6, 81, 60
8, 49824, Note_on_c, 6, 84, 60
8, 49848, Note_on_c, 6, 84, 0
8, 49848, Note_on_c, 6, 81, 0
8, 49872, Note_on_c, 6, 82, 60
8, 49872, Note_on_c, 6, 86, 60
8, 49896, Note_on_c, 6, 86, 0
8, 49896, Note_on_c, 6, 82, 0
8, 50064, Note_on_c, 6, 69, 65
8, 50064, Note_on_c, 6, 72, 65
8, 50088, Note_on_c, 6, 72, 0
8, 50088, Note_on_c, 6, 69, 0
8, 50112, Note_on_c, 6, 67, 60
8, 50112, Note_on_c, 6, 76, 60
8, 50136, Note_on_c, 6, 76, 0
8, 50136, Note_on_c, 6, 67, 0
8, 50160, Note_on_c, 6, 69, 60
8, 50160, Note_on_c, 6, 77, 60
8, 50184, Note_on_c, 6, 77, 0
8, 50184, Note_on_c, 6, 69, 0
8, 50208, Note_on_c, 6, 67, 65
8, 50208, Note_on_c, 6, 76, 65
8, 50232, Note_on_c, 6, 76, 0
8, 50232, Note_on_c, 6, 67, 0
8, 50256, Note_on_c, 6, 69, 60
8, 50256, Note_on_c, 6, 77, 60
8, 50280, Note_on_c, 6, 77, 0
8, 50280, Note_on_c, 6, 69, 0
8, 50304, Note_on_c, 6, 70, 60
8, 50304, Note_on_c, 6, 79, 60
8, 50328, Note_on_c, 6, 79, 0
8, 50328, Note_on_c, 6, 70, 0
8, 50352, Note_on_c, 6, 77, 65
8, 50352, Note_on_c, 6, 81, 65
8, 50376, Note_on_c, 6, 81, 0
8, 50376, Note_on_c, 6, 77, 0
8, 50400, Note_on_c, 6, 79, 60
8, 50400, Note_on_c, 6, 82, 60
8, 50424, Note_on_c, 6, 82, 0
8, 50424, Note_on_c, 6, 79, 0
8, 50448, Note_on_c, 6, 81, 60
8, 50448, Note_on_c, 6, 84, 60
8, 50472, Note_on_c, 6, 84, 0
8, 50472, Note_on_c, 6, 81, 0
8, 50496, Note_on_c, 6, 81, 65
8, 50496, Note_on_c, 6, 84, 65
8, 50520, Note_on_c, 6, 84, 0
8, 50520, Note_on_c, 6, 81, 0
8, 50544, Note_on_c, 6, 79, 60
8, 50544, Note_on_c, 6, 82, 60
8, 50568, Note_on_c, 6, 82, 0
8, 50568, Note_on_c, 6, 79, 0
8, 50592, Note_on_c, 6, 77, 60
8, 50592, Note_on_c, 6, 81, 60
8, 50616, Note_on_c, 6, 81, 0
8, 50616, Note_on_c, 6, 77, 0
8, 50640, Note_on_c, 6, 77, 65
8, 50640, Note_on_c, 6, 81, 65
8, 50664, Note_on_c, 6, 81, 0
8, 50664, Note_on_c, 6, 77, 0
8, 50688, Note_on_c, 6, 79, 60
8, 50688, Note_on_c, 6, 82, 60
8, 50712, Note_on_c, 6, 82, 0
8, 50712, Note_on_c, 6, 79, 0
8, 50736, Note_on_c, 6, 77, 60
8, 50736, Note_on_c, 6, 81, 60
8, 50760, Note_on_c, 6, 81, 0
8, 50760, Note_on_c, 6, 77, 0
8, 50928, Note_on_c, 6, 72, 55
8, 50963, Note_on_c, 6, 72, 0
8, 51000, Note_on_c, 6, 60, 50
8, 51012, Note_on_c, 6, 60, 0
8, 51024, Note_on_c, 6, 60, 50
8, 51048, Note_on_c, 6, 60, 0
8, 51216, Note_on_c, 6, 74, 55
8, 51216, Note_on_c, 6, 77, 55
8, 51240, Note_on_c, 6, 77, 0
8, 51240, Note_on_c, 6, 74, 0
8, 51264, Note_on_c, 6, 76, 50
8, 51264, Note_on_c, 6, 79, 50
8, 51288, Note_on_c, 6, 79, 0
8, 51288, Note_on_c, 6, 76, 0
8, 51312, Note_on_c, 6, 77, 50
8, 51312, Note_on_c, 6, 81, 50
8, 51336, Note_on_c, 6, 81, 0
8, 51336, Note_on_c, 6, 77, 0
8, 51360, Note_on_c, 6, 77, 55
8, 51360, Note_on_c, 6, 81, 55
8, 51384, Note_on_c, 6, 81, 0
8, 51384, Note_on_c, 6, 77, 0
8, 51408, Note_on_c, 6, 76, 50
8, 51408, Note_on_c, 6, 79, 50
8, 51432, Note_on_c, 6, 79, 0
8, 51432, Note_on_c, 6, 76, 0
8, 51456, Note_on_c, 6, 74, 50
8, 51456, Note_on_c, 6, 77, 50
8, 51480, Note_on_c, 6, 77, 0
8, 51480, Note_on_c, 6, 74, 0
8, 51504, Note_on_c, 6, 74, 55
8, 51504, Note_on_c, 6, 77, 55
8, 51528, Note_on_c, 6, 77, 0
8, 51528, Note_on_c, 6, 74, 0
8, 51552, Note_on_c, 6, 76, 50
8, 51552, Note_on_c, 6, 79, 50
8, 51576, Note_on_c, 6, 79, 0
8, 51576, Note_on_c, 6, 76, 0
8, 51600, Note_on_c, 6, 74, 50
8, 51600, Note_on_c, 6, 77, 50
8, 51624, Note_on_c, 6, 77, 0
8, 51624, Note_on_c, 6, 74, 0
8, 52080, Note_on_c, 6, 74, 55
8, 52080, Note_on_c, 6, 77, 55
8, 52104, Note_on_c, 6, 77, 0
8, 52104, Note_on_c, 6, 74, 0
8, 52128, Note_on_c, 6, 76, 50
8, 52128, Note_on_c, 6, 79, 50
8, 52152, Note_on_c, 6, 79, 0
8, 52152, Note_on_c, 6, 76, 0
8, 52176, Note_on_c, 6, 77, 50
8, 52176, Note_on_c, 6, 81, 50
8, 52200, Note_on_c, 6, 81, 0
8, 52200, Note_on_c, 6, 77, 0
8, 52224, Note_on_c, 6, 77, 55
8, 52224, Note_on_c, 6, 81, 55
8, 52248, Note_on_c, 6, 81, 0
8, 52248, Note_on_c, 6, 77, 0
8, 52272, Note_on_c, 6, 76, 50
8, 52272, Note_on_c, 6, 79, 50
8, 52296, Note_on_c, 6, 79, 0
8, 52296, Note_on_c, 6, 76, 0
8, 52320, Note_on_c, 6, 74, 50
8, 52320, Note_on_c, 6, 77, 50
8, 52344, Note_on_c, 6, 77, 0
8, 52344, Note_on_c, 6, 74, 0
8, 52368, Note_on_c, 6, 74, 55
8, 52368, Note_on_c, 6, 77, 55
8, 52392, Note_on_c, 6, 77, 0
8, 52392, Note_on_c, 6, 74, 0
8, 52416, Note_on_c, 6, 76, 50
8, 52416, Note_on_c, 6, 79, 50
8, 52440, Note_on_c, 6, 79, 0
8, 52440, Note_on_c, 6, 76, 0
8, 52464, Note_on_c, 6, 74, 50
8, 52464, Note_on_c, 6, 77, 50
8, 52488, Note_on_c, 6, 77, 0
8, 52488, Note_on_c, 6, 74, 0
8, 52944, Note_on_c, 6, 81, 55
8, 52979, Note_on_c, 6, 81, 0
8, 53016, Note_on_c, 6, 69, 50
8, 53028, Note_on_c, 6, 69, 0
8, 53040, Note_on_c, 6, 69, 50
8, 53064, Note_on_c, 6, 69, 0
8, 53088, Note_on_c, 6, 74, 55
8, 53112, Note_on_c, 6, 74, 0
8, 53136, Note_on_c, 6, 73, 50
8, 53136, Note_on_c, 6, 76, 50
8, 53160, Note_on_c, 6, 76, 0
8, 53160, Note_on_c, 6, 73, 0
8, 53184, Note_on_c, 6, 74, 50
8, 53184, Note_on_c, 6, 77, 50
8, 53208, Note_on_c, 6, 77, 0
8, 53208, Note_on_c, 6, 74, 0
8, 53232, Note_on_c, 6, 73, 55
8, 53232, Note_on_c, 6, 76, 55
8, 53256, Note_on_c, 6, 76, 0
8, 53256, Note_on_c, 6, 73, 0
8, 53280, Note_on_c, 6, 74, 50
8, 53280, Note_on_c, 6, 77, 50
8, 53304, Note_on_c, 6, 77, 0
8, 53304, Note_on_c, 6, 74, 0
8, 53328, Note_on_c, 6, 76, 50
8, 53328, Note_on_c, 6, 79, 50
8, 53352, Note_on_c, 6, 79, 0
8, 53352, Note_on_c, 6, 76, 0
8, 53376, Note_on_c, 6, 74, 55
8, 53376, Note_on_c, 6, 77, 55
8, 53400, Note_on_c, 6, 77, 0
8, 53400, Note_on_c, 6, 74, 0
8, 53424, Note_on_c, 6, 77, 50
8, 53424, Note_on_c, 6, 81, 50
8, 53448, Note_on_c, 6, 81, 0
8, 53448, Note_on_c, 6, 77, 0
8, 53472, Note_on_c, 6, 77, 50
8, 53472, Note_on_c, 6, 81, 50
8, 53496, Note_on_c, 6, 81, 0
8, 53496, Note_on_c, 6, 77, 0
8, 53520, Note_on_c, 6, 77, 55
8, 53520, Note_on_c, 6, 81, 55
8, 53544, Note_on_c, 6, 81, 0
8, 53544, Note_on_c, 6, 77, 0
8, 53568, Note_on_c, 6, 76, 50
8, 53568, Note_on_c, 6, 79, 50
8, 53592, Note_on_c, 6, 79, 0
8, 53592, Note_on_c, 6, 76, 0
8, 53616, Note_on_c, 6, 74, 50
8, 53616, Note_on_c, 6, 77, 50
8, 53640, Note_on_c, 6, 77, 0
8, 53640, Note_on_c, 6, 74, 0
8, 53664, Note_on_c, 6, 76, 55
8, 53664, Note_on_c, 6, 79, 55
8, 53688, Note_on_c, 6, 79, 0
8, 53688, Note_on_c, 6, 76, 0
8, 53712, Note_on_c, 6, 74, 50
8, 53712, Note_on_c, 6, 77, 50
8, 53736, Note_on_c, 6, 77, 0
8, 53736, Note_on_c, 6, 74, 0
8, 53760, Note_on_c, 6, 73, 50
8, 53760, Note_on_c, 6, 76, 50
8, 53784, Note_on_c, 6, 76, 0
8, 53784, Note_on_c, 6, 73, 0
8, 53808, Note_on_c, 6, 81, 55
8, 53843, Note_on_c, 6, 81, 0
8, 53880, Note_on_c, 6, 69, 50
8, 53892, Note_on_c, 6, 69, 0
8, 53904, Note_on_c, 6, 69, 50
8, 53928, Note_on_c, 6, 69, 0
8, 53952, Note_on_c, 6, 74, 55
8, 53976, Note_on_c, 6, 74, 0
8, 54000, Note_on_c, 6, 73, 50
8, 54000, Note_on_c, 6, 76, 50
8, 54024, Note_on_c, 6, 76, 0
8, 54024, Note_on_c, 6, 73, 0
8, 54048, Note_on_c, 6, 74, 50
8, 54048, Note_on_c, 6, 77, 50
8, 54072, Note_on_c, 6, 77, 0
8, 54072, Note_on_c, 6, 74, 0
8, 54096, Note_on_c, 6, 73, 55
8, 54096, Note_on_c, 6, 76, 55
8, 54120, Note_on_c, 6, 76, 0
8, 54120, Note_on_c, 6, 73, 0
8, 54144, Note_on_c, 6, 74, 50
8, 54144, Note_on_c, 6, 77, 50
8, 54168, Note_on_c, 6, 77, 0
8, 54168, Note_on_c, 6, 74, 0
8, 54192, Note_on_c, 6, 76, 50
8, 54192, Note_on_c, 6, 79, 50
8, 54216, Note_on_c, 6, 79, 0
8, 54216, Note_on_c, 6, 76, 0
8, 54240, Note_on_c, 6, 74, 55
8, 54240, Note_on_c, 6, 77, 55
8, 54264, Note_on_c, 6, 77, 0
8, 54264, Note_on_c, 6, 74, 0
8, 54288, Note_on_c, 6, 81, 50
8, 54312, Note_on_c, 6, 81, 0
8, 54336, Note_on_c, 6, 81, 50
8, 54360, Note_on_c, 6, 81, 0
8, 54384, Note_on_c, 6, 81, 55
8, 54408, Note_on_c, 6, 81, 0
8, 54432, Note_on_c, 6, 81, 50
8, 54456, Note_on_c, 6, 81, 0
8, 54480, Note_on_c, 6, 81, 50
8, 54504, Note_on_c, 6, 81, 0
8, 54528, Note_on_c, 6, 81, 55
8, 54552, Note_on_c, 6, 81, 0
8, 54576, Note_on_c, 6, 81, 50
8, 54600, Note_on_c, 6, 81, 0
8, 54624, Note_on_c, 6, 81, 50
8, 54648, Note_on_c, 6, 81, 0
8, 54672, Note_on_c, 6, 81, 55
8, 54696, Note_on_c, 6, 81, 0
8, 54720, Note_on_c, 6, 81, 50
8, 54744, Note_on_c, 6, 81, 0
8, 54768, Note_on_c, 6, 81, 50
8, 54792, Note_on_c, 6, 81, 0
8, 54816, Note_on_c, 6, 79, 55
8, 54840, Note_on_c, 6, 79, 0
8, 54864, Note_on_c, 6, 79, 50
8, 54888, Note_on_c, 6, 79, 0
8, 54912, Note_on_c, 6, 79, 50
8, 54936, Note_on_c, 6, 79, 0
8, 54960, Note_on_c, 6, 79, 55
8, 54984, Note_on_c, 6, 79, 0
8, 55008, Note_on_c, 6, 79, 50
8, 55032, Note_on_c, 6, 79, 0
8, 55056, Note_on_c, 6, 79, 50
8, 55080, Note_on_c, 6, 79, 0
8, 55104, Note_on_c, 6, 79, 55
8, 55128, Note_on_c, 6, 79, 0
8, 55152, Note_on_c, 6, 79, 50
8, 55176, Note_on_c, 6, 79, 0
8, 55200, Note_on_c, 6, 79, 50
8, 55224, Note_on_c, 6, 79, 0
8, 55248, Note_on_c, 6, 79, 55
8, 55272, Note_on_c, 6, 79, 0
8, 55296, Note_on_c, 6, 79, 50
8, 55320, Note_on_c, 6, 79, 0
8, 55344, Note_on_c, 6, 79, 50
8, 55368, Note_on_c, 6, 79, 0
8, 55392, Note_on_c, 6, 74, 55
8, 55416, Note_on_c, 6, 74, 0
8, 55440, Note_on_c, 6, 75, 50
8, 55464, Note_on_c, 6, 75, 0
8, 55488, Note_on_c, 6, 77, 50
8, 55512, Note_on_c, 6, 77, 0
8, 55536, Note_on_c, 6, 75, 55
8, 55560, Note_on_c, 6, 75, 0
8, 55584, Note_on_c, 6, 82, 50
8, 55608, Note_on_c, 6, 82, 0
8, 55632, Note_on_c, 6, 82, 50
8, 55656, Note_on_c, 6, 82, 0
8, 55680, Note_on_c, 6, 82, 55
8, 55704, Note_on_c, 6, 82, 0
8, 55728, Note_on_c, 6, 82, 50
8, 55752, Note_on_c, 6, 82, 0
8, 55776, Note_on_c, 6, 82, 50
8, 55800, Note_on_c, 6, 82, 0
8, 55824, Note_on_c, 6, 82, 55
8, 55848, Note_on_c, 6, 82, 0
8, 55872, Note_on_c, 6, 82, 50
8, 55896, Note_on_c, 6, 82, 0
8, 55920, Note_on_c, 6, 82, 50
8, 55944, Note_on_c, 6, 82, 0
8, 55968, Note_on_c, 6, 82, 55
8, 55992, Note_on_c, 6, 82, 0
8, 56016, Note_on_c, 6, 82, 50
8, 56040, Note_on_c, 6, 82, 0
8, 56064, Note_on_c, 6, 82, 50
8, 56088, Note_on_c, 6, 82, 0
8, 56112, Note_on_c, 6, 82, 55
8, 56136, Note_on_c, 6, 82, 0
8, 56160, Note_on_c, 6, 82, 50
8, 56184, Note_on_c, 6, 82, 0
8, 56208, Note_on_c, 6, 82, 50
8, 56232, Note_on_c, 6, 82, 0
8, 56256, Note_on_c, 6, 82, 50
8, 56280, Note_on_c, 6, 82, 0
8, 56832, Note_on_c, 6, 82, 50
8, 56856, Note_on_c, 6, 82, 0
8, 56976, Note_on_c, 6, 82, 50
8, 57000, Note_on_c, 6, 82, 0
8, 57120, Note_on_c, 6, 82, 50
8, 57144, Note_on_c, 6, 82, 0
8, 57264, Note_on_c, 6, 82, 50
8, 57288, Note_on_c, 6, 82, 0
8, 57408, Note_on_c, 6, 82, 50
8, 57432, Note_on_c, 6, 82, 0
8, 57984, Note_on_c, 6, 74, 77
8, 57984, Note_on_c, 6, 77, 77
8, 58008, Note_on_c, 6, 77, 0
8, 58008, Note_on_c, 6, 74, 0
8, 58272, Note_on_c, 6, 65, 90
8, 58272, Note_on_c, 6, 77, 90
8, 58296, Note_on_c, 6, 77, 0
8, 58296, Note_on_c, 6, 65, 0
8, 58560, Note_on_c, 6, 74, 120
8, 58560, Note_on_c, 6, 77, 120
8, 58590, Note_on_c, 6, 77, 0
8, 58590, Note_on_c, 6, 74, 0
8, 58848, Note_on_c, 6, 77, 120
8, 58848, Note_on_c, 6, 81, 120
8, 58878, Note_on_c, 6, 81, 0
8, 58878, Note_on_c, 6, 77, 0
8, 59136, Note_on_c, 6, 81, 125
8, 59171, Note_on_c, 6, 81, 0
8, 59208, Note_on_c, 6, 69, 115
8, 59220, Note_on_c, 6, 69, 0
8, 59232, Note_on_c, 6, 69, 115
8, 59256, Note_on_c, 6, 69, 0
8, 59280, Note_on_c, 6, 81, 125
8, 59315, Note_on_c, 6, 81, 0
8, 59352, Note_on_c, 6, 69, 115
8, 59364, Note_on_c, 6, 69, 0
8, 59376, Note_on_c, 6, 69, 115
8, 59400, Note_on_c, 6, 69, 0
8, 59424, Note_on_c, 6, 81, 125
8, 59459, Note_on_c, 6, 81, 0
8, 59496, Note_on_c, 6, 69, 115
8, 59508, Note_on_c, 6, 69, 0
8, 59520, Note_on_c, 6, 69, 115
8, 59544, Note_on_c, 6, 69, 0
8, 59568, Note_on_c, 6, 81, 125
8, 59603, Note_on_c, 6, 81, 0
8, 59640, Note_on_c, 6, 69, 115
8, 59652, Note_on_c, 6, 69, 0
8, 59664, Note_on_c, 6, 69, 115
8, 59688, Note_on_c, 6, 69, 0
8, 59712, Note_on_c, 6, 81, 125
8, 59747, Note_on_c, 6, 81, 0
8, 59784, Note_on_c, 6, 69, 115
8, 59796, Note_on_c, 6, 69, 0
8, 59808, Note_on_c, 6, 69, 115
8, 59832, Note_on_c, 6, 69, 0
8, 59856, Note_on_c, 6, 74, 120
8, 59880, Note_on_c, 6, 74, 0
8, 59904, Note_on_c, 6, 76, 115
8, 59928, Note_on_c, 6, 76, 0
8, 59952, Note_on_c, 6, 77, 115
8, 59976, Note_on_c, 6, 77, 0
8, 60000, Note_on_c, 6, 76, 120
8, 60024, Note_on_c, 6, 76, 0
8, 60048, Note_on_c, 6, 77, 115
8, 60072, Note_on_c, 6, 77, 0
8, 60096, Note_on_c, 6, 79, 115
8, 60120, Note_on_c, 6, 79, 0
8, 60144, Note_on_c, 6, 77, 120
8, 60168, Note_on_c, 6, 77, 0
8, 60192, Note_on_c, 6, 76, 115
8, 60216, Note_on_c, 6, 76, 0
8, 60240, Note_on_c, 6, 74, 115
8, 60264, Note_on_c, 6, 74, 0
8, 60288, Note_on_c, 6, 82, 120
8, 60312, Note_on_c, 6, 82, 0
8, 60336, Note_on_c, 6, 81, 115
8, 60360, Note_on_c, 6, 81, 0
8, 60384, Note_on_c, 6, 79, 115
8, 60408, Note_on_c, 6, 79, 0
8, 60432, Note_on_c, 6, 77, 120
8, 60456, Note_on_c, 6, 77, 0
8, 60480, Note_on_c, 6, 76, 115
8, 60504, Note_on_c, 6, 76, 0
8, 60528, Note_on_c, 6, 74, 115
8, 60552, Note_on_c, 6, 74, 0
8, 60576, Note_on_c, 6, 73, 120
8, 60600, Note_on_c, 6, 73, 0
8, 60624, Note_on_c, 6, 74, 115
8, 60648, Note_on_c, 6, 74, 0
8, 60672, Note_on_c, 6, 76, 115
8, 60696, Note_on_c, 6, 76, 0
8, 60720, Note_on_c, 6, 74, 120
8, 60744, Note_on_c, 6, 74, 0
8, 60768, Note_on_c, 6, 73, 115
8, 60792, Note_on_c, 6, 73, 0
8, 60816, Note_on_c, 6, 74, 115
8, 60840, Note_on_c, 6, 74, 0
8, 60864, Note_on_c, 6, 82, 120
8, 60888, Note_on_c, 6, 82, 0
8, 60912, Note_on_c, 6, 81, 115
8, 60936, Note_on_c, 6, 81, 0
8, 60960, Note_on_c, 6, 79, 115
8, 60984, Note_on_c, 6, 79, 0
8, 61008, Note_on_c, 6, 77, 120
8, 61032, Note_on_c, 6, 77, 0
8, 61056, Note_on_c, 6, 76, 115
8, 61080, Note_on_c, 6, 76, 0
8, 61104, Note_on_c, 6, 74, 115
8, 61128, Note_on_c, 6, 74, 0
8, 61152, Note_on_c, 6, 73, 120
8, 61176, Note_on_c, 6, 73, 0
8, 61200, Note_on_c, 6, 74, 115
8, 61224, Note_on_c, 6, 74, 0
8, 61248, Note_on_c, 6, 76, 115
8, 61272, Note_on_c, 6, 76, 0
8, 61296, Note_on_c, 6, 74, 120
8, 61320, Note_on_c, 6, 74, 0
8, 61344, Note_on_c, 6, 73, 115
8, 61368, Note_on_c, 6, 73, 0
8, 61392, Note_on_c, 6, 74, 115
8, 61416, Note_on_c, 6, 74, 0
8, 61440, Note_on_c, 6, 72, 120
8, 61464, Note_on_c, 6, 72, 0
8, 61488, Note_on_c, 6, 74, 115
8, 61512, Note_on_c, 6, 74, 0
8, 61536, Note_on_c, 6, 75, 115
8, 61560, Note_on_c, 6, 75, 0
8, 61584, Note_on_c, 6, 79, 120
8, 61608, Note_on_c, 6, 79, 0
8, 61632, Note_on_c, 6, 81, 115
8, 61656, Note_on_c, 6, 81, 0
8, 61680, Note_on_c, 6, 82, 115
8, 61704, Note_on_c, 6, 82, 0
8, 61728, Note_on_c, 6, 81, 120
8, 61752, Note_on_c, 6, 81, 0
8, 61776, Note_on_c, 6, 82, 115
8, 61800, Note_on_c, 6, 82, 0
8, 61824, Note_on_c, 6, 84, 115
8, 61848, Note_on_c, 6, 84, 0
8, 61872, Note_on_c, 6, 82, 120
8, 61896, Note_on_c, 6, 82, 0
8, 61920, Note_on_c, 6, 81, 115
8, 61944, Note_on_c, 6, 81, 0
8, 61968, Note_on_c, 6, 79, 115
8, 61992, Note_on_c, 6, 79, 0
8, 62016, Note_on_c, 6, 75, 105
8, 62040, Note_on_c, 6, 75, 0
8, 62064, Note_on_c, 6, 74, 100
8, 62088, Note_on_c, 6, 74, 0
8, 62112, Note_on_c, 6, 72, 100
8, 62136, Note_on_c, 6, 72, 0
8, 62160, Note_on_c, 6, 70, 105
8, 62184, Note_on_c, 6, 70, 0
8, 62208, Note_on_c, 6, 69, 100
8, 62232, Note_on_c, 6, 69, 0
8, 62256, Note_on_c, 6, 67, 100
8, 62280, Note_on_c, 6, 67, 0
8, 62304, Note_on_c, 6, 77, 105
8, 62328, Note_on_c, 6, 77, 0
8, 62352, Note_on_c, 6, 75, 100
8, 62376, Note_on_c, 6, 75, 0
8, 62400, Note_on_c, 6, 74, 100
8, 62424, Note_on_c, 6, 74, 0
8, 62448, Note_on_c, 6, 72, 105
8, 62472, Note_on_c, 6, 72, 0
8, 62496, Note_on_c, 6, 70, 100
8, 62520, Note_on_c, 6, 70, 0
8, 62544, Note_on_c, 6, 69, 100
8, 62568, Note_on_c, 6, 69, 0
8, 62592, Note_on_c, 6, 69, 105
8, 62616, Note_on_c, 6, 69, 0
8, 62640, Note_on_c, 6, 70, 100
8, 62664, Note_on_c, 6, 70, 0
8, 62688, Note_on_c, 6, 72, 100
8, 62712, Note_on_c, 6, 72, 0
8, 62736, Note_on_c, 6, 74, 105
8, 62760, Note_on_c, 6, 74, 0
8, 62784, Note_on_c, 6, 75, 100
8, 62808, Note_on_c, 6, 75, 0
8, 62832, Note_on_c, 6, 77, 100
8, 62856, Note_on_c, 6, 77, 0
8, 62880, Note_on_c, 6, 79, 105
8, 62904, Note_on_c, 6, 79, 0
8, 62928, Note_on_c, 6, 81, 100
8, 62952, Note_on_c, 6, 81, 0
8, 62976, Note_on_c, 6, 82, 100
8, 63000, Note_on_c, 6, 82, 0
8, 63024, Note_on_c, 6, 84, 105
8, 63048, Note_on_c, 6, 84, 0
8, 63072, Note_on_c, 6, 86, 100
8, 63096, Note_on_c, 6, 86, 0
8, 63120, Note_on_c, 6, 75, 100
8, 63144, Note_on_c, 6, 75, 0
8, 63168, Control_c, 6, 1, 0
8, 63168, Note_on_c, 6, 77, 100
8, 63169, Control_c, 6, 1, 1
8, 63170, Control_c, 6, 1, 2
8, 63171, Control_c, 6, 1, 3
8, 63172, Control_c, 6, 1, 4
8, 63174, Control_c, 6, 1, 5
8, 63176, Control_c, 6, 1, 6
8, 63177, Control_c, 6, 1, 7
8, 63179, Control_c, 6, 1, 8
8, 63181, Control_c, 6, 1, 9
8, 63184, Control_c, 6, 1, 10
8, 63186, Control_c, 6, 1, 11
8, 63189, Control_c, 6, 1, 12
8, 63192, Control_c, 6, 11, 60
8, 63192, Control_c, 6, 1, 13
8, 63195, Control_c, 6, 1, 14
8, 63199, Control_c, 6, 1, 15
8, 63204, Control_c, 6, 1, 16
8, 63209, Control_c, 6, 1, 17
8, 63217, Control_c, 6, 1, 18
8, 63227, Control_c, 6, 1, 19
8, 63245, Control_c, 6, 1, 20
8, 63456, Control_c, 6, 11, 60
8, 63476, Control_c, 6, 11, 61
8, 63495, Control_c, 6, 11, 62
8, 63514, Control_c, 6, 11, 63
8, 63533, Control_c, 6, 11, 64
8, 63552, Control_c, 6, 11, 65
8, 63571, Control_c, 6, 11, 66
8, 63591, Control_c, 6, 11, 67
8, 63600, Note_on_c, 6, 75, 100
8, 63601, Note_on_c, 6, 77, 0
8, 63610, Control_c, 6, 11, 68
8, 63629, Control_c, 6, 11, 69
8, 63648, Control_c, 6, 11, 70
8, 63667, Control_c, 6, 11, 71
8, 63686, Control_c, 6, 11, 72
8, 63706, Control_c, 6, 11, 73
8, 63725, Control_c, 6, 11, 74
8, 63744, Control_c, 6, 11, 75
8, 63763, Control_c, 6, 11, 76
8, 63782, Control_c, 6, 11, 77
8, 63801, Control_c, 6, 11, 78
8, 63821, Control_c, 6, 11, 79
8, 63840, Control_c, 6, 11, 80
8, 63859, Control_c, 6, 11, 81
8, 63878, Control_c, 6, 11, 82
8, 63888, Note_on_c, 6, 74, 100
8, 63889, Note_on_c, 6, 75, 0
8, 63897, Control_c, 6, 11, 83
8, 63916, Control_c, 6, 11, 84
8, 63936, Control_c, 6, 11, 85
8, 63955, Control_c, 6, 11, 86
8, 63974, Control_c, 6, 11, 87
8, 63993, Control_c, 6, 11, 88
8, 64012, Control_c, 6, 11, 89
8, 64031, Control_c, 6, 11, 90
8, 64032, Control_c, 6, 11, 90
8, 64032, Note_on_c, 6, 73, 100
8, 64033, Note_on_c, 6, 74, 0
8, 64042, Control_c, 6, 11, 89
8, 64052, Control_c, 6, 11, 88
8, 64061, Control_c, 6, 11, 87
8, 64071, Control_c, 6, 11, 86
8, 64080, Control_c, 6, 11, 85
8, 64090, Control_c, 6, 11, 84
8, 64099, Control_c, 6, 11, 83
8, 64109, Control_c, 6, 11, 82
8, 64119, Control_c, 6, 11, 81
8, 64128, Control_c, 6, 11, 80
8, 64138, Control_c, 6, 11, 79
8, 64147, Control_c, 6, 11, 78
8, 64157, Control_c, 6, 11, 77
8, 64166, Control_c, 6, 11, 76
8, 64176, Note_on_c, 6, 72, 100
8, 64176, Control_c, 6, 11, 75
8, 64177, Note_on_c, 6, 73, 0
8, 64186, Control_c, 6, 11, 74
8, 64195, Control_c, 6, 11, 73
8, 64205, Control_c, 6, 11, 72
8, 64214, Control_c, 6, 11, 71
8, 64224, Control_c, 6, 11, 70
8, 64233, Control_c, 6, 11, 69
8, 64243, Control_c, 6, 11, 68
8, 64253, Control_c, 6, 11, 67
8, 64262, Control_c, 6, 11, 66
8, 64272, Control_c, 6, 11, 65
8, 64281, Control_c, 6, 11, 64
8, 64291, Control_c, 6, 11, 63
8, 64300, Control_c, 6, 11, 62
8, 64310, Control_c, 6, 11, 61
8, 64319, Control_c, 6, 11, 60
8, 64320, Control_c, 6, 1, 0
8, 64320, Note_on_c, 6, 82, 100
8, 64321, Note_on_c, 6, 72, 0
8, 64321, Control_c, 6, 1, 1
8, 64322, Control_c, 6, 1, 2
8, 64323, Control_c, 6, 1, 3
8, 64324, Control_c, 6, 1, 4
8, 64326, Control_c, 6, 1, 5
8, 64328, Control_c, 6, 1, 6
8, 64329, Control_c, 6, 1, 7
8, 64331, Control_c, 6, 1, 8
8, 64333, Control_c, 6, 1, 9
8, 64336, Control_c, 6, 1, 10
8, 64338, Control_c, 6, 1, 11
8, 64341, Control_c, 6, 1, 12
8, 64344, Control_c, 6, 1, 13
8, 64347, Control_c, 6, 1, 14
8, 64351, Control_c, 6, 1, 15
8, 64356, Control_c, 6, 1, 16
8, 64361, Control_c, 6, 1, 17
8, 64369, Control_c, 6, 1, 18
8, 64379, Control_c, 6, 1, 19
8, 64397, Control_c, 6, 1, 20
8, 64608, Note_on_c, 6, 81, 100
8, 64609, Note_on_c, 6, 82, 0
8, 64752, Control_c, 6, 11, 60
8, 64767, Control_c, 6, 11, 61
8, 64781, Control_c, 6, 11, 62
8, 64796, Control_c, 6, 11, 63
8, 64810, Control_c, 6, 11, 64
8, 64824, Control_c, 6, 11, 65
8, 64839, Control_c, 6, 11, 66
8, 64853, Control_c, 6, 11, 67
8, 64867, Control_c, 6, 11, 68
8, 64882, Control_c, 6, 11, 69
8, 64896, Note_on_c, 6, 83, 100
8, 64896, Control_c, 6, 11, 70
8, 64911, Control_c, 6, 11, 71
8, 64925, Control_c, 6, 11, 72
8, 64939, Control_c, 6, 11, 73
8, 64954, Control_c, 6, 11, 74
8, 64968, Control_c, 6, 11, 75
8, 64982, Control_c, 6, 11, 76
8, 64997, Control_c, 6, 11, 77
8, 65011, Control_c, 6, 11, 78
8, 65026, Control_c, 6, 11, 79
8, 65040, Note_on_c, 6, 79, 100
8, 65040, Control_c, 6, 11, 80
8, 65041, Note_on_c, 6, 81, 0
8, 65054, Control_c, 6, 11, 81
8, 65069, Control_c, 6, 11, 82
8, 65083, Control_c, 6, 11, 83
8, 65097, Control_c, 6, 11, 84
8, 65112, Control_c, 6, 11, 85
8, 65126, Control_c, 6, 11, 86
8, 65141, Control_c, 6, 11, 87
8, 65155, Control_c, 6, 11, 88
8, 65169, Control_c, 6, 11, 89
8, 65184, Note_on_c, 6, 82, 100
8, 65184, Control_c, 6, 11, 90
8, 65185, Note_on_c, 6, 83, 0
8, 65198, Control_c, 6, 11, 91
8, 65212, Control_c, 6, 11, 92
8, 65227, Control_c, 6, 11, 93
8, 65241, Control_c, 6, 11, 94
8, 65256, Control_c, 6, 11, 95
8, 65270, Control_c, 6, 11, 96
8, 65284, Control_c, 6, 11, 97
8, 65299, Control_c, 6, 11, 98
8, 65313, Control_c, 6, 11, 99
8, 65327, Control_c, 6, 11, 100
8, 65328, Control_c, 6, 11, 100
8, 65328, Note_on_c, 6, 78, 100
8, 65328, Note_on_c, 6, 81, 100
8, 65329, Note_on_c, 6, 82, 0
8, 65329, Note_on_c, 6, 79, 0
8, 65339, Control_c, 6, 11, 99
8, 65350, Control_c, 6, 11, 98
8, 65361, Control_c, 6, 11, 97
8, 65372, Control_c, 6, 11, 96
8, 65382, Control_c, 6, 11, 95
8, 65393, Control_c, 6, 11, 94
8, 65404, Control_c, 6, 11, 93
8, 65415, Control_c, 6, 11, 92
8, 65425, Control_c, 6, 11, 91
8, 65436, Control_c, 6, 11, 90
8, 65447, Control_c, 6, 11, 89
8, 65458, Control_c, 6, 11, 88
8, 65469, Control_c, 6, 11, 87
8, 65472, Note_on_c, 6, 77, 100
8, 65473, Note_on_c, 6, 78, 0
8, 65479, Control_c, 6, 11, 86
8, 65490, Control_c, 6, 11, 85
8, 65501, Control_c, 6, 11, 84
8, 65512, Control_c, 6, 11, 83
8, 65522, Control_c, 6, 11, 82
8, 65533, Control_c, 6, 11, 81
8, 65544, Control_c, 6, 11, 80
8, 65555, Control_c, 6, 11, 79
8, 65566, Control_c, 6, 11, 78
8, 65576, Control_c, 6, 11, 77
8, 65587, Control_c, 6, 11, 76
8, 65598, Control_c, 6, 11, 75
8, 65609, Control_c, 6, 11, 74
8, 65616, Note_on_c, 6, 76, 100
8, 65617, Note_on_c, 6, 77, 0
8, 65619, Control_c, 6, 11, 73
8, 65630, Control_c, 6, 11, 72
8, 65641, Control_c, 6, 11, 71
8, 65652, Control_c, 6, 11, 70
8, 65663, Control_c, 6, 11, 69
8, 65673, Control_c, 6, 11, 68
8, 65684, Control_c, 6, 11, 67
8, 65695, Control_c, 6, 11, 66
8, 65706, Control_c, 6, 11, 65
8, 65716, Control_c, 6, 11, 64
8, 65727, Control_c, 6, 11, 63
8, 65738, Control_c, 6, 11, 62
8, 65749, Control_c, 6, 11, 61
8, 65759, Control_c, 6, 11, 60
8, 65760, Note_on_c, 6, 81, 0
8, 65760, Note_on_c, 6, 76, 0
8, 67056, Control_c, 6, 11, 60
8, 67056, Control_c, 6, 1, 0
8, 67056, Note_on_c, 6, 78, 100
8, 67057, Control_c, 6, 1, 1
8, 67058, Control_c, 6, 1, 2
8, 67059, Control_c, 6, 1, 3
8, 67060, Control_c, 6, 1, 4
8, 67062, Control_c, 6, 1, 5
8, 67064, Control_c, 6, 1, 6
8, 67065, Control_c, 6, 1, 7
8, 67067, Control_c, 6, 1, 8
8, 67069, Control_c, 6, 1, 9
8, 67072, Control_c, 6, 1, 10
8, 67073, Control_c, 6, 11, 61
8, 67074, Control_c, 6, 1, 11
8, 67077, Control_c, 6, 1, 12
8, 67080, Control_c, 6, 1, 13
8, 67083, Control_c, 6, 1, 14
8, 67087, Control_c, 6, 1, 15
8, 67090, Control_c, 6, 11, 62
8, 67092, Control_c, 6, 1, 16
8, 67097, Control_c, 6, 1, 17
8, 67105, Control_c, 6, 1, 18
8, 67107, Control_c, 6, 11, 63
8, 67115, Control_c, 6, 1, 19
8, 67124, Control_c, 6, 11, 64
8, 67133, Control_c, 6, 1, 20
8, 67140, Control_c, 6, 11, 65
8, 67157, Control_c, 6, 11, 66
8, 67174, Control_c, 6, 11, 67
8, 67191, Control_c, 6, 11, 68
8, 67200, Note_on_c, 6, 75, 100
8, 67208, Control_c, 6, 11, 69
8, 67224, Control_c, 6, 11, 70
8, 67241, Control_c, 6, 11, 71
8, 67258, Control_c, 6, 11, 72
8, 67275, Control_c, 6, 11, 73
8, 67291, Control_c, 6, 11, 74
8, 67308, Control_c, 6, 11, 75
8, 67325, Control_c, 6, 11, 76
8, 67342, Control_c, 6, 11, 77
8, 67344, Note_on_c, 6, 76, 100
8, 67344, Note_on_c, 6, 79, 100
8, 67345, Note_on_c, 6, 78, 0
8, 67345, Note_on_c, 6, 75, 0
8, 67359, Control_c, 6, 11, 78
8, 67375, Control_c, 6, 11, 79
8, 67392, Control_c, 6, 11, 80
8, 67409, Control_c, 6, 11, 81
8, 67426, Control_c, 6, 11, 82
8, 67443, Control_c, 6, 11, 83
8, 67459, Control_c, 6, 11, 84
8, 67476, Control_c, 6, 11, 85
8, 67488, Note_on_c, 6, 73, 100
8, 67489, Note_on_c, 6, 79, 0
8, 67493, Control_c, 6, 11, 86
8, 67510, Control_c, 6, 11, 87
8, 67526, Control_c, 6, 11, 88
8, 67543, Control_c, 6, 11, 89
8, 67560, Control_c, 6, 11, 90
8, 67577, Control_c, 6, 11, 91
8, 67594, Control_c, 6, 11, 92
8, 67610, Control_c, 6, 11, 93
8, 67627, Control_c, 6, 11, 94
8, 67632, Note_on_c, 6, 74, 100
8, 67632, Note_on_c, 6, 78, 100
8, 67633, Note_on_c, 6, 76, 0
8, 67633, Note_on_c, 6, 73, 0
8, 67644, Control_c, 6, 11, 95
8, 67661, Control_c, 6, 11, 96
8, 67677, Control_c, 6, 11, 97
8, 67694, Control_c, 6, 11, 98
8, 67711, Control_c, 6, 11, 99
8, 67728, Control_c, 6, 11, 100
8, 67745, Control_c, 6, 11, 101
8, 67761, Control_c, 6, 11, 102
8, 67776, Note_on_c, 6, 81, 100
8, 67777, Note_on_c, 6, 78, 0
8, 67778, Control_c, 6, 11, 103
8, 67795, Control_c, 6, 11, 104
8, 67812, Control_c, 6, 11, 105
8, 67829, Control_c, 6, 11, 106
8, 67845, Control_c, 6, 11, 107
8, 67862, Control_c, 6, 11, 108
8, 67879, Control_c, 6, 11, 109
8, 67896, Control_c, 6, 11, 110
8, 67912, Control_c, 6, 11, 111
8, 67920, Note_on_c, 6, 73, 100
8, 67921, Note_on_c, 6, 74, 0
8, 67929, Control_c, 6, 11, 112
8, 67946, Control_c, 6, 11, 113
8, 67963, Control_c, 6, 11, 114
8, 67980, Control_c, 6, 11, 115
8, 67996, Control_c, 6, 11, 116
8, 68013, Control_c, 6, 11, 117
8, 68014, Note_on_c, 6, 81, 0
8, 68014, Note_on_c, 6, 73, 0
8, 68016, Note_on_c, 6, 73, 100
8, 68030, Control_c, 6, 11, 118
8, 68047, Control_c, 6, 11, 119
8, 68063, Control_c, 6, 11, 120
8, 68064, Note_on_c, 6, 73, 0
8, 68064, Control_c, 6, 1, 0
8, 68064, Note_on_c, 6, 74, 113
8, 68160, Note_on_c, 6, 74, 0
8, 68160, Note_on_c, 6, 76, 111
8, 68184, Note_on_c, 6, 76, 0
8, 68184, Note_on_c, 6, 78, 112
8, 68208, Note_on_c, 6, 78, 0
8, 68208, Note_on_c, 6, 79, 113
8, 68232, Note_on_c, 6, 79, 0
8, 68304, Note_on_c, 6, 78, 110
8, 68328, Note_on_c, 6, 78, 0
8, 68352, Note_on_c, 6, 76, 113
8, 68376, Note_on_c, 6, 76, 0
8, 68448, Note_on_c, 6, 74, 110
8, 68472, Note_on_c, 6, 74, 0
8, 68496, Note_on_c, 6, 76, 113
8, 68520, Note_on_c, 6, 76, 0
8, 68592, Note_on_c, 6, 73, 110
8, 68616, Note_on_c, 6, 73, 0
8, 68640, Note_on_c, 6, 74, 113
8, 68640, Note_on_c, 6, 78, 113
8, 68736, Note_on_c, 6, 78, 0
8, 68736, Note_on_c, 6, 74, 0
8, 68736, Note_on_c, 6, 76, 111
8, 68736, Note_on_c, 6, 79, 111
8, 68760, Note_on_c, 6, 79, 0
8, 68760, Note_on_c, 6, 76, 0
8, 68760, Note_on_c, 6, 78, 112
8, 68760, Note_on_c, 6, 81, 112
8, 68784, Note_on_c, 6, 81, 0
8, 68784, Note_on_c, 6, 78, 0
8, 68784, Note_on_c, 6, 79, 113
8, 68784, Note_on_c, 6, 83, 113
8, 68808, Note_on_c, 6, 83, 0
8, 68808, Note_on_c, 6, 79, 0
8, 68880, Note_on_c, 6, 78, 110
8, 68880, Note_on_c, 6, 81, 110
8, 68904, Note_on_c, 6, 81, 0
8, 68904, Note_on_c, 6, 78, 0
8, 68928, Note_on_c, 6, 76, 113
8, 68928, Note_on_c, 6, 79, 113
8, 68952, Note_on_c, 6, 79, 0
8, 68952, Note_on_c, 6, 76, 0
8, 69024, Note_on_c, 6, 74, 110
8, 69024, Note_on_c, 6, 78, 110
8, 69048, Note_on_c, 6, 78, 0
8, 69048, Note_on_c, 6, 74, 0
8, 69072, Note_on_c, 6, 76, 113
8, 69072, Note_on_c, 6, 79, 113
8, 69096, Note_on_c, 6, 79, 0
8, 69096, Note_on_c, 6, 76, 0
8, 69168, Note_on_c, 6, 73, 110
8, 69168, Note_on_c, 6, 76, 110
8, 69192, Note_on_c, 6, 76, 0
8, 69192, Note_on_c, 6, 73, 0
8, 69216, Note_on_c, 6, 74, 113
8, 69240, Note_on_c, 6, 74, 0
8, 69264, Note_on_c, 6, 65, 110
8, 69264, Note_on_c, 6, 74, 110
8, 69312, Note_on_c, 6, 74, 0
8, 69312, Note_on_c, 6, 65, 0
8, 69312, Note_on_c, 6, 67, 111
8, 69312, Note_on_c, 6, 76, 111
8, 69336, Note_on_c, 6, 76, 0
8, 69336, Note_on_c, 6, 67, 0
8, 69336, Note_on_c, 6, 69, 112
8, 69336, Note_on_c, 6, 77, 112
8, 69360, Note_on_c, 6, 77, 0
8, 69360, Note_on_c, 6, 69, 0
8, 69360, Note_on_c, 6, 70, 113
8, 69360, Note_on_c, 6, 79, 113
8, 69384, Note_on_c, 6, 79, 0
8, 69384, Note_on_c, 6, 70, 0
8, 69408, Note_on_c, 6, 70, 110
8, 69408, Note_on_c, 6, 79, 110
8, 69432, Note_on_c, 6, 79, 0
8, 69432, Note_on_c, 6, 70, 0
8, 69456, Note_on_c, 6, 69, 110
8, 69456, Note_on_c, 6, 77, 110
8, 69480, Note_on_c, 6, 77, 0
8, 69480, Note_on_c, 6, 69, 0
8, 69504, Note_on_c, 6, 67, 113
8, 69504, Note_on_c, 6, 76, 113
8, 69528, Note_on_c, 6, 76, 0
8, 69528, Note_on_c, 6, 67, 0
8, 69552, Note_on_c, 6, 67, 110
8, 69552, Note_on_c, 6, 76, 110
8, 69576, Note_on_c, 6, 76, 0
8, 69576, Note_on_c, 6, 67, 0
8, 69600, Note_on_c, 6, 65, 110
8, 69600, Note_on_c, 6, 74, 110
8, 69624, Note_on_c, 6, 74, 0
8, 69624, Note_on_c, 6, 65, 0
8, 69648, Note_on_c, 6, 67, 113
8, 69648, Note_on_c, 6, 76, 113
8, 69672, Note_on_c, 6, 76, 0
8, 69672, Note_on_c, 6, 67, 0
8, 69696, Note_on_c, 6, 67, 110
8, 69696, Note_on_c, 6, 76, 110
8, 69720, Note_on_c, 6, 76, 0
8, 69720, Note_on_c, 6, 67, 0
8, 69744, Note_on_c, 6, 64, 110
8, 69744, Note_on_c, 6, 73, 110
8, 69768, Note_on_c, 6, 73, 0
8, 69768, Note_on_c, 6, 64, 0
8, 69792, Note_on_c, 6, 74, 113
8, 69792, Note_on_c, 6, 77, 113
8, 69816, Note_on_c, 6, 77, 0
8, 69816, Note_on_c, 6, 74, 0
8, 69840, Note_on_c, 6, 74, 111
8, 69840, Note_on_c, 6, 77, 111
8, 69888, Note_on_c, 6, 77, 0
8, 69888, Note_on_c, 6, 74, 0
8, 69888, Note_on_c, 6, 76, 112
8, 69888, Note_on_c, 6, 79, 112
8, 69912, Note_on_c, 6, 79, 0
8, 69912, Note_on_c, 6, 76, 0
8, 69912, Note_on_c, 6, 77, 113
8, 69912, Note_on_c, 6, 81, 113
8, 69936, Note_on_c, 6, 81, 0
8, 69936, Note_on_c, 6, 77, 0
8, 69936, Note_on_c, 6, 79, 113
8, 69936, Note_on_c, 6, 82, 113
8, 69960, Note_on_c, 6, 82, 0
8, 69960, Note_on_c, 6, 79, 0
8, 69984, Note_on_c, 6, 79, 110
8, 69984, Note_on_c, 6, 82, 110
8, 70008, Note_on_c, 6, 82, 0
8, 70008, Note_on_c, 6, 79, 0
8, 70032, Note_on_c, 6, 77, 110
8, 70032, Note_on_c, 6, 81, 110
8, 70056, Note_on_c, 6, 81, 0
8, 70056, Note_on_c, 6, 77, 0
8, 70080, Note_on_c, 6, 76, 113
8, 70080, Note_on_c, 6, 79, 113
8, 70104, Note_on_c, 6, 79, 0
8, 70104, Note_on_c, 6, 76, 0
8, 70128, Note_on_c, 6, 76, 110
8, 70128, Note_on_c, 6, 79, 110
8, 70152, Note_on_c, 6, 79, 0
8, 70152, Note_on_c, 6, 76, 0
8, 70176, Note_on_c, 6, 74, 110
8, 70176, Note_on_c, 6, 77, 110
8, 70200, Note_on_c, 6, 77, 0
8, 70200, Note_on_c, 6, 74, 0
8, 70224, Note_on_c, 6, 76, 113
8, 70224, Note_on_c, 6, 79, 113
8, 70248, Note_on_c, 6, 79, 0
8, 70248, Note_on_c, 6, 76, 0
8, 70272, Note_on_c, 6, 76, 110
8, 70272, Note_on_c, 6, 79, 110
8, 70296, Note_on_c, 6, 79, 0
8, 70296, Note_on_c, 6, 76, 0
8, 70320, Note_on_c, 6, 73, 110
8, 70320, Note_on_c, 6, 76, 110
8, 70344, Note_on_c, 6, 76, 0
8, 70344, Note_on_c, 6, 73, 0
8, 70368, Note_on_c, 6, 77, 116
8, 70403, Note_on_c, 6, 77, 0
8, 70440, Note_on_c, 6, 65, 113
8, 70452, Note_on_c, 6, 65, 0
8, 70464, Note_on_c, 6, 65, 113
8, 70488, Note_on_c, 6, 65, 0
8, 70512, Note_on_c, 6, 77, 116
8, 70536, Note_on_c, 6, 77, 0
8, 70560, Note_on_c, 6, 79, 113
8, 70584, Note_on_c, 6, 79, 0
8, 70608, Note_on_c, 6, 81, 113
8, 70632, Note_on_c, 6, 81, 0
8, 70656, Note_on_c, 6, 82, 113
8, 70680, Note_on_c, 6, 82, 0
8, 70800, Note_on_c, 6, 70, 116
8, 70800, Note_on_c, 6, 82, 116
8, 70824, Note_on_c, 6, 82, 0
8, 70824, Note_on_c, 6, 70, 0
8, 70848, Note_on_c, 6, 72, 113
8, 70848, Note_on_c, 6, 84, 113
8, 70872, Note_on_c, 6, 84, 0
8, 70872, Note_on_c, 6, 72, 0
8, 70896, Note_on_c, 6, 74, 113
8, 70896, Note_on_c, 6, 86, 113
8, 70920, Note_on_c, 6, 86, 0
8, 70920, Note_on_c, 6, 74, 0
8, 70944, Note_on_c, 6, 76, 116
8, 70979, Note_on_c, 6, 76, 0
8, 71016, Note_on_c, 6, 64, 113
8, 71028, Note_on_c, 6, 64, 0
8, 71040, Note_on_c, 6, 64, 113
8, 71064, Note_on_c, 6, 64, 0
8, 71088, Note_on_c, 6, 64, 116
8, 71088, Note_on_c, 6, 76, 116
8, 71112, Note_on_c, 6, 76, 0
8, 71112, Note_on_c, 6, 64, 0
8, 71136, Note_on_c, 6, 65, 113
8, 71136, Note_on_c, 6, 77, 113
8, 71160, Note_on_c, 6, 77, 0
8, 71160, Note_on_c, 6, 65, 0
8, 71184, Note_on_c, 6, 67, 113
8, 71184, Note_on_c, 6, 79, 113
8, 71208, Note_on_c, 6, 79, 0
8, 71208, Note_on_c, 6, 67, 0
8, 71232, Note_on_c, 6, 69, 116
8, 71232, Note_on_c, 6, 81, 116
8, 71256, Note_on_c, 6, 81, 0
8, 71256, Note_on_c, 6, 69, 0
8, 71376, Note_on_c, 6, 69, 116
8, 71400, Note_on_c, 6, 69, 0
8, 71424, Note_on_c, 6, 74, 116
8, 71448, Note_on_c, 6, 74, 0
8, 71472, Note_on_c, 6, 76, 113
8, 71496, Note_on_c, 6, 76, 0
8, 71520, Note_on_c, 6, 74, 60
8, 71520, Note_on_c, 6, 78, 60
8, 71544, Note_on_c, 6, 78, 0
8, 71544, Note_on_c, 6, 74, 0
8, 71808, Note_on_c, 6, 74, 60
8, 71808, Note_on_c, 6, 79, 60
8, 71832, Note_on_c, 6, 79, 0
8, 71832, Note_on_c, 6, 74, 0
8, 72384, Control_c, 6, 1, 0
8, 72384, Control_c, 6, 11, 60
8, 72384, Note_on_c, 6, 75, 100
8, 72384, Note_on_c, 6, 79, 100
8, 72385, Control_c, 6, 1, 1
8, 72386, Control_c, 6, 1, 2
8, 72387, Control_c, 6, 1, 3
8, 72388, Control_c, 6, 1, 4
8, 72390, Control_c, 6, 1, 5
8, 72392, Control_c, 6, 1, 6
8, 72393, Control_c, 6, 1, 7
8, 72394, Control_c, 6, 11, 61
8, 72395, Control_c, 6, 1, 8
8, 72397, Control_c, 6, 1, 9
8, 72400, Control_c, 6, 1, 10
8, 72402, Control_c, 6, 1, 11
8, 72404, Control_c, 6, 11, 62
8, 72405, Control_c, 6, 1, 12
8, 72408, Control_c, 6, 1, 13
8, 72411, Control_c, 6, 1, 14
8, 72413, Control_c, 6, 11, 63
8, 72415, Control_c, 6, 1, 15
8, 72420, Control_c, 6, 1, 16
8, 72423, Control_c, 6, 11, 64
8, 72425, Control_c, 6, 1, 17
8, 72432, Control_c, 6, 11, 65
8, 72433, Control_c, 6, 1, 18
8, 72442, Control_c, 6, 11, 66
8, 72443, Control_c, 6, 1, 19
8, 72452, Control_c, 6, 11, 67
8, 72461, Control_c, 6, 11, 68
8, 72461, Control_c, 6, 1, 20
8, 72471, Control_c, 6, 11, 69
8, 72480, Control_c, 6, 11, 70
8, 72490, Control_c, 6, 11, 71
8, 72499, Control_c, 6, 11, 72
8, 72509, Control_c, 6, 11, 73
8, 72519, Control_c, 6, 11, 74
8, 72527, Note_on_c, 6, 79, 0
8, 72527, Note_on_c, 6, 75, 0
8, 72528, Note_on_c, 6, 75, 100
8, 72528, Note_on_c, 6, 79, 100
8, 72528, Control_c, 6, 11, 75
8, 72538, Control_c, 6, 11, 76
8, 72547, Control_c, 6, 11, 77
8, 72557, Control_c, 6, 11, 78
8, 72567, Control_c, 6, 11, 79
8, 72576, Control_c, 6, 11, 80
8, 72586, Control_c, 6, 11, 81
8, 72595, Control_c, 6, 11, 82
8, 72605, Control_c, 6, 11, 83
8, 72614, Control_c, 6, 11, 84
8, 72624, Control_c, 6, 11, 85
8, 72634, Control_c, 6, 11, 86
8, 72643, Control_c, 6, 11, 87
8, 72653, Control_c, 6, 11, 88
8, 72662, Control_c, 6, 11, 89
8, 72671, Note_on_c, 6, 79, 0
8, 72671, Note_on_c, 6, 75, 0
8, 72672, Note_on_c, 6, 76, 100
8, 72672, Note_on_c, 6, 79, 100
8, 72672, Control_c, 6, 11, 90
8, 72682, Control_c, 6, 11, 91
8, 72691, Control_c, 6, 11, 92
8, 72701, Control_c, 6, 11, 93
8, 72710, Control_c, 6, 11, 94
8, 72720, Control_c, 6, 11, 95
8, 72729, Control_c, 6, 11, 96
8, 72739, Control_c, 6, 11, 97
8, 72749, Control_c, 6, 11, 98
8, 72758, Control_c, 6, 11, 99
8, 72768, Control_c, 6, 11, 100
8, 72777, Control_c, 6, 11, 101
8, 72787, Control_c, 6, 11, 102
8, 72797, Control_c, 6, 11, 103
8, 72806, Control_c, 6, 11, 104
8, 72816, Control_c, 6, 11, 105
8, 72825, Control_c, 6, 11, 106
8, 72835, Control_c, 6, 11, 107
8, 72844, Control_c, 6, 11, 108
8, 72854, Control_c, 6, 11, 109
8, 72864, Note_on_c, 6, 79, 0
8, 72864, Note_on_c, 6, 76, 0
8, 72864, Note_on_c, 6, 74, 100
8, 72864, Note_on_c, 6, 77, 100
8, 72864, Control_c, 6, 11, 110
8, 72873, Control_c, 6, 11, 111
8, 72883, Control_c, 6, 11, 112
8, 72892, Control_c, 6, 11, 113
8, 72902, Control_c, 6, 11, 114
8, 72912, Note_on_c, 6, 77, 0
8, 72912, Note_on_c, 6, 74, 0
8, 72912, Note_on_c, 6, 76, 100
8, 72912, Note_on_c, 6, 79, 100
8, 72912, Control_c, 6, 11, 115
8, 72921, Control_c, 6, 11, 116
8, 72931, Control_c, 6, 11, 117
8, 72940, Control_c, 6, 11, 118
8, 72950, Control_c, 6, 11, 119
8, 72959, Control_c, 6, 11, 120
8, 72960, Note_on_c, 6, 79, 0
8, 72960, Note_on_c, 6, 76, 0
8, 72960, Control_c, 6, 1, 0
8, 72960, Note_on_c, 6, 69, 105
8, 72960, Note_on_c, 6, 81, 105
8, 72984, Note_on_c, 6, 81, 0
8, 72984, Note_on_c, 6, 69, 0
8, 73008, Note_on_c, 6, 65, 100
8, 73008, Note_on_c, 6, 77, 100
8, 73032, Note_on_c, 6, 77, 0
8, 73032, Note_on_c, 6, 65, 0
8, 73056, Note_on_c, 6, 70, 100
8, 73056, Note_on_c, 6, 82, 100
8, 73080, Note_on_c, 6, 82, 0
8, 73080, Note_on_c, 6, 70, 0
8, 73104, Note_on_c, 6, 67, 105
8, 73104, Note_on_c, 6, 79, 105
8, 73128, Note_on_c, 6, 79, 0
8, 73128, Note_on_c, 6, 67, 0
8, 73152, Note_on_c, 6, 64, 100
8, 73152, Note_on_c, 6, 76, 100
8, 73176, Note_on_c, 6, 76, 0
8, 73176, Note_on_c, 6, 64, 0
8, 73200, Note_on_c, 6, 69, 100
8, 73200, Note_on_c, 6, 81, 100
8, 73224, Note_on_c, 6, 81, 0
8, 73224, Note_on_c, 6, 69, 0
8, 73248, Note_on_c, 6, 65, 100
8, 73248, Note_on_c, 6, 77, 100
8, 73272, Note_on_c, 6, 77, 0
8, 73272, Note_on_c, 6, 65, 0
8, 73536, Note_on_c, 6, 77, 105
8, 73536, Note_on_c, 6, 81, 105
8, 73560, Note_on_c, 6, 81, 0
8, 73560, Note_on_c, 6, 77, 0
8, 73584, Note_on_c, 6, 65, 100
8, 73584, Note_on_c, 6, 77, 100
8, 73608, Note_on_c, 6, 77, 0
8, 73608, Note_on_c, 6, 65, 0
8, 73632, Note_on_c, 6, 70, 100
8, 73632, Note_on_c, 6, 82, 100
8, 73656, Note_on_c, 6, 82, 0
8, 73656, Note_on_c, 6, 70, 0
8, 73680, Note_on_c, 6, 67, 105
8, 73680, Note_on_c, 6, 79, 105
8, 73704, Note_on_c, 6, 79, 0
8, 73704, Note_on_c, 6, 67, 0
8, 73728, Note_on_c, 6, 64, 100
8, 73728, Note_on_c, 6, 76, 100
8, 73752, Note_on_c, 6, 76, 0
8, 73752, Note_on_c, 6, 64, 0
8, 73776, Note_on_c, 6, 69, 100
8, 73776, Note_on_c, 6, 81, 100
8, 73800, Note_on_c, 6, 81, 0
8, 73800, Note_on_c, 6, 69, 0
8, 73824, Note_on_c, 6, 69, 105
8, 73824, Note_on_c, 6, 81, 105
8, 73848, Note_on_c, 6, 81, 0
8, 73848, Note_on_c, 6, 69, 0
8, 73872, Note_on_c, 6, 69, 100
8, 73872, Note_on_c, 6, 81, 100
8, 73896, Note_on_c, 6, 81, 0
8, 73896, Note_on_c, 6, 69, 0
8, 73920, Note_on_c, 6, 69, 100
8, 73920, Note_on_c, 6, 81, 100
8, 73944, Note_on_c, 6, 81, 0
8, 73944, Note_on_c, 6, 69, 0
8, 73968, Note_on_c, 6, 69, 105
8, 73968, Note_on_c, 6, 81, 105
8, 73992, Note_on_c, 6, 81, 0
8, 73992, Note_on_c, 6, 69, 0
8, 74016, Note_on_c, 6, 69, 100
8, 74016, Note_on_c, 6, 81, 100
8, 74040, Note_on_c, 6, 81, 0
8, 74040, Note_on_c, 6, 69, 0
8, 74064, Note_on_c, 6, 69, 100
8, 74064, Note_on_c, 6, 81, 100
8, 74088, Note_on_c, 6, 81, 0
8, 74088, Note_on_c, 6, 69, 0
8, 74112, Note_on_c, 6, 74, 105
8, 74112, Note_on_c, 6, 77, 105
8, 74136, Note_on_c, 6, 77, 0
8, 74136, Note_on_c, 6, 74, 0
8, 74160, Note_on_c, 6, 77, 100
8, 74160, Note_on_c, 6, 81, 100
8, 74184, Note_on_c, 6, 81, 0
8, 74184, Note_on_c, 6, 77, 0
8, 74208, Note_on_c, 6, 77, 100
8, 74208, Note_on_c, 6, 81, 100
8, 74232, Note_on_c, 6, 81, 0
8, 74232, Note_on_c, 6, 77, 0
8, 74256, Note_on_c, 6, 79, 105
8, 74256, Note_on_c, 6, 81, 105
8, 74280, Note_on_c, 6, 81, 0
8, 74280, Note_on_c, 6, 79, 0
8, 74304, Note_on_c, 6, 79, 100
8, 74304, Note_on_c, 6, 81, 100
8, 74328, Note_on_c, 6, 81, 0
8, 74328, Note_on_c, 6, 79, 0
8, 74352, Note_on_c, 6, 79, 100
8, 74352, Note_on_c, 6, 81, 100
8, 74376, Note_on_c, 6, 81, 0
8, 74376, Note_on_c, 6, 79, 0
8, 74400, Note_on_c, 6, 77, 105
8, 74400, Note_on_c, 6, 81, 105
8, 74424, Note_on_c, 6, 81, 0
8, 74424, Note_on_c, 6, 77, 0
8, 74448, Note_on_c, 6, 77, 100
8, 74448, Note_on_c, 6, 81, 100
8, 74472, Note_on_c, 6, 81, 0
8, 74472, Note_on_c, 6, 77, 0
8, 74496, Note_on_c, 6, 77, 100
8, 74496, Note_on_c, 6, 81, 100
8, 74520, Note_on_c, 6, 81, 0
8, 74520, Note_on_c, 6, 77, 0
8, 74544, Note_on_c, 6, 79, 105
8, 74544, Note_on_c, 6, 81, 105
8, 74568, Note_on_c, 6, 81, 0
8, 74568, Note_on_c, 6, 79, 0
8, 74592, Note_on_c, 6, 79, 100
8, 74592, Note_on_c, 6, 81, 100
8, 74616, Note_on_c, 6, 81, 0
8, 74616, Note_on_c, 6, 79, 0
8, 74640, Note_on_c, 6, 79, 100
8, 74640, Note_on_c, 6, 81, 100
8, 74664, Note_on_c, 6, 81, 0
8, 74664, Note_on_c, 6, 79, 0
8, 74976, Control_c, 6, 1, 0
8, 74976, Note_on_c, 6, 67, 45
8, 74977, Control_c, 6, 1, 2
8, 74979, Control_c, 6, 1, 3
8, 74980, Control_c, 6, 1, 4
8, 74981, Control_c, 6, 1, 5
8, 74983, Control_c, 6, 1, 6
8, 74984, Control_c, 6, 1, 7
8, 74986, Control_c, 6, 1, 8
8, 74988, Control_c, 6, 1, 9
8, 74991, Control_c, 6, 1, 10
8, 74993, Control_c, 6, 1, 11
8, 74996, Control_c, 6, 1, 12
8, 75000, Control_c, 6, 1, 13
8, 75005, Control_c, 6, 1, 14
8, 75012, Control_c, 6, 1, 15
8, 75024, Note_on_c, 6, 67, 0
8, 75024, Note_on_c, 6, 73, 51
8, 75024, Control_c, 6, 1, 16
8, 75072, Note_on_c, 6, 73, 0
8, 75072, Note_on_c, 6, 76, 54
8, 75120, Note_on_c, 6, 76, 0
8, 75120, Note_on_c, 6, 79, 57
8, 75168, Note_on_c, 6, 79, 0
8, 75168, Note_on_c, 6, 76, 54
8, 75216, Note_on_c, 6, 76, 0
8, 75216, Note_on_c, 6, 73, 51
8, 75264, Note_on_c, 6, 73, 0
8, 75264, Control_c, 6, 1, 0
8, 75264, Note_on_c, 6, 74, 50
8, 75288, Note_on_c, 6, 74, 0
8, 75408, Note_on_c, 6, 74, 55
8, 75408, Note_on_c, 6, 77, 55
8, 75443, Note_on_c, 6, 77, 0
8, 75443, Note_on_c, 6, 74, 0
8, 75480, Note_on_c, 6, 65, 50
8, 75480, Note_on_c, 6, 69, 50
8, 75492, Note_on_c, 6, 69, 0
8, 75492, Note_on_c, 6, 65, 0
8, 75504, Note_on_c, 6, 65, 50
8, 75504, Note_on_c, 6, 69, 50
8, 75528, Note_on_c, 6, 69, 0
8, 75528, Note_on_c, 6, 65, 0
8, 75552, Note_on_c, 6, 65, 50
8, 75552, Note_on_c, 6, 69, 50
8, 75576, Note_on_c, 6, 69, 0
8, 75576, Note_on_c, 6, 65, 0
8, 75696, Note_on_c, 6, 74, 55
8, 75696, Note_on_c, 6, 77, 55
8, 75731, Note_on_c, 6, 77, 0
8, 75731, Note_on_c, 6, 74, 0
8, 75768, Note_on_c, 6, 69, 50
8, 75768, Note_on_c, 6, 74, 50
8, 75780, Note_on_c, 6, 74, 0
8, 75780, Note_on_c, 6, 69, 0
8, 75792, Note_on_c, 6, 69, 50
8, 75792, Note_on_c, 6, 74, 50
8, 75816, Note_on_c, 6, 74, 0
8, 75816, Note_on_c, 6, 69, 0
8, 75840, Note_on_c, 6, 69, 50
8, 75840, Note_on_c, 6, 74, 50
8, 75864, Note_on_c, 6, 74, 0
8, 75864, Note_on_c, 6, 69, 0
8, 76560, Note_on_c, 6, 74, 55
8, 76560, Note_on_c, 6, 77, 55
8, 76595, Note_on_c, 6, 77, 0
8, 76595, Note_on_c, 6, 74, 0
8, 76632, Note_on_c, 6, 65, 50
8, 76632, Note_on_c, 6, 74, 50
8, 76644, Note_on_c, 6, 74, 0
8, 76644, Note_on_c, 6, 65, 0
8, 76656, Note_on_c, 6, 65, 50
8, 76656, Note_on_c, 6, 74, 50
8, 76680, Note_on_c, 6, 74, 0
8, 76680, Note_on_c, 6, 65, 0
8, 76704, Note_on_c, 6, 65, 50
8, 76704, Note_on_c, 6, 74, 50
8, 76728, Note_on_c, 6, 74, 0
8, 76728, Note_on_c, 6, 65, 0
8, 76848, Note_on_c, 6, 77, 50
8, 76848, Note_on_c, 6, 82, 50
8, 76883, Note_on_c, 6, 82, 0
8, 76883, Note_on_c, 6, 77, 0
8, 76920, Note_on_c, 6, 70, 50
8, 76920, Note_on_c, 6, 74, 50
8, 76932, Note_on_c, 6, 74, 0
8, 76932, Note_on_c, 6, 70, 0
8, 76944, Note_on_c, 6, 70, 50
8, 76944, Note_on_c, 6, 74, 50
8, 76968, Note_on_c, 6, 74, 0
8, 76968, Note_on_c, 6, 70, 0
8, 76992, Note_on_c, 6, 70, 50
8, 76992, Note_on_c, 6, 74, 50
8, 77016, Note_on_c, 6, 74, 0
8, 77016, Note_on_c, 6, 70, 0
8, 77136, Note_on_c, 6, 74, 55
8, 77136, Note_on_c, 6, 82, 55
8, 77171, Note_on_c, 6, 82, 0
8, 77171, Note_on_c, 6, 74, 0
8, 77208, Note_on_c, 6, 70, 50
8, 77208, Note_on_c, 6, 74, 50
8, 77220, Note_on_c, 6, 74, 0
8, 77220, Note_on_c, 6, 70, 0
8, 77232, Note_on_c, 6, 70, 50
8, 77232, Note_on_c, 6, 74, 50
8, 77256, Note_on_c, 6, 74, 0
8, 77256, Note_on_c, 6, 70, 0
8, 77280, Note_on_c, 6, 70, 50
8, 77280, Note_on_c, 6, 77, 50
8, 77304, Note_on_c, 6, 77, 0
8, 77304, Note_on_c, 6, 70, 0
8, 77424, Note_on_c, 6, 70, 50
8, 77424, Note_on_c, 6, 79, 50
8, 77459, Note_on_c, 6, 79, 0
8, 77459, Note_on_c, 6, 70, 0
8, 77496, Note_on_c, 6, 67, 50
8, 77496, Note_on_c, 6, 70, 50
8, 77508, Note_on_c, 6, 70, 0
8, 77508, Note_on_c, 6, 67, 0
8, 77520, Note_on_c, 6, 67, 50
8, 77520, Note_on_c, 6, 70, 50
8, 77544, Note_on_c, 6, 70, 0
8, 77544, Note_on_c, 6, 67, 0
8, 77568, Note_on_c, 6, 67, 50
8, 77568, Note_on_c, 6, 70, 50
8, 77592, Note_on_c, 6, 70, 0
8, 77592, Note_on_c, 6, 67, 0
8, 78288, Note_on_c, 6, 67, 60
8, 78288, Note_on_c, 6, 75, 60
8, 78323, Note_on_c, 6, 75, 0
8, 78323, Note_on_c, 6, 67, 0
8, 78360, Note_on_c, 6, 67, 61
8, 78360, Note_on_c, 6, 75, 61
8, 78372, Note_on_c, 6, 75, 0
8, 78372, Note_on_c, 6, 67, 0
8, 78384, Note_on_c, 6, 67, 62
8, 78384, Note_on_c, 6, 75, 62
8, 78408, Note_on_c, 6, 75, 0
8, 78408, Note_on_c, 6, 67, 0
8, 78432, Note_on_c, 6, 72, 63
8, 78432, Note_on_c, 6, 75, 63
8, 78456, Note_on_c, 6, 75, 0
8, 78456, Note_on_c, 6, 72, 0
8, 78576, Note_on_c, 6, 72, 66
8, 78576, Note_on_c, 6, 77, 66
8, 78611, Note_on_c, 6, 77, 0
8, 78611, Note_on_c, 6, 72, 0
8, 78648, Note_on_c, 6, 72, 68
8, 78648, Note_on_c, 6, 77, 68
8, 78660, Note_on_c, 6, 77, 0
8, 78660, Note_on_c, 6, 72, 0
8, 78672, Note_on_c, 6, 72, 69
8, 78672, Note_on_c, 6, 77, 69
8, 78696, Note_on_c, 6, 77, 0
8, 78696, Note_on_c, 6, 72, 0
8, 78720, Note_on_c, 6, 73, 70
8, 78720, Note_on_c, 6, 77, 70
8, 78744, Note_on_c, 6, 77, 0
8, 78744, Note_on_c, 6, 73, 0
8, 78864, Note_on_c, 6, 73, 73
8, 78864, Note_on_c, 6, 77, 73
8, 78899, Note_on_c, 6, 77, 0
8, 78899, Note_on_c, 6, 73, 0
8, 78936, Note_on_c, 6, 73, 73
8, 78936, Note_on_c, 6, 77, 75
8, 78948, Note_on_c, 6, 77, 0
8, 78948, Note_on_c, 6, 73, 0
8, 78960, Note_on_c, 6, 73, 75
8, 78960, Note_on_c, 6, 77, 75
8, 78984, Note_on_c, 6, 77, 0
8, 78984, Note_on_c, 6, 73, 0
8, 79008, Note_on_c, 6, 73, 76
8, 79008, Note_on_c, 6, 78, 76
8, 79032, Note_on_c, 6, 78, 0
8, 79032, Note_on_c, 6, 73, 0
8, 79152, Note_on_c, 6, 75, 80
8, 79152, Note_on_c, 6, 78, 80
8, 79187, Note_on_c, 6, 78, 0
8, 79187, Note_on_c, 6, 75, 0
8, 79224, Note_on_c, 6, 75, 81
8, 79224, Note_on_c, 6, 78, 81
8, 79236, Note_on_c, 6, 78, 0
8, 79236, Note_on_c, 6, 75, 0
8, 79248, Note_on_c, 6, 75, 82
8, 79248, Note_on_c, 6, 78, 82
8, 79272, Note_on_c, 6, 78, 0
8, 79272, Note_on_c, 6, 75, 0
8, 79296, Note_on_c, 6, 75, 83
8, 79296, Note_on_c, 6, 78, 83
8, 79320, Note_on_c, 6, 78, 0
8, 79320, Note_on_c, 6, 75, 0
8, 79440, Note_on_c, 6, 75, 87
8, 79440, Note_on_c, 6, 80, 87
8, 79475, Note_on_c, 6, 80, 0
8, 79475, Note_on_c, 6, 75, 0
8, 79512, Note_on_c, 6, 75, 88
8, 79512, Note_on_c, 6, 80, 88
8, 79524, Note_on_c, 6, 80, 0
8, 79524, Note_on_c, 6, 75, 0
8, 79536, Note_on_c, 6, 75, 89
8, 79536, Note_on_c, 6, 80, 89
8, 79560, Note_on_c, 6, 80, 0
8, 79560, Note_on_c, 6, 75, 0
8, 79584, Note_on_c, 6, 76, 90
8, 79584, Note_on_c, 6, 80, 90
8, 79608, Note_on_c, 6, 80, 0
8, 79608, Note_on_c, 6, 76, 0
8, 79728, Note_on_c, 6, 76, 93
8, 79728, Note_on_c, 6, 80, 93
8, 79763, Note_on_c, 6, 80, 0
8, 79763, Note_on_c, 6, 76, 0
8, 79800, Note_on_c, 6, 76, 95
8, 79800, Note_on_c, 6, 80, 95
8, 79812, Note_on_c, 6, 80, 0
8, 79812, Note_on_c, 6, 76, 0
8, 79824, Note_on_c, 6, 76, 96
8, 79824, Note_on_c, 6, 80, 96
8, 79848, Note_on_c, 6, 80, 0
8, 79848, Note_on_c, 6, 76, 0
8, 79872, Note_on_c, 6, 76, 100
8, 79872, Note_on_c, 6, 81, 100
8, 79896, Note_on_c, 6, 81, 0
8, 79896, Note_on_c, 6, 76, 0
8, 80016, Note_on_c, 6, 81, 100
8, 80051, Note_on_c, 6, 81, 0
8, 80088, Note_on_c, 6, 69, 100
8, 80100, Note_on_c, 6, 69, 0
8, 80112, Note_on_c, 6, 69, 100
8, 80136, Note_on_c, 6, 69, 0
8, 80304, Note_on_c, 6, 70, 113
8, 80304, Note_on_c, 6, 82, 113
8, 80339, Note_on_c, 6, 82, 0
8, 80339, Note_on_c, 6, 70, 0
8, 80376, Note_on_c, 6, 70, 113
8, 80388, Note_on_c, 6, 70, 0
8, 80400, Note_on_c, 6, 70, 113
8, 80424, Note_on_c, 6, 70, 0
8, 80592, Note_on_c, 6, 71, 113
8, 80592, Note_on_c, 6, 83, 113
8, 80627, Note_on_c, 6, 83, 0
8, 80627, Note_on_c, 6, 71, 0
8, 80664, Note_on_c, 6, 71, 113
8, 80676, Note_on_c, 6, 71, 0
8, 80688, Note_on_c, 6, 71, 113
8, 80760, Note_on_c, 6, 71, 0
8, 81216, Note_on_c, 6, 83, 75
8, 81251, Note_on_c, 6, 83, 0
8, 81288, Note_on_c, 6, 71, 70
8, 81300, Note_on_c, 6, 71, 0
8, 81312, Note_on_c, 6, 71, 70
8, 81336, Note_on_c, 6, 71, 0
8, 81360, Note_on_c, 6, 76, 65
8, 81384, Note_on_c, 6, 76, 0
8, 81408, Note_on_c, 6, 75, 60
8, 81408, Note_on_c, 6, 78, 60
8, 81432, Note_on_c, 6, 78, 0
8, 81432, Note_on_c, 6, 75, 0
8, 81456, Note_on_c, 6, 76, 60
8, 81456, Note_on_c, 6, 79, 60
8, 81480, Note_on_c, 6, 79, 0
8, 81480, Note_on_c, 6, 76, 0
8, 81504, Note_on_c, 6, 75, 65
8, 81504, Note_on_c, 6, 78, 65
8, 81528, Note_on_c, 6, 78, 0
8, 81528, Note_on_c, 6, 75, 0
8, 81552, Note_on_c, 6, 76, 60
8, 81552, Note_on_c, 6, 79, 60
8, 81576, Note_on_c, 6, 79, 0
8, 81576, Note_on_c, 6, 76, 0
8, 81600, Note_on_c, 6, 78, 60
8, 81600, Note_on_c, 6, 81, 60
8, 81624, Note_on_c, 6, 81, 0
8, 81624, Note_on_c, 6, 78, 0
8, 81648, Note_on_c, 6, 76, 65
8, 81648, Note_on_c, 6, 79, 65
8, 81672, Note_on_c, 6, 79, 0
8, 81672, Note_on_c, 6, 76, 0
8, 81696, Note_on_c, 6, 79, 60
8, 81696, Note_on_c, 6, 83, 60
8, 81720, Note_on_c, 6, 83, 0
8, 81720, Note_on_c, 6, 79, 0
8, 81744, Note_on_c, 6, 79, 60
8, 81744, Note_on_c, 6, 83, 60
8, 81768, Note_on_c, 6, 83, 0
8, 81768, Note_on_c, 6, 79, 0
8, 81792, Note_on_c, 6, 79, 65
8, 81792, Note_on_c, 6, 83, 65
8, 81816, Note_on_c, 6, 83, 0
8, 81816, Note_on_c, 6, 79, 0
8, 81840, Note_on_c, 6, 78, 60
8, 81840, Note_on_c, 6, 81, 60
8, 81864, Note_on_c, 6, 81, 0
8, 81864, Note_on_c, 6, 78, 0
8, 81888, Note_on_c, 6, 76, 60
8, 81888, Note_on_c, 6, 79, 60
8, 81912, Note_on_c, 6, 79, 0
8, 81912, Note_on_c, 6, 76, 0
8, 81936, Note_on_c, 6, 78, 65
8, 81936, Note_on_c, 6, 81, 65
8, 81960, Note_on_c, 6, 81, 0
8, 81960, Note_on_c, 6, 78, 0
8, 81984, Note_on_c, 6, 76, 60
8, 81984, Note_on_c, 6, 79, 60
8, 82008, Note_on_c, 6, 79, 0
8, 82008, Note_on_c, 6, 76, 0
8, 82032, Note_on_c, 6, 75, 60
8, 82032, Note_on_c, 6, 78, 60
8, 82056, Note_on_c, 6, 78, 0
8, 82056, Note_on_c, 6, 75, 0
8, 82080, Note_on_c, 6, 76, 65
8, 82115, Note_on_c, 6, 76, 0
8, 82152, Note_on_c, 6, 64, 60
8, 82164, Note_on_c, 6, 64, 0
8, 82176, Note_on_c, 6, 64, 60
8, 82200, Note_on_c, 6, 64, 0
8, 82224, Note_on_c, 6, 76, 65
8, 82248, Note_on_c, 6, 76, 0
8, 82272, Note_on_c, 6, 80, 60
8, 82296, Note_on_c, 6, 80, 0
8, 82320, Note_on_c, 6, 81, 60
8, 82344, Note_on_c, 6, 81, 0
8, 82368, Note_on_c, 6, 80, 65
8, 82392, Note_on_c, 6, 80, 0
8, 82416, Note_on_c, 6, 81, 60
8, 82440, Note_on_c, 6, 81, 0
8, 82464, Note_on_c, 6, 83, 60
8, 82488, Note_on_c, 6, 83, 0
8, 82512, Note_on_c, 6, 81, 65
8, 82536, Note_on_c, 6, 81, 0
8, 82560, Note_on_c, 6, 84, 60
8, 82584, Note_on_c, 6, 84, 0
8, 82608, Note_on_c, 6, 84, 60
8, 82632, Note_on_c, 6, 84, 0
8, 82656, Note_on_c, 6, 84, 65
8, 82680, Note_on_c, 6, 84, 0
8, 82704, Note_on_c, 6, 83, 60
8, 82728, Note_on_c, 6, 83, 0
8, 82752, Note_on_c, 6, 81, 60
8, 82776, Note_on_c, 6, 81, 0
8, 82800, Note_on_c, 6, 83, 65
8, 82824, Note_on_c, 6, 83, 0
8, 82848, Note_on_c, 6, 81, 60
8, 82872, Note_on_c, 6, 81, 0
8, 82896, Note_on_c, 6, 80, 60
8, 82920, Note_on_c, 6, 80, 0
8, 82944, Note_on_c, 6, 76, 65
8, 82979, Note_on_c, 6, 76, 0
8, 83016, Note_on_c, 6, 64, 60
8, 83028, Note_on_c, 6, 64, 0
8, 83040, Note_on_c, 6, 64, 60
8, 83064, Note_on_c, 6, 64, 0
8, 83088, Note_on_c, 6, 76, 65
8, 83112, Note_on_c, 6, 76, 0
8, 83136, Note_on_c, 6, 80, 60
8, 83160, Note_on_c, 6, 80, 0
8, 83184, Note_on_c, 6, 81, 60
8, 83208, Note_on_c, 6, 81, 0
8, 83232, Note_on_c, 6, 80, 65
8, 83256, Note_on_c, 6, 80, 0
8, 83280, Note_on_c, 6, 81, 60
8, 83304, Note_on_c, 6, 81, 0
8, 83328, Note_on_c, 6, 83, 60
8, 83352, Note_on_c, 6, 83, 0
8, 83520, Note_on_c, 6, 77, 65
8, 83544, Note_on_c, 6, 77, 0
8, 83568, Note_on_c, 6, 79, 60
8, 83592, Note_on_c, 6, 79, 0
8, 83616, Note_on_c, 6, 81, 60
8, 83640, Note_on_c, 6, 81, 0
8, 83664, Note_on_c, 6, 79, 65
8, 83688, Note_on_c, 6, 79, 0
8, 83712, Note_on_c, 6, 81, 60
8, 83736, Note_on_c, 6, 81, 0
8, 83760, Note_on_c, 6, 82, 60
8, 83784, Note_on_c, 6, 82, 0
8, 83952, Note_on_c, 6, 81, 65
8, 83976, Note_on_c, 6, 81, 0
8, 84000, Note_on_c, 6, 79, 60
8, 84024, Note_on_c, 6, 79, 0
8, 84048, Note_on_c, 6, 81, 60
8, 84072, Note_on_c, 6, 81, 0
8, 84096, Note_on_c, 6, 79, 65
8, 84120, Note_on_c, 6, 79, 0
8, 84144, Note_on_c, 6, 81, 60
8, 84168, Note_on_c, 6, 81, 0
8, 84192, Note_on_c, 6, 82, 60
8, 84216, Note_on_c, 6, 82, 0
8, 84384, Note_on_c, 6, 77, 65
8, 84384, Note_on_c, 6, 81, 65
8, 84408, Note_on_c, 6, 81, 0
8, 84408, Note_on_c, 6, 77, 0
8, 84432, Note_on_c, 6, 79, 60
8, 84432, Note_on_c, 6, 82, 60
8, 84456, Note_on_c, 6, 82, 0
8, 84456, Note_on_c, 6, 79, 0
8, 84480, Note_on_c, 6, 81, 60
8, 84480, Note_on_c, 6, 84, 60
8, 84504, Note_on_c, 6, 84, 0
8, 84504, Note_on_c, 6, 81, 0
8, 84528, Note_on_c, 6, 79, 65
8, 84528, Note_on_c, 6, 82, 65
8, 84552, Note_on_c, 6, 82, 0
8, 84552, Note_on_c, 6, 79, 0
8, 84576, Note_on_c, 6, 81, 60
8, 84576, Note_on_c, 6, 84, 60
8, 84600, Note_on_c, 6, 84, 0
8, 84600, Note_on_c, 6, 81, 0
8, 84624, Note_on_c, 6, 82, 60
8, 84624, Note_on_c, 6, 86, 60
8, 84648, Note_on_c, 6, 86, 0
8, 84648, Note_on_c, 6, 82, 0
8, 84816, Note_on_c, 6, 69, 65
8, 84816, Note_on_c, 6, 72, 65
8, 84840, Note_on_c, 6, 72, 0
8, 84840, Note_on_c, 6, 69, 0
8, 84864, Note_on_c, 6, 67, 60
8, 84864, Note_on_c, 6, 76, 60
8, 84888, Note_on_c, 6, 76, 0
8, 84888, Note_on_c, 6, 67, 0
8, 84912, Note_on_c, 6, 69, 60
8, 84912, Note_on_c, 6, 77, 60
8, 84936, Note_on_c, 6, 77, 0
8, 84936, Note_on_c, 6, 69, 0
8, 84960, Note_on_c, 6, 67, 65
8, 84960, Note_on_c, 6, 76, 65
8, 84984, Note_on_c, 6, 76, 0
8, 84984, Note_on_c, 6, 67, 0
8, 85008, Note_on_c, 6, 69, 60
8, 85008, Note_on_c, 6, 77, 60
8, 85032, Note_on_c, 6, 77, 0
8, 85032, Note_on_c, 6, 69, 0
8, 85056, Note_on_c, 6, 70, 60
8, 85056, Note_on_c, 6, 79, 60
8, 85080, Note_on_c, 6, 79, 0
8, 85080, Note_on_c, 6, 70, 0
8, 85104, Note_on_c, 6, 77, 65
8, 85104, Note_on_c, 6, 81, 65
8, 85128, Note_on_c, 6, 81, 0
8, 85128, Note_on_c, 6, 77, 0
8, 85152, Note_on_c, 6, 79, 60
8, 85152, Note_on_c, 6, 82, 60
8, 85176, Note_on_c, 6, 82, 0
8, 85176, Note_on_c, 6, 79, 0
8, 85200, Note_on_c, 6, 81, 60
8, 85200, Note_on_c, 6, 84, 60
8, 85224, Note_on_c, 6, 84, 0
8, 85224, Note_on_c, 6, 81, 0
8, 85248, Note_on_c, 6, 81, 65
8, 85248, Note_on_c, 6, 84, 65
8, 85272, Note_on_c, 6, 84, 0
8, 85272, Note_on_c, 6, 81, 0
8, 85296, Note_on_c, 6, 79, 60
8, 85296, Note_on_c, 6, 82, 60
8, 85320, Note_on_c, 6, 82, 0
8, 85320, Note_on_c, 6, 79, 0
8, 85344, Note_on_c, 6, 77, 60
8, 85344, Note_on_c, 6, 81, 60
8, 85368, Note_on_c, 6, 81, 0
8, 85368, Note_on_c, 6, 77, 0
8, 85392, Note_on_c, 6, 77, 65
8, 85392, Note_on_c, 6, 81, 65
8, 85416, Note_on_c, 6, 81, 0
8, 85416, Note_on_c, 6, 77, 0
8, 85440, Note_on_c, 6, 79, 60
8, 85440, Note_on_c, 6, 82, 60
8, 85464, Note_on_c, 6, 82, 0
8, 85464, Note_on_c, 6, 79, 0
8, 85488, Note_on_c, 6, 77, 60
8, 85488, Note_on_c, 6, 81, 60
8, 85512, Note_on_c, 6, 81, 0
8, 85512, Note_on_c, 6, 77, 0
8, 85680, Note_on_c, 6, 72, 55
8, 85715, Note_on_c, 6, 72, 0
8, 85752, Note_on_c, 6, 60, 50
8, 85764, Note_on_c, 6, 60, 0
8, 85776, Note_on_c, 6, 60, 50
8, 85800, Note_on_c, 6, 60, 0
8, 85968, Note_on_c, 6, 74, 55
8, 85968, Note_on_c, 6, 77, 55
8, 85992, Note_on_c, 6, 77, 0
8, 85992, Note_on_c, 6, 74, 0
8, 86016, Note_on_c, 6, 76, 50
8, 86016, Note_on_c, 6, 79, 50
8, 86040, Note_on_c, 6, 79, 0
8, 86040, Note_on_c, 6, 76, 0
8, 86064, Note_on_c, 6, 77, 50
8, 86064, Note_on_c, 6, 81, 50
8, 86088, Note_on_c, 6, 81, 0
8, 86088, Note_on_c, 6, 77, 0
8, 86112, Note_on_c, 6, 77, 55
8, 86112, Note_on_c, 6, 81, 55
8, 86136, Note_on_c, 6, 81, 0
8, 86136, Note_on_c, 6, 77, 0
8, 86160, Note_on_c, 6, 76, 50
8, 86160, Note_on_c, 6, 79, 50
8, 86184, Note_on_c, 6, 79, 0
8, 86184, Note_on_c, 6, 76, 0
8, 86208, Note_on_c, 6, 74, 50
8, 86208, Note_on_c, 6, 77, 50
8, 86232, Note_on_c, 6, 77, 0
8, 86232, Note_on_c, 6, 74, 0
8, 86256, Note_on_c, 6, 74, 55
8, 86256, Note_on_c, 6, 77, 55
8, 86280, Note_on_c, 6, 77, 0
8, 86280, Note_on_c, 6, 74, 0
8, 86304, Note_on_c, 6, 76, 50
8, 86304, Note_on_c, 6, 79, 50
8, 86328, Note_on_c, 6, 79, 0
8, 86328, Note_on_c, 6, 76, 0
8, 86352, Note_on_c, 6, 74, 50
8, 86352, Note_on_c, 6, 77, 50
8, 86376, Note_on_c, 6, 77, 0
8, 86376, Note_on_c, 6, 74, 0
8, 86832, Note_on_c, 6, 74, 55
8, 86832, Note_on_c, 6, 77, 55
8, 86856, Note_on_c, 6, 77, 0
8, 86856, Note_on_c, 6, 74, 0
8, 86880, Note_on_c, 6, 76, 50
8, 86880, Note_on_c, 6, 79, 50
8, 86904, Note_on_c, 6, 79, 0
8, 86904, Note_on_c, 6, 76, 0
8, 86928, Note_on_c, 6, 77, 50
8, 86928, Note_on_c, 6, 81, 50
8, 86952, Note_on_c, 6, 81, 0
8, 86952, Note_on_c, 6, 77, 0
8, 86976, Note_on_c, 6, 77, 55
8, 86976, Note_on_c, 6, 81, 55
8, 87000, Note_on_c, 6, 81, 0
8, 87000, Note_on_c, 6, 77, 0
8, 87024, Note_on_c, 6, 76, 50
8, 87024, Note_on_c, 6, 79, 50
8, 87048, Note_on_c, 6, 79, 0
8, 87048, Note_on_c, 6, 76, 0
8, 87072, Note_on_c, 6, 74, 50
8, 87072, Note_on_c, 6, 77, 50
8, 87096, Note_on_c, 6, 77, 0
8, 87096, Note_on_c, 6, 74, 0
8, 87120, Note_on_c, 6, 74, 55
8, 87120, Note_on_c, 6, 77, 55
8, 87144, Note_on_c, 6, 77, 0
8, 87144, Note_on_c, 6, 74, 0
8, 87168, Note_on_c, 6, 76, 50
8, 87168, Note_on_c, 6, 79, 50
8, 87192, Note_on_c, 6, 79, 0
8, 87192, Note_on_c, 6, 76, 0
8, 87216, Note_on_c, 6, 74, 50
8, 87216, Note_on_c, 6, 77, 50
8, 87240, Note_on_c, 6, 77, 0
8, 87240, Note_on_c, 6, 74, 0
8, 87696, Note_on_c, 6, 81, 55
8, 87731, Note_on_c, 6, 81, 0
8, 87768, Note_on_c, 6, 69, 50
8, 87780, Note_on_c, 6, 69, 0
8, 87792, Note_on_c, 6, 69, 50
8, 87816, Note_on_c, 6, 69, 0
8, 87840, Note_on_c, 6, 74, 55
8, 87864, Note_on_c, 6, 74, 0
8, 87888, Note_on_c, 6, 73, 50
8, 87888, Note_on_c, 6, 76, 50
8, 87912, Note_on_c, 6, 76, 0
8, 87912, Note_on_c, 6, 73, 0
8, 87936, Note_on_c, 6, 74, 50
8, 87936, Note_on_c, 6, 77, 50
8, 87960, Note_on_c, 6, 77, 0
8, 87960, Note_on_c, 6, 74, 0
8, 87984, Note_on_c, 6, 73, 55
8, 87984, Note_on_c, 6, 76, 55
8, 88008, Note_on_c, 6, 76, 0
8, 88008, Note_on_c, 6, 73, 0
8, 88032, Note_on_c, 6, 74, 50
8, 88032, Note_on_c, 6, 77, 50
8, 88056, Note_on_c, 6, 77, 0
8, 88056, Note_on_c, 6, 74, 0
8, 88080, Note_on_c, 6, 76, 50
8, 88080, Note_on_c, 6, 79, 50
8, 88104, Note_on_c, 6, 79, 0
8, 88104, Note_on_c, 6, 76, 0
8, 88128, Note_on_c, 6, 74, 55
8, 88128, Note_on_c, 6, 77, 55
8, 88152, Note_on_c, 6, 77, 0
8, 88152, Note_on_c, 6, 74, 0
8, 88176, Note_on_c, 6, 77, 50
8, 88176, Note_on_c, 6, 81, 50
8, 88200, Note_on_c, 6, 81, 0
8, 88200, Note_on_c, 6, 77, 0
8, 88224, Note_on_c, 6, 77, 50
8, 88224, Note_on_c, 6, 81, 50
8, 88248, Note_on_c, 6, 81, 0
8, 88248, Note_on_c, 6, 77, 0
8, 88272, Note_on_c, 6, 77, 55
8, 88272, Note_on_c, 6, 81, 55
8, 88296, Note_on_c, 6, 81, 0
8, 88296, Note_on_c, 6, 77, 0
8, 88320, Note_on_c, 6, 76, 50
8, 88320, Note_on_c, 6, 79, 50
8, 88344, Note_on_c, 6, 79, 0
8, 88344, Note_on_c, 6, 76, 0
8, 88368, Note_on_c, 6, 74, 50
8, 88368, Note_on_c, 6, 77, 50
8, 88392, Note_on_c, 6, 77, 0
8, 88392, Note_on_c, 6, 74, 0
8, 88416, Note_on_c, 6, 76, 55
8, 88416, Note_on_c, 6, 79, 55
8, 88440, Note_on_c, 6, 79, 0
8, 88440, Note_on_c, 6, 76, 0
8, 88464, Note_on_c, 6, 74, 50
8, 88464, Note_on_c, 6, 77, 50
8, 88488, Note_on_c, 6, 77, 0
8, 88488, Note_on_c, 6, 74, 0
8, 88512, Note_on_c, 6, 73, 50
8, 88512, Note_on_c, 6, 76, 50
8, 88536, Note_on_c, 6, 76, 0
8, 88536, Note_on_c, 6, 73, 0
8, 88560, Note_on_c, 6, 81, 55
8, 88595, Note_on_c, 6, 81, 0
8, 88632, Note_on_c, 6, 69, 50
8, 88644, Note_on_c, 6, 69, 0
8, 88656, Note_on_c, 6, 69, 50
8, 88680, Note_on_c, 6, 69, 0
8, 88704, Note_on_c, 6, 74, 55
8, 88728, Note_on_c, 6, 74, 0
8, 88752, Note_on_c, 6, 73, 50
8, 88752, Note_on_c, 6, 76, 50
8, 88776, Note_on_c, 6, 76, 0
8, 88776, Note_on_c, 6, 73, 0
8, 88800, Note_on_c, 6, 74, 50
8, 88800, Note_on_c, 6, 77, 50
8, 88824, Note_on_c, 6, 77, 0
8, 88824, Note_on_c, 6, 74, 0
8, 88848, Note_on_c, 6, 73, 55
8, 88848, Note_on_c, 6, 76, 55
8, 88872, Note_on_c, 6, 76, 0
8, 88872, Note_on_c, 6, 73, 0
8, 88896, Note_on_c, 6, 74, 50
8, 88896, Note_on_c, 6, 77, 50
8, 88920, Note_on_c, 6, 77, 0
8, 88920, Note_on_c, 6, 74, 0
8, 88944, Note_on_c, 6, 76, 50
8, 88944, Note_on_c, 6, 79, 50
8, 88968, Note_on_c, 6, 79, 0
8, 88968, Note_on_c, 6, 76, 0
8, 88992, Note_on_c, 6, 74, 55
8, 88992, Note_on_c, 6, 77, 55
8, 89016, Note_on_c, 6, 77, 0
8, 89016, Note_on_c, 6, 74, 0
8, 89040, Note_on_c, 6, 81, 50
8, 89064, Note_on_c, 6, 81, 0
8, 89088, Note_on_c, 6, 81, 50
8, 89112, Note_on_c, 6, 81, 0
8, 89136, Note_on_c, 6, 81, 55
8, 89160, Note_on_c, 6, 81, 0
8, 89184, Note_on_c, 6, 81, 50
8, 89208, Note_on_c, 6, 81, 0
8, 89232, Note_on_c, 6, 81, 50
8, 89256, Note_on_c, 6, 81, 0
8, 89280, Note_on_c, 6, 81, 55
8, 89304, Note_on_c, 6, 81, 0
8, 89328, Note_on_c, 6, 81, 50
8, 89352, Note_on_c, 6, 81, 0
8, 89376, Note_on_c, 6, 81, 50
8, 89400, Note_on_c, 6, 81, 0
8, 89424, Note_on_c, 6, 81, 55
8, 89448, Note_on_c, 6, 81, 0
8, 89472, Note_on_c, 6, 81, 50
8, 89496, Note_on_c, 6, 81, 0
8, 89520, Note_on_c, 6, 81, 50
8, 89544, Note_on_c, 6, 81, 0
8, 89568, Note_on_c, 6, 79, 55
8, 89592, Note_on_c, 6, 79, 0
8, 89616, Note_on_c, 6, 79, 50
8, 89640, Note_on_c, 6, 79, 0
8, 89664, Note_on_c, 6, 79, 50
8, 89688, Note_on_c, 6, 79, 0
8, 89712, Note_on_c, 6, 79, 55
8, 89736, Note_on_c, 6, 79, 0
8, 89760, Note_on_c, 6, 79, 50
8, 89784, Note_on_c, 6, 79, 0
8, 89808, Note_on_c, 6, 79, 50
8, 89832, Note_on_c, 6, 79, 0
8, 89856, Note_on_c, 6, 79, 55
8, 89880, Note_on_c, 6, 79, 0
8, 89904, Note_on_c, 6, 79, 50
8, 89928, Note_on_c, 6, 79, 0
8, 89952, Note_on_c, 6, 79, 50
8, 89976, Note_on_c, 6, 79, 0
8, 90000, Note_on_c, 6, 79, 55
8, 90024, Note_on_c, 6, 79, 0
8, 90048, Note_on_c, 6, 79, 50
8, 90072, Note_on_c, 6, 79, 0
8, 90096, Note_on_c, 6, 79, 50
8, 90120, Note_on_c, 6, 79, 0
8, 90144, Note_on_c, 6, 74, 55
8, 90168, Note_on_c, 6, 74, 0
8, 90192, Note_on_c, 6, 75, 50
8, 90216, Note_on_c, 6, 75, 0
8, 90240, Note_on_c, 6, 77, 50
8, 90264, Note_on_c, 6, 77, 0
8, 90288, Note_on_c, 6, 75, 55
8, 90312, Note_on_c, 6, 75, 0
8, 90336, Note_on_c, 6, 82, 50
8, 90360, Note_on_c, 6, 82, 0
8, 90384, Note_on_c, 6, 82, 50
8, 90408, Note_on_c, 6, 82, 0
8, 90432, Note_on_c, 6, 82, 55
8, 90456, Note_on_c, 6, 82, 0
8, 90480, Note_on_c, 6, 82, 50
8, 90504, Note_on_c, 6, 82, 0
8, 90528, Note_on_c, 6, 82, 50
8, 90552, Note_on_c, 6, 82, 0
8, 90576, Note_on_c, 6, 82, 55
8, 90600, Note_on_c, 6, 82, 0
8, 90624, Note_on_c, 6, 82, 50
8, 90648, Note_on_c, 6, 82, 0
8, 90672, Note_on_c, 6, 82, 50
8, 90696, Note_on_c, 6, 82, 0
8, 90720, Note_on_c, 6, 82, 55
8, 90744, Note_on_c, 6, 82, 0
8, 90768, Note_on_c, 6, 82, 50
8, 90792, Note_on_c, 6, 82, 0
8, 90816, Note_on_c, 6, 82, 50
8, 90840, Note_on_c, 6, 82, 0
8, 90864, Note_on_c, 6, 82, 55
8, 90888, Note_on_c, 6, 82, 0
8, 90912, Note_on_c, 6, 82, 50
8, 90936, Note_on_c, 6, 82, 0
8, 90960, Note_on_c, 6, 82, 50
8, 90984, Note_on_c, 6, 82, 0
8, 91008, Note_on_c, 6, 82, 50
8, 91032, Note_on_c, 6, 82, 0
8, 91584, Note_on_c, 6, 82, 50
8, 91608, Note_on_c, 6, 82, 0
8, 91728, Note_on_c, 6, 82, 50
8, 91752, Note_on_c, 6, 82, 0
8, 91872, Note_on_c, 6, 82, 50
8, 91896, Note_on_c, 6, 82, 0
8, 92016, Note_on_c, 6, 82, 50
8, 92040, Note_on_c, 6, 82, 0
8, 92160, Note_on_c, 6, 82, 50
8, 92184, Note_on_c, 6, 82, 0
8, 92736, Note_on_c, 6, 74, 77
8, 92736, Note_on_c, 6, 77, 77
8, 92760, Note_on_c, 6, 77, 0
8, 92760, Note_on_c, 6, 74, 0
8, 93024, Note_on_c, 6, 65, 90
8, 93024, Note_on_c, 6, 77, 90
8, 93048, Note_on_c, 6, 77, 0
8, 93048, Note_on_c, 6, 65, 0
8, 93312, Note_on_c, 6, 74, 120
8, 93312, Note_on_c, 6, 77, 120
8, 93342, Note_on_c, 6, 77, 0
8, 93342, Note_on_c, 6, 74, 0
8, 93600, Note_on_c, 6, 77, 120
8, 93600, Note_on_c, 6, 81, 120
8, 93630, Note_on_c, 6, 81, 0
8, 93630, Note_on_c, 6, 77, 0
8, 93888, Note_on_c, 6, 81, 125
8, 93923, Note_on_c, 6, 81, 0
8, 93960, Note_on_c, 6, 69, 115
8, 93972, Note_on_c, 6, 69, 0
8, 93984, Note_on_c, 6, 69, 115
8, 94008, Note_on_c, 6, 69, 0
8, 94032, Note_on_c, 6, 81, 125
8, 94067, Note_on_c, 6, 81, 0
8, 94104, Note_on_c, 6, 69, 115
8, 94116, Note_on_c, 6, 69, 0
8, 94128, Note_on_c, 6, 69, 115
8, 94152, Note_on_c, 6, 69, 0
8, 94176, Note_on_c, 6, 81, 125
8, 94211, Note_on_c, 6, 81, 0
8, 94248, Note_on_c, 6, 69, 115
8, 94260, Note_on_c, 6, 69, 0
8, 94272, Note_on_c, 6, 69, 115
8, 94296, Note_on_c, 6, 69, 0
8, 94320, Note_on_c, 6, 81, 125
8, 94355, Note_on_c, 6, 81, 0
8, 94392, Note_on_c, 6, 69, 115
8, 94404, Note_on_c, 6, 69, 0
8, 94416, Note_on_c, 6, 69, 115
8, 94440, Note_on_c, 6, 69, 0
8, 94464, Note_on_c, 6, 81, 125
8, 94499, Note_on_c, 6, 81, 0
8, 94536, Note_on_c, 6, 69, 115
8, 94548, Note_on_c, 6, 69, 0
8, 94560, Note_on_c, 6, 69, 115
8, 94584, Note_on_c, 6, 69, 0
8, 94608, Note_on_c, 6, 74, 120
8, 94632, Note_on_c, 6, 74, 0
8, 94656, Note_on_c, 6, 76, 115
8, 94680, Note_on_c, 6, 76, 0
8, 94704, Note_on_c, 6, 77, 115
8, 94728, Note_on_c, 6, 77, 0
8, 94752, Note_on_c, 6, 76, 120
8, 94776, Note_on_c, 6, 76, 0
8, 94800, Note_on_c, 6, 77, 115
8, 94824, Note_on_c, 6, 77, 0
8, 94848, Note_on_c, 6, 79, 115
8, 94872, Note_on_c, 6, 79, 0
8, 94896, Note_on_c, 6, 77, 120
8, 94920, Note_on_c, 6, 77, 0
8, 94944, Note_on_c, 6, 76, 115
8, 94968, Note_on_c, 6, 76, 0
8, 94992, Note_on_c, 6, 74, 115
8, 95016, Note_on_c, 6, 74, 0
8, 95040, Note_on_c, 6, 82, 120
8, 95064, Note_on_c, 6, 82, 0
8, 95088, Note_on_c, 6, 81, 115
8, 95112, Note_on_c, 6, 81, 0
8, 95136, Note_on_c, 6, 79, 115
8, 95160, Note_on_c, 6, 79, 0
8, 95184, Note_on_c, 6, 77, 120
8, 95208, Note_on_c, 6, 77, 0
8, 95232, Note_on_c, 6, 76, 115
8, 95256, Note_on_c, 6, 76, 0
8, 95280, Note_on_c, 6, 74, 115
8, 95304, Note_on_c, 6, 74, 0
8, 95328, Note_on_c, 6, 73, 120
8, 95352, Note_on_c, 6, 73, 0
8, 95376, Note_on_c, 6, 74, 115
8, 95400, Note_on_c, 6, 74, 0
8, 95424, Note_on_c, 6, 76, 115
8, 95448, Note_on_c, 6, 76, 0
8, 95472, Note_on_c, 6, 74, 120
8, 95496, Note_on_c, 6, 74, 0
8, 95520, Note_on_c, 6, 73, 115
8, 95544, Note_on_c, 6, 73, 0
8, 95568, Note_on_c, 6, 74, 115
8, 95592, Note_on_c, 6, 74, 0
8, 95616, Note_on_c, 6, 82, 120
8, 95640, Note_on_c, 6, 82, 0
8, 95664, Note_on_c, 6, 81, 115
8, 95688, Note_on_c, 6, 81, 0
8, 95712, Note_on_c, 6, 79, 115
8, 95736, Note_on_c, 6, 79, 0
8, 95760, Note_on_c, 6, 77, 120
8, 95784, Note_on_c, 6, 77, 0
8, 95808, Note_on_c, 6, 76, 115
8, 95832, Note_on_c, 6, 76, 0
8, 95856, Note_on_c, 6, 74, 115
8, 95880, Note_on_c, 6, 74, 0
8, 95904, Note_on_c, 6, 73, 120
8, 95928, Note_on_c, 6, 73, 0
8, 95952, Note_on_c, 6, 74, 115
8, 95976, Note_on_c, 6, 74, 0
8, 96000, Note_on_c, 6, 76, 115
8, 96024, Note_on_c, 6, 76, 0
8, 96048, Note_on_c, 6, 74, 120
8, 96072, Note_on_c, 6, 74, 0
8, 96096, Note_on_c, 6, 73, 115
8, 96120, Note_on_c, 6, 73, 0
8, 96144, Note_on_c, 6, 74, 115
8, 96168, Note_on_c, 6, 74, 0
8, 96192, Note_on_c, 6, 72, 120
8, 96216, Note_on_c, 6, 72, 0
8, 96240, Note_on_c, 6, 74, 115
8, 96264, Note_on_c, 6, 74, 0
8, 96288, Note_on_c, 6, 75, 115
8, 96312, Note_on_c, 6, 75, 0
8, 96336, Note_on_c, 6, 79, 120
8, 96360, Note_on_c, 6, 79, 0
8, 96384, Note_on_c, 6, 81, 115
8, 96408, Note_on_c, 6, 81, 0
8, 96432, Note_on_c, 6, 82, 115
8, 96456, Note_on_c, 6, 82, 0
8, 96480, Note_on_c, 6, 81, 120
8, 96504, Note_on_c, 6, 81, 0
8, 96528, Note_on_c, 6, 82, 115
8, 96552, Note_on_c, 6, 82, 0
8, 96576, Note_on_c, 6, 84, 115
8, 96600, Note_on_c, 6, 84, 0
8, 96624, Note_on_c, 6, 82, 120
8, 96648, Note_on_c, 6, 82, 0
8, 96672, Note_on_c, 6, 81, 115
8, 96696, Note_on_c, 6, 81, 0
8, 96720, Note_on_c, 6, 79, 115
8, 96744, Note_on_c, 6, 79, 0
8, 96768, Note_on_c, 6, 75, 105
8, 96792, Note_on_c, 6, 75, 0
8, 96816, Note_on_c, 6, 74, 100
8, 96840, Note_on_c, 6, 74, 0
8, 96864, Note_on_c, 6, 72, 100
8, 96888, Note_on_c, 6, 72, 0
8, 96912, Note_on_c, 6, 70, 105
8, 96936, Note_on_c, 6, 70, 0
8, 96960, Note_on_c, 6, 69, 100
8, 96984, Note_on_c, 6, 69, 0
8, 97008, Note_on_c, 6, 67, 100
8, 97032, Note_on_c, 6, 67, 0
8, 97056, Note_on_c, 6, 77, 105
8, 97080, Note_on_c, 6, 77, 0
8, 97104, Note_on_c, 6, 75, 100
8, 97128, Note_on_c, 6, 75, 0
8, 97152, Note_on_c, 6, 74, 100
8, 97176, Note_on_c, 6, 74, 0
8, 97200, Note_on_c, 6, 72, 105
8, 97224, Note_on_c, 6, 72, 0
8, 97248, Note_on_c, 6, 70, 100
8, 97272, Note_on_c, 6, 70, 0
8, 97296, Note_on_c, 6, 69, 100
8, 97320, Note_on_c, 6, 69, 0
8, 97344, Note_on_c, 6, 69, 105
8, 97368, Note_on_c, 6, 69, 0
8, 97392, Note_on_c, 6, 70, 100
8, 97416, Note_on_c, 6, 70, 0
8, 97440, Note_on_c, 6, 72, 100
8, 97464, Note_on_c, 6, 72, 0
8, 97488, Note_on_c, 6, 74, 105
8, 97512, Note_on_c, 6, 74, 0
8, 97536, Note_on_c, 6, 75, 100
8, 97560, Note_on_c, 6, 75, 0
8, 97584, Note_on_c, 6, 77, 100
8, 97608, Note_on_c, 6, 77, 0
8, 97632, Note_on_c, 6, 79, 105
8, 97656, Note_on_c, 6, 79, 0
8, 97680, Note_on_c, 6, 81, 100
8, 97704, Note_on_c, 6, 81, 0
8, 97728, Note_on_c, 6, 82, 100
8, 97752, Note_on_c, 6, 82, 0
8, 97776, Note_on_c, 6, 84, 105
8, 97800, Note_on_c, 6, 84, 0
8, 97824, Note_on_c, 6, 86, 100
8, 97848, Note_on_c, 6, 86, 0
8, 97872, Note_on_c, 6, 75, 100
8, 97896, Note_on_c, 6, 75, 0
8, 97920, Control_c, 6, 1, 0
8, 97920, Note_on_c, 6, 77, 100
8, 97921, Control_c, 6, 1, 1
8, 97922, Control_c, 6, 1, 2
8, 97923, Control_c, 6, 1, 3
8, 97924, Control_c, 6, 1, 4
8, 97926, Control_c, 6, 1, 5
8, 97928, Control_c, 6, 1, 6
8, 97929, Control_c, 6, 1, 7
8, 97931, Control_c, 6, 1, 8
8, 97933, Control_c, 6, 1, 9
8, 97936, Control_c, 6, 1, 10
8, 97938, Control_c, 6, 1, 11
8, 97941, Control_c, 6, 1, 12
8, 97944, Control_c, 6, 11, 60
8, 97944, Control_c, 6, 1, 13
8, 97947, Control_c, 6, 1, 14
8, 97951, Control_c, 6, 1, 15
8, 97956, Control_c, 6, 1, 16
8, 97961, Control_c, 6, 1, 17
8, 97969, Control_c, 6, 1, 18
8, 97979, Control_c, 6, 1, 19
8, 97997, Control_c, 6, 1, 20
8, 98208, Control_c, 6, 11, 60
8, 98228, Control_c, 6, 11, 61
8, 98247, Control_c, 6, 11, 62
8, 98266, Control_c, 6, 11, 63
8, 98285, Control_c, 6, 11, 64
8, 98304, Control_c, 6, 11, 65
8, 98323, Control_c, 6, 11, 66
8, 98343, Control_c, 6, 11, 67
8, 98352, Note_on_c, 6, 75, 100
8, 98353, Note_on_c, 6, 77, 0
8, 98362, Control_c, 6, 11, 68
8, 98381, Control_c, 6, 11, 69
8, 98400, Control_c, 6, 11, 70
8, 98419, Control_c, 6, 11, 71
8, 98438, Control_c, 6, 11, 72
8, 98458, Control_c, 6, 11, 73
8, 98477, Control_c, 6, 11, 74
8, 98496, Control_c, 6, 11, 75
8, 98515, Control_c, 6, 11, 76
8, 98534, Control_c, 6, 11, 77
8, 98553, Control_c, 6, 11, 78
8, 98573, Control_c, 6, 11, 79
8, 98592, Control_c, 6, 11, 80
8, 98611, Control_c, 6, 11, 81
8, 98630, Control_c, 6, 11, 82
8, 98640, Note_on_c, 6, 74, 100
8, 98641, Note_on_c, 6, 75, 0
8, 98649, Control_c, 6, 11, 83
8, 98668, Control_c, 6, 11, 84
8, 98688, Control_c, 6, 11, 85
8, 98707, Control_c, 6, 11, 86
8, 98726, Control_c, 6, 11, 87
8, 98745, Control_c, 6, 11, 88
8, 98764, Control_c, 6, 11, 89
8, 98783, Control_c, 6, 11, 90
8, 98784, Control_c, 6, 11, 90
8, 98784, Note_on_c, 6, 73, 100
8, 98785, Note_on_c, 6, 74, 0
8, 98794, Control_c, 6, 11, 89
8, 98804, Control_c, 6, 11, 88
8, 98813, Control_c, 6, 11, 87
8, 98823, Control_c, 6, 11, 86
8, 98832, Control_c, 6, 11, 85
8, 98842, Control_c, 6, 11, 84
8, 98851, Control_c, 6, 11, 83
8, 98861, Control_c, 6, 11, 82
8, 98871, Control_c, 6, 11, 81
8, 98880, Control_c, 6, 11, 80
8, 98890, Control_c, 6, 11, 79
8, 98899, Control_c, 6, 11, 78
8, 98909, Control_c, 6, 11, 77
8, 98918, Control_c, 6, 11, 76
8, 98928, Note_on_c, 6, 72, 100
8, 98928, Control_c, 6, 11, 75
8, 98929, Note_on_c, 6, 73, 0
8, 98938, Control_c, 6, 11, 74
8, 98947, Control_c, 6, 11, 73
8, 98957, Control_c, 6, 11, 72
8, 98966, Control_c, 6, 11, 71
8, 98976, Control_c, 6, 11, 70
8, 98985, Control_c, 6, 11, 69
8, 98995, Control_c, 6, 11, 68
8, 99005, Control_c, 6, 11, 67
8, 99014, Control_c, 6, 11, 66
8, 99024, Control_c, 6, 11, 65
8, 99033, Control_c, 6, 11, 64
8, 99043, Control_c, 6, 11, 63
8, 99052, Control_c, 6, 11, 62
8, 99062, Control_c, 6, 11, 61
8, 99071, Control_c, 6, 11, 60
8, 99072, Control_c, 6, 1, 0
8, 99072, Note_on_c, 6, 82, 100
8, 99073, Note_on_c, 6, 72, 0
8, 99073, Control_c, 6, 1, 1
8, 99074, Control_c, 6, 1, 2
8, 99075, Control_c, 6, 1, 3
8, 99076, Control_c, 6, 1, 4
8, 99078, Control_c, 6, 1, 5
8, 99080, Control_c, 6, 1, 6
8, 99081, Control_c, 6, 1, 7
8, 99083, Control_c, 6, 1, 8
8, 99085, Control_c, 6, 1, 9
8, 99088, Control_c, 6, 1, 10
8, 99090, Control_c, 6, 1, 11
8, 99093, Control_c, 6, 1, 12
8, 99096, Control_c, 6, 1, 13
8, 99099, Control_c, 6, 1, 14
8, 99103, Control_c, 6, 1, 15
8, 99108, Control_c, 6, 1, 16
8, 99113, Control_c, 6, 1, 17
8, 99121, Control_c, 6, 1, 18
8, 99131, Control_c, 6, 1, 19
8, 99149, Control_c, 6, 1, 20
8, 99360, Note_on_c, 6, 81, 100
8, 99361, Note_on_c, 6, 82, 0
8, 99504, Control_c, 6, 11, 60
8, 99519, Control_c, 6, 11, 61
8, 99533, Control_c, 6, 11, 62
8, 99548, Control_c, 6, 11, 63
8, 99562, Control_c, 6, 11, 64
8, 99576, Control_c, 6, 11, 65
8, 99591, Control_c, 6, 11, 66
8, 99605, Control_c, 6, 11, 67
8, 99619, Control_c, 6, 11, 68
8, 99634, Control_c, 6, 11, 69
8, 99648, Note_on_c, 6, 83, 100
8, 99648, Control_c, 6, 11, 70
8, 99663, Control_c, 6, 11, 71
8, 99677, Control_c, 6, 11, 72
8, 99691, Control_c, 6, 11, 73
8, 99706, Control_c, 6, 11, 74
8, 99720, Control_c, 6, 11, 75
8, 99734, Control_c, 6, 11, 76
8, 99749, Control_c, 6, 11, 77
8, 99763, Control_c, 6, 11, 78
8, 99778, Control_c, 6, 11, 79
8, 99792, Note_on_c, 6, 79, 100
8, 99792, Control_c, 6, 11, 80
8, 99793, Note_on_c, 6, 81, 0
8, 99806, Control_c, 6, 11, 81
8, 99821, Control_c, 6, 11, 82
8, 99835, Control_c, 6, 11, 83
8, 99849, Control_c, 6, 11, 84
8, 99864, Control_c, 6, 11, 85
8, 99878, Control_c, 6, 11, 86
8, 99893, Control_c, 6, 11, 87
8, 99907, Control_c, 6, 11, 88
8, 99921, Control_c, 6, 11, 89
8, 99936, Note_on_c, 6, 82, 100
8, 99936, Control_c, 6, 11, 90
8, 99937, Note_on_c, 6, 83, 0
8, 99950, Control_c, 6, 11, 91
8, 99964, Control_c, 6, 11, 92
8, 99979, Control_c, 6, 11, 93
8, 99993, Control_c, 6, 11, 94
8, 100008, Control_c, 6, 11, 95
8, 100022, Control_c, 6, 11, 96
8, 100036, Control_c, 6, 11, 97
8, 100051, Control_c, 6, 11, 98
8, 100065, Control_c, 6, 11, 99
8, 100079, Control_c, 6, 11, 100
8, 100080, Control_c, 6, 11, 100
8, 100080, Note_on_c, 6, 78, 100
8, 100080, Note_on_c, 6, 81, 100
8, 100081, Note_on_c, 6, 82, 0
8, 100081, Note_on_c, 6, 79, 0
8, 100091, Control_c, 6, 11, 99
8, 100102, Control_c, 6, 11, 98
8, 100113, Control_c, 6, 11, 97
8, 100124, Control_c, 6, 11, 96
8, 100134, Control_c, 6, 11, 95
8, 100145, Control_c, 6, 11, 94
8, 100156, Control_c, 6, 11, 93
8, 100167, Control_c, 6, 11, 92
8, 100177, Control_c, 6, 11, 91
8, 100188, Control_c, 6, 11, 90
8, 100199, Control_c, 6, 11, 89
8, 100210, Control_c, 6, 11, 88
8, 100221, Control_c, 6, 11, 87
8, 100224, Note_on_c, 6, 77, 100
8, 100225, Note_on_c, 6, 78, 0
8, 100231, Control_c, 6, 11, 86
8, 100242, Control_c, 6, 11, 85
8, 100253, Control_c, 6, 11, 84
8, 100264, Control_c, 6, 11, 83
8, 100274, Control_c, 6, 11, 82
8, 100285, Control_c, 6, 11, 81
8, 100296, Control_c, 6, 11, 80
8, 100307, Control_c, 6, 11, 79
8, 100318, Control_c, 6, 11, 78
8, 100328, Control_c, 6, 11, 77
8, 100339, Control_c, 6, 11, 76
8, 100350, Control_c, 6, 11, 75
8, 100361, Control_c, 6, 11, 74
8, 100368, Note_on_c, 6, 76, 100
8, 100369, Note_on_c, 6, 77, 0
8, 100371, Control_c, 6, 11, 73
8, 100382, Control_c, 6, 11, 72
8, 100393, Control_c, 6, 11, 71
8, 100404, Control_c, 6, 11, 70
8, 100415, Control_c, 6, 11, 69
8, 100425, Control_c, 6, 11, 68
8, 100436, Control_c, 6, 11, 67
8, 100447, Control_c, 6, 11, 66
8, 100458, Control_c, 6, 11, 65
8, 100468, Control_c, 6, 11, 64
8, 100479, Control_c, 6, 11, 63
8, 100490, Control_c, 6, 11, 62
8, 100501, Control_c, 6, 11, 61
8, 100511, Control_c, 6, 11, 60
8, 100512, Note_on_c, 6, 81, 0
8, 100512, Note_on_c, 6, 76, 0
8, 101808, Control_c, 6, 11, 60
8, 101808, Control_c, 6, 1, 0
8, 101808, Note_on_c, 6, 78, 100
8, 101809, Control_c, 6, 1, 1
8, 101810, Control_c, 6, 1, 2
8, 101811, Control_c, 6, 1, 3
8, 101812, Control_c, 6, 1, 4
8, 101814, Control_c, 6, 1, 5
8, 101816, Control_c, 6, 1, 6
8, 101817, Control_c, 6, 1, 7
8, 101819, Control_c, 6, 1, 8
8, 101821, Control_c, 6, 1, 9
8, 101824, Control_c, 6, 1, 10
8, 101825, Control_c, 6, 11, 61
8, 101826, Control_c, 6, 1, 11
8, 101829, Control_c, 6, 1, 12
8, 101832, Control_c, 6, 1, 13
8, 101835, Control_c, 6, 1, 14
8, 101839, Control_c, 6, 1, 15
8, 101842, Control_c, 6, 11, 62
8, 101844, Control_c, 6, 1, 16
8, 101849, Control_c, 6, 1, 17
8, 101857, Control_c, 6, 1, 18
8, 101859, Control_c, 6, 11, 63
8, 101867, Control_c, 6, 1, 19
8, 101876, Control_c, 6, 11, 64
8, 101885, Control_c, 6, 1, 20
8, 101892, Control_c, 6, 11, 65
8, 101909, Control_c, 6, 11, 66
8, 101926, Control_c, 6, 11, 67
8, 101943, Control_c, 6, 11, 68
8, 101952, Note_on_c, 6, 75, 100
8, 101960, Control_c, 6, 11, 69
8, 101976, Control_c, 6, 11, 70
8, 101993, Control_c, 6, 11, 71
8, 102010, Control_c, 6, 11, 72
8, 102027, Control_c, 6, 11, 73
8, 102043, Control_c, 6, 11, 74
8, 102060, Control_c, 6, 11, 75
8, 102077, Control_c, 6, 11, 76
8, 102094, Control_c, 6, 11, 77
8, 102096, Note_on_c, 6, 76, 100
8, 102096, Note_on_c, 6, 79, 100
8, 102097, Note_on_c, 6, 78, 0
8, 102097, Note_on_c, 6, 75, 0
8, 102111, Control_c, 6, 11, 78
8, 102127, Control_c, 6, 11, 79
8, 102144, Control_c, 6, 11, 80
8, 102161, Control_c, 6, 11, 81
8, 102178, Control_c, 6, 11, 82
8, 102195, Control_c, 6, 11, 83
8, 102211, Control_c, 6, 11, 84
8, 102228, Control_c, 6, 11, 85
8, 102240, Note_on_c, 6, 73, 100
8, 102241, Note_on_c, 6, 79, 0
8, 102245, Control_c, 6, 11, 86
8, 102262, Control_c, 6, 11, 87
8, 102278, Control_c, 6, 11, 88
8, 102295, Control_c, 6, 11, 89
8, 102312, Control_c, 6, 11, 90
8, 102329, Control_c, 6, 11, 91
8, 102346, Control_c, 6, 11, 92
8, 102362, Control_c, 6, 11, 93
8, 102379, Control_c, 6, 11, 94
8, 102384, Note_on_c, 6, 74, 100
8, 102384, Note_on_c, 6, 78, 100
8, 102385, Note_on_c, 6, 76, 0
8, 102385, Note_on_c, 6, 73, 0
8, 102396, Control_c, 6, 11, 95
8, 102413, Control_c, 6, 11, 96
8, 102429, Control_c, 6, 11, 97
8, 102446, Control_c, 6, 11, 98
8, 102463, Control_c, 6, 11, 99
8, 102480, Control_c, 6, 11, 100
8, 102497, Control_c, 6, 11, 101
8, 102513, Control_c, 6, 11, 102
8, 102528, Note_on_c, 6, 81, 100
8, 102529, Note_on_c, 6, 78, 0
8, 102530, Control_c, 6, 11, 103
8, 102547, Control_c, 6, 11, 104
8, 102564, Control_c, 6, 11, 105
8, 102581, Control_c, 6, 11, 106
8, 102597, Control_c, 6, 11, 107
8, 102614, Control_c, 6, 11, 108
8, 102631, Control_c, 6, 11, 109
8, 102648, Control_c, 6, 11, 110
8, 102664, Control_c, 6, 11, 111
8, 102672, Note_on_c, 6, 73, 100
8, 102673, Note_on_c, 6, 74, 0
8, 102681, Control_c, 6, 11, 112
8, 102698, Control_c, 6, 11, 113
8, 102715, Control_c, 6, 11, 114
8, 102732, Control_c, 6, 11, 115
8, 102748, Control_c, 6, 11, 116
8, 102765, Control_c, 6, 11, 117
8, 102766, Note_on_c, 6, 81, 0
8, 102766, Note_on_c, 6, 73, 0
8, 102768, Note_on_c, 6, 73, 100
8, 102782, Control_c, 6, 11, 118
8, 102799, Control_c, 6, 11, 119
8, 102815, Control_c, 6, 11, 120
8, 102816, Note_on_c, 6, 73, 0
8, 102816, Control_c, 6, 1, 0
8, 102816, Note_on_c, 6, 74, 113
8, 102912, Note_on_c, 6, 74, 0
8, 102912, Note_on_c, 6, 76, 111
8, 102936, Note_on_c, 6, 76, 0
8, 102936, Note_on_c, 6, 78, 112
8, 102960, Note_on_c, 6, 78, 0
8, 102960, Note_on_c, 6, 79, 113
8, 102984, Note_on_c, 6, 79, 0
8, 103056, Note_on_c, 6, 78, 110
8, 103080, Note_on_c, 6, 78, 0
8, 103104, Note_on_c, 6, 76, 113
8, 103128, Note_on_c, 6, 76, 0
8, 103200, Note_on_c, 6, 74, 110
8, 103224, Note_on_c, 6, 74, 0
8, 103248, Note_on_c, 6, 76, 113
8, 103272, Note_on_c, 6, 76, 0
8, 103344, Note_on_c, 6, 73, 110
8, 103368, Note_on_c, 6, 73, 0
8, 103392, Note_on_c, 6, 74, 113
8, 103392, Note_on_c, 6, 78, 113
8, 103488, Note_on_c, 6, 78, 0
8, 103488, Note_on_c, 6, 74, 0
8, 103488, Note_on_c, 6, 76, 111
8, 103488, Note_on_c, 6, 79, 111
8, 103512, Note_on_c, 6, 79, 0
8, 103512, Note_on_c, 6, 76, 0
8, 103512, Note_on_c, 6, 78, 112
8, 103512, Note_on_c, 6, 81, 112
8, 103536, Note_on_c, 6, 81, 0
8, 103536, Note_on_c, 6, 78, 0
8, 103536, Note_on_c, 6, 79, 113
8, 103536, Note_on_c, 6, 83, 113
8, 103560, Note_on_c, 6, 83, 0
8, 103560, Note_on_c, 6, 79, 0
8, 103632, Note_on_c, 6, 78, 110
8, 103632, Note_on_c, 6, 81, 110
8, 103656, Note_on_c, 6, 81, 0
8, 103656, Note_on_c, 6, 78, 0
8, 103680, Note_on_c, 6, 76, 113
8, 103680, Note_on_c, 6, 79, 113
8, 103704, Note_on_c, 6, 79, 0
8, 103704, Note_on_c, 6, 76, 0
8, 103776, Note_on_c, 6, 74, 110
8, 103776, Note_on_c, 6, 78, 110
8, 103800, Note_on_c, 6, 78, 0
8, 103800, Note_on_c, 6, 74, 0
8, 103824, Note_on_c, 6, 76, 113
8, 103824, Note_on_c, 6, 79, 113
8, 103848, Note_on_c, 6, 79, 0
8, 103848, Note_on_c, 6, 76, 0
8, 103920, Note_on_c, 6, 73, 110
8, 103920, Note_on_c, 6, 76, 110
8, 103944, Note_on_c, 6, 76, 0
8, 103944, Note_on_c, 6, 73, 0
8, 103968, Note_on_c, 6, 74, 113
8, 103992, Note_on_c, 6, 74, 0
8, 104016, Note_on_c, 6, 65, 110
8, 104016, Note_on_c, 6, 74, 110
8, 104064, Note_on_c, 6, 74, 0
8, 104064, Note_on_c, 6, 65, 0
8, 104064, Note_on_c, 6, 67, 111
8, 104064, Note_on_c, 6, 76, 111
8, 104088, Note_on_c, 6, 76, 0
8, 104088, Note_on_c, 6, 67, 0
8, 104088, Note_on_c, 6, 69, 112
8, 104088, Note_on_c, 6, 77, 112
8, 104112, Note_on_c, 6, 77, 0
8, 104112, Note_on_c, 6, 69, 0
8, 104112, Note_on_c, 6, 70, 113
8, 104112, Note_on_c, 6, 79, 113
8, 104136, Note_on_c, 6, 79, 0
8, 104136, Note_on_c, 6, 70, 0
8, 104160, Note_on_c, 6, 70, 110
8, 104160, Note_on_c, 6, 79, 110
8, 104184, Note_on_c, 6, 79, 0
8, 104184, Note_on_c, 6, 70, 0
8, 104208, Note_on_c, 6, 69, 110
8, 104208, Note_on_c, 6, 77, 110
8, 104232, Note_on_c, 6, 77, 0
8, 104232, Note_on_c, 6, 69, 0
8, 104256, Note_on_c, 6, 67, 113
8, 104256, Note_on_c, 6, 76, 113
8, 104280, Note_on_c, 6, 76, 0
8, 104280, Note_on_c, 6, 67, 0
8, 104304, Note_on_c, 6, 67, 110
8, 104304, Note_on_c, 6, 76, 110
8, 104328, Note_on_c, 6, 76, 0
8, 104328, Note_on_c, 6, 67, 0
8, 104352, Note_on_c, 6, 65, 110
8, 104352, Note_on_c, 6, 74, 110
8, 104376, Note_on_c, 6, 74, 0
8, 104376, Note_on_c, 6, 65, 0
8, 104400, Note_on_c, 6, 67, 113
8, 104400, Note_on_c, 6, 76, 113
8, 104424, Note_on_c, 6, 76, 0
8, 104424, Note_on_c, 6, 67, 0
8, 104448, Note_on_c, 6, 67, 110
8, 104448, Note_on_c, 6, 76, 110
8, 104472, Note_on_c, 6, 76, 0
8, 104472, Note_on_c, 6, 67, 0
8, 104496, Note_on_c, 6, 64, 110
8, 104496, Note_on_c, 6, 73, 110
8, 104520, Note_on_c, 6, 73, 0
8, 104520, Note_on_c, 6, 64, 0
8, 104544, Note_on_c, 6, 74, 113
8, 104544, Note_on_c, 6, 77, 113
8, 104568, Note_on_c, 6, 77, 0
8, 104568, Note_on_c, 6, 74, 0
8, 104592, Note_on_c, 6, 74, 111
8, 104592, Note_on_c, 6, 77, 111
8, 104640, Note_on_c, 6, 77, 0
8, 104640, Note_on_c, 6, 74, 0
8, 104640, Note_on_c, 6, 76, 112
8, 104640, Note_on_c, 6, 79, 112
8, 104664, Note_on_c, 6, 79, 0
8, 104664, Note_on_c, 6, 76, 0
8, 104664, Note_on_c, 6, 77, 113
8, 104664, Note_on_c, 6, 81, 113
8, 104688, Note_on_c, 6, 81, 0
8, 104688, Note_on_c, 6, 77, 0
8, 104688, Note_on_c, 6, 79, 113
8, 104688, Note_on_c, 6, 82, 113
8, 104712, Note_on_c, 6, 82, 0
8, 104712, Note_on_c, 6, 79, 0
8, 104736, Note_on_c, 6, 79, 110
8, 104736, Note_on_c, 6, 82, 110
8, 104760, Note_on_c, 6, 82, 0
8, 104760, Note_on_c, 6, 79, 0
8, 104784, Note_on_c, 6, 77, 110
8, 104784, Note_on_c, 6, 81, 110
8, 104808, Note_on_c, 6, 81, 0
8, 104808, Note_on_c, 6, 77, 0
8, 104832, Note_on_c, 6, 76, 113
8, 104832, Note_on_c, 6, 79, 113
8, 104856, Note_on_c, 6, 79, 0
8, 104856, Note_on_c, 6, 76, 0
8, 104880, Note_on_c, 6, 76, 110
8, 104880, Note_on_c, 6, 79, 110
8, 104904, Note_on_c, 6, 79, 0
8, 104904, Note_on_c, 6, 76, 0
8, 104928, Note_on_c, 6, 74, 110
8, 104928, Note_on_c, 6, 77, 110
8, 104952, Note_on_c, 6, 77, 0
8, 104952, Note_on_c, 6, 74, 0
8, 104976, Note_on_c, 6, 76, 113
8, 104976, Note_on_c, 6, 79, 113
8, 105000, Note_on_c, 6, 79, 0
8, 105000, Note_on_c, 6, 76, 0
8, 105024, Note_on_c, 6, 76, 110
8, 105024, Note_on_c, 6, 79, 110
8, 105048, Note_on_c, 6, 79, 0
8, 105048, Note_on_c, 6, 76, 0
8, 105072, Note_on_c, 6, 73, 110
8, 105072, Note_on_c, 6, 76, 110
8, 105096, Note_on_c, 6, 76, 0
8, 105096, Note_on_c, 6, 73, 0
8, 105120, Note_on_c, 6, 77, 116
8, 105155, Note_on_c, 6, 77, 0
8, 105192, Note_on_c, 6, 65, 113
8, 105204, Note_on_c, 6, 65, 0
8, 105216, Note_on_c, 6, 65, 113
8, 105240, Note_on_c, 6, 65, 0
8, 105264, Note_on_c, 6, 77, 116
8, 105288, Note_on_c, 6, 77, 0
8, 105312, Note_on_c, 6, 79, 113
8, 105336, Note_on_c, 6, 79, 0
8, 105360, Note_on_c, 6, 81, 113
8, 105384, Note_on_c, 6, 81, 0
8, 105408, Note_on_c, 6, 82, 113
8, 105432, Note_on_c, 6, 82, 0
8, 105552, Note_on_c, 6, 70, 116
8, 105552, Note_on_c, 6, 82, 116
8, 105576, Note_on_c, 6, 82, 0
8, 105576, Note_on_c, 6, 70, 0
8, 105600, Note_on_c, 6, 72, 113
8, 105600, Note_on_c, 6, 84, 113
8, 105624, Note_on_c, 6, 84, 0
8, 105624, Note_on_c, 6, 72, 0
8, 105648, Note_on_c, 6, 74, 113
8, 105648, Note_on_c, 6, 86, 113
8, 105672, Note_on_c, 6, 86, 0
8, 105672, Note_on_c, 6, 74, 0
8, 105696, Note_on_c, 6, 76, 116
8, 105731, Note_on_c, 6, 76, 0
8, 105768, Note_on_c, 6, 64, 113
8, 105780, Note_on_c, 6, 64, 0
8, 105792, Note_on_c, 6, 64, 113
8, 105816, Note_on_c, 6, 64, 0
8, 105840, Note_on_c, 6, 64, 116
8, 105840, Note_on_c, 6, 76, 116
8, 105864, Note_on_c, 6, 76, 0
8, 105864, Note_on_c, 6, 64, 0
8, 105888, Note_on_c, 6, 65, 113
8, 105888, Note_on_c, 6, 77, 113
8, 105912, Note_on_c, 6, 77, 0
8, 105912, Note_on_c, 6, 65, 0
8, 105936, Note_on_c, 6, 67, 113
8, 105936, Note_on_c, 6, 79, 113
8, 105960, Note_on_c, 6, 79, 0
8, 105960, Note_on_c, 6, 67, 0
8, 105984, Note_on_c, 6, 69, 116
8, 105984, Note_on_c, 6, 81, 116
8, 106008, Note_on_c, 6, 81, 0
8, 106008, Note_on_c, 6, 69, 0
8, 106128, Note_on_c, 6, 69, 116
8, 106152, Note_on_c, 6, 69, 0
8, 106176, Note_on_c, 6, 74, 116
8, 106200, Note_on_c, 6, 74, 0
8, 106224, Note_on_c, 6, 76, 113
8, 106248, Note_on_c, 6, 76, 0
8, 106272, Note_on_c, 6, 74, 60
8, 106272, Note_on_c, 6, 78, 60
8, 106296, Note_on_c, 6, 78, 0
8, 106296, Note_on_c, 6, 74, 0
8, 106560, Note_on_c, 6, 74, 60
8, 106560, Note_on_c, 6, 79, 60
8, 106584, Note_on_c, 6, 79, 0
8, 106584, Note_on_c, 6, 74, 0
8, 107136, Control_c, 6, 1, 0
8, 107136, Control_c, 6, 11, 60
8, 107136, Note_on_c, 6, 75, 100
8, 107136, Note_on_c, 6, 79, 100
8, 107137, Control_c, 6, 1, 1
8, 107138, Control_c, 6, 1, 2
8, 107139, Control_c, 6, 1, 3
8, 107140, Control_c, 6, 1, 4
8, 107142, Control_c, 6, 1, 5
8, 107144, Control_c, 6, 1, 6
8, 107145, Control_c, 6, 1, 7
8, 107146, Control_c, 6, 11, 61
8, 107147, Control_c, 6, 1, 8
8, 107149, Control_c, 6, 1, 9
8, 107152, Control_c, 6, 1, 10
8, 107154, Control_c, 6, 1, 11
8, 107156, Control_c, 6, 11, 62
8, 107157, Control_c, 6, 1, 12
8, 107160, Control_c, 6, 1, 13
8, 107163, Control_c, 6, 1, 14
8, 107165, Control_c, 6, 11, 63
8, 107167, Control_c, 6, 1, 15
8, 107172, Control_c, 6, 1, 16
8, 107175, Control_c, 6, 11, 64
8, 107177, Control_c, 6, 1, 17
8, 107184, Control_c, 6, 11, 65
8, 107185, Control_c, 6, 1, 18
8, 107194, Control_c, 6, 11, 66
8, 107195, Control_c, 6, 1, 19
8, 107204, Control_c, 6, 11, 67
8, 107213, Control_c, 6, 11, 68
8, 107213, Control_c, 6, 1, 20
8, 107223, Control_c, 6, 11, 69
8, 107232, Control_c, 6, 11, 70
8, 107242, Control_c, 6, 11, 71
8, 107251, Control_c, 6, 11, 72
8, 107261, Control_c, 6, 11, 73
8, 107271, Control_c, 6, 11, 74
8, 107279, Note_on_c, 6, 79, 0
8, 107279, Note_on_c, 6, 75, 0
8, 107280, Note_on_c, 6, 75, 100
8, 107280, Note_on_c, 6, 79, 100
8, 107280, Control_c, 6, 11, 75
8, 107290, Control_c, 6, 11, 76
8, 107299, Control_c, 6, 11, 77
8, 107309, Control_c, 6, 11, 78
8, 107319, Control_c, 6, 11, 79
8, 107328, Control_c, 6, 11, 80
8, 107338, Control_c, 6, 11, 81
8, 107347, Control_c, 6, 11, 82
8, 107357, Control_c, 6, 11, 83
8, 107366, Control_c, 6, 11, 84
8, 107376, Control_c, 6, 11, 85
8, 107386, Control_c, 6, 11, 86
8, 107395, Control_c, 6, 11, 87
8, 107405, Control_c, 6, 11, 88
8, 107414, Control_c, 6, 11, 89
8, 107423, Note_on_c, 6, 79, 0
8, 107423, Note_on_c, 6, 75, 0
8, 107424, Note_on_c, 6, 76, 100
8, 107424, Note_on_c, 6, 79, 100
8, 107424, Control_c, 6, 11, 90
8, 107434, Control_c, 6, 11, 91
8, 107443, Control_c, 6, 11, 92
8, 107453, Control_c, 6, 11, 93
8, 107462, Control_c, 6, 11, 94
8, 107472, Control_c, 6, 11, 95
8, 107481, Control_c, 6, 11, 96
8, 107491, Control_c, 6, 11, 97
8, 107501, Control_c, 6, 11, 98
8, 107510, Control_c, 6, 11, 99
8, 107520, Control_c, 6, 11, 100
8, 107529, Control_c, 6, 11, 101
8, 107539, Control_c, 6, 11, 102
8, 107549, Control_c, 6, 11, 103
8, 107558, Control_c, 6, 11, 104
8, 107568, Control_c, 6, 11, 105
8, 107577, Control_c, 6, 11, 106
8, 107587, Control_c, 6, 11, 107
8, 107596, Control_c, 6, 11, 108
8, 107606, Control_c, 6, 11, 109
8, 107616, Note_on_c, 6, 79, 0
8, 107616, Note_on_c, 6, 76, 0
8, 107616, Note_on_c, 6, 74, 100
8, 107616, Note_on_c, 6, 77, 100
8, 107616, Control_c, 6, 11, 110
8, 107625, Control_c, 6, 11, 111
8, 107635, Control_c, 6, 11, 112
8, 107644, Control_c, 6, 11, 113
8, 107654, Control_c, 6, 11, 114
8, 107664, Note_on_c, 6, 77, 0
8, 107664, Note_on_c, 6, 74, 0
8, 107664, Note_on_c, 6, 76, 100
8, 107664, Note_on_c, 6, 79, 100
8, 107664, Control_c, 6, 11, 115
8, 107673, Control_c, 6, 11, 116
8, 107683, Control_c, 6, 11, 117
8, 107692, Control_c, 6, 11, 118
8, 107702, Control_c, 6, 11, 119
8, 107711, Control_c, 6, 11, 120
8, 107712, Note_on_c, 6, 79, 0
8, 107712, Note_on_c, 6, 76, 0
8, 107712, Control_c, 6, 1, 0
8, 107712, Note_on_c, 6, 69, 105
8, 107712, Note_on_c, 6, 81, 105
8, 107736, Note_on_c, 6, 81, 0
8, 107736, Note_on_c, 6, 69, 0
8, 107760, Note_on_c, 6, 65, 100
8, 107760, Note_on_c, 6, 77, 100
8, 107784, Note_on_c, 6, 77, 0
8, 107784, Note_on_c, 6, 65, 0
8, 107808, Note_on_c, 6, 70, 100
8, 107808, Note_on_c, 6, 82, 100
8, 107832, Note_on_c, 6, 82, 0
8, 107832, Note_on_c, 6, 70, 0
8, 107856, Note_on_c, 6, 67, 105
8, 107856, Note_on_c, 6, 79, 105
8, 107880, Note_on_c, 6, 79, 0
8, 107880, Note_on_c, 6, 67, 0
8, 107904, Note_on_c, 6, 64, 100
8, 107904, Note_on_c, 6, 76, 100
8, 107928, Note_on_c, 6, 76, 0
8, 107928, Note_on_c, 6, 64, 0
8, 107952, Note_on_c, 6, 69, 100
8, 107952, Note_on_c, 6, 81, 100
8, 107976, Note_on_c, 6, 81, 0
8, 107976, Note_on_c, 6, 69, 0
8, 108000, Note_on_c, 6, 65, 100
8, 108000, Note_on_c, 6, 77, 100
8, 108024, Note_on_c, 6, 77, 0
8, 108024, Note_on_c, 6, 65, 0
8, 108288, Note_on_c, 6, 77, 105
8, 108288, Note_on_c, 6, 81, 105
8, 108312, Note_on_c, 6, 81, 0
8, 108312, Note_on_c, 6, 77, 0
8, 108336, Note_on_c, 6, 65, 100
8, 108336, Note_on_c, 6, 77, 100
8, 108360, Note_on_c, 6, 77, 0
8, 108360, Note_on_c, 6, 65, 0
8, 108384, Note_on_c, 6, 70, 100
8, 108384, Note_on_c, 6, 82, 100
8, 108408, Note_on_c, 6, 82, 0
8, 108408, Note_on_c, 6, 70, 0
8, 108432, Note_on_c, 6, 67, 105
8, 108432, Note_on_c, 6, 79, 105
8, 108456, Note_on_c, 6, 79, 0
8, 108456, Note_on_c, 6, 67, 0
8, 108480, Note_on_c, 6, 64, 100
8, 108480, Note_on_c, 6, 76, 100
8, 108504, Note_on_c, 6, 76, 0
8, 108504, Note_on_c, 6, 64, 0
8, 108528, Note_on_c, 6, 69, 100
8, 108528, Note_on_c, 6, 81, 100
8, 108552, Note_on_c, 6, 81, 0
8, 108552, Note_on_c, 6, 69, 0
8, 108576, Note_on_c, 6, 69, 105
8, 108576, Note_on_c, 6, 81, 105
8, 108600, Note_on_c, 6, 81, 0
8, 108600, Note_on_c, 6, 69, 0
8, 108624, Note_on_c, 6, 69, 100
8, 108624, Note_on_c, 6, 81, 100
8, 108648, Note_on_c, 6, 81, 0
8, 108648, Note_on_c, 6, 69, 0
8, 108672, Note_on_c, 6, 69, 100
8, 108672, Note_on_c, 6, 81, 100
8, 108696, Note_on_c, 6, 81, 0
8, 108696, Note_on_c, 6, 69, 0
8, 108720, Note_on_c, 6, 69, 105
8, 108720, Note_on_c, 6, 81, 105
8, 108744, Note_on_c, 6, 81, 0
8, 108744, Note_on_c, 6, 69, 0
8, 108768, Note_on_c, 6, 69, 100
8, 108768, Note_on_c, 6, 81, 100
8, 108792, Note_on_c, 6, 81, 0
8, 108792, Note_on_c, 6, 69, 0
8, 108816, Note_on_c, 6, 69, 100
8, 108816, Note_on_c, 6, 81, 100
8, 108840, Note_on_c, 6, 81, 0
8, 108840, Note_on_c, 6, 69, 0
8, 108864, Note_on_c, 6, 74, 105
8, 108864, Note_on_c, 6, 77, 105
8, 108888, Note_on_c, 6, 77, 0
8, 108888, Note_on_c, 6, 74, 0
8, 108912, Note_on_c, 6, 77, 100
8, 108912, Note_on_c, 6, 81, 100
8, 108936, Note_on_c, 6, 81, 0
8, 108936, Note_on_c, 6, 77, 0
8, 108960, Note_on_c, 6, 77, 100
8, 108960, Note_on_c, 6, 81, 100
8, 108984, Note_on_c, 6, 81, 0
8, 108984, Note_on_c, 6, 77, 0
8, 109008, Note_on_c, 6, 79, 105
8, 109008, Note_on_c, 6, 81, 105
8, 109032, Note_on_c, 6, 81, 0
8, 109032, Note_on_c, 6, 79, 0
8, 109056, Note_on_c, 6, 79, 100
8, 109056, Note_on_c, 6, 81, 100
8, 109080, Note_on_c, 6, 81, 0
8, 109080, Note_on_c, 6, 79, 0
8, 109104, Note_on_c, 6, 79, 100
8, 109104, Note_on_c, 6, 81, 100
8, 109128, Note_on_c, 6, 81, 0
8, 109128, Note_on_c, 6, 79, 0
8, 109152, Note_on_c, 6, 77, 105
8, 109152, Note_on_c, 6, 81, 105
8, 109176, Note_on_c, 6, 81, 0
8, 109176, Note_on_c, 6, 77, 0
8, 109200, Note_on_c, 6, 77, 100
8, 109200, Note_on_c, 6, 81, 100
8, 109224, Note_on_c, 6, 81, 0
8, 109224, Note_on_c, 6, 77, 0
8, 109248, Note_on_c, 6, 77, 100
8, 109248, Note_on_c, 6, 81, 100
8, 109272, Note_on_c, 6, 81, 0
8, 109272, Note_on_c, 6, 77, 0
8, 109296, Note_on_c, 6, 79, 105
8, 109296, Note_on_c, 6, 81, 105
8, 109320, Note_on_c, 6, 81, 0
8, 109320, Note_on_c, 6, 79, 0
8, 109344, Note_on_c, 6, 79, 100
8, 109344, Note_on_c, 6, 81, 100
8, 109368, Note_on_c, 6, 81, 0
8, 109368, Note_on_c, 6, 79, 0
8, 109392, Note_on_c, 6, 79, 100
8, 109392, Note_on_c, 6, 81, 100
8, 109416, Note_on_c, 6, 81, 0
8, 109416, Note_on_c, 6, 79, 0
8, 109728, Control_c, 6, 1, 0
8, 109728, Note_on_c, 6, 67, 45
8, 109729, Control_c, 6, 1, 2
8, 109731, Control_c, 6, 1, 3
8, 109732, Control_c, 6, 1, 4
8, 109733, Control_c, 6, 1, 5
8, 109735, Control_c, 6, 1, 6
8, 109736, Control_c, 6, 1, 7
8, 109738, Control_c, 6, 1, 8
8, 109740, Control_c, 6, 1, 9
8, 109743, Control_c, 6, 1, 10
8, 109745, Control_c, 6, 1, 11
8, 109748, Control_c, 6, 1, 12
8, 109752, Control_c, 6, 1, 13
8, 109757, Control_c, 6, 1, 14
8, 109764, Control_c, 6, 1, 15
8, 109776, Note_on_c, 6, 67, 0
8, 109776, Note_on_c, 6, 73, 51
8, 109776, Control_c, 6, 1, 16
8, 109824, Note_on_c, 6, 73, 0
8, 109824, Note_on_c, 6, 76, 54
8, 109872, Note_on_c, 6, 76, 0
8, 109872, Note_on_c, 6, 79, 57
8, 109920, Note_on_c, 6, 79, 0
8, 109920, Note_on_c, 6, 76, 54
8, 109968, Note_on_c, 6, 76, 0
8, 109968, Note_on_c, 6, 73, 51
8, 110016, Note_on_c, 6, 73, 0
8, 110016, Control_c, 6, 1, 0
8, 110016, Note_on_c, 6, 74, 50
8, 110040, Note_on_c, 6, 74, 0
8, 110160, Note_on_c, 6, 74, 55
8, 110160, Note_on_c, 6, 77, 55
8, 110195, Note_on_c, 6, 77, 0
8, 110195, Note_on_c, 6, 74, 0
8, 110232, Note_on_c, 6, 65, 50
8, 110232, Note_on_c, 6, 69, 50
8, 110244, Note_on_c, 6, 69, 0
8, 110244, Note_on_c, 6, 65, 0
8, 110256, Note_on_c, 6, 65, 50
8, 110256, Note_on_c, 6, 69, 50
8, 110280, Note_on_c, 6, 69, 0
8, 110280, Note_on_c, 6, 65, 0
8, 110304, Note_on_c, 6, 65, 50
8, 110304, Note_on_c, 6, 69, 50
8, 110328, Note_on_c, 6, 69, 0
8, 110328, Note_on_c, 6, 65, 0
8, 110448, Note_on_c, 6, 74, 55
8, 110448, Note_on_c, 6, 77, 55
8, 110483, Note_on_c, 6, 77, 0
8, 110483, Note_on_c, 6, 74, 0
8, 110520, Note_on_c, 6, 69, 50
8, 110520, Note_on_c, 6, 74, 50
8, 110532, Note_on_c, 6, 74, 0
8, 110532, Note_on_c, 6, 69, 0
8, 110544, Note_on_c, 6, 69, 50
8, 110544, Note_on_c, 6, 74, 50
8, 110568, Note_on_c, 6, 74, 0
8, 110568, Note_on_c, 6, 69, 0
8, 110592, Note_on_c, 6, 69, 50
8, 110592, Note_on_c, 6, 74, 50
8, 110616, Note_on_c, 6, 74, 0
8, 110616, Note_on_c, 6, 69, 0
8, 111312, Note_on_c, 6, 74, 58
8, 111347, Note_on_c, 6, 74, 0
8, 111384, Note_on_c, 6, 74, 62
8, 111396, Note_on_c, 6, 74, 0
8, 111408, Note_on_c, 6, 74, 64
8, 111432, Note_on_c, 6, 74, 0
8, 111456, Note_on_c, 6, 74, 66
8, 111480, Note_on_c, 6, 74, 0
8, 111600, Note_on_c, 6, 74, 75
8, 111635, Note_on_c, 6, 74, 0
8, 111672, Note_on_c, 6, 74, 79
8, 111684, Note_on_c, 6, 74, 0
8, 111696, Note_on_c, 6, 74, 80
8, 111720, Note_on_c, 6, 74, 0
8, 111744, Note_on_c, 6, 74, 83
8, 111768, Note_on_c, 6, 74, 0
8, 111888, Note_on_c, 6, 74, 92
8, 111923, Note_on_c, 6, 74, 0
8, 111960, Note_on_c, 6, 74, 96
8, 111972, Note_on_c, 6, 74, 0
8, 111984, Note_on_c, 6, 74, 97
8, 112008, Note_on_c, 6, 74, 0
8, 112032, Note_on_c, 6, 74, 100
8, 112056, Note_on_c, 6, 74, 0
8, 112176, Note_on_c, 6, 73, 109
8, 112176, Note_on_c, 6, 76, 109
8, 112210, Note_on_c, 6, 73, 0
8, 112211, Note_on_c, 6, 76, 0
8, 112248, Note_on_c, 6, 73, 113
8, 112248, Note_on_c, 6, 76, 113
8, 112260, Note_on_c, 6, 76, 0
8, 112260, Note_on_c, 6, 73, 0
8, 112272, Control_c, 6, 1, 0
8, 112272, Note_on_c, 6, 73, 114
8, 112272, Note_on_c, 6, 76, 114
8, 112273, Control_c, 6, 1, 2
8, 112274, Control_c, 6, 1, 3
8, 112275, Control_c, 6, 1, 4
8, 112277, Control_c, 6, 1, 5
8, 112278, Control_c, 6, 1, 6
8, 112279, Control_c, 6, 1, 7
8, 112281, Control_c, 6, 1, 8
8, 112282, Control_c, 6, 1, 9
8, 112284, Control_c, 6, 1, 10
8, 112286, Control_c, 6, 1, 11
8, 112288, Control_c, 6, 1, 12
8, 112291, Control_c, 6, 1, 13
8, 112294, Control_c, 6, 1, 14
8, 112298, Control_c, 6, 1, 15
8, 112303, Control_c, 6, 1, 16
8, 112310, Control_c, 6, 1, 17
8, 112317, Note_on_c, 6, 76, 0
8, 112317, Note_on_c, 6, 73, 0
8, 112321, Control_c, 6, 1, 18
8, 112368, Control_c, 6, 1, 0
8, 113520, Note_on_c, 6, 81, 50
8, 113555, Note_on_c, 6, 81, 0
8, 113592, Note_on_c, 6, 69, 54
8, 113604, Note_on_c, 6, 69, 0
8, 113616, Note_on_c, 6, 69, 55
8, 113640, Note_on_c, 6, 69, 0
8, 113664, Note_on_c, 6, 74, 58
8, 113688, Note_on_c, 6, 74, 0
8, 113712, Note_on_c, 6, 76, 61
8, 113736, Note_on_c, 6, 76, 0
8, 113760, Note_on_c, 6, 77, 64
8, 113784, Note_on_c, 6, 77, 0
8, 113808, Note_on_c, 6, 81, 66
8, 113843, Note_on_c, 6, 81, 0
8, 113880, Note_on_c, 6, 69, 71
8, 113892, Note_on_c, 6, 69, 0
8, 113904, Note_on_c, 6, 69, 72
8, 113928, Note_on_c, 6, 69, 0
8, 113952, Note_on_c, 6, 74, 75
8, 113976, Note_on_c, 6, 74, 0
8, 114000, Note_on_c, 6, 76, 78
8, 114024, Note_on_c, 6, 76, 0
8, 114048, Note_on_c, 6, 77, 80
8, 114072, Note_on_c, 6, 77, 0
8, 114096, Note_on_c, 6, 81, 83
8, 114131, Note_on_c, 6, 81, 0
8, 114168, Note_on_c, 6, 69, 87
8, 114180, Note_on_c, 6, 69, 0
8, 114192, Note_on_c, 6, 69, 89
8, 114216, Note_on_c, 6, 69, 0
8, 114240, Note_on_c, 6, 74, 92
8, 114264, Note_on_c, 6, 74, 0
8, 114288, Note_on_c, 6, 76, 95
8, 114312, Note_on_c, 6, 76, 0
8, 114336, Note_on_c, 6, 77, 97
8, 114360, Note_on_c, 6, 77, 0
8, 114384, Note_on_c, 6, 81, 100
8, 114419, Note_on_c, 6, 81, 0
8, 114456, Note_on_c, 6, 69, 104
8, 114468, Note_on_c, 6, 69, 0
8, 114480, Note_on_c, 6, 69, 106
8, 114504, Note_on_c, 6, 69, 0
8, 114528, Note_on_c, 6, 74, 109
8, 114552, Note_on_c, 6, 74, 0
8, 114576, Note_on_c, 6, 76, 111
8, 114600, Note_on_c, 6, 76, 0
8, 114624, Note_on_c, 6, 77, 114
8, 114648, Note_on_c, 6, 77, 0
8, 114672, Note_on_c, 6, 81, 125
8, 114696, Note_on_c, 6, 81, 0
8, 114720, Note_on_c, 6, 69, 115
8, 114744, Note_on_c, 6, 69, 0
8, 114768, Note_on_c, 6, 74, 125
8, 114792, Note_on_c, 6, 74, 0
8, 114816, Note_on_c, 6, 62, 115
8, 114840, Note_on_c, 6, 62, 0
8, 114864, Note_on_c, 6, 69, 125
8, 114888, Note_on_c, 6, 69, 0
8, 114912, Note_on_c, 6, 69, 115
8, 114936, Note_on_c, 6, 69, 0
8, 114960, Note_on_c, 6, 81, 125
8, 114984, Note_on_c, 6, 81, 0
8, 115008, Note_on_c, 6, 69, 120
8, 115032, Note_on_c, 6, 69, 0
8, 115056, Control_c, 6, 1, 0
8, 115056, Control_c, 6, 11, 120
8, 115056, Note_on_c, 6, 74, 110
8, 115057, Control_c, 6, 1, 2
8, 115058, Control_c, 6, 1, 3
8, 115059, Control_c, 6, 1, 4
8, 115060, Control_c, 6, 11, 119
8, 115060, Control_c, 6, 1, 5
8, 115062, Control_c, 6, 1, 6
8, 115063, Control_c, 6, 11, 118
8, 115063, Control_c, 6, 1, 7
8, 115064, Control_c, 6, 1, 8
8, 115066, Control_c, 6, 11, 117
8, 115066, Control_c, 6, 1, 9
8, 115067, Control_c, 6, 1, 10
8, 115069, Control_c, 6, 11, 116
8, 115069, Control_c, 6, 1, 11
8, 115071, Control_c, 6, 1, 12
8, 115072, Control_c, 6, 11, 115
8, 115073, Control_c, 6, 1, 13
8, 115075, Control_c, 6, 1, 14
8, 115076, Control_c, 6, 11, 114
8, 115078, Control_c, 6, 1, 15
8, 115079, Control_c, 6, 11, 113
8, 115082, Control_c, 6, 11, 112
8, 115082, Control_c, 6, 1, 16
8, 115085, Control_c, 6, 11, 111
8, 115085, Control_c, 6, 1, 17
8, 115088, Control_c, 6, 11, 110
8, 115090, Control_c, 6, 1, 18
8, 115092, Control_c, 6, 11, 109
8, 115095, Control_c, 6, 11, 108
8, 115098, Control_c, 6, 11, 107
8, 115098, Control_c, 6, 1, 19
8, 115101, Control_c, 6, 11, 106
8, 115104, Control_c, 6, 11, 105
8, 115107, Control_c, 6, 11, 104
8, 115111, Control_c, 6, 11, 103
8, 115111, Control_c, 6, 1, 20
8, 115114, Control_c, 6, 11, 102
8, 115117, Control_c, 6, 11, 101
8, 115120, Control_c, 6, 11, 100
8, 115123, Control_c, 6, 11, 99
8, 115127, Control_c, 6, 11, 98
8, 115130, Control_c, 6, 11, 97
8, 115133, Control_c, 6, 11, 96
8, 115136, Control_c, 6, 11, 95
8, 115139, Control_c, 6, 11, 94
8, 115142, Control_c, 6, 11, 93
8, 115146, Control_c, 6, 11, 92
8, 115149, Control_c, 6, 11, 91
8, 115152, Control_c, 6, 11, 90
8, 115155, Control_c, 6, 11, 89
8, 115158, Control_c, 6, 11, 88
8, 115162, Control_c, 6, 11, 87
8, 115165, Control_c, 6, 11, 86
8, 115168, Control_c, 6, 11, 85
8, 115171, Control_c, 6, 11, 84
8, 115174, Control_c, 6, 11, 83
8, 115177, Control_c, 6, 11, 82
8, 115181, Control_c, 6, 11, 81
8, 115184, Control_c, 6, 11, 80
8, 115187, Control_c, 6, 11, 79
8, 115190, Control_c, 6, 11, 78
8, 115193, Control_c, 6, 11, 77
8, 115197, Control_c, 6, 11, 76
8, 115200, Control_c, 6, 11, 75
8, 115203, Control_c, 6, 11, 74
8, 115206, Control_c, 6, 11, 73
8, 115209, Control_c, 6, 11, 72
8, 115212, Control_c, 6, 11, 71
8, 115216, Control_c, 6, 11, 70
8, 115219, Control_c, 6, 11, 69
8, 115222, Control_c, 6, 11, 68
8, 115225, Control_c, 6, 11, 67
8, 115228, Control_c, 6, 11, 66
8, 115232, Control_c, 6, 11, 65
8, 115235, Control_c, 6, 11, 64
8, 115238, Control_c, 6, 11, 63
8, 115241, Control_c, 6, 11, 62
8, 115244, Control_c, 6, 11, 61
8, 115247, Control_c, 6, 11, 60
8, 115344, Note_on_c, 6, 76, 100
8, 115440, Note_on_c, 6, 76, 0
8, 115440, Note_on_c, 6, 74, 0
8, 115440, Control_c, 6, 11, 120
8, 115440, Control_c, 6, 1, 0
8, 115440, Note_on_c, 6, 74, 60
8, 115440, Note_on_c, 6, 78, 60
8, 115441, Control_c, 6, 1, 1
8, 115442, Control_c, 6, 1, 2
8, 115443, Control_c, 6, 1, 3
8, 115444, Control_c, 6, 1, 4
8, 115446, Control_c, 6, 1, 5
8, 115448, Control_c, 6, 1, 6
8, 115449, Control_c, 6, 1, 7
8, 115451, Control_c, 6, 1, 8
8, 115453, Control_c, 6, 1, 9
8, 115456, Control_c, 6, 1, 10
8, 115458, Control_c, 6, 1, 11
8, 115461, Control_c, 6, 1, 12
8, 115464, Control_c, 6, 1, 13
8, 115467, Control_c, 6, 1, 14
8, 115471, Control_c, 6, 1, 15
8, 115476, Control_c, 6, 1, 16
8, 115481, Control_c, 6, 1, 17
8, 115489, Control_c, 6, 1, 18
8, 115499, Control_c, 6, 1, 19
8, 115517, Control_c, 6, 1, 20
8, 115584, Note_on_c, 6, 78, 0
8, 115584, Note_on_c, 6, 74, 0
8, 115584, Note_on_c, 6, 76, 60
8, 115584, Note_on_c, 6, 79, 60
8, 115608, Note_on_c, 6, 79, 0
8, 115608, Note_on_c, 6, 76, 0
8, 115608, Note_on_c, 6, 78, 60
8, 115608, Note_on_c, 6, 81, 60
8, 115632, Note_on_c, 6, 81, 0
8, 115632, Note_on_c, 6, 78, 0
8, 115632, Control_c, 6, 1, 0
8, 115632, Note_on_c, 6, 74, 60
8, 115632, Note_on_c, 6, 79, 60
8, 115656, Note_on_c, 6, 79, 0
8, 115656, Note_on_c, 6, 74, 0
8, 115680, Note_on_c, 6, 76, 60
8, 115680, Note_on_c, 6, 79, 60
8, 115704, Note_on_c, 6, 79, 0
8, 115704, Note_on_c, 6, 76, 0
8, 115728, Note_on_c, 6, 74, 60
8, 115728, Note_on_c, 6, 78, 60
8, 115752, Note_on_c, 6, 78, 0
8, 115752, Note_on_c, 6, 74, 0
8, 115776, Note_on_c, 6, 62, 60
8, 115776, Note_on_c, 6, 78, 60
8, 115800, Note_on_c, 6, 78, 0
8, 115800, Note_on_c, 6, 62, 0
8, 115824, Note_on_c, 6, 76, 60
8, 115824, Note_on_c, 6, 73, 60
8, 115848, Note_on_c, 6, 73, 0
8, 115872, Note_on_c, 6, 69, 60
8, 115896, Note_on_c, 6, 69, 0
8, 115920, Note_on_c, 6, 76, 0
8, 115920, Control_c, 6, 1, 0
8, 115920, Note_on_c, 6, 74, 60
8, 115920, Note_on_c, 6, 66, 60
8, 115921, Control_c, 6, 1, 2
8, 115922, Control_c, 6, 1, 3
8, 115923, Control_c, 6, 1, 4
8, 115924, Control_c, 6, 1, 5
8, 115925, Control_c, 6, 1, 6
8, 115926, Control_c, 6, 1, 7
8, 115928, Control_c, 6, 1, 8
8, 115929, Control_c, 6, 1, 9
8, 115931, Control_c, 6, 1, 10
8, 115932, Control_c, 6, 1, 11
8, 115934, Control_c, 6, 1, 12
8, 115936, Control_c, 6, 1, 13
8, 115938, Control_c, 6, 1, 14
8, 115941, Control_c, 6, 1, 15
8, 115944, Note_on_c, 6, 66, 0
8, 115944, Control_c, 6, 1, 16
8, 115948, Control_c, 6, 1, 17
8, 115952, Control_c, 6, 1, 18
8, 115959, Control_c, 6, 1, 19
8, 115971, Control_c, 6, 1, 20
8, 116112, Note_on_c, 6, 76, 60
8, 116208, Note_on_c, 6, 76, 0
8, 116208, Note_on_c, 6, 74, 0
8, 116208, Control_c, 6, 1, 0
8, 116208, Note_on_c, 6, 74, 60
8, 116208, Note_on_c, 6, 78, 60
8, 116209, Control_c, 6, 1, 1
8, 116210, Control_c, 6, 1, 2
8, 116211, Control_c, 6, 1, 3
8, 116212, Control_c, 6, 1, 4
8, 116214, Control_c, 6, 1, 5
8, 116216, Control_c, 6, 1, 6
8, 116217, Control_c, 6, 1, 7
8, 116219, Control_c, 6, 1, 8
8, 116221, Control_c, 6, 1, 9
8, 116224, Control_c, 6, 1, 10
8, 116226, Control_c, 6, 1, 11
8, 116229, Control_c, 6, 1, 12
8, 116232, Control_c, 6, 1, 13
8, 116235, Control_c, 6, 1, 14
8, 116239, Control_c, 6, 1, 15
8, 116244, Control_c, 6, 1, 16
8, 116249, Control_c, 6, 1, 17
8, 116257, Control_c, 6, 1, 18
8, 116267, Control_c, 6, 1, 19
8, 116285, Control_c, 6, 1, 20
8, 116352, Note_on_c, 6, 78, 0
8, 116352, Note_on_c, 6, 74, 0
8, 116352, Note_on_c, 6, 76, 60
8, 116352, Note_on_c, 6, 79, 60
8, 116376, Note_on_c, 6, 79, 0
8, 116376, Note_on_c, 6, 76, 0
8, 116376, Note_on_c, 6, 78, 60
8, 116376, Note_on_c, 6, 81, 60
8, 116400, Note_on_c, 6, 81, 0
8, 116400, Note_on_c, 6, 78, 0
8, 116400, Control_c, 6, 1, 0
8, 116400, Note_on_c, 6, 74, 60
8, 116400, Note_on_c, 6, 79, 60
8, 116424, Note_on_c, 6, 79, 0
8, 116424, Note_on_c, 6, 74, 0
8, 116448, Note_on_c, 6, 76, 60
8, 116448, Note_on_c, 6, 79, 60
8, 116472, Note_on_c, 6, 79, 0
8, 116472, Note_on_c, 6, 76, 0
8, 116496, Note_on_c, 6, 62, 60
8, 116496, Note_on_c, 6, 78, 60
8, 116520, Note_on_c, 6, 78, 0
8, 116520, Note_on_c, 6, 62, 0
8, 116544, Note_on_c, 6, 74, 60
8, 116544, Note_on_c, 6, 78, 60
8, 116568, Note_on_c, 6, 78, 0
8, 116568, Note_on_c, 6, 74, 0
8, 116592, Note_on_c, 6, 73, 60
8, 116592, Note_on_c, 6, 76, 60
8, 116616, Note_on_c, 6, 76, 0
8, 116616, Note_on_c, 6, 73, 0
8, 116688, Control_c, 6, 1, 0
8, 116688, Note_on_c, 6, 74, 60
8, 116689, Control_c, 6, 1, 2
8, 116690, Control_c, 6, 1, 3
8, 116691, Control_c, 6, 1, 4
8, 116692, Control_c, 6, 1, 5
8, 116693, Control_c, 6, 1, 6
8, 116694, Control_c, 6, 1, 7
8, 116696, Control_c, 6, 1, 8
8, 116697, Control_c, 6, 1, 9
8, 116699, Control_c, 6, 1, 10
8, 116700, Control_c, 6, 1, 11
8, 116702, Control_c, 6, 1, 12
8, 116704, Control_c, 6, 1, 13
8, 116706, Control_c, 6, 1, 14
8, 116709, Control_c, 6, 1, 15
8, 116712, Control_c, 6, 1, 16
8, 116716, Control_c, 6, 1, 17
8, 116720, Control_c, 6, 1, 18
8, 116727, Control_c, 6, 1, 19
8, 116739, Control_c, 6, 1, 20
8, 116880, Note_on_c, 6, 76, 60
8, 116976, Note_on_c, 6, 76, 0
8, 116976, Note_on_c, 6, 74, 0
8, 116976, Control_c, 6, 1, 0
8, 116976, Note_on_c, 6, 74, 60
8, 116976, Note_on_c, 6, 78, 60
8, 116977, Control_c, 6, 1, 1
8, 116978, Control_c, 6, 1, 2
8, 116979, Control_c, 6, 1, 3
8, 116980, Control_c, 6, 1, 4
8, 116982, Control_c, 6, 1, 5
8, 116984, Control_c, 6, 1, 6
8, 116985, Control_c, 6, 1, 7
8, 116987, Control_c, 6, 1, 8
8, 116989, Control_c, 6, 1, 9
8, 116992, Control_c, 6, 1, 10
8, 116994, Control_c, 6, 1, 11
8, 116997, Control_c, 6, 1, 12
8, 117000, Control_c, 6, 1, 13
8, 117003, Control_c, 6, 1, 14
8, 117007, Control_c, 6, 1, 15
8, 117012, Control_c, 6, 1, 16
8, 117017, Control_c, 6, 1, 17
8, 117025, Control_c, 6, 1, 18
8, 117035, Control_c, 6, 1, 19
8, 117053, Control_c, 6, 1, 20
8, 117120, Note_on_c, 6, 78, 0
8, 117120, Note_on_c, 6, 74, 0
8, 117120, Note_on_c, 6, 76, 60
8, 117120, Note_on_c, 6, 79, 60
8, 117144, Note_on_c, 6, 79, 0
8, 117144, Note_on_c, 6, 76, 0
8, 117144, Note_on_c, 6, 78, 60
8, 117144, Note_on_c, 6, 81, 60
8, 117168, Note_on_c, 6, 81, 0
8, 117168, Note_on_c, 6, 78, 0
8, 117168, Control_c, 6, 1, 0
8, 117168, Note_on_c, 6, 74, 60
8, 117168, Note_on_c, 6, 79, 60
8, 117192, Note_on_c, 6, 79, 0
8, 117192, Note_on_c, 6, 74, 0
8, 117216, Note_on_c, 6, 76, 60
8, 117216, Note_on_c, 6, 79, 60
8, 117240, Note_on_c, 6, 79, 0
8, 117240, Note_on_c, 6, 76, 0
8, 117264, Note_on_c, 6, 74, 60
8, 117264, Note_on_c, 6, 78, 60
8, 117288, Note_on_c, 6, 78, 0
8, 117288, Note_on_c, 6, 74, 0
8, 117312, Note_on_c, 6, 62, 60
8, 117312, Note_on_c, 6, 78, 60
8, 117336, Note_on_c, 6, 78, 0
8, 117336, Note_on_c, 6, 62, 0
8, 117360, Note_on_c, 6, 76, 60
8, 117360, Note_on_c, 6, 73, 60
8, 117384, Note_on_c, 6, 73, 0
8, 117408, Note_on_c, 6, 69, 60
8, 117432, Note_on_c, 6, 69, 0
8, 117456, Note_on_c, 6, 76, 0
8, 117456, Control_c, 6, 1, 0
8, 117456, Note_on_c, 6, 74, 60
8, 117456, Note_on_c, 6, 66, 60
8, 117457, Control_c, 6, 1, 2
8, 117458, Control_c, 6, 1, 3
8, 117459, Control_c, 6, 1, 4
8, 117460, Control_c, 6, 1, 5
8, 117461, Control_c, 6, 1, 6
8, 117462, Control_c, 6, 1, 7
8, 117464, Control_c, 6, 1, 8
8, 117465, Control_c, 6, 1, 9
8, 117467, Control_c, 6, 1, 10
8, 117468, Control_c, 6, 1, 11
8, 117470, Control_c, 6, 1, 12
8, 117472, Control_c, 6, 1, 13
8, 117474, Control_c, 6, 1, 14
8, 117477, Control_c, 6, 1, 15
8, 117480, Note_on_c, 6, 66, 0
8, 117480, Control_c, 6, 1, 16
8, 117484, Control_c, 6, 1, 17
8, 117488, Control_c, 6, 1, 18
8, 117495, Control_c, 6, 1, 19
8, 117507, Control_c, 6, 1, 20
8, 117648, Note_on_c, 6, 76, 60
8, 117744, Note_on_c, 6, 76, 0
8, 117744, Note_on_c, 6, 74, 0
8, 117744, Control_c, 6, 1, 0
8, 117744, Note_on_c, 6, 74, 60
8, 117744, Note_on_c, 6, 78, 60
8, 117745, Control_c, 6, 1, 1
8, 117746, Control_c, 6, 1, 2
8, 117747, Control_c, 6, 1, 3
8, 117748, Control_c, 6, 1, 4
8, 117750, Control_c, 6, 1, 5
8, 117752, Control_c, 6, 1, 6
8, 117753, Control_c, 6, 1, 7
8, 117755, Control_c, 6, 1, 8
8, 117757, Control_c, 6, 1, 9
8, 117760, Control_c, 6, 1, 10
8, 117762, Control_c, 6, 1, 11
8, 117765, Control_c, 6, 1, 12
8, 117768, Control_c, 6, 1, 13
8, 117771, Control_c, 6, 1, 14
8, 117775, Control_c, 6, 1, 15
8, 117780, Control_c, 6, 1, 16
8, 117785, Control_c, 6, 1, 17
8, 117793, Control_c, 6, 1, 18
8, 117803, Control_c, 6, 1, 19
8, 117821, Control_c, 6, 1, 20
8, 117888, Note_on_c, 6, 78, 0
8, 117888, Note_on_c, 6, 74, 0
8, 117888, Note_on_c, 6, 76, 60
8, 117888, Note_on_c, 6, 79, 60
8, 117912, Note_on_c, 6, 79, 0
8, 117912, Note_on_c, 6, 76, 0
8, 117912, Note_on_c, 6, 78, 60
8, 117912, Note_on_c, 6, 81, 60
8, 117936, Note_on_c, 6, 81, 0
8, 117936, Note_on_c, 6, 78, 0
8, 117936, Control_c, 6, 1, 0
8, 117936, Note_on_c, 6, 74, 60
8, 117936, Note_on_c, 6, 79, 60
8, 117960, Note_on_c, 6, 79, 0
8, 117960, Note_on_c, 6, 74, 0
8, 117984, Note_on_c, 6, 76, 60
8, 117984, Note_on_c, 6, 79, 60
8, 118008, Note_on_c, 6, 79, 0
8, 118008, Note_on_c, 6, 76, 0
8, 118032, Note_on_c, 6, 62, 60
8, 118032, Note_on_c, 6, 78, 60
8, 118056, Note_on_c, 6, 78, 0
8, 118056, Note_on_c, 6, 62, 0
8, 118080, Note_on_c, 6, 74, 60
8, 118080, Note_on_c, 6, 78, 60
8, 118104, Note_on_c, 6, 78, 0
8, 118104, Note_on_c, 6, 74, 0
8, 118128, Note_on_c, 6, 73, 60
8, 118128, Note_on_c, 6, 76, 60
8, 118152, Note_on_c, 6, 76, 0
8, 118152, Note_on_c, 6, 73, 0
8, 120096, Control_c, 6, 11, 60
8, 120096, Control_c, 6, 1, 1
8, 120096, Note_on_c, 6, 81, 100
8, 120097, Control_c, 6, 1, 3
8, 120098, Control_c, 6, 1, 4
8, 120099, Control_c, 6, 1, 5
8, 120101, Control_c, 6, 1, 6
8, 120102, Control_c, 6, 1, 7
8, 120104, Control_c, 6, 1, 8
8, 120105, Control_c, 6, 1, 9
8, 120107, Control_c, 6, 1, 10
8, 120109, Control_c, 6, 1, 11
8, 120111, Control_c, 6, 1, 12
8, 120113, Control_c, 6, 1, 13
8, 120115, Control_c, 6, 1, 14
8, 120119, Control_c, 6, 1, 15
8, 120122, Control_c, 6, 1, 16
8, 120124, Control_c, 6, 11, 61
8, 120126, Control_c, 6, 1, 17
8, 120132, Control_c, 6, 1, 18
8, 120140, Control_c, 6, 1, 19
8, 120144, Note_on_c, 6, 81, 0
8, 120144, Note_on_c, 6, 80, 100
8, 120151, Control_c, 6, 11, 62
8, 120153, Control_c, 6, 1, 20
8, 120178, Control_c, 6, 11, 63
8, 120192, Note_on_c, 6, 80, 0
8, 120192, Note_on_c, 6, 81, 100
8, 120205, Control_c, 6, 11, 64
8, 120232, Control_c, 6, 11, 65
8, 120240, Note_on_c, 6, 81, 0
8, 120240, Note_on_c, 6, 83, 100
8, 120259, Control_c, 6, 11, 66
8, 120287, Control_c, 6, 11, 67
8, 120288, Note_on_c, 6, 83, 0
8, 120288, Note_on_c, 6, 76, 100
8, 120314, Control_c, 6, 11, 68
8, 120336, Note_on_c, 6, 76, 0
8, 120336, Note_on_c, 6, 78, 100
8, 120341, Control_c, 6, 11, 69
8, 120368, Control_c, 6, 11, 70
8, 120384, Note_on_c, 6, 78, 0
8, 120384, Note_on_c, 6, 80, 100
8, 120395, Control_c, 6, 11, 71
8, 120422, Control_c, 6, 11, 72
8, 120432, Note_on_c, 6, 80, 0
8, 120432, Control_c, 6, 1, 0
8, 120432, Note_on_c, 6, 81, 100
8, 120433, Control_c, 6, 1, 2
8, 120434, Control_c, 6, 1, 3
8, 120435, Control_c, 6, 1, 4
8, 120436, Control_c, 6, 1, 5
8, 120437, Control_c, 6, 1, 6
8, 120439, Control_c, 6, 1, 7
8, 120440, Control_c, 6, 1, 8
8, 120441, Control_c, 6, 1, 9
8, 120443, Control_c, 6, 1, 10
8, 120445, Control_c, 6, 1, 11
8, 120446, Control_c, 6, 1, 12
8, 120449, Control_c, 6, 1, 13
8, 120450, Control_c, 6, 11, 73
8, 120451, Control_c, 6, 1, 14
8, 120454, Control_c, 6, 1, 15
8, 120457, Control_c, 6, 1, 16
8, 120460, Control_c, 6, 1, 17
8, 120465, Control_c, 6, 1, 18
8, 120473, Control_c, 6, 1, 19
8, 120477, Control_c, 6, 11, 74
8, 120485, Control_c, 6, 1, 20
8, 120504, Control_c, 6, 11, 75
8, 120531, Control_c, 6, 11, 76
8, 120558, Control_c, 6, 11, 77
8, 120585, Control_c, 6, 11, 78
8, 120613, Control_c, 6, 11, 79
8, 120640, Control_c, 6, 11, 80
8, 120667, Control_c, 6, 11, 81
8, 120694, Control_c, 6, 11, 82
8, 120721, Control_c, 6, 11, 83
8, 120748, Control_c, 6, 11, 84
8, 120776, Control_c, 6, 11, 85
8, 120803, Control_c, 6, 11, 86
8, 120830, Control_c, 6, 11, 87
8, 120857, Control_c, 6, 11, 88
8, 120884, Control_c, 6, 11, 89
8, 120911, Control_c, 6, 11, 90
8, 120912, Note_on_c, 6, 81, 0
8, 120912, Control_c, 6, 11, 90
8, 120912, Note_on_c, 6, 83, 100
8, 120916, Control_c, 6, 11, 89
8, 120919, Control_c, 6, 11, 88
8, 120923, Control_c, 6, 11, 87
8, 120926, Control_c, 6, 11, 86
8, 120929, Control_c, 6, 11, 85
8, 120933, Control_c, 6, 11, 84
8, 120936, Control_c, 6, 11, 83
8, 120940, Control_c, 6, 11, 82
8, 120943, Control_c, 6, 11, 81
8, 120946, Control_c, 6, 11, 80
8, 120950, Control_c, 6, 11, 79
8, 120953, Control_c, 6, 11, 78
8, 120957, Control_c, 6, 11, 77
8, 120960, Note_on_c, 6, 83, 0
8, 120960, Note_on_c, 6, 79, 100
8, 120960, Control_c, 6, 11, 76
8, 120963, Control_c, 6, 11, 75
8, 120967, Control_c, 6, 11, 74
8, 120970, Control_c, 6, 11, 73
8, 120974, Control_c, 6, 11, 72
8, 120977, Control_c, 6, 11, 71
8, 120980, Control_c, 6, 11, 70
8, 120984, Control_c, 6, 11, 69
8, 120987, Control_c, 6, 11, 68
8, 120991, Control_c, 6, 11, 67
8, 120994, Control_c, 6, 11, 66
8, 120997, Control_c, 6, 11, 65
8, 121001, Control_c, 6, 11, 64
8, 121004, Control_c, 6, 11, 63
8, 121007, Control_c, 6, 11, 62
8, 121008, Note_on_c, 6, 79, 0
8, 121008, Control_c, 6, 11, 60
8, 121008, Control_c, 6, 1, 0
8, 121008, Note_on_c, 6, 78, 100
8, 121056, Note_on_c, 6, 78, 0
8, 121104, Note_on_c, 6, 76, 100
8, 121152, Note_on_c, 6, 76, 0
8, 124272, Control_c, 6, 11, 60
8, 124368, Note_on_c, 6, 81, 121
8, 124392, Note_on_c, 6, 81, 0
8, 124416, Note_on_c, 6, 80, 120
8, 124440, Note_on_c, 6, 80, 0
8, 124464, Note_on_c, 6, 81, 121
8, 124488, Note_on_c, 6, 81, 0
8, 124512, Note_on_c, 6, 78, 118
8, 124536, Note_on_c, 6, 78, 0
8, 124560, Note_on_c, 6, 76, 116
8, 124584, Note_on_c, 6, 76, 0
8, 124608, Note_on_c, 6, 74, 114
8, 124632, Note_on_c, 6, 74, 0
8, 124656, Note_on_c, 6, 73, 113
8, 124680, Note_on_c, 6, 73, 0
8, 124704, Note_on_c, 6, 71, 111
8, 124728, Note_on_c, 6, 71, 0
8, 124752, Note_on_c, 6, 69, 109
8, 124776, Note_on_c, 6, 69, 0
8, 124800, Note_on_c, 6, 79, 119
8, 124824, Note_on_c, 6, 79, 0
8, 124848, Note_on_c, 6, 78, 118
8, 124872, Note_on_c, 6, 78, 0
8, 124896, Note_on_c, 6, 80, 120
8, 124920, Note_on_c, 6, 80, 0
8, 124944, Note_on_c, 6, 81, 121
8, 124968, Note_on_c, 6, 81, 0
8, 124992, Note_on_c, 6, 76, 116
8, 125016, Note_on_c, 6, 76, 0
8, 125040, Note_on_c, 6, 86, 126
8, 125064, Note_on_c, 6, 86, 0
8, 125088, Note_on_c, 6, 80, 120
8, 125112, Note_on_c, 6, 80, 0
8, 125136, Control_c, 6, 1, 0
8, 125136, Note_on_c, 6, 81, 121
8, 125137, Control_c, 6, 1, 3
8, 125138, Control_c, 6, 1, 5
8, 125139, Control_c, 6, 1, 7
8, 125140, Control_c, 6, 1, 8
8, 125141, Control_c, 6, 1, 10
8, 125142, Control_c, 6, 1, 11
8, 125143, Control_c, 6, 1, 12
8, 125144, Control_c, 6, 1, 13
8, 125145, Control_c, 6, 1, 14
8, 125147, Control_c, 6, 1, 15
8, 125148, Control_c, 6, 1, 16
8, 125150, Control_c, 6, 1, 17
8, 125152, Control_c, 6, 1, 18
8, 125156, Control_c, 6, 1, 19
8, 125162, Control_c, 6, 1, 20
8, 125184, Note_on_c, 6, 81, 0
8, 125184, Note_on_c, 6, 80, 119
8, 125232, Note_on_c, 6, 80, 0
8, 125232, Note_on_c, 6, 81, 121
8, 125280, Note_on_c, 6, 81, 0
8, 125280, Note_on_c, 6, 78, 118
8, 125328, Note_on_c, 6, 78, 0
8, 125328, Note_on_c, 6, 76, 116
8, 125376, Note_on_c, 6, 76, 0
8, 125376, Note_on_c, 6, 74, 114
8, 125424, Note_on_c, 6, 74, 0
8, 125424, Note_on_c, 6, 73, 113
8, 125472, Note_on_c, 6, 73, 0
8, 125472, Note_on_c, 6, 69, 109
8, 125517, Note_on_c, 6, 69, 0
8, 125520, Control_c, 6, 1, 0
8, 125520, Note_on_c, 6, 81, 121
8, 125521, Control_c, 6, 1, 3
8, 125522, Control_c, 6, 1, 5
8, 125523, Control_c, 6, 1, 7
8, 125524, Control_c, 6, 1, 8
8, 125525, Control_c, 6, 1, 10
8, 125526, Control_c, 6, 1, 11
8, 125527, Control_c, 6, 1, 12
8, 125528, Control_c, 6, 1, 13
8, 125529, Control_c, 6, 1, 14
8, 125531, Control_c, 6, 1, 15
8, 125532, Control_c, 6, 1, 16
8, 125534, Control_c, 6, 1, 17
8, 125536, Control_c, 6, 1, 18
8, 125540, Control_c, 6, 1, 19
8, 125546, Control_c, 6, 1, 20
8, 125568, Note_on_c, 6, 81, 0
8, 125568, Note_on_c, 6, 80, 120
8, 125616, Note_on_c, 6, 80, 0
8, 125616, Note_on_c, 6, 81, 121
8, 125664, Note_on_c, 6, 81, 0
8, 125664, Note_on_c, 6, 78, 118
8, 125712, Note_on_c, 6, 78, 0
8, 125712, Note_on_c, 6, 76, 116
8, 125760, Note_on_c, 6, 76, 0
8, 125760, Note_on_c, 6, 74, 114
8, 125808, Note_on_c, 6, 74, 0
8, 125808, Note_on_c, 6, 73, 113
8, 125856, Note_on_c, 6, 73, 0
8, 125856, Note_on_c, 6, 69, 109
8, 125901, Note_on_c, 6, 69, 0
8, 125904, Control_c, 6, 1, 0
8, 125904, Note_on_c, 6, 83, 123
8, 125905, Control_c, 6, 1, 3
8, 125906, Control_c, 6, 1, 5
8, 125907, Control_c, 6, 1, 7
8, 125908, Control_c, 6, 1, 8
8, 125909, Control_c, 6, 1, 10
8, 125910, Control_c, 6, 1, 11
8, 125911, Control_c, 6, 1, 12
8, 125912, Control_c, 6, 1, 13
8, 125913, Control_c, 6, 1, 14
8, 125915, Control_c, 6, 1, 15
8, 125916, Control_c, 6, 1, 16
8, 125918, Control_c, 6, 1, 17
8, 125920, Control_c, 6, 1, 18
8, 125924, Control_c, 6, 1, 19
8, 125930, Control_c, 6, 1, 20
8, 125952, Note_on_c, 6, 83, 0
8, 125952, Note_on_c, 6, 82, 122
8, 126000, Note_on_c, 6, 82, 0
8, 126000, Note_on_c, 6, 83, 123
8, 126048, Note_on_c, 6, 83, 0
8, 126048, Note_on_c, 6, 79, 119
8, 126096, Note_on_c, 6, 79, 0
8, 126096, Note_on_c, 6, 76, 116
8, 126144, Note_on_c, 6, 76, 0
8, 126144, Note_on_c, 6, 74, 114
8, 126192, Note_on_c, 6, 74, 0
8, 126192, Note_on_c, 6, 73, 113
8, 126240, Note_on_c, 6, 73, 0
8, 126240, Note_on_c, 6, 69, 109
8, 126288, Note_on_c, 6, 69, 0
8, 126288, Note_on_c, 6, 83, 123
8, 126336, Note_on_c, 6, 83, 0
8, 126336, Note_on_c, 6, 82, 122
8, 126384, Note_on_c, 6, 82, 0
8, 126384, Control_c, 6, 11, 60
8, 126384, Note_on_c, 6, 83, 120
8, 126432, Note_on_c, 6, 83, 0
8, 126432, Note_on_c, 6, 79, 120
8, 126434, Control_c, 6, 11, 61
8, 126480, Note_on_c, 6, 79, 0
8, 126480, Note_on_c, 6, 76, 120
8, 126484, Control_c, 6, 11, 62
8, 126528, Note_on_c, 6, 76, 0
8, 126528, Note_on_c, 6, 74, 120
8, 126534, Control_c, 6, 11, 63
8, 126576, Note_on_c, 6, 74, 0
8, 126576, Note_on_c, 6, 73, 120
8, 126584, Control_c, 6, 11, 64
8, 126624, Note_on_c, 6, 73, 0
8, 126624, Note_on_c, 6, 69, 120
8, 126634, Control_c, 6, 11, 65
8, 126669, Note_on_c, 6, 69, 0
8, 126672, Control_c, 6, 1, 0
8, 126672, Note_on_c, 6, 76, 120
8, 126673, Control_c, 6, 1, 3
8, 126674, Control_c, 6, 1, 5
8, 126675, Control_c, 6, 1, 7
8, 126676, Control_c, 6, 1, 8
8, 126677, Control_c, 6, 1, 10
8, 126678, Control_c, 6, 1, 11
8, 126679, Control_c, 6, 1, 12
8, 126680, Control_c, 6, 1, 13
8, 126681, Control_c, 6, 1, 14
8, 126683, Control_c, 6, 1, 15
8, 126684, Control_c, 6, 11, 66
8, 126684, Control_c, 6, 1, 16
8, 126686, Control_c, 6, 1, 17
8, 126688, Control_c, 6, 1, 18
8, 126692, Control_c, 6, 1, 19
8, 126698, Control_c, 6, 1, 20
8, 126720, Note_on_c, 6, 76, 0
8, 126720, Note_on_c, 6, 75, 120
8, 126734, Control_c, 6, 11, 67
8, 126768, Note_on_c, 6, 75, 0
8, 126768, Note_on_c, 6, 76, 120
8, 126784, Control_c, 6, 11, 68
8, 126816, Note_on_c, 6, 76, 0
8, 126816, Note_on_c, 6, 73, 120
8, 126833, Control_c, 6, 11, 69
8, 126861, Note_on_c, 6, 73, 0
8, 126864, Control_c, 6, 1, 0
8, 126864, Note_on_c, 6, 79, 120
8, 126865, Control_c, 6, 1, 3
8, 126866, Control_c, 6, 1, 5
8, 126867, Control_c, 6, 1, 7
8, 126868, Control_c, 6, 1, 8
8, 126869, Control_c, 6, 1, 10
8, 126870, Control_c, 6, 1, 11
8, 126871, Control_c, 6, 1, 12
8, 126872, Control_c, 6, 1, 13
8, 126873, Control_c, 6, 1, 14
8, 126875, Control_c, 6, 1, 15
8, 126876, Control_c, 6, 1, 16
8, 126878, Control_c, 6, 1, 17
8, 126880, Control_c, 6, 1, 18
8, 126883, Control_c, 6, 11, 70
8, 126884, Control_c, 6, 1, 19
8, 126890, Control_c, 6, 1, 20
8, 126912, Note_on_c, 6, 79, 0
8, 126912, Note_on_c, 6, 78, 120
8, 126933, Control_c, 6, 11, 71
8, 126960, Note_on_c, 6, 78, 0
8, 126960, Note_on_c, 6, 79, 120
8, 126983, Control_c, 6, 11, 72
8, 127008, Note_on_c, 6, 79, 0
8, 127008, Note_on_c, 6, 76, 120
8, 127033, Control_c, 6, 11, 73
8, 127053, Note_on_c, 6, 76, 0
8, 127056, Control_c, 6, 1, 0
8, 127056, Note_on_c, 6, 76, 120
8, 127057, Control_c, 6, 1, 3
8, 127058, Control_c, 6, 1, 5
8, 127059, Control_c, 6, 1, 7
8, 127060, Control_c, 6, 1, 8
8, 127061, Control_c, 6, 1, 10
8, 127062, Control_c, 6, 1, 11
8, 127063, Control_c, 6, 1, 12
8, 127064, Control_c, 6, 1, 13
8, 127065, Control_c, 6, 1, 14
8, 127067, Control_c, 6, 1, 15
8, 127068, Control_c, 6, 1, 16
8, 127070, Control_c, 6, 1, 17
8, 127072, Control_c, 6, 1, 18
8, 127076, Control_c, 6, 1, 19
8, 127082, Control_c, 6, 1, 20
8, 127083, Control_c, 6, 11, 74
8, 127104, Note_on_c, 6, 76, 0
8, 127104, Note_on_c, 6, 75, 120
8, 127133, Control_c, 6, 11, 75
8, 127152, Note_on_c, 6, 75, 0
8, 127152, Note_on_c, 6, 76, 120
8, 127183, Control_c, 6, 11, 76
8, 127200, Note_on_c, 6, 76, 0
8, 127200, Note_on_c, 6, 73, 120
8, 127232, Control_c, 6, 11, 77
8, 127245, Note_on_c, 6, 73, 0
8, 127248, Control_c, 6, 1, 0
8, 127248, Note_on_c, 6, 79, 120
8, 127249, Control_c, 6, 1, 3
8, 127250, Control_c, 6, 1, 5
8, 127251, Control_c, 6, 1, 7
8, 127252, Control_c, 6, 1, 8
8, 127253, Control_c, 6, 1, 10
8, 127254, Control_c, 6, 1, 11
8, 127255, Control_c, 6, 1, 12
8, 127256, Control_c, 6, 1, 13
8, 127257, Control_c, 6, 1, 14
8, 127259, Control_c, 6, 1, 15
8, 127260, Control_c, 6, 1, 16
8, 127262, Control_c, 6, 1, 17
8, 127264, Control_c, 6, 1, 18
8, 127268, Control_c, 6, 1, 19
8, 127274, Control_c, 6, 1, 20
8, 127282, Control_c, 6, 11, 78
8, 127296, Note_on_c, 6, 79, 0
8, 127296, Note_on_c, 6, 78, 120
8, 127332, Control_c, 6, 11, 79
8, 127344, Note_on_c, 6, 78, 0
8, 127344, Note_on_c, 6, 79, 120
8, 127382, Control_c, 6, 11, 80
8, 127392, Note_on_c, 6, 79, 0
8, 127392, Note_on_c, 6, 76, 120
8, 127432, Control_c, 6, 11, 81
8, 127437, Note_on_c, 6, 76, 0
8, 127440, Control_c, 6, 1, 0
8, 127440, Note_on_c, 6, 79, 120
8, 127441, Control_c, 6, 1, 3
8, 127442, Control_c, 6, 1, 5
8, 127443, Control_c, 6, 1, 7
8, 127444, Control_c, 6, 1, 8
8, 127445, Control_c, 6, 1, 10
8, 127446, Control_c, 6, 1, 11
8, 127447, Control_c, 6, 1, 12
8, 127448, Control_c, 6, 1, 13
8, 127449, Control_c, 6, 1, 14
8, 127451, Control_c, 6, 1, 15
8, 127452, Control_c, 6, 1, 16
8, 127454, Control_c, 6, 1, 17
8, 127456, Control_c, 6, 1, 18
8, 127460, Control_c, 6, 1, 19
8, 127466, Control_c, 6, 1, 20
8, 127482, Control_c, 6, 11, 82
8, 127488, Note_on_c, 6, 79, 0
8, 127488, Note_on_c, 6, 78, 120
8, 127532, Control_c, 6, 11, 83
8, 127536, Note_on_c, 6, 78, 0
8, 127536, Note_on_c, 6, 79, 120
8, 127582, Control_c, 6, 11, 84
8, 127584, Note_on_c, 6, 79, 0
8, 127584, Note_on_c, 6, 76, 120
8, 127629, Note_on_c, 6, 76, 0
8, 127631, Control_c, 6, 11, 85
8, 127632, Control_c, 6, 11, 60
8, 127632, Control_c, 6, 1, 1
8, 127632, Note_on_c, 6, 79, 120
8, 127633, Control_c, 6, 1, 4
8, 127634, Control_c, 6, 1, 6
8, 127635, Control_c, 6, 1, 7
8, 127636, Control_c, 6, 1, 9
8, 127637, Control_c, 6, 1, 10
8, 127638, Control_c, 6, 1, 11
8, 127639, Control_c, 6, 1, 12
8, 127640, Control_c, 6, 1, 13
8, 127641, Control_c, 6, 1, 14
8, 127642, Control_c, 6, 1, 15
8, 127644, Control_c, 6, 1, 16
8, 127646, Control_c, 6, 1, 17
8, 127648, Control_c, 6, 1, 18
8, 127651, Control_c, 6, 1, 19
8, 127657, Control_c, 6, 1, 20
8, 127680, Note_on_c, 6, 79, 0
8, 127680, Note_on_c, 6, 78, 120
8, 127728, Note_on_c, 6, 78, 0
8, 127728, Note_on_c, 6, 79, 120
8, 127776, Note_on_c, 6, 79, 0
8, 127776, Note_on_c, 6, 74, 120
8, 127824, Note_on_c, 6, 74, 0
8, 127824, Note_on_c, 6, 72, 120
8, 127872, Note_on_c, 6, 72, 0
8, 127872, Note_on_c, 6, 70, 120
8, 127920, Note_on_c, 6, 70, 0
8, 127920, Note_on_c, 6, 69, 120
8, 127965, Note_on_c, 6, 69, 0
8, 127968, Control_c, 6, 1, 0
8, 127968, Note_on_c, 6, 77, 120
8, 127969, Control_c, 6, 1, 3
8, 127970, Control_c, 6, 1, 5
8, 127971, Control_c, 6, 1, 7
8, 127972, Control_c, 6, 1, 8
8, 127973, Control_c, 6, 1, 10
8, 127974, Control_c, 6, 1, 11
8, 127975, Control_c, 6, 1, 12
8, 127976, Control_c, 6, 1, 13
8, 127977, Control_c, 6, 1, 14
8, 127979, Control_c, 6, 1, 15
8, 127980, Control_c, 6, 1, 16
8, 127982, Control_c, 6, 1, 17
8, 127984, Control_c, 6, 1, 18
8, 127988, Control_c, 6, 1, 19
8, 127994, Control_c, 6, 1, 20
8, 128016, Note_on_c, 6, 77, 0
8, 128016, Control_c, 6, 11, 60
8, 128016, Note_on_c, 6, 79, 120
8, 128028, Control_c, 6, 11, 61
8, 128039, Control_c, 6, 11, 62
8, 128051, Control_c, 6, 11, 63
8, 128062, Control_c, 6, 11, 64
8, 128064, Note_on_c, 6, 79, 0
8, 128064, Note_on_c, 6, 77, 120
8, 128074, Control_c, 6, 11, 65
8, 128085, Control_c, 6, 11, 66
8, 128097, Control_c, 6, 11, 67
8, 128108, Control_c, 6, 11, 68
8, 128112, Note_on_c, 6, 77, 0
8, 128112, Note_on_c, 6, 79, 120
8, 128120, Control_c, 6, 11, 69
8, 128131, Control_c, 6, 11, 70
8, 128143, Control_c, 6, 11, 71
8, 128154, Control_c, 6, 11, 72
8, 128160, Note_on_c, 6, 79, 0
8, 128160, Note_on_c, 6, 70, 120
8, 128166, Control_c, 6, 11, 73
8, 128177, Control_c, 6, 11, 74
8, 128189, Control_c, 6, 11, 75
8, 128200, Control_c, 6, 11, 76
8, 128208, Note_on_c, 6, 70, 0
8, 128208, Note_on_c, 6, 69, 120
8, 128212, Control_c, 6, 11, 77
8, 128223, Control_c, 6, 11, 78
8, 128235, Control_c, 6, 11, 79
8, 128246, Control_c, 6, 11, 80
8, 128256, Note_on_c, 6, 69, 0
8, 128256, Note_on_c, 6, 81, 120
8, 128258, Control_c, 6, 11, 81
8, 128269, Control_c, 6, 11, 82
8, 128281, Control_c, 6, 11, 83
8, 128292, Control_c, 6, 11, 84
8, 128301, Note_on_c, 6, 81, 0
8, 128303, Control_c, 6, 11, 85
8, 128304, Control_c, 6, 11, 100
8, 128304, Control_c, 6, 1, 0
8, 128304, Note_on_c, 6, 81, 120
8, 128305, Control_c, 6, 11, 95
8, 128305, Control_c, 6, 1, 2
8, 128306, Control_c, 6, 11, 91
8, 128306, Control_c, 6, 1, 3
8, 128307, Control_c, 6, 11, 87
8, 128307, Control_c, 6, 1, 4
8, 128308, Control_c, 6, 11, 84
8, 128308, Control_c, 6, 1, 5
8, 128309, Control_c, 6, 11, 81
8, 128309, Control_c, 6, 1, 6
8, 128310, Control_c, 6, 11, 79
8, 128310, Control_c, 6, 1, 7
8, 128311, Control_c, 6, 11, 77
8, 128312, Control_c, 6, 11, 75
8, 128312, Control_c, 6, 1, 8
8, 128313, Control_c, 6, 11, 73
8, 128313, Control_c, 6, 1, 9
8, 128314, Control_c, 6, 11, 72
8, 128315, Control_c, 6, 11, 70
8, 128315, Control_c, 6, 1, 10
8, 128316, Control_c, 6, 11, 69
8, 128316, Control_c, 6, 1, 11
8, 128317, Control_c, 6, 11, 68
8, 128318, Control_c, 6, 11, 67
8, 128318, Control_c, 6, 1, 12
8, 128319, Control_c, 6, 11, 66
8, 128320, Control_c, 6, 11, 65
8, 128320, Control_c, 6, 1, 13
8, 128322, Control_c, 6, 11, 64
8, 128322, Control_c, 6, 1, 14
8, 128324, Control_c, 6, 11, 63
8, 128325, Control_c, 6, 1, 15
8, 128326, Control_c, 6, 11, 62
8, 128328, Control_c, 6, 1, 16
8, 128330, Control_c, 6, 11, 61
8, 128332, Control_c, 6, 1, 17
8, 128335, Control_c, 6, 11, 60
8, 128336, Control_c, 6, 1, 18
8, 128343, Control_c, 6, 1, 19
8, 128355, Control_c, 6, 1, 20
8, 128496, Control_c, 6, 11, 60
8, 128538, Control_c, 6, 11, 61
8, 128579, Control_c, 6, 11, 62
8, 128620, Control_c, 6, 11, 63
8, 128661, Control_c, 6, 11, 64
8, 128702, Control_c, 6, 11, 65
8, 128743, Control_c, 6, 11, 66
8, 128784, Control_c, 6, 11, 67
8, 128825, Control_c, 6, 11, 68
8, 128867, Control_c, 6, 11, 69
8, 128908, Control_c, 6, 11, 70
8, 128949, Control_c, 6, 11, 71
8, 128990, Control_c, 6, 11, 72
8, 129031, Control_c, 6, 11, 73
8, 129072, Control_c, 6, 11, 74
8, 129113, Control_c, 6, 11, 75
8, 129154, Control_c, 6, 11, 76
8, 129195, Control_c, 6, 11, 77
8, 129237, Control_c, 6, 11, 78
8, 129278, Control_c, 6, 11, 79
8, 129319, Control_c, 6, 11, 80
8, 129360, Control_c, 6, 11, 81
8, 129401, Control_c, 6, 11, 82
8, 129442, Control_c, 6, 11, 83
8, 129483, Control_c, 6, 11, 84
8, 129524, Control_c, 6, 11, 85
8, 129565, Control_c, 6, 11, 86
8, 129607, Control_c, 6, 11, 87
8, 129648, Control_c, 6, 11, 88
8, 129689, Control_c, 6, 11, 89
8, 129730, Control_c, 6, 11, 90
8, 129771, Control_c, 6, 11, 91
8, 129812, Control_c, 6, 11, 92
8, 129853, Control_c, 6, 11, 93
8, 129894, Control_c, 6, 11, 94
8, 129935, Control_c, 6, 11, 95
8, 129936, Note_on_c, 6, 69, 120
8, 130992, Control_c, 6, 1, 0
8, 130992, Note_on_c, 6, 66, 120
8, 130993, Note_on_c, 6, 81, 0
8, 130993, Note_on_c, 6, 69, 0
8, 130993, Control_c, 6, 1, 1
8, 130994, Control_c, 6, 1, 2
8, 130995, Control_c, 6, 1, 3
8, 130996, Control_c, 6, 1, 4
8, 130998, Control_c, 6, 1, 5
8, 131000, Control_c, 6, 1, 6
8, 131001, Control_c, 6, 1, 7
8, 131003, Control_c, 6, 1, 8
8, 131005, Control_c, 6, 1, 9
8, 131008, Control_c, 6, 1, 10
8, 131010, Control_c, 6, 1, 11
8, 131013, Control_c, 6, 1, 12
8, 131016, Control_c, 6, 1, 13
8, 131019, Control_c, 6, 1, 14
8, 131023, Control_c, 6, 1, 15
8, 131028, Control_c, 6, 1, 16
8, 131033, Control_c, 6, 1, 17
8, 131041, Control_c, 6, 1, 18
8, 131051, Control_c, 6, 1, 19
8, 131069, Control_c, 6, 1, 20
8, 131136, Note_on_c, 6, 66, 0
8, 131136, Note_on_c, 6, 67, 120
8, 131160, Note_on_c, 6, 67, 0
8, 131160, Note_on_c, 6, 69, 120
8, 131184, Note_on_c, 6, 69, 0
8, 131184, Control_c, 6, 1, 0
8, 131184, Note_on_c, 6, 71, 120
8, 131184, Note_on_c, 6, 83, 120
8, 131208, Note_on_c, 6, 83, 0
8, 131208, Note_on_c, 6, 71, 0
8, 131232, Note_on_c, 6, 71, 120
8, 131232, Note_on_c, 6, 83, 120
8, 131256, Note_on_c, 6, 83, 0
8, 131256, Note_on_c, 6, 71, 0
8, 131280, Note_on_c, 6, 73, 120
8, 131280, Note_on_c, 6, 85, 120
8, 131304, Note_on_c, 6, 85, 0
8, 131304, Note_on_c, 6, 73, 0
8, 131328, Note_on_c, 6, 73, 120
8, 131328, Note_on_c, 6, 85, 120
8, 131352, Note_on_c, 6, 85, 0
8, 131352, Note_on_c, 6, 73, 0
8, 131376, Note_on_c, 6, 74, 120
8, 131376, Note_on_c, 6, 86, 120
8, 131400, Note_on_c, 6, 86, 0
8, 131400, Note_on_c, 6, 74, 0
8, 133344, Control_c, 6, 11, 60
8, 133344, Control_c, 6, 1, 1
8, 133344, Note_on_c, 6, 81, 100
8, 133345, Control_c, 6, 1, 3
8, 133346, Control_c, 6, 1, 4
8, 133347, Control_c, 6, 1, 5
8, 133349, Control_c, 6, 1, 6
8, 133350, Control_c, 6, 1, 7
8, 133352, Control_c, 6, 1, 8
8, 133353, Control_c, 6, 1, 9
8, 133355, Control_c, 6, 1, 10
8, 133357, Control_c, 6, 1, 11
8, 133359, Control_c, 6, 1, 12
8, 133361, Control_c, 6, 1, 13
8, 133363, Control_c, 6, 1, 14
8, 133367, Control_c, 6, 1, 15
8, 133370, Control_c, 6, 1, 16
8, 133372, Control_c, 6, 11, 61
8, 133374, Control_c, 6, 1, 17
8, 133380, Control_c, 6, 1, 18
8, 133388, Control_c, 6, 1, 19
8, 133392, Note_on_c, 6, 81, 0
8, 133392, Note_on_c, 6, 80, 100
8, 133399, Control_c, 6, 11, 62
8, 133401, Control_c, 6, 1, 20
8, 133426, Control_c, 6, 11, 63
8, 133440, Note_on_c, 6, 80, 0
8, 133440, Note_on_c, 6, 81, 100
8, 133453, Control_c, 6, 11, 64
8, 133480, Control_c, 6, 11, 65
8, 133488, Note_on_c, 6, 81, 0
8, 133488, Note_on_c, 6, 83, 100
8, 133507, Control_c, 6, 11, 66
8, 133535, Control_c, 6, 11, 67
8, 133536, Note_on_c, 6, 83, 0
8, 133536, Note_on_c, 6, 76, 100
8, 133562, Control_c, 6, 11, 68
8, 133584, Note_on_c, 6, 76, 0
8, 133584, Note_on_c, 6, 78, 100
8, 133589, Control_c, 6, 11, 69
8, 133616, Control_c, 6, 11, 70
8, 133632, Note_on_c, 6, 78, 0
8, 133632, Note_on_c, 6, 80, 100
8, 133643, Control_c, 6, 11, 71
8, 133670, Control_c, 6, 11, 72
8, 133680, Note_on_c, 6, 80, 0
8, 133680, Control_c, 6, 1, 0
8, 133680, Note_on_c, 6, 81, 100
8, 133681, Control_c, 6, 1, 2
8, 133682, Control_c, 6, 1, 3
8, 133683, Control_c, 6, 1, 4
8, 133684, Control_c, 6, 1, 5
8, 133685, Control_c, 6, 1, 6
8, 133687, Control_c, 6, 1, 7
8, 133688, Control_c, 6, 1, 8
8, 133689, Control_c, 6, 1, 9
8, 133691, Control_c, 6, 1, 10
8, 133693, Control_c, 6, 1, 11
8, 133694, Control_c, 6, 1, 12
8, 133697, Control_c, 6, 1, 13
8, 133698, Control_c, 6, 11, 73
8, 133699, Control_c, 6, 1, 14
8, 133702, Control_c, 6, 1, 15
8, 133705, Control_c, 6, 1, 16
8, 133708, Control_c, 6, 1, 17
8, 133713, Control_c, 6, 1, 18
8, 133721, Control_c, 6, 1, 19
8, 133725, Control_c, 6, 11, 74
8, 133733, Control_c, 6, 1, 20
8, 133752, Control_c, 6, 11, 75
8, 133779, Control_c, 6, 11, 76
8, 133806, Control_c, 6, 11, 77
8, 133833, Control_c, 6, 11, 78
8, 133861, Control_c, 6, 11, 79
8, 133888, Control_c, 6, 11, 80
8, 133915, Control_c, 6, 11, 81
8, 133942, Control_c, 6, 11, 82
8, 133969, Control_c, 6, 11, 83
8, 133996, Control_c, 6, 11, 84
8, 134024, Control_c, 6, 11, 85
8, 134051, Control_c, 6, 11, 86
8, 134078, Control_c, 6, 11, 87
8, 134105, Control_c, 6, 11, 88
8, 134132, Control_c, 6, 11, 89
8, 134159, Control_c, 6, 11, 90
8, 134160, Note_on_c, 6, 81, 0
8, 134160, Control_c, 6, 11, 90
8, 134160, Note_on_c, 6, 83, 100
8, 134164, Control_c, 6, 11, 89
8, 134167, Control_c, 6, 11, 88
8, 134171, Control_c, 6, 11, 87
8, 134174, Control_c, 6, 11, 86
8, 134177, Control_c, 6, 11, 85
8, 134181, Control_c, 6, 11, 84
8, 134184, Control_c, 6, 11, 83
8, 134188, Control_c, 6, 11, 82
8, 134191, Control_c, 6, 11, 81
8, 134194, Control_c, 6, 11, 80
8, 134198, Control_c, 6, 11, 79
8, 134201, Control_c, 6, 11, 78
8, 134205, Control_c, 6, 11, 77
8, 134208, Note_on_c, 6, 83, 0
8, 134208, Note_on_c, 6, 79, 100
8, 134208, Control_c, 6, 11, 76
8, 134211, Control_c, 6, 11, 75
8, 134215, Control_c, 6, 11, 74
8, 134218, Control_c, 6, 11, 73
8, 134222, Control_c, 6, 11, 72
8, 134225, Control_c, 6, 11, 71
8, 134228, Control_c, 6, 11, 70
8, 134232, Control_c, 6, 11, 69
8, 134235, Control_c, 6, 11, 68
8, 134239, Control_c, 6, 11, 67
8, 134242, Control_c, 6, 11, 66
8, 134245, Control_c, 6, 11, 65
8, 134249, Control_c, 6, 11, 64
8, 134252, Control_c, 6, 11, 63
8, 134255, Control_c, 6, 11, 62
8, 134256, Note_on_c, 6, 79, 0
8, 134256, Control_c, 6, 11, 60
8, 134256, Control_c, 6, 1, 0
8, 134256, Note_on_c, 6, 78, 100
8, 134304, Note_on_c, 6, 78, 0
8, 134352, Note_on_c, 6, 76, 100
8, 134400, Note_on_c, 6, 76, 0
8, 137520, Control_c, 6, 11, 60
8, 137616, Note_on_c, 6, 81, 121
8, 137640, Note_on_c, 6, 81, 0
8, 137664, Note_on_c, 6, 80, 120
8, 137688, Note_on_c, 6, 80, 0
8, 137712, Note_on_c, 6, 81, 121
8, 137736, Note_on_c, 6, 81, 0
8, 137760, Note_on_c, 6, 78, 118
8, 137784, Note_on_c, 6, 78, 0
8, 137808, Note_on_c, 6, 76, 116
8, 137832, Note_on_c, 6, 76, 0
8, 137856, Note_on_c, 6, 74, 114
8, 137880, Note_on_c, 6, 74, 0
8, 137904, Note_on_c, 6, 73, 113
8, 137928, Note_on_c, 6, 73, 0
8, 137952, Note_on_c, 6, 71, 111
8, 137976, Note_on_c, 6, 71, 0
8, 138000, Note_on_c, 6, 69, 109
8, 138024, Note_on_c, 6, 69, 0
8, 138048, Note_on_c, 6, 79, 119
8, 138072, Note_on_c, 6, 79, 0
8, 138096, Note_on_c, 6, 78, 118
8, 138120, Note_on_c, 6, 78, 0
8, 138144, Note_on_c, 6, 80, 120
8, 138168, Note_on_c, 6, 80, 0
8, 138192, Note_on_c, 6, 81, 121
8, 138216, Note_on_c, 6, 81, 0
8, 138240, Note_on_c, 6, 76, 116
8, 138264, Note_on_c, 6, 76, 0
8, 138288, Note_on_c, 6, 86, 126
8, 138312, Note_on_c, 6, 86, 0
8, 138336, Note_on_c, 6, 80, 120
8, 138360, Note_on_c, 6, 80, 0
8, 138384, Control_c, 6, 1, 0
8, 138384, Note_on_c, 6, 81, 121
8, 138385, Control_c, 6, 1, 3
8, 138386, Control_c, 6, 1, 5
8, 138387, Control_c, 6, 1, 7
8, 138388, Control_c, 6, 1, 8
8, 138389, Control_c, 6, 1, 10
8, 138390, Control_c, 6, 1, 11
8, 138391, Control_c, 6, 1, 12
8, 138392, Control_c, 6, 1, 13
8, 138393, Control_c, 6, 1, 14
8, 138395, Control_c, 6, 1, 15
8, 138396, Control_c, 6, 1, 16
8, 138398, Control_c, 6, 1, 17
8, 138400, Control_c, 6, 1, 18
8, 138404, Control_c, 6, 1, 19
8, 138410, Control_c, 6, 1, 20
8, 138432, Note_on_c, 6, 81, 0
8, 138432, Note_on_c, 6, 80, 119
8, 138480, Note_on_c, 6, 80, 0
8, 138480, Note_on_c, 6, 81, 121
8, 138528, Note_on_c, 6, 81, 0
8, 138528, Note_on_c, 6, 78, 118
8, 138576, Note_on_c, 6, 78, 0
8, 138576, Note_on_c, 6, 76, 116
8, 138624, Note_on_c, 6, 76, 0
8, 138624, Note_on_c, 6, 74, 114
8, 138672, Note_on_c, 6, 74, 0
8, 138672, Note_on_c, 6, 73, 113
8, 138720, Note_on_c, 6, 73, 0
8, 138720, Note_on_c, 6, 69, 109
8, 138765, Note_on_c, 6, 69, 0
8, 138768, Control_c, 6, 1, 0
8, 138768, Note_on_c, 6, 81, 121
8, 138769, Control_c, 6, 1, 3
8, 138770, Control_c, 6, 1, 5
8, 138771, Control_c, 6, 1, 7
8, 138772, Control_c, 6, 1, 8
8, 138773, Control_c, 6, 1, 10
8, 138774, Control_c, 6, 1, 11
8, 138775, Control_c, 6, 1, 12
8, 138776, Control_c, 6, 1, 13
8, 138777, Control_c, 6, 1, 14
8, 138779, Control_c, 6, 1, 15
8, 138780, Control_c, 6, 1, 16
8, 138782, Control_c, 6, 1, 17
8, 138784, Control_c, 6, 1, 18
8, 138788, Control_c, 6, 1, 19
8, 138794, Control_c, 6, 1, 20
8, 138816, Note_on_c, 6, 81, 0
8, 138816, Note_on_c, 6, 80, 120
8, 138864, Note_on_c, 6, 80, 0
8, 138864, Note_on_c, 6, 81, 121
8, 138912, Note_on_c, 6, 81, 0
8, 138912, Note_on_c, 6, 78, 118
8, 138960, Note_on_c, 6, 78, 0
8, 138960, Note_on_c, 6, 76, 116
8, 139008, Note_on_c, 6, 76, 0
8, 139008, Note_on_c, 6, 74, 114
8, 139056, Note_on_c, 6, 74, 0
8, 139056, Note_on_c, 6, 73, 113
8, 139104, Note_on_c, 6, 73, 0
8, 139104, Note_on_c, 6, 69, 109
8, 139149, Note_on_c, 6, 69, 0
8, 139152, Control_c, 6, 1, 0
8, 139152, Note_on_c, 6, 83, 123
8, 139153, Control_c, 6, 1, 3
8, 139154, Control_c, 6, 1, 5
8, 139155, Control_c, 6, 1, 7
8, 139156, Control_c, 6, 1, 8
8, 139157, Control_c, 6, 1, 10
8, 139158, Control_c, 6, 1, 11
8, 139159, Control_c, 6, 1, 12
8, 139160, Control_c, 6, 1, 13
8, 139161, Control_c, 6, 1, 14
8, 139163, Control_c, 6, 1, 15
8, 139164, Control_c, 6, 1, 16
8, 139166, Control_c, 6, 1, 17
8, 139168, Control_c, 6, 1, 18
8, 139172, Control_c, 6, 1, 19
8, 139178, Control_c, 6, 1, 20
8, 139200, Note_on_c, 6, 83, 0
8, 139200, Note_on_c, 6, 82, 122
8, 139248, Note_on_c, 6, 82, 0
8, 139248, Note_on_c, 6, 83, 123
8, 139296, Note_on_c, 6, 83, 0
8, 139296, Note_on_c, 6, 79, 119
8, 139344, Note_on_c, 6, 79, 0
8, 139344, Note_on_c, 6, 76, 116
8, 139392, Note_on_c, 6, 76, 0
8, 139392, Note_on_c, 6, 74, 114
8, 139440, Note_on_c, 6, 74, 0
8, 139440, Note_on_c, 6, 73, 113
8, 139488, Note_on_c, 6, 73, 0
8, 139488, Note_on_c, 6, 69, 109
8, 139536, Note_on_c, 6, 69, 0
8, 139536, Note_on_c, 6, 83, 123
8, 139584, Note_on_c, 6, 83, 0
8, 139584, Note_on_c, 6, 82, 122
8, 139632, Note_on_c, 6, 82, 0
8, 139632, Control_c, 6, 11, 60
8, 139632, Note_on_c, 6, 83, 120
8, 139680, Note_on_c, 6, 83, 0
8, 139680, Note_on_c, 6, 79, 120
8, 139682, Control_c, 6, 11, 61
8, 139728, Note_on_c, 6, 79, 0
8, 139728, Note_on_c, 6, 76, 120
8, 139732, Control_c, 6, 11, 62
8, 139776, Note_on_c, 6, 76, 0
8, 139776, Note_on_c, 6, 74, 120
8, 139782, Control_c, 6, 11, 63
8, 139824, Note_on_c, 6, 74, 0
8, 139824, Note_on_c, 6, 73, 120
8, 139832, Control_c, 6, 11, 64
8, 139872, Note_on_c, 6, 73, 0
8, 139872, Note_on_c, 6, 69, 120
8, 139882, Control_c, 6, 11, 65
8, 139917, Note_on_c, 6, 69, 0
8, 139920, Control_c, 6, 1, 0
8, 139920, Note_on_c, 6, 76, 120
8, 139921, Control_c, 6, 1, 3
8, 139922, Control_c, 6, 1, 5
8, 139923, Control_c, 6, 1, 7
8, 139924, Control_c, 6, 1, 8
8, 139925, Control_c, 6, 1, 10
8, 139926, Control_c, 6, 1, 11
8, 139927, Control_c, 6, 1, 12
8, 139928, Control_c, 6, 1, 13
8, 139929, Control_c, 6, 1, 14
8, 139931, Control_c, 6, 1, 15
8, 139932, Control_c, 6, 11, 66
8, 139932, Control_c, 6, 1, 16
8, 139934, Control_c, 6, 1, 17
8, 139936, Control_c, 6, 1, 18
8, 139940, Control_c, 6, 1, 19
8, 139946, Control_c, 6, 1, 20
8, 139968, Note_on_c, 6, 76, 0
8, 139968, Note_on_c, 6, 75, 120
8, 139982, Control_c, 6, 11, 67
8, 140016, Note_on_c, 6, 75, 0
8, 140016, Note_on_c, 6, 76, 120
8, 140032, Control_c, 6, 11, 68
8, 140064, Note_on_c, 6, 76, 0
8, 140064, Note_on_c, 6, 73, 120
8, 140081, Control_c, 6, 11, 69
8, 140109, Note_on_c, 6, 73, 0
8, 140112, Control_c, 6, 1, 0
8, 140112, Note_on_c, 6, 79, 120
8, 140113, Control_c, 6, 1, 3
8, 140114, Control_c, 6, 1, 5
8, 140115, Control_c, 6, 1, 7
8, 140116, Control_c, 6, 1, 8
8, 140117, Control_c, 6, 1, 10
8, 140118, Control_c, 6, 1, 11
8, 140119, Control_c, 6, 1, 12
8, 140120, Control_c, 6, 1, 13
8, 140121, Control_c, 6, 1, 14
8, 140123, Control_c, 6, 1, 15
8, 140124, Control_c, 6, 1, 16
8, 140126, Control_c, 6, 1, 17
8, 140128, Control_c, 6, 1, 18
8, 140131, Control_c, 6, 11, 70
8, 140132, Control_c, 6, 1, 19
8, 140138, Control_c, 6, 1, 20
8, 140160, Note_on_c, 6, 79, 0
8, 140160, Note_on_c, 6, 78, 120
8, 140181, Control_c, 6, 11, 71
8, 140208, Note_on_c, 6, 78, 0
8, 140208, Note_on_c, 6, 79, 120
8, 140231, Control_c, 6, 11, 72
8, 140256, Note_on_c, 6, 79, 0
8, 140256, Note_on_c, 6, 76, 120
8, 140281, Control_c, 6, 11, 73
8, 140301, Note_on_c, 6, 76, 0
8, 140304, Control_c, 6, 1, 0
8, 140304, Note_on_c, 6, 76, 120
8, 140305, Control_c, 6, 1, 3
8, 140306, Control_c, 6, 1, 5
8, 140307, Control_c, 6, 1, 7
8, 140308, Control_c, 6, 1, 8
8, 140309, Control_c, 6, 1, 10
8, 140310, Control_c, 6, 1, 11
8, 140311, Control_c, 6, 1, 12
8, 140312, Control_c, 6, 1, 13
8, 140313, Control_c, 6, 1, 14
8, 140315, Control_c, 6, 1, 15
8, 140316, Control_c, 6, 1, 16
8, 140318, Control_c, 6, 1, 17
8, 140320, Control_c, 6, 1, 18
8, 140324, Control_c, 6, 1, 19
8, 140330, Control_c, 6, 1, 20
8, 140331, Control_c, 6, 11, 74
8, 140352, Note_on_c, 6, 76, 0
8, 140352, Note_on_c, 6, 75, 120
8, 140381, Control_c, 6, 11, 75
8, 140400, Note_on_c, 6, 75, 0
8, 140400, Note_on_c, 6, 76, 120
8, 140431, Control_c, 6, 11, 76
8, 140448, Note_on_c, 6, 76, 0
8, 140448, Note_on_c, 6, 73, 120
8, 140480, Control_c, 6, 11, 77
8, 140493, Note_on_c, 6, 73, 0
8, 140496, Control_c, 6, 1, 0
8, 140496, Note_on_c, 6, 79, 120
8, 140497, Control_c, 6, 1, 3
8, 140498, Control_c, 6, 1, 5
8, 140499, Control_c, 6, 1, 7
8, 140500, Control_c, 6, 1, 8
8, 140501, Control_c, 6, 1, 10
8, 140502, Control_c, 6, 1, 11
8, 140503, Control_c, 6, 1, 12
8, 140504, Control_c, 6, 1, 13
8, 140505, Control_c, 6, 1, 14
8, 140507, Control_c, 6, 1, 15
8, 140508, Control_c, 6, 1, 16
8, 140510, Control_c, 6, 1, 17
8, 140512, Control_c, 6, 1, 18
8, 140516, Control_c, 6, 1, 19
8, 140522, Control_c, 6, 1, 20
8, 140530, Control_c, 6, 11, 78
8, 140544, Note_on_c, 6, 79, 0
8, 140544, Note_on_c, 6, 78, 120
8, 140580, Control_c, 6, 11, 79
8, 140592, Note_on_c, 6, 78, 0
8, 140592, Note_on_c, 6, 79, 120
8, 140630, Control_c, 6, 11, 80
8, 140640, Note_on_c, 6, 79, 0
8, 140640, Note_on_c, 6, 76, 120
8, 140680, Control_c, 6, 11, 81
8, 140685, Note_on_c, 6, 76, 0
8, 140688, Control_c, 6, 1, 0
8, 140688, Note_on_c, 6, 79, 120
8, 140689, Control_c, 6, 1, 3
8, 140690, Control_c, 6, 1, 5
8, 140691, Control_c, 6, 1, 7
8, 140692, Control_c, 6, 1, 8
8, 140693, Control_c, 6, 1, 10
8, 140694, Control_c, 6, 1, 11
8, 140695, Control_c, 6, 1, 12
8, 140696, Control_c, 6, 1, 13
8, 140697, Control_c, 6, 1, 14
8, 140699, Control_c, 6, 1, 15
8, 140700, Control_c, 6, 1, 16
8, 140702, Control_c, 6, 1, 17
8, 140704, Control_c, 6, 1, 18
8, 140708, Control_c, 6, 1, 19
8, 140714, Control_c, 6, 1, 20
8, 140730, Control_c, 6, 11, 82
8, 140736, Note_on_c, 6, 79, 0
8, 140736, Note_on_c, 6, 78, 120
8, 140780, Control_c, 6, 11, 83
8, 140784, Note_on_c, 6, 78, 0
8, 140784, Note_on_c, 6, 79, 120
8, 140830, Control_c, 6, 11, 84
8, 140832, Note_on_c, 6, 79, 0
8, 140832, Note_on_c, 6, 76, 120
8, 140877, Note_on_c, 6, 76, 0
8, 140879, Control_c, 6, 11, 85
8, 140880, Control_c, 6, 11, 60
8, 140880, Control_c, 6, 1, 1
8, 140880, Note_on_c, 6, 79, 120
8, 140881, Control_c, 6, 1, 4
8, 140882, Control_c, 6, 1, 6
8, 140883, Control_c, 6, 1, 7
8, 140884, Control_c, 6, 1, 9
8, 140885, Control_c, 6, 1, 10
8, 140886, Control_c, 6, 1, 11
8, 140887, Control_c, 6, 1, 12
8, 140888, Control_c, 6, 1, 13
8, 140889, Control_c, 6, 1, 14
8, 140890, Control_c, 6, 1, 15
8, 140892, Control_c, 6, 1, 16
8, 140894, Control_c, 6, 1, 17
8, 140896, Control_c, 6, 1, 18
8, 140899, Control_c, 6, 1, 19
8, 140905, Control_c, 6, 1, 20
8, 140928, Note_on_c, 6, 79, 0
8, 140928, Note_on_c, 6, 78, 120
8, 140976, Note_on_c, 6, 78, 0
8, 140976, Note_on_c, 6, 79, 120
8, 141024, Note_on_c, 6, 79, 0
8, 141024, Note_on_c, 6, 74, 120
8, 141072, Note_on_c, 6, 74, 0
8, 141072, Note_on_c, 6, 72, 120
8, 141120, Note_on_c, 6, 72, 0
8, 141120, Note_on_c, 6, 70, 120
8, 141168, Note_on_c, 6, 70, 0
8, 141168, Note_on_c, 6, 69, 120
8, 141213, Note_on_c, 6, 69, 0
8, 141216, Control_c, 6, 1, 0
8, 141216, Note_on_c, 6, 77, 120
8, 141217, Control_c, 6, 1, 3
8, 141218, Control_c, 6, 1, 5
8, 141219, Control_c, 6, 1, 7
8, 141220, Control_c, 6, 1, 8
8, 141221, Control_c, 6, 1, 10
8, 141222, Control_c, 6, 1, 11
8, 141223, Control_c, 6, 1, 12
8, 141224, Control_c, 6, 1, 13
8, 141225, Control_c, 6, 1, 14
8, 141227, Control_c, 6, 1, 15
8, 141228, Control_c, 6, 1, 16
8, 141230, Control_c, 6, 1, 17
8, 141232, Control_c, 6, 1, 18
8, 141236, Control_c, 6, 1, 19
8, 141242, Control_c, 6, 1, 20
8, 141264, Note_on_c, 6, 77, 0
8, 141264, Control_c, 6, 11, 60
8, 141264, Note_on_c, 6, 79, 120
8, 141276, Control_c, 6, 11, 61
8, 141287, Control_c, 6, 11, 62
8, 141299, Control_c, 6, 11, 63
8, 141310, Control_c, 6, 11, 64
8, 141312, Note_on_c, 6, 79, 0
8, 141312, Note_on_c, 6, 77, 120
8, 141322, Control_c, 6, 11, 65
8, 141333, Control_c, 6, 11, 66
8, 141345, Control_c, 6, 11, 67
8, 141356, Control_c, 6, 11, 68
8, 141360, Note_on_c, 6, 77, 0
8, 141360, Note_on_c, 6, 79, 120
8, 141368, Control_c, 6, 11, 69
8, 141379, Control_c, 6, 11, 70
8, 141391, Control_c, 6, 11, 71
8, 141402, Control_c, 6, 11, 72
8, 141408, Note_on_c, 6, 79, 0
8, 141408, Note_on_c, 6, 70, 120
8, 141414, Control_c, 6, 11, 73
8, 141425, Control_c, 6, 11, 74
8, 141437, Control_c, 6, 11, 75
8, 141448, Control_c, 6, 11, 76
8, 141456, Note_on_c, 6, 70, 0
8, 141456, Note_on_c, 6, 69, 120
8, 141460, Control_c, 6, 11, 77
8, 141471, Control_c, 6, 11, 78
8, 141483, Control_c, 6, 11, 79
8, 141494, Control_c, 6, 11, 80
8, 141504, Note_on_c, 6, 69, 0
8, 141504, Note_on_c, 6, 81, 120
8, 141506, Control_c, 6, 11, 81
8, 141517, Control_c, 6, 11, 82
8, 141529, Control_c, 6, 11, 83
8, 141540, Control_c, 6, 11, 84
8, 141549, Note_on_c, 6, 81, 0
8, 141551, Control_c, 6, 11, 85
8, 141552, Control_c, 6, 11, 100
8, 141552, Control_c, 6, 1, 0
8, 141552, Note_on_c, 6, 81, 120
8, 141553, Control_c, 6, 11, 95
8, 141553, Control_c, 6, 1, 2
8, 141554, Control_c, 6, 11, 91
8, 141554, Control_c, 6, 1, 3
8, 141555, Control_c, 6, 11, 87
8, 141555, Control_c, 6, 1, 4
8, 141556, Control_c, 6, 11, 84
8, 141556, Control_c, 6, 1, 5
8, 141557, Control_c, 6, 11, 81
8, 141557, Control_c, 6, 1, 6
8, 141558, Control_c, 6, 11, 79
8, 141558, Control_c, 6, 1, 7
8, 141559, Control_c, 6, 11, 77
8, 141560, Control_c, 6, 11, 75
8, 141560, Control_c, 6, 1, 8
8, 141561, Control_c, 6, 11, 73
8, 141561, Control_c, 6, 1, 9
8, 141562, Control_c, 6, 11, 72
8, 141563, Control_c, 6, 11, 70
8, 141563, Control_c, 6, 1, 10
8, 141564, Control_c, 6, 11, 69
8, 141564, Control_c, 6, 1, 11
8, 141565, Control_c, 6, 11, 68
8, 141566, Control_c, 6, 11, 67
8, 141566, Control_c, 6, 1, 12
8, 141567, Control_c, 6, 11, 66
8, 141568, Control_c, 6, 11, 65
8, 141568, Control_c, 6, 1, 13
8, 141570, Control_c, 6, 11, 64
8, 141570, Control_c, 6, 1, 14
8, 141572, Control_c, 6, 11, 63
8, 141573, Control_c, 6, 1, 15
8, 141574, Control_c, 6, 11, 62
8, 141576, Control_c, 6, 1, 16
8, 141578, Control_c, 6, 11, 61
8, 141580, Control_c, 6, 1, 17
8, 141583, Control_c, 6, 11, 60
8, 141584, Control_c, 6, 1, 18
8, 141591, Control_c, 6, 1, 19
8, 141603, Control_c, 6, 1, 20
8, 141744, Control_c, 6, 11, 60
8, 141786, Control_c, 6, 11, 61
8, 141827, Control_c, 6, 11, 62
8, 141868, Control_c, 6, 11, 63
8, 141909, Control_c, 6, 11, 64
8, 141950, Control_c, 6, 11, 65
8, 141991, Control_c, 6, 11, 66
8, 142032, Control_c, 6, 11, 67
8, 142073, Control_c, 6, 11, 68
8, 142115, Control_c, 6, 11, 69
8, 142156, Control_c, 6, 11, 70
8, 142197, Control_c, 6, 11, 71
8, 142238, Control_c, 6, 11, 72
8, 142279, Control_c, 6, 11, 73
8, 142320, Control_c, 6, 11, 74
8, 142361, Control_c, 6, 11, 75
8, 142402, Control_c, 6, 11, 76
8, 142443, Control_c, 6, 11, 77
8, 142485, Control_c, 6, 11, 78
8, 142526, Control_c, 6, 11, 79
8, 142567, Control_c, 6, 11, 80
8, 142608, Control_c, 6, 11, 81
8, 142649, Control_c, 6, 11, 82
8, 142690, Control_c, 6, 11, 83
8, 142731, Control_c, 6, 11, 84
8, 142772, Control_c, 6, 11, 85
8, 142813, Control_c, 6, 11, 86
8, 142855, Control_c, 6, 11, 87
8, 142896, Control_c, 6, 11, 88
8, 142937, Control_c, 6, 11, 89
8, 142978, Control_c, 6, 11, 90
8, 143019, Control_c, 6, 11, 91
8, 143060, Control_c, 6, 11, 92
8, 143101, Control_c, 6, 11, 93
8, 143142, Control_c, 6, 11, 94
8, 143183, Control_c, 6, 11, 95
8, 143184, Note_on_c, 6, 69, 120
8, 144240, Control_c, 6, 1, 0
8, 144240, Note_on_c, 6, 66, 120
8, 144241, Note_on_c, 6, 81, 0
8, 144241, Note_on_c, 6, 69, 0
8, 144241, Control_c, 6, 1, 1
8, 144242, Control_c, 6, 1, 2
8, 144243, Control_c, 6, 1, 3
8, 144244, Control_c, 6, 1, 4
8, 144246, Control_c, 6, 1, 5
8, 144248, Control_c, 6, 1, 6
8, 144249, Control_c, 6, 1, 7
8, 144251, Control_c, 6, 1, 8
8, 144253, Control_c, 6, 1, 9
8, 144256, Control_c, 6, 1, 10
8, 144258, Control_c, 6, 1, 11
8, 144261, Control_c, 6, 1, 12
8, 144264, Control_c, 6, 1, 13
8, 144267, Control_c, 6, 1, 14
8, 144271, Control_c, 6, 1, 15
8, 144276, Control_c, 6, 1, 16
8, 144281, Control_c, 6, 1, 17
8, 144289, Control_c, 6, 1, 18
8, 144299, Control_c, 6, 1, 19
8, 144317, Control_c, 6, 1, 20
8, 144384, Note_on_c, 6, 66, 0
8, 144384, Note_on_c, 6, 67, 120
8, 144408, Note_on_c, 6, 67, 0
8, 144408, Note_on_c, 6, 69, 120
8, 144432, Note_on_c, 6, 69, 0
8, 144432, Control_c, 6, 1, 0
8, 144432, Note_on_c, 6, 71, 120
8, 144432, Note_on_c, 6, 83, 120
8, 144456, Note_on_c, 6, 83, 0
8, 144456, Note_on_c, 6, 71, 0
8, 144480, Note_on_c, 6, 71, 120
8, 144480, Note_on_c, 6, 83, 120
8, 144504, Note_on_c, 6, 83, 0
8, 144504, Note_on_c, 6, 71, 0
8, 144528, Note_on_c, 6, 73, 120
8, 144528, Note_on_c, 6, 85, 120
8, 144552, Note_on_c, 6, 85, 0
8, 144552, Note_on_c, 6, 73, 0
8, 144576, Note_on_c, 6, 73, 120
8, 144576, Note_on_c, 6, 85, 120
8, 144600, Note_on_c, 6, 85, 0
8, 144600, Note_on_c, 6, 73, 0
8, 144624, Note_on_c, 6, 74, 120
8, 144624, Note_on_c, 6, 86, 120
8, 144648, Note_on_c, 6, 86, 0
8, 144648, Note_on_c, 6, 74, 0
8, 144720, Control_c, 6, 11, 120
8, 144720, Note_on_c, 6, 74, 62
8, 144744, Note_on_c, 6, 74, 0
8, 144768, Note_on_c, 6, 73, 61
8, 144792, Note_on_c, 6, 73, 0
8, 144816, Note_on_c, 6, 74, 62
8, 144840, Note_on_c, 6, 74, 0
8, 144864, Note_on_c, 6, 71, 59
8, 144888, Note_on_c, 6, 71, 0
8, 144912, Note_on_c, 6, 69, 57
8, 144936, Note_on_c, 6, 69, 0
8, 144960, Note_on_c, 6, 67, 55
8, 144984, Note_on_c, 6, 67, 0
8, 145008, Note_on_c, 6, 66, 54
8, 145032, Note_on_c, 6, 66, 0
8, 145056, Note_on_c, 6, 76, 64
8, 145080, Note_on_c, 6, 76, 0
8, 145104, Note_on_c, 6, 74, 62
8, 145128, Note_on_c, 6, 74, 0
8, 145152, Note_on_c, 6, 72, 60
8, 145176, Note_on_c, 6, 72, 0
8, 145200, Note_on_c, 6, 71, 59
8, 145224, Note_on_c, 6, 71, 0
8, 145248, Note_on_c, 6, 73, 61
8, 145272, Note_on_c, 6, 73, 0
8, 145296, Note_on_c, 6, 74, 62
8, 145320, Note_on_c, 6, 74, 0
8, 145344, Note_on_c, 6, 78, 66
8, 145368, Note_on_c, 6, 78, 0
8, 145392, Note_on_c, 6, 81, 69
8, 145416, Note_on_c, 6, 81, 0
8, 145440, Note_on_c, 6, 73, 61
8, 145464, Note_on_c, 6, 73, 0
8, 145488, Note_on_c, 6, 74, 62
8, 145512, Note_on_c, 6, 74, 0
8, 145536, Note_on_c, 6, 73, 61
8, 145560, Note_on_c, 6, 73, 0
8, 145584, Note_on_c, 6, 74, 62
8, 145608, Note_on_c, 6, 74, 0
8, 145632, Note_on_c, 6, 71, 63
8, 145656, Note_on_c, 6, 71, 0
8, 145680, Note_on_c, 6, 69, 64
8, 145704, Note_on_c, 6, 69, 0
8, 145728, Note_on_c, 6, 67, 65
8, 145752, Note_on_c, 6, 67, 0
8, 145776, Note_on_c, 6, 66, 66
8, 145800, Note_on_c, 6, 66, 0
8, 145824, Note_on_c, 6, 62, 67
8, 145848, Note_on_c, 6, 62, 0
8, 145872, Note_on_c, 6, 78, 69
8, 145896, Note_on_c, 6, 78, 0
8, 145920, Note_on_c, 6, 76, 70
8, 145944, Note_on_c, 6, 76, 0
8, 145968, Note_on_c, 6, 78, 71
8, 145992, Note_on_c, 6, 78, 0
8, 146016, Note_on_c, 6, 74, 72
8, 146040, Note_on_c, 6, 74, 0
8, 146064, Note_on_c, 6, 73, 73
8, 146088, Note_on_c, 6, 73, 0
8, 146112, Note_on_c, 6, 71, 74
8, 146136, Note_on_c, 6, 71, 0
8, 146160, Note_on_c, 6, 69, 75
8, 146184, Note_on_c, 6, 69, 0
8, 146208, Note_on_c, 6, 66, 76
8, 146232, Note_on_c, 6, 66, 0
8, 146256, Note_on_c, 6, 81, 78
8, 146280, Note_on_c, 6, 81, 0
8, 146304, Note_on_c, 6, 80, 79
8, 146328, Note_on_c, 6, 80, 0
8, 146352, Note_on_c, 6, 81, 80
8, 146376, Note_on_c, 6, 81, 0
8, 146400, Note_on_c, 6, 78, 81
8, 146424, Note_on_c, 6, 78, 0
8, 146448, Note_on_c, 6, 76, 82
8, 146472, Note_on_c, 6, 76, 0
8, 146496, Note_on_c, 6, 73, 83
8, 146520, Note_on_c, 6, 73, 0
8, 146544, Note_on_c, 6, 69, 84
8, 146568, Note_on_c, 6, 69, 0
8, 146592, Note_on_c, 6, 80, 85
8, 146616, Note_on_c, 6, 80, 0
8, 146640, Note_on_c, 6, 81, 87
8, 146664, Note_on_c, 6, 81, 0
8, 146688, Note_on_c, 6, 80, 88
8, 146712, Note_on_c, 6, 80, 0
8, 146736, Note_on_c, 6, 81, 89
8, 146760, Note_on_c, 6, 81, 0
8, 146784, Note_on_c, 6, 78, 90
8, 146808, Note_on_c, 6, 78, 0
8, 146832, Note_on_c, 6, 76, 91
8, 146856, Note_on_c, 6, 76, 0
8, 146880, Note_on_c, 6, 73, 92
8, 146904, Note_on_c, 6, 73, 0
8, 146928, Note_on_c, 6, 69, 95
8, 146952, Note_on_c, 6, 69, 0
8, 146976, Note_on_c, 6, 74, 95
8, 147000, Note_on_c, 6, 74, 0
8, 147024, Note_on_c, 6, 76, 95
8, 147048, Note_on_c, 6, 76, 0
8, 147072, Note_on_c, 6, 74, 95
8, 147096, Note_on_c, 6, 74, 0
8, 147120, Note_on_c, 6, 69, 95
8, 147144, Note_on_c, 6, 69, 0
8, 147168, Note_on_c, 6, 76, 95
8, 147192, Note_on_c, 6, 76, 0
8, 147216, Note_on_c, 6, 78, 95
8, 147240, Note_on_c, 6, 78, 0
8, 147264, Note_on_c, 6, 76, 95
8, 147288, Note_on_c, 6, 76, 0
8, 147312, Note_on_c, 6, 69, 95
8, 147336, Note_on_c, 6, 69, 0
8, 147360, Note_on_c, 6, 74, 92
8, 147384, Note_on_c, 6, 74, 0
8, 147408, Note_on_c, 6, 76, 88
8, 147432, Note_on_c, 6, 76, 0
8, 147456, Note_on_c, 6, 74, 84
8, 147480, Note_on_c, 6, 74, 0
8, 147504, Note_on_c, 6, 69, 80
8, 147528, Note_on_c, 6, 69, 0
8, 147552, Note_on_c, 6, 76, 77
8, 147576, Note_on_c, 6, 76, 0
8, 147600, Note_on_c, 6, 78, 73
8, 147624, Note_on_c, 6, 78, 0
8, 147648, Note_on_c, 6, 76, 69
8, 147672, Note_on_c, 6, 76, 0
8, 147696, Control_c, 6, 1, 0
8, 147696, Note_on_c, 6, 74, 65
8, 147697, Control_c, 6, 1, 2
8, 147698, Control_c, 6, 1, 3
8, 147699, Control_c, 6, 1, 4
8, 147700, Control_c, 6, 1, 5
8, 147701, Control_c, 6, 1, 6
8, 147702, Control_c, 6, 1, 7
8, 147704, Control_c, 6, 1, 8
8, 147705, Control_c, 6, 1, 9
8, 147707, Control_c, 6, 1, 10
8, 147708, Control_c, 6, 1, 11
8, 147710, Control_c, 6, 1, 12
8, 147712, Control_c, 6, 1, 13
8, 147714, Control_c, 6, 1, 14
8, 147717, Control_c, 6, 1, 15
8, 147720, Control_c, 6, 1, 16
8, 147724, Control_c, 6, 1, 17
8, 147728, Control_c, 6, 1, 18
8, 147735, Control_c, 6, 1, 19
8, 147747, Control_c, 6, 1, 20
8, 147788, Note_on_c, 6, 74, 0
8, 147792, Control_c, 6, 11, 65
8, 147792, Control_c, 6, 1, 0
8, 147792, Note_on_c, 6, 74, 120
8, 147793, Control_c, 6, 1, 2
8, 147794, Control_c, 6, 1, 3
8, 147795, Control_c, 6, 1, 4
8, 147796, Control_c, 6, 1, 5
8, 147797, Control_c, 6, 1, 6
8, 147798, Control_c, 6, 1, 7
8, 147800, Control_c, 6, 1, 8
8, 147801, Control_c, 6, 1, 9
8, 147803, Control_c, 6, 1, 10
8, 147804, Control_c, 6, 1, 11
8, 147806, Control_c, 6, 1, 12
8, 147808, Control_c, 6, 1, 13
8, 147810, Control_c, 6, 1, 14
8, 147813, Control_c, 6, 1, 15
8, 147816, Control_c, 6, 1, 16
8, 147820, Control_c, 6, 1, 17
8, 147824, Control_c, 6, 1, 18
8, 147831, Control_c, 6, 1, 19
8, 147840, Control_c, 6, 11, 66
8, 147843, Control_c, 6, 1, 20
8, 147888, Control_c, 6, 11, 67
8, 147936, Control_c, 6, 11, 68
8, 147982, Note_on_c, 6, 74, 0
8, 147984, Note_on_c, 6, 76, 120
8, 147984, Control_c, 6, 11, 69
8, 148032, Control_c, 6, 11, 70
8, 148076, Note_on_c, 6, 76, 0
8, 148080, Control_c, 6, 1, 0
8, 148080, Note_on_c, 6, 78, 120
8, 148080, Control_c, 6, 11, 71
8, 148081, Control_c, 6, 1, 2
8, 148082, Control_c, 6, 1, 3
8, 148083, Control_c, 6, 1, 4
8, 148084, Control_c, 6, 1, 5
8, 148085, Control_c, 6, 1, 6
8, 148086, Control_c, 6, 1, 7
8, 148088, Control_c, 6, 1, 8
8, 148089, Control_c, 6, 1, 9
8, 148091, Control_c, 6, 1, 10
8, 148092, Control_c, 6, 1, 11
8, 148094, Control_c, 6, 1, 12
8, 148096, Control_c, 6, 1, 13
8, 148098, Control_c, 6, 1, 14
8, 148101, Control_c, 6, 1, 15
8, 148104, Control_c, 6, 1, 16
8, 148108, Control_c, 6, 1, 17
8, 148112, Control_c, 6, 1, 18
8, 148119, Control_c, 6, 1, 19
8, 148128, Control_c, 6, 11, 72
8, 148131, Control_c, 6, 1, 20
8, 148172, Note_on_c, 6, 78, 0
8, 148176, Control_c, 6, 1, 0
8, 148176, Note_on_c, 6, 78, 120
8, 148176, Control_c, 6, 11, 73
8, 148177, Control_c, 6, 1, 2
8, 148178, Control_c, 6, 1, 3
8, 148179, Control_c, 6, 1, 4
8, 148180, Control_c, 6, 1, 5
8, 148181, Control_c, 6, 1, 6
8, 148182, Control_c, 6, 1, 7
8, 148184, Control_c, 6, 1, 8
8, 148185, Control_c, 6, 1, 9
8, 148187, Control_c, 6, 1, 10
8, 148188, Control_c, 6, 1, 11
8, 148190, Control_c, 6, 1, 12
8, 148192, Control_c, 6, 1, 13
8, 148194, Control_c, 6, 1, 14
8, 148197, Control_c, 6, 1, 15
8, 148200, Control_c, 6, 1, 16
8, 148204, Control_c, 6, 1, 17
8, 148208, Control_c, 6, 1, 18
8, 148215, Control_c, 6, 1, 19
8, 148224, Control_c, 6, 11, 74
8, 148227, Control_c, 6, 1, 20
8, 148272, Control_c, 6, 11, 75
8, 148320, Control_c, 6, 11, 76
8, 148366, Note_on_c, 6, 78, 0
8, 148368, Control_c, 6, 1, 0
8, 148368, Note_on_c, 6, 79, 120
8, 148368, Control_c, 6, 11, 77
8, 148369, Control_c, 6, 1, 2
8, 148370, Control_c, 6, 1, 3
8, 148371, Control_c, 6, 1, 4
8, 148372, Control_c, 6, 1, 5
8, 148373, Control_c, 6, 1, 6
8, 148374, Control_c, 6, 1, 7
8, 148376, Control_c, 6, 1, 8
8, 148377, Control_c, 6, 1, 9
8, 148379, Control_c, 6, 1, 10
8, 148380, Control_c, 6, 1, 11
8, 148382, Control_c, 6, 1, 12
8, 148384, Control_c, 6, 1, 13
8, 148386, Control_c, 6, 1, 14
8, 148389, Control_c, 6, 1, 15
8, 148392, Control_c, 6, 1, 16
8, 148396, Control_c, 6, 1, 17
8, 148400, Control_c, 6, 1, 18
8, 148407, Control_c, 6, 1, 19
8, 148416, Control_c, 6, 11, 78
8, 148419, Control_c, 6, 1, 20
8, 148460, Note_on_c, 6, 79, 0
8, 148464, Control_c, 6, 1, 0
8, 148464, Note_on_c, 6, 81, 120
8, 148464, Control_c, 6, 11, 79
8, 148465, Control_c, 6, 1, 2
8, 148466, Control_c, 6, 1, 3
8, 148467, Control_c, 6, 1, 4
8, 148468, Control_c, 6, 1, 5
8, 148469, Control_c, 6, 1, 6
8, 148470, Control_c, 6, 1, 7
8, 148472, Control_c, 6, 1, 8
8, 148473, Control_c, 6, 1, 9
8, 148475, Control_c, 6, 1, 10
8, 148476, Control_c, 6, 1, 11
8, 148478, Control_c, 6, 1, 12
8, 148480, Control_c, 6, 1, 13
8, 148482, Control_c, 6, 1, 14
8, 148485, Control_c, 6, 1, 15
8, 148488, Control_c, 6, 1, 16
8, 148492, Control_c, 6, 1, 17
8, 148496, Control_c, 6, 1, 18
8, 148503, Control_c, 6, 1, 19
8, 148512, Control_c, 6, 11, 80
8, 148515, Control_c, 6, 1, 20
8, 148556, Note_on_c, 6, 81, 0
8, 148560, Control_c, 6, 1, 0
8, 148560, Note_on_c, 6, 81, 120
8, 148560, Control_c, 6, 11, 81
8, 148561, Control_c, 6, 1, 2
8, 148562, Control_c, 6, 1, 3
8, 148563, Control_c, 6, 1, 4
8, 148564, Control_c, 6, 1, 5
8, 148565, Control_c, 6, 1, 6
8, 148566, Control_c, 6, 1, 7
8, 148568, Control_c, 6, 1, 8
8, 148569, Control_c, 6, 1, 9
8, 148571, Control_c, 6, 1, 10
8, 148572, Control_c, 6, 1, 11
8, 148574, Control_c, 6, 1, 12
8, 148576, Control_c, 6, 1, 13
8, 148578, Control_c, 6, 1, 14
8, 148581, Control_c, 6, 1, 15
8, 148584, Control_c, 6, 1, 16
8, 148588, Control_c, 6, 1, 17
8, 148592, Control_c, 6, 1, 18
8, 148599, Control_c, 6, 1, 19
8, 148608, Control_c, 6, 11, 82
8, 148611, Control_c, 6, 1, 20
8, 148656, Control_c, 6, 11, 83
8, 148704, Control_c, 6, 11, 84
8, 148750, Note_on_c, 6, 81, 0
8, 148752, Control_c, 6, 1, 0
8, 148752, Note_on_c, 6, 81, 120
8, 148752, Control_c, 6, 11, 85
8, 148753, Control_c, 6, 1, 2
8, 148754, Control_c, 6, 1, 3
8, 148755, Control_c, 6, 1, 4
8, 148756, Control_c, 6, 1, 5
8, 148757, Control_c, 6, 1, 6
8, 148758, Control_c, 6, 1, 7
8, 148760, Control_c, 6, 1, 8
8, 148761, Control_c, 6, 1, 9
8, 148763, Control_c, 6, 1, 10
8, 148764, Control_c, 6, 1, 11
8, 148766, Control_c, 6, 1, 12
8, 148768, Control_c, 6, 1, 13
8, 148770, Control_c, 6, 1, 14
8, 148773, Control_c, 6, 1, 15
8, 148776, Control_c, 6, 1, 16
8, 148780, Control_c, 6, 1, 17
8, 148784, Control_c, 6, 1, 18
8, 148791, Control_c, 6, 1, 19
8, 148800, Control_c, 6, 11, 86
8, 148803, Control_c, 6, 1, 20
8, 148844, Note_on_c, 6, 81, 0
8, 148848, Control_c, 6, 1, 0
8, 148848, Note_on_c, 6, 81, 120
8, 148848, Control_c, 6, 11, 87
8, 148849, Control_c, 6, 1, 2
8, 148850, Control_c, 6, 1, 3
8, 148851, Control_c, 6, 1, 4
8, 148852, Control_c, 6, 1, 5
8, 148853, Control_c, 6, 1, 6
8, 148854, Control_c, 6, 1, 7
8, 148856, Control_c, 6, 1, 8
8, 148857, Control_c, 6, 1, 9
8, 148859, Control_c, 6, 1, 10
8, 148860, Control_c, 6, 1, 11
8, 148862, Control_c, 6, 1, 12
8, 148864, Control_c, 6, 1, 13
8, 148866, Control_c, 6, 1, 14
8, 148869, Control_c, 6, 1, 15
8, 148872, Control_c, 6, 1, 16
8, 148876, Control_c, 6, 1, 17
8, 148880, Control_c, 6, 1, 18
8, 148887, Control_c, 6, 1, 19
8, 148896, Control_c, 6, 11, 88
8, 148899, Control_c, 6, 1, 20
8, 148940, Note_on_c, 6, 81, 0
8, 148944, Control_c, 6, 1, 0
8, 148944, Note_on_c, 6, 74, 120
8, 148944, Note_on_c, 6, 78, 120
8, 148944, Control_c, 6, 11, 89
8, 148945, Control_c, 6, 1, 2
8, 148946, Control_c, 6, 1, 3
8, 148947, Control_c, 6, 1, 4
8, 148948, Control_c, 6, 1, 5
8, 148949, Control_c, 6, 1, 6
8, 148950, Control_c, 6, 1, 7
8, 148952, Control_c, 6, 1, 8
8, 148953, Control_c, 6, 1, 9
8, 148955, Control_c, 6, 1, 10
8, 148956, Control_c, 6, 1, 11
8, 148958, Control_c, 6, 1, 12
8, 148960, Control_c, 6, 1, 13
8, 148962, Control_c, 6, 1, 14
8, 148965, Control_c, 6, 1, 15
8, 148968, Control_c, 6, 1, 16
8, 148972, Control_c, 6, 1, 17
8, 148976, Control_c, 6, 1, 18
8, 148983, Control_c, 6, 1, 19
8, 148992, Control_c, 6, 11, 90
8, 148995, Control_c, 6, 1, 20
8, 149040, Control_c, 6, 11, 91
8, 149088, Control_c, 6, 11, 92
8, 149134, Note_on_c, 6, 78, 0
8, 149134, Note_on_c, 6, 74, 0
8, 149136, Control_c, 6, 1, 0
8, 149136, Note_on_c, 6, 76, 120
8, 149136, Note_on_c, 6, 79, 120
8, 149136, Control_c, 6, 11, 93
8, 149137, Control_c, 6, 1, 2
8, 149138, Control_c, 6, 1, 3
8, 149139, Control_c, 6, 1, 4
8, 149140, Control_c, 6, 1, 5
8, 149141, Control_c, 6, 1, 6
8, 149142, Control_c, 6, 1, 7
8, 149144, Control_c, 6, 1, 8
8, 149145, Control_c, 6, 1, 9
8, 149147, Control_c, 6, 1, 10
8, 149148, Control_c, 6, 1, 11
8, 149150, Control_c, 6, 1, 12
8, 149152, Control_c, 6, 1, 13
8, 149154, Control_c, 6, 1, 14
8, 149157, Control_c, 6, 1, 15
8, 149160, Control_c, 6, 1, 16
8, 149164, Control_c, 6, 1, 17
8, 149168, Control_c, 6, 1, 18
8, 149175, Control_c, 6, 1, 19
8, 149184, Control_c, 6, 11, 94
8, 149187, Control_c, 6, 1, 20
8, 149228, Note_on_c, 6, 79, 0
8, 149228, Note_on_c, 6, 76, 0
8, 149231, Control_c, 6, 11, 95
8, 149232, Control_c, 6, 1, 0
8, 149232, Note_on_c, 6, 78, 120
8, 149232, Note_on_c, 6, 81, 120
8, 149302, Note_on_c, 6, 81, 0
8, 149302, Note_on_c, 6, 78, 0
8, 149328, Note_on_c, 6, 78, 117
8, 149328, Note_on_c, 6, 81, 117
8, 149398, Note_on_c, 6, 81, 0
8, 149398, Note_on_c, 6, 78, 0
8, 149424, Note_on_c, 6, 76, 120
8, 149424, Note_on_c, 6, 81, 120
8, 149494, Note_on_c, 6, 81, 0
8, 149494, Note_on_c, 6, 76, 0
8, 149520, Note_on_c, 6, 76, 117
8, 149520, Note_on_c, 6, 81, 117
8, 149590, Note_on_c, 6, 81, 0
8, 149590, Note_on_c, 6, 76, 0
8, 149616, Control_c, 6, 11, 95
8, 149616, Note_on_c, 6, 78, 120
8, 149616, Note_on_c, 6, 81, 120
8, 149655, Control_c, 6, 11, 94
8, 149686, Note_on_c, 6, 81, 0
8, 149686, Note_on_c, 6, 78, 0
8, 149693, Control_c, 6, 11, 93
8, 149712, Note_on_c, 6, 78, 120
8, 149712, Note_on_c, 6, 81, 120
8, 149732, Control_c, 6, 11, 92
8, 149770, Control_c, 6, 11, 91
8, 149782, Note_on_c, 6, 81, 0
8, 149782, Note_on_c, 6, 78, 0
8, 149808, Note_on_c, 6, 76, 120
8, 149808, Note_on_c, 6, 81, 120
8, 149808, Control_c, 6, 11, 90
8, 149847, Control_c, 6, 11, 89
8, 149878, Note_on_c, 6, 81, 0
8, 149878, Note_on_c, 6, 76, 0
8, 149885, Control_c, 6, 11, 88
8, 149904, Note_on_c, 6, 76, 120
8, 149904, Note_on_c, 6, 81, 120
8, 149923, Control_c, 6, 11, 87
8, 149962, Control_c, 6, 11, 86
8, 149974, Note_on_c, 6, 81, 0
8, 149974, Note_on_c, 6, 76, 0
8, 150000, Note_on_c, 6, 78, 120
8, 150000, Note_on_c, 6, 81, 120
8, 150000, Control_c, 6, 11, 85
8, 150039, Control_c, 6, 11, 84
8, 150070, Note_on_c, 6, 81, 0
8, 150070, Note_on_c, 6, 78, 0
8, 150077, Control_c, 6, 11, 83
8, 150096, Note_on_c, 6, 78, 120
8, 150096, Note_on_c, 6, 81, 120
8, 150115, Control_c, 6, 11, 82
8, 150154, Control_c, 6, 11, 81
8, 150166, Note_on_c, 6, 81, 0
8, 150166, Note_on_c, 6, 78, 0
8, 150192, Note_on_c, 6, 76, 120
8, 150192, Note_on_c, 6, 81, 120
8, 150192, Control_c, 6, 11, 80
8, 150230, Control_c, 6, 11, 79
8, 150262, Note_on_c, 6, 81, 0
8, 150262, Note_on_c, 6, 76, 0
8, 150269, Control_c, 6, 11, 78
8, 150288, Note_on_c, 6, 76, 120
8, 150288, Note_on_c, 6, 81, 120
8, 150307, Control_c, 6, 11, 77
8, 150345, Control_c, 6, 11, 76
8, 150358, Note_on_c, 6, 81, 0
8, 150358, Note_on_c, 6, 76, 0
8, 150384, Note_on_c, 6, 78, 120
8, 150384, Note_on_c, 6, 81, 120
8, 150384, Control_c, 6, 11, 75
8, 150422, Control_c, 6, 11, 74
8, 150454, Note_on_c, 6, 81, 0
8, 150454, Note_on_c, 6, 78, 0
8, 150461, Control_c, 6, 11, 73
8, 150480, Note_on_c, 6, 78, 120
8, 150480, Note_on_c, 6, 81, 120
8, 150499, Control_c, 6, 11, 72
8, 150537, Control_c, 6, 11, 71
8, 150550, Note_on_c, 6, 81, 0
8, 150550, Note_on_c, 6, 78, 0
8, 150576, Note_on_c, 6, 76, 120
8, 150576, Note_on_c, 6, 81, 120
8, 150576, Control_c, 6, 11, 70
8, 150614, Control_c, 6, 11, 69
8, 150646, Note_on_c, 6, 81, 0
8, 150646, Note_on_c, 6, 76, 0
8, 150652, Control_c, 6, 11, 68
8, 150672, Note_on_c, 6, 76, 120
8, 150672, Note_on_c, 6, 81, 120
8, 150691, Control_c, 6, 11, 67
8, 150729, Control_c, 6, 11, 66
8, 150742, Note_on_c, 6, 81, 0
8, 150742, Note_on_c, 6, 76, 0
8, 150767, Control_c, 6, 11, 65
8, 150768, Control_c, 6, 1, 0
8, 150768, Control_c, 6, 11, 60
8, 150768, Note_on_c, 6, 78, 120
8, 150768, Note_on_c, 6, 81, 120
8, 150769, Control_c, 6, 1, 2
8, 150770, Control_c, 6, 1, 3
8, 150771, Control_c, 6, 1, 4
8, 150772, Control_c, 6, 1, 5
8, 150773, Control_c, 6, 1, 6
8, 150774, Control_c, 6, 1, 7
8, 150776, Control_c, 6, 1, 8
8, 150777, Control_c, 6, 1, 9
8, 150779, Control_c, 6, 1, 10
8, 150780, Control_c, 6, 1, 11
8, 150782, Control_c, 6, 1, 12
8, 150784, Control_c, 6, 1, 13
8, 150786, Control_c, 6, 1, 14
8, 150789, Control_c, 6, 1, 15
8, 150792, Control_c, 6, 1, 16
8, 150796, Control_c, 6, 1, 17
8, 150800, Control_c, 6, 1, 18
8, 150807, Control_c, 6, 1, 19
8, 150819, Control_c, 6, 1, 20
8, 150864, Note_on_c, 6, 81, 0
8, 150864, Note_on_c, 6, 78, 0
8, 150864, Note_on_c, 6, 79, 120
8, 150864, Note_on_c, 6, 83, 120
8, 151150, Note_on_c, 6, 83, 0
8, 151150, Note_on_c, 6, 79, 0
8, 151152, Control_c, 6, 1, 0
8, 151152, Note_on_c, 6, 78, 120
8, 151152, Note_on_c, 6, 81, 120
8, 151153, Control_c, 6, 1, 2
8, 151154, Control_c, 6, 1, 3
8, 151155, Control_c, 6, 1, 4
8, 151156, Control_c, 6, 1, 5
8, 151157, Control_c, 6, 1, 6
8, 151158, Control_c, 6, 1, 7
8, 151160, Control_c, 6, 1, 8
8, 151161, Control_c, 6, 1, 9
8, 151163, Control_c, 6, 1, 10
8, 151164, Control_c, 6, 1, 11
8, 151166, Control_c, 6, 1, 12
8, 151168, Control_c, 6, 1, 13
8, 151170, Control_c, 6, 1, 14
8, 151173, Control_c, 6, 1, 15
8, 151176, Control_c, 6, 1, 16
8, 151180, Control_c, 6, 1, 17
8, 151184, Control_c, 6, 1, 18
8, 151191, Control_c, 6, 1, 19
8, 151203, Control_c, 6, 1, 20
8, 151248, Note_on_c, 6, 81, 0
8, 151248, Note_on_c, 6, 78, 0
8, 151248, Note_on_c, 6, 79, 120
8, 151248, Note_on_c, 6, 83, 120
8, 151534, Note_on_c, 6, 83, 0
8, 151534, Note_on_c, 6, 79, 0
8, 151536, Note_on_c, 6, 78, 120
8, 151536, Note_on_c, 6, 81, 120
8, 151632, Note_on_c, 6, 81, 0
8, 151632, Note_on_c, 6, 78, 0
8, 151632, Note_on_c, 6, 79, 120
8, 151632, Note_on_c, 6, 83, 120
8, 152110, Note_on_c, 6, 83, 0
8, 152110, Note_on_c, 6, 79, 0
8, 152112, Control_c, 6, 11, 55
8, 152112, Control_c, 6, 1, 0
8, 152112, Note_on_c, 6, 79, 120
8, 152112, Note_on_c, 6, 82, 120
8, 152113, Control_c, 6, 1, 1
8, 152114, Control_c, 6, 1, 2
8, 152115, Control_c, 6, 1, 3
8, 152118, Control_c, 6, 1, 4
8, 152120, Control_c, 6, 1, 5
8, 152122, Control_c, 6, 1, 6
8, 152124, Control_c, 6, 1, 7
8, 152127, Control_c, 6, 1, 8
8, 152130, Control_c, 6, 1, 9
8, 152133, Control_c, 6, 1, 10
8, 152136, Control_c, 6, 1, 11
8, 152139, Control_c, 6, 1, 12
8, 152144, Control_c, 6, 1, 13
8, 152148, Control_c, 6, 1, 14
8, 152154, Control_c, 6, 1, 15
8, 152160, Control_c, 6, 1, 16
8, 152167, Control_c, 6, 1, 17
8, 152177, Control_c, 6, 1, 18
8, 152191, Control_c, 6, 1, 19
8, 152215, Control_c, 6, 1, 20
8, 152280, Note_on_c, 6, 82, 0
8, 152280, Note_on_c, 6, 79, 0
8, 152304, Control_c, 6, 7, 86
8, 152306, Control_c, 6, 11, 120
8, 152880, Control_c, 6, 1, 0
8, 153024, Program_c, 6, 68
8, 153024, Note_on_c, 6, 74, 110
8, 153024, Note_on_c, 6, 86, 110
8, 153059, Note_on_c, 6, 86, 0
8, 153059, Note_on_c, 6, 74, 0
8, 153096, Note_on_c, 6, 62, 100
8, 153096, Note_on_c, 6, 74, 100
8, 153108, Note_on_c, 6, 74, 0
8, 153108, Note_on_c, 6, 62, 0
8, 153120, Note_on_c, 6, 62, 100
8, 153120, Note_on_c, 6, 74, 100
8, 153144, Note_on_c, 6, 74, 0
8, 153144, Note_on_c, 6, 62, 0
8, 153456, Note_on_c, 6, 81, 50
8, 153480, Note_on_c, 6, 81, 0
8, 153600, Note_on_c, 6, 74, 50
8, 153624, Note_on_c, 6, 74, 0
8, 153744, Note_on_c, 6, 76, 50
8, 153768, Note_on_c, 6, 76, 0
8, 153888, Note_on_c, 6, 77, 50
8, 153912, Note_on_c, 6, 77, 0
8, 154032, Note_on_c, 6, 77, 50
8, 154056, Note_on_c, 6, 77, 0
8, 154176, Note_on_c, 6, 72, 50
8, 154200, Note_on_c, 6, 72, 0
8, 154320, Note_on_c, 6, 68, 50
8, 154344, Note_on_c, 6, 68, 0
8, 154464, Note_on_c, 6, 69, 50
8, 154488, Note_on_c, 6, 69, 0
8, 154608, Note_on_c, 6, 67, 50
8, 154632, Note_on_c, 6, 67, 0
8, 154752, Note_on_c, 6, 62, 50
8, 154776, Note_on_c, 6, 62, 0
8, 154896, Note_on_c, 6, 69, 50
8, 154920, Note_on_c, 6, 69, 0
8, 155040, Note_on_c, 6, 69, 50
8, 155064, Note_on_c, 6, 69, 0
8, 155184, Note_on_c, 6, 74, 50
8, 155208, Note_on_c, 6, 74, 0
8, 155328, Note_on_c, 6, 76, 50
8, 155352, Note_on_c, 6, 76, 0
8, 155472, Note_on_c, 6, 76, 50
8, 155496, Note_on_c, 6, 76, 0
8, 155616, Note_on_c, 6, 76, 50
8, 155640, Note_on_c, 6, 76, 0
8, 155760, Note_on_c, 6, 79, 50
8, 155784, Note_on_c, 6, 79, 0
8, 155904, Note_on_c, 6, 77, 50
8, 155928, Note_on_c, 6, 77, 0
8, 156048, Note_on_c, 6, 81, 50
8, 156072, Note_on_c, 6, 81, 0
8, 156192, Note_on_c, 6, 81, 50
8, 156216, Note_on_c, 6, 81, 0
8, 156336, Note_on_c, 6, 81, 50
8, 156360, Note_on_c, 6, 81, 0
8, 156480, Note_on_c, 6, 81, 50
8, 156504, Note_on_c, 6, 81, 0
8, 156624, Note_on_c, 6, 83, 50
8, 156648, Note_on_c, 6, 83, 0
8, 156768, Note_on_c, 6, 76, 50
8, 156792, Note_on_c, 6, 76, 0
8, 156912, Note_on_c, 6, 81, 55
8, 156936, Note_on_c, 6, 81, 0
8, 156960, Note_on_c, 6, 81, 50
8, 156984, Note_on_c, 6, 81, 0
8, 157008, Note_on_c, 6, 81, 50
8, 157032, Note_on_c, 6, 81, 0
8, 157056, Note_on_c, 6, 81, 55
8, 157080, Note_on_c, 6, 81, 0
8, 157104, Note_on_c, 6, 81, 50
8, 157128, Note_on_c, 6, 81, 0
8, 157152, Note_on_c, 6, 81, 50
8, 157176, Note_on_c, 6, 81, 0
8, 157200, Note_on_c, 6, 82, 55
8, 157224, Note_on_c, 6, 82, 0
8, 157248, Note_on_c, 6, 81, 50
8, 157272, Note_on_c, 6, 81, 0
8, 157296, Note_on_c, 6, 79, 50
8, 157320, Note_on_c, 6, 79, 0
8, 157344, Note_on_c, 6, 77, 55
8, 157368, Note_on_c, 6, 77, 0
8, 157392, Note_on_c, 6, 76, 50
8, 157416, Note_on_c, 6, 76, 0
8, 157440, Note_on_c, 6, 74, 50
8, 157464, Note_on_c, 6, 74, 0
8, 157488, Note_on_c, 6, 74, 50
8, 157488, Note_on_c, 6, 77, 50
8, 157512, Note_on_c, 6, 77, 0
8, 157512, Note_on_c, 6, 74, 0
8, 157632, Note_on_c, 6, 69, 50
8, 157632, Note_on_c, 6, 72, 50
8, 157656, Note_on_c, 6, 72, 0
8, 157656, Note_on_c, 6, 69, 0
8, 157776, Note_on_c, 6, 71, 50
8, 157776, Note_on_c, 6, 74, 50
8, 157800, Note_on_c, 6, 74, 0
8, 157800, Note_on_c, 6, 71, 0
8, 157920, Note_on_c, 6, 72, 50
8, 157920, Note_on_c, 6, 76, 50
8, 157944, Note_on_c, 6, 76, 0
8, 157944, Note_on_c, 6, 72, 0
8, 158064, Note_on_c, 6, 73, 55
8, 158088, Note_on_c, 6, 73, 0
8, 158112, Note_on_c, 6, 74, 50
8, 158136, Note_on_c, 6, 74, 0
8, 158160, Note_on_c, 6, 76, 50
8, 158184, Note_on_c, 6, 76, 0
8, 158208, Note_on_c, 6, 77, 55
8, 158232, Note_on_c, 6, 77, 0
8, 158256, Note_on_c, 6, 79, 50
8, 158280, Note_on_c, 6, 79, 0
8, 158304, Note_on_c, 6, 81, 50
8, 158328, Note_on_c, 6, 81, 0
8, 158352, Note_on_c, 6, 82, 55
8, 158376, Note_on_c, 6, 82, 0
8, 158400, Note_on_c, 6, 81, 50
8, 158424, Note_on_c, 6, 81, 0
8, 158448, Note_on_c, 6, 79, 50
8, 158472, Note_on_c, 6, 79, 0
8, 158496, Note_on_c, 6, 77, 55
8, 158520, Note_on_c, 6, 77, 0
8, 158544, Note_on_c, 6, 76, 50
8, 158568, Note_on_c, 6, 76, 0
8, 158592, Note_on_c, 6, 74, 50
8, 158616, Note_on_c, 6, 74, 0
8, 158640, Note_on_c, 6, 73, 50
8, 158664, Note_on_c, 6, 73, 0
8, 158688, Note_on_c, 6, 74, 51
8, 158712, Note_on_c, 6, 74, 0
8, 158736, Note_on_c, 6, 76, 53
8, 158760, Note_on_c, 6, 76, 0
8, 158784, Note_on_c, 6, 74, 55
8, 158808, Note_on_c, 6, 74, 0
8, 158832, Note_on_c, 6, 73, 56
8, 158856, Note_on_c, 6, 73, 0
8, 158880, Note_on_c, 6, 74, 58
8, 158904, Note_on_c, 6, 74, 0
8, 158928, Note_on_c, 6, 73, 60
8, 158952, Note_on_c, 6, 73, 0
8, 158976, Note_on_c, 6, 74, 61
8, 159000, Note_on_c, 6, 74, 0
8, 159024, Note_on_c, 6, 76, 63
8, 159048, Note_on_c, 6, 76, 0
8, 159072, Note_on_c, 6, 74, 65
8, 159096, Note_on_c, 6, 74, 0
8, 159120, Note_on_c, 6, 73, 66
8, 159144, Note_on_c, 6, 73, 0
8, 159168, Note_on_c, 6, 74, 68
8, 159192, Note_on_c, 6, 74, 0
8, 159216, Note_on_c, 6, 73, 70
8, 159240, Note_on_c, 6, 73, 0
8, 159264, Note_on_c, 6, 74, 71
8, 159288, Note_on_c, 6, 74, 0
8, 159312, Note_on_c, 6, 76, 73
8, 159336, Note_on_c, 6, 76, 0
8, 159360, Note_on_c, 6, 74, 75
8, 159384, Note_on_c, 6, 74, 0
8, 159408, Note_on_c, 6, 73, 77
8, 159432, Note_on_c, 6, 73, 0
8, 159456, Note_on_c, 6, 74, 78
8, 159480, Note_on_c, 6, 74, 0
8, 159504, Note_on_c, 6, 73, 80
8, 159504, Note_on_c, 6, 76, 80
8, 159528, Note_on_c, 6, 76, 0
8, 159528, Note_on_c, 6, 73, 0
8, 159552, Note_on_c, 6, 74, 82
8, 159552, Note_on_c, 6, 77, 82
8, 159576, Note_on_c, 6, 77, 0
8, 159576, Note_on_c, 6, 74, 0
8, 159600, Note_on_c, 6, 76, 83
8, 159600, Note_on_c, 6, 79, 83
8, 159624, Note_on_c, 6, 79, 0
8, 159624, Note_on_c, 6, 76, 0
8, 159648, Note_on_c, 6, 74, 85
8, 159648, Note_on_c, 6, 77, 85
8, 159672, Note_on_c, 6, 77, 0
8, 159672, Note_on_c, 6, 74, 0
8, 159696, Note_on_c, 6, 73, 87
8, 159696, Note_on_c, 6, 76, 87
8, 159720, Note_on_c, 6, 76, 0
8, 159720, Note_on_c, 6, 73, 0
8, 159744, Note_on_c, 6, 74, 88
8, 159744, Note_on_c, 6, 77, 88
8, 159768, Note_on_c, 6, 77, 0
8, 159768, Note_on_c, 6, 74, 0
8, 159792, Note_on_c, 6, 73, 90
8, 159792, Note_on_c, 6, 76, 90
8, 159816, Note_on_c, 6, 76, 0
8, 159816, Note_on_c, 6, 73, 0
8, 159840, Note_on_c, 6, 74, 92
8, 159840, Note_on_c, 6, 77, 92
8, 159864, Note_on_c, 6, 77, 0
8, 159864, Note_on_c, 6, 74, 0
8, 159888, Note_on_c, 6, 76, 93
8, 159888, Note_on_c, 6, 79, 93
8, 159912, Note_on_c, 6, 79, 0
8, 159912, Note_on_c, 6, 76, 0
8, 159936, Note_on_c, 6, 74, 95
8, 159936, Note_on_c, 6, 77, 95
8, 159960, Note_on_c, 6, 77, 0
8, 159960, Note_on_c, 6, 74, 0
8, 159984, Note_on_c, 6, 73, 97
8, 159984, Note_on_c, 6, 76, 97
8, 160008, Note_on_c, 6, 76, 0
8, 160008, Note_on_c, 6, 73, 0
8, 160032, Note_on_c, 6, 74, 98
8, 160032, Note_on_c, 6, 77, 98
8, 160056, Note_on_c, 6, 77, 0
8, 160056, Note_on_c, 6, 74, 0
8, 160080, Note_on_c, 6, 73, 100
8, 160080, Note_on_c, 6, 76, 100
8, 160104, Note_on_c, 6, 76, 0
8, 160104, Note_on_c, 6, 73, 0
8, 160128, Note_on_c, 6, 74, 102
8, 160128, Note_on_c, 6, 77, 102
8, 160152, Note_on_c, 6, 77, 0
8, 160152, Note_on_c, 6, 74, 0
8, 160176, Note_on_c, 6, 76, 104
8, 160176, Note_on_c, 6, 79, 104
8, 160200, Note_on_c, 6, 79, 0
8, 160200, Note_on_c, 6, 76, 0
8, 160224, Note_on_c, 6, 73, 105
8, 160224, Note_on_c, 6, 76, 105
8, 160248, Note_on_c, 6, 76, 0
8, 160248, Note_on_c, 6, 73, 0
8, 160272, Note_on_c, 6, 74, 107
8, 160272, Note_on_c, 6, 77, 107
8, 160296, Note_on_c, 6, 77, 0
8, 160296, Note_on_c, 6, 74, 0
8, 160320, Note_on_c, 6, 76, 109
8, 160320, Note_on_c, 6, 79, 109
8, 160344, Note_on_c, 6, 79, 0
8, 160344, Note_on_c, 6, 76, 0
8, 160368, Note_on_c, 6, 77, 115
8, 160368, Note_on_c, 6, 81, 115
8, 160403, Note_on_c, 6, 81, 0
8, 160403, Note_on_c, 6, 77, 0
8, 160440, Note_on_c, 6, 69, 110
8, 160452, Note_on_c, 6, 69, 0
8, 160464, Note_on_c, 6, 69, 110
8, 160488, Note_on_c, 6, 69, 0
8, 160512, Note_on_c, 6, 74, 115
8, 160512, Note_on_c, 6, 81, 115
8, 160536, Note_on_c, 6, 81, 0
8, 160536, Note_on_c, 6, 74, 0
8, 160560, Note_on_c, 6, 76, 110
8, 160560, Note_on_c, 6, 81, 110
8, 160584, Note_on_c, 6, 81, 0
8, 160584, Note_on_c, 6, 76, 0
8, 160608, Note_on_c, 6, 77, 110
8, 160608, Note_on_c, 6, 81, 110
8, 160632, Note_on_c, 6, 81, 0
8, 160632, Note_on_c, 6, 77, 0
8, 160656, Note_on_c, 6, 76, 115
8, 160656, Note_on_c, 6, 81, 115
8, 160680, Note_on_c, 6, 81, 0
8, 160680, Note_on_c, 6, 76, 0
8, 160704, Note_on_c, 6, 77, 110
8, 160704, Note_on_c, 6, 81, 110
8, 160728, Note_on_c, 6, 81, 0
8, 160728, Note_on_c, 6, 77, 0
8, 160752, Note_on_c, 6, 79, 110
8, 160752, Note_on_c, 6, 81, 110
8, 160776, Note_on_c, 6, 81, 0
8, 160776, Note_on_c, 6, 79, 0
8, 160800, Note_on_c, 6, 77, 115
8, 160800, Note_on_c, 6, 81, 115
8, 160824, Note_on_c, 6, 81, 0
8, 160824, Note_on_c, 6, 77, 0
8, 160848, Note_on_c, 6, 76, 110
8, 160848, Note_on_c, 6, 81, 110
8, 160872, Note_on_c, 6, 81, 0
8, 160872, Note_on_c, 6, 76, 0
8, 160896, Note_on_c, 6, 74, 110
8, 160896, Note_on_c, 6, 81, 110
8, 160920, Note_on_c, 6, 81, 0
8, 160920, Note_on_c, 6, 74, 0
8, 160944, Note_on_c, 6, 74, 115
8, 160944, Note_on_c, 6, 82, 115
8, 160968, Note_on_c, 6, 82, 0
8, 160968, Note_on_c, 6, 74, 0
8, 160992, Note_on_c, 6, 74, 110
8, 160992, Note_on_c, 6, 81, 110
8, 161016, Note_on_c, 6, 81, 0
8, 161016, Note_on_c, 6, 74, 0
8, 161040, Note_on_c, 6, 74, 110
8, 161040, Note_on_c, 6, 79, 110
8, 161064, Note_on_c, 6, 79, 0
8, 161064, Note_on_c, 6, 74, 0
8, 161088, Note_on_c, 6, 69, 115
8, 161088, Note_on_c, 6, 77, 115
8, 161112, Note_on_c, 6, 77, 0
8, 161112, Note_on_c, 6, 69, 0
8, 161136, Note_on_c, 6, 76, 110
8, 161136, Note_on_c, 6, 81, 110
8, 161160, Note_on_c, 6, 81, 0
8, 161160, Note_on_c, 6, 76, 0
8, 161184, Note_on_c, 6, 74, 110
8, 161184, Note_on_c, 6, 81, 110
8, 161208, Note_on_c, 6, 81, 0
8, 161208, Note_on_c, 6, 74, 0
8, 161232, Note_on_c, 6, 73, 115
8, 161232, Note_on_c, 6, 81, 115
8, 161256, Note_on_c, 6, 81, 0
8, 161256, Note_on_c, 6, 73, 0
8, 161280, Note_on_c, 6, 74, 110
8, 161280, Note_on_c, 6, 81, 110
8, 161304, Note_on_c, 6, 81, 0
8, 161304, Note_on_c, 6, 74, 0
8, 161328, Note_on_c, 6, 76, 110
8, 161328, Note_on_c, 6, 81, 110
8, 161352, Note_on_c, 6, 81, 0
8, 161352, Note_on_c, 6, 76, 0
8, 161376, Note_on_c, 6, 74, 115
8, 161376, Note_on_c, 6, 81, 115
8, 161400, Note_on_c, 6, 81, 0
8, 161400, Note_on_c, 6, 74, 0
8, 161424, Note_on_c, 6, 73, 110
8, 161424, Note_on_c, 6, 81, 110
8, 161448, Note_on_c, 6, 81, 0
8, 161448, Note_on_c, 6, 73, 0
8, 161472, Note_on_c, 6, 74, 110
8, 161472, Note_on_c, 6, 81, 110
8, 161496, Note_on_c, 6, 81, 0
8, 161496, Note_on_c, 6, 74, 0
8, 161520, Note_on_c, 6, 74, 115
8, 161520, Note_on_c, 6, 82, 115
8, 161544, Note_on_c, 6, 82, 0
8, 161544, Note_on_c, 6, 74, 0
8, 161568, Note_on_c, 6, 74, 110
8, 161568, Note_on_c, 6, 81, 110
8, 161592, Note_on_c, 6, 81, 0
8, 161592, Note_on_c, 6, 74, 0
8, 161616, Note_on_c, 6, 74, 110
8, 161616, Note_on_c, 6, 79, 110
8, 161640, Note_on_c, 6, 79, 0
8, 161640, Note_on_c, 6, 74, 0
8, 161664, Note_on_c, 6, 69, 115
8, 161664, Note_on_c, 6, 77, 115
8, 161688, Note_on_c, 6, 77, 0
8, 161688, Note_on_c, 6, 69, 0
8, 161712, Note_on_c, 6, 69, 110
8, 161712, Note_on_c, 6, 76, 110
8, 161736, Note_on_c, 6, 76, 0
8, 161736, Note_on_c, 6, 69, 0
8, 161760, Note_on_c, 6, 69, 110
8, 161760, Note_on_c, 6, 74, 110
8, 161784, Note_on_c, 6, 74, 0
8, 161784, Note_on_c, 6, 69, 0
8, 161808, Note_on_c, 6, 73, 115
8, 161808, Note_on_c, 6, 81, 115
8, 161832, Note_on_c, 6, 81, 0
8, 161832, Note_on_c, 6, 73, 0
8, 161856, Note_on_c, 6, 74, 110
8, 161856, Note_on_c, 6, 81, 110
8, 161880, Note_on_c, 6, 81, 0
8, 161880, Note_on_c, 6, 74, 0
8, 161904, Note_on_c, 6, 76, 110
8, 161904, Note_on_c, 6, 81, 110
8, 161928, Note_on_c, 6, 81, 0
8, 161928, Note_on_c, 6, 76, 0
8, 161952, Note_on_c, 6, 69, 115
8, 161952, Note_on_c, 6, 81, 115
8, 161976, Note_on_c, 6, 81, 0
8, 161976, Note_on_c, 6, 69, 0
8, 162000, Note_on_c, 6, 77, 110
8, 162000, Note_on_c, 6, 81, 110
8, 162024, Note_on_c, 6, 81, 0
8, 162024, Note_on_c, 6, 77, 0
8, 162048, Note_on_c, 6, 77, 110
8, 162048, Note_on_c, 6, 83, 110
8, 162072, Note_on_c, 6, 83, 0
8, 162072, Note_on_c, 6, 77, 0
8, 162096, Note_on_c, 6, 77, 115
8, 162096, Note_on_c, 6, 83, 115
8, 162120, Note_on_c, 6, 83, 0
8, 162120, Note_on_c, 6, 77, 0
8, 162144, Note_on_c, 6, 71, 110
8, 162144, Note_on_c, 6, 77, 110
8, 162168, Note_on_c, 6, 77, 0
8, 162168, Note_on_c, 6, 71, 0
8, 162192, Note_on_c, 6, 74, 110
8, 162192, Note_on_c, 6, 77, 110
8, 162216, Note_on_c, 6, 77, 0
8, 162216, Note_on_c, 6, 74, 0
8, 162240, Note_on_c, 6, 67, 115
8, 162240, Note_on_c, 6, 76, 115
8, 162264, Note_on_c, 6, 76, 0
8, 162264, Note_on_c, 6, 67, 0
8, 162288, Note_on_c, 6, 74, 110
8, 162288, Note_on_c, 6, 79, 110
8, 162312, Note_on_c, 6, 79, 0
8, 162312, Note_on_c, 6, 74, 0
8, 162336, Note_on_c, 6, 72, 110
8, 162336, Note_on_c, 6, 79, 110
8, 162360, Note_on_c, 6, 79, 0
8, 162360, Note_on_c, 6, 72, 0
8, 162384, Note_on_c, 6, 71, 115
8, 162384, Note_on_c, 6, 79, 115
8, 162408, Note_on_c, 6, 79, 0
8, 162408, Note_on_c, 6, 71, 0
8, 162432, Note_on_c, 6, 72, 110
8, 162432, Note_on_c, 6, 79, 110
8, 162456, Note_on_c, 6, 79, 0
8, 162456, Note_on_c, 6, 72, 0
8, 162480, Note_on_c, 6, 74, 110
8, 162480, Note_on_c, 6, 79, 110
8, 162504, Note_on_c, 6, 79, 0
8, 162504, Note_on_c, 6, 74, 0
8, 162528, Note_on_c, 6, 72, 115
8, 162528, Note_on_c, 6, 79, 115
8, 162552, Note_on_c, 6, 79, 0
8, 162552, Note_on_c, 6, 72, 0
8, 162576, Note_on_c, 6, 71, 110
8, 162576, Note_on_c, 6, 81, 110
8, 162600, Note_on_c, 6, 81, 0
8, 162600, Note_on_c, 6, 71, 0
8, 162624, Note_on_c, 6, 71, 110
8, 162624, Note_on_c, 6, 81, 110
8, 162648, Note_on_c, 6, 81, 0
8, 162648, Note_on_c, 6, 71, 0
8, 162672, Note_on_c, 6, 71, 115
8, 162672, Note_on_c, 6, 81, 115
8, 162696, Note_on_c, 6, 81, 0
8, 162696, Note_on_c, 6, 71, 0
8, 162720, Note_on_c, 6, 71, 110
8, 162720, Note_on_c, 6, 79, 110
8, 162744, Note_on_c, 6, 79, 0
8, 162744, Note_on_c, 6, 71, 0
8, 162768, Note_on_c, 6, 74, 110
8, 162768, Note_on_c, 6, 77, 110
8, 162792, Note_on_c, 6, 77, 0
8, 162792, Note_on_c, 6, 74, 0
8, 162816, Note_on_c, 6, 72, 115
8, 162816, Note_on_c, 6, 76, 115
8, 162840, Note_on_c, 6, 76, 0
8, 162840, Note_on_c, 6, 72, 0
8, 162864, Note_on_c, 6, 71, 110
8, 162864, Note_on_c, 6, 79, 110
8, 162888, Note_on_c, 6, 79, 0
8, 162888, Note_on_c, 6, 71, 0
8, 162912, Note_on_c, 6, 72, 110
8, 162912, Note_on_c, 6, 79, 110
8, 162936, Note_on_c, 6, 79, 0
8, 162936, Note_on_c, 6, 72, 0
8, 162960, Note_on_c, 6, 76, 115
8, 162960, Note_on_c, 6, 79, 115
8, 162984, Note_on_c, 6, 79, 0
8, 162984, Note_on_c, 6, 76, 0
8, 163008, Note_on_c, 6, 74, 110
8, 163008, Note_on_c, 6, 79, 110
8, 163032, Note_on_c, 6, 79, 0
8, 163032, Note_on_c, 6, 74, 0
8, 163056, Note_on_c, 6, 72, 110
8, 163056, Note_on_c, 6, 79, 110
8, 163080, Note_on_c, 6, 79, 0
8, 163080, Note_on_c, 6, 72, 0
8, 163104, Note_on_c, 6, 76, 115
8, 163104, Note_on_c, 6, 79, 115
8, 163128, Note_on_c, 6, 79, 0
8, 163128, Note_on_c, 6, 76, 0
8, 163152, Note_on_c, 6, 74, 110
8, 163152, Note_on_c, 6, 79, 110
8, 163176, Note_on_c, 6, 79, 0
8, 163176, Note_on_c, 6, 74, 0
8, 163200, Note_on_c, 6, 72, 110
8, 163200, Note_on_c, 6, 79, 110
8, 163224, Note_on_c, 6, 79, 0
8, 163224, Note_on_c, 6, 72, 0
8, 163248, Control_c, 6, 1, 0
8, 163248, Note_on_c, 6, 79, 110
8, 163249, Control_c, 6, 1, 1
8, 163250, Control_c, 6, 1, 2
8, 163251, Control_c, 6, 1, 3
8, 163252, Control_c, 6, 1, 4
8, 163254, Control_c, 6, 1, 5
8, 163256, Control_c, 6, 1, 6
8, 163258, Control_c, 6, 1, 7
8, 163259, Control_c, 6, 1, 8
8, 163262, Control_c, 6, 1, 9
8, 163264, Control_c, 6, 1, 10
8, 163267, Control_c, 6, 1, 11
8, 163269, Control_c, 6, 1, 12
8, 163272, Control_c, 6, 11, 60
8, 163272, Control_c, 6, 1, 13
8, 163276, Control_c, 6, 1, 14
8, 163280, Control_c, 6, 1, 15
8, 163285, Control_c, 6, 1, 16
8, 163290, Control_c, 6, 11, 61
8, 163290, Control_c, 6, 1, 17
8, 163297, Control_c, 6, 1, 18
8, 163307, Control_c, 6, 11, 62
8, 163308, Control_c, 6, 1, 19
8, 163325, Control_c, 6, 11, 63
8, 163326, Control_c, 6, 1, 20
8, 163342, Control_c, 6, 11, 64
8, 163359, Control_c, 6, 11, 65
8, 163377, Control_c, 6, 11, 66
8, 163394, Control_c, 6, 11, 67
8, 163411, Control_c, 6, 11, 68
8, 163429, Control_c, 6, 11, 69
8, 163446, Control_c, 6, 11, 70
8, 163464, Control_c, 6, 11, 71
8, 163481, Control_c, 6, 11, 72
8, 163498, Control_c, 6, 11, 73
8, 163516, Control_c, 6, 11, 74
8, 163533, Control_c, 6, 11, 75
8, 163536, Note_on_c, 6, 81, 110
8, 163550, Control_c, 6, 11, 76
8, 163568, Control_c, 6, 11, 77
8, 163585, Control_c, 6, 11, 78
8, 163603, Control_c, 6, 11, 79
8, 163620, Control_c, 6, 11, 80
8, 163637, Control_c, 6, 11, 81
8, 163655, Control_c, 6, 11, 82
8, 163672, Control_c, 6, 11, 83
8, 163680, Note_on_c, 6, 77, 110
8, 163681, Note_on_c, 6, 79, 0
8, 163689, Control_c, 6, 11, 84
8, 163707, Control_c, 6, 11, 85
8, 163724, Control_c, 6, 11, 86
8, 163742, Control_c, 6, 11, 87
8, 163759, Control_c, 6, 11, 88
8, 163776, Control_c, 6, 11, 89
8, 163794, Control_c, 6, 11, 90
8, 163811, Control_c, 6, 11, 91
8, 163824, Note_on_c, 6, 80, 110
8, 163825, Note_on_c, 6, 81, 0
8, 163828, Control_c, 6, 11, 92
8, 163846, Control_c, 6, 11, 93
8, 163863, Control_c, 6, 11, 94
8, 163881, Control_c, 6, 11, 95
8, 163898, Control_c, 6, 11, 96
8, 163915, Control_c, 6, 11, 97
8, 163933, Control_c, 6, 11, 98
8, 163950, Control_c, 6, 11, 99
8, 163967, Control_c, 6, 11, 100
8, 163968, Control_c, 6, 11, 100
8, 163968, Note_on_c, 6, 76, 110
8, 163968, Note_on_c, 6, 79, 110
8, 163969, Note_on_c, 6, 80, 0
8, 163969, Note_on_c, 6, 77, 0
8, 163979, Control_c, 6, 11, 99
8, 163990, Control_c, 6, 11, 98
8, 164001, Control_c, 6, 11, 97
8, 164012, Control_c, 6, 11, 96
8, 164022, Control_c, 6, 11, 95
8, 164033, Control_c, 6, 11, 94
8, 164044, Control_c, 6, 11, 93
8, 164055, Control_c, 6, 11, 92
8, 164065, Control_c, 6, 11, 91
8, 164076, Control_c, 6, 11, 90
8, 164087, Control_c, 6, 11, 89
8, 164098, Control_c, 6, 11, 88
8, 164109, Control_c, 6, 11, 87
8, 164112, Note_on_c, 6, 75, 110
8, 164113, Note_on_c, 6, 76, 0
8, 164119, Control_c, 6, 11, 86
8, 164130, Control_c, 6, 11, 85
8, 164141, Control_c, 6, 11, 84
8, 164152, Control_c, 6, 11, 83
8, 164162, Control_c, 6, 11, 82
8, 164173, Control_c, 6, 11, 81
8, 164184, Control_c, 6, 11, 80
8, 164195, Control_c, 6, 11, 79
8, 164206, Control_c, 6, 11, 78
8, 164216, Control_c, 6, 11, 77
8, 164227, Control_c, 6, 11, 76
8, 164238, Control_c, 6, 11, 75
8, 164249, Control_c, 6, 11, 74
8, 164256, Note_on_c, 6, 74, 110
8, 164257, Note_on_c, 6, 75, 0
8, 164259, Control_c, 6, 11, 73
8, 164270, Control_c, 6, 11, 72
8, 164281, Control_c, 6, 11, 71
8, 164292, Control_c, 6, 11, 70
8, 164303, Control_c, 6, 11, 69
8, 164313, Control_c, 6, 11, 68
8, 164324, Control_c, 6, 11, 67
8, 164335, Control_c, 6, 11, 66
8, 164346, Control_c, 6, 11, 65
8, 164356, Control_c, 6, 11, 64
8, 164367, Control_c, 6, 11, 63
8, 164378, Control_c, 6, 11, 62
8, 164389, Control_c, 6, 11, 61
8, 164399, Note_on_c, 6, 79, 0
8, 164399, Note_on_c, 6, 74, 0
8, 164399, Control_c, 6, 11, 60
8, 164400, Control_c, 6, 1, 0
8, 164400, Control_c, 6, 11, 60
8, 164400, Note_on_c, 6, 79, 110
8, 164401, Control_c, 6, 1, 1
8, 164402, Control_c, 6, 1, 2
8, 164403, Control_c, 6, 1, 3
8, 164404, Control_c, 6, 1, 4
8, 164406, Control_c, 6, 1, 5
8, 164408, Control_c, 6, 1, 6
8, 164409, Control_c, 6, 1, 7
8, 164411, Control_c, 6, 1, 8
8, 164413, Control_c, 6, 1, 9
8, 164416, Control_c, 6, 1, 10
8, 164418, Control_c, 6, 1, 11
8, 164420, Control_c, 6, 11, 61
8, 164421, Control_c, 6, 1, 12
8, 164424, Control_c, 6, 1, 13
8, 164427, Control_c, 6, 1, 14
8, 164431, Control_c, 6, 1, 15
8, 164436, Control_c, 6, 1, 16
8, 164439, Control_c, 6, 11, 62
8, 164441, Control_c, 6, 1, 17
8, 164449, Control_c, 6, 1, 18
8, 164458, Control_c, 6, 11, 63
8, 164459, Control_c, 6, 1, 19
8, 164477, Control_c, 6, 11, 64
8, 164477, Control_c, 6, 1, 20
8, 164496, Control_c, 6, 11, 65
8, 164516, Control_c, 6, 11, 66
8, 164535, Control_c, 6, 11, 67
8, 164554, Control_c, 6, 11, 68
8, 164573, Control_c, 6, 11, 69
8, 164592, Control_c, 6, 11, 70
8, 164612, Control_c, 6, 11, 71
8, 164631, Control_c, 6, 11, 72
8, 164650, Control_c, 6, 11, 73
8, 164669, Control_c, 6, 11, 74
8, 164688, Note_on_c, 6, 81, 110
8, 164688, Control_c, 6, 11, 75
8, 164707, Control_c, 6, 11, 76
8, 164727, Control_c, 6, 11, 77
8, 164746, Control_c, 6, 11, 78
8, 164765, Control_c, 6, 11, 79
8, 164784, Control_c, 6, 11, 80
8, 164803, Control_c, 6, 11, 81
8, 164823, Control_c, 6, 11, 82
8, 164832, Note_on_c, 6, 77, 110
8, 164833, Note_on_c, 6, 79, 0
8, 164842, Control_c, 6, 11, 83
8, 164861, Control_c, 6, 11, 84
8, 164880, Control_c, 6, 11, 85
8, 164899, Control_c, 6, 11, 86
8, 164918, Control_c, 6, 11, 87
8, 164938, Control_c, 6, 11, 88
8, 164957, Control_c, 6, 11, 89
8, 164976, Note_on_c, 6, 71, 110
8, 164976, Note_on_c, 6, 80, 110
8, 164976, Control_c, 6, 11, 90
8, 164977, Note_on_c, 6, 81, 0
8, 164977, Note_on_c, 6, 77, 0
8, 164995, Control_c, 6, 11, 91
8, 165014, Control_c, 6, 11, 92
8, 165034, Control_c, 6, 11, 93
8, 165053, Control_c, 6, 11, 94
8, 165072, Control_c, 6, 11, 95
8, 165091, Control_c, 6, 11, 96
8, 165110, Control_c, 6, 11, 97
8, 165120, Note_on_c, 6, 72, 110
8, 165120, Note_on_c, 6, 79, 110
8, 165121, Note_on_c, 6, 80, 0
8, 165121, Note_on_c, 6, 71, 0
8, 165129, Control_c, 6, 11, 98
8, 165149, Control_c, 6, 11, 99
8, 165168, Control_c, 6, 11, 100
8, 165187, Control_c, 6, 11, 101
8, 165206, Control_c, 6, 11, 102
8, 165225, Control_c, 6, 11, 103
8, 165245, Control_c, 6, 11, 104
8, 165264, Control_c, 6, 11, 105
8, 165283, Control_c, 6, 11, 106
8, 165302, Control_c, 6, 11, 107
8, 165321, Control_c, 6, 11, 108
8, 165340, Control_c, 6, 11, 109
8, 165360, Control_c, 6, 11, 110
8, 165379, Control_c, 6, 11, 111
8, 165398, Control_c, 6, 11, 112
8, 165408, Note_on_c, 6, 71, 110
8, 165409, Note_on_c, 6, 72, 0
8, 165417, Control_c, 6, 11, 113
8, 165436, Control_c, 6, 11, 114
8, 165456, Control_c, 6, 11, 115
8, 165475, Control_c, 6, 11, 116
8, 165494, Control_c, 6, 11, 117
8, 165513, Control_c, 6, 11, 118
8, 165532, Control_c, 6, 11, 119
8, 165551, Note_on_c, 6, 79, 0
8, 165551, Note_on_c, 6, 71, 0
8, 165551, Control_c, 6, 11, 120
8, 165552, Control_c, 6, 1, 0
8, 165552, Note_on_c, 6, 64, 113
8, 165552, Note_on_c, 6, 72, 113
8, 165648, Note_on_c, 6, 72, 0
8, 165648, Note_on_c, 6, 64, 0
8, 165648, Note_on_c, 6, 65, 110
8, 165648, Note_on_c, 6, 74, 110
8, 165672, Note_on_c, 6, 74, 0
8, 165672, Note_on_c, 6, 65, 0
8, 165672, Note_on_c, 6, 67, 112
8, 165672, Note_on_c, 6, 76, 112
8, 165696, Note_on_c, 6, 76, 0
8, 165696, Note_on_c, 6, 67, 0
8, 165696, Note_on_c, 6, 69, 113
8, 165696, Note_on_c, 6, 77, 113
8, 165720, Note_on_c, 6, 77, 0
8, 165720, Note_on_c, 6, 69, 0
8, 165792, Note_on_c, 6, 67, 110
8, 165792, Note_on_c, 6, 76, 110
8, 165816, Note_on_c, 6, 76, 0
8, 165816, Note_on_c, 6, 67, 0
8, 165840, Note_on_c, 6, 65, 112
8, 165840, Note_on_c, 6, 74, 113
8, 165864, Note_on_c, 6, 74, 0
8, 165864, Note_on_c, 6, 65, 0
8, 165936, Note_on_c, 6, 64, 110
8, 165936, Note_on_c, 6, 72, 110
8, 165960, Note_on_c, 6, 72, 0
8, 165960, Note_on_c, 6, 64, 0
8, 165984, Note_on_c, 6, 65, 113
8, 165984, Note_on_c, 6, 74, 113
8, 166008, Note_on_c, 6, 74, 0
8, 166008, Note_on_c, 6, 65, 0
8, 166080, Note_on_c, 6, 62, 110
8, 166080, Note_on_c, 6, 71, 110
8, 166104, Note_on_c, 6, 71, 0
8, 166104, Note_on_c, 6, 62, 0
8, 166128, Note_on_c, 6, 72, 113
8, 166128, Note_on_c, 6, 76, 113
8, 166224, Note_on_c, 6, 76, 0
8, 166224, Note_on_c, 6, 72, 0
8, 166224, Note_on_c, 6, 74, 110
8, 166224, Note_on_c, 6, 77, 110
8, 166248, Note_on_c, 6, 77, 0
8, 166248, Note_on_c, 6, 74, 0
8, 166248, Note_on_c, 6, 76, 111
8, 166248, Note_on_c, 6, 79, 111
8, 166272, Note_on_c, 6, 79, 0
8, 166272, Note_on_c, 6, 76, 0
8, 166272, Note_on_c, 6, 77, 113
8, 166272, Note_on_c, 6, 81, 113
8, 166296, Note_on_c, 6, 81, 0
8, 166296, Note_on_c, 6, 77, 0
8, 166368, Note_on_c, 6, 76, 110
8, 166368, Note_on_c, 6, 79, 110
8, 166392, Note_on_c, 6, 79, 0
8, 166392, Note_on_c, 6, 76, 0
8, 166416, Note_on_c, 6, 74, 113
8, 166416, Note_on_c, 6, 77, 113
8, 166440, Note_on_c, 6, 77, 0
8, 166440, Note_on_c, 6, 74, 0
8, 166512, Note_on_c, 6, 72, 110
8, 166512, Note_on_c, 6, 76, 110
8, 166536, Note_on_c, 6, 76, 0
8, 166536, Note_on_c, 6, 72, 0
8, 166560, Note_on_c, 6, 74, 113
8, 166560, Note_on_c, 6, 77, 113
8, 166584, Note_on_c, 6, 77, 0
8, 166584, Note_on_c, 6, 74, 0
8, 166656, Note_on_c, 6, 71, 110
8, 166656, Note_on_c, 6, 74, 110
8, 166680, Note_on_c, 6, 74, 0
8, 166680, Note_on_c, 6, 71, 0
8, 166704, Note_on_c, 6, 64, 113
8, 166704, Note_on_c, 6, 72, 113
8, 166728, Note_on_c, 6, 72, 0
8, 166728, Note_on_c, 6, 64, 0
8, 166752, Note_on_c, 6, 64, 110
8, 166752, Note_on_c, 6, 72, 110
8, 166800, Note_on_c, 6, 72, 0
8, 166800, Note_on_c, 6, 64, 0
8, 166800, Note_on_c, 6, 65, 111
8, 166800, Note_on_c, 6, 74, 111
8, 166824, Note_on_c, 6, 74, 0
8, 166824, Note_on_c, 6, 65, 0
8, 166824, Note_on_c, 6, 67, 112
8, 166824, Note_on_c, 6, 76, 112
8, 166848, Note_on_c, 6, 76, 0
8, 166848, Note_on_c, 6, 67, 0
8, 166848, Note_on_c, 6, 69, 113
8, 166848, Note_on_c, 6, 77, 113
8, 166872, Note_on_c, 6, 77, 0
8, 166872, Note_on_c, 6, 69, 0
8, 166896, Note_on_c, 6, 69, 110
8, 166896, Note_on_c, 6, 77, 110
8, 166920, Note_on_c, 6, 77, 0
8, 166920, Note_on_c, 6, 69, 0
8, 166944, Note_on_c, 6, 67, 110
8, 166944, Note_on_c, 6, 76, 110
8, 166968, Note_on_c, 6, 76, 0
8, 166968, Note_on_c, 6, 67, 0
8, 166992, Note_on_c, 6, 65, 113
8, 166992, Note_on_c, 6, 74, 113
8, 167016, Note_on_c, 6, 74, 0
8, 167016, Note_on_c, 6, 65, 0
8, 167040, Note_on_c, 6, 65, 110
8, 167040, Note_on_c, 6, 74, 110
8, 167064, Note_on_c, 6, 74, 0
8, 167064, Note_on_c, 6, 65, 0
8, 167088, Note_on_c, 6, 64, 110
8, 167088, Note_on_c, 6, 72, 110
8, 167112, Note_on_c, 6, 72, 0
8, 167112, Note_on_c, 6, 64, 0
8, 167136, Note_on_c, 6, 65, 113
8, 167136, Note_on_c, 6, 74, 113
8, 167160, Note_on_c, 6, 74, 0
8, 167160, Note_on_c, 6, 65, 0
8, 167184, Note_on_c, 6, 65, 110
8, 167184, Note_on_c, 6, 74, 110
8, 167208, Note_on_c, 6, 74, 0
8, 167208, Note_on_c, 6, 65, 0
8, 167232, Note_on_c, 6, 62, 110
8, 167232, Note_on_c, 6, 71, 110
8, 167256, Note_on_c, 6, 71, 0
8, 167256, Note_on_c, 6, 62, 0
8, 167280, Note_on_c, 6, 72, 113
8, 167280, Note_on_c, 6, 76, 113
8, 167304, Note_on_c, 6, 76, 0
8, 167304, Note_on_c, 6, 72, 0
8, 167328, Note_on_c, 6, 72, 110
8, 167328, Note_on_c, 6, 76, 110
8, 167376, Note_on_c, 6, 76, 0
8, 167376, Note_on_c, 6, 72, 0
8, 167376, Note_on_c, 6, 74, 111
8, 167376, Note_on_c, 6, 77, 111
8, 167400, Note_on_c, 6, 77, 0
8, 167400, Note_on_c, 6, 74, 0
8, 167400, Note_on_c, 6, 76, 112
8, 167400, Note_on_c, 6, 79, 112
8, 167424, Note_on_c, 6, 79, 0
8, 167424, Note_on_c, 6, 76, 0
8, 167424, Note_on_c, 6, 77, 113
8, 167424, Note_on_c, 6, 81, 113
8, 167448, Note_on_c, 6, 81, 0
8, 167448, Note_on_c, 6, 77, 0
8, 167472, Note_on_c, 6, 77, 110
8, 167472, Note_on_c, 6, 81, 110
8, 167496, Note_on_c, 6, 81, 0
8, 167496, Note_on_c, 6, 77, 0
8, 167520, Note_on_c, 6, 76, 110
8, 167520, Note_on_c, 6, 79, 110
8, 167544, Note_on_c, 6, 79, 0
8, 167544, Note_on_c, 6, 76, 0
8, 167568, Note_on_c, 6, 74, 113
8, 167568, Note_on_c, 6, 77, 113
8, 167592, Note_on_c, 6, 77, 0
8, 167592, Note_on_c, 6, 74, 0
8, 167616, Note_on_c, 6, 74, 110
8, 167616, Note_on_c, 6, 77, 110
8, 167640, Note_on_c, 6, 77, 0
8, 167640, Note_on_c, 6, 74, 0
8, 167664, Note_on_c, 6, 76, 110
8, 167664, Note_on_c, 6, 84, 110
8, 167688, Note_on_c, 6, 84, 0
8, 167688, Note_on_c, 6, 76, 0
8, 167712, Note_on_c, 6, 77, 113
8, 167712, Note_on_c, 6, 86, 113
8, 167736, Note_on_c, 6, 86, 0
8, 167736, Note_on_c, 6, 77, 0
8, 167760, Note_on_c, 6, 77, 110
8, 167760, Note_on_c, 6, 86, 110
8, 167784, Note_on_c, 6, 86, 0
8, 167784, Note_on_c, 6, 77, 0
8, 167808, Note_on_c, 6, 74, 110
8, 167808, Note_on_c, 6, 83, 110
8, 167832, Note_on_c, 6, 83, 0
8, 167832, Note_on_c, 6, 74, 0
8, 167856, Note_on_c, 6, 76, 120
8, 167891, Note_on_c, 6, 76, 0
8, 167928, Note_on_c, 6, 64, 113
8, 167940, Note_on_c, 6, 64, 0
8, 167952, Note_on_c, 6, 64, 113
8, 167976, Note_on_c, 6, 64, 0
8, 168000, Note_on_c, 6, 64, 116
8, 168000, Note_on_c, 6, 76, 116
8, 168024, Note_on_c, 6, 76, 0
8, 168024, Note_on_c, 6, 64, 0
8, 168048, Note_on_c, 6, 65, 113
8, 168048, Note_on_c, 6, 77, 113
8, 168072, Note_on_c, 6, 77, 0
8, 168072, Note_on_c, 6, 65, 0
8, 168096, Note_on_c, 6, 67, 113
8, 168096, Note_on_c, 6, 79, 113
8, 168120, Note_on_c, 6, 79, 0
8, 168120, Note_on_c, 6, 67, 0
8, 168144, Note_on_c, 6, 69, 116
8, 168144, Note_on_c, 6, 81, 116
8, 168168, Note_on_c, 6, 81, 0
8, 168168, Note_on_c, 6, 69, 0
8, 168288, Note_on_c, 6, 69, 116
8, 168288, Note_on_c, 6, 81, 116
8, 168312, Note_on_c, 6, 81, 0
8, 168312, Note_on_c, 6, 69, 0
8, 168336, Note_on_c, 6, 71, 113
8, 168336, Note_on_c, 6, 83, 113
8, 168360, Note_on_c, 6, 83, 0
8, 168360, Note_on_c, 6, 71, 0
8, 168384, Note_on_c, 6, 72, 113
8, 168384, Note_on_c, 6, 84, 113
8, 168408, Note_on_c, 6, 84, 0
8, 168408, Note_on_c, 6, 72, 0
8, 168432, Note_on_c, 6, 74, 120
8, 168432, Note_on_c, 6, 86, 120
8, 168467, Note_on_c, 6, 86, 0
8, 168467, Note_on_c, 6, 74, 0
8, 168504, Note_on_c, 6, 62, 113
8, 168504, Note_on_c, 6, 74, 113
8, 168516, Note_on_c, 6, 74, 0
8, 168516, Note_on_c, 6, 62, 0
8, 168528, Note_on_c, 6, 62, 113
8, 168528, Note_on_c, 6, 74, 113
8, 168552, Note_on_c, 6, 74, 0
8, 168552, Note_on_c, 6, 62, 0
8, 168576, Note_on_c, 6, 62, 116
8, 168576, Note_on_c, 6, 74, 116
8, 168600, Note_on_c, 6, 74, 0
8, 168600, Note_on_c, 6, 62, 0
8, 168624, Note_on_c, 6, 64, 113
8, 168624, Note_on_c, 6, 76, 113
8, 168648, Note_on_c, 6, 76, 0
8, 168648, Note_on_c, 6, 64, 0
8, 168672, Note_on_c, 6, 65, 113
8, 168672, Note_on_c, 6, 77, 113
8, 168696, Note_on_c, 6, 77, 0
8, 168696, Note_on_c, 6, 65, 0
8, 168720, Note_on_c, 6, 67, 116
8, 168720, Note_on_c, 6, 79, 116
8, 168744, Note_on_c, 6, 79, 0
8, 168744, Note_on_c, 6, 67, 0
8, 168864, Note_on_c, 6, 67, 116
8, 168864, Note_on_c, 6, 79, 116
8, 168888, Note_on_c, 6, 79, 0
8, 168888, Note_on_c, 6, 67, 0
8, 168912, Note_on_c, 6, 72, 113
8, 168912, Note_on_c, 6, 84, 113
8, 168936, Note_on_c, 6, 84, 0
8, 168936, Note_on_c, 6, 72, 0
8, 168960, Note_on_c, 6, 74, 113
8, 168960, Note_on_c, 6, 86, 113
8, 168984, Note_on_c, 6, 86, 0
8, 168984, Note_on_c, 6, 74, 0
8, 169008, Note_on_c, 6, 72, 60
8, 169008, Note_on_c, 6, 84, 60
8, 169032, Note_on_c, 6, 84, 0
8, 169032, Note_on_c, 6, 72, 0
8, 169870, Control_c, 6, 11, 60
8, 169871, Control_c, 6, 1, 0
8, 169872, Note_on_c, 6, 72, 100
8, 169872, Note_on_c, 6, 77, 100
8, 169873, Control_c, 6, 1, 1
8, 169874, Control_c, 6, 1, 2
8, 169875, Control_c, 6, 1, 3
8, 169876, Control_c, 6, 1, 4
8, 169878, Control_c, 6, 1, 5
8, 169880, Control_c, 6, 1, 6
8, 169881, Control_c, 6, 1, 7
8, 169882, Control_c, 6, 11, 61
8, 169883, Control_c, 6, 1, 8
8, 169885, Control_c, 6, 1, 9
8, 169888, Control_c, 6, 1, 10
8, 169890, Control_c, 6, 1, 11
8, 169892, Control_c, 6, 11, 62
8, 169893, Control_c, 6, 1, 12
8, 169896, Control_c, 6, 1, 13
8, 169899, Control_c, 6, 1, 14
8, 169901, Control_c, 6, 11, 63
8, 169903, Control_c, 6, 1, 15
8, 169908, Control_c, 6, 1, 16
8, 169911, Control_c, 6, 11, 64
8, 169913, Control_c, 6, 1, 17
8, 169920, Control_c, 6, 11, 65
8, 169921, Control_c, 6, 1, 18
8, 169930, Control_c, 6, 11, 66
8, 169931, Control_c, 6, 1, 19
8, 169940, Control_c, 6, 11, 67
8, 169949, Control_c, 6, 11, 68
8, 169949, Control_c, 6, 1, 20
8, 169959, Control_c, 6, 11, 69
8, 169968, Control_c, 6, 11, 70
8, 169978, Control_c, 6, 11, 71
8, 169987, Control_c, 6, 11, 72
8, 169997, Control_c, 6, 11, 73
8, 170007, Control_c, 6, 11, 74
8, 170016, Note_on_c, 6, 77, 0
8, 170016, Note_on_c, 6, 76, 100
8, 170016, Control_c, 6, 11, 75
8, 170026, Control_c, 6, 11, 76
8, 170035, Control_c, 6, 11, 77
8, 170045, Control_c, 6, 11, 78
8, 170055, Control_c, 6, 11, 79
8, 170064, Control_c, 6, 11, 80
8, 170074, Control_c, 6, 11, 81
8, 170083, Control_c, 6, 11, 82
8, 170093, Control_c, 6, 11, 83
8, 170102, Control_c, 6, 11, 84
8, 170112, Control_c, 6, 11, 85
8, 170122, Control_c, 6, 11, 86
8, 170131, Control_c, 6, 11, 87
8, 170141, Control_c, 6, 11, 88
8, 170150, Control_c, 6, 11, 89
8, 170160, Note_on_c, 6, 76, 0
8, 170160, Note_on_c, 6, 76, 100
8, 170160, Control_c, 6, 11, 90
8, 170170, Control_c, 6, 11, 91
8, 170179, Control_c, 6, 11, 92
8, 170189, Control_c, 6, 11, 93
8, 170198, Control_c, 6, 11, 94
8, 170208, Control_c, 6, 11, 95
8, 170217, Control_c, 6, 11, 96
8, 170227, Control_c, 6, 11, 97
8, 170237, Control_c, 6, 11, 98
8, 170246, Control_c, 6, 11, 99
8, 170256, Control_c, 6, 11, 100
8, 170265, Control_c, 6, 11, 101
8, 170275, Control_c, 6, 11, 102
8, 170285, Control_c, 6, 11, 103
8, 170294, Control_c, 6, 11, 104
8, 170304, Control_c, 6, 11, 105
8, 170313, Control_c, 6, 11, 106
8, 170323, Control_c, 6, 11, 107
8, 170332, Control_c, 6, 11, 108
8, 170342, Control_c, 6, 11, 109
8, 170352, Note_on_c, 6, 76, 0
8, 170352, Note_on_c, 6, 72, 0
8, 170352, Note_on_c, 6, 74, 100
8, 170352, Note_on_c, 6, 77, 100
8, 170352, Control_c, 6, 11, 110
8, 170361, Control_c, 6, 11, 111
8, 170371, Control_c, 6, 11, 112
8, 170380, Control_c, 6, 11, 113
8, 170390, Control_c, 6, 11, 114
8, 170400, Note_on_c, 6, 77, 0
8, 170400, Note_on_c, 6, 74, 0
8, 170400, Note_on_c, 6, 76, 100
8, 170400, Note_on_c, 6, 79, 100
8, 170400, Control_c, 6, 11, 115
8, 170409, Control_c, 6, 11, 116
8, 170419, Control_c, 6, 11, 117
8, 170428, Control_c, 6, 11, 118
8, 170438, Control_c, 6, 11, 119
8, 170447, Control_c, 6, 11, 120
8, 170448, Note_on_c, 6, 79, 0
8, 170448, Note_on_c, 6, 76, 0
8, 170448, Control_c, 6, 1, 0
8, 170448, Note_on_c, 6, 67, 105
8, 170448, Note_on_c, 6, 79, 105
8, 170472, Note_on_c, 6, 79, 0
8, 170472, Note_on_c, 6, 67, 0
8, 170496, Note_on_c, 6, 64, 100
8, 170496, Note_on_c, 6, 76, 100
8, 170520, Note_on_c, 6, 76, 0
8, 170520, Note_on_c, 6, 64, 0
8, 170544, Note_on_c, 6, 69, 100
8, 170544, Note_on_c, 6, 81, 100
8, 170568, Note_on_c, 6, 81, 0
8, 170568, Note_on_c, 6, 69, 0
8, 170592, Note_on_c, 6, 65, 105
8, 170592, Note_on_c, 6, 77, 105
8, 170616, Note_on_c, 6, 77, 0
8, 170616, Note_on_c, 6, 65, 0
8, 170640, Note_on_c, 6, 62, 100
8, 170640, Note_on_c, 6, 74, 100
8, 170664, Note_on_c, 6, 74, 0
8, 170664, Note_on_c, 6, 62, 0
8, 170688, Note_on_c, 6, 67, 100
8, 170688, Note_on_c, 6, 79, 100
8, 170712, Note_on_c, 6, 79, 0
8, 170712, Note_on_c, 6, 67, 0
8, 170736, Note_on_c, 6, 60, 105
8, 170736, Note_on_c, 6, 72, 105
8, 170760, Note_on_c, 6, 72, 0
8, 170760, Note_on_c, 6, 60, 0
8, 171024, Note_on_c, 6, 67, 105
8, 171024, Note_on_c, 6, 79, 105
8, 171048, Note_on_c, 6, 79, 0
8, 171048, Note_on_c, 6, 67, 0
8, 171072, Note_on_c, 6, 64, 100
8, 171072, Note_on_c, 6, 76, 100
8, 171096, Note_on_c, 6, 76, 0
8, 171096, Note_on_c, 6, 64, 0
8, 171120, Note_on_c, 6, 69, 100
8, 171120, Note_on_c, 6, 81, 100
8, 171144, Note_on_c, 6, 81, 0
8, 171144, Note_on_c, 6, 69, 0
8, 171168, Note_on_c, 6, 65, 105
8, 171168, Note_on_c, 6, 77, 105
8, 171192, Note_on_c, 6, 77, 0
8, 171192, Note_on_c, 6, 65, 0
8, 171216, Note_on_c, 6, 62, 100
8, 171216, Note_on_c, 6, 74, 100
8, 171240, Note_on_c, 6, 74, 0
8, 171240, Note_on_c, 6, 62, 0
8, 171264, Note_on_c, 6, 67, 100
8, 171264, Note_on_c, 6, 79, 100
8, 171288, Note_on_c, 6, 79, 0
8, 171288, Note_on_c, 6, 67, 0
8, 171312, Note_on_c, 6, 67, 105
8, 171312, Note_on_c, 6, 79, 105
8, 171336, Note_on_c, 6, 79, 0
8, 171336, Note_on_c, 6, 67, 0
8, 171360, Note_on_c, 6, 67, 100
8, 171360, Note_on_c, 6, 79, 100
8, 171384, Note_on_c, 6, 79, 0
8, 171384, Note_on_c, 6, 67, 0
8, 171408, Note_on_c, 6, 67, 100
8, 171408, Note_on_c, 6, 79, 100
8, 171432, Note_on_c, 6, 79, 0
8, 171432, Note_on_c, 6, 67, 0
8, 171456, Note_on_c, 6, 67, 105
8, 171456, Note_on_c, 6, 79, 105
8, 171480, Note_on_c, 6, 79, 0
8, 171480, Note_on_c, 6, 67, 0
8, 171504, Note_on_c, 6, 67, 100
8, 171504, Note_on_c, 6, 79, 100
8, 171528, Note_on_c, 6, 79, 0
8, 171528, Note_on_c, 6, 67, 0
8, 171552, Note_on_c, 6, 67, 100
8, 171552, Note_on_c, 6, 79, 100
8, 171576, Note_on_c, 6, 79, 0
8, 171576, Note_on_c, 6, 67, 0
8, 171600, Note_on_c, 6, 76, 105
8, 171600, Note_on_c, 6, 84, 105
8, 171624, Note_on_c, 6, 84, 0
8, 171624, Note_on_c, 6, 76, 0
8, 171648, Note_on_c, 6, 76, 100
8, 171648, Note_on_c, 6, 79, 100
8, 171672, Note_on_c, 6, 79, 0
8, 171672, Note_on_c, 6, 76, 0
8, 171696, Note_on_c, 6, 76, 100
8, 171696, Note_on_c, 6, 84, 100
8, 171720, Note_on_c, 6, 84, 0
8, 171720, Note_on_c, 6, 76, 0
8, 171744, Note_on_c, 6, 77, 105
8, 171744, Note_on_c, 6, 86, 105
8, 171768, Note_on_c, 6, 86, 0
8, 171768, Note_on_c, 6, 77, 0
8, 171792, Note_on_c, 6, 77, 100
8, 171792, Note_on_c, 6, 79, 100
8, 171816, Note_on_c, 6, 79, 0
8, 171816, Note_on_c, 6, 77, 0
8, 171840, Note_on_c, 6, 77, 100
8, 171840, Note_on_c, 6, 86, 100
8, 171864, Note_on_c, 6, 86, 0
8, 171864, Note_on_c, 6, 77, 0
8, 171888, Note_on_c, 6, 76, 105
8, 171888, Note_on_c, 6, 84, 105
8, 171912, Note_on_c, 6, 84, 0
8, 171912, Note_on_c, 6, 76, 0
8, 171936, Note_on_c, 6, 76, 100
8, 171936, Note_on_c, 6, 79, 100
8, 171960, Note_on_c, 6, 79, 0
8, 171960, Note_on_c, 6, 76, 0
8, 171984, Note_on_c, 6, 76, 100
8, 171984, Note_on_c, 6, 84, 100
8, 172008, Note_on_c, 6, 84, 0
8, 172008, Note_on_c, 6, 76, 0
8, 172032, Note_on_c, 6, 77, 105
8, 172032, Note_on_c, 6, 86, 105
8, 172056, Note_on_c, 6, 86, 0
8, 172056, Note_on_c, 6, 77, 0
8, 172080, Note_on_c, 6, 77, 100
8, 172080, Note_on_c, 6, 79, 100
8, 172104, Note_on_c, 6, 79, 0
8, 172104, Note_on_c, 6, 77, 0
8, 172128, Note_on_c, 6, 77, 100
8, 172128, Note_on_c, 6, 86, 100
8, 172152, Note_on_c, 6, 86, 0
8, 172152, Note_on_c, 6, 77, 0
8, 172320, Control_c, 6, 1, 0
8, 172320, Note_on_c, 6, 72, 47
8, 172321, Control_c, 6, 1, 2
8, 172322, Control_c, 6, 1, 3
8, 172323, Control_c, 6, 1, 4
8, 172324, Control_c, 6, 1, 5
8, 172325, Control_c, 6, 1, 6
8, 172326, Control_c, 6, 1, 7
8, 172328, Control_c, 6, 1, 8
8, 172329, Control_c, 6, 1, 9
8, 172331, Control_c, 6, 1, 10
8, 172332, Control_c, 6, 1, 11
8, 172334, Control_c, 6, 1, 12
8, 172336, Control_c, 6, 1, 13
8, 172338, Control_c, 6, 1, 14
8, 172341, Control_c, 6, 1, 15
8, 172344, Control_c, 6, 1, 16
8, 172348, Control_c, 6, 1, 17
8, 172352, Control_c, 6, 1, 18
8, 172359, Control_c, 6, 1, 19
8, 172368, Note_on_c, 6, 72, 0
8, 172368, Note_on_c, 6, 74, 49
8, 172371, Control_c, 6, 1, 20
8, 172416, Note_on_c, 6, 74, 0
8, 172416, Note_on_c, 6, 76, 51
8, 172464, Note_on_c, 6, 76, 0
8, 172464, Note_on_c, 6, 77, 52
8, 172512, Note_on_c, 6, 77, 0
8, 172512, Note_on_c, 6, 76, 51
8, 172560, Note_on_c, 6, 76, 0
8, 172560, Note_on_c, 6, 77, 52
8, 172608, Note_on_c, 6, 77, 0
8, 172608, Note_on_c, 6, 79, 54
8, 172656, Note_on_c, 6, 79, 0
8, 172656, Note_on_c, 6, 81, 56
8, 172704, Note_on_c, 6, 81, 0
8, 172704, Note_on_c, 6, 83, 48
8, 172752, Note_on_c, 6, 83, 0
8, 172752, Note_on_c, 6, 84, 59
8, 172776, Note_on_c, 6, 84, 0
8, 172896, Control_c, 6, 1, 0
8, 172896, Note_on_c, 6, 72, 55
8, 172931, Note_on_c, 6, 72, 0
8, 172968, Note_on_c, 6, 72, 50
8, 172980, Note_on_c, 6, 72, 0
8, 172992, Note_on_c, 6, 72, 50
8, 173016, Note_on_c, 6, 72, 0
8, 173040, Note_on_c, 6, 72, 50
8, 173064, Note_on_c, 6, 72, 0
8, 173184, Note_on_c, 6, 74, 55
8, 173219, Note_on_c, 6, 74, 0
8, 173256, Note_on_c, 6, 74, 50
8, 173268, Note_on_c, 6, 74, 0
8, 173280, Note_on_c, 6, 74, 50
8, 173304, Note_on_c, 6, 74, 0
8, 173328, Note_on_c, 6, 74, 50
8, 173352, Note_on_c, 6, 74, 0
8, 174048, Note_on_c, 6, 70, 60
8, 174048, Note_on_c, 6, 74, 60
8, 174083, Note_on_c, 6, 74, 0
8, 174083, Note_on_c, 6, 70, 0
8, 174120, Note_on_c, 6, 70, 50
8, 174120, Note_on_c, 6, 74, 50
8, 174132, Note_on_c, 6, 74, 0
8, 174132, Note_on_c, 6, 70, 0
8, 174144, Note_on_c, 6, 70, 50
8, 174144, Note_on_c, 6, 74, 50
8, 174168, Note_on_c, 6, 74, 0
8, 174168, Note_on_c, 6, 70, 0
8, 174192, Note_on_c, 6, 70, 50
8, 174192, Note_on_c, 6, 74, 50
8, 174216, Note_on_c, 6, 74, 0
8, 174216, Note_on_c, 6, 70, 0
8, 174336, Note_on_c, 6, 70, 60
8, 174336, Note_on_c, 6, 75, 60
8, 174371, Note_on_c, 6, 75, 0
8, 174371, Note_on_c, 6, 70, 0
8, 174408, Note_on_c, 6, 70, 50
8, 174408, Note_on_c, 6, 75, 50
8, 174420, Note_on_c, 6, 75, 0
8, 174420, Note_on_c, 6, 70, 0
8, 174432, Note_on_c, 6, 70, 50
8, 174432, Note_on_c, 6, 75, 50
8, 174456, Note_on_c, 6, 75, 0
8, 174456, Note_on_c, 6, 70, 0
8, 174480, Note_on_c, 6, 70, 50
8, 174480, Note_on_c, 6, 75, 50
8, 174504, Note_on_c, 6, 75, 0
8, 174504, Note_on_c, 6, 70, 0
8, 175200, Note_on_c, 6, 67, 60
8, 175200, Note_on_c, 6, 75, 60
8, 175235, Note_on_c, 6, 75, 0
8, 175235, Note_on_c, 6, 67, 0
8, 175272, Note_on_c, 6, 67, 61
8, 175272, Note_on_c, 6, 75, 61
8, 175284, Note_on_c, 6, 75, 0
8, 175284, Note_on_c, 6, 67, 0
8, 175296, Note_on_c, 6, 67, 62
8, 175296, Note_on_c, 6, 75, 62
8, 175320, Note_on_c, 6, 75, 0
8, 175320, Note_on_c, 6, 67, 0
8, 175344, Note_on_c, 6, 72, 63
8, 175344, Note_on_c, 6, 75, 63
8, 175368, Note_on_c, 6, 75, 0
8, 175368, Note_on_c, 6, 72, 0
8, 175488, Note_on_c, 6, 72, 66
8, 175488, Note_on_c, 6, 77, 66
8, 175523, Note_on_c, 6, 77, 0
8, 175523, Note_on_c, 6, 72, 0
8, 175560, Note_on_c, 6, 72, 68
8, 175560, Note_on_c, 6, 77, 68
8, 175572, Note_on_c, 6, 77, 0
8, 175572, Note_on_c, 6, 72, 0
8, 175584, Note_on_c, 6, 72, 69
8, 175584, Note_on_c, 6, 77, 69
8, 175608, Note_on_c, 6, 77, 0
8, 175608, Note_on_c, 6, 72, 0
8, 175632, Note_on_c, 6, 73, 70
8, 175632, Note_on_c, 6, 77, 70
8, 175656, Note_on_c, 6, 77, 0
8, 175656, Note_on_c, 6, 73, 0
8, 175776, Note_on_c, 6, 73, 73
8, 175776, Note_on_c, 6, 77, 73
8, 175811, Note_on_c, 6, 77, 0
8, 175811, Note_on_c, 6, 73, 0
8, 175848, Note_on_c, 6, 73, 73
8, 175848, Note_on_c, 6, 77, 75
8, 175860, Note_on_c, 6, 77, 0
8, 175860, Note_on_c, 6, 73, 0
8, 175872, Note_on_c, 6, 73, 75
8, 175872, Note_on_c, 6, 77, 75
8, 175896, Note_on_c, 6, 77, 0
8, 175896, Note_on_c, 6, 73, 0
8, 175920, Note_on_c, 6, 73, 76
8, 175920, Note_on_c, 6, 78, 76
8, 175944, Note_on_c, 6, 78, 0
8, 175944, Note_on_c, 6, 73, 0
8, 176064, Note_on_c, 6, 75, 80
8, 176064, Note_on_c, 6, 78, 80
8, 176099, Note_on_c, 6, 78, 0
8, 176099, Note_on_c, 6, 75, 0
8, 176136, Note_on_c, 6, 75, 81
8, 176136, Note_on_c, 6, 78, 81
8, 176148, Note_on_c, 6, 78, 0
8, 176148, Note_on_c, 6, 75, 0
8, 176160, Note_on_c, 6, 75, 82
8, 176160, Note_on_c, 6, 78, 82
8, 176184, Note_on_c, 6, 78, 0
8, 176184, Note_on_c, 6, 75, 0
8, 176208, Note_on_c, 6, 75, 83
8, 176208, Note_on_c, 6, 78, 83
8, 176232, Note_on_c, 6, 78, 0
8, 176232, Note_on_c, 6, 75, 0
8, 176352, Note_on_c, 6, 75, 87
8, 176352, Note_on_c, 6, 80, 87
8, 176387, Note_on_c, 6, 80, 0
8, 176387, Note_on_c, 6, 75, 0
8, 176424, Note_on_c, 6, 75, 88
8, 176424, Note_on_c, 6, 80, 88
8, 176436, Note_on_c, 6, 80, 0
8, 176436, Note_on_c, 6, 75, 0
8, 176448, Note_on_c, 6, 75, 89
8, 176448, Note_on_c, 6, 80, 89
8, 176472, Note_on_c, 6, 80, 0
8, 176472, Note_on_c, 6, 75, 0
8, 176496, Note_on_c, 6, 76, 90
8, 176496, Note_on_c, 6, 80, 90
8, 176520, Note_on_c, 6, 80, 0
8, 176520, Note_on_c, 6, 76, 0
8, 176640, Note_on_c, 6, 76, 93
8, 176640, Note_on_c, 6, 80, 93
8, 176675, Note_on_c, 6, 80, 0
8, 176675, Note_on_c, 6, 76, 0
8, 176712, Note_on_c, 6, 76, 95
8, 176712, Note_on_c, 6, 80, 95
8, 176724, Note_on_c, 6, 80, 0
8, 176724, Note_on_c, 6, 76, 0
8, 176736, Note_on_c, 6, 76, 96
8, 176736, Note_on_c, 6, 80, 96
8, 176760, Note_on_c, 6, 80, 0
8, 176760, Note_on_c, 6, 76, 0
8, 176784, Note_on_c, 6, 76, 100
8, 176784, Note_on_c, 6, 81, 100
8, 176808, Note_on_c, 6, 81, 0
8, 176808, Note_on_c, 6, 76, 0
8, 176928, Note_on_c, 6, 81, 100
8, 176963, Note_on_c, 6, 81, 0
8, 177000, Note_on_c, 6, 69, 100
8, 177012, Note_on_c, 6, 69, 0
8, 177024, Note_on_c, 6, 69, 100
8, 177048, Note_on_c, 6, 69, 0
8, 177216, Note_on_c, 6, 70, 113
8, 177216, Note_on_c, 6, 82, 113
8, 177251, Note_on_c, 6, 82, 0
8, 177251, Note_on_c, 6, 70, 0
8, 177288, Note_on_c, 6, 70, 113
8, 177300, Note_on_c, 6, 70, 0
8, 177312, Note_on_c, 6, 70, 113
8, 177336, Note_on_c, 6, 70, 0
8, 177504, Note_on_c, 6, 71, 113
8, 177504, Note_on_c, 6, 83, 113
8, 177539, Note_on_c, 6, 83, 0
8, 177539, Note_on_c, 6, 71, 0
8, 177576, Note_on_c, 6, 71, 113
8, 177588, Note_on_c, 6, 71, 0
8, 177600, Note_on_c, 6, 71, 113
8, 177672, Note_on_c, 6, 71, 0
8, 178128, Note_on_c, 6, 83, 75
8, 178163, Note_on_c, 6, 83, 0
8, 178200, Note_on_c, 6, 71, 70
8, 178212, Note_on_c, 6, 71, 0
8, 178224, Note_on_c, 6, 71, 70
8, 178248, Note_on_c, 6, 71, 0
8, 178272, Note_on_c, 6, 76, 65
8, 178296, Note_on_c, 6, 76, 0
8, 178320, Note_on_c, 6, 75, 60
8, 178320, Note_on_c, 6, 78, 60
8, 178344, Note_on_c, 6, 78, 0
8, 178344, Note_on_c, 6, 75, 0
8, 178368, Note_on_c, 6, 76, 60
8, 178368, Note_on_c, 6, 79, 60
8, 178392, Note_on_c, 6, 79, 0
8, 178392, Note_on_c, 6, 76, 0
8, 178416, Note_on_c, 6, 75, 65
8, 178416, Note_on_c, 6, 78, 65
8, 178440, Note_on_c, 6, 78, 0
8, 178440, Note_on_c, 6, 75, 0
8, 178464, Note_on_c, 6, 76, 60
8, 178464, Note_on_c, 6, 79, 60
8, 178488, Note_on_c, 6, 79, 0
8, 178488, Note_on_c, 6, 76, 0
8, 178512, Note_on_c, 6, 78, 60
8, 178512, Note_on_c, 6, 81, 60
8, 178536, Note_on_c, 6, 81, 0
8, 178536, Note_on_c, 6, 78, 0
8, 178560, Note_on_c, 6, 76, 65
8, 178560, Note_on_c, 6, 79, 65
8, 178584, Note_on_c, 6, 79, 0
8, 178584, Note_on_c, 6, 76, 0
8, 178608, Note_on_c, 6, 79, 60
8, 178608, Note_on_c, 6, 83, 60
8, 178632, Note_on_c, 6, 83, 0
8, 178632, Note_on_c, 6, 79, 0
8, 178656, Note_on_c, 6, 79, 60
8, 178656, Note_on_c, 6, 83, 60
8, 178680, Note_on_c, 6, 83, 0
8, 178680, Note_on_c, 6, 79, 0
8, 178704, Note_on_c, 6, 79, 65
8, 178704, Note_on_c, 6, 83, 65
8, 178728, Note_on_c, 6, 83, 0
8, 178728, Note_on_c, 6, 79, 0
8, 178752, Note_on_c, 6, 78, 60
8, 178752, Note_on_c, 6, 81, 60
8, 178776, Note_on_c, 6, 81, 0
8, 178776, Note_on_c, 6, 78, 0
8, 178800, Note_on_c, 6, 76, 60
8, 178800, Note_on_c, 6, 79, 60
8, 178824, Note_on_c, 6, 79, 0
8, 178824, Note_on_c, 6, 76, 0
8, 178848, Note_on_c, 6, 78, 65
8, 178848, Note_on_c, 6, 81, 65
8, 178872, Note_on_c, 6, 81, 0
8, 178872, Note_on_c, 6, 78, 0
8, 178896, Note_on_c, 6, 76, 60
8, 178896, Note_on_c, 6, 79, 60
8, 178920, Note_on_c, 6, 79, 0
8, 178920, Note_on_c, 6, 76, 0
8, 178944, Note_on_c, 6, 75, 60
8, 178944, Note_on_c, 6, 78, 60
8, 178968, Note_on_c, 6, 78, 0
8, 178968, Note_on_c, 6, 75, 0
8, 178992, Note_on_c, 6, 76, 65
8, 179027, Note_on_c, 6, 76, 0
8, 179064, Note_on_c, 6, 64, 60
8, 179076, Note_on_c, 6, 64, 0
8, 179088, Note_on_c, 6, 64, 60
8, 179112, Note_on_c, 6, 64, 0
8, 179136, Note_on_c, 6, 76, 65
8, 179160, Note_on_c, 6, 76, 0
8, 179184, Note_on_c, 6, 80, 60
8, 179208, Note_on_c, 6, 80, 0
8, 179232, Note_on_c, 6, 81, 60
8, 179256, Note_on_c, 6, 81, 0
8, 179280, Note_on_c, 6, 80, 65
8, 179304, Note_on_c, 6, 80, 0
8, 179328, Note_on_c, 6, 81, 60
8, 179352, Note_on_c, 6, 81, 0
8, 179376, Note_on_c, 6, 83, 60
8, 179400, Note_on_c, 6, 83, 0
8, 179424, Note_on_c, 6, 81, 65
8, 179448, Note_on_c, 6, 81, 0
8, 179472, Note_on_c, 6, 84, 60
8, 179496, Note_on_c, 6, 84, 0
8, 179520, Note_on_c, 6, 84, 60
8, 179544, Note_on_c, 6, 84, 0
8, 179568, Note_on_c, 6, 84, 65
8, 179592, Note_on_c, 6, 84, 0
8, 179616, Note_on_c, 6, 83, 60
8, 179640, Note_on_c, 6, 83, 0
8, 179664, Note_on_c, 6, 81, 60
8, 179688, Note_on_c, 6, 81, 0
8, 179712, Note_on_c, 6, 83, 65
8, 179736, Note_on_c, 6, 83, 0
8, 179760, Note_on_c, 6, 81, 60
8, 179784, Note_on_c, 6, 81, 0
8, 179808, Note_on_c, 6, 80, 60
8, 179832, Note_on_c, 6, 80, 0
8, 179856, Note_on_c, 6, 76, 65
8, 179891, Note_on_c, 6, 76, 0
8, 179928, Note_on_c, 6, 64, 60
8, 179940, Note_on_c, 6, 64, 0
8, 179952, Note_on_c, 6, 64, 60
8, 179976, Note_on_c, 6, 64, 0
8, 180000, Note_on_c, 6, 76, 65
8, 180024, Note_on_c, 6, 76, 0
8, 180048, Note_on_c, 6, 80, 60
8, 180072, Note_on_c, 6, 80, 0
8, 180096, Note_on_c, 6, 81, 60
8, 180120, Note_on_c, 6, 81, 0
8, 180144, Note_on_c, 6, 80, 65
8, 180168, Note_on_c, 6, 80, 0
8, 180192, Note_on_c, 6, 81, 60
8, 180216, Note_on_c, 6, 81, 0
8, 180240, Note_on_c, 6, 83, 60
8, 180264, Note_on_c, 6, 83, 0
8, 180432, Note_on_c, 6, 77, 65
8, 180456, Note_on_c, 6, 77, 0
8, 180480, Note_on_c, 6, 79, 60
8, 180504, Note_on_c, 6, 79, 0
8, 180528, Note_on_c, 6, 81, 60
8, 180552, Note_on_c, 6, 81, 0
8, 180576, Note_on_c, 6, 79, 65
8, 180600, Note_on_c, 6, 79, 0
8, 180624, Note_on_c, 6, 81, 60
8, 180648, Note_on_c, 6, 81, 0
8, 180672, Note_on_c, 6, 82, 60
8, 180696, Note_on_c, 6, 82, 0
8, 180864, Note_on_c, 6, 81, 65
8, 180888, Note_on_c, 6, 81, 0
8, 180912, Note_on_c, 6, 79, 60
8, 180936, Note_on_c, 6, 79, 0
8, 180960, Note_on_c, 6, 81, 60
8, 180984, Note_on_c, 6, 81, 0
8, 181008, Note_on_c, 6, 79, 65
8, 181032, Note_on_c, 6, 79, 0
8, 181056, Note_on_c, 6, 81, 60
8, 181080, Note_on_c, 6, 81, 0
8, 181104, Note_on_c, 6, 82, 60
8, 181128, Note_on_c, 6, 82, 0
8, 181296, Note_on_c, 6, 77, 65
8, 181296, Note_on_c, 6, 81, 65
8, 181320, Note_on_c, 6, 81, 0
8, 181320, Note_on_c, 6, 77, 0
8, 181344, Note_on_c, 6, 79, 60
8, 181344, Note_on_c, 6, 82, 60
8, 181368, Note_on_c, 6, 82, 0
8, 181368, Note_on_c, 6, 79, 0
8, 181392, Note_on_c, 6, 81, 60
8, 181392, Note_on_c, 6, 84, 60
8, 181416, Note_on_c, 6, 84, 0
8, 181416, Note_on_c, 6, 81, 0
8, 181440, Note_on_c, 6, 79, 65
8, 181440, Note_on_c, 6, 82, 65
8, 181464, Note_on_c, 6, 82, 0
8, 181464, Note_on_c, 6, 79, 0
8, 181488, Note_on_c, 6, 81, 60
8, 181488, Note_on_c, 6, 84, 60
8, 181512, Note_on_c, 6, 84, 0
8, 181512, Note_on_c, 6, 81, 0
8, 181536, Note_on_c, 6, 82, 60
8, 181536, Note_on_c, 6, 86, 60
8, 181560, Note_on_c, 6, 86, 0
8, 181560, Note_on_c, 6, 82, 0
8, 181728, Note_on_c, 6, 69, 65
8, 181728, Note_on_c, 6, 72, 65
8, 181752, Note_on_c, 6, 72, 0
8, 181752, Note_on_c, 6, 69, 0
8, 181776, Note_on_c, 6, 67, 60
8, 181776, Note_on_c, 6, 76, 60
8, 181800, Note_on_c, 6, 76, 0
8, 181800, Note_on_c, 6, 67, 0
8, 181824, Note_on_c, 6, 69, 60
8, 181824, Note_on_c, 6, 77, 60
8, 181848, Note_on_c, 6, 77, 0
8, 181848, Note_on_c, 6, 69, 0
8, 181872, Note_on_c, 6, 67, 65
8, 181872, Note_on_c, 6, 76, 65
8, 181896, Note_on_c, 6, 76, 0
8, 181896, Note_on_c, 6, 67, 0
8, 181920, Note_on_c, 6, 69, 60
8, 181920, Note_on_c, 6, 77, 60
8, 181944, Note_on_c, 6, 77, 0
8, 181944, Note_on_c, 6, 69, 0
8, 181968, Note_on_c, 6, 70, 60
8, 181968, Note_on_c, 6, 79, 60
8, 181992, Note_on_c, 6, 79, 0
8, 181992, Note_on_c, 6, 70, 0
8, 182016, Note_on_c, 6, 77, 65
8, 182016, Note_on_c, 6, 81, 65
8, 182040, Note_on_c, 6, 81, 0
8, 182040, Note_on_c, 6, 77, 0
8, 182064, Note_on_c, 6, 79, 60
8, 182064, Note_on_c, 6, 82, 60
8, 182088, Note_on_c, 6, 82, 0
8, 182088, Note_on_c, 6, 79, 0
8, 182112, Note_on_c, 6, 81, 60
8, 182112, Note_on_c, 6, 84, 60
8, 182136, Note_on_c, 6, 84, 0
8, 182136, Note_on_c, 6, 81, 0
8, 182160, Note_on_c, 6, 81, 65
8, 182160, Note_on_c, 6, 84, 65
8, 182184, Note_on_c, 6, 84, 0
8, 182184, Note_on_c, 6, 81, 0
8, 182208, Note_on_c, 6, 79, 60
8, 182208, Note_on_c, 6, 82, 60
8, 182232, Note_on_c, 6, 82, 0
8, 182232, Note_on_c, 6, 79, 0
8, 182256, Note_on_c, 6, 77, 60
8, 182256, Note_on_c, 6, 81, 60
8, 182280, Note_on_c, 6, 81, 0
8, 182280, Note_on_c, 6, 77, 0
8, 182304, Note_on_c, 6, 77, 65
8, 182304, Note_on_c, 6, 81, 65
8, 182328, Note_on_c, 6, 81, 0
8, 182328, Note_on_c, 6, 77, 0
8, 182352, Note_on_c, 6, 79, 60
8, 182352, Note_on_c, 6, 82, 60
8, 182376, Note_on_c, 6, 82, 0
8, 182376, Note_on_c, 6, 79, 0
8, 182400, Note_on_c, 6, 77, 60
8, 182400, Note_on_c, 6, 81, 60
8, 182424, Note_on_c, 6, 81, 0
8, 182424, Note_on_c, 6, 77, 0
8, 182592, Note_on_c, 6, 72, 55
8, 182627, Note_on_c, 6, 72, 0
8, 182664, Note_on_c, 6, 60, 50
8, 182676, Note_on_c, 6, 60, 0
8, 182688, Note_on_c, 6, 60, 50
8, 182712, Note_on_c, 6, 60, 0
8, 182880, Note_on_c, 6, 74, 55
8, 182880, Note_on_c, 6, 77, 55
8, 182904, Note_on_c, 6, 77, 0
8, 182904, Note_on_c, 6, 74, 0
8, 182928, Note_on_c, 6, 76, 50
8, 182928, Note_on_c, 6, 79, 50
8, 182952, Note_on_c, 6, 79, 0
8, 182952, Note_on_c, 6, 76, 0
8, 182976, Note_on_c, 6, 77, 50
8, 182976, Note_on_c, 6, 81, 50
8, 183000, Note_on_c, 6, 81, 0
8, 183000, Note_on_c, 6, 77, 0
8, 183024, Note_on_c, 6, 77, 55
8, 183024, Note_on_c, 6, 81, 55
8, 183048, Note_on_c, 6, 81, 0
8, 183048, Note_on_c, 6, 77, 0
8, 183072, Note_on_c, 6, 76, 50
8, 183072, Note_on_c, 6, 79, 50
8, 183096, Note_on_c, 6, 79, 0
8, 183096, Note_on_c, 6, 76, 0
8, 183120, Note_on_c, 6, 74, 50
8, 183120, Note_on_c, 6, 77, 50
8, 183144, Note_on_c, 6, 77, 0
8, 183144, Note_on_c, 6, 74, 0
8, 183168, Note_on_c, 6, 74, 55
8, 183168, Note_on_c, 6, 77, 55
8, 183192, Note_on_c, 6, 77, 0
8, 183192, Note_on_c, 6, 74, 0
8, 183216, Note_on_c, 6, 76, 50
8, 183216, Note_on_c, 6, 79, 50
8, 183240, Note_on_c, 6, 79, 0
8, 183240, Note_on_c, 6, 76, 0
8, 183264, Note_on_c, 6, 74, 50
8, 183264, Note_on_c, 6, 77, 50
8, 183288, Note_on_c, 6, 77, 0
8, 183288, Note_on_c, 6, 74, 0
8, 183744, Note_on_c, 6, 74, 55
8, 183744, Note_on_c, 6, 77, 55
8, 183768, Note_on_c, 6, 77, 0
8, 183768, Note_on_c, 6, 74, 0
8, 183792, Note_on_c, 6, 76, 50
8, 183792, Note_on_c, 6, 79, 50
8, 183816, Note_on_c, 6, 79, 0
8, 183816, Note_on_c, 6, 76, 0
8, 183840, Note_on_c, 6, 77, 50
8, 183840, Note_on_c, 6, 81, 50
8, 183864, Note_on_c, 6, 81, 0
8, 183864, Note_on_c, 6, 77, 0
8, 183888, Note_on_c, 6, 77, 55
8, 183888, Note_on_c, 6, 81, 55
8, 183912, Note_on_c, 6, 81, 0
8, 183912, Note_on_c, 6, 77, 0
8, 183936, Note_on_c, 6, 76, 50
8, 183936, Note_on_c, 6, 79, 50
8, 183960, Note_on_c, 6, 79, 0
8, 183960, Note_on_c, 6, 76, 0
8, 183984, Note_on_c, 6, 74, 50
8, 183984, Note_on_c, 6, 77, 50
8, 184008, Note_on_c, 6, 77, 0
8, 184008, Note_on_c, 6, 74, 0
8, 184032, Note_on_c, 6, 74, 55
8, 184032, Note_on_c, 6, 77, 55
8, 184056, Note_on_c, 6, 77, 0
8, 184056, Note_on_c, 6, 74, 0
8, 184080, Note_on_c, 6, 76, 50
8, 184080, Note_on_c, 6, 79, 50
8, 184104, Note_on_c, 6, 79, 0
8, 184104, Note_on_c, 6, 76, 0
8, 184128, Note_on_c, 6, 74, 50
8, 184128, Note_on_c, 6, 77, 50
8, 184152, Note_on_c, 6, 77, 0
8, 184152, Note_on_c, 6, 74, 0
8, 184608, Note_on_c, 6, 81, 55
8, 184643, Note_on_c, 6, 81, 0
8, 184680, Note_on_c, 6, 69, 50
8, 184692, Note_on_c, 6, 69, 0
8, 184704, Note_on_c, 6, 69, 50
8, 184728, Note_on_c, 6, 69, 0
8, 184752, Note_on_c, 6, 74, 55
8, 184776, Note_on_c, 6, 74, 0
8, 184800, Note_on_c, 6, 73, 50
8, 184800, Note_on_c, 6, 76, 50
8, 184824, Note_on_c, 6, 76, 0
8, 184824, Note_on_c, 6, 73, 0
8, 184848, Note_on_c, 6, 74, 50
8, 184848, Note_on_c, 6, 77, 50
8, 184872, Note_on_c, 6, 77, 0
8, 184872, Note_on_c, 6, 74, 0
8, 184896, Note_on_c, 6, 73, 55
8, 184896, Note_on_c, 6, 76, 55
8, 184920, Note_on_c, 6, 76, 0
8, 184920, Note_on_c, 6, 73, 0
8, 184944, Note_on_c, 6, 74, 50
8, 184944, Note_on_c, 6, 77, 50
8, 184968, Note_on_c, 6, 77, 0
8, 184968, Note_on_c, 6, 74, 0
8, 184992, Note_on_c, 6, 76, 50
8, 184992, Note_on_c, 6, 79, 50
8, 185016, Note_on_c, 6, 79, 0
8, 185016, Note_on_c, 6, 76, 0
8, 185040, Note_on_c, 6, 74, 55
8, 185040, Note_on_c, 6, 77, 55
8, 185064, Note_on_c, 6, 77, 0
8, 185064, Note_on_c, 6, 74, 0
8, 185088, Note_on_c, 6, 77, 50
8, 185088, Note_on_c, 6, 81, 50
8, 185112, Note_on_c, 6, 81, 0
8, 185112, Note_on_c, 6, 77, 0
8, 185136, Note_on_c, 6, 77, 50
8, 185136, Note_on_c, 6, 81, 50
8, 185160, Note_on_c, 6, 81, 0
8, 185160, Note_on_c, 6, 77, 0
8, 185184, Note_on_c, 6, 77, 55
8, 185184, Note_on_c, 6, 81, 55
8, 185208, Note_on_c, 6, 81, 0
8, 185208, Note_on_c, 6, 77, 0
8, 185232, Note_on_c, 6, 76, 50
8, 185232, Note_on_c, 6, 79, 50
8, 185256, Note_on_c, 6, 79, 0
8, 185256, Note_on_c, 6, 76, 0
8, 185280, Note_on_c, 6, 74, 50
8, 185280, Note_on_c, 6, 77, 50
8, 185304, Note_on_c, 6, 77, 0
8, 185304, Note_on_c, 6, 74, 0
8, 185328, Note_on_c, 6, 76, 55
8, 185328, Note_on_c, 6, 79, 55
8, 185352, Note_on_c, 6, 79, 0
8, 185352, Note_on_c, 6, 76, 0
8, 185376, Note_on_c, 6, 74, 50
8, 185376, Note_on_c, 6, 77, 50
8, 185400, Note_on_c, 6, 77, 0
8, 185400, Note_on_c, 6, 74, 0
8, 185424, Note_on_c, 6, 73, 50
8, 185424, Note_on_c, 6, 76, 50
8, 185448, Note_on_c, 6, 76, 0
8, 185448, Note_on_c, 6, 73, 0
8, 185472, Note_on_c, 6, 81, 55
8, 185507, Note_on_c, 6, 81, 0
8, 185544, Note_on_c, 6, 69, 50
8, 185556, Note_on_c, 6, 69, 0
8, 185568, Note_on_c, 6, 69, 50
8, 185592, Note_on_c, 6, 69, 0
8, 185616, Note_on_c, 6, 74, 55
8, 185640, Note_on_c, 6, 74, 0
8, 185664, Note_on_c, 6, 73, 50
8, 185664, Note_on_c, 6, 76, 50
8, 185688, Note_on_c, 6, 76, 0
8, 185688, Note_on_c, 6, 73, 0
8, 185712, Note_on_c, 6, 74, 50
8, 185712, Note_on_c, 6, 77, 50
8, 185736, Note_on_c, 6, 77, 0
8, 185736, Note_on_c, 6, 74, 0
8, 185760, Note_on_c, 6, 73, 55
8, 185760, Note_on_c, 6, 76, 55
8, 185784, Note_on_c, 6, 76, 0
8, 185784, Note_on_c, 6, 73, 0
8, 185808, Note_on_c, 6, 74, 50
8, 185808, Note_on_c, 6, 77, 50
8, 185832, Note_on_c, 6, 77, 0
8, 185832, Note_on_c, 6, 74, 0
8, 185856, Note_on_c, 6, 76, 50
8, 185856, Note_on_c, 6, 79, 50
8, 185880, Note_on_c, 6, 79, 0
8, 185880, Note_on_c, 6, 76, 0
8, 185904, Note_on_c, 6, 74, 55
8, 185904, Note_on_c, 6, 77, 55
8, 185928, Note_on_c, 6, 77, 0
8, 185928, Note_on_c, 6, 74, 0
8, 185952, Note_on_c, 6, 81, 50
8, 185976, Note_on_c, 6, 81, 0
8, 186000, Note_on_c, 6, 81, 50
8, 186024, Note_on_c, 6, 81, 0
8, 186048, Note_on_c, 6, 81, 55
8, 186072, Note_on_c, 6, 81, 0
8, 186096, Note_on_c, 6, 81, 50
8, 186120, Note_on_c, 6, 81, 0
8, 186144, Note_on_c, 6, 81, 50
8, 186168, Note_on_c, 6, 81, 0
8, 186192, Note_on_c, 6, 81, 55
8, 186216, Note_on_c, 6, 81, 0
8, 186240, Note_on_c, 6, 81, 50
8, 186264, Note_on_c, 6, 81, 0
8, 186288, Note_on_c, 6, 81, 50
8, 186312, Note_on_c, 6, 81, 0
8, 186336, Note_on_c, 6, 81, 55
8, 186360, Note_on_c, 6, 81, 0
8, 186384, Note_on_c, 6, 81, 50
8, 186408, Note_on_c, 6, 81, 0
8, 186432, Note_on_c, 6, 81, 50
8, 186456, Note_on_c, 6, 81, 0
8, 186480, Note_on_c, 6, 79, 55
8, 186504, Note_on_c, 6, 79, 0
8, 186528, Note_on_c, 6, 79, 50
8, 186552, Note_on_c, 6, 79, 0
8, 186576, Note_on_c, 6, 79, 50
8, 186600, Note_on_c, 6, 79, 0
8, 186624, Note_on_c, 6, 79, 55
8, 186648, Note_on_c, 6, 79, 0
8, 186672, Note_on_c, 6, 79, 50
8, 186696, Note_on_c, 6, 79, 0
8, 186720, Note_on_c, 6, 79, 50
8, 186744, Note_on_c, 6, 79, 0
8, 186768, Note_on_c, 6, 79, 55
8, 186792, Note_on_c, 6, 79, 0
8, 186816, Note_on_c, 6, 79, 50
8, 186840, Note_on_c, 6, 79, 0
8, 186864, Note_on_c, 6, 79, 50
8, 186888, Note_on_c, 6, 79, 0
8, 186912, Note_on_c, 6, 79, 55
8, 186936, Note_on_c, 6, 79, 0
8, 186960, Note_on_c, 6, 79, 50
8, 186984, Note_on_c, 6, 79, 0
8, 187008, Note_on_c, 6, 79, 50
8, 187032, Note_on_c, 6, 79, 0
8, 187056, Note_on_c, 6, 74, 55
8, 187080, Note_on_c, 6, 74, 0
8, 187104, Note_on_c, 6, 75, 50
8, 187128, Note_on_c, 6, 75, 0
8, 187152, Note_on_c, 6, 77, 50
8, 187176, Note_on_c, 6, 77, 0
8, 187200, Note_on_c, 6, 75, 55
8, 187224, Note_on_c, 6, 75, 0
8, 187248, Note_on_c, 6, 82, 50
8, 187272, Note_on_c, 6, 82, 0
8, 187296, Note_on_c, 6, 82, 50
8, 187320, Note_on_c, 6, 82, 0
8, 187344, Note_on_c, 6, 82, 55
8, 187368, Note_on_c, 6, 82, 0
8, 187392, Note_on_c, 6, 82, 50
8, 187416, Note_on_c, 6, 82, 0
8, 187440, Note_on_c, 6, 82, 50
8, 187464, Note_on_c, 6, 82, 0
8, 187488, Note_on_c, 6, 82, 55
8, 187512, Note_on_c, 6, 82, 0
8, 187536, Note_on_c, 6, 82, 50
8, 187560, Note_on_c, 6, 82, 0
8, 187584, Note_on_c, 6, 82, 50
8, 187608, Note_on_c, 6, 82, 0
8, 187632, Note_on_c, 6, 82, 55
8, 187656, Note_on_c, 6, 82, 0
8, 187680, Note_on_c, 6, 82, 50
8, 187704, Note_on_c, 6, 82, 0
8, 187728, Note_on_c, 6, 82, 50
8, 187752, Note_on_c, 6, 82, 0
8, 187776, Note_on_c, 6, 82, 55
8, 187800, Note_on_c, 6, 82, 0
8, 187824, Note_on_c, 6, 82, 50
8, 187848, Note_on_c, 6, 82, 0
8, 187872, Note_on_c, 6, 82, 50
8, 187896, Note_on_c, 6, 82, 0
8, 187920, Note_on_c, 6, 82, 50
8, 187944, Note_on_c, 6, 82, 0
8, 188496, Note_on_c, 6, 82, 50
8, 188520, Note_on_c, 6, 82, 0
8, 188640, Note_on_c, 6, 82, 50
8, 188664, Note_on_c, 6, 82, 0
8, 188784, Note_on_c, 6, 82, 50
8, 188808, Note_on_c, 6, 82, 0
8, 188928, Note_on_c, 6, 82, 50
8, 188952, Note_on_c, 6, 82, 0
8, 189072, Note_on_c, 6, 82, 50
8, 189096, Note_on_c, 6, 82, 0
8, 189648, Note_on_c, 6, 74, 77
8, 189648, Note_on_c, 6, 77, 77
8, 189672, Note_on_c, 6, 77, 0
8, 189672, Note_on_c, 6, 74, 0
8, 189936, Note_on_c, 6, 65, 90
8, 189936, Note_on_c, 6, 77, 90
8, 189960, Note_on_c, 6, 77, 0
8, 189960, Note_on_c, 6, 65, 0
8, 190224, Note_on_c, 6, 74, 120
8, 190224, Note_on_c, 6, 77, 120
8, 190254, Note_on_c, 6, 77, 0
8, 190254, Note_on_c, 6, 74, 0
8, 190512, Note_on_c, 6, 77, 120
8, 190512, Note_on_c, 6, 81, 120
8, 190542, Note_on_c, 6, 81, 0
8, 190542, Note_on_c, 6, 77, 0
8, 190800, Note_on_c, 6, 81, 125
8, 190835, Note_on_c, 6, 81, 0
8, 190872, Note_on_c, 6, 69, 115
8, 190884, Note_on_c, 6, 69, 0
8, 190896, Note_on_c, 6, 69, 115
8, 190920, Note_on_c, 6, 69, 0
8, 190944, Note_on_c, 6, 81, 125
8, 190979, Note_on_c, 6, 81, 0
8, 191016, Note_on_c, 6, 69, 115
8, 191028, Note_on_c, 6, 69, 0
8, 191040, Note_on_c, 6, 69, 115
8, 191064, Note_on_c, 6, 69, 0
8, 191088, Note_on_c, 6, 81, 125
8, 191123, Note_on_c, 6, 81, 0
8, 191160, Note_on_c, 6, 69, 115
8, 191172, Note_on_c, 6, 69, 0
8, 191184, Note_on_c, 6, 69, 115
8, 191208, Note_on_c, 6, 69, 0
8, 191232, Note_on_c, 6, 81, 125
8, 191267, Note_on_c, 6, 81, 0
8, 191304, Note_on_c, 6, 69, 115
8, 191316, Note_on_c, 6, 69, 0
8, 191328, Note_on_c, 6, 69, 115
8, 191352, Note_on_c, 6, 69, 0
8, 191376, Note_on_c, 6, 81, 125
8, 191411, Note_on_c, 6, 81, 0
8, 191448, Note_on_c, 6, 69, 115
8, 191460, Note_on_c, 6, 69, 0
8, 191472, Note_on_c, 6, 69, 115
8, 191496, Note_on_c, 6, 69, 0
8, 191520, Note_on_c, 6, 74, 120
8, 191544, Note_on_c, 6, 74, 0
8, 191568, Note_on_c, 6, 76, 115
8, 191592, Note_on_c, 6, 76, 0
8, 191616, Note_on_c, 6, 77, 115
8, 191640, Note_on_c, 6, 77, 0
8, 191664, Note_on_c, 6, 76, 120
8, 191688, Note_on_c, 6, 76, 0
8, 191712, Note_on_c, 6, 77, 115
8, 191736, Note_on_c, 6, 77, 0
8, 191760, Note_on_c, 6, 79, 115
8, 191784, Note_on_c, 6, 79, 0
8, 191808, Note_on_c, 6, 77, 120
8, 191832, Note_on_c, 6, 77, 0
8, 191856, Note_on_c, 6, 76, 115
8, 191880, Note_on_c, 6, 76, 0
8, 191904, Note_on_c, 6, 74, 115
8, 191928, Note_on_c, 6, 74, 0
8, 191952, Note_on_c, 6, 82, 120
8, 191976, Note_on_c, 6, 82, 0
8, 192000, Note_on_c, 6, 81, 115
8, 192024, Note_on_c, 6, 81, 0
8, 192048, Note_on_c, 6, 79, 115
8, 192072, Note_on_c, 6, 79, 0
8, 192096, Note_on_c, 6, 77, 120
8, 192120, Note_on_c, 6, 77, 0
8, 192144, Note_on_c, 6, 76, 115
8, 192168, Note_on_c, 6, 76, 0
8, 192192, Note_on_c, 6, 74, 115
8, 192216, Note_on_c, 6, 74, 0
8, 192240, Note_on_c, 6, 73, 120
8, 192264, Note_on_c, 6, 73, 0
8, 192288, Note_on_c, 6, 74, 115
8, 192312, Note_on_c, 6, 74, 0
8, 192336, Note_on_c, 6, 76, 115
8, 192360, Note_on_c, 6, 76, 0
8, 192384, Note_on_c, 6, 74, 120
8, 192408, Note_on_c, 6, 74, 0
8, 192432, Note_on_c, 6, 73, 115
8, 192456, Note_on_c, 6, 73, 0
8, 192480, Note_on_c, 6, 74, 115
8, 192504, Note_on_c, 6, 74, 0
8, 192528, Note_on_c, 6, 82, 120
8, 192552, Note_on_c, 6, 82, 0
8, 192576, Note_on_c, 6, 81, 115
8, 192600, Note_on_c, 6, 81, 0
8, 192624, Note_on_c, 6, 79, 115
8, 192648, Note_on_c, 6, 79, 0
8, 192672, Note_on_c, 6, 77, 120
8, 192696, Note_on_c, 6, 77, 0
8, 192720, Note_on_c, 6, 76, 115
8, 192744, Note_on_c, 6, 76, 0
8, 192768, Note_on_c, 6, 74, 115
8, 192792, Note_on_c, 6, 74, 0
8, 192816, Note_on_c, 6, 73, 120
8, 192840, Note_on_c, 6, 73, 0
8, 192864, Note_on_c, 6, 74, 115
8, 192888, Note_on_c, 6, 74, 0
8, 192912, Note_on_c, 6, 76, 115
8, 192936, Note_on_c, 6, 76, 0
8, 192960, Note_on_c, 6, 74, 120
8, 192984, Note_on_c, 6, 74, 0
8, 193008, Note_on_c, 6, 73, 115
8, 193032, Note_on_c, 6, 73, 0
8, 193056, Note_on_c, 6, 74, 115
8, 193080, Note_on_c, 6, 74, 0
8, 193104, Note_on_c, 6, 72, 120
8, 193128, Note_on_c, 6, 72, 0
8, 193152, Note_on_c, 6, 74, 115
8, 193176, Note_on_c, 6, 74, 0
8, 193200, Note_on_c, 6, 75, 115
8, 193224, Note_on_c, 6, 75, 0
8, 193248, Note_on_c, 6, 79, 120
8, 193272, Note_on_c, 6, 79, 0
8, 193296, Note_on_c, 6, 81, 115
8, 193320, Note_on_c, 6, 81, 0
8, 193344, Note_on_c, 6, 82, 115
8, 193368, Note_on_c, 6, 82, 0
8, 193392, Note_on_c, 6, 81, 120
8, 193416, Note_on_c, 6, 81, 0
8, 193440, Note_on_c, 6, 82, 115
8, 193464, Note_on_c, 6, 82, 0
8, 193488, Note_on_c, 6, 84, 115
8, 193512, Note_on_c, 6, 84, 0
8, 193536, Note_on_c, 6, 82, 120
8, 193560, Note_on_c, 6, 82, 0
8, 193584, Note_on_c, 6, 81, 115
8, 193608, Note_on_c, 6, 81, 0
8, 193632, Note_on_c, 6, 79, 115
8, 193656, Note_on_c, 6, 79, 0
8, 193680, Note_on_c, 6, 75, 105
8, 193704, Note_on_c, 6, 75, 0
8, 193728, Note_on_c, 6, 74, 100
8, 193752, Note_on_c, 6, 74, 0
8, 193776, Note_on_c, 6, 72, 100
8, 193800, Note_on_c, 6, 72, 0
8, 193824, Note_on_c, 6, 70, 105
8, 193848, Note_on_c, 6, 70, 0
8, 193872, Note_on_c, 6, 69, 100
8, 193896, Note_on_c, 6, 69, 0
8, 193920, Note_on_c, 6, 67, 100
8, 193944, Note_on_c, 6, 67, 0
8, 193968, Note_on_c, 6, 77, 105
8, 193992, Note_on_c, 6, 77, 0
8, 194016, Note_on_c, 6, 75, 100
8, 194040, Note_on_c, 6, 75, 0
8, 194064, Note_on_c, 6, 74, 100
8, 194088, Note_on_c, 6, 74, 0
8, 194112, Note_on_c, 6, 72, 105
8, 194136, Note_on_c, 6, 72, 0
8, 194160, Note_on_c, 6, 70, 100
8, 194184, Note_on_c, 6, 70, 0
8, 194208, Note_on_c, 6, 69, 100
8, 194232, Note_on_c, 6, 69, 0
8, 194256, Note_on_c, 6, 69, 105
8, 194280, Note_on_c, 6, 69, 0
8, 194304, Note_on_c, 6, 70, 100
8, 194328, Note_on_c, 6, 70, 0
8, 194352, Note_on_c, 6, 72, 100
8, 194376, Note_on_c, 6, 72, 0
8, 194400, Note_on_c, 6, 74, 105
8, 194424, Note_on_c, 6, 74, 0
8, 194448, Note_on_c, 6, 75, 100
8, 194472, Note_on_c, 6, 75, 0
8, 194496, Note_on_c, 6, 77, 100
8, 194520, Note_on_c, 6, 77, 0
8, 194544, Note_on_c, 6, 79, 105
8, 194568, Note_on_c, 6, 79, 0
8, 194592, Note_on_c, 6, 81, 100
8, 194616, Note_on_c, 6, 81, 0
8, 194640, Note_on_c, 6, 82, 100
8, 194664, Note_on_c, 6, 82, 0
8, 194688, Note_on_c, 6, 84, 105
8, 194712, Note_on_c, 6, 84, 0
8, 194736, Note_on_c, 6, 86, 100
8, 194760, Note_on_c, 6, 86, 0
8, 194784, Note_on_c, 6, 75, 100
8, 194808, Note_on_c, 6, 75, 0
8, 194832, Control_c, 6, 1, 0
8, 194832, Note_on_c, 6, 77, 100
8, 194833, Control_c, 6, 1, 1
8, 194834, Control_c, 6, 1, 2
8, 194835, Control_c, 6, 1, 3
8, 194836, Control_c, 6, 1, 4
8, 194838, Control_c, 6, 1, 5
8, 194840, Control_c, 6, 1, 6
8, 194841, Control_c, 6, 1, 7
8, 194843, Control_c, 6, 1, 8
8, 194845, Control_c, 6, 1, 9
8, 194848, Control_c, 6, 1, 10
8, 194850, Control_c, 6, 1, 11
8, 194853, Control_c, 6, 1, 12
8, 194856, Control_c, 6, 11, 60
8, 194856, Control_c, 6, 1, 13
8, 194859, Control_c, 6, 1, 14
8, 194863, Control_c, 6, 1, 15
8, 194868, Control_c, 6, 1, 16
8, 194873, Control_c, 6, 1, 17
8, 194881, Control_c, 6, 1, 18
8, 194891, Control_c, 6, 1, 19
8, 194909, Control_c, 6, 1, 20
8, 195120, Control_c, 6, 11, 60
8, 195140, Control_c, 6, 11, 61
8, 195159, Control_c, 6, 11, 62
8, 195178, Control_c, 6, 11, 63
8, 195197, Control_c, 6, 11, 64
8, 195216, Control_c, 6, 11, 65
8, 195235, Control_c, 6, 11, 66
8, 195255, Control_c, 6, 11, 67
8, 195264, Note_on_c, 6, 75, 100
8, 195265, Note_on_c, 6, 77, 0
8, 195274, Control_c, 6, 11, 68
8, 195293, Control_c, 6, 11, 69
8, 195312, Control_c, 6, 11, 70
8, 195331, Control_c, 6, 11, 71
8, 195350, Control_c, 6, 11, 72
8, 195370, Control_c, 6, 11, 73
8, 195389, Control_c, 6, 11, 74
8, 195408, Control_c, 6, 11, 75
8, 195427, Control_c, 6, 11, 76
8, 195446, Control_c, 6, 11, 77
8, 195465, Control_c, 6, 11, 78
8, 195485, Control_c, 6, 11, 79
8, 195504, Control_c, 6, 11, 80
8, 195523, Control_c, 6, 11, 81
8, 195542, Control_c, 6, 11, 82
8, 195552, Note_on_c, 6, 74, 100
8, 195553, Note_on_c, 6, 75, 0
8, 195561, Control_c, 6, 11, 83
8, 195580, Control_c, 6, 11, 84
8, 195600, Control_c, 6, 11, 85
8, 195619, Control_c, 6, 11, 86
8, 195638, Control_c, 6, 11, 87
8, 195657, Control_c, 6, 11, 88
8, 195676, Control_c, 6, 11, 89
8, 195695, Control_c, 6, 11, 90
8, 195696, Control_c, 6, 11, 90
8, 195696, Note_on_c, 6, 73, 100
8, 195697, Note_on_c, 6, 74, 0
8, 195706, Control_c, 6, 11, 89
8, 195716, Control_c, 6, 11, 88
8, 195725, Control_c, 6, 11, 87
8, 195735, Control_c, 6, 11, 86
8, 195744, Control_c, 6, 11, 85
8, 195754, Control_c, 6, 11, 84
8, 195763, Control_c, 6, 11, 83
8, 195773, Control_c, 6, 11, 82
8, 195783, Control_c, 6, 11, 81
8, 195792, Control_c, 6, 11, 80
8, 195802, Control_c, 6, 11, 79
8, 195811, Control_c, 6, 11, 78
8, 195821, Control_c, 6, 11, 77
8, 195830, Control_c, 6, 11, 76
8, 195840, Note_on_c, 6, 72, 100
8, 195840, Control_c, 6, 11, 75
8, 195841, Note_on_c, 6, 73, 0
8, 195850, Control_c, 6, 11, 74
8, 195859, Control_c, 6, 11, 73
8, 195869, Control_c, 6, 11, 72
8, 195878, Control_c, 6, 11, 71
8, 195888, Control_c, 6, 11, 70
8, 195897, Control_c, 6, 11, 69
8, 195907, Control_c, 6, 11, 68
8, 195917, Control_c, 6, 11, 67
8, 195926, Control_c, 6, 11, 66
8, 195936, Control_c, 6, 11, 65
8, 195945, Control_c, 6, 11, 64
8, 195955, Control_c, 6, 11, 63
8, 195964, Control_c, 6, 11, 62
8, 195974, Control_c, 6, 11, 61
8, 195983, Control_c, 6, 11, 60
8, 195984, Control_c, 6, 1, 0
8, 195984, Note_on_c, 6, 82, 100
8, 195985, Note_on_c, 6, 72, 0
8, 195985, Control_c, 6, 1, 1
8, 195986, Control_c, 6, 1, 2
8, 195987, Control_c, 6, 1, 3
8, 195988, Control_c, 6, 1, 4
8, 195990, Control_c, 6, 1, 5
8, 195992, Control_c, 6, 1, 6
8, 195993, Control_c, 6, 1, 7
8, 195995, Control_c, 6, 1, 8
8, 195997, Control_c, 6, 1, 9
8, 196000, Control_c, 6, 1, 10
8, 196002, Control_c, 6, 1, 11
8, 196005, Control_c, 6, 1, 12
8, 196008, Control_c, 6, 1, 13
8, 196011, Control_c, 6, 1, 14
8, 196015, Control_c, 6, 1, 15
8, 196020, Control_c, 6, 1, 16
8, 196025, Control_c, 6, 1, 17
8, 196033, Control_c, 6, 1, 18
8, 196043, Control_c, 6, 1, 19
8, 196061, Control_c, 6, 1, 20
8, 196272, Note_on_c, 6, 81, 100
8, 196273, Note_on_c, 6, 82, 0
8, 196416, Control_c, 6, 11, 60
8, 196431, Control_c, 6, 11, 61
8, 196445, Control_c, 6, 11, 62
8, 196460, Control_c, 6, 11, 63
8, 196474, Control_c, 6, 11, 64
8, 196488, Control_c, 6, 11, 65
8, 196503, Control_c, 6, 11, 66
8, 196517, Control_c, 6, 11, 67
8, 196531, Control_c, 6, 11, 68
8, 196546, Control_c, 6, 11, 69
8, 196560, Note_on_c, 6, 83, 100
8, 196560, Control_c, 6, 11, 70
8, 196575, Control_c, 6, 11, 71
8, 196589, Control_c, 6, 11, 72
8, 196603, Control_c, 6, 11, 73
8, 196618, Control_c, 6, 11, 74
8, 196632, Control_c, 6, 11, 75
8, 196646, Control_c, 6, 11, 76
8, 196661, Control_c, 6, 11, 77
8, 196675, Control_c, 6, 11, 78
8, 196690, Control_c, 6, 11, 79
8, 196704, Note_on_c, 6, 79, 100
8, 196704, Control_c, 6, 11, 80
8, 196705, Note_on_c, 6, 81, 0
8, 196718, Control_c, 6, 11, 81
8, 196733, Control_c, 6, 11, 82
8, 196747, Control_c, 6, 11, 83
8, 196761, Control_c, 6, 11, 84
8, 196776, Control_c, 6, 11, 85
8, 196790, Control_c, 6, 11, 86
8, 196805, Control_c, 6, 11, 87
8, 196819, Control_c, 6, 11, 88
8, 196833, Control_c, 6, 11, 89
8, 196848, Note_on_c, 6, 82, 100
8, 196848, Control_c, 6, 11, 90
8, 196849, Note_on_c, 6, 83, 0
8, 196862, Control_c, 6, 11, 91
8, 196876, Control_c, 6, 11, 92
8, 196891, Control_c, 6, 11, 93
8, 196905, Control_c, 6, 11, 94
8, 196920, Control_c, 6, 11, 95
8, 196934, Control_c, 6, 11, 96
8, 196948, Control_c, 6, 11, 97
8, 196963, Control_c, 6, 11, 98
8, 196977, Control_c, 6, 11, 99
8, 196991, Control_c, 6, 11, 100
8, 196992, Control_c, 6, 11, 100
8, 196992, Note_on_c, 6, 78, 100
8, 196992, Note_on_c, 6, 81, 100
8, 196993, Note_on_c, 6, 82, 0
8, 196993, Note_on_c, 6, 79, 0
8, 197003, Control_c, 6, 11, 99
8, 197014, Control_c, 6, 11, 98
8, 197025, Control_c, 6, 11, 97
8, 197036, Control_c, 6, 11, 96
8, 197046, Control_c, 6, 11, 95
8, 197057, Control_c, 6, 11, 94
8, 197068, Control_c, 6, 11, 93
8, 197079, Control_c, 6, 11, 92
8, 197089, Control_c, 6, 11, 91
8, 197100, Control_c, 6, 11, 90
8, 197111, Control_c, 6, 11, 89
8, 197122, Control_c, 6, 11, 88
8, 197133, Control_c, 6, 11, 87
8, 197136, Note_on_c, 6, 77, 100
8, 197137, Note_on_c, 6, 78, 0
8, 197143, Control_c, 6, 11, 86
8, 197154, Control_c, 6, 11, 85
8, 197165, Control_c, 6, 11, 84
8, 197176, Control_c, 6, 11, 83
8, 197186, Control_c, 6, 11, 82
8, 197197, Control_c, 6, 11, 81
8, 197208, Control_c, 6, 11, 80
8, 197219, Control_c, 6, 11, 79
8, 197230, Control_c, 6, 11, 78
8, 197240, Control_c, 6, 11, 77
8, 197251, Control_c, 6, 11, 76
8, 197262, Control_c, 6, 11, 75
8, 197273, Control_c, 6, 11, 74
8, 197280, Note_on_c, 6, 76, 100
8, 197281, Note_on_c, 6, 77, 0
8, 197283, Control_c, 6, 11, 73
8, 197294, Control_c, 6, 11, 72
8, 197305, Control_c, 6, 11, 71
8, 197316, Control_c, 6, 11, 70
8, 197327, Control_c, 6, 11, 69
8, 197337, Control_c, 6, 11, 68
8, 197348, Control_c, 6, 11, 67
8, 197359, Control_c, 6, 11, 66
8, 197370, Control_c, 6, 11, 65
8, 197380, Control_c, 6, 11, 64
8, 197391, Control_c, 6, 11, 63
8, 197402, Control_c, 6, 11, 62
8, 197413, Control_c, 6, 11, 61
8, 197423, Control_c, 6, 11, 60
8, 197424, Note_on_c, 6, 81, 0
8, 197424, Note_on_c, 6, 76, 0
8, 198720, Control_c, 6, 11, 60
8, 198720, Control_c, 6, 1, 0
8, 198720, Note_on_c, 6, 78, 100
8, 198721, Control_c, 6, 1, 1
8, 198722, Control_c, 6, 1, 2
8, 198723, Control_c, 6, 1, 3
8, 198724, Control_c, 6, 1, 4
8, 198726, Control_c, 6, 1, 5
8, 198728, Control_c, 6, 1, 6
8, 198729, Control_c, 6, 1, 7
8, 198731, Control_c, 6, 1, 8
8, 198733, Control_c, 6, 1, 9
8, 198736, Control_c, 6, 1, 10
8, 198737, Control_c, 6, 11, 61
8, 198738, Control_c, 6, 1, 11
8, 198741, Control_c, 6, 1, 12
8, 198744, Control_c, 6, 1, 13
8, 198747, Control_c, 6, 1, 14
8, 198751, Control_c, 6, 1, 15
8, 198754, Control_c, 6, 11, 62
8, 198756, Control_c, 6, 1, 16
8, 198761, Control_c, 6, 1, 17
8, 198769, Control_c, 6, 1, 18
8, 198771, Control_c, 6, 11, 63
8, 198779, Control_c, 6, 1, 19
8, 198788, Control_c, 6, 11, 64
8, 198797, Control_c, 6, 1, 20
8, 198804, Control_c, 6, 11, 65
8, 198821, Control_c, 6, 11, 66
8, 198838, Control_c, 6, 11, 67
8, 198855, Control_c, 6, 11, 68
8, 198864, Note_on_c, 6, 75, 100
8, 198872, Control_c, 6, 11, 69
8, 198888, Control_c, 6, 11, 70
8, 198905, Control_c, 6, 11, 71
8, 198922, Control_c, 6, 11, 72
8, 198939, Control_c, 6, 11, 73
8, 198955, Control_c, 6, 11, 74
8, 198972, Control_c, 6, 11, 75
8, 198989, Control_c, 6, 11, 76
8, 199006, Control_c, 6, 11, 77
8, 199008, Note_on_c, 6, 76, 100
8, 199008, Note_on_c, 6, 79, 100
8, 199009, Note_on_c, 6, 78, 0
8, 199009, Note_on_c, 6, 75, 0
8, 199023, Control_c, 6, 11, 78
8, 199039, Control_c, 6, 11, 79
8, 199056, Control_c, 6, 11, 80
8, 199073, Control_c, 6, 11, 81
8, 199090, Control_c, 6, 11, 82
8, 199107, Control_c, 6, 11, 83
8, 199123, Control_c, 6, 11, 84
8, 199140, Control_c, 6, 11, 85
8, 199152, Note_on_c, 6, 73, 100
8, 199153, Note_on_c, 6, 79, 0
8, 199157, Control_c, 6, 11, 86
8, 199174, Control_c, 6, 11, 87
8, 199190, Control_c, 6, 11, 88
8, 199207, Control_c, 6, 11, 89
8, 199224, Control_c, 6, 11, 90
8, 199241, Control_c, 6, 11, 91
8, 199258, Control_c, 6, 11, 92
8, 199274, Control_c, 6, 11, 93
8, 199291, Control_c, 6, 11, 94
8, 199296, Note_on_c, 6, 74, 100
8, 199296, Note_on_c, 6, 78, 100
8, 199297, Note_on_c, 6, 76, 0
8, 199297, Note_on_c, 6, 73, 0
8, 199308, Control_c, 6, 11, 95
8, 199325, Control_c, 6, 11, 96
8, 199341, Control_c, 6, 11, 97
8, 199358, Control_c, 6, 11, 98
8, 199375, Control_c, 6, 11, 99
8, 199392, Control_c, 6, 11, 100
8, 199409, Control_c, 6, 11, 101
8, 199425, Control_c, 6, 11, 102
8, 199440, Note_on_c, 6, 81, 100
8, 199441, Note_on_c, 6, 78, 0
8, 199442, Control_c, 6, 11, 103
8, 199459, Control_c, 6, 11, 104
8, 199476, Control_c, 6, 11, 105
8, 199493, Control_c, 6, 11, 106
8, 199509, Control_c, 6, 11, 107
8, 199526, Control_c, 6, 11, 108
8, 199543, Control_c, 6, 11, 109
8, 199560, Control_c, 6, 11, 110
8, 199576, Control_c, 6, 11, 111
8, 199584, Note_on_c, 6, 73, 100
8, 199585, Note_on_c, 6, 74, 0
8, 199593, Control_c, 6, 11, 112
8, 199610, Control_c, 6, 11, 113
8, 199627, Control_c, 6, 11, 114
8, 199644, Control_c, 6, 11, 115
8, 199660, Control_c, 6, 11, 116
8, 199677, Control_c, 6, 11, 117
8, 199678, Note_on_c, 6, 81, 0
8, 199678, Note_on_c, 6, 73, 0
8, 199680, Note_on_c, 6, 73, 100
8, 199694, Control_c, 6, 11, 118
8, 199711, Control_c, 6, 11, 119
8, 199727, Control_c, 6, 11, 120
8, 199728, Note_on_c, 6, 73, 0
8, 199728, Control_c, 6, 1, 0
8, 199728, Note_on_c, 6, 74, 113
8, 199824, Note_on_c, 6, 74, 0
8, 199824, Note_on_c, 6, 76, 111
8, 199848, Note_on_c, 6, 76, 0
8, 199848, Note_on_c, 6, 78, 112
8, 199872, Note_on_c, 6, 78, 0
8, 199872, Note_on_c, 6, 79, 113
8, 199896, Note_on_c, 6, 79, 0
8, 199968, Note_on_c, 6, 78, 110
8, 199992, Note_on_c, 6, 78, 0
8, 200016, Note_on_c, 6, 76, 113
8, 200040, Note_on_c, 6, 76, 0
8, 200112, Note_on_c, 6, 74, 110
8, 200136, Note_on_c, 6, 74, 0
8, 200160, Note_on_c, 6, 76, 113
8, 200184, Note_on_c, 6, 76, 0
8, 200256, Note_on_c, 6, 73, 110
8, 200280, Note_on_c, 6, 73, 0
8, 200304, Note_on_c, 6, 74, 113
8, 200304, Note_on_c, 6, 78, 113
8, 200400, Note_on_c, 6, 78, 0
8, 200400, Note_on_c, 6, 74, 0
8, 200400, Note_on_c, 6, 76, 111
8, 200400, Note_on_c, 6, 79, 111
8, 200424, Note_on_c, 6, 79, 0
8, 200424, Note_on_c, 6, 76, 0
8, 200424, Note_on_c, 6, 78, 112
8, 200424, Note_on_c, 6, 81, 112
8, 200448, Note_on_c, 6, 81, 0
8, 200448, Note_on_c, 6, 78, 0
8, 200448, Note_on_c, 6, 79, 113
8, 200448, Note_on_c, 6, 83, 113
8, 200472, Note_on_c, 6, 83, 0
8, 200472, Note_on_c, 6, 79, 0
8, 200544, Note_on_c, 6, 78, 110
8, 200544, Note_on_c, 6, 81, 110
8, 200568, Note_on_c, 6, 81, 0
8, 200568, Note_on_c, 6, 78, 0
8, 200592, Note_on_c, 6, 76, 113
8, 200592, Note_on_c, 6, 79, 113
8, 200616, Note_on_c, 6, 79, 0
8, 200616, Note_on_c, 6, 76, 0
8, 200688, Note_on_c, 6, 74, 110
8, 200688, Note_on_c, 6, 78, 110
8, 200712, Note_on_c, 6, 78, 0
8, 200712, Note_on_c, 6, 74, 0
8, 200736, Note_on_c, 6, 76, 113
8, 200736, Note_on_c, 6, 79, 113
8, 200760, Note_on_c, 6, 79, 0
8, 200760, Note_on_c, 6, 76, 0
8, 200832, Note_on_c, 6, 73, 110
8, 200832, Note_on_c, 6, 76, 110
8, 200856, Note_on_c, 6, 76, 0
8, 200856, Note_on_c, 6, 73, 0
8, 200880, Note_on_c, 6, 74, 113
8, 200904, Note_on_c, 6, 74, 0
8, 200928, Note_on_c, 6, 65, 110
8, 200928, Note_on_c, 6, 74, 110
8, 200976, Note_on_c, 6, 74, 0
8, 200976, Note_on_c, 6, 65, 0
8, 200976, Note_on_c, 6, 67, 111
8, 200976, Note_on_c, 6, 76, 111
8, 201000, Note_on_c, 6, 76, 0
8, 201000, Note_on_c, 6, 67, 0
8, 201000, Note_on_c, 6, 69, 112
8, 201000, Note_on_c, 6, 77, 112
8, 201024, Note_on_c, 6, 77, 0
8, 201024, Note_on_c, 6, 69, 0
8, 201024, Note_on_c, 6, 70, 113
8, 201024, Note_on_c, 6, 79, 113
8, 201048, Note_on_c, 6, 79, 0
8, 201048, Note_on_c, 6, 70, 0
8, 201072, Note_on_c, 6, 70, 110
8, 201072, Note_on_c, 6, 79, 110
8, 201096, Note_on_c, 6, 79, 0
8, 201096, Note_on_c, 6, 70, 0
8, 201120, Note_on_c, 6, 69, 110
8, 201120, Note_on_c, 6, 77, 110
8, 201144, Note_on_c, 6, 77, 0
8, 201144, Note_on_c, 6, 69, 0
8, 201168, Note_on_c, 6, 67, 113
8, 201168, Note_on_c, 6, 76, 113
8, 201192, Note_on_c, 6, 76, 0
8, 201192, Note_on_c, 6, 67, 0
8, 201216, Note_on_c, 6, 67, 110
8, 201216, Note_on_c, 6, 76, 110
8, 201240, Note_on_c, 6, 76, 0
8, 201240, Note_on_c, 6, 67, 0
8, 201264, Note_on_c, 6, 65, 110
8, 201264, Note_on_c, 6, 74, 110
8, 201288, Note_on_c, 6, 74, 0
8, 201288, Note_on_c, 6, 65, 0
8, 201312, Note_on_c, 6, 67, 113
8, 201312, Note_on_c, 6, 76, 113
8, 201336, Note_on_c, 6, 76, 0
8, 201336, Note_on_c, 6, 67, 0
8, 201360, Note_on_c, 6, 67, 110
8, 201360, Note_on_c, 6, 76, 110
8, 201384, Note_on_c, 6, 76, 0
8, 201384, Note_on_c, 6, 67, 0
8, 201408, Note_on_c, 6, 64, 110
8, 201408, Note_on_c, 6, 73, 110
8, 201432, Note_on_c, 6, 73, 0
8, 201432, Note_on_c, 6, 64, 0
8, 201456, Note_on_c, 6, 74, 113
8, 201456, Note_on_c, 6, 77, 113
8, 201480, Note_on_c, 6, 77, 0
8, 201480, Note_on_c, 6, 74, 0
8, 201504, Note_on_c, 6, 74, 111
8, 201504, Note_on_c, 6, 77, 111
8, 201552, Note_on_c, 6, 77, 0
8, 201552, Note_on_c, 6, 74, 0
8, 201552, Note_on_c, 6, 76, 112
8, 201552, Note_on_c, 6, 79, 112
8, 201576, Note_on_c, 6, 79, 0
8, 201576, Note_on_c, 6, 76, 0
8, 201576, Note_on_c, 6, 77, 113
8, 201576, Note_on_c, 6, 81, 113
8, 201600, Note_on_c, 6, 81, 0
8, 201600, Note_on_c, 6, 77, 0
8, 201600, Note_on_c, 6, 79, 113
8, 201600, Note_on_c, 6, 82, 113
8, 201624, Note_on_c, 6, 82, 0
8, 201624, Note_on_c, 6, 79, 0
8, 201648, Note_on_c, 6, 79, 110
8, 201648, Note_on_c, 6, 82, 110
8, 201672, Note_on_c, 6, 82, 0
8, 201672, Note_on_c, 6, 79, 0
8, 201696, Note_on_c, 6, 77, 110
8, 201696, Note_on_c, 6, 81, 110
8, 201720, Note_on_c, 6, 81, 0
8, 201720, Note_on_c, 6, 77, 0
8, 201744, Note_on_c, 6, 76, 113
8, 201744, Note_on_c, 6, 79, 113
8, 201768, Note_on_c, 6, 79, 0
8, 201768, Note_on_c, 6, 76, 0
8, 201792, Note_on_c, 6, 76, 110
8, 201792, Note_on_c, 6, 79, 110
8, 201816, Note_on_c, 6, 79, 0
8, 201816, Note_on_c, 6, 76, 0
8, 201840, Note_on_c, 6, 74, 110
8, 201840, Note_on_c, 6, 77, 110
8, 201864, Note_on_c, 6, 77, 0
8, 201864, Note_on_c, 6, 74, 0
8, 201888, Note_on_c, 6, 76, 113
8, 201888, Note_on_c, 6, 79, 113
8, 201912, Note_on_c, 6, 79, 0
8, 201912, Note_on_c, 6, 76, 0
8, 201936, Note_on_c, 6, 76, 110
8, 201936, Note_on_c, 6, 79, 110
8, 201960, Note_on_c, 6, 79, 0
8, 201960, Note_on_c, 6, 76, 0
8, 201984, Note_on_c, 6, 73, 110
8, 201984, Note_on_c, 6, 76, 110
8, 202008, Note_on_c, 6, 76, 0
8, 202008, Note_on_c, 6, 73, 0
8, 202032, Note_on_c, 6, 77, 116
8, 202067, Note_on_c, 6, 77, 0
8, 202104, Note_on_c, 6, 65, 113
8, 202116, Note_on_c, 6, 65, 0
8, 202128, Note_on_c, 6, 65, 113
8, 202152, Note_on_c, 6, 65, 0
8, 202176, Note_on_c, 6, 77, 116
8, 202200, Note_on_c, 6, 77, 0
8, 202224, Note_on_c, 6, 79, 113
8, 202248, Note_on_c, 6, 79, 0
8, 202272, Note_on_c, 6, 81, 113
8, 202296, Note_on_c, 6, 81, 0
8, 202320, Note_on_c, 6, 82, 113
8, 202344, Note_on_c, 6, 82, 0
8, 202464, Note_on_c, 6, 70, 116
8, 202464, Note_on_c, 6, 82, 116
8, 202488, Note_on_c, 6, 82, 0
8, 202488, Note_on_c, 6, 70, 0
8, 202512, Note_on_c, 6, 72, 113
8, 202512, Note_on_c, 6, 84, 113
8, 202536, Note_on_c, 6, 84, 0
8, 202536, Note_on_c, 6, 72, 0
8, 202560, Note_on_c, 6, 74, 113
8, 202560, Note_on_c, 6, 86, 113
8, 202584, Note_on_c, 6, 86, 0
8, 202584, Note_on_c, 6, 74, 0
8, 202608, Note_on_c, 6, 76, 116
8, 202643, Note_on_c, 6, 76, 0
8, 202680, Note_on_c, 6, 64, 113
8, 202692, Note_on_c, 6, 64, 0
8, 202704, Note_on_c, 6, 64, 113
8, 202728, Note_on_c, 6, 64, 0
8, 202752, Note_on_c, 6, 64, 116
8, 202752, Note_on_c, 6, 76, 116
8, 202776, Note_on_c, 6, 76, 0
8, 202776, Note_on_c, 6, 64, 0
8, 202800, Note_on_c, 6, 65, 113
8, 202800, Note_on_c, 6, 77, 113
8, 202824, Note_on_c, 6, 77, 0
8, 202824, Note_on_c, 6, 65, 0
8, 202848, Note_on_c, 6, 67, 113
8, 202848, Note_on_c, 6, 79, 113
8, 202872, Note_on_c, 6, 79, 0
8, 202872, Note_on_c, 6, 67, 0
8, 202896, Note_on_c, 6, 69, 116
8, 202896, Note_on_c, 6, 81, 116
8, 202920, Note_on_c, 6, 81, 0
8, 202920, Note_on_c, 6, 69, 0
8, 203040, Note_on_c, 6, 69, 116
8, 203064, Note_on_c, 6, 69, 0
8, 203088, Note_on_c, 6, 74, 116
8, 203112, Note_on_c, 6, 74, 0
8, 203136, Note_on_c, 6, 76, 113
8, 203160, Note_on_c, 6, 76, 0
8, 203184, Note_on_c, 6, 74, 60
8, 203184, Note_on_c, 6, 78, 60
8, 203208, Note_on_c, 6, 78, 0
8, 203208, Note_on_c, 6, 74, 0
8, 203472, Note_on_c, 6, 74, 60
8, 203472, Note_on_c, 6, 79, 60
8, 203496, Note_on_c, 6, 79, 0
8, 203496, Note_on_c, 6, 74, 0
8, 204048, Control_c, 6, 1, 0
8, 204048, Control_c, 6, 11, 60
8, 204048, Note_on_c, 6, 75, 100
8, 204048, Note_on_c, 6, 79, 100
8, 204049, Control_c, 6, 1, 1
8, 204050, Control_c, 6, 1, 2
8, 204051, Control_c, 6, 1, 3
8, 204052, Control_c, 6, 1, 4
8, 204054, Control_c, 6, 1, 5
8, 204056, Control_c, 6, 1, 6
8, 204057, Control_c, 6, 1, 7
8, 204058, Control_c, 6, 11, 61
8, 204059, Control_c, 6, 1, 8
8, 204061, Control_c, 6, 1, 9
8, 204064, Control_c, 6, 1, 10
8, 204066, Control_c, 6, 1, 11
8, 204068, Control_c, 6, 11, 62
8, 204069, Control_c, 6, 1, 12
8, 204072, Control_c, 6, 1, 13
8, 204075, Control_c, 6, 1, 14
8, 204077, Control_c, 6, 11, 63
8, 204079, Control_c, 6, 1, 15
8, 204084, Control_c, 6, 1, 16
8, 204087, Control_c, 6, 11, 64
8, 204089, Control_c, 6, 1, 17
8, 204096, Control_c, 6, 11, 65
8, 204097, Control_c, 6, 1, 18
8, 204106, Control_c, 6, 11, 66
8, 204107, Control_c, 6, 1, 19
8, 204116, Control_c, 6, 11, 67
8, 204125, Control_c, 6, 11, 68
8, 204125, Control_c, 6, 1, 20
8, 204135, Control_c, 6, 11, 69
8, 204144, Control_c, 6, 11, 70
8, 204154, Control_c, 6, 11, 71
8, 204163, Control_c, 6, 11, 72
8, 204173, Control_c, 6, 11, 73
8, 204183, Control_c, 6, 11, 74
8, 204191, Note_on_c, 6, 79, 0
8, 204191, Note_on_c, 6, 75, 0
8, 204192, Note_on_c, 6, 75, 100
8, 204192, Note_on_c, 6, 79, 100
8, 204192, Control_c, 6, 11, 75
8, 204202, Control_c, 6, 11, 76
8, 204211, Control_c, 6, 11, 77
8, 204221, Control_c, 6, 11, 78
8, 204231, Control_c, 6, 11, 79
8, 204240, Control_c, 6, 11, 80
8, 204250, Control_c, 6, 11, 81
8, 204259, Control_c, 6, 11, 82
8, 204269, Control_c, 6, 11, 83
8, 204278, Control_c, 6, 11, 84
8, 204288, Control_c, 6, 11, 85
8, 204298, Control_c, 6, 11, 86
8, 204307, Control_c, 6, 11, 87
8, 204317, Control_c, 6, 11, 88
8, 204326, Control_c, 6, 11, 89
8, 204335, Note_on_c, 6, 79, 0
8, 204335, Note_on_c, 6, 75, 0
8, 204336, Note_on_c, 6, 76, 100
8, 204336, Note_on_c, 6, 79, 100
8, 204336, Control_c, 6, 11, 90
8, 204346, Control_c, 6, 11, 91
8, 204355, Control_c, 6, 11, 92
8, 204365, Control_c, 6, 11, 93
8, 204374, Control_c, 6, 11, 94
8, 204384, Control_c, 6, 11, 95
8, 204393, Control_c, 6, 11, 96
8, 204403, Control_c, 6, 11, 97
8, 204413, Control_c, 6, 11, 98
8, 204422, Control_c, 6, 11, 99
8, 204432, Control_c, 6, 11, 100
8, 204441, Control_c, 6, 11, 101
8, 204451, Control_c, 6, 11, 102
8, 204461, Control_c, 6, 11, 103
8, 204470, Control_c, 6, 11, 104
8, 204480, Control_c, 6, 11, 105
8, 204489, Control_c, 6, 11, 106
8, 204499, Control_c, 6, 11, 107
8, 204508, Control_c, 6, 11, 108
8, 204518, Control_c, 6, 11, 109
8, 204528, Note_on_c, 6, 79, 0
8, 204528, Note_on_c, 6, 76, 0
8, 204528, Note_on_c, 6, 74, 100
8, 204528, Note_on_c, 6, 77, 100
8, 204528, Control_c, 6, 11, 110
8, 204537, Control_c, 6, 11, 111
8, 204547, Control_c, 6, 11, 112
8, 204556, Control_c, 6, 11, 113
8, 204566, Control_c, 6, 11, 114
8, 204576, Note_on_c, 6, 77, 0
8, 204576, Note_on_c, 6, 74, 0
8, 204576, Note_on_c, 6, 76, 100
8, 204576, Note_on_c, 6, 79, 100
8, 204576, Control_c, 6, 11, 115
8, 204585, Control_c, 6, 11, 116
8, 204595, Control_c, 6, 11, 117
8, 204604, Control_c, 6, 11, 118
8, 204614, Control_c, 6, 11, 119
8, 204623, Control_c, 6, 11, 120
8, 204624, Note_on_c, 6, 79, 0
8, 204624, Note_on_c, 6, 76, 0
8, 204624, Control_c, 6, 1, 0
8, 204624, Note_on_c, 6, 69, 105
8, 204624, Note_on_c, 6, 81, 105
8, 204648, Note_on_c, 6, 81, 0
8, 204648, Note_on_c, 6, 69, 0
8, 204672, Note_on_c, 6, 65, 100
8, 204672, Note_on_c, 6, 77, 100
8, 204696, Note_on_c, 6, 77, 0
8, 204696, Note_on_c, 6, 65, 0
8, 204720, Note_on_c, 6, 70, 100
8, 204720, Note_on_c, 6, 82, 100
8, 204744, Note_on_c, 6, 82, 0
8, 204744, Note_on_c, 6, 70, 0
8, 204768, Note_on_c, 6, 67, 105
8, 204768, Note_on_c, 6, 79, 105
8, 204792, Note_on_c, 6, 79, 0
8, 204792, Note_on_c, 6, 67, 0
8, 204816, Note_on_c, 6, 64, 100
8, 204816, Note_on_c, 6, 76, 100
8, 204840, Note_on_c, 6, 76, 0
8, 204840, Note_on_c, 6, 64, 0
8, 204864, Note_on_c, 6, 69, 100
8, 204864, Note_on_c, 6, 81, 100
8, 204888, Note_on_c, 6, 81, 0
8, 204888, Note_on_c, 6, 69, 0
8, 204912, Note_on_c, 6, 65, 100
8, 204912, Note_on_c, 6, 77, 100
8, 204936, Note_on_c, 6, 77, 0
8, 204936, Note_on_c, 6, 65, 0
8, 205200, Note_on_c, 6, 77, 105
8, 205200, Note_on_c, 6, 81, 105
8, 205224, Note_on_c, 6, 81, 0
8, 205224, Note_on_c, 6, 77, 0
8, 205248, Note_on_c, 6, 65, 100
8, 205248, Note_on_c, 6, 77, 100
8, 205272, Note_on_c, 6, 77, 0
8, 205272, Note_on_c, 6, 65, 0
8, 205296, Note_on_c, 6, 70, 100
8, 205296, Note_on_c, 6, 82, 100
8, 205320, Note_on_c, 6, 82, 0
8, 205320, Note_on_c, 6, 70, 0
8, 205344, Note_on_c, 6, 67, 105
8, 205344, Note_on_c, 6, 79, 105
8, 205368, Note_on_c, 6, 79, 0
8, 205368, Note_on_c, 6, 67, 0
8, 205392, Note_on_c, 6, 64, 100
8, 205392, Note_on_c, 6, 76, 100
8, 205416, Note_on_c, 6, 76, 0
8, 205416, Note_on_c, 6, 64, 0
8, 205440, Note_on_c, 6, 69, 100
8, 205440, Note_on_c, 6, 81, 100
8, 205464, Note_on_c, 6, 81, 0
8, 205464, Note_on_c, 6, 69, 0
8, 205488, Note_on_c, 6, 69, 105
8, 205488, Note_on_c, 6, 81, 105
8, 205512, Note_on_c, 6, 81, 0
8, 205512, Note_on_c, 6, 69, 0
8, 205536, Note_on_c, 6, 69, 100
8, 205536, Note_on_c, 6, 81, 100
8, 205560, Note_on_c, 6, 81, 0
8, 205560, Note_on_c, 6, 69, 0
8, 205584, Note_on_c, 6, 69, 100
8, 205584, Note_on_c, 6, 81, 100
8, 205608, Note_on_c, 6, 81, 0
8, 205608, Note_on_c, 6, 69, 0
8, 205632, Note_on_c, 6, 69, 105
8, 205632, Note_on_c, 6, 81, 105
8, 205656, Note_on_c, 6, 81, 0
8, 205656, Note_on_c, 6, 69, 0
8, 205680, Note_on_c, 6, 69, 100
8, 205680, Note_on_c, 6, 81, 100
8, 205704, Note_on_c, 6, 81, 0
8, 205704, Note_on_c, 6, 69, 0
8, 205728, Note_on_c, 6, 69, 100
8, 205728, Note_on_c, 6, 81, 100
8, 205752, Note_on_c, 6, 81, 0
8, 205752, Note_on_c, 6, 69, 0
8, 205776, Note_on_c, 6, 74, 105
8, 205776, Note_on_c, 6, 77, 105
8, 205800, Note_on_c, 6, 77, 0
8, 205800, Note_on_c, 6, 74, 0
8, 205824, Note_on_c, 6, 77, 100
8, 205824, Note_on_c, 6, 81, 100
8, 205848, Note_on_c, 6, 81, 0
8, 205848, Note_on_c, 6, 77, 0
8, 205872, Note_on_c, 6, 77, 100
8, 205872, Note_on_c, 6, 81, 100
8, 205896, Note_on_c, 6, 81, 0
8, 205896, Note_on_c, 6, 77, 0
8, 205920, Note_on_c, 6, 79, 105
8, 205920, Note_on_c, 6, 81, 105
8, 205944, Note_on_c, 6, 81, 0
8, 205944, Note_on_c, 6, 79, 0
8, 205968, Note_on_c, 6, 79, 100
8, 205968, Note_on_c, 6, 81, 100
8, 205992, Note_on_c, 6, 81, 0
8, 205992, Note_on_c, 6, 79, 0
8, 206016, Note_on_c, 6, 79, 100
8, 206016, Note_on_c, 6, 81, 100
8, 206040, Note_on_c, 6, 81, 0
8, 206040, Note_on_c, 6, 79, 0
8, 206064, Note_on_c, 6, 77, 105
8, 206064, Note_on_c, 6, 81, 105
8, 206088, Note_on_c, 6, 81, 0
8, 206088, Note_on_c, 6, 77, 0
8, 206112, Note_on_c, 6, 77, 100
8, 206112, Note_on_c, 6, 81, 100
8, 206136, Note_on_c, 6, 81, 0
8, 206136, Note_on_c, 6, 77, 0
8, 206160, Note_on_c, 6, 77, 100
8, 206160, Note_on_c, 6, 81, 100
8, 206184, Note_on_c, 6, 81, 0
8, 206184, Note_on_c, 6, 77, 0
8, 206208, Note_on_c, 6, 79, 105
8, 206208, Note_on_c, 6, 81, 105
8, 206232, Note_on_c, 6, 81, 0
8, 206232, Note_on_c, 6, 79, 0
8, 206256, Note_on_c, 6, 79, 100
8, 206256, Note_on_c, 6, 81, 100
8, 206280, Note_on_c, 6, 81, 0
8, 206280, Note_on_c, 6, 79, 0
8, 206304, Note_on_c, 6, 79, 100
8, 206304, Note_on_c, 6, 81, 100
8, 206328, Note_on_c, 6, 81, 0
8, 206328, Note_on_c, 6, 79, 0
8, 206640, Control_c, 6, 1, 0
8, 206640, Note_on_c, 6, 67, 45
8, 206641, Control_c, 6, 1, 2
8, 206643, Control_c, 6, 1, 3
8, 206644, Control_c, 6, 1, 4
8, 206645, Control_c, 6, 1, 5
8, 206647, Control_c, 6, 1, 6
8, 206648, Control_c, 6, 1, 7
8, 206650, Control_c, 6, 1, 8
8, 206652, Control_c, 6, 1, 9
8, 206655, Control_c, 6, 1, 10
8, 206657, Control_c, 6, 1, 11
8, 206660, Control_c, 6, 1, 12
8, 206664, Control_c, 6, 1, 13
8, 206669, Control_c, 6, 1, 14
8, 206676, Control_c, 6, 1, 15
8, 206688, Note_on_c, 6, 67, 0
8, 206688, Note_on_c, 6, 73, 51
8, 206688, Control_c, 6, 1, 16
8, 206736, Note_on_c, 6, 73, 0
8, 206736, Note_on_c, 6, 76, 54
8, 206784, Note_on_c, 6, 76, 0
8, 206784, Note_on_c, 6, 79, 57
8, 206832, Note_on_c, 6, 79, 0
8, 206832, Note_on_c, 6, 76, 54
8, 206880, Note_on_c, 6, 76, 0
8, 206880, Note_on_c, 6, 73, 51
8, 206928, Note_on_c, 6, 73, 0
8, 206928, Control_c, 6, 1, 0
8, 206928, Note_on_c, 6, 74, 50
8, 206952, Note_on_c, 6, 74, 0
8, 207072, Note_on_c, 6, 74, 55
8, 207072, Note_on_c, 6, 77, 55
8, 207107, Note_on_c, 6, 77, 0
8, 207107, Note_on_c, 6, 74, 0
8, 207144, Note_on_c, 6, 65, 50
8, 207144, Note_on_c, 6, 69, 50
8, 207156, Note_on_c, 6, 69, 0
8, 207156, Note_on_c, 6, 65, 0
8, 207168, Note_on_c, 6, 65, 50
8, 207168, Note_on_c, 6, 69, 50
8, 207192, Note_on_c, 6, 69, 0
8, 207192, Note_on_c, 6, 65, 0
8, 207216, Note_on_c, 6, 65, 50
8, 207216, Note_on_c, 6, 69, 50
8, 207240, Note_on_c, 6, 69, 0
8, 207240, Note_on_c, 6, 65, 0
8, 207360, Note_on_c, 6, 74, 55
8, 207360, Note_on_c, 6, 77, 55
8, 207395, Note_on_c, 6, 77, 0
8, 207395, Note_on_c, 6, 74, 0
8, 207432, Note_on_c, 6, 69, 50
8, 207432, Note_on_c, 6, 74, 50
8, 207444, Note_on_c, 6, 74, 0
8, 207444, Note_on_c, 6, 69, 0
8, 207456, Note_on_c, 6, 69, 50
8, 207456, Note_on_c, 6, 74, 50
8, 207480, Note_on_c, 6, 74, 0
8, 207480, Note_on_c, 6, 69, 0
8, 207504, Note_on_c, 6, 69, 50
8, 207504, Note_on_c, 6, 74, 50
8, 207528, Note_on_c, 6, 74, 0
8, 207528, Note_on_c, 6, 69, 0
8, 208224, Note_on_c, 6, 74, 58
8, 208259, Note_on_c, 6, 74, 0
8, 208296, Note_on_c, 6, 74, 62
8, 208308, Note_on_c, 6, 74, 0
8, 208320, Note_on_c, 6, 74, 64
8, 208344, Note_on_c, 6, 74, 0
8, 208368, Note_on_c, 6, 74, 66
8, 208392, Note_on_c, 6, 74, 0
8, 208512, Note_on_c, 6, 74, 75
8, 208547, Note_on_c, 6, 74, 0
8, 208584, Note_on_c, 6, 74, 79
8, 208596, Note_on_c, 6, 74, 0
8, 208608, Note_on_c, 6, 74, 80
8, 208632, Note_on_c, 6, 74, 0
8, 208656, Note_on_c, 6, 74, 83
8, 208680, Note_on_c, 6, 74, 0
8, 208800, Note_on_c, 6, 74, 92
8, 208835, Note_on_c, 6, 74, 0
8, 208872, Note_on_c, 6, 74, 96
8, 208884, Note_on_c, 6, 74, 0
8, 208896, Note_on_c, 6, 74, 97
8, 208920, Note_on_c, 6, 74, 0
8, 208944, Note_on_c, 6, 74, 100
8, 208968, Note_on_c, 6, 74, 0
8, 209088, Note_on_c, 6, 73, 109
8, 209088, Note_on_c, 6, 76, 109
8, 209122, Note_on_c, 6, 73, 0
8, 209123, Note_on_c, 6, 76, 0
8, 209160, Note_on_c, 6, 73, 113
8, 209160, Note_on_c, 6, 76, 113
8, 209172, Note_on_c, 6, 76, 0
8, 209172, Note_on_c, 6, 73, 0
8, 209184, Control_c, 6, 1, 0
8, 209184, Note_on_c, 6, 73, 114
8, 209184, Note_on_c, 6, 76, 114
8, 209185, Control_c, 6, 1, 2
8, 209186, Control_c, 6, 1, 3
8, 209187, Control_c, 6, 1, 4
8, 209189, Control_c, 6, 1, 5
8, 209190, Control_c, 6, 1, 6
8, 209191, Control_c, 6, 1, 7
8, 209193, Control_c, 6, 1, 8
8, 209194, Control_c, 6, 1, 9
8, 209196, Control_c, 6, 1, 10
8, 209198, Control_c, 6, 1, 11
8, 209200, Control_c, 6, 1, 12
8, 209203, Control_c, 6, 1, 13
8, 209206, Control_c, 6, 1, 14
8, 209210, Control_c, 6, 1, 15
8, 209215, Control_c, 6, 1, 16
8, 209222, Control_c, 6, 1, 17
8, 209229, Note_on_c, 6, 76, 0
8, 209229, Note_on_c, 6, 73, 0
8, 209233, Control_c, 6, 1, 18
8, 209280, Control_c, 6, 1, 0
8, 210432, Note_on_c, 6, 81, 50
8, 210467, Note_on_c, 6, 81, 0
8, 210504, Note_on_c, 6, 69, 54
8, 210516, Note_on_c, 6, 69, 0
8, 210528, Note_on_c, 6, 69, 55
8, 210552, Note_on_c, 6, 69, 0
8, 210576, Note_on_c, 6, 74, 58
8, 210600, Note_on_c, 6, 74, 0
8, 210624, Note_on_c, 6, 76, 61
8, 210648, Note_on_c, 6, 76, 0
8, 210672, Note_on_c, 6, 77, 64
8, 210696, Note_on_c, 6, 77, 0
8, 210720, Note_on_c, 6, 81, 66
8, 210755, Note_on_c, 6, 81, 0
8, 210792, Note_on_c, 6, 69, 71
8, 210804, Note_on_c, 6, 69, 0
8, 210816, Note_on_c, 6, 69, 72
8, 210840, Note_on_c, 6, 69, 0
8, 210864, Note_on_c, 6, 74, 75
8, 210888, Note_on_c, 6, 74, 0
8, 210912, Note_on_c, 6, 76, 78
8, 210936, Note_on_c, 6, 76, 0
8, 210960, Note_on_c, 6, 77, 80
8, 210984, Note_on_c, 6, 77, 0
8, 211008, Note_on_c, 6, 81, 83
8, 211043, Note_on_c, 6, 81, 0
8, 211080, Note_on_c, 6, 69, 87
8, 211092, Note_on_c, 6, 69, 0
8, 211104, Note_on_c, 6, 69, 89
8, 211128, Note_on_c, 6, 69, 0
8, 211152, Note_on_c, 6, 74, 92
8, 211176, Note_on_c, 6, 74, 0
8, 211200, Note_on_c, 6, 76, 95
8, 211224, Note_on_c, 6, 76, 0
8, 211248, Note_on_c, 6, 77, 97
8, 211272, Note_on_c, 6, 77, 0
8, 211296, Note_on_c, 6, 81, 100
8, 211331, Note_on_c, 6, 81, 0
8, 211368, Note_on_c, 6, 69, 104
8, 211380, Note_on_c, 6, 69, 0
8, 211392, Note_on_c, 6, 69, 106
8, 211416, Note_on_c, 6, 69, 0
8, 211440, Note_on_c, 6, 74, 109
8, 211464, Note_on_c, 6, 74, 0
8, 211488, Note_on_c, 6, 76, 111
8, 211512, Note_on_c, 6, 76, 0
8, 211536, Note_on_c, 6, 77, 114
8, 211560, Note_on_c, 6, 77, 0
8, 211584, Note_on_c, 6, 81, 125
8, 211608, Note_on_c, 6, 81, 0
8, 211632, Note_on_c, 6, 69, 115
8, 211656, Note_on_c, 6, 69, 0
8, 211680, Note_on_c, 6, 74, 125
8, 211704, Note_on_c, 6, 74, 0
8, 211728, Note_on_c, 6, 62, 115
8, 211752, Note_on_c, 6, 62, 0
8, 211776, Note_on_c, 6, 69, 125
8, 211800, Note_on_c, 6, 69, 0
8, 211824, Note_on_c, 6, 69, 115
8, 211848, Note_on_c, 6, 69, 0
8, 211872, Note_on_c, 6, 81, 125
8, 211896, Note_on_c, 6, 81, 0
8, 211920, Note_on_c, 6, 69, 120
8, 211944, Note_on_c, 6, 69, 0
8, 211968, Control_c, 6, 1, 0
8, 211968, Control_c, 6, 11, 120
8, 211968, Note_on_c, 6, 74, 110
8, 211969, Control_c, 6, 1, 2
8, 211970, Control_c, 6, 1, 3
8, 211971, Control_c, 6, 1, 4
8, 211972, Control_c, 6, 11, 119
8, 211972, Control_c, 6, 1, 5
8, 211973, Control_c, 6, 1, 6
8, 211974, Control_c, 6, 1, 7
8, 211975, Control_c, 6, 11, 118
8, 211976, Control_c, 6, 1, 8
8, 211977, Control_c, 6, 1, 9
8, 211978, Control_c, 6, 11, 117
8, 211979, Control_c, 6, 1, 10
8, 211980, Control_c, 6, 1, 11
8, 211981, Control_c, 6, 11, 116
8, 211982, Control_c, 6, 1, 12
8, 211984, Control_c, 6, 11, 115
8, 211984, Control_c, 6, 1, 13
8, 211986, Control_c, 6, 1, 14
8, 211988, Control_c, 6, 11, 114
8, 211989, Control_c, 6, 1, 15
8, 211991, Control_c, 6, 11, 113
8, 211992, Control_c, 6, 1, 16
8, 211994, Control_c, 6, 11, 112
8, 211996, Control_c, 6, 1, 17
8, 211997, Control_c, 6, 11, 111
8, 212000, Control_c, 6, 11, 110
8, 212000, Control_c, 6, 1, 18
8, 212004, Control_c, 6, 11, 109
8, 212007, Control_c, 6, 11, 108
8, 212007, Control_c, 6, 1, 19
8, 212010, Control_c, 6, 11, 107
8, 212013, Control_c, 6, 11, 106
8, 212016, Control_c, 6, 11, 105
8, 212019, Control_c, 6, 11, 104
8, 212019, Control_c, 6, 1, 20
8, 212023, Control_c, 6, 11, 103
8, 212026, Control_c, 6, 11, 102
8, 212029, Control_c, 6, 11, 101
8, 212032, Control_c, 6, 11, 100
8, 212035, Control_c, 6, 11, 99
8, 212039, Control_c, 6, 11, 98
8, 212042, Control_c, 6, 11, 97
8, 212045, Control_c, 6, 11, 96
8, 212048, Control_c, 6, 11, 95
8, 212051, Control_c, 6, 11, 94
8, 212054, Control_c, 6, 11, 93
8, 212058, Control_c, 6, 11, 92
8, 212061, Control_c, 6, 11, 91
8, 212064, Control_c, 6, 11, 90
8, 212067, Control_c, 6, 11, 89
8, 212070, Control_c, 6, 11, 88
8, 212074, Control_c, 6, 11, 87
8, 212077, Control_c, 6, 11, 86
8, 212080, Control_c, 6, 11, 85
8, 212083, Control_c, 6, 11, 84
8, 212086, Control_c, 6, 11, 83
8, 212089, Control_c, 6, 11, 82
8, 212093, Control_c, 6, 11, 81
8, 212096, Control_c, 6, 11, 80
8, 212099, Control_c, 6, 11, 79
8, 212102, Control_c, 6, 11, 78
8, 212105, Control_c, 6, 11, 77
8, 212109, Control_c, 6, 11, 76
8, 212112, Control_c, 6, 11, 75
8, 212115, Control_c, 6, 11, 74
8, 212118, Control_c, 6, 11, 73
8, 212121, Control_c, 6, 11, 72
8, 212124, Control_c, 6, 11, 71
8, 212128, Control_c, 6, 11, 70
8, 212131, Control_c, 6, 11, 69
8, 212134, Control_c, 6, 11, 68
8, 212137, Control_c, 6, 11, 67
8, 212140, Control_c, 6, 11, 66
8, 212144, Control_c, 6, 11, 65
8, 212147, Control_c, 6, 11, 64
8, 212150, Control_c, 6, 11, 63
8, 212153, Control_c, 6, 11, 62
8, 212156, Control_c, 6, 11, 61
8, 212159, Control_c, 6, 11, 60
8, 212256, Note_on_c, 6, 76, 100
8, 212352, Note_on_c, 6, 76, 0
8, 212352, Note_on_c, 6, 74, 0
8, 212352, Control_c, 6, 11, 120
8, 212352, Control_c, 6, 1, 0
8, 212352, Control_c, 6, 1, 0
8, 212352, Note_on_c, 6, 74, 60
8, 212352, Note_on_c, 6, 78, 60
8, 212353, Control_c, 6, 1, 1
8, 212354, Control_c, 6, 1, 2
8, 212355, Control_c, 6, 1, 3
8, 212356, Control_c, 6, 1, 4
8, 212358, Control_c, 6, 1, 5
8, 212360, Control_c, 6, 1, 6
8, 212361, Control_c, 6, 1, 7
8, 212363, Control_c, 6, 1, 8
8, 212365, Control_c, 6, 1, 9
8, 212368, Control_c, 6, 1, 10
8, 212370, Control_c, 6, 1, 11
8, 212373, Control_c, 6, 1, 12
8, 212376, Control_c, 6, 1, 13
8, 212379, Control_c, 6, 1, 14
8, 212383, Control_c, 6, 1, 15
8, 212388, Control_c, 6, 1, 16
8, 212393, Control_c, 6, 1, 17
8, 212401, Control_c, 6, 1, 18
8, 212411, Control_c, 6, 1, 19
8, 212429, Control_c, 6, 1, 20
8, 212496, Note_on_c, 6, 78, 0
8, 212496, Note_on_c, 6, 74, 0
8, 212496, Note_on_c, 6, 76, 60
8, 212496, Note_on_c, 6, 79, 60
8, 212520, Note_on_c, 6, 79, 0
8, 212520, Note_on_c, 6, 76, 0
8, 212520, Note_on_c, 6, 78, 60
8, 212520, Note_on_c, 6, 81, 60
8, 212544, Note_on_c, 6, 81, 0
8, 212544, Note_on_c, 6, 78, 0
8, 212544, Control_c, 6, 1, 0
8, 212544, Note_on_c, 6, 74, 60
8, 212544, Note_on_c, 6, 79, 60
8, 212568, Note_on_c, 6, 79, 0
8, 212568, Note_on_c, 6, 74, 0
8, 212592, Note_on_c, 6, 76, 60
8, 212592, Note_on_c, 6, 79, 60
8, 212616, Note_on_c, 6, 79, 0
8, 212616, Note_on_c, 6, 76, 0
8, 212640, Note_on_c, 6, 74, 60
8, 212640, Note_on_c, 6, 78, 60
8, 212664, Note_on_c, 6, 78, 0
8, 212664, Note_on_c, 6, 74, 0
8, 212688, Note_on_c, 6, 62, 60
8, 212688, Note_on_c, 6, 78, 60
8, 212712, Note_on_c, 6, 78, 0
8, 212712, Note_on_c, 6, 62, 0
8, 212736, Note_on_c, 6, 76, 60
8, 212736, Note_on_c, 6, 73, 60
8, 212760, Note_on_c, 6, 73, 0
8, 212784, Note_on_c, 6, 69, 60
8, 212808, Note_on_c, 6, 69, 0
8, 212832, Note_on_c, 6, 76, 0
8, 212832, Control_c, 6, 1, 0
8, 212832, Note_on_c, 6, 74, 60
8, 212832, Note_on_c, 6, 66, 60
8, 212833, Control_c, 6, 1, 2
8, 212834, Control_c, 6, 1, 3
8, 212835, Control_c, 6, 1, 4
8, 212836, Control_c, 6, 1, 5
8, 212837, Control_c, 6, 1, 6
8, 212838, Control_c, 6, 1, 7
8, 212840, Control_c, 6, 1, 8
8, 212841, Control_c, 6, 1, 9
8, 212843, Control_c, 6, 1, 10
8, 212844, Control_c, 6, 1, 11
8, 212846, Control_c, 6, 1, 12
8, 212848, Control_c, 6, 1, 13
8, 212850, Control_c, 6, 1, 14
8, 212853, Control_c, 6, 1, 15
8, 212856, Note_on_c, 6, 66, 0
8, 212856, Control_c, 6, 1, 16
8, 212860, Control_c, 6, 1, 17
8, 212864, Control_c, 6, 1, 18
8, 212871, Control_c, 6, 1, 19
8, 212883, Control_c, 6, 1, 20
8, 213024, Note_on_c, 6, 76, 60
8, 213120, Note_on_c, 6, 76, 0
8, 213120, Note_on_c, 6, 74, 0
8, 213120, Control_c, 6, 1, 0
8, 213120, Note_on_c, 6, 74, 60
8, 213120, Note_on_c, 6, 78, 60
8, 213121, Control_c, 6, 1, 1
8, 213122, Control_c, 6, 1, 2
8, 213123, Control_c, 6, 1, 3
8, 213124, Control_c, 6, 1, 4
8, 213126, Control_c, 6, 1, 5
8, 213128, Control_c, 6, 1, 6
8, 213129, Control_c, 6, 1, 7
8, 213131, Control_c, 6, 1, 8
8, 213133, Control_c, 6, 1, 9
8, 213136, Control_c, 6, 1, 10
8, 213138, Control_c, 6, 1, 11
8, 213141, Control_c, 6, 1, 12
8, 213144, Control_c, 6, 1, 13
8, 213147, Control_c, 6, 1, 14
8, 213151, Control_c, 6, 1, 15
8, 213156, Control_c, 6, 1, 16
8, 213161, Control_c, 6, 1, 17
8, 213169, Control_c, 6, 1, 18
8, 213179, Control_c, 6, 1, 19
8, 213197, Control_c, 6, 1, 20
8, 213264, Note_on_c, 6, 78, 0
8, 213264, Note_on_c, 6, 74, 0
8, 213264, Note_on_c, 6, 76, 60
8, 213264, Note_on_c, 6, 79, 60
8, 213288, Note_on_c, 6, 79, 0
8, 213288, Note_on_c, 6, 76, 0
8, 213288, Note_on_c, 6, 78, 60
8, 213288, Note_on_c, 6, 81, 60
8, 213312, Note_on_c, 6, 81, 0
8, 213312, Note_on_c, 6, 78, 0
8, 213504, Control_c, 6, 1, 0
8, 213504, Control_c, 6, 11, 127
8, 213504, Note_on_c, 6, 81, 127
8, 213528, Note_on_c, 6, 81, 0
8, 213552, Note_on_c, 6, 69, 115
8, 213576, Note_on_c, 6, 69, 0
8, 213600, Note_on_c, 6, 74, 125
8, 213624, Note_on_c, 6, 74, 0
8, 213648, Note_on_c, 6, 62, 115
8, 213672, Note_on_c, 6, 62, 0
8, 213696, Note_on_c, 6, 69, 125
8, 213720, Note_on_c, 6, 69, 0
8, 213744, Note_on_c, 6, 69, 115
8, 213768, Note_on_c, 6, 69, 0
8, 213792, Note_on_c, 6, 81, 125
8, 213816, Note_on_c, 6, 81, 0
8, 213840, Note_on_c, 6, 69, 115
8, 213864, Note_on_c, 6, 69, 0
8, 213888, Note_on_c, 6, 62, 125
8, 213888, Note_on_c, 6, 74, 125
8, 213912, Note_on_c, 6, 74, 0
8, 213912, Note_on_c, 6, 62, 0
8, 214080, End_track
9, 0, Start_track
9, 0, Title_t, "Clarinetti in C(Do)"
9, 0, MIDI_port, 0
9, 180, Control_c, 7, 91, 50
9, 184, Control_c, 7, 93, 5
9, 188, Control_c, 7, 10, 69
9, 192, Control_c, 7, 7, 83
9, 194, Control_c, 7, 11, 120
9, 768, Control_c, 7, 1, 0
9, 912, Program_c, 7, 71
9, 912, Note_on_c, 7, 74, 110
9, 947, Note_on_c, 7, 74, 0
9, 984, Note_on_c, 7, 62, 100
9, 996, Note_on_c, 7, 62, 0
9, 1008, Note_on_c, 7, 62, 100
9, 1032, Note_on_c, 7, 62, 0
9, 1920, Note_on_c, 7, 74, 50
9, 1944, Note_on_c, 7, 74, 0
9, 2064, Note_on_c, 7, 69, 50
9, 2088, Note_on_c, 7, 69, 0
9, 2208, Note_on_c, 7, 71, 50
9, 2232, Note_on_c, 7, 71, 0
9, 2352, Note_on_c, 7, 72, 50
9, 2376, Note_on_c, 7, 72, 0
9, 2496, Note_on_c, 7, 70, 50
9, 2520, Note_on_c, 7, 70, 0
9, 2640, Note_on_c, 7, 65, 50
9, 2664, Note_on_c, 7, 65, 0
9, 2784, Note_on_c, 7, 61, 50
9, 2808, Note_on_c, 7, 61, 0
9, 2928, Note_on_c, 7, 62, 50
9, 2952, Note_on_c, 7, 62, 0
9, 3072, Note_on_c, 7, 69, 50
9, 3096, Note_on_c, 7, 69, 0
9, 3216, Note_on_c, 7, 69, 50
9, 3240, Note_on_c, 7, 69, 0
9, 3360, Note_on_c, 7, 64, 50
9, 3384, Note_on_c, 7, 64, 0
9, 3504, Note_on_c, 7, 64, 50
9, 3504, Note_on_c, 7, 76, 50
9, 3528, Note_on_c, 7, 76, 0
9, 3528, Note_on_c, 7, 64, 0
9, 3648, Note_on_c, 7, 64, 50
9, 3648, Note_on_c, 7, 73, 50
9, 3672, Note_on_c, 7, 73, 0
9, 3672, Note_on_c, 7, 64, 0
9, 3792, Note_on_c, 7, 69, 50
9, 3792, Note_on_c, 7, 74, 50
9, 3816, Note_on_c, 7, 74, 0
9, 3816, Note_on_c, 7, 69, 0
9, 3936, Note_on_c, 7, 69, 50
9, 3936, Note_on_c, 7, 79, 50
9, 3960, Note_on_c, 7, 79, 0
9, 3960, Note_on_c, 7, 69, 0
9, 4080, Note_on_c, 7, 69, 50
9, 4080, Note_on_c, 7, 74, 50
9, 4104, Note_on_c, 7, 74, 0
9, 4104, Note_on_c, 7, 69, 0
9, 4224, Note_on_c, 7, 69, 50
9, 4224, Note_on_c, 7, 74, 50
9, 4248, Note_on_c, 7, 74, 0
9, 4248, Note_on_c, 7, 69, 0
9, 4368, Note_on_c, 7, 69, 50
9, 4368, Note_on_c, 7, 76, 50
9, 4392, Note_on_c, 7, 76, 0
9, 4392, Note_on_c, 7, 69, 0
9, 4512, Note_on_c, 7, 71, 50
9, 4512, Note_on_c, 7, 76, 50
9, 4536, Note_on_c, 7, 76, 0
9, 4536, Note_on_c, 7, 71, 0
9, 4656, Note_on_c, 7, 72, 50
9, 4656, Note_on_c, 7, 76, 50
9, 4680, Note_on_c, 7, 76, 0
9, 4680, Note_on_c, 7, 72, 0
9, 4800, Note_on_c, 7, 67, 50
9, 4800, Note_on_c, 7, 76, 50
9, 4824, Note_on_c, 7, 76, 0
9, 4824, Note_on_c, 7, 67, 0
9, 4944, Note_on_c, 7, 69, 50
9, 4944, Note_on_c, 7, 74, 50
9, 4968, Note_on_c, 7, 74, 0
9, 4968, Note_on_c, 7, 69, 0
9, 5088, Note_on_c, 7, 64, 50
9, 5088, Note_on_c, 7, 69, 50
9, 5112, Note_on_c, 7, 69, 0
9, 5112, Note_on_c, 7, 64, 0
9, 5232, Note_on_c, 7, 65, 50
9, 5232, Note_on_c, 7, 69, 50
9, 5256, Note_on_c, 7, 69, 0
9, 5256, Note_on_c, 7, 65, 0
9, 5376, Note_on_c, 7, 62, 50
9, 5376, Note_on_c, 7, 74, 50
9, 5400, Note_on_c, 7, 74, 0
9, 5400, Note_on_c, 7, 62, 0
9, 5520, Note_on_c, 7, 64, 50
9, 5520, Note_on_c, 7, 69, 50
9, 5544, Note_on_c, 7, 69, 0
9, 5544, Note_on_c, 7, 64, 0
9, 5664, Note_on_c, 7, 59, 50
9, 5664, Note_on_c, 7, 71, 50
9, 5688, Note_on_c, 7, 71, 0
9, 5688, Note_on_c, 7, 59, 0
9, 5808, Note_on_c, 7, 60, 50
9, 5808, Note_on_c, 7, 69, 50
9, 5832, Note_on_c, 7, 69, 0
9, 5832, Note_on_c, 7, 60, 0
9, 5952, Note_on_c, 7, 61, 50
9, 5952, Note_on_c, 7, 64, 50
9, 5976, Note_on_c, 7, 64, 0
9, 5976, Note_on_c, 7, 61, 0
9, 6096, Note_on_c, 7, 57, 50
9, 6096, Note_on_c, 7, 69, 50
9, 6120, Note_on_c, 7, 69, 0
9, 6120, Note_on_c, 7, 57, 0
9, 6240, Note_on_c, 7, 61, 50
9, 6240, Note_on_c, 7, 69, 50
9, 6264, Note_on_c, 7, 69, 0
9, 6264, Note_on_c, 7, 61, 0
9, 6384, Note_on_c, 7, 65, 50
9, 6384, Note_on_c, 7, 69, 50
9, 6408, Note_on_c, 7, 69, 0
9, 6408, Note_on_c, 7, 65, 0
9, 6528, Control_c, 7, 1, 0
9, 6528, Control_c, 7, 11, 50
9, 6528, Note_on_c, 7, 65, 110
9, 6528, Note_on_c, 7, 69, 110
9, 6529, Control_c, 7, 1, 2
9, 6530, Control_c, 7, 1, 3
9, 6531, Control_c, 7, 1, 4
9, 6532, Control_c, 7, 1, 5
9, 6533, Control_c, 7, 1, 6
9, 6535, Control_c, 7, 1, 7
9, 6536, Control_c, 7, 1, 8
9, 6537, Control_c, 7, 1, 9
9, 6539, Control_c, 7, 1, 10
9, 6541, Control_c, 7, 1, 11
9, 6542, Control_c, 7, 1, 12
9, 6545, Control_c, 7, 1, 13
9, 6547, Control_c, 7, 1, 14
9, 6550, Control_c, 7, 1, 15
9, 6553, Control_c, 7, 11, 51
9, 6553, Control_c, 7, 1, 16
9, 6556, Control_c, 7, 1, 17
9, 6561, Control_c, 7, 1, 18
9, 6569, Control_c, 7, 1, 19
9, 6578, Control_c, 7, 11, 52
9, 6581, Control_c, 7, 1, 20
9, 6603, Control_c, 7, 11, 53
9, 6627, Control_c, 7, 11, 54
9, 6652, Control_c, 7, 11, 55
9, 6677, Control_c, 7, 11, 56
9, 6701, Control_c, 7, 11, 57
9, 6726, Control_c, 7, 11, 58
9, 6751, Control_c, 7, 11, 59
9, 6775, Control_c, 7, 11, 60
9, 6800, Control_c, 7, 11, 61
9, 6825, Control_c, 7, 11, 62
9, 6849, Control_c, 7, 11, 63
9, 6874, Control_c, 7, 11, 64
9, 6899, Control_c, 7, 11, 65
9, 6923, Control_c, 7, 11, 66
9, 6948, Control_c, 7, 11, 67
9, 6973, Control_c, 7, 11, 68
9, 6997, Control_c, 7, 11, 69
9, 7022, Control_c, 7, 11, 70
9, 7047, Control_c, 7, 11, 71
9, 7071, Control_c, 7, 11, 72
9, 7096, Control_c, 7, 11, 73
9, 7121, Control_c, 7, 11, 74
9, 7145, Control_c, 7, 11, 75
9, 7170, Control_c, 7, 11, 76
9, 7195, Control_c, 7, 11, 77
9, 7219, Control_c, 7, 11, 78
9, 7244, Control_c, 7, 11, 79
9, 7269, Control_c, 7, 11, 80
9, 7293, Control_c, 7, 11, 81
9, 7318, Control_c, 7, 11, 82
9, 7343, Control_c, 7, 11, 83
9, 7367, Control_c, 7, 11, 84
9, 7392, Control_c, 7, 11, 85
9, 7417, Control_c, 7, 11, 86
9, 7441, Control_c, 7, 11, 87
9, 7466, Control_c, 7, 11, 88
9, 7491, Control_c, 7, 11, 89
9, 7515, Control_c, 7, 11, 90
9, 7540, Control_c, 7, 11, 91
9, 7565, Control_c, 7, 11, 92
9, 7589, Control_c, 7, 11, 93
9, 7614, Control_c, 7, 11, 94
9, 7639, Control_c, 7, 11, 95
9, 7663, Control_c, 7, 11, 96
9, 7688, Control_c, 7, 11, 97
9, 7713, Control_c, 7, 11, 98
9, 7737, Control_c, 7, 11, 99
9, 7762, Control_c, 7, 11, 100
9, 7787, Control_c, 7, 11, 101
9, 7811, Control_c, 7, 11, 102
9, 7836, Control_c, 7, 11, 103
9, 7861, Control_c, 7, 11, 104
9, 7885, Control_c, 7, 11, 105
9, 7910, Control_c, 7, 11, 106
9, 7935, Control_c, 7, 11, 107
9, 7959, Control_c, 7, 11, 108
9, 7984, Control_c, 7, 11, 109
9, 8009, Control_c, 7, 11, 110
9, 8033, Control_c, 7, 11, 111
9, 8058, Control_c, 7, 11, 112
9, 8083, Control_c, 7, 11, 113
9, 8107, Control_c, 7, 11, 114
9, 8132, Control_c, 7, 11, 115
9, 8157, Control_c, 7, 11, 116
9, 8181, Control_c, 7, 11, 117
9, 8206, Control_c, 7, 11, 118
9, 8231, Control_c, 7, 11, 119
9, 8255, Control_c, 7, 11, 120
9, 8256, Note_on_c, 7, 69, 0
9, 8256, Note_on_c, 7, 65, 0
9, 8256, Control_c, 7, 1, 0
9, 8256, Note_on_c, 7, 69, 120
9, 8256, Note_on_c, 7, 81, 120
9, 8291, Note_on_c, 7, 81, 0
9, 8291, Note_on_c, 7, 69, 0
9, 8328, Note_on_c, 7, 57, 110
9, 8328, Note_on_c, 7, 69, 110
9, 8340, Note_on_c, 7, 69, 0
9, 8340, Note_on_c, 7, 57, 0
9, 8352, Note_on_c, 7, 57, 110
9, 8352, Note_on_c, 7, 69, 110
9, 8376, Note_on_c, 7, 69, 0
9, 8376, Note_on_c, 7, 57, 0
9, 8400, Note_on_c, 7, 69, 115
9, 8400, Note_on_c, 7, 74, 115
9, 8424, Note_on_c, 7, 74, 0
9, 8424, Note_on_c, 7, 69, 0
9, 8448, Note_on_c, 7, 69, 110
9, 8448, Note_on_c, 7, 76, 110
9, 8472, Note_on_c, 7, 76, 0
9, 8472, Note_on_c, 7, 69, 0
9, 8496, Note_on_c, 7, 69, 110
9, 8496, Note_on_c, 7, 77, 110
9, 8520, Note_on_c, 7, 77, 0
9, 8520, Note_on_c, 7, 69, 0
9, 8544, Note_on_c, 7, 69, 115
9, 8544, Note_on_c, 7, 76, 115
9, 8568, Note_on_c, 7, 76, 0
9, 8568, Note_on_c, 7, 69, 0
9, 8592, Note_on_c, 7, 69, 110
9, 8592, Note_on_c, 7, 77, 110
9, 8616, Note_on_c, 7, 77, 0
9, 8616, Note_on_c, 7, 69, 0
9, 8640, Note_on_c, 7, 69, 110
9, 8640, Note_on_c, 7, 79, 110
9, 8664, Note_on_c, 7, 79, 0
9, 8664, Note_on_c, 7, 69, 0
9, 8688, Note_on_c, 7, 69, 115
9, 8688, Note_on_c, 7, 77, 115
9, 8712, Note_on_c, 7, 77, 0
9, 8712, Note_on_c, 7, 69, 0
9, 8736, Note_on_c, 7, 69, 110
9, 8736, Note_on_c, 7, 76, 110
9, 8760, Note_on_c, 7, 76, 0
9, 8760, Note_on_c, 7, 69, 0
9, 8784, Note_on_c, 7, 69, 110
9, 8784, Note_on_c, 7, 74, 110
9, 8808, Note_on_c, 7, 74, 0
9, 8808, Note_on_c, 7, 69, 0
9, 8832, Note_on_c, 7, 70, 115
9, 8832, Note_on_c, 7, 74, 115
9, 8856, Note_on_c, 7, 74, 0
9, 8856, Note_on_c, 7, 70, 0
9, 8880, Note_on_c, 7, 69, 110
9, 8880, Note_on_c, 7, 74, 110
9, 8904, Note_on_c, 7, 74, 0
9, 8904, Note_on_c, 7, 69, 0
9, 8928, Note_on_c, 7, 67, 110
9, 8928, Note_on_c, 7, 74, 110
9, 8952, Note_on_c, 7, 74, 0
9, 8952, Note_on_c, 7, 67, 0
9, 8976, Note_on_c, 7, 69, 115
9, 8976, Note_on_c, 7, 77, 115
9, 9000, Note_on_c, 7, 77, 0
9, 9000, Note_on_c, 7, 69, 0
9, 9024, Note_on_c, 7, 69, 110
9, 9024, Note_on_c, 7, 76, 110
9, 9048, Note_on_c, 7, 76, 0
9, 9048, Note_on_c, 7, 69, 0
9, 9072, Note_on_c, 7, 69, 110
9, 9072, Note_on_c, 7, 74, 110
9, 9096, Note_on_c, 7, 74, 0
9, 9096, Note_on_c, 7, 69, 0
9, 9120, Note_on_c, 7, 69, 115
9, 9120, Note_on_c, 7, 73, 115
9, 9144, Note_on_c, 7, 73, 0
9, 9144, Note_on_c, 7, 69, 0
9, 9168, Note_on_c, 7, 69, 110
9, 9168, Note_on_c, 7, 74, 110
9, 9192, Note_on_c, 7, 74, 0
9, 9192, Note_on_c, 7, 69, 0
9, 9216, Note_on_c, 7, 69, 110
9, 9216, Note_on_c, 7, 76, 110
9, 9240, Note_on_c, 7, 76, 0
9, 9240, Note_on_c, 7, 69, 0
9, 9264, Note_on_c, 7, 69, 115
9, 9264, Note_on_c, 7, 74, 115
9, 9288, Note_on_c, 7, 74, 0
9, 9288, Note_on_c, 7, 69, 0
9, 9312, Note_on_c, 7, 69, 110
9, 9312, Note_on_c, 7, 73, 110
9, 9336, Note_on_c, 7, 73, 0
9, 9336, Note_on_c, 7, 69, 0
9, 9360, Note_on_c, 7, 69, 110
9, 9360, Note_on_c, 7, 74, 110
9, 9384, Note_on_c, 7, 74, 0
9, 9384, Note_on_c, 7, 69, 0
9, 9408, Note_on_c, 7, 70, 115
9, 9408, Note_on_c, 7, 74, 115
9, 9432, Note_on_c, 7, 74, 0
9, 9432, Note_on_c, 7, 70, 0
9, 9456, Note_on_c, 7, 69, 110
9, 9456, Note_on_c, 7, 74, 110
9, 9480, Note_on_c, 7, 74, 0
9, 9480, Note_on_c, 7, 69, 0
9, 9504, Note_on_c, 7, 67, 110
9, 9504, Note_on_c, 7, 74, 110
9, 9528, Note_on_c, 7, 74, 0
9, 9528, Note_on_c, 7, 67, 0
9, 9552, Note_on_c, 7, 65, 115
9, 9552, Note_on_c, 7, 77, 115
9, 9576, Note_on_c, 7, 77, 0
9, 9576, Note_on_c, 7, 65, 0
9, 9600, Note_on_c, 7, 69, 110
9, 9600, Note_on_c, 7, 76, 110
9, 9624, Note_on_c, 7, 76, 0
9, 9624, Note_on_c, 7, 69, 0
9, 9648, Note_on_c, 7, 69, 110
9, 9648, Note_on_c, 7, 74, 110
9, 9672, Note_on_c, 7, 74, 0
9, 9672, Note_on_c, 7, 69, 0
9, 9696, Note_on_c, 7, 69, 115
9, 9696, Note_on_c, 7, 73, 115
9, 9720, Note_on_c, 7, 73, 0
9, 9720, Note_on_c, 7, 69, 0
9, 9744, Note_on_c, 7, 69, 110
9, 9744, Note_on_c, 7, 74, 110
9, 9768, Note_on_c, 7, 74, 0
9, 9768, Note_on_c, 7, 69, 0
9, 9792, Note_on_c, 7, 67, 110
9, 9792, Note_on_c, 7, 76, 110
9, 9816, Note_on_c, 7, 76, 0
9, 9816, Note_on_c, 7, 67, 0
9, 9840, Note_on_c, 7, 65, 115
9, 9840, Note_on_c, 7, 69, 115
9, 9864, Note_on_c, 7, 69, 0
9, 9864, Note_on_c, 7, 65, 0
9, 9888, Note_on_c, 7, 65, 110
9, 9888, Note_on_c, 7, 69, 110
9, 9912, Note_on_c, 7, 69, 0
9, 9912, Note_on_c, 7, 65, 0
9, 9936, Note_on_c, 7, 65, 110
9, 9936, Note_on_c, 7, 71, 110
9, 9960, Note_on_c, 7, 71, 0
9, 9960, Note_on_c, 7, 65, 0
9, 9984, Note_on_c, 7, 65, 115
9, 9984, Note_on_c, 7, 71, 115
9, 10008, Note_on_c, 7, 71, 0
9, 10008, Note_on_c, 7, 65, 0
9, 10032, Note_on_c, 7, 62, 110
9, 10032, Note_on_c, 7, 71, 110
9, 10056, Note_on_c, 7, 71, 0
9, 10056, Note_on_c, 7, 62, 0
9, 10080, Note_on_c, 7, 65, 110
9, 10080, Note_on_c, 7, 74, 110
9, 10104, Note_on_c, 7, 74, 0
9, 10104, Note_on_c, 7, 65, 0
9, 10128, Note_on_c, 7, 64, 115
9, 10128, Note_on_c, 7, 76, 115
9, 10152, Note_on_c, 7, 76, 0
9, 10152, Note_on_c, 7, 64, 0
9, 10176, Note_on_c, 7, 67, 110
9, 10176, Note_on_c, 7, 74, 110
9, 10200, Note_on_c, 7, 74, 0
9, 10200, Note_on_c, 7, 67, 0
9, 10224, Note_on_c, 7, 67, 110
9, 10224, Note_on_c, 7, 72, 110
9, 10248, Note_on_c, 7, 72, 0
9, 10248, Note_on_c, 7, 67, 0
9, 10272, Note_on_c, 7, 67, 115
9, 10272, Note_on_c, 7, 71, 115
9, 10296, Note_on_c, 7, 71, 0
9, 10296, Note_on_c, 7, 67, 0
9, 10320, Note_on_c, 7, 67, 110
9, 10320, Note_on_c, 7, 72, 110
9, 10344, Note_on_c, 7, 72, 0
9, 10344, Note_on_c, 7, 67, 0
9, 10368, Note_on_c, 7, 67, 110
9, 10368, Note_on_c, 7, 74, 110
9, 10392, Note_on_c, 7, 74, 0
9, 10392, Note_on_c, 7, 67, 0
9, 10416, Note_on_c, 7, 67, 115
9, 10416, Note_on_c, 7, 72, 115
9, 10440, Note_on_c, 7, 72, 0
9, 10440, Note_on_c, 7, 67, 0
9, 10464, Note_on_c, 7, 77, 110
9, 10464, Note_on_c, 7, 81, 110
9, 10488, Note_on_c, 7, 81, 0
9, 10488, Note_on_c, 7, 77, 0
9, 10512, Note_on_c, 7, 77, 110
9, 10512, Note_on_c, 7, 81, 110
9, 10536, Note_on_c, 7, 81, 0
9, 10536, Note_on_c, 7, 77, 0
9, 10560, Note_on_c, 7, 77, 115
9, 10560, Note_on_c, 7, 81, 115
9, 10584, Note_on_c, 7, 81, 0
9, 10584, Note_on_c, 7, 77, 0
9, 10608, Note_on_c, 7, 74, 110
9, 10608, Note_on_c, 7, 79, 110
9, 10632, Note_on_c, 7, 79, 0
9, 10632, Note_on_c, 7, 74, 0
9, 10656, Note_on_c, 7, 74, 110
9, 10656, Note_on_c, 7, 77, 110
9, 10680, Note_on_c, 7, 77, 0
9, 10680, Note_on_c, 7, 74, 0
9, 10704, Note_on_c, 7, 67, 115
9, 10704, Note_on_c, 7, 76, 115
9, 10728, Note_on_c, 7, 76, 0
9, 10728, Note_on_c, 7, 67, 0
9, 10752, Note_on_c, 7, 67, 110
9, 10752, Note_on_c, 7, 74, 110
9, 10776, Note_on_c, 7, 74, 0
9, 10776, Note_on_c, 7, 67, 0
9, 10800, Note_on_c, 7, 67, 110
9, 10800, Note_on_c, 7, 72, 110
9, 10824, Note_on_c, 7, 72, 0
9, 10824, Note_on_c, 7, 67, 0
9, 10848, Note_on_c, 7, 67, 115
9, 10848, Note_on_c, 7, 79, 115
9, 10872, Note_on_c, 7, 79, 0
9, 10872, Note_on_c, 7, 67, 0
9, 10896, Note_on_c, 7, 67, 110
9, 10896, Note_on_c, 7, 77, 110
9, 10920, Note_on_c, 7, 77, 0
9, 10920, Note_on_c, 7, 67, 0
9, 10944, Note_on_c, 7, 67, 110
9, 10944, Note_on_c, 7, 76, 110
9, 10968, Note_on_c, 7, 76, 0
9, 10968, Note_on_c, 7, 67, 0
9, 10992, Note_on_c, 7, 67, 115
9, 10992, Note_on_c, 7, 79, 115
9, 11016, Note_on_c, 7, 79, 0
9, 11016, Note_on_c, 7, 67, 0
9, 11040, Note_on_c, 7, 67, 110
9, 11040, Note_on_c, 7, 77, 110
9, 11064, Note_on_c, 7, 77, 0
9, 11064, Note_on_c, 7, 67, 0
9, 11088, Note_on_c, 7, 67, 110
9, 11088, Note_on_c, 7, 76, 110
9, 11112, Note_on_c, 7, 76, 0
9, 11112, Note_on_c, 7, 67, 0
9, 11136, Note_on_c, 7, 67, 110
9, 11136, Note_on_c, 7, 74, 110
9, 11160, Note_on_c, 7, 74, 0
9, 11160, Note_on_c, 7, 67, 0
9, 12288, Control_c, 7, 1, 0
9, 12288, Control_c, 7, 11, 60
9, 12288, Note_on_c, 7, 67, 110
9, 12289, Control_c, 7, 1, 2
9, 12290, Control_c, 7, 1, 3
9, 12291, Control_c, 7, 1, 4
9, 12292, Control_c, 7, 1, 5
9, 12293, Control_c, 7, 1, 6
9, 12294, Control_c, 7, 1, 7
9, 12296, Control_c, 7, 1, 8
9, 12297, Control_c, 7, 1, 9
9, 12299, Control_c, 7, 1, 10
9, 12300, Control_c, 7, 1, 11
9, 12302, Control_c, 7, 1, 12
9, 12304, Control_c, 7, 1, 13
9, 12306, Control_c, 7, 1, 14
9, 12308, Control_c, 7, 11, 61
9, 12309, Control_c, 7, 1, 15
9, 12312, Control_c, 7, 1, 16
9, 12316, Control_c, 7, 1, 17
9, 12320, Control_c, 7, 1, 18
9, 12327, Control_c, 7, 11, 62
9, 12327, Control_c, 7, 1, 19
9, 12339, Control_c, 7, 1, 20
9, 12346, Control_c, 7, 11, 63
9, 12365, Control_c, 7, 11, 64
9, 12384, Control_c, 7, 11, 65
9, 12404, Control_c, 7, 11, 66
9, 12423, Control_c, 7, 11, 67
9, 12442, Control_c, 7, 11, 68
9, 12461, Control_c, 7, 11, 69
9, 12480, Control_c, 7, 11, 70
9, 12500, Control_c, 7, 11, 71
9, 12519, Control_c, 7, 11, 72
9, 12538, Control_c, 7, 11, 73
9, 12557, Control_c, 7, 11, 74
9, 12576, Note_on_c, 7, 69, 110
9, 12576, Control_c, 7, 11, 75
9, 12595, Control_c, 7, 11, 76
9, 12615, Control_c, 7, 11, 77
9, 12634, Control_c, 7, 11, 78
9, 12653, Control_c, 7, 11, 79
9, 12672, Control_c, 7, 11, 80
9, 12691, Control_c, 7, 11, 81
9, 12711, Control_c, 7, 11, 82
9, 12720, Note_on_c, 7, 65, 110
9, 12721, Note_on_c, 7, 67, 0
9, 12730, Control_c, 7, 11, 83
9, 12749, Control_c, 7, 11, 84
9, 12768, Control_c, 7, 11, 85
9, 12787, Control_c, 7, 11, 86
9, 12806, Control_c, 7, 11, 87
9, 12826, Control_c, 7, 11, 88
9, 12845, Control_c, 7, 11, 89
9, 12864, Note_on_c, 7, 68, 110
9, 12864, Control_c, 7, 11, 90
9, 12865, Note_on_c, 7, 69, 0
9, 12883, Control_c, 7, 11, 91
9, 12902, Control_c, 7, 11, 92
9, 12922, Control_c, 7, 11, 93
9, 12941, Control_c, 7, 11, 94
9, 12960, Control_c, 7, 11, 95
9, 12979, Control_c, 7, 11, 96
9, 12998, Control_c, 7, 11, 97
9, 13008, Note_on_c, 7, 64, 110
9, 13008, Note_on_c, 7, 67, 110
9, 13009, Note_on_c, 7, 68, 0
9, 13009, Note_on_c, 7, 65, 0
9, 13017, Control_c, 7, 11, 98
9, 13037, Control_c, 7, 11, 99
9, 13056, Control_c, 7, 11, 100
9, 13075, Control_c, 7, 11, 101
9, 13094, Control_c, 7, 11, 102
9, 13113, Control_c, 7, 11, 103
9, 13133, Control_c, 7, 11, 104
9, 13152, Note_on_c, 7, 63, 110
9, 13152, Control_c, 7, 11, 105
9, 13153, Note_on_c, 7, 64, 0
9, 13171, Control_c, 7, 11, 106
9, 13190, Control_c, 7, 11, 107
9, 13209, Control_c, 7, 11, 108
9, 13228, Control_c, 7, 11, 109
9, 13248, Control_c, 7, 11, 110
9, 13267, Control_c, 7, 11, 111
9, 13286, Control_c, 7, 11, 112
9, 13296, Note_on_c, 7, 62, 110
9, 13297, Note_on_c, 7, 63, 0
9, 13305, Control_c, 7, 11, 113
9, 13324, Control_c, 7, 11, 114
9, 13344, Control_c, 7, 11, 115
9, 13363, Control_c, 7, 11, 116
9, 13382, Control_c, 7, 11, 117
9, 13401, Control_c, 7, 11, 118
9, 13420, Control_c, 7, 11, 119
9, 13439, Note_on_c, 7, 67, 0
9, 13439, Note_on_c, 7, 62, 0
9, 13439, Control_c, 7, 11, 120
9, 13440, Control_c, 7, 1, 0
9, 13440, Note_on_c, 7, 72, 113
9, 13440, Note_on_c, 7, 60, 113
9, 13488, Note_on_c, 7, 60, 0
9, 13488, Note_on_c, 7, 64, 113
9, 13536, Note_on_c, 7, 64, 0
9, 13536, Note_on_c, 7, 72, 0
9, 13536, Note_on_c, 7, 65, 111
9, 13536, Note_on_c, 7, 74, 111
9, 13560, Note_on_c, 7, 74, 0
9, 13560, Note_on_c, 7, 65, 0
9, 13560, Note_on_c, 7, 67, 112
9, 13560, Note_on_c, 7, 76, 112
9, 13584, Note_on_c, 7, 76, 0
9, 13584, Note_on_c, 7, 67, 0
9, 13584, Note_on_c, 7, 69, 113
9, 13584, Note_on_c, 7, 77, 113
9, 13608, Note_on_c, 7, 77, 0
9, 13608, Note_on_c, 7, 69, 0
9, 13680, Note_on_c, 7, 67, 110
9, 13680, Note_on_c, 7, 76, 110
9, 13704, Note_on_c, 7, 76, 0
9, 13704, Note_on_c, 7, 67, 0
9, 13728, Note_on_c, 7, 65, 113
9, 13728, Note_on_c, 7, 74, 113
9, 13752, Note_on_c, 7, 74, 0
9, 13752, Note_on_c, 7, 65, 0
9, 13824, Note_on_c, 7, 64, 110
9, 13824, Note_on_c, 7, 72, 113
9, 13848, Note_on_c, 7, 72, 0
9, 13848, Note_on_c, 7, 64, 0
9, 13872, Note_on_c, 7, 65, 113
9, 13872, Note_on_c, 7, 74, 113
9, 13896, Note_on_c, 7, 74, 0
9, 13896, Note_on_c, 7, 65, 0
9, 13968, Note_on_c, 7, 62, 110
9, 13968, Note_on_c, 7, 71, 110
9, 13992, Note_on_c, 7, 71, 0
9, 13992, Note_on_c, 7, 62, 0
9, 14016, Note_on_c, 7, 60, 113
9, 14016, Note_on_c, 7, 64, 113
9, 14112, Note_on_c, 7, 64, 0
9, 14112, Note_on_c, 7, 60, 0
9, 14112, Note_on_c, 7, 62, 111
9, 14112, Note_on_c, 7, 65, 111
9, 14136, Note_on_c, 7, 65, 0
9, 14136, Note_on_c, 7, 62, 0
9, 14136, Note_on_c, 7, 64, 112
9, 14136, Note_on_c, 7, 67, 112
9, 14160, Note_on_c, 7, 67, 0
9, 14160, Note_on_c, 7, 64, 0
9, 14160, Note_on_c, 7, 65, 113
9, 14160, Note_on_c, 7, 69, 113
9, 14184, Note_on_c, 7, 69, 0
9, 14184, Note_on_c, 7, 65, 0
9, 14256, Note_on_c, 7, 64, 110
9, 14256, Note_on_c, 7, 67, 110
9, 14280, Note_on_c, 7, 67, 0
9, 14280, Note_on_c, 7, 64, 0
9, 14304, Note_on_c, 7, 62, 113
9, 14304, Note_on_c, 7, 65, 113
9, 14328, Note_on_c, 7, 65, 0
9, 14328, Note_on_c, 7, 62, 0
9, 14400, Note_on_c, 7, 60, 110
9, 14400, Note_on_c, 7, 64, 110
9, 14424, Note_on_c, 7, 64, 0
9, 14424, Note_on_c, 7, 60, 0
9, 14448, Note_on_c, 7, 62, 113
9, 14448, Note_on_c, 7, 65, 113
9, 14472, Note_on_c, 7, 65, 0
9, 14472, Note_on_c, 7, 62, 0
9, 14544, Note_on_c, 7, 59, 110
9, 14544, Note_on_c, 7, 62, 110
9, 14568, Note_on_c, 7, 62, 0
9, 14568, Note_on_c, 7, 59, 0
9, 14592, Note_on_c, 7, 60, 113
9, 14592, Note_on_c, 7, 64, 113
9, 14616, Note_on_c, 7, 64, 0
9, 14616, Note_on_c, 7, 60, 0
9, 14640, Note_on_c, 7, 64, 110
9, 14640, Note_on_c, 7, 72, 110
9, 14688, Note_on_c, 7, 72, 0
9, 14688, Note_on_c, 7, 64, 0
9, 14688, Note_on_c, 7, 65, 111
9, 14688, Note_on_c, 7, 74, 111
9, 14712, Note_on_c, 7, 74, 0
9, 14712, Note_on_c, 7, 65, 0
9, 14712, Note_on_c, 7, 67, 112
9, 14712, Note_on_c, 7, 76, 112
9, 14736, Note_on_c, 7, 76, 0
9, 14736, Note_on_c, 7, 67, 0
9, 14736, Note_on_c, 7, 69, 113
9, 14736, Note_on_c, 7, 77, 113
9, 14760, Note_on_c, 7, 77, 0
9, 14760, Note_on_c, 7, 69, 0
9, 14784, Note_on_c, 7, 69, 110
9, 14784, Note_on_c, 7, 77, 110
9, 14808, Note_on_c, 7, 77, 0
9, 14808, Note_on_c, 7, 69, 0
9, 14832, Note_on_c, 7, 67, 110
9, 14832, Note_on_c, 7, 76, 110
9, 14856, Note_on_c, 7, 76, 0
9, 14856, Note_on_c, 7, 67, 0
9, 14880, Note_on_c, 7, 65, 113
9, 14880, Note_on_c, 7, 74, 113
9, 14904, Note_on_c, 7, 74, 0
9, 14904, Note_on_c, 7, 65, 0
9, 14928, Note_on_c, 7, 65, 110
9, 14928, Note_on_c, 7, 74, 110
9, 14952, Note_on_c, 7, 74, 0
9, 14952, Note_on_c, 7, 65, 0
9, 14976, Note_on_c, 7, 64, 110
9, 14976, Note_on_c, 7, 72, 110
9, 15000, Note_on_c, 7, 72, 0
9, 15000, Note_on_c, 7, 64, 0
9, 15024, Note_on_c, 7, 65, 113
9, 15024, Note_on_c, 7, 74, 113
9, 15048, Note_on_c, 7, 74, 0
9, 15048, Note_on_c, 7, 65, 0
9, 15072, Note_on_c, 7, 65, 110
9, 15072, Note_on_c, 7, 74, 110
9, 15096, Note_on_c, 7, 74, 0
9, 15096, Note_on_c, 7, 65, 0
9, 15120, Note_on_c, 7, 62, 110
9, 15120, Note_on_c, 7, 71, 110
9, 15144, Note_on_c, 7, 71, 0
9, 15144, Note_on_c, 7, 62, 0
9, 15168, Note_on_c, 7, 64, 113
9, 15168, Note_on_c, 7, 72, 113
9, 15192, Note_on_c, 7, 72, 0
9, 15192, Note_on_c, 7, 64, 0
9, 15216, Note_on_c, 7, 60, 110
9, 15216, Note_on_c, 7, 64, 110
9, 15264, Note_on_c, 7, 64, 0
9, 15264, Note_on_c, 7, 60, 0
9, 15264, Note_on_c, 7, 62, 111
9, 15264, Note_on_c, 7, 65, 111
9, 15288, Note_on_c, 7, 65, 0
9, 15288, Note_on_c, 7, 62, 0
9, 15288, Note_on_c, 7, 64, 112
9, 15288, Note_on_c, 7, 67, 112
9, 15312, Note_on_c, 7, 67, 0
9, 15312, Note_on_c, 7, 64, 0
9, 15312, Note_on_c, 7, 65, 113
9, 15312, Note_on_c, 7, 69, 113
9, 15336, Note_on_c, 7, 69, 0
9, 15336, Note_on_c, 7, 65, 0
9, 15360, Note_on_c, 7, 65, 110
9, 15360, Note_on_c, 7, 69, 110
9, 15384, Note_on_c, 7, 69, 0
9, 15384, Note_on_c, 7, 65, 0
9, 15408, Note_on_c, 7, 64, 110
9, 15408, Note_on_c, 7, 67, 110
9, 15432, Note_on_c, 7, 67, 0
9, 15432, Note_on_c, 7, 64, 0
9, 15456, Note_on_c, 7, 62, 113
9, 15456, Note_on_c, 7, 65, 113
9, 15480, Note_on_c, 7, 65, 0
9, 15480, Note_on_c, 7, 62, 0
9, 15504, Note_on_c, 7, 62, 110
9, 15504, Note_on_c, 7, 65, 110
9, 15528, Note_on_c, 7, 65, 0
9, 15528, Note_on_c, 7, 62, 0
9, 15552, Note_on_c, 7, 60, 110
9, 15552, Note_on_c, 7, 64, 110
9, 15576, Note_on_c, 7, 64, 0
9, 15576, Note_on_c, 7, 60, 0
9, 15600, Note_on_c, 7, 62, 113
9, 15600, Note_on_c, 7, 65, 113
9, 15624, Note_on_c, 7, 65, 0
9, 15624, Note_on_c, 7, 62, 0
9, 15648, Note_on_c, 7, 62, 110
9, 15648, Note_on_c, 7, 65, 110
9, 15672, Note_on_c, 7, 65, 0
9, 15672, Note_on_c, 7, 62, 0
9, 15696, Note_on_c, 7, 62, 110
9, 15696, Note_on_c, 7, 71, 110
9, 15720, Note_on_c, 7, 71, 0
9, 15720, Note_on_c, 7, 62, 0
9, 15744, Note_on_c, 7, 60, 120
9, 15744, Note_on_c, 7, 64, 120
9, 15779, Note_on_c, 7, 64, 0
9, 15779, Note_on_c, 7, 60, 0
9, 15816, Note_on_c, 7, 52, 113
9, 15816, Note_on_c, 7, 64, 113
9, 15828, Note_on_c, 7, 64, 0
9, 15828, Note_on_c, 7, 52, 0
9, 15840, Note_on_c, 7, 52, 113
9, 15840, Note_on_c, 7, 64, 113
9, 15864, Note_on_c, 7, 64, 0
9, 15864, Note_on_c, 7, 52, 0
9, 15888, Note_on_c, 7, 52, 116
9, 15888, Note_on_c, 7, 64, 116
9, 15912, Note_on_c, 7, 64, 0
9, 15912, Note_on_c, 7, 52, 0
9, 15936, Note_on_c, 7, 53, 113
9, 15936, Note_on_c, 7, 65, 113
9, 15960, Note_on_c, 7, 65, 0
9, 15960, Note_on_c, 7, 53, 0
9, 15984, Note_on_c, 7, 55, 113
9, 15984, Note_on_c, 7, 67, 113
9, 16008, Note_on_c, 7, 67, 0
9, 16008, Note_on_c, 7, 55, 0
9, 16032, Note_on_c, 7, 57, 113
9, 16032, Note_on_c, 7, 69, 113
9, 16056, Note_on_c, 7, 69, 0
9, 16056, Note_on_c, 7, 57, 0
9, 16176, Note_on_c, 7, 57, 116
9, 16176, Note_on_c, 7, 69, 116
9, 16200, Note_on_c, 7, 69, 0
9, 16200, Note_on_c, 7, 57, 0
9, 16224, Note_on_c, 7, 59, 113
9, 16224, Note_on_c, 7, 71, 113
9, 16248, Note_on_c, 7, 71, 0
9, 16248, Note_on_c, 7, 59, 0
9, 16272, Note_on_c, 7, 60, 113
9, 16272, Note_on_c, 7, 72, 113
9, 16296, Note_on_c, 7, 72, 0
9, 16296, Note_on_c, 7, 60, 0
9, 16320, Note_on_c, 7, 62, 120
9, 16320, Note_on_c, 7, 74, 120
9, 16355, Note_on_c, 7, 74, 0
9, 16355, Note_on_c, 7, 62, 0
9, 16392, Note_on_c, 7, 62, 113
9, 16392, Note_on_c, 7, 74, 113
9, 16404, Note_on_c, 7, 74, 0
9, 16404, Note_on_c, 7, 62, 0
9, 16416, Note_on_c, 7, 62, 113
9, 16416, Note_on_c, 7, 74, 113
9, 16440, Note_on_c, 7, 74, 0
9, 16440, Note_on_c, 7, 62, 0
9, 16464, Note_on_c, 7, 62, 116
9, 16464, Note_on_c, 7, 74, 116
9, 16488, Note_on_c, 7, 74, 0
9, 16488, Note_on_c, 7, 62, 0
9, 16512, Note_on_c, 7, 64, 113
9, 16512, Note_on_c, 7, 76, 113
9, 16536, Note_on_c, 7, 76, 0
9, 16536, Note_on_c, 7, 64, 0
9, 16560, Note_on_c, 7, 65, 113
9, 16560, Note_on_c, 7, 77, 113
9, 16584, Note_on_c, 7, 77, 0
9, 16584, Note_on_c, 7, 65, 0
9, 16608, Note_on_c, 7, 67, 113
9, 16608, Note_on_c, 7, 79, 113
9, 16632, Note_on_c, 7, 79, 0
9, 16632, Note_on_c, 7, 67, 0
9, 16752, Note_on_c, 7, 55, 116
9, 16752, Note_on_c, 7, 67, 116
9, 16776, Note_on_c, 7, 67, 0
9, 16776, Note_on_c, 7, 55, 0
9, 16800, Note_on_c, 7, 60, 113
9, 16800, Note_on_c, 7, 72, 113
9, 16824, Note_on_c, 7, 72, 0
9, 16824, Note_on_c, 7, 60, 0
9, 16848, Note_on_c, 7, 62, 113
9, 16848, Note_on_c, 7, 74, 113
9, 16872, Note_on_c, 7, 74, 0
9, 16872, Note_on_c, 7, 62, 0
9, 16896, Note_on_c, 7, 64, 60
9, 16896, Note_on_c, 7, 76, 60
9, 16920, Note_on_c, 7, 76, 0
9, 16920, Note_on_c, 7, 64, 0
9, 17760, Control_c, 7, 11, 60
9, 17760, Control_c, 7, 1, 0
9, 17760, Note_on_c, 7, 67, 100
9, 17761, Control_c, 7, 1, 3
9, 17762, Control_c, 7, 1, 4
9, 17763, Control_c, 7, 1, 6
9, 17764, Control_c, 7, 1, 7
9, 17765, Control_c, 7, 1, 9
9, 17766, Control_c, 7, 1, 10
9, 17767, Control_c, 7, 1, 11
9, 17768, Control_c, 7, 1, 12
9, 17770, Control_c, 7, 11, 61
9, 17770, Control_c, 7, 1, 13
9, 17771, Control_c, 7, 1, 14
9, 17773, Control_c, 7, 1, 15
9, 17776, Control_c, 7, 1, 16
9, 17779, Control_c, 7, 1, 17
9, 17780, Control_c, 7, 11, 62
9, 17784, Control_c, 7, 1, 18
9, 17789, Control_c, 7, 11, 63
9, 17799, Control_c, 7, 11, 64
9, 17808, Note_on_c, 7, 67, 0
9, 17808, Note_on_c, 7, 60, 100
9, 17808, Control_c, 7, 11, 65
9, 17818, Control_c, 7, 11, 66
9, 17828, Control_c, 7, 11, 67
9, 17837, Control_c, 7, 11, 68
9, 17847, Control_c, 7, 11, 69
9, 17856, Note_on_c, 7, 60, 0
9, 17856, Note_on_c, 7, 62, 100
9, 17856, Control_c, 7, 11, 70
9, 17866, Control_c, 7, 11, 71
9, 17875, Control_c, 7, 11, 72
9, 17885, Control_c, 7, 11, 73
9, 17895, Control_c, 7, 11, 74
9, 17904, Note_on_c, 7, 62, 0
9, 17904, Note_on_c, 7, 64, 100
9, 17904, Control_c, 7, 11, 75
9, 17914, Control_c, 7, 11, 76
9, 17923, Control_c, 7, 11, 77
9, 17933, Control_c, 7, 11, 78
9, 17943, Control_c, 7, 11, 79
9, 17952, Note_on_c, 7, 64, 0
9, 17952, Note_on_c, 7, 65, 100
9, 17952, Control_c, 7, 11, 80
9, 17962, Control_c, 7, 11, 81
9, 17971, Control_c, 7, 11, 82
9, 17981, Control_c, 7, 11, 83
9, 17990, Control_c, 7, 11, 84
9, 18000, Note_on_c, 7, 65, 0
9, 18000, Note_on_c, 7, 67, 100
9, 18000, Control_c, 7, 11, 85
9, 18010, Control_c, 7, 11, 86
9, 18019, Control_c, 7, 11, 87
9, 18029, Control_c, 7, 11, 88
9, 18038, Control_c, 7, 11, 89
9, 18048, Note_on_c, 7, 67, 0
9, 18048, Note_on_c, 7, 66, 100
9, 18048, Control_c, 7, 11, 90
9, 18058, Control_c, 7, 11, 91
9, 18067, Control_c, 7, 11, 92
9, 18077, Control_c, 7, 11, 93
9, 18086, Control_c, 7, 11, 94
9, 18096, Note_on_c, 7, 66, 0
9, 18096, Note_on_c, 7, 67, 100
9, 18096, Control_c, 7, 11, 95
9, 18105, Control_c, 7, 11, 96
9, 18115, Control_c, 7, 11, 97
9, 18125, Control_c, 7, 11, 98
9, 18134, Control_c, 7, 11, 99
9, 18144, Note_on_c, 7, 67, 0
9, 18144, Note_on_c, 7, 69, 100
9, 18144, Control_c, 7, 11, 100
9, 18153, Control_c, 7, 11, 101
9, 18163, Control_c, 7, 11, 102
9, 18173, Control_c, 7, 11, 103
9, 18182, Control_c, 7, 11, 104
9, 18192, Note_on_c, 7, 69, 0
9, 18192, Note_on_c, 7, 67, 100
9, 18192, Control_c, 7, 11, 105
9, 18201, Control_c, 7, 11, 106
9, 18211, Control_c, 7, 11, 107
9, 18220, Control_c, 7, 11, 108
9, 18230, Control_c, 7, 11, 109
9, 18240, Note_on_c, 7, 67, 0
9, 18240, Note_on_c, 7, 71, 100
9, 18240, Note_on_c, 7, 74, 100
9, 18240, Control_c, 7, 11, 110
9, 18249, Control_c, 7, 11, 111
9, 18259, Control_c, 7, 11, 112
9, 18268, Control_c, 7, 11, 113
9, 18278, Control_c, 7, 11, 114
9, 18288, Note_on_c, 7, 74, 0
9, 18288, Note_on_c, 7, 71, 0
9, 18288, Note_on_c, 7, 67, 100
9, 18288, Note_on_c, 7, 72, 100
9, 18288, Control_c, 7, 11, 115
9, 18297, Control_c, 7, 11, 116
9, 18307, Control_c, 7, 11, 117
9, 18316, Control_c, 7, 11, 118
9, 18326, Control_c, 7, 11, 119
9, 18335, Control_c, 7, 11, 120
9, 18336, Note_on_c, 7, 72, 0
9, 18336, Note_on_c, 7, 67, 0
9, 18336, Control_c, 7, 1, 0
9, 18336, Note_on_c, 7, 55, 105
9, 18336, Note_on_c, 7, 67, 105
9, 18360, Note_on_c, 7, 67, 0
9, 18360, Note_on_c, 7, 55, 0
9, 18384, Note_on_c, 7, 64, 100
9, 18384, Note_on_c, 7, 76, 100
9, 18408, Note_on_c, 7, 76, 0
9, 18408, Note_on_c, 7, 64, 0
9, 18432, Note_on_c, 7, 65, 100
9, 18432, Note_on_c, 7, 69, 100
9, 18456, Note_on_c, 7, 69, 0
9, 18456, Note_on_c, 7, 65, 0
9, 18480, Note_on_c, 7, 65, 105
9, 18480, Note_on_c, 7, 77, 105
9, 18504, Note_on_c, 7, 77, 0
9, 18504, Note_on_c, 7, 65, 0
9, 18528, Note_on_c, 7, 67, 100
9, 18528, Note_on_c, 7, 74, 100
9, 18552, Note_on_c, 7, 74, 0
9, 18552, Note_on_c, 7, 67, 0
9, 18576, Note_on_c, 7, 71, 100
9, 18576, Note_on_c, 7, 74, 100
9, 18600, Note_on_c, 7, 74, 0
9, 18600, Note_on_c, 7, 71, 0
9, 18624, Note_on_c, 7, 72, 100
9, 18624, Note_on_c, 7, 76, 100
9, 18648, Note_on_c, 7, 76, 0
9, 18648, Note_on_c, 7, 72, 0
9, 18912, Note_on_c, 7, 55, 105
9, 18912, Note_on_c, 7, 67, 105
9, 18936, Note_on_c, 7, 67, 0
9, 18936, Note_on_c, 7, 55, 0
9, 18960, Note_on_c, 7, 64, 100
9, 18960, Note_on_c, 7, 76, 100
9, 18984, Note_on_c, 7, 76, 0
9, 18984, Note_on_c, 7, 64, 0
9, 19008, Note_on_c, 7, 65, 100
9, 19008, Note_on_c, 7, 69, 100
9, 19032, Note_on_c, 7, 69, 0
9, 19032, Note_on_c, 7, 65, 0
9, 19056, Note_on_c, 7, 65, 105
9, 19056, Note_on_c, 7, 77, 105
9, 19080, Note_on_c, 7, 77, 0
9, 19080, Note_on_c, 7, 65, 0
9, 19104, Note_on_c, 7, 67, 100
9, 19104, Note_on_c, 7, 74, 100
9, 19128, Note_on_c, 7, 74, 0
9, 19128, Note_on_c, 7, 67, 0
9, 19152, Note_on_c, 7, 71, 100
9, 19152, Note_on_c, 7, 74, 100
9, 19176, Note_on_c, 7, 74, 0
9, 19176, Note_on_c, 7, 71, 0
9, 19200, Note_on_c, 7, 72, 105
9, 19200, Note_on_c, 7, 76, 105
9, 19224, Note_on_c, 7, 76, 0
9, 19224, Note_on_c, 7, 72, 0
9, 19248, Note_on_c, 7, 67, 100
9, 19248, Note_on_c, 7, 79, 100
9, 19272, Note_on_c, 7, 79, 0
9, 19272, Note_on_c, 7, 67, 0
9, 19296, Note_on_c, 7, 67, 100
9, 19296, Note_on_c, 7, 79, 100
9, 19320, Note_on_c, 7, 79, 0
9, 19320, Note_on_c, 7, 67, 0
9, 19344, Note_on_c, 7, 67, 105
9, 19344, Note_on_c, 7, 79, 105
9, 19368, Note_on_c, 7, 79, 0
9, 19368, Note_on_c, 7, 67, 0
9, 19392, Note_on_c, 7, 67, 100
9, 19392, Note_on_c, 7, 79, 100
9, 19416, Note_on_c, 7, 79, 0
9, 19416, Note_on_c, 7, 67, 0
9, 19440, Note_on_c, 7, 67, 100
9, 19440, Note_on_c, 7, 79, 100
9, 19464, Note_on_c, 7, 79, 0
9, 19464, Note_on_c, 7, 67, 0
9, 19488, Note_on_c, 7, 72, 105
9, 19488, Note_on_c, 7, 76, 105
9, 19512, Note_on_c, 7, 76, 0
9, 19512, Note_on_c, 7, 72, 0
9, 19536, Note_on_c, 7, 67, 100
9, 19536, Note_on_c, 7, 72, 100
9, 19560, Note_on_c, 7, 72, 0
9, 19560, Note_on_c, 7, 67, 0
9, 19584, Note_on_c, 7, 76, 100
9, 19584, Note_on_c, 7, 79, 100
9, 19608, Note_on_c, 7, 79, 0
9, 19608, Note_on_c, 7, 76, 0
9, 19632, Note_on_c, 7, 74, 105
9, 19632, Note_on_c, 7, 77, 105
9, 19656, Note_on_c, 7, 77, 0
9, 19656, Note_on_c, 7, 74, 0
9, 19680, Note_on_c, 7, 67, 100
9, 19680, Note_on_c, 7, 74, 100
9, 19704, Note_on_c, 7, 74, 0
9, 19704, Note_on_c, 7, 67, 0
9, 19728, Note_on_c, 7, 77, 100
9, 19728, Note_on_c, 7, 79, 100
9, 19752, Note_on_c, 7, 79, 0
9, 19752, Note_on_c, 7, 77, 0
9, 19776, Note_on_c, 7, 72, 105
9, 19776, Note_on_c, 7, 76, 105
9, 19800, Note_on_c, 7, 76, 0
9, 19800, Note_on_c, 7, 72, 0
9, 19824, Note_on_c, 7, 67, 100
9, 19824, Note_on_c, 7, 72, 100
9, 19848, Note_on_c, 7, 72, 0
9, 19848, Note_on_c, 7, 67, 0
9, 19872, Note_on_c, 7, 76, 100
9, 19872, Note_on_c, 7, 79, 100
9, 19896, Note_on_c, 7, 79, 0
9, 19896, Note_on_c, 7, 76, 0
9, 19920, Note_on_c, 7, 74, 105
9, 19920, Note_on_c, 7, 77, 105
9, 19944, Note_on_c, 7, 77, 0
9, 19944, Note_on_c, 7, 74, 0
9, 19968, Note_on_c, 7, 67, 100
9, 19968, Note_on_c, 7, 74, 100
9, 19992, Note_on_c, 7, 74, 0
9, 19992, Note_on_c, 7, 67, 0
9, 20016, Note_on_c, 7, 77, 100
9, 20016, Note_on_c, 7, 79, 100
9, 20040, Note_on_c, 7, 79, 0
9, 20040, Note_on_c, 7, 77, 0
9, 20064, Control_c, 7, 1, 0
9, 20064, Note_on_c, 7, 55, 46
9, 20065, Control_c, 7, 1, 2
9, 20066, Control_c, 7, 1, 3
9, 20067, Control_c, 7, 1, 4
9, 20069, Control_c, 7, 1, 5
9, 20070, Control_c, 7, 1, 6
9, 20071, Control_c, 7, 1, 7
9, 20073, Control_c, 7, 1, 8
9, 20074, Control_c, 7, 1, 9
9, 20076, Control_c, 7, 1, 10
9, 20078, Control_c, 7, 1, 11
9, 20080, Control_c, 7, 1, 12
9, 20083, Control_c, 7, 1, 13
9, 20086, Control_c, 7, 1, 14
9, 20090, Control_c, 7, 1, 15
9, 20095, Control_c, 7, 1, 16
9, 20102, Control_c, 7, 1, 17
9, 20112, Note_on_c, 7, 55, 0
9, 20112, Note_on_c, 7, 57, 48
9, 20113, Control_c, 7, 1, 18
9, 20160, Note_on_c, 7, 57, 0
9, 20160, Note_on_c, 7, 59, 50
9, 20208, Note_on_c, 7, 59, 0
9, 20208, Note_on_c, 7, 60, 51
9, 20256, Note_on_c, 7, 60, 0
9, 20256, Note_on_c, 7, 62, 53
9, 20304, Note_on_c, 7, 62, 0
9, 20304, Note_on_c, 7, 64, 55
9, 20352, Note_on_c, 7, 64, 0
9, 20352, Note_on_c, 7, 65, 56
9, 20400, Note_on_c, 7, 65, 0
9, 20400, Note_on_c, 7, 64, 55
9, 20448, Note_on_c, 7, 64, 0
9, 20448, Note_on_c, 7, 65, 56
9, 20496, Note_on_c, 7, 65, 0
9, 20496, Note_on_c, 7, 67, 58
9, 20544, Note_on_c, 7, 67, 0
9, 20544, Note_on_c, 7, 69, 60
9, 20592, Note_on_c, 7, 69, 0
9, 20592, Note_on_c, 7, 71, 62
9, 20640, Note_on_c, 7, 71, 0
9, 20640, Control_c, 7, 1, 0
9, 20640, Note_on_c, 7, 72, 50
9, 20664, Note_on_c, 7, 72, 0
9, 20784, Note_on_c, 7, 60, 55
9, 20784, Note_on_c, 7, 64, 55
9, 20819, Note_on_c, 7, 64, 0
9, 20819, Note_on_c, 7, 60, 0
9, 20856, Note_on_c, 7, 60, 50
9, 20856, Note_on_c, 7, 64, 50
9, 20868, Note_on_c, 7, 64, 0
9, 20868, Note_on_c, 7, 60, 0
9, 20880, Note_on_c, 7, 60, 50
9, 20880, Note_on_c, 7, 64, 50
9, 20904, Note_on_c, 7, 64, 0
9, 20904, Note_on_c, 7, 60, 0
9, 20928, Note_on_c, 7, 60, 50
9, 20928, Note_on_c, 7, 69, 50
9, 20952, Note_on_c, 7, 69, 0
9, 20952, Note_on_c, 7, 60, 0
9, 21072, Note_on_c, 7, 65, 55
9, 21072, Note_on_c, 7, 69, 55
9, 21107, Note_on_c, 7, 69, 0
9, 21107, Note_on_c, 7, 65, 0
9, 21144, Note_on_c, 7, 65, 50
9, 21144, Note_on_c, 7, 69, 50
9, 21156, Note_on_c, 7, 69, 0
9, 21156, Note_on_c, 7, 65, 0
9, 21168, Note_on_c, 7, 65, 50
9, 21168, Note_on_c, 7, 69, 50
9, 21192, Note_on_c, 7, 69, 0
9, 21192, Note_on_c, 7, 65, 0
9, 21216, Note_on_c, 7, 65, 50
9, 21216, Note_on_c, 7, 69, 50
9, 21240, Note_on_c, 7, 69, 0
9, 21240, Note_on_c, 7, 65, 0
9, 22368, Note_on_c, 7, 74, 50
9, 22392, Note_on_c, 7, 74, 0
9, 22512, Note_on_c, 7, 69, 50
9, 22536, Note_on_c, 7, 69, 0
9, 22656, Note_on_c, 7, 71, 50
9, 22680, Note_on_c, 7, 71, 0
9, 22800, Note_on_c, 7, 72, 50
9, 22824, Note_on_c, 7, 72, 0
9, 22944, Note_on_c, 7, 70, 50
9, 22968, Note_on_c, 7, 70, 0
9, 23088, Note_on_c, 7, 65, 50
9, 23112, Note_on_c, 7, 65, 0
9, 23232, Note_on_c, 7, 61, 50
9, 23256, Note_on_c, 7, 61, 0
9, 23376, Note_on_c, 7, 62, 50
9, 23400, Note_on_c, 7, 62, 0
9, 23520, Note_on_c, 7, 69, 50
9, 23544, Note_on_c, 7, 69, 0
9, 23664, Note_on_c, 7, 69, 50
9, 23688, Note_on_c, 7, 69, 0
9, 23808, Note_on_c, 7, 64, 50
9, 23832, Note_on_c, 7, 64, 0
9, 23952, Note_on_c, 7, 64, 50
9, 23952, Note_on_c, 7, 76, 50
9, 23976, Note_on_c, 7, 76, 0
9, 23976, Note_on_c, 7, 64, 0
9, 24096, Note_on_c, 7, 64, 50
9, 24096, Note_on_c, 7, 73, 50
9, 24120, Note_on_c, 7, 73, 0
9, 24120, Note_on_c, 7, 64, 0
9, 24240, Note_on_c, 7, 69, 50
9, 24240, Note_on_c, 7, 74, 50
9, 24264, Note_on_c, 7, 74, 0
9, 24264, Note_on_c, 7, 69, 0
9, 24384, Note_on_c, 7, 69, 50
9, 24384, Note_on_c, 7, 79, 50
9, 24408, Note_on_c, 7, 79, 0
9, 24408, Note_on_c, 7, 69, 0
9, 24528, Note_on_c, 7, 69, 50
9, 24528, Note_on_c, 7, 74, 50
9, 24552, Note_on_c, 7, 74, 0
9, 24552, Note_on_c, 7, 69, 0
9, 24672, Note_on_c, 7, 69, 50
9, 24672, Note_on_c, 7, 74, 50
9, 24696, Note_on_c, 7, 74, 0
9, 24696, Note_on_c, 7, 69, 0
9, 24816, Note_on_c, 7, 69, 50
9, 24816, Note_on_c, 7, 76, 50
9, 24840, Note_on_c, 7, 76, 0
9, 24840, Note_on_c, 7, 69, 0
9, 24960, Note_on_c, 7, 71, 50
9, 24960, Note_on_c, 7, 76, 50
9, 24984, Note_on_c, 7, 76, 0
9, 24984, Note_on_c, 7, 71, 0
9, 25104, Note_on_c, 7, 72, 50
9, 25104, Note_on_c, 7, 76, 50
9, 25128, Note_on_c, 7, 76, 0
9, 25128, Note_on_c, 7, 72, 0
9, 25248, Note_on_c, 7, 67, 50
9, 25248, Note_on_c, 7, 76, 50
9, 25272, Note_on_c, 7, 76, 0
9, 25272, Note_on_c, 7, 67, 0
9, 25392, Note_on_c, 7, 69, 50
9, 25392, Note_on_c, 7, 74, 50
9, 25416, Note_on_c, 7, 74, 0
9, 25416, Note_on_c, 7, 69, 0
9, 25536, Note_on_c, 7, 64, 50
9, 25536, Note_on_c, 7, 69, 50
9, 25560, Note_on_c, 7, 69, 0
9, 25560, Note_on_c, 7, 64, 0
9, 25680, Note_on_c, 7, 65, 50
9, 25680, Note_on_c, 7, 69, 50
9, 25704, Note_on_c, 7, 69, 0
9, 25704, Note_on_c, 7, 65, 0
9, 25824, Note_on_c, 7, 62, 50
9, 25824, Note_on_c, 7, 74, 50
9, 25848, Note_on_c, 7, 74, 0
9, 25848, Note_on_c, 7, 62, 0
9, 25968, Note_on_c, 7, 64, 50
9, 25968, Note_on_c, 7, 69, 50
9, 25992, Note_on_c, 7, 69, 0
9, 25992, Note_on_c, 7, 64, 0
9, 26112, Note_on_c, 7, 59, 50
9, 26112, Note_on_c, 7, 71, 50
9, 26136, Note_on_c, 7, 71, 0
9, 26136, Note_on_c, 7, 59, 0
9, 26256, Note_on_c, 7, 60, 50
9, 26256, Note_on_c, 7, 69, 50
9, 26280, Note_on_c, 7, 69, 0
9, 26280, Note_on_c, 7, 60, 0
9, 26400, Note_on_c, 7, 61, 50
9, 26400, Note_on_c, 7, 64, 50
9, 26424, Note_on_c, 7, 64, 0
9, 26424, Note_on_c, 7, 61, 0
9, 26544, Note_on_c, 7, 57, 50
9, 26544, Note_on_c, 7, 69, 50
9, 26568, Note_on_c, 7, 69, 0
9, 26568, Note_on_c, 7, 57, 0
9, 26688, Note_on_c, 7, 61, 50
9, 26688, Note_on_c, 7, 69, 50
9, 26712, Note_on_c, 7, 69, 0
9, 26712, Note_on_c, 7, 61, 0
9, 26832, Note_on_c, 7, 65, 50
9, 26832, Note_on_c, 7, 69, 50
9, 26856, Note_on_c, 7, 69, 0
9, 26856, Note_on_c, 7, 65, 0
9, 26976, Control_c, 7, 1, 0
9, 26976, Control_c, 7, 11, 50
9, 26976, Note_on_c, 7, 65, 110
9, 26976, Note_on_c, 7, 69, 110
9, 26977, Control_c, 7, 1, 2
9, 26978, Control_c, 7, 1, 3
9, 26979, Control_c, 7, 1, 4
9, 26980, Control_c, 7, 1, 5
9, 26981, Control_c, 7, 1, 6
9, 26983, Control_c, 7, 1, 7
9, 26984, Control_c, 7, 1, 8
9, 26985, Control_c, 7, 1, 9
9, 26987, Control_c, 7, 1, 10
9, 26989, Control_c, 7, 1, 11
9, 26990, Control_c, 7, 1, 12
9, 26993, Control_c, 7, 1, 13
9, 26995, Control_c, 7, 1, 14
9, 26998, Control_c, 7, 1, 15
9, 27001, Control_c, 7, 11, 51
9, 27001, Control_c, 7, 1, 16
9, 27004, Control_c, 7, 1, 17
9, 27009, Control_c, 7, 1, 18
9, 27017, Control_c, 7, 1, 19
9, 27026, Control_c, 7, 11, 52
9, 27029, Control_c, 7, 1, 20
9, 27051, Control_c, 7, 11, 53
9, 27075, Control_c, 7, 11, 54
9, 27100, Control_c, 7, 11, 55
9, 27125, Control_c, 7, 11, 56
9, 27149, Control_c, 7, 11, 57
9, 27174, Control_c, 7, 11, 58
9, 27199, Control_c, 7, 11, 59
9, 27223, Control_c, 7, 11, 60
9, 27248, Control_c, 7, 11, 61
9, 27273, Control_c, 7, 11, 62
9, 27297, Control_c, 7, 11, 63
9, 27322, Control_c, 7, 11, 64
9, 27347, Control_c, 7, 11, 65
9, 27371, Control_c, 7, 11, 66
9, 27396, Control_c, 7, 11, 67
9, 27421, Control_c, 7, 11, 68
9, 27445, Control_c, 7, 11, 69
9, 27470, Control_c, 7, 11, 70
9, 27495, Control_c, 7, 11, 71
9, 27519, Control_c, 7, 11, 72
9, 27544, Control_c, 7, 11, 73
9, 27569, Control_c, 7, 11, 74
9, 27593, Control_c, 7, 11, 75
9, 27618, Control_c, 7, 11, 76
9, 27643, Control_c, 7, 11, 77
9, 27667, Control_c, 7, 11, 78
9, 27692, Control_c, 7, 11, 79
9, 27717, Control_c, 7, 11, 80
9, 27741, Control_c, 7, 11, 81
9, 27766, Control_c, 7, 11, 82
9, 27791, Control_c, 7, 11, 83
9, 27815, Control_c, 7, 11, 84
9, 27840, Control_c, 7, 11, 85
9, 27865, Control_c, 7, 11, 86
9, 27889, Control_c, 7, 11, 87
9, 27914, Control_c, 7, 11, 88
9, 27939, Control_c, 7, 11, 89
9, 27963, Control_c, 7, 11, 90
9, 27988, Control_c, 7, 11, 91
9, 28013, Control_c, 7, 11, 92
9, 28037, Control_c, 7, 11, 93
9, 28062, Control_c, 7, 11, 94
9, 28087, Control_c, 7, 11, 95
9, 28111, Control_c, 7, 11, 96
9, 28136, Control_c, 7, 11, 97
9, 28161, Control_c, 7, 11, 98
9, 28185, Control_c, 7, 11, 99
9, 28210, Control_c, 7, 11, 100
9, 28235, Control_c, 7, 11, 101
9, 28259, Control_c, 7, 11, 102
9, 28284, Control_c, 7, 11, 103
9, 28309, Control_c, 7, 11, 104
9, 28333, Control_c, 7, 11, 105
9, 28358, Control_c, 7, 11, 106
9, 28383, Control_c, 7, 11, 107
9, 28407, Control_c, 7, 11, 108
9, 28432, Control_c, 7, 11, 109
9, 28457, Control_c, 7, 11, 110
9, 28481, Control_c, 7, 11, 111
9, 28506, Control_c, 7, 11, 112
9, 28531, Control_c, 7, 11, 113
9, 28555, Control_c, 7, 11, 114
9, 28580, Control_c, 7, 11, 115
9, 28605, Control_c, 7, 11, 116
9, 28629, Control_c, 7, 11, 117
9, 28654, Control_c, 7, 11, 118
9, 28679, Control_c, 7, 11, 119
9, 28703, Control_c, 7, 11, 120
9, 28704, Note_on_c, 7, 69, 0
9, 28704, Note_on_c, 7, 65, 0
9, 28704, Control_c, 7, 1, 0
9, 28704, Note_on_c, 7, 69, 120
9, 28704, Note_on_c, 7, 81, 120
9, 28739, Note_on_c, 7, 81, 0
9, 28739, Note_on_c, 7, 69, 0
9, 28776, Note_on_c, 7, 57, 110
9, 28776, Note_on_c, 7, 69, 110
9, 28788, Note_on_c, 7, 69, 0
9, 28788, Note_on_c, 7, 57, 0
9, 28800, Note_on_c, 7, 57, 110
9, 28800, Note_on_c, 7, 69, 110
9, 28824, Note_on_c, 7, 69, 0
9, 28824, Note_on_c, 7, 57, 0
9, 28848, Note_on_c, 7, 69, 115
9, 28848, Note_on_c, 7, 74, 115
9, 28872, Note_on_c, 7, 74, 0
9, 28872, Note_on_c, 7, 69, 0
9, 28896, Note_on_c, 7, 69, 110
9, 28896, Note_on_c, 7, 76, 110
9, 28920, Note_on_c, 7, 76, 0
9, 28920, Note_on_c, 7, 69, 0
9, 28944, Note_on_c, 7, 69, 110
9, 28944, Note_on_c, 7, 77, 110
9, 28968, Note_on_c, 7, 77, 0
9, 28968, Note_on_c, 7, 69, 0
9, 28992, Note_on_c, 7, 69, 115
9, 28992, Note_on_c, 7, 76, 115
9, 29016, Note_on_c, 7, 76, 0
9, 29016, Note_on_c, 7, 69, 0
9, 29040, Note_on_c, 7, 69, 110
9, 29040, Note_on_c, 7, 77, 110
9, 29064, Note_on_c, 7, 77, 0
9, 29064, Note_on_c, 7, 69, 0
9, 29088, Note_on_c, 7, 69, 110
9, 29088, Note_on_c, 7, 79, 110
9, 29112, Note_on_c, 7, 79, 0
9, 29112, Note_on_c, 7, 69, 0
9, 29136, Note_on_c, 7, 69, 115
9, 29136, Note_on_c, 7, 77, 115
9, 29160, Note_on_c, 7, 77, 0
9, 29160, Note_on_c, 7, 69, 0
9, 29184, Note_on_c, 7, 69, 110
9, 29184, Note_on_c, 7, 76, 110
9, 29208, Note_on_c, 7, 76, 0
9, 29208, Note_on_c, 7, 69, 0
9, 29232, Note_on_c, 7, 69, 110
9, 29232, Note_on_c, 7, 74, 110
9, 29256, Note_on_c, 7, 74, 0
9, 29256, Note_on_c, 7, 69, 0
9, 29280, Note_on_c, 7, 70, 115
9, 29280, Note_on_c, 7, 74, 115
9, 29304, Note_on_c, 7, 74, 0
9, 29304, Note_on_c, 7, 70, 0
9, 29328, Note_on_c, 7, 69, 110
9, 29328, Note_on_c, 7, 74, 110
9, 29352, Note_on_c, 7, 74, 0
9, 29352, Note_on_c, 7, 69, 0
9, 29376, Note_on_c, 7, 67, 110
9, 29376, Note_on_c, 7, 74, 110
9, 29400, Note_on_c, 7, 74, 0
9, 29400, Note_on_c, 7, 67, 0
9, 29424, Note_on_c, 7, 69, 115
9, 29424, Note_on_c, 7, 77, 115
9, 29448, Note_on_c, 7, 77, 0
9, 29448, Note_on_c, 7, 69, 0
9, 29472, Note_on_c, 7, 69, 110
9, 29472, Note_on_c, 7, 76, 110
9, 29496, Note_on_c, 7, 76, 0
9, 29496, Note_on_c, 7, 69, 0
9, 29520, Note_on_c, 7, 69, 110
9, 29520, Note_on_c, 7, 74, 110
9, 29544, Note_on_c, 7, 74, 0
9, 29544, Note_on_c, 7, 69, 0
9, 29568, Note_on_c, 7, 69, 115
9, 29568, Note_on_c, 7, 73, 115
9, 29592, Note_on_c, 7, 73, 0
9, 29592, Note_on_c, 7, 69, 0
9, 29616, Note_on_c, 7, 69, 110
9, 29616, Note_on_c, 7, 74, 110
9, 29640, Note_on_c, 7, 74, 0
9, 29640, Note_on_c, 7, 69, 0
9, 29664, Note_on_c, 7, 69, 110
9, 29664, Note_on_c, 7, 76, 110
9, 29688, Note_on_c, 7, 76, 0
9, 29688, Note_on_c, 7, 69, 0
9, 29712, Note_on_c, 7, 69, 115
9, 29712, Note_on_c, 7, 74, 115
9, 29736, Note_on_c, 7, 74, 0
9, 29736, Note_on_c, 7, 69, 0
9, 29760, Note_on_c, 7, 69, 110
9, 29760, Note_on_c, 7, 73, 110
9, 29784, Note_on_c, 7, 73, 0
9, 29784, Note_on_c, 7, 69, 0
9, 29808, Note_on_c, 7, 69, 110
9, 29808, Note_on_c, 7, 74, 110
9, 29832, Note_on_c, 7, 74, 0
9, 29832, Note_on_c, 7, 69, 0
9, 29856, Note_on_c, 7, 70, 115
9, 29856, Note_on_c, 7, 74, 115
9, 29880, Note_on_c, 7, 74, 0
9, 29880, Note_on_c, 7, 70, 0
9, 29904, Note_on_c, 7, 69, 110
9, 29904, Note_on_c, 7, 74, 110
9, 29928, Note_on_c, 7, 74, 0
9, 29928, Note_on_c, 7, 69, 0
9, 29952, Note_on_c, 7, 67, 110
9, 29952, Note_on_c, 7, 74, 110
9, 29976, Note_on_c, 7, 74, 0
9, 29976, Note_on_c, 7, 67, 0
9, 30000, Note_on_c, 7, 65, 115
9, 30000, Note_on_c, 7, 77, 115
9, 30024, Note_on_c, 7, 77, 0
9, 30024, Note_on_c, 7, 65, 0
9, 30048, Note_on_c, 7, 69, 110
9, 30048, Note_on_c, 7, 76, 110
9, 30072, Note_on_c, 7, 76, 0
9, 30072, Note_on_c, 7, 69, 0
9, 30096, Note_on_c, 7, 69, 110
9, 30096, Note_on_c, 7, 74, 110
9, 30120, Note_on_c, 7, 74, 0
9, 30120, Note_on_c, 7, 69, 0
9, 30144, Note_on_c, 7, 69, 115
9, 30144, Note_on_c, 7, 73, 115
9, 30168, Note_on_c, 7, 73, 0
9, 30168, Note_on_c, 7, 69, 0
9, 30192, Note_on_c, 7, 69, 110
9, 30192, Note_on_c, 7, 74, 110
9, 30216, Note_on_c, 7, 74, 0
9, 30216, Note_on_c, 7, 69, 0
9, 30240, Note_on_c, 7, 67, 110
9, 30240, Note_on_c, 7, 76, 110
9, 30264, Note_on_c, 7, 76, 0
9, 30264, Note_on_c, 7, 67, 0
9, 30288, Note_on_c, 7, 65, 115
9, 30288, Note_on_c, 7, 69, 115
9, 30312, Note_on_c, 7, 69, 0
9, 30312, Note_on_c, 7, 65, 0
9, 30336, Note_on_c, 7, 65, 110
9, 30336, Note_on_c, 7, 69, 110
9, 30360, Note_on_c, 7, 69, 0
9, 30360, Note_on_c, 7, 65, 0
9, 30384, Note_on_c, 7, 65, 110
9, 30384, Note_on_c, 7, 71, 110
9, 30408, Note_on_c, 7, 71, 0
9, 30408, Note_on_c, 7, 65, 0
9, 30432, Note_on_c, 7, 65, 115
9, 30432, Note_on_c, 7, 71, 115
9, 30456, Note_on_c, 7, 71, 0
9, 30456, Note_on_c, 7, 65, 0
9, 30480, Note_on_c, 7, 62, 110
9, 30480, Note_on_c, 7, 71, 110
9, 30504, Note_on_c, 7, 71, 0
9, 30504, Note_on_c, 7, 62, 0
9, 30528, Note_on_c, 7, 65, 110
9, 30528, Note_on_c, 7, 74, 110
9, 30552, Note_on_c, 7, 74, 0
9, 30552, Note_on_c, 7, 65, 0
9, 30576, Note_on_c, 7, 64, 115
9, 30576, Note_on_c, 7, 76, 115
9, 30600, Note_on_c, 7, 76, 0
9, 30600, Note_on_c, 7, 64, 0
9, 30624, Note_on_c, 7, 67, 110
9, 30624, Note_on_c, 7, 74, 110
9, 30648, Note_on_c, 7, 74, 0
9, 30648, Note_on_c, 7, 67, 0
9, 30672, Note_on_c, 7, 67, 110
9, 30672, Note_on_c, 7, 72, 110
9, 30696, Note_on_c, 7, 72, 0
9, 30696, Note_on_c, 7, 67, 0
9, 30720, Note_on_c, 7, 67, 115
9, 30720, Note_on_c, 7, 71, 115
9, 30744, Note_on_c, 7, 71, 0
9, 30744, Note_on_c, 7, 67, 0
9, 30768, Note_on_c, 7, 67, 110
9, 30768, Note_on_c, 7, 72, 110
9, 30792, Note_on_c, 7, 72, 0
9, 30792, Note_on_c, 7, 67, 0
9, 30816, Note_on_c, 7, 67, 110
9, 30816, Note_on_c, 7, 74, 110
9, 30840, Note_on_c, 7, 74, 0
9, 30840, Note_on_c, 7, 67, 0
9, 30864, Note_on_c, 7, 67, 115
9, 30864, Note_on_c, 7, 72, 115
9, 30888, Note_on_c, 7, 72, 0
9, 30888, Note_on_c, 7, 67, 0
9, 30912, Note_on_c, 7, 77, 110
9, 30912, Note_on_c, 7, 81, 110
9, 30936, Note_on_c, 7, 81, 0
9, 30936, Note_on_c, 7, 77, 0
9, 30960, Note_on_c, 7, 77, 110
9, 30960, Note_on_c, 7, 81, 110
9, 30984, Note_on_c, 7, 81, 0
9, 30984, Note_on_c, 7, 77, 0
9, 31008, Note_on_c, 7, 77, 115
9, 31008, Note_on_c, 7, 81, 115
9, 31032, Note_on_c, 7, 81, 0
9, 31032, Note_on_c, 7, 77, 0
9, 31056, Note_on_c, 7, 74, 110
9, 31056, Note_on_c, 7, 79, 110
9, 31080, Note_on_c, 7, 79, 0
9, 31080, Note_on_c, 7, 74, 0
9, 31104, Note_on_c, 7, 74, 110
9, 31104, Note_on_c, 7, 77, 110
9, 31128, Note_on_c, 7, 77, 0
9, 31128, Note_on_c, 7, 74, 0
9, 31152, Note_on_c, 7, 67, 115
9, 31152, Note_on_c, 7, 76, 115
9, 31176, Note_on_c, 7, 76, 0
9, 31176, Note_on_c, 7, 67, 0
9, 31200, Note_on_c, 7, 67, 110
9, 31200, Note_on_c, 7, 74, 110
9, 31224, Note_on_c, 7, 74, 0
9, 31224, Note_on_c, 7, 67, 0
9, 31248, Note_on_c, 7, 67, 110
9, 31248, Note_on_c, 7, 72, 110
9, 31272, Note_on_c, 7, 72, 0
9, 31272, Note_on_c, 7, 67, 0
9, 31296, Note_on_c, 7, 67, 115
9, 31296, Note_on_c, 7, 79, 115
9, 31320, Note_on_c, 7, 79, 0
9, 31320, Note_on_c, 7, 67, 0
9, 31344, Note_on_c, 7, 67, 110
9, 31344, Note_on_c, 7, 77, 110
9, 31368, Note_on_c, 7, 77, 0
9, 31368, Note_on_c, 7, 67, 0
9, 31392, Note_on_c, 7, 67, 110
9, 31392, Note_on_c, 7, 76, 110
9, 31416, Note_on_c, 7, 76, 0
9, 31416, Note_on_c, 7, 67, 0
9, 31440, Note_on_c, 7, 67, 115
9, 31440, Note_on_c, 7, 79, 115
9, 31464, Note_on_c, 7, 79, 0
9, 31464, Note_on_c, 7, 67, 0
9, 31488, Note_on_c, 7, 67, 110
9, 31488, Note_on_c, 7, 77, 110
9, 31512, Note_on_c, 7, 77, 0
9, 31512, Note_on_c, 7, 67, 0
9, 31536, Note_on_c, 7, 67, 110
9, 31536, Note_on_c, 7, 76, 110
9, 31560, Note_on_c, 7, 76, 0
9, 31560, Note_on_c, 7, 67, 0
9, 31584, Note_on_c, 7, 67, 110
9, 31584, Note_on_c, 7, 74, 110
9, 31608, Note_on_c, 7, 74, 0
9, 31608, Note_on_c, 7, 67, 0
9, 32736, Control_c, 7, 1, 0
9, 32736, Control_c, 7, 11, 60
9, 32736, Note_on_c, 7, 67, 110
9, 32737, Control_c, 7, 1, 2
9, 32738, Control_c, 7, 1, 3
9, 32739, Control_c, 7, 1, 4
9, 32740, Control_c, 7, 1, 5
9, 32741, Control_c, 7, 1, 6
9, 32742, Control_c, 7, 1, 7
9, 32744, Control_c, 7, 1, 8
9, 32745, Control_c, 7, 1, 9
9, 32747, Control_c, 7, 1, 10
9, 32748, Control_c, 7, 1, 11
9, 32750, Control_c, 7, 1, 12
9, 32752, Control_c, 7, 1, 13
9, 32754, Control_c, 7, 1, 14
9, 32756, Control_c, 7, 11, 61
9, 32757, Control_c, 7, 1, 15
9, 32760, Control_c, 7, 1, 16
9, 32764, Control_c, 7, 1, 17
9, 32768, Control_c, 7, 1, 18
9, 32775, Control_c, 7, 11, 62
9, 32775, Control_c, 7, 1, 19
9, 32787, Control_c, 7, 1, 20
9, 32794, Control_c, 7, 11, 63
9, 32813, Control_c, 7, 11, 64
9, 32832, Control_c, 7, 11, 65
9, 32852, Control_c, 7, 11, 66
9, 32871, Control_c, 7, 11, 67
9, 32890, Control_c, 7, 11, 68
9, 32909, Control_c, 7, 11, 69
9, 32928, Control_c, 7, 11, 70
9, 32948, Control_c, 7, 11, 71
9, 32967, Control_c, 7, 11, 72
9, 32986, Control_c, 7, 11, 73
9, 33005, Control_c, 7, 11, 74
9, 33024, Note_on_c, 7, 69, 110
9, 33024, Control_c, 7, 11, 75
9, 33043, Control_c, 7, 11, 76
9, 33063, Control_c, 7, 11, 77
9, 33082, Control_c, 7, 11, 78
9, 33101, Control_c, 7, 11, 79
9, 33120, Control_c, 7, 11, 80
9, 33139, Control_c, 7, 11, 81
9, 33159, Control_c, 7, 11, 82
9, 33168, Note_on_c, 7, 65, 110
9, 33169, Note_on_c, 7, 67, 0
9, 33178, Control_c, 7, 11, 83
9, 33197, Control_c, 7, 11, 84
9, 33216, Control_c, 7, 11, 85
9, 33235, Control_c, 7, 11, 86
9, 33254, Control_c, 7, 11, 87
9, 33274, Control_c, 7, 11, 88
9, 33293, Control_c, 7, 11, 89
9, 33312, Note_on_c, 7, 68, 110
9, 33312, Control_c, 7, 11, 90
9, 33313, Note_on_c, 7, 69, 0
9, 33331, Control_c, 7, 11, 91
9, 33350, Control_c, 7, 11, 92
9, 33370, Control_c, 7, 11, 93
9, 33389, Control_c, 7, 11, 94
9, 33408, Control_c, 7, 11, 95
9, 33427, Control_c, 7, 11, 96
9, 33446, Control_c, 7, 11, 97
9, 33456, Note_on_c, 7, 64, 110
9, 33456, Note_on_c, 7, 67, 110
9, 33457, Note_on_c, 7, 68, 0
9, 33457, Note_on_c, 7, 65, 0
9, 33465, Control_c, 7, 11, 98
9, 33485, Control_c, 7, 11, 99
9, 33504, Control_c, 7, 11, 100
9, 33523, Control_c, 7, 11, 101
9, 33542, Control_c, 7, 11, 102
9, 33561, Control_c, 7, 11, 103
9, 33581, Control_c, 7, 11, 104
9, 33600, Note_on_c, 7, 63, 110
9, 33600, Control_c, 7, 11, 105
9, 33601, Note_on_c, 7, 64, 0
9, 33619, Control_c, 7, 11, 106
9, 33638, Control_c, 7, 11, 107
9, 33657, Control_c, 7, 11, 108
9, 33676, Control_c, 7, 11, 109
9, 33696, Control_c, 7, 11, 110
9, 33715, Control_c, 7, 11, 111
9, 33734, Control_c, 7, 11, 112
9, 33744, Note_on_c, 7, 62, 110
9, 33745, Note_on_c, 7, 63, 0
9, 33753, Control_c, 7, 11, 113
9, 33772, Control_c, 7, 11, 114
9, 33792, Control_c, 7, 11, 115
9, 33811, Control_c, 7, 11, 116
9, 33830, Control_c, 7, 11, 117
9, 33849, Control_c, 7, 11, 118
9, 33868, Control_c, 7, 11, 119
9, 33887, Note_on_c, 7, 67, 0
9, 33887, Note_on_c, 7, 62, 0
9, 33887, Control_c, 7, 11, 120
9, 33888, Control_c, 7, 1, 0
9, 33888, Note_on_c, 7, 72, 113
9, 33888, Note_on_c, 7, 60, 113
9, 33936, Note_on_c, 7, 60, 0
9, 33936, Note_on_c, 7, 64, 113
9, 33984, Note_on_c, 7, 64, 0
9, 33984, Note_on_c, 7, 72, 0
9, 33984, Note_on_c, 7, 65, 111
9, 33984, Note_on_c, 7, 74, 111
9, 34008, Note_on_c, 7, 74, 0
9, 34008, Note_on_c, 7, 65, 0
9, 34008, Note_on_c, 7, 67, 112
9, 34008, Note_on_c, 7, 76, 112
9, 34032, Note_on_c, 7, 76, 0
9, 34032, Note_on_c, 7, 67, 0
9, 34032, Note_on_c, 7, 69, 113
9, 34032, Note_on_c, 7, 77, 113
9, 34056, Note_on_c, 7, 77, 0
9, 34056, Note_on_c, 7, 69, 0
9, 34128, Note_on_c, 7, 67, 110
9, 34128, Note_on_c, 7, 76, 110
9, 34152, Note_on_c, 7, 76, 0
9, 34152, Note_on_c, 7, 67, 0
9, 34176, Note_on_c, 7, 65, 113
9, 34176, Note_on_c, 7, 74, 113
9, 34200, Note_on_c, 7, 74, 0
9, 34200, Note_on_c, 7, 65, 0
9, 34272, Note_on_c, 7, 64, 110
9, 34272, Note_on_c, 7, 72, 113
9, 34296, Note_on_c, 7, 72, 0
9, 34296, Note_on_c, 7, 64, 0
9, 34320, Note_on_c, 7, 65, 113
9, 34320, Note_on_c, 7, 74, 113
9, 34344, Note_on_c, 7, 74, 0
9, 34344, Note_on_c, 7, 65, 0
9, 34416, Note_on_c, 7, 62, 110
9, 34416, Note_on_c, 7, 71, 110
9, 34440, Note_on_c, 7, 71, 0
9, 34440, Note_on_c, 7, 62, 0
9, 34464, Note_on_c, 7, 60, 113
9, 34464, Note_on_c, 7, 64, 113
9, 34560, Note_on_c, 7, 64, 0
9, 34560, Note_on_c, 7, 60, 0
9, 34560, Note_on_c, 7, 62, 111
9, 34560, Note_on_c, 7, 65, 111
9, 34584, Note_on_c, 7, 65, 0
9, 34584, Note_on_c, 7, 62, 0
9, 34584, Note_on_c, 7, 64, 112
9, 34584, Note_on_c, 7, 67, 112
9, 34608, Note_on_c, 7, 67, 0
9, 34608, Note_on_c, 7, 64, 0
9, 34608, Note_on_c, 7, 65, 113
9, 34608, Note_on_c, 7, 69, 113
9, 34632, Note_on_c, 7, 69, 0
9, 34632, Note_on_c, 7, 65, 0
9, 34704, Note_on_c, 7, 64, 110
9, 34704, Note_on_c, 7, 67, 110
9, 34728, Note_on_c, 7, 67, 0
9, 34728, Note_on_c, 7, 64, 0
9, 34752, Note_on_c, 7, 62, 113
9, 34752, Note_on_c, 7, 65, 113
9, 34776, Note_on_c, 7, 65, 0
9, 34776, Note_on_c, 7, 62, 0
9, 34848, Note_on_c, 7, 60, 110
9, 34848, Note_on_c, 7, 64, 110
9, 34872, Note_on_c, 7, 64, 0
9, 34872, Note_on_c, 7, 60, 0
9, 34896, Note_on_c, 7, 62, 113
9, 34896, Note_on_c, 7, 65, 113
9, 34920, Note_on_c, 7, 65, 0
9, 34920, Note_on_c, 7, 62, 0
9, 34992, Note_on_c, 7, 59, 110
9, 34992, Note_on_c, 7, 62, 110
9, 35016, Note_on_c, 7, 62, 0
9, 35016, Note_on_c, 7, 59, 0
9, 35040, Note_on_c, 7, 60, 113
9, 35040, Note_on_c, 7, 64, 113
9, 35064, Note_on_c, 7, 64, 0
9, 35064, Note_on_c, 7, 60, 0
9, 35088, Note_on_c, 7, 64, 110
9, 35088, Note_on_c, 7, 72, 110
9, 35136, Note_on_c, 7, 72, 0
9, 35136, Note_on_c, 7, 64, 0
9, 35136, Note_on_c, 7, 65, 111
9, 35136, Note_on_c, 7, 74, 111
9, 35160, Note_on_c, 7, 74, 0
9, 35160, Note_on_c, 7, 65, 0
9, 35160, Note_on_c, 7, 67, 112
9, 35160, Note_on_c, 7, 76, 112
9, 35184, Note_on_c, 7, 76, 0
9, 35184, Note_on_c, 7, 67, 0
9, 35184, Note_on_c, 7, 69, 113
9, 35184, Note_on_c, 7, 77, 113
9, 35208, Note_on_c, 7, 77, 0
9, 35208, Note_on_c, 7, 69, 0
9, 35232, Note_on_c, 7, 69, 110
9, 35232, Note_on_c, 7, 77, 110
9, 35256, Note_on_c, 7, 77, 0
9, 35256, Note_on_c, 7, 69, 0
9, 35280, Note_on_c, 7, 67, 110
9, 35280, Note_on_c, 7, 76, 110
9, 35304, Note_on_c, 7, 76, 0
9, 35304, Note_on_c, 7, 67, 0
9, 35328, Note_on_c, 7, 65, 113
9, 35328, Note_on_c, 7, 74, 113
9, 35352, Note_on_c, 7, 74, 0
9, 35352, Note_on_c, 7, 65, 0
9, 35376, Note_on_c, 7, 65, 110
9, 35376, Note_on_c, 7, 74, 110
9, 35400, Note_on_c, 7, 74, 0
9, 35400, Note_on_c, 7, 65, 0
9, 35424, Note_on_c, 7, 64, 110
9, 35424, Note_on_c, 7, 72, 110
9, 35448, Note_on_c, 7, 72, 0
9, 35448, Note_on_c, 7, 64, 0
9, 35472, Note_on_c, 7, 65, 113
9, 35472, Note_on_c, 7, 74, 113
9, 35496, Note_on_c, 7, 74, 0
9, 35496, Note_on_c, 7, 65, 0
9, 35520, Note_on_c, 7, 65, 110
9, 35520, Note_on_c, 7, 74, 110
9, 35544, Note_on_c, 7, 74, 0
9, 35544, Note_on_c, 7, 65, 0
9, 35568, Note_on_c, 7, 62, 110
9, 35568, Note_on_c, 7, 71, 110
9, 35592, Note_on_c, 7, 71, 0
9, 35592, Note_on_c, 7, 62, 0
9, 35616, Note_on_c, 7, 64, 113
9, 35616, Note_on_c, 7, 72, 113
9, 35640, Note_on_c, 7, 72, 0
9, 35640, Note_on_c, 7, 64, 0
9, 35664, Note_on_c, 7, 60, 110
9, 35664, Note_on_c, 7, 64, 110
9, 35712, Note_on_c, 7, 64, 0
9, 35712, Note_on_c, 7, 60, 0
9, 35712, Note_on_c, 7, 62, 111
9, 35712, Note_on_c, 7, 65, 111
9, 35736, Note_on_c, 7, 65, 0
9, 35736, Note_on_c, 7, 62, 0
9, 35736, Note_on_c, 7, 64, 112
9, 35736, Note_on_c, 7, 67, 112
9, 35760, Note_on_c, 7, 67, 0
9, 35760, Note_on_c, 7, 64, 0
9, 35760, Note_on_c, 7, 65, 113
9, 35760, Note_on_c, 7, 69, 113
9, 35784, Note_on_c, 7, 69, 0
9, 35784, Note_on_c, 7, 65, 0
9, 35808, Note_on_c, 7, 65, 110
9, 35808, Note_on_c, 7, 69, 110
9, 35832, Note_on_c, 7, 69, 0
9, 35832, Note_on_c, 7, 65, 0
9, 35856, Note_on_c, 7, 64, 110
9, 35856, Note_on_c, 7, 67, 110
9, 35880, Note_on_c, 7, 67, 0
9, 35880, Note_on_c, 7, 64, 0
9, 35904, Note_on_c, 7, 62, 113
9, 35904, Note_on_c, 7, 65, 113
9, 35928, Note_on_c, 7, 65, 0
9, 35928, Note_on_c, 7, 62, 0
9, 35952, Note_on_c, 7, 62, 110
9, 35952, Note_on_c, 7, 65, 110
9, 35976, Note_on_c, 7, 65, 0
9, 35976, Note_on_c, 7, 62, 0
9, 36000, Note_on_c, 7, 60, 110
9, 36000, Note_on_c, 7, 64, 110
9, 36024, Note_on_c, 7, 64, 0
9, 36024, Note_on_c, 7, 60, 0
9, 36048, Note_on_c, 7, 62, 113
9, 36048, Note_on_c, 7, 65, 113
9, 36072, Note_on_c, 7, 65, 0
9, 36072, Note_on_c, 7, 62, 0
9, 36096, Note_on_c, 7, 62, 110
9, 36096, Note_on_c, 7, 65, 110
9, 36120, Note_on_c, 7, 65, 0
9, 36120, Note_on_c, 7, 62, 0
9, 36144, Note_on_c, 7, 62, 110
9, 36144, Note_on_c, 7, 71, 110
9, 36168, Note_on_c, 7, 71, 0
9, 36168, Note_on_c, 7, 62, 0
9, 36192, Note_on_c, 7, 60, 120
9, 36192, Note_on_c, 7, 64, 120
9, 36227, Note_on_c, 7, 64, 0
9, 36227, Note_on_c, 7, 60, 0
9, 36264, Note_on_c, 7, 52, 113
9, 36264, Note_on_c, 7, 64, 113
9, 36276, Note_on_c, 7, 64, 0
9, 36276, Note_on_c, 7, 52, 0
9, 36288, Note_on_c, 7, 52, 113
9, 36288, Note_on_c, 7, 64, 113
9, 36312, Note_on_c, 7, 64, 0
9, 36312, Note_on_c, 7, 52, 0
9, 36336, Note_on_c, 7, 52, 116
9, 36336, Note_on_c, 7, 64, 116
9, 36360, Note_on_c, 7, 64, 0
9, 36360, Note_on_c, 7, 52, 0
9, 36384, Note_on_c, 7, 53, 113
9, 36384, Note_on_c, 7, 65, 113
9, 36408, Note_on_c, 7, 65, 0
9, 36408, Note_on_c, 7, 53, 0
9, 36432, Note_on_c, 7, 55, 113
9, 36432, Note_on_c, 7, 67, 113
9, 36456, Note_on_c, 7, 67, 0
9, 36456, Note_on_c, 7, 55, 0
9, 36480, Note_on_c, 7, 57, 113
9, 36480, Note_on_c, 7, 69, 113
9, 36504, Note_on_c, 7, 69, 0
9, 36504, Note_on_c, 7, 57, 0
9, 36624, Note_on_c, 7, 57, 116
9, 36624, Note_on_c, 7, 69, 116
9, 36648, Note_on_c, 7, 69, 0
9, 36648, Note_on_c, 7, 57, 0
9, 36672, Note_on_c, 7, 59, 113
9, 36672, Note_on_c, 7, 71, 113
9, 36696, Note_on_c, 7, 71, 0
9, 36696, Note_on_c, 7, 59, 0
9, 36720, Note_on_c, 7, 60, 113
9, 36720, Note_on_c, 7, 72, 113
9, 36744, Note_on_c, 7, 72, 0
9, 36744, Note_on_c, 7, 60, 0
9, 36768, Note_on_c, 7, 62, 120
9, 36768, Note_on_c, 7, 74, 120
9, 36803, Note_on_c, 7, 74, 0
9, 36803, Note_on_c, 7, 62, 0
9, 36840, Note_on_c, 7, 62, 113
9, 36840, Note_on_c, 7, 74, 113
9, 36852, Note_on_c, 7, 74, 0
9, 36852, Note_on_c, 7, 62, 0
9, 36864, Note_on_c, 7, 62, 113
9, 36864, Note_on_c, 7, 74, 113
9, 36888, Note_on_c, 7, 74, 0
9, 36888, Note_on_c, 7, 62, 0
9, 36912, Note_on_c, 7, 62, 116
9, 36912, Note_on_c, 7, 74, 116
9, 36936, Note_on_c, 7, 74, 0
9, 36936, Note_on_c, 7, 62, 0
9, 36960, Note_on_c, 7, 64, 113
9, 36960, Note_on_c, 7, 76, 113
9, 36984, Note_on_c, 7, 76, 0
9, 36984, Note_on_c, 7, 64, 0
9, 37008, Note_on_c, 7, 65, 113
9, 37008, Note_on_c, 7, 77, 113
9, 37032, Note_on_c, 7, 77, 0
9, 37032, Note_on_c, 7, 65, 0
9, 37056, Note_on_c, 7, 67, 113
9, 37056, Note_on_c, 7, 79, 113
9, 37080, Note_on_c, 7, 79, 0
9, 37080, Note_on_c, 7, 67, 0
9, 37200, Note_on_c, 7, 55, 116
9, 37200, Note_on_c, 7, 67, 116
9, 37224, Note_on_c, 7, 67, 0
9, 37224, Note_on_c, 7, 55, 0
9, 37248, Note_on_c, 7, 60, 113
9, 37248, Note_on_c, 7, 72, 113
9, 37272, Note_on_c, 7, 72, 0
9, 37272, Note_on_c, 7, 60, 0
9, 37296, Note_on_c, 7, 62, 113
9, 37296, Note_on_c, 7, 74, 113
9, 37320, Note_on_c, 7, 74, 0
9, 37320, Note_on_c, 7, 62, 0
9, 37344, Note_on_c, 7, 64, 60
9, 37344, Note_on_c, 7, 76, 60
9, 37368, Note_on_c, 7, 76, 0
9, 37368, Note_on_c, 7, 64, 0
9, 38208, Control_c, 7, 11, 60
9, 38208, Control_c, 7, 1, 0
9, 38208, Note_on_c, 7, 67, 100
9, 38209, Control_c, 7, 1, 3
9, 38210, Control_c, 7, 1, 4
9, 38211, Control_c, 7, 1, 6
9, 38212, Control_c, 7, 1, 7
9, 38213, Control_c, 7, 1, 9
9, 38214, Control_c, 7, 1, 10
9, 38215, Control_c, 7, 1, 11
9, 38216, Control_c, 7, 1, 12
9, 38218, Control_c, 7, 11, 61
9, 38218, Control_c, 7, 1, 13
9, 38219, Control_c, 7, 1, 14
9, 38221, Control_c, 7, 1, 15
9, 38224, Control_c, 7, 1, 16
9, 38227, Control_c, 7, 1, 17
9, 38228, Control_c, 7, 11, 62
9, 38232, Control_c, 7, 1, 18
9, 38237, Control_c, 7, 11, 63
9, 38247, Control_c, 7, 11, 64
9, 38256, Note_on_c, 7, 67, 0
9, 38256, Note_on_c, 7, 60, 100
9, 38256, Control_c, 7, 11, 65
9, 38266, Control_c, 7, 11, 66
9, 38276, Control_c, 7, 11, 67
9, 38285, Control_c, 7, 11, 68
9, 38295, Control_c, 7, 11, 69
9, 38304, Note_on_c, 7, 60, 0
9, 38304, Note_on_c, 7, 62, 100
9, 38304, Control_c, 7, 11, 70
9, 38314, Control_c, 7, 11, 71
9, 38323, Control_c, 7, 11, 72
9, 38333, Control_c, 7, 11, 73
9, 38343, Control_c, 7, 11, 74
9, 38352, Note_on_c, 7, 62, 0
9, 38352, Note_on_c, 7, 64, 100
9, 38352, Control_c, 7, 11, 75
9, 38362, Control_c, 7, 11, 76
9, 38371, Control_c, 7, 11, 77
9, 38381, Control_c, 7, 11, 78
9, 38391, Control_c, 7, 11, 79
9, 38400, Note_on_c, 7, 64, 0
9, 38400, Note_on_c, 7, 65, 100
9, 38400, Control_c, 7, 11, 80
9, 38410, Control_c, 7, 11, 81
9, 38419, Control_c, 7, 11, 82
9, 38429, Control_c, 7, 11, 83
9, 38438, Control_c, 7, 11, 84
9, 38448, Note_on_c, 7, 65, 0
9, 38448, Note_on_c, 7, 67, 100
9, 38448, Control_c, 7, 11, 85
9, 38458, Control_c, 7, 11, 86
9, 38467, Control_c, 7, 11, 87
9, 38477, Control_c, 7, 11, 88
9, 38486, Control_c, 7, 11, 89
9, 38496, Note_on_c, 7, 67, 0
9, 38496, Note_on_c, 7, 66, 100
9, 38496, Control_c, 7, 11, 90
9, 38506, Control_c, 7, 11, 91
9, 38515, Control_c, 7, 11, 92
9, 38525, Control_c, 7, 11, 93
9, 38534, Control_c, 7, 11, 94
9, 38544, Note_on_c, 7, 66, 0
9, 38544, Note_on_c, 7, 67, 100
9, 38544, Control_c, 7, 11, 95
9, 38553, Control_c, 7, 11, 96
9, 38563, Control_c, 7, 11, 97
9, 38573, Control_c, 7, 11, 98
9, 38582, Control_c, 7, 11, 99
9, 38592, Note_on_c, 7, 67, 0
9, 38592, Note_on_c, 7, 69, 100
9, 38592, Control_c, 7, 11, 100
9, 38601, Control_c, 7, 11, 101
9, 38611, Control_c, 7, 11, 102
9, 38621, Control_c, 7, 11, 103
9, 38630, Control_c, 7, 11, 104
9, 38640, Note_on_c, 7, 69, 0
9, 38640, Note_on_c, 7, 67, 100
9, 38640, Control_c, 7, 11, 105
9, 38649, Control_c, 7, 11, 106
9, 38659, Control_c, 7, 11, 107
9, 38668, Control_c, 7, 11, 108
9, 38678, Control_c, 7, 11, 109
9, 38688, Note_on_c, 7, 67, 0
9, 38688, Note_on_c, 7, 71, 100
9, 38688, Note_on_c, 7, 74, 100
9, 38688, Control_c, 7, 11, 110
9, 38697, Control_c, 7, 11, 111
9, 38707, Control_c, 7, 11, 112
9, 38716, Control_c, 7, 11, 113
9, 38726, Control_c, 7, 11, 114
9, 38736, Note_on_c, 7, 74, 0
9, 38736, Note_on_c, 7, 71, 0
9, 38736, Note_on_c, 7, 67, 100
9, 38736, Note_on_c, 7, 72, 100
9, 38736, Control_c, 7, 11, 115
9, 38745, Control_c, 7, 11, 116
9, 38755, Control_c, 7, 11, 117
9, 38764, Control_c, 7, 11, 118
9, 38774, Control_c, 7, 11, 119
9, 38783, Control_c, 7, 11, 120
9, 38784, Note_on_c, 7, 72, 0
9, 38784, Note_on_c, 7, 67, 0
9, 38784, Control_c, 7, 1, 0
9, 38784, Note_on_c, 7, 55, 105
9, 38784, Note_on_c, 7, 67, 105
9, 38808, Note_on_c, 7, 67, 0
9, 38808, Note_on_c, 7, 55, 0
9, 38832, Note_on_c, 7, 64, 100
9, 38832, Note_on_c, 7, 76, 100
9, 38856, Note_on_c, 7, 76, 0
9, 38856, Note_on_c, 7, 64, 0
9, 38880, Note_on_c, 7, 65, 100
9, 38880, Note_on_c, 7, 69, 100
9, 38904, Note_on_c, 7, 69, 0
9, 38904, Note_on_c, 7, 65, 0
9, 38928, Note_on_c, 7, 65, 105
9, 38928, Note_on_c, 7, 77, 105
9, 38952, Note_on_c, 7, 77, 0
9, 38952, Note_on_c, 7, 65, 0
9, 38976, Note_on_c, 7, 67, 100
9, 38976, Note_on_c, 7, 74, 100
9, 39000, Note_on_c, 7, 74, 0
9, 39000, Note_on_c, 7, 67, 0
9, 39024, Note_on_c, 7, 71, 100
9, 39024, Note_on_c, 7, 74, 100
9, 39048, Note_on_c, 7, 74, 0
9, 39048, Note_on_c, 7, 71, 0
9, 39072, Note_on_c, 7, 72, 100
9, 39072, Note_on_c, 7, 76, 100
9, 39096, Note_on_c, 7, 76, 0
9, 39096, Note_on_c, 7, 72, 0
9, 39360, Note_on_c, 7, 55, 105
9, 39360, Note_on_c, 7, 67, 105
9, 39384, Note_on_c, 7, 67, 0
9, 39384, Note_on_c, 7, 55, 0
9, 39408, Note_on_c, 7, 64, 100
9, 39408, Note_on_c, 7, 76, 100
9, 39432, Note_on_c, 7, 76, 0
9, 39432, Note_on_c, 7, 64, 0
9, 39456, Note_on_c, 7, 65, 100
9, 39456, Note_on_c, 7, 69, 100
9, 39480, Note_on_c, 7, 69, 0
9, 39480, Note_on_c, 7, 65, 0
9, 39504, Note_on_c, 7, 65, 105
9, 39504, Note_on_c, 7, 77, 105
9, 39528, Note_on_c, 7, 77, 0
9, 39528, Note_on_c, 7, 65, 0
9, 39552, Note_on_c, 7, 67, 100
9, 39552, Note_on_c, 7, 74, 100
9, 39576, Note_on_c, 7, 74, 0
9, 39576, Note_on_c, 7, 67, 0
9, 39600, Note_on_c, 7, 71, 100
9, 39600, Note_on_c, 7, 74, 100
9, 39624, Note_on_c, 7, 74, 0
9, 39624, Note_on_c, 7, 71, 0
9, 39648, Note_on_c, 7, 72, 105
9, 39648, Note_on_c, 7, 76, 105
9, 39672, Note_on_c, 7, 76, 0
9, 39672, Note_on_c, 7, 72, 0
9, 39696, Note_on_c, 7, 67, 100
9, 39696, Note_on_c, 7, 79, 100
9, 39720, Note_on_c, 7, 79, 0
9, 39720, Note_on_c, 7, 67, 0
9, 39744, Note_on_c, 7, 67, 100
9, 39744, Note_on_c, 7, 79, 100
9, 39768, Note_on_c, 7, 79, 0
9, 39768, Note_on_c, 7, 67, 0
9, 39792, Note_on_c, 7, 67, 105
9, 39792, Note_on_c, 7, 79, 105
9, 39816, Note_on_c, 7, 79, 0
9, 39816, Note_on_c, 7, 67, 0
9, 39840, Note_on_c, 7, 67, 100
9, 39840, Note_on_c, 7, 79, 100
9, 39864, Note_on_c, 7, 79, 0
9, 39864, Note_on_c, 7, 67, 0
9, 39888, Note_on_c, 7, 67, 100
9, 39888, Note_on_c, 7, 79, 100
9, 39912, Note_on_c, 7, 79, 0
9, 39912, Note_on_c, 7, 67, 0
9, 39936, Note_on_c, 7, 72, 105
9, 39936, Note_on_c, 7, 76, 105
9, 39960, Note_on_c, 7, 76, 0
9, 39960, Note_on_c, 7, 72, 0
9, 39984, Note_on_c, 7, 67, 100
9, 39984, Note_on_c, 7, 72, 100
9, 40008, Note_on_c, 7, 72, 0
9, 40008, Note_on_c, 7, 67, 0
9, 40032, Note_on_c, 7, 76, 100
9, 40032, Note_on_c, 7, 79, 100
9, 40056, Note_on_c, 7, 79, 0
9, 40056, Note_on_c, 7, 76, 0
9, 40080, Note_on_c, 7, 74, 105
9, 40080, Note_on_c, 7, 77, 105
9, 40104, Note_on_c, 7, 77, 0
9, 40104, Note_on_c, 7, 74, 0
9, 40128, Note_on_c, 7, 67, 100
9, 40128, Note_on_c, 7, 74, 100
9, 40152, Note_on_c, 7, 74, 0
9, 40152, Note_on_c, 7, 67, 0
9, 40176, Note_on_c, 7, 77, 100
9, 40176, Note_on_c, 7, 79, 100
9, 40200, Note_on_c, 7, 79, 0
9, 40200, Note_on_c, 7, 77, 0
9, 40224, Note_on_c, 7, 72, 105
9, 40224, Note_on_c, 7, 76, 105
9, 40248, Note_on_c, 7, 76, 0
9, 40248, Note_on_c, 7, 72, 0
9, 40272, Note_on_c, 7, 67, 100
9, 40272, Note_on_c, 7, 72, 100
9, 40296, Note_on_c, 7, 72, 0
9, 40296, Note_on_c, 7, 67, 0
9, 40320, Note_on_c, 7, 76, 100
9, 40320, Note_on_c, 7, 79, 100
9, 40344, Note_on_c, 7, 79, 0
9, 40344, Note_on_c, 7, 76, 0
9, 40368, Note_on_c, 7, 74, 105
9, 40368, Note_on_c, 7, 77, 105
9, 40392, Note_on_c, 7, 77, 0
9, 40392, Note_on_c, 7, 74, 0
9, 40416, Note_on_c, 7, 67, 100
9, 40416, Note_on_c, 7, 74, 100
9, 40440, Note_on_c, 7, 74, 0
9, 40440, Note_on_c, 7, 67, 0
9, 40464, Note_on_c, 7, 77, 100
9, 40464, Note_on_c, 7, 79, 100
9, 40488, Note_on_c, 7, 79, 0
9, 40488, Note_on_c, 7, 77, 0
9, 40512, Control_c, 7, 1, 0
9, 40512, Note_on_c, 7, 55, 46
9, 40513, Control_c, 7, 1, 2
9, 40514, Control_c, 7, 1, 3
9, 40515, Control_c, 7, 1, 4
9, 40517, Control_c, 7, 1, 5
9, 40518, Control_c, 7, 1, 6
9, 40519, Control_c, 7, 1, 7
9, 40521, Control_c, 7, 1, 8
9, 40522, Control_c, 7, 1, 9
9, 40524, Control_c, 7, 1, 10
9, 40526, Control_c, 7, 1, 11
9, 40528, Control_c, 7, 1, 12
9, 40531, Control_c, 7, 1, 13
9, 40534, Control_c, 7, 1, 14
9, 40538, Control_c, 7, 1, 15
9, 40543, Control_c, 7, 1, 16
9, 40550, Control_c, 7, 1, 17
9, 40560, Note_on_c, 7, 55, 0
9, 40560, Note_on_c, 7, 57, 48
9, 40561, Control_c, 7, 1, 18
9, 40608, Note_on_c, 7, 57, 0
9, 40608, Note_on_c, 7, 59, 50
9, 40656, Note_on_c, 7, 59, 0
9, 40656, Note_on_c, 7, 60, 51
9, 40704, Note_on_c, 7, 60, 0
9, 40704, Note_on_c, 7, 62, 53
9, 40752, Note_on_c, 7, 62, 0
9, 40752, Note_on_c, 7, 64, 55
9, 40800, Note_on_c, 7, 64, 0
9, 40800, Note_on_c, 7, 65, 56
9, 40848, Note_on_c, 7, 65, 0
9, 40848, Note_on_c, 7, 64, 55
9, 40896, Note_on_c, 7, 64, 0
9, 40896, Note_on_c, 7, 65, 56
9, 40944, Note_on_c, 7, 65, 0
9, 40944, Note_on_c, 7, 67, 58
9, 40992, Note_on_c, 7, 67, 0
9, 40992, Note_on_c, 7, 69, 60
9, 41040, Note_on_c, 7, 69, 0
9, 41040, Note_on_c, 7, 71, 62
9, 41088, Note_on_c, 7, 71, 0
9, 41088, Control_c, 7, 1, 0
9, 41088, Note_on_c, 7, 72, 50
9, 41112, Note_on_c, 7, 72, 0
9, 41232, Note_on_c, 7, 60, 55
9, 41232, Note_on_c, 7, 64, 55
9, 41267, Note_on_c, 7, 64, 0
9, 41267, Note_on_c, 7, 60, 0
9, 41304, Note_on_c, 7, 60, 50
9, 41304, Note_on_c, 7, 64, 50
9, 41316, Note_on_c, 7, 64, 0
9, 41316, Note_on_c, 7, 60, 0
9, 41328, Note_on_c, 7, 60, 50
9, 41328, Note_on_c, 7, 64, 50
9, 41352, Note_on_c, 7, 64, 0
9, 41352, Note_on_c, 7, 60, 0
9, 41376, Note_on_c, 7, 60, 50
9, 41376, Note_on_c, 7, 69, 50
9, 41400, Note_on_c, 7, 69, 0
9, 41400, Note_on_c, 7, 60, 0
9, 41520, Note_on_c, 7, 65, 55
9, 41520, Note_on_c, 7, 69, 55
9, 41555, Note_on_c, 7, 69, 0
9, 41555, Note_on_c, 7, 65, 0
9, 41592, Note_on_c, 7, 65, 50
9, 41592, Note_on_c, 7, 69, 50
9, 41604, Note_on_c, 7, 69, 0
9, 41604, Note_on_c, 7, 65, 0
9, 41616, Note_on_c, 7, 65, 50
9, 41616, Note_on_c, 7, 69, 50
9, 41640, Note_on_c, 7, 69, 0
9, 41640, Note_on_c, 7, 65, 0
9, 41664, Note_on_c, 7, 65, 50
9, 41664, Note_on_c, 7, 69, 50
9, 41688, Note_on_c, 7, 69, 0
9, 41688, Note_on_c, 7, 65, 0
9, 42384, Note_on_c, 7, 62, 60
9, 42384, Note_on_c, 7, 65, 60
9, 42419, Note_on_c, 7, 65, 0
9, 42419, Note_on_c, 7, 62, 0
9, 42456, Note_on_c, 7, 62, 50
9, 42456, Note_on_c, 7, 65, 50
9, 42468, Note_on_c, 7, 65, 0
9, 42468, Note_on_c, 7, 62, 0
9, 42480, Note_on_c, 7, 62, 50
9, 42480, Note_on_c, 7, 65, 50
9, 42504, Note_on_c, 7, 65, 0
9, 42504, Note_on_c, 7, 62, 0
9, 42528, Note_on_c, 7, 62, 50
9, 42528, Note_on_c, 7, 65, 50
9, 42552, Note_on_c, 7, 65, 0
9, 42552, Note_on_c, 7, 62, 0
9, 42672, Note_on_c, 7, 63, 60
9, 42672, Note_on_c, 7, 67, 60
9, 42707, Note_on_c, 7, 67, 0
9, 42707, Note_on_c, 7, 63, 0
9, 42744, Note_on_c, 7, 63, 50
9, 42744, Note_on_c, 7, 67, 50
9, 42756, Note_on_c, 7, 67, 0
9, 42756, Note_on_c, 7, 63, 0
9, 42768, Note_on_c, 7, 63, 50
9, 42768, Note_on_c, 7, 67, 50
9, 42792, Note_on_c, 7, 67, 0
9, 42792, Note_on_c, 7, 63, 0
9, 42816, Note_on_c, 7, 63, 50
9, 42816, Note_on_c, 7, 67, 50
9, 42840, Note_on_c, 7, 67, 0
9, 42840, Note_on_c, 7, 63, 0
9, 43536, Note_on_c, 7, 63, 60
9, 43536, Note_on_c, 7, 67, 60
9, 43571, Note_on_c, 7, 67, 0
9, 43571, Note_on_c, 7, 63, 0
9, 43608, Note_on_c, 7, 63, 61
9, 43608, Note_on_c, 7, 67, 61
9, 43620, Note_on_c, 7, 67, 0
9, 43620, Note_on_c, 7, 63, 0
9, 43632, Note_on_c, 7, 63, 62
9, 43632, Note_on_c, 7, 67, 62
9, 43656, Note_on_c, 7, 67, 0
9, 43656, Note_on_c, 7, 63, 0
9, 43680, Note_on_c, 7, 63, 63
9, 43680, Note_on_c, 7, 68, 63
9, 43704, Note_on_c, 7, 68, 0
9, 43704, Note_on_c, 7, 63, 0
9, 43824, Note_on_c, 7, 65, 66
9, 43824, Note_on_c, 7, 68, 66
9, 43859, Note_on_c, 7, 68, 0
9, 43859, Note_on_c, 7, 65, 0
9, 43896, Note_on_c, 7, 65, 68
9, 43896, Note_on_c, 7, 68, 68
9, 43908, Note_on_c, 7, 68, 0
9, 43908, Note_on_c, 7, 65, 0
9, 43920, Note_on_c, 7, 65, 69
9, 43920, Note_on_c, 7, 68, 69
9, 43944, Note_on_c, 7, 68, 0
9, 43944, Note_on_c, 7, 65, 0
9, 43968, Note_on_c, 7, 65, 70
9, 43968, Note_on_c, 7, 68, 70
9, 43992, Note_on_c, 7, 68, 0
9, 43992, Note_on_c, 7, 65, 0
9, 44112, Note_on_c, 7, 65, 73
9, 44112, Note_on_c, 7, 70, 73
9, 44147, Note_on_c, 7, 70, 0
9, 44147, Note_on_c, 7, 65, 0
9, 44184, Note_on_c, 7, 65, 73
9, 44184, Note_on_c, 7, 70, 75
9, 44196, Note_on_c, 7, 70, 0
9, 44196, Note_on_c, 7, 65, 0
9, 44208, Note_on_c, 7, 65, 75
9, 44208, Note_on_c, 7, 70, 75
9, 44232, Note_on_c, 7, 70, 0
9, 44232, Note_on_c, 7, 65, 0
9, 44256, Note_on_c, 7, 65, 76
9, 44256, Note_on_c, 7, 70, 76
9, 44280, Note_on_c, 7, 70, 0
9, 44280, Note_on_c, 7, 65, 0
9, 44400, Note_on_c, 7, 66, 80
9, 44400, Note_on_c, 7, 70, 80
9, 44435, Note_on_c, 7, 70, 0
9, 44435, Note_on_c, 7, 66, 0
9, 44472, Note_on_c, 7, 66, 81
9, 44472, Note_on_c, 7, 70, 81
9, 44484, Note_on_c, 7, 70, 0
9, 44484, Note_on_c, 7, 66, 0
9, 44496, Note_on_c, 7, 66, 82
9, 44496, Note_on_c, 7, 70, 82
9, 44520, Note_on_c, 7, 70, 0
9, 44520, Note_on_c, 7, 66, 0
9, 44544, Note_on_c, 7, 66, 83
9, 44544, Note_on_c, 7, 71, 83
9, 44568, Note_on_c, 7, 71, 0
9, 44568, Note_on_c, 7, 66, 0
9, 44688, Note_on_c, 7, 68, 87
9, 44688, Note_on_c, 7, 71, 87
9, 44723, Note_on_c, 7, 71, 0
9, 44723, Note_on_c, 7, 68, 0
9, 44760, Note_on_c, 7, 68, 88
9, 44760, Note_on_c, 7, 71, 88
9, 44772, Note_on_c, 7, 71, 0
9, 44772, Note_on_c, 7, 68, 0
9, 44784, Note_on_c, 7, 68, 89
9, 44784, Note_on_c, 7, 71, 89
9, 44808, Note_on_c, 7, 71, 0
9, 44808, Note_on_c, 7, 68, 0
9, 44832, Note_on_c, 7, 68, 90
9, 44832, Note_on_c, 7, 71, 90
9, 44856, Note_on_c, 7, 71, 0
9, 44856, Note_on_c, 7, 68, 0
9, 44976, Note_on_c, 7, 68, 93
9, 44976, Note_on_c, 7, 73, 93
9, 45011, Note_on_c, 7, 73, 0
9, 45011, Note_on_c, 7, 68, 0
9, 45048, Note_on_c, 7, 68, 95
9, 45048, Note_on_c, 7, 73, 95
9, 45060, Note_on_c, 7, 73, 0
9, 45060, Note_on_c, 7, 68, 0
9, 45072, Note_on_c, 7, 68, 96
9, 45072, Note_on_c, 7, 73, 96
9, 45096, Note_on_c, 7, 73, 0
9, 45096, Note_on_c, 7, 68, 0
9, 45120, Note_on_c, 7, 69, 100
9, 45120, Note_on_c, 7, 73, 100
9, 45144, Note_on_c, 7, 73, 0
9, 45144, Note_on_c, 7, 69, 0
9, 45264, Note_on_c, 7, 69, 100
9, 45264, Note_on_c, 7, 81, 100
9, 45299, Note_on_c, 7, 81, 0
9, 45299, Note_on_c, 7, 69, 0
9, 45336, Note_on_c, 7, 57, 100
9, 45336, Note_on_c, 7, 69, 100
9, 45348, Note_on_c, 7, 69, 0
9, 45348, Note_on_c, 7, 57, 0
9, 45360, Note_on_c, 7, 57, 100
9, 45360, Note_on_c, 7, 69, 100
9, 45384, Note_on_c, 7, 69, 0
9, 45384, Note_on_c, 7, 57, 0
9, 45552, Note_on_c, 7, 58, 113
9, 45552, Note_on_c, 7, 70, 113
9, 45587, Note_on_c, 7, 70, 0
9, 45587, Note_on_c, 7, 58, 0
9, 45624, Note_on_c, 7, 58, 113
9, 45636, Note_on_c, 7, 58, 0
9, 45648, Note_on_c, 7, 58, 113
9, 45672, Note_on_c, 7, 58, 0
9, 45840, Note_on_c, 7, 59, 113
9, 45840, Note_on_c, 7, 71, 113
9, 45875, Note_on_c, 7, 71, 0
9, 45875, Note_on_c, 7, 59, 0
9, 45912, Note_on_c, 7, 59, 113
9, 45924, Note_on_c, 7, 59, 0
9, 45936, Note_on_c, 7, 59, 113
9, 46008, Note_on_c, 7, 59, 0
9, 46464, Note_on_c, 7, 71, 75
9, 46499, Note_on_c, 7, 71, 0
9, 46536, Note_on_c, 7, 59, 70
9, 46548, Note_on_c, 7, 59, 0
9, 46560, Note_on_c, 7, 59, 70
9, 46584, Note_on_c, 7, 59, 0
9, 46608, Note_on_c, 7, 64, 65
9, 46632, Note_on_c, 7, 64, 0
9, 46656, Note_on_c, 7, 63, 60
9, 46656, Note_on_c, 7, 66, 60
9, 46680, Note_on_c, 7, 66, 0
9, 46680, Note_on_c, 7, 63, 0
9, 46704, Note_on_c, 7, 64, 60
9, 46704, Note_on_c, 7, 67, 60
9, 46728, Note_on_c, 7, 67, 0
9, 46728, Note_on_c, 7, 64, 0
9, 46752, Note_on_c, 7, 63, 65
9, 46752, Note_on_c, 7, 66, 65
9, 46776, Note_on_c, 7, 66, 0
9, 46776, Note_on_c, 7, 63, 0
9, 46800, Note_on_c, 7, 64, 60
9, 46800, Note_on_c, 7, 67, 60
9, 46824, Note_on_c, 7, 67, 0
9, 46824, Note_on_c, 7, 64, 0
9, 46848, Note_on_c, 7, 66, 60
9, 46848, Note_on_c, 7, 69, 60
9, 46872, Note_on_c, 7, 69, 0
9, 46872, Note_on_c, 7, 66, 0
9, 46896, Note_on_c, 7, 64, 65
9, 46896, Note_on_c, 7, 67, 65
9, 46920, Note_on_c, 7, 67, 0
9, 46920, Note_on_c, 7, 64, 0
9, 46944, Note_on_c, 7, 67, 60
9, 46944, Note_on_c, 7, 71, 60
9, 46968, Note_on_c, 7, 71, 0
9, 46968, Note_on_c, 7, 67, 0
9, 46992, Note_on_c, 7, 67, 60
9, 46992, Note_on_c, 7, 71, 60
9, 47016, Note_on_c, 7, 71, 0
9, 47016, Note_on_c, 7, 67, 0
9, 47040, Note_on_c, 7, 67, 65
9, 47040, Note_on_c, 7, 71, 65
9, 47064, Note_on_c, 7, 71, 0
9, 47064, Note_on_c, 7, 67, 0
9, 47088, Note_on_c, 7, 66, 60
9, 47088, Note_on_c, 7, 69, 60
9, 47112, Note_on_c, 7, 69, 0
9, 47112, Note_on_c, 7, 66, 0
9, 47136, Note_on_c, 7, 64, 60
9, 47136, Note_on_c, 7, 67, 60
9, 47160, Note_on_c, 7, 67, 0
9, 47160, Note_on_c, 7, 64, 0
9, 47184, Note_on_c, 7, 66, 65
9, 47184, Note_on_c, 7, 69, 65
9, 47208, Note_on_c, 7, 69, 0
9, 47208, Note_on_c, 7, 66, 0
9, 47232, Note_on_c, 7, 64, 60
9, 47232, Note_on_c, 7, 67, 60
9, 47256, Note_on_c, 7, 67, 0
9, 47256, Note_on_c, 7, 64, 0
9, 47280, Note_on_c, 7, 63, 60
9, 47280, Note_on_c, 7, 66, 60
9, 47304, Note_on_c, 7, 66, 0
9, 47304, Note_on_c, 7, 63, 0
9, 47328, Note_on_c, 7, 64, 65
9, 47328, Note_on_c, 7, 68, 65
9, 47352, Note_on_c, 7, 68, 0
9, 47352, Note_on_c, 7, 64, 0
9, 47376, Note_on_c, 7, 64, 60
9, 47376, Note_on_c, 7, 76, 60
9, 47400, Note_on_c, 7, 76, 0
9, 47400, Note_on_c, 7, 64, 0
9, 47424, Note_on_c, 7, 64, 60
9, 47424, Note_on_c, 7, 76, 60
9, 47448, Note_on_c, 7, 76, 0
9, 47448, Note_on_c, 7, 64, 0
9, 47472, Note_on_c, 7, 72, 65
9, 47472, Note_on_c, 7, 76, 65
9, 47496, Note_on_c, 7, 76, 0
9, 47496, Note_on_c, 7, 72, 0
9, 47520, Note_on_c, 7, 71, 60
9, 47520, Note_on_c, 7, 74, 60
9, 47544, Note_on_c, 7, 74, 0
9, 47544, Note_on_c, 7, 71, 0
9, 47568, Note_on_c, 7, 69, 60
9, 47568, Note_on_c, 7, 72, 60
9, 47592, Note_on_c, 7, 72, 0
9, 47592, Note_on_c, 7, 69, 0
9, 47616, Note_on_c, 7, 71, 65
9, 47616, Note_on_c, 7, 74, 65
9, 47640, Note_on_c, 7, 74, 0
9, 47640, Note_on_c, 7, 71, 0
9, 47664, Note_on_c, 7, 69, 60
9, 47664, Note_on_c, 7, 72, 60
9, 47688, Note_on_c, 7, 72, 0
9, 47688, Note_on_c, 7, 69, 0
9, 47712, Note_on_c, 7, 68, 60
9, 47712, Note_on_c, 7, 71, 60
9, 47736, Note_on_c, 7, 71, 0
9, 47736, Note_on_c, 7, 68, 0
9, 47760, Note_on_c, 7, 76, 65
9, 47795, Note_on_c, 7, 76, 0
9, 47832, Note_on_c, 7, 64, 60
9, 47844, Note_on_c, 7, 64, 0
9, 47856, Note_on_c, 7, 64, 60
9, 47880, Note_on_c, 7, 64, 0
9, 47904, Note_on_c, 7, 64, 65
9, 47904, Note_on_c, 7, 69, 65
9, 47928, Note_on_c, 7, 69, 0
9, 47928, Note_on_c, 7, 64, 0
9, 47952, Note_on_c, 7, 68, 60
9, 47952, Note_on_c, 7, 71, 60
9, 47976, Note_on_c, 7, 71, 0
9, 47976, Note_on_c, 7, 68, 0
9, 48000, Note_on_c, 7, 69, 60
9, 48000, Note_on_c, 7, 72, 60
9, 48024, Note_on_c, 7, 72, 0
9, 48024, Note_on_c, 7, 69, 0
9, 48048, Note_on_c, 7, 68, 65
9, 48048, Note_on_c, 7, 71, 65
9, 48072, Note_on_c, 7, 71, 0
9, 48072, Note_on_c, 7, 68, 0
9, 48096, Note_on_c, 7, 69, 60
9, 48096, Note_on_c, 7, 72, 60
9, 48120, Note_on_c, 7, 72, 0
9, 48120, Note_on_c, 7, 69, 0
9, 48144, Note_on_c, 7, 71, 60
9, 48144, Note_on_c, 7, 74, 60
9, 48168, Note_on_c, 7, 74, 0
9, 48168, Note_on_c, 7, 71, 0
9, 48192, Note_on_c, 7, 69, 65
9, 48192, Note_on_c, 7, 72, 65
9, 48216, Note_on_c, 7, 72, 0
9, 48216, Note_on_c, 7, 69, 0
9, 48240, Note_on_c, 7, 72, 60
9, 48240, Note_on_c, 7, 76, 60
9, 48264, Note_on_c, 7, 76, 0
9, 48264, Note_on_c, 7, 72, 0
9, 48288, Note_on_c, 7, 72, 60
9, 48288, Note_on_c, 7, 76, 60
9, 48312, Note_on_c, 7, 76, 0
9, 48312, Note_on_c, 7, 72, 0
9, 48336, Note_on_c, 7, 72, 65
9, 48336, Note_on_c, 7, 76, 65
9, 48360, Note_on_c, 7, 76, 0
9, 48360, Note_on_c, 7, 72, 0
9, 48384, Note_on_c, 7, 71, 60
9, 48384, Note_on_c, 7, 74, 60
9, 48408, Note_on_c, 7, 74, 0
9, 48408, Note_on_c, 7, 71, 0
9, 48432, Note_on_c, 7, 69, 60
9, 48432, Note_on_c, 7, 72, 60
9, 48456, Note_on_c, 7, 72, 0
9, 48456, Note_on_c, 7, 69, 0
9, 48480, Note_on_c, 7, 71, 65
9, 48480, Note_on_c, 7, 74, 65
9, 48504, Note_on_c, 7, 74, 0
9, 48504, Note_on_c, 7, 71, 0
9, 48528, Note_on_c, 7, 69, 60
9, 48528, Note_on_c, 7, 72, 60
9, 48552, Note_on_c, 7, 72, 0
9, 48552, Note_on_c, 7, 69, 0
9, 48576, Note_on_c, 7, 68, 60
9, 48576, Note_on_c, 7, 71, 60
9, 48600, Note_on_c, 7, 71, 0
9, 48600, Note_on_c, 7, 68, 0
9, 48768, Note_on_c, 7, 65, 65
9, 48768, Note_on_c, 7, 69, 65
9, 48792, Note_on_c, 7, 69, 0
9, 48792, Note_on_c, 7, 65, 0
9, 48816, Note_on_c, 7, 67, 60
9, 48816, Note_on_c, 7, 70, 60
9, 48840, Note_on_c, 7, 70, 0
9, 48840, Note_on_c, 7, 67, 0
9, 48864, Note_on_c, 7, 69, 60
9, 48864, Note_on_c, 7, 72, 60
9, 48888, Note_on_c, 7, 72, 0
9, 48888, Note_on_c, 7, 69, 0
9, 48912, Note_on_c, 7, 67, 65
9, 48912, Note_on_c, 7, 70, 65
9, 48936, Note_on_c, 7, 70, 0
9, 48936, Note_on_c, 7, 67, 0
9, 48960, Note_on_c, 7, 69, 60
9, 48960, Note_on_c, 7, 72, 60
9, 48984, Note_on_c, 7, 72, 0
9, 48984, Note_on_c, 7, 69, 0
9, 49008, Note_on_c, 7, 70, 60
9, 49008, Note_on_c, 7, 74, 60
9, 49032, Note_on_c, 7, 74, 0
9, 49032, Note_on_c, 7, 70, 0
9, 49200, Note_on_c, 7, 69, 65
9, 49200, Note_on_c, 7, 72, 65
9, 49224, Note_on_c, 7, 72, 0
9, 49224, Note_on_c, 7, 69, 0
9, 49248, Note_on_c, 7, 67, 60
9, 49248, Note_on_c, 7, 76, 60
9, 49272, Note_on_c, 7, 76, 0
9, 49272, Note_on_c, 7, 67, 0
9, 49296, Note_on_c, 7, 69, 60
9, 49296, Note_on_c, 7, 77, 60
9, 49320, Note_on_c, 7, 77, 0
9, 49320, Note_on_c, 7, 69, 0
9, 49344, Note_on_c, 7, 67, 65
9, 49344, Note_on_c, 7, 76, 65
9, 49368, Note_on_c, 7, 76, 0
9, 49368, Note_on_c, 7, 67, 0
9, 49392, Note_on_c, 7, 69, 60
9, 49392, Note_on_c, 7, 77, 60
9, 49416, Note_on_c, 7, 77, 0
9, 49416, Note_on_c, 7, 69, 0
9, 49440, Note_on_c, 7, 70, 60
9, 49440, Note_on_c, 7, 79, 60
9, 49464, Note_on_c, 7, 79, 0
9, 49464, Note_on_c, 7, 70, 0
9, 49632, Note_on_c, 7, 69, 65
9, 49632, Note_on_c, 7, 72, 65
9, 49656, Note_on_c, 7, 72, 0
9, 49656, Note_on_c, 7, 69, 0
9, 49680, Note_on_c, 7, 67, 60
9, 49680, Note_on_c, 7, 70, 60
9, 49704, Note_on_c, 7, 70, 0
9, 49704, Note_on_c, 7, 67, 0
9, 49728, Note_on_c, 7, 65, 60
9, 49728, Note_on_c, 7, 69, 60
9, 49752, Note_on_c, 7, 69, 0
9, 49752, Note_on_c, 7, 65, 0
9, 49776, Note_on_c, 7, 70, 65
9, 49776, Note_on_c, 7, 74, 65
9, 49800, Note_on_c, 7, 74, 0
9, 49800, Note_on_c, 7, 70, 0
9, 49824, Note_on_c, 7, 69, 60
9, 49824, Note_on_c, 7, 72, 60
9, 49848, Note_on_c, 7, 72, 0
9, 49848, Note_on_c, 7, 69, 0
9, 49872, Note_on_c, 7, 67, 60
9, 49872, Note_on_c, 7, 70, 60
9, 49896, Note_on_c, 7, 70, 0
9, 49896, Note_on_c, 7, 67, 0
9, 50064, Note_on_c, 7, 65, 65
9, 50064, Note_on_c, 7, 69, 65
9, 50088, Note_on_c, 7, 69, 0
9, 50088, Note_on_c, 7, 65, 0
9, 50112, Note_on_c, 7, 60, 60
9, 50112, Note_on_c, 7, 72, 60
9, 50136, Note_on_c, 7, 72, 0
9, 50136, Note_on_c, 7, 60, 0
9, 50160, Note_on_c, 7, 60, 60
9, 50160, Note_on_c, 7, 72, 60
9, 50184, Note_on_c, 7, 72, 0
9, 50184, Note_on_c, 7, 60, 0
9, 50208, Note_on_c, 7, 60, 65
9, 50208, Note_on_c, 7, 72, 65
9, 50232, Note_on_c, 7, 72, 0
9, 50232, Note_on_c, 7, 60, 0
9, 50256, Note_on_c, 7, 60, 60
9, 50256, Note_on_c, 7, 72, 60
9, 50280, Note_on_c, 7, 72, 0
9, 50280, Note_on_c, 7, 60, 0
9, 50304, Note_on_c, 7, 60, 60
9, 50304, Note_on_c, 7, 72, 60
9, 50328, Note_on_c, 7, 72, 0
9, 50328, Note_on_c, 7, 60, 0
9, 50352, Note_on_c, 7, 69, 65
9, 50352, Note_on_c, 7, 77, 65
9, 50376, Note_on_c, 7, 77, 0
9, 50376, Note_on_c, 7, 69, 0
9, 50400, Note_on_c, 7, 70, 60
9, 50400, Note_on_c, 7, 79, 60
9, 50424, Note_on_c, 7, 79, 0
9, 50424, Note_on_c, 7, 70, 0
9, 50448, Note_on_c, 7, 72, 60
9, 50448, Note_on_c, 7, 81, 60
9, 50472, Note_on_c, 7, 81, 0
9, 50472, Note_on_c, 7, 72, 0
9, 50496, Note_on_c, 7, 72, 65
9, 50496, Note_on_c, 7, 81, 65
9, 50520, Note_on_c, 7, 81, 0
9, 50520, Note_on_c, 7, 72, 0
9, 50544, Note_on_c, 7, 70, 60
9, 50544, Note_on_c, 7, 79, 60
9, 50568, Note_on_c, 7, 79, 0
9, 50568, Note_on_c, 7, 70, 0
9, 50592, Note_on_c, 7, 69, 60
9, 50592, Note_on_c, 7, 77, 60
9, 50616, Note_on_c, 7, 77, 0
9, 50616, Note_on_c, 7, 69, 0
9, 50640, Note_on_c, 7, 69, 65
9, 50640, Note_on_c, 7, 77, 65
9, 50664, Note_on_c, 7, 77, 0
9, 50664, Note_on_c, 7, 69, 0
9, 50688, Note_on_c, 7, 70, 60
9, 50688, Note_on_c, 7, 79, 60
9, 50712, Note_on_c, 7, 79, 0
9, 50712, Note_on_c, 7, 70, 0
9, 50736, Note_on_c, 7, 69, 60
9, 50736, Note_on_c, 7, 77, 60
9, 50760, Note_on_c, 7, 77, 0
9, 50760, Note_on_c, 7, 69, 0
9, 51216, Note_on_c, 7, 65, 55
9, 51216, Note_on_c, 7, 74, 55
9, 51240, Note_on_c, 7, 74, 0
9, 51240, Note_on_c, 7, 65, 0
9, 51264, Note_on_c, 7, 67, 50
9, 51264, Note_on_c, 7, 76, 50
9, 51288, Note_on_c, 7, 76, 0
9, 51288, Note_on_c, 7, 67, 0
9, 51312, Note_on_c, 7, 69, 50
9, 51312, Note_on_c, 7, 77, 50
9, 51336, Note_on_c, 7, 77, 0
9, 51336, Note_on_c, 7, 69, 0
9, 51360, Note_on_c, 7, 69, 55
9, 51360, Note_on_c, 7, 77, 55
9, 51384, Note_on_c, 7, 77, 0
9, 51384, Note_on_c, 7, 69, 0
9, 51408, Note_on_c, 7, 67, 50
9, 51408, Note_on_c, 7, 76, 50
9, 51432, Note_on_c, 7, 76, 0
9, 51432, Note_on_c, 7, 67, 0
9, 51456, Note_on_c, 7, 65, 50
9, 51456, Note_on_c, 7, 74, 50
9, 51480, Note_on_c, 7, 74, 0
9, 51480, Note_on_c, 7, 65, 0
9, 51504, Note_on_c, 7, 65, 55
9, 51504, Note_on_c, 7, 74, 55
9, 51528, Note_on_c, 7, 74, 0
9, 51528, Note_on_c, 7, 65, 0
9, 51552, Note_on_c, 7, 67, 50
9, 51552, Note_on_c, 7, 76, 50
9, 51576, Note_on_c, 7, 76, 0
9, 51576, Note_on_c, 7, 67, 0
9, 51600, Note_on_c, 7, 65, 50
9, 51600, Note_on_c, 7, 74, 50
9, 51624, Note_on_c, 7, 74, 0
9, 51624, Note_on_c, 7, 65, 0
9, 51648, Note_on_c, 7, 57, 55
9, 51648, Note_on_c, 7, 69, 55
9, 51672, Note_on_c, 7, 69, 0
9, 51672, Note_on_c, 7, 57, 0
9, 51696, Note_on_c, 7, 57, 50
9, 51696, Note_on_c, 7, 69, 50
9, 51720, Note_on_c, 7, 69, 0
9, 51720, Note_on_c, 7, 57, 0
9, 51744, Note_on_c, 7, 57, 50
9, 51744, Note_on_c, 7, 69, 50
9, 51768, Note_on_c, 7, 69, 0
9, 51768, Note_on_c, 7, 57, 0
9, 51792, Note_on_c, 7, 57, 55
9, 51792, Note_on_c, 7, 69, 55
9, 51816, Note_on_c, 7, 69, 0
9, 51816, Note_on_c, 7, 57, 0
9, 51840, Note_on_c, 7, 57, 50
9, 51840, Note_on_c, 7, 69, 50
9, 51864, Note_on_c, 7, 69, 0
9, 51864, Note_on_c, 7, 57, 0
9, 51888, Note_on_c, 7, 57, 50
9, 51888, Note_on_c, 7, 69, 50
9, 51912, Note_on_c, 7, 69, 0
9, 51912, Note_on_c, 7, 57, 0
9, 51936, Note_on_c, 7, 57, 55
9, 51936, Note_on_c, 7, 69, 55
9, 51960, Note_on_c, 7, 69, 0
9, 51960, Note_on_c, 7, 57, 0
9, 51984, Note_on_c, 7, 57, 50
9, 51984, Note_on_c, 7, 69, 50
9, 52008, Note_on_c, 7, 69, 0
9, 52008, Note_on_c, 7, 57, 0
9, 52032, Note_on_c, 7, 57, 50
9, 52032, Note_on_c, 7, 69, 50
9, 52056, Note_on_c, 7, 69, 0
9, 52056, Note_on_c, 7, 57, 0
9, 52080, Note_on_c, 7, 57, 55
9, 52080, Note_on_c, 7, 69, 55
9, 52104, Note_on_c, 7, 69, 0
9, 52104, Note_on_c, 7, 57, 0
9, 52128, Note_on_c, 7, 57, 50
9, 52128, Note_on_c, 7, 69, 50
9, 52152, Note_on_c, 7, 69, 0
9, 52152, Note_on_c, 7, 57, 0
9, 52176, Note_on_c, 7, 57, 50
9, 52176, Note_on_c, 7, 69, 50
9, 52200, Note_on_c, 7, 69, 0
9, 52200, Note_on_c, 7, 57, 0
9, 52224, Note_on_c, 7, 57, 55
9, 52224, Note_on_c, 7, 69, 55
9, 52248, Note_on_c, 7, 69, 0
9, 52248, Note_on_c, 7, 57, 0
9, 52272, Note_on_c, 7, 57, 50
9, 52272, Note_on_c, 7, 69, 50
9, 52296, Note_on_c, 7, 69, 0
9, 52296, Note_on_c, 7, 57, 0
9, 52320, Note_on_c, 7, 57, 50
9, 52320, Note_on_c, 7, 69, 50
9, 52344, Note_on_c, 7, 69, 0
9, 52344, Note_on_c, 7, 57, 0
9, 52368, Note_on_c, 7, 57, 55
9, 52368, Note_on_c, 7, 69, 55
9, 52392, Note_on_c, 7, 69, 0
9, 52392, Note_on_c, 7, 57, 0
9, 52416, Note_on_c, 7, 57, 50
9, 52416, Note_on_c, 7, 69, 50
9, 52440, Note_on_c, 7, 69, 0
9, 52440, Note_on_c, 7, 57, 0
9, 52464, Note_on_c, 7, 57, 50
9, 52464, Note_on_c, 7, 69, 50
9, 52488, Note_on_c, 7, 69, 0
9, 52488, Note_on_c, 7, 57, 0
9, 52512, Note_on_c, 7, 57, 55
9, 52512, Note_on_c, 7, 69, 55
9, 52536, Note_on_c, 7, 69, 0
9, 52536, Note_on_c, 7, 57, 0
9, 52560, Note_on_c, 7, 57, 50
9, 52560, Note_on_c, 7, 69, 50
9, 52584, Note_on_c, 7, 69, 0
9, 52584, Note_on_c, 7, 57, 0
9, 52608, Note_on_c, 7, 57, 50
9, 52608, Note_on_c, 7, 69, 50
9, 52632, Note_on_c, 7, 69, 0
9, 52632, Note_on_c, 7, 57, 0
9, 52656, Note_on_c, 7, 57, 55
9, 52656, Note_on_c, 7, 69, 55
9, 52680, Note_on_c, 7, 69, 0
9, 52680, Note_on_c, 7, 57, 0
9, 52704, Note_on_c, 7, 57, 50
9, 52704, Note_on_c, 7, 69, 50
9, 52728, Note_on_c, 7, 69, 0
9, 52728, Note_on_c, 7, 57, 0
9, 52752, Note_on_c, 7, 57, 50
9, 52752, Note_on_c, 7, 69, 50
9, 52776, Note_on_c, 7, 69, 0
9, 52776, Note_on_c, 7, 57, 0
9, 52800, Note_on_c, 7, 57, 55
9, 52800, Note_on_c, 7, 69, 55
9, 52824, Note_on_c, 7, 69, 0
9, 52824, Note_on_c, 7, 57, 0
9, 52848, Note_on_c, 7, 57, 50
9, 52848, Note_on_c, 7, 69, 50
9, 52872, Note_on_c, 7, 69, 0
9, 52872, Note_on_c, 7, 57, 0
9, 52896, Note_on_c, 7, 57, 50
9, 52896, Note_on_c, 7, 69, 50
9, 52920, Note_on_c, 7, 69, 0
9, 52920, Note_on_c, 7, 57, 0
9, 52944, Note_on_c, 7, 69, 55
9, 52979, Note_on_c, 7, 69, 0
9, 53016, Note_on_c, 7, 57, 50
9, 53028, Note_on_c, 7, 57, 0
9, 53040, Note_on_c, 7, 57, 50
9, 53064, Note_on_c, 7, 57, 0
9, 53088, Note_on_c, 7, 62, 55
9, 53112, Note_on_c, 7, 62, 0
9, 53136, Note_on_c, 7, 61, 50
9, 53136, Note_on_c, 7, 64, 50
9, 53160, Note_on_c, 7, 64, 0
9, 53160, Note_on_c, 7, 61, 0
9, 53184, Note_on_c, 7, 62, 50
9, 53184, Note_on_c, 7, 65, 50
9, 53208, Note_on_c, 7, 65, 0
9, 53208, Note_on_c, 7, 62, 0
9, 53232, Note_on_c, 7, 61, 55
9, 53232, Note_on_c, 7, 64, 55
9, 53256, Note_on_c, 7, 64, 0
9, 53256, Note_on_c, 7, 61, 0
9, 53280, Note_on_c, 7, 62, 50
9, 53280, Note_on_c, 7, 65, 50
9, 53304, Note_on_c, 7, 65, 0
9, 53304, Note_on_c, 7, 62, 0
9, 53328, Note_on_c, 7, 64, 50
9, 53328, Note_on_c, 7, 67, 50
9, 53352, Note_on_c, 7, 67, 0
9, 53352, Note_on_c, 7, 64, 0
9, 53376, Note_on_c, 7, 62, 55
9, 53376, Note_on_c, 7, 65, 55
9, 53400, Note_on_c, 7, 65, 0
9, 53400, Note_on_c, 7, 62, 0
9, 53424, Note_on_c, 7, 65, 50
9, 53424, Note_on_c, 7, 69, 50
9, 53448, Note_on_c, 7, 69, 0
9, 53448, Note_on_c, 7, 65, 0
9, 53472, Note_on_c, 7, 65, 50
9, 53472, Note_on_c, 7, 69, 50
9, 53496, Note_on_c, 7, 69, 0
9, 53496, Note_on_c, 7, 65, 0
9, 53520, Note_on_c, 7, 65, 55
9, 53520, Note_on_c, 7, 69, 55
9, 53544, Note_on_c, 7, 69, 0
9, 53544, Note_on_c, 7, 65, 0
9, 53568, Note_on_c, 7, 64, 50
9, 53568, Note_on_c, 7, 67, 50
9, 53592, Note_on_c, 7, 67, 0
9, 53592, Note_on_c, 7, 64, 0
9, 53616, Note_on_c, 7, 62, 50
9, 53616, Note_on_c, 7, 65, 50
9, 53640, Note_on_c, 7, 65, 0
9, 53640, Note_on_c, 7, 62, 0
9, 53664, Note_on_c, 7, 64, 55
9, 53664, Note_on_c, 7, 67, 55
9, 53688, Note_on_c, 7, 67, 0
9, 53688, Note_on_c, 7, 64, 0
9, 53712, Note_on_c, 7, 62, 50
9, 53712, Note_on_c, 7, 65, 50
9, 53736, Note_on_c, 7, 65, 0
9, 53736, Note_on_c, 7, 62, 0
9, 53760, Note_on_c, 7, 61, 50
9, 53760, Note_on_c, 7, 64, 50
9, 53784, Note_on_c, 7, 64, 0
9, 53784, Note_on_c, 7, 61, 0
9, 53808, Note_on_c, 7, 62, 55
9, 53808, Note_on_c, 7, 65, 55
9, 53832, Note_on_c, 7, 65, 0
9, 53832, Note_on_c, 7, 62, 0
9, 53856, Note_on_c, 7, 69, 50
9, 53856, Note_on_c, 7, 77, 50
9, 53880, Note_on_c, 7, 77, 0
9, 53880, Note_on_c, 7, 69, 0
9, 53904, Note_on_c, 7, 69, 50
9, 53904, Note_on_c, 7, 77, 50
9, 53928, Note_on_c, 7, 77, 0
9, 53928, Note_on_c, 7, 69, 0
9, 53952, Note_on_c, 7, 69, 55
9, 53952, Note_on_c, 7, 77, 55
9, 53976, Note_on_c, 7, 77, 0
9, 53976, Note_on_c, 7, 69, 0
9, 54000, Note_on_c, 7, 67, 50
9, 54000, Note_on_c, 7, 76, 50
9, 54024, Note_on_c, 7, 76, 0
9, 54024, Note_on_c, 7, 67, 0
9, 54048, Note_on_c, 7, 65, 50
9, 54048, Note_on_c, 7, 74, 50
9, 54072, Note_on_c, 7, 74, 0
9, 54072, Note_on_c, 7, 65, 0
9, 54096, Note_on_c, 7, 67, 55
9, 54096, Note_on_c, 7, 76, 55
9, 54120, Note_on_c, 7, 76, 0
9, 54120, Note_on_c, 7, 67, 0
9, 54144, Note_on_c, 7, 65, 50
9, 54144, Note_on_c, 7, 74, 50
9, 54168, Note_on_c, 7, 74, 0
9, 54168, Note_on_c, 7, 65, 0
9, 54192, Note_on_c, 7, 64, 50
9, 54192, Note_on_c, 7, 73, 50
9, 54216, Note_on_c, 7, 73, 0
9, 54216, Note_on_c, 7, 64, 0
9, 54240, Note_on_c, 7, 65, 50
9, 54240, Note_on_c, 7, 74, 50
9, 54264, Note_on_c, 7, 74, 0
9, 54264, Note_on_c, 7, 65, 0
9, 54960, Note_on_c, 7, 79, 55
9, 54995, Note_on_c, 7, 79, 0
9, 55032, Note_on_c, 7, 67, 50
9, 55044, Note_on_c, 7, 67, 0
9, 55056, Note_on_c, 7, 67, 50
9, 55080, Note_on_c, 7, 67, 0
9, 55104, Note_on_c, 7, 74, 50
9, 55128, Note_on_c, 7, 74, 0
9, 55248, Note_on_c, 7, 79, 55
9, 55283, Note_on_c, 7, 79, 0
9, 55320, Note_on_c, 7, 67, 50
9, 55332, Note_on_c, 7, 67, 0
9, 55344, Note_on_c, 7, 67, 50
9, 55368, Note_on_c, 7, 67, 0
9, 55392, Note_on_c, 7, 62, 55
9, 55416, Note_on_c, 7, 62, 0
9, 55440, Note_on_c, 7, 70, 50
9, 55464, Note_on_c, 7, 70, 0
9, 55488, Note_on_c, 7, 70, 50
9, 55512, Note_on_c, 7, 70, 0
9, 55536, Note_on_c, 7, 70, 55
9, 55560, Note_on_c, 7, 70, 0
9, 55584, Note_on_c, 7, 70, 50
9, 55608, Note_on_c, 7, 70, 0
9, 55632, Note_on_c, 7, 70, 50
9, 55656, Note_on_c, 7, 70, 0
9, 55680, Note_on_c, 7, 70, 55
9, 55704, Note_on_c, 7, 70, 0
9, 55728, Note_on_c, 7, 70, 50
9, 55752, Note_on_c, 7, 70, 0
9, 55776, Note_on_c, 7, 70, 50
9, 55800, Note_on_c, 7, 70, 0
9, 55824, Note_on_c, 7, 70, 55
9, 55848, Note_on_c, 7, 70, 0
9, 55872, Note_on_c, 7, 70, 50
9, 55896, Note_on_c, 7, 70, 0
9, 55920, Note_on_c, 7, 70, 50
9, 55944, Note_on_c, 7, 70, 0
9, 55968, Note_on_c, 7, 70, 55
9, 55992, Note_on_c, 7, 70, 0
9, 56016, Note_on_c, 7, 70, 50
9, 56040, Note_on_c, 7, 70, 0
9, 56064, Note_on_c, 7, 70, 50
9, 56088, Note_on_c, 7, 70, 0
9, 56112, Note_on_c, 7, 70, 55
9, 56136, Note_on_c, 7, 70, 0
9, 56160, Note_on_c, 7, 70, 50
9, 56184, Note_on_c, 7, 70, 0
9, 56208, Note_on_c, 7, 70, 50
9, 56232, Note_on_c, 7, 70, 0
9, 56256, Note_on_c, 7, 77, 50
9, 56280, Note_on_c, 7, 77, 0
9, 56832, Note_on_c, 7, 75, 50
9, 56856, Note_on_c, 7, 75, 0
9, 56976, Note_on_c, 7, 75, 50
9, 57000, Note_on_c, 7, 75, 0
9, 57120, Note_on_c, 7, 75, 50
9, 57144, Note_on_c, 7, 75, 0
9, 57264, Note_on_c, 7, 75, 50
9, 57288, Note_on_c, 7, 75, 0
9, 57408, Note_on_c, 7, 74, 50
9, 57432, Note_on_c, 7, 74, 0
9, 57984, Note_on_c, 7, 65, 77
9, 57984, Note_on_c, 7, 74, 77
9, 58008, Note_on_c, 7, 74, 0
9, 58008, Note_on_c, 7, 65, 0
9, 58272, Note_on_c, 7, 65, 90
9, 58272, Note_on_c, 7, 69, 90
9, 58296, Note_on_c, 7, 69, 0
9, 58296, Note_on_c, 7, 65, 0
9, 58560, Note_on_c, 7, 62, 120
9, 58560, Note_on_c, 7, 65, 120
9, 58590, Note_on_c, 7, 65, 0
9, 58590, Note_on_c, 7, 62, 0
9, 58848, Note_on_c, 7, 65, 120
9, 58848, Note_on_c, 7, 69, 120
9, 58878, Note_on_c, 7, 69, 0
9, 58878, Note_on_c, 7, 65, 0
9, 59136, Note_on_c, 7, 69, 125
9, 59171, Note_on_c, 7, 69, 0
9, 59208, Note_on_c, 7, 57, 115
9, 59220, Note_on_c, 7, 57, 0
9, 59232, Note_on_c, 7, 57, 115
9, 59256, Note_on_c, 7, 57, 0
9, 59280, Note_on_c, 7, 69, 125
9, 59315, Note_on_c, 7, 69, 0
9, 59352, Note_on_c, 7, 57, 115
9, 59364, Note_on_c, 7, 57, 0
9, 59376, Note_on_c, 7, 57, 115
9, 59400, Note_on_c, 7, 57, 0
9, 59424, Note_on_c, 7, 69, 125
9, 59459, Note_on_c, 7, 69, 0
9, 59496, Note_on_c, 7, 57, 115
9, 59508, Note_on_c, 7, 57, 0
9, 59520, Note_on_c, 7, 57, 115
9, 59544, Note_on_c, 7, 57, 0
9, 59568, Note_on_c, 7, 69, 125
9, 59603, Note_on_c, 7, 69, 0
9, 59640, Note_on_c, 7, 57, 115
9, 59652, Note_on_c, 7, 57, 0
9, 59664, Note_on_c, 7, 57, 115
9, 59688, Note_on_c, 7, 57, 0
9, 59712, Note_on_c, 7, 69, 125
9, 59712, Note_on_c, 7, 81, 125
9, 59747, Note_on_c, 7, 81, 0
9, 59747, Note_on_c, 7, 69, 0
9, 59784, Note_on_c, 7, 57, 115
9, 59784, Note_on_c, 7, 69, 115
9, 59796, Note_on_c, 7, 69, 0
9, 59796, Note_on_c, 7, 57, 0
9, 59808, Note_on_c, 7, 57, 115
9, 59808, Note_on_c, 7, 69, 115
9, 59832, Note_on_c, 7, 69, 0
9, 59832, Note_on_c, 7, 57, 0
9, 59856, Note_on_c, 7, 62, 120
9, 59856, Note_on_c, 7, 74, 120
9, 59880, Note_on_c, 7, 74, 0
9, 59880, Note_on_c, 7, 62, 0
9, 59904, Note_on_c, 7, 64, 115
9, 59904, Note_on_c, 7, 76, 115
9, 59928, Note_on_c, 7, 76, 0
9, 59928, Note_on_c, 7, 64, 0
9, 59952, Note_on_c, 7, 65, 115
9, 59952, Note_on_c, 7, 77, 115
9, 59976, Note_on_c, 7, 77, 0
9, 59976, Note_on_c, 7, 65, 0
9, 60000, Note_on_c, 7, 64, 120
9, 60000, Note_on_c, 7, 76, 120
9, 60024, Note_on_c, 7, 76, 0
9, 60024, Note_on_c, 7, 64, 0
9, 60048, Note_on_c, 7, 65, 115
9, 60048, Note_on_c, 7, 77, 115
9, 60072, Note_on_c, 7, 77, 0
9, 60072, Note_on_c, 7, 65, 0
9, 60096, Note_on_c, 7, 67, 115
9, 60096, Note_on_c, 7, 79, 115
9, 60120, Note_on_c, 7, 79, 0
9, 60120, Note_on_c, 7, 67, 0
9, 60144, Note_on_c, 7, 65, 120
9, 60144, Note_on_c, 7, 77, 120
9, 60168, Note_on_c, 7, 77, 0
9, 60168, Note_on_c, 7, 65, 0
9, 60192, Note_on_c, 7, 64, 115
9, 60192, Note_on_c, 7, 76, 115
9, 60216, Note_on_c, 7, 76, 0
9, 60216, Note_on_c, 7, 64, 0
9, 60240, Note_on_c, 7, 62, 115
9, 60240, Note_on_c, 7, 74, 115
9, 60264, Note_on_c, 7, 74, 0
9, 60264, Note_on_c, 7, 62, 0
9, 60288, Note_on_c, 7, 70, 120
9, 60288, Note_on_c, 7, 82, 120
9, 60312, Note_on_c, 7, 82, 0
9, 60312, Note_on_c, 7, 70, 0
9, 60336, Note_on_c, 7, 69, 115
9, 60336, Note_on_c, 7, 81, 115
9, 60360, Note_on_c, 7, 81, 0
9, 60360, Note_on_c, 7, 69, 0
9, 60384, Note_on_c, 7, 67, 115
9, 60384, Note_on_c, 7, 79, 115
9, 60408, Note_on_c, 7, 79, 0
9, 60408, Note_on_c, 7, 67, 0
9, 60432, Note_on_c, 7, 65, 120
9, 60432, Note_on_c, 7, 77, 120
9, 60456, Note_on_c, 7, 77, 0
9, 60456, Note_on_c, 7, 65, 0
9, 60480, Note_on_c, 7, 64, 115
9, 60480, Note_on_c, 7, 76, 115
9, 60504, Note_on_c, 7, 76, 0
9, 60504, Note_on_c, 7, 64, 0
9, 60528, Note_on_c, 7, 62, 115
9, 60528, Note_on_c, 7, 74, 115
9, 60552, Note_on_c, 7, 74, 0
9, 60552, Note_on_c, 7, 62, 0
9, 60576, Note_on_c, 7, 61, 120
9, 60576, Note_on_c, 7, 73, 120
9, 60600, Note_on_c, 7, 73, 0
9, 60600, Note_on_c, 7, 61, 0
9, 60624, Note_on_c, 7, 62, 115
9, 60624, Note_on_c, 7, 74, 115
9, 60648, Note_on_c, 7, 74, 0
9, 60648, Note_on_c, 7, 62, 0
9, 60672, Note_on_c, 7, 64, 115
9, 60672, Note_on_c, 7, 76, 115
9, 60696, Note_on_c, 7, 76, 0
9, 60696, Note_on_c, 7, 64, 0
9, 60720, Note_on_c, 7, 62, 120
9, 60720, Note_on_c, 7, 74, 120
9, 60744, Note_on_c, 7, 74, 0
9, 60744, Note_on_c, 7, 62, 0
9, 60768, Note_on_c, 7, 61, 115
9, 60768, Note_on_c, 7, 73, 115
9, 60792, Note_on_c, 7, 73, 0
9, 60792, Note_on_c, 7, 61, 0
9, 60816, Note_on_c, 7, 62, 115
9, 60816, Note_on_c, 7, 74, 115
9, 60840, Note_on_c, 7, 74, 0
9, 60840, Note_on_c, 7, 62, 0
9, 60864, Note_on_c, 7, 70, 120
9, 60864, Note_on_c, 7, 82, 120
9, 60888, Note_on_c, 7, 82, 0
9, 60888, Note_on_c, 7, 70, 0
9, 60912, Note_on_c, 7, 69, 115
9, 60912, Note_on_c, 7, 81, 115
9, 60936, Note_on_c, 7, 81, 0
9, 60936, Note_on_c, 7, 69, 0
9, 60960, Note_on_c, 7, 67, 115
9, 60960, Note_on_c, 7, 79, 115
9, 60984, Note_on_c, 7, 79, 0
9, 60984, Note_on_c, 7, 67, 0
9, 61008, Note_on_c, 7, 65, 120
9, 61008, Note_on_c, 7, 77, 120
9, 61032, Note_on_c, 7, 77, 0
9, 61032, Note_on_c, 7, 65, 0
9, 61056, Note_on_c, 7, 64, 115
9, 61056, Note_on_c, 7, 76, 115
9, 61080, Note_on_c, 7, 76, 0
9, 61080, Note_on_c, 7, 64, 0
9, 61104, Note_on_c, 7, 62, 115
9, 61104, Note_on_c, 7, 74, 115
9, 61128, Note_on_c, 7, 74, 0
9, 61128, Note_on_c, 7, 62, 0
9, 61152, Note_on_c, 7, 61, 120
9, 61152, Note_on_c, 7, 73, 120
9, 61176, Note_on_c, 7, 73, 0
9, 61176, Note_on_c, 7, 61, 0
9, 61200, Note_on_c, 7, 62, 115
9, 61200, Note_on_c, 7, 74, 115
9, 61224, Note_on_c, 7, 74, 0
9, 61224, Note_on_c, 7, 62, 0
9, 61248, Note_on_c, 7, 64, 115
9, 61248, Note_on_c, 7, 76, 115
9, 61272, Note_on_c, 7, 76, 0
9, 61272, Note_on_c, 7, 64, 0
9, 61296, Note_on_c, 7, 62, 120
9, 61296, Note_on_c, 7, 74, 120
9, 61320, Note_on_c, 7, 74, 0
9, 61320, Note_on_c, 7, 62, 0
9, 61344, Note_on_c, 7, 61, 115
9, 61344, Note_on_c, 7, 73, 115
9, 61368, Note_on_c, 7, 73, 0
9, 61368, Note_on_c, 7, 61, 0
9, 61392, Note_on_c, 7, 62, 115
9, 61392, Note_on_c, 7, 74, 115
9, 61416, Note_on_c, 7, 74, 0
9, 61416, Note_on_c, 7, 62, 0
9, 61440, Note_on_c, 7, 60, 120
9, 61440, Note_on_c, 7, 72, 120
9, 61464, Note_on_c, 7, 72, 0
9, 61464, Note_on_c, 7, 60, 0
9, 61488, Note_on_c, 7, 62, 115
9, 61488, Note_on_c, 7, 74, 115
9, 61512, Note_on_c, 7, 74, 0
9, 61512, Note_on_c, 7, 62, 0
9, 61536, Note_on_c, 7, 63, 115
9, 61536, Note_on_c, 7, 75, 115
9, 61560, Note_on_c, 7, 75, 0
9, 61560, Note_on_c, 7, 63, 0
9, 61584, Note_on_c, 7, 67, 120
9, 61584, Note_on_c, 7, 79, 120
9, 61608, Note_on_c, 7, 79, 0
9, 61608, Note_on_c, 7, 67, 0
9, 61632, Note_on_c, 7, 69, 115
9, 61632, Note_on_c, 7, 81, 115
9, 61656, Note_on_c, 7, 81, 0
9, 61656, Note_on_c, 7, 69, 0
9, 61680, Note_on_c, 7, 70, 115
9, 61680, Note_on_c, 7, 82, 115
9, 61704, Note_on_c, 7, 82, 0
9, 61704, Note_on_c, 7, 70, 0
9, 61728, Note_on_c, 7, 69, 120
9, 61728, Note_on_c, 7, 81, 120
9, 61752, Note_on_c, 7, 81, 0
9, 61752, Note_on_c, 7, 69, 0
9, 61776, Note_on_c, 7, 70, 115
9, 61776, Note_on_c, 7, 82, 115
9, 61800, Note_on_c, 7, 82, 0
9, 61800, Note_on_c, 7, 70, 0
9, 61824, Note_on_c, 7, 72, 115
9, 61824, Note_on_c, 7, 84, 115
9, 61848, Note_on_c, 7, 84, 0
9, 61848, Note_on_c, 7, 72, 0
9, 61872, Note_on_c, 7, 70, 120
9, 61872, Note_on_c, 7, 82, 120
9, 61896, Note_on_c, 7, 82, 0
9, 61896, Note_on_c, 7, 70, 0
9, 61920, Note_on_c, 7, 69, 115
9, 61920, Note_on_c, 7, 81, 115
9, 61944, Note_on_c, 7, 81, 0
9, 61944, Note_on_c, 7, 69, 0
9, 61968, Note_on_c, 7, 67, 115
9, 61968, Note_on_c, 7, 79, 115
9, 61992, Note_on_c, 7, 79, 0
9, 61992, Note_on_c, 7, 67, 0
9, 62016, Note_on_c, 7, 63, 105
9, 62016, Note_on_c, 7, 75, 105
9, 62040, Note_on_c, 7, 75, 0
9, 62040, Note_on_c, 7, 63, 0
9, 62064, Note_on_c, 7, 62, 100
9, 62064, Note_on_c, 7, 74, 100
9, 62088, Note_on_c, 7, 74, 0
9, 62088, Note_on_c, 7, 62, 0
9, 62112, Note_on_c, 7, 60, 100
9, 62112, Note_on_c, 7, 72, 100
9, 62136, Note_on_c, 7, 72, 0
9, 62136, Note_on_c, 7, 60, 0
9, 62160, Note_on_c, 7, 58, 105
9, 62160, Note_on_c, 7, 70, 105
9, 62184, Note_on_c, 7, 70, 0
9, 62184, Note_on_c, 7, 58, 0
9, 62208, Note_on_c, 7, 57, 100
9, 62208, Note_on_c, 7, 69, 100
9, 62232, Note_on_c, 7, 69, 0
9, 62232, Note_on_c, 7, 57, 0
9, 62256, Note_on_c, 7, 55, 100
9, 62256, Note_on_c, 7, 67, 100
9, 62280, Note_on_c, 7, 67, 0
9, 62280, Note_on_c, 7, 55, 0
9, 62304, Note_on_c, 7, 65, 105
9, 62304, Note_on_c, 7, 77, 105
9, 62328, Note_on_c, 7, 77, 0
9, 62328, Note_on_c, 7, 65, 0
9, 62352, Note_on_c, 7, 63, 100
9, 62352, Note_on_c, 7, 75, 100
9, 62376, Note_on_c, 7, 75, 0
9, 62376, Note_on_c, 7, 63, 0
9, 62400, Note_on_c, 7, 62, 100
9, 62400, Note_on_c, 7, 74, 100
9, 62424, Note_on_c, 7, 74, 0
9, 62424, Note_on_c, 7, 62, 0
9, 62448, Note_on_c, 7, 60, 105
9, 62448, Note_on_c, 7, 72, 105
9, 62472, Note_on_c, 7, 72, 0
9, 62472, Note_on_c, 7, 60, 0
9, 62496, Note_on_c, 7, 58, 100
9, 62496, Note_on_c, 7, 70, 100
9, 62520, Note_on_c, 7, 70, 0
9, 62520, Note_on_c, 7, 58, 0
9, 62544, Note_on_c, 7, 57, 100
9, 62544, Note_on_c, 7, 69, 100
9, 62568, Note_on_c, 7, 69, 0
9, 62568, Note_on_c, 7, 57, 0
9, 62592, Note_on_c, 7, 57, 105
9, 62616, Note_on_c, 7, 57, 0
9, 62640, Note_on_c, 7, 58, 100
9, 62664, Note_on_c, 7, 58, 0
9, 62688, Note_on_c, 7, 60, 100
9, 62712, Note_on_c, 7, 60, 0
9, 62736, Note_on_c, 7, 62, 105
9, 62760, Note_on_c, 7, 62, 0
9, 62784, Note_on_c, 7, 63, 100
9, 62808, Note_on_c, 7, 63, 0
9, 62832, Note_on_c, 7, 65, 100
9, 62856, Note_on_c, 7, 65, 0
9, 62880, Note_on_c, 7, 67, 105
9, 62904, Note_on_c, 7, 67, 0
9, 62928, Note_on_c, 7, 69, 100
9, 62952, Note_on_c, 7, 69, 0
9, 62976, Note_on_c, 7, 70, 100
9, 63000, Note_on_c, 7, 70, 0
9, 63024, Note_on_c, 7, 72, 105
9, 63048, Note_on_c, 7, 72, 0
9, 63072, Note_on_c, 7, 74, 100
9, 63096, Note_on_c, 7, 74, 0
9, 63120, Note_on_c, 7, 75, 100
9, 63144, Note_on_c, 7, 75, 0
9, 63168, Note_on_c, 7, 77, 100
9, 63192, Note_on_c, 7, 77, 0
9, 63456, Control_c, 7, 1, 0
9, 63456, Control_c, 7, 11, 60
9, 63456, Note_on_c, 7, 67, 100
9, 63457, Control_c, 7, 1, 1
9, 63458, Control_c, 7, 1, 2
9, 63459, Control_c, 7, 1, 3
9, 63460, Control_c, 7, 1, 4
9, 63462, Control_c, 7, 1, 5
9, 63464, Control_c, 7, 1, 6
9, 63465, Control_c, 7, 1, 7
9, 63467, Control_c, 7, 1, 8
9, 63469, Control_c, 7, 1, 9
9, 63472, Control_c, 7, 1, 10
9, 63474, Control_c, 7, 1, 11
9, 63476, Control_c, 7, 11, 61
9, 63477, Control_c, 7, 1, 12
9, 63480, Control_c, 7, 1, 13
9, 63483, Control_c, 7, 1, 14
9, 63487, Control_c, 7, 1, 15
9, 63492, Control_c, 7, 1, 16
9, 63495, Control_c, 7, 11, 62
9, 63497, Control_c, 7, 1, 17
9, 63505, Control_c, 7, 1, 18
9, 63514, Control_c, 7, 11, 63
9, 63515, Control_c, 7, 1, 19
9, 63533, Control_c, 7, 11, 64
9, 63533, Control_c, 7, 1, 20
9, 63552, Control_c, 7, 11, 65
9, 63571, Control_c, 7, 11, 66
9, 63591, Control_c, 7, 11, 67
9, 63610, Control_c, 7, 11, 68
9, 63629, Control_c, 7, 11, 69
9, 63648, Control_c, 7, 11, 70
9, 63667, Control_c, 7, 11, 71
9, 63686, Control_c, 7, 11, 72
9, 63706, Control_c, 7, 11, 73
9, 63725, Control_c, 7, 11, 74
9, 63744, Note_on_c, 7, 69, 100
9, 63744, Control_c, 7, 11, 75
9, 63745, Note_on_c, 7, 67, 0
9, 63763, Control_c, 7, 11, 76
9, 63782, Control_c, 7, 11, 77
9, 63801, Control_c, 7, 11, 78
9, 63821, Control_c, 7, 11, 79
9, 63840, Control_c, 7, 11, 80
9, 63859, Control_c, 7, 11, 81
9, 63878, Control_c, 7, 11, 82
9, 63888, Note_on_c, 7, 70, 100
9, 63889, Note_on_c, 7, 69, 0
9, 63897, Control_c, 7, 11, 83
9, 63916, Control_c, 7, 11, 84
9, 63936, Control_c, 7, 11, 85
9, 63955, Control_c, 7, 11, 86
9, 63974, Control_c, 7, 11, 87
9, 63993, Control_c, 7, 11, 88
9, 64012, Control_c, 7, 11, 89
9, 64031, Control_c, 7, 11, 90
9, 64032, Control_c, 7, 11, 90
9, 64042, Control_c, 7, 11, 89
9, 64052, Control_c, 7, 11, 88
9, 64061, Control_c, 7, 11, 87
9, 64071, Control_c, 7, 11, 86
9, 64080, Control_c, 7, 11, 85
9, 64090, Control_c, 7, 11, 84
9, 64099, Control_c, 7, 11, 83
9, 64109, Control_c, 7, 11, 82
9, 64119, Control_c, 7, 11, 81
9, 64128, Control_c, 7, 11, 80
9, 64138, Control_c, 7, 11, 79
9, 64147, Control_c, 7, 11, 78
9, 64157, Control_c, 7, 11, 77
9, 64166, Control_c, 7, 11, 76
9, 64176, Note_on_c, 7, 69, 100
9, 64176, Control_c, 7, 11, 75
9, 64177, Note_on_c, 7, 70, 0
9, 64186, Control_c, 7, 11, 74
9, 64195, Control_c, 7, 11, 73
9, 64205, Control_c, 7, 11, 72
9, 64214, Control_c, 7, 11, 71
9, 64224, Control_c, 7, 11, 70
9, 64233, Control_c, 7, 11, 69
9, 64243, Control_c, 7, 11, 68
9, 64253, Control_c, 7, 11, 67
9, 64262, Control_c, 7, 11, 66
9, 64272, Control_c, 7, 11, 65
9, 64281, Control_c, 7, 11, 64
9, 64291, Control_c, 7, 11, 63
9, 64300, Control_c, 7, 11, 62
9, 64310, Control_c, 7, 11, 61
9, 64319, Control_c, 7, 11, 60
9, 64320, Note_on_c, 7, 69, 0
9, 64320, Note_on_c, 7, 70, 100
9, 64608, Control_c, 7, 1, 0
9, 64608, Control_c, 7, 11, 60
9, 64608, Note_on_c, 7, 69, 100
9, 64609, Note_on_c, 7, 70, 0
9, 64609, Control_c, 7, 1, 1
9, 64610, Control_c, 7, 1, 2
9, 64611, Control_c, 7, 1, 3
9, 64612, Control_c, 7, 1, 4
9, 64614, Control_c, 7, 1, 5
9, 64616, Control_c, 7, 1, 6
9, 64617, Control_c, 7, 1, 7
9, 64619, Control_c, 7, 1, 8
9, 64621, Control_c, 7, 1, 9
9, 64624, Control_c, 7, 1, 10
9, 64626, Control_c, 7, 11, 61
9, 64626, Control_c, 7, 1, 11
9, 64629, Control_c, 7, 1, 12
9, 64632, Control_c, 7, 1, 13
9, 64635, Control_c, 7, 1, 14
9, 64639, Control_c, 7, 1, 15
9, 64644, Control_c, 7, 11, 62
9, 64644, Control_c, 7, 1, 16
9, 64649, Control_c, 7, 1, 17
9, 64657, Control_c, 7, 1, 18
9, 64662, Control_c, 7, 11, 63
9, 64667, Control_c, 7, 1, 19
9, 64680, Control_c, 7, 11, 64
9, 64685, Control_c, 7, 1, 20
9, 64698, Control_c, 7, 11, 65
9, 64716, Control_c, 7, 11, 66
9, 64734, Control_c, 7, 11, 67
9, 64752, Control_c, 7, 11, 68
9, 64770, Control_c, 7, 11, 69
9, 64788, Control_c, 7, 11, 70
9, 64806, Control_c, 7, 11, 71
9, 64824, Control_c, 7, 11, 72
9, 64842, Control_c, 7, 11, 73
9, 64860, Control_c, 7, 11, 74
9, 64878, Control_c, 7, 11, 75
9, 64896, Note_on_c, 7, 71, 100
9, 64896, Control_c, 7, 11, 76
9, 64914, Control_c, 7, 11, 77
9, 64932, Control_c, 7, 11, 78
9, 64950, Control_c, 7, 11, 79
9, 64968, Control_c, 7, 11, 80
9, 64986, Control_c, 7, 11, 81
9, 65004, Control_c, 7, 11, 82
9, 65022, Control_c, 7, 11, 83
9, 65040, Note_on_c, 7, 67, 100
9, 65040, Control_c, 7, 11, 84
9, 65041, Note_on_c, 7, 69, 0
9, 65058, Control_c, 7, 11, 85
9, 65076, Control_c, 7, 11, 86
9, 65094, Control_c, 7, 11, 87
9, 65112, Control_c, 7, 11, 88
9, 65130, Control_c, 7, 11, 89
9, 65148, Control_c, 7, 11, 90
9, 65166, Control_c, 7, 11, 91
9, 65184, Note_on_c, 7, 70, 100
9, 65184, Control_c, 7, 11, 92
9, 65185, Note_on_c, 7, 71, 0
9, 65202, Control_c, 7, 11, 93
9, 65220, Control_c, 7, 11, 94
9, 65238, Control_c, 7, 11, 95
9, 65256, Control_c, 7, 11, 96
9, 65274, Control_c, 7, 11, 97
9, 65292, Control_c, 7, 11, 98
9, 65310, Control_c, 7, 11, 99
9, 65327, Control_c, 7, 11, 100
9, 65328, Control_c, 7, 11, 100
9, 65328, Note_on_c, 7, 66, 100
9, 65328, Note_on_c, 7, 69, 100
9, 65329, Note_on_c, 7, 70, 0
9, 65329, Note_on_c, 7, 67, 0
9, 65339, Control_c, 7, 11, 99
9, 65350, Control_c, 7, 11, 98
9, 65361, Control_c, 7, 11, 97
9, 65372, Control_c, 7, 11, 96
9, 65382, Control_c, 7, 11, 95
9, 65393, Control_c, 7, 11, 94
9, 65404, Control_c, 7, 11, 93
9, 65415, Control_c, 7, 11, 92
9, 65425, Control_c, 7, 11, 91
9, 65436, Control_c, 7, 11, 90
9, 65447, Control_c, 7, 11, 89
9, 65458, Control_c, 7, 11, 88
9, 65469, Control_c, 7, 11, 87
9, 65472, Note_on_c, 7, 65, 100
9, 65473, Note_on_c, 7, 66, 0
9, 65479, Control_c, 7, 11, 86
9, 65490, Control_c, 7, 11, 85
9, 65501, Control_c, 7, 11, 84
9, 65512, Control_c, 7, 11, 83
9, 65522, Control_c, 7, 11, 82
9, 65533, Control_c, 7, 11, 81
9, 65544, Control_c, 7, 11, 80
9, 65555, Control_c, 7, 11, 79
9, 65566, Control_c, 7, 11, 78
9, 65576, Control_c, 7, 11, 77
9, 65587, Control_c, 7, 11, 76
9, 65598, Control_c, 7, 11, 75
9, 65609, Control_c, 7, 11, 74
9, 65616, Note_on_c, 7, 64, 100
9, 65617, Note_on_c, 7, 65, 0
9, 65619, Control_c, 7, 11, 73
9, 65630, Control_c, 7, 11, 72
9, 65641, Control_c, 7, 11, 71
9, 65652, Control_c, 7, 11, 70
9, 65663, Control_c, 7, 11, 69
9, 65673, Control_c, 7, 11, 68
9, 65684, Control_c, 7, 11, 67
9, 65695, Control_c, 7, 11, 66
9, 65706, Control_c, 7, 11, 65
9, 65716, Control_c, 7, 11, 64
9, 65727, Control_c, 7, 11, 63
9, 65738, Control_c, 7, 11, 62
9, 65749, Control_c, 7, 11, 61
9, 65759, Control_c, 7, 11, 60
9, 65760, Note_on_c, 7, 69, 0
9, 65760, Note_on_c, 7, 64, 0
9, 66912, Control_c, 7, 1, 0
9, 66912, Control_c, 7, 11, 60
9, 66912, Note_on_c, 7, 69, 100
9, 66912, Note_on_c, 7, 81, 100
9, 66913, Control_c, 7, 1, 1
9, 66914, Control_c, 7, 1, 2
9, 66915, Control_c, 7, 1, 3
9, 66916, Control_c, 7, 1, 4
9, 66918, Control_c, 7, 1, 5
9, 66920, Control_c, 7, 1, 6
9, 66921, Control_c, 7, 1, 7
9, 66923, Control_c, 7, 1, 8
9, 66925, Control_c, 7, 1, 9
9, 66928, Control_c, 7, 1, 10
9, 66930, Control_c, 7, 1, 11
9, 66932, Control_c, 7, 11, 61
9, 66933, Control_c, 7, 1, 12
9, 66936, Control_c, 7, 1, 13
9, 66939, Control_c, 7, 1, 14
9, 66943, Control_c, 7, 1, 15
9, 66948, Control_c, 7, 1, 16
9, 66951, Control_c, 7, 11, 62
9, 66953, Control_c, 7, 1, 17
9, 66961, Control_c, 7, 1, 18
9, 66970, Control_c, 7, 11, 63
9, 66971, Control_c, 7, 1, 19
9, 66989, Control_c, 7, 11, 64
9, 66989, Control_c, 7, 1, 20
9, 67008, Control_c, 7, 11, 65
9, 67028, Control_c, 7, 11, 66
9, 67047, Control_c, 7, 11, 67
9, 67056, Note_on_c, 7, 71, 100
9, 67056, Note_on_c, 7, 83, 100
9, 67057, Note_on_c, 7, 81, 0
9, 67057, Note_on_c, 7, 69, 0
9, 67066, Control_c, 7, 11, 68
9, 67085, Control_c, 7, 11, 69
9, 67104, Control_c, 7, 11, 70
9, 67124, Control_c, 7, 11, 71
9, 67143, Control_c, 7, 11, 72
9, 67162, Control_c, 7, 11, 73
9, 67181, Control_c, 7, 11, 74
9, 67200, Control_c, 7, 11, 75
9, 67219, Control_c, 7, 11, 76
9, 67239, Control_c, 7, 11, 77
9, 67258, Control_c, 7, 11, 78
9, 67277, Control_c, 7, 11, 79
9, 67296, Control_c, 7, 11, 80
9, 67315, Control_c, 7, 11, 81
9, 67335, Control_c, 7, 11, 82
9, 67354, Control_c, 7, 11, 83
9, 67373, Control_c, 7, 11, 84
9, 67392, Control_c, 7, 11, 85
9, 67411, Control_c, 7, 11, 86
9, 67430, Control_c, 7, 11, 87
9, 67450, Control_c, 7, 11, 88
9, 67469, Control_c, 7, 11, 89
9, 67488, Note_on_c, 7, 69, 100
9, 67488, Note_on_c, 7, 81, 100
9, 67488, Control_c, 7, 11, 90
9, 67489, Note_on_c, 7, 83, 0
9, 67489, Note_on_c, 7, 71, 0
9, 67507, Control_c, 7, 11, 91
9, 67526, Control_c, 7, 11, 92
9, 67546, Control_c, 7, 11, 93
9, 67565, Control_c, 7, 11, 94
9, 67584, Control_c, 7, 11, 95
9, 67603, Control_c, 7, 11, 96
9, 67622, Control_c, 7, 11, 97
9, 67641, Control_c, 7, 11, 98
9, 67661, Control_c, 7, 11, 99
9, 67680, Control_c, 7, 11, 100
9, 67699, Control_c, 7, 11, 101
9, 67718, Control_c, 7, 11, 102
9, 67737, Control_c, 7, 11, 103
9, 67757, Control_c, 7, 11, 104
9, 67776, Control_c, 7, 11, 105
9, 67795, Control_c, 7, 11, 106
9, 67814, Control_c, 7, 11, 107
9, 67833, Control_c, 7, 11, 108
9, 67852, Control_c, 7, 11, 109
9, 67872, Control_c, 7, 11, 110
9, 67891, Control_c, 7, 11, 111
9, 67910, Control_c, 7, 11, 112
9, 67920, Note_on_c, 7, 67, 100
9, 67920, Note_on_c, 7, 79, 100
9, 67921, Note_on_c, 7, 81, 0
9, 67921, Note_on_c, 7, 69, 0
9, 67929, Control_c, 7, 11, 113
9, 67948, Control_c, 7, 11, 114
9, 67968, Control_c, 7, 11, 115
9, 67987, Control_c, 7, 11, 116
9, 68006, Control_c, 7, 11, 117
9, 68025, Control_c, 7, 11, 118
9, 68044, Control_c, 7, 11, 119
9, 68063, Control_c, 7, 11, 120
9, 68064, Note_on_c, 7, 79, 0
9, 68064, Note_on_c, 7, 67, 0
9, 68064, Control_c, 7, 1, 0
9, 68064, Note_on_c, 7, 66, 113
9, 68064, Note_on_c, 7, 78, 113
9, 68088, Note_on_c, 7, 78, 0
9, 68088, Note_on_c, 7, 66, 0
9, 68112, Note_on_c, 7, 62, 113
9, 68160, Note_on_c, 7, 62, 0
9, 68160, Note_on_c, 7, 64, 111
9, 68184, Note_on_c, 7, 64, 0
9, 68184, Note_on_c, 7, 66, 112
9, 68208, Note_on_c, 7, 66, 0
9, 68208, Note_on_c, 7, 67, 113
9, 68232, Note_on_c, 7, 67, 0
9, 68304, Note_on_c, 7, 66, 110
9, 68328, Note_on_c, 7, 66, 0
9, 68352, Note_on_c, 7, 64, 113
9, 68376, Note_on_c, 7, 64, 0
9, 68448, Note_on_c, 7, 62, 110
9, 68472, Note_on_c, 7, 62, 0
9, 68496, Note_on_c, 7, 64, 113
9, 68520, Note_on_c, 7, 64, 0
9, 68592, Note_on_c, 7, 61, 110
9, 68616, Note_on_c, 7, 61, 0
9, 68640, Note_on_c, 7, 62, 113
9, 68640, Note_on_c, 7, 66, 113
9, 68736, Note_on_c, 7, 66, 0
9, 68736, Note_on_c, 7, 62, 0
9, 68736, Note_on_c, 7, 64, 111
9, 68736, Note_on_c, 7, 67, 111
9, 68760, Note_on_c, 7, 67, 0
9, 68760, Note_on_c, 7, 64, 0
9, 68760, Note_on_c, 7, 66, 112
9, 68760, Note_on_c, 7, 69, 112
9, 68784, Note_on_c, 7, 69, 0
9, 68784, Note_on_c, 7, 66, 0
9, 68784, Note_on_c, 7, 67, 113
9, 68784, Note_on_c, 7, 71, 113
9, 68808, Note_on_c, 7, 71, 0
9, 68808, Note_on_c, 7, 67, 0
9, 68880, Note_on_c, 7, 66, 110
9, 68880, Note_on_c, 7, 69, 110
9, 68904, Note_on_c, 7, 69, 0
9, 68904, Note_on_c, 7, 66, 0
9, 68928, Note_on_c, 7, 64, 113
9, 68928, Note_on_c, 7, 67, 113
9, 68952, Note_on_c, 7, 67, 0
9, 68952, Note_on_c, 7, 64, 0
9, 69024, Note_on_c, 7, 62, 110
9, 69024, Note_on_c, 7, 66, 110
9, 69048, Note_on_c, 7, 66, 0
9, 69048, Note_on_c, 7, 62, 0
9, 69072, Note_on_c, 7, 64, 113
9, 69072, Note_on_c, 7, 67, 113
9, 69096, Note_on_c, 7, 67, 0
9, 69096, Note_on_c, 7, 64, 0
9, 69168, Note_on_c, 7, 61, 110
9, 69168, Note_on_c, 7, 64, 110
9, 69192, Note_on_c, 7, 64, 0
9, 69192, Note_on_c, 7, 61, 0
9, 69216, Note_on_c, 7, 62, 113
9, 69240, Note_on_c, 7, 62, 0
9, 69264, Note_on_c, 7, 62, 110
9, 69264, Note_on_c, 7, 74, 110
9, 69312, Note_on_c, 7, 74, 0
9, 69312, Note_on_c, 7, 62, 0
9, 69312, Note_on_c, 7, 64, 111
9, 69312, Note_on_c, 7, 76, 111
9, 69336, Note_on_c, 7, 76, 0
9, 69336, Note_on_c, 7, 64, 0
9, 69336, Note_on_c, 7, 65, 112
9, 69336, Note_on_c, 7, 77, 112
9, 69360, Note_on_c, 7, 77, 0
9, 69360, Note_on_c, 7, 65, 0
9, 69360, Note_on_c, 7, 67, 113
9, 69360, Note_on_c, 7, 79, 113
9, 69384, Note_on_c, 7, 79, 0
9, 69384, Note_on_c, 7, 67, 0
9, 69408, Note_on_c, 7, 67, 110
9, 69408, Note_on_c, 7, 79, 110
9, 69432, Note_on_c, 7, 79, 0
9, 69432, Note_on_c, 7, 67, 0
9, 69456, Note_on_c, 7, 65, 110
9, 69456, Note_on_c, 7, 77, 110
9, 69480, Note_on_c, 7, 77, 0
9, 69480, Note_on_c, 7, 65, 0
9, 69504, Note_on_c, 7, 64, 113
9, 69504, Note_on_c, 7, 76, 113
9, 69528, Note_on_c, 7, 76, 0
9, 69528, Note_on_c, 7, 64, 0
9, 69552, Note_on_c, 7, 64, 110
9, 69552, Note_on_c, 7, 76, 110
9, 69576, Note_on_c, 7, 76, 0
9, 69576, Note_on_c, 7, 64, 0
9, 69600, Note_on_c, 7, 62, 110
9, 69600, Note_on_c, 7, 74, 110
9, 69624, Note_on_c, 7, 74, 0
9, 69624, Note_on_c, 7, 62, 0
9, 69648, Note_on_c, 7, 64, 113
9, 69648, Note_on_c, 7, 76, 113
9, 69672, Note_on_c, 7, 76, 0
9, 69672, Note_on_c, 7, 64, 0
9, 69696, Note_on_c, 7, 64, 110
9, 69696, Note_on_c, 7, 76, 110
9, 69720, Note_on_c, 7, 76, 0
9, 69720, Note_on_c, 7, 64, 0
9, 69744, Note_on_c, 7, 61, 110
9, 69744, Note_on_c, 7, 73, 110
9, 69768, Note_on_c, 7, 73, 0
9, 69768, Note_on_c, 7, 61, 0
9, 69792, Note_on_c, 7, 65, 113
9, 69792, Note_on_c, 7, 77, 113
9, 69816, Note_on_c, 7, 77, 0
9, 69816, Note_on_c, 7, 65, 0
9, 69840, Note_on_c, 7, 62, 110
9, 69840, Note_on_c, 7, 65, 110
9, 69888, Note_on_c, 7, 65, 0
9, 69888, Note_on_c, 7, 62, 0
9, 69888, Note_on_c, 7, 64, 111
9, 69888, Note_on_c, 7, 67, 111
9, 69912, Note_on_c, 7, 67, 0
9, 69912, Note_on_c, 7, 64, 0
9, 69912, Note_on_c, 7, 65, 112
9, 69912, Note_on_c, 7, 69, 112
9, 69936, Note_on_c, 7, 69, 0
9, 69936, Note_on_c, 7, 65, 0
9, 69936, Note_on_c, 7, 67, 113
9, 69936, Note_on_c, 7, 70, 113
9, 69960, Note_on_c, 7, 70, 0
9, 69960, Note_on_c, 7, 67, 0
9, 69984, Note_on_c, 7, 67, 110
9, 69984, Note_on_c, 7, 70, 110
9, 70008, Note_on_c, 7, 70, 0
9, 70008, Note_on_c, 7, 67, 0
9, 70032, Note_on_c, 7, 65, 110
9, 70032, Note_on_c, 7, 69, 110
9, 70056, Note_on_c, 7, 69, 0
9, 70056, Note_on_c, 7, 65, 0
9, 70080, Note_on_c, 7, 64, 113
9, 70080, Note_on_c, 7, 67, 113
9, 70104, Note_on_c, 7, 67, 0
9, 70104, Note_on_c, 7, 64, 0
9, 70128, Note_on_c, 7, 64, 110
9, 70128, Note_on_c, 7, 67, 110
9, 70152, Note_on_c, 7, 67, 0
9, 70152, Note_on_c, 7, 64, 0
9, 70176, Note_on_c, 7, 62, 110
9, 70176, Note_on_c, 7, 65, 110
9, 70200, Note_on_c, 7, 65, 0
9, 70200, Note_on_c, 7, 62, 0
9, 70224, Note_on_c, 7, 64, 113
9, 70224, Note_on_c, 7, 67, 113
9, 70248, Note_on_c, 7, 67, 0
9, 70248, Note_on_c, 7, 64, 0
9, 70272, Note_on_c, 7, 64, 110
9, 70272, Note_on_c, 7, 67, 110
9, 70296, Note_on_c, 7, 67, 0
9, 70296, Note_on_c, 7, 64, 0
9, 70320, Note_on_c, 7, 61, 110
9, 70320, Note_on_c, 7, 64, 110
9, 70344, Note_on_c, 7, 64, 0
9, 70344, Note_on_c, 7, 61, 0
9, 70368, Note_on_c, 7, 53, 116
9, 70368, Note_on_c, 7, 65, 116
9, 70403, Note_on_c, 7, 65, 0
9, 70403, Note_on_c, 7, 53, 0
9, 70440, Note_on_c, 7, 53, 113
9, 70440, Note_on_c, 7, 65, 113
9, 70452, Note_on_c, 7, 65, 0
9, 70452, Note_on_c, 7, 53, 0
9, 70464, Note_on_c, 7, 53, 113
9, 70464, Note_on_c, 7, 65, 113
9, 70488, Note_on_c, 7, 65, 0
9, 70488, Note_on_c, 7, 53, 0
9, 70512, Note_on_c, 7, 53, 116
9, 70512, Note_on_c, 7, 65, 116
9, 70536, Note_on_c, 7, 65, 0
9, 70536, Note_on_c, 7, 53, 0
9, 70560, Note_on_c, 7, 55, 113
9, 70560, Note_on_c, 7, 67, 113
9, 70584, Note_on_c, 7, 67, 0
9, 70584, Note_on_c, 7, 55, 0
9, 70608, Note_on_c, 7, 57, 113
9, 70608, Note_on_c, 7, 69, 113
9, 70632, Note_on_c, 7, 69, 0
9, 70632, Note_on_c, 7, 57, 0
9, 70656, Note_on_c, 7, 58, 113
9, 70656, Note_on_c, 7, 70, 113
9, 70680, Note_on_c, 7, 70, 0
9, 70680, Note_on_c, 7, 58, 0
9, 70944, Note_on_c, 7, 64, 116
9, 70944, Note_on_c, 7, 76, 116
9, 70979, Note_on_c, 7, 76, 0
9, 70979, Note_on_c, 7, 64, 0
9, 71016, Note_on_c, 7, 52, 113
9, 71016, Note_on_c, 7, 64, 113
9, 71028, Note_on_c, 7, 64, 0
9, 71028, Note_on_c, 7, 52, 0
9, 71040, Note_on_c, 7, 52, 113
9, 71040, Note_on_c, 7, 64, 113
9, 71064, Note_on_c, 7, 64, 0
9, 71064, Note_on_c, 7, 52, 0
9, 71088, Note_on_c, 7, 64, 116
9, 71088, Note_on_c, 7, 76, 116
9, 71112, Note_on_c, 7, 76, 0
9, 71112, Note_on_c, 7, 64, 0
9, 71136, Note_on_c, 7, 65, 113
9, 71136, Note_on_c, 7, 77, 113
9, 71160, Note_on_c, 7, 77, 0
9, 71160, Note_on_c, 7, 65, 0
9, 71184, Note_on_c, 7, 67, 113
9, 71184, Note_on_c, 7, 79, 113
9, 71208, Note_on_c, 7, 79, 0
9, 71208, Note_on_c, 7, 67, 0
9, 71232, Note_on_c, 7, 69, 113
9, 71232, Note_on_c, 7, 81, 113
9, 71256, Note_on_c, 7, 81, 0
9, 71256, Note_on_c, 7, 69, 0
9, 71376, Note_on_c, 7, 69, 116
9, 71400, Note_on_c, 7, 69, 0
9, 71424, Note_on_c, 7, 74, 113
9, 71448, Note_on_c, 7, 74, 0
9, 71472, Note_on_c, 7, 76, 113
9, 71496, Note_on_c, 7, 76, 0
9, 71520, Note_on_c, 7, 74, 60
9, 71520, Note_on_c, 7, 78, 60
9, 71544, Note_on_c, 7, 78, 0
9, 71544, Note_on_c, 7, 74, 0
9, 71808, Note_on_c, 7, 62, 60
9, 71808, Note_on_c, 7, 74, 60
9, 71832, Note_on_c, 7, 74, 0
9, 71832, Note_on_c, 7, 62, 0
9, 72384, Control_c, 7, 1, 0
9, 72384, Control_c, 7, 11, 60
9, 72384, Note_on_c, 7, 58, 100
9, 72384, Note_on_c, 7, 67, 100
9, 72385, Control_c, 7, 1, 2
9, 72386, Control_c, 7, 1, 3
9, 72387, Control_c, 7, 1, 4
9, 72388, Control_c, 7, 1, 5
9, 72389, Control_c, 7, 1, 6
9, 72390, Control_c, 7, 1, 7
9, 72392, Control_c, 7, 1, 8
9, 72393, Control_c, 7, 1, 9
9, 72394, Control_c, 7, 11, 61
9, 72395, Control_c, 7, 1, 10
9, 72396, Control_c, 7, 1, 11
9, 72398, Control_c, 7, 1, 12
9, 72400, Control_c, 7, 1, 13
9, 72402, Control_c, 7, 1, 14
9, 72404, Control_c, 7, 11, 62
9, 72405, Control_c, 7, 1, 15
9, 72408, Control_c, 7, 1, 16
9, 72412, Control_c, 7, 1, 17
9, 72413, Control_c, 7, 11, 63
9, 72416, Control_c, 7, 1, 18
9, 72423, Control_c, 7, 11, 64
9, 72423, Control_c, 7, 1, 19
9, 72432, Note_on_c, 7, 67, 0
9, 72432, Note_on_c, 7, 65, 100
9, 72432, Control_c, 7, 11, 65
9, 72435, Control_c, 7, 1, 20
9, 72442, Control_c, 7, 11, 66
9, 72452, Control_c, 7, 11, 67
9, 72461, Control_c, 7, 11, 68
9, 72471, Control_c, 7, 11, 69
9, 72480, Note_on_c, 7, 65, 0
9, 72480, Note_on_c, 7, 63, 100
9, 72480, Control_c, 7, 11, 70
9, 72490, Control_c, 7, 11, 71
9, 72499, Control_c, 7, 11, 72
9, 72509, Control_c, 7, 11, 73
9, 72519, Control_c, 7, 11, 74
9, 72528, Note_on_c, 7, 63, 0
9, 72528, Note_on_c, 7, 75, 100
9, 72528, Control_c, 7, 11, 75
9, 72538, Control_c, 7, 11, 76
9, 72547, Control_c, 7, 11, 77
9, 72557, Control_c, 7, 11, 78
9, 72567, Control_c, 7, 11, 79
9, 72576, Note_on_c, 7, 75, 0
9, 72576, Note_on_c, 7, 77, 100
9, 72576, Control_c, 7, 11, 80
9, 72586, Control_c, 7, 11, 81
9, 72595, Control_c, 7, 11, 82
9, 72605, Control_c, 7, 11, 83
9, 72614, Control_c, 7, 11, 84
9, 72624, Note_on_c, 7, 77, 0
9, 72624, Note_on_c, 7, 79, 100
9, 72624, Control_c, 7, 11, 85
9, 72634, Control_c, 7, 11, 86
9, 72643, Control_c, 7, 11, 87
9, 72653, Control_c, 7, 11, 88
9, 72662, Control_c, 7, 11, 89
9, 72672, Note_on_c, 7, 79, 0
9, 72672, Note_on_c, 7, 58, 0
9, 72672, Note_on_c, 7, 70, 100
9, 72672, Note_on_c, 7, 76, 100
9, 72672, Control_c, 7, 11, 90
9, 72682, Control_c, 7, 11, 91
9, 72691, Control_c, 7, 11, 92
9, 72701, Control_c, 7, 11, 93
9, 72710, Control_c, 7, 11, 94
9, 72720, Note_on_c, 7, 76, 0
9, 72720, Note_on_c, 7, 70, 0
9, 72720, Note_on_c, 7, 69, 100
9, 72720, Note_on_c, 7, 77, 100
9, 72720, Control_c, 7, 11, 95
9, 72729, Control_c, 7, 11, 96
9, 72739, Control_c, 7, 11, 97
9, 72749, Control_c, 7, 11, 98
9, 72758, Control_c, 7, 11, 99
9, 72768, Note_on_c, 7, 77, 0
9, 72768, Note_on_c, 7, 69, 0
9, 72768, Note_on_c, 7, 70, 100
9, 72768, Note_on_c, 7, 79, 100
9, 72768, Control_c, 7, 11, 100
9, 72777, Control_c, 7, 11, 101
9, 72787, Control_c, 7, 11, 102
9, 72797, Control_c, 7, 11, 103
9, 72806, Control_c, 7, 11, 104
9, 72816, Note_on_c, 7, 79, 0
9, 72816, Note_on_c, 7, 70, 0
9, 72816, Note_on_c, 7, 64, 100
9, 72816, Note_on_c, 7, 67, 100
9, 72816, Control_c, 7, 11, 105
9, 72825, Control_c, 7, 11, 106
9, 72835, Control_c, 7, 11, 107
9, 72844, Control_c, 7, 11, 108
9, 72854, Control_c, 7, 11, 109
9, 72864, Note_on_c, 7, 67, 0
9, 72864, Note_on_c, 7, 64, 0
9, 72864, Note_on_c, 7, 62, 100
9, 72864, Note_on_c, 7, 65, 100
9, 72864, Control_c, 7, 11, 110
9, 72873, Control_c, 7, 11, 111
9, 72883, Control_c, 7, 11, 112
9, 72892, Control_c, 7, 11, 113
9, 72902, Control_c, 7, 11, 114
9, 72912, Note_on_c, 7, 65, 0
9, 72912, Note_on_c, 7, 62, 0
9, 72912, Note_on_c, 7, 61, 100
9, 72912, Note_on_c, 7, 64, 100
9, 72912, Control_c, 7, 11, 115
9, 72921, Control_c, 7, 11, 116
9, 72931, Control_c, 7, 11, 117
9, 72940, Control_c, 7, 11, 118
9, 72950, Control_c, 7, 11, 119
9, 72959, Control_c, 7, 11, 120
9, 72960, Note_on_c, 7, 64, 0
9, 72960, Note_on_c, 7, 61, 0
9, 72960, Control_c, 7, 1, 0
9, 72960, Note_on_c, 7, 57, 105
9, 72960, Note_on_c, 7, 62, 105
9, 72984, Note_on_c, 7, 62, 0
9, 72984, Note_on_c, 7, 57, 0
9, 73008, Note_on_c, 7, 62, 100
9, 73008, Note_on_c, 7, 65, 100
9, 73032, Note_on_c, 7, 65, 0
9, 73032, Note_on_c, 7, 62, 0
9, 73056, Note_on_c, 7, 58, 100
9, 73056, Note_on_c, 7, 70, 100
9, 73080, Note_on_c, 7, 70, 0
9, 73080, Note_on_c, 7, 58, 0
9, 73104, Note_on_c, 7, 55, 105
9, 73104, Note_on_c, 7, 67, 105
9, 73128, Note_on_c, 7, 67, 0
9, 73128, Note_on_c, 7, 55, 0
9, 73152, Note_on_c, 7, 64, 100
9, 73152, Note_on_c, 7, 76, 100
9, 73176, Note_on_c, 7, 76, 0
9, 73176, Note_on_c, 7, 64, 0
9, 73200, Note_on_c, 7, 64, 100
9, 73200, Note_on_c, 7, 73, 100
9, 73224, Note_on_c, 7, 73, 0
9, 73224, Note_on_c, 7, 64, 0
9, 73248, Note_on_c, 7, 65, 100
9, 73248, Note_on_c, 7, 74, 100
9, 73272, Note_on_c, 7, 74, 0
9, 73272, Note_on_c, 7, 65, 0
9, 73536, Note_on_c, 7, 65, 105
9, 73536, Note_on_c, 7, 69, 105
9, 73560, Note_on_c, 7, 69, 0
9, 73560, Note_on_c, 7, 65, 0
9, 73584, Note_on_c, 7, 62, 100
9, 73584, Note_on_c, 7, 74, 100
9, 73608, Note_on_c, 7, 74, 0
9, 73608, Note_on_c, 7, 62, 0
9, 73632, Note_on_c, 7, 58, 100
9, 73632, Note_on_c, 7, 70, 100
9, 73656, Note_on_c, 7, 70, 0
9, 73656, Note_on_c, 7, 58, 0
9, 73680, Note_on_c, 7, 55, 105
9, 73680, Note_on_c, 7, 67, 105
9, 73704, Note_on_c, 7, 67, 0
9, 73704, Note_on_c, 7, 55, 0
9, 73728, Note_on_c, 7, 64, 100
9, 73728, Note_on_c, 7, 76, 100
9, 73752, Note_on_c, 7, 76, 0
9, 73752, Note_on_c, 7, 64, 0
9, 73776, Note_on_c, 7, 64, 100
9, 73776, Note_on_c, 7, 73, 100
9, 73800, Note_on_c, 7, 73, 0
9, 73800, Note_on_c, 7, 64, 0
9, 73824, Note_on_c, 7, 65, 105
9, 73824, Note_on_c, 7, 74, 105
9, 73848, Note_on_c, 7, 74, 0
9, 73848, Note_on_c, 7, 65, 0
9, 73872, Note_on_c, 7, 69, 100
9, 73872, Note_on_c, 7, 81, 100
9, 73896, Note_on_c, 7, 81, 0
9, 73896, Note_on_c, 7, 69, 0
9, 73920, Note_on_c, 7, 69, 100
9, 73920, Note_on_c, 7, 81, 100
9, 73944, Note_on_c, 7, 81, 0
9, 73944, Note_on_c, 7, 69, 0
9, 73968, Note_on_c, 7, 69, 105
9, 73968, Note_on_c, 7, 81, 105
9, 73992, Note_on_c, 7, 81, 0
9, 73992, Note_on_c, 7, 69, 0
9, 74016, Note_on_c, 7, 69, 100
9, 74016, Note_on_c, 7, 81, 100
9, 74040, Note_on_c, 7, 81, 0
9, 74040, Note_on_c, 7, 69, 0
9, 74064, Note_on_c, 7, 69, 100
9, 74064, Note_on_c, 7, 81, 100
9, 74088, Note_on_c, 7, 81, 0
9, 74088, Note_on_c, 7, 69, 0
9, 74112, Note_on_c, 7, 65, 105
9, 74112, Note_on_c, 7, 74, 105
9, 74136, Note_on_c, 7, 74, 0
9, 74136, Note_on_c, 7, 65, 0
9, 74160, Note_on_c, 7, 62, 100
9, 74160, Note_on_c, 7, 65, 100
9, 74184, Note_on_c, 7, 65, 0
9, 74184, Note_on_c, 7, 62, 0
9, 74208, Note_on_c, 7, 65, 100
9, 74208, Note_on_c, 7, 69, 100
9, 74232, Note_on_c, 7, 69, 0
9, 74232, Note_on_c, 7, 65, 0
9, 74256, Note_on_c, 7, 64, 105
9, 74256, Note_on_c, 7, 67, 105
9, 74280, Note_on_c, 7, 67, 0
9, 74280, Note_on_c, 7, 64, 0
9, 74304, Note_on_c, 7, 69, 100
9, 74304, Note_on_c, 7, 76, 100
9, 74328, Note_on_c, 7, 76, 0
9, 74328, Note_on_c, 7, 69, 0
9, 74352, Note_on_c, 7, 76, 100
9, 74352, Note_on_c, 7, 81, 100
9, 74376, Note_on_c, 7, 81, 0
9, 74376, Note_on_c, 7, 76, 0
9, 74400, Note_on_c, 7, 74, 105
9, 74400, Note_on_c, 7, 77, 105
9, 74424, Note_on_c, 7, 77, 0
9, 74424, Note_on_c, 7, 74, 0
9, 74448, Note_on_c, 7, 62, 100
9, 74448, Note_on_c, 7, 65, 100
9, 74472, Note_on_c, 7, 65, 0
9, 74472, Note_on_c, 7, 62, 0
9, 74496, Note_on_c, 7, 65, 100
9, 74496, Note_on_c, 7, 69, 100
9, 74520, Note_on_c, 7, 69, 0
9, 74520, Note_on_c, 7, 65, 0
9, 74544, Note_on_c, 7, 64, 105
9, 74544, Note_on_c, 7, 67, 105
9, 74568, Note_on_c, 7, 67, 0
9, 74568, Note_on_c, 7, 64, 0
9, 74592, Note_on_c, 7, 69, 100
9, 74592, Note_on_c, 7, 76, 100
9, 74616, Note_on_c, 7, 76, 0
9, 74616, Note_on_c, 7, 69, 0
9, 74640, Note_on_c, 7, 76, 100
9, 74640, Note_on_c, 7, 81, 100
9, 74664, Note_on_c, 7, 81, 0
9, 74664, Note_on_c, 7, 76, 0
9, 74832, Control_c, 7, 1, 0
9, 74832, Note_on_c, 7, 67, 52
9, 74833, Control_c, 7, 1, 2
9, 74834, Control_c, 7, 1, 3
9, 74835, Control_c, 7, 1, 4
9, 74837, Control_c, 7, 1, 5
9, 74838, Control_c, 7, 1, 6
9, 74839, Control_c, 7, 1, 7
9, 74841, Control_c, 7, 1, 8
9, 74842, Control_c, 7, 1, 9
9, 74844, Control_c, 7, 1, 10
9, 74846, Control_c, 7, 1, 11
9, 74848, Control_c, 7, 1, 12
9, 74851, Control_c, 7, 1, 13
9, 74854, Control_c, 7, 1, 14
9, 74858, Control_c, 7, 1, 15
9, 74863, Control_c, 7, 1, 16
9, 74870, Control_c, 7, 1, 17
9, 74880, Note_on_c, 7, 67, 0
9, 74880, Note_on_c, 7, 73, 58
9, 74881, Control_c, 7, 1, 18
9, 74928, Note_on_c, 7, 73, 0
9, 74928, Note_on_c, 7, 76, 61
9, 75168, Note_on_c, 7, 76, 0
9, 75168, Note_on_c, 7, 67, 52
9, 75216, Note_on_c, 7, 67, 0
9, 75216, Note_on_c, 7, 64, 49
9, 75264, Note_on_c, 7, 64, 0
9, 75264, Control_c, 7, 1, 0
9, 75264, Note_on_c, 7, 62, 50
9, 75288, Note_on_c, 7, 62, 0
9, 75408, Note_on_c, 7, 65, 55
9, 75408, Note_on_c, 7, 74, 55
9, 75443, Note_on_c, 7, 74, 0
9, 75443, Note_on_c, 7, 65, 0
9, 75480, Note_on_c, 7, 62, 50
9, 75480, Note_on_c, 7, 65, 50
9, 75492, Note_on_c, 7, 65, 0
9, 75492, Note_on_c, 7, 62, 0
9, 75504, Note_on_c, 7, 62, 50
9, 75504, Note_on_c, 7, 65, 50
9, 75528, Note_on_c, 7, 65, 0
9, 75528, Note_on_c, 7, 62, 0
9, 75552, Note_on_c, 7, 62, 50
9, 75552, Note_on_c, 7, 65, 50
9, 75576, Note_on_c, 7, 65, 0
9, 75576, Note_on_c, 7, 62, 0
9, 75696, Note_on_c, 7, 62, 55
9, 75696, Note_on_c, 7, 65, 55
9, 75731, Note_on_c, 7, 65, 0
9, 75731, Note_on_c, 7, 62, 0
9, 75768, Note_on_c, 7, 62, 50
9, 75768, Note_on_c, 7, 65, 50
9, 75780, Note_on_c, 7, 65, 0
9, 75780, Note_on_c, 7, 62, 0
9, 75792, Note_on_c, 7, 62, 50
9, 75792, Note_on_c, 7, 65, 50
9, 75816, Note_on_c, 7, 65, 0
9, 75816, Note_on_c, 7, 62, 0
9, 75840, Note_on_c, 7, 62, 50
9, 75840, Note_on_c, 7, 65, 50
9, 75864, Note_on_c, 7, 65, 0
9, 75864, Note_on_c, 7, 62, 0
9, 76560, Note_on_c, 7, 65, 55
9, 76560, Note_on_c, 7, 74, 55
9, 76595, Note_on_c, 7, 74, 0
9, 76595, Note_on_c, 7, 65, 0
9, 76632, Note_on_c, 7, 62, 50
9, 76632, Note_on_c, 7, 65, 50
9, 76644, Note_on_c, 7, 65, 0
9, 76644, Note_on_c, 7, 62, 0
9, 76656, Note_on_c, 7, 62, 50
9, 76656, Note_on_c, 7, 65, 50
9, 76680, Note_on_c, 7, 65, 0
9, 76680, Note_on_c, 7, 62, 0
9, 76704, Note_on_c, 7, 62, 50
9, 76704, Note_on_c, 7, 65, 50
9, 76728, Note_on_c, 7, 65, 0
9, 76728, Note_on_c, 7, 62, 0
9, 76848, Note_on_c, 7, 70, 55
9, 76848, Note_on_c, 7, 74, 55
9, 76883, Note_on_c, 7, 74, 0
9, 76883, Note_on_c, 7, 70, 0
9, 76920, Note_on_c, 7, 65, 50
9, 76920, Note_on_c, 7, 70, 50
9, 76932, Note_on_c, 7, 70, 0
9, 76932, Note_on_c, 7, 65, 0
9, 76944, Note_on_c, 7, 65, 50
9, 76944, Note_on_c, 7, 70, 50
9, 76968, Note_on_c, 7, 70, 0
9, 76968, Note_on_c, 7, 65, 0
9, 76992, Note_on_c, 7, 65, 50
9, 76992, Note_on_c, 7, 70, 50
9, 77016, Note_on_c, 7, 70, 0
9, 77016, Note_on_c, 7, 65, 0
9, 77136, Note_on_c, 7, 58, 55
9, 77136, Note_on_c, 7, 62, 55
9, 77171, Note_on_c, 7, 62, 0
9, 77171, Note_on_c, 7, 58, 0
9, 77208, Note_on_c, 7, 62, 50
9, 77208, Note_on_c, 7, 70, 50
9, 77220, Note_on_c, 7, 70, 0
9, 77220, Note_on_c, 7, 62, 0
9, 77232, Note_on_c, 7, 62, 50
9, 77232, Note_on_c, 7, 70, 50
9, 77256, Note_on_c, 7, 70, 0
9, 77256, Note_on_c, 7, 62, 0
9, 77280, Note_on_c, 7, 65, 50
9, 77280, Note_on_c, 7, 70, 50
9, 77304, Note_on_c, 7, 70, 0
9, 77304, Note_on_c, 7, 65, 0
9, 77424, Note_on_c, 7, 67, 55
9, 77424, Note_on_c, 7, 70, 55
9, 77459, Note_on_c, 7, 70, 0
9, 77459, Note_on_c, 7, 67, 0
9, 77496, Note_on_c, 7, 63, 50
9, 77496, Note_on_c, 7, 67, 50
9, 77508, Note_on_c, 7, 67, 0
9, 77508, Note_on_c, 7, 63, 0
9, 77520, Note_on_c, 7, 63, 50
9, 77520, Note_on_c, 7, 67, 50
9, 77544, Note_on_c, 7, 67, 0
9, 77544, Note_on_c, 7, 63, 0
9, 77568, Note_on_c, 7, 63, 50
9, 77568, Note_on_c, 7, 67, 50
9, 77592, Note_on_c, 7, 67, 0
9, 77592, Note_on_c, 7, 63, 0
9, 78288, Note_on_c, 7, 63, 60
9, 78288, Note_on_c, 7, 67, 60
9, 78323, Note_on_c, 7, 67, 0
9, 78323, Note_on_c, 7, 63, 0
9, 78360, Note_on_c, 7, 63, 61
9, 78360, Note_on_c, 7, 67, 61
9, 78372, Note_on_c, 7, 67, 0
9, 78372, Note_on_c, 7, 63, 0
9, 78384, Note_on_c, 7, 63, 62
9, 78384, Note_on_c, 7, 67, 62
9, 78408, Note_on_c, 7, 67, 0
9, 78408, Note_on_c, 7, 63, 0
9, 78432, Note_on_c, 7, 63, 63
9, 78432, Note_on_c, 7, 68, 63
9, 78456, Note_on_c, 7, 68, 0
9, 78456, Note_on_c, 7, 63, 0
9, 78576, Note_on_c, 7, 65, 66
9, 78576, Note_on_c, 7, 68, 66
9, 78611, Note_on_c, 7, 68, 0
9, 78611, Note_on_c, 7, 65, 0
9, 78648, Note_on_c, 7, 65, 68
9, 78648, Note_on_c, 7, 68, 68
9, 78660, Note_on_c, 7, 68, 0
9, 78660, Note_on_c, 7, 65, 0
9, 78672, Note_on_c, 7, 65, 69
9, 78672, Note_on_c, 7, 68, 69
9, 78696, Note_on_c, 7, 68, 0
9, 78696, Note_on_c, 7, 65, 0
9, 78720, Note_on_c, 7, 65, 70
9, 78720, Note_on_c, 7, 68, 70
9, 78744, Note_on_c, 7, 68, 0
9, 78744, Note_on_c, 7, 65, 0
9, 78864, Note_on_c, 7, 65, 73
9, 78864, Note_on_c, 7, 70, 73
9, 78899, Note_on_c, 7, 70, 0
9, 78899, Note_on_c, 7, 65, 0
9, 78936, Note_on_c, 7, 65, 73
9, 78936, Note_on_c, 7, 70, 75
9, 78948, Note_on_c, 7, 70, 0
9, 78948, Note_on_c, 7, 65, 0
9, 78960, Note_on_c, 7, 65, 75
9, 78960, Note_on_c, 7, 70, 75
9, 78984, Note_on_c, 7, 70, 0
9, 78984, Note_on_c, 7, 65, 0
9, 79008, Note_on_c, 7, 65, 76
9, 79008, Note_on_c, 7, 70, 76
9, 79032, Note_on_c, 7, 70, 0
9, 79032, Note_on_c, 7, 65, 0
9, 79152, Note_on_c, 7, 66, 80
9, 79152, Note_on_c, 7, 70, 80
9, 79187, Note_on_c, 7, 70, 0
9, 79187, Note_on_c, 7, 66, 0
9, 79224, Note_on_c, 7, 66, 81
9, 79224, Note_on_c, 7, 70, 81
9, 79236, Note_on_c, 7, 70, 0
9, 79236, Note_on_c, 7, 66, 0
9, 79248, Note_on_c, 7, 66, 82
9, 79248, Note_on_c, 7, 70, 82
9, 79272, Note_on_c, 7, 70, 0
9, 79272, Note_on_c, 7, 66, 0
9, 79296, Note_on_c, 7, 66, 83
9, 79296, Note_on_c, 7, 71, 83
9, 79320, Note_on_c, 7, 71, 0
9, 79320, Note_on_c, 7, 66, 0
9, 79440, Note_on_c, 7, 68, 87
9, 79440, Note_on_c, 7, 71, 87
9, 79475, Note_on_c, 7, 71, 0
9, 79475, Note_on_c, 7, 68, 0
9, 79512, Note_on_c, 7, 68, 88
9, 79512, Note_on_c, 7, 71, 88
9, 79524, Note_on_c, 7, 71, 0
9, 79524, Note_on_c, 7, 68, 0
9, 79536, Note_on_c, 7, 68, 89
9, 79536, Note_on_c, 7, 71, 89
9, 79560, Note_on_c, 7, 71, 0
9, 79560, Note_on_c, 7, 68, 0
9, 79584, Note_on_c, 7, 68, 90
9, 79584, Note_on_c, 7, 71, 90
9, 79608, Note_on_c, 7, 71, 0
9, 79608, Note_on_c, 7, 68, 0
9, 79728, Note_on_c, 7, 68, 93
9, 79728, Note_on_c, 7, 73, 93
9, 79763, Note_on_c, 7, 73, 0
9, 79763, Note_on_c, 7, 68, 0
9, 79800, Note_on_c, 7, 68, 95
9, 79800, Note_on_c, 7, 73, 95
9, 79812, Note_on_c, 7, 73, 0
9, 79812, Note_on_c, 7, 68, 0
9, 79824, Note_on_c, 7, 68, 96
9, 79824, Note_on_c, 7, 73, 96
9, 79848, Note_on_c, 7, 73, 0
9, 79848, Note_on_c, 7, 68, 0
9, 79872, Note_on_c, 7, 69, 100
9, 79872, Note_on_c, 7, 73, 100
9, 79896, Note_on_c, 7, 73, 0
9, 79896, Note_on_c, 7, 69, 0
9, 80016, Note_on_c, 7, 69, 100
9, 80016, Note_on_c, 7, 81, 100
9, 80051, Note_on_c, 7, 81, 0
9, 80051, Note_on_c, 7, 69, 0
9, 80088, Note_on_c, 7, 57, 100
9, 80088, Note_on_c, 7, 69, 100
9, 80100, Note_on_c, 7, 69, 0
9, 80100, Note_on_c, 7, 57, 0
9, 80112, Note_on_c, 7, 57, 100
9, 80112, Note_on_c, 7, 69, 100
9, 80136, Note_on_c, 7, 69, 0
9, 80136, Note_on_c, 7, 57, 0
9, 80304, Note_on_c, 7, 58, 113
9, 80304, Note_on_c, 7, 70, 113
9, 80339, Note_on_c, 7, 70, 0
9, 80339, Note_on_c, 7, 58, 0
9, 80376, Note_on_c, 7, 58, 113
9, 80388, Note_on_c, 7, 58, 0
9, 80400, Note_on_c, 7, 58, 113
9, 80424, Note_on_c, 7, 58, 0
9, 80592, Note_on_c, 7, 59, 113
9, 80592, Note_on_c, 7, 71, 113
9, 80627, Note_on_c, 7, 71, 0
9, 80627, Note_on_c, 7, 59, 0
9, 80664, Note_on_c, 7, 59, 113
9, 80676, Note_on_c, 7, 59, 0
9, 80688, Note_on_c, 7, 59, 113
9, 80760, Note_on_c, 7, 59, 0
9, 81216, Note_on_c, 7, 71, 75
9, 81251, Note_on_c, 7, 71, 0
9, 81288, Note_on_c, 7, 59, 70
9, 81300, Note_on_c, 7, 59, 0
9, 81312, Note_on_c, 7, 59, 70
9, 81336, Note_on_c, 7, 59, 0
9, 81360, Note_on_c, 7, 64, 65
9, 81384, Note_on_c, 7, 64, 0
9, 81408, Note_on_c, 7, 63, 60
9, 81408, Note_on_c, 7, 66, 60
9, 81432, Note_on_c, 7, 66, 0
9, 81432, Note_on_c, 7, 63, 0
9, 81456, Note_on_c, 7, 64, 60
9, 81456, Note_on_c, 7, 67, 60
9, 81480, Note_on_c, 7, 67, 0
9, 81480, Note_on_c, 7, 64, 0
9, 81504, Note_on_c, 7, 63, 65
9, 81504, Note_on_c, 7, 66, 65
9, 81528, Note_on_c, 7, 66, 0
9, 81528, Note_on_c, 7, 63, 0
9, 81552, Note_on_c, 7, 64, 60
9, 81552, Note_on_c, 7, 67, 60
9, 81576, Note_on_c, 7, 67, 0
9, 81576, Note_on_c, 7, 64, 0
9, 81600, Note_on_c, 7, 66, 60
9, 81600, Note_on_c, 7, 69, 60
9, 81624, Note_on_c, 7, 69, 0
9, 81624, Note_on_c, 7, 66, 0
9, 81648, Note_on_c, 7, 64, 65
9, 81648, Note_on_c, 7, 67, 65
9, 81672, Note_on_c, 7, 67, 0
9, 81672, Note_on_c, 7, 64, 0
9, 81696, Note_on_c, 7, 67, 60
9, 81696, Note_on_c, 7, 71, 60
9, 81720, Note_on_c, 7, 71, 0
9, 81720, Note_on_c, 7, 67, 0
9, 81744, Note_on_c, 7, 67, 60
9, 81744, Note_on_c, 7, 71, 60
9, 81768, Note_on_c, 7, 71, 0
9, 81768, Note_on_c, 7, 67, 0
9, 81792, Note_on_c, 7, 67, 65
9, 81792, Note_on_c, 7, 71, 65
9, 81816, Note_on_c, 7, 71, 0
9, 81816, Note_on_c, 7, 67, 0
9, 81840, Note_on_c, 7, 66, 60
9, 81840, Note_on_c, 7, 69, 60
9, 81864, Note_on_c, 7, 69, 0
9, 81864, Note_on_c, 7, 66, 0
9, 81888, Note_on_c, 7, 64, 60
9, 81888, Note_on_c, 7, 67, 60
9, 81912, Note_on_c, 7, 67, 0
9, 81912, Note_on_c, 7, 64, 0
9, 81936, Note_on_c, 7, 66, 65
9, 81936, Note_on_c, 7, 69, 65
9, 81960, Note_on_c, 7, 69, 0
9, 81960, Note_on_c, 7, 66, 0
9, 81984, Note_on_c, 7, 64, 60
9, 81984, Note_on_c, 7, 67, 60
9, 82008, Note_on_c, 7, 67, 0
9, 82008, Note_on_c, 7, 64, 0
9, 82032, Note_on_c, 7, 63, 60
9, 82032, Note_on_c, 7, 66, 60
9, 82056, Note_on_c, 7, 66, 0
9, 82056, Note_on_c, 7, 63, 0
9, 82080, Note_on_c, 7, 64, 65
9, 82080, Note_on_c, 7, 68, 65
9, 82104, Note_on_c, 7, 68, 0
9, 82104, Note_on_c, 7, 64, 0
9, 82128, Note_on_c, 7, 64, 60
9, 82128, Note_on_c, 7, 76, 60
9, 82152, Note_on_c, 7, 76, 0
9, 82152, Note_on_c, 7, 64, 0
9, 82176, Note_on_c, 7, 64, 60
9, 82176, Note_on_c, 7, 76, 60
9, 82200, Note_on_c, 7, 76, 0
9, 82200, Note_on_c, 7, 64, 0
9, 82224, Note_on_c, 7, 72, 65
9, 82224, Note_on_c, 7, 76, 65
9, 82248, Note_on_c, 7, 76, 0
9, 82248, Note_on_c, 7, 72, 0
9, 82272, Note_on_c, 7, 71, 60
9, 82272, Note_on_c, 7, 74, 60
9, 82296, Note_on_c, 7, 74, 0
9, 82296, Note_on_c, 7, 71, 0
9, 82320, Note_on_c, 7, 69, 60
9, 82320, Note_on_c, 7, 72, 60
9, 82344, Note_on_c, 7, 72, 0
9, 82344, Note_on_c, 7, 69, 0
9, 82368, Note_on_c, 7, 71, 65
9, 82368, Note_on_c, 7, 74, 65
9, 82392, Note_on_c, 7, 74, 0
9, 82392, Note_on_c, 7, 71, 0
9, 82416, Note_on_c, 7, 69, 60
9, 82416, Note_on_c, 7, 72, 60
9, 82440, Note_on_c, 7, 72, 0
9, 82440, Note_on_c, 7, 69, 0
9, 82464, Note_on_c, 7, 68, 60
9, 82464, Note_on_c, 7, 71, 60
9, 82488, Note_on_c, 7, 71, 0
9, 82488, Note_on_c, 7, 68, 0
9, 82512, Note_on_c, 7, 76, 65
9, 82547, Note_on_c, 7, 76, 0
9, 82584, Note_on_c, 7, 64, 60
9, 82596, Note_on_c, 7, 64, 0
9, 82608, Note_on_c, 7, 64, 60
9, 82632, Note_on_c, 7, 64, 0
9, 82656, Note_on_c, 7, 64, 65
9, 82656, Note_on_c, 7, 69, 65
9, 82680, Note_on_c, 7, 69, 0
9, 82680, Note_on_c, 7, 64, 0
9, 82704, Note_on_c, 7, 68, 60
9, 82704, Note_on_c, 7, 71, 60
9, 82728, Note_on_c, 7, 71, 0
9, 82728, Note_on_c, 7, 68, 0
9, 82752, Note_on_c, 7, 69, 60
9, 82752, Note_on_c, 7, 72, 60
9, 82776, Note_on_c, 7, 72, 0
9, 82776, Note_on_c, 7, 69, 0
9, 82800, Note_on_c, 7, 68, 65
9, 82800, Note_on_c, 7, 71, 65
9, 82824, Note_on_c, 7, 71, 0
9, 82824, Note_on_c, 7, 68, 0
9, 82848, Note_on_c, 7, 69, 60
9, 82848, Note_on_c, 7, 72, 60
9, 82872, Note_on_c, 7, 72, 0
9, 82872, Note_on_c, 7, 69, 0
9, 82896, Note_on_c, 7, 71, 60
9, 82896, Note_on_c, 7, 74, 60
9, 82920, Note_on_c, 7, 74, 0
9, 82920, Note_on_c, 7, 71, 0
9, 82944, Note_on_c, 7, 69, 65
9, 82944, Note_on_c, 7, 72, 65
9, 82968, Note_on_c, 7, 72, 0
9, 82968, Note_on_c, 7, 69, 0
9, 82992, Note_on_c, 7, 72, 60
9, 82992, Note_on_c, 7, 76, 60
9, 83016, Note_on_c, 7, 76, 0
9, 83016, Note_on_c, 7, 72, 0
9, 83040, Note_on_c, 7, 72, 60
9, 83040, Note_on_c, 7, 76, 60
9, 83064, Note_on_c, 7, 76, 0
9, 83064, Note_on_c, 7, 72, 0
9, 83088, Note_on_c, 7, 72, 65
9, 83088, Note_on_c, 7, 76, 65
9, 83112, Note_on_c, 7, 76, 0
9, 83112, Note_on_c, 7, 72, 0
9, 83136, Note_on_c, 7, 71, 60
9, 83136, Note_on_c, 7, 74, 60
9, 83160, Note_on_c, 7, 74, 0
9, 83160, Note_on_c, 7, 71, 0
9, 83184, Note_on_c, 7, 69, 60
9, 83184, Note_on_c, 7, 72, 60
9, 83208, Note_on_c, 7, 72, 0
9, 83208, Note_on_c, 7, 69, 0
9, 83232, Note_on_c, 7, 71, 65
9, 83232, Note_on_c, 7, 74, 65
9, 83256, Note_on_c, 7, 74, 0
9, 83256, Note_on_c, 7, 71, 0
9, 83280, Note_on_c, 7, 69, 60
9, 83280, Note_on_c, 7, 72, 60
9, 83304, Note_on_c, 7, 72, 0
9, 83304, Note_on_c, 7, 69, 0
9, 83328, Note_on_c, 7, 68, 60
9, 83328, Note_on_c, 7, 71, 60
9, 83352, Note_on_c, 7, 71, 0
9, 83352, Note_on_c, 7, 68, 0
9, 83520, Note_on_c, 7, 65, 65
9, 83520, Note_on_c, 7, 69, 65
9, 83544, Note_on_c, 7, 69, 0
9, 83544, Note_on_c, 7, 65, 0
9, 83568, Note_on_c, 7, 67, 60
9, 83568, Note_on_c, 7, 70, 60
9, 83592, Note_on_c, 7, 70, 0
9, 83592, Note_on_c, 7, 67, 0
9, 83616, Note_on_c, 7, 69, 60
9, 83616, Note_on_c, 7, 72, 60
9, 83640, Note_on_c, 7, 72, 0
9, 83640, Note_on_c, 7, 69, 0
9, 83664, Note_on_c, 7, 67, 65
9, 83664, Note_on_c, 7, 70, 65
9, 83688, Note_on_c, 7, 70, 0
9, 83688, Note_on_c, 7, 67, 0
9, 83712, Note_on_c, 7, 69, 60
9, 83712, Note_on_c, 7, 72, 60
9, 83736, Note_on_c, 7, 72, 0
9, 83736, Note_on_c, 7, 69, 0
9, 83760, Note_on_c, 7, 70, 60
9, 83760, Note_on_c, 7, 74, 60
9, 83784, Note_on_c, 7, 74, 0
9, 83784, Note_on_c, 7, 70, 0
9, 83952, Note_on_c, 7, 69, 65
9, 83952, Note_on_c, 7, 72, 65
9, 83976, Note_on_c, 7, 72, 0
9, 83976, Note_on_c, 7, 69, 0
9, 84000, Note_on_c, 7, 67, 60
9, 84000, Note_on_c, 7, 76, 60
9, 84024, Note_on_c, 7, 76, 0
9, 84024, Note_on_c, 7, 67, 0
9, 84048, Note_on_c, 7, 69, 60
9, 84048, Note_on_c, 7, 77, 60
9, 84072, Note_on_c, 7, 77, 0
9, 84072, Note_on_c, 7, 69, 0
9, 84096, Note_on_c, 7, 67, 65
9, 84096, Note_on_c, 7, 76, 65
9, 84120, Note_on_c, 7, 76, 0
9, 84120, Note_on_c, 7, 67, 0
9, 84144, Note_on_c, 7, 69, 60
9, 84144, Note_on_c, 7, 77, 60
9, 84168, Note_on_c, 7, 77, 0
9, 84168, Note_on_c, 7, 69, 0
9, 84192, Note_on_c, 7, 70, 60
9, 84192, Note_on_c, 7, 79, 60
9, 84216, Note_on_c, 7, 79, 0
9, 84216, Note_on_c, 7, 70, 0
9, 84384, Note_on_c, 7, 69, 65
9, 84384, Note_on_c, 7, 72, 65
9, 84408, Note_on_c, 7, 72, 0
9, 84408, Note_on_c, 7, 69, 0
9, 84432, Note_on_c, 7, 67, 60
9, 84432, Note_on_c, 7, 70, 60
9, 84456, Note_on_c, 7, 70, 0
9, 84456, Note_on_c, 7, 67, 0
9, 84480, Note_on_c, 7, 65, 60
9, 84480, Note_on_c, 7, 69, 60
9, 84504, Note_on_c, 7, 69, 0
9, 84504, Note_on_c, 7, 65, 0
9, 84528, Note_on_c, 7, 70, 65
9, 84528, Note_on_c, 7, 74, 65
9, 84552, Note_on_c, 7, 74, 0
9, 84552, Note_on_c, 7, 70, 0
9, 84576, Note_on_c, 7, 69, 60
9, 84576, Note_on_c, 7, 72, 60
9, 84600, Note_on_c, 7, 72, 0
9, 84600, Note_on_c, 7, 69, 0
9, 84624, Note_on_c, 7, 67, 60
9, 84624, Note_on_c, 7, 70, 60
9, 84648, Note_on_c, 7, 70, 0
9, 84648, Note_on_c, 7, 67, 0
9, 84816, Note_on_c, 7, 65, 65
9, 84816, Note_on_c, 7, 69, 65
9, 84840, Note_on_c, 7, 69, 0
9, 84840, Note_on_c, 7, 65, 0
9, 84864, Note_on_c, 7, 60, 60
9, 84864, Note_on_c, 7, 72, 60
9, 84888, Note_on_c, 7, 72, 0
9, 84888, Note_on_c, 7, 60, 0
9, 84912, Note_on_c, 7, 60, 60
9, 84912, Note_on_c, 7, 72, 60
9, 84936, Note_on_c, 7, 72, 0
9, 84936, Note_on_c, 7, 60, 0
9, 84960, Note_on_c, 7, 60, 65
9, 84960, Note_on_c, 7, 72, 65
9, 84984, Note_on_c, 7, 72, 0
9, 84984, Note_on_c, 7, 60, 0
9, 85008, Note_on_c, 7, 60, 60
9, 85008, Note_on_c, 7, 72, 60
9, 85032, Note_on_c, 7, 72, 0
9, 85032, Note_on_c, 7, 60, 0
9, 85056, Note_on_c, 7, 60, 60
9, 85056, Note_on_c, 7, 72, 60
9, 85080, Note_on_c, 7, 72, 0
9, 85080, Note_on_c, 7, 60, 0
9, 85104, Note_on_c, 7, 69, 65
9, 85104, Note_on_c, 7, 77, 65
9, 85128, Note_on_c, 7, 77, 0
9, 85128, Note_on_c, 7, 69, 0
9, 85152, Note_on_c, 7, 70, 60
9, 85152, Note_on_c, 7, 79, 60
9, 85176, Note_on_c, 7, 79, 0
9, 85176, Note_on_c, 7, 70, 0
9, 85200, Note_on_c, 7, 72, 60
9, 85200, Note_on_c, 7, 81, 60
9, 85224, Note_on_c, 7, 81, 0
9, 85224, Note_on_c, 7, 72, 0
9, 85248, Note_on_c, 7, 72, 65
9, 85248, Note_on_c, 7, 81, 65
9, 85272, Note_on_c, 7, 81, 0
9, 85272, Note_on_c, 7, 72, 0
9, 85296, Note_on_c, 7, 70, 60
9, 85296, Note_on_c, 7, 79, 60
9, 85320, Note_on_c, 7, 79, 0
9, 85320, Note_on_c, 7, 70, 0
9, 85344, Note_on_c, 7, 69, 60
9, 85344, Note_on_c, 7, 77, 60
9, 85368, Note_on_c, 7, 77, 0
9, 85368, Note_on_c, 7, 69, 0
9, 85392, Note_on_c, 7, 69, 65
9, 85392, Note_on_c, 7, 77, 65
9, 85416, Note_on_c, 7, 77, 0
9, 85416, Note_on_c, 7, 69, 0
9, 85440, Note_on_c, 7, 70, 60
9, 85440, Note_on_c, 7, 79, 60
9, 85464, Note_on_c, 7, 79, 0
9, 85464, Note_on_c, 7, 70, 0
9, 85488, Note_on_c, 7, 69, 60
9, 85488, Note_on_c, 7, 77, 60
9, 85512, Note_on_c, 7, 77, 0
9, 85512, Note_on_c, 7, 69, 0
9, 85968, Note_on_c, 7, 65, 55
9, 85968, Note_on_c, 7, 74, 55
9, 85992, Note_on_c, 7, 74, 0
9, 85992, Note_on_c, 7, 65, 0
9, 86016, Note_on_c, 7, 67, 50
9, 86016, Note_on_c, 7, 76, 50
9, 86040, Note_on_c, 7, 76, 0
9, 86040, Note_on_c, 7, 67, 0
9, 86064, Note_on_c, 7, 69, 50
9, 86064, Note_on_c, 7, 77, 50
9, 86088, Note_on_c, 7, 77, 0
9, 86088, Note_on_c, 7, 69, 0
9, 86112, Note_on_c, 7, 69, 55
9, 86112, Note_on_c, 7, 77, 55
9, 86136, Note_on_c, 7, 77, 0
9, 86136, Note_on_c, 7, 69, 0
9, 86160, Note_on_c, 7, 67, 50
9, 86160, Note_on_c, 7, 76, 50
9, 86184, Note_on_c, 7, 76, 0
9, 86184, Note_on_c, 7, 67, 0
9, 86208, Note_on_c, 7, 65, 50
9, 86208, Note_on_c, 7, 74, 50
9, 86232, Note_on_c, 7, 74, 0
9, 86232, Note_on_c, 7, 65, 0
9, 86256, Note_on_c, 7, 65, 55
9, 86256, Note_on_c, 7, 74, 55
9, 86280, Note_on_c, 7, 74, 0
9, 86280, Note_on_c, 7, 65, 0
9, 86304, Note_on_c, 7, 67, 50
9, 86304, Note_on_c, 7, 76, 50
9, 86328, Note_on_c, 7, 76, 0
9, 86328, Note_on_c, 7, 67, 0
9, 86352, Note_on_c, 7, 65, 50
9, 86352, Note_on_c, 7, 74, 50
9, 86376, Note_on_c, 7, 74, 0
9, 86376, Note_on_c, 7, 65, 0
9, 86400, Note_on_c, 7, 57, 55
9, 86400, Note_on_c, 7, 69, 55
9, 86424, Note_on_c, 7, 69, 0
9, 86424, Note_on_c, 7, 57, 0
9, 86448, Note_on_c, 7, 57, 50
9, 86448, Note_on_c, 7, 69, 50
9, 86472, Note_on_c, 7, 69, 0
9, 86472, Note_on_c, 7, 57, 0
9, 86496, Note_on_c, 7, 57, 50
9, 86496, Note_on_c, 7, 69, 50
9, 86520, Note_on_c, 7, 69, 0
9, 86520, Note_on_c, 7, 57, 0
9, 86544, Note_on_c, 7, 57, 55
9, 86544, Note_on_c, 7, 69, 55
9, 86568, Note_on_c, 7, 69, 0
9, 86568, Note_on_c, 7, 57, 0
9, 86592, Note_on_c, 7, 57, 50
9, 86592, Note_on_c, 7, 69, 50
9, 86616, Note_on_c, 7, 69, 0
9, 86616, Note_on_c, 7, 57, 0
9, 86640, Note_on_c, 7, 57, 50
9, 86640, Note_on_c, 7, 69, 50
9, 86664, Note_on_c, 7, 69, 0
9, 86664, Note_on_c, 7, 57, 0
9, 86688, Note_on_c, 7, 57, 55
9, 86688, Note_on_c, 7, 69, 55
9, 86712, Note_on_c, 7, 69, 0
9, 86712, Note_on_c, 7, 57, 0
9, 86736, Note_on_c, 7, 57, 50
9, 86736, Note_on_c, 7, 69, 50
9, 86760, Note_on_c, 7, 69, 0
9, 86760, Note_on_c, 7, 57, 0
9, 86784, Note_on_c, 7, 57, 50
9, 86784, Note_on_c, 7, 69, 50
9, 86808, Note_on_c, 7, 69, 0
9, 86808, Note_on_c, 7, 57, 0
9, 86832, Note_on_c, 7, 57, 55
9, 86832, Note_on_c, 7, 69, 55
9, 86856, Note_on_c, 7, 69, 0
9, 86856, Note_on_c, 7, 57, 0
9, 86880, Note_on_c, 7, 57, 50
9, 86880, Note_on_c, 7, 69, 50
9, 86904, Note_on_c, 7, 69, 0
9, 86904, Note_on_c, 7, 57, 0
9, 86928, Note_on_c, 7, 57, 50
9, 86928, Note_on_c, 7, 69, 50
9, 86952, Note_on_c, 7, 69, 0
9, 86952, Note_on_c, 7, 57, 0
9, 86976, Note_on_c, 7, 57, 55
9, 86976, Note_on_c, 7, 69, 55
9, 87000, Note_on_c, 7, 69, 0
9, 87000, Note_on_c, 7, 57, 0
9, 87024, Note_on_c, 7, 57, 50
9, 87024, Note_on_c, 7, 69, 50
9, 87048, Note_on_c, 7, 69, 0
9, 87048, Note_on_c, 7, 57, 0
9, 87072, Note_on_c, 7, 57, 50
9, 87072, Note_on_c, 7, 69, 50
9, 87096, Note_on_c, 7, 69, 0
9, 87096, Note_on_c, 7, 57, 0
9, 87120, Note_on_c, 7, 57, 55
9, 87120, Note_on_c, 7, 69, 55
9, 87144, Note_on_c, 7, 69, 0
9, 87144, Note_on_c, 7, 57, 0
9, 87168, Note_on_c, 7, 57, 50
9, 87168, Note_on_c, 7, 69, 50
9, 87192, Note_on_c, 7, 69, 0
9, 87192, Note_on_c, 7, 57, 0
9, 87216, Note_on_c, 7, 57, 50
9, 87216, Note_on_c, 7, 69, 50
9, 87240, Note_on_c, 7, 69, 0
9, 87240, Note_on_c, 7, 57, 0
9, 87264, Note_on_c, 7, 57, 55
9, 87264, Note_on_c, 7, 69, 55
9, 87288, Note_on_c, 7, 69, 0
9, 87288, Note_on_c, 7, 57, 0
9, 87312, Note_on_c, 7, 57, 50
9, 87312, Note_on_c, 7, 69, 50
9, 87336, Note_on_c, 7, 69, 0
9, 87336, Note_on_c, 7, 57, 0
9, 87360, Note_on_c, 7, 57, 50
9, 87360, Note_on_c, 7, 69, 50
9, 87384, Note_on_c, 7, 69, 0
9, 87384, Note_on_c, 7, 57, 0
9, 87408, Note_on_c, 7, 57, 55
9, 87408, Note_on_c, 7, 69, 55
9, 87432, Note_on_c, 7, 69, 0
9, 87432, Note_on_c, 7, 57, 0
9, 87456, Note_on_c, 7, 57, 50
9, 87456, Note_on_c, 7, 69, 50
9, 87480, Note_on_c, 7, 69, 0
9, 87480, Note_on_c, 7, 57, 0
9, 87504, Note_on_c, 7, 57, 50
9, 87504, Note_on_c, 7, 69, 50
9, 87528, Note_on_c, 7, 69, 0
9, 87528, Note_on_c, 7, 57, 0
9, 87552, Note_on_c, 7, 57, 55
9, 87552, Note_on_c, 7, 69, 55
9, 87576, Note_on_c, 7, 69, 0
9, 87576, Note_on_c, 7, 57, 0
9, 87600, Note_on_c, 7, 57, 50
9, 87600, Note_on_c, 7, 69, 50
9, 87624, Note_on_c, 7, 69, 0
9, 87624, Note_on_c, 7, 57, 0
9, 87648, Note_on_c, 7, 57, 50
9, 87648, Note_on_c, 7, 69, 50
9, 87672, Note_on_c, 7, 69, 0
9, 87672, Note_on_c, 7, 57, 0
9, 87696, Note_on_c, 7, 69, 55
9, 87731, Note_on_c, 7, 69, 0
9, 87768, Note_on_c, 7, 57, 50
9, 87780, Note_on_c, 7, 57, 0
9, 87792, Note_on_c, 7, 57, 50
9, 87816, Note_on_c, 7, 57, 0
9, 87840, Note_on_c, 7, 62, 55
9, 87864, Note_on_c, 7, 62, 0
9, 87888, Note_on_c, 7, 61, 50
9, 87888, Note_on_c, 7, 64, 50
9, 87912, Note_on_c, 7, 64, 0
9, 87912, Note_on_c, 7, 61, 0
9, 87936, Note_on_c, 7, 62, 50
9, 87936, Note_on_c, 7, 65, 50
9, 87960, Note_on_c, 7, 65, 0
9, 87960, Note_on_c, 7, 62, 0
9, 87984, Note_on_c, 7, 61, 55
9, 87984, Note_on_c, 7, 64, 55
9, 88008, Note_on_c, 7, 64, 0
9, 88008, Note_on_c, 7, 61, 0
9, 88032, Note_on_c, 7, 62, 50
9, 88032, Note_on_c, 7, 65, 50
9, 88056, Note_on_c, 7, 65, 0
9, 88056, Note_on_c, 7, 62, 0
9, 88080, Note_on_c, 7, 64, 50
9, 88080, Note_on_c, 7, 67, 50
9, 88104, Note_on_c, 7, 67, 0
9, 88104, Note_on_c, 7, 64, 0
9, 88128, Note_on_c, 7, 62, 55
9, 88128, Note_on_c, 7, 65, 55
9, 88152, Note_on_c, 7, 65, 0
9, 88152, Note_on_c, 7, 62, 0
9, 88176, Note_on_c, 7, 65, 50
9, 88176, Note_on_c, 7, 69, 50
9, 88200, Note_on_c, 7, 69, 0
9, 88200, Note_on_c, 7, 65, 0
9, 88224, Note_on_c, 7, 65, 50
9, 88224, Note_on_c, 7, 69, 50
9, 88248, Note_on_c, 7, 69, 0
9, 88248, Note_on_c, 7, 65, 0
9, 88272, Note_on_c, 7, 65, 55
9, 88272, Note_on_c, 7, 69, 55
9, 88296, Note_on_c, 7, 69, 0
9, 88296, Note_on_c, 7, 65, 0
9, 88320, Note_on_c, 7, 64, 50
9, 88320, Note_on_c, 7, 67, 50
9, 88344, Note_on_c, 7, 67, 0
9, 88344, Note_on_c, 7, 64, 0
9, 88368, Note_on_c, 7, 62, 50
9, 88368, Note_on_c, 7, 65, 50
9, 88392, Note_on_c, 7, 65, 0
9, 88392, Note_on_c, 7, 62, 0
9, 88416, Note_on_c, 7, 64, 55
9, 88416, Note_on_c, 7, 67, 55
9, 88440, Note_on_c, 7, 67, 0
9, 88440, Note_on_c, 7, 64, 0
9, 88464, Note_on_c, 7, 62, 50
9, 88464, Note_on_c, 7, 65, 50
9, 88488, Note_on_c, 7, 65, 0
9, 88488, Note_on_c, 7, 62, 0
9, 88512, Note_on_c, 7, 61, 50
9, 88512, Note_on_c, 7, 64, 50
9, 88536, Note_on_c, 7, 64, 0
9, 88536, Note_on_c, 7, 61, 0
9, 88560, Note_on_c, 7, 62, 55
9, 88560, Note_on_c, 7, 65, 55
9, 88584, Note_on_c, 7, 65, 0
9, 88584, Note_on_c, 7, 62, 0
9, 88608, Note_on_c, 7, 69, 50
9, 88608, Note_on_c, 7, 77, 50
9, 88632, Note_on_c, 7, 77, 0
9, 88632, Note_on_c, 7, 69, 0
9, 88656, Note_on_c, 7, 69, 50
9, 88656, Note_on_c, 7, 77, 50
9, 88680, Note_on_c, 7, 77, 0
9, 88680, Note_on_c, 7, 69, 0
9, 88704, Note_on_c, 7, 69, 55
9, 88704, Note_on_c, 7, 77, 55
9, 88728, Note_on_c, 7, 77, 0
9, 88728, Note_on_c, 7, 69, 0
9, 88752, Note_on_c, 7, 67, 50
9, 88752, Note_on_c, 7, 76, 50
9, 88776, Note_on_c, 7, 76, 0
9, 88776, Note_on_c, 7, 67, 0
9, 88800, Note_on_c, 7, 65, 50
9, 88800, Note_on_c, 7, 74, 50
9, 88824, Note_on_c, 7, 74, 0
9, 88824, Note_on_c, 7, 65, 0
9, 88848, Note_on_c, 7, 67, 55
9, 88848, Note_on_c, 7, 76, 55
9, 88872, Note_on_c, 7, 76, 0
9, 88872, Note_on_c, 7, 67, 0
9, 88896, Note_on_c, 7, 65, 50
9, 88896, Note_on_c, 7, 74, 50
9, 88920, Note_on_c, 7, 74, 0
9, 88920, Note_on_c, 7, 65, 0
9, 88944, Note_on_c, 7, 64, 50
9, 88944, Note_on_c, 7, 73, 50
9, 88968, Note_on_c, 7, 73, 0
9, 88968, Note_on_c, 7, 64, 0
9, 88992, Note_on_c, 7, 65, 50
9, 88992, Note_on_c, 7, 74, 50
9, 89016, Note_on_c, 7, 74, 0
9, 89016, Note_on_c, 7, 65, 0
9, 89712, Note_on_c, 7, 79, 55
9, 89747, Note_on_c, 7, 79, 0
9, 89784, Note_on_c, 7, 67, 50
9, 89796, Note_on_c, 7, 67, 0
9, 89808, Note_on_c, 7, 67, 50
9, 89832, Note_on_c, 7, 67, 0
9, 89856, Note_on_c, 7, 74, 50
9, 89880, Note_on_c, 7, 74, 0
9, 90000, Note_on_c, 7, 79, 55
9, 90035, Note_on_c, 7, 79, 0
9, 90072, Note_on_c, 7, 67, 50
9, 90084, Note_on_c, 7, 67, 0
9, 90096, Note_on_c, 7, 67, 50
9, 90120, Note_on_c, 7, 67, 0
9, 90144, Note_on_c, 7, 62, 55
9, 90168, Note_on_c, 7, 62, 0
9, 90192, Note_on_c, 7, 70, 50
9, 90216, Note_on_c, 7, 70, 0
9, 90240, Note_on_c, 7, 70, 50
9, 90264, Note_on_c, 7, 70, 0
9, 90288, Note_on_c, 7, 70, 55
9, 90312, Note_on_c, 7, 70, 0
9, 90336, Note_on_c, 7, 70, 50
9, 90360, Note_on_c, 7, 70, 0
9, 90384, Note_on_c, 7, 70, 50
9, 90408, Note_on_c, 7, 70, 0
9, 90432, Note_on_c, 7, 70, 55
9, 90456, Note_on_c, 7, 70, 0
9, 90480, Note_on_c, 7, 70, 50
9, 90504, Note_on_c, 7, 70, 0
9, 90528, Note_on_c, 7, 70, 50
9, 90552, Note_on_c, 7, 70, 0
9, 90576, Note_on_c, 7, 70, 55
9, 90600, Note_on_c, 7, 70, 0
9, 90624, Note_on_c, 7, 70, 50
9, 90648, Note_on_c, 7, 70, 0
9, 90672, Note_on_c, 7, 70, 50
9, 90696, Note_on_c, 7, 70, 0
9, 90720, Note_on_c, 7, 70, 55
9, 90744, Note_on_c, 7, 70, 0
9, 90768, Note_on_c, 7, 70, 50
9, 90792, Note_on_c, 7, 70, 0
9, 90816, Note_on_c, 7, 70, 50
9, 90840, Note_on_c, 7, 70, 0
9, 90864, Note_on_c, 7, 70, 55
9, 90888, Note_on_c, 7, 70, 0
9, 90912, Note_on_c, 7, 70, 50
9, 90936, Note_on_c, 7, 70, 0
9, 90960, Note_on_c, 7, 70, 50
9, 90984, Note_on_c, 7, 70, 0
9, 91008, Note_on_c, 7, 77, 50
9, 91032, Note_on_c, 7, 77, 0
9, 91584, Note_on_c, 7, 75, 50
9, 91608, Note_on_c, 7, 75, 0
9, 91728, Note_on_c, 7, 75, 50
9, 91752, Note_on_c, 7, 75, 0
9, 91872, Note_on_c, 7, 75, 50
9, 91896, Note_on_c, 7, 75, 0
9, 92016, Note_on_c, 7, 75, 50
9, 92040, Note_on_c, 7, 75, 0
9, 92160, Note_on_c, 7, 74, 50
9, 92184, Note_on_c, 7, 74, 0
9, 92736, Note_on_c, 7, 65, 77
9, 92736, Note_on_c, 7, 74, 77
9, 92760, Note_on_c, 7, 74, 0
9, 92760, Note_on_c, 7, 65, 0
9, 93024, Note_on_c, 7, 65, 90
9, 93024, Note_on_c, 7, 69, 90
9, 93048, Note_on_c, 7, 69, 0
9, 93048, Note_on_c, 7, 65, 0
9, 93312, Note_on_c, 7, 62, 120
9, 93312, Note_on_c, 7, 65, 120
9, 93342, Note_on_c, 7, 65, 0
9, 93342, Note_on_c, 7, 62, 0
9, 93600, Note_on_c, 7, 65, 120
9, 93600, Note_on_c, 7, 69, 120
9, 93630, Note_on_c, 7, 69, 0
9, 93630, Note_on_c, 7, 65, 0
9, 93888, Note_on_c, 7, 69, 125
9, 93923, Note_on_c, 7, 69, 0
9, 93960, Note_on_c, 7, 57, 115
9, 93972, Note_on_c, 7, 57, 0
9, 93984, Note_on_c, 7, 57, 115
9, 94008, Note_on_c, 7, 57, 0
9, 94032, Note_on_c, 7, 69, 125
9, 94067, Note_on_c, 7, 69, 0
9, 94104, Note_on_c, 7, 57, 115
9, 94116, Note_on_c, 7, 57, 0
9, 94128, Note_on_c, 7, 57, 115
9, 94152, Note_on_c, 7, 57, 0
9, 94176, Note_on_c, 7, 69, 125
9, 94211, Note_on_c, 7, 69, 0
9, 94248, Note_on_c, 7, 57, 115
9, 94260, Note_on_c, 7, 57, 0
9, 94272, Note_on_c, 7, 57, 115
9, 94296, Note_on_c, 7, 57, 0
9, 94320, Note_on_c, 7, 69, 125
9, 94355, Note_on_c, 7, 69, 0
9, 94392, Note_on_c, 7, 57, 115
9, 94404, Note_on_c, 7, 57, 0
9, 94416, Note_on_c, 7, 57, 115
9, 94440, Note_on_c, 7, 57, 0
9, 94464, Note_on_c, 7, 69, 125
9, 94464, Note_on_c, 7, 81, 125
9, 94499, Note_on_c, 7, 81, 0
9, 94499, Note_on_c, 7, 69, 0
9, 94536, Note_on_c, 7, 57, 115
9, 94536, Note_on_c, 7, 69, 115
9, 94548, Note_on_c, 7, 69, 0
9, 94548, Note_on_c, 7, 57, 0
9, 94560, Note_on_c, 7, 57, 115
9, 94560, Note_on_c, 7, 69, 115
9, 94584, Note_on_c, 7, 69, 0
9, 94584, Note_on_c, 7, 57, 0
9, 94608, Note_on_c, 7, 62, 120
9, 94608, Note_on_c, 7, 74, 120
9, 94632, Note_on_c, 7, 74, 0
9, 94632, Note_on_c, 7, 62, 0
9, 94656, Note_on_c, 7, 64, 115
9, 94656, Note_on_c, 7, 76, 115
9, 94680, Note_on_c, 7, 76, 0
9, 94680, Note_on_c, 7, 64, 0
9, 94704, Note_on_c, 7, 65, 115
9, 94704, Note_on_c, 7, 77, 115
9, 94728, Note_on_c, 7, 77, 0
9, 94728, Note_on_c, 7, 65, 0
9, 94752, Note_on_c, 7, 64, 120
9, 94752, Note_on_c, 7, 76, 120
9, 94776, Note_on_c, 7, 76, 0
9, 94776, Note_on_c, 7, 64, 0
9, 94800, Note_on_c, 7, 65, 115
9, 94800, Note_on_c, 7, 77, 115
9, 94824, Note_on_c, 7, 77, 0
9, 94824, Note_on_c, 7, 65, 0
9, 94848, Note_on_c, 7, 67, 115
9, 94848, Note_on_c, 7, 79, 115
9, 94872, Note_on_c, 7, 79, 0
9, 94872, Note_on_c, 7, 67, 0
9, 94896, Note_on_c, 7, 65, 120
9, 94896, Note_on_c, 7, 77, 120
9, 94920, Note_on_c, 7, 77, 0
9, 94920, Note_on_c, 7, 65, 0
9, 94944, Note_on_c, 7, 64, 115
9, 94944, Note_on_c, 7, 76, 115
9, 94968, Note_on_c, 7, 76, 0
9, 94968, Note_on_c, 7, 64, 0
9, 94992, Note_on_c, 7, 62, 115
9, 94992, Note_on_c, 7, 74, 115
9, 95016, Note_on_c, 7, 74, 0
9, 95016, Note_on_c, 7, 62, 0
9, 95040, Note_on_c, 7, 70, 120
9, 95040, Note_on_c, 7, 82, 120
9, 95064, Note_on_c, 7, 82, 0
9, 95064, Note_on_c, 7, 70, 0
9, 95088, Note_on_c, 7, 69, 115
9, 95088, Note_on_c, 7, 81, 115
9, 95112, Note_on_c, 7, 81, 0
9, 95112, Note_on_c, 7, 69, 0
9, 95136, Note_on_c, 7, 67, 115
9, 95136, Note_on_c, 7, 79, 115
9, 95160, Note_on_c, 7, 79, 0
9, 95160, Note_on_c, 7, 67, 0
9, 95184, Note_on_c, 7, 65, 120
9, 95184, Note_on_c, 7, 77, 120
9, 95208, Note_on_c, 7, 77, 0
9, 95208, Note_on_c, 7, 65, 0
9, 95232, Note_on_c, 7, 64, 115
9, 95232, Note_on_c, 7, 76, 115
9, 95256, Note_on_c, 7, 76, 0
9, 95256, Note_on_c, 7, 64, 0
9, 95280, Note_on_c, 7, 62, 115
9, 95280, Note_on_c, 7, 74, 115
9, 95304, Note_on_c, 7, 74, 0
9, 95304, Note_on_c, 7, 62, 0
9, 95328, Note_on_c, 7, 61, 120
9, 95328, Note_on_c, 7, 73, 120
9, 95352, Note_on_c, 7, 73, 0
9, 95352, Note_on_c, 7, 61, 0
9, 95376, Note_on_c, 7, 62, 115
9, 95376, Note_on_c, 7, 74, 115
9, 95400, Note_on_c, 7, 74, 0
9, 95400, Note_on_c, 7, 62, 0
9, 95424, Note_on_c, 7, 64, 115
9, 95424, Note_on_c, 7, 76, 115
9, 95448, Note_on_c, 7, 76, 0
9, 95448, Note_on_c, 7, 64, 0
9, 95472, Note_on_c, 7, 62, 120
9, 95472, Note_on_c, 7, 74, 120
9, 95496, Note_on_c, 7, 74, 0
9, 95496, Note_on_c, 7, 62, 0
9, 95520, Note_on_c, 7, 61, 115
9, 95520, Note_on_c, 7, 73, 115
9, 95544, Note_on_c, 7, 73, 0
9, 95544, Note_on_c, 7, 61, 0
9, 95568, Note_on_c, 7, 62, 115
9, 95568, Note_on_c, 7, 74, 115
9, 95592, Note_on_c, 7, 74, 0
9, 95592, Note_on_c, 7, 62, 0
9, 95616, Note_on_c, 7, 70, 120
9, 95616, Note_on_c, 7, 82, 120
9, 95640, Note_on_c, 7, 82, 0
9, 95640, Note_on_c, 7, 70, 0
9, 95664, Note_on_c, 7, 69, 115
9, 95664, Note_on_c, 7, 81, 115
9, 95688, Note_on_c, 7, 81, 0
9, 95688, Note_on_c, 7, 69, 0
9, 95712, Note_on_c, 7, 67, 115
9, 95712, Note_on_c, 7, 79, 115
9, 95736, Note_on_c, 7, 79, 0
9, 95736, Note_on_c, 7, 67, 0
9, 95760, Note_on_c, 7, 65, 120
9, 95760, Note_on_c, 7, 77, 120
9, 95784, Note_on_c, 7, 77, 0
9, 95784, Note_on_c, 7, 65, 0
9, 95808, Note_on_c, 7, 64, 115
9, 95808, Note_on_c, 7, 76, 115
9, 95832, Note_on_c, 7, 76, 0
9, 95832, Note_on_c, 7, 64, 0
9, 95856, Note_on_c, 7, 62, 115
9, 95856, Note_on_c, 7, 74, 115
9, 95880, Note_on_c, 7, 74, 0
9, 95880, Note_on_c, 7, 62, 0
9, 95904, Note_on_c, 7, 61, 120
9, 95904, Note_on_c, 7, 73, 120
9, 95928, Note_on_c, 7, 73, 0
9, 95928, Note_on_c, 7, 61, 0
9, 95952, Note_on_c, 7, 62, 115
9, 95952, Note_on_c, 7, 74, 115
9, 95976, Note_on_c, 7, 74, 0
9, 95976, Note_on_c, 7, 62, 0
9, 96000, Note_on_c, 7, 64, 115
9, 96000, Note_on_c, 7, 76, 115
9, 96024, Note_on_c, 7, 76, 0
9, 96024, Note_on_c, 7, 64, 0
9, 96048, Note_on_c, 7, 62, 120
9, 96048, Note_on_c, 7, 74, 120
9, 96072, Note_on_c, 7, 74, 0
9, 96072, Note_on_c, 7, 62, 0
9, 96096, Note_on_c, 7, 61, 115
9, 96096, Note_on_c, 7, 73, 115
9, 96120, Note_on_c, 7, 73, 0
9, 96120, Note_on_c, 7, 61, 0
9, 96144, Note_on_c, 7, 62, 115
9, 96144, Note_on_c, 7, 74, 115
9, 96168, Note_on_c, 7, 74, 0
9, 96168, Note_on_c, 7, 62, 0
9, 96192, Note_on_c, 7, 60, 120
9, 96192, Note_on_c, 7, 72, 120
9, 96216, Note_on_c, 7, 72, 0
9, 96216, Note_on_c, 7, 60, 0
9, 96240, Note_on_c, 7, 62, 115
9, 96240, Note_on_c, 7, 74, 115
9, 96264, Note_on_c, 7, 74, 0
9, 96264, Note_on_c, 7, 62, 0
9, 96288, Note_on_c, 7, 63, 115
9, 96288, Note_on_c, 7, 75, 115
9, 96312, Note_on_c, 7, 75, 0
9, 96312, Note_on_c, 7, 63, 0
9, 96336, Note_on_c, 7, 67, 120
9, 96336, Note_on_c, 7, 79, 120
9, 96360, Note_on_c, 7, 79, 0
9, 96360, Note_on_c, 7, 67, 0
9, 96384, Note_on_c, 7, 69, 115
9, 96384, Note_on_c, 7, 81, 115
9, 96408, Note_on_c, 7, 81, 0
9, 96408, Note_on_c, 7, 69, 0
9, 96432, Note_on_c, 7, 70, 115
9, 96432, Note_on_c, 7, 82, 115
9, 96456, Note_on_c, 7, 82, 0
9, 96456, Note_on_c, 7, 70, 0
9, 96480, Note_on_c, 7, 69, 120
9, 96480, Note_on_c, 7, 81, 120
9, 96504, Note_on_c, 7, 81, 0
9, 96504, Note_on_c, 7, 69, 0
9, 96528, Note_on_c, 7, 70, 115
9, 96528, Note_on_c, 7, 82, 115
9, 96552, Note_on_c, 7, 82, 0
9, 96552, Note_on_c, 7, 70, 0
9, 96576, Note_on_c, 7, 72, 115
9, 96576, Note_on_c, 7, 84, 115
9, 96600, Note_on_c, 7, 84, 0
9, 96600, Note_on_c, 7, 72, 0
9, 96624, Note_on_c, 7, 70, 120
9, 96624, Note_on_c, 7, 82, 120
9, 96648, Note_on_c, 7, 82, 0
9, 96648, Note_on_c, 7, 70, 0
9, 96672, Note_on_c, 7, 69, 115
9, 96672, Note_on_c, 7, 81, 115
9, 96696, Note_on_c, 7, 81, 0
9, 96696, Note_on_c, 7, 69, 0
9, 96720, Note_on_c, 7, 67, 115
9, 96720, Note_on_c, 7, 79, 115
9, 96744, Note_on_c, 7, 79, 0
9, 96744, Note_on_c, 7, 67, 0
9, 96768, Note_on_c, 7, 63, 105
9, 96768, Note_on_c, 7, 75, 105
9, 96792, Note_on_c, 7, 75, 0
9, 96792, Note_on_c, 7, 63, 0
9, 96816, Note_on_c, 7, 62, 100
9, 96816, Note_on_c, 7, 74, 100
9, 96840, Note_on_c, 7, 74, 0
9, 96840, Note_on_c, 7, 62, 0
9, 96864, Note_on_c, 7, 60, 100
9, 96864, Note_on_c, 7, 72, 100
9, 96888, Note_on_c, 7, 72, 0
9, 96888, Note_on_c, 7, 60, 0
9, 96912, Note_on_c, 7, 58, 105
9, 96912, Note_on_c, 7, 70, 105
9, 96936, Note_on_c, 7, 70, 0
9, 96936, Note_on_c, 7, 58, 0
9, 96960, Note_on_c, 7, 57, 100
9, 96960, Note_on_c, 7, 69, 100
9, 96984, Note_on_c, 7, 69, 0
9, 96984, Note_on_c, 7, 57, 0
9, 97008, Note_on_c, 7, 55, 100
9, 97008, Note_on_c, 7, 67, 100
9, 97032, Note_on_c, 7, 67, 0
9, 97032, Note_on_c, 7, 55, 0
9, 97056, Note_on_c, 7, 65, 105
9, 97056, Note_on_c, 7, 77, 105
9, 97080, Note_on_c, 7, 77, 0
9, 97080, Note_on_c, 7, 65, 0
9, 97104, Note_on_c, 7, 63, 100
9, 97104, Note_on_c, 7, 75, 100
9, 97128, Note_on_c, 7, 75, 0
9, 97128, Note_on_c, 7, 63, 0
9, 97152, Note_on_c, 7, 62, 100
9, 97152, Note_on_c, 7, 74, 100
9, 97176, Note_on_c, 7, 74, 0
9, 97176, Note_on_c, 7, 62, 0
9, 97200, Note_on_c, 7, 60, 105
9, 97200, Note_on_c, 7, 72, 105
9, 97224, Note_on_c, 7, 72, 0
9, 97224, Note_on_c, 7, 60, 0
9, 97248, Note_on_c, 7, 58, 100
9, 97248, Note_on_c, 7, 70, 100
9, 97272, Note_on_c, 7, 70, 0
9, 97272, Note_on_c, 7, 58, 0
9, 97296, Note_on_c, 7, 57, 100
9, 97296, Note_on_c, 7, 69, 100
9, 97320, Note_on_c, 7, 69, 0
9, 97320, Note_on_c, 7, 57, 0
9, 97344, Note_on_c, 7, 57, 105
9, 97368, Note_on_c, 7, 57, 0
9, 97392, Note_on_c, 7, 58, 100
9, 97416, Note_on_c, 7, 58, 0
9, 97440, Note_on_c, 7, 60, 100
9, 97464, Note_on_c, 7, 60, 0
9, 97488, Note_on_c, 7, 62, 105
9, 97512, Note_on_c, 7, 62, 0
9, 97536, Note_on_c, 7, 63, 100
9, 97560, Note_on_c, 7, 63, 0
9, 97584, Note_on_c, 7, 65, 100
9, 97608, Note_on_c, 7, 65, 0
9, 97632, Note_on_c, 7, 67, 105
9, 97656, Note_on_c, 7, 67, 0
9, 97680, Note_on_c, 7, 69, 100
9, 97704, Note_on_c, 7, 69, 0
9, 97728, Note_on_c, 7, 70, 100
9, 97752, Note_on_c, 7, 70, 0
9, 97776, Note_on_c, 7, 72, 105
9, 97800, Note_on_c, 7, 72, 0
9, 97824, Note_on_c, 7, 74, 100
9, 97848, Note_on_c, 7, 74, 0
9, 97872, Note_on_c, 7, 75, 100
9, 97896, Note_on_c, 7, 75, 0
9, 97920, Note_on_c, 7, 77, 100
9, 97944, Note_on_c, 7, 77, 0
9, 98208, Control_c, 7, 1, 0
9, 98208, Control_c, 7, 11, 60
9, 98208, Note_on_c, 7, 67, 100
9, 98209, Control_c, 7, 1, 1
9, 98210, Control_c, 7, 1, 2
9, 98211, Control_c, 7, 1, 3
9, 98212, Control_c, 7, 1, 4
9, 98214, Control_c, 7, 1, 5
9, 98216, Control_c, 7, 1, 6
9, 98217, Control_c, 7, 1, 7
9, 98219, Control_c, 7, 1, 8
9, 98221, Control_c, 7, 1, 9
9, 98224, Control_c, 7, 1, 10
9, 98226, Control_c, 7, 1, 11
9, 98228, Control_c, 7, 11, 61
9, 98229, Control_c, 7, 1, 12
9, 98232, Control_c, 7, 1, 13
9, 98235, Control_c, 7, 1, 14
9, 98239, Control_c, 7, 1, 15
9, 98244, Control_c, 7, 1, 16
9, 98247, Control_c, 7, 11, 62
9, 98249, Control_c, 7, 1, 17
9, 98257, Control_c, 7, 1, 18
9, 98266, Control_c, 7, 11, 63
9, 98267, Control_c, 7, 1, 19
9, 98285, Control_c, 7, 11, 64
9, 98285, Control_c, 7, 1, 20
9, 98304, Control_c, 7, 11, 65
9, 98323, Control_c, 7, 11, 66
9, 98343, Control_c, 7, 11, 67
9, 98362, Control_c, 7, 11, 68
9, 98381, Control_c, 7, 11, 69
9, 98400, Control_c, 7, 11, 70
9, 98419, Control_c, 7, 11, 71
9, 98438, Control_c, 7, 11, 72
9, 98458, Control_c, 7, 11, 73
9, 98477, Control_c, 7, 11, 74
9, 98496, Note_on_c, 7, 69, 100
9, 98496, Control_c, 7, 11, 75
9, 98497, Note_on_c, 7, 67, 0
9, 98515, Control_c, 7, 11, 76
9, 98534, Control_c, 7, 11, 77
9, 98553, Control_c, 7, 11, 78
9, 98573, Control_c, 7, 11, 79
9, 98592, Control_c, 7, 11, 80
9, 98611, Control_c, 7, 11, 81
9, 98630, Control_c, 7, 11, 82
9, 98640, Note_on_c, 7, 70, 100
9, 98641, Note_on_c, 7, 69, 0
9, 98649, Control_c, 7, 11, 83
9, 98668, Control_c, 7, 11, 84
9, 98688, Control_c, 7, 11, 85
9, 98707, Control_c, 7, 11, 86
9, 98726, Control_c, 7, 11, 87
9, 98745, Control_c, 7, 11, 88
9, 98764, Control_c, 7, 11, 89
9, 98783, Control_c, 7, 11, 90
9, 98784, Control_c, 7, 11, 90
9, 98794, Control_c, 7, 11, 89
9, 98804, Control_c, 7, 11, 88
9, 98813, Control_c, 7, 11, 87
9, 98823, Control_c, 7, 11, 86
9, 98832, Control_c, 7, 11, 85
9, 98842, Control_c, 7, 11, 84
9, 98851, Control_c, 7, 11, 83
9, 98861, Control_c, 7, 11, 82
9, 98871, Control_c, 7, 11, 81
9, 98880, Control_c, 7, 11, 80
9, 98890, Control_c, 7, 11, 79
9, 98899, Control_c, 7, 11, 78
9, 98909, Control_c, 7, 11, 77
9, 98918, Control_c, 7, 11, 76
9, 98928, Note_on_c, 7, 69, 100
9, 98928, Control_c, 7, 11, 75
9, 98929, Note_on_c, 7, 70, 0
9, 98938, Control_c, 7, 11, 74
9, 98947, Control_c, 7, 11, 73
9, 98957, Control_c, 7, 11, 72
9, 98966, Control_c, 7, 11, 71
9, 98976, Control_c, 7, 11, 70
9, 98985, Control_c, 7, 11, 69
9, 98995, Control_c, 7, 11, 68
9, 99005, Control_c, 7, 11, 67
9, 99014, Control_c, 7, 11, 66
9, 99024, Control_c, 7, 11, 65
9, 99033, Control_c, 7, 11, 64
9, 99043, Control_c, 7, 11, 63
9, 99052, Control_c, 7, 11, 62
9, 99062, Control_c, 7, 11, 61
9, 99071, Control_c, 7, 11, 60
9, 99072, Note_on_c, 7, 69, 0
9, 99072, Note_on_c, 7, 70, 100
9, 99360, Control_c, 7, 1, 0
9, 99360, Control_c, 7, 11, 60
9, 99360, Note_on_c, 7, 69, 100
9, 99361, Note_on_c, 7, 70, 0
9, 99361, Control_c, 7, 1, 1
9, 99362, Control_c, 7, 1, 2
9, 99363, Control_c, 7, 1, 3
9, 99364, Control_c, 7, 1, 4
9, 99366, Control_c, 7, 1, 5
9, 99368, Control_c, 7, 1, 6
9, 99369, Control_c, 7, 1, 7
9, 99371, Control_c, 7, 1, 8
9, 99373, Control_c, 7, 1, 9
9, 99376, Control_c, 7, 1, 10
9, 99378, Control_c, 7, 11, 61
9, 99378, Control_c, 7, 1, 11
9, 99381, Control_c, 7, 1, 12
9, 99384, Control_c, 7, 1, 13
9, 99387, Control_c, 7, 1, 14
9, 99391, Control_c, 7, 1, 15
9, 99396, Control_c, 7, 11, 62
9, 99396, Control_c, 7, 1, 16
9, 99401, Control_c, 7, 1, 17
9, 99409, Control_c, 7, 1, 18
9, 99414, Control_c, 7, 11, 63
9, 99419, Control_c, 7, 1, 19
9, 99432, Control_c, 7, 11, 64
9, 99437, Control_c, 7, 1, 20
9, 99450, Control_c, 7, 11, 65
9, 99468, Control_c, 7, 11, 66
9, 99486, Control_c, 7, 11, 67
9, 99504, Control_c, 7, 11, 68
9, 99522, Control_c, 7, 11, 69
9, 99540, Control_c, 7, 11, 70
9, 99558, Control_c, 7, 11, 71
9, 99576, Control_c, 7, 11, 72
9, 99594, Control_c, 7, 11, 73
9, 99612, Control_c, 7, 11, 74
9, 99630, Control_c, 7, 11, 75
9, 99648, Note_on_c, 7, 71, 100
9, 99648, Control_c, 7, 11, 76
9, 99666, Control_c, 7, 11, 77
9, 99684, Control_c, 7, 11, 78
9, 99702, Control_c, 7, 11, 79
9, 99720, Control_c, 7, 11, 80
9, 99738, Control_c, 7, 11, 81
9, 99756, Control_c, 7, 11, 82
9, 99774, Control_c, 7, 11, 83
9, 99792, Note_on_c, 7, 67, 100
9, 99792, Control_c, 7, 11, 84
9, 99793, Note_on_c, 7, 69, 0
9, 99810, Control_c, 7, 11, 85
9, 99828, Control_c, 7, 11, 86
9, 99846, Control_c, 7, 11, 87
9, 99864, Control_c, 7, 11, 88
9, 99882, Control_c, 7, 11, 89
9, 99900, Control_c, 7, 11, 90
9, 99918, Control_c, 7, 11, 91
9, 99936, Note_on_c, 7, 70, 100
9, 99936, Control_c, 7, 11, 92
9, 99937, Note_on_c, 7, 71, 0
9, 99954, Control_c, 7, 11, 93
9, 99972, Control_c, 7, 11, 94
9, 99990, Control_c, 7, 11, 95
9, 100008, Control_c, 7, 11, 96
9, 100026, Control_c, 7, 11, 97
9, 100044, Control_c, 7, 11, 98
9, 100062, Control_c, 7, 11, 99
9, 100079, Control_c, 7, 11, 100
9, 100080, Control_c, 7, 11, 100
9, 100080, Note_on_c, 7, 66, 100
9, 100080, Note_on_c, 7, 69, 100
9, 100081, Note_on_c, 7, 70, 0
9, 100081, Note_on_c, 7, 67, 0
9, 100091, Control_c, 7, 11, 99
9, 100102, Control_c, 7, 11, 98
9, 100113, Control_c, 7, 11, 97
9, 100124, Control_c, 7, 11, 96
9, 100134, Control_c, 7, 11, 95
9, 100145, Control_c, 7, 11, 94
9, 100156, Control_c, 7, 11, 93
9, 100167, Control_c, 7, 11, 92
9, 100177, Control_c, 7, 11, 91
9, 100188, Control_c, 7, 11, 90
9, 100199, Control_c, 7, 11, 89
9, 100210, Control_c, 7, 11, 88
9, 100221, Control_c, 7, 11, 87
9, 100224, Note_on_c, 7, 65, 100
9, 100225, Note_on_c, 7, 66, 0
9, 100231, Control_c, 7, 11, 86
9, 100242, Control_c, 7, 11, 85
9, 100253, Control_c, 7, 11, 84
9, 100264, Control_c, 7, 11, 83
9, 100274, Control_c, 7, 11, 82
9, 100285, Control_c, 7, 11, 81
9, 100296, Control_c, 7, 11, 80
9, 100307, Control_c, 7, 11, 79
9, 100318, Control_c, 7, 11, 78
9, 100328, Control_c, 7, 11, 77
9, 100339, Control_c, 7, 11, 76
9, 100350, Control_c, 7, 11, 75
9, 100361, Control_c, 7, 11, 74
9, 100368, Note_on_c, 7, 64, 100
9, 100369, Note_on_c, 7, 65, 0
9, 100371, Control_c, 7, 11, 73
9, 100382, Control_c, 7, 11, 72
9, 100393, Control_c, 7, 11, 71
9, 100404, Control_c, 7, 11, 70
9, 100415, Control_c, 7, 11, 69
9, 100425, Control_c, 7, 11, 68
9, 100436, Control_c, 7, 11, 67
9, 100447, Control_c, 7, 11, 66
9, 100458, Control_c, 7, 11, 65
9, 100468, Control_c, 7, 11, 64
9, 100479, Control_c, 7, 11, 63
9, 100490, Control_c, 7, 11, 62
9, 100501, Control_c, 7, 11, 61
9, 100511, Control_c, 7, 11, 60
9, 100512, Note_on_c, 7, 69, 0
9, 100512, Note_on_c, 7, 64, 0
9, 101664, Control_c, 7, 1, 0
9, 101664, Control_c, 7, 11, 60
9, 101664, Note_on_c, 7, 69, 100
9, 101664, Note_on_c, 7, 81, 100
9, 101665, Control_c, 7, 1, 1
9, 101666, Control_c, 7, 1, 2
9, 101667, Control_c, 7, 1, 3
9, 101668, Control_c, 7, 1, 4
9, 101670, Control_c, 7, 1, 5
9, 101672, Control_c, 7, 1, 6
9, 101673, Control_c, 7, 1, 7
9, 101675, Control_c, 7, 1, 8
9, 101677, Control_c, 7, 1, 9
9, 101680, Control_c, 7, 1, 10
9, 101682, Control_c, 7, 1, 11
9, 101684, Control_c, 7, 11, 61
9, 101685, Control_c, 7, 1, 12
9, 101688, Control_c, 7, 1, 13
9, 101691, Control_c, 7, 1, 14
9, 101695, Control_c, 7, 1, 15
9, 101700, Control_c, 7, 1, 16
9, 101703, Control_c, 7, 11, 62
9, 101705, Control_c, 7, 1, 17
9, 101713, Control_c, 7, 1, 18
9, 101722, Control_c, 7, 11, 63
9, 101723, Control_c, 7, 1, 19
9, 101741, Control_c, 7, 11, 64
9, 101741, Control_c, 7, 1, 20
9, 101760, Control_c, 7, 11, 65
9, 101780, Control_c, 7, 11, 66
9, 101799, Control_c, 7, 11, 67
9, 101808, Note_on_c, 7, 71, 100
9, 101808, Note_on_c, 7, 83, 100
9, 101809, Note_on_c, 7, 81, 0
9, 101809, Note_on_c, 7, 69, 0
9, 101818, Control_c, 7, 11, 68
9, 101837, Control_c, 7, 11, 69
9, 101856, Control_c, 7, 11, 70
9, 101876, Control_c, 7, 11, 71
9, 101895, Control_c, 7, 11, 72
9, 101914, Control_c, 7, 11, 73
9, 101933, Control_c, 7, 11, 74
9, 101952, Control_c, 7, 11, 75
9, 101971, Control_c, 7, 11, 76
9, 101991, Control_c, 7, 11, 77
9, 102010, Control_c, 7, 11, 78
9, 102029, Control_c, 7, 11, 79
9, 102048, Control_c, 7, 11, 80
9, 102067, Control_c, 7, 11, 81
9, 102087, Control_c, 7, 11, 82
9, 102106, Control_c, 7, 11, 83
9, 102125, Control_c, 7, 11, 84
9, 102144, Control_c, 7, 11, 85
9, 102163, Control_c, 7, 11, 86
9, 102182, Control_c, 7, 11, 87
9, 102202, Control_c, 7, 11, 88
9, 102221, Control_c, 7, 11, 89
9, 102240, Note_on_c, 7, 69, 100
9, 102240, Note_on_c, 7, 81, 100
9, 102240, Control_c, 7, 11, 90
9, 102241, Note_on_c, 7, 83, 0
9, 102241, Note_on_c, 7, 71, 0
9, 102259, Control_c, 7, 11, 91
9, 102278, Control_c, 7, 11, 92
9, 102298, Control_c, 7, 11, 93
9, 102317, Control_c, 7, 11, 94
9, 102336, Control_c, 7, 11, 95
9, 102355, Control_c, 7, 11, 96
9, 102374, Control_c, 7, 11, 97
9, 102393, Control_c, 7, 11, 98
9, 102413, Control_c, 7, 11, 99
9, 102432, Control_c, 7, 11, 100
9, 102451, Control_c, 7, 11, 101
9, 102470, Control_c, 7, 11, 102
9, 102489, Control_c, 7, 11, 103
9, 102509, Control_c, 7, 11, 104
9, 102528, Control_c, 7, 11, 105
9, 102547, Control_c, 7, 11, 106
9, 102566, Control_c, 7, 11, 107
9, 102585, Control_c, 7, 11, 108
9, 102604, Control_c, 7, 11, 109
9, 102624, Control_c, 7, 11, 110
9, 102643, Control_c, 7, 11, 111
9, 102662, Control_c, 7, 11, 112
9, 102672, Note_on_c, 7, 67, 100
9, 102672, Note_on_c, 7, 79, 100
9, 102673, Note_on_c, 7, 81, 0
9, 102673, Note_on_c, 7, 69, 0
9, 102681, Control_c, 7, 11, 113
9, 102700, Control_c, 7, 11, 114
9, 102720, Control_c, 7, 11, 115
9, 102739, Control_c, 7, 11, 116
9, 102758, Control_c, 7, 11, 117
9, 102777, Control_c, 7, 11, 118
9, 102796, Control_c, 7, 11, 119
9, 102815, Control_c, 7, 11, 120
9, 102816, Note_on_c, 7, 79, 0
9, 102816, Note_on_c, 7, 67, 0
9, 102816, Control_c, 7, 1, 0
9, 102816, Note_on_c, 7, 66, 113
9, 102816, Note_on_c, 7, 78, 113
9, 102840, Note_on_c, 7, 78, 0
9, 102840, Note_on_c, 7, 66, 0
9, 102864, Note_on_c, 7, 62, 113
9, 102912, Note_on_c, 7, 62, 0
9, 102912, Note_on_c, 7, 64, 111
9, 102936, Note_on_c, 7, 64, 0
9, 102936, Note_on_c, 7, 66, 112
9, 102960, Note_on_c, 7, 66, 0
9, 102960, Note_on_c, 7, 67, 113
9, 102984, Note_on_c, 7, 67, 0
9, 103056, Note_on_c, 7, 66, 110
9, 103080, Note_on_c, 7, 66, 0
9, 103104, Note_on_c, 7, 64, 113
9, 103128, Note_on_c, 7, 64, 0
9, 103200, Note_on_c, 7, 62, 110
9, 103224, Note_on_c, 7, 62, 0
9, 103248, Note_on_c, 7, 64, 113
9, 103272, Note_on_c, 7, 64, 0
9, 103344, Note_on_c, 7, 61, 110
9, 103368, Note_on_c, 7, 61, 0
9, 103392, Note_on_c, 7, 62, 113
9, 103392, Note_on_c, 7, 66, 113
9, 103488, Note_on_c, 7, 66, 0
9, 103488, Note_on_c, 7, 62, 0
9, 103488, Note_on_c, 7, 64, 111
9, 103488, Note_on_c, 7, 67, 111
9, 103512, Note_on_c, 7, 67, 0
9, 103512, Note_on_c, 7, 64, 0
9, 103512, Note_on_c, 7, 66, 112
9, 103512, Note_on_c, 7, 69, 112
9, 103536, Note_on_c, 7, 69, 0
9, 103536, Note_on_c, 7, 66, 0
9, 103536, Note_on_c, 7, 67, 113
9, 103536, Note_on_c, 7, 71, 113
9, 103560, Note_on_c, 7, 71, 0
9, 103560, Note_on_c, 7, 67, 0
9, 103632, Note_on_c, 7, 66, 110
9, 103632, Note_on_c, 7, 69, 110
9, 103656, Note_on_c, 7, 69, 0
9, 103656, Note_on_c, 7, 66, 0
9, 103680, Note_on_c, 7, 64, 113
9, 103680, Note_on_c, 7, 67, 113
9, 103704, Note_on_c, 7, 67, 0
9, 103704, Note_on_c, 7, 64, 0
9, 103776, Note_on_c, 7, 62, 110
9, 103776, Note_on_c, 7, 66, 110
9, 103800, Note_on_c, 7, 66, 0
9, 103800, Note_on_c, 7, 62, 0
9, 103824, Note_on_c, 7, 64, 113
9, 103824, Note_on_c, 7, 67, 113
9, 103848, Note_on_c, 7, 67, 0
9, 103848, Note_on_c, 7, 64, 0
9, 103920, Note_on_c, 7, 61, 110
9, 103920, Note_on_c, 7, 64, 110
9, 103944, Note_on_c, 7, 64, 0
9, 103944, Note_on_c, 7, 61, 0
9, 103968, Note_on_c, 7, 62, 113
9, 103992, Note_on_c, 7, 62, 0
9, 104016, Note_on_c, 7, 62, 110
9, 104016, Note_on_c, 7, 74, 110
9, 104064, Note_on_c, 7, 74, 0
9, 104064, Note_on_c, 7, 62, 0
9, 104064, Note_on_c, 7, 64, 111
9, 104064, Note_on_c, 7, 76, 111
9, 104088, Note_on_c, 7, 76, 0
9, 104088, Note_on_c, 7, 64, 0
9, 104088, Note_on_c, 7, 65, 112
9, 104088, Note_on_c, 7, 77, 112
9, 104112, Note_on_c, 7, 77, 0
9, 104112, Note_on_c, 7, 65, 0
9, 104112, Note_on_c, 7, 67, 113
9, 104112, Note_on_c, 7, 79, 113
9, 104136, Note_on_c, 7, 79, 0
9, 104136, Note_on_c, 7, 67, 0
9, 104160, Note_on_c, 7, 67, 110
9, 104160, Note_on_c, 7, 79, 110
9, 104184, Note_on_c, 7, 79, 0
9, 104184, Note_on_c, 7, 67, 0
9, 104208, Note_on_c, 7, 65, 110
9, 104208, Note_on_c, 7, 77, 110
9, 104232, Note_on_c, 7, 77, 0
9, 104232, Note_on_c, 7, 65, 0
9, 104256, Note_on_c, 7, 64, 113
9, 104256, Note_on_c, 7, 76, 113
9, 104280, Note_on_c, 7, 76, 0
9, 104280, Note_on_c, 7, 64, 0
9, 104304, Note_on_c, 7, 64, 110
9, 104304, Note_on_c, 7, 76, 110
9, 104328, Note_on_c, 7, 76, 0
9, 104328, Note_on_c, 7, 64, 0
9, 104352, Note_on_c, 7, 62, 110
9, 104352, Note_on_c, 7, 74, 110
9, 104376, Note_on_c, 7, 74, 0
9, 104376, Note_on_c, 7, 62, 0
9, 104400, Note_on_c, 7, 64, 113
9, 104400, Note_on_c, 7, 76, 113
9, 104424, Note_on_c, 7, 76, 0
9, 104424, Note_on_c, 7, 64, 0
9, 104448, Note_on_c, 7, 64, 110
9, 104448, Note_on_c, 7, 76, 110
9, 104472, Note_on_c, 7, 76, 0
9, 104472, Note_on_c, 7, 64, 0
9, 104496, Note_on_c, 7, 61, 110
9, 104496, Note_on_c, 7, 73, 110
9, 104520, Note_on_c, 7, 73, 0
9, 104520, Note_on_c, 7, 61, 0
9, 104544, Note_on_c, 7, 65, 113
9, 104544, Note_on_c, 7, 77, 113
9, 104568, Note_on_c, 7, 77, 0
9, 104568, Note_on_c, 7, 65, 0
9, 104592, Note_on_c, 7, 62, 110
9, 104592, Note_on_c, 7, 65, 110
9, 104640, Note_on_c, 7, 65, 0
9, 104640, Note_on_c, 7, 62, 0
9, 104640, Note_on_c, 7, 64, 111
9, 104640, Note_on_c, 7, 67, 111
9, 104664, Note_on_c, 7, 67, 0
9, 104664, Note_on_c, 7, 64, 0
9, 104664, Note_on_c, 7, 65, 112
9, 104664, Note_on_c, 7, 69, 112
9, 104688, Note_on_c, 7, 69, 0
9, 104688, Note_on_c, 7, 65, 0
9, 104688, Note_on_c, 7, 67, 113
9, 104688, Note_on_c, 7, 70, 113
9, 104712, Note_on_c, 7, 70, 0
9, 104712, Note_on_c, 7, 67, 0
9, 104736, Note_on_c, 7, 67, 110
9, 104736, Note_on_c, 7, 70, 110
9, 104760, Note_on_c, 7, 70, 0
9, 104760, Note_on_c, 7, 67, 0
9, 104784, Note_on_c, 7, 65, 110
9, 104784, Note_on_c, 7, 69, 110
9, 104808, Note_on_c, 7, 69, 0
9, 104808, Note_on_c, 7, 65, 0
9, 104832, Note_on_c, 7, 64, 113
9, 104832, Note_on_c, 7, 67, 113
9, 104856, Note_on_c, 7, 67, 0
9, 104856, Note_on_c, 7, 64, 0
9, 104880, Note_on_c, 7, 64, 110
9, 104880, Note_on_c, 7, 67, 110
9, 104904, Note_on_c, 7, 67, 0
9, 104904, Note_on_c, 7, 64, 0
9, 104928, Note_on_c, 7, 62, 110
9, 104928, Note_on_c, 7, 65, 110
9, 104952, Note_on_c, 7, 65, 0
9, 104952, Note_on_c, 7, 62, 0
9, 104976, Note_on_c, 7, 64, 113
9, 104976, Note_on_c, 7, 67, 113
9, 105000, Note_on_c, 7, 67, 0
9, 105000, Note_on_c, 7, 64, 0
9, 105024, Note_on_c, 7, 64, 110
9, 105024, Note_on_c, 7, 67, 110
9, 105048, Note_on_c, 7, 67, 0
9, 105048, Note_on_c, 7, 64, 0
9, 105072, Note_on_c, 7, 61, 110
9, 105072, Note_on_c, 7, 64, 110
9, 105096, Note_on_c, 7, 64, 0
9, 105096, Note_on_c, 7, 61, 0
9, 105120, Note_on_c, 7, 53, 116
9, 105120, Note_on_c, 7, 65, 116
9, 105155, Note_on_c, 7, 65, 0
9, 105155, Note_on_c, 7, 53, 0
9, 105192, Note_on_c, 7, 53, 113
9, 105192, Note_on_c, 7, 65, 113
9, 105204, Note_on_c, 7, 65, 0
9, 105204, Note_on_c, 7, 53, 0
9, 105216, Note_on_c, 7, 53, 113
9, 105216, Note_on_c, 7, 65, 113
9, 105240, Note_on_c, 7, 65, 0
9, 105240, Note_on_c, 7, 53, 0
9, 105264, Note_on_c, 7, 53, 116
9, 105264, Note_on_c, 7, 65, 116
9, 105288, Note_on_c, 7, 65, 0
9, 105288, Note_on_c, 7, 53, 0
9, 105312, Note_on_c, 7, 55, 113
9, 105312, Note_on_c, 7, 67, 113
9, 105336, Note_on_c, 7, 67, 0
9, 105336, Note_on_c, 7, 55, 0
9, 105360, Note_on_c, 7, 57, 113
9, 105360, Note_on_c, 7, 69, 113
9, 105384, Note_on_c, 7, 69, 0
9, 105384, Note_on_c, 7, 57, 0
9, 105408, Note_on_c, 7, 58, 113
9, 105408, Note_on_c, 7, 70, 113
9, 105432, Note_on_c, 7, 70, 0
9, 105432, Note_on_c, 7, 58, 0
9, 105696, Note_on_c, 7, 64, 116
9, 105696, Note_on_c, 7, 76, 116
9, 105731, Note_on_c, 7, 76, 0
9, 105731, Note_on_c, 7, 64, 0
9, 105768, Note_on_c, 7, 52, 113
9, 105768, Note_on_c, 7, 64, 113
9, 105780, Note_on_c, 7, 64, 0
9, 105780, Note_on_c, 7, 52, 0
9, 105792, Note_on_c, 7, 52, 113
9, 105792, Note_on_c, 7, 64, 113
9, 105816, Note_on_c, 7, 64, 0
9, 105816, Note_on_c, 7, 52, 0
9, 105840, Note_on_c, 7, 64, 116
9, 105840, Note_on_c, 7, 76, 116
9, 105864, Note_on_c, 7, 76, 0
9, 105864, Note_on_c, 7, 64, 0
9, 105888, Note_on_c, 7, 65, 113
9, 105888, Note_on_c, 7, 77, 113
9, 105912, Note_on_c, 7, 77, 0
9, 105912, Note_on_c, 7, 65, 0
9, 105936, Note_on_c, 7, 67, 113
9, 105936, Note_on_c, 7, 79, 113
9, 105960, Note_on_c, 7, 79, 0
9, 105960, Note_on_c, 7, 67, 0
9, 105984, Note_on_c, 7, 69, 113
9, 105984, Note_on_c, 7, 81, 113
9, 106008, Note_on_c, 7, 81, 0
9, 106008, Note_on_c, 7, 69, 0
9, 106128, Note_on_c, 7, 69, 116
9, 106152, Note_on_c, 7, 69, 0
9, 106176, Note_on_c, 7, 74, 113
9, 106200, Note_on_c, 7, 74, 0
9, 106224, Note_on_c, 7, 76, 113
9, 106248, Note_on_c, 7, 76, 0
9, 106272, Note_on_c, 7, 74, 60
9, 106272, Note_on_c, 7, 78, 60
9, 106296, Note_on_c, 7, 78, 0
9, 106296, Note_on_c, 7, 74, 0
9, 106560, Note_on_c, 7, 62, 60
9, 106560, Note_on_c, 7, 74, 60
9, 106584, Note_on_c, 7, 74, 0
9, 106584, Note_on_c, 7, 62, 0
9, 107136, Control_c, 7, 1, 0
9, 107136, Control_c, 7, 11, 60
9, 107136, Note_on_c, 7, 58, 100
9, 107136, Note_on_c, 7, 67, 100
9, 107137, Control_c, 7, 1, 2
9, 107138, Control_c, 7, 1, 3
9, 107139, Control_c, 7, 1, 4
9, 107140, Control_c, 7, 1, 5
9, 107141, Control_c, 7, 1, 6
9, 107142, Control_c, 7, 1, 7
9, 107144, Control_c, 7, 1, 8
9, 107145, Control_c, 7, 1, 9
9, 107146, Control_c, 7, 11, 61
9, 107147, Control_c, 7, 1, 10
9, 107148, Control_c, 7, 1, 11
9, 107150, Control_c, 7, 1, 12
9, 107152, Control_c, 7, 1, 13
9, 107154, Control_c, 7, 1, 14
9, 107156, Control_c, 7, 11, 62
9, 107157, Control_c, 7, 1, 15
9, 107160, Control_c, 7, 1, 16
9, 107164, Control_c, 7, 1, 17
9, 107165, Control_c, 7, 11, 63
9, 107168, Control_c, 7, 1, 18
9, 107175, Control_c, 7, 11, 64
9, 107175, Control_c, 7, 1, 19
9, 107184, Note_on_c, 7, 67, 0
9, 107184, Note_on_c, 7, 65, 100
9, 107184, Control_c, 7, 11, 65
9, 107187, Control_c, 7, 1, 20
9, 107194, Control_c, 7, 11, 66
9, 107204, Control_c, 7, 11, 67
9, 107213, Control_c, 7, 11, 68
9, 107223, Control_c, 7, 11, 69
9, 107232, Note_on_c, 7, 65, 0
9, 107232, Note_on_c, 7, 63, 100
9, 107232, Control_c, 7, 11, 70
9, 107242, Control_c, 7, 11, 71
9, 107251, Control_c, 7, 11, 72
9, 107261, Control_c, 7, 11, 73
9, 107271, Control_c, 7, 11, 74
9, 107280, Note_on_c, 7, 63, 0
9, 107280, Note_on_c, 7, 75, 100
9, 107280, Control_c, 7, 11, 75
9, 107290, Control_c, 7, 11, 76
9, 107299, Control_c, 7, 11, 77
9, 107309, Control_c, 7, 11, 78
9, 107319, Control_c, 7, 11, 79
9, 107328, Note_on_c, 7, 75, 0
9, 107328, Note_on_c, 7, 77, 100
9, 107328, Control_c, 7, 11, 80
9, 107338, Control_c, 7, 11, 81
9, 107347, Control_c, 7, 11, 82
9, 107357, Control_c, 7, 11, 83
9, 107366, Control_c, 7, 11, 84
9, 107376, Note_on_c, 7, 77, 0
9, 107376, Note_on_c, 7, 79, 100
9, 107376, Control_c, 7, 11, 85
9, 107386, Control_c, 7, 11, 86
9, 107395, Control_c, 7, 11, 87
9, 107405, Control_c, 7, 11, 88
9, 107414, Control_c, 7, 11, 89
9, 107424, Note_on_c, 7, 79, 0
9, 107424, Note_on_c, 7, 58, 0
9, 107424, Note_on_c, 7, 70, 100
9, 107424, Note_on_c, 7, 76, 100
9, 107424, Control_c, 7, 11, 90
9, 107434, Control_c, 7, 11, 91
9, 107443, Control_c, 7, 11, 92
9, 107453, Control_c, 7, 11, 93
9, 107462, Control_c, 7, 11, 94
9, 107472, Note_on_c, 7, 76, 0
9, 107472, Note_on_c, 7, 70, 0
9, 107472, Note_on_c, 7, 69, 100
9, 107472, Note_on_c, 7, 77, 100
9, 107472, Control_c, 7, 11, 95
9, 107481, Control_c, 7, 11, 96
9, 107491, Control_c, 7, 11, 97
9, 107501, Control_c, 7, 11, 98
9, 107510, Control_c, 7, 11, 99
9, 107520, Note_on_c, 7, 77, 0
9, 107520, Note_on_c, 7, 69, 0
9, 107520, Note_on_c, 7, 70, 100
9, 107520, Note_on_c, 7, 79, 100
9, 107520, Control_c, 7, 11, 100
9, 107529, Control_c, 7, 11, 101
9, 107539, Control_c, 7, 11, 102
9, 107549, Control_c, 7, 11, 103
9, 107558, Control_c, 7, 11, 104
9, 107568, Note_on_c, 7, 79, 0
9, 107568, Note_on_c, 7, 70, 0
9, 107568, Note_on_c, 7, 64, 100
9, 107568, Note_on_c, 7, 67, 100
9, 107568, Control_c, 7, 11, 105
9, 107577, Control_c, 7, 11, 106
9, 107587, Control_c, 7, 11, 107
9, 107596, Control_c, 7, 11, 108
9, 107606, Control_c, 7, 11, 109
9, 107616, Note_on_c, 7, 67, 0
9, 107616, Note_on_c, 7, 64, 0
9, 107616, Note_on_c, 7, 62, 100
9, 107616, Note_on_c, 7, 65, 100
9, 107616, Control_c, 7, 11, 110
9, 107625, Control_c, 7, 11, 111
9, 107635, Control_c, 7, 11, 112
9, 107644, Control_c, 7, 11, 113
9, 107654, Control_c, 7, 11, 114
9, 107664, Note_on_c, 7, 65, 0
9, 107664, Note_on_c, 7, 62, 0
9, 107664, Note_on_c, 7, 61, 100
9, 107664, Note_on_c, 7, 64, 100
9, 107664, Control_c, 7, 11, 115
9, 107673, Control_c, 7, 11, 116
9, 107683, Control_c, 7, 11, 117
9, 107692, Control_c, 7, 11, 118
9, 107702, Control_c, 7, 11, 119
9, 107711, Control_c, 7, 11, 120
9, 107712, Note_on_c, 7, 64, 0
9, 107712, Note_on_c, 7, 61, 0
9, 107712, Control_c, 7, 1, 0
9, 107712, Note_on_c, 7, 57, 105
9, 107712, Note_on_c, 7, 62, 105
9, 107736, Note_on_c, 7, 62, 0
9, 107736, Note_on_c, 7, 57, 0
9, 107760, Note_on_c, 7, 62, 100
9, 107760, Note_on_c, 7, 65, 100
9, 107784, Note_on_c, 7, 65, 0
9, 107784, Note_on_c, 7, 62, 0
9, 107808, Note_on_c, 7, 58, 100
9, 107808, Note_on_c, 7, 70, 100
9, 107832, Note_on_c, 7, 70, 0
9, 107832, Note_on_c, 7, 58, 0
9, 107856, Note_on_c, 7, 55, 105
9, 107856, Note_on_c, 7, 67, 105
9, 107880, Note_on_c, 7, 67, 0
9, 107880, Note_on_c, 7, 55, 0
9, 107904, Note_on_c, 7, 64, 100
9, 107904, Note_on_c, 7, 76, 100
9, 107928, Note_on_c, 7, 76, 0
9, 107928, Note_on_c, 7, 64, 0
9, 107952, Note_on_c, 7, 64, 100
9, 107952, Note_on_c, 7, 73, 100
9, 107976, Note_on_c, 7, 73, 0
9, 107976, Note_on_c, 7, 64, 0
9, 108000, Note_on_c, 7, 65, 100
9, 108000, Note_on_c, 7, 74, 100
9, 108024, Note_on_c, 7, 74, 0
9, 108024, Note_on_c, 7, 65, 0
9, 108288, Note_on_c, 7, 65, 105
9, 108288, Note_on_c, 7, 69, 105
9, 108312, Note_on_c, 7, 69, 0
9, 108312, Note_on_c, 7, 65, 0
9, 108336, Note_on_c, 7, 62, 100
9, 108336, Note_on_c, 7, 74, 100
9, 108360, Note_on_c, 7, 74, 0
9, 108360, Note_on_c, 7, 62, 0
9, 108384, Note_on_c, 7, 58, 100
9, 108384, Note_on_c, 7, 70, 100
9, 108408, Note_on_c, 7, 70, 0
9, 108408, Note_on_c, 7, 58, 0
9, 108432, Note_on_c, 7, 55, 105
9, 108432, Note_on_c, 7, 67, 105
9, 108456, Note_on_c, 7, 67, 0
9, 108456, Note_on_c, 7, 55, 0
9, 108480, Note_on_c, 7, 64, 100
9, 108480, Note_on_c, 7, 76, 100
9, 108504, Note_on_c, 7, 76, 0
9, 108504, Note_on_c, 7, 64, 0
9, 108528, Note_on_c, 7, 64, 100
9, 108528, Note_on_c, 7, 73, 100
9, 108552, Note_on_c, 7, 73, 0
9, 108552, Note_on_c, 7, 64, 0
9, 108576, Note_on_c, 7, 65, 105
9, 108576, Note_on_c, 7, 74, 105
9, 108600, Note_on_c, 7, 74, 0
9, 108600, Note_on_c, 7, 65, 0
9, 108624, Note_on_c, 7, 69, 100
9, 108624, Note_on_c, 7, 81, 100
9, 108648, Note_on_c, 7, 81, 0
9, 108648, Note_on_c, 7, 69, 0
9, 108672, Note_on_c, 7, 69, 100
9, 108672, Note_on_c, 7, 81, 100
9, 108696, Note_on_c, 7, 81, 0
9, 108696, Note_on_c, 7, 69, 0
9, 108720, Note_on_c, 7, 69, 105
9, 108720, Note_on_c, 7, 81, 105
9, 108744, Note_on_c, 7, 81, 0
9, 108744, Note_on_c, 7, 69, 0
9, 108768, Note_on_c, 7, 69, 100
9, 108768, Note_on_c, 7, 81, 100
9, 108792, Note_on_c, 7, 81, 0
9, 108792, Note_on_c, 7, 69, 0
9, 108816, Note_on_c, 7, 69, 100
9, 108816, Note_on_c, 7, 81, 100
9, 108840, Note_on_c, 7, 81, 0
9, 108840, Note_on_c, 7, 69, 0
9, 108864, Note_on_c, 7, 65, 105
9, 108864, Note_on_c, 7, 74, 105
9, 108888, Note_on_c, 7, 74, 0
9, 108888, Note_on_c, 7, 65, 0
9, 108912, Note_on_c, 7, 62, 100
9, 108912, Note_on_c, 7, 65, 100
9, 108936, Note_on_c, 7, 65, 0
9, 108936, Note_on_c, 7, 62, 0
9, 108960, Note_on_c, 7, 65, 100
9, 108960, Note_on_c, 7, 69, 100
9, 108984, Note_on_c, 7, 69, 0
9, 108984, Note_on_c, 7, 65, 0
9, 109008, Note_on_c, 7, 64, 105
9, 109008, Note_on_c, 7, 67, 105
9, 109032, Note_on_c, 7, 67, 0
9, 109032, Note_on_c, 7, 64, 0
9, 109056, Note_on_c, 7, 69, 100
9, 109056, Note_on_c, 7, 76, 100
9, 109080, Note_on_c, 7, 76, 0
9, 109080, Note_on_c, 7, 69, 0
9, 109104, Note_on_c, 7, 76, 100
9, 109104, Note_on_c, 7, 81, 100
9, 109128, Note_on_c, 7, 81, 0
9, 109128, Note_on_c, 7, 76, 0
9, 109152, Note_on_c, 7, 74, 105
9, 109152, Note_on_c, 7, 77, 105
9, 109176, Note_on_c, 7, 77, 0
9, 109176, Note_on_c, 7, 74, 0
9, 109200, Note_on_c, 7, 62, 100
9, 109200, Note_on_c, 7, 65, 100
9, 109224, Note_on_c, 7, 65, 0
9, 109224, Note_on_c, 7, 62, 0
9, 109248, Note_on_c, 7, 65, 100
9, 109248, Note_on_c, 7, 69, 100
9, 109272, Note_on_c, 7, 69, 0
9, 109272, Note_on_c, 7, 65, 0
9, 109296, Note_on_c, 7, 64, 105
9, 109296, Note_on_c, 7, 67, 105
9, 109320, Note_on_c, 7, 67, 0
9, 109320, Note_on_c, 7, 64, 0
9, 109344, Note_on_c, 7, 69, 100
9, 109344, Note_on_c, 7, 76, 100
9, 109368, Note_on_c, 7, 76, 0
9, 109368, Note_on_c, 7, 69, 0
9, 109392, Note_on_c, 7, 76, 100
9, 109392, Note_on_c, 7, 81, 100
9, 109416, Note_on_c, 7, 81, 0
9, 109416, Note_on_c, 7, 76, 0
9, 109584, Control_c, 7, 1, 0
9, 109584, Note_on_c, 7, 67, 52
9, 109585, Control_c, 7, 1, 2
9, 109586, Control_c, 7, 1, 3
9, 109587, Control_c, 7, 1, 4
9, 109589, Control_c, 7, 1, 5
9, 109590, Control_c, 7, 1, 6
9, 109591, Control_c, 7, 1, 7
9, 109593, Control_c, 7, 1, 8
9, 109594, Control_c, 7, 1, 9
9, 109596, Control_c, 7, 1, 10
9, 109598, Control_c, 7, 1, 11
9, 109600, Control_c, 7, 1, 12
9, 109603, Control_c, 7, 1, 13
9, 109606, Control_c, 7, 1, 14
9, 109610, Control_c, 7, 1, 15
9, 109615, Control_c, 7, 1, 16
9, 109622, Control_c, 7, 1, 17
9, 109632, Note_on_c, 7, 67, 0
9, 109632, Note_on_c, 7, 73, 58
9, 109633, Control_c, 7, 1, 18
9, 109680, Note_on_c, 7, 73, 0
9, 109680, Note_on_c, 7, 76, 61
9, 109920, Note_on_c, 7, 76, 0
9, 109920, Note_on_c, 7, 67, 52
9, 109968, Note_on_c, 7, 67, 0
9, 109968, Note_on_c, 7, 64, 49
9, 110016, Note_on_c, 7, 64, 0
9, 110016, Control_c, 7, 1, 0
9, 110016, Note_on_c, 7, 62, 50
9, 110040, Note_on_c, 7, 62, 0
9, 110160, Note_on_c, 7, 65, 55
9, 110160, Note_on_c, 7, 74, 55
9, 110195, Note_on_c, 7, 74, 0
9, 110195, Note_on_c, 7, 65, 0
9, 110232, Note_on_c, 7, 62, 50
9, 110232, Note_on_c, 7, 65, 50
9, 110244, Note_on_c, 7, 65, 0
9, 110244, Note_on_c, 7, 62, 0
9, 110256, Note_on_c, 7, 62, 50
9, 110256, Note_on_c, 7, 65, 50
9, 110280, Note_on_c, 7, 65, 0
9, 110280, Note_on_c, 7, 62, 0
9, 110304, Note_on_c, 7, 62, 50
9, 110304, Note_on_c, 7, 65, 50
9, 110328, Note_on_c, 7, 65, 0
9, 110328, Note_on_c, 7, 62, 0
9, 110448, Note_on_c, 7, 62, 55
9, 110448, Note_on_c, 7, 65, 55
9, 110483, Note_on_c, 7, 65, 0
9, 110483, Note_on_c, 7, 62, 0
9, 110520, Note_on_c, 7, 62, 50
9, 110520, Note_on_c, 7, 65, 50
9, 110532, Note_on_c, 7, 65, 0
9, 110532, Note_on_c, 7, 62, 0
9, 110544, Note_on_c, 7, 62, 50
9, 110544, Note_on_c, 7, 65, 50
9, 110568, Note_on_c, 7, 65, 0
9, 110568, Note_on_c, 7, 62, 0
9, 110592, Note_on_c, 7, 62, 50
9, 110592, Note_on_c, 7, 65, 50
9, 110616, Note_on_c, 7, 65, 0
9, 110616, Note_on_c, 7, 62, 0
9, 111312, Note_on_c, 7, 65, 58
9, 111312, Note_on_c, 7, 69, 58
9, 111347, Note_on_c, 7, 69, 0
9, 111347, Note_on_c, 7, 65, 0
9, 111384, Note_on_c, 7, 65, 62
9, 111384, Note_on_c, 7, 69, 62
9, 111396, Note_on_c, 7, 69, 0
9, 111396, Note_on_c, 7, 65, 0
9, 111408, Note_on_c, 7, 65, 64
9, 111408, Note_on_c, 7, 69, 64
9, 111432, Note_on_c, 7, 69, 0
9, 111432, Note_on_c, 7, 65, 0
9, 111456, Note_on_c, 7, 65, 66
9, 111456, Note_on_c, 7, 69, 66
9, 111480, Note_on_c, 7, 69, 0
9, 111480, Note_on_c, 7, 65, 0
9, 111600, Note_on_c, 7, 65, 75
9, 111600, Note_on_c, 7, 69, 75
9, 111635, Note_on_c, 7, 69, 0
9, 111635, Note_on_c, 7, 65, 0
9, 111672, Note_on_c, 7, 65, 79
9, 111672, Note_on_c, 7, 69, 79
9, 111684, Note_on_c, 7, 69, 0
9, 111684, Note_on_c, 7, 65, 0
9, 111696, Note_on_c, 7, 65, 80
9, 111696, Note_on_c, 7, 69, 80
9, 111720, Note_on_c, 7, 69, 0
9, 111720, Note_on_c, 7, 65, 0
9, 111744, Note_on_c, 7, 65, 83
9, 111744, Note_on_c, 7, 70, 83
9, 111768, Note_on_c, 7, 70, 0
9, 111768, Note_on_c, 7, 65, 0
9, 111888, Note_on_c, 7, 67, 92
9, 111888, Note_on_c, 7, 70, 92
9, 111923, Note_on_c, 7, 70, 0
9, 111923, Note_on_c, 7, 67, 0
9, 111960, Note_on_c, 7, 67, 96
9, 111960, Note_on_c, 7, 70, 96
9, 111972, Note_on_c, 7, 70, 0
9, 111972, Note_on_c, 7, 67, 0
9, 111984, Note_on_c, 7, 67, 97
9, 111984, Note_on_c, 7, 70, 97
9, 112008, Note_on_c, 7, 70, 0
9, 112008, Note_on_c, 7, 67, 0
9, 112032, Note_on_c, 7, 62, 100
9, 112032, Note_on_c, 7, 67, 100
9, 112056, Note_on_c, 7, 67, 0
9, 112056, Note_on_c, 7, 62, 0
9, 112176, Note_on_c, 7, 61, 109
9, 112176, Note_on_c, 7, 64, 109
9, 112211, Note_on_c, 7, 64, 0
9, 112211, Note_on_c, 7, 61, 0
9, 112248, Note_on_c, 7, 61, 113
9, 112248, Note_on_c, 7, 64, 113
9, 112260, Note_on_c, 7, 64, 0
9, 112260, Note_on_c, 7, 61, 0
9, 112272, Control_c, 7, 1, 0
9, 112272, Note_on_c, 7, 61, 114
9, 112272, Note_on_c, 7, 64, 114
9, 112273, Control_c, 7, 1, 2
9, 112274, Control_c, 7, 1, 3
9, 112275, Control_c, 7, 1, 4
9, 112276, Control_c, 7, 1, 5
9, 112277, Control_c, 7, 1, 6
9, 112278, Control_c, 7, 1, 7
9, 112280, Control_c, 7, 1, 8
9, 112281, Control_c, 7, 1, 9
9, 112283, Control_c, 7, 1, 10
9, 112284, Control_c, 7, 1, 11
9, 112286, Control_c, 7, 1, 12
9, 112288, Control_c, 7, 1, 13
9, 112290, Control_c, 7, 1, 14
9, 112293, Control_c, 7, 1, 15
9, 112296, Control_c, 7, 1, 16
9, 112300, Control_c, 7, 1, 17
9, 112304, Control_c, 7, 1, 18
9, 112311, Control_c, 7, 1, 19
9, 112317, Note_on_c, 7, 64, 0
9, 112317, Note_on_c, 7, 61, 0
9, 112323, Control_c, 7, 1, 20
9, 112368, Control_c, 7, 1, 0
9, 112656, Note_on_c, 7, 74, 55
9, 112691, Note_on_c, 7, 74, 0
9, 112728, Note_on_c, 7, 62, 50
9, 112740, Note_on_c, 7, 62, 0
9, 112752, Note_on_c, 7, 62, 50
9, 112776, Note_on_c, 7, 62, 0
9, 112800, Note_on_c, 7, 67, 55
9, 112824, Note_on_c, 7, 67, 0
9, 112848, Note_on_c, 7, 69, 50
9, 112872, Note_on_c, 7, 69, 0
9, 112896, Note_on_c, 7, 70, 50
9, 112920, Note_on_c, 7, 70, 0
9, 113232, Note_on_c, 7, 74, 55
9, 113267, Note_on_c, 7, 74, 0
9, 113304, Note_on_c, 7, 62, 50
9, 113316, Note_on_c, 7, 62, 0
9, 113328, Note_on_c, 7, 62, 50
9, 113352, Note_on_c, 7, 62, 0
9, 113376, Note_on_c, 7, 67, 55
9, 113400, Note_on_c, 7, 67, 0
9, 113424, Note_on_c, 7, 69, 50
9, 113448, Note_on_c, 7, 69, 0
9, 113472, Note_on_c, 7, 70, 50
9, 113496, Note_on_c, 7, 70, 0
9, 113520, Note_on_c, 7, 69, 50
9, 113520, Note_on_c, 7, 81, 50
9, 113555, Note_on_c, 7, 81, 0
9, 113555, Note_on_c, 7, 69, 0
9, 113592, Note_on_c, 7, 57, 54
9, 113592, Note_on_c, 7, 69, 54
9, 113604, Note_on_c, 7, 69, 0
9, 113604, Note_on_c, 7, 57, 0
9, 113616, Note_on_c, 7, 57, 55
9, 113616, Note_on_c, 7, 69, 55
9, 113640, Note_on_c, 7, 69, 0
9, 113640, Note_on_c, 7, 57, 0
9, 113664, Note_on_c, 7, 62, 58
9, 113664, Note_on_c, 7, 74, 58
9, 113688, Note_on_c, 7, 74, 0
9, 113688, Note_on_c, 7, 62, 0
9, 113712, Note_on_c, 7, 64, 61
9, 113712, Note_on_c, 7, 76, 61
9, 113736, Note_on_c, 7, 76, 0
9, 113736, Note_on_c, 7, 64, 0
9, 113760, Note_on_c, 7, 65, 64
9, 113760, Note_on_c, 7, 77, 64
9, 113784, Note_on_c, 7, 77, 0
9, 113784, Note_on_c, 7, 65, 0
9, 113808, Note_on_c, 7, 69, 66
9, 113808, Note_on_c, 7, 81, 66
9, 113843, Note_on_c, 7, 81, 0
9, 113843, Note_on_c, 7, 69, 0
9, 113880, Note_on_c, 7, 57, 71
9, 113880, Note_on_c, 7, 69, 71
9, 113892, Note_on_c, 7, 69, 0
9, 113892, Note_on_c, 7, 57, 0
9, 113904, Note_on_c, 7, 57, 72
9, 113904, Note_on_c, 7, 69, 72
9, 113928, Note_on_c, 7, 69, 0
9, 113928, Note_on_c, 7, 57, 0
9, 113952, Note_on_c, 7, 62, 75
9, 113952, Note_on_c, 7, 74, 75
9, 113976, Note_on_c, 7, 74, 0
9, 113976, Note_on_c, 7, 62, 0
9, 114000, Note_on_c, 7, 64, 78
9, 114000, Note_on_c, 7, 76, 78
9, 114024, Note_on_c, 7, 76, 0
9, 114024, Note_on_c, 7, 64, 0
9, 114048, Note_on_c, 7, 65, 80
9, 114048, Note_on_c, 7, 77, 80
9, 114072, Note_on_c, 7, 77, 0
9, 114072, Note_on_c, 7, 65, 0
9, 114096, Note_on_c, 7, 69, 83
9, 114096, Note_on_c, 7, 81, 83
9, 114131, Note_on_c, 7, 81, 0
9, 114131, Note_on_c, 7, 69, 0
9, 114168, Note_on_c, 7, 57, 87
9, 114168, Note_on_c, 7, 69, 87
9, 114180, Note_on_c, 7, 69, 0
9, 114180, Note_on_c, 7, 57, 0
9, 114192, Note_on_c, 7, 57, 89
9, 114192, Note_on_c, 7, 69, 89
9, 114216, Note_on_c, 7, 69, 0
9, 114216, Note_on_c, 7, 57, 0
9, 114240, Note_on_c, 7, 62, 92
9, 114240, Note_on_c, 7, 74, 92
9, 114264, Note_on_c, 7, 74, 0
9, 114264, Note_on_c, 7, 62, 0
9, 114288, Note_on_c, 7, 64, 95
9, 114288, Note_on_c, 7, 76, 95
9, 114312, Note_on_c, 7, 76, 0
9, 114312, Note_on_c, 7, 64, 0
9, 114336, Note_on_c, 7, 65, 97
9, 114336, Note_on_c, 7, 77, 97
9, 114360, Note_on_c, 7, 77, 0
9, 114360, Note_on_c, 7, 65, 0
9, 114384, Note_on_c, 7, 69, 100
9, 114384, Note_on_c, 7, 81, 100
9, 114419, Note_on_c, 7, 81, 0
9, 114419, Note_on_c, 7, 69, 0
9, 114456, Note_on_c, 7, 57, 104
9, 114456, Note_on_c, 7, 69, 104
9, 114468, Note_on_c, 7, 69, 0
9, 114468, Note_on_c, 7, 57, 0
9, 114480, Note_on_c, 7, 57, 106
9, 114480, Note_on_c, 7, 69, 106
9, 114504, Note_on_c, 7, 69, 0
9, 114504, Note_on_c, 7, 57, 0
9, 114528, Note_on_c, 7, 62, 109
9, 114528, Note_on_c, 7, 74, 109
9, 114552, Note_on_c, 7, 74, 0
9, 114552, Note_on_c, 7, 62, 0
9, 114576, Note_on_c, 7, 64, 111
9, 114576, Note_on_c, 7, 76, 111
9, 114600, Note_on_c, 7, 76, 0
9, 114600, Note_on_c, 7, 64, 0
9, 114624, Note_on_c, 7, 65, 114
9, 114624, Note_on_c, 7, 77, 114
9, 114648, Note_on_c, 7, 77, 0
9, 114648, Note_on_c, 7, 65, 0
9, 114672, Note_on_c, 7, 81, 125
9, 114696, Note_on_c, 7, 81, 0
9, 114720, Note_on_c, 7, 69, 120
9, 114744, Note_on_c, 7, 69, 0
9, 114768, Note_on_c, 7, 74, 125
9, 114792, Note_on_c, 7, 74, 0
9, 114816, Note_on_c, 7, 62, 120
9, 114840, Note_on_c, 7, 62, 0
9, 114864, Note_on_c, 7, 69, 125
9, 114888, Note_on_c, 7, 69, 0
9, 114912, Note_on_c, 7, 57, 120
9, 114936, Note_on_c, 7, 57, 0
9, 114960, Note_on_c, 7, 69, 125
9, 114960, Note_on_c, 7, 81, 125
9, 114984, Note_on_c, 7, 81, 0
9, 114984, Note_on_c, 7, 69, 0
9, 115008, Note_on_c, 7, 57, 120
9, 115008, Note_on_c, 7, 69, 120
9, 115032, Note_on_c, 7, 69, 0
9, 115032, Note_on_c, 7, 57, 0
9, 115056, Control_c, 7, 1, 0
9, 115056, Control_c, 7, 11, 120
9, 115056, Note_on_c, 7, 74, 110
9, 115057, Control_c, 7, 1, 2
9, 115058, Control_c, 7, 1, 3
9, 115059, Control_c, 7, 1, 4
9, 115060, Control_c, 7, 11, 119
9, 115060, Control_c, 7, 1, 5
9, 115061, Control_c, 7, 1, 6
9, 115063, Control_c, 7, 11, 118
9, 115063, Control_c, 7, 1, 7
9, 115064, Control_c, 7, 1, 8
9, 115065, Control_c, 7, 1, 9
9, 115066, Control_c, 7, 11, 117
9, 115067, Control_c, 7, 1, 10
9, 115069, Control_c, 7, 11, 116
9, 115069, Control_c, 7, 1, 11
9, 115070, Control_c, 7, 1, 12
9, 115072, Control_c, 7, 11, 115
9, 115073, Control_c, 7, 1, 13
9, 115075, Control_c, 7, 1, 14
9, 115076, Control_c, 7, 11, 114
9, 115078, Control_c, 7, 1, 15
9, 115079, Control_c, 7, 11, 113
9, 115081, Control_c, 7, 1, 16
9, 115082, Control_c, 7, 11, 112
9, 115084, Control_c, 7, 1, 17
9, 115085, Control_c, 7, 11, 111
9, 115088, Control_c, 7, 11, 110
9, 115089, Control_c, 7, 1, 18
9, 115092, Control_c, 7, 11, 109
9, 115095, Control_c, 7, 11, 108
9, 115097, Control_c, 7, 1, 19
9, 115098, Control_c, 7, 11, 107
9, 115101, Control_c, 7, 11, 106
9, 115104, Control_c, 7, 11, 105
9, 115107, Control_c, 7, 11, 104
9, 115109, Control_c, 7, 1, 20
9, 115111, Control_c, 7, 11, 103
9, 115114, Control_c, 7, 11, 102
9, 115117, Control_c, 7, 11, 101
9, 115120, Control_c, 7, 11, 100
9, 115123, Control_c, 7, 11, 99
9, 115127, Control_c, 7, 11, 98
9, 115130, Control_c, 7, 11, 97
9, 115133, Control_c, 7, 11, 96
9, 115136, Control_c, 7, 11, 95
9, 115139, Control_c, 7, 11, 94
9, 115142, Control_c, 7, 11, 93
9, 115146, Control_c, 7, 11, 92
9, 115149, Control_c, 7, 11, 91
9, 115152, Control_c, 7, 11, 90
9, 115155, Control_c, 7, 11, 89
9, 115158, Control_c, 7, 11, 88
9, 115162, Control_c, 7, 11, 87
9, 115165, Control_c, 7, 11, 86
9, 115168, Control_c, 7, 11, 85
9, 115171, Control_c, 7, 11, 84
9, 115174, Control_c, 7, 11, 83
9, 115177, Control_c, 7, 11, 82
9, 115181, Control_c, 7, 11, 81
9, 115184, Control_c, 7, 11, 80
9, 115187, Control_c, 7, 11, 79
9, 115190, Control_c, 7, 11, 78
9, 115193, Control_c, 7, 11, 77
9, 115197, Control_c, 7, 11, 76
9, 115200, Control_c, 7, 11, 75
9, 115203, Control_c, 7, 11, 74
9, 115206, Control_c, 7, 11, 73
9, 115209, Control_c, 7, 11, 72
9, 115212, Control_c, 7, 11, 71
9, 115216, Control_c, 7, 11, 70
9, 115219, Control_c, 7, 11, 69
9, 115222, Control_c, 7, 11, 68
9, 115225, Control_c, 7, 11, 67
9, 115228, Control_c, 7, 11, 66
9, 115232, Control_c, 7, 11, 65
9, 115235, Control_c, 7, 11, 64
9, 115238, Control_c, 7, 11, 63
9, 115241, Control_c, 7, 11, 62
9, 115244, Control_c, 7, 11, 61
9, 115247, Control_c, 7, 11, 60
9, 115344, Note_on_c, 7, 76, 100
9, 115440, Note_on_c, 7, 76, 0
9, 115440, Note_on_c, 7, 74, 0
9, 115440, Control_c, 7, 11, 120
9, 115440, Control_c, 7, 1, 0
9, 115440, Note_on_c, 7, 74, 60
9, 115440, Note_on_c, 7, 78, 60
9, 115441, Control_c, 7, 1, 1
9, 115442, Control_c, 7, 1, 2
9, 115443, Control_c, 7, 1, 3
9, 115444, Control_c, 7, 1, 4
9, 115446, Control_c, 7, 1, 5
9, 115448, Control_c, 7, 1, 6
9, 115449, Control_c, 7, 1, 7
9, 115451, Control_c, 7, 1, 8
9, 115453, Control_c, 7, 1, 9
9, 115456, Control_c, 7, 1, 10
9, 115458, Control_c, 7, 1, 11
9, 115461, Control_c, 7, 1, 12
9, 115464, Control_c, 7, 1, 13
9, 115467, Control_c, 7, 1, 14
9, 115471, Control_c, 7, 1, 15
9, 115476, Control_c, 7, 1, 16
9, 115481, Control_c, 7, 1, 17
9, 115489, Control_c, 7, 1, 18
9, 115499, Control_c, 7, 1, 19
9, 115517, Control_c, 7, 1, 20
9, 115584, Note_on_c, 7, 78, 0
9, 115584, Note_on_c, 7, 74, 0
9, 115584, Note_on_c, 7, 76, 60
9, 115584, Note_on_c, 7, 79, 60
9, 115608, Note_on_c, 7, 79, 0
9, 115608, Note_on_c, 7, 76, 0
9, 115608, Note_on_c, 7, 78, 60
9, 115608, Note_on_c, 7, 81, 60
9, 115632, Note_on_c, 7, 81, 0
9, 115632, Note_on_c, 7, 78, 0
9, 115632, Control_c, 7, 1, 0
9, 115632, Note_on_c, 7, 74, 60
9, 115632, Note_on_c, 7, 79, 60
9, 115656, Note_on_c, 7, 79, 0
9, 115656, Note_on_c, 7, 74, 0
9, 115680, Note_on_c, 7, 76, 60
9, 115680, Note_on_c, 7, 79, 60
9, 115704, Note_on_c, 7, 79, 0
9, 115704, Note_on_c, 7, 76, 0
9, 115728, Note_on_c, 7, 74, 60
9, 115728, Note_on_c, 7, 78, 60
9, 115752, Note_on_c, 7, 78, 0
9, 115752, Note_on_c, 7, 74, 0
9, 115776, Note_on_c, 7, 62, 60
9, 115776, Note_on_c, 7, 78, 60
9, 115800, Note_on_c, 7, 78, 0
9, 115800, Note_on_c, 7, 62, 0
9, 115824, Note_on_c, 7, 76, 60
9, 115824, Note_on_c, 7, 73, 60
9, 115848, Note_on_c, 7, 73, 0
9, 115872, Note_on_c, 7, 69, 60
9, 115896, Note_on_c, 7, 69, 0
9, 115920, Note_on_c, 7, 76, 0
9, 115920, Control_c, 7, 1, 0
9, 115920, Note_on_c, 7, 74, 60
9, 115920, Note_on_c, 7, 66, 60
9, 115921, Control_c, 7, 1, 2
9, 115922, Control_c, 7, 1, 3
9, 115923, Control_c, 7, 1, 4
9, 115924, Control_c, 7, 1, 5
9, 115925, Control_c, 7, 1, 6
9, 115926, Control_c, 7, 1, 7
9, 115928, Control_c, 7, 1, 8
9, 115929, Control_c, 7, 1, 9
9, 115931, Control_c, 7, 1, 10
9, 115932, Control_c, 7, 1, 11
9, 115934, Control_c, 7, 1, 12
9, 115936, Control_c, 7, 1, 13
9, 115938, Control_c, 7, 1, 14
9, 115941, Control_c, 7, 1, 15
9, 115944, Note_on_c, 7, 66, 0
9, 115944, Control_c, 7, 1, 16
9, 115948, Control_c, 7, 1, 17
9, 115952, Control_c, 7, 1, 18
9, 115959, Control_c, 7, 1, 19
9, 115971, Control_c, 7, 1, 20
9, 116112, Note_on_c, 7, 76, 60
9, 116208, Note_on_c, 7, 76, 0
9, 116208, Note_on_c, 7, 74, 0
9, 116208, Control_c, 7, 1, 0
9, 116208, Note_on_c, 7, 74, 60
9, 116208, Note_on_c, 7, 78, 60
9, 116209, Control_c, 7, 1, 1
9, 116210, Control_c, 7, 1, 2
9, 116211, Control_c, 7, 1, 3
9, 116212, Control_c, 7, 1, 4
9, 116214, Control_c, 7, 1, 5
9, 116216, Control_c, 7, 1, 6
9, 116217, Control_c, 7, 1, 7
9, 116219, Control_c, 7, 1, 8
9, 116221, Control_c, 7, 1, 9
9, 116224, Control_c, 7, 1, 10
9, 116226, Control_c, 7, 1, 11
9, 116229, Control_c, 7, 1, 12
9, 116232, Control_c, 7, 1, 13
9, 116235, Control_c, 7, 1, 14
9, 116239, Control_c, 7, 1, 15
9, 116244, Control_c, 7, 1, 16
9, 116249, Control_c, 7, 1, 17
9, 116257, Control_c, 7, 1, 18
9, 116267, Control_c, 7, 1, 19
9, 116285, Control_c, 7, 1, 20
9, 116352, Note_on_c, 7, 78, 0
9, 116352, Note_on_c, 7, 74, 0
9, 116352, Note_on_c, 7, 76, 60
9, 116352, Note_on_c, 7, 79, 60
9, 116376, Note_on_c, 7, 79, 0
9, 116376, Note_on_c, 7, 76, 0
9, 116376, Note_on_c, 7, 78, 60
9, 116376, Note_on_c, 7, 81, 60
9, 116400, Note_on_c, 7, 81, 0
9, 116400, Note_on_c, 7, 78, 0
9, 116400, Control_c, 7, 1, 0
9, 116400, Note_on_c, 7, 74, 60
9, 116400, Note_on_c, 7, 79, 60
9, 116424, Note_on_c, 7, 79, 0
9, 116424, Note_on_c, 7, 74, 0
9, 116448, Note_on_c, 7, 76, 60
9, 116448, Note_on_c, 7, 79, 60
9, 116472, Note_on_c, 7, 79, 0
9, 116472, Note_on_c, 7, 76, 0
9, 116496, Note_on_c, 7, 62, 60
9, 116496, Note_on_c, 7, 78, 60
9, 116520, Note_on_c, 7, 78, 0
9, 116520, Note_on_c, 7, 62, 0
9, 116544, Note_on_c, 7, 74, 60
9, 116544, Note_on_c, 7, 78, 60
9, 116568, Note_on_c, 7, 78, 0
9, 116568, Note_on_c, 7, 74, 0
9, 116592, Note_on_c, 7, 73, 60
9, 116592, Note_on_c, 7, 76, 60
9, 116616, Note_on_c, 7, 76, 0
9, 116616, Note_on_c, 7, 73, 0
9, 116688, Note_on_c, 7, 74, 60
9, 116880, Note_on_c, 7, 76, 60
9, 116976, Note_on_c, 7, 76, 0
9, 116976, Note_on_c, 7, 74, 0
9, 116976, Control_c, 7, 1, 0
9, 116976, Note_on_c, 7, 74, 60
9, 116976, Note_on_c, 7, 78, 60
9, 116977, Control_c, 7, 1, 1
9, 116978, Control_c, 7, 1, 2
9, 116979, Control_c, 7, 1, 3
9, 116980, Control_c, 7, 1, 4
9, 116982, Control_c, 7, 1, 5
9, 116984, Control_c, 7, 1, 6
9, 116985, Control_c, 7, 1, 7
9, 116987, Control_c, 7, 1, 8
9, 116989, Control_c, 7, 1, 9
9, 116992, Control_c, 7, 1, 10
9, 116994, Control_c, 7, 1, 11
9, 116997, Control_c, 7, 1, 12
9, 117000, Control_c, 7, 1, 13
9, 117003, Control_c, 7, 1, 14
9, 117007, Control_c, 7, 1, 15
9, 117012, Control_c, 7, 1, 16
9, 117017, Control_c, 7, 1, 17
9, 117025, Control_c, 7, 1, 18
9, 117035, Control_c, 7, 1, 19
9, 117053, Control_c, 7, 1, 20
9, 117120, Note_on_c, 7, 78, 0
9, 117120, Note_on_c, 7, 74, 0
9, 117120, Note_on_c, 7, 76, 60
9, 117120, Note_on_c, 7, 79, 60
9, 117144, Note_on_c, 7, 79, 0
9, 117144, Note_on_c, 7, 76, 0
9, 117144, Note_on_c, 7, 78, 60
9, 117144, Note_on_c, 7, 81, 60
9, 117168, Note_on_c, 7, 81, 0
9, 117168, Note_on_c, 7, 78, 0
9, 117168, Control_c, 7, 1, 0
9, 117168, Note_on_c, 7, 74, 60
9, 117168, Note_on_c, 7, 79, 60
9, 117192, Note_on_c, 7, 79, 0
9, 117192, Note_on_c, 7, 74, 0
9, 117216, Note_on_c, 7, 76, 60
9, 117216, Note_on_c, 7, 79, 60
9, 117240, Note_on_c, 7, 79, 0
9, 117240, Note_on_c, 7, 76, 0
9, 117264, Note_on_c, 7, 74, 60
9, 117264, Note_on_c, 7, 78, 60
9, 117288, Note_on_c, 7, 78, 0
9, 117288, Note_on_c, 7, 74, 0
9, 117312, Note_on_c, 7, 62, 60
9, 117312, Note_on_c, 7, 78, 60
9, 117336, Note_on_c, 7, 78, 0
9, 117336, Note_on_c, 7, 62, 0
9, 117360, Note_on_c, 7, 76, 60
9, 117360, Note_on_c, 7, 73, 60
9, 117384, Note_on_c, 7, 73, 0
9, 117408, Note_on_c, 7, 69, 60
9, 117432, Note_on_c, 7, 69, 0
9, 117456, Note_on_c, 7, 76, 0
9, 117456, Control_c, 7, 1, 0
9, 117456, Note_on_c, 7, 74, 60
9, 117456, Note_on_c, 7, 66, 60
9, 117457, Control_c, 7, 1, 2
9, 117458, Control_c, 7, 1, 3
9, 117459, Control_c, 7, 1, 4
9, 117460, Control_c, 7, 1, 5
9, 117461, Control_c, 7, 1, 6
9, 117462, Control_c, 7, 1, 7
9, 117464, Control_c, 7, 1, 8
9, 117465, Control_c, 7, 1, 9
9, 117467, Control_c, 7, 1, 10
9, 117468, Control_c, 7, 1, 11
9, 117470, Control_c, 7, 1, 12
9, 117472, Control_c, 7, 1, 13
9, 117474, Control_c, 7, 1, 14
9, 117477, Control_c, 7, 1, 15
9, 117480, Note_on_c, 7, 66, 0
9, 117480, Control_c, 7, 1, 16
9, 117484, Control_c, 7, 1, 17
9, 117488, Control_c, 7, 1, 18
9, 117495, Control_c, 7, 1, 19
9, 117507, Control_c, 7, 1, 20
9, 117648, Note_on_c, 7, 76, 60
9, 117744, Note_on_c, 7, 76, 0
9, 117744, Note_on_c, 7, 74, 0
9, 117744, Control_c, 7, 1, 0
9, 117744, Note_on_c, 7, 74, 60
9, 117744, Note_on_c, 7, 78, 60
9, 117745, Control_c, 7, 1, 1
9, 117746, Control_c, 7, 1, 2
9, 117747, Control_c, 7, 1, 3
9, 117748, Control_c, 7, 1, 4
9, 117750, Control_c, 7, 1, 5
9, 117752, Control_c, 7, 1, 6
9, 117753, Control_c, 7, 1, 7
9, 117755, Control_c, 7, 1, 8
9, 117757, Control_c, 7, 1, 9
9, 117760, Control_c, 7, 1, 10
9, 117762, Control_c, 7, 1, 11
9, 117765, Control_c, 7, 1, 12
9, 117768, Control_c, 7, 1, 13
9, 117771, Control_c, 7, 1, 14
9, 117775, Control_c, 7, 1, 15
9, 117780, Control_c, 7, 1, 16
9, 117785, Control_c, 7, 1, 17
9, 117793, Control_c, 7, 1, 18
9, 117803, Control_c, 7, 1, 19
9, 117821, Control_c, 7, 1, 20
9, 117888, Note_on_c, 7, 78, 0
9, 117888, Note_on_c, 7, 74, 0
9, 117888, Note_on_c, 7, 76, 60
9, 117888, Note_on_c, 7, 79, 60
9, 117912, Note_on_c, 7, 79, 0
9, 117912, Note_on_c, 7, 76, 0
9, 117912, Note_on_c, 7, 78, 60
9, 117912, Note_on_c, 7, 81, 60
9, 117936, Note_on_c, 7, 81, 0
9, 117936, Note_on_c, 7, 78, 0
9, 117936, Control_c, 7, 1, 0
9, 117936, Note_on_c, 7, 74, 60
9, 117936, Note_on_c, 7, 79, 60
9, 117960, Note_on_c, 7, 79, 0
9, 117960, Note_on_c, 7, 74, 0
9, 117984, Note_on_c, 7, 76, 60
9, 117984, Note_on_c, 7, 79, 60
9, 118008, Note_on_c, 7, 79, 0
9, 118008, Note_on_c, 7, 76, 0
9, 118032, Note_on_c, 7, 62, 60
9, 118032, Note_on_c, 7, 78, 60
9, 118056, Note_on_c, 7, 78, 0
9, 118056, Note_on_c, 7, 62, 0
9, 118080, Note_on_c, 7, 74, 60
9, 118080, Note_on_c, 7, 78, 60
9, 118104, Note_on_c, 7, 78, 0
9, 118104, Note_on_c, 7, 74, 0
9, 118128, Note_on_c, 7, 73, 60
9, 118128, Note_on_c, 7, 76, 60
9, 118152, Note_on_c, 7, 76, 0
9, 118152, Note_on_c, 7, 73, 0
9, 119280, Control_c, 7, 1, 0
9, 119280, Control_c, 7, 11, 75
9, 119280, Note_on_c, 7, 69, 100
9, 119281, Control_c, 7, 1, 2
9, 119282, Control_c, 7, 1, 3
9, 119283, Control_c, 7, 1, 4
9, 119284, Control_c, 7, 1, 5
9, 119285, Control_c, 7, 1, 6
9, 119286, Control_c, 7, 1, 7
9, 119287, Control_c, 7, 11, 76
9, 119288, Control_c, 7, 1, 8
9, 119289, Control_c, 7, 1, 9
9, 119291, Control_c, 7, 1, 10
9, 119292, Control_c, 7, 1, 11
9, 119293, Control_c, 7, 11, 77
9, 119294, Control_c, 7, 1, 12
9, 119296, Control_c, 7, 1, 13
9, 119298, Control_c, 7, 1, 14
9, 119299, Control_c, 7, 11, 78
9, 119301, Control_c, 7, 1, 15
9, 119304, Control_c, 7, 1, 16
9, 119306, Control_c, 7, 11, 79
9, 119308, Control_c, 7, 1, 17
9, 119312, Control_c, 7, 11, 80
9, 119312, Control_c, 7, 1, 18
9, 119318, Control_c, 7, 11, 81
9, 119319, Control_c, 7, 1, 19
9, 119325, Control_c, 7, 11, 82
9, 119331, Control_c, 7, 11, 83
9, 119331, Control_c, 7, 1, 20
9, 119337, Control_c, 7, 11, 84
9, 119344, Control_c, 7, 11, 85
9, 119350, Control_c, 7, 11, 86
9, 119356, Control_c, 7, 11, 87
9, 119363, Control_c, 7, 11, 88
9, 119369, Control_c, 7, 11, 89
9, 119375, Control_c, 7, 11, 90
9, 119376, Note_on_c, 7, 69, 0
9, 119376, Control_c, 7, 11, 90
9, 119376, Note_on_c, 7, 67, 100
9, 119376, Note_on_c, 7, 71, 100
9, 119380, Control_c, 7, 11, 89
9, 119384, Control_c, 7, 11, 88
9, 119388, Control_c, 7, 11, 87
9, 119392, Control_c, 7, 11, 86
9, 119396, Control_c, 7, 11, 85
9, 119400, Control_c, 7, 11, 84
9, 119404, Control_c, 7, 11, 83
9, 119408, Control_c, 7, 11, 82
9, 119412, Control_c, 7, 11, 81
9, 119416, Control_c, 7, 11, 80
9, 119420, Control_c, 7, 11, 79
9, 119424, Note_on_c, 7, 71, 0
9, 119424, Note_on_c, 7, 67, 0
9, 119424, Note_on_c, 7, 64, 100
9, 119424, Note_on_c, 7, 67, 100
9, 119424, Control_c, 7, 11, 78
9, 119428, Control_c, 7, 11, 77
9, 119432, Control_c, 7, 11, 76
9, 119436, Control_c, 7, 11, 75
9, 119440, Control_c, 7, 11, 74
9, 119444, Control_c, 7, 11, 73
9, 119448, Control_c, 7, 11, 72
9, 119452, Control_c, 7, 11, 71
9, 119456, Control_c, 7, 11, 70
9, 119460, Control_c, 7, 11, 69
9, 119464, Control_c, 7, 11, 68
9, 119468, Control_c, 7, 11, 67
9, 119471, Control_c, 7, 11, 66
9, 119472, Note_on_c, 7, 67, 0
9, 119472, Note_on_c, 7, 64, 0
9, 119472, Control_c, 7, 11, 60
9, 119472, Control_c, 7, 1, 0
9, 119472, Note_on_c, 7, 62, 100
9, 119472, Note_on_c, 7, 66, 100
9, 119520, Note_on_c, 7, 66, 0
9, 119520, Note_on_c, 7, 62, 0
9, 119568, Note_on_c, 7, 61, 100
9, 119568, Note_on_c, 7, 64, 100
9, 119616, Note_on_c, 7, 64, 0
9, 119616, Note_on_c, 7, 61, 0
9, 119664, Note_on_c, 7, 62, 100
9, 119708, Note_on_c, 7, 62, 0
9, 119712, Control_c, 7, 1, 0
9, 119712, Note_on_c, 7, 78, 103
9, 119713, Control_c, 7, 1, 2
9, 119714, Control_c, 7, 1, 3
9, 119715, Control_c, 7, 1, 4
9, 119716, Control_c, 7, 1, 5
9, 119718, Control_c, 7, 1, 6
9, 119719, Control_c, 7, 1, 7
9, 119720, Control_c, 7, 1, 8
9, 119721, Control_c, 7, 1, 9
9, 119723, Control_c, 7, 1, 10
9, 119725, Control_c, 7, 1, 11
9, 119727, Control_c, 7, 1, 12
9, 119729, Control_c, 7, 1, 13
9, 119732, Control_c, 7, 1, 14
9, 119735, Control_c, 7, 1, 15
9, 119739, Control_c, 7, 1, 16
9, 119744, Control_c, 7, 1, 17
9, 119751, Control_c, 7, 1, 18
9, 119760, Note_on_c, 7, 78, 0
9, 119760, Note_on_c, 7, 74, 99
9, 119762, Control_c, 7, 1, 19
9, 119808, Note_on_c, 7, 74, 0
9, 119808, Note_on_c, 7, 73, 98
9, 119856, Note_on_c, 7, 73, 0
9, 119856, Note_on_c, 7, 74, 99
9, 119904, Note_on_c, 7, 74, 0
9, 119904, Note_on_c, 7, 76, 101
9, 119952, Note_on_c, 7, 76, 0
9, 119952, Note_on_c, 7, 78, 103
9, 120000, Note_on_c, 7, 78, 0
9, 120000, Note_on_c, 7, 79, 104
9, 120048, Note_on_c, 7, 79, 0
9, 120048, Note_on_c, 7, 76, 101
9, 120096, Note_on_c, 7, 76, 0
9, 120432, Control_c, 7, 1, 0
9, 120432, Control_c, 7, 11, 60
9, 120432, Note_on_c, 7, 69, 100
9, 120433, Control_c, 7, 1, 2
9, 120434, Control_c, 7, 1, 3
9, 120435, Control_c, 7, 1, 4
9, 120436, Control_c, 7, 1, 5
9, 120437, Control_c, 7, 1, 6
9, 120438, Control_c, 7, 1, 7
9, 120439, Control_c, 7, 1, 8
9, 120440, Control_c, 7, 1, 9
9, 120442, Control_c, 7, 1, 10
9, 120443, Control_c, 7, 1, 11
9, 120445, Control_c, 7, 1, 12
9, 120447, Control_c, 7, 1, 13
9, 120448, Control_c, 7, 11, 61
9, 120449, Control_c, 7, 1, 14
9, 120451, Control_c, 7, 1, 15
9, 120454, Control_c, 7, 1, 16
9, 120457, Control_c, 7, 1, 17
9, 120461, Control_c, 7, 1, 18
9, 120464, Control_c, 7, 11, 62
9, 120466, Control_c, 7, 1, 19
9, 120472, Control_c, 7, 1, 20
9, 120480, Control_c, 7, 11, 63
9, 120483, Control_c, 7, 1, 21
9, 120496, Control_c, 7, 11, 64
9, 120512, Control_c, 7, 11, 65
9, 120528, Control_c, 7, 11, 66
9, 120544, Control_c, 7, 11, 67
9, 120560, Control_c, 7, 11, 68
9, 120576, Control_c, 7, 11, 69
9, 120592, Control_c, 7, 11, 70
9, 120608, Control_c, 7, 11, 71
9, 120624, Control_c, 7, 11, 72
9, 120640, Control_c, 7, 11, 73
9, 120656, Control_c, 7, 11, 74
9, 120672, Control_c, 7, 11, 75
9, 120688, Control_c, 7, 11, 76
9, 120704, Control_c, 7, 11, 77
9, 120720, Control_c, 7, 11, 78
9, 120736, Control_c, 7, 11, 79
9, 120752, Control_c, 7, 11, 80
9, 120768, Control_c, 7, 11, 81
9, 120784, Control_c, 7, 11, 82
9, 120800, Control_c, 7, 11, 83
9, 120816, Control_c, 7, 11, 84
9, 120832, Control_c, 7, 11, 85
9, 120848, Control_c, 7, 11, 86
9, 120864, Control_c, 7, 11, 87
9, 120880, Control_c, 7, 11, 88
9, 120896, Control_c, 7, 11, 89
9, 120911, Control_c, 7, 11, 90
9, 120912, Note_on_c, 7, 69, 0
9, 120912, Control_c, 7, 11, 90
9, 120912, Note_on_c, 7, 71, 100
9, 120917, Control_c, 7, 11, 89
9, 120921, Control_c, 7, 11, 88
9, 120925, Control_c, 7, 11, 87
9, 120929, Control_c, 7, 11, 86
9, 120933, Control_c, 7, 11, 85
9, 120937, Control_c, 7, 11, 84
9, 120941, Control_c, 7, 11, 83
9, 120946, Control_c, 7, 11, 82
9, 120950, Control_c, 7, 11, 81
9, 120954, Control_c, 7, 11, 80
9, 120958, Control_c, 7, 11, 79
9, 120960, Note_on_c, 7, 71, 0
9, 120960, Note_on_c, 7, 67, 100
9, 120962, Control_c, 7, 11, 78
9, 120966, Control_c, 7, 11, 77
9, 120970, Control_c, 7, 11, 76
9, 120974, Control_c, 7, 11, 75
9, 120979, Control_c, 7, 11, 74
9, 120983, Control_c, 7, 11, 73
9, 120987, Control_c, 7, 11, 72
9, 120991, Control_c, 7, 11, 71
9, 120995, Control_c, 7, 11, 70
9, 120999, Control_c, 7, 11, 69
9, 121003, Control_c, 7, 11, 68
9, 121007, Control_c, 7, 11, 67
9, 121008, Note_on_c, 7, 67, 0
9, 121008, Control_c, 7, 11, 60
9, 121008, Control_c, 7, 1, 0
9, 121008, Note_on_c, 7, 66, 100
9, 121056, Note_on_c, 7, 66, 0
9, 121104, Note_on_c, 7, 64, 100
9, 121152, Note_on_c, 7, 64, 0
9, 126288, Control_c, 7, 11, 60
9, 126288, Control_c, 7, 1, 0
9, 126288, Note_on_c, 7, 73, 120
9, 126289, Control_c, 7, 1, 1
9, 126290, Control_c, 7, 1, 2
9, 126291, Control_c, 7, 1, 3
9, 126294, Control_c, 7, 1, 4
9, 126296, Control_c, 7, 1, 5
9, 126299, Control_c, 7, 1, 6
9, 126301, Control_c, 7, 1, 7
9, 126304, Control_c, 7, 1, 8
9, 126306, Control_c, 7, 1, 9
9, 126310, Control_c, 7, 1, 10
9, 126314, Control_c, 7, 1, 11
9, 126318, Control_c, 7, 1, 12
9, 126322, Control_c, 7, 1, 13
9, 126328, Control_c, 7, 1, 14
9, 126334, Control_c, 7, 1, 15
9, 126341, Control_c, 7, 1, 16
9, 126351, Control_c, 7, 1, 17
9, 126365, Control_c, 7, 1, 18
9, 126388, Control_c, 7, 1, 19
9, 126456, Note_on_c, 7, 73, 0
9, 126480, Control_c, 7, 1, 0
9, 126480, Note_on_c, 7, 74, 120
9, 126481, Control_c, 7, 1, 1
9, 126482, Control_c, 7, 1, 2
9, 126483, Control_c, 7, 1, 3
9, 126485, Control_c, 7, 1, 4
9, 126486, Control_c, 7, 1, 5
9, 126489, Control_c, 7, 1, 6
9, 126491, Control_c, 7, 1, 7
9, 126493, Control_c, 7, 1, 8
9, 126496, Control_c, 7, 1, 9
9, 126501, Control_c, 7, 1, 10
9, 126505, Control_c, 7, 1, 11
9, 126512, Control_c, 7, 1, 12
9, 126524, Control_c, 7, 1, 13
9, 126576, Note_on_c, 7, 74, 0
9, 126576, Control_c, 7, 11, 60
9, 126576, Control_c, 7, 1, 0
9, 126576, Note_on_c, 7, 76, 120
9, 126619, Control_c, 7, 11, 61
9, 126648, Note_on_c, 7, 76, 0
9, 126661, Control_c, 7, 11, 62
9, 126672, Control_c, 7, 1, 0
9, 126672, Note_on_c, 7, 76, 120
9, 126673, Control_c, 7, 1, 2
9, 126674, Control_c, 7, 1, 3
9, 126675, Control_c, 7, 1, 4
9, 126677, Control_c, 7, 1, 5
9, 126678, Control_c, 7, 1, 6
9, 126679, Control_c, 7, 1, 7
9, 126681, Control_c, 7, 1, 8
9, 126682, Control_c, 7, 1, 9
9, 126684, Control_c, 7, 1, 10
9, 126686, Control_c, 7, 1, 11
9, 126688, Control_c, 7, 1, 12
9, 126691, Control_c, 7, 1, 13
9, 126694, Control_c, 7, 1, 14
9, 126698, Control_c, 7, 1, 15
9, 126703, Control_c, 7, 11, 63
9, 126703, Control_c, 7, 1, 16
9, 126710, Control_c, 7, 1, 17
9, 126721, Control_c, 7, 1, 18
9, 126745, Control_c, 7, 11, 64
9, 126787, Control_c, 7, 11, 65
9, 126830, Control_c, 7, 11, 66
9, 126860, Note_on_c, 7, 76, 0
9, 126864, Control_c, 7, 1, 0
9, 126864, Note_on_c, 7, 76, 120
9, 126865, Control_c, 7, 1, 2
9, 126866, Control_c, 7, 1, 3
9, 126867, Control_c, 7, 1, 4
9, 126868, Control_c, 7, 1, 5
9, 126869, Control_c, 7, 1, 6
9, 126871, Control_c, 7, 1, 7
9, 126872, Control_c, 7, 11, 67
9, 126872, Control_c, 7, 1, 8
9, 126874, Control_c, 7, 1, 9
9, 126876, Control_c, 7, 1, 10
9, 126878, Control_c, 7, 1, 11
9, 126880, Control_c, 7, 1, 12
9, 126882, Control_c, 7, 1, 13
9, 126885, Control_c, 7, 1, 14
9, 126889, Control_c, 7, 1, 15
9, 126894, Control_c, 7, 1, 16
9, 126900, Control_c, 7, 1, 17
9, 126911, Control_c, 7, 1, 18
9, 126914, Control_c, 7, 11, 68
9, 126956, Control_c, 7, 11, 69
9, 126998, Control_c, 7, 11, 70
9, 127041, Control_c, 7, 11, 71
9, 127052, Note_on_c, 7, 76, 0
9, 127056, Control_c, 7, 1, 0
9, 127056, Note_on_c, 7, 76, 120
9, 127057, Control_c, 7, 1, 2
9, 127058, Control_c, 7, 1, 3
9, 127059, Control_c, 7, 1, 4
9, 127061, Control_c, 7, 1, 5
9, 127062, Control_c, 7, 1, 6
9, 127063, Control_c, 7, 1, 7
9, 127065, Control_c, 7, 1, 8
9, 127066, Control_c, 7, 1, 9
9, 127068, Control_c, 7, 1, 10
9, 127070, Control_c, 7, 1, 11
9, 127072, Control_c, 7, 1, 12
9, 127075, Control_c, 7, 1, 13
9, 127078, Control_c, 7, 1, 14
9, 127082, Control_c, 7, 1, 15
9, 127083, Control_c, 7, 11, 72
9, 127087, Control_c, 7, 1, 16
9, 127094, Control_c, 7, 1, 17
9, 127105, Control_c, 7, 1, 18
9, 127125, Control_c, 7, 11, 73
9, 127167, Control_c, 7, 11, 74
9, 127209, Control_c, 7, 11, 75
9, 127244, Note_on_c, 7, 76, 0
9, 127248, Control_c, 7, 1, 0
9, 127248, Note_on_c, 7, 76, 120
9, 127249, Control_c, 7, 1, 2
9, 127250, Control_c, 7, 1, 3
9, 127251, Control_c, 7, 1, 4
9, 127252, Control_c, 7, 11, 76
9, 127252, Control_c, 7, 1, 5
9, 127253, Control_c, 7, 1, 6
9, 127255, Control_c, 7, 1, 7
9, 127256, Control_c, 7, 1, 8
9, 127257, Control_c, 7, 1, 9
9, 127259, Control_c, 7, 1, 10
9, 127261, Control_c, 7, 1, 11
9, 127263, Control_c, 7, 1, 12
9, 127265, Control_c, 7, 1, 13
9, 127268, Control_c, 7, 1, 14
9, 127272, Control_c, 7, 1, 15
9, 127276, Control_c, 7, 1, 16
9, 127282, Control_c, 7, 1, 17
9, 127293, Control_c, 7, 1, 18
9, 127294, Control_c, 7, 11, 77
9, 127336, Control_c, 7, 11, 78
9, 127378, Control_c, 7, 11, 79
9, 127420, Control_c, 7, 11, 80
9, 127436, Note_on_c, 7, 76, 0
9, 127440, Control_c, 7, 1, 0
9, 127440, Note_on_c, 7, 76, 120
9, 127441, Control_c, 7, 1, 2
9, 127443, Control_c, 7, 1, 3
9, 127444, Control_c, 7, 1, 4
9, 127445, Control_c, 7, 1, 5
9, 127446, Control_c, 7, 1, 6
9, 127448, Control_c, 7, 1, 7
9, 127450, Control_c, 7, 1, 8
9, 127451, Control_c, 7, 1, 9
9, 127454, Control_c, 7, 1, 10
9, 127456, Control_c, 7, 1, 11
9, 127458, Control_c, 7, 1, 12
9, 127461, Control_c, 7, 1, 13
9, 127463, Control_c, 7, 11, 81
9, 127465, Control_c, 7, 1, 14
9, 127469, Control_c, 7, 1, 15
9, 127474, Control_c, 7, 1, 16
9, 127482, Control_c, 7, 1, 17
9, 127494, Control_c, 7, 1, 18
9, 127505, Control_c, 7, 11, 82
9, 127547, Control_c, 7, 11, 83
9, 127589, Control_c, 7, 11, 84
9, 127628, Note_on_c, 7, 76, 0
9, 127631, Control_c, 7, 11, 85
9, 127632, Control_c, 7, 1, 0
9, 127632, Note_on_c, 7, 76, 120
9, 127633, Control_c, 7, 1, 1
9, 127634, Control_c, 7, 1, 2
9, 127636, Control_c, 7, 1, 3
9, 127638, Control_c, 7, 1, 4
9, 127641, Control_c, 7, 1, 5
9, 127643, Control_c, 7, 1, 6
9, 127646, Control_c, 7, 1, 7
9, 127649, Control_c, 7, 1, 8
9, 127652, Control_c, 7, 1, 9
9, 127656, Control_c, 7, 1, 10
9, 127660, Control_c, 7, 1, 11
9, 127665, Control_c, 7, 1, 12
9, 127670, Control_c, 7, 1, 13
9, 127676, Control_c, 7, 1, 14
9, 127684, Control_c, 7, 1, 15
9, 127694, Control_c, 7, 1, 16
9, 127707, Control_c, 7, 1, 17
9, 127729, Control_c, 7, 1, 18
9, 127824, Note_on_c, 7, 76, 0
9, 127824, Note_on_c, 7, 67, 120
9, 127920, Note_on_c, 7, 69, 120
9, 127921, Note_on_c, 7, 67, 0
9, 128016, Note_on_c, 7, 69, 0
9, 128016, Control_c, 7, 11, 60
9, 128016, Note_on_c, 7, 67, 120
9, 128028, Control_c, 7, 11, 61
9, 128039, Control_c, 7, 11, 62
9, 128051, Control_c, 7, 11, 63
9, 128062, Control_c, 7, 11, 64
9, 128074, Control_c, 7, 11, 65
9, 128085, Control_c, 7, 11, 66
9, 128097, Control_c, 7, 11, 67
9, 128108, Control_c, 7, 11, 68
9, 128112, Note_on_c, 7, 64, 120
9, 128120, Control_c, 7, 11, 69
9, 128131, Control_c, 7, 11, 70
9, 128143, Control_c, 7, 11, 71
9, 128154, Control_c, 7, 11, 72
9, 128160, Note_on_c, 7, 67, 0
9, 128160, Note_on_c, 7, 64, 0
9, 128160, Note_on_c, 7, 67, 120
9, 128160, Note_on_c, 7, 76, 120
9, 128166, Control_c, 7, 11, 73
9, 128177, Control_c, 7, 11, 74
9, 128189, Control_c, 7, 11, 75
9, 128200, Control_c, 7, 11, 76
9, 128212, Control_c, 7, 11, 77
9, 128223, Control_c, 7, 11, 78
9, 128235, Control_c, 7, 11, 79
9, 128246, Control_c, 7, 11, 80
9, 128256, Note_on_c, 7, 76, 0
9, 128256, Note_on_c, 7, 67, 0
9, 128256, Note_on_c, 7, 66, 120
9, 128256, Note_on_c, 7, 74, 120
9, 128258, Control_c, 7, 11, 81
9, 128269, Control_c, 7, 11, 82
9, 128281, Control_c, 7, 11, 83
9, 128292, Control_c, 7, 11, 84
9, 128303, Control_c, 7, 11, 85
9, 128304, Note_on_c, 7, 74, 0
9, 128304, Note_on_c, 7, 66, 0
9, 128304, Note_on_c, 7, 66, 120
9, 128304, Note_on_c, 7, 74, 120
9, 128328, Note_on_c, 7, 74, 0
9, 128328, Note_on_c, 7, 66, 0
9, 129840, Control_c, 7, 11, 95
9, 129936, Control_c, 7, 1, 0
9, 129936, Note_on_c, 7, 62, 120
9, 129936, Note_on_c, 7, 74, 120
9, 129937, Control_c, 7, 1, 1
9, 129938, Control_c, 7, 1, 2
9, 129939, Control_c, 7, 1, 3
9, 129941, Control_c, 7, 1, 4
9, 129943, Control_c, 7, 1, 5
9, 129945, Control_c, 7, 1, 6
9, 129948, Control_c, 7, 1, 7
9, 129950, Control_c, 7, 1, 8
9, 129952, Control_c, 7, 1, 9
9, 129955, Control_c, 7, 1, 10
9, 129958, Control_c, 7, 1, 11
9, 129962, Control_c, 7, 1, 12
9, 129965, Control_c, 7, 1, 13
9, 129969, Control_c, 7, 1, 14
9, 129974, Control_c, 7, 1, 15
9, 129979, Control_c, 7, 1, 16
9, 129986, Control_c, 7, 1, 17
9, 129993, Control_c, 7, 1, 18
9, 130003, Control_c, 7, 1, 19
9, 130016, Control_c, 7, 1, 20
9, 130039, Control_c, 7, 1, 21
9, 130124, Note_on_c, 7, 74, 0
9, 130124, Note_on_c, 7, 62, 0
9, 130128, Note_on_c, 7, 64, 120
9, 130128, Note_on_c, 7, 76, 120
9, 130220, Note_on_c, 7, 76, 0
9, 130220, Note_on_c, 7, 64, 0
9, 130224, Note_on_c, 7, 66, 120
9, 130224, Note_on_c, 7, 78, 120
9, 130368, Note_on_c, 7, 78, 0
9, 130368, Note_on_c, 7, 66, 0
9, 130368, Note_on_c, 7, 67, 120
9, 130368, Note_on_c, 7, 79, 120
9, 130392, Note_on_c, 7, 79, 0
9, 130392, Note_on_c, 7, 67, 0
9, 130392, Note_on_c, 7, 69, 120
9, 130392, Note_on_c, 7, 81, 120
9, 130416, Note_on_c, 7, 81, 0
9, 130416, Note_on_c, 7, 69, 0
9, 130416, Control_c, 7, 1, 0
9, 130416, Note_on_c, 7, 67, 120
9, 130416, Note_on_c, 7, 79, 120
9, 130440, Note_on_c, 7, 79, 0
9, 130440, Note_on_c, 7, 67, 0
9, 130464, Note_on_c, 7, 67, 120
9, 130464, Note_on_c, 7, 79, 120
9, 130488, Note_on_c, 7, 79, 0
9, 130488, Note_on_c, 7, 67, 0
9, 130512, Note_on_c, 7, 66, 120
9, 130512, Note_on_c, 7, 78, 120
9, 130536, Note_on_c, 7, 78, 0
9, 130536, Note_on_c, 7, 66, 0
9, 130560, Note_on_c, 7, 66, 120
9, 130560, Note_on_c, 7, 78, 120
9, 130584, Note_on_c, 7, 78, 0
9, 130584, Note_on_c, 7, 66, 0
9, 130608, Control_c, 7, 1, 0
9, 130608, Note_on_c, 7, 64, 120
9, 130608, Note_on_c, 7, 76, 120
9, 130609, Control_c, 7, 1, 2
9, 130611, Control_c, 7, 1, 3
9, 130612, Control_c, 7, 1, 4
9, 130613, Control_c, 7, 1, 5
9, 130615, Control_c, 7, 1, 6
9, 130616, Control_c, 7, 1, 7
9, 130618, Control_c, 7, 1, 8
9, 130620, Control_c, 7, 1, 9
9, 130623, Control_c, 7, 1, 10
9, 130625, Control_c, 7, 1, 11
9, 130628, Control_c, 7, 1, 12
9, 130632, Control_c, 7, 1, 13
9, 130637, Control_c, 7, 1, 14
9, 130644, Control_c, 7, 1, 15
9, 130656, Control_c, 7, 1, 16
9, 130700, Note_on_c, 7, 76, 0
9, 130700, Note_on_c, 7, 64, 0
9, 130704, Control_c, 7, 1, 0
9, 130704, Note_on_c, 7, 62, 120
9, 130704, Note_on_c, 7, 74, 120
9, 130705, Control_c, 7, 1, 2
9, 130707, Control_c, 7, 1, 3
9, 130708, Control_c, 7, 1, 4
9, 130709, Control_c, 7, 1, 5
9, 130711, Control_c, 7, 1, 6
9, 130712, Control_c, 7, 1, 7
9, 130714, Control_c, 7, 1, 8
9, 130716, Control_c, 7, 1, 9
9, 130719, Control_c, 7, 1, 10
9, 130721, Control_c, 7, 1, 11
9, 130724, Control_c, 7, 1, 12
9, 130728, Control_c, 7, 1, 13
9, 130733, Control_c, 7, 1, 14
9, 130740, Control_c, 7, 1, 15
9, 130752, Control_c, 7, 1, 16
9, 130892, Note_on_c, 7, 74, 0
9, 130892, Note_on_c, 7, 62, 0
9, 130896, Note_on_c, 7, 64, 120
9, 130896, Note_on_c, 7, 76, 120
9, 130988, Note_on_c, 7, 76, 0
9, 130988, Note_on_c, 7, 64, 0
9, 130992, Note_on_c, 7, 66, 120
9, 130992, Note_on_c, 7, 78, 120
9, 131136, Note_on_c, 7, 78, 0
9, 131136, Note_on_c, 7, 66, 0
9, 131136, Note_on_c, 7, 67, 120
9, 131136, Note_on_c, 7, 79, 120
9, 131160, Note_on_c, 7, 79, 0
9, 131160, Note_on_c, 7, 67, 0
9, 131160, Note_on_c, 7, 69, 120
9, 131160, Note_on_c, 7, 81, 120
9, 131184, Note_on_c, 7, 81, 0
9, 131184, Note_on_c, 7, 69, 0
9, 131184, Control_c, 7, 1, 0
9, 131184, Note_on_c, 7, 67, 120
9, 131184, Note_on_c, 7, 79, 120
9, 131208, Note_on_c, 7, 79, 0
9, 131208, Note_on_c, 7, 67, 0
9, 131232, Note_on_c, 7, 67, 120
9, 131232, Note_on_c, 7, 79, 120
9, 131256, Note_on_c, 7, 79, 0
9, 131256, Note_on_c, 7, 67, 0
9, 131280, Note_on_c, 7, 66, 120
9, 131280, Note_on_c, 7, 78, 120
9, 131304, Note_on_c, 7, 78, 0
9, 131304, Note_on_c, 7, 66, 0
9, 131328, Note_on_c, 7, 66, 120
9, 131328, Note_on_c, 7, 78, 120
9, 131352, Note_on_c, 7, 78, 0
9, 131352, Note_on_c, 7, 66, 0
9, 131376, Note_on_c, 7, 62, 120
9, 131376, Note_on_c, 7, 74, 120
9, 131400, Note_on_c, 7, 74, 0
9, 131400, Note_on_c, 7, 62, 0
9, 132528, Control_c, 7, 1, 0
9, 132528, Control_c, 7, 11, 75
9, 132528, Note_on_c, 7, 69, 100
9, 132529, Control_c, 7, 1, 2
9, 132530, Control_c, 7, 1, 3
9, 132531, Control_c, 7, 1, 4
9, 132532, Control_c, 7, 1, 5
9, 132533, Control_c, 7, 1, 6
9, 132534, Control_c, 7, 1, 7
9, 132535, Control_c, 7, 11, 76
9, 132536, Control_c, 7, 1, 8
9, 132537, Control_c, 7, 1, 9
9, 132539, Control_c, 7, 1, 10
9, 132540, Control_c, 7, 1, 11
9, 132541, Control_c, 7, 11, 77
9, 132542, Control_c, 7, 1, 12
9, 132544, Control_c, 7, 1, 13
9, 132546, Control_c, 7, 1, 14
9, 132547, Control_c, 7, 11, 78
9, 132549, Control_c, 7, 1, 15
9, 132552, Control_c, 7, 1, 16
9, 132554, Control_c, 7, 11, 79
9, 132556, Control_c, 7, 1, 17
9, 132560, Control_c, 7, 11, 80
9, 132560, Control_c, 7, 1, 18
9, 132566, Control_c, 7, 11, 81
9, 132567, Control_c, 7, 1, 19
9, 132573, Control_c, 7, 11, 82
9, 132579, Control_c, 7, 11, 83
9, 132579, Control_c, 7, 1, 20
9, 132585, Control_c, 7, 11, 84
9, 132592, Control_c, 7, 11, 85
9, 132598, Control_c, 7, 11, 86
9, 132604, Control_c, 7, 11, 87
9, 132611, Control_c, 7, 11, 88
9, 132617, Control_c, 7, 11, 89
9, 132623, Control_c, 7, 11, 90
9, 132624, Note_on_c, 7, 69, 0
9, 132624, Control_c, 7, 11, 90
9, 132624, Note_on_c, 7, 67, 100
9, 132624, Note_on_c, 7, 71, 100
9, 132628, Control_c, 7, 11, 89
9, 132632, Control_c, 7, 11, 88
9, 132636, Control_c, 7, 11, 87
9, 132640, Control_c, 7, 11, 86
9, 132644, Control_c, 7, 11, 85
9, 132648, Control_c, 7, 11, 84
9, 132652, Control_c, 7, 11, 83
9, 132656, Control_c, 7, 11, 82
9, 132660, Control_c, 7, 11, 81
9, 132664, Control_c, 7, 11, 80
9, 132668, Control_c, 7, 11, 79
9, 132672, Note_on_c, 7, 71, 0
9, 132672, Note_on_c, 7, 67, 0
9, 132672, Note_on_c, 7, 64, 100
9, 132672, Note_on_c, 7, 67, 100
9, 132672, Control_c, 7, 11, 78
9, 132676, Control_c, 7, 11, 77
9, 132680, Control_c, 7, 11, 76
9, 132684, Control_c, 7, 11, 75
9, 132688, Control_c, 7, 11, 74
9, 132692, Control_c, 7, 11, 73
9, 132696, Control_c, 7, 11, 72
9, 132700, Control_c, 7, 11, 71
9, 132704, Control_c, 7, 11, 70
9, 132708, Control_c, 7, 11, 69
9, 132712, Control_c, 7, 11, 68
9, 132716, Control_c, 7, 11, 67
9, 132719, Control_c, 7, 11, 66
9, 132720, Note_on_c, 7, 67, 0
9, 132720, Note_on_c, 7, 64, 0
9, 132720, Control_c, 7, 11, 60
9, 132720, Control_c, 7, 1, 0
9, 132720, Note_on_c, 7, 62, 100
9, 132720, Note_on_c, 7, 66, 100
9, 132768, Note_on_c, 7, 66, 0
9, 132768, Note_on_c, 7, 62, 0
9, 132816, Note_on_c, 7, 61, 100
9, 132816, Note_on_c, 7, 64, 100
9, 132864, Note_on_c, 7, 64, 0
9, 132864, Note_on_c, 7, 61, 0
9, 132912, Note_on_c, 7, 62, 100
9, 132956, Note_on_c, 7, 62, 0
9, 132960, Control_c, 7, 1, 0
9, 132960, Note_on_c, 7, 78, 103
9, 132961, Control_c, 7, 1, 2
9, 132962, Control_c, 7, 1, 3
9, 132963, Control_c, 7, 1, 4
9, 132964, Control_c, 7, 1, 5
9, 132966, Control_c, 7, 1, 6
9, 132967, Control_c, 7, 1, 7
9, 132968, Control_c, 7, 1, 8
9, 132969, Control_c, 7, 1, 9
9, 132971, Control_c, 7, 1, 10
9, 132973, Control_c, 7, 1, 11
9, 132975, Control_c, 7, 1, 12
9, 132977, Control_c, 7, 1, 13
9, 132980, Control_c, 7, 1, 14
9, 132983, Control_c, 7, 1, 15
9, 132987, Control_c, 7, 1, 16
9, 132992, Control_c, 7, 1, 17
9, 132999, Control_c, 7, 1, 18
9, 133008, Note_on_c, 7, 78, 0
9, 133008, Note_on_c, 7, 74, 99
9, 133010, Control_c, 7, 1, 19
9, 133056, Note_on_c, 7, 74, 0
9, 133056, Note_on_c, 7, 73, 98
9, 133104, Note_on_c, 7, 73, 0
9, 133104, Note_on_c, 7, 74, 99
9, 133152, Note_on_c, 7, 74, 0
9, 133152, Note_on_c, 7, 76, 101
9, 133200, Note_on_c, 7, 76, 0
9, 133200, Note_on_c, 7, 78, 103
9, 133248, Note_on_c, 7, 78, 0
9, 133248, Note_on_c, 7, 79, 104
9, 133296, Note_on_c, 7, 79, 0
9, 133296, Note_on_c, 7, 76, 101
9, 133344, Note_on_c, 7, 76, 0
9, 133680, Control_c, 7, 1, 0
9, 133680, Control_c, 7, 11, 60
9, 133680, Note_on_c, 7, 69, 100
9, 133681, Control_c, 7, 1, 2
9, 133682, Control_c, 7, 1, 3
9, 133683, Control_c, 7, 1, 4
9, 133684, Control_c, 7, 1, 5
9, 133685, Control_c, 7, 1, 6
9, 133686, Control_c, 7, 1, 7
9, 133687, Control_c, 7, 1, 8
9, 133688, Control_c, 7, 1, 9
9, 133690, Control_c, 7, 1, 10
9, 133691, Control_c, 7, 1, 11
9, 133693, Control_c, 7, 1, 12
9, 133695, Control_c, 7, 1, 13
9, 133696, Control_c, 7, 11, 61
9, 133697, Control_c, 7, 1, 14
9, 133699, Control_c, 7, 1, 15
9, 133702, Control_c, 7, 1, 16
9, 133705, Control_c, 7, 1, 17
9, 133709, Control_c, 7, 1, 18
9, 133712, Control_c, 7, 11, 62
9, 133714, Control_c, 7, 1, 19
9, 133720, Control_c, 7, 1, 20
9, 133728, Control_c, 7, 11, 63
9, 133731, Control_c, 7, 1, 21
9, 133744, Control_c, 7, 11, 64
9, 133760, Control_c, 7, 11, 65
9, 133776, Control_c, 7, 11, 66
9, 133792, Control_c, 7, 11, 67
9, 133808, Control_c, 7, 11, 68
9, 133824, Control_c, 7, 11, 69
9, 133840, Control_c, 7, 11, 70
9, 133856, Control_c, 7, 11, 71
9, 133872, Control_c, 7, 11, 72
9, 133888, Control_c, 7, 11, 73
9, 133904, Control_c, 7, 11, 74
9, 133920, Control_c, 7, 11, 75
9, 133936, Control_c, 7, 11, 76
9, 133952, Control_c, 7, 11, 77
9, 133968, Control_c, 7, 11, 78
9, 133984, Control_c, 7, 11, 79
9, 134000, Control_c, 7, 11, 80
9, 134016, Control_c, 7, 11, 81
9, 134032, Control_c, 7, 11, 82
9, 134048, Control_c, 7, 11, 83
9, 134064, Control_c, 7, 11, 84
9, 134080, Control_c, 7, 11, 85
9, 134096, Control_c, 7, 11, 86
9, 134112, Control_c, 7, 11, 87
9, 134128, Control_c, 7, 11, 88
9, 134144, Control_c, 7, 11, 89
9, 134159, Control_c, 7, 11, 90
9, 134160, Note_on_c, 7, 69, 0
9, 134160, Control_c, 7, 11, 90
9, 134160, Note_on_c, 7, 71, 100
9, 134165, Control_c, 7, 11, 89
9, 134169, Control_c, 7, 11, 88
9, 134173, Control_c, 7, 11, 87
9, 134177, Control_c, 7, 11, 86
9, 134181, Control_c, 7, 11, 85
9, 134185, Control_c, 7, 11, 84
9, 134189, Control_c, 7, 11, 83
9, 134194, Control_c, 7, 11, 82
9, 134198, Control_c, 7, 11, 81
9, 134202, Control_c, 7, 11, 80
9, 134206, Control_c, 7, 11, 79
9, 134208, Note_on_c, 7, 71, 0
9, 134208, Note_on_c, 7, 67, 100
9, 134210, Control_c, 7, 11, 78
9, 134214, Control_c, 7, 11, 77
9, 134218, Control_c, 7, 11, 76
9, 134222, Control_c, 7, 11, 75
9, 134227, Control_c, 7, 11, 74
9, 134231, Control_c, 7, 11, 73
9, 134235, Control_c, 7, 11, 72
9, 134239, Control_c, 7, 11, 71
9, 134243, Control_c, 7, 11, 70
9, 134247, Control_c, 7, 11, 69
9, 134251, Control_c, 7, 11, 68
9, 134255, Control_c, 7, 11, 67
9, 134256, Note_on_c, 7, 67, 0
9, 134256, Control_c, 7, 11, 60
9, 134256, Control_c, 7, 1, 0
9, 134256, Note_on_c, 7, 66, 100
9, 134304, Note_on_c, 7, 66, 0
9, 134352, Note_on_c, 7, 64, 100
9, 134400, Note_on_c, 7, 64, 0
9, 139536, Control_c, 7, 11, 60
9, 139536, Control_c, 7, 1, 0
9, 139536, Note_on_c, 7, 73, 120
9, 139537, Control_c, 7, 1, 1
9, 139538, Control_c, 7, 1, 2
9, 139539, Control_c, 7, 1, 3
9, 139542, Control_c, 7, 1, 4
9, 139544, Control_c, 7, 1, 5
9, 139547, Control_c, 7, 1, 6
9, 139549, Control_c, 7, 1, 7
9, 139552, Control_c, 7, 1, 8
9, 139554, Control_c, 7, 1, 9
9, 139558, Control_c, 7, 1, 10
9, 139562, Control_c, 7, 1, 11
9, 139566, Control_c, 7, 1, 12
9, 139570, Control_c, 7, 1, 13
9, 139576, Control_c, 7, 1, 14
9, 139582, Control_c, 7, 1, 15
9, 139589, Control_c, 7, 1, 16
9, 139599, Control_c, 7, 1, 17
9, 139613, Control_c, 7, 1, 18
9, 139636, Control_c, 7, 1, 19
9, 139704, Note_on_c, 7, 73, 0
9, 139728, Control_c, 7, 1, 0
9, 139728, Note_on_c, 7, 74, 120
9, 139729, Control_c, 7, 1, 1
9, 139730, Control_c, 7, 1, 2
9, 139731, Control_c, 7, 1, 3
9, 139733, Control_c, 7, 1, 4
9, 139734, Control_c, 7, 1, 5
9, 139737, Control_c, 7, 1, 6
9, 139739, Control_c, 7, 1, 7
9, 139741, Control_c, 7, 1, 8
9, 139744, Control_c, 7, 1, 9
9, 139749, Control_c, 7, 1, 10
9, 139753, Control_c, 7, 1, 11
9, 139760, Control_c, 7, 1, 12
9, 139772, Control_c, 7, 1, 13
9, 139824, Note_on_c, 7, 74, 0
9, 139824, Control_c, 7, 11, 60
9, 139824, Control_c, 7, 1, 0
9, 139824, Note_on_c, 7, 76, 120
9, 139867, Control_c, 7, 11, 61
9, 139896, Note_on_c, 7, 76, 0
9, 139909, Control_c, 7, 11, 62
9, 139920, Control_c, 7, 1, 0
9, 139920, Note_on_c, 7, 76, 120
9, 139921, Control_c, 7, 1, 2
9, 139922, Control_c, 7, 1, 3
9, 139923, Control_c, 7, 1, 4
9, 139925, Control_c, 7, 1, 5
9, 139926, Control_c, 7, 1, 6
9, 139927, Control_c, 7, 1, 7
9, 139929, Control_c, 7, 1, 8
9, 139930, Control_c, 7, 1, 9
9, 139932, Control_c, 7, 1, 10
9, 139934, Control_c, 7, 1, 11
9, 139936, Control_c, 7, 1, 12
9, 139939, Control_c, 7, 1, 13
9, 139942, Control_c, 7, 1, 14
9, 139946, Control_c, 7, 1, 15
9, 139951, Control_c, 7, 11, 63
9, 139951, Control_c, 7, 1, 16
9, 139958, Control_c, 7, 1, 17
9, 139969, Control_c, 7, 1, 18
9, 139993, Control_c, 7, 11, 64
9, 140035, Control_c, 7, 11, 65
9, 140078, Control_c, 7, 11, 66
9, 140108, Note_on_c, 7, 76, 0
9, 140112, Control_c, 7, 1, 0
9, 140112, Note_on_c, 7, 76, 120
9, 140113, Control_c, 7, 1, 2
9, 140114, Control_c, 7, 1, 3
9, 140115, Control_c, 7, 1, 4
9, 140116, Control_c, 7, 1, 5
9, 140117, Control_c, 7, 1, 6
9, 140119, Control_c, 7, 1, 7
9, 140120, Control_c, 7, 11, 67
9, 140120, Control_c, 7, 1, 8
9, 140122, Control_c, 7, 1, 9
9, 140124, Control_c, 7, 1, 10
9, 140126, Control_c, 7, 1, 11
9, 140128, Control_c, 7, 1, 12
9, 140130, Control_c, 7, 1, 13
9, 140133, Control_c, 7, 1, 14
9, 140137, Control_c, 7, 1, 15
9, 140142, Control_c, 7, 1, 16
9, 140148, Control_c, 7, 1, 17
9, 140159, Control_c, 7, 1, 18
9, 140162, Control_c, 7, 11, 68
9, 140204, Control_c, 7, 11, 69
9, 140246, Control_c, 7, 11, 70
9, 140289, Control_c, 7, 11, 71
9, 140300, Note_on_c, 7, 76, 0
9, 140304, Control_c, 7, 1, 0
9, 140304, Note_on_c, 7, 76, 120
9, 140305, Control_c, 7, 1, 2
9, 140306, Control_c, 7, 1, 3
9, 140307, Control_c, 7, 1, 4
9, 140309, Control_c, 7, 1, 5
9, 140310, Control_c, 7, 1, 6
9, 140311, Control_c, 7, 1, 7
9, 140313, Control_c, 7, 1, 8
9, 140314, Control_c, 7, 1, 9
9, 140316, Control_c, 7, 1, 10
9, 140318, Control_c, 7, 1, 11
9, 140320, Control_c, 7, 1, 12
9, 140323, Control_c, 7, 1, 13
9, 140326, Control_c, 7, 1, 14
9, 140330, Control_c, 7, 1, 15
9, 140331, Control_c, 7, 11, 72
9, 140335, Control_c, 7, 1, 16
9, 140342, Control_c, 7, 1, 17
9, 140353, Control_c, 7, 1, 18
9, 140373, Control_c, 7, 11, 73
9, 140415, Control_c, 7, 11, 74
9, 140457, Control_c, 7, 11, 75
9, 140492, Note_on_c, 7, 76, 0
9, 140496, Control_c, 7, 1, 0
9, 140496, Note_on_c, 7, 76, 120
9, 140497, Control_c, 7, 1, 2
9, 140498, Control_c, 7, 1, 3
9, 140499, Control_c, 7, 1, 4
9, 140500, Control_c, 7, 11, 76
9, 140500, Control_c, 7, 1, 5
9, 140501, Control_c, 7, 1, 6
9, 140503, Control_c, 7, 1, 7
9, 140504, Control_c, 7, 1, 8
9, 140505, Control_c, 7, 1, 9
9, 140507, Control_c, 7, 1, 10
9, 140509, Control_c, 7, 1, 11
9, 140511, Control_c, 7, 1, 12
9, 140513, Control_c, 7, 1, 13
9, 140516, Control_c, 7, 1, 14
9, 140520, Control_c, 7, 1, 15
9, 140524, Control_c, 7, 1, 16
9, 140530, Control_c, 7, 1, 17
9, 140541, Control_c, 7, 1, 18
9, 140542, Control_c, 7, 11, 77
9, 140584, Control_c, 7, 11, 78
9, 140626, Control_c, 7, 11, 79
9, 140668, Control_c, 7, 11, 80
9, 140684, Note_on_c, 7, 76, 0
9, 140688, Control_c, 7, 1, 0
9, 140688, Note_on_c, 7, 76, 120
9, 140689, Control_c, 7, 1, 2
9, 140691, Control_c, 7, 1, 3
9, 140692, Control_c, 7, 1, 4
9, 140693, Control_c, 7, 1, 5
9, 140694, Control_c, 7, 1, 6
9, 140696, Control_c, 7, 1, 7
9, 140698, Control_c, 7, 1, 8
9, 140699, Control_c, 7, 1, 9
9, 140702, Control_c, 7, 1, 10
9, 140704, Control_c, 7, 1, 11
9, 140706, Control_c, 7, 1, 12
9, 140709, Control_c, 7, 1, 13
9, 140711, Control_c, 7, 11, 81
9, 140713, Control_c, 7, 1, 14
9, 140717, Control_c, 7, 1, 15
9, 140722, Control_c, 7, 1, 16
9, 140730, Control_c, 7, 1, 17
9, 140742, Control_c, 7, 1, 18
9, 140753, Control_c, 7, 11, 82
9, 140795, Control_c, 7, 11, 83
9, 140837, Control_c, 7, 11, 84
9, 140876, Note_on_c, 7, 76, 0
9, 140879, Control_c, 7, 11, 85
9, 140880, Control_c, 7, 1, 0
9, 140880, Note_on_c, 7, 76, 120
9, 140881, Control_c, 7, 1, 1
9, 140882, Control_c, 7, 1, 2
9, 140884, Control_c, 7, 1, 3
9, 140886, Control_c, 7, 1, 4
9, 140889, Control_c, 7, 1, 5
9, 140891, Control_c, 7, 1, 6
9, 140894, Control_c, 7, 1, 7
9, 140897, Control_c, 7, 1, 8
9, 140900, Control_c, 7, 1, 9
9, 140904, Control_c, 7, 1, 10
9, 140908, Control_c, 7, 1, 11
9, 140913, Control_c, 7, 1, 12
9, 140918, Control_c, 7, 1, 13
9, 140924, Control_c, 7, 1, 14
9, 140932, Control_c, 7, 1, 15
9, 140942, Control_c, 7, 1, 16
9, 140955, Control_c, 7, 1, 17
9, 140977, Control_c, 7, 1, 18
9, 141072, Note_on_c, 7, 76, 0
9, 141072, Note_on_c, 7, 67, 120
9, 141168, Note_on_c, 7, 69, 120
9, 141169, Note_on_c, 7, 67, 0
9, 141264, Note_on_c, 7, 69, 0
9, 141264, Control_c, 7, 11, 60
9, 141264, Note_on_c, 7, 67, 120
9, 141276, Control_c, 7, 11, 61
9, 141287, Control_c, 7, 11, 62
9, 141299, Control_c, 7, 11, 63
9, 141310, Control_c, 7, 11, 64
9, 141322, Control_c, 7, 11, 65
9, 141333, Control_c, 7, 11, 66
9, 141345, Control_c, 7, 11, 67
9, 141356, Control_c, 7, 11, 68
9, 141360, Note_on_c, 7, 64, 120
9, 141368, Control_c, 7, 11, 69
9, 141379, Control_c, 7, 11, 70
9, 141391, Control_c, 7, 11, 71
9, 141402, Control_c, 7, 11, 72
9, 141408, Note_on_c, 7, 67, 0
9, 141408, Note_on_c, 7, 64, 0
9, 141408, Note_on_c, 7, 67, 120
9, 141408, Note_on_c, 7, 76, 120
9, 141414, Control_c, 7, 11, 73
9, 141425, Control_c, 7, 11, 74
9, 141437, Control_c, 7, 11, 75
9, 141448, Control_c, 7, 11, 76
9, 141460, Control_c, 7, 11, 77
9, 141471, Control_c, 7, 11, 78
9, 141483, Control_c, 7, 11, 79
9, 141494, Control_c, 7, 11, 80
9, 141504, Note_on_c, 7, 76, 0
9, 141504, Note_on_c, 7, 67, 0
9, 141504, Note_on_c, 7, 66, 120
9, 141504, Note_on_c, 7, 74, 120
9, 141506, Control_c, 7, 11, 81
9, 141517, Control_c, 7, 11, 82
9, 141529, Control_c, 7, 11, 83
9, 141540, Control_c, 7, 11, 84
9, 141551, Control_c, 7, 11, 85
9, 141552, Note_on_c, 7, 74, 0
9, 141552, Note_on_c, 7, 66, 0
9, 141552, Note_on_c, 7, 66, 120
9, 141552, Note_on_c, 7, 74, 120
9, 141576, Note_on_c, 7, 74, 0
9, 141576, Note_on_c, 7, 66, 0
9, 143088, Control_c, 7, 11, 95
9, 143184, Control_c, 7, 1, 0
9, 143184, Note_on_c, 7, 62, 120
9, 143184, Note_on_c, 7, 74, 120
9, 143185, Control_c, 7, 1, 1
9, 143186, Control_c, 7, 1, 2
9, 143187, Control_c, 7, 1, 3
9, 143189, Control_c, 7, 1, 4
9, 143191, Control_c, 7, 1, 5
9, 143193, Control_c, 7, 1, 6
9, 143196, Control_c, 7, 1, 7
9, 143198, Control_c, 7, 1, 8
9, 143200, Control_c, 7, 1, 9
9, 143203, Control_c, 7, 1, 10
9, 143206, Control_c, 7, 1, 11
9, 143210, Control_c, 7, 1, 12
9, 143213, Control_c, 7, 1, 13
9, 143217, Control_c, 7, 1, 14
9, 143222, Control_c, 7, 1, 15
9, 143227, Control_c, 7, 1, 16
9, 143234, Control_c, 7, 1, 17
9, 143241, Control_c, 7, 1, 18
9, 143251, Control_c, 7, 1, 19
9, 143264, Control_c, 7, 1, 20
9, 143287, Control_c, 7, 1, 21
9, 143372, Note_on_c, 7, 74, 0
9, 143372, Note_on_c, 7, 62, 0
9, 143376, Note_on_c, 7, 64, 120
9, 143376, Note_on_c, 7, 76, 120
9, 143468, Note_on_c, 7, 76, 0
9, 143468, Note_on_c, 7, 64, 0
9, 143472, Note_on_c, 7, 66, 120
9, 143472, Note_on_c, 7, 78, 120
9, 143616, Note_on_c, 7, 78, 0
9, 143616, Note_on_c, 7, 66, 0
9, 143616, Note_on_c, 7, 67, 120
9, 143616, Note_on_c, 7, 79, 120
9, 143640, Note_on_c, 7, 79, 0
9, 143640, Note_on_c, 7, 67, 0
9, 143640, Note_on_c, 7, 69, 120
9, 143640, Note_on_c, 7, 81, 120
9, 143664, Note_on_c, 7, 81, 0
9, 143664, Note_on_c, 7, 69, 0
9, 143664, Control_c, 7, 1, 0
9, 143664, Note_on_c, 7, 67, 120
9, 143664, Note_on_c, 7, 79, 120
9, 143688, Note_on_c, 7, 79, 0
9, 143688, Note_on_c, 7, 67, 0
9, 143712, Note_on_c, 7, 67, 120
9, 143712, Note_on_c, 7, 79, 120
9, 143736, Note_on_c, 7, 79, 0
9, 143736, Note_on_c, 7, 67, 0
9, 143760, Note_on_c, 7, 66, 120
9, 143760, Note_on_c, 7, 78, 120
9, 143784, Note_on_c, 7, 78, 0
9, 143784, Note_on_c, 7, 66, 0
9, 143808, Note_on_c, 7, 66, 120
9, 143808, Note_on_c, 7, 78, 120
9, 143832, Note_on_c, 7, 78, 0
9, 143832, Note_on_c, 7, 66, 0
9, 143856, Control_c, 7, 1, 0
9, 143856, Note_on_c, 7, 64, 120
9, 143856, Note_on_c, 7, 76, 120
9, 143857, Control_c, 7, 1, 2
9, 143859, Control_c, 7, 1, 3
9, 143860, Control_c, 7, 1, 4
9, 143861, Control_c, 7, 1, 5
9, 143863, Control_c, 7, 1, 6
9, 143864, Control_c, 7, 1, 7
9, 143866, Control_c, 7, 1, 8
9, 143868, Control_c, 7, 1, 9
9, 143871, Control_c, 7, 1, 10
9, 143873, Control_c, 7, 1, 11
9, 143876, Control_c, 7, 1, 12
9, 143880, Control_c, 7, 1, 13
9, 143885, Control_c, 7, 1, 14
9, 143892, Control_c, 7, 1, 15
9, 143904, Control_c, 7, 1, 16
9, 143948, Note_on_c, 7, 76, 0
9, 143948, Note_on_c, 7, 64, 0
9, 143952, Control_c, 7, 1, 0
9, 143952, Note_on_c, 7, 62, 120
9, 143952, Note_on_c, 7, 74, 120
9, 143953, Control_c, 7, 1, 2
9, 143955, Control_c, 7, 1, 3
9, 143956, Control_c, 7, 1, 4
9, 143957, Control_c, 7, 1, 5
9, 143959, Control_c, 7, 1, 6
9, 143960, Control_c, 7, 1, 7
9, 143962, Control_c, 7, 1, 8
9, 143964, Control_c, 7, 1, 9
9, 143967, Control_c, 7, 1, 10
9, 143969, Control_c, 7, 1, 11
9, 143972, Control_c, 7, 1, 12
9, 143976, Control_c, 7, 1, 13
9, 143981, Control_c, 7, 1, 14
9, 143988, Control_c, 7, 1, 15
9, 144000, Control_c, 7, 1, 16
9, 144140, Note_on_c, 7, 74, 0
9, 144140, Note_on_c, 7, 62, 0
9, 144144, Note_on_c, 7, 64, 120
9, 144144, Note_on_c, 7, 76, 120
9, 144236, Note_on_c, 7, 76, 0
9, 144236, Note_on_c, 7, 64, 0
9, 144240, Note_on_c, 7, 66, 120
9, 144240, Note_on_c, 7, 78, 120
9, 144384, Note_on_c, 7, 78, 0
9, 144384, Note_on_c, 7, 66, 0
9, 144384, Note_on_c, 7, 67, 120
9, 144384, Note_on_c, 7, 79, 120
9, 144408, Note_on_c, 7, 79, 0
9, 144408, Note_on_c, 7, 67, 0
9, 144408, Note_on_c, 7, 69, 120
9, 144408, Note_on_c, 7, 81, 120
9, 144432, Note_on_c, 7, 81, 0
9, 144432, Note_on_c, 7, 69, 0
9, 144432, Note_on_c, 7, 67, 120
9, 144432, Note_on_c, 7, 79, 120
9, 144456, Note_on_c, 7, 79, 0
9, 144456, Note_on_c, 7, 67, 0
9, 144480, Note_on_c, 7, 67, 120
9, 144480, Note_on_c, 7, 79, 120
9, 144504, Note_on_c, 7, 79, 0
9, 144504, Note_on_c, 7, 67, 0
9, 144528, Note_on_c, 7, 66, 120
9, 144528, Note_on_c, 7, 78, 120
9, 144552, Note_on_c, 7, 78, 0
9, 144552, Note_on_c, 7, 66, 0
9, 144576, Note_on_c, 7, 66, 120
9, 144576, Note_on_c, 7, 78, 120
9, 144600, Note_on_c, 7, 78, 0
9, 144600, Note_on_c, 7, 66, 0
9, 144624, Control_c, 7, 1, 0
9, 144624, Control_c, 7, 11, 95
9, 144624, Note_on_c, 7, 62, 120
9, 144625, Control_c, 7, 11, 90
9, 144625, Control_c, 7, 1, 2
9, 144626, Control_c, 7, 11, 87
9, 144626, Control_c, 7, 1, 3
9, 144627, Control_c, 7, 11, 84
9, 144627, Control_c, 7, 1, 4
9, 144628, Control_c, 7, 11, 81
9, 144629, Control_c, 7, 11, 79
9, 144629, Control_c, 7, 1, 5
9, 144630, Control_c, 7, 11, 77
9, 144630, Control_c, 7, 1, 6
9, 144631, Control_c, 7, 11, 74
9, 144631, Control_c, 7, 1, 7
9, 144632, Control_c, 7, 11, 73
9, 144633, Control_c, 7, 11, 71
9, 144633, Control_c, 7, 1, 8
9, 144634, Control_c, 7, 11, 70
9, 144634, Control_c, 7, 1, 9
9, 144635, Control_c, 7, 11, 69
9, 144636, Control_c, 7, 11, 68
9, 144636, Control_c, 7, 1, 10
9, 144637, Control_c, 7, 11, 67
9, 144638, Control_c, 7, 11, 66
9, 144638, Control_c, 7, 1, 11
9, 144639, Control_c, 7, 11, 65
9, 144640, Control_c, 7, 1, 12
9, 144641, Control_c, 7, 11, 64
9, 144642, Control_c, 7, 11, 63
9, 144643, Control_c, 7, 1, 13
9, 144645, Control_c, 7, 11, 62
9, 144646, Control_c, 7, 1, 14
9, 144648, Control_c, 7, 11, 61
9, 144650, Control_c, 7, 1, 15
9, 144654, Control_c, 7, 11, 60
9, 144655, Control_c, 7, 1, 16
9, 144662, Control_c, 7, 1, 17
9, 144673, Control_c, 7, 1, 18
9, 144716, Note_on_c, 7, 62, 0
9, 144720, Control_c, 7, 1, 0
9, 144720, Note_on_c, 7, 62, 120
9, 144721, Control_c, 7, 1, 2
9, 144722, Control_c, 7, 1, 3
9, 144723, Control_c, 7, 1, 4
9, 144725, Control_c, 7, 1, 5
9, 144726, Control_c, 7, 1, 6
9, 144727, Control_c, 7, 1, 7
9, 144729, Control_c, 7, 1, 8
9, 144730, Control_c, 7, 1, 9
9, 144732, Control_c, 7, 1, 10
9, 144734, Control_c, 7, 1, 11
9, 144736, Control_c, 7, 1, 12
9, 144739, Control_c, 7, 1, 13
9, 144742, Control_c, 7, 1, 14
9, 144746, Control_c, 7, 1, 15
9, 144751, Control_c, 7, 1, 16
9, 144758, Control_c, 7, 1, 17
9, 144769, Control_c, 7, 1, 18
9, 144908, Note_on_c, 7, 62, 0
9, 144912, Control_c, 7, 1, 0
9, 144912, Note_on_c, 7, 64, 120
9, 144913, Control_c, 7, 1, 2
9, 144914, Control_c, 7, 1, 3
9, 144915, Control_c, 7, 1, 4
9, 144917, Control_c, 7, 1, 5
9, 144918, Control_c, 7, 1, 6
9, 144919, Control_c, 7, 1, 7
9, 144921, Control_c, 7, 1, 8
9, 144922, Control_c, 7, 1, 9
9, 144924, Control_c, 7, 1, 10
9, 144926, Control_c, 7, 1, 11
9, 144928, Control_c, 7, 1, 12
9, 144931, Control_c, 7, 1, 13
9, 144934, Control_c, 7, 1, 14
9, 144938, Control_c, 7, 1, 15
9, 144943, Control_c, 7, 1, 16
9, 144950, Control_c, 7, 1, 17
9, 144961, Control_c, 7, 1, 18
9, 145004, Note_on_c, 7, 64, 0
9, 145008, Control_c, 7, 1, 0
9, 145008, Note_on_c, 7, 66, 120
9, 145009, Control_c, 7, 1, 1
9, 145010, Control_c, 7, 1, 2
9, 145011, Control_c, 7, 1, 3
9, 145013, Control_c, 7, 1, 4
9, 145015, Control_c, 7, 1, 5
9, 145016, Control_c, 7, 1, 6
9, 145019, Control_c, 7, 1, 7
9, 145021, Control_c, 7, 1, 8
9, 145023, Control_c, 7, 1, 9
9, 145026, Control_c, 7, 1, 10
9, 145029, Control_c, 7, 1, 11
9, 145033, Control_c, 7, 1, 12
9, 145036, Control_c, 7, 1, 13
9, 145041, Control_c, 7, 1, 14
9, 145047, Control_c, 7, 1, 15
9, 145054, Control_c, 7, 1, 16
9, 145064, Control_c, 7, 1, 17
9, 145081, Control_c, 7, 1, 18
9, 145152, Note_on_c, 7, 67, 120
9, 145153, Note_on_c, 7, 66, 0
9, 145176, Note_on_c, 7, 67, 0
9, 145176, Note_on_c, 7, 69, 120
9, 145200, Note_on_c, 7, 69, 0
9, 145200, Control_c, 7, 1, 0
9, 145200, Note_on_c, 7, 67, 120
9, 145224, Note_on_c, 7, 67, 0
9, 145248, Note_on_c, 7, 67, 120
9, 145272, Note_on_c, 7, 67, 0
9, 145296, Note_on_c, 7, 66, 120
9, 145320, Note_on_c, 7, 66, 0
9, 145344, Note_on_c, 7, 66, 120
9, 145368, Note_on_c, 7, 66, 0
9, 145392, Control_c, 7, 1, 0
9, 145392, Note_on_c, 7, 64, 120
9, 145393, Control_c, 7, 1, 1
9, 145394, Control_c, 7, 1, 2
9, 145395, Control_c, 7, 1, 3
9, 145397, Control_c, 7, 1, 4
9, 145399, Control_c, 7, 1, 5
9, 145401, Control_c, 7, 1, 6
9, 145404, Control_c, 7, 1, 7
9, 145407, Control_c, 7, 1, 8
9, 145411, Control_c, 7, 1, 9
9, 145416, Control_c, 7, 1, 10
9, 145423, Control_c, 7, 1, 11
9, 145434, Control_c, 7, 1, 12
9, 145484, Note_on_c, 7, 64, 0
9, 145488, Control_c, 7, 11, 60
9, 145488, Control_c, 7, 1, 0
9, 145488, Note_on_c, 7, 62, 120
9, 145489, Control_c, 7, 1, 1
9, 145490, Control_c, 7, 1, 2
9, 145491, Control_c, 7, 1, 3
9, 145493, Control_c, 7, 1, 4
9, 145495, Control_c, 7, 1, 5
9, 145497, Control_c, 7, 1, 6
9, 145499, Control_c, 7, 1, 7
9, 145501, Control_c, 7, 1, 8
9, 145503, Control_c, 7, 1, 9
9, 145506, Control_c, 7, 1, 10
9, 145509, Control_c, 7, 1, 11
9, 145512, Control_c, 7, 1, 12
9, 145515, Control_c, 7, 1, 13
9, 145519, Control_c, 7, 1, 14
9, 145524, Control_c, 7, 1, 15
9, 145530, Control_c, 7, 11, 61
9, 145530, Control_c, 7, 1, 16
9, 145535, Control_c, 7, 1, 17
9, 145544, Control_c, 7, 1, 18
9, 145556, Control_c, 7, 1, 19
9, 145571, Control_c, 7, 11, 62
9, 145576, Control_c, 7, 1, 20
9, 145612, Control_c, 7, 11, 63
9, 145653, Control_c, 7, 11, 64
9, 145678, Note_on_c, 7, 62, 0
9, 145680, Note_on_c, 7, 64, 120
9, 145694, Control_c, 7, 11, 65
9, 145735, Control_c, 7, 11, 66
9, 145772, Note_on_c, 7, 64, 0
9, 145776, Note_on_c, 7, 66, 120
9, 145776, Control_c, 7, 11, 67
9, 145817, Control_c, 7, 11, 68
9, 145859, Control_c, 7, 11, 69
9, 145868, Note_on_c, 7, 66, 0
9, 145872, Control_c, 7, 1, 0
9, 145872, Note_on_c, 7, 62, 120
9, 145873, Control_c, 7, 1, 1
9, 145874, Control_c, 7, 1, 2
9, 145875, Control_c, 7, 1, 3
9, 145877, Control_c, 7, 1, 4
9, 145878, Control_c, 7, 1, 5
9, 145880, Control_c, 7, 1, 6
9, 145882, Control_c, 7, 1, 7
9, 145884, Control_c, 7, 1, 8
9, 145886, Control_c, 7, 1, 9
9, 145888, Control_c, 7, 1, 10
9, 145891, Control_c, 7, 1, 11
9, 145894, Control_c, 7, 1, 12
9, 145897, Control_c, 7, 1, 13
9, 145900, Control_c, 7, 11, 70
9, 145901, Control_c, 7, 1, 14
9, 145905, Control_c, 7, 1, 15
9, 145910, Control_c, 7, 1, 16
9, 145915, Control_c, 7, 1, 17
9, 145923, Control_c, 7, 1, 18
9, 145934, Control_c, 7, 1, 19
9, 145941, Control_c, 7, 11, 71
9, 145953, Control_c, 7, 1, 20
9, 145982, Control_c, 7, 11, 72
9, 146023, Control_c, 7, 11, 73
9, 146064, Control_c, 7, 11, 74
9, 146105, Control_c, 7, 11, 75
9, 146146, Control_c, 7, 11, 76
9, 146156, Note_on_c, 7, 62, 0
9, 146160, Note_on_c, 7, 62, 120
9, 146187, Control_c, 7, 11, 77
9, 146229, Control_c, 7, 11, 78
9, 146270, Control_c, 7, 11, 79
9, 146311, Control_c, 7, 11, 80
9, 146352, Control_c, 7, 11, 81
9, 146393, Control_c, 7, 11, 82
9, 146434, Control_c, 7, 11, 83
9, 146475, Control_c, 7, 11, 84
9, 146516, Control_c, 7, 11, 85
9, 146557, Control_c, 7, 11, 86
9, 146599, Control_c, 7, 11, 87
9, 146636, Note_on_c, 7, 62, 0
9, 146640, Note_on_c, 7, 57, 120
9, 146640, Note_on_c, 7, 66, 120
9, 146640, Control_c, 7, 1, 0
9, 146640, Control_c, 7, 11, 88
9, 146641, Control_c, 7, 1, 1
9, 146642, Control_c, 7, 1, 2
9, 146643, Control_c, 7, 1, 3
9, 146645, Control_c, 7, 1, 4
9, 146647, Control_c, 7, 1, 5
9, 146649, Control_c, 7, 1, 6
9, 146651, Control_c, 7, 1, 7
9, 146653, Control_c, 7, 1, 8
9, 146655, Control_c, 7, 1, 9
9, 146658, Control_c, 7, 1, 10
9, 146661, Control_c, 7, 1, 11
9, 146663, Control_c, 7, 1, 12
9, 146667, Control_c, 7, 1, 13
9, 146671, Control_c, 7, 1, 14
9, 146676, Control_c, 7, 1, 15
9, 146681, Control_c, 7, 11, 89
9, 146681, Control_c, 7, 1, 16
9, 146687, Control_c, 7, 1, 17
9, 146695, Control_c, 7, 1, 18
9, 146707, Control_c, 7, 1, 19
9, 146722, Control_c, 7, 11, 90
9, 146728, Control_c, 7, 1, 20
9, 146763, Control_c, 7, 11, 91
9, 146804, Control_c, 7, 11, 92
9, 146830, Note_on_c, 7, 66, 0
9, 146830, Note_on_c, 7, 57, 0
9, 146832, Control_c, 7, 1, 0
9, 146832, Note_on_c, 7, 55, 120
9, 146832, Note_on_c, 7, 67, 120
9, 146833, Control_c, 7, 1, 2
9, 146834, Control_c, 7, 1, 3
9, 146835, Control_c, 7, 1, 4
9, 146836, Control_c, 7, 1, 5
9, 146837, Control_c, 7, 1, 6
9, 146838, Control_c, 7, 1, 7
9, 146840, Control_c, 7, 1, 8
9, 146841, Control_c, 7, 1, 9
9, 146843, Control_c, 7, 1, 10
9, 146844, Control_c, 7, 1, 11
9, 146845, Control_c, 7, 11, 93
9, 146846, Control_c, 7, 1, 12
9, 146848, Control_c, 7, 1, 13
9, 146850, Control_c, 7, 1, 14
9, 146853, Control_c, 7, 1, 15
9, 146856, Control_c, 7, 1, 16
9, 146860, Control_c, 7, 1, 17
9, 146864, Control_c, 7, 1, 18
9, 146871, Control_c, 7, 1, 19
9, 146883, Control_c, 7, 1, 20
9, 146886, Control_c, 7, 11, 94
9, 146924, Note_on_c, 7, 67, 0
9, 146924, Note_on_c, 7, 55, 0
9, 146927, Control_c, 7, 11, 95
9, 146928, Control_c, 7, 1, 0
9, 146928, Note_on_c, 7, 54, 120
9, 146928, Note_on_c, 7, 69, 120
9, 146998, Note_on_c, 7, 69, 0
9, 146998, Note_on_c, 7, 54, 0
9, 147024, Note_on_c, 7, 66, 120
9, 147094, Note_on_c, 7, 66, 0
9, 147120, Note_on_c, 7, 64, 120
9, 147190, Note_on_c, 7, 64, 0
9, 147216, Note_on_c, 7, 64, 120
9, 147286, Note_on_c, 7, 64, 0
9, 147312, Control_c, 7, 11, 95
9, 147312, Note_on_c, 7, 66, 120
9, 147326, Control_c, 7, 11, 94
9, 147339, Control_c, 7, 11, 93
9, 147352, Control_c, 7, 11, 92
9, 147365, Control_c, 7, 11, 91
9, 147379, Control_c, 7, 11, 90
9, 147382, Note_on_c, 7, 66, 0
9, 147392, Control_c, 7, 11, 89
9, 147405, Control_c, 7, 11, 88
9, 147408, Note_on_c, 7, 66, 120
9, 147418, Control_c, 7, 11, 87
9, 147431, Control_c, 7, 11, 86
9, 147445, Control_c, 7, 11, 85
9, 147458, Control_c, 7, 11, 84
9, 147471, Control_c, 7, 11, 83
9, 147478, Note_on_c, 7, 66, 0
9, 147484, Control_c, 7, 11, 82
9, 147497, Control_c, 7, 11, 81
9, 147504, Note_on_c, 7, 64, 120
9, 147511, Control_c, 7, 11, 80
9, 147524, Control_c, 7, 11, 79
9, 147537, Control_c, 7, 11, 78
9, 147550, Control_c, 7, 11, 77
9, 147563, Control_c, 7, 11, 76
9, 147574, Note_on_c, 7, 64, 0
9, 147577, Control_c, 7, 11, 75
9, 147590, Control_c, 7, 11, 74
9, 147600, Note_on_c, 7, 64, 120
9, 147603, Control_c, 7, 11, 73
9, 147616, Control_c, 7, 11, 72
9, 147629, Control_c, 7, 11, 71
9, 147643, Control_c, 7, 11, 70
9, 147656, Control_c, 7, 11, 69
9, 147669, Control_c, 7, 11, 68
9, 147670, Note_on_c, 7, 64, 0
9, 147682, Control_c, 7, 11, 67
9, 147695, Control_c, 7, 11, 66
9, 147696, Control_c, 7, 1, 0
9, 147696, Control_c, 7, 11, 65
9, 147696, Note_on_c, 7, 66, 120
9, 147697, Control_c, 7, 1, 2
9, 147698, Control_c, 7, 1, 3
9, 147699, Control_c, 7, 1, 4
9, 147701, Control_c, 7, 1, 5
9, 147702, Control_c, 7, 1, 6
9, 147703, Control_c, 7, 1, 7
9, 147705, Control_c, 7, 1, 8
9, 147706, Control_c, 7, 1, 9
9, 147708, Control_c, 7, 1, 10
9, 147710, Control_c, 7, 1, 11
9, 147712, Control_c, 7, 1, 12
9, 147715, Control_c, 7, 1, 13
9, 147718, Control_c, 7, 1, 14
9, 147722, Control_c, 7, 1, 15
9, 147727, Control_c, 7, 1, 16
9, 147734, Control_c, 7, 1, 17
9, 147745, Control_c, 7, 1, 18
9, 147788, Note_on_c, 7, 66, 0
9, 147792, Control_c, 7, 11, 65
9, 147792, Control_c, 7, 1, 0
9, 147792, Note_on_c, 7, 62, 120
9, 147793, Control_c, 7, 1, 1
9, 147794, Control_c, 7, 1, 2
9, 147795, Control_c, 7, 1, 3
9, 147796, Control_c, 7, 1, 4
9, 147798, Control_c, 7, 1, 5
9, 147800, Control_c, 7, 1, 6
9, 147801, Control_c, 7, 1, 7
9, 147803, Control_c, 7, 1, 8
9, 147805, Control_c, 7, 1, 9
9, 147808, Control_c, 7, 1, 10
9, 147810, Control_c, 7, 1, 11
9, 147813, Control_c, 7, 1, 12
9, 147816, Control_c, 7, 1, 13
9, 147819, Control_c, 7, 1, 14
9, 147823, Control_c, 7, 1, 15
9, 147828, Control_c, 7, 1, 16
9, 147833, Control_c, 7, 1, 17
9, 147840, Control_c, 7, 11, 66
9, 147841, Control_c, 7, 1, 18
9, 147851, Control_c, 7, 1, 19
9, 147869, Control_c, 7, 1, 20
9, 147888, Control_c, 7, 11, 67
9, 147936, Control_c, 7, 11, 68
9, 147982, Note_on_c, 7, 62, 0
9, 147984, Control_c, 7, 1, 0
9, 147984, Note_on_c, 7, 64, 120
9, 147984, Control_c, 7, 11, 69
9, 147985, Control_c, 7, 1, 2
9, 147986, Control_c, 7, 1, 3
9, 147987, Control_c, 7, 1, 4
9, 147989, Control_c, 7, 1, 5
9, 147990, Control_c, 7, 1, 6
9, 147991, Control_c, 7, 1, 7
9, 147993, Control_c, 7, 1, 8
9, 147994, Control_c, 7, 1, 9
9, 147996, Control_c, 7, 1, 10
9, 147998, Control_c, 7, 1, 11
9, 148000, Control_c, 7, 1, 12
9, 148003, Control_c, 7, 1, 13
9, 148006, Control_c, 7, 1, 14
9, 148010, Control_c, 7, 1, 15
9, 148015, Control_c, 7, 1, 16
9, 148022, Control_c, 7, 1, 17
9, 148032, Control_c, 7, 11, 70
9, 148033, Control_c, 7, 1, 18
9, 148076, Note_on_c, 7, 64, 0
9, 148080, Control_c, 7, 1, 0
9, 148080, Note_on_c, 7, 66, 120
9, 148080, Control_c, 7, 11, 71
9, 148081, Control_c, 7, 1, 2
9, 148082, Control_c, 7, 1, 3
9, 148083, Control_c, 7, 1, 4
9, 148085, Control_c, 7, 1, 5
9, 148086, Control_c, 7, 1, 6
9, 148087, Control_c, 7, 1, 7
9, 148089, Control_c, 7, 1, 8
9, 148090, Control_c, 7, 1, 9
9, 148092, Control_c, 7, 1, 10
9, 148094, Control_c, 7, 1, 11
9, 148096, Control_c, 7, 1, 12
9, 148099, Control_c, 7, 1, 13
9, 148102, Control_c, 7, 1, 14
9, 148106, Control_c, 7, 1, 15
9, 148111, Control_c, 7, 1, 16
9, 148118, Control_c, 7, 1, 17
9, 148128, Control_c, 7, 11, 72
9, 148129, Control_c, 7, 1, 18
9, 148172, Note_on_c, 7, 66, 0
9, 148176, Control_c, 7, 1, 0
9, 148176, Note_on_c, 7, 62, 120
9, 148176, Note_on_c, 7, 74, 120
9, 148176, Control_c, 7, 11, 73
9, 148177, Control_c, 7, 1, 1
9, 148178, Control_c, 7, 1, 2
9, 148179, Control_c, 7, 1, 3
9, 148181, Control_c, 7, 1, 4
9, 148183, Control_c, 7, 1, 5
9, 148184, Control_c, 7, 1, 6
9, 148187, Control_c, 7, 1, 7
9, 148189, Control_c, 7, 1, 8
9, 148191, Control_c, 7, 1, 9
9, 148194, Control_c, 7, 1, 10
9, 148197, Control_c, 7, 1, 11
9, 148201, Control_c, 7, 1, 12
9, 148204, Control_c, 7, 1, 13
9, 148209, Control_c, 7, 1, 14
9, 148215, Control_c, 7, 1, 15
9, 148222, Control_c, 7, 1, 16
9, 148224, Control_c, 7, 11, 74
9, 148232, Control_c, 7, 1, 17
9, 148249, Control_c, 7, 1, 18
9, 148272, Control_c, 7, 11, 75
9, 148320, Control_c, 7, 11, 76
9, 148366, Note_on_c, 7, 74, 0
9, 148366, Note_on_c, 7, 62, 0
9, 148368, Note_on_c, 7, 64, 120
9, 148368, Note_on_c, 7, 76, 120
9, 148368, Control_c, 7, 1, 0
9, 148368, Control_c, 7, 11, 77
9, 148369, Control_c, 7, 1, 1
9, 148370, Control_c, 7, 1, 2
9, 148371, Control_c, 7, 1, 3
9, 148373, Control_c, 7, 1, 4
9, 148375, Control_c, 7, 1, 5
9, 148376, Control_c, 7, 1, 6
9, 148379, Control_c, 7, 1, 7
9, 148381, Control_c, 7, 1, 8
9, 148383, Control_c, 7, 1, 9
9, 148386, Control_c, 7, 1, 10
9, 148389, Control_c, 7, 1, 11
9, 148393, Control_c, 7, 1, 12
9, 148396, Control_c, 7, 1, 13
9, 148401, Control_c, 7, 1, 14
9, 148407, Control_c, 7, 1, 15
9, 148414, Control_c, 7, 1, 16
9, 148416, Control_c, 7, 11, 78
9, 148424, Control_c, 7, 1, 17
9, 148441, Control_c, 7, 1, 18
9, 148460, Note_on_c, 7, 76, 0
9, 148460, Note_on_c, 7, 64, 0
9, 148464, Control_c, 7, 1, 0
9, 148464, Note_on_c, 7, 66, 120
9, 148464, Note_on_c, 7, 78, 120
9, 148464, Control_c, 7, 11, 79
9, 148512, Control_c, 7, 11, 80
9, 148556, Note_on_c, 7, 78, 0
9, 148556, Note_on_c, 7, 66, 0
9, 148560, Control_c, 7, 1, 0
9, 148560, Note_on_c, 7, 66, 120
9, 148560, Note_on_c, 7, 78, 120
9, 148560, Control_c, 7, 11, 81
9, 148561, Control_c, 7, 1, 1
9, 148562, Control_c, 7, 1, 2
9, 148563, Control_c, 7, 1, 3
9, 148564, Control_c, 7, 1, 4
9, 148566, Control_c, 7, 1, 5
9, 148568, Control_c, 7, 1, 6
9, 148569, Control_c, 7, 1, 7
9, 148571, Control_c, 7, 1, 8
9, 148573, Control_c, 7, 1, 9
9, 148576, Control_c, 7, 1, 10
9, 148578, Control_c, 7, 1, 11
9, 148581, Control_c, 7, 1, 12
9, 148584, Control_c, 7, 1, 13
9, 148587, Control_c, 7, 1, 14
9, 148591, Control_c, 7, 1, 15
9, 148596, Control_c, 7, 1, 16
9, 148601, Control_c, 7, 1, 17
9, 148608, Control_c, 7, 11, 82
9, 148609, Control_c, 7, 1, 18
9, 148619, Control_c, 7, 1, 19
9, 148637, Control_c, 7, 1, 20
9, 148656, Control_c, 7, 11, 83
9, 148704, Control_c, 7, 11, 84
9, 148750, Note_on_c, 7, 78, 0
9, 148750, Note_on_c, 7, 66, 0
9, 148752, Control_c, 7, 1, 0
9, 148752, Note_on_c, 7, 64, 120
9, 148752, Note_on_c, 7, 76, 120
9, 148752, Control_c, 7, 11, 85
9, 148800, Control_c, 7, 11, 86
9, 148844, Note_on_c, 7, 76, 0
9, 148844, Note_on_c, 7, 64, 0
9, 148848, Control_c, 7, 1, 0
9, 148848, Note_on_c, 7, 62, 120
9, 148848, Note_on_c, 7, 74, 120
9, 148848, Control_c, 7, 11, 87
9, 148849, Control_c, 7, 1, 2
9, 148850, Control_c, 7, 1, 3
9, 148851, Control_c, 7, 1, 4
9, 148853, Control_c, 7, 1, 5
9, 148854, Control_c, 7, 1, 6
9, 148855, Control_c, 7, 1, 7
9, 148857, Control_c, 7, 1, 8
9, 148858, Control_c, 7, 1, 9
9, 148860, Control_c, 7, 1, 10
9, 148862, Control_c, 7, 1, 11
9, 148864, Control_c, 7, 1, 12
9, 148867, Control_c, 7, 1, 13
9, 148870, Control_c, 7, 1, 14
9, 148874, Control_c, 7, 1, 15
9, 148879, Control_c, 7, 1, 16
9, 148886, Control_c, 7, 1, 17
9, 148896, Control_c, 7, 11, 88
9, 148897, Control_c, 7, 1, 18
9, 148940, Note_on_c, 7, 74, 0
9, 148940, Note_on_c, 7, 62, 0
9, 148944, Control_c, 7, 1, 0
9, 148944, Note_on_c, 7, 69, 120
9, 148944, Note_on_c, 7, 81, 120
9, 148944, Control_c, 7, 11, 89
9, 148945, Control_c, 7, 1, 2
9, 148946, Control_c, 7, 1, 3
9, 148947, Control_c, 7, 1, 4
9, 148948, Control_c, 7, 1, 5
9, 148949, Control_c, 7, 1, 6
9, 148950, Control_c, 7, 1, 7
9, 148952, Control_c, 7, 1, 8
9, 148953, Control_c, 7, 1, 9
9, 148955, Control_c, 7, 1, 10
9, 148956, Control_c, 7, 1, 11
9, 148958, Control_c, 7, 1, 12
9, 148960, Control_c, 7, 1, 13
9, 148962, Control_c, 7, 1, 14
9, 148965, Control_c, 7, 1, 15
9, 148968, Control_c, 7, 1, 16
9, 148972, Control_c, 7, 1, 17
9, 148976, Control_c, 7, 1, 18
9, 148983, Control_c, 7, 1, 19
9, 148992, Control_c, 7, 11, 90
9, 148995, Control_c, 7, 1, 20
9, 149040, Control_c, 7, 11, 91
9, 149088, Control_c, 7, 11, 92
9, 149134, Note_on_c, 7, 81, 0
9, 149134, Note_on_c, 7, 69, 0
9, 149136, Note_on_c, 7, 69, 120
9, 149136, Note_on_c, 7, 79, 120
9, 149136, Control_c, 7, 1, 0
9, 149136, Control_c, 7, 11, 93
9, 149184, Control_c, 7, 11, 94
9, 149228, Note_on_c, 7, 79, 0
9, 149228, Note_on_c, 7, 69, 0
9, 149231, Control_c, 7, 11, 95
9, 149232, Note_on_c, 7, 69, 120
9, 149232, Note_on_c, 7, 78, 120
9, 149302, Note_on_c, 7, 78, 0
9, 149302, Note_on_c, 7, 69, 0
9, 149328, Note_on_c, 7, 69, 120
9, 149328, Note_on_c, 7, 78, 120
9, 149398, Note_on_c, 7, 78, 0
9, 149398, Note_on_c, 7, 69, 0
9, 149424, Note_on_c, 7, 69, 120
9, 149424, Note_on_c, 7, 76, 120
9, 149494, Note_on_c, 7, 76, 0
9, 149494, Note_on_c, 7, 69, 0
9, 149520, Note_on_c, 7, 69, 120
9, 149520, Note_on_c, 7, 76, 120
9, 149590, Note_on_c, 7, 76, 0
9, 149590, Note_on_c, 7, 69, 0
9, 149616, Control_c, 7, 11, 95
9, 149616, Note_on_c, 7, 69, 120
9, 149616, Note_on_c, 7, 78, 120
9, 149655, Control_c, 7, 11, 94
9, 149686, Note_on_c, 7, 78, 0
9, 149686, Note_on_c, 7, 69, 0
9, 149693, Control_c, 7, 11, 93
9, 149712, Note_on_c, 7, 69, 120
9, 149712, Note_on_c, 7, 78, 120
9, 149732, Control_c, 7, 11, 92
9, 149770, Control_c, 7, 11, 91
9, 149782, Note_on_c, 7, 78, 0
9, 149782, Note_on_c, 7, 69, 0
9, 149808, Note_on_c, 7, 69, 120
9, 149808, Note_on_c, 7, 76, 120
9, 149808, Control_c, 7, 11, 90
9, 149847, Control_c, 7, 11, 89
9, 149878, Note_on_c, 7, 76, 0
9, 149878, Note_on_c, 7, 69, 0
9, 149885, Control_c, 7, 11, 88
9, 149904, Note_on_c, 7, 69, 120
9, 149904, Note_on_c, 7, 76, 120
9, 149923, Control_c, 7, 11, 87
9, 149962, Control_c, 7, 11, 86
9, 149974, Note_on_c, 7, 76, 0
9, 149974, Note_on_c, 7, 69, 0
9, 150000, Note_on_c, 7, 69, 120
9, 150000, Note_on_c, 7, 78, 120
9, 150000, Control_c, 7, 11, 85
9, 150039, Control_c, 7, 11, 84
9, 150070, Note_on_c, 7, 78, 0
9, 150070, Note_on_c, 7, 69, 0
9, 150077, Control_c, 7, 11, 83
9, 150096, Note_on_c, 7, 69, 120
9, 150096, Note_on_c, 7, 78, 120
9, 150115, Control_c, 7, 11, 82
9, 150154, Control_c, 7, 11, 81
9, 150166, Note_on_c, 7, 78, 0
9, 150166, Note_on_c, 7, 69, 0
9, 150192, Note_on_c, 7, 69, 120
9, 150192, Note_on_c, 7, 76, 120
9, 150192, Control_c, 7, 11, 80
9, 150230, Control_c, 7, 11, 79
9, 150262, Note_on_c, 7, 76, 0
9, 150262, Note_on_c, 7, 69, 0
9, 150269, Control_c, 7, 11, 78
9, 150288, Note_on_c, 7, 69, 120
9, 150288, Note_on_c, 7, 76, 120
9, 150307, Control_c, 7, 11, 77
9, 150345, Control_c, 7, 11, 76
9, 150358, Note_on_c, 7, 76, 0
9, 150358, Note_on_c, 7, 69, 0
9, 150384, Note_on_c, 7, 69, 120
9, 150384, Note_on_c, 7, 78, 120
9, 150384, Control_c, 7, 11, 75
9, 150422, Control_c, 7, 11, 74
9, 150454, Note_on_c, 7, 78, 0
9, 150454, Note_on_c, 7, 69, 0
9, 150461, Control_c, 7, 11, 73
9, 150480, Note_on_c, 7, 69, 120
9, 150480, Note_on_c, 7, 78, 120
9, 150499, Control_c, 7, 11, 72
9, 150537, Control_c, 7, 11, 71
9, 150550, Note_on_c, 7, 78, 0
9, 150550, Note_on_c, 7, 69, 0
9, 150576, Note_on_c, 7, 69, 120
9, 150576, Note_on_c, 7, 76, 120
9, 150576, Control_c, 7, 11, 70
9, 150614, Control_c, 7, 11, 69
9, 150646, Note_on_c, 7, 76, 0
9, 150646, Note_on_c, 7, 69, 0
9, 150652, Control_c, 7, 11, 68
9, 150672, Note_on_c, 7, 69, 120
9, 150672, Note_on_c, 7, 76, 120
9, 150691, Control_c, 7, 11, 67
9, 150729, Control_c, 7, 11, 66
9, 150742, Note_on_c, 7, 76, 0
9, 150742, Note_on_c, 7, 69, 0
9, 150767, Control_c, 7, 11, 65
9, 150768, Control_c, 7, 1, 0
9, 150768, Control_c, 7, 11, 60
9, 150768, Note_on_c, 7, 69, 120
9, 150768, Note_on_c, 7, 74, 120
9, 150769, Control_c, 7, 1, 2
9, 150770, Control_c, 7, 1, 3
9, 150771, Control_c, 7, 1, 4
9, 150772, Control_c, 7, 1, 5
9, 150774, Control_c, 7, 1, 6
9, 150775, Control_c, 7, 1, 7
9, 150776, Control_c, 7, 1, 8
9, 150777, Control_c, 7, 1, 9
9, 150779, Control_c, 7, 1, 10
9, 150781, Control_c, 7, 1, 11
9, 150783, Control_c, 7, 1, 12
9, 150785, Control_c, 7, 1, 13
9, 150788, Control_c, 7, 1, 14
9, 150791, Control_c, 7, 1, 15
9, 150795, Control_c, 7, 1, 16
9, 150800, Control_c, 7, 1, 17
9, 150807, Control_c, 7, 1, 18
9, 150818, Control_c, 7, 1, 19
9, 150864, Note_on_c, 7, 74, 0
9, 150864, Note_on_c, 7, 69, 0
9, 150864, Note_on_c, 7, 67, 120
9, 150864, Note_on_c, 7, 71, 120
9, 151150, Note_on_c, 7, 71, 0
9, 151150, Note_on_c, 7, 67, 0
9, 151152, Control_c, 7, 1, 0
9, 151152, Note_on_c, 7, 66, 120
9, 151152, Note_on_c, 7, 69, 120
9, 151153, Control_c, 7, 1, 2
9, 151154, Control_c, 7, 1, 3
9, 151155, Control_c, 7, 1, 4
9, 151156, Control_c, 7, 1, 5
9, 151158, Control_c, 7, 1, 6
9, 151159, Control_c, 7, 1, 7
9, 151160, Control_c, 7, 1, 8
9, 151161, Control_c, 7, 1, 9
9, 151163, Control_c, 7, 1, 10
9, 151165, Control_c, 7, 1, 11
9, 151167, Control_c, 7, 1, 12
9, 151169, Control_c, 7, 1, 13
9, 151172, Control_c, 7, 1, 14
9, 151175, Control_c, 7, 1, 15
9, 151179, Control_c, 7, 1, 16
9, 151184, Control_c, 7, 1, 17
9, 151191, Control_c, 7, 1, 18
9, 151202, Control_c, 7, 1, 19
9, 151248, Note_on_c, 7, 69, 0
9, 151248, Note_on_c, 7, 66, 0
9, 151248, Note_on_c, 7, 67, 120
9, 151248, Note_on_c, 7, 71, 120
9, 151534, Note_on_c, 7, 71, 0
9, 151534, Note_on_c, 7, 67, 0
9, 151536, Control_c, 7, 1, 0
9, 151536, Note_on_c, 7, 66, 120
9, 151536, Note_on_c, 7, 69, 120
9, 151537, Control_c, 7, 1, 2
9, 151538, Control_c, 7, 1, 3
9, 151539, Control_c, 7, 1, 4
9, 151540, Control_c, 7, 1, 5
9, 151542, Control_c, 7, 1, 6
9, 151543, Control_c, 7, 1, 7
9, 151544, Control_c, 7, 1, 8
9, 151545, Control_c, 7, 1, 9
9, 151547, Control_c, 7, 1, 10
9, 151549, Control_c, 7, 1, 11
9, 151551, Control_c, 7, 1, 12
9, 151553, Control_c, 7, 1, 13
9, 151556, Control_c, 7, 1, 14
9, 151559, Control_c, 7, 1, 15
9, 151563, Control_c, 7, 1, 16
9, 151568, Control_c, 7, 1, 17
9, 151575, Control_c, 7, 1, 18
9, 151586, Control_c, 7, 1, 19
9, 151632, Note_on_c, 7, 69, 0
9, 151632, Note_on_c, 7, 66, 0
9, 151632, Note_on_c, 7, 67, 120
9, 151632, Note_on_c, 7, 71, 120
9, 152110, Note_on_c, 7, 71, 0
9, 152110, Note_on_c, 7, 67, 0
9, 152112, Control_c, 7, 11, 55
9, 152112, Note_on_c, 7, 67, 120
9, 152112, Note_on_c, 7, 70, 120
9, 152280, Note_on_c, 7, 70, 0
9, 152280, Note_on_c, 7, 67, 0
9, 152304, Control_c, 7, 7, 83
9, 152306, Control_c, 7, 11, 120
9, 152880, Control_c, 7, 1, 0
9, 153024, Program_c, 7, 71
9, 153024, Note_on_c, 7, 74, 110
9, 153059, Note_on_c, 7, 74, 0
9, 153096, Note_on_c, 7, 62, 100
9, 153108, Note_on_c, 7, 62, 0
9, 153120, Note_on_c, 7, 62, 100
9, 153144, Note_on_c, 7, 62, 0
9, 154032, Note_on_c, 7, 74, 50
9, 154056, Note_on_c, 7, 74, 0
9, 154176, Note_on_c, 7, 69, 50
9, 154200, Note_on_c, 7, 69, 0
9, 154320, Note_on_c, 7, 71, 50
9, 154344, Note_on_c, 7, 71, 0
9, 154464, Note_on_c, 7, 72, 50
9, 154488, Note_on_c, 7, 72, 0
9, 154608, Note_on_c, 7, 70, 50
9, 154632, Note_on_c, 7, 70, 0
9, 154752, Note_on_c, 7, 65, 50
9, 154776, Note_on_c, 7, 65, 0
9, 154896, Note_on_c, 7, 61, 50
9, 154920, Note_on_c, 7, 61, 0
9, 155040, Note_on_c, 7, 62, 50
9, 155064, Note_on_c, 7, 62, 0
9, 155184, Note_on_c, 7, 69, 50
9, 155208, Note_on_c, 7, 69, 0
9, 155328, Note_on_c, 7, 69, 50
9, 155352, Note_on_c, 7, 69, 0
9, 155472, Note_on_c, 7, 64, 50
9, 155496, Note_on_c, 7, 64, 0
9, 155616, Note_on_c, 7, 64, 50
9, 155616, Note_on_c, 7, 76, 50
9, 155640, Note_on_c, 7, 76, 0
9, 155640, Note_on_c, 7, 64, 0
9, 155760, Note_on_c, 7, 64, 50
9, 155760, Note_on_c, 7, 73, 50
9, 155784, Note_on_c, 7, 73, 0
9, 155784, Note_on_c, 7, 64, 0
9, 155904, Note_on_c, 7, 69, 50
9, 155904, Note_on_c, 7, 74, 50
9, 155928, Note_on_c, 7, 74, 0
9, 155928, Note_on_c, 7, 69, 0
9, 156048, Note_on_c, 7, 69, 50
9, 156048, Note_on_c, 7, 79, 50
9, 156072, Note_on_c, 7, 79, 0
9, 156072, Note_on_c, 7, 69, 0
9, 156192, Note_on_c, 7, 69, 50
9, 156192, Note_on_c, 7, 74, 50
9, 156216, Note_on_c, 7, 74, 0
9, 156216, Note_on_c, 7, 69, 0
9, 156336, Note_on_c, 7, 69, 50
9, 156336, Note_on_c, 7, 74, 50
9, 156360, Note_on_c, 7, 74, 0
9, 156360, Note_on_c, 7, 69, 0
9, 156480, Note_on_c, 7, 69, 50
9, 156480, Note_on_c, 7, 76, 50
9, 156504, Note_on_c, 7, 76, 0
9, 156504, Note_on_c, 7, 69, 0
9, 156624, Note_on_c, 7, 71, 50
9, 156624, Note_on_c, 7, 76, 50
9, 156648, Note_on_c, 7, 76, 0
9, 156648, Note_on_c, 7, 71, 0
9, 156768, Note_on_c, 7, 72, 50
9, 156768, Note_on_c, 7, 76, 50
9, 156792, Note_on_c, 7, 76, 0
9, 156792, Note_on_c, 7, 72, 0
9, 156912, Note_on_c, 7, 67, 50
9, 156912, Note_on_c, 7, 76, 50
9, 156936, Note_on_c, 7, 76, 0
9, 156936, Note_on_c, 7, 67, 0
9, 157056, Note_on_c, 7, 69, 50
9, 157056, Note_on_c, 7, 74, 50
9, 157080, Note_on_c, 7, 74, 0
9, 157080, Note_on_c, 7, 69, 0
9, 157200, Note_on_c, 7, 64, 50
9, 157200, Note_on_c, 7, 69, 50
9, 157224, Note_on_c, 7, 69, 0
9, 157224, Note_on_c, 7, 64, 0
9, 157344, Note_on_c, 7, 65, 50
9, 157344, Note_on_c, 7, 69, 50
9, 157368, Note_on_c, 7, 69, 0
9, 157368, Note_on_c, 7, 65, 0
9, 157488, Note_on_c, 7, 62, 50
9, 157488, Note_on_c, 7, 74, 50
9, 157512, Note_on_c, 7, 74, 0
9, 157512, Note_on_c, 7, 62, 0
9, 157632, Note_on_c, 7, 64, 50
9, 157632, Note_on_c, 7, 69, 50
9, 157656, Note_on_c, 7, 69, 0
9, 157656, Note_on_c, 7, 64, 0
9, 157776, Note_on_c, 7, 59, 50
9, 157776, Note_on_c, 7, 71, 50
9, 157800, Note_on_c, 7, 71, 0
9, 157800, Note_on_c, 7, 59, 0
9, 157920, Note_on_c, 7, 60, 50
9, 157920, Note_on_c, 7, 69, 50
9, 157944, Note_on_c, 7, 69, 0
9, 157944, Note_on_c, 7, 60, 0
9, 158064, Note_on_c, 7, 61, 50
9, 158064, Note_on_c, 7, 64, 50
9, 158088, Note_on_c, 7, 64, 0
9, 158088, Note_on_c, 7, 61, 0
9, 158208, Note_on_c, 7, 57, 50
9, 158208, Note_on_c, 7, 69, 50
9, 158232, Note_on_c, 7, 69, 0
9, 158232, Note_on_c, 7, 57, 0
9, 158352, Note_on_c, 7, 61, 50
9, 158352, Note_on_c, 7, 69, 50
9, 158376, Note_on_c, 7, 69, 0
9, 158376, Note_on_c, 7, 61, 0
9, 158496, Note_on_c, 7, 65, 50
9, 158496, Note_on_c, 7, 69, 50
9, 158520, Note_on_c, 7, 69, 0
9, 158520, Note_on_c, 7, 65, 0
9, 158640, Control_c, 7, 1, 0
9, 158640, Control_c, 7, 11, 50
9, 158640, Note_on_c, 7, 65, 110
9, 158640, Note_on_c, 7, 69, 110
9, 158641, Control_c, 7, 1, 2
9, 158642, Control_c, 7, 1, 3
9, 158643, Control_c, 7, 1, 4
9, 158644, Control_c, 7, 1, 5
9, 158645, Control_c, 7, 1, 6
9, 158647, Control_c, 7, 1, 7
9, 158648, Control_c, 7, 1, 8
9, 158649, Control_c, 7, 1, 9
9, 158651, Control_c, 7, 1, 10
9, 158653, Control_c, 7, 1, 11
9, 158654, Control_c, 7, 1, 12
9, 158657, Control_c, 7, 1, 13
9, 158659, Control_c, 7, 1, 14
9, 158662, Control_c, 7, 1, 15
9, 158665, Control_c, 7, 11, 51
9, 158665, Control_c, 7, 1, 16
9, 158668, Control_c, 7, 1, 17
9, 158673, Control_c, 7, 1, 18
9, 158681, Control_c, 7, 1, 19
9, 158690, Control_c, 7, 11, 52
9, 158693, Control_c, 7, 1, 20
9, 158715, Control_c, 7, 11, 53
9, 158739, Control_c, 7, 11, 54
9, 158764, Control_c, 7, 11, 55
9, 158789, Control_c, 7, 11, 56
9, 158813, Control_c, 7, 11, 57
9, 158838, Control_c, 7, 11, 58
9, 158863, Control_c, 7, 11, 59
9, 158887, Control_c, 7, 11, 60
9, 158912, Control_c, 7, 11, 61
9, 158937, Control_c, 7, 11, 62
9, 158961, Control_c, 7, 11, 63
9, 158986, Control_c, 7, 11, 64
9, 159011, Control_c, 7, 11, 65
9, 159035, Control_c, 7, 11, 66
9, 159060, Control_c, 7, 11, 67
9, 159085, Control_c, 7, 11, 68
9, 159109, Control_c, 7, 11, 69
9, 159134, Control_c, 7, 11, 70
9, 159159, Control_c, 7, 11, 71
9, 159183, Control_c, 7, 11, 72
9, 159208, Control_c, 7, 11, 73
9, 159233, Control_c, 7, 11, 74
9, 159257, Control_c, 7, 11, 75
9, 159282, Control_c, 7, 11, 76
9, 159307, Control_c, 7, 11, 77
9, 159331, Control_c, 7, 11, 78
9, 159356, Control_c, 7, 11, 79
9, 159381, Control_c, 7, 11, 80
9, 159405, Control_c, 7, 11, 81
9, 159430, Control_c, 7, 11, 82
9, 159455, Control_c, 7, 11, 83
9, 159479, Control_c, 7, 11, 84
9, 159504, Control_c, 7, 11, 85
9, 159529, Control_c, 7, 11, 86
9, 159553, Control_c, 7, 11, 87
9, 159578, Control_c, 7, 11, 88
9, 159603, Control_c, 7, 11, 89
9, 159627, Control_c, 7, 11, 90
9, 159652, Control_c, 7, 11, 91
9, 159677, Control_c, 7, 11, 92
9, 159701, Control_c, 7, 11, 93
9, 159726, Control_c, 7, 11, 94
9, 159751, Control_c, 7, 11, 95
9, 159775, Control_c, 7, 11, 96
9, 159800, Control_c, 7, 11, 97
9, 159825, Control_c, 7, 11, 98
9, 159849, Control_c, 7, 11, 99
9, 159874, Control_c, 7, 11, 100
9, 159899, Control_c, 7, 11, 101
9, 159923, Control_c, 7, 11, 102
9, 159948, Control_c, 7, 11, 103
9, 159973, Control_c, 7, 11, 104
9, 159997, Control_c, 7, 11, 105
9, 160022, Control_c, 7, 11, 106
9, 160047, Control_c, 7, 11, 107
9, 160071, Control_c, 7, 11, 108
9, 160096, Control_c, 7, 11, 109
9, 160121, Control_c, 7, 11, 110
9, 160145, Control_c, 7, 11, 111
9, 160170, Control_c, 7, 11, 112
9, 160195, Control_c, 7, 11, 113
9, 160219, Control_c, 7, 11, 114
9, 160244, Control_c, 7, 11, 115
9, 160269, Control_c, 7, 11, 116
9, 160293, Control_c, 7, 11, 117
9, 160318, Control_c, 7, 11, 118
9, 160343, Control_c, 7, 11, 119
9, 160367, Control_c, 7, 11, 120
9, 160368, Note_on_c, 7, 69, 0
9, 160368, Note_on_c, 7, 65, 0
9, 160368, Control_c, 7, 1, 0
9, 160368, Note_on_c, 7, 69, 120
9, 160368, Note_on_c, 7, 81, 120
9, 160403, Note_on_c, 7, 81, 0
9, 160403, Note_on_c, 7, 69, 0
9, 160440, Note_on_c, 7, 57, 110
9, 160440, Note_on_c, 7, 69, 110
9, 160452, Note_on_c, 7, 69, 0
9, 160452, Note_on_c, 7, 57, 0
9, 160464, Note_on_c, 7, 57, 110
9, 160464, Note_on_c, 7, 69, 110
9, 160488, Note_on_c, 7, 69, 0
9, 160488, Note_on_c, 7, 57, 0
9, 160512, Note_on_c, 7, 69, 115
9, 160512, Note_on_c, 7, 74, 115
9, 160536, Note_on_c, 7, 74, 0
9, 160536, Note_on_c, 7, 69, 0
9, 160560, Note_on_c, 7, 69, 110
9, 160560, Note_on_c, 7, 76, 110
9, 160584, Note_on_c, 7, 76, 0
9, 160584, Note_on_c, 7, 69, 0
9, 160608, Note_on_c, 7, 69, 110
9, 160608, Note_on_c, 7, 77, 110
9, 160632, Note_on_c, 7, 77, 0
9, 160632, Note_on_c, 7, 69, 0
9, 160656, Note_on_c, 7, 69, 115
9, 160656, Note_on_c, 7, 76, 115
9, 160680, Note_on_c, 7, 76, 0
9, 160680, Note_on_c, 7, 69, 0
9, 160704, Note_on_c, 7, 69, 110
9, 160704, Note_on_c, 7, 77, 110
9, 160728, Note_on_c, 7, 77, 0
9, 160728, Note_on_c, 7, 69, 0
9, 160752, Note_on_c, 7, 69, 110
9, 160752, Note_on_c, 7, 79, 110
9, 160776, Note_on_c, 7, 79, 0
9, 160776, Note_on_c, 7, 69, 0
9, 160800, Note_on_c, 7, 69, 115
9, 160800, Note_on_c, 7, 77, 115
9, 160824, Note_on_c, 7, 77, 0
9, 160824, Note_on_c, 7, 69, 0
9, 160848, Note_on_c, 7, 69, 110
9, 160848, Note_on_c, 7, 76, 110
9, 160872, Note_on_c, 7, 76, 0
9, 160872, Note_on_c, 7, 69, 0
9, 160896, Note_on_c, 7, 69, 110
9, 160896, Note_on_c, 7, 74, 110
9, 160920, Note_on_c, 7, 74, 0
9, 160920, Note_on_c, 7, 69, 0
9, 160944, Note_on_c, 7, 70, 115
9, 160944, Note_on_c, 7, 74, 115
9, 160968, Note_on_c, 7, 74, 0
9, 160968, Note_on_c, 7, 70, 0
9, 160992, Note_on_c, 7, 69, 110
9, 160992, Note_on_c, 7, 74, 110
9, 161016, Note_on_c, 7, 74, 0
9, 161016, Note_on_c, 7, 69, 0
9, 161040, Note_on_c, 7, 67, 110
9, 161040, Note_on_c, 7, 74, 110
9, 161064, Note_on_c, 7, 74, 0
9, 161064, Note_on_c, 7, 67, 0
9, 161088, Note_on_c, 7, 69, 115
9, 161088, Note_on_c, 7, 77, 115
9, 161112, Note_on_c, 7, 77, 0
9, 161112, Note_on_c, 7, 69, 0
9, 161136, Note_on_c, 7, 69, 110
9, 161136, Note_on_c, 7, 76, 110
9, 161160, Note_on_c, 7, 76, 0
9, 161160, Note_on_c, 7, 69, 0
9, 161184, Note_on_c, 7, 69, 110
9, 161184, Note_on_c, 7, 74, 110
9, 161208, Note_on_c, 7, 74, 0
9, 161208, Note_on_c, 7, 69, 0
9, 161232, Note_on_c, 7, 69, 115
9, 161232, Note_on_c, 7, 73, 115
9, 161256, Note_on_c, 7, 73, 0
9, 161256, Note_on_c, 7, 69, 0
9, 161280, Note_on_c, 7, 69, 110
9, 161280, Note_on_c, 7, 74, 110
9, 161304, Note_on_c, 7, 74, 0
9, 161304, Note_on_c, 7, 69, 0
9, 161328, Note_on_c, 7, 69, 110
9, 161328, Note_on_c, 7, 76, 110
9, 161352, Note_on_c, 7, 76, 0
9, 161352, Note_on_c, 7, 69, 0
9, 161376, Note_on_c, 7, 69, 115
9, 161376, Note_on_c, 7, 74, 115
9, 161400, Note_on_c, 7, 74, 0
9, 161400, Note_on_c, 7, 69, 0
9, 161424, Note_on_c, 7, 69, 110
9, 161424, Note_on_c, 7, 73, 110
9, 161448, Note_on_c, 7, 73, 0
9, 161448, Note_on_c, 7, 69, 0
9, 161472, Note_on_c, 7, 69, 110
9, 161472, Note_on_c, 7, 74, 110
9, 161496, Note_on_c, 7, 74, 0
9, 161496, Note_on_c, 7, 69, 0
9, 161520, Note_on_c, 7, 70, 115
9, 161520, Note_on_c, 7, 74, 115
9, 161544, Note_on_c, 7, 74, 0
9, 161544, Note_on_c, 7, 70, 0
9, 161568, Note_on_c, 7, 69, 110
9, 161568, Note_on_c, 7, 74, 110
9, 161592, Note_on_c, 7, 74, 0
9, 161592, Note_on_c, 7, 69, 0
9, 161616, Note_on_c, 7, 67, 110
9, 161616, Note_on_c, 7, 74, 110
9, 161640, Note_on_c, 7, 74, 0
9, 161640, Note_on_c, 7, 67, 0
9, 161664, Note_on_c, 7, 65, 115
9, 161664, Note_on_c, 7, 77, 115
9, 161688, Note_on_c, 7, 77, 0
9, 161688, Note_on_c, 7, 65, 0
9, 161712, Note_on_c, 7, 69, 110
9, 161712, Note_on_c, 7, 76, 110
9, 161736, Note_on_c, 7, 76, 0
9, 161736, Note_on_c, 7, 69, 0
9, 161760, Note_on_c, 7, 69, 110
9, 161760, Note_on_c, 7, 74, 110
9, 161784, Note_on_c, 7, 74, 0
9, 161784, Note_on_c, 7, 69, 0
9, 161808, Note_on_c, 7, 69, 115
9, 161808, Note_on_c, 7, 73, 115
9, 161832, Note_on_c, 7, 73, 0
9, 161832, Note_on_c, 7, 69, 0
9, 161856, Note_on_c, 7, 69, 110
9, 161856, Note_on_c, 7, 74, 110
9, 161880, Note_on_c, 7, 74, 0
9, 161880, Note_on_c, 7, 69, 0
9, 161904, Note_on_c, 7, 67, 110
9, 161904, Note_on_c, 7, 76, 110
9, 161928, Note_on_c, 7, 76, 0
9, 161928, Note_on_c, 7, 67, 0
9, 161952, Note_on_c, 7, 65, 115
9, 161952, Note_on_c, 7, 69, 115
9, 161976, Note_on_c, 7, 69, 0
9, 161976, Note_on_c, 7, 65, 0
9, 162000, Note_on_c, 7, 65, 110
9, 162000, Note_on_c, 7, 69, 110
9, 162024, Note_on_c, 7, 69, 0
9, 162024, Note_on_c, 7, 65, 0
9, 162048, Note_on_c, 7, 65, 110
9, 162048, Note_on_c, 7, 71, 110
9, 162072, Note_on_c, 7, 71, 0
9, 162072, Note_on_c, 7, 65, 0
9, 162096, Note_on_c, 7, 65, 115
9, 162096, Note_on_c, 7, 71, 115
9, 162120, Note_on_c, 7, 71, 0
9, 162120, Note_on_c, 7, 65, 0
9, 162144, Note_on_c, 7, 62, 110
9, 162144, Note_on_c, 7, 71, 110
9, 162168, Note_on_c, 7, 71, 0
9, 162168, Note_on_c, 7, 62, 0
9, 162192, Note_on_c, 7, 65, 110
9, 162192, Note_on_c, 7, 74, 110
9, 162216, Note_on_c, 7, 74, 0
9, 162216, Note_on_c, 7, 65, 0
9, 162240, Note_on_c, 7, 64, 115
9, 162240, Note_on_c, 7, 76, 115
9, 162264, Note_on_c, 7, 76, 0
9, 162264, Note_on_c, 7, 64, 0
9, 162288, Note_on_c, 7, 67, 110
9, 162288, Note_on_c, 7, 74, 110
9, 162312, Note_on_c, 7, 74, 0
9, 162312, Note_on_c, 7, 67, 0
9, 162336, Note_on_c, 7, 67, 110
9, 162336, Note_on_c, 7, 72, 110
9, 162360, Note_on_c, 7, 72, 0
9, 162360, Note_on_c, 7, 67, 0
9, 162384, Note_on_c, 7, 67, 115
9, 162384, Note_on_c, 7, 71, 115
9, 162408, Note_on_c, 7, 71, 0
9, 162408, Note_on_c, 7, 67, 0
9, 162432, Note_on_c, 7, 67, 110
9, 162432, Note_on_c, 7, 72, 110
9, 162456, Note_on_c, 7, 72, 0
9, 162456, Note_on_c, 7, 67, 0
9, 162480, Note_on_c, 7, 67, 110
9, 162480, Note_on_c, 7, 74, 110
9, 162504, Note_on_c, 7, 74, 0
9, 162504, Note_on_c, 7, 67, 0
9, 162528, Note_on_c, 7, 67, 115
9, 162528, Note_on_c, 7, 72, 115
9, 162552, Note_on_c, 7, 72, 0
9, 162552, Note_on_c, 7, 67, 0
9, 162576, Note_on_c, 7, 77, 110
9, 162576, Note_on_c, 7, 81, 110
9, 162600, Note_on_c, 7, 81, 0
9, 162600, Note_on_c, 7, 77, 0
9, 162624, Note_on_c, 7, 77, 110
9, 162624, Note_on_c, 7, 81, 110
9, 162648, Note_on_c, 7, 81, 0
9, 162648, Note_on_c, 7, 77, 0
9, 162672, Note_on_c, 7, 77, 115
9, 162672, Note_on_c, 7, 81, 115
9, 162696, Note_on_c, 7, 81, 0
9, 162696, Note_on_c, 7, 77, 0
9, 162720, Note_on_c, 7, 74, 110
9, 162720, Note_on_c, 7, 79, 110
9, 162744, Note_on_c, 7, 79, 0
9, 162744, Note_on_c, 7, 74, 0
9, 162768, Note_on_c, 7, 74, 110
9, 162768, Note_on_c, 7, 77, 110
9, 162792, Note_on_c, 7, 77, 0
9, 162792, Note_on_c, 7, 74, 0
9, 162816, Note_on_c, 7, 67, 115
9, 162816, Note_on_c, 7, 76, 115
9, 162840, Note_on_c, 7, 76, 0
9, 162840, Note_on_c, 7, 67, 0
9, 162864, Note_on_c, 7, 67, 110
9, 162864, Note_on_c, 7, 74, 110
9, 162888, Note_on_c, 7, 74, 0
9, 162888, Note_on_c, 7, 67, 0
9, 162912, Note_on_c, 7, 67, 110
9, 162912, Note_on_c, 7, 72, 110
9, 162936, Note_on_c, 7, 72, 0
9, 162936, Note_on_c, 7, 67, 0
9, 162960, Note_on_c, 7, 67, 115
9, 162960, Note_on_c, 7, 79, 115
9, 162984, Note_on_c, 7, 79, 0
9, 162984, Note_on_c, 7, 67, 0
9, 163008, Note_on_c, 7, 67, 110
9, 163008, Note_on_c, 7, 77, 110
9, 163032, Note_on_c, 7, 77, 0
9, 163032, Note_on_c, 7, 67, 0
9, 163056, Note_on_c, 7, 67, 110
9, 163056, Note_on_c, 7, 76, 110
9, 163080, Note_on_c, 7, 76, 0
9, 163080, Note_on_c, 7, 67, 0
9, 163104, Note_on_c, 7, 67, 115
9, 163104, Note_on_c, 7, 79, 115
9, 163128, Note_on_c, 7, 79, 0
9, 163128, Note_on_c, 7, 67, 0
9, 163152, Note_on_c, 7, 67, 110
9, 163152, Note_on_c, 7, 77, 110
9, 163176, Note_on_c, 7, 77, 0
9, 163176, Note_on_c, 7, 67, 0
9, 163200, Note_on_c, 7, 67, 110
9, 163200, Note_on_c, 7, 76, 110
9, 163224, Note_on_c, 7, 76, 0
9, 163224, Note_on_c, 7, 67, 0
9, 163248, Note_on_c, 7, 67, 110
9, 163248, Note_on_c, 7, 74, 110
9, 163272, Note_on_c, 7, 74, 0
9, 163272, Note_on_c, 7, 67, 0
9, 164400, Control_c, 7, 1, 0
9, 164400, Control_c, 7, 11, 60
9, 164400, Note_on_c, 7, 67, 110
9, 164401, Control_c, 7, 1, 2
9, 164402, Control_c, 7, 1, 3
9, 164403, Control_c, 7, 1, 4
9, 164404, Control_c, 7, 1, 5
9, 164405, Control_c, 7, 1, 6
9, 164406, Control_c, 7, 1, 7
9, 164408, Control_c, 7, 1, 8
9, 164409, Control_c, 7, 1, 9
9, 164411, Control_c, 7, 1, 10
9, 164412, Control_c, 7, 1, 11
9, 164414, Control_c, 7, 1, 12
9, 164416, Control_c, 7, 1, 13
9, 164418, Control_c, 7, 1, 14
9, 164420, Control_c, 7, 11, 61
9, 164421, Control_c, 7, 1, 15
9, 164424, Control_c, 7, 1, 16
9, 164428, Control_c, 7, 1, 17
9, 164432, Control_c, 7, 1, 18
9, 164439, Control_c, 7, 11, 62
9, 164439, Control_c, 7, 1, 19
9, 164451, Control_c, 7, 1, 20
9, 164458, Control_c, 7, 11, 63
9, 164477, Control_c, 7, 11, 64
9, 164496, Control_c, 7, 11, 65
9, 164516, Control_c, 7, 11, 66
9, 164535, Control_c, 7, 11, 67
9, 164554, Control_c, 7, 11, 68
9, 164573, Control_c, 7, 11, 69
9, 164592, Control_c, 7, 11, 70
9, 164612, Control_c, 7, 11, 71
9, 164631, Control_c, 7, 11, 72
9, 164650, Control_c, 7, 11, 73
9, 164669, Control_c, 7, 11, 74
9, 164688, Note_on_c, 7, 69, 110
9, 164688, Control_c, 7, 11, 75
9, 164707, Control_c, 7, 11, 76
9, 164727, Control_c, 7, 11, 77
9, 164746, Control_c, 7, 11, 78
9, 164765, Control_c, 7, 11, 79
9, 164784, Control_c, 7, 11, 80
9, 164803, Control_c, 7, 11, 81
9, 164823, Control_c, 7, 11, 82
9, 164832, Note_on_c, 7, 65, 110
9, 164833, Note_on_c, 7, 67, 0
9, 164842, Control_c, 7, 11, 83
9, 164861, Control_c, 7, 11, 84
9, 164880, Control_c, 7, 11, 85
9, 164899, Control_c, 7, 11, 86
9, 164918, Control_c, 7, 11, 87
9, 164938, Control_c, 7, 11, 88
9, 164957, Control_c, 7, 11, 89
9, 164976, Note_on_c, 7, 68, 110
9, 164976, Control_c, 7, 11, 90
9, 164977, Note_on_c, 7, 69, 0
9, 164995, Control_c, 7, 11, 91
9, 165014, Control_c, 7, 11, 92
9, 165034, Control_c, 7, 11, 93
9, 165053, Control_c, 7, 11, 94
9, 165072, Control_c, 7, 11, 95
9, 165091, Control_c, 7, 11, 96
9, 165110, Control_c, 7, 11, 97
9, 165120, Note_on_c, 7, 64, 110
9, 165120, Note_on_c, 7, 67, 110
9, 165121, Note_on_c, 7, 68, 0
9, 165121, Note_on_c, 7, 65, 0
9, 165129, Control_c, 7, 11, 98
9, 165149, Control_c, 7, 11, 99
9, 165168, Control_c, 7, 11, 100
9, 165187, Control_c, 7, 11, 101
9, 165206, Control_c, 7, 11, 102
9, 165225, Control_c, 7, 11, 103
9, 165245, Control_c, 7, 11, 104
9, 165264, Note_on_c, 7, 63, 110
9, 165264, Control_c, 7, 11, 105
9, 165265, Note_on_c, 7, 64, 0
9, 165283, Control_c, 7, 11, 106
9, 165302, Control_c, 7, 11, 107
9, 165321, Control_c, 7, 11, 108
9, 165340, Control_c, 7, 11, 109
9, 165360, Control_c, 7, 11, 110
9, 165379, Control_c, 7, 11, 111
9, 165398, Control_c, 7, 11, 112
9, 165408, Note_on_c, 7, 62, 110
9, 165409, Note_on_c, 7, 63, 0
9, 165417, Control_c, 7, 11, 113
9, 165436, Control_c, 7, 11, 114
9, 165456, Control_c, 7, 11, 115
9, 165475, Control_c, 7, 11, 116
9, 165494, Control_c, 7, 11, 117
9, 165513, Control_c, 7, 11, 118
9, 165532, Control_c, 7, 11, 119
9, 165551, Note_on_c, 7, 67, 0
9, 165551, Note_on_c, 7, 62, 0
9, 165551, Control_c, 7, 11, 120
9, 165552, Control_c, 7, 1, 0
9, 165552, Note_on_c, 7, 72, 113
9, 165552, Note_on_c, 7, 60, 113
9, 165600, Note_on_c, 7, 60, 0
9, 165600, Note_on_c, 7, 64, 113
9, 165648, Note_on_c, 7, 64, 0
9, 165648, Note_on_c, 7, 72, 0
9, 165648, Note_on_c, 7, 65, 111
9, 165648, Note_on_c, 7, 74, 111
9, 165672, Note_on_c, 7, 74, 0
9, 165672, Note_on_c, 7, 65, 0
9, 165672, Note_on_c, 7, 67, 112
9, 165672, Note_on_c, 7, 76, 112
9, 165696, Note_on_c, 7, 76, 0
9, 165696, Note_on_c, 7, 67, 0
9, 165696, Note_on_c, 7, 69, 113
9, 165696, Note_on_c, 7, 77, 113
9, 165720, Note_on_c, 7, 77, 0
9, 165720, Note_on_c, 7, 69, 0
9, 165792, Note_on_c, 7, 67, 110
9, 165792, Note_on_c, 7, 76, 110
9, 165816, Note_on_c, 7, 76, 0
9, 165816, Note_on_c, 7, 67, 0
9, 165840, Note_on_c, 7, 65, 113
9, 165840, Note_on_c, 7, 74, 113
9, 165864, Note_on_c, 7, 74, 0
9, 165864, Note_on_c, 7, 65, 0
9, 165936, Note_on_c, 7, 64, 110
9, 165936, Note_on_c, 7, 72, 113
9, 165960, Note_on_c, 7, 72, 0
9, 165960, Note_on_c, 7, 64, 0
9, 165984, Note_on_c, 7, 65, 113
9, 165984, Note_on_c, 7, 74, 113
9, 166008, Note_on_c, 7, 74, 0
9, 166008, Note_on_c, 7, 65, 0
9, 166080, Note_on_c, 7, 62, 110
9, 166080, Note_on_c, 7, 71, 110
9, 166104, Note_on_c, 7, 71, 0
9, 166104, Note_on_c, 7, 62, 0
9, 166128, Note_on_c, 7, 60, 113
9, 166128, Note_on_c, 7, 64, 113
9, 166224, Note_on_c, 7, 64, 0
9, 166224, Note_on_c, 7, 60, 0
9, 166224, Note_on_c, 7, 62, 111
9, 166224, Note_on_c, 7, 65, 111
9, 166248, Note_on_c, 7, 65, 0
9, 166248, Note_on_c, 7, 62, 0
9, 166248, Note_on_c, 7, 64, 112
9, 166248, Note_on_c, 7, 67, 112
9, 166272, Note_on_c, 7, 67, 0
9, 166272, Note_on_c, 7, 64, 0
9, 166272, Note_on_c, 7, 65, 113
9, 166272, Note_on_c, 7, 69, 113
9, 166296, Note_on_c, 7, 69, 0
9, 166296, Note_on_c, 7, 65, 0
9, 166368, Note_on_c, 7, 64, 110
9, 166368, Note_on_c, 7, 67, 110
9, 166392, Note_on_c, 7, 67, 0
9, 166392, Note_on_c, 7, 64, 0
9, 166416, Note_on_c, 7, 62, 113
9, 166416, Note_on_c, 7, 65, 113
9, 166440, Note_on_c, 7, 65, 0
9, 166440, Note_on_c, 7, 62, 0
9, 166512, Note_on_c, 7, 60, 110
9, 166512, Note_on_c, 7, 64, 110
9, 166536, Note_on_c, 7, 64, 0
9, 166536, Note_on_c, 7, 60, 0
9, 166560, Note_on_c, 7, 62, 113
9, 166560, Note_on_c, 7, 65, 113
9, 166584, Note_on_c, 7, 65, 0
9, 166584, Note_on_c, 7, 62, 0
9, 166656, Note_on_c, 7, 59, 110
9, 166656, Note_on_c, 7, 62, 110
9, 166680, Note_on_c, 7, 62, 0
9, 166680, Note_on_c, 7, 59, 0
9, 166704, Note_on_c, 7, 60, 113
9, 166704, Note_on_c, 7, 64, 113
9, 166728, Note_on_c, 7, 64, 0
9, 166728, Note_on_c, 7, 60, 0
9, 166752, Note_on_c, 7, 64, 110
9, 166752, Note_on_c, 7, 72, 110
9, 166800, Note_on_c, 7, 72, 0
9, 166800, Note_on_c, 7, 64, 0
9, 166800, Note_on_c, 7, 65, 111
9, 166800, Note_on_c, 7, 74, 111
9, 166824, Note_on_c, 7, 74, 0
9, 166824, Note_on_c, 7, 65, 0
9, 166824, Note_on_c, 7, 67, 112
9, 166824, Note_on_c, 7, 76, 112
9, 166848, Note_on_c, 7, 76, 0
9, 166848, Note_on_c, 7, 67, 0
9, 166848, Note_on_c, 7, 69, 113
9, 166848, Note_on_c, 7, 77, 113
9, 166872, Note_on_c, 7, 77, 0
9, 166872, Note_on_c, 7, 69, 0
9, 166896, Note_on_c, 7, 69, 110
9, 166896, Note_on_c, 7, 77, 110
9, 166920, Note_on_c, 7, 77, 0
9, 166920, Note_on_c, 7, 69, 0
9, 166944, Note_on_c, 7, 67, 110
9, 166944, Note_on_c, 7, 76, 110
9, 166968, Note_on_c, 7, 76, 0
9, 166968, Note_on_c, 7, 67, 0
9, 166992, Note_on_c, 7, 65, 113
9, 166992, Note_on_c, 7, 74, 113
9, 167016, Note_on_c, 7, 74, 0
9, 167016, Note_on_c, 7, 65, 0
9, 167040, Note_on_c, 7, 65, 110
9, 167040, Note_on_c, 7, 74, 110
9, 167064, Note_on_c, 7, 74, 0
9, 167064, Note_on_c, 7, 65, 0
9, 167088, Note_on_c, 7, 64, 110
9, 167088, Note_on_c, 7, 72, 110
9, 167112, Note_on_c, 7, 72, 0
9, 167112, Note_on_c, 7, 64, 0
9, 167136, Note_on_c, 7, 65, 113
9, 167136, Note_on_c, 7, 74, 113
9, 167160, Note_on_c, 7, 74, 0
9, 167160, Note_on_c, 7, 65, 0
9, 167184, Note_on_c, 7, 65, 110
9, 167184, Note_on_c, 7, 74, 110
9, 167208, Note_on_c, 7, 74, 0
9, 167208, Note_on_c, 7, 65, 0
9, 167232, Note_on_c, 7, 62, 110
9, 167232, Note_on_c, 7, 71, 110
9, 167256, Note_on_c, 7, 71, 0
9, 167256, Note_on_c, 7, 62, 0
9, 167280, Note_on_c, 7, 64, 113
9, 167280, Note_on_c, 7, 72, 113
9, 167304, Note_on_c, 7, 72, 0
9, 167304, Note_on_c, 7, 64, 0
9, 167328, Note_on_c, 7, 60, 110
9, 167328, Note_on_c, 7, 64, 110
9, 167376, Note_on_c, 7, 64, 0
9, 167376, Note_on_c, 7, 60, 0
9, 167376, Note_on_c, 7, 62, 111
9, 167376, Note_on_c, 7, 65, 111
9, 167400, Note_on_c, 7, 65, 0
9, 167400, Note_on_c, 7, 62, 0
9, 167400, Note_on_c, 7, 64, 112
9, 167400, Note_on_c, 7, 67, 112
9, 167424, Note_on_c, 7, 67, 0
9, 167424, Note_on_c, 7, 64, 0
9, 167424, Note_on_c, 7, 65, 113
9, 167424, Note_on_c, 7, 69, 113
9, 167448, Note_on_c, 7, 69, 0
9, 167448, Note_on_c, 7, 65, 0
9, 167472, Note_on_c, 7, 65, 110
9, 167472, Note_on_c, 7, 69, 110
9, 167496, Note_on_c, 7, 69, 0
9, 167496, Note_on_c, 7, 65, 0
9, 167520, Note_on_c, 7, 64, 110
9, 167520, Note_on_c, 7, 67, 110
9, 167544, Note_on_c, 7, 67, 0
9, 167544, Note_on_c, 7, 64, 0
9, 167568, Note_on_c, 7, 62, 113
9, 167568, Note_on_c, 7, 65, 113
9, 167592, Note_on_c, 7, 65, 0
9, 167592, Note_on_c, 7, 62, 0
9, 167616, Note_on_c, 7, 62, 110
9, 167616, Note_on_c, 7, 65, 110
9, 167640, Note_on_c, 7, 65, 0
9, 167640, Note_on_c, 7, 62, 0
9, 167664, Note_on_c, 7, 60, 110
9, 167664, Note_on_c, 7, 64, 110
9, 167688, Note_on_c, 7, 64, 0
9, 167688, Note_on_c, 7, 60, 0
9, 167712, Note_on_c, 7, 62, 113
9, 167712, Note_on_c, 7, 65, 113
9, 167736, Note_on_c, 7, 65, 0
9, 167736, Note_on_c, 7, 62, 0
9, 167760, Note_on_c, 7, 62, 110
9, 167760, Note_on_c, 7, 65, 110
9, 167784, Note_on_c, 7, 65, 0
9, 167784, Note_on_c, 7, 62, 0
9, 167808, Note_on_c, 7, 62, 110
9, 167808, Note_on_c, 7, 71, 110
9, 167832, Note_on_c, 7, 71, 0
9, 167832, Note_on_c, 7, 62, 0
9, 167856, Note_on_c, 7, 60, 120
9, 167856, Note_on_c, 7, 64, 120
9, 167891, Note_on_c, 7, 64, 0
9, 167891, Note_on_c, 7, 60, 0
9, 167928, Note_on_c, 7, 52, 113
9, 167928, Note_on_c, 7, 64, 113
9, 167940, Note_on_c, 7, 64, 0
9, 167940, Note_on_c, 7, 52, 0
9, 167952, Note_on_c, 7, 52, 113
9, 167952, Note_on_c, 7, 64, 113
9, 167976, Note_on_c, 7, 64, 0
9, 167976, Note_on_c, 7, 52, 0
9, 168000, Note_on_c, 7, 52, 116
9, 168000, Note_on_c, 7, 64, 116
9, 168024, Note_on_c, 7, 64, 0
9, 168024, Note_on_c, 7, 52, 0
9, 168048, Note_on_c, 7, 53, 113
9, 168048, Note_on_c, 7, 65, 113
9, 168072, Note_on_c, 7, 65, 0
9, 168072, Note_on_c, 7, 53, 0
9, 168096, Note_on_c, 7, 55, 113
9, 168096, Note_on_c, 7, 67, 113
9, 168120, Note_on_c, 7, 67, 0
9, 168120, Note_on_c, 7, 55, 0
9, 168144, Note_on_c, 7, 57, 113
9, 168144, Note_on_c, 7, 69, 113
9, 168168, Note_on_c, 7, 69, 0
9, 168168, Note_on_c, 7, 57, 0
9, 168288, Note_on_c, 7, 57, 116
9, 168288, Note_on_c, 7, 69, 116
9, 168312, Note_on_c, 7, 69, 0
9, 168312, Note_on_c, 7, 57, 0
9, 168336, Note_on_c, 7, 59, 113
9, 168336, Note_on_c, 7, 71, 113
9, 168360, Note_on_c, 7, 71, 0
9, 168360, Note_on_c, 7, 59, 0
9, 168384, Note_on_c, 7, 60, 113
9, 168384, Note_on_c, 7, 72, 113
9, 168408, Note_on_c, 7, 72, 0
9, 168408, Note_on_c, 7, 60, 0
9, 168432, Note_on_c, 7, 62, 120
9, 168432, Note_on_c, 7, 74, 120
9, 168467, Note_on_c, 7, 74, 0
9, 168467, Note_on_c, 7, 62, 0
9, 168504, Note_on_c, 7, 62, 113
9, 168504, Note_on_c, 7, 74, 113
9, 168516, Note_on_c, 7, 74, 0
9, 168516, Note_on_c, 7, 62, 0
9, 168528, Note_on_c, 7, 62, 113
9, 168528, Note_on_c, 7, 74, 113
9, 168552, Note_on_c, 7, 74, 0
9, 168552, Note_on_c, 7, 62, 0
9, 168576, Note_on_c, 7, 62, 116
9, 168576, Note_on_c, 7, 74, 116
9, 168600, Note_on_c, 7, 74, 0
9, 168600, Note_on_c, 7, 62, 0
9, 168624, Note_on_c, 7, 64, 113
9, 168624, Note_on_c, 7, 76, 113
9, 168648, Note_on_c, 7, 76, 0
9, 168648, Note_on_c, 7, 64, 0
9, 168672, Note_on_c, 7, 65, 113
9, 168672, Note_on_c, 7, 77, 113
9, 168696, Note_on_c, 7, 77, 0
9, 168696, Note_on_c, 7, 65, 0
9, 168720, Note_on_c, 7, 67, 113
9, 168720, Note_on_c, 7, 79, 113
9, 168744, Note_on_c, 7, 79, 0
9, 168744, Note_on_c, 7, 67, 0
9, 168864, Note_on_c, 7, 55, 116
9, 168864, Note_on_c, 7, 67, 116
9, 168888, Note_on_c, 7, 67, 0
9, 168888, Note_on_c, 7, 55, 0
9, 168912, Note_on_c, 7, 60, 113
9, 168912, Note_on_c, 7, 72, 113
9, 168936, Note_on_c, 7, 72, 0
9, 168936, Note_on_c, 7, 60, 0
9, 168960, Note_on_c, 7, 62, 113
9, 168960, Note_on_c, 7, 74, 113
9, 168984, Note_on_c, 7, 74, 0
9, 168984, Note_on_c, 7, 62, 0
9, 169008, Note_on_c, 7, 64, 60
9, 169008, Note_on_c, 7, 76, 60
9, 169032, Note_on_c, 7, 76, 0
9, 169032, Note_on_c, 7, 64, 0
9, 169872, Control_c, 7, 11, 60
9, 169872, Control_c, 7, 1, 0
9, 169872, Note_on_c, 7, 67, 100
9, 169873, Control_c, 7, 1, 3
9, 169874, Control_c, 7, 1, 4
9, 169875, Control_c, 7, 1, 6
9, 169876, Control_c, 7, 1, 7
9, 169877, Control_c, 7, 1, 9
9, 169878, Control_c, 7, 1, 10
9, 169879, Control_c, 7, 1, 11
9, 169880, Control_c, 7, 1, 12
9, 169882, Control_c, 7, 11, 61
9, 169882, Control_c, 7, 1, 13
9, 169883, Control_c, 7, 1, 14
9, 169885, Control_c, 7, 1, 15
9, 169888, Control_c, 7, 1, 16
9, 169891, Control_c, 7, 1, 17
9, 169892, Control_c, 7, 11, 62
9, 169896, Control_c, 7, 1, 18
9, 169901, Control_c, 7, 11, 63
9, 169911, Control_c, 7, 11, 64
9, 169920, Note_on_c, 7, 67, 0
9, 169920, Note_on_c, 7, 60, 100
9, 169920, Control_c, 7, 11, 65
9, 169930, Control_c, 7, 11, 66
9, 169940, Control_c, 7, 11, 67
9, 169949, Control_c, 7, 11, 68
9, 169959, Control_c, 7, 11, 69
9, 169968, Note_on_c, 7, 60, 0
9, 169968, Note_on_c, 7, 62, 100
9, 169968, Control_c, 7, 11, 70
9, 169978, Control_c, 7, 11, 71
9, 169987, Control_c, 7, 11, 72
9, 169997, Control_c, 7, 11, 73
9, 170007, Control_c, 7, 11, 74
9, 170016, Note_on_c, 7, 62, 0
9, 170016, Note_on_c, 7, 64, 100
9, 170016, Control_c, 7, 11, 75
9, 170026, Control_c, 7, 11, 76
9, 170035, Control_c, 7, 11, 77
9, 170045, Control_c, 7, 11, 78
9, 170055, Control_c, 7, 11, 79
9, 170064, Note_on_c, 7, 64, 0
9, 170064, Note_on_c, 7, 65, 100
9, 170064, Control_c, 7, 11, 80
9, 170074, Control_c, 7, 11, 81
9, 170083, Control_c, 7, 11, 82
9, 170093, Control_c, 7, 11, 83
9, 170102, Control_c, 7, 11, 84
9, 170112, Note_on_c, 7, 65, 0
9, 170112, Note_on_c, 7, 67, 100
9, 170112, Control_c, 7, 11, 85
9, 170122, Control_c, 7, 11, 86
9, 170131, Control_c, 7, 11, 87
9, 170141, Control_c, 7, 11, 88
9, 170150, Control_c, 7, 11, 89
9, 170160, Note_on_c, 7, 67, 0
9, 170160, Note_on_c, 7, 66, 100
9, 170160, Control_c, 7, 11, 90
9, 170170, Control_c, 7, 11, 91
9, 170179, Control_c, 7, 11, 92
9, 170189, Control_c, 7, 11, 93
9, 170198, Control_c, 7, 11, 94
9, 170208, Note_on_c, 7, 66, 0
9, 170208, Note_on_c, 7, 67, 100
9, 170208, Control_c, 7, 11, 95
9, 170217, Control_c, 7, 11, 96
9, 170227, Control_c, 7, 11, 97
9, 170237, Control_c, 7, 11, 98
9, 170246, Control_c, 7, 11, 99
9, 170256, Note_on_c, 7, 67, 0
9, 170256, Note_on_c, 7, 69, 100
9, 170256, Control_c, 7, 11, 100
9, 170265, Control_c, 7, 11, 101
9, 170275, Control_c, 7, 11, 102
9, 170285, Control_c, 7, 11, 103
9, 170294, Control_c, 7, 11, 104
9, 170304, Note_on_c, 7, 69, 0
9, 170304, Note_on_c, 7, 67, 100
9, 170304, Control_c, 7, 11, 105
9, 170313, Control_c, 7, 11, 106
9, 170323, Control_c, 7, 11, 107
9, 170332, Control_c, 7, 11, 108
9, 170342, Control_c, 7, 11, 109
9, 170352, Note_on_c, 7, 67, 0
9, 170352, Note_on_c, 7, 71, 100
9, 170352, Note_on_c, 7, 74, 100
9, 170352, Control_c, 7, 11, 110
9, 170361, Control_c, 7, 11, 111
9, 170371, Control_c, 7, 11, 112
9, 170380, Control_c, 7, 11, 113
9, 170390, Control_c, 7, 11, 114
9, 170400, Note_on_c, 7, 74, 0
9, 170400, Note_on_c, 7, 71, 0
9, 170400, Note_on_c, 7, 67, 100
9, 170400, Note_on_c, 7, 72, 100
9, 170400, Control_c, 7, 11, 115
9, 170409, Control_c, 7, 11, 116
9, 170419, Control_c, 7, 11, 117
9, 170428, Control_c, 7, 11, 118
9, 170438, Control_c, 7, 11, 119
9, 170447, Control_c, 7, 11, 120
9, 170448, Note_on_c, 7, 72, 0
9, 170448, Note_on_c, 7, 67, 0
9, 170448, Control_c, 7, 1, 0
9, 170448, Note_on_c, 7, 55, 105
9, 170448, Note_on_c, 7, 67, 105
9, 170472, Note_on_c, 7, 67, 0
9, 170472, Note_on_c, 7, 55, 0
9, 170496, Note_on_c, 7, 64, 100
9, 170496, Note_on_c, 7, 76, 100
9, 170520, Note_on_c, 7, 76, 0
9, 170520, Note_on_c, 7, 64, 0
9, 170544, Note_on_c, 7, 65, 100
9, 170544, Note_on_c, 7, 69, 100
9, 170568, Note_on_c, 7, 69, 0
9, 170568, Note_on_c, 7, 65, 0
9, 170592, Note_on_c, 7, 65, 105
9, 170592, Note_on_c, 7, 77, 105
9, 170616, Note_on_c, 7, 77, 0
9, 170616, Note_on_c, 7, 65, 0
9, 170640, Note_on_c, 7, 67, 100
9, 170640, Note_on_c, 7, 74, 100
9, 170664, Note_on_c, 7, 74, 0
9, 170664, Note_on_c, 7, 67, 0
9, 170688, Note_on_c, 7, 71, 100
9, 170688, Note_on_c, 7, 74, 100
9, 170712, Note_on_c, 7, 74, 0
9, 170712, Note_on_c, 7, 71, 0
9, 170736, Note_on_c, 7, 72, 100
9, 170736, Note_on_c, 7, 76, 100
9, 170760, Note_on_c, 7, 76, 0
9, 170760, Note_on_c, 7, 72, 0
9, 171024, Note_on_c, 7, 55, 105
9, 171024, Note_on_c, 7, 67, 105
9, 171048, Note_on_c, 7, 67, 0
9, 171048, Note_on_c, 7, 55, 0
9, 171072, Note_on_c, 7, 64, 100
9, 171072, Note_on_c, 7, 76, 100
9, 171096, Note_on_c, 7, 76, 0
9, 171096, Note_on_c, 7, 64, 0
9, 171120, Note_on_c, 7, 65, 100
9, 171120, Note_on_c, 7, 69, 100
9, 171144, Note_on_c, 7, 69, 0
9, 171144, Note_on_c, 7, 65, 0
9, 171168, Note_on_c, 7, 65, 105
9, 171168, Note_on_c, 7, 77, 105
9, 171192, Note_on_c, 7, 77, 0
9, 171192, Note_on_c, 7, 65, 0
9, 171216, Note_on_c, 7, 67, 100
9, 171216, Note_on_c, 7, 74, 100
9, 171240, Note_on_c, 7, 74, 0
9, 171240, Note_on_c, 7, 67, 0
9, 171264, Note_on_c, 7, 71, 100
9, 171264, Note_on_c, 7, 74, 100
9, 171288, Note_on_c, 7, 74, 0
9, 171288, Note_on_c, 7, 71, 0
9, 171312, Note_on_c, 7, 72, 105
9, 171312, Note_on_c, 7, 76, 105
9, 171336, Note_on_c, 7, 76, 0
9, 171336, Note_on_c, 7, 72, 0
9, 171360, Note_on_c, 7, 67, 100
9, 171360, Note_on_c, 7, 79, 100
9, 171384, Note_on_c, 7, 79, 0
9, 171384, Note_on_c, 7, 67, 0
9, 171408, Note_on_c, 7, 67, 100
9, 171408, Note_on_c, 7, 79, 100
9, 171432, Note_on_c, 7, 79, 0
9, 171432, Note_on_c, 7, 67, 0
9, 171456, Note_on_c, 7, 67, 105
9, 171456, Note_on_c, 7, 79, 105
9, 171480, Note_on_c, 7, 79, 0
9, 171480, Note_on_c, 7, 67, 0
9, 171504, Note_on_c, 7, 67, 100
9, 171504, Note_on_c, 7, 79, 100
9, 171528, Note_on_c, 7, 79, 0
9, 171528, Note_on_c, 7, 67, 0
9, 171552, Note_on_c, 7, 67, 100
9, 171552, Note_on_c, 7, 79, 100
9, 171576, Note_on_c, 7, 79, 0
9, 171576, Note_on_c, 7, 67, 0
9, 171600, Note_on_c, 7, 72, 105
9, 171600, Note_on_c, 7, 76, 105
9, 171624, Note_on_c, 7, 76, 0
9, 171624, Note_on_c, 7, 72, 0
9, 171648, Note_on_c, 7, 67, 100
9, 171648, Note_on_c, 7, 72, 100
9, 171672, Note_on_c, 7, 72, 0
9, 171672, Note_on_c, 7, 67, 0
9, 171696, Note_on_c, 7, 76, 100
9, 171696, Note_on_c, 7, 79, 100
9, 171720, Note_on_c, 7, 79, 0
9, 171720, Note_on_c, 7, 76, 0
9, 171744, Note_on_c, 7, 74, 105
9, 171744, Note_on_c, 7, 77, 105
9, 171768, Note_on_c, 7, 77, 0
9, 171768, Note_on_c, 7, 74, 0
9, 171792, Note_on_c, 7, 67, 100
9, 171792, Note_on_c, 7, 74, 100
9, 171816, Note_on_c, 7, 74, 0
9, 171816, Note_on_c, 7, 67, 0
9, 171840, Note_on_c, 7, 77, 100
9, 171840, Note_on_c, 7, 79, 100
9, 171864, Note_on_c, 7, 79, 0
9, 171864, Note_on_c, 7, 77, 0
9, 171888, Note_on_c, 7, 72, 105
9, 171888, Note_on_c, 7, 76, 105
9, 171912, Note_on_c, 7, 76, 0
9, 171912, Note_on_c, 7, 72, 0
9, 171936, Note_on_c, 7, 67, 100
9, 171936, Note_on_c, 7, 72, 100
9, 171960, Note_on_c, 7, 72, 0
9, 171960, Note_on_c, 7, 67, 0
9, 171984, Note_on_c, 7, 76, 100
9, 171984, Note_on_c, 7, 79, 100
9, 172008, Note_on_c, 7, 79, 0
9, 172008, Note_on_c, 7, 76, 0
9, 172032, Note_on_c, 7, 74, 105
9, 172032, Note_on_c, 7, 77, 105
9, 172056, Note_on_c, 7, 77, 0
9, 172056, Note_on_c, 7, 74, 0
9, 172080, Note_on_c, 7, 67, 100
9, 172080, Note_on_c, 7, 74, 100
9, 172104, Note_on_c, 7, 74, 0
9, 172104, Note_on_c, 7, 67, 0
9, 172128, Note_on_c, 7, 77, 100
9, 172128, Note_on_c, 7, 79, 100
9, 172152, Note_on_c, 7, 79, 0
9, 172152, Note_on_c, 7, 77, 0
9, 172176, Control_c, 7, 1, 0
9, 172176, Note_on_c, 7, 55, 46
9, 172177, Control_c, 7, 1, 2
9, 172178, Control_c, 7, 1, 3
9, 172179, Control_c, 7, 1, 4
9, 172181, Control_c, 7, 1, 5
9, 172182, Control_c, 7, 1, 6
9, 172183, Control_c, 7, 1, 7
9, 172185, Control_c, 7, 1, 8
9, 172186, Control_c, 7, 1, 9
9, 172188, Control_c, 7, 1, 10
9, 172190, Control_c, 7, 1, 11
9, 172192, Control_c, 7, 1, 12
9, 172195, Control_c, 7, 1, 13
9, 172198, Control_c, 7, 1, 14
9, 172202, Control_c, 7, 1, 15
9, 172207, Control_c, 7, 1, 16
9, 172214, Control_c, 7, 1, 17
9, 172224, Note_on_c, 7, 55, 0
9, 172224, Note_on_c, 7, 57, 48
9, 172225, Control_c, 7, 1, 18
9, 172272, Note_on_c, 7, 57, 0
9, 172272, Note_on_c, 7, 59, 50
9, 172320, Note_on_c, 7, 59, 0
9, 172320, Note_on_c, 7, 60, 51
9, 172368, Note_on_c, 7, 60, 0
9, 172368, Note_on_c, 7, 62, 53
9, 172416, Note_on_c, 7, 62, 0
9, 172416, Note_on_c, 7, 64, 55
9, 172464, Note_on_c, 7, 64, 0
9, 172464, Note_on_c, 7, 65, 56
9, 172512, Note_on_c, 7, 65, 0
9, 172512, Note_on_c, 7, 64, 55
9, 172560, Note_on_c, 7, 64, 0
9, 172560, Note_on_c, 7, 65, 56
9, 172608, Note_on_c, 7, 65, 0
9, 172608, Note_on_c, 7, 67, 58
9, 172656, Note_on_c, 7, 67, 0
9, 172656, Note_on_c, 7, 69, 60
9, 172704, Note_on_c, 7, 69, 0
9, 172704, Note_on_c, 7, 71, 62
9, 172752, Note_on_c, 7, 71, 0
9, 172752, Control_c, 7, 1, 0
9, 172752, Note_on_c, 7, 72, 50
9, 172776, Note_on_c, 7, 72, 0
9, 172896, Note_on_c, 7, 60, 55
9, 172896, Note_on_c, 7, 64, 55
9, 172931, Note_on_c, 7, 64, 0
9, 172931, Note_on_c, 7, 60, 0
9, 172968, Note_on_c, 7, 60, 50
9, 172968, Note_on_c, 7, 64, 50
9, 172980, Note_on_c, 7, 64, 0
9, 172980, Note_on_c, 7, 60, 0
9, 172992, Note_on_c, 7, 60, 50
9, 172992, Note_on_c, 7, 64, 50
9, 173016, Note_on_c, 7, 64, 0
9, 173016, Note_on_c, 7, 60, 0
9, 173040, Note_on_c, 7, 60, 50
9, 173040, Note_on_c, 7, 69, 50
9, 173064, Note_on_c, 7, 69, 0
9, 173064, Note_on_c, 7, 60, 0
9, 173184, Note_on_c, 7, 65, 55
9, 173184, Note_on_c, 7, 69, 55
9, 173219, Note_on_c, 7, 69, 0
9, 173219, Note_on_c, 7, 65, 0
9, 173256, Note_on_c, 7, 65, 50
9, 173256, Note_on_c, 7, 69, 50
9, 173268, Note_on_c, 7, 69, 0
9, 173268, Note_on_c, 7, 65, 0
9, 173280, Note_on_c, 7, 65, 50
9, 173280, Note_on_c, 7, 69, 50
9, 173304, Note_on_c, 7, 69, 0
9, 173304, Note_on_c, 7, 65, 0
9, 173328, Note_on_c, 7, 65, 50
9, 173328, Note_on_c, 7, 69, 50
9, 173352, Note_on_c, 7, 69, 0
9, 173352, Note_on_c, 7, 65, 0
9, 174048, Note_on_c, 7, 62, 60
9, 174048, Note_on_c, 7, 65, 60
9, 174083, Note_on_c, 7, 65, 0
9, 174083, Note_on_c, 7, 62, 0
9, 174120, Note_on_c, 7, 62, 50
9, 174120, Note_on_c, 7, 65, 50
9, 174132, Note_on_c, 7, 65, 0
9, 174132, Note_on_c, 7, 62, 0
9, 174144, Note_on_c, 7, 62, 50
9, 174144, Note_on_c, 7, 65, 50
9, 174168, Note_on_c, 7, 65, 0
9, 174168, Note_on_c, 7, 62, 0
9, 174192, Note_on_c, 7, 62, 50
9, 174192, Note_on_c, 7, 65, 50
9, 174216, Note_on_c, 7, 65, 0
9, 174216, Note_on_c, 7, 62, 0
9, 174336, Note_on_c, 7, 63, 60
9, 174336, Note_on_c, 7, 67, 60
9, 174371, Note_on_c, 7, 67, 0
9, 174371, Note_on_c, 7, 63, 0
9, 174408, Note_on_c, 7, 63, 50
9, 174408, Note_on_c, 7, 67, 50
9, 174420, Note_on_c, 7, 67, 0
9, 174420, Note_on_c, 7, 63, 0
9, 174432, Note_on_c, 7, 63, 50
9, 174432, Note_on_c, 7, 67, 50
9, 174456, Note_on_c, 7, 67, 0
9, 174456, Note_on_c, 7, 63, 0
9, 174480, Note_on_c, 7, 63, 50
9, 174480, Note_on_c, 7, 67, 50
9, 174504, Note_on_c, 7, 67, 0
9, 174504, Note_on_c, 7, 63, 0
9, 175200, Note_on_c, 7, 63, 60
9, 175200, Note_on_c, 7, 67, 60
9, 175235, Note_on_c, 7, 67, 0
9, 175235, Note_on_c, 7, 63, 0
9, 175272, Note_on_c, 7, 63, 61
9, 175272, Note_on_c, 7, 67, 61
9, 175284, Note_on_c, 7, 67, 0
9, 175284, Note_on_c, 7, 63, 0
9, 175296, Note_on_c, 7, 63, 62
9, 175296, Note_on_c, 7, 67, 62
9, 175320, Note_on_c, 7, 67, 0
9, 175320, Note_on_c, 7, 63, 0
9, 175344, Note_on_c, 7, 63, 63
9, 175344, Note_on_c, 7, 68, 63
9, 175368, Note_on_c, 7, 68, 0
9, 175368, Note_on_c, 7, 63, 0
9, 175488, Note_on_c, 7, 65, 66
9, 175488, Note_on_c, 7, 68, 66
9, 175523, Note_on_c, 7, 68, 0
9, 175523, Note_on_c, 7, 65, 0
9, 175560, Note_on_c, 7, 65, 68
9, 175560, Note_on_c, 7, 68, 68
9, 175572, Note_on_c, 7, 68, 0
9, 175572, Note_on_c, 7, 65, 0
9, 175584, Note_on_c, 7, 65, 69
9, 175584, Note_on_c, 7, 68, 69
9, 175608, Note_on_c, 7, 68, 0
9, 175608, Note_on_c, 7, 65, 0
9, 175632, Note_on_c, 7, 65, 70
9, 175632, Note_on_c, 7, 68, 70
9, 175656, Note_on_c, 7, 68, 0
9, 175656, Note_on_c, 7, 65, 0
9, 175776, Note_on_c, 7, 65, 73
9, 175776, Note_on_c, 7, 70, 73
9, 175811, Note_on_c, 7, 70, 0
9, 175811, Note_on_c, 7, 65, 0
9, 175848, Note_on_c, 7, 65, 73
9, 175848, Note_on_c, 7, 70, 75
9, 175860, Note_on_c, 7, 70, 0
9, 175860, Note_on_c, 7, 65, 0
9, 175872, Note_on_c, 7, 65, 75
9, 175872, Note_on_c, 7, 70, 75
9, 175896, Note_on_c, 7, 70, 0
9, 175896, Note_on_c, 7, 65, 0
9, 175920, Note_on_c, 7, 65, 76
9, 175920, Note_on_c, 7, 70, 76
9, 175944, Note_on_c, 7, 70, 0
9, 175944, Note_on_c, 7, 65, 0
9, 176064, Note_on_c, 7, 66, 80
9, 176064, Note_on_c, 7, 70, 80
9, 176099, Note_on_c, 7, 70, 0
9, 176099, Note_on_c, 7, 66, 0
9, 176136, Note_on_c, 7, 66, 81
9, 176136, Note_on_c, 7, 70, 81
9, 176148, Note_on_c, 7, 70, 0
9, 176148, Note_on_c, 7, 66, 0
9, 176160, Note_on_c, 7, 66, 82
9, 176160, Note_on_c, 7, 70, 82
9, 176184, Note_on_c, 7, 70, 0
9, 176184, Note_on_c, 7, 66, 0
9, 176208, Note_on_c, 7, 66, 83
9, 176208, Note_on_c, 7, 71, 83
9, 176232, Note_on_c, 7, 71, 0
9, 176232, Note_on_c, 7, 66, 0
9, 176352, Note_on_c, 7, 68, 87
9, 176352, Note_on_c, 7, 71, 87
9, 176387, Note_on_c, 7, 71, 0
9, 176387, Note_on_c, 7, 68, 0
9, 176424, Note_on_c, 7, 68, 88
9, 176424, Note_on_c, 7, 71, 88
9, 176436, Note_on_c, 7, 71, 0
9, 176436, Note_on_c, 7, 68, 0
9, 176448, Note_on_c, 7, 68, 89
9, 176448, Note_on_c, 7, 71, 89
9, 176472, Note_on_c, 7, 71, 0
9, 176472, Note_on_c, 7, 68, 0
9, 176496, Note_on_c, 7, 68, 90
9, 176496, Note_on_c, 7, 71, 90
9, 176520, Note_on_c, 7, 71, 0
9, 176520, Note_on_c, 7, 68, 0
9, 176640, Note_on_c, 7, 68, 93
9, 176640, Note_on_c, 7, 73, 93
9, 176675, Note_on_c, 7, 73, 0
9, 176675, Note_on_c, 7, 68, 0
9, 176712, Note_on_c, 7, 68, 95
9, 176712, Note_on_c, 7, 73, 95
9, 176724, Note_on_c, 7, 73, 0
9, 176724, Note_on_c, 7, 68, 0
9, 176736, Note_on_c, 7, 68, 96
9, 176736, Note_on_c, 7, 73, 96
9, 176760, Note_on_c, 7, 73, 0
9, 176760, Note_on_c, 7, 68, 0
9, 176784, Note_on_c, 7, 69, 100
9, 176784, Note_on_c, 7, 73, 100
9, 176808, Note_on_c, 7, 73, 0
9, 176808, Note_on_c, 7, 69, 0
9, 176928, Note_on_c, 7, 69, 100
9, 176928, Note_on_c, 7, 81, 100
9, 176963, Note_on_c, 7, 81, 0
9, 176963, Note_on_c, 7, 69, 0
9, 177000, Note_on_c, 7, 57, 100
9, 177000, Note_on_c, 7, 69, 100
9, 177012, Note_on_c, 7, 69, 0
9, 177012, Note_on_c, 7, 57, 0
9, 177024, Note_on_c, 7, 57, 100
9, 177024, Note_on_c, 7, 69, 100
9, 177048, Note_on_c, 7, 69, 0
9, 177048, Note_on_c, 7, 57, 0
9, 177216, Note_on_c, 7, 58, 113
9, 177216, Note_on_c, 7, 70, 113
9, 177251, Note_on_c, 7, 70, 0
9, 177251, Note_on_c, 7, 58, 0
9, 177288, Note_on_c, 7, 58, 113
9, 177300, Note_on_c, 7, 58, 0
9, 177312, Note_on_c, 7, 58, 113
9, 177336, Note_on_c, 7, 58, 0
9, 177504, Note_on_c, 7, 59, 113
9, 177504, Note_on_c, 7, 71, 113
9, 177539, Note_on_c, 7, 71, 0
9, 177539, Note_on_c, 7, 59, 0
9, 177576, Note_on_c, 7, 59, 113
9, 177588, Note_on_c, 7, 59, 0
9, 177600, Note_on_c, 7, 59, 113
9, 177672, Note_on_c, 7, 59, 0
9, 178128, Note_on_c, 7, 71, 75
9, 178163, Note_on_c, 7, 71, 0
9, 178200, Note_on_c, 7, 59, 70
9, 178212, Note_on_c, 7, 59, 0
9, 178224, Note_on_c, 7, 59, 70
9, 178248, Note_on_c, 7, 59, 0
9, 178272, Note_on_c, 7, 64, 65
9, 178296, Note_on_c, 7, 64, 0
9, 178320, Note_on_c, 7, 63, 60
9, 178320, Note_on_c, 7, 66, 60
9, 178344, Note_on_c, 7, 66, 0
9, 178344, Note_on_c, 7, 63, 0
9, 178368, Note_on_c, 7, 64, 60
9, 178368, Note_on_c, 7, 67, 60
9, 178392, Note_on_c, 7, 67, 0
9, 178392, Note_on_c, 7, 64, 0
9, 178416, Note_on_c, 7, 63, 65
9, 178416, Note_on_c, 7, 66, 65
9, 178440, Note_on_c, 7, 66, 0
9, 178440, Note_on_c, 7, 63, 0
9, 178464, Note_on_c, 7, 64, 60
9, 178464, Note_on_c, 7, 67, 60
9, 178488, Note_on_c, 7, 67, 0
9, 178488, Note_on_c, 7, 64, 0
9, 178512, Note_on_c, 7, 66, 60
9, 178512, Note_on_c, 7, 69, 60
9, 178536, Note_on_c, 7, 69, 0
9, 178536, Note_on_c, 7, 66, 0
9, 178560, Note_on_c, 7, 64, 65
9, 178560, Note_on_c, 7, 67, 65
9, 178584, Note_on_c, 7, 67, 0
9, 178584, Note_on_c, 7, 64, 0
9, 178608, Note_on_c, 7, 67, 60
9, 178608, Note_on_c, 7, 71, 60
9, 178632, Note_on_c, 7, 71, 0
9, 178632, Note_on_c, 7, 67, 0
9, 178656, Note_on_c, 7, 67, 60
9, 178656, Note_on_c, 7, 71, 60
9, 178680, Note_on_c, 7, 71, 0
9, 178680, Note_on_c, 7, 67, 0
9, 178704, Note_on_c, 7, 67, 65
9, 178704, Note_on_c, 7, 71, 65
9, 178728, Note_on_c, 7, 71, 0
9, 178728, Note_on_c, 7, 67, 0
9, 178752, Note_on_c, 7, 66, 60
9, 178752, Note_on_c, 7, 69, 60
9, 178776, Note_on_c, 7, 69, 0
9, 178776, Note_on_c, 7, 66, 0
9, 178800, Note_on_c, 7, 64, 60
9, 178800, Note_on_c, 7, 67, 60
9, 178824, Note_on_c, 7, 67, 0
9, 178824, Note_on_c, 7, 64, 0
9, 178848, Note_on_c, 7, 66, 65
9, 178848, Note_on_c, 7, 69, 65
9, 178872, Note_on_c, 7, 69, 0
9, 178872, Note_on_c, 7, 66, 0
9, 178896, Note_on_c, 7, 64, 60
9, 178896, Note_on_c, 7, 67, 60
9, 178920, Note_on_c, 7, 67, 0
9, 178920, Note_on_c, 7, 64, 0
9, 178944, Note_on_c, 7, 63, 60
9, 178944, Note_on_c, 7, 66, 60
9, 178968, Note_on_c, 7, 66, 0
9, 178968, Note_on_c, 7, 63, 0
9, 178992, Note_on_c, 7, 64, 65
9, 178992, Note_on_c, 7, 68, 65
9, 179016, Note_on_c, 7, 68, 0
9, 179016, Note_on_c, 7, 64, 0
9, 179040, Note_on_c, 7, 64, 60
9, 179040, Note_on_c, 7, 76, 60
9, 179064, Note_on_c, 7, 76, 0
9, 179064, Note_on_c, 7, 64, 0
9, 179088, Note_on_c, 7, 64, 60
9, 179088, Note_on_c, 7, 76, 60
9, 179112, Note_on_c, 7, 76, 0
9, 179112, Note_on_c, 7, 64, 0
9, 179136, Note_on_c, 7, 72, 65
9, 179136, Note_on_c, 7, 76, 65
9, 179160, Note_on_c, 7, 76, 0
9, 179160, Note_on_c, 7, 72, 0
9, 179184, Note_on_c, 7, 71, 60
9, 179184, Note_on_c, 7, 74, 60
9, 179208, Note_on_c, 7, 74, 0
9, 179208, Note_on_c, 7, 71, 0
9, 179232, Note_on_c, 7, 69, 60
9, 179232, Note_on_c, 7, 72, 60
9, 179256, Note_on_c, 7, 72, 0
9, 179256, Note_on_c, 7, 69, 0
9, 179280, Note_on_c, 7, 71, 65
9, 179280, Note_on_c, 7, 74, 65
9, 179304, Note_on_c, 7, 74, 0
9, 179304, Note_on_c, 7, 71, 0
9, 179328, Note_on_c, 7, 69, 60
9, 179328, Note_on_c, 7, 72, 60
9, 179352, Note_on_c, 7, 72, 0
9, 179352, Note_on_c, 7, 69, 0
9, 179376, Note_on_c, 7, 68, 60
9, 179376, Note_on_c, 7, 71, 60
9, 179400, Note_on_c, 7, 71, 0
9, 179400, Note_on_c, 7, 68, 0
9, 179424, Note_on_c, 7, 76, 65
9, 179459, Note_on_c, 7, 76, 0
9, 179496, Note_on_c, 7, 64, 60
9, 179508, Note_on_c, 7, 64, 0
9, 179520, Note_on_c, 7, 64, 60
9, 179544, Note_on_c, 7, 64, 0
9, 179568, Note_on_c, 7, 64, 65
9, 179568, Note_on_c, 7, 69, 65
9, 179592, Note_on_c, 7, 69, 0
9, 179592, Note_on_c, 7, 64, 0
9, 179616, Note_on_c, 7, 68, 60
9, 179616, Note_on_c, 7, 71, 60
9, 179640, Note_on_c, 7, 71, 0
9, 179640, Note_on_c, 7, 68, 0
9, 179664, Note_on_c, 7, 69, 60
9, 179664, Note_on_c, 7, 72, 60
9, 179688, Note_on_c, 7, 72, 0
9, 179688, Note_on_c, 7, 69, 0
9, 179712, Note_on_c, 7, 68, 65
9, 179712, Note_on_c, 7, 71, 65
9, 179736, Note_on_c, 7, 71, 0
9, 179736, Note_on_c, 7, 68, 0
9, 179760, Note_on_c, 7, 69, 60
9, 179760, Note_on_c, 7, 72, 60
9, 179784, Note_on_c, 7, 72, 0
9, 179784, Note_on_c, 7, 69, 0
9, 179808, Note_on_c, 7, 71, 60
9, 179808, Note_on_c, 7, 74, 60
9, 179832, Note_on_c, 7, 74, 0
9, 179832, Note_on_c, 7, 71, 0
9, 179856, Note_on_c, 7, 69, 65
9, 179856, Note_on_c, 7, 72, 65
9, 179880, Note_on_c, 7, 72, 0
9, 179880, Note_on_c, 7, 69, 0
9, 179904, Note_on_c, 7, 72, 60
9, 179904, Note_on_c, 7, 76, 60
9, 179928, Note_on_c, 7, 76, 0
9, 179928, Note_on_c, 7, 72, 0
9, 179952, Note_on_c, 7, 72, 60
9, 179952, Note_on_c, 7, 76, 60
9, 179976, Note_on_c, 7, 76, 0
9, 179976, Note_on_c, 7, 72, 0
9, 180000, Note_on_c, 7, 72, 65
9, 180000, Note_on_c, 7, 76, 65
9, 180024, Note_on_c, 7, 76, 0
9, 180024, Note_on_c, 7, 72, 0
9, 180048, Note_on_c, 7, 71, 60
9, 180048, Note_on_c, 7, 74, 60
9, 180072, Note_on_c, 7, 74, 0
9, 180072, Note_on_c, 7, 71, 0
9, 180096, Note_on_c, 7, 69, 60
9, 180096, Note_on_c, 7, 72, 60
9, 180120, Note_on_c, 7, 72, 0
9, 180120, Note_on_c, 7, 69, 0
9, 180144, Note_on_c, 7, 71, 65
9, 180144, Note_on_c, 7, 74, 65
9, 180168, Note_on_c, 7, 74, 0
9, 180168, Note_on_c, 7, 71, 0
9, 180192, Note_on_c, 7, 69, 60
9, 180192, Note_on_c, 7, 72, 60
9, 180216, Note_on_c, 7, 72, 0
9, 180216, Note_on_c, 7, 69, 0
9, 180240, Note_on_c, 7, 68, 60
9, 180240, Note_on_c, 7, 71, 60
9, 180264, Note_on_c, 7, 71, 0
9, 180264, Note_on_c, 7, 68, 0
9, 180432, Note_on_c, 7, 65, 65
9, 180432, Note_on_c, 7, 69, 65
9, 180456, Note_on_c, 7, 69, 0
9, 180456, Note_on_c, 7, 65, 0
9, 180480, Note_on_c, 7, 67, 60
9, 180480, Note_on_c, 7, 70, 60
9, 180504, Note_on_c, 7, 70, 0
9, 180504, Note_on_c, 7, 67, 0
9, 180528, Note_on_c, 7, 69, 60
9, 180528, Note_on_c, 7, 72, 60
9, 180552, Note_on_c, 7, 72, 0
9, 180552, Note_on_c, 7, 69, 0
9, 180576, Note_on_c, 7, 67, 65
9, 180576, Note_on_c, 7, 70, 65
9, 180600, Note_on_c, 7, 70, 0
9, 180600, Note_on_c, 7, 67, 0
9, 180624, Note_on_c, 7, 69, 60
9, 180624, Note_on_c, 7, 72, 60
9, 180648, Note_on_c, 7, 72, 0
9, 180648, Note_on_c, 7, 69, 0
9, 180672, Note_on_c, 7, 70, 60
9, 180672, Note_on_c, 7, 74, 60
9, 180696, Note_on_c, 7, 74, 0
9, 180696, Note_on_c, 7, 70, 0
9, 180864, Note_on_c, 7, 69, 65
9, 180864, Note_on_c, 7, 72, 65
9, 180888, Note_on_c, 7, 72, 0
9, 180888, Note_on_c, 7, 69, 0
9, 180912, Note_on_c, 7, 67, 60
9, 180912, Note_on_c, 7, 76, 60
9, 180936, Note_on_c, 7, 76, 0
9, 180936, Note_on_c, 7, 67, 0
9, 180960, Note_on_c, 7, 69, 60
9, 180960, Note_on_c, 7, 77, 60
9, 180984, Note_on_c, 7, 77, 0
9, 180984, Note_on_c, 7, 69, 0
9, 181008, Note_on_c, 7, 67, 65
9, 181008, Note_on_c, 7, 76, 65
9, 181032, Note_on_c, 7, 76, 0
9, 181032, Note_on_c, 7, 67, 0
9, 181056, Note_on_c, 7, 69, 60
9, 181056, Note_on_c, 7, 77, 60
9, 181080, Note_on_c, 7, 77, 0
9, 181080, Note_on_c, 7, 69, 0
9, 181104, Note_on_c, 7, 70, 60
9, 181104, Note_on_c, 7, 79, 60
9, 181128, Note_on_c, 7, 79, 0
9, 181128, Note_on_c, 7, 70, 0
9, 181296, Note_on_c, 7, 69, 65
9, 181296, Note_on_c, 7, 72, 65
9, 181320, Note_on_c, 7, 72, 0
9, 181320, Note_on_c, 7, 69, 0
9, 181344, Note_on_c, 7, 67, 60
9, 181344, Note_on_c, 7, 70, 60
9, 181368, Note_on_c, 7, 70, 0
9, 181368, Note_on_c, 7, 67, 0
9, 181392, Note_on_c, 7, 65, 60
9, 181392, Note_on_c, 7, 69, 60
9, 181416, Note_on_c, 7, 69, 0
9, 181416, Note_on_c, 7, 65, 0
9, 181440, Note_on_c, 7, 70, 65
9, 181440, Note_on_c, 7, 74, 65
9, 181464, Note_on_c, 7, 74, 0
9, 181464, Note_on_c, 7, 70, 0
9, 181488, Note_on_c, 7, 69, 60
9, 181488, Note_on_c, 7, 72, 60
9, 181512, Note_on_c, 7, 72, 0
9, 181512, Note_on_c, 7, 69, 0
9, 181536, Note_on_c, 7, 67, 60
9, 181536, Note_on_c, 7, 70, 60
9, 181560, Note_on_c, 7, 70, 0
9, 181560, Note_on_c, 7, 67, 0
9, 181728, Note_on_c, 7, 65, 65
9, 181728, Note_on_c, 7, 69, 65
9, 181752, Note_on_c, 7, 69, 0
9, 181752, Note_on_c, 7, 65, 0
9, 181776, Note_on_c, 7, 60, 60
9, 181776, Note_on_c, 7, 72, 60
9, 181800, Note_on_c, 7, 72, 0
9, 181800, Note_on_c, 7, 60, 0
9, 181824, Note_on_c, 7, 60, 60
9, 181824, Note_on_c, 7, 72, 60
9, 181848, Note_on_c, 7, 72, 0
9, 181848, Note_on_c, 7, 60, 0
9, 181872, Note_on_c, 7, 60, 65
9, 181872, Note_on_c, 7, 72, 65
9, 181896, Note_on_c, 7, 72, 0
9, 181896, Note_on_c, 7, 60, 0
9, 181920, Note_on_c, 7, 60, 60
9, 181920, Note_on_c, 7, 72, 60
9, 181944, Note_on_c, 7, 72, 0
9, 181944, Note_on_c, 7, 60, 0
9, 181968, Note_on_c, 7, 60, 60
9, 181968, Note_on_c, 7, 72, 60
9, 181992, Note_on_c, 7, 72, 0
9, 181992, Note_on_c, 7, 60, 0
9, 182016, Note_on_c, 7, 69, 65
9, 182016, Note_on_c, 7, 77, 65
9, 182040, Note_on_c, 7, 77, 0
9, 182040, Note_on_c, 7, 69, 0
9, 182064, Note_on_c, 7, 70, 60
9, 182064, Note_on_c, 7, 79, 60
9, 182088, Note_on_c, 7, 79, 0
9, 182088, Note_on_c, 7, 70, 0
9, 182112, Note_on_c, 7, 72, 60
9, 182112, Note_on_c, 7, 81, 60
9, 182136, Note_on_c, 7, 81, 0
9, 182136, Note_on_c, 7, 72, 0
9, 182160, Note_on_c, 7, 72, 65
9, 182160, Note_on_c, 7, 81, 65
9, 182184, Note_on_c, 7, 81, 0
9, 182184, Note_on_c, 7, 72, 0
9, 182208, Note_on_c, 7, 70, 60
9, 182208, Note_on_c, 7, 79, 60
9, 182232, Note_on_c, 7, 79, 0
9, 182232, Note_on_c, 7, 70, 0
9, 182256, Note_on_c, 7, 69, 60
9, 182256, Note_on_c, 7, 77, 60
9, 182280, Note_on_c, 7, 77, 0
9, 182280, Note_on_c, 7, 69, 0
9, 182304, Note_on_c, 7, 69, 65
9, 182304, Note_on_c, 7, 77, 65
9, 182328, Note_on_c, 7, 77, 0
9, 182328, Note_on_c, 7, 69, 0
9, 182352, Note_on_c, 7, 70, 60
9, 182352, Note_on_c, 7, 79, 60
9, 182376, Note_on_c, 7, 79, 0
9, 182376, Note_on_c, 7, 70, 0
9, 182400, Note_on_c, 7, 69, 60
9, 182400, Note_on_c, 7, 77, 60
9, 182424, Note_on_c, 7, 77, 0
9, 182424, Note_on_c, 7, 69, 0
9, 182880, Note_on_c, 7, 65, 55
9, 182880, Note_on_c, 7, 74, 55
9, 182904, Note_on_c, 7, 74, 0
9, 182904, Note_on_c, 7, 65, 0
9, 182928, Note_on_c, 7, 67, 50
9, 182928, Note_on_c, 7, 76, 50
9, 182952, Note_on_c, 7, 76, 0
9, 182952, Note_on_c, 7, 67, 0
9, 182976, Note_on_c, 7, 69, 50
9, 182976, Note_on_c, 7, 77, 50
9, 183000, Note_on_c, 7, 77, 0
9, 183000, Note_on_c, 7, 69, 0
9, 183024, Note_on_c, 7, 69, 55
9, 183024, Note_on_c, 7, 77, 55
9, 183048, Note_on_c, 7, 77, 0
9, 183048, Note_on_c, 7, 69, 0
9, 183072, Note_on_c, 7, 67, 50
9, 183072, Note_on_c, 7, 76, 50
9, 183096, Note_on_c, 7, 76, 0
9, 183096, Note_on_c, 7, 67, 0
9, 183120, Note_on_c, 7, 65, 50
9, 183120, Note_on_c, 7, 74, 50
9, 183144, Note_on_c, 7, 74, 0
9, 183144, Note_on_c, 7, 65, 0
9, 183168, Note_on_c, 7, 65, 55
9, 183168, Note_on_c, 7, 74, 55
9, 183192, Note_on_c, 7, 74, 0
9, 183192, Note_on_c, 7, 65, 0
9, 183216, Note_on_c, 7, 67, 50
9, 183216, Note_on_c, 7, 76, 50
9, 183240, Note_on_c, 7, 76, 0
9, 183240, Note_on_c, 7, 67, 0
9, 183264, Note_on_c, 7, 65, 50
9, 183264, Note_on_c, 7, 74, 50
9, 183288, Note_on_c, 7, 74, 0
9, 183288, Note_on_c, 7, 65, 0
9, 183312, Note_on_c, 7, 57, 55
9, 183312, Note_on_c, 7, 69, 55
9, 183336, Note_on_c, 7, 69, 0
9, 183336, Note_on_c, 7, 57, 0
9, 183360, Note_on_c, 7, 57, 50
9, 183360, Note_on_c, 7, 69, 50
9, 183384, Note_on_c, 7, 69, 0
9, 183384, Note_on_c, 7, 57, 0
9, 183408, Note_on_c, 7, 57, 50
9, 183408, Note_on_c, 7, 69, 50
9, 183432, Note_on_c, 7, 69, 0
9, 183432, Note_on_c, 7, 57, 0
9, 183456, Note_on_c, 7, 57, 55
9, 183456, Note_on_c, 7, 69, 55
9, 183480, Note_on_c, 7, 69, 0
9, 183480, Note_on_c, 7, 57, 0
9, 183504, Note_on_c, 7, 57, 50
9, 183504, Note_on_c, 7, 69, 50
9, 183528, Note_on_c, 7, 69, 0
9, 183528, Note_on_c, 7, 57, 0
9, 183552, Note_on_c, 7, 57, 50
9, 183552, Note_on_c, 7, 69, 50
9, 183576, Note_on_c, 7, 69, 0
9, 183576, Note_on_c, 7, 57, 0
9, 183600, Note_on_c, 7, 57, 55
9, 183600, Note_on_c, 7, 69, 55
9, 183624, Note_on_c, 7, 69, 0
9, 183624, Note_on_c, 7, 57, 0
9, 183648, Note_on_c, 7, 57, 50
9, 183648, Note_on_c, 7, 69, 50
9, 183672, Note_on_c, 7, 69, 0
9, 183672, Note_on_c, 7, 57, 0
9, 183696, Note_on_c, 7, 57, 50
9, 183696, Note_on_c, 7, 69, 50
9, 183720, Note_on_c, 7, 69, 0
9, 183720, Note_on_c, 7, 57, 0
9, 183744, Note_on_c, 7, 57, 55
9, 183744, Note_on_c, 7, 69, 55
9, 183768, Note_on_c, 7, 69, 0
9, 183768, Note_on_c, 7, 57, 0
9, 183792, Note_on_c, 7, 57, 50
9, 183792, Note_on_c, 7, 69, 50
9, 183816, Note_on_c, 7, 69, 0
9, 183816, Note_on_c, 7, 57, 0
9, 183840, Note_on_c, 7, 57, 50
9, 183840, Note_on_c, 7, 69, 50
9, 183864, Note_on_c, 7, 69, 0
9, 183864, Note_on_c, 7, 57, 0
9, 183888, Note_on_c, 7, 57, 55
9, 183888, Note_on_c, 7, 69, 55
9, 183912, Note_on_c, 7, 69, 0
9, 183912, Note_on_c, 7, 57, 0
9, 183936, Note_on_c, 7, 57, 50
9, 183936, Note_on_c, 7, 69, 50
9, 183960, Note_on_c, 7, 69, 0
9, 183960, Note_on_c, 7, 57, 0
9, 183984, Note_on_c, 7, 57, 50
9, 183984, Note_on_c, 7, 69, 50
9, 184008, Note_on_c, 7, 69, 0
9, 184008, Note_on_c, 7, 57, 0
9, 184032, Note_on_c, 7, 57, 55
9, 184032, Note_on_c, 7, 69, 55
9, 184056, Note_on_c, 7, 69, 0
9, 184056, Note_on_c, 7, 57, 0
9, 184080, Note_on_c, 7, 57, 50
9, 184080, Note_on_c, 7, 69, 50
9, 184104, Note_on_c, 7, 69, 0
9, 184104, Note_on_c, 7, 57, 0
9, 184128, Note_on_c, 7, 57, 50
9, 184128, Note_on_c, 7, 69, 50
9, 184152, Note_on_c, 7, 69, 0
9, 184152, Note_on_c, 7, 57, 0
9, 184176, Note_on_c, 7, 57, 55
9, 184176, Note_on_c, 7, 69, 55
9, 184200, Note_on_c, 7, 69, 0
9, 184200, Note_on_c, 7, 57, 0
9, 184224, Note_on_c, 7, 57, 50
9, 184224, Note_on_c, 7, 69, 50
9, 184248, Note_on_c, 7, 69, 0
9, 184248, Note_on_c, 7, 57, 0
9, 184272, Note_on_c, 7, 57, 50
9, 184272, Note_on_c, 7, 69, 50
9, 184296, Note_on_c, 7, 69, 0
9, 184296, Note_on_c, 7, 57, 0
9, 184320, Note_on_c, 7, 57, 55
9, 184320, Note_on_c, 7, 69, 55
9, 184344, Note_on_c, 7, 69, 0
9, 184344, Note_on_c, 7, 57, 0
9, 184368, Note_on_c, 7, 57, 50
9, 184368, Note_on_c, 7, 69, 50
9, 184392, Note_on_c, 7, 69, 0
9, 184392, Note_on_c, 7, 57, 0
9, 184416, Note_on_c, 7, 57, 50
9, 184416, Note_on_c, 7, 69, 50
9, 184440, Note_on_c, 7, 69, 0
9, 184440, Note_on_c, 7, 57, 0
9, 184464, Note_on_c, 7, 57, 55
9, 184464, Note_on_c, 7, 69, 55
9, 184488, Note_on_c, 7, 69, 0
9, 184488, Note_on_c, 7, 57, 0
9, 184512, Note_on_c, 7, 57, 50
9, 184512, Note_on_c, 7, 69, 50
9, 184536, Note_on_c, 7, 69, 0
9, 184536, Note_on_c, 7, 57, 0
9, 184560, Note_on_c, 7, 57, 50
9, 184560, Note_on_c, 7, 69, 50
9, 184584, Note_on_c, 7, 69, 0
9, 184584, Note_on_c, 7, 57, 0
9, 184608, Note_on_c, 7, 69, 55
9, 184643, Note_on_c, 7, 69, 0
9, 184680, Note_on_c, 7, 57, 50
9, 184692, Note_on_c, 7, 57, 0
9, 184704, Note_on_c, 7, 57, 50
9, 184728, Note_on_c, 7, 57, 0
9, 184752, Note_on_c, 7, 62, 55
9, 184776, Note_on_c, 7, 62, 0
9, 184800, Note_on_c, 7, 61, 50
9, 184800, Note_on_c, 7, 64, 50
9, 184824, Note_on_c, 7, 64, 0
9, 184824, Note_on_c, 7, 61, 0
9, 184848, Note_on_c, 7, 62, 50
9, 184848, Note_on_c, 7, 65, 50
9, 184872, Note_on_c, 7, 65, 0
9, 184872, Note_on_c, 7, 62, 0
9, 184896, Note_on_c, 7, 61, 55
9, 184896, Note_on_c, 7, 64, 55
9, 184920, Note_on_c, 7, 64, 0
9, 184920, Note_on_c, 7, 61, 0
9, 184944, Note_on_c, 7, 62, 50
9, 184944, Note_on_c, 7, 65, 50
9, 184968, Note_on_c, 7, 65, 0
9, 184968, Note_on_c, 7, 62, 0
9, 184992, Note_on_c, 7, 64, 50
9, 184992, Note_on_c, 7, 67, 50
9, 185016, Note_on_c, 7, 67, 0
9, 185016, Note_on_c, 7, 64, 0
9, 185040, Note_on_c, 7, 62, 55
9, 185040, Note_on_c, 7, 65, 55
9, 185064, Note_on_c, 7, 65, 0
9, 185064, Note_on_c, 7, 62, 0
9, 185088, Note_on_c, 7, 65, 50
9, 185088, Note_on_c, 7, 69, 50
9, 185112, Note_on_c, 7, 69, 0
9, 185112, Note_on_c, 7, 65, 0
9, 185136, Note_on_c, 7, 65, 50
9, 185136, Note_on_c, 7, 69, 50
9, 185160, Note_on_c, 7, 69, 0
9, 185160, Note_on_c, 7, 65, 0
9, 185184, Note_on_c, 7, 65, 55
9, 185184, Note_on_c, 7, 69, 55
9, 185208, Note_on_c, 7, 69, 0
9, 185208, Note_on_c, 7, 65, 0
9, 185232, Note_on_c, 7, 64, 50
9, 185232, Note_on_c, 7, 67, 50
9, 185256, Note_on_c, 7, 67, 0
9, 185256, Note_on_c, 7, 64, 0
9, 185280, Note_on_c, 7, 62, 50
9, 185280, Note_on_c, 7, 65, 50
9, 185304, Note_on_c, 7, 65, 0
9, 185304, Note_on_c, 7, 62, 0
9, 185328, Note_on_c, 7, 64, 55
9, 185328, Note_on_c, 7, 67, 55
9, 185352, Note_on_c, 7, 67, 0
9, 185352, Note_on_c, 7, 64, 0
9, 185376, Note_on_c, 7, 62, 50
9, 185376, Note_on_c, 7, 65, 50
9, 185400, Note_on_c, 7, 65, 0
9, 185400, Note_on_c, 7, 62, 0
9, 185424, Note_on_c, 7, 61, 50
9, 185424, Note_on_c, 7, 64, 50
9, 185448, Note_on_c, 7, 64, 0
9, 185448, Note_on_c, 7, 61, 0
9, 185472, Note_on_c, 7, 62, 55
9, 185472, Note_on_c, 7, 65, 55
9, 185496, Note_on_c, 7, 65, 0
9, 185496, Note_on_c, 7, 62, 0
9, 185520, Note_on_c, 7, 69, 50
9, 185520, Note_on_c, 7, 77, 50
9, 185544, Note_on_c, 7, 77, 0
9, 185544, Note_on_c, 7, 69, 0
9, 185568, Note_on_c, 7, 69, 50
9, 185568, Note_on_c, 7, 77, 50
9, 185592, Note_on_c, 7, 77, 0
9, 185592, Note_on_c, 7, 69, 0
9, 185616, Note_on_c, 7, 69, 55
9, 185616, Note_on_c, 7, 77, 55
9, 185640, Note_on_c, 7, 77, 0
9, 185640, Note_on_c, 7, 69, 0
9, 185664, Note_on_c, 7, 67, 50
9, 185664, Note_on_c, 7, 76, 50
9, 185688, Note_on_c, 7, 76, 0
9, 185688, Note_on_c, 7, 67, 0
9, 185712, Note_on_c, 7, 65, 50
9, 185712, Note_on_c, 7, 74, 50
9, 185736, Note_on_c, 7, 74, 0
9, 185736, Note_on_c, 7, 65, 0
9, 185760, Note_on_c, 7, 67, 55
9, 185760, Note_on_c, 7, 76, 55
9, 185784, Note_on_c, 7, 76, 0
9, 185784, Note_on_c, 7, 67, 0
9, 185808, Note_on_c, 7, 65, 50
9, 185808, Note_on_c, 7, 74, 50
9, 185832, Note_on_c, 7, 74, 0
9, 185832, Note_on_c, 7, 65, 0
9, 185856, Note_on_c, 7, 64, 50
9, 185856, Note_on_c, 7, 73, 50
9, 185880, Note_on_c, 7, 73, 0
9, 185880, Note_on_c, 7, 64, 0
9, 185904, Note_on_c, 7, 65, 50
9, 185904, Note_on_c, 7, 74, 50
9, 185928, Note_on_c, 7, 74, 0
9, 185928, Note_on_c, 7, 65, 0
9, 186624, Note_on_c, 7, 79, 55
9, 186659, Note_on_c, 7, 79, 0
9, 186696, Note_on_c, 7, 67, 50
9, 186708, Note_on_c, 7, 67, 0
9, 186720, Note_on_c, 7, 67, 50
9, 186744, Note_on_c, 7, 67, 0
9, 186768, Note_on_c, 7, 74, 50
9, 186792, Note_on_c, 7, 74, 0
9, 186912, Note_on_c, 7, 79, 55
9, 186947, Note_on_c, 7, 79, 0
9, 186984, Note_on_c, 7, 67, 50
9, 186996, Note_on_c, 7, 67, 0
9, 187008, Note_on_c, 7, 67, 50
9, 187032, Note_on_c, 7, 67, 0
9, 187056, Note_on_c, 7, 62, 55
9, 187080, Note_on_c, 7, 62, 0
9, 187104, Note_on_c, 7, 70, 50
9, 187128, Note_on_c, 7, 70, 0
9, 187152, Note_on_c, 7, 70, 50
9, 187176, Note_on_c, 7, 70, 0
9, 187200, Note_on_c, 7, 70, 55
9, 187224, Note_on_c, 7, 70, 0
9, 187248, Note_on_c, 7, 70, 50
9, 187272, Note_on_c, 7, 70, 0
9, 187296, Note_on_c, 7, 70, 50
9, 187320, Note_on_c, 7, 70, 0
9, 187344, Note_on_c, 7, 70, 55
9, 187368, Note_on_c, 7, 70, 0
9, 187392, Note_on_c, 7, 70, 50
9, 187416, Note_on_c, 7, 70, 0
9, 187440, Note_on_c, 7, 70, 50
9, 187464, Note_on_c, 7, 70, 0
9, 187488, Note_on_c, 7, 70, 55
9, 187512, Note_on_c, 7, 70, 0
9, 187536, Note_on_c, 7, 70, 50
9, 187560, Note_on_c, 7, 70, 0
9, 187584, Note_on_c, 7, 70, 50
9, 187608, Note_on_c, 7, 70, 0
9, 187632, Note_on_c, 7, 70, 55
9, 187656, Note_on_c, 7, 70, 0
9, 187680, Note_on_c, 7, 70, 50
9, 187704, Note_on_c, 7, 70, 0
9, 187728, Note_on_c, 7, 70, 50
9, 187752, Note_on_c, 7, 70, 0
9, 187776, Note_on_c, 7, 70, 55
9, 187800, Note_on_c, 7, 70, 0
9, 187824, Note_on_c, 7, 70, 50
9, 187848, Note_on_c, 7, 70, 0
9, 187872, Note_on_c, 7, 70, 50
9, 187896, Note_on_c, 7, 70, 0
9, 187920, Note_on_c, 7, 77, 50
9, 187944, Note_on_c, 7, 77, 0
9, 188496, Note_on_c, 7, 75, 50
9, 188520, Note_on_c, 7, 75, 0
9, 188640, Note_on_c, 7, 75, 50
9, 188664, Note_on_c, 7, 75, 0
9, 188784, Note_on_c, 7, 75, 50
9, 188808, Note_on_c, 7, 75, 0
9, 188928, Note_on_c, 7, 75, 50
9, 188952, Note_on_c, 7, 75, 0
9, 189072, Note_on_c, 7, 74, 50
9, 189096, Note_on_c, 7, 74, 0
9, 189648, Note_on_c, 7, 65, 77
9, 189648, Note_on_c, 7, 74, 77
9, 189672, Note_on_c, 7, 74, 0
9, 189672, Note_on_c, 7, 65, 0
9, 189936, Note_on_c, 7, 65, 90
9, 189936, Note_on_c, 7, 69, 90
9, 189960, Note_on_c, 7, 69, 0
9, 189960, Note_on_c, 7, 65, 0
9, 190224, Note_on_c, 7, 62, 120
9, 190224, Note_on_c, 7, 65, 120
9, 190254, Note_on_c, 7, 65, 0
9, 190254, Note_on_c, 7, 62, 0
9, 190512, Note_on_c, 7, 65, 120
9, 190512, Note_on_c, 7, 69, 120
9, 190542, Note_on_c, 7, 69, 0
9, 190542, Note_on_c, 7, 65, 0
9, 190800, Note_on_c, 7, 69, 125
9, 190835, Note_on_c, 7, 69, 0
9, 190872, Note_on_c, 7, 57, 115
9, 190884, Note_on_c, 7, 57, 0
9, 190896, Note_on_c, 7, 57, 115
9, 190920, Note_on_c, 7, 57, 0
9, 190944, Note_on_c, 7, 69, 125
9, 190979, Note_on_c, 7, 69, 0
9, 191016, Note_on_c, 7, 57, 115
9, 191028, Note_on_c, 7, 57, 0
9, 191040, Note_on_c, 7, 57, 115
9, 191064, Note_on_c, 7, 57, 0
9, 191088, Note_on_c, 7, 69, 125
9, 191123, Note_on_c, 7, 69, 0
9, 191160, Note_on_c, 7, 57, 115
9, 191172, Note_on_c, 7, 57, 0
9, 191184, Note_on_c, 7, 57, 115
9, 191208, Note_on_c, 7, 57, 0
9, 191232, Note_on_c, 7, 69, 125
9, 191267, Note_on_c, 7, 69, 0
9, 191304, Note_on_c, 7, 57, 115
9, 191316, Note_on_c, 7, 57, 0
9, 191328, Note_on_c, 7, 57, 115
9, 191352, Note_on_c, 7, 57, 0
9, 191376, Note_on_c, 7, 69, 125
9, 191376, Note_on_c, 7, 81, 125
9, 191411, Note_on_c, 7, 81, 0
9, 191411, Note_on_c, 7, 69, 0
9, 191448, Note_on_c, 7, 57, 115
9, 191448, Note_on_c, 7, 69, 115
9, 191460, Note_on_c, 7, 69, 0
9, 191460, Note_on_c, 7, 57, 0
9, 191472, Note_on_c, 7, 57, 115
9, 191472, Note_on_c, 7, 69, 115
9, 191496, Note_on_c, 7, 69, 0
9, 191496, Note_on_c, 7, 57, 0
9, 191520, Note_on_c, 7, 62, 120
9, 191520, Note_on_c, 7, 74, 120
9, 191544, Note_on_c, 7, 74, 0
9, 191544, Note_on_c, 7, 62, 0
9, 191568, Note_on_c, 7, 64, 115
9, 191568, Note_on_c, 7, 76, 115
9, 191592, Note_on_c, 7, 76, 0
9, 191592, Note_on_c, 7, 64, 0
9, 191616, Note_on_c, 7, 65, 115
9, 191616, Note_on_c, 7, 77, 115
9, 191640, Note_on_c, 7, 77, 0
9, 191640, Note_on_c, 7, 65, 0
9, 191664, Note_on_c, 7, 64, 120
9, 191664, Note_on_c, 7, 76, 120
9, 191688, Note_on_c, 7, 76, 0
9, 191688, Note_on_c, 7, 64, 0
9, 191712, Note_on_c, 7, 65, 115
9, 191712, Note_on_c, 7, 77, 115
9, 191736, Note_on_c, 7, 77, 0
9, 191736, Note_on_c, 7, 65, 0
9, 191760, Note_on_c, 7, 67, 115
9, 191760, Note_on_c, 7, 79, 115
9, 191784, Note_on_c, 7, 79, 0
9, 191784, Note_on_c, 7, 67, 0
9, 191808, Note_on_c, 7, 65, 120
9, 191808, Note_on_c, 7, 77, 120
9, 191832, Note_on_c, 7, 77, 0
9, 191832, Note_on_c, 7, 65, 0
9, 191856, Note_on_c, 7, 64, 115
9, 191856, Note_on_c, 7, 76, 115
9, 191880, Note_on_c, 7, 76, 0
9, 191880, Note_on_c, 7, 64, 0
9, 191904, Note_on_c, 7, 62, 115
9, 191904, Note_on_c, 7, 74, 115
9, 191928, Note_on_c, 7, 74, 0
9, 191928, Note_on_c, 7, 62, 0
9, 191952, Note_on_c, 7, 70, 120
9, 191952, Note_on_c, 7, 82, 120
9, 191976, Note_on_c, 7, 82, 0
9, 191976, Note_on_c, 7, 70, 0
9, 192000, Note_on_c, 7, 69, 115
9, 192000, Note_on_c, 7, 81, 115
9, 192024, Note_on_c, 7, 81, 0
9, 192024, Note_on_c, 7, 69, 0
9, 192048, Note_on_c, 7, 67, 115
9, 192048, Note_on_c, 7, 79, 115
9, 192072, Note_on_c, 7, 79, 0
9, 192072, Note_on_c, 7, 67, 0
9, 192096, Note_on_c, 7, 65, 120
9, 192096, Note_on_c, 7, 77, 120
9, 192120, Note_on_c, 7, 77, 0
9, 192120, Note_on_c, 7, 65, 0
9, 192144, Note_on_c, 7, 64, 115
9, 192144, Note_on_c, 7, 76, 115
9, 192168, Note_on_c, 7, 76, 0
9, 192168, Note_on_c, 7, 64, 0
9, 192192, Note_on_c, 7, 62, 115
9, 192192, Note_on_c, 7, 74, 115
9, 192216, Note_on_c, 7, 74, 0
9, 192216, Note_on_c, 7, 62, 0
9, 192240, Note_on_c, 7, 61, 120
9, 192240, Note_on_c, 7, 73, 120
9, 192264, Note_on_c, 7, 73, 0
9, 192264, Note_on_c, 7, 61, 0
9, 192288, Note_on_c, 7, 62, 115
9, 192288, Note_on_c, 7, 74, 115
9, 192312, Note_on_c, 7, 74, 0
9, 192312, Note_on_c, 7, 62, 0
9, 192336, Note_on_c, 7, 64, 115
9, 192336, Note_on_c, 7, 76, 115
9, 192360, Note_on_c, 7, 76, 0
9, 192360, Note_on_c, 7, 64, 0
9, 192384, Note_on_c, 7, 62, 120
9, 192384, Note_on_c, 7, 74, 120
9, 192408, Note_on_c, 7, 74, 0
9, 192408, Note_on_c, 7, 62, 0
9, 192432, Note_on_c, 7, 61, 115
9, 192432, Note_on_c, 7, 73, 115
9, 192456, Note_on_c, 7, 73, 0
9, 192456, Note_on_c, 7, 61, 0
9, 192480, Note_on_c, 7, 62, 115
9, 192480, Note_on_c, 7, 74, 115
9, 192504, Note_on_c, 7, 74, 0
9, 192504, Note_on_c, 7, 62, 0
9, 192528, Note_on_c, 7, 70, 120
9, 192528, Note_on_c, 7, 82, 120
9, 192552, Note_on_c, 7, 82, 0
9, 192552, Note_on_c, 7, 70, 0
9, 192576, Note_on_c, 7, 69, 115
9, 192576, Note_on_c, 7, 81, 115
9, 192600, Note_on_c, 7, 81, 0
9, 192600, Note_on_c, 7, 69, 0
9, 192624, Note_on_c, 7, 67, 115
9, 192624, Note_on_c, 7, 79, 115
9, 192648, Note_on_c, 7, 79, 0
9, 192648, Note_on_c, 7, 67, 0
9, 192672, Note_on_c, 7, 65, 120
9, 192672, Note_on_c, 7, 77, 120
9, 192696, Note_on_c, 7, 77, 0
9, 192696, Note_on_c, 7, 65, 0
9, 192720, Note_on_c, 7, 64, 115
9, 192720, Note_on_c, 7, 76, 115
9, 192744, Note_on_c, 7, 76, 0
9, 192744, Note_on_c, 7, 64, 0
9, 192768, Note_on_c, 7, 62, 115
9, 192768, Note_on_c, 7, 74, 115
9, 192792, Note_on_c, 7, 74, 0
9, 192792, Note_on_c, 7, 62, 0
9, 192816, Note_on_c, 7, 61, 120
9, 192816, Note_on_c, 7, 73, 120
9, 192840, Note_on_c, 7, 73, 0
9, 192840, Note_on_c, 7, 61, 0
9, 192864, Note_on_c, 7, 62, 115
9, 192864, Note_on_c, 7, 74, 115
9, 192888, Note_on_c, 7, 74, 0
9, 192888, Note_on_c, 7, 62, 0
9, 192912, Note_on_c, 7, 64, 115
9, 192912, Note_on_c, 7, 76, 115
9, 192936, Note_on_c, 7, 76, 0
9, 192936, Note_on_c, 7, 64, 0
9, 192960, Note_on_c, 7, 62, 120
9, 192960, Note_on_c, 7, 74, 120
9, 192984, Note_on_c, 7, 74, 0
9, 192984, Note_on_c, 7, 62, 0
9, 193008, Note_on_c, 7, 61, 115
9, 193008, Note_on_c, 7, 73, 115
9, 193032, Note_on_c, 7, 73, 0
9, 193032, Note_on_c, 7, 61, 0
9, 193056, Note_on_c, 7, 62, 115
9, 193056, Note_on_c, 7, 74, 115
9, 193080, Note_on_c, 7, 74, 0
9, 193080, Note_on_c, 7, 62, 0
9, 193104, Note_on_c, 7, 60, 120
9, 193104, Note_on_c, 7, 72, 120
9, 193128, Note_on_c, 7, 72, 0
9, 193128, Note_on_c, 7, 60, 0
9, 193152, Note_on_c, 7, 62, 115
9, 193152, Note_on_c, 7, 74, 115
9, 193176, Note_on_c, 7, 74, 0
9, 193176, Note_on_c, 7, 62, 0
9, 193200, Note_on_c, 7, 63, 115
9, 193200, Note_on_c, 7, 75, 115
9, 193224, Note_on_c, 7, 75, 0
9, 193224, Note_on_c, 7, 63, 0
9, 193248, Note_on_c, 7, 67, 120
9, 193248, Note_on_c, 7, 79, 120
9, 193272, Note_on_c, 7, 79, 0
9, 193272, Note_on_c, 7, 67, 0
9, 193296, Note_on_c, 7, 69, 115
9, 193296, Note_on_c, 7, 81, 115
9, 193320, Note_on_c, 7, 81, 0
9, 193320, Note_on_c, 7, 69, 0
9, 193344, Note_on_c, 7, 70, 115
9, 193344, Note_on_c, 7, 82, 115
9, 193368, Note_on_c, 7, 82, 0
9, 193368, Note_on_c, 7, 70, 0
9, 193392, Note_on_c, 7, 69, 120
9, 193392, Note_on_c, 7, 81, 120
9, 193416, Note_on_c, 7, 81, 0
9, 193416, Note_on_c, 7, 69, 0
9, 193440, Note_on_c, 7, 70, 115
9, 193440, Note_on_c, 7, 82, 115
9, 193464, Note_on_c, 7, 82, 0
9, 193464, Note_on_c, 7, 70, 0
9, 193488, Note_on_c, 7, 72, 115
9, 193488, Note_on_c, 7, 84, 115
9, 193512, Note_on_c, 7, 84, 0
9, 193512, Note_on_c, 7, 72, 0
9, 193536, Note_on_c, 7, 70, 120
9, 193536, Note_on_c, 7, 82, 120
9, 193560, Note_on_c, 7, 82, 0
9, 193560, Note_on_c, 7, 70, 0
9, 193584, Note_on_c, 7, 69, 115
9, 193584, Note_on_c, 7, 81, 115
9, 193608, Note_on_c, 7, 81, 0
9, 193608, Note_on_c, 7, 69, 0
9, 193632, Note_on_c, 7, 67, 115
9, 193632, Note_on_c, 7, 79, 115
9, 193656, Note_on_c, 7, 79, 0
9, 193656, Note_on_c, 7, 67, 0
9, 193680, Note_on_c, 7, 63, 105
9, 193680, Note_on_c, 7, 75, 105
9, 193704, Note_on_c, 7, 75, 0
9, 193704, Note_on_c, 7, 63, 0
9, 193728, Note_on_c, 7, 62, 100
9, 193728, Note_on_c, 7, 74, 100
9, 193752, Note_on_c, 7, 74, 0
9, 193752, Note_on_c, 7, 62, 0
9, 193776, Note_on_c, 7, 60, 100
9, 193776, Note_on_c, 7, 72, 100
9, 193800, Note_on_c, 7, 72, 0
9, 193800, Note_on_c, 7, 60, 0
9, 193824, Note_on_c, 7, 58, 105
9, 193824, Note_on_c, 7, 70, 105
9, 193848, Note_on_c, 7, 70, 0
9, 193848, Note_on_c, 7, 58, 0
9, 193872, Note_on_c, 7, 57, 100
9, 193872, Note_on_c, 7, 69, 100
9, 193896, Note_on_c, 7, 69, 0
9, 193896, Note_on_c, 7, 57, 0
9, 193920, Note_on_c, 7, 55, 100
9, 193920, Note_on_c, 7, 67, 100
9, 193944, Note_on_c, 7, 67, 0
9, 193944, Note_on_c, 7, 55, 0
9, 193968, Note_on_c, 7, 65, 105
9, 193968, Note_on_c, 7, 77, 105
9, 193992, Note_on_c, 7, 77, 0
9, 193992, Note_on_c, 7, 65, 0
9, 194016, Note_on_c, 7, 63, 100
9, 194016, Note_on_c, 7, 75, 100
9, 194040, Note_on_c, 7, 75, 0
9, 194040, Note_on_c, 7, 63, 0
9, 194064, Note_on_c, 7, 62, 100
9, 194064, Note_on_c, 7, 74, 100
9, 194088, Note_on_c, 7, 74, 0
9, 194088, Note_on_c, 7, 62, 0
9, 194112, Note_on_c, 7, 60, 105
9, 194112, Note_on_c, 7, 72, 105
9, 194136, Note_on_c, 7, 72, 0
9, 194136, Note_on_c, 7, 60, 0
9, 194160, Note_on_c, 7, 58, 100
9, 194160, Note_on_c, 7, 70, 100
9, 194184, Note_on_c, 7, 70, 0
9, 194184, Note_on_c, 7, 58, 0
9, 194208, Note_on_c, 7, 57, 100
9, 194208, Note_on_c, 7, 69, 100
9, 194232, Note_on_c, 7, 69, 0
9, 194232, Note_on_c, 7, 57, 0
9, 194256, Note_on_c, 7, 57, 105
9, 194280, Note_on_c, 7, 57, 0
9, 194304, Note_on_c, 7, 58, 100
9, 194328, Note_on_c, 7, 58, 0
9, 194352, Note_on_c, 7, 60, 100
9, 194376, Note_on_c, 7, 60, 0
9, 194400, Note_on_c, 7, 62, 105
9, 194424, Note_on_c, 7, 62, 0
9, 194448, Note_on_c, 7, 63, 100
9, 194472, Note_on_c, 7, 63, 0
9, 194496, Note_on_c, 7, 65, 100
9, 194520, Note_on_c, 7, 65, 0
9, 194544, Note_on_c, 7, 67, 105
9, 194568, Note_on_c, 7, 67, 0
9, 194592, Note_on_c, 7, 69, 100
9, 194616, Note_on_c, 7, 69, 0
9, 194640, Note_on_c, 7, 70, 100
9, 194664, Note_on_c, 7, 70, 0
9, 194688, Note_on_c, 7, 72, 105
9, 194712, Note_on_c, 7, 72, 0
9, 194736, Note_on_c, 7, 74, 100
9, 194760, Note_on_c, 7, 74, 0
9, 194784, Note_on_c, 7, 75, 100
9, 194808, Note_on_c, 7, 75, 0
9, 194832, Note_on_c, 7, 77, 100
9, 194856, Note_on_c, 7, 77, 0
9, 195120, Control_c, 7, 1, 0
9, 195120, Control_c, 7, 11, 60
9, 195120, Note_on_c, 7, 67, 100
9, 195121, Control_c, 7, 1, 1
9, 195122, Control_c, 7, 1, 2
9, 195123, Control_c, 7, 1, 3
9, 195124, Control_c, 7, 1, 4
9, 195126, Control_c, 7, 1, 5
9, 195128, Control_c, 7, 1, 6
9, 195129, Control_c, 7, 1, 7
9, 195131, Control_c, 7, 1, 8
9, 195133, Control_c, 7, 1, 9
9, 195136, Control_c, 7, 1, 10
9, 195138, Control_c, 7, 1, 11
9, 195140, Control_c, 7, 11, 61
9, 195141, Control_c, 7, 1, 12
9, 195144, Control_c, 7, 1, 13
9, 195147, Control_c, 7, 1, 14
9, 195151, Control_c, 7, 1, 15
9, 195156, Control_c, 7, 1, 16
9, 195159, Control_c, 7, 11, 62
9, 195161, Control_c, 7, 1, 17
9, 195169, Control_c, 7, 1, 18
9, 195178, Control_c, 7, 11, 63
9, 195179, Control_c, 7, 1, 19
9, 195197, Control_c, 7, 11, 64
9, 195197, Control_c, 7, 1, 20
9, 195216, Control_c, 7, 11, 65
9, 195235, Control_c, 7, 11, 66
9, 195255, Control_c, 7, 11, 67
9, 195274, Control_c, 7, 11, 68
9, 195293, Control_c, 7, 11, 69
9, 195312, Control_c, 7, 11, 70
9, 195331, Control_c, 7, 11, 71
9, 195350, Control_c, 7, 11, 72
9, 195370, Control_c, 7, 11, 73
9, 195389, Control_c, 7, 11, 74
9, 195408, Note_on_c, 7, 69, 100
9, 195408, Control_c, 7, 11, 75
9, 195409, Note_on_c, 7, 67, 0
9, 195427, Control_c, 7, 11, 76
9, 195446, Control_c, 7, 11, 77
9, 195465, Control_c, 7, 11, 78
9, 195485, Control_c, 7, 11, 79
9, 195504, Control_c, 7, 11, 80
9, 195523, Control_c, 7, 11, 81
9, 195542, Control_c, 7, 11, 82
9, 195552, Note_on_c, 7, 70, 100
9, 195553, Note_on_c, 7, 69, 0
9, 195561, Control_c, 7, 11, 83
9, 195580, Control_c, 7, 11, 84
9, 195600, Control_c, 7, 11, 85
9, 195619, Control_c, 7, 11, 86
9, 195638, Control_c, 7, 11, 87
9, 195657, Control_c, 7, 11, 88
9, 195676, Control_c, 7, 11, 89
9, 195695, Control_c, 7, 11, 90
9, 195696, Control_c, 7, 11, 90
9, 195706, Control_c, 7, 11, 89
9, 195716, Control_c, 7, 11, 88
9, 195725, Control_c, 7, 11, 87
9, 195735, Control_c, 7, 11, 86
9, 195744, Control_c, 7, 11, 85
9, 195754, Control_c, 7, 11, 84
9, 195763, Control_c, 7, 11, 83
9, 195773, Control_c, 7, 11, 82
9, 195783, Control_c, 7, 11, 81
9, 195792, Control_c, 7, 11, 80
9, 195802, Control_c, 7, 11, 79
9, 195811, Control_c, 7, 11, 78
9, 195821, Control_c, 7, 11, 77
9, 195830, Control_c, 7, 11, 76
9, 195840, Note_on_c, 7, 69, 100
9, 195840, Control_c, 7, 11, 75
9, 195841, Note_on_c, 7, 70, 0
9, 195850, Control_c, 7, 11, 74
9, 195859, Control_c, 7, 11, 73
9, 195869, Control_c, 7, 11, 72
9, 195878, Control_c, 7, 11, 71
9, 195888, Control_c, 7, 11, 70
9, 195897, Control_c, 7, 11, 69
9, 195907, Control_c, 7, 11, 68
9, 195917, Control_c, 7, 11, 67
9, 195926, Control_c, 7, 11, 66
9, 195936, Control_c, 7, 11, 65
9, 195945, Control_c, 7, 11, 64
9, 195955, Control_c, 7, 11, 63
9, 195964, Control_c, 7, 11, 62
9, 195974, Control_c, 7, 11, 61
9, 195983, Control_c, 7, 11, 60
9, 195984, Note_on_c, 7, 69, 0
9, 195984, Note_on_c, 7, 70, 100
9, 196272, Control_c, 7, 1, 0
9, 196272, Control_c, 7, 11, 60
9, 196272, Note_on_c, 7, 69, 100
9, 196273, Note_on_c, 7, 70, 0
9, 196273, Control_c, 7, 1, 1
9, 196274, Control_c, 7, 1, 2
9, 196275, Control_c, 7, 1, 3
9, 196276, Control_c, 7, 1, 4
9, 196278, Control_c, 7, 1, 5
9, 196280, Control_c, 7, 1, 6
9, 196281, Control_c, 7, 1, 7
9, 196283, Control_c, 7, 1, 8
9, 196285, Control_c, 7, 1, 9
9, 196288, Control_c, 7, 1, 10
9, 196290, Control_c, 7, 11, 61
9, 196290, Control_c, 7, 1, 11
9, 196293, Control_c, 7, 1, 12
9, 196296, Control_c, 7, 1, 13
9, 196299, Control_c, 7, 1, 14
9, 196303, Control_c, 7, 1, 15
9, 196308, Control_c, 7, 11, 62
9, 196308, Control_c, 7, 1, 16
9, 196313, Control_c, 7, 1, 17
9, 196321, Control_c, 7, 1, 18
9, 196326, Control_c, 7, 11, 63
9, 196331, Control_c, 7, 1, 19
9, 196344, Control_c, 7, 11, 64
9, 196349, Control_c, 7, 1, 20
9, 196362, Control_c, 7, 11, 65
9, 196380, Control_c, 7, 11, 66
9, 196398, Control_c, 7, 11, 67
9, 196416, Control_c, 7, 11, 68
9, 196434, Control_c, 7, 11, 69
9, 196452, Control_c, 7, 11, 70
9, 196470, Control_c, 7, 11, 71
9, 196488, Control_c, 7, 11, 72
9, 196506, Control_c, 7, 11, 73
9, 196524, Control_c, 7, 11, 74
9, 196542, Control_c, 7, 11, 75
9, 196560, Note_on_c, 7, 71, 100
9, 196560, Control_c, 7, 11, 76
9, 196578, Control_c, 7, 11, 77
9, 196596, Control_c, 7, 11, 78
9, 196614, Control_c, 7, 11, 79
9, 196632, Control_c, 7, 11, 80
9, 196650, Control_c, 7, 11, 81
9, 196668, Control_c, 7, 11, 82
9, 196686, Control_c, 7, 11, 83
9, 196704, Note_on_c, 7, 67, 100
9, 196704, Control_c, 7, 11, 84
9, 196705, Note_on_c, 7, 69, 0
9, 196722, Control_c, 7, 11, 85
9, 196740, Control_c, 7, 11, 86
9, 196758, Control_c, 7, 11, 87
9, 196776, Control_c, 7, 11, 88
9, 196794, Control_c, 7, 11, 89
9, 196812, Control_c, 7, 11, 90
9, 196830, Control_c, 7, 11, 91
9, 196848, Note_on_c, 7, 70, 100
9, 196848, Control_c, 7, 11, 92
9, 196849, Note_on_c, 7, 71, 0
9, 196866, Control_c, 7, 11, 93
9, 196884, Control_c, 7, 11, 94
9, 196902, Control_c, 7, 11, 95
9, 196920, Control_c, 7, 11, 96
9, 196938, Control_c, 7, 11, 97
9, 196956, Control_c, 7, 11, 98
9, 196974, Control_c, 7, 11, 99
9, 196991, Control_c, 7, 11, 100
9, 196992, Control_c, 7, 11, 100
9, 196992, Note_on_c, 7, 66, 100
9, 196992, Note_on_c, 7, 69, 100
9, 196993, Note_on_c, 7, 70, 0
9, 196993, Note_on_c, 7, 67, 0
9, 197003, Control_c, 7, 11, 99
9, 197014, Control_c, 7, 11, 98
9, 197025, Control_c, 7, 11, 97
9, 197036, Control_c, 7, 11, 96
9, 197046, Control_c, 7, 11, 95
9, 197057, Control_c, 7, 11, 94
9, 197068, Control_c, 7, 11, 93
9, 197079, Control_c, 7, 11, 92
9, 197089, Control_c, 7, 11, 91
9, 197100, Control_c, 7, 11, 90
9, 197111, Control_c, 7, 11, 89
9, 197122, Control_c, 7, 11, 88
9, 197133, Control_c, 7, 11, 87
9, 197136, Note_on_c, 7, 65, 100
9, 197137, Note_on_c, 7, 66, 0
9, 197143, Control_c, 7, 11, 86
9, 197154, Control_c, 7, 11, 85
9, 197165, Control_c, 7, 11, 84
9, 197176, Control_c, 7, 11, 83
9, 197186, Control_c, 7, 11, 82
9, 197197, Control_c, 7, 11, 81
9, 197208, Control_c, 7, 11, 80
9, 197219, Control_c, 7, 11, 79
9, 197230, Control_c, 7, 11, 78
9, 197240, Control_c, 7, 11, 77
9, 197251, Control_c, 7, 11, 76
9, 197262, Control_c, 7, 11, 75
9, 197273, Control_c, 7, 11, 74
9, 197280, Note_on_c, 7, 64, 100
9, 197281, Note_on_c, 7, 65, 0
9, 197283, Control_c, 7, 11, 73
9, 197294, Control_c, 7, 11, 72
9, 197305, Control_c, 7, 11, 71
9, 197316, Control_c, 7, 11, 70
9, 197327, Control_c, 7, 11, 69
9, 197337, Control_c, 7, 11, 68
9, 197348, Control_c, 7, 11, 67
9, 197359, Control_c, 7, 11, 66
9, 197370, Control_c, 7, 11, 65
9, 197380, Control_c, 7, 11, 64
9, 197391, Control_c, 7, 11, 63
9, 197402, Control_c, 7, 11, 62
9, 197413, Control_c, 7, 11, 61
9, 197423, Control_c, 7, 11, 60
9, 197424, Note_on_c, 7, 69, 0
9, 197424, Note_on_c, 7, 64, 0
9, 198576, Control_c, 7, 1, 0
9, 198576, Control_c, 7, 11, 60
9, 198576, Note_on_c, 7, 69, 100
9, 198576, Note_on_c, 7, 81, 100
9, 198577, Control_c, 7, 1, 1
9, 198578, Control_c, 7, 1, 2
9, 198579, Control_c, 7, 1, 3
9, 198580, Control_c, 7, 1, 4
9, 198582, Control_c, 7, 1, 5
9, 198584, Control_c, 7, 1, 6
9, 198585, Control_c, 7, 1, 7
9, 198587, Control_c, 7, 1, 8
9, 198589, Control_c, 7, 1, 9
9, 198592, Control_c, 7, 1, 10
9, 198594, Control_c, 7, 1, 11
9, 198596, Control_c, 7, 11, 61
9, 198597, Control_c, 7, 1, 12
9, 198600, Control_c, 7, 1, 13
9, 198603, Control_c, 7, 1, 14
9, 198607, Control_c, 7, 1, 15
9, 198612, Control_c, 7, 1, 16
9, 198615, Control_c, 7, 11, 62
9, 198617, Control_c, 7, 1, 17
9, 198625, Control_c, 7, 1, 18
9, 198634, Control_c, 7, 11, 63
9, 198635, Control_c, 7, 1, 19
9, 198653, Control_c, 7, 11, 64
9, 198653, Control_c, 7, 1, 20
9, 198672, Control_c, 7, 11, 65
9, 198692, Control_c, 7, 11, 66
9, 198711, Control_c, 7, 11, 67
9, 198720, Note_on_c, 7, 71, 100
9, 198720, Note_on_c, 7, 83, 100
9, 198721, Note_on_c, 7, 81, 0
9, 198721, Note_on_c, 7, 69, 0
9, 198730, Control_c, 7, 11, 68
9, 198749, Control_c, 7, 11, 69
9, 198768, Control_c, 7, 11, 70
9, 198788, Control_c, 7, 11, 71
9, 198807, Control_c, 7, 11, 72
9, 198826, Control_c, 7, 11, 73
9, 198845, Control_c, 7, 11, 74
9, 198864, Control_c, 7, 11, 75
9, 198883, Control_c, 7, 11, 76
9, 198903, Control_c, 7, 11, 77
9, 198922, Control_c, 7, 11, 78
9, 198941, Control_c, 7, 11, 79
9, 198960, Control_c, 7, 11, 80
9, 198979, Control_c, 7, 11, 81
9, 198999, Control_c, 7, 11, 82
9, 199018, Control_c, 7, 11, 83
9, 199037, Control_c, 7, 11, 84
9, 199056, Control_c, 7, 11, 85
9, 199075, Control_c, 7, 11, 86
9, 199094, Control_c, 7, 11, 87
9, 199114, Control_c, 7, 11, 88
9, 199133, Control_c, 7, 11, 89
9, 199152, Note_on_c, 7, 69, 100
9, 199152, Note_on_c, 7, 81, 100
9, 199152, Control_c, 7, 11, 90
9, 199153, Note_on_c, 7, 83, 0
9, 199153, Note_on_c, 7, 71, 0
9, 199171, Control_c, 7, 11, 91
9, 199190, Control_c, 7, 11, 92
9, 199210, Control_c, 7, 11, 93
9, 199229, Control_c, 7, 11, 94
9, 199248, Control_c, 7, 11, 95
9, 199267, Control_c, 7, 11, 96
9, 199286, Control_c, 7, 11, 97
9, 199305, Control_c, 7, 11, 98
9, 199325, Control_c, 7, 11, 99
9, 199344, Control_c, 7, 11, 100
9, 199363, Control_c, 7, 11, 101
9, 199382, Control_c, 7, 11, 102
9, 199401, Control_c, 7, 11, 103
9, 199421, Control_c, 7, 11, 104
9, 199440, Control_c, 7, 11, 105
9, 199459, Control_c, 7, 11, 106
9, 199478, Control_c, 7, 11, 107
9, 199497, Control_c, 7, 11, 108
9, 199516, Control_c, 7, 11, 109
9, 199536, Control_c, 7, 11, 110
9, 199555, Control_c, 7, 11, 111
9, 199574, Control_c, 7, 11, 112
9, 199584, Note_on_c, 7, 67, 100
9, 199584, Note_on_c, 7, 79, 100
9, 199585, Note_on_c, 7, 81, 0
9, 199585, Note_on_c, 7, 69, 0
9, 199593, Control_c, 7, 11, 113
9, 199612, Control_c, 7, 11, 114
9, 199632, Control_c, 7, 11, 115
9, 199651, Control_c, 7, 11, 116
9, 199670, Control_c, 7, 11, 117
9, 199689, Control_c, 7, 11, 118
9, 199708, Control_c, 7, 11, 119
9, 199727, Control_c, 7, 11, 120
9, 199728, Note_on_c, 7, 79, 0
9, 199728, Note_on_c, 7, 67, 0
9, 199728, Control_c, 7, 1, 0
9, 199728, Note_on_c, 7, 66, 113
9, 199728, Note_on_c, 7, 78, 113
9, 199752, Note_on_c, 7, 78, 0
9, 199752, Note_on_c, 7, 66, 0
9, 199776, Note_on_c, 7, 62, 113
9, 199824, Note_on_c, 7, 62, 0
9, 199824, Note_on_c, 7, 64, 111
9, 199848, Note_on_c, 7, 64, 0
9, 199848, Note_on_c, 7, 66, 112
9, 199872, Note_on_c, 7, 66, 0
9, 199872, Note_on_c, 7, 67, 113
9, 199896, Note_on_c, 7, 67, 0
9, 199968, Note_on_c, 7, 66, 110
9, 199992, Note_on_c, 7, 66, 0
9, 200016, Note_on_c, 7, 64, 113
9, 200040, Note_on_c, 7, 64, 0
9, 200112, Note_on_c, 7, 62, 110
9, 200136, Note_on_c, 7, 62, 0
9, 200160, Note_on_c, 7, 64, 113
9, 200184, Note_on_c, 7, 64, 0
9, 200256, Note_on_c, 7, 61, 110
9, 200280, Note_on_c, 7, 61, 0
9, 200304, Note_on_c, 7, 62, 113
9, 200304, Note_on_c, 7, 66, 113
9, 200400, Note_on_c, 7, 66, 0
9, 200400, Note_on_c, 7, 62, 0
9, 200400, Note_on_c, 7, 64, 111
9, 200400, Note_on_c, 7, 67, 111
9, 200424, Note_on_c, 7, 67, 0
9, 200424, Note_on_c, 7, 64, 0
9, 200424, Note_on_c, 7, 66, 112
9, 200424, Note_on_c, 7, 69, 112
9, 200448, Note_on_c, 7, 69, 0
9, 200448, Note_on_c, 7, 66, 0
9, 200448, Note_on_c, 7, 67, 113
9, 200448, Note_on_c, 7, 71, 113
9, 200472, Note_on_c, 7, 71, 0
9, 200472, Note_on_c, 7, 67, 0
9, 200544, Note_on_c, 7, 66, 110
9, 200544, Note_on_c, 7, 69, 110
9, 200568, Note_on_c, 7, 69, 0
9, 200568, Note_on_c, 7, 66, 0
9, 200592, Note_on_c, 7, 64, 113
9, 200592, Note_on_c, 7, 67, 113
9, 200616, Note_on_c, 7, 67, 0
9, 200616, Note_on_c, 7, 64, 0
9, 200688, Note_on_c, 7, 62, 110
9, 200688, Note_on_c, 7, 66, 110
9, 200712, Note_on_c, 7, 66, 0
9, 200712, Note_on_c, 7, 62, 0
9, 200736, Note_on_c, 7, 64, 113
9, 200736, Note_on_c, 7, 67, 113
9, 200760, Note_on_c, 7, 67, 0
9, 200760, Note_on_c, 7, 64, 0
9, 200832, Note_on_c, 7, 61, 110
9, 200832, Note_on_c, 7, 64, 110
9, 200856, Note_on_c, 7, 64, 0
9, 200856, Note_on_c, 7, 61, 0
9, 200880, Note_on_c, 7, 62, 113
9, 200904, Note_on_c, 7, 62, 0
9, 200928, Note_on_c, 7, 62, 110
9, 200928, Note_on_c, 7, 74, 110
9, 200976, Note_on_c, 7, 74, 0
9, 200976, Note_on_c, 7, 62, 0
9, 200976, Note_on_c, 7, 64, 111
9, 200976, Note_on_c, 7, 76, 111
9, 201000, Note_on_c, 7, 76, 0
9, 201000, Note_on_c, 7, 64, 0
9, 201000, Note_on_c, 7, 65, 112
9, 201000, Note_on_c, 7, 77, 112
9, 201024, Note_on_c, 7, 77, 0
9, 201024, Note_on_c, 7, 65, 0
9, 201024, Note_on_c, 7, 67, 113
9, 201024, Note_on_c, 7, 79, 113
9, 201048, Note_on_c, 7, 79, 0
9, 201048, Note_on_c, 7, 67, 0
9, 201072, Note_on_c, 7, 67, 110
9, 201072, Note_on_c, 7, 79, 110
9, 201096, Note_on_c, 7, 79, 0
9, 201096, Note_on_c, 7, 67, 0
9, 201120, Note_on_c, 7, 65, 110
9, 201120, Note_on_c, 7, 77, 110
9, 201144, Note_on_c, 7, 77, 0
9, 201144, Note_on_c, 7, 65, 0
9, 201168, Note_on_c, 7, 64, 113
9, 201168, Note_on_c, 7, 76, 113
9, 201192, Note_on_c, 7, 76, 0
9, 201192, Note_on_c, 7, 64, 0
9, 201216, Note_on_c, 7, 64, 110
9, 201216, Note_on_c, 7, 76, 110
9, 201240, Note_on_c, 7, 76, 0
9, 201240, Note_on_c, 7, 64, 0
9, 201264, Note_on_c, 7, 62, 110
9, 201264, Note_on_c, 7, 74, 110
9, 201288, Note_on_c, 7, 74, 0
9, 201288, Note_on_c, 7, 62, 0
9, 201312, Note_on_c, 7, 64, 113
9, 201312, Note_on_c, 7, 76, 113
9, 201336, Note_on_c, 7, 76, 0
9, 201336, Note_on_c, 7, 64, 0
9, 201360, Note_on_c, 7, 64, 110
9, 201360, Note_on_c, 7, 76, 110
9, 201384, Note_on_c, 7, 76, 0
9, 201384, Note_on_c, 7, 64, 0
9, 201408, Note_on_c, 7, 61, 110
9, 201408, Note_on_c, 7, 73, 110
9, 201432, Note_on_c, 7, 73, 0
9, 201432, Note_on_c, 7, 61, 0
9, 201456, Note_on_c, 7, 65, 113
9, 201456, Note_on_c, 7, 77, 113
9, 201480, Note_on_c, 7, 77, 0
9, 201480, Note_on_c, 7, 65, 0
9, 201504, Note_on_c, 7, 62, 110
9, 201504, Note_on_c, 7, 65, 110
9, 201552, Note_on_c, 7, 65, 0
9, 201552, Note_on_c, 7, 62, 0
9, 201552, Note_on_c, 7, 64, 111
9, 201552, Note_on_c, 7, 67, 111
9, 201576, Note_on_c, 7, 67, 0
9, 201576, Note_on_c, 7, 64, 0
9, 201576, Note_on_c, 7, 65, 112
9, 201576, Note_on_c, 7, 69, 112
9, 201600, Note_on_c, 7, 69, 0
9, 201600, Note_on_c, 7, 65, 0
9, 201600, Note_on_c, 7, 67, 113
9, 201600, Note_on_c, 7, 70, 113
9, 201624, Note_on_c, 7, 70, 0
9, 201624, Note_on_c, 7, 67, 0
9, 201648, Note_on_c, 7, 67, 110
9, 201648, Note_on_c, 7, 70, 110
9, 201672, Note_on_c, 7, 70, 0
9, 201672, Note_on_c, 7, 67, 0
9, 201696, Note_on_c, 7, 65, 110
9, 201696, Note_on_c, 7, 69, 110
9, 201720, Note_on_c, 7, 69, 0
9, 201720, Note_on_c, 7, 65, 0
9, 201744, Note_on_c, 7, 64, 113
9, 201744, Note_on_c, 7, 67, 113
9, 201768, Note_on_c, 7, 67, 0
9, 201768, Note_on_c, 7, 64, 0
9, 201792, Note_on_c, 7, 64, 110
9, 201792, Note_on_c, 7, 67, 110
9, 201816, Note_on_c, 7, 67, 0
9, 201816, Note_on_c, 7, 64, 0
9, 201840, Note_on_c, 7, 62, 110
9, 201840, Note_on_c, 7, 65, 110
9, 201864, Note_on_c, 7, 65, 0
9, 201864, Note_on_c, 7, 62, 0
9, 201888, Note_on_c, 7, 64, 113
9, 201888, Note_on_c, 7, 67, 113
9, 201912, Note_on_c, 7, 67, 0
9, 201912, Note_on_c, 7, 64, 0
9, 201936, Note_on_c, 7, 64, 110
9, 201936, Note_on_c, 7, 67, 110
9, 201960, Note_on_c, 7, 67, 0
9, 201960, Note_on_c, 7, 64, 0
9, 201984, Note_on_c, 7, 61, 110
9, 201984, Note_on_c, 7, 64, 110
9, 202008, Note_on_c, 7, 64, 0
9, 202008, Note_on_c, 7, 61, 0
9, 202032, Note_on_c, 7, 53, 116
9, 202032, Note_on_c, 7, 65, 116
9, 202067, Note_on_c, 7, 65, 0
9, 202067, Note_on_c, 7, 53, 0
9, 202104, Note_on_c, 7, 53, 113
9, 202104, Note_on_c, 7, 65, 113
9, 202116, Note_on_c, 7, 65, 0
9, 202116, Note_on_c, 7, 53, 0
9, 202128, Note_on_c, 7, 53, 113
9, 202128, Note_on_c, 7, 65, 113
9, 202152, Note_on_c, 7, 65, 0
9, 202152, Note_on_c, 7, 53, 0
9, 202176, Note_on_c, 7, 53, 116
9, 202176, Note_on_c, 7, 65, 116
9, 202200, Note_on_c, 7, 65, 0
9, 202200, Note_on_c, 7, 53, 0
9, 202224, Note_on_c, 7, 55, 113
9, 202224, Note_on_c, 7, 67, 113
9, 202248, Note_on_c, 7, 67, 0
9, 202248, Note_on_c, 7, 55, 0
9, 202272, Note_on_c, 7, 57, 113
9, 202272, Note_on_c, 7, 69, 113
9, 202296, Note_on_c, 7, 69, 0
9, 202296, Note_on_c, 7, 57, 0
9, 202320, Note_on_c, 7, 58, 113
9, 202320, Note_on_c, 7, 70, 113
9, 202344, Note_on_c, 7, 70, 0
9, 202344, Note_on_c, 7, 58, 0
9, 202608, Note_on_c, 7, 64, 116
9, 202608, Note_on_c, 7, 76, 116
9, 202643, Note_on_c, 7, 76, 0
9, 202643, Note_on_c, 7, 64, 0
9, 202680, Note_on_c, 7, 52, 113
9, 202680, Note_on_c, 7, 64, 113
9, 202692, Note_on_c, 7, 64, 0
9, 202692, Note_on_c, 7, 52, 0
9, 202704, Note_on_c, 7, 52, 113
9, 202704, Note_on_c, 7, 64, 113
9, 202728, Note_on_c, 7, 64, 0
9, 202728, Note_on_c, 7, 52, 0
9, 202752, Note_on_c, 7, 64, 116
9, 202752, Note_on_c, 7, 76, 116
9, 202776, Note_on_c, 7, 76, 0
9, 202776, Note_on_c, 7, 64, 0
9, 202800, Note_on_c, 7, 65, 113
9, 202800, Note_on_c, 7, 77, 113
9, 202824, Note_on_c, 7, 77, 0
9, 202824, Note_on_c, 7, 65, 0
9, 202848, Note_on_c, 7, 67, 113
9, 202848, Note_on_c, 7, 79, 113
9, 202872, Note_on_c, 7, 79, 0
9, 202872, Note_on_c, 7, 67, 0
9, 202896, Note_on_c, 7, 69, 113
9, 202896, Note_on_c, 7, 81, 113
9, 202920, Note_on_c, 7, 81, 0
9, 202920, Note_on_c, 7, 69, 0
9, 203040, Note_on_c, 7, 69, 116
9, 203064, Note_on_c, 7, 69, 0
9, 203088, Note_on_c, 7, 74, 113
9, 203112, Note_on_c, 7, 74, 0
9, 203136, Note_on_c, 7, 76, 113
9, 203160, Note_on_c, 7, 76, 0
9, 203184, Note_on_c, 7, 74, 60
9, 203184, Note_on_c, 7, 78, 60
9, 203208, Note_on_c, 7, 78, 0
9, 203208, Note_on_c, 7, 74, 0
9, 203472, Note_on_c, 7, 62, 60
9, 203472, Note_on_c, 7, 74, 60
9, 203496, Note_on_c, 7, 74, 0
9, 203496, Note_on_c, 7, 62, 0
9, 204048, Control_c, 7, 1, 0
9, 204048, Control_c, 7, 11, 60
9, 204048, Note_on_c, 7, 58, 100
9, 204048, Note_on_c, 7, 67, 100
9, 204049, Control_c, 7, 1, 2
9, 204050, Control_c, 7, 1, 3
9, 204051, Control_c, 7, 1, 4
9, 204052, Control_c, 7, 1, 5
9, 204053, Control_c, 7, 1, 6
9, 204054, Control_c, 7, 1, 7
9, 204056, Control_c, 7, 1, 8
9, 204057, Control_c, 7, 1, 9
9, 204058, Control_c, 7, 11, 61
9, 204059, Control_c, 7, 1, 10
9, 204060, Control_c, 7, 1, 11
9, 204062, Control_c, 7, 1, 12
9, 204064, Control_c, 7, 1, 13
9, 204066, Control_c, 7, 1, 14
9, 204068, Control_c, 7, 11, 62
9, 204069, Control_c, 7, 1, 15
9, 204072, Control_c, 7, 1, 16
9, 204076, Control_c, 7, 1, 17
9, 204077, Control_c, 7, 11, 63
9, 204080, Control_c, 7, 1, 18
9, 204087, Control_c, 7, 11, 64
9, 204087, Control_c, 7, 1, 19
9, 204096, Note_on_c, 7, 67, 0
9, 204096, Note_on_c, 7, 65, 100
9, 204096, Control_c, 7, 11, 65
9, 204099, Control_c, 7, 1, 20
9, 204106, Control_c, 7, 11, 66
9, 204116, Control_c, 7, 11, 67
9, 204125, Control_c, 7, 11, 68
9, 204135, Control_c, 7, 11, 69
9, 204144, Note_on_c, 7, 65, 0
9, 204144, Note_on_c, 7, 63, 100
9, 204144, Control_c, 7, 11, 70
9, 204154, Control_c, 7, 11, 71
9, 204163, Control_c, 7, 11, 72
9, 204173, Control_c, 7, 11, 73
9, 204183, Control_c, 7, 11, 74
9, 204192, Note_on_c, 7, 63, 0
9, 204192, Note_on_c, 7, 75, 100
9, 204192, Control_c, 7, 11, 75
9, 204202, Control_c, 7, 11, 76
9, 204211, Control_c, 7, 11, 77
9, 204221, Control_c, 7, 11, 78
9, 204231, Control_c, 7, 11, 79
9, 204240, Note_on_c, 7, 75, 0
9, 204240, Note_on_c, 7, 77, 100
9, 204240, Control_c, 7, 11, 80
9, 204250, Control_c, 7, 11, 81
9, 204259, Control_c, 7, 11, 82
9, 204269, Control_c, 7, 11, 83
9, 204278, Control_c, 7, 11, 84
9, 204288, Note_on_c, 7, 77, 0
9, 204288, Note_on_c, 7, 79, 100
9, 204288, Control_c, 7, 11, 85
9, 204298, Control_c, 7, 11, 86
9, 204307, Control_c, 7, 11, 87
9, 204317, Control_c, 7, 11, 88
9, 204326, Control_c, 7, 11, 89
9, 204336, Note_on_c, 7, 79, 0
9, 204336, Note_on_c, 7, 58, 0
9, 204336, Note_on_c, 7, 70, 100
9, 204336, Note_on_c, 7, 76, 100
9, 204336, Control_c, 7, 11, 90
9, 204346, Control_c, 7, 11, 91
9, 204355, Control_c, 7, 11, 92
9, 204365, Control_c, 7, 11, 93
9, 204374, Control_c, 7, 11, 94
9, 204384, Note_on_c, 7, 76, 0
9, 204384, Note_on_c, 7, 70, 0
9, 204384, Note_on_c, 7, 69, 100
9, 204384, Note_on_c, 7, 77, 100
9, 204384, Control_c, 7, 11, 95
9, 204393, Control_c, 7, 11, 96
9, 204403, Control_c, 7, 11, 97
9, 204413, Control_c, 7, 11, 98
9, 204422, Control_c, 7, 11, 99
9, 204432, Note_on_c, 7, 77, 0
9, 204432, Note_on_c, 7, 69, 0
9, 204432, Note_on_c, 7, 70, 100
9, 204432, Note_on_c, 7, 79, 100
9, 204432, Control_c, 7, 11, 100
9, 204441, Control_c, 7, 11, 101
9, 204451, Control_c, 7, 11, 102
9, 204461, Control_c, 7, 11, 103
9, 204470, Control_c, 7, 11, 104
9, 204480, Note_on_c, 7, 79, 0
9, 204480, Note_on_c, 7, 70, 0
9, 204480, Note_on_c, 7, 64, 100
9, 204480, Note_on_c, 7, 67, 100
9, 204480, Control_c, 7, 11, 105
9, 204489, Control_c, 7, 11, 106
9, 204499, Control_c, 7, 11, 107
9, 204508, Control_c, 7, 11, 108
9, 204518, Control_c, 7, 11, 109
9, 204528, Note_on_c, 7, 67, 0
9, 204528, Note_on_c, 7, 64, 0
9, 204528, Note_on_c, 7, 62, 100
9, 204528, Note_on_c, 7, 65, 100
9, 204528, Control_c, 7, 11, 110
9, 204537, Control_c, 7, 11, 111
9, 204547, Control_c, 7, 11, 112
9, 204556, Control_c, 7, 11, 113
9, 204566, Control_c, 7, 11, 114
9, 204576, Note_on_c, 7, 65, 0
9, 204576, Note_on_c, 7, 62, 0
9, 204576, Note_on_c, 7, 61, 100
9, 204576, Note_on_c, 7, 64, 100
9, 204576, Control_c, 7, 11, 115
9, 204585, Control_c, 7, 11, 116
9, 204595, Control_c, 7, 11, 117
9, 204604, Control_c, 7, 11, 118
9, 204614, Control_c, 7, 11, 119
9, 204623, Control_c, 7, 11, 120
9, 204624, Note_on_c, 7, 64, 0
9, 204624, Note_on_c, 7, 61, 0
9, 204624, Control_c, 7, 1, 0
9, 204624, Note_on_c, 7, 57, 105
9, 204624, Note_on_c, 7, 62, 105
9, 204648, Note_on_c, 7, 62, 0
9, 204648, Note_on_c, 7, 57, 0
9, 204672, Note_on_c, 7, 62, 100
9, 204672, Note_on_c, 7, 65, 100
9, 204696, Note_on_c, 7, 65, 0
9, 204696, Note_on_c, 7, 62, 0
9, 204720, Note_on_c, 7, 58, 100
9, 204720, Note_on_c, 7, 70, 100
9, 204744, Note_on_c, 7, 70, 0
9, 204744, Note_on_c, 7, 58, 0
9, 204768, Note_on_c, 7, 55, 105
9, 204768, Note_on_c, 7, 67, 105
9, 204792, Note_on_c, 7, 67, 0
9, 204792, Note_on_c, 7, 55, 0
9, 204816, Note_on_c, 7, 64, 100
9, 204816, Note_on_c, 7, 76, 100
9, 204840, Note_on_c, 7, 76, 0
9, 204840, Note_on_c, 7, 64, 0
9, 204864, Note_on_c, 7, 64, 100
9, 204864, Note_on_c, 7, 73, 100
9, 204888, Note_on_c, 7, 73, 0
9, 204888, Note_on_c, 7, 64, 0
9, 204912, Note_on_c, 7, 65, 100
9, 204912, Note_on_c, 7, 74, 100
9, 204936, Note_on_c, 7, 74, 0
9, 204936, Note_on_c, 7, 65, 0
9, 205200, Note_on_c, 7, 65, 105
9, 205200, Note_on_c, 7, 69, 105
9, 205224, Note_on_c, 7, 69, 0
9, 205224, Note_on_c, 7, 65, 0
9, 205248, Note_on_c, 7, 62, 100
9, 205248, Note_on_c, 7, 74, 100
9, 205272, Note_on_c, 7, 74, 0
9, 205272, Note_on_c, 7, 62, 0
9, 205296, Note_on_c, 7, 58, 100
9, 205296, Note_on_c, 7, 70, 100
9, 205320, Note_on_c, 7, 70, 0
9, 205320, Note_on_c, 7, 58, 0
9, 205344, Note_on_c, 7, 55, 105
9, 205344, Note_on_c, 7, 67, 105
9, 205368, Note_on_c, 7, 67, 0
9, 205368, Note_on_c, 7, 55, 0
9, 205392, Note_on_c, 7, 64, 100
9, 205392, Note_on_c, 7, 76, 100
9, 205416, Note_on_c, 7, 76, 0
9, 205416, Note_on_c, 7, 64, 0
9, 205440, Note_on_c, 7, 64, 100
9, 205440, Note_on_c, 7, 73, 100
9, 205464, Note_on_c, 7, 73, 0
9, 205464, Note_on_c, 7, 64, 0
9, 205488, Note_on_c, 7, 65, 105
9, 205488, Note_on_c, 7, 74, 105
9, 205512, Note_on_c, 7, 74, 0
9, 205512, Note_on_c, 7, 65, 0
9, 205536, Note_on_c, 7, 69, 100
9, 205536, Note_on_c, 7, 81, 100
9, 205560, Note_on_c, 7, 81, 0
9, 205560, Note_on_c, 7, 69, 0
9, 205584, Note_on_c, 7, 69, 100
9, 205584, Note_on_c, 7, 81, 100
9, 205608, Note_on_c, 7, 81, 0
9, 205608, Note_on_c, 7, 69, 0
9, 205632, Note_on_c, 7, 69, 105
9, 205632, Note_on_c, 7, 81, 105
9, 205656, Note_on_c, 7, 81, 0
9, 205656, Note_on_c, 7, 69, 0
9, 205680, Note_on_c, 7, 69, 100
9, 205680, Note_on_c, 7, 81, 100
9, 205704, Note_on_c, 7, 81, 0
9, 205704, Note_on_c, 7, 69, 0
9, 205728, Note_on_c, 7, 69, 100
9, 205728, Note_on_c, 7, 81, 100
9, 205752, Note_on_c, 7, 81, 0
9, 205752, Note_on_c, 7, 69, 0
9, 205776, Note_on_c, 7, 65, 105
9, 205776, Note_on_c, 7, 74, 105
9, 205800, Note_on_c, 7, 74, 0
9, 205800, Note_on_c, 7, 65, 0
9, 205824, Note_on_c, 7, 62, 100
9, 205824, Note_on_c, 7, 65, 100
9, 205848, Note_on_c, 7, 65, 0
9, 205848, Note_on_c, 7, 62, 0
9, 205872, Note_on_c, 7, 65, 100
9, 205872, Note_on_c, 7, 69, 100
9, 205896, Note_on_c, 7, 69, 0
9, 205896, Note_on_c, 7, 65, 0
9, 205920, Note_on_c, 7, 64, 105
9, 205920, Note_on_c, 7, 67, 105
9, 205944, Note_on_c, 7, 67, 0
9, 205944, Note_on_c, 7, 64, 0
9, 205968, Note_on_c, 7, 69, 100
9, 205968, Note_on_c, 7, 76, 100
9, 205992, Note_on_c, 7, 76, 0
9, 205992, Note_on_c, 7, 69, 0
9, 206016, Note_on_c, 7, 76, 100
9, 206016, Note_on_c, 7, 81, 100
9, 206040, Note_on_c, 7, 81, 0
9, 206040, Note_on_c, 7, 76, 0
9, 206064, Note_on_c, 7, 74, 105
9, 206064, Note_on_c, 7, 77, 105
9, 206088, Note_on_c, 7, 77, 0
9, 206088, Note_on_c, 7, 74, 0
9, 206112, Note_on_c, 7, 62, 100
9, 206112, Note_on_c, 7, 65, 100
9, 206136, Note_on_c, 7, 65, 0
9, 206136, Note_on_c, 7, 62, 0
9, 206160, Note_on_c, 7, 65, 100
9, 206160, Note_on_c, 7, 69, 100
9, 206184, Note_on_c, 7, 69, 0
9, 206184, Note_on_c, 7, 65, 0
9, 206208, Note_on_c, 7, 64, 105
9, 206208, Note_on_c, 7, 67, 105
9, 206232, Note_on_c, 7, 67, 0
9, 206232, Note_on_c, 7, 64, 0
9, 206256, Note_on_c, 7, 69, 100
9, 206256, Note_on_c, 7, 76, 100
9, 206280, Note_on_c, 7, 76, 0
9, 206280, Note_on_c, 7, 69, 0
9, 206304, Note_on_c, 7, 76, 100
9, 206304, Note_on_c, 7, 81, 100
9, 206328, Note_on_c, 7, 81, 0
9, 206328, Note_on_c, 7, 76, 0
9, 206496, Control_c, 7, 1, 0
9, 206496, Note_on_c, 7, 67, 52
9, 206497, Control_c, 7, 1, 2
9, 206498, Control_c, 7, 1, 3
9, 206499, Control_c, 7, 1, 4
9, 206501, Control_c, 7, 1, 5
9, 206502, Control_c, 7, 1, 6
9, 206503, Control_c, 7, 1, 7
9, 206505, Control_c, 7, 1, 8
9, 206506, Control_c, 7, 1, 9
9, 206508, Control_c, 7, 1, 10
9, 206510, Control_c, 7, 1, 11
9, 206512, Control_c, 7, 1, 12
9, 206515, Control_c, 7, 1, 13
9, 206518, Control_c, 7, 1, 14
9, 206522, Control_c, 7, 1, 15
9, 206527, Control_c, 7, 1, 16
9, 206534, Control_c, 7, 1, 17
9, 206544, Note_on_c, 7, 67, 0
9, 206544, Note_on_c, 7, 73, 58
9, 206545, Control_c, 7, 1, 18
9, 206592, Note_on_c, 7, 73, 0
9, 206592, Note_on_c, 7, 76, 61
9, 206832, Note_on_c, 7, 76, 0
9, 206832, Note_on_c, 7, 67, 52
9, 206880, Note_on_c, 7, 67, 0
9, 206880, Note_on_c, 7, 64, 49
9, 206928, Note_on_c, 7, 64, 0
9, 206928, Control_c, 7, 1, 0
9, 206928, Note_on_c, 7, 62, 50
9, 206952, Note_on_c, 7, 62, 0
9, 207072, Note_on_c, 7, 65, 55
9, 207072, Note_on_c, 7, 74, 55
9, 207107, Note_on_c, 7, 74, 0
9, 207107, Note_on_c, 7, 65, 0
9, 207144, Note_on_c, 7, 62, 50
9, 207144, Note_on_c, 7, 65, 50
9, 207156, Note_on_c, 7, 65, 0
9, 207156, Note_on_c, 7, 62, 0
9, 207168, Note_on_c, 7, 62, 50
9, 207168, Note_on_c, 7, 65, 50
9, 207192, Note_on_c, 7, 65, 0
9, 207192, Note_on_c, 7, 62, 0
9, 207216, Note_on_c, 7, 62, 50
9, 207216, Note_on_c, 7, 65, 50
9, 207240, Note_on_c, 7, 65, 0
9, 207240, Note_on_c, 7, 62, 0
9, 207360, Note_on_c, 7, 62, 55
9, 207360, Note_on_c, 7, 65, 55
9, 207395, Note_on_c, 7, 65, 0
9, 207395, Note_on_c, 7, 62, 0
9, 207432, Note_on_c, 7, 62, 50
9, 207432, Note_on_c, 7, 65, 50
9, 207444, Note_on_c, 7, 65, 0
9, 207444, Note_on_c, 7, 62, 0
9, 207456, Note_on_c, 7, 62, 50
9, 207456, Note_on_c, 7, 65, 50
9, 207480, Note_on_c, 7, 65, 0
9, 207480, Note_on_c, 7, 62, 0
9, 207504, Note_on_c, 7, 62, 50
9, 207504, Note_on_c, 7, 65, 50
9, 207528, Note_on_c, 7, 65, 0
9, 207528, Note_on_c, 7, 62, 0
9, 208224, Note_on_c, 7, 65, 58
9, 208224, Note_on_c, 7, 69, 58
9, 208259, Note_on_c, 7, 69, 0
9, 208259, Note_on_c, 7, 65, 0
9, 208296, Note_on_c, 7, 65, 62
9, 208296, Note_on_c, 7, 69, 62
9, 208308, Note_on_c, 7, 69, 0
9, 208308, Note_on_c, 7, 65, 0
9, 208320, Note_on_c, 7, 65, 64
9, 208320, Note_on_c, 7, 69, 64
9, 208344, Note_on_c, 7, 69, 0
9, 208344, Note_on_c, 7, 65, 0
9, 208368, Note_on_c, 7, 65, 66
9, 208368, Note_on_c, 7, 69, 66
9, 208392, Note_on_c, 7, 69, 0
9, 208392, Note_on_c, 7, 65, 0
9, 208512, Note_on_c, 7, 65, 75
9, 208512, Note_on_c, 7, 69, 75
9, 208547, Note_on_c, 7, 69, 0
9, 208547, Note_on_c, 7, 65, 0
9, 208584, Note_on_c, 7, 65, 79
9, 208584, Note_on_c, 7, 69, 79
9, 208596, Note_on_c, 7, 69, 0
9, 208596, Note_on_c, 7, 65, 0
9, 208608, Note_on_c, 7, 65, 80
9, 208608, Note_on_c, 7, 69, 80
9, 208632, Note_on_c, 7, 69, 0
9, 208632, Note_on_c, 7, 65, 0
9, 208656, Note_on_c, 7, 65, 83
9, 208656, Note_on_c, 7, 70, 83
9, 208680, Note_on_c, 7, 70, 0
9, 208680, Note_on_c, 7, 65, 0
9, 208800, Note_on_c, 7, 67, 92
9, 208800, Note_on_c, 7, 70, 92
9, 208835, Note_on_c, 7, 70, 0
9, 208835, Note_on_c, 7, 67, 0
9, 208872, Note_on_c, 7, 67, 96
9, 208872, Note_on_c, 7, 70, 96
9, 208884, Note_on_c, 7, 70, 0
9, 208884, Note_on_c, 7, 67, 0
9, 208896, Note_on_c, 7, 67, 97
9, 208896, Note_on_c, 7, 70, 97
9, 208920, Note_on_c, 7, 70, 0
9, 208920, Note_on_c, 7, 67, 0
9, 208944, Note_on_c, 7, 62, 100
9, 208944, Note_on_c, 7, 67, 100
9, 208968, Note_on_c, 7, 67, 0
9, 208968, Note_on_c, 7, 62, 0
9, 209088, Note_on_c, 7, 61, 109
9, 209088, Note_on_c, 7, 64, 109
9, 209123, Note_on_c, 7, 64, 0
9, 209123, Note_on_c, 7, 61, 0
9, 209160, Note_on_c, 7, 61, 113
9, 209160, Note_on_c, 7, 64, 113
9, 209172, Note_on_c, 7, 64, 0
9, 209172, Note_on_c, 7, 61, 0
9, 209184, Control_c, 7, 1, 0
9, 209184, Note_on_c, 7, 61, 114
9, 209184, Note_on_c, 7, 64, 114
9, 209185, Control_c, 7, 1, 2
9, 209186, Control_c, 7, 1, 3
9, 209187, Control_c, 7, 1, 4
9, 209188, Control_c, 7, 1, 5
9, 209189, Control_c, 7, 1, 6
9, 209190, Control_c, 7, 1, 7
9, 209192, Control_c, 7, 1, 8
9, 209193, Control_c, 7, 1, 9
9, 209195, Control_c, 7, 1, 10
9, 209196, Control_c, 7, 1, 11
9, 209198, Control_c, 7, 1, 12
9, 209200, Control_c, 7, 1, 13
9, 209202, Control_c, 7, 1, 14
9, 209205, Control_c, 7, 1, 15
9, 209208, Control_c, 7, 1, 16
9, 209212, Control_c, 7, 1, 17
9, 209216, Control_c, 7, 1, 18
9, 209223, Control_c, 7, 1, 19
9, 209229, Note_on_c, 7, 64, 0
9, 209229, Note_on_c, 7, 61, 0
9, 209235, Control_c, 7, 1, 20
9, 209280, Control_c, 7, 1, 0
9, 209568, Note_on_c, 7, 74, 55
9, 209603, Note_on_c, 7, 74, 0
9, 209640, Note_on_c, 7, 62, 50
9, 209652, Note_on_c, 7, 62, 0
9, 209664, Note_on_c, 7, 62, 50
9, 209688, Note_on_c, 7, 62, 0
9, 209712, Note_on_c, 7, 67, 55
9, 209736, Note_on_c, 7, 67, 0
9, 209760, Note_on_c, 7, 69, 50
9, 209784, Note_on_c, 7, 69, 0
9, 209808, Note_on_c, 7, 70, 50
9, 209832, Note_on_c, 7, 70, 0
9, 210144, Note_on_c, 7, 74, 55
9, 210179, Note_on_c, 7, 74, 0
9, 210216, Note_on_c, 7, 62, 50
9, 210228, Note_on_c, 7, 62, 0
9, 210240, Note_on_c, 7, 62, 50
9, 210264, Note_on_c, 7, 62, 0
9, 210288, Note_on_c, 7, 67, 55
9, 210312, Note_on_c, 7, 67, 0
9, 210336, Note_on_c, 7, 69, 50
9, 210360, Note_on_c, 7, 69, 0
9, 210384, Note_on_c, 7, 70, 50
9, 210408, Note_on_c, 7, 70, 0
9, 210432, Note_on_c, 7, 69, 50
9, 210432, Note_on_c, 7, 81, 50
9, 210467, Note_on_c, 7, 81, 0
9, 210467, Note_on_c, 7, 69, 0
9, 210504, Note_on_c, 7, 57, 54
9, 210504, Note_on_c, 7, 69, 54
9, 210516, Note_on_c, 7, 69, 0
9, 210516, Note_on_c, 7, 57, 0
9, 210528, Note_on_c, 7, 57, 55
9, 210528, Note_on_c, 7, 69, 55
9, 210552, Note_on_c, 7, 69, 0
9, 210552, Note_on_c, 7, 57, 0
9, 210576, Note_on_c, 7, 62, 58
9, 210576, Note_on_c, 7, 74, 58
9, 210600, Note_on_c, 7, 74, 0
9, 210600, Note_on_c, 7, 62, 0
9, 210624, Note_on_c, 7, 64, 61
9, 210624, Note_on_c, 7, 76, 61
9, 210648, Note_on_c, 7, 76, 0
9, 210648, Note_on_c, 7, 64, 0
9, 210672, Note_on_c, 7, 65, 64
9, 210672, Note_on_c, 7, 77, 64
9, 210696, Note_on_c, 7, 77, 0
9, 210696, Note_on_c, 7, 65, 0
9, 210720, Note_on_c, 7, 69, 66
9, 210720, Note_on_c, 7, 81, 66
9, 210755, Note_on_c, 7, 81, 0
9, 210755, Note_on_c, 7, 69, 0
9, 210792, Note_on_c, 7, 57, 71
9, 210792, Note_on_c, 7, 69, 71
9, 210804, Note_on_c, 7, 69, 0
9, 210804, Note_on_c, 7, 57, 0
9, 210816, Note_on_c, 7, 57, 72
9, 210816, Note_on_c, 7, 69, 72
9, 210840, Note_on_c, 7, 69, 0
9, 210840, Note_on_c, 7, 57, 0
9, 210864, Note_on_c, 7, 62, 75
9, 210864, Note_on_c, 7, 74, 75
9, 210888, Note_on_c, 7, 74, 0
9, 210888, Note_on_c, 7, 62, 0
9, 210912, Note_on_c, 7, 64, 78
9, 210912, Note_on_c, 7, 76, 78
9, 210936, Note_on_c, 7, 76, 0
9, 210936, Note_on_c, 7, 64, 0
9, 210960, Note_on_c, 7, 65, 80
9, 210960, Note_on_c, 7, 77, 80
9, 210984, Note_on_c, 7, 77, 0
9, 210984, Note_on_c, 7, 65, 0
9, 211008, Note_on_c, 7, 69, 83
9, 211008, Note_on_c, 7, 81, 83
9, 211043, Note_on_c, 7, 81, 0
9, 211043, Note_on_c, 7, 69, 0
9, 211080, Note_on_c, 7, 57, 87
9, 211080, Note_on_c, 7, 69, 87
9, 211092, Note_on_c, 7, 69, 0
9, 211092, Note_on_c, 7, 57, 0
9, 211104, Note_on_c, 7, 57, 89
9, 211104, Note_on_c, 7, 69, 89
9, 211128, Note_on_c, 7, 69, 0
9, 211128, Note_on_c, 7, 57, 0
9, 211152, Note_on_c, 7, 62, 92
9, 211152, Note_on_c, 7, 74, 92
9, 211176, Note_on_c, 7, 74, 0
9, 211176, Note_on_c, 7, 62, 0
9, 211200, Note_on_c, 7, 64, 95
9, 211200, Note_on_c, 7, 76, 95
9, 211224, Note_on_c, 7, 76, 0
9, 211224, Note_on_c, 7, 64, 0
9, 211248, Note_on_c, 7, 65, 97
9, 211248, Note_on_c, 7, 77, 97
9, 211272, Note_on_c, 7, 77, 0
9, 211272, Note_on_c, 7, 65, 0
9, 211296, Note_on_c, 7, 69, 100
9, 211296, Note_on_c, 7, 81, 100
9, 211331, Note_on_c, 7, 81, 0
9, 211331, Note_on_c, 7, 69, 0
9, 211368, Note_on_c, 7, 57, 104
9, 211368, Note_on_c, 7, 69, 104
9, 211380, Note_on_c, 7, 69, 0
9, 211380, Note_on_c, 7, 57, 0
9, 211392, Note_on_c, 7, 57, 106
9, 211392, Note_on_c, 7, 69, 106
9, 211416, Note_on_c, 7, 69, 0
9, 211416, Note_on_c, 7, 57, 0
9, 211440, Note_on_c, 7, 62, 109
9, 211440, Note_on_c, 7, 74, 109
9, 211464, Note_on_c, 7, 74, 0
9, 211464, Note_on_c, 7, 62, 0
9, 211488, Note_on_c, 7, 64, 111
9, 211488, Note_on_c, 7, 76, 111
9, 211512, Note_on_c, 7, 76, 0
9, 211512, Note_on_c, 7, 64, 0
9, 211536, Note_on_c, 7, 65, 114
9, 211536, Note_on_c, 7, 77, 114
9, 211560, Note_on_c, 7, 77, 0
9, 211560, Note_on_c, 7, 65, 0
9, 211584, Note_on_c, 7, 81, 125
9, 211608, Note_on_c, 7, 81, 0
9, 211632, Note_on_c, 7, 69, 120
9, 211656, Note_on_c, 7, 69, 0
9, 211680, Note_on_c, 7, 74, 125
9, 211704, Note_on_c, 7, 74, 0
9, 211728, Note_on_c, 7, 62, 120
9, 211752, Note_on_c, 7, 62, 0
9, 211776, Note_on_c, 7, 69, 125
9, 211800, Note_on_c, 7, 69, 0
9, 211824, Note_on_c, 7, 57, 120
9, 211848, Note_on_c, 7, 57, 0
9, 211872, Note_on_c, 7, 69, 125
9, 211872, Note_on_c, 7, 81, 125
9, 211896, Note_on_c, 7, 81, 0
9, 211896, Note_on_c, 7, 69, 0
9, 211920, Note_on_c, 7, 57, 120
9, 211920, Note_on_c, 7, 69, 120
9, 211944, Note_on_c, 7, 69, 0
9, 211944, Note_on_c, 7, 57, 0
9, 211968, Control_c, 7, 1, 0
9, 211968, Control_c, 7, 11, 120
9, 211968, Note_on_c, 7, 74, 110
9, 211969, Control_c, 7, 1, 2
9, 211970, Control_c, 7, 1, 3
9, 211971, Control_c, 7, 1, 4
9, 211972, Control_c, 7, 11, 119
9, 211972, Control_c, 7, 1, 5
9, 211974, Control_c, 7, 1, 6
9, 211975, Control_c, 7, 11, 118
9, 211975, Control_c, 7, 1, 7
9, 211977, Control_c, 7, 1, 8
9, 211978, Control_c, 7, 11, 117
9, 211978, Control_c, 7, 1, 9
9, 211980, Control_c, 7, 1, 10
9, 211981, Control_c, 7, 11, 116
9, 211982, Control_c, 7, 1, 11
9, 211983, Control_c, 7, 1, 12
9, 211984, Control_c, 7, 11, 115
9, 211986, Control_c, 7, 1, 13
9, 211988, Control_c, 7, 11, 114
9, 211989, Control_c, 7, 1, 14
9, 211991, Control_c, 7, 11, 113
9, 211992, Control_c, 7, 1, 15
9, 211994, Control_c, 7, 11, 112
9, 211996, Control_c, 7, 1, 16
9, 211997, Control_c, 7, 11, 111
9, 212000, Control_c, 7, 11, 110
9, 212001, Control_c, 7, 1, 17
9, 212004, Control_c, 7, 11, 109
9, 212007, Control_c, 7, 11, 108
9, 212008, Control_c, 7, 1, 18
9, 212010, Control_c, 7, 11, 107
9, 212013, Control_c, 7, 11, 106
9, 212016, Control_c, 7, 11, 105
9, 212019, Control_c, 7, 11, 104
9, 212020, Control_c, 7, 1, 19
9, 212023, Control_c, 7, 11, 103
9, 212026, Control_c, 7, 11, 102
9, 212029, Control_c, 7, 11, 101
9, 212032, Control_c, 7, 11, 100
9, 212035, Control_c, 7, 11, 99
9, 212039, Control_c, 7, 11, 98
9, 212042, Control_c, 7, 11, 97
9, 212045, Control_c, 7, 11, 96
9, 212048, Control_c, 7, 11, 95
9, 212051, Control_c, 7, 11, 94
9, 212054, Control_c, 7, 11, 93
9, 212058, Control_c, 7, 11, 92
9, 212061, Control_c, 7, 11, 91
9, 212064, Control_c, 7, 11, 90
9, 212067, Control_c, 7, 11, 89
9, 212070, Control_c, 7, 11, 88
9, 212074, Control_c, 7, 11, 87
9, 212077, Control_c, 7, 11, 86
9, 212080, Control_c, 7, 11, 85
9, 212083, Control_c, 7, 11, 84
9, 212086, Control_c, 7, 11, 83
9, 212089, Control_c, 7, 11, 82
9, 212093, Control_c, 7, 11, 81
9, 212096, Control_c, 7, 11, 80
9, 212099, Control_c, 7, 11, 79
9, 212102, Control_c, 7, 11, 78
9, 212105, Control_c, 7, 11, 77
9, 212109, Control_c, 7, 11, 76
9, 212112, Control_c, 7, 11, 75
9, 212115, Control_c, 7, 11, 74
9, 212118, Control_c, 7, 11, 73
9, 212121, Control_c, 7, 11, 72
9, 212124, Control_c, 7, 11, 71
9, 212128, Control_c, 7, 11, 70
9, 212131, Control_c, 7, 11, 69
9, 212134, Control_c, 7, 11, 68
9, 212137, Control_c, 7, 11, 67
9, 212140, Control_c, 7, 11, 66
9, 212144, Control_c, 7, 11, 65
9, 212147, Control_c, 7, 11, 64
9, 212150, Control_c, 7, 11, 63
9, 212153, Control_c, 7, 11, 62
9, 212156, Control_c, 7, 11, 61
9, 212159, Control_c, 7, 11, 60
9, 212256, Note_on_c, 7, 76, 100
9, 212352, Note_on_c, 7, 76, 0
9, 212352, Note_on_c, 7, 74, 0
9, 212352, Control_c, 7, 11, 120
9, 212352, Control_c, 7, 1, 0
9, 212352, Note_on_c, 7, 74, 60
9, 212352, Note_on_c, 7, 78, 60
9, 212353, Control_c, 7, 1, 1
9, 212354, Control_c, 7, 1, 2
9, 212355, Control_c, 7, 1, 3
9, 212356, Control_c, 7, 1, 4
9, 212358, Control_c, 7, 1, 5
9, 212360, Control_c, 7, 1, 6
9, 212362, Control_c, 7, 1, 7
9, 212364, Control_c, 7, 1, 8
9, 212366, Control_c, 7, 1, 9
9, 212369, Control_c, 7, 1, 10
9, 212371, Control_c, 7, 1, 11
9, 212374, Control_c, 7, 1, 12
9, 212378, Control_c, 7, 1, 13
9, 212382, Control_c, 7, 1, 14
9, 212387, Control_c, 7, 1, 15
9, 212392, Control_c, 7, 1, 16
9, 212399, Control_c, 7, 1, 17
9, 212410, Control_c, 7, 1, 18
9, 212427, Control_c, 7, 1, 19
9, 212496, Note_on_c, 7, 78, 0
9, 212496, Note_on_c, 7, 74, 0
9, 212496, Note_on_c, 7, 76, 60
9, 212496, Note_on_c, 7, 79, 60
9, 212520, Note_on_c, 7, 79, 0
9, 212520, Note_on_c, 7, 76, 0
9, 212520, Note_on_c, 7, 78, 60
9, 212520, Note_on_c, 7, 81, 60
9, 212544, Note_on_c, 7, 81, 0
9, 212544, Note_on_c, 7, 78, 0
9, 212544, Note_on_c, 7, 74, 60
9, 212544, Control_c, 7, 1, 0
9, 212544, Note_on_c, 7, 79, 60
9, 212568, Note_on_c, 7, 79, 0
9, 212568, Note_on_c, 7, 74, 0
9, 212592, Note_on_c, 7, 76, 60
9, 212592, Note_on_c, 7, 79, 60
9, 212616, Note_on_c, 7, 79, 0
9, 212616, Note_on_c, 7, 76, 0
9, 212640, Note_on_c, 7, 74, 60
9, 212640, Note_on_c, 7, 78, 60
9, 212664, Note_on_c, 7, 78, 0
9, 212664, Note_on_c, 7, 74, 0
9, 212688, Note_on_c, 7, 62, 60
9, 212688, Note_on_c, 7, 78, 60
9, 212712, Note_on_c, 7, 78, 0
9, 212712, Note_on_c, 7, 62, 0
9, 212736, Note_on_c, 7, 76, 60
9, 212736, Note_on_c, 7, 73, 60
9, 212760, Note_on_c, 7, 73, 0
9, 212784, Note_on_c, 7, 69, 60
9, 212808, Note_on_c, 7, 69, 0
9, 212832, Note_on_c, 7, 76, 0
9, 212832, Note_on_c, 7, 74, 60
9, 212832, Control_c, 7, 1, 0
9, 212832, Note_on_c, 7, 66, 60
9, 212833, Control_c, 7, 1, 1
9, 212834, Control_c, 7, 1, 2
9, 212835, Control_c, 7, 1, 3
9, 212838, Control_c, 7, 1, 4
9, 212840, Control_c, 7, 1, 5
9, 212842, Control_c, 7, 1, 6
9, 212844, Control_c, 7, 1, 7
9, 212847, Control_c, 7, 1, 8
9, 212850, Control_c, 7, 1, 9
9, 212853, Control_c, 7, 1, 10
9, 212856, Note_on_c, 7, 66, 0
9, 212856, Control_c, 7, 1, 11
9, 212859, Control_c, 7, 1, 12
9, 212864, Control_c, 7, 1, 13
9, 212868, Control_c, 7, 1, 14
9, 212874, Control_c, 7, 1, 15
9, 212880, Control_c, 7, 1, 16
9, 212887, Control_c, 7, 1, 17
9, 212897, Control_c, 7, 1, 18
9, 212911, Control_c, 7, 1, 19
9, 212935, Control_c, 7, 1, 20
9, 213024, Note_on_c, 7, 76, 60
9, 213120, Note_on_c, 7, 76, 0
9, 213120, Note_on_c, 7, 74, 0
9, 213120, Control_c, 7, 1, 0
9, 213120, Note_on_c, 7, 74, 60
9, 213120, Note_on_c, 7, 78, 60
9, 213121, Control_c, 7, 1, 1
9, 213122, Control_c, 7, 1, 2
9, 213123, Control_c, 7, 1, 3
9, 213124, Control_c, 7, 1, 4
9, 213126, Control_c, 7, 1, 5
9, 213128, Control_c, 7, 1, 6
9, 213129, Control_c, 7, 1, 7
9, 213131, Control_c, 7, 1, 8
9, 213133, Control_c, 7, 1, 9
9, 213136, Control_c, 7, 1, 10
9, 213138, Control_c, 7, 1, 11
9, 213141, Control_c, 7, 1, 12
9, 213144, Control_c, 7, 1, 13
9, 213147, Control_c, 7, 1, 14
9, 213151, Control_c, 7, 1, 15
9, 213156, Control_c, 7, 1, 16
9, 213161, Control_c, 7, 1, 17
9, 213169, Control_c, 7, 1, 18
9, 213179, Control_c, 7, 1, 19
9, 213197, Control_c, 7, 1, 20
9, 213264, Note_on_c, 7, 78, 0
9, 213264, Note_on_c, 7, 74, 0
9, 213264, Note_on_c, 7, 76, 60
9, 213264, Note_on_c, 7, 79, 60
9, 213288, Note_on_c, 7, 79, 0
9, 213288, Note_on_c, 7, 76, 0
9, 213288, Note_on_c, 7, 78, 60
9, 213288, Note_on_c, 7, 81, 60
9, 213312, Note_on_c, 7, 81, 0
9, 213312, Note_on_c, 7, 78, 0
9, 213504, Control_c, 7, 1, 0
9, 213504, Control_c, 7, 11, 127
9, 213504, Note_on_c, 7, 81, 127
9, 213528, Note_on_c, 7, 81, 0
9, 213552, Note_on_c, 7, 69, 115
9, 213576, Note_on_c, 7, 69, 0
9, 213600, Note_on_c, 7, 74, 125
9, 213624, Note_on_c, 7, 74, 0
9, 213648, Note_on_c, 7, 62, 115
9, 213672, Note_on_c, 7, 62, 0
9, 213696, Note_on_c, 7, 69, 125
9, 213720, Note_on_c, 7, 69, 0
9, 213744, Note_on_c, 7, 69, 115
9, 213768, Note_on_c, 7, 69, 0
9, 213792, Note_on_c, 7, 81, 125
9, 213816, Note_on_c, 7, 81, 0
9, 213840, Note_on_c, 7, 69, 115
9, 213864, Note_on_c, 7, 69, 0
9, 213888, Note_on_c, 7, 62, 125
9, 213888, Note_on_c, 7, 74, 125
9, 213912, Note_on_c, 7, 74, 0
9, 213912, Note_on_c, 7, 62, 0
9, 214080, End_track
10, 0, Start_track
10, 0, Title_t, "Fagotti"
10, 0, MIDI_port, 0
10, 186, Control_c, 8, 91, 50
10, 188, Control_c, 8, 93, 5
10, 190, Control_c, 8, 10, 72
10, 192, Control_c, 8, 7, 93
10, 194, Control_c, 8, 11, 120
10, 900, Program_c, 8, 70
10, 902, Control_c, 8, 99, 1
10, 904, Control_c, 8, 98, 32
10, 906, Control_c, 8, 6, 50
10, 908, Control_c, 8, 98, 33
10, 910, Control_c, 8, 6, 50
10, 912, Control_c, 8, 1, 0
10, 912, Note_on_c, 8, 50, 110
10, 936, Note_on_c, 8, 50, 0
10, 984, Note_on_c, 8, 38, 100
10, 996, Note_on_c, 8, 38, 0
10, 1008, Note_on_c, 8, 38, 100
10, 1032, Note_on_c, 8, 38, 0
10, 2496, Note_on_c, 8, 69, 50
10, 2520, Note_on_c, 8, 69, 0
10, 2640, Note_on_c, 8, 62, 50
10, 2664, Note_on_c, 8, 62, 0
10, 2784, Note_on_c, 8, 64, 50
10, 2808, Note_on_c, 8, 64, 0
10, 2928, Note_on_c, 8, 65, 50
10, 2952, Note_on_c, 8, 65, 0
10, 3072, Note_on_c, 8, 65, 50
10, 3096, Note_on_c, 8, 65, 0
10, 3216, Note_on_c, 8, 60, 50
10, 3240, Note_on_c, 8, 60, 0
10, 3360, Note_on_c, 8, 56, 50
10, 3384, Note_on_c, 8, 56, 0
10, 3504, Note_on_c, 8, 57, 50
10, 3528, Note_on_c, 8, 57, 0
10, 3648, Note_on_c, 8, 45, 50
10, 3648, Note_on_c, 8, 57, 50
10, 3672, Note_on_c, 8, 57, 0
10, 3672, Note_on_c, 8, 45, 0
10, 3792, Note_on_c, 8, 38, 50
10, 3792, Note_on_c, 8, 50, 50
10, 3816, Note_on_c, 8, 50, 0
10, 3816, Note_on_c, 8, 38, 0
10, 3936, Note_on_c, 8, 40, 50
10, 3936, Note_on_c, 8, 52, 50
10, 3960, Note_on_c, 8, 52, 0
10, 3960, Note_on_c, 8, 40, 0
10, 4080, Note_on_c, 8, 41, 50
10, 4080, Note_on_c, 8, 53, 50
10, 4104, Note_on_c, 8, 53, 0
10, 4104, Note_on_c, 8, 41, 0
10, 4224, Note_on_c, 8, 41, 50
10, 4224, Note_on_c, 8, 53, 50
10, 4248, Note_on_c, 8, 53, 0
10, 4248, Note_on_c, 8, 41, 0
10, 4368, Note_on_c, 8, 36, 50
10, 4368, Note_on_c, 8, 48, 50
10, 4392, Note_on_c, 8, 48, 0
10, 4392, Note_on_c, 8, 36, 0
10, 4512, Note_on_c, 8, 44, 50
10, 4536, Note_on_c, 8, 44, 0
10, 4656, Note_on_c, 8, 45, 50
10, 4680, Note_on_c, 8, 45, 0
10, 4800, Note_on_c, 8, 55, 50
10, 4800, Note_on_c, 8, 58, 50
10, 4824, Note_on_c, 8, 58, 0
10, 4824, Note_on_c, 8, 55, 0
10, 4944, Note_on_c, 8, 53, 50
10, 4944, Note_on_c, 8, 57, 50
10, 4968, Note_on_c, 8, 57, 0
10, 4968, Note_on_c, 8, 53, 0
10, 5088, Note_on_c, 8, 49, 50
10, 5088, Note_on_c, 8, 52, 50
10, 5112, Note_on_c, 8, 52, 0
10, 5112, Note_on_c, 8, 49, 0
10, 5232, Note_on_c, 8, 50, 50
10, 5232, Note_on_c, 8, 53, 50
10, 5256, Note_on_c, 8, 53, 0
10, 5256, Note_on_c, 8, 50, 0
10, 5376, Note_on_c, 8, 45, 50
10, 5376, Note_on_c, 8, 53, 50
10, 5400, Note_on_c, 8, 53, 0
10, 5400, Note_on_c, 8, 45, 0
10, 5520, Note_on_c, 8, 52, 50
10, 5520, Note_on_c, 8, 57, 50
10, 5544, Note_on_c, 8, 57, 0
10, 5544, Note_on_c, 8, 52, 0
10, 5664, Note_on_c, 8, 50, 50
10, 5664, Note_on_c, 8, 53, 50
10, 5688, Note_on_c, 8, 53, 0
10, 5688, Note_on_c, 8, 50, 0
10, 5808, Note_on_c, 8, 45, 50
10, 5808, Note_on_c, 8, 52, 50
10, 5832, Note_on_c, 8, 52, 0
10, 5832, Note_on_c, 8, 45, 0
10, 5952, Note_on_c, 8, 52, 50
10, 5952, Note_on_c, 8, 55, 50
10, 5976, Note_on_c, 8, 55, 0
10, 5976, Note_on_c, 8, 52, 0
10, 6096, Note_on_c, 8, 50, 50
10, 6096, Note_on_c, 8, 53, 50
10, 6120, Note_on_c, 8, 53, 0
10, 6120, Note_on_c, 8, 50, 0
10, 6240, Note_on_c, 8, 45, 50
10, 6240, Note_on_c, 8, 52, 50
10, 6264, Note_on_c, 8, 52, 0
10, 6264, Note_on_c, 8, 45, 0
10, 6384, Note_on_c, 8, 45, 50
10, 6384, Note_on_c, 8, 57, 50
10, 6408, Note_on_c, 8, 57, 0
10, 6408, Note_on_c, 8, 45, 0
10, 6624, Note_on_c, 8, 52, 53
10, 6624, Note_on_c, 8, 55, 53
10, 6648, Note_on_c, 8, 55, 0
10, 6648, Note_on_c, 8, 52, 0
10, 6768, Note_on_c, 8, 53, 58
10, 6768, Note_on_c, 8, 57, 58
10, 6792, Note_on_c, 8, 57, 0
10, 6792, Note_on_c, 8, 53, 0
10, 6912, Note_on_c, 8, 52, 63
10, 6912, Note_on_c, 8, 55, 63
10, 6936, Note_on_c, 8, 55, 0
10, 6936, Note_on_c, 8, 52, 0
10, 7056, Note_on_c, 8, 53, 68
10, 7056, Note_on_c, 8, 57, 68
10, 7080, Note_on_c, 8, 57, 0
10, 7080, Note_on_c, 8, 53, 0
10, 7200, Note_on_c, 8, 52, 73
10, 7200, Note_on_c, 8, 55, 73
10, 7224, Note_on_c, 8, 55, 0
10, 7224, Note_on_c, 8, 52, 0
10, 7344, Note_on_c, 8, 53, 78
10, 7344, Note_on_c, 8, 57, 78
10, 7368, Note_on_c, 8, 57, 0
10, 7368, Note_on_c, 8, 53, 0
10, 7488, Note_on_c, 8, 52, 83
10, 7488, Note_on_c, 8, 55, 83
10, 7512, Note_on_c, 8, 55, 0
10, 7512, Note_on_c, 8, 52, 0
10, 7632, Note_on_c, 8, 53, 88
10, 7632, Note_on_c, 8, 57, 88
10, 7656, Note_on_c, 8, 57, 0
10, 7656, Note_on_c, 8, 53, 0
10, 7776, Note_on_c, 8, 52, 93
10, 7776, Note_on_c, 8, 55, 93
10, 7800, Note_on_c, 8, 55, 0
10, 7800, Note_on_c, 8, 52, 0
10, 7920, Note_on_c, 8, 53, 98
10, 7920, Note_on_c, 8, 57, 98
10, 7944, Note_on_c, 8, 57, 0
10, 7944, Note_on_c, 8, 53, 0
10, 7968, Note_on_c, 8, 55, 100
10, 7968, Note_on_c, 8, 57, 100
10, 7992, Note_on_c, 8, 57, 0
10, 7992, Note_on_c, 8, 55, 0
10, 8016, Note_on_c, 8, 53, 102
10, 8016, Note_on_c, 8, 57, 102
10, 8040, Note_on_c, 8, 57, 0
10, 8040, Note_on_c, 8, 53, 0
10, 8064, Note_on_c, 8, 52, 104
10, 8064, Note_on_c, 8, 57, 104
10, 8088, Note_on_c, 8, 57, 0
10, 8088, Note_on_c, 8, 52, 0
10, 8112, Note_on_c, 8, 55, 105
10, 8112, Note_on_c, 8, 64, 105
10, 8136, Note_on_c, 8, 64, 0
10, 8136, Note_on_c, 8, 55, 0
10, 8160, Note_on_c, 8, 53, 107
10, 8160, Note_on_c, 8, 62, 107
10, 8184, Note_on_c, 8, 62, 0
10, 8184, Note_on_c, 8, 53, 0
10, 8208, Note_on_c, 8, 52, 109
10, 8208, Note_on_c, 8, 61, 109
10, 8232, Note_on_c, 8, 61, 0
10, 8232, Note_on_c, 8, 52, 0
10, 8256, Note_on_c, 8, 53, 115
10, 8256, Note_on_c, 8, 57, 115
10, 8280, Note_on_c, 8, 57, 0
10, 8280, Note_on_c, 8, 53, 0
10, 8304, Note_on_c, 8, 62, 110
10, 8304, Note_on_c, 8, 65, 110
10, 8328, Note_on_c, 8, 65, 0
10, 8328, Note_on_c, 8, 62, 0
10, 8352, Note_on_c, 8, 62, 110
10, 8352, Note_on_c, 8, 65, 110
10, 8376, Note_on_c, 8, 65, 0
10, 8376, Note_on_c, 8, 62, 0
10, 8400, Note_on_c, 8, 62, 115
10, 8400, Note_on_c, 8, 65, 115
10, 8424, Note_on_c, 8, 65, 0
10, 8424, Note_on_c, 8, 62, 0
10, 8448, Note_on_c, 8, 62, 110
10, 8448, Note_on_c, 8, 65, 110
10, 8472, Note_on_c, 8, 65, 0
10, 8472, Note_on_c, 8, 62, 0
10, 8496, Note_on_c, 8, 62, 110
10, 8496, Note_on_c, 8, 65, 110
10, 8520, Note_on_c, 8, 65, 0
10, 8520, Note_on_c, 8, 62, 0
10, 8544, Note_on_c, 8, 61, 115
10, 8544, Note_on_c, 8, 64, 115
10, 8568, Note_on_c, 8, 64, 0
10, 8568, Note_on_c, 8, 61, 0
10, 8592, Note_on_c, 8, 62, 110
10, 8592, Note_on_c, 8, 65, 110
10, 8616, Note_on_c, 8, 65, 0
10, 8616, Note_on_c, 8, 62, 0
10, 8640, Note_on_c, 8, 61, 110
10, 8640, Note_on_c, 8, 64, 110
10, 8664, Note_on_c, 8, 64, 0
10, 8664, Note_on_c, 8, 61, 0
10, 8688, Note_on_c, 8, 62, 115
10, 8688, Note_on_c, 8, 65, 115
10, 8712, Note_on_c, 8, 65, 0
10, 8712, Note_on_c, 8, 62, 0
10, 8736, Note_on_c, 8, 62, 110
10, 8736, Note_on_c, 8, 65, 110
10, 8760, Note_on_c, 8, 65, 0
10, 8760, Note_on_c, 8, 62, 0
10, 8784, Note_on_c, 8, 62, 110
10, 8784, Note_on_c, 8, 65, 110
10, 8808, Note_on_c, 8, 65, 0
10, 8808, Note_on_c, 8, 62, 0
10, 8832, Note_on_c, 8, 55, 115
10, 8832, Note_on_c, 8, 62, 115
10, 8856, Note_on_c, 8, 62, 0
10, 8856, Note_on_c, 8, 55, 0
10, 8880, Note_on_c, 8, 57, 110
10, 8880, Note_on_c, 8, 62, 110
10, 8904, Note_on_c, 8, 62, 0
10, 8904, Note_on_c, 8, 57, 0
10, 8928, Note_on_c, 8, 58, 110
10, 8928, Note_on_c, 8, 62, 110
10, 8952, Note_on_c, 8, 62, 0
10, 8952, Note_on_c, 8, 58, 0
10, 8976, Note_on_c, 8, 57, 115
10, 8976, Note_on_c, 8, 62, 115
10, 9000, Note_on_c, 8, 62, 0
10, 9000, Note_on_c, 8, 57, 0
10, 9024, Note_on_c, 8, 57, 110
10, 9024, Note_on_c, 8, 64, 110
10, 9048, Note_on_c, 8, 64, 0
10, 9048, Note_on_c, 8, 57, 0
10, 9072, Note_on_c, 8, 57, 110
10, 9072, Note_on_c, 8, 65, 110
10, 9096, Note_on_c, 8, 65, 0
10, 9096, Note_on_c, 8, 57, 0
10, 9120, Note_on_c, 8, 64, 115
10, 9120, Note_on_c, 8, 67, 115
10, 9144, Note_on_c, 8, 67, 0
10, 9144, Note_on_c, 8, 64, 0
10, 9168, Note_on_c, 8, 62, 110
10, 9168, Note_on_c, 8, 65, 110
10, 9192, Note_on_c, 8, 65, 0
10, 9192, Note_on_c, 8, 62, 0
10, 9216, Note_on_c, 8, 61, 110
10, 9216, Note_on_c, 8, 64, 110
10, 9240, Note_on_c, 8, 64, 0
10, 9240, Note_on_c, 8, 61, 0
10, 9264, Note_on_c, 8, 62, 115
10, 9264, Note_on_c, 8, 65, 115
10, 9288, Note_on_c, 8, 65, 0
10, 9288, Note_on_c, 8, 62, 0
10, 9312, Note_on_c, 8, 64, 110
10, 9312, Note_on_c, 8, 67, 110
10, 9336, Note_on_c, 8, 67, 0
10, 9336, Note_on_c, 8, 64, 0
10, 9360, Note_on_c, 8, 62, 110
10, 9360, Note_on_c, 8, 65, 110
10, 9384, Note_on_c, 8, 65, 0
10, 9384, Note_on_c, 8, 62, 0
10, 9408, Note_on_c, 8, 55, 115
10, 9432, Note_on_c, 8, 55, 0
10, 9456, Note_on_c, 8, 57, 110
10, 9480, Note_on_c, 8, 57, 0
10, 9504, Note_on_c, 8, 58, 110
10, 9528, Note_on_c, 8, 58, 0
10, 9552, Note_on_c, 8, 62, 115
10, 9576, Note_on_c, 8, 62, 0
10, 9600, Note_on_c, 8, 64, 110
10, 9624, Note_on_c, 8, 64, 0
10, 9648, Note_on_c, 8, 65, 110
10, 9672, Note_on_c, 8, 65, 0
10, 9696, Note_on_c, 8, 64, 115
10, 9696, Note_on_c, 8, 67, 115
10, 9720, Note_on_c, 8, 67, 0
10, 9720, Note_on_c, 8, 64, 0
10, 9744, Note_on_c, 8, 62, 110
10, 9744, Note_on_c, 8, 65, 110
10, 9768, Note_on_c, 8, 65, 0
10, 9768, Note_on_c, 8, 62, 0
10, 9792, Note_on_c, 8, 61, 110
10, 9792, Note_on_c, 8, 64, 110
10, 9816, Note_on_c, 8, 64, 0
10, 9816, Note_on_c, 8, 61, 0
10, 9840, Note_on_c, 8, 62, 115
10, 9840, Note_on_c, 8, 65, 115
10, 9864, Note_on_c, 8, 65, 0
10, 9864, Note_on_c, 8, 62, 0
10, 9888, Note_on_c, 8, 57, 110
10, 9888, Note_on_c, 8, 65, 110
10, 9912, Note_on_c, 8, 65, 0
10, 9912, Note_on_c, 8, 57, 0
10, 9936, Note_on_c, 8, 59, 110
10, 9936, Note_on_c, 8, 65, 110
10, 9960, Note_on_c, 8, 65, 0
10, 9960, Note_on_c, 8, 59, 0
10, 9984, Note_on_c, 8, 59, 115
10, 9984, Note_on_c, 8, 65, 115
10, 10008, Note_on_c, 8, 65, 0
10, 10008, Note_on_c, 8, 59, 0
10, 10032, Note_on_c, 8, 59, 110
10, 10032, Note_on_c, 8, 62, 110
10, 10056, Note_on_c, 8, 62, 0
10, 10056, Note_on_c, 8, 59, 0
10, 10080, Note_on_c, 8, 59, 110
10, 10080, Note_on_c, 8, 62, 110
10, 10104, Note_on_c, 8, 62, 0
10, 10104, Note_on_c, 8, 59, 0
10, 10128, Note_on_c, 8, 60, 115
10, 10128, Note_on_c, 8, 64, 115
10, 10152, Note_on_c, 8, 64, 0
10, 10152, Note_on_c, 8, 60, 0
10, 10176, Note_on_c, 8, 62, 110
10, 10176, Note_on_c, 8, 65, 110
10, 10200, Note_on_c, 8, 65, 0
10, 10200, Note_on_c, 8, 62, 0
10, 10224, Note_on_c, 8, 64, 110
10, 10224, Note_on_c, 8, 67, 110
10, 10248, Note_on_c, 8, 67, 0
10, 10248, Note_on_c, 8, 64, 0
10, 10272, Note_on_c, 8, 62, 115
10, 10272, Note_on_c, 8, 65, 115
10, 10296, Note_on_c, 8, 65, 0
10, 10296, Note_on_c, 8, 62, 0
10, 10320, Note_on_c, 8, 60, 110
10, 10320, Note_on_c, 8, 64, 110
10, 10344, Note_on_c, 8, 64, 0
10, 10344, Note_on_c, 8, 60, 0
10, 10368, Note_on_c, 8, 59, 110
10, 10368, Note_on_c, 8, 65, 110
10, 10392, Note_on_c, 8, 65, 0
10, 10392, Note_on_c, 8, 59, 0
10, 10416, Note_on_c, 8, 60, 115
10, 10416, Note_on_c, 8, 64, 115
10, 10440, Note_on_c, 8, 64, 0
10, 10440, Note_on_c, 8, 60, 0
10, 10464, Note_on_c, 8, 59, 110
10, 10464, Note_on_c, 8, 65, 110
10, 10488, Note_on_c, 8, 65, 0
10, 10488, Note_on_c, 8, 59, 0
10, 10512, Note_on_c, 8, 59, 110
10, 10512, Note_on_c, 8, 65, 110
10, 10536, Note_on_c, 8, 65, 0
10, 10536, Note_on_c, 8, 59, 0
10, 10560, Note_on_c, 8, 59, 115
10, 10560, Note_on_c, 8, 65, 115
10, 10584, Note_on_c, 8, 65, 0
10, 10584, Note_on_c, 8, 59, 0
10, 10608, Note_on_c, 8, 59, 110
10, 10608, Note_on_c, 8, 62, 110
10, 10632, Note_on_c, 8, 62, 0
10, 10632, Note_on_c, 8, 59, 0
10, 10656, Note_on_c, 8, 59, 110
10, 10656, Note_on_c, 8, 62, 110
10, 10680, Note_on_c, 8, 62, 0
10, 10680, Note_on_c, 8, 59, 0
10, 10704, Note_on_c, 8, 60, 115
10, 10704, Note_on_c, 8, 64, 115
10, 10728, Note_on_c, 8, 64, 0
10, 10728, Note_on_c, 8, 60, 0
10, 10752, Note_on_c, 8, 62, 110
10, 10752, Note_on_c, 8, 65, 110
10, 10776, Note_on_c, 8, 65, 0
10, 10776, Note_on_c, 8, 62, 0
10, 10800, Note_on_c, 8, 64, 110
10, 10800, Note_on_c, 8, 67, 110
10, 10824, Note_on_c, 8, 67, 0
10, 10824, Note_on_c, 8, 64, 0
10, 10848, Note_on_c, 8, 60, 115
10, 10848, Note_on_c, 8, 64, 115
10, 10872, Note_on_c, 8, 64, 0
10, 10872, Note_on_c, 8, 60, 0
10, 10896, Note_on_c, 8, 62, 110
10, 10896, Note_on_c, 8, 65, 110
10, 10920, Note_on_c, 8, 65, 0
10, 10920, Note_on_c, 8, 62, 0
10, 10944, Note_on_c, 8, 64, 110
10, 10944, Note_on_c, 8, 67, 110
10, 10968, Note_on_c, 8, 67, 0
10, 10968, Note_on_c, 8, 64, 0
10, 10992, Note_on_c, 8, 60, 115
10, 10992, Note_on_c, 8, 64, 115
10, 11016, Note_on_c, 8, 64, 0
10, 11016, Note_on_c, 8, 60, 0
10, 11040, Note_on_c, 8, 62, 110
10, 11040, Note_on_c, 8, 65, 110
10, 11064, Note_on_c, 8, 65, 0
10, 11064, Note_on_c, 8, 62, 0
10, 11088, Note_on_c, 8, 64, 110
10, 11088, Note_on_c, 8, 67, 110
10, 11112, Note_on_c, 8, 67, 0
10, 11112, Note_on_c, 8, 64, 0
10, 11136, Control_c, 8, 1, 0
10, 11136, Control_c, 8, 11, 60
10, 11136, Note_on_c, 8, 55, 110
10, 11136, Note_on_c, 8, 67, 110
10, 11137, Control_c, 8, 1, 1
10, 11138, Control_c, 8, 1, 2
10, 11139, Control_c, 8, 1, 3
10, 11140, Control_c, 8, 1, 4
10, 11142, Control_c, 8, 1, 5
10, 11143, Control_c, 8, 1, 6
10, 11144, Control_c, 8, 1, 7
10, 11146, Control_c, 8, 1, 8
10, 11148, Control_c, 8, 1, 9
10, 11150, Control_c, 8, 1, 10
10, 11152, Control_c, 8, 1, 11
10, 11154, Control_c, 8, 1, 12
10, 11157, Control_c, 8, 1, 13
10, 11159, Control_c, 8, 1, 14
10, 11162, Control_c, 8, 1, 15
10, 11166, Control_c, 8, 1, 16
10, 11169, Control_c, 8, 1, 17
10, 11174, Control_c, 8, 1, 18
10, 11180, Control_c, 8, 1, 19
10, 11187, Control_c, 8, 1, 20
10, 11197, Control_c, 8, 1, 21
10, 11215, Control_c, 8, 1, 22
10, 11280, Control_c, 8, 11, 60
10, 11295, Control_c, 8, 11, 61
10, 11309, Control_c, 8, 11, 62
10, 11324, Control_c, 8, 11, 63
10, 11338, Control_c, 8, 11, 64
10, 11352, Control_c, 8, 11, 65
10, 11367, Control_c, 8, 11, 66
10, 11381, Control_c, 8, 11, 67
10, 11395, Control_c, 8, 11, 68
10, 11410, Control_c, 8, 11, 69
10, 11424, Note_on_c, 8, 53, 110
10, 11424, Note_on_c, 8, 65, 110
10, 11424, Control_c, 8, 11, 70
10, 11425, Note_on_c, 8, 67, 0
10, 11425, Note_on_c, 8, 55, 0
10, 11439, Control_c, 8, 11, 71
10, 11453, Control_c, 8, 11, 72
10, 11467, Control_c, 8, 11, 73
10, 11482, Control_c, 8, 11, 74
10, 11496, Control_c, 8, 11, 75
10, 11510, Control_c, 8, 11, 76
10, 11525, Control_c, 8, 11, 77
10, 11539, Control_c, 8, 11, 78
10, 11554, Control_c, 8, 11, 79
10, 11568, Note_on_c, 8, 50, 110
10, 11568, Note_on_c, 8, 62, 110
10, 11568, Control_c, 8, 11, 80
10, 11569, Note_on_c, 8, 65, 0
10, 11569, Note_on_c, 8, 53, 0
10, 11582, Control_c, 8, 11, 81
10, 11597, Control_c, 8, 11, 82
10, 11611, Control_c, 8, 11, 83
10, 11625, Control_c, 8, 11, 84
10, 11640, Control_c, 8, 11, 85
10, 11654, Control_c, 8, 11, 86
10, 11669, Control_c, 8, 11, 87
10, 11683, Control_c, 8, 11, 88
10, 11697, Control_c, 8, 11, 89
10, 11712, Note_on_c, 8, 47, 110
10, 11712, Note_on_c, 8, 59, 110
10, 11712, Control_c, 8, 11, 90
10, 11713, Note_on_c, 8, 62, 0
10, 11713, Note_on_c, 8, 50, 0
10, 11726, Control_c, 8, 11, 91
10, 11740, Control_c, 8, 11, 92
10, 11755, Control_c, 8, 11, 93
10, 11769, Control_c, 8, 11, 94
10, 11784, Control_c, 8, 11, 95
10, 11798, Control_c, 8, 11, 96
10, 11812, Control_c, 8, 11, 97
10, 11827, Control_c, 8, 11, 98
10, 11841, Control_c, 8, 11, 99
10, 11855, Control_c, 8, 11, 100
10, 11856, Control_c, 8, 11, 100
10, 11856, Note_on_c, 8, 48, 110
10, 11856, Note_on_c, 8, 60, 110
10, 11857, Note_on_c, 8, 59, 0
10, 11857, Note_on_c, 8, 47, 0
10, 11867, Control_c, 8, 11, 99
10, 11878, Control_c, 8, 11, 98
10, 11889, Control_c, 8, 11, 97
10, 11900, Control_c, 8, 11, 96
10, 11910, Control_c, 8, 11, 95
10, 11921, Control_c, 8, 11, 94
10, 11932, Control_c, 8, 11, 93
10, 11943, Control_c, 8, 11, 92
10, 11953, Control_c, 8, 11, 91
10, 11964, Control_c, 8, 11, 90
10, 11975, Control_c, 8, 11, 89
10, 11986, Control_c, 8, 11, 88
10, 11997, Control_c, 8, 11, 87
10, 12000, Note_on_c, 8, 55, 110
10, 12000, Note_on_c, 8, 67, 110
10, 12001, Note_on_c, 8, 60, 0
10, 12001, Note_on_c, 8, 48, 0
10, 12007, Control_c, 8, 11, 86
10, 12018, Control_c, 8, 11, 85
10, 12029, Control_c, 8, 11, 84
10, 12040, Control_c, 8, 11, 83
10, 12050, Control_c, 8, 11, 82
10, 12061, Control_c, 8, 11, 81
10, 12072, Control_c, 8, 11, 80
10, 12083, Control_c, 8, 11, 79
10, 12094, Control_c, 8, 11, 78
10, 12104, Control_c, 8, 11, 77
10, 12115, Control_c, 8, 11, 76
10, 12126, Control_c, 8, 11, 75
10, 12137, Control_c, 8, 11, 74
10, 12144, Note_on_c, 8, 43, 110
10, 12145, Note_on_c, 8, 67, 0
10, 12147, Control_c, 8, 11, 73
10, 12158, Control_c, 8, 11, 72
10, 12169, Control_c, 8, 11, 71
10, 12180, Control_c, 8, 11, 70
10, 12191, Control_c, 8, 11, 69
10, 12201, Control_c, 8, 11, 68
10, 12212, Control_c, 8, 11, 67
10, 12223, Control_c, 8, 11, 66
10, 12234, Control_c, 8, 11, 65
10, 12244, Control_c, 8, 11, 64
10, 12255, Control_c, 8, 11, 63
10, 12266, Control_c, 8, 11, 62
10, 12277, Control_c, 8, 11, 61
10, 12287, Control_c, 8, 11, 60
10, 12288, Control_c, 8, 1, 0
10, 12288, Control_c, 8, 11, 60
10, 12288, Note_on_c, 8, 67, 110
10, 12289, Note_on_c, 8, 55, 0
10, 12289, Note_on_c, 8, 43, 0
10, 12289, Control_c, 8, 1, 1
10, 12290, Control_c, 8, 1, 2
10, 12291, Control_c, 8, 1, 3
10, 12292, Control_c, 8, 1, 4
10, 12294, Control_c, 8, 1, 5
10, 12295, Control_c, 8, 1, 6
10, 12296, Control_c, 8, 1, 7
10, 12298, Control_c, 8, 1, 8
10, 12300, Control_c, 8, 1, 9
10, 12302, Control_c, 8, 1, 10
10, 12304, Control_c, 8, 1, 11
10, 12306, Control_c, 8, 1, 12
10, 12308, Control_c, 8, 11, 61
10, 12309, Control_c, 8, 1, 13
10, 12311, Control_c, 8, 1, 14
10, 12314, Control_c, 8, 1, 15
10, 12318, Control_c, 8, 1, 16
10, 12321, Control_c, 8, 1, 17
10, 12326, Control_c, 8, 1, 18
10, 12327, Control_c, 8, 11, 62
10, 12332, Control_c, 8, 1, 19
10, 12339, Control_c, 8, 1, 20
10, 12346, Control_c, 8, 11, 63
10, 12349, Control_c, 8, 1, 21
10, 12365, Control_c, 8, 11, 64
10, 12367, Control_c, 8, 1, 22
10, 12384, Control_c, 8, 11, 65
10, 12404, Control_c, 8, 11, 66
10, 12423, Control_c, 8, 11, 67
10, 12432, Note_on_c, 8, 60, 110
10, 12442, Control_c, 8, 11, 68
10, 12461, Control_c, 8, 11, 69
10, 12480, Control_c, 8, 11, 70
10, 12500, Control_c, 8, 11, 71
10, 12519, Control_c, 8, 11, 72
10, 12538, Control_c, 8, 11, 73
10, 12557, Control_c, 8, 11, 74
10, 12576, Note_on_c, 8, 53, 110
10, 12576, Control_c, 8, 11, 75
10, 12577, Note_on_c, 8, 60, 0
10, 12595, Control_c, 8, 11, 76
10, 12615, Control_c, 8, 11, 77
10, 12634, Control_c, 8, 11, 78
10, 12653, Control_c, 8, 11, 79
10, 12672, Control_c, 8, 11, 80
10, 12691, Control_c, 8, 11, 81
10, 12711, Control_c, 8, 11, 82
10, 12720, Note_on_c, 8, 50, 110
10, 12720, Note_on_c, 8, 65, 110
10, 12721, Note_on_c, 8, 67, 0
10, 12721, Note_on_c, 8, 53, 0
10, 12730, Control_c, 8, 11, 83
10, 12749, Control_c, 8, 11, 84
10, 12768, Control_c, 8, 11, 85
10, 12787, Control_c, 8, 11, 86
10, 12806, Control_c, 8, 11, 87
10, 12826, Control_c, 8, 11, 88
10, 12845, Control_c, 8, 11, 89
10, 12864, Note_on_c, 8, 55, 110
10, 12864, Control_c, 8, 11, 90
10, 12865, Note_on_c, 8, 50, 0
10, 12883, Control_c, 8, 11, 91
10, 12902, Control_c, 8, 11, 92
10, 12922, Control_c, 8, 11, 93
10, 12941, Control_c, 8, 11, 94
10, 12960, Control_c, 8, 11, 95
10, 12979, Control_c, 8, 11, 96
10, 12998, Control_c, 8, 11, 97
10, 13008, Note_on_c, 8, 60, 110
10, 13008, Note_on_c, 8, 64, 110
10, 13009, Note_on_c, 8, 65, 0
10, 13009, Note_on_c, 8, 55, 0
10, 13017, Control_c, 8, 11, 98
10, 13037, Control_c, 8, 11, 99
10, 13056, Control_c, 8, 11, 100
10, 13075, Control_c, 8, 11, 101
10, 13094, Control_c, 8, 11, 102
10, 13113, Control_c, 8, 11, 103
10, 13133, Control_c, 8, 11, 104
10, 13152, Note_on_c, 8, 55, 110
10, 13152, Note_on_c, 8, 63, 110
10, 13152, Control_c, 8, 11, 105
10, 13153, Note_on_c, 8, 64, 0
10, 13153, Note_on_c, 8, 60, 0
10, 13171, Control_c, 8, 11, 106
10, 13190, Control_c, 8, 11, 107
10, 13209, Control_c, 8, 11, 108
10, 13228, Control_c, 8, 11, 109
10, 13248, Control_c, 8, 11, 110
10, 13267, Control_c, 8, 11, 111
10, 13286, Control_c, 8, 11, 112
10, 13296, Note_on_c, 8, 43, 110
10, 13296, Note_on_c, 8, 67, 110
10, 13297, Note_on_c, 8, 63, 0
10, 13297, Note_on_c, 8, 55, 0
10, 13305, Control_c, 8, 11, 113
10, 13324, Control_c, 8, 11, 114
10, 13344, Control_c, 8, 11, 115
10, 13363, Control_c, 8, 11, 116
10, 13382, Control_c, 8, 11, 117
10, 13401, Control_c, 8, 11, 118
10, 13420, Control_c, 8, 11, 119
10, 13439, Note_on_c, 8, 67, 0
10, 13439, Note_on_c, 8, 43, 0
10, 13439, Control_c, 8, 11, 120
10, 13440, Control_c, 8, 1, 0
10, 13440, Note_on_c, 8, 60, 113
10, 13440, Note_on_c, 8, 48, 113
10, 13488, Note_on_c, 8, 48, 0
10, 13488, Note_on_c, 8, 52, 113
10, 13536, Note_on_c, 8, 52, 0
10, 13536, Note_on_c, 8, 60, 0
10, 13536, Note_on_c, 8, 53, 111
10, 13536, Note_on_c, 8, 62, 111
10, 13560, Note_on_c, 8, 62, 0
10, 13560, Note_on_c, 8, 53, 0
10, 13560, Note_on_c, 8, 55, 112
10, 13560, Note_on_c, 8, 64, 112
10, 13584, Note_on_c, 8, 64, 0
10, 13584, Note_on_c, 8, 55, 0
10, 13584, Note_on_c, 8, 57, 113
10, 13584, Note_on_c, 8, 65, 113
10, 13608, Note_on_c, 8, 65, 0
10, 13608, Note_on_c, 8, 57, 0
10, 13680, Note_on_c, 8, 55, 110
10, 13680, Note_on_c, 8, 64, 110
10, 13704, Note_on_c, 8, 64, 0
10, 13704, Note_on_c, 8, 55, 0
10, 13728, Note_on_c, 8, 53, 113
10, 13728, Note_on_c, 8, 62, 113
10, 13752, Note_on_c, 8, 62, 0
10, 13752, Note_on_c, 8, 53, 0
10, 13824, Note_on_c, 8, 52, 110
10, 13824, Note_on_c, 8, 60, 110
10, 13848, Note_on_c, 8, 60, 0
10, 13848, Note_on_c, 8, 52, 0
10, 13872, Note_on_c, 8, 53, 113
10, 13872, Note_on_c, 8, 62, 113
10, 13896, Note_on_c, 8, 62, 0
10, 13896, Note_on_c, 8, 53, 0
10, 13968, Note_on_c, 8, 50, 110
10, 13968, Note_on_c, 8, 59, 110
10, 13992, Note_on_c, 8, 59, 0
10, 13992, Note_on_c, 8, 50, 0
10, 14016, Note_on_c, 8, 60, 113
10, 14016, Note_on_c, 8, 64, 113
10, 14064, Note_on_c, 8, 64, 0
10, 14064, Note_on_c, 8, 60, 0
10, 14064, Note_on_c, 8, 48, 110
10, 14064, Note_on_c, 8, 52, 110
10, 14112, Note_on_c, 8, 52, 0
10, 14112, Note_on_c, 8, 48, 0
10, 14112, Note_on_c, 8, 50, 111
10, 14112, Note_on_c, 8, 53, 111
10, 14136, Note_on_c, 8, 53, 0
10, 14136, Note_on_c, 8, 50, 0
10, 14136, Note_on_c, 8, 52, 112
10, 14136, Note_on_c, 8, 55, 112
10, 14160, Note_on_c, 8, 55, 0
10, 14160, Note_on_c, 8, 52, 0
10, 14160, Note_on_c, 8, 53, 113
10, 14160, Note_on_c, 8, 57, 113
10, 14184, Note_on_c, 8, 57, 0
10, 14184, Note_on_c, 8, 53, 0
10, 14256, Note_on_c, 8, 52, 110
10, 14256, Note_on_c, 8, 55, 110
10, 14280, Note_on_c, 8, 55, 0
10, 14280, Note_on_c, 8, 52, 0
10, 14304, Note_on_c, 8, 50, 113
10, 14304, Note_on_c, 8, 53, 113
10, 14328, Note_on_c, 8, 53, 0
10, 14328, Note_on_c, 8, 50, 0
10, 14400, Note_on_c, 8, 48, 110
10, 14400, Note_on_c, 8, 52, 110
10, 14424, Note_on_c, 8, 52, 0
10, 14424, Note_on_c, 8, 48, 0
10, 14448, Note_on_c, 8, 50, 113
10, 14448, Note_on_c, 8, 53, 113
10, 14472, Note_on_c, 8, 53, 0
10, 14472, Note_on_c, 8, 50, 0
10, 14544, Note_on_c, 8, 50, 110
10, 14544, Note_on_c, 8, 59, 110
10, 14568, Note_on_c, 8, 59, 0
10, 14568, Note_on_c, 8, 50, 0
10, 14592, Note_on_c, 8, 48, 113
10, 14592, Note_on_c, 8, 60, 113
10, 14616, Note_on_c, 8, 60, 0
10, 14616, Note_on_c, 8, 48, 0
10, 14640, Note_on_c, 8, 52, 110
10, 14640, Note_on_c, 8, 60, 110
10, 14688, Note_on_c, 8, 60, 0
10, 14688, Note_on_c, 8, 52, 0
10, 14688, Note_on_c, 8, 53, 111
10, 14688, Note_on_c, 8, 62, 111
10, 14712, Note_on_c, 8, 62, 0
10, 14712, Note_on_c, 8, 53, 0
10, 14712, Note_on_c, 8, 55, 112
10, 14712, Note_on_c, 8, 64, 112
10, 14736, Note_on_c, 8, 64, 0
10, 14736, Note_on_c, 8, 55, 0
10, 14736, Note_on_c, 8, 57, 113
10, 14736, Note_on_c, 8, 65, 113
10, 14760, Note_on_c, 8, 65, 0
10, 14760, Note_on_c, 8, 57, 0
10, 14784, Note_on_c, 8, 57, 110
10, 14784, Note_on_c, 8, 65, 110
10, 14808, Note_on_c, 8, 65, 0
10, 14808, Note_on_c, 8, 57, 0
10, 14832, Note_on_c, 8, 55, 110
10, 14832, Note_on_c, 8, 64, 110
10, 14856, Note_on_c, 8, 64, 0
10, 14856, Note_on_c, 8, 55, 0
10, 14880, Note_on_c, 8, 53, 113
10, 14880, Note_on_c, 8, 62, 113
10, 14904, Note_on_c, 8, 62, 0
10, 14904, Note_on_c, 8, 53, 0
10, 14928, Note_on_c, 8, 53, 110
10, 14928, Note_on_c, 8, 62, 110
10, 14952, Note_on_c, 8, 62, 0
10, 14952, Note_on_c, 8, 53, 0
10, 14976, Note_on_c, 8, 52, 110
10, 14976, Note_on_c, 8, 60, 110
10, 15000, Note_on_c, 8, 60, 0
10, 15000, Note_on_c, 8, 52, 0
10, 15024, Note_on_c, 8, 53, 113
10, 15024, Note_on_c, 8, 62, 113
10, 15048, Note_on_c, 8, 62, 0
10, 15048, Note_on_c, 8, 53, 0
10, 15072, Note_on_c, 8, 53, 110
10, 15072, Note_on_c, 8, 62, 110
10, 15096, Note_on_c, 8, 62, 0
10, 15096, Note_on_c, 8, 53, 0
10, 15120, Note_on_c, 8, 50, 110
10, 15120, Note_on_c, 8, 59, 110
10, 15144, Note_on_c, 8, 59, 0
10, 15144, Note_on_c, 8, 50, 0
10, 15168, Note_on_c, 8, 48, 113
10, 15168, Note_on_c, 8, 52, 113
10, 15192, Note_on_c, 8, 52, 0
10, 15192, Note_on_c, 8, 48, 0
10, 15216, Note_on_c, 8, 48, 110
10, 15216, Note_on_c, 8, 52, 110
10, 15264, Note_on_c, 8, 52, 0
10, 15264, Note_on_c, 8, 48, 0
10, 15264, Note_on_c, 8, 50, 111
10, 15264, Note_on_c, 8, 53, 111
10, 15288, Note_on_c, 8, 53, 0
10, 15288, Note_on_c, 8, 50, 0
10, 15288, Note_on_c, 8, 52, 112
10, 15288, Note_on_c, 8, 55, 112
10, 15312, Note_on_c, 8, 55, 0
10, 15312, Note_on_c, 8, 52, 0
10, 15312, Note_on_c, 8, 53, 113
10, 15312, Note_on_c, 8, 57, 113
10, 15336, Note_on_c, 8, 57, 0
10, 15336, Note_on_c, 8, 53, 0
10, 15360, Note_on_c, 8, 53, 110
10, 15360, Note_on_c, 8, 57, 110
10, 15384, Note_on_c, 8, 57, 0
10, 15384, Note_on_c, 8, 53, 0
10, 15408, Note_on_c, 8, 52, 110
10, 15408, Note_on_c, 8, 55, 110
10, 15432, Note_on_c, 8, 55, 0
10, 15432, Note_on_c, 8, 52, 0
10, 15456, Note_on_c, 8, 50, 113
10, 15456, Note_on_c, 8, 53, 113
10, 15480, Note_on_c, 8, 53, 0
10, 15480, Note_on_c, 8, 50, 0
10, 15504, Note_on_c, 8, 50, 110
10, 15504, Note_on_c, 8, 53, 110
10, 15528, Note_on_c, 8, 53, 0
10, 15528, Note_on_c, 8, 50, 0
10, 15552, Note_on_c, 8, 48, 110
10, 15552, Note_on_c, 8, 52, 110
10, 15576, Note_on_c, 8, 52, 0
10, 15576, Note_on_c, 8, 48, 0
10, 15600, Note_on_c, 8, 50, 113
10, 15600, Note_on_c, 8, 53, 113
10, 15624, Note_on_c, 8, 53, 0
10, 15624, Note_on_c, 8, 50, 0
10, 15648, Note_on_c, 8, 50, 110
10, 15648, Note_on_c, 8, 53, 110
10, 15672, Note_on_c, 8, 53, 0
10, 15672, Note_on_c, 8, 50, 0
10, 15696, Note_on_c, 8, 50, 110
10, 15696, Note_on_c, 8, 59, 110
10, 15720, Note_on_c, 8, 59, 0
10, 15720, Note_on_c, 8, 50, 0
10, 15744, Note_on_c, 8, 48, 120
10, 15744, Note_on_c, 8, 60, 120
10, 15779, Note_on_c, 8, 60, 0
10, 15779, Note_on_c, 8, 48, 0
10, 15816, Note_on_c, 8, 36, 113
10, 15816, Note_on_c, 8, 48, 113
10, 15828, Note_on_c, 8, 48, 0
10, 15828, Note_on_c, 8, 36, 0
10, 15840, Note_on_c, 8, 36, 113
10, 15840, Note_on_c, 8, 48, 113
10, 15864, Note_on_c, 8, 48, 0
10, 15864, Note_on_c, 8, 36, 0
10, 15888, Note_on_c, 8, 48, 116
10, 15888, Note_on_c, 8, 60, 116
10, 15912, Note_on_c, 8, 60, 0
10, 15912, Note_on_c, 8, 48, 0
10, 15936, Note_on_c, 8, 50, 113
10, 15936, Note_on_c, 8, 62, 113
10, 15960, Note_on_c, 8, 62, 0
10, 15960, Note_on_c, 8, 50, 0
10, 15984, Note_on_c, 8, 52, 113
10, 15984, Note_on_c, 8, 64, 113
10, 16008, Note_on_c, 8, 64, 0
10, 16008, Note_on_c, 8, 52, 0
10, 16032, Note_on_c, 8, 53, 113
10, 16032, Note_on_c, 8, 65, 113
10, 16056, Note_on_c, 8, 65, 0
10, 16056, Note_on_c, 8, 53, 0
10, 16320, Note_on_c, 8, 47, 120
10, 16320, Note_on_c, 8, 59, 120
10, 16355, Note_on_c, 8, 59, 0
10, 16355, Note_on_c, 8, 47, 0
10, 16392, Note_on_c, 8, 35, 113
10, 16392, Note_on_c, 8, 47, 113
10, 16404, Note_on_c, 8, 47, 0
10, 16404, Note_on_c, 8, 35, 0
10, 16416, Note_on_c, 8, 35, 113
10, 16416, Note_on_c, 8, 47, 113
10, 16440, Note_on_c, 8, 47, 0
10, 16440, Note_on_c, 8, 35, 0
10, 16464, Note_on_c, 8, 47, 116
10, 16464, Note_on_c, 8, 59, 116
10, 16488, Note_on_c, 8, 59, 0
10, 16488, Note_on_c, 8, 47, 0
10, 16512, Note_on_c, 8, 48, 113
10, 16512, Note_on_c, 8, 60, 113
10, 16536, Note_on_c, 8, 60, 0
10, 16536, Note_on_c, 8, 48, 0
10, 16560, Note_on_c, 8, 50, 113
10, 16560, Note_on_c, 8, 62, 113
10, 16584, Note_on_c, 8, 62, 0
10, 16584, Note_on_c, 8, 50, 0
10, 16608, Note_on_c, 8, 52, 113
10, 16608, Note_on_c, 8, 64, 113
10, 16632, Note_on_c, 8, 64, 0
10, 16632, Note_on_c, 8, 52, 0
10, 16896, Control_c, 8, 1, 0
10, 16896, Control_c, 8, 11, 50
10, 16896, Note_on_c, 8, 48, 100
10, 16897, Control_c, 8, 1, 1
10, 16898, Control_c, 8, 1, 2
10, 16899, Control_c, 8, 1, 3
10, 16900, Control_c, 8, 1, 4
10, 16902, Control_c, 8, 1, 5
10, 16903, Control_c, 8, 1, 6
10, 16905, Control_c, 8, 1, 7
10, 16907, Control_c, 8, 1, 8
10, 16908, Control_c, 8, 1, 9
10, 16910, Control_c, 8, 1, 10
10, 16913, Control_c, 8, 1, 11
10, 16915, Control_c, 8, 1, 12
10, 16918, Control_c, 8, 1, 13
10, 16921, Control_c, 8, 1, 14
10, 16924, Control_c, 8, 1, 15
10, 16928, Control_c, 8, 1, 16
10, 16933, Control_c, 8, 1, 17
10, 16939, Control_c, 8, 1, 18
10, 16946, Control_c, 8, 1, 19
10, 16956, Control_c, 8, 1, 20
10, 16973, Control_c, 8, 1, 21
10, 17184, Control_c, 8, 11, 50
10, 17194, Control_c, 8, 11, 51
10, 17204, Control_c, 8, 11, 52
10, 17213, Control_c, 8, 11, 53
10, 17223, Control_c, 8, 11, 54
10, 17232, Control_c, 8, 11, 55
10, 17242, Control_c, 8, 11, 56
10, 17251, Control_c, 8, 11, 57
10, 17261, Control_c, 8, 11, 58
10, 17271, Control_c, 8, 11, 59
10, 17280, Control_c, 8, 11, 60
10, 17290, Control_c, 8, 11, 61
10, 17299, Control_c, 8, 11, 62
10, 17309, Control_c, 8, 11, 63
10, 17318, Control_c, 8, 11, 64
10, 17328, Control_c, 8, 11, 65
10, 17338, Control_c, 8, 11, 66
10, 17347, Control_c, 8, 11, 67
10, 17357, Control_c, 8, 11, 68
10, 17366, Control_c, 8, 11, 69
10, 17376, Control_c, 8, 11, 70
10, 17385, Control_c, 8, 11, 71
10, 17395, Control_c, 8, 11, 72
10, 17405, Control_c, 8, 11, 73
10, 17414, Control_c, 8, 11, 74
10, 17424, Control_c, 8, 11, 75
10, 17433, Control_c, 8, 11, 76
10, 17443, Control_c, 8, 11, 77
10, 17452, Control_c, 8, 11, 78
10, 17462, Control_c, 8, 11, 79
10, 17471, Control_c, 8, 11, 80
10, 17472, Control_c, 8, 11, 80
10, 17482, Control_c, 8, 11, 79
10, 17492, Control_c, 8, 11, 78
10, 17501, Control_c, 8, 11, 77
10, 17511, Control_c, 8, 11, 76
10, 17520, Control_c, 8, 11, 75
10, 17530, Control_c, 8, 11, 74
10, 17539, Control_c, 8, 11, 73
10, 17549, Control_c, 8, 11, 72
10, 17559, Control_c, 8, 11, 71
10, 17568, Control_c, 8, 11, 70
10, 17578, Control_c, 8, 11, 69
10, 17587, Control_c, 8, 11, 68
10, 17597, Control_c, 8, 11, 67
10, 17606, Control_c, 8, 11, 66
10, 17616, Control_c, 8, 11, 65
10, 17626, Control_c, 8, 11, 64
10, 17635, Control_c, 8, 11, 63
10, 17645, Control_c, 8, 11, 62
10, 17654, Control_c, 8, 11, 61
10, 17664, Control_c, 8, 11, 60
10, 17673, Control_c, 8, 11, 59
10, 17683, Control_c, 8, 11, 58
10, 17693, Control_c, 8, 11, 57
10, 17702, Control_c, 8, 11, 56
10, 17712, Control_c, 8, 11, 55
10, 17721, Control_c, 8, 11, 54
10, 17731, Control_c, 8, 11, 53
10, 17740, Control_c, 8, 11, 52
10, 17750, Control_c, 8, 11, 51
10, 17759, Control_c, 8, 11, 50
10, 17760, Note_on_c, 8, 48, 0
10, 17760, Control_c, 8, 11, 50
10, 17760, Control_c, 8, 1, 0
10, 17760, Note_on_c, 8, 46, 100
10, 17760, Note_on_c, 8, 55, 100
10, 17761, Control_c, 8, 1, 1
10, 17762, Control_c, 8, 1, 2
10, 17763, Control_c, 8, 1, 3
10, 17764, Control_c, 8, 1, 4
10, 17766, Control_c, 8, 1, 5
10, 17767, Control_c, 8, 1, 6
10, 17769, Control_c, 8, 11, 51
10, 17769, Control_c, 8, 1, 7
10, 17771, Control_c, 8, 1, 8
10, 17772, Control_c, 8, 1, 9
10, 17774, Control_c, 8, 1, 10
10, 17777, Control_c, 8, 11, 52
10, 17777, Control_c, 8, 1, 11
10, 17779, Control_c, 8, 1, 12
10, 17782, Control_c, 8, 1, 13
10, 17785, Control_c, 8, 11, 53
10, 17785, Control_c, 8, 1, 14
10, 17788, Control_c, 8, 1, 15
10, 17792, Control_c, 8, 1, 16
10, 17793, Control_c, 8, 11, 54
10, 17797, Control_c, 8, 1, 17
10, 17802, Control_c, 8, 11, 55
10, 17803, Control_c, 8, 1, 18
10, 17808, Note_on_c, 8, 55, 0
10, 17808, Note_on_c, 8, 48, 100
10, 17810, Control_c, 8, 11, 56
10, 17810, Control_c, 8, 1, 19
10, 17818, Control_c, 8, 11, 57
10, 17820, Control_c, 8, 1, 20
10, 17826, Control_c, 8, 11, 58
10, 17834, Control_c, 8, 11, 59
10, 17837, Control_c, 8, 1, 21
10, 17843, Control_c, 8, 11, 60
10, 17851, Control_c, 8, 11, 61
10, 17856, Note_on_c, 8, 48, 0
10, 17856, Note_on_c, 8, 50, 100
10, 17859, Control_c, 8, 11, 62
10, 17867, Control_c, 8, 11, 63
10, 17875, Control_c, 8, 11, 64
10, 17884, Control_c, 8, 11, 65
10, 17892, Control_c, 8, 11, 66
10, 17900, Control_c, 8, 11, 67
10, 17904, Note_on_c, 8, 50, 0
10, 17904, Note_on_c, 8, 52, 100
10, 17908, Control_c, 8, 11, 68
10, 17917, Control_c, 8, 11, 69
10, 17925, Control_c, 8, 11, 70
10, 17933, Control_c, 8, 11, 71
10, 17941, Control_c, 8, 11, 72
10, 17949, Control_c, 8, 11, 73
10, 17952, Note_on_c, 8, 52, 0
10, 17952, Note_on_c, 8, 46, 0
10, 17952, Note_on_c, 8, 45, 100
10, 17952, Note_on_c, 8, 53, 100
10, 17958, Control_c, 8, 11, 74
10, 17966, Control_c, 8, 11, 75
10, 17974, Control_c, 8, 11, 76
10, 17982, Control_c, 8, 11, 77
10, 17990, Control_c, 8, 11, 78
10, 17999, Control_c, 8, 11, 79
10, 18000, Note_on_c, 8, 53, 0
10, 18000, Note_on_c, 8, 45, 0
10, 18000, Note_on_c, 8, 43, 100
10, 18000, Note_on_c, 8, 55, 100
10, 18007, Control_c, 8, 11, 80
10, 18015, Control_c, 8, 11, 81
10, 18023, Control_c, 8, 11, 82
10, 18032, Control_c, 8, 11, 83
10, 18040, Control_c, 8, 11, 84
10, 18048, Note_on_c, 8, 55, 0
10, 18048, Note_on_c, 8, 43, 0
10, 18048, Note_on_c, 8, 45, 100
10, 18048, Note_on_c, 8, 54, 100
10, 18048, Control_c, 8, 11, 85
10, 18056, Control_c, 8, 11, 86
10, 18064, Control_c, 8, 11, 87
10, 18073, Control_c, 8, 11, 88
10, 18081, Control_c, 8, 11, 89
10, 18089, Control_c, 8, 11, 90
10, 18096, Note_on_c, 8, 54, 0
10, 18096, Note_on_c, 8, 45, 0
10, 18096, Note_on_c, 8, 43, 100
10, 18096, Note_on_c, 8, 55, 100
10, 18097, Control_c, 8, 11, 91
10, 18105, Control_c, 8, 11, 92
10, 18114, Control_c, 8, 11, 93
10, 18122, Control_c, 8, 11, 94
10, 18130, Control_c, 8, 11, 95
10, 18138, Control_c, 8, 11, 96
10, 18144, Note_on_c, 8, 55, 0
10, 18144, Note_on_c, 8, 43, 0
10, 18144, Note_on_c, 8, 42, 100
10, 18144, Note_on_c, 8, 57, 100
10, 18147, Control_c, 8, 11, 97
10, 18155, Control_c, 8, 11, 98
10, 18163, Control_c, 8, 11, 99
10, 18171, Control_c, 8, 11, 100
10, 18179, Control_c, 8, 11, 101
10, 18188, Control_c, 8, 11, 102
10, 18192, Note_on_c, 8, 57, 0
10, 18192, Note_on_c, 8, 42, 0
10, 18192, Note_on_c, 8, 43, 100
10, 18192, Note_on_c, 8, 55, 100
10, 18196, Control_c, 8, 11, 103
10, 18204, Control_c, 8, 11, 104
10, 18212, Control_c, 8, 11, 105
10, 18220, Control_c, 8, 11, 106
10, 18229, Control_c, 8, 11, 107
10, 18237, Control_c, 8, 11, 108
10, 18240, Note_on_c, 8, 55, 0
10, 18240, Note_on_c, 8, 43, 0
10, 18240, Note_on_c, 8, 41, 100
10, 18240, Note_on_c, 8, 53, 100
10, 18245, Control_c, 8, 11, 109
10, 18253, Control_c, 8, 11, 110
10, 18262, Control_c, 8, 11, 111
10, 18270, Control_c, 8, 11, 112
10, 18278, Control_c, 8, 11, 113
10, 18286, Control_c, 8, 11, 114
10, 18288, Note_on_c, 8, 53, 0
10, 18288, Note_on_c, 8, 41, 0
10, 18288, Note_on_c, 8, 40, 100
10, 18288, Note_on_c, 8, 52, 100
10, 18294, Control_c, 8, 11, 115
10, 18303, Control_c, 8, 11, 116
10, 18311, Control_c, 8, 11, 117
10, 18319, Control_c, 8, 11, 118
10, 18327, Control_c, 8, 11, 119
10, 18335, Control_c, 8, 11, 120
10, 18336, Note_on_c, 8, 52, 0
10, 18336, Note_on_c, 8, 40, 0
10, 18336, Control_c, 8, 1, 0
10, 18336, Note_on_c, 8, 40, 105
10, 18336, Note_on_c, 8, 52, 105
10, 18360, Note_on_c, 8, 52, 0
10, 18360, Note_on_c, 8, 40, 0
10, 18384, Note_on_c, 8, 36, 100
10, 18384, Note_on_c, 8, 48, 100
10, 18408, Note_on_c, 8, 48, 0
10, 18408, Note_on_c, 8, 36, 0
10, 18432, Note_on_c, 8, 41, 100
10, 18432, Note_on_c, 8, 53, 100
10, 18456, Note_on_c, 8, 53, 0
10, 18456, Note_on_c, 8, 41, 0
10, 18480, Note_on_c, 8, 38, 105
10, 18480, Note_on_c, 8, 50, 105
10, 18504, Note_on_c, 8, 50, 0
10, 18504, Note_on_c, 8, 38, 0
10, 18528, Note_on_c, 8, 47, 100
10, 18528, Note_on_c, 8, 59, 100
10, 18552, Note_on_c, 8, 59, 0
10, 18552, Note_on_c, 8, 47, 0
10, 18576, Note_on_c, 8, 43, 100
10, 18576, Note_on_c, 8, 55, 100
10, 18600, Note_on_c, 8, 55, 0
10, 18600, Note_on_c, 8, 43, 0
10, 18624, Note_on_c, 8, 43, 100
10, 18624, Note_on_c, 8, 55, 100
10, 18648, Note_on_c, 8, 55, 0
10, 18648, Note_on_c, 8, 43, 0
10, 18912, Note_on_c, 8, 36, 105
10, 18912, Note_on_c, 8, 48, 105
10, 18936, Note_on_c, 8, 48, 0
10, 18936, Note_on_c, 8, 36, 0
10, 18960, Note_on_c, 8, 36, 100
10, 18960, Note_on_c, 8, 48, 100
10, 18984, Note_on_c, 8, 48, 0
10, 18984, Note_on_c, 8, 36, 0
10, 19008, Note_on_c, 8, 41, 100
10, 19008, Note_on_c, 8, 53, 100
10, 19032, Note_on_c, 8, 53, 0
10, 19032, Note_on_c, 8, 41, 0
10, 19056, Note_on_c, 8, 38, 105
10, 19056, Note_on_c, 8, 50, 105
10, 19080, Note_on_c, 8, 50, 0
10, 19080, Note_on_c, 8, 38, 0
10, 19104, Note_on_c, 8, 47, 100
10, 19104, Note_on_c, 8, 59, 100
10, 19128, Note_on_c, 8, 59, 0
10, 19128, Note_on_c, 8, 47, 0
10, 19152, Note_on_c, 8, 43, 100
10, 19152, Note_on_c, 8, 55, 100
10, 19176, Note_on_c, 8, 55, 0
10, 19176, Note_on_c, 8, 43, 0
10, 19200, Note_on_c, 8, 43, 105
10, 19200, Note_on_c, 8, 55, 105
10, 19224, Note_on_c, 8, 55, 0
10, 19224, Note_on_c, 8, 43, 0
10, 19248, Note_on_c, 8, 55, 100
10, 19248, Note_on_c, 8, 67, 100
10, 19272, Note_on_c, 8, 67, 0
10, 19272, Note_on_c, 8, 55, 0
10, 19296, Note_on_c, 8, 55, 100
10, 19296, Note_on_c, 8, 67, 100
10, 19320, Note_on_c, 8, 67, 0
10, 19320, Note_on_c, 8, 55, 0
10, 19344, Note_on_c, 8, 55, 105
10, 19344, Note_on_c, 8, 67, 105
10, 19368, Note_on_c, 8, 67, 0
10, 19368, Note_on_c, 8, 55, 0
10, 19392, Note_on_c, 8, 55, 100
10, 19392, Note_on_c, 8, 67, 100
10, 19416, Note_on_c, 8, 67, 0
10, 19416, Note_on_c, 8, 55, 0
10, 19440, Note_on_c, 8, 55, 100
10, 19440, Note_on_c, 8, 67, 100
10, 19464, Note_on_c, 8, 67, 0
10, 19464, Note_on_c, 8, 55, 0
10, 19488, Note_on_c, 8, 60, 105
10, 19488, Note_on_c, 8, 64, 105
10, 19512, Note_on_c, 8, 64, 0
10, 19512, Note_on_c, 8, 60, 0
10, 19536, Note_on_c, 8, 64, 100
10, 19536, Note_on_c, 8, 67, 100
10, 19560, Note_on_c, 8, 67, 0
10, 19560, Note_on_c, 8, 64, 0
10, 19584, Note_on_c, 8, 60, 100
10, 19584, Note_on_c, 8, 64, 100
10, 19608, Note_on_c, 8, 64, 0
10, 19608, Note_on_c, 8, 60, 0
10, 19632, Note_on_c, 8, 59, 105
10, 19632, Note_on_c, 8, 62, 105
10, 19656, Note_on_c, 8, 62, 0
10, 19656, Note_on_c, 8, 59, 0
10, 19680, Note_on_c, 8, 62, 100
10, 19680, Note_on_c, 8, 65, 100
10, 19704, Note_on_c, 8, 65, 0
10, 19704, Note_on_c, 8, 62, 0
10, 19728, Note_on_c, 8, 59, 100
10, 19728, Note_on_c, 8, 62, 100
10, 19752, Note_on_c, 8, 62, 0
10, 19752, Note_on_c, 8, 59, 0
10, 19776, Note_on_c, 8, 60, 105
10, 19776, Note_on_c, 8, 64, 105
10, 19800, Note_on_c, 8, 64, 0
10, 19800, Note_on_c, 8, 60, 0
10, 19824, Note_on_c, 8, 64, 100
10, 19824, Note_on_c, 8, 67, 100
10, 19848, Note_on_c, 8, 67, 0
10, 19848, Note_on_c, 8, 64, 0
10, 19872, Note_on_c, 8, 60, 100
10, 19872, Note_on_c, 8, 64, 100
10, 19896, Note_on_c, 8, 64, 0
10, 19896, Note_on_c, 8, 60, 0
10, 19920, Note_on_c, 8, 59, 105
10, 19920, Note_on_c, 8, 62, 105
10, 19944, Note_on_c, 8, 62, 0
10, 19944, Note_on_c, 8, 59, 0
10, 19968, Note_on_c, 8, 62, 100
10, 19968, Note_on_c, 8, 65, 100
10, 19992, Note_on_c, 8, 65, 0
10, 19992, Note_on_c, 8, 62, 0
10, 20016, Note_on_c, 8, 59, 100
10, 20016, Note_on_c, 8, 62, 100
10, 20040, Note_on_c, 8, 62, 0
10, 20040, Note_on_c, 8, 59, 0
10, 20064, Control_c, 8, 1, 0
10, 20064, Note_on_c, 8, 43, 43
10, 20065, Control_c, 8, 1, 2
10, 20066, Control_c, 8, 1, 3
10, 20067, Control_c, 8, 1, 4
10, 20068, Control_c, 8, 1, 5
10, 20069, Control_c, 8, 1, 6
10, 20070, Control_c, 8, 1, 7
10, 20071, Control_c, 8, 1, 8
10, 20072, Control_c, 8, 1, 9
10, 20074, Control_c, 8, 1, 10
10, 20075, Control_c, 8, 1, 11
10, 20077, Control_c, 8, 1, 12
10, 20079, Control_c, 8, 1, 13
10, 20081, Control_c, 8, 1, 14
10, 20083, Control_c, 8, 1, 15
10, 20086, Control_c, 8, 1, 16
10, 20089, Control_c, 8, 1, 17
10, 20093, Control_c, 8, 1, 18
10, 20098, Control_c, 8, 1, 19
10, 20104, Control_c, 8, 1, 20
10, 20112, Note_on_c, 8, 43, 0
10, 20112, Note_on_c, 8, 45, 45
10, 20115, Control_c, 8, 1, 21
10, 20160, Note_on_c, 8, 45, 0
10, 20160, Note_on_c, 8, 47, 47
10, 20208, Note_on_c, 8, 47, 0
10, 20208, Note_on_c, 8, 48, 48
10, 20256, Note_on_c, 8, 48, 0
10, 20256, Note_on_c, 8, 50, 50
10, 20304, Note_on_c, 8, 50, 0
10, 20304, Note_on_c, 8, 52, 52
10, 20352, Note_on_c, 8, 52, 0
10, 20352, Note_on_c, 8, 53, 53
10, 20400, Note_on_c, 8, 53, 0
10, 20400, Note_on_c, 8, 52, 52
10, 20448, Note_on_c, 8, 52, 0
10, 20448, Note_on_c, 8, 53, 53
10, 20496, Note_on_c, 8, 53, 0
10, 20496, Note_on_c, 8, 55, 55
10, 20544, Note_on_c, 8, 55, 0
10, 20544, Note_on_c, 8, 57, 57
10, 20592, Note_on_c, 8, 57, 0
10, 20592, Note_on_c, 8, 59, 59
10, 20640, Note_on_c, 8, 59, 0
10, 20640, Control_c, 8, 1, 0
10, 20640, Note_on_c, 8, 60, 50
10, 20664, Note_on_c, 8, 60, 0
10, 20784, Note_on_c, 8, 45, 55
10, 20819, Note_on_c, 8, 45, 0
10, 20856, Note_on_c, 8, 57, 50
10, 20868, Note_on_c, 8, 57, 0
10, 20880, Note_on_c, 8, 57, 50
10, 20904, Note_on_c, 8, 57, 0
10, 20928, Note_on_c, 8, 53, 50
10, 20952, Note_on_c, 8, 53, 0
10, 21072, Note_on_c, 8, 50, 55
10, 21072, Note_on_c, 8, 53, 55
10, 21107, Note_on_c, 8, 53, 0
10, 21107, Note_on_c, 8, 50, 0
10, 21144, Note_on_c, 8, 62, 50
10, 21144, Note_on_c, 8, 65, 50
10, 21156, Note_on_c, 8, 65, 0
10, 21156, Note_on_c, 8, 62, 0
10, 21168, Note_on_c, 8, 62, 50
10, 21168, Note_on_c, 8, 65, 50
10, 21192, Note_on_c, 8, 65, 0
10, 21192, Note_on_c, 8, 62, 0
10, 21216, Note_on_c, 8, 62, 50
10, 21216, Note_on_c, 8, 65, 50
10, 21240, Note_on_c, 8, 65, 0
10, 21240, Note_on_c, 8, 62, 0
10, 22944, Note_on_c, 8, 69, 50
10, 22968, Note_on_c, 8, 69, 0
10, 23088, Note_on_c, 8, 62, 50
10, 23112, Note_on_c, 8, 62, 0
10, 23232, Note_on_c, 8, 64, 50
10, 23256, Note_on_c, 8, 64, 0
10, 23376, Note_on_c, 8, 65, 50
10, 23400, Note_on_c, 8, 65, 0
10, 23520, Note_on_c, 8, 65, 50
10, 23544, Note_on_c, 8, 65, 0
10, 23664, Note_on_c, 8, 60, 50
10, 23688, Note_on_c, 8, 60, 0
10, 23808, Note_on_c, 8, 56, 50
10, 23832, Note_on_c, 8, 56, 0
10, 23952, Note_on_c, 8, 57, 50
10, 23976, Note_on_c, 8, 57, 0
10, 24096, Note_on_c, 8, 45, 50
10, 24096, Note_on_c, 8, 57, 50
10, 24120, Note_on_c, 8, 57, 0
10, 24120, Note_on_c, 8, 45, 0
10, 24240, Note_on_c, 8, 38, 50
10, 24240, Note_on_c, 8, 50, 50
10, 24264, Note_on_c, 8, 50, 0
10, 24264, Note_on_c, 8, 38, 0
10, 24384, Note_on_c, 8, 40, 50
10, 24384, Note_on_c, 8, 52, 50
10, 24408, Note_on_c, 8, 52, 0
10, 24408, Note_on_c, 8, 40, 0
10, 24528, Note_on_c, 8, 41, 50
10, 24528, Note_on_c, 8, 53, 50
10, 24552, Note_on_c, 8, 53, 0
10, 24552, Note_on_c, 8, 41, 0
10, 24672, Note_on_c, 8, 41, 50
10, 24672, Note_on_c, 8, 53, 50
10, 24696, Note_on_c, 8, 53, 0
10, 24696, Note_on_c, 8, 41, 0
10, 24816, Note_on_c, 8, 36, 50
10, 24816, Note_on_c, 8, 48, 50
10, 24840, Note_on_c, 8, 48, 0
10, 24840, Note_on_c, 8, 36, 0
10, 24960, Note_on_c, 8, 44, 50
10, 24984, Note_on_c, 8, 44, 0
10, 25104, Note_on_c, 8, 45, 50
10, 25128, Note_on_c, 8, 45, 0
10, 25248, Note_on_c, 8, 55, 50
10, 25248, Note_on_c, 8, 58, 50
10, 25272, Note_on_c, 8, 58, 0
10, 25272, Note_on_c, 8, 55, 0
10, 25392, Note_on_c, 8, 53, 50
10, 25392, Note_on_c, 8, 57, 50
10, 25416, Note_on_c, 8, 57, 0
10, 25416, Note_on_c, 8, 53, 0
10, 25536, Note_on_c, 8, 49, 50
10, 25536, Note_on_c, 8, 52, 50
10, 25560, Note_on_c, 8, 52, 0
10, 25560, Note_on_c, 8, 49, 0
10, 25680, Note_on_c, 8, 50, 50
10, 25680, Note_on_c, 8, 53, 50
10, 25704, Note_on_c, 8, 53, 0
10, 25704, Note_on_c, 8, 50, 0
10, 25824, Note_on_c, 8, 45, 50
10, 25824, Note_on_c, 8, 53, 50
10, 25848, Note_on_c, 8, 53, 0
10, 25848, Note_on_c, 8, 45, 0
10, 25968, Note_on_c, 8, 52, 50
10, 25968, Note_on_c, 8, 57, 50
10, 25992, Note_on_c, 8, 57, 0
10, 25992, Note_on_c, 8, 52, 0
10, 26112, Note_on_c, 8, 50, 50
10, 26112, Note_on_c, 8, 53, 50
10, 26136, Note_on_c, 8, 53, 0
10, 26136, Note_on_c, 8, 50, 0
10, 26256, Note_on_c, 8, 45, 50
10, 26256, Note_on_c, 8, 52, 50
10, 26280, Note_on_c, 8, 52, 0
10, 26280, Note_on_c, 8, 45, 0
10, 26400, Note_on_c, 8, 52, 50
10, 26400, Note_on_c, 8, 55, 50
10, 26424, Note_on_c, 8, 55, 0
10, 26424, Note_on_c, 8, 52, 0
10, 26544, Note_on_c, 8, 50, 50
10, 26544, Note_on_c, 8, 53, 50
10, 26568, Note_on_c, 8, 53, 0
10, 26568, Note_on_c, 8, 50, 0
10, 26688, Note_on_c, 8, 45, 50
10, 26688, Note_on_c, 8, 52, 50
10, 26712, Note_on_c, 8, 52, 0
10, 26712, Note_on_c, 8, 45, 0
10, 26832, Note_on_c, 8, 45, 50
10, 26832, Note_on_c, 8, 57, 50
10, 26856, Note_on_c, 8, 57, 0
10, 26856, Note_on_c, 8, 45, 0
10, 27072, Note_on_c, 8, 52, 53
10, 27072, Note_on_c, 8, 55, 53
10, 27096, Note_on_c, 8, 55, 0
10, 27096, Note_on_c, 8, 52, 0
10, 27216, Note_on_c, 8, 53, 58
10, 27216, Note_on_c, 8, 57, 58
10, 27240, Note_on_c, 8, 57, 0
10, 27240, Note_on_c, 8, 53, 0
10, 27360, Note_on_c, 8, 52, 63
10, 27360, Note_on_c, 8, 55, 63
10, 27384, Note_on_c, 8, 55, 0
10, 27384, Note_on_c, 8, 52, 0
10, 27504, Note_on_c, 8, 53, 68
10, 27504, Note_on_c, 8, 57, 68
10, 27528, Note_on_c, 8, 57, 0
10, 27528, Note_on_c, 8, 53, 0
10, 27648, Note_on_c, 8, 52, 73
10, 27648, Note_on_c, 8, 55, 73
10, 27672, Note_on_c, 8, 55, 0
10, 27672, Note_on_c, 8, 52, 0
10, 27792, Note_on_c, 8, 53, 78
10, 27792, Note_on_c, 8, 57, 78
10, 27816, Note_on_c, 8, 57, 0
10, 27816, Note_on_c, 8, 53, 0
10, 27936, Note_on_c, 8, 52, 83
10, 27936, Note_on_c, 8, 55, 83
10, 27960, Note_on_c, 8, 55, 0
10, 27960, Note_on_c, 8, 52, 0
10, 28080, Note_on_c, 8, 53, 88
10, 28080, Note_on_c, 8, 57, 88
10, 28104, Note_on_c, 8, 57, 0
10, 28104, Note_on_c, 8, 53, 0
10, 28224, Note_on_c, 8, 52, 93
10, 28224, Note_on_c, 8, 55, 93
10, 28248, Note_on_c, 8, 55, 0
10, 28248, Note_on_c, 8, 52, 0
10, 28368, Note_on_c, 8, 53, 98
10, 28368, Note_on_c, 8, 57, 98
10, 28392, Note_on_c, 8, 57, 0
10, 28392, Note_on_c, 8, 53, 0
10, 28416, Note_on_c, 8, 55, 100
10, 28416, Note_on_c, 8, 57, 100
10, 28440, Note_on_c, 8, 57, 0
10, 28440, Note_on_c, 8, 55, 0
10, 28464, Note_on_c, 8, 53, 102
10, 28464, Note_on_c, 8, 57, 102
10, 28488, Note_on_c, 8, 57, 0
10, 28488, Note_on_c, 8, 53, 0
10, 28512, Note_on_c, 8, 52, 104
10, 28512, Note_on_c, 8, 57, 104
10, 28536, Note_on_c, 8, 57, 0
10, 28536, Note_on_c, 8, 52, 0
10, 28560, Note_on_c, 8, 55, 105
10, 28560, Note_on_c, 8, 64, 105
10, 28584, Note_on_c, 8, 64, 0
10, 28584, Note_on_c, 8, 55, 0
10, 28608, Note_on_c, 8, 53, 107
10, 28608, Note_on_c, 8, 62, 107
10, 28632, Note_on_c, 8, 62, 0
10, 28632, Note_on_c, 8, 53, 0
10, 28656, Note_on_c, 8, 52, 109
10, 28656, Note_on_c, 8, 61, 109
10, 28680, Note_on_c, 8, 61, 0
10, 28680, Note_on_c, 8, 52, 0
10, 28704, Note_on_c, 8, 53, 115
10, 28704, Note_on_c, 8, 57, 115
10, 28728, Note_on_c, 8, 57, 0
10, 28728, Note_on_c, 8, 53, 0
10, 28752, Note_on_c, 8, 62, 110
10, 28752, Note_on_c, 8, 65, 110
10, 28776, Note_on_c, 8, 65, 0
10, 28776, Note_on_c, 8, 62, 0
10, 28800, Note_on_c, 8, 62, 110
10, 28800, Note_on_c, 8, 65, 110
10, 28824, Note_on_c, 8, 65, 0
10, 28824, Note_on_c, 8, 62, 0
10, 28848, Note_on_c, 8, 62, 115
10, 28848, Note_on_c, 8, 65, 115
10, 28872, Note_on_c, 8, 65, 0
10, 28872, Note_on_c, 8, 62, 0
10, 28896, Note_on_c, 8, 62, 110
10, 28896, Note_on_c, 8, 65, 110
10, 28920, Note_on_c, 8, 65, 0
10, 28920, Note_on_c, 8, 62, 0
10, 28944, Note_on_c, 8, 62, 110
10, 28944, Note_on_c, 8, 65, 110
10, 28968, Note_on_c, 8, 65, 0
10, 28968, Note_on_c, 8, 62, 0
10, 28992, Note_on_c, 8, 61, 115
10, 28992, Note_on_c, 8, 64, 115
10, 29016, Note_on_c, 8, 64, 0
10, 29016, Note_on_c, 8, 61, 0
10, 29040, Note_on_c, 8, 62, 110
10, 29040, Note_on_c, 8, 65, 110
10, 29064, Note_on_c, 8, 65, 0
10, 29064, Note_on_c, 8, 62, 0
10, 29088, Note_on_c, 8, 61, 110
10, 29088, Note_on_c, 8, 64, 110
10, 29112, Note_on_c, 8, 64, 0
10, 29112, Note_on_c, 8, 61, 0
10, 29136, Note_on_c, 8, 62, 115
10, 29136, Note_on_c, 8, 65, 115
10, 29160, Note_on_c, 8, 65, 0
10, 29160, Note_on_c, 8, 62, 0
10, 29184, Note_on_c, 8, 62, 110
10, 29184, Note_on_c, 8, 65, 110
10, 29208, Note_on_c, 8, 65, 0
10, 29208, Note_on_c, 8, 62, 0
10, 29232, Note_on_c, 8, 62, 110
10, 29232, Note_on_c, 8, 65, 110
10, 29256, Note_on_c, 8, 65, 0
10, 29256, Note_on_c, 8, 62, 0
10, 29280, Note_on_c, 8, 55, 115
10, 29280, Note_on_c, 8, 62, 115
10, 29304, Note_on_c, 8, 62, 0
10, 29304, Note_on_c, 8, 55, 0
10, 29328, Note_on_c, 8, 57, 110
10, 29328, Note_on_c, 8, 62, 110
10, 29352, Note_on_c, 8, 62, 0
10, 29352, Note_on_c, 8, 57, 0
10, 29376, Note_on_c, 8, 58, 110
10, 29376, Note_on_c, 8, 62, 110
10, 29400, Note_on_c, 8, 62, 0
10, 29400, Note_on_c, 8, 58, 0
10, 29424, Note_on_c, 8, 57, 115
10, 29424, Note_on_c, 8, 62, 115
10, 29448, Note_on_c, 8, 62, 0
10, 29448, Note_on_c, 8, 57, 0
10, 29472, Note_on_c, 8, 57, 110
10, 29472, Note_on_c, 8, 64, 110
10, 29496, Note_on_c, 8, 64, 0
10, 29496, Note_on_c, 8, 57, 0
10, 29520, Note_on_c, 8, 57, 110
10, 29520, Note_on_c, 8, 65, 110
10, 29544, Note_on_c, 8, 65, 0
10, 29544, Note_on_c, 8, 57, 0
10, 29568, Note_on_c, 8, 64, 115
10, 29568, Note_on_c, 8, 67, 115
10, 29592, Note_on_c, 8, 67, 0
10, 29592, Note_on_c, 8, 64, 0
10, 29616, Note_on_c, 8, 62, 110
10, 29616, Note_on_c, 8, 65, 110
10, 29640, Note_on_c, 8, 65, 0
10, 29640, Note_on_c, 8, 62, 0
10, 29664, Note_on_c, 8, 61, 110
10, 29664, Note_on_c, 8, 64, 110
10, 29688, Note_on_c, 8, 64, 0
10, 29688, Note_on_c, 8, 61, 0
10, 29712, Note_on_c, 8, 62, 115
10, 29712, Note_on_c, 8, 65, 115
10, 29736, Note_on_c, 8, 65, 0
10, 29736, Note_on_c, 8, 62, 0
10, 29760, Note_on_c, 8, 64, 110
10, 29760, Note_on_c, 8, 67, 110
10, 29784, Note_on_c, 8, 67, 0
10, 29784, Note_on_c, 8, 64, 0
10, 29808, Note_on_c, 8, 62, 110
10, 29808, Note_on_c, 8, 65, 110
10, 29832, Note_on_c, 8, 65, 0
10, 29832, Note_on_c, 8, 62, 0
10, 29856, Note_on_c, 8, 55, 115
10, 29880, Note_on_c, 8, 55, 0
10, 29904, Note_on_c, 8, 57, 110
10, 29928, Note_on_c, 8, 57, 0
10, 29952, Note_on_c, 8, 58, 110
10, 29976, Note_on_c, 8, 58, 0
10, 30000, Note_on_c, 8, 62, 115
10, 30024, Note_on_c, 8, 62, 0
10, 30048, Note_on_c, 8, 64, 110
10, 30072, Note_on_c, 8, 64, 0
10, 30096, Note_on_c, 8, 65, 110
10, 30120, Note_on_c, 8, 65, 0
10, 30144, Note_on_c, 8, 64, 115
10, 30144, Note_on_c, 8, 67, 115
10, 30168, Note_on_c, 8, 67, 0
10, 30168, Note_on_c, 8, 64, 0
10, 30192, Note_on_c, 8, 62, 110
10, 30192, Note_on_c, 8, 65, 110
10, 30216, Note_on_c, 8, 65, 0
10, 30216, Note_on_c, 8, 62, 0
10, 30240, Note_on_c, 8, 61, 110
10, 30240, Note_on_c, 8, 64, 110
10, 30264, Note_on_c, 8, 64, 0
10, 30264, Note_on_c, 8, 61, 0
10, 30288, Note_on_c, 8, 62, 115
10, 30288, Note_on_c, 8, 65, 115
10, 30312, Note_on_c, 8, 65, 0
10, 30312, Note_on_c, 8, 62, 0
10, 30336, Note_on_c, 8, 57, 110
10, 30336, Note_on_c, 8, 65, 110
10, 30360, Note_on_c, 8, 65, 0
10, 30360, Note_on_c, 8, 57, 0
10, 30384, Note_on_c, 8, 59, 110
10, 30384, Note_on_c, 8, 65, 110
10, 30408, Note_on_c, 8, 65, 0
10, 30408, Note_on_c, 8, 59, 0
10, 30432, Note_on_c, 8, 59, 115
10, 30432, Note_on_c, 8, 65, 115
10, 30456, Note_on_c, 8, 65, 0
10, 30456, Note_on_c, 8, 59, 0
10, 30480, Note_on_c, 8, 59, 110
10, 30480, Note_on_c, 8, 62, 110
10, 30504, Note_on_c, 8, 62, 0
10, 30504, Note_on_c, 8, 59, 0
10, 30528, Note_on_c, 8, 59, 110
10, 30528, Note_on_c, 8, 62, 110
10, 30552, Note_on_c, 8, 62, 0
10, 30552, Note_on_c, 8, 59, 0
10, 30576, Note_on_c, 8, 60, 115
10, 30576, Note_on_c, 8, 64, 115
10, 30600, Note_on_c, 8, 64, 0
10, 30600, Note_on_c, 8, 60, 0
10, 30624, Note_on_c, 8, 62, 110
10, 30624, Note_on_c, 8, 65, 110
10, 30648, Note_on_c, 8, 65, 0
10, 30648, Note_on_c, 8, 62, 0
10, 30672, Note_on_c, 8, 64, 110
10, 30672, Note_on_c, 8, 67, 110
10, 30696, Note_on_c, 8, 67, 0
10, 30696, Note_on_c, 8, 64, 0
10, 30720, Note_on_c, 8, 62, 115
10, 30720, Note_on_c, 8, 65, 115
10, 30744, Note_on_c, 8, 65, 0
10, 30744, Note_on_c, 8, 62, 0
10, 30768, Note_on_c, 8, 60, 110
10, 30768, Note_on_c, 8, 64, 110
10, 30792, Note_on_c, 8, 64, 0
10, 30792, Note_on_c, 8, 60, 0
10, 30816, Note_on_c, 8, 59, 110
10, 30816, Note_on_c, 8, 65, 110
10, 30840, Note_on_c, 8, 65, 0
10, 30840, Note_on_c, 8, 59, 0
10, 30864, Note_on_c, 8, 60, 115
10, 30864, Note_on_c, 8, 64, 115
10, 30888, Note_on_c, 8, 64, 0
10, 30888, Note_on_c, 8, 60, 0
10, 30912, Note_on_c, 8, 59, 110
10, 30912, Note_on_c, 8, 65, 110
10, 30936, Note_on_c, 8, 65, 0
10, 30936, Note_on_c, 8, 59, 0
10, 30960, Note_on_c, 8, 59, 110
10, 30960, Note_on_c, 8, 65, 110
10, 30984, Note_on_c, 8, 65, 0
10, 30984, Note_on_c, 8, 59, 0
10, 31008, Note_on_c, 8, 59, 115
10, 31008, Note_on_c, 8, 65, 115
10, 31032, Note_on_c, 8, 65, 0
10, 31032, Note_on_c, 8, 59, 0
10, 31056, Note_on_c, 8, 59, 110
10, 31056, Note_on_c, 8, 62, 110
10, 31080, Note_on_c, 8, 62, 0
10, 31080, Note_on_c, 8, 59, 0
10, 31104, Note_on_c, 8, 59, 110
10, 31104, Note_on_c, 8, 62, 110
10, 31128, Note_on_c, 8, 62, 0
10, 31128, Note_on_c, 8, 59, 0
10, 31152, Note_on_c, 8, 60, 115
10, 31152, Note_on_c, 8, 64, 115
10, 31176, Note_on_c, 8, 64, 0
10, 31176, Note_on_c, 8, 60, 0
10, 31200, Note_on_c, 8, 62, 110
10, 31200, Note_on_c, 8, 65, 110
10, 31224, Note_on_c, 8, 65, 0
10, 31224, Note_on_c, 8, 62, 0
10, 31248, Note_on_c, 8, 64, 110
10, 31248, Note_on_c, 8, 67, 110
10, 31272, Note_on_c, 8, 67, 0
10, 31272, Note_on_c, 8, 64, 0
10, 31296, Note_on_c, 8, 60, 115
10, 31296, Note_on_c, 8, 64, 115
10, 31320, Note_on_c, 8, 64, 0
10, 31320, Note_on_c, 8, 60, 0
10, 31344, Note_on_c, 8, 62, 110
10, 31344, Note_on_c, 8, 65, 110
10, 31368, Note_on_c, 8, 65, 0
10, 31368, Note_on_c, 8, 62, 0
10, 31392, Note_on_c, 8, 64, 110
10, 31392, Note_on_c, 8, 67, 110
10, 31416, Note_on_c, 8, 67, 0
10, 31416, Note_on_c, 8, 64, 0
10, 31440, Note_on_c, 8, 60, 115
10, 31440, Note_on_c, 8, 64, 115
10, 31464, Note_on_c, 8, 64, 0
10, 31464, Note_on_c, 8, 60, 0
10, 31488, Note_on_c, 8, 62, 110
10, 31488, Note_on_c, 8, 65, 110
10, 31512, Note_on_c, 8, 65, 0
10, 31512, Note_on_c, 8, 62, 0
10, 31536, Note_on_c, 8, 64, 110
10, 31536, Note_on_c, 8, 67, 110
10, 31560, Note_on_c, 8, 67, 0
10, 31560, Note_on_c, 8, 64, 0
10, 31584, Control_c, 8, 1, 0
10, 31584, Control_c, 8, 11, 60
10, 31584, Note_on_c, 8, 55, 110
10, 31584, Note_on_c, 8, 67, 110
10, 31585, Control_c, 8, 1, 1
10, 31586, Control_c, 8, 1, 2
10, 31587, Control_c, 8, 1, 3
10, 31588, Control_c, 8, 1, 4
10, 31590, Control_c, 8, 1, 5
10, 31591, Control_c, 8, 1, 6
10, 31592, Control_c, 8, 1, 7
10, 31594, Control_c, 8, 1, 8
10, 31596, Control_c, 8, 1, 9
10, 31598, Control_c, 8, 1, 10
10, 31600, Control_c, 8, 1, 11
10, 31602, Control_c, 8, 1, 12
10, 31605, Control_c, 8, 1, 13
10, 31607, Control_c, 8, 1, 14
10, 31610, Control_c, 8, 1, 15
10, 31614, Control_c, 8, 1, 16
10, 31617, Control_c, 8, 1, 17
10, 31622, Control_c, 8, 1, 18
10, 31628, Control_c, 8, 1, 19
10, 31635, Control_c, 8, 1, 20
10, 31645, Control_c, 8, 1, 21
10, 31663, Control_c, 8, 1, 22
10, 31728, Control_c, 8, 11, 60
10, 31743, Control_c, 8, 11, 61
10, 31757, Control_c, 8, 11, 62
10, 31772, Control_c, 8, 11, 63
10, 31786, Control_c, 8, 11, 64
10, 31800, Control_c, 8, 11, 65
10, 31815, Control_c, 8, 11, 66
10, 31829, Control_c, 8, 11, 67
10, 31843, Control_c, 8, 11, 68
10, 31858, Control_c, 8, 11, 69
10, 31872, Note_on_c, 8, 53, 110
10, 31872, Note_on_c, 8, 65, 110
10, 31872, Control_c, 8, 11, 70
10, 31873, Note_on_c, 8, 67, 0
10, 31873, Note_on_c, 8, 55, 0
10, 31887, Control_c, 8, 11, 71
10, 31901, Control_c, 8, 11, 72
10, 31915, Control_c, 8, 11, 73
10, 31930, Control_c, 8, 11, 74
10, 31944, Control_c, 8, 11, 75
10, 31958, Control_c, 8, 11, 76
10, 31973, Control_c, 8, 11, 77
10, 31987, Control_c, 8, 11, 78
10, 32002, Control_c, 8, 11, 79
10, 32016, Note_on_c, 8, 50, 110
10, 32016, Note_on_c, 8, 62, 110
10, 32016, Control_c, 8, 11, 80
10, 32017, Note_on_c, 8, 65, 0
10, 32017, Note_on_c, 8, 53, 0
10, 32030, Control_c, 8, 11, 81
10, 32045, Control_c, 8, 11, 82
10, 32059, Control_c, 8, 11, 83
10, 32073, Control_c, 8, 11, 84
10, 32088, Control_c, 8, 11, 85
10, 32102, Control_c, 8, 11, 86
10, 32117, Control_c, 8, 11, 87
10, 32131, Control_c, 8, 11, 88
10, 32145, Control_c, 8, 11, 89
10, 32160, Note_on_c, 8, 47, 110
10, 32160, Note_on_c, 8, 59, 110
10, 32160, Control_c, 8, 11, 90
10, 32161, Note_on_c, 8, 62, 0
10, 32161, Note_on_c, 8, 50, 0
10, 32174, Control_c, 8, 11, 91
10, 32188, Control_c, 8, 11, 92
10, 32203, Control_c, 8, 11, 93
10, 32217, Control_c, 8, 11, 94
10, 32232, Control_c, 8, 11, 95
10, 32246, Control_c, 8, 11, 96
10, 32260, Control_c, 8, 11, 97
10, 32275, Control_c, 8, 11, 98
10, 32289, Control_c, 8, 11, 99
10, 32303, Control_c, 8, 11, 100
10, 32304, Control_c, 8, 11, 100
10, 32304, Note_on_c, 8, 48, 110
10, 32304, Note_on_c, 8, 60, 110
10, 32305, Note_on_c, 8, 59, 0
10, 32305, Note_on_c, 8, 47, 0
10, 32315, Control_c, 8, 11, 99
10, 32326, Control_c, 8, 11, 98
10, 32337, Control_c, 8, 11, 97
10, 32348, Control_c, 8, 11, 96
10, 32358, Control_c, 8, 11, 95
10, 32369, Control_c, 8, 11, 94
10, 32380, Control_c, 8, 11, 93
10, 32391, Control_c, 8, 11, 92
10, 32401, Control_c, 8, 11, 91
10, 32412, Control_c, 8, 11, 90
10, 32423, Control_c, 8, 11, 89
10, 32434, Control_c, 8, 11, 88
10, 32445, Control_c, 8, 11, 87
10, 32448, Note_on_c, 8, 55, 110
10, 32448, Note_on_c, 8, 67, 110
10, 32449, Note_on_c, 8, 60, 0
10, 32449, Note_on_c, 8, 48, 0
10, 32455, Control_c, 8, 11, 86
10, 32466, Control_c, 8, 11, 85
10, 32477, Control_c, 8, 11, 84
10, 32488, Control_c, 8, 11, 83
10, 32498, Control_c, 8, 11, 82
10, 32509, Control_c, 8, 11, 81
10, 32520, Control_c, 8, 11, 80
10, 32531, Control_c, 8, 11, 79
10, 32542, Control_c, 8, 11, 78
10, 32552, Control_c, 8, 11, 77
10, 32563, Control_c, 8, 11, 76
10, 32574, Control_c, 8, 11, 75
10, 32585, Control_c, 8, 11, 74
10, 32592, Note_on_c, 8, 43, 110
10, 32593, Note_on_c, 8, 67, 0
10, 32595, Control_c, 8, 11, 73
10, 32606, Control_c, 8, 11, 72
10, 32617, Control_c, 8, 11, 71
10, 32628, Control_c, 8, 11, 70
10, 32639, Control_c, 8, 11, 69
10, 32649, Control_c, 8, 11, 68
10, 32660, Control_c, 8, 11, 67
10, 32671, Control_c, 8, 11, 66
10, 32682, Control_c, 8, 11, 65
10, 32692, Control_c, 8, 11, 64
10, 32703, Control_c, 8, 11, 63
10, 32714, Control_c, 8, 11, 62
10, 32725, Control_c, 8, 11, 61
10, 32735, Control_c, 8, 11, 60
10, 32736, Control_c, 8, 1, 0
10, 32736, Control_c, 8, 11, 60
10, 32736, Note_on_c, 8, 67, 110
10, 32737, Note_on_c, 8, 55, 0
10, 32737, Note_on_c, 8, 43, 0
10, 32737, Control_c, 8, 1, 1
10, 32738, Control_c, 8, 1, 2
10, 32739, Control_c, 8, 1, 3
10, 32740, Control_c, 8, 1, 4
10, 32742, Control_c, 8, 1, 5
10, 32743, Control_c, 8, 1, 6
10, 32744, Control_c, 8, 1, 7
10, 32746, Control_c, 8, 1, 8
10, 32748, Control_c, 8, 1, 9
10, 32750, Control_c, 8, 1, 10
10, 32752, Control_c, 8, 1, 11
10, 32754, Control_c, 8, 1, 12
10, 32756, Control_c, 8, 11, 61
10, 32757, Control_c, 8, 1, 13
10, 32759, Control_c, 8, 1, 14
10, 32762, Control_c, 8, 1, 15
10, 32766, Control_c, 8, 1, 16
10, 32769, Control_c, 8, 1, 17
10, 32774, Control_c, 8, 1, 18
10, 32775, Control_c, 8, 11, 62
10, 32780, Control_c, 8, 1, 19
10, 32787, Control_c, 8, 1, 20
10, 32794, Control_c, 8, 11, 63
10, 32797, Control_c, 8, 1, 21
10, 32813, Control_c, 8, 11, 64
10, 32815, Control_c, 8, 1, 22
10, 32832, Control_c, 8, 11, 65
10, 32852, Control_c, 8, 11, 66
10, 32871, Control_c, 8, 11, 67
10, 32880, Note_on_c, 8, 60, 110
10, 32890, Control_c, 8, 11, 68
10, 32909, Control_c, 8, 11, 69
10, 32928, Control_c, 8, 11, 70
10, 32948, Control_c, 8, 11, 71
10, 32967, Control_c, 8, 11, 72
10, 32986, Control_c, 8, 11, 73
10, 33005, Control_c, 8, 11, 74
10, 33024, Note_on_c, 8, 53, 110
10, 33024, Control_c, 8, 11, 75
10, 33025, Note_on_c, 8, 60, 0
10, 33043, Control_c, 8, 11, 76
10, 33063, Control_c, 8, 11, 77
10, 33082, Control_c, 8, 11, 78
10, 33101, Control_c, 8, 11, 79
10, 33120, Control_c, 8, 11, 80
10, 33139, Control_c, 8, 11, 81
10, 33159, Control_c, 8, 11, 82
10, 33168, Note_on_c, 8, 50, 110
10, 33168, Note_on_c, 8, 65, 110
10, 33169, Note_on_c, 8, 67, 0
10, 33169, Note_on_c, 8, 53, 0
10, 33178, Control_c, 8, 11, 83
10, 33197, Control_c, 8, 11, 84
10, 33216, Control_c, 8, 11, 85
10, 33235, Control_c, 8, 11, 86
10, 33254, Control_c, 8, 11, 87
10, 33274, Control_c, 8, 11, 88
10, 33293, Control_c, 8, 11, 89
10, 33312, Note_on_c, 8, 55, 110
10, 33312, Control_c, 8, 11, 90
10, 33313, Note_on_c, 8, 50, 0
10, 33331, Control_c, 8, 11, 91
10, 33350, Control_c, 8, 11, 92
10, 33370, Control_c, 8, 11, 93
10, 33389, Control_c, 8, 11, 94
10, 33408, Control_c, 8, 11, 95
10, 33427, Control_c, 8, 11, 96
10, 33446, Control_c, 8, 11, 97
10, 33456, Note_on_c, 8, 60, 110
10, 33456, Note_on_c, 8, 64, 110
10, 33457, Note_on_c, 8, 65, 0
10, 33457, Note_on_c, 8, 55, 0
10, 33465, Control_c, 8, 11, 98
10, 33485, Control_c, 8, 11, 99
10, 33504, Control_c, 8, 11, 100
10, 33523, Control_c, 8, 11, 101
10, 33542, Control_c, 8, 11, 102
10, 33561, Control_c, 8, 11, 103
10, 33581, Control_c, 8, 11, 104
10, 33600, Note_on_c, 8, 55, 110
10, 33600, Note_on_c, 8, 63, 110
10, 33600, Control_c, 8, 11, 105
10, 33601, Note_on_c, 8, 64, 0
10, 33601, Note_on_c, 8, 60, 0
10, 33619, Control_c, 8, 11, 106
10, 33638, Control_c, 8, 11, 107
10, 33657, Control_c, 8, 11, 108
10, 33676, Control_c, 8, 11, 109
10, 33696, Control_c, 8, 11, 110
10, 33715, Control_c, 8, 11, 111
10, 33734, Control_c, 8, 11, 112
10, 33744, Note_on_c, 8, 43, 110
10, 33744, Note_on_c, 8, 67, 110
10, 33745, Note_on_c, 8, 63, 0
10, 33745, Note_on_c, 8, 55, 0
10, 33753, Control_c, 8, 11, 113
10, 33772, Control_c, 8, 11, 114
10, 33792, Control_c, 8, 11, 115
10, 33811, Control_c, 8, 11, 116
10, 33830, Control_c, 8, 11, 117
10, 33849, Control_c, 8, 11, 118
10, 33868, Control_c, 8, 11, 119
10, 33887, Note_on_c, 8, 67, 0
10, 33887, Note_on_c, 8, 43, 0
10, 33887, Control_c, 8, 11, 120
10, 33888, Control_c, 8, 1, 0
10, 33888, Note_on_c, 8, 60, 113
10, 33888, Note_on_c, 8, 48, 113
10, 33936, Note_on_c, 8, 48, 0
10, 33936, Note_on_c, 8, 52, 113
10, 33984, Note_on_c, 8, 52, 0
10, 33984, Note_on_c, 8, 60, 0
10, 33984, Note_on_c, 8, 53, 111
10, 33984, Note_on_c, 8, 62, 111
10, 34008, Note_on_c, 8, 62, 0
10, 34008, Note_on_c, 8, 53, 0
10, 34008, Note_on_c, 8, 55, 112
10, 34008, Note_on_c, 8, 64, 112
10, 34032, Note_on_c, 8, 64, 0
10, 34032, Note_on_c, 8, 55, 0
10, 34032, Note_on_c, 8, 57, 113
10, 34032, Note_on_c, 8, 65, 113
10, 34056, Note_on_c, 8, 65, 0
10, 34056, Note_on_c, 8, 57, 0
10, 34128, Note_on_c, 8, 55, 110
10, 34128, Note_on_c, 8, 64, 110
10, 34152, Note_on_c, 8, 64, 0
10, 34152, Note_on_c, 8, 55, 0
10, 34176, Note_on_c, 8, 53, 113
10, 34176, Note_on_c, 8, 62, 113
10, 34200, Note_on_c, 8, 62, 0
10, 34200, Note_on_c, 8, 53, 0
10, 34272, Note_on_c, 8, 52, 110
10, 34272, Note_on_c, 8, 60, 110
10, 34296, Note_on_c, 8, 60, 0
10, 34296, Note_on_c, 8, 52, 0
10, 34320, Note_on_c, 8, 53, 113
10, 34320, Note_on_c, 8, 62, 113
10, 34344, Note_on_c, 8, 62, 0
10, 34344, Note_on_c, 8, 53, 0
10, 34416, Note_on_c, 8, 50, 110
10, 34416, Note_on_c, 8, 59, 110
10, 34440, Note_on_c, 8, 59, 0
10, 34440, Note_on_c, 8, 50, 0
10, 34464, Note_on_c, 8, 60, 113
10, 34464, Note_on_c, 8, 64, 113
10, 34512, Note_on_c, 8, 64, 0
10, 34512, Note_on_c, 8, 60, 0
10, 34512, Note_on_c, 8, 48, 110
10, 34512, Note_on_c, 8, 52, 110
10, 34560, Note_on_c, 8, 52, 0
10, 34560, Note_on_c, 8, 48, 0
10, 34560, Note_on_c, 8, 50, 111
10, 34560, Note_on_c, 8, 53, 111
10, 34584, Note_on_c, 8, 53, 0
10, 34584, Note_on_c, 8, 50, 0
10, 34584, Note_on_c, 8, 52, 112
10, 34584, Note_on_c, 8, 55, 112
10, 34608, Note_on_c, 8, 55, 0
10, 34608, Note_on_c, 8, 52, 0
10, 34608, Note_on_c, 8, 53, 113
10, 34608, Note_on_c, 8, 57, 113
10, 34632, Note_on_c, 8, 57, 0
10, 34632, Note_on_c, 8, 53, 0
10, 34704, Note_on_c, 8, 52, 110
10, 34704, Note_on_c, 8, 55, 110
10, 34728, Note_on_c, 8, 55, 0
10, 34728, Note_on_c, 8, 52, 0
10, 34752, Note_on_c, 8, 50, 113
10, 34752, Note_on_c, 8, 53, 113
10, 34776, Note_on_c, 8, 53, 0
10, 34776, Note_on_c, 8, 50, 0
10, 34848, Note_on_c, 8, 48, 110
10, 34848, Note_on_c, 8, 52, 110
10, 34872, Note_on_c, 8, 52, 0
10, 34872, Note_on_c, 8, 48, 0
10, 34896, Note_on_c, 8, 50, 113
10, 34896, Note_on_c, 8, 53, 113
10, 34920, Note_on_c, 8, 53, 0
10, 34920, Note_on_c, 8, 50, 0
10, 34992, Note_on_c, 8, 50, 110
10, 34992, Note_on_c, 8, 59, 110
10, 35016, Note_on_c, 8, 59, 0
10, 35016, Note_on_c, 8, 50, 0
10, 35040, Note_on_c, 8, 48, 113
10, 35040, Note_on_c, 8, 60, 113
10, 35064, Note_on_c, 8, 60, 0
10, 35064, Note_on_c, 8, 48, 0
10, 35088, Note_on_c, 8, 52, 110
10, 35088, Note_on_c, 8, 60, 110
10, 35136, Note_on_c, 8, 60, 0
10, 35136, Note_on_c, 8, 52, 0
10, 35136, Note_on_c, 8, 53, 111
10, 35136, Note_on_c, 8, 62, 111
10, 35160, Note_on_c, 8, 62, 0
10, 35160, Note_on_c, 8, 53, 0
10, 35160, Note_on_c, 8, 55, 112
10, 35160, Note_on_c, 8, 64, 112
10, 35184, Note_on_c, 8, 64, 0
10, 35184, Note_on_c, 8, 55, 0
10, 35184, Note_on_c, 8, 57, 113
10, 35184, Note_on_c, 8, 65, 113
10, 35208, Note_on_c, 8, 65, 0
10, 35208, Note_on_c, 8, 57, 0
10, 35232, Note_on_c, 8, 57, 110
10, 35232, Note_on_c, 8, 65, 110
10, 35256, Note_on_c, 8, 65, 0
10, 35256, Note_on_c, 8, 57, 0
10, 35280, Note_on_c, 8, 55, 110
10, 35280, Note_on_c, 8, 64, 110
10, 35304, Note_on_c, 8, 64, 0
10, 35304, Note_on_c, 8, 55, 0
10, 35328, Note_on_c, 8, 53, 113
10, 35328, Note_on_c, 8, 62, 113
10, 35352, Note_on_c, 8, 62, 0
10, 35352, Note_on_c, 8, 53, 0
10, 35376, Note_on_c, 8, 53, 110
10, 35376, Note_on_c, 8, 62, 110
10, 35400, Note_on_c, 8, 62, 0
10, 35400, Note_on_c, 8, 53, 0
10, 35424, Note_on_c, 8, 52, 110
10, 35424, Note_on_c, 8, 60, 110
10, 35448, Note_on_c, 8, 60, 0
10, 35448, Note_on_c, 8, 52, 0
10, 35472, Note_on_c, 8, 53, 113
10, 35472, Note_on_c, 8, 62, 113
10, 35496, Note_on_c, 8, 62, 0
10, 35496, Note_on_c, 8, 53, 0
10, 35520, Note_on_c, 8, 53, 110
10, 35520, Note_on_c, 8, 62, 110
10, 35544, Note_on_c, 8, 62, 0
10, 35544, Note_on_c, 8, 53, 0
10, 35568, Note_on_c, 8, 50, 110
10, 35568, Note_on_c, 8, 59, 110
10, 35592, Note_on_c, 8, 59, 0
10, 35592, Note_on_c, 8, 50, 0
10, 35616, Note_on_c, 8, 48, 113
10, 35616, Note_on_c, 8, 52, 113
10, 35640, Note_on_c, 8, 52, 0
10, 35640, Note_on_c, 8, 48, 0
10, 35664, Note_on_c, 8, 48, 110
10, 35664, Note_on_c, 8, 52, 110
10, 35712, Note_on_c, 8, 52, 0
10, 35712, Note_on_c, 8, 48, 0
10, 35712, Note_on_c, 8, 50, 111
10, 35712, Note_on_c, 8, 53, 111
10, 35736, Note_on_c, 8, 53, 0
10, 35736, Note_on_c, 8, 50, 0
10, 35736, Note_on_c, 8, 52, 112
10, 35736, Note_on_c, 8, 55, 112
10, 35760, Note_on_c, 8, 55, 0
10, 35760, Note_on_c, 8, 52, 0
10, 35760, Note_on_c, 8, 53, 113
10, 35760, Note_on_c, 8, 57, 113
10, 35784, Note_on_c, 8, 57, 0
10, 35784, Note_on_c, 8, 53, 0
10, 35808, Note_on_c, 8, 53, 110
10, 35808, Note_on_c, 8, 57, 110
10, 35832, Note_on_c, 8, 57, 0
10, 35832, Note_on_c, 8, 53, 0
10, 35856, Note_on_c, 8, 52, 110
10, 35856, Note_on_c, 8, 55, 110
10, 35880, Note_on_c, 8, 55, 0
10, 35880, Note_on_c, 8, 52, 0
10, 35904, Note_on_c, 8, 50, 113
10, 35904, Note_on_c, 8, 53, 113
10, 35928, Note_on_c, 8, 53, 0
10, 35928, Note_on_c, 8, 50, 0
10, 35952, Note_on_c, 8, 50, 110
10, 35952, Note_on_c, 8, 53, 110
10, 35976, Note_on_c, 8, 53, 0
10, 35976, Note_on_c, 8, 50, 0
10, 36000, Note_on_c, 8, 48, 110
10, 36000, Note_on_c, 8, 52, 110
10, 36024, Note_on_c, 8, 52, 0
10, 36024, Note_on_c, 8, 48, 0
10, 36048, Note_on_c, 8, 50, 113
10, 36048, Note_on_c, 8, 53, 113
10, 36072, Note_on_c, 8, 53, 0
10, 36072, Note_on_c, 8, 50, 0
10, 36096, Note_on_c, 8, 50, 110
10, 36096, Note_on_c, 8, 53, 110
10, 36120, Note_on_c, 8, 53, 0
10, 36120, Note_on_c, 8, 50, 0
10, 36144, Note_on_c, 8, 50, 110
10, 36144, Note_on_c, 8, 59, 110
10, 36168, Note_on_c, 8, 59, 0
10, 36168, Note_on_c, 8, 50, 0
10, 36192, Note_on_c, 8, 48, 120
10, 36192, Note_on_c, 8, 60, 120
10, 36227, Note_on_c, 8, 60, 0
10, 36227, Note_on_c, 8, 48, 0
10, 36264, Note_on_c, 8, 36, 113
10, 36264, Note_on_c, 8, 48, 113
10, 36276, Note_on_c, 8, 48, 0
10, 36276, Note_on_c, 8, 36, 0
10, 36288, Note_on_c, 8, 36, 113
10, 36288, Note_on_c, 8, 48, 113
10, 36312, Note_on_c, 8, 48, 0
10, 36312, Note_on_c, 8, 36, 0
10, 36336, Note_on_c, 8, 48, 116
10, 36336, Note_on_c, 8, 60, 116
10, 36360, Note_on_c, 8, 60, 0
10, 36360, Note_on_c, 8, 48, 0
10, 36384, Note_on_c, 8, 50, 113
10, 36384, Note_on_c, 8, 62, 113
10, 36408, Note_on_c, 8, 62, 0
10, 36408, Note_on_c, 8, 50, 0
10, 36432, Note_on_c, 8, 52, 113
10, 36432, Note_on_c, 8, 64, 113
10, 36456, Note_on_c, 8, 64, 0
10, 36456, Note_on_c, 8, 52, 0
10, 36480, Note_on_c, 8, 53, 113
10, 36480, Note_on_c, 8, 65, 113
10, 36504, Note_on_c, 8, 65, 0
10, 36504, Note_on_c, 8, 53, 0
10, 36768, Note_on_c, 8, 47, 120
10, 36768, Note_on_c, 8, 59, 120
10, 36803, Note_on_c, 8, 59, 0
10, 36803, Note_on_c, 8, 47, 0
10, 36840, Note_on_c, 8, 35, 113
10, 36840, Note_on_c, 8, 47, 113
10, 36852, Note_on_c, 8, 47, 0
10, 36852, Note_on_c, 8, 35, 0
10, 36864, Note_on_c, 8, 35, 113
10, 36864, Note_on_c, 8, 47, 113
10, 36888, Note_on_c, 8, 47, 0
10, 36888, Note_on_c, 8, 35, 0
10, 36912, Note_on_c, 8, 47, 116
10, 36912, Note_on_c, 8, 59, 116
10, 36936, Note_on_c, 8, 59, 0
10, 36936, Note_on_c, 8, 47, 0
10, 36960, Note_on_c, 8, 48, 113
10, 36960, Note_on_c, 8, 60, 113
10, 36984, Note_on_c, 8, 60, 0
10, 36984, Note_on_c, 8, 48, 0
10, 37008, Note_on_c, 8, 50, 113
10, 37008, Note_on_c, 8, 62, 113
10, 37032, Note_on_c, 8, 62, 0
10, 37032, Note_on_c, 8, 50, 0
10, 37056, Note_on_c, 8, 52, 113
10, 37056, Note_on_c, 8, 64, 113
10, 37080, Note_on_c, 8, 64, 0
10, 37080, Note_on_c, 8, 52, 0
10, 37344, Control_c, 8, 1, 0
10, 37344, Control_c, 8, 11, 50
10, 37344, Note_on_c, 8, 48, 100
10, 37345, Control_c, 8, 1, 1
10, 37346, Control_c, 8, 1, 2
10, 37347, Control_c, 8, 1, 3
10, 37348, Control_c, 8, 1, 4
10, 37350, Control_c, 8, 1, 5
10, 37351, Control_c, 8, 1, 6
10, 37353, Control_c, 8, 1, 7
10, 37355, Control_c, 8, 1, 8
10, 37356, Control_c, 8, 1, 9
10, 37358, Control_c, 8, 1, 10
10, 37361, Control_c, 8, 1, 11
10, 37363, Control_c, 8, 1, 12
10, 37366, Control_c, 8, 1, 13
10, 37369, Control_c, 8, 1, 14
10, 37372, Control_c, 8, 1, 15
10, 37376, Control_c, 8, 1, 16
10, 37381, Control_c, 8, 1, 17
10, 37387, Control_c, 8, 1, 18
10, 37394, Control_c, 8, 1, 19
10, 37404, Control_c, 8, 1, 20
10, 37421, Control_c, 8, 1, 21
10, 37632, Control_c, 8, 11, 50
10, 37642, Control_c, 8, 11, 51
10, 37652, Control_c, 8, 11, 52
10, 37661, Control_c, 8, 11, 53
10, 37671, Control_c, 8, 11, 54
10, 37680, Control_c, 8, 11, 55
10, 37690, Control_c, 8, 11, 56
10, 37699, Control_c, 8, 11, 57
10, 37709, Control_c, 8, 11, 58
10, 37719, Control_c, 8, 11, 59
10, 37728, Control_c, 8, 11, 60
10, 37738, Control_c, 8, 11, 61
10, 37747, Control_c, 8, 11, 62
10, 37757, Control_c, 8, 11, 63
10, 37766, Control_c, 8, 11, 64
10, 37776, Control_c, 8, 11, 65
10, 37786, Control_c, 8, 11, 66
10, 37795, Control_c, 8, 11, 67
10, 37805, Control_c, 8, 11, 68
10, 37814, Control_c, 8, 11, 69
10, 37824, Control_c, 8, 11, 70
10, 37833, Control_c, 8, 11, 71
10, 37843, Control_c, 8, 11, 72
10, 37853, Control_c, 8, 11, 73
10, 37862, Control_c, 8, 11, 74
10, 37872, Control_c, 8, 11, 75
10, 37881, Control_c, 8, 11, 76
10, 37891, Control_c, 8, 11, 77
10, 37900, Control_c, 8, 11, 78
10, 37910, Control_c, 8, 11, 79
10, 37919, Control_c, 8, 11, 80
10, 37920, Control_c, 8, 11, 80
10, 37930, Control_c, 8, 11, 79
10, 37940, Control_c, 8, 11, 78
10, 37949, Control_c, 8, 11, 77
10, 37959, Control_c, 8, 11, 76
10, 37968, Control_c, 8, 11, 75
10, 37978, Control_c, 8, 11, 74
10, 37987, Control_c, 8, 11, 73
10, 37997, Control_c, 8, 11, 72
10, 38007, Control_c, 8, 11, 71
10, 38016, Control_c, 8, 11, 70
10, 38026, Control_c, 8, 11, 69
10, 38035, Control_c, 8, 11, 68
10, 38045, Control_c, 8, 11, 67
10, 38054, Control_c, 8, 11, 66
10, 38064, Control_c, 8, 11, 65
10, 38074, Control_c, 8, 11, 64
10, 38083, Control_c, 8, 11, 63
10, 38093, Control_c, 8, 11, 62
10, 38102, Control_c, 8, 11, 61
10, 38112, Control_c, 8, 11, 60
10, 38121, Control_c, 8, 11, 59
10, 38131, Control_c, 8, 11, 58
10, 38141, Control_c, 8, 11, 57
10, 38150, Control_c, 8, 11, 56
10, 38160, Control_c, 8, 11, 55
10, 38169, Control_c, 8, 11, 54
10, 38179, Control_c, 8, 11, 53
10, 38188, Control_c, 8, 11, 52
10, 38198, Control_c, 8, 11, 51
10, 38207, Control_c, 8, 11, 50
10, 38208, Note_on_c, 8, 48, 0
10, 38208, Control_c, 8, 11, 50
10, 38208, Control_c, 8, 1, 0
10, 38208, Note_on_c, 8, 46, 100
10, 38208, Note_on_c, 8, 55, 100
10, 38209, Control_c, 8, 1, 1
10, 38210, Control_c, 8, 1, 2
10, 38211, Control_c, 8, 1, 3
10, 38212, Control_c, 8, 1, 4
10, 38214, Control_c, 8, 1, 5
10, 38215, Control_c, 8, 1, 6
10, 38217, Control_c, 8, 11, 51
10, 38217, Control_c, 8, 1, 7
10, 38219, Control_c, 8, 1, 8
10, 38220, Control_c, 8, 1, 9
10, 38222, Control_c, 8, 1, 10
10, 38225, Control_c, 8, 11, 52
10, 38225, Control_c, 8, 1, 11
10, 38227, Control_c, 8, 1, 12
10, 38230, Control_c, 8, 1, 13
10, 38233, Control_c, 8, 11, 53
10, 38233, Control_c, 8, 1, 14
10, 38236, Control_c, 8, 1, 15
10, 38240, Control_c, 8, 1, 16
10, 38241, Control_c, 8, 11, 54
10, 38245, Control_c, 8, 1, 17
10, 38250, Control_c, 8, 11, 55
10, 38251, Control_c, 8, 1, 18
10, 38256, Note_on_c, 8, 55, 0
10, 38256, Note_on_c, 8, 48, 100
10, 38258, Control_c, 8, 11, 56
10, 38258, Control_c, 8, 1, 19
10, 38266, Control_c, 8, 11, 57
10, 38268, Control_c, 8, 1, 20
10, 38274, Control_c, 8, 11, 58
10, 38282, Control_c, 8, 11, 59
10, 38285, Control_c, 8, 1, 21
10, 38291, Control_c, 8, 11, 60
10, 38299, Control_c, 8, 11, 61
10, 38304, Note_on_c, 8, 48, 0
10, 38304, Note_on_c, 8, 50, 100
10, 38307, Control_c, 8, 11, 62
10, 38315, Control_c, 8, 11, 63
10, 38323, Control_c, 8, 11, 64
10, 38332, Control_c, 8, 11, 65
10, 38340, Control_c, 8, 11, 66
10, 38348, Control_c, 8, 11, 67
10, 38352, Note_on_c, 8, 50, 0
10, 38352, Note_on_c, 8, 52, 100
10, 38356, Control_c, 8, 11, 68
10, 38365, Control_c, 8, 11, 69
10, 38373, Control_c, 8, 11, 70
10, 38381, Control_c, 8, 11, 71
10, 38389, Control_c, 8, 11, 72
10, 38397, Control_c, 8, 11, 73
10, 38400, Note_on_c, 8, 52, 0
10, 38400, Note_on_c, 8, 46, 0
10, 38400, Note_on_c, 8, 45, 100
10, 38400, Note_on_c, 8, 53, 100
10, 38406, Control_c, 8, 11, 74
10, 38414, Control_c, 8, 11, 75
10, 38422, Control_c, 8, 11, 76
10, 38430, Control_c, 8, 11, 77
10, 38438, Control_c, 8, 11, 78
10, 38447, Control_c, 8, 11, 79
10, 38448, Note_on_c, 8, 53, 0
10, 38448, Note_on_c, 8, 45, 0
10, 38448, Note_on_c, 8, 43, 100
10, 38448, Note_on_c, 8, 55, 100
10, 38455, Control_c, 8, 11, 80
10, 38463, Control_c, 8, 11, 81
10, 38471, Control_c, 8, 11, 82
10, 38480, Control_c, 8, 11, 83
10, 38488, Control_c, 8, 11, 84
10, 38496, Note_on_c, 8, 55, 0
10, 38496, Note_on_c, 8, 43, 0
10, 38496, Note_on_c, 8, 45, 100
10, 38496, Note_on_c, 8, 54, 100
10, 38496, Control_c, 8, 11, 85
10, 38504, Control_c, 8, 11, 86
10, 38512, Control_c, 8, 11, 87
10, 38521, Control_c, 8, 11, 88
10, 38529, Control_c, 8, 11, 89
10, 38537, Control_c, 8, 11, 90
10, 38544, Note_on_c, 8, 54, 0
10, 38544, Note_on_c, 8, 45, 0
10, 38544, Note_on_c, 8, 43, 100
10, 38544, Note_on_c, 8, 55, 100
10, 38545, Control_c, 8, 11, 91
10, 38553, Control_c, 8, 11, 92
10, 38562, Control_c, 8, 11, 93
10, 38570, Control_c, 8, 11, 94
10, 38578, Control_c, 8, 11, 95
10, 38586, Control_c, 8, 11, 96
10, 38592, Note_on_c, 8, 55, 0
10, 38592, Note_on_c, 8, 43, 0
10, 38592, Note_on_c, 8, 42, 100
10, 38592, Note_on_c, 8, 57, 100
10, 38595, Control_c, 8, 11, 97
10, 38603, Control_c, 8, 11, 98
10, 38611, Control_c, 8, 11, 99
10, 38619, Control_c, 8, 11, 100
10, 38627, Control_c, 8, 11, 101
10, 38636, Control_c, 8, 11, 102
10, 38640, Note_on_c, 8, 57, 0
10, 38640, Note_on_c, 8, 42, 0
10, 38640, Note_on_c, 8, 43, 100
10, 38640, Note_on_c, 8, 55, 100
10, 38644, Control_c, 8, 11, 103
10, 38652, Control_c, 8, 11, 104
10, 38660, Control_c, 8, 11, 105
10, 38668, Control_c, 8, 11, 106
10, 38677, Control_c, 8, 11, 107
10, 38685, Control_c, 8, 11, 108
10, 38688, Note_on_c, 8, 55, 0
10, 38688, Note_on_c, 8, 43, 0
10, 38688, Note_on_c, 8, 41, 100
10, 38688, Note_on_c, 8, 53, 100
10, 38693, Control_c, 8, 11, 109
10, 38701, Control_c, 8, 11, 110
10, 38710, Control_c, 8, 11, 111
10, 38718, Control_c, 8, 11, 112
10, 38726, Control_c, 8, 11, 113
10, 38734, Control_c, 8, 11, 114
10, 38736, Note_on_c, 8, 53, 0
10, 38736, Note_on_c, 8, 41, 0
10, 38736, Note_on_c, 8, 40, 100
10, 38736, Note_on_c, 8, 52, 100
10, 38742, Control_c, 8, 11, 115
10, 38751, Control_c, 8, 11, 116
10, 38759, Control_c, 8, 11, 117
10, 38767, Control_c, 8, 11, 118
10, 38775, Control_c, 8, 11, 119
10, 38783, Control_c, 8, 11, 120
10, 38784, Note_on_c, 8, 52, 0
10, 38784, Note_on_c, 8, 40, 0
10, 38784, Control_c, 8, 1, 0
10, 38784, Note_on_c, 8, 40, 105
10, 38784, Note_on_c, 8, 52, 105
10, 38808, Note_on_c, 8, 52, 0
10, 38808, Note_on_c, 8, 40, 0
10, 38832, Note_on_c, 8, 36, 100
10, 38832, Note_on_c, 8, 48, 100
10, 38856, Note_on_c, 8, 48, 0
10, 38856, Note_on_c, 8, 36, 0
10, 38880, Note_on_c, 8, 41, 100
10, 38880, Note_on_c, 8, 53, 100
10, 38904, Note_on_c, 8, 53, 0
10, 38904, Note_on_c, 8, 41, 0
10, 38928, Note_on_c, 8, 38, 105
10, 38928, Note_on_c, 8, 50, 105
10, 38952, Note_on_c, 8, 50, 0
10, 38952, Note_on_c, 8, 38, 0
10, 38976, Note_on_c, 8, 47, 100
10, 38976, Note_on_c, 8, 59, 100
10, 39000, Note_on_c, 8, 59, 0
10, 39000, Note_on_c, 8, 47, 0
10, 39024, Note_on_c, 8, 43, 100
10, 39024, Note_on_c, 8, 55, 100
10, 39048, Note_on_c, 8, 55, 0
10, 39048, Note_on_c, 8, 43, 0
10, 39072, Note_on_c, 8, 43, 100
10, 39072, Note_on_c, 8, 55, 100
10, 39096, Note_on_c, 8, 55, 0
10, 39096, Note_on_c, 8, 43, 0
10, 39360, Note_on_c, 8, 36, 105
10, 39360, Note_on_c, 8, 48, 105
10, 39384, Note_on_c, 8, 48, 0
10, 39384, Note_on_c, 8, 36, 0
10, 39408, Note_on_c, 8, 36, 100
10, 39408, Note_on_c, 8, 48, 100
10, 39432, Note_on_c, 8, 48, 0
10, 39432, Note_on_c, 8, 36, 0
10, 39456, Note_on_c, 8, 41, 100
10, 39456, Note_on_c, 8, 53, 100
10, 39480, Note_on_c, 8, 53, 0
10, 39480, Note_on_c, 8, 41, 0
10, 39504, Note_on_c, 8, 38, 105
10, 39504, Note_on_c, 8, 50, 105
10, 39528, Note_on_c, 8, 50, 0
10, 39528, Note_on_c, 8, 38, 0
10, 39552, Note_on_c, 8, 47, 100
10, 39552, Note_on_c, 8, 59, 100
10, 39576, Note_on_c, 8, 59, 0
10, 39576, Note_on_c, 8, 47, 0
10, 39600, Note_on_c, 8, 43, 100
10, 39600, Note_on_c, 8, 55, 100
10, 39624, Note_on_c, 8, 55, 0
10, 39624, Note_on_c, 8, 43, 0
10, 39648, Note_on_c, 8, 43, 105
10, 39648, Note_on_c, 8, 55, 105
10, 39672, Note_on_c, 8, 55, 0
10, 39672, Note_on_c, 8, 43, 0
10, 39696, Note_on_c, 8, 55, 100
10, 39696, Note_on_c, 8, 67, 100
10, 39720, Note_on_c, 8, 67, 0
10, 39720, Note_on_c, 8, 55, 0
10, 39744, Note_on_c, 8, 55, 100
10, 39744, Note_on_c, 8, 67, 100
10, 39768, Note_on_c, 8, 67, 0
10, 39768, Note_on_c, 8, 55, 0
10, 39792, Note_on_c, 8, 55, 105
10, 39792, Note_on_c, 8, 67, 105
10, 39816, Note_on_c, 8, 67, 0
10, 39816, Note_on_c, 8, 55, 0
10, 39840, Note_on_c, 8, 55, 100
10, 39840, Note_on_c, 8, 67, 100
10, 39864, Note_on_c, 8, 67, 0
10, 39864, Note_on_c, 8, 55, 0
10, 39888, Note_on_c, 8, 55, 100
10, 39888, Note_on_c, 8, 67, 100
10, 39912, Note_on_c, 8, 67, 0
10, 39912, Note_on_c, 8, 55, 0
10, 39936, Note_on_c, 8, 60, 105
10, 39936, Note_on_c, 8, 64, 105
10, 39960, Note_on_c, 8, 64, 0
10, 39960, Note_on_c, 8, 60, 0
10, 39984, Note_on_c, 8, 64, 100
10, 39984, Note_on_c, 8, 67, 100
10, 40008, Note_on_c, 8, 67, 0
10, 40008, Note_on_c, 8, 64, 0
10, 40032, Note_on_c, 8, 60, 100
10, 40032, Note_on_c, 8, 64, 100
10, 40056, Note_on_c, 8, 64, 0
10, 40056, Note_on_c, 8, 60, 0
10, 40080, Note_on_c, 8, 59, 105
10, 40080, Note_on_c, 8, 62, 105
10, 40104, Note_on_c, 8, 62, 0
10, 40104, Note_on_c, 8, 59, 0
10, 40128, Note_on_c, 8, 62, 100
10, 40128, Note_on_c, 8, 65, 100
10, 40152, Note_on_c, 8, 65, 0
10, 40152, Note_on_c, 8, 62, 0
10, 40176, Note_on_c, 8, 59, 100
10, 40176, Note_on_c, 8, 62, 100
10, 40200, Note_on_c, 8, 62, 0
10, 40200, Note_on_c, 8, 59, 0
10, 40224, Note_on_c, 8, 60, 105
10, 40224, Note_on_c, 8, 64, 105
10, 40248, Note_on_c, 8, 64, 0
10, 40248, Note_on_c, 8, 60, 0
10, 40272, Note_on_c, 8, 64, 100
10, 40272, Note_on_c, 8, 67, 100
10, 40296, Note_on_c, 8, 67, 0
10, 40296, Note_on_c, 8, 64, 0
10, 40320, Note_on_c, 8, 60, 100
10, 40320, Note_on_c, 8, 64, 100
10, 40344, Note_on_c, 8, 64, 0
10, 40344, Note_on_c, 8, 60, 0
10, 40368, Note_on_c, 8, 59, 105
10, 40368, Note_on_c, 8, 62, 105
10, 40392, Note_on_c, 8, 62, 0
10, 40392, Note_on_c, 8, 59, 0
10, 40416, Note_on_c, 8, 62, 100
10, 40416, Note_on_c, 8, 65, 100
10, 40440, Note_on_c, 8, 65, 0
10, 40440, Note_on_c, 8, 62, 0
10, 40464, Note_on_c, 8, 59, 100
10, 40464, Note_on_c, 8, 62, 100
10, 40488, Note_on_c, 8, 62, 0
10, 40488, Note_on_c, 8, 59, 0
10, 40512, Control_c, 8, 1, 0
10, 40512, Note_on_c, 8, 43, 43
10, 40513, Control_c, 8, 1, 2
10, 40514, Control_c, 8, 1, 3
10, 40515, Control_c, 8, 1, 4
10, 40516, Control_c, 8, 1, 5
10, 40517, Control_c, 8, 1, 6
10, 40518, Control_c, 8, 1, 7
10, 40519, Control_c, 8, 1, 8
10, 40520, Control_c, 8, 1, 9
10, 40522, Control_c, 8, 1, 10
10, 40523, Control_c, 8, 1, 11
10, 40525, Control_c, 8, 1, 12
10, 40527, Control_c, 8, 1, 13
10, 40529, Control_c, 8, 1, 14
10, 40531, Control_c, 8, 1, 15
10, 40534, Control_c, 8, 1, 16
10, 40537, Control_c, 8, 1, 17
10, 40541, Control_c, 8, 1, 18
10, 40546, Control_c, 8, 1, 19
10, 40552, Control_c, 8, 1, 20
10, 40560, Note_on_c, 8, 43, 0
10, 40560, Note_on_c, 8, 45, 45
10, 40563, Control_c, 8, 1, 21
10, 40608, Note_on_c, 8, 45, 0
10, 40608, Note_on_c, 8, 47, 47
10, 40656, Note_on_c, 8, 47, 0
10, 40656, Note_on_c, 8, 48, 48
10, 40704, Note_on_c, 8, 48, 0
10, 40704, Note_on_c, 8, 50, 50
10, 40752, Note_on_c, 8, 50, 0
10, 40752, Note_on_c, 8, 52, 52
10, 40800, Note_on_c, 8, 52, 0
10, 40800, Note_on_c, 8, 53, 53
10, 40848, Note_on_c, 8, 53, 0
10, 40848, Note_on_c, 8, 52, 52
10, 40896, Note_on_c, 8, 52, 0
10, 40896, Note_on_c, 8, 53, 53
10, 40944, Note_on_c, 8, 53, 0
10, 40944, Note_on_c, 8, 55, 55
10, 40992, Note_on_c, 8, 55, 0
10, 40992, Note_on_c, 8, 57, 57
10, 41040, Note_on_c, 8, 57, 0
10, 41040, Note_on_c, 8, 59, 59
10, 41088, Note_on_c, 8, 59, 0
10, 41088, Control_c, 8, 1, 0
10, 41088, Note_on_c, 8, 60, 50
10, 41112, Note_on_c, 8, 60, 0
10, 41232, Note_on_c, 8, 45, 55
10, 41267, Note_on_c, 8, 45, 0
10, 41304, Note_on_c, 8, 57, 50
10, 41316, Note_on_c, 8, 57, 0
10, 41328, Note_on_c, 8, 57, 50
10, 41352, Note_on_c, 8, 57, 0
10, 41376, Note_on_c, 8, 53, 50
10, 41400, Note_on_c, 8, 53, 0
10, 41520, Note_on_c, 8, 50, 55
10, 41520, Note_on_c, 8, 53, 55
10, 41555, Note_on_c, 8, 53, 0
10, 41555, Note_on_c, 8, 50, 0
10, 41592, Note_on_c, 8, 62, 50
10, 41592, Note_on_c, 8, 65, 50
10, 41604, Note_on_c, 8, 65, 0
10, 41604, Note_on_c, 8, 62, 0
10, 41616, Note_on_c, 8, 62, 50
10, 41616, Note_on_c, 8, 65, 50
10, 41640, Note_on_c, 8, 65, 0
10, 41640, Note_on_c, 8, 62, 0
10, 41664, Note_on_c, 8, 62, 50
10, 41664, Note_on_c, 8, 65, 50
10, 41688, Note_on_c, 8, 65, 0
10, 41688, Note_on_c, 8, 62, 0
10, 42384, Note_on_c, 8, 46, 60
10, 42419, Note_on_c, 8, 46, 0
10, 42456, Note_on_c, 8, 58, 50
10, 42468, Note_on_c, 8, 58, 0
10, 42480, Note_on_c, 8, 58, 50
10, 42504, Note_on_c, 8, 58, 0
10, 42528, Note_on_c, 8, 58, 50
10, 42552, Note_on_c, 8, 58, 0
10, 42672, Note_on_c, 8, 51, 60
10, 42707, Note_on_c, 8, 51, 0
10, 42744, Note_on_c, 8, 63, 50
10, 42756, Note_on_c, 8, 63, 0
10, 42768, Note_on_c, 8, 63, 50
10, 42792, Note_on_c, 8, 63, 0
10, 42816, Note_on_c, 8, 63, 50
10, 42840, Note_on_c, 8, 63, 0
10, 43536, Note_on_c, 8, 36, 60
10, 43536, Note_on_c, 8, 48, 60
10, 43571, Note_on_c, 8, 48, 0
10, 43571, Note_on_c, 8, 36, 0
10, 43608, Note_on_c, 8, 48, 61
10, 43608, Note_on_c, 8, 60, 61
10, 43620, Note_on_c, 8, 60, 0
10, 43620, Note_on_c, 8, 48, 0
10, 43632, Note_on_c, 8, 48, 62
10, 43632, Note_on_c, 8, 60, 62
10, 43656, Note_on_c, 8, 60, 0
10, 43656, Note_on_c, 8, 48, 0
10, 43680, Note_on_c, 8, 44, 63
10, 43680, Note_on_c, 8, 56, 63
10, 43704, Note_on_c, 8, 56, 0
10, 43704, Note_on_c, 8, 44, 0
10, 43824, Note_on_c, 8, 41, 66
10, 43824, Note_on_c, 8, 53, 66
10, 43859, Note_on_c, 8, 53, 0
10, 43859, Note_on_c, 8, 41, 0
10, 43896, Note_on_c, 8, 53, 68
10, 43896, Note_on_c, 8, 65, 68
10, 43908, Note_on_c, 8, 65, 0
10, 43908, Note_on_c, 8, 53, 0
10, 43920, Note_on_c, 8, 53, 69
10, 43920, Note_on_c, 8, 65, 69
10, 43944, Note_on_c, 8, 65, 0
10, 43944, Note_on_c, 8, 53, 0
10, 43968, Note_on_c, 8, 49, 70
10, 43968, Note_on_c, 8, 61, 70
10, 43992, Note_on_c, 8, 61, 0
10, 43992, Note_on_c, 8, 49, 0
10, 44112, Note_on_c, 8, 34, 73
10, 44112, Note_on_c, 8, 46, 73
10, 44147, Note_on_c, 8, 46, 0
10, 44147, Note_on_c, 8, 34, 0
10, 44184, Note_on_c, 8, 46, 73
10, 44184, Note_on_c, 8, 58, 75
10, 44196, Note_on_c, 8, 58, 0
10, 44196, Note_on_c, 8, 46, 0
10, 44208, Note_on_c, 8, 46, 75
10, 44208, Note_on_c, 8, 58, 75
10, 44232, Note_on_c, 8, 58, 0
10, 44232, Note_on_c, 8, 46, 0
10, 44256, Note_on_c, 8, 42, 76
10, 44256, Note_on_c, 8, 54, 76
10, 44280, Note_on_c, 8, 54, 0
10, 44280, Note_on_c, 8, 42, 0
10, 44400, Note_on_c, 8, 39, 80
10, 44400, Note_on_c, 8, 51, 80
10, 44435, Note_on_c, 8, 51, 0
10, 44435, Note_on_c, 8, 39, 0
10, 44472, Note_on_c, 8, 51, 81
10, 44472, Note_on_c, 8, 63, 81
10, 44484, Note_on_c, 8, 63, 0
10, 44484, Note_on_c, 8, 51, 0
10, 44496, Note_on_c, 8, 51, 82
10, 44496, Note_on_c, 8, 63, 82
10, 44520, Note_on_c, 8, 63, 0
10, 44520, Note_on_c, 8, 51, 0
10, 44544, Note_on_c, 8, 47, 83
10, 44544, Note_on_c, 8, 59, 83
10, 44568, Note_on_c, 8, 59, 0
10, 44568, Note_on_c, 8, 47, 0
10, 44688, Note_on_c, 8, 44, 87
10, 44723, Note_on_c, 8, 44, 0
10, 44760, Note_on_c, 8, 44, 88
10, 44760, Note_on_c, 8, 56, 88
10, 44772, Note_on_c, 8, 56, 0
10, 44772, Note_on_c, 8, 44, 0
10, 44784, Note_on_c, 8, 44, 89
10, 44784, Note_on_c, 8, 56, 89
10, 44808, Note_on_c, 8, 56, 0
10, 44808, Note_on_c, 8, 44, 0
10, 44832, Note_on_c, 8, 40, 90
10, 44832, Note_on_c, 8, 52, 90
10, 44856, Note_on_c, 8, 52, 0
10, 44856, Note_on_c, 8, 40, 0
10, 44976, Note_on_c, 8, 37, 93
10, 44976, Note_on_c, 8, 49, 93
10, 45011, Note_on_c, 8, 49, 0
10, 45011, Note_on_c, 8, 37, 0
10, 45048, Note_on_c, 8, 49, 95
10, 45048, Note_on_c, 8, 61, 95
10, 45060, Note_on_c, 8, 61, 0
10, 45060, Note_on_c, 8, 49, 0
10, 45072, Note_on_c, 8, 49, 96
10, 45072, Note_on_c, 8, 61, 96
10, 45096, Note_on_c, 8, 61, 0
10, 45096, Note_on_c, 8, 49, 0
10, 45120, Note_on_c, 8, 45, 100
10, 45120, Note_on_c, 8, 57, 100
10, 45144, Note_on_c, 8, 57, 0
10, 45144, Note_on_c, 8, 45, 0
10, 45264, Note_on_c, 8, 45, 100
10, 45299, Note_on_c, 8, 45, 0
10, 45336, Note_on_c, 8, 45, 100
10, 45336, Note_on_c, 8, 57, 100
10, 45348, Note_on_c, 8, 57, 0
10, 45348, Note_on_c, 8, 45, 0
10, 45360, Note_on_c, 8, 45, 100
10, 45360, Note_on_c, 8, 57, 100
10, 45384, Note_on_c, 8, 57, 0
10, 45384, Note_on_c, 8, 45, 0
10, 45552, Note_on_c, 8, 34, 113
10, 45552, Note_on_c, 8, 46, 113
10, 45587, Note_on_c, 8, 46, 0
10, 45587, Note_on_c, 8, 34, 0
10, 45624, Note_on_c, 8, 46, 113
10, 45624, Note_on_c, 8, 58, 113
10, 45636, Note_on_c, 8, 58, 0
10, 45636, Note_on_c, 8, 46, 0
10, 45648, Note_on_c, 8, 46, 113
10, 45648, Note_on_c, 8, 58, 113
10, 45672, Note_on_c, 8, 58, 0
10, 45672, Note_on_c, 8, 46, 0
10, 45840, Note_on_c, 8, 35, 113
10, 45840, Note_on_c, 8, 47, 113
10, 45875, Note_on_c, 8, 47, 0
10, 45875, Note_on_c, 8, 35, 0
10, 45912, Note_on_c, 8, 47, 113
10, 45912, Note_on_c, 8, 59, 113
10, 45924, Note_on_c, 8, 59, 0
10, 45924, Note_on_c, 8, 47, 0
10, 45936, Note_on_c, 8, 47, 113
10, 45936, Note_on_c, 8, 59, 113
10, 46008, Note_on_c, 8, 59, 0
10, 46008, Note_on_c, 8, 47, 0
10, 46032, Note_on_c, 8, 59, 75
10, 46067, Note_on_c, 8, 59, 0
10, 46104, Note_on_c, 8, 47, 70
10, 46116, Note_on_c, 8, 47, 0
10, 46128, Note_on_c, 8, 47, 70
10, 46152, Note_on_c, 8, 47, 0
10, 46176, Note_on_c, 8, 52, 65
10, 46200, Note_on_c, 8, 52, 0
10, 46224, Note_on_c, 8, 51, 60
10, 46224, Note_on_c, 8, 54, 60
10, 46248, Note_on_c, 8, 54, 0
10, 46248, Note_on_c, 8, 51, 0
10, 46272, Note_on_c, 8, 52, 60
10, 46272, Note_on_c, 8, 55, 60
10, 46296, Note_on_c, 8, 55, 0
10, 46296, Note_on_c, 8, 52, 0
10, 46320, Note_on_c, 8, 51, 65
10, 46320, Note_on_c, 8, 54, 65
10, 46344, Note_on_c, 8, 54, 0
10, 46344, Note_on_c, 8, 51, 0
10, 46368, Note_on_c, 8, 52, 60
10, 46368, Note_on_c, 8, 55, 60
10, 46392, Note_on_c, 8, 55, 0
10, 46392, Note_on_c, 8, 52, 0
10, 46416, Note_on_c, 8, 54, 60
10, 46416, Note_on_c, 8, 57, 60
10, 46440, Note_on_c, 8, 57, 0
10, 46440, Note_on_c, 8, 54, 0
10, 46464, Note_on_c, 8, 52, 65
10, 46464, Note_on_c, 8, 55, 65
10, 46488, Note_on_c, 8, 55, 0
10, 46488, Note_on_c, 8, 52, 0
10, 46512, Note_on_c, 8, 55, 60
10, 46512, Note_on_c, 8, 59, 60
10, 46536, Note_on_c, 8, 59, 0
10, 46536, Note_on_c, 8, 55, 0
10, 46560, Note_on_c, 8, 55, 60
10, 46560, Note_on_c, 8, 59, 60
10, 46584, Note_on_c, 8, 59, 0
10, 46584, Note_on_c, 8, 55, 0
10, 46608, Note_on_c, 8, 55, 65
10, 46608, Note_on_c, 8, 59, 65
10, 46632, Note_on_c, 8, 59, 0
10, 46632, Note_on_c, 8, 55, 0
10, 46656, Note_on_c, 8, 54, 60
10, 46656, Note_on_c, 8, 57, 60
10, 46680, Note_on_c, 8, 57, 0
10, 46680, Note_on_c, 8, 54, 0
10, 46704, Note_on_c, 8, 52, 60
10, 46704, Note_on_c, 8, 55, 60
10, 46728, Note_on_c, 8, 55, 0
10, 46728, Note_on_c, 8, 52, 0
10, 46752, Note_on_c, 8, 54, 65
10, 46752, Note_on_c, 8, 57, 65
10, 46776, Note_on_c, 8, 57, 0
10, 46776, Note_on_c, 8, 54, 0
10, 46800, Note_on_c, 8, 52, 60
10, 46800, Note_on_c, 8, 55, 60
10, 46824, Note_on_c, 8, 55, 0
10, 46824, Note_on_c, 8, 52, 0
10, 46848, Note_on_c, 8, 51, 60
10, 46848, Note_on_c, 8, 54, 60
10, 46872, Note_on_c, 8, 54, 0
10, 46872, Note_on_c, 8, 51, 0
10, 46896, Note_on_c, 8, 59, 70
10, 46931, Note_on_c, 8, 59, 0
10, 46968, Note_on_c, 8, 47, 60
10, 46980, Note_on_c, 8, 47, 0
10, 46992, Note_on_c, 8, 47, 60
10, 47016, Note_on_c, 8, 47, 0
10, 47040, Note_on_c, 8, 47, 65
10, 47040, Note_on_c, 8, 52, 65
10, 47064, Note_on_c, 8, 52, 0
10, 47064, Note_on_c, 8, 47, 0
10, 47088, Note_on_c, 8, 47, 60
10, 47088, Note_on_c, 8, 54, 60
10, 47112, Note_on_c, 8, 54, 0
10, 47112, Note_on_c, 8, 47, 0
10, 47136, Note_on_c, 8, 47, 60
10, 47136, Note_on_c, 8, 55, 60
10, 47160, Note_on_c, 8, 55, 0
10, 47160, Note_on_c, 8, 47, 0
10, 47184, Note_on_c, 8, 47, 65
10, 47184, Note_on_c, 8, 54, 65
10, 47208, Note_on_c, 8, 54, 0
10, 47208, Note_on_c, 8, 47, 0
10, 47232, Note_on_c, 8, 47, 60
10, 47232, Note_on_c, 8, 55, 60
10, 47256, Note_on_c, 8, 55, 0
10, 47256, Note_on_c, 8, 47, 0
10, 47280, Note_on_c, 8, 47, 60
10, 47280, Note_on_c, 8, 57, 60
10, 47304, Note_on_c, 8, 57, 0
10, 47304, Note_on_c, 8, 47, 0
10, 47328, Note_on_c, 8, 52, 65
10, 47328, Note_on_c, 8, 56, 65
10, 47352, Note_on_c, 8, 56, 0
10, 47352, Note_on_c, 8, 52, 0
10, 47376, Note_on_c, 8, 52, 60
10, 47376, Note_on_c, 8, 64, 60
10, 47400, Note_on_c, 8, 64, 0
10, 47400, Note_on_c, 8, 52, 0
10, 47424, Note_on_c, 8, 52, 60
10, 47424, Note_on_c, 8, 64, 60
10, 47448, Note_on_c, 8, 64, 0
10, 47448, Note_on_c, 8, 52, 0
10, 47472, Note_on_c, 8, 60, 65
10, 47472, Note_on_c, 8, 64, 65
10, 47496, Note_on_c, 8, 64, 0
10, 47496, Note_on_c, 8, 60, 0
10, 47520, Note_on_c, 8, 59, 60
10, 47520, Note_on_c, 8, 62, 60
10, 47544, Note_on_c, 8, 62, 0
10, 47544, Note_on_c, 8, 59, 0
10, 47568, Note_on_c, 8, 57, 60
10, 47568, Note_on_c, 8, 60, 60
10, 47592, Note_on_c, 8, 60, 0
10, 47592, Note_on_c, 8, 57, 0
10, 47616, Note_on_c, 8, 59, 65
10, 47616, Note_on_c, 8, 62, 65
10, 47640, Note_on_c, 8, 62, 0
10, 47640, Note_on_c, 8, 59, 0
10, 47664, Note_on_c, 8, 57, 60
10, 47664, Note_on_c, 8, 60, 60
10, 47688, Note_on_c, 8, 60, 0
10, 47688, Note_on_c, 8, 57, 0
10, 47712, Note_on_c, 8, 56, 60
10, 47712, Note_on_c, 8, 59, 60
10, 47736, Note_on_c, 8, 59, 0
10, 47736, Note_on_c, 8, 56, 0
10, 47760, Note_on_c, 8, 64, 70
10, 47795, Note_on_c, 8, 64, 0
10, 47832, Note_on_c, 8, 52, 60
10, 47844, Note_on_c, 8, 52, 0
10, 47856, Note_on_c, 8, 52, 60
10, 47880, Note_on_c, 8, 52, 0
10, 47904, Note_on_c, 8, 52, 65
10, 47904, Note_on_c, 8, 57, 65
10, 47928, Note_on_c, 8, 57, 0
10, 47928, Note_on_c, 8, 52, 0
10, 47952, Note_on_c, 8, 56, 60
10, 47952, Note_on_c, 8, 59, 60
10, 47976, Note_on_c, 8, 59, 0
10, 47976, Note_on_c, 8, 56, 0
10, 48000, Note_on_c, 8, 57, 60
10, 48000, Note_on_c, 8, 60, 60
10, 48024, Note_on_c, 8, 60, 0
10, 48024, Note_on_c, 8, 57, 0
10, 48048, Note_on_c, 8, 56, 65
10, 48048, Note_on_c, 8, 59, 65
10, 48072, Note_on_c, 8, 59, 0
10, 48072, Note_on_c, 8, 56, 0
10, 48096, Note_on_c, 8, 57, 60
10, 48096, Note_on_c, 8, 60, 60
10, 48120, Note_on_c, 8, 60, 0
10, 48120, Note_on_c, 8, 57, 0
10, 48144, Note_on_c, 8, 59, 60
10, 48144, Note_on_c, 8, 62, 60
10, 48168, Note_on_c, 8, 62, 0
10, 48168, Note_on_c, 8, 59, 0
10, 48192, Note_on_c, 8, 57, 65
10, 48192, Note_on_c, 8, 60, 65
10, 48216, Note_on_c, 8, 60, 0
10, 48216, Note_on_c, 8, 57, 0
10, 48240, Note_on_c, 8, 60, 60
10, 48240, Note_on_c, 8, 64, 60
10, 48264, Note_on_c, 8, 64, 0
10, 48264, Note_on_c, 8, 60, 0
10, 48288, Note_on_c, 8, 60, 60
10, 48288, Note_on_c, 8, 64, 60
10, 48312, Note_on_c, 8, 64, 0
10, 48312, Note_on_c, 8, 60, 0
10, 48336, Note_on_c, 8, 60, 65
10, 48336, Note_on_c, 8, 64, 65
10, 48360, Note_on_c, 8, 64, 0
10, 48360, Note_on_c, 8, 60, 0
10, 48384, Note_on_c, 8, 59, 60
10, 48384, Note_on_c, 8, 62, 60
10, 48408, Note_on_c, 8, 62, 0
10, 48408, Note_on_c, 8, 59, 0
10, 48432, Note_on_c, 8, 57, 60
10, 48432, Note_on_c, 8, 60, 60
10, 48456, Note_on_c, 8, 60, 0
10, 48456, Note_on_c, 8, 57, 0
10, 48480, Note_on_c, 8, 59, 65
10, 48480, Note_on_c, 8, 62, 65
10, 48504, Note_on_c, 8, 62, 0
10, 48504, Note_on_c, 8, 59, 0
10, 48528, Note_on_c, 8, 57, 60
10, 48528, Note_on_c, 8, 60, 60
10, 48552, Note_on_c, 8, 60, 0
10, 48552, Note_on_c, 8, 57, 0
10, 48576, Note_on_c, 8, 56, 60
10, 48576, Note_on_c, 8, 59, 60
10, 48600, Note_on_c, 8, 59, 0
10, 48600, Note_on_c, 8, 56, 0
10, 48768, Note_on_c, 8, 57, 65
10, 48768, Note_on_c, 8, 60, 65
10, 48792, Note_on_c, 8, 60, 0
10, 48792, Note_on_c, 8, 57, 0
10, 48816, Note_on_c, 8, 55, 60
10, 48816, Note_on_c, 8, 58, 60
10, 48840, Note_on_c, 8, 58, 0
10, 48840, Note_on_c, 8, 55, 0
10, 48864, Note_on_c, 8, 53, 60
10, 48864, Note_on_c, 8, 57, 60
10, 48888, Note_on_c, 8, 57, 0
10, 48888, Note_on_c, 8, 53, 0
10, 48912, Note_on_c, 8, 58, 65
10, 48912, Note_on_c, 8, 62, 65
10, 48936, Note_on_c, 8, 62, 0
10, 48936, Note_on_c, 8, 58, 0
10, 48960, Note_on_c, 8, 57, 60
10, 48960, Note_on_c, 8, 60, 60
10, 48984, Note_on_c, 8, 60, 0
10, 48984, Note_on_c, 8, 57, 0
10, 49008, Note_on_c, 8, 55, 60
10, 49008, Note_on_c, 8, 58, 60
10, 49032, Note_on_c, 8, 58, 0
10, 49032, Note_on_c, 8, 55, 0
10, 49200, Note_on_c, 8, 57, 65
10, 49200, Note_on_c, 8, 65, 65
10, 49224, Note_on_c, 8, 65, 0
10, 49224, Note_on_c, 8, 57, 0
10, 49248, Note_on_c, 8, 55, 60
10, 49248, Note_on_c, 8, 58, 60
10, 49272, Note_on_c, 8, 58, 0
10, 49272, Note_on_c, 8, 55, 0
10, 49296, Note_on_c, 8, 53, 60
10, 49296, Note_on_c, 8, 57, 60
10, 49320, Note_on_c, 8, 57, 0
10, 49320, Note_on_c, 8, 53, 0
10, 49344, Note_on_c, 8, 55, 65
10, 49344, Note_on_c, 8, 58, 65
10, 49368, Note_on_c, 8, 58, 0
10, 49368, Note_on_c, 8, 55, 0
10, 49392, Note_on_c, 8, 53, 60
10, 49392, Note_on_c, 8, 57, 60
10, 49416, Note_on_c, 8, 57, 0
10, 49416, Note_on_c, 8, 53, 0
10, 49440, Note_on_c, 8, 52, 60
10, 49440, Note_on_c, 8, 55, 60
10, 49464, Note_on_c, 8, 55, 0
10, 49464, Note_on_c, 8, 52, 0
10, 49632, Note_on_c, 8, 57, 65
10, 49632, Note_on_c, 8, 65, 65
10, 49656, Note_on_c, 8, 65, 0
10, 49656, Note_on_c, 8, 57, 0
10, 49680, Note_on_c, 8, 55, 60
10, 49680, Note_on_c, 8, 58, 60
10, 49704, Note_on_c, 8, 58, 0
10, 49704, Note_on_c, 8, 55, 0
10, 49728, Note_on_c, 8, 53, 60
10, 49728, Note_on_c, 8, 57, 60
10, 49752, Note_on_c, 8, 57, 0
10, 49752, Note_on_c, 8, 53, 0
10, 49776, Note_on_c, 8, 58, 65
10, 49776, Note_on_c, 8, 62, 65
10, 49800, Note_on_c, 8, 62, 0
10, 49800, Note_on_c, 8, 58, 0
10, 49824, Note_on_c, 8, 57, 60
10, 49824, Note_on_c, 8, 60, 60
10, 49848, Note_on_c, 8, 60, 0
10, 49848, Note_on_c, 8, 57, 0
10, 49872, Note_on_c, 8, 55, 60
10, 49872, Note_on_c, 8, 58, 60
10, 49896, Note_on_c, 8, 58, 0
10, 49896, Note_on_c, 8, 55, 0
10, 50064, Note_on_c, 8, 57, 65
10, 50064, Note_on_c, 8, 60, 65
10, 50088, Note_on_c, 8, 60, 0
10, 50088, Note_on_c, 8, 57, 0
10, 50112, Note_on_c, 8, 55, 60
10, 50112, Note_on_c, 8, 64, 60
10, 50136, Note_on_c, 8, 64, 0
10, 50136, Note_on_c, 8, 55, 0
10, 50160, Note_on_c, 8, 57, 60
10, 50160, Note_on_c, 8, 65, 60
10, 50184, Note_on_c, 8, 65, 0
10, 50184, Note_on_c, 8, 57, 0
10, 50208, Note_on_c, 8, 55, 65
10, 50208, Note_on_c, 8, 64, 65
10, 50232, Note_on_c, 8, 64, 0
10, 50232, Note_on_c, 8, 55, 0
10, 50256, Note_on_c, 8, 57, 60
10, 50256, Note_on_c, 8, 65, 60
10, 50280, Note_on_c, 8, 65, 0
10, 50280, Note_on_c, 8, 57, 0
10, 50304, Note_on_c, 8, 58, 60
10, 50304, Note_on_c, 8, 67, 60
10, 50328, Note_on_c, 8, 67, 0
10, 50328, Note_on_c, 8, 58, 0
10, 50352, Note_on_c, 8, 57, 65
10, 50352, Note_on_c, 8, 60, 65
10, 50376, Note_on_c, 8, 60, 0
10, 50376, Note_on_c, 8, 57, 0
10, 50400, Note_on_c, 8, 55, 60
10, 50400, Note_on_c, 8, 58, 60
10, 50424, Note_on_c, 8, 58, 0
10, 50424, Note_on_c, 8, 55, 0
10, 50448, Note_on_c, 8, 53, 60
10, 50448, Note_on_c, 8, 57, 60
10, 50472, Note_on_c, 8, 57, 0
10, 50472, Note_on_c, 8, 53, 0
10, 50496, Note_on_c, 8, 53, 65
10, 50496, Note_on_c, 8, 57, 65
10, 50520, Note_on_c, 8, 57, 0
10, 50520, Note_on_c, 8, 53, 0
10, 50544, Note_on_c, 8, 55, 60
10, 50544, Note_on_c, 8, 58, 60
10, 50568, Note_on_c, 8, 58, 0
10, 50568, Note_on_c, 8, 55, 0
10, 50592, Note_on_c, 8, 57, 60
10, 50592, Note_on_c, 8, 60, 60
10, 50616, Note_on_c, 8, 60, 0
10, 50616, Note_on_c, 8, 57, 0
10, 50640, Note_on_c, 8, 57, 65
10, 50640, Note_on_c, 8, 60, 65
10, 50664, Note_on_c, 8, 60, 0
10, 50664, Note_on_c, 8, 57, 0
10, 50688, Note_on_c, 8, 55, 60
10, 50688, Note_on_c, 8, 58, 60
10, 50712, Note_on_c, 8, 58, 0
10, 50712, Note_on_c, 8, 55, 0
10, 50736, Note_on_c, 8, 57, 60
10, 50736, Note_on_c, 8, 60, 60
10, 50760, Note_on_c, 8, 60, 0
10, 50760, Note_on_c, 8, 57, 0
10, 50928, Note_on_c, 8, 60, 60
10, 50963, Note_on_c, 8, 60, 0
10, 51000, Note_on_c, 8, 48, 50
10, 51012, Note_on_c, 8, 48, 0
10, 51024, Note_on_c, 8, 48, 50
10, 51048, Note_on_c, 8, 48, 0
10, 51216, Note_on_c, 8, 53, 55
10, 51216, Note_on_c, 8, 57, 55
10, 51240, Note_on_c, 8, 57, 0
10, 51240, Note_on_c, 8, 53, 0
10, 51264, Note_on_c, 8, 52, 50
10, 51264, Note_on_c, 8, 55, 50
10, 51288, Note_on_c, 8, 55, 0
10, 51288, Note_on_c, 8, 52, 0
10, 51312, Note_on_c, 8, 50, 50
10, 51312, Note_on_c, 8, 53, 50
10, 51336, Note_on_c, 8, 53, 0
10, 51336, Note_on_c, 8, 50, 0
10, 51360, Note_on_c, 8, 50, 55
10, 51360, Note_on_c, 8, 53, 55
10, 51384, Note_on_c, 8, 53, 0
10, 51384, Note_on_c, 8, 50, 0
10, 51408, Note_on_c, 8, 52, 50
10, 51408, Note_on_c, 8, 55, 50
10, 51432, Note_on_c, 8, 55, 0
10, 51432, Note_on_c, 8, 52, 0
10, 51456, Note_on_c, 8, 53, 50
10, 51456, Note_on_c, 8, 57, 50
10, 51480, Note_on_c, 8, 57, 0
10, 51480, Note_on_c, 8, 53, 0
10, 51504, Note_on_c, 8, 53, 55
10, 51504, Note_on_c, 8, 57, 55
10, 51528, Note_on_c, 8, 57, 0
10, 51528, Note_on_c, 8, 53, 0
10, 51552, Note_on_c, 8, 52, 50
10, 51552, Note_on_c, 8, 55, 50
10, 51576, Note_on_c, 8, 55, 0
10, 51576, Note_on_c, 8, 52, 0
10, 51600, Note_on_c, 8, 53, 50
10, 51600, Note_on_c, 8, 57, 50
10, 51624, Note_on_c, 8, 57, 0
10, 51624, Note_on_c, 8, 53, 0
10, 52080, Note_on_c, 8, 53, 55
10, 52080, Note_on_c, 8, 57, 55
10, 52104, Note_on_c, 8, 57, 0
10, 52104, Note_on_c, 8, 53, 0
10, 52128, Note_on_c, 8, 52, 50
10, 52128, Note_on_c, 8, 55, 50
10, 52152, Note_on_c, 8, 55, 0
10, 52152, Note_on_c, 8, 52, 0
10, 52176, Note_on_c, 8, 50, 50
10, 52176, Note_on_c, 8, 53, 50
10, 52200, Note_on_c, 8, 53, 0
10, 52200, Note_on_c, 8, 50, 0
10, 52224, Note_on_c, 8, 50, 55
10, 52224, Note_on_c, 8, 53, 55
10, 52248, Note_on_c, 8, 53, 0
10, 52248, Note_on_c, 8, 50, 0
10, 52272, Note_on_c, 8, 52, 50
10, 52272, Note_on_c, 8, 55, 50
10, 52296, Note_on_c, 8, 55, 0
10, 52296, Note_on_c, 8, 52, 0
10, 52320, Note_on_c, 8, 53, 50
10, 52320, Note_on_c, 8, 57, 50
10, 52344, Note_on_c, 8, 57, 0
10, 52344, Note_on_c, 8, 53, 0
10, 52368, Note_on_c, 8, 53, 55
10, 52368, Note_on_c, 8, 57, 55
10, 52392, Note_on_c, 8, 57, 0
10, 52392, Note_on_c, 8, 53, 0
10, 52416, Note_on_c, 8, 52, 50
10, 52416, Note_on_c, 8, 55, 50
10, 52440, Note_on_c, 8, 55, 0
10, 52440, Note_on_c, 8, 52, 0
10, 52464, Note_on_c, 8, 53, 50
10, 52464, Note_on_c, 8, 57, 50
10, 52488, Note_on_c, 8, 57, 0
10, 52488, Note_on_c, 8, 53, 0
10, 53376, Note_on_c, 8, 57, 60
10, 53411, Note_on_c, 8, 57, 0
10, 53448, Note_on_c, 8, 45, 50
10, 53460, Note_on_c, 8, 45, 0
10, 53472, Note_on_c, 8, 45, 50
10, 53496, Note_on_c, 8, 45, 0
10, 53520, Note_on_c, 8, 50, 55
10, 53520, Note_on_c, 8, 53, 55
10, 53544, Note_on_c, 8, 53, 0
10, 53544, Note_on_c, 8, 50, 0
10, 53568, Note_on_c, 8, 52, 50
10, 53568, Note_on_c, 8, 55, 50
10, 53592, Note_on_c, 8, 55, 0
10, 53592, Note_on_c, 8, 52, 0
10, 53616, Note_on_c, 8, 53, 50
10, 53616, Note_on_c, 8, 57, 50
10, 53640, Note_on_c, 8, 57, 0
10, 53640, Note_on_c, 8, 53, 0
10, 53664, Note_on_c, 8, 52, 55
10, 53664, Note_on_c, 8, 55, 55
10, 53688, Note_on_c, 8, 55, 0
10, 53688, Note_on_c, 8, 52, 0
10, 53712, Note_on_c, 8, 53, 50
10, 53712, Note_on_c, 8, 57, 50
10, 53736, Note_on_c, 8, 57, 0
10, 53736, Note_on_c, 8, 53, 0
10, 53760, Note_on_c, 8, 55, 50
10, 53760, Note_on_c, 8, 57, 50
10, 53784, Note_on_c, 8, 57, 0
10, 53784, Note_on_c, 8, 55, 0
10, 53808, Note_on_c, 8, 50, 55
10, 53808, Note_on_c, 8, 53, 55
10, 53832, Note_on_c, 8, 53, 0
10, 53832, Note_on_c, 8, 50, 0
10, 53856, Note_on_c, 8, 57, 50
10, 53856, Note_on_c, 8, 65, 50
10, 53880, Note_on_c, 8, 65, 0
10, 53880, Note_on_c, 8, 57, 0
10, 53904, Note_on_c, 8, 57, 50
10, 53904, Note_on_c, 8, 65, 50
10, 53928, Note_on_c, 8, 65, 0
10, 53928, Note_on_c, 8, 57, 0
10, 53952, Note_on_c, 8, 57, 55
10, 53952, Note_on_c, 8, 65, 55
10, 53976, Note_on_c, 8, 65, 0
10, 53976, Note_on_c, 8, 57, 0
10, 54000, Note_on_c, 8, 55, 50
10, 54000, Note_on_c, 8, 64, 50
10, 54024, Note_on_c, 8, 64, 0
10, 54024, Note_on_c, 8, 55, 0
10, 54048, Note_on_c, 8, 53, 50
10, 54048, Note_on_c, 8, 62, 50
10, 54072, Note_on_c, 8, 62, 0
10, 54072, Note_on_c, 8, 53, 0
10, 54096, Note_on_c, 8, 55, 55
10, 54096, Note_on_c, 8, 64, 55
10, 54120, Note_on_c, 8, 64, 0
10, 54120, Note_on_c, 8, 55, 0
10, 54144, Note_on_c, 8, 53, 50
10, 54144, Note_on_c, 8, 62, 50
10, 54168, Note_on_c, 8, 62, 0
10, 54168, Note_on_c, 8, 53, 0
10, 54192, Note_on_c, 8, 52, 50
10, 54192, Note_on_c, 8, 61, 50
10, 54216, Note_on_c, 8, 61, 0
10, 54216, Note_on_c, 8, 52, 0
10, 54240, Note_on_c, 8, 53, 55
10, 54240, Note_on_c, 8, 62, 55
10, 54264, Note_on_c, 8, 62, 0
10, 54264, Note_on_c, 8, 53, 0
10, 54288, Note_on_c, 8, 65, 50
10, 54312, Note_on_c, 8, 65, 0
10, 54336, Note_on_c, 8, 65, 50
10, 54360, Note_on_c, 8, 65, 0
10, 54384, Note_on_c, 8, 65, 55
10, 54408, Note_on_c, 8, 65, 0
10, 54432, Note_on_c, 8, 64, 50
10, 54456, Note_on_c, 8, 64, 0
10, 54480, Note_on_c, 8, 62, 50
10, 54504, Note_on_c, 8, 62, 0
10, 54528, Note_on_c, 8, 64, 55
10, 54552, Note_on_c, 8, 64, 0
10, 54576, Note_on_c, 8, 62, 50
10, 54600, Note_on_c, 8, 62, 0
10, 54624, Note_on_c, 8, 61, 50
10, 54648, Note_on_c, 8, 61, 0
10, 54672, Note_on_c, 8, 62, 55
10, 54696, Note_on_c, 8, 62, 0
10, 54720, Note_on_c, 8, 67, 50
10, 54744, Note_on_c, 8, 67, 0
10, 54768, Note_on_c, 8, 65, 50
10, 54792, Note_on_c, 8, 65, 0
10, 54816, Note_on_c, 8, 65, 55
10, 54840, Note_on_c, 8, 65, 0
10, 54864, Note_on_c, 8, 63, 50
10, 54888, Note_on_c, 8, 63, 0
10, 54912, Note_on_c, 8, 59, 50
10, 54936, Note_on_c, 8, 59, 0
10, 54960, Note_on_c, 8, 60, 55
10, 54984, Note_on_c, 8, 60, 0
10, 55008, Note_on_c, 8, 65, 50
10, 55032, Note_on_c, 8, 65, 0
10, 55056, Note_on_c, 8, 63, 50
10, 55080, Note_on_c, 8, 63, 0
10, 55104, Note_on_c, 8, 65, 55
10, 55128, Note_on_c, 8, 65, 0
10, 55152, Note_on_c, 8, 63, 50
10, 55176, Note_on_c, 8, 63, 0
10, 55200, Note_on_c, 8, 67, 50
10, 55224, Note_on_c, 8, 67, 0
10, 55248, Note_on_c, 8, 67, 60
10, 55283, Note_on_c, 8, 67, 0
10, 55320, Note_on_c, 8, 55, 50
10, 55332, Note_on_c, 8, 55, 0
10, 55344, Note_on_c, 8, 55, 50
10, 55368, Note_on_c, 8, 55, 0
10, 55392, Note_on_c, 8, 58, 55
10, 55416, Note_on_c, 8, 58, 0
10, 55440, Note_on_c, 8, 58, 50
10, 55464, Note_on_c, 8, 58, 0
10, 55488, Note_on_c, 8, 58, 50
10, 55512, Note_on_c, 8, 58, 0
10, 55536, Note_on_c, 8, 58, 55
10, 55560, Note_on_c, 8, 58, 0
10, 55584, Note_on_c, 8, 58, 50
10, 55608, Note_on_c, 8, 58, 0
10, 55632, Note_on_c, 8, 58, 50
10, 55656, Note_on_c, 8, 58, 0
10, 55680, Note_on_c, 8, 58, 55
10, 55704, Note_on_c, 8, 58, 0
10, 55728, Note_on_c, 8, 58, 50
10, 55752, Note_on_c, 8, 58, 0
10, 55776, Note_on_c, 8, 58, 50
10, 55800, Note_on_c, 8, 58, 0
10, 55824, Note_on_c, 8, 58, 55
10, 55848, Note_on_c, 8, 58, 0
10, 55872, Note_on_c, 8, 58, 50
10, 55896, Note_on_c, 8, 58, 0
10, 55920, Note_on_c, 8, 58, 50
10, 55944, Note_on_c, 8, 58, 0
10, 55968, Note_on_c, 8, 58, 55
10, 55992, Note_on_c, 8, 58, 0
10, 56016, Note_on_c, 8, 58, 50
10, 56040, Note_on_c, 8, 58, 0
10, 56064, Note_on_c, 8, 58, 50
10, 56088, Note_on_c, 8, 58, 0
10, 56112, Note_on_c, 8, 58, 55
10, 56136, Note_on_c, 8, 58, 0
10, 56160, Note_on_c, 8, 58, 50
10, 56184, Note_on_c, 8, 58, 0
10, 56208, Note_on_c, 8, 58, 50
10, 56232, Note_on_c, 8, 58, 0
10, 56256, Note_on_c, 8, 58, 50
10, 56280, Note_on_c, 8, 58, 0
10, 56832, Note_on_c, 8, 58, 50
10, 56856, Note_on_c, 8, 58, 0
10, 56976, Note_on_c, 8, 58, 50
10, 57000, Note_on_c, 8, 58, 0
10, 57120, Note_on_c, 8, 58, 50
10, 57144, Note_on_c, 8, 58, 0
10, 57264, Note_on_c, 8, 58, 50
10, 57288, Note_on_c, 8, 58, 0
10, 57408, Note_on_c, 8, 46, 50
10, 57408, Note_on_c, 8, 58, 50
10, 57432, Note_on_c, 8, 58, 0
10, 57432, Note_on_c, 8, 46, 0
10, 57984, Note_on_c, 8, 45, 77
10, 57984, Note_on_c, 8, 57, 77
10, 58008, Note_on_c, 8, 57, 0
10, 58008, Note_on_c, 8, 45, 0
10, 58272, Note_on_c, 8, 45, 90
10, 58272, Note_on_c, 8, 57, 90
10, 58296, Note_on_c, 8, 57, 0
10, 58296, Note_on_c, 8, 45, 0
10, 58560, Note_on_c, 8, 45, 120
10, 58560, Note_on_c, 8, 57, 120
10, 58590, Note_on_c, 8, 57, 0
10, 58590, Note_on_c, 8, 45, 0
10, 58848, Note_on_c, 8, 45, 120
10, 58848, Note_on_c, 8, 57, 120
10, 58878, Note_on_c, 8, 57, 0
10, 58878, Note_on_c, 8, 45, 0
10, 59136, Note_on_c, 8, 38, 125
10, 59171, Note_on_c, 8, 38, 0
10, 59208, Note_on_c, 8, 38, 115
10, 59220, Note_on_c, 8, 38, 0
10, 59232, Note_on_c, 8, 38, 115
10, 59256, Note_on_c, 8, 38, 0
10, 59280, Note_on_c, 8, 38, 125
10, 59315, Note_on_c, 8, 38, 0
10, 59352, Note_on_c, 8, 38, 115
10, 59364, Note_on_c, 8, 38, 0
10, 59376, Note_on_c, 8, 38, 115
10, 59400, Note_on_c, 8, 38, 0
10, 59424, Note_on_c, 8, 38, 125
10, 59459, Note_on_c, 8, 38, 0
10, 59496, Note_on_c, 8, 38, 115
10, 59508, Note_on_c, 8, 38, 0
10, 59520, Note_on_c, 8, 38, 115
10, 59544, Note_on_c, 8, 38, 0
10, 59568, Note_on_c, 8, 38, 125
10, 59603, Note_on_c, 8, 38, 0
10, 59640, Note_on_c, 8, 38, 115
10, 59652, Note_on_c, 8, 38, 0
10, 59664, Note_on_c, 8, 38, 115
10, 59688, Note_on_c, 8, 38, 0
10, 59712, Note_on_c, 8, 38, 125
10, 59747, Note_on_c, 8, 38, 0
10, 59784, Note_on_c, 8, 38, 115
10, 59796, Note_on_c, 8, 38, 0
10, 59808, Note_on_c, 8, 38, 115
10, 59832, Note_on_c, 8, 38, 0
10, 59856, Note_on_c, 8, 38, 125
10, 59891, Note_on_c, 8, 38, 0
10, 59928, Note_on_c, 8, 38, 115
10, 59940, Note_on_c, 8, 38, 0
10, 59952, Note_on_c, 8, 38, 115
10, 59976, Note_on_c, 8, 38, 0
10, 60000, Note_on_c, 8, 38, 125
10, 60035, Note_on_c, 8, 38, 0
10, 60072, Note_on_c, 8, 38, 115
10, 60084, Note_on_c, 8, 38, 0
10, 60096, Note_on_c, 8, 38, 115
10, 60120, Note_on_c, 8, 38, 0
10, 60144, Note_on_c, 8, 38, 125
10, 60179, Note_on_c, 8, 38, 0
10, 60216, Note_on_c, 8, 38, 115
10, 60228, Note_on_c, 8, 38, 0
10, 60240, Note_on_c, 8, 38, 115
10, 60264, Note_on_c, 8, 38, 0
10, 60288, Note_on_c, 8, 38, 125
10, 60323, Note_on_c, 8, 38, 0
10, 60360, Note_on_c, 8, 38, 115
10, 60372, Note_on_c, 8, 38, 0
10, 60384, Note_on_c, 8, 38, 115
10, 60408, Note_on_c, 8, 38, 0
10, 60432, Note_on_c, 8, 38, 125
10, 60467, Note_on_c, 8, 38, 0
10, 60504, Note_on_c, 8, 38, 115
10, 60516, Note_on_c, 8, 38, 0
10, 60528, Note_on_c, 8, 38, 115
10, 60552, Note_on_c, 8, 38, 0
10, 60576, Note_on_c, 8, 38, 125
10, 60611, Note_on_c, 8, 38, 0
10, 60648, Note_on_c, 8, 38, 115
10, 60660, Note_on_c, 8, 38, 0
10, 60672, Note_on_c, 8, 38, 115
10, 60696, Note_on_c, 8, 38, 0
10, 60720, Note_on_c, 8, 38, 125
10, 60755, Note_on_c, 8, 38, 0
10, 60792, Note_on_c, 8, 38, 115
10, 60804, Note_on_c, 8, 38, 0
10, 60816, Note_on_c, 8, 38, 115
10, 60840, Note_on_c, 8, 38, 0
10, 60864, Note_on_c, 8, 38, 125
10, 60899, Note_on_c, 8, 38, 0
10, 60936, Note_on_c, 8, 38, 115
10, 60948, Note_on_c, 8, 38, 0
10, 60960, Note_on_c, 8, 38, 115
10, 60984, Note_on_c, 8, 38, 0
10, 61008, Note_on_c, 8, 38, 125
10, 61043, Note_on_c, 8, 38, 0
10, 61080, Note_on_c, 8, 38, 115
10, 61092, Note_on_c, 8, 38, 0
10, 61104, Note_on_c, 8, 38, 115
10, 61128, Note_on_c, 8, 38, 0
10, 61152, Note_on_c, 8, 38, 125
10, 61187, Note_on_c, 8, 38, 0
10, 61224, Note_on_c, 8, 38, 115
10, 61236, Note_on_c, 8, 38, 0
10, 61248, Note_on_c, 8, 38, 115
10, 61272, Note_on_c, 8, 38, 0
10, 61296, Note_on_c, 8, 38, 125
10, 61331, Note_on_c, 8, 38, 0
10, 61368, Note_on_c, 8, 38, 115
10, 61380, Note_on_c, 8, 38, 0
10, 61392, Note_on_c, 8, 38, 115
10, 61416, Note_on_c, 8, 38, 0
10, 61440, Note_on_c, 8, 51, 120
10, 61440, Note_on_c, 8, 63, 120
10, 61464, Note_on_c, 8, 63, 0
10, 61464, Note_on_c, 8, 51, 0
10, 61488, Note_on_c, 8, 50, 115
10, 61488, Note_on_c, 8, 62, 115
10, 61512, Note_on_c, 8, 62, 0
10, 61512, Note_on_c, 8, 50, 0
10, 61536, Note_on_c, 8, 48, 115
10, 61536, Note_on_c, 8, 60, 115
10, 61560, Note_on_c, 8, 60, 0
10, 61560, Note_on_c, 8, 48, 0
10, 61584, Note_on_c, 8, 46, 120
10, 61584, Note_on_c, 8, 58, 120
10, 61608, Note_on_c, 8, 58, 0
10, 61608, Note_on_c, 8, 46, 0
10, 61632, Note_on_c, 8, 45, 115
10, 61632, Note_on_c, 8, 57, 115
10, 61656, Note_on_c, 8, 57, 0
10, 61656, Note_on_c, 8, 45, 0
10, 61680, Note_on_c, 8, 43, 115
10, 61680, Note_on_c, 8, 55, 115
10, 61704, Note_on_c, 8, 55, 0
10, 61704, Note_on_c, 8, 43, 0
10, 61728, Note_on_c, 8, 42, 120
10, 61728, Note_on_c, 8, 54, 120
10, 61752, Note_on_c, 8, 54, 0
10, 61752, Note_on_c, 8, 42, 0
10, 61776, Note_on_c, 8, 43, 115
10, 61776, Note_on_c, 8, 55, 115
10, 61800, Note_on_c, 8, 55, 0
10, 61800, Note_on_c, 8, 43, 0
10, 61824, Note_on_c, 8, 45, 115
10, 61824, Note_on_c, 8, 57, 115
10, 61848, Note_on_c, 8, 57, 0
10, 61848, Note_on_c, 8, 45, 0
10, 61872, Note_on_c, 8, 43, 120
10, 61872, Note_on_c, 8, 55, 120
10, 61896, Note_on_c, 8, 55, 0
10, 61896, Note_on_c, 8, 43, 0
10, 61920, Note_on_c, 8, 45, 115
10, 61920, Note_on_c, 8, 57, 115
10, 61944, Note_on_c, 8, 57, 0
10, 61944, Note_on_c, 8, 45, 0
10, 61968, Note_on_c, 8, 46, 115
10, 61968, Note_on_c, 8, 58, 115
10, 61992, Note_on_c, 8, 58, 0
10, 61992, Note_on_c, 8, 46, 0
10, 62016, Note_on_c, 8, 51, 105
10, 62016, Note_on_c, 8, 63, 105
10, 62040, Note_on_c, 8, 63, 0
10, 62040, Note_on_c, 8, 51, 0
10, 62064, Note_on_c, 8, 50, 100
10, 62064, Note_on_c, 8, 62, 100
10, 62088, Note_on_c, 8, 62, 0
10, 62088, Note_on_c, 8, 50, 0
10, 62112, Note_on_c, 8, 48, 100
10, 62112, Note_on_c, 8, 60, 100
10, 62136, Note_on_c, 8, 60, 0
10, 62136, Note_on_c, 8, 48, 0
10, 62160, Note_on_c, 8, 46, 105
10, 62160, Note_on_c, 8, 58, 105
10, 62184, Note_on_c, 8, 58, 0
10, 62184, Note_on_c, 8, 46, 0
10, 62208, Note_on_c, 8, 45, 100
10, 62208, Note_on_c, 8, 57, 100
10, 62232, Note_on_c, 8, 57, 0
10, 62232, Note_on_c, 8, 45, 0
10, 62256, Note_on_c, 8, 43, 100
10, 62256, Note_on_c, 8, 55, 100
10, 62280, Note_on_c, 8, 55, 0
10, 62280, Note_on_c, 8, 43, 0
10, 62304, Note_on_c, 8, 53, 105
10, 62304, Note_on_c, 8, 65, 105
10, 62328, Note_on_c, 8, 65, 0
10, 62328, Note_on_c, 8, 53, 0
10, 62352, Note_on_c, 8, 51, 100
10, 62352, Note_on_c, 8, 63, 100
10, 62376, Note_on_c, 8, 63, 0
10, 62376, Note_on_c, 8, 51, 0
10, 62400, Note_on_c, 8, 50, 100
10, 62400, Note_on_c, 8, 62, 100
10, 62424, Note_on_c, 8, 62, 0
10, 62424, Note_on_c, 8, 50, 0
10, 62448, Note_on_c, 8, 48, 105
10, 62448, Note_on_c, 8, 60, 105
10, 62472, Note_on_c, 8, 60, 0
10, 62472, Note_on_c, 8, 48, 0
10, 62496, Note_on_c, 8, 46, 100
10, 62496, Note_on_c, 8, 58, 100
10, 62520, Note_on_c, 8, 58, 0
10, 62520, Note_on_c, 8, 46, 0
10, 62544, Note_on_c, 8, 45, 100
10, 62544, Note_on_c, 8, 57, 100
10, 62568, Note_on_c, 8, 57, 0
10, 62568, Note_on_c, 8, 45, 0
10, 62592, Note_on_c, 8, 45, 105
10, 62616, Note_on_c, 8, 45, 0
10, 62640, Note_on_c, 8, 46, 100
10, 62664, Note_on_c, 8, 46, 0
10, 62688, Note_on_c, 8, 48, 100
10, 62712, Note_on_c, 8, 48, 0
10, 62736, Note_on_c, 8, 50, 105
10, 62760, Note_on_c, 8, 50, 0
10, 62784, Note_on_c, 8, 51, 100
10, 62808, Note_on_c, 8, 51, 0
10, 62832, Note_on_c, 8, 53, 100
10, 62856, Note_on_c, 8, 53, 0
10, 62880, Note_on_c, 8, 55, 105
10, 62904, Note_on_c, 8, 55, 0
10, 62928, Note_on_c, 8, 57, 100
10, 62952, Note_on_c, 8, 57, 0
10, 62976, Note_on_c, 8, 58, 100
10, 63000, Note_on_c, 8, 58, 0
10, 63024, Note_on_c, 8, 60, 105
10, 63048, Note_on_c, 8, 60, 0
10, 63072, Note_on_c, 8, 62, 100
10, 63096, Note_on_c, 8, 62, 0
10, 63120, Note_on_c, 8, 63, 100
10, 63144, Note_on_c, 8, 63, 0
10, 63168, Control_c, 8, 1, 0
10, 63168, Note_on_c, 8, 65, 100
10, 63169, Control_c, 8, 1, 1
10, 63170, Control_c, 8, 1, 2
10, 63171, Control_c, 8, 1, 3
10, 63172, Control_c, 8, 1, 4
10, 63174, Control_c, 8, 1, 5
10, 63175, Control_c, 8, 1, 6
10, 63177, Control_c, 8, 1, 7
10, 63179, Control_c, 8, 1, 8
10, 63180, Control_c, 8, 1, 9
10, 63182, Control_c, 8, 1, 10
10, 63185, Control_c, 8, 1, 11
10, 63187, Control_c, 8, 1, 12
10, 63190, Control_c, 8, 1, 13
10, 63192, Control_c, 8, 11, 60
10, 63193, Control_c, 8, 1, 14
10, 63196, Control_c, 8, 1, 15
10, 63200, Control_c, 8, 1, 16
10, 63205, Control_c, 8, 1, 17
10, 63211, Control_c, 8, 1, 18
10, 63218, Control_c, 8, 1, 19
10, 63228, Control_c, 8, 1, 20
10, 63245, Control_c, 8, 1, 21
10, 63456, Control_c, 8, 11, 60
10, 63476, Control_c, 8, 11, 61
10, 63495, Control_c, 8, 11, 62
10, 63514, Control_c, 8, 11, 63
10, 63533, Control_c, 8, 11, 64
10, 63552, Control_c, 8, 11, 65
10, 63571, Control_c, 8, 11, 66
10, 63591, Control_c, 8, 11, 67
10, 63600, Note_on_c, 8, 63, 100
10, 63601, Note_on_c, 8, 65, 0
10, 63610, Control_c, 8, 11, 68
10, 63629, Control_c, 8, 11, 69
10, 63648, Control_c, 8, 11, 70
10, 63667, Control_c, 8, 11, 71
10, 63686, Control_c, 8, 11, 72
10, 63706, Control_c, 8, 11, 73
10, 63725, Control_c, 8, 11, 74
10, 63744, Control_c, 8, 11, 75
10, 63763, Control_c, 8, 11, 76
10, 63782, Control_c, 8, 11, 77
10, 63801, Control_c, 8, 11, 78
10, 63821, Control_c, 8, 11, 79
10, 63840, Control_c, 8, 11, 80
10, 63859, Control_c, 8, 11, 81
10, 63878, Control_c, 8, 11, 82
10, 63888, Note_on_c, 8, 62, 100
10, 63889, Note_on_c, 8, 63, 0
10, 63897, Control_c, 8, 11, 83
10, 63916, Control_c, 8, 11, 84
10, 63936, Control_c, 8, 11, 85
10, 63955, Control_c, 8, 11, 86
10, 63974, Control_c, 8, 11, 87
10, 63993, Control_c, 8, 11, 88
10, 64012, Control_c, 8, 11, 89
10, 64031, Control_c, 8, 11, 90
10, 64032, Control_c, 8, 11, 90
10, 64032, Note_on_c, 8, 61, 100
10, 64033, Note_on_c, 8, 62, 0
10, 64042, Control_c, 8, 11, 89
10, 64052, Control_c, 8, 11, 88
10, 64061, Control_c, 8, 11, 87
10, 64071, Control_c, 8, 11, 86
10, 64080, Control_c, 8, 11, 85
10, 64090, Control_c, 8, 11, 84
10, 64099, Control_c, 8, 11, 83
10, 64109, Control_c, 8, 11, 82
10, 64119, Control_c, 8, 11, 81
10, 64128, Control_c, 8, 11, 80
10, 64138, Control_c, 8, 11, 79
10, 64147, Control_c, 8, 11, 78
10, 64157, Control_c, 8, 11, 77
10, 64166, Control_c, 8, 11, 76
10, 64176, Note_on_c, 8, 60, 100
10, 64176, Control_c, 8, 11, 75
10, 64177, Note_on_c, 8, 61, 0
10, 64186, Control_c, 8, 11, 74
10, 64195, Control_c, 8, 11, 73
10, 64205, Control_c, 8, 11, 72
10, 64214, Control_c, 8, 11, 71
10, 64224, Control_c, 8, 11, 70
10, 64233, Control_c, 8, 11, 69
10, 64243, Control_c, 8, 11, 68
10, 64253, Control_c, 8, 11, 67
10, 64262, Control_c, 8, 11, 66
10, 64272, Control_c, 8, 11, 65
10, 64281, Control_c, 8, 11, 64
10, 64291, Control_c, 8, 11, 63
10, 64300, Control_c, 8, 11, 62
10, 64310, Control_c, 8, 11, 61
10, 64319, Control_c, 8, 11, 60
10, 64320, Control_c, 8, 1, 0
10, 64320, Note_on_c, 8, 46, 100
10, 64320, Note_on_c, 8, 58, 100
10, 64321, Note_on_c, 8, 60, 0
10, 64321, Control_c, 8, 1, 1
10, 64322, Control_c, 8, 1, 2
10, 64323, Control_c, 8, 1, 3
10, 64324, Control_c, 8, 1, 4
10, 64326, Control_c, 8, 1, 5
10, 64327, Control_c, 8, 1, 6
10, 64329, Control_c, 8, 1, 7
10, 64331, Control_c, 8, 1, 8
10, 64332, Control_c, 8, 1, 9
10, 64334, Control_c, 8, 1, 10
10, 64337, Control_c, 8, 1, 11
10, 64339, Control_c, 8, 1, 12
10, 64342, Control_c, 8, 1, 13
10, 64345, Control_c, 8, 1, 14
10, 64348, Control_c, 8, 1, 15
10, 64352, Control_c, 8, 1, 16
10, 64357, Control_c, 8, 1, 17
10, 64363, Control_c, 8, 1, 18
10, 64370, Control_c, 8, 1, 19
10, 64380, Control_c, 8, 1, 20
10, 64397, Control_c, 8, 1, 21
10, 64608, Note_on_c, 8, 57, 100
10, 64609, Note_on_c, 8, 58, 0
10, 64609, Note_on_c, 8, 46, 0
10, 64752, Control_c, 8, 11, 60
10, 64767, Control_c, 8, 11, 61
10, 64781, Control_c, 8, 11, 62
10, 64796, Control_c, 8, 11, 63
10, 64810, Control_c, 8, 11, 64
10, 64824, Control_c, 8, 11, 65
10, 64839, Control_c, 8, 11, 66
10, 64853, Control_c, 8, 11, 67
10, 64867, Control_c, 8, 11, 68
10, 64882, Control_c, 8, 11, 69
10, 64896, Note_on_c, 8, 59, 100
10, 64896, Control_c, 8, 11, 70
10, 64911, Control_c, 8, 11, 71
10, 64925, Control_c, 8, 11, 72
10, 64939, Control_c, 8, 11, 73
10, 64954, Control_c, 8, 11, 74
10, 64968, Control_c, 8, 11, 75
10, 64982, Control_c, 8, 11, 76
10, 64997, Control_c, 8, 11, 77
10, 65011, Control_c, 8, 11, 78
10, 65026, Control_c, 8, 11, 79
10, 65040, Note_on_c, 8, 55, 100
10, 65040, Control_c, 8, 11, 80
10, 65041, Note_on_c, 8, 57, 0
10, 65054, Control_c, 8, 11, 81
10, 65069, Control_c, 8, 11, 82
10, 65083, Control_c, 8, 11, 83
10, 65097, Control_c, 8, 11, 84
10, 65112, Control_c, 8, 11, 85
10, 65126, Control_c, 8, 11, 86
10, 65141, Control_c, 8, 11, 87
10, 65155, Control_c, 8, 11, 88
10, 65169, Control_c, 8, 11, 89
10, 65184, Note_on_c, 8, 58, 100
10, 65184, Control_c, 8, 11, 90
10, 65185, Note_on_c, 8, 59, 0
10, 65198, Control_c, 8, 11, 91
10, 65212, Control_c, 8, 11, 92
10, 65227, Control_c, 8, 11, 93
10, 65241, Control_c, 8, 11, 94
10, 65256, Control_c, 8, 11, 95
10, 65270, Control_c, 8, 11, 96
10, 65284, Control_c, 8, 11, 97
10, 65299, Control_c, 8, 11, 98
10, 65313, Control_c, 8, 11, 99
10, 65327, Control_c, 8, 11, 100
10, 65328, Control_c, 8, 11, 100
10, 65328, Note_on_c, 8, 54, 100
10, 65328, Note_on_c, 8, 57, 100
10, 65329, Note_on_c, 8, 58, 0
10, 65329, Note_on_c, 8, 55, 0
10, 65339, Control_c, 8, 11, 99
10, 65350, Control_c, 8, 11, 98
10, 65361, Control_c, 8, 11, 97
10, 65372, Control_c, 8, 11, 96
10, 65382, Control_c, 8, 11, 95
10, 65393, Control_c, 8, 11, 94
10, 65404, Control_c, 8, 11, 93
10, 65415, Control_c, 8, 11, 92
10, 65425, Control_c, 8, 11, 91
10, 65436, Control_c, 8, 11, 90
10, 65447, Control_c, 8, 11, 89
10, 65458, Control_c, 8, 11, 88
10, 65469, Control_c, 8, 11, 87
10, 65472, Note_on_c, 8, 53, 100
10, 65473, Note_on_c, 8, 54, 0
10, 65479, Control_c, 8, 11, 86
10, 65490, Control_c, 8, 11, 85
10, 65501, Control_c, 8, 11, 84
10, 65512, Control_c, 8, 11, 83
10, 65522, Control_c, 8, 11, 82
10, 65533, Control_c, 8, 11, 81
10, 65544, Control_c, 8, 11, 80
10, 65555, Control_c, 8, 11, 79
10, 65566, Control_c, 8, 11, 78
10, 65576, Control_c, 8, 11, 77
10, 65587, Control_c, 8, 11, 76
10, 65598, Control_c, 8, 11, 75
10, 65609, Control_c, 8, 11, 74
10, 65616, Note_on_c, 8, 52, 100
10, 65617, Note_on_c, 8, 53, 0
10, 65619, Control_c, 8, 11, 73
10, 65630, Control_c, 8, 11, 72
10, 65641, Control_c, 8, 11, 71
10, 65652, Control_c, 8, 11, 70
10, 65663, Control_c, 8, 11, 69
10, 65673, Control_c, 8, 11, 68
10, 65684, Control_c, 8, 11, 67
10, 65695, Control_c, 8, 11, 66
10, 65706, Control_c, 8, 11, 65
10, 65716, Control_c, 8, 11, 64
10, 65727, Control_c, 8, 11, 63
10, 65738, Control_c, 8, 11, 62
10, 65749, Control_c, 8, 11, 61
10, 65759, Control_c, 8, 11, 60
10, 65760, Note_on_c, 8, 57, 0
10, 65760, Note_on_c, 8, 52, 0
10, 66048, Control_c, 8, 1, 0
10, 66048, Control_c, 8, 11, 60
10, 66048, Note_on_c, 8, 58, 100
10, 66049, Control_c, 8, 1, 1
10, 66050, Control_c, 8, 1, 2
10, 66051, Control_c, 8, 1, 3
10, 66052, Control_c, 8, 1, 4
10, 66054, Control_c, 8, 1, 5
10, 66055, Control_c, 8, 1, 6
10, 66057, Control_c, 8, 1, 7
10, 66059, Control_c, 8, 11, 61
10, 66059, Control_c, 8, 1, 8
10, 66060, Control_c, 8, 1, 9
10, 66062, Control_c, 8, 1, 10
10, 66065, Control_c, 8, 1, 11
10, 66067, Control_c, 8, 1, 12
10, 66070, Control_c, 8, 11, 62
10, 66070, Control_c, 8, 1, 13
10, 66073, Control_c, 8, 1, 14
10, 66076, Control_c, 8, 1, 15
10, 66080, Control_c, 8, 1, 16
10, 66081, Control_c, 8, 11, 63
10, 66085, Control_c, 8, 1, 17
10, 66091, Control_c, 8, 1, 18
10, 66092, Control_c, 8, 11, 64
10, 66098, Control_c, 8, 1, 19
10, 66102, Control_c, 8, 11, 65
10, 66108, Control_c, 8, 1, 20
10, 66113, Control_c, 8, 11, 66
10, 66124, Control_c, 8, 11, 67
10, 66125, Control_c, 8, 1, 21
10, 66135, Control_c, 8, 11, 68
10, 66145, Control_c, 8, 11, 69
10, 66156, Control_c, 8, 11, 70
10, 66167, Control_c, 8, 11, 71
10, 66178, Control_c, 8, 11, 72
10, 66189, Control_c, 8, 11, 73
10, 66192, Note_on_c, 8, 64, 100
10, 66199, Control_c, 8, 11, 74
10, 66210, Control_c, 8, 11, 75
10, 66221, Control_c, 8, 11, 76
10, 66232, Control_c, 8, 11, 77
10, 66242, Control_c, 8, 11, 78
10, 66253, Control_c, 8, 11, 79
10, 66264, Control_c, 8, 11, 80
10, 66275, Control_c, 8, 11, 81
10, 66286, Control_c, 8, 11, 82
10, 66296, Control_c, 8, 11, 83
10, 66307, Control_c, 8, 11, 84
10, 66318, Control_c, 8, 11, 85
10, 66329, Control_c, 8, 11, 86
10, 66336, Note_on_c, 8, 57, 100
10, 66337, Note_on_c, 8, 58, 0
10, 66339, Control_c, 8, 11, 87
10, 66350, Control_c, 8, 11, 88
10, 66361, Control_c, 8, 11, 89
10, 66372, Control_c, 8, 11, 90
10, 66383, Control_c, 8, 11, 91
10, 66393, Control_c, 8, 11, 92
10, 66404, Control_c, 8, 11, 93
10, 66415, Control_c, 8, 11, 94
10, 66426, Control_c, 8, 11, 95
10, 66436, Control_c, 8, 11, 96
10, 66447, Control_c, 8, 11, 97
10, 66458, Control_c, 8, 11, 98
10, 66469, Control_c, 8, 11, 99
10, 66479, Control_c, 8, 11, 100
10, 66480, Control_c, 8, 11, 100
10, 66480, Note_on_c, 8, 62, 100
10, 66481, Note_on_c, 8, 64, 0
10, 66491, Control_c, 8, 11, 99
10, 66502, Control_c, 8, 11, 98
10, 66513, Control_c, 8, 11, 97
10, 66524, Control_c, 8, 11, 96
10, 66534, Control_c, 8, 11, 95
10, 66545, Control_c, 8, 11, 94
10, 66556, Control_c, 8, 11, 93
10, 66567, Control_c, 8, 11, 92
10, 66577, Control_c, 8, 11, 91
10, 66588, Control_c, 8, 11, 90
10, 66599, Control_c, 8, 11, 89
10, 66610, Control_c, 8, 11, 88
10, 66621, Control_c, 8, 11, 87
10, 66624, Note_on_c, 8, 56, 100
10, 66625, Note_on_c, 8, 57, 0
10, 66631, Control_c, 8, 11, 86
10, 66642, Control_c, 8, 11, 85
10, 66653, Control_c, 8, 11, 84
10, 66664, Control_c, 8, 11, 83
10, 66674, Control_c, 8, 11, 82
10, 66685, Control_c, 8, 11, 81
10, 66696, Control_c, 8, 11, 80
10, 66707, Control_c, 8, 11, 79
10, 66718, Control_c, 8, 11, 78
10, 66728, Control_c, 8, 11, 77
10, 66739, Control_c, 8, 11, 76
10, 66750, Control_c, 8, 11, 75
10, 66761, Control_c, 8, 11, 74
10, 66768, Note_on_c, 8, 55, 100
10, 66768, Note_on_c, 8, 61, 100
10, 66769, Note_on_c, 8, 62, 0
10, 66769, Note_on_c, 8, 56, 0
10, 66771, Control_c, 8, 11, 73
10, 66782, Control_c, 8, 11, 72
10, 66793, Control_c, 8, 11, 71
10, 66804, Control_c, 8, 11, 70
10, 66815, Control_c, 8, 11, 69
10, 66825, Control_c, 8, 11, 68
10, 66836, Control_c, 8, 11, 67
10, 66847, Control_c, 8, 11, 66
10, 66858, Control_c, 8, 11, 65
10, 66868, Control_c, 8, 11, 64
10, 66879, Control_c, 8, 11, 63
10, 66890, Control_c, 8, 11, 62
10, 66901, Control_c, 8, 11, 61
10, 66911, Control_c, 8, 11, 60
10, 66912, Note_on_c, 8, 61, 0
10, 66912, Note_on_c, 8, 55, 0
10, 66912, Control_c, 8, 1, 1
10, 66912, Control_c, 8, 11, 60
10, 66912, Note_on_c, 8, 45, 100
10, 66912, Note_on_c, 8, 57, 100
10, 66913, Control_c, 8, 1, 2
10, 66914, Control_c, 8, 1, 3
10, 66915, Control_c, 8, 1, 4
10, 66916, Control_c, 8, 1, 5
10, 66918, Control_c, 8, 1, 6
10, 66920, Control_c, 8, 1, 7
10, 66921, Control_c, 8, 1, 8
10, 66923, Control_c, 8, 1, 9
10, 66925, Control_c, 8, 1, 10
10, 66928, Control_c, 8, 1, 11
10, 66930, Control_c, 8, 1, 12
10, 66932, Control_c, 8, 11, 61
10, 66933, Control_c, 8, 1, 13
10, 66936, Control_c, 8, 1, 14
10, 66939, Control_c, 8, 1, 15
10, 66943, Control_c, 8, 1, 16
10, 66948, Control_c, 8, 1, 17
10, 66951, Control_c, 8, 11, 62
10, 66953, Control_c, 8, 1, 18
10, 66961, Control_c, 8, 1, 19
10, 66970, Control_c, 8, 11, 63
10, 66971, Control_c, 8, 1, 20
10, 66989, Control_c, 8, 11, 64
10, 66989, Control_c, 8, 1, 21
10, 67008, Control_c, 8, 11, 65
10, 67028, Control_c, 8, 11, 66
10, 67047, Control_c, 8, 11, 67
10, 67066, Control_c, 8, 11, 68
10, 67085, Control_c, 8, 11, 69
10, 67104, Control_c, 8, 11, 70
10, 67124, Control_c, 8, 11, 71
10, 67143, Control_c, 8, 11, 72
10, 67162, Control_c, 8, 11, 73
10, 67181, Control_c, 8, 11, 74
10, 67200, Control_c, 8, 11, 75
10, 67219, Control_c, 8, 11, 76
10, 67239, Control_c, 8, 11, 77
10, 67258, Control_c, 8, 11, 78
10, 67277, Control_c, 8, 11, 79
10, 67296, Control_c, 8, 11, 80
10, 67315, Control_c, 8, 11, 81
10, 67335, Control_c, 8, 11, 82
10, 67344, Note_on_c, 8, 43, 100
10, 67344, Note_on_c, 8, 55, 100
10, 67345, Note_on_c, 8, 57, 0
10, 67345, Note_on_c, 8, 45, 0
10, 67354, Control_c, 8, 11, 83
10, 67373, Control_c, 8, 11, 84
10, 67392, Control_c, 8, 11, 85
10, 67411, Control_c, 8, 11, 86
10, 67430, Control_c, 8, 11, 87
10, 67450, Control_c, 8, 11, 88
10, 67469, Control_c, 8, 11, 89
10, 67488, Control_c, 8, 11, 90
10, 67507, Control_c, 8, 11, 91
10, 67526, Control_c, 8, 11, 92
10, 67546, Control_c, 8, 11, 93
10, 67565, Control_c, 8, 11, 94
10, 67584, Control_c, 8, 11, 95
10, 67603, Control_c, 8, 11, 96
10, 67622, Control_c, 8, 11, 97
10, 67632, Note_on_c, 8, 42, 100
10, 67632, Note_on_c, 8, 54, 100
10, 67633, Note_on_c, 8, 55, 0
10, 67633, Note_on_c, 8, 43, 0
10, 67641, Control_c, 8, 11, 98
10, 67661, Control_c, 8, 11, 99
10, 67680, Control_c, 8, 11, 100
10, 67699, Control_c, 8, 11, 101
10, 67718, Control_c, 8, 11, 102
10, 67737, Control_c, 8, 11, 103
10, 67757, Control_c, 8, 11, 104
10, 67776, Note_on_c, 8, 41, 100
10, 67776, Note_on_c, 8, 53, 100
10, 67776, Control_c, 8, 11, 105
10, 67777, Note_on_c, 8, 54, 0
10, 67777, Note_on_c, 8, 42, 0
10, 67795, Control_c, 8, 11, 106
10, 67814, Control_c, 8, 11, 107
10, 67833, Control_c, 8, 11, 108
10, 67852, Control_c, 8, 11, 109
10, 67872, Control_c, 8, 11, 110
10, 67891, Control_c, 8, 11, 111
10, 67910, Control_c, 8, 11, 112
10, 67920, Note_on_c, 8, 40, 100
10, 67920, Note_on_c, 8, 52, 100
10, 67921, Note_on_c, 8, 53, 0
10, 67921, Note_on_c, 8, 41, 0
10, 67929, Control_c, 8, 11, 113
10, 67948, Control_c, 8, 11, 114
10, 67968, Control_c, 8, 11, 115
10, 67987, Control_c, 8, 11, 116
10, 68006, Control_c, 8, 11, 117
10, 68025, Control_c, 8, 11, 118
10, 68044, Control_c, 8, 11, 119
10, 68063, Control_c, 8, 11, 120
10, 68064, Note_on_c, 8, 52, 0
10, 68064, Note_on_c, 8, 40, 0
10, 68064, Control_c, 8, 1, 0
10, 68064, Note_on_c, 8, 50, 113
10, 68160, Note_on_c, 8, 50, 0
10, 68160, Note_on_c, 8, 52, 111
10, 68184, Note_on_c, 8, 52, 0
10, 68184, Note_on_c, 8, 54, 112
10, 68208, Note_on_c, 8, 54, 0
10, 68208, Note_on_c, 8, 55, 113
10, 68232, Note_on_c, 8, 55, 0
10, 68304, Note_on_c, 8, 54, 110
10, 68328, Note_on_c, 8, 54, 0
10, 68352, Note_on_c, 8, 52, 113
10, 68376, Note_on_c, 8, 52, 0
10, 68448, Note_on_c, 8, 50, 110
10, 68472, Note_on_c, 8, 50, 0
10, 68496, Note_on_c, 8, 52, 113
10, 68520, Note_on_c, 8, 52, 0
10, 68592, Note_on_c, 8, 49, 110
10, 68616, Note_on_c, 8, 49, 0
10, 68640, Note_on_c, 8, 50, 113
10, 68640, Note_on_c, 8, 54, 113
10, 68736, Note_on_c, 8, 54, 0
10, 68736, Note_on_c, 8, 50, 0
10, 68736, Note_on_c, 8, 52, 111
10, 68736, Note_on_c, 8, 55, 111
10, 68760, Note_on_c, 8, 55, 0
10, 68760, Note_on_c, 8, 52, 0
10, 68760, Note_on_c, 8, 54, 112
10, 68760, Note_on_c, 8, 57, 112
10, 68784, Note_on_c, 8, 57, 0
10, 68784, Note_on_c, 8, 54, 0
10, 68784, Note_on_c, 8, 55, 113
10, 68784, Note_on_c, 8, 59, 113
10, 68808, Note_on_c, 8, 59, 0
10, 68808, Note_on_c, 8, 55, 0
10, 68880, Note_on_c, 8, 54, 110
10, 68880, Note_on_c, 8, 57, 110
10, 68904, Note_on_c, 8, 57, 0
10, 68904, Note_on_c, 8, 54, 0
10, 68928, Note_on_c, 8, 52, 113
10, 68928, Note_on_c, 8, 55, 113
10, 68952, Note_on_c, 8, 55, 0
10, 68952, Note_on_c, 8, 52, 0
10, 69024, Note_on_c, 8, 50, 110
10, 69024, Note_on_c, 8, 54, 110
10, 69048, Note_on_c, 8, 54, 0
10, 69048, Note_on_c, 8, 50, 0
10, 69072, Note_on_c, 8, 52, 113
10, 69072, Note_on_c, 8, 55, 113
10, 69096, Note_on_c, 8, 55, 0
10, 69096, Note_on_c, 8, 52, 0
10, 69168, Note_on_c, 8, 49, 110
10, 69168, Note_on_c, 8, 52, 110
10, 69192, Note_on_c, 8, 52, 0
10, 69192, Note_on_c, 8, 49, 0
10, 69216, Note_on_c, 8, 50, 113
10, 69240, Note_on_c, 8, 50, 0
10, 69264, Note_on_c, 8, 53, 110
10, 69264, Note_on_c, 8, 62, 110
10, 69312, Note_on_c, 8, 62, 0
10, 69312, Note_on_c, 8, 53, 0
10, 69312, Note_on_c, 8, 55, 111
10, 69312, Note_on_c, 8, 64, 111
10, 69336, Note_on_c, 8, 64, 0
10, 69336, Note_on_c, 8, 55, 0
10, 69336, Note_on_c, 8, 57, 112
10, 69336, Note_on_c, 8, 65, 112
10, 69360, Note_on_c, 8, 65, 0
10, 69360, Note_on_c, 8, 57, 0
10, 69360, Note_on_c, 8, 58, 113
10, 69360, Note_on_c, 8, 67, 113
10, 69384, Note_on_c, 8, 67, 0
10, 69384, Note_on_c, 8, 58, 0
10, 69408, Note_on_c, 8, 58, 110
10, 69408, Note_on_c, 8, 67, 110
10, 69432, Note_on_c, 8, 67, 0
10, 69432, Note_on_c, 8, 58, 0
10, 69456, Note_on_c, 8, 57, 110
10, 69456, Note_on_c, 8, 65, 110
10, 69480, Note_on_c, 8, 65, 0
10, 69480, Note_on_c, 8, 57, 0
10, 69504, Note_on_c, 8, 55, 113
10, 69504, Note_on_c, 8, 64, 113
10, 69528, Note_on_c, 8, 64, 0
10, 69528, Note_on_c, 8, 55, 0
10, 69552, Note_on_c, 8, 55, 110
10, 69552, Note_on_c, 8, 64, 110
10, 69576, Note_on_c, 8, 64, 0
10, 69576, Note_on_c, 8, 55, 0
10, 69600, Note_on_c, 8, 53, 110
10, 69600, Note_on_c, 8, 62, 110
10, 69624, Note_on_c, 8, 62, 0
10, 69624, Note_on_c, 8, 53, 0
10, 69648, Note_on_c, 8, 55, 113
10, 69648, Note_on_c, 8, 64, 113
10, 69672, Note_on_c, 8, 64, 0
10, 69672, Note_on_c, 8, 55, 0
10, 69696, Note_on_c, 8, 55, 110
10, 69696, Note_on_c, 8, 64, 110
10, 69720, Note_on_c, 8, 64, 0
10, 69720, Note_on_c, 8, 55, 0
10, 69744, Note_on_c, 8, 52, 110
10, 69744, Note_on_c, 8, 61, 110
10, 69768, Note_on_c, 8, 61, 0
10, 69768, Note_on_c, 8, 52, 0
10, 69792, Note_on_c, 8, 62, 113
10, 69792, Note_on_c, 8, 65, 113
10, 69816, Note_on_c, 8, 65, 0
10, 69816, Note_on_c, 8, 62, 0
10, 69840, Note_on_c, 8, 50, 110
10, 69840, Note_on_c, 8, 53, 110
10, 69888, Note_on_c, 8, 53, 0
10, 69888, Note_on_c, 8, 50, 0
10, 69888, Note_on_c, 8, 52, 111
10, 69888, Note_on_c, 8, 55, 111
10, 69912, Note_on_c, 8, 55, 0
10, 69912, Note_on_c, 8, 52, 0
10, 69912, Note_on_c, 8, 53, 112
10, 69912, Note_on_c, 8, 57, 112
10, 69936, Note_on_c, 8, 57, 0
10, 69936, Note_on_c, 8, 53, 0
10, 69936, Note_on_c, 8, 55, 113
10, 69936, Note_on_c, 8, 58, 113
10, 69960, Note_on_c, 8, 58, 0
10, 69960, Note_on_c, 8, 55, 0
10, 69984, Note_on_c, 8, 55, 110
10, 69984, Note_on_c, 8, 58, 110
10, 70008, Note_on_c, 8, 58, 0
10, 70008, Note_on_c, 8, 55, 0
10, 70032, Note_on_c, 8, 53, 110
10, 70032, Note_on_c, 8, 57, 110
10, 70056, Note_on_c, 8, 57, 0
10, 70056, Note_on_c, 8, 53, 0
10, 70080, Note_on_c, 8, 52, 113
10, 70080, Note_on_c, 8, 55, 113
10, 70104, Note_on_c, 8, 55, 0
10, 70104, Note_on_c, 8, 52, 0
10, 70128, Note_on_c, 8, 52, 110
10, 70128, Note_on_c, 8, 55, 110
10, 70152, Note_on_c, 8, 55, 0
10, 70152, Note_on_c, 8, 52, 0
10, 70176, Note_on_c, 8, 50, 110
10, 70176, Note_on_c, 8, 53, 110
10, 70200, Note_on_c, 8, 53, 0
10, 70200, Note_on_c, 8, 50, 0
10, 70224, Note_on_c, 8, 52, 113
10, 70224, Note_on_c, 8, 55, 113
10, 70248, Note_on_c, 8, 55, 0
10, 70248, Note_on_c, 8, 52, 0
10, 70272, Note_on_c, 8, 52, 110
10, 70272, Note_on_c, 8, 55, 110
10, 70296, Note_on_c, 8, 55, 0
10, 70296, Note_on_c, 8, 52, 0
10, 70320, Note_on_c, 8, 49, 110
10, 70320, Note_on_c, 8, 52, 110
10, 70344, Note_on_c, 8, 52, 0
10, 70344, Note_on_c, 8, 49, 0
10, 70368, Note_on_c, 8, 50, 116
10, 70368, Note_on_c, 8, 62, 116
10, 70403, Note_on_c, 8, 62, 0
10, 70403, Note_on_c, 8, 50, 0
10, 70440, Note_on_c, 8, 38, 113
10, 70440, Note_on_c, 8, 50, 113
10, 70452, Note_on_c, 8, 50, 0
10, 70452, Note_on_c, 8, 38, 0
10, 70464, Note_on_c, 8, 38, 113
10, 70464, Note_on_c, 8, 50, 113
10, 70488, Note_on_c, 8, 50, 0
10, 70488, Note_on_c, 8, 38, 0
10, 70512, Note_on_c, 8, 50, 116
10, 70512, Note_on_c, 8, 62, 116
10, 70536, Note_on_c, 8, 62, 0
10, 70536, Note_on_c, 8, 50, 0
10, 70560, Note_on_c, 8, 52, 113
10, 70560, Note_on_c, 8, 64, 113
10, 70584, Note_on_c, 8, 64, 0
10, 70584, Note_on_c, 8, 52, 0
10, 70608, Note_on_c, 8, 53, 113
10, 70608, Note_on_c, 8, 65, 113
10, 70632, Note_on_c, 8, 65, 0
10, 70632, Note_on_c, 8, 53, 0
10, 70656, Note_on_c, 8, 55, 116
10, 70656, Note_on_c, 8, 67, 116
10, 70680, Note_on_c, 8, 67, 0
10, 70680, Note_on_c, 8, 55, 0
10, 70800, Note_on_c, 8, 58, 116
10, 70824, Note_on_c, 8, 58, 0
10, 70848, Note_on_c, 8, 60, 113
10, 70872, Note_on_c, 8, 60, 0
10, 70896, Note_on_c, 8, 62, 113
10, 70920, Note_on_c, 8, 62, 0
10, 70944, Note_on_c, 8, 48, 116
10, 70944, Note_on_c, 8, 60, 116
10, 70979, Note_on_c, 8, 60, 0
10, 70979, Note_on_c, 8, 48, 0
10, 71016, Note_on_c, 8, 36, 113
10, 71016, Note_on_c, 8, 48, 113
10, 71028, Note_on_c, 8, 48, 0
10, 71028, Note_on_c, 8, 36, 0
10, 71040, Note_on_c, 8, 36, 113
10, 71040, Note_on_c, 8, 48, 113
10, 71064, Note_on_c, 8, 48, 0
10, 71064, Note_on_c, 8, 36, 0
10, 71088, Note_on_c, 8, 48, 116
10, 71088, Note_on_c, 8, 60, 116
10, 71112, Note_on_c, 8, 60, 0
10, 71112, Note_on_c, 8, 48, 0
10, 71136, Note_on_c, 8, 50, 113
10, 71136, Note_on_c, 8, 62, 113
10, 71160, Note_on_c, 8, 62, 0
10, 71160, Note_on_c, 8, 50, 0
10, 71184, Note_on_c, 8, 52, 113
10, 71184, Note_on_c, 8, 64, 113
10, 71208, Note_on_c, 8, 64, 0
10, 71208, Note_on_c, 8, 52, 0
10, 71232, Note_on_c, 8, 53, 116
10, 71232, Note_on_c, 8, 65, 116
10, 71256, Note_on_c, 8, 65, 0
10, 71256, Note_on_c, 8, 53, 0
10, 71376, Note_on_c, 8, 57, 116
10, 71400, Note_on_c, 8, 57, 0
10, 71424, Note_on_c, 8, 62, 113
10, 71448, Note_on_c, 8, 62, 0
10, 71472, Note_on_c, 8, 64, 113
10, 71496, Note_on_c, 8, 64, 0
10, 71520, Note_on_c, 8, 62, 60
10, 71520, Note_on_c, 8, 66, 60
10, 71544, Note_on_c, 8, 66, 0
10, 71544, Note_on_c, 8, 62, 0
10, 71808, Note_on_c, 8, 55, 60
10, 71808, Note_on_c, 8, 67, 60
10, 71832, Note_on_c, 8, 67, 0
10, 71832, Note_on_c, 8, 55, 0
10, 72384, Control_c, 8, 1, 0
10, 72384, Control_c, 8, 11, 60
10, 72384, Note_on_c, 8, 46, 100
10, 72384, Note_on_c, 8, 55, 100
10, 72385, Control_c, 8, 1, 1
10, 72386, Control_c, 8, 1, 2
10, 72387, Control_c, 8, 1, 3
10, 72388, Control_c, 8, 1, 4
10, 72389, Control_c, 8, 1, 5
10, 72391, Control_c, 8, 1, 6
10, 72392, Control_c, 8, 1, 7
10, 72394, Control_c, 8, 11, 61
10, 72394, Control_c, 8, 1, 8
10, 72395, Control_c, 8, 1, 9
10, 72398, Control_c, 8, 1, 10
10, 72400, Control_c, 8, 1, 11
10, 72402, Control_c, 8, 1, 12
10, 72404, Control_c, 8, 11, 62
10, 72404, Control_c, 8, 1, 13
10, 72408, Control_c, 8, 1, 14
10, 72411, Control_c, 8, 1, 15
10, 72413, Control_c, 8, 11, 63
10, 72414, Control_c, 8, 1, 16
10, 72419, Control_c, 8, 1, 17
10, 72423, Control_c, 8, 11, 64
10, 72424, Control_c, 8, 1, 18
10, 72431, Control_c, 8, 1, 19
10, 72432, Note_on_c, 8, 55, 0
10, 72432, Note_on_c, 8, 53, 100
10, 72432, Control_c, 8, 11, 65
10, 72441, Control_c, 8, 1, 20
10, 72442, Control_c, 8, 11, 66
10, 72452, Control_c, 8, 11, 67
10, 72456, Control_c, 8, 1, 21
10, 72461, Control_c, 8, 11, 68
10, 72471, Control_c, 8, 11, 69
10, 72480, Note_on_c, 8, 53, 0
10, 72480, Note_on_c, 8, 51, 100
10, 72480, Control_c, 8, 11, 70
10, 72490, Control_c, 8, 11, 71
10, 72499, Control_c, 8, 11, 72
10, 72509, Control_c, 8, 11, 73
10, 72519, Control_c, 8, 11, 74
10, 72528, Note_on_c, 8, 51, 0
10, 72528, Note_on_c, 8, 67, 100
10, 72528, Control_c, 8, 11, 75
10, 72538, Control_c, 8, 11, 76
10, 72547, Control_c, 8, 11, 77
10, 72557, Control_c, 8, 11, 78
10, 72567, Control_c, 8, 11, 79
10, 72576, Note_on_c, 8, 67, 0
10, 72576, Note_on_c, 8, 46, 0
10, 72576, Note_on_c, 8, 44, 100
10, 72576, Note_on_c, 8, 65, 100
10, 72576, Control_c, 8, 11, 80
10, 72586, Control_c, 8, 11, 81
10, 72595, Control_c, 8, 11, 82
10, 72605, Control_c, 8, 11, 83
10, 72614, Control_c, 8, 11, 84
10, 72624, Note_on_c, 8, 65, 0
10, 72624, Note_on_c, 8, 44, 0
10, 72624, Note_on_c, 8, 43, 100
10, 72624, Note_on_c, 8, 63, 100
10, 72624, Control_c, 8, 11, 85
10, 72634, Control_c, 8, 11, 86
10, 72643, Control_c, 8, 11, 87
10, 72653, Control_c, 8, 11, 88
10, 72662, Control_c, 8, 11, 89
10, 72672, Note_on_c, 8, 63, 0
10, 72672, Note_on_c, 8, 43, 0
10, 72672, Note_on_c, 8, 43, 100
10, 72672, Note_on_c, 8, 58, 100
10, 72672, Control_c, 8, 11, 90
10, 72682, Control_c, 8, 11, 91
10, 72691, Control_c, 8, 11, 92
10, 72701, Control_c, 8, 11, 93
10, 72710, Control_c, 8, 11, 94
10, 72720, Note_on_c, 8, 58, 0
10, 72720, Note_on_c, 8, 57, 100
10, 72720, Control_c, 8, 11, 95
10, 72729, Control_c, 8, 11, 96
10, 72739, Control_c, 8, 11, 97
10, 72749, Control_c, 8, 11, 98
10, 72758, Control_c, 8, 11, 99
10, 72768, Note_on_c, 8, 57, 0
10, 72768, Note_on_c, 8, 58, 100
10, 72768, Control_c, 8, 11, 100
10, 72777, Control_c, 8, 11, 101
10, 72787, Control_c, 8, 11, 102
10, 72797, Control_c, 8, 11, 103
10, 72806, Control_c, 8, 11, 104
10, 72816, Note_on_c, 8, 43, 0
10, 72816, Note_on_c, 8, 45, 100
10, 72816, Control_c, 8, 11, 105
10, 72825, Control_c, 8, 11, 106
10, 72835, Control_c, 8, 11, 107
10, 72844, Control_c, 8, 11, 108
10, 72854, Control_c, 8, 11, 109
10, 72864, Note_on_c, 8, 58, 0
10, 72864, Note_on_c, 8, 57, 100
10, 72864, Control_c, 8, 11, 110
10, 72873, Control_c, 8, 11, 111
10, 72883, Control_c, 8, 11, 112
10, 72892, Control_c, 8, 11, 113
10, 72902, Control_c, 8, 11, 114
10, 72912, Note_on_c, 8, 57, 0
10, 72912, Note_on_c, 8, 45, 0
10, 72912, Note_on_c, 8, 43, 100
10, 72912, Note_on_c, 8, 55, 100
10, 72912, Control_c, 8, 11, 115
10, 72921, Control_c, 8, 11, 116
10, 72931, Control_c, 8, 11, 117
10, 72940, Control_c, 8, 11, 118
10, 72950, Control_c, 8, 11, 119
10, 72959, Control_c, 8, 11, 120
10, 72960, Note_on_c, 8, 55, 0
10, 72960, Note_on_c, 8, 43, 0
10, 72960, Control_c, 8, 1, 0
10, 72960, Note_on_c, 8, 41, 105
10, 72960, Note_on_c, 8, 53, 105
10, 72984, Note_on_c, 8, 53, 0
10, 72984, Note_on_c, 8, 41, 0
10, 73008, Note_on_c, 8, 38, 100
10, 73008, Note_on_c, 8, 50, 100
10, 73032, Note_on_c, 8, 50, 0
10, 73032, Note_on_c, 8, 38, 0
10, 73056, Note_on_c, 8, 43, 100
10, 73056, Note_on_c, 8, 55, 100
10, 73080, Note_on_c, 8, 55, 0
10, 73080, Note_on_c, 8, 43, 0
10, 73104, Note_on_c, 8, 40, 105
10, 73104, Note_on_c, 8, 52, 105
10, 73128, Note_on_c, 8, 52, 0
10, 73128, Note_on_c, 8, 40, 0
10, 73152, Note_on_c, 8, 49, 100
10, 73152, Note_on_c, 8, 61, 100
10, 73176, Note_on_c, 8, 61, 0
10, 73176, Note_on_c, 8, 49, 0
10, 73200, Note_on_c, 8, 45, 100
10, 73200, Note_on_c, 8, 57, 100
10, 73224, Note_on_c, 8, 57, 0
10, 73224, Note_on_c, 8, 45, 0
10, 73248, Note_on_c, 8, 50, 100
10, 73248, Note_on_c, 8, 62, 100
10, 73272, Note_on_c, 8, 62, 0
10, 73272, Note_on_c, 8, 50, 0
10, 73536, Note_on_c, 8, 38, 105
10, 73536, Note_on_c, 8, 50, 105
10, 73560, Note_on_c, 8, 50, 0
10, 73560, Note_on_c, 8, 38, 0
10, 73584, Note_on_c, 8, 38, 100
10, 73584, Note_on_c, 8, 50, 100
10, 73608, Note_on_c, 8, 50, 0
10, 73608, Note_on_c, 8, 38, 0
10, 73632, Note_on_c, 8, 43, 100
10, 73632, Note_on_c, 8, 55, 100
10, 73656, Note_on_c, 8, 55, 0
10, 73656, Note_on_c, 8, 43, 0
10, 73680, Note_on_c, 8, 40, 105
10, 73680, Note_on_c, 8, 52, 105
10, 73704, Note_on_c, 8, 52, 0
10, 73704, Note_on_c, 8, 40, 0
10, 73728, Note_on_c, 8, 49, 100
10, 73728, Note_on_c, 8, 61, 100
10, 73752, Note_on_c, 8, 61, 0
10, 73752, Note_on_c, 8, 49, 0
10, 73776, Note_on_c, 8, 45, 100
10, 73776, Note_on_c, 8, 57, 100
10, 73800, Note_on_c, 8, 57, 0
10, 73800, Note_on_c, 8, 45, 0
10, 73824, Note_on_c, 8, 45, 105
10, 73824, Note_on_c, 8, 57, 105
10, 73848, Note_on_c, 8, 57, 0
10, 73848, Note_on_c, 8, 45, 0
10, 73872, Note_on_c, 8, 57, 100
10, 73896, Note_on_c, 8, 57, 0
10, 73920, Note_on_c, 8, 62, 100
10, 73944, Note_on_c, 8, 62, 0
10, 73968, Note_on_c, 8, 58, 100
10, 73992, Note_on_c, 8, 58, 0
10, 74016, Note_on_c, 8, 55, 100
10, 74040, Note_on_c, 8, 55, 0
10, 74064, Note_on_c, 8, 61, 100
10, 74088, Note_on_c, 8, 61, 0
10, 74112, Note_on_c, 8, 50, 105
10, 74112, Note_on_c, 8, 53, 105
10, 74136, Note_on_c, 8, 53, 0
10, 74136, Note_on_c, 8, 50, 0
10, 74160, Note_on_c, 8, 50, 100
10, 74160, Note_on_c, 8, 57, 100
10, 74184, Note_on_c, 8, 57, 0
10, 74184, Note_on_c, 8, 50, 0
10, 74208, Note_on_c, 8, 50, 100
10, 74208, Note_on_c, 8, 53, 100
10, 74232, Note_on_c, 8, 53, 0
10, 74232, Note_on_c, 8, 50, 0
10, 74256, Note_on_c, 8, 52, 105
10, 74256, Note_on_c, 8, 55, 105
10, 74280, Note_on_c, 8, 55, 0
10, 74280, Note_on_c, 8, 52, 0
10, 74304, Note_on_c, 8, 55, 100
10, 74304, Note_on_c, 8, 64, 100
10, 74328, Note_on_c, 8, 64, 0
10, 74328, Note_on_c, 8, 55, 0
10, 74352, Note_on_c, 8, 52, 100
10, 74352, Note_on_c, 8, 61, 100
10, 74376, Note_on_c, 8, 61, 0
10, 74376, Note_on_c, 8, 52, 0
10, 74400, Note_on_c, 8, 53, 105
10, 74400, Note_on_c, 8, 62, 105
10, 74424, Note_on_c, 8, 62, 0
10, 74424, Note_on_c, 8, 53, 0
10, 74448, Note_on_c, 8, 53, 100
10, 74448, Note_on_c, 8, 57, 100
10, 74472, Note_on_c, 8, 57, 0
10, 74472, Note_on_c, 8, 53, 0
10, 74496, Note_on_c, 8, 50, 100
10, 74496, Note_on_c, 8, 53, 100
10, 74520, Note_on_c, 8, 53, 0
10, 74520, Note_on_c, 8, 50, 0
10, 74544, Note_on_c, 8, 52, 105
10, 74544, Note_on_c, 8, 55, 105
10, 74568, Note_on_c, 8, 55, 0
10, 74568, Note_on_c, 8, 52, 0
10, 74592, Note_on_c, 8, 55, 100
10, 74592, Note_on_c, 8, 64, 100
10, 74616, Note_on_c, 8, 64, 0
10, 74616, Note_on_c, 8, 55, 0
10, 74640, Note_on_c, 8, 52, 100
10, 74640, Note_on_c, 8, 61, 100
10, 74664, Note_on_c, 8, 61, 0
10, 74664, Note_on_c, 8, 52, 0
10, 74688, Control_c, 8, 1, 0
10, 74688, Note_on_c, 8, 45, 45
10, 74689, Control_c, 8, 1, 1
10, 74690, Control_c, 8, 1, 2
10, 74691, Control_c, 8, 1, 3
10, 74693, Control_c, 8, 1, 4
10, 74694, Control_c, 8, 1, 5
10, 74697, Control_c, 8, 1, 6
10, 74699, Control_c, 8, 1, 7
10, 74701, Control_c, 8, 1, 8
10, 74704, Control_c, 8, 1, 9
10, 74709, Control_c, 8, 1, 10
10, 74713, Control_c, 8, 1, 11
10, 74720, Control_c, 8, 1, 12
10, 74732, Control_c, 8, 1, 13
10, 74736, Note_on_c, 8, 45, 0
10, 74736, Note_on_c, 8, 49, 49
10, 74784, Note_on_c, 8, 49, 0
10, 74784, Note_on_c, 8, 52, 52
10, 74832, Note_on_c, 8, 52, 0
10, 74832, Note_on_c, 8, 55, 55
10, 74880, Note_on_c, 8, 55, 0
10, 74880, Note_on_c, 8, 61, 61
10, 74928, Note_on_c, 8, 61, 0
10, 74928, Note_on_c, 8, 64, 64
10, 74976, Note_on_c, 8, 64, 0
10, 74976, Control_c, 8, 1, 22
10, 74976, Note_on_c, 8, 67, 67
10, 75168, Note_on_c, 8, 67, 0
10, 75168, Control_c, 8, 1, 13
10, 75168, Note_on_c, 8, 64, 64
10, 75216, Note_on_c, 8, 64, 0
10, 75216, Note_on_c, 8, 61, 61
10, 75264, Note_on_c, 8, 61, 0
10, 75264, Control_c, 8, 1, 0
10, 75264, Note_on_c, 8, 62, 50
10, 75288, Note_on_c, 8, 62, 0
10, 75408, Note_on_c, 8, 45, 55
10, 75408, Note_on_c, 8, 57, 55
10, 75443, Note_on_c, 8, 57, 0
10, 75443, Note_on_c, 8, 45, 0
10, 75480, Note_on_c, 8, 57, 50
10, 75480, Note_on_c, 8, 62, 50
10, 75492, Note_on_c, 8, 62, 0
10, 75492, Note_on_c, 8, 57, 0
10, 75504, Note_on_c, 8, 57, 50
10, 75504, Note_on_c, 8, 62, 50
10, 75528, Note_on_c, 8, 62, 0
10, 75528, Note_on_c, 8, 57, 0
10, 75552, Note_on_c, 8, 53, 50
10, 75552, Note_on_c, 8, 57, 50
10, 75576, Note_on_c, 8, 57, 0
10, 75576, Note_on_c, 8, 53, 0
10, 75696, Note_on_c, 8, 50, 55
10, 75696, Note_on_c, 8, 53, 55
10, 75731, Note_on_c, 8, 53, 0
10, 75731, Note_on_c, 8, 50, 0
10, 75768, Note_on_c, 8, 62, 50
10, 75768, Note_on_c, 8, 65, 50
10, 75780, Note_on_c, 8, 65, 0
10, 75780, Note_on_c, 8, 62, 0
10, 75792, Note_on_c, 8, 62, 50
10, 75792, Note_on_c, 8, 65, 50
10, 75816, Note_on_c, 8, 65, 0
10, 75816, Note_on_c, 8, 62, 0
10, 75840, Note_on_c, 8, 62, 50
10, 75840, Note_on_c, 8, 65, 50
10, 75864, Note_on_c, 8, 65, 0
10, 75864, Note_on_c, 8, 62, 0
10, 76560, Note_on_c, 8, 46, 55
10, 76560, Note_on_c, 8, 58, 55
10, 76595, Note_on_c, 8, 58, 0
10, 76595, Note_on_c, 8, 46, 0
10, 76632, Note_on_c, 8, 58, 50
10, 76632, Note_on_c, 8, 62, 50
10, 76644, Note_on_c, 8, 62, 0
10, 76644, Note_on_c, 8, 58, 0
10, 76656, Note_on_c, 8, 58, 50
10, 76656, Note_on_c, 8, 62, 50
10, 76680, Note_on_c, 8, 62, 0
10, 76680, Note_on_c, 8, 58, 0
10, 76704, Note_on_c, 8, 53, 50
10, 76704, Note_on_c, 8, 58, 50
10, 76728, Note_on_c, 8, 58, 0
10, 76728, Note_on_c, 8, 53, 0
10, 76848, Note_on_c, 8, 50, 55
10, 76848, Note_on_c, 8, 53, 55
10, 76883, Note_on_c, 8, 53, 0
10, 76883, Note_on_c, 8, 50, 0
10, 76920, Note_on_c, 8, 62, 50
10, 76920, Note_on_c, 8, 65, 50
10, 76932, Note_on_c, 8, 65, 0
10, 76932, Note_on_c, 8, 62, 0
10, 76944, Note_on_c, 8, 62, 50
10, 76944, Note_on_c, 8, 65, 50
10, 76968, Note_on_c, 8, 65, 0
10, 76968, Note_on_c, 8, 62, 0
10, 76992, Note_on_c, 8, 58, 50
10, 76992, Note_on_c, 8, 62, 50
10, 77016, Note_on_c, 8, 62, 0
10, 77016, Note_on_c, 8, 58, 0
10, 77136, Note_on_c, 8, 41, 55
10, 77136, Note_on_c, 8, 53, 55
10, 77171, Note_on_c, 8, 53, 0
10, 77171, Note_on_c, 8, 41, 0
10, 77208, Note_on_c, 8, 53, 50
10, 77208, Note_on_c, 8, 65, 50
10, 77220, Note_on_c, 8, 65, 0
10, 77220, Note_on_c, 8, 53, 0
10, 77232, Note_on_c, 8, 53, 50
10, 77232, Note_on_c, 8, 65, 50
10, 77256, Note_on_c, 8, 65, 0
10, 77256, Note_on_c, 8, 53, 0
10, 77280, Note_on_c, 8, 38, 50
10, 77280, Note_on_c, 8, 50, 50
10, 77304, Note_on_c, 8, 50, 0
10, 77304, Note_on_c, 8, 38, 0
10, 77424, Note_on_c, 8, 39, 55
10, 77424, Note_on_c, 8, 51, 55
10, 77459, Note_on_c, 8, 51, 0
10, 77459, Note_on_c, 8, 39, 0
10, 77496, Note_on_c, 8, 51, 50
10, 77496, Note_on_c, 8, 63, 50
10, 77508, Note_on_c, 8, 63, 0
10, 77508, Note_on_c, 8, 51, 0
10, 77520, Note_on_c, 8, 51, 50
10, 77520, Note_on_c, 8, 63, 50
10, 77544, Note_on_c, 8, 63, 0
10, 77544, Note_on_c, 8, 51, 0
10, 77568, Note_on_c, 8, 51, 50
10, 77568, Note_on_c, 8, 63, 50
10, 77592, Note_on_c, 8, 63, 0
10, 77592, Note_on_c, 8, 51, 0
10, 78288, Note_on_c, 8, 36, 60
10, 78288, Note_on_c, 8, 48, 60
10, 78323, Note_on_c, 8, 48, 0
10, 78323, Note_on_c, 8, 36, 0
10, 78360, Note_on_c, 8, 48, 61
10, 78360, Note_on_c, 8, 60, 61
10, 78372, Note_on_c, 8, 60, 0
10, 78372, Note_on_c, 8, 48, 0
10, 78384, Note_on_c, 8, 48, 62
10, 78384, Note_on_c, 8, 60, 62
10, 78408, Note_on_c, 8, 60, 0
10, 78408, Note_on_c, 8, 48, 0
10, 78432, Note_on_c, 8, 44, 63
10, 78432, Note_on_c, 8, 56, 63
10, 78456, Note_on_c, 8, 56, 0
10, 78456, Note_on_c, 8, 44, 0
10, 78576, Note_on_c, 8, 41, 66
10, 78576, Note_on_c, 8, 53, 66
10, 78611, Note_on_c, 8, 53, 0
10, 78611, Note_on_c, 8, 41, 0
10, 78648, Note_on_c, 8, 53, 68
10, 78648, Note_on_c, 8, 65, 68
10, 78660, Note_on_c, 8, 65, 0
10, 78660, Note_on_c, 8, 53, 0
10, 78672, Note_on_c, 8, 53, 69
10, 78672, Note_on_c, 8, 65, 69
10, 78696, Note_on_c, 8, 65, 0
10, 78696, Note_on_c, 8, 53, 0
10, 78720, Note_on_c, 8, 49, 70
10, 78720, Note_on_c, 8, 61, 70
10, 78744, Note_on_c, 8, 61, 0
10, 78744, Note_on_c, 8, 49, 0
10, 78864, Note_on_c, 8, 34, 73
10, 78864, Note_on_c, 8, 46, 73
10, 78899, Note_on_c, 8, 46, 0
10, 78899, Note_on_c, 8, 34, 0
10, 78936, Note_on_c, 8, 46, 73
10, 78936, Note_on_c, 8, 58, 75
10, 78948, Note_on_c, 8, 58, 0
10, 78948, Note_on_c, 8, 46, 0
10, 78960, Note_on_c, 8, 46, 75
10, 78960, Note_on_c, 8, 58, 75
10, 78984, Note_on_c, 8, 58, 0
10, 78984, Note_on_c, 8, 46, 0
10, 79008, Note_on_c, 8, 42, 76
10, 79008, Note_on_c, 8, 54, 76
10, 79032, Note_on_c, 8, 54, 0
10, 79032, Note_on_c, 8, 42, 0
10, 79152, Note_on_c, 8, 39, 80
10, 79152, Note_on_c, 8, 51, 80
10, 79187, Note_on_c, 8, 51, 0
10, 79187, Note_on_c, 8, 39, 0
10, 79224, Note_on_c, 8, 51, 81
10, 79224, Note_on_c, 8, 63, 81
10, 79236, Note_on_c, 8, 63, 0
10, 79236, Note_on_c, 8, 51, 0
10, 79248, Note_on_c, 8, 51, 82
10, 79248, Note_on_c, 8, 63, 82
10, 79272, Note_on_c, 8, 63, 0
10, 79272, Note_on_c, 8, 51, 0
10, 79296, Note_on_c, 8, 47, 83
10, 79296, Note_on_c, 8, 59, 83
10, 79320, Note_on_c, 8, 59, 0
10, 79320, Note_on_c, 8, 47, 0
10, 79440, Note_on_c, 8, 44, 87
10, 79475, Note_on_c, 8, 44, 0
10, 79512, Note_on_c, 8, 44, 88
10, 79512, Note_on_c, 8, 56, 88
10, 79524, Note_on_c, 8, 56, 0
10, 79524, Note_on_c, 8, 44, 0
10, 79536, Note_on_c, 8, 44, 89
10, 79536, Note_on_c, 8, 56, 89
10, 79560, Note_on_c, 8, 56, 0
10, 79560, Note_on_c, 8, 44, 0
10, 79584, Note_on_c, 8, 40, 90
10, 79584, Note_on_c, 8, 52, 90
10, 79608, Note_on_c, 8, 52, 0
10, 79608, Note_on_c, 8, 40, 0
10, 79728, Note_on_c, 8, 37, 93
10, 79728, Note_on_c, 8, 49, 93
10, 79763, Note_on_c, 8, 49, 0
10, 79763, Note_on_c, 8, 37, 0
10, 79800, Note_on_c, 8, 49, 95
10, 79800, Note_on_c, 8, 61, 95
10, 79812, Note_on_c, 8, 61, 0
10, 79812, Note_on_c, 8, 49, 0
10, 79824, Note_on_c, 8, 49, 96
10, 79824, Note_on_c, 8, 61, 96
10, 79848, Note_on_c, 8, 61, 0
10, 79848, Note_on_c, 8, 49, 0
10, 79872, Note_on_c, 8, 45, 100
10, 79872, Note_on_c, 8, 57, 100
10, 79896, Note_on_c, 8, 57, 0
10, 79896, Note_on_c, 8, 45, 0
10, 80016, Note_on_c, 8, 45, 100
10, 80051, Note_on_c, 8, 45, 0
10, 80088, Note_on_c, 8, 45, 100
10, 80088, Note_on_c, 8, 57, 100
10, 80100, Note_on_c, 8, 57, 0
10, 80100, Note_on_c, 8, 45, 0
10, 80112, Note_on_c, 8, 45, 100
10, 80112, Note_on_c, 8, 57, 100
10, 80136, Note_on_c, 8, 57, 0
10, 80136, Note_on_c, 8, 45, 0
10, 80304, Note_on_c, 8, 34, 113
10, 80304, Note_on_c, 8, 46, 113
10, 80339, Note_on_c, 8, 46, 0
10, 80339, Note_on_c, 8, 34, 0
10, 80376, Note_on_c, 8, 46, 113
10, 80376, Note_on_c, 8, 58, 113
10, 80388, Note_on_c, 8, 58, 0
10, 80388, Note_on_c, 8, 46, 0
10, 80400, Note_on_c, 8, 46, 113
10, 80400, Note_on_c, 8, 58, 113
10, 80424, Note_on_c, 8, 58, 0
10, 80424, Note_on_c, 8, 46, 0
10, 80592, Note_on_c, 8, 35, 113
10, 80592, Note_on_c, 8, 47, 113
10, 80627, Note_on_c, 8, 47, 0
10, 80627, Note_on_c, 8, 35, 0
10, 80664, Note_on_c, 8, 47, 113
10, 80664, Note_on_c, 8, 59, 113
10, 80676, Note_on_c, 8, 59, 0
10, 80676, Note_on_c, 8, 47, 0
10, 80688, Note_on_c, 8, 47, 113
10, 80688, Note_on_c, 8, 59, 113
10, 80760, Note_on_c, 8, 59, 0
10, 80760, Note_on_c, 8, 47, 0
10, 80784, Note_on_c, 8, 59, 75
10, 80819, Note_on_c, 8, 59, 0
10, 80856, Note_on_c, 8, 47, 70
10, 80868, Note_on_c, 8, 47, 0
10, 80880, Note_on_c, 8, 47, 70
10, 80904, Note_on_c, 8, 47, 0
10, 80928, Note_on_c, 8, 52, 65
10, 80952, Note_on_c, 8, 52, 0
10, 80976, Note_on_c, 8, 51, 60
10, 80976, Note_on_c, 8, 54, 60
10, 81000, Note_on_c, 8, 54, 0
10, 81000, Note_on_c, 8, 51, 0
10, 81024, Note_on_c, 8, 52, 60
10, 81024, Note_on_c, 8, 55, 60
10, 81048, Note_on_c, 8, 55, 0
10, 81048, Note_on_c, 8, 52, 0
10, 81072, Note_on_c, 8, 51, 65
10, 81072, Note_on_c, 8, 54, 65
10, 81096, Note_on_c, 8, 54, 0
10, 81096, Note_on_c, 8, 51, 0
10, 81120, Note_on_c, 8, 52, 60
10, 81120, Note_on_c, 8, 55, 60
10, 81144, Note_on_c, 8, 55, 0
10, 81144, Note_on_c, 8, 52, 0
10, 81168, Note_on_c, 8, 54, 60
10, 81168, Note_on_c, 8, 57, 60
10, 81192, Note_on_c, 8, 57, 0
10, 81192, Note_on_c, 8, 54, 0
10, 81216, Note_on_c, 8, 52, 65
10, 81216, Note_on_c, 8, 55, 65
10, 81240, Note_on_c, 8, 55, 0
10, 81240, Note_on_c, 8, 52, 0
10, 81264, Note_on_c, 8, 55, 60
10, 81264, Note_on_c, 8, 59, 60
10, 81288, Note_on_c, 8, 59, 0
10, 81288, Note_on_c, 8, 55, 0
10, 81312, Note_on_c, 8, 55, 60
10, 81312, Note_on_c, 8, 59, 60
10, 81336, Note_on_c, 8, 59, 0
10, 81336, Note_on_c, 8, 55, 0
10, 81360, Note_on_c, 8, 55, 65
10, 81360, Note_on_c, 8, 59, 65
10, 81384, Note_on_c, 8, 59, 0
10, 81384, Note_on_c, 8, 55, 0
10, 81408, Note_on_c, 8, 54, 60
10, 81408, Note_on_c, 8, 57, 60
10, 81432, Note_on_c, 8, 57, 0
10, 81432, Note_on_c, 8, 54, 0
10, 81456, Note_on_c, 8, 52, 60
10, 81456, Note_on_c, 8, 55, 60
10, 81480, Note_on_c, 8, 55, 0
10, 81480, Note_on_c, 8, 52, 0
10, 81504, Note_on_c, 8, 54, 65
10, 81504, Note_on_c, 8, 57, 65
10, 81528, Note_on_c, 8, 57, 0
10, 81528, Note_on_c, 8, 54, 0
10, 81552, Note_on_c, 8, 52, 60
10, 81552, Note_on_c, 8, 55, 60
10, 81576, Note_on_c, 8, 55, 0
10, 81576, Note_on_c, 8, 52, 0
10, 81600, Note_on_c, 8, 51, 60
10, 81600, Note_on_c, 8, 54, 60
10, 81624, Note_on_c, 8, 54, 0
10, 81624, Note_on_c, 8, 51, 0
10, 81648, Note_on_c, 8, 59, 70
10, 81683, Note_on_c, 8, 59, 0
10, 81720, Note_on_c, 8, 47, 60
10, 81732, Note_on_c, 8, 47, 0
10, 81744, Note_on_c, 8, 47, 60
10, 81768, Note_on_c, 8, 47, 0
10, 81792, Note_on_c, 8, 47, 65
10, 81792, Note_on_c, 8, 52, 65
10, 81816, Note_on_c, 8, 52, 0
10, 81816, Note_on_c, 8, 47, 0
10, 81840, Note_on_c, 8, 47, 60
10, 81840, Note_on_c, 8, 54, 60
10, 81864, Note_on_c, 8, 54, 0
10, 81864, Note_on_c, 8, 47, 0
10, 81888, Note_on_c, 8, 47, 60
10, 81888, Note_on_c, 8, 55, 60
10, 81912, Note_on_c, 8, 55, 0
10, 81912, Note_on_c, 8, 47, 0
10, 81936, Note_on_c, 8, 47, 65
10, 81936, Note_on_c, 8, 54, 65
10, 81960, Note_on_c, 8, 54, 0
10, 81960, Note_on_c, 8, 47, 0
10, 81984, Note_on_c, 8, 47, 60
10, 81984, Note_on_c, 8, 55, 60
10, 82008, Note_on_c, 8, 55, 0
10, 82008, Note_on_c, 8, 47, 0
10, 82032, Note_on_c, 8, 47, 60
10, 82032, Note_on_c, 8, 57, 60
10, 82056, Note_on_c, 8, 57, 0
10, 82056, Note_on_c, 8, 47, 0
10, 82080, Note_on_c, 8, 52, 65
10, 82080, Note_on_c, 8, 56, 65
10, 82104, Note_on_c, 8, 56, 0
10, 82104, Note_on_c, 8, 52, 0
10, 82128, Note_on_c, 8, 52, 60
10, 82128, Note_on_c, 8, 64, 60
10, 82152, Note_on_c, 8, 64, 0
10, 82152, Note_on_c, 8, 52, 0
10, 82176, Note_on_c, 8, 52, 60
10, 82176, Note_on_c, 8, 64, 60
10, 82200, Note_on_c, 8, 64, 0
10, 82200, Note_on_c, 8, 52, 0
10, 82224, Note_on_c, 8, 60, 65
10, 82224, Note_on_c, 8, 64, 65
10, 82248, Note_on_c, 8, 64, 0
10, 82248, Note_on_c, 8, 60, 0
10, 82272, Note_on_c, 8, 59, 60
10, 82272, Note_on_c, 8, 62, 60
10, 82296, Note_on_c, 8, 62, 0
10, 82296, Note_on_c, 8, 59, 0
10, 82320, Note_on_c, 8, 57, 60
10, 82320, Note_on_c, 8, 60, 60
10, 82344, Note_on_c, 8, 60, 0
10, 82344, Note_on_c, 8, 57, 0
10, 82368, Note_on_c, 8, 59, 65
10, 82368, Note_on_c, 8, 62, 65
10, 82392, Note_on_c, 8, 62, 0
10, 82392, Note_on_c, 8, 59, 0
10, 82416, Note_on_c, 8, 57, 60
10, 82416, Note_on_c, 8, 60, 60
10, 82440, Note_on_c, 8, 60, 0
10, 82440, Note_on_c, 8, 57, 0
10, 82464, Note_on_c, 8, 56, 60
10, 82464, Note_on_c, 8, 59, 60
10, 82488, Note_on_c, 8, 59, 0
10, 82488, Note_on_c, 8, 56, 0
10, 82512, Note_on_c, 8, 64, 70
10, 82547, Note_on_c, 8, 64, 0
10, 82584, Note_on_c, 8, 52, 60
10, 82596, Note_on_c, 8, 52, 0
10, 82608, Note_on_c, 8, 52, 60
10, 82632, Note_on_c, 8, 52, 0
10, 82656, Note_on_c, 8, 52, 65
10, 82656, Note_on_c, 8, 57, 65
10, 82680, Note_on_c, 8, 57, 0
10, 82680, Note_on_c, 8, 52, 0
10, 82704, Note_on_c, 8, 56, 60
10, 82704, Note_on_c, 8, 59, 60
10, 82728, Note_on_c, 8, 59, 0
10, 82728, Note_on_c, 8, 56, 0
10, 82752, Note_on_c, 8, 57, 60
10, 82752, Note_on_c, 8, 60, 60
10, 82776, Note_on_c, 8, 60, 0
10, 82776, Note_on_c, 8, 57, 0
10, 82800, Note_on_c, 8, 56, 65
10, 82800, Note_on_c, 8, 59, 65
10, 82824, Note_on_c, 8, 59, 0
10, 82824, Note_on_c, 8, 56, 0
10, 82848, Note_on_c, 8, 57, 60
10, 82848, Note_on_c, 8, 60, 60
10, 82872, Note_on_c, 8, 60, 0
10, 82872, Note_on_c, 8, 57, 0
10, 82896, Note_on_c, 8, 59, 60
10, 82896, Note_on_c, 8, 62, 60
10, 82920, Note_on_c, 8, 62, 0
10, 82920, Note_on_c, 8, 59, 0
10, 82944, Note_on_c, 8, 57, 65
10, 82944, Note_on_c, 8, 60, 65
10, 82968, Note_on_c, 8, 60, 0
10, 82968, Note_on_c, 8, 57, 0
10, 82992, Note_on_c, 8, 60, 60
10, 82992, Note_on_c, 8, 64, 60
10, 83016, Note_on_c, 8, 64, 0
10, 83016, Note_on_c, 8, 60, 0
10, 83040, Note_on_c, 8, 60, 60
10, 83040, Note_on_c, 8, 64, 60
10, 83064, Note_on_c, 8, 64, 0
10, 83064, Note_on_c, 8, 60, 0
10, 83088, Note_on_c, 8, 60, 65
10, 83088, Note_on_c, 8, 64, 65
10, 83112, Note_on_c, 8, 64, 0
10, 83112, Note_on_c, 8, 60, 0
10, 83136, Note_on_c, 8, 59, 60
10, 83136, Note_on_c, 8, 62, 60
10, 83160, Note_on_c, 8, 62, 0
10, 83160, Note_on_c, 8, 59, 0
10, 83184, Note_on_c, 8, 57, 60
10, 83184, Note_on_c, 8, 60, 60
10, 83208, Note_on_c, 8, 60, 0
10, 83208, Note_on_c, 8, 57, 0
10, 83232, Note_on_c, 8, 59, 65
10, 83232, Note_on_c, 8, 62, 65
10, 83256, Note_on_c, 8, 62, 0
10, 83256, Note_on_c, 8, 59, 0
10, 83280, Note_on_c, 8, 57, 60
10, 83280, Note_on_c, 8, 60, 60
10, 83304, Note_on_c, 8, 60, 0
10, 83304, Note_on_c, 8, 57, 0
10, 83328, Note_on_c, 8, 56, 60
10, 83328, Note_on_c, 8, 59, 60
10, 83352, Note_on_c, 8, 59, 0
10, 83352, Note_on_c, 8, 56, 0
10, 83520, Note_on_c, 8, 57, 65
10, 83520, Note_on_c, 8, 60, 65
10, 83544, Note_on_c, 8, 60, 0
10, 83544, Note_on_c, 8, 57, 0
10, 83568, Note_on_c, 8, 55, 60
10, 83568, Note_on_c, 8, 58, 60
10, 83592, Note_on_c, 8, 58, 0
10, 83592, Note_on_c, 8, 55, 0
10, 83616, Note_on_c, 8, 53, 60
10, 83616, Note_on_c, 8, 57, 60
10, 83640, Note_on_c, 8, 57, 0
10, 83640, Note_on_c, 8, 53, 0
10, 83664, Note_on_c, 8, 58, 65
10, 83664, Note_on_c, 8, 62, 65
10, 83688, Note_on_c, 8, 62, 0
10, 83688, Note_on_c, 8, 58, 0
10, 83712, Note_on_c, 8, 57, 60
10, 83712, Note_on_c, 8, 60, 60
10, 83736, Note_on_c, 8, 60, 0
10, 83736, Note_on_c, 8, 57, 0
10, 83760, Note_on_c, 8, 55, 60
10, 83760, Note_on_c, 8, 58, 60
10, 83784, Note_on_c, 8, 58, 0
10, 83784, Note_on_c, 8, 55, 0
10, 83952, Note_on_c, 8, 57, 65
10, 83952, Note_on_c, 8, 65, 65
10, 83976, Note_on_c, 8, 65, 0
10, 83976, Note_on_c, 8, 57, 0
10, 84000, Note_on_c, 8, 55, 60
10, 84000, Note_on_c, 8, 58, 60
10, 84024, Note_on_c, 8, 58, 0
10, 84024, Note_on_c, 8, 55, 0
10, 84048, Note_on_c, 8, 53, 60
10, 84048, Note_on_c, 8, 57, 60
10, 84072, Note_on_c, 8, 57, 0
10, 84072, Note_on_c, 8, 53, 0
10, 84096, Note_on_c, 8, 55, 65
10, 84096, Note_on_c, 8, 58, 65
10, 84120, Note_on_c, 8, 58, 0
10, 84120, Note_on_c, 8, 55, 0
10, 84144, Note_on_c, 8, 53, 60
10, 84144, Note_on_c, 8, 57, 60
10, 84168, Note_on_c, 8, 57, 0
10, 84168, Note_on_c, 8, 53, 0
10, 84192, Note_on_c, 8, 52, 60
10, 84192, Note_on_c, 8, 55, 60
10, 84216, Note_on_c, 8, 55, 0
10, 84216, Note_on_c, 8, 52, 0
10, 84384, Note_on_c, 8, 57, 65
10, 84384, Note_on_c, 8, 65, 65
10, 84408, Note_on_c, 8, 65, 0
10, 84408, Note_on_c, 8, 57, 0
10, 84432, Note_on_c, 8, 55, 60
10, 84432, Note_on_c, 8, 58, 60
10, 84456, Note_on_c, 8, 58, 0
10, 84456, Note_on_c, 8, 55, 0
10, 84480, Note_on_c, 8, 53, 60
10, 84480, Note_on_c, 8, 57, 60
10, 84504, Note_on_c, 8, 57, 0
10, 84504, Note_on_c, 8, 53, 0
10, 84528, Note_on_c, 8, 58, 65
10, 84528, Note_on_c, 8, 62, 65
10, 84552, Note_on_c, 8, 62, 0
10, 84552, Note_on_c, 8, 58, 0
10, 84576, Note_on_c, 8, 57, 60
10, 84576, Note_on_c, 8, 60, 60
10, 84600, Note_on_c, 8, 60, 0
10, 84600, Note_on_c, 8, 57, 0
10, 84624, Note_on_c, 8, 55, 60
10, 84624, Note_on_c, 8, 58, 60
10, 84648, Note_on_c, 8, 58, 0
10, 84648, Note_on_c, 8, 55, 0
10, 84816, Note_on_c, 8, 57, 65
10, 84816, Note_on_c, 8, 60, 65
10, 84840, Note_on_c, 8, 60, 0
10, 84840, Note_on_c, 8, 57, 0
10, 84864, Note_on_c, 8, 55, 60
10, 84864, Note_on_c, 8, 64, 60
10, 84888, Note_on_c, 8, 64, 0
10, 84888, Note_on_c, 8, 55, 0
10, 84912, Note_on_c, 8, 57, 60
10, 84912, Note_on_c, 8, 65, 60
10, 84936, Note_on_c, 8, 65, 0
10, 84936, Note_on_c, 8, 57, 0
10, 84960, Note_on_c, 8, 55, 65
10, 84960, Note_on_c, 8, 64, 65
10, 84984, Note_on_c, 8, 64, 0
10, 84984, Note_on_c, 8, 55, 0
10, 85008, Note_on_c, 8, 57, 60
10, 85008, Note_on_c, 8, 65, 60
10, 85032, Note_on_c, 8, 65, 0
10, 85032, Note_on_c, 8, 57, 0
10, 85056, Note_on_c, 8, 58, 60
10, 85056, Note_on_c, 8, 67, 60
10, 85080, Note_on_c, 8, 67, 0
10, 85080, Note_on_c, 8, 58, 0
10, 85104, Note_on_c, 8, 57, 65
10, 85104, Note_on_c, 8, 60, 65
10, 85128, Note_on_c, 8, 60, 0
10, 85128, Note_on_c, 8, 57, 0
10, 85152, Note_on_c, 8, 55, 60
10, 85152, Note_on_c, 8, 58, 60
10, 85176, Note_on_c, 8, 58, 0
10, 85176, Note_on_c, 8, 55, 0
10, 85200, Note_on_c, 8, 53, 60
10, 85200, Note_on_c, 8, 57, 60
10, 85224, Note_on_c, 8, 57, 0
10, 85224, Note_on_c, 8, 53, 0
10, 85248, Note_on_c, 8, 53, 65
10, 85248, Note_on_c, 8, 57, 65
10, 85272, Note_on_c, 8, 57, 0
10, 85272, Note_on_c, 8, 53, 0
10, 85296, Note_on_c, 8, 55, 60
10, 85296, Note_on_c, 8, 58, 60
10, 85320, Note_on_c, 8, 58, 0
10, 85320, Note_on_c, 8, 55, 0
10, 85344, Note_on_c, 8, 57, 60
10, 85344, Note_on_c, 8, 60, 60
10, 85368, Note_on_c, 8, 60, 0
10, 85368, Note_on_c, 8, 57, 0
10, 85392, Note_on_c, 8, 57, 65
10, 85392, Note_on_c, 8, 60, 65
10, 85416, Note_on_c, 8, 60, 0
10, 85416, Note_on_c, 8, 57, 0
10, 85440, Note_on_c, 8, 55, 60
10, 85440, Note_on_c, 8, 58, 60
10, 85464, Note_on_c, 8, 58, 0
10, 85464, Note_on_c, 8, 55, 0
10, 85488, Note_on_c, 8, 57, 60
10, 85488, Note_on_c, 8, 60, 60
10, 85512, Note_on_c, 8, 60, 0
10, 85512, Note_on_c, 8, 57, 0
10, 85680, Note_on_c, 8, 60, 60
10, 85715, Note_on_c, 8, 60, 0
10, 85752, Note_on_c, 8, 48, 50
10, 85764, Note_on_c, 8, 48, 0
10, 85776, Note_on_c, 8, 48, 50
10, 85800, Note_on_c, 8, 48, 0
10, 85968, Note_on_c, 8, 53, 55
10, 85968, Note_on_c, 8, 57, 55
10, 85992, Note_on_c, 8, 57, 0
10, 85992, Note_on_c, 8, 53, 0
10, 86016, Note_on_c, 8, 52, 50
10, 86016, Note_on_c, 8, 55, 50
10, 86040, Note_on_c, 8, 55, 0
10, 86040, Note_on_c, 8, 52, 0
10, 86064, Note_on_c, 8, 50, 50
10, 86064, Note_on_c, 8, 53, 50
10, 86088, Note_on_c, 8, 53, 0
10, 86088, Note_on_c, 8, 50, 0
10, 86112, Note_on_c, 8, 50, 55
10, 86112, Note_on_c, 8, 53, 55
10, 86136, Note_on_c, 8, 53, 0
10, 86136, Note_on_c, 8, 50, 0
10, 86160, Note_on_c, 8, 52, 50
10, 86160, Note_on_c, 8, 55, 50
10, 86184, Note_on_c, 8, 55, 0
10, 86184, Note_on_c, 8, 52, 0
10, 86208, Note_on_c, 8, 53, 50
10, 86208, Note_on_c, 8, 57, 50
10, 86232, Note_on_c, 8, 57, 0
10, 86232, Note_on_c, 8, 53, 0
10, 86256, Note_on_c, 8, 53, 55
10, 86256, Note_on_c, 8, 57, 55
10, 86280, Note_on_c, 8, 57, 0
10, 86280, Note_on_c, 8, 53, 0
10, 86304, Note_on_c, 8, 52, 50
10, 86304, Note_on_c, 8, 55, 50
10, 86328, Note_on_c, 8, 55, 0
10, 86328, Note_on_c, 8, 52, 0
10, 86352, Note_on_c, 8, 53, 50
10, 86352, Note_on_c, 8, 57, 50
10, 86376, Note_on_c, 8, 57, 0
10, 86376, Note_on_c, 8, 53, 0
10, 86832, Note_on_c, 8, 53, 55
10, 86832, Note_on_c, 8, 57, 55
10, 86856, Note_on_c, 8, 57, 0
10, 86856, Note_on_c, 8, 53, 0
10, 86880, Note_on_c, 8, 52, 50
10, 86880, Note_on_c, 8, 55, 50
10, 86904, Note_on_c, 8, 55, 0
10, 86904, Note_on_c, 8, 52, 0
10, 86928, Note_on_c, 8, 50, 50
10, 86928, Note_on_c, 8, 53, 50
10, 86952, Note_on_c, 8, 53, 0
10, 86952, Note_on_c, 8, 50, 0
10, 86976, Note_on_c, 8, 50, 55
10, 86976, Note_on_c, 8, 53, 55
10, 87000, Note_on_c, 8, 53, 0
10, 87000, Note_on_c, 8, 50, 0
10, 87024, Note_on_c, 8, 52, 50
10, 87024, Note_on_c, 8, 55, 50
10, 87048, Note_on_c, 8, 55, 0
10, 87048, Note_on_c, 8, 52, 0
10, 87072, Note_on_c, 8, 53, 50
10, 87072, Note_on_c, 8, 57, 50
10, 87096, Note_on_c, 8, 57, 0
10, 87096, Note_on_c, 8, 53, 0
10, 87120, Note_on_c, 8, 53, 55
10, 87120, Note_on_c, 8, 57, 55
10, 87144, Note_on_c, 8, 57, 0
10, 87144, Note_on_c, 8, 53, 0
10, 87168, Note_on_c, 8, 52, 50
10, 87168, Note_on_c, 8, 55, 50
10, 87192, Note_on_c, 8, 55, 0
10, 87192, Note_on_c, 8, 52, 0
10, 87216, Note_on_c, 8, 53, 50
10, 87216, Note_on_c, 8, 57, 50
10, 87240, Note_on_c, 8, 57, 0
10, 87240, Note_on_c, 8, 53, 0
10, 88128, Note_on_c, 8, 57, 60
10, 88163, Note_on_c, 8, 57, 0
10, 88200, Note_on_c, 8, 45, 50
10, 88212, Note_on_c, 8, 45, 0
10, 88224, Note_on_c, 8, 45, 50
10, 88248, Note_on_c, 8, 45, 0
10, 88272, Note_on_c, 8, 50, 55
10, 88272, Note_on_c, 8, 53, 55
10, 88296, Note_on_c, 8, 53, 0
10, 88296, Note_on_c, 8, 50, 0
10, 88320, Note_on_c, 8, 52, 50
10, 88320, Note_on_c, 8, 55, 50
10, 88344, Note_on_c, 8, 55, 0
10, 88344, Note_on_c, 8, 52, 0
10, 88368, Note_on_c, 8, 53, 50
10, 88368, Note_on_c, 8, 57, 50
10, 88392, Note_on_c, 8, 57, 0
10, 88392, Note_on_c, 8, 53, 0
10, 88416, Note_on_c, 8, 52, 55
10, 88416, Note_on_c, 8, 55, 55
10, 88440, Note_on_c, 8, 55, 0
10, 88440, Note_on_c, 8, 52, 0
10, 88464, Note_on_c, 8, 53, 50
10, 88464, Note_on_c, 8, 57, 50
10, 88488, Note_on_c, 8, 57, 0
10, 88488, Note_on_c, 8, 53, 0
10, 88512, Note_on_c, 8, 55, 50
10, 88512, Note_on_c, 8, 57, 50
10, 88536, Note_on_c, 8, 57, 0
10, 88536, Note_on_c, 8, 55, 0
10, 88560, Note_on_c, 8, 50, 55
10, 88560, Note_on_c, 8, 53, 55
10, 88584, Note_on_c, 8, 53, 0
10, 88584, Note_on_c, 8, 50, 0
10, 88608, Note_on_c, 8, 57, 50
10, 88608, Note_on_c, 8, 65, 50
10, 88632, Note_on_c, 8, 65, 0
10, 88632, Note_on_c, 8, 57, 0
10, 88656, Note_on_c, 8, 57, 50
10, 88656, Note_on_c, 8, 65, 50
10, 88680, Note_on_c, 8, 65, 0
10, 88680, Note_on_c, 8, 57, 0
10, 88704, Note_on_c, 8, 57, 55
10, 88704, Note_on_c, 8, 65, 55
10, 88728, Note_on_c, 8, 65, 0
10, 88728, Note_on_c, 8, 57, 0
10, 88752, Note_on_c, 8, 55, 50
10, 88752, Note_on_c, 8, 64, 50
10, 88776, Note_on_c, 8, 64, 0
10, 88776, Note_on_c, 8, 55, 0
10, 88800, Note_on_c, 8, 53, 50
10, 88800, Note_on_c, 8, 62, 50
10, 88824, Note_on_c, 8, 62, 0
10, 88824, Note_on_c, 8, 53, 0
10, 88848, Note_on_c, 8, 55, 55
10, 88848, Note_on_c, 8, 64, 55
10, 88872, Note_on_c, 8, 64, 0
10, 88872, Note_on_c, 8, 55, 0
10, 88896, Note_on_c, 8, 53, 50
10, 88896, Note_on_c, 8, 62, 50
10, 88920, Note_on_c, 8, 62, 0
10, 88920, Note_on_c, 8, 53, 0
10, 88944, Note_on_c, 8, 52, 50
10, 88944, Note_on_c, 8, 61, 50
10, 88968, Note_on_c, 8, 61, 0
10, 88968, Note_on_c, 8, 52, 0
10, 88992, Note_on_c, 8, 53, 55
10, 88992, Note_on_c, 8, 62, 55
10, 89016, Note_on_c, 8, 62, 0
10, 89016, Note_on_c, 8, 53, 0
10, 89040, Note_on_c, 8, 65, 50
10, 89064, Note_on_c, 8, 65, 0
10, 89088, Note_on_c, 8, 65, 50
10, 89112, Note_on_c, 8, 65, 0
10, 89136, Note_on_c, 8, 65, 55
10, 89160, Note_on_c, 8, 65, 0
10, 89184, Note_on_c, 8, 64, 50
10, 89208, Note_on_c, 8, 64, 0
10, 89232, Note_on_c, 8, 62, 50
10, 89256, Note_on_c, 8, 62, 0
10, 89280, Note_on_c, 8, 64, 55
10, 89304, Note_on_c, 8, 64, 0
10, 89328, Note_on_c, 8, 62, 50
10, 89352, Note_on_c, 8, 62, 0
10, 89376, Note_on_c, 8, 61, 50
10, 89400, Note_on_c, 8, 61, 0
10, 89424, Note_on_c, 8, 62, 55
10, 89448, Note_on_c, 8, 62, 0
10, 89472, Note_on_c, 8, 67, 50
10, 89496, Note_on_c, 8, 67, 0
10, 89520, Note_on_c, 8, 65, 50
10, 89544, Note_on_c, 8, 65, 0
10, 89568, Note_on_c, 8, 65, 55
10, 89592, Note_on_c, 8, 65, 0
10, 89616, Note_on_c, 8, 63, 50
10, 89640, Note_on_c, 8, 63, 0
10, 89664, Note_on_c, 8, 59, 50
10, 89688, Note_on_c, 8, 59, 0
10, 89712, Note_on_c, 8, 60, 55
10, 89736, Note_on_c, 8, 60, 0
10, 89760, Note_on_c, 8, 65, 50
10, 89784, Note_on_c, 8, 65, 0
10, 89808, Note_on_c, 8, 63, 50
10, 89832, Note_on_c, 8, 63, 0
10, 89856, Note_on_c, 8, 65, 55
10, 89880, Note_on_c, 8, 65, 0
10, 89904, Note_on_c, 8, 63, 50
10, 89928, Note_on_c, 8, 63, 0
10, 89952, Note_on_c, 8, 67, 50
10, 89976, Note_on_c, 8, 67, 0
10, 90000, Note_on_c, 8, 67, 60
10, 90035, Note_on_c, 8, 67, 0
10, 90072, Note_on_c, 8, 55, 50
10, 90084, Note_on_c, 8, 55, 0
10, 90096, Note_on_c, 8, 55, 50
10, 90120, Note_on_c, 8, 55, 0
10, 90144, Note_on_c, 8, 58, 55
10, 90168, Note_on_c, 8, 58, 0
10, 90192, Note_on_c, 8, 58, 50
10, 90216, Note_on_c, 8, 58, 0
10, 90240, Note_on_c, 8, 58, 50
10, 90264, Note_on_c, 8, 58, 0
10, 90288, Note_on_c, 8, 58, 55
10, 90312, Note_on_c, 8, 58, 0
10, 90336, Note_on_c, 8, 58, 50
10, 90360, Note_on_c, 8, 58, 0
10, 90384, Note_on_c, 8, 58, 50
10, 90408, Note_on_c, 8, 58, 0
10, 90432, Note_on_c, 8, 58, 55
10, 90456, Note_on_c, 8, 58, 0
10, 90480, Note_on_c, 8, 58, 50
10, 90504, Note_on_c, 8, 58, 0
10, 90528, Note_on_c, 8, 58, 50
10, 90552, Note_on_c, 8, 58, 0
10, 90576, Note_on_c, 8, 58, 55
10, 90600, Note_on_c, 8, 58, 0
10, 90624, Note_on_c, 8, 58, 50
10, 90648, Note_on_c, 8, 58, 0
10, 90672, Note_on_c, 8, 58, 50
10, 90696, Note_on_c, 8, 58, 0
10, 90720, Note_on_c, 8, 58, 55
10, 90744, Note_on_c, 8, 58, 0
10, 90768, Note_on_c, 8, 58, 50
10, 90792, Note_on_c, 8, 58, 0
10, 90816, Note_on_c, 8, 58, 50
10, 90840, Note_on_c, 8, 58, 0
10, 90864, Note_on_c, 8, 58, 55
10, 90888, Note_on_c, 8, 58, 0
10, 90912, Note_on_c, 8, 58, 50
10, 90936, Note_on_c, 8, 58, 0
10, 90960, Note_on_c, 8, 58, 50
10, 90984, Note_on_c, 8, 58, 0
10, 91008, Note_on_c, 8, 58, 50
10, 91032, Note_on_c, 8, 58, 0
10, 91584, Note_on_c, 8, 58, 50
10, 91608, Note_on_c, 8, 58, 0
10, 91728, Note_on_c, 8, 58, 50
10, 91752, Note_on_c, 8, 58, 0
10, 91872, Note_on_c, 8, 58, 50
10, 91896, Note_on_c, 8, 58, 0
10, 92016, Note_on_c, 8, 58, 50
10, 92040, Note_on_c, 8, 58, 0
10, 92160, Note_on_c, 8, 46, 50
10, 92160, Note_on_c, 8, 58, 50
10, 92184, Note_on_c, 8, 58, 0
10, 92184, Note_on_c, 8, 46, 0
10, 92736, Note_on_c, 8, 45, 77
10, 92736, Note_on_c, 8, 57, 77
10, 92760, Note_on_c, 8, 57, 0
10, 92760, Note_on_c, 8, 45, 0
10, 93024, Note_on_c, 8, 45, 90
10, 93024, Note_on_c, 8, 57, 90
10, 93048, Note_on_c, 8, 57, 0
10, 93048, Note_on_c, 8, 45, 0
10, 93312, Note_on_c, 8, 45, 120
10, 93312, Note_on_c, 8, 57, 120
10, 93342, Note_on_c, 8, 57, 0
10, 93342, Note_on_c, 8, 45, 0
10, 93600, Note_on_c, 8, 45, 120
10, 93600, Note_on_c, 8, 57, 120
10, 93630, Note_on_c, 8, 57, 0
10, 93630, Note_on_c, 8, 45, 0
10, 93888, Note_on_c, 8, 38, 125
10, 93923, Note_on_c, 8, 38, 0
10, 93960, Note_on_c, 8, 38, 115
10, 93972, Note_on_c, 8, 38, 0
10, 93984, Note_on_c, 8, 38, 115
10, 94008, Note_on_c, 8, 38, 0
10, 94032, Note_on_c, 8, 38, 125
10, 94067, Note_on_c, 8, 38, 0
10, 94104, Note_on_c, 8, 38, 115
10, 94116, Note_on_c, 8, 38, 0
10, 94128, Note_on_c, 8, 38, 115
10, 94152, Note_on_c, 8, 38, 0
10, 94176, Note_on_c, 8, 38, 125
10, 94211, Note_on_c, 8, 38, 0
10, 94248, Note_on_c, 8, 38, 115
10, 94260, Note_on_c, 8, 38, 0
10, 94272, Note_on_c, 8, 38, 115
10, 94296, Note_on_c, 8, 38, 0
10, 94320, Note_on_c, 8, 38, 125
10, 94355, Note_on_c, 8, 38, 0
10, 94392, Note_on_c, 8, 38, 115
10, 94404, Note_on_c, 8, 38, 0
10, 94416, Note_on_c, 8, 38, 115
10, 94440, Note_on_c, 8, 38, 0
10, 94464, Note_on_c, 8, 38, 125
10, 94499, Note_on_c, 8, 38, 0
10, 94536, Note_on_c, 8, 38, 115
10, 94548, Note_on_c, 8, 38, 0
10, 94560, Note_on_c, 8, 38, 115
10, 94584, Note_on_c, 8, 38, 0
10, 94608, Note_on_c, 8, 38, 125
10, 94643, Note_on_c, 8, 38, 0
10, 94680, Note_on_c, 8, 38, 115
10, 94692, Note_on_c, 8, 38, 0
10, 94704, Note_on_c, 8, 38, 115
10, 94728, Note_on_c, 8, 38, 0
10, 94752, Note_on_c, 8, 38, 125
10, 94787, Note_on_c, 8, 38, 0
10, 94824, Note_on_c, 8, 38, 115
10, 94836, Note_on_c, 8, 38, 0
10, 94848, Note_on_c, 8, 38, 115
10, 94872, Note_on_c, 8, 38, 0
10, 94896, Note_on_c, 8, 38, 125
10, 94931, Note_on_c, 8, 38, 0
10, 94968, Note_on_c, 8, 38, 115
10, 94980, Note_on_c, 8, 38, 0
10, 94992, Note_on_c, 8, 38, 115
10, 95016, Note_on_c, 8, 38, 0
10, 95040, Note_on_c, 8, 38, 125
10, 95075, Note_on_c, 8, 38, 0
10, 95112, Note_on_c, 8, 38, 115
10, 95124, Note_on_c, 8, 38, 0
10, 95136, Note_on_c, 8, 38, 115
10, 95160, Note_on_c, 8, 38, 0
10, 95184, Note_on_c, 8, 38, 125
10, 95219, Note_on_c, 8, 38, 0
10, 95256, Note_on_c, 8, 38, 115
10, 95268, Note_on_c, 8, 38, 0
10, 95280, Note_on_c, 8, 38, 115
10, 95304, Note_on_c, 8, 38, 0
10, 95328, Note_on_c, 8, 38, 125
10, 95363, Note_on_c, 8, 38, 0
10, 95400, Note_on_c, 8, 38, 115
10, 95412, Note_on_c, 8, 38, 0
10, 95424, Note_on_c, 8, 38, 115
10, 95448, Note_on_c, 8, 38, 0
10, 95472, Note_on_c, 8, 38, 125
10, 95507, Note_on_c, 8, 38, 0
10, 95544, Note_on_c, 8, 38, 115
10, 95556, Note_on_c, 8, 38, 0
10, 95568, Note_on_c, 8, 38, 115
10, 95592, Note_on_c, 8, 38, 0
10, 95616, Note_on_c, 8, 38, 125
10, 95651, Note_on_c, 8, 38, 0
10, 95688, Note_on_c, 8, 38, 115
10, 95700, Note_on_c, 8, 38, 0
10, 95712, Note_on_c, 8, 38, 115
10, 95736, Note_on_c, 8, 38, 0
10, 95760, Note_on_c, 8, 38, 125
10, 95795, Note_on_c, 8, 38, 0
10, 95832, Note_on_c, 8, 38, 115
10, 95844, Note_on_c, 8, 38, 0
10, 95856, Note_on_c, 8, 38, 115
10, 95880, Note_on_c, 8, 38, 0
10, 95904, Note_on_c, 8, 38, 125
10, 95939, Note_on_c, 8, 38, 0
10, 95976, Note_on_c, 8, 38, 115
10, 95988, Note_on_c, 8, 38, 0
10, 96000, Note_on_c, 8, 38, 115
10, 96024, Note_on_c, 8, 38, 0
10, 96048, Note_on_c, 8, 38, 125
10, 96083, Note_on_c, 8, 38, 0
10, 96120, Note_on_c, 8, 38, 115
10, 96132, Note_on_c, 8, 38, 0
10, 96144, Note_on_c, 8, 38, 115
10, 96168, Note_on_c, 8, 38, 0
10, 96192, Note_on_c, 8, 51, 120
10, 96192, Note_on_c, 8, 63, 120
10, 96216, Note_on_c, 8, 63, 0
10, 96216, Note_on_c, 8, 51, 0
10, 96240, Note_on_c, 8, 50, 115
10, 96240, Note_on_c, 8, 62, 115
10, 96264, Note_on_c, 8, 62, 0
10, 96264, Note_on_c, 8, 50, 0
10, 96288, Note_on_c, 8, 48, 115
10, 96288, Note_on_c, 8, 60, 115
10, 96312, Note_on_c, 8, 60, 0
10, 96312, Note_on_c, 8, 48, 0
10, 96336, Note_on_c, 8, 46, 120
10, 96336, Note_on_c, 8, 58, 120
10, 96360, Note_on_c, 8, 58, 0
10, 96360, Note_on_c, 8, 46, 0
10, 96384, Note_on_c, 8, 45, 115
10, 96384, Note_on_c, 8, 57, 115
10, 96408, Note_on_c, 8, 57, 0
10, 96408, Note_on_c, 8, 45, 0
10, 96432, Note_on_c, 8, 43, 115
10, 96432, Note_on_c, 8, 55, 115
10, 96456, Note_on_c, 8, 55, 0
10, 96456, Note_on_c, 8, 43, 0
10, 96480, Note_on_c, 8, 42, 120
10, 96480, Note_on_c, 8, 54, 120
10, 96504, Note_on_c, 8, 54, 0
10, 96504, Note_on_c, 8, 42, 0
10, 96528, Note_on_c, 8, 43, 115
10, 96528, Note_on_c, 8, 55, 115
10, 96552, Note_on_c, 8, 55, 0
10, 96552, Note_on_c, 8, 43, 0
10, 96576, Note_on_c, 8, 45, 115
10, 96576, Note_on_c, 8, 57, 115
10, 96600, Note_on_c, 8, 57, 0
10, 96600, Note_on_c, 8, 45, 0
10, 96624, Note_on_c, 8, 43, 120
10, 96624, Note_on_c, 8, 55, 120
10, 96648, Note_on_c, 8, 55, 0
10, 96648, Note_on_c, 8, 43, 0
10, 96672, Note_on_c, 8, 45, 115
10, 96672, Note_on_c, 8, 57, 115
10, 96696, Note_on_c, 8, 57, 0
10, 96696, Note_on_c, 8, 45, 0
10, 96720, Note_on_c, 8, 46, 115
10, 96720, Note_on_c, 8, 58, 115
10, 96744, Note_on_c, 8, 58, 0
10, 96744, Note_on_c, 8, 46, 0
10, 96768, Note_on_c, 8, 51, 105
10, 96768, Note_on_c, 8, 63, 105
10, 96792, Note_on_c, 8, 63, 0
10, 96792, Note_on_c, 8, 51, 0
10, 96816, Note_on_c, 8, 50, 100
10, 96816, Note_on_c, 8, 62, 100
10, 96840, Note_on_c, 8, 62, 0
10, 96840, Note_on_c, 8, 50, 0
10, 96864, Note_on_c, 8, 48, 100
10, 96864, Note_on_c, 8, 60, 100
10, 96888, Note_on_c, 8, 60, 0
10, 96888, Note_on_c, 8, 48, 0
10, 96912, Note_on_c, 8, 46, 105
10, 96912, Note_on_c, 8, 58, 105
10, 96936, Note_on_c, 8, 58, 0
10, 96936, Note_on_c, 8, 46, 0
10, 96960, Note_on_c, 8, 45, 100
10, 96960, Note_on_c, 8, 57, 100
10, 96984, Note_on_c, 8, 57, 0
10, 96984, Note_on_c, 8, 45, 0
10, 97008, Note_on_c, 8, 43, 100
10, 97008, Note_on_c, 8, 55, 100
10, 97032, Note_on_c, 8, 55, 0
10, 97032, Note_on_c, 8, 43, 0
10, 97056, Note_on_c, 8, 53, 105
10, 97056, Note_on_c, 8, 65, 105
10, 97080, Note_on_c, 8, 65, 0
10, 97080, Note_on_c, 8, 53, 0
10, 97104, Note_on_c, 8, 51, 100
10, 97104, Note_on_c, 8, 63, 100
10, 97128, Note_on_c, 8, 63, 0
10, 97128, Note_on_c, 8, 51, 0
10, 97152, Note_on_c, 8, 50, 100
10, 97152, Note_on_c, 8, 62, 100
10, 97176, Note_on_c, 8, 62, 0
10, 97176, Note_on_c, 8, 50, 0
10, 97200, Note_on_c, 8, 48, 105
10, 97200, Note_on_c, 8, 60, 105
10, 97224, Note_on_c, 8, 60, 0
10, 97224, Note_on_c, 8, 48, 0
10, 97248, Note_on_c, 8, 46, 100
10, 97248, Note_on_c, 8, 58, 100
10, 97272, Note_on_c, 8, 58, 0
10, 97272, Note_on_c, 8, 46, 0
10, 97296, Note_on_c, 8, 45, 100
10, 97296, Note_on_c, 8, 57, 100
10, 97320, Note_on_c, 8, 57, 0
10, 97320, Note_on_c, 8, 45, 0
10, 97344, Note_on_c, 8, 45, 105
10, 97368, Note_on_c, 8, 45, 0
10, 97392, Note_on_c, 8, 46, 100
10, 97416, Note_on_c, 8, 46, 0
10, 97440, Note_on_c, 8, 48, 100
10, 97464, Note_on_c, 8, 48, 0
10, 97488, Note_on_c, 8, 50, 105
10, 97512, Note_on_c, 8, 50, 0
10, 97536, Note_on_c, 8, 51, 100
10, 97560, Note_on_c, 8, 51, 0
10, 97584, Note_on_c, 8, 53, 100
10, 97608, Note_on_c, 8, 53, 0
10, 97632, Note_on_c, 8, 55, 105
10, 97656, Note_on_c, 8, 55, 0
10, 97680, Note_on_c, 8, 57, 100
10, 97704, Note_on_c, 8, 57, 0
10, 97728, Note_on_c, 8, 58, 100
10, 97752, Note_on_c, 8, 58, 0
10, 97776, Note_on_c, 8, 60, 105
10, 97800, Note_on_c, 8, 60, 0
10, 97824, Note_on_c, 8, 62, 100
10, 97848, Note_on_c, 8, 62, 0
10, 97872, Note_on_c, 8, 63, 100
10, 97896, Note_on_c, 8, 63, 0
10, 97920, Control_c, 8, 1, 0
10, 97920, Note_on_c, 8, 65, 100
10, 97921, Control_c, 8, 1, 1
10, 97922, Control_c, 8, 1, 2
10, 97923, Control_c, 8, 1, 3
10, 97924, Control_c, 8, 1, 4
10, 97926, Control_c, 8, 1, 5
10, 97927, Control_c, 8, 1, 6
10, 97929, Control_c, 8, 1, 7
10, 97931, Control_c, 8, 1, 8
10, 97932, Control_c, 8, 1, 9
10, 97934, Control_c, 8, 1, 10
10, 97937, Control_c, 8, 1, 11
10, 97939, Control_c, 8, 1, 12
10, 97942, Control_c, 8, 1, 13
10, 97944, Control_c, 8, 11, 60
10, 97945, Control_c, 8, 1, 14
10, 97948, Control_c, 8, 1, 15
10, 97952, Control_c, 8, 1, 16
10, 97957, Control_c, 8, 1, 17
10, 97963, Control_c, 8, 1, 18
10, 97970, Control_c, 8, 1, 19
10, 97980, Control_c, 8, 1, 20
10, 97997, Control_c, 8, 1, 21
10, 98208, Control_c, 8, 11, 60
10, 98228, Control_c, 8, 11, 61
10, 98247, Control_c, 8, 11, 62
10, 98266, Control_c, 8, 11, 63
10, 98285, Control_c, 8, 11, 64
10, 98304, Control_c, 8, 11, 65
10, 98323, Control_c, 8, 11, 66
10, 98343, Control_c, 8, 11, 67
10, 98352, Note_on_c, 8, 63, 100
10, 98353, Note_on_c, 8, 65, 0
10, 98362, Control_c, 8, 11, 68
10, 98381, Control_c, 8, 11, 69
10, 98400, Control_c, 8, 11, 70
10, 98419, Control_c, 8, 11, 71
10, 98438, Control_c, 8, 11, 72
10, 98458, Control_c, 8, 11, 73
10, 98477, Control_c, 8, 11, 74
10, 98496, Control_c, 8, 11, 75
10, 98515, Control_c, 8, 11, 76
10, 98534, Control_c, 8, 11, 77
10, 98553, Control_c, 8, 11, 78
10, 98573, Control_c, 8, 11, 79
10, 98592, Control_c, 8, 11, 80
10, 98611, Control_c, 8, 11, 81
10, 98630, Control_c, 8, 11, 82
10, 98640, Note_on_c, 8, 62, 100
10, 98641, Note_on_c, 8, 63, 0
10, 98649, Control_c, 8, 11, 83
10, 98668, Control_c, 8, 11, 84
10, 98688, Control_c, 8, 11, 85
10, 98707, Control_c, 8, 11, 86
10, 98726, Control_c, 8, 11, 87
10, 98745, Control_c, 8, 11, 88
10, 98764, Control_c, 8, 11, 89
10, 98783, Control_c, 8, 11, 90
10, 98784, Control_c, 8, 11, 90
10, 98784, Note_on_c, 8, 61, 100
10, 98785, Note_on_c, 8, 62, 0
10, 98794, Control_c, 8, 11, 89
10, 98804, Control_c, 8, 11, 88
10, 98813, Control_c, 8, 11, 87
10, 98823, Control_c, 8, 11, 86
10, 98832, Control_c, 8, 11, 85
10, 98842, Control_c, 8, 11, 84
10, 98851, Control_c, 8, 11, 83
10, 98861, Control_c, 8, 11, 82
10, 98871, Control_c, 8, 11, 81
10, 98880, Control_c, 8, 11, 80
10, 98890, Control_c, 8, 11, 79
10, 98899, Control_c, 8, 11, 78
10, 98909, Control_c, 8, 11, 77
10, 98918, Control_c, 8, 11, 76
10, 98928, Note_on_c, 8, 60, 100
10, 98928, Control_c, 8, 11, 75
10, 98929, Note_on_c, 8, 61, 0
10, 98938, Control_c, 8, 11, 74
10, 98947, Control_c, 8, 11, 73
10, 98957, Control_c, 8, 11, 72
10, 98966, Control_c, 8, 11, 71
10, 98976, Control_c, 8, 11, 70
10, 98985, Control_c, 8, 11, 69
10, 98995, Control_c, 8, 11, 68
10, 99005, Control_c, 8, 11, 67
10, 99014, Control_c, 8, 11, 66
10, 99024, Control_c, 8, 11, 65
10, 99033, Control_c, 8, 11, 64
10, 99043, Control_c, 8, 11, 63
10, 99052, Control_c, 8, 11, 62
10, 99062, Control_c, 8, 11, 61
10, 99071, Control_c, 8, 11, 60
10, 99072, Control_c, 8, 1, 0
10, 99072, Note_on_c, 8, 46, 100
10, 99072, Note_on_c, 8, 58, 100
10, 99073, Note_on_c, 8, 60, 0
10, 99073, Control_c, 8, 1, 1
10, 99074, Control_c, 8, 1, 2
10, 99075, Control_c, 8, 1, 3
10, 99076, Control_c, 8, 1, 4
10, 99078, Control_c, 8, 1, 5
10, 99079, Control_c, 8, 1, 6
10, 99081, Control_c, 8, 1, 7
10, 99083, Control_c, 8, 1, 8
10, 99084, Control_c, 8, 1, 9
10, 99086, Control_c, 8, 1, 10
10, 99089, Control_c, 8, 1, 11
10, 99091, Control_c, 8, 1, 12
10, 99094, Control_c, 8, 1, 13
10, 99097, Control_c, 8, 1, 14
10, 99100, Control_c, 8, 1, 15
10, 99104, Control_c, 8, 1, 16
10, 99109, Control_c, 8, 1, 17
10, 99115, Control_c, 8, 1, 18
10, 99122, Control_c, 8, 1, 19
10, 99132, Control_c, 8, 1, 20
10, 99149, Control_c, 8, 1, 21
10, 99360, Note_on_c, 8, 57, 100
10, 99361, Note_on_c, 8, 58, 0
10, 99361, Note_on_c, 8, 46, 0
10, 99504, Control_c, 8, 11, 60
10, 99519, Control_c, 8, 11, 61
10, 99533, Control_c, 8, 11, 62
10, 99548, Control_c, 8, 11, 63
10, 99562, Control_c, 8, 11, 64
10, 99576, Control_c, 8, 11, 65
10, 99591, Control_c, 8, 11, 66
10, 99605, Control_c, 8, 11, 67
10, 99619, Control_c, 8, 11, 68
10, 99634, Control_c, 8, 11, 69
10, 99648, Note_on_c, 8, 59, 100
10, 99648, Control_c, 8, 11, 70
10, 99663, Control_c, 8, 11, 71
10, 99677, Control_c, 8, 11, 72
10, 99691, Control_c, 8, 11, 73
10, 99706, Control_c, 8, 11, 74
10, 99720, Control_c, 8, 11, 75
10, 99734, Control_c, 8, 11, 76
10, 99749, Control_c, 8, 11, 77
10, 99763, Control_c, 8, 11, 78
10, 99778, Control_c, 8, 11, 79
10, 99792, Note_on_c, 8, 55, 100
10, 99792, Control_c, 8, 11, 80
10, 99793, Note_on_c, 8, 57, 0
10, 99806, Control_c, 8, 11, 81
10, 99821, Control_c, 8, 11, 82
10, 99835, Control_c, 8, 11, 83
10, 99849, Control_c, 8, 11, 84
10, 99864, Control_c, 8, 11, 85
10, 99878, Control_c, 8, 11, 86
10, 99893, Control_c, 8, 11, 87
10, 99907, Control_c, 8, 11, 88
10, 99921, Control_c, 8, 11, 89
10, 99936, Note_on_c, 8, 58, 100
10, 99936, Control_c, 8, 11, 90
10, 99937, Note_on_c, 8, 59, 0
10, 99950, Control_c, 8, 11, 91
10, 99964, Control_c, 8, 11, 92
10, 99979, Control_c, 8, 11, 93
10, 99993, Control_c, 8, 11, 94
10, 100008, Control_c, 8, 11, 95
10, 100022, Control_c, 8, 11, 96
10, 100036, Control_c, 8, 11, 97
10, 100051, Control_c, 8, 11, 98
10, 100065, Control_c, 8, 11, 99
10, 100079, Control_c, 8, 11, 100
10, 100080, Control_c, 8, 11, 100
10, 100080, Note_on_c, 8, 54, 100
10, 100080, Note_on_c, 8, 57, 100
10, 100081, Note_on_c, 8, 58, 0
10, 100081, Note_on_c, 8, 55, 0
10, 100091, Control_c, 8, 11, 99
10, 100102, Control_c, 8, 11, 98
10, 100113, Control_c, 8, 11, 97
10, 100124, Control_c, 8, 11, 96
10, 100134, Control_c, 8, 11, 95
10, 100145, Control_c, 8, 11, 94
10, 100156, Control_c, 8, 11, 93
10, 100167, Control_c, 8, 11, 92
10, 100177, Control_c, 8, 11, 91
10, 100188, Control_c, 8, 11, 90
10, 100199, Control_c, 8, 11, 89
10, 100210, Control_c, 8, 11, 88
10, 100221, Control_c, 8, 11, 87
10, 100224, Note_on_c, 8, 53, 100
10, 100225, Note_on_c, 8, 54, 0
10, 100231, Control_c, 8, 11, 86
10, 100242, Control_c, 8, 11, 85
10, 100253, Control_c, 8, 11, 84
10, 100264, Control_c, 8, 11, 83
10, 100274, Control_c, 8, 11, 82
10, 100285, Control_c, 8, 11, 81
10, 100296, Control_c, 8, 11, 80
10, 100307, Control_c, 8, 11, 79
10, 100318, Control_c, 8, 11, 78
10, 100328, Control_c, 8, 11, 77
10, 100339, Control_c, 8, 11, 76
10, 100350, Control_c, 8, 11, 75
10, 100361, Control_c, 8, 11, 74
10, 100368, Note_on_c, 8, 52, 100
10, 100369, Note_on_c, 8, 53, 0
10, 100371, Control_c, 8, 11, 73
10, 100382, Control_c, 8, 11, 72
10, 100393, Control_c, 8, 11, 71
10, 100404, Control_c, 8, 11, 70
10, 100415, Control_c, 8, 11, 69
10, 100425, Control_c, 8, 11, 68
10, 100436, Control_c, 8, 11, 67
10, 100447, Control_c, 8, 11, 66
10, 100458, Control_c, 8, 11, 65
10, 100468, Control_c, 8, 11, 64
10, 100479, Control_c, 8, 11, 63
10, 100490, Control_c, 8, 11, 62
10, 100501, Control_c, 8, 11, 61
10, 100511, Control_c, 8, 11, 60
10, 100512, Note_on_c, 8, 57, 0
10, 100512, Note_on_c, 8, 52, 0
10, 100800, Control_c, 8, 1, 0
10, 100800, Control_c, 8, 11, 60
10, 100800, Note_on_c, 8, 58, 100
10, 100801, Control_c, 8, 1, 1
10, 100802, Control_c, 8, 1, 2
10, 100803, Control_c, 8, 1, 3
10, 100804, Control_c, 8, 1, 4
10, 100806, Control_c, 8, 1, 5
10, 100807, Control_c, 8, 1, 6
10, 100809, Control_c, 8, 1, 7
10, 100811, Control_c, 8, 11, 61
10, 100811, Control_c, 8, 1, 8
10, 100812, Control_c, 8, 1, 9
10, 100814, Control_c, 8, 1, 10
10, 100817, Control_c, 8, 1, 11
10, 100819, Control_c, 8, 1, 12
10, 100822, Control_c, 8, 11, 62
10, 100822, Control_c, 8, 1, 13
10, 100825, Control_c, 8, 1, 14
10, 100828, Control_c, 8, 1, 15
10, 100832, Control_c, 8, 1, 16
10, 100833, Control_c, 8, 11, 63
10, 100837, Control_c, 8, 1, 17
10, 100843, Control_c, 8, 1, 18
10, 100844, Control_c, 8, 11, 64
10, 100850, Control_c, 8, 1, 19
10, 100854, Control_c, 8, 11, 65
10, 100860, Control_c, 8, 1, 20
10, 100865, Control_c, 8, 11, 66
10, 100876, Control_c, 8, 11, 67
10, 100877, Control_c, 8, 1, 21
10, 100887, Control_c, 8, 11, 68
10, 100897, Control_c, 8, 11, 69
10, 100908, Control_c, 8, 11, 70
10, 100919, Control_c, 8, 11, 71
10, 100930, Control_c, 8, 11, 72
10, 100941, Control_c, 8, 11, 73
10, 100944, Note_on_c, 8, 64, 100
10, 100951, Control_c, 8, 11, 74
10, 100962, Control_c, 8, 11, 75
10, 100973, Control_c, 8, 11, 76
10, 100984, Control_c, 8, 11, 77
10, 100994, Control_c, 8, 11, 78
10, 101005, Control_c, 8, 11, 79
10, 101016, Control_c, 8, 11, 80
10, 101027, Control_c, 8, 11, 81
10, 101038, Control_c, 8, 11, 82
10, 101048, Control_c, 8, 11, 83
10, 101059, Control_c, 8, 11, 84
10, 101070, Control_c, 8, 11, 85
10, 101081, Control_c, 8, 11, 86
10, 101088, Note_on_c, 8, 57, 100
10, 101089, Note_on_c, 8, 58, 0
10, 101091, Control_c, 8, 11, 87
10, 101102, Control_c, 8, 11, 88
10, 101113, Control_c, 8, 11, 89
10, 101124, Control_c, 8, 11, 90
10, 101135, Control_c, 8, 11, 91
10, 101145, Control_c, 8, 11, 92
10, 101156, Control_c, 8, 11, 93
10, 101167, Control_c, 8, 11, 94
10, 101178, Control_c, 8, 11, 95
10, 101188, Control_c, 8, 11, 96
10, 101199, Control_c, 8, 11, 97
10, 101210, Control_c, 8, 11, 98
10, 101221, Control_c, 8, 11, 99
10, 101231, Control_c, 8, 11, 100
10, 101232, Control_c, 8, 11, 100
10, 101232, Note_on_c, 8, 62, 100
10, 101233, Note_on_c, 8, 64, 0
10, 101243, Control_c, 8, 11, 99
10, 101254, Control_c, 8, 11, 98
10, 101265, Control_c, 8, 11, 97
10, 101276, Control_c, 8, 11, 96
10, 101286, Control_c, 8, 11, 95
10, 101297, Control_c, 8, 11, 94
10, 101308, Control_c, 8, 11, 93
10, 101319, Control_c, 8, 11, 92
10, 101329, Control_c, 8, 11, 91
10, 101340, Control_c, 8, 11, 90
10, 101351, Control_c, 8, 11, 89
10, 101362, Control_c, 8, 11, 88
10, 101373, Control_c, 8, 11, 87
10, 101376, Note_on_c, 8, 56, 100
10, 101377, Note_on_c, 8, 57, 0
10, 101383, Control_c, 8, 11, 86
10, 101394, Control_c, 8, 11, 85
10, 101405, Control_c, 8, 11, 84
10, 101416, Control_c, 8, 11, 83
10, 101426, Control_c, 8, 11, 82
10, 101437, Control_c, 8, 11, 81
10, 101448, Control_c, 8, 11, 80
10, 101459, Control_c, 8, 11, 79
10, 101470, Control_c, 8, 11, 78
10, 101480, Control_c, 8, 11, 77
10, 101491, Control_c, 8, 11, 76
10, 101502, Control_c, 8, 11, 75
10, 101513, Control_c, 8, 11, 74
10, 101520, Note_on_c, 8, 55, 100
10, 101520, Note_on_c, 8, 61, 100
10, 101521, Note_on_c, 8, 62, 0
10, 101521, Note_on_c, 8, 56, 0
10, 101523, Control_c, 8, 11, 73
10, 101534, Control_c, 8, 11, 72
10, 101545, Control_c, 8, 11, 71
10, 101556, Control_c, 8, 11, 70
10, 101567, Control_c, 8, 11, 69
10, 101577, Control_c, 8, 11, 68
10, 101588, Control_c, 8, 11, 67
10, 101599, Control_c, 8, 11, 66
10, 101610, Control_c, 8, 11, 65
10, 101620, Control_c, 8, 11, 64
10, 101631, Control_c, 8, 11, 63
10, 101642, Control_c, 8, 11, 62
10, 101653, Control_c, 8, 11, 61
10, 101663, Control_c, 8, 11, 60
10, 101664, Note_on_c, 8, 61, 0
10, 101664, Note_on_c, 8, 55, 0
10, 101664, Control_c, 8, 1, 1
10, 101664, Control_c, 8, 11, 60
10, 101664, Note_on_c, 8, 45, 100
10, 101664, Note_on_c, 8, 57, 100
10, 101665, Control_c, 8, 1, 2
10, 101666, Control_c, 8, 1, 3
10, 101667, Control_c, 8, 1, 4
10, 101668, Control_c, 8, 1, 5
10, 101670, Control_c, 8, 1, 6
10, 101672, Control_c, 8, 1, 7
10, 101673, Control_c, 8, 1, 8
10, 101675, Control_c, 8, 1, 9
10, 101677, Control_c, 8, 1, 10
10, 101680, Control_c, 8, 1, 11
10, 101682, Control_c, 8, 1, 12
10, 101684, Control_c, 8, 11, 61
10, 101685, Control_c, 8, 1, 13
10, 101688, Control_c, 8, 1, 14
10, 101691, Control_c, 8, 1, 15
10, 101695, Control_c, 8, 1, 16
10, 101700, Control_c, 8, 1, 17
10, 101703, Control_c, 8, 11, 62
10, 101705, Control_c, 8, 1, 18
10, 101713, Control_c, 8, 1, 19
10, 101722, Control_c, 8, 11, 63
10, 101723, Control_c, 8, 1, 20
10, 101741, Control_c, 8, 11, 64
10, 101741, Control_c, 8, 1, 21
10, 101760, Control_c, 8, 11, 65
10, 101780, Control_c, 8, 11, 66
10, 101799, Control_c, 8, 11, 67
10, 101818, Control_c, 8, 11, 68
10, 101837, Control_c, 8, 11, 69
10, 101856, Control_c, 8, 11, 70
10, 101876, Control_c, 8, 11, 71
10, 101895, Control_c, 8, 11, 72
10, 101914, Control_c, 8, 11, 73
10, 101933, Control_c, 8, 11, 74
10, 101952, Control_c, 8, 11, 75
10, 101971, Control_c, 8, 11, 76
10, 101991, Control_c, 8, 11, 77
10, 102010, Control_c, 8, 11, 78
10, 102029, Control_c, 8, 11, 79
10, 102048, Control_c, 8, 11, 80
10, 102067, Control_c, 8, 11, 81
10, 102087, Control_c, 8, 11, 82
10, 102096, Note_on_c, 8, 43, 100
10, 102096, Note_on_c, 8, 55, 100
10, 102097, Note_on_c, 8, 57, 0
10, 102097, Note_on_c, 8, 45, 0
10, 102106, Control_c, 8, 11, 83
10, 102125, Control_c, 8, 11, 84
10, 102144, Control_c, 8, 11, 85
10, 102163, Control_c, 8, 11, 86
10, 102182, Control_c, 8, 11, 87
10, 102202, Control_c, 8, 11, 88
10, 102221, Control_c, 8, 11, 89
10, 102240, Control_c, 8, 11, 90
10, 102259, Control_c, 8, 11, 91
10, 102278, Control_c, 8, 11, 92
10, 102298, Control_c, 8, 11, 93
10, 102317, Control_c, 8, 11, 94
10, 102336, Control_c, 8, 11, 95
10, 102355, Control_c, 8, 11, 96
10, 102374, Control_c, 8, 11, 97
10, 102384, Note_on_c, 8, 42, 100
10, 102384, Note_on_c, 8, 54, 100
10, 102385, Note_on_c, 8, 55, 0
10, 102385, Note_on_c, 8, 43, 0
10, 102393, Control_c, 8, 11, 98
10, 102413, Control_c, 8, 11, 99
10, 102432, Control_c, 8, 11, 100
10, 102451, Control_c, 8, 11, 101
10, 102470, Control_c, 8, 11, 102
10, 102489, Control_c, 8, 11, 103
10, 102509, Control_c, 8, 11, 104
10, 102528, Note_on_c, 8, 41, 100
10, 102528, Note_on_c, 8, 53, 100
10, 102528, Control_c, 8, 11, 105
10, 102529, Note_on_c, 8, 54, 0
10, 102529, Note_on_c, 8, 42, 0
10, 102547, Control_c, 8, 11, 106
10, 102566, Control_c, 8, 11, 107
10, 102585, Control_c, 8, 11, 108
10, 102604, Control_c, 8, 11, 109
10, 102624, Control_c, 8, 11, 110
10, 102643, Control_c, 8, 11, 111
10, 102662, Control_c, 8, 11, 112
10, 102672, Note_on_c, 8, 40, 100
10, 102672, Note_on_c, 8, 52, 100
10, 102673, Note_on_c, 8, 53, 0
10, 102673, Note_on_c, 8, 41, 0
10, 102681, Control_c, 8, 11, 113
10, 102700, Control_c, 8, 11, 114
10, 102720, Control_c, 8, 11, 115
10, 102739, Control_c, 8, 11, 116
10, 102758, Control_c, 8, 11, 117
10, 102777, Control_c, 8, 11, 118
10, 102796, Control_c, 8, 11, 119
10, 102815, Control_c, 8, 11, 120
10, 102816, Note_on_c, 8, 52, 0
10, 102816, Note_on_c, 8, 40, 0
10, 102816, Control_c, 8, 1, 0
10, 102816, Note_on_c, 8, 50, 113
10, 102912, Note_on_c, 8, 50, 0
10, 102912, Note_on_c, 8, 52, 111
10, 102936, Note_on_c, 8, 52, 0
10, 102936, Note_on_c, 8, 54, 112
10, 102960, Note_on_c, 8, 54, 0
10, 102960, Note_on_c, 8, 55, 113
10, 102984, Note_on_c, 8, 55, 0
10, 103056, Note_on_c, 8, 54, 110
10, 103080, Note_on_c, 8, 54, 0
10, 103104, Note_on_c, 8, 52, 113
10, 103128, Note_on_c, 8, 52, 0
10, 103200, Note_on_c, 8, 50, 110
10, 103224, Note_on_c, 8, 50, 0
10, 103248, Note_on_c, 8, 52, 113
10, 103272, Note_on_c, 8, 52, 0
10, 103344, Note_on_c, 8, 49, 110
10, 103368, Note_on_c, 8, 49, 0
10, 103392, Note_on_c, 8, 50, 113
10, 103392, Note_on_c, 8, 54, 113
10, 103488, Note_on_c, 8, 54, 0
10, 103488, Note_on_c, 8, 50, 0
10, 103488, Note_on_c, 8, 52, 111
10, 103488, Note_on_c, 8, 55, 111
10, 103512, Note_on_c, 8, 55, 0
10, 103512, Note_on_c, 8, 52, 0
10, 103512, Note_on_c, 8, 54, 112
10, 103512, Note_on_c, 8, 57, 112
10, 103536, Note_on_c, 8, 57, 0
10, 103536, Note_on_c, 8, 54, 0
10, 103536, Note_on_c, 8, 55, 113
10, 103536, Note_on_c, 8, 59, 113
10, 103560, Note_on_c, 8, 59, 0
10, 103560, Note_on_c, 8, 55, 0
10, 103632, Note_on_c, 8, 54, 110
10, 103632, Note_on_c, 8, 57, 110
10, 103656, Note_on_c, 8, 57, 0
10, 103656, Note_on_c, 8, 54, 0
10, 103680, Note_on_c, 8, 52, 113
10, 103680, Note_on_c, 8, 55, 113
10, 103704, Note_on_c, 8, 55, 0
10, 103704, Note_on_c, 8, 52, 0
10, 103776, Note_on_c, 8, 50, 110
10, 103776, Note_on_c, 8, 54, 110
10, 103800, Note_on_c, 8, 54, 0
10, 103800, Note_on_c, 8, 50, 0
10, 103824, Note_on_c, 8, 52, 113
10, 103824, Note_on_c, 8, 55, 113
10, 103848, Note_on_c, 8, 55, 0
10, 103848, Note_on_c, 8, 52, 0
10, 103920, Note_on_c, 8, 49, 110
10, 103920, Note_on_c, 8, 52, 110
10, 103944, Note_on_c, 8, 52, 0
10, 103944, Note_on_c, 8, 49, 0
10, 103968, Note_on_c, 8, 50, 113
10, 103992, Note_on_c, 8, 50, 0
10, 104016, Note_on_c, 8, 53, 110
10, 104016, Note_on_c, 8, 62, 110
10, 104064, Note_on_c, 8, 62, 0
10, 104064, Note_on_c, 8, 53, 0
10, 104064, Note_on_c, 8, 55, 111
10, 104064, Note_on_c, 8, 64, 111
10, 104088, Note_on_c, 8, 64, 0
10, 104088, Note_on_c, 8, 55, 0
10, 104088, Note_on_c, 8, 57, 112
10, 104088, Note_on_c, 8, 65, 112
10, 104112, Note_on_c, 8, 65, 0
10, 104112, Note_on_c, 8, 57, 0
10, 104112, Note_on_c, 8, 58, 113
10, 104112, Note_on_c, 8, 67, 113
10, 104136, Note_on_c, 8, 67, 0
10, 104136, Note_on_c, 8, 58, 0
10, 104160, Note_on_c, 8, 58, 110
10, 104160, Note_on_c, 8, 67, 110
10, 104184, Note_on_c, 8, 67, 0
10, 104184, Note_on_c, 8, 58, 0
10, 104208, Note_on_c, 8, 57, 110
10, 104208, Note_on_c, 8, 65, 110
10, 104232, Note_on_c, 8, 65, 0
10, 104232, Note_on_c, 8, 57, 0
10, 104256, Note_on_c, 8, 55, 113
10, 104256, Note_on_c, 8, 64, 113
10, 104280, Note_on_c, 8, 64, 0
10, 104280, Note_on_c, 8, 55, 0
10, 104304, Note_on_c, 8, 55, 110
10, 104304, Note_on_c, 8, 64, 110
10, 104328, Note_on_c, 8, 64, 0
10, 104328, Note_on_c, 8, 55, 0
10, 104352, Note_on_c, 8, 53, 110
10, 104352, Note_on_c, 8, 62, 110
10, 104376, Note_on_c, 8, 62, 0
10, 104376, Note_on_c, 8, 53, 0
10, 104400, Note_on_c, 8, 55, 113
10, 104400, Note_on_c, 8, 64, 113
10, 104424, Note_on_c, 8, 64, 0
10, 104424, Note_on_c, 8, 55, 0
10, 104448, Note_on_c, 8, 55, 110
10, 104448, Note_on_c, 8, 64, 110
10, 104472, Note_on_c, 8, 64, 0
10, 104472, Note_on_c, 8, 55, 0
10, 104496, Note_on_c, 8, 52, 110
10, 104496, Note_on_c, 8, 61, 110
10, 104520, Note_on_c, 8, 61, 0
10, 104520, Note_on_c, 8, 52, 0
10, 104544, Note_on_c, 8, 62, 113
10, 104544, Note_on_c, 8, 65, 113
10, 104568, Note_on_c, 8, 65, 0
10, 104568, Note_on_c, 8, 62, 0
10, 104592, Note_on_c, 8, 50, 110
10, 104592, Note_on_c, 8, 53, 110
10, 104640, Note_on_c, 8, 53, 0
10, 104640, Note_on_c, 8, 50, 0
10, 104640, Note_on_c, 8, 52, 111
10, 104640, Note_on_c, 8, 55, 111
10, 104664, Note_on_c, 8, 55, 0
10, 104664, Note_on_c, 8, 52, 0
10, 104664, Note_on_c, 8, 53, 112
10, 104664, Note_on_c, 8, 57, 112
10, 104688, Note_on_c, 8, 57, 0
10, 104688, Note_on_c, 8, 53, 0
10, 104688, Note_on_c, 8, 55, 113
10, 104688, Note_on_c, 8, 58, 113
10, 104712, Note_on_c, 8, 58, 0
10, 104712, Note_on_c, 8, 55, 0
10, 104736, Note_on_c, 8, 55, 110
10, 104736, Note_on_c, 8, 58, 110
10, 104760, Note_on_c, 8, 58, 0
10, 104760, Note_on_c, 8, 55, 0
10, 104784, Note_on_c, 8, 53, 110
10, 104784, Note_on_c, 8, 57, 110
10, 104808, Note_on_c, 8, 57, 0
10, 104808, Note_on_c, 8, 53, 0
10, 104832, Note_on_c, 8, 52, 113
10, 104832, Note_on_c, 8, 55, 113
10, 104856, Note_on_c, 8, 55, 0
10, 104856, Note_on_c, 8, 52, 0
10, 104880, Note_on_c, 8, 52, 110
10, 104880, Note_on_c, 8, 55, 110
10, 104904, Note_on_c, 8, 55, 0
10, 104904, Note_on_c, 8, 52, 0
10, 104928, Note_on_c, 8, 50, 110
10, 104928, Note_on_c, 8, 53, 110
10, 104952, Note_on_c, 8, 53, 0
10, 104952, Note_on_c, 8, 50, 0
10, 104976, Note_on_c, 8, 52, 113
10, 104976, Note_on_c, 8, 55, 113
10, 105000, Note_on_c, 8, 55, 0
10, 105000, Note_on_c, 8, 52, 0
10, 105024, Note_on_c, 8, 52, 110
10, 105024, Note_on_c, 8, 55, 110
10, 105048, Note_on_c, 8, 55, 0
10, 105048, Note_on_c, 8, 52, 0
10, 105072, Note_on_c, 8, 49, 110
10, 105072, Note_on_c, 8, 52, 110
10, 105096, Note_on_c, 8, 52, 0
10, 105096, Note_on_c, 8, 49, 0
10, 105120, Note_on_c, 8, 50, 116
10, 105120, Note_on_c, 8, 62, 116
10, 105155, Note_on_c, 8, 62, 0
10, 105155, Note_on_c, 8, 50, 0
10, 105192, Note_on_c, 8, 38, 113
10, 105192, Note_on_c, 8, 50, 113
10, 105204, Note_on_c, 8, 50, 0
10, 105204, Note_on_c, 8, 38, 0
10, 105216, Note_on_c, 8, 38, 113
10, 105216, Note_on_c, 8, 50, 113
10, 105240, Note_on_c, 8, 50, 0
10, 105240, Note_on_c, 8, 38, 0
10, 105264, Note_on_c, 8, 50, 116
10, 105264, Note_on_c, 8, 62, 116
10, 105288, Note_on_c, 8, 62, 0
10, 105288, Note_on_c, 8, 50, 0
10, 105312, Note_on_c, 8, 52, 113
10, 105312, Note_on_c, 8, 64, 113
10, 105336, Note_on_c, 8, 64, 0
10, 105336, Note_on_c, 8, 52, 0
10, 105360, Note_on_c, 8, 53, 113
10, 105360, Note_on_c, 8, 65, 113
10, 105384, Note_on_c, 8, 65, 0
10, 105384, Note_on_c, 8, 53, 0
10, 105408, Note_on_c, 8, 55, 116
10, 105408, Note_on_c, 8, 67, 116
10, 105432, Note_on_c, 8, 67, 0
10, 105432, Note_on_c, 8, 55, 0
10, 105552, Note_on_c, 8, 58, 116
10, 105576, Note_on_c, 8, 58, 0
10, 105600, Note_on_c, 8, 60, 113
10, 105624, Note_on_c, 8, 60, 0
10, 105648, Note_on_c, 8, 62, 113
10, 105672, Note_on_c, 8, 62, 0
10, 105696, Note_on_c, 8, 48, 116
10, 105696, Note_on_c, 8, 60, 116
10, 105731, Note_on_c, 8, 60, 0
10, 105731, Note_on_c, 8, 48, 0
10, 105768, Note_on_c, 8, 36, 113
10, 105768, Note_on_c, 8, 48, 113
10, 105780, Note_on_c, 8, 48, 0
10, 105780, Note_on_c, 8, 36, 0
10, 105792, Note_on_c, 8, 36, 113
10, 105792, Note_on_c, 8, 48, 113
10, 105816, Note_on_c, 8, 48, 0
10, 105816, Note_on_c, 8, 36, 0
10, 105840, Note_on_c, 8, 48, 116
10, 105840, Note_on_c, 8, 60, 116
10, 105864, Note_on_c, 8, 60, 0
10, 105864, Note_on_c, 8, 48, 0
10, 105888, Note_on_c, 8, 50, 113
10, 105888, Note_on_c, 8, 62, 113
10, 105912, Note_on_c, 8, 62, 0
10, 105912, Note_on_c, 8, 50, 0
10, 105936, Note_on_c, 8, 52, 113
10, 105936, Note_on_c, 8, 64, 113
10, 105960, Note_on_c, 8, 64, 0
10, 105960, Note_on_c, 8, 52, 0
10, 105984, Note_on_c, 8, 53, 116
10, 105984, Note_on_c, 8, 65, 116
10, 106008, Note_on_c, 8, 65, 0
10, 106008, Note_on_c, 8, 53, 0
10, 106128, Note_on_c, 8, 57, 116
10, 106152, Note_on_c, 8, 57, 0
10, 106176, Note_on_c, 8, 62, 113
10, 106200, Note_on_c, 8, 62, 0
10, 106224, Note_on_c, 8, 64, 113
10, 106248, Note_on_c, 8, 64, 0
10, 106272, Note_on_c, 8, 62, 60
10, 106272, Note_on_c, 8, 66, 60
10, 106296, Note_on_c, 8, 66, 0
10, 106296, Note_on_c, 8, 62, 0
10, 106560, Note_on_c, 8, 55, 60
10, 106560, Note_on_c, 8, 67, 60
10, 106584, Note_on_c, 8, 67, 0
10, 106584, Note_on_c, 8, 55, 0
10, 107136, Control_c, 8, 1, 0
10, 107136, Control_c, 8, 11, 60
10, 107136, Note_on_c, 8, 46, 100
10, 107136, Note_on_c, 8, 55, 100
10, 107137, Control_c, 8, 1, 1
10, 107138, Control_c, 8, 1, 2
10, 107139, Control_c, 8, 1, 3
10, 107140, Control_c, 8, 1, 4
10, 107141, Control_c, 8, 1, 5
10, 107143, Control_c, 8, 1, 6
10, 107144, Control_c, 8, 1, 7
10, 107146, Control_c, 8, 11, 61
10, 107146, Control_c, 8, 1, 8
10, 107147, Control_c, 8, 1, 9
10, 107150, Control_c, 8, 1, 10
10, 107152, Control_c, 8, 1, 11
10, 107154, Control_c, 8, 1, 12
10, 107156, Control_c, 8, 11, 62
10, 107156, Control_c, 8, 1, 13
10, 107160, Control_c, 8, 1, 14
10, 107163, Control_c, 8, 1, 15
10, 107165, Control_c, 8, 11, 63
10, 107166, Control_c, 8, 1, 16
10, 107171, Control_c, 8, 1, 17
10, 107175, Control_c, 8, 11, 64
10, 107176, Control_c, 8, 1, 18
10, 107183, Control_c, 8, 1, 19
10, 107184, Note_on_c, 8, 55, 0
10, 107184, Note_on_c, 8, 53, 100
10, 107184, Control_c, 8, 11, 65
10, 107193, Control_c, 8, 1, 20
10, 107194, Control_c, 8, 11, 66
10, 107204, Control_c, 8, 11, 67
10, 107208, Control_c, 8, 1, 21
10, 107213, Control_c, 8, 11, 68
10, 107223, Control_c, 8, 11, 69
10, 107232, Note_on_c, 8, 53, 0
10, 107232, Note_on_c, 8, 51, 100
10, 107232, Control_c, 8, 11, 70
10, 107242, Control_c, 8, 11, 71
10, 107251, Control_c, 8, 11, 72
10, 107261, Control_c, 8, 11, 73
10, 107271, Control_c, 8, 11, 74
10, 107280, Note_on_c, 8, 51, 0
10, 107280, Note_on_c, 8, 67, 100
10, 107280, Control_c, 8, 11, 75
10, 107290, Control_c, 8, 11, 76
10, 107299, Control_c, 8, 11, 77
10, 107309, Control_c, 8, 11, 78
10, 107319, Control_c, 8, 11, 79
10, 107328, Note_on_c, 8, 67, 0
10, 107328, Note_on_c, 8, 46, 0
10, 107328, Note_on_c, 8, 44, 100
10, 107328, Note_on_c, 8, 65, 100
10, 107328, Control_c, 8, 11, 80
10, 107338, Control_c, 8, 11, 81
10, 107347, Control_c, 8, 11, 82
10, 107357, Control_c, 8, 11, 83
10, 107366, Control_c, 8, 11, 84
10, 107376, Note_on_c, 8, 65, 0
10, 107376, Note_on_c, 8, 44, 0
10, 107376, Note_on_c, 8, 43, 100
10, 107376, Note_on_c, 8, 63, 100
10, 107376, Control_c, 8, 11, 85
10, 107386, Control_c, 8, 11, 86
10, 107395, Control_c, 8, 11, 87
10, 107405, Control_c, 8, 11, 88
10, 107414, Control_c, 8, 11, 89
10, 107424, Note_on_c, 8, 63, 0
10, 107424, Note_on_c, 8, 43, 0
10, 107424, Note_on_c, 8, 43, 100
10, 107424, Note_on_c, 8, 58, 100
10, 107424, Control_c, 8, 11, 90
10, 107434, Control_c, 8, 11, 91
10, 107443, Control_c, 8, 11, 92
10, 107453, Control_c, 8, 11, 93
10, 107462, Control_c, 8, 11, 94
10, 107472, Note_on_c, 8, 58, 0
10, 107472, Note_on_c, 8, 57, 100
10, 107472, Control_c, 8, 11, 95
10, 107481, Control_c, 8, 11, 96
10, 107491, Control_c, 8, 11, 97
10, 107501, Control_c, 8, 11, 98
10, 107510, Control_c, 8, 11, 99
10, 107520, Note_on_c, 8, 57, 0
10, 107520, Note_on_c, 8, 58, 100
10, 107520, Control_c, 8, 11, 100
10, 107529, Control_c, 8, 11, 101
10, 107539, Control_c, 8, 11, 102
10, 107549, Control_c, 8, 11, 103
10, 107558, Control_c, 8, 11, 104
10, 107568, Note_on_c, 8, 43, 0
10, 107568, Note_on_c, 8, 45, 100
10, 107568, Control_c, 8, 11, 105
10, 107577, Control_c, 8, 11, 106
10, 107587, Control_c, 8, 11, 107
10, 107596, Control_c, 8, 11, 108
10, 107606, Control_c, 8, 11, 109
10, 107616, Note_on_c, 8, 58, 0
10, 107616, Note_on_c, 8, 57, 100
10, 107616, Control_c, 8, 11, 110
10, 107625, Control_c, 8, 11, 111
10, 107635, Control_c, 8, 11, 112
10, 107644, Control_c, 8, 11, 113
10, 107654, Control_c, 8, 11, 114
10, 107664, Note_on_c, 8, 57, 0
10, 107664, Note_on_c, 8, 45, 0
10, 107664, Note_on_c, 8, 43, 100
10, 107664, Note_on_c, 8, 55, 100
10, 107664, Control_c, 8, 11, 115
10, 107673, Control_c, 8, 11, 116
10, 107683, Control_c, 8, 11, 117
10, 107692, Control_c, 8, 11, 118
10, 107702, Control_c, 8, 11, 119
10, 107711, Control_c, 8, 11, 120
10, 107712, Note_on_c, 8, 55, 0
10, 107712, Note_on_c, 8, 43, 0
10, 107712, Control_c, 8, 1, 0
10, 107712, Note_on_c, 8, 41, 105
10, 107712, Note_on_c, 8, 53, 105
10, 107736, Note_on_c, 8, 53, 0
10, 107736, Note_on_c, 8, 41, 0
10, 107760, Note_on_c, 8, 38, 100
10, 107760, Note_on_c, 8, 50, 100
10, 107784, Note_on_c, 8, 50, 0
10, 107784, Note_on_c, 8, 38, 0
10, 107808, Note_on_c, 8, 43, 100
10, 107808, Note_on_c, 8, 55, 100
10, 107832, Note_on_c, 8, 55, 0
10, 107832, Note_on_c, 8, 43, 0
10, 107856, Note_on_c, 8, 40, 105
10, 107856, Note_on_c, 8, 52, 105
10, 107880, Note_on_c, 8, 52, 0
10, 107880, Note_on_c, 8, 40, 0
10, 107904, Note_on_c, 8, 49, 100
10, 107904, Note_on_c, 8, 61, 100
10, 107928, Note_on_c, 8, 61, 0
10, 107928, Note_on_c, 8, 49, 0
10, 107952, Note_on_c, 8, 45, 100
10, 107952, Note_on_c, 8, 57, 100
10, 107976, Note_on_c, 8, 57, 0
10, 107976, Note_on_c, 8, 45, 0
10, 108000, Note_on_c, 8, 50, 100
10, 108000, Note_on_c, 8, 62, 100
10, 108024, Note_on_c, 8, 62, 0
10, 108024, Note_on_c, 8, 50, 0
10, 108288, Note_on_c, 8, 38, 105
10, 108288, Note_on_c, 8, 50, 105
10, 108312, Note_on_c, 8, 50, 0
10, 108312, Note_on_c, 8, 38, 0
10, 108336, Note_on_c, 8, 38, 100
10, 108336, Note_on_c, 8, 50, 100
10, 108360, Note_on_c, 8, 50, 0
10, 108360, Note_on_c, 8, 38, 0
10, 108384, Note_on_c, 8, 43, 100
10, 108384, Note_on_c, 8, 55, 100
10, 108408, Note_on_c, 8, 55, 0
10, 108408, Note_on_c, 8, 43, 0
10, 108432, Note_on_c, 8, 40, 105
10, 108432, Note_on_c, 8, 52, 105
10, 108456, Note_on_c, 8, 52, 0
10, 108456, Note_on_c, 8, 40, 0
10, 108480, Note_on_c, 8, 49, 100
10, 108480, Note_on_c, 8, 61, 100
10, 108504, Note_on_c, 8, 61, 0
10, 108504, Note_on_c, 8, 49, 0
10, 108528, Note_on_c, 8, 45, 100
10, 108528, Note_on_c, 8, 57, 100
10, 108552, Note_on_c, 8, 57, 0
10, 108552, Note_on_c, 8, 45, 0
10, 108576, Note_on_c, 8, 45, 105
10, 108576, Note_on_c, 8, 57, 105
10, 108600, Note_on_c, 8, 57, 0
10, 108600, Note_on_c, 8, 45, 0
10, 108624, Note_on_c, 8, 57, 100
10, 108648, Note_on_c, 8, 57, 0
10, 108672, Note_on_c, 8, 62, 100
10, 108696, Note_on_c, 8, 62, 0
10, 108720, Note_on_c, 8, 58, 100
10, 108744, Note_on_c, 8, 58, 0
10, 108768, Note_on_c, 8, 55, 100
10, 108792, Note_on_c, 8, 55, 0
10, 108816, Note_on_c, 8, 61, 100
10, 108840, Note_on_c, 8, 61, 0
10, 108864, Note_on_c, 8, 50, 105
10, 108864, Note_on_c, 8, 53, 105
10, 108888, Note_on_c, 8, 53, 0
10, 108888, Note_on_c, 8, 50, 0
10, 108912, Note_on_c, 8, 50, 100
10, 108912, Note_on_c, 8, 57, 100
10, 108936, Note_on_c, 8, 57, 0
10, 108936, Note_on_c, 8, 50, 0
10, 108960, Note_on_c, 8, 50, 100
10, 108960, Note_on_c, 8, 53, 100
10, 108984, Note_on_c, 8, 53, 0
10, 108984, Note_on_c, 8, 50, 0
10, 109008, Note_on_c, 8, 52, 105
10, 109008, Note_on_c, 8, 55, 105
10, 109032, Note_on_c, 8, 55, 0
10, 109032, Note_on_c, 8, 52, 0
10, 109056, Note_on_c, 8, 55, 100
10, 109056, Note_on_c, 8, 64, 100
10, 109080, Note_on_c, 8, 64, 0
10, 109080, Note_on_c, 8, 55, 0
10, 109104, Note_on_c, 8, 52, 100
10, 109104, Note_on_c, 8, 61, 100
10, 109128, Note_on_c, 8, 61, 0
10, 109128, Note_on_c, 8, 52, 0
10, 109152, Note_on_c, 8, 53, 105
10, 109152, Note_on_c, 8, 62, 105
10, 109176, Note_on_c, 8, 62, 0
10, 109176, Note_on_c, 8, 53, 0
10, 109200, Note_on_c, 8, 53, 100
10, 109200, Note_on_c, 8, 57, 100
10, 109224, Note_on_c, 8, 57, 0
10, 109224, Note_on_c, 8, 53, 0
10, 109248, Note_on_c, 8, 50, 100
10, 109248, Note_on_c, 8, 53, 100
10, 109272, Note_on_c, 8, 53, 0
10, 109272, Note_on_c, 8, 50, 0
10, 109296, Note_on_c, 8, 52, 105
10, 109296, Note_on_c, 8, 55, 105
10, 109320, Note_on_c, 8, 55, 0
10, 109320, Note_on_c, 8, 52, 0
10, 109344, Note_on_c, 8, 55, 100
10, 109344, Note_on_c, 8, 64, 100
10, 109368, Note_on_c, 8, 64, 0
10, 109368, Note_on_c, 8, 55, 0
10, 109392, Note_on_c, 8, 52, 100
10, 109392, Note_on_c, 8, 61, 100
10, 109416, Note_on_c, 8, 61, 0
10, 109416, Note_on_c, 8, 52, 0
10, 109440, Control_c, 8, 1, 0
10, 109440, Note_on_c, 8, 45, 45
10, 109441, Control_c, 8, 1, 1
10, 109442, Control_c, 8, 1, 2
10, 109443, Control_c, 8, 1, 3
10, 109445, Control_c, 8, 1, 4
10, 109446, Control_c, 8, 1, 5
10, 109449, Control_c, 8, 1, 6
10, 109451, Control_c, 8, 1, 7
10, 109453, Control_c, 8, 1, 8
10, 109456, Control_c, 8, 1, 9
10, 109461, Control_c, 8, 1, 10
10, 109465, Control_c, 8, 1, 11
10, 109472, Control_c, 8, 1, 12
10, 109484, Control_c, 8, 1, 13
10, 109488, Note_on_c, 8, 45, 0
10, 109488, Note_on_c, 8, 49, 49
10, 109536, Note_on_c, 8, 49, 0
10, 109536, Note_on_c, 8, 52, 52
10, 109584, Note_on_c, 8, 52, 0
10, 109584, Note_on_c, 8, 55, 55
10, 109632, Note_on_c, 8, 55, 0
10, 109632, Note_on_c, 8, 61, 61
10, 109680, Note_on_c, 8, 61, 0
10, 109680, Note_on_c, 8, 64, 64
10, 109728, Note_on_c, 8, 64, 0
10, 109728, Control_c, 8, 1, 22
10, 109728, Note_on_c, 8, 67, 67
10, 109920, Note_on_c, 8, 67, 0
10, 109920, Control_c, 8, 1, 13
10, 109920, Note_on_c, 8, 64, 64
10, 109968, Note_on_c, 8, 64, 0
10, 109968, Note_on_c, 8, 61, 61
10, 110016, Note_on_c, 8, 61, 0
10, 110016, Control_c, 8, 1, 0
10, 110016, Note_on_c, 8, 62, 50
10, 110040, Note_on_c, 8, 62, 0
10, 110160, Note_on_c, 8, 45, 55
10, 110160, Note_on_c, 8, 57, 55
10, 110195, Note_on_c, 8, 57, 0
10, 110195, Note_on_c, 8, 45, 0
10, 110232, Note_on_c, 8, 57, 50
10, 110232, Note_on_c, 8, 62, 50
10, 110244, Note_on_c, 8, 62, 0
10, 110244, Note_on_c, 8, 57, 0
10, 110256, Note_on_c, 8, 57, 50
10, 110256, Note_on_c, 8, 62, 50
10, 110280, Note_on_c, 8, 62, 0
10, 110280, Note_on_c, 8, 57, 0
10, 110304, Note_on_c, 8, 53, 50
10, 110304, Note_on_c, 8, 57, 50
10, 110328, Note_on_c, 8, 57, 0
10, 110328, Note_on_c, 8, 53, 0
10, 110448, Note_on_c, 8, 50, 55
10, 110448, Note_on_c, 8, 53, 55
10, 110483, Note_on_c, 8, 53, 0
10, 110483, Note_on_c, 8, 50, 0
10, 110520, Note_on_c, 8, 62, 50
10, 110520, Note_on_c, 8, 65, 50
10, 110532, Note_on_c, 8, 65, 0
10, 110532, Note_on_c, 8, 62, 0
10, 110544, Note_on_c, 8, 62, 50
10, 110544, Note_on_c, 8, 65, 50
10, 110568, Note_on_c, 8, 65, 0
10, 110568, Note_on_c, 8, 62, 0
10, 110592, Note_on_c, 8, 62, 50
10, 110592, Note_on_c, 8, 65, 50
10, 110616, Note_on_c, 8, 65, 0
10, 110616, Note_on_c, 8, 62, 0
10, 111312, Note_on_c, 8, 45, 58
10, 111312, Note_on_c, 8, 57, 58
10, 111347, Note_on_c, 8, 57, 0
10, 111347, Note_on_c, 8, 45, 0
10, 111384, Note_on_c, 8, 57, 62
10, 111384, Note_on_c, 8, 62, 62
10, 111396, Note_on_c, 8, 62, 0
10, 111396, Note_on_c, 8, 57, 0
10, 111408, Note_on_c, 8, 57, 64
10, 111408, Note_on_c, 8, 62, 64
10, 111432, Note_on_c, 8, 62, 0
10, 111432, Note_on_c, 8, 57, 0
10, 111456, Note_on_c, 8, 53, 66
10, 111456, Note_on_c, 8, 57, 66
10, 111480, Note_on_c, 8, 57, 0
10, 111480, Note_on_c, 8, 53, 0
10, 111600, Note_on_c, 8, 38, 75
10, 111600, Note_on_c, 8, 50, 75
10, 111635, Note_on_c, 8, 50, 0
10, 111635, Note_on_c, 8, 38, 0
10, 111672, Note_on_c, 8, 50, 79
10, 111672, Note_on_c, 8, 62, 79
10, 111684, Note_on_c, 8, 62, 0
10, 111684, Note_on_c, 8, 50, 0
10, 111696, Note_on_c, 8, 50, 80
10, 111696, Note_on_c, 8, 62, 80
10, 111720, Note_on_c, 8, 62, 0
10, 111720, Note_on_c, 8, 50, 0
10, 111744, Note_on_c, 8, 46, 83
10, 111744, Note_on_c, 8, 58, 83
10, 111768, Note_on_c, 8, 58, 0
10, 111768, Note_on_c, 8, 46, 0
10, 111888, Note_on_c, 8, 43, 92
10, 111923, Note_on_c, 8, 43, 0
10, 111960, Note_on_c, 8, 43, 96
10, 111960, Note_on_c, 8, 55, 96
10, 111972, Note_on_c, 8, 55, 0
10, 111972, Note_on_c, 8, 43, 0
10, 111984, Note_on_c, 8, 43, 97
10, 111984, Note_on_c, 8, 55, 97
10, 112008, Note_on_c, 8, 55, 0
10, 112008, Note_on_c, 8, 43, 0
10, 112032, Note_on_c, 8, 46, 100
10, 112032, Note_on_c, 8, 58, 100
10, 112056, Note_on_c, 8, 58, 0
10, 112056, Note_on_c, 8, 46, 0
10, 112176, Note_on_c, 8, 45, 109
10, 112211, Note_on_c, 8, 45, 0
10, 112248, Note_on_c, 8, 45, 113
10, 112248, Note_on_c, 8, 57, 113
10, 112260, Note_on_c, 8, 57, 0
10, 112260, Note_on_c, 8, 45, 0
10, 112272, Control_c, 8, 1, 0
10, 112272, Note_on_c, 8, 45, 114
10, 112272, Note_on_c, 8, 57, 114
10, 112273, Control_c, 8, 1, 2
10, 112274, Control_c, 8, 1, 3
10, 112275, Control_c, 8, 1, 4
10, 112276, Control_c, 8, 1, 5
10, 112277, Control_c, 8, 1, 6
10, 112278, Control_c, 8, 1, 7
10, 112279, Control_c, 8, 1, 8
10, 112280, Control_c, 8, 1, 9
10, 112282, Control_c, 8, 1, 10
10, 112283, Control_c, 8, 1, 11
10, 112285, Control_c, 8, 1, 12
10, 112287, Control_c, 8, 1, 13
10, 112289, Control_c, 8, 1, 14
10, 112291, Control_c, 8, 1, 15
10, 112294, Control_c, 8, 1, 16
10, 112297, Control_c, 8, 1, 17
10, 112301, Control_c, 8, 1, 18
10, 112306, Control_c, 8, 1, 19
10, 112312, Control_c, 8, 1, 20
10, 112317, Note_on_c, 8, 57, 0
10, 112317, Note_on_c, 8, 45, 0
10, 112323, Control_c, 8, 1, 21
10, 112368, Control_c, 8, 1, 0
10, 112656, Note_on_c, 8, 62, 55
10, 112691, Note_on_c, 8, 62, 0
10, 112728, Note_on_c, 8, 50, 50
10, 112740, Note_on_c, 8, 50, 0
10, 112752, Note_on_c, 8, 50, 50
10, 112776, Note_on_c, 8, 50, 0
10, 112800, Note_on_c, 8, 55, 55
10, 112824, Note_on_c, 8, 55, 0
10, 112848, Note_on_c, 8, 57, 50
10, 112872, Note_on_c, 8, 57, 0
10, 112896, Note_on_c, 8, 58, 50
10, 112920, Note_on_c, 8, 58, 0
10, 113232, Note_on_c, 8, 62, 55
10, 113267, Note_on_c, 8, 62, 0
10, 113304, Note_on_c, 8, 50, 50
10, 113316, Note_on_c, 8, 50, 0
10, 113328, Note_on_c, 8, 50, 50
10, 113352, Note_on_c, 8, 50, 0
10, 113376, Note_on_c, 8, 55, 55
10, 113400, Note_on_c, 8, 55, 0
10, 113424, Note_on_c, 8, 57, 50
10, 113448, Note_on_c, 8, 57, 0
10, 113472, Note_on_c, 8, 58, 50
10, 113496, Note_on_c, 8, 58, 0
10, 113520, Note_on_c, 8, 57, 50
10, 113555, Note_on_c, 8, 57, 0
10, 113592, Note_on_c, 8, 45, 54
10, 113604, Note_on_c, 8, 45, 0
10, 113616, Note_on_c, 8, 45, 55
10, 113640, Note_on_c, 8, 45, 0
10, 113664, Note_on_c, 8, 50, 58
10, 113688, Note_on_c, 8, 50, 0
10, 113712, Note_on_c, 8, 52, 61
10, 113736, Note_on_c, 8, 52, 0
10, 113760, Note_on_c, 8, 53, 64
10, 113784, Note_on_c, 8, 53, 0
10, 113808, Note_on_c, 8, 57, 66
10, 113843, Note_on_c, 8, 57, 0
10, 113880, Note_on_c, 8, 45, 71
10, 113892, Note_on_c, 8, 45, 0
10, 113904, Note_on_c, 8, 45, 72
10, 113928, Note_on_c, 8, 45, 0
10, 113952, Note_on_c, 8, 50, 75
10, 113976, Note_on_c, 8, 50, 0
10, 114000, Note_on_c, 8, 52, 78
10, 114024, Note_on_c, 8, 52, 0
10, 114048, Note_on_c, 8, 53, 80
10, 114072, Note_on_c, 8, 53, 0
10, 114096, Note_on_c, 8, 57, 83
10, 114131, Note_on_c, 8, 57, 0
10, 114168, Note_on_c, 8, 45, 87
10, 114180, Note_on_c, 8, 45, 0
10, 114192, Note_on_c, 8, 45, 89
10, 114216, Note_on_c, 8, 45, 0
10, 114240, Note_on_c, 8, 50, 92
10, 114264, Note_on_c, 8, 50, 0
10, 114288, Note_on_c, 8, 52, 95
10, 114312, Note_on_c, 8, 52, 0
10, 114336, Note_on_c, 8, 53, 97
10, 114360, Note_on_c, 8, 53, 0
10, 114384, Note_on_c, 8, 57, 100
10, 114419, Note_on_c, 8, 57, 0
10, 114456, Note_on_c, 8, 45, 104
10, 114468, Note_on_c, 8, 45, 0
10, 114480, Note_on_c, 8, 45, 106
10, 114504, Note_on_c, 8, 45, 0
10, 114528, Note_on_c, 8, 50, 109
10, 114552, Note_on_c, 8, 50, 0
10, 114576, Note_on_c, 8, 52, 111
10, 114600, Note_on_c, 8, 52, 0
10, 114624, Note_on_c, 8, 53, 114
10, 114648, Note_on_c, 8, 53, 0
10, 114672, Note_on_c, 8, 69, 125
10, 114696, Note_on_c, 8, 69, 0
10, 114720, Note_on_c, 8, 57, 115
10, 114744, Note_on_c, 8, 57, 0
10, 114768, Note_on_c, 8, 62, 125
10, 114792, Note_on_c, 8, 62, 0
10, 114816, Note_on_c, 8, 50, 115
10, 114840, Note_on_c, 8, 50, 0
10, 114864, Note_on_c, 8, 57, 125
10, 114888, Note_on_c, 8, 57, 0
10, 114912, Note_on_c, 8, 57, 115
10, 114936, Note_on_c, 8, 57, 0
10, 114960, Note_on_c, 8, 69, 125
10, 114984, Note_on_c, 8, 69, 0
10, 115008, Note_on_c, 8, 57, 120
10, 115032, Note_on_c, 8, 57, 0
10, 115056, Note_on_c, 8, 38, 110
10, 115056, Note_on_c, 8, 50, 110
10, 115080, Note_on_c, 8, 50, 0
10, 115080, Note_on_c, 8, 38, 0
10, 115152, Note_on_c, 8, 62, 67
10, 115176, Note_on_c, 8, 62, 0
10, 115200, Note_on_c, 8, 61, 66
10, 115224, Note_on_c, 8, 61, 0
10, 115248, Note_on_c, 8, 62, 67
10, 115272, Note_on_c, 8, 62, 0
10, 115296, Note_on_c, 8, 59, 64
10, 115320, Note_on_c, 8, 59, 0
10, 115344, Note_on_c, 8, 57, 62
10, 115368, Note_on_c, 8, 57, 0
10, 115392, Note_on_c, 8, 55, 60
10, 115416, Note_on_c, 8, 55, 0
10, 115440, Note_on_c, 8, 54, 59
10, 115464, Note_on_c, 8, 54, 0
10, 115488, Note_on_c, 8, 52, 57
10, 115512, Note_on_c, 8, 52, 0
10, 115536, Note_on_c, 8, 50, 55
10, 115560, Note_on_c, 8, 50, 0
10, 115584, Note_on_c, 8, 48, 53
10, 115608, Note_on_c, 8, 48, 0
10, 115632, Note_on_c, 8, 47, 52
10, 115656, Note_on_c, 8, 47, 0
10, 115680, Note_on_c, 8, 49, 54
10, 115704, Note_on_c, 8, 49, 0
10, 115728, Note_on_c, 8, 50, 55
10, 115752, Note_on_c, 8, 50, 0
10, 115776, Note_on_c, 8, 54, 59
10, 115800, Note_on_c, 8, 54, 0
10, 115824, Note_on_c, 8, 57, 62
10, 115848, Note_on_c, 8, 57, 0
10, 115872, Note_on_c, 8, 61, 66
10, 115896, Note_on_c, 8, 61, 0
10, 115920, Note_on_c, 8, 62, 67
10, 115944, Note_on_c, 8, 62, 0
10, 115968, Note_on_c, 8, 61, 66
10, 115992, Note_on_c, 8, 61, 0
10, 116016, Note_on_c, 8, 62, 67
10, 116040, Note_on_c, 8, 62, 0
10, 116064, Note_on_c, 8, 59, 64
10, 116088, Note_on_c, 8, 59, 0
10, 116112, Note_on_c, 8, 57, 62
10, 116136, Note_on_c, 8, 57, 0
10, 116160, Note_on_c, 8, 55, 60
10, 116184, Note_on_c, 8, 55, 0
10, 116208, Note_on_c, 8, 54, 59
10, 116232, Note_on_c, 8, 54, 0
10, 116256, Note_on_c, 8, 52, 57
10, 116280, Note_on_c, 8, 52, 0
10, 116304, Note_on_c, 8, 50, 55
10, 116328, Note_on_c, 8, 50, 0
10, 116352, Note_on_c, 8, 48, 53
10, 116376, Note_on_c, 8, 48, 0
10, 116400, Note_on_c, 8, 47, 52
10, 116424, Note_on_c, 8, 47, 0
10, 116448, Note_on_c, 8, 49, 54
10, 116472, Note_on_c, 8, 49, 0
10, 116496, Note_on_c, 8, 50, 55
10, 116520, Note_on_c, 8, 50, 0
10, 116544, Note_on_c, 8, 56, 61
10, 116568, Note_on_c, 8, 56, 0
10, 116592, Note_on_c, 8, 57, 62
10, 116616, Note_on_c, 8, 57, 0
10, 116688, Note_on_c, 8, 62, 67
10, 116712, Note_on_c, 8, 62, 0
10, 116736, Note_on_c, 8, 61, 66
10, 116760, Note_on_c, 8, 61, 0
10, 116784, Note_on_c, 8, 62, 67
10, 116808, Note_on_c, 8, 62, 0
10, 116832, Note_on_c, 8, 59, 64
10, 116856, Note_on_c, 8, 59, 0
10, 116880, Note_on_c, 8, 57, 62
10, 116904, Note_on_c, 8, 57, 0
10, 116928, Note_on_c, 8, 55, 60
10, 116952, Note_on_c, 8, 55, 0
10, 116976, Note_on_c, 8, 54, 59
10, 117000, Note_on_c, 8, 54, 0
10, 117024, Note_on_c, 8, 52, 57
10, 117048, Note_on_c, 8, 52, 0
10, 117072, Note_on_c, 8, 50, 55
10, 117096, Note_on_c, 8, 50, 0
10, 117120, Note_on_c, 8, 48, 53
10, 117144, Note_on_c, 8, 48, 0
10, 117168, Note_on_c, 8, 47, 52
10, 117192, Note_on_c, 8, 47, 0
10, 117216, Note_on_c, 8, 49, 54
10, 117240, Note_on_c, 8, 49, 0
10, 117264, Note_on_c, 8, 50, 55
10, 117288, Note_on_c, 8, 50, 0
10, 117312, Note_on_c, 8, 54, 59
10, 117336, Note_on_c, 8, 54, 0
10, 117360, Note_on_c, 8, 57, 62
10, 117384, Note_on_c, 8, 57, 0
10, 117408, Note_on_c, 8, 61, 66
10, 117432, Note_on_c, 8, 61, 0
10, 117456, Note_on_c, 8, 62, 67
10, 117480, Note_on_c, 8, 62, 0
10, 117504, Note_on_c, 8, 61, 66
10, 117528, Note_on_c, 8, 61, 0
10, 117552, Note_on_c, 8, 62, 67
10, 117576, Note_on_c, 8, 62, 0
10, 117600, Note_on_c, 8, 59, 64
10, 117624, Note_on_c, 8, 59, 0
10, 117648, Note_on_c, 8, 57, 62
10, 117672, Note_on_c, 8, 57, 0
10, 117696, Note_on_c, 8, 55, 60
10, 117720, Note_on_c, 8, 55, 0
10, 117744, Note_on_c, 8, 54, 59
10, 117768, Note_on_c, 8, 54, 0
10, 117792, Note_on_c, 8, 52, 57
10, 117816, Note_on_c, 8, 52, 0
10, 117840, Note_on_c, 8, 50, 55
10, 117864, Note_on_c, 8, 50, 0
10, 117888, Note_on_c, 8, 48, 53
10, 117912, Note_on_c, 8, 48, 0
10, 117936, Note_on_c, 8, 47, 52
10, 117960, Note_on_c, 8, 47, 0
10, 117984, Note_on_c, 8, 49, 54
10, 118008, Note_on_c, 8, 49, 0
10, 118032, Note_on_c, 8, 50, 55
10, 118056, Note_on_c, 8, 50, 0
10, 118080, Note_on_c, 8, 56, 61
10, 118104, Note_on_c, 8, 56, 0
10, 124272, Control_c, 8, 1, 0
10, 124272, Control_c, 8, 11, 100
10, 124272, Note_on_c, 8, 57, 120
10, 124273, Control_c, 8, 11, 90
10, 124273, Control_c, 8, 1, 1
10, 124274, Control_c, 8, 11, 84
10, 124274, Control_c, 8, 1, 2
10, 124275, Control_c, 8, 11, 79
10, 124275, Control_c, 8, 1, 3
10, 124276, Control_c, 8, 11, 75
10, 124277, Control_c, 8, 11, 71
10, 124277, Control_c, 8, 1, 4
10, 124278, Control_c, 8, 11, 69
10, 124279, Control_c, 8, 11, 67
10, 124279, Control_c, 8, 1, 5
10, 124280, Control_c, 8, 11, 65
10, 124281, Control_c, 8, 11, 64
10, 124281, Control_c, 8, 1, 6
10, 124282, Control_c, 8, 11, 63
10, 124283, Control_c, 8, 11, 62
10, 124283, Control_c, 8, 1, 7
10, 124285, Control_c, 8, 11, 61
10, 124285, Control_c, 8, 1, 8
10, 124287, Control_c, 8, 11, 60
10, 124287, Control_c, 8, 1, 9
10, 124290, Control_c, 8, 1, 10
10, 124293, Control_c, 8, 1, 11
10, 124296, Control_c, 8, 1, 12
10, 124299, Control_c, 8, 1, 13
10, 124303, Control_c, 8, 1, 14
10, 124307, Control_c, 8, 1, 15
10, 124311, Control_c, 8, 1, 16
10, 124317, Control_c, 8, 1, 17
10, 124322, Control_c, 8, 1, 18
10, 124331, Control_c, 8, 1, 19
10, 124340, Control_c, 8, 1, 20
10, 124354, Control_c, 8, 1, 21
10, 124378, Control_c, 8, 1, 22
10, 124560, Note_on_c, 8, 57, 0
10, 124560, Note_on_c, 8, 59, 120
10, 124656, Note_on_c, 8, 59, 0
10, 124656, Control_c, 8, 1, 0
10, 124656, Note_on_c, 8, 61, 120
10, 124657, Control_c, 8, 1, 1
10, 124658, Control_c, 8, 1, 2
10, 124659, Control_c, 8, 1, 3
10, 124660, Control_c, 8, 1, 4
10, 124662, Control_c, 8, 1, 5
10, 124663, Control_c, 8, 1, 6
10, 124664, Control_c, 8, 1, 7
10, 124666, Control_c, 8, 1, 8
10, 124668, Control_c, 8, 1, 9
10, 124670, Control_c, 8, 1, 10
10, 124672, Control_c, 8, 1, 11
10, 124674, Control_c, 8, 1, 12
10, 124677, Control_c, 8, 1, 13
10, 124679, Control_c, 8, 1, 14
10, 124682, Control_c, 8, 1, 15
10, 124686, Control_c, 8, 1, 16
10, 124689, Control_c, 8, 1, 17
10, 124694, Control_c, 8, 1, 18
10, 124700, Control_c, 8, 1, 19
10, 124707, Control_c, 8, 1, 20
10, 124717, Control_c, 8, 1, 21
10, 124735, Control_c, 8, 1, 22
10, 124800, Note_on_c, 8, 61, 0
10, 124800, Note_on_c, 8, 62, 120
10, 124824, Note_on_c, 8, 62, 0
10, 124824, Note_on_c, 8, 64, 120
10, 124848, Note_on_c, 8, 64, 0
10, 124848, Control_c, 8, 1, 0
10, 124848, Note_on_c, 8, 62, 120
10, 124872, Note_on_c, 8, 62, 0
10, 124896, Note_on_c, 8, 62, 120
10, 124920, Note_on_c, 8, 62, 0
10, 124944, Note_on_c, 8, 61, 120
10, 124968, Note_on_c, 8, 61, 0
10, 124992, Note_on_c, 8, 61, 120
10, 125016, Note_on_c, 8, 61, 0
10, 125040, Note_on_c, 8, 59, 120
10, 125064, Note_on_c, 8, 59, 0
10, 125136, Control_c, 8, 1, 0
10, 125136, Note_on_c, 8, 57, 120
10, 125137, Control_c, 8, 1, 2
10, 125138, Control_c, 8, 1, 3
10, 125139, Control_c, 8, 1, 4
10, 125141, Control_c, 8, 1, 5
10, 125142, Control_c, 8, 1, 6
10, 125143, Control_c, 8, 1, 7
10, 125145, Control_c, 8, 1, 8
10, 125146, Control_c, 8, 1, 9
10, 125148, Control_c, 8, 1, 10
10, 125150, Control_c, 8, 1, 11
10, 125152, Control_c, 8, 1, 12
10, 125155, Control_c, 8, 1, 13
10, 125158, Control_c, 8, 1, 14
10, 125162, Control_c, 8, 1, 15
10, 125167, Control_c, 8, 1, 16
10, 125174, Control_c, 8, 1, 17
10, 125185, Control_c, 8, 1, 18
10, 125328, Note_on_c, 8, 57, 0
10, 125328, Note_on_c, 8, 59, 120
10, 125424, Note_on_c, 8, 59, 0
10, 125424, Note_on_c, 8, 61, 120
10, 125496, Note_on_c, 8, 61, 0
10, 125520, Control_c, 8, 1, 0
10, 125520, Note_on_c, 8, 57, 120
10, 125520, Note_on_c, 8, 61, 120
10, 125521, Control_c, 8, 1, 2
10, 125522, Control_c, 8, 1, 3
10, 125523, Control_c, 8, 1, 4
10, 125525, Control_c, 8, 1, 5
10, 125526, Control_c, 8, 1, 6
10, 125527, Control_c, 8, 1, 7
10, 125529, Control_c, 8, 1, 8
10, 125530, Control_c, 8, 1, 9
10, 125532, Control_c, 8, 1, 10
10, 125534, Control_c, 8, 1, 11
10, 125536, Control_c, 8, 1, 12
10, 125539, Control_c, 8, 1, 13
10, 125542, Control_c, 8, 1, 14
10, 125546, Control_c, 8, 1, 15
10, 125551, Control_c, 8, 1, 16
10, 125558, Control_c, 8, 1, 17
10, 125569, Control_c, 8, 1, 18
10, 125708, Note_on_c, 8, 61, 0
10, 125708, Note_on_c, 8, 57, 0
10, 125712, Control_c, 8, 1, 0
10, 125712, Note_on_c, 8, 59, 120
10, 125712, Note_on_c, 8, 62, 120
10, 125713, Control_c, 8, 1, 2
10, 125714, Control_c, 8, 1, 3
10, 125715, Control_c, 8, 1, 4
10, 125717, Control_c, 8, 1, 5
10, 125718, Control_c, 8, 1, 6
10, 125719, Control_c, 8, 1, 7
10, 125721, Control_c, 8, 1, 8
10, 125722, Control_c, 8, 1, 9
10, 125724, Control_c, 8, 1, 10
10, 125726, Control_c, 8, 1, 11
10, 125728, Control_c, 8, 1, 12
10, 125731, Control_c, 8, 1, 13
10, 125734, Control_c, 8, 1, 14
10, 125738, Control_c, 8, 1, 15
10, 125743, Control_c, 8, 1, 16
10, 125750, Control_c, 8, 1, 17
10, 125761, Control_c, 8, 1, 18
10, 125808, Note_on_c, 8, 62, 0
10, 125808, Note_on_c, 8, 59, 0
10, 125808, Control_c, 8, 1, 0
10, 125808, Note_on_c, 8, 61, 120
10, 125808, Note_on_c, 8, 64, 120
10, 125809, Control_c, 8, 1, 1
10, 125810, Control_c, 8, 1, 2
10, 125811, Control_c, 8, 1, 3
10, 125813, Control_c, 8, 1, 4
10, 125814, Control_c, 8, 1, 5
10, 125817, Control_c, 8, 1, 6
10, 125819, Control_c, 8, 1, 7
10, 125821, Control_c, 8, 1, 8
10, 125824, Control_c, 8, 1, 9
10, 125829, Control_c, 8, 1, 10
10, 125833, Control_c, 8, 1, 11
10, 125840, Control_c, 8, 1, 12
10, 125852, Control_c, 8, 1, 13
10, 125880, Note_on_c, 8, 64, 0
10, 125880, Note_on_c, 8, 61, 0
10, 125904, Control_c, 8, 1, 0
10, 125904, Note_on_c, 8, 61, 120
10, 125904, Note_on_c, 8, 64, 120
10, 125905, Control_c, 8, 1, 2
10, 125906, Control_c, 8, 1, 3
10, 125907, Control_c, 8, 1, 4
10, 125908, Control_c, 8, 1, 5
10, 125909, Control_c, 8, 1, 6
10, 125910, Control_c, 8, 1, 7
10, 125911, Control_c, 8, 1, 8
10, 125912, Control_c, 8, 1, 9
10, 125914, Control_c, 8, 1, 10
10, 125915, Control_c, 8, 1, 11
10, 125917, Control_c, 8, 1, 12
10, 125919, Control_c, 8, 1, 13
10, 125921, Control_c, 8, 1, 14
10, 125923, Control_c, 8, 1, 15
10, 125926, Control_c, 8, 1, 16
10, 125929, Control_c, 8, 1, 17
10, 125933, Control_c, 8, 1, 18
10, 125938, Control_c, 8, 1, 19
10, 125944, Control_c, 8, 1, 20
10, 125955, Control_c, 8, 1, 21
10, 126092, Note_on_c, 8, 64, 0
10, 126092, Note_on_c, 8, 61, 0
10, 126096, Control_c, 8, 1, 0
10, 126096, Note_on_c, 8, 62, 120
10, 126096, Note_on_c, 8, 66, 120
10, 126097, Control_c, 8, 1, 1
10, 126098, Control_c, 8, 1, 2
10, 126099, Control_c, 8, 1, 3
10, 126100, Control_c, 8, 1, 4
10, 126102, Control_c, 8, 1, 5
10, 126104, Control_c, 8, 1, 6
10, 126106, Control_c, 8, 1, 7
10, 126108, Control_c, 8, 1, 8
10, 126111, Control_c, 8, 1, 9
10, 126114, Control_c, 8, 1, 10
10, 126118, Control_c, 8, 1, 11
10, 126122, Control_c, 8, 1, 12
10, 126130, Control_c, 8, 1, 13
10, 126141, Control_c, 8, 1, 14
10, 126192, Note_on_c, 8, 66, 0
10, 126192, Note_on_c, 8, 62, 0
10, 126192, Note_on_c, 8, 64, 120
10, 126192, Note_on_c, 8, 67, 120
10, 126264, Note_on_c, 8, 67, 0
10, 126264, Note_on_c, 8, 64, 0
10, 126288, Control_c, 8, 1, 0
10, 126288, Note_on_c, 8, 57, 120
10, 126288, Note_on_c, 8, 64, 120
10, 126289, Control_c, 8, 1, 2
10, 126290, Control_c, 8, 1, 3
10, 126291, Control_c, 8, 1, 4
10, 126292, Control_c, 8, 1, 5
10, 126293, Control_c, 8, 1, 6
10, 126294, Control_c, 8, 1, 7
10, 126296, Control_c, 8, 1, 8
10, 126297, Control_c, 8, 1, 9
10, 126299, Control_c, 8, 1, 10
10, 126300, Control_c, 8, 1, 11
10, 126302, Control_c, 8, 1, 12
10, 126304, Control_c, 8, 1, 13
10, 126306, Control_c, 8, 1, 14
10, 126309, Control_c, 8, 1, 15
10, 126312, Control_c, 8, 1, 16
10, 126316, Control_c, 8, 1, 17
10, 126320, Control_c, 8, 1, 18
10, 126327, Control_c, 8, 1, 19
10, 126339, Control_c, 8, 1, 20
10, 126476, Note_on_c, 8, 64, 0
10, 126476, Note_on_c, 8, 57, 0
10, 126480, Control_c, 8, 1, 0
10, 126480, Note_on_c, 8, 57, 120
10, 126480, Note_on_c, 8, 66, 120
10, 126481, Control_c, 8, 1, 2
10, 126482, Control_c, 8, 1, 3
10, 126483, Control_c, 8, 1, 4
10, 126484, Control_c, 8, 1, 5
10, 126485, Control_c, 8, 1, 6
10, 126486, Control_c, 8, 1, 7
10, 126488, Control_c, 8, 1, 8
10, 126489, Control_c, 8, 1, 9
10, 126491, Control_c, 8, 1, 10
10, 126492, Control_c, 8, 1, 11
10, 126494, Control_c, 8, 1, 12
10, 126496, Control_c, 8, 1, 13
10, 126498, Control_c, 8, 1, 14
10, 126501, Control_c, 8, 1, 15
10, 126504, Control_c, 8, 1, 16
10, 126508, Control_c, 8, 1, 17
10, 126512, Control_c, 8, 1, 18
10, 126519, Control_c, 8, 1, 19
10, 126531, Control_c, 8, 1, 20
10, 126576, Note_on_c, 8, 66, 0
10, 126576, Note_on_c, 8, 57, 0
10, 126576, Control_c, 8, 11, 60
10, 126576, Note_on_c, 8, 57, 120
10, 126576, Note_on_c, 8, 67, 120
10, 126619, Control_c, 8, 11, 61
10, 126648, Note_on_c, 8, 67, 0
10, 126648, Note_on_c, 8, 57, 0
10, 126661, Control_c, 8, 11, 62
10, 126672, Control_c, 8, 1, 0
10, 126672, Note_on_c, 8, 57, 120
10, 126672, Note_on_c, 8, 67, 120
10, 126673, Control_c, 8, 1, 2
10, 126675, Control_c, 8, 1, 3
10, 126676, Control_c, 8, 1, 4
10, 126677, Control_c, 8, 1, 5
10, 126679, Control_c, 8, 1, 6
10, 126680, Control_c, 8, 1, 7
10, 126682, Control_c, 8, 1, 8
10, 126684, Control_c, 8, 1, 9
10, 126687, Control_c, 8, 1, 10
10, 126689, Control_c, 8, 1, 11
10, 126692, Control_c, 8, 1, 12
10, 126696, Control_c, 8, 1, 13
10, 126701, Control_c, 8, 1, 14
10, 126703, Control_c, 8, 11, 63
10, 126708, Control_c, 8, 1, 15
10, 126720, Control_c, 8, 1, 16
10, 126745, Control_c, 8, 11, 64
10, 126787, Control_c, 8, 11, 65
10, 126830, Control_c, 8, 11, 66
10, 126860, Note_on_c, 8, 67, 0
10, 126860, Note_on_c, 8, 57, 0
10, 126864, Control_c, 8, 1, 0
10, 126864, Note_on_c, 8, 57, 120
10, 126864, Note_on_c, 8, 67, 120
10, 126865, Control_c, 8, 1, 2
10, 126867, Control_c, 8, 1, 3
10, 126868, Control_c, 8, 1, 4
10, 126869, Control_c, 8, 1, 5
10, 126871, Control_c, 8, 1, 6
10, 126872, Control_c, 8, 11, 67
10, 126872, Control_c, 8, 1, 7
10, 126874, Control_c, 8, 1, 8
10, 126876, Control_c, 8, 1, 9
10, 126878, Control_c, 8, 1, 10
10, 126880, Control_c, 8, 1, 11
10, 126883, Control_c, 8, 1, 12
10, 126887, Control_c, 8, 1, 13
10, 126892, Control_c, 8, 1, 14
10, 126899, Control_c, 8, 1, 15
10, 126910, Control_c, 8, 1, 16
10, 126914, Control_c, 8, 11, 68
10, 126956, Control_c, 8, 11, 69
10, 126998, Control_c, 8, 11, 70
10, 127041, Control_c, 8, 11, 71
10, 127052, Note_on_c, 8, 67, 0
10, 127052, Note_on_c, 8, 57, 0
10, 127056, Control_c, 8, 1, 0
10, 127056, Note_on_c, 8, 57, 120
10, 127056, Note_on_c, 8, 67, 120
10, 127057, Control_c, 8, 1, 2
10, 127059, Control_c, 8, 1, 3
10, 127060, Control_c, 8, 1, 4
10, 127061, Control_c, 8, 1, 5
10, 127063, Control_c, 8, 1, 6
10, 127064, Control_c, 8, 1, 7
10, 127066, Control_c, 8, 1, 8
10, 127068, Control_c, 8, 1, 9
10, 127071, Control_c, 8, 1, 10
10, 127073, Control_c, 8, 1, 11
10, 127076, Control_c, 8, 1, 12
10, 127080, Control_c, 8, 1, 13
10, 127083, Control_c, 8, 11, 72
10, 127085, Control_c, 8, 1, 14
10, 127092, Control_c, 8, 1, 15
10, 127104, Control_c, 8, 1, 16
10, 127125, Control_c, 8, 11, 73
10, 127167, Control_c, 8, 11, 74
10, 127209, Control_c, 8, 11, 75
10, 127244, Note_on_c, 8, 67, 0
10, 127244, Note_on_c, 8, 57, 0
10, 127248, Control_c, 8, 1, 0
10, 127248, Note_on_c, 8, 58, 120
10, 127248, Note_on_c, 8, 67, 120
10, 127249, Control_c, 8, 1, 2
10, 127251, Control_c, 8, 1, 3
10, 127252, Control_c, 8, 11, 76
10, 127252, Control_c, 8, 1, 4
10, 127253, Control_c, 8, 1, 5
10, 127254, Control_c, 8, 1, 6
10, 127256, Control_c, 8, 1, 7
10, 127257, Control_c, 8, 1, 8
10, 127259, Control_c, 8, 1, 9
10, 127261, Control_c, 8, 1, 10
10, 127264, Control_c, 8, 1, 11
10, 127267, Control_c, 8, 1, 12
10, 127270, Control_c, 8, 1, 13
10, 127275, Control_c, 8, 1, 14
10, 127281, Control_c, 8, 1, 15
10, 127292, Control_c, 8, 1, 16
10, 127294, Control_c, 8, 11, 77
10, 127336, Control_c, 8, 11, 78
10, 127378, Control_c, 8, 11, 79
10, 127420, Control_c, 8, 11, 80
10, 127436, Note_on_c, 8, 67, 0
10, 127436, Note_on_c, 8, 58, 0
10, 127440, Control_c, 8, 1, 0
10, 127440, Note_on_c, 8, 60, 120
10, 127440, Note_on_c, 8, 67, 120
10, 127441, Control_c, 8, 1, 2
10, 127443, Control_c, 8, 1, 3
10, 127444, Control_c, 8, 1, 4
10, 127445, Control_c, 8, 1, 5
10, 127447, Control_c, 8, 1, 6
10, 127448, Control_c, 8, 1, 7
10, 127450, Control_c, 8, 1, 8
10, 127452, Control_c, 8, 1, 9
10, 127455, Control_c, 8, 1, 10
10, 127457, Control_c, 8, 1, 11
10, 127460, Control_c, 8, 1, 12
10, 127463, Control_c, 8, 11, 81
10, 127464, Control_c, 8, 1, 13
10, 127469, Control_c, 8, 1, 14
10, 127476, Control_c, 8, 1, 15
10, 127488, Control_c, 8, 1, 16
10, 127505, Control_c, 8, 11, 82
10, 127547, Control_c, 8, 11, 83
10, 127589, Control_c, 8, 11, 84
10, 127628, Note_on_c, 8, 67, 0
10, 127628, Note_on_c, 8, 60, 0
10, 127631, Control_c, 8, 1, 0
10, 127631, Control_c, 8, 11, 85
10, 127632, Control_c, 8, 11, 60
10, 127632, Note_on_c, 8, 60, 120
10, 127632, Note_on_c, 8, 67, 120
10, 127632, Control_c, 8, 1, 2
10, 127634, Control_c, 8, 1, 3
10, 127635, Control_c, 8, 1, 4
10, 127636, Control_c, 8, 1, 5
10, 127638, Control_c, 8, 1, 6
10, 127639, Control_c, 8, 1, 7
10, 127641, Control_c, 8, 1, 8
10, 127644, Control_c, 8, 1, 9
10, 127646, Control_c, 8, 1, 10
10, 127648, Control_c, 8, 1, 11
10, 127651, Control_c, 8, 1, 12
10, 127656, Control_c, 8, 1, 13
10, 127660, Control_c, 8, 1, 14
10, 127668, Control_c, 8, 1, 15
10, 127680, Control_c, 8, 1, 16
10, 127824, Note_on_c, 8, 67, 0
10, 127824, Note_on_c, 8, 60, 0
10, 127824, Note_on_c, 8, 60, 120
10, 127824, Note_on_c, 8, 64, 120
10, 127920, Note_on_c, 8, 65, 120
10, 127921, Note_on_c, 8, 64, 0
10, 128016, Note_on_c, 8, 65, 0
10, 128016, Note_on_c, 8, 60, 0
10, 128016, Control_c, 8, 11, 60
10, 128016, Note_on_c, 8, 60, 120
10, 128016, Note_on_c, 8, 64, 120
10, 128026, Control_c, 8, 11, 61
10, 128036, Control_c, 8, 11, 62
10, 128045, Control_c, 8, 11, 63
10, 128055, Control_c, 8, 11, 64
10, 128064, Control_c, 8, 11, 65
10, 128074, Control_c, 8, 11, 66
10, 128083, Control_c, 8, 11, 67
10, 128093, Control_c, 8, 11, 68
10, 128103, Control_c, 8, 11, 69
10, 128112, Control_c, 8, 11, 70
10, 128122, Control_c, 8, 11, 71
10, 128131, Control_c, 8, 11, 72
10, 128141, Control_c, 8, 11, 73
10, 128150, Control_c, 8, 11, 74
10, 128160, Control_c, 8, 11, 75
10, 128170, Control_c, 8, 11, 76
10, 128179, Control_c, 8, 11, 77
10, 128189, Control_c, 8, 11, 78
10, 128198, Control_c, 8, 11, 79
10, 128208, Note_on_c, 8, 64, 0
10, 128208, Note_on_c, 8, 60, 0
10, 128208, Note_on_c, 8, 61, 120
10, 128208, Note_on_c, 8, 64, 120
10, 128208, Control_c, 8, 11, 80
10, 128217, Control_c, 8, 11, 81
10, 128227, Control_c, 8, 11, 82
10, 128237, Control_c, 8, 11, 83
10, 128246, Control_c, 8, 11, 84
10, 128256, Note_on_c, 8, 64, 0
10, 128256, Note_on_c, 8, 61, 0
10, 128256, Note_on_c, 8, 62, 120
10, 128256, Note_on_c, 8, 66, 120
10, 128256, Control_c, 8, 11, 85
10, 128265, Control_c, 8, 11, 86
10, 128275, Control_c, 8, 11, 87
10, 128284, Control_c, 8, 11, 88
10, 128294, Control_c, 8, 11, 89
10, 128303, Control_c, 8, 11, 90
10, 128304, Control_c, 8, 11, 100
10, 128305, Control_c, 8, 11, 95
10, 128306, Control_c, 8, 11, 91
10, 128307, Control_c, 8, 11, 87
10, 128308, Control_c, 8, 11, 84
10, 128309, Control_c, 8, 11, 81
10, 128310, Control_c, 8, 11, 79
10, 128311, Control_c, 8, 11, 77
10, 128312, Control_c, 8, 11, 75
10, 128313, Control_c, 8, 11, 73
10, 128314, Control_c, 8, 11, 72
10, 128315, Control_c, 8, 11, 70
10, 128316, Control_c, 8, 11, 69
10, 128317, Control_c, 8, 11, 68
10, 128318, Control_c, 8, 11, 67
10, 128319, Control_c, 8, 11, 66
10, 128320, Control_c, 8, 11, 65
10, 128322, Control_c, 8, 11, 64
10, 128324, Control_c, 8, 11, 63
10, 128326, Control_c, 8, 11, 62
10, 128330, Control_c, 8, 11, 61
10, 128335, Control_c, 8, 11, 60
10, 128349, Note_on_c, 8, 66, 0
10, 128349, Note_on_c, 8, 62, 0
10, 128376, Control_c, 8, 1, 0
10, 128376, Control_c, 8, 11, 120
10, 128400, Note_on_c, 8, 62, 60
10, 128400, Note_on_c, 8, 66, 60
10, 128424, Note_on_c, 8, 66, 0
10, 128424, Note_on_c, 8, 62, 0
10, 128448, Note_on_c, 8, 61, 60
10, 128448, Note_on_c, 8, 64, 60
10, 128472, Note_on_c, 8, 64, 0
10, 128472, Note_on_c, 8, 61, 0
10, 128496, Note_on_c, 8, 62, 60
10, 128496, Note_on_c, 8, 66, 60
10, 128520, Note_on_c, 8, 66, 0
10, 128520, Note_on_c, 8, 62, 0
10, 128544, Note_on_c, 8, 59, 60
10, 128544, Note_on_c, 8, 62, 60
10, 128568, Note_on_c, 8, 62, 0
10, 128568, Note_on_c, 8, 59, 0
10, 128592, Note_on_c, 8, 57, 61
10, 128592, Note_on_c, 8, 61, 61
10, 128616, Note_on_c, 8, 61, 0
10, 128616, Note_on_c, 8, 57, 0
10, 128640, Note_on_c, 8, 55, 62
10, 128640, Note_on_c, 8, 59, 62
10, 128664, Note_on_c, 8, 59, 0
10, 128664, Note_on_c, 8, 55, 0
10, 128688, Note_on_c, 8, 54, 63
10, 128688, Note_on_c, 8, 57, 63
10, 128712, Note_on_c, 8, 57, 0
10, 128712, Note_on_c, 8, 54, 0
10, 128736, Note_on_c, 8, 52, 63
10, 128736, Note_on_c, 8, 55, 63
10, 128760, Note_on_c, 8, 55, 0
10, 128760, Note_on_c, 8, 52, 0
10, 128784, Note_on_c, 8, 50, 64
10, 128784, Note_on_c, 8, 54, 64
10, 128808, Note_on_c, 8, 54, 0
10, 128808, Note_on_c, 8, 50, 0
10, 128832, Note_on_c, 8, 48, 65
10, 128832, Note_on_c, 8, 50, 65
10, 128856, Note_on_c, 8, 50, 0
10, 128856, Note_on_c, 8, 48, 0
10, 128880, Note_on_c, 8, 47, 66
10, 128880, Note_on_c, 8, 50, 66
10, 128904, Note_on_c, 8, 50, 0
10, 128904, Note_on_c, 8, 47, 0
10, 128928, Note_on_c, 8, 49, 66
10, 128928, Note_on_c, 8, 52, 66
10, 128952, Note_on_c, 8, 52, 0
10, 128952, Note_on_c, 8, 49, 0
10, 128976, Note_on_c, 8, 50, 67
10, 128976, Note_on_c, 8, 54, 67
10, 129000, Note_on_c, 8, 54, 0
10, 129000, Note_on_c, 8, 50, 0
10, 129024, Note_on_c, 8, 54, 68
10, 129024, Note_on_c, 8, 57, 68
10, 129048, Note_on_c, 8, 57, 0
10, 129048, Note_on_c, 8, 54, 0
10, 129072, Note_on_c, 8, 57, 69
10, 129072, Note_on_c, 8, 61, 69
10, 129096, Note_on_c, 8, 61, 0
10, 129096, Note_on_c, 8, 57, 0
10, 129120, Note_on_c, 8, 61, 69
10, 129120, Note_on_c, 8, 64, 69
10, 129144, Note_on_c, 8, 64, 0
10, 129144, Note_on_c, 8, 61, 0
10, 129168, Note_on_c, 8, 62, 70
10, 129168, Note_on_c, 8, 66, 70
10, 129192, Note_on_c, 8, 66, 0
10, 129192, Note_on_c, 8, 62, 0
10, 129216, Note_on_c, 8, 61, 71
10, 129216, Note_on_c, 8, 64, 71
10, 129240, Note_on_c, 8, 64, 0
10, 129240, Note_on_c, 8, 61, 0
10, 129264, Note_on_c, 8, 62, 72
10, 129264, Note_on_c, 8, 66, 72
10, 129288, Note_on_c, 8, 66, 0
10, 129288, Note_on_c, 8, 62, 0
10, 129312, Note_on_c, 8, 59, 72
10, 129312, Note_on_c, 8, 62, 72
10, 129336, Note_on_c, 8, 62, 0
10, 129336, Note_on_c, 8, 59, 0
10, 129360, Note_on_c, 8, 57, 73
10, 129360, Note_on_c, 8, 61, 73
10, 129384, Note_on_c, 8, 61, 0
10, 129384, Note_on_c, 8, 57, 0
10, 129408, Note_on_c, 8, 55, 74
10, 129408, Note_on_c, 8, 59, 74
10, 129432, Note_on_c, 8, 59, 0
10, 129432, Note_on_c, 8, 55, 0
10, 129456, Note_on_c, 8, 54, 75
10, 129456, Note_on_c, 8, 57, 75
10, 129480, Note_on_c, 8, 57, 0
10, 129480, Note_on_c, 8, 54, 0
10, 129504, Note_on_c, 8, 52, 75
10, 129504, Note_on_c, 8, 55, 75
10, 129528, Note_on_c, 8, 55, 0
10, 129528, Note_on_c, 8, 52, 0
10, 129552, Note_on_c, 8, 50, 76
10, 129552, Note_on_c, 8, 54, 76
10, 129576, Note_on_c, 8, 54, 0
10, 129576, Note_on_c, 8, 50, 0
10, 129600, Note_on_c, 8, 48, 77
10, 129600, Note_on_c, 8, 50, 77
10, 129624, Note_on_c, 8, 50, 0
10, 129624, Note_on_c, 8, 48, 0
10, 129648, Note_on_c, 8, 47, 78
10, 129648, Note_on_c, 8, 50, 78
10, 129672, Note_on_c, 8, 50, 0
10, 129672, Note_on_c, 8, 47, 0
10, 129696, Note_on_c, 8, 49, 78
10, 129696, Note_on_c, 8, 52, 78
10, 129720, Note_on_c, 8, 52, 0
10, 129720, Note_on_c, 8, 49, 0
10, 129744, Note_on_c, 8, 50, 79
10, 129744, Note_on_c, 8, 54, 79
10, 129768, Note_on_c, 8, 54, 0
10, 129768, Note_on_c, 8, 50, 0
10, 129792, Note_on_c, 8, 54, 80
10, 129792, Note_on_c, 8, 57, 80
10, 129816, Note_on_c, 8, 57, 0
10, 129816, Note_on_c, 8, 54, 0
10, 129840, Note_on_c, 8, 57, 81
10, 129840, Note_on_c, 8, 61, 81
10, 129864, Note_on_c, 8, 61, 0
10, 129864, Note_on_c, 8, 57, 0
10, 129888, Note_on_c, 8, 61, 81
10, 129888, Note_on_c, 8, 64, 81
10, 129912, Note_on_c, 8, 64, 0
10, 129912, Note_on_c, 8, 61, 0
10, 129936, Note_on_c, 8, 62, 82
10, 129936, Note_on_c, 8, 66, 82
10, 129960, Note_on_c, 8, 66, 0
10, 129960, Note_on_c, 8, 62, 0
10, 129984, Note_on_c, 8, 61, 83
10, 129984, Note_on_c, 8, 64, 83
10, 130008, Note_on_c, 8, 64, 0
10, 130008, Note_on_c, 8, 61, 0
10, 130032, Note_on_c, 8, 62, 84
10, 130032, Note_on_c, 8, 66, 84
10, 130056, Note_on_c, 8, 66, 0
10, 130056, Note_on_c, 8, 62, 0
10, 130080, Note_on_c, 8, 59, 84
10, 130080, Note_on_c, 8, 62, 84
10, 130104, Note_on_c, 8, 62, 0
10, 130104, Note_on_c, 8, 59, 0
10, 130128, Note_on_c, 8, 57, 85
10, 130128, Note_on_c, 8, 61, 85
10, 130152, Note_on_c, 8, 61, 0
10, 130152, Note_on_c, 8, 57, 0
10, 130176, Note_on_c, 8, 55, 86
10, 130176, Note_on_c, 8, 59, 86
10, 130200, Note_on_c, 8, 59, 0
10, 130200, Note_on_c, 8, 55, 0
10, 130224, Note_on_c, 8, 54, 87
10, 130224, Note_on_c, 8, 57, 87
10, 130248, Note_on_c, 8, 57, 0
10, 130248, Note_on_c, 8, 54, 0
10, 130272, Note_on_c, 8, 52, 87
10, 130272, Note_on_c, 8, 55, 87
10, 130296, Note_on_c, 8, 55, 0
10, 130296, Note_on_c, 8, 52, 0
10, 130320, Note_on_c, 8, 50, 88
10, 130320, Note_on_c, 8, 54, 88
10, 130344, Note_on_c, 8, 54, 0
10, 130344, Note_on_c, 8, 50, 0
10, 130368, Note_on_c, 8, 48, 89
10, 130368, Note_on_c, 8, 50, 89
10, 130392, Note_on_c, 8, 50, 0
10, 130392, Note_on_c, 8, 48, 0
10, 130416, Note_on_c, 8, 47, 90
10, 130416, Note_on_c, 8, 50, 90
10, 130440, Note_on_c, 8, 50, 0
10, 130440, Note_on_c, 8, 47, 0
10, 130464, Note_on_c, 8, 49, 90
10, 130464, Note_on_c, 8, 52, 90
10, 130488, Note_on_c, 8, 52, 0
10, 130488, Note_on_c, 8, 49, 0
10, 130512, Note_on_c, 8, 50, 91
10, 130512, Note_on_c, 8, 54, 91
10, 130536, Note_on_c, 8, 54, 0
10, 130536, Note_on_c, 8, 50, 0
10, 130560, Note_on_c, 8, 54, 92
10, 130560, Note_on_c, 8, 57, 92
10, 130584, Note_on_c, 8, 57, 0
10, 130584, Note_on_c, 8, 54, 0
10, 130608, Note_on_c, 8, 57, 93
10, 130608, Note_on_c, 8, 61, 93
10, 130632, Note_on_c, 8, 61, 0
10, 130632, Note_on_c, 8, 57, 0
10, 130656, Note_on_c, 8, 61, 93
10, 130656, Note_on_c, 8, 64, 93
10, 130680, Note_on_c, 8, 64, 0
10, 130680, Note_on_c, 8, 61, 0
10, 130704, Note_on_c, 8, 62, 100
10, 130704, Note_on_c, 8, 66, 100
10, 130728, Note_on_c, 8, 66, 0
10, 130728, Note_on_c, 8, 62, 0
10, 130752, Note_on_c, 8, 61, 100
10, 130752, Note_on_c, 8, 64, 100
10, 130776, Note_on_c, 8, 64, 0
10, 130776, Note_on_c, 8, 61, 0
10, 130800, Note_on_c, 8, 62, 105
10, 130800, Note_on_c, 8, 66, 105
10, 130824, Note_on_c, 8, 66, 0
10, 130824, Note_on_c, 8, 62, 0
10, 130848, Note_on_c, 8, 59, 100
10, 130848, Note_on_c, 8, 62, 100
10, 130872, Note_on_c, 8, 62, 0
10, 130872, Note_on_c, 8, 59, 0
10, 130896, Note_on_c, 8, 57, 100
10, 130896, Note_on_c, 8, 61, 100
10, 130920, Note_on_c, 8, 61, 0
10, 130920, Note_on_c, 8, 57, 0
10, 130944, Note_on_c, 8, 55, 100
10, 130944, Note_on_c, 8, 59, 100
10, 130968, Note_on_c, 8, 59, 0
10, 130968, Note_on_c, 8, 55, 0
10, 130992, Note_on_c, 8, 54, 105
10, 130992, Note_on_c, 8, 57, 105
10, 131016, Note_on_c, 8, 57, 0
10, 131016, Note_on_c, 8, 54, 0
10, 131040, Note_on_c, 8, 52, 100
10, 131040, Note_on_c, 8, 55, 100
10, 131064, Note_on_c, 8, 55, 0
10, 131064, Note_on_c, 8, 52, 0
10, 131088, Note_on_c, 8, 50, 100
10, 131088, Note_on_c, 8, 54, 100
10, 131112, Note_on_c, 8, 54, 0
10, 131112, Note_on_c, 8, 50, 0
10, 131136, Note_on_c, 8, 48, 100
10, 131136, Note_on_c, 8, 60, 100
10, 131160, Note_on_c, 8, 60, 0
10, 131160, Note_on_c, 8, 48, 0
10, 131184, Note_on_c, 8, 47, 105
10, 131184, Note_on_c, 8, 59, 105
10, 131208, Note_on_c, 8, 59, 0
10, 131208, Note_on_c, 8, 47, 0
10, 131232, Note_on_c, 8, 43, 100
10, 131232, Note_on_c, 8, 55, 100
10, 131256, Note_on_c, 8, 55, 0
10, 131256, Note_on_c, 8, 43, 0
10, 131280, Note_on_c, 8, 45, 100
10, 131280, Note_on_c, 8, 57, 100
10, 131304, Note_on_c, 8, 57, 0
10, 131304, Note_on_c, 8, 45, 0
10, 131328, Note_on_c, 8, 45, 100
10, 131328, Note_on_c, 8, 57, 100
10, 131352, Note_on_c, 8, 57, 0
10, 131352, Note_on_c, 8, 45, 0
10, 131376, Note_on_c, 8, 50, 100
10, 131400, Note_on_c, 8, 50, 0
10, 137520, Control_c, 8, 1, 0
10, 137520, Control_c, 8, 11, 100
10, 137520, Note_on_c, 8, 57, 120
10, 137521, Control_c, 8, 11, 90
10, 137521, Control_c, 8, 1, 1
10, 137522, Control_c, 8, 11, 84
10, 137522, Control_c, 8, 1, 2
10, 137523, Control_c, 8, 11, 79
10, 137523, Control_c, 8, 1, 3
10, 137524, Control_c, 8, 11, 75
10, 137525, Control_c, 8, 11, 71
10, 137525, Control_c, 8, 1, 4
10, 137526, Control_c, 8, 11, 69
10, 137527, Control_c, 8, 11, 67
10, 137527, Control_c, 8, 1, 5
10, 137528, Control_c, 8, 11, 65
10, 137529, Control_c, 8, 11, 64
10, 137529, Control_c, 8, 1, 6
10, 137530, Control_c, 8, 11, 63
10, 137531, Control_c, 8, 11, 62
10, 137531, Control_c, 8, 1, 7
10, 137533, Control_c, 8, 11, 61
10, 137533, Control_c, 8, 1, 8
10, 137535, Control_c, 8, 11, 60
10, 137535, Control_c, 8, 1, 9
10, 137538, Control_c, 8, 1, 10
10, 137541, Control_c, 8, 1, 11
10, 137544, Control_c, 8, 1, 12
10, 137547, Control_c, 8, 1, 13
10, 137551, Control_c, 8, 1, 14
10, 137555, Control_c, 8, 1, 15
10, 137559, Control_c, 8, 1, 16
10, 137565, Control_c, 8, 1, 17
10, 137570, Control_c, 8, 1, 18
10, 137579, Control_c, 8, 1, 19
10, 137588, Control_c, 8, 1, 20
10, 137602, Control_c, 8, 1, 21
10, 137626, Control_c, 8, 1, 22
10, 137808, Note_on_c, 8, 57, 0
10, 137808, Note_on_c, 8, 59, 120
10, 137904, Note_on_c, 8, 59, 0
10, 137904, Control_c, 8, 1, 0
10, 137904, Note_on_c, 8, 61, 120
10, 137905, Control_c, 8, 1, 1
10, 137906, Control_c, 8, 1, 2
10, 137907, Control_c, 8, 1, 3
10, 137908, Control_c, 8, 1, 4
10, 137910, Control_c, 8, 1, 5
10, 137911, Control_c, 8, 1, 6
10, 137912, Control_c, 8, 1, 7
10, 137914, Control_c, 8, 1, 8
10, 137916, Control_c, 8, 1, 9
10, 137918, Control_c, 8, 1, 10
10, 137920, Control_c, 8, 1, 11
10, 137922, Control_c, 8, 1, 12
10, 137925, Control_c, 8, 1, 13
10, 137927, Control_c, 8, 1, 14
10, 137930, Control_c, 8, 1, 15
10, 137934, Control_c, 8, 1, 16
10, 137937, Control_c, 8, 1, 17
10, 137942, Control_c, 8, 1, 18
10, 137948, Control_c, 8, 1, 19
10, 137955, Control_c, 8, 1, 20
10, 137965, Control_c, 8, 1, 21
10, 137983, Control_c, 8, 1, 22
10, 138048, Note_on_c, 8, 61, 0
10, 138048, Note_on_c, 8, 62, 120
10, 138072, Note_on_c, 8, 62, 0
10, 138072, Note_on_c, 8, 64, 120
10, 138096, Note_on_c, 8, 64, 0
10, 138096, Control_c, 8, 1, 0
10, 138096, Note_on_c, 8, 62, 120
10, 138120, Note_on_c, 8, 62, 0
10, 138144, Note_on_c, 8, 62, 120
10, 138168, Note_on_c, 8, 62, 0
10, 138192, Note_on_c, 8, 61, 120
10, 138216, Note_on_c, 8, 61, 0
10, 138240, Note_on_c, 8, 61, 120
10, 138264, Note_on_c, 8, 61, 0
10, 138288, Note_on_c, 8, 59, 120
10, 138312, Note_on_c, 8, 59, 0
10, 138384, Control_c, 8, 1, 0
10, 138384, Note_on_c, 8, 57, 120
10, 138385, Control_c, 8, 1, 2
10, 138386, Control_c, 8, 1, 3
10, 138387, Control_c, 8, 1, 4
10, 138389, Control_c, 8, 1, 5
10, 138390, Control_c, 8, 1, 6
10, 138391, Control_c, 8, 1, 7
10, 138393, Control_c, 8, 1, 8
10, 138394, Control_c, 8, 1, 9
10, 138396, Control_c, 8, 1, 10
10, 138398, Control_c, 8, 1, 11
10, 138400, Control_c, 8, 1, 12
10, 138403, Control_c, 8, 1, 13
10, 138406, Control_c, 8, 1, 14
10, 138410, Control_c, 8, 1, 15
10, 138415, Control_c, 8, 1, 16
10, 138422, Control_c, 8, 1, 17
10, 138433, Control_c, 8, 1, 18
10, 138576, Note_on_c, 8, 57, 0
10, 138576, Note_on_c, 8, 59, 120
10, 138672, Note_on_c, 8, 59, 0
10, 138672, Note_on_c, 8, 61, 120
10, 138744, Note_on_c, 8, 61, 0
10, 138768, Control_c, 8, 1, 0
10, 138768, Note_on_c, 8, 57, 120
10, 138768, Note_on_c, 8, 61, 120
10, 138769, Control_c, 8, 1, 2
10, 138770, Control_c, 8, 1, 3
10, 138771, Control_c, 8, 1, 4
10, 138773, Control_c, 8, 1, 5
10, 138774, Control_c, 8, 1, 6
10, 138775, Control_c, 8, 1, 7
10, 138777, Control_c, 8, 1, 8
10, 138778, Control_c, 8, 1, 9
10, 138780, Control_c, 8, 1, 10
10, 138782, Control_c, 8, 1, 11
10, 138784, Control_c, 8, 1, 12
10, 138787, Control_c, 8, 1, 13
10, 138790, Control_c, 8, 1, 14
10, 138794, Control_c, 8, 1, 15
10, 138799, Control_c, 8, 1, 16
10, 138806, Control_c, 8, 1, 17
10, 138817, Control_c, 8, 1, 18
10, 138956, Note_on_c, 8, 61, 0
10, 138956, Note_on_c, 8, 57, 0
10, 138960, Control_c, 8, 1, 0
10, 138960, Note_on_c, 8, 59, 120
10, 138960, Note_on_c, 8, 62, 120
10, 138961, Control_c, 8, 1, 2
10, 138962, Control_c, 8, 1, 3
10, 138963, Control_c, 8, 1, 4
10, 138965, Control_c, 8, 1, 5
10, 138966, Control_c, 8, 1, 6
10, 138967, Control_c, 8, 1, 7
10, 138969, Control_c, 8, 1, 8
10, 138970, Control_c, 8, 1, 9
10, 138972, Control_c, 8, 1, 10
10, 138974, Control_c, 8, 1, 11
10, 138976, Control_c, 8, 1, 12
10, 138979, Control_c, 8, 1, 13
10, 138982, Control_c, 8, 1, 14
10, 138986, Control_c, 8, 1, 15
10, 138991, Control_c, 8, 1, 16
10, 138998, Control_c, 8, 1, 17
10, 139009, Control_c, 8, 1, 18
10, 139056, Note_on_c, 8, 62, 0
10, 139056, Note_on_c, 8, 59, 0
10, 139056, Control_c, 8, 1, 0
10, 139056, Note_on_c, 8, 61, 120
10, 139056, Note_on_c, 8, 64, 120
10, 139057, Control_c, 8, 1, 1
10, 139058, Control_c, 8, 1, 2
10, 139059, Control_c, 8, 1, 3
10, 139061, Control_c, 8, 1, 4
10, 139062, Control_c, 8, 1, 5
10, 139065, Control_c, 8, 1, 6
10, 139067, Control_c, 8, 1, 7
10, 139069, Control_c, 8, 1, 8
10, 139072, Control_c, 8, 1, 9
10, 139077, Control_c, 8, 1, 10
10, 139081, Control_c, 8, 1, 11
10, 139088, Control_c, 8, 1, 12
10, 139100, Control_c, 8, 1, 13
10, 139128, Note_on_c, 8, 64, 0
10, 139128, Note_on_c, 8, 61, 0
10, 139152, Control_c, 8, 1, 0
10, 139152, Note_on_c, 8, 61, 120
10, 139152, Note_on_c, 8, 64, 120
10, 139153, Control_c, 8, 1, 2
10, 139154, Control_c, 8, 1, 3
10, 139155, Control_c, 8, 1, 4
10, 139156, Control_c, 8, 1, 5
10, 139157, Control_c, 8, 1, 6
10, 139158, Control_c, 8, 1, 7
10, 139159, Control_c, 8, 1, 8
10, 139160, Control_c, 8, 1, 9
10, 139162, Control_c, 8, 1, 10
10, 139163, Control_c, 8, 1, 11
10, 139165, Control_c, 8, 1, 12
10, 139167, Control_c, 8, 1, 13
10, 139169, Control_c, 8, 1, 14
10, 139171, Control_c, 8, 1, 15
10, 139174, Control_c, 8, 1, 16
10, 139177, Control_c, 8, 1, 17
10, 139181, Control_c, 8, 1, 18
10, 139186, Control_c, 8, 1, 19
10, 139192, Control_c, 8, 1, 20
10, 139203, Control_c, 8, 1, 21
10, 139340, Note_on_c, 8, 64, 0
10, 139340, Note_on_c, 8, 61, 0
10, 139344, Control_c, 8, 1, 0
10, 139344, Note_on_c, 8, 62, 120
10, 139344, Note_on_c, 8, 66, 120
10, 139345, Control_c, 8, 1, 1
10, 139346, Control_c, 8, 1, 2
10, 139347, Control_c, 8, 1, 3
10, 139348, Control_c, 8, 1, 4
10, 139350, Control_c, 8, 1, 5
10, 139352, Control_c, 8, 1, 6
10, 139354, Control_c, 8, 1, 7
10, 139356, Control_c, 8, 1, 8
10, 139359, Control_c, 8, 1, 9
10, 139362, Control_c, 8, 1, 10
10, 139366, Control_c, 8, 1, 11
10, 139370, Control_c, 8, 1, 12
10, 139378, Control_c, 8, 1, 13
10, 139389, Control_c, 8, 1, 14
10, 139440, Note_on_c, 8, 66, 0
10, 139440, Note_on_c, 8, 62, 0
10, 139440, Note_on_c, 8, 64, 120
10, 139440, Note_on_c, 8, 67, 120
10, 139512, Note_on_c, 8, 67, 0
10, 139512, Note_on_c, 8, 64, 0
10, 139536, Control_c, 8, 1, 0
10, 139536, Note_on_c, 8, 57, 120
10, 139536, Note_on_c, 8, 64, 120
10, 139537, Control_c, 8, 1, 2
10, 139538, Control_c, 8, 1, 3
10, 139539, Control_c, 8, 1, 4
10, 139540, Control_c, 8, 1, 5
10, 139541, Control_c, 8, 1, 6
10, 139542, Control_c, 8, 1, 7
10, 139544, Control_c, 8, 1, 8
10, 139545, Control_c, 8, 1, 9
10, 139547, Control_c, 8, 1, 10
10, 139548, Control_c, 8, 1, 11
10, 139550, Control_c, 8, 1, 12
10, 139552, Control_c, 8, 1, 13
10, 139554, Control_c, 8, 1, 14
10, 139557, Control_c, 8, 1, 15
10, 139560, Control_c, 8, 1, 16
10, 139564, Control_c, 8, 1, 17
10, 139568, Control_c, 8, 1, 18
10, 139575, Control_c, 8, 1, 19
10, 139587, Control_c, 8, 1, 20
10, 139724, Note_on_c, 8, 64, 0
10, 139724, Note_on_c, 8, 57, 0
10, 139728, Control_c, 8, 1, 0
10, 139728, Note_on_c, 8, 57, 120
10, 139728, Note_on_c, 8, 66, 120
10, 139729, Control_c, 8, 1, 2
10, 139730, Control_c, 8, 1, 3
10, 139731, Control_c, 8, 1, 4
10, 139732, Control_c, 8, 1, 5
10, 139733, Control_c, 8, 1, 6
10, 139734, Control_c, 8, 1, 7
10, 139736, Control_c, 8, 1, 8
10, 139737, Control_c, 8, 1, 9
10, 139739, Control_c, 8, 1, 10
10, 139740, Control_c, 8, 1, 11
10, 139742, Control_c, 8, 1, 12
10, 139744, Control_c, 8, 1, 13
10, 139746, Control_c, 8, 1, 14
10, 139749, Control_c, 8, 1, 15
10, 139752, Control_c, 8, 1, 16
10, 139756, Control_c, 8, 1, 17
10, 139760, Control_c, 8, 1, 18
10, 139767, Control_c, 8, 1, 19
10, 139779, Control_c, 8, 1, 20
10, 139824, Note_on_c, 8, 66, 0
10, 139824, Note_on_c, 8, 57, 0
10, 139824, Control_c, 8, 11, 60
10, 139824, Note_on_c, 8, 57, 120
10, 139824, Note_on_c, 8, 67, 120
10, 139867, Control_c, 8, 11, 61
10, 139896, Note_on_c, 8, 67, 0
10, 139896, Note_on_c, 8, 57, 0
10, 139909, Control_c, 8, 11, 62
10, 139920, Control_c, 8, 1, 0
10, 139920, Note_on_c, 8, 57, 120
10, 139920, Note_on_c, 8, 67, 120
10, 139921, Control_c, 8, 1, 2
10, 139923, Control_c, 8, 1, 3
10, 139924, Control_c, 8, 1, 4
10, 139925, Control_c, 8, 1, 5
10, 139927, Control_c, 8, 1, 6
10, 139928, Control_c, 8, 1, 7
10, 139930, Control_c, 8, 1, 8
10, 139932, Control_c, 8, 1, 9
10, 139935, Control_c, 8, 1, 10
10, 139937, Control_c, 8, 1, 11
10, 139940, Control_c, 8, 1, 12
10, 139944, Control_c, 8, 1, 13
10, 139949, Control_c, 8, 1, 14
10, 139951, Control_c, 8, 11, 63
10, 139956, Control_c, 8, 1, 15
10, 139968, Control_c, 8, 1, 16
10, 139993, Control_c, 8, 11, 64
10, 140035, Control_c, 8, 11, 65
10, 140078, Control_c, 8, 11, 66
10, 140108, Note_on_c, 8, 67, 0
10, 140108, Note_on_c, 8, 57, 0
10, 140112, Control_c, 8, 1, 0
10, 140112, Note_on_c, 8, 57, 120
10, 140112, Note_on_c, 8, 67, 120
10, 140113, Control_c, 8, 1, 2
10, 140115, Control_c, 8, 1, 3
10, 140116, Control_c, 8, 1, 4
10, 140117, Control_c, 8, 1, 5
10, 140119, Control_c, 8, 1, 6
10, 140120, Control_c, 8, 11, 67
10, 140120, Control_c, 8, 1, 7
10, 140122, Control_c, 8, 1, 8
10, 140124, Control_c, 8, 1, 9
10, 140126, Control_c, 8, 1, 10
10, 140128, Control_c, 8, 1, 11
10, 140131, Control_c, 8, 1, 12
10, 140135, Control_c, 8, 1, 13
10, 140140, Control_c, 8, 1, 14
10, 140147, Control_c, 8, 1, 15
10, 140158, Control_c, 8, 1, 16
10, 140162, Control_c, 8, 11, 68
10, 140204, Control_c, 8, 11, 69
10, 140246, Control_c, 8, 11, 70
10, 140289, Control_c, 8, 11, 71
10, 140300, Note_on_c, 8, 67, 0
10, 140300, Note_on_c, 8, 57, 0
10, 140304, Control_c, 8, 1, 0
10, 140304, Note_on_c, 8, 57, 120
10, 140304, Note_on_c, 8, 67, 120
10, 140305, Control_c, 8, 1, 2
10, 140307, Control_c, 8, 1, 3
10, 140308, Control_c, 8, 1, 4
10, 140309, Control_c, 8, 1, 5
10, 140311, Control_c, 8, 1, 6
10, 140312, Control_c, 8, 1, 7
10, 140314, Control_c, 8, 1, 8
10, 140316, Control_c, 8, 1, 9
10, 140319, Control_c, 8, 1, 10
10, 140321, Control_c, 8, 1, 11
10, 140324, Control_c, 8, 1, 12
10, 140328, Control_c, 8, 1, 13
10, 140331, Control_c, 8, 11, 72
10, 140333, Control_c, 8, 1, 14
10, 140340, Control_c, 8, 1, 15
10, 140352, Control_c, 8, 1, 16
10, 140373, Control_c, 8, 11, 73
10, 140415, Control_c, 8, 11, 74
10, 140457, Control_c, 8, 11, 75
10, 140492, Note_on_c, 8, 67, 0
10, 140492, Note_on_c, 8, 57, 0
10, 140496, Control_c, 8, 1, 0
10, 140496, Note_on_c, 8, 58, 120
10, 140496, Note_on_c, 8, 67, 120
10, 140497, Control_c, 8, 1, 2
10, 140499, Control_c, 8, 1, 3
10, 140500, Control_c, 8, 11, 76
10, 140500, Control_c, 8, 1, 4
10, 140501, Control_c, 8, 1, 5
10, 140502, Control_c, 8, 1, 6
10, 140504, Control_c, 8, 1, 7
10, 140505, Control_c, 8, 1, 8
10, 140507, Control_c, 8, 1, 9
10, 140509, Control_c, 8, 1, 10
10, 140512, Control_c, 8, 1, 11
10, 140515, Control_c, 8, 1, 12
10, 140518, Control_c, 8, 1, 13
10, 140523, Control_c, 8, 1, 14
10, 140529, Control_c, 8, 1, 15
10, 140540, Control_c, 8, 1, 16
10, 140542, Control_c, 8, 11, 77
10, 140584, Control_c, 8, 11, 78
10, 140626, Control_c, 8, 11, 79
10, 140668, Control_c, 8, 11, 80
10, 140684, Note_on_c, 8, 67, 0
10, 140684, Note_on_c, 8, 58, 0
10, 140688, Control_c, 8, 1, 0
10, 140688, Note_on_c, 8, 60, 120
10, 140688, Note_on_c, 8, 67, 120
10, 140689, Control_c, 8, 1, 2
10, 140691, Control_c, 8, 1, 3
10, 140692, Control_c, 8, 1, 4
10, 140693, Control_c, 8, 1, 5
10, 140695, Control_c, 8, 1, 6
10, 140696, Control_c, 8, 1, 7
10, 140698, Control_c, 8, 1, 8
10, 140700, Control_c, 8, 1, 9
10, 140703, Control_c, 8, 1, 10
10, 140705, Control_c, 8, 1, 11
10, 140708, Control_c, 8, 1, 12
10, 140711, Control_c, 8, 11, 81
10, 140712, Control_c, 8, 1, 13
10, 140717, Control_c, 8, 1, 14
10, 140724, Control_c, 8, 1, 15
10, 140736, Control_c, 8, 1, 16
10, 140753, Control_c, 8, 11, 82
10, 140795, Control_c, 8, 11, 83
10, 140837, Control_c, 8, 11, 84
10, 140876, Note_on_c, 8, 67, 0
10, 140876, Note_on_c, 8, 60, 0
10, 140879, Control_c, 8, 1, 0
10, 140879, Control_c, 8, 11, 85
10, 140880, Control_c, 8, 11, 60
10, 140880, Note_on_c, 8, 60, 120
10, 140880, Note_on_c, 8, 67, 120
10, 140880, Control_c, 8, 1, 2
10, 140882, Control_c, 8, 1, 3
10, 140883, Control_c, 8, 1, 4
10, 140884, Control_c, 8, 1, 5
10, 140886, Control_c, 8, 1, 6
10, 140887, Control_c, 8, 1, 7
10, 140889, Control_c, 8, 1, 8
10, 140892, Control_c, 8, 1, 9
10, 140894, Control_c, 8, 1, 10
10, 140896, Control_c, 8, 1, 11
10, 140899, Control_c, 8, 1, 12
10, 140904, Control_c, 8, 1, 13
10, 140908, Control_c, 8, 1, 14
10, 140916, Control_c, 8, 1, 15
10, 140928, Control_c, 8, 1, 16
10, 141072, Note_on_c, 8, 67, 0
10, 141072, Note_on_c, 8, 60, 0
10, 141072, Note_on_c, 8, 60, 120
10, 141072, Note_on_c, 8, 64, 120
10, 141168, Note_on_c, 8, 65, 120
10, 141169, Note_on_c, 8, 64, 0
10, 141264, Note_on_c, 8, 65, 0
10, 141264, Note_on_c, 8, 60, 0
10, 141264, Control_c, 8, 11, 60
10, 141264, Note_on_c, 8, 60, 120
10, 141264, Note_on_c, 8, 64, 120
10, 141274, Control_c, 8, 11, 61
10, 141284, Control_c, 8, 11, 62
10, 141293, Control_c, 8, 11, 63
10, 141303, Control_c, 8, 11, 64
10, 141312, Control_c, 8, 11, 65
10, 141322, Control_c, 8, 11, 66
10, 141331, Control_c, 8, 11, 67
10, 141341, Control_c, 8, 11, 68
10, 141351, Control_c, 8, 11, 69
10, 141360, Control_c, 8, 11, 70
10, 141370, Control_c, 8, 11, 71
10, 141379, Control_c, 8, 11, 72
10, 141389, Control_c, 8, 11, 73
10, 141398, Control_c, 8, 11, 74
10, 141408, Control_c, 8, 11, 75
10, 141418, Control_c, 8, 11, 76
10, 141427, Control_c, 8, 11, 77
10, 141437, Control_c, 8, 11, 78
10, 141446, Control_c, 8, 11, 79
10, 141456, Note_on_c, 8, 64, 0
10, 141456, Note_on_c, 8, 60, 0
10, 141456, Note_on_c, 8, 61, 120
10, 141456, Note_on_c, 8, 64, 120
10, 141456, Control_c, 8, 11, 80
10, 141465, Control_c, 8, 11, 81
10, 141475, Control_c, 8, 11, 82
10, 141485, Control_c, 8, 11, 83
10, 141494, Control_c, 8, 11, 84
10, 141504, Note_on_c, 8, 64, 0
10, 141504, Note_on_c, 8, 61, 0
10, 141504, Note_on_c, 8, 62, 120
10, 141504, Note_on_c, 8, 66, 120
10, 141504, Control_c, 8, 11, 85
10, 141513, Control_c, 8, 11, 86
10, 141523, Control_c, 8, 11, 87
10, 141532, Control_c, 8, 11, 88
10, 141542, Control_c, 8, 11, 89
10, 141551, Control_c, 8, 11, 90
10, 141552, Control_c, 8, 11, 100
10, 141553, Control_c, 8, 11, 95
10, 141554, Control_c, 8, 11, 91
10, 141555, Control_c, 8, 11, 87
10, 141556, Control_c, 8, 11, 84
10, 141557, Control_c, 8, 11, 81
10, 141558, Control_c, 8, 11, 79
10, 141559, Control_c, 8, 11, 77
10, 141560, Control_c, 8, 11, 75
10, 141561, Control_c, 8, 11, 73
10, 141562, Control_c, 8, 11, 72
10, 141563, Control_c, 8, 11, 70
10, 141564, Control_c, 8, 11, 69
10, 141565, Control_c, 8, 11, 68
10, 141566, Control_c, 8, 11, 67
10, 141567, Control_c, 8, 11, 66
10, 141568, Control_c, 8, 11, 65
10, 141570, Control_c, 8, 11, 64
10, 141572, Control_c, 8, 11, 63
10, 141574, Control_c, 8, 11, 62
10, 141578, Control_c, 8, 11, 61
10, 141583, Control_c, 8, 11, 60
10, 141597, Note_on_c, 8, 66, 0
10, 141597, Note_on_c, 8, 62, 0
10, 141624, Control_c, 8, 1, 0
10, 141624, Control_c, 8, 11, 120
10, 141648, Note_on_c, 8, 62, 60
10, 141648, Note_on_c, 8, 66, 60
10, 141672, Note_on_c, 8, 66, 0
10, 141672, Note_on_c, 8, 62, 0
10, 141696, Note_on_c, 8, 61, 60
10, 141696, Note_on_c, 8, 64, 60
10, 141720, Note_on_c, 8, 64, 0
10, 141720, Note_on_c, 8, 61, 0
10, 141744, Note_on_c, 8, 62, 60
10, 141744, Note_on_c, 8, 66, 60
10, 141768, Note_on_c, 8, 66, 0
10, 141768, Note_on_c, 8, 62, 0
10, 141792, Note_on_c, 8, 59, 60
10, 141792, Note_on_c, 8, 62, 60
10, 141816, Note_on_c, 8, 62, 0
10, 141816, Note_on_c, 8, 59, 0
10, 141840, Note_on_c, 8, 57, 61
10, 141840, Note_on_c, 8, 61, 61
10, 141864, Note_on_c, 8, 61, 0
10, 141864, Note_on_c, 8, 57, 0
10, 141888, Note_on_c, 8, 55, 62
10, 141888, Note_on_c, 8, 59, 62
10, 141912, Note_on_c, 8, 59, 0
10, 141912, Note_on_c, 8, 55, 0
10, 141936, Note_on_c, 8, 54, 63
10, 141936, Note_on_c, 8, 57, 63
10, 141960, Note_on_c, 8, 57, 0
10, 141960, Note_on_c, 8, 54, 0
10, 141984, Note_on_c, 8, 52, 63
10, 141984, Note_on_c, 8, 55, 63
10, 142008, Note_on_c, 8, 55, 0
10, 142008, Note_on_c, 8, 52, 0
10, 142032, Note_on_c, 8, 50, 64
10, 142032, Note_on_c, 8, 54, 64
10, 142056, Note_on_c, 8, 54, 0
10, 142056, Note_on_c, 8, 50, 0
10, 142080, Note_on_c, 8, 48, 65
10, 142080, Note_on_c, 8, 50, 65
10, 142104, Note_on_c, 8, 50, 0
10, 142104, Note_on_c, 8, 48, 0
10, 142128, Note_on_c, 8, 47, 66
10, 142128, Note_on_c, 8, 50, 66
10, 142152, Note_on_c, 8, 50, 0
10, 142152, Note_on_c, 8, 47, 0
10, 142176, Note_on_c, 8, 49, 66
10, 142176, Note_on_c, 8, 52, 66
10, 142200, Note_on_c, 8, 52, 0
10, 142200, Note_on_c, 8, 49, 0
10, 142224, Note_on_c, 8, 50, 67
10, 142224, Note_on_c, 8, 54, 67
10, 142248, Note_on_c, 8, 54, 0
10, 142248, Note_on_c, 8, 50, 0
10, 142272, Note_on_c, 8, 54, 68
10, 142272, Note_on_c, 8, 57, 68
10, 142296, Note_on_c, 8, 57, 0
10, 142296, Note_on_c, 8, 54, 0
10, 142320, Note_on_c, 8, 57, 69
10, 142320, Note_on_c, 8, 61, 69
10, 142344, Note_on_c, 8, 61, 0
10, 142344, Note_on_c, 8, 57, 0
10, 142368, Note_on_c, 8, 61, 69
10, 142368, Note_on_c, 8, 64, 69
10, 142392, Note_on_c, 8, 64, 0
10, 142392, Note_on_c, 8, 61, 0
10, 142416, Note_on_c, 8, 62, 70
10, 142416, Note_on_c, 8, 66, 70
10, 142440, Note_on_c, 8, 66, 0
10, 142440, Note_on_c, 8, 62, 0
10, 142464, Note_on_c, 8, 61, 71
10, 142464, Note_on_c, 8, 64, 71
10, 142488, Note_on_c, 8, 64, 0
10, 142488, Note_on_c, 8, 61, 0
10, 142512, Note_on_c, 8, 62, 72
10, 142512, Note_on_c, 8, 66, 72
10, 142536, Note_on_c, 8, 66, 0
10, 142536, Note_on_c, 8, 62, 0
10, 142560, Note_on_c, 8, 59, 72
10, 142560, Note_on_c, 8, 62, 72
10, 142584, Note_on_c, 8, 62, 0
10, 142584, Note_on_c, 8, 59, 0
10, 142608, Note_on_c, 8, 57, 73
10, 142608, Note_on_c, 8, 61, 73
10, 142632, Note_on_c, 8, 61, 0
10, 142632, Note_on_c, 8, 57, 0
10, 142656, Note_on_c, 8, 55, 74
10, 142656, Note_on_c, 8, 59, 74
10, 142680, Note_on_c, 8, 59, 0
10, 142680, Note_on_c, 8, 55, 0
10, 142704, Note_on_c, 8, 54, 75
10, 142704, Note_on_c, 8, 57, 75
10, 142728, Note_on_c, 8, 57, 0
10, 142728, Note_on_c, 8, 54, 0
10, 142752, Note_on_c, 8, 52, 75
10, 142752, Note_on_c, 8, 55, 75
10, 142776, Note_on_c, 8, 55, 0
10, 142776, Note_on_c, 8, 52, 0
10, 142800, Note_on_c, 8, 50, 76
10, 142800, Note_on_c, 8, 54, 76
10, 142824, Note_on_c, 8, 54, 0
10, 142824, Note_on_c, 8, 50, 0
10, 142848, Note_on_c, 8, 48, 77
10, 142848, Note_on_c, 8, 50, 77
10, 142872, Note_on_c, 8, 50, 0
10, 142872, Note_on_c, 8, 48, 0
10, 142896, Note_on_c, 8, 47, 78
10, 142896, Note_on_c, 8, 50, 78
10, 142920, Note_on_c, 8, 50, 0
10, 142920, Note_on_c, 8, 47, 0
10, 142944, Note_on_c, 8, 49, 78
10, 142944, Note_on_c, 8, 52, 78
10, 142968, Note_on_c, 8, 52, 0
10, 142968, Note_on_c, 8, 49, 0
10, 142992, Note_on_c, 8, 50, 79
10, 142992, Note_on_c, 8, 54, 79
10, 143016, Note_on_c, 8, 54, 0
10, 143016, Note_on_c, 8, 50, 0
10, 143040, Note_on_c, 8, 54, 80
10, 143040, Note_on_c, 8, 57, 80
10, 143064, Note_on_c, 8, 57, 0
10, 143064, Note_on_c, 8, 54, 0
10, 143088, Note_on_c, 8, 57, 81
10, 143088, Note_on_c, 8, 61, 81
10, 143112, Note_on_c, 8, 61, 0
10, 143112, Note_on_c, 8, 57, 0
10, 143136, Note_on_c, 8, 61, 81
10, 143136, Note_on_c, 8, 64, 81
10, 143160, Note_on_c, 8, 64, 0
10, 143160, Note_on_c, 8, 61, 0
10, 143184, Note_on_c, 8, 62, 82
10, 143184, Note_on_c, 8, 66, 82
10, 143208, Note_on_c, 8, 66, 0
10, 143208, Note_on_c, 8, 62, 0
10, 143232, Note_on_c, 8, 61, 83
10, 143232, Note_on_c, 8, 64, 83
10, 143256, Note_on_c, 8, 64, 0
10, 143256, Note_on_c, 8, 61, 0
10, 143280, Note_on_c, 8, 62, 84
10, 143280, Note_on_c, 8, 66, 84
10, 143304, Note_on_c, 8, 66, 0
10, 143304, Note_on_c, 8, 62, 0
10, 143328, Note_on_c, 8, 59, 84
10, 143328, Note_on_c, 8, 62, 84
10, 143352, Note_on_c, 8, 62, 0
10, 143352, Note_on_c, 8, 59, 0
10, 143376, Note_on_c, 8, 57, 85
10, 143376, Note_on_c, 8, 61, 85
10, 143400, Note_on_c, 8, 61, 0
10, 143400, Note_on_c, 8, 57, 0
10, 143424, Note_on_c, 8, 55, 86
10, 143424, Note_on_c, 8, 59, 86
10, 143448, Note_on_c, 8, 59, 0
10, 143448, Note_on_c, 8, 55, 0
10, 143472, Note_on_c, 8, 54, 87
10, 143472, Note_on_c, 8, 57, 87
10, 143496, Note_on_c, 8, 57, 0
10, 143496, Note_on_c, 8, 54, 0
10, 143520, Note_on_c, 8, 52, 87
10, 143520, Note_on_c, 8, 55, 87
10, 143544, Note_on_c, 8, 55, 0
10, 143544, Note_on_c, 8, 52, 0
10, 143568, Note_on_c, 8, 50, 88
10, 143568, Note_on_c, 8, 54, 88
10, 143592, Note_on_c, 8, 54, 0
10, 143592, Note_on_c, 8, 50, 0
10, 143616, Note_on_c, 8, 48, 89
10, 143616, Note_on_c, 8, 50, 89
10, 143640, Note_on_c, 8, 50, 0
10, 143640, Note_on_c, 8, 48, 0
10, 143664, Note_on_c, 8, 47, 90
10, 143664, Note_on_c, 8, 50, 90
10, 143688, Note_on_c, 8, 50, 0
10, 143688, Note_on_c, 8, 47, 0
10, 143712, Note_on_c, 8, 49, 90
10, 143712, Note_on_c, 8, 52, 90
10, 143736, Note_on_c, 8, 52, 0
10, 143736, Note_on_c, 8, 49, 0
10, 143760, Note_on_c, 8, 50, 91
10, 143760, Note_on_c, 8, 54, 91
10, 143784, Note_on_c, 8, 54, 0
10, 143784, Note_on_c, 8, 50, 0
10, 143808, Note_on_c, 8, 54, 92
10, 143808, Note_on_c, 8, 57, 92
10, 143832, Note_on_c, 8, 57, 0
10, 143832, Note_on_c, 8, 54, 0
10, 143856, Note_on_c, 8, 57, 93
10, 143856, Note_on_c, 8, 61, 93
10, 143880, Note_on_c, 8, 61, 0
10, 143880, Note_on_c, 8, 57, 0
10, 143904, Note_on_c, 8, 61, 93
10, 143904, Note_on_c, 8, 64, 93
10, 143928, Note_on_c, 8, 64, 0
10, 143928, Note_on_c, 8, 61, 0
10, 143952, Note_on_c, 8, 62, 100
10, 143952, Note_on_c, 8, 66, 100
10, 143976, Note_on_c, 8, 66, 0
10, 143976, Note_on_c, 8, 62, 0
10, 144000, Note_on_c, 8, 61, 100
10, 144000, Note_on_c, 8, 64, 100
10, 144024, Note_on_c, 8, 64, 0
10, 144024, Note_on_c, 8, 61, 0
10, 144048, Note_on_c, 8, 62, 105
10, 144048, Note_on_c, 8, 66, 105
10, 144072, Note_on_c, 8, 66, 0
10, 144072, Note_on_c, 8, 62, 0
10, 144096, Note_on_c, 8, 59, 100
10, 144096, Note_on_c, 8, 62, 100
10, 144120, Note_on_c, 8, 62, 0
10, 144120, Note_on_c, 8, 59, 0
10, 144144, Note_on_c, 8, 57, 100
10, 144144, Note_on_c, 8, 61, 100
10, 144168, Note_on_c, 8, 61, 0
10, 144168, Note_on_c, 8, 57, 0
10, 144192, Note_on_c, 8, 55, 100
10, 144192, Note_on_c, 8, 59, 100
10, 144216, Note_on_c, 8, 59, 0
10, 144216, Note_on_c, 8, 55, 0
10, 144240, Note_on_c, 8, 54, 105
10, 144240, Note_on_c, 8, 57, 105
10, 144264, Note_on_c, 8, 57, 0
10, 144264, Note_on_c, 8, 54, 0
10, 144288, Note_on_c, 8, 52, 100
10, 144288, Note_on_c, 8, 55, 100
10, 144312, Note_on_c, 8, 55, 0
10, 144312, Note_on_c, 8, 52, 0
10, 144336, Note_on_c, 8, 50, 100
10, 144336, Note_on_c, 8, 54, 100
10, 144360, Note_on_c, 8, 54, 0
10, 144360, Note_on_c, 8, 50, 0
10, 144384, Note_on_c, 8, 48, 100
10, 144384, Note_on_c, 8, 60, 100
10, 144408, Note_on_c, 8, 60, 0
10, 144408, Note_on_c, 8, 48, 0
10, 144432, Note_on_c, 8, 47, 105
10, 144432, Note_on_c, 8, 59, 105
10, 144456, Note_on_c, 8, 59, 0
10, 144456, Note_on_c, 8, 47, 0
10, 144480, Note_on_c, 8, 43, 100
10, 144480, Note_on_c, 8, 55, 100
10, 144504, Note_on_c, 8, 55, 0
10, 144504, Note_on_c, 8, 43, 0
10, 144528, Note_on_c, 8, 45, 100
10, 144528, Note_on_c, 8, 57, 100
10, 144552, Note_on_c, 8, 57, 0
10, 144552, Note_on_c, 8, 45, 0
10, 144576, Note_on_c, 8, 45, 100
10, 144576, Note_on_c, 8, 57, 100
10, 144600, Note_on_c, 8, 57, 0
10, 144600, Note_on_c, 8, 45, 0
10, 144624, Note_on_c, 8, 50, 120
10, 144648, Note_on_c, 8, 50, 0
10, 144720, Control_c, 8, 11, 120
10, 144720, Note_on_c, 8, 62, 62
10, 144744, Note_on_c, 8, 62, 0
10, 144768, Note_on_c, 8, 61, 61
10, 144792, Note_on_c, 8, 61, 0
10, 144816, Note_on_c, 8, 62, 62
10, 144840, Note_on_c, 8, 62, 0
10, 144864, Note_on_c, 8, 59, 59
10, 144888, Note_on_c, 8, 59, 0
10, 144912, Note_on_c, 8, 57, 57
10, 144936, Note_on_c, 8, 57, 0
10, 144960, Note_on_c, 8, 55, 55
10, 144984, Note_on_c, 8, 55, 0
10, 145008, Note_on_c, 8, 54, 54
10, 145032, Note_on_c, 8, 54, 0
10, 145056, Note_on_c, 8, 64, 64
10, 145080, Note_on_c, 8, 64, 0
10, 145104, Note_on_c, 8, 62, 62
10, 145128, Note_on_c, 8, 62, 0
10, 145152, Note_on_c, 8, 60, 60
10, 145176, Note_on_c, 8, 60, 0
10, 145200, Note_on_c, 8, 59, 59
10, 145224, Note_on_c, 8, 59, 0
10, 145248, Note_on_c, 8, 61, 60
10, 145272, Note_on_c, 8, 61, 0
10, 145296, Note_on_c, 8, 62, 61
10, 145320, Note_on_c, 8, 62, 0
10, 145344, Note_on_c, 8, 66, 66
10, 145368, Note_on_c, 8, 66, 0
10, 145392, Note_on_c, 8, 69, 69
10, 145416, Note_on_c, 8, 69, 0
10, 145440, Note_on_c, 8, 61, 61
10, 145464, Note_on_c, 8, 61, 0
10, 145488, Note_on_c, 8, 62, 62
10, 145512, Note_on_c, 8, 62, 0
10, 145536, Note_on_c, 8, 61, 61
10, 145560, Note_on_c, 8, 61, 0
10, 145584, Note_on_c, 8, 62, 62
10, 145608, Note_on_c, 8, 62, 0
10, 145632, Note_on_c, 8, 59, 63
10, 145656, Note_on_c, 8, 59, 0
10, 145680, Note_on_c, 8, 57, 64
10, 145704, Note_on_c, 8, 57, 0
10, 145728, Note_on_c, 8, 55, 65
10, 145752, Note_on_c, 8, 55, 0
10, 145776, Note_on_c, 8, 54, 66
10, 145800, Note_on_c, 8, 54, 0
10, 145824, Note_on_c, 8, 50, 67
10, 145848, Note_on_c, 8, 50, 0
10, 145872, Note_on_c, 8, 66, 69
10, 145896, Note_on_c, 8, 66, 0
10, 145920, Note_on_c, 8, 64, 70
10, 145944, Note_on_c, 8, 64, 0
10, 145968, Note_on_c, 8, 66, 71
10, 145992, Note_on_c, 8, 66, 0
10, 146016, Note_on_c, 8, 62, 72
10, 146040, Note_on_c, 8, 62, 0
10, 146064, Note_on_c, 8, 61, 73
10, 146088, Note_on_c, 8, 61, 0
10, 146112, Note_on_c, 8, 59, 74
10, 146136, Note_on_c, 8, 59, 0
10, 146160, Note_on_c, 8, 57, 75
10, 146184, Note_on_c, 8, 57, 0
10, 146208, Note_on_c, 8, 54, 76
10, 146232, Note_on_c, 8, 54, 0
10, 146256, Note_on_c, 8, 69, 78
10, 146280, Note_on_c, 8, 69, 0
10, 146304, Note_on_c, 8, 68, 79
10, 146328, Note_on_c, 8, 68, 0
10, 146352, Note_on_c, 8, 69, 80
10, 146376, Note_on_c, 8, 69, 0
10, 146400, Note_on_c, 8, 66, 81
10, 146424, Note_on_c, 8, 66, 0
10, 146448, Note_on_c, 8, 64, 82
10, 146472, Note_on_c, 8, 64, 0
10, 146496, Note_on_c, 8, 61, 83
10, 146520, Note_on_c, 8, 61, 0
10, 146544, Note_on_c, 8, 57, 84
10, 146568, Note_on_c, 8, 57, 0
10, 146592, Note_on_c, 8, 68, 85
10, 146616, Note_on_c, 8, 68, 0
10, 146640, Note_on_c, 8, 69, 87
10, 146664, Note_on_c, 8, 69, 0
10, 146688, Note_on_c, 8, 68, 88
10, 146712, Note_on_c, 8, 68, 0
10, 146736, Note_on_c, 8, 69, 89
10, 146760, Note_on_c, 8, 69, 0
10, 146784, Note_on_c, 8, 66, 90
10, 146808, Note_on_c, 8, 66, 0
10, 146832, Note_on_c, 8, 64, 91
10, 146856, Note_on_c, 8, 64, 0
10, 146880, Note_on_c, 8, 61, 92
10, 146904, Note_on_c, 8, 61, 0
10, 146928, Note_on_c, 8, 57, 95
10, 146952, Note_on_c, 8, 57, 0
10, 146976, Note_on_c, 8, 62, 95
10, 147000, Note_on_c, 8, 62, 0
10, 147024, Note_on_c, 8, 64, 95
10, 147048, Note_on_c, 8, 64, 0
10, 147072, Note_on_c, 8, 62, 95
10, 147096, Note_on_c, 8, 62, 0
10, 147120, Note_on_c, 8, 57, 95
10, 147144, Note_on_c, 8, 57, 0
10, 147168, Note_on_c, 8, 64, 95
10, 147192, Note_on_c, 8, 64, 0
10, 147216, Note_on_c, 8, 66, 95
10, 147240, Note_on_c, 8, 66, 0
10, 147264, Note_on_c, 8, 64, 95
10, 147288, Note_on_c, 8, 64, 0
10, 147312, Note_on_c, 8, 57, 95
10, 147336, Note_on_c, 8, 57, 0
10, 147360, Note_on_c, 8, 62, 92
10, 147384, Note_on_c, 8, 62, 0
10, 147408, Note_on_c, 8, 64, 88
10, 147432, Note_on_c, 8, 64, 0
10, 147456, Note_on_c, 8, 62, 84
10, 147480, Note_on_c, 8, 62, 0
10, 147504, Note_on_c, 8, 57, 80
10, 147528, Note_on_c, 8, 57, 0
10, 147552, Note_on_c, 8, 64, 77
10, 147576, Note_on_c, 8, 64, 0
10, 147600, Note_on_c, 8, 66, 73
10, 147624, Note_on_c, 8, 66, 0
10, 147648, Note_on_c, 8, 64, 69
10, 147672, Note_on_c, 8, 64, 0
10, 147696, Control_c, 8, 1, 0
10, 147696, Control_c, 8, 11, 65
10, 147696, Note_on_c, 8, 62, 120
10, 147697, Control_c, 8, 1, 2
10, 147698, Control_c, 8, 1, 3
10, 147699, Control_c, 8, 1, 4
10, 147700, Control_c, 8, 1, 5
10, 147702, Control_c, 8, 1, 6
10, 147703, Control_c, 8, 1, 7
10, 147704, Control_c, 8, 1, 8
10, 147705, Control_c, 8, 1, 9
10, 147707, Control_c, 8, 1, 10
10, 147709, Control_c, 8, 1, 11
10, 147711, Control_c, 8, 1, 12
10, 147713, Control_c, 8, 1, 13
10, 147716, Control_c, 8, 1, 14
10, 147719, Control_c, 8, 1, 15
10, 147723, Control_c, 8, 1, 16
10, 147728, Control_c, 8, 1, 17
10, 147735, Control_c, 8, 1, 18
10, 147746, Control_c, 8, 1, 19
10, 147788, Note_on_c, 8, 62, 0
10, 147792, Control_c, 8, 11, 65
10, 147792, Control_c, 8, 1, 0
10, 147792, Note_on_c, 8, 50, 120
10, 147793, Control_c, 8, 1, 1
10, 147794, Control_c, 8, 1, 2
10, 147795, Control_c, 8, 1, 3
10, 147796, Control_c, 8, 1, 4
10, 147798, Control_c, 8, 1, 5
10, 147800, Control_c, 8, 1, 6
10, 147802, Control_c, 8, 1, 7
10, 147804, Control_c, 8, 1, 8
10, 147806, Control_c, 8, 1, 9
10, 147809, Control_c, 8, 1, 10
10, 147811, Control_c, 8, 1, 11
10, 147814, Control_c, 8, 1, 12
10, 147818, Control_c, 8, 1, 13
10, 147822, Control_c, 8, 1, 14
10, 147827, Control_c, 8, 1, 15
10, 147832, Control_c, 8, 1, 16
10, 147839, Control_c, 8, 1, 17
10, 147840, Control_c, 8, 11, 66
10, 147850, Control_c, 8, 1, 18
10, 147867, Control_c, 8, 1, 19
10, 147888, Control_c, 8, 11, 67
10, 147936, Control_c, 8, 11, 68
10, 147982, Note_on_c, 8, 50, 0
10, 147984, Control_c, 8, 1, 0
10, 147984, Note_on_c, 8, 52, 120
10, 147984, Control_c, 8, 11, 69
10, 147985, Control_c, 8, 1, 2
10, 147986, Control_c, 8, 1, 3
10, 147987, Control_c, 8, 1, 4
10, 147988, Control_c, 8, 1, 5
10, 147990, Control_c, 8, 1, 6
10, 147991, Control_c, 8, 1, 7
10, 147992, Control_c, 8, 1, 8
10, 147993, Control_c, 8, 1, 9
10, 147995, Control_c, 8, 1, 10
10, 147997, Control_c, 8, 1, 11
10, 147999, Control_c, 8, 1, 12
10, 148001, Control_c, 8, 1, 13
10, 148004, Control_c, 8, 1, 14
10, 148007, Control_c, 8, 1, 15
10, 148011, Control_c, 8, 1, 16
10, 148016, Control_c, 8, 1, 17
10, 148023, Control_c, 8, 1, 18
10, 148032, Control_c, 8, 11, 70
10, 148034, Control_c, 8, 1, 19
10, 148076, Note_on_c, 8, 52, 0
10, 148080, Control_c, 8, 1, 0
10, 148080, Note_on_c, 8, 54, 120
10, 148080, Control_c, 8, 11, 71
10, 148128, Control_c, 8, 11, 72
10, 148172, Note_on_c, 8, 54, 0
10, 148176, Control_c, 8, 1, 0
10, 148176, Note_on_c, 8, 50, 120
10, 148176, Note_on_c, 8, 54, 120
10, 148176, Control_c, 8, 11, 73
10, 148177, Control_c, 8, 1, 1
10, 148178, Control_c, 8, 1, 2
10, 148179, Control_c, 8, 1, 3
10, 148180, Control_c, 8, 1, 4
10, 148182, Control_c, 8, 1, 5
10, 148184, Control_c, 8, 1, 6
10, 148185, Control_c, 8, 1, 7
10, 148187, Control_c, 8, 1, 8
10, 148189, Control_c, 8, 1, 9
10, 148192, Control_c, 8, 1, 10
10, 148194, Control_c, 8, 1, 11
10, 148197, Control_c, 8, 1, 12
10, 148200, Control_c, 8, 1, 13
10, 148203, Control_c, 8, 1, 14
10, 148207, Control_c, 8, 1, 15
10, 148212, Control_c, 8, 1, 16
10, 148217, Control_c, 8, 1, 17
10, 148224, Control_c, 8, 11, 74
10, 148225, Control_c, 8, 1, 18
10, 148235, Control_c, 8, 1, 19
10, 148253, Control_c, 8, 1, 20
10, 148272, Control_c, 8, 11, 75
10, 148320, Control_c, 8, 11, 76
10, 148366, Note_on_c, 8, 54, 0
10, 148366, Note_on_c, 8, 50, 0
10, 148368, Control_c, 8, 1, 0
10, 148368, Note_on_c, 8, 52, 120
10, 148368, Note_on_c, 8, 55, 120
10, 148368, Control_c, 8, 11, 77
10, 148369, Control_c, 8, 1, 2
10, 148370, Control_c, 8, 1, 3
10, 148371, Control_c, 8, 1, 4
10, 148373, Control_c, 8, 1, 5
10, 148374, Control_c, 8, 1, 6
10, 148376, Control_c, 8, 1, 7
10, 148377, Control_c, 8, 1, 8
10, 148379, Control_c, 8, 1, 9
10, 148381, Control_c, 8, 1, 10
10, 148383, Control_c, 8, 1, 11
10, 148386, Control_c, 8, 1, 12
10, 148389, Control_c, 8, 1, 13
10, 148393, Control_c, 8, 1, 14
10, 148398, Control_c, 8, 1, 15
10, 148404, Control_c, 8, 1, 16
10, 148416, Control_c, 8, 11, 78
10, 148416, Control_c, 8, 1, 17
10, 148460, Note_on_c, 8, 55, 0
10, 148460, Note_on_c, 8, 52, 0
10, 148464, Control_c, 8, 1, 0
10, 148464, Note_on_c, 8, 54, 120
10, 148464, Note_on_c, 8, 57, 120
10, 148464, Control_c, 8, 11, 79
10, 148465, Control_c, 8, 1, 2
10, 148466, Control_c, 8, 1, 3
10, 148467, Control_c, 8, 1, 4
10, 148469, Control_c, 8, 1, 5
10, 148470, Control_c, 8, 1, 6
10, 148472, Control_c, 8, 1, 7
10, 148473, Control_c, 8, 1, 8
10, 148475, Control_c, 8, 1, 9
10, 148477, Control_c, 8, 1, 10
10, 148479, Control_c, 8, 1, 11
10, 148482, Control_c, 8, 1, 12
10, 148485, Control_c, 8, 1, 13
10, 148489, Control_c, 8, 1, 14
10, 148494, Control_c, 8, 1, 15
10, 148500, Control_c, 8, 1, 16
10, 148512, Control_c, 8, 11, 80
10, 148512, Control_c, 8, 1, 17
10, 148556, Note_on_c, 8, 57, 0
10, 148556, Note_on_c, 8, 54, 0
10, 148560, Control_c, 8, 1, 0
10, 148560, Note_on_c, 8, 54, 120
10, 148560, Note_on_c, 8, 57, 120
10, 148560, Control_c, 8, 11, 81
10, 148561, Control_c, 8, 1, 1
10, 148562, Control_c, 8, 1, 2
10, 148563, Control_c, 8, 1, 3
10, 148564, Control_c, 8, 1, 4
10, 148566, Control_c, 8, 1, 5
10, 148568, Control_c, 8, 1, 6
10, 148569, Control_c, 8, 1, 7
10, 148571, Control_c, 8, 1, 8
10, 148573, Control_c, 8, 1, 9
10, 148576, Control_c, 8, 1, 10
10, 148578, Control_c, 8, 1, 11
10, 148581, Control_c, 8, 1, 12
10, 148584, Control_c, 8, 1, 13
10, 148587, Control_c, 8, 1, 14
10, 148591, Control_c, 8, 1, 15
10, 148596, Control_c, 8, 1, 16
10, 148601, Control_c, 8, 1, 17
10, 148608, Control_c, 8, 11, 82
10, 148609, Control_c, 8, 1, 18
10, 148619, Control_c, 8, 1, 19
10, 148637, Control_c, 8, 1, 20
10, 148656, Control_c, 8, 11, 83
10, 148704, Control_c, 8, 11, 84
10, 148750, Note_on_c, 8, 57, 0
10, 148750, Note_on_c, 8, 54, 0
10, 148752, Control_c, 8, 1, 0
10, 148752, Note_on_c, 8, 55, 120
10, 148752, Note_on_c, 8, 61, 120
10, 148752, Control_c, 8, 11, 85
10, 148753, Control_c, 8, 1, 2
10, 148754, Control_c, 8, 1, 3
10, 148755, Control_c, 8, 1, 4
10, 148757, Control_c, 8, 1, 5
10, 148758, Control_c, 8, 1, 6
10, 148760, Control_c, 8, 1, 7
10, 148761, Control_c, 8, 1, 8
10, 148763, Control_c, 8, 1, 9
10, 148765, Control_c, 8, 1, 10
10, 148767, Control_c, 8, 1, 11
10, 148770, Control_c, 8, 1, 12
10, 148773, Control_c, 8, 1, 13
10, 148777, Control_c, 8, 1, 14
10, 148782, Control_c, 8, 1, 15
10, 148788, Control_c, 8, 1, 16
10, 148800, Control_c, 8, 11, 86
10, 148800, Control_c, 8, 1, 17
10, 148844, Note_on_c, 8, 61, 0
10, 148844, Note_on_c, 8, 55, 0
10, 148848, Control_c, 8, 1, 0
10, 148848, Note_on_c, 8, 54, 120
10, 148848, Note_on_c, 8, 62, 120
10, 148848, Control_c, 8, 11, 87
10, 148849, Control_c, 8, 1, 2
10, 148850, Control_c, 8, 1, 3
10, 148851, Control_c, 8, 1, 4
10, 148852, Control_c, 8, 1, 5
10, 148854, Control_c, 8, 1, 6
10, 148855, Control_c, 8, 1, 7
10, 148856, Control_c, 8, 1, 8
10, 148857, Control_c, 8, 1, 9
10, 148859, Control_c, 8, 1, 10
10, 148861, Control_c, 8, 1, 11
10, 148863, Control_c, 8, 1, 12
10, 148865, Control_c, 8, 1, 13
10, 148868, Control_c, 8, 1, 14
10, 148871, Control_c, 8, 1, 15
10, 148875, Control_c, 8, 1, 16
10, 148880, Control_c, 8, 1, 17
10, 148887, Control_c, 8, 1, 18
10, 148896, Control_c, 8, 11, 88
10, 148898, Control_c, 8, 1, 19
10, 148940, Note_on_c, 8, 62, 0
10, 148940, Note_on_c, 8, 54, 0
10, 148944, Control_c, 8, 1, 0
10, 148944, Note_on_c, 8, 57, 120
10, 148944, Note_on_c, 8, 66, 120
10, 148944, Control_c, 8, 11, 89
10, 148945, Control_c, 8, 1, 1
10, 148946, Control_c, 8, 1, 2
10, 148947, Control_c, 8, 1, 3
10, 148948, Control_c, 8, 1, 4
10, 148950, Control_c, 8, 1, 5
10, 148952, Control_c, 8, 1, 6
10, 148954, Control_c, 8, 1, 7
10, 148956, Control_c, 8, 1, 8
10, 148958, Control_c, 8, 1, 9
10, 148961, Control_c, 8, 1, 10
10, 148963, Control_c, 8, 1, 11
10, 148966, Control_c, 8, 1, 12
10, 148970, Control_c, 8, 1, 13
10, 148974, Control_c, 8, 1, 14
10, 148979, Control_c, 8, 1, 15
10, 148984, Control_c, 8, 1, 16
10, 148991, Control_c, 8, 1, 17
10, 148992, Control_c, 8, 11, 90
10, 149002, Control_c, 8, 1, 18
10, 149019, Control_c, 8, 1, 19
10, 149040, Control_c, 8, 11, 91
10, 149088, Control_c, 8, 11, 92
10, 149134, Note_on_c, 8, 66, 0
10, 149134, Note_on_c, 8, 57, 0
10, 149136, Control_c, 8, 1, 0
10, 149136, Note_on_c, 8, 55, 120
10, 149136, Note_on_c, 8, 64, 120
10, 149136, Control_c, 8, 11, 93
10, 149137, Control_c, 8, 1, 2
10, 149138, Control_c, 8, 1, 3
10, 149139, Control_c, 8, 1, 4
10, 149140, Control_c, 8, 1, 5
10, 149142, Control_c, 8, 1, 6
10, 149143, Control_c, 8, 1, 7
10, 149144, Control_c, 8, 1, 8
10, 149145, Control_c, 8, 1, 9
10, 149147, Control_c, 8, 1, 10
10, 149149, Control_c, 8, 1, 11
10, 149151, Control_c, 8, 1, 12
10, 149153, Control_c, 8, 1, 13
10, 149156, Control_c, 8, 1, 14
10, 149159, Control_c, 8, 1, 15
10, 149163, Control_c, 8, 1, 16
10, 149168, Control_c, 8, 1, 17
10, 149175, Control_c, 8, 1, 18
10, 149184, Control_c, 8, 11, 94
10, 149186, Control_c, 8, 1, 19
10, 149228, Note_on_c, 8, 64, 0
10, 149228, Note_on_c, 8, 55, 0
10, 149231, Control_c, 8, 11, 95
10, 149232, Control_c, 8, 1, 0
10, 149232, Note_on_c, 8, 54, 120
10, 149232, Note_on_c, 8, 57, 120
10, 149302, Note_on_c, 8, 57, 0
10, 149302, Note_on_c, 8, 54, 0
10, 149328, Note_on_c, 8, 54, 120
10, 149328, Note_on_c, 8, 57, 120
10, 149398, Note_on_c, 8, 57, 0
10, 149398, Note_on_c, 8, 54, 0
10, 149424, Note_on_c, 8, 55, 120
10, 149424, Note_on_c, 8, 59, 120
10, 149494, Note_on_c, 8, 59, 0
10, 149494, Note_on_c, 8, 55, 0
10, 149520, Note_on_c, 8, 55, 120
10, 149520, Note_on_c, 8, 59, 120
10, 149590, Note_on_c, 8, 59, 0
10, 149590, Note_on_c, 8, 55, 0
10, 149616, Control_c, 8, 11, 95
10, 149616, Note_on_c, 8, 54, 120
10, 149616, Note_on_c, 8, 57, 120
10, 149655, Control_c, 8, 11, 94
10, 149686, Note_on_c, 8, 57, 0
10, 149686, Note_on_c, 8, 54, 0
10, 149693, Control_c, 8, 11, 93
10, 149712, Note_on_c, 8, 54, 120
10, 149712, Note_on_c, 8, 57, 120
10, 149732, Control_c, 8, 11, 92
10, 149770, Control_c, 8, 11, 91
10, 149782, Note_on_c, 8, 57, 0
10, 149782, Note_on_c, 8, 54, 0
10, 149808, Note_on_c, 8, 55, 120
10, 149808, Note_on_c, 8, 59, 120
10, 149808, Control_c, 8, 11, 90
10, 149847, Control_c, 8, 11, 89
10, 149878, Note_on_c, 8, 59, 0
10, 149878, Note_on_c, 8, 55, 0
10, 149885, Control_c, 8, 11, 88
10, 149904, Note_on_c, 8, 55, 120
10, 149904, Note_on_c, 8, 59, 120
10, 149923, Control_c, 8, 11, 87
10, 149962, Control_c, 8, 11, 86
10, 149974, Note_on_c, 8, 59, 0
10, 149974, Note_on_c, 8, 55, 0
10, 150000, Note_on_c, 8, 54, 120
10, 150000, Note_on_c, 8, 57, 120
10, 150000, Control_c, 8, 11, 85
10, 150039, Control_c, 8, 11, 84
10, 150070, Note_on_c, 8, 57, 0
10, 150070, Note_on_c, 8, 54, 0
10, 150077, Control_c, 8, 11, 83
10, 150096, Note_on_c, 8, 54, 120
10, 150096, Note_on_c, 8, 57, 120
10, 150115, Control_c, 8, 11, 82
10, 150154, Control_c, 8, 11, 81
10, 150166, Note_on_c, 8, 57, 0
10, 150166, Note_on_c, 8, 54, 0
10, 150192, Note_on_c, 8, 55, 120
10, 150192, Note_on_c, 8, 59, 120
10, 150192, Control_c, 8, 11, 80
10, 150230, Control_c, 8, 11, 79
10, 150262, Note_on_c, 8, 59, 0
10, 150262, Note_on_c, 8, 55, 0
10, 150269, Control_c, 8, 11, 78
10, 150288, Note_on_c, 8, 55, 120
10, 150288, Note_on_c, 8, 59, 120
10, 150307, Control_c, 8, 11, 77
10, 150345, Control_c, 8, 11, 76
10, 150358, Note_on_c, 8, 59, 0
10, 150358, Note_on_c, 8, 55, 0
10, 150384, Note_on_c, 8, 54, 120
10, 150384, Note_on_c, 8, 57, 120
10, 150384, Control_c, 8, 11, 75
10, 150422, Control_c, 8, 11, 74
10, 150454, Note_on_c, 8, 57, 0
10, 150454, Note_on_c, 8, 54, 0
10, 150461, Control_c, 8, 11, 73
10, 150480, Note_on_c, 8, 54, 120
10, 150480, Note_on_c, 8, 57, 120
10, 150499, Control_c, 8, 11, 72
10, 150537, Control_c, 8, 11, 71
10, 150550, Note_on_c, 8, 57, 0
10, 150550, Note_on_c, 8, 54, 0
10, 150576, Note_on_c, 8, 55, 120
10, 150576, Note_on_c, 8, 59, 120
10, 150576, Control_c, 8, 11, 70
10, 150614, Control_c, 8, 11, 69
10, 150646, Note_on_c, 8, 59, 0
10, 150646, Note_on_c, 8, 55, 0
10, 150652, Control_c, 8, 11, 68
10, 150672, Note_on_c, 8, 55, 120
10, 150672, Note_on_c, 8, 59, 120
10, 150691, Control_c, 8, 11, 67
10, 150729, Control_c, 8, 11, 66
10, 150742, Note_on_c, 8, 59, 0
10, 150742, Note_on_c, 8, 55, 0
10, 150767, Control_c, 8, 11, 65
10, 150768, Control_c, 8, 1, 0
10, 150768, Control_c, 8, 11, 60
10, 150768, Note_on_c, 8, 57, 120
10, 150768, Note_on_c, 8, 62, 120
10, 150769, Control_c, 8, 1, 1
10, 150770, Control_c, 8, 1, 2
10, 150771, Control_c, 8, 1, 3
10, 150773, Control_c, 8, 1, 4
10, 150775, Control_c, 8, 1, 5
10, 150777, Control_c, 8, 1, 6
10, 150780, Control_c, 8, 1, 7
10, 150782, Control_c, 8, 1, 8
10, 150784, Control_c, 8, 1, 9
10, 150787, Control_c, 8, 1, 10
10, 150790, Control_c, 8, 1, 11
10, 150794, Control_c, 8, 1, 12
10, 150797, Control_c, 8, 1, 13
10, 150801, Control_c, 8, 1, 14
10, 150806, Control_c, 8, 1, 15
10, 150811, Control_c, 8, 1, 16
10, 150818, Control_c, 8, 1, 17
10, 150825, Control_c, 8, 1, 18
10, 150835, Control_c, 8, 1, 19
10, 150848, Control_c, 8, 1, 20
10, 150864, Note_on_c, 8, 62, 0
10, 150864, Note_on_c, 8, 57, 0
10, 150864, Note_on_c, 8, 55, 120
10, 150864, Note_on_c, 8, 59, 120
10, 150871, Control_c, 8, 1, 21
10, 151150, Note_on_c, 8, 59, 0
10, 151150, Note_on_c, 8, 55, 0
10, 151152, Control_c, 8, 1, 0
10, 151152, Note_on_c, 8, 54, 120
10, 151152, Note_on_c, 8, 57, 120
10, 151153, Control_c, 8, 1, 1
10, 151154, Control_c, 8, 1, 2
10, 151155, Control_c, 8, 1, 3
10, 151157, Control_c, 8, 1, 4
10, 151159, Control_c, 8, 1, 5
10, 151161, Control_c, 8, 1, 6
10, 151164, Control_c, 8, 1, 7
10, 151166, Control_c, 8, 1, 8
10, 151168, Control_c, 8, 1, 9
10, 151171, Control_c, 8, 1, 10
10, 151174, Control_c, 8, 1, 11
10, 151178, Control_c, 8, 1, 12
10, 151181, Control_c, 8, 1, 13
10, 151185, Control_c, 8, 1, 14
10, 151190, Control_c, 8, 1, 15
10, 151195, Control_c, 8, 1, 16
10, 151202, Control_c, 8, 1, 17
10, 151209, Control_c, 8, 1, 18
10, 151219, Control_c, 8, 1, 19
10, 151232, Control_c, 8, 1, 20
10, 151248, Note_on_c, 8, 57, 0
10, 151248, Note_on_c, 8, 54, 0
10, 151248, Note_on_c, 8, 55, 120
10, 151248, Note_on_c, 8, 59, 120
10, 151255, Control_c, 8, 1, 21
10, 151534, Note_on_c, 8, 59, 0
10, 151534, Note_on_c, 8, 55, 0
10, 151536, Control_c, 8, 1, 0
10, 151536, Note_on_c, 8, 54, 120
10, 151536, Note_on_c, 8, 57, 120
10, 151537, Control_c, 8, 1, 1
10, 151538, Control_c, 8, 1, 2
10, 151539, Control_c, 8, 1, 3
10, 151541, Control_c, 8, 1, 4
10, 151543, Control_c, 8, 1, 5
10, 151545, Control_c, 8, 1, 6
10, 151548, Control_c, 8, 1, 7
10, 151550, Control_c, 8, 1, 8
10, 151552, Control_c, 8, 1, 9
10, 151555, Control_c, 8, 1, 10
10, 151558, Control_c, 8, 1, 11
10, 151562, Control_c, 8, 1, 12
10, 151565, Control_c, 8, 1, 13
10, 151569, Control_c, 8, 1, 14
10, 151574, Control_c, 8, 1, 15
10, 151579, Control_c, 8, 1, 16
10, 151586, Control_c, 8, 1, 17
10, 151593, Control_c, 8, 1, 18
10, 151603, Control_c, 8, 1, 19
10, 151616, Control_c, 8, 1, 20
10, 151632, Note_on_c, 8, 57, 0
10, 151632, Note_on_c, 8, 54, 0
10, 151632, Note_on_c, 8, 55, 120
10, 151632, Note_on_c, 8, 59, 120
10, 151639, Control_c, 8, 1, 21
10, 152110, Note_on_c, 8, 59, 0
10, 152110, Note_on_c, 8, 55, 0
10, 152112, Control_c, 8, 11, 55
10, 152112, Note_on_c, 8, 55, 120
10, 152112, Note_on_c, 8, 58, 120
10, 152280, Note_on_c, 8, 58, 0
10, 152280, Note_on_c, 8, 55, 0
10, 152304, Control_c, 8, 7, 93
10, 152306, Control_c, 8, 11, 120
10, 153012, Program_c, 8, 70
10, 153014, Control_c, 8, 99, 1
10, 153016, Control_c, 8, 98, 32
10, 153018, Control_c, 8, 6, 50
10, 153020, Control_c, 8, 98, 33
10, 153022, Control_c, 8, 6, 50
10, 153024, Control_c, 8, 1, 0
10, 153024, Note_on_c, 8, 50, 110
10, 153048, Note_on_c, 8, 50, 0
10, 153096, Note_on_c, 8, 38, 100
10, 153108, Note_on_c, 8, 38, 0
10, 153120, Note_on_c, 8, 38, 100
10, 153144, Note_on_c, 8, 38, 0
10, 154608, Note_on_c, 8, 69, 50
10, 154632, Note_on_c, 8, 69, 0
10, 154752, Note_on_c, 8, 62, 50
10, 154776, Note_on_c, 8, 62, 0
10, 154896, Note_on_c, 8, 64, 50
10, 154920, Note_on_c, 8, 64, 0
10, 155040, Note_on_c, 8, 65, 50
10, 155064, Note_on_c, 8, 65, 0
10, 155184, Note_on_c, 8, 65, 50
10, 155208, Note_on_c, 8, 65, 0
10, 155328, Note_on_c, 8, 60, 50
10, 155352, Note_on_c, 8, 60, 0
10, 155472, Note_on_c, 8, 56, 50
10, 155496, Note_on_c, 8, 56, 0
10, 155616, Note_on_c, 8, 57, 50
10, 155640, Note_on_c, 8, 57, 0
10, 155760, Note_on_c, 8, 45, 50
10, 155760, Note_on_c, 8, 57, 50
10, 155784, Note_on_c, 8, 57, 0
10, 155784, Note_on_c, 8, 45, 0
10, 155904, Note_on_c, 8, 38, 50
10, 155904, Note_on_c, 8, 50, 50
10, 155928, Note_on_c, 8, 50, 0
10, 155928, Note_on_c, 8, 38, 0
10, 156048, Note_on_c, 8, 40, 50
10, 156048, Note_on_c, 8, 52, 50
10, 156072, Note_on_c, 8, 52, 0
10, 156072, Note_on_c, 8, 40, 0
10, 156192, Note_on_c, 8, 41, 50
10, 156192, Note_on_c, 8, 53, 50
10, 156216, Note_on_c, 8, 53, 0
10, 156216, Note_on_c, 8, 41, 0
10, 156336, Note_on_c, 8, 41, 50
10, 156336, Note_on_c, 8, 53, 50
10, 156360, Note_on_c, 8, 53, 0
10, 156360, Note_on_c, 8, 41, 0
10, 156480, Note_on_c, 8, 36, 50
10, 156480, Note_on_c, 8, 48, 50
10, 156504, Note_on_c, 8, 48, 0
10, 156504, Note_on_c, 8, 36, 0
10, 156624, Note_on_c, 8, 44, 50
10, 156648, Note_on_c, 8, 44, 0
10, 156768, Note_on_c, 8, 45, 50
10, 156792, Note_on_c, 8, 45, 0
10, 156912, Note_on_c, 8, 55, 50
10, 156912, Note_on_c, 8, 58, 50
10, 156936, Note_on_c, 8, 58, 0
10, 156936, Note_on_c, 8, 55, 0
10, 157056, Note_on_c, 8, 53, 50
10, 157056, Note_on_c, 8, 57, 50
10, 157080, Note_on_c, 8, 57, 0
10, 157080, Note_on_c, 8, 53, 0
10, 157200, Note_on_c, 8, 49, 50
10, 157200, Note_on_c, 8, 52, 50
10, 157224, Note_on_c, 8, 52, 0
10, 157224, Note_on_c, 8, 49, 0
10, 157344, Note_on_c, 8, 50, 50
10, 157344, Note_on_c, 8, 53, 50
10, 157368, Note_on_c, 8, 53, 0
10, 157368, Note_on_c, 8, 50, 0
10, 157488, Note_on_c, 8, 45, 50
10, 157488, Note_on_c, 8, 53, 50
10, 157512, Note_on_c, 8, 53, 0
10, 157512, Note_on_c, 8, 45, 0
10, 157632, Note_on_c, 8, 52, 50
10, 157632, Note_on_c, 8, 57, 50
10, 157656, Note_on_c, 8, 57, 0
10, 157656, Note_on_c, 8, 52, 0
10, 157776, Note_on_c, 8, 50, 50
10, 157776, Note_on_c, 8, 53, 50
10, 157800, Note_on_c, 8, 53, 0
10, 157800, Note_on_c, 8, 50, 0
10, 157920, Note_on_c, 8, 45, 50
10, 157920, Note_on_c, 8, 52, 50
10, 157944, Note_on_c, 8, 52, 0
10, 157944, Note_on_c, 8, 45, 0
10, 158064, Note_on_c, 8, 52, 50
10, 158064, Note_on_c, 8, 55, 50
10, 158088, Note_on_c, 8, 55, 0
10, 158088, Note_on_c, 8, 52, 0
10, 158208, Note_on_c, 8, 50, 50
10, 158208, Note_on_c, 8, 53, 50
10, 158232, Note_on_c, 8, 53, 0
10, 158232, Note_on_c, 8, 50, 0
10, 158352, Note_on_c, 8, 45, 50
10, 158352, Note_on_c, 8, 52, 50
10, 158376, Note_on_c, 8, 52, 0
10, 158376, Note_on_c, 8, 45, 0
10, 158496, Note_on_c, 8, 45, 50
10, 158496, Note_on_c, 8, 57, 50
10, 158520, Note_on_c, 8, 57, 0
10, 158520, Note_on_c, 8, 45, 0
10, 158736, Note_on_c, 8, 52, 53
10, 158736, Note_on_c, 8, 55, 53
10, 158760, Note_on_c, 8, 55, 0
10, 158760, Note_on_c, 8, 52, 0
10, 158880, Note_on_c, 8, 53, 58
10, 158880, Note_on_c, 8, 57, 58
10, 158904, Note_on_c, 8, 57, 0
10, 158904, Note_on_c, 8, 53, 0
10, 159024, Note_on_c, 8, 52, 63
10, 159024, Note_on_c, 8, 55, 63
10, 159048, Note_on_c, 8, 55, 0
10, 159048, Note_on_c, 8, 52, 0
10, 159168, Note_on_c, 8, 53, 68
10, 159168, Note_on_c, 8, 57, 68
10, 159192, Note_on_c, 8, 57, 0
10, 159192, Note_on_c, 8, 53, 0
10, 159312, Note_on_c, 8, 52, 73
10, 159312, Note_on_c, 8, 55, 73
10, 159336, Note_on_c, 8, 55, 0
10, 159336, Note_on_c, 8, 52, 0
10, 159456, Note_on_c, 8, 53, 78
10, 159456, Note_on_c, 8, 57, 78
10, 159480, Note_on_c, 8, 57, 0
10, 159480, Note_on_c, 8, 53, 0
10, 159600, Note_on_c, 8, 52, 83
10, 159600, Note_on_c, 8, 55, 83
10, 159624, Note_on_c, 8, 55, 0
10, 159624, Note_on_c, 8, 52, 0
10, 159744, Note_on_c, 8, 53, 88
10, 159744, Note_on_c, 8, 57, 88
10, 159768, Note_on_c, 8, 57, 0
10, 159768, Note_on_c, 8, 53, 0
10, 159888, Note_on_c, 8, 52, 93
10, 159888, Note_on_c, 8, 55, 93
10, 159912, Note_on_c, 8, 55, 0
10, 159912, Note_on_c, 8, 52, 0
10, 160032, Note_on_c, 8, 53, 98
10, 160032, Note_on_c, 8, 57, 98
10, 160056, Note_on_c, 8, 57, 0
10, 160056, Note_on_c, 8, 53, 0
10, 160080, Note_on_c, 8, 55, 100
10, 160080, Note_on_c, 8, 57, 100
10, 160104, Note_on_c, 8, 57, 0
10, 160104, Note_on_c, 8, 55, 0
10, 160128, Note_on_c, 8, 53, 102
10, 160128, Note_on_c, 8, 57, 102
10, 160152, Note_on_c, 8, 57, 0
10, 160152, Note_on_c, 8, 53, 0
10, 160176, Note_on_c, 8, 52, 104
10, 160176, Note_on_c, 8, 57, 104
10, 160200, Note_on_c, 8, 57, 0
10, 160200, Note_on_c, 8, 52, 0
10, 160224, Note_on_c, 8, 55, 105
10, 160224, Note_on_c, 8, 64, 105
10, 160248, Note_on_c, 8, 64, 0
10, 160248, Note_on_c, 8, 55, 0
10, 160272, Note_on_c, 8, 53, 107
10, 160272, Note_on_c, 8, 62, 107
10, 160296, Note_on_c, 8, 62, 0
10, 160296, Note_on_c, 8, 53, 0
10, 160320, Note_on_c, 8, 52, 109
10, 160320, Note_on_c, 8, 61, 109
10, 160344, Note_on_c, 8, 61, 0
10, 160344, Note_on_c, 8, 52, 0
10, 160368, Note_on_c, 8, 53, 115
10, 160368, Note_on_c, 8, 57, 115
10, 160392, Note_on_c, 8, 57, 0
10, 160392, Note_on_c, 8, 53, 0
10, 160416, Note_on_c, 8, 62, 110
10, 160416, Note_on_c, 8, 65, 110
10, 160440, Note_on_c, 8, 65, 0
10, 160440, Note_on_c, 8, 62, 0
10, 160464, Note_on_c, 8, 62, 110
10, 160464, Note_on_c, 8, 65, 110
10, 160488, Note_on_c, 8, 65, 0
10, 160488, Note_on_c, 8, 62, 0
10, 160512, Note_on_c, 8, 62, 115
10, 160512, Note_on_c, 8, 65, 115
10, 160536, Note_on_c, 8, 65, 0
10, 160536, Note_on_c, 8, 62, 0
10, 160560, Note_on_c, 8, 62, 110
10, 160560, Note_on_c, 8, 65, 110
10, 160584, Note_on_c, 8, 65, 0
10, 160584, Note_on_c, 8, 62, 0
10, 160608, Note_on_c, 8, 62, 110
10, 160608, Note_on_c, 8, 65, 110
10, 160632, Note_on_c, 8, 65, 0
10, 160632, Note_on_c, 8, 62, 0
10, 160656, Note_on_c, 8, 61, 115
10, 160656, Note_on_c, 8, 64, 115
10, 160680, Note_on_c, 8, 64, 0
10, 160680, Note_on_c, 8, 61, 0
10, 160704, Note_on_c, 8, 62, 110
10, 160704, Note_on_c, 8, 65, 110
10, 160728, Note_on_c, 8, 65, 0
10, 160728, Note_on_c, 8, 62, 0
10, 160752, Note_on_c, 8, 61, 110
10, 160752, Note_on_c, 8, 64, 110
10, 160776, Note_on_c, 8, 64, 0
10, 160776, Note_on_c, 8, 61, 0
10, 160800, Note_on_c, 8, 62, 115
10, 160800, Note_on_c, 8, 65, 115
10, 160824, Note_on_c, 8, 65, 0
10, 160824, Note_on_c, 8, 62, 0
10, 160848, Note_on_c, 8, 62, 110
10, 160848, Note_on_c, 8, 65, 110
10, 160872, Note_on_c, 8, 65, 0
10, 160872, Note_on_c, 8, 62, 0
10, 160896, Note_on_c, 8, 62, 110
10, 160896, Note_on_c, 8, 65, 110
10, 160920, Note_on_c, 8, 65, 0
10, 160920, Note_on_c, 8, 62, 0
10, 160944, Note_on_c, 8, 55, 115
10, 160944, Note_on_c, 8, 62, 115
10, 160968, Note_on_c, 8, 62, 0
10, 160968, Note_on_c, 8, 55, 0
10, 160992, Note_on_c, 8, 57, 110
10, 160992, Note_on_c, 8, 62, 110
10, 161016, Note_on_c, 8, 62, 0
10, 161016, Note_on_c, 8, 57, 0
10, 161040, Note_on_c, 8, 58, 110
10, 161040, Note_on_c, 8, 62, 110
10, 161064, Note_on_c, 8, 62, 0
10, 161064, Note_on_c, 8, 58, 0
10, 161088, Note_on_c, 8, 57, 115
10, 161088, Note_on_c, 8, 62, 115
10, 161112, Note_on_c, 8, 62, 0
10, 161112, Note_on_c, 8, 57, 0
10, 161136, Note_on_c, 8, 57, 110
10, 161136, Note_on_c, 8, 64, 110
10, 161160, Note_on_c, 8, 64, 0
10, 161160, Note_on_c, 8, 57, 0
10, 161184, Note_on_c, 8, 57, 110
10, 161184, Note_on_c, 8, 65, 110
10, 161208, Note_on_c, 8, 65, 0
10, 161208, Note_on_c, 8, 57, 0
10, 161232, Note_on_c, 8, 64, 115
10, 161232, Note_on_c, 8, 67, 115
10, 161256, Note_on_c, 8, 67, 0
10, 161256, Note_on_c, 8, 64, 0
10, 161280, Note_on_c, 8, 62, 110
10, 161280, Note_on_c, 8, 65, 110
10, 161304, Note_on_c, 8, 65, 0
10, 161304, Note_on_c, 8, 62, 0
10, 161328, Note_on_c, 8, 61, 110
10, 161328, Note_on_c, 8, 64, 110
10, 161352, Note_on_c, 8, 64, 0
10, 161352, Note_on_c, 8, 61, 0
10, 161376, Note_on_c, 8, 62, 115
10, 161376, Note_on_c, 8, 65, 115
10, 161400, Note_on_c, 8, 65, 0
10, 161400, Note_on_c, 8, 62, 0
10, 161424, Note_on_c, 8, 64, 110
10, 161424, Note_on_c, 8, 67, 110
10, 161448, Note_on_c, 8, 67, 0
10, 161448, Note_on_c, 8, 64, 0
10, 161472, Note_on_c, 8, 62, 110
10, 161472, Note_on_c, 8, 65, 110
10, 161496, Note_on_c, 8, 65, 0
10, 161496, Note_on_c, 8, 62, 0
10, 161520, Note_on_c, 8, 55, 115
10, 161544, Note_on_c, 8, 55, 0
10, 161568, Note_on_c, 8, 57, 110
10, 161592, Note_on_c, 8, 57, 0
10, 161616, Note_on_c, 8, 58, 110
10, 161640, Note_on_c, 8, 58, 0
10, 161664, Note_on_c, 8, 62, 115
10, 161688, Note_on_c, 8, 62, 0
10, 161712, Note_on_c, 8, 64, 110
10, 161736, Note_on_c, 8, 64, 0
10, 161760, Note_on_c, 8, 65, 110
10, 161784, Note_on_c, 8, 65, 0
10, 161808, Note_on_c, 8, 64, 115
10, 161808, Note_on_c, 8, 67, 115
10, 161832, Note_on_c, 8, 67, 0
10, 161832, Note_on_c, 8, 64, 0
10, 161856, Note_on_c, 8, 62, 110
10, 161856, Note_on_c, 8, 65, 110
10, 161880, Note_on_c, 8, 65, 0
10, 161880, Note_on_c, 8, 62, 0
10, 161904, Note_on_c, 8, 61, 110
10, 161904, Note_on_c, 8, 64, 110
10, 161928, Note_on_c, 8, 64, 0
10, 161928, Note_on_c, 8, 61, 0
10, 161952, Note_on_c, 8, 62, 115
10, 161952, Note_on_c, 8, 65, 115
10, 161976, Note_on_c, 8, 65, 0
10, 161976, Note_on_c, 8, 62, 0
10, 162000, Note_on_c, 8, 57, 110
10, 162000, Note_on_c, 8, 65, 110
10, 162024, Note_on_c, 8, 65, 0
10, 162024, Note_on_c, 8, 57, 0
10, 162048, Note_on_c, 8, 59, 110
10, 162048, Note_on_c, 8, 65, 110
10, 162072, Note_on_c, 8, 65, 0
10, 162072, Note_on_c, 8, 59, 0
10, 162096, Note_on_c, 8, 59, 115
10, 162096, Note_on_c, 8, 65, 115
10, 162120, Note_on_c, 8, 65, 0
10, 162120, Note_on_c, 8, 59, 0
10, 162144, Note_on_c, 8, 59, 110
10, 162144, Note_on_c, 8, 62, 110
10, 162168, Note_on_c, 8, 62, 0
10, 162168, Note_on_c, 8, 59, 0
10, 162192, Note_on_c, 8, 59, 110
10, 162192, Note_on_c, 8, 62, 110
10, 162216, Note_on_c, 8, 62, 0
10, 162216, Note_on_c, 8, 59, 0
10, 162240, Note_on_c, 8, 60, 115
10, 162240, Note_on_c, 8, 64, 115
10, 162264, Note_on_c, 8, 64, 0
10, 162264, Note_on_c, 8, 60, 0
10, 162288, Note_on_c, 8, 62, 110
10, 162288, Note_on_c, 8, 65, 110
10, 162312, Note_on_c, 8, 65, 0
10, 162312, Note_on_c, 8, 62, 0
10, 162336, Note_on_c, 8, 64, 110
10, 162336, Note_on_c, 8, 67, 110
10, 162360, Note_on_c, 8, 67, 0
10, 162360, Note_on_c, 8, 64, 0
10, 162384, Note_on_c, 8, 62, 115
10, 162384, Note_on_c, 8, 65, 115
10, 162408, Note_on_c, 8, 65, 0
10, 162408, Note_on_c, 8, 62, 0
10, 162432, Note_on_c, 8, 60, 110
10, 162432, Note_on_c, 8, 64, 110
10, 162456, Note_on_c, 8, 64, 0
10, 162456, Note_on_c, 8, 60, 0
10, 162480, Note_on_c, 8, 59, 110
10, 162480, Note_on_c, 8, 65, 110
10, 162504, Note_on_c, 8, 65, 0
10, 162504, Note_on_c, 8, 59, 0
10, 162528, Note_on_c, 8, 60, 115
10, 162528, Note_on_c, 8, 64, 115
10, 162552, Note_on_c, 8, 64, 0
10, 162552, Note_on_c, 8, 60, 0
10, 162576, Note_on_c, 8, 59, 110
10, 162576, Note_on_c, 8, 65, 110
10, 162600, Note_on_c, 8, 65, 0
10, 162600, Note_on_c, 8, 59, 0
10, 162624, Note_on_c, 8, 59, 110
10, 162624, Note_on_c, 8, 65, 110
10, 162648, Note_on_c, 8, 65, 0
10, 162648, Note_on_c, 8, 59, 0
10, 162672, Note_on_c, 8, 59, 115
10, 162672, Note_on_c, 8, 65, 115
10, 162696, Note_on_c, 8, 65, 0
10, 162696, Note_on_c, 8, 59, 0
10, 162720, Note_on_c, 8, 59, 110
10, 162720, Note_on_c, 8, 62, 110
10, 162744, Note_on_c, 8, 62, 0
10, 162744, Note_on_c, 8, 59, 0
10, 162768, Note_on_c, 8, 59, 110
10, 162768, Note_on_c, 8, 62, 110
10, 162792, Note_on_c, 8, 62, 0
10, 162792, Note_on_c, 8, 59, 0
10, 162816, Note_on_c, 8, 60, 115
10, 162816, Note_on_c, 8, 64, 115
10, 162840, Note_on_c, 8, 64, 0
10, 162840, Note_on_c, 8, 60, 0
10, 162864, Note_on_c, 8, 62, 110
10, 162864, Note_on_c, 8, 65, 110
10, 162888, Note_on_c, 8, 65, 0
10, 162888, Note_on_c, 8, 62, 0
10, 162912, Note_on_c, 8, 64, 110
10, 162912, Note_on_c, 8, 67, 110
10, 162936, Note_on_c, 8, 67, 0
10, 162936, Note_on_c, 8, 64, 0
10, 162960, Note_on_c, 8, 60, 115
10, 162960, Note_on_c, 8, 64, 115
10, 162984, Note_on_c, 8, 64, 0
10, 162984, Note_on_c, 8, 60, 0
10, 163008, Note_on_c, 8, 62, 110
10, 163008, Note_on_c, 8, 65, 110
10, 163032, Note_on_c, 8, 65, 0
10, 163032, Note_on_c, 8, 62, 0
10, 163056, Note_on_c, 8, 64, 110
10, 163056, Note_on_c, 8, 67, 110
10, 163080, Note_on_c, 8, 67, 0
10, 163080, Note_on_c, 8, 64, 0
10, 163104, Note_on_c, 8, 60, 115
10, 163104, Note_on_c, 8, 64, 115
10, 163128, Note_on_c, 8, 64, 0
10, 163128, Note_on_c, 8, 60, 0
10, 163152, Note_on_c, 8, 62, 110
10, 163152, Note_on_c, 8, 65, 110
10, 163176, Note_on_c, 8, 65, 0
10, 163176, Note_on_c, 8, 62, 0
10, 163200, Note_on_c, 8, 64, 110
10, 163200, Note_on_c, 8, 67, 110
10, 163224, Note_on_c, 8, 67, 0
10, 163224, Note_on_c, 8, 64, 0
10, 163248, Control_c, 8, 1, 0
10, 163248, Control_c, 8, 11, 60
10, 163248, Note_on_c, 8, 55, 110
10, 163248, Note_on_c, 8, 67, 110
10, 163249, Control_c, 8, 1, 1
10, 163250, Control_c, 8, 1, 2
10, 163251, Control_c, 8, 1, 3
10, 163252, Control_c, 8, 1, 4
10, 163254, Control_c, 8, 1, 5
10, 163255, Control_c, 8, 1, 6
10, 163256, Control_c, 8, 1, 7
10, 163258, Control_c, 8, 1, 8
10, 163260, Control_c, 8, 1, 9
10, 163262, Control_c, 8, 1, 10
10, 163264, Control_c, 8, 1, 11
10, 163266, Control_c, 8, 1, 12
10, 163269, Control_c, 8, 1, 13
10, 163271, Control_c, 8, 1, 14
10, 163274, Control_c, 8, 1, 15
10, 163278, Control_c, 8, 1, 16
10, 163281, Control_c, 8, 1, 17
10, 163286, Control_c, 8, 1, 18
10, 163292, Control_c, 8, 1, 19
10, 163299, Control_c, 8, 1, 20
10, 163309, Control_c, 8, 1, 21
10, 163327, Control_c, 8, 1, 22
10, 163392, Control_c, 8, 11, 60
10, 163407, Control_c, 8, 11, 61
10, 163421, Control_c, 8, 11, 62
10, 163436, Control_c, 8, 11, 63
10, 163450, Control_c, 8, 11, 64
10, 163464, Control_c, 8, 11, 65
10, 163479, Control_c, 8, 11, 66
10, 163493, Control_c, 8, 11, 67
10, 163507, Control_c, 8, 11, 68
10, 163522, Control_c, 8, 11, 69
10, 163536, Note_on_c, 8, 53, 110
10, 163536, Note_on_c, 8, 65, 110
10, 163536, Control_c, 8, 11, 70
10, 163537, Note_on_c, 8, 67, 0
10, 163537, Note_on_c, 8, 55, 0
10, 163551, Control_c, 8, 11, 71
10, 163565, Control_c, 8, 11, 72
10, 163579, Control_c, 8, 11, 73
10, 163594, Control_c, 8, 11, 74
10, 163608, Control_c, 8, 11, 75
10, 163622, Control_c, 8, 11, 76
10, 163637, Control_c, 8, 11, 77
10, 163651, Control_c, 8, 11, 78
10, 163666, Control_c, 8, 11, 79
10, 163680, Note_on_c, 8, 50, 110
10, 163680, Note_on_c, 8, 62, 110
10, 163680, Control_c, 8, 11, 80
10, 163681, Note_on_c, 8, 65, 0
10, 163681, Note_on_c, 8, 53, 0
10, 163694, Control_c, 8, 11, 81
10, 163709, Control_c, 8, 11, 82
10, 163723, Control_c, 8, 11, 83
10, 163737, Control_c, 8, 11, 84
10, 163752, Control_c, 8, 11, 85
10, 163766, Control_c, 8, 11, 86
10, 163781, Control_c, 8, 11, 87
10, 163795, Control_c, 8, 11, 88
10, 163809, Control_c, 8, 11, 89
10, 163824, Note_on_c, 8, 47, 110
10, 163824, Note_on_c, 8, 59, 110
10, 163824, Control_c, 8, 11, 90
10, 163825, Note_on_c, 8, 62, 0
10, 163825, Note_on_c, 8, 50, 0
10, 163838, Control_c, 8, 11, 91
10, 163852, Control_c, 8, 11, 92
10, 163867, Control_c, 8, 11, 93
10, 163881, Control_c, 8, 11, 94
10, 163896, Control_c, 8, 11, 95
10, 163910, Control_c, 8, 11, 96
10, 163924, Control_c, 8, 11, 97
10, 163939, Control_c, 8, 11, 98
10, 163953, Control_c, 8, 11, 99
10, 163967, Control_c, 8, 11, 100
10, 163968, Control_c, 8, 11, 100
10, 163968, Note_on_c, 8, 48, 110
10, 163968, Note_on_c, 8, 60, 110
10, 163969, Note_on_c, 8, 59, 0
10, 163969, Note_on_c, 8, 47, 0
10, 163979, Control_c, 8, 11, 99
10, 163990, Control_c, 8, 11, 98
10, 164001, Control_c, 8, 11, 97
10, 164012, Control_c, 8, 11, 96
10, 164022, Control_c, 8, 11, 95
10, 164033, Control_c, 8, 11, 94
10, 164044, Control_c, 8, 11, 93
10, 164055, Control_c, 8, 11, 92
10, 164065, Control_c, 8, 11, 91
10, 164076, Control_c, 8, 11, 90
10, 164087, Control_c, 8, 11, 89
10, 164098, Control_c, 8, 11, 88
10, 164109, Control_c, 8, 11, 87
10, 164112, Note_on_c, 8, 55, 110
10, 164112, Note_on_c, 8, 67, 110
10, 164113, Note_on_c, 8, 60, 0
10, 164113, Note_on_c, 8, 48, 0
10, 164119, Control_c, 8, 11, 86
10, 164130, Control_c, 8, 11, 85
10, 164141, Control_c, 8, 11, 84
10, 164152, Control_c, 8, 11, 83
10, 164162, Control_c, 8, 11, 82
10, 164173, Control_c, 8, 11, 81
10, 164184, Control_c, 8, 11, 80
10, 164195, Control_c, 8, 11, 79
10, 164206, Control_c, 8, 11, 78
10, 164216, Control_c, 8, 11, 77
10, 164227, Control_c, 8, 11, 76
10, 164238, Control_c, 8, 11, 75
10, 164249, Control_c, 8, 11, 74
10, 164256, Note_on_c, 8, 43, 110
10, 164257, Note_on_c, 8, 67, 0
10, 164259, Control_c, 8, 11, 73
10, 164270, Control_c, 8, 11, 72
10, 164281, Control_c, 8, 11, 71
10, 164292, Control_c, 8, 11, 70
10, 164303, Control_c, 8, 11, 69
10, 164313, Control_c, 8, 11, 68
10, 164324, Control_c, 8, 11, 67
10, 164335, Control_c, 8, 11, 66
10, 164346, Control_c, 8, 11, 65
10, 164356, Control_c, 8, 11, 64
10, 164367, Control_c, 8, 11, 63
10, 164378, Control_c, 8, 11, 62
10, 164389, Control_c, 8, 11, 61
10, 164399, Control_c, 8, 11, 60
10, 164400, Control_c, 8, 1, 0
10, 164400, Control_c, 8, 11, 60
10, 164400, Note_on_c, 8, 67, 110
10, 164401, Note_on_c, 8, 55, 0
10, 164401, Note_on_c, 8, 43, 0
10, 164401, Control_c, 8, 1, 1
10, 164402, Control_c, 8, 1, 2
10, 164403, Control_c, 8, 1, 3
10, 164404, Control_c, 8, 1, 4
10, 164406, Control_c, 8, 1, 5
10, 164407, Control_c, 8, 1, 6
10, 164408, Control_c, 8, 1, 7
10, 164410, Control_c, 8, 1, 8
10, 164412, Control_c, 8, 1, 9
10, 164414, Control_c, 8, 1, 10
10, 164416, Control_c, 8, 1, 11
10, 164418, Control_c, 8, 1, 12
10, 164420, Control_c, 8, 11, 61
10, 164421, Control_c, 8, 1, 13
10, 164423, Control_c, 8, 1, 14
10, 164426, Control_c, 8, 1, 15
10, 164430, Control_c, 8, 1, 16
10, 164433, Control_c, 8, 1, 17
10, 164438, Control_c, 8, 1, 18
10, 164439, Control_c, 8, 11, 62
10, 164444, Control_c, 8, 1, 19
10, 164451, Control_c, 8, 1, 20
10, 164458, Control_c, 8, 11, 63
10, 164461, Control_c, 8, 1, 21
10, 164477, Control_c, 8, 11, 64
10, 164479, Control_c, 8, 1, 22
10, 164496, Control_c, 8, 11, 65
10, 164516, Control_c, 8, 11, 66
10, 164535, Control_c, 8, 11, 67
10, 164544, Note_on_c, 8, 60, 110
10, 164554, Control_c, 8, 11, 68
10, 164573, Control_c, 8, 11, 69
10, 164592, Control_c, 8, 11, 70
10, 164612, Control_c, 8, 11, 71
10, 164631, Control_c, 8, 11, 72
10, 164650, Control_c, 8, 11, 73
10, 164669, Control_c, 8, 11, 74
10, 164688, Note_on_c, 8, 53, 110
10, 164688, Control_c, 8, 11, 75
10, 164689, Note_on_c, 8, 60, 0
10, 164707, Control_c, 8, 11, 76
10, 164727, Control_c, 8, 11, 77
10, 164746, Control_c, 8, 11, 78
10, 164765, Control_c, 8, 11, 79
10, 164784, Control_c, 8, 11, 80
10, 164803, Control_c, 8, 11, 81
10, 164823, Control_c, 8, 11, 82
10, 164832, Note_on_c, 8, 50, 110
10, 164832, Note_on_c, 8, 65, 110
10, 164833, Note_on_c, 8, 67, 0
10, 164833, Note_on_c, 8, 53, 0
10, 164842, Control_c, 8, 11, 83
10, 164861, Control_c, 8, 11, 84
10, 164880, Control_c, 8, 11, 85
10, 164899, Control_c, 8, 11, 86
10, 164918, Control_c, 8, 11, 87
10, 164938, Control_c, 8, 11, 88
10, 164957, Control_c, 8, 11, 89
10, 164976, Note_on_c, 8, 55, 110
10, 164976, Control_c, 8, 11, 90
10, 164977, Note_on_c, 8, 50, 0
10, 164995, Control_c, 8, 11, 91
10, 165014, Control_c, 8, 11, 92
10, 165034, Control_c, 8, 11, 93
10, 165053, Control_c, 8, 11, 94
10, 165072, Control_c, 8, 11, 95
10, 165091, Control_c, 8, 11, 96
10, 165110, Control_c, 8, 11, 97
10, 165120, Note_on_c, 8, 60, 110
10, 165120, Note_on_c, 8, 64, 110
10, 165121, Note_on_c, 8, 65, 0
10, 165121, Note_on_c, 8, 55, 0
10, 165129, Control_c, 8, 11, 98
10, 165149, Control_c, 8, 11, 99
10, 165168, Control_c, 8, 11, 100
10, 165187, Control_c, 8, 11, 101
10, 165206, Control_c, 8, 11, 102
10, 165225, Control_c, 8, 11, 103
10, 165245, Control_c, 8, 11, 104
10, 165264, Note_on_c, 8, 55, 110
10, 165264, Note_on_c, 8, 63, 110
10, 165264, Control_c, 8, 11, 105
10, 165265, Note_on_c, 8, 64, 0
10, 165265, Note_on_c, 8, 60, 0
10, 165283, Control_c, 8, 11, 106
10, 165302, Control_c, 8, 11, 107
10, 165321, Control_c, 8, 11, 108
10, 165340, Control_c, 8, 11, 109
10, 165360, Control_c, 8, 11, 110
10, 165379, Control_c, 8, 11, 111
10, 165398, Control_c, 8, 11, 112
10, 165408, Note_on_c, 8, 43, 110
10, 165408, Note_on_c, 8, 67, 110
10, 165409, Note_on_c, 8, 63, 0
10, 165409, Note_on_c, 8, 55, 0
10, 165417, Control_c, 8, 11, 113
10, 165436, Control_c, 8, 11, 114
10, 165456, Control_c, 8, 11, 115
10, 165475, Control_c, 8, 11, 116
10, 165494, Control_c, 8, 11, 117
10, 165513, Control_c, 8, 11, 118
10, 165532, Control_c, 8, 11, 119
10, 165551, Note_on_c, 8, 67, 0
10, 165551, Note_on_c, 8, 43, 0
10, 165551, Control_c, 8, 11, 120
10, 165552, Control_c, 8, 1, 0
10, 165552, Note_on_c, 8, 60, 113
10, 165552, Note_on_c, 8, 48, 113
10, 165600, Note_on_c, 8, 48, 0
10, 165600, Note_on_c, 8, 52, 113
10, 165648, Note_on_c, 8, 52, 0
10, 165648, Note_on_c, 8, 60, 0
10, 165648, Note_on_c, 8, 53, 111
10, 165648, Note_on_c, 8, 62, 111
10, 165672, Note_on_c, 8, 62, 0
10, 165672, Note_on_c, 8, 53, 0
10, 165672, Note_on_c, 8, 55, 112
10, 165672, Note_on_c, 8, 64, 112
10, 165696, Note_on_c, 8, 64, 0
10, 165696, Note_on_c, 8, 55, 0
10, 165696, Note_on_c, 8, 57, 113
10, 165696, Note_on_c, 8, 65, 113
10, 165720, Note_on_c, 8, 65, 0
10, 165720, Note_on_c, 8, 57, 0
10, 165792, Note_on_c, 8, 55, 110
10, 165792, Note_on_c, 8, 64, 110
10, 165816, Note_on_c, 8, 64, 0
10, 165816, Note_on_c, 8, 55, 0
10, 165840, Note_on_c, 8, 53, 113
10, 165840, Note_on_c, 8, 62, 113
10, 165864, Note_on_c, 8, 62, 0
10, 165864, Note_on_c, 8, 53, 0
10, 165936, Note_on_c, 8, 52, 110
10, 165936, Note_on_c, 8, 60, 110
10, 165960, Note_on_c, 8, 60, 0
10, 165960, Note_on_c, 8, 52, 0
10, 165984, Note_on_c, 8, 53, 113
10, 165984, Note_on_c, 8, 62, 113
10, 166008, Note_on_c, 8, 62, 0
10, 166008, Note_on_c, 8, 53, 0
10, 166080, Note_on_c, 8, 50, 110
10, 166080, Note_on_c, 8, 59, 110
10, 166104, Note_on_c, 8, 59, 0
10, 166104, Note_on_c, 8, 50, 0
10, 166128, Note_on_c, 8, 60, 113
10, 166128, Note_on_c, 8, 64, 113
10, 166176, Note_on_c, 8, 64, 0
10, 166176, Note_on_c, 8, 60, 0
10, 166176, Note_on_c, 8, 48, 110
10, 166176, Note_on_c, 8, 52, 110
10, 166224, Note_on_c, 8, 52, 0
10, 166224, Note_on_c, 8, 48, 0
10, 166224, Note_on_c, 8, 50, 111
10, 166224, Note_on_c, 8, 53, 111
10, 166248, Note_on_c, 8, 53, 0
10, 166248, Note_on_c, 8, 50, 0
10, 166248, Note_on_c, 8, 52, 112
10, 166248, Note_on_c, 8, 55, 112
10, 166272, Note_on_c, 8, 55, 0
10, 166272, Note_on_c, 8, 52, 0
10, 166272, Note_on_c, 8, 53, 113
10, 166272, Note_on_c, 8, 57, 113
10, 166296, Note_on_c, 8, 57, 0
10, 166296, Note_on_c, 8, 53, 0
10, 166368, Note_on_c, 8, 52, 110
10, 166368, Note_on_c, 8, 55, 110
10, 166392, Note_on_c, 8, 55, 0
10, 166392, Note_on_c, 8, 52, 0
10, 166416, Note_on_c, 8, 50, 113
10, 166416, Note_on_c, 8, 53, 113
10, 166440, Note_on_c, 8, 53, 0
10, 166440, Note_on_c, 8, 50, 0
10, 166512, Note_on_c, 8, 48, 110
10, 166512, Note_on_c, 8, 52, 110
10, 166536, Note_on_c, 8, 52, 0
10, 166536, Note_on_c, 8, 48, 0
10, 166560, Note_on_c, 8, 50, 113
10, 166560, Note_on_c, 8, 53, 113
10, 166584, Note_on_c, 8, 53, 0
10, 166584, Note_on_c, 8, 50, 0
10, 166656, Note_on_c, 8, 50, 110
10, 166656, Note_on_c, 8, 59, 110
10, 166680, Note_on_c, 8, 59, 0
10, 166680, Note_on_c, 8, 50, 0
10, 166704, Note_on_c, 8, 48, 113
10, 166704, Note_on_c, 8, 60, 113
10, 166728, Note_on_c, 8, 60, 0
10, 166728, Note_on_c, 8, 48, 0
10, 166752, Note_on_c, 8, 52, 110
10, 166752, Note_on_c, 8, 60, 110
10, 166800, Note_on_c, 8, 60, 0
10, 166800, Note_on_c, 8, 52, 0
10, 166800, Note_on_c, 8, 53, 111
10, 166800, Note_on_c, 8, 62, 111
10, 166824, Note_on_c, 8, 62, 0
10, 166824, Note_on_c, 8, 53, 0
10, 166824, Note_on_c, 8, 55, 112
10, 166824, Note_on_c, 8, 64, 112
10, 166848, Note_on_c, 8, 64, 0
10, 166848, Note_on_c, 8, 55, 0
10, 166848, Note_on_c, 8, 57, 113
10, 166848, Note_on_c, 8, 65, 113
10, 166872, Note_on_c, 8, 65, 0
10, 166872, Note_on_c, 8, 57, 0
10, 166896, Note_on_c, 8, 57, 110
10, 166896, Note_on_c, 8, 65, 110
10, 166920, Note_on_c, 8, 65, 0
10, 166920, Note_on_c, 8, 57, 0
10, 166944, Note_on_c, 8, 55, 110
10, 166944, Note_on_c, 8, 64, 110
10, 166968, Note_on_c, 8, 64, 0
10, 166968, Note_on_c, 8, 55, 0
10, 166992, Note_on_c, 8, 53, 113
10, 166992, Note_on_c, 8, 62, 113
10, 167016, Note_on_c, 8, 62, 0
10, 167016, Note_on_c, 8, 53, 0
10, 167040, Note_on_c, 8, 53, 110
10, 167040, Note_on_c, 8, 62, 110
10, 167064, Note_on_c, 8, 62, 0
10, 167064, Note_on_c, 8, 53, 0
10, 167088, Note_on_c, 8, 52, 110
10, 167088, Note_on_c, 8, 60, 110
10, 167112, Note_on_c, 8, 60, 0
10, 167112, Note_on_c, 8, 52, 0
10, 167136, Note_on_c, 8, 53, 113
10, 167136, Note_on_c, 8, 62, 113
10, 167160, Note_on_c, 8, 62, 0
10, 167160, Note_on_c, 8, 53, 0
10, 167184, Note_on_c, 8, 53, 110
10, 167184, Note_on_c, 8, 62, 110
10, 167208, Note_on_c, 8, 62, 0
10, 167208, Note_on_c, 8, 53, 0
10, 167232, Note_on_c, 8, 50, 110
10, 167232, Note_on_c, 8, 59, 110
10, 167256, Note_on_c, 8, 59, 0
10, 167256, Note_on_c, 8, 50, 0
10, 167280, Note_on_c, 8, 48, 113
10, 167280, Note_on_c, 8, 52, 113
10, 167304, Note_on_c, 8, 52, 0
10, 167304, Note_on_c, 8, 48, 0
10, 167328, Note_on_c, 8, 48, 110
10, 167328, Note_on_c, 8, 52, 110
10, 167376, Note_on_c, 8, 52, 0
10, 167376, Note_on_c, 8, 48, 0
10, 167376, Note_on_c, 8, 50, 111
10, 167376, Note_on_c, 8, 53, 111
10, 167400, Note_on_c, 8, 53, 0
10, 167400, Note_on_c, 8, 50, 0
10, 167400, Note_on_c, 8, 52, 112
10, 167400, Note_on_c, 8, 55, 112
10, 167424, Note_on_c, 8, 55, 0
10, 167424, Note_on_c, 8, 52, 0
10, 167424, Note_on_c, 8, 53, 113
10, 167424, Note_on_c, 8, 57, 113
10, 167448, Note_on_c, 8, 57, 0
10, 167448, Note_on_c, 8, 53, 0
10, 167472, Note_on_c, 8, 53, 110
10, 167472, Note_on_c, 8, 57, 110
10, 167496, Note_on_c, 8, 57, 0
10, 167496, Note_on_c, 8, 53, 0
10, 167520, Note_on_c, 8, 52, 110
10, 167520, Note_on_c, 8, 55, 110
10, 167544, Note_on_c, 8, 55, 0
10, 167544, Note_on_c, 8, 52, 0
10, 167568, Note_on_c, 8, 50, 113
10, 167568, Note_on_c, 8, 53, 113
10, 167592, Note_on_c, 8, 53, 0
10, 167592, Note_on_c, 8, 50, 0
10, 167616, Note_on_c, 8, 50, 110
10, 167616, Note_on_c, 8, 53, 110
10, 167640, Note_on_c, 8, 53, 0
10, 167640, Note_on_c, 8, 50, 0
10, 167664, Note_on_c, 8, 48, 110
10, 167664, Note_on_c, 8, 52, 110
10, 167688, Note_on_c, 8, 52, 0
10, 167688, Note_on_c, 8, 48, 0
10, 167712, Note_on_c, 8, 50, 113
10, 167712, Note_on_c, 8, 53, 113
10, 167736, Note_on_c, 8, 53, 0
10, 167736, Note_on_c, 8, 50, 0
10, 167760, Note_on_c, 8, 50, 110
10, 167760, Note_on_c, 8, 53, 110
10, 167784, Note_on_c, 8, 53, 0
10, 167784, Note_on_c, 8, 50, 0
10, 167808, Note_on_c, 8, 50, 110
10, 167808, Note_on_c, 8, 59, 110
10, 167832, Note_on_c, 8, 59, 0
10, 167832, Note_on_c, 8, 50, 0
10, 167856, Note_on_c, 8, 48, 120
10, 167856, Note_on_c, 8, 60, 120
10, 167891, Note_on_c, 8, 60, 0
10, 167891, Note_on_c, 8, 48, 0
10, 167928, Note_on_c, 8, 36, 113
10, 167928, Note_on_c, 8, 48, 113
10, 167940, Note_on_c, 8, 48, 0
10, 167940, Note_on_c, 8, 36, 0
10, 167952, Note_on_c, 8, 36, 113
10, 167952, Note_on_c, 8, 48, 113
10, 167976, Note_on_c, 8, 48, 0
10, 167976, Note_on_c, 8, 36, 0
10, 168000, Note_on_c, 8, 48, 116
10, 168000, Note_on_c, 8, 60, 116
10, 168024, Note_on_c, 8, 60, 0
10, 168024, Note_on_c, 8, 48, 0
10, 168048, Note_on_c, 8, 50, 113
10, 168048, Note_on_c, 8, 62, 113
10, 168072, Note_on_c, 8, 62, 0
10, 168072, Note_on_c, 8, 50, 0
10, 168096, Note_on_c, 8, 52, 113
10, 168096, Note_on_c, 8, 64, 113
10, 168120, Note_on_c, 8, 64, 0
10, 168120, Note_on_c, 8, 52, 0
10, 168144, Note_on_c, 8, 53, 113
10, 168144, Note_on_c, 8, 65, 113
10, 168168, Note_on_c, 8, 65, 0
10, 168168, Note_on_c, 8, 53, 0
10, 168432, Note_on_c, 8, 47, 120
10, 168432, Note_on_c, 8, 59, 120
10, 168467, Note_on_c, 8, 59, 0
10, 168467, Note_on_c, 8, 47, 0
10, 168504, Note_on_c, 8, 35, 113
10, 168504, Note_on_c, 8, 47, 113
10, 168516, Note_on_c, 8, 47, 0
10, 168516, Note_on_c, 8, 35, 0
10, 168528, Note_on_c, 8, 35, 113
10, 168528, Note_on_c, 8, 47, 113
10, 168552, Note_on_c, 8, 47, 0
10, 168552, Note_on_c, 8, 35, 0
10, 168576, Note_on_c, 8, 47, 116
10, 168576, Note_on_c, 8, 59, 116
10, 168600, Note_on_c, 8, 59, 0
10, 168600, Note_on_c, 8, 47, 0
10, 168624, Note_on_c, 8, 48, 113
10, 168624, Note_on_c, 8, 60, 113
10, 168648, Note_on_c, 8, 60, 0
10, 168648, Note_on_c, 8, 48, 0
10, 168672, Note_on_c, 8, 50, 113
10, 168672, Note_on_c, 8, 62, 113
10, 168696, Note_on_c, 8, 62, 0
10, 168696, Note_on_c, 8, 50, 0
10, 168720, Note_on_c, 8, 52, 113
10, 168720, Note_on_c, 8, 64, 113
10, 168744, Note_on_c, 8, 64, 0
10, 168744, Note_on_c, 8, 52, 0
10, 169008, Control_c, 8, 1, 0
10, 169008, Control_c, 8, 11, 50
10, 169008, Note_on_c, 8, 48, 100
10, 169009, Control_c, 8, 1, 1
10, 169010, Control_c, 8, 1, 2
10, 169011, Control_c, 8, 1, 3
10, 169012, Control_c, 8, 1, 4
10, 169014, Control_c, 8, 1, 5
10, 169015, Control_c, 8, 1, 6
10, 169017, Control_c, 8, 1, 7
10, 169019, Control_c, 8, 1, 8
10, 169020, Control_c, 8, 1, 9
10, 169022, Control_c, 8, 1, 10
10, 169025, Control_c, 8, 1, 11
10, 169027, Control_c, 8, 1, 12
10, 169030, Control_c, 8, 1, 13
10, 169033, Control_c, 8, 1, 14
10, 169036, Control_c, 8, 1, 15
10, 169040, Control_c, 8, 1, 16
10, 169045, Control_c, 8, 1, 17
10, 169051, Control_c, 8, 1, 18
10, 169058, Control_c, 8, 1, 19
10, 169068, Control_c, 8, 1, 20
10, 169085, Control_c, 8, 1, 21
10, 169296, Control_c, 8, 11, 50
10, 169306, Control_c, 8, 11, 51
10, 169316, Control_c, 8, 11, 52
10, 169325, Control_c, 8, 11, 53
10, 169335, Control_c, 8, 11, 54
10, 169344, Control_c, 8, 11, 55
10, 169354, Control_c, 8, 11, 56
10, 169363, Control_c, 8, 11, 57
10, 169373, Control_c, 8, 11, 58
10, 169383, Control_c, 8, 11, 59
10, 169392, Control_c, 8, 11, 60
10, 169402, Control_c, 8, 11, 61
10, 169411, Control_c, 8, 11, 62
10, 169421, Control_c, 8, 11, 63
10, 169430, Control_c, 8, 11, 64
10, 169440, Control_c, 8, 11, 65
10, 169450, Control_c, 8, 11, 66
10, 169459, Control_c, 8, 11, 67
10, 169469, Control_c, 8, 11, 68
10, 169478, Control_c, 8, 11, 69
10, 169488, Control_c, 8, 11, 70
10, 169497, Control_c, 8, 11, 71
10, 169507, Control_c, 8, 11, 72
10, 169517, Control_c, 8, 11, 73
10, 169526, Control_c, 8, 11, 74
10, 169536, Control_c, 8, 11, 75
10, 169545, Control_c, 8, 11, 76
10, 169555, Control_c, 8, 11, 77
10, 169564, Control_c, 8, 11, 78
10, 169574, Control_c, 8, 11, 79
10, 169583, Control_c, 8, 11, 80
10, 169584, Control_c, 8, 11, 80
10, 169594, Control_c, 8, 11, 79
10, 169604, Control_c, 8, 11, 78
10, 169613, Control_c, 8, 11, 77
10, 169623, Control_c, 8, 11, 76
10, 169632, Control_c, 8, 11, 75
10, 169642, Control_c, 8, 11, 74
10, 169651, Control_c, 8, 11, 73
10, 169661, Control_c, 8, 11, 72
10, 169671, Control_c, 8, 11, 71
10, 169680, Control_c, 8, 11, 70
10, 169690, Control_c, 8, 11, 69
10, 169699, Control_c, 8, 11, 68
10, 169709, Control_c, 8, 11, 67
10, 169718, Control_c, 8, 11, 66
10, 169728, Control_c, 8, 11, 65
10, 169738, Control_c, 8, 11, 64
10, 169747, Control_c, 8, 11, 63
10, 169757, Control_c, 8, 11, 62
10, 169766, Control_c, 8, 11, 61
10, 169776, Control_c, 8, 11, 60
10, 169785, Control_c, 8, 11, 59
10, 169795, Control_c, 8, 11, 58
10, 169805, Control_c, 8, 11, 57
10, 169814, Control_c, 8, 11, 56
10, 169824, Control_c, 8, 11, 55
10, 169833, Control_c, 8, 11, 54
10, 169843, Control_c, 8, 11, 53
10, 169852, Control_c, 8, 11, 52
10, 169862, Control_c, 8, 11, 51
10, 169871, Control_c, 8, 11, 50
10, 169872, Note_on_c, 8, 48, 0
10, 169872, Control_c, 8, 11, 50
10, 169872, Control_c, 8, 1, 0
10, 169872, Note_on_c, 8, 46, 100
10, 169872, Note_on_c, 8, 55, 100
10, 169873, Control_c, 8, 1, 1
10, 169874, Control_c, 8, 1, 2
10, 169875, Control_c, 8, 1, 3
10, 169876, Control_c, 8, 1, 4
10, 169878, Control_c, 8, 1, 5
10, 169879, Control_c, 8, 1, 6
10, 169881, Control_c, 8, 11, 51
10, 169881, Control_c, 8, 1, 7
10, 169883, Control_c, 8, 1, 8
10, 169884, Control_c, 8, 1, 9
10, 169886, Control_c, 8, 1, 10
10, 169889, Control_c, 8, 11, 52
10, 169889, Control_c, 8, 1, 11
10, 169891, Control_c, 8, 1, 12
10, 169894, Control_c, 8, 1, 13
10, 169897, Control_c, 8, 11, 53
10, 169897, Control_c, 8, 1, 14
10, 169900, Control_c, 8, 1, 15
10, 169904, Control_c, 8, 1, 16
10, 169905, Control_c, 8, 11, 54
10, 169909, Control_c, 8, 1, 17
10, 169914, Control_c, 8, 11, 55
10, 169915, Control_c, 8, 1, 18
10, 169920, Note_on_c, 8, 55, 0
10, 169920, Note_on_c, 8, 48, 100
10, 169922, Control_c, 8, 11, 56
10, 169922, Control_c, 8, 1, 19
10, 169930, Control_c, 8, 11, 57
10, 169932, Control_c, 8, 1, 20
10, 169938, Control_c, 8, 11, 58
10, 169946, Control_c, 8, 11, 59
10, 169949, Control_c, 8, 1, 21
10, 169955, Control_c, 8, 11, 60
10, 169963, Control_c, 8, 11, 61
10, 169968, Note_on_c, 8, 48, 0
10, 169968, Note_on_c, 8, 50, 100
10, 169971, Control_c, 8, 11, 62
10, 169979, Control_c, 8, 11, 63
10, 169987, Control_c, 8, 11, 64
10, 169996, Control_c, 8, 11, 65
10, 170004, Control_c, 8, 11, 66
10, 170012, Control_c, 8, 11, 67
10, 170016, Note_on_c, 8, 50, 0
10, 170016, Note_on_c, 8, 52, 100
10, 170020, Control_c, 8, 11, 68
10, 170029, Control_c, 8, 11, 69
10, 170037, Control_c, 8, 11, 70
10, 170045, Control_c, 8, 11, 71
10, 170053, Control_c, 8, 11, 72
10, 170061, Control_c, 8, 11, 73
10, 170064, Note_on_c, 8, 52, 0
10, 170064, Note_on_c, 8, 46, 0
10, 170064, Note_on_c, 8, 45, 100
10, 170064, Note_on_c, 8, 53, 100
10, 170070, Control_c, 8, 11, 74
10, 170078, Control_c, 8, 11, 75
10, 170086, Control_c, 8, 11, 76
10, 170094, Control_c, 8, 11, 77
10, 170102, Control_c, 8, 11, 78
10, 170111, Control_c, 8, 11, 79
10, 170112, Note_on_c, 8, 53, 0
10, 170112, Note_on_c, 8, 45, 0
10, 170112, Note_on_c, 8, 43, 100
10, 170112, Note_on_c, 8, 55, 100
10, 170119, Control_c, 8, 11, 80
10, 170127, Control_c, 8, 11, 81
10, 170135, Control_c, 8, 11, 82
10, 170144, Control_c, 8, 11, 83
10, 170152, Control_c, 8, 11, 84
10, 170160, Note_on_c, 8, 55, 0
10, 170160, Note_on_c, 8, 43, 0
10, 170160, Note_on_c, 8, 45, 100
10, 170160, Note_on_c, 8, 54, 100
10, 170160, Control_c, 8, 11, 85
10, 170168, Control_c, 8, 11, 86
10, 170176, Control_c, 8, 11, 87
10, 170185, Control_c, 8, 11, 88
10, 170193, Control_c, 8, 11, 89
10, 170201, Control_c, 8, 11, 90
10, 170208, Note_on_c, 8, 54, 0
10, 170208, Note_on_c, 8, 45, 0
10, 170208, Note_on_c, 8, 43, 100
10, 170208, Note_on_c, 8, 55, 100
10, 170209, Control_c, 8, 11, 91
10, 170217, Control_c, 8, 11, 92
10, 170226, Control_c, 8, 11, 93
10, 170234, Control_c, 8, 11, 94
10, 170242, Control_c, 8, 11, 95
10, 170250, Control_c, 8, 11, 96
10, 170256, Note_on_c, 8, 55, 0
10, 170256, Note_on_c, 8, 43, 0
10, 170256, Note_on_c, 8, 42, 100
10, 170256, Note_on_c, 8, 57, 100
10, 170259, Control_c, 8, 11, 97
10, 170267, Control_c, 8, 11, 98
10, 170275, Control_c, 8, 11, 99
10, 170283, Control_c, 8, 11, 100
10, 170291, Control_c, 8, 11, 101
10, 170300, Control_c, 8, 11, 102
10, 170304, Note_on_c, 8, 57, 0
10, 170304, Note_on_c, 8, 42, 0
10, 170304, Note_on_c, 8, 43, 100
10, 170304, Note_on_c, 8, 55, 100
10, 170308, Control_c, 8, 11, 103
10, 170316, Control_c, 8, 11, 104
10, 170324, Control_c, 8, 11, 105
10, 170332, Control_c, 8, 11, 106
10, 170341, Control_c, 8, 11, 107
10, 170349, Control_c, 8, 11, 108
10, 170352, Note_on_c, 8, 55, 0
10, 170352, Note_on_c, 8, 43, 0
10, 170352, Note_on_c, 8, 41, 100
10, 170352, Note_on_c, 8, 53, 100
10, 170357, Control_c, 8, 11, 109
10, 170365, Control_c, 8, 11, 110
10, 170374, Control_c, 8, 11, 111
10, 170382, Control_c, 8, 11, 112
10, 170390, Control_c, 8, 11, 113
10, 170398, Control_c, 8, 11, 114
10, 170400, Note_on_c, 8, 53, 0
10, 170400, Note_on_c, 8, 41, 0
10, 170400, Note_on_c, 8, 40, 100
10, 170400, Note_on_c, 8, 52, 100
10, 170406, Control_c, 8, 11, 115
10, 170415, Control_c, 8, 11, 116
10, 170423, Control_c, 8, 11, 117
10, 170431, Control_c, 8, 11, 118
10, 170439, Control_c, 8, 11, 119
10, 170447, Control_c, 8, 11, 120
10, 170448, Note_on_c, 8, 52, 0
10, 170448, Note_on_c, 8, 40, 0
10, 170448, Control_c, 8, 1, 0
10, 170448, Note_on_c, 8, 40, 105
10, 170448, Note_on_c, 8, 52, 105
10, 170472, Note_on_c, 8, 52, 0
10, 170472, Note_on_c, 8, 40, 0
10, 170496, Note_on_c, 8, 36, 100
10, 170496, Note_on_c, 8, 48, 100
10, 170520, Note_on_c, 8, 48, 0
10, 170520, Note_on_c, 8, 36, 0
10, 170544, Note_on_c, 8, 41, 100
10, 170544, Note_on_c, 8, 53, 100
10, 170568, Note_on_c, 8, 53, 0
10, 170568, Note_on_c, 8, 41, 0
10, 170592, Note_on_c, 8, 38, 105
10, 170592, Note_on_c, 8, 50, 105
10, 170616, Note_on_c, 8, 50, 0
10, 170616, Note_on_c, 8, 38, 0
10, 170640, Note_on_c, 8, 47, 100
10, 170640, Note_on_c, 8, 59, 100
10, 170664, Note_on_c, 8, 59, 0
10, 170664, Note_on_c, 8, 47, 0
10, 170688, Note_on_c, 8, 43, 100
10, 170688, Note_on_c, 8, 55, 100
10, 170712, Note_on_c, 8, 55, 0
10, 170712, Note_on_c, 8, 43, 0
10, 170736, Note_on_c, 8, 43, 100
10, 170736, Note_on_c, 8, 55, 100
10, 170760, Note_on_c, 8, 55, 0
10, 170760, Note_on_c, 8, 43, 0
10, 171024, Note_on_c, 8, 36, 105
10, 171024, Note_on_c, 8, 48, 105
10, 171048, Note_on_c, 8, 48, 0
10, 171048, Note_on_c, 8, 36, 0
10, 171072, Note_on_c, 8, 36, 100
10, 171072, Note_on_c, 8, 48, 100
10, 171096, Note_on_c, 8, 48, 0
10, 171096, Note_on_c, 8, 36, 0
10, 171120, Note_on_c, 8, 41, 100
10, 171120, Note_on_c, 8, 53, 100
10, 171144, Note_on_c, 8, 53, 0
10, 171144, Note_on_c, 8, 41, 0
10, 171168, Note_on_c, 8, 38, 105
10, 171168, Note_on_c, 8, 50, 105
10, 171192, Note_on_c, 8, 50, 0
10, 171192, Note_on_c, 8, 38, 0
10, 171216, Note_on_c, 8, 47, 100
10, 171216, Note_on_c, 8, 59, 100
10, 171240, Note_on_c, 8, 59, 0
10, 171240, Note_on_c, 8, 47, 0
10, 171264, Note_on_c, 8, 43, 100
10, 171264, Note_on_c, 8, 55, 100
10, 171288, Note_on_c, 8, 55, 0
10, 171288, Note_on_c, 8, 43, 0
10, 171312, Note_on_c, 8, 43, 105
10, 171312, Note_on_c, 8, 55, 105
10, 171336, Note_on_c, 8, 55, 0
10, 171336, Note_on_c, 8, 43, 0
10, 171360, Note_on_c, 8, 55, 100
10, 171360, Note_on_c, 8, 67, 100
10, 171384, Note_on_c, 8, 67, 0
10, 171384, Note_on_c, 8, 55, 0
10, 171408, Note_on_c, 8, 55, 100
10, 171408, Note_on_c, 8, 67, 100
10, 171432, Note_on_c, 8, 67, 0
10, 171432, Note_on_c, 8, 55, 0
10, 171456, Note_on_c, 8, 55, 105
10, 171456, Note_on_c, 8, 67, 105
10, 171480, Note_on_c, 8, 67, 0
10, 171480, Note_on_c, 8, 55, 0
10, 171504, Note_on_c, 8, 55, 100
10, 171504, Note_on_c, 8, 67, 100
10, 171528, Note_on_c, 8, 67, 0
10, 171528, Note_on_c, 8, 55, 0
10, 171552, Note_on_c, 8, 55, 100
10, 171552, Note_on_c, 8, 67, 100
10, 171576, Note_on_c, 8, 67, 0
10, 171576, Note_on_c, 8, 55, 0
10, 171600, Note_on_c, 8, 60, 105
10, 171600, Note_on_c, 8, 64, 105
10, 171624, Note_on_c, 8, 64, 0
10, 171624, Note_on_c, 8, 60, 0
10, 171648, Note_on_c, 8, 64, 100
10, 171648, Note_on_c, 8, 67, 100
10, 171672, Note_on_c, 8, 67, 0
10, 171672, Note_on_c, 8, 64, 0
10, 171696, Note_on_c, 8, 60, 100
10, 171696, Note_on_c, 8, 64, 100
10, 171720, Note_on_c, 8, 64, 0
10, 171720, Note_on_c, 8, 60, 0
10, 171744, Note_on_c, 8, 59, 105
10, 171744, Note_on_c, 8, 62, 105
10, 171768, Note_on_c, 8, 62, 0
10, 171768, Note_on_c, 8, 59, 0
10, 171792, Note_on_c, 8, 62, 100
10, 171792, Note_on_c, 8, 65, 100
10, 171816, Note_on_c, 8, 65, 0
10, 171816, Note_on_c, 8, 62, 0
10, 171840, Note_on_c, 8, 59, 100
10, 171840, Note_on_c, 8, 62, 100
10, 171864, Note_on_c, 8, 62, 0
10, 171864, Note_on_c, 8, 59, 0
10, 171888, Note_on_c, 8, 60, 105
10, 171888, Note_on_c, 8, 64, 105
10, 171912, Note_on_c, 8, 64, 0
10, 171912, Note_on_c, 8, 60, 0
10, 171936, Note_on_c, 8, 64, 100
10, 171936, Note_on_c, 8, 67, 100
10, 171960, Note_on_c, 8, 67, 0
10, 171960, Note_on_c, 8, 64, 0
10, 171984, Note_on_c, 8, 60, 100
10, 171984, Note_on_c, 8, 64, 100
10, 172008, Note_on_c, 8, 64, 0
10, 172008, Note_on_c, 8, 60, 0
10, 172032, Note_on_c, 8, 59, 105
10, 172032, Note_on_c, 8, 62, 105
10, 172056, Note_on_c, 8, 62, 0
10, 172056, Note_on_c, 8, 59, 0
10, 172080, Note_on_c, 8, 62, 100
10, 172080, Note_on_c, 8, 65, 100
10, 172104, Note_on_c, 8, 65, 0
10, 172104, Note_on_c, 8, 62, 0
10, 172128, Note_on_c, 8, 59, 100
10, 172128, Note_on_c, 8, 62, 100
10, 172152, Note_on_c, 8, 62, 0
10, 172152, Note_on_c, 8, 59, 0
10, 172176, Control_c, 8, 1, 0
10, 172176, Note_on_c, 8, 43, 43
10, 172177, Control_c, 8, 1, 2
10, 172178, Control_c, 8, 1, 3
10, 172179, Control_c, 8, 1, 4
10, 172180, Control_c, 8, 1, 5
10, 172181, Control_c, 8, 1, 6
10, 172182, Control_c, 8, 1, 7
10, 172183, Control_c, 8, 1, 8
10, 172184, Control_c, 8, 1, 9
10, 172186, Control_c, 8, 1, 10
10, 172187, Control_c, 8, 1, 11
10, 172189, Control_c, 8, 1, 12
10, 172191, Control_c, 8, 1, 13
10, 172193, Control_c, 8, 1, 14
10, 172195, Control_c, 8, 1, 15
10, 172198, Control_c, 8, 1, 16
10, 172201, Control_c, 8, 1, 17
10, 172205, Control_c, 8, 1, 18
10, 172210, Control_c, 8, 1, 19
10, 172216, Control_c, 8, 1, 20
10, 172224, Note_on_c, 8, 43, 0
10, 172224, Note_on_c, 8, 45, 45
10, 172227, Control_c, 8, 1, 21
10, 172272, Note_on_c, 8, 45, 0
10, 172272, Note_on_c, 8, 47, 47
10, 172320, Note_on_c, 8, 47, 0
10, 172320, Note_on_c, 8, 48, 48
10, 172368, Note_on_c, 8, 48, 0
10, 172368, Note_on_c, 8, 50, 50
10, 172416, Note_on_c, 8, 50, 0
10, 172416, Note_on_c, 8, 52, 52
10, 172464, Note_on_c, 8, 52, 0
10, 172464, Note_on_c, 8, 53, 53
10, 172512, Note_on_c, 8, 53, 0
10, 172512, Note_on_c, 8, 52, 52
10, 172560, Note_on_c, 8, 52, 0
10, 172560, Note_on_c, 8, 53, 53
10, 172608, Note_on_c, 8, 53, 0
10, 172608, Note_on_c, 8, 55, 55
10, 172656, Note_on_c, 8, 55, 0
10, 172656, Note_on_c, 8, 57, 57
10, 172704, Note_on_c, 8, 57, 0
10, 172704, Note_on_c, 8, 59, 59
10, 172752, Note_on_c, 8, 59, 0
10, 172752, Control_c, 8, 1, 0
10, 172752, Note_on_c, 8, 60, 50
10, 172776, Note_on_c, 8, 60, 0
10, 172896, Note_on_c, 8, 45, 55
10, 172931, Note_on_c, 8, 45, 0
10, 172968, Note_on_c, 8, 57, 50
10, 172980, Note_on_c, 8, 57, 0
10, 172992, Note_on_c, 8, 57, 50
10, 173016, Note_on_c, 8, 57, 0
10, 173040, Note_on_c, 8, 53, 50
10, 173064, Note_on_c, 8, 53, 0
10, 173184, Note_on_c, 8, 50, 55
10, 173184, Note_on_c, 8, 53, 55
10, 173219, Note_on_c, 8, 53, 0
10, 173219, Note_on_c, 8, 50, 0
10, 173256, Note_on_c, 8, 62, 50
10, 173256, Note_on_c, 8, 65, 50
10, 173268, Note_on_c, 8, 65, 0
10, 173268, Note_on_c, 8, 62, 0
10, 173280, Note_on_c, 8, 62, 50
10, 173280, Note_on_c, 8, 65, 50
10, 173304, Note_on_c, 8, 65, 0
10, 173304, Note_on_c, 8, 62, 0
10, 173328, Note_on_c, 8, 62, 50
10, 173328, Note_on_c, 8, 65, 50
10, 173352, Note_on_c, 8, 65, 0
10, 173352, Note_on_c, 8, 62, 0
10, 174048, Note_on_c, 8, 46, 60
10, 174083, Note_on_c, 8, 46, 0
10, 174120, Note_on_c, 8, 58, 50
10, 174132, Note_on_c, 8, 58, 0
10, 174144, Note_on_c, 8, 58, 50
10, 174168, Note_on_c, 8, 58, 0
10, 174192, Note_on_c, 8, 58, 50
10, 174216, Note_on_c, 8, 58, 0
10, 174336, Note_on_c, 8, 51, 60
10, 174371, Note_on_c, 8, 51, 0
10, 174408, Note_on_c, 8, 63, 50
10, 174420, Note_on_c, 8, 63, 0
10, 174432, Note_on_c, 8, 63, 50
10, 174456, Note_on_c, 8, 63, 0
10, 174480, Note_on_c, 8, 63, 50
10, 174504, Note_on_c, 8, 63, 0
10, 175200, Note_on_c, 8, 36, 60
10, 175200, Note_on_c, 8, 48, 60
10, 175235, Note_on_c, 8, 48, 0
10, 175235, Note_on_c, 8, 36, 0
10, 175272, Note_on_c, 8, 48, 61
10, 175272, Note_on_c, 8, 60, 61
10, 175284, Note_on_c, 8, 60, 0
10, 175284, Note_on_c, 8, 48, 0
10, 175296, Note_on_c, 8, 48, 62
10, 175296, Note_on_c, 8, 60, 62
10, 175320, Note_on_c, 8, 60, 0
10, 175320, Note_on_c, 8, 48, 0
10, 175344, Note_on_c, 8, 44, 63
10, 175344, Note_on_c, 8, 56, 63
10, 175368, Note_on_c, 8, 56, 0
10, 175368, Note_on_c, 8, 44, 0
10, 175488, Note_on_c, 8, 41, 66
10, 175488, Note_on_c, 8, 53, 66
10, 175523, Note_on_c, 8, 53, 0
10, 175523, Note_on_c, 8, 41, 0
10, 175560, Note_on_c, 8, 53, 68
10, 175560, Note_on_c, 8, 65, 68
10, 175572, Note_on_c, 8, 65, 0
10, 175572, Note_on_c, 8, 53, 0
10, 175584, Note_on_c, 8, 53, 69
10, 175584, Note_on_c, 8, 65, 69
10, 175608, Note_on_c, 8, 65, 0
10, 175608, Note_on_c, 8, 53, 0
10, 175632, Note_on_c, 8, 49, 70
10, 175632, Note_on_c, 8, 61, 70
10, 175656, Note_on_c, 8, 61, 0
10, 175656, Note_on_c, 8, 49, 0
10, 175776, Note_on_c, 8, 34, 73
10, 175776, Note_on_c, 8, 46, 73
10, 175811, Note_on_c, 8, 46, 0
10, 175811, Note_on_c, 8, 34, 0
10, 175848, Note_on_c, 8, 46, 73
10, 175848, Note_on_c, 8, 58, 75
10, 175860, Note_on_c, 8, 58, 0
10, 175860, Note_on_c, 8, 46, 0
10, 175872, Note_on_c, 8, 46, 75
10, 175872, Note_on_c, 8, 58, 75
10, 175896, Note_on_c, 8, 58, 0
10, 175896, Note_on_c, 8, 46, 0
10, 175920, Note_on_c, 8, 42, 76
10, 175920, Note_on_c, 8, 54, 76
10, 175944, Note_on_c, 8, 54, 0
10, 175944, Note_on_c, 8, 42, 0
10, 176064, Note_on_c, 8, 39, 80
10, 176064, Note_on_c, 8, 51, 80
10, 176099, Note_on_c, 8, 51, 0
10, 176099, Note_on_c, 8, 39, 0
10, 176136, Note_on_c, 8, 51, 81
10, 176136, Note_on_c, 8, 63, 81
10, 176148, Note_on_c, 8, 63, 0
10, 176148, Note_on_c, 8, 51, 0
10, 176160, Note_on_c, 8, 51, 82
10, 176160, Note_on_c, 8, 63, 82
10, 176184, Note_on_c, 8, 63, 0
10, 176184, Note_on_c, 8, 51, 0
10, 176208, Note_on_c, 8, 47, 83
10, 176208, Note_on_c, 8, 59, 83
10, 176232, Note_on_c, 8, 59, 0
10, 176232, Note_on_c, 8, 47, 0
10, 176352, Note_on_c, 8, 44, 87
10, 176387, Note_on_c, 8, 44, 0
10, 176424, Note_on_c, 8, 44, 88
10, 176424, Note_on_c, 8, 56, 88
10, 176436, Note_on_c, 8, 56, 0
10, 176436, Note_on_c, 8, 44, 0
10, 176448, Note_on_c, 8, 44, 89
10, 176448, Note_on_c, 8, 56, 89
10, 176472, Note_on_c, 8, 56, 0
10, 176472, Note_on_c, 8, 44, 0
10, 176496, Note_on_c, 8, 40, 90
10, 176496, Note_on_c, 8, 52, 90
10, 176520, Note_on_c, 8, 52, 0
10, 176520, Note_on_c, 8, 40, 0
10, 176640, Note_on_c, 8, 37, 93
10, 176640, Note_on_c, 8, 49, 93
10, 176675, Note_on_c, 8, 49, 0
10, 176675, Note_on_c, 8, 37, 0
10, 176712, Note_on_c, 8, 49, 95
10, 176712, Note_on_c, 8, 61, 95
10, 176724, Note_on_c, 8, 61, 0
10, 176724, Note_on_c, 8, 49, 0
10, 176736, Note_on_c, 8, 49, 96
10, 176736, Note_on_c, 8, 61, 96
10, 176760, Note_on_c, 8, 61, 0
10, 176760, Note_on_c, 8, 49, 0
10, 176784, Note_on_c, 8, 45, 100
10, 176784, Note_on_c, 8, 57, 100
10, 176808, Note_on_c, 8, 57, 0
10, 176808, Note_on_c, 8, 45, 0
10, 176928, Note_on_c, 8, 45, 100
10, 176963, Note_on_c, 8, 45, 0
10, 177000, Note_on_c, 8, 45, 100
10, 177000, Note_on_c, 8, 57, 100
10, 177012, Note_on_c, 8, 57, 0
10, 177012, Note_on_c, 8, 45, 0
10, 177024, Note_on_c, 8, 45, 100
10, 177024, Note_on_c, 8, 57, 100
10, 177048, Note_on_c, 8, 57, 0
10, 177048, Note_on_c, 8, 45, 0
10, 177216, Note_on_c, 8, 34, 113
10, 177216, Note_on_c, 8, 46, 113
10, 177251, Note_on_c, 8, 46, 0
10, 177251, Note_on_c, 8, 34, 0
10, 177288, Note_on_c, 8, 46, 113
10, 177288, Note_on_c, 8, 58, 113
10, 177300, Note_on_c, 8, 58, 0
10, 177300, Note_on_c, 8, 46, 0
10, 177312, Note_on_c, 8, 46, 113
10, 177312, Note_on_c, 8, 58, 113
10, 177336, Note_on_c, 8, 58, 0
10, 177336, Note_on_c, 8, 46, 0
10, 177504, Note_on_c, 8, 35, 113
10, 177504, Note_on_c, 8, 47, 113
10, 177539, Note_on_c, 8, 47, 0
10, 177539, Note_on_c, 8, 35, 0
10, 177576, Note_on_c, 8, 47, 113
10, 177576, Note_on_c, 8, 59, 113
10, 177588, Note_on_c, 8, 59, 0
10, 177588, Note_on_c, 8, 47, 0
10, 177600, Note_on_c, 8, 47, 113
10, 177600, Note_on_c, 8, 59, 113
10, 177672, Note_on_c, 8, 59, 0
10, 177672, Note_on_c, 8, 47, 0
10, 177696, Note_on_c, 8, 59, 75
10, 177731, Note_on_c, 8, 59, 0
10, 177768, Note_on_c, 8, 47, 70
10, 177780, Note_on_c, 8, 47, 0
10, 177792, Note_on_c, 8, 47, 70
10, 177816, Note_on_c, 8, 47, 0
10, 177840, Note_on_c, 8, 52, 65
10, 177864, Note_on_c, 8, 52, 0
10, 177888, Note_on_c, 8, 51, 60
10, 177888, Note_on_c, 8, 54, 60
10, 177912, Note_on_c, 8, 54, 0
10, 177912, Note_on_c, 8, 51, 0
10, 177936, Note_on_c, 8, 52, 60
10, 177936, Note_on_c, 8, 55, 60
10, 177960, Note_on_c, 8, 55, 0
10, 177960, Note_on_c, 8, 52, 0
10, 177984, Note_on_c, 8, 51, 65
10, 177984, Note_on_c, 8, 54, 65
10, 178008, Note_on_c, 8, 54, 0
10, 178008, Note_on_c, 8, 51, 0
10, 178032, Note_on_c, 8, 52, 60
10, 178032, Note_on_c, 8, 55, 60
10, 178056, Note_on_c, 8, 55, 0
10, 178056, Note_on_c, 8, 52, 0
10, 178080, Note_on_c, 8, 54, 60
10, 178080, Note_on_c, 8, 57, 60
10, 178104, Note_on_c, 8, 57, 0
10, 178104, Note_on_c, 8, 54, 0
10, 178128, Note_on_c, 8, 52, 65
10, 178128, Note_on_c, 8, 55, 65
10, 178152, Note_on_c, 8, 55, 0
10, 178152, Note_on_c, 8, 52, 0
10, 178176, Note_on_c, 8, 55, 60
10, 178176, Note_on_c, 8, 59, 60
10, 178200, Note_on_c, 8, 59, 0
10, 178200, Note_on_c, 8, 55, 0
10, 178224, Note_on_c, 8, 55, 60
10, 178224, Note_on_c, 8, 59, 60
10, 178248, Note_on_c, 8, 59, 0
10, 178248, Note_on_c, 8, 55, 0
10, 178272, Note_on_c, 8, 55, 65
10, 178272, Note_on_c, 8, 59, 65
10, 178296, Note_on_c, 8, 59, 0
10, 178296, Note_on_c, 8, 55, 0
10, 178320, Note_on_c, 8, 54, 60
10, 178320, Note_on_c, 8, 57, 60
10, 178344, Note_on_c, 8, 57, 0
10, 178344, Note_on_c, 8, 54, 0
10, 178368, Note_on_c, 8, 52, 60
10, 178368, Note_on_c, 8, 55, 60
10, 178392, Note_on_c, 8, 55, 0
10, 178392, Note_on_c, 8, 52, 0
10, 178416, Note_on_c, 8, 54, 65
10, 178416, Note_on_c, 8, 57, 65
10, 178440, Note_on_c, 8, 57, 0
10, 178440, Note_on_c, 8, 54, 0
10, 178464, Note_on_c, 8, 52, 60
10, 178464, Note_on_c, 8, 55, 60
10, 178488, Note_on_c, 8, 55, 0
10, 178488, Note_on_c, 8, 52, 0
10, 178512, Note_on_c, 8, 51, 60
10, 178512, Note_on_c, 8, 54, 60
10, 178536, Note_on_c, 8, 54, 0
10, 178536, Note_on_c, 8, 51, 0
10, 178560, Note_on_c, 8, 59, 70
10, 178595, Note_on_c, 8, 59, 0
10, 178632, Note_on_c, 8, 47, 60
10, 178644, Note_on_c, 8, 47, 0
10, 178656, Note_on_c, 8, 47, 60
10, 178680, Note_on_c, 8, 47, 0
10, 178704, Note_on_c, 8, 47, 65
10, 178704, Note_on_c, 8, 52, 65
10, 178728, Note_on_c, 8, 52, 0
10, 178728, Note_on_c, 8, 47, 0
10, 178752, Note_on_c, 8, 47, 60
10, 178752, Note_on_c, 8, 54, 60
10, 178776, Note_on_c, 8, 54, 0
10, 178776, Note_on_c, 8, 47, 0
10, 178800, Note_on_c, 8, 47, 60
10, 178800, Note_on_c, 8, 55, 60
10, 178824, Note_on_c, 8, 55, 0
10, 178824, Note_on_c, 8, 47, 0
10, 178848, Note_on_c, 8, 47, 65
10, 178848, Note_on_c, 8, 54, 65
10, 178872, Note_on_c, 8, 54, 0
10, 178872, Note_on_c, 8, 47, 0
10, 178896, Note_on_c, 8, 47, 60
10, 178896, Note_on_c, 8, 55, 60
10, 178920, Note_on_c, 8, 55, 0
10, 178920, Note_on_c, 8, 47, 0
10, 178944, Note_on_c, 8, 47, 60
10, 178944, Note_on_c, 8, 57, 60
10, 178968, Note_on_c, 8, 57, 0
10, 178968, Note_on_c, 8, 47, 0
10, 178992, Note_on_c, 8, 52, 65
10, 178992, Note_on_c, 8, 56, 65
10, 179016, Note_on_c, 8, 56, 0
10, 179016, Note_on_c, 8, 52, 0
10, 179040, Note_on_c, 8, 52, 60
10, 179040, Note_on_c, 8, 64, 60
10, 179064, Note_on_c, 8, 64, 0
10, 179064, Note_on_c, 8, 52, 0
10, 179088, Note_on_c, 8, 52, 60
10, 179088, Note_on_c, 8, 64, 60
10, 179112, Note_on_c, 8, 64, 0
10, 179112, Note_on_c, 8, 52, 0
10, 179136, Note_on_c, 8, 60, 65
10, 179136, Note_on_c, 8, 64, 65
10, 179160, Note_on_c, 8, 64, 0
10, 179160, Note_on_c, 8, 60, 0
10, 179184, Note_on_c, 8, 59, 60
10, 179184, Note_on_c, 8, 62, 60
10, 179208, Note_on_c, 8, 62, 0
10, 179208, Note_on_c, 8, 59, 0
10, 179232, Note_on_c, 8, 57, 60
10, 179232, Note_on_c, 8, 60, 60
10, 179256, Note_on_c, 8, 60, 0
10, 179256, Note_on_c, 8, 57, 0
10, 179280, Note_on_c, 8, 59, 65
10, 179280, Note_on_c, 8, 62, 65
10, 179304, Note_on_c, 8, 62, 0
10, 179304, Note_on_c, 8, 59, 0
10, 179328, Note_on_c, 8, 57, 60
10, 179328, Note_on_c, 8, 60, 60
10, 179352, Note_on_c, 8, 60, 0
10, 179352, Note_on_c, 8, 57, 0
10, 179376, Note_on_c, 8, 56, 60
10, 179376, Note_on_c, 8, 59, 60
10, 179400, Note_on_c, 8, 59, 0
10, 179400, Note_on_c, 8, 56, 0
10, 179424, Note_on_c, 8, 64, 70
10, 179459, Note_on_c, 8, 64, 0
10, 179496, Note_on_c, 8, 52, 60
10, 179508, Note_on_c, 8, 52, 0
10, 179520, Note_on_c, 8, 52, 60
10, 179544, Note_on_c, 8, 52, 0
10, 179568, Note_on_c, 8, 52, 65
10, 179568, Note_on_c, 8, 57, 65
10, 179592, Note_on_c, 8, 57, 0
10, 179592, Note_on_c, 8, 52, 0
10, 179616, Note_on_c, 8, 56, 60
10, 179616, Note_on_c, 8, 59, 60
10, 179640, Note_on_c, 8, 59, 0
10, 179640, Note_on_c, 8, 56, 0
10, 179664, Note_on_c, 8, 57, 60
10, 179664, Note_on_c, 8, 60, 60
10, 179688, Note_on_c, 8, 60, 0
10, 179688, Note_on_c, 8, 57, 0
10, 179712, Note_on_c, 8, 56, 65
10, 179712, Note_on_c, 8, 59, 65
10, 179736, Note_on_c, 8, 59, 0
10, 179736, Note_on_c, 8, 56, 0
10, 179760, Note_on_c, 8, 57, 60
10, 179760, Note_on_c, 8, 60, 60
10, 179784, Note_on_c, 8, 60, 0
10, 179784, Note_on_c, 8, 57, 0
10, 179808, Note_on_c, 8, 59, 60
10, 179808, Note_on_c, 8, 62, 60
10, 179832, Note_on_c, 8, 62, 0
10, 179832, Note_on_c, 8, 59, 0
10, 179856, Note_on_c, 8, 57, 65
10, 179856, Note_on_c, 8, 60, 65
10, 179880, Note_on_c, 8, 60, 0
10, 179880, Note_on_c, 8, 57, 0
10, 179904, Note_on_c, 8, 60, 60
10, 179904, Note_on_c, 8, 64, 60
10, 179928, Note_on_c, 8, 64, 0
10, 179928, Note_on_c, 8, 60, 0
10, 179952, Note_on_c, 8, 60, 60
10, 179952, Note_on_c, 8, 64, 60
10, 179976, Note_on_c, 8, 64, 0
10, 179976, Note_on_c, 8, 60, 0
10, 180000, Note_on_c, 8, 60, 65
10, 180000, Note_on_c, 8, 64, 65
10, 180024, Note_on_c, 8, 64, 0
10, 180024, Note_on_c, 8, 60, 0
10, 180048, Note_on_c, 8, 59, 60
10, 180048, Note_on_c, 8, 62, 60
10, 180072, Note_on_c, 8, 62, 0
10, 180072, Note_on_c, 8, 59, 0
10, 180096, Note_on_c, 8, 57, 60
10, 180096, Note_on_c, 8, 60, 60
10, 180120, Note_on_c, 8, 60, 0
10, 180120, Note_on_c, 8, 57, 0
10, 180144, Note_on_c, 8, 59, 65
10, 180144, Note_on_c, 8, 62, 65
10, 180168, Note_on_c, 8, 62, 0
10, 180168, Note_on_c, 8, 59, 0
10, 180192, Note_on_c, 8, 57, 60
10, 180192, Note_on_c, 8, 60, 60
10, 180216, Note_on_c, 8, 60, 0
10, 180216, Note_on_c, 8, 57, 0
10, 180240, Note_on_c, 8, 56, 60
10, 180240, Note_on_c, 8, 59, 60
10, 180264, Note_on_c, 8, 59, 0
10, 180264, Note_on_c, 8, 56, 0
10, 180432, Note_on_c, 8, 57, 65
10, 180432, Note_on_c, 8, 60, 65
10, 180456, Note_on_c, 8, 60, 0
10, 180456, Note_on_c, 8, 57, 0
10, 180480, Note_on_c, 8, 55, 60
10, 180480, Note_on_c, 8, 58, 60
10, 180504, Note_on_c, 8, 58, 0
10, 180504, Note_on_c, 8, 55, 0
10, 180528, Note_on_c, 8, 53, 60
10, 180528, Note_on_c, 8, 57, 60
10, 180552, Note_on_c, 8, 57, 0
10, 180552, Note_on_c, 8, 53, 0
10, 180576, Note_on_c, 8, 58, 65
10, 180576, Note_on_c, 8, 62, 65
10, 180600, Note_on_c, 8, 62, 0
10, 180600, Note_on_c, 8, 58, 0
10, 180624, Note_on_c, 8, 57, 60
10, 180624, Note_on_c, 8, 60, 60
10, 180648, Note_on_c, 8, 60, 0
10, 180648, Note_on_c, 8, 57, 0
10, 180672, Note_on_c, 8, 55, 60
10, 180672, Note_on_c, 8, 58, 60
10, 180696, Note_on_c, 8, 58, 0
10, 180696, Note_on_c, 8, 55, 0
10, 180864, Note_on_c, 8, 57, 65
10, 180864, Note_on_c, 8, 65, 65
10, 180888, Note_on_c, 8, 65, 0
10, 180888, Note_on_c, 8, 57, 0
10, 180912, Note_on_c, 8, 55, 60
10, 180912, Note_on_c, 8, 58, 60
10, 180936, Note_on_c, 8, 58, 0
10, 180936, Note_on_c, 8, 55, 0
10, 180960, Note_on_c, 8, 53, 60
10, 180960, Note_on_c, 8, 57, 60
10, 180984, Note_on_c, 8, 57, 0
10, 180984, Note_on_c, 8, 53, 0
10, 181008, Note_on_c, 8, 55, 65
10, 181008, Note_on_c, 8, 58, 65
10, 181032, Note_on_c, 8, 58, 0
10, 181032, Note_on_c, 8, 55, 0
10, 181056, Note_on_c, 8, 53, 60
10, 181056, Note_on_c, 8, 57, 60
10, 181080, Note_on_c, 8, 57, 0
10, 181080, Note_on_c, 8, 53, 0
10, 181104, Note_on_c, 8, 52, 60
10, 181104, Note_on_c, 8, 55, 60
10, 181128, Note_on_c, 8, 55, 0
10, 181128, Note_on_c, 8, 52, 0
10, 181296, Note_on_c, 8, 57, 65
10, 181296, Note_on_c, 8, 65, 65
10, 181320, Note_on_c, 8, 65, 0
10, 181320, Note_on_c, 8, 57, 0
10, 181344, Note_on_c, 8, 55, 60
10, 181344, Note_on_c, 8, 58, 60
10, 181368, Note_on_c, 8, 58, 0
10, 181368, Note_on_c, 8, 55, 0
10, 181392, Note_on_c, 8, 53, 60
10, 181392, Note_on_c, 8, 57, 60
10, 181416, Note_on_c, 8, 57, 0
10, 181416, Note_on_c, 8, 53, 0
10, 181440, Note_on_c, 8, 58, 65
10, 181440, Note_on_c, 8, 62, 65
10, 181464, Note_on_c, 8, 62, 0
10, 181464, Note_on_c, 8, 58, 0
10, 181488, Note_on_c, 8, 57, 60
10, 181488, Note_on_c, 8, 60, 60
10, 181512, Note_on_c, 8, 60, 0
10, 181512, Note_on_c, 8, 57, 0
10, 181536, Note_on_c, 8, 55, 60
10, 181536, Note_on_c, 8, 58, 60
10, 181560, Note_on_c, 8, 58, 0
10, 181560, Note_on_c, 8, 55, 0
10, 181728, Note_on_c, 8, 57, 65
10, 181728, Note_on_c, 8, 60, 65
10, 181752, Note_on_c, 8, 60, 0
10, 181752, Note_on_c, 8, 57, 0
10, 181776, Note_on_c, 8, 55, 60
10, 181776, Note_on_c, 8, 64, 60
10, 181800, Note_on_c, 8, 64, 0
10, 181800, Note_on_c, 8, 55, 0
10, 181824, Note_on_c, 8, 57, 60
10, 181824, Note_on_c, 8, 65, 60
10, 181848, Note_on_c, 8, 65, 0
10, 181848, Note_on_c, 8, 57, 0
10, 181872, Note_on_c, 8, 55, 65
10, 181872, Note_on_c, 8, 64, 65
10, 181896, Note_on_c, 8, 64, 0
10, 181896, Note_on_c, 8, 55, 0
10, 181920, Note_on_c, 8, 57, 60
10, 181920, Note_on_c, 8, 65, 60
10, 181944, Note_on_c, 8, 65, 0
10, 181944, Note_on_c, 8, 57, 0
10, 181968, Note_on_c, 8, 58, 60
10, 181968, Note_on_c, 8, 67, 60
10, 181992, Note_on_c, 8, 67, 0
10, 181992, Note_on_c, 8, 58, 0
10, 182016, Note_on_c, 8, 57, 65
10, 182016, Note_on_c, 8, 60, 65
10, 182040, Note_on_c, 8, 60, 0
10, 182040, Note_on_c, 8, 57, 0
10, 182064, Note_on_c, 8, 55, 60
10, 182064, Note_on_c, 8, 58, 60
10, 182088, Note_on_c, 8, 58, 0
10, 182088, Note_on_c, 8, 55, 0
10, 182112, Note_on_c, 8, 53, 60
10, 182112, Note_on_c, 8, 57, 60
10, 182136, Note_on_c, 8, 57, 0
10, 182136, Note_on_c, 8, 53, 0
10, 182160, Note_on_c, 8, 53, 65
10, 182160, Note_on_c, 8, 57, 65
10, 182184, Note_on_c, 8, 57, 0
10, 182184, Note_on_c, 8, 53, 0
10, 182208, Note_on_c, 8, 55, 60
10, 182208, Note_on_c, 8, 58, 60
10, 182232, Note_on_c, 8, 58, 0
10, 182232, Note_on_c, 8, 55, 0
10, 182256, Note_on_c, 8, 57, 60
10, 182256, Note_on_c, 8, 60, 60
10, 182280, Note_on_c, 8, 60, 0
10, 182280, Note_on_c, 8, 57, 0
10, 182304, Note_on_c, 8, 57, 65
10, 182304, Note_on_c, 8, 60, 65
10, 182328, Note_on_c, 8, 60, 0
10, 182328, Note_on_c, 8, 57, 0
10, 182352, Note_on_c, 8, 55, 60
10, 182352, Note_on_c, 8, 58, 60
10, 182376, Note_on_c, 8, 58, 0
10, 182376, Note_on_c, 8, 55, 0
10, 182400, Note_on_c, 8, 57, 60
10, 182400, Note_on_c, 8, 60, 60
10, 182424, Note_on_c, 8, 60, 0
10, 182424, Note_on_c, 8, 57, 0
10, 182592, Note_on_c, 8, 60, 60
10, 182627, Note_on_c, 8, 60, 0
10, 182664, Note_on_c, 8, 48, 50
10, 182676, Note_on_c, 8, 48, 0
10, 182688, Note_on_c, 8, 48, 50
10, 182712, Note_on_c, 8, 48, 0
10, 182880, Note_on_c, 8, 53, 55
10, 182880, Note_on_c, 8, 57, 55
10, 182904, Note_on_c, 8, 57, 0
10, 182904, Note_on_c, 8, 53, 0
10, 182928, Note_on_c, 8, 52, 50
10, 182928, Note_on_c, 8, 55, 50
10, 182952, Note_on_c, 8, 55, 0
10, 182952, Note_on_c, 8, 52, 0
10, 182976, Note_on_c, 8, 50, 50
10, 182976, Note_on_c, 8, 53, 50
10, 183000, Note_on_c, 8, 53, 0
10, 183000, Note_on_c, 8, 50, 0
10, 183024, Note_on_c, 8, 50, 55
10, 183024, Note_on_c, 8, 53, 55
10, 183048, Note_on_c, 8, 53, 0
10, 183048, Note_on_c, 8, 50, 0
10, 183072, Note_on_c, 8, 52, 50
10, 183072, Note_on_c, 8, 55, 50
10, 183096, Note_on_c, 8, 55, 0
10, 183096, Note_on_c, 8, 52, 0
10, 183120, Note_on_c, 8, 53, 50
10, 183120, Note_on_c, 8, 57, 50
10, 183144, Note_on_c, 8, 57, 0
10, 183144, Note_on_c, 8, 53, 0
10, 183168, Note_on_c, 8, 53, 55
10, 183168, Note_on_c, 8, 57, 55
10, 183192, Note_on_c, 8, 57, 0
10, 183192, Note_on_c, 8, 53, 0
10, 183216, Note_on_c, 8, 52, 50
10, 183216, Note_on_c, 8, 55, 50
10, 183240, Note_on_c, 8, 55, 0
10, 183240, Note_on_c, 8, 52, 0
10, 183264, Note_on_c, 8, 53, 50
10, 183264, Note_on_c, 8, 57, 50
10, 183288, Note_on_c, 8, 57, 0
10, 183288, Note_on_c, 8, 53, 0
10, 183744, Note_on_c, 8, 53, 55
10, 183744, Note_on_c, 8, 57, 55
10, 183768, Note_on_c, 8, 57, 0
10, 183768, Note_on_c, 8, 53, 0
10, 183792, Note_on_c, 8, 52, 50
10, 183792, Note_on_c, 8, 55, 50
10, 183816, Note_on_c, 8, 55, 0
10, 183816, Note_on_c, 8, 52, 0
10, 183840, Note_on_c, 8, 50, 50
10, 183840, Note_on_c, 8, 53, 50
10, 183864, Note_on_c, 8, 53, 0
10, 183864, Note_on_c, 8, 50, 0
10, 183888, Note_on_c, 8, 50, 55
10, 183888, Note_on_c, 8, 53, 55
10, 183912, Note_on_c, 8, 53, 0
10, 183912, Note_on_c, 8, 50, 0
10, 183936, Note_on_c, 8, 52, 50
10, 183936, Note_on_c, 8, 55, 50
10, 183960, Note_on_c, 8, 55, 0
10, 183960, Note_on_c, 8, 52, 0
10, 183984, Note_on_c, 8, 53, 50
10, 183984, Note_on_c, 8, 57, 50
10, 184008, Note_on_c, 8, 57, 0
10, 184008, Note_on_c, 8, 53, 0
10, 184032, Note_on_c, 8, 53, 55
10, 184032, Note_on_c, 8, 57, 55
10, 184056, Note_on_c, 8, 57, 0
10, 184056, Note_on_c, 8, 53, 0
10, 184080, Note_on_c, 8, 52, 50
10, 184080, Note_on_c, 8, 55, 50
10, 184104, Note_on_c, 8, 55, 0
10, 184104, Note_on_c, 8, 52, 0
10, 184128, Note_on_c, 8, 53, 50
10, 184128, Note_on_c, 8, 57, 50
10, 184152, Note_on_c, 8, 57, 0
10, 184152, Note_on_c, 8, 53, 0
10, 185040, Note_on_c, 8, 57, 60
10, 185075, Note_on_c, 8, 57, 0
10, 185112, Note_on_c, 8, 45, 50
10, 185124, Note_on_c, 8, 45, 0
10, 185136, Note_on_c, 8, 45, 50
10, 185160, Note_on_c, 8, 45, 0
10, 185184, Note_on_c, 8, 50, 55
10, 185184, Note_on_c, 8, 53, 55
10, 185208, Note_on_c, 8, 53, 0
10, 185208, Note_on_c, 8, 50, 0
10, 185232, Note_on_c, 8, 52, 50
10, 185232, Note_on_c, 8, 55, 50
10, 185256, Note_on_c, 8, 55, 0
10, 185256, Note_on_c, 8, 52, 0
10, 185280, Note_on_c, 8, 53, 50
10, 185280, Note_on_c, 8, 57, 50
10, 185304, Note_on_c, 8, 57, 0
10, 185304, Note_on_c, 8, 53, 0
10, 185328, Note_on_c, 8, 52, 55
10, 185328, Note_on_c, 8, 55, 55
10, 185352, Note_on_c, 8, 55, 0
10, 185352, Note_on_c, 8, 52, 0
10, 185376, Note_on_c, 8, 53, 50
10, 185376, Note_on_c, 8, 57, 50
10, 185400, Note_on_c, 8, 57, 0
10, 185400, Note_on_c, 8, 53, 0
10, 185424, Note_on_c, 8, 55, 50
10, 185424, Note_on_c, 8, 57, 50
10, 185448, Note_on_c, 8, 57, 0
10, 185448, Note_on_c, 8, 55, 0
10, 185472, Note_on_c, 8, 50, 55
10, 185472, Note_on_c, 8, 53, 55
10, 185496, Note_on_c, 8, 53, 0
10, 185496, Note_on_c, 8, 50, 0
10, 185520, Note_on_c, 8, 57, 50
10, 185520, Note_on_c, 8, 65, 50
10, 185544, Note_on_c, 8, 65, 0
10, 185544, Note_on_c, 8, 57, 0
10, 185568, Note_on_c, 8, 57, 50
10, 185568, Note_on_c, 8, 65, 50
10, 185592, Note_on_c, 8, 65, 0
10, 185592, Note_on_c, 8, 57, 0
10, 185616, Note_on_c, 8, 57, 55
10, 185616, Note_on_c, 8, 65, 55
10, 185640, Note_on_c, 8, 65, 0
10, 185640, Note_on_c, 8, 57, 0
10, 185664, Note_on_c, 8, 55, 50
10, 185664, Note_on_c, 8, 64, 50
10, 185688, Note_on_c, 8, 64, 0
10, 185688, Note_on_c, 8, 55, 0
10, 185712, Note_on_c, 8, 53, 50
10, 185712, Note_on_c, 8, 62, 50
10, 185736, Note_on_c, 8, 62, 0
10, 185736, Note_on_c, 8, 53, 0
10, 185760, Note_on_c, 8, 55, 55
10, 185760, Note_on_c, 8, 64, 55
10, 185784, Note_on_c, 8, 64, 0
10, 185784, Note_on_c, 8, 55, 0
10, 185808, Note_on_c, 8, 53, 50
10, 185808, Note_on_c, 8, 62, 50
10, 185832, Note_on_c, 8, 62, 0
10, 185832, Note_on_c, 8, 53, 0
10, 185856, Note_on_c, 8, 52, 50
10, 185856, Note_on_c, 8, 61, 50
10, 185880, Note_on_c, 8, 61, 0
10, 185880, Note_on_c, 8, 52, 0
10, 185904, Note_on_c, 8, 53, 55
10, 185904, Note_on_c, 8, 62, 55
10, 185928, Note_on_c, 8, 62, 0
10, 185928, Note_on_c, 8, 53, 0
10, 185952, Note_on_c, 8, 65, 50
10, 185976, Note_on_c, 8, 65, 0
10, 186000, Note_on_c, 8, 65, 50
10, 186024, Note_on_c, 8, 65, 0
10, 186048, Note_on_c, 8, 65, 55
10, 186072, Note_on_c, 8, 65, 0
10, 186096, Note_on_c, 8, 64, 50
10, 186120, Note_on_c, 8, 64, 0
10, 186144, Note_on_c, 8, 62, 50
10, 186168, Note_on_c, 8, 62, 0
10, 186192, Note_on_c, 8, 64, 55
10, 186216, Note_on_c, 8, 64, 0
10, 186240, Note_on_c, 8, 62, 50
10, 186264, Note_on_c, 8, 62, 0
10, 186288, Note_on_c, 8, 61, 50
10, 186312, Note_on_c, 8, 61, 0
10, 186336, Note_on_c, 8, 62, 55
10, 186360, Note_on_c, 8, 62, 0
10, 186384, Note_on_c, 8, 67, 50
10, 186408, Note_on_c, 8, 67, 0
10, 186432, Note_on_c, 8, 65, 50
10, 186456, Note_on_c, 8, 65, 0
10, 186480, Note_on_c, 8, 65, 55
10, 186504, Note_on_c, 8, 65, 0
10, 186528, Note_on_c, 8, 63, 50
10, 186552, Note_on_c, 8, 63, 0
10, 186576, Note_on_c, 8, 59, 50
10, 186600, Note_on_c, 8, 59, 0
10, 186624, Note_on_c, 8, 60, 55
10, 186648, Note_on_c, 8, 60, 0
10, 186672, Note_on_c, 8, 65, 50
10, 186696, Note_on_c, 8, 65, 0
10, 186720, Note_on_c, 8, 63, 50
10, 186744, Note_on_c, 8, 63, 0
10, 186768, Note_on_c, 8, 65, 55
10, 186792, Note_on_c, 8, 65, 0
10, 186816, Note_on_c, 8, 63, 50
10, 186840, Note_on_c, 8, 63, 0
10, 186864, Note_on_c, 8, 67, 50
10, 186888, Note_on_c, 8, 67, 0
10, 186912, Note_on_c, 8, 67, 60
10, 186947, Note_on_c, 8, 67, 0
10, 186984, Note_on_c, 8, 55, 50
10, 186996, Note_on_c, 8, 55, 0
10, 187008, Note_on_c, 8, 55, 50
10, 187032, Note_on_c, 8, 55, 0
10, 187056, Note_on_c, 8, 58, 55
10, 187080, Note_on_c, 8, 58, 0
10, 187104, Note_on_c, 8, 58, 50
10, 187128, Note_on_c, 8, 58, 0
10, 187152, Note_on_c, 8, 58, 50
10, 187176, Note_on_c, 8, 58, 0
10, 187200, Note_on_c, 8, 58, 55
10, 187224, Note_on_c, 8, 58, 0
10, 187248, Note_on_c, 8, 58, 50
10, 187272, Note_on_c, 8, 58, 0
10, 187296, Note_on_c, 8, 58, 50
10, 187320, Note_on_c, 8, 58, 0
10, 187344, Note_on_c, 8, 58, 55
10, 187368, Note_on_c, 8, 58, 0
10, 187392, Note_on_c, 8, 58, 50
10, 187416, Note_on_c, 8, 58, 0
10, 187440, Note_on_c, 8, 58, 50
10, 187464, Note_on_c, 8, 58, 0
10, 187488, Note_on_c, 8, 58, 55
10, 187512, Note_on_c, 8, 58, 0
10, 187536, Note_on_c, 8, 58, 50
10, 187560, Note_on_c, 8, 58, 0
10, 187584, Note_on_c, 8, 58, 50
10, 187608, Note_on_c, 8, 58, 0
10, 187632, Note_on_c, 8, 58, 55
10, 187656, Note_on_c, 8, 58, 0
10, 187680, Note_on_c, 8, 58, 50
10, 187704, Note_on_c, 8, 58, 0
10, 187728, Note_on_c, 8, 58, 50
10, 187752, Note_on_c, 8, 58, 0
10, 187776, Note_on_c, 8, 58, 55
10, 187800, Note_on_c, 8, 58, 0
10, 187824, Note_on_c, 8, 58, 50
10, 187848, Note_on_c, 8, 58, 0
10, 187872, Note_on_c, 8, 58, 50
10, 187896, Note_on_c, 8, 58, 0
10, 187920, Note_on_c, 8, 58, 50
10, 187944, Note_on_c, 8, 58, 0
10, 188496, Note_on_c, 8, 58, 50
10, 188520, Note_on_c, 8, 58, 0
10, 188640, Note_on_c, 8, 58, 50
10, 188664, Note_on_c, 8, 58, 0
10, 188784, Note_on_c, 8, 58, 50
10, 188808, Note_on_c, 8, 58, 0
10, 188928, Note_on_c, 8, 58, 50
10, 188952, Note_on_c, 8, 58, 0
10, 189072, Note_on_c, 8, 46, 50
10, 189072, Note_on_c, 8, 58, 50
10, 189096, Note_on_c, 8, 58, 0
10, 189096, Note_on_c, 8, 46, 0
10, 189648, Note_on_c, 8, 45, 77
10, 189648, Note_on_c, 8, 57, 77
10, 189672, Note_on_c, 8, 57, 0
10, 189672, Note_on_c, 8, 45, 0
10, 189936, Note_on_c, 8, 45, 90
10, 189936, Note_on_c, 8, 57, 90
10, 189960, Note_on_c, 8, 57, 0
10, 189960, Note_on_c, 8, 45, 0
10, 190224, Note_on_c, 8, 45, 120
10, 190224, Note_on_c, 8, 57, 120
10, 190254, Note_on_c, 8, 57, 0
10, 190254, Note_on_c, 8, 45, 0
10, 190512, Note_on_c, 8, 45, 120
10, 190512, Note_on_c, 8, 57, 120
10, 190542, Note_on_c, 8, 57, 0
10, 190542, Note_on_c, 8, 45, 0
10, 190800, Note_on_c, 8, 38, 125
10, 190835, Note_on_c, 8, 38, 0
10, 190872, Note_on_c, 8, 38, 115
10, 190884, Note_on_c, 8, 38, 0
10, 190896, Note_on_c, 8, 38, 115
10, 190920, Note_on_c, 8, 38, 0
10, 190944, Note_on_c, 8, 38, 125
10, 190979, Note_on_c, 8, 38, 0
10, 191016, Note_on_c, 8, 38, 115
10, 191028, Note_on_c, 8, 38, 0
10, 191040, Note_on_c, 8, 38, 115
10, 191064, Note_on_c, 8, 38, 0
10, 191088, Note_on_c, 8, 38, 125
10, 191123, Note_on_c, 8, 38, 0
10, 191160, Note_on_c, 8, 38, 115
10, 191172, Note_on_c, 8, 38, 0
10, 191184, Note_on_c, 8, 38, 115
10, 191208, Note_on_c, 8, 38, 0
10, 191232, Note_on_c, 8, 38, 125
10, 191267, Note_on_c, 8, 38, 0
10, 191304, Note_on_c, 8, 38, 115
10, 191316, Note_on_c, 8, 38, 0
10, 191328, Note_on_c, 8, 38, 115
10, 191352, Note_on_c, 8, 38, 0
10, 191376, Note_on_c, 8, 38, 125
10, 191411, Note_on_c, 8, 38, 0
10, 191448, Note_on_c, 8, 38, 115
10, 191460, Note_on_c, 8, 38, 0
10, 191472, Note_on_c, 8, 38, 115
10, 191496, Note_on_c, 8, 38, 0
10, 191520, Note_on_c, 8, 38, 125
10, 191555, Note_on_c, 8, 38, 0
10, 191592, Note_on_c, 8, 38, 115
10, 191604, Note_on_c, 8, 38, 0
10, 191616, Note_on_c, 8, 38, 115
10, 191640, Note_on_c, 8, 38, 0
10, 191664, Note_on_c, 8, 38, 125
10, 191699, Note_on_c, 8, 38, 0
10, 191736, Note_on_c, 8, 38, 115
10, 191748, Note_on_c, 8, 38, 0
10, 191760, Note_on_c, 8, 38, 115
10, 191784, Note_on_c, 8, 38, 0
10, 191808, Note_on_c, 8, 38, 125
10, 191843, Note_on_c, 8, 38, 0
10, 191880, Note_on_c, 8, 38, 115
10, 191892, Note_on_c, 8, 38, 0
10, 191904, Note_on_c, 8, 38, 115
10, 191928, Note_on_c, 8, 38, 0
10, 191952, Note_on_c, 8, 38, 125
10, 191987, Note_on_c, 8, 38, 0
10, 192024, Note_on_c, 8, 38, 115
10, 192036, Note_on_c, 8, 38, 0
10, 192048, Note_on_c, 8, 38, 115
10, 192072, Note_on_c, 8, 38, 0
10, 192096, Note_on_c, 8, 38, 125
10, 192131, Note_on_c, 8, 38, 0
10, 192168, Note_on_c, 8, 38, 115
10, 192180, Note_on_c, 8, 38, 0
10, 192192, Note_on_c, 8, 38, 115
10, 192216, Note_on_c, 8, 38, 0
10, 192240, Note_on_c, 8, 38, 125
10, 192275, Note_on_c, 8, 38, 0
10, 192312, Note_on_c, 8, 38, 115
10, 192324, Note_on_c, 8, 38, 0
10, 192336, Note_on_c, 8, 38, 115
10, 192360, Note_on_c, 8, 38, 0
10, 192384, Note_on_c, 8, 38, 125
10, 192419, Note_on_c, 8, 38, 0
10, 192456, Note_on_c, 8, 38, 115
10, 192468, Note_on_c, 8, 38, 0
10, 192480, Note_on_c, 8, 38, 115
10, 192504, Note_on_c, 8, 38, 0
10, 192528, Note_on_c, 8, 38, 125
10, 192563, Note_on_c, 8, 38, 0
10, 192600, Note_on_c, 8, 38, 115
10, 192612, Note_on_c, 8, 38, 0
10, 192624, Note_on_c, 8, 38, 115
10, 192648, Note_on_c, 8, 38, 0
10, 192672, Note_on_c, 8, 38, 125
10, 192707, Note_on_c, 8, 38, 0
10, 192744, Note_on_c, 8, 38, 115
10, 192756, Note_on_c, 8, 38, 0
10, 192768, Note_on_c, 8, 38, 115
10, 192792, Note_on_c, 8, 38, 0
10, 192816, Note_on_c, 8, 38, 125
10, 192851, Note_on_c, 8, 38, 0
10, 192888, Note_on_c, 8, 38, 115
10, 192900, Note_on_c, 8, 38, 0
10, 192912, Note_on_c, 8, 38, 115
10, 192936, Note_on_c, 8, 38, 0
10, 192960, Note_on_c, 8, 38, 125
10, 192995, Note_on_c, 8, 38, 0
10, 193032, Note_on_c, 8, 38, 115
10, 193044, Note_on_c, 8, 38, 0
10, 193056, Note_on_c, 8, 38, 115
10, 193080, Note_on_c, 8, 38, 0
10, 193104, Note_on_c, 8, 51, 120
10, 193104, Note_on_c, 8, 63, 120
10, 193128, Note_on_c, 8, 63, 0
10, 193128, Note_on_c, 8, 51, 0
10, 193152, Note_on_c, 8, 50, 115
10, 193152, Note_on_c, 8, 62, 115
10, 193176, Note_on_c, 8, 62, 0
10, 193176, Note_on_c, 8, 50, 0
10, 193200, Note_on_c, 8, 48, 115
10, 193200, Note_on_c, 8, 60, 115
10, 193224, Note_on_c, 8, 60, 0
10, 193224, Note_on_c, 8, 48, 0
10, 193248, Note_on_c, 8, 46, 120
10, 193248, Note_on_c, 8, 58, 120
10, 193272, Note_on_c, 8, 58, 0
10, 193272, Note_on_c, 8, 46, 0
10, 193296, Note_on_c, 8, 45, 115
10, 193296, Note_on_c, 8, 57, 115
10, 193320, Note_on_c, 8, 57, 0
10, 193320, Note_on_c, 8, 45, 0
10, 193344, Note_on_c, 8, 43, 115
10, 193344, Note_on_c, 8, 55, 115
10, 193368, Note_on_c, 8, 55, 0
10, 193368, Note_on_c, 8, 43, 0
10, 193392, Note_on_c, 8, 42, 120
10, 193392, Note_on_c, 8, 54, 120
10, 193416, Note_on_c, 8, 54, 0
10, 193416, Note_on_c, 8, 42, 0
10, 193440, Note_on_c, 8, 43, 115
10, 193440, Note_on_c, 8, 55, 115
10, 193464, Note_on_c, 8, 55, 0
10, 193464, Note_on_c, 8, 43, 0
10, 193488, Note_on_c, 8, 45, 115
10, 193488, Note_on_c, 8, 57, 115
10, 193512, Note_on_c, 8, 57, 0
10, 193512, Note_on_c, 8, 45, 0
10, 193536, Note_on_c, 8, 43, 120
10, 193536, Note_on_c, 8, 55, 120
10, 193560, Note_on_c, 8, 55, 0
10, 193560, Note_on_c, 8, 43, 0
10, 193584, Note_on_c, 8, 45, 115
10, 193584, Note_on_c, 8, 57, 115
10, 193608, Note_on_c, 8, 57, 0
10, 193608, Note_on_c, 8, 45, 0
10, 193632, Note_on_c, 8, 46, 115
10, 193632, Note_on_c, 8, 58, 115
10, 193656, Note_on_c, 8, 58, 0
10, 193656, Note_on_c, 8, 46, 0
10, 193680, Note_on_c, 8, 51, 105
10, 193680, Note_on_c, 8, 63, 105
10, 193704, Note_on_c, 8, 63, 0
10, 193704, Note_on_c, 8, 51, 0
10, 193728, Note_on_c, 8, 50, 100
10, 193728, Note_on_c, 8, 62, 100
10, 193752, Note_on_c, 8, 62, 0
10, 193752, Note_on_c, 8, 50, 0
10, 193776, Note_on_c, 8, 48, 100
10, 193776, Note_on_c, 8, 60, 100
10, 193800, Note_on_c, 8, 60, 0
10, 193800, Note_on_c, 8, 48, 0
10, 193824, Note_on_c, 8, 46, 105
10, 193824, Note_on_c, 8, 58, 105
10, 193848, Note_on_c, 8, 58, 0
10, 193848, Note_on_c, 8, 46, 0
10, 193872, Note_on_c, 8, 45, 100
10, 193872, Note_on_c, 8, 57, 100
10, 193896, Note_on_c, 8, 57, 0
10, 193896, Note_on_c, 8, 45, 0
10, 193920, Note_on_c, 8, 43, 100
10, 193920, Note_on_c, 8, 55, 100
10, 193944, Note_on_c, 8, 55, 0
10, 193944, Note_on_c, 8, 43, 0
10, 193968, Note_on_c, 8, 53, 105
10, 193968, Note_on_c, 8, 65, 105
10, 193992, Note_on_c, 8, 65, 0
10, 193992, Note_on_c, 8, 53, 0
10, 194016, Note_on_c, 8, 51, 100
10, 194016, Note_on_c, 8, 63, 100
10, 194040, Note_on_c, 8, 63, 0
10, 194040, Note_on_c, 8, 51, 0
10, 194064, Note_on_c, 8, 50, 100
10, 194064, Note_on_c, 8, 62, 100
10, 194088, Note_on_c, 8, 62, 0
10, 194088, Note_on_c, 8, 50, 0
10, 194112, Note_on_c, 8, 48, 105
10, 194112, Note_on_c, 8, 60, 105
10, 194136, Note_on_c, 8, 60, 0
10, 194136, Note_on_c, 8, 48, 0
10, 194160, Note_on_c, 8, 46, 100
10, 194160, Note_on_c, 8, 58, 100
10, 194184, Note_on_c, 8, 58, 0
10, 194184, Note_on_c, 8, 46, 0
10, 194208, Note_on_c, 8, 45, 100
10, 194208, Note_on_c, 8, 57, 100
10, 194232, Note_on_c, 8, 57, 0
10, 194232, Note_on_c, 8, 45, 0
10, 194256, Note_on_c, 8, 45, 105
10, 194280, Note_on_c, 8, 45, 0
10, 194304, Note_on_c, 8, 46, 100
10, 194328, Note_on_c, 8, 46, 0
10, 194352, Note_on_c, 8, 48, 100
10, 194376, Note_on_c, 8, 48, 0
10, 194400, Note_on_c, 8, 50, 105
10, 194424, Note_on_c, 8, 50, 0
10, 194448, Note_on_c, 8, 51, 100
10, 194472, Note_on_c, 8, 51, 0
10, 194496, Note_on_c, 8, 53, 100
10, 194520, Note_on_c, 8, 53, 0
10, 194544, Note_on_c, 8, 55, 105
10, 194568, Note_on_c, 8, 55, 0
10, 194592, Note_on_c, 8, 57, 100
10, 194616, Note_on_c, 8, 57, 0
10, 194640, Note_on_c, 8, 58, 100
10, 194664, Note_on_c, 8, 58, 0
10, 194688, Note_on_c, 8, 60, 105
10, 194712, Note_on_c, 8, 60, 0
10, 194736, Note_on_c, 8, 62, 100
10, 194760, Note_on_c, 8, 62, 0
10, 194784, Note_on_c, 8, 63, 100
10, 194808, Note_on_c, 8, 63, 0
10, 194832, Control_c, 8, 1, 0
10, 194832, Note_on_c, 8, 65, 100
10, 194833, Control_c, 8, 1, 1
10, 194834, Control_c, 8, 1, 2
10, 194835, Control_c, 8, 1, 3
10, 194836, Control_c, 8, 1, 4
10, 194838, Control_c, 8, 1, 5
10, 194839, Control_c, 8, 1, 6
10, 194841, Control_c, 8, 1, 7
10, 194843, Control_c, 8, 1, 8
10, 194844, Control_c, 8, 1, 9
10, 194846, Control_c, 8, 1, 10
10, 194849, Control_c, 8, 1, 11
10, 194851, Control_c, 8, 1, 12
10, 194854, Control_c, 8, 1, 13
10, 194856, Control_c, 8, 11, 60
10, 194857, Control_c, 8, 1, 14
10, 194860, Control_c, 8, 1, 15
10, 194864, Control_c, 8, 1, 16
10, 194869, Control_c, 8, 1, 17
10, 194875, Control_c, 8, 1, 18
10, 194882, Control_c, 8, 1, 19
10, 194892, Control_c, 8, 1, 20
10, 194909, Control_c, 8, 1, 21
10, 195120, Control_c, 8, 11, 60
10, 195140, Control_c, 8, 11, 61
10, 195159, Control_c, 8, 11, 62
10, 195178, Control_c, 8, 11, 63
10, 195197, Control_c, 8, 11, 64
10, 195216, Control_c, 8, 11, 65
10, 195235, Control_c, 8, 11, 66
10, 195255, Control_c, 8, 11, 67
10, 195264, Note_on_c, 8, 63, 100
10, 195265, Note_on_c, 8, 65, 0
10, 195274, Control_c, 8, 11, 68
10, 195293, Control_c, 8, 11, 69
10, 195312, Control_c, 8, 11, 70
10, 195331, Control_c, 8, 11, 71
10, 195350, Control_c, 8, 11, 72
10, 195370, Control_c, 8, 11, 73
10, 195389, Control_c, 8, 11, 74
10, 195408, Control_c, 8, 11, 75
10, 195427, Control_c, 8, 11, 76
10, 195446, Control_c, 8, 11, 77
10, 195465, Control_c, 8, 11, 78
10, 195485, Control_c, 8, 11, 79
10, 195504, Control_c, 8, 11, 80
10, 195523, Control_c, 8, 11, 81
10, 195542, Control_c, 8, 11, 82
10, 195552, Note_on_c, 8, 62, 100
10, 195553, Note_on_c, 8, 63, 0
10, 195561, Control_c, 8, 11, 83
10, 195580, Control_c, 8, 11, 84
10, 195600, Control_c, 8, 11, 85
10, 195619, Control_c, 8, 11, 86
10, 195638, Control_c, 8, 11, 87
10, 195657, Control_c, 8, 11, 88
10, 195676, Control_c, 8, 11, 89
10, 195695, Control_c, 8, 11, 90
10, 195696, Control_c, 8, 11, 90
10, 195696, Note_on_c, 8, 61, 100
10, 195697, Note_on_c, 8, 62, 0
10, 195706, Control_c, 8, 11, 89
10, 195716, Control_c, 8, 11, 88
10, 195725, Control_c, 8, 11, 87
10, 195735, Control_c, 8, 11, 86
10, 195744, Control_c, 8, 11, 85
10, 195754, Control_c, 8, 11, 84
10, 195763, Control_c, 8, 11, 83
10, 195773, Control_c, 8, 11, 82
10, 195783, Control_c, 8, 11, 81
10, 195792, Control_c, 8, 11, 80
10, 195802, Control_c, 8, 11, 79
10, 195811, Control_c, 8, 11, 78
10, 195821, Control_c, 8, 11, 77
10, 195830, Control_c, 8, 11, 76
10, 195840, Note_on_c, 8, 60, 100
10, 195840, Control_c, 8, 11, 75
10, 195841, Note_on_c, 8, 61, 0
10, 195850, Control_c, 8, 11, 74
10, 195859, Control_c, 8, 11, 73
10, 195869, Control_c, 8, 11, 72
10, 195878, Control_c, 8, 11, 71
10, 195888, Control_c, 8, 11, 70
10, 195897, Control_c, 8, 11, 69
10, 195907, Control_c, 8, 11, 68
10, 195917, Control_c, 8, 11, 67
10, 195926, Control_c, 8, 11, 66
10, 195936, Control_c, 8, 11, 65
10, 195945, Control_c, 8, 11, 64
10, 195955, Control_c, 8, 11, 63
10, 195964, Control_c, 8, 11, 62
10, 195974, Control_c, 8, 11, 61
10, 195983, Control_c, 8, 11, 60
10, 195984, Control_c, 8, 1, 0
10, 195984, Note_on_c, 8, 46, 100
10, 195984, Note_on_c, 8, 58, 100
10, 195985, Note_on_c, 8, 60, 0
10, 195985, Control_c, 8, 1, 1
10, 195986, Control_c, 8, 1, 2
10, 195987, Control_c, 8, 1, 3
10, 195988, Control_c, 8, 1, 4
10, 195990, Control_c, 8, 1, 5
10, 195991, Control_c, 8, 1, 6
10, 195993, Control_c, 8, 1, 7
10, 195995, Control_c, 8, 1, 8
10, 195996, Control_c, 8, 1, 9
10, 195998, Control_c, 8, 1, 10
10, 196001, Control_c, 8, 1, 11
10, 196003, Control_c, 8, 1, 12
10, 196006, Control_c, 8, 1, 13
10, 196009, Control_c, 8, 1, 14
10, 196012, Control_c, 8, 1, 15
10, 196016, Control_c, 8, 1, 16
10, 196021, Control_c, 8, 1, 17
10, 196027, Control_c, 8, 1, 18
10, 196034, Control_c, 8, 1, 19
10, 196044, Control_c, 8, 1, 20
10, 196061, Control_c, 8, 1, 21
10, 196272, Note_on_c, 8, 57, 100
10, 196273, Note_on_c, 8, 58, 0
10, 196273, Note_on_c, 8, 46, 0
10, 196416, Control_c, 8, 11, 60
10, 196431, Control_c, 8, 11, 61
10, 196445, Control_c, 8, 11, 62
10, 196460, Control_c, 8, 11, 63
10, 196474, Control_c, 8, 11, 64
10, 196488, Control_c, 8, 11, 65
10, 196503, Control_c, 8, 11, 66
10, 196517, Control_c, 8, 11, 67
10, 196531, Control_c, 8, 11, 68
10, 196546, Control_c, 8, 11, 69
10, 196560, Note_on_c, 8, 59, 100
10, 196560, Control_c, 8, 11, 70
10, 196575, Control_c, 8, 11, 71
10, 196589, Control_c, 8, 11, 72
10, 196603, Control_c, 8, 11, 73
10, 196618, Control_c, 8, 11, 74
10, 196632, Control_c, 8, 11, 75
10, 196646, Control_c, 8, 11, 76
10, 196661, Control_c, 8, 11, 77
10, 196675, Control_c, 8, 11, 78
10, 196690, Control_c, 8, 11, 79
10, 196704, Note_on_c, 8, 55, 100
10, 196704, Control_c, 8, 11, 80
10, 196705, Note_on_c, 8, 57, 0
10, 196718, Control_c, 8, 11, 81
10, 196733, Control_c, 8, 11, 82
10, 196747, Control_c, 8, 11, 83
10, 196761, Control_c, 8, 11, 84
10, 196776, Control_c, 8, 11, 85
10, 196790, Control_c, 8, 11, 86
10, 196805, Control_c, 8, 11, 87
10, 196819, Control_c, 8, 11, 88
10, 196833, Control_c, 8, 11, 89
10, 196848, Note_on_c, 8, 58, 100
10, 196848, Control_c, 8, 11, 90
10, 196849, Note_on_c, 8, 59, 0
10, 196862, Control_c, 8, 11, 91
10, 196876, Control_c, 8, 11, 92
10, 196891, Control_c, 8, 11, 93
10, 196905, Control_c, 8, 11, 94
10, 196920, Control_c, 8, 11, 95
10, 196934, Control_c, 8, 11, 96
10, 196948, Control_c, 8, 11, 97
10, 196963, Control_c, 8, 11, 98
10, 196977, Control_c, 8, 11, 99
10, 196991, Control_c, 8, 11, 100
10, 196992, Control_c, 8, 11, 100
10, 196992, Note_on_c, 8, 54, 100
10, 196992, Note_on_c, 8, 57, 100
10, 196993, Note_on_c, 8, 58, 0
10, 196993, Note_on_c, 8, 55, 0
10, 197003, Control_c, 8, 11, 99
10, 197014, Control_c, 8, 11, 98
10, 197025, Control_c, 8, 11, 97
10, 197036, Control_c, 8, 11, 96
10, 197046, Control_c, 8, 11, 95
10, 197057, Control_c, 8, 11, 94
10, 197068, Control_c, 8, 11, 93
10, 197079, Control_c, 8, 11, 92
10, 197089, Control_c, 8, 11, 91
10, 197100, Control_c, 8, 11, 90
10, 197111, Control_c, 8, 11, 89
10, 197122, Control_c, 8, 11, 88
10, 197133, Control_c, 8, 11, 87
10, 197136, Note_on_c, 8, 53, 100
10, 197137, Note_on_c, 8, 54, 0
10, 197143, Control_c, 8, 11, 86
10, 197154, Control_c, 8, 11, 85
10, 197165, Control_c, 8, 11, 84
10, 197176, Control_c, 8, 11, 83
10, 197186, Control_c, 8, 11, 82
10, 197197, Control_c, 8, 11, 81
10, 197208, Control_c, 8, 11, 80
10, 197219, Control_c, 8, 11, 79
10, 197230, Control_c, 8, 11, 78
10, 197240, Control_c, 8, 11, 77
10, 197251, Control_c, 8, 11, 76
10, 197262, Control_c, 8, 11, 75
10, 197273, Control_c, 8, 11, 74
10, 197280, Note_on_c, 8, 52, 100
10, 197281, Note_on_c, 8, 53, 0
10, 197283, Control_c, 8, 11, 73
10, 197294, Control_c, 8, 11, 72
10, 197305, Control_c, 8, 11, 71
10, 197316, Control_c, 8, 11, 70
10, 197327, Control_c, 8, 11, 69
10, 197337, Control_c, 8, 11, 68
10, 197348, Control_c, 8, 11, 67
10, 197359, Control_c, 8, 11, 66
10, 197370, Control_c, 8, 11, 65
10, 197380, Control_c, 8, 11, 64
10, 197391, Control_c, 8, 11, 63
10, 197402, Control_c, 8, 11, 62
10, 197413, Control_c, 8, 11, 61
10, 197423, Control_c, 8, 11, 60
10, 197424, Note_on_c, 8, 57, 0
10, 197424, Note_on_c, 8, 52, 0
10, 197712, Control_c, 8, 1, 0
10, 197712, Control_c, 8, 11, 60
10, 197712, Note_on_c, 8, 58, 100
10, 197713, Control_c, 8, 1, 1
10, 197714, Control_c, 8, 1, 2
10, 197715, Control_c, 8, 1, 3
10, 197716, Control_c, 8, 1, 4
10, 197718, Control_c, 8, 1, 5
10, 197719, Control_c, 8, 1, 6
10, 197721, Control_c, 8, 1, 7
10, 197723, Control_c, 8, 11, 61
10, 197723, Control_c, 8, 1, 8
10, 197724, Control_c, 8, 1, 9
10, 197726, Control_c, 8, 1, 10
10, 197729, Control_c, 8, 1, 11
10, 197731, Control_c, 8, 1, 12
10, 197734, Control_c, 8, 11, 62
10, 197734, Control_c, 8, 1, 13
10, 197737, Control_c, 8, 1, 14
10, 197740, Control_c, 8, 1, 15
10, 197744, Control_c, 8, 1, 16
10, 197745, Control_c, 8, 11, 63
10, 197749, Control_c, 8, 1, 17
10, 197755, Control_c, 8, 1, 18
10, 197756, Control_c, 8, 11, 64
10, 197762, Control_c, 8, 1, 19
10, 197766, Control_c, 8, 11, 65
10, 197772, Control_c, 8, 1, 20
10, 197777, Control_c, 8, 11, 66
10, 197788, Control_c, 8, 11, 67
10, 197789, Control_c, 8, 1, 21
10, 197799, Control_c, 8, 11, 68
10, 197809, Control_c, 8, 11, 69
10, 197820, Control_c, 8, 11, 70
10, 197831, Control_c, 8, 11, 71
10, 197842, Control_c, 8, 11, 72
10, 197853, Control_c, 8, 11, 73
10, 197856, Note_on_c, 8, 64, 100
10, 197863, Control_c, 8, 11, 74
10, 197874, Control_c, 8, 11, 75
10, 197885, Control_c, 8, 11, 76
10, 197896, Control_c, 8, 11, 77
10, 197906, Control_c, 8, 11, 78
10, 197917, Control_c, 8, 11, 79
10, 197928, Control_c, 8, 11, 80
10, 197939, Control_c, 8, 11, 81
10, 197950, Control_c, 8, 11, 82
10, 197960, Control_c, 8, 11, 83
10, 197971, Control_c, 8, 11, 84
10, 197982, Control_c, 8, 11, 85
10, 197993, Control_c, 8, 11, 86
10, 198000, Note_on_c, 8, 57, 100
10, 198001, Note_on_c, 8, 58, 0
10, 198003, Control_c, 8, 11, 87
10, 198014, Control_c, 8, 11, 88
10, 198025, Control_c, 8, 11, 89
10, 198036, Control_c, 8, 11, 90
10, 198047, Control_c, 8, 11, 91
10, 198057, Control_c, 8, 11, 92
10, 198068, Control_c, 8, 11, 93
10, 198079, Control_c, 8, 11, 94
10, 198090, Control_c, 8, 11, 95
10, 198100, Control_c, 8, 11, 96
10, 198111, Control_c, 8, 11, 97
10, 198122, Control_c, 8, 11, 98
10, 198133, Control_c, 8, 11, 99
10, 198143, Control_c, 8, 11, 100
10, 198144, Control_c, 8, 11, 100
10, 198144, Note_on_c, 8, 62, 100
10, 198145, Note_on_c, 8, 64, 0
10, 198155, Control_c, 8, 11, 99
10, 198166, Control_c, 8, 11, 98
10, 198177, Control_c, 8, 11, 97
10, 198188, Control_c, 8, 11, 96
10, 198198, Control_c, 8, 11, 95
10, 198209, Control_c, 8, 11, 94
10, 198220, Control_c, 8, 11, 93
10, 198231, Control_c, 8, 11, 92
10, 198241, Control_c, 8, 11, 91
10, 198252, Control_c, 8, 11, 90
10, 198263, Control_c, 8, 11, 89
10, 198274, Control_c, 8, 11, 88
10, 198285, Control_c, 8, 11, 87
10, 198288, Note_on_c, 8, 56, 100
10, 198289, Note_on_c, 8, 57, 0
10, 198295, Control_c, 8, 11, 86
10, 198306, Control_c, 8, 11, 85
10, 198317, Control_c, 8, 11, 84
10, 198328, Control_c, 8, 11, 83
10, 198338, Control_c, 8, 11, 82
10, 198349, Control_c, 8, 11, 81
10, 198360, Control_c, 8, 11, 80
10, 198371, Control_c, 8, 11, 79
10, 198382, Control_c, 8, 11, 78
10, 198392, Control_c, 8, 11, 77
10, 198403, Control_c, 8, 11, 76
10, 198414, Control_c, 8, 11, 75
10, 198425, Control_c, 8, 11, 74
10, 198432, Note_on_c, 8, 55, 100
10, 198432, Note_on_c, 8, 61, 100
10, 198433, Note_on_c, 8, 62, 0
10, 198433, Note_on_c, 8, 56, 0
10, 198435, Control_c, 8, 11, 73
10, 198446, Control_c, 8, 11, 72
10, 198457, Control_c, 8, 11, 71
10, 198468, Control_c, 8, 11, 70
10, 198479, Control_c, 8, 11, 69
10, 198489, Control_c, 8, 11, 68
10, 198500, Control_c, 8, 11, 67
10, 198511, Control_c, 8, 11, 66
10, 198522, Control_c, 8, 11, 65
10, 198532, Control_c, 8, 11, 64
10, 198543, Control_c, 8, 11, 63
10, 198554, Control_c, 8, 11, 62
10, 198565, Control_c, 8, 11, 61
10, 198575, Control_c, 8, 11, 60
10, 198576, Note_on_c, 8, 61, 0
10, 198576, Note_on_c, 8, 55, 0
10, 198576, Control_c, 8, 1, 1
10, 198576, Control_c, 8, 11, 60
10, 198576, Note_on_c, 8, 45, 100
10, 198576, Note_on_c, 8, 57, 100
10, 198577, Control_c, 8, 1, 2
10, 198578, Control_c, 8, 1, 3
10, 198579, Control_c, 8, 1, 4
10, 198580, Control_c, 8, 1, 5
10, 198582, Control_c, 8, 1, 6
10, 198584, Control_c, 8, 1, 7
10, 198585, Control_c, 8, 1, 8
10, 198587, Control_c, 8, 1, 9
10, 198589, Control_c, 8, 1, 10
10, 198592, Control_c, 8, 1, 11
10, 198594, Control_c, 8, 1, 12
10, 198596, Control_c, 8, 11, 61
10, 198597, Control_c, 8, 1, 13
10, 198600, Control_c, 8, 1, 14
10, 198603, Control_c, 8, 1, 15
10, 198607, Control_c, 8, 1, 16
10, 198612, Control_c, 8, 1, 17
10, 198615, Control_c, 8, 11, 62
10, 198617, Control_c, 8, 1, 18
10, 198625, Control_c, 8, 1, 19
10, 198634, Control_c, 8, 11, 63
10, 198635, Control_c, 8, 1, 20
10, 198653, Control_c, 8, 11, 64
10, 198653, Control_c, 8, 1, 21
10, 198672, Control_c, 8, 11, 65
10, 198692, Control_c, 8, 11, 66
10, 198711, Control_c, 8, 11, 67
10, 198730, Control_c, 8, 11, 68
10, 198749, Control_c, 8, 11, 69
10, 198768, Control_c, 8, 11, 70
10, 198788, Control_c, 8, 11, 71
10, 198807, Control_c, 8, 11, 72
10, 198826, Control_c, 8, 11, 73
10, 198845, Control_c, 8, 11, 74
10, 198864, Control_c, 8, 11, 75
10, 198883, Control_c, 8, 11, 76
10, 198903, Control_c, 8, 11, 77
10, 198922, Control_c, 8, 11, 78
10, 198941, Control_c, 8, 11, 79
10, 198960, Control_c, 8, 11, 80
10, 198979, Control_c, 8, 11, 81
10, 198999, Control_c, 8, 11, 82
10, 199008, Note_on_c, 8, 43, 100
10, 199008, Note_on_c, 8, 55, 100
10, 199009, Note_on_c, 8, 57, 0
10, 199009, Note_on_c, 8, 45, 0
10, 199018, Control_c, 8, 11, 83
10, 199037, Control_c, 8, 11, 84
10, 199056, Control_c, 8, 11, 85
10, 199075, Control_c, 8, 11, 86
10, 199094, Control_c, 8, 11, 87
10, 199114, Control_c, 8, 11, 88
10, 199133, Control_c, 8, 11, 89
10, 199152, Control_c, 8, 11, 90
10, 199171, Control_c, 8, 11, 91
10, 199190, Control_c, 8, 11, 92
10, 199210, Control_c, 8, 11, 93
10, 199229, Control_c, 8, 11, 94
10, 199248, Control_c, 8, 11, 95
10, 199267, Control_c, 8, 11, 96
10, 199286, Control_c, 8, 11, 97
10, 199296, Note_on_c, 8, 42, 100
10, 199296, Note_on_c, 8, 54, 100
10, 199297, Note_on_c, 8, 55, 0
10, 199297, Note_on_c, 8, 43, 0
10, 199305, Control_c, 8, 11, 98
10, 199325, Control_c, 8, 11, 99
10, 199344, Control_c, 8, 11, 100
10, 199363, Control_c, 8, 11, 101
10, 199382, Control_c, 8, 11, 102
10, 199401, Control_c, 8, 11, 103
10, 199421, Control_c, 8, 11, 104
10, 199440, Note_on_c, 8, 41, 100
10, 199440, Note_on_c, 8, 53, 100
10, 199440, Control_c, 8, 11, 105
10, 199441, Note_on_c, 8, 54, 0
10, 199441, Note_on_c, 8, 42, 0
10, 199459, Control_c, 8, 11, 106
10, 199478, Control_c, 8, 11, 107
10, 199497, Control_c, 8, 11, 108
10, 199516, Control_c, 8, 11, 109
10, 199536, Control_c, 8, 11, 110
10, 199555, Control_c, 8, 11, 111
10, 199574, Control_c, 8, 11, 112
10, 199584, Note_on_c, 8, 40, 100
10, 199584, Note_on_c, 8, 52, 100
10, 199585, Note_on_c, 8, 53, 0
10, 199585, Note_on_c, 8, 41, 0
10, 199593, Control_c, 8, 11, 113
10, 199612, Control_c, 8, 11, 114
10, 199632, Control_c, 8, 11, 115
10, 199651, Control_c, 8, 11, 116
10, 199670, Control_c, 8, 11, 117
10, 199689, Control_c, 8, 11, 118
10, 199708, Control_c, 8, 11, 119
10, 199727, Control_c, 8, 11, 120
10, 199728, Note_on_c, 8, 52, 0
10, 199728, Note_on_c, 8, 40, 0
10, 199728, Control_c, 8, 1, 0
10, 199728, Note_on_c, 8, 50, 113
10, 199824, Note_on_c, 8, 50, 0
10, 199824, Note_on_c, 8, 52, 111
10, 199848, Note_on_c, 8, 52, 0
10, 199848, Note_on_c, 8, 54, 112
10, 199872, Note_on_c, 8, 54, 0
10, 199872, Note_on_c, 8, 55, 113
10, 199896, Note_on_c, 8, 55, 0
10, 199968, Note_on_c, 8, 54, 110
10, 199992, Note_on_c, 8, 54, 0
10, 200016, Note_on_c, 8, 52, 113
10, 200040, Note_on_c, 8, 52, 0
10, 200112, Note_on_c, 8, 50, 110
10, 200136, Note_on_c, 8, 50, 0
10, 200160, Note_on_c, 8, 52, 113
10, 200184, Note_on_c, 8, 52, 0
10, 200256, Note_on_c, 8, 49, 110
10, 200280, Note_on_c, 8, 49, 0
10, 200304, Note_on_c, 8, 50, 113
10, 200304, Note_on_c, 8, 54, 113
10, 200400, Note_on_c, 8, 54, 0
10, 200400, Note_on_c, 8, 50, 0
10, 200400, Note_on_c, 8, 52, 111
10, 200400, Note_on_c, 8, 55, 111
10, 200424, Note_on_c, 8, 55, 0
10, 200424, Note_on_c, 8, 52, 0
10, 200424, Note_on_c, 8, 54, 112
10, 200424, Note_on_c, 8, 57, 112
10, 200448, Note_on_c, 8, 57, 0
10, 200448, Note_on_c, 8, 54, 0
10, 200448, Note_on_c, 8, 55, 113
10, 200448, Note_on_c, 8, 59, 113
10, 200472, Note_on_c, 8, 59, 0
10, 200472, Note_on_c, 8, 55, 0
10, 200544, Note_on_c, 8, 54, 110
10, 200544, Note_on_c, 8, 57, 110
10, 200568, Note_on_c, 8, 57, 0
10, 200568, Note_on_c, 8, 54, 0
10, 200592, Note_on_c, 8, 52, 113
10, 200592, Note_on_c, 8, 55, 113
10, 200616, Note_on_c, 8, 55, 0
10, 200616, Note_on_c, 8, 52, 0
10, 200688, Note_on_c, 8, 50, 110
10, 200688, Note_on_c, 8, 54, 110
10, 200712, Note_on_c, 8, 54, 0
10, 200712, Note_on_c, 8, 50, 0
10, 200736, Note_on_c, 8, 52, 113
10, 200736, Note_on_c, 8, 55, 113
10, 200760, Note_on_c, 8, 55, 0
10, 200760, Note_on_c, 8, 52, 0
10, 200832, Note_on_c, 8, 49, 110
10, 200832, Note_on_c, 8, 52, 110
10, 200856, Note_on_c, 8, 52, 0
10, 200856, Note_on_c, 8, 49, 0
10, 200880, Note_on_c, 8, 50, 113
10, 200904, Note_on_c, 8, 50, 0
10, 200928, Note_on_c, 8, 53, 110
10, 200928, Note_on_c, 8, 62, 110
10, 200976, Note_on_c, 8, 62, 0
10, 200976, Note_on_c, 8, 53, 0
10, 200976, Note_on_c, 8, 55, 111
10, 200976, Note_on_c, 8, 64, 111
10, 201000, Note_on_c, 8, 64, 0
10, 201000, Note_on_c, 8, 55, 0
10, 201000, Note_on_c, 8, 57, 112
10, 201000, Note_on_c, 8, 65, 112
10, 201024, Note_on_c, 8, 65, 0
10, 201024, Note_on_c, 8, 57, 0
10, 201024, Note_on_c, 8, 58, 113
10, 201024, Note_on_c, 8, 67, 113
10, 201048, Note_on_c, 8, 67, 0
10, 201048, Note_on_c, 8, 58, 0
10, 201072, Note_on_c, 8, 58, 110
10, 201072, Note_on_c, 8, 67, 110
10, 201096, Note_on_c, 8, 67, 0
10, 201096, Note_on_c, 8, 58, 0
10, 201120, Note_on_c, 8, 57, 110
10, 201120, Note_on_c, 8, 65, 110
10, 201144, Note_on_c, 8, 65, 0
10, 201144, Note_on_c, 8, 57, 0
10, 201168, Note_on_c, 8, 55, 113
10, 201168, Note_on_c, 8, 64, 113
10, 201192, Note_on_c, 8, 64, 0
10, 201192, Note_on_c, 8, 55, 0
10, 201216, Note_on_c, 8, 55, 110
10, 201216, Note_on_c, 8, 64, 110
10, 201240, Note_on_c, 8, 64, 0
10, 201240, Note_on_c, 8, 55, 0
10, 201264, Note_on_c, 8, 53, 110
10, 201264, Note_on_c, 8, 62, 110
10, 201288, Note_on_c, 8, 62, 0
10, 201288, Note_on_c, 8, 53, 0
10, 201312, Note_on_c, 8, 55, 113
10, 201312, Note_on_c, 8, 64, 113
10, 201336, Note_on_c, 8, 64, 0
10, 201336, Note_on_c, 8, 55, 0
10, 201360, Note_on_c, 8, 55, 110
10, 201360, Note_on_c, 8, 64, 110
10, 201384, Note_on_c, 8, 64, 0
10, 201384, Note_on_c, 8, 55, 0
10, 201408, Note_on_c, 8, 52, 110
10, 201408, Note_on_c, 8, 61, 110
10, 201432, Note_on_c, 8, 61, 0
10, 201432, Note_on_c, 8, 52, 0
10, 201456, Note_on_c, 8, 62, 113
10, 201456, Note_on_c, 8, 65, 113
10, 201480, Note_on_c, 8, 65, 0
10, 201480, Note_on_c, 8, 62, 0
10, 201504, Note_on_c, 8, 50, 110
10, 201504, Note_on_c, 8, 53, 110
10, 201552, Note_on_c, 8, 53, 0
10, 201552, Note_on_c, 8, 50, 0
10, 201552, Note_on_c, 8, 52, 111
10, 201552, Note_on_c, 8, 55, 111
10, 201576, Note_on_c, 8, 55, 0
10, 201576, Note_on_c, 8, 52, 0
10, 201576, Note_on_c, 8, 53, 112
10, 201576, Note_on_c, 8, 57, 112
10, 201600, Note_on_c, 8, 57, 0
10, 201600, Note_on_c, 8, 53, 0
10, 201600, Note_on_c, 8, 55, 113
10, 201600, Note_on_c, 8, 58, 113
10, 201624, Note_on_c, 8, 58, 0
10, 201624, Note_on_c, 8, 55, 0
10, 201648, Note_on_c, 8, 55, 110
10, 201648, Note_on_c, 8, 58, 110
10, 201672, Note_on_c, 8, 58, 0
10, 201672, Note_on_c, 8, 55, 0
10, 201696, Note_on_c, 8, 53, 110
10, 201696, Note_on_c, 8, 57, 110
10, 201720, Note_on_c, 8, 57, 0
10, 201720, Note_on_c, 8, 53, 0
10, 201744, Note_on_c, 8, 52, 113
10, 201744, Note_on_c, 8, 55, 113
10, 201768, Note_on_c, 8, 55, 0
10, 201768, Note_on_c, 8, 52, 0
10, 201792, Note_on_c, 8, 52, 110
10, 201792, Note_on_c, 8, 55, 110
10, 201816, Note_on_c, 8, 55, 0
10, 201816, Note_on_c, 8, 52, 0
10, 201840, Note_on_c, 8, 50, 110
10, 201840, Note_on_c, 8, 53, 110
10, 201864, Note_on_c, 8, 53, 0
10, 201864, Note_on_c, 8, 50, 0
10, 201888, Note_on_c, 8, 52, 113
10, 201888, Note_on_c, 8, 55, 113
10, 201912, Note_on_c, 8, 55, 0
10, 201912, Note_on_c, 8, 52, 0
10, 201936, Note_on_c, 8, 52, 110
10, 201936, Note_on_c, 8, 55, 110
10, 201960, Note_on_c, 8, 55, 0
10, 201960, Note_on_c, 8, 52, 0
10, 201984, Note_on_c, 8, 49, 110
10, 201984, Note_on_c, 8, 52, 110
10, 202008, Note_on_c, 8, 52, 0
10, 202008, Note_on_c, 8, 49, 0
10, 202032, Note_on_c, 8, 50, 116
10, 202032, Note_on_c, 8, 62, 116
10, 202067, Note_on_c, 8, 62, 0
10, 202067, Note_on_c, 8, 50, 0
10, 202104, Note_on_c, 8, 38, 113
10, 202104, Note_on_c, 8, 50, 113
10, 202116, Note_on_c, 8, 50, 0
10, 202116, Note_on_c, 8, 38, 0
10, 202128, Note_on_c, 8, 38, 113
10, 202128, Note_on_c, 8, 50, 113
10, 202152, Note_on_c, 8, 50, 0
10, 202152, Note_on_c, 8, 38, 0
10, 202176, Note_on_c, 8, 50, 116
10, 202176, Note_on_c, 8, 62, 116
10, 202200, Note_on_c, 8, 62, 0
10, 202200, Note_on_c, 8, 50, 0
10, 202224, Note_on_c, 8, 52, 113
10, 202224, Note_on_c, 8, 64, 113
10, 202248, Note_on_c, 8, 64, 0
10, 202248, Note_on_c, 8, 52, 0
10, 202272, Note_on_c, 8, 53, 113
10, 202272, Note_on_c, 8, 65, 113
10, 202296, Note_on_c, 8, 65, 0
10, 202296, Note_on_c, 8, 53, 0
10, 202320, Note_on_c, 8, 55, 116
10, 202320, Note_on_c, 8, 67, 116
10, 202344, Note_on_c, 8, 67, 0
10, 202344, Note_on_c, 8, 55, 0
10, 202464, Note_on_c, 8, 58, 116
10, 202488, Note_on_c, 8, 58, 0
10, 202512, Note_on_c, 8, 60, 113
10, 202536, Note_on_c, 8, 60, 0
10, 202560, Note_on_c, 8, 62, 113
10, 202584, Note_on_c, 8, 62, 0
10, 202608, Note_on_c, 8, 48, 116
10, 202608, Note_on_c, 8, 60, 116
10, 202643, Note_on_c, 8, 60, 0
10, 202643, Note_on_c, 8, 48, 0
10, 202680, Note_on_c, 8, 36, 113
10, 202680, Note_on_c, 8, 48, 113
10, 202692, Note_on_c, 8, 48, 0
10, 202692, Note_on_c, 8, 36, 0
10, 202704, Note_on_c, 8, 36, 113
10, 202704, Note_on_c, 8, 48, 113
10, 202728, Note_on_c, 8, 48, 0
10, 202728, Note_on_c, 8, 36, 0
10, 202752, Note_on_c, 8, 48, 116
10, 202752, Note_on_c, 8, 60, 116
10, 202776, Note_on_c, 8, 60, 0
10, 202776, Note_on_c, 8, 48, 0
10, 202800, Note_on_c, 8, 50, 113
10, 202800, Note_on_c, 8, 62, 113
10, 202824, Note_on_c, 8, 62, 0
10, 202824, Note_on_c, 8, 50, 0
10, 202848, Note_on_c, 8, 52, 113
10, 202848, Note_on_c, 8, 64, 113
10, 202872, Note_on_c, 8, 64, 0
10, 202872, Note_on_c, 8, 52, 0
10, 202896, Note_on_c, 8, 53, 116
10, 202896, Note_on_c, 8, 65, 116
10, 202920, Note_on_c, 8, 65, 0
10, 202920, Note_on_c, 8, 53, 0
10, 203040, Note_on_c, 8, 57, 116
10, 203064, Note_on_c, 8, 57, 0
10, 203088, Note_on_c, 8, 62, 113
10, 203112, Note_on_c, 8, 62, 0
10, 203136, Note_on_c, 8, 64, 113
10, 203160, Note_on_c, 8, 64, 0
10, 203184, Note_on_c, 8, 62, 60
10, 203184, Note_on_c, 8, 66, 60
10, 203208, Note_on_c, 8, 66, 0
10, 203208, Note_on_c, 8, 62, 0
10, 203472, Note_on_c, 8, 55, 60
10, 203472, Note_on_c, 8, 67, 60
10, 203496, Note_on_c, 8, 67, 0
10, 203496, Note_on_c, 8, 55, 0
10, 204048, Control_c, 8, 1, 0
10, 204048, Control_c, 8, 11, 60
10, 204048, Note_on_c, 8, 46, 100
10, 204048, Note_on_c, 8, 55, 100
10, 204049, Control_c, 8, 1, 1
10, 204050, Control_c, 8, 1, 2
10, 204051, Control_c, 8, 1, 3
10, 204052, Control_c, 8, 1, 4
10, 204053, Control_c, 8, 1, 5
10, 204055, Control_c, 8, 1, 6
10, 204056, Control_c, 8, 1, 7
10, 204058, Control_c, 8, 11, 61
10, 204058, Control_c, 8, 1, 8
10, 204059, Control_c, 8, 1, 9
10, 204062, Control_c, 8, 1, 10
10, 204064, Control_c, 8, 1, 11
10, 204066, Control_c, 8, 1, 12
10, 204068, Control_c, 8, 11, 62
10, 204068, Control_c, 8, 1, 13
10, 204072, Control_c, 8, 1, 14
10, 204075, Control_c, 8, 1, 15
10, 204077, Control_c, 8, 11, 63
10, 204078, Control_c, 8, 1, 16
10, 204083, Control_c, 8, 1, 17
10, 204087, Control_c, 8, 11, 64
10, 204088, Control_c, 8, 1, 18
10, 204095, Control_c, 8, 1, 19
10, 204096, Note_on_c, 8, 55, 0
10, 204096, Note_on_c, 8, 53, 100
10, 204096, Control_c, 8, 11, 65
10, 204105, Control_c, 8, 1, 20
10, 204106, Control_c, 8, 11, 66
10, 204116, Control_c, 8, 11, 67
10, 204120, Control_c, 8, 1, 21
10, 204125, Control_c, 8, 11, 68
10, 204135, Control_c, 8, 11, 69
10, 204144, Note_on_c, 8, 53, 0
10, 204144, Note_on_c, 8, 51, 100
10, 204144, Control_c, 8, 11, 70
10, 204154, Control_c, 8, 11, 71
10, 204163, Control_c, 8, 11, 72
10, 204173, Control_c, 8, 11, 73
10, 204183, Control_c, 8, 11, 74
10, 204192, Note_on_c, 8, 51, 0
10, 204192, Note_on_c, 8, 67, 100
10, 204192, Control_c, 8, 11, 75
10, 204202, Control_c, 8, 11, 76
10, 204211, Control_c, 8, 11, 77
10, 204221, Control_c, 8, 11, 78
10, 204231, Control_c, 8, 11, 79
10, 204240, Note_on_c, 8, 67, 0
10, 204240, Note_on_c, 8, 46, 0
10, 204240, Note_on_c, 8, 44, 100
10, 204240, Note_on_c, 8, 65, 100
10, 204240, Control_c, 8, 11, 80
10, 204250, Control_c, 8, 11, 81
10, 204259, Control_c, 8, 11, 82
10, 204269, Control_c, 8, 11, 83
10, 204278, Control_c, 8, 11, 84
10, 204288, Note_on_c, 8, 65, 0
10, 204288, Note_on_c, 8, 44, 0
10, 204288, Note_on_c, 8, 43, 100
10, 204288, Note_on_c, 8, 63, 100
10, 204288, Control_c, 8, 11, 85
10, 204298, Control_c, 8, 11, 86
10, 204307, Control_c, 8, 11, 87
10, 204317, Control_c, 8, 11, 88
10, 204326, Control_c, 8, 11, 89
10, 204336, Note_on_c, 8, 63, 0
10, 204336, Note_on_c, 8, 43, 0
10, 204336, Note_on_c, 8, 43, 100
10, 204336, Note_on_c, 8, 58, 100
10, 204336, Control_c, 8, 11, 90
10, 204346, Control_c, 8, 11, 91
10, 204355, Control_c, 8, 11, 92
10, 204365, Control_c, 8, 11, 93
10, 204374, Control_c, 8, 11, 94
10, 204384, Note_on_c, 8, 58, 0
10, 204384, Note_on_c, 8, 57, 100
10, 204384, Control_c, 8, 11, 95
10, 204393, Control_c, 8, 11, 96
10, 204403, Control_c, 8, 11, 97
10, 204413, Control_c, 8, 11, 98
10, 204422, Control_c, 8, 11, 99
10, 204432, Note_on_c, 8, 57, 0
10, 204432, Note_on_c, 8, 58, 100
10, 204432, Control_c, 8, 11, 100
10, 204441, Control_c, 8, 11, 101
10, 204451, Control_c, 8, 11, 102
10, 204461, Control_c, 8, 11, 103
10, 204470, Control_c, 8, 11, 104
10, 204480, Note_on_c, 8, 43, 0
10, 204480, Note_on_c, 8, 45, 100
10, 204480, Control_c, 8, 11, 105
10, 204489, Control_c, 8, 11, 106
10, 204499, Control_c, 8, 11, 107
10, 204508, Control_c, 8, 11, 108
10, 204518, Control_c, 8, 11, 109
10, 204528, Note_on_c, 8, 58, 0
10, 204528, Note_on_c, 8, 57, 100
10, 204528, Control_c, 8, 11, 110
10, 204537, Control_c, 8, 11, 111
10, 204547, Control_c, 8, 11, 112
10, 204556, Control_c, 8, 11, 113
10, 204566, Control_c, 8, 11, 114
10, 204576, Note_on_c, 8, 57, 0
10, 204576, Note_on_c, 8, 45, 0
10, 204576, Note_on_c, 8, 43, 100
10, 204576, Note_on_c, 8, 55, 100
10, 204576, Control_c, 8, 11, 115
10, 204585, Control_c, 8, 11, 116
10, 204595, Control_c, 8, 11, 117
10, 204604, Control_c, 8, 11, 118
10, 204614, Control_c, 8, 11, 119
10, 204623, Control_c, 8, 11, 120
10, 204624, Note_on_c, 8, 55, 0
10, 204624, Note_on_c, 8, 43, 0
10, 204624, Control_c, 8, 1, 0
10, 204624, Note_on_c, 8, 41, 105
10, 204624, Note_on_c, 8, 53, 105
10, 204648, Note_on_c, 8, 53, 0
10, 204648, Note_on_c, 8, 41, 0
10, 204672, Note_on_c, 8, 38, 100
10, 204672, Note_on_c, 8, 50, 100
10, 204696, Note_on_c, 8, 50, 0
10, 204696, Note_on_c, 8, 38, 0
10, 204720, Note_on_c, 8, 43, 100
10, 204720, Note_on_c, 8, 55, 100
10, 204744, Note_on_c, 8, 55, 0
10, 204744, Note_on_c, 8, 43, 0
10, 204768, Note_on_c, 8, 40, 105
10, 204768, Note_on_c, 8, 52, 105
10, 204792, Note_on_c, 8, 52, 0
10, 204792, Note_on_c, 8, 40, 0
10, 204816, Note_on_c, 8, 49, 100
10, 204816, Note_on_c, 8, 61, 100
10, 204840, Note_on_c, 8, 61, 0
10, 204840, Note_on_c, 8, 49, 0
10, 204864, Note_on_c, 8, 45, 100
10, 204864, Note_on_c, 8, 57, 100
10, 204888, Note_on_c, 8, 57, 0
10, 204888, Note_on_c, 8, 45, 0
10, 204912, Note_on_c, 8, 50, 100
10, 204912, Note_on_c, 8, 62, 100
10, 204936, Note_on_c, 8, 62, 0
10, 204936, Note_on_c, 8, 50, 0
10, 205200, Note_on_c, 8, 38, 105
10, 205200, Note_on_c, 8, 50, 105
10, 205224, Note_on_c, 8, 50, 0
10, 205224, Note_on_c, 8, 38, 0
10, 205248, Note_on_c, 8, 38, 100
10, 205248, Note_on_c, 8, 50, 100
10, 205272, Note_on_c, 8, 50, 0
10, 205272, Note_on_c, 8, 38, 0
10, 205296, Note_on_c, 8, 43, 100
10, 205296, Note_on_c, 8, 55, 100
10, 205320, Note_on_c, 8, 55, 0
10, 205320, Note_on_c, 8, 43, 0
10, 205344, Note_on_c, 8, 40, 105
10, 205344, Note_on_c, 8, 52, 105
10, 205368, Note_on_c, 8, 52, 0
10, 205368, Note_on_c, 8, 40, 0
10, 205392, Note_on_c, 8, 49, 100
10, 205392, Note_on_c, 8, 61, 100
10, 205416, Note_on_c, 8, 61, 0
10, 205416, Note_on_c, 8, 49, 0
10, 205440, Note_on_c, 8, 45, 100
10, 205440, Note_on_c, 8, 57, 100
10, 205464, Note_on_c, 8, 57, 0
10, 205464, Note_on_c, 8, 45, 0
10, 205488, Note_on_c, 8, 45, 105
10, 205488, Note_on_c, 8, 57, 105
10, 205512, Note_on_c, 8, 57, 0
10, 205512, Note_on_c, 8, 45, 0
10, 205536, Note_on_c, 8, 57, 100
10, 205560, Note_on_c, 8, 57, 0
10, 205584, Note_on_c, 8, 62, 100
10, 205608, Note_on_c, 8, 62, 0
10, 205632, Note_on_c, 8, 58, 100
10, 205656, Note_on_c, 8, 58, 0
10, 205680, Note_on_c, 8, 55, 100
10, 205704, Note_on_c, 8, 55, 0
10, 205728, Note_on_c, 8, 61, 100
10, 205752, Note_on_c, 8, 61, 0
10, 205776, Note_on_c, 8, 50, 105
10, 205776, Note_on_c, 8, 53, 105
10, 205800, Note_on_c, 8, 53, 0
10, 205800, Note_on_c, 8, 50, 0
10, 205824, Note_on_c, 8, 50, 100
10, 205824, Note_on_c, 8, 57, 100
10, 205848, Note_on_c, 8, 57, 0
10, 205848, Note_on_c, 8, 50, 0
10, 205872, Note_on_c, 8, 50, 100
10, 205872, Note_on_c, 8, 53, 100
10, 205896, Note_on_c, 8, 53, 0
10, 205896, Note_on_c, 8, 50, 0
10, 205920, Note_on_c, 8, 52, 105
10, 205920, Note_on_c, 8, 55, 105
10, 205944, Note_on_c, 8, 55, 0
10, 205944, Note_on_c, 8, 52, 0
10, 205968, Note_on_c, 8, 55, 100
10, 205968, Note_on_c, 8, 64, 100
10, 205992, Note_on_c, 8, 64, 0
10, 205992, Note_on_c, 8, 55, 0
10, 206016, Note_on_c, 8, 52, 100
10, 206016, Note_on_c, 8, 61, 100
10, 206040, Note_on_c, 8, 61, 0
10, 206040, Note_on_c, 8, 52, 0
10, 206064, Note_on_c, 8, 53, 105
10, 206064, Note_on_c, 8, 62, 105
10, 206088, Note_on_c, 8, 62, 0
10, 206088, Note_on_c, 8, 53, 0
10, 206112, Note_on_c, 8, 53, 100
10, 206112, Note_on_c, 8, 57, 100
10, 206136, Note_on_c, 8, 57, 0
10, 206136, Note_on_c, 8, 53, 0
10, 206160, Note_on_c, 8, 50, 100
10, 206160, Note_on_c, 8, 53, 100
10, 206184, Note_on_c, 8, 53, 0
10, 206184, Note_on_c, 8, 50, 0
10, 206208, Note_on_c, 8, 52, 105
10, 206208, Note_on_c, 8, 55, 105
10, 206232, Note_on_c, 8, 55, 0
10, 206232, Note_on_c, 8, 52, 0
10, 206256, Note_on_c, 8, 55, 100
10, 206256, Note_on_c, 8, 64, 100
10, 206280, Note_on_c, 8, 64, 0
10, 206280, Note_on_c, 8, 55, 0
10, 206304, Note_on_c, 8, 52, 100
10, 206304, Note_on_c, 8, 61, 100
10, 206328, Note_on_c, 8, 61, 0
10, 206328, Note_on_c, 8, 52, 0
10, 206352, Control_c, 8, 1, 0
10, 206352, Note_on_c, 8, 45, 45
10, 206353, Control_c, 8, 1, 1
10, 206354, Control_c, 8, 1, 2
10, 206355, Control_c, 8, 1, 3
10, 206357, Control_c, 8, 1, 4
10, 206358, Control_c, 8, 1, 5
10, 206361, Control_c, 8, 1, 6
10, 206363, Control_c, 8, 1, 7
10, 206365, Control_c, 8, 1, 8
10, 206368, Control_c, 8, 1, 9
10, 206373, Control_c, 8, 1, 10
10, 206377, Control_c, 8, 1, 11
10, 206384, Control_c, 8, 1, 12
10, 206396, Control_c, 8, 1, 13
10, 206400, Note_on_c, 8, 45, 0
10, 206400, Note_on_c, 8, 49, 49
10, 206448, Note_on_c, 8, 49, 0
10, 206448, Note_on_c, 8, 52, 52
10, 206496, Note_on_c, 8, 52, 0
10, 206496, Note_on_c, 8, 55, 55
10, 206544, Note_on_c, 8, 55, 0
10, 206544, Note_on_c, 8, 61, 61
10, 206592, Note_on_c, 8, 61, 0
10, 206592, Note_on_c, 8, 64, 64
10, 206640, Note_on_c, 8, 64, 0
10, 206640, Control_c, 8, 1, 22
10, 206640, Note_on_c, 8, 67, 67
10, 206832, Note_on_c, 8, 67, 0
10, 206832, Control_c, 8, 1, 13
10, 206832, Note_on_c, 8, 64, 64
10, 206880, Note_on_c, 8, 64, 0
10, 206880, Note_on_c, 8, 61, 61
10, 206928, Note_on_c, 8, 61, 0
10, 206928, Control_c, 8, 1, 0
10, 206928, Note_on_c, 8, 62, 50
10, 206952, Note_on_c, 8, 62, 0
10, 207072, Note_on_c, 8, 45, 55
10, 207072, Note_on_c, 8, 57, 55
10, 207107, Note_on_c, 8, 57, 0
10, 207107, Note_on_c, 8, 45, 0
10, 207144, Note_on_c, 8, 57, 50
10, 207144, Note_on_c, 8, 62, 50
10, 207156, Note_on_c, 8, 62, 0
10, 207156, Note_on_c, 8, 57, 0
10, 207168, Note_on_c, 8, 57, 50
10, 207168, Note_on_c, 8, 62, 50
10, 207192, Note_on_c, 8, 62, 0
10, 207192, Note_on_c, 8, 57, 0
10, 207216, Note_on_c, 8, 53, 50
10, 207216, Note_on_c, 8, 57, 50
10, 207240, Note_on_c, 8, 57, 0
10, 207240, Note_on_c, 8, 53, 0
10, 207360, Note_on_c, 8, 50, 55
10, 207360, Note_on_c, 8, 53, 55
10, 207395, Note_on_c, 8, 53, 0
10, 207395, Note_on_c, 8, 50, 0
10, 207432, Note_on_c, 8, 62, 50
10, 207432, Note_on_c, 8, 65, 50
10, 207444, Note_on_c, 8, 65, 0
10, 207444, Note_on_c, 8, 62, 0
10, 207456, Note_on_c, 8, 62, 50
10, 207456, Note_on_c, 8, 65, 50
10, 207480, Note_on_c, 8, 65, 0
10, 207480, Note_on_c, 8, 62, 0
10, 207504, Note_on_c, 8, 62, 50
10, 207504, Note_on_c, 8, 65, 50
10, 207528, Note_on_c, 8, 65, 0
10, 207528, Note_on_c, 8, 62, 0
10, 208224, Note_on_c, 8, 45, 58
10, 208224, Note_on_c, 8, 57, 58
10, 208259, Note_on_c, 8, 57, 0
10, 208259, Note_on_c, 8, 45, 0
10, 208296, Note_on_c, 8, 57, 62
10, 208296, Note_on_c, 8, 62, 62
10, 208308, Note_on_c, 8, 62, 0
10, 208308, Note_on_c, 8, 57, 0
10, 208320, Note_on_c, 8, 57, 64
10, 208320, Note_on_c, 8, 62, 64
10, 208344, Note_on_c, 8, 62, 0
10, 208344, Note_on_c, 8, 57, 0
10, 208368, Note_on_c, 8, 53, 66
10, 208368, Note_on_c, 8, 57, 66
10, 208392, Note_on_c, 8, 57, 0
10, 208392, Note_on_c, 8, 53, 0
10, 208512, Note_on_c, 8, 38, 75
10, 208512, Note_on_c, 8, 50, 75
10, 208547, Note_on_c, 8, 50, 0
10, 208547, Note_on_c, 8, 38, 0
10, 208584, Note_on_c, 8, 50, 79
10, 208584, Note_on_c, 8, 62, 79
10, 208596, Note_on_c, 8, 62, 0
10, 208596, Note_on_c, 8, 50, 0
10, 208608, Note_on_c, 8, 50, 80
10, 208608, Note_on_c, 8, 62, 80
10, 208632, Note_on_c, 8, 62, 0
10, 208632, Note_on_c, 8, 50, 0
10, 208656, Note_on_c, 8, 46, 83
10, 208656, Note_on_c, 8, 58, 83
10, 208680, Note_on_c, 8, 58, 0
10, 208680, Note_on_c, 8, 46, 0
10, 208800, Note_on_c, 8, 43, 92
10, 208835, Note_on_c, 8, 43, 0
10, 208872, Note_on_c, 8, 43, 96
10, 208872, Note_on_c, 8, 55, 96
10, 208884, Note_on_c, 8, 55, 0
10, 208884, Note_on_c, 8, 43, 0
10, 208896, Note_on_c, 8, 43, 97
10, 208896, Note_on_c, 8, 55, 97
10, 208920, Note_on_c, 8, 55, 0
10, 208920, Note_on_c, 8, 43, 0
10, 208944, Note_on_c, 8, 46, 100
10, 208944, Note_on_c, 8, 58, 100
10, 208968, Note_on_c, 8, 58, 0
10, 208968, Note_on_c, 8, 46, 0
10, 209088, Note_on_c, 8, 45, 109
10, 209123, Note_on_c, 8, 45, 0
10, 209160, Note_on_c, 8, 45, 113
10, 209160, Note_on_c, 8, 57, 113
10, 209172, Note_on_c, 8, 57, 0
10, 209172, Note_on_c, 8, 45, 0
10, 209184, Control_c, 8, 1, 0
10, 209184, Note_on_c, 8, 45, 114
10, 209184, Note_on_c, 8, 57, 114
10, 209185, Control_c, 8, 1, 2
10, 209186, Control_c, 8, 1, 3
10, 209187, Control_c, 8, 1, 4
10, 209188, Control_c, 8, 1, 5
10, 209189, Control_c, 8, 1, 6
10, 209190, Control_c, 8, 1, 7
10, 209191, Control_c, 8, 1, 8
10, 209192, Control_c, 8, 1, 9
10, 209194, Control_c, 8, 1, 10
10, 209195, Control_c, 8, 1, 11
10, 209197, Control_c, 8, 1, 12
10, 209199, Control_c, 8, 1, 13
10, 209201, Control_c, 8, 1, 14
10, 209203, Control_c, 8, 1, 15
10, 209206, Control_c, 8, 1, 16
10, 209209, Control_c, 8, 1, 17
10, 209213, Control_c, 8, 1, 18
10, 209218, Control_c, 8, 1, 19
10, 209224, Control_c, 8, 1, 20
10, 209229, Note_on_c, 8, 57, 0
10, 209229, Note_on_c, 8, 45, 0
10, 209235, Control_c, 8, 1, 21
10, 209280, Control_c, 8, 1, 0
10, 209568, Note_on_c, 8, 62, 55
10, 209603, Note_on_c, 8, 62, 0
10, 209640, Note_on_c, 8, 50, 50
10, 209652, Note_on_c, 8, 50, 0
10, 209664, Note_on_c, 8, 50, 50
10, 209688, Note_on_c, 8, 50, 0
10, 209712, Note_on_c, 8, 55, 55
10, 209736, Note_on_c, 8, 55, 0
10, 209760, Note_on_c, 8, 57, 50
10, 209784, Note_on_c, 8, 57, 0
10, 209808, Note_on_c, 8, 58, 50
10, 209832, Note_on_c, 8, 58, 0
10, 210144, Note_on_c, 8, 62, 55
10, 210179, Note_on_c, 8, 62, 0
10, 210216, Note_on_c, 8, 50, 50
10, 210228, Note_on_c, 8, 50, 0
10, 210240, Note_on_c, 8, 50, 50
10, 210264, Note_on_c, 8, 50, 0
10, 210288, Note_on_c, 8, 55, 55
10, 210312, Note_on_c, 8, 55, 0
10, 210336, Note_on_c, 8, 57, 50
10, 210360, Note_on_c, 8, 57, 0
10, 210384, Note_on_c, 8, 58, 50
10, 210408, Note_on_c, 8, 58, 0
10, 210432, Note_on_c, 8, 57, 50
10, 210467, Note_on_c, 8, 57, 0
10, 210504, Note_on_c, 8, 45, 54
10, 210516, Note_on_c, 8, 45, 0
10, 210528, Note_on_c, 8, 45, 55
10, 210552, Note_on_c, 8, 45, 0
10, 210576, Note_on_c, 8, 50, 58
10, 210600, Note_on_c, 8, 50, 0
10, 210624, Note_on_c, 8, 52, 61
10, 210648, Note_on_c, 8, 52, 0
10, 210672, Note_on_c, 8, 53, 64
10, 210696, Note_on_c, 8, 53, 0
10, 210720, Note_on_c, 8, 57, 66
10, 210755, Note_on_c, 8, 57, 0
10, 210792, Note_on_c, 8, 45, 71
10, 210804, Note_on_c, 8, 45, 0
10, 210816, Note_on_c, 8, 45, 72
10, 210840, Note_on_c, 8, 45, 0
10, 210864, Note_on_c, 8, 50, 75
10, 210888, Note_on_c, 8, 50, 0
10, 210912, Note_on_c, 8, 52, 78
10, 210936, Note_on_c, 8, 52, 0
10, 210960, Note_on_c, 8, 53, 80
10, 210984, Note_on_c, 8, 53, 0
10, 211008, Note_on_c, 8, 57, 83
10, 211043, Note_on_c, 8, 57, 0
10, 211080, Note_on_c, 8, 45, 87
10, 211092, Note_on_c, 8, 45, 0
10, 211104, Note_on_c, 8, 45, 89
10, 211128, Note_on_c, 8, 45, 0
10, 211152, Note_on_c, 8, 50, 92
10, 211176, Note_on_c, 8, 50, 0
10, 211200, Note_on_c, 8, 52, 95
10, 211224, Note_on_c, 8, 52, 0
10, 211248, Note_on_c, 8, 53, 97
10, 211272, Note_on_c, 8, 53, 0
10, 211296, Note_on_c, 8, 57, 100
10, 211331, Note_on_c, 8, 57, 0
10, 211368, Note_on_c, 8, 45, 104
10, 211380, Note_on_c, 8, 45, 0
10, 211392, Note_on_c, 8, 45, 106
10, 211416, Note_on_c, 8, 45, 0
10, 211440, Note_on_c, 8, 50, 109
10, 211464, Note_on_c, 8, 50, 0
10, 211488, Note_on_c, 8, 52, 111
10, 211512, Note_on_c, 8, 52, 0
10, 211536, Note_on_c, 8, 53, 114
10, 211560, Note_on_c, 8, 53, 0
10, 211584, Note_on_c, 8, 69, 125
10, 211608, Note_on_c, 8, 69, 0
10, 211632, Note_on_c, 8, 57, 115
10, 211656, Note_on_c, 8, 57, 0
10, 211680, Note_on_c, 8, 62, 125
10, 211704, Note_on_c, 8, 62, 0
10, 211728, Note_on_c, 8, 50, 115
10, 211752, Note_on_c, 8, 50, 0
10, 211776, Note_on_c, 8, 57, 125
10, 211800, Note_on_c, 8, 57, 0
10, 211824, Note_on_c, 8, 57, 115
10, 211848, Note_on_c, 8, 57, 0
10, 211872, Note_on_c, 8, 69, 125
10, 211896, Note_on_c, 8, 69, 0
10, 211920, Note_on_c, 8, 57, 120
10, 211944, Note_on_c, 8, 57, 0
10, 211968, Note_on_c, 8, 38, 110
10, 211968, Note_on_c, 8, 50, 110
10, 211992, Note_on_c, 8, 50, 0
10, 211992, Note_on_c, 8, 38, 0
10, 212064, Note_on_c, 8, 62, 67
10, 212088, Note_on_c, 8, 62, 0
10, 212112, Note_on_c, 8, 61, 66
10, 212136, Note_on_c, 8, 61, 0
10, 212160, Note_on_c, 8, 62, 67
10, 212184, Note_on_c, 8, 62, 0
10, 212208, Note_on_c, 8, 59, 64
10, 212232, Note_on_c, 8, 59, 0
10, 212256, Note_on_c, 8, 57, 62
10, 212280, Note_on_c, 8, 57, 0
10, 212304, Note_on_c, 8, 55, 60
10, 212328, Note_on_c, 8, 55, 0
10, 212352, Note_on_c, 8, 54, 59
10, 212376, Note_on_c, 8, 54, 0
10, 212400, Note_on_c, 8, 52, 57
10, 212424, Note_on_c, 8, 52, 0
10, 212448, Note_on_c, 8, 50, 55
10, 212472, Note_on_c, 8, 50, 0
10, 212496, Note_on_c, 8, 48, 53
10, 212520, Note_on_c, 8, 48, 0
10, 212544, Note_on_c, 8, 47, 52
10, 212568, Note_on_c, 8, 47, 0
10, 212592, Note_on_c, 8, 49, 54
10, 212616, Note_on_c, 8, 49, 0
10, 212640, Note_on_c, 8, 50, 55
10, 212664, Note_on_c, 8, 50, 0
10, 212688, Note_on_c, 8, 54, 59
10, 212712, Note_on_c, 8, 54, 0
10, 212736, Note_on_c, 8, 57, 62
10, 212760, Note_on_c, 8, 57, 0
10, 212784, Note_on_c, 8, 61, 66
10, 212808, Note_on_c, 8, 61, 0
10, 212832, Note_on_c, 8, 62, 67
10, 212856, Note_on_c, 8, 62, 0
10, 212880, Note_on_c, 8, 61, 66
10, 212904, Note_on_c, 8, 61, 0
10, 212928, Note_on_c, 8, 62, 67
10, 212952, Note_on_c, 8, 62, 0
10, 212976, Note_on_c, 8, 59, 64
10, 213000, Note_on_c, 8, 59, 0
10, 213024, Note_on_c, 8, 57, 62
10, 213048, Note_on_c, 8, 57, 0
10, 213072, Note_on_c, 8, 55, 60
10, 213096, Note_on_c, 8, 55, 0
10, 213120, Note_on_c, 8, 54, 59
10, 213144, Note_on_c, 8, 54, 0
10, 213168, Note_on_c, 8, 52, 57
10, 213192, Note_on_c, 8, 52, 0
10, 213216, Note_on_c, 8, 50, 55
10, 213240, Note_on_c, 8, 50, 0
10, 213264, Note_on_c, 8, 62, 67
10, 213288, Note_on_c, 8, 62, 0
10, 213504, Control_c, 8, 11, 127
10, 213504, Note_on_c, 8, 69, 127
10, 213528, Note_on_c, 8, 69, 0
10, 213552, Note_on_c, 8, 57, 115
10, 213576, Note_on_c, 8, 57, 0
10, 213600, Note_on_c, 8, 62, 125
10, 213624, Note_on_c, 8, 62, 0
10, 213648, Note_on_c, 8, 50, 115
10, 213672, Note_on_c, 8, 50, 0
10, 213696, Note_on_c, 8, 57, 125
10, 213720, Note_on_c, 8, 57, 0
10, 213744, Note_on_c, 8, 45, 115
10, 213768, Note_on_c, 8, 45, 0
10, 213792, Note_on_c, 8, 57, 125
10, 213816, Note_on_c, 8, 57, 0
10, 213840, Note_on_c, 8, 45, 115
10, 213864, Note_on_c, 8, 45, 0
10, 213888, Note_on_c, 8, 38, 125
10, 213888, Note_on_c, 8, 50, 125
10, 213912, Note_on_c, 8, 50, 0
10, 213912, Note_on_c, 8, 38, 0
10, 214080, End_track
11, 0, Start_track
11, 0, Title_t, "Corni in D(Re)"
11, 0, MIDI_port, 0
11, 192, Control_c, 10, 91, 50
11, 192, Control_c, 10, 93, 45
11, 192, Control_c, 10, 10, 84
11, 192, Control_c, 10, 7, 110
11, 192, Control_c, 10, 11, 120
11, 912, Program_c, 10, 60
11, 912, Control_c, 10, 1, 0
11, 912, Note_on_c, 10, 62, 110
11, 947, Note_on_c, 10, 62, 0
11, 984, Note_on_c, 10, 50, 100
11, 996, Note_on_c, 10, 50, 0
11, 1008, Note_on_c, 10, 50, 100
11, 1032, Note_on_c, 10, 50, 0
11, 2496, Note_on_c, 10, 69, 50
11, 2520, Note_on_c, 10, 69, 0
11, 2640, Note_on_c, 10, 62, 50
11, 2664, Note_on_c, 10, 62, 0
11, 2784, Note_on_c, 10, 64, 50
11, 2808, Note_on_c, 10, 64, 0
11, 2928, Note_on_c, 10, 65, 50
11, 2952, Note_on_c, 10, 65, 0
11, 3648, Note_on_c, 10, 45, 50
11, 3648, Note_on_c, 10, 57, 50
11, 3672, Note_on_c, 10, 57, 0
11, 3672, Note_on_c, 10, 45, 0
11, 3792, Note_on_c, 10, 38, 50
11, 3792, Note_on_c, 10, 57, 50
11, 3816, Note_on_c, 10, 57, 0
11, 3816, Note_on_c, 10, 38, 0
11, 4656, Note_on_c, 10, 45, 50
11, 4656, Note_on_c, 10, 57, 50
11, 4680, Note_on_c, 10, 57, 0
11, 4680, Note_on_c, 10, 45, 0
11, 4800, Note_on_c, 10, 45, 50
11, 4800, Note_on_c, 10, 57, 50
11, 4824, Note_on_c, 10, 57, 0
11, 4824, Note_on_c, 10, 45, 0
11, 4944, Note_on_c, 10, 45, 50
11, 4944, Note_on_c, 10, 57, 50
11, 4968, Note_on_c, 10, 57, 0
11, 4968, Note_on_c, 10, 45, 0
11, 5088, Note_on_c, 10, 45, 50
11, 5088, Note_on_c, 10, 57, 50
11, 5112, Note_on_c, 10, 57, 0
11, 5112, Note_on_c, 10, 45, 0
11, 5232, Note_on_c, 10, 45, 50
11, 5232, Note_on_c, 10, 57, 50
11, 5256, Note_on_c, 10, 57, 0
11, 5256, Note_on_c, 10, 45, 0
11, 5376, Note_on_c, 10, 45, 50
11, 5376, Note_on_c, 10, 57, 50
11, 5400, Note_on_c, 10, 57, 0
11, 5400, Note_on_c, 10, 45, 0
11, 5520, Note_on_c, 10, 45, 50
11, 5520, Note_on_c, 10, 57, 50
11, 5544, Note_on_c, 10, 57, 0
11, 5544, Note_on_c, 10, 45, 0
11, 5664, Note_on_c, 10, 45, 50
11, 5664, Note_on_c, 10, 57, 50
11, 5688, Note_on_c, 10, 57, 0
11, 5688, Note_on_c, 10, 45, 0
11, 5808, Note_on_c, 10, 45, 50
11, 5808, Note_on_c, 10, 57, 50
11, 5832, Note_on_c, 10, 57, 0
11, 5832, Note_on_c, 10, 45, 0
11, 6048, Note_on_c, 10, 45, 50
11, 6048, Note_on_c, 10, 57, 50
11, 6072, Note_on_c, 10, 57, 0
11, 6072, Note_on_c, 10, 45, 0
11, 6192, Note_on_c, 10, 45, 50
11, 6192, Note_on_c, 10, 57, 50
11, 6216, Note_on_c, 10, 57, 0
11, 6216, Note_on_c, 10, 45, 0
11, 6336, Note_on_c, 10, 45, 50
11, 6336, Note_on_c, 10, 57, 50
11, 6360, Note_on_c, 10, 57, 0
11, 6360, Note_on_c, 10, 45, 0
11, 6480, Note_on_c, 10, 45, 50
11, 6480, Note_on_c, 10, 57, 50
11, 6504, Note_on_c, 10, 57, 0
11, 6504, Note_on_c, 10, 45, 0
11, 6528, Control_c, 10, 1, 0
11, 6528, Control_c, 10, 11, 50
11, 6528, Note_on_c, 10, 45, 110
11, 6528, Note_on_c, 10, 57, 110
11, 6529, Control_c, 10, 1, 1
11, 6530, Control_c, 10, 1, 2
11, 6531, Control_c, 10, 1, 3
11, 6533, Control_c, 10, 1, 4
11, 6535, Control_c, 10, 1, 5
11, 6537, Control_c, 10, 1, 6
11, 6540, Control_c, 10, 1, 7
11, 6542, Control_c, 10, 1, 8
11, 6545, Control_c, 10, 1, 9
11, 6549, Control_c, 10, 1, 10
11, 6553, Control_c, 10, 11, 51
11, 6553, Control_c, 10, 1, 11
11, 6557, Control_c, 10, 1, 12
11, 6564, Control_c, 10, 1, 13
11, 6572, Control_c, 10, 1, 14
11, 6578, Control_c, 10, 11, 52
11, 6587, Control_c, 10, 1, 15
11, 6603, Control_c, 10, 11, 53
11, 6627, Control_c, 10, 11, 54
11, 6652, Control_c, 10, 11, 55
11, 6677, Control_c, 10, 11, 56
11, 6701, Control_c, 10, 11, 57
11, 6726, Control_c, 10, 11, 58
11, 6751, Control_c, 10, 11, 59
11, 6775, Control_c, 10, 11, 60
11, 6800, Control_c, 10, 11, 61
11, 6825, Control_c, 10, 11, 62
11, 6849, Control_c, 10, 11, 63
11, 6874, Control_c, 10, 11, 64
11, 6899, Control_c, 10, 11, 65
11, 6923, Control_c, 10, 11, 66
11, 6948, Control_c, 10, 11, 67
11, 6973, Control_c, 10, 11, 68
11, 6997, Control_c, 10, 11, 69
11, 7022, Control_c, 10, 11, 70
11, 7047, Control_c, 10, 11, 71
11, 7071, Control_c, 10, 11, 72
11, 7096, Control_c, 10, 11, 73
11, 7121, Control_c, 10, 11, 74
11, 7145, Control_c, 10, 11, 75
11, 7170, Control_c, 10, 11, 76
11, 7195, Control_c, 10, 11, 77
11, 7219, Control_c, 10, 11, 78
11, 7244, Control_c, 10, 11, 79
11, 7269, Control_c, 10, 11, 80
11, 7293, Control_c, 10, 11, 81
11, 7318, Control_c, 10, 11, 82
11, 7343, Control_c, 10, 11, 83
11, 7367, Control_c, 10, 11, 84
11, 7392, Control_c, 10, 11, 85
11, 7417, Control_c, 10, 11, 86
11, 7441, Control_c, 10, 11, 87
11, 7466, Control_c, 10, 11, 88
11, 7491, Control_c, 10, 11, 89
11, 7515, Control_c, 10, 11, 90
11, 7540, Control_c, 10, 11, 91
11, 7565, Control_c, 10, 11, 92
11, 7589, Control_c, 10, 11, 93
11, 7614, Control_c, 10, 11, 94
11, 7639, Control_c, 10, 11, 95
11, 7663, Control_c, 10, 11, 96
11, 7688, Control_c, 10, 11, 97
11, 7713, Control_c, 10, 11, 98
11, 7737, Control_c, 10, 11, 99
11, 7762, Control_c, 10, 11, 100
11, 7787, Control_c, 10, 11, 101
11, 7811, Control_c, 10, 11, 102
11, 7836, Control_c, 10, 11, 103
11, 7861, Control_c, 10, 11, 104
11, 7885, Control_c, 10, 11, 105
11, 7910, Control_c, 10, 11, 106
11, 7935, Control_c, 10, 11, 107
11, 7959, Control_c, 10, 11, 108
11, 7984, Control_c, 10, 11, 109
11, 8009, Control_c, 10, 11, 110
11, 8033, Control_c, 10, 11, 111
11, 8058, Control_c, 10, 11, 112
11, 8083, Control_c, 10, 11, 113
11, 8107, Control_c, 10, 11, 114
11, 8132, Control_c, 10, 11, 115
11, 8157, Control_c, 10, 11, 116
11, 8181, Control_c, 10, 11, 117
11, 8206, Control_c, 10, 11, 118
11, 8231, Control_c, 10, 11, 119
11, 8255, Control_c, 10, 11, 120
11, 8256, Note_on_c, 10, 57, 0
11, 8256, Note_on_c, 10, 45, 0
11, 8256, Control_c, 10, 1, 0
11, 8256, Note_on_c, 10, 57, 115
11, 8256, Note_on_c, 10, 69, 115
11, 8280, Note_on_c, 10, 69, 0
11, 8280, Note_on_c, 10, 57, 0
11, 8304, Note_on_c, 10, 57, 110
11, 8304, Note_on_c, 10, 69, 110
11, 8328, Note_on_c, 10, 69, 0
11, 8328, Note_on_c, 10, 57, 0
11, 8352, Note_on_c, 10, 57, 110
11, 8352, Note_on_c, 10, 69, 110
11, 8376, Note_on_c, 10, 69, 0
11, 8376, Note_on_c, 10, 57, 0
11, 8400, Note_on_c, 10, 57, 115
11, 8400, Note_on_c, 10, 69, 115
11, 8424, Note_on_c, 10, 69, 0
11, 8424, Note_on_c, 10, 57, 0
11, 8448, Note_on_c, 10, 57, 110
11, 8448, Note_on_c, 10, 69, 110
11, 8472, Note_on_c, 10, 69, 0
11, 8472, Note_on_c, 10, 57, 0
11, 8496, Note_on_c, 10, 57, 110
11, 8496, Note_on_c, 10, 69, 110
11, 8520, Note_on_c, 10, 69, 0
11, 8520, Note_on_c, 10, 57, 0
11, 8544, Note_on_c, 10, 57, 115
11, 8544, Note_on_c, 10, 69, 115
11, 8568, Note_on_c, 10, 69, 0
11, 8568, Note_on_c, 10, 57, 0
11, 8592, Note_on_c, 10, 57, 110
11, 8592, Note_on_c, 10, 69, 110
11, 8616, Note_on_c, 10, 69, 0
11, 8616, Note_on_c, 10, 57, 0
11, 8640, Note_on_c, 10, 57, 110
11, 8640, Note_on_c, 10, 69, 110
11, 8664, Note_on_c, 10, 69, 0
11, 8664, Note_on_c, 10, 57, 0
11, 8688, Note_on_c, 10, 57, 115
11, 8688, Note_on_c, 10, 69, 115
11, 8712, Note_on_c, 10, 69, 0
11, 8712, Note_on_c, 10, 57, 0
11, 8736, Note_on_c, 10, 57, 110
11, 8736, Note_on_c, 10, 69, 110
11, 8760, Note_on_c, 10, 69, 0
11, 8760, Note_on_c, 10, 57, 0
11, 8784, Note_on_c, 10, 57, 110
11, 8784, Note_on_c, 10, 69, 110
11, 8808, Note_on_c, 10, 69, 0
11, 8808, Note_on_c, 10, 57, 0
11, 8832, Note_on_c, 10, 50, 115
11, 8832, Note_on_c, 10, 67, 115
11, 8856, Note_on_c, 10, 67, 0
11, 8856, Note_on_c, 10, 50, 0
11, 8880, Note_on_c, 10, 50, 110
11, 8880, Note_on_c, 10, 67, 110
11, 8904, Note_on_c, 10, 67, 0
11, 8904, Note_on_c, 10, 50, 0
11, 8928, Note_on_c, 10, 50, 110
11, 8928, Note_on_c, 10, 67, 110
11, 8952, Note_on_c, 10, 67, 0
11, 8952, Note_on_c, 10, 50, 0
11, 8976, Note_on_c, 10, 50, 115
11, 8976, Note_on_c, 10, 62, 115
11, 9000, Note_on_c, 10, 62, 0
11, 9000, Note_on_c, 10, 50, 0
11, 9024, Note_on_c, 10, 57, 110
11, 9024, Note_on_c, 10, 69, 110
11, 9048, Note_on_c, 10, 69, 0
11, 9048, Note_on_c, 10, 57, 0
11, 9072, Note_on_c, 10, 57, 110
11, 9072, Note_on_c, 10, 69, 110
11, 9096, Note_on_c, 10, 69, 0
11, 9096, Note_on_c, 10, 57, 0
11, 9120, Note_on_c, 10, 57, 115
11, 9120, Note_on_c, 10, 69, 115
11, 9144, Note_on_c, 10, 69, 0
11, 9144, Note_on_c, 10, 57, 0
11, 9168, Note_on_c, 10, 57, 110
11, 9168, Note_on_c, 10, 69, 110
11, 9192, Note_on_c, 10, 69, 0
11, 9192, Note_on_c, 10, 57, 0
11, 9216, Note_on_c, 10, 57, 110
11, 9216, Note_on_c, 10, 69, 110
11, 9240, Note_on_c, 10, 69, 0
11, 9240, Note_on_c, 10, 57, 0
11, 9264, Note_on_c, 10, 57, 115
11, 9264, Note_on_c, 10, 69, 115
11, 9288, Note_on_c, 10, 69, 0
11, 9288, Note_on_c, 10, 57, 0
11, 9312, Note_on_c, 10, 62, 110
11, 9312, Note_on_c, 10, 69, 110
11, 9336, Note_on_c, 10, 69, 0
11, 9336, Note_on_c, 10, 62, 0
11, 9360, Note_on_c, 10, 62, 110
11, 9360, Note_on_c, 10, 69, 110
11, 9384, Note_on_c, 10, 69, 0
11, 9384, Note_on_c, 10, 62, 0
11, 9408, Note_on_c, 10, 62, 115
11, 9408, Note_on_c, 10, 67, 115
11, 9432, Note_on_c, 10, 67, 0
11, 9432, Note_on_c, 10, 62, 0
11, 9456, Note_on_c, 10, 62, 110
11, 9456, Note_on_c, 10, 67, 110
11, 9480, Note_on_c, 10, 67, 0
11, 9480, Note_on_c, 10, 62, 0
11, 9504, Note_on_c, 10, 62, 110
11, 9504, Note_on_c, 10, 67, 110
11, 9528, Note_on_c, 10, 67, 0
11, 9528, Note_on_c, 10, 62, 0
11, 9552, Note_on_c, 10, 57, 115
11, 9552, Note_on_c, 10, 69, 115
11, 9576, Note_on_c, 10, 69, 0
11, 9576, Note_on_c, 10, 57, 0
11, 9600, Note_on_c, 10, 57, 110
11, 9600, Note_on_c, 10, 69, 110
11, 9624, Note_on_c, 10, 69, 0
11, 9624, Note_on_c, 10, 57, 0
11, 9648, Note_on_c, 10, 57, 110
11, 9648, Note_on_c, 10, 69, 110
11, 9672, Note_on_c, 10, 69, 0
11, 9672, Note_on_c, 10, 57, 0
11, 9696, Note_on_c, 10, 57, 115
11, 9696, Note_on_c, 10, 69, 115
11, 9720, Note_on_c, 10, 69, 0
11, 9720, Note_on_c, 10, 57, 0
11, 9744, Note_on_c, 10, 57, 110
11, 9744, Note_on_c, 10, 69, 110
11, 9768, Note_on_c, 10, 69, 0
11, 9768, Note_on_c, 10, 57, 0
11, 9792, Note_on_c, 10, 57, 110
11, 9792, Note_on_c, 10, 69, 110
11, 9816, Note_on_c, 10, 69, 0
11, 9816, Note_on_c, 10, 57, 0
11, 9840, Note_on_c, 10, 57, 115
11, 9840, Note_on_c, 10, 69, 115
11, 9864, Note_on_c, 10, 69, 0
11, 9864, Note_on_c, 10, 57, 0
11, 9888, Note_on_c, 10, 65, 110
11, 9888, Note_on_c, 10, 69, 110
11, 9912, Note_on_c, 10, 69, 0
11, 9912, Note_on_c, 10, 65, 0
11, 9936, Note_on_c, 10, 65, 110
11, 9936, Note_on_c, 10, 67, 110
11, 9960, Note_on_c, 10, 67, 0
11, 9960, Note_on_c, 10, 65, 0
11, 9984, Note_on_c, 10, 65, 115
11, 9984, Note_on_c, 10, 67, 115
11, 10008, Note_on_c, 10, 67, 0
11, 10008, Note_on_c, 10, 65, 0
11, 10032, Note_on_c, 10, 65, 110
11, 10032, Note_on_c, 10, 67, 110
11, 10056, Note_on_c, 10, 67, 0
11, 10056, Note_on_c, 10, 65, 0
11, 10080, Note_on_c, 10, 65, 110
11, 10080, Note_on_c, 10, 67, 110
11, 10104, Note_on_c, 10, 67, 0
11, 10104, Note_on_c, 10, 65, 0
11, 10128, Note_on_c, 10, 64, 115
11, 10128, Note_on_c, 10, 67, 115
11, 10152, Note_on_c, 10, 67, 0
11, 10152, Note_on_c, 10, 64, 0
11, 10176, Note_on_c, 10, 67, 110
11, 10200, Note_on_c, 10, 67, 0
11, 10224, Note_on_c, 10, 67, 110
11, 10248, Note_on_c, 10, 67, 0
11, 10272, Note_on_c, 10, 67, 115
11, 10296, Note_on_c, 10, 67, 0
11, 10320, Note_on_c, 10, 67, 110
11, 10344, Note_on_c, 10, 67, 0
11, 10368, Note_on_c, 10, 67, 110
11, 10392, Note_on_c, 10, 67, 0
11, 10416, Note_on_c, 10, 67, 115
11, 10440, Note_on_c, 10, 67, 0
11, 10464, Note_on_c, 10, 67, 110
11, 10488, Note_on_c, 10, 67, 0
11, 10512, Note_on_c, 10, 67, 110
11, 10536, Note_on_c, 10, 67, 0
11, 10560, Note_on_c, 10, 67, 115
11, 10584, Note_on_c, 10, 67, 0
11, 10608, Note_on_c, 10, 67, 110
11, 10632, Note_on_c, 10, 67, 0
11, 10656, Note_on_c, 10, 67, 110
11, 10680, Note_on_c, 10, 67, 0
11, 10704, Note_on_c, 10, 67, 115
11, 10728, Note_on_c, 10, 67, 0
11, 10752, Note_on_c, 10, 67, 110
11, 10776, Note_on_c, 10, 67, 0
11, 10800, Note_on_c, 10, 67, 110
11, 10824, Note_on_c, 10, 67, 0
11, 10848, Note_on_c, 10, 67, 115
11, 10872, Note_on_c, 10, 67, 0
11, 10896, Note_on_c, 10, 67, 110
11, 10920, Note_on_c, 10, 67, 0
11, 10944, Note_on_c, 10, 67, 110
11, 10968, Note_on_c, 10, 67, 0
11, 10992, Note_on_c, 10, 67, 115
11, 11016, Note_on_c, 10, 67, 0
11, 11040, Note_on_c, 10, 67, 110
11, 11064, Note_on_c, 10, 67, 0
11, 11088, Note_on_c, 10, 67, 110
11, 11112, Note_on_c, 10, 67, 0
11, 11136, Note_on_c, 10, 67, 110
11, 11160, Note_on_c, 10, 67, 0
11, 15744, Note_on_c, 10, 64, 120
11, 15779, Note_on_c, 10, 64, 0
11, 15816, Note_on_c, 10, 64, 113
11, 15828, Note_on_c, 10, 64, 0
11, 15840, Note_on_c, 10, 64, 113
11, 15864, Note_on_c, 10, 64, 0
11, 15888, Note_on_c, 10, 64, 113
11, 15912, Note_on_c, 10, 64, 0
11, 16320, Note_on_c, 10, 50, 116
11, 16320, Note_on_c, 10, 62, 116
11, 16355, Note_on_c, 10, 62, 0
11, 16355, Note_on_c, 10, 50, 0
11, 16392, Note_on_c, 10, 50, 113
11, 16404, Note_on_c, 10, 50, 0
11, 16416, Note_on_c, 10, 50, 113
11, 16440, Note_on_c, 10, 50, 0
11, 16464, Note_on_c, 10, 50, 113
11, 16464, Note_on_c, 10, 62, 113
11, 16488, Note_on_c, 10, 62, 0
11, 16488, Note_on_c, 10, 50, 0
11, 16608, Note_on_c, 10, 67, 116
11, 16643, Note_on_c, 10, 67, 0
11, 16680, Note_on_c, 10, 67, 113
11, 16692, Note_on_c, 10, 67, 0
11, 16704, Note_on_c, 10, 67, 113
11, 16728, Note_on_c, 10, 67, 0
11, 16752, Note_on_c, 10, 67, 113
11, 16776, Note_on_c, 10, 67, 0
11, 17760, Control_c, 10, 1, 0
11, 17760, Control_c, 10, 11, 60
11, 17760, Note_on_c, 10, 60, 100
11, 17761, Control_c, 10, 1, 1
11, 17762, Control_c, 10, 1, 2
11, 17764, Control_c, 10, 1, 3
11, 17766, Control_c, 10, 1, 4
11, 17768, Control_c, 10, 1, 5
11, 17770, Control_c, 10, 11, 61
11, 17771, Control_c, 10, 1, 6
11, 17773, Control_c, 10, 1, 7
11, 17776, Control_c, 10, 1, 8
11, 17779, Control_c, 10, 1, 9
11, 17780, Control_c, 10, 11, 62
11, 17784, Control_c, 10, 1, 10
11, 17788, Control_c, 10, 1, 11
11, 17789, Control_c, 10, 11, 63
11, 17794, Control_c, 10, 1, 12
11, 17799, Control_c, 10, 11, 64
11, 17801, Control_c, 10, 1, 13
11, 17808, Control_c, 10, 11, 65
11, 17811, Control_c, 10, 1, 14
11, 17818, Control_c, 10, 11, 66
11, 17828, Control_c, 10, 11, 67
11, 17829, Control_c, 10, 1, 15
11, 17837, Control_c, 10, 11, 68
11, 17847, Control_c, 10, 11, 69
11, 17856, Control_c, 10, 11, 70
11, 17866, Control_c, 10, 11, 71
11, 17875, Control_c, 10, 11, 72
11, 17885, Control_c, 10, 11, 73
11, 17895, Control_c, 10, 11, 74
11, 17904, Control_c, 10, 11, 75
11, 17914, Control_c, 10, 11, 76
11, 17923, Control_c, 10, 11, 77
11, 17933, Control_c, 10, 11, 78
11, 17943, Control_c, 10, 11, 79
11, 17952, Control_c, 10, 11, 80
11, 17962, Control_c, 10, 11, 81
11, 17971, Control_c, 10, 11, 82
11, 17981, Control_c, 10, 11, 83
11, 17990, Control_c, 10, 11, 84
11, 18000, Control_c, 10, 11, 85
11, 18010, Control_c, 10, 11, 86
11, 18019, Control_c, 10, 11, 87
11, 18029, Control_c, 10, 11, 88
11, 18038, Control_c, 10, 11, 89
11, 18048, Control_c, 10, 11, 90
11, 18058, Control_c, 10, 11, 91
11, 18067, Control_c, 10, 11, 92
11, 18077, Control_c, 10, 11, 93
11, 18086, Control_c, 10, 11, 94
11, 18096, Control_c, 10, 11, 95
11, 18105, Control_c, 10, 11, 96
11, 18115, Control_c, 10, 11, 97
11, 18125, Control_c, 10, 11, 98
11, 18134, Control_c, 10, 11, 99
11, 18144, Control_c, 10, 11, 100
11, 18153, Control_c, 10, 11, 101
11, 18163, Control_c, 10, 11, 102
11, 18173, Control_c, 10, 11, 103
11, 18182, Control_c, 10, 11, 104
11, 18192, Control_c, 10, 11, 105
11, 18201, Control_c, 10, 11, 106
11, 18211, Control_c, 10, 11, 107
11, 18220, Control_c, 10, 11, 108
11, 18230, Control_c, 10, 11, 109
11, 18240, Control_c, 10, 11, 110
11, 18249, Control_c, 10, 11, 111
11, 18259, Control_c, 10, 11, 112
11, 18268, Control_c, 10, 11, 113
11, 18278, Control_c, 10, 11, 114
11, 18288, Control_c, 10, 11, 115
11, 18297, Control_c, 10, 11, 116
11, 18307, Control_c, 10, 11, 117
11, 18316, Control_c, 10, 11, 118
11, 18326, Control_c, 10, 11, 119
11, 18335, Control_c, 10, 11, 120
11, 18360, Note_on_c, 10, 60, 0
11, 18384, Control_c, 10, 1, 0
11, 18384, Note_on_c, 10, 60, 100
11, 18408, Note_on_c, 10, 60, 0
11, 18432, Note_on_c, 10, 60, 100
11, 18456, Note_on_c, 10, 60, 0
11, 18480, Note_on_c, 10, 50, 105
11, 18480, Note_on_c, 10, 62, 105
11, 18504, Note_on_c, 10, 62, 0
11, 18504, Note_on_c, 10, 50, 0
11, 18528, Note_on_c, 10, 50, 100
11, 18528, Note_on_c, 10, 62, 100
11, 18552, Note_on_c, 10, 62, 0
11, 18552, Note_on_c, 10, 50, 0
11, 18576, Note_on_c, 10, 50, 100
11, 18576, Note_on_c, 10, 62, 100
11, 18600, Note_on_c, 10, 62, 0
11, 18600, Note_on_c, 10, 50, 0
11, 18624, Note_on_c, 10, 64, 105
11, 18648, Note_on_c, 10, 64, 0
11, 18672, Note_on_c, 10, 67, 100
11, 18696, Note_on_c, 10, 67, 0
11, 18720, Note_on_c, 10, 69, 100
11, 18744, Note_on_c, 10, 69, 0
11, 18768, Note_on_c, 10, 69, 105
11, 18792, Note_on_c, 10, 69, 0
11, 18816, Note_on_c, 10, 67, 100
11, 18840, Note_on_c, 10, 67, 0
11, 18864, Note_on_c, 10, 67, 100
11, 18888, Note_on_c, 10, 67, 0
11, 18912, Note_on_c, 10, 67, 100
11, 18936, Note_on_c, 10, 67, 0
11, 19200, Note_on_c, 10, 64, 105
11, 19224, Note_on_c, 10, 64, 0
11, 19248, Note_on_c, 10, 67, 100
11, 19272, Note_on_c, 10, 67, 0
11, 19296, Note_on_c, 10, 67, 100
11, 19320, Note_on_c, 10, 67, 0
11, 19344, Note_on_c, 10, 67, 105
11, 19368, Note_on_c, 10, 67, 0
11, 19392, Note_on_c, 10, 67, 100
11, 19416, Note_on_c, 10, 67, 0
11, 19440, Note_on_c, 10, 67, 100
11, 19464, Note_on_c, 10, 67, 0
11, 19488, Note_on_c, 10, 67, 105
11, 19512, Note_on_c, 10, 67, 0
11, 19536, Note_on_c, 10, 67, 100
11, 19560, Note_on_c, 10, 67, 0
11, 19584, Note_on_c, 10, 67, 100
11, 19608, Note_on_c, 10, 67, 0
11, 19632, Note_on_c, 10, 67, 105
11, 19656, Note_on_c, 10, 67, 0
11, 19680, Note_on_c, 10, 67, 100
11, 19704, Note_on_c, 10, 67, 0
11, 19728, Note_on_c, 10, 67, 100
11, 19752, Note_on_c, 10, 67, 0
11, 19776, Note_on_c, 10, 67, 105
11, 19800, Note_on_c, 10, 67, 0
11, 19824, Note_on_c, 10, 67, 100
11, 19848, Note_on_c, 10, 67, 0
11, 19872, Note_on_c, 10, 67, 100
11, 19896, Note_on_c, 10, 67, 0
11, 19920, Note_on_c, 10, 67, 105
11, 19944, Note_on_c, 10, 67, 0
11, 19968, Note_on_c, 10, 67, 100
11, 19992, Note_on_c, 10, 67, 0
11, 20016, Note_on_c, 10, 67, 100
11, 20040, Note_on_c, 10, 67, 0
11, 20640, Note_on_c, 10, 60, 60
11, 20675, Note_on_c, 10, 60, 0
11, 20712, Note_on_c, 10, 60, 50
11, 20724, Note_on_c, 10, 60, 0
11, 20736, Note_on_c, 10, 60, 50
11, 20760, Note_on_c, 10, 60, 0
11, 20784, Note_on_c, 10, 57, 50
11, 20784, Note_on_c, 10, 60, 50
11, 20808, Note_on_c, 10, 60, 0
11, 20808, Note_on_c, 10, 57, 0
11, 20928, Note_on_c, 10, 57, 60
11, 20928, Note_on_c, 10, 60, 60
11, 20963, Note_on_c, 10, 60, 0
11, 20963, Note_on_c, 10, 57, 0
11, 21000, Note_on_c, 10, 57, 50
11, 21000, Note_on_c, 10, 60, 50
11, 21012, Note_on_c, 10, 60, 0
11, 21012, Note_on_c, 10, 57, 0
11, 21024, Note_on_c, 10, 57, 50
11, 21024, Note_on_c, 10, 60, 50
11, 21048, Note_on_c, 10, 60, 0
11, 21048, Note_on_c, 10, 57, 0
11, 21072, Note_on_c, 10, 57, 50
11, 21072, Note_on_c, 10, 62, 50
11, 21096, Note_on_c, 10, 62, 0
11, 21096, Note_on_c, 10, 57, 0
11, 22944, Note_on_c, 10, 69, 50
11, 22968, Note_on_c, 10, 69, 0
11, 23088, Note_on_c, 10, 62, 50
11, 23112, Note_on_c, 10, 62, 0
11, 23232, Note_on_c, 10, 64, 50
11, 23256, Note_on_c, 10, 64, 0
11, 23376, Note_on_c, 10, 65, 50
11, 23400, Note_on_c, 10, 65, 0
11, 24096, Note_on_c, 10, 45, 50
11, 24096, Note_on_c, 10, 57, 50
11, 24120, Note_on_c, 10, 57, 0
11, 24120, Note_on_c, 10, 45, 0
11, 24240, Note_on_c, 10, 38, 50
11, 24240, Note_on_c, 10, 57, 50
11, 24264, Note_on_c, 10, 57, 0
11, 24264, Note_on_c, 10, 38, 0
11, 25104, Note_on_c, 10, 45, 50
11, 25104, Note_on_c, 10, 57, 50
11, 25128, Note_on_c, 10, 57, 0
11, 25128, Note_on_c, 10, 45, 0
11, 25248, Note_on_c, 10, 45, 50
11, 25248, Note_on_c, 10, 57, 50
11, 25272, Note_on_c, 10, 57, 0
11, 25272, Note_on_c, 10, 45, 0
11, 25392, Note_on_c, 10, 45, 50
11, 25392, Note_on_c, 10, 57, 50
11, 25416, Note_on_c, 10, 57, 0
11, 25416, Note_on_c, 10, 45, 0
11, 25536, Note_on_c, 10, 45, 50
11, 25536, Note_on_c, 10, 57, 50
11, 25560, Note_on_c, 10, 57, 0
11, 25560, Note_on_c, 10, 45, 0
11, 25680, Note_on_c, 10, 45, 50
11, 25680, Note_on_c, 10, 57, 50
11, 25704, Note_on_c, 10, 57, 0
11, 25704, Note_on_c, 10, 45, 0
11, 25824, Note_on_c, 10, 45, 50
11, 25824, Note_on_c, 10, 57, 50
11, 25848, Note_on_c, 10, 57, 0
11, 25848, Note_on_c, 10, 45, 0
11, 25968, Note_on_c, 10, 45, 50
11, 25968, Note_on_c, 10, 57, 50
11, 25992, Note_on_c, 10, 57, 0
11, 25992, Note_on_c, 10, 45, 0
11, 26112, Note_on_c, 10, 45, 50
11, 26112, Note_on_c, 10, 57, 50
11, 26136, Note_on_c, 10, 57, 0
11, 26136, Note_on_c, 10, 45, 0
11, 26256, Note_on_c, 10, 45, 50
11, 26256, Note_on_c, 10, 57, 50
11, 26280, Note_on_c, 10, 57, 0
11, 26280, Note_on_c, 10, 45, 0
11, 26496, Note_on_c, 10, 45, 50
11, 26496, Note_on_c, 10, 57, 50
11, 26520, Note_on_c, 10, 57, 0
11, 26520, Note_on_c, 10, 45, 0
11, 26640, Note_on_c, 10, 45, 50
11, 26640, Note_on_c, 10, 57, 50
11, 26664, Note_on_c, 10, 57, 0
11, 26664, Note_on_c, 10, 45, 0
11, 26784, Note_on_c, 10, 45, 50
11, 26784, Note_on_c, 10, 57, 50
11, 26808, Note_on_c, 10, 57, 0
11, 26808, Note_on_c, 10, 45, 0
11, 26928, Note_on_c, 10, 45, 50
11, 26928, Note_on_c, 10, 57, 50
11, 26952, Note_on_c, 10, 57, 0
11, 26952, Note_on_c, 10, 45, 0
11, 26976, Control_c, 10, 1, 0
11, 26976, Control_c, 10, 11, 50
11, 26976, Note_on_c, 10, 45, 110
11, 26976, Note_on_c, 10, 57, 110
11, 26977, Control_c, 10, 1, 1
11, 26978, Control_c, 10, 1, 2
11, 26979, Control_c, 10, 1, 3
11, 26981, Control_c, 10, 1, 4
11, 26983, Control_c, 10, 1, 5
11, 26985, Control_c, 10, 1, 6
11, 26988, Control_c, 10, 1, 7
11, 26990, Control_c, 10, 1, 8
11, 26993, Control_c, 10, 1, 9
11, 26997, Control_c, 10, 1, 10
11, 27001, Control_c, 10, 11, 51
11, 27001, Control_c, 10, 1, 11
11, 27005, Control_c, 10, 1, 12
11, 27012, Control_c, 10, 1, 13
11, 27020, Control_c, 10, 1, 14
11, 27026, Control_c, 10, 11, 52
11, 27035, Control_c, 10, 1, 15
11, 27051, Control_c, 10, 11, 53
11, 27075, Control_c, 10, 11, 54
11, 27100, Control_c, 10, 11, 55
11, 27125, Control_c, 10, 11, 56
11, 27149, Control_c, 10, 11, 57
11, 27174, Control_c, 10, 11, 58
11, 27199, Control_c, 10, 11, 59
11, 27223, Control_c, 10, 11, 60
11, 27248, Control_c, 10, 11, 61
11, 27273, Control_c, 10, 11, 62
11, 27297, Control_c, 10, 11, 63
11, 27322, Control_c, 10, 11, 64
11, 27347, Control_c, 10, 11, 65
11, 27371, Control_c, 10, 11, 66
11, 27396, Control_c, 10, 11, 67
11, 27421, Control_c, 10, 11, 68
11, 27445, Control_c, 10, 11, 69
11, 27470, Control_c, 10, 11, 70
11, 27495, Control_c, 10, 11, 71
11, 27519, Control_c, 10, 11, 72
11, 27544, Control_c, 10, 11, 73
11, 27569, Control_c, 10, 11, 74
11, 27593, Control_c, 10, 11, 75
11, 27618, Control_c, 10, 11, 76
11, 27643, Control_c, 10, 11, 77
11, 27667, Control_c, 10, 11, 78
11, 27692, Control_c, 10, 11, 79
11, 27717, Control_c, 10, 11, 80
11, 27741, Control_c, 10, 11, 81
11, 27766, Control_c, 10, 11, 82
11, 27791, Control_c, 10, 11, 83
11, 27815, Control_c, 10, 11, 84
11, 27840, Control_c, 10, 11, 85
11, 27865, Control_c, 10, 11, 86
11, 27889, Control_c, 10, 11, 87
11, 27914, Control_c, 10, 11, 88
11, 27939, Control_c, 10, 11, 89
11, 27963, Control_c, 10, 11, 90
11, 27988, Control_c, 10, 11, 91
11, 28013, Control_c, 10, 11, 92
11, 28037, Control_c, 10, 11, 93
11, 28062, Control_c, 10, 11, 94
11, 28087, Control_c, 10, 11, 95
11, 28111, Control_c, 10, 11, 96
11, 28136, Control_c, 10, 11, 97
11, 28161, Control_c, 10, 11, 98
11, 28185, Control_c, 10, 11, 99
11, 28210, Control_c, 10, 11, 100
11, 28235, Control_c, 10, 11, 101
11, 28259, Control_c, 10, 11, 102
11, 28284, Control_c, 10, 11, 103
11, 28309, Control_c, 10, 11, 104
11, 28333, Control_c, 10, 11, 105
11, 28358, Control_c, 10, 11, 106
11, 28383, Control_c, 10, 11, 107
11, 28407, Control_c, 10, 11, 108
11, 28432, Control_c, 10, 11, 109
11, 28457, Control_c, 10, 11, 110
11, 28481, Control_c, 10, 11, 111
11, 28506, Control_c, 10, 11, 112
11, 28531, Control_c, 10, 11, 113
11, 28555, Control_c, 10, 11, 114
11, 28580, Control_c, 10, 11, 115
11, 28605, Control_c, 10, 11, 116
11, 28629, Control_c, 10, 11, 117
11, 28654, Control_c, 10, 11, 118
11, 28679, Control_c, 10, 11, 119
11, 28703, Control_c, 10, 11, 120
11, 28704, Note_on_c, 10, 57, 0
11, 28704, Note_on_c, 10, 45, 0
11, 28704, Control_c, 10, 1, 0
11, 28704, Note_on_c, 10, 57, 115
11, 28704, Note_on_c, 10, 69, 115
11, 28728, Note_on_c, 10, 69, 0
11, 28728, Note_on_c, 10, 57, 0
11, 28752, Note_on_c, 10, 57, 110
11, 28752, Note_on_c, 10, 69, 110
11, 28776, Note_on_c, 10, 69, 0
11, 28776, Note_on_c, 10, 57, 0
11, 28800, Note_on_c, 10, 57, 110
11, 28800, Note_on_c, 10, 69, 110
11, 28824, Note_on_c, 10, 69, 0
11, 28824, Note_on_c, 10, 57, 0
11, 28848, Note_on_c, 10, 57, 115
11, 28848, Note_on_c, 10, 69, 115
11, 28872, Note_on_c, 10, 69, 0
11, 28872, Note_on_c, 10, 57, 0
11, 28896, Note_on_c, 10, 57, 110
11, 28896, Note_on_c, 10, 69, 110
11, 28920, Note_on_c, 10, 69, 0
11, 28920, Note_on_c, 10, 57, 0
11, 28944, Note_on_c, 10, 57, 110
11, 28944, Note_on_c, 10, 69, 110
11, 28968, Note_on_c, 10, 69, 0
11, 28968, Note_on_c, 10, 57, 0
11, 28992, Note_on_c, 10, 57, 115
11, 28992, Note_on_c, 10, 69, 115
11, 29016, Note_on_c, 10, 69, 0
11, 29016, Note_on_c, 10, 57, 0
11, 29040, Note_on_c, 10, 57, 110
11, 29040, Note_on_c, 10, 69, 110
11, 29064, Note_on_c, 10, 69, 0
11, 29064, Note_on_c, 10, 57, 0
11, 29088, Note_on_c, 10, 57, 110
11, 29088, Note_on_c, 10, 69, 110
11, 29112, Note_on_c, 10, 69, 0
11, 29112, Note_on_c, 10, 57, 0
11, 29136, Note_on_c, 10, 57, 115
11, 29136, Note_on_c, 10, 69, 115
11, 29160, Note_on_c, 10, 69, 0
11, 29160, Note_on_c, 10, 57, 0
11, 29184, Note_on_c, 10, 57, 110
11, 29184, Note_on_c, 10, 69, 110
11, 29208, Note_on_c, 10, 69, 0
11, 29208, Note_on_c, 10, 57, 0
11, 29232, Note_on_c, 10, 57, 110
11, 29232, Note_on_c, 10, 69, 110
11, 29256, Note_on_c, 10, 69, 0
11, 29256, Note_on_c, 10, 57, 0
11, 29280, Note_on_c, 10, 50, 115
11, 29280, Note_on_c, 10, 67, 115
11, 29304, Note_on_c, 10, 67, 0
11, 29304, Note_on_c, 10, 50, 0
11, 29328, Note_on_c, 10, 50, 110
11, 29328, Note_on_c, 10, 67, 110
11, 29352, Note_on_c, 10, 67, 0
11, 29352, Note_on_c, 10, 50, 0
11, 29376, Note_on_c, 10, 50, 110
11, 29376, Note_on_c, 10, 67, 110
11, 29400, Note_on_c, 10, 67, 0
11, 29400, Note_on_c, 10, 50, 0
11, 29424, Note_on_c, 10, 50, 115
11, 29424, Note_on_c, 10, 62, 115
11, 29448, Note_on_c, 10, 62, 0
11, 29448, Note_on_c, 10, 50, 0
11, 29472, Note_on_c, 10, 57, 110
11, 29472, Note_on_c, 10, 69, 110
11, 29496, Note_on_c, 10, 69, 0
11, 29496, Note_on_c, 10, 57, 0
11, 29520, Note_on_c, 10, 57, 110
11, 29520, Note_on_c, 10, 69, 110
11, 29544, Note_on_c, 10, 69, 0
11, 29544, Note_on_c, 10, 57, 0
11, 29568, Note_on_c, 10, 57, 115
11, 29568, Note_on_c, 10, 69, 115
11, 29592, Note_on_c, 10, 69, 0
11, 29592, Note_on_c, 10, 57, 0
11, 29616, Note_on_c, 10, 57, 110
11, 29616, Note_on_c, 10, 69, 110
11, 29640, Note_on_c, 10, 69, 0
11, 29640, Note_on_c, 10, 57, 0
11, 29664, Note_on_c, 10, 57, 110
11, 29664, Note_on_c, 10, 69, 110
11, 29688, Note_on_c, 10, 69, 0
11, 29688, Note_on_c, 10, 57, 0
11, 29712, Note_on_c, 10, 57, 115
11, 29712, Note_on_c, 10, 69, 115
11, 29736, Note_on_c, 10, 69, 0
11, 29736, Note_on_c, 10, 57, 0
11, 29760, Note_on_c, 10, 62, 110
11, 29760, Note_on_c, 10, 69, 110
11, 29784, Note_on_c, 10, 69, 0
11, 29784, Note_on_c, 10, 62, 0
11, 29808, Note_on_c, 10, 62, 110
11, 29808, Note_on_c, 10, 69, 110
11, 29832, Note_on_c, 10, 69, 0
11, 29832, Note_on_c, 10, 62, 0
11, 29856, Note_on_c, 10, 62, 115
11, 29856, Note_on_c, 10, 67, 115
11, 29880, Note_on_c, 10, 67, 0
11, 29880, Note_on_c, 10, 62, 0
11, 29904, Note_on_c, 10, 62, 110
11, 29904, Note_on_c, 10, 67, 110
11, 29928, Note_on_c, 10, 67, 0
11, 29928, Note_on_c, 10, 62, 0
11, 29952, Note_on_c, 10, 62, 110
11, 29952, Note_on_c, 10, 67, 110
11, 29976, Note_on_c, 10, 67, 0
11, 29976, Note_on_c, 10, 62, 0
11, 30000, Note_on_c, 10, 57, 115
11, 30000, Note_on_c, 10, 69, 115
11, 30024, Note_on_c, 10, 69, 0
11, 30024, Note_on_c, 10, 57, 0
11, 30048, Note_on_c, 10, 57, 110
11, 30048, Note_on_c, 10, 69, 110
11, 30072, Note_on_c, 10, 69, 0
11, 30072, Note_on_c, 10, 57, 0
11, 30096, Note_on_c, 10, 57, 110
11, 30096, Note_on_c, 10, 69, 110
11, 30120, Note_on_c, 10, 69, 0
11, 30120, Note_on_c, 10, 57, 0
11, 30144, Note_on_c, 10, 57, 115
11, 30144, Note_on_c, 10, 69, 115
11, 30168, Note_on_c, 10, 69, 0
11, 30168, Note_on_c, 10, 57, 0
11, 30192, Note_on_c, 10, 57, 110
11, 30192, Note_on_c, 10, 69, 110
11, 30216, Note_on_c, 10, 69, 0
11, 30216, Note_on_c, 10, 57, 0
11, 30240, Note_on_c, 10, 57, 110
11, 30240, Note_on_c, 10, 69, 110
11, 30264, Note_on_c, 10, 69, 0
11, 30264, Note_on_c, 10, 57, 0
11, 30288, Note_on_c, 10, 57, 115
11, 30288, Note_on_c, 10, 69, 115
11, 30312, Note_on_c, 10, 69, 0
11, 30312, Note_on_c, 10, 57, 0
11, 30336, Note_on_c, 10, 65, 110
11, 30336, Note_on_c, 10, 69, 110
11, 30360, Note_on_c, 10, 69, 0
11, 30360, Note_on_c, 10, 65, 0
11, 30384, Note_on_c, 10, 65, 110
11, 30384, Note_on_c, 10, 67, 110
11, 30408, Note_on_c, 10, 67, 0
11, 30408, Note_on_c, 10, 65, 0
11, 30432, Note_on_c, 10, 65, 115
11, 30432, Note_on_c, 10, 67, 115
11, 30456, Note_on_c, 10, 67, 0
11, 30456, Note_on_c, 10, 65, 0
11, 30480, Note_on_c, 10, 65, 110
11, 30480, Note_on_c, 10, 67, 110
11, 30504, Note_on_c, 10, 67, 0
11, 30504, Note_on_c, 10, 65, 0
11, 30528, Note_on_c, 10, 65, 110
11, 30528, Note_on_c, 10, 67, 110
11, 30552, Note_on_c, 10, 67, 0
11, 30552, Note_on_c, 10, 65, 0
11, 30576, Note_on_c, 10, 64, 115
11, 30576, Note_on_c, 10, 67, 115
11, 30600, Note_on_c, 10, 67, 0
11, 30600, Note_on_c, 10, 64, 0
11, 30624, Note_on_c, 10, 67, 110
11, 30648, Note_on_c, 10, 67, 0
11, 30672, Note_on_c, 10, 67, 110
11, 30696, Note_on_c, 10, 67, 0
11, 30720, Note_on_c, 10, 67, 115
11, 30744, Note_on_c, 10, 67, 0
11, 30768, Note_on_c, 10, 67, 110
11, 30792, Note_on_c, 10, 67, 0
11, 30816, Note_on_c, 10, 67, 110
11, 30840, Note_on_c, 10, 67, 0
11, 30864, Note_on_c, 10, 67, 115
11, 30888, Note_on_c, 10, 67, 0
11, 30912, Note_on_c, 10, 67, 110
11, 30936, Note_on_c, 10, 67, 0
11, 30960, Note_on_c, 10, 67, 110
11, 30984, Note_on_c, 10, 67, 0
11, 31008, Note_on_c, 10, 67, 115
11, 31032, Note_on_c, 10, 67, 0
11, 31056, Note_on_c, 10, 67, 110
11, 31080, Note_on_c, 10, 67, 0
11, 31104, Note_on_c, 10, 67, 110
11, 31128, Note_on_c, 10, 67, 0
11, 31152, Note_on_c, 10, 67, 115
11, 31176, Note_on_c, 10, 67, 0
11, 31200, Note_on_c, 10, 67, 110
11, 31224, Note_on_c, 10, 67, 0
11, 31248, Note_on_c, 10, 67, 110
11, 31272, Note_on_c, 10, 67, 0
11, 31296, Note_on_c, 10, 67, 115
11, 31320, Note_on_c, 10, 67, 0
11, 31344, Note_on_c, 10, 67, 110
11, 31368, Note_on_c, 10, 67, 0
11, 31392, Note_on_c, 10, 67, 110
11, 31416, Note_on_c, 10, 67, 0
11, 31440, Note_on_c, 10, 67, 115
11, 31464, Note_on_c, 10, 67, 0
11, 31488, Note_on_c, 10, 67, 110
11, 31512, Note_on_c, 10, 67, 0
11, 31536, Note_on_c, 10, 67, 110
11, 31560, Note_on_c, 10, 67, 0
11, 31584, Note_on_c, 10, 67, 110
11, 31608, Note_on_c, 10, 67, 0
11, 36192, Note_on_c, 10, 64, 120
11, 36227, Note_on_c, 10, 64, 0
11, 36264, Note_on_c, 10, 64, 113
11, 36276, Note_on_c, 10, 64, 0
11, 36288, Note_on_c, 10, 64, 113
11, 36312, Note_on_c, 10, 64, 0
11, 36336, Note_on_c, 10, 64, 113
11, 36360, Note_on_c, 10, 64, 0
11, 36768, Note_on_c, 10, 50, 116
11, 36768, Note_on_c, 10, 62, 116
11, 36803, Note_on_c, 10, 62, 0
11, 36803, Note_on_c, 10, 50, 0
11, 36840, Note_on_c, 10, 50, 113
11, 36852, Note_on_c, 10, 50, 0
11, 36864, Note_on_c, 10, 50, 113
11, 36888, Note_on_c, 10, 50, 0
11, 36912, Note_on_c, 10, 50, 113
11, 36912, Note_on_c, 10, 62, 113
11, 36936, Note_on_c, 10, 62, 0
11, 36936, Note_on_c, 10, 50, 0
11, 37056, Note_on_c, 10, 67, 116
11, 37091, Note_on_c, 10, 67, 0
11, 37128, Note_on_c, 10, 67, 113
11, 37140, Note_on_c, 10, 67, 0
11, 37152, Note_on_c, 10, 67, 113
11, 37176, Note_on_c, 10, 67, 0
11, 37200, Note_on_c, 10, 67, 113
11, 37224, Note_on_c, 10, 67, 0
11, 38208, Control_c, 10, 1, 0
11, 38208, Control_c, 10, 11, 60
11, 38208, Note_on_c, 10, 60, 100
11, 38209, Control_c, 10, 1, 1
11, 38210, Control_c, 10, 1, 2
11, 38212, Control_c, 10, 1, 3
11, 38214, Control_c, 10, 1, 4
11, 38216, Control_c, 10, 1, 5
11, 38218, Control_c, 10, 11, 61
11, 38219, Control_c, 10, 1, 6
11, 38221, Control_c, 10, 1, 7
11, 38224, Control_c, 10, 1, 8
11, 38227, Control_c, 10, 1, 9
11, 38228, Control_c, 10, 11, 62
11, 38232, Control_c, 10, 1, 10
11, 38236, Control_c, 10, 1, 11
11, 38237, Control_c, 10, 11, 63
11, 38242, Control_c, 10, 1, 12
11, 38247, Control_c, 10, 11, 64
11, 38249, Control_c, 10, 1, 13
11, 38256, Control_c, 10, 11, 65
11, 38259, Control_c, 10, 1, 14
11, 38266, Control_c, 10, 11, 66
11, 38276, Control_c, 10, 11, 67
11, 38277, Control_c, 10, 1, 15
11, 38285, Control_c, 10, 11, 68
11, 38295, Control_c, 10, 11, 69
11, 38304, Control_c, 10, 11, 70
11, 38314, Control_c, 10, 11, 71
11, 38323, Control_c, 10, 11, 72
11, 38333, Control_c, 10, 11, 73
11, 38343, Control_c, 10, 11, 74
11, 38352, Control_c, 10, 11, 75
11, 38362, Control_c, 10, 11, 76
11, 38371, Control_c, 10, 11, 77
11, 38381, Control_c, 10, 11, 78
11, 38391, Control_c, 10, 11, 79
11, 38400, Control_c, 10, 11, 80
11, 38410, Control_c, 10, 11, 81
11, 38419, Control_c, 10, 11, 82
11, 38429, Control_c, 10, 11, 83
11, 38438, Control_c, 10, 11, 84
11, 38448, Control_c, 10, 11, 85
11, 38458, Control_c, 10, 11, 86
11, 38467, Control_c, 10, 11, 87
11, 38477, Control_c, 10, 11, 88
11, 38486, Control_c, 10, 11, 89
11, 38496, Control_c, 10, 11, 90
11, 38506, Control_c, 10, 11, 91
11, 38515, Control_c, 10, 11, 92
11, 38525, Control_c, 10, 11, 93
11, 38534, Control_c, 10, 11, 94
11, 38544, Control_c, 10, 11, 95
11, 38553, Control_c, 10, 11, 96
11, 38563, Control_c, 10, 11, 97
11, 38573, Control_c, 10, 11, 98
11, 38582, Control_c, 10, 11, 99
11, 38592, Control_c, 10, 11, 100
11, 38601, Control_c, 10, 11, 101
11, 38611, Control_c, 10, 11, 102
11, 38621, Control_c, 10, 11, 103
11, 38630, Control_c, 10, 11, 104
11, 38640, Control_c, 10, 11, 105
11, 38649, Control_c, 10, 11, 106
11, 38659, Control_c, 10, 11, 107
11, 38668, Control_c, 10, 11, 108
11, 38678, Control_c, 10, 11, 109
11, 38688, Control_c, 10, 11, 110
11, 38697, Control_c, 10, 11, 111
11, 38707, Control_c, 10, 11, 112
11, 38716, Control_c, 10, 11, 113
11, 38726, Control_c, 10, 11, 114
11, 38736, Control_c, 10, 11, 115
11, 38745, Control_c, 10, 11, 116
11, 38755, Control_c, 10, 11, 117
11, 38764, Control_c, 10, 11, 118
11, 38774, Control_c, 10, 11, 119
11, 38783, Control_c, 10, 11, 120
11, 38808, Note_on_c, 10, 60, 0
11, 38832, Control_c, 10, 1, 0
11, 38832, Note_on_c, 10, 60, 100
11, 38856, Note_on_c, 10, 60, 0
11, 38880, Note_on_c, 10, 60, 100
11, 38904, Note_on_c, 10, 60, 0
11, 38928, Note_on_c, 10, 50, 105
11, 38928, Note_on_c, 10, 62, 105
11, 38952, Note_on_c, 10, 62, 0
11, 38952, Note_on_c, 10, 50, 0
11, 38976, Note_on_c, 10, 50, 100
11, 38976, Note_on_c, 10, 62, 100
11, 39000, Note_on_c, 10, 62, 0
11, 39000, Note_on_c, 10, 50, 0
11, 39024, Note_on_c, 10, 50, 100
11, 39024, Note_on_c, 10, 62, 100
11, 39048, Note_on_c, 10, 62, 0
11, 39048, Note_on_c, 10, 50, 0
11, 39072, Note_on_c, 10, 64, 105
11, 39096, Note_on_c, 10, 64, 0
11, 39120, Note_on_c, 10, 67, 100
11, 39144, Note_on_c, 10, 67, 0
11, 39168, Note_on_c, 10, 69, 100
11, 39192, Note_on_c, 10, 69, 0
11, 39216, Note_on_c, 10, 69, 105
11, 39240, Note_on_c, 10, 69, 0
11, 39264, Note_on_c, 10, 67, 100
11, 39288, Note_on_c, 10, 67, 0
11, 39312, Note_on_c, 10, 67, 100
11, 39336, Note_on_c, 10, 67, 0
11, 39360, Note_on_c, 10, 67, 100
11, 39384, Note_on_c, 10, 67, 0
11, 39648, Note_on_c, 10, 64, 105
11, 39672, Note_on_c, 10, 64, 0
11, 39696, Note_on_c, 10, 67, 100
11, 39720, Note_on_c, 10, 67, 0
11, 39744, Note_on_c, 10, 67, 100
11, 39768, Note_on_c, 10, 67, 0
11, 39792, Note_on_c, 10, 67, 105
11, 39816, Note_on_c, 10, 67, 0
11, 39840, Note_on_c, 10, 67, 100
11, 39864, Note_on_c, 10, 67, 0
11, 39888, Note_on_c, 10, 67, 100
11, 39912, Note_on_c, 10, 67, 0
11, 39936, Note_on_c, 10, 67, 105
11, 39960, Note_on_c, 10, 67, 0
11, 39984, Note_on_c, 10, 67, 100
11, 40008, Note_on_c, 10, 67, 0
11, 40032, Note_on_c, 10, 67, 100
11, 40056, Note_on_c, 10, 67, 0
11, 40080, Note_on_c, 10, 67, 105
11, 40104, Note_on_c, 10, 67, 0
11, 40128, Note_on_c, 10, 67, 100
11, 40152, Note_on_c, 10, 67, 0
11, 40176, Note_on_c, 10, 67, 100
11, 40200, Note_on_c, 10, 67, 0
11, 40224, Note_on_c, 10, 67, 105
11, 40248, Note_on_c, 10, 67, 0
11, 40272, Note_on_c, 10, 67, 100
11, 40296, Note_on_c, 10, 67, 0
11, 40320, Note_on_c, 10, 67, 100
11, 40344, Note_on_c, 10, 67, 0
11, 40368, Note_on_c, 10, 67, 105
11, 40392, Note_on_c, 10, 67, 0
11, 40416, Note_on_c, 10, 67, 100
11, 40440, Note_on_c, 10, 67, 0
11, 40464, Note_on_c, 10, 67, 100
11, 40488, Note_on_c, 10, 67, 0
11, 41088, Note_on_c, 10, 60, 60
11, 41123, Note_on_c, 10, 60, 0
11, 41160, Note_on_c, 10, 60, 50
11, 41172, Note_on_c, 10, 60, 0
11, 41184, Note_on_c, 10, 60, 50
11, 41208, Note_on_c, 10, 60, 0
11, 41232, Note_on_c, 10, 57, 50
11, 41232, Note_on_c, 10, 60, 50
11, 41256, Note_on_c, 10, 60, 0
11, 41256, Note_on_c, 10, 57, 0
11, 41376, Note_on_c, 10, 57, 60
11, 41376, Note_on_c, 10, 60, 60
11, 41411, Note_on_c, 10, 60, 0
11, 41411, Note_on_c, 10, 57, 0
11, 41448, Note_on_c, 10, 57, 50
11, 41448, Note_on_c, 10, 60, 50
11, 41460, Note_on_c, 10, 60, 0
11, 41460, Note_on_c, 10, 57, 0
11, 41472, Note_on_c, 10, 57, 50
11, 41472, Note_on_c, 10, 60, 50
11, 41496, Note_on_c, 10, 60, 0
11, 41496, Note_on_c, 10, 57, 0
11, 41520, Note_on_c, 10, 57, 50
11, 41520, Note_on_c, 10, 62, 50
11, 41544, Note_on_c, 10, 62, 0
11, 41544, Note_on_c, 10, 57, 0
11, 42240, Note_on_c, 10, 50, 60
11, 42240, Note_on_c, 10, 62, 60
11, 42275, Note_on_c, 10, 62, 0
11, 42275, Note_on_c, 10, 50, 0
11, 42312, Note_on_c, 10, 50, 50
11, 42312, Note_on_c, 10, 62, 50
11, 42324, Note_on_c, 10, 62, 0
11, 42324, Note_on_c, 10, 50, 0
11, 42336, Note_on_c, 10, 50, 50
11, 42336, Note_on_c, 10, 62, 50
11, 42360, Note_on_c, 10, 62, 0
11, 42360, Note_on_c, 10, 50, 0
11, 42384, Note_on_c, 10, 50, 50
11, 42384, Note_on_c, 10, 62, 50
11, 42408, Note_on_c, 10, 62, 0
11, 42408, Note_on_c, 10, 50, 0
11, 44256, Note_on_c, 10, 54, 76
11, 44256, Note_on_c, 10, 66, 76
11, 44291, Note_on_c, 10, 66, 0
11, 44291, Note_on_c, 10, 54, 0
11, 44328, Note_on_c, 10, 54, 78
11, 44328, Note_on_c, 10, 66, 78
11, 44340, Note_on_c, 10, 66, 0
11, 44340, Note_on_c, 10, 54, 0
11, 44352, Note_on_c, 10, 54, 78
11, 44352, Note_on_c, 10, 66, 78
11, 44376, Note_on_c, 10, 66, 0
11, 44376, Note_on_c, 10, 54, 0
11, 44400, Note_on_c, 10, 54, 78
11, 44400, Note_on_c, 10, 66, 78
11, 44424, Note_on_c, 10, 66, 0
11, 44424, Note_on_c, 10, 54, 0
11, 44832, Note_on_c, 10, 64, 88
11, 44867, Note_on_c, 10, 64, 0
11, 44904, Note_on_c, 10, 64, 89
11, 44916, Note_on_c, 10, 64, 0
11, 44928, Note_on_c, 10, 64, 90
11, 44952, Note_on_c, 10, 64, 0
11, 44976, Note_on_c, 10, 64, 90
11, 45000, Note_on_c, 10, 64, 0
11, 45120, Note_on_c, 10, 57, 105
11, 45120, Note_on_c, 10, 69, 105
11, 45155, Note_on_c, 10, 69, 0
11, 45155, Note_on_c, 10, 57, 0
11, 45192, Note_on_c, 10, 45, 100
11, 45192, Note_on_c, 10, 57, 100
11, 45204, Note_on_c, 10, 57, 0
11, 45204, Note_on_c, 10, 45, 0
11, 45216, Note_on_c, 10, 45, 100
11, 45216, Note_on_c, 10, 57, 100
11, 45240, Note_on_c, 10, 57, 0
11, 45240, Note_on_c, 10, 45, 0
11, 51360, Note_on_c, 10, 62, 55
11, 51395, Note_on_c, 10, 62, 0
11, 51432, Note_on_c, 10, 50, 50
11, 51444, Note_on_c, 10, 50, 0
11, 51456, Note_on_c, 10, 50, 50
11, 51480, Note_on_c, 10, 50, 0
11, 51792, Note_on_c, 10, 57, 55
11, 51792, Note_on_c, 10, 69, 55
11, 51827, Note_on_c, 10, 69, 0
11, 51827, Note_on_c, 10, 57, 0
11, 51864, Note_on_c, 10, 45, 50
11, 51864, Note_on_c, 10, 57, 50
11, 51876, Note_on_c, 10, 57, 0
11, 51876, Note_on_c, 10, 45, 0
11, 51888, Note_on_c, 10, 45, 50
11, 51888, Note_on_c, 10, 57, 50
11, 51912, Note_on_c, 10, 57, 0
11, 51912, Note_on_c, 10, 45, 0
11, 52224, Note_on_c, 10, 57, 55
11, 52224, Note_on_c, 10, 69, 55
11, 52259, Note_on_c, 10, 69, 0
11, 52259, Note_on_c, 10, 57, 0
11, 52296, Note_on_c, 10, 45, 50
11, 52296, Note_on_c, 10, 57, 50
11, 52308, Note_on_c, 10, 57, 0
11, 52308, Note_on_c, 10, 45, 0
11, 52320, Note_on_c, 10, 45, 50
11, 52320, Note_on_c, 10, 57, 50
11, 52344, Note_on_c, 10, 57, 0
11, 52344, Note_on_c, 10, 45, 0
11, 52656, Note_on_c, 10, 57, 55
11, 52656, Note_on_c, 10, 69, 55
11, 52691, Note_on_c, 10, 69, 0
11, 52691, Note_on_c, 10, 57, 0
11, 52728, Note_on_c, 10, 45, 50
11, 52728, Note_on_c, 10, 57, 50
11, 52740, Note_on_c, 10, 57, 0
11, 52740, Note_on_c, 10, 45, 0
11, 52752, Note_on_c, 10, 45, 50
11, 52752, Note_on_c, 10, 57, 50
11, 52776, Note_on_c, 10, 57, 0
11, 52776, Note_on_c, 10, 45, 0
11, 52944, Note_on_c, 10, 57, 55
11, 52944, Note_on_c, 10, 69, 55
11, 52968, Note_on_c, 10, 69, 0
11, 52968, Note_on_c, 10, 57, 0
11, 52992, Note_on_c, 10, 57, 50
11, 52992, Note_on_c, 10, 69, 50
11, 53016, Note_on_c, 10, 69, 0
11, 53016, Note_on_c, 10, 57, 0
11, 53040, Note_on_c, 10, 57, 50
11, 53040, Note_on_c, 10, 69, 50
11, 53064, Note_on_c, 10, 69, 0
11, 53064, Note_on_c, 10, 57, 0
11, 53088, Note_on_c, 10, 57, 55
11, 53088, Note_on_c, 10, 69, 55
11, 53112, Note_on_c, 10, 69, 0
11, 53112, Note_on_c, 10, 57, 0
11, 53136, Note_on_c, 10, 57, 50
11, 53136, Note_on_c, 10, 69, 50
11, 53160, Note_on_c, 10, 69, 0
11, 53160, Note_on_c, 10, 57, 0
11, 53184, Note_on_c, 10, 57, 50
11, 53184, Note_on_c, 10, 69, 50
11, 53208, Note_on_c, 10, 69, 0
11, 53208, Note_on_c, 10, 57, 0
11, 53232, Note_on_c, 10, 57, 55
11, 53232, Note_on_c, 10, 69, 55
11, 53256, Note_on_c, 10, 69, 0
11, 53256, Note_on_c, 10, 57, 0
11, 53280, Note_on_c, 10, 57, 50
11, 53280, Note_on_c, 10, 69, 50
11, 53304, Note_on_c, 10, 69, 0
11, 53304, Note_on_c, 10, 57, 0
11, 53328, Note_on_c, 10, 57, 50
11, 53328, Note_on_c, 10, 69, 50
11, 53352, Note_on_c, 10, 69, 0
11, 53352, Note_on_c, 10, 57, 0
11, 53376, Note_on_c, 10, 57, 55
11, 53376, Note_on_c, 10, 69, 55
11, 53411, Note_on_c, 10, 69, 0
11, 53411, Note_on_c, 10, 57, 0
11, 53448, Note_on_c, 10, 45, 50
11, 53448, Note_on_c, 10, 57, 50
11, 53460, Note_on_c, 10, 57, 0
11, 53460, Note_on_c, 10, 45, 0
11, 53472, Note_on_c, 10, 45, 50
11, 53472, Note_on_c, 10, 57, 50
11, 53496, Note_on_c, 10, 57, 0
11, 53496, Note_on_c, 10, 45, 0
11, 53520, Note_on_c, 10, 45, 55
11, 53520, Note_on_c, 10, 57, 55
11, 53544, Note_on_c, 10, 57, 0
11, 53544, Note_on_c, 10, 45, 0
11, 53568, Note_on_c, 10, 45, 50
11, 53568, Note_on_c, 10, 57, 50
11, 53592, Note_on_c, 10, 57, 0
11, 53592, Note_on_c, 10, 45, 0
11, 53616, Note_on_c, 10, 45, 50
11, 53616, Note_on_c, 10, 57, 50
11, 53640, Note_on_c, 10, 57, 0
11, 53640, Note_on_c, 10, 45, 0
11, 53664, Note_on_c, 10, 45, 55
11, 53664, Note_on_c, 10, 57, 55
11, 53688, Note_on_c, 10, 57, 0
11, 53688, Note_on_c, 10, 45, 0
11, 53712, Note_on_c, 10, 45, 50
11, 53712, Note_on_c, 10, 57, 50
11, 53736, Note_on_c, 10, 57, 0
11, 53736, Note_on_c, 10, 45, 0
11, 53760, Note_on_c, 10, 45, 50
11, 53760, Note_on_c, 10, 57, 50
11, 53784, Note_on_c, 10, 57, 0
11, 53784, Note_on_c, 10, 45, 0
11, 53808, Note_on_c, 10, 45, 55
11, 53808, Note_on_c, 10, 57, 55
11, 53843, Note_on_c, 10, 57, 0
11, 53843, Note_on_c, 10, 45, 0
11, 53880, Note_on_c, 10, 57, 50
11, 53880, Note_on_c, 10, 69, 50
11, 53892, Note_on_c, 10, 69, 0
11, 53892, Note_on_c, 10, 57, 0
11, 53904, Note_on_c, 10, 57, 50
11, 53904, Note_on_c, 10, 69, 50
11, 53928, Note_on_c, 10, 69, 0
11, 53928, Note_on_c, 10, 57, 0
11, 53952, Note_on_c, 10, 57, 55
11, 53952, Note_on_c, 10, 69, 55
11, 53976, Note_on_c, 10, 69, 0
11, 53976, Note_on_c, 10, 57, 0
11, 54000, Note_on_c, 10, 57, 50
11, 54000, Note_on_c, 10, 69, 50
11, 54024, Note_on_c, 10, 69, 0
11, 54024, Note_on_c, 10, 57, 0
11, 54048, Note_on_c, 10, 57, 50
11, 54048, Note_on_c, 10, 69, 50
11, 54072, Note_on_c, 10, 69, 0
11, 54072, Note_on_c, 10, 57, 0
11, 54096, Note_on_c, 10, 57, 55
11, 54096, Note_on_c, 10, 69, 55
11, 54120, Note_on_c, 10, 69, 0
11, 54120, Note_on_c, 10, 57, 0
11, 54144, Note_on_c, 10, 57, 50
11, 54144, Note_on_c, 10, 69, 50
11, 54168, Note_on_c, 10, 69, 0
11, 54168, Note_on_c, 10, 57, 0
11, 54192, Note_on_c, 10, 57, 50
11, 54192, Note_on_c, 10, 69, 50
11, 54216, Note_on_c, 10, 69, 0
11, 54216, Note_on_c, 10, 57, 0
11, 54240, Note_on_c, 10, 57, 55
11, 54240, Note_on_c, 10, 69, 55
11, 54264, Note_on_c, 10, 69, 0
11, 54264, Note_on_c, 10, 57, 0
11, 54288, Note_on_c, 10, 57, 50
11, 54288, Note_on_c, 10, 69, 50
11, 54312, Note_on_c, 10, 69, 0
11, 54312, Note_on_c, 10, 57, 0
11, 54336, Note_on_c, 10, 57, 50
11, 54336, Note_on_c, 10, 69, 50
11, 54360, Note_on_c, 10, 69, 0
11, 54360, Note_on_c, 10, 57, 0
11, 54384, Note_on_c, 10, 57, 55
11, 54384, Note_on_c, 10, 69, 55
11, 54408, Note_on_c, 10, 69, 0
11, 54408, Note_on_c, 10, 57, 0
11, 54432, Note_on_c, 10, 57, 50
11, 54432, Note_on_c, 10, 69, 50
11, 54456, Note_on_c, 10, 69, 0
11, 54456, Note_on_c, 10, 57, 0
11, 54480, Note_on_c, 10, 57, 50
11, 54480, Note_on_c, 10, 69, 50
11, 54504, Note_on_c, 10, 69, 0
11, 54504, Note_on_c, 10, 57, 0
11, 54528, Note_on_c, 10, 57, 55
11, 54528, Note_on_c, 10, 69, 55
11, 54552, Note_on_c, 10, 69, 0
11, 54552, Note_on_c, 10, 57, 0
11, 54576, Note_on_c, 10, 57, 50
11, 54576, Note_on_c, 10, 69, 50
11, 54600, Note_on_c, 10, 69, 0
11, 54600, Note_on_c, 10, 57, 0
11, 54624, Note_on_c, 10, 57, 50
11, 54624, Note_on_c, 10, 69, 50
11, 54648, Note_on_c, 10, 69, 0
11, 54648, Note_on_c, 10, 57, 0
11, 54672, Note_on_c, 10, 57, 55
11, 54672, Note_on_c, 10, 69, 55
11, 54707, Note_on_c, 10, 69, 0
11, 54707, Note_on_c, 10, 57, 0
11, 54744, Note_on_c, 10, 45, 50
11, 54744, Note_on_c, 10, 57, 50
11, 54756, Note_on_c, 10, 57, 0
11, 54756, Note_on_c, 10, 45, 0
11, 54768, Note_on_c, 10, 45, 50
11, 54768, Note_on_c, 10, 57, 50
11, 54792, Note_on_c, 10, 57, 0
11, 54792, Note_on_c, 10, 45, 0
11, 54816, Note_on_c, 10, 50, 55
11, 54816, Note_on_c, 10, 62, 55
11, 54840, Note_on_c, 10, 62, 0
11, 54840, Note_on_c, 10, 50, 0
11, 54864, Note_on_c, 10, 67, 50
11, 54888, Note_on_c, 10, 67, 0
11, 54912, Note_on_c, 10, 67, 50
11, 54936, Note_on_c, 10, 67, 0
11, 54960, Note_on_c, 10, 67, 55
11, 54984, Note_on_c, 10, 67, 0
11, 55008, Note_on_c, 10, 67, 50
11, 55032, Note_on_c, 10, 67, 0
11, 55056, Note_on_c, 10, 67, 50
11, 55080, Note_on_c, 10, 67, 0
11, 55104, Note_on_c, 10, 67, 55
11, 55128, Note_on_c, 10, 67, 0
11, 55152, Note_on_c, 10, 67, 50
11, 55176, Note_on_c, 10, 67, 0
11, 55200, Note_on_c, 10, 67, 50
11, 55224, Note_on_c, 10, 67, 0
11, 55248, Note_on_c, 10, 67, 55
11, 55272, Note_on_c, 10, 67, 0
11, 55296, Note_on_c, 10, 67, 50
11, 55320, Note_on_c, 10, 67, 0
11, 55344, Note_on_c, 10, 67, 50
11, 55368, Note_on_c, 10, 67, 0
11, 56544, Note_on_c, 10, 62, 60
11, 56579, Note_on_c, 10, 62, 0
11, 56616, Note_on_c, 10, 50, 55
11, 56628, Note_on_c, 10, 50, 0
11, 56640, Note_on_c, 10, 50, 55
11, 56664, Note_on_c, 10, 50, 0
11, 57696, Note_on_c, 10, 62, 63
11, 57731, Note_on_c, 10, 62, 0
11, 57768, Note_on_c, 10, 50, 66
11, 57780, Note_on_c, 10, 50, 0
11, 57792, Note_on_c, 10, 50, 68
11, 57816, Note_on_c, 10, 50, 0
11, 58128, Note_on_c, 10, 57, 83
11, 58163, Note_on_c, 10, 57, 0
11, 58200, Note_on_c, 10, 45, 87
11, 58200, Note_on_c, 10, 57, 87
11, 58212, Note_on_c, 10, 57, 0
11, 58212, Note_on_c, 10, 45, 0
11, 58224, Note_on_c, 10, 45, 88
11, 58224, Note_on_c, 10, 57, 88
11, 58248, Note_on_c, 10, 57, 0
11, 58248, Note_on_c, 10, 45, 0
11, 58272, Note_on_c, 10, 62, 90
11, 58307, Note_on_c, 10, 62, 0
11, 58344, Note_on_c, 10, 50, 93
11, 58356, Note_on_c, 10, 50, 0
11, 58368, Note_on_c, 10, 50, 95
11, 58392, Note_on_c, 10, 50, 0
11, 58560, Note_on_c, 10, 69, 120
11, 58584, Note_on_c, 10, 69, 0
11, 58632, Note_on_c, 10, 57, 110
11, 58644, Note_on_c, 10, 57, 0
11, 58656, Note_on_c, 10, 57, 110
11, 58680, Note_on_c, 10, 57, 0
11, 58704, Note_on_c, 10, 69, 120
11, 58728, Note_on_c, 10, 69, 0
11, 58776, Note_on_c, 10, 57, 110
11, 58788, Note_on_c, 10, 57, 0
11, 58800, Note_on_c, 10, 57, 110
11, 58824, Note_on_c, 10, 57, 0
11, 58848, Note_on_c, 10, 69, 120
11, 58872, Note_on_c, 10, 69, 0
11, 58920, Note_on_c, 10, 57, 110
11, 58932, Note_on_c, 10, 57, 0
11, 58944, Note_on_c, 10, 57, 110
11, 58968, Note_on_c, 10, 57, 0
11, 58992, Note_on_c, 10, 69, 120
11, 59016, Note_on_c, 10, 69, 0
11, 59064, Note_on_c, 10, 57, 110
11, 59076, Note_on_c, 10, 57, 0
11, 59088, Note_on_c, 10, 57, 110
11, 59112, Note_on_c, 10, 57, 0
11, 59136, Note_on_c, 10, 69, 120
11, 59160, Note_on_c, 10, 69, 0
11, 59208, Note_on_c, 10, 57, 110
11, 59220, Note_on_c, 10, 57, 0
11, 59232, Note_on_c, 10, 57, 110
11, 59256, Note_on_c, 10, 57, 0
11, 59280, Note_on_c, 10, 69, 120
11, 59304, Note_on_c, 10, 69, 0
11, 59352, Note_on_c, 10, 57, 110
11, 59364, Note_on_c, 10, 57, 0
11, 59376, Note_on_c, 10, 57, 110
11, 59400, Note_on_c, 10, 57, 0
11, 59424, Note_on_c, 10, 69, 120
11, 59448, Note_on_c, 10, 69, 0
11, 59496, Note_on_c, 10, 57, 110
11, 59508, Note_on_c, 10, 57, 0
11, 59520, Note_on_c, 10, 57, 110
11, 59544, Note_on_c, 10, 57, 0
11, 59568, Note_on_c, 10, 69, 120
11, 59592, Note_on_c, 10, 69, 0
11, 59640, Note_on_c, 10, 57, 110
11, 59652, Note_on_c, 10, 57, 0
11, 59664, Note_on_c, 10, 57, 110
11, 59688, Note_on_c, 10, 57, 0
11, 59712, Note_on_c, 10, 69, 120
11, 59736, Note_on_c, 10, 69, 0
11, 59784, Note_on_c, 10, 57, 110
11, 59796, Note_on_c, 10, 57, 0
11, 59808, Note_on_c, 10, 57, 110
11, 59832, Note_on_c, 10, 57, 0
11, 59856, Note_on_c, 10, 69, 120
11, 59880, Note_on_c, 10, 69, 0
11, 59928, Note_on_c, 10, 57, 110
11, 59940, Note_on_c, 10, 57, 0
11, 59952, Note_on_c, 10, 57, 110
11, 59976, Note_on_c, 10, 57, 0
11, 60000, Note_on_c, 10, 69, 120
11, 60024, Note_on_c, 10, 69, 0
11, 60072, Note_on_c, 10, 57, 110
11, 60084, Note_on_c, 10, 57, 0
11, 60096, Note_on_c, 10, 57, 110
11, 60120, Note_on_c, 10, 57, 0
11, 60144, Note_on_c, 10, 69, 120
11, 60168, Note_on_c, 10, 69, 0
11, 60216, Note_on_c, 10, 57, 110
11, 60228, Note_on_c, 10, 57, 0
11, 60240, Note_on_c, 10, 57, 110
11, 60264, Note_on_c, 10, 57, 0
11, 60288, Note_on_c, 10, 69, 120
11, 60312, Note_on_c, 10, 69, 0
11, 60360, Note_on_c, 10, 57, 110
11, 60372, Note_on_c, 10, 57, 0
11, 60384, Note_on_c, 10, 57, 110
11, 60408, Note_on_c, 10, 57, 0
11, 60432, Note_on_c, 10, 69, 120
11, 60456, Note_on_c, 10, 69, 0
11, 60504, Note_on_c, 10, 57, 110
11, 60516, Note_on_c, 10, 57, 0
11, 60528, Note_on_c, 10, 57, 110
11, 60552, Note_on_c, 10, 57, 0
11, 60576, Note_on_c, 10, 69, 120
11, 60600, Note_on_c, 10, 69, 0
11, 60648, Note_on_c, 10, 57, 110
11, 60660, Note_on_c, 10, 57, 0
11, 60672, Note_on_c, 10, 57, 110
11, 60696, Note_on_c, 10, 57, 0
11, 60720, Note_on_c, 10, 69, 120
11, 60744, Note_on_c, 10, 69, 0
11, 60792, Note_on_c, 10, 57, 110
11, 60804, Note_on_c, 10, 57, 0
11, 60816, Note_on_c, 10, 57, 110
11, 60840, Note_on_c, 10, 57, 0
11, 60864, Note_on_c, 10, 69, 120
11, 60888, Note_on_c, 10, 69, 0
11, 60936, Note_on_c, 10, 57, 110
11, 60948, Note_on_c, 10, 57, 0
11, 60960, Note_on_c, 10, 57, 110
11, 60984, Note_on_c, 10, 57, 0
11, 61008, Note_on_c, 10, 69, 120
11, 61032, Note_on_c, 10, 69, 0
11, 61080, Note_on_c, 10, 57, 110
11, 61092, Note_on_c, 10, 57, 0
11, 61104, Note_on_c, 10, 57, 110
11, 61128, Note_on_c, 10, 57, 0
11, 61152, Note_on_c, 10, 69, 120
11, 61176, Note_on_c, 10, 69, 0
11, 61224, Note_on_c, 10, 57, 110
11, 61236, Note_on_c, 10, 57, 0
11, 61248, Note_on_c, 10, 57, 110
11, 61272, Note_on_c, 10, 57, 0
11, 61296, Note_on_c, 10, 69, 120
11, 61320, Note_on_c, 10, 69, 0
11, 61368, Note_on_c, 10, 57, 110
11, 61380, Note_on_c, 10, 57, 0
11, 61392, Note_on_c, 10, 57, 110
11, 61416, Note_on_c, 10, 57, 0
11, 61440, Note_on_c, 10, 67, 115
11, 61464, Note_on_c, 10, 67, 0
11, 61488, Note_on_c, 10, 67, 110
11, 61512, Note_on_c, 10, 67, 0
11, 61536, Note_on_c, 10, 67, 110
11, 61560, Note_on_c, 10, 67, 0
11, 61584, Note_on_c, 10, 62, 120
11, 61608, Note_on_c, 10, 62, 0
11, 61656, Note_on_c, 10, 50, 110
11, 61668, Note_on_c, 10, 50, 0
11, 61680, Note_on_c, 10, 50, 110
11, 61704, Note_on_c, 10, 50, 0
11, 61728, Note_on_c, 10, 62, 120
11, 61752, Note_on_c, 10, 62, 0
11, 61800, Note_on_c, 10, 50, 110
11, 61812, Note_on_c, 10, 50, 0
11, 61824, Note_on_c, 10, 50, 110
11, 61848, Note_on_c, 10, 50, 0
11, 61872, Note_on_c, 10, 62, 120
11, 61896, Note_on_c, 10, 62, 0
11, 61944, Note_on_c, 10, 50, 110
11, 61956, Note_on_c, 10, 50, 0
11, 61968, Note_on_c, 10, 50, 110
11, 61992, Note_on_c, 10, 50, 0
11, 62016, Note_on_c, 10, 67, 105
11, 62040, Note_on_c, 10, 67, 0
11, 62064, Note_on_c, 10, 67, 100
11, 62088, Note_on_c, 10, 67, 0
11, 62112, Note_on_c, 10, 67, 100
11, 62136, Note_on_c, 10, 67, 0
11, 62160, Note_on_c, 10, 67, 105
11, 62184, Note_on_c, 10, 67, 0
11, 62208, Note_on_c, 10, 67, 100
11, 62232, Note_on_c, 10, 67, 0
11, 62256, Note_on_c, 10, 67, 100
11, 62280, Note_on_c, 10, 67, 0
11, 62304, Note_on_c, 10, 65, 105
11, 62328, Note_on_c, 10, 65, 0
11, 62352, Note_on_c, 10, 65, 100
11, 62376, Note_on_c, 10, 65, 0
11, 62400, Note_on_c, 10, 65, 100
11, 62424, Note_on_c, 10, 65, 0
11, 62448, Note_on_c, 10, 65, 105
11, 62472, Note_on_c, 10, 65, 0
11, 62496, Note_on_c, 10, 65, 100
11, 62520, Note_on_c, 10, 65, 0
11, 62544, Note_on_c, 10, 65, 100
11, 62568, Note_on_c, 10, 65, 0
11, 62592, Note_on_c, 10, 65, 105
11, 62616, Note_on_c, 10, 65, 0
11, 62640, Note_on_c, 10, 65, 100
11, 62664, Note_on_c, 10, 65, 0
11, 62688, Note_on_c, 10, 65, 100
11, 62712, Note_on_c, 10, 65, 0
11, 62736, Note_on_c, 10, 65, 105
11, 62760, Note_on_c, 10, 65, 0
11, 62784, Note_on_c, 10, 65, 100
11, 62808, Note_on_c, 10, 65, 0
11, 62832, Note_on_c, 10, 65, 100
11, 62856, Note_on_c, 10, 65, 0
11, 62880, Note_on_c, 10, 65, 105
11, 62904, Note_on_c, 10, 65, 0
11, 62928, Note_on_c, 10, 65, 100
11, 62952, Note_on_c, 10, 65, 0
11, 62976, Note_on_c, 10, 65, 100
11, 63000, Note_on_c, 10, 65, 0
11, 63024, Note_on_c, 10, 65, 105
11, 63048, Note_on_c, 10, 65, 0
11, 63072, Note_on_c, 10, 65, 100
11, 63096, Note_on_c, 10, 65, 0
11, 63120, Note_on_c, 10, 65, 100
11, 63144, Note_on_c, 10, 65, 0
11, 63168, Note_on_c, 10, 65, 100
11, 63192, Note_on_c, 10, 65, 0
11, 64608, Control_c, 10, 1, 0
11, 64608, Control_c, 10, 11, 60
11, 64608, Note_on_c, 10, 45, 100
11, 64608, Note_on_c, 10, 57, 100
11, 64609, Control_c, 10, 1, 1
11, 64610, Control_c, 10, 1, 2
11, 64612, Control_c, 10, 1, 3
11, 64614, Control_c, 10, 1, 4
11, 64616, Control_c, 10, 1, 5
11, 64619, Control_c, 10, 1, 6
11, 64621, Control_c, 10, 1, 7
11, 64624, Control_c, 10, 1, 8
11, 64627, Control_c, 10, 1, 9
11, 64632, Control_c, 10, 1, 10
11, 64636, Control_c, 10, 1, 11
11, 64642, Control_c, 10, 1, 12
11, 64649, Control_c, 10, 1, 13
11, 64659, Control_c, 10, 1, 14
11, 64677, Control_c, 10, 1, 15
11, 64752, Control_c, 10, 11, 60
11, 64767, Control_c, 10, 11, 61
11, 64781, Control_c, 10, 11, 62
11, 64796, Control_c, 10, 11, 63
11, 64810, Control_c, 10, 11, 64
11, 64824, Control_c, 10, 11, 65
11, 64839, Control_c, 10, 11, 66
11, 64853, Control_c, 10, 11, 67
11, 64867, Control_c, 10, 11, 68
11, 64882, Control_c, 10, 11, 69
11, 64896, Control_c, 10, 11, 70
11, 64911, Control_c, 10, 11, 71
11, 64925, Control_c, 10, 11, 72
11, 64939, Control_c, 10, 11, 73
11, 64954, Control_c, 10, 11, 74
11, 64968, Control_c, 10, 11, 75
11, 64982, Control_c, 10, 11, 76
11, 64997, Control_c, 10, 11, 77
11, 65011, Control_c, 10, 11, 78
11, 65026, Control_c, 10, 11, 79
11, 65040, Control_c, 10, 11, 80
11, 65054, Control_c, 10, 11, 81
11, 65069, Control_c, 10, 11, 82
11, 65083, Control_c, 10, 11, 83
11, 65097, Control_c, 10, 11, 84
11, 65112, Control_c, 10, 11, 85
11, 65126, Control_c, 10, 11, 86
11, 65141, Control_c, 10, 11, 87
11, 65155, Control_c, 10, 11, 88
11, 65169, Control_c, 10, 11, 89
11, 65184, Control_c, 10, 11, 90
11, 65198, Control_c, 10, 11, 91
11, 65212, Control_c, 10, 11, 92
11, 65227, Control_c, 10, 11, 93
11, 65241, Control_c, 10, 11, 94
11, 65256, Control_c, 10, 11, 95
11, 65270, Control_c, 10, 11, 96
11, 65284, Control_c, 10, 11, 97
11, 65299, Control_c, 10, 11, 98
11, 65313, Control_c, 10, 11, 99
11, 65327, Control_c, 10, 11, 100
11, 65328, Control_c, 10, 11, 100
11, 65339, Control_c, 10, 11, 99
11, 65350, Control_c, 10, 11, 98
11, 65361, Control_c, 10, 11, 97
11, 65372, Control_c, 10, 11, 96
11, 65382, Control_c, 10, 11, 95
11, 65393, Control_c, 10, 11, 94
11, 65404, Control_c, 10, 11, 93
11, 65415, Control_c, 10, 11, 92
11, 65425, Control_c, 10, 11, 91
11, 65436, Control_c, 10, 11, 90
11, 65447, Control_c, 10, 11, 89
11, 65458, Control_c, 10, 11, 88
11, 65469, Control_c, 10, 11, 87
11, 65479, Control_c, 10, 11, 86
11, 65490, Control_c, 10, 11, 85
11, 65501, Control_c, 10, 11, 84
11, 65512, Control_c, 10, 11, 83
11, 65522, Control_c, 10, 11, 82
11, 65533, Control_c, 10, 11, 81
11, 65544, Control_c, 10, 11, 80
11, 65555, Control_c, 10, 11, 79
11, 65566, Control_c, 10, 11, 78
11, 65576, Control_c, 10, 11, 77
11, 65587, Control_c, 10, 11, 76
11, 65598, Control_c, 10, 11, 75
11, 65609, Control_c, 10, 11, 74
11, 65619, Control_c, 10, 11, 73
11, 65630, Control_c, 10, 11, 72
11, 65641, Control_c, 10, 11, 71
11, 65652, Control_c, 10, 11, 70
11, 65663, Control_c, 10, 11, 69
11, 65673, Control_c, 10, 11, 68
11, 65684, Control_c, 10, 11, 67
11, 65695, Control_c, 10, 11, 66
11, 65706, Control_c, 10, 11, 65
11, 65716, Control_c, 10, 11, 64
11, 65727, Control_c, 10, 11, 63
11, 65738, Control_c, 10, 11, 62
11, 65749, Control_c, 10, 11, 61
11, 65759, Control_c, 10, 11, 60
11, 65760, Note_on_c, 10, 57, 0
11, 65760, Note_on_c, 10, 45, 0
11, 65760, Control_c, 10, 11, 60
11, 65760, Control_c, 10, 1, 0
11, 65760, Note_on_c, 10, 45, 100
11, 65760, Note_on_c, 10, 57, 100
11, 65761, Control_c, 10, 1, 1
11, 65762, Control_c, 10, 1, 2
11, 65764, Control_c, 10, 1, 3
11, 65766, Control_c, 10, 1, 4
11, 65768, Control_c, 10, 1, 5
11, 65771, Control_c, 10, 1, 6
11, 65773, Control_c, 10, 1, 7
11, 65776, Control_c, 10, 1, 8
11, 65778, Control_c, 10, 11, 61
11, 65779, Control_c, 10, 1, 9
11, 65784, Control_c, 10, 1, 10
11, 65788, Control_c, 10, 1, 11
11, 65794, Control_c, 10, 1, 12
11, 65796, Control_c, 10, 11, 62
11, 65801, Control_c, 10, 1, 13
11, 65811, Control_c, 10, 1, 14
11, 65814, Control_c, 10, 11, 63
11, 65829, Control_c, 10, 1, 15
11, 65832, Control_c, 10, 11, 64
11, 65850, Control_c, 10, 11, 65
11, 65868, Control_c, 10, 11, 66
11, 65886, Control_c, 10, 11, 67
11, 65904, Control_c, 10, 11, 68
11, 65922, Control_c, 10, 11, 69
11, 65940, Control_c, 10, 11, 70
11, 65958, Control_c, 10, 11, 71
11, 65976, Control_c, 10, 11, 72
11, 65994, Control_c, 10, 11, 73
11, 66012, Control_c, 10, 11, 74
11, 66030, Control_c, 10, 11, 75
11, 66048, Control_c, 10, 11, 76
11, 66066, Control_c, 10, 11, 77
11, 66084, Control_c, 10, 11, 78
11, 66102, Control_c, 10, 11, 79
11, 66120, Control_c, 10, 11, 80
11, 66138, Control_c, 10, 11, 81
11, 66156, Control_c, 10, 11, 82
11, 66174, Control_c, 10, 11, 83
11, 66192, Control_c, 10, 11, 84
11, 66210, Control_c, 10, 11, 85
11, 66228, Control_c, 10, 11, 86
11, 66246, Control_c, 10, 11, 87
11, 66264, Control_c, 10, 11, 88
11, 66282, Control_c, 10, 11, 89
11, 66300, Control_c, 10, 11, 90
11, 66318, Control_c, 10, 11, 91
11, 66336, Control_c, 10, 11, 92
11, 66354, Control_c, 10, 11, 93
11, 66372, Control_c, 10, 11, 94
11, 66390, Control_c, 10, 11, 95
11, 66408, Control_c, 10, 11, 96
11, 66426, Control_c, 10, 11, 97
11, 66444, Control_c, 10, 11, 98
11, 66462, Control_c, 10, 11, 99
11, 66479, Control_c, 10, 11, 100
11, 66480, Control_c, 10, 11, 100
11, 66491, Control_c, 10, 11, 99
11, 66502, Control_c, 10, 11, 98
11, 66513, Control_c, 10, 11, 97
11, 66524, Control_c, 10, 11, 96
11, 66534, Control_c, 10, 11, 95
11, 66545, Control_c, 10, 11, 94
11, 66556, Control_c, 10, 11, 93
11, 66567, Control_c, 10, 11, 92
11, 66577, Control_c, 10, 11, 91
11, 66588, Control_c, 10, 11, 90
11, 66599, Control_c, 10, 11, 89
11, 66610, Control_c, 10, 11, 88
11, 66621, Control_c, 10, 11, 87
11, 66631, Control_c, 10, 11, 86
11, 66642, Control_c, 10, 11, 85
11, 66653, Control_c, 10, 11, 84
11, 66664, Control_c, 10, 11, 83
11, 66674, Control_c, 10, 11, 82
11, 66685, Control_c, 10, 11, 81
11, 66696, Control_c, 10, 11, 80
11, 66707, Control_c, 10, 11, 79
11, 66718, Control_c, 10, 11, 78
11, 66728, Control_c, 10, 11, 77
11, 66739, Control_c, 10, 11, 76
11, 66750, Control_c, 10, 11, 75
11, 66761, Control_c, 10, 11, 74
11, 66771, Control_c, 10, 11, 73
11, 66782, Control_c, 10, 11, 72
11, 66793, Control_c, 10, 11, 71
11, 66804, Control_c, 10, 11, 70
11, 66815, Control_c, 10, 11, 69
11, 66825, Control_c, 10, 11, 68
11, 66836, Control_c, 10, 11, 67
11, 66847, Control_c, 10, 11, 66
11, 66858, Control_c, 10, 11, 65
11, 66868, Control_c, 10, 11, 64
11, 66879, Control_c, 10, 11, 63
11, 66890, Control_c, 10, 11, 62
11, 66901, Control_c, 10, 11, 61
11, 66909, Note_on_c, 10, 57, 0
11, 66909, Note_on_c, 10, 45, 0
11, 66911, Control_c, 10, 11, 120
11, 66912, Control_c, 10, 1, 0
11, 66912, Note_on_c, 10, 57, 60
11, 66912, Note_on_c, 10, 69, 60
11, 66947, Note_on_c, 10, 69, 0
11, 66947, Note_on_c, 10, 57, 0
11, 66984, Note_on_c, 10, 45, 63
11, 66984, Note_on_c, 10, 57, 63
11, 66996, Note_on_c, 10, 57, 0
11, 66996, Note_on_c, 10, 45, 0
11, 67008, Note_on_c, 10, 45, 64
11, 67008, Note_on_c, 10, 57, 64
11, 67032, Note_on_c, 10, 57, 0
11, 67032, Note_on_c, 10, 45, 0
11, 67056, Note_on_c, 10, 57, 66
11, 67056, Note_on_c, 10, 69, 66
11, 67091, Note_on_c, 10, 69, 0
11, 67091, Note_on_c, 10, 57, 0
11, 67128, Note_on_c, 10, 45, 70
11, 67128, Note_on_c, 10, 57, 70
11, 67140, Note_on_c, 10, 57, 0
11, 67140, Note_on_c, 10, 45, 0
11, 67152, Note_on_c, 10, 45, 71
11, 67152, Note_on_c, 10, 57, 71
11, 67176, Note_on_c, 10, 57, 0
11, 67176, Note_on_c, 10, 45, 0
11, 67272, Note_on_c, 10, 66, 76
11, 67284, Note_on_c, 10, 66, 0
11, 67296, Note_on_c, 10, 66, 78
11, 67320, Note_on_c, 10, 66, 0
11, 67416, Note_on_c, 10, 64, 83
11, 67416, Note_on_c, 10, 67, 83
11, 67428, Note_on_c, 10, 67, 0
11, 67428, Note_on_c, 10, 64, 0
11, 67440, Note_on_c, 10, 64, 84
11, 67440, Note_on_c, 10, 67, 84
11, 67464, Note_on_c, 10, 67, 0
11, 67464, Note_on_c, 10, 64, 0
11, 67560, Note_on_c, 10, 57, 90
11, 67560, Note_on_c, 10, 64, 90
11, 67572, Note_on_c, 10, 64, 0
11, 67572, Note_on_c, 10, 57, 0
11, 67584, Note_on_c, 10, 57, 91
11, 67584, Note_on_c, 10, 64, 91
11, 67608, Note_on_c, 10, 64, 0
11, 67608, Note_on_c, 10, 57, 0
11, 67704, Note_on_c, 10, 62, 97
11, 67704, Note_on_c, 10, 66, 97
11, 67716, Note_on_c, 10, 66, 0
11, 67716, Note_on_c, 10, 62, 0
11, 67728, Note_on_c, 10, 62, 98
11, 67728, Note_on_c, 10, 66, 98
11, 67752, Note_on_c, 10, 66, 0
11, 67752, Note_on_c, 10, 62, 0
11, 67848, Note_on_c, 10, 45, 103
11, 67848, Note_on_c, 10, 57, 103
11, 67860, Note_on_c, 10, 57, 0
11, 67860, Note_on_c, 10, 45, 0
11, 67872, Note_on_c, 10, 45, 105
11, 67872, Note_on_c, 10, 57, 105
11, 67896, Note_on_c, 10, 57, 0
11, 67896, Note_on_c, 10, 45, 0
11, 67992, Note_on_c, 10, 45, 110
11, 67992, Note_on_c, 10, 57, 110
11, 68004, Note_on_c, 10, 57, 0
11, 68004, Note_on_c, 10, 45, 0
11, 68016, Note_on_c, 10, 45, 111
11, 68016, Note_on_c, 10, 57, 111
11, 68040, Note_on_c, 10, 57, 0
11, 68040, Note_on_c, 10, 45, 0
11, 70656, Note_on_c, 10, 67, 116
11, 70691, Note_on_c, 10, 67, 0
11, 70728, Note_on_c, 10, 67, 113
11, 70740, Note_on_c, 10, 67, 0
11, 70752, Note_on_c, 10, 67, 113
11, 70776, Note_on_c, 10, 67, 0
11, 70800, Note_on_c, 10, 67, 116
11, 70824, Note_on_c, 10, 67, 0
11, 70848, Note_on_c, 10, 67, 113
11, 70872, Note_on_c, 10, 67, 0
11, 70896, Note_on_c, 10, 67, 113
11, 70920, Note_on_c, 10, 67, 0
11, 70944, Note_on_c, 10, 60, 113
11, 70968, Note_on_c, 10, 60, 0
11, 71232, Note_on_c, 10, 57, 116
11, 71267, Note_on_c, 10, 57, 0
11, 71304, Note_on_c, 10, 57, 113
11, 71316, Note_on_c, 10, 57, 0
11, 71328, Note_on_c, 10, 57, 113
11, 71352, Note_on_c, 10, 57, 0
11, 71376, Note_on_c, 10, 57, 116
11, 71400, Note_on_c, 10, 57, 0
11, 71424, Note_on_c, 10, 57, 113
11, 71448, Note_on_c, 10, 57, 0
11, 71472, Note_on_c, 10, 57, 113
11, 71496, Note_on_c, 10, 57, 0
11, 71520, Control_c, 10, 1, 0
11, 71520, Note_on_c, 10, 50, 60
11, 71520, Note_on_c, 10, 62, 60
11, 71521, Control_c, 10, 1, 1
11, 71522, Control_c, 10, 1, 2
11, 71524, Control_c, 10, 1, 3
11, 71526, Control_c, 10, 1, 4
11, 71528, Control_c, 10, 1, 5
11, 71531, Control_c, 10, 1, 6
11, 71533, Control_c, 10, 1, 7
11, 71536, Control_c, 10, 1, 8
11, 71539, Control_c, 10, 1, 9
11, 71544, Control_c, 10, 1, 10
11, 71548, Control_c, 10, 1, 11
11, 71554, Control_c, 10, 1, 12
11, 71561, Control_c, 10, 1, 13
11, 71571, Control_c, 10, 1, 14
11, 71589, Control_c, 10, 1, 15
11, 71808, Note_on_c, 10, 67, 60
11, 71809, Note_on_c, 10, 62, 0
11, 71809, Note_on_c, 10, 50, 0
11, 71838, Note_on_c, 10, 67, 0
11, 72096, Control_c, 10, 11, 60
11, 72096, Note_on_c, 10, 67, 100
11, 72101, Control_c, 10, 11, 61
11, 72106, Control_c, 10, 11, 62
11, 72111, Control_c, 10, 11, 63
11, 72116, Control_c, 10, 11, 64
11, 72120, Control_c, 10, 11, 65
11, 72125, Control_c, 10, 11, 66
11, 72130, Control_c, 10, 11, 67
11, 72135, Control_c, 10, 11, 68
11, 72139, Control_c, 10, 11, 69
11, 72144, Control_c, 10, 11, 70
11, 72149, Control_c, 10, 11, 71
11, 72154, Control_c, 10, 11, 72
11, 72158, Control_c, 10, 11, 73
11, 72163, Control_c, 10, 11, 74
11, 72168, Control_c, 10, 11, 75
11, 72173, Control_c, 10, 11, 76
11, 72178, Control_c, 10, 11, 77
11, 72182, Control_c, 10, 11, 78
11, 72187, Control_c, 10, 11, 79
11, 72192, Control_c, 10, 11, 80
11, 72197, Control_c, 10, 11, 81
11, 72201, Control_c, 10, 11, 82
11, 72206, Control_c, 10, 11, 83
11, 72211, Control_c, 10, 11, 84
11, 72216, Control_c, 10, 11, 85
11, 72220, Control_c, 10, 11, 86
11, 72225, Control_c, 10, 11, 87
11, 72230, Control_c, 10, 11, 88
11, 72235, Control_c, 10, 11, 89
11, 72239, Control_c, 10, 11, 90
11, 72240, Control_c, 10, 11, 90
11, 72245, Control_c, 10, 11, 89
11, 72250, Control_c, 10, 11, 88
11, 72255, Control_c, 10, 11, 87
11, 72260, Control_c, 10, 11, 86
11, 72264, Control_c, 10, 11, 85
11, 72269, Control_c, 10, 11, 84
11, 72274, Control_c, 10, 11, 83
11, 72279, Control_c, 10, 11, 82
11, 72283, Control_c, 10, 11, 81
11, 72288, Note_on_c, 10, 67, 0
11, 72288, Note_on_c, 10, 57, 100
11, 72288, Note_on_c, 10, 69, 100
11, 72288, Control_c, 10, 11, 80
11, 72293, Control_c, 10, 11, 79
11, 72298, Control_c, 10, 11, 78
11, 72302, Control_c, 10, 11, 77
11, 72307, Control_c, 10, 11, 76
11, 72312, Control_c, 10, 11, 75
11, 72317, Control_c, 10, 11, 74
11, 72322, Control_c, 10, 11, 73
11, 72326, Control_c, 10, 11, 72
11, 72331, Control_c, 10, 11, 71
11, 72336, Note_on_c, 10, 69, 0
11, 72336, Note_on_c, 10, 57, 0
11, 72336, Note_on_c, 10, 57, 100
11, 72336, Control_c, 10, 11, 70
11, 72341, Control_c, 10, 11, 69
11, 72345, Control_c, 10, 11, 68
11, 72350, Control_c, 10, 11, 67
11, 72355, Control_c, 10, 11, 66
11, 72360, Control_c, 10, 11, 65
11, 72364, Control_c, 10, 11, 64
11, 72369, Control_c, 10, 11, 63
11, 72374, Control_c, 10, 11, 62
11, 72379, Control_c, 10, 11, 61
11, 72383, Control_c, 10, 11, 60
11, 72384, Note_on_c, 10, 57, 0
11, 72758, Control_c, 10, 11, 99
11, 72768, Control_c, 10, 1, 0
11, 72768, Note_on_c, 10, 67, 100
11, 72768, Control_c, 10, 11, 100
11, 72769, Control_c, 10, 1, 2
11, 72770, Control_c, 10, 1, 3
11, 72771, Control_c, 10, 1, 4
11, 72772, Control_c, 10, 1, 6
11, 72774, Control_c, 10, 1, 7
11, 72775, Control_c, 10, 1, 8
11, 72776, Control_c, 10, 1, 9
11, 72777, Control_c, 10, 11, 101
11, 72778, Control_c, 10, 1, 10
11, 72779, Control_c, 10, 1, 11
11, 72782, Control_c, 10, 1, 12
11, 72784, Control_c, 10, 1, 13
11, 72787, Control_c, 10, 11, 102
11, 72788, Control_c, 10, 1, 14
11, 72795, Control_c, 10, 1, 15
11, 72797, Control_c, 10, 11, 103
11, 72806, Control_c, 10, 11, 104
11, 72816, Control_c, 10, 11, 105
11, 72825, Control_c, 10, 11, 106
11, 72835, Control_c, 10, 11, 107
11, 72840, Note_on_c, 10, 67, 0
11, 72844, Control_c, 10, 11, 108
11, 72854, Control_c, 10, 1, 0
11, 72854, Control_c, 10, 11, 109
11, 72864, Note_on_c, 10, 57, 100
11, 72864, Note_on_c, 10, 69, 100
11, 72864, Control_c, 10, 11, 110
11, 72873, Control_c, 10, 11, 111
11, 72883, Control_c, 10, 11, 112
11, 72888, Note_on_c, 10, 69, 0
11, 72888, Note_on_c, 10, 57, 0
11, 72892, Control_c, 10, 11, 113
11, 72902, Control_c, 10, 11, 114
11, 72912, Note_on_c, 10, 57, 100
11, 72912, Note_on_c, 10, 69, 100
11, 72912, Control_c, 10, 11, 115
11, 72921, Control_c, 10, 11, 116
11, 72931, Control_c, 10, 11, 117
11, 72936, Note_on_c, 10, 69, 0
11, 72936, Note_on_c, 10, 57, 0
11, 72940, Control_c, 10, 11, 118
11, 72950, Control_c, 10, 11, 119
11, 72959, Control_c, 10, 11, 120
11, 72960, Note_on_c, 10, 57, 105
11, 72960, Note_on_c, 10, 69, 105
11, 72984, Note_on_c, 10, 69, 0
11, 72984, Note_on_c, 10, 57, 0
11, 73008, Note_on_c, 10, 57, 100
11, 73008, Note_on_c, 10, 69, 100
11, 73032, Note_on_c, 10, 69, 0
11, 73032, Note_on_c, 10, 57, 0
11, 73056, Note_on_c, 10, 57, 100
11, 73056, Note_on_c, 10, 69, 100
11, 73080, Note_on_c, 10, 69, 0
11, 73080, Note_on_c, 10, 57, 0
11, 73104, Note_on_c, 10, 57, 105
11, 73104, Note_on_c, 10, 69, 105
11, 73128, Note_on_c, 10, 69, 0
11, 73128, Note_on_c, 10, 57, 0
11, 73152, Note_on_c, 10, 57, 100
11, 73152, Note_on_c, 10, 69, 100
11, 73176, Note_on_c, 10, 69, 0
11, 73176, Note_on_c, 10, 57, 0
11, 73200, Note_on_c, 10, 57, 100
11, 73200, Note_on_c, 10, 69, 100
11, 73224, Note_on_c, 10, 69, 0
11, 73224, Note_on_c, 10, 57, 0
11, 73248, Note_on_c, 10, 57, 105
11, 73248, Note_on_c, 10, 69, 105
11, 73272, Note_on_c, 10, 69, 0
11, 73272, Note_on_c, 10, 57, 0
11, 73296, Note_on_c, 10, 50, 100
11, 73296, Note_on_c, 10, 62, 100
11, 73320, Note_on_c, 10, 62, 0
11, 73320, Note_on_c, 10, 50, 0
11, 73344, Note_on_c, 10, 50, 100
11, 73344, Note_on_c, 10, 62, 100
11, 73368, Note_on_c, 10, 62, 0
11, 73368, Note_on_c, 10, 50, 0
11, 73392, Note_on_c, 10, 50, 105
11, 73392, Note_on_c, 10, 62, 105
11, 73416, Note_on_c, 10, 62, 0
11, 73416, Note_on_c, 10, 50, 0
11, 73440, Note_on_c, 10, 45, 100
11, 73440, Note_on_c, 10, 57, 100
11, 73464, Note_on_c, 10, 57, 0
11, 73464, Note_on_c, 10, 45, 0
11, 73488, Note_on_c, 10, 57, 100
11, 73488, Note_on_c, 10, 69, 100
11, 73512, Note_on_c, 10, 69, 0
11, 73512, Note_on_c, 10, 57, 0
11, 73536, Note_on_c, 10, 57, 105
11, 73536, Note_on_c, 10, 69, 105
11, 73560, Note_on_c, 10, 69, 0
11, 73560, Note_on_c, 10, 57, 0
11, 73584, Note_on_c, 10, 57, 100
11, 73584, Note_on_c, 10, 69, 100
11, 73608, Note_on_c, 10, 69, 0
11, 73608, Note_on_c, 10, 57, 0
11, 73632, Note_on_c, 10, 57, 100
11, 73632, Note_on_c, 10, 69, 100
11, 73656, Note_on_c, 10, 69, 0
11, 73656, Note_on_c, 10, 57, 0
11, 73680, Note_on_c, 10, 57, 105
11, 73680, Note_on_c, 10, 69, 105
11, 73704, Note_on_c, 10, 69, 0
11, 73704, Note_on_c, 10, 57, 0
11, 73728, Note_on_c, 10, 57, 100
11, 73728, Note_on_c, 10, 69, 100
11, 73752, Note_on_c, 10, 69, 0
11, 73752, Note_on_c, 10, 57, 0
11, 73776, Note_on_c, 10, 57, 100
11, 73776, Note_on_c, 10, 69, 100
11, 73800, Note_on_c, 10, 69, 0
11, 73800, Note_on_c, 10, 57, 0
11, 73824, Note_on_c, 10, 57, 105
11, 73824, Note_on_c, 10, 69, 105
11, 73848, Note_on_c, 10, 69, 0
11, 73848, Note_on_c, 10, 57, 0
11, 73872, Note_on_c, 10, 57, 100
11, 73872, Note_on_c, 10, 69, 100
11, 73896, Note_on_c, 10, 69, 0
11, 73896, Note_on_c, 10, 57, 0
11, 73920, Note_on_c, 10, 57, 100
11, 73920, Note_on_c, 10, 69, 100
11, 73944, Note_on_c, 10, 69, 0
11, 73944, Note_on_c, 10, 57, 0
11, 73968, Note_on_c, 10, 57, 105
11, 73968, Note_on_c, 10, 69, 105
11, 73992, Note_on_c, 10, 69, 0
11, 73992, Note_on_c, 10, 57, 0
11, 74016, Note_on_c, 10, 57, 100
11, 74016, Note_on_c, 10, 69, 100
11, 74040, Note_on_c, 10, 69, 0
11, 74040, Note_on_c, 10, 57, 0
11, 74064, Note_on_c, 10, 57, 100
11, 74064, Note_on_c, 10, 69, 100
11, 74088, Note_on_c, 10, 69, 0
11, 74088, Note_on_c, 10, 57, 0
11, 74112, Note_on_c, 10, 57, 105
11, 74112, Note_on_c, 10, 69, 105
11, 74136, Note_on_c, 10, 69, 0
11, 74136, Note_on_c, 10, 57, 0
11, 74160, Note_on_c, 10, 57, 100
11, 74160, Note_on_c, 10, 69, 100
11, 74184, Note_on_c, 10, 69, 0
11, 74184, Note_on_c, 10, 57, 0
11, 74208, Note_on_c, 10, 57, 100
11, 74208, Note_on_c, 10, 69, 100
11, 74232, Note_on_c, 10, 69, 0
11, 74232, Note_on_c, 10, 57, 0
11, 74256, Note_on_c, 10, 57, 105
11, 74256, Note_on_c, 10, 69, 105
11, 74280, Note_on_c, 10, 69, 0
11, 74280, Note_on_c, 10, 57, 0
11, 74304, Note_on_c, 10, 57, 100
11, 74304, Note_on_c, 10, 69, 100
11, 74328, Note_on_c, 10, 69, 0
11, 74328, Note_on_c, 10, 57, 0
11, 74352, Note_on_c, 10, 57, 100
11, 74352, Note_on_c, 10, 69, 100
11, 74376, Note_on_c, 10, 69, 0
11, 74376, Note_on_c, 10, 57, 0
11, 74400, Note_on_c, 10, 57, 105
11, 74400, Note_on_c, 10, 69, 105
11, 74424, Note_on_c, 10, 69, 0
11, 74424, Note_on_c, 10, 57, 0
11, 74448, Note_on_c, 10, 57, 100
11, 74448, Note_on_c, 10, 69, 100
11, 74472, Note_on_c, 10, 69, 0
11, 74472, Note_on_c, 10, 57, 0
11, 74496, Note_on_c, 10, 57, 100
11, 74496, Note_on_c, 10, 69, 100
11, 74520, Note_on_c, 10, 69, 0
11, 74520, Note_on_c, 10, 57, 0
11, 74544, Note_on_c, 10, 57, 105
11, 74544, Note_on_c, 10, 69, 105
11, 74568, Note_on_c, 10, 69, 0
11, 74568, Note_on_c, 10, 57, 0
11, 74592, Note_on_c, 10, 57, 100
11, 74592, Note_on_c, 10, 69, 100
11, 74616, Note_on_c, 10, 69, 0
11, 74616, Note_on_c, 10, 57, 0
11, 74640, Note_on_c, 10, 57, 100
11, 74640, Note_on_c, 10, 69, 100
11, 74664, Note_on_c, 10, 69, 0
11, 74664, Note_on_c, 10, 57, 0
11, 75264, Note_on_c, 10, 50, 55
11, 75264, Note_on_c, 10, 62, 55
11, 75299, Note_on_c, 10, 62, 0
11, 75299, Note_on_c, 10, 50, 0
11, 75336, Note_on_c, 10, 50, 50
11, 75336, Note_on_c, 10, 62, 50
11, 75348, Note_on_c, 10, 62, 0
11, 75348, Note_on_c, 10, 50, 0
11, 75360, Note_on_c, 10, 50, 50
11, 75360, Note_on_c, 10, 62, 50
11, 75384, Note_on_c, 10, 62, 0
11, 75384, Note_on_c, 10, 50, 0
11, 75408, Note_on_c, 10, 50, 50
11, 75408, Note_on_c, 10, 62, 50
11, 75432, Note_on_c, 10, 62, 0
11, 75432, Note_on_c, 10, 50, 0
11, 75696, Note_on_c, 10, 50, 55
11, 75696, Note_on_c, 10, 62, 55
11, 75731, Note_on_c, 10, 62, 0
11, 75731, Note_on_c, 10, 50, 0
11, 75768, Note_on_c, 10, 50, 50
11, 75768, Note_on_c, 10, 62, 50
11, 75780, Note_on_c, 10, 62, 0
11, 75780, Note_on_c, 10, 50, 0
11, 75792, Note_on_c, 10, 50, 50
11, 75792, Note_on_c, 10, 62, 50
11, 75816, Note_on_c, 10, 62, 0
11, 75816, Note_on_c, 10, 50, 0
11, 75840, Note_on_c, 10, 50, 50
11, 75840, Note_on_c, 10, 62, 50
11, 75864, Note_on_c, 10, 62, 0
11, 75864, Note_on_c, 10, 50, 0
11, 76416, Note_on_c, 10, 50, 55
11, 76416, Note_on_c, 10, 62, 55
11, 76451, Note_on_c, 10, 62, 0
11, 76451, Note_on_c, 10, 50, 0
11, 76488, Note_on_c, 10, 50, 50
11, 76488, Note_on_c, 10, 62, 50
11, 76500, Note_on_c, 10, 62, 0
11, 76500, Note_on_c, 10, 50, 0
11, 76512, Note_on_c, 10, 50, 50
11, 76512, Note_on_c, 10, 62, 50
11, 76536, Note_on_c, 10, 62, 0
11, 76536, Note_on_c, 10, 50, 0
11, 76560, Note_on_c, 10, 50, 50
11, 76560, Note_on_c, 10, 62, 50
11, 76584, Note_on_c, 10, 62, 0
11, 76584, Note_on_c, 10, 50, 0
11, 76704, Note_on_c, 10, 50, 55
11, 76704, Note_on_c, 10, 62, 55
11, 76739, Note_on_c, 10, 62, 0
11, 76739, Note_on_c, 10, 50, 0
11, 76776, Note_on_c, 10, 50, 50
11, 76776, Note_on_c, 10, 62, 50
11, 76788, Note_on_c, 10, 62, 0
11, 76788, Note_on_c, 10, 50, 0
11, 76800, Note_on_c, 10, 50, 50
11, 76800, Note_on_c, 10, 62, 50
11, 76824, Note_on_c, 10, 62, 0
11, 76824, Note_on_c, 10, 50, 0
11, 76848, Note_on_c, 10, 50, 50
11, 76848, Note_on_c, 10, 62, 50
11, 76872, Note_on_c, 10, 62, 0
11, 76872, Note_on_c, 10, 50, 0
11, 76992, Note_on_c, 10, 50, 55
11, 76992, Note_on_c, 10, 62, 55
11, 77027, Note_on_c, 10, 62, 0
11, 77027, Note_on_c, 10, 50, 0
11, 77064, Note_on_c, 10, 50, 50
11, 77064, Note_on_c, 10, 62, 50
11, 77076, Note_on_c, 10, 62, 0
11, 77076, Note_on_c, 10, 50, 0
11, 77088, Note_on_c, 10, 50, 50
11, 77088, Note_on_c, 10, 62, 50
11, 77112, Note_on_c, 10, 62, 0
11, 77112, Note_on_c, 10, 50, 0
11, 77136, Note_on_c, 10, 50, 50
11, 77136, Note_on_c, 10, 62, 50
11, 77160, Note_on_c, 10, 62, 0
11, 77160, Note_on_c, 10, 50, 0
11, 77280, Note_on_c, 10, 65, 55
11, 77315, Note_on_c, 10, 65, 0
11, 77352, Note_on_c, 10, 65, 50
11, 77364, Note_on_c, 10, 65, 0
11, 77376, Note_on_c, 10, 65, 50
11, 77400, Note_on_c, 10, 65, 0
11, 77424, Note_on_c, 10, 67, 50
11, 77448, Note_on_c, 10, 67, 0
11, 79008, Note_on_c, 10, 54, 76
11, 79008, Note_on_c, 10, 66, 76
11, 79043, Note_on_c, 10, 66, 0
11, 79043, Note_on_c, 10, 54, 0
11, 79080, Note_on_c, 10, 54, 78
11, 79080, Note_on_c, 10, 66, 78
11, 79092, Note_on_c, 10, 66, 0
11, 79092, Note_on_c, 10, 54, 0
11, 79104, Note_on_c, 10, 54, 78
11, 79104, Note_on_c, 10, 66, 78
11, 79128, Note_on_c, 10, 66, 0
11, 79128, Note_on_c, 10, 54, 0
11, 79152, Note_on_c, 10, 54, 78
11, 79152, Note_on_c, 10, 66, 78
11, 79176, Note_on_c, 10, 66, 0
11, 79176, Note_on_c, 10, 54, 0
11, 79584, Note_on_c, 10, 64, 88
11, 79619, Note_on_c, 10, 64, 0
11, 79656, Note_on_c, 10, 64, 89
11, 79668, Note_on_c, 10, 64, 0
11, 79680, Note_on_c, 10, 64, 90
11, 79704, Note_on_c, 10, 64, 0
11, 79728, Note_on_c, 10, 64, 90
11, 79752, Note_on_c, 10, 64, 0
11, 79872, Note_on_c, 10, 57, 105
11, 79872, Note_on_c, 10, 69, 105
11, 79907, Note_on_c, 10, 69, 0
11, 79907, Note_on_c, 10, 57, 0
11, 79944, Note_on_c, 10, 45, 100
11, 79944, Note_on_c, 10, 57, 100
11, 79956, Note_on_c, 10, 57, 0
11, 79956, Note_on_c, 10, 45, 0
11, 79968, Note_on_c, 10, 45, 100
11, 79968, Note_on_c, 10, 57, 100
11, 79992, Note_on_c, 10, 57, 0
11, 79992, Note_on_c, 10, 45, 0
11, 86112, Note_on_c, 10, 62, 55
11, 86147, Note_on_c, 10, 62, 0
11, 86184, Note_on_c, 10, 50, 50
11, 86196, Note_on_c, 10, 50, 0
11, 86208, Note_on_c, 10, 50, 50
11, 86232, Note_on_c, 10, 50, 0
11, 86544, Note_on_c, 10, 57, 55
11, 86544, Note_on_c, 10, 69, 55
11, 86579, Note_on_c, 10, 69, 0
11, 86579, Note_on_c, 10, 57, 0
11, 86616, Note_on_c, 10, 45, 50
11, 86616, Note_on_c, 10, 57, 50
11, 86628, Note_on_c, 10, 57, 0
11, 86628, Note_on_c, 10, 45, 0
11, 86640, Note_on_c, 10, 45, 50
11, 86640, Note_on_c, 10, 57, 50
11, 86664, Note_on_c, 10, 57, 0
11, 86664, Note_on_c, 10, 45, 0
11, 86976, Note_on_c, 10, 57, 55
11, 86976, Note_on_c, 10, 69, 55
11, 87011, Note_on_c, 10, 69, 0
11, 87011, Note_on_c, 10, 57, 0
11, 87048, Note_on_c, 10, 45, 50
11, 87048, Note_on_c, 10, 57, 50
11, 87060, Note_on_c, 10, 57, 0
11, 87060, Note_on_c, 10, 45, 0
11, 87072, Note_on_c, 10, 45, 50
11, 87072, Note_on_c, 10, 57, 50
11, 87096, Note_on_c, 10, 57, 0
11, 87096, Note_on_c, 10, 45, 0
11, 87408, Note_on_c, 10, 57, 55
11, 87408, Note_on_c, 10, 69, 55
11, 87443, Note_on_c, 10, 69, 0
11, 87443, Note_on_c, 10, 57, 0
11, 87480, Note_on_c, 10, 45, 50
11, 87480, Note_on_c, 10, 57, 50
11, 87492, Note_on_c, 10, 57, 0
11, 87492, Note_on_c, 10, 45, 0
11, 87504, Note_on_c, 10, 45, 50
11, 87504, Note_on_c, 10, 57, 50
11, 87528, Note_on_c, 10, 57, 0
11, 87528, Note_on_c, 10, 45, 0
11, 87696, Note_on_c, 10, 57, 55
11, 87696, Note_on_c, 10, 69, 55
11, 87720, Note_on_c, 10, 69, 0
11, 87720, Note_on_c, 10, 57, 0
11, 87744, Note_on_c, 10, 57, 50
11, 87744, Note_on_c, 10, 69, 50
11, 87768, Note_on_c, 10, 69, 0
11, 87768, Note_on_c, 10, 57, 0
11, 87792, Note_on_c, 10, 57, 50
11, 87792, Note_on_c, 10, 69, 50
11, 87816, Note_on_c, 10, 69, 0
11, 87816, Note_on_c, 10, 57, 0
11, 87840, Note_on_c, 10, 57, 55
11, 87840, Note_on_c, 10, 69, 55
11, 87864, Note_on_c, 10, 69, 0
11, 87864, Note_on_c, 10, 57, 0
11, 87888, Note_on_c, 10, 57, 50
11, 87888, Note_on_c, 10, 69, 50
11, 87912, Note_on_c, 10, 69, 0
11, 87912, Note_on_c, 10, 57, 0
11, 87936, Note_on_c, 10, 57, 50
11, 87936, Note_on_c, 10, 69, 50
11, 87960, Note_on_c, 10, 69, 0
11, 87960, Note_on_c, 10, 57, 0
11, 87984, Note_on_c, 10, 57, 55
11, 87984, Note_on_c, 10, 69, 55
11, 88008, Note_on_c, 10, 69, 0
11, 88008, Note_on_c, 10, 57, 0
11, 88032, Note_on_c, 10, 57, 50
11, 88032, Note_on_c, 10, 69, 50
11, 88056, Note_on_c, 10, 69, 0
11, 88056, Note_on_c, 10, 57, 0
11, 88080, Note_on_c, 10, 57, 50
11, 88080, Note_on_c, 10, 69, 50
11, 88104, Note_on_c, 10, 69, 0
11, 88104, Note_on_c, 10, 57, 0
11, 88128, Note_on_c, 10, 57, 55
11, 88128, Note_on_c, 10, 69, 55
11, 88163, Note_on_c, 10, 69, 0
11, 88163, Note_on_c, 10, 57, 0
11, 88200, Note_on_c, 10, 45, 50
11, 88200, Note_on_c, 10, 57, 50
11, 88212, Note_on_c, 10, 57, 0
11, 88212, Note_on_c, 10, 45, 0
11, 88224, Note_on_c, 10, 45, 50
11, 88224, Note_on_c, 10, 57, 50
11, 88248, Note_on_c, 10, 57, 0
11, 88248, Note_on_c, 10, 45, 0
11, 88272, Note_on_c, 10, 45, 55
11, 88272, Note_on_c, 10, 57, 55
11, 88296, Note_on_c, 10, 57, 0
11, 88296, Note_on_c, 10, 45, 0
11, 88320, Note_on_c, 10, 45, 50
11, 88320, Note_on_c, 10, 57, 50
11, 88344, Note_on_c, 10, 57, 0
11, 88344, Note_on_c, 10, 45, 0
11, 88368, Note_on_c, 10, 45, 50
11, 88368, Note_on_c, 10, 57, 50
11, 88392, Note_on_c, 10, 57, 0
11, 88392, Note_on_c, 10, 45, 0
11, 88416, Note_on_c, 10, 45, 55
11, 88416, Note_on_c, 10, 57, 55
11, 88440, Note_on_c, 10, 57, 0
11, 88440, Note_on_c, 10, 45, 0
11, 88464, Note_on_c, 10, 45, 50
11, 88464, Note_on_c, 10, 57, 50
11, 88488, Note_on_c, 10, 57, 0
11, 88488, Note_on_c, 10, 45, 0
11, 88512, Note_on_c, 10, 45, 50
11, 88512, Note_on_c, 10, 57, 50
11, 88536, Note_on_c, 10, 57, 0
11, 88536, Note_on_c, 10, 45, 0
11, 88560, Note_on_c, 10, 45, 55
11, 88560, Note_on_c, 10, 57, 55
11, 88595, Note_on_c, 10, 57, 0
11, 88595, Note_on_c, 10, 45, 0
11, 88632, Note_on_c, 10, 57, 50
11, 88632, Note_on_c, 10, 69, 50
11, 88644, Note_on_c, 10, 69, 0
11, 88644, Note_on_c, 10, 57, 0
11, 88656, Note_on_c, 10, 57, 50
11, 88656, Note_on_c, 10, 69, 50
11, 88680, Note_on_c, 10, 69, 0
11, 88680, Note_on_c, 10, 57, 0
11, 88704, Note_on_c, 10, 57, 55
11, 88704, Note_on_c, 10, 69, 55
11, 88728, Note_on_c, 10, 69, 0
11, 88728, Note_on_c, 10, 57, 0
11, 88752, Note_on_c, 10, 57, 50
11, 88752, Note_on_c, 10, 69, 50
11, 88776, Note_on_c, 10, 69, 0
11, 88776, Note_on_c, 10, 57, 0
11, 88800, Note_on_c, 10, 57, 50
11, 88800, Note_on_c, 10, 69, 50
11, 88824, Note_on_c, 10, 69, 0
11, 88824, Note_on_c, 10, 57, 0
11, 88848, Note_on_c, 10, 57, 55
11, 88848, Note_on_c, 10, 69, 55
11, 88872, Note_on_c, 10, 69, 0
11, 88872, Note_on_c, 10, 57, 0
11, 88896, Note_on_c, 10, 57, 50
11, 88896, Note_on_c, 10, 69, 50
11, 88920, Note_on_c, 10, 69, 0
11, 88920, Note_on_c, 10, 57, 0
11, 88944, Note_on_c, 10, 57, 50
11, 88944, Note_on_c, 10, 69, 50
11, 88968, Note_on_c, 10, 69, 0
11, 88968, Note_on_c, 10, 57, 0
11, 88992, Note_on_c, 10, 57, 55
11, 88992, Note_on_c, 10, 69, 55
11, 89016, Note_on_c, 10, 69, 0
11, 89016, Note_on_c, 10, 57, 0
11, 89040, Note_on_c, 10, 57, 50
11, 89040, Note_on_c, 10, 69, 50
11, 89064, Note_on_c, 10, 69, 0
11, 89064, Note_on_c, 10, 57, 0
11, 89088, Note_on_c, 10, 57, 50
11, 89088, Note_on_c, 10, 69, 50
11, 89112, Note_on_c, 10, 69, 0
11, 89112, Note_on_c, 10, 57, 0
11, 89136, Note_on_c, 10, 57, 55
11, 89136, Note_on_c, 10, 69, 55
11, 89160, Note_on_c, 10, 69, 0
11, 89160, Note_on_c, 10, 57, 0
11, 89184, Note_on_c, 10, 57, 50
11, 89184, Note_on_c, 10, 69, 50
11, 89208, Note_on_c, 10, 69, 0
11, 89208, Note_on_c, 10, 57, 0
11, 89232, Note_on_c, 10, 57, 50
11, 89232, Note_on_c, 10, 69, 50
11, 89256, Note_on_c, 10, 69, 0
11, 89256, Note_on_c, 10, 57, 0
11, 89280, Note_on_c, 10, 57, 55
11, 89280, Note_on_c, 10, 69, 55
11, 89304, Note_on_c, 10, 69, 0
11, 89304, Note_on_c, 10, 57, 0
11, 89328, Note_on_c, 10, 57, 50
11, 89328, Note_on_c, 10, 69, 50
11, 89352, Note_on_c, 10, 69, 0
11, 89352, Note_on_c, 10, 57, 0
11, 89376, Note_on_c, 10, 57, 50
11, 89376, Note_on_c, 10, 69, 50
11, 89400, Note_on_c, 10, 69, 0
11, 89400, Note_on_c, 10, 57, 0
11, 89424, Note_on_c, 10, 57, 55
11, 89424, Note_on_c, 10, 69, 55
11, 89459, Note_on_c, 10, 69, 0
11, 89459, Note_on_c, 10, 57, 0
11, 89496, Note_on_c, 10, 45, 50
11, 89496, Note_on_c, 10, 57, 50
11, 89508, Note_on_c, 10, 57, 0
11, 89508, Note_on_c, 10, 45, 0
11, 89520, Note_on_c, 10, 45, 50
11, 89520, Note_on_c, 10, 57, 50
11, 89544, Note_on_c, 10, 57, 0
11, 89544, Note_on_c, 10, 45, 0
11, 89568, Note_on_c, 10, 50, 55
11, 89568, Note_on_c, 10, 62, 55
11, 89592, Note_on_c, 10, 62, 0
11, 89592, Note_on_c, 10, 50, 0
11, 89616, Note_on_c, 10, 67, 50
11, 89640, Note_on_c, 10, 67, 0
11, 89664, Note_on_c, 10, 67, 50
11, 89688, Note_on_c, 10, 67, 0
11, 89712, Note_on_c, 10, 67, 55
11, 89736, Note_on_c, 10, 67, 0
11, 89760, Note_on_c, 10, 67, 50
11, 89784, Note_on_c, 10, 67, 0
11, 89808, Note_on_c, 10, 67, 50
11, 89832, Note_on_c, 10, 67, 0
11, 89856, Note_on_c, 10, 67, 55
11, 89880, Note_on_c, 10, 67, 0
11, 89904, Note_on_c, 10, 67, 50
11, 89928, Note_on_c, 10, 67, 0
11, 89952, Note_on_c, 10, 67, 50
11, 89976, Note_on_c, 10, 67, 0
11, 90000, Note_on_c, 10, 67, 55
11, 90024, Note_on_c, 10, 67, 0
11, 90048, Note_on_c, 10, 67, 50
11, 90072, Note_on_c, 10, 67, 0
11, 90096, Note_on_c, 10, 67, 50
11, 90120, Note_on_c, 10, 67, 0
11, 91296, Note_on_c, 10, 62, 60
11, 91331, Note_on_c, 10, 62, 0
11, 91368, Note_on_c, 10, 50, 55
11, 91380, Note_on_c, 10, 50, 0
11, 91392, Note_on_c, 10, 50, 55
11, 91416, Note_on_c, 10, 50, 0
11, 92448, Note_on_c, 10, 62, 63
11, 92483, Note_on_c, 10, 62, 0
11, 92520, Note_on_c, 10, 50, 66
11, 92532, Note_on_c, 10, 50, 0
11, 92544, Note_on_c, 10, 50, 68
11, 92568, Note_on_c, 10, 50, 0
11, 92880, Note_on_c, 10, 57, 83
11, 92915, Note_on_c, 10, 57, 0
11, 92952, Note_on_c, 10, 45, 87
11, 92952, Note_on_c, 10, 57, 87
11, 92964, Note_on_c, 10, 57, 0
11, 92964, Note_on_c, 10, 45, 0
11, 92976, Note_on_c, 10, 45, 88
11, 92976, Note_on_c, 10, 57, 88
11, 93000, Note_on_c, 10, 57, 0
11, 93000, Note_on_c, 10, 45, 0
11, 93024, Note_on_c, 10, 62, 90
11, 93059, Note_on_c, 10, 62, 0
11, 93096, Note_on_c, 10, 50, 93
11, 93108, Note_on_c, 10, 50, 0
11, 93120, Note_on_c, 10, 50, 95
11, 93144, Note_on_c, 10, 50, 0
11, 93312, Note_on_c, 10, 69, 120
11, 93336, Note_on_c, 10, 69, 0
11, 93384, Note_on_c, 10, 57, 110
11, 93396, Note_on_c, 10, 57, 0
11, 93408, Note_on_c, 10, 57, 110
11, 93432, Note_on_c, 10, 57, 0
11, 93456, Note_on_c, 10, 69, 120
11, 93480, Note_on_c, 10, 69, 0
11, 93528, Note_on_c, 10, 57, 110
11, 93540, Note_on_c, 10, 57, 0
11, 93552, Note_on_c, 10, 57, 110
11, 93576, Note_on_c, 10, 57, 0
11, 93600, Note_on_c, 10, 69, 120
11, 93624, Note_on_c, 10, 69, 0
11, 93672, Note_on_c, 10, 57, 110
11, 93684, Note_on_c, 10, 57, 0
11, 93696, Note_on_c, 10, 57, 110
11, 93720, Note_on_c, 10, 57, 0
11, 93744, Note_on_c, 10, 69, 120
11, 93768, Note_on_c, 10, 69, 0
11, 93816, Note_on_c, 10, 57, 110
11, 93828, Note_on_c, 10, 57, 0
11, 93840, Note_on_c, 10, 57, 110
11, 93864, Note_on_c, 10, 57, 0
11, 93888, Note_on_c, 10, 69, 120
11, 93912, Note_on_c, 10, 69, 0
11, 93960, Note_on_c, 10, 57, 110
11, 93972, Note_on_c, 10, 57, 0
11, 93984, Note_on_c, 10, 57, 110
11, 94008, Note_on_c, 10, 57, 0
11, 94032, Note_on_c, 10, 69, 120
11, 94056, Note_on_c, 10, 69, 0
11, 94104, Note_on_c, 10, 57, 110
11, 94116, Note_on_c, 10, 57, 0
11, 94128, Note_on_c, 10, 57, 110
11, 94152, Note_on_c, 10, 57, 0
11, 94176, Note_on_c, 10, 69, 120
11, 94200, Note_on_c, 10, 69, 0
11, 94248, Note_on_c, 10, 57, 110
11, 94260, Note_on_c, 10, 57, 0
11, 94272, Note_on_c, 10, 57, 110
11, 94296, Note_on_c, 10, 57, 0
11, 94320, Note_on_c, 10, 69, 120
11, 94344, Note_on_c, 10, 69, 0
11, 94392, Note_on_c, 10, 57, 110
11, 94404, Note_on_c, 10, 57, 0
11, 94416, Note_on_c, 10, 57, 110
11, 94440, Note_on_c, 10, 57, 0
11, 94464, Note_on_c, 10, 69, 120
11, 94488, Note_on_c, 10, 69, 0
11, 94536, Note_on_c, 10, 57, 110
11, 94548, Note_on_c, 10, 57, 0
11, 94560, Note_on_c, 10, 57, 110
11, 94584, Note_on_c, 10, 57, 0
11, 94608, Note_on_c, 10, 69, 120
11, 94632, Note_on_c, 10, 69, 0
11, 94680, Note_on_c, 10, 57, 110
11, 94692, Note_on_c, 10, 57, 0
11, 94704, Note_on_c, 10, 57, 110
11, 94728, Note_on_c, 10, 57, 0
11, 94752, Note_on_c, 10, 69, 120
11, 94776, Note_on_c, 10, 69, 0
11, 94824, Note_on_c, 10, 57, 110
11, 94836, Note_on_c, 10, 57, 0
11, 94848, Note_on_c, 10, 57, 110
11, 94872, Note_on_c, 10, 57, 0
11, 94896, Note_on_c, 10, 69, 120
11, 94920, Note_on_c, 10, 69, 0
11, 94968, Note_on_c, 10, 57, 110
11, 94980, Note_on_c, 10, 57, 0
11, 94992, Note_on_c, 10, 57, 110
11, 95016, Note_on_c, 10, 57, 0
11, 95040, Note_on_c, 10, 69, 120
11, 95064, Note_on_c, 10, 69, 0
11, 95112, Note_on_c, 10, 57, 110
11, 95124, Note_on_c, 10, 57, 0
11, 95136, Note_on_c, 10, 57, 110
11, 95160, Note_on_c, 10, 57, 0
11, 95184, Note_on_c, 10, 69, 120
11, 95208, Note_on_c, 10, 69, 0
11, 95256, Note_on_c, 10, 57, 110
11, 95268, Note_on_c, 10, 57, 0
11, 95280, Note_on_c, 10, 57, 110
11, 95304, Note_on_c, 10, 57, 0
11, 95328, Note_on_c, 10, 69, 120
11, 95352, Note_on_c, 10, 69, 0
11, 95400, Note_on_c, 10, 57, 110
11, 95412, Note_on_c, 10, 57, 0
11, 95424, Note_on_c, 10, 57, 110
11, 95448, Note_on_c, 10, 57, 0
11, 95472, Note_on_c, 10, 69, 120
11, 95496, Note_on_c, 10, 69, 0
11, 95544, Note_on_c, 10, 57, 110
11, 95556, Note_on_c, 10, 57, 0
11, 95568, Note_on_c, 10, 57, 110
11, 95592, Note_on_c, 10, 57, 0
11, 95616, Note_on_c, 10, 69, 120
11, 95640, Note_on_c, 10, 69, 0
11, 95688, Note_on_c, 10, 57, 110
11, 95700, Note_on_c, 10, 57, 0
11, 95712, Note_on_c, 10, 57, 110
11, 95736, Note_on_c, 10, 57, 0
11, 95760, Note_on_c, 10, 69, 120
11, 95784, Note_on_c, 10, 69, 0
11, 95832, Note_on_c, 10, 57, 110
11, 95844, Note_on_c, 10, 57, 0
11, 95856, Note_on_c, 10, 57, 110
11, 95880, Note_on_c, 10, 57, 0
11, 95904, Note_on_c, 10, 69, 120
11, 95928, Note_on_c, 10, 69, 0
11, 95976, Note_on_c, 10, 57, 110
11, 95988, Note_on_c, 10, 57, 0
11, 96000, Note_on_c, 10, 57, 110
11, 96024, Note_on_c, 10, 57, 0
11, 96048, Note_on_c, 10, 69, 120
11, 96072, Note_on_c, 10, 69, 0
11, 96120, Note_on_c, 10, 57, 110
11, 96132, Note_on_c, 10, 57, 0
11, 96144, Note_on_c, 10, 57, 110
11, 96168, Note_on_c, 10, 57, 0
11, 96192, Note_on_c, 10, 67, 115
11, 96216, Note_on_c, 10, 67, 0
11, 96240, Note_on_c, 10, 67, 110
11, 96264, Note_on_c, 10, 67, 0
11, 96288, Note_on_c, 10, 67, 110
11, 96312, Note_on_c, 10, 67, 0
11, 96336, Note_on_c, 10, 62, 120
11, 96360, Note_on_c, 10, 62, 0
11, 96408, Note_on_c, 10, 50, 110
11, 96420, Note_on_c, 10, 50, 0
11, 96432, Note_on_c, 10, 50, 110
11, 96456, Note_on_c, 10, 50, 0
11, 96480, Note_on_c, 10, 62, 120
11, 96504, Note_on_c, 10, 62, 0
11, 96552, Note_on_c, 10, 50, 110
11, 96564, Note_on_c, 10, 50, 0
11, 96576, Note_on_c, 10, 50, 110
11, 96600, Note_on_c, 10, 50, 0
11, 96624, Note_on_c, 10, 62, 120
11, 96648, Note_on_c, 10, 62, 0
11, 96696, Note_on_c, 10, 50, 110
11, 96708, Note_on_c, 10, 50, 0
11, 96720, Note_on_c, 10, 50, 110
11, 96744, Note_on_c, 10, 50, 0
11, 96768, Note_on_c, 10, 67, 105
11, 96792, Note_on_c, 10, 67, 0
11, 96816, Note_on_c, 10, 67, 100
11, 96840, Note_on_c, 10, 67, 0
11, 96864, Note_on_c, 10, 67, 100
11, 96888, Note_on_c, 10, 67, 0
11, 96912, Note_on_c, 10, 67, 105
11, 96936, Note_on_c, 10, 67, 0
11, 96960, Note_on_c, 10, 67, 100
11, 96984, Note_on_c, 10, 67, 0
11, 97008, Note_on_c, 10, 67, 100
11, 97032, Note_on_c, 10, 67, 0
11, 97056, Note_on_c, 10, 65, 105
11, 97080, Note_on_c, 10, 65, 0
11, 97104, Note_on_c, 10, 65, 100
11, 97128, Note_on_c, 10, 65, 0
11, 97152, Note_on_c, 10, 65, 100
11, 97176, Note_on_c, 10, 65, 0
11, 97200, Note_on_c, 10, 65, 105
11, 97224, Note_on_c, 10, 65, 0
11, 97248, Note_on_c, 10, 65, 100
11, 97272, Note_on_c, 10, 65, 0
11, 97296, Note_on_c, 10, 65, 100
11, 97320, Note_on_c, 10, 65, 0
11, 97344, Note_on_c, 10, 65, 105
11, 97368, Note_on_c, 10, 65, 0
11, 97392, Note_on_c, 10, 65, 100
11, 97416, Note_on_c, 10, 65, 0
11, 97440, Note_on_c, 10, 65, 100
11, 97464, Note_on_c, 10, 65, 0
11, 97488, Note_on_c, 10, 65, 105
11, 97512, Note_on_c, 10, 65, 0
11, 97536, Note_on_c, 10, 65, 100
11, 97560, Note_on_c, 10, 65, 0
11, 97584, Note_on_c, 10, 65, 100
11, 97608, Note_on_c, 10, 65, 0
11, 97632, Note_on_c, 10, 65, 105
11, 97656, Note_on_c, 10, 65, 0
11, 97680, Note_on_c, 10, 65, 100
11, 97704, Note_on_c, 10, 65, 0
11, 97728, Note_on_c, 10, 65, 100
11, 97752, Note_on_c, 10, 65, 0
11, 97776, Note_on_c, 10, 65, 105
11, 97800, Note_on_c, 10, 65, 0
11, 97824, Note_on_c, 10, 65, 100
11, 97848, Note_on_c, 10, 65, 0
11, 97872, Note_on_c, 10, 65, 100
11, 97896, Note_on_c, 10, 65, 0
11, 97920, Note_on_c, 10, 65, 100
11, 97944, Note_on_c, 10, 65, 0
11, 99360, Control_c, 10, 1, 0
11, 99360, Control_c, 10, 11, 60
11, 99360, Note_on_c, 10, 45, 100
11, 99360, Note_on_c, 10, 57, 100
11, 99361, Control_c, 10, 1, 1
11, 99362, Control_c, 10, 1, 2
11, 99364, Control_c, 10, 1, 3
11, 99366, Control_c, 10, 1, 4
11, 99368, Control_c, 10, 1, 5
11, 99371, Control_c, 10, 1, 6
11, 99373, Control_c, 10, 1, 7
11, 99376, Control_c, 10, 1, 8
11, 99379, Control_c, 10, 1, 9
11, 99384, Control_c, 10, 1, 10
11, 99388, Control_c, 10, 1, 11
11, 99394, Control_c, 10, 1, 12
11, 99401, Control_c, 10, 1, 13
11, 99411, Control_c, 10, 1, 14
11, 99429, Control_c, 10, 1, 15
11, 99504, Control_c, 10, 11, 60
11, 99519, Control_c, 10, 11, 61
11, 99533, Control_c, 10, 11, 62
11, 99548, Control_c, 10, 11, 63
11, 99562, Control_c, 10, 11, 64
11, 99576, Control_c, 10, 11, 65
11, 99591, Control_c, 10, 11, 66
11, 99605, Control_c, 10, 11, 67
11, 99619, Control_c, 10, 11, 68
11, 99634, Control_c, 10, 11, 69
11, 99648, Control_c, 10, 11, 70
11, 99663, Control_c, 10, 11, 71
11, 99677, Control_c, 10, 11, 72
11, 99691, Control_c, 10, 11, 73
11, 99706, Control_c, 10, 11, 74
11, 99720, Control_c, 10, 11, 75
11, 99734, Control_c, 10, 11, 76
11, 99749, Control_c, 10, 11, 77
11, 99763, Control_c, 10, 11, 78
11, 99778, Control_c, 10, 11, 79
11, 99792, Control_c, 10, 11, 80
11, 99806, Control_c, 10, 11, 81
11, 99821, Control_c, 10, 11, 82
11, 99835, Control_c, 10, 11, 83
11, 99849, Control_c, 10, 11, 84
11, 99864, Control_c, 10, 11, 85
11, 99878, Control_c, 10, 11, 86
11, 99893, Control_c, 10, 11, 87
11, 99907, Control_c, 10, 11, 88
11, 99921, Control_c, 10, 11, 89
11, 99936, Control_c, 10, 11, 90
11, 99950, Control_c, 10, 11, 91
11, 99964, Control_c, 10, 11, 92
11, 99979, Control_c, 10, 11, 93
11, 99993, Control_c, 10, 11, 94
11, 100008, Control_c, 10, 11, 95
11, 100022, Control_c, 10, 11, 96
11, 100036, Control_c, 10, 11, 97
11, 100051, Control_c, 10, 11, 98
11, 100065, Control_c, 10, 11, 99
11, 100079, Control_c, 10, 11, 100
11, 100080, Control_c, 10, 11, 100
11, 100091, Control_c, 10, 11, 99
11, 100102, Control_c, 10, 11, 98
11, 100113, Control_c, 10, 11, 97
11, 100124, Control_c, 10, 11, 96
11, 100134, Control_c, 10, 11, 95
11, 100145, Control_c, 10, 11, 94
11, 100156, Control_c, 10, 11, 93
11, 100167, Control_c, 10, 11, 92
11, 100177, Control_c, 10, 11, 91
11, 100188, Control_c, 10, 11, 90
11, 100199, Control_c, 10, 11, 89
11, 100210, Control_c, 10, 11, 88
11, 100221, Control_c, 10, 11, 87
11, 100231, Control_c, 10, 11, 86
11, 100242, Control_c, 10, 11, 85
11, 100253, Control_c, 10, 11, 84
11, 100264, Control_c, 10, 11, 83
11, 100274, Control_c, 10, 11, 82
11, 100285, Control_c, 10, 11, 81
11, 100296, Control_c, 10, 11, 80
11, 100307, Control_c, 10, 11, 79
11, 100318, Control_c, 10, 11, 78
11, 100328, Control_c, 10, 11, 77
11, 100339, Control_c, 10, 11, 76
11, 100350, Control_c, 10, 11, 75
11, 100361, Control_c, 10, 11, 74
11, 100371, Control_c, 10, 11, 73
11, 100382, Control_c, 10, 11, 72
11, 100393, Control_c, 10, 11, 71
11, 100404, Control_c, 10, 11, 70
11, 100415, Control_c, 10, 11, 69
11, 100425, Control_c, 10, 11, 68
11, 100436, Control_c, 10, 11, 67
11, 100447, Control_c, 10, 11, 66
11, 100458, Control_c, 10, 11, 65
11, 100468, Control_c, 10, 11, 64
11, 100479, Control_c, 10, 11, 63
11, 100490, Control_c, 10, 11, 62
11, 100501, Control_c, 10, 11, 61
11, 100511, Control_c, 10, 11, 60
11, 100512, Note_on_c, 10, 57, 0
11, 100512, Note_on_c, 10, 45, 0
11, 100512, Control_c, 10, 11, 60
11, 100512, Control_c, 10, 1, 0
11, 100512, Note_on_c, 10, 45, 100
11, 100512, Note_on_c, 10, 57, 100
11, 100513, Control_c, 10, 1, 1
11, 100514, Control_c, 10, 1, 2
11, 100516, Control_c, 10, 1, 3
11, 100518, Control_c, 10, 1, 4
11, 100520, Control_c, 10, 1, 5
11, 100523, Control_c, 10, 1, 6
11, 100525, Control_c, 10, 1, 7
11, 100528, Control_c, 10, 1, 8
11, 100530, Control_c, 10, 11, 61
11, 100531, Control_c, 10, 1, 9
11, 100536, Control_c, 10, 1, 10
11, 100540, Control_c, 10, 1, 11
11, 100546, Control_c, 10, 1, 12
11, 100548, Control_c, 10, 11, 62
11, 100553, Control_c, 10, 1, 13
11, 100563, Control_c, 10, 1, 14
11, 100566, Control_c, 10, 11, 63
11, 100581, Control_c, 10, 1, 15
11, 100584, Control_c, 10, 11, 64
11, 100602, Control_c, 10, 11, 65
11, 100620, Control_c, 10, 11, 66
11, 100638, Control_c, 10, 11, 67
11, 100656, Control_c, 10, 11, 68
11, 100674, Control_c, 10, 11, 69
11, 100692, Control_c, 10, 11, 70
11, 100710, Control_c, 10, 11, 71
11, 100728, Control_c, 10, 11, 72
11, 100746, Control_c, 10, 11, 73
11, 100764, Control_c, 10, 11, 74
11, 100782, Control_c, 10, 11, 75
11, 100800, Control_c, 10, 11, 76
11, 100818, Control_c, 10, 11, 77
11, 100836, Control_c, 10, 11, 78
11, 100854, Control_c, 10, 11, 79
11, 100872, Control_c, 10, 11, 80
11, 100890, Control_c, 10, 11, 81
11, 100908, Control_c, 10, 11, 82
11, 100926, Control_c, 10, 11, 83
11, 100944, Control_c, 10, 11, 84
11, 100962, Control_c, 10, 11, 85
11, 100980, Control_c, 10, 11, 86
11, 100998, Control_c, 10, 11, 87
11, 101016, Control_c, 10, 11, 88
11, 101034, Control_c, 10, 11, 89
11, 101052, Control_c, 10, 11, 90
11, 101070, Control_c, 10, 11, 91
11, 101088, Control_c, 10, 11, 92
11, 101106, Control_c, 10, 11, 93
11, 101124, Control_c, 10, 11, 94
11, 101142, Control_c, 10, 11, 95
11, 101160, Control_c, 10, 11, 96
11, 101178, Control_c, 10, 11, 97
11, 101196, Control_c, 10, 11, 98
11, 101214, Control_c, 10, 11, 99
11, 101231, Control_c, 10, 11, 100
11, 101232, Control_c, 10, 11, 100
11, 101243, Control_c, 10, 11, 99
11, 101254, Control_c, 10, 11, 98
11, 101265, Control_c, 10, 11, 97
11, 101276, Control_c, 10, 11, 96
11, 101286, Control_c, 10, 11, 95
11, 101297, Control_c, 10, 11, 94
11, 101308, Control_c, 10, 11, 93
11, 101319, Control_c, 10, 11, 92
11, 101329, Control_c, 10, 11, 91
11, 101340, Control_c, 10, 11, 90
11, 101351, Control_c, 10, 11, 89
11, 101362, Control_c, 10, 11, 88
11, 101373, Control_c, 10, 11, 87
11, 101383, Control_c, 10, 11, 86
11, 101394, Control_c, 10, 11, 85
11, 101405, Control_c, 10, 11, 84
11, 101416, Control_c, 10, 11, 83
11, 101426, Control_c, 10, 11, 82
11, 101437, Control_c, 10, 11, 81
11, 101448, Control_c, 10, 11, 80
11, 101459, Control_c, 10, 11, 79
11, 101470, Control_c, 10, 11, 78
11, 101480, Control_c, 10, 11, 77
11, 101491, Control_c, 10, 11, 76
11, 101502, Control_c, 10, 11, 75
11, 101513, Control_c, 10, 11, 74
11, 101523, Control_c, 10, 11, 73
11, 101534, Control_c, 10, 11, 72
11, 101545, Control_c, 10, 11, 71
11, 101556, Control_c, 10, 11, 70
11, 101567, Control_c, 10, 11, 69
11, 101577, Control_c, 10, 11, 68
11, 101588, Control_c, 10, 11, 67
11, 101599, Control_c, 10, 11, 66
11, 101610, Control_c, 10, 11, 65
11, 101620, Control_c, 10, 11, 64
11, 101631, Control_c, 10, 11, 63
11, 101642, Control_c, 10, 11, 62
11, 101653, Control_c, 10, 11, 61
11, 101661, Note_on_c, 10, 57, 0
11, 101661, Note_on_c, 10, 45, 0
11, 101663, Control_c, 10, 11, 120
11, 101664, Control_c, 10, 1, 0
11, 101664, Note_on_c, 10, 57, 60
11, 101664, Note_on_c, 10, 69, 60
11, 101699, Note_on_c, 10, 69, 0
11, 101699, Note_on_c, 10, 57, 0
11, 101736, Note_on_c, 10, 45, 63
11, 101736, Note_on_c, 10, 57, 63
11, 101748, Note_on_c, 10, 57, 0
11, 101748, Note_on_c, 10, 45, 0
11, 101760, Note_on_c, 10, 45, 64
11, 101760, Note_on_c, 10, 57, 64
11, 101784, Note_on_c, 10, 57, 0
11, 101784, Note_on_c, 10, 45, 0
11, 101808, Note_on_c, 10, 57, 66
11, 101808, Note_on_c, 10, 69, 66
11, 101843, Note_on_c, 10, 69, 0
11, 101843, Note_on_c, 10, 57, 0
11, 101880, Note_on_c, 10, 45, 70
11, 101880, Note_on_c, 10, 57, 70
11, 101892, Note_on_c, 10, 57, 0
11, 101892, Note_on_c, 10, 45, 0
11, 101904, Note_on_c, 10, 45, 71
11, 101904, Note_on_c, 10, 57, 71
11, 101928, Note_on_c, 10, 57, 0
11, 101928, Note_on_c, 10, 45, 0
11, 102024, Note_on_c, 10, 66, 76
11, 102036, Note_on_c, 10, 66, 0
11, 102048, Note_on_c, 10, 66, 78
11, 102072, Note_on_c, 10, 66, 0
11, 102168, Note_on_c, 10, 64, 83
11, 102168, Note_on_c, 10, 67, 83
11, 102180, Note_on_c, 10, 67, 0
11, 102180, Note_on_c, 10, 64, 0
11, 102192, Note_on_c, 10, 64, 84
11, 102192, Note_on_c, 10, 67, 84
11, 102216, Note_on_c, 10, 67, 0
11, 102216, Note_on_c, 10, 64, 0
11, 102312, Note_on_c, 10, 57, 90
11, 102312, Note_on_c, 10, 64, 90
11, 102324, Note_on_c, 10, 64, 0
11, 102324, Note_on_c, 10, 57, 0
11, 102336, Note_on_c, 10, 57, 91
11, 102336, Note_on_c, 10, 64, 91
11, 102360, Note_on_c, 10, 64, 0
11, 102360, Note_on_c, 10, 57, 0
11, 102456, Note_on_c, 10, 62, 97
11, 102456, Note_on_c, 10, 66, 97
11, 102468, Note_on_c, 10, 66, 0
11, 102468, Note_on_c, 10, 62, 0
11, 102480, Note_on_c, 10, 62, 98
11, 102480, Note_on_c, 10, 66, 98
11, 102504, Note_on_c, 10, 66, 0
11, 102504, Note_on_c, 10, 62, 0
11, 102600, Note_on_c, 10, 45, 103
11, 102600, Note_on_c, 10, 57, 103
11, 102612, Note_on_c, 10, 57, 0
11, 102612, Note_on_c, 10, 45, 0
11, 102624, Note_on_c, 10, 45, 105
11, 102624, Note_on_c, 10, 57, 105
11, 102648, Note_on_c, 10, 57, 0
11, 102648, Note_on_c, 10, 45, 0
11, 102744, Note_on_c, 10, 45, 110
11, 102744, Note_on_c, 10, 57, 110
11, 102756, Note_on_c, 10, 57, 0
11, 102756, Note_on_c, 10, 45, 0
11, 102768, Note_on_c, 10, 45, 111
11, 102768, Note_on_c, 10, 57, 111
11, 102792, Note_on_c, 10, 57, 0
11, 102792, Note_on_c, 10, 45, 0
11, 105408, Note_on_c, 10, 67, 116
11, 105443, Note_on_c, 10, 67, 0
11, 105480, Note_on_c, 10, 67, 113
11, 105492, Note_on_c, 10, 67, 0
11, 105504, Note_on_c, 10, 67, 113
11, 105528, Note_on_c, 10, 67, 0
11, 105552, Note_on_c, 10, 67, 116
11, 105576, Note_on_c, 10, 67, 0
11, 105600, Note_on_c, 10, 67, 113
11, 105624, Note_on_c, 10, 67, 0
11, 105648, Note_on_c, 10, 67, 113
11, 105672, Note_on_c, 10, 67, 0
11, 105696, Note_on_c, 10, 60, 113
11, 105720, Note_on_c, 10, 60, 0
11, 105984, Note_on_c, 10, 57, 116
11, 106019, Note_on_c, 10, 57, 0
11, 106056, Note_on_c, 10, 57, 113
11, 106068, Note_on_c, 10, 57, 0
11, 106080, Note_on_c, 10, 57, 113
11, 106104, Note_on_c, 10, 57, 0
11, 106128, Note_on_c, 10, 57, 116
11, 106152, Note_on_c, 10, 57, 0
11, 106176, Note_on_c, 10, 57, 113
11, 106200, Note_on_c, 10, 57, 0
11, 106224, Note_on_c, 10, 57, 113
11, 106248, Note_on_c, 10, 57, 0
11, 106272, Control_c, 10, 1, 0
11, 106272, Note_on_c, 10, 50, 60
11, 106272, Note_on_c, 10, 62, 60
11, 106273, Control_c, 10, 1, 1
11, 106274, Control_c, 10, 1, 2
11, 106276, Control_c, 10, 1, 3
11, 106278, Control_c, 10, 1, 4
11, 106280, Control_c, 10, 1, 5
11, 106283, Control_c, 10, 1, 6
11, 106285, Control_c, 10, 1, 7
11, 106288, Control_c, 10, 1, 8
11, 106291, Control_c, 10, 1, 9
11, 106296, Control_c, 10, 1, 10
11, 106300, Control_c, 10, 1, 11
11, 106306, Control_c, 10, 1, 12
11, 106313, Control_c, 10, 1, 13
11, 106323, Control_c, 10, 1, 14
11, 106341, Control_c, 10, 1, 15
11, 106560, Note_on_c, 10, 67, 60
11, 106561, Note_on_c, 10, 62, 0
11, 106561, Note_on_c, 10, 50, 0
11, 106590, Note_on_c, 10, 67, 0
11, 106848, Control_c, 10, 11, 60
11, 106848, Note_on_c, 10, 67, 100
11, 106853, Control_c, 10, 11, 61
11, 106858, Control_c, 10, 11, 62
11, 106863, Control_c, 10, 11, 63
11, 106868, Control_c, 10, 11, 64
11, 106872, Control_c, 10, 11, 65
11, 106877, Control_c, 10, 11, 66
11, 106882, Control_c, 10, 11, 67
11, 106887, Control_c, 10, 11, 68
11, 106891, Control_c, 10, 11, 69
11, 106896, Control_c, 10, 11, 70
11, 106901, Control_c, 10, 11, 71
11, 106906, Control_c, 10, 11, 72
11, 106910, Control_c, 10, 11, 73
11, 106915, Control_c, 10, 11, 74
11, 106920, Control_c, 10, 11, 75
11, 106925, Control_c, 10, 11, 76
11, 106930, Control_c, 10, 11, 77
11, 106934, Control_c, 10, 11, 78
11, 106939, Control_c, 10, 11, 79
11, 106944, Control_c, 10, 11, 80
11, 106949, Control_c, 10, 11, 81
11, 106953, Control_c, 10, 11, 82
11, 106958, Control_c, 10, 11, 83
11, 106963, Control_c, 10, 11, 84
11, 106968, Control_c, 10, 11, 85
11, 106972, Control_c, 10, 11, 86
11, 106977, Control_c, 10, 11, 87
11, 106982, Control_c, 10, 11, 88
11, 106987, Control_c, 10, 11, 89
11, 106991, Control_c, 10, 11, 90
11, 106992, Control_c, 10, 11, 90
11, 106997, Control_c, 10, 11, 89
11, 107002, Control_c, 10, 11, 88
11, 107007, Control_c, 10, 11, 87
11, 107012, Control_c, 10, 11, 86
11, 107016, Control_c, 10, 11, 85
11, 107021, Control_c, 10, 11, 84
11, 107026, Control_c, 10, 11, 83
11, 107031, Control_c, 10, 11, 82
11, 107035, Control_c, 10, 11, 81
11, 107040, Note_on_c, 10, 67, 0
11, 107040, Note_on_c, 10, 57, 100
11, 107040, Note_on_c, 10, 69, 100
11, 107040, Control_c, 10, 11, 80
11, 107045, Control_c, 10, 11, 79
11, 107050, Control_c, 10, 11, 78
11, 107054, Control_c, 10, 11, 77
11, 107059, Control_c, 10, 11, 76
11, 107064, Control_c, 10, 11, 75
11, 107069, Control_c, 10, 11, 74
11, 107074, Control_c, 10, 11, 73
11, 107078, Control_c, 10, 11, 72
11, 107083, Control_c, 10, 11, 71
11, 107088, Note_on_c, 10, 69, 0
11, 107088, Note_on_c, 10, 57, 0
11, 107088, Note_on_c, 10, 57, 100
11, 107088, Control_c, 10, 11, 70
11, 107093, Control_c, 10, 11, 69
11, 107097, Control_c, 10, 11, 68
11, 107102, Control_c, 10, 11, 67
11, 107107, Control_c, 10, 11, 66
11, 107112, Control_c, 10, 11, 65
11, 107116, Control_c, 10, 11, 64
11, 107121, Control_c, 10, 11, 63
11, 107126, Control_c, 10, 11, 62
11, 107131, Control_c, 10, 11, 61
11, 107135, Control_c, 10, 11, 60
11, 107136, Note_on_c, 10, 57, 0
11, 107510, Control_c, 10, 11, 99
11, 107520, Control_c, 10, 1, 0
11, 107520, Note_on_c, 10, 67, 100
11, 107520, Control_c, 10, 11, 100
11, 107521, Control_c, 10, 1, 2
11, 107522, Control_c, 10, 1, 3
11, 107523, Control_c, 10, 1, 4
11, 107524, Control_c, 10, 1, 6
11, 107526, Control_c, 10, 1, 7
11, 107527, Control_c, 10, 1, 8
11, 107528, Control_c, 10, 1, 9
11, 107529, Control_c, 10, 11, 101
11, 107530, Control_c, 10, 1, 10
11, 107531, Control_c, 10, 1, 11
11, 107534, Control_c, 10, 1, 12
11, 107536, Control_c, 10, 1, 13
11, 107539, Control_c, 10, 11, 102
11, 107540, Control_c, 10, 1, 14
11, 107547, Control_c, 10, 1, 15
11, 107549, Control_c, 10, 11, 103
11, 107558, Control_c, 10, 11, 104
11, 107568, Control_c, 10, 11, 105
11, 107577, Control_c, 10, 11, 106
11, 107587, Control_c, 10, 11, 107
11, 107592, Note_on_c, 10, 67, 0
11, 107596, Control_c, 10, 11, 108
11, 107606, Control_c, 10, 1, 0
11, 107606, Control_c, 10, 11, 109
11, 107616, Note_on_c, 10, 57, 100
11, 107616, Note_on_c, 10, 69, 100
11, 107616, Control_c, 10, 11, 110
11, 107625, Control_c, 10, 11, 111
11, 107635, Control_c, 10, 11, 112
11, 107640, Note_on_c, 10, 69, 0
11, 107640, Note_on_c, 10, 57, 0
11, 107644, Control_c, 10, 11, 113
11, 107654, Control_c, 10, 11, 114
11, 107664, Note_on_c, 10, 57, 100
11, 107664, Note_on_c, 10, 69, 100
11, 107664, Control_c, 10, 11, 115
11, 107673, Control_c, 10, 11, 116
11, 107683, Control_c, 10, 11, 117
11, 107688, Note_on_c, 10, 69, 0
11, 107688, Note_on_c, 10, 57, 0
11, 107692, Control_c, 10, 11, 118
11, 107702, Control_c, 10, 11, 119
11, 107711, Control_c, 10, 11, 120
11, 107712, Note_on_c, 10, 57, 105
11, 107712, Note_on_c, 10, 69, 105
11, 107736, Note_on_c, 10, 69, 0
11, 107736, Note_on_c, 10, 57, 0
11, 107760, Note_on_c, 10, 57, 100
11, 107760, Note_on_c, 10, 69, 100
11, 107784, Note_on_c, 10, 69, 0
11, 107784, Note_on_c, 10, 57, 0
11, 107808, Note_on_c, 10, 57, 100
11, 107808, Note_on_c, 10, 69, 100
11, 107832, Note_on_c, 10, 69, 0
11, 107832, Note_on_c, 10, 57, 0
11, 107856, Note_on_c, 10, 57, 105
11, 107856, Note_on_c, 10, 69, 105
11, 107880, Note_on_c, 10, 69, 0
11, 107880, Note_on_c, 10, 57, 0
11, 107904, Note_on_c, 10, 57, 100
11, 107904, Note_on_c, 10, 69, 100
11, 107928, Note_on_c, 10, 69, 0
11, 107928, Note_on_c, 10, 57, 0
11, 107952, Note_on_c, 10, 57, 100
11, 107952, Note_on_c, 10, 69, 100
11, 107976, Note_on_c, 10, 69, 0
11, 107976, Note_on_c, 10, 57, 0
11, 108000, Note_on_c, 10, 57, 105
11, 108000, Note_on_c, 10, 69, 105
11, 108024, Note_on_c, 10, 69, 0
11, 108024, Note_on_c, 10, 57, 0
11, 108048, Note_on_c, 10, 50, 100
11, 108048, Note_on_c, 10, 62, 100
11, 108072, Note_on_c, 10, 62, 0
11, 108072, Note_on_c, 10, 50, 0
11, 108096, Note_on_c, 10, 50, 100
11, 108096, Note_on_c, 10, 62, 100
11, 108120, Note_on_c, 10, 62, 0
11, 108120, Note_on_c, 10, 50, 0
11, 108144, Note_on_c, 10, 50, 105
11, 108144, Note_on_c, 10, 62, 105
11, 108168, Note_on_c, 10, 62, 0
11, 108168, Note_on_c, 10, 50, 0
11, 108192, Note_on_c, 10, 45, 100
11, 108192, Note_on_c, 10, 57, 100
11, 108216, Note_on_c, 10, 57, 0
11, 108216, Note_on_c, 10, 45, 0
11, 108240, Note_on_c, 10, 57, 100
11, 108240, Note_on_c, 10, 69, 100
11, 108264, Note_on_c, 10, 69, 0
11, 108264, Note_on_c, 10, 57, 0
11, 108288, Note_on_c, 10, 57, 105
11, 108288, Note_on_c, 10, 69, 105
11, 108312, Note_on_c, 10, 69, 0
11, 108312, Note_on_c, 10, 57, 0
11, 108336, Note_on_c, 10, 57, 100
11, 108336, Note_on_c, 10, 69, 100
11, 108360, Note_on_c, 10, 69, 0
11, 108360, Note_on_c, 10, 57, 0
11, 108384, Note_on_c, 10, 57, 100
11, 108384, Note_on_c, 10, 69, 100
11, 108408, Note_on_c, 10, 69, 0
11, 108408, Note_on_c, 10, 57, 0
11, 108432, Note_on_c, 10, 57, 105
11, 108432, Note_on_c, 10, 69, 105
11, 108456, Note_on_c, 10, 69, 0
11, 108456, Note_on_c, 10, 57, 0
11, 108480, Note_on_c, 10, 57, 100
11, 108480, Note_on_c, 10, 69, 100
11, 108504, Note_on_c, 10, 69, 0
11, 108504, Note_on_c, 10, 57, 0
11, 108528, Note_on_c, 10, 57, 100
11, 108528, Note_on_c, 10, 69, 100
11, 108552, Note_on_c, 10, 69, 0
11, 108552, Note_on_c, 10, 57, 0
11, 108576, Note_on_c, 10, 57, 105
11, 108576, Note_on_c, 10, 69, 105
11, 108600, Note_on_c, 10, 69, 0
11, 108600, Note_on_c, 10, 57, 0
11, 108624, Note_on_c, 10, 57, 100
11, 108624, Note_on_c, 10, 69, 100
11, 108648, Note_on_c, 10, 69, 0
11, 108648, Note_on_c, 10, 57, 0
11, 108672, Note_on_c, 10, 57, 100
11, 108672, Note_on_c, 10, 69, 100
11, 108696, Note_on_c, 10, 69, 0
11, 108696, Note_on_c, 10, 57, 0
11, 108720, Note_on_c, 10, 57, 105
11, 108720, Note_on_c, 10, 69, 105
11, 108744, Note_on_c, 10, 69, 0
11, 108744, Note_on_c, 10, 57, 0
11, 108768, Note_on_c, 10, 57, 100
11, 108768, Note_on_c, 10, 69, 100
11, 108792, Note_on_c, 10, 69, 0
11, 108792, Note_on_c, 10, 57, 0
11, 108816, Note_on_c, 10, 57, 100
11, 108816, Note_on_c, 10, 69, 100
11, 108840, Note_on_c, 10, 69, 0
11, 108840, Note_on_c, 10, 57, 0
11, 108864, Note_on_c, 10, 57, 105
11, 108864, Note_on_c, 10, 69, 105
11, 108888, Note_on_c, 10, 69, 0
11, 108888, Note_on_c, 10, 57, 0
11, 108912, Note_on_c, 10, 57, 100
11, 108912, Note_on_c, 10, 69, 100
11, 108936, Note_on_c, 10, 69, 0
11, 108936, Note_on_c, 10, 57, 0
11, 108960, Note_on_c, 10, 57, 100
11, 108960, Note_on_c, 10, 69, 100
11, 108984, Note_on_c, 10, 69, 0
11, 108984, Note_on_c, 10, 57, 0
11, 109008, Note_on_c, 10, 57, 105
11, 109008, Note_on_c, 10, 69, 105
11, 109032, Note_on_c, 10, 69, 0
11, 109032, Note_on_c, 10, 57, 0
11, 109056, Note_on_c, 10, 57, 100
11, 109056, Note_on_c, 10, 69, 100
11, 109080, Note_on_c, 10, 69, 0
11, 109080, Note_on_c, 10, 57, 0
11, 109104, Note_on_c, 10, 57, 100
11, 109104, Note_on_c, 10, 69, 100
11, 109128, Note_on_c, 10, 69, 0
11, 109128, Note_on_c, 10, 57, 0
11, 109152, Note_on_c, 10, 57, 105
11, 109152, Note_on_c, 10, 69, 105
11, 109176, Note_on_c, 10, 69, 0
11, 109176, Note_on_c, 10, 57, 0
11, 109200, Note_on_c, 10, 57, 100
11, 109200, Note_on_c, 10, 69, 100
11, 109224, Note_on_c, 10, 69, 0
11, 109224, Note_on_c, 10, 57, 0
11, 109248, Note_on_c, 10, 57, 100
11, 109248, Note_on_c, 10, 69, 100
11, 109272, Note_on_c, 10, 69, 0
11, 109272, Note_on_c, 10, 57, 0
11, 109296, Note_on_c, 10, 57, 105
11, 109296, Note_on_c, 10, 69, 105
11, 109320, Note_on_c, 10, 69, 0
11, 109320, Note_on_c, 10, 57, 0
11, 109344, Note_on_c, 10, 57, 100
11, 109344, Note_on_c, 10, 69, 100
11, 109368, Note_on_c, 10, 69, 0
11, 109368, Note_on_c, 10, 57, 0
11, 109392, Note_on_c, 10, 57, 100
11, 109392, Note_on_c, 10, 69, 100
11, 109416, Note_on_c, 10, 69, 0
11, 109416, Note_on_c, 10, 57, 0
11, 110016, Note_on_c, 10, 50, 55
11, 110016, Note_on_c, 10, 62, 55
11, 110051, Note_on_c, 10, 62, 0
11, 110051, Note_on_c, 10, 50, 0
11, 110088, Note_on_c, 10, 50, 50
11, 110088, Note_on_c, 10, 62, 50
11, 110100, Note_on_c, 10, 62, 0
11, 110100, Note_on_c, 10, 50, 0
11, 110112, Note_on_c, 10, 50, 50
11, 110112, Note_on_c, 10, 62, 50
11, 110136, Note_on_c, 10, 62, 0
11, 110136, Note_on_c, 10, 50, 0
11, 110160, Note_on_c, 10, 50, 50
11, 110160, Note_on_c, 10, 62, 50
11, 110184, Note_on_c, 10, 62, 0
11, 110184, Note_on_c, 10, 50, 0
11, 110448, Note_on_c, 10, 50, 55
11, 110448, Note_on_c, 10, 62, 55
11, 110483, Note_on_c, 10, 62, 0
11, 110483, Note_on_c, 10, 50, 0
11, 110520, Note_on_c, 10, 50, 50
11, 110520, Note_on_c, 10, 62, 50
11, 110532, Note_on_c, 10, 62, 0
11, 110532, Note_on_c, 10, 50, 0
11, 110544, Note_on_c, 10, 50, 50
11, 110544, Note_on_c, 10, 62, 50
11, 110568, Note_on_c, 10, 62, 0
11, 110568, Note_on_c, 10, 50, 0
11, 110592, Note_on_c, 10, 50, 50
11, 110592, Note_on_c, 10, 62, 50
11, 110616, Note_on_c, 10, 62, 0
11, 110616, Note_on_c, 10, 50, 0
11, 111168, Note_on_c, 10, 50, 50
11, 111168, Note_on_c, 10, 62, 50
11, 111203, Note_on_c, 10, 62, 0
11, 111203, Note_on_c, 10, 50, 0
11, 111240, Note_on_c, 10, 50, 54
11, 111240, Note_on_c, 10, 62, 54
11, 111252, Note_on_c, 10, 62, 0
11, 111252, Note_on_c, 10, 50, 0
11, 111264, Note_on_c, 10, 50, 55
11, 111264, Note_on_c, 10, 62, 55
11, 111288, Note_on_c, 10, 62, 0
11, 111288, Note_on_c, 10, 50, 0
11, 111312, Note_on_c, 10, 50, 58
11, 111312, Note_on_c, 10, 62, 58
11, 111336, Note_on_c, 10, 62, 0
11, 111336, Note_on_c, 10, 50, 0
11, 111456, Note_on_c, 10, 50, 66
11, 111456, Note_on_c, 10, 62, 66
11, 111491, Note_on_c, 10, 62, 0
11, 111491, Note_on_c, 10, 50, 0
11, 111528, Note_on_c, 10, 50, 71
11, 111528, Note_on_c, 10, 62, 71
11, 111540, Note_on_c, 10, 62, 0
11, 111540, Note_on_c, 10, 50, 0
11, 111552, Note_on_c, 10, 50, 72
11, 111552, Note_on_c, 10, 62, 72
11, 111576, Note_on_c, 10, 62, 0
11, 111576, Note_on_c, 10, 50, 0
11, 111600, Note_on_c, 10, 50, 75
11, 111600, Note_on_c, 10, 62, 75
11, 111624, Note_on_c, 10, 62, 0
11, 111624, Note_on_c, 10, 50, 0
11, 111744, Note_on_c, 10, 50, 83
11, 111744, Note_on_c, 10, 62, 83
11, 111779, Note_on_c, 10, 62, 0
11, 111779, Note_on_c, 10, 50, 0
11, 111816, Note_on_c, 10, 50, 87
11, 111816, Note_on_c, 10, 62, 87
11, 111828, Note_on_c, 10, 62, 0
11, 111828, Note_on_c, 10, 50, 0
11, 111840, Note_on_c, 10, 50, 89
11, 111840, Note_on_c, 10, 62, 89
11, 111864, Note_on_c, 10, 62, 0
11, 111864, Note_on_c, 10, 50, 0
11, 111888, Note_on_c, 10, 50, 92
11, 111888, Note_on_c, 10, 62, 92
11, 111912, Note_on_c, 10, 62, 0
11, 111912, Note_on_c, 10, 50, 0
11, 112032, Note_on_c, 10, 50, 100
11, 112032, Note_on_c, 10, 62, 100
11, 112067, Note_on_c, 10, 62, 0
11, 112067, Note_on_c, 10, 50, 0
11, 112104, Note_on_c, 10, 50, 104
11, 112104, Note_on_c, 10, 62, 104
11, 112116, Note_on_c, 10, 62, 0
11, 112116, Note_on_c, 10, 50, 0
11, 112128, Note_on_c, 10, 50, 106
11, 112128, Note_on_c, 10, 62, 106
11, 112152, Note_on_c, 10, 62, 0
11, 112152, Note_on_c, 10, 50, 0
11, 112176, Note_on_c, 10, 57, 109
11, 112176, Note_on_c, 10, 64, 109
11, 112211, Note_on_c, 10, 64, 0
11, 112211, Note_on_c, 10, 57, 0
11, 112248, Note_on_c, 10, 57, 113
11, 112248, Note_on_c, 10, 64, 113
11, 112260, Note_on_c, 10, 64, 0
11, 112260, Note_on_c, 10, 57, 0
11, 112272, Control_c, 10, 1, 0
11, 112272, Note_on_c, 10, 57, 114
11, 112272, Note_on_c, 10, 64, 114
11, 112273, Control_c, 10, 1, 1
11, 112274, Control_c, 10, 1, 2
11, 112275, Control_c, 10, 1, 3
11, 112276, Control_c, 10, 1, 4
11, 112278, Control_c, 10, 1, 5
11, 112279, Control_c, 10, 1, 6
11, 112281, Control_c, 10, 1, 7
11, 112283, Control_c, 10, 1, 8
11, 112285, Control_c, 10, 1, 9
11, 112288, Control_c, 10, 1, 10
11, 112291, Control_c, 10, 1, 11
11, 112295, Control_c, 10, 1, 12
11, 112300, Control_c, 10, 1, 13
11, 112306, Control_c, 10, 1, 14
11, 112317, Note_on_c, 10, 64, 0
11, 112317, Note_on_c, 10, 57, 0
11, 112318, Control_c, 10, 1, 15
11, 112368, Control_c, 10, 1, 0
11, 112368, Note_on_c, 10, 57, 55
11, 112368, Note_on_c, 10, 69, 55
11, 112392, Note_on_c, 10, 69, 0
11, 112392, Note_on_c, 10, 57, 0
11, 112416, Note_on_c, 10, 57, 50
11, 112416, Note_on_c, 10, 69, 50
11, 112440, Note_on_c, 10, 69, 0
11, 112440, Note_on_c, 10, 57, 0
11, 112464, Note_on_c, 10, 57, 50
11, 112464, Note_on_c, 10, 69, 50
11, 112488, Note_on_c, 10, 69, 0
11, 112488, Note_on_c, 10, 57, 0
11, 112512, Note_on_c, 10, 57, 55
11, 112512, Note_on_c, 10, 69, 55
11, 112536, Note_on_c, 10, 69, 0
11, 112536, Note_on_c, 10, 57, 0
11, 112560, Note_on_c, 10, 57, 50
11, 112560, Note_on_c, 10, 69, 50
11, 112584, Note_on_c, 10, 69, 0
11, 112584, Note_on_c, 10, 57, 0
11, 112608, Note_on_c, 10, 57, 50
11, 112608, Note_on_c, 10, 69, 50
11, 112632, Note_on_c, 10, 69, 0
11, 112632, Note_on_c, 10, 57, 0
11, 112656, Note_on_c, 10, 57, 55
11, 112656, Note_on_c, 10, 69, 55
11, 112680, Note_on_c, 10, 69, 0
11, 112680, Note_on_c, 10, 57, 0
11, 112704, Note_on_c, 10, 50, 50
11, 112704, Note_on_c, 10, 62, 50
11, 112728, Note_on_c, 10, 62, 0
11, 112728, Note_on_c, 10, 50, 0
11, 112752, Note_on_c, 10, 50, 50
11, 112752, Note_on_c, 10, 62, 50
11, 112776, Note_on_c, 10, 62, 0
11, 112776, Note_on_c, 10, 50, 0
11, 112800, Note_on_c, 10, 50, 55
11, 112800, Note_on_c, 10, 62, 55
11, 112824, Note_on_c, 10, 62, 0
11, 112824, Note_on_c, 10, 50, 0
11, 112848, Note_on_c, 10, 50, 50
11, 112848, Note_on_c, 10, 62, 50
11, 112872, Note_on_c, 10, 62, 0
11, 112872, Note_on_c, 10, 50, 0
11, 112896, Note_on_c, 10, 50, 50
11, 112896, Note_on_c, 10, 62, 50
11, 112920, Note_on_c, 10, 62, 0
11, 112920, Note_on_c, 10, 50, 0
11, 112944, Note_on_c, 10, 45, 55
11, 112944, Note_on_c, 10, 57, 55
11, 112968, Note_on_c, 10, 57, 0
11, 112968, Note_on_c, 10, 45, 0
11, 112992, Note_on_c, 10, 57, 50
11, 112992, Note_on_c, 10, 69, 50
11, 113016, Note_on_c, 10, 69, 0
11, 113016, Note_on_c, 10, 57, 0
11, 113040, Note_on_c, 10, 57, 50
11, 113040, Note_on_c, 10, 69, 50
11, 113064, Note_on_c, 10, 69, 0
11, 113064, Note_on_c, 10, 57, 0
11, 113088, Note_on_c, 10, 57, 55
11, 113088, Note_on_c, 10, 69, 55
11, 113112, Note_on_c, 10, 69, 0
11, 113112, Note_on_c, 10, 57, 0
11, 113136, Note_on_c, 10, 57, 50
11, 113136, Note_on_c, 10, 69, 50
11, 113160, Note_on_c, 10, 69, 0
11, 113160, Note_on_c, 10, 57, 0
11, 113184, Note_on_c, 10, 57, 50
11, 113184, Note_on_c, 10, 69, 50
11, 113208, Note_on_c, 10, 69, 0
11, 113208, Note_on_c, 10, 57, 0
11, 113232, Note_on_c, 10, 57, 55
11, 113232, Note_on_c, 10, 69, 55
11, 113256, Note_on_c, 10, 69, 0
11, 113256, Note_on_c, 10, 57, 0
11, 113280, Note_on_c, 10, 50, 50
11, 113280, Note_on_c, 10, 62, 50
11, 113304, Note_on_c, 10, 62, 0
11, 113304, Note_on_c, 10, 50, 0
11, 113328, Note_on_c, 10, 50, 50
11, 113328, Note_on_c, 10, 62, 50
11, 113352, Note_on_c, 10, 62, 0
11, 113352, Note_on_c, 10, 50, 0
11, 113376, Note_on_c, 10, 50, 55
11, 113376, Note_on_c, 10, 62, 55
11, 113400, Note_on_c, 10, 62, 0
11, 113400, Note_on_c, 10, 50, 0
11, 113424, Note_on_c, 10, 50, 50
11, 113424, Note_on_c, 10, 62, 50
11, 113448, Note_on_c, 10, 62, 0
11, 113448, Note_on_c, 10, 50, 0
11, 113472, Note_on_c, 10, 50, 50
11, 113472, Note_on_c, 10, 62, 50
11, 113496, Note_on_c, 10, 62, 0
11, 113496, Note_on_c, 10, 50, 0
11, 113520, Note_on_c, 10, 50, 50
11, 113520, Note_on_c, 10, 62, 50
11, 113544, Note_on_c, 10, 62, 0
11, 113544, Note_on_c, 10, 50, 0
11, 113568, Note_on_c, 10, 57, 52
11, 113568, Note_on_c, 10, 69, 52
11, 113592, Note_on_c, 10, 69, 0
11, 113592, Note_on_c, 10, 57, 0
11, 113616, Note_on_c, 10, 57, 55
11, 113616, Note_on_c, 10, 69, 55
11, 113640, Note_on_c, 10, 69, 0
11, 113640, Note_on_c, 10, 57, 0
11, 113664, Note_on_c, 10, 57, 57
11, 113664, Note_on_c, 10, 69, 57
11, 113688, Note_on_c, 10, 69, 0
11, 113688, Note_on_c, 10, 57, 0
11, 113712, Note_on_c, 10, 57, 60
11, 113712, Note_on_c, 10, 69, 60
11, 113736, Note_on_c, 10, 69, 0
11, 113736, Note_on_c, 10, 57, 0
11, 113760, Note_on_c, 10, 57, 63
11, 113760, Note_on_c, 10, 69, 63
11, 113784, Note_on_c, 10, 69, 0
11, 113784, Note_on_c, 10, 57, 0
11, 113808, Note_on_c, 10, 57, 65
11, 113808, Note_on_c, 10, 69, 65
11, 113832, Note_on_c, 10, 69, 0
11, 113832, Note_on_c, 10, 57, 0
11, 113856, Note_on_c, 10, 57, 68
11, 113856, Note_on_c, 10, 69, 68
11, 113880, Note_on_c, 10, 69, 0
11, 113880, Note_on_c, 10, 57, 0
11, 113904, Note_on_c, 10, 57, 71
11, 113904, Note_on_c, 10, 69, 71
11, 113928, Note_on_c, 10, 69, 0
11, 113928, Note_on_c, 10, 57, 0
11, 113952, Note_on_c, 10, 57, 73
11, 113952, Note_on_c, 10, 69, 73
11, 113976, Note_on_c, 10, 69, 0
11, 113976, Note_on_c, 10, 57, 0
11, 114000, Note_on_c, 10, 57, 76
11, 114000, Note_on_c, 10, 69, 76
11, 114024, Note_on_c, 10, 69, 0
11, 114024, Note_on_c, 10, 57, 0
11, 114048, Note_on_c, 10, 57, 78
11, 114048, Note_on_c, 10, 69, 78
11, 114072, Note_on_c, 10, 69, 0
11, 114072, Note_on_c, 10, 57, 0
11, 114096, Note_on_c, 10, 57, 81
11, 114096, Note_on_c, 10, 69, 81
11, 114120, Note_on_c, 10, 69, 0
11, 114120, Note_on_c, 10, 57, 0
11, 114144, Note_on_c, 10, 57, 84
11, 114144, Note_on_c, 10, 69, 84
11, 114168, Note_on_c, 10, 69, 0
11, 114168, Note_on_c, 10, 57, 0
11, 114192, Note_on_c, 10, 57, 86
11, 114192, Note_on_c, 10, 69, 86
11, 114216, Note_on_c, 10, 69, 0
11, 114216, Note_on_c, 10, 57, 0
11, 114240, Note_on_c, 10, 57, 89
11, 114240, Note_on_c, 10, 69, 89
11, 114264, Note_on_c, 10, 69, 0
11, 114264, Note_on_c, 10, 57, 0
11, 114288, Note_on_c, 10, 57, 92
11, 114288, Note_on_c, 10, 69, 92
11, 114312, Note_on_c, 10, 69, 0
11, 114312, Note_on_c, 10, 57, 0
11, 114336, Note_on_c, 10, 57, 94
11, 114336, Note_on_c, 10, 69, 94
11, 114360, Note_on_c, 10, 69, 0
11, 114360, Note_on_c, 10, 57, 0
11, 114384, Note_on_c, 10, 57, 97
11, 114384, Note_on_c, 10, 69, 97
11, 114408, Note_on_c, 10, 69, 0
11, 114408, Note_on_c, 10, 57, 0
11, 114432, Note_on_c, 10, 57, 99
11, 114432, Note_on_c, 10, 69, 99
11, 114456, Note_on_c, 10, 69, 0
11, 114456, Note_on_c, 10, 57, 0
11, 114480, Note_on_c, 10, 57, 102
11, 114480, Note_on_c, 10, 69, 102
11, 114504, Note_on_c, 10, 69, 0
11, 114504, Note_on_c, 10, 57, 0
11, 114528, Note_on_c, 10, 57, 105
11, 114528, Note_on_c, 10, 69, 105
11, 114552, Note_on_c, 10, 69, 0
11, 114552, Note_on_c, 10, 57, 0
11, 114576, Note_on_c, 10, 57, 107
11, 114576, Note_on_c, 10, 69, 107
11, 114600, Note_on_c, 10, 69, 0
11, 114600, Note_on_c, 10, 57, 0
11, 114624, Note_on_c, 10, 57, 110
11, 114624, Note_on_c, 10, 69, 110
11, 114648, Note_on_c, 10, 69, 0
11, 114648, Note_on_c, 10, 57, 0
11, 114672, Note_on_c, 10, 69, 125
11, 114696, Note_on_c, 10, 69, 0
11, 114720, Note_on_c, 10, 57, 115
11, 114744, Note_on_c, 10, 57, 0
11, 114768, Note_on_c, 10, 62, 125
11, 114792, Note_on_c, 10, 62, 0
11, 114816, Note_on_c, 10, 50, 115
11, 114840, Note_on_c, 10, 50, 0
11, 114864, Note_on_c, 10, 57, 125
11, 114888, Note_on_c, 10, 57, 0
11, 114912, Note_on_c, 10, 45, 115
11, 114936, Note_on_c, 10, 45, 0
11, 114960, Note_on_c, 10, 69, 125
11, 114984, Note_on_c, 10, 69, 0
11, 115008, Note_on_c, 10, 57, 120
11, 115032, Note_on_c, 10, 57, 0
11, 115056, Note_on_c, 10, 50, 120
11, 115056, Note_on_c, 10, 62, 120
11, 115080, Note_on_c, 10, 62, 0
11, 115080, Note_on_c, 10, 50, 0
11, 121200, Control_c, 10, 1, 0
11, 121200, Control_c, 10, 11, 100
11, 121200, Note_on_c, 10, 62, 120
11, 121201, Control_c, 10, 11, 90
11, 121201, Control_c, 10, 1, 1
11, 121202, Control_c, 10, 11, 84
11, 121202, Control_c, 10, 1, 2
11, 121203, Control_c, 10, 11, 79
11, 121203, Control_c, 10, 1, 3
11, 121204, Control_c, 10, 11, 75
11, 121205, Control_c, 10, 11, 71
11, 121206, Control_c, 10, 11, 69
11, 121206, Control_c, 10, 1, 4
11, 121207, Control_c, 10, 11, 67
11, 121208, Control_c, 10, 11, 65
11, 121208, Control_c, 10, 1, 5
11, 121209, Control_c, 10, 11, 64
11, 121210, Control_c, 10, 11, 63
11, 121210, Control_c, 10, 1, 6
11, 121211, Control_c, 10, 11, 62
11, 121212, Control_c, 10, 1, 7
11, 121213, Control_c, 10, 11, 61
11, 121215, Control_c, 10, 11, 60
11, 121215, Control_c, 10, 1, 8
11, 121218, Control_c, 10, 1, 9
11, 121221, Control_c, 10, 1, 10
11, 121224, Control_c, 10, 1, 11
11, 121227, Control_c, 10, 1, 12
11, 121232, Control_c, 10, 1, 13
11, 121236, Control_c, 10, 1, 14
11, 121242, Control_c, 10, 1, 15
11, 121248, Control_c, 10, 1, 16
11, 121255, Control_c, 10, 1, 17
11, 121265, Control_c, 10, 1, 18
11, 121279, Control_c, 10, 1, 19
11, 121303, Control_c, 10, 1, 20
11, 121488, Note_on_c, 10, 62, 0
11, 121488, Control_c, 10, 1, 0
11, 121488, Note_on_c, 10, 64, 120
11, 121489, Control_c, 10, 1, 1
11, 121490, Control_c, 10, 1, 2
11, 121491, Control_c, 10, 1, 3
11, 121492, Control_c, 10, 1, 4
11, 121494, Control_c, 10, 1, 5
11, 121495, Control_c, 10, 1, 6
11, 121497, Control_c, 10, 1, 7
11, 121499, Control_c, 10, 1, 8
11, 121501, Control_c, 10, 1, 9
11, 121504, Control_c, 10, 1, 10
11, 121507, Control_c, 10, 1, 11
11, 121511, Control_c, 10, 1, 12
11, 121516, Control_c, 10, 1, 13
11, 121522, Control_c, 10, 1, 14
11, 121534, Control_c, 10, 1, 15
11, 121584, Note_on_c, 10, 64, 0
11, 121584, Control_c, 10, 1, 0
11, 121584, Note_on_c, 10, 66, 120
11, 121585, Control_c, 10, 1, 1
11, 121586, Control_c, 10, 1, 2
11, 121588, Control_c, 10, 1, 3
11, 121590, Control_c, 10, 1, 4
11, 121592, Control_c, 10, 1, 5
11, 121595, Control_c, 10, 1, 6
11, 121597, Control_c, 10, 1, 7
11, 121600, Control_c, 10, 1, 8
11, 121603, Control_c, 10, 1, 9
11, 121608, Control_c, 10, 1, 10
11, 121612, Control_c, 10, 1, 11
11, 121618, Control_c, 10, 1, 12
11, 121625, Control_c, 10, 1, 13
11, 121635, Control_c, 10, 1, 14
11, 121653, Control_c, 10, 1, 15
11, 121728, Note_on_c, 10, 66, 0
11, 121728, Note_on_c, 10, 67, 120
11, 121752, Note_on_c, 10, 67, 0
11, 121752, Note_on_c, 10, 69, 120
11, 121776, Note_on_c, 10, 69, 0
11, 121776, Control_c, 10, 1, 0
11, 121776, Note_on_c, 10, 67, 120
11, 121800, Note_on_c, 10, 67, 0
11, 121824, Note_on_c, 10, 67, 120
11, 121848, Note_on_c, 10, 67, 0
11, 121872, Note_on_c, 10, 66, 120
11, 121896, Note_on_c, 10, 66, 0
11, 121920, Note_on_c, 10, 66, 120
11, 121944, Note_on_c, 10, 66, 0
11, 121968, Note_on_c, 10, 64, 120
11, 122040, Note_on_c, 10, 64, 0
11, 122064, Control_c, 10, 1, 0
11, 122064, Note_on_c, 10, 62, 120
11, 122065, Control_c, 10, 1, 1
11, 122067, Control_c, 10, 1, 2
11, 122069, Control_c, 10, 1, 3
11, 122072, Control_c, 10, 1, 4
11, 122075, Control_c, 10, 1, 5
11, 122078, Control_c, 10, 1, 6
11, 122082, Control_c, 10, 1, 7
11, 122085, Control_c, 10, 1, 8
11, 122090, Control_c, 10, 1, 9
11, 122096, Control_c, 10, 1, 10
11, 122102, Control_c, 10, 1, 11
11, 122109, Control_c, 10, 1, 12
11, 122119, Control_c, 10, 1, 13
11, 122132, Control_c, 10, 1, 14
11, 122156, Control_c, 10, 1, 15
11, 122256, Control_c, 10, 1, 0
11, 122256, Note_on_c, 10, 64, 120
11, 122257, Note_on_c, 10, 62, 0
11, 122257, Control_c, 10, 1, 1
11, 122258, Control_c, 10, 1, 2
11, 122259, Control_c, 10, 1, 3
11, 122260, Control_c, 10, 1, 4
11, 122262, Control_c, 10, 1, 5
11, 122263, Control_c, 10, 1, 6
11, 122265, Control_c, 10, 1, 7
11, 122267, Control_c, 10, 1, 8
11, 122269, Control_c, 10, 1, 9
11, 122272, Control_c, 10, 1, 10
11, 122275, Control_c, 10, 1, 11
11, 122279, Control_c, 10, 1, 12
11, 122284, Control_c, 10, 1, 13
11, 122290, Control_c, 10, 1, 14
11, 122302, Control_c, 10, 1, 15
11, 122352, Note_on_c, 10, 64, 0
11, 122352, Control_c, 10, 1, 0
11, 122352, Note_on_c, 10, 66, 120
11, 122353, Control_c, 10, 1, 1
11, 122354, Control_c, 10, 1, 2
11, 122356, Control_c, 10, 1, 3
11, 122358, Control_c, 10, 1, 4
11, 122360, Control_c, 10, 1, 5
11, 122363, Control_c, 10, 1, 6
11, 122365, Control_c, 10, 1, 7
11, 122368, Control_c, 10, 1, 8
11, 122371, Control_c, 10, 1, 9
11, 122376, Control_c, 10, 1, 10
11, 122380, Control_c, 10, 1, 11
11, 122386, Control_c, 10, 1, 12
11, 122393, Control_c, 10, 1, 13
11, 122403, Control_c, 10, 1, 14
11, 122421, Control_c, 10, 1, 15
11, 122496, Note_on_c, 10, 66, 0
11, 122496, Note_on_c, 10, 67, 120
11, 122520, Note_on_c, 10, 67, 0
11, 122520, Note_on_c, 10, 69, 120
11, 122544, Note_on_c, 10, 69, 0
11, 122544, Control_c, 10, 1, 0
11, 122544, Note_on_c, 10, 67, 120
11, 122568, Note_on_c, 10, 67, 0
11, 122592, Note_on_c, 10, 67, 120
11, 122616, Note_on_c, 10, 67, 0
11, 122640, Note_on_c, 10, 66, 120
11, 122664, Note_on_c, 10, 66, 0
11, 122688, Note_on_c, 10, 66, 120
11, 122712, Note_on_c, 10, 66, 0
11, 122736, Note_on_c, 10, 64, 120
11, 122760, Note_on_c, 10, 64, 0
11, 122832, Control_c, 10, 1, 0
11, 122832, Note_on_c, 10, 62, 120
11, 122833, Control_c, 10, 1, 1
11, 122835, Control_c, 10, 1, 2
11, 122837, Control_c, 10, 1, 3
11, 122840, Control_c, 10, 1, 4
11, 122843, Control_c, 10, 1, 5
11, 122846, Control_c, 10, 1, 6
11, 122850, Control_c, 10, 1, 7
11, 122853, Control_c, 10, 1, 8
11, 122858, Control_c, 10, 1, 9
11, 122864, Control_c, 10, 1, 10
11, 122870, Control_c, 10, 1, 11
11, 122877, Control_c, 10, 1, 12
11, 122887, Control_c, 10, 1, 13
11, 122900, Control_c, 10, 1, 14
11, 122924, Control_c, 10, 1, 15
11, 123024, Control_c, 10, 1, 0
11, 123024, Note_on_c, 10, 64, 120
11, 123025, Note_on_c, 10, 62, 0
11, 123025, Control_c, 10, 1, 1
11, 123026, Control_c, 10, 1, 2
11, 123027, Control_c, 10, 1, 3
11, 123028, Control_c, 10, 1, 4
11, 123030, Control_c, 10, 1, 5
11, 123031, Control_c, 10, 1, 6
11, 123033, Control_c, 10, 1, 7
11, 123035, Control_c, 10, 1, 8
11, 123037, Control_c, 10, 1, 9
11, 123040, Control_c, 10, 1, 10
11, 123043, Control_c, 10, 1, 11
11, 123047, Control_c, 10, 1, 12
11, 123052, Control_c, 10, 1, 13
11, 123058, Control_c, 10, 1, 14
11, 123070, Control_c, 10, 1, 15
11, 123120, Note_on_c, 10, 64, 0
11, 123120, Control_c, 10, 1, 0
11, 123120, Note_on_c, 10, 66, 120
11, 123121, Control_c, 10, 1, 1
11, 123122, Control_c, 10, 1, 2
11, 123124, Control_c, 10, 1, 3
11, 123126, Control_c, 10, 1, 4
11, 123128, Control_c, 10, 1, 5
11, 123131, Control_c, 10, 1, 6
11, 123133, Control_c, 10, 1, 7
11, 123136, Control_c, 10, 1, 8
11, 123139, Control_c, 10, 1, 9
11, 123144, Control_c, 10, 1, 10
11, 123148, Control_c, 10, 1, 11
11, 123154, Control_c, 10, 1, 12
11, 123161, Control_c, 10, 1, 13
11, 123171, Control_c, 10, 1, 14
11, 123189, Control_c, 10, 1, 15
11, 123264, Note_on_c, 10, 66, 0
11, 123264, Note_on_c, 10, 67, 120
11, 123288, Note_on_c, 10, 67, 0
11, 123288, Note_on_c, 10, 69, 120
11, 123312, Note_on_c, 10, 69, 0
11, 123312, Control_c, 10, 1, 0
11, 123312, Note_on_c, 10, 67, 120
11, 123336, Note_on_c, 10, 67, 0
11, 123360, Note_on_c, 10, 67, 120
11, 123384, Note_on_c, 10, 67, 0
11, 123408, Note_on_c, 10, 66, 120
11, 123432, Note_on_c, 10, 66, 0
11, 123456, Note_on_c, 10, 66, 120
11, 123480, Note_on_c, 10, 66, 0
11, 123504, Note_on_c, 10, 64, 120
11, 123576, Note_on_c, 10, 64, 0
11, 123600, Control_c, 10, 1, 0
11, 123600, Note_on_c, 10, 62, 120
11, 123601, Control_c, 10, 1, 1
11, 123603, Control_c, 10, 1, 2
11, 123605, Control_c, 10, 1, 3
11, 123608, Control_c, 10, 1, 4
11, 123611, Control_c, 10, 1, 5
11, 123614, Control_c, 10, 1, 6
11, 123618, Control_c, 10, 1, 7
11, 123621, Control_c, 10, 1, 8
11, 123626, Control_c, 10, 1, 9
11, 123632, Control_c, 10, 1, 10
11, 123638, Control_c, 10, 1, 11
11, 123645, Control_c, 10, 1, 12
11, 123655, Control_c, 10, 1, 13
11, 123668, Control_c, 10, 1, 14
11, 123692, Control_c, 10, 1, 15
11, 123792, Control_c, 10, 1, 0
11, 123792, Note_on_c, 10, 64, 120
11, 123793, Note_on_c, 10, 62, 0
11, 123793, Control_c, 10, 1, 1
11, 123794, Control_c, 10, 1, 2
11, 123795, Control_c, 10, 1, 3
11, 123796, Control_c, 10, 1, 4
11, 123798, Control_c, 10, 1, 5
11, 123799, Control_c, 10, 1, 6
11, 123801, Control_c, 10, 1, 7
11, 123803, Control_c, 10, 1, 8
11, 123805, Control_c, 10, 1, 9
11, 123808, Control_c, 10, 1, 10
11, 123811, Control_c, 10, 1, 11
11, 123815, Control_c, 10, 1, 12
11, 123820, Control_c, 10, 1, 13
11, 123826, Control_c, 10, 1, 14
11, 123838, Control_c, 10, 1, 15
11, 123888, Note_on_c, 10, 64, 0
11, 123888, Control_c, 10, 1, 0
11, 123888, Note_on_c, 10, 66, 120
11, 123889, Control_c, 10, 1, 1
11, 123890, Control_c, 10, 1, 2
11, 123892, Control_c, 10, 1, 3
11, 123894, Control_c, 10, 1, 4
11, 123896, Control_c, 10, 1, 5
11, 123899, Control_c, 10, 1, 6
11, 123901, Control_c, 10, 1, 7
11, 123904, Control_c, 10, 1, 8
11, 123907, Control_c, 10, 1, 9
11, 123912, Control_c, 10, 1, 10
11, 123916, Control_c, 10, 1, 11
11, 123922, Control_c, 10, 1, 12
11, 123929, Control_c, 10, 1, 13
11, 123939, Control_c, 10, 1, 14
11, 123957, Control_c, 10, 1, 15
11, 124032, Note_on_c, 10, 66, 0
11, 124032, Note_on_c, 10, 67, 120
11, 124056, Note_on_c, 10, 67, 0
11, 124056, Note_on_c, 10, 69, 120
11, 124080, Note_on_c, 10, 69, 0
11, 124080, Control_c, 10, 1, 0
11, 124080, Note_on_c, 10, 67, 120
11, 124104, Note_on_c, 10, 67, 0
11, 124128, Note_on_c, 10, 67, 120
11, 124152, Note_on_c, 10, 67, 0
11, 124176, Note_on_c, 10, 66, 120
11, 124200, Note_on_c, 10, 66, 0
11, 124224, Note_on_c, 10, 66, 120
11, 124248, Note_on_c, 10, 66, 0
11, 124272, Note_on_c, 10, 64, 120
11, 124296, Note_on_c, 10, 64, 0
11, 125520, Control_c, 10, 1, 0
11, 125520, Note_on_c, 10, 57, 120
11, 125521, Control_c, 10, 1, 1
11, 125522, Control_c, 10, 1, 2
11, 125524, Control_c, 10, 1, 3
11, 125526, Control_c, 10, 1, 4
11, 125529, Control_c, 10, 1, 5
11, 125532, Control_c, 10, 1, 6
11, 125535, Control_c, 10, 1, 7
11, 125538, Control_c, 10, 1, 8
11, 125542, Control_c, 10, 1, 9
11, 125546, Control_c, 10, 1, 10
11, 125550, Control_c, 10, 1, 11
11, 125556, Control_c, 10, 1, 12
11, 125562, Control_c, 10, 1, 13
11, 125570, Control_c, 10, 1, 14
11, 125579, Control_c, 10, 1, 15
11, 125593, Control_c, 10, 1, 16
11, 125616, Control_c, 10, 1, 17
11, 125708, Note_on_c, 10, 57, 0
11, 125712, Control_c, 10, 1, 0
11, 125712, Note_on_c, 10, 57, 120
11, 125713, Control_c, 10, 1, 2
11, 125714, Control_c, 10, 1, 3
11, 125715, Control_c, 10, 1, 4
11, 125717, Control_c, 10, 1, 5
11, 125718, Control_c, 10, 1, 6
11, 125720, Control_c, 10, 1, 7
11, 125721, Control_c, 10, 1, 8
11, 125723, Control_c, 10, 1, 9
11, 125725, Control_c, 10, 1, 10
11, 125727, Control_c, 10, 1, 11
11, 125730, Control_c, 10, 1, 12
11, 125733, Control_c, 10, 1, 13
11, 125737, Control_c, 10, 1, 14
11, 125742, Control_c, 10, 1, 15
11, 125748, Control_c, 10, 1, 16
11, 125760, Control_c, 10, 1, 17
11, 125808, Note_on_c, 10, 57, 0
11, 125808, Control_c, 10, 1, 0
11, 125808, Note_on_c, 10, 57, 120
11, 125809, Control_c, 10, 1, 1
11, 125810, Control_c, 10, 1, 2
11, 125812, Control_c, 10, 1, 3
11, 125814, Control_c, 10, 1, 4
11, 125816, Control_c, 10, 1, 5
11, 125819, Control_c, 10, 1, 6
11, 125822, Control_c, 10, 1, 7
11, 125826, Control_c, 10, 1, 8
11, 125830, Control_c, 10, 1, 9
11, 125837, Control_c, 10, 1, 10
11, 125849, Control_c, 10, 1, 11
11, 125880, Note_on_c, 10, 57, 0
11, 125904, Control_c, 10, 1, 0
11, 125904, Note_on_c, 10, 57, 120
11, 125905, Control_c, 10, 1, 1
11, 125906, Control_c, 10, 1, 2
11, 125908, Control_c, 10, 1, 3
11, 125910, Control_c, 10, 1, 4
11, 125913, Control_c, 10, 1, 5
11, 125916, Control_c, 10, 1, 6
11, 125919, Control_c, 10, 1, 7
11, 125922, Control_c, 10, 1, 8
11, 125926, Control_c, 10, 1, 9
11, 125930, Control_c, 10, 1, 10
11, 125934, Control_c, 10, 1, 11
11, 125940, Control_c, 10, 1, 12
11, 125946, Control_c, 10, 1, 13
11, 125954, Control_c, 10, 1, 14
11, 125963, Control_c, 10, 1, 15
11, 125977, Control_c, 10, 1, 16
11, 126000, Control_c, 10, 1, 17
11, 126092, Note_on_c, 10, 57, 0
11, 126096, Control_c, 10, 1, 0
11, 126096, Note_on_c, 10, 57, 120
11, 126097, Control_c, 10, 1, 1
11, 126098, Control_c, 10, 1, 2
11, 126099, Control_c, 10, 1, 3
11, 126101, Control_c, 10, 1, 4
11, 126103, Control_c, 10, 1, 5
11, 126105, Control_c, 10, 1, 6
11, 126108, Control_c, 10, 1, 7
11, 126111, Control_c, 10, 1, 8
11, 126115, Control_c, 10, 1, 9
11, 126120, Control_c, 10, 1, 10
11, 126127, Control_c, 10, 1, 11
11, 126138, Control_c, 10, 1, 12
11, 126192, Note_on_c, 10, 57, 0
11, 126192, Note_on_c, 10, 57, 120
11, 126264, Note_on_c, 10, 57, 0
11, 126288, Control_c, 10, 1, 0
11, 126288, Note_on_c, 10, 57, 120
11, 126289, Control_c, 10, 1, 1
11, 126290, Control_c, 10, 1, 2
11, 126293, Control_c, 10, 1, 3
11, 126295, Control_c, 10, 1, 4
11, 126298, Control_c, 10, 1, 5
11, 126301, Control_c, 10, 1, 6
11, 126304, Control_c, 10, 1, 7
11, 126308, Control_c, 10, 1, 8
11, 126312, Control_c, 10, 1, 9
11, 126317, Control_c, 10, 1, 10
11, 126322, Control_c, 10, 1, 11
11, 126328, Control_c, 10, 1, 12
11, 126336, Control_c, 10, 1, 13
11, 126346, Control_c, 10, 1, 14
11, 126360, Control_c, 10, 1, 15
11, 126384, Control_c, 10, 11, 60
11, 126384, Control_c, 10, 1, 16
11, 126434, Control_c, 10, 11, 61
11, 126476, Note_on_c, 10, 57, 0
11, 126480, Control_c, 10, 1, 0
11, 126480, Note_on_c, 10, 64, 120
11, 126481, Control_c, 10, 1, 2
11, 126483, Control_c, 10, 1, 3
11, 126484, Control_c, 10, 11, 62
11, 126484, Control_c, 10, 1, 4
11, 126485, Control_c, 10, 1, 5
11, 126487, Control_c, 10, 1, 6
11, 126488, Control_c, 10, 1, 7
11, 126490, Control_c, 10, 1, 8
11, 126492, Control_c, 10, 1, 9
11, 126495, Control_c, 10, 1, 10
11, 126497, Control_c, 10, 1, 11
11, 126500, Control_c, 10, 1, 12
11, 126504, Control_c, 10, 1, 13
11, 126509, Control_c, 10, 1, 14
11, 126516, Control_c, 10, 1, 15
11, 126528, Control_c, 10, 1, 16
11, 126534, Control_c, 10, 11, 63
11, 126576, Note_on_c, 10, 64, 0
11, 126576, Control_c, 10, 1, 0
11, 126576, Note_on_c, 10, 64, 120
11, 126577, Control_c, 10, 1, 2
11, 126578, Control_c, 10, 1, 3
11, 126579, Control_c, 10, 1, 4
11, 126581, Control_c, 10, 1, 5
11, 126582, Control_c, 10, 1, 6
11, 126584, Control_c, 10, 11, 64
11, 126584, Control_c, 10, 1, 7
11, 126585, Control_c, 10, 1, 8
11, 126588, Control_c, 10, 1, 9
11, 126591, Control_c, 10, 1, 10
11, 126595, Control_c, 10, 1, 11
11, 126602, Control_c, 10, 1, 12
11, 126634, Control_c, 10, 11, 65
11, 126648, Note_on_c, 10, 64, 0
11, 126672, Control_c, 10, 1, 0
11, 126672, Note_on_c, 10, 64, 120
11, 126673, Control_c, 10, 1, 1
11, 126674, Control_c, 10, 1, 2
11, 126676, Control_c, 10, 1, 3
11, 126678, Control_c, 10, 1, 4
11, 126681, Control_c, 10, 1, 5
11, 126684, Control_c, 10, 11, 66
11, 126684, Control_c, 10, 1, 6
11, 126687, Control_c, 10, 1, 7
11, 126690, Control_c, 10, 1, 8
11, 126694, Control_c, 10, 1, 9
11, 126698, Control_c, 10, 1, 10
11, 126702, Control_c, 10, 1, 11
11, 126708, Control_c, 10, 1, 12
11, 126714, Control_c, 10, 1, 13
11, 126722, Control_c, 10, 1, 14
11, 126731, Control_c, 10, 1, 15
11, 126734, Control_c, 10, 11, 67
11, 126745, Control_c, 10, 1, 16
11, 126768, Control_c, 10, 1, 17
11, 126784, Control_c, 10, 11, 68
11, 126833, Control_c, 10, 11, 69
11, 126860, Note_on_c, 10, 64, 0
11, 126864, Control_c, 10, 1, 0
11, 126864, Note_on_c, 10, 64, 120
11, 126865, Control_c, 10, 1, 2
11, 126866, Control_c, 10, 1, 3
11, 126867, Control_c, 10, 1, 4
11, 126869, Control_c, 10, 1, 5
11, 126870, Control_c, 10, 1, 6
11, 126872, Control_c, 10, 1, 7
11, 126873, Control_c, 10, 1, 8
11, 126875, Control_c, 10, 1, 9
11, 126877, Control_c, 10, 1, 10
11, 126879, Control_c, 10, 1, 11
11, 126882, Control_c, 10, 1, 12
11, 126883, Control_c, 10, 11, 70
11, 126885, Control_c, 10, 1, 13
11, 126889, Control_c, 10, 1, 14
11, 126894, Control_c, 10, 1, 15
11, 126900, Control_c, 10, 1, 16
11, 126912, Control_c, 10, 1, 17
11, 126933, Control_c, 10, 11, 71
11, 126983, Control_c, 10, 11, 72
11, 127033, Control_c, 10, 11, 73
11, 127052, Note_on_c, 10, 64, 0
11, 127056, Control_c, 10, 1, 0
11, 127056, Note_on_c, 10, 64, 120
11, 127057, Control_c, 10, 1, 2
11, 127058, Control_c, 10, 1, 3
11, 127059, Control_c, 10, 1, 4
11, 127061, Control_c, 10, 1, 5
11, 127062, Control_c, 10, 1, 6
11, 127064, Control_c, 10, 1, 7
11, 127065, Control_c, 10, 1, 8
11, 127067, Control_c, 10, 1, 9
11, 127069, Control_c, 10, 1, 10
11, 127071, Control_c, 10, 1, 11
11, 127074, Control_c, 10, 1, 12
11, 127077, Control_c, 10, 1, 13
11, 127081, Control_c, 10, 1, 14
11, 127083, Control_c, 10, 11, 74
11, 127086, Control_c, 10, 1, 15
11, 127092, Control_c, 10, 1, 16
11, 127104, Control_c, 10, 1, 17
11, 127133, Control_c, 10, 11, 75
11, 127183, Control_c, 10, 11, 76
11, 127232, Control_c, 10, 11, 77
11, 127244, Note_on_c, 10, 64, 0
11, 127248, Control_c, 10, 1, 0
11, 127248, Note_on_c, 10, 64, 120
11, 127249, Control_c, 10, 1, 2
11, 127250, Control_c, 10, 1, 3
11, 127251, Control_c, 10, 1, 4
11, 127253, Control_c, 10, 1, 5
11, 127254, Control_c, 10, 1, 6
11, 127256, Control_c, 10, 1, 7
11, 127257, Control_c, 10, 1, 8
11, 127259, Control_c, 10, 1, 9
11, 127261, Control_c, 10, 1, 10
11, 127263, Control_c, 10, 1, 11
11, 127266, Control_c, 10, 1, 12
11, 127269, Control_c, 10, 1, 13
11, 127273, Control_c, 10, 1, 14
11, 127278, Control_c, 10, 1, 15
11, 127282, Control_c, 10, 11, 78
11, 127284, Control_c, 10, 1, 16
11, 127296, Control_c, 10, 1, 17
11, 127332, Control_c, 10, 11, 79
11, 127382, Control_c, 10, 11, 80
11, 127432, Control_c, 10, 11, 81
11, 127436, Note_on_c, 10, 64, 0
11, 127440, Control_c, 10, 1, 0
11, 127440, Note_on_c, 10, 64, 120
11, 127441, Control_c, 10, 1, 2
11, 127442, Control_c, 10, 1, 3
11, 127443, Control_c, 10, 1, 4
11, 127445, Control_c, 10, 1, 5
11, 127446, Control_c, 10, 1, 6
11, 127448, Control_c, 10, 1, 7
11, 127449, Control_c, 10, 1, 8
11, 127451, Control_c, 10, 1, 9
11, 127453, Control_c, 10, 1, 10
11, 127455, Control_c, 10, 1, 11
11, 127458, Control_c, 10, 1, 12
11, 127461, Control_c, 10, 1, 13
11, 127465, Control_c, 10, 1, 14
11, 127470, Control_c, 10, 1, 15
11, 127476, Control_c, 10, 1, 16
11, 127482, Control_c, 10, 11, 82
11, 127488, Control_c, 10, 1, 17
11, 127532, Control_c, 10, 11, 83
11, 127582, Control_c, 10, 11, 84
11, 127628, Note_on_c, 10, 64, 0
11, 127631, Control_c, 10, 11, 85
11, 127632, Control_c, 10, 11, 60
11, 127632, Control_c, 10, 1, 0
11, 127632, Note_on_c, 10, 64, 120
11, 127633, Control_c, 10, 1, 1
11, 127634, Control_c, 10, 1, 2
11, 127636, Control_c, 10, 1, 3
11, 127638, Control_c, 10, 1, 4
11, 127641, Control_c, 10, 1, 5
11, 127644, Control_c, 10, 1, 6
11, 127647, Control_c, 10, 1, 7
11, 127650, Control_c, 10, 1, 8
11, 127654, Control_c, 10, 1, 9
11, 127658, Control_c, 10, 1, 10
11, 127662, Control_c, 10, 1, 11
11, 127668, Control_c, 10, 1, 12
11, 127674, Control_c, 10, 1, 13
11, 127682, Control_c, 10, 1, 14
11, 127691, Control_c, 10, 1, 15
11, 127705, Control_c, 10, 1, 16
11, 127728, Control_c, 10, 1, 17
11, 127824, Note_on_c, 10, 64, 0
11, 127824, Note_on_c, 10, 60, 120
11, 128016, Note_on_c, 10, 60, 0
11, 128016, Control_c, 10, 11, 60
11, 128016, Note_on_c, 10, 60, 120
11, 128028, Control_c, 10, 11, 61
11, 128039, Control_c, 10, 11, 62
11, 128051, Control_c, 10, 11, 63
11, 128062, Control_c, 10, 11, 64
11, 128074, Control_c, 10, 11, 65
11, 128085, Control_c, 10, 11, 66
11, 128097, Control_c, 10, 11, 67
11, 128108, Control_c, 10, 11, 68
11, 128112, Note_on_c, 10, 64, 120
11, 128113, Note_on_c, 10, 60, 0
11, 128120, Control_c, 10, 11, 69
11, 128131, Control_c, 10, 11, 70
11, 128143, Control_c, 10, 11, 71
11, 128154, Control_c, 10, 11, 72
11, 128166, Control_c, 10, 11, 73
11, 128177, Control_c, 10, 11, 74
11, 128189, Control_c, 10, 11, 75
11, 128200, Control_c, 10, 11, 76
11, 128208, Note_on_c, 10, 64, 0
11, 128208, Note_on_c, 10, 69, 120
11, 128212, Control_c, 10, 11, 77
11, 128223, Control_c, 10, 11, 78
11, 128235, Control_c, 10, 11, 79
11, 128246, Control_c, 10, 11, 80
11, 128258, Control_c, 10, 11, 81
11, 128269, Control_c, 10, 11, 82
11, 128281, Control_c, 10, 11, 83
11, 128292, Control_c, 10, 11, 84
11, 128303, Control_c, 10, 11, 85
11, 128304, Note_on_c, 10, 69, 0
11, 128304, Control_c, 10, 11, 95
11, 128304, Control_c, 10, 1, 0
11, 128304, Note_on_c, 10, 69, 120
11, 128305, Control_c, 10, 11, 90
11, 128305, Control_c, 10, 1, 1
11, 128306, Control_c, 10, 11, 87
11, 128306, Control_c, 10, 1, 2
11, 128307, Control_c, 10, 11, 84
11, 128308, Control_c, 10, 11, 81
11, 128308, Control_c, 10, 1, 3
11, 128309, Control_c, 10, 11, 79
11, 128310, Control_c, 10, 11, 77
11, 128310, Control_c, 10, 1, 4
11, 128311, Control_c, 10, 11, 74
11, 128312, Control_c, 10, 11, 73
11, 128313, Control_c, 10, 11, 71
11, 128313, Control_c, 10, 1, 5
11, 128314, Control_c, 10, 11, 70
11, 128315, Control_c, 10, 11, 69
11, 128316, Control_c, 10, 11, 68
11, 128316, Control_c, 10, 1, 6
11, 128317, Control_c, 10, 11, 67
11, 128318, Control_c, 10, 11, 66
11, 128319, Control_c, 10, 11, 65
11, 128319, Control_c, 10, 1, 7
11, 128321, Control_c, 10, 11, 64
11, 128322, Control_c, 10, 11, 63
11, 128322, Control_c, 10, 1, 8
11, 128325, Control_c, 10, 11, 62
11, 128326, Control_c, 10, 1, 9
11, 128328, Control_c, 10, 11, 61
11, 128330, Control_c, 10, 1, 10
11, 128334, Control_c, 10, 11, 60
11, 128334, Control_c, 10, 1, 11
11, 128340, Control_c, 10, 1, 12
11, 128346, Control_c, 10, 1, 13
11, 128354, Control_c, 10, 1, 14
11, 128363, Control_c, 10, 1, 15
11, 128377, Control_c, 10, 1, 16
11, 128400, Control_c, 10, 1, 17
11, 128496, Control_c, 10, 11, 60
11, 128538, Control_c, 10, 11, 61
11, 128579, Control_c, 10, 11, 62
11, 128620, Control_c, 10, 11, 63
11, 128661, Control_c, 10, 11, 64
11, 128702, Control_c, 10, 11, 65
11, 128743, Control_c, 10, 11, 66
11, 128784, Control_c, 10, 11, 67
11, 128825, Control_c, 10, 11, 68
11, 128867, Control_c, 10, 11, 69
11, 128908, Control_c, 10, 11, 70
11, 128949, Control_c, 10, 11, 71
11, 128990, Control_c, 10, 11, 72
11, 129031, Control_c, 10, 11, 73
11, 129072, Note_on_c, 10, 57, 120
11, 129072, Control_c, 10, 11, 74
11, 129113, Control_c, 10, 11, 75
11, 129154, Control_c, 10, 11, 76
11, 129195, Control_c, 10, 11, 77
11, 129237, Control_c, 10, 11, 78
11, 129278, Control_c, 10, 11, 79
11, 129319, Control_c, 10, 11, 80
11, 129360, Control_c, 10, 11, 81
11, 129401, Control_c, 10, 11, 82
11, 129442, Control_c, 10, 11, 83
11, 129483, Control_c, 10, 11, 84
11, 129524, Control_c, 10, 11, 85
11, 129565, Control_c, 10, 11, 86
11, 129607, Control_c, 10, 11, 87
11, 129648, Control_c, 10, 11, 88
11, 129689, Control_c, 10, 11, 89
11, 129730, Control_c, 10, 11, 90
11, 129771, Control_c, 10, 11, 91
11, 129812, Control_c, 10, 11, 92
11, 129853, Control_c, 10, 11, 93
11, 129894, Control_c, 10, 11, 94
11, 129935, Control_c, 10, 11, 95
11, 129936, Note_on_c, 10, 69, 0
11, 129936, Note_on_c, 10, 57, 0
11, 129936, Control_c, 10, 1, 0
11, 129936, Note_on_c, 10, 57, 120
11, 129936, Note_on_c, 10, 69, 120
11, 129937, Control_c, 10, 1, 2
11, 129938, Control_c, 10, 1, 3
11, 129939, Control_c, 10, 1, 4
11, 129941, Control_c, 10, 1, 5
11, 129942, Control_c, 10, 1, 6
11, 129944, Control_c, 10, 1, 7
11, 129945, Control_c, 10, 1, 8
11, 129947, Control_c, 10, 1, 9
11, 129949, Control_c, 10, 1, 10
11, 129951, Control_c, 10, 1, 11
11, 129954, Control_c, 10, 1, 12
11, 129957, Control_c, 10, 1, 13
11, 129961, Control_c, 10, 1, 14
11, 129966, Control_c, 10, 1, 15
11, 129972, Control_c, 10, 1, 16
11, 129984, Control_c, 10, 1, 17
11, 130032, Note_on_c, 10, 69, 0
11, 130032, Note_on_c, 10, 57, 0
11, 130032, Control_c, 10, 1, 0
11, 130032, Note_on_c, 10, 57, 120
11, 130032, Note_on_c, 10, 69, 120
11, 130033, Control_c, 10, 1, 1
11, 130034, Control_c, 10, 1, 2
11, 130036, Control_c, 10, 1, 3
11, 130038, Control_c, 10, 1, 4
11, 130041, Control_c, 10, 1, 5
11, 130044, Control_c, 10, 1, 6
11, 130047, Control_c, 10, 1, 7
11, 130050, Control_c, 10, 1, 8
11, 130054, Control_c, 10, 1, 9
11, 130058, Control_c, 10, 1, 10
11, 130062, Control_c, 10, 1, 11
11, 130068, Control_c, 10, 1, 12
11, 130074, Control_c, 10, 1, 13
11, 130082, Control_c, 10, 1, 14
11, 130091, Control_c, 10, 1, 15
11, 130105, Control_c, 10, 1, 16
11, 130128, Control_c, 10, 1, 17
11, 131184, Control_c, 10, 1, 0
11, 131184, Note_on_c, 10, 67, 120
11, 131185, Note_on_c, 10, 69, 0
11, 131185, Note_on_c, 10, 57, 0
11, 131208, Note_on_c, 10, 67, 0
11, 131232, Note_on_c, 10, 67, 120
11, 131256, Note_on_c, 10, 67, 0
11, 131280, Note_on_c, 10, 66, 120
11, 131304, Note_on_c, 10, 66, 0
11, 131328, Note_on_c, 10, 66, 120
11, 131352, Note_on_c, 10, 66, 0
11, 131376, Note_on_c, 10, 54, 120
11, 131376, Note_on_c, 10, 62, 120
11, 131400, Note_on_c, 10, 62, 0
11, 131400, Note_on_c, 10, 54, 0
11, 134448, Control_c, 10, 1, 0
11, 134448, Control_c, 10, 11, 100
11, 134448, Note_on_c, 10, 62, 120
11, 134449, Control_c, 10, 11, 90
11, 134449, Control_c, 10, 1, 1
11, 134450, Control_c, 10, 11, 84
11, 134450, Control_c, 10, 1, 2
11, 134451, Control_c, 10, 11, 79
11, 134451, Control_c, 10, 1, 3
11, 134452, Control_c, 10, 11, 75
11, 134453, Control_c, 10, 11, 71
11, 134454, Control_c, 10, 11, 69
11, 134454, Control_c, 10, 1, 4
11, 134455, Control_c, 10, 11, 67
11, 134456, Control_c, 10, 11, 65
11, 134456, Control_c, 10, 1, 5
11, 134457, Control_c, 10, 11, 64
11, 134458, Control_c, 10, 11, 63
11, 134458, Control_c, 10, 1, 6
11, 134459, Control_c, 10, 11, 62
11, 134460, Control_c, 10, 1, 7
11, 134461, Control_c, 10, 11, 61
11, 134463, Control_c, 10, 11, 60
11, 134463, Control_c, 10, 1, 8
11, 134466, Control_c, 10, 1, 9
11, 134469, Control_c, 10, 1, 10
11, 134472, Control_c, 10, 1, 11
11, 134475, Control_c, 10, 1, 12
11, 134480, Control_c, 10, 1, 13
11, 134484, Control_c, 10, 1, 14
11, 134490, Control_c, 10, 1, 15
11, 134496, Control_c, 10, 1, 16
11, 134503, Control_c, 10, 1, 17
11, 134513, Control_c, 10, 1, 18
11, 134527, Control_c, 10, 1, 19
11, 134551, Control_c, 10, 1, 20
11, 134736, Note_on_c, 10, 62, 0
11, 134736, Control_c, 10, 1, 0
11, 134736, Note_on_c, 10, 64, 120
11, 134737, Control_c, 10, 1, 1
11, 134738, Control_c, 10, 1, 2
11, 134739, Control_c, 10, 1, 3
11, 134740, Control_c, 10, 1, 4
11, 134742, Control_c, 10, 1, 5
11, 134743, Control_c, 10, 1, 6
11, 134745, Control_c, 10, 1, 7
11, 134747, Control_c, 10, 1, 8
11, 134749, Control_c, 10, 1, 9
11, 134752, Control_c, 10, 1, 10
11, 134755, Control_c, 10, 1, 11
11, 134759, Control_c, 10, 1, 12
11, 134764, Control_c, 10, 1, 13
11, 134770, Control_c, 10, 1, 14
11, 134782, Control_c, 10, 1, 15
11, 134832, Note_on_c, 10, 64, 0
11, 134832, Control_c, 10, 1, 0
11, 134832, Note_on_c, 10, 66, 120
11, 134833, Control_c, 10, 1, 1
11, 134834, Control_c, 10, 1, 2
11, 134836, Control_c, 10, 1, 3
11, 134838, Control_c, 10, 1, 4
11, 134840, Control_c, 10, 1, 5
11, 134843, Control_c, 10, 1, 6
11, 134845, Control_c, 10, 1, 7
11, 134848, Control_c, 10, 1, 8
11, 134851, Control_c, 10, 1, 9
11, 134856, Control_c, 10, 1, 10
11, 134860, Control_c, 10, 1, 11
11, 134866, Control_c, 10, 1, 12
11, 134873, Control_c, 10, 1, 13
11, 134883, Control_c, 10, 1, 14
11, 134901, Control_c, 10, 1, 15
11, 134976, Note_on_c, 10, 66, 0
11, 134976, Note_on_c, 10, 67, 120
11, 135000, Note_on_c, 10, 67, 0
11, 135000, Note_on_c, 10, 69, 120
11, 135024, Note_on_c, 10, 69, 0
11, 135024, Control_c, 10, 1, 0
11, 135024, Note_on_c, 10, 67, 120
11, 135048, Note_on_c, 10, 67, 0
11, 135072, Note_on_c, 10, 67, 120
11, 135096, Note_on_c, 10, 67, 0
11, 135120, Note_on_c, 10, 66, 120
11, 135144, Note_on_c, 10, 66, 0
11, 135168, Note_on_c, 10, 66, 120
11, 135192, Note_on_c, 10, 66, 0
11, 135216, Note_on_c, 10, 64, 120
11, 135288, Note_on_c, 10, 64, 0
11, 135312, Control_c, 10, 1, 0
11, 135312, Note_on_c, 10, 62, 120
11, 135313, Control_c, 10, 1, 1
11, 135315, Control_c, 10, 1, 2
11, 135317, Control_c, 10, 1, 3
11, 135320, Control_c, 10, 1, 4
11, 135323, Control_c, 10, 1, 5
11, 135326, Control_c, 10, 1, 6
11, 135330, Control_c, 10, 1, 7
11, 135333, Control_c, 10, 1, 8
11, 135338, Control_c, 10, 1, 9
11, 135344, Control_c, 10, 1, 10
11, 135350, Control_c, 10, 1, 11
11, 135357, Control_c, 10, 1, 12
11, 135367, Control_c, 10, 1, 13
11, 135380, Control_c, 10, 1, 14
11, 135404, Control_c, 10, 1, 15
11, 135504, Control_c, 10, 1, 0
11, 135504, Note_on_c, 10, 64, 120
11, 135505, Note_on_c, 10, 62, 0
11, 135505, Control_c, 10, 1, 1
11, 135506, Control_c, 10, 1, 2
11, 135507, Control_c, 10, 1, 3
11, 135508, Control_c, 10, 1, 4
11, 135510, Control_c, 10, 1, 5
11, 135511, Control_c, 10, 1, 6
11, 135513, Control_c, 10, 1, 7
11, 135515, Control_c, 10, 1, 8
11, 135517, Control_c, 10, 1, 9
11, 135520, Control_c, 10, 1, 10
11, 135523, Control_c, 10, 1, 11
11, 135527, Control_c, 10, 1, 12
11, 135532, Control_c, 10, 1, 13
11, 135538, Control_c, 10, 1, 14
11, 135550, Control_c, 10, 1, 15
11, 135600, Note_on_c, 10, 64, 0
11, 135600, Control_c, 10, 1, 0
11, 135600, Note_on_c, 10, 66, 120
11, 135601, Control_c, 10, 1, 1
11, 135602, Control_c, 10, 1, 2
11, 135604, Control_c, 10, 1, 3
11, 135606, Control_c, 10, 1, 4
11, 135608, Control_c, 10, 1, 5
11, 135611, Control_c, 10, 1, 6
11, 135613, Control_c, 10, 1, 7
11, 135616, Control_c, 10, 1, 8
11, 135619, Control_c, 10, 1, 9
11, 135624, Control_c, 10, 1, 10
11, 135628, Control_c, 10, 1, 11
11, 135634, Control_c, 10, 1, 12
11, 135641, Control_c, 10, 1, 13
11, 135651, Control_c, 10, 1, 14
11, 135669, Control_c, 10, 1, 15
11, 135744, Note_on_c, 10, 66, 0
11, 135744, Note_on_c, 10, 67, 120
11, 135768, Note_on_c, 10, 67, 0
11, 135768, Note_on_c, 10, 69, 120
11, 135792, Note_on_c, 10, 69, 0
11, 135792, Control_c, 10, 1, 0
11, 135792, Note_on_c, 10, 67, 120
11, 135816, Note_on_c, 10, 67, 0
11, 135840, Note_on_c, 10, 67, 120
11, 135864, Note_on_c, 10, 67, 0
11, 135888, Note_on_c, 10, 66, 120
11, 135912, Note_on_c, 10, 66, 0
11, 135936, Note_on_c, 10, 66, 120
11, 135960, Note_on_c, 10, 66, 0
11, 135984, Note_on_c, 10, 64, 120
11, 136008, Note_on_c, 10, 64, 0
11, 136080, Control_c, 10, 1, 0
11, 136080, Note_on_c, 10, 62, 120
11, 136081, Control_c, 10, 1, 1
11, 136083, Control_c, 10, 1, 2
11, 136085, Control_c, 10, 1, 3
11, 136088, Control_c, 10, 1, 4
11, 136091, Control_c, 10, 1, 5
11, 136094, Control_c, 10, 1, 6
11, 136098, Control_c, 10, 1, 7
11, 136101, Control_c, 10, 1, 8
11, 136106, Control_c, 10, 1, 9
11, 136112, Control_c, 10, 1, 10
11, 136118, Control_c, 10, 1, 11
11, 136125, Control_c, 10, 1, 12
11, 136135, Control_c, 10, 1, 13
11, 136148, Control_c, 10, 1, 14
11, 136172, Control_c, 10, 1, 15
11, 136272, Control_c, 10, 1, 0
11, 136272, Note_on_c, 10, 64, 120
11, 136273, Note_on_c, 10, 62, 0
11, 136273, Control_c, 10, 1, 1
11, 136274, Control_c, 10, 1, 2
11, 136275, Control_c, 10, 1, 3
11, 136276, Control_c, 10, 1, 4
11, 136278, Control_c, 10, 1, 5
11, 136279, Control_c, 10, 1, 6
11, 136281, Control_c, 10, 1, 7
11, 136283, Control_c, 10, 1, 8
11, 136285, Control_c, 10, 1, 9
11, 136288, Control_c, 10, 1, 10
11, 136291, Control_c, 10, 1, 11
11, 136295, Control_c, 10, 1, 12
11, 136300, Control_c, 10, 1, 13
11, 136306, Control_c, 10, 1, 14
11, 136318, Control_c, 10, 1, 15
11, 136368, Note_on_c, 10, 64, 0
11, 136368, Control_c, 10, 1, 0
11, 136368, Note_on_c, 10, 66, 120
11, 136369, Control_c, 10, 1, 1
11, 136370, Control_c, 10, 1, 2
11, 136372, Control_c, 10, 1, 3
11, 136374, Control_c, 10, 1, 4
11, 136376, Control_c, 10, 1, 5
11, 136379, Control_c, 10, 1, 6
11, 136381, Control_c, 10, 1, 7
11, 136384, Control_c, 10, 1, 8
11, 136387, Control_c, 10, 1, 9
11, 136392, Control_c, 10, 1, 10
11, 136396, Control_c, 10, 1, 11
11, 136402, Control_c, 10, 1, 12
11, 136409, Control_c, 10, 1, 13
11, 136419, Control_c, 10, 1, 14
11, 136437, Control_c, 10, 1, 15
11, 136512, Note_on_c, 10, 66, 0
11, 136512, Note_on_c, 10, 67, 120
11, 136536, Note_on_c, 10, 67, 0
11, 136536, Note_on_c, 10, 69, 120
11, 136560, Note_on_c, 10, 69, 0
11, 136560, Control_c, 10, 1, 0
11, 136560, Note_on_c, 10, 67, 120
11, 136584, Note_on_c, 10, 67, 0
11, 136608, Note_on_c, 10, 67, 120
11, 136632, Note_on_c, 10, 67, 0
11, 136656, Note_on_c, 10, 66, 120
11, 136680, Note_on_c, 10, 66, 0
11, 136704, Note_on_c, 10, 66, 120
11, 136728, Note_on_c, 10, 66, 0
11, 136752, Note_on_c, 10, 64, 120
11, 136824, Note_on_c, 10, 64, 0
11, 136848, Control_c, 10, 1, 0
11, 136848, Note_on_c, 10, 62, 120
11, 136849, Control_c, 10, 1, 1
11, 136851, Control_c, 10, 1, 2
11, 136853, Control_c, 10, 1, 3
11, 136856, Control_c, 10, 1, 4
11, 136859, Control_c, 10, 1, 5
11, 136862, Control_c, 10, 1, 6
11, 136866, Control_c, 10, 1, 7
11, 136869, Control_c, 10, 1, 8
11, 136874, Control_c, 10, 1, 9
11, 136880, Control_c, 10, 1, 10
11, 136886, Control_c, 10, 1, 11
11, 136893, Control_c, 10, 1, 12
11, 136903, Control_c, 10, 1, 13
11, 136916, Control_c, 10, 1, 14
11, 136940, Control_c, 10, 1, 15
11, 137040, Control_c, 10, 1, 0
11, 137040, Note_on_c, 10, 64, 120
11, 137041, Note_on_c, 10, 62, 0
11, 137041, Control_c, 10, 1, 1
11, 137042, Control_c, 10, 1, 2
11, 137043, Control_c, 10, 1, 3
11, 137044, Control_c, 10, 1, 4
11, 137046, Control_c, 10, 1, 5
11, 137047, Control_c, 10, 1, 6
11, 137049, Control_c, 10, 1, 7
11, 137051, Control_c, 10, 1, 8
11, 137053, Control_c, 10, 1, 9
11, 137056, Control_c, 10, 1, 10
11, 137059, Control_c, 10, 1, 11
11, 137063, Control_c, 10, 1, 12
11, 137068, Control_c, 10, 1, 13
11, 137074, Control_c, 10, 1, 14
11, 137086, Control_c, 10, 1, 15
11, 137136, Note_on_c, 10, 64, 0
11, 137136, Control_c, 10, 1, 0
11, 137136, Note_on_c, 10, 66, 120
11, 137137, Control_c, 10, 1, 1
11, 137138, Control_c, 10, 1, 2
11, 137140, Control_c, 10, 1, 3
11, 137142, Control_c, 10, 1, 4
11, 137144, Control_c, 10, 1, 5
11, 137147, Control_c, 10, 1, 6
11, 137149, Control_c, 10, 1, 7
11, 137152, Control_c, 10, 1, 8
11, 137155, Control_c, 10, 1, 9
11, 137160, Control_c, 10, 1, 10
11, 137164, Control_c, 10, 1, 11
11, 137170, Control_c, 10, 1, 12
11, 137177, Control_c, 10, 1, 13
11, 137187, Control_c, 10, 1, 14
11, 137205, Control_c, 10, 1, 15
11, 137280, Note_on_c, 10, 66, 0
11, 137280, Note_on_c, 10, 67, 120
11, 137304, Note_on_c, 10, 67, 0
11, 137304, Note_on_c, 10, 69, 120
11, 137328, Note_on_c, 10, 69, 0
11, 137328, Control_c, 10, 1, 0
11, 137328, Note_on_c, 10, 67, 120
11, 137352, Note_on_c, 10, 67, 0
11, 137376, Note_on_c, 10, 67, 120
11, 137400, Note_on_c, 10, 67, 0
11, 137424, Note_on_c, 10, 66, 120
11, 137448, Note_on_c, 10, 66, 0
11, 137472, Note_on_c, 10, 66, 120
11, 137496, Note_on_c, 10, 66, 0
11, 137520, Note_on_c, 10, 64, 120
11, 137544, Note_on_c, 10, 64, 0
11, 138768, Control_c, 10, 1, 0
11, 138768, Note_on_c, 10, 57, 120
11, 138769, Control_c, 10, 1, 1
11, 138770, Control_c, 10, 1, 2
11, 138772, Control_c, 10, 1, 3
11, 138774, Control_c, 10, 1, 4
11, 138777, Control_c, 10, 1, 5
11, 138780, Control_c, 10, 1, 6
11, 138783, Control_c, 10, 1, 7
11, 138786, Control_c, 10, 1, 8
11, 138790, Control_c, 10, 1, 9
11, 138794, Control_c, 10, 1, 10
11, 138798, Control_c, 10, 1, 11
11, 138804, Control_c, 10, 1, 12
11, 138810, Control_c, 10, 1, 13
11, 138818, Control_c, 10, 1, 14
11, 138827, Control_c, 10, 1, 15
11, 138841, Control_c, 10, 1, 16
11, 138864, Control_c, 10, 1, 17
11, 138956, Note_on_c, 10, 57, 0
11, 138960, Control_c, 10, 1, 0
11, 138960, Note_on_c, 10, 57, 120
11, 138961, Control_c, 10, 1, 2
11, 138962, Control_c, 10, 1, 3
11, 138963, Control_c, 10, 1, 4
11, 138965, Control_c, 10, 1, 5
11, 138966, Control_c, 10, 1, 6
11, 138968, Control_c, 10, 1, 7
11, 138969, Control_c, 10, 1, 8
11, 138971, Control_c, 10, 1, 9
11, 138973, Control_c, 10, 1, 10
11, 138975, Control_c, 10, 1, 11
11, 138978, Control_c, 10, 1, 12
11, 138981, Control_c, 10, 1, 13
11, 138985, Control_c, 10, 1, 14
11, 138990, Control_c, 10, 1, 15
11, 138996, Control_c, 10, 1, 16
11, 139008, Control_c, 10, 1, 17
11, 139056, Note_on_c, 10, 57, 0
11, 139056, Control_c, 10, 1, 0
11, 139056, Note_on_c, 10, 57, 120
11, 139057, Control_c, 10, 1, 1
11, 139058, Control_c, 10, 1, 2
11, 139060, Control_c, 10, 1, 3
11, 139062, Control_c, 10, 1, 4
11, 139064, Control_c, 10, 1, 5
11, 139067, Control_c, 10, 1, 6
11, 139070, Control_c, 10, 1, 7
11, 139074, Control_c, 10, 1, 8
11, 139078, Control_c, 10, 1, 9
11, 139085, Control_c, 10, 1, 10
11, 139097, Control_c, 10, 1, 11
11, 139128, Note_on_c, 10, 57, 0
11, 139152, Control_c, 10, 1, 0
11, 139152, Note_on_c, 10, 57, 120
11, 139153, Control_c, 10, 1, 1
11, 139154, Control_c, 10, 1, 2
11, 139156, Control_c, 10, 1, 3
11, 139158, Control_c, 10, 1, 4
11, 139161, Control_c, 10, 1, 5
11, 139164, Control_c, 10, 1, 6
11, 139167, Control_c, 10, 1, 7
11, 139170, Control_c, 10, 1, 8
11, 139174, Control_c, 10, 1, 9
11, 139178, Control_c, 10, 1, 10
11, 139182, Control_c, 10, 1, 11
11, 139188, Control_c, 10, 1, 12
11, 139194, Control_c, 10, 1, 13
11, 139202, Control_c, 10, 1, 14
11, 139211, Control_c, 10, 1, 15
11, 139225, Control_c, 10, 1, 16
11, 139248, Control_c, 10, 1, 17
11, 139340, Note_on_c, 10, 57, 0
11, 139344, Control_c, 10, 1, 0
11, 139344, Note_on_c, 10, 57, 120
11, 139345, Control_c, 10, 1, 1
11, 139346, Control_c, 10, 1, 2
11, 139347, Control_c, 10, 1, 3
11, 139349, Control_c, 10, 1, 4
11, 139351, Control_c, 10, 1, 5
11, 139353, Control_c, 10, 1, 6
11, 139356, Control_c, 10, 1, 7
11, 139359, Control_c, 10, 1, 8
11, 139363, Control_c, 10, 1, 9
11, 139368, Control_c, 10, 1, 10
11, 139375, Control_c, 10, 1, 11
11, 139386, Control_c, 10, 1, 12
11, 139440, Note_on_c, 10, 57, 0
11, 139440, Note_on_c, 10, 57, 120
11, 139512, Note_on_c, 10, 57, 0
11, 139536, Control_c, 10, 1, 0
11, 139536, Note_on_c, 10, 57, 120
11, 139537, Control_c, 10, 1, 1
11, 139538, Control_c, 10, 1, 2
11, 139541, Control_c, 10, 1, 3
11, 139543, Control_c, 10, 1, 4
11, 139546, Control_c, 10, 1, 5
11, 139549, Control_c, 10, 1, 6
11, 139552, Control_c, 10, 1, 7
11, 139556, Control_c, 10, 1, 8
11, 139560, Control_c, 10, 1, 9
11, 139565, Control_c, 10, 1, 10
11, 139570, Control_c, 10, 1, 11
11, 139576, Control_c, 10, 1, 12
11, 139584, Control_c, 10, 1, 13
11, 139594, Control_c, 10, 1, 14
11, 139608, Control_c, 10, 1, 15
11, 139632, Control_c, 10, 11, 60
11, 139632, Control_c, 10, 1, 16
11, 139682, Control_c, 10, 11, 61
11, 139724, Note_on_c, 10, 57, 0
11, 139728, Control_c, 10, 1, 0
11, 139728, Note_on_c, 10, 64, 120
11, 139729, Control_c, 10, 1, 2
11, 139731, Control_c, 10, 1, 3
11, 139732, Control_c, 10, 11, 62
11, 139732, Control_c, 10, 1, 4
11, 139733, Control_c, 10, 1, 5
11, 139735, Control_c, 10, 1, 6
11, 139736, Control_c, 10, 1, 7
11, 139738, Control_c, 10, 1, 8
11, 139740, Control_c, 10, 1, 9
11, 139743, Control_c, 10, 1, 10
11, 139745, Control_c, 10, 1, 11
11, 139748, Control_c, 10, 1, 12
11, 139752, Control_c, 10, 1, 13
11, 139757, Control_c, 10, 1, 14
11, 139764, Control_c, 10, 1, 15
11, 139776, Control_c, 10, 1, 16
11, 139782, Control_c, 10, 11, 63
11, 139824, Note_on_c, 10, 64, 0
11, 139824, Control_c, 10, 1, 0
11, 139824, Note_on_c, 10, 64, 120
11, 139825, Control_c, 10, 1, 2
11, 139826, Control_c, 10, 1, 3
11, 139827, Control_c, 10, 1, 4
11, 139829, Control_c, 10, 1, 5
11, 139830, Control_c, 10, 1, 6
11, 139832, Control_c, 10, 11, 64
11, 139832, Control_c, 10, 1, 7
11, 139833, Control_c, 10, 1, 8
11, 139836, Control_c, 10, 1, 9
11, 139839, Control_c, 10, 1, 10
11, 139843, Control_c, 10, 1, 11
11, 139850, Control_c, 10, 1, 12
11, 139882, Control_c, 10, 11, 65
11, 139896, Note_on_c, 10, 64, 0
11, 139920, Control_c, 10, 1, 0
11, 139920, Note_on_c, 10, 64, 120
11, 139921, Control_c, 10, 1, 1
11, 139922, Control_c, 10, 1, 2
11, 139924, Control_c, 10, 1, 3
11, 139926, Control_c, 10, 1, 4
11, 139929, Control_c, 10, 1, 5
11, 139932, Control_c, 10, 11, 66
11, 139932, Control_c, 10, 1, 6
11, 139935, Control_c, 10, 1, 7
11, 139938, Control_c, 10, 1, 8
11, 139942, Control_c, 10, 1, 9
11, 139946, Control_c, 10, 1, 10
11, 139950, Control_c, 10, 1, 11
11, 139956, Control_c, 10, 1, 12
11, 139962, Control_c, 10, 1, 13
11, 139970, Control_c, 10, 1, 14
11, 139979, Control_c, 10, 1, 15
11, 139982, Control_c, 10, 11, 67
11, 139993, Control_c, 10, 1, 16
11, 140016, Control_c, 10, 1, 17
11, 140032, Control_c, 10, 11, 68
11, 140081, Control_c, 10, 11, 69
11, 140108, Note_on_c, 10, 64, 0
11, 140112, Control_c, 10, 1, 0
11, 140112, Note_on_c, 10, 64, 120
11, 140113, Control_c, 10, 1, 2
11, 140114, Control_c, 10, 1, 3
11, 140115, Control_c, 10, 1, 4
11, 140117, Control_c, 10, 1, 5
11, 140118, Control_c, 10, 1, 6
11, 140120, Control_c, 10, 1, 7
11, 140121, Control_c, 10, 1, 8
11, 140123, Control_c, 10, 1, 9
11, 140125, Control_c, 10, 1, 10
11, 140127, Control_c, 10, 1, 11
11, 140130, Control_c, 10, 1, 12
11, 140131, Control_c, 10, 11, 70
11, 140133, Control_c, 10, 1, 13
11, 140137, Control_c, 10, 1, 14
11, 140142, Control_c, 10, 1, 15
11, 140148, Control_c, 10, 1, 16
11, 140160, Control_c, 10, 1, 17
11, 140181, Control_c, 10, 11, 71
11, 140231, Control_c, 10, 11, 72
11, 140281, Control_c, 10, 11, 73
11, 140300, Note_on_c, 10, 64, 0
11, 140304, Control_c, 10, 1, 0
11, 140304, Note_on_c, 10, 64, 120
11, 140305, Control_c, 10, 1, 2
11, 140306, Control_c, 10, 1, 3
11, 140307, Control_c, 10, 1, 4
11, 140309, Control_c, 10, 1, 5
11, 140310, Control_c, 10, 1, 6
11, 140312, Control_c, 10, 1, 7
11, 140313, Control_c, 10, 1, 8
11, 140315, Control_c, 10, 1, 9
11, 140317, Control_c, 10, 1, 10
11, 140319, Control_c, 10, 1, 11
11, 140322, Control_c, 10, 1, 12
11, 140325, Control_c, 10, 1, 13
11, 140329, Control_c, 10, 1, 14
11, 140331, Control_c, 10, 11, 74
11, 140334, Control_c, 10, 1, 15
11, 140340, Control_c, 10, 1, 16
11, 140352, Control_c, 10, 1, 17
11, 140381, Control_c, 10, 11, 75
11, 140431, Control_c, 10, 11, 76
11, 140480, Control_c, 10, 11, 77
11, 140492, Note_on_c, 10, 64, 0
11, 140496, Control_c, 10, 1, 0
11, 140496, Note_on_c, 10, 64, 120
11, 140497, Control_c, 10, 1, 2
11, 140498, Control_c, 10, 1, 3
11, 140499, Control_c, 10, 1, 4
11, 140501, Control_c, 10, 1, 5
11, 140502, Control_c, 10, 1, 6
11, 140504, Control_c, 10, 1, 7
11, 140505, Control_c, 10, 1, 8
11, 140507, Control_c, 10, 1, 9
11, 140509, Control_c, 10, 1, 10
11, 140511, Control_c, 10, 1, 11
11, 140514, Control_c, 10, 1, 12
11, 140517, Control_c, 10, 1, 13
11, 140521, Control_c, 10, 1, 14
11, 140526, Control_c, 10, 1, 15
11, 140530, Control_c, 10, 11, 78
11, 140532, Control_c, 10, 1, 16
11, 140544, Control_c, 10, 1, 17
11, 140580, Control_c, 10, 11, 79
11, 140630, Control_c, 10, 11, 80
11, 140680, Control_c, 10, 11, 81
11, 140684, Note_on_c, 10, 64, 0
11, 140688, Control_c, 10, 1, 0
11, 140688, Note_on_c, 10, 64, 120
11, 140689, Control_c, 10, 1, 2
11, 140690, Control_c, 10, 1, 3
11, 140691, Control_c, 10, 1, 4
11, 140693, Control_c, 10, 1, 5
11, 140694, Control_c, 10, 1, 6
11, 140696, Control_c, 10, 1, 7
11, 140697, Control_c, 10, 1, 8
11, 140699, Control_c, 10, 1, 9
11, 140701, Control_c, 10, 1, 10
11, 140703, Control_c, 10, 1, 11
11, 140706, Control_c, 10, 1, 12
11, 140709, Control_c, 10, 1, 13
11, 140713, Control_c, 10, 1, 14
11, 140718, Control_c, 10, 1, 15
11, 140724, Control_c, 10, 1, 16
11, 140730, Control_c, 10, 11, 82
11, 140736, Control_c, 10, 1, 17
11, 140780, Control_c, 10, 11, 83
11, 140830, Control_c, 10, 11, 84
11, 140876, Note_on_c, 10, 64, 0
11, 140879, Control_c, 10, 11, 85
11, 140880, Control_c, 10, 11, 60
11, 140880, Control_c, 10, 1, 0
11, 140880, Note_on_c, 10, 64, 120
11, 140881, Control_c, 10, 1, 1
11, 140882, Control_c, 10, 1, 2
11, 140884, Control_c, 10, 1, 3
11, 140886, Control_c, 10, 1, 4
11, 140889, Control_c, 10, 1, 5
11, 140892, Control_c, 10, 1, 6
11, 140895, Control_c, 10, 1, 7
11, 140898, Control_c, 10, 1, 8
11, 140902, Control_c, 10, 1, 9
11, 140906, Control_c, 10, 1, 10
11, 140910, Control_c, 10, 1, 11
11, 140916, Control_c, 10, 1, 12
11, 140922, Control_c, 10, 1, 13
11, 140930, Control_c, 10, 1, 14
11, 140939, Control_c, 10, 1, 15
11, 140953, Control_c, 10, 1, 16
11, 140976, Control_c, 10, 1, 17
11, 141072, Note_on_c, 10, 64, 0
11, 141072, Note_on_c, 10, 60, 120
11, 141264, Note_on_c, 10, 60, 0
11, 141264, Control_c, 10, 11, 60
11, 141264, Note_on_c, 10, 60, 120
11, 141276, Control_c, 10, 11, 61
11, 141287, Control_c, 10, 11, 62
11, 141299, Control_c, 10, 11, 63
11, 141310, Control_c, 10, 11, 64
11, 141322, Control_c, 10, 11, 65
11, 141333, Control_c, 10, 11, 66
11, 141345, Control_c, 10, 11, 67
11, 141356, Control_c, 10, 11, 68
11, 141360, Note_on_c, 10, 64, 120
11, 141361, Note_on_c, 10, 60, 0
11, 141368, Control_c, 10, 11, 69
11, 141379, Control_c, 10, 11, 70
11, 141391, Control_c, 10, 11, 71
11, 141402, Control_c, 10, 11, 72
11, 141414, Control_c, 10, 11, 73
11, 141425, Control_c, 10, 11, 74
11, 141437, Control_c, 10, 11, 75
11, 141448, Control_c, 10, 11, 76
11, 141456, Note_on_c, 10, 64, 0
11, 141456, Note_on_c, 10, 69, 120
11, 141460, Control_c, 10, 11, 77
11, 141471, Control_c, 10, 11, 78
11, 141483, Control_c, 10, 11, 79
11, 141494, Control_c, 10, 11, 80
11, 141506, Control_c, 10, 11, 81
11, 141517, Control_c, 10, 11, 82
11, 141529, Control_c, 10, 11, 83
11, 141540, Control_c, 10, 11, 84
11, 141551, Control_c, 10, 11, 85
11, 141552, Note_on_c, 10, 69, 0
11, 141552, Control_c, 10, 11, 95
11, 141552, Control_c, 10, 1, 0
11, 141552, Note_on_c, 10, 69, 120
11, 141553, Control_c, 10, 11, 90
11, 141553, Control_c, 10, 1, 1
11, 141554, Control_c, 10, 11, 87
11, 141554, Control_c, 10, 1, 2
11, 141555, Control_c, 10, 11, 84
11, 141556, Control_c, 10, 11, 81
11, 141556, Control_c, 10, 1, 3
11, 141557, Control_c, 10, 11, 79
11, 141558, Control_c, 10, 11, 77
11, 141558, Control_c, 10, 1, 4
11, 141559, Control_c, 10, 11, 74
11, 141560, Control_c, 10, 11, 73
11, 141561, Control_c, 10, 11, 71
11, 141561, Control_c, 10, 1, 5
11, 141562, Control_c, 10, 11, 70
11, 141563, Control_c, 10, 11, 69
11, 141564, Control_c, 10, 11, 68
11, 141564, Control_c, 10, 1, 6
11, 141565, Control_c, 10, 11, 67
11, 141566, Control_c, 10, 11, 66
11, 141567, Control_c, 10, 11, 65
11, 141567, Control_c, 10, 1, 7
11, 141569, Control_c, 10, 11, 64
11, 141570, Control_c, 10, 11, 63
11, 141570, Control_c, 10, 1, 8
11, 141573, Control_c, 10, 11, 62
11, 141574, Control_c, 10, 1, 9
11, 141576, Control_c, 10, 11, 61
11, 141578, Control_c, 10, 1, 10
11, 141582, Control_c, 10, 11, 60
11, 141582, Control_c, 10, 1, 11
11, 141588, Control_c, 10, 1, 12
11, 141594, Control_c, 10, 1, 13
11, 141602, Control_c, 10, 1, 14
11, 141611, Control_c, 10, 1, 15
11, 141625, Control_c, 10, 1, 16
11, 141648, Control_c, 10, 1, 17
11, 141744, Control_c, 10, 11, 60
11, 141786, Control_c, 10, 11, 61
11, 141827, Control_c, 10, 11, 62
11, 141868, Control_c, 10, 11, 63
11, 141909, Control_c, 10, 11, 64
11, 141950, Control_c, 10, 11, 65
11, 141991, Control_c, 10, 11, 66
11, 142032, Control_c, 10, 11, 67
11, 142073, Control_c, 10, 11, 68
11, 142115, Control_c, 10, 11, 69
11, 142156, Control_c, 10, 11, 70
11, 142197, Control_c, 10, 11, 71
11, 142238, Control_c, 10, 11, 72
11, 142279, Control_c, 10, 11, 73
11, 142320, Note_on_c, 10, 57, 120
11, 142320, Control_c, 10, 11, 74
11, 142361, Control_c, 10, 11, 75
11, 142402, Control_c, 10, 11, 76
11, 142443, Control_c, 10, 11, 77
11, 142485, Control_c, 10, 11, 78
11, 142526, Control_c, 10, 11, 79
11, 142567, Control_c, 10, 11, 80
11, 142608, Control_c, 10, 11, 81
11, 142649, Control_c, 10, 11, 82
11, 142690, Control_c, 10, 11, 83
11, 142731, Control_c, 10, 11, 84
11, 142772, Control_c, 10, 11, 85
11, 142813, Control_c, 10, 11, 86
11, 142855, Control_c, 10, 11, 87
11, 142896, Control_c, 10, 11, 88
11, 142937, Control_c, 10, 11, 89
11, 142978, Control_c, 10, 11, 90
11, 143019, Control_c, 10, 11, 91
11, 143060, Control_c, 10, 11, 92
11, 143101, Control_c, 10, 11, 93
11, 143142, Control_c, 10, 11, 94
11, 143183, Control_c, 10, 11, 95
11, 143184, Note_on_c, 10, 69, 0
11, 143184, Note_on_c, 10, 57, 0
11, 143184, Control_c, 10, 1, 0
11, 143184, Note_on_c, 10, 57, 120
11, 143184, Note_on_c, 10, 69, 120
11, 143185, Control_c, 10, 1, 2
11, 143186, Control_c, 10, 1, 3
11, 143187, Control_c, 10, 1, 4
11, 143189, Control_c, 10, 1, 5
11, 143190, Control_c, 10, 1, 6
11, 143192, Control_c, 10, 1, 7
11, 143193, Control_c, 10, 1, 8
11, 143195, Control_c, 10, 1, 9
11, 143197, Control_c, 10, 1, 10
11, 143199, Control_c, 10, 1, 11
11, 143202, Control_c, 10, 1, 12
11, 143205, Control_c, 10, 1, 13
11, 143209, Control_c, 10, 1, 14
11, 143214, Control_c, 10, 1, 15
11, 143220, Control_c, 10, 1, 16
11, 143232, Control_c, 10, 1, 17
11, 143280, Note_on_c, 10, 69, 0
11, 143280, Note_on_c, 10, 57, 0
11, 143280, Control_c, 10, 1, 0
11, 143280, Note_on_c, 10, 57, 120
11, 143280, Note_on_c, 10, 69, 120
11, 143281, Control_c, 10, 1, 1
11, 143282, Control_c, 10, 1, 2
11, 143284, Control_c, 10, 1, 3
11, 143286, Control_c, 10, 1, 4
11, 143289, Control_c, 10, 1, 5
11, 143292, Control_c, 10, 1, 6
11, 143295, Control_c, 10, 1, 7
11, 143298, Control_c, 10, 1, 8
11, 143302, Control_c, 10, 1, 9
11, 143306, Control_c, 10, 1, 10
11, 143310, Control_c, 10, 1, 11
11, 143316, Control_c, 10, 1, 12
11, 143322, Control_c, 10, 1, 13
11, 143330, Control_c, 10, 1, 14
11, 143339, Control_c, 10, 1, 15
11, 143353, Control_c, 10, 1, 16
11, 143376, Control_c, 10, 1, 17
11, 144432, Control_c, 10, 1, 0
11, 144432, Note_on_c, 10, 67, 120
11, 144433, Note_on_c, 10, 69, 0
11, 144433, Note_on_c, 10, 57, 0
11, 144456, Note_on_c, 10, 67, 0
11, 144480, Note_on_c, 10, 67, 120
11, 144504, Note_on_c, 10, 67, 0
11, 144528, Note_on_c, 10, 66, 120
11, 144552, Note_on_c, 10, 66, 0
11, 144576, Note_on_c, 10, 66, 120
11, 144600, Note_on_c, 10, 66, 0
11, 144624, Control_c, 10, 1, 0
11, 144624, Control_c, 10, 11, 95
11, 144624, Note_on_c, 10, 50, 120
11, 144624, Note_on_c, 10, 62, 120
11, 144625, Control_c, 10, 11, 91
11, 144625, Control_c, 10, 1, 1
11, 144626, Control_c, 10, 11, 88
11, 144626, Control_c, 10, 1, 2
11, 144627, Control_c, 10, 11, 85
11, 144628, Control_c, 10, 11, 83
11, 144628, Control_c, 10, 1, 3
11, 144629, Control_c, 10, 11, 81
11, 144630, Control_c, 10, 11, 79
11, 144630, Control_c, 10, 1, 4
11, 144631, Control_c, 10, 11, 77
11, 144632, Control_c, 10, 11, 76
11, 144633, Control_c, 10, 11, 75
11, 144633, Control_c, 10, 1, 5
11, 144634, Control_c, 10, 11, 74
11, 144635, Control_c, 10, 11, 73
11, 144636, Control_c, 10, 11, 72
11, 144636, Control_c, 10, 1, 6
11, 144637, Control_c, 10, 11, 71
11, 144638, Control_c, 10, 11, 70
11, 144639, Control_c, 10, 1, 7
11, 144640, Control_c, 10, 11, 69
11, 144641, Control_c, 10, 11, 68
11, 144642, Control_c, 10, 1, 8
11, 144644, Control_c, 10, 11, 67
11, 144646, Control_c, 10, 1, 9
11, 144647, Control_c, 10, 11, 66
11, 144650, Control_c, 10, 1, 10
11, 144653, Control_c, 10, 11, 65
11, 144654, Control_c, 10, 1, 11
11, 144660, Control_c, 10, 1, 12
11, 144666, Control_c, 10, 1, 13
11, 144674, Control_c, 10, 1, 14
11, 144683, Control_c, 10, 1, 15
11, 144697, Control_c, 10, 1, 16
11, 144720, Control_c, 10, 1, 17
11, 145392, Control_c, 10, 11, 65
11, 145444, Control_c, 10, 11, 66
11, 145495, Control_c, 10, 11, 67
11, 145546, Control_c, 10, 11, 68
11, 145597, Control_c, 10, 11, 69
11, 145648, Control_c, 10, 11, 70
11, 145699, Control_c, 10, 11, 71
11, 145751, Control_c, 10, 11, 72
11, 145802, Control_c, 10, 11, 73
11, 145853, Control_c, 10, 11, 74
11, 145872, Note_on_c, 10, 62, 0
11, 145872, Note_on_c, 10, 62, 120
11, 145904, Control_c, 10, 11, 75
11, 145955, Control_c, 10, 11, 76
11, 146006, Control_c, 10, 11, 77
11, 146058, Control_c, 10, 11, 78
11, 146064, Note_on_c, 10, 62, 0
11, 146064, Note_on_c, 10, 64, 120
11, 146109, Control_c, 10, 11, 79
11, 146156, Note_on_c, 10, 64, 0
11, 146160, Note_on_c, 10, 50, 0
11, 146160, Note_on_c, 10, 50, 120
11, 146160, Note_on_c, 10, 66, 120
11, 146160, Control_c, 10, 11, 80
11, 146211, Control_c, 10, 11, 81
11, 146252, Note_on_c, 10, 66, 0
11, 146252, Note_on_c, 10, 50, 0
11, 146256, Control_c, 10, 1, 0
11, 146256, Note_on_c, 10, 62, 120
11, 146256, Note_on_c, 10, 66, 120
11, 146257, Control_c, 10, 1, 1
11, 146259, Control_c, 10, 1, 2
11, 146261, Control_c, 10, 1, 3
11, 146262, Control_c, 10, 11, 82
11, 146264, Control_c, 10, 1, 4
11, 146267, Control_c, 10, 1, 5
11, 146270, Control_c, 10, 1, 6
11, 146274, Control_c, 10, 1, 7
11, 146277, Control_c, 10, 1, 8
11, 146282, Control_c, 10, 1, 9
11, 146288, Control_c, 10, 1, 10
11, 146294, Control_c, 10, 1, 11
11, 146301, Control_c, 10, 1, 12
11, 146311, Control_c, 10, 1, 13
11, 146313, Control_c, 10, 11, 83
11, 146324, Control_c, 10, 1, 14
11, 146348, Control_c, 10, 1, 15
11, 146365, Control_c, 10, 11, 84
11, 146416, Control_c, 10, 11, 85
11, 146446, Note_on_c, 10, 66, 0
11, 146446, Note_on_c, 10, 62, 0
11, 146448, Control_c, 10, 1, 0
11, 146448, Note_on_c, 10, 64, 120
11, 146448, Note_on_c, 10, 67, 120
11, 146449, Control_c, 10, 1, 1
11, 146450, Control_c, 10, 1, 2
11, 146451, Control_c, 10, 1, 3
11, 146452, Control_c, 10, 1, 4
11, 146454, Control_c, 10, 1, 5
11, 146455, Control_c, 10, 1, 6
11, 146457, Control_c, 10, 1, 7
11, 146459, Control_c, 10, 1, 8
11, 146461, Control_c, 10, 1, 9
11, 146464, Control_c, 10, 1, 10
11, 146467, Control_c, 10, 11, 86
11, 146467, Control_c, 10, 1, 11
11, 146471, Control_c, 10, 1, 12
11, 146476, Control_c, 10, 1, 13
11, 146482, Control_c, 10, 1, 14
11, 146494, Control_c, 10, 1, 15
11, 146518, Control_c, 10, 11, 87
11, 146540, Note_on_c, 10, 67, 0
11, 146540, Note_on_c, 10, 64, 0
11, 146544, Note_on_c, 10, 66, 120
11, 146544, Note_on_c, 10, 69, 120
11, 146569, Control_c, 10, 11, 88
11, 146620, Control_c, 10, 11, 89
11, 146636, Note_on_c, 10, 69, 0
11, 146636, Note_on_c, 10, 66, 0
11, 146640, Control_c, 10, 1, 0
11, 146640, Note_on_c, 10, 62, 120
11, 146640, Note_on_c, 10, 69, 120
11, 146641, Control_c, 10, 1, 1
11, 146642, Control_c, 10, 1, 2
11, 146644, Control_c, 10, 1, 3
11, 146646, Control_c, 10, 1, 4
11, 146648, Control_c, 10, 1, 5
11, 146650, Control_c, 10, 1, 6
11, 146652, Control_c, 10, 1, 7
11, 146655, Control_c, 10, 1, 8
11, 146658, Control_c, 10, 1, 9
11, 146662, Control_c, 10, 1, 10
11, 146666, Control_c, 10, 1, 11
11, 146672, Control_c, 10, 11, 90
11, 146672, Control_c, 10, 1, 12
11, 146678, Control_c, 10, 1, 13
11, 146688, Control_c, 10, 1, 14
11, 146704, Control_c, 10, 1, 15
11, 146723, Control_c, 10, 11, 91
11, 146774, Control_c, 10, 11, 92
11, 146825, Control_c, 10, 11, 93
11, 146830, Note_on_c, 10, 69, 0
11, 146830, Note_on_c, 10, 62, 0
11, 146832, Control_c, 10, 1, 0
11, 146832, Note_on_c, 10, 64, 120
11, 146832, Note_on_c, 10, 69, 120
11, 146833, Control_c, 10, 1, 1
11, 146834, Control_c, 10, 1, 2
11, 146835, Control_c, 10, 1, 3
11, 146836, Control_c, 10, 1, 4
11, 146838, Control_c, 10, 1, 5
11, 146839, Control_c, 10, 1, 6
11, 146841, Control_c, 10, 1, 7
11, 146843, Control_c, 10, 1, 8
11, 146845, Control_c, 10, 1, 9
11, 146848, Control_c, 10, 1, 10
11, 146851, Control_c, 10, 1, 11
11, 146855, Control_c, 10, 1, 12
11, 146860, Control_c, 10, 1, 13
11, 146866, Control_c, 10, 1, 14
11, 146876, Control_c, 10, 11, 94
11, 146878, Control_c, 10, 1, 15
11, 146924, Note_on_c, 10, 69, 0
11, 146924, Note_on_c, 10, 64, 0
11, 146927, Control_c, 10, 11, 95
11, 146928, Control_c, 10, 1, 0
11, 146928, Note_on_c, 10, 69, 120
11, 146998, Note_on_c, 10, 69, 0
11, 147024, Note_on_c, 10, 69, 120
11, 147094, Note_on_c, 10, 69, 0
11, 147120, Note_on_c, 10, 69, 120
11, 147190, Note_on_c, 10, 69, 0
11, 147216, Note_on_c, 10, 69, 120
11, 147286, Note_on_c, 10, 69, 0
11, 147312, Control_c, 10, 11, 95
11, 147312, Note_on_c, 10, 69, 120
11, 147325, Control_c, 10, 11, 94
11, 147338, Control_c, 10, 11, 93
11, 147351, Control_c, 10, 11, 92
11, 147364, Control_c, 10, 11, 91
11, 147376, Control_c, 10, 11, 90
11, 147382, Note_on_c, 10, 69, 0
11, 147389, Control_c, 10, 11, 89
11, 147402, Control_c, 10, 11, 88
11, 147408, Note_on_c, 10, 69, 120
11, 147415, Control_c, 10, 11, 87
11, 147427, Control_c, 10, 11, 86
11, 147440, Control_c, 10, 11, 85
11, 147453, Control_c, 10, 11, 84
11, 147466, Control_c, 10, 11, 83
11, 147478, Note_on_c, 10, 69, 0
11, 147478, Control_c, 10, 11, 82
11, 147491, Control_c, 10, 11, 81
11, 147504, Note_on_c, 10, 69, 120
11, 147504, Control_c, 10, 11, 80
11, 147517, Control_c, 10, 11, 79
11, 147530, Control_c, 10, 11, 78
11, 147542, Control_c, 10, 11, 77
11, 147555, Control_c, 10, 11, 76
11, 147568, Control_c, 10, 11, 75
11, 147574, Note_on_c, 10, 69, 0
11, 147581, Control_c, 10, 11, 74
11, 147593, Control_c, 10, 11, 73
11, 147600, Note_on_c, 10, 69, 120
11, 147606, Control_c, 10, 11, 72
11, 147619, Control_c, 10, 11, 71
11, 147632, Control_c, 10, 11, 70
11, 147644, Control_c, 10, 11, 69
11, 147657, Control_c, 10, 11, 68
11, 147670, Note_on_c, 10, 69, 0
11, 147670, Control_c, 10, 11, 67
11, 147683, Control_c, 10, 11, 66
11, 147695, Control_c, 10, 11, 65
11, 147696, Note_on_c, 10, 69, 120
11, 147720, Note_on_c, 10, 69, 0
11, 148560, Control_c, 10, 1, 0
11, 148560, Control_c, 10, 11, 65
11, 148560, Note_on_c, 10, 54, 120
11, 148560, Note_on_c, 10, 62, 120
11, 148561, Control_c, 10, 1, 1
11, 148562, Control_c, 10, 1, 2
11, 148563, Control_c, 10, 1, 3
11, 148565, Control_c, 10, 1, 4
11, 148567, Control_c, 10, 1, 5
11, 148568, Control_c, 10, 1, 6
11, 148570, Control_c, 10, 1, 7
11, 148573, Control_c, 10, 1, 8
11, 148575, Control_c, 10, 1, 9
11, 148579, Control_c, 10, 1, 10
11, 148582, Control_c, 10, 1, 11
11, 148583, Control_c, 10, 11, 66
11, 148587, Control_c, 10, 1, 12
11, 148592, Control_c, 10, 1, 13
11, 148600, Control_c, 10, 1, 14
11, 148605, Control_c, 10, 11, 67
11, 148613, Control_c, 10, 1, 15
11, 148628, Control_c, 10, 11, 68
11, 148650, Control_c, 10, 11, 69
11, 148672, Control_c, 10, 11, 70
11, 148695, Control_c, 10, 11, 71
11, 148717, Control_c, 10, 11, 72
11, 148739, Control_c, 10, 11, 73
11, 148750, Note_on_c, 10, 62, 0
11, 148750, Note_on_c, 10, 54, 0
11, 148752, Control_c, 10, 1, 0
11, 148752, Note_on_c, 10, 57, 120
11, 148752, Note_on_c, 10, 64, 120
11, 148753, Control_c, 10, 1, 1
11, 148754, Control_c, 10, 1, 2
11, 148755, Control_c, 10, 1, 3
11, 148756, Control_c, 10, 1, 4
11, 148758, Control_c, 10, 1, 5
11, 148759, Control_c, 10, 1, 6
11, 148761, Control_c, 10, 1, 7
11, 148762, Control_c, 10, 11, 74
11, 148763, Control_c, 10, 1, 8
11, 148765, Control_c, 10, 1, 9
11, 148768, Control_c, 10, 1, 10
11, 148771, Control_c, 10, 1, 11
11, 148775, Control_c, 10, 1, 12
11, 148780, Control_c, 10, 1, 13
11, 148784, Control_c, 10, 11, 75
11, 148786, Control_c, 10, 1, 14
11, 148798, Control_c, 10, 1, 15
11, 148807, Control_c, 10, 11, 76
11, 148829, Control_c, 10, 11, 77
11, 148844, Note_on_c, 10, 64, 0
11, 148844, Note_on_c, 10, 57, 0
11, 148848, Control_c, 10, 1, 0
11, 148848, Note_on_c, 10, 62, 120
11, 148848, Note_on_c, 10, 66, 120
11, 148849, Control_c, 10, 1, 1
11, 148850, Control_c, 10, 1, 2
11, 148851, Control_c, 10, 11, 78
11, 148851, Control_c, 10, 1, 3
11, 148852, Control_c, 10, 1, 4
11, 148854, Control_c, 10, 1, 5
11, 148855, Control_c, 10, 1, 6
11, 148857, Control_c, 10, 1, 7
11, 148859, Control_c, 10, 1, 8
11, 148861, Control_c, 10, 1, 9
11, 148864, Control_c, 10, 1, 10
11, 148867, Control_c, 10, 1, 11
11, 148871, Control_c, 10, 1, 12
11, 148874, Control_c, 10, 11, 79
11, 148876, Control_c, 10, 1, 13
11, 148882, Control_c, 10, 1, 14
11, 148894, Control_c, 10, 1, 15
11, 148896, Control_c, 10, 11, 80
11, 148918, Control_c, 10, 11, 81
11, 148940, Note_on_c, 10, 66, 0
11, 148940, Note_on_c, 10, 62, 0
11, 148941, Control_c, 10, 11, 82
11, 148944, Control_c, 10, 1, 0
11, 148944, Note_on_c, 10, 66, 120
11, 148944, Note_on_c, 10, 69, 120
11, 148945, Control_c, 10, 1, 1
11, 148946, Control_c, 10, 1, 2
11, 148948, Control_c, 10, 1, 3
11, 148950, Control_c, 10, 1, 4
11, 148952, Control_c, 10, 1, 5
11, 148954, Control_c, 10, 1, 6
11, 148956, Control_c, 10, 1, 7
11, 148959, Control_c, 10, 1, 8
11, 148962, Control_c, 10, 1, 9
11, 148963, Control_c, 10, 11, 83
11, 148966, Control_c, 10, 1, 10
11, 148970, Control_c, 10, 1, 11
11, 148975, Control_c, 10, 1, 12
11, 148982, Control_c, 10, 1, 13
11, 148985, Control_c, 10, 11, 84
11, 148991, Control_c, 10, 1, 14
11, 149006, Control_c, 10, 1, 15
11, 149008, Control_c, 10, 11, 85
11, 149030, Control_c, 10, 11, 86
11, 149053, Control_c, 10, 11, 87
11, 149075, Control_c, 10, 11, 88
11, 149097, Control_c, 10, 11, 89
11, 149120, Control_c, 10, 11, 90
11, 149134, Note_on_c, 10, 69, 0
11, 149134, Note_on_c, 10, 66, 0
11, 149136, Control_c, 10, 1, 0
11, 149136, Note_on_c, 10, 64, 120
11, 149136, Note_on_c, 10, 67, 120
11, 149137, Control_c, 10, 1, 1
11, 149138, Control_c, 10, 1, 2
11, 149139, Control_c, 10, 1, 3
11, 149140, Control_c, 10, 1, 4
11, 149142, Control_c, 10, 11, 91
11, 149142, Control_c, 10, 1, 5
11, 149143, Control_c, 10, 1, 6
11, 149145, Control_c, 10, 1, 7
11, 149147, Control_c, 10, 1, 8
11, 149149, Control_c, 10, 1, 9
11, 149152, Control_c, 10, 1, 10
11, 149155, Control_c, 10, 1, 11
11, 149159, Control_c, 10, 1, 12
11, 149164, Control_c, 10, 11, 92
11, 149164, Control_c, 10, 1, 13
11, 149170, Control_c, 10, 1, 14
11, 149182, Control_c, 10, 1, 15
11, 149187, Control_c, 10, 11, 93
11, 149209, Control_c, 10, 11, 94
11, 149228, Note_on_c, 10, 67, 0
11, 149228, Note_on_c, 10, 64, 0
11, 149231, Control_c, 10, 11, 95
11, 149232, Note_on_c, 10, 62, 120
11, 149232, Note_on_c, 10, 66, 120
11, 149302, Note_on_c, 10, 66, 0
11, 149302, Note_on_c, 10, 62, 0
11, 149328, Note_on_c, 10, 62, 120
11, 149328, Note_on_c, 10, 66, 120
11, 149398, Note_on_c, 10, 66, 0
11, 149398, Note_on_c, 10, 62, 0
11, 149424, Note_on_c, 10, 57, 120
11, 149424, Note_on_c, 10, 64, 120
11, 149494, Note_on_c, 10, 64, 0
11, 149494, Note_on_c, 10, 57, 0
11, 149520, Note_on_c, 10, 57, 120
11, 149520, Note_on_c, 10, 64, 120
11, 149590, Note_on_c, 10, 64, 0
11, 149590, Note_on_c, 10, 57, 0
11, 149616, Control_c, 10, 1, 0
11, 149616, Control_c, 10, 11, 95
11, 149616, Note_on_c, 10, 62, 120
11, 149616, Note_on_c, 10, 66, 120
11, 149655, Control_c, 10, 11, 94
11, 149686, Note_on_c, 10, 66, 0
11, 149686, Note_on_c, 10, 62, 0
11, 149693, Control_c, 10, 11, 93
11, 149712, Note_on_c, 10, 62, 120
11, 149712, Note_on_c, 10, 66, 120
11, 149732, Control_c, 10, 11, 92
11, 149770, Control_c, 10, 11, 91
11, 149782, Note_on_c, 10, 66, 0
11, 149782, Note_on_c, 10, 62, 0
11, 149808, Note_on_c, 10, 57, 120
11, 149808, Note_on_c, 10, 64, 120
11, 149808, Control_c, 10, 11, 90
11, 149847, Control_c, 10, 11, 89
11, 149878, Note_on_c, 10, 64, 0
11, 149878, Note_on_c, 10, 57, 0
11, 149885, Control_c, 10, 11, 88
11, 149904, Note_on_c, 10, 57, 120
11, 149904, Note_on_c, 10, 64, 120
11, 149923, Control_c, 10, 11, 87
11, 149962, Control_c, 10, 11, 86
11, 149974, Note_on_c, 10, 64, 0
11, 149974, Note_on_c, 10, 57, 0
11, 150000, Note_on_c, 10, 62, 120
11, 150000, Note_on_c, 10, 66, 120
11, 150000, Control_c, 10, 11, 85
11, 150039, Control_c, 10, 11, 84
11, 150070, Note_on_c, 10, 66, 0
11, 150070, Note_on_c, 10, 62, 0
11, 150077, Control_c, 10, 11, 83
11, 150096, Note_on_c, 10, 62, 120
11, 150096, Note_on_c, 10, 66, 120
11, 150115, Control_c, 10, 11, 82
11, 150154, Control_c, 10, 11, 81
11, 150166, Note_on_c, 10, 66, 0
11, 150166, Note_on_c, 10, 62, 0
11, 150192, Note_on_c, 10, 57, 120
11, 150192, Note_on_c, 10, 64, 120
11, 150192, Control_c, 10, 11, 80
11, 150230, Control_c, 10, 11, 79
11, 150262, Note_on_c, 10, 64, 0
11, 150262, Note_on_c, 10, 57, 0
11, 150269, Control_c, 10, 11, 78
11, 150288, Note_on_c, 10, 57, 120
11, 150288, Note_on_c, 10, 64, 120
11, 150307, Control_c, 10, 11, 77
11, 150345, Control_c, 10, 11, 76
11, 150358, Note_on_c, 10, 64, 0
11, 150358, Note_on_c, 10, 57, 0
11, 150384, Note_on_c, 10, 62, 120
11, 150384, Note_on_c, 10, 66, 120
11, 150384, Control_c, 10, 11, 75
11, 150422, Control_c, 10, 11, 74
11, 150454, Note_on_c, 10, 66, 0
11, 150454, Note_on_c, 10, 62, 0
11, 150461, Control_c, 10, 11, 73
11, 150480, Note_on_c, 10, 62, 120
11, 150480, Note_on_c, 10, 66, 120
11, 150499, Control_c, 10, 11, 72
11, 150537, Control_c, 10, 11, 71
11, 150550, Note_on_c, 10, 66, 0
11, 150550, Note_on_c, 10, 62, 0
11, 150576, Note_on_c, 10, 57, 120
11, 150576, Note_on_c, 10, 64, 120
11, 150576, Control_c, 10, 11, 70
11, 150614, Control_c, 10, 11, 69
11, 150646, Note_on_c, 10, 64, 0
11, 150646, Note_on_c, 10, 57, 0
11, 150652, Control_c, 10, 11, 68
11, 150672, Note_on_c, 10, 57, 120
11, 150672, Note_on_c, 10, 64, 120
11, 150691, Control_c, 10, 11, 67
11, 150729, Control_c, 10, 11, 66
11, 150742, Note_on_c, 10, 64, 0
11, 150742, Note_on_c, 10, 57, 0
11, 150767, Control_c, 10, 11, 65
11, 150768, Control_c, 10, 1, 0
11, 150768, Control_c, 10, 11, 60
11, 150768, Note_on_c, 10, 62, 120
11, 150768, Note_on_c, 10, 66, 120
11, 150769, Control_c, 10, 1, 1
11, 150771, Control_c, 10, 1, 2
11, 150773, Control_c, 10, 1, 3
11, 150776, Control_c, 10, 1, 4
11, 150779, Control_c, 10, 1, 5
11, 150782, Control_c, 10, 1, 6
11, 150786, Control_c, 10, 1, 7
11, 150789, Control_c, 10, 1, 8
11, 150794, Control_c, 10, 1, 9
11, 150800, Control_c, 10, 1, 10
11, 150806, Control_c, 10, 1, 11
11, 150813, Control_c, 10, 1, 12
11, 150823, Control_c, 10, 1, 13
11, 150836, Control_c, 10, 1, 14
11, 150860, Control_c, 10, 1, 15
11, 150864, Note_on_c, 10, 66, 0
11, 150864, Note_on_c, 10, 62, 0
11, 150864, Note_on_c, 10, 62, 120
11, 150864, Note_on_c, 10, 67, 120
11, 151150, Note_on_c, 10, 67, 0
11, 151150, Note_on_c, 10, 62, 0
11, 151152, Control_c, 10, 1, 0
11, 151152, Note_on_c, 10, 62, 120
11, 151152, Note_on_c, 10, 66, 120
11, 151153, Control_c, 10, 1, 1
11, 151155, Control_c, 10, 1, 2
11, 151157, Control_c, 10, 1, 3
11, 151160, Control_c, 10, 1, 4
11, 151163, Control_c, 10, 1, 5
11, 151166, Control_c, 10, 1, 6
11, 151170, Control_c, 10, 1, 7
11, 151173, Control_c, 10, 1, 8
11, 151178, Control_c, 10, 1, 9
11, 151184, Control_c, 10, 1, 10
11, 151190, Control_c, 10, 1, 11
11, 151197, Control_c, 10, 1, 12
11, 151207, Control_c, 10, 1, 13
11, 151220, Control_c, 10, 1, 14
11, 151244, Control_c, 10, 1, 15
11, 151248, Note_on_c, 10, 66, 0
11, 151248, Note_on_c, 10, 62, 0
11, 151248, Note_on_c, 10, 62, 120
11, 151248, Note_on_c, 10, 67, 120
11, 151534, Note_on_c, 10, 67, 0
11, 151534, Note_on_c, 10, 62, 0
11, 151536, Control_c, 10, 1, 0
11, 151536, Note_on_c, 10, 62, 120
11, 151536, Note_on_c, 10, 66, 120
11, 151537, Control_c, 10, 1, 1
11, 151539, Control_c, 10, 1, 2
11, 151541, Control_c, 10, 1, 3
11, 151544, Control_c, 10, 1, 4
11, 151547, Control_c, 10, 1, 5
11, 151550, Control_c, 10, 1, 6
11, 151554, Control_c, 10, 1, 7
11, 151557, Control_c, 10, 1, 8
11, 151562, Control_c, 10, 1, 9
11, 151568, Control_c, 10, 1, 10
11, 151574, Control_c, 10, 1, 11
11, 151581, Control_c, 10, 1, 12
11, 151591, Control_c, 10, 1, 13
11, 151604, Control_c, 10, 1, 14
11, 151628, Control_c, 10, 1, 15
11, 151632, Note_on_c, 10, 66, 0
11, 151632, Note_on_c, 10, 62, 0
11, 151632, Note_on_c, 10, 62, 120
11, 151632, Note_on_c, 10, 67, 120
11, 152112, Control_c, 10, 11, 55
11, 152280, Note_on_c, 10, 67, 0
11, 152280, Note_on_c, 10, 62, 0
11, 152304, Control_c, 10, 7, 110
11, 152304, Control_c, 10, 11, 120
11, 153024, Program_c, 10, 60
11, 153024, Control_c, 10, 1, 0
11, 153024, Note_on_c, 10, 62, 110
11, 153059, Note_on_c, 10, 62, 0
11, 153096, Note_on_c, 10, 50, 100
11, 153108, Note_on_c, 10, 50, 0
11, 153120, Note_on_c, 10, 50, 100
11, 153144, Note_on_c, 10, 50, 0
11, 154608, Note_on_c, 10, 69, 50
11, 154632, Note_on_c, 10, 69, 0
11, 154752, Note_on_c, 10, 62, 50
11, 154776, Note_on_c, 10, 62, 0
11, 154896, Note_on_c, 10, 64, 50
11, 154920, Note_on_c, 10, 64, 0
11, 155040, Note_on_c, 10, 65, 50
11, 155064, Note_on_c, 10, 65, 0
11, 155760, Note_on_c, 10, 45, 50
11, 155760, Note_on_c, 10, 57, 50
11, 155784, Note_on_c, 10, 57, 0
11, 155784, Note_on_c, 10, 45, 0
11, 155904, Note_on_c, 10, 38, 50
11, 155904, Note_on_c, 10, 57, 50
11, 155928, Note_on_c, 10, 57, 0
11, 155928, Note_on_c, 10, 38, 0
11, 156768, Note_on_c, 10, 45, 50
11, 156768, Note_on_c, 10, 57, 50
11, 156792, Note_on_c, 10, 57, 0
11, 156792, Note_on_c, 10, 45, 0
11, 156912, Note_on_c, 10, 45, 50
11, 156912, Note_on_c, 10, 57, 50
11, 156936, Note_on_c, 10, 57, 0
11, 156936, Note_on_c, 10, 45, 0
11, 157056, Note_on_c, 10, 45, 50
11, 157056, Note_on_c, 10, 57, 50
11, 157080, Note_on_c, 10, 57, 0
11, 157080, Note_on_c, 10, 45, 0
11, 157200, Note_on_c, 10, 45, 50
11, 157200, Note_on_c, 10, 57, 50
11, 157224, Note_on_c, 10, 57, 0
11, 157224, Note_on_c, 10, 45, 0
11, 157344, Note_on_c, 10, 45, 50
11, 157344, Note_on_c, 10, 57, 50
11, 157368, Note_on_c, 10, 57, 0
11, 157368, Note_on_c, 10, 45, 0
11, 157488, Note_on_c, 10, 45, 50
11, 157488, Note_on_c, 10, 57, 50
11, 157512, Note_on_c, 10, 57, 0
11, 157512, Note_on_c, 10, 45, 0
11, 157632, Note_on_c, 10, 45, 50
11, 157632, Note_on_c, 10, 57, 50
11, 157656, Note_on_c, 10, 57, 0
11, 157656, Note_on_c, 10, 45, 0
11, 157776, Note_on_c, 10, 45, 50
11, 157776, Note_on_c, 10, 57, 50
11, 157800, Note_on_c, 10, 57, 0
11, 157800, Note_on_c, 10, 45, 0
11, 157920, Note_on_c, 10, 45, 50
11, 157920, Note_on_c, 10, 57, 50
11, 157944, Note_on_c, 10, 57, 0
11, 157944, Note_on_c, 10, 45, 0
11, 158160, Note_on_c, 10, 45, 50
11, 158160, Note_on_c, 10, 57, 50
11, 158184, Note_on_c, 10, 57, 0
11, 158184, Note_on_c, 10, 45, 0
11, 158304, Note_on_c, 10, 45, 50
11, 158304, Note_on_c, 10, 57, 50
11, 158328, Note_on_c, 10, 57, 0
11, 158328, Note_on_c, 10, 45, 0
11, 158448, Note_on_c, 10, 45, 50
11, 158448, Note_on_c, 10, 57, 50
11, 158472, Note_on_c, 10, 57, 0
11, 158472, Note_on_c, 10, 45, 0
11, 158592, Note_on_c, 10, 45, 50
11, 158592, Note_on_c, 10, 57, 50
11, 158616, Note_on_c, 10, 57, 0
11, 158616, Note_on_c, 10, 45, 0
11, 158640, Control_c, 10, 1, 0
11, 158640, Control_c, 10, 11, 50
11, 158640, Note_on_c, 10, 45, 110
11, 158640, Note_on_c, 10, 57, 110
11, 158641, Control_c, 10, 1, 1
11, 158642, Control_c, 10, 1, 2
11, 158643, Control_c, 10, 1, 3
11, 158645, Control_c, 10, 1, 4
11, 158647, Control_c, 10, 1, 5
11, 158649, Control_c, 10, 1, 6
11, 158652, Control_c, 10, 1, 7
11, 158654, Control_c, 10, 1, 8
11, 158657, Control_c, 10, 1, 9
11, 158661, Control_c, 10, 1, 10
11, 158665, Control_c, 10, 11, 51
11, 158665, Control_c, 10, 1, 11
11, 158669, Control_c, 10, 1, 12
11, 158676, Control_c, 10, 1, 13
11, 158684, Control_c, 10, 1, 14
11, 158690, Control_c, 10, 11, 52
11, 158699, Control_c, 10, 1, 15
11, 158715, Control_c, 10, 11, 53
11, 158739, Control_c, 10, 11, 54
11, 158764, Control_c, 10, 11, 55
11, 158789, Control_c, 10, 11, 56
11, 158813, Control_c, 10, 11, 57
11, 158838, Control_c, 10, 11, 58
11, 158863, Control_c, 10, 11, 59
11, 158887, Control_c, 10, 11, 60
11, 158912, Control_c, 10, 11, 61
11, 158937, Control_c, 10, 11, 62
11, 158961, Control_c, 10, 11, 63
11, 158986, Control_c, 10, 11, 64
11, 159011, Control_c, 10, 11, 65
11, 159035, Control_c, 10, 11, 66
11, 159060, Control_c, 10, 11, 67
11, 159085, Control_c, 10, 11, 68
11, 159109, Control_c, 10, 11, 69
11, 159134, Control_c, 10, 11, 70
11, 159159, Control_c, 10, 11, 71
11, 159183, Control_c, 10, 11, 72
11, 159208, Control_c, 10, 11, 73
11, 159233, Control_c, 10, 11, 74
11, 159257, Control_c, 10, 11, 75
11, 159282, Control_c, 10, 11, 76
11, 159307, Control_c, 10, 11, 77
11, 159331, Control_c, 10, 11, 78
11, 159356, Control_c, 10, 11, 79
11, 159381, Control_c, 10, 11, 80
11, 159405, Control_c, 10, 11, 81
11, 159430, Control_c, 10, 11, 82
11, 159455, Control_c, 10, 11, 83
11, 159479, Control_c, 10, 11, 84
11, 159504, Control_c, 10, 11, 85
11, 159529, Control_c, 10, 11, 86
11, 159553, Control_c, 10, 11, 87
11, 159578, Control_c, 10, 11, 88
11, 159603, Control_c, 10, 11, 89
11, 159627, Control_c, 10, 11, 90
11, 159652, Control_c, 10, 11, 91
11, 159677, Control_c, 10, 11, 92
11, 159701, Control_c, 10, 11, 93
11, 159726, Control_c, 10, 11, 94
11, 159751, Control_c, 10, 11, 95
11, 159775, Control_c, 10, 11, 96
11, 159800, Control_c, 10, 11, 97
11, 159825, Control_c, 10, 11, 98
11, 159849, Control_c, 10, 11, 99
11, 159874, Control_c, 10, 11, 100
11, 159899, Control_c, 10, 11, 101
11, 159923, Control_c, 10, 11, 102
11, 159948, Control_c, 10, 11, 103
11, 159973, Control_c, 10, 11, 104
11, 159997, Control_c, 10, 11, 105
11, 160022, Control_c, 10, 11, 106
11, 160047, Control_c, 10, 11, 107
11, 160071, Control_c, 10, 11, 108
11, 160096, Control_c, 10, 11, 109
11, 160121, Control_c, 10, 11, 110
11, 160145, Control_c, 10, 11, 111
11, 160170, Control_c, 10, 11, 112
11, 160195, Control_c, 10, 11, 113
11, 160219, Control_c, 10, 11, 114
11, 160244, Control_c, 10, 11, 115
11, 160269, Control_c, 10, 11, 116
11, 160293, Control_c, 10, 11, 117
11, 160318, Control_c, 10, 11, 118
11, 160343, Control_c, 10, 11, 119
11, 160367, Control_c, 10, 11, 120
11, 160368, Note_on_c, 10, 57, 0
11, 160368, Note_on_c, 10, 45, 0
11, 160368, Control_c, 10, 1, 0
11, 160368, Note_on_c, 10, 57, 115
11, 160368, Note_on_c, 10, 69, 115
11, 160392, Note_on_c, 10, 69, 0
11, 160392, Note_on_c, 10, 57, 0
11, 160416, Note_on_c, 10, 57, 110
11, 160416, Note_on_c, 10, 69, 110
11, 160440, Note_on_c, 10, 69, 0
11, 160440, Note_on_c, 10, 57, 0
11, 160464, Note_on_c, 10, 57, 110
11, 160464, Note_on_c, 10, 69, 110
11, 160488, Note_on_c, 10, 69, 0
11, 160488, Note_on_c, 10, 57, 0
11, 160512, Note_on_c, 10, 57, 115
11, 160512, Note_on_c, 10, 69, 115
11, 160536, Note_on_c, 10, 69, 0
11, 160536, Note_on_c, 10, 57, 0
11, 160560, Note_on_c, 10, 57, 110
11, 160560, Note_on_c, 10, 69, 110
11, 160584, Note_on_c, 10, 69, 0
11, 160584, Note_on_c, 10, 57, 0
11, 160608, Note_on_c, 10, 57, 110
11, 160608, Note_on_c, 10, 69, 110
11, 160632, Note_on_c, 10, 69, 0
11, 160632, Note_on_c, 10, 57, 0
11, 160656, Note_on_c, 10, 57, 115
11, 160656, Note_on_c, 10, 69, 115
11, 160680, Note_on_c, 10, 69, 0
11, 160680, Note_on_c, 10, 57, 0
11, 160704, Note_on_c, 10, 57, 110
11, 160704, Note_on_c, 10, 69, 110
11, 160728, Note_on_c, 10, 69, 0
11, 160728, Note_on_c, 10, 57, 0
11, 160752, Note_on_c, 10, 57, 110
11, 160752, Note_on_c, 10, 69, 110
11, 160776, Note_on_c, 10, 69, 0
11, 160776, Note_on_c, 10, 57, 0
11, 160800, Note_on_c, 10, 57, 115
11, 160800, Note_on_c, 10, 69, 115
11, 160824, Note_on_c, 10, 69, 0
11, 160824, Note_on_c, 10, 57, 0
11, 160848, Note_on_c, 10, 57, 110
11, 160848, Note_on_c, 10, 69, 110
11, 160872, Note_on_c, 10, 69, 0
11, 160872, Note_on_c, 10, 57, 0
11, 160896, Note_on_c, 10, 57, 110
11, 160896, Note_on_c, 10, 69, 110
11, 160920, Note_on_c, 10, 69, 0
11, 160920, Note_on_c, 10, 57, 0
11, 160944, Note_on_c, 10, 50, 115
11, 160944, Note_on_c, 10, 67, 115
11, 160968, Note_on_c, 10, 67, 0
11, 160968, Note_on_c, 10, 50, 0
11, 160992, Note_on_c, 10, 50, 110
11, 160992, Note_on_c, 10, 67, 110
11, 161016, Note_on_c, 10, 67, 0
11, 161016, Note_on_c, 10, 50, 0
11, 161040, Note_on_c, 10, 50, 110
11, 161040, Note_on_c, 10, 67, 110
11, 161064, Note_on_c, 10, 67, 0
11, 161064, Note_on_c, 10, 50, 0
11, 161088, Note_on_c, 10, 50, 115
11, 161088, Note_on_c, 10, 62, 115
11, 161112, Note_on_c, 10, 62, 0
11, 161112, Note_on_c, 10, 50, 0
11, 161136, Note_on_c, 10, 57, 110
11, 161136, Note_on_c, 10, 69, 110
11, 161160, Note_on_c, 10, 69, 0
11, 161160, Note_on_c, 10, 57, 0
11, 161184, Note_on_c, 10, 57, 110
11, 161184, Note_on_c, 10, 69, 110
11, 161208, Note_on_c, 10, 69, 0
11, 161208, Note_on_c, 10, 57, 0
11, 161232, Note_on_c, 10, 57, 115
11, 161232, Note_on_c, 10, 69, 115
11, 161256, Note_on_c, 10, 69, 0
11, 161256, Note_on_c, 10, 57, 0
11, 161280, Note_on_c, 10, 57, 110
11, 161280, Note_on_c, 10, 69, 110
11, 161304, Note_on_c, 10, 69, 0
11, 161304, Note_on_c, 10, 57, 0
11, 161328, Note_on_c, 10, 57, 110
11, 161328, Note_on_c, 10, 69, 110
11, 161352, Note_on_c, 10, 69, 0
11, 161352, Note_on_c, 10, 57, 0
11, 161376, Note_on_c, 10, 57, 115
11, 161376, Note_on_c, 10, 69, 115
11, 161400, Note_on_c, 10, 69, 0
11, 161400, Note_on_c, 10, 57, 0
11, 161424, Note_on_c, 10, 62, 110
11, 161424, Note_on_c, 10, 69, 110
11, 161448, Note_on_c, 10, 69, 0
11, 161448, Note_on_c, 10, 62, 0
11, 161472, Note_on_c, 10, 62, 110
11, 161472, Note_on_c, 10, 69, 110
11, 161496, Note_on_c, 10, 69, 0
11, 161496, Note_on_c, 10, 62, 0
11, 161520, Note_on_c, 10, 62, 115
11, 161520, Note_on_c, 10, 67, 115
11, 161544, Note_on_c, 10, 67, 0
11, 161544, Note_on_c, 10, 62, 0
11, 161568, Note_on_c, 10, 62, 110
11, 161568, Note_on_c, 10, 67, 110
11, 161592, Note_on_c, 10, 67, 0
11, 161592, Note_on_c, 10, 62, 0
11, 161616, Note_on_c, 10, 62, 110
11, 161616, Note_on_c, 10, 67, 110
11, 161640, Note_on_c, 10, 67, 0
11, 161640, Note_on_c, 10, 62, 0
11, 161664, Note_on_c, 10, 57, 115
11, 161664, Note_on_c, 10, 69, 115
11, 161688, Note_on_c, 10, 69, 0
11, 161688, Note_on_c, 10, 57, 0
11, 161712, Note_on_c, 10, 57, 110
11, 161712, Note_on_c, 10, 69, 110
11, 161736, Note_on_c, 10, 69, 0
11, 161736, Note_on_c, 10, 57, 0
11, 161760, Note_on_c, 10, 57, 110
11, 161760, Note_on_c, 10, 69, 110
11, 161784, Note_on_c, 10, 69, 0
11, 161784, Note_on_c, 10, 57, 0
11, 161808, Note_on_c, 10, 57, 115
11, 161808, Note_on_c, 10, 69, 115
11, 161832, Note_on_c, 10, 69, 0
11, 161832, Note_on_c, 10, 57, 0
11, 161856, Note_on_c, 10, 57, 110
11, 161856, Note_on_c, 10, 69, 110
11, 161880, Note_on_c, 10, 69, 0
11, 161880, Note_on_c, 10, 57, 0
11, 161904, Note_on_c, 10, 57, 110
11, 161904, Note_on_c, 10, 69, 110
11, 161928, Note_on_c, 10, 69, 0
11, 161928, Note_on_c, 10, 57, 0
11, 161952, Note_on_c, 10, 57, 115
11, 161952, Note_on_c, 10, 69, 115
11, 161976, Note_on_c, 10, 69, 0
11, 161976, Note_on_c, 10, 57, 0
11, 162000, Note_on_c, 10, 65, 110
11, 162000, Note_on_c, 10, 69, 110
11, 162024, Note_on_c, 10, 69, 0
11, 162024, Note_on_c, 10, 65, 0
11, 162048, Note_on_c, 10, 65, 110
11, 162048, Note_on_c, 10, 67, 110
11, 162072, Note_on_c, 10, 67, 0
11, 162072, Note_on_c, 10, 65, 0
11, 162096, Note_on_c, 10, 65, 115
11, 162096, Note_on_c, 10, 67, 115
11, 162120, Note_on_c, 10, 67, 0
11, 162120, Note_on_c, 10, 65, 0
11, 162144, Note_on_c, 10, 65, 110
11, 162144, Note_on_c, 10, 67, 110
11, 162168, Note_on_c, 10, 67, 0
11, 162168, Note_on_c, 10, 65, 0
11, 162192, Note_on_c, 10, 65, 110
11, 162192, Note_on_c, 10, 67, 110
11, 162216, Note_on_c, 10, 67, 0
11, 162216, Note_on_c, 10, 65, 0
11, 162240, Note_on_c, 10, 64, 115
11, 162240, Note_on_c, 10, 67, 115
11, 162264, Note_on_c, 10, 67, 0
11, 162264, Note_on_c, 10, 64, 0
11, 162288, Note_on_c, 10, 67, 110
11, 162312, Note_on_c, 10, 67, 0
11, 162336, Note_on_c, 10, 67, 110
11, 162360, Note_on_c, 10, 67, 0
11, 162384, Note_on_c, 10, 67, 115
11, 162408, Note_on_c, 10, 67, 0
11, 162432, Note_on_c, 10, 67, 110
11, 162456, Note_on_c, 10, 67, 0
11, 162480, Note_on_c, 10, 67, 110
11, 162504, Note_on_c, 10, 67, 0
11, 162528, Note_on_c, 10, 67, 115
11, 162552, Note_on_c, 10, 67, 0
11, 162576, Note_on_c, 10, 67, 110
11, 162600, Note_on_c, 10, 67, 0
11, 162624, Note_on_c, 10, 67, 110
11, 162648, Note_on_c, 10, 67, 0
11, 162672, Note_on_c, 10, 67, 115
11, 162696, Note_on_c, 10, 67, 0
11, 162720, Note_on_c, 10, 67, 110
11, 162744, Note_on_c, 10, 67, 0
11, 162768, Note_on_c, 10, 67, 110
11, 162792, Note_on_c, 10, 67, 0
11, 162816, Note_on_c, 10, 67, 115
11, 162840, Note_on_c, 10, 67, 0
11, 162864, Note_on_c, 10, 67, 110
11, 162888, Note_on_c, 10, 67, 0
11, 162912, Note_on_c, 10, 67, 110
11, 162936, Note_on_c, 10, 67, 0
11, 162960, Note_on_c, 10, 67, 115
11, 162984, Note_on_c, 10, 67, 0
11, 163008, Note_on_c, 10, 67, 110
11, 163032, Note_on_c, 10, 67, 0
11, 163056, Note_on_c, 10, 67, 110
11, 163080, Note_on_c, 10, 67, 0
11, 163104, Note_on_c, 10, 67, 115
11, 163128, Note_on_c, 10, 67, 0
11, 163152, Note_on_c, 10, 67, 110
11, 163176, Note_on_c, 10, 67, 0
11, 163200, Note_on_c, 10, 67, 110
11, 163224, Note_on_c, 10, 67, 0
11, 163248, Note_on_c, 10, 67, 110
11, 163272, Note_on_c, 10, 67, 0
11, 167856, Note_on_c, 10, 64, 120
11, 167891, Note_on_c, 10, 64, 0
11, 167928, Note_on_c, 10, 64, 113
11, 167940, Note_on_c, 10, 64, 0
11, 167952, Note_on_c, 10, 64, 113
11, 167976, Note_on_c, 10, 64, 0
11, 168000, Note_on_c, 10, 64, 113
11, 168024, Note_on_c, 10, 64, 0
11, 168432, Note_on_c, 10, 50, 116
11, 168432, Note_on_c, 10, 62, 116
11, 168467, Note_on_c, 10, 62, 0
11, 168467, Note_on_c, 10, 50, 0
11, 168504, Note_on_c, 10, 50, 113
11, 168516, Note_on_c, 10, 50, 0
11, 168528, Note_on_c, 10, 50, 113
11, 168552, Note_on_c, 10, 50, 0
11, 168576, Note_on_c, 10, 50, 113
11, 168576, Note_on_c, 10, 62, 113
11, 168600, Note_on_c, 10, 62, 0
11, 168600, Note_on_c, 10, 50, 0
11, 168720, Note_on_c, 10, 67, 116
11, 168755, Note_on_c, 10, 67, 0
11, 168792, Note_on_c, 10, 67, 113
11, 168804, Note_on_c, 10, 67, 0
11, 168816, Note_on_c, 10, 67, 113
11, 168840, Note_on_c, 10, 67, 0
11, 168864, Note_on_c, 10, 67, 113
11, 168888, Note_on_c, 10, 67, 0
11, 169872, Control_c, 10, 1, 0
11, 169872, Control_c, 10, 11, 60
11, 169872, Note_on_c, 10, 60, 100
11, 169873, Control_c, 10, 1, 1
11, 169874, Control_c, 10, 1, 2
11, 169876, Control_c, 10, 1, 3
11, 169878, Control_c, 10, 1, 4
11, 169880, Control_c, 10, 1, 5
11, 169882, Control_c, 10, 11, 61
11, 169883, Control_c, 10, 1, 6
11, 169885, Control_c, 10, 1, 7
11, 169888, Control_c, 10, 1, 8
11, 169891, Control_c, 10, 1, 9
11, 169892, Control_c, 10, 11, 62
11, 169896, Control_c, 10, 1, 10
11, 169900, Control_c, 10, 1, 11
11, 169901, Control_c, 10, 11, 63
11, 169906, Control_c, 10, 1, 12
11, 169911, Control_c, 10, 11, 64
11, 169913, Control_c, 10, 1, 13
11, 169920, Control_c, 10, 11, 65
11, 169923, Control_c, 10, 1, 14
11, 169930, Control_c, 10, 11, 66
11, 169940, Control_c, 10, 11, 67
11, 169941, Control_c, 10, 1, 15
11, 169949, Control_c, 10, 11, 68
11, 169959, Control_c, 10, 11, 69
11, 169968, Control_c, 10, 11, 70
11, 169978, Control_c, 10, 11, 71
11, 169987, Control_c, 10, 11, 72
11, 169997, Control_c, 10, 11, 73
11, 170007, Control_c, 10, 11, 74
11, 170016, Control_c, 10, 11, 75
11, 170026, Control_c, 10, 11, 76
11, 170035, Control_c, 10, 11, 77
11, 170045, Control_c, 10, 11, 78
11, 170055, Control_c, 10, 11, 79
11, 170064, Control_c, 10, 11, 80
11, 170074, Control_c, 10, 11, 81
11, 170083, Control_c, 10, 11, 82
11, 170093, Control_c, 10, 11, 83
11, 170102, Control_c, 10, 11, 84
11, 170112, Control_c, 10, 11, 85
11, 170122, Control_c, 10, 11, 86
11, 170131, Control_c, 10, 11, 87
11, 170141, Control_c, 10, 11, 88
11, 170150, Control_c, 10, 11, 89
11, 170160, Control_c, 10, 11, 90
11, 170170, Control_c, 10, 11, 91
11, 170179, Control_c, 10, 11, 92
11, 170189, Control_c, 10, 11, 93
11, 170198, Control_c, 10, 11, 94
11, 170208, Control_c, 10, 11, 95
11, 170217, Control_c, 10, 11, 96
11, 170227, Control_c, 10, 11, 97
11, 170237, Control_c, 10, 11, 98
11, 170246, Control_c, 10, 11, 99
11, 170256, Control_c, 10, 11, 100
11, 170265, Control_c, 10, 11, 101
11, 170275, Control_c, 10, 11, 102
11, 170285, Control_c, 10, 11, 103
11, 170294, Control_c, 10, 11, 104
11, 170304, Control_c, 10, 11, 105
11, 170313, Control_c, 10, 11, 106
11, 170323, Control_c, 10, 11, 107
11, 170332, Control_c, 10, 11, 108
11, 170342, Control_c, 10, 11, 109
11, 170352, Control_c, 10, 11, 110
11, 170361, Control_c, 10, 11, 111
11, 170371, Control_c, 10, 11, 112
11, 170380, Control_c, 10, 11, 113
11, 170390, Control_c, 10, 11, 114
11, 170400, Control_c, 10, 11, 115
11, 170409, Control_c, 10, 11, 116
11, 170419, Control_c, 10, 11, 117
11, 170428, Control_c, 10, 11, 118
11, 170438, Control_c, 10, 11, 119
11, 170447, Control_c, 10, 11, 120
11, 170472, Note_on_c, 10, 60, 0
11, 170496, Control_c, 10, 1, 0
11, 170496, Note_on_c, 10, 60, 100
11, 170520, Note_on_c, 10, 60, 0
11, 170544, Note_on_c, 10, 60, 100
11, 170568, Note_on_c, 10, 60, 0
11, 170592, Note_on_c, 10, 50, 105
11, 170592, Note_on_c, 10, 62, 105
11, 170616, Note_on_c, 10, 62, 0
11, 170616, Note_on_c, 10, 50, 0
11, 170640, Note_on_c, 10, 50, 100
11, 170640, Note_on_c, 10, 62, 100
11, 170664, Note_on_c, 10, 62, 0
11, 170664, Note_on_c, 10, 50, 0
11, 170688, Note_on_c, 10, 50, 100
11, 170688, Note_on_c, 10, 62, 100
11, 170712, Note_on_c, 10, 62, 0
11, 170712, Note_on_c, 10, 50, 0
11, 170736, Note_on_c, 10, 64, 105
11, 170760, Note_on_c, 10, 64, 0
11, 170784, Note_on_c, 10, 67, 100
11, 170808, Note_on_c, 10, 67, 0
11, 170832, Note_on_c, 10, 69, 100
11, 170856, Note_on_c, 10, 69, 0
11, 170880, Note_on_c, 10, 69, 105
11, 170904, Note_on_c, 10, 69, 0
11, 170928, Note_on_c, 10, 67, 100
11, 170952, Note_on_c, 10, 67, 0
11, 170976, Note_on_c, 10, 67, 100
11, 171000, Note_on_c, 10, 67, 0
11, 171024, Note_on_c, 10, 67, 100
11, 171048, Note_on_c, 10, 67, 0
11, 171312, Note_on_c, 10, 64, 105
11, 171336, Note_on_c, 10, 64, 0
11, 171360, Note_on_c, 10, 67, 100
11, 171384, Note_on_c, 10, 67, 0
11, 171408, Note_on_c, 10, 67, 100
11, 171432, Note_on_c, 10, 67, 0
11, 171456, Note_on_c, 10, 67, 105
11, 171480, Note_on_c, 10, 67, 0
11, 171504, Note_on_c, 10, 67, 100
11, 171528, Note_on_c, 10, 67, 0
11, 171552, Note_on_c, 10, 67, 100
11, 171576, Note_on_c, 10, 67, 0
11, 171600, Note_on_c, 10, 67, 105
11, 171624, Note_on_c, 10, 67, 0
11, 171648, Note_on_c, 10, 67, 100
11, 171672, Note_on_c, 10, 67, 0
11, 171696, Note_on_c, 10, 67, 100
11, 171720, Note_on_c, 10, 67, 0
11, 171744, Note_on_c, 10, 67, 105
11, 171768, Note_on_c, 10, 67, 0
11, 171792, Note_on_c, 10, 67, 100
11, 171816, Note_on_c, 10, 67, 0
11, 171840, Note_on_c, 10, 67, 100
11, 171864, Note_on_c, 10, 67, 0
11, 171888, Note_on_c, 10, 67, 105
11, 171912, Note_on_c, 10, 67, 0
11, 171936, Note_on_c, 10, 67, 100
11, 171960, Note_on_c, 10, 67, 0
11, 171984, Note_on_c, 10, 67, 100
11, 172008, Note_on_c, 10, 67, 0
11, 172032, Note_on_c, 10, 67, 105
11, 172056, Note_on_c, 10, 67, 0
11, 172080, Note_on_c, 10, 67, 100
11, 172104, Note_on_c, 10, 67, 0
11, 172128, Note_on_c, 10, 67, 100
11, 172152, Note_on_c, 10, 67, 0
11, 172752, Note_on_c, 10, 60, 60
11, 172787, Note_on_c, 10, 60, 0
11, 172824, Note_on_c, 10, 60, 50
11, 172836, Note_on_c, 10, 60, 0
11, 172848, Note_on_c, 10, 60, 50
11, 172872, Note_on_c, 10, 60, 0
11, 172896, Note_on_c, 10, 57, 50
11, 172896, Note_on_c, 10, 60, 50
11, 172920, Note_on_c, 10, 60, 0
11, 172920, Note_on_c, 10, 57, 0
11, 173040, Note_on_c, 10, 57, 60
11, 173040, Note_on_c, 10, 60, 60
11, 173075, Note_on_c, 10, 60, 0
11, 173075, Note_on_c, 10, 57, 0
11, 173112, Note_on_c, 10, 57, 50
11, 173112, Note_on_c, 10, 60, 50
11, 173124, Note_on_c, 10, 60, 0
11, 173124, Note_on_c, 10, 57, 0
11, 173136, Note_on_c, 10, 57, 50
11, 173136, Note_on_c, 10, 60, 50
11, 173160, Note_on_c, 10, 60, 0
11, 173160, Note_on_c, 10, 57, 0
11, 173184, Note_on_c, 10, 57, 50
11, 173184, Note_on_c, 10, 62, 50
11, 173208, Note_on_c, 10, 62, 0
11, 173208, Note_on_c, 10, 57, 0
11, 173904, Note_on_c, 10, 50, 60
11, 173904, Note_on_c, 10, 62, 60
11, 173939, Note_on_c, 10, 62, 0
11, 173939, Note_on_c, 10, 50, 0
11, 173976, Note_on_c, 10, 50, 50
11, 173976, Note_on_c, 10, 62, 50
11, 173988, Note_on_c, 10, 62, 0
11, 173988, Note_on_c, 10, 50, 0
11, 174000, Note_on_c, 10, 50, 50
11, 174000, Note_on_c, 10, 62, 50
11, 174024, Note_on_c, 10, 62, 0
11, 174024, Note_on_c, 10, 50, 0
11, 174048, Note_on_c, 10, 50, 50
11, 174048, Note_on_c, 10, 62, 50
11, 174072, Note_on_c, 10, 62, 0
11, 174072, Note_on_c, 10, 50, 0
11, 175920, Note_on_c, 10, 54, 76
11, 175920, Note_on_c, 10, 66, 76
11, 175955, Note_on_c, 10, 66, 0
11, 175955, Note_on_c, 10, 54, 0
11, 175992, Note_on_c, 10, 54, 78
11, 175992, Note_on_c, 10, 66, 78
11, 176004, Note_on_c, 10, 66, 0
11, 176004, Note_on_c, 10, 54, 0
11, 176016, Note_on_c, 10, 54, 78
11, 176016, Note_on_c, 10, 66, 78
11, 176040, Note_on_c, 10, 66, 0
11, 176040, Note_on_c, 10, 54, 0
11, 176064, Note_on_c, 10, 54, 78
11, 176064, Note_on_c, 10, 66, 78
11, 176088, Note_on_c, 10, 66, 0
11, 176088, Note_on_c, 10, 54, 0
11, 176496, Note_on_c, 10, 64, 88
11, 176531, Note_on_c, 10, 64, 0
11, 176568, Note_on_c, 10, 64, 89
11, 176580, Note_on_c, 10, 64, 0
11, 176592, Note_on_c, 10, 64, 90
11, 176616, Note_on_c, 10, 64, 0
11, 176640, Note_on_c, 10, 64, 90
11, 176664, Note_on_c, 10, 64, 0
11, 176784, Note_on_c, 10, 57, 105
11, 176784, Note_on_c, 10, 69, 105
11, 176819, Note_on_c, 10, 69, 0
11, 176819, Note_on_c, 10, 57, 0
11, 176856, Note_on_c, 10, 45, 100
11, 176856, Note_on_c, 10, 57, 100
11, 176868, Note_on_c, 10, 57, 0
11, 176868, Note_on_c, 10, 45, 0
11, 176880, Note_on_c, 10, 45, 100
11, 176880, Note_on_c, 10, 57, 100
11, 176904, Note_on_c, 10, 57, 0
11, 176904, Note_on_c, 10, 45, 0
11, 183024, Note_on_c, 10, 62, 55
11, 183059, Note_on_c, 10, 62, 0
11, 183096, Note_on_c, 10, 50, 50
11, 183108, Note_on_c, 10, 50, 0
11, 183120, Note_on_c, 10, 50, 50
11, 183144, Note_on_c, 10, 50, 0
11, 183456, Note_on_c, 10, 57, 55
11, 183456, Note_on_c, 10, 69, 55
11, 183491, Note_on_c, 10, 69, 0
11, 183491, Note_on_c, 10, 57, 0
11, 183528, Note_on_c, 10, 45, 50
11, 183528, Note_on_c, 10, 57, 50
11, 183540, Note_on_c, 10, 57, 0
11, 183540, Note_on_c, 10, 45, 0
11, 183552, Note_on_c, 10, 45, 50
11, 183552, Note_on_c, 10, 57, 50
11, 183576, Note_on_c, 10, 57, 0
11, 183576, Note_on_c, 10, 45, 0
11, 183888, Note_on_c, 10, 57, 55
11, 183888, Note_on_c, 10, 69, 55
11, 183923, Note_on_c, 10, 69, 0
11, 183923, Note_on_c, 10, 57, 0
11, 183960, Note_on_c, 10, 45, 50
11, 183960, Note_on_c, 10, 57, 50
11, 183972, Note_on_c, 10, 57, 0
11, 183972, Note_on_c, 10, 45, 0
11, 183984, Note_on_c, 10, 45, 50
11, 183984, Note_on_c, 10, 57, 50
11, 184008, Note_on_c, 10, 57, 0
11, 184008, Note_on_c, 10, 45, 0
11, 184320, Note_on_c, 10, 57, 55
11, 184320, Note_on_c, 10, 69, 55
11, 184355, Note_on_c, 10, 69, 0
11, 184355, Note_on_c, 10, 57, 0
11, 184392, Note_on_c, 10, 45, 50
11, 184392, Note_on_c, 10, 57, 50
11, 184404, Note_on_c, 10, 57, 0
11, 184404, Note_on_c, 10, 45, 0
11, 184416, Note_on_c, 10, 45, 50
11, 184416, Note_on_c, 10, 57, 50
11, 184440, Note_on_c, 10, 57, 0
11, 184440, Note_on_c, 10, 45, 0
11, 184608, Note_on_c, 10, 57, 55
11, 184608, Note_on_c, 10, 69, 55
11, 184632, Note_on_c, 10, 69, 0
11, 184632, Note_on_c, 10, 57, 0
11, 184656, Note_on_c, 10, 57, 50
11, 184656, Note_on_c, 10, 69, 50
11, 184680, Note_on_c, 10, 69, 0
11, 184680, Note_on_c, 10, 57, 0
11, 184704, Note_on_c, 10, 57, 50
11, 184704, Note_on_c, 10, 69, 50
11, 184728, Note_on_c, 10, 69, 0
11, 184728, Note_on_c, 10, 57, 0
11, 184752, Note_on_c, 10, 57, 55
11, 184752, Note_on_c, 10, 69, 55
11, 184776, Note_on_c, 10, 69, 0
11, 184776, Note_on_c, 10, 57, 0
11, 184800, Note_on_c, 10, 57, 50
11, 184800, Note_on_c, 10, 69, 50
11, 184824, Note_on_c, 10, 69, 0
11, 184824, Note_on_c, 10, 57, 0
11, 184848, Note_on_c, 10, 57, 50
11, 184848, Note_on_c, 10, 69, 50
11, 184872, Note_on_c, 10, 69, 0
11, 184872, Note_on_c, 10, 57, 0
11, 184896, Note_on_c, 10, 57, 55
11, 184896, Note_on_c, 10, 69, 55
11, 184920, Note_on_c, 10, 69, 0
11, 184920, Note_on_c, 10, 57, 0
11, 184944, Note_on_c, 10, 57, 50
11, 184944, Note_on_c, 10, 69, 50
11, 184968, Note_on_c, 10, 69, 0
11, 184968, Note_on_c, 10, 57, 0
11, 184992, Note_on_c, 10, 57, 50
11, 184992, Note_on_c, 10, 69, 50
11, 185016, Note_on_c, 10, 69, 0
11, 185016, Note_on_c, 10, 57, 0
11, 185040, Note_on_c, 10, 57, 55
11, 185040, Note_on_c, 10, 69, 55
11, 185075, Note_on_c, 10, 69, 0
11, 185075, Note_on_c, 10, 57, 0
11, 185112, Note_on_c, 10, 45, 50
11, 185112, Note_on_c, 10, 57, 50
11, 185124, Note_on_c, 10, 57, 0
11, 185124, Note_on_c, 10, 45, 0
11, 185136, Note_on_c, 10, 45, 50
11, 185136, Note_on_c, 10, 57, 50
11, 185160, Note_on_c, 10, 57, 0
11, 185160, Note_on_c, 10, 45, 0
11, 185184, Note_on_c, 10, 45, 55
11, 185184, Note_on_c, 10, 57, 55
11, 185208, Note_on_c, 10, 57, 0
11, 185208, Note_on_c, 10, 45, 0
11, 185232, Note_on_c, 10, 45, 50
11, 185232, Note_on_c, 10, 57, 50
11, 185256, Note_on_c, 10, 57, 0
11, 185256, Note_on_c, 10, 45, 0
11, 185280, Note_on_c, 10, 45, 50
11, 185280, Note_on_c, 10, 57, 50
11, 185304, Note_on_c, 10, 57, 0
11, 185304, Note_on_c, 10, 45, 0
11, 185328, Note_on_c, 10, 45, 55
11, 185328, Note_on_c, 10, 57, 55
11, 185352, Note_on_c, 10, 57, 0
11, 185352, Note_on_c, 10, 45, 0
11, 185376, Note_on_c, 10, 45, 50
11, 185376, Note_on_c, 10, 57, 50
11, 185400, Note_on_c, 10, 57, 0
11, 185400, Note_on_c, 10, 45, 0
11, 185424, Note_on_c, 10, 45, 50
11, 185424, Note_on_c, 10, 57, 50
11, 185448, Note_on_c, 10, 57, 0
11, 185448, Note_on_c, 10, 45, 0
11, 185472, Note_on_c, 10, 45, 55
11, 185472, Note_on_c, 10, 57, 55
11, 185507, Note_on_c, 10, 57, 0
11, 185507, Note_on_c, 10, 45, 0
11, 185544, Note_on_c, 10, 57, 50
11, 185544, Note_on_c, 10, 69, 50
11, 185556, Note_on_c, 10, 69, 0
11, 185556, Note_on_c, 10, 57, 0
11, 185568, Note_on_c, 10, 57, 50
11, 185568, Note_on_c, 10, 69, 50
11, 185592, Note_on_c, 10, 69, 0
11, 185592, Note_on_c, 10, 57, 0
11, 185616, Note_on_c, 10, 57, 55
11, 185616, Note_on_c, 10, 69, 55
11, 185640, Note_on_c, 10, 69, 0
11, 185640, Note_on_c, 10, 57, 0
11, 185664, Note_on_c, 10, 57, 50
11, 185664, Note_on_c, 10, 69, 50
11, 185688, Note_on_c, 10, 69, 0
11, 185688, Note_on_c, 10, 57, 0
11, 185712, Note_on_c, 10, 57, 50
11, 185712, Note_on_c, 10, 69, 50
11, 185736, Note_on_c, 10, 69, 0
11, 185736, Note_on_c, 10, 57, 0
11, 185760, Note_on_c, 10, 57, 55
11, 185760, Note_on_c, 10, 69, 55
11, 185784, Note_on_c, 10, 69, 0
11, 185784, Note_on_c, 10, 57, 0
11, 185808, Note_on_c, 10, 57, 50
11, 185808, Note_on_c, 10, 69, 50
11, 185832, Note_on_c, 10, 69, 0
11, 185832, Note_on_c, 10, 57, 0
11, 185856, Note_on_c, 10, 57, 50
11, 185856, Note_on_c, 10, 69, 50
11, 185880, Note_on_c, 10, 69, 0
11, 185880, Note_on_c, 10, 57, 0
11, 185904, Note_on_c, 10, 57, 55
11, 185904, Note_on_c, 10, 69, 55
11, 185928, Note_on_c, 10, 69, 0
11, 185928, Note_on_c, 10, 57, 0
11, 185952, Note_on_c, 10, 57, 50
11, 185952, Note_on_c, 10, 69, 50
11, 185976, Note_on_c, 10, 69, 0
11, 185976, Note_on_c, 10, 57, 0
11, 186000, Note_on_c, 10, 57, 50
11, 186000, Note_on_c, 10, 69, 50
11, 186024, Note_on_c, 10, 69, 0
11, 186024, Note_on_c, 10, 57, 0
11, 186048, Note_on_c, 10, 57, 55
11, 186048, Note_on_c, 10, 69, 55
11, 186072, Note_on_c, 10, 69, 0
11, 186072, Note_on_c, 10, 57, 0
11, 186096, Note_on_c, 10, 57, 50
11, 186096, Note_on_c, 10, 69, 50
11, 186120, Note_on_c, 10, 69, 0
11, 186120, Note_on_c, 10, 57, 0
11, 186144, Note_on_c, 10, 57, 50
11, 186144, Note_on_c, 10, 69, 50
11, 186168, Note_on_c, 10, 69, 0
11, 186168, Note_on_c, 10, 57, 0
11, 186192, Note_on_c, 10, 57, 55
11, 186192, Note_on_c, 10, 69, 55
11, 186216, Note_on_c, 10, 69, 0
11, 186216, Note_on_c, 10, 57, 0
11, 186240, Note_on_c, 10, 57, 50
11, 186240, Note_on_c, 10, 69, 50
11, 186264, Note_on_c, 10, 69, 0
11, 186264, Note_on_c, 10, 57, 0
11, 186288, Note_on_c, 10, 57, 50
11, 186288, Note_on_c, 10, 69, 50
11, 186312, Note_on_c, 10, 69, 0
11, 186312, Note_on_c, 10, 57, 0
11, 186336, Note_on_c, 10, 57, 55
11, 186336, Note_on_c, 10, 69, 55
11, 186371, Note_on_c, 10, 69, 0
11, 186371, Note_on_c, 10, 57, 0
11, 186408, Note_on_c, 10, 45, 50
11, 186408, Note_on_c, 10, 57, 50
11, 186420, Note_on_c, 10, 57, 0
11, 186420, Note_on_c, 10, 45, 0
11, 186432, Note_on_c, 10, 45, 50
11, 186432, Note_on_c, 10, 57, 50
11, 186456, Note_on_c, 10, 57, 0
11, 186456, Note_on_c, 10, 45, 0
11, 186480, Note_on_c, 10, 50, 55
11, 186480, Note_on_c, 10, 62, 55
11, 186504, Note_on_c, 10, 62, 0
11, 186504, Note_on_c, 10, 50, 0
11, 186528, Note_on_c, 10, 67, 50
11, 186552, Note_on_c, 10, 67, 0
11, 186576, Note_on_c, 10, 67, 50
11, 186600, Note_on_c, 10, 67, 0
11, 186624, Note_on_c, 10, 67, 55
11, 186648, Note_on_c, 10, 67, 0
11, 186672, Note_on_c, 10, 67, 50
11, 186696, Note_on_c, 10, 67, 0
11, 186720, Note_on_c, 10, 67, 50
11, 186744, Note_on_c, 10, 67, 0
11, 186768, Note_on_c, 10, 67, 55
11, 186792, Note_on_c, 10, 67, 0
11, 186816, Note_on_c, 10, 67, 50
11, 186840, Note_on_c, 10, 67, 0
11, 186864, Note_on_c, 10, 67, 50
11, 186888, Note_on_c, 10, 67, 0
11, 186912, Note_on_c, 10, 67, 55
11, 186936, Note_on_c, 10, 67, 0
11, 186960, Note_on_c, 10, 67, 50
11, 186984, Note_on_c, 10, 67, 0
11, 187008, Note_on_c, 10, 67, 50
11, 187032, Note_on_c, 10, 67, 0
11, 188208, Note_on_c, 10, 62, 60
11, 188243, Note_on_c, 10, 62, 0
11, 188280, Note_on_c, 10, 50, 55
11, 188292, Note_on_c, 10, 50, 0
11, 188304, Note_on_c, 10, 50, 55
11, 188328, Note_on_c, 10, 50, 0
11, 189360, Note_on_c, 10, 62, 63
11, 189395, Note_on_c, 10, 62, 0
11, 189432, Note_on_c, 10, 50, 66
11, 189444, Note_on_c, 10, 50, 0
11, 189456, Note_on_c, 10, 50, 68
11, 189480, Note_on_c, 10, 50, 0
11, 189792, Note_on_c, 10, 57, 83
11, 189827, Note_on_c, 10, 57, 0
11, 189864, Note_on_c, 10, 45, 87
11, 189864, Note_on_c, 10, 57, 87
11, 189876, Note_on_c, 10, 57, 0
11, 189876, Note_on_c, 10, 45, 0
11, 189888, Note_on_c, 10, 45, 88
11, 189888, Note_on_c, 10, 57, 88
11, 189912, Note_on_c, 10, 57, 0
11, 189912, Note_on_c, 10, 45, 0
11, 189936, Note_on_c, 10, 62, 90
11, 189971, Note_on_c, 10, 62, 0
11, 190008, Note_on_c, 10, 50, 93
11, 190020, Note_on_c, 10, 50, 0
11, 190032, Note_on_c, 10, 50, 95
11, 190056, Note_on_c, 10, 50, 0
11, 190224, Note_on_c, 10, 69, 120
11, 190248, Note_on_c, 10, 69, 0
11, 190296, Note_on_c, 10, 57, 110
11, 190308, Note_on_c, 10, 57, 0
11, 190320, Note_on_c, 10, 57, 110
11, 190344, Note_on_c, 10, 57, 0
11, 190368, Note_on_c, 10, 69, 120
11, 190392, Note_on_c, 10, 69, 0
11, 190440, Note_on_c, 10, 57, 110
11, 190452, Note_on_c, 10, 57, 0
11, 190464, Note_on_c, 10, 57, 110
11, 190488, Note_on_c, 10, 57, 0
11, 190512, Note_on_c, 10, 69, 120
11, 190536, Note_on_c, 10, 69, 0
11, 190584, Note_on_c, 10, 57, 110
11, 190596, Note_on_c, 10, 57, 0
11, 190608, Note_on_c, 10, 57, 110
11, 190632, Note_on_c, 10, 57, 0
11, 190656, Note_on_c, 10, 69, 120
11, 190680, Note_on_c, 10, 69, 0
11, 190728, Note_on_c, 10, 57, 110
11, 190740, Note_on_c, 10, 57, 0
11, 190752, Note_on_c, 10, 57, 110
11, 190776, Note_on_c, 10, 57, 0
11, 190800, Note_on_c, 10, 69, 120
11, 190824, Note_on_c, 10, 69, 0
11, 190872, Note_on_c, 10, 57, 110
11, 190884, Note_on_c, 10, 57, 0
11, 190896, Note_on_c, 10, 57, 110
11, 190920, Note_on_c, 10, 57, 0
11, 190944, Note_on_c, 10, 69, 120
11, 190968, Note_on_c, 10, 69, 0
11, 191016, Note_on_c, 10, 57, 110
11, 191028, Note_on_c, 10, 57, 0
11, 191040, Note_on_c, 10, 57, 110
11, 191064, Note_on_c, 10, 57, 0
11, 191088, Note_on_c, 10, 69, 120
11, 191112, Note_on_c, 10, 69, 0
11, 191160, Note_on_c, 10, 57, 110
11, 191172, Note_on_c, 10, 57, 0
11, 191184, Note_on_c, 10, 57, 110
11, 191208, Note_on_c, 10, 57, 0
11, 191232, Note_on_c, 10, 69, 120
11, 191256, Note_on_c, 10, 69, 0
11, 191304, Note_on_c, 10, 57, 110
11, 191316, Note_on_c, 10, 57, 0
11, 191328, Note_on_c, 10, 57, 110
11, 191352, Note_on_c, 10, 57, 0
11, 191376, Note_on_c, 10, 69, 120
11, 191400, Note_on_c, 10, 69, 0
11, 191448, Note_on_c, 10, 57, 110
11, 191460, Note_on_c, 10, 57, 0
11, 191472, Note_on_c, 10, 57, 110
11, 191496, Note_on_c, 10, 57, 0
11, 191520, Note_on_c, 10, 69, 120
11, 191544, Note_on_c, 10, 69, 0
11, 191592, Note_on_c, 10, 57, 110
11, 191604, Note_on_c, 10, 57, 0
11, 191616, Note_on_c, 10, 57, 110
11, 191640, Note_on_c, 10, 57, 0
11, 191664, Note_on_c, 10, 69, 120
11, 191688, Note_on_c, 10, 69, 0
11, 191736, Note_on_c, 10, 57, 110
11, 191748, Note_on_c, 10, 57, 0
11, 191760, Note_on_c, 10, 57, 110
11, 191784, Note_on_c, 10, 57, 0
11, 191808, Note_on_c, 10, 69, 120
11, 191832, Note_on_c, 10, 69, 0
11, 191880, Note_on_c, 10, 57, 110
11, 191892, Note_on_c, 10, 57, 0
11, 191904, Note_on_c, 10, 57, 110
11, 191928, Note_on_c, 10, 57, 0
11, 191952, Note_on_c, 10, 69, 120
11, 191976, Note_on_c, 10, 69, 0
11, 192024, Note_on_c, 10, 57, 110
11, 192036, Note_on_c, 10, 57, 0
11, 192048, Note_on_c, 10, 57, 110
11, 192072, Note_on_c, 10, 57, 0
11, 192096, Note_on_c, 10, 69, 120
11, 192120, Note_on_c, 10, 69, 0
11, 192168, Note_on_c, 10, 57, 110
11, 192180, Note_on_c, 10, 57, 0
11, 192192, Note_on_c, 10, 57, 110
11, 192216, Note_on_c, 10, 57, 0
11, 192240, Note_on_c, 10, 69, 120
11, 192264, Note_on_c, 10, 69, 0
11, 192312, Note_on_c, 10, 57, 110
11, 192324, Note_on_c, 10, 57, 0
11, 192336, Note_on_c, 10, 57, 110
11, 192360, Note_on_c, 10, 57, 0
11, 192384, Note_on_c, 10, 69, 120
11, 192408, Note_on_c, 10, 69, 0
11, 192456, Note_on_c, 10, 57, 110
11, 192468, Note_on_c, 10, 57, 0
11, 192480, Note_on_c, 10, 57, 110
11, 192504, Note_on_c, 10, 57, 0
11, 192528, Note_on_c, 10, 69, 120
11, 192552, Note_on_c, 10, 69, 0
11, 192600, Note_on_c, 10, 57, 110
11, 192612, Note_on_c, 10, 57, 0
11, 192624, Note_on_c, 10, 57, 110
11, 192648, Note_on_c, 10, 57, 0
11, 192672, Note_on_c, 10, 69, 120
11, 192696, Note_on_c, 10, 69, 0
11, 192744, Note_on_c, 10, 57, 110
11, 192756, Note_on_c, 10, 57, 0
11, 192768, Note_on_c, 10, 57, 110
11, 192792, Note_on_c, 10, 57, 0
11, 192816, Note_on_c, 10, 69, 120
11, 192840, Note_on_c, 10, 69, 0
11, 192888, Note_on_c, 10, 57, 110
11, 192900, Note_on_c, 10, 57, 0
11, 192912, Note_on_c, 10, 57, 110
11, 192936, Note_on_c, 10, 57, 0
11, 192960, Note_on_c, 10, 69, 120
11, 192984, Note_on_c, 10, 69, 0
11, 193032, Note_on_c, 10, 57, 110
11, 193044, Note_on_c, 10, 57, 0
11, 193056, Note_on_c, 10, 57, 110
11, 193080, Note_on_c, 10, 57, 0
11, 193104, Note_on_c, 10, 67, 115
11, 193128, Note_on_c, 10, 67, 0
11, 193152, Note_on_c, 10, 67, 110
11, 193176, Note_on_c, 10, 67, 0
11, 193200, Note_on_c, 10, 67, 110
11, 193224, Note_on_c, 10, 67, 0
11, 193248, Note_on_c, 10, 62, 120
11, 193272, Note_on_c, 10, 62, 0
11, 193320, Note_on_c, 10, 50, 110
11, 193332, Note_on_c, 10, 50, 0
11, 193344, Note_on_c, 10, 50, 110
11, 193368, Note_on_c, 10, 50, 0
11, 193392, Note_on_c, 10, 62, 120
11, 193416, Note_on_c, 10, 62, 0
11, 193464, Note_on_c, 10, 50, 110
11, 193476, Note_on_c, 10, 50, 0
11, 193488, Note_on_c, 10, 50, 110
11, 193512, Note_on_c, 10, 50, 0
11, 193536, Note_on_c, 10, 62, 120
11, 193560, Note_on_c, 10, 62, 0
11, 193608, Note_on_c, 10, 50, 110
11, 193620, Note_on_c, 10, 50, 0
11, 193632, Note_on_c, 10, 50, 110
11, 193656, Note_on_c, 10, 50, 0
11, 193680, Note_on_c, 10, 67, 105
11, 193704, Note_on_c, 10, 67, 0
11, 193728, Note_on_c, 10, 67, 100
11, 193752, Note_on_c, 10, 67, 0
11, 193776, Note_on_c, 10, 67, 100
11, 193800, Note_on_c, 10, 67, 0
11, 193824, Note_on_c, 10, 67, 105
11, 193848, Note_on_c, 10, 67, 0
11, 193872, Note_on_c, 10, 67, 100
11, 193896, Note_on_c, 10, 67, 0
11, 193920, Note_on_c, 10, 67, 100
11, 193944, Note_on_c, 10, 67, 0
11, 193968, Note_on_c, 10, 65, 105
11, 193992, Note_on_c, 10, 65, 0
11, 194016, Note_on_c, 10, 65, 100
11, 194040, Note_on_c, 10, 65, 0
11, 194064, Note_on_c, 10, 65, 100
11, 194088, Note_on_c, 10, 65, 0
11, 194112, Note_on_c, 10, 65, 105
11, 194136, Note_on_c, 10, 65, 0
11, 194160, Note_on_c, 10, 65, 100
11, 194184, Note_on_c, 10, 65, 0
11, 194208, Note_on_c, 10, 65, 100
11, 194232, Note_on_c, 10, 65, 0
11, 194256, Note_on_c, 10, 65, 105
11, 194280, Note_on_c, 10, 65, 0
11, 194304, Note_on_c, 10, 65, 100
11, 194328, Note_on_c, 10, 65, 0
11, 194352, Note_on_c, 10, 65, 100
11, 194376, Note_on_c, 10, 65, 0
11, 194400, Note_on_c, 10, 65, 105
11, 194424, Note_on_c, 10, 65, 0
11, 194448, Note_on_c, 10, 65, 100
11, 194472, Note_on_c, 10, 65, 0
11, 194496, Note_on_c, 10, 65, 100
11, 194520, Note_on_c, 10, 65, 0
11, 194544, Note_on_c, 10, 65, 105
11, 194568, Note_on_c, 10, 65, 0
11, 194592, Note_on_c, 10, 65, 100
11, 194616, Note_on_c, 10, 65, 0
11, 194640, Note_on_c, 10, 65, 100
11, 194664, Note_on_c, 10, 65, 0
11, 194688, Note_on_c, 10, 65, 105
11, 194712, Note_on_c, 10, 65, 0
11, 194736, Note_on_c, 10, 65, 100
11, 194760, Note_on_c, 10, 65, 0
11, 194784, Note_on_c, 10, 65, 100
11, 194808, Note_on_c, 10, 65, 0
11, 194832, Note_on_c, 10, 65, 100
11, 194856, Note_on_c, 10, 65, 0
11, 196272, Control_c, 10, 1, 0
11, 196272, Control_c, 10, 11, 60
11, 196272, Note_on_c, 10, 45, 100
11, 196272, Note_on_c, 10, 57, 100
11, 196273, Control_c, 10, 1, 1
11, 196274, Control_c, 10, 1, 2
11, 196276, Control_c, 10, 1, 3
11, 196278, Control_c, 10, 1, 4
11, 196280, Control_c, 10, 1, 5
11, 196283, Control_c, 10, 1, 6
11, 196285, Control_c, 10, 1, 7
11, 196288, Control_c, 10, 1, 8
11, 196291, Control_c, 10, 1, 9
11, 196296, Control_c, 10, 1, 10
11, 196300, Control_c, 10, 1, 11
11, 196306, Control_c, 10, 1, 12
11, 196313, Control_c, 10, 1, 13
11, 196323, Control_c, 10, 1, 14
11, 196341, Control_c, 10, 1, 15
11, 196416, Control_c, 10, 11, 60
11, 196431, Control_c, 10, 11, 61
11, 196445, Control_c, 10, 11, 62
11, 196460, Control_c, 10, 11, 63
11, 196474, Control_c, 10, 11, 64
11, 196488, Control_c, 10, 11, 65
11, 196503, Control_c, 10, 11, 66
11, 196517, Control_c, 10, 11, 67
11, 196531, Control_c, 10, 11, 68
11, 196546, Control_c, 10, 11, 69
11, 196560, Control_c, 10, 11, 70
11, 196575, Control_c, 10, 11, 71
11, 196589, Control_c, 10, 11, 72
11, 196603, Control_c, 10, 11, 73
11, 196618, Control_c, 10, 11, 74
11, 196632, Control_c, 10, 11, 75
11, 196646, Control_c, 10, 11, 76
11, 196661, Control_c, 10, 11, 77
11, 196675, Control_c, 10, 11, 78
11, 196690, Control_c, 10, 11, 79
11, 196704, Control_c, 10, 11, 80
11, 196718, Control_c, 10, 11, 81
11, 196733, Control_c, 10, 11, 82
11, 196747, Control_c, 10, 11, 83
11, 196761, Control_c, 10, 11, 84
11, 196776, Control_c, 10, 11, 85
11, 196790, Control_c, 10, 11, 86
11, 196805, Control_c, 10, 11, 87
11, 196819, Control_c, 10, 11, 88
11, 196833, Control_c, 10, 11, 89
11, 196848, Control_c, 10, 11, 90
11, 196862, Control_c, 10, 11, 91
11, 196876, Control_c, 10, 11, 92
11, 196891, Control_c, 10, 11, 93
11, 196905, Control_c, 10, 11, 94
11, 196920, Control_c, 10, 11, 95
11, 196934, Control_c, 10, 11, 96
11, 196948, Control_c, 10, 11, 97
11, 196963, Control_c, 10, 11, 98
11, 196977, Control_c, 10, 11, 99
11, 196991, Control_c, 10, 11, 100
11, 196992, Control_c, 10, 11, 100
11, 197003, Control_c, 10, 11, 99
11, 197014, Control_c, 10, 11, 98
11, 197025, Control_c, 10, 11, 97
11, 197036, Control_c, 10, 11, 96
11, 197046, Control_c, 10, 11, 95
11, 197057, Control_c, 10, 11, 94
11, 197068, Control_c, 10, 11, 93
11, 197079, Control_c, 10, 11, 92
11, 197089, Control_c, 10, 11, 91
11, 197100, Control_c, 10, 11, 90
11, 197111, Control_c, 10, 11, 89
11, 197122, Control_c, 10, 11, 88
11, 197133, Control_c, 10, 11, 87
11, 197143, Control_c, 10, 11, 86
11, 197154, Control_c, 10, 11, 85
11, 197165, Control_c, 10, 11, 84
11, 197176, Control_c, 10, 11, 83
11, 197186, Control_c, 10, 11, 82
11, 197197, Control_c, 10, 11, 81
11, 197208, Control_c, 10, 11, 80
11, 197219, Control_c, 10, 11, 79
11, 197230, Control_c, 10, 11, 78
11, 197240, Control_c, 10, 11, 77
11, 197251, Control_c, 10, 11, 76
11, 197262, Control_c, 10, 11, 75
11, 197273, Control_c, 10, 11, 74
11, 197283, Control_c, 10, 11, 73
11, 197294, Control_c, 10, 11, 72
11, 197305, Control_c, 10, 11, 71
11, 197316, Control_c, 10, 11, 70
11, 197327, Control_c, 10, 11, 69
11, 197337, Control_c, 10, 11, 68
11, 197348, Control_c, 10, 11, 67
11, 197359, Control_c, 10, 11, 66
11, 197370, Control_c, 10, 11, 65
11, 197380, Control_c, 10, 11, 64
11, 197391, Control_c, 10, 11, 63
11, 197402, Control_c, 10, 11, 62
11, 197413, Control_c, 10, 11, 61
11, 197423, Control_c, 10, 11, 60
11, 197424, Note_on_c, 10, 57, 0
11, 197424, Note_on_c, 10, 45, 0
11, 197424, Control_c, 10, 11, 60
11, 197424, Control_c, 10, 1, 0
11, 197424, Note_on_c, 10, 45, 100
11, 197424, Note_on_c, 10, 57, 100
11, 197425, Control_c, 10, 1, 1
11, 197426, Control_c, 10, 1, 2
11, 197428, Control_c, 10, 1, 3
11, 197430, Control_c, 10, 1, 4
11, 197432, Control_c, 10, 1, 5
11, 197435, Control_c, 10, 1, 6
11, 197437, Control_c, 10, 1, 7
11, 197440, Control_c, 10, 1, 8
11, 197442, Control_c, 10, 11, 61
11, 197443, Control_c, 10, 1, 9
11, 197448, Control_c, 10, 1, 10
11, 197452, Control_c, 10, 1, 11
11, 197458, Control_c, 10, 1, 12
11, 197460, Control_c, 10, 11, 62
11, 197465, Control_c, 10, 1, 13
11, 197475, Control_c, 10, 1, 14
11, 197478, Control_c, 10, 11, 63
11, 197493, Control_c, 10, 1, 15
11, 197496, Control_c, 10, 11, 64
11, 197514, Control_c, 10, 11, 65
11, 197532, Control_c, 10, 11, 66
11, 197550, Control_c, 10, 11, 67
11, 197568, Control_c, 10, 11, 68
11, 197586, Control_c, 10, 11, 69
11, 197604, Control_c, 10, 11, 70
11, 197622, Control_c, 10, 11, 71
11, 197640, Control_c, 10, 11, 72
11, 197658, Control_c, 10, 11, 73
11, 197676, Control_c, 10, 11, 74
11, 197694, Control_c, 10, 11, 75
11, 197712, Control_c, 10, 11, 76
11, 197730, Control_c, 10, 11, 77
11, 197748, Control_c, 10, 11, 78
11, 197766, Control_c, 10, 11, 79
11, 197784, Control_c, 10, 11, 80
11, 197802, Control_c, 10, 11, 81
11, 197820, Control_c, 10, 11, 82
11, 197838, Control_c, 10, 11, 83
11, 197856, Control_c, 10, 11, 84
11, 197874, Control_c, 10, 11, 85
11, 197892, Control_c, 10, 11, 86
11, 197910, Control_c, 10, 11, 87
11, 197928, Control_c, 10, 11, 88
11, 197946, Control_c, 10, 11, 89
11, 197964, Control_c, 10, 11, 90
11, 197982, Control_c, 10, 11, 91
11, 198000, Control_c, 10, 11, 92
11, 198018, Control_c, 10, 11, 93
11, 198036, Control_c, 10, 11, 94
11, 198054, Control_c, 10, 11, 95
11, 198072, Control_c, 10, 11, 96
11, 198090, Control_c, 10, 11, 97
11, 198108, Control_c, 10, 11, 98
11, 198126, Control_c, 10, 11, 99
11, 198143, Control_c, 10, 11, 100
11, 198144, Control_c, 10, 11, 100
11, 198155, Control_c, 10, 11, 99
11, 198166, Control_c, 10, 11, 98
11, 198177, Control_c, 10, 11, 97
11, 198188, Control_c, 10, 11, 96
11, 198198, Control_c, 10, 11, 95
11, 198209, Control_c, 10, 11, 94
11, 198220, Control_c, 10, 11, 93
11, 198231, Control_c, 10, 11, 92
11, 198241, Control_c, 10, 11, 91
11, 198252, Control_c, 10, 11, 90
11, 198263, Control_c, 10, 11, 89
11, 198274, Control_c, 10, 11, 88
11, 198285, Control_c, 10, 11, 87
11, 198295, Control_c, 10, 11, 86
11, 198306, Control_c, 10, 11, 85
11, 198317, Control_c, 10, 11, 84
11, 198328, Control_c, 10, 11, 83
11, 198338, Control_c, 10, 11, 82
11, 198349, Control_c, 10, 11, 81
11, 198360, Control_c, 10, 11, 80
11, 198371, Control_c, 10, 11, 79
11, 198382, Control_c, 10, 11, 78
11, 198392, Control_c, 10, 11, 77
11, 198403, Control_c, 10, 11, 76
11, 198414, Control_c, 10, 11, 75
11, 198425, Control_c, 10, 11, 74
11, 198435, Control_c, 10, 11, 73
11, 198446, Control_c, 10, 11, 72
11, 198457, Control_c, 10, 11, 71
11, 198468, Control_c, 10, 11, 70
11, 198479, Control_c, 10, 11, 69
11, 198489, Control_c, 10, 11, 68
11, 198500, Control_c, 10, 11, 67
11, 198511, Control_c, 10, 11, 66
11, 198522, Control_c, 10, 11, 65
11, 198532, Control_c, 10, 11, 64
11, 198543, Control_c, 10, 11, 63
11, 198554, Control_c, 10, 11, 62
11, 198565, Control_c, 10, 11, 61
11, 198573, Note_on_c, 10, 57, 0
11, 198573, Note_on_c, 10, 45, 0
11, 198575, Control_c, 10, 11, 120
11, 198576, Control_c, 10, 1, 0
11, 198576, Note_on_c, 10, 57, 60
11, 198576, Note_on_c, 10, 69, 60
11, 198611, Note_on_c, 10, 69, 0
11, 198611, Note_on_c, 10, 57, 0
11, 198648, Note_on_c, 10, 45, 63
11, 198648, Note_on_c, 10, 57, 63
11, 198660, Note_on_c, 10, 57, 0
11, 198660, Note_on_c, 10, 45, 0
11, 198672, Note_on_c, 10, 45, 64
11, 198672, Note_on_c, 10, 57, 64
11, 198696, Note_on_c, 10, 57, 0
11, 198696, Note_on_c, 10, 45, 0
11, 198720, Note_on_c, 10, 57, 66
11, 198720, Note_on_c, 10, 69, 66
11, 198755, Note_on_c, 10, 69, 0
11, 198755, Note_on_c, 10, 57, 0
11, 198792, Note_on_c, 10, 45, 70
11, 198792, Note_on_c, 10, 57, 70
11, 198804, Note_on_c, 10, 57, 0
11, 198804, Note_on_c, 10, 45, 0
11, 198816, Note_on_c, 10, 45, 71
11, 198816, Note_on_c, 10, 57, 71
11, 198840, Note_on_c, 10, 57, 0
11, 198840, Note_on_c, 10, 45, 0
11, 198936, Note_on_c, 10, 66, 76
11, 198948, Note_on_c, 10, 66, 0
11, 198960, Note_on_c, 10, 66, 78
11, 198984, Note_on_c, 10, 66, 0
11, 199080, Note_on_c, 10, 64, 83
11, 199080, Note_on_c, 10, 67, 83
11, 199092, Note_on_c, 10, 67, 0
11, 199092, Note_on_c, 10, 64, 0
11, 199104, Note_on_c, 10, 64, 84
11, 199104, Note_on_c, 10, 67, 84
11, 199128, Note_on_c, 10, 67, 0
11, 199128, Note_on_c, 10, 64, 0
11, 199224, Note_on_c, 10, 57, 90
11, 199224, Note_on_c, 10, 64, 90
11, 199236, Note_on_c, 10, 64, 0
11, 199236, Note_on_c, 10, 57, 0
11, 199248, Note_on_c, 10, 57, 91
11, 199248, Note_on_c, 10, 64, 91
11, 199272, Note_on_c, 10, 64, 0
11, 199272, Note_on_c, 10, 57, 0
11, 199368, Note_on_c, 10, 62, 97
11, 199368, Note_on_c, 10, 66, 97
11, 199380, Note_on_c, 10, 66, 0
11, 199380, Note_on_c, 10, 62, 0
11, 199392, Note_on_c, 10, 62, 98
11, 199392, Note_on_c, 10, 66, 98
11, 199416, Note_on_c, 10, 66, 0
11, 199416, Note_on_c, 10, 62, 0
11, 199512, Note_on_c, 10, 45, 103
11, 199512, Note_on_c, 10, 57, 103
11, 199524, Note_on_c, 10, 57, 0
11, 199524, Note_on_c, 10, 45, 0
11, 199536, Note_on_c, 10, 45, 105
11, 199536, Note_on_c, 10, 57, 105
11, 199560, Note_on_c, 10, 57, 0
11, 199560, Note_on_c, 10, 45, 0
11, 199656, Note_on_c, 10, 45, 110
11, 199656, Note_on_c, 10, 57, 110
11, 199668, Note_on_c, 10, 57, 0
11, 199668, Note_on_c, 10, 45, 0
11, 199680, Note_on_c, 10, 45, 111
11, 199680, Note_on_c, 10, 57, 111
11, 199704, Note_on_c, 10, 57, 0
11, 199704, Note_on_c, 10, 45, 0
11, 202320, Note_on_c, 10, 67, 116
11, 202355, Note_on_c, 10, 67, 0
11, 202392, Note_on_c, 10, 67, 113
11, 202404, Note_on_c, 10, 67, 0
11, 202416, Note_on_c, 10, 67, 113
11, 202440, Note_on_c, 10, 67, 0
11, 202464, Note_on_c, 10, 67, 116
11, 202488, Note_on_c, 10, 67, 0
11, 202512, Note_on_c, 10, 67, 113
11, 202536, Note_on_c, 10, 67, 0
11, 202560, Note_on_c, 10, 67, 113
11, 202584, Note_on_c, 10, 67, 0
11, 202608, Note_on_c, 10, 60, 113
11, 202632, Note_on_c, 10, 60, 0
11, 202896, Note_on_c, 10, 57, 116
11, 202931, Note_on_c, 10, 57, 0
11, 202968, Note_on_c, 10, 57, 113
11, 202980, Note_on_c, 10, 57, 0
11, 202992, Note_on_c, 10, 57, 113
11, 203016, Note_on_c, 10, 57, 0
11, 203040, Note_on_c, 10, 57, 116
11, 203064, Note_on_c, 10, 57, 0
11, 203088, Note_on_c, 10, 57, 113
11, 203112, Note_on_c, 10, 57, 0
11, 203136, Note_on_c, 10, 57, 113
11, 203160, Note_on_c, 10, 57, 0
11, 203184, Control_c, 10, 1, 0
11, 203184, Note_on_c, 10, 50, 60
11, 203184, Note_on_c, 10, 62, 60
11, 203185, Control_c, 10, 1, 1
11, 203186, Control_c, 10, 1, 2
11, 203188, Control_c, 10, 1, 3
11, 203190, Control_c, 10, 1, 4
11, 203192, Control_c, 10, 1, 5
11, 203195, Control_c, 10, 1, 6
11, 203197, Control_c, 10, 1, 7
11, 203200, Control_c, 10, 1, 8
11, 203203, Control_c, 10, 1, 9
11, 203208, Control_c, 10, 1, 10
11, 203212, Control_c, 10, 1, 11
11, 203218, Control_c, 10, 1, 12
11, 203225, Control_c, 10, 1, 13
11, 203235, Control_c, 10, 1, 14
11, 203253, Control_c, 10, 1, 15
11, 203472, Note_on_c, 10, 67, 60
11, 203473, Note_on_c, 10, 62, 0
11, 203473, Note_on_c, 10, 50, 0
11, 203502, Note_on_c, 10, 67, 0
11, 203760, Control_c, 10, 11, 60
11, 203760, Note_on_c, 10, 67, 100
11, 203765, Control_c, 10, 11, 61
11, 203770, Control_c, 10, 11, 62
11, 203775, Control_c, 10, 11, 63
11, 203780, Control_c, 10, 11, 64
11, 203784, Control_c, 10, 11, 65
11, 203789, Control_c, 10, 11, 66
11, 203794, Control_c, 10, 11, 67
11, 203799, Control_c, 10, 11, 68
11, 203803, Control_c, 10, 11, 69
11, 203808, Control_c, 10, 11, 70
11, 203813, Control_c, 10, 11, 71
11, 203818, Control_c, 10, 11, 72
11, 203822, Control_c, 10, 11, 73
11, 203827, Control_c, 10, 11, 74
11, 203832, Control_c, 10, 11, 75
11, 203837, Control_c, 10, 11, 76
11, 203842, Control_c, 10, 11, 77
11, 203846, Control_c, 10, 11, 78
11, 203851, Control_c, 10, 11, 79
11, 203856, Control_c, 10, 11, 80
11, 203861, Control_c, 10, 11, 81
11, 203865, Control_c, 10, 11, 82
11, 203870, Control_c, 10, 11, 83
11, 203875, Control_c, 10, 11, 84
11, 203880, Control_c, 10, 11, 85
11, 203884, Control_c, 10, 11, 86
11, 203889, Control_c, 10, 11, 87
11, 203894, Control_c, 10, 11, 88
11, 203899, Control_c, 10, 11, 89
11, 203903, Control_c, 10, 11, 90
11, 203904, Control_c, 10, 11, 90
11, 203909, Control_c, 10, 11, 89
11, 203914, Control_c, 10, 11, 88
11, 203919, Control_c, 10, 11, 87
11, 203924, Control_c, 10, 11, 86
11, 203928, Control_c, 10, 11, 85
11, 203933, Control_c, 10, 11, 84
11, 203938, Control_c, 10, 11, 83
11, 203943, Control_c, 10, 11, 82
11, 203947, Control_c, 10, 11, 81
11, 203952, Note_on_c, 10, 67, 0
11, 203952, Note_on_c, 10, 57, 100
11, 203952, Note_on_c, 10, 69, 100
11, 203952, Control_c, 10, 11, 80
11, 203957, Control_c, 10, 11, 79
11, 203962, Control_c, 10, 11, 78
11, 203966, Control_c, 10, 11, 77
11, 203971, Control_c, 10, 11, 76
11, 203976, Control_c, 10, 11, 75
11, 203981, Control_c, 10, 11, 74
11, 203986, Control_c, 10, 11, 73
11, 203990, Control_c, 10, 11, 72
11, 203995, Control_c, 10, 11, 71
11, 204000, Note_on_c, 10, 69, 0
11, 204000, Note_on_c, 10, 57, 0
11, 204000, Note_on_c, 10, 57, 100
11, 204000, Control_c, 10, 11, 70
11, 204005, Control_c, 10, 11, 69
11, 204009, Control_c, 10, 11, 68
11, 204014, Control_c, 10, 11, 67
11, 204019, Control_c, 10, 11, 66
11, 204024, Control_c, 10, 11, 65
11, 204028, Control_c, 10, 11, 64
11, 204033, Control_c, 10, 11, 63
11, 204038, Control_c, 10, 11, 62
11, 204043, Control_c, 10, 11, 61
11, 204047, Control_c, 10, 11, 60
11, 204048, Note_on_c, 10, 57, 0
11, 204422, Control_c, 10, 11, 99
11, 204432, Control_c, 10, 1, 0
11, 204432, Note_on_c, 10, 67, 100
11, 204432, Control_c, 10, 11, 100
11, 204433, Control_c, 10, 1, 2
11, 204434, Control_c, 10, 1, 3
11, 204435, Control_c, 10, 1, 4
11, 204436, Control_c, 10, 1, 6
11, 204438, Control_c, 10, 1, 7
11, 204439, Control_c, 10, 1, 8
11, 204440, Control_c, 10, 1, 9
11, 204441, Control_c, 10, 11, 101
11, 204442, Control_c, 10, 1, 10
11, 204443, Control_c, 10, 1, 11
11, 204446, Control_c, 10, 1, 12
11, 204448, Control_c, 10, 1, 13
11, 204451, Control_c, 10, 11, 102
11, 204452, Control_c, 10, 1, 14
11, 204459, Control_c, 10, 1, 15
11, 204461, Control_c, 10, 11, 103
11, 204470, Control_c, 10, 11, 104
11, 204480, Control_c, 10, 11, 105
11, 204489, Control_c, 10, 11, 106
11, 204499, Control_c, 10, 11, 107
11, 204504, Note_on_c, 10, 67, 0
11, 204508, Control_c, 10, 11, 108
11, 204518, Control_c, 10, 1, 0
11, 204518, Control_c, 10, 11, 109
11, 204528, Note_on_c, 10, 57, 100
11, 204528, Note_on_c, 10, 69, 100
11, 204528, Control_c, 10, 11, 110
11, 204537, Control_c, 10, 11, 111
11, 204547, Control_c, 10, 11, 112
11, 204552, Note_on_c, 10, 69, 0
11, 204552, Note_on_c, 10, 57, 0
11, 204556, Control_c, 10, 11, 113
11, 204566, Control_c, 10, 11, 114
11, 204576, Note_on_c, 10, 57, 100
11, 204576, Note_on_c, 10, 69, 100
11, 204576, Control_c, 10, 11, 115
11, 204585, Control_c, 10, 11, 116
11, 204595, Control_c, 10, 11, 117
11, 204600, Note_on_c, 10, 69, 0
11, 204600, Note_on_c, 10, 57, 0
11, 204604, Control_c, 10, 11, 118
11, 204614, Control_c, 10, 11, 119
11, 204623, Control_c, 10, 11, 120
11, 204624, Note_on_c, 10, 57, 105
11, 204624, Note_on_c, 10, 69, 105
11, 204648, Note_on_c, 10, 69, 0
11, 204648, Note_on_c, 10, 57, 0
11, 204672, Note_on_c, 10, 57, 100
11, 204672, Note_on_c, 10, 69, 100
11, 204696, Note_on_c, 10, 69, 0
11, 204696, Note_on_c, 10, 57, 0
11, 204720, Note_on_c, 10, 57, 100
11, 204720, Note_on_c, 10, 69, 100
11, 204744, Note_on_c, 10, 69, 0
11, 204744, Note_on_c, 10, 57, 0
11, 204768, Note_on_c, 10, 57, 105
11, 204768, Note_on_c, 10, 69, 105
11, 204792, Note_on_c, 10, 69, 0
11, 204792, Note_on_c, 10, 57, 0
11, 204816, Note_on_c, 10, 57, 100
11, 204816, Note_on_c, 10, 69, 100
11, 204840, Note_on_c, 10, 69, 0
11, 204840, Note_on_c, 10, 57, 0
11, 204864, Note_on_c, 10, 57, 100
11, 204864, Note_on_c, 10, 69, 100
11, 204888, Note_on_c, 10, 69, 0
11, 204888, Note_on_c, 10, 57, 0
11, 204912, Note_on_c, 10, 57, 105
11, 204912, Note_on_c, 10, 69, 105
11, 204936, Note_on_c, 10, 69, 0
11, 204936, Note_on_c, 10, 57, 0
11, 204960, Note_on_c, 10, 50, 100
11, 204960, Note_on_c, 10, 62, 100
11, 204984, Note_on_c, 10, 62, 0
11, 204984, Note_on_c, 10, 50, 0
11, 205008, Note_on_c, 10, 50, 100
11, 205008, Note_on_c, 10, 62, 100
11, 205032, Note_on_c, 10, 62, 0
11, 205032, Note_on_c, 10, 50, 0
11, 205056, Note_on_c, 10, 50, 105
11, 205056, Note_on_c, 10, 62, 105
11, 205080, Note_on_c, 10, 62, 0
11, 205080, Note_on_c, 10, 50, 0
11, 205104, Note_on_c, 10, 45, 100
11, 205104, Note_on_c, 10, 57, 100
11, 205128, Note_on_c, 10, 57, 0
11, 205128, Note_on_c, 10, 45, 0
11, 205152, Note_on_c, 10, 57, 100
11, 205152, Note_on_c, 10, 69, 100
11, 205176, Note_on_c, 10, 69, 0
11, 205176, Note_on_c, 10, 57, 0
11, 205200, Note_on_c, 10, 57, 105
11, 205200, Note_on_c, 10, 69, 105
11, 205224, Note_on_c, 10, 69, 0
11, 205224, Note_on_c, 10, 57, 0
11, 205248, Note_on_c, 10, 57, 100
11, 205248, Note_on_c, 10, 69, 100
11, 205272, Note_on_c, 10, 69, 0
11, 205272, Note_on_c, 10, 57, 0
11, 205296, Note_on_c, 10, 57, 100
11, 205296, Note_on_c, 10, 69, 100
11, 205320, Note_on_c, 10, 69, 0
11, 205320, Note_on_c, 10, 57, 0
11, 205344, Note_on_c, 10, 57, 105
11, 205344, Note_on_c, 10, 69, 105
11, 205368, Note_on_c, 10, 69, 0
11, 205368, Note_on_c, 10, 57, 0
11, 205392, Note_on_c, 10, 57, 100
11, 205392, Note_on_c, 10, 69, 100
11, 205416, Note_on_c, 10, 69, 0
11, 205416, Note_on_c, 10, 57, 0
11, 205440, Note_on_c, 10, 57, 100
11, 205440, Note_on_c, 10, 69, 100
11, 205464, Note_on_c, 10, 69, 0
11, 205464, Note_on_c, 10, 57, 0
11, 205488, Note_on_c, 10, 57, 105
11, 205488, Note_on_c, 10, 69, 105
11, 205512, Note_on_c, 10, 69, 0
11, 205512, Note_on_c, 10, 57, 0
11, 205536, Note_on_c, 10, 57, 100
11, 205536, Note_on_c, 10, 69, 100
11, 205560, Note_on_c, 10, 69, 0
11, 205560, Note_on_c, 10, 57, 0
11, 205584, Note_on_c, 10, 57, 100
11, 205584, Note_on_c, 10, 69, 100
11, 205608, Note_on_c, 10, 69, 0
11, 205608, Note_on_c, 10, 57, 0
11, 205632, Note_on_c, 10, 57, 105
11, 205632, Note_on_c, 10, 69, 105
11, 205656, Note_on_c, 10, 69, 0
11, 205656, Note_on_c, 10, 57, 0
11, 205680, Note_on_c, 10, 57, 100
11, 205680, Note_on_c, 10, 69, 100
11, 205704, Note_on_c, 10, 69, 0
11, 205704, Note_on_c, 10, 57, 0
11, 205728, Note_on_c, 10, 57, 100
11, 205728, Note_on_c, 10, 69, 100
11, 205752, Note_on_c, 10, 69, 0
11, 205752, Note_on_c, 10, 57, 0
11, 205776, Note_on_c, 10, 57, 105
11, 205776, Note_on_c, 10, 69, 105
11, 205800, Note_on_c, 10, 69, 0
11, 205800, Note_on_c, 10, 57, 0
11, 205824, Note_on_c, 10, 57, 100
11, 205824, Note_on_c, 10, 69, 100
11, 205848, Note_on_c, 10, 69, 0
11, 205848, Note_on_c, 10, 57, 0
11, 205872, Note_on_c, 10, 57, 100
11, 205872, Note_on_c, 10, 69, 100
11, 205896, Note_on_c, 10, 69, 0
11, 205896, Note_on_c, 10, 57, 0
11, 205920, Note_on_c, 10, 57, 105
11, 205920, Note_on_c, 10, 69, 105
11, 205944, Note_on_c, 10, 69, 0
11, 205944, Note_on_c, 10, 57, 0
11, 205968, Note_on_c, 10, 57, 100
11, 205968, Note_on_c, 10, 69, 100
11, 205992, Note_on_c, 10, 69, 0
11, 205992, Note_on_c, 10, 57, 0
11, 206016, Note_on_c, 10, 57, 100
11, 206016, Note_on_c, 10, 69, 100
11, 206040, Note_on_c, 10, 69, 0
11, 206040, Note_on_c, 10, 57, 0
11, 206064, Note_on_c, 10, 57, 105
11, 206064, Note_on_c, 10, 69, 105
11, 206088, Note_on_c, 10, 69, 0
11, 206088, Note_on_c, 10, 57, 0
11, 206112, Note_on_c, 10, 57, 100
11, 206112, Note_on_c, 10, 69, 100
11, 206136, Note_on_c, 10, 69, 0
11, 206136, Note_on_c, 10, 57, 0
11, 206160, Note_on_c, 10, 57, 100
11, 206160, Note_on_c, 10, 69, 100
11, 206184, Note_on_c, 10, 69, 0
11, 206184, Note_on_c, 10, 57, 0
11, 206208, Note_on_c, 10, 57, 105
11, 206208, Note_on_c, 10, 69, 105
11, 206232, Note_on_c, 10, 69, 0
11, 206232, Note_on_c, 10, 57, 0
11, 206256, Note_on_c, 10, 57, 100
11, 206256, Note_on_c, 10, 69, 100
11, 206280, Note_on_c, 10, 69, 0
11, 206280, Note_on_c, 10, 57, 0
11, 206304, Note_on_c, 10, 57, 100
11, 206304, Note_on_c, 10, 69, 100
11, 206328, Note_on_c, 10, 69, 0
11, 206328, Note_on_c, 10, 57, 0
11, 206928, Note_on_c, 10, 50, 55
11, 206928, Note_on_c, 10, 62, 55
11, 206963, Note_on_c, 10, 62, 0
11, 206963, Note_on_c, 10, 50, 0
11, 207000, Note_on_c, 10, 50, 50
11, 207000, Note_on_c, 10, 62, 50
11, 207012, Note_on_c, 10, 62, 0
11, 207012, Note_on_c, 10, 50, 0
11, 207024, Note_on_c, 10, 50, 50
11, 207024, Note_on_c, 10, 62, 50
11, 207048, Note_on_c, 10, 62, 0
11, 207048, Note_on_c, 10, 50, 0
11, 207072, Note_on_c, 10, 50, 50
11, 207072, Note_on_c, 10, 62, 50
11, 207096, Note_on_c, 10, 62, 0
11, 207096, Note_on_c, 10, 50, 0
11, 207360, Note_on_c, 10, 50, 55
11, 207360, Note_on_c, 10, 62, 55
11, 207395, Note_on_c, 10, 62, 0
11, 207395, Note_on_c, 10, 50, 0
11, 207432, Note_on_c, 10, 50, 50
11, 207432, Note_on_c, 10, 62, 50
11, 207444, Note_on_c, 10, 62, 0
11, 207444, Note_on_c, 10, 50, 0
11, 207456, Note_on_c, 10, 50, 50
11, 207456, Note_on_c, 10, 62, 50
11, 207480, Note_on_c, 10, 62, 0
11, 207480, Note_on_c, 10, 50, 0
11, 207504, Note_on_c, 10, 50, 50
11, 207504, Note_on_c, 10, 62, 50
11, 207528, Note_on_c, 10, 62, 0
11, 207528, Note_on_c, 10, 50, 0
11, 208080, Note_on_c, 10, 50, 50
11, 208080, Note_on_c, 10, 62, 50
11, 208115, Note_on_c, 10, 62, 0
11, 208115, Note_on_c, 10, 50, 0
11, 208152, Note_on_c, 10, 50, 54
11, 208152, Note_on_c, 10, 62, 54
11, 208164, Note_on_c, 10, 62, 0
11, 208164, Note_on_c, 10, 50, 0
11, 208176, Note_on_c, 10, 50, 55
11, 208176, Note_on_c, 10, 62, 55
11, 208200, Note_on_c, 10, 62, 0
11, 208200, Note_on_c, 10, 50, 0
11, 208224, Note_on_c, 10, 50, 58
11, 208224, Note_on_c, 10, 62, 58
11, 208248, Note_on_c, 10, 62, 0
11, 208248, Note_on_c, 10, 50, 0
11, 208368, Note_on_c, 10, 50, 66
11, 208368, Note_on_c, 10, 62, 66
11, 208403, Note_on_c, 10, 62, 0
11, 208403, Note_on_c, 10, 50, 0
11, 208440, Note_on_c, 10, 50, 71
11, 208440, Note_on_c, 10, 62, 71
11, 208452, Note_on_c, 10, 62, 0
11, 208452, Note_on_c, 10, 50, 0
11, 208464, Note_on_c, 10, 50, 72
11, 208464, Note_on_c, 10, 62, 72
11, 208488, Note_on_c, 10, 62, 0
11, 208488, Note_on_c, 10, 50, 0
11, 208512, Note_on_c, 10, 50, 75
11, 208512, Note_on_c, 10, 62, 75
11, 208536, Note_on_c, 10, 62, 0
11, 208536, Note_on_c, 10, 50, 0
11, 208656, Note_on_c, 10, 50, 83
11, 208656, Note_on_c, 10, 62, 83
11, 208691, Note_on_c, 10, 62, 0
11, 208691, Note_on_c, 10, 50, 0
11, 208728, Note_on_c, 10, 50, 87
11, 208728, Note_on_c, 10, 62, 87
11, 208740, Note_on_c, 10, 62, 0
11, 208740, Note_on_c, 10, 50, 0
11, 208752, Note_on_c, 10, 50, 89
11, 208752, Note_on_c, 10, 62, 89
11, 208776, Note_on_c, 10, 62, 0
11, 208776, Note_on_c, 10, 50, 0
11, 208800, Note_on_c, 10, 50, 92
11, 208800, Note_on_c, 10, 62, 92
11, 208824, Note_on_c, 10, 62, 0
11, 208824, Note_on_c, 10, 50, 0
11, 208944, Note_on_c, 10, 50, 100
11, 208944, Note_on_c, 10, 62, 100
11, 208979, Note_on_c, 10, 62, 0
11, 208979, Note_on_c, 10, 50, 0
11, 209016, Note_on_c, 10, 50, 104
11, 209016, Note_on_c, 10, 62, 104
11, 209028, Note_on_c, 10, 62, 0
11, 209028, Note_on_c, 10, 50, 0
11, 209040, Note_on_c, 10, 50, 106
11, 209040, Note_on_c, 10, 62, 106
11, 209064, Note_on_c, 10, 62, 0
11, 209064, Note_on_c, 10, 50, 0
11, 209088, Note_on_c, 10, 57, 109
11, 209088, Note_on_c, 10, 64, 109
11, 209123, Note_on_c, 10, 64, 0
11, 209123, Note_on_c, 10, 57, 0
11, 209160, Note_on_c, 10, 57, 113
11, 209160, Note_on_c, 10, 64, 113
11, 209172, Note_on_c, 10, 64, 0
11, 209172, Note_on_c, 10, 57, 0
11, 209184, Control_c, 10, 1, 0
11, 209184, Note_on_c, 10, 57, 114
11, 209184, Note_on_c, 10, 64, 114
11, 209185, Control_c, 10, 1, 1
11, 209186, Control_c, 10, 1, 2
11, 209187, Control_c, 10, 1, 3
11, 209188, Control_c, 10, 1, 4
11, 209190, Control_c, 10, 1, 5
11, 209191, Control_c, 10, 1, 6
11, 209193, Control_c, 10, 1, 7
11, 209195, Control_c, 10, 1, 8
11, 209197, Control_c, 10, 1, 9
11, 209200, Control_c, 10, 1, 10
11, 209203, Control_c, 10, 1, 11
11, 209207, Control_c, 10, 1, 12
11, 209212, Control_c, 10, 1, 13
11, 209218, Control_c, 10, 1, 14
11, 209229, Note_on_c, 10, 64, 0
11, 209229, Note_on_c, 10, 57, 0
11, 209230, Control_c, 10, 1, 15
11, 209280, Control_c, 10, 1, 0
11, 209280, Note_on_c, 10, 57, 55
11, 209280, Note_on_c, 10, 69, 55
11, 209304, Note_on_c, 10, 69, 0
11, 209304, Note_on_c, 10, 57, 0
11, 209328, Note_on_c, 10, 57, 50
11, 209328, Note_on_c, 10, 69, 50
11, 209352, Note_on_c, 10, 69, 0
11, 209352, Note_on_c, 10, 57, 0
11, 209376, Note_on_c, 10, 57, 50
11, 209376, Note_on_c, 10, 69, 50
11, 209400, Note_on_c, 10, 69, 0
11, 209400, Note_on_c, 10, 57, 0
11, 209424, Note_on_c, 10, 57, 55
11, 209424, Note_on_c, 10, 69, 55
11, 209448, Note_on_c, 10, 69, 0
11, 209448, Note_on_c, 10, 57, 0
11, 209472, Note_on_c, 10, 57, 50
11, 209472, Note_on_c, 10, 69, 50
11, 209496, Note_on_c, 10, 69, 0
11, 209496, Note_on_c, 10, 57, 0
11, 209520, Note_on_c, 10, 57, 50
11, 209520, Note_on_c, 10, 69, 50
11, 209544, Note_on_c, 10, 69, 0
11, 209544, Note_on_c, 10, 57, 0
11, 209568, Note_on_c, 10, 57, 55
11, 209568, Note_on_c, 10, 69, 55
11, 209592, Note_on_c, 10, 69, 0
11, 209592, Note_on_c, 10, 57, 0
11, 209616, Note_on_c, 10, 50, 50
11, 209616, Note_on_c, 10, 62, 50
11, 209640, Note_on_c, 10, 62, 0
11, 209640, Note_on_c, 10, 50, 0
11, 209664, Note_on_c, 10, 50, 50
11, 209664, Note_on_c, 10, 62, 50
11, 209688, Note_on_c, 10, 62, 0
11, 209688, Note_on_c, 10, 50, 0
11, 209712, Note_on_c, 10, 50, 55
11, 209712, Note_on_c, 10, 62, 55
11, 209736, Note_on_c, 10, 62, 0
11, 209736, Note_on_c, 10, 50, 0
11, 209760, Note_on_c, 10, 50, 50
11, 209760, Note_on_c, 10, 62, 50
11, 209784, Note_on_c, 10, 62, 0
11, 209784, Note_on_c, 10, 50, 0
11, 209808, Note_on_c, 10, 50, 50
11, 209808, Note_on_c, 10, 62, 50
11, 209832, Note_on_c, 10, 62, 0
11, 209832, Note_on_c, 10, 50, 0
11, 209856, Note_on_c, 10, 45, 55
11, 209856, Note_on_c, 10, 57, 55
11, 209880, Note_on_c, 10, 57, 0
11, 209880, Note_on_c, 10, 45, 0
11, 209904, Note_on_c, 10, 57, 50
11, 209904, Note_on_c, 10, 69, 50
11, 209928, Note_on_c, 10, 69, 0
11, 209928, Note_on_c, 10, 57, 0
11, 209952, Note_on_c, 10, 57, 50
11, 209952, Note_on_c, 10, 69, 50
11, 209976, Note_on_c, 10, 69, 0
11, 209976, Note_on_c, 10, 57, 0
11, 210000, Note_on_c, 10, 57, 55
11, 210000, Note_on_c, 10, 69, 55
11, 210024, Note_on_c, 10, 69, 0
11, 210024, Note_on_c, 10, 57, 0
11, 210048, Note_on_c, 10, 57, 50
11, 210048, Note_on_c, 10, 69, 50
11, 210072, Note_on_c, 10, 69, 0
11, 210072, Note_on_c, 10, 57, 0
11, 210096, Note_on_c, 10, 57, 50
11, 210096, Note_on_c, 10, 69, 50
11, 210120, Note_on_c, 10, 69, 0
11, 210120, Note_on_c, 10, 57, 0
11, 210144, Note_on_c, 10, 57, 55
11, 210144, Note_on_c, 10, 69, 55
11, 210168, Note_on_c, 10, 69, 0
11, 210168, Note_on_c, 10, 57, 0
11, 210192, Note_on_c, 10, 50, 50
11, 210192, Note_on_c, 10, 62, 50
11, 210216, Note_on_c, 10, 62, 0
11, 210216, Note_on_c, 10, 50, 0
11, 210240, Note_on_c, 10, 50, 50
11, 210240, Note_on_c, 10, 62, 50
11, 210264, Note_on_c, 10, 62, 0
11, 210264, Note_on_c, 10, 50, 0
11, 210288, Note_on_c, 10, 50, 55
11, 210288, Note_on_c, 10, 62, 55
11, 210312, Note_on_c, 10, 62, 0
11, 210312, Note_on_c, 10, 50, 0
11, 210336, Note_on_c, 10, 50, 50
11, 210336, Note_on_c, 10, 62, 50
11, 210360, Note_on_c, 10, 62, 0
11, 210360, Note_on_c, 10, 50, 0
11, 210384, Note_on_c, 10, 50, 50
11, 210384, Note_on_c, 10, 62, 50
11, 210408, Note_on_c, 10, 62, 0
11, 210408, Note_on_c, 10, 50, 0
11, 210432, Note_on_c, 10, 50, 50
11, 210432, Note_on_c, 10, 62, 50
11, 210456, Note_on_c, 10, 62, 0
11, 210456, Note_on_c, 10, 50, 0
11, 210480, Note_on_c, 10, 57, 52
11, 210480, Note_on_c, 10, 69, 52
11, 210504, Note_on_c, 10, 69, 0
11, 210504, Note_on_c, 10, 57, 0
11, 210528, Note_on_c, 10, 57, 55
11, 210528, Note_on_c, 10, 69, 55
11, 210552, Note_on_c, 10, 69, 0
11, 210552, Note_on_c, 10, 57, 0
11, 210576, Note_on_c, 10, 57, 57
11, 210576, Note_on_c, 10, 69, 57
11, 210600, Note_on_c, 10, 69, 0
11, 210600, Note_on_c, 10, 57, 0
11, 210624, Note_on_c, 10, 57, 60
11, 210624, Note_on_c, 10, 69, 60
11, 210648, Note_on_c, 10, 69, 0
11, 210648, Note_on_c, 10, 57, 0
11, 210672, Note_on_c, 10, 57, 63
11, 210672, Note_on_c, 10, 69, 63
11, 210696, Note_on_c, 10, 69, 0
11, 210696, Note_on_c, 10, 57, 0
11, 210720, Note_on_c, 10, 57, 65
11, 210720, Note_on_c, 10, 69, 65
11, 210744, Note_on_c, 10, 69, 0
11, 210744, Note_on_c, 10, 57, 0
11, 210768, Note_on_c, 10, 57, 68
11, 210768, Note_on_c, 10, 69, 68
11, 210792, Note_on_c, 10, 69, 0
11, 210792, Note_on_c, 10, 57, 0
11, 210816, Note_on_c, 10, 57, 71
11, 210816, Note_on_c, 10, 69, 71
11, 210840, Note_on_c, 10, 69, 0
11, 210840, Note_on_c, 10, 57, 0
11, 210864, Note_on_c, 10, 57, 73
11, 210864, Note_on_c, 10, 69, 73
11, 210888, Note_on_c, 10, 69, 0
11, 210888, Note_on_c, 10, 57, 0
11, 210912, Note_on_c, 10, 57, 76
11, 210912, Note_on_c, 10, 69, 76
11, 210936, Note_on_c, 10, 69, 0
11, 210936, Note_on_c, 10, 57, 0
11, 210960, Note_on_c, 10, 57, 78
11, 210960, Note_on_c, 10, 69, 78
11, 210984, Note_on_c, 10, 69, 0
11, 210984, Note_on_c, 10, 57, 0
11, 211008, Note_on_c, 10, 57, 81
11, 211008, Note_on_c, 10, 69, 81
11, 211032, Note_on_c, 10, 69, 0
11, 211032, Note_on_c, 10, 57, 0
11, 211056, Note_on_c, 10, 57, 84
11, 211056, Note_on_c, 10, 69, 84
11, 211080, Note_on_c, 10, 69, 0
11, 211080, Note_on_c, 10, 57, 0
11, 211104, Note_on_c, 10, 57, 86
11, 211104, Note_on_c, 10, 69, 86
11, 211128, Note_on_c, 10, 69, 0
11, 211128, Note_on_c, 10, 57, 0
11, 211152, Note_on_c, 10, 57, 89
11, 211152, Note_on_c, 10, 69, 89
11, 211176, Note_on_c, 10, 69, 0
11, 211176, Note_on_c, 10, 57, 0
11, 211200, Note_on_c, 10, 57, 92
11, 211200, Note_on_c, 10, 69, 92
11, 211224, Note_on_c, 10, 69, 0
11, 211224, Note_on_c, 10, 57, 0
11, 211248, Note_on_c, 10, 57, 94
11, 211248, Note_on_c, 10, 69, 94
11, 211272, Note_on_c, 10, 69, 0
11, 211272, Note_on_c, 10, 57, 0
11, 211296, Note_on_c, 10, 57, 97
11, 211296, Note_on_c, 10, 69, 97
11, 211320, Note_on_c, 10, 69, 0
11, 211320, Note_on_c, 10, 57, 0
11, 211344, Note_on_c, 10, 57, 99
11, 211344, Note_on_c, 10, 69, 99
11, 211368, Note_on_c, 10, 69, 0
11, 211368, Note_on_c, 10, 57, 0
11, 211392, Note_on_c, 10, 57, 102
11, 211392, Note_on_c, 10, 69, 102
11, 211416, Note_on_c, 10, 69, 0
11, 211416, Note_on_c, 10, 57, 0
11, 211440, Note_on_c, 10, 57, 105
11, 211440, Note_on_c, 10, 69, 105
11, 211464, Note_on_c, 10, 69, 0
11, 211464, Note_on_c, 10, 57, 0
11, 211488, Note_on_c, 10, 57, 107
11, 211488, Note_on_c, 10, 69, 107
11, 211512, Note_on_c, 10, 69, 0
11, 211512, Note_on_c, 10, 57, 0
11, 211536, Note_on_c, 10, 57, 110
11, 211536, Note_on_c, 10, 69, 110
11, 211560, Note_on_c, 10, 69, 0
11, 211560, Note_on_c, 10, 57, 0
11, 211584, Note_on_c, 10, 69, 125
11, 211608, Note_on_c, 10, 69, 0
11, 211632, Note_on_c, 10, 57, 115
11, 211656, Note_on_c, 10, 57, 0
11, 211680, Note_on_c, 10, 62, 125
11, 211704, Note_on_c, 10, 62, 0
11, 211728, Note_on_c, 10, 50, 115
11, 211752, Note_on_c, 10, 50, 0
11, 211776, Note_on_c, 10, 57, 125
11, 211800, Note_on_c, 10, 57, 0
11, 211824, Note_on_c, 10, 45, 115
11, 211848, Note_on_c, 10, 45, 0
11, 211872, Note_on_c, 10, 69, 125
11, 211896, Note_on_c, 10, 69, 0
11, 211920, Note_on_c, 10, 57, 120
11, 211944, Note_on_c, 10, 57, 0
11, 211968, Note_on_c, 10, 50, 110
11, 211968, Note_on_c, 10, 62, 110
11, 211992, Note_on_c, 10, 62, 0
11, 211992, Note_on_c, 10, 50, 0
11, 213504, Control_c, 10, 11, 127
11, 213504, Note_on_c, 10, 69, 127
11, 213528, Note_on_c, 10, 69, 0
11, 213552, Note_on_c, 10, 57, 115
11, 213576, Note_on_c, 10, 57, 0
11, 213600, Note_on_c, 10, 62, 125
11, 213624, Note_on_c, 10, 62, 0
11, 213648, Note_on_c, 10, 50, 115
11, 213672, Note_on_c, 10, 50, 0
11, 213696, Note_on_c, 10, 57, 125
11, 213720, Note_on_c, 10, 57, 0
11, 213744, Note_on_c, 10, 45, 115
11, 213768, Note_on_c, 10, 45, 0
11, 213792, Note_on_c, 10, 69, 125
11, 213816, Note_on_c, 10, 69, 0
11, 213840, Note_on_c, 10, 57, 115
11, 213864, Note_on_c, 10, 57, 0
11, 213888, Note_on_c, 10, 50, 125
11, 213888, Note_on_c, 10, 62, 125
11, 213912, Note_on_c, 10, 62, 0
11, 213912, Note_on_c, 10, 50, 0
11, 214080, End_track
12, 0, Start_track
12, 0, Title_t, "Corni in B(Si-flat)"
12, 0, MIDI_port, 0
12, 192, Control_c, 11, 91, 50
12, 192, Control_c, 11, 93, 45
12, 192, Control_c, 11, 10, 84
12, 192, Control_c, 11, 7, 110
12, 192, Control_c, 11, 11, 120
12, 912, Control_c, 11, 1, 0
12, 912, Program_c, 11, 60
12, 912, Note_on_c, 11, 62, 110
12, 947, Note_on_c, 11, 62, 0
12, 984, Note_on_c, 11, 50, 100
12, 996, Note_on_c, 11, 50, 0
12, 1008, Note_on_c, 11, 50, 100
12, 1032, Note_on_c, 11, 50, 0
12, 3072, Note_on_c, 11, 65, 50
12, 3096, Note_on_c, 11, 65, 0
12, 3216, Note_on_c, 11, 60, 50
12, 3240, Note_on_c, 11, 60, 0
12, 4080, Note_on_c, 11, 41, 50
12, 4080, Note_on_c, 11, 53, 50
12, 4104, Note_on_c, 11, 53, 0
12, 4104, Note_on_c, 11, 41, 0
12, 4224, Note_on_c, 11, 41, 50
12, 4224, Note_on_c, 11, 53, 50
12, 4248, Note_on_c, 11, 53, 0
12, 4248, Note_on_c, 11, 41, 0
12, 6192, Note_on_c, 11, 53, 50
12, 6192, Note_on_c, 11, 65, 50
12, 6216, Note_on_c, 11, 65, 0
12, 6216, Note_on_c, 11, 53, 0
12, 6384, Note_on_c, 11, 50, 55
12, 6384, Note_on_c, 11, 62, 55
12, 6408, Note_on_c, 11, 62, 0
12, 6408, Note_on_c, 11, 50, 0
12, 6480, Note_on_c, 11, 53, 50
12, 6480, Note_on_c, 11, 65, 50
12, 6504, Note_on_c, 11, 65, 0
12, 6504, Note_on_c, 11, 53, 0
12, 6672, Note_on_c, 11, 50, 55
12, 6672, Note_on_c, 11, 62, 55
12, 6696, Note_on_c, 11, 62, 0
12, 6696, Note_on_c, 11, 50, 0
12, 6768, Note_on_c, 11, 53, 58
12, 6768, Note_on_c, 11, 65, 58
12, 6792, Note_on_c, 11, 65, 0
12, 6792, Note_on_c, 11, 53, 0
12, 6960, Note_on_c, 11, 50, 65
12, 6960, Note_on_c, 11, 62, 65
12, 6984, Note_on_c, 11, 62, 0
12, 6984, Note_on_c, 11, 50, 0
12, 7056, Note_on_c, 11, 53, 68
12, 7056, Note_on_c, 11, 65, 68
12, 7080, Note_on_c, 11, 65, 0
12, 7080, Note_on_c, 11, 53, 0
12, 7248, Note_on_c, 11, 50, 75
12, 7248, Note_on_c, 11, 62, 75
12, 7272, Note_on_c, 11, 62, 0
12, 7272, Note_on_c, 11, 50, 0
12, 7344, Note_on_c, 11, 53, 78
12, 7344, Note_on_c, 11, 65, 78
12, 7368, Note_on_c, 11, 65, 0
12, 7368, Note_on_c, 11, 53, 0
12, 7536, Note_on_c, 11, 50, 85
12, 7536, Note_on_c, 11, 62, 85
12, 7560, Note_on_c, 11, 62, 0
12, 7560, Note_on_c, 11, 50, 0
12, 7632, Note_on_c, 11, 53, 88
12, 7632, Note_on_c, 11, 65, 88
12, 7656, Note_on_c, 11, 65, 0
12, 7656, Note_on_c, 11, 53, 0
12, 7824, Note_on_c, 11, 50, 95
12, 7824, Note_on_c, 11, 62, 95
12, 7848, Note_on_c, 11, 62, 0
12, 7848, Note_on_c, 11, 50, 0
12, 7920, Note_on_c, 11, 53, 98
12, 7920, Note_on_c, 11, 65, 98
12, 7944, Note_on_c, 11, 65, 0
12, 7944, Note_on_c, 11, 53, 0
12, 8016, Note_on_c, 11, 53, 102
12, 8016, Note_on_c, 11, 65, 102
12, 8040, Note_on_c, 11, 65, 0
12, 8040, Note_on_c, 11, 53, 0
12, 8256, Note_on_c, 11, 50, 115
12, 8256, Note_on_c, 11, 62, 115
12, 8280, Note_on_c, 11, 62, 0
12, 8280, Note_on_c, 11, 50, 0
12, 8304, Note_on_c, 11, 50, 110
12, 8304, Note_on_c, 11, 62, 110
12, 8328, Note_on_c, 11, 62, 0
12, 8328, Note_on_c, 11, 50, 0
12, 8352, Note_on_c, 11, 50, 110
12, 8352, Note_on_c, 11, 62, 110
12, 8376, Note_on_c, 11, 62, 0
12, 8376, Note_on_c, 11, 50, 0
12, 8400, Note_on_c, 11, 50, 115
12, 8400, Note_on_c, 11, 62, 115
12, 8424, Note_on_c, 11, 62, 0
12, 8424, Note_on_c, 11, 50, 0
12, 8448, Note_on_c, 11, 50, 110
12, 8448, Note_on_c, 11, 62, 110
12, 8472, Note_on_c, 11, 62, 0
12, 8472, Note_on_c, 11, 50, 0
12, 8496, Note_on_c, 11, 50, 110
12, 8496, Note_on_c, 11, 62, 110
12, 8520, Note_on_c, 11, 62, 0
12, 8520, Note_on_c, 11, 50, 0
12, 8688, Note_on_c, 11, 50, 115
12, 8688, Note_on_c, 11, 62, 115
12, 8712, Note_on_c, 11, 62, 0
12, 8712, Note_on_c, 11, 50, 0
12, 8736, Note_on_c, 11, 50, 110
12, 8736, Note_on_c, 11, 62, 110
12, 8760, Note_on_c, 11, 62, 0
12, 8760, Note_on_c, 11, 50, 0
12, 8784, Note_on_c, 11, 50, 110
12, 8784, Note_on_c, 11, 62, 110
12, 8808, Note_on_c, 11, 62, 0
12, 8808, Note_on_c, 11, 50, 0
12, 8832, Note_on_c, 11, 50, 115
12, 8832, Note_on_c, 11, 62, 115
12, 8856, Note_on_c, 11, 62, 0
12, 8856, Note_on_c, 11, 50, 0
12, 8880, Note_on_c, 11, 50, 110
12, 8880, Note_on_c, 11, 62, 110
12, 8904, Note_on_c, 11, 62, 0
12, 8904, Note_on_c, 11, 50, 0
12, 8928, Note_on_c, 11, 50, 110
12, 8928, Note_on_c, 11, 62, 110
12, 8952, Note_on_c, 11, 62, 0
12, 8952, Note_on_c, 11, 50, 0
12, 8976, Note_on_c, 11, 53, 115
12, 8976, Note_on_c, 11, 65, 115
12, 9000, Note_on_c, 11, 65, 0
12, 9000, Note_on_c, 11, 53, 0
12, 9024, Note_on_c, 11, 53, 110
12, 9024, Note_on_c, 11, 65, 110
12, 9048, Note_on_c, 11, 65, 0
12, 9048, Note_on_c, 11, 53, 0
12, 9072, Note_on_c, 11, 53, 110
12, 9072, Note_on_c, 11, 65, 110
12, 9096, Note_on_c, 11, 65, 0
12, 9096, Note_on_c, 11, 53, 0
12, 9264, Note_on_c, 11, 53, 115
12, 9264, Note_on_c, 11, 65, 115
12, 9288, Note_on_c, 11, 65, 0
12, 9288, Note_on_c, 11, 53, 0
12, 9360, Note_on_c, 11, 53, 110
12, 9360, Note_on_c, 11, 65, 110
12, 9384, Note_on_c, 11, 65, 0
12, 9384, Note_on_c, 11, 53, 0
12, 9408, Note_on_c, 11, 50, 115
12, 9408, Note_on_c, 11, 62, 115
12, 9432, Note_on_c, 11, 62, 0
12, 9432, Note_on_c, 11, 50, 0
12, 9456, Note_on_c, 11, 50, 110
12, 9456, Note_on_c, 11, 62, 110
12, 9480, Note_on_c, 11, 62, 0
12, 9480, Note_on_c, 11, 50, 0
12, 9504, Note_on_c, 11, 50, 110
12, 9504, Note_on_c, 11, 62, 110
12, 9528, Note_on_c, 11, 62, 0
12, 9528, Note_on_c, 11, 50, 0
12, 9552, Note_on_c, 11, 53, 115
12, 9552, Note_on_c, 11, 65, 115
12, 9576, Note_on_c, 11, 65, 0
12, 9576, Note_on_c, 11, 53, 0
12, 9600, Note_on_c, 11, 53, 110
12, 9600, Note_on_c, 11, 65, 110
12, 9624, Note_on_c, 11, 65, 0
12, 9624, Note_on_c, 11, 53, 0
12, 9648, Note_on_c, 11, 53, 110
12, 9648, Note_on_c, 11, 65, 110
12, 9672, Note_on_c, 11, 65, 0
12, 9672, Note_on_c, 11, 53, 0
12, 9840, Note_on_c, 11, 50, 115
12, 9840, Note_on_c, 11, 62, 115
12, 9864, Note_on_c, 11, 62, 0
12, 9864, Note_on_c, 11, 50, 0
12, 9888, Note_on_c, 11, 50, 110
12, 9888, Note_on_c, 11, 62, 110
12, 9912, Note_on_c, 11, 62, 0
12, 9912, Note_on_c, 11, 50, 0
12, 9936, Note_on_c, 11, 50, 110
12, 9936, Note_on_c, 11, 62, 110
12, 9960, Note_on_c, 11, 62, 0
12, 9960, Note_on_c, 11, 50, 0
12, 9984, Note_on_c, 11, 50, 115
12, 9984, Note_on_c, 11, 62, 115
12, 10008, Note_on_c, 11, 62, 0
12, 10008, Note_on_c, 11, 50, 0
12, 10032, Note_on_c, 11, 50, 110
12, 10032, Note_on_c, 11, 62, 110
12, 10056, Note_on_c, 11, 62, 0
12, 10056, Note_on_c, 11, 50, 0
12, 10080, Note_on_c, 11, 50, 110
12, 10080, Note_on_c, 11, 62, 110
12, 10104, Note_on_c, 11, 62, 0
12, 10104, Note_on_c, 11, 50, 0
12, 10128, Note_on_c, 11, 60, 110
12, 10152, Note_on_c, 11, 60, 0
12, 10464, Note_on_c, 11, 50, 110
12, 10464, Note_on_c, 11, 62, 110
12, 10488, Note_on_c, 11, 62, 0
12, 10488, Note_on_c, 11, 50, 0
12, 10512, Note_on_c, 11, 50, 110
12, 10512, Note_on_c, 11, 62, 110
12, 10536, Note_on_c, 11, 62, 0
12, 10536, Note_on_c, 11, 50, 0
12, 10560, Note_on_c, 11, 50, 115
12, 10560, Note_on_c, 11, 62, 115
12, 10584, Note_on_c, 11, 62, 0
12, 10584, Note_on_c, 11, 50, 0
12, 10608, Note_on_c, 11, 50, 110
12, 10608, Note_on_c, 11, 62, 110
12, 10632, Note_on_c, 11, 62, 0
12, 10632, Note_on_c, 11, 50, 0
12, 10656, Note_on_c, 11, 50, 110
12, 10656, Note_on_c, 11, 62, 110
12, 10680, Note_on_c, 11, 62, 0
12, 10680, Note_on_c, 11, 50, 0
12, 10704, Note_on_c, 11, 60, 110
12, 10728, Note_on_c, 11, 60, 0
12, 10848, Note_on_c, 11, 60, 110
12, 10872, Note_on_c, 11, 60, 0
12, 10992, Note_on_c, 11, 60, 110
12, 11016, Note_on_c, 11, 60, 0
12, 13440, Control_c, 11, 11, 113
12, 13440, Control_c, 11, 1, 0
12, 13440, Note_on_c, 11, 60, 110
12, 13441, Control_c, 11, 1, 1
12, 13442, Control_c, 11, 1, 2
12, 13444, Control_c, 11, 1, 3
12, 13446, Control_c, 11, 1, 4
12, 13448, Control_c, 11, 1, 5
12, 13451, Control_c, 11, 1, 6
12, 13453, Control_c, 11, 1, 7
12, 13456, Control_c, 11, 1, 8
12, 13459, Control_c, 11, 1, 9
12, 13461, Control_c, 11, 11, 114
12, 13464, Control_c, 11, 1, 10
12, 13468, Control_c, 11, 1, 11
12, 13474, Control_c, 11, 1, 12
12, 13481, Control_c, 11, 1, 13
12, 13481, Control_c, 11, 11, 115
12, 13491, Control_c, 11, 1, 14
12, 13502, Control_c, 11, 11, 116
12, 13509, Control_c, 11, 1, 15
12, 13522, Control_c, 11, 11, 117
12, 13543, Control_c, 11, 11, 118
12, 13563, Control_c, 11, 11, 119
12, 13583, Note_on_c, 11, 60, 0
12, 13583, Control_c, 11, 11, 120
12, 13584, Note_on_c, 11, 53, 115
12, 13584, Note_on_c, 11, 65, 115
12, 13608, Note_on_c, 11, 65, 0
12, 13608, Note_on_c, 11, 53, 0
12, 13680, Control_c, 11, 1, 0
12, 13680, Note_on_c, 11, 60, 110
12, 13704, Note_on_c, 11, 60, 0
12, 13728, Note_on_c, 11, 53, 115
12, 13728, Note_on_c, 11, 65, 115
12, 13752, Note_on_c, 11, 65, 0
12, 13752, Note_on_c, 11, 53, 0
12, 13824, Note_on_c, 11, 60, 110
12, 13848, Note_on_c, 11, 60, 0
12, 13872, Note_on_c, 11, 53, 115
12, 13872, Note_on_c, 11, 65, 115
12, 13896, Note_on_c, 11, 65, 0
12, 13896, Note_on_c, 11, 53, 0
12, 13968, Note_on_c, 11, 65, 110
12, 13992, Note_on_c, 11, 65, 0
12, 14016, Control_c, 11, 1, 0
12, 14016, Control_c, 11, 11, 113
12, 14016, Note_on_c, 11, 60, 110
12, 14017, Control_c, 11, 1, 1
12, 14018, Control_c, 11, 1, 2
12, 14020, Control_c, 11, 1, 3
12, 14022, Control_c, 11, 1, 4
12, 14024, Control_c, 11, 1, 5
12, 14027, Control_c, 11, 1, 6
12, 14029, Control_c, 11, 1, 7
12, 14032, Control_c, 11, 1, 8
12, 14035, Control_c, 11, 1, 9
12, 14037, Control_c, 11, 11, 114
12, 14040, Control_c, 11, 1, 10
12, 14044, Control_c, 11, 1, 11
12, 14050, Control_c, 11, 1, 12
12, 14057, Control_c, 11, 11, 115
12, 14057, Control_c, 11, 1, 13
12, 14067, Control_c, 11, 1, 14
12, 14078, Control_c, 11, 11, 116
12, 14085, Control_c, 11, 1, 15
12, 14098, Control_c, 11, 11, 117
12, 14119, Control_c, 11, 11, 118
12, 14139, Control_c, 11, 11, 119
12, 14159, Note_on_c, 11, 60, 0
12, 14159, Control_c, 11, 11, 120
12, 14160, Note_on_c, 11, 53, 115
12, 14160, Note_on_c, 11, 65, 115
12, 14184, Note_on_c, 11, 65, 0
12, 14184, Note_on_c, 11, 53, 0
12, 14256, Control_c, 11, 1, 0
12, 14256, Note_on_c, 11, 60, 110
12, 14280, Note_on_c, 11, 60, 0
12, 14304, Note_on_c, 11, 53, 115
12, 14304, Note_on_c, 11, 65, 115
12, 14328, Note_on_c, 11, 65, 0
12, 14328, Note_on_c, 11, 53, 0
12, 14400, Note_on_c, 11, 60, 110
12, 14424, Note_on_c, 11, 60, 0
12, 14448, Note_on_c, 11, 53, 115
12, 14448, Note_on_c, 11, 65, 115
12, 14472, Note_on_c, 11, 65, 0
12, 14472, Note_on_c, 11, 53, 0
12, 14544, Note_on_c, 11, 65, 110
12, 14568, Note_on_c, 11, 65, 0
12, 14592, Note_on_c, 11, 60, 115
12, 14616, Note_on_c, 11, 60, 0
12, 14640, Note_on_c, 11, 60, 110
12, 14664, Note_on_c, 11, 60, 0
12, 14688, Note_on_c, 11, 60, 110
12, 14712, Note_on_c, 11, 60, 0
12, 14736, Note_on_c, 11, 65, 115
12, 14760, Note_on_c, 11, 65, 0
12, 14784, Note_on_c, 11, 65, 110
12, 14808, Note_on_c, 11, 65, 0
12, 14832, Note_on_c, 11, 60, 110
12, 14856, Note_on_c, 11, 60, 0
12, 14880, Note_on_c, 11, 65, 115
12, 14904, Note_on_c, 11, 65, 0
12, 14928, Note_on_c, 11, 65, 110
12, 14952, Note_on_c, 11, 65, 0
12, 14976, Note_on_c, 11, 60, 110
12, 15000, Note_on_c, 11, 60, 0
12, 15024, Note_on_c, 11, 65, 115
12, 15048, Note_on_c, 11, 65, 0
12, 15072, Note_on_c, 11, 65, 110
12, 15096, Note_on_c, 11, 65, 0
12, 15120, Note_on_c, 11, 65, 110
12, 15144, Note_on_c, 11, 65, 0
12, 15168, Note_on_c, 11, 60, 115
12, 15192, Note_on_c, 11, 60, 0
12, 15216, Note_on_c, 11, 60, 110
12, 15240, Note_on_c, 11, 60, 0
12, 15264, Note_on_c, 11, 60, 110
12, 15288, Note_on_c, 11, 60, 0
12, 15312, Note_on_c, 11, 65, 115
12, 15336, Note_on_c, 11, 65, 0
12, 15360, Note_on_c, 11, 65, 110
12, 15384, Note_on_c, 11, 65, 0
12, 15408, Note_on_c, 11, 60, 110
12, 15432, Note_on_c, 11, 60, 0
12, 15456, Note_on_c, 11, 65, 115
12, 15480, Note_on_c, 11, 65, 0
12, 15504, Note_on_c, 11, 65, 110
12, 15528, Note_on_c, 11, 65, 0
12, 15552, Note_on_c, 11, 60, 110
12, 15576, Note_on_c, 11, 60, 0
12, 15600, Note_on_c, 11, 65, 115
12, 15624, Note_on_c, 11, 65, 0
12, 15648, Note_on_c, 11, 60, 110
12, 15672, Note_on_c, 11, 60, 0
12, 15696, Note_on_c, 11, 60, 110
12, 15720, Note_on_c, 11, 60, 0
12, 15744, Note_on_c, 11, 60, 120
12, 15779, Note_on_c, 11, 60, 0
12, 15816, Note_on_c, 11, 60, 113
12, 15828, Note_on_c, 11, 60, 0
12, 15840, Note_on_c, 11, 60, 113
12, 15864, Note_on_c, 11, 60, 0
12, 15888, Note_on_c, 11, 60, 113
12, 15912, Note_on_c, 11, 60, 0
12, 16032, Note_on_c, 11, 53, 120
12, 16032, Note_on_c, 11, 65, 120
12, 16067, Note_on_c, 11, 65, 0
12, 16067, Note_on_c, 11, 53, 0
12, 16104, Note_on_c, 11, 41, 113
12, 16104, Note_on_c, 11, 53, 113
12, 16116, Note_on_c, 11, 53, 0
12, 16116, Note_on_c, 11, 41, 0
12, 16128, Note_on_c, 11, 41, 113
12, 16128, Note_on_c, 11, 53, 113
12, 16152, Note_on_c, 11, 53, 0
12, 16152, Note_on_c, 11, 41, 0
12, 16176, Note_on_c, 11, 53, 113
12, 16176, Note_on_c, 11, 65, 113
12, 16200, Note_on_c, 11, 65, 0
12, 16200, Note_on_c, 11, 53, 0
12, 16896, Control_c, 11, 1, 0
12, 16896, Control_c, 11, 11, 50
12, 16896, Note_on_c, 11, 60, 100
12, 16897, Control_c, 11, 1, 1
12, 16898, Control_c, 11, 1, 2
12, 16900, Control_c, 11, 1, 3
12, 16902, Control_c, 11, 1, 4
12, 16904, Control_c, 11, 1, 5
12, 16907, Control_c, 11, 1, 6
12, 16909, Control_c, 11, 1, 7
12, 16912, Control_c, 11, 1, 8
12, 16915, Control_c, 11, 1, 9
12, 16920, Control_c, 11, 1, 10
12, 16924, Control_c, 11, 1, 11
12, 16930, Control_c, 11, 1, 12
12, 16937, Control_c, 11, 1, 13
12, 16947, Control_c, 11, 1, 14
12, 16965, Control_c, 11, 1, 15
12, 17184, Control_c, 11, 11, 50
12, 17194, Control_c, 11, 11, 51
12, 17204, Control_c, 11, 11, 52
12, 17213, Control_c, 11, 11, 53
12, 17223, Control_c, 11, 11, 54
12, 17232, Control_c, 11, 11, 55
12, 17242, Control_c, 11, 11, 56
12, 17251, Control_c, 11, 11, 57
12, 17261, Control_c, 11, 11, 58
12, 17271, Control_c, 11, 11, 59
12, 17280, Control_c, 11, 11, 60
12, 17290, Control_c, 11, 11, 61
12, 17299, Control_c, 11, 11, 62
12, 17309, Control_c, 11, 11, 63
12, 17318, Control_c, 11, 11, 64
12, 17328, Control_c, 11, 11, 65
12, 17338, Control_c, 11, 11, 66
12, 17347, Control_c, 11, 11, 67
12, 17357, Control_c, 11, 11, 68
12, 17366, Control_c, 11, 11, 69
12, 17376, Control_c, 11, 11, 70
12, 17385, Control_c, 11, 11, 71
12, 17395, Control_c, 11, 11, 72
12, 17405, Control_c, 11, 11, 73
12, 17414, Control_c, 11, 11, 74
12, 17424, Control_c, 11, 11, 75
12, 17433, Control_c, 11, 11, 76
12, 17443, Control_c, 11, 11, 77
12, 17452, Control_c, 11, 11, 78
12, 17462, Control_c, 11, 11, 79
12, 17471, Control_c, 11, 11, 80
12, 17472, Control_c, 11, 11, 80
12, 17482, Control_c, 11, 11, 79
12, 17492, Control_c, 11, 11, 78
12, 17501, Control_c, 11, 11, 77
12, 17511, Control_c, 11, 11, 76
12, 17520, Control_c, 11, 11, 75
12, 17530, Control_c, 11, 11, 74
12, 17539, Control_c, 11, 11, 73
12, 17549, Control_c, 11, 11, 72
12, 17559, Control_c, 11, 11, 71
12, 17568, Control_c, 11, 11, 70
12, 17578, Control_c, 11, 11, 69
12, 17587, Control_c, 11, 11, 68
12, 17597, Control_c, 11, 11, 67
12, 17606, Control_c, 11, 11, 66
12, 17616, Control_c, 11, 11, 65
12, 17626, Control_c, 11, 11, 64
12, 17635, Control_c, 11, 11, 63
12, 17645, Control_c, 11, 11, 62
12, 17654, Control_c, 11, 11, 61
12, 17664, Control_c, 11, 11, 60
12, 17673, Control_c, 11, 11, 59
12, 17683, Control_c, 11, 11, 58
12, 17693, Control_c, 11, 11, 57
12, 17702, Control_c, 11, 11, 56
12, 17712, Control_c, 11, 11, 55
12, 17721, Control_c, 11, 11, 54
12, 17731, Control_c, 11, 11, 53
12, 17740, Control_c, 11, 11, 52
12, 17750, Control_c, 11, 11, 51
12, 17759, Control_c, 11, 11, 50
12, 17761, Note_on_c, 11, 60, 0
12, 18192, Control_c, 11, 1, 0
12, 18336, Control_c, 11, 11, 120
12, 18336, Note_on_c, 11, 60, 105
12, 18360, Note_on_c, 11, 60, 0
12, 18384, Note_on_c, 11, 60, 100
12, 18408, Note_on_c, 11, 60, 0
12, 18432, Note_on_c, 11, 60, 100
12, 18456, Note_on_c, 11, 60, 0
12, 18480, Note_on_c, 11, 50, 105
12, 18480, Note_on_c, 11, 62, 105
12, 18504, Note_on_c, 11, 62, 0
12, 18504, Note_on_c, 11, 50, 0
12, 18528, Note_on_c, 11, 50, 100
12, 18528, Note_on_c, 11, 62, 100
12, 18552, Note_on_c, 11, 62, 0
12, 18552, Note_on_c, 11, 50, 0
12, 18576, Note_on_c, 11, 50, 100
12, 18576, Note_on_c, 11, 62, 100
12, 18600, Note_on_c, 11, 62, 0
12, 18600, Note_on_c, 11, 50, 0
12, 18624, Note_on_c, 11, 60, 100
12, 18648, Note_on_c, 11, 60, 0
12, 18912, Note_on_c, 11, 60, 105
12, 18936, Note_on_c, 11, 60, 0
12, 18960, Note_on_c, 11, 60, 100
12, 18984, Note_on_c, 11, 60, 0
12, 19008, Note_on_c, 11, 60, 100
12, 19032, Note_on_c, 11, 60, 0
12, 19056, Note_on_c, 11, 50, 105
12, 19056, Note_on_c, 11, 62, 105
12, 19080, Note_on_c, 11, 62, 0
12, 19080, Note_on_c, 11, 50, 0
12, 19104, Note_on_c, 11, 50, 100
12, 19104, Note_on_c, 11, 62, 100
12, 19128, Note_on_c, 11, 62, 0
12, 19128, Note_on_c, 11, 50, 0
12, 19152, Note_on_c, 11, 50, 100
12, 19152, Note_on_c, 11, 62, 100
12, 19176, Note_on_c, 11, 62, 0
12, 19176, Note_on_c, 11, 50, 0
12, 19200, Note_on_c, 11, 60, 100
12, 19224, Note_on_c, 11, 60, 0
12, 19488, Note_on_c, 11, 60, 100
12, 19512, Note_on_c, 11, 60, 0
12, 19776, Note_on_c, 11, 60, 100
12, 19800, Note_on_c, 11, 60, 0
12, 20928, Note_on_c, 11, 53, 55
12, 20963, Note_on_c, 11, 53, 0
12, 21000, Note_on_c, 11, 53, 50
12, 21012, Note_on_c, 11, 53, 0
12, 21024, Note_on_c, 11, 53, 50
12, 21048, Note_on_c, 11, 53, 0
12, 21072, Note_on_c, 11, 50, 50
12, 21096, Note_on_c, 11, 50, 0
12, 23520, Note_on_c, 11, 65, 50
12, 23544, Note_on_c, 11, 65, 0
12, 23664, Note_on_c, 11, 60, 50
12, 23688, Note_on_c, 11, 60, 0
12, 24528, Note_on_c, 11, 41, 50
12, 24528, Note_on_c, 11, 53, 50
12, 24552, Note_on_c, 11, 53, 0
12, 24552, Note_on_c, 11, 41, 0
12, 24672, Note_on_c, 11, 41, 50
12, 24672, Note_on_c, 11, 53, 50
12, 24696, Note_on_c, 11, 53, 0
12, 24696, Note_on_c, 11, 41, 0
12, 26640, Note_on_c, 11, 53, 50
12, 26640, Note_on_c, 11, 65, 50
12, 26664, Note_on_c, 11, 65, 0
12, 26664, Note_on_c, 11, 53, 0
12, 26832, Note_on_c, 11, 50, 55
12, 26832, Note_on_c, 11, 62, 55
12, 26856, Note_on_c, 11, 62, 0
12, 26856, Note_on_c, 11, 50, 0
12, 26928, Note_on_c, 11, 53, 50
12, 26928, Note_on_c, 11, 65, 50
12, 26952, Note_on_c, 11, 65, 0
12, 26952, Note_on_c, 11, 53, 0
12, 27120, Note_on_c, 11, 50, 55
12, 27120, Note_on_c, 11, 62, 55
12, 27144, Note_on_c, 11, 62, 0
12, 27144, Note_on_c, 11, 50, 0
12, 27216, Note_on_c, 11, 53, 58
12, 27216, Note_on_c, 11, 65, 58
12, 27240, Note_on_c, 11, 65, 0
12, 27240, Note_on_c, 11, 53, 0
12, 27408, Note_on_c, 11, 50, 65
12, 27408, Note_on_c, 11, 62, 65
12, 27432, Note_on_c, 11, 62, 0
12, 27432, Note_on_c, 11, 50, 0
12, 27504, Note_on_c, 11, 53, 68
12, 27504, Note_on_c, 11, 65, 68
12, 27528, Note_on_c, 11, 65, 0
12, 27528, Note_on_c, 11, 53, 0
12, 27696, Note_on_c, 11, 50, 75
12, 27696, Note_on_c, 11, 62, 75
12, 27720, Note_on_c, 11, 62, 0
12, 27720, Note_on_c, 11, 50, 0
12, 27792, Note_on_c, 11, 53, 78
12, 27792, Note_on_c, 11, 65, 78
12, 27816, Note_on_c, 11, 65, 0
12, 27816, Note_on_c, 11, 53, 0
12, 27984, Note_on_c, 11, 50, 85
12, 27984, Note_on_c, 11, 62, 85
12, 28008, Note_on_c, 11, 62, 0
12, 28008, Note_on_c, 11, 50, 0
12, 28080, Note_on_c, 11, 53, 88
12, 28080, Note_on_c, 11, 65, 88
12, 28104, Note_on_c, 11, 65, 0
12, 28104, Note_on_c, 11, 53, 0
12, 28272, Note_on_c, 11, 50, 95
12, 28272, Note_on_c, 11, 62, 95
12, 28296, Note_on_c, 11, 62, 0
12, 28296, Note_on_c, 11, 50, 0
12, 28368, Note_on_c, 11, 53, 98
12, 28368, Note_on_c, 11, 65, 98
12, 28392, Note_on_c, 11, 65, 0
12, 28392, Note_on_c, 11, 53, 0
12, 28464, Note_on_c, 11, 53, 102
12, 28464, Note_on_c, 11, 65, 102
12, 28488, Note_on_c, 11, 65, 0
12, 28488, Note_on_c, 11, 53, 0
12, 28704, Note_on_c, 11, 50, 115
12, 28704, Note_on_c, 11, 62, 115
12, 28728, Note_on_c, 11, 62, 0
12, 28728, Note_on_c, 11, 50, 0
12, 28752, Note_on_c, 11, 50, 110
12, 28752, Note_on_c, 11, 62, 110
12, 28776, Note_on_c, 11, 62, 0
12, 28776, Note_on_c, 11, 50, 0
12, 28800, Note_on_c, 11, 50, 110
12, 28800, Note_on_c, 11, 62, 110
12, 28824, Note_on_c, 11, 62, 0
12, 28824, Note_on_c, 11, 50, 0
12, 28848, Note_on_c, 11, 50, 115
12, 28848, Note_on_c, 11, 62, 115
12, 28872, Note_on_c, 11, 62, 0
12, 28872, Note_on_c, 11, 50, 0
12, 28896, Note_on_c, 11, 50, 110
12, 28896, Note_on_c, 11, 62, 110
12, 28920, Note_on_c, 11, 62, 0
12, 28920, Note_on_c, 11, 50, 0
12, 28944, Note_on_c, 11, 50, 110
12, 28944, Note_on_c, 11, 62, 110
12, 28968, Note_on_c, 11, 62, 0
12, 28968, Note_on_c, 11, 50, 0
12, 29136, Note_on_c, 11, 50, 115
12, 29136, Note_on_c, 11, 62, 115
12, 29160, Note_on_c, 11, 62, 0
12, 29160, Note_on_c, 11, 50, 0
12, 29184, Note_on_c, 11, 50, 110
12, 29184, Note_on_c, 11, 62, 110
12, 29208, Note_on_c, 11, 62, 0
12, 29208, Note_on_c, 11, 50, 0
12, 29232, Note_on_c, 11, 50, 110
12, 29232, Note_on_c, 11, 62, 110
12, 29256, Note_on_c, 11, 62, 0
12, 29256, Note_on_c, 11, 50, 0
12, 29280, Note_on_c, 11, 50, 115
12, 29280, Note_on_c, 11, 62, 115
12, 29304, Note_on_c, 11, 62, 0
12, 29304, Note_on_c, 11, 50, 0
12, 29328, Note_on_c, 11, 50, 110
12, 29328, Note_on_c, 11, 62, 110
12, 29352, Note_on_c, 11, 62, 0
12, 29352, Note_on_c, 11, 50, 0
12, 29376, Note_on_c, 11, 50, 110
12, 29376, Note_on_c, 11, 62, 110
12, 29400, Note_on_c, 11, 62, 0
12, 29400, Note_on_c, 11, 50, 0
12, 29424, Note_on_c, 11, 53, 115
12, 29424, Note_on_c, 11, 65, 115
12, 29448, Note_on_c, 11, 65, 0
12, 29448, Note_on_c, 11, 53, 0
12, 29472, Note_on_c, 11, 53, 110
12, 29472, Note_on_c, 11, 65, 110
12, 29496, Note_on_c, 11, 65, 0
12, 29496, Note_on_c, 11, 53, 0
12, 29520, Note_on_c, 11, 53, 110
12, 29520, Note_on_c, 11, 65, 110
12, 29544, Note_on_c, 11, 65, 0
12, 29544, Note_on_c, 11, 53, 0
12, 29712, Note_on_c, 11, 53, 115
12, 29712, Note_on_c, 11, 65, 115
12, 29736, Note_on_c, 11, 65, 0
12, 29736, Note_on_c, 11, 53, 0
12, 29808, Note_on_c, 11, 53, 110
12, 29808, Note_on_c, 11, 65, 110
12, 29832, Note_on_c, 11, 65, 0
12, 29832, Note_on_c, 11, 53, 0
12, 29856, Note_on_c, 11, 50, 115
12, 29856, Note_on_c, 11, 62, 115
12, 29880, Note_on_c, 11, 62, 0
12, 29880, Note_on_c, 11, 50, 0
12, 29904, Note_on_c, 11, 50, 110
12, 29904, Note_on_c, 11, 62, 110
12, 29928, Note_on_c, 11, 62, 0
12, 29928, Note_on_c, 11, 50, 0
12, 29952, Note_on_c, 11, 50, 110
12, 29952, Note_on_c, 11, 62, 110
12, 29976, Note_on_c, 11, 62, 0
12, 29976, Note_on_c, 11, 50, 0
12, 30000, Note_on_c, 11, 53, 115
12, 30000, Note_on_c, 11, 65, 115
12, 30024, Note_on_c, 11, 65, 0
12, 30024, Note_on_c, 11, 53, 0
12, 30048, Note_on_c, 11, 53, 110
12, 30048, Note_on_c, 11, 65, 110
12, 30072, Note_on_c, 11, 65, 0
12, 30072, Note_on_c, 11, 53, 0
12, 30096, Note_on_c, 11, 53, 110
12, 30096, Note_on_c, 11, 65, 110
12, 30120, Note_on_c, 11, 65, 0
12, 30120, Note_on_c, 11, 53, 0
12, 30288, Note_on_c, 11, 50, 115
12, 30288, Note_on_c, 11, 62, 115
12, 30312, Note_on_c, 11, 62, 0
12, 30312, Note_on_c, 11, 50, 0
12, 30336, Note_on_c, 11, 50, 110
12, 30336, Note_on_c, 11, 62, 110
12, 30360, Note_on_c, 11, 62, 0
12, 30360, Note_on_c, 11, 50, 0
12, 30384, Note_on_c, 11, 50, 110
12, 30384, Note_on_c, 11, 62, 110
12, 30408, Note_on_c, 11, 62, 0
12, 30408, Note_on_c, 11, 50, 0
12, 30432, Note_on_c, 11, 50, 115
12, 30432, Note_on_c, 11, 62, 115
12, 30456, Note_on_c, 11, 62, 0
12, 30456, Note_on_c, 11, 50, 0
12, 30480, Note_on_c, 11, 50, 110
12, 30480, Note_on_c, 11, 62, 110
12, 30504, Note_on_c, 11, 62, 0
12, 30504, Note_on_c, 11, 50, 0
12, 30528, Note_on_c, 11, 50, 110
12, 30528, Note_on_c, 11, 62, 110
12, 30552, Note_on_c, 11, 62, 0
12, 30552, Note_on_c, 11, 50, 0
12, 30576, Note_on_c, 11, 60, 110
12, 30600, Note_on_c, 11, 60, 0
12, 30912, Note_on_c, 11, 50, 110
12, 30912, Note_on_c, 11, 62, 110
12, 30936, Note_on_c, 11, 62, 0
12, 30936, Note_on_c, 11, 50, 0
12, 30960, Note_on_c, 11, 50, 110
12, 30960, Note_on_c, 11, 62, 110
12, 30984, Note_on_c, 11, 62, 0
12, 30984, Note_on_c, 11, 50, 0
12, 31008, Note_on_c, 11, 50, 115
12, 31008, Note_on_c, 11, 62, 115
12, 31032, Note_on_c, 11, 62, 0
12, 31032, Note_on_c, 11, 50, 0
12, 31056, Note_on_c, 11, 50, 110
12, 31056, Note_on_c, 11, 62, 110
12, 31080, Note_on_c, 11, 62, 0
12, 31080, Note_on_c, 11, 50, 0
12, 31104, Note_on_c, 11, 50, 110
12, 31104, Note_on_c, 11, 62, 110
12, 31128, Note_on_c, 11, 62, 0
12, 31128, Note_on_c, 11, 50, 0
12, 31152, Note_on_c, 11, 60, 110
12, 31176, Note_on_c, 11, 60, 0
12, 31296, Note_on_c, 11, 60, 110
12, 31320, Note_on_c, 11, 60, 0
12, 31440, Note_on_c, 11, 60, 110
12, 31464, Note_on_c, 11, 60, 0
12, 33888, Control_c, 11, 11, 113
12, 33888, Control_c, 11, 1, 0
12, 33888, Note_on_c, 11, 60, 110
12, 33889, Control_c, 11, 1, 1
12, 33890, Control_c, 11, 1, 2
12, 33892, Control_c, 11, 1, 3
12, 33894, Control_c, 11, 1, 4
12, 33896, Control_c, 11, 1, 5
12, 33899, Control_c, 11, 1, 6
12, 33901, Control_c, 11, 1, 7
12, 33904, Control_c, 11, 1, 8
12, 33907, Control_c, 11, 1, 9
12, 33909, Control_c, 11, 11, 114
12, 33912, Control_c, 11, 1, 10
12, 33916, Control_c, 11, 1, 11
12, 33922, Control_c, 11, 1, 12
12, 33929, Control_c, 11, 1, 13
12, 33929, Control_c, 11, 11, 115
12, 33939, Control_c, 11, 1, 14
12, 33950, Control_c, 11, 11, 116
12, 33957, Control_c, 11, 1, 15
12, 33970, Control_c, 11, 11, 117
12, 33991, Control_c, 11, 11, 118
12, 34011, Control_c, 11, 11, 119
12, 34031, Note_on_c, 11, 60, 0
12, 34031, Control_c, 11, 11, 120
12, 34032, Note_on_c, 11, 53, 115
12, 34032, Note_on_c, 11, 65, 115
12, 34056, Note_on_c, 11, 65, 0
12, 34056, Note_on_c, 11, 53, 0
12, 34128, Control_c, 11, 1, 0
12, 34128, Note_on_c, 11, 60, 110
12, 34152, Note_on_c, 11, 60, 0
12, 34176, Note_on_c, 11, 53, 115
12, 34176, Note_on_c, 11, 65, 115
12, 34200, Note_on_c, 11, 65, 0
12, 34200, Note_on_c, 11, 53, 0
12, 34272, Note_on_c, 11, 60, 110
12, 34296, Note_on_c, 11, 60, 0
12, 34320, Note_on_c, 11, 53, 115
12, 34320, Note_on_c, 11, 65, 115
12, 34344, Note_on_c, 11, 65, 0
12, 34344, Note_on_c, 11, 53, 0
12, 34416, Note_on_c, 11, 65, 110
12, 34440, Note_on_c, 11, 65, 0
12, 34464, Control_c, 11, 1, 0
12, 34464, Control_c, 11, 11, 113
12, 34464, Note_on_c, 11, 60, 110
12, 34465, Control_c, 11, 1, 1
12, 34466, Control_c, 11, 1, 2
12, 34468, Control_c, 11, 1, 3
12, 34470, Control_c, 11, 1, 4
12, 34472, Control_c, 11, 1, 5
12, 34475, Control_c, 11, 1, 6
12, 34477, Control_c, 11, 1, 7
12, 34480, Control_c, 11, 1, 8
12, 34483, Control_c, 11, 1, 9
12, 34485, Control_c, 11, 11, 114
12, 34488, Control_c, 11, 1, 10
12, 34492, Control_c, 11, 1, 11
12, 34498, Control_c, 11, 1, 12
12, 34505, Control_c, 11, 11, 115
12, 34505, Control_c, 11, 1, 13
12, 34515, Control_c, 11, 1, 14
12, 34526, Control_c, 11, 11, 116
12, 34533, Control_c, 11, 1, 15
12, 34546, Control_c, 11, 11, 117
12, 34567, Control_c, 11, 11, 118
12, 34587, Control_c, 11, 11, 119
12, 34607, Note_on_c, 11, 60, 0
12, 34607, Control_c, 11, 11, 120
12, 34608, Note_on_c, 11, 53, 115
12, 34608, Note_on_c, 11, 65, 115
12, 34632, Note_on_c, 11, 65, 0
12, 34632, Note_on_c, 11, 53, 0
12, 34704, Control_c, 11, 1, 0
12, 34704, Note_on_c, 11, 60, 110
12, 34728, Note_on_c, 11, 60, 0
12, 34752, Note_on_c, 11, 53, 115
12, 34752, Note_on_c, 11, 65, 115
12, 34776, Note_on_c, 11, 65, 0
12, 34776, Note_on_c, 11, 53, 0
12, 34848, Note_on_c, 11, 60, 110
12, 34872, Note_on_c, 11, 60, 0
12, 34896, Note_on_c, 11, 53, 115
12, 34896, Note_on_c, 11, 65, 115
12, 34920, Note_on_c, 11, 65, 0
12, 34920, Note_on_c, 11, 53, 0
12, 34992, Note_on_c, 11, 65, 110
12, 35016, Note_on_c, 11, 65, 0
12, 35040, Note_on_c, 11, 60, 115
12, 35064, Note_on_c, 11, 60, 0
12, 35088, Note_on_c, 11, 60, 110
12, 35112, Note_on_c, 11, 60, 0
12, 35136, Note_on_c, 11, 60, 110
12, 35160, Note_on_c, 11, 60, 0
12, 35184, Note_on_c, 11, 65, 115
12, 35208, Note_on_c, 11, 65, 0
12, 35232, Note_on_c, 11, 65, 110
12, 35256, Note_on_c, 11, 65, 0
12, 35280, Note_on_c, 11, 60, 110
12, 35304, Note_on_c, 11, 60, 0
12, 35328, Note_on_c, 11, 65, 115
12, 35352, Note_on_c, 11, 65, 0
12, 35376, Note_on_c, 11, 65, 110
12, 35400, Note_on_c, 11, 65, 0
12, 35424, Note_on_c, 11, 60, 110
12, 35448, Note_on_c, 11, 60, 0
12, 35472, Note_on_c, 11, 65, 115
12, 35496, Note_on_c, 11, 65, 0
12, 35520, Note_on_c, 11, 65, 110
12, 35544, Note_on_c, 11, 65, 0
12, 35568, Note_on_c, 11, 65, 110
12, 35592, Note_on_c, 11, 65, 0
12, 35616, Note_on_c, 11, 60, 115
12, 35640, Note_on_c, 11, 60, 0
12, 35664, Note_on_c, 11, 60, 110
12, 35688, Note_on_c, 11, 60, 0
12, 35712, Note_on_c, 11, 60, 110
12, 35736, Note_on_c, 11, 60, 0
12, 35760, Note_on_c, 11, 65, 115
12, 35784, Note_on_c, 11, 65, 0
12, 35808, Note_on_c, 11, 65, 110
12, 35832, Note_on_c, 11, 65, 0
12, 35856, Note_on_c, 11, 60, 110
12, 35880, Note_on_c, 11, 60, 0
12, 35904, Note_on_c, 11, 65, 115
12, 35928, Note_on_c, 11, 65, 0
12, 35952, Note_on_c, 11, 65, 110
12, 35976, Note_on_c, 11, 65, 0
12, 36000, Note_on_c, 11, 60, 110
12, 36024, Note_on_c, 11, 60, 0
12, 36048, Note_on_c, 11, 65, 115
12, 36072, Note_on_c, 11, 65, 0
12, 36096, Note_on_c, 11, 60, 110
12, 36120, Note_on_c, 11, 60, 0
12, 36144, Note_on_c, 11, 60, 110
12, 36168, Note_on_c, 11, 60, 0
12, 36192, Note_on_c, 11, 60, 120
12, 36227, Note_on_c, 11, 60, 0
12, 36264, Note_on_c, 11, 60, 113
12, 36276, Note_on_c, 11, 60, 0
12, 36288, Note_on_c, 11, 60, 113
12, 36312, Note_on_c, 11, 60, 0
12, 36336, Note_on_c, 11, 60, 113
12, 36360, Note_on_c, 11, 60, 0
12, 36480, Note_on_c, 11, 53, 120
12, 36480, Note_on_c, 11, 65, 120
12, 36515, Note_on_c, 11, 65, 0
12, 36515, Note_on_c, 11, 53, 0
12, 36552, Note_on_c, 11, 41, 113
12, 36552, Note_on_c, 11, 53, 113
12, 36564, Note_on_c, 11, 53, 0
12, 36564, Note_on_c, 11, 41, 0
12, 36576, Note_on_c, 11, 41, 113
12, 36576, Note_on_c, 11, 53, 113
12, 36600, Note_on_c, 11, 53, 0
12, 36600, Note_on_c, 11, 41, 0
12, 36624, Note_on_c, 11, 53, 113
12, 36624, Note_on_c, 11, 65, 113
12, 36648, Note_on_c, 11, 65, 0
12, 36648, Note_on_c, 11, 53, 0
12, 37344, Control_c, 11, 1, 0
12, 37344, Control_c, 11, 11, 50
12, 37344, Note_on_c, 11, 60, 100
12, 37345, Control_c, 11, 1, 1
12, 37346, Control_c, 11, 1, 2
12, 37348, Control_c, 11, 1, 3
12, 37350, Control_c, 11, 1, 4
12, 37352, Control_c, 11, 1, 5
12, 37355, Control_c, 11, 1, 6
12, 37357, Control_c, 11, 1, 7
12, 37360, Control_c, 11, 1, 8
12, 37363, Control_c, 11, 1, 9
12, 37368, Control_c, 11, 1, 10
12, 37372, Control_c, 11, 1, 11
12, 37378, Control_c, 11, 1, 12
12, 37385, Control_c, 11, 1, 13
12, 37395, Control_c, 11, 1, 14
12, 37413, Control_c, 11, 1, 15
12, 37632, Control_c, 11, 11, 50
12, 37642, Control_c, 11, 11, 51
12, 37652, Control_c, 11, 11, 52
12, 37661, Control_c, 11, 11, 53
12, 37671, Control_c, 11, 11, 54
12, 37680, Control_c, 11, 11, 55
12, 37690, Control_c, 11, 11, 56
12, 37699, Control_c, 11, 11, 57
12, 37709, Control_c, 11, 11, 58
12, 37719, Control_c, 11, 11, 59
12, 37728, Control_c, 11, 11, 60
12, 37738, Control_c, 11, 11, 61
12, 37747, Control_c, 11, 11, 62
12, 37757, Control_c, 11, 11, 63
12, 37766, Control_c, 11, 11, 64
12, 37776, Control_c, 11, 11, 65
12, 37786, Control_c, 11, 11, 66
12, 37795, Control_c, 11, 11, 67
12, 37805, Control_c, 11, 11, 68
12, 37814, Control_c, 11, 11, 69
12, 37824, Control_c, 11, 11, 70
12, 37833, Control_c, 11, 11, 71
12, 37843, Control_c, 11, 11, 72
12, 37853, Control_c, 11, 11, 73
12, 37862, Control_c, 11, 11, 74
12, 37872, Control_c, 11, 11, 75
12, 37881, Control_c, 11, 11, 76
12, 37891, Control_c, 11, 11, 77
12, 37900, Control_c, 11, 11, 78
12, 37910, Control_c, 11, 11, 79
12, 37919, Control_c, 11, 11, 80
12, 37920, Control_c, 11, 11, 80
12, 37930, Control_c, 11, 11, 79
12, 37940, Control_c, 11, 11, 78
12, 37949, Control_c, 11, 11, 77
12, 37959, Control_c, 11, 11, 76
12, 37968, Control_c, 11, 11, 75
12, 37978, Control_c, 11, 11, 74
12, 37987, Control_c, 11, 11, 73
12, 37997, Control_c, 11, 11, 72
12, 38007, Control_c, 11, 11, 71
12, 38016, Control_c, 11, 11, 70
12, 38026, Control_c, 11, 11, 69
12, 38035, Control_c, 11, 11, 68
12, 38045, Control_c, 11, 11, 67
12, 38054, Control_c, 11, 11, 66
12, 38064, Control_c, 11, 11, 65
12, 38074, Control_c, 11, 11, 64
12, 38083, Control_c, 11, 11, 63
12, 38093, Control_c, 11, 11, 62
12, 38102, Control_c, 11, 11, 61
12, 38112, Control_c, 11, 11, 60
12, 38121, Control_c, 11, 11, 59
12, 38131, Control_c, 11, 11, 58
12, 38141, Control_c, 11, 11, 57
12, 38150, Control_c, 11, 11, 56
12, 38160, Control_c, 11, 11, 55
12, 38169, Control_c, 11, 11, 54
12, 38179, Control_c, 11, 11, 53
12, 38188, Control_c, 11, 11, 52
12, 38198, Control_c, 11, 11, 51
12, 38207, Control_c, 11, 11, 50
12, 38209, Note_on_c, 11, 60, 0
12, 38640, Control_c, 11, 1, 0
12, 38784, Control_c, 11, 11, 120
12, 38784, Note_on_c, 11, 60, 105
12, 38808, Note_on_c, 11, 60, 0
12, 38832, Note_on_c, 11, 60, 100
12, 38856, Note_on_c, 11, 60, 0
12, 38880, Note_on_c, 11, 60, 100
12, 38904, Note_on_c, 11, 60, 0
12, 38928, Note_on_c, 11, 50, 105
12, 38928, Note_on_c, 11, 62, 105
12, 38952, Note_on_c, 11, 62, 0
12, 38952, Note_on_c, 11, 50, 0
12, 38976, Note_on_c, 11, 50, 100
12, 38976, Note_on_c, 11, 62, 100
12, 39000, Note_on_c, 11, 62, 0
12, 39000, Note_on_c, 11, 50, 0
12, 39024, Note_on_c, 11, 50, 100
12, 39024, Note_on_c, 11, 62, 100
12, 39048, Note_on_c, 11, 62, 0
12, 39048, Note_on_c, 11, 50, 0
12, 39072, Note_on_c, 11, 60, 100
12, 39096, Note_on_c, 11, 60, 0
12, 39360, Note_on_c, 11, 60, 105
12, 39384, Note_on_c, 11, 60, 0
12, 39408, Note_on_c, 11, 60, 100
12, 39432, Note_on_c, 11, 60, 0
12, 39456, Note_on_c, 11, 60, 100
12, 39480, Note_on_c, 11, 60, 0
12, 39504, Note_on_c, 11, 50, 105
12, 39504, Note_on_c, 11, 62, 105
12, 39528, Note_on_c, 11, 62, 0
12, 39528, Note_on_c, 11, 50, 0
12, 39552, Note_on_c, 11, 50, 100
12, 39552, Note_on_c, 11, 62, 100
12, 39576, Note_on_c, 11, 62, 0
12, 39576, Note_on_c, 11, 50, 0
12, 39600, Note_on_c, 11, 50, 100
12, 39600, Note_on_c, 11, 62, 100
12, 39624, Note_on_c, 11, 62, 0
12, 39624, Note_on_c, 11, 50, 0
12, 39648, Note_on_c, 11, 60, 100
12, 39672, Note_on_c, 11, 60, 0
12, 39936, Note_on_c, 11, 60, 100
12, 39960, Note_on_c, 11, 60, 0
12, 40224, Note_on_c, 11, 60, 100
12, 40248, Note_on_c, 11, 60, 0
12, 41376, Note_on_c, 11, 53, 55
12, 41411, Note_on_c, 11, 53, 0
12, 41448, Note_on_c, 11, 53, 50
12, 41460, Note_on_c, 11, 53, 0
12, 41472, Note_on_c, 11, 53, 50
12, 41496, Note_on_c, 11, 53, 0
12, 41520, Note_on_c, 11, 50, 50
12, 41544, Note_on_c, 11, 50, 0
12, 42528, Note_on_c, 11, 46, 60
12, 42528, Note_on_c, 11, 58, 60
12, 42563, Note_on_c, 11, 58, 0
12, 42563, Note_on_c, 11, 46, 0
12, 42600, Note_on_c, 11, 46, 50
12, 42600, Note_on_c, 11, 58, 50
12, 42612, Note_on_c, 11, 58, 0
12, 42612, Note_on_c, 11, 46, 0
12, 42624, Note_on_c, 11, 46, 50
12, 42624, Note_on_c, 11, 58, 50
12, 42648, Note_on_c, 11, 58, 0
12, 42648, Note_on_c, 11, 46, 0
12, 42672, Note_on_c, 11, 46, 50
12, 42672, Note_on_c, 11, 58, 50
12, 42696, Note_on_c, 11, 58, 0
12, 42696, Note_on_c, 11, 46, 0
12, 43392, Note_on_c, 11, 63, 60
12, 43427, Note_on_c, 11, 63, 0
12, 43464, Note_on_c, 11, 63, 61
12, 43476, Note_on_c, 11, 63, 0
12, 43488, Note_on_c, 11, 63, 61
12, 43512, Note_on_c, 11, 63, 0
12, 43536, Note_on_c, 11, 63, 62
12, 43560, Note_on_c, 11, 63, 0
12, 43680, Note_on_c, 11, 60, 64
12, 43680, Note_on_c, 11, 63, 64
12, 43715, Note_on_c, 11, 63, 0
12, 43715, Note_on_c, 11, 60, 0
12, 43752, Note_on_c, 11, 60, 65
12, 43752, Note_on_c, 11, 63, 65
12, 43764, Note_on_c, 11, 63, 0
12, 43764, Note_on_c, 11, 60, 0
12, 43776, Note_on_c, 11, 60, 66
12, 43776, Note_on_c, 11, 63, 66
12, 43800, Note_on_c, 11, 63, 0
12, 43800, Note_on_c, 11, 60, 0
12, 43824, Note_on_c, 11, 60, 66
12, 43824, Note_on_c, 11, 65, 66
12, 43848, Note_on_c, 11, 65, 0
12, 43848, Note_on_c, 11, 60, 0
12, 43968, Note_on_c, 11, 53, 69
12, 43968, Note_on_c, 11, 65, 69
12, 44003, Note_on_c, 11, 65, 0
12, 44003, Note_on_c, 11, 53, 0
12, 44040, Note_on_c, 11, 53, 70
12, 44040, Note_on_c, 11, 65, 70
12, 44052, Note_on_c, 11, 65, 0
12, 44052, Note_on_c, 11, 53, 0
12, 44064, Note_on_c, 11, 53, 70
12, 44064, Note_on_c, 11, 65, 70
12, 44088, Note_on_c, 11, 65, 0
12, 44088, Note_on_c, 11, 53, 0
12, 44112, Note_on_c, 11, 53, 71
12, 44112, Note_on_c, 11, 65, 71
12, 44136, Note_on_c, 11, 65, 0
12, 44136, Note_on_c, 11, 53, 0
12, 44400, Note_on_c, 11, 63, 75
12, 44435, Note_on_c, 11, 63, 0
12, 44472, Note_on_c, 11, 63, 76
12, 44484, Note_on_c, 11, 63, 0
12, 44496, Note_on_c, 11, 63, 77
12, 44520, Note_on_c, 11, 63, 0
12, 44544, Note_on_c, 11, 63, 78
12, 44579, Note_on_c, 11, 63, 0
12, 44616, Note_on_c, 11, 63, 79
12, 44628, Note_on_c, 11, 63, 0
12, 44640, Note_on_c, 11, 63, 79
12, 44664, Note_on_c, 11, 63, 0
12, 44688, Note_on_c, 11, 63, 80
12, 44712, Note_on_c, 11, 63, 0
12, 45408, Note_on_c, 11, 58, 113
12, 45443, Note_on_c, 11, 58, 0
12, 45480, Note_on_c, 11, 46, 113
12, 45480, Note_on_c, 11, 58, 113
12, 45492, Note_on_c, 11, 58, 0
12, 45492, Note_on_c, 11, 46, 0
12, 45504, Note_on_c, 11, 46, 113
12, 45504, Note_on_c, 11, 58, 113
12, 45528, Note_on_c, 11, 58, 0
12, 45528, Note_on_c, 11, 46, 0
12, 48768, Note_on_c, 11, 53, 65
12, 48768, Note_on_c, 11, 65, 65
12, 48792, Note_on_c, 11, 65, 0
12, 48792, Note_on_c, 11, 53, 0
12, 48816, Note_on_c, 11, 53, 60
12, 48816, Note_on_c, 11, 65, 60
12, 48840, Note_on_c, 11, 65, 0
12, 48840, Note_on_c, 11, 53, 0
12, 48864, Note_on_c, 11, 53, 60
12, 48864, Note_on_c, 11, 65, 60
12, 48888, Note_on_c, 11, 65, 0
12, 48888, Note_on_c, 11, 53, 0
12, 48912, Note_on_c, 11, 53, 65
12, 48912, Note_on_c, 11, 65, 65
12, 48936, Note_on_c, 11, 65, 0
12, 48936, Note_on_c, 11, 53, 0
12, 48960, Note_on_c, 11, 53, 60
12, 48960, Note_on_c, 11, 65, 60
12, 48984, Note_on_c, 11, 65, 0
12, 48984, Note_on_c, 11, 53, 0
12, 49008, Note_on_c, 11, 53, 60
12, 49008, Note_on_c, 11, 65, 60
12, 49032, Note_on_c, 11, 65, 0
12, 49032, Note_on_c, 11, 53, 0
12, 49200, Note_on_c, 11, 53, 65
12, 49200, Note_on_c, 11, 65, 65
12, 49224, Note_on_c, 11, 65, 0
12, 49224, Note_on_c, 11, 53, 0
12, 49248, Note_on_c, 11, 60, 60
12, 49272, Note_on_c, 11, 60, 0
12, 49296, Note_on_c, 11, 60, 60
12, 49320, Note_on_c, 11, 60, 0
12, 49344, Note_on_c, 11, 60, 65
12, 49368, Note_on_c, 11, 60, 0
12, 49392, Note_on_c, 11, 60, 60
12, 49416, Note_on_c, 11, 60, 0
12, 49440, Note_on_c, 11, 60, 60
12, 49464, Note_on_c, 11, 60, 0
12, 49632, Note_on_c, 11, 53, 65
12, 49632, Note_on_c, 11, 65, 65
12, 49656, Note_on_c, 11, 65, 0
12, 49656, Note_on_c, 11, 53, 0
12, 49680, Note_on_c, 11, 53, 60
12, 49680, Note_on_c, 11, 65, 60
12, 49704, Note_on_c, 11, 65, 0
12, 49704, Note_on_c, 11, 53, 0
12, 49728, Note_on_c, 11, 53, 60
12, 49728, Note_on_c, 11, 65, 60
12, 49752, Note_on_c, 11, 65, 0
12, 49752, Note_on_c, 11, 53, 0
12, 49776, Note_on_c, 11, 53, 65
12, 49776, Note_on_c, 11, 65, 65
12, 49800, Note_on_c, 11, 65, 0
12, 49800, Note_on_c, 11, 53, 0
12, 49824, Note_on_c, 11, 53, 60
12, 49824, Note_on_c, 11, 65, 60
12, 49848, Note_on_c, 11, 65, 0
12, 49848, Note_on_c, 11, 53, 0
12, 49872, Note_on_c, 11, 53, 60
12, 49872, Note_on_c, 11, 65, 60
12, 49896, Note_on_c, 11, 65, 0
12, 49896, Note_on_c, 11, 53, 0
12, 50064, Note_on_c, 11, 53, 65
12, 50064, Note_on_c, 11, 65, 65
12, 50088, Note_on_c, 11, 65, 0
12, 50088, Note_on_c, 11, 53, 0
12, 50112, Note_on_c, 11, 60, 60
12, 50136, Note_on_c, 11, 60, 0
12, 50160, Note_on_c, 11, 60, 60
12, 50184, Note_on_c, 11, 60, 0
12, 50208, Note_on_c, 11, 60, 65
12, 50232, Note_on_c, 11, 60, 0
12, 50256, Note_on_c, 11, 60, 60
12, 50280, Note_on_c, 11, 60, 0
12, 50304, Note_on_c, 11, 60, 60
12, 50328, Note_on_c, 11, 60, 0
12, 50352, Note_on_c, 11, 53, 65
12, 50352, Note_on_c, 11, 65, 65
12, 50376, Note_on_c, 11, 65, 0
12, 50376, Note_on_c, 11, 53, 0
12, 50400, Note_on_c, 11, 53, 60
12, 50400, Note_on_c, 11, 65, 60
12, 50424, Note_on_c, 11, 65, 0
12, 50424, Note_on_c, 11, 53, 0
12, 50448, Note_on_c, 11, 53, 60
12, 50448, Note_on_c, 11, 65, 60
12, 50472, Note_on_c, 11, 65, 0
12, 50472, Note_on_c, 11, 53, 0
12, 50496, Note_on_c, 11, 53, 65
12, 50496, Note_on_c, 11, 65, 65
12, 50520, Note_on_c, 11, 65, 0
12, 50520, Note_on_c, 11, 53, 0
12, 50544, Note_on_c, 11, 53, 60
12, 50544, Note_on_c, 11, 65, 60
12, 50568, Note_on_c, 11, 65, 0
12, 50568, Note_on_c, 11, 53, 0
12, 50592, Note_on_c, 11, 53, 60
12, 50592, Note_on_c, 11, 65, 60
12, 50616, Note_on_c, 11, 65, 0
12, 50616, Note_on_c, 11, 53, 0
12, 50640, Note_on_c, 11, 53, 65
12, 50640, Note_on_c, 11, 65, 65
12, 50664, Note_on_c, 11, 65, 0
12, 50664, Note_on_c, 11, 53, 0
12, 50688, Note_on_c, 11, 53, 60
12, 50688, Note_on_c, 11, 65, 60
12, 50712, Note_on_c, 11, 65, 0
12, 50712, Note_on_c, 11, 53, 0
12, 50736, Note_on_c, 11, 53, 60
12, 50736, Note_on_c, 11, 65, 60
12, 50760, Note_on_c, 11, 65, 0
12, 50760, Note_on_c, 11, 53, 0
12, 51216, Note_on_c, 11, 50, 55
12, 51216, Note_on_c, 11, 62, 55
12, 51240, Note_on_c, 11, 62, 0
12, 51240, Note_on_c, 11, 50, 0
12, 51264, Note_on_c, 11, 50, 50
12, 51264, Note_on_c, 11, 62, 50
12, 51288, Note_on_c, 11, 62, 0
12, 51288, Note_on_c, 11, 50, 0
12, 51312, Note_on_c, 11, 50, 50
12, 51312, Note_on_c, 11, 62, 50
12, 51336, Note_on_c, 11, 62, 0
12, 51336, Note_on_c, 11, 50, 0
12, 51360, Note_on_c, 11, 50, 55
12, 51360, Note_on_c, 11, 62, 55
12, 51384, Note_on_c, 11, 62, 0
12, 51384, Note_on_c, 11, 50, 0
12, 51408, Note_on_c, 11, 50, 50
12, 51408, Note_on_c, 11, 62, 50
12, 51432, Note_on_c, 11, 62, 0
12, 51432, Note_on_c, 11, 50, 0
12, 51456, Note_on_c, 11, 50, 50
12, 51456, Note_on_c, 11, 62, 50
12, 51480, Note_on_c, 11, 62, 0
12, 51480, Note_on_c, 11, 50, 0
12, 51504, Note_on_c, 11, 50, 55
12, 51504, Note_on_c, 11, 62, 55
12, 51528, Note_on_c, 11, 62, 0
12, 51528, Note_on_c, 11, 50, 0
12, 51552, Note_on_c, 11, 50, 50
12, 51552, Note_on_c, 11, 62, 50
12, 51576, Note_on_c, 11, 62, 0
12, 51576, Note_on_c, 11, 50, 0
12, 51600, Note_on_c, 11, 50, 50
12, 51600, Note_on_c, 11, 62, 50
12, 51624, Note_on_c, 11, 62, 0
12, 51624, Note_on_c, 11, 50, 0
12, 55536, Note_on_c, 11, 58, 60
12, 55571, Note_on_c, 11, 58, 0
12, 55608, Note_on_c, 11, 46, 55
12, 55620, Note_on_c, 11, 46, 0
12, 55632, Note_on_c, 11, 46, 55
12, 55656, Note_on_c, 11, 46, 0
12, 55824, Note_on_c, 11, 58, 60
12, 55859, Note_on_c, 11, 58, 0
12, 55896, Note_on_c, 11, 46, 55
12, 55908, Note_on_c, 11, 46, 0
12, 55920, Note_on_c, 11, 46, 55
12, 55944, Note_on_c, 11, 46, 0
12, 56112, Note_on_c, 11, 58, 60
12, 56147, Note_on_c, 11, 58, 0
12, 56184, Note_on_c, 11, 46, 55
12, 56196, Note_on_c, 11, 46, 0
12, 56208, Note_on_c, 11, 46, 55
12, 56232, Note_on_c, 11, 46, 0
12, 56400, Note_on_c, 11, 58, 60
12, 56435, Note_on_c, 11, 58, 0
12, 56472, Note_on_c, 11, 46, 55
12, 56484, Note_on_c, 11, 46, 0
12, 56496, Note_on_c, 11, 46, 55
12, 56520, Note_on_c, 11, 46, 0
12, 56688, Note_on_c, 11, 65, 60
12, 56723, Note_on_c, 11, 65, 0
12, 56760, Note_on_c, 11, 53, 55
12, 56772, Note_on_c, 11, 53, 0
12, 56784, Note_on_c, 11, 53, 55
12, 56808, Note_on_c, 11, 53, 0
12, 56832, Note_on_c, 11, 58, 60
12, 56867, Note_on_c, 11, 58, 0
12, 56904, Note_on_c, 11, 46, 55
12, 56916, Note_on_c, 11, 46, 0
12, 56928, Note_on_c, 11, 46, 55
12, 56952, Note_on_c, 11, 46, 0
12, 56976, Note_on_c, 11, 58, 60
12, 57011, Note_on_c, 11, 58, 0
12, 57048, Note_on_c, 11, 46, 55
12, 57060, Note_on_c, 11, 46, 0
12, 57072, Note_on_c, 11, 46, 55
12, 57096, Note_on_c, 11, 46, 0
12, 57120, Note_on_c, 11, 58, 60
12, 57155, Note_on_c, 11, 58, 0
12, 57192, Note_on_c, 11, 46, 55
12, 57204, Note_on_c, 11, 46, 0
12, 57216, Note_on_c, 11, 46, 55
12, 57240, Note_on_c, 11, 46, 0
12, 57264, Note_on_c, 11, 58, 60
12, 57299, Note_on_c, 11, 58, 0
12, 57336, Note_on_c, 11, 46, 55
12, 57348, Note_on_c, 11, 46, 0
12, 57360, Note_on_c, 11, 46, 55
12, 57384, Note_on_c, 11, 46, 0
12, 57552, Note_on_c, 11, 58, 50
12, 57587, Note_on_c, 11, 58, 0
12, 57624, Note_on_c, 11, 46, 53
12, 57636, Note_on_c, 11, 46, 0
12, 57648, Note_on_c, 11, 46, 54
12, 57672, Note_on_c, 11, 46, 0
12, 57840, Note_on_c, 11, 65, 63
12, 57875, Note_on_c, 11, 65, 0
12, 57912, Note_on_c, 11, 53, 66
12, 57924, Note_on_c, 11, 53, 0
12, 57936, Note_on_c, 11, 53, 68
12, 57960, Note_on_c, 11, 53, 0
12, 58416, Note_on_c, 11, 65, 90
12, 58451, Note_on_c, 11, 65, 0
12, 58488, Note_on_c, 11, 53, 93
12, 58500, Note_on_c, 11, 53, 0
12, 58512, Note_on_c, 11, 53, 95
12, 58536, Note_on_c, 11, 53, 0
12, 58560, Note_on_c, 11, 65, 120
12, 58584, Note_on_c, 11, 65, 0
12, 58632, Note_on_c, 11, 53, 110
12, 58644, Note_on_c, 11, 53, 0
12, 58656, Note_on_c, 11, 53, 110
12, 58680, Note_on_c, 11, 53, 0
12, 58704, Note_on_c, 11, 65, 120
12, 58728, Note_on_c, 11, 65, 0
12, 58776, Note_on_c, 11, 53, 110
12, 58788, Note_on_c, 11, 53, 0
12, 58800, Note_on_c, 11, 53, 110
12, 58824, Note_on_c, 11, 53, 0
12, 58848, Note_on_c, 11, 65, 120
12, 58872, Note_on_c, 11, 65, 0
12, 58920, Note_on_c, 11, 53, 110
12, 58932, Note_on_c, 11, 53, 0
12, 58944, Note_on_c, 11, 53, 110
12, 58968, Note_on_c, 11, 53, 0
12, 58992, Note_on_c, 11, 65, 120
12, 59016, Note_on_c, 11, 65, 0
12, 59064, Note_on_c, 11, 53, 110
12, 59076, Note_on_c, 11, 53, 0
12, 59088, Note_on_c, 11, 53, 110
12, 59112, Note_on_c, 11, 53, 0
12, 59136, Note_on_c, 11, 65, 120
12, 59160, Note_on_c, 11, 65, 0
12, 59208, Note_on_c, 11, 53, 110
12, 59220, Note_on_c, 11, 53, 0
12, 59232, Note_on_c, 11, 53, 110
12, 59256, Note_on_c, 11, 53, 0
12, 59280, Note_on_c, 11, 65, 120
12, 59304, Note_on_c, 11, 65, 0
12, 59352, Note_on_c, 11, 53, 110
12, 59364, Note_on_c, 11, 53, 0
12, 59376, Note_on_c, 11, 53, 110
12, 59400, Note_on_c, 11, 53, 0
12, 59424, Note_on_c, 11, 65, 120
12, 59448, Note_on_c, 11, 65, 0
12, 59496, Note_on_c, 11, 53, 110
12, 59508, Note_on_c, 11, 53, 0
12, 59520, Note_on_c, 11, 53, 110
12, 59544, Note_on_c, 11, 53, 0
12, 59568, Note_on_c, 11, 65, 120
12, 59592, Note_on_c, 11, 65, 0
12, 59640, Note_on_c, 11, 53, 110
12, 59652, Note_on_c, 11, 53, 0
12, 59664, Note_on_c, 11, 53, 110
12, 59688, Note_on_c, 11, 53, 0
12, 59712, Note_on_c, 11, 65, 120
12, 59736, Note_on_c, 11, 65, 0
12, 59784, Note_on_c, 11, 53, 110
12, 59796, Note_on_c, 11, 53, 0
12, 59808, Note_on_c, 11, 53, 110
12, 59832, Note_on_c, 11, 53, 0
12, 59856, Note_on_c, 11, 65, 120
12, 59880, Note_on_c, 11, 65, 0
12, 59928, Note_on_c, 11, 53, 110
12, 59940, Note_on_c, 11, 53, 0
12, 59952, Note_on_c, 11, 53, 110
12, 59976, Note_on_c, 11, 53, 0
12, 60000, Note_on_c, 11, 65, 120
12, 60024, Note_on_c, 11, 65, 0
12, 60072, Note_on_c, 11, 53, 110
12, 60084, Note_on_c, 11, 53, 0
12, 60096, Note_on_c, 11, 53, 110
12, 60120, Note_on_c, 11, 53, 0
12, 60144, Note_on_c, 11, 65, 120
12, 60168, Note_on_c, 11, 65, 0
12, 60216, Note_on_c, 11, 53, 110
12, 60228, Note_on_c, 11, 53, 0
12, 60240, Note_on_c, 11, 53, 110
12, 60264, Note_on_c, 11, 53, 0
12, 60288, Note_on_c, 11, 65, 120
12, 60312, Note_on_c, 11, 65, 0
12, 60360, Note_on_c, 11, 53, 110
12, 60372, Note_on_c, 11, 53, 0
12, 60384, Note_on_c, 11, 53, 110
12, 60408, Note_on_c, 11, 53, 0
12, 60432, Note_on_c, 11, 65, 120
12, 60456, Note_on_c, 11, 65, 0
12, 60504, Note_on_c, 11, 53, 110
12, 60516, Note_on_c, 11, 53, 0
12, 60528, Note_on_c, 11, 53, 110
12, 60552, Note_on_c, 11, 53, 0
12, 60576, Note_on_c, 11, 65, 120
12, 60600, Note_on_c, 11, 65, 0
12, 60648, Note_on_c, 11, 53, 110
12, 60660, Note_on_c, 11, 53, 0
12, 60672, Note_on_c, 11, 53, 110
12, 60696, Note_on_c, 11, 53, 0
12, 60720, Note_on_c, 11, 65, 120
12, 60744, Note_on_c, 11, 65, 0
12, 60792, Note_on_c, 11, 53, 110
12, 60804, Note_on_c, 11, 53, 0
12, 60816, Note_on_c, 11, 53, 110
12, 60840, Note_on_c, 11, 53, 0
12, 60864, Note_on_c, 11, 65, 120
12, 60888, Note_on_c, 11, 65, 0
12, 60936, Note_on_c, 11, 53, 110
12, 60948, Note_on_c, 11, 53, 0
12, 60960, Note_on_c, 11, 53, 110
12, 60984, Note_on_c, 11, 53, 0
12, 61008, Note_on_c, 11, 65, 120
12, 61032, Note_on_c, 11, 65, 0
12, 61080, Note_on_c, 11, 53, 110
12, 61092, Note_on_c, 11, 53, 0
12, 61104, Note_on_c, 11, 53, 110
12, 61128, Note_on_c, 11, 53, 0
12, 61152, Note_on_c, 11, 65, 120
12, 61176, Note_on_c, 11, 65, 0
12, 61224, Note_on_c, 11, 53, 110
12, 61236, Note_on_c, 11, 53, 0
12, 61248, Note_on_c, 11, 53, 110
12, 61272, Note_on_c, 11, 53, 0
12, 61296, Note_on_c, 11, 65, 120
12, 61320, Note_on_c, 11, 65, 0
12, 61368, Note_on_c, 11, 53, 110
12, 61380, Note_on_c, 11, 53, 0
12, 61392, Note_on_c, 11, 53, 110
12, 61416, Note_on_c, 11, 53, 0
12, 62160, Note_on_c, 11, 58, 110
12, 62184, Note_on_c, 11, 58, 0
12, 62232, Note_on_c, 11, 46, 100
12, 62244, Note_on_c, 11, 46, 0
12, 62256, Note_on_c, 11, 46, 100
12, 62280, Note_on_c, 11, 46, 0
12, 62304, Note_on_c, 11, 65, 110
12, 62328, Note_on_c, 11, 65, 0
12, 62376, Note_on_c, 11, 53, 100
12, 62388, Note_on_c, 11, 53, 0
12, 62400, Note_on_c, 11, 53, 100
12, 62424, Note_on_c, 11, 53, 0
12, 62448, Note_on_c, 11, 65, 110
12, 62472, Note_on_c, 11, 65, 0
12, 62520, Note_on_c, 11, 53, 100
12, 62532, Note_on_c, 11, 53, 0
12, 62544, Note_on_c, 11, 53, 100
12, 62568, Note_on_c, 11, 53, 0
12, 62592, Note_on_c, 11, 65, 110
12, 62616, Note_on_c, 11, 65, 0
12, 62664, Note_on_c, 11, 53, 100
12, 62676, Note_on_c, 11, 53, 0
12, 62688, Note_on_c, 11, 53, 100
12, 62712, Note_on_c, 11, 53, 0
12, 62736, Note_on_c, 11, 65, 110
12, 62760, Note_on_c, 11, 65, 0
12, 62808, Note_on_c, 11, 53, 100
12, 62820, Note_on_c, 11, 53, 0
12, 62832, Note_on_c, 11, 53, 100
12, 62856, Note_on_c, 11, 53, 0
12, 62880, Note_on_c, 11, 65, 110
12, 62904, Note_on_c, 11, 65, 0
12, 62952, Note_on_c, 11, 53, 100
12, 62964, Note_on_c, 11, 53, 0
12, 62976, Note_on_c, 11, 53, 100
12, 63000, Note_on_c, 11, 53, 0
12, 63024, Note_on_c, 11, 65, 110
12, 63048, Note_on_c, 11, 65, 0
12, 63096, Note_on_c, 11, 53, 100
12, 63108, Note_on_c, 11, 53, 0
12, 63120, Note_on_c, 11, 53, 100
12, 63144, Note_on_c, 11, 53, 0
12, 63168, Note_on_c, 11, 46, 100
12, 63168, Note_on_c, 11, 58, 100
12, 63192, Note_on_c, 11, 58, 0
12, 63192, Note_on_c, 11, 46, 0
12, 63600, Control_c, 11, 1, 0
12, 63600, Control_c, 11, 11, 60
12, 63600, Note_on_c, 11, 63, 100
12, 63601, Control_c, 11, 1, 1
12, 63602, Control_c, 11, 1, 2
12, 63604, Control_c, 11, 1, 3
12, 63606, Control_c, 11, 1, 4
12, 63608, Control_c, 11, 1, 5
12, 63611, Control_c, 11, 1, 6
12, 63613, Control_c, 11, 1, 7
12, 63615, Control_c, 11, 11, 61
12, 63616, Control_c, 11, 1, 8
12, 63619, Control_c, 11, 1, 9
12, 63624, Control_c, 11, 1, 10
12, 63628, Control_c, 11, 1, 11
12, 63629, Control_c, 11, 11, 62
12, 63634, Control_c, 11, 1, 12
12, 63641, Control_c, 11, 1, 13
12, 63644, Control_c, 11, 11, 63
12, 63651, Control_c, 11, 1, 14
12, 63658, Control_c, 11, 11, 64
12, 63669, Control_c, 11, 1, 15
12, 63672, Control_c, 11, 11, 65
12, 63687, Control_c, 11, 11, 66
12, 63701, Control_c, 11, 11, 67
12, 63715, Control_c, 11, 11, 68
12, 63730, Control_c, 11, 11, 69
12, 63744, Note_on_c, 11, 60, 100
12, 63744, Control_c, 11, 11, 70
12, 63759, Control_c, 11, 11, 71
12, 63773, Control_c, 11, 11, 72
12, 63787, Control_c, 11, 11, 73
12, 63802, Control_c, 11, 11, 74
12, 63816, Control_c, 11, 11, 75
12, 63830, Control_c, 11, 11, 76
12, 63845, Control_c, 11, 11, 77
12, 63859, Control_c, 11, 11, 78
12, 63873, Control_c, 11, 11, 79
12, 63888, Note_on_c, 11, 58, 100
12, 63888, Note_on_c, 11, 62, 100
12, 63888, Control_c, 11, 11, 80
12, 63889, Note_on_c, 11, 63, 0
12, 63889, Note_on_c, 11, 60, 0
12, 63902, Control_c, 11, 11, 81
12, 63917, Control_c, 11, 11, 82
12, 63931, Control_c, 11, 11, 83
12, 63945, Control_c, 11, 11, 84
12, 63960, Control_c, 11, 11, 85
12, 63974, Control_c, 11, 11, 86
12, 63988, Control_c, 11, 11, 87
12, 64003, Control_c, 11, 11, 88
12, 64017, Control_c, 11, 11, 89
12, 64031, Control_c, 11, 11, 90
12, 64032, Control_c, 11, 11, 90
12, 64032, Note_on_c, 11, 65, 100
12, 64033, Note_on_c, 11, 62, 0
12, 64042, Control_c, 11, 11, 89
12, 64052, Control_c, 11, 11, 88
12, 64061, Control_c, 11, 11, 87
12, 64071, Control_c, 11, 11, 86
12, 64080, Control_c, 11, 11, 85
12, 64090, Control_c, 11, 11, 84
12, 64099, Control_c, 11, 11, 83
12, 64109, Control_c, 11, 11, 82
12, 64119, Control_c, 11, 11, 81
12, 64128, Control_c, 11, 11, 80
12, 64138, Control_c, 11, 11, 79
12, 64147, Control_c, 11, 11, 78
12, 64157, Control_c, 11, 11, 77
12, 64166, Control_c, 11, 11, 76
12, 64176, Note_on_c, 11, 53, 100
12, 64176, Control_c, 11, 11, 75
12, 64177, Note_on_c, 11, 58, 0
12, 64186, Control_c, 11, 11, 74
12, 64195, Control_c, 11, 11, 73
12, 64205, Control_c, 11, 11, 72
12, 64214, Control_c, 11, 11, 71
12, 64224, Control_c, 11, 11, 70
12, 64233, Control_c, 11, 11, 69
12, 64243, Control_c, 11, 11, 68
12, 64253, Control_c, 11, 11, 67
12, 64262, Control_c, 11, 11, 66
12, 64272, Control_c, 11, 11, 65
12, 64281, Control_c, 11, 11, 64
12, 64291, Control_c, 11, 11, 63
12, 64300, Control_c, 11, 11, 62
12, 64310, Control_c, 11, 11, 61
12, 64319, Control_c, 11, 11, 60
12, 64321, Note_on_c, 11, 65, 0
12, 64321, Note_on_c, 11, 53, 0
12, 68064, Control_c, 11, 1, 0
12, 68064, Control_c, 11, 11, 113
12, 68064, Note_on_c, 11, 50, 113
12, 68064, Note_on_c, 11, 62, 113
12, 68065, Control_c, 11, 1, 1
12, 68066, Control_c, 11, 1, 2
12, 68068, Control_c, 11, 1, 3
12, 68070, Control_c, 11, 1, 4
12, 68072, Control_c, 11, 1, 5
12, 68075, Control_c, 11, 1, 6
12, 68077, Control_c, 11, 1, 7
12, 68080, Control_c, 11, 1, 8
12, 68083, Control_c, 11, 1, 9
12, 68085, Control_c, 11, 11, 114
12, 68088, Control_c, 11, 1, 10
12, 68092, Control_c, 11, 1, 11
12, 68098, Control_c, 11, 1, 12
12, 68105, Control_c, 11, 11, 115
12, 68105, Control_c, 11, 1, 13
12, 68115, Control_c, 11, 1, 14
12, 68126, Control_c, 11, 11, 116
12, 68133, Control_c, 11, 1, 15
12, 68146, Control_c, 11, 11, 117
12, 68167, Control_c, 11, 11, 118
12, 68187, Control_c, 11, 11, 119
12, 68207, Note_on_c, 11, 62, 0
12, 68207, Note_on_c, 11, 50, 0
12, 68207, Control_c, 11, 11, 120
12, 68208, Note_on_c, 11, 50, 116
12, 68208, Note_on_c, 11, 62, 116
12, 68232, Note_on_c, 11, 62, 0
12, 68232, Note_on_c, 11, 50, 0
12, 68304, Control_c, 11, 1, 0
12, 68304, Note_on_c, 11, 50, 113
12, 68304, Note_on_c, 11, 62, 113
12, 68328, Note_on_c, 11, 62, 0
12, 68328, Note_on_c, 11, 50, 0
12, 68352, Note_on_c, 11, 50, 116
12, 68352, Note_on_c, 11, 62, 116
12, 68376, Note_on_c, 11, 62, 0
12, 68376, Note_on_c, 11, 50, 0
12, 68448, Note_on_c, 11, 50, 113
12, 68448, Note_on_c, 11, 62, 113
12, 68472, Note_on_c, 11, 62, 0
12, 68472, Note_on_c, 11, 50, 0
12, 68496, Note_on_c, 11, 50, 116
12, 68496, Note_on_c, 11, 62, 116
12, 68520, Note_on_c, 11, 62, 0
12, 68520, Note_on_c, 11, 50, 0
12, 68592, Note_on_c, 11, 50, 113
12, 68592, Note_on_c, 11, 62, 113
12, 68616, Note_on_c, 11, 62, 0
12, 68616, Note_on_c, 11, 50, 0
12, 68640, Control_c, 11, 11, 113
12, 68640, Control_c, 11, 1, 0
12, 68640, Note_on_c, 11, 50, 113
12, 68640, Note_on_c, 11, 62, 113
12, 68641, Control_c, 11, 1, 1
12, 68642, Control_c, 11, 1, 2
12, 68644, Control_c, 11, 1, 3
12, 68646, Control_c, 11, 1, 4
12, 68648, Control_c, 11, 1, 5
12, 68651, Control_c, 11, 1, 6
12, 68653, Control_c, 11, 1, 7
12, 68656, Control_c, 11, 1, 8
12, 68659, Control_c, 11, 1, 9
12, 68661, Control_c, 11, 11, 114
12, 68664, Control_c, 11, 1, 10
12, 68668, Control_c, 11, 1, 11
12, 68674, Control_c, 11, 1, 12
12, 68681, Control_c, 11, 1, 13
12, 68681, Control_c, 11, 11, 115
12, 68691, Control_c, 11, 1, 14
12, 68702, Control_c, 11, 11, 116
12, 68709, Control_c, 11, 1, 15
12, 68722, Control_c, 11, 11, 117
12, 68743, Control_c, 11, 11, 118
12, 68763, Control_c, 11, 11, 119
12, 68782, Note_on_c, 11, 62, 0
12, 68782, Note_on_c, 11, 50, 0
12, 68783, Control_c, 11, 11, 120
12, 68784, Note_on_c, 11, 50, 116
12, 68784, Note_on_c, 11, 62, 116
12, 68808, Note_on_c, 11, 62, 0
12, 68808, Note_on_c, 11, 50, 0
12, 68880, Control_c, 11, 1, 0
12, 68880, Note_on_c, 11, 50, 113
12, 68880, Note_on_c, 11, 62, 113
12, 68904, Note_on_c, 11, 62, 0
12, 68904, Note_on_c, 11, 50, 0
12, 68928, Note_on_c, 11, 50, 116
12, 68928, Note_on_c, 11, 62, 116
12, 68952, Note_on_c, 11, 62, 0
12, 68952, Note_on_c, 11, 50, 0
12, 69024, Note_on_c, 11, 50, 113
12, 69024, Note_on_c, 11, 62, 113
12, 69048, Note_on_c, 11, 62, 0
12, 69048, Note_on_c, 11, 50, 0
12, 69072, Note_on_c, 11, 50, 116
12, 69072, Note_on_c, 11, 62, 116
12, 69096, Note_on_c, 11, 62, 0
12, 69096, Note_on_c, 11, 50, 0
12, 69168, Note_on_c, 11, 50, 113
12, 69168, Note_on_c, 11, 62, 113
12, 69192, Note_on_c, 11, 62, 0
12, 69192, Note_on_c, 11, 50, 0
12, 69216, Note_on_c, 11, 50, 116
12, 69216, Note_on_c, 11, 62, 116
12, 69240, Note_on_c, 11, 62, 0
12, 69240, Note_on_c, 11, 50, 0
12, 69264, Note_on_c, 11, 50, 113
12, 69264, Note_on_c, 11, 62, 113
12, 69288, Note_on_c, 11, 62, 0
12, 69288, Note_on_c, 11, 50, 0
12, 69312, Note_on_c, 11, 50, 113
12, 69312, Note_on_c, 11, 62, 113
12, 69336, Note_on_c, 11, 62, 0
12, 69336, Note_on_c, 11, 50, 0
12, 69360, Note_on_c, 11, 50, 116
12, 69360, Note_on_c, 11, 62, 116
12, 69384, Note_on_c, 11, 62, 0
12, 69384, Note_on_c, 11, 50, 0
12, 69408, Note_on_c, 11, 50, 113
12, 69408, Note_on_c, 11, 62, 113
12, 69432, Note_on_c, 11, 62, 0
12, 69432, Note_on_c, 11, 50, 0
12, 69456, Note_on_c, 11, 50, 113
12, 69456, Note_on_c, 11, 62, 113
12, 69480, Note_on_c, 11, 62, 0
12, 69480, Note_on_c, 11, 50, 0
12, 69504, Note_on_c, 11, 50, 116
12, 69504, Note_on_c, 11, 62, 116
12, 69528, Note_on_c, 11, 62, 0
12, 69528, Note_on_c, 11, 50, 0
12, 69552, Note_on_c, 11, 50, 113
12, 69552, Note_on_c, 11, 62, 113
12, 69576, Note_on_c, 11, 62, 0
12, 69576, Note_on_c, 11, 50, 0
12, 69600, Note_on_c, 11, 50, 113
12, 69600, Note_on_c, 11, 62, 113
12, 69624, Note_on_c, 11, 62, 0
12, 69624, Note_on_c, 11, 50, 0
12, 69648, Note_on_c, 11, 50, 116
12, 69648, Note_on_c, 11, 62, 116
12, 69672, Note_on_c, 11, 62, 0
12, 69672, Note_on_c, 11, 50, 0
12, 69696, Note_on_c, 11, 50, 113
12, 69696, Note_on_c, 11, 62, 113
12, 69720, Note_on_c, 11, 62, 0
12, 69720, Note_on_c, 11, 50, 0
12, 69744, Note_on_c, 11, 50, 113
12, 69744, Note_on_c, 11, 62, 113
12, 69768, Note_on_c, 11, 62, 0
12, 69768, Note_on_c, 11, 50, 0
12, 69792, Note_on_c, 11, 50, 116
12, 69792, Note_on_c, 11, 62, 116
12, 69816, Note_on_c, 11, 62, 0
12, 69816, Note_on_c, 11, 50, 0
12, 69840, Note_on_c, 11, 50, 113
12, 69840, Note_on_c, 11, 62, 113
12, 69864, Note_on_c, 11, 62, 0
12, 69864, Note_on_c, 11, 50, 0
12, 69888, Note_on_c, 11, 50, 113
12, 69888, Note_on_c, 11, 62, 113
12, 69912, Note_on_c, 11, 62, 0
12, 69912, Note_on_c, 11, 50, 0
12, 69936, Note_on_c, 11, 50, 116
12, 69936, Note_on_c, 11, 62, 116
12, 69960, Note_on_c, 11, 62, 0
12, 69960, Note_on_c, 11, 50, 0
12, 69984, Note_on_c, 11, 50, 113
12, 69984, Note_on_c, 11, 62, 113
12, 70008, Note_on_c, 11, 62, 0
12, 70008, Note_on_c, 11, 50, 0
12, 70032, Note_on_c, 11, 50, 113
12, 70032, Note_on_c, 11, 62, 113
12, 70056, Note_on_c, 11, 62, 0
12, 70056, Note_on_c, 11, 50, 0
12, 70080, Note_on_c, 11, 50, 116
12, 70080, Note_on_c, 11, 62, 116
12, 70104, Note_on_c, 11, 62, 0
12, 70104, Note_on_c, 11, 50, 0
12, 70128, Note_on_c, 11, 50, 113
12, 70128, Note_on_c, 11, 62, 113
12, 70152, Note_on_c, 11, 62, 0
12, 70152, Note_on_c, 11, 50, 0
12, 70176, Note_on_c, 11, 50, 113
12, 70176, Note_on_c, 11, 62, 113
12, 70200, Note_on_c, 11, 62, 0
12, 70200, Note_on_c, 11, 50, 0
12, 70224, Note_on_c, 11, 50, 116
12, 70224, Note_on_c, 11, 62, 116
12, 70248, Note_on_c, 11, 62, 0
12, 70248, Note_on_c, 11, 50, 0
12, 70272, Note_on_c, 11, 50, 113
12, 70272, Note_on_c, 11, 62, 113
12, 70296, Note_on_c, 11, 62, 0
12, 70296, Note_on_c, 11, 50, 0
12, 70320, Note_on_c, 11, 50, 113
12, 70320, Note_on_c, 11, 62, 113
12, 70344, Note_on_c, 11, 62, 0
12, 70344, Note_on_c, 11, 50, 0
12, 70368, Note_on_c, 11, 50, 116
12, 70368, Note_on_c, 11, 62, 116
12, 70403, Note_on_c, 11, 62, 0
12, 70403, Note_on_c, 11, 50, 0
12, 70440, Note_on_c, 11, 50, 113
12, 70440, Note_on_c, 11, 62, 113
12, 70452, Note_on_c, 11, 62, 0
12, 70452, Note_on_c, 11, 50, 0
12, 70464, Note_on_c, 11, 50, 113
12, 70464, Note_on_c, 11, 62, 113
12, 70488, Note_on_c, 11, 62, 0
12, 70488, Note_on_c, 11, 50, 0
12, 70512, Note_on_c, 11, 50, 116
12, 70512, Note_on_c, 11, 62, 116
12, 70536, Note_on_c, 11, 62, 0
12, 70536, Note_on_c, 11, 50, 0
12, 70560, Note_on_c, 11, 50, 113
12, 70560, Note_on_c, 11, 62, 113
12, 70584, Note_on_c, 11, 62, 0
12, 70584, Note_on_c, 11, 50, 0
12, 70608, Note_on_c, 11, 50, 113
12, 70608, Note_on_c, 11, 62, 113
12, 70632, Note_on_c, 11, 62, 0
12, 70632, Note_on_c, 11, 50, 0
12, 70656, Note_on_c, 11, 50, 116
12, 70656, Note_on_c, 11, 62, 116
12, 70680, Note_on_c, 11, 62, 0
12, 70680, Note_on_c, 11, 50, 0
12, 70944, Note_on_c, 11, 60, 116
12, 70979, Note_on_c, 11, 60, 0
12, 71016, Note_on_c, 11, 60, 113
12, 71028, Note_on_c, 11, 60, 0
12, 71040, Note_on_c, 11, 60, 113
12, 71064, Note_on_c, 11, 60, 0
12, 71088, Note_on_c, 11, 60, 116
12, 71112, Note_on_c, 11, 60, 0
12, 71136, Note_on_c, 11, 60, 113
12, 71160, Note_on_c, 11, 60, 0
12, 71184, Note_on_c, 11, 60, 113
12, 71208, Note_on_c, 11, 60, 0
12, 71232, Note_on_c, 11, 53, 113
12, 71232, Note_on_c, 11, 65, 113
12, 71256, Note_on_c, 11, 65, 0
12, 71256, Note_on_c, 11, 53, 0
12, 71664, Control_c, 11, 1, 0
12, 71664, Control_c, 11, 11, 60
12, 71664, Note_on_c, 11, 46, 100
12, 71664, Note_on_c, 11, 58, 100
12, 71665, Control_c, 11, 1, 1
12, 71666, Control_c, 11, 1, 2
12, 71668, Control_c, 11, 1, 3
12, 71670, Control_c, 11, 1, 4
12, 71672, Control_c, 11, 1, 5
12, 71675, Control_c, 11, 1, 6
12, 71677, Control_c, 11, 1, 7
12, 71680, Control_c, 11, 1, 8
12, 71683, Control_c, 11, 1, 9
12, 71688, Control_c, 11, 1, 10
12, 71692, Control_c, 11, 1, 11
12, 71698, Control_c, 11, 1, 12
12, 71705, Control_c, 11, 1, 13
12, 71715, Control_c, 11, 1, 14
12, 71733, Control_c, 11, 1, 15
12, 71808, Control_c, 11, 11, 60
12, 71818, Control_c, 11, 11, 61
12, 71828, Control_c, 11, 11, 62
12, 71837, Control_c, 11, 11, 63
12, 71847, Control_c, 11, 11, 64
12, 71856, Control_c, 11, 11, 65
12, 71866, Control_c, 11, 11, 66
12, 71875, Control_c, 11, 11, 67
12, 71885, Control_c, 11, 11, 68
12, 71895, Control_c, 11, 11, 69
12, 71904, Control_c, 11, 11, 70
12, 71914, Control_c, 11, 11, 71
12, 71923, Control_c, 11, 11, 72
12, 71933, Control_c, 11, 11, 73
12, 71942, Control_c, 11, 11, 74
12, 71952, Control_c, 11, 11, 75
12, 71962, Control_c, 11, 11, 76
12, 71971, Control_c, 11, 11, 77
12, 71981, Control_c, 11, 11, 78
12, 71990, Control_c, 11, 11, 79
12, 72000, Control_c, 11, 11, 80
12, 72009, Control_c, 11, 11, 81
12, 72019, Control_c, 11, 11, 82
12, 72029, Control_c, 11, 11, 83
12, 72038, Control_c, 11, 11, 84
12, 72048, Control_c, 11, 11, 85
12, 72057, Control_c, 11, 11, 86
12, 72067, Control_c, 11, 11, 87
12, 72076, Control_c, 11, 11, 88
12, 72086, Control_c, 11, 11, 89
12, 72095, Control_c, 11, 11, 90
12, 72126, Note_on_c, 11, 58, 0
12, 72126, Note_on_c, 11, 46, 0
12, 72384, Control_c, 11, 1, 0
12, 72384, Control_c, 11, 11, 60
12, 72384, Note_on_c, 11, 46, 100
12, 72384, Note_on_c, 11, 58, 100
12, 72385, Control_c, 11, 1, 1
12, 72386, Control_c, 11, 1, 2
12, 72388, Control_c, 11, 1, 3
12, 72390, Control_c, 11, 1, 4
12, 72392, Control_c, 11, 1, 5
12, 72394, Control_c, 11, 11, 61
12, 72395, Control_c, 11, 1, 6
12, 72397, Control_c, 11, 1, 7
12, 72400, Control_c, 11, 1, 8
12, 72403, Control_c, 11, 1, 9
12, 72404, Control_c, 11, 11, 62
12, 72408, Control_c, 11, 1, 10
12, 72412, Control_c, 11, 1, 11
12, 72413, Control_c, 11, 11, 63
12, 72418, Control_c, 11, 1, 12
12, 72423, Control_c, 11, 11, 64
12, 72425, Control_c, 11, 1, 13
12, 72432, Control_c, 11, 11, 65
12, 72435, Control_c, 11, 1, 14
12, 72442, Control_c, 11, 11, 66
12, 72452, Control_c, 11, 11, 67
12, 72453, Control_c, 11, 1, 15
12, 72461, Control_c, 11, 11, 68
12, 72471, Control_c, 11, 11, 69
12, 72480, Control_c, 11, 11, 70
12, 72490, Control_c, 11, 11, 71
12, 72499, Control_c, 11, 11, 72
12, 72509, Control_c, 11, 11, 73
12, 72519, Control_c, 11, 11, 74
12, 72528, Control_c, 11, 11, 75
12, 72538, Control_c, 11, 11, 76
12, 72547, Control_c, 11, 11, 77
12, 72557, Control_c, 11, 11, 78
12, 72567, Control_c, 11, 11, 79
12, 72576, Control_c, 11, 11, 80
12, 72586, Control_c, 11, 11, 81
12, 72595, Control_c, 11, 11, 82
12, 72605, Control_c, 11, 11, 83
12, 72614, Control_c, 11, 11, 84
12, 72624, Control_c, 11, 11, 85
12, 72634, Control_c, 11, 11, 86
12, 72643, Control_c, 11, 11, 87
12, 72653, Control_c, 11, 11, 88
12, 72662, Control_c, 11, 11, 89
12, 72672, Control_c, 11, 11, 90
12, 72682, Control_c, 11, 11, 91
12, 72691, Control_c, 11, 11, 92
12, 72696, Note_on_c, 11, 58, 0
12, 72696, Note_on_c, 11, 46, 0
12, 72701, Control_c, 11, 11, 93
12, 72710, Control_c, 11, 11, 94
12, 72720, Control_c, 11, 11, 95
12, 72729, Control_c, 11, 11, 96
12, 72739, Control_c, 11, 11, 97
12, 72749, Control_c, 11, 11, 98
12, 72758, Control_c, 11, 11, 99
12, 72768, Control_c, 11, 11, 100
12, 72777, Control_c, 11, 11, 101
12, 72787, Control_c, 11, 11, 102
12, 72797, Control_c, 11, 11, 103
12, 72806, Control_c, 11, 11, 104
12, 72816, Control_c, 11, 11, 105
12, 72825, Control_c, 11, 11, 106
12, 72835, Control_c, 11, 11, 107
12, 72844, Control_c, 11, 11, 108
12, 72854, Control_c, 11, 11, 109
12, 72864, Control_c, 11, 11, 110
12, 72873, Control_c, 11, 11, 111
12, 72883, Control_c, 11, 11, 112
12, 72892, Control_c, 11, 11, 113
12, 72902, Control_c, 11, 11, 114
12, 72912, Control_c, 11, 11, 115
12, 72921, Control_c, 11, 11, 116
12, 72931, Control_c, 11, 11, 117
12, 72940, Control_c, 11, 11, 118
12, 72950, Control_c, 11, 11, 119
12, 72959, Control_c, 11, 11, 120
12, 73104, Control_c, 11, 1, 0
12, 73248, Note_on_c, 11, 53, 105
12, 73248, Note_on_c, 11, 65, 105
12, 73272, Note_on_c, 11, 65, 0
12, 73272, Note_on_c, 11, 53, 0
12, 73296, Note_on_c, 11, 53, 100
12, 73296, Note_on_c, 11, 65, 100
12, 73320, Note_on_c, 11, 65, 0
12, 73320, Note_on_c, 11, 53, 0
12, 73488, Note_on_c, 11, 53, 100
12, 73488, Note_on_c, 11, 65, 100
12, 73512, Note_on_c, 11, 65, 0
12, 73512, Note_on_c, 11, 53, 0
12, 73536, Note_on_c, 11, 53, 105
12, 73536, Note_on_c, 11, 65, 105
12, 73560, Note_on_c, 11, 65, 0
12, 73560, Note_on_c, 11, 53, 0
12, 73584, Note_on_c, 11, 53, 100
12, 73584, Note_on_c, 11, 65, 100
12, 73608, Note_on_c, 11, 65, 0
12, 73608, Note_on_c, 11, 53, 0
12, 73824, Note_on_c, 11, 53, 100
12, 73824, Note_on_c, 11, 65, 105
12, 73848, Note_on_c, 11, 65, 0
12, 73848, Note_on_c, 11, 53, 0
12, 73872, Note_on_c, 11, 53, 105
12, 73872, Note_on_c, 11, 65, 100
12, 73896, Note_on_c, 11, 65, 0
12, 73896, Note_on_c, 11, 53, 0
12, 74112, Note_on_c, 11, 50, 105
12, 74112, Note_on_c, 11, 62, 105
12, 74147, Note_on_c, 11, 62, 0
12, 74147, Note_on_c, 11, 50, 0
12, 74184, Note_on_c, 11, 50, 100
12, 74184, Note_on_c, 11, 62, 100
12, 74196, Note_on_c, 11, 62, 0
12, 74196, Note_on_c, 11, 50, 0
12, 74208, Note_on_c, 11, 50, 100
12, 74208, Note_on_c, 11, 62, 100
12, 74232, Note_on_c, 11, 62, 0
12, 74232, Note_on_c, 11, 50, 0
12, 74400, Note_on_c, 11, 50, 105
12, 74400, Note_on_c, 11, 62, 105
12, 74435, Note_on_c, 11, 62, 0
12, 74435, Note_on_c, 11, 50, 0
12, 74472, Note_on_c, 11, 50, 100
12, 74472, Note_on_c, 11, 62, 100
12, 74484, Note_on_c, 11, 62, 0
12, 74484, Note_on_c, 11, 50, 0
12, 74496, Note_on_c, 11, 50, 100
12, 74496, Note_on_c, 11, 62, 100
12, 74520, Note_on_c, 11, 62, 0
12, 74520, Note_on_c, 11, 50, 0
12, 75408, Note_on_c, 11, 50, 55
12, 75408, Note_on_c, 11, 62, 55
12, 75443, Note_on_c, 11, 62, 0
12, 75443, Note_on_c, 11, 50, 0
12, 75480, Note_on_c, 11, 50, 50
12, 75480, Note_on_c, 11, 62, 50
12, 75492, Note_on_c, 11, 62, 0
12, 75492, Note_on_c, 11, 50, 0
12, 75504, Note_on_c, 11, 50, 50
12, 75504, Note_on_c, 11, 62, 50
12, 75528, Note_on_c, 11, 62, 0
12, 75528, Note_on_c, 11, 50, 0
12, 75552, Note_on_c, 11, 50, 50
12, 75552, Note_on_c, 11, 62, 50
12, 75576, Note_on_c, 11, 62, 0
12, 75576, Note_on_c, 11, 50, 0
12, 76848, Note_on_c, 11, 50, 55
12, 76848, Note_on_c, 11, 62, 55
12, 76883, Note_on_c, 11, 62, 0
12, 76883, Note_on_c, 11, 50, 0
12, 76920, Note_on_c, 11, 50, 50
12, 76920, Note_on_c, 11, 62, 50
12, 76932, Note_on_c, 11, 62, 0
12, 76932, Note_on_c, 11, 50, 0
12, 76944, Note_on_c, 11, 50, 50
12, 76944, Note_on_c, 11, 62, 50
12, 76968, Note_on_c, 11, 62, 0
12, 76968, Note_on_c, 11, 50, 0
12, 76992, Note_on_c, 11, 46, 50
12, 76992, Note_on_c, 11, 58, 50
12, 77016, Note_on_c, 11, 58, 0
12, 77016, Note_on_c, 11, 46, 0
12, 77136, Note_on_c, 11, 46, 55
12, 77136, Note_on_c, 11, 58, 55
12, 77171, Note_on_c, 11, 58, 0
12, 77171, Note_on_c, 11, 46, 0
12, 77208, Note_on_c, 11, 46, 50
12, 77208, Note_on_c, 11, 58, 50
12, 77220, Note_on_c, 11, 58, 0
12, 77220, Note_on_c, 11, 46, 0
12, 77232, Note_on_c, 11, 46, 50
12, 77232, Note_on_c, 11, 58, 50
12, 77256, Note_on_c, 11, 58, 0
12, 77256, Note_on_c, 11, 46, 0
12, 77280, Note_on_c, 11, 46, 50
12, 77280, Note_on_c, 11, 58, 50
12, 77304, Note_on_c, 11, 58, 0
12, 77304, Note_on_c, 11, 46, 0
12, 77424, Note_on_c, 11, 58, 55
12, 77459, Note_on_c, 11, 58, 0
12, 77496, Note_on_c, 11, 58, 50
12, 77508, Note_on_c, 11, 58, 0
12, 77520, Note_on_c, 11, 58, 50
12, 77544, Note_on_c, 11, 58, 0
12, 77568, Note_on_c, 11, 58, 50
12, 77592, Note_on_c, 11, 58, 0
12, 78144, Note_on_c, 11, 63, 60
12, 78179, Note_on_c, 11, 63, 0
12, 78216, Note_on_c, 11, 63, 61
12, 78228, Note_on_c, 11, 63, 0
12, 78240, Note_on_c, 11, 63, 61
12, 78264, Note_on_c, 11, 63, 0
12, 78288, Note_on_c, 11, 63, 62
12, 78312, Note_on_c, 11, 63, 0
12, 78432, Note_on_c, 11, 60, 64
12, 78432, Note_on_c, 11, 63, 64
12, 78467, Note_on_c, 11, 63, 0
12, 78467, Note_on_c, 11, 60, 0
12, 78504, Note_on_c, 11, 60, 65
12, 78504, Note_on_c, 11, 63, 65
12, 78516, Note_on_c, 11, 63, 0
12, 78516, Note_on_c, 11, 60, 0
12, 78528, Note_on_c, 11, 60, 66
12, 78528, Note_on_c, 11, 63, 66
12, 78552, Note_on_c, 11, 63, 0
12, 78552, Note_on_c, 11, 60, 0
12, 78576, Note_on_c, 11, 60, 66
12, 78576, Note_on_c, 11, 65, 66
12, 78600, Note_on_c, 11, 65, 0
12, 78600, Note_on_c, 11, 60, 0
12, 78720, Note_on_c, 11, 53, 69
12, 78720, Note_on_c, 11, 65, 69
12, 78755, Note_on_c, 11, 65, 0
12, 78755, Note_on_c, 11, 53, 0
12, 78792, Note_on_c, 11, 53, 70
12, 78792, Note_on_c, 11, 65, 70
12, 78804, Note_on_c, 11, 65, 0
12, 78804, Note_on_c, 11, 53, 0
12, 78816, Note_on_c, 11, 53, 70
12, 78816, Note_on_c, 11, 65, 70
12, 78840, Note_on_c, 11, 65, 0
12, 78840, Note_on_c, 11, 53, 0
12, 78864, Note_on_c, 11, 53, 71
12, 78864, Note_on_c, 11, 65, 71
12, 78888, Note_on_c, 11, 65, 0
12, 78888, Note_on_c, 11, 53, 0
12, 79152, Note_on_c, 11, 63, 75
12, 79187, Note_on_c, 11, 63, 0
12, 79224, Note_on_c, 11, 63, 76
12, 79236, Note_on_c, 11, 63, 0
12, 79248, Note_on_c, 11, 63, 77
12, 79272, Note_on_c, 11, 63, 0
12, 79296, Note_on_c, 11, 63, 78
12, 79331, Note_on_c, 11, 63, 0
12, 79368, Note_on_c, 11, 63, 79
12, 79380, Note_on_c, 11, 63, 0
12, 79392, Note_on_c, 11, 63, 79
12, 79416, Note_on_c, 11, 63, 0
12, 79440, Note_on_c, 11, 63, 80
12, 79464, Note_on_c, 11, 63, 0
12, 80160, Note_on_c, 11, 58, 113
12, 80195, Note_on_c, 11, 58, 0
12, 80232, Note_on_c, 11, 46, 113
12, 80232, Note_on_c, 11, 58, 113
12, 80244, Note_on_c, 11, 58, 0
12, 80244, Note_on_c, 11, 46, 0
12, 80256, Note_on_c, 11, 46, 113
12, 80256, Note_on_c, 11, 58, 113
12, 80280, Note_on_c, 11, 58, 0
12, 80280, Note_on_c, 11, 46, 0
12, 83520, Note_on_c, 11, 53, 65
12, 83520, Note_on_c, 11, 65, 65
12, 83544, Note_on_c, 11, 65, 0
12, 83544, Note_on_c, 11, 53, 0
12, 83568, Note_on_c, 11, 53, 60
12, 83568, Note_on_c, 11, 65, 60
12, 83592, Note_on_c, 11, 65, 0
12, 83592, Note_on_c, 11, 53, 0
12, 83616, Note_on_c, 11, 53, 60
12, 83616, Note_on_c, 11, 65, 60
12, 83640, Note_on_c, 11, 65, 0
12, 83640, Note_on_c, 11, 53, 0
12, 83664, Note_on_c, 11, 53, 65
12, 83664, Note_on_c, 11, 65, 65
12, 83688, Note_on_c, 11, 65, 0
12, 83688, Note_on_c, 11, 53, 0
12, 83712, Note_on_c, 11, 53, 60
12, 83712, Note_on_c, 11, 65, 60
12, 83736, Note_on_c, 11, 65, 0
12, 83736, Note_on_c, 11, 53, 0
12, 83760, Note_on_c, 11, 53, 60
12, 83760, Note_on_c, 11, 65, 60
12, 83784, Note_on_c, 11, 65, 0
12, 83784, Note_on_c, 11, 53, 0
12, 83952, Note_on_c, 11, 53, 65
12, 83952, Note_on_c, 11, 65, 65
12, 83976, Note_on_c, 11, 65, 0
12, 83976, Note_on_c, 11, 53, 0
12, 84000, Note_on_c, 11, 60, 60
12, 84024, Note_on_c, 11, 60, 0
12, 84048, Note_on_c, 11, 60, 60
12, 84072, Note_on_c, 11, 60, 0
12, 84096, Note_on_c, 11, 60, 65
12, 84120, Note_on_c, 11, 60, 0
12, 84144, Note_on_c, 11, 60, 60
12, 84168, Note_on_c, 11, 60, 0
12, 84192, Note_on_c, 11, 60, 60
12, 84216, Note_on_c, 11, 60, 0
12, 84384, Note_on_c, 11, 53, 65
12, 84384, Note_on_c, 11, 65, 65
12, 84408, Note_on_c, 11, 65, 0
12, 84408, Note_on_c, 11, 53, 0
12, 84432, Note_on_c, 11, 53, 60
12, 84432, Note_on_c, 11, 65, 60
12, 84456, Note_on_c, 11, 65, 0
12, 84456, Note_on_c, 11, 53, 0
12, 84480, Note_on_c, 11, 53, 60
12, 84480, Note_on_c, 11, 65, 60
12, 84504, Note_on_c, 11, 65, 0
12, 84504, Note_on_c, 11, 53, 0
12, 84528, Note_on_c, 11, 53, 65
12, 84528, Note_on_c, 11, 65, 65
12, 84552, Note_on_c, 11, 65, 0
12, 84552, Note_on_c, 11, 53, 0
12, 84576, Note_on_c, 11, 53, 60
12, 84576, Note_on_c, 11, 65, 60
12, 84600, Note_on_c, 11, 65, 0
12, 84600, Note_on_c, 11, 53, 0
12, 84624, Note_on_c, 11, 53, 60
12, 84624, Note_on_c, 11, 65, 60
12, 84648, Note_on_c, 11, 65, 0
12, 84648, Note_on_c, 11, 53, 0
12, 84816, Note_on_c, 11, 53, 65
12, 84816, Note_on_c, 11, 65, 65
12, 84840, Note_on_c, 11, 65, 0
12, 84840, Note_on_c, 11, 53, 0
12, 84864, Note_on_c, 11, 60, 60
12, 84888, Note_on_c, 11, 60, 0
12, 84912, Note_on_c, 11, 60, 60
12, 84936, Note_on_c, 11, 60, 0
12, 84960, Note_on_c, 11, 60, 65
12, 84984, Note_on_c, 11, 60, 0
12, 85008, Note_on_c, 11, 60, 60
12, 85032, Note_on_c, 11, 60, 0
12, 85056, Note_on_c, 11, 60, 60
12, 85080, Note_on_c, 11, 60, 0
12, 85104, Note_on_c, 11, 53, 65
12, 85104, Note_on_c, 11, 65, 65
12, 85128, Note_on_c, 11, 65, 0
12, 85128, Note_on_c, 11, 53, 0
12, 85152, Note_on_c, 11, 53, 60
12, 85152, Note_on_c, 11, 65, 60
12, 85176, Note_on_c, 11, 65, 0
12, 85176, Note_on_c, 11, 53, 0
12, 85200, Note_on_c, 11, 53, 60
12, 85200, Note_on_c, 11, 65, 60
12, 85224, Note_on_c, 11, 65, 0
12, 85224, Note_on_c, 11, 53, 0
12, 85248, Note_on_c, 11, 53, 65
12, 85248, Note_on_c, 11, 65, 65
12, 85272, Note_on_c, 11, 65, 0
12, 85272, Note_on_c, 11, 53, 0
12, 85296, Note_on_c, 11, 53, 60
12, 85296, Note_on_c, 11, 65, 60
12, 85320, Note_on_c, 11, 65, 0
12, 85320, Note_on_c, 11, 53, 0
12, 85344, Note_on_c, 11, 53, 60
12, 85344, Note_on_c, 11, 65, 60
12, 85368, Note_on_c, 11, 65, 0
12, 85368, Note_on_c, 11, 53, 0
12, 85392, Note_on_c, 11, 53, 65
12, 85392, Note_on_c, 11, 65, 65
12, 85416, Note_on_c, 11, 65, 0
12, 85416, Note_on_c, 11, 53, 0
12, 85440, Note_on_c, 11, 53, 60
12, 85440, Note_on_c, 11, 65, 60
12, 85464, Note_on_c, 11, 65, 0
12, 85464, Note_on_c, 11, 53, 0
12, 85488, Note_on_c, 11, 53, 60
12, 85488, Note_on_c, 11, 65, 60
12, 85512, Note_on_c, 11, 65, 0
12, 85512, Note_on_c, 11, 53, 0
12, 85968, Note_on_c, 11, 50, 55
12, 85968, Note_on_c, 11, 62, 55
12, 85992, Note_on_c, 11, 62, 0
12, 85992, Note_on_c, 11, 50, 0
12, 86016, Note_on_c, 11, 50, 50
12, 86016, Note_on_c, 11, 62, 50
12, 86040, Note_on_c, 11, 62, 0
12, 86040, Note_on_c, 11, 50, 0
12, 86064, Note_on_c, 11, 50, 50
12, 86064, Note_on_c, 11, 62, 50
12, 86088, Note_on_c, 11, 62, 0
12, 86088, Note_on_c, 11, 50, 0
12, 86112, Note_on_c, 11, 50, 55
12, 86112, Note_on_c, 11, 62, 55
12, 86136, Note_on_c, 11, 62, 0
12, 86136, Note_on_c, 11, 50, 0
12, 86160, Note_on_c, 11, 50, 50
12, 86160, Note_on_c, 11, 62, 50
12, 86184, Note_on_c, 11, 62, 0
12, 86184, Note_on_c, 11, 50, 0
12, 86208, Note_on_c, 11, 50, 50
12, 86208, Note_on_c, 11, 62, 50
12, 86232, Note_on_c, 11, 62, 0
12, 86232, Note_on_c, 11, 50, 0
12, 86256, Note_on_c, 11, 50, 55
12, 86256, Note_on_c, 11, 62, 55
12, 86280, Note_on_c, 11, 62, 0
12, 86280, Note_on_c, 11, 50, 0
12, 86304, Note_on_c, 11, 50, 50
12, 86304, Note_on_c, 11, 62, 50
12, 86328, Note_on_c, 11, 62, 0
12, 86328, Note_on_c, 11, 50, 0
12, 86352, Note_on_c, 11, 50, 50
12, 86352, Note_on_c, 11, 62, 50
12, 86376, Note_on_c, 11, 62, 0
12, 86376, Note_on_c, 11, 50, 0
12, 90288, Note_on_c, 11, 58, 60
12, 90323, Note_on_c, 11, 58, 0
12, 90360, Note_on_c, 11, 46, 55
12, 90372, Note_on_c, 11, 46, 0
12, 90384, Note_on_c, 11, 46, 55
12, 90408, Note_on_c, 11, 46, 0
12, 90576, Note_on_c, 11, 58, 60
12, 90611, Note_on_c, 11, 58, 0
12, 90648, Note_on_c, 11, 46, 55
12, 90660, Note_on_c, 11, 46, 0
12, 90672, Note_on_c, 11, 46, 55
12, 90696, Note_on_c, 11, 46, 0
12, 90864, Note_on_c, 11, 58, 60
12, 90899, Note_on_c, 11, 58, 0
12, 90936, Note_on_c, 11, 46, 55
12, 90948, Note_on_c, 11, 46, 0
12, 90960, Note_on_c, 11, 46, 55
12, 90984, Note_on_c, 11, 46, 0
12, 91152, Note_on_c, 11, 58, 60
12, 91187, Note_on_c, 11, 58, 0
12, 91224, Note_on_c, 11, 46, 55
12, 91236, Note_on_c, 11, 46, 0
12, 91248, Note_on_c, 11, 46, 55
12, 91272, Note_on_c, 11, 46, 0
12, 91440, Note_on_c, 11, 65, 60
12, 91475, Note_on_c, 11, 65, 0
12, 91512, Note_on_c, 11, 53, 55
12, 91524, Note_on_c, 11, 53, 0
12, 91536, Note_on_c, 11, 53, 55
12, 91560, Note_on_c, 11, 53, 0
12, 91584, Note_on_c, 11, 58, 60
12, 91619, Note_on_c, 11, 58, 0
12, 91656, Note_on_c, 11, 46, 55
12, 91668, Note_on_c, 11, 46, 0
12, 91680, Note_on_c, 11, 46, 55
12, 91704, Note_on_c, 11, 46, 0
12, 91728, Note_on_c, 11, 58, 60
12, 91763, Note_on_c, 11, 58, 0
12, 91800, Note_on_c, 11, 46, 55
12, 91812, Note_on_c, 11, 46, 0
12, 91824, Note_on_c, 11, 46, 55
12, 91848, Note_on_c, 11, 46, 0
12, 91872, Note_on_c, 11, 58, 60
12, 91907, Note_on_c, 11, 58, 0
12, 91944, Note_on_c, 11, 46, 55
12, 91956, Note_on_c, 11, 46, 0
12, 91968, Note_on_c, 11, 46, 55
12, 91992, Note_on_c, 11, 46, 0
12, 92016, Note_on_c, 11, 58, 60
12, 92051, Note_on_c, 11, 58, 0
12, 92088, Note_on_c, 11, 46, 55
12, 92100, Note_on_c, 11, 46, 0
12, 92112, Note_on_c, 11, 46, 55
12, 92136, Note_on_c, 11, 46, 0
12, 92304, Note_on_c, 11, 58, 50
12, 92339, Note_on_c, 11, 58, 0
12, 92376, Note_on_c, 11, 46, 53
12, 92388, Note_on_c, 11, 46, 0
12, 92400, Note_on_c, 11, 46, 54
12, 92424, Note_on_c, 11, 46, 0
12, 92592, Note_on_c, 11, 65, 63
12, 92627, Note_on_c, 11, 65, 0
12, 92664, Note_on_c, 11, 53, 66
12, 92676, Note_on_c, 11, 53, 0
12, 92688, Note_on_c, 11, 53, 68
12, 92712, Note_on_c, 11, 53, 0
12, 93168, Note_on_c, 11, 65, 90
12, 93203, Note_on_c, 11, 65, 0
12, 93240, Note_on_c, 11, 53, 93
12, 93252, Note_on_c, 11, 53, 0
12, 93264, Note_on_c, 11, 53, 95
12, 93288, Note_on_c, 11, 53, 0
12, 93312, Note_on_c, 11, 65, 120
12, 93336, Note_on_c, 11, 65, 0
12, 93384, Note_on_c, 11, 53, 110
12, 93396, Note_on_c, 11, 53, 0
12, 93408, Note_on_c, 11, 53, 110
12, 93432, Note_on_c, 11, 53, 0
12, 93456, Note_on_c, 11, 65, 120
12, 93480, Note_on_c, 11, 65, 0
12, 93528, Note_on_c, 11, 53, 110
12, 93540, Note_on_c, 11, 53, 0
12, 93552, Note_on_c, 11, 53, 110
12, 93576, Note_on_c, 11, 53, 0
12, 93600, Note_on_c, 11, 65, 120
12, 93624, Note_on_c, 11, 65, 0
12, 93672, Note_on_c, 11, 53, 110
12, 93684, Note_on_c, 11, 53, 0
12, 93696, Note_on_c, 11, 53, 110
12, 93720, Note_on_c, 11, 53, 0
12, 93744, Note_on_c, 11, 65, 120
12, 93768, Note_on_c, 11, 65, 0
12, 93816, Note_on_c, 11, 53, 110
12, 93828, Note_on_c, 11, 53, 0
12, 93840, Note_on_c, 11, 53, 110
12, 93864, Note_on_c, 11, 53, 0
12, 93888, Note_on_c, 11, 65, 120
12, 93912, Note_on_c, 11, 65, 0
12, 93960, Note_on_c, 11, 53, 110
12, 93972, Note_on_c, 11, 53, 0
12, 93984, Note_on_c, 11, 53, 110
12, 94008, Note_on_c, 11, 53, 0
12, 94032, Note_on_c, 11, 65, 120
12, 94056, Note_on_c, 11, 65, 0
12, 94104, Note_on_c, 11, 53, 110
12, 94116, Note_on_c, 11, 53, 0
12, 94128, Note_on_c, 11, 53, 110
12, 94152, Note_on_c, 11, 53, 0
12, 94176, Note_on_c, 11, 65, 120
12, 94200, Note_on_c, 11, 65, 0
12, 94248, Note_on_c, 11, 53, 110
12, 94260, Note_on_c, 11, 53, 0
12, 94272, Note_on_c, 11, 53, 110
12, 94296, Note_on_c, 11, 53, 0
12, 94320, Note_on_c, 11, 65, 120
12, 94344, Note_on_c, 11, 65, 0
12, 94392, Note_on_c, 11, 53, 110
12, 94404, Note_on_c, 11, 53, 0
12, 94416, Note_on_c, 11, 53, 110
12, 94440, Note_on_c, 11, 53, 0
12, 94464, Note_on_c, 11, 65, 120
12, 94488, Note_on_c, 11, 65, 0
12, 94536, Note_on_c, 11, 53, 110
12, 94548, Note_on_c, 11, 53, 0
12, 94560, Note_on_c, 11, 53, 110
12, 94584, Note_on_c, 11, 53, 0
12, 94608, Note_on_c, 11, 65, 120
12, 94632, Note_on_c, 11, 65, 0
12, 94680, Note_on_c, 11, 53, 110
12, 94692, Note_on_c, 11, 53, 0
12, 94704, Note_on_c, 11, 53, 110
12, 94728, Note_on_c, 11, 53, 0
12, 94752, Note_on_c, 11, 65, 120
12, 94776, Note_on_c, 11, 65, 0
12, 94824, Note_on_c, 11, 53, 110
12, 94836, Note_on_c, 11, 53, 0
12, 94848, Note_on_c, 11, 53, 110
12, 94872, Note_on_c, 11, 53, 0
12, 94896, Note_on_c, 11, 65, 120
12, 94920, Note_on_c, 11, 65, 0
12, 94968, Note_on_c, 11, 53, 110
12, 94980, Note_on_c, 11, 53, 0
12, 94992, Note_on_c, 11, 53, 110
12, 95016, Note_on_c, 11, 53, 0
12, 95040, Note_on_c, 11, 65, 120
12, 95064, Note_on_c, 11, 65, 0
12, 95112, Note_on_c, 11, 53, 110
12, 95124, Note_on_c, 11, 53, 0
12, 95136, Note_on_c, 11, 53, 110
12, 95160, Note_on_c, 11, 53, 0
12, 95184, Note_on_c, 11, 65, 120
12, 95208, Note_on_c, 11, 65, 0
12, 95256, Note_on_c, 11, 53, 110
12, 95268, Note_on_c, 11, 53, 0
12, 95280, Note_on_c, 11, 53, 110
12, 95304, Note_on_c, 11, 53, 0
12, 95328, Note_on_c, 11, 65, 120
12, 95352, Note_on_c, 11, 65, 0
12, 95400, Note_on_c, 11, 53, 110
12, 95412, Note_on_c, 11, 53, 0
12, 95424, Note_on_c, 11, 53, 110
12, 95448, Note_on_c, 11, 53, 0
12, 95472, Note_on_c, 11, 65, 120
12, 95496, Note_on_c, 11, 65, 0
12, 95544, Note_on_c, 11, 53, 110
12, 95556, Note_on_c, 11, 53, 0
12, 95568, Note_on_c, 11, 53, 110
12, 95592, Note_on_c, 11, 53, 0
12, 95616, Note_on_c, 11, 65, 120
12, 95640, Note_on_c, 11, 65, 0
12, 95688, Note_on_c, 11, 53, 110
12, 95700, Note_on_c, 11, 53, 0
12, 95712, Note_on_c, 11, 53, 110
12, 95736, Note_on_c, 11, 53, 0
12, 95760, Note_on_c, 11, 65, 120
12, 95784, Note_on_c, 11, 65, 0
12, 95832, Note_on_c, 11, 53, 110
12, 95844, Note_on_c, 11, 53, 0
12, 95856, Note_on_c, 11, 53, 110
12, 95880, Note_on_c, 11, 53, 0
12, 95904, Note_on_c, 11, 65, 120
12, 95928, Note_on_c, 11, 65, 0
12, 95976, Note_on_c, 11, 53, 110
12, 95988, Note_on_c, 11, 53, 0
12, 96000, Note_on_c, 11, 53, 110
12, 96024, Note_on_c, 11, 53, 0
12, 96048, Note_on_c, 11, 65, 120
12, 96072, Note_on_c, 11, 65, 0
12, 96120, Note_on_c, 11, 53, 110
12, 96132, Note_on_c, 11, 53, 0
12, 96144, Note_on_c, 11, 53, 110
12, 96168, Note_on_c, 11, 53, 0
12, 96912, Note_on_c, 11, 58, 110
12, 96936, Note_on_c, 11, 58, 0
12, 96984, Note_on_c, 11, 46, 100
12, 96996, Note_on_c, 11, 46, 0
12, 97008, Note_on_c, 11, 46, 100
12, 97032, Note_on_c, 11, 46, 0
12, 97056, Note_on_c, 11, 65, 110
12, 97080, Note_on_c, 11, 65, 0
12, 97128, Note_on_c, 11, 53, 100
12, 97140, Note_on_c, 11, 53, 0
12, 97152, Note_on_c, 11, 53, 100
12, 97176, Note_on_c, 11, 53, 0
12, 97200, Note_on_c, 11, 65, 110
12, 97224, Note_on_c, 11, 65, 0
12, 97272, Note_on_c, 11, 53, 100
12, 97284, Note_on_c, 11, 53, 0
12, 97296, Note_on_c, 11, 53, 100
12, 97320, Note_on_c, 11, 53, 0
12, 97344, Note_on_c, 11, 65, 110
12, 97368, Note_on_c, 11, 65, 0
12, 97416, Note_on_c, 11, 53, 100
12, 97428, Note_on_c, 11, 53, 0
12, 97440, Note_on_c, 11, 53, 100
12, 97464, Note_on_c, 11, 53, 0
12, 97488, Note_on_c, 11, 65, 110
12, 97512, Note_on_c, 11, 65, 0
12, 97560, Note_on_c, 11, 53, 100
12, 97572, Note_on_c, 11, 53, 0
12, 97584, Note_on_c, 11, 53, 100
12, 97608, Note_on_c, 11, 53, 0
12, 97632, Note_on_c, 11, 65, 110
12, 97656, Note_on_c, 11, 65, 0
12, 97704, Note_on_c, 11, 53, 100
12, 97716, Note_on_c, 11, 53, 0
12, 97728, Note_on_c, 11, 53, 100
12, 97752, Note_on_c, 11, 53, 0
12, 97776, Note_on_c, 11, 65, 110
12, 97800, Note_on_c, 11, 65, 0
12, 97848, Note_on_c, 11, 53, 100
12, 97860, Note_on_c, 11, 53, 0
12, 97872, Note_on_c, 11, 53, 100
12, 97896, Note_on_c, 11, 53, 0
12, 97920, Note_on_c, 11, 46, 100
12, 97920, Note_on_c, 11, 58, 100
12, 97944, Note_on_c, 11, 58, 0
12, 97944, Note_on_c, 11, 46, 0
12, 98352, Control_c, 11, 1, 0
12, 98352, Control_c, 11, 11, 60
12, 98352, Note_on_c, 11, 63, 100
12, 98353, Control_c, 11, 1, 1
12, 98354, Control_c, 11, 1, 2
12, 98356, Control_c, 11, 1, 3
12, 98358, Control_c, 11, 1, 4
12, 98360, Control_c, 11, 1, 5
12, 98363, Control_c, 11, 1, 6
12, 98365, Control_c, 11, 1, 7
12, 98367, Control_c, 11, 11, 61
12, 98368, Control_c, 11, 1, 8
12, 98371, Control_c, 11, 1, 9
12, 98376, Control_c, 11, 1, 10
12, 98380, Control_c, 11, 1, 11
12, 98381, Control_c, 11, 11, 62
12, 98386, Control_c, 11, 1, 12
12, 98393, Control_c, 11, 1, 13
12, 98396, Control_c, 11, 11, 63
12, 98403, Control_c, 11, 1, 14
12, 98410, Control_c, 11, 11, 64
12, 98421, Control_c, 11, 1, 15
12, 98424, Control_c, 11, 11, 65
12, 98439, Control_c, 11, 11, 66
12, 98453, Control_c, 11, 11, 67
12, 98467, Control_c, 11, 11, 68
12, 98482, Control_c, 11, 11, 69
12, 98496, Note_on_c, 11, 60, 100
12, 98496, Control_c, 11, 11, 70
12, 98511, Control_c, 11, 11, 71
12, 98525, Control_c, 11, 11, 72
12, 98539, Control_c, 11, 11, 73
12, 98554, Control_c, 11, 11, 74
12, 98568, Control_c, 11, 11, 75
12, 98582, Control_c, 11, 11, 76
12, 98597, Control_c, 11, 11, 77
12, 98611, Control_c, 11, 11, 78
12, 98625, Control_c, 11, 11, 79
12, 98640, Note_on_c, 11, 58, 100
12, 98640, Note_on_c, 11, 62, 100
12, 98640, Control_c, 11, 11, 80
12, 98641, Note_on_c, 11, 63, 0
12, 98641, Note_on_c, 11, 60, 0
12, 98654, Control_c, 11, 11, 81
12, 98669, Control_c, 11, 11, 82
12, 98683, Control_c, 11, 11, 83
12, 98697, Control_c, 11, 11, 84
12, 98712, Control_c, 11, 11, 85
12, 98726, Control_c, 11, 11, 86
12, 98740, Control_c, 11, 11, 87
12, 98755, Control_c, 11, 11, 88
12, 98769, Control_c, 11, 11, 89
12, 98783, Control_c, 11, 11, 90
12, 98784, Control_c, 11, 11, 90
12, 98784, Note_on_c, 11, 65, 100
12, 98785, Note_on_c, 11, 62, 0
12, 98794, Control_c, 11, 11, 89
12, 98804, Control_c, 11, 11, 88
12, 98813, Control_c, 11, 11, 87
12, 98823, Control_c, 11, 11, 86
12, 98832, Control_c, 11, 11, 85
12, 98842, Control_c, 11, 11, 84
12, 98851, Control_c, 11, 11, 83
12, 98861, Control_c, 11, 11, 82
12, 98871, Control_c, 11, 11, 81
12, 98880, Control_c, 11, 11, 80
12, 98890, Control_c, 11, 11, 79
12, 98899, Control_c, 11, 11, 78
12, 98909, Control_c, 11, 11, 77
12, 98918, Control_c, 11, 11, 76
12, 98928, Note_on_c, 11, 53, 100
12, 98928, Control_c, 11, 11, 75
12, 98929, Note_on_c, 11, 58, 0
12, 98938, Control_c, 11, 11, 74
12, 98947, Control_c, 11, 11, 73
12, 98957, Control_c, 11, 11, 72
12, 98966, Control_c, 11, 11, 71
12, 98976, Control_c, 11, 11, 70
12, 98985, Control_c, 11, 11, 69
12, 98995, Control_c, 11, 11, 68
12, 99005, Control_c, 11, 11, 67
12, 99014, Control_c, 11, 11, 66
12, 99024, Control_c, 11, 11, 65
12, 99033, Control_c, 11, 11, 64
12, 99043, Control_c, 11, 11, 63
12, 99052, Control_c, 11, 11, 62
12, 99062, Control_c, 11, 11, 61
12, 99071, Control_c, 11, 11, 60
12, 99073, Note_on_c, 11, 65, 0
12, 99073, Note_on_c, 11, 53, 0
12, 102816, Control_c, 11, 1, 0
12, 102816, Control_c, 11, 11, 113
12, 102816, Note_on_c, 11, 50, 113
12, 102816, Note_on_c, 11, 62, 113
12, 102817, Control_c, 11, 1, 1
12, 102818, Control_c, 11, 1, 2
12, 102820, Control_c, 11, 1, 3
12, 102822, Control_c, 11, 1, 4
12, 102824, Control_c, 11, 1, 5
12, 102827, Control_c, 11, 1, 6
12, 102829, Control_c, 11, 1, 7
12, 102832, Control_c, 11, 1, 8
12, 102835, Control_c, 11, 1, 9
12, 102837, Control_c, 11, 11, 114
12, 102840, Control_c, 11, 1, 10
12, 102844, Control_c, 11, 1, 11
12, 102850, Control_c, 11, 1, 12
12, 102857, Control_c, 11, 11, 115
12, 102857, Control_c, 11, 1, 13
12, 102867, Control_c, 11, 1, 14
12, 102878, Control_c, 11, 11, 116
12, 102885, Control_c, 11, 1, 15
12, 102898, Control_c, 11, 11, 117
12, 102919, Control_c, 11, 11, 118
12, 102939, Control_c, 11, 11, 119
12, 102959, Note_on_c, 11, 62, 0
12, 102959, Note_on_c, 11, 50, 0
12, 102959, Control_c, 11, 11, 120
12, 102960, Note_on_c, 11, 50, 116
12, 102960, Note_on_c, 11, 62, 116
12, 102984, Note_on_c, 11, 62, 0
12, 102984, Note_on_c, 11, 50, 0
12, 103056, Control_c, 11, 1, 0
12, 103056, Note_on_c, 11, 50, 113
12, 103056, Note_on_c, 11, 62, 113
12, 103080, Note_on_c, 11, 62, 0
12, 103080, Note_on_c, 11, 50, 0
12, 103104, Note_on_c, 11, 50, 116
12, 103104, Note_on_c, 11, 62, 116
12, 103128, Note_on_c, 11, 62, 0
12, 103128, Note_on_c, 11, 50, 0
12, 103200, Note_on_c, 11, 50, 113
12, 103200, Note_on_c, 11, 62, 113
12, 103224, Note_on_c, 11, 62, 0
12, 103224, Note_on_c, 11, 50, 0
12, 103248, Note_on_c, 11, 50, 116
12, 103248, Note_on_c, 11, 62, 116
12, 103272, Note_on_c, 11, 62, 0
12, 103272, Note_on_c, 11, 50, 0
12, 103344, Note_on_c, 11, 50, 113
12, 103344, Note_on_c, 11, 62, 113
12, 103368, Note_on_c, 11, 62, 0
12, 103368, Note_on_c, 11, 50, 0
12, 103392, Control_c, 11, 11, 113
12, 103392, Control_c, 11, 1, 0
12, 103392, Note_on_c, 11, 50, 113
12, 103392, Note_on_c, 11, 62, 113
12, 103393, Control_c, 11, 1, 1
12, 103394, Control_c, 11, 1, 2
12, 103396, Control_c, 11, 1, 3
12, 103398, Control_c, 11, 1, 4
12, 103400, Control_c, 11, 1, 5
12, 103403, Control_c, 11, 1, 6
12, 103405, Control_c, 11, 1, 7
12, 103408, Control_c, 11, 1, 8
12, 103411, Control_c, 11, 1, 9
12, 103413, Control_c, 11, 11, 114
12, 103416, Control_c, 11, 1, 10
12, 103420, Control_c, 11, 1, 11
12, 103426, Control_c, 11, 1, 12
12, 103433, Control_c, 11, 1, 13
12, 103433, Control_c, 11, 11, 115
12, 103443, Control_c, 11, 1, 14
12, 103454, Control_c, 11, 11, 116
12, 103461, Control_c, 11, 1, 15
12, 103474, Control_c, 11, 11, 117
12, 103495, Control_c, 11, 11, 118
12, 103515, Control_c, 11, 11, 119
12, 103534, Note_on_c, 11, 62, 0
12, 103534, Note_on_c, 11, 50, 0
12, 103535, Control_c, 11, 11, 120
12, 103536, Note_on_c, 11, 50, 116
12, 103536, Note_on_c, 11, 62, 116
12, 103560, Note_on_c, 11, 62, 0
12, 103560, Note_on_c, 11, 50, 0
12, 103632, Control_c, 11, 1, 0
12, 103632, Note_on_c, 11, 50, 113
12, 103632, Note_on_c, 11, 62, 113
12, 103656, Note_on_c, 11, 62, 0
12, 103656, Note_on_c, 11, 50, 0
12, 103680, Note_on_c, 11, 50, 116
12, 103680, Note_on_c, 11, 62, 116
12, 103704, Note_on_c, 11, 62, 0
12, 103704, Note_on_c, 11, 50, 0
12, 103776, Note_on_c, 11, 50, 113
12, 103776, Note_on_c, 11, 62, 113
12, 103800, Note_on_c, 11, 62, 0
12, 103800, Note_on_c, 11, 50, 0
12, 103824, Note_on_c, 11, 50, 116
12, 103824, Note_on_c, 11, 62, 116
12, 103848, Note_on_c, 11, 62, 0
12, 103848, Note_on_c, 11, 50, 0
12, 103920, Note_on_c, 11, 50, 113
12, 103920, Note_on_c, 11, 62, 113
12, 103944, Note_on_c, 11, 62, 0
12, 103944, Note_on_c, 11, 50, 0
12, 103968, Note_on_c, 11, 50, 116
12, 103968, Note_on_c, 11, 62, 116
12, 103992, Note_on_c, 11, 62, 0
12, 103992, Note_on_c, 11, 50, 0
12, 104016, Note_on_c, 11, 50, 113
12, 104016, Note_on_c, 11, 62, 113
12, 104040, Note_on_c, 11, 62, 0
12, 104040, Note_on_c, 11, 50, 0
12, 104064, Note_on_c, 11, 50, 113
12, 104064, Note_on_c, 11, 62, 113
12, 104088, Note_on_c, 11, 62, 0
12, 104088, Note_on_c, 11, 50, 0
12, 104112, Note_on_c, 11, 50, 116
12, 104112, Note_on_c, 11, 62, 116
12, 104136, Note_on_c, 11, 62, 0
12, 104136, Note_on_c, 11, 50, 0
12, 104160, Note_on_c, 11, 50, 113
12, 104160, Note_on_c, 11, 62, 113
12, 104184, Note_on_c, 11, 62, 0
12, 104184, Note_on_c, 11, 50, 0
12, 104208, Note_on_c, 11, 50, 113
12, 104208, Note_on_c, 11, 62, 113
12, 104232, Note_on_c, 11, 62, 0
12, 104232, Note_on_c, 11, 50, 0
12, 104256, Note_on_c, 11, 50, 116
12, 104256, Note_on_c, 11, 62, 116
12, 104280, Note_on_c, 11, 62, 0
12, 104280, Note_on_c, 11, 50, 0
12, 104304, Note_on_c, 11, 50, 113
12, 104304, Note_on_c, 11, 62, 113
12, 104328, Note_on_c, 11, 62, 0
12, 104328, Note_on_c, 11, 50, 0
12, 104352, Note_on_c, 11, 50, 113
12, 104352, Note_on_c, 11, 62, 113
12, 104376, Note_on_c, 11, 62, 0
12, 104376, Note_on_c, 11, 50, 0
12, 104400, Note_on_c, 11, 50, 116
12, 104400, Note_on_c, 11, 62, 116
12, 104424, Note_on_c, 11, 62, 0
12, 104424, Note_on_c, 11, 50, 0
12, 104448, Note_on_c, 11, 50, 113
12, 104448, Note_on_c, 11, 62, 113
12, 104472, Note_on_c, 11, 62, 0
12, 104472, Note_on_c, 11, 50, 0
12, 104496, Note_on_c, 11, 50, 113
12, 104496, Note_on_c, 11, 62, 113
12, 104520, Note_on_c, 11, 62, 0
12, 104520, Note_on_c, 11, 50, 0
12, 104544, Note_on_c, 11, 50, 116
12, 104544, Note_on_c, 11, 62, 116
12, 104568, Note_on_c, 11, 62, 0
12, 104568, Note_on_c, 11, 50, 0
12, 104592, Note_on_c, 11, 50, 113
12, 104592, Note_on_c, 11, 62, 113
12, 104616, Note_on_c, 11, 62, 0
12, 104616, Note_on_c, 11, 50, 0
12, 104640, Note_on_c, 11, 50, 113
12, 104640, Note_on_c, 11, 62, 113
12, 104664, Note_on_c, 11, 62, 0
12, 104664, Note_on_c, 11, 50, 0
12, 104688, Note_on_c, 11, 50, 116
12, 104688, Note_on_c, 11, 62, 116
12, 104712, Note_on_c, 11, 62, 0
12, 104712, Note_on_c, 11, 50, 0
12, 104736, Note_on_c, 11, 50, 113
12, 104736, Note_on_c, 11, 62, 113
12, 104760, Note_on_c, 11, 62, 0
12, 104760, Note_on_c, 11, 50, 0
12, 104784, Note_on_c, 11, 50, 113
12, 104784, Note_on_c, 11, 62, 113
12, 104808, Note_on_c, 11, 62, 0
12, 104808, Note_on_c, 11, 50, 0
12, 104832, Note_on_c, 11, 50, 116
12, 104832, Note_on_c, 11, 62, 116
12, 104856, Note_on_c, 11, 62, 0
12, 104856, Note_on_c, 11, 50, 0
12, 104880, Note_on_c, 11, 50, 113
12, 104880, Note_on_c, 11, 62, 113
12, 104904, Note_on_c, 11, 62, 0
12, 104904, Note_on_c, 11, 50, 0
12, 104928, Note_on_c, 11, 50, 113
12, 104928, Note_on_c, 11, 62, 113
12, 104952, Note_on_c, 11, 62, 0
12, 104952, Note_on_c, 11, 50, 0
12, 104976, Note_on_c, 11, 50, 116
12, 104976, Note_on_c, 11, 62, 116
12, 105000, Note_on_c, 11, 62, 0
12, 105000, Note_on_c, 11, 50, 0
12, 105024, Note_on_c, 11, 50, 113
12, 105024, Note_on_c, 11, 62, 113
12, 105048, Note_on_c, 11, 62, 0
12, 105048, Note_on_c, 11, 50, 0
12, 105072, Note_on_c, 11, 50, 113
12, 105072, Note_on_c, 11, 62, 113
12, 105096, Note_on_c, 11, 62, 0
12, 105096, Note_on_c, 11, 50, 0
12, 105120, Note_on_c, 11, 50, 116
12, 105120, Note_on_c, 11, 62, 116
12, 105155, Note_on_c, 11, 62, 0
12, 105155, Note_on_c, 11, 50, 0
12, 105192, Note_on_c, 11, 50, 113
12, 105192, Note_on_c, 11, 62, 113
12, 105204, Note_on_c, 11, 62, 0
12, 105204, Note_on_c, 11, 50, 0
12, 105216, Note_on_c, 11, 50, 113
12, 105216, Note_on_c, 11, 62, 113
12, 105240, Note_on_c, 11, 62, 0
12, 105240, Note_on_c, 11, 50, 0
12, 105264, Note_on_c, 11, 50, 116
12, 105264, Note_on_c, 11, 62, 116
12, 105288, Note_on_c, 11, 62, 0
12, 105288, Note_on_c, 11, 50, 0
12, 105312, Note_on_c, 11, 50, 113
12, 105312, Note_on_c, 11, 62, 113
12, 105336, Note_on_c, 11, 62, 0
12, 105336, Note_on_c, 11, 50, 0
12, 105360, Note_on_c, 11, 50, 113
12, 105360, Note_on_c, 11, 62, 113
12, 105384, Note_on_c, 11, 62, 0
12, 105384, Note_on_c, 11, 50, 0
12, 105408, Note_on_c, 11, 50, 116
12, 105408, Note_on_c, 11, 62, 116
12, 105432, Note_on_c, 11, 62, 0
12, 105432, Note_on_c, 11, 50, 0
12, 105696, Note_on_c, 11, 60, 116
12, 105731, Note_on_c, 11, 60, 0
12, 105768, Note_on_c, 11, 60, 113
12, 105780, Note_on_c, 11, 60, 0
12, 105792, Note_on_c, 11, 60, 113
12, 105816, Note_on_c, 11, 60, 0
12, 105840, Note_on_c, 11, 60, 116
12, 105864, Note_on_c, 11, 60, 0
12, 105888, Note_on_c, 11, 60, 113
12, 105912, Note_on_c, 11, 60, 0
12, 105936, Note_on_c, 11, 60, 113
12, 105960, Note_on_c, 11, 60, 0
12, 105984, Note_on_c, 11, 53, 113
12, 105984, Note_on_c, 11, 65, 113
12, 106008, Note_on_c, 11, 65, 0
12, 106008, Note_on_c, 11, 53, 0
12, 106416, Control_c, 11, 1, 0
12, 106416, Control_c, 11, 11, 60
12, 106416, Note_on_c, 11, 46, 100
12, 106416, Note_on_c, 11, 58, 100
12, 106417, Control_c, 11, 1, 1
12, 106418, Control_c, 11, 1, 2
12, 106420, Control_c, 11, 1, 3
12, 106422, Control_c, 11, 1, 4
12, 106424, Control_c, 11, 1, 5
12, 106427, Control_c, 11, 1, 6
12, 106429, Control_c, 11, 1, 7
12, 106432, Control_c, 11, 1, 8
12, 106435, Control_c, 11, 1, 9
12, 106440, Control_c, 11, 1, 10
12, 106444, Control_c, 11, 1, 11
12, 106450, Control_c, 11, 1, 12
12, 106457, Control_c, 11, 1, 13
12, 106467, Control_c, 11, 1, 14
12, 106485, Control_c, 11, 1, 15
12, 106560, Control_c, 11, 11, 60
12, 106570, Control_c, 11, 11, 61
12, 106580, Control_c, 11, 11, 62
12, 106589, Control_c, 11, 11, 63
12, 106599, Control_c, 11, 11, 64
12, 106608, Control_c, 11, 11, 65
12, 106618, Control_c, 11, 11, 66
12, 106627, Control_c, 11, 11, 67
12, 106637, Control_c, 11, 11, 68
12, 106647, Control_c, 11, 11, 69
12, 106656, Control_c, 11, 11, 70
12, 106666, Control_c, 11, 11, 71
12, 106675, Control_c, 11, 11, 72
12, 106685, Control_c, 11, 11, 73
12, 106694, Control_c, 11, 11, 74
12, 106704, Control_c, 11, 11, 75
12, 106714, Control_c, 11, 11, 76
12, 106723, Control_c, 11, 11, 77
12, 106733, Control_c, 11, 11, 78
12, 106742, Control_c, 11, 11, 79
12, 106752, Control_c, 11, 11, 80
12, 106761, Control_c, 11, 11, 81
12, 106771, Control_c, 11, 11, 82
12, 106781, Control_c, 11, 11, 83
12, 106790, Control_c, 11, 11, 84
12, 106800, Control_c, 11, 11, 85
12, 106809, Control_c, 11, 11, 86
12, 106819, Control_c, 11, 11, 87
12, 106828, Control_c, 11, 11, 88
12, 106838, Control_c, 11, 11, 89
12, 106847, Control_c, 11, 11, 90
12, 106878, Note_on_c, 11, 58, 0
12, 106878, Note_on_c, 11, 46, 0
12, 107136, Control_c, 11, 1, 0
12, 107136, Control_c, 11, 11, 60
12, 107136, Note_on_c, 11, 46, 100
12, 107136, Note_on_c, 11, 58, 100
12, 107137, Control_c, 11, 1, 1
12, 107138, Control_c, 11, 1, 2
12, 107140, Control_c, 11, 1, 3
12, 107142, Control_c, 11, 1, 4
12, 107144, Control_c, 11, 1, 5
12, 107146, Control_c, 11, 11, 61
12, 107147, Control_c, 11, 1, 6
12, 107149, Control_c, 11, 1, 7
12, 107152, Control_c, 11, 1, 8
12, 107155, Control_c, 11, 1, 9
12, 107156, Control_c, 11, 11, 62
12, 107160, Control_c, 11, 1, 10
12, 107164, Control_c, 11, 1, 11
12, 107165, Control_c, 11, 11, 63
12, 107170, Control_c, 11, 1, 12
12, 107175, Control_c, 11, 11, 64
12, 107177, Control_c, 11, 1, 13
12, 107184, Control_c, 11, 11, 65
12, 107187, Control_c, 11, 1, 14
12, 107194, Control_c, 11, 11, 66
12, 107204, Control_c, 11, 11, 67
12, 107205, Control_c, 11, 1, 15
12, 107213, Control_c, 11, 11, 68
12, 107223, Control_c, 11, 11, 69
12, 107232, Control_c, 11, 11, 70
12, 107242, Control_c, 11, 11, 71
12, 107251, Control_c, 11, 11, 72
12, 107261, Control_c, 11, 11, 73
12, 107271, Control_c, 11, 11, 74
12, 107280, Control_c, 11, 11, 75
12, 107290, Control_c, 11, 11, 76
12, 107299, Control_c, 11, 11, 77
12, 107309, Control_c, 11, 11, 78
12, 107319, Control_c, 11, 11, 79
12, 107328, Control_c, 11, 11, 80
12, 107338, Control_c, 11, 11, 81
12, 107347, Control_c, 11, 11, 82
12, 107357, Control_c, 11, 11, 83
12, 107366, Control_c, 11, 11, 84
12, 107376, Control_c, 11, 11, 85
12, 107386, Control_c, 11, 11, 86
12, 107395, Control_c, 11, 11, 87
12, 107405, Control_c, 11, 11, 88
12, 107414, Control_c, 11, 11, 89
12, 107424, Control_c, 11, 11, 90
12, 107434, Control_c, 11, 11, 91
12, 107443, Control_c, 11, 11, 92
12, 107448, Note_on_c, 11, 58, 0
12, 107448, Note_on_c, 11, 46, 0
12, 107453, Control_c, 11, 11, 93
12, 107462, Control_c, 11, 11, 94
12, 107472, Control_c, 11, 11, 95
12, 107481, Control_c, 11, 11, 96
12, 107491, Control_c, 11, 11, 97
12, 107501, Control_c, 11, 11, 98
12, 107510, Control_c, 11, 11, 99
12, 107520, Control_c, 11, 11, 100
12, 107529, Control_c, 11, 11, 101
12, 107539, Control_c, 11, 11, 102
12, 107549, Control_c, 11, 11, 103
12, 107558, Control_c, 11, 11, 104
12, 107568, Control_c, 11, 11, 105
12, 107577, Control_c, 11, 11, 106
12, 107587, Control_c, 11, 11, 107
12, 107596, Control_c, 11, 11, 108
12, 107606, Control_c, 11, 11, 109
12, 107616, Control_c, 11, 11, 110
12, 107625, Control_c, 11, 11, 111
12, 107635, Control_c, 11, 11, 112
12, 107644, Control_c, 11, 11, 113
12, 107654, Control_c, 11, 11, 114
12, 107664, Control_c, 11, 11, 115
12, 107673, Control_c, 11, 11, 116
12, 107683, Control_c, 11, 11, 117
12, 107692, Control_c, 11, 11, 118
12, 107702, Control_c, 11, 11, 119
12, 107711, Control_c, 11, 11, 120
12, 107856, Control_c, 11, 1, 0
12, 108000, Note_on_c, 11, 53, 105
12, 108000, Note_on_c, 11, 65, 105
12, 108024, Note_on_c, 11, 65, 0
12, 108024, Note_on_c, 11, 53, 0
12, 108048, Note_on_c, 11, 53, 100
12, 108048, Note_on_c, 11, 65, 100
12, 108072, Note_on_c, 11, 65, 0
12, 108072, Note_on_c, 11, 53, 0
12, 108240, Note_on_c, 11, 53, 100
12, 108240, Note_on_c, 11, 65, 100
12, 108264, Note_on_c, 11, 65, 0
12, 108264, Note_on_c, 11, 53, 0
12, 108288, Note_on_c, 11, 53, 105
12, 108288, Note_on_c, 11, 65, 105
12, 108312, Note_on_c, 11, 65, 0
12, 108312, Note_on_c, 11, 53, 0
12, 108336, Note_on_c, 11, 53, 100
12, 108336, Note_on_c, 11, 65, 100
12, 108360, Note_on_c, 11, 65, 0
12, 108360, Note_on_c, 11, 53, 0
12, 108576, Note_on_c, 11, 53, 100
12, 108576, Note_on_c, 11, 65, 105
12, 108600, Note_on_c, 11, 65, 0
12, 108600, Note_on_c, 11, 53, 0
12, 108624, Note_on_c, 11, 53, 105
12, 108624, Note_on_c, 11, 65, 100
12, 108648, Note_on_c, 11, 65, 0
12, 108648, Note_on_c, 11, 53, 0
12, 108864, Note_on_c, 11, 50, 105
12, 108864, Note_on_c, 11, 62, 105
12, 108899, Note_on_c, 11, 62, 0
12, 108899, Note_on_c, 11, 50, 0
12, 108936, Note_on_c, 11, 50, 100
12, 108936, Note_on_c, 11, 62, 100
12, 108948, Note_on_c, 11, 62, 0
12, 108948, Note_on_c, 11, 50, 0
12, 108960, Note_on_c, 11, 50, 100
12, 108960, Note_on_c, 11, 62, 100
12, 108984, Note_on_c, 11, 62, 0
12, 108984, Note_on_c, 11, 50, 0
12, 109152, Note_on_c, 11, 50, 105
12, 109152, Note_on_c, 11, 62, 105
12, 109187, Note_on_c, 11, 62, 0
12, 109187, Note_on_c, 11, 50, 0
12, 109224, Note_on_c, 11, 50, 100
12, 109224, Note_on_c, 11, 62, 100
12, 109236, Note_on_c, 11, 62, 0
12, 109236, Note_on_c, 11, 50, 0
12, 109248, Note_on_c, 11, 50, 100
12, 109248, Note_on_c, 11, 62, 100
12, 109272, Note_on_c, 11, 62, 0
12, 109272, Note_on_c, 11, 50, 0
12, 110160, Note_on_c, 11, 50, 55
12, 110160, Note_on_c, 11, 62, 55
12, 110195, Note_on_c, 11, 62, 0
12, 110195, Note_on_c, 11, 50, 0
12, 110232, Note_on_c, 11, 50, 50
12, 110232, Note_on_c, 11, 62, 50
12, 110244, Note_on_c, 11, 62, 0
12, 110244, Note_on_c, 11, 50, 0
12, 110256, Note_on_c, 11, 50, 50
12, 110256, Note_on_c, 11, 62, 50
12, 110280, Note_on_c, 11, 62, 0
12, 110280, Note_on_c, 11, 50, 0
12, 110304, Note_on_c, 11, 50, 50
12, 110304, Note_on_c, 11, 62, 50
12, 110328, Note_on_c, 11, 62, 0
12, 110328, Note_on_c, 11, 50, 0
12, 111312, Note_on_c, 11, 50, 59
12, 111312, Note_on_c, 11, 62, 59
12, 111347, Note_on_c, 11, 62, 0
12, 111347, Note_on_c, 11, 50, 0
12, 111384, Note_on_c, 11, 50, 63
12, 111384, Note_on_c, 11, 62, 63
12, 111396, Note_on_c, 11, 62, 0
12, 111396, Note_on_c, 11, 50, 0
12, 111408, Note_on_c, 11, 50, 65
12, 111408, Note_on_c, 11, 62, 65
12, 111432, Note_on_c, 11, 62, 0
12, 111432, Note_on_c, 11, 50, 0
12, 111456, Note_on_c, 11, 50, 68
12, 111456, Note_on_c, 11, 62, 68
12, 111480, Note_on_c, 11, 62, 0
12, 111480, Note_on_c, 11, 50, 0
12, 111600, Note_on_c, 11, 50, 77
12, 111600, Note_on_c, 11, 62, 77
12, 111635, Note_on_c, 11, 62, 0
12, 111635, Note_on_c, 11, 50, 0
12, 111672, Note_on_c, 11, 50, 81
12, 111672, Note_on_c, 11, 62, 81
12, 111684, Note_on_c, 11, 62, 0
12, 111684, Note_on_c, 11, 50, 0
12, 111696, Note_on_c, 11, 50, 83
12, 111696, Note_on_c, 11, 62, 83
12, 111720, Note_on_c, 11, 62, 0
12, 111720, Note_on_c, 11, 50, 0
12, 111744, Note_on_c, 11, 50, 86
12, 111744, Note_on_c, 11, 62, 86
12, 111768, Note_on_c, 11, 62, 0
12, 111768, Note_on_c, 11, 50, 0
12, 111888, Note_on_c, 11, 50, 95
12, 111888, Note_on_c, 11, 62, 95
12, 111923, Note_on_c, 11, 62, 0
12, 111923, Note_on_c, 11, 50, 0
12, 111960, Note_on_c, 11, 50, 99
12, 111960, Note_on_c, 11, 62, 99
12, 111972, Note_on_c, 11, 62, 0
12, 111972, Note_on_c, 11, 50, 0
12, 111984, Note_on_c, 11, 50, 101
12, 111984, Note_on_c, 11, 62, 101
12, 112008, Note_on_c, 11, 62, 0
12, 112008, Note_on_c, 11, 50, 0
12, 112032, Note_on_c, 11, 50, 104
12, 112032, Note_on_c, 11, 62, 104
12, 112056, Note_on_c, 11, 62, 0
12, 112056, Note_on_c, 11, 50, 0
12, 114768, Note_on_c, 11, 62, 115
12, 114792, Note_on_c, 11, 62, 0
12, 114816, Note_on_c, 11, 50, 105
12, 114840, Note_on_c, 11, 50, 0
12, 115056, Note_on_c, 11, 50, 110
12, 115056, Note_on_c, 11, 62, 110
12, 115080, Note_on_c, 11, 62, 0
12, 115080, Note_on_c, 11, 50, 0
12, 121198, Text_t, "\203z\203\223\203g\202ÍIN D\202¾\202¯\202Ç"
12, 121198, Text_t, "\223s\215\207\202É\202æ\202è\202±\202Á\202¿"
12, 121198, Control_c, 11, 11, 120
12, 121198, Control_c, 11, 1, 0
12, 121198, Note_on_c, 11, 62, 60
12, 121199, Control_c, 11, 1, 1
12, 121201, Control_c, 11, 1, 2
12, 121203, Control_c, 11, 1, 3
12, 121206, Control_c, 11, 1, 4
12, 121209, Control_c, 11, 1, 5
12, 121212, Control_c, 11, 1, 6
12, 121216, Control_c, 11, 1, 7
12, 121219, Control_c, 11, 1, 8
12, 121224, Control_c, 11, 1, 9
12, 121230, Control_c, 11, 1, 10
12, 121236, Control_c, 11, 1, 11
12, 121243, Control_c, 11, 1, 12
12, 121253, Control_c, 11, 1, 13
12, 121266, Control_c, 11, 1, 14
12, 121290, Control_c, 11, 1, 15
12, 124269, Note_on_c, 11, 62, 0
12, 124272, Note_on_c, 11, 57, 60
12, 124296, Note_on_c, 11, 57, 0
12, 124656, Control_c, 11, 1, 0
12, 134446, Control_c, 11, 11, 120
12, 134446, Control_c, 11, 1, 0
12, 134446, Note_on_c, 11, 62, 60
12, 134447, Control_c, 11, 1, 1
12, 134449, Control_c, 11, 1, 2
12, 134451, Control_c, 11, 1, 3
12, 134454, Control_c, 11, 1, 4
12, 134457, Control_c, 11, 1, 5
12, 134460, Control_c, 11, 1, 6
12, 134464, Control_c, 11, 1, 7
12, 134467, Control_c, 11, 1, 8
12, 134472, Control_c, 11, 1, 9
12, 134478, Control_c, 11, 1, 10
12, 134484, Control_c, 11, 1, 11
12, 134491, Control_c, 11, 1, 12
12, 134501, Control_c, 11, 1, 13
12, 134514, Control_c, 11, 1, 14
12, 134538, Control_c, 11, 1, 15
12, 137517, Note_on_c, 11, 62, 0
12, 137520, Note_on_c, 11, 57, 60
12, 137544, Note_on_c, 11, 57, 0
12, 137904, Control_c, 11, 1, 0
12, 144624, Control_c, 11, 1, 0
12, 144624, Control_c, 11, 11, 95
12, 144624, Note_on_c, 11, 50, 120
12, 144624, Note_on_c, 11, 62, 120
12, 144625, Control_c, 11, 11, 91
12, 144625, Control_c, 11, 1, 1
12, 144626, Control_c, 11, 11, 88
12, 144627, Control_c, 11, 11, 85
12, 144627, Control_c, 11, 1, 2
12, 144628, Control_c, 11, 11, 83
12, 144629, Control_c, 11, 11, 81
12, 144629, Control_c, 11, 1, 3
12, 144630, Control_c, 11, 11, 79
12, 144631, Control_c, 11, 11, 77
12, 144632, Control_c, 11, 11, 76
12, 144632, Control_c, 11, 1, 4
12, 144633, Control_c, 11, 11, 75
12, 144634, Control_c, 11, 11, 74
12, 144635, Control_c, 11, 11, 73
12, 144635, Control_c, 11, 1, 5
12, 144636, Control_c, 11, 11, 72
12, 144637, Control_c, 11, 11, 71
12, 144638, Control_c, 11, 11, 70
12, 144638, Control_c, 11, 1, 6
12, 144640, Control_c, 11, 11, 69
12, 144641, Control_c, 11, 11, 68
12, 144642, Control_c, 11, 1, 7
12, 144644, Control_c, 11, 11, 67
12, 144645, Control_c, 11, 1, 8
12, 144647, Control_c, 11, 11, 66
12, 144650, Control_c, 11, 1, 9
12, 144653, Control_c, 11, 11, 65
12, 144656, Control_c, 11, 1, 10
12, 144662, Control_c, 11, 1, 11
12, 144669, Control_c, 11, 1, 12
12, 144679, Control_c, 11, 1, 13
12, 144692, Control_c, 11, 1, 14
12, 144716, Control_c, 11, 1, 15
12, 145392, Control_c, 11, 11, 65
12, 145444, Control_c, 11, 11, 66
12, 145495, Control_c, 11, 11, 67
12, 145546, Control_c, 11, 11, 68
12, 145597, Control_c, 11, 11, 69
12, 145648, Control_c, 11, 11, 70
12, 145699, Control_c, 11, 11, 71
12, 145751, Control_c, 11, 11, 72
12, 145802, Control_c, 11, 11, 73
12, 145853, Control_c, 11, 11, 74
12, 145904, Control_c, 11, 11, 75
12, 145955, Control_c, 11, 11, 76
12, 146006, Control_c, 11, 11, 77
12, 146058, Control_c, 11, 11, 78
12, 146109, Control_c, 11, 11, 79
12, 146160, Control_c, 11, 11, 80
12, 146211, Control_c, 11, 11, 81
12, 146262, Control_c, 11, 11, 82
12, 146313, Control_c, 11, 11, 83
12, 146365, Control_c, 11, 11, 84
12, 146416, Control_c, 11, 11, 85
12, 146467, Control_c, 11, 11, 86
12, 146518, Control_c, 11, 11, 87
12, 146569, Control_c, 11, 11, 88
12, 146620, Control_c, 11, 11, 89
12, 146672, Control_c, 11, 11, 90
12, 146723, Control_c, 11, 11, 91
12, 146774, Control_c, 11, 11, 92
12, 146825, Control_c, 11, 11, 93
12, 146876, Control_c, 11, 11, 94
12, 146927, Control_c, 11, 11, 95
12, 147312, Control_c, 11, 11, 95
12, 147328, Control_c, 11, 11, 94
12, 147344, Control_c, 11, 11, 93
12, 147360, Control_c, 11, 11, 92
12, 147376, Control_c, 11, 11, 91
12, 147392, Control_c, 11, 11, 90
12, 147408, Control_c, 11, 11, 89
12, 147424, Control_c, 11, 11, 88
12, 147440, Control_c, 11, 11, 87
12, 147456, Control_c, 11, 11, 86
12, 147472, Control_c, 11, 11, 85
12, 147488, Control_c, 11, 11, 84
12, 147504, Control_c, 11, 11, 83
12, 147520, Control_c, 11, 11, 82
12, 147536, Control_c, 11, 11, 81
12, 147552, Control_c, 11, 11, 80
12, 147568, Control_c, 11, 11, 79
12, 147584, Control_c, 11, 11, 78
12, 147600, Control_c, 11, 11, 77
12, 147616, Control_c, 11, 11, 76
12, 147632, Control_c, 11, 11, 75
12, 147648, Control_c, 11, 11, 74
12, 147664, Control_c, 11, 11, 73
12, 147680, Control_c, 11, 11, 72
12, 147696, Control_c, 11, 11, 71
12, 147712, Control_c, 11, 11, 70
12, 147720, Note_on_c, 11, 62, 0
12, 147720, Note_on_c, 11, 50, 0
12, 147728, Control_c, 11, 11, 69
12, 147744, Control_c, 11, 11, 68
12, 147760, Control_c, 11, 11, 67
12, 147776, Control_c, 11, 11, 66
12, 147791, Control_c, 11, 11, 65
12, 147792, Control_c, 11, 11, 65
12, 147792, Control_c, 11, 1, 0
12, 147792, Note_on_c, 11, 50, 120
12, 147792, Note_on_c, 11, 62, 120
12, 147793, Control_c, 11, 1, 1
12, 147796, Control_c, 11, 1, 2
12, 147799, Control_c, 11, 1, 3
12, 147804, Control_c, 11, 1, 4
12, 147808, Control_c, 11, 1, 5
12, 147813, Control_c, 11, 1, 6
12, 147818, Control_c, 11, 1, 7
12, 147824, Control_c, 11, 1, 8
12, 147831, Control_c, 11, 1, 9
12, 147840, Control_c, 11, 11, 66
12, 147840, Control_c, 11, 1, 10
12, 147849, Control_c, 11, 1, 11
12, 147860, Control_c, 11, 1, 12
12, 147874, Control_c, 11, 1, 13
12, 147888, Control_c, 11, 11, 67
12, 147895, Control_c, 11, 1, 14
12, 147929, Control_c, 11, 1, 15
12, 147936, Control_c, 11, 11, 68
12, 147984, Control_c, 11, 11, 69
12, 148032, Control_c, 11, 11, 70
12, 148080, Control_c, 11, 11, 71
12, 148128, Control_c, 11, 11, 72
12, 148172, Note_on_c, 11, 62, 0
12, 148172, Note_on_c, 11, 50, 0
12, 148176, Control_c, 11, 1, 0
12, 148176, Note_on_c, 11, 50, 120
12, 148176, Note_on_c, 11, 62, 120
12, 148176, Control_c, 11, 11, 73
12, 148177, Control_c, 11, 1, 1
12, 148180, Control_c, 11, 1, 2
12, 148183, Control_c, 11, 1, 3
12, 148188, Control_c, 11, 1, 4
12, 148192, Control_c, 11, 1, 5
12, 148197, Control_c, 11, 1, 6
12, 148202, Control_c, 11, 1, 7
12, 148208, Control_c, 11, 1, 8
12, 148215, Control_c, 11, 1, 9
12, 148224, Control_c, 11, 11, 74
12, 148224, Control_c, 11, 1, 10
12, 148233, Control_c, 11, 1, 11
12, 148244, Control_c, 11, 1, 12
12, 148258, Control_c, 11, 1, 13
12, 148272, Control_c, 11, 11, 75
12, 148279, Control_c, 11, 1, 14
12, 148313, Control_c, 11, 1, 15
12, 148320, Control_c, 11, 11, 76
12, 148368, Control_c, 11, 11, 77
12, 148416, Control_c, 11, 11, 78
12, 148464, Control_c, 11, 11, 79
12, 148512, Control_c, 11, 11, 80
12, 148556, Note_on_c, 11, 62, 0
12, 148556, Note_on_c, 11, 50, 0
12, 148560, Control_c, 11, 1, 0
12, 148560, Note_on_c, 11, 50, 120
12, 148560, Note_on_c, 11, 62, 120
12, 148560, Control_c, 11, 11, 81
12, 148561, Control_c, 11, 1, 1
12, 148562, Control_c, 11, 1, 2
12, 148564, Control_c, 11, 1, 3
12, 148566, Control_c, 11, 1, 4
12, 148568, Control_c, 11, 1, 5
12, 148571, Control_c, 11, 1, 6
12, 148573, Control_c, 11, 1, 7
12, 148576, Control_c, 11, 1, 8
12, 148579, Control_c, 11, 1, 9
12, 148584, Control_c, 11, 1, 10
12, 148588, Control_c, 11, 1, 11
12, 148594, Control_c, 11, 1, 12
12, 148601, Control_c, 11, 1, 13
12, 148608, Control_c, 11, 11, 82
12, 148611, Control_c, 11, 1, 14
12, 148629, Control_c, 11, 1, 15
12, 148656, Control_c, 11, 11, 83
12, 148704, Control_c, 11, 11, 84
12, 148752, Control_c, 11, 11, 85
12, 148800, Control_c, 11, 11, 86
12, 148848, Control_c, 11, 11, 87
12, 148896, Control_c, 11, 11, 88
12, 148940, Note_on_c, 11, 62, 0
12, 148940, Note_on_c, 11, 50, 0
12, 148944, Control_c, 11, 1, 0
12, 148944, Note_on_c, 11, 50, 120
12, 148944, Note_on_c, 11, 62, 120
12, 148944, Control_c, 11, 11, 89
12, 148945, Control_c, 11, 1, 1
12, 148946, Control_c, 11, 1, 2
12, 148947, Control_c, 11, 1, 3
12, 148948, Control_c, 11, 1, 4
12, 148950, Control_c, 11, 1, 5
12, 148951, Control_c, 11, 1, 6
12, 148953, Control_c, 11, 1, 7
12, 148955, Control_c, 11, 1, 8
12, 148957, Control_c, 11, 1, 9
12, 148960, Control_c, 11, 1, 10
12, 148963, Control_c, 11, 1, 11
12, 148967, Control_c, 11, 1, 12
12, 148972, Control_c, 11, 1, 13
12, 148978, Control_c, 11, 1, 14
12, 148990, Control_c, 11, 1, 15
12, 148992, Control_c, 11, 11, 90
12, 149040, Control_c, 11, 11, 91
12, 149088, Control_c, 11, 11, 92
12, 149136, Control_c, 11, 11, 93
12, 149184, Control_c, 11, 11, 94
12, 149230, Note_on_c, 11, 62, 0
12, 149230, Note_on_c, 11, 50, 0
12, 149231, Control_c, 11, 11, 95
12, 149232, Control_c, 11, 1, 0
12, 149232, Note_on_c, 11, 50, 120
12, 149232, Note_on_c, 11, 62, 120
12, 149302, Note_on_c, 11, 62, 0
12, 149302, Note_on_c, 11, 50, 0
12, 149328, Note_on_c, 11, 50, 120
12, 149328, Note_on_c, 11, 62, 120
12, 149398, Note_on_c, 11, 62, 0
12, 149398, Note_on_c, 11, 50, 0
12, 149616, Control_c, 11, 11, 95
12, 149616, Note_on_c, 11, 50, 120
12, 149616, Note_on_c, 11, 62, 120
12, 149655, Control_c, 11, 11, 94
12, 149686, Note_on_c, 11, 62, 0
12, 149686, Note_on_c, 11, 50, 0
12, 149693, Control_c, 11, 11, 93
12, 149712, Note_on_c, 11, 50, 120
12, 149712, Note_on_c, 11, 62, 120
12, 149732, Control_c, 11, 11, 92
12, 149770, Control_c, 11, 11, 91
12, 149782, Note_on_c, 11, 62, 0
12, 149782, Note_on_c, 11, 50, 0
12, 149808, Control_c, 11, 11, 90
12, 149847, Control_c, 11, 11, 89
12, 149885, Control_c, 11, 11, 88
12, 149923, Control_c, 11, 11, 87
12, 149962, Control_c, 11, 11, 86
12, 150000, Note_on_c, 11, 50, 120
12, 150000, Note_on_c, 11, 62, 120
12, 150000, Control_c, 11, 11, 85
12, 150039, Control_c, 11, 11, 84
12, 150070, Note_on_c, 11, 62, 0
12, 150070, Note_on_c, 11, 50, 0
12, 150077, Control_c, 11, 11, 83
12, 150096, Note_on_c, 11, 50, 120
12, 150096, Note_on_c, 11, 62, 120
12, 150115, Control_c, 11, 11, 82
12, 150154, Control_c, 11, 11, 81
12, 150166, Note_on_c, 11, 62, 0
12, 150166, Note_on_c, 11, 50, 0
12, 150192, Control_c, 11, 11, 80
12, 150230, Control_c, 11, 11, 79
12, 150269, Control_c, 11, 11, 78
12, 150307, Control_c, 11, 11, 77
12, 150345, Control_c, 11, 11, 76
12, 150384, Note_on_c, 11, 50, 120
12, 150384, Note_on_c, 11, 62, 120
12, 150384, Control_c, 11, 11, 75
12, 150422, Control_c, 11, 11, 74
12, 150454, Note_on_c, 11, 62, 0
12, 150454, Note_on_c, 11, 50, 0
12, 150461, Control_c, 11, 11, 73
12, 150480, Note_on_c, 11, 50, 120
12, 150480, Note_on_c, 11, 62, 120
12, 150499, Control_c, 11, 11, 72
12, 150537, Control_c, 11, 11, 71
12, 150550, Note_on_c, 11, 62, 0
12, 150550, Note_on_c, 11, 50, 0
12, 150576, Control_c, 11, 11, 70
12, 150614, Control_c, 11, 11, 69
12, 150652, Control_c, 11, 11, 68
12, 150691, Control_c, 11, 11, 67
12, 150729, Control_c, 11, 11, 66
12, 150767, Control_c, 11, 11, 65
12, 150768, Control_c, 11, 1, 0
12, 150768, Control_c, 11, 11, 60
12, 150768, Note_on_c, 11, 50, 120
12, 150768, Note_on_c, 11, 62, 120
12, 150769, Control_c, 11, 1, 1
12, 150771, Control_c, 11, 1, 2
12, 150773, Control_c, 11, 1, 3
12, 150776, Control_c, 11, 1, 4
12, 150779, Control_c, 11, 1, 5
12, 150782, Control_c, 11, 1, 6
12, 150786, Control_c, 11, 1, 7
12, 150789, Control_c, 11, 1, 8
12, 150794, Control_c, 11, 1, 9
12, 150800, Control_c, 11, 1, 10
12, 150806, Control_c, 11, 1, 11
12, 150813, Control_c, 11, 1, 12
12, 150823, Control_c, 11, 1, 13
12, 150836, Control_c, 11, 1, 14
12, 150860, Control_c, 11, 1, 15
12, 152112, Control_c, 11, 11, 55
12, 152280, Note_on_c, 11, 62, 0
12, 152280, Note_on_c, 11, 50, 0
12, 152304, Control_c, 11, 7, 110
12, 152304, Control_c, 11, 11, 120
12, 153024, Control_c, 11, 1, 0
12, 153024, Program_c, 11, 60
12, 153024, Note_on_c, 11, 62, 110
12, 153059, Note_on_c, 11, 62, 0
12, 153096, Note_on_c, 11, 50, 100
12, 153108, Note_on_c, 11, 50, 0
12, 153120, Note_on_c, 11, 50, 100
12, 153144, Note_on_c, 11, 50, 0
12, 155184, Note_on_c, 11, 65, 50
12, 155208, Note_on_c, 11, 65, 0
12, 155328, Note_on_c, 11, 60, 50
12, 155352, Note_on_c, 11, 60, 0
12, 156192, Note_on_c, 11, 41, 50
12, 156192, Note_on_c, 11, 53, 50
12, 156216, Note_on_c, 11, 53, 0
12, 156216, Note_on_c, 11, 41, 0
12, 156336, Note_on_c, 11, 41, 50
12, 156336, Note_on_c, 11, 53, 50
12, 156360, Note_on_c, 11, 53, 0
12, 156360, Note_on_c, 11, 41, 0
12, 158304, Note_on_c, 11, 53, 50
12, 158304, Note_on_c, 11, 65, 50
12, 158328, Note_on_c, 11, 65, 0
12, 158328, Note_on_c, 11, 53, 0
12, 158496, Note_on_c, 11, 50, 55
12, 158496, Note_on_c, 11, 62, 55
12, 158520, Note_on_c, 11, 62, 0
12, 158520, Note_on_c, 11, 50, 0
12, 158592, Note_on_c, 11, 53, 50
12, 158592, Note_on_c, 11, 65, 50
12, 158616, Note_on_c, 11, 65, 0
12, 158616, Note_on_c, 11, 53, 0
12, 158784, Note_on_c, 11, 50, 55
12, 158784, Note_on_c, 11, 62, 55
12, 158808, Note_on_c, 11, 62, 0
12, 158808, Note_on_c, 11, 50, 0
12, 158880, Note_on_c, 11, 53, 58
12, 158880, Note_on_c, 11, 65, 58
12, 158904, Note_on_c, 11, 65, 0
12, 158904, Note_on_c, 11, 53, 0
12, 159072, Note_on_c, 11, 50, 65
12, 159072, Note_on_c, 11, 62, 65
12, 159096, Note_on_c, 11, 62, 0
12, 159096, Note_on_c, 11, 50, 0
12, 159168, Note_on_c, 11, 53, 68
12, 159168, Note_on_c, 11, 65, 68
12, 159192, Note_on_c, 11, 65, 0
12, 159192, Note_on_c, 11, 53, 0
12, 159360, Note_on_c, 11, 50, 75
12, 159360, Note_on_c, 11, 62, 75
12, 159384, Note_on_c, 11, 62, 0
12, 159384, Note_on_c, 11, 50, 0
12, 159456, Note_on_c, 11, 53, 78
12, 159456, Note_on_c, 11, 65, 78
12, 159480, Note_on_c, 11, 65, 0
12, 159480, Note_on_c, 11, 53, 0
12, 159648, Note_on_c, 11, 50, 85
12, 159648, Note_on_c, 11, 62, 85
12, 159672, Note_on_c, 11, 62, 0
12, 159672, Note_on_c, 11, 50, 0
12, 159744, Note_on_c, 11, 53, 88
12, 159744, Note_on_c, 11, 65, 88
12, 159768, Note_on_c, 11, 65, 0
12, 159768, Note_on_c, 11, 53, 0
12, 159936, Note_on_c, 11, 50, 95
12, 159936, Note_on_c, 11, 62, 95
12, 159960, Note_on_c, 11, 62, 0
12, 159960, Note_on_c, 11, 50, 0
12, 160032, Note_on_c, 11, 53, 98
12, 160032, Note_on_c, 11, 65, 98
12, 160056, Note_on_c, 11, 65, 0
12, 160056, Note_on_c, 11, 53, 0
12, 160128, Note_on_c, 11, 53, 102
12, 160128, Note_on_c, 11, 65, 102
12, 160152, Note_on_c, 11, 65, 0
12, 160152, Note_on_c, 11, 53, 0
12, 160368, Note_on_c, 11, 50, 115
12, 160368, Note_on_c, 11, 62, 115
12, 160392, Note_on_c, 11, 62, 0
12, 160392, Note_on_c, 11, 50, 0
12, 160416, Note_on_c, 11, 50, 110
12, 160416, Note_on_c, 11, 62, 110
12, 160440, Note_on_c, 11, 62, 0
12, 160440, Note_on_c, 11, 50, 0
12, 160464, Note_on_c, 11, 50, 110
12, 160464, Note_on_c, 11, 62, 110
12, 160488, Note_on_c, 11, 62, 0
12, 160488, Note_on_c, 11, 50, 0
12, 160512, Note_on_c, 11, 50, 115
12, 160512, Note_on_c, 11, 62, 115
12, 160536, Note_on_c, 11, 62, 0
12, 160536, Note_on_c, 11, 50, 0
12, 160560, Note_on_c, 11, 50, 110
12, 160560, Note_on_c, 11, 62, 110
12, 160584, Note_on_c, 11, 62, 0
12, 160584, Note_on_c, 11, 50, 0
12, 160608, Note_on_c, 11, 50, 110
12, 160608, Note_on_c, 11, 62, 110
12, 160632, Note_on_c, 11, 62, 0
12, 160632, Note_on_c, 11, 50, 0
12, 160800, Note_on_c, 11, 50, 115
12, 160800, Note_on_c, 11, 62, 115
12, 160824, Note_on_c, 11, 62, 0
12, 160824, Note_on_c, 11, 50, 0
12, 160848, Note_on_c, 11, 50, 110
12, 160848, Note_on_c, 11, 62, 110
12, 160872, Note_on_c, 11, 62, 0
12, 160872, Note_on_c, 11, 50, 0
12, 160896, Note_on_c, 11, 50, 110
12, 160896, Note_on_c, 11, 62, 110
12, 160920, Note_on_c, 11, 62, 0
12, 160920, Note_on_c, 11, 50, 0
12, 160944, Note_on_c, 11, 50, 115
12, 160944, Note_on_c, 11, 62, 115
12, 160968, Note_on_c, 11, 62, 0
12, 160968, Note_on_c, 11, 50, 0
12, 160992, Note_on_c, 11, 50, 110
12, 160992, Note_on_c, 11, 62, 110
12, 161016, Note_on_c, 11, 62, 0
12, 161016, Note_on_c, 11, 50, 0
12, 161040, Note_on_c, 11, 50, 110
12, 161040, Note_on_c, 11, 62, 110
12, 161064, Note_on_c, 11, 62, 0
12, 161064, Note_on_c, 11, 50, 0
12, 161088, Note_on_c, 11, 53, 115
12, 161088, Note_on_c, 11, 65, 115
12, 161112, Note_on_c, 11, 65, 0
12, 161112, Note_on_c, 11, 53, 0
12, 161136, Note_on_c, 11, 53, 110
12, 161136, Note_on_c, 11, 65, 110
12, 161160, Note_on_c, 11, 65, 0
12, 161160, Note_on_c, 11, 53, 0
12, 161184, Note_on_c, 11, 53, 110
12, 161184, Note_on_c, 11, 65, 110
12, 161208, Note_on_c, 11, 65, 0
12, 161208, Note_on_c, 11, 53, 0
12, 161376, Note_on_c, 11, 53, 115
12, 161376, Note_on_c, 11, 65, 115
12, 161400, Note_on_c, 11, 65, 0
12, 161400, Note_on_c, 11, 53, 0
12, 161472, Note_on_c, 11, 53, 110
12, 161472, Note_on_c, 11, 65, 110
12, 161496, Note_on_c, 11, 65, 0
12, 161496, Note_on_c, 11, 53, 0
12, 161520, Note_on_c, 11, 50, 115
12, 161520, Note_on_c, 11, 62, 115
12, 161544, Note_on_c, 11, 62, 0
12, 161544, Note_on_c, 11, 50, 0
12, 161568, Note_on_c, 11, 50, 110
12, 161568, Note_on_c, 11, 62, 110
12, 161592, Note_on_c, 11, 62, 0
12, 161592, Note_on_c, 11, 50, 0
12, 161616, Note_on_c, 11, 50, 110
12, 161616, Note_on_c, 11, 62, 110
12, 161640, Note_on_c, 11, 62, 0
12, 161640, Note_on_c, 11, 50, 0
12, 161664, Note_on_c, 11, 53, 115
12, 161664, Note_on_c, 11, 65, 115
12, 161688, Note_on_c, 11, 65, 0
12, 161688, Note_on_c, 11, 53, 0
12, 161712, Note_on_c, 11, 53, 110
12, 161712, Note_on_c, 11, 65, 110
12, 161736, Note_on_c, 11, 65, 0
12, 161736, Note_on_c, 11, 53, 0
12, 161760, Note_on_c, 11, 53, 110
12, 161760, Note_on_c, 11, 65, 110
12, 161784, Note_on_c, 11, 65, 0
12, 161784, Note_on_c, 11, 53, 0
12, 161952, Note_on_c, 11, 50, 115
12, 161952, Note_on_c, 11, 62, 115
12, 161976, Note_on_c, 11, 62, 0
12, 161976, Note_on_c, 11, 50, 0
12, 162000, Note_on_c, 11, 50, 110
12, 162000, Note_on_c, 11, 62, 110
12, 162024, Note_on_c, 11, 62, 0
12, 162024, Note_on_c, 11, 50, 0
12, 162048, Note_on_c, 11, 50, 110
12, 162048, Note_on_c, 11, 62, 110
12, 162072, Note_on_c, 11, 62, 0
12, 162072, Note_on_c, 11, 50, 0
12, 162096, Note_on_c, 11, 50, 115
12, 162096, Note_on_c, 11, 62, 115
12, 162120, Note_on_c, 11, 62, 0
12, 162120, Note_on_c, 11, 50, 0
12, 162144, Note_on_c, 11, 50, 110
12, 162144, Note_on_c, 11, 62, 110
12, 162168, Note_on_c, 11, 62, 0
12, 162168, Note_on_c, 11, 50, 0
12, 162192, Note_on_c, 11, 50, 110
12, 162192, Note_on_c, 11, 62, 110
12, 162216, Note_on_c, 11, 62, 0
12, 162216, Note_on_c, 11, 50, 0
12, 162240, Note_on_c, 11, 60, 110
12, 162264, Note_on_c, 11, 60, 0
12, 162576, Note_on_c, 11, 50, 110
12, 162576, Note_on_c, 11, 62, 110
12, 162600, Note_on_c, 11, 62, 0
12, 162600, Note_on_c, 11, 50, 0
12, 162624, Note_on_c, 11, 50, 110
12, 162624, Note_on_c, 11, 62, 110
12, 162648, Note_on_c, 11, 62, 0
12, 162648, Note_on_c, 11, 50, 0
12, 162672, Note_on_c, 11, 50, 115
12, 162672, Note_on_c, 11, 62, 115
12, 162696, Note_on_c, 11, 62, 0
12, 162696, Note_on_c, 11, 50, 0
12, 162720, Note_on_c, 11, 50, 110
12, 162720, Note_on_c, 11, 62, 110
12, 162744, Note_on_c, 11, 62, 0
12, 162744, Note_on_c, 11, 50, 0
12, 162768, Note_on_c, 11, 50, 110
12, 162768, Note_on_c, 11, 62, 110
12, 162792, Note_on_c, 11, 62, 0
12, 162792, Note_on_c, 11, 50, 0
12, 162816, Note_on_c, 11, 60, 110
12, 162840, Note_on_c, 11, 60, 0
12, 162960, Note_on_c, 11, 60, 110
12, 162984, Note_on_c, 11, 60, 0
12, 163104, Note_on_c, 11, 60, 110
12, 163128, Note_on_c, 11, 60, 0
12, 165552, Control_c, 11, 11, 113
12, 165552, Control_c, 11, 1, 0
12, 165552, Note_on_c, 11, 60, 110
12, 165553, Control_c, 11, 1, 1
12, 165554, Control_c, 11, 1, 2
12, 165556, Control_c, 11, 1, 3
12, 165558, Control_c, 11, 1, 4
12, 165560, Control_c, 11, 1, 5
12, 165563, Control_c, 11, 1, 6
12, 165565, Control_c, 11, 1, 7
12, 165568, Control_c, 11, 1, 8
12, 165571, Control_c, 11, 1, 9
12, 165573, Control_c, 11, 11, 114
12, 165576, Control_c, 11, 1, 10
12, 165580, Control_c, 11, 1, 11
12, 165586, Control_c, 11, 1, 12
12, 165593, Control_c, 11, 1, 13
12, 165593, Control_c, 11, 11, 115
12, 165603, Control_c, 11, 1, 14
12, 165614, Control_c, 11, 11, 116
12, 165621, Control_c, 11, 1, 15
12, 165634, Control_c, 11, 11, 117
12, 165655, Control_c, 11, 11, 118
12, 165675, Control_c, 11, 11, 119
12, 165695, Note_on_c, 11, 60, 0
12, 165695, Control_c, 11, 11, 120
12, 165696, Note_on_c, 11, 53, 115
12, 165696, Note_on_c, 11, 65, 115
12, 165720, Note_on_c, 11, 65, 0
12, 165720, Note_on_c, 11, 53, 0
12, 165792, Control_c, 11, 1, 0
12, 165792, Note_on_c, 11, 60, 110
12, 165816, Note_on_c, 11, 60, 0
12, 165840, Note_on_c, 11, 53, 115
12, 165840, Note_on_c, 11, 65, 115
12, 165864, Note_on_c, 11, 65, 0
12, 165864, Note_on_c, 11, 53, 0
12, 165936, Note_on_c, 11, 60, 110
12, 165960, Note_on_c, 11, 60, 0
12, 165984, Note_on_c, 11, 53, 115
12, 165984, Note_on_c, 11, 65, 115
12, 166008, Note_on_c, 11, 65, 0
12, 166008, Note_on_c, 11, 53, 0
12, 166080, Note_on_c, 11, 65, 110
12, 166104, Note_on_c, 11, 65, 0
12, 166128, Control_c, 11, 1, 0
12, 166128, Control_c, 11, 11, 113
12, 166128, Note_on_c, 11, 60, 110
12, 166129, Control_c, 11, 1, 1
12, 166130, Control_c, 11, 1, 2
12, 166132, Control_c, 11, 1, 3
12, 166134, Control_c, 11, 1, 4
12, 166136, Control_c, 11, 1, 5
12, 166139, Control_c, 11, 1, 6
12, 166141, Control_c, 11, 1, 7
12, 166144, Control_c, 11, 1, 8
12, 166147, Control_c, 11, 1, 9
12, 166149, Control_c, 11, 11, 114
12, 166152, Control_c, 11, 1, 10
12, 166156, Control_c, 11, 1, 11
12, 166162, Control_c, 11, 1, 12
12, 166169, Control_c, 11, 11, 115
12, 166169, Control_c, 11, 1, 13
12, 166179, Control_c, 11, 1, 14
12, 166190, Control_c, 11, 11, 116
12, 166197, Control_c, 11, 1, 15
12, 166210, Control_c, 11, 11, 117
12, 166231, Control_c, 11, 11, 118
12, 166251, Control_c, 11, 11, 119
12, 166271, Note_on_c, 11, 60, 0
12, 166271, Control_c, 11, 11, 120
12, 166272, Note_on_c, 11, 53, 115
12, 166272, Note_on_c, 11, 65, 115
12, 166296, Note_on_c, 11, 65, 0
12, 166296, Note_on_c, 11, 53, 0
12, 166368, Control_c, 11, 1, 0
12, 166368, Note_on_c, 11, 60, 110
12, 166392, Note_on_c, 11, 60, 0
12, 166416, Note_on_c, 11, 53, 115
12, 166416, Note_on_c, 11, 65, 115
12, 166440, Note_on_c, 11, 65, 0
12, 166440, Note_on_c, 11, 53, 0
12, 166512, Note_on_c, 11, 60, 110
12, 166536, Note_on_c, 11, 60, 0
12, 166560, Note_on_c, 11, 53, 115
12, 166560, Note_on_c, 11, 65, 115
12, 166584, Note_on_c, 11, 65, 0
12, 166584, Note_on_c, 11, 53, 0
12, 166656, Note_on_c, 11, 65, 110
12, 166680, Note_on_c, 11, 65, 0
12, 166704, Note_on_c, 11, 60, 115
12, 166728, Note_on_c, 11, 60, 0
12, 166752, Note_on_c, 11, 60, 110
12, 166776, Note_on_c, 11, 60, 0
12, 166800, Note_on_c, 11, 60, 110
12, 166824, Note_on_c, 11, 60, 0
12, 166848, Note_on_c, 11, 65, 115
12, 166872, Note_on_c, 11, 65, 0
12, 166896, Note_on_c, 11, 65, 110
12, 166920, Note_on_c, 11, 65, 0
12, 166944, Note_on_c, 11, 60, 110
12, 166968, Note_on_c, 11, 60, 0
12, 166992, Note_on_c, 11, 65, 115
12, 167016, Note_on_c, 11, 65, 0
12, 167040, Note_on_c, 11, 65, 110
12, 167064, Note_on_c, 11, 65, 0
12, 167088, Note_on_c, 11, 60, 110
12, 167112, Note_on_c, 11, 60, 0
12, 167136, Note_on_c, 11, 65, 115
12, 167160, Note_on_c, 11, 65, 0
12, 167184, Note_on_c, 11, 65, 110
12, 167208, Note_on_c, 11, 65, 0
12, 167232, Note_on_c, 11, 65, 110
12, 167256, Note_on_c, 11, 65, 0
12, 167280, Note_on_c, 11, 60, 115
12, 167304, Note_on_c, 11, 60, 0
12, 167328, Note_on_c, 11, 60, 110
12, 167352, Note_on_c, 11, 60, 0
12, 167376, Note_on_c, 11, 60, 110
12, 167400, Note_on_c, 11, 60, 0
12, 167424, Note_on_c, 11, 65, 115
12, 167448, Note_on_c, 11, 65, 0
12, 167472, Note_on_c, 11, 65, 110
12, 167496, Note_on_c, 11, 65, 0
12, 167520, Note_on_c, 11, 60, 110
12, 167544, Note_on_c, 11, 60, 0
12, 167568, Note_on_c, 11, 65, 115
12, 167592, Note_on_c, 11, 65, 0
12, 167616, Note_on_c, 11, 65, 110
12, 167640, Note_on_c, 11, 65, 0
12, 167664, Note_on_c, 11, 60, 110
12, 167688, Note_on_c, 11, 60, 0
12, 167712, Note_on_c, 11, 65, 115
12, 167736, Note_on_c, 11, 65, 0
12, 167760, Note_on_c, 11, 60, 110
12, 167784, Note_on_c, 11, 60, 0
12, 167808, Note_on_c, 11, 60, 110
12, 167832, Note_on_c, 11, 60, 0
12, 167856, Note_on_c, 11, 60, 120
12, 167891, Note_on_c, 11, 60, 0
12, 167928, Note_on_c, 11, 60, 113
12, 167940, Note_on_c, 11, 60, 0
12, 167952, Note_on_c, 11, 60, 113
12, 167976, Note_on_c, 11, 60, 0
12, 168000, Note_on_c, 11, 60, 113
12, 168024, Note_on_c, 11, 60, 0
12, 168144, Note_on_c, 11, 53, 120
12, 168144, Note_on_c, 11, 65, 120
12, 168179, Note_on_c, 11, 65, 0
12, 168179, Note_on_c, 11, 53, 0
12, 168216, Note_on_c, 11, 41, 113
12, 168216, Note_on_c, 11, 53, 113
12, 168228, Note_on_c, 11, 53, 0
12, 168228, Note_on_c, 11, 41, 0
12, 168240, Note_on_c, 11, 41, 113
12, 168240, Note_on_c, 11, 53, 113
12, 168264, Note_on_c, 11, 53, 0
12, 168264, Note_on_c, 11, 41, 0
12, 168288, Note_on_c, 11, 53, 113
12, 168288, Note_on_c, 11, 65, 113
12, 168312, Note_on_c, 11, 65, 0
12, 168312, Note_on_c, 11, 53, 0
12, 169008, Control_c, 11, 1, 0
12, 169008, Control_c, 11, 11, 50
12, 169008, Note_on_c, 11, 60, 100
12, 169009, Control_c, 11, 1, 1
12, 169010, Control_c, 11, 1, 2
12, 169012, Control_c, 11, 1, 3
12, 169014, Control_c, 11, 1, 4
12, 169016, Control_c, 11, 1, 5
12, 169019, Control_c, 11, 1, 6
12, 169021, Control_c, 11, 1, 7
12, 169024, Control_c, 11, 1, 8
12, 169027, Control_c, 11, 1, 9
12, 169032, Control_c, 11, 1, 10
12, 169036, Control_c, 11, 1, 11
12, 169042, Control_c, 11, 1, 12
12, 169049, Control_c, 11, 1, 13
12, 169059, Control_c, 11, 1, 14
12, 169077, Control_c, 11, 1, 15
12, 169296, Control_c, 11, 11, 50
12, 169306, Control_c, 11, 11, 51
12, 169316, Control_c, 11, 11, 52
12, 169325, Control_c, 11, 11, 53
12, 169335, Control_c, 11, 11, 54
12, 169344, Control_c, 11, 11, 55
12, 169354, Control_c, 11, 11, 56
12, 169363, Control_c, 11, 11, 57
12, 169373, Control_c, 11, 11, 58
12, 169383, Control_c, 11, 11, 59
12, 169392, Control_c, 11, 11, 60
12, 169402, Control_c, 11, 11, 61
12, 169411, Control_c, 11, 11, 62
12, 169421, Control_c, 11, 11, 63
12, 169430, Control_c, 11, 11, 64
12, 169440, Control_c, 11, 11, 65
12, 169450, Control_c, 11, 11, 66
12, 169459, Control_c, 11, 11, 67
12, 169469, Control_c, 11, 11, 68
12, 169478, Control_c, 11, 11, 69
12, 169488, Control_c, 11, 11, 70
12, 169497, Control_c, 11, 11, 71
12, 169507, Control_c, 11, 11, 72
12, 169517, Control_c, 11, 11, 73
12, 169526, Control_c, 11, 11, 74
12, 169536, Control_c, 11, 11, 75
12, 169545, Control_c, 11, 11, 76
12, 169555, Control_c, 11, 11, 77
12, 169564, Control_c, 11, 11, 78
12, 169574, Control_c, 11, 11, 79
12, 169583, Control_c, 11, 11, 80
12, 169584, Control_c, 11, 11, 80
12, 169594, Control_c, 11, 11, 79
12, 169604, Control_c, 11, 11, 78
12, 169613, Control_c, 11, 11, 77
12, 169623, Control_c, 11, 11, 76
12, 169632, Control_c, 11, 11, 75
12, 169642, Control_c, 11, 11, 74
12, 169651, Control_c, 11, 11, 73
12, 169661, Control_c, 11, 11, 72
12, 169671, Control_c, 11, 11, 71
12, 169680, Control_c, 11, 11, 70
12, 169690, Control_c, 11, 11, 69
12, 169699, Control_c, 11, 11, 68
12, 169709, Control_c, 11, 11, 67
12, 169718, Control_c, 11, 11, 66
12, 169728, Control_c, 11, 11, 65
12, 169738, Control_c, 11, 11, 64
12, 169747, Control_c, 11, 11, 63
12, 169757, Control_c, 11, 11, 62
12, 169766, Control_c, 11, 11, 61
12, 169776, Control_c, 11, 11, 60
12, 169785, Control_c, 11, 11, 59
12, 169795, Control_c, 11, 11, 58
12, 169805, Control_c, 11, 11, 57
12, 169814, Control_c, 11, 11, 56
12, 169824, Control_c, 11, 11, 55
12, 169833, Control_c, 11, 11, 54
12, 169843, Control_c, 11, 11, 53
12, 169852, Control_c, 11, 11, 52
12, 169862, Control_c, 11, 11, 51
12, 169871, Control_c, 11, 11, 50
12, 169873, Note_on_c, 11, 60, 0
12, 170304, Control_c, 11, 1, 0
12, 170448, Control_c, 11, 11, 120
12, 170448, Note_on_c, 11, 60, 105
12, 170472, Note_on_c, 11, 60, 0
12, 170496, Note_on_c, 11, 60, 100
12, 170520, Note_on_c, 11, 60, 0
12, 170544, Note_on_c, 11, 60, 100
12, 170568, Note_on_c, 11, 60, 0
12, 170592, Note_on_c, 11, 50, 105
12, 170592, Note_on_c, 11, 62, 105
12, 170616, Note_on_c, 11, 62, 0
12, 170616, Note_on_c, 11, 50, 0
12, 170640, Note_on_c, 11, 50, 100
12, 170640, Note_on_c, 11, 62, 100
12, 170664, Note_on_c, 11, 62, 0
12, 170664, Note_on_c, 11, 50, 0
12, 170688, Note_on_c, 11, 50, 100
12, 170688, Note_on_c, 11, 62, 100
12, 170712, Note_on_c, 11, 62, 0
12, 170712, Note_on_c, 11, 50, 0
12, 170736, Note_on_c, 11, 60, 100
12, 170760, Note_on_c, 11, 60, 0
12, 171024, Note_on_c, 11, 60, 105
12, 171048, Note_on_c, 11, 60, 0
12, 171072, Note_on_c, 11, 60, 100
12, 171096, Note_on_c, 11, 60, 0
12, 171120, Note_on_c, 11, 60, 100
12, 171144, Note_on_c, 11, 60, 0
12, 171168, Note_on_c, 11, 50, 105
12, 171168, Note_on_c, 11, 62, 105
12, 171192, Note_on_c, 11, 62, 0
12, 171192, Note_on_c, 11, 50, 0
12, 171216, Note_on_c, 11, 50, 100
12, 171216, Note_on_c, 11, 62, 100
12, 171240, Note_on_c, 11, 62, 0
12, 171240, Note_on_c, 11, 50, 0
12, 171264, Note_on_c, 11, 50, 100
12, 171264, Note_on_c, 11, 62, 100
12, 171288, Note_on_c, 11, 62, 0
12, 171288, Note_on_c, 11, 50, 0
12, 171312, Note_on_c, 11, 60, 100
12, 171336, Note_on_c, 11, 60, 0
12, 171600, Note_on_c, 11, 60, 100
12, 171624, Note_on_c, 11, 60, 0
12, 171888, Note_on_c, 11, 60, 100
12, 171912, Note_on_c, 11, 60, 0
12, 173040, Note_on_c, 11, 53, 55
12, 173075, Note_on_c, 11, 53, 0
12, 173112, Note_on_c, 11, 53, 50
12, 173124, Note_on_c, 11, 53, 0
12, 173136, Note_on_c, 11, 53, 50
12, 173160, Note_on_c, 11, 53, 0
12, 173184, Note_on_c, 11, 50, 50
12, 173208, Note_on_c, 11, 50, 0
12, 174192, Note_on_c, 11, 46, 60
12, 174192, Note_on_c, 11, 58, 60
12, 174227, Note_on_c, 11, 58, 0
12, 174227, Note_on_c, 11, 46, 0
12, 174264, Note_on_c, 11, 46, 50
12, 174264, Note_on_c, 11, 58, 50
12, 174276, Note_on_c, 11, 58, 0
12, 174276, Note_on_c, 11, 46, 0
12, 174288, Note_on_c, 11, 46, 50
12, 174288, Note_on_c, 11, 58, 50
12, 174312, Note_on_c, 11, 58, 0
12, 174312, Note_on_c, 11, 46, 0
12, 174336, Note_on_c, 11, 46, 50
12, 174336, Note_on_c, 11, 58, 50
12, 174360, Note_on_c, 11, 58, 0
12, 174360, Note_on_c, 11, 46, 0
12, 175056, Note_on_c, 11, 63, 60
12, 175091, Note_on_c, 11, 63, 0
12, 175128, Note_on_c, 11, 63, 61
12, 175140, Note_on_c, 11, 63, 0
12, 175152, Note_on_c, 11, 63, 61
12, 175176, Note_on_c, 11, 63, 0
12, 175200, Note_on_c, 11, 63, 62
12, 175224, Note_on_c, 11, 63, 0
12, 175344, Note_on_c, 11, 60, 64
12, 175344, Note_on_c, 11, 63, 64
12, 175379, Note_on_c, 11, 63, 0
12, 175379, Note_on_c, 11, 60, 0
12, 175416, Note_on_c, 11, 60, 65
12, 175416, Note_on_c, 11, 63, 65
12, 175428, Note_on_c, 11, 63, 0
12, 175428, Note_on_c, 11, 60, 0
12, 175440, Note_on_c, 11, 60, 66
12, 175440, Note_on_c, 11, 63, 66
12, 175464, Note_on_c, 11, 63, 0
12, 175464, Note_on_c, 11, 60, 0
12, 175488, Note_on_c, 11, 60, 66
12, 175488, Note_on_c, 11, 65, 66
12, 175512, Note_on_c, 11, 65, 0
12, 175512, Note_on_c, 11, 60, 0
12, 175632, Note_on_c, 11, 53, 69
12, 175632, Note_on_c, 11, 65, 69
12, 175667, Note_on_c, 11, 65, 0
12, 175667, Note_on_c, 11, 53, 0
12, 175704, Note_on_c, 11, 53, 70
12, 175704, Note_on_c, 11, 65, 70
12, 175716, Note_on_c, 11, 65, 0
12, 175716, Note_on_c, 11, 53, 0
12, 175728, Note_on_c, 11, 53, 70
12, 175728, Note_on_c, 11, 65, 70
12, 175752, Note_on_c, 11, 65, 0
12, 175752, Note_on_c, 11, 53, 0
12, 175776, Note_on_c, 11, 53, 71
12, 175776, Note_on_c, 11, 65, 71
12, 175800, Note_on_c, 11, 65, 0
12, 175800, Note_on_c, 11, 53, 0
12, 176064, Note_on_c, 11, 63, 75
12, 176099, Note_on_c, 11, 63, 0
12, 176136, Note_on_c, 11, 63, 76
12, 176148, Note_on_c, 11, 63, 0
12, 176160, Note_on_c, 11, 63, 77
12, 176184, Note_on_c, 11, 63, 0
12, 176208, Note_on_c, 11, 63, 78
12, 176243, Note_on_c, 11, 63, 0
12, 176280, Note_on_c, 11, 63, 79
12, 176292, Note_on_c, 11, 63, 0
12, 176304, Note_on_c, 11, 63, 79
12, 176328, Note_on_c, 11, 63, 0
12, 176352, Note_on_c, 11, 63, 80
12, 176376, Note_on_c, 11, 63, 0
12, 177072, Note_on_c, 11, 58, 113
12, 177107, Note_on_c, 11, 58, 0
12, 177144, Note_on_c, 11, 46, 113
12, 177144, Note_on_c, 11, 58, 113
12, 177156, Note_on_c, 11, 58, 0
12, 177156, Note_on_c, 11, 46, 0
12, 177168, Note_on_c, 11, 46, 113
12, 177168, Note_on_c, 11, 58, 113
12, 177192, Note_on_c, 11, 58, 0
12, 177192, Note_on_c, 11, 46, 0
12, 180432, Note_on_c, 11, 53, 65
12, 180432, Note_on_c, 11, 65, 65
12, 180456, Note_on_c, 11, 65, 0
12, 180456, Note_on_c, 11, 53, 0
12, 180480, Note_on_c, 11, 53, 60
12, 180480, Note_on_c, 11, 65, 60
12, 180504, Note_on_c, 11, 65, 0
12, 180504, Note_on_c, 11, 53, 0
12, 180528, Note_on_c, 11, 53, 60
12, 180528, Note_on_c, 11, 65, 60
12, 180552, Note_on_c, 11, 65, 0
12, 180552, Note_on_c, 11, 53, 0
12, 180576, Note_on_c, 11, 53, 65
12, 180576, Note_on_c, 11, 65, 65
12, 180600, Note_on_c, 11, 65, 0
12, 180600, Note_on_c, 11, 53, 0
12, 180624, Note_on_c, 11, 53, 60
12, 180624, Note_on_c, 11, 65, 60
12, 180648, Note_on_c, 11, 65, 0
12, 180648, Note_on_c, 11, 53, 0
12, 180672, Note_on_c, 11, 53, 60
12, 180672, Note_on_c, 11, 65, 60
12, 180696, Note_on_c, 11, 65, 0
12, 180696, Note_on_c, 11, 53, 0
12, 180864, Note_on_c, 11, 53, 65
12, 180864, Note_on_c, 11, 65, 65
12, 180888, Note_on_c, 11, 65, 0
12, 180888, Note_on_c, 11, 53, 0
12, 180912, Note_on_c, 11, 60, 60
12, 180936, Note_on_c, 11, 60, 0
12, 180960, Note_on_c, 11, 60, 60
12, 180984, Note_on_c, 11, 60, 0
12, 181008, Note_on_c, 11, 60, 65
12, 181032, Note_on_c, 11, 60, 0
12, 181056, Note_on_c, 11, 60, 60
12, 181080, Note_on_c, 11, 60, 0
12, 181104, Note_on_c, 11, 60, 60
12, 181128, Note_on_c, 11, 60, 0
12, 181296, Note_on_c, 11, 53, 65
12, 181296, Note_on_c, 11, 65, 65
12, 181320, Note_on_c, 11, 65, 0
12, 181320, Note_on_c, 11, 53, 0
12, 181344, Note_on_c, 11, 53, 60
12, 181344, Note_on_c, 11, 65, 60
12, 181368, Note_on_c, 11, 65, 0
12, 181368, Note_on_c, 11, 53, 0
12, 181392, Note_on_c, 11, 53, 60
12, 181392, Note_on_c, 11, 65, 60
12, 181416, Note_on_c, 11, 65, 0
12, 181416, Note_on_c, 11, 53, 0
12, 181440, Note_on_c, 11, 53, 65
12, 181440, Note_on_c, 11, 65, 65
12, 181464, Note_on_c, 11, 65, 0
12, 181464, Note_on_c, 11, 53, 0
12, 181488, Note_on_c, 11, 53, 60
12, 181488, Note_on_c, 11, 65, 60
12, 181512, Note_on_c, 11, 65, 0
12, 181512, Note_on_c, 11, 53, 0
12, 181536, Note_on_c, 11, 53, 60
12, 181536, Note_on_c, 11, 65, 60
12, 181560, Note_on_c, 11, 65, 0
12, 181560, Note_on_c, 11, 53, 0
12, 181728, Note_on_c, 11, 53, 65
12, 181728, Note_on_c, 11, 65, 65
12, 181752, Note_on_c, 11, 65, 0
12, 181752, Note_on_c, 11, 53, 0
12, 181776, Note_on_c, 11, 60, 60
12, 181800, Note_on_c, 11, 60, 0
12, 181824, Note_on_c, 11, 60, 60
12, 181848, Note_on_c, 11, 60, 0
12, 181872, Note_on_c, 11, 60, 65
12, 181896, Note_on_c, 11, 60, 0
12, 181920, Note_on_c, 11, 60, 60
12, 181944, Note_on_c, 11, 60, 0
12, 181968, Note_on_c, 11, 60, 60
12, 181992, Note_on_c, 11, 60, 0
12, 182016, Note_on_c, 11, 53, 65
12, 182016, Note_on_c, 11, 65, 65
12, 182040, Note_on_c, 11, 65, 0
12, 182040, Note_on_c, 11, 53, 0
12, 182064, Note_on_c, 11, 53, 60
12, 182064, Note_on_c, 11, 65, 60
12, 182088, Note_on_c, 11, 65, 0
12, 182088, Note_on_c, 11, 53, 0
12, 182112, Note_on_c, 11, 53, 60
12, 182112, Note_on_c, 11, 65, 60
12, 182136, Note_on_c, 11, 65, 0
12, 182136, Note_on_c, 11, 53, 0
12, 182160, Note_on_c, 11, 53, 65
12, 182160, Note_on_c, 11, 65, 65
12, 182184, Note_on_c, 11, 65, 0
12, 182184, Note_on_c, 11, 53, 0
12, 182208, Note_on_c, 11, 53, 60
12, 182208, Note_on_c, 11, 65, 60
12, 182232, Note_on_c, 11, 65, 0
12, 182232, Note_on_c, 11, 53, 0
12, 182256, Note_on_c, 11, 53, 60
12, 182256, Note_on_c, 11, 65, 60
12, 182280, Note_on_c, 11, 65, 0
12, 182280, Note_on_c, 11, 53, 0
12, 182304, Note_on_c, 11, 53, 65
12, 182304, Note_on_c, 11, 65, 65
12, 182328, Note_on_c, 11, 65, 0
12, 182328, Note_on_c, 11, 53, 0
12, 182352, Note_on_c, 11, 53, 60
12, 182352, Note_on_c, 11, 65, 60
12, 182376, Note_on_c, 11, 65, 0
12, 182376, Note_on_c, 11, 53, 0
12, 182400, Note_on_c, 11, 53, 60
12, 182400, Note_on_c, 11, 65, 60
12, 182424, Note_on_c, 11, 65, 0
12, 182424, Note_on_c, 11, 53, 0
12, 182880, Note_on_c, 11, 50, 55
12, 182880, Note_on_c, 11, 62, 55
12, 182904, Note_on_c, 11, 62, 0
12, 182904, Note_on_c, 11, 50, 0
12, 182928, Note_on_c, 11, 50, 50
12, 182928, Note_on_c, 11, 62, 50
12, 182952, Note_on_c, 11, 62, 0
12, 182952, Note_on_c, 11, 50, 0
12, 182976, Note_on_c, 11, 50, 50
12, 182976, Note_on_c, 11, 62, 50
12, 183000, Note_on_c, 11, 62, 0
12, 183000, Note_on_c, 11, 50, 0
12, 183024, Note_on_c, 11, 50, 55
12, 183024, Note_on_c, 11, 62, 55
12, 183048, Note_on_c, 11, 62, 0
12, 183048, Note_on_c, 11, 50, 0
12, 183072, Note_on_c, 11, 50, 50
12, 183072, Note_on_c, 11, 62, 50
12, 183096, Note_on_c, 11, 62, 0
12, 183096, Note_on_c, 11, 50, 0
12, 183120, Note_on_c, 11, 50, 50
12, 183120, Note_on_c, 11, 62, 50
12, 183144, Note_on_c, 11, 62, 0
12, 183144, Note_on_c, 11, 50, 0
12, 183168, Note_on_c, 11, 50, 55
12, 183168, Note_on_c, 11, 62, 55
12, 183192, Note_on_c, 11, 62, 0
12, 183192, Note_on_c, 11, 50, 0
12, 183216, Note_on_c, 11, 50, 50
12, 183216, Note_on_c, 11, 62, 50
12, 183240, Note_on_c, 11, 62, 0
12, 183240, Note_on_c, 11, 50, 0
12, 183264, Note_on_c, 11, 50, 50
12, 183264, Note_on_c, 11, 62, 50
12, 183288, Note_on_c, 11, 62, 0
12, 183288, Note_on_c, 11, 50, 0
12, 187200, Note_on_c, 11, 58, 60
12, 187235, Note_on_c, 11, 58, 0
12, 187272, Note_on_c, 11, 46, 55
12, 187284, Note_on_c, 11, 46, 0
12, 187296, Note_on_c, 11, 46, 55
12, 187320, Note_on_c, 11, 46, 0
12, 187488, Note_on_c, 11, 58, 60
12, 187523, Note_on_c, 11, 58, 0
12, 187560, Note_on_c, 11, 46, 55
12, 187572, Note_on_c, 11, 46, 0
12, 187584, Note_on_c, 11, 46, 55
12, 187608, Note_on_c, 11, 46, 0
12, 187776, Note_on_c, 11, 58, 60
12, 187811, Note_on_c, 11, 58, 0
12, 187848, Note_on_c, 11, 46, 55
12, 187860, Note_on_c, 11, 46, 0
12, 187872, Note_on_c, 11, 46, 55
12, 187896, Note_on_c, 11, 46, 0
12, 188064, Note_on_c, 11, 58, 60
12, 188099, Note_on_c, 11, 58, 0
12, 188136, Note_on_c, 11, 46, 55
12, 188148, Note_on_c, 11, 46, 0
12, 188160, Note_on_c, 11, 46, 55
12, 188184, Note_on_c, 11, 46, 0
12, 188352, Note_on_c, 11, 65, 60
12, 188387, Note_on_c, 11, 65, 0
12, 188424, Note_on_c, 11, 53, 55
12, 188436, Note_on_c, 11, 53, 0
12, 188448, Note_on_c, 11, 53, 55
12, 188472, Note_on_c, 11, 53, 0
12, 188496, Note_on_c, 11, 58, 60
12, 188531, Note_on_c, 11, 58, 0
12, 188568, Note_on_c, 11, 46, 55
12, 188580, Note_on_c, 11, 46, 0
12, 188592, Note_on_c, 11, 46, 55
12, 188616, Note_on_c, 11, 46, 0
12, 188640, Note_on_c, 11, 58, 60
12, 188675, Note_on_c, 11, 58, 0
12, 188712, Note_on_c, 11, 46, 55
12, 188724, Note_on_c, 11, 46, 0
12, 188736, Note_on_c, 11, 46, 55
12, 188760, Note_on_c, 11, 46, 0
12, 188784, Note_on_c, 11, 58, 60
12, 188819, Note_on_c, 11, 58, 0
12, 188856, Note_on_c, 11, 46, 55
12, 188868, Note_on_c, 11, 46, 0
12, 188880, Note_on_c, 11, 46, 55
12, 188904, Note_on_c, 11, 46, 0
12, 188928, Note_on_c, 11, 58, 60
12, 188963, Note_on_c, 11, 58, 0
12, 189000, Note_on_c, 11, 46, 55
12, 189012, Note_on_c, 11, 46, 0
12, 189024, Note_on_c, 11, 46, 55
12, 189048, Note_on_c, 11, 46, 0
12, 189216, Note_on_c, 11, 58, 50
12, 189251, Note_on_c, 11, 58, 0
12, 189288, Note_on_c, 11, 46, 53
12, 189300, Note_on_c, 11, 46, 0
12, 189312, Note_on_c, 11, 46, 54
12, 189336, Note_on_c, 11, 46, 0
12, 189504, Note_on_c, 11, 65, 63
12, 189539, Note_on_c, 11, 65, 0
12, 189576, Note_on_c, 11, 53, 66
12, 189588, Note_on_c, 11, 53, 0
12, 189600, Note_on_c, 11, 53, 68
12, 189624, Note_on_c, 11, 53, 0
12, 190080, Note_on_c, 11, 65, 90
12, 190115, Note_on_c, 11, 65, 0
12, 190152, Note_on_c, 11, 53, 93
12, 190164, Note_on_c, 11, 53, 0
12, 190176, Note_on_c, 11, 53, 95
12, 190200, Note_on_c, 11, 53, 0
12, 190224, Note_on_c, 11, 65, 120
12, 190248, Note_on_c, 11, 65, 0
12, 190296, Note_on_c, 11, 53, 110
12, 190308, Note_on_c, 11, 53, 0
12, 190320, Note_on_c, 11, 53, 110
12, 190344, Note_on_c, 11, 53, 0
12, 190368, Note_on_c, 11, 65, 120
12, 190392, Note_on_c, 11, 65, 0
12, 190440, Note_on_c, 11, 53, 110
12, 190452, Note_on_c, 11, 53, 0
12, 190464, Note_on_c, 11, 53, 110
12, 190488, Note_on_c, 11, 53, 0
12, 190512, Note_on_c, 11, 65, 120
12, 190536, Note_on_c, 11, 65, 0
12, 190584, Note_on_c, 11, 53, 110
12, 190596, Note_on_c, 11, 53, 0
12, 190608, Note_on_c, 11, 53, 110
12, 190632, Note_on_c, 11, 53, 0
12, 190656, Note_on_c, 11, 65, 120
12, 190680, Note_on_c, 11, 65, 0
12, 190728, Note_on_c, 11, 53, 110
12, 190740, Note_on_c, 11, 53, 0
12, 190752, Note_on_c, 11, 53, 110
12, 190776, Note_on_c, 11, 53, 0
12, 190800, Note_on_c, 11, 65, 120
12, 190824, Note_on_c, 11, 65, 0
12, 190872, Note_on_c, 11, 53, 110
12, 190884, Note_on_c, 11, 53, 0
12, 190896, Note_on_c, 11, 53, 110
12, 190920, Note_on_c, 11, 53, 0
12, 190944, Note_on_c, 11, 65, 120
12, 190968, Note_on_c, 11, 65, 0
12, 191016, Note_on_c, 11, 53, 110
12, 191028, Note_on_c, 11, 53, 0
12, 191040, Note_on_c, 11, 53, 110
12, 191064, Note_on_c, 11, 53, 0
12, 191088, Note_on_c, 11, 65, 120
12, 191112, Note_on_c, 11, 65, 0
12, 191160, Note_on_c, 11, 53, 110
12, 191172, Note_on_c, 11, 53, 0
12, 191184, Note_on_c, 11, 53, 110
12, 191208, Note_on_c, 11, 53, 0
12, 191232, Note_on_c, 11, 65, 120
12, 191256, Note_on_c, 11, 65, 0
12, 191304, Note_on_c, 11, 53, 110
12, 191316, Note_on_c, 11, 53, 0
12, 191328, Note_on_c, 11, 53, 110
12, 191352, Note_on_c, 11, 53, 0
12, 191376, Note_on_c, 11, 65, 120
12, 191400, Note_on_c, 11, 65, 0
12, 191448, Note_on_c, 11, 53, 110
12, 191460, Note_on_c, 11, 53, 0
12, 191472, Note_on_c, 11, 53, 110
12, 191496, Note_on_c, 11, 53, 0
12, 191520, Note_on_c, 11, 65, 120
12, 191544, Note_on_c, 11, 65, 0
12, 191592, Note_on_c, 11, 53, 110
12, 191604, Note_on_c, 11, 53, 0
12, 191616, Note_on_c, 11, 53, 110
12, 191640, Note_on_c, 11, 53, 0
12, 191664, Note_on_c, 11, 65, 120
12, 191688, Note_on_c, 11, 65, 0
12, 191736, Note_on_c, 11, 53, 110
12, 191748, Note_on_c, 11, 53, 0
12, 191760, Note_on_c, 11, 53, 110
12, 191784, Note_on_c, 11, 53, 0
12, 191808, Note_on_c, 11, 65, 120
12, 191832, Note_on_c, 11, 65, 0
12, 191880, Note_on_c, 11, 53, 110
12, 191892, Note_on_c, 11, 53, 0
12, 191904, Note_on_c, 11, 53, 110
12, 191928, Note_on_c, 11, 53, 0
12, 191952, Note_on_c, 11, 65, 120
12, 191976, Note_on_c, 11, 65, 0
12, 192024, Note_on_c, 11, 53, 110
12, 192036, Note_on_c, 11, 53, 0
12, 192048, Note_on_c, 11, 53, 110
12, 192072, Note_on_c, 11, 53, 0
12, 192096, Note_on_c, 11, 65, 120
12, 192120, Note_on_c, 11, 65, 0
12, 192168, Note_on_c, 11, 53, 110
12, 192180, Note_on_c, 11, 53, 0
12, 192192, Note_on_c, 11, 53, 110
12, 192216, Note_on_c, 11, 53, 0
12, 192240, Note_on_c, 11, 65, 120
12, 192264, Note_on_c, 11, 65, 0
12, 192312, Note_on_c, 11, 53, 110
12, 192324, Note_on_c, 11, 53, 0
12, 192336, Note_on_c, 11, 53, 110
12, 192360, Note_on_c, 11, 53, 0
12, 192384, Note_on_c, 11, 65, 120
12, 192408, Note_on_c, 11, 65, 0
12, 192456, Note_on_c, 11, 53, 110
12, 192468, Note_on_c, 11, 53, 0
12, 192480, Note_on_c, 11, 53, 110
12, 192504, Note_on_c, 11, 53, 0
12, 192528, Note_on_c, 11, 65, 120
12, 192552, Note_on_c, 11, 65, 0
12, 192600, Note_on_c, 11, 53, 110
12, 192612, Note_on_c, 11, 53, 0
12, 192624, Note_on_c, 11, 53, 110
12, 192648, Note_on_c, 11, 53, 0
12, 192672, Note_on_c, 11, 65, 120
12, 192696, Note_on_c, 11, 65, 0
12, 192744, Note_on_c, 11, 53, 110
12, 192756, Note_on_c, 11, 53, 0
12, 192768, Note_on_c, 11, 53, 110
12, 192792, Note_on_c, 11, 53, 0
12, 192816, Note_on_c, 11, 65, 120
12, 192840, Note_on_c, 11, 65, 0
12, 192888, Note_on_c, 11, 53, 110
12, 192900, Note_on_c, 11, 53, 0
12, 192912, Note_on_c, 11, 53, 110
12, 192936, Note_on_c, 11, 53, 0
12, 192960, Note_on_c, 11, 65, 120
12, 192984, Note_on_c, 11, 65, 0
12, 193032, Note_on_c, 11, 53, 110
12, 193044, Note_on_c, 11, 53, 0
12, 193056, Note_on_c, 11, 53, 110
12, 193080, Note_on_c, 11, 53, 0
12, 193824, Note_on_c, 11, 58, 110
12, 193848, Note_on_c, 11, 58, 0
12, 193896, Note_on_c, 11, 46, 100
12, 193908, Note_on_c, 11, 46, 0
12, 193920, Note_on_c, 11, 46, 100
12, 193944, Note_on_c, 11, 46, 0
12, 193968, Note_on_c, 11, 65, 110
12, 193992, Note_on_c, 11, 65, 0
12, 194040, Note_on_c, 11, 53, 100
12, 194052, Note_on_c, 11, 53, 0
12, 194064, Note_on_c, 11, 53, 100
12, 194088, Note_on_c, 11, 53, 0
12, 194112, Note_on_c, 11, 65, 110
12, 194136, Note_on_c, 11, 65, 0
12, 194184, Note_on_c, 11, 53, 100
12, 194196, Note_on_c, 11, 53, 0
12, 194208, Note_on_c, 11, 53, 100
12, 194232, Note_on_c, 11, 53, 0
12, 194256, Note_on_c, 11, 65, 110
12, 194280, Note_on_c, 11, 65, 0
12, 194328, Note_on_c, 11, 53, 100
12, 194340, Note_on_c, 11, 53, 0
12, 194352, Note_on_c, 11, 53, 100
12, 194376, Note_on_c, 11, 53, 0
12, 194400, Note_on_c, 11, 65, 110
12, 194424, Note_on_c, 11, 65, 0
12, 194472, Note_on_c, 11, 53, 100
12, 194484, Note_on_c, 11, 53, 0
12, 194496, Note_on_c, 11, 53, 100
12, 194520, Note_on_c, 11, 53, 0
12, 194544, Note_on_c, 11, 65, 110
12, 194568, Note_on_c, 11, 65, 0
12, 194616, Note_on_c, 11, 53, 100
12, 194628, Note_on_c, 11, 53, 0
12, 194640, Note_on_c, 11, 53, 100
12, 194664, Note_on_c, 11, 53, 0
12, 194688, Note_on_c, 11, 65, 110
12, 194712, Note_on_c, 11, 65, 0
12, 194760, Note_on_c, 11, 53, 100
12, 194772, Note_on_c, 11, 53, 0
12, 194784, Note_on_c, 11, 53, 100
12, 194808, Note_on_c, 11, 53, 0
12, 194832, Note_on_c, 11, 46, 100
12, 194832, Note_on_c, 11, 58, 100
12, 194856, Note_on_c, 11, 58, 0
12, 194856, Note_on_c, 11, 46, 0
12, 195264, Control_c, 11, 1, 0
12, 195264, Control_c, 11, 11, 60
12, 195264, Note_on_c, 11, 63, 100
12, 195265, Control_c, 11, 1, 1
12, 195266, Control_c, 11, 1, 2
12, 195268, Control_c, 11, 1, 3
12, 195270, Control_c, 11, 1, 4
12, 195272, Control_c, 11, 1, 5
12, 195275, Control_c, 11, 1, 6
12, 195277, Control_c, 11, 1, 7
12, 195279, Control_c, 11, 11, 61
12, 195280, Control_c, 11, 1, 8
12, 195283, Control_c, 11, 1, 9
12, 195288, Control_c, 11, 1, 10
12, 195292, Control_c, 11, 1, 11
12, 195293, Control_c, 11, 11, 62
12, 195298, Control_c, 11, 1, 12
12, 195305, Control_c, 11, 1, 13
12, 195308, Control_c, 11, 11, 63
12, 195315, Control_c, 11, 1, 14
12, 195322, Control_c, 11, 11, 64
12, 195333, Control_c, 11, 1, 15
12, 195336, Control_c, 11, 11, 65
12, 195351, Control_c, 11, 11, 66
12, 195365, Control_c, 11, 11, 67
12, 195379, Control_c, 11, 11, 68
12, 195394, Control_c, 11, 11, 69
12, 195408, Note_on_c, 11, 60, 100
12, 195408, Control_c, 11, 11, 70
12, 195423, Control_c, 11, 11, 71
12, 195437, Control_c, 11, 11, 72
12, 195451, Control_c, 11, 11, 73
12, 195466, Control_c, 11, 11, 74
12, 195480, Control_c, 11, 11, 75
12, 195494, Control_c, 11, 11, 76
12, 195509, Control_c, 11, 11, 77
12, 195523, Control_c, 11, 11, 78
12, 195537, Control_c, 11, 11, 79
12, 195552, Note_on_c, 11, 58, 100
12, 195552, Note_on_c, 11, 62, 100
12, 195552, Control_c, 11, 11, 80
12, 195553, Note_on_c, 11, 63, 0
12, 195553, Note_on_c, 11, 60, 0
12, 195566, Control_c, 11, 11, 81
12, 195581, Control_c, 11, 11, 82
12, 195595, Control_c, 11, 11, 83
12, 195609, Control_c, 11, 11, 84
12, 195624, Control_c, 11, 11, 85
12, 195638, Control_c, 11, 11, 86
12, 195652, Control_c, 11, 11, 87
12, 195667, Control_c, 11, 11, 88
12, 195681, Control_c, 11, 11, 89
12, 195695, Control_c, 11, 11, 90
12, 195696, Control_c, 11, 11, 90
12, 195696, Note_on_c, 11, 65, 100
12, 195697, Note_on_c, 11, 62, 0
12, 195706, Control_c, 11, 11, 89
12, 195716, Control_c, 11, 11, 88
12, 195725, Control_c, 11, 11, 87
12, 195735, Control_c, 11, 11, 86
12, 195744, Control_c, 11, 11, 85
12, 195754, Control_c, 11, 11, 84
12, 195763, Control_c, 11, 11, 83
12, 195773, Control_c, 11, 11, 82
12, 195783, Control_c, 11, 11, 81
12, 195792, Control_c, 11, 11, 80
12, 195802, Control_c, 11, 11, 79
12, 195811, Control_c, 11, 11, 78
12, 195821, Control_c, 11, 11, 77
12, 195830, Control_c, 11, 11, 76
12, 195840, Note_on_c, 11, 53, 100
12, 195840, Control_c, 11, 11, 75
12, 195841, Note_on_c, 11, 58, 0
12, 195850, Control_c, 11, 11, 74
12, 195859, Control_c, 11, 11, 73
12, 195869, Control_c, 11, 11, 72
12, 195878, Control_c, 11, 11, 71
12, 195888, Control_c, 11, 11, 70
12, 195897, Control_c, 11, 11, 69
12, 195907, Control_c, 11, 11, 68
12, 195917, Control_c, 11, 11, 67
12, 195926, Control_c, 11, 11, 66
12, 195936, Control_c, 11, 11, 65
12, 195945, Control_c, 11, 11, 64
12, 195955, Control_c, 11, 11, 63
12, 195964, Control_c, 11, 11, 62
12, 195974, Control_c, 11, 11, 61
12, 195983, Control_c, 11, 11, 60
12, 195985, Note_on_c, 11, 65, 0
12, 195985, Note_on_c, 11, 53, 0
12, 199728, Control_c, 11, 1, 0
12, 199728, Control_c, 11, 11, 113
12, 199728, Note_on_c, 11, 50, 113
12, 199728, Note_on_c, 11, 62, 113
12, 199729, Control_c, 11, 1, 1
12, 199730, Control_c, 11, 1, 2
12, 199732, Control_c, 11, 1, 3
12, 199734, Control_c, 11, 1, 4
12, 199736, Control_c, 11, 1, 5
12, 199739, Control_c, 11, 1, 6
12, 199741, Control_c, 11, 1, 7
12, 199744, Control_c, 11, 1, 8
12, 199747, Control_c, 11, 1, 9
12, 199749, Control_c, 11, 11, 114
12, 199752, Control_c, 11, 1, 10
12, 199756, Control_c, 11, 1, 11
12, 199762, Control_c, 11, 1, 12
12, 199769, Control_c, 11, 11, 115
12, 199769, Control_c, 11, 1, 13
12, 199779, Control_c, 11, 1, 14
12, 199790, Control_c, 11, 11, 116
12, 199797, Control_c, 11, 1, 15
12, 199810, Control_c, 11, 11, 117
12, 199831, Control_c, 11, 11, 118
12, 199851, Control_c, 11, 11, 119
12, 199871, Note_on_c, 11, 62, 0
12, 199871, Note_on_c, 11, 50, 0
12, 199871, Control_c, 11, 11, 120
12, 199872, Note_on_c, 11, 50, 116
12, 199872, Note_on_c, 11, 62, 116
12, 199896, Note_on_c, 11, 62, 0
12, 199896, Note_on_c, 11, 50, 0
12, 199968, Control_c, 11, 1, 0
12, 199968, Note_on_c, 11, 50, 113
12, 199968, Note_on_c, 11, 62, 113
12, 199992, Note_on_c, 11, 62, 0
12, 199992, Note_on_c, 11, 50, 0
12, 200016, Note_on_c, 11, 50, 116
12, 200016, Note_on_c, 11, 62, 116
12, 200040, Note_on_c, 11, 62, 0
12, 200040, Note_on_c, 11, 50, 0
12, 200112, Note_on_c, 11, 50, 113
12, 200112, Note_on_c, 11, 62, 113
12, 200136, Note_on_c, 11, 62, 0
12, 200136, Note_on_c, 11, 50, 0
12, 200160, Note_on_c, 11, 50, 116
12, 200160, Note_on_c, 11, 62, 116
12, 200184, Note_on_c, 11, 62, 0
12, 200184, Note_on_c, 11, 50, 0
12, 200256, Note_on_c, 11, 50, 113
12, 200256, Note_on_c, 11, 62, 113
12, 200280, Note_on_c, 11, 62, 0
12, 200280, Note_on_c, 11, 50, 0
12, 200304, Control_c, 11, 11, 113
12, 200304, Control_c, 11, 1, 0
12, 200304, Note_on_c, 11, 50, 113
12, 200304, Note_on_c, 11, 62, 113
12, 200305, Control_c, 11, 1, 1
12, 200306, Control_c, 11, 1, 2
12, 200308, Control_c, 11, 1, 3
12, 200310, Control_c, 11, 1, 4
12, 200312, Control_c, 11, 1, 5
12, 200315, Control_c, 11, 1, 6
12, 200317, Control_c, 11, 1, 7
12, 200320, Control_c, 11, 1, 8
12, 200323, Control_c, 11, 1, 9
12, 200325, Control_c, 11, 11, 114
12, 200328, Control_c, 11, 1, 10
12, 200332, Control_c, 11, 1, 11
12, 200338, Control_c, 11, 1, 12
12, 200345, Control_c, 11, 1, 13
12, 200345, Control_c, 11, 11, 115
12, 200355, Control_c, 11, 1, 14
12, 200366, Control_c, 11, 11, 116
12, 200373, Control_c, 11, 1, 15
12, 200386, Control_c, 11, 11, 117
12, 200407, Control_c, 11, 11, 118
12, 200427, Control_c, 11, 11, 119
12, 200446, Note_on_c, 11, 62, 0
12, 200446, Note_on_c, 11, 50, 0
12, 200447, Control_c, 11, 11, 120
12, 200448, Note_on_c, 11, 50, 116
12, 200448, Note_on_c, 11, 62, 116
12, 200472, Note_on_c, 11, 62, 0
12, 200472, Note_on_c, 11, 50, 0
12, 200544, Control_c, 11, 1, 0
12, 200544, Note_on_c, 11, 50, 113
12, 200544, Note_on_c, 11, 62, 113
12, 200568, Note_on_c, 11, 62, 0
12, 200568, Note_on_c, 11, 50, 0
12, 200592, Note_on_c, 11, 50, 116
12, 200592, Note_on_c, 11, 62, 116
12, 200616, Note_on_c, 11, 62, 0
12, 200616, Note_on_c, 11, 50, 0
12, 200688, Note_on_c, 11, 50, 113
12, 200688, Note_on_c, 11, 62, 113
12, 200712, Note_on_c, 11, 62, 0
12, 200712, Note_on_c, 11, 50, 0
12, 200736, Note_on_c, 11, 50, 116
12, 200736, Note_on_c, 11, 62, 116
12, 200760, Note_on_c, 11, 62, 0
12, 200760, Note_on_c, 11, 50, 0
12, 200832, Note_on_c, 11, 50, 113
12, 200832, Note_on_c, 11, 62, 113
12, 200856, Note_on_c, 11, 62, 0
12, 200856, Note_on_c, 11, 50, 0
12, 200880, Note_on_c, 11, 50, 116
12, 200880, Note_on_c, 11, 62, 116
12, 200904, Note_on_c, 11, 62, 0
12, 200904, Note_on_c, 11, 50, 0
12, 200928, Note_on_c, 11, 50, 113
12, 200928, Note_on_c, 11, 62, 113
12, 200952, Note_on_c, 11, 62, 0
12, 200952, Note_on_c, 11, 50, 0
12, 200976, Note_on_c, 11, 50, 113
12, 200976, Note_on_c, 11, 62, 113
12, 201000, Note_on_c, 11, 62, 0
12, 201000, Note_on_c, 11, 50, 0
12, 201024, Note_on_c, 11, 50, 116
12, 201024, Note_on_c, 11, 62, 116
12, 201048, Note_on_c, 11, 62, 0
12, 201048, Note_on_c, 11, 50, 0
12, 201072, Note_on_c, 11, 50, 113
12, 201072, Note_on_c, 11, 62, 113
12, 201096, Note_on_c, 11, 62, 0
12, 201096, Note_on_c, 11, 50, 0
12, 201120, Note_on_c, 11, 50, 113
12, 201120, Note_on_c, 11, 62, 113
12, 201144, Note_on_c, 11, 62, 0
12, 201144, Note_on_c, 11, 50, 0
12, 201168, Note_on_c, 11, 50, 116
12, 201168, Note_on_c, 11, 62, 116
12, 201192, Note_on_c, 11, 62, 0
12, 201192, Note_on_c, 11, 50, 0
12, 201216, Note_on_c, 11, 50, 113
12, 201216, Note_on_c, 11, 62, 113
12, 201240, Note_on_c, 11, 62, 0
12, 201240, Note_on_c, 11, 50, 0
12, 201264, Note_on_c, 11, 50, 113
12, 201264, Note_on_c, 11, 62, 113
12, 201288, Note_on_c, 11, 62, 0
12, 201288, Note_on_c, 11, 50, 0
12, 201312, Note_on_c, 11, 50, 116
12, 201312, Note_on_c, 11, 62, 116
12, 201336, Note_on_c, 11, 62, 0
12, 201336, Note_on_c, 11, 50, 0
12, 201360, Note_on_c, 11, 50, 113
12, 201360, Note_on_c, 11, 62, 113
12, 201384, Note_on_c, 11, 62, 0
12, 201384, Note_on_c, 11, 50, 0
12, 201408, Note_on_c, 11, 50, 113
12, 201408, Note_on_c, 11, 62, 113
12, 201432, Note_on_c, 11, 62, 0
12, 201432, Note_on_c, 11, 50, 0
12, 201456, Note_on_c, 11, 50, 116
12, 201456, Note_on_c, 11, 62, 116
12, 201480, Note_on_c, 11, 62, 0
12, 201480, Note_on_c, 11, 50, 0
12, 201504, Note_on_c, 11, 50, 113
12, 201504, Note_on_c, 11, 62, 113
12, 201528, Note_on_c, 11, 62, 0
12, 201528, Note_on_c, 11, 50, 0
12, 201552, Note_on_c, 11, 50, 113
12, 201552, Note_on_c, 11, 62, 113
12, 201576, Note_on_c, 11, 62, 0
12, 201576, Note_on_c, 11, 50, 0
12, 201600, Note_on_c, 11, 50, 116
12, 201600, Note_on_c, 11, 62, 116
12, 201624, Note_on_c, 11, 62, 0
12, 201624, Note_on_c, 11, 50, 0
12, 201648, Note_on_c, 11, 50, 113
12, 201648, Note_on_c, 11, 62, 113
12, 201672, Note_on_c, 11, 62, 0
12, 201672, Note_on_c, 11, 50, 0
12, 201696, Note_on_c, 11, 50, 113
12, 201696, Note_on_c, 11, 62, 113
12, 201720, Note_on_c, 11, 62, 0
12, 201720, Note_on_c, 11, 50, 0
12, 201744, Note_on_c, 11, 50, 116
12, 201744, Note_on_c, 11, 62, 116
12, 201768, Note_on_c, 11, 62, 0
12, 201768, Note_on_c, 11, 50, 0
12, 201792, Note_on_c, 11, 50, 113
12, 201792, Note_on_c, 11, 62, 113
12, 201816, Note_on_c, 11, 62, 0
12, 201816, Note_on_c, 11, 50, 0
12, 201840, Note_on_c, 11, 50, 113
12, 201840, Note_on_c, 11, 62, 113
12, 201864, Note_on_c, 11, 62, 0
12, 201864, Note_on_c, 11, 50, 0
12, 201888, Note_on_c, 11, 50, 116
12, 201888, Note_on_c, 11, 62, 116
12, 201912, Note_on_c, 11, 62, 0
12, 201912, Note_on_c, 11, 50, 0
12, 201936, Note_on_c, 11, 50, 113
12, 201936, Note_on_c, 11, 62, 113
12, 201960, Note_on_c, 11, 62, 0
12, 201960, Note_on_c, 11, 50, 0
12, 201984, Note_on_c, 11, 50, 113
12, 201984, Note_on_c, 11, 62, 113
12, 202008, Note_on_c, 11, 62, 0
12, 202008, Note_on_c, 11, 50, 0
12, 202032, Note_on_c, 11, 50, 116
12, 202032, Note_on_c, 11, 62, 116
12, 202067, Note_on_c, 11, 62, 0
12, 202067, Note_on_c, 11, 50, 0
12, 202104, Note_on_c, 11, 50, 113
12, 202104, Note_on_c, 11, 62, 113
12, 202116, Note_on_c, 11, 62, 0
12, 202116, Note_on_c, 11, 50, 0
12, 202128, Note_on_c, 11, 50, 113
12, 202128, Note_on_c, 11, 62, 113
12, 202152, Note_on_c, 11, 62, 0
12, 202152, Note_on_c, 11, 50, 0
12, 202176, Note_on_c, 11, 50, 116
12, 202176, Note_on_c, 11, 62, 116
12, 202200, Note_on_c, 11, 62, 0
12, 202200, Note_on_c, 11, 50, 0
12, 202224, Note_on_c, 11, 50, 113
12, 202224, Note_on_c, 11, 62, 113
12, 202248, Note_on_c, 11, 62, 0
12, 202248, Note_on_c, 11, 50, 0
12, 202272, Note_on_c, 11, 50, 113
12, 202272, Note_on_c, 11, 62, 113
12, 202296, Note_on_c, 11, 62, 0
12, 202296, Note_on_c, 11, 50, 0
12, 202320, Note_on_c, 11, 50, 116
12, 202320, Note_on_c, 11, 62, 116
12, 202344, Note_on_c, 11, 62, 0
12, 202344, Note_on_c, 11, 50, 0
12, 202608, Note_on_c, 11, 60, 116
12, 202643, Note_on_c, 11, 60, 0
12, 202680, Note_on_c, 11, 60, 113
12, 202692, Note_on_c, 11, 60, 0
12, 202704, Note_on_c, 11, 60, 113
12, 202728, Note_on_c, 11, 60, 0
12, 202752, Note_on_c, 11, 60, 116
12, 202776, Note_on_c, 11, 60, 0
12, 202800, Note_on_c, 11, 60, 113
12, 202824, Note_on_c, 11, 60, 0
12, 202848, Note_on_c, 11, 60, 113
12, 202872, Note_on_c, 11, 60, 0
12, 202896, Note_on_c, 11, 53, 113
12, 202896, Note_on_c, 11, 65, 113
12, 202920, Note_on_c, 11, 65, 0
12, 202920, Note_on_c, 11, 53, 0
12, 203328, Control_c, 11, 1, 0
12, 203328, Control_c, 11, 11, 60
12, 203328, Note_on_c, 11, 46, 100
12, 203328, Note_on_c, 11, 58, 100
12, 203329, Control_c, 11, 1, 1
12, 203330, Control_c, 11, 1, 2
12, 203332, Control_c, 11, 1, 3
12, 203334, Control_c, 11, 1, 4
12, 203336, Control_c, 11, 1, 5
12, 203339, Control_c, 11, 1, 6
12, 203341, Control_c, 11, 1, 7
12, 203344, Control_c, 11, 1, 8
12, 203347, Control_c, 11, 1, 9
12, 203352, Control_c, 11, 1, 10
12, 203356, Control_c, 11, 1, 11
12, 203362, Control_c, 11, 1, 12
12, 203369, Control_c, 11, 1, 13
12, 203379, Control_c, 11, 1, 14
12, 203397, Control_c, 11, 1, 15
12, 203472, Control_c, 11, 11, 60
12, 203482, Control_c, 11, 11, 61
12, 203492, Control_c, 11, 11, 62
12, 203501, Control_c, 11, 11, 63
12, 203511, Control_c, 11, 11, 64
12, 203520, Control_c, 11, 11, 65
12, 203530, Control_c, 11, 11, 66
12, 203539, Control_c, 11, 11, 67
12, 203549, Control_c, 11, 11, 68
12, 203559, Control_c, 11, 11, 69
12, 203568, Control_c, 11, 11, 70
12, 203578, Control_c, 11, 11, 71
12, 203587, Control_c, 11, 11, 72
12, 203597, Control_c, 11, 11, 73
12, 203606, Control_c, 11, 11, 74
12, 203616, Control_c, 11, 11, 75
12, 203626, Control_c, 11, 11, 76
12, 203635, Control_c, 11, 11, 77
12, 203645, Control_c, 11, 11, 78
12, 203654, Control_c, 11, 11, 79
12, 203664, Control_c, 11, 11, 80
12, 203673, Control_c, 11, 11, 81
12, 203683, Control_c, 11, 11, 82
12, 203693, Control_c, 11, 11, 83
12, 203702, Control_c, 11, 11, 84
12, 203712, Control_c, 11, 11, 85
12, 203721, Control_c, 11, 11, 86
12, 203731, Control_c, 11, 11, 87
12, 203740, Control_c, 11, 11, 88
12, 203750, Control_c, 11, 11, 89
12, 203759, Control_c, 11, 11, 90
12, 203790, Note_on_c, 11, 58, 0
12, 203790, Note_on_c, 11, 46, 0
12, 204048, Control_c, 11, 1, 0
12, 204048, Control_c, 11, 11, 60
12, 204048, Note_on_c, 11, 46, 100
12, 204048, Note_on_c, 11, 58, 100
12, 204049, Control_c, 11, 1, 1
12, 204050, Control_c, 11, 1, 2
12, 204052, Control_c, 11, 1, 3
12, 204054, Control_c, 11, 1, 4
12, 204056, Control_c, 11, 1, 5
12, 204058, Control_c, 11, 11, 61
12, 204059, Control_c, 11, 1, 6
12, 204061, Control_c, 11, 1, 7
12, 204064, Control_c, 11, 1, 8
12, 204067, Control_c, 11, 1, 9
12, 204068, Control_c, 11, 11, 62
12, 204072, Control_c, 11, 1, 10
12, 204076, Control_c, 11, 1, 11
12, 204077, Control_c, 11, 11, 63
12, 204082, Control_c, 11, 1, 12
12, 204087, Control_c, 11, 11, 64
12, 204089, Control_c, 11, 1, 13
12, 204096, Control_c, 11, 11, 65
12, 204099, Control_c, 11, 1, 14
12, 204106, Control_c, 11, 11, 66
12, 204116, Control_c, 11, 11, 67
12, 204117, Control_c, 11, 1, 15
12, 204125, Control_c, 11, 11, 68
12, 204135, Control_c, 11, 11, 69
12, 204144, Control_c, 11, 11, 70
12, 204154, Control_c, 11, 11, 71
12, 204163, Control_c, 11, 11, 72
12, 204173, Control_c, 11, 11, 73
12, 204183, Control_c, 11, 11, 74
12, 204192, Control_c, 11, 11, 75
12, 204202, Control_c, 11, 11, 76
12, 204211, Control_c, 11, 11, 77
12, 204221, Control_c, 11, 11, 78
12, 204231, Control_c, 11, 11, 79
12, 204240, Control_c, 11, 11, 80
12, 204250, Control_c, 11, 11, 81
12, 204259, Control_c, 11, 11, 82
12, 204269, Control_c, 11, 11, 83
12, 204278, Control_c, 11, 11, 84
12, 204288, Control_c, 11, 11, 85
12, 204298, Control_c, 11, 11, 86
12, 204307, Control_c, 11, 11, 87
12, 204317, Control_c, 11, 11, 88
12, 204326, Control_c, 11, 11, 89
12, 204336, Control_c, 11, 11, 90
12, 204346, Control_c, 11, 11, 91
12, 204355, Control_c, 11, 11, 92
12, 204360, Note_on_c, 11, 58, 0
12, 204360, Note_on_c, 11, 46, 0
12, 204365, Control_c, 11, 11, 93
12, 204374, Control_c, 11, 11, 94
12, 204384, Control_c, 11, 11, 95
12, 204393, Control_c, 11, 11, 96
12, 204403, Control_c, 11, 11, 97
12, 204413, Control_c, 11, 11, 98
12, 204422, Control_c, 11, 11, 99
12, 204432, Control_c, 11, 11, 100
12, 204441, Control_c, 11, 11, 101
12, 204451, Control_c, 11, 11, 102
12, 204461, Control_c, 11, 11, 103
12, 204470, Control_c, 11, 11, 104
12, 204480, Control_c, 11, 11, 105
12, 204489, Control_c, 11, 11, 106
12, 204499, Control_c, 11, 11, 107
12, 204508, Control_c, 11, 11, 108
12, 204518, Control_c, 11, 11, 109
12, 204528, Control_c, 11, 11, 110
12, 204537, Control_c, 11, 11, 111
12, 204547, Control_c, 11, 11, 112
12, 204556, Control_c, 11, 11, 113
12, 204566, Control_c, 11, 11, 114
12, 204576, Control_c, 11, 11, 115
12, 204585, Control_c, 11, 11, 116
12, 204595, Control_c, 11, 11, 117
12, 204604, Control_c, 11, 11, 118
12, 204614, Control_c, 11, 11, 119
12, 204623, Control_c, 11, 11, 120
12, 204768, Control_c, 11, 1, 0
12, 204912, Note_on_c, 11, 53, 105
12, 204912, Note_on_c, 11, 65, 105
12, 204936, Note_on_c, 11, 65, 0
12, 204936, Note_on_c, 11, 53, 0
12, 204960, Note_on_c, 11, 53, 100
12, 204960, Note_on_c, 11, 65, 100
12, 204984, Note_on_c, 11, 65, 0
12, 204984, Note_on_c, 11, 53, 0
12, 205152, Note_on_c, 11, 53, 100
12, 205152, Note_on_c, 11, 65, 100
12, 205176, Note_on_c, 11, 65, 0
12, 205176, Note_on_c, 11, 53, 0
12, 205200, Note_on_c, 11, 53, 105
12, 205200, Note_on_c, 11, 65, 105
12, 205224, Note_on_c, 11, 65, 0
12, 205224, Note_on_c, 11, 53, 0
12, 205248, Note_on_c, 11, 53, 100
12, 205248, Note_on_c, 11, 65, 100
12, 205272, Note_on_c, 11, 65, 0
12, 205272, Note_on_c, 11, 53, 0
12, 205488, Note_on_c, 11, 53, 100
12, 205488, Note_on_c, 11, 65, 105
12, 205512, Note_on_c, 11, 65, 0
12, 205512, Note_on_c, 11, 53, 0
12, 205536, Note_on_c, 11, 53, 105
12, 205536, Note_on_c, 11, 65, 100
12, 205560, Note_on_c, 11, 65, 0
12, 205560, Note_on_c, 11, 53, 0
12, 205776, Note_on_c, 11, 50, 105
12, 205776, Note_on_c, 11, 62, 105
12, 205811, Note_on_c, 11, 62, 0
12, 205811, Note_on_c, 11, 50, 0
12, 205848, Note_on_c, 11, 50, 100
12, 205848, Note_on_c, 11, 62, 100
12, 205860, Note_on_c, 11, 62, 0
12, 205860, Note_on_c, 11, 50, 0
12, 205872, Note_on_c, 11, 50, 100
12, 205872, Note_on_c, 11, 62, 100
12, 205896, Note_on_c, 11, 62, 0
12, 205896, Note_on_c, 11, 50, 0
12, 206064, Note_on_c, 11, 50, 105
12, 206064, Note_on_c, 11, 62, 105
12, 206099, Note_on_c, 11, 62, 0
12, 206099, Note_on_c, 11, 50, 0
12, 206136, Note_on_c, 11, 50, 100
12, 206136, Note_on_c, 11, 62, 100
12, 206148, Note_on_c, 11, 62, 0
12, 206148, Note_on_c, 11, 50, 0
12, 206160, Note_on_c, 11, 50, 100
12, 206160, Note_on_c, 11, 62, 100
12, 206184, Note_on_c, 11, 62, 0
12, 206184, Note_on_c, 11, 50, 0
12, 207072, Note_on_c, 11, 50, 55
12, 207072, Note_on_c, 11, 62, 55
12, 207107, Note_on_c, 11, 62, 0
12, 207107, Note_on_c, 11, 50, 0
12, 207144, Note_on_c, 11, 50, 50
12, 207144, Note_on_c, 11, 62, 50
12, 207156, Note_on_c, 11, 62, 0
12, 207156, Note_on_c, 11, 50, 0
12, 207168, Note_on_c, 11, 50, 50
12, 207168, Note_on_c, 11, 62, 50
12, 207192, Note_on_c, 11, 62, 0
12, 207192, Note_on_c, 11, 50, 0
12, 207216, Note_on_c, 11, 50, 50
12, 207216, Note_on_c, 11, 62, 50
12, 207240, Note_on_c, 11, 62, 0
12, 207240, Note_on_c, 11, 50, 0
12, 208224, Note_on_c, 11, 50, 59
12, 208224, Note_on_c, 11, 62, 59
12, 208259, Note_on_c, 11, 62, 0
12, 208259, Note_on_c, 11, 50, 0
12, 208296, Note_on_c, 11, 50, 63
12, 208296, Note_on_c, 11, 62, 63
12, 208308, Note_on_c, 11, 62, 0
12, 208308, Note_on_c, 11, 50, 0
12, 208320, Note_on_c, 11, 50, 65
12, 208320, Note_on_c, 11, 62, 65
12, 208344, Note_on_c, 11, 62, 0
12, 208344, Note_on_c, 11, 50, 0
12, 208368, Note_on_c, 11, 50, 68
12, 208368, Note_on_c, 11, 62, 68
12, 208392, Note_on_c, 11, 62, 0
12, 208392, Note_on_c, 11, 50, 0
12, 208512, Note_on_c, 11, 50, 77
12, 208512, Note_on_c, 11, 62, 77
12, 208547, Note_on_c, 11, 62, 0
12, 208547, Note_on_c, 11, 50, 0
12, 208584, Note_on_c, 11, 50, 81
12, 208584, Note_on_c, 11, 62, 81
12, 208596, Note_on_c, 11, 62, 0
12, 208596, Note_on_c, 11, 50, 0
12, 208608, Note_on_c, 11, 50, 83
12, 208608, Note_on_c, 11, 62, 83
12, 208632, Note_on_c, 11, 62, 0
12, 208632, Note_on_c, 11, 50, 0
12, 208656, Note_on_c, 11, 50, 86
12, 208656, Note_on_c, 11, 62, 86
12, 208680, Note_on_c, 11, 62, 0
12, 208680, Note_on_c, 11, 50, 0
12, 208800, Note_on_c, 11, 50, 95
12, 208800, Note_on_c, 11, 62, 95
12, 208835, Note_on_c, 11, 62, 0
12, 208835, Note_on_c, 11, 50, 0
12, 208872, Note_on_c, 11, 50, 99
12, 208872, Note_on_c, 11, 62, 99
12, 208884, Note_on_c, 11, 62, 0
12, 208884, Note_on_c, 11, 50, 0
12, 208896, Note_on_c, 11, 50, 101
12, 208896, Note_on_c, 11, 62, 101
12, 208920, Note_on_c, 11, 62, 0
12, 208920, Note_on_c, 11, 50, 0
12, 208944, Note_on_c, 11, 50, 104
12, 208944, Note_on_c, 11, 62, 104
12, 208968, Note_on_c, 11, 62, 0
12, 208968, Note_on_c, 11, 50, 0
12, 211680, Note_on_c, 11, 62, 115
12, 211704, Note_on_c, 11, 62, 0
12, 211728, Note_on_c, 11, 50, 105
12, 211752, Note_on_c, 11, 50, 0
12, 211968, Note_on_c, 11, 50, 110
12, 211968, Note_on_c, 11, 62, 110
12, 211992, Note_on_c, 11, 62, 0
12, 211992, Note_on_c, 11, 50, 0
12, 213504, Control_c, 11, 11, 127
12, 213792, Note_on_c, 11, 69, 120
12, 213816, Note_on_c, 11, 69, 0
12, 213840, Note_on_c, 11, 57, 110
12, 213864, Note_on_c, 11, 57, 0
12, 213888, Note_on_c, 11, 50, 120
12, 213888, Note_on_c, 11, 62, 120
12, 213912, Note_on_c, 11, 62, 0
12, 213912, Note_on_c, 11, 50, 0
12, 214080, End_track
13, 0, Start_track
13, 0, Title_t, "Trombe in D(Re)"
13, 0, MIDI_port, 0
13, 192, Control_c, 12, 91, 95
13, 192, Control_c, 12, 93, 20
13, 192, Control_c, 12, 10, 49
13, 192, Control_c, 12, 7, 108
13, 192, Control_c, 12, 11, 120
13, 5808, Control_c, 12, 1, 0
13, 5808, Program_c, 12, 56
13, 5808, Note_on_c, 12, 57, 50
13, 5808, Note_on_c, 12, 69, 50
13, 5832, Note_on_c, 12, 69, 0
13, 5832, Note_on_c, 12, 57, 0
13, 5952, Note_on_c, 12, 57, 50
13, 5952, Note_on_c, 12, 69, 50
13, 5976, Note_on_c, 12, 69, 0
13, 5976, Note_on_c, 12, 57, 0
13, 6096, Note_on_c, 12, 57, 50
13, 6096, Note_on_c, 12, 69, 50
13, 6120, Note_on_c, 12, 69, 0
13, 6120, Note_on_c, 12, 57, 0
13, 6240, Note_on_c, 12, 57, 50
13, 6240, Note_on_c, 12, 69, 50
13, 6264, Note_on_c, 12, 69, 0
13, 6264, Note_on_c, 12, 57, 0
13, 6384, Note_on_c, 12, 57, 50
13, 6384, Note_on_c, 12, 69, 50
13, 6408, Note_on_c, 12, 69, 0
13, 6408, Note_on_c, 12, 57, 0
13, 6528, Note_on_c, 12, 57, 50
13, 6528, Note_on_c, 12, 69, 50
13, 6552, Note_on_c, 12, 69, 0
13, 6552, Note_on_c, 12, 57, 0
13, 6672, Note_on_c, 12, 57, 55
13, 6672, Note_on_c, 12, 69, 55
13, 6696, Note_on_c, 12, 69, 0
13, 6696, Note_on_c, 12, 57, 0
13, 6816, Note_on_c, 12, 57, 60
13, 6816, Note_on_c, 12, 69, 60
13, 6840, Note_on_c, 12, 69, 0
13, 6840, Note_on_c, 12, 57, 0
13, 6960, Note_on_c, 12, 57, 65
13, 6960, Note_on_c, 12, 69, 65
13, 6984, Note_on_c, 12, 69, 0
13, 6984, Note_on_c, 12, 57, 0
13, 7104, Note_on_c, 12, 57, 70
13, 7104, Note_on_c, 12, 69, 70
13, 7128, Note_on_c, 12, 69, 0
13, 7128, Note_on_c, 12, 57, 0
13, 7248, Note_on_c, 12, 57, 75
13, 7248, Note_on_c, 12, 69, 75
13, 7272, Note_on_c, 12, 69, 0
13, 7272, Note_on_c, 12, 57, 0
13, 7392, Note_on_c, 12, 57, 80
13, 7392, Note_on_c, 12, 69, 80
13, 7416, Note_on_c, 12, 69, 0
13, 7416, Note_on_c, 12, 57, 0
13, 7536, Note_on_c, 12, 57, 85
13, 7536, Note_on_c, 12, 69, 85
13, 7560, Note_on_c, 12, 69, 0
13, 7560, Note_on_c, 12, 57, 0
13, 7680, Note_on_c, 12, 57, 90
13, 7680, Note_on_c, 12, 69, 90
13, 7704, Note_on_c, 12, 69, 0
13, 7704, Note_on_c, 12, 57, 0
13, 7824, Note_on_c, 12, 57, 95
13, 7824, Note_on_c, 12, 69, 95
13, 7848, Note_on_c, 12, 69, 0
13, 7848, Note_on_c, 12, 57, 0
13, 7968, Note_on_c, 12, 57, 100
13, 7968, Note_on_c, 12, 69, 100
13, 7992, Note_on_c, 12, 69, 0
13, 7992, Note_on_c, 12, 57, 0
13, 8112, Note_on_c, 12, 57, 105
13, 8112, Note_on_c, 12, 69, 105
13, 8136, Note_on_c, 12, 69, 0
13, 8136, Note_on_c, 12, 57, 0
13, 8256, Note_on_c, 12, 57, 115
13, 8256, Note_on_c, 12, 69, 115
13, 8291, Note_on_c, 12, 69, 0
13, 8291, Note_on_c, 12, 57, 0
13, 8328, Note_on_c, 12, 57, 110
13, 8328, Note_on_c, 12, 69, 110
13, 8340, Note_on_c, 12, 69, 0
13, 8340, Note_on_c, 12, 57, 0
13, 8352, Note_on_c, 12, 57, 110
13, 8352, Note_on_c, 12, 69, 110
13, 8376, Note_on_c, 12, 69, 0
13, 8376, Note_on_c, 12, 57, 0
13, 8400, Note_on_c, 12, 62, 110
13, 8400, Note_on_c, 12, 74, 110
13, 8424, Note_on_c, 12, 74, 0
13, 8424, Note_on_c, 12, 62, 0
13, 8544, Note_on_c, 12, 57, 110
13, 8544, Note_on_c, 12, 69, 110
13, 8568, Note_on_c, 12, 69, 0
13, 8568, Note_on_c, 12, 57, 0
13, 8688, Note_on_c, 12, 62, 110
13, 8688, Note_on_c, 12, 74, 110
13, 8712, Note_on_c, 12, 74, 0
13, 8712, Note_on_c, 12, 62, 0
13, 8832, Note_on_c, 12, 62, 110
13, 8832, Note_on_c, 12, 74, 110
13, 8856, Note_on_c, 12, 74, 0
13, 8856, Note_on_c, 12, 62, 0
13, 8976, Note_on_c, 12, 62, 110
13, 8976, Note_on_c, 12, 74, 110
13, 9000, Note_on_c, 12, 74, 0
13, 9000, Note_on_c, 12, 62, 0
13, 9120, Note_on_c, 12, 57, 110
13, 9120, Note_on_c, 12, 69, 110
13, 9144, Note_on_c, 12, 69, 0
13, 9144, Note_on_c, 12, 57, 0
13, 9264, Note_on_c, 12, 62, 110
13, 9264, Note_on_c, 12, 74, 110
13, 9288, Note_on_c, 12, 74, 0
13, 9288, Note_on_c, 12, 62, 0
13, 9408, Note_on_c, 12, 62, 110
13, 9408, Note_on_c, 12, 74, 110
13, 9432, Note_on_c, 12, 74, 0
13, 9432, Note_on_c, 12, 62, 0
13, 9552, Note_on_c, 12, 62, 110
13, 9552, Note_on_c, 12, 74, 110
13, 9576, Note_on_c, 12, 74, 0
13, 9576, Note_on_c, 12, 62, 0
13, 9696, Note_on_c, 12, 57, 110
13, 9696, Note_on_c, 12, 69, 110
13, 9720, Note_on_c, 12, 69, 0
13, 9720, Note_on_c, 12, 57, 0
13, 9840, Note_on_c, 12, 62, 110
13, 9840, Note_on_c, 12, 74, 110
13, 9864, Note_on_c, 12, 74, 0
13, 9864, Note_on_c, 12, 62, 0
13, 9984, Note_on_c, 12, 62, 110
13, 9984, Note_on_c, 12, 74, 110
13, 10008, Note_on_c, 12, 74, 0
13, 10008, Note_on_c, 12, 62, 0
13, 10128, Note_on_c, 12, 72, 110
13, 10152, Note_on_c, 12, 72, 0
13, 10416, Note_on_c, 12, 72, 110
13, 10440, Note_on_c, 12, 72, 0
13, 10560, Note_on_c, 12, 62, 110
13, 10560, Note_on_c, 12, 74, 110
13, 10584, Note_on_c, 12, 74, 0
13, 10584, Note_on_c, 12, 62, 0
13, 10704, Note_on_c, 12, 72, 110
13, 10728, Note_on_c, 12, 72, 0
13, 10848, Note_on_c, 12, 72, 110
13, 10872, Note_on_c, 12, 72, 0
13, 10992, Note_on_c, 12, 72, 110
13, 11016, Note_on_c, 12, 72, 0
13, 11136, Note_on_c, 12, 79, 110
13, 11160, Note_on_c, 12, 79, 0
13, 15744, Note_on_c, 12, 72, 120
13, 15779, Note_on_c, 12, 72, 0
13, 15816, Note_on_c, 12, 72, 113
13, 15828, Note_on_c, 12, 72, 0
13, 15840, Note_on_c, 12, 72, 113
13, 15864, Note_on_c, 12, 72, 0
13, 15888, Note_on_c, 12, 72, 113
13, 15912, Note_on_c, 12, 72, 0
13, 16320, Note_on_c, 12, 62, 120
13, 16320, Note_on_c, 12, 74, 120
13, 16355, Note_on_c, 12, 74, 0
13, 16355, Note_on_c, 12, 62, 0
13, 16392, Note_on_c, 12, 62, 113
13, 16404, Note_on_c, 12, 62, 0
13, 16416, Note_on_c, 12, 62, 113
13, 16440, Note_on_c, 12, 62, 0
13, 16464, Note_on_c, 12, 62, 113
13, 16464, Note_on_c, 12, 74, 113
13, 16488, Note_on_c, 12, 74, 0
13, 16488, Note_on_c, 12, 62, 0
13, 18912, Note_on_c, 12, 84, 100
13, 18936, Note_on_c, 12, 84, 0
13, 19200, Note_on_c, 12, 84, 100
13, 19224, Note_on_c, 12, 84, 0
13, 19488, Note_on_c, 12, 84, 100
13, 19512, Note_on_c, 12, 84, 0
13, 19776, Note_on_c, 12, 84, 100
13, 19800, Note_on_c, 12, 84, 0
13, 26256, Control_c, 12, 1, 0
13, 26256, Program_c, 12, 56
13, 26256, Note_on_c, 12, 57, 50
13, 26256, Note_on_c, 12, 69, 50
13, 26280, Note_on_c, 12, 69, 0
13, 26280, Note_on_c, 12, 57, 0
13, 26400, Note_on_c, 12, 57, 50
13, 26400, Note_on_c, 12, 69, 50
13, 26424, Note_on_c, 12, 69, 0
13, 26424, Note_on_c, 12, 57, 0
13, 26544, Note_on_c, 12, 57, 50
13, 26544, Note_on_c, 12, 69, 50
13, 26568, Note_on_c, 12, 69, 0
13, 26568, Note_on_c, 12, 57, 0
13, 26688, Note_on_c, 12, 57, 50
13, 26688, Note_on_c, 12, 69, 50
13, 26712, Note_on_c, 12, 69, 0
13, 26712, Note_on_c, 12, 57, 0
13, 26832, Note_on_c, 12, 57, 50
13, 26832, Note_on_c, 12, 69, 50
13, 26856, Note_on_c, 12, 69, 0
13, 26856, Note_on_c, 12, 57, 0
13, 26976, Note_on_c, 12, 57, 50
13, 26976, Note_on_c, 12, 69, 50
13, 27000, Note_on_c, 12, 69, 0
13, 27000, Note_on_c, 12, 57, 0
13, 27120, Note_on_c, 12, 57, 55
13, 27120, Note_on_c, 12, 69, 55
13, 27144, Note_on_c, 12, 69, 0
13, 27144, Note_on_c, 12, 57, 0
13, 27264, Note_on_c, 12, 57, 60
13, 27264, Note_on_c, 12, 69, 60
13, 27288, Note_on_c, 12, 69, 0
13, 27288, Note_on_c, 12, 57, 0
13, 27408, Note_on_c, 12, 57, 65
13, 27408, Note_on_c, 12, 69, 65
13, 27432, Note_on_c, 12, 69, 0
13, 27432, Note_on_c, 12, 57, 0
13, 27552, Note_on_c, 12, 57, 70
13, 27552, Note_on_c, 12, 69, 70
13, 27576, Note_on_c, 12, 69, 0
13, 27576, Note_on_c, 12, 57, 0
13, 27696, Note_on_c, 12, 57, 75
13, 27696, Note_on_c, 12, 69, 75
13, 27720, Note_on_c, 12, 69, 0
13, 27720, Note_on_c, 12, 57, 0
13, 27840, Note_on_c, 12, 57, 80
13, 27840, Note_on_c, 12, 69, 80
13, 27864, Note_on_c, 12, 69, 0
13, 27864, Note_on_c, 12, 57, 0
13, 27984, Note_on_c, 12, 57, 85
13, 27984, Note_on_c, 12, 69, 85
13, 28008, Note_on_c, 12, 69, 0
13, 28008, Note_on_c, 12, 57, 0
13, 28128, Note_on_c, 12, 57, 90
13, 28128, Note_on_c, 12, 69, 90
13, 28152, Note_on_c, 12, 69, 0
13, 28152, Note_on_c, 12, 57, 0
13, 28272, Note_on_c, 12, 57, 95
13, 28272, Note_on_c, 12, 69, 95
13, 28296, Note_on_c, 12, 69, 0
13, 28296, Note_on_c, 12, 57, 0
13, 28416, Note_on_c, 12, 57, 100
13, 28416, Note_on_c, 12, 69, 100
13, 28440, Note_on_c, 12, 69, 0
13, 28440, Note_on_c, 12, 57, 0
13, 28560, Note_on_c, 12, 57, 105
13, 28560, Note_on_c, 12, 69, 105
13, 28584, Note_on_c, 12, 69, 0
13, 28584, Note_on_c, 12, 57, 0
13, 28704, Note_on_c, 12, 57, 115
13, 28704, Note_on_c, 12, 69, 115
13, 28739, Note_on_c, 12, 69, 0
13, 28739, Note_on_c, 12, 57, 0
13, 28776, Note_on_c, 12, 57, 110
13, 28776, Note_on_c, 12, 69, 110
13, 28788, Note_on_c, 12, 69, 0
13, 28788, Note_on_c, 12, 57, 0
13, 28800, Note_on_c, 12, 57, 110
13, 28800, Note_on_c, 12, 69, 110
13, 28824, Note_on_c, 12, 69, 0
13, 28824, Note_on_c, 12, 57, 0
13, 28848, Note_on_c, 12, 62, 110
13, 28848, Note_on_c, 12, 74, 110
13, 28872, Note_on_c, 12, 74, 0
13, 28872, Note_on_c, 12, 62, 0
13, 28992, Note_on_c, 12, 57, 110
13, 28992, Note_on_c, 12, 69, 110
13, 29016, Note_on_c, 12, 69, 0
13, 29016, Note_on_c, 12, 57, 0
13, 29136, Note_on_c, 12, 62, 110
13, 29136, Note_on_c, 12, 74, 110
13, 29160, Note_on_c, 12, 74, 0
13, 29160, Note_on_c, 12, 62, 0
13, 29280, Note_on_c, 12, 62, 110
13, 29280, Note_on_c, 12, 74, 110
13, 29304, Note_on_c, 12, 74, 0
13, 29304, Note_on_c, 12, 62, 0
13, 29424, Note_on_c, 12, 62, 110
13, 29424, Note_on_c, 12, 74, 110
13, 29448, Note_on_c, 12, 74, 0
13, 29448, Note_on_c, 12, 62, 0
13, 29568, Note_on_c, 12, 57, 110
13, 29568, Note_on_c, 12, 69, 110
13, 29592, Note_on_c, 12, 69, 0
13, 29592, Note_on_c, 12, 57, 0
13, 29712, Note_on_c, 12, 62, 110
13, 29712, Note_on_c, 12, 74, 110
13, 29736, Note_on_c, 12, 74, 0
13, 29736, Note_on_c, 12, 62, 0
13, 29856, Note_on_c, 12, 62, 110
13, 29856, Note_on_c, 12, 74, 110
13, 29880, Note_on_c, 12, 74, 0
13, 29880, Note_on_c, 12, 62, 0
13, 30000, Note_on_c, 12, 62, 110
13, 30000, Note_on_c, 12, 74, 110
13, 30024, Note_on_c, 12, 74, 0
13, 30024, Note_on_c, 12, 62, 0
13, 30144, Note_on_c, 12, 57, 110
13, 30144, Note_on_c, 12, 69, 110
13, 30168, Note_on_c, 12, 69, 0
13, 30168, Note_on_c, 12, 57, 0
13, 30288, Note_on_c, 12, 62, 110
13, 30288, Note_on_c, 12, 74, 110
13, 30312, Note_on_c, 12, 74, 0
13, 30312, Note_on_c, 12, 62, 0
13, 30432, Note_on_c, 12, 62, 110
13, 30432, Note_on_c, 12, 74, 110
13, 30456, Note_on_c, 12, 74, 0
13, 30456, Note_on_c, 12, 62, 0
13, 30576, Note_on_c, 12, 72, 110
13, 30600, Note_on_c, 12, 72, 0
13, 30864, Note_on_c, 12, 72, 110
13, 30888, Note_on_c, 12, 72, 0
13, 31008, Note_on_c, 12, 62, 110
13, 31008, Note_on_c, 12, 74, 110
13, 31032, Note_on_c, 12, 74, 0
13, 31032, Note_on_c, 12, 62, 0
13, 31152, Note_on_c, 12, 72, 110
13, 31176, Note_on_c, 12, 72, 0
13, 31296, Note_on_c, 12, 72, 110
13, 31320, Note_on_c, 12, 72, 0
13, 31440, Note_on_c, 12, 72, 110
13, 31464, Note_on_c, 12, 72, 0
13, 31584, Note_on_c, 12, 79, 110
13, 31608, Note_on_c, 12, 79, 0
13, 36192, Note_on_c, 12, 72, 120
13, 36227, Note_on_c, 12, 72, 0
13, 36264, Note_on_c, 12, 72, 113
13, 36276, Note_on_c, 12, 72, 0
13, 36288, Note_on_c, 12, 72, 113
13, 36312, Note_on_c, 12, 72, 0
13, 36336, Note_on_c, 12, 72, 113
13, 36360, Note_on_c, 12, 72, 0
13, 36768, Note_on_c, 12, 62, 120
13, 36768, Note_on_c, 12, 74, 120
13, 36803, Note_on_c, 12, 74, 0
13, 36803, Note_on_c, 12, 62, 0
13, 36840, Note_on_c, 12, 62, 113
13, 36852, Note_on_c, 12, 62, 0
13, 36864, Note_on_c, 12, 62, 113
13, 36888, Note_on_c, 12, 62, 0
13, 36912, Note_on_c, 12, 62, 113
13, 36912, Note_on_c, 12, 74, 113
13, 36936, Note_on_c, 12, 74, 0
13, 36936, Note_on_c, 12, 62, 0
13, 39360, Note_on_c, 12, 84, 100
13, 39384, Note_on_c, 12, 84, 0
13, 39648, Note_on_c, 12, 84, 100
13, 39672, Note_on_c, 12, 84, 0
13, 39936, Note_on_c, 12, 84, 100
13, 39960, Note_on_c, 12, 84, 0
13, 40224, Note_on_c, 12, 84, 100
13, 40248, Note_on_c, 12, 84, 0
13, 45120, Note_on_c, 12, 69, 105
13, 45155, Note_on_c, 12, 69, 0
13, 45192, Note_on_c, 12, 57, 100
13, 45192, Note_on_c, 12, 69, 100
13, 45204, Note_on_c, 12, 69, 0
13, 45204, Note_on_c, 12, 57, 0
13, 45216, Note_on_c, 12, 57, 100
13, 45216, Note_on_c, 12, 69, 100
13, 45240, Note_on_c, 12, 69, 0
13, 45240, Note_on_c, 12, 57, 0
13, 51360, Note_on_c, 12, 74, 60
13, 51395, Note_on_c, 12, 74, 0
13, 51432, Note_on_c, 12, 62, 50
13, 51444, Note_on_c, 12, 62, 0
13, 51456, Note_on_c, 12, 62, 50
13, 51480, Note_on_c, 12, 62, 0
13, 57696, Note_on_c, 12, 74, 70
13, 57731, Note_on_c, 12, 74, 0
13, 57768, Note_on_c, 12, 62, 60
13, 57780, Note_on_c, 12, 62, 0
13, 57792, Note_on_c, 12, 62, 60
13, 57816, Note_on_c, 12, 62, 0
13, 58272, Note_on_c, 12, 74, 85
13, 58307, Note_on_c, 12, 74, 0
13, 58344, Note_on_c, 12, 62, 75
13, 58356, Note_on_c, 12, 62, 0
13, 58368, Note_on_c, 12, 62, 75
13, 58392, Note_on_c, 12, 62, 0
13, 58560, Note_on_c, 12, 74, 120
13, 58584, Note_on_c, 12, 74, 0
13, 58632, Note_on_c, 12, 62, 110
13, 58644, Note_on_c, 12, 62, 0
13, 58656, Note_on_c, 12, 62, 110
13, 58680, Note_on_c, 12, 62, 0
13, 58704, Note_on_c, 12, 74, 120
13, 58728, Note_on_c, 12, 74, 0
13, 58776, Note_on_c, 12, 62, 110
13, 58788, Note_on_c, 12, 62, 0
13, 58800, Note_on_c, 12, 62, 110
13, 58824, Note_on_c, 12, 62, 0
13, 58848, Note_on_c, 12, 74, 120
13, 58872, Note_on_c, 12, 74, 0
13, 58920, Note_on_c, 12, 62, 110
13, 58932, Note_on_c, 12, 62, 0
13, 58944, Note_on_c, 12, 62, 110
13, 58968, Note_on_c, 12, 62, 0
13, 58992, Note_on_c, 12, 74, 120
13, 59016, Note_on_c, 12, 74, 0
13, 59064, Note_on_c, 12, 62, 110
13, 59076, Note_on_c, 12, 62, 0
13, 59088, Note_on_c, 12, 62, 110
13, 59112, Note_on_c, 12, 62, 0
13, 59136, Note_on_c, 12, 74, 120
13, 59160, Note_on_c, 12, 74, 0
13, 59208, Note_on_c, 12, 62, 110
13, 59220, Note_on_c, 12, 62, 0
13, 59232, Note_on_c, 12, 62, 110
13, 59256, Note_on_c, 12, 62, 0
13, 59280, Note_on_c, 12, 74, 120
13, 59304, Note_on_c, 12, 74, 0
13, 59352, Note_on_c, 12, 62, 110
13, 59364, Note_on_c, 12, 62, 0
13, 59376, Note_on_c, 12, 62, 110
13, 59400, Note_on_c, 12, 62, 0
13, 59424, Note_on_c, 12, 74, 120
13, 59448, Note_on_c, 12, 74, 0
13, 59496, Note_on_c, 12, 62, 110
13, 59508, Note_on_c, 12, 62, 0
13, 59520, Note_on_c, 12, 62, 110
13, 59544, Note_on_c, 12, 62, 0
13, 59568, Note_on_c, 12, 74, 120
13, 59592, Note_on_c, 12, 74, 0
13, 59640, Note_on_c, 12, 62, 110
13, 59652, Note_on_c, 12, 62, 0
13, 59664, Note_on_c, 12, 62, 110
13, 59688, Note_on_c, 12, 62, 0
13, 59712, Note_on_c, 12, 74, 120
13, 59736, Note_on_c, 12, 74, 0
13, 59784, Note_on_c, 12, 62, 110
13, 59796, Note_on_c, 12, 62, 0
13, 59808, Note_on_c, 12, 62, 110
13, 59832, Note_on_c, 12, 62, 0
13, 59856, Note_on_c, 12, 74, 120
13, 59880, Note_on_c, 12, 74, 0
13, 59928, Note_on_c, 12, 62, 110
13, 59940, Note_on_c, 12, 62, 0
13, 59952, Note_on_c, 12, 62, 110
13, 59976, Note_on_c, 12, 62, 0
13, 60000, Note_on_c, 12, 74, 120
13, 60024, Note_on_c, 12, 74, 0
13, 60072, Note_on_c, 12, 62, 110
13, 60084, Note_on_c, 12, 62, 0
13, 60096, Note_on_c, 12, 62, 110
13, 60120, Note_on_c, 12, 62, 0
13, 60144, Note_on_c, 12, 74, 120
13, 60168, Note_on_c, 12, 74, 0
13, 60216, Note_on_c, 12, 62, 110
13, 60228, Note_on_c, 12, 62, 0
13, 60240, Note_on_c, 12, 62, 110
13, 60264, Note_on_c, 12, 62, 0
13, 60288, Note_on_c, 12, 74, 120
13, 60312, Note_on_c, 12, 74, 0
13, 60360, Note_on_c, 12, 62, 110
13, 60372, Note_on_c, 12, 62, 0
13, 60384, Note_on_c, 12, 62, 110
13, 60408, Note_on_c, 12, 62, 0
13, 60432, Note_on_c, 12, 74, 120
13, 60456, Note_on_c, 12, 74, 0
13, 60504, Note_on_c, 12, 62, 110
13, 60516, Note_on_c, 12, 62, 0
13, 60528, Note_on_c, 12, 62, 110
13, 60552, Note_on_c, 12, 62, 0
13, 60576, Note_on_c, 12, 74, 120
13, 60600, Note_on_c, 12, 74, 0
13, 60648, Note_on_c, 12, 62, 110
13, 60660, Note_on_c, 12, 62, 0
13, 60672, Note_on_c, 12, 62, 110
13, 60696, Note_on_c, 12, 62, 0
13, 60720, Note_on_c, 12, 74, 120
13, 60744, Note_on_c, 12, 74, 0
13, 60792, Note_on_c, 12, 62, 110
13, 60804, Note_on_c, 12, 62, 0
13, 60816, Note_on_c, 12, 62, 110
13, 60840, Note_on_c, 12, 62, 0
13, 60864, Note_on_c, 12, 74, 120
13, 60888, Note_on_c, 12, 74, 0
13, 60936, Note_on_c, 12, 62, 110
13, 60948, Note_on_c, 12, 62, 0
13, 60960, Note_on_c, 12, 62, 110
13, 60984, Note_on_c, 12, 62, 0
13, 61008, Note_on_c, 12, 74, 120
13, 61032, Note_on_c, 12, 74, 0
13, 61080, Note_on_c, 12, 62, 110
13, 61092, Note_on_c, 12, 62, 0
13, 61104, Note_on_c, 12, 62, 110
13, 61128, Note_on_c, 12, 62, 0
13, 61152, Note_on_c, 12, 74, 120
13, 61176, Note_on_c, 12, 74, 0
13, 61224, Note_on_c, 12, 62, 110
13, 61236, Note_on_c, 12, 62, 0
13, 61248, Note_on_c, 12, 62, 110
13, 61272, Note_on_c, 12, 62, 0
13, 61296, Note_on_c, 12, 74, 120
13, 61320, Note_on_c, 12, 74, 0
13, 61368, Note_on_c, 12, 62, 110
13, 61380, Note_on_c, 12, 62, 0
13, 61392, Note_on_c, 12, 62, 110
13, 61416, Note_on_c, 12, 62, 0
13, 61584, Note_on_c, 12, 74, 110
13, 61608, Note_on_c, 12, 74, 0
13, 61656, Note_on_c, 12, 62, 100
13, 61668, Note_on_c, 12, 62, 0
13, 61680, Note_on_c, 12, 62, 100
13, 61704, Note_on_c, 12, 62, 0
13, 61728, Note_on_c, 12, 74, 110
13, 61752, Note_on_c, 12, 74, 0
13, 61800, Note_on_c, 12, 62, 100
13, 61812, Note_on_c, 12, 62, 0
13, 61824, Note_on_c, 12, 62, 100
13, 61848, Note_on_c, 12, 62, 0
13, 61872, Note_on_c, 12, 74, 110
13, 61896, Note_on_c, 12, 74, 0
13, 61944, Note_on_c, 12, 62, 100
13, 61956, Note_on_c, 12, 62, 0
13, 61968, Note_on_c, 12, 62, 100
13, 61992, Note_on_c, 12, 62, 0
13, 67584, Note_on_c, 12, 62, 90
13, 67584, Note_on_c, 12, 74, 90
13, 67608, Note_on_c, 12, 74, 0
13, 67608, Note_on_c, 12, 62, 0
13, 67728, Note_on_c, 12, 62, 97
13, 67728, Note_on_c, 12, 74, 97
13, 67752, Note_on_c, 12, 74, 0
13, 67752, Note_on_c, 12, 62, 0
13, 67872, Note_on_c, 12, 62, 104
13, 67872, Note_on_c, 12, 74, 104
13, 67896, Note_on_c, 12, 74, 0
13, 67896, Note_on_c, 12, 62, 0
13, 68016, Note_on_c, 12, 57, 111
13, 68016, Note_on_c, 12, 69, 111
13, 68040, Note_on_c, 12, 69, 0
13, 68040, Note_on_c, 12, 57, 0
13, 68064, Note_on_c, 12, 62, 116
13, 68064, Note_on_c, 12, 74, 116
13, 68088, Note_on_c, 12, 74, 0
13, 68088, Note_on_c, 12, 62, 0
13, 68208, Note_on_c, 12, 62, 116
13, 68208, Note_on_c, 12, 74, 116
13, 68232, Note_on_c, 12, 74, 0
13, 68232, Note_on_c, 12, 62, 0
13, 68304, Note_on_c, 12, 62, 113
13, 68304, Note_on_c, 12, 74, 113
13, 68328, Note_on_c, 12, 74, 0
13, 68328, Note_on_c, 12, 62, 0
13, 68352, Note_on_c, 12, 62, 116
13, 68352, Note_on_c, 12, 74, 116
13, 68376, Note_on_c, 12, 74, 0
13, 68376, Note_on_c, 12, 62, 0
13, 68448, Note_on_c, 12, 62, 113
13, 68448, Note_on_c, 12, 74, 113
13, 68472, Note_on_c, 12, 74, 0
13, 68472, Note_on_c, 12, 62, 0
13, 68496, Note_on_c, 12, 62, 116
13, 68496, Note_on_c, 12, 74, 116
13, 68520, Note_on_c, 12, 74, 0
13, 68520, Note_on_c, 12, 62, 0
13, 68592, Note_on_c, 12, 62, 113
13, 68592, Note_on_c, 12, 74, 113
13, 68616, Note_on_c, 12, 74, 0
13, 68616, Note_on_c, 12, 62, 0
13, 68640, Note_on_c, 12, 62, 116
13, 68640, Note_on_c, 12, 74, 116
13, 68664, Note_on_c, 12, 74, 0
13, 68664, Note_on_c, 12, 62, 0
13, 68784, Note_on_c, 12, 62, 116
13, 68784, Note_on_c, 12, 74, 116
13, 68808, Note_on_c, 12, 74, 0
13, 68808, Note_on_c, 12, 62, 0
13, 68880, Note_on_c, 12, 62, 113
13, 68880, Note_on_c, 12, 74, 113
13, 68904, Note_on_c, 12, 74, 0
13, 68904, Note_on_c, 12, 62, 0
13, 68928, Note_on_c, 12, 62, 116
13, 68928, Note_on_c, 12, 74, 116
13, 68952, Note_on_c, 12, 74, 0
13, 68952, Note_on_c, 12, 62, 0
13, 69024, Note_on_c, 12, 62, 113
13, 69024, Note_on_c, 12, 74, 113
13, 69048, Note_on_c, 12, 74, 0
13, 69048, Note_on_c, 12, 62, 0
13, 69072, Note_on_c, 12, 62, 116
13, 69072, Note_on_c, 12, 74, 116
13, 69096, Note_on_c, 12, 74, 0
13, 69096, Note_on_c, 12, 62, 0
13, 69168, Note_on_c, 12, 62, 113
13, 69168, Note_on_c, 12, 74, 113
13, 69192, Note_on_c, 12, 74, 0
13, 69192, Note_on_c, 12, 62, 0
13, 69216, Note_on_c, 12, 62, 116
13, 69216, Note_on_c, 12, 74, 116
13, 69240, Note_on_c, 12, 74, 0
13, 69240, Note_on_c, 12, 62, 0
13, 69264, Note_on_c, 12, 62, 113
13, 69264, Note_on_c, 12, 74, 113
13, 69288, Note_on_c, 12, 74, 0
13, 69288, Note_on_c, 12, 62, 0
13, 69312, Note_on_c, 12, 62, 113
13, 69312, Note_on_c, 12, 74, 113
13, 69336, Note_on_c, 12, 74, 0
13, 69336, Note_on_c, 12, 62, 0
13, 69360, Note_on_c, 12, 62, 116
13, 69360, Note_on_c, 12, 74, 116
13, 69384, Note_on_c, 12, 74, 0
13, 69384, Note_on_c, 12, 62, 0
13, 69408, Note_on_c, 12, 62, 113
13, 69408, Note_on_c, 12, 74, 113
13, 69432, Note_on_c, 12, 74, 0
13, 69432, Note_on_c, 12, 62, 0
13, 69456, Note_on_c, 12, 62, 113
13, 69456, Note_on_c, 12, 74, 113
13, 69480, Note_on_c, 12, 74, 0
13, 69480, Note_on_c, 12, 62, 0
13, 69504, Note_on_c, 12, 62, 116
13, 69504, Note_on_c, 12, 74, 116
13, 69528, Note_on_c, 12, 74, 0
13, 69528, Note_on_c, 12, 62, 0
13, 69552, Note_on_c, 12, 62, 113
13, 69552, Note_on_c, 12, 74, 113
13, 69576, Note_on_c, 12, 74, 0
13, 69576, Note_on_c, 12, 62, 0
13, 69600, Note_on_c, 12, 62, 113
13, 69600, Note_on_c, 12, 74, 113
13, 69624, Note_on_c, 12, 74, 0
13, 69624, Note_on_c, 12, 62, 0
13, 69648, Note_on_c, 12, 62, 116
13, 69648, Note_on_c, 12, 74, 116
13, 69672, Note_on_c, 12, 74, 0
13, 69672, Note_on_c, 12, 62, 0
13, 69696, Note_on_c, 12, 62, 113
13, 69696, Note_on_c, 12, 74, 113
13, 69720, Note_on_c, 12, 74, 0
13, 69720, Note_on_c, 12, 62, 0
13, 69744, Note_on_c, 12, 62, 113
13, 69744, Note_on_c, 12, 74, 113
13, 69768, Note_on_c, 12, 74, 0
13, 69768, Note_on_c, 12, 62, 0
13, 69792, Note_on_c, 12, 62, 116
13, 69792, Note_on_c, 12, 74, 116
13, 69816, Note_on_c, 12, 74, 0
13, 69816, Note_on_c, 12, 62, 0
13, 69840, Note_on_c, 12, 62, 113
13, 69840, Note_on_c, 12, 74, 113
13, 69864, Note_on_c, 12, 74, 0
13, 69864, Note_on_c, 12, 62, 0
13, 69888, Note_on_c, 12, 62, 113
13, 69888, Note_on_c, 12, 74, 113
13, 69912, Note_on_c, 12, 74, 0
13, 69912, Note_on_c, 12, 62, 0
13, 69936, Note_on_c, 12, 62, 116
13, 69936, Note_on_c, 12, 74, 116
13, 69960, Note_on_c, 12, 74, 0
13, 69960, Note_on_c, 12, 62, 0
13, 69984, Note_on_c, 12, 62, 113
13, 69984, Note_on_c, 12, 74, 113
13, 70008, Note_on_c, 12, 74, 0
13, 70008, Note_on_c, 12, 62, 0
13, 70032, Note_on_c, 12, 62, 113
13, 70032, Note_on_c, 12, 74, 113
13, 70056, Note_on_c, 12, 74, 0
13, 70056, Note_on_c, 12, 62, 0
13, 70080, Note_on_c, 12, 62, 116
13, 70080, Note_on_c, 12, 74, 116
13, 70104, Note_on_c, 12, 74, 0
13, 70104, Note_on_c, 12, 62, 0
13, 70128, Note_on_c, 12, 62, 113
13, 70128, Note_on_c, 12, 74, 113
13, 70152, Note_on_c, 12, 74, 0
13, 70152, Note_on_c, 12, 62, 0
13, 70176, Note_on_c, 12, 62, 113
13, 70176, Note_on_c, 12, 74, 113
13, 70200, Note_on_c, 12, 74, 0
13, 70200, Note_on_c, 12, 62, 0
13, 70224, Note_on_c, 12, 62, 116
13, 70224, Note_on_c, 12, 74, 116
13, 70248, Note_on_c, 12, 74, 0
13, 70248, Note_on_c, 12, 62, 0
13, 70272, Note_on_c, 12, 62, 113
13, 70272, Note_on_c, 12, 74, 113
13, 70296, Note_on_c, 12, 74, 0
13, 70296, Note_on_c, 12, 62, 0
13, 70320, Note_on_c, 12, 62, 113
13, 70320, Note_on_c, 12, 74, 113
13, 70344, Note_on_c, 12, 74, 0
13, 70344, Note_on_c, 12, 62, 0
13, 70368, Note_on_c, 12, 62, 116
13, 70368, Note_on_c, 12, 74, 116
13, 70403, Note_on_c, 12, 74, 0
13, 70403, Note_on_c, 12, 62, 0
13, 70440, Note_on_c, 12, 62, 113
13, 70440, Note_on_c, 12, 74, 113
13, 70452, Note_on_c, 12, 74, 0
13, 70452, Note_on_c, 12, 62, 0
13, 70464, Note_on_c, 12, 62, 113
13, 70464, Note_on_c, 12, 74, 113
13, 70488, Note_on_c, 12, 74, 0
13, 70488, Note_on_c, 12, 62, 0
13, 70512, Note_on_c, 12, 62, 116
13, 70512, Note_on_c, 12, 74, 116
13, 70536, Note_on_c, 12, 74, 0
13, 70536, Note_on_c, 12, 62, 0
13, 70560, Note_on_c, 12, 62, 113
13, 70560, Note_on_c, 12, 74, 113
13, 70584, Note_on_c, 12, 74, 0
13, 70584, Note_on_c, 12, 62, 0
13, 70608, Note_on_c, 12, 62, 113
13, 70608, Note_on_c, 12, 74, 113
13, 70632, Note_on_c, 12, 74, 0
13, 70632, Note_on_c, 12, 62, 0
13, 70656, Note_on_c, 12, 62, 116
13, 70656, Note_on_c, 12, 74, 116
13, 70680, Note_on_c, 12, 74, 0
13, 70680, Note_on_c, 12, 62, 0
13, 70896, Note_on_c, 12, 79, 113
13, 70920, Note_on_c, 12, 79, 0
13, 70944, Note_on_c, 12, 72, 116
13, 70979, Note_on_c, 12, 72, 0
13, 71016, Note_on_c, 12, 72, 113
13, 71028, Note_on_c, 12, 72, 0
13, 71040, Note_on_c, 12, 72, 113
13, 71064, Note_on_c, 12, 72, 0
13, 71088, Note_on_c, 12, 72, 116
13, 71112, Note_on_c, 12, 72, 0
13, 71136, Note_on_c, 12, 72, 113
13, 71160, Note_on_c, 12, 72, 0
13, 71184, Note_on_c, 12, 72, 113
13, 71208, Note_on_c, 12, 72, 0
13, 71232, Note_on_c, 12, 69, 116
13, 71267, Note_on_c, 12, 69, 0
13, 71304, Note_on_c, 12, 69, 113
13, 71316, Note_on_c, 12, 69, 0
13, 71328, Note_on_c, 12, 69, 113
13, 71352, Note_on_c, 12, 69, 0
13, 71376, Note_on_c, 12, 69, 116
13, 71400, Note_on_c, 12, 69, 0
13, 71424, Note_on_c, 12, 69, 113
13, 71448, Note_on_c, 12, 69, 0
13, 71472, Note_on_c, 12, 69, 113
13, 71496, Note_on_c, 12, 69, 0
13, 71520, Note_on_c, 12, 62, 60
13, 71544, Note_on_c, 12, 62, 0
13, 72960, Note_on_c, 12, 62, 100
13, 72960, Note_on_c, 12, 74, 100
13, 72984, Note_on_c, 12, 74, 0
13, 72984, Note_on_c, 12, 62, 0
13, 73104, Note_on_c, 12, 57, 100
13, 73104, Note_on_c, 12, 69, 100
13, 73128, Note_on_c, 12, 69, 0
13, 73128, Note_on_c, 12, 57, 0
13, 73248, Note_on_c, 12, 62, 100
13, 73248, Note_on_c, 12, 74, 100
13, 73272, Note_on_c, 12, 74, 0
13, 73272, Note_on_c, 12, 62, 0
13, 73392, Note_on_c, 12, 62, 105
13, 73392, Note_on_c, 12, 74, 105
13, 73416, Note_on_c, 12, 74, 0
13, 73416, Note_on_c, 12, 62, 0
13, 73440, Note_on_c, 12, 57, 100
13, 73440, Note_on_c, 12, 69, 100
13, 73464, Note_on_c, 12, 69, 0
13, 73464, Note_on_c, 12, 57, 0
13, 73488, Note_on_c, 12, 57, 100
13, 73488, Note_on_c, 12, 69, 100
13, 73512, Note_on_c, 12, 69, 0
13, 73512, Note_on_c, 12, 57, 0
13, 73536, Note_on_c, 12, 62, 100
13, 73536, Note_on_c, 12, 74, 100
13, 73560, Note_on_c, 12, 74, 0
13, 73560, Note_on_c, 12, 62, 0
13, 73824, Note_on_c, 12, 62, 100
13, 73824, Note_on_c, 12, 74, 100
13, 73848, Note_on_c, 12, 74, 0
13, 73848, Note_on_c, 12, 62, 0
13, 73968, Note_on_c, 12, 57, 100
13, 73968, Note_on_c, 12, 69, 100
13, 73992, Note_on_c, 12, 69, 0
13, 73992, Note_on_c, 12, 57, 0
13, 74112, Note_on_c, 12, 62, 100
13, 74112, Note_on_c, 12, 74, 100
13, 74136, Note_on_c, 12, 74, 0
13, 74136, Note_on_c, 12, 62, 0
13, 74256, Note_on_c, 12, 57, 105
13, 74256, Note_on_c, 12, 69, 105
13, 74291, Note_on_c, 12, 69, 0
13, 74291, Note_on_c, 12, 57, 0
13, 74328, Note_on_c, 12, 57, 100
13, 74328, Note_on_c, 12, 69, 100
13, 74340, Note_on_c, 12, 69, 0
13, 74340, Note_on_c, 12, 57, 0
13, 74352, Note_on_c, 12, 57, 100
13, 74352, Note_on_c, 12, 69, 100
13, 74376, Note_on_c, 12, 69, 0
13, 74376, Note_on_c, 12, 57, 0
13, 74544, Note_on_c, 12, 57, 105
13, 74544, Note_on_c, 12, 69, 105
13, 74579, Note_on_c, 12, 69, 0
13, 74579, Note_on_c, 12, 57, 0
13, 74616, Note_on_c, 12, 57, 100
13, 74616, Note_on_c, 12, 69, 100
13, 74628, Note_on_c, 12, 69, 0
13, 74628, Note_on_c, 12, 57, 0
13, 74640, Note_on_c, 12, 57, 100
13, 74640, Note_on_c, 12, 69, 100
13, 74664, Note_on_c, 12, 69, 0
13, 74664, Note_on_c, 12, 57, 0
13, 79872, Note_on_c, 12, 69, 105
13, 79907, Note_on_c, 12, 69, 0
13, 79944, Note_on_c, 12, 57, 100
13, 79944, Note_on_c, 12, 69, 100
13, 79956, Note_on_c, 12, 69, 0
13, 79956, Note_on_c, 12, 57, 0
13, 79968, Note_on_c, 12, 57, 100
13, 79968, Note_on_c, 12, 69, 100
13, 79992, Note_on_c, 12, 69, 0
13, 79992, Note_on_c, 12, 57, 0
13, 86112, Note_on_c, 12, 74, 60
13, 86147, Note_on_c, 12, 74, 0
13, 86184, Note_on_c, 12, 62, 50
13, 86196, Note_on_c, 12, 62, 0
13, 86208, Note_on_c, 12, 62, 50
13, 86232, Note_on_c, 12, 62, 0
13, 92448, Note_on_c, 12, 74, 70
13, 92483, Note_on_c, 12, 74, 0
13, 92520, Note_on_c, 12, 62, 60
13, 92532, Note_on_c, 12, 62, 0
13, 92544, Note_on_c, 12, 62, 60
13, 92568, Note_on_c, 12, 62, 0
13, 93024, Note_on_c, 12, 74, 85
13, 93059, Note_on_c, 12, 74, 0
13, 93096, Note_on_c, 12, 62, 75
13, 93108, Note_on_c, 12, 62, 0
13, 93120, Note_on_c, 12, 62, 75
13, 93144, Note_on_c, 12, 62, 0
13, 93312, Note_on_c, 12, 74, 120
13, 93336, Note_on_c, 12, 74, 0
13, 93384, Note_on_c, 12, 62, 110
13, 93396, Note_on_c, 12, 62, 0
13, 93408, Note_on_c, 12, 62, 110
13, 93432, Note_on_c, 12, 62, 0
13, 93456, Note_on_c, 12, 74, 120
13, 93480, Note_on_c, 12, 74, 0
13, 93528, Note_on_c, 12, 62, 110
13, 93540, Note_on_c, 12, 62, 0
13, 93552, Note_on_c, 12, 62, 110
13, 93576, Note_on_c, 12, 62, 0
13, 93600, Note_on_c, 12, 74, 120
13, 93624, Note_on_c, 12, 74, 0
13, 93672, Note_on_c, 12, 62, 110
13, 93684, Note_on_c, 12, 62, 0
13, 93696, Note_on_c, 12, 62, 110
13, 93720, Note_on_c, 12, 62, 0
13, 93744, Note_on_c, 12, 74, 120
13, 93768, Note_on_c, 12, 74, 0
13, 93816, Note_on_c, 12, 62, 110
13, 93828, Note_on_c, 12, 62, 0
13, 93840, Note_on_c, 12, 62, 110
13, 93864, Note_on_c, 12, 62, 0
13, 93888, Note_on_c, 12, 74, 120
13, 93912, Note_on_c, 12, 74, 0
13, 93960, Note_on_c, 12, 62, 110
13, 93972, Note_on_c, 12, 62, 0
13, 93984, Note_on_c, 12, 62, 110
13, 94008, Note_on_c, 12, 62, 0
13, 94032, Note_on_c, 12, 74, 120
13, 94056, Note_on_c, 12, 74, 0
13, 94104, Note_on_c, 12, 62, 110
13, 94116, Note_on_c, 12, 62, 0
13, 94128, Note_on_c, 12, 62, 110
13, 94152, Note_on_c, 12, 62, 0
13, 94176, Note_on_c, 12, 74, 120
13, 94200, Note_on_c, 12, 74, 0
13, 94248, Note_on_c, 12, 62, 110
13, 94260, Note_on_c, 12, 62, 0
13, 94272, Note_on_c, 12, 62, 110
13, 94296, Note_on_c, 12, 62, 0
13, 94320, Note_on_c, 12, 74, 120
13, 94344, Note_on_c, 12, 74, 0
13, 94392, Note_on_c, 12, 62, 110
13, 94404, Note_on_c, 12, 62, 0
13, 94416, Note_on_c, 12, 62, 110
13, 94440, Note_on_c, 12, 62, 0
13, 94464, Note_on_c, 12, 74, 120
13, 94488, Note_on_c, 12, 74, 0
13, 94536, Note_on_c, 12, 62, 110
13, 94548, Note_on_c, 12, 62, 0
13, 94560, Note_on_c, 12, 62, 110
13, 94584, Note_on_c, 12, 62, 0
13, 94608, Note_on_c, 12, 74, 120
13, 94632, Note_on_c, 12, 74, 0
13, 94680, Note_on_c, 12, 62, 110
13, 94692, Note_on_c, 12, 62, 0
13, 94704, Note_on_c, 12, 62, 110
13, 94728, Note_on_c, 12, 62, 0
13, 94752, Note_on_c, 12, 74, 120
13, 94776, Note_on_c, 12, 74, 0
13, 94824, Note_on_c, 12, 62, 110
13, 94836, Note_on_c, 12, 62, 0
13, 94848, Note_on_c, 12, 62, 110
13, 94872, Note_on_c, 12, 62, 0
13, 94896, Note_on_c, 12, 74, 120
13, 94920, Note_on_c, 12, 74, 0
13, 94968, Note_on_c, 12, 62, 110
13, 94980, Note_on_c, 12, 62, 0
13, 94992, Note_on_c, 12, 62, 110
13, 95016, Note_on_c, 12, 62, 0
13, 95040, Note_on_c, 12, 74, 120
13, 95064, Note_on_c, 12, 74, 0
13, 95112, Note_on_c, 12, 62, 110
13, 95124, Note_on_c, 12, 62, 0
13, 95136, Note_on_c, 12, 62, 110
13, 95160, Note_on_c, 12, 62, 0
13, 95184, Note_on_c, 12, 74, 120
13, 95208, Note_on_c, 12, 74, 0
13, 95256, Note_on_c, 12, 62, 110
13, 95268, Note_on_c, 12, 62, 0
13, 95280, Note_on_c, 12, 62, 110
13, 95304, Note_on_c, 12, 62, 0
13, 95328, Note_on_c, 12, 74, 120
13, 95352, Note_on_c, 12, 74, 0
13, 95400, Note_on_c, 12, 62, 110
13, 95412, Note_on_c, 12, 62, 0
13, 95424, Note_on_c, 12, 62, 110
13, 95448, Note_on_c, 12, 62, 0
13, 95472, Note_on_c, 12, 74, 120
13, 95496, Note_on_c, 12, 74, 0
13, 95544, Note_on_c, 12, 62, 110
13, 95556, Note_on_c, 12, 62, 0
13, 95568, Note_on_c, 12, 62, 110
13, 95592, Note_on_c, 12, 62, 0
13, 95616, Note_on_c, 12, 74, 120
13, 95640, Note_on_c, 12, 74, 0
13, 95688, Note_on_c, 12, 62, 110
13, 95700, Note_on_c, 12, 62, 0
13, 95712, Note_on_c, 12, 62, 110
13, 95736, Note_on_c, 12, 62, 0
13, 95760, Note_on_c, 12, 74, 120
13, 95784, Note_on_c, 12, 74, 0
13, 95832, Note_on_c, 12, 62, 110
13, 95844, Note_on_c, 12, 62, 0
13, 95856, Note_on_c, 12, 62, 110
13, 95880, Note_on_c, 12, 62, 0
13, 95904, Note_on_c, 12, 74, 120
13, 95928, Note_on_c, 12, 74, 0
13, 95976, Note_on_c, 12, 62, 110
13, 95988, Note_on_c, 12, 62, 0
13, 96000, Note_on_c, 12, 62, 110
13, 96024, Note_on_c, 12, 62, 0
13, 96048, Note_on_c, 12, 74, 120
13, 96072, Note_on_c, 12, 74, 0
13, 96120, Note_on_c, 12, 62, 110
13, 96132, Note_on_c, 12, 62, 0
13, 96144, Note_on_c, 12, 62, 110
13, 96168, Note_on_c, 12, 62, 0
13, 96336, Note_on_c, 12, 74, 110
13, 96360, Note_on_c, 12, 74, 0
13, 96408, Note_on_c, 12, 62, 100
13, 96420, Note_on_c, 12, 62, 0
13, 96432, Note_on_c, 12, 62, 100
13, 96456, Note_on_c, 12, 62, 0
13, 96480, Note_on_c, 12, 74, 110
13, 96504, Note_on_c, 12, 74, 0
13, 96552, Note_on_c, 12, 62, 100
13, 96564, Note_on_c, 12, 62, 0
13, 96576, Note_on_c, 12, 62, 100
13, 96600, Note_on_c, 12, 62, 0
13, 96624, Note_on_c, 12, 74, 110
13, 96648, Note_on_c, 12, 74, 0
13, 96696, Note_on_c, 12, 62, 100
13, 96708, Note_on_c, 12, 62, 0
13, 96720, Note_on_c, 12, 62, 100
13, 96744, Note_on_c, 12, 62, 0
13, 102336, Note_on_c, 12, 62, 90
13, 102336, Note_on_c, 12, 74, 90
13, 102360, Note_on_c, 12, 74, 0
13, 102360, Note_on_c, 12, 62, 0
13, 102480, Note_on_c, 12, 62, 97
13, 102480, Note_on_c, 12, 74, 97
13, 102504, Note_on_c, 12, 74, 0
13, 102504, Note_on_c, 12, 62, 0
13, 102624, Note_on_c, 12, 62, 104
13, 102624, Note_on_c, 12, 74, 104
13, 102648, Note_on_c, 12, 74, 0
13, 102648, Note_on_c, 12, 62, 0
13, 102768, Note_on_c, 12, 57, 111
13, 102768, Note_on_c, 12, 69, 111
13, 102792, Note_on_c, 12, 69, 0
13, 102792, Note_on_c, 12, 57, 0
13, 102816, Note_on_c, 12, 62, 116
13, 102816, Note_on_c, 12, 74, 116
13, 102840, Note_on_c, 12, 74, 0
13, 102840, Note_on_c, 12, 62, 0
13, 102960, Note_on_c, 12, 62, 116
13, 102960, Note_on_c, 12, 74, 116
13, 102984, Note_on_c, 12, 74, 0
13, 102984, Note_on_c, 12, 62, 0
13, 103056, Note_on_c, 12, 62, 113
13, 103056, Note_on_c, 12, 74, 113
13, 103080, Note_on_c, 12, 74, 0
13, 103080, Note_on_c, 12, 62, 0
13, 103104, Note_on_c, 12, 62, 116
13, 103104, Note_on_c, 12, 74, 116
13, 103128, Note_on_c, 12, 74, 0
13, 103128, Note_on_c, 12, 62, 0
13, 103200, Note_on_c, 12, 62, 113
13, 103200, Note_on_c, 12, 74, 113
13, 103224, Note_on_c, 12, 74, 0
13, 103224, Note_on_c, 12, 62, 0
13, 103248, Note_on_c, 12, 62, 116
13, 103248, Note_on_c, 12, 74, 116
13, 103272, Note_on_c, 12, 74, 0
13, 103272, Note_on_c, 12, 62, 0
13, 103344, Note_on_c, 12, 62, 113
13, 103344, Note_on_c, 12, 74, 113
13, 103368, Note_on_c, 12, 74, 0
13, 103368, Note_on_c, 12, 62, 0
13, 103392, Note_on_c, 12, 62, 116
13, 103392, Note_on_c, 12, 74, 116
13, 103416, Note_on_c, 12, 74, 0
13, 103416, Note_on_c, 12, 62, 0
13, 103536, Note_on_c, 12, 62, 116
13, 103536, Note_on_c, 12, 74, 116
13, 103560, Note_on_c, 12, 74, 0
13, 103560, Note_on_c, 12, 62, 0
13, 103632, Note_on_c, 12, 62, 113
13, 103632, Note_on_c, 12, 74, 113
13, 103656, Note_on_c, 12, 74, 0
13, 103656, Note_on_c, 12, 62, 0
13, 103680, Note_on_c, 12, 62, 116
13, 103680, Note_on_c, 12, 74, 116
13, 103704, Note_on_c, 12, 74, 0
13, 103704, Note_on_c, 12, 62, 0
13, 103776, Note_on_c, 12, 62, 113
13, 103776, Note_on_c, 12, 74, 113
13, 103800, Note_on_c, 12, 74, 0
13, 103800, Note_on_c, 12, 62, 0
13, 103824, Note_on_c, 12, 62, 116
13, 103824, Note_on_c, 12, 74, 116
13, 103848, Note_on_c, 12, 74, 0
13, 103848, Note_on_c, 12, 62, 0
13, 103920, Note_on_c, 12, 62, 113
13, 103920, Note_on_c, 12, 74, 113
13, 103944, Note_on_c, 12, 74, 0
13, 103944, Note_on_c, 12, 62, 0
13, 103968, Note_on_c, 12, 62, 116
13, 103968, Note_on_c, 12, 74, 116
13, 103992, Note_on_c, 12, 74, 0
13, 103992, Note_on_c, 12, 62, 0
13, 104016, Note_on_c, 12, 62, 113
13, 104016, Note_on_c, 12, 74, 113
13, 104040, Note_on_c, 12, 74, 0
13, 104040, Note_on_c, 12, 62, 0
13, 104064, Note_on_c, 12, 62, 113
13, 104064, Note_on_c, 12, 74, 113
13, 104088, Note_on_c, 12, 74, 0
13, 104088, Note_on_c, 12, 62, 0
13, 104112, Note_on_c, 12, 62, 116
13, 104112, Note_on_c, 12, 74, 116
13, 104136, Note_on_c, 12, 74, 0
13, 104136, Note_on_c, 12, 62, 0
13, 104160, Note_on_c, 12, 62, 113
13, 104160, Note_on_c, 12, 74, 113
13, 104184, Note_on_c, 12, 74, 0
13, 104184, Note_on_c, 12, 62, 0
13, 104208, Note_on_c, 12, 62, 113
13, 104208, Note_on_c, 12, 74, 113
13, 104232, Note_on_c, 12, 74, 0
13, 104232, Note_on_c, 12, 62, 0
13, 104256, Note_on_c, 12, 62, 116
13, 104256, Note_on_c, 12, 74, 116
13, 104280, Note_on_c, 12, 74, 0
13, 104280, Note_on_c, 12, 62, 0
13, 104304, Note_on_c, 12, 62, 113
13, 104304, Note_on_c, 12, 74, 113
13, 104328, Note_on_c, 12, 74, 0
13, 104328, Note_on_c, 12, 62, 0
13, 104352, Note_on_c, 12, 62, 113
13, 104352, Note_on_c, 12, 74, 113
13, 104376, Note_on_c, 12, 74, 0
13, 104376, Note_on_c, 12, 62, 0
13, 104400, Note_on_c, 12, 62, 116
13, 104400, Note_on_c, 12, 74, 116
13, 104424, Note_on_c, 12, 74, 0
13, 104424, Note_on_c, 12, 62, 0
13, 104448, Note_on_c, 12, 62, 113
13, 104448, Note_on_c, 12, 74, 113
13, 104472, Note_on_c, 12, 74, 0
13, 104472, Note_on_c, 12, 62, 0
13, 104496, Note_on_c, 12, 62, 113
13, 104496, Note_on_c, 12, 74, 113
13, 104520, Note_on_c, 12, 74, 0
13, 104520, Note_on_c, 12, 62, 0
13, 104544, Note_on_c, 12, 62, 116
13, 104544, Note_on_c, 12, 74, 116
13, 104568, Note_on_c, 12, 74, 0
13, 104568, Note_on_c, 12, 62, 0
13, 104592, Note_on_c, 12, 62, 113
13, 104592, Note_on_c, 12, 74, 113
13, 104616, Note_on_c, 12, 74, 0
13, 104616, Note_on_c, 12, 62, 0
13, 104640, Note_on_c, 12, 62, 113
13, 104640, Note_on_c, 12, 74, 113
13, 104664, Note_on_c, 12, 74, 0
13, 104664, Note_on_c, 12, 62, 0
13, 104688, Note_on_c, 12, 62, 116
13, 104688, Note_on_c, 12, 74, 116
13, 104712, Note_on_c, 12, 74, 0
13, 104712, Note_on_c, 12, 62, 0
13, 104736, Note_on_c, 12, 62, 113
13, 104736, Note_on_c, 12, 74, 113
13, 104760, Note_on_c, 12, 74, 0
13, 104760, Note_on_c, 12, 62, 0
13, 104784, Note_on_c, 12, 62, 113
13, 104784, Note_on_c, 12, 74, 113
13, 104808, Note_on_c, 12, 74, 0
13, 104808, Note_on_c, 12, 62, 0
13, 104832, Note_on_c, 12, 62, 116
13, 104832, Note_on_c, 12, 74, 116
13, 104856, Note_on_c, 12, 74, 0
13, 104856, Note_on_c, 12, 62, 0
13, 104880, Note_on_c, 12, 62, 113
13, 104880, Note_on_c, 12, 74, 113
13, 104904, Note_on_c, 12, 74, 0
13, 104904, Note_on_c, 12, 62, 0
13, 104928, Note_on_c, 12, 62, 113
13, 104928, Note_on_c, 12, 74, 113
13, 104952, Note_on_c, 12, 74, 0
13, 104952, Note_on_c, 12, 62, 0
13, 104976, Note_on_c, 12, 62, 116
13, 104976, Note_on_c, 12, 74, 116
13, 105000, Note_on_c, 12, 74, 0
13, 105000, Note_on_c, 12, 62, 0
13, 105024, Note_on_c, 12, 62, 113
13, 105024, Note_on_c, 12, 74, 113
13, 105048, Note_on_c, 12, 74, 0
13, 105048, Note_on_c, 12, 62, 0
13, 105072, Note_on_c, 12, 62, 113
13, 105072, Note_on_c, 12, 74, 113
13, 105096, Note_on_c, 12, 74, 0
13, 105096, Note_on_c, 12, 62, 0
13, 105120, Note_on_c, 12, 62, 116
13, 105120, Note_on_c, 12, 74, 116
13, 105155, Note_on_c, 12, 74, 0
13, 105155, Note_on_c, 12, 62, 0
13, 105192, Note_on_c, 12, 62, 113
13, 105192, Note_on_c, 12, 74, 113
13, 105204, Note_on_c, 12, 74, 0
13, 105204, Note_on_c, 12, 62, 0
13, 105216, Note_on_c, 12, 62, 113
13, 105216, Note_on_c, 12, 74, 113
13, 105240, Note_on_c, 12, 74, 0
13, 105240, Note_on_c, 12, 62, 0
13, 105264, Note_on_c, 12, 62, 116
13, 105264, Note_on_c, 12, 74, 116
13, 105288, Note_on_c, 12, 74, 0
13, 105288, Note_on_c, 12, 62, 0
13, 105312, Note_on_c, 12, 62, 113
13, 105312, Note_on_c, 12, 74, 113
13, 105336, Note_on_c, 12, 74, 0
13, 105336, Note_on_c, 12, 62, 0
13, 105360, Note_on_c, 12, 62, 113
13, 105360, Note_on_c, 12, 74, 113
13, 105384, Note_on_c, 12, 74, 0
13, 105384, Note_on_c, 12, 62, 0
13, 105408, Note_on_c, 12, 62, 116
13, 105408, Note_on_c, 12, 74, 116
13, 105432, Note_on_c, 12, 74, 0
13, 105432, Note_on_c, 12, 62, 0
13, 105648, Note_on_c, 12, 79, 113
13, 105672, Note_on_c, 12, 79, 0
13, 105696, Note_on_c, 12, 72, 116
13, 105731, Note_on_c, 12, 72, 0
13, 105768, Note_on_c, 12, 72, 113
13, 105780, Note_on_c, 12, 72, 0
13, 105792, Note_on_c, 12, 72, 113
13, 105816, Note_on_c, 12, 72, 0
13, 105840, Note_on_c, 12, 72, 116
13, 105864, Note_on_c, 12, 72, 0
13, 105888, Note_on_c, 12, 72, 113
13, 105912, Note_on_c, 12, 72, 0
13, 105936, Note_on_c, 12, 72, 113
13, 105960, Note_on_c, 12, 72, 0
13, 105984, Note_on_c, 12, 69, 116
13, 106019, Note_on_c, 12, 69, 0
13, 106056, Note_on_c, 12, 69, 113
13, 106068, Note_on_c, 12, 69, 0
13, 106080, Note_on_c, 12, 69, 113
13, 106104, Note_on_c, 12, 69, 0
13, 106128, Note_on_c, 12, 69, 116
13, 106152, Note_on_c, 12, 69, 0
13, 106176, Note_on_c, 12, 69, 113
13, 106200, Note_on_c, 12, 69, 0
13, 106224, Note_on_c, 12, 69, 113
13, 106248, Note_on_c, 12, 69, 0
13, 106272, Note_on_c, 12, 62, 60
13, 106296, Note_on_c, 12, 62, 0
13, 107712, Note_on_c, 12, 62, 100
13, 107712, Note_on_c, 12, 74, 100
13, 107736, Note_on_c, 12, 74, 0
13, 107736, Note_on_c, 12, 62, 0
13, 107856, Note_on_c, 12, 57, 100
13, 107856, Note_on_c, 12, 69, 100
13, 107880, Note_on_c, 12, 69, 0
13, 107880, Note_on_c, 12, 57, 0
13, 108000, Note_on_c, 12, 62, 100
13, 108000, Note_on_c, 12, 74, 100
13, 108024, Note_on_c, 12, 74, 0
13, 108024, Note_on_c, 12, 62, 0
13, 108144, Note_on_c, 12, 62, 105
13, 108144, Note_on_c, 12, 74, 105
13, 108168, Note_on_c, 12, 74, 0
13, 108168, Note_on_c, 12, 62, 0
13, 108192, Note_on_c, 12, 57, 100
13, 108192, Note_on_c, 12, 69, 100
13, 108216, Note_on_c, 12, 69, 0
13, 108216, Note_on_c, 12, 57, 0
13, 108240, Note_on_c, 12, 57, 100
13, 108240, Note_on_c, 12, 69, 100
13, 108264, Note_on_c, 12, 69, 0
13, 108264, Note_on_c, 12, 57, 0
13, 108288, Note_on_c, 12, 62, 100
13, 108288, Note_on_c, 12, 74, 100
13, 108312, Note_on_c, 12, 74, 0
13, 108312, Note_on_c, 12, 62, 0
13, 108576, Note_on_c, 12, 62, 100
13, 108576, Note_on_c, 12, 74, 100
13, 108600, Note_on_c, 12, 74, 0
13, 108600, Note_on_c, 12, 62, 0
13, 108720, Note_on_c, 12, 57, 100
13, 108720, Note_on_c, 12, 69, 100
13, 108744, Note_on_c, 12, 69, 0
13, 108744, Note_on_c, 12, 57, 0
13, 108864, Note_on_c, 12, 62, 100
13, 108864, Note_on_c, 12, 74, 100
13, 108888, Note_on_c, 12, 74, 0
13, 108888, Note_on_c, 12, 62, 0
13, 109008, Note_on_c, 12, 57, 105
13, 109008, Note_on_c, 12, 69, 105
13, 109043, Note_on_c, 12, 69, 0
13, 109043, Note_on_c, 12, 57, 0
13, 109080, Note_on_c, 12, 57, 100
13, 109080, Note_on_c, 12, 69, 100
13, 109092, Note_on_c, 12, 69, 0
13, 109092, Note_on_c, 12, 57, 0
13, 109104, Note_on_c, 12, 57, 100
13, 109104, Note_on_c, 12, 69, 100
13, 109128, Note_on_c, 12, 69, 0
13, 109128, Note_on_c, 12, 57, 0
13, 109296, Note_on_c, 12, 57, 105
13, 109296, Note_on_c, 12, 69, 105
13, 109331, Note_on_c, 12, 69, 0
13, 109331, Note_on_c, 12, 57, 0
13, 109368, Note_on_c, 12, 57, 100
13, 109368, Note_on_c, 12, 69, 100
13, 109380, Note_on_c, 12, 69, 0
13, 109380, Note_on_c, 12, 57, 0
13, 109392, Note_on_c, 12, 57, 100
13, 109392, Note_on_c, 12, 69, 100
13, 109416, Note_on_c, 12, 69, 0
13, 109416, Note_on_c, 12, 57, 0
13, 112032, Note_on_c, 12, 62, 100
13, 112032, Note_on_c, 12, 74, 100
13, 112067, Note_on_c, 12, 74, 0
13, 112067, Note_on_c, 12, 62, 0
13, 112104, Note_on_c, 12, 62, 104
13, 112104, Note_on_c, 12, 74, 104
13, 112116, Note_on_c, 12, 74, 0
13, 112116, Note_on_c, 12, 62, 0
13, 112128, Note_on_c, 12, 62, 106
13, 112128, Note_on_c, 12, 74, 106
13, 112152, Note_on_c, 12, 74, 0
13, 112152, Note_on_c, 12, 62, 0
13, 112176, Note_on_c, 12, 57, 109
13, 112176, Note_on_c, 12, 69, 109
13, 112211, Note_on_c, 12, 69, 0
13, 112211, Note_on_c, 12, 57, 0
13, 112248, Note_on_c, 12, 57, 113
13, 112248, Note_on_c, 12, 69, 113
13, 112260, Note_on_c, 12, 69, 0
13, 112260, Note_on_c, 12, 57, 0
13, 112272, Note_on_c, 12, 57, 114
13, 112272, Note_on_c, 12, 69, 114
13, 112317, Note_on_c, 12, 69, 0
13, 112317, Note_on_c, 12, 57, 0
13, 113520, Note_on_c, 12, 57, 50
13, 113520, Note_on_c, 12, 69, 50
13, 113544, Note_on_c, 12, 69, 0
13, 113544, Note_on_c, 12, 57, 0
13, 113664, Note_on_c, 12, 62, 57
13, 113688, Note_on_c, 12, 62, 0
13, 113808, Note_on_c, 12, 57, 65
13, 113808, Note_on_c, 12, 69, 65
13, 113832, Note_on_c, 12, 69, 0
13, 113832, Note_on_c, 12, 57, 0
13, 113952, Note_on_c, 12, 62, 73
13, 113976, Note_on_c, 12, 62, 0
13, 114096, Note_on_c, 12, 57, 81
13, 114096, Note_on_c, 12, 69, 81
13, 114120, Note_on_c, 12, 69, 0
13, 114120, Note_on_c, 12, 57, 0
13, 114240, Note_on_c, 12, 62, 89
13, 114264, Note_on_c, 12, 62, 0
13, 114384, Note_on_c, 12, 57, 97
13, 114384, Note_on_c, 12, 69, 97
13, 114408, Note_on_c, 12, 69, 0
13, 114408, Note_on_c, 12, 57, 0
13, 114528, Note_on_c, 12, 62, 105
13, 114552, Note_on_c, 12, 62, 0
13, 114672, Note_on_c, 12, 57, 127
13, 114672, Note_on_c, 12, 69, 127
13, 114696, Note_on_c, 12, 69, 0
13, 114696, Note_on_c, 12, 57, 0
13, 114768, Note_on_c, 12, 62, 125
13, 114768, Note_on_c, 12, 74, 125
13, 114792, Note_on_c, 12, 74, 0
13, 114792, Note_on_c, 12, 62, 0
13, 114864, Note_on_c, 12, 57, 125
13, 114864, Note_on_c, 12, 69, 125
13, 114888, Note_on_c, 12, 69, 0
13, 114888, Note_on_c, 12, 57, 0
13, 114960, Note_on_c, 12, 57, 125
13, 114960, Note_on_c, 12, 69, 125
13, 114984, Note_on_c, 12, 69, 0
13, 114984, Note_on_c, 12, 57, 0
13, 115056, Note_on_c, 12, 62, 125
13, 115056, Note_on_c, 12, 74, 125
13, 115080, Note_on_c, 12, 74, 0
13, 115080, Note_on_c, 12, 62, 0
13, 128304, Control_c, 12, 11, 120
13, 128304, Note_on_c, 12, 62, 100
13, 128304, Note_on_c, 12, 74, 100
13, 128328, Note_on_c, 12, 74, 0
13, 128328, Note_on_c, 12, 62, 0
13, 129936, Note_on_c, 12, 62, 100
13, 129936, Note_on_c, 12, 74, 100
13, 129960, Note_on_c, 12, 74, 0
13, 129960, Note_on_c, 12, 62, 0
13, 130128, Note_on_c, 12, 62, 100
13, 130128, Note_on_c, 12, 74, 100
13, 130152, Note_on_c, 12, 74, 0
13, 130152, Note_on_c, 12, 62, 0
13, 130320, Note_on_c, 12, 62, 100
13, 130320, Note_on_c, 12, 74, 100
13, 130344, Note_on_c, 12, 74, 0
13, 130344, Note_on_c, 12, 62, 0
13, 130512, Note_on_c, 12, 62, 100
13, 130512, Note_on_c, 12, 74, 100
13, 130536, Note_on_c, 12, 74, 0
13, 130536, Note_on_c, 12, 62, 0
13, 130704, Note_on_c, 12, 62, 100
13, 130704, Note_on_c, 12, 74, 100
13, 130728, Note_on_c, 12, 74, 0
13, 130728, Note_on_c, 12, 62, 0
13, 130896, Note_on_c, 12, 62, 100
13, 130896, Note_on_c, 12, 74, 100
13, 130920, Note_on_c, 12, 74, 0
13, 130920, Note_on_c, 12, 62, 0
13, 131088, Note_on_c, 12, 62, 100
13, 131088, Note_on_c, 12, 74, 100
13, 131112, Note_on_c, 12, 74, 0
13, 131112, Note_on_c, 12, 62, 0
13, 131184, Note_on_c, 12, 62, 100
13, 131184, Note_on_c, 12, 74, 100
13, 131208, Note_on_c, 12, 74, 0
13, 131208, Note_on_c, 12, 62, 0
13, 131280, Note_on_c, 12, 57, 100
13, 131280, Note_on_c, 12, 69, 100
13, 131304, Note_on_c, 12, 69, 0
13, 131304, Note_on_c, 12, 57, 0
13, 131376, Note_on_c, 12, 62, 100
13, 131376, Note_on_c, 12, 74, 100
13, 131400, Note_on_c, 12, 74, 0
13, 131400, Note_on_c, 12, 62, 0
13, 141552, Control_c, 12, 11, 120
13, 141552, Note_on_c, 12, 62, 100
13, 141552, Note_on_c, 12, 74, 100
13, 141576, Note_on_c, 12, 74, 0
13, 141576, Note_on_c, 12, 62, 0
13, 143184, Note_on_c, 12, 62, 100
13, 143184, Note_on_c, 12, 74, 100
13, 143208, Note_on_c, 12, 74, 0
13, 143208, Note_on_c, 12, 62, 0
13, 143376, Note_on_c, 12, 62, 100
13, 143376, Note_on_c, 12, 74, 100
13, 143400, Note_on_c, 12, 74, 0
13, 143400, Note_on_c, 12, 62, 0
13, 143568, Note_on_c, 12, 62, 100
13, 143568, Note_on_c, 12, 74, 100
13, 143592, Note_on_c, 12, 74, 0
13, 143592, Note_on_c, 12, 62, 0
13, 143760, Note_on_c, 12, 62, 100
13, 143760, Note_on_c, 12, 74, 100
13, 143784, Note_on_c, 12, 74, 0
13, 143784, Note_on_c, 12, 62, 0
13, 143952, Note_on_c, 12, 62, 100
13, 143952, Note_on_c, 12, 74, 100
13, 143976, Note_on_c, 12, 74, 0
13, 143976, Note_on_c, 12, 62, 0
13, 144144, Note_on_c, 12, 62, 100
13, 144144, Note_on_c, 12, 74, 100
13, 144168, Note_on_c, 12, 74, 0
13, 144168, Note_on_c, 12, 62, 0
13, 144336, Note_on_c, 12, 62, 100
13, 144336, Note_on_c, 12, 74, 100
13, 144360, Note_on_c, 12, 74, 0
13, 144360, Note_on_c, 12, 62, 0
13, 144432, Note_on_c, 12, 62, 100
13, 144432, Note_on_c, 12, 74, 100
13, 144456, Note_on_c, 12, 74, 0
13, 144456, Note_on_c, 12, 62, 0
13, 144528, Note_on_c, 12, 57, 100
13, 144528, Note_on_c, 12, 69, 100
13, 144552, Note_on_c, 12, 69, 0
13, 144552, Note_on_c, 12, 57, 0
13, 146832, Control_c, 12, 11, 85
13, 146832, Note_on_c, 12, 57, 120
13, 146832, Note_on_c, 12, 69, 120
13, 146842, Control_c, 12, 11, 86
13, 146851, Control_c, 12, 11, 87
13, 146861, Control_c, 12, 11, 88
13, 146870, Control_c, 12, 11, 89
13, 146880, Control_c, 12, 11, 90
13, 146889, Control_c, 12, 11, 91
13, 146899, Control_c, 12, 11, 92
13, 146908, Control_c, 12, 11, 93
13, 146918, Control_c, 12, 11, 94
13, 146924, Note_on_c, 12, 69, 0
13, 146924, Note_on_c, 12, 57, 0
13, 146927, Control_c, 12, 11, 95
13, 146928, Note_on_c, 12, 57, 120
13, 146928, Note_on_c, 12, 66, 120
13, 146998, Note_on_c, 12, 66, 0
13, 146998, Note_on_c, 12, 57, 0
13, 147024, Note_on_c, 12, 57, 120
13, 147024, Note_on_c, 12, 66, 120
13, 147094, Note_on_c, 12, 66, 0
13, 147094, Note_on_c, 12, 57, 0
13, 147120, Note_on_c, 12, 57, 120
13, 147120, Note_on_c, 12, 69, 120
13, 147190, Note_on_c, 12, 69, 0
13, 147190, Note_on_c, 12, 57, 0
13, 147216, Note_on_c, 12, 57, 120
13, 147216, Note_on_c, 12, 69, 120
13, 147286, Note_on_c, 12, 69, 0
13, 147286, Note_on_c, 12, 57, 0
13, 147312, Control_c, 12, 11, 95
13, 147312, Note_on_c, 12, 57, 120
13, 147312, Note_on_c, 12, 66, 120
13, 147325, Control_c, 12, 11, 94
13, 147338, Control_c, 12, 11, 93
13, 147351, Control_c, 12, 11, 92
13, 147364, Control_c, 12, 11, 91
13, 147376, Control_c, 12, 11, 90
13, 147382, Note_on_c, 12, 66, 0
13, 147382, Note_on_c, 12, 57, 0
13, 147389, Control_c, 12, 11, 89
13, 147402, Control_c, 12, 11, 88
13, 147408, Note_on_c, 12, 57, 120
13, 147408, Note_on_c, 12, 66, 120
13, 147415, Control_c, 12, 11, 87
13, 147427, Control_c, 12, 11, 86
13, 147440, Control_c, 12, 11, 85
13, 147453, Control_c, 12, 11, 84
13, 147466, Control_c, 12, 11, 83
13, 147478, Note_on_c, 12, 66, 0
13, 147478, Note_on_c, 12, 57, 0
13, 147478, Control_c, 12, 11, 82
13, 147491, Control_c, 12, 11, 81
13, 147504, Note_on_c, 12, 57, 120
13, 147504, Note_on_c, 12, 69, 120
13, 147504, Control_c, 12, 11, 80
13, 147517, Control_c, 12, 11, 79
13, 147530, Control_c, 12, 11, 78
13, 147542, Control_c, 12, 11, 77
13, 147555, Control_c, 12, 11, 76
13, 147568, Control_c, 12, 11, 75
13, 147574, Note_on_c, 12, 69, 0
13, 147574, Note_on_c, 12, 57, 0
13, 147581, Control_c, 12, 11, 74
13, 147593, Control_c, 12, 11, 73
13, 147600, Note_on_c, 12, 57, 120
13, 147600, Note_on_c, 12, 69, 120
13, 147606, Control_c, 12, 11, 72
13, 147619, Control_c, 12, 11, 71
13, 147632, Control_c, 12, 11, 70
13, 147644, Control_c, 12, 11, 69
13, 147657, Control_c, 12, 11, 68
13, 147670, Note_on_c, 12, 69, 0
13, 147670, Note_on_c, 12, 57, 0
13, 147670, Control_c, 12, 11, 67
13, 147683, Control_c, 12, 11, 66
13, 147695, Control_c, 12, 11, 65
13, 147696, Note_on_c, 12, 57, 120
13, 147696, Note_on_c, 12, 69, 120
13, 147722, Note_on_c, 12, 69, 0
13, 147722, Note_on_c, 12, 57, 0
13, 148944, Control_c, 12, 1, 0
13, 148944, Control_c, 12, 11, 78
13, 148944, Note_on_c, 12, 57, 120
13, 148944, Note_on_c, 12, 69, 120
13, 148945, Control_c, 12, 1, 1
13, 148946, Control_c, 12, 1, 2
13, 148948, Control_c, 12, 1, 3
13, 148950, Control_c, 12, 1, 4
13, 148953, Control_c, 12, 1, 5
13, 148956, Control_c, 12, 1, 6
13, 148959, Control_c, 12, 1, 7
13, 148960, Control_c, 12, 11, 79
13, 148962, Control_c, 12, 1, 8
13, 148966, Control_c, 12, 1, 9
13, 148970, Control_c, 12, 1, 10
13, 148974, Control_c, 12, 1, 11
13, 148976, Control_c, 12, 11, 80
13, 148980, Control_c, 12, 1, 12
13, 148986, Control_c, 12, 1, 13
13, 148992, Control_c, 12, 11, 81
13, 148994, Control_c, 12, 1, 14
13, 149003, Control_c, 12, 1, 15
13, 149008, Control_c, 12, 11, 82
13, 149017, Control_c, 12, 1, 16
13, 149024, Control_c, 12, 11, 83
13, 149040, Control_c, 12, 11, 84
13, 149040, Control_c, 12, 1, 17
13, 149056, Control_c, 12, 11, 85
13, 149072, Control_c, 12, 11, 86
13, 149088, Control_c, 12, 11, 87
13, 149104, Control_c, 12, 11, 88
13, 149120, Control_c, 12, 11, 89
13, 149134, Note_on_c, 12, 69, 0
13, 149134, Note_on_c, 12, 57, 0
13, 149136, Control_c, 12, 1, 0
13, 149136, Note_on_c, 12, 57, 120
13, 149136, Note_on_c, 12, 69, 120
13, 149136, Control_c, 12, 11, 90
13, 149152, Control_c, 12, 11, 91
13, 149168, Control_c, 12, 11, 92
13, 149184, Control_c, 12, 11, 93
13, 149200, Control_c, 12, 11, 94
13, 149216, Control_c, 12, 11, 95
13, 149228, Note_on_c, 12, 69, 0
13, 149228, Note_on_c, 12, 57, 0
13, 149231, Control_c, 12, 11, 96
13, 149232, Note_on_c, 12, 57, 120
13, 149232, Note_on_c, 12, 69, 120
13, 149302, Note_on_c, 12, 69, 0
13, 149302, Note_on_c, 12, 57, 0
13, 149328, Note_on_c, 12, 57, 120
13, 149328, Note_on_c, 12, 69, 120
13, 149398, Note_on_c, 12, 69, 0
13, 149398, Note_on_c, 12, 57, 0
13, 149424, Note_on_c, 12, 57, 120
13, 149424, Note_on_c, 12, 69, 120
13, 149494, Note_on_c, 12, 69, 0
13, 149494, Note_on_c, 12, 57, 0
13, 149520, Note_on_c, 12, 57, 120
13, 149520, Note_on_c, 12, 69, 120
13, 149590, Note_on_c, 12, 69, 0
13, 149590, Note_on_c, 12, 57, 0
13, 149616, Control_c, 12, 11, 96
13, 149616, Note_on_c, 12, 57, 120
13, 149616, Note_on_c, 12, 69, 120
13, 149654, Control_c, 12, 11, 95
13, 149686, Note_on_c, 12, 69, 0
13, 149686, Note_on_c, 12, 57, 0
13, 149691, Control_c, 12, 11, 94
13, 149712, Note_on_c, 12, 57, 120
13, 149712, Note_on_c, 12, 69, 120
13, 149728, Control_c, 12, 11, 93
13, 149765, Control_c, 12, 11, 92
13, 149782, Note_on_c, 12, 69, 0
13, 149782, Note_on_c, 12, 57, 0
13, 149802, Control_c, 12, 11, 91
13, 149808, Note_on_c, 12, 57, 120
13, 149808, Note_on_c, 12, 69, 120
13, 149839, Control_c, 12, 11, 90
13, 149876, Control_c, 12, 11, 89
13, 149878, Note_on_c, 12, 69, 0
13, 149878, Note_on_c, 12, 57, 0
13, 149904, Note_on_c, 12, 57, 120
13, 149904, Note_on_c, 12, 69, 120
13, 149914, Control_c, 12, 11, 88
13, 149951, Control_c, 12, 11, 87
13, 149974, Note_on_c, 12, 69, 0
13, 149974, Note_on_c, 12, 57, 0
13, 149988, Control_c, 12, 11, 86
13, 150000, Note_on_c, 12, 57, 120
13, 150000, Note_on_c, 12, 69, 120
13, 150025, Control_c, 12, 11, 85
13, 150062, Control_c, 12, 11, 84
13, 150070, Note_on_c, 12, 69, 0
13, 150070, Note_on_c, 12, 57, 0
13, 150096, Note_on_c, 12, 57, 120
13, 150096, Note_on_c, 12, 69, 120
13, 150099, Control_c, 12, 11, 83
13, 150136, Control_c, 12, 11, 82
13, 150166, Note_on_c, 12, 69, 0
13, 150166, Note_on_c, 12, 57, 0
13, 150173, Control_c, 12, 11, 81
13, 150192, Note_on_c, 12, 57, 120
13, 150192, Note_on_c, 12, 69, 120
13, 150211, Control_c, 12, 11, 80
13, 150248, Control_c, 12, 11, 79
13, 150262, Note_on_c, 12, 69, 0
13, 150262, Note_on_c, 12, 57, 0
13, 150285, Control_c, 12, 11, 78
13, 150288, Note_on_c, 12, 57, 120
13, 150288, Note_on_c, 12, 69, 120
13, 150322, Control_c, 12, 11, 77
13, 150358, Note_on_c, 12, 69, 0
13, 150358, Note_on_c, 12, 57, 0
13, 150359, Control_c, 12, 11, 76
13, 150384, Note_on_c, 12, 57, 120
13, 150384, Note_on_c, 12, 69, 120
13, 150396, Control_c, 12, 11, 75
13, 150433, Control_c, 12, 11, 74
13, 150454, Note_on_c, 12, 69, 0
13, 150454, Note_on_c, 12, 57, 0
13, 150470, Control_c, 12, 11, 73
13, 150480, Note_on_c, 12, 57, 120
13, 150480, Note_on_c, 12, 69, 120
13, 150508, Control_c, 12, 11, 72
13, 150545, Control_c, 12, 11, 71
13, 150550, Note_on_c, 12, 69, 0
13, 150550, Note_on_c, 12, 57, 0
13, 150576, Note_on_c, 12, 57, 120
13, 150576, Note_on_c, 12, 69, 120
13, 150582, Control_c, 12, 11, 70
13, 150619, Control_c, 12, 11, 69
13, 150646, Note_on_c, 12, 69, 0
13, 150646, Note_on_c, 12, 57, 0
13, 150656, Control_c, 12, 11, 68
13, 150672, Note_on_c, 12, 57, 120
13, 150672, Note_on_c, 12, 69, 120
13, 150693, Control_c, 12, 11, 67
13, 150730, Control_c, 12, 11, 66
13, 150742, Note_on_c, 12, 69, 0
13, 150742, Note_on_c, 12, 57, 0
13, 150767, Control_c, 12, 11, 65
13, 150768, Note_on_c, 12, 57, 120
13, 150768, Note_on_c, 12, 69, 120
13, 150860, Note_on_c, 12, 69, 0
13, 150860, Note_on_c, 12, 57, 0
13, 150864, Control_c, 12, 1, 0
13, 150864, Note_on_c, 12, 62, 120
13, 150865, Control_c, 12, 1, 1
13, 150866, Control_c, 12, 1, 2
13, 150868, Control_c, 12, 1, 3
13, 150870, Control_c, 12, 1, 4
13, 150872, Control_c, 12, 1, 5
13, 150874, Control_c, 12, 1, 6
13, 150876, Control_c, 12, 1, 7
13, 150879, Control_c, 12, 1, 8
13, 150882, Control_c, 12, 1, 9
13, 150886, Control_c, 12, 1, 10
13, 150890, Control_c, 12, 1, 11
13, 150894, Control_c, 12, 1, 12
13, 150900, Control_c, 12, 1, 13
13, 150908, Control_c, 12, 1, 14
13, 150918, Control_c, 12, 1, 15
13, 150936, Control_c, 12, 1, 16
13, 151006, Note_on_c, 12, 62, 0
13, 152304, Control_c, 12, 7, 108
13, 152304, Control_c, 12, 11, 120
13, 157920, Control_c, 12, 1, 0
13, 157920, Program_c, 12, 56
13, 157920, Note_on_c, 12, 57, 50
13, 157920, Note_on_c, 12, 69, 50
13, 157944, Note_on_c, 12, 69, 0
13, 157944, Note_on_c, 12, 57, 0
13, 158064, Note_on_c, 12, 57, 50
13, 158064, Note_on_c, 12, 69, 50
13, 158088, Note_on_c, 12, 69, 0
13, 158088, Note_on_c, 12, 57, 0
13, 158208, Note_on_c, 12, 57, 50
13, 158208, Note_on_c, 12, 69, 50
13, 158232, Note_on_c, 12, 69, 0
13, 158232, Note_on_c, 12, 57, 0
13, 158352, Note_on_c, 12, 57, 50
13, 158352, Note_on_c, 12, 69, 50
13, 158376, Note_on_c, 12, 69, 0
13, 158376, Note_on_c, 12, 57, 0
13, 158496, Note_on_c, 12, 57, 50
13, 158496, Note_on_c, 12, 69, 50
13, 158520, Note_on_c, 12, 69, 0
13, 158520, Note_on_c, 12, 57, 0
13, 158640, Note_on_c, 12, 57, 50
13, 158640, Note_on_c, 12, 69, 50
13, 158664, Note_on_c, 12, 69, 0
13, 158664, Note_on_c, 12, 57, 0
13, 158784, Note_on_c, 12, 57, 55
13, 158784, Note_on_c, 12, 69, 55
13, 158808, Note_on_c, 12, 69, 0
13, 158808, Note_on_c, 12, 57, 0
13, 158928, Note_on_c, 12, 57, 60
13, 158928, Note_on_c, 12, 69, 60
13, 158952, Note_on_c, 12, 69, 0
13, 158952, Note_on_c, 12, 57, 0
13, 159072, Note_on_c, 12, 57, 65
13, 159072, Note_on_c, 12, 69, 65
13, 159096, Note_on_c, 12, 69, 0
13, 159096, Note_on_c, 12, 57, 0
13, 159216, Note_on_c, 12, 57, 70
13, 159216, Note_on_c, 12, 69, 70
13, 159240, Note_on_c, 12, 69, 0
13, 159240, Note_on_c, 12, 57, 0
13, 159360, Note_on_c, 12, 57, 75
13, 159360, Note_on_c, 12, 69, 75
13, 159384, Note_on_c, 12, 69, 0
13, 159384, Note_on_c, 12, 57, 0
13, 159504, Note_on_c, 12, 57, 80
13, 159504, Note_on_c, 12, 69, 80
13, 159528, Note_on_c, 12, 69, 0
13, 159528, Note_on_c, 12, 57, 0
13, 159648, Note_on_c, 12, 57, 85
13, 159648, Note_on_c, 12, 69, 85
13, 159672, Note_on_c, 12, 69, 0
13, 159672, Note_on_c, 12, 57, 0
13, 159792, Note_on_c, 12, 57, 90
13, 159792, Note_on_c, 12, 69, 90
13, 159816, Note_on_c, 12, 69, 0
13, 159816, Note_on_c, 12, 57, 0
13, 159936, Note_on_c, 12, 57, 95
13, 159936, Note_on_c, 12, 69, 95
13, 159960, Note_on_c, 12, 69, 0
13, 159960, Note_on_c, 12, 57, 0
13, 160080, Note_on_c, 12, 57, 100
13, 160080, Note_on_c, 12, 69, 100
13, 160104, Note_on_c, 12, 69, 0
13, 160104, Note_on_c, 12, 57, 0
13, 160224, Note_on_c, 12, 57, 105
13, 160224, Note_on_c, 12, 69, 105
13, 160248, Note_on_c, 12, 69, 0
13, 160248, Note_on_c, 12, 57, 0
13, 160368, Note_on_c, 12, 57, 115
13, 160368, Note_on_c, 12, 69, 115
13, 160403, Note_on_c, 12, 69, 0
13, 160403, Note_on_c, 12, 57, 0
13, 160440, Note_on_c, 12, 57, 110
13, 160440, Note_on_c, 12, 69, 110
13, 160452, Note_on_c, 12, 69, 0
13, 160452, Note_on_c, 12, 57, 0
13, 160464, Note_on_c, 12, 57, 110
13, 160464, Note_on_c, 12, 69, 110
13, 160488, Note_on_c, 12, 69, 0
13, 160488, Note_on_c, 12, 57, 0
13, 160512, Note_on_c, 12, 62, 110
13, 160512, Note_on_c, 12, 74, 110
13, 160536, Note_on_c, 12, 74, 0
13, 160536, Note_on_c, 12, 62, 0
13, 160656, Note_on_c, 12, 57, 110
13, 160656, Note_on_c, 12, 69, 110
13, 160680, Note_on_c, 12, 69, 0
13, 160680, Note_on_c, 12, 57, 0
13, 160800, Note_on_c, 12, 62, 110
13, 160800, Note_on_c, 12, 74, 110
13, 160824, Note_on_c, 12, 74, 0
13, 160824, Note_on_c, 12, 62, 0
13, 160944, Note_on_c, 12, 62, 110
13, 160944, Note_on_c, 12, 74, 110
13, 160968, Note_on_c, 12, 74, 0
13, 160968, Note_on_c, 12, 62, 0
13, 161088, Note_on_c, 12, 62, 110
13, 161088, Note_on_c, 12, 74, 110
13, 161112, Note_on_c, 12, 74, 0
13, 161112, Note_on_c, 12, 62, 0
13, 161232, Note_on_c, 12, 57, 110
13, 161232, Note_on_c, 12, 69, 110
13, 161256, Note_on_c, 12, 69, 0
13, 161256, Note_on_c, 12, 57, 0
13, 161376, Note_on_c, 12, 62, 110
13, 161376, Note_on_c, 12, 74, 110
13, 161400, Note_on_c, 12, 74, 0
13, 161400, Note_on_c, 12, 62, 0
13, 161520, Note_on_c, 12, 62, 110
13, 161520, Note_on_c, 12, 74, 110
13, 161544, Note_on_c, 12, 74, 0
13, 161544, Note_on_c, 12, 62, 0
13, 161664, Note_on_c, 12, 62, 110
13, 161664, Note_on_c, 12, 74, 110
13, 161688, Note_on_c, 12, 74, 0
13, 161688, Note_on_c, 12, 62, 0
13, 161808, Note_on_c, 12, 57, 110
13, 161808, Note_on_c, 12, 69, 110
13, 161832, Note_on_c, 12, 69, 0
13, 161832, Note_on_c, 12, 57, 0
13, 161952, Note_on_c, 12, 62, 110
13, 161952, Note_on_c, 12, 74, 110
13, 161976, Note_on_c, 12, 74, 0
13, 161976, Note_on_c, 12, 62, 0
13, 162096, Note_on_c, 12, 62, 110
13, 162096, Note_on_c, 12, 74, 110
13, 162120, Note_on_c, 12, 74, 0
13, 162120, Note_on_c, 12, 62, 0
13, 162240, Note_on_c, 12, 72, 110
13, 162264, Note_on_c, 12, 72, 0
13, 162528, Note_on_c, 12, 72, 110
13, 162552, Note_on_c, 12, 72, 0
13, 162672, Note_on_c, 12, 62, 110
13, 162672, Note_on_c, 12, 74, 110
13, 162696, Note_on_c, 12, 74, 0
13, 162696, Note_on_c, 12, 62, 0
13, 162816, Note_on_c, 12, 72, 110
13, 162840, Note_on_c, 12, 72, 0
13, 162960, Note_on_c, 12, 72, 110
13, 162984, Note_on_c, 12, 72, 0
13, 163104, Note_on_c, 12, 72, 110
13, 163128, Note_on_c, 12, 72, 0
13, 163248, Note_on_c, 12, 79, 110
13, 163272, Note_on_c, 12, 79, 0
13, 167856, Note_on_c, 12, 72, 120
13, 167891, Note_on_c, 12, 72, 0
13, 167928, Note_on_c, 12, 72, 113
13, 167940, Note_on_c, 12, 72, 0
13, 167952, Note_on_c, 12, 72, 113
13, 167976, Note_on_c, 12, 72, 0
13, 168000, Note_on_c, 12, 72, 113
13, 168024, Note_on_c, 12, 72, 0
13, 168432, Note_on_c, 12, 62, 120
13, 168432, Note_on_c, 12, 74, 120
13, 168467, Note_on_c, 12, 74, 0
13, 168467, Note_on_c, 12, 62, 0
13, 168504, Note_on_c, 12, 62, 113
13, 168516, Note_on_c, 12, 62, 0
13, 168528, Note_on_c, 12, 62, 113
13, 168552, Note_on_c, 12, 62, 0
13, 168576, Note_on_c, 12, 62, 113
13, 168576, Note_on_c, 12, 74, 113
13, 168600, Note_on_c, 12, 74, 0
13, 168600, Note_on_c, 12, 62, 0
13, 171024, Note_on_c, 12, 84, 100
13, 171048, Note_on_c, 12, 84, 0
13, 171312, Note_on_c, 12, 84, 100
13, 171336, Note_on_c, 12, 84, 0
13, 171600, Note_on_c, 12, 84, 100
13, 171624, Note_on_c, 12, 84, 0
13, 171888, Note_on_c, 12, 84, 100
13, 171912, Note_on_c, 12, 84, 0
13, 176784, Note_on_c, 12, 69, 105
13, 176819, Note_on_c, 12, 69, 0
13, 176856, Note_on_c, 12, 57, 100
13, 176856, Note_on_c, 12, 69, 100
13, 176868, Note_on_c, 12, 69, 0
13, 176868, Note_on_c, 12, 57, 0
13, 176880, Note_on_c, 12, 57, 100
13, 176880, Note_on_c, 12, 69, 100
13, 176904, Note_on_c, 12, 69, 0
13, 176904, Note_on_c, 12, 57, 0
13, 183024, Note_on_c, 12, 74, 60
13, 183059, Note_on_c, 12, 74, 0
13, 183096, Note_on_c, 12, 62, 50
13, 183108, Note_on_c, 12, 62, 0
13, 183120, Note_on_c, 12, 62, 50
13, 183144, Note_on_c, 12, 62, 0
13, 189360, Note_on_c, 12, 74, 70
13, 189395, Note_on_c, 12, 74, 0
13, 189432, Note_on_c, 12, 62, 60
13, 189444, Note_on_c, 12, 62, 0
13, 189456, Note_on_c, 12, 62, 60
13, 189480, Note_on_c, 12, 62, 0
13, 189936, Note_on_c, 12, 74, 85
13, 189971, Note_on_c, 12, 74, 0
13, 190008, Note_on_c, 12, 62, 75
13, 190020, Note_on_c, 12, 62, 0
13, 190032, Note_on_c, 12, 62, 75
13, 190056, Note_on_c, 12, 62, 0
13, 190224, Note_on_c, 12, 74, 120
13, 190248, Note_on_c, 12, 74, 0
13, 190296, Note_on_c, 12, 62, 110
13, 190308, Note_on_c, 12, 62, 0
13, 190320, Note_on_c, 12, 62, 110
13, 190344, Note_on_c, 12, 62, 0
13, 190368, Note_on_c, 12, 74, 120
13, 190392, Note_on_c, 12, 74, 0
13, 190440, Note_on_c, 12, 62, 110
13, 190452, Note_on_c, 12, 62, 0
13, 190464, Note_on_c, 12, 62, 110
13, 190488, Note_on_c, 12, 62, 0
13, 190512, Note_on_c, 12, 74, 120
13, 190536, Note_on_c, 12, 74, 0
13, 190584, Note_on_c, 12, 62, 110
13, 190596, Note_on_c, 12, 62, 0
13, 190608, Note_on_c, 12, 62, 110
13, 190632, Note_on_c, 12, 62, 0
13, 190656, Note_on_c, 12, 74, 120
13, 190680, Note_on_c, 12, 74, 0
13, 190728, Note_on_c, 12, 62, 110
13, 190740, Note_on_c, 12, 62, 0
13, 190752, Note_on_c, 12, 62, 110
13, 190776, Note_on_c, 12, 62, 0
13, 190800, Note_on_c, 12, 74, 120
13, 190824, Note_on_c, 12, 74, 0
13, 190872, Note_on_c, 12, 62, 110
13, 190884, Note_on_c, 12, 62, 0
13, 190896, Note_on_c, 12, 62, 110
13, 190920, Note_on_c, 12, 62, 0
13, 190944, Note_on_c, 12, 74, 120
13, 190968, Note_on_c, 12, 74, 0
13, 191016, Note_on_c, 12, 62, 110
13, 191028, Note_on_c, 12, 62, 0
13, 191040, Note_on_c, 12, 62, 110
13, 191064, Note_on_c, 12, 62, 0
13, 191088, Note_on_c, 12, 74, 120
13, 191112, Note_on_c, 12, 74, 0
13, 191160, Note_on_c, 12, 62, 110
13, 191172, Note_on_c, 12, 62, 0
13, 191184, Note_on_c, 12, 62, 110
13, 191208, Note_on_c, 12, 62, 0
13, 191232, Note_on_c, 12, 74, 120
13, 191256, Note_on_c, 12, 74, 0
13, 191304, Note_on_c, 12, 62, 110
13, 191316, Note_on_c, 12, 62, 0
13, 191328, Note_on_c, 12, 62, 110
13, 191352, Note_on_c, 12, 62, 0
13, 191376, Note_on_c, 12, 74, 120
13, 191400, Note_on_c, 12, 74, 0
13, 191448, Note_on_c, 12, 62, 110
13, 191460, Note_on_c, 12, 62, 0
13, 191472, Note_on_c, 12, 62, 110
13, 191496, Note_on_c, 12, 62, 0
13, 191520, Note_on_c, 12, 74, 120
13, 191544, Note_on_c, 12, 74, 0
13, 191592, Note_on_c, 12, 62, 110
13, 191604, Note_on_c, 12, 62, 0
13, 191616, Note_on_c, 12, 62, 110
13, 191640, Note_on_c, 12, 62, 0
13, 191664, Note_on_c, 12, 74, 120
13, 191688, Note_on_c, 12, 74, 0
13, 191736, Note_on_c, 12, 62, 110
13, 191748, Note_on_c, 12, 62, 0
13, 191760, Note_on_c, 12, 62, 110
13, 191784, Note_on_c, 12, 62, 0
13, 191808, Note_on_c, 12, 74, 120
13, 191832, Note_on_c, 12, 74, 0
13, 191880, Note_on_c, 12, 62, 110
13, 191892, Note_on_c, 12, 62, 0
13, 191904, Note_on_c, 12, 62, 110
13, 191928, Note_on_c, 12, 62, 0
13, 191952, Note_on_c, 12, 74, 120
13, 191976, Note_on_c, 12, 74, 0
13, 192024, Note_on_c, 12, 62, 110
13, 192036, Note_on_c, 12, 62, 0
13, 192048, Note_on_c, 12, 62, 110
13, 192072, Note_on_c, 12, 62, 0
13, 192096, Note_on_c, 12, 74, 120
13, 192120, Note_on_c, 12, 74, 0
13, 192168, Note_on_c, 12, 62, 110
13, 192180, Note_on_c, 12, 62, 0
13, 192192, Note_on_c, 12, 62, 110
13, 192216, Note_on_c, 12, 62, 0
13, 192240, Note_on_c, 12, 74, 120
13, 192264, Note_on_c, 12, 74, 0
13, 192312, Note_on_c, 12, 62, 110
13, 192324, Note_on_c, 12, 62, 0
13, 192336, Note_on_c, 12, 62, 110
13, 192360, Note_on_c, 12, 62, 0
13, 192384, Note_on_c, 12, 74, 120
13, 192408, Note_on_c, 12, 74, 0
13, 192456, Note_on_c, 12, 62, 110
13, 192468, Note_on_c, 12, 62, 0
13, 192480, Note_on_c, 12, 62, 110
13, 192504, Note_on_c, 12, 62, 0
13, 192528, Note_on_c, 12, 74, 120
13, 192552, Note_on_c, 12, 74, 0
13, 192600, Note_on_c, 12, 62, 110
13, 192612, Note_on_c, 12, 62, 0
13, 192624, Note_on_c, 12, 62, 110
13, 192648, Note_on_c, 12, 62, 0
13, 192672, Note_on_c, 12, 74, 120
13, 192696, Note_on_c, 12, 74, 0
13, 192744, Note_on_c, 12, 62, 110
13, 192756, Note_on_c, 12, 62, 0
13, 192768, Note_on_c, 12, 62, 110
13, 192792, Note_on_c, 12, 62, 0
13, 192816, Note_on_c, 12, 74, 120
13, 192840, Note_on_c, 12, 74, 0
13, 192888, Note_on_c, 12, 62, 110
13, 192900, Note_on_c, 12, 62, 0
13, 192912, Note_on_c, 12, 62, 110
13, 192936, Note_on_c, 12, 62, 0
13, 192960, Note_on_c, 12, 74, 120
13, 192984, Note_on_c, 12, 74, 0
13, 193032, Note_on_c, 12, 62, 110
13, 193044, Note_on_c, 12, 62, 0
13, 193056, Note_on_c, 12, 62, 110
13, 193080, Note_on_c, 12, 62, 0
13, 193248, Note_on_c, 12, 74, 110
13, 193272, Note_on_c, 12, 74, 0
13, 193320, Note_on_c, 12, 62, 100
13, 193332, Note_on_c, 12, 62, 0
13, 193344, Note_on_c, 12, 62, 100
13, 193368, Note_on_c, 12, 62, 0
13, 193392, Note_on_c, 12, 74, 110
13, 193416, Note_on_c, 12, 74, 0
13, 193464, Note_on_c, 12, 62, 100
13, 193476, Note_on_c, 12, 62, 0
13, 193488, Note_on_c, 12, 62, 100
13, 193512, Note_on_c, 12, 62, 0
13, 193536, Note_on_c, 12, 74, 110
13, 193560, Note_on_c, 12, 74, 0
13, 193608, Note_on_c, 12, 62, 100
13, 193620, Note_on_c, 12, 62, 0
13, 193632, Note_on_c, 12, 62, 100
13, 193656, Note_on_c, 12, 62, 0
13, 199248, Note_on_c, 12, 62, 90
13, 199248, Note_on_c, 12, 74, 90
13, 199272, Note_on_c, 12, 74, 0
13, 199272, Note_on_c, 12, 62, 0
13, 199392, Note_on_c, 12, 62, 97
13, 199392, Note_on_c, 12, 74, 97
13, 199416, Note_on_c, 12, 74, 0
13, 199416, Note_on_c, 12, 62, 0
13, 199536, Note_on_c, 12, 62, 104
13, 199536, Note_on_c, 12, 74, 104
13, 199560, Note_on_c, 12, 74, 0
13, 199560, Note_on_c, 12, 62, 0
13, 199680, Note_on_c, 12, 57, 111
13, 199680, Note_on_c, 12, 69, 111
13, 199704, Note_on_c, 12, 69, 0
13, 199704, Note_on_c, 12, 57, 0
13, 199728, Note_on_c, 12, 62, 116
13, 199728, Note_on_c, 12, 74, 116
13, 199752, Note_on_c, 12, 74, 0
13, 199752, Note_on_c, 12, 62, 0
13, 199872, Note_on_c, 12, 62, 116
13, 199872, Note_on_c, 12, 74, 116
13, 199896, Note_on_c, 12, 74, 0
13, 199896, Note_on_c, 12, 62, 0
13, 199968, Note_on_c, 12, 62, 113
13, 199968, Note_on_c, 12, 74, 113
13, 199992, Note_on_c, 12, 74, 0
13, 199992, Note_on_c, 12, 62, 0
13, 200016, Note_on_c, 12, 62, 116
13, 200016, Note_on_c, 12, 74, 116
13, 200040, Note_on_c, 12, 74, 0
13, 200040, Note_on_c, 12, 62, 0
13, 200112, Note_on_c, 12, 62, 113
13, 200112, Note_on_c, 12, 74, 113
13, 200136, Note_on_c, 12, 74, 0
13, 200136, Note_on_c, 12, 62, 0
13, 200160, Note_on_c, 12, 62, 116
13, 200160, Note_on_c, 12, 74, 116
13, 200184, Note_on_c, 12, 74, 0
13, 200184, Note_on_c, 12, 62, 0
13, 200256, Note_on_c, 12, 62, 113
13, 200256, Note_on_c, 12, 74, 113
13, 200280, Note_on_c, 12, 74, 0
13, 200280, Note_on_c, 12, 62, 0
13, 200304, Note_on_c, 12, 62, 116
13, 200304, Note_on_c, 12, 74, 116
13, 200328, Note_on_c, 12, 74, 0
13, 200328, Note_on_c, 12, 62, 0
13, 200448, Note_on_c, 12, 62, 116
13, 200448, Note_on_c, 12, 74, 116
13, 200472, Note_on_c, 12, 74, 0
13, 200472, Note_on_c, 12, 62, 0
13, 200544, Note_on_c, 12, 62, 113
13, 200544, Note_on_c, 12, 74, 113
13, 200568, Note_on_c, 12, 74, 0
13, 200568, Note_on_c, 12, 62, 0
13, 200592, Note_on_c, 12, 62, 116
13, 200592, Note_on_c, 12, 74, 116
13, 200616, Note_on_c, 12, 74, 0
13, 200616, Note_on_c, 12, 62, 0
13, 200688, Note_on_c, 12, 62, 113
13, 200688, Note_on_c, 12, 74, 113
13, 200712, Note_on_c, 12, 74, 0
13, 200712, Note_on_c, 12, 62, 0
13, 200736, Note_on_c, 12, 62, 116
13, 200736, Note_on_c, 12, 74, 116
13, 200760, Note_on_c, 12, 74, 0
13, 200760, Note_on_c, 12, 62, 0
13, 200832, Note_on_c, 12, 62, 113
13, 200832, Note_on_c, 12, 74, 113
13, 200856, Note_on_c, 12, 74, 0
13, 200856, Note_on_c, 12, 62, 0
13, 200880, Note_on_c, 12, 62, 116
13, 200880, Note_on_c, 12, 74, 116
13, 200904, Note_on_c, 12, 74, 0
13, 200904, Note_on_c, 12, 62, 0
13, 200928, Note_on_c, 12, 62, 113
13, 200928, Note_on_c, 12, 74, 113
13, 200952, Note_on_c, 12, 74, 0
13, 200952, Note_on_c, 12, 62, 0
13, 200976, Note_on_c, 12, 62, 113
13, 200976, Note_on_c, 12, 74, 113
13, 201000, Note_on_c, 12, 74, 0
13, 201000, Note_on_c, 12, 62, 0
13, 201024, Note_on_c, 12, 62, 116
13, 201024, Note_on_c, 12, 74, 116
13, 201048, Note_on_c, 12, 74, 0
13, 201048, Note_on_c, 12, 62, 0
13, 201072, Note_on_c, 12, 62, 113
13, 201072, Note_on_c, 12, 74, 113
13, 201096, Note_on_c, 12, 74, 0
13, 201096, Note_on_c, 12, 62, 0
13, 201120, Note_on_c, 12, 62, 113
13, 201120, Note_on_c, 12, 74, 113
13, 201144, Note_on_c, 12, 74, 0
13, 201144, Note_on_c, 12, 62, 0
13, 201168, Note_on_c, 12, 62, 116
13, 201168, Note_on_c, 12, 74, 116
13, 201192, Note_on_c, 12, 74, 0
13, 201192, Note_on_c, 12, 62, 0
13, 201216, Note_on_c, 12, 62, 113
13, 201216, Note_on_c, 12, 74, 113
13, 201240, Note_on_c, 12, 74, 0
13, 201240, Note_on_c, 12, 62, 0
13, 201264, Note_on_c, 12, 62, 113
13, 201264, Note_on_c, 12, 74, 113
13, 201288, Note_on_c, 12, 74, 0
13, 201288, Note_on_c, 12, 62, 0
13, 201312, Note_on_c, 12, 62, 116
13, 201312, Note_on_c, 12, 74, 116
13, 201336, Note_on_c, 12, 74, 0
13, 201336, Note_on_c, 12, 62, 0
13, 201360, Note_on_c, 12, 62, 113
13, 201360, Note_on_c, 12, 74, 113
13, 201384, Note_on_c, 12, 74, 0
13, 201384, Note_on_c, 12, 62, 0
13, 201408, Note_on_c, 12, 62, 113
13, 201408, Note_on_c, 12, 74, 113
13, 201432, Note_on_c, 12, 74, 0
13, 201432, Note_on_c, 12, 62, 0
13, 201456, Note_on_c, 12, 62, 116
13, 201456, Note_on_c, 12, 74, 116
13, 201480, Note_on_c, 12, 74, 0
13, 201480, Note_on_c, 12, 62, 0
13, 201504, Note_on_c, 12, 62, 113
13, 201504, Note_on_c, 12, 74, 113
13, 201528, Note_on_c, 12, 74, 0
13, 201528, Note_on_c, 12, 62, 0
13, 201552, Note_on_c, 12, 62, 113
13, 201552, Note_on_c, 12, 74, 113
13, 201576, Note_on_c, 12, 74, 0
13, 201576, Note_on_c, 12, 62, 0
13, 201600, Note_on_c, 12, 62, 116
13, 201600, Note_on_c, 12, 74, 116
13, 201624, Note_on_c, 12, 74, 0
13, 201624, Note_on_c, 12, 62, 0
13, 201648, Note_on_c, 12, 62, 113
13, 201648, Note_on_c, 12, 74, 113
13, 201672, Note_on_c, 12, 74, 0
13, 201672, Note_on_c, 12, 62, 0
13, 201696, Note_on_c, 12, 62, 113
13, 201696, Note_on_c, 12, 74, 113
13, 201720, Note_on_c, 12, 74, 0
13, 201720, Note_on_c, 12, 62, 0
13, 201744, Note_on_c, 12, 62, 116
13, 201744, Note_on_c, 12, 74, 116
13, 201768, Note_on_c, 12, 74, 0
13, 201768, Note_on_c, 12, 62, 0
13, 201792, Note_on_c, 12, 62, 113
13, 201792, Note_on_c, 12, 74, 113
13, 201816, Note_on_c, 12, 74, 0
13, 201816, Note_on_c, 12, 62, 0
13, 201840, Note_on_c, 12, 62, 113
13, 201840, Note_on_c, 12, 74, 113
13, 201864, Note_on_c, 12, 74, 0
13, 201864, Note_on_c, 12, 62, 0
13, 201888, Note_on_c, 12, 62, 116
13, 201888, Note_on_c, 12, 74, 116
13, 201912, Note_on_c, 12, 74, 0
13, 201912, Note_on_c, 12, 62, 0
13, 201936, Note_on_c, 12, 62, 113
13, 201936, Note_on_c, 12, 74, 113
13, 201960, Note_on_c, 12, 74, 0
13, 201960, Note_on_c, 12, 62, 0
13, 201984, Note_on_c, 12, 62, 113
13, 201984, Note_on_c, 12, 74, 113
13, 202008, Note_on_c, 12, 74, 0
13, 202008, Note_on_c, 12, 62, 0
13, 202032, Note_on_c, 12, 62, 116
13, 202032, Note_on_c, 12, 74, 116
13, 202067, Note_on_c, 12, 74, 0
13, 202067, Note_on_c, 12, 62, 0
13, 202104, Note_on_c, 12, 62, 113
13, 202104, Note_on_c, 12, 74, 113
13, 202116, Note_on_c, 12, 74, 0
13, 202116, Note_on_c, 12, 62, 0
13, 202128, Note_on_c, 12, 62, 113
13, 202128, Note_on_c, 12, 74, 113
13, 202152, Note_on_c, 12, 74, 0
13, 202152, Note_on_c, 12, 62, 0
13, 202176, Note_on_c, 12, 62, 116
13, 202176, Note_on_c, 12, 74, 116
13, 202200, Note_on_c, 12, 74, 0
13, 202200, Note_on_c, 12, 62, 0
13, 202224, Note_on_c, 12, 62, 113
13, 202224, Note_on_c, 12, 74, 113
13, 202248, Note_on_c, 12, 74, 0
13, 202248, Note_on_c, 12, 62, 0
13, 202272, Note_on_c, 12, 62, 113
13, 202272, Note_on_c, 12, 74, 113
13, 202296, Note_on_c, 12, 74, 0
13, 202296, Note_on_c, 12, 62, 0
13, 202320, Note_on_c, 12, 62, 116
13, 202320, Note_on_c, 12, 74, 116
13, 202344, Note_on_c, 12, 74, 0
13, 202344, Note_on_c, 12, 62, 0
13, 202560, Note_on_c, 12, 79, 113
13, 202584, Note_on_c, 12, 79, 0
13, 202608, Note_on_c, 12, 72, 116
13, 202643, Note_on_c, 12, 72, 0
13, 202680, Note_on_c, 12, 72, 113
13, 202692, Note_on_c, 12, 72, 0
13, 202704, Note_on_c, 12, 72, 113
13, 202728, Note_on_c, 12, 72, 0
13, 202752, Note_on_c, 12, 72, 116
13, 202776, Note_on_c, 12, 72, 0
13, 202800, Note_on_c, 12, 72, 113
13, 202824, Note_on_c, 12, 72, 0
13, 202848, Note_on_c, 12, 72, 113
13, 202872, Note_on_c, 12, 72, 0
13, 202896, Note_on_c, 12, 69, 116
13, 202931, Note_on_c, 12, 69, 0
13, 202968, Note_on_c, 12, 69, 113
13, 202980, Note_on_c, 12, 69, 0
13, 202992, Note_on_c, 12, 69, 113
13, 203016, Note_on_c, 12, 69, 0
13, 203040, Note_on_c, 12, 69, 116
13, 203064, Note_on_c, 12, 69, 0
13, 203088, Note_on_c, 12, 69, 113
13, 203112, Note_on_c, 12, 69, 0
13, 203136, Note_on_c, 12, 69, 113
13, 203160, Note_on_c, 12, 69, 0
13, 203184, Note_on_c, 12, 62, 60
13, 203208, Note_on_c, 12, 62, 0
13, 204624, Note_on_c, 12, 62, 100
13, 204624, Note_on_c, 12, 74, 100
13, 204648, Note_on_c, 12, 74, 0
13, 204648, Note_on_c, 12, 62, 0
13, 204768, Note_on_c, 12, 57, 100
13, 204768, Note_on_c, 12, 69, 100
13, 204792, Note_on_c, 12, 69, 0
13, 204792, Note_on_c, 12, 57, 0
13, 204912, Note_on_c, 12, 62, 100
13, 204912, Note_on_c, 12, 74, 100
13, 204936, Note_on_c, 12, 74, 0
13, 204936, Note_on_c, 12, 62, 0
13, 205056, Note_on_c, 12, 62, 105
13, 205056, Note_on_c, 12, 74, 105
13, 205080, Note_on_c, 12, 74, 0
13, 205080, Note_on_c, 12, 62, 0
13, 205104, Note_on_c, 12, 57, 100
13, 205104, Note_on_c, 12, 69, 100
13, 205128, Note_on_c, 12, 69, 0
13, 205128, Note_on_c, 12, 57, 0
13, 205152, Note_on_c, 12, 57, 100
13, 205152, Note_on_c, 12, 69, 100
13, 205176, Note_on_c, 12, 69, 0
13, 205176, Note_on_c, 12, 57, 0
13, 205200, Note_on_c, 12, 62, 100
13, 205200, Note_on_c, 12, 74, 100
13, 205224, Note_on_c, 12, 74, 0
13, 205224, Note_on_c, 12, 62, 0
13, 205488, Note_on_c, 12, 62, 100
13, 205488, Note_on_c, 12, 74, 100
13, 205512, Note_on_c, 12, 74, 0
13, 205512, Note_on_c, 12, 62, 0
13, 205632, Note_on_c, 12, 57, 100
13, 205632, Note_on_c, 12, 69, 100
13, 205656, Note_on_c, 12, 69, 0
13, 205656, Note_on_c, 12, 57, 0
13, 205776, Note_on_c, 12, 62, 100
13, 205776, Note_on_c, 12, 74, 100
13, 205800, Note_on_c, 12, 74, 0
13, 205800, Note_on_c, 12, 62, 0
13, 205920, Note_on_c, 12, 57, 105
13, 205920, Note_on_c, 12, 69, 105
13, 205955, Note_on_c, 12, 69, 0
13, 205955, Note_on_c, 12, 57, 0
13, 205992, Note_on_c, 12, 57, 100
13, 205992, Note_on_c, 12, 69, 100
13, 206004, Note_on_c, 12, 69, 0
13, 206004, Note_on_c, 12, 57, 0
13, 206016, Note_on_c, 12, 57, 100
13, 206016, Note_on_c, 12, 69, 100
13, 206040, Note_on_c, 12, 69, 0
13, 206040, Note_on_c, 12, 57, 0
13, 206208, Note_on_c, 12, 57, 105
13, 206208, Note_on_c, 12, 69, 105
13, 206243, Note_on_c, 12, 69, 0
13, 206243, Note_on_c, 12, 57, 0
13, 206280, Note_on_c, 12, 57, 100
13, 206280, Note_on_c, 12, 69, 100
13, 206292, Note_on_c, 12, 69, 0
13, 206292, Note_on_c, 12, 57, 0
13, 206304, Note_on_c, 12, 57, 100
13, 206304, Note_on_c, 12, 69, 100
13, 206328, Note_on_c, 12, 69, 0
13, 206328, Note_on_c, 12, 57, 0
13, 208944, Note_on_c, 12, 62, 100
13, 208944, Note_on_c, 12, 74, 100
13, 208979, Note_on_c, 12, 74, 0
13, 208979, Note_on_c, 12, 62, 0
13, 209016, Note_on_c, 12, 62, 104
13, 209016, Note_on_c, 12, 74, 104
13, 209028, Note_on_c, 12, 74, 0
13, 209028, Note_on_c, 12, 62, 0
13, 209040, Note_on_c, 12, 62, 106
13, 209040, Note_on_c, 12, 74, 106
13, 209064, Note_on_c, 12, 74, 0
13, 209064, Note_on_c, 12, 62, 0
13, 209088, Note_on_c, 12, 57, 109
13, 209088, Note_on_c, 12, 69, 109
13, 209123, Note_on_c, 12, 69, 0
13, 209123, Note_on_c, 12, 57, 0
13, 209160, Note_on_c, 12, 57, 113
13, 209160, Note_on_c, 12, 69, 113
13, 209172, Note_on_c, 12, 69, 0
13, 209172, Note_on_c, 12, 57, 0
13, 209184, Note_on_c, 12, 57, 114
13, 209184, Note_on_c, 12, 69, 114
13, 209229, Note_on_c, 12, 69, 0
13, 209229, Note_on_c, 12, 57, 0
13, 210432, Note_on_c, 12, 57, 50
13, 210432, Note_on_c, 12, 69, 50
13, 210456, Note_on_c, 12, 69, 0
13, 210456, Note_on_c, 12, 57, 0
13, 210576, Note_on_c, 12, 62, 57
13, 210600, Note_on_c, 12, 62, 0
13, 210720, Note_on_c, 12, 57, 65
13, 210720, Note_on_c, 12, 69, 65
13, 210744, Note_on_c, 12, 69, 0
13, 210744, Note_on_c, 12, 57, 0
13, 210864, Note_on_c, 12, 62, 73
13, 210888, Note_on_c, 12, 62, 0
13, 211008, Note_on_c, 12, 57, 81
13, 211008, Note_on_c, 12, 69, 81
13, 211032, Note_on_c, 12, 69, 0
13, 211032, Note_on_c, 12, 57, 0
13, 211152, Note_on_c, 12, 62, 89
13, 211176, Note_on_c, 12, 62, 0
13, 211296, Note_on_c, 12, 57, 97
13, 211296, Note_on_c, 12, 69, 97
13, 211320, Note_on_c, 12, 69, 0
13, 211320, Note_on_c, 12, 57, 0
13, 211440, Note_on_c, 12, 62, 105
13, 211464, Note_on_c, 12, 62, 0
13, 211584, Note_on_c, 12, 57, 127
13, 211584, Note_on_c, 12, 69, 127
13, 211608, Note_on_c, 12, 69, 0
13, 211608, Note_on_c, 12, 57, 0
13, 211680, Note_on_c, 12, 62, 125
13, 211680, Note_on_c, 12, 74, 125
13, 211704, Note_on_c, 12, 74, 0
13, 211704, Note_on_c, 12, 62, 0
13, 211776, Note_on_c, 12, 57, 125
13, 211776, Note_on_c, 12, 69, 125
13, 211800, Note_on_c, 12, 69, 0
13, 211800, Note_on_c, 12, 57, 0
13, 211872, Note_on_c, 12, 57, 125
13, 211872, Note_on_c, 12, 69, 125
13, 211896, Note_on_c, 12, 69, 0
13, 211896, Note_on_c, 12, 57, 0
13, 211968, Note_on_c, 12, 62, 115
13, 211992, Note_on_c, 12, 62, 0
13, 213504, Control_c, 12, 11, 127
13, 213504, Note_on_c, 12, 57, 125
13, 213504, Note_on_c, 12, 69, 125
13, 213528, Note_on_c, 12, 69, 0
13, 213528, Note_on_c, 12, 57, 0
13, 213600, Note_on_c, 12, 62, 120
13, 213600, Note_on_c, 12, 74, 120
13, 213624, Note_on_c, 12, 74, 0
13, 213624, Note_on_c, 12, 62, 0
13, 213696, Note_on_c, 12, 57, 120
13, 213696, Note_on_c, 12, 69, 120
13, 213720, Note_on_c, 12, 69, 0
13, 213720, Note_on_c, 12, 57, 0
13, 213792, Note_on_c, 12, 57, 120
13, 213792, Note_on_c, 12, 69, 120
13, 213816, Note_on_c, 12, 69, 0
13, 213816, Note_on_c, 12, 57, 0
13, 213888, Note_on_c, 12, 62, 125
13, 213912, Note_on_c, 12, 62, 0
13, 214080, End_track
14, 0, Start_track
14, 0, Title_t, "Tromboni"
14, 0, MIDI_port, 0
14, 192, Control_c, 13, 10, 79
14, 146544, Control_c, 13, 11, 87
14, 146544, Program_c, 13, 57
14, 146544, Control_c, 13, 91, 105
14, 146544, Control_c, 13, 93, 15
14, 146544, Control_c, 13, 10, 80
14, 146592, Control_c, 13, 11, 88
14, 146640, Control_c, 13, 1, 0
14, 146640, Note_on_c, 13, 54, 120
14, 146640, Note_on_c, 13, 62, 120
14, 146640, Control_c, 13, 11, 89
14, 146641, Control_c, 13, 1, 1
14, 146643, Control_c, 13, 1, 2
14, 146645, Control_c, 13, 1, 3
14, 146648, Control_c, 13, 1, 4
14, 146651, Control_c, 13, 1, 5
14, 146654, Control_c, 13, 1, 6
14, 146658, Control_c, 13, 1, 7
14, 146661, Control_c, 13, 1, 8
14, 146666, Control_c, 13, 1, 9
14, 146672, Control_c, 13, 1, 10
14, 146678, Control_c, 13, 1, 11
14, 146685, Control_c, 13, 1, 12
14, 146688, Control_c, 13, 11, 90
14, 146695, Control_c, 13, 1, 13
14, 146708, Control_c, 13, 1, 14
14, 146732, Control_c, 13, 1, 15
14, 146736, Control_c, 13, 11, 91
14, 146784, Control_c, 13, 11, 92
14, 146830, Note_on_c, 13, 62, 0
14, 146830, Note_on_c, 13, 54, 0
14, 146832, Note_on_c, 13, 57, 120
14, 146832, Note_on_c, 13, 64, 120
14, 146832, Control_c, 13, 1, 2
14, 146832, Control_c, 13, 11, 93
14, 146833, Control_c, 13, 1, 3
14, 146834, Control_c, 13, 1, 4
14, 146835, Control_c, 13, 1, 5
14, 146837, Control_c, 13, 1, 6
14, 146838, Control_c, 13, 1, 7
14, 146841, Control_c, 13, 1, 8
14, 146843, Control_c, 13, 1, 9
14, 146845, Control_c, 13, 1, 10
14, 146848, Control_c, 13, 1, 11
14, 146853, Control_c, 13, 1, 12
14, 146857, Control_c, 13, 1, 13
14, 146864, Control_c, 13, 1, 14
14, 146876, Control_c, 13, 1, 15
14, 146880, Control_c, 13, 11, 94
14, 146924, Note_on_c, 13, 64, 0
14, 146924, Note_on_c, 13, 57, 0
14, 146927, Control_c, 13, 11, 95
14, 146928, Control_c, 13, 1, 0
14, 146928, Note_on_c, 13, 62, 120
14, 146928, Note_on_c, 13, 66, 120
14, 146998, Note_on_c, 13, 66, 0
14, 146998, Note_on_c, 13, 62, 0
14, 147024, Note_on_c, 13, 62, 120
14, 147024, Note_on_c, 13, 66, 120
14, 147094, Note_on_c, 13, 66, 0
14, 147094, Note_on_c, 13, 62, 0
14, 147120, Note_on_c, 13, 57, 120
14, 147120, Note_on_c, 13, 64, 120
14, 147190, Note_on_c, 13, 64, 0
14, 147190, Note_on_c, 13, 57, 0
14, 147216, Note_on_c, 13, 57, 120
14, 147216, Note_on_c, 13, 64, 120
14, 147286, Note_on_c, 13, 64, 0
14, 147286, Note_on_c, 13, 57, 0
14, 147312, Control_c, 13, 11, 95
14, 147312, Note_on_c, 13, 62, 120
14, 147312, Note_on_c, 13, 66, 120
14, 147325, Control_c, 13, 11, 94
14, 147338, Control_c, 13, 11, 93
14, 147351, Control_c, 13, 11, 92
14, 147364, Control_c, 13, 11, 91
14, 147376, Control_c, 13, 11, 90
14, 147382, Note_on_c, 13, 66, 0
14, 147382, Note_on_c, 13, 62, 0
14, 147389, Control_c, 13, 11, 89
14, 147402, Control_c, 13, 11, 88
14, 147408, Note_on_c, 13, 62, 120
14, 147408, Note_on_c, 13, 66, 120
14, 147415, Control_c, 13, 11, 87
14, 147427, Control_c, 13, 11, 86
14, 147440, Control_c, 13, 11, 85
14, 147453, Control_c, 13, 11, 84
14, 147466, Control_c, 13, 11, 83
14, 147478, Note_on_c, 13, 66, 0
14, 147478, Note_on_c, 13, 62, 0
14, 147478, Control_c, 13, 11, 82
14, 147491, Control_c, 13, 11, 81
14, 147504, Note_on_c, 13, 57, 120
14, 147504, Note_on_c, 13, 64, 120
14, 147504, Control_c, 13, 11, 80
14, 147517, Control_c, 13, 11, 79
14, 147530, Control_c, 13, 11, 78
14, 147542, Control_c, 13, 11, 77
14, 147555, Control_c, 13, 11, 76
14, 147568, Control_c, 13, 11, 75
14, 147574, Note_on_c, 13, 64, 0
14, 147574, Note_on_c, 13, 57, 0
14, 147581, Control_c, 13, 11, 74
14, 147593, Control_c, 13, 11, 73
14, 147600, Note_on_c, 13, 57, 120
14, 147600, Note_on_c, 13, 64, 120
14, 147606, Control_c, 13, 11, 72
14, 147619, Control_c, 13, 11, 71
14, 147632, Control_c, 13, 11, 70
14, 147644, Control_c, 13, 11, 69
14, 147657, Control_c, 13, 11, 68
14, 147670, Note_on_c, 13, 64, 0
14, 147670, Note_on_c, 13, 57, 0
14, 147670, Control_c, 13, 11, 67
14, 147683, Control_c, 13, 11, 66
14, 147695, Control_c, 13, 11, 65
14, 147696, Note_on_c, 13, 62, 120
14, 147696, Note_on_c, 13, 66, 120
14, 147722, Note_on_c, 13, 66, 0
14, 147722, Note_on_c, 13, 62, 0
14, 148848, Control_c, 13, 11, 87
14, 148896, Control_c, 13, 11, 88
14, 148944, Control_c, 13, 1, 0
14, 148944, Note_on_c, 13, 62, 120
14, 148944, Note_on_c, 13, 66, 120
14, 148944, Control_c, 13, 11, 89
14, 148945, Control_c, 13, 1, 1
14, 148947, Control_c, 13, 1, 2
14, 148949, Control_c, 13, 1, 3
14, 148952, Control_c, 13, 1, 4
14, 148955, Control_c, 13, 1, 5
14, 148958, Control_c, 13, 1, 6
14, 148962, Control_c, 13, 1, 7
14, 148965, Control_c, 13, 1, 8
14, 148970, Control_c, 13, 1, 9
14, 148976, Control_c, 13, 1, 10
14, 148982, Control_c, 13, 1, 11
14, 148989, Control_c, 13, 1, 12
14, 148992, Control_c, 13, 11, 90
14, 148999, Control_c, 13, 1, 13
14, 149012, Control_c, 13, 1, 14
14, 149036, Control_c, 13, 1, 15
14, 149040, Control_c, 13, 11, 91
14, 149088, Control_c, 13, 11, 92
14, 149134, Note_on_c, 13, 66, 0
14, 149134, Note_on_c, 13, 62, 0
14, 149136, Control_c, 13, 1, 0
14, 149136, Note_on_c, 13, 64, 120
14, 149136, Note_on_c, 13, 67, 120
14, 149136, Control_c, 13, 11, 93
14, 149184, Control_c, 13, 11, 94
14, 149228, Note_on_c, 13, 67, 0
14, 149228, Note_on_c, 13, 64, 0
14, 149231, Control_c, 13, 11, 95
14, 149232, Note_on_c, 13, 66, 120
14, 149232, Note_on_c, 13, 69, 120
14, 149302, Note_on_c, 13, 69, 0
14, 149302, Note_on_c, 13, 66, 0
14, 149328, Note_on_c, 13, 66, 120
14, 149328, Note_on_c, 13, 69, 120
14, 149398, Note_on_c, 13, 69, 0
14, 149398, Note_on_c, 13, 66, 0
14, 149424, Note_on_c, 13, 64, 120
14, 149424, Note_on_c, 13, 69, 120
14, 149494, Note_on_c, 13, 69, 0
14, 149494, Note_on_c, 13, 64, 0
14, 149520, Note_on_c, 13, 64, 120
14, 149520, Note_on_c, 13, 69, 120
14, 149590, Note_on_c, 13, 69, 0
14, 149590, Note_on_c, 13, 64, 0
14, 149616, Control_c, 13, 11, 95
14, 149616, Note_on_c, 13, 66, 120
14, 149616, Note_on_c, 13, 69, 120
14, 149655, Control_c, 13, 11, 94
14, 149686, Note_on_c, 13, 69, 0
14, 149686, Note_on_c, 13, 66, 0
14, 149693, Control_c, 13, 11, 93
14, 149712, Note_on_c, 13, 66, 120
14, 149712, Note_on_c, 13, 69, 120
14, 149732, Control_c, 13, 11, 92
14, 149770, Control_c, 13, 11, 91
14, 149782, Note_on_c, 13, 69, 0
14, 149782, Note_on_c, 13, 66, 0
14, 149808, Note_on_c, 13, 64, 120
14, 149808, Note_on_c, 13, 69, 120
14, 149808, Control_c, 13, 11, 90
14, 149847, Control_c, 13, 11, 89
14, 149878, Note_on_c, 13, 69, 0
14, 149878, Note_on_c, 13, 64, 0
14, 149885, Control_c, 13, 11, 88
14, 149904, Note_on_c, 13, 64, 120
14, 149904, Note_on_c, 13, 69, 120
14, 149923, Control_c, 13, 11, 87
14, 149962, Control_c, 13, 11, 86
14, 149974, Note_on_c, 13, 69, 0
14, 149974, Note_on_c, 13, 64, 0
14, 150000, Note_on_c, 13, 66, 120
14, 150000, Note_on_c, 13, 69, 120
14, 150000, Control_c, 13, 11, 85
14, 150039, Control_c, 13, 11, 84
14, 150070, Note_on_c, 13, 69, 0
14, 150070, Note_on_c, 13, 66, 0
14, 150077, Control_c, 13, 11, 83
14, 150096, Note_on_c, 13, 66, 120
14, 150096, Note_on_c, 13, 69, 120
14, 150115, Control_c, 13, 11, 82
14, 150154, Control_c, 13, 11, 81
14, 150166, Note_on_c, 13, 69, 0
14, 150166, Note_on_c, 13, 66, 0
14, 150192, Note_on_c, 13, 64, 120
14, 150192, Note_on_c, 13, 69, 120
14, 150192, Control_c, 13, 11, 80
14, 150230, Control_c, 13, 11, 79
14, 150262, Note_on_c, 13, 69, 0
14, 150262, Note_on_c, 13, 64, 0
14, 150269, Control_c, 13, 11, 78
14, 150288, Note_on_c, 13, 64, 120
14, 150288, Note_on_c, 13, 69, 120
14, 150307, Control_c, 13, 11, 77
14, 150345, Control_c, 13, 11, 76
14, 150358, Note_on_c, 13, 69, 0
14, 150358, Note_on_c, 13, 64, 0
14, 150384, Note_on_c, 13, 66, 120
14, 150384, Note_on_c, 13, 69, 120
14, 150384, Control_c, 13, 11, 75
14, 150422, Control_c, 13, 11, 74
14, 150454, Note_on_c, 13, 69, 0
14, 150454, Note_on_c, 13, 66, 0
14, 150461, Control_c, 13, 11, 73
14, 150480, Note_on_c, 13, 66, 120
14, 150480, Note_on_c, 13, 69, 120
14, 150499, Control_c, 13, 11, 72
14, 150537, Control_c, 13, 11, 71
14, 150550, Note_on_c, 13, 69, 0
14, 150550, Note_on_c, 13, 66, 0
14, 150576, Note_on_c, 13, 64, 120
14, 150576, Note_on_c, 13, 69, 120
14, 150576, Control_c, 13, 11, 70
14, 150614, Control_c, 13, 11, 69
14, 150646, Note_on_c, 13, 69, 0
14, 150646, Note_on_c, 13, 64, 0
14, 150652, Control_c, 13, 11, 68
14, 150672, Note_on_c, 13, 64, 120
14, 150672, Note_on_c, 13, 69, 120
14, 150691, Control_c, 13, 11, 67
14, 150729, Control_c, 13, 11, 66
14, 150742, Note_on_c, 13, 69, 0
14, 150742, Note_on_c, 13, 64, 0
14, 150767, Control_c, 13, 11, 65
14, 150768, Note_on_c, 13, 66, 120
14, 150768, Note_on_c, 13, 69, 120
14, 150860, Note_on_c, 13, 69, 0
14, 150860, Note_on_c, 13, 66, 0
14, 151152, Note_on_c, 13, 50, 120
14, 151152, Note_on_c, 13, 62, 120
14, 151244, Note_on_c, 13, 62, 0
14, 151244, Note_on_c, 13, 50, 0
14, 151536, Control_c, 13, 11, 60
14, 151536, Note_on_c, 13, 50, 120
14, 151536, Note_on_c, 13, 62, 120
14, 151628, Note_on_c, 13, 62, 0
14, 151628, Note_on_c, 13, 50, 0
14, 151920, Note_on_c, 13, 50, 120
14, 151920, Note_on_c, 13, 62, 120
14, 152012, Note_on_c, 13, 62, 0
14, 152012, Note_on_c, 13, 50, 0
14, 152304, End_track
15, 0, Start_track
15, 0, Title_t, "Trombono Basso"
15, 0, MIDI_port, 0
15, 114864, Program_c, 14, 57
15, 114980, Control_c, 14, 7, 105
15, 114984, Control_c, 14, 91, 105
15, 114988, Control_c, 14, 93, 15
15, 114992, Control_c, 14, 10, 82
15, 114996, Control_c, 14, 99, 1
15, 115000, Control_c, 14, 98, 32
15, 115004, Control_c, 14, 6, 52
15, 115056, Control_c, 14, 1, 0
15, 115056, Control_c, 14, 11, 120
15, 115056, Note_on_c, 14, 62, 113
15, 115057, Control_c, 14, 1, 1
15, 115059, Control_c, 14, 1, 2
15, 115061, Control_c, 14, 11, 119
15, 115062, Control_c, 14, 1, 3
15, 115065, Control_c, 14, 11, 118
15, 115066, Control_c, 14, 1, 4
15, 115070, Control_c, 14, 11, 117
15, 115070, Control_c, 14, 1, 5
15, 115073, Control_c, 14, 1, 6
15, 115074, Control_c, 14, 11, 116
15, 115078, Control_c, 14, 1, 7
15, 115079, Control_c, 14, 11, 115
15, 115083, Control_c, 14, 11, 114
15, 115083, Control_c, 14, 1, 8
15, 115087, Control_c, 14, 11, 113
15, 115088, Control_c, 14, 1, 9
15, 115092, Control_c, 14, 11, 112
15, 115096, Control_c, 14, 11, 111
15, 115096, Control_c, 14, 1, 10
15, 115101, Control_c, 14, 11, 110
15, 115103, Control_c, 14, 1, 11
15, 115105, Control_c, 14, 11, 109
15, 115110, Control_c, 14, 11, 108
15, 115113, Control_c, 14, 1, 12
15, 115114, Control_c, 14, 11, 107
15, 115118, Control_c, 14, 11, 106
15, 115123, Control_c, 14, 11, 105
15, 115125, Control_c, 14, 1, 13
15, 115127, Control_c, 14, 11, 104
15, 115132, Control_c, 14, 11, 103
15, 115136, Control_c, 14, 11, 102
15, 115141, Control_c, 14, 11, 101
15, 115141, Control_c, 14, 1, 14
15, 115145, Control_c, 14, 11, 100
15, 115149, Control_c, 14, 11, 99
15, 115154, Control_c, 14, 11, 98
15, 115158, Control_c, 14, 11, 97
15, 115163, Control_c, 14, 11, 96
15, 115167, Control_c, 14, 11, 95
15, 115170, Control_c, 14, 1, 15
15, 115172, Control_c, 14, 11, 94
15, 115176, Control_c, 14, 11, 93
15, 115180, Control_c, 14, 11, 92
15, 115185, Control_c, 14, 11, 91
15, 115189, Control_c, 14, 11, 90
15, 115194, Control_c, 14, 11, 89
15, 115198, Control_c, 14, 11, 88
15, 115203, Control_c, 14, 11, 87
15, 115207, Control_c, 14, 11, 86
15, 115211, Control_c, 14, 11, 85
15, 115216, Control_c, 14, 11, 84
15, 115220, Control_c, 14, 11, 83
15, 115225, Control_c, 14, 11, 82
15, 115229, Control_c, 14, 11, 81
15, 115234, Control_c, 14, 11, 80
15, 115238, Control_c, 14, 11, 79
15, 115242, Control_c, 14, 11, 78
15, 115247, Control_c, 14, 11, 77
15, 115251, Control_c, 14, 11, 76
15, 115256, Control_c, 14, 11, 75
15, 115260, Control_c, 14, 11, 74
15, 115265, Control_c, 14, 11, 73
15, 115269, Control_c, 14, 11, 72
15, 115272, Note_on_c, 14, 62, 0
15, 115273, Control_c, 14, 11, 71
15, 115278, Control_c, 14, 11, 70
15, 115282, Control_c, 14, 11, 69
15, 115287, Control_c, 14, 11, 68
15, 115291, Control_c, 14, 11, 67
15, 115295, Control_c, 14, 11, 66
15, 128304, Control_c, 14, 1, 0
15, 128304, Control_c, 14, 11, 120
15, 128304, Note_on_c, 14, 50, 100
15, 128328, Note_on_c, 14, 50, 0
15, 128400, Note_on_c, 14, 62, 60
15, 128424, Note_on_c, 14, 62, 0
15, 128496, Note_on_c, 14, 62, 60
15, 128520, Note_on_c, 14, 62, 0
15, 128592, Note_on_c, 14, 57, 62
15, 128616, Note_on_c, 14, 57, 0
15, 128688, Note_on_c, 14, 54, 65
15, 128712, Note_on_c, 14, 54, 0
15, 128784, Note_on_c, 14, 50, 67
15, 128808, Note_on_c, 14, 50, 0
15, 128832, Note_on_c, 14, 48, 69
15, 128856, Note_on_c, 14, 48, 0
15, 128880, Note_on_c, 14, 47, 70
15, 128904, Note_on_c, 14, 47, 0
15, 128976, Note_on_c, 14, 50, 73
15, 129000, Note_on_c, 14, 50, 0
15, 129072, Note_on_c, 14, 57, 75
15, 129096, Note_on_c, 14, 57, 0
15, 129168, Note_on_c, 14, 62, 78
15, 129192, Note_on_c, 14, 62, 0
15, 129264, Note_on_c, 14, 62, 81
15, 129288, Note_on_c, 14, 62, 0
15, 129360, Note_on_c, 14, 57, 83
15, 129384, Note_on_c, 14, 57, 0
15, 129456, Note_on_c, 14, 54, 86
15, 129480, Note_on_c, 14, 54, 0
15, 129552, Note_on_c, 14, 50, 88
15, 129576, Note_on_c, 14, 50, 0
15, 129600, Note_on_c, 14, 48, 90
15, 129624, Note_on_c, 14, 48, 0
15, 129648, Note_on_c, 14, 47, 91
15, 129672, Note_on_c, 14, 47, 0
15, 129744, Note_on_c, 14, 50, 94
15, 129768, Note_on_c, 14, 50, 0
15, 129840, Note_on_c, 14, 57, 96
15, 129864, Note_on_c, 14, 57, 0
15, 129936, Note_on_c, 14, 62, 100
15, 129960, Note_on_c, 14, 62, 0
15, 129984, Note_on_c, 14, 61, 100
15, 130008, Note_on_c, 14, 61, 0
15, 130032, Note_on_c, 14, 62, 100
15, 130056, Note_on_c, 14, 62, 0
15, 130128, Note_on_c, 14, 57, 100
15, 130152, Note_on_c, 14, 57, 0
15, 130224, Note_on_c, 14, 54, 100
15, 130248, Note_on_c, 14, 54, 0
15, 130320, Note_on_c, 14, 50, 100
15, 130344, Note_on_c, 14, 50, 0
15, 130368, Note_on_c, 14, 48, 95
15, 130392, Note_on_c, 14, 48, 0
15, 130416, Note_on_c, 14, 47, 100
15, 130440, Note_on_c, 14, 47, 0
15, 130512, Note_on_c, 14, 49, 100
15, 130536, Note_on_c, 14, 49, 0
15, 130560, Note_on_c, 14, 50, 95
15, 130584, Note_on_c, 14, 50, 0
15, 130608, Note_on_c, 14, 57, 100
15, 130632, Note_on_c, 14, 57, 0
15, 130704, Note_on_c, 14, 62, 100
15, 130728, Note_on_c, 14, 62, 0
15, 130752, Note_on_c, 14, 61, 95
15, 130776, Note_on_c, 14, 61, 0
15, 130800, Note_on_c, 14, 62, 100
15, 130824, Note_on_c, 14, 62, 0
15, 130896, Note_on_c, 14, 57, 100
15, 130920, Note_on_c, 14, 57, 0
15, 130992, Note_on_c, 14, 54, 100
15, 131016, Note_on_c, 14, 54, 0
15, 131088, Note_on_c, 14, 50, 100
15, 131112, Note_on_c, 14, 50, 0
15, 131184, Note_on_c, 14, 47, 105
15, 131208, Note_on_c, 14, 47, 0
15, 131232, Note_on_c, 14, 43, 100
15, 131256, Note_on_c, 14, 43, 0
15, 131280, Note_on_c, 14, 45, 100
15, 131304, Note_on_c, 14, 45, 0
15, 131376, Note_on_c, 14, 50, 100
15, 131400, Note_on_c, 14, 50, 0
15, 141552, Control_c, 14, 1, 0
15, 141552, Control_c, 14, 11, 120
15, 141552, Note_on_c, 14, 50, 100
15, 141576, Note_on_c, 14, 50, 0
15, 141648, Note_on_c, 14, 62, 60
15, 141672, Note_on_c, 14, 62, 0
15, 141744, Note_on_c, 14, 62, 60
15, 141768, Note_on_c, 14, 62, 0
15, 141840, Note_on_c, 14, 57, 62
15, 141864, Note_on_c, 14, 57, 0
15, 141936, Note_on_c, 14, 54, 65
15, 141960, Note_on_c, 14, 54, 0
15, 142032, Note_on_c, 14, 50, 67
15, 142056, Note_on_c, 14, 50, 0
15, 142080, Note_on_c, 14, 48, 69
15, 142104, Note_on_c, 14, 48, 0
15, 142128, Note_on_c, 14, 47, 70
15, 142152, Note_on_c, 14, 47, 0
15, 142224, Note_on_c, 14, 50, 73
15, 142248, Note_on_c, 14, 50, 0
15, 142320, Note_on_c, 14, 57, 75
15, 142344, Note_on_c, 14, 57, 0
15, 142416, Note_on_c, 14, 62, 78
15, 142440, Note_on_c, 14, 62, 0
15, 142512, Note_on_c, 14, 62, 81
15, 142536, Note_on_c, 14, 62, 0
15, 142608, Note_on_c, 14, 57, 83
15, 142632, Note_on_c, 14, 57, 0
15, 142704, Note_on_c, 14, 54, 86
15, 142728, Note_on_c, 14, 54, 0
15, 142800, Note_on_c, 14, 50, 88
15, 142824, Note_on_c, 14, 50, 0
15, 142848, Note_on_c, 14, 48, 90
15, 142872, Note_on_c, 14, 48, 0
15, 142896, Note_on_c, 14, 47, 91
15, 142920, Note_on_c, 14, 47, 0
15, 142992, Note_on_c, 14, 50, 94
15, 143016, Note_on_c, 14, 50, 0
15, 143088, Note_on_c, 14, 57, 96
15, 143112, Note_on_c, 14, 57, 0
15, 143184, Note_on_c, 14, 62, 100
15, 143208, Note_on_c, 14, 62, 0
15, 143232, Note_on_c, 14, 61, 100
15, 143256, Note_on_c, 14, 61, 0
15, 143280, Note_on_c, 14, 62, 100
15, 143304, Note_on_c, 14, 62, 0
15, 143376, Note_on_c, 14, 57, 100
15, 143400, Note_on_c, 14, 57, 0
15, 143472, Note_on_c, 14, 54, 100
15, 143496, Note_on_c, 14, 54, 0
15, 143568, Note_on_c, 14, 50, 100
15, 143592, Note_on_c, 14, 50, 0
15, 143616, Note_on_c, 14, 48, 95
15, 143640, Note_on_c, 14, 48, 0
15, 143664, Note_on_c, 14, 47, 100
15, 143688, Note_on_c, 14, 47, 0
15, 143760, Note_on_c, 14, 49, 100
15, 143784, Note_on_c, 14, 49, 0
15, 143808, Note_on_c, 14, 50, 95
15, 143832, Note_on_c, 14, 50, 0
15, 143856, Note_on_c, 14, 57, 100
15, 143880, Note_on_c, 14, 57, 0
15, 143952, Note_on_c, 14, 62, 100
15, 143976, Note_on_c, 14, 62, 0
15, 144000, Note_on_c, 14, 61, 95
15, 144024, Note_on_c, 14, 61, 0
15, 144048, Note_on_c, 14, 62, 100
15, 144072, Note_on_c, 14, 62, 0
15, 144144, Note_on_c, 14, 57, 100
15, 144168, Note_on_c, 14, 57, 0
15, 144240, Note_on_c, 14, 54, 100
15, 144264, Note_on_c, 14, 54, 0
15, 144336, Note_on_c, 14, 50, 100
15, 144360, Note_on_c, 14, 50, 0
15, 144432, Note_on_c, 14, 47, 105
15, 144456, Note_on_c, 14, 47, 0
15, 144480, Note_on_c, 14, 43, 100
15, 144504, Note_on_c, 14, 43, 0
15, 144528, Note_on_c, 14, 45, 100
15, 144552, Note_on_c, 14, 45, 0
15, 144624, Control_c, 14, 1, 0
15, 144624, Control_c, 14, 11, 95
15, 144624, Note_on_c, 14, 50, 120
15, 144625, Control_c, 14, 11, 91
15, 144625, Control_c, 14, 1, 1
15, 144626, Control_c, 14, 11, 88
15, 144627, Control_c, 14, 11, 85
15, 144627, Control_c, 14, 1, 2
15, 144628, Control_c, 14, 11, 83
15, 144629, Control_c, 14, 11, 81
15, 144629, Control_c, 14, 1, 3
15, 144630, Control_c, 14, 11, 79
15, 144631, Control_c, 14, 11, 77
15, 144632, Control_c, 14, 11, 76
15, 144632, Control_c, 14, 1, 4
15, 144633, Control_c, 14, 11, 75
15, 144634, Control_c, 14, 11, 74
15, 144635, Control_c, 14, 11, 73
15, 144635, Control_c, 14, 1, 5
15, 144636, Control_c, 14, 11, 72
15, 144637, Control_c, 14, 11, 71
15, 144638, Control_c, 14, 11, 70
15, 144638, Control_c, 14, 1, 6
15, 144640, Control_c, 14, 11, 69
15, 144641, Control_c, 14, 11, 68
15, 144642, Control_c, 14, 1, 7
15, 144644, Control_c, 14, 11, 67
15, 144645, Control_c, 14, 1, 8
15, 144647, Control_c, 14, 11, 66
15, 144650, Control_c, 14, 1, 9
15, 144653, Control_c, 14, 11, 65
15, 144656, Control_c, 14, 1, 10
15, 144662, Control_c, 14, 1, 11
15, 144669, Control_c, 14, 1, 12
15, 144679, Control_c, 14, 1, 13
15, 144692, Control_c, 14, 1, 14
15, 144716, Control_c, 14, 1, 15
15, 144908, Note_on_c, 14, 50, 0
15, 144912, Control_c, 14, 1, 0
15, 144912, Note_on_c, 14, 52, 120
15, 145004, Note_on_c, 14, 52, 0
15, 145008, Note_on_c, 14, 54, 120
15, 145100, Note_on_c, 14, 54, 0
15, 145200, Note_on_c, 14, 55, 120
15, 145245, Note_on_c, 14, 55, 0
15, 145296, Note_on_c, 14, 54, 120
15, 145341, Note_on_c, 14, 54, 0
15, 145392, Note_on_c, 14, 52, 120
15, 145484, Note_on_c, 14, 52, 0
15, 145488, Control_c, 14, 1, 0
15, 145488, Control_c, 14, 11, 65
15, 145488, Note_on_c, 14, 50, 120
15, 145489, Control_c, 14, 1, 1
15, 145491, Control_c, 14, 1, 2
15, 145493, Control_c, 14, 1, 3
15, 145496, Control_c, 14, 1, 4
15, 145499, Control_c, 14, 1, 5
15, 145502, Control_c, 14, 1, 6
15, 145506, Control_c, 14, 1, 7
15, 145509, Control_c, 14, 1, 8
15, 145514, Control_c, 14, 1, 9
15, 145520, Control_c, 14, 1, 10
15, 145526, Control_c, 14, 1, 11
15, 145533, Control_c, 14, 1, 12
15, 145536, Control_c, 14, 11, 66
15, 145543, Control_c, 14, 1, 13
15, 145556, Control_c, 14, 1, 14
15, 145580, Control_c, 14, 1, 15
15, 145584, Control_c, 14, 11, 67
15, 145632, Control_c, 14, 11, 68
15, 145678, Note_on_c, 14, 50, 0
15, 145680, Control_c, 14, 1, 0
15, 145680, Note_on_c, 14, 52, 120
15, 145680, Control_c, 14, 11, 69
15, 145681, Control_c, 14, 1, 1
15, 145682, Control_c, 14, 1, 2
15, 145683, Control_c, 14, 1, 3
15, 145684, Control_c, 14, 1, 4
15, 145686, Control_c, 14, 1, 5
15, 145687, Control_c, 14, 1, 6
15, 145689, Control_c, 14, 1, 7
15, 145691, Control_c, 14, 1, 8
15, 145693, Control_c, 14, 1, 9
15, 145696, Control_c, 14, 1, 10
15, 145699, Control_c, 14, 1, 11
15, 145703, Control_c, 14, 1, 12
15, 145708, Control_c, 14, 1, 13
15, 145714, Control_c, 14, 1, 14
15, 145726, Control_c, 14, 1, 15
15, 145728, Control_c, 14, 11, 70
15, 145772, Note_on_c, 14, 52, 0
15, 145776, Control_c, 14, 1, 0
15, 145776, Note_on_c, 14, 54, 120
15, 145776, Control_c, 14, 11, 71
15, 145824, Control_c, 14, 11, 72
15, 145868, Note_on_c, 14, 54, 0
15, 145872, Note_on_c, 14, 54, 120
15, 145872, Control_c, 14, 11, 73
15, 145920, Control_c, 14, 11, 74
15, 145968, Control_c, 14, 11, 75
15, 146016, Control_c, 14, 11, 76
15, 146062, Note_on_c, 14, 54, 0
15, 146064, Note_on_c, 14, 55, 120
15, 146064, Control_c, 14, 11, 77
15, 146112, Control_c, 14, 11, 78
15, 146156, Note_on_c, 14, 55, 0
15, 146160, Note_on_c, 14, 57, 120
15, 146160, Control_c, 14, 1, 0
15, 146160, Control_c, 14, 11, 79
15, 146161, Control_c, 14, 1, 1
15, 146163, Control_c, 14, 1, 2
15, 146165, Control_c, 14, 1, 3
15, 146168, Control_c, 14, 1, 4
15, 146171, Control_c, 14, 1, 5
15, 146174, Control_c, 14, 1, 6
15, 146178, Control_c, 14, 1, 7
15, 146181, Control_c, 14, 1, 8
15, 146186, Control_c, 14, 1, 9
15, 146192, Control_c, 14, 1, 10
15, 146198, Control_c, 14, 1, 11
15, 146205, Control_c, 14, 1, 12
15, 146208, Control_c, 14, 11, 80
15, 146215, Control_c, 14, 1, 13
15, 146228, Control_c, 14, 1, 14
15, 146252, Control_c, 14, 1, 15
15, 146256, Control_c, 14, 11, 81
15, 146304, Control_c, 14, 11, 82
15, 146352, Control_c, 14, 11, 83
15, 146400, Control_c, 14, 11, 84
15, 146444, Note_on_c, 14, 57, 0
15, 146448, Control_c, 14, 1, 0
15, 146448, Note_on_c, 14, 55, 120
15, 146448, Control_c, 14, 11, 85
15, 146496, Control_c, 14, 11, 86
15, 146540, Note_on_c, 14, 55, 0
15, 146544, Note_on_c, 14, 54, 120
15, 146544, Control_c, 14, 11, 87
15, 146592, Control_c, 14, 11, 88
15, 146636, Note_on_c, 14, 54, 0
15, 146640, Control_c, 14, 1, 0
15, 146640, Note_on_c, 14, 54, 120
15, 146640, Control_c, 14, 11, 89
15, 146641, Control_c, 14, 1, 1
15, 146643, Control_c, 14, 1, 2
15, 146645, Control_c, 14, 1, 3
15, 146648, Control_c, 14, 1, 4
15, 146651, Control_c, 14, 1, 5
15, 146654, Control_c, 14, 1, 6
15, 146658, Control_c, 14, 1, 7
15, 146661, Control_c, 14, 1, 8
15, 146666, Control_c, 14, 1, 9
15, 146672, Control_c, 14, 1, 10
15, 146678, Control_c, 14, 1, 11
15, 146685, Control_c, 14, 1, 12
15, 146688, Control_c, 14, 11, 90
15, 146695, Control_c, 14, 1, 13
15, 146708, Control_c, 14, 1, 14
15, 146732, Control_c, 14, 1, 15
15, 146736, Control_c, 14, 11, 91
15, 146784, Control_c, 14, 11, 92
15, 146830, Note_on_c, 14, 54, 0
15, 146832, Control_c, 14, 1, 0
15, 146832, Note_on_c, 14, 52, 120
15, 146832, Control_c, 14, 11, 93
15, 146880, Control_c, 14, 11, 94
15, 146924, Note_on_c, 14, 52, 0
15, 146927, Control_c, 14, 11, 95
15, 146928, Control_c, 14, 1, 0
15, 146928, Note_on_c, 14, 50, 120
15, 146998, Note_on_c, 14, 50, 0
15, 147024, Note_on_c, 14, 50, 120
15, 147094, Note_on_c, 14, 50, 0
15, 147120, Note_on_c, 14, 45, 120
15, 147190, Note_on_c, 14, 45, 0
15, 147216, Note_on_c, 14, 45, 120
15, 147286, Note_on_c, 14, 45, 0
15, 147312, Control_c, 14, 11, 95
15, 147312, Note_on_c, 14, 50, 120
15, 147325, Control_c, 14, 11, 94
15, 147338, Control_c, 14, 11, 93
15, 147351, Control_c, 14, 11, 92
15, 147364, Control_c, 14, 11, 91
15, 147376, Control_c, 14, 11, 90
15, 147382, Note_on_c, 14, 50, 0
15, 147389, Control_c, 14, 11, 89
15, 147402, Control_c, 14, 11, 88
15, 147408, Note_on_c, 14, 50, 120
15, 147415, Control_c, 14, 11, 87
15, 147427, Control_c, 14, 11, 86
15, 147440, Control_c, 14, 11, 85
15, 147453, Control_c, 14, 11, 84
15, 147466, Control_c, 14, 11, 83
15, 147478, Note_on_c, 14, 50, 0
15, 147478, Control_c, 14, 11, 82
15, 147491, Control_c, 14, 11, 81
15, 147504, Note_on_c, 14, 45, 120
15, 147504, Control_c, 14, 11, 80
15, 147517, Control_c, 14, 11, 79
15, 147530, Control_c, 14, 11, 78
15, 147542, Control_c, 14, 11, 77
15, 147555, Control_c, 14, 11, 76
15, 147568, Control_c, 14, 11, 75
15, 147574, Note_on_c, 14, 45, 0
15, 147581, Control_c, 14, 11, 74
15, 147593, Control_c, 14, 11, 73
15, 147600, Note_on_c, 14, 45, 120
15, 147606, Control_c, 14, 11, 72
15, 147619, Control_c, 14, 11, 71
15, 147632, Control_c, 14, 11, 70
15, 147644, Control_c, 14, 11, 69
15, 147657, Control_c, 14, 11, 68
15, 147670, Note_on_c, 14, 45, 0
15, 147670, Control_c, 14, 11, 67
15, 147683, Control_c, 14, 11, 66
15, 147695, Control_c, 14, 11, 65
15, 147696, Note_on_c, 14, 50, 120
15, 147741, Note_on_c, 14, 50, 0
15, 147792, Control_c, 14, 11, 65
15, 147792, Note_on_c, 14, 62, 120
15, 147837, Note_on_c, 14, 62, 0
15, 147840, Control_c, 14, 11, 66
15, 147888, Note_on_c, 14, 62, 120
15, 147888, Control_c, 14, 11, 67
15, 147933, Note_on_c, 14, 62, 0
15, 147936, Control_c, 14, 11, 68
15, 147984, Note_on_c, 14, 57, 120
15, 147984, Control_c, 14, 11, 69
15, 148029, Note_on_c, 14, 57, 0
15, 148032, Control_c, 14, 11, 70
15, 148080, Note_on_c, 14, 54, 120
15, 148080, Control_c, 14, 11, 71
15, 148125, Note_on_c, 14, 54, 0
15, 148128, Control_c, 14, 11, 72
15, 148176, Note_on_c, 14, 66, 120
15, 148176, Control_c, 14, 11, 73
15, 148221, Note_on_c, 14, 66, 0
15, 148224, Control_c, 14, 11, 74
15, 148272, Note_on_c, 14, 66, 120
15, 148272, Control_c, 14, 11, 75
15, 148317, Note_on_c, 14, 66, 0
15, 148320, Control_c, 14, 11, 76
15, 148368, Note_on_c, 14, 61, 120
15, 148368, Control_c, 14, 11, 77
15, 148413, Note_on_c, 14, 61, 0
15, 148416, Note_on_c, 14, 59, 120
15, 148416, Control_c, 14, 11, 78
15, 148461, Note_on_c, 14, 59, 0
15, 148464, Note_on_c, 14, 57, 120
15, 148464, Control_c, 14, 11, 79
15, 148509, Note_on_c, 14, 57, 0
15, 148512, Control_c, 14, 11, 80
15, 148560, Control_c, 14, 11, 81
15, 148608, Control_c, 14, 11, 82
15, 148656, Control_c, 14, 11, 83
15, 148704, Control_c, 14, 11, 84
15, 148752, Control_c, 14, 11, 85
15, 148800, Control_c, 14, 11, 86
15, 148848, Control_c, 14, 11, 87
15, 148896, Control_c, 14, 11, 88
15, 148944, Control_c, 14, 1, 0
15, 148944, Note_on_c, 14, 50, 120
15, 148944, Control_c, 14, 11, 89
15, 148945, Control_c, 14, 1, 1
15, 148947, Control_c, 14, 1, 2
15, 148949, Control_c, 14, 1, 3
15, 148952, Control_c, 14, 1, 4
15, 148955, Control_c, 14, 1, 5
15, 148958, Control_c, 14, 1, 6
15, 148962, Control_c, 14, 1, 7
15, 148965, Control_c, 14, 1, 8
15, 148970, Control_c, 14, 1, 9
15, 148976, Control_c, 14, 1, 10
15, 148982, Control_c, 14, 1, 11
15, 148989, Control_c, 14, 1, 12
15, 148992, Control_c, 14, 11, 90
15, 148999, Control_c, 14, 1, 13
15, 149012, Control_c, 14, 1, 14
15, 149036, Control_c, 14, 1, 15
15, 149040, Control_c, 14, 11, 91
15, 149088, Control_c, 14, 11, 92
15, 149134, Note_on_c, 14, 50, 0
15, 149136, Control_c, 14, 1, 0
15, 149136, Note_on_c, 14, 50, 120
15, 149136, Control_c, 14, 11, 93
15, 149184, Control_c, 14, 11, 94
15, 149228, Note_on_c, 14, 50, 0
15, 149231, Control_c, 14, 11, 95
15, 149232, Note_on_c, 14, 50, 120
15, 149302, Note_on_c, 14, 50, 0
15, 149328, Note_on_c, 14, 50, 120
15, 149398, Note_on_c, 14, 50, 0
15, 149424, Note_on_c, 14, 45, 120
15, 149494, Note_on_c, 14, 45, 0
15, 149520, Note_on_c, 14, 45, 120
15, 149590, Note_on_c, 14, 45, 0
15, 149616, Control_c, 14, 11, 95
15, 149616, Note_on_c, 14, 50, 120
15, 149655, Control_c, 14, 11, 94
15, 149686, Note_on_c, 14, 50, 0
15, 149693, Control_c, 14, 11, 93
15, 149712, Note_on_c, 14, 50, 120
15, 149732, Control_c, 14, 11, 92
15, 149770, Control_c, 14, 11, 91
15, 149782, Note_on_c, 14, 50, 0
15, 149808, Note_on_c, 14, 45, 120
15, 149808, Control_c, 14, 11, 90
15, 149847, Control_c, 14, 11, 89
15, 149878, Note_on_c, 14, 45, 0
15, 149885, Control_c, 14, 11, 88
15, 149904, Note_on_c, 14, 45, 120
15, 149923, Control_c, 14, 11, 87
15, 149962, Control_c, 14, 11, 86
15, 149974, Note_on_c, 14, 45, 0
15, 150000, Note_on_c, 14, 50, 120
15, 150000, Control_c, 14, 11, 85
15, 150039, Control_c, 14, 11, 84
15, 150070, Note_on_c, 14, 50, 0
15, 150077, Control_c, 14, 11, 83
15, 150096, Note_on_c, 14, 50, 120
15, 150115, Control_c, 14, 11, 82
15, 150154, Control_c, 14, 11, 81
15, 150166, Note_on_c, 14, 50, 0
15, 150192, Note_on_c, 14, 45, 120
15, 150192, Control_c, 14, 11, 80
15, 150230, Control_c, 14, 11, 79
15, 150262, Note_on_c, 14, 45, 0
15, 150269, Control_c, 14, 11, 78
15, 150288, Note_on_c, 14, 45, 120
15, 150307, Control_c, 14, 11, 77
15, 150345, Control_c, 14, 11, 76
15, 150358, Note_on_c, 14, 45, 0
15, 150384, Note_on_c, 14, 50, 120
15, 150384, Control_c, 14, 11, 75
15, 150422, Control_c, 14, 11, 74
15, 150454, Note_on_c, 14, 50, 0
15, 150461, Control_c, 14, 11, 73
15, 150480, Note_on_c, 14, 50, 120
15, 150499, Control_c, 14, 11, 72
15, 150537, Control_c, 14, 11, 71
15, 150550, Note_on_c, 14, 50, 0
15, 150576, Note_on_c, 14, 45, 120
15, 150576, Control_c, 14, 11, 70
15, 150614, Control_c, 14, 11, 69
15, 150646, Note_on_c, 14, 45, 0
15, 150652, Control_c, 14, 11, 68
15, 150672, Note_on_c, 14, 45, 120
15, 150691, Control_c, 14, 11, 67
15, 150729, Control_c, 14, 11, 66
15, 150742, Note_on_c, 14, 45, 0
15, 150767, Control_c, 14, 11, 65
15, 150768, Note_on_c, 14, 50, 120
15, 150860, Note_on_c, 14, 50, 0
15, 151152, Note_on_c, 14, 50, 120
15, 151244, Note_on_c, 14, 50, 0
15, 151536, Control_c, 14, 11, 60
15, 151536, Note_on_c, 14, 50, 120
15, 151628, Note_on_c, 14, 50, 0
15, 151920, Note_on_c, 14, 50, 120
15, 152012, Note_on_c, 14, 50, 0
15, 211776, Program_c, 14, 57
15, 211892, Control_c, 14, 7, 105
15, 211896, Control_c, 14, 91, 105
15, 211900, Control_c, 14, 93, 15
15, 211904, Control_c, 14, 10, 82
15, 211908, Control_c, 14, 99, 1
15, 211912, Control_c, 14, 98, 32
15, 211916, Control_c, 14, 6, 52
15, 211968, Control_c, 14, 1, 0
15, 211968, Control_c, 14, 11, 120
15, 211968, Note_on_c, 14, 62, 113
15, 211969, Control_c, 14, 1, 1
15, 211971, Control_c, 14, 1, 2
15, 211973, Control_c, 14, 11, 119
15, 211974, Control_c, 14, 1, 3
15, 211977, Control_c, 14, 11, 118
15, 211978, Control_c, 14, 1, 4
15, 211982, Control_c, 14, 11, 117
15, 211982, Control_c, 14, 1, 5
15, 211985, Control_c, 14, 1, 6
15, 211986, Control_c, 14, 11, 116
15, 211990, Control_c, 14, 1, 7
15, 211991, Control_c, 14, 11, 115
15, 211995, Control_c, 14, 11, 114
15, 211995, Control_c, 14, 1, 8
15, 211999, Control_c, 14, 11, 113
15, 212000, Control_c, 14, 1, 9
15, 212004, Control_c, 14, 11, 112
15, 212008, Control_c, 14, 11, 111
15, 212008, Control_c, 14, 1, 10
15, 212013, Control_c, 14, 11, 110
15, 212015, Control_c, 14, 1, 11
15, 212017, Control_c, 14, 11, 109
15, 212022, Control_c, 14, 11, 108
15, 212025, Control_c, 14, 1, 12
15, 212026, Control_c, 14, 11, 107
15, 212030, Control_c, 14, 11, 106
15, 212035, Control_c, 14, 11, 105
15, 212037, Control_c, 14, 1, 13
15, 212039, Control_c, 14, 11, 104
15, 212044, Control_c, 14, 11, 103
15, 212048, Control_c, 14, 11, 102
15, 212053, Control_c, 14, 11, 101
15, 212053, Control_c, 14, 1, 14
15, 212057, Control_c, 14, 11, 100
15, 212061, Control_c, 14, 11, 99
15, 212066, Control_c, 14, 11, 98
15, 212070, Control_c, 14, 11, 97
15, 212075, Control_c, 14, 11, 96
15, 212079, Control_c, 14, 11, 95
15, 212082, Control_c, 14, 1, 15
15, 212084, Control_c, 14, 11, 94
15, 212088, Control_c, 14, 11, 93
15, 212092, Control_c, 14, 11, 92
15, 212097, Control_c, 14, 11, 91
15, 212101, Control_c, 14, 11, 90
15, 212106, Control_c, 14, 11, 89
15, 212110, Control_c, 14, 11, 88
15, 212115, Control_c, 14, 11, 87
15, 212119, Control_c, 14, 11, 86
15, 212123, Control_c, 14, 11, 85
15, 212128, Control_c, 14, 11, 84
15, 212132, Control_c, 14, 11, 83
15, 212137, Control_c, 14, 11, 82
15, 212141, Control_c, 14, 11, 81
15, 212146, Control_c, 14, 11, 80
15, 212150, Control_c, 14, 11, 79
15, 212154, Control_c, 14, 11, 78
15, 212159, Control_c, 14, 11, 77
15, 212163, Control_c, 14, 11, 76
15, 212168, Control_c, 14, 11, 75
15, 212172, Control_c, 14, 11, 74
15, 212177, Control_c, 14, 11, 73
15, 212181, Control_c, 14, 11, 72
15, 212184, Note_on_c, 14, 62, 0
15, 212185, Control_c, 14, 11, 71
15, 212190, Control_c, 14, 11, 70
15, 212194, Control_c, 14, 11, 69
15, 212199, Control_c, 14, 11, 68
15, 212203, Control_c, 14, 11, 67
15, 212207, Control_c, 14, 11, 66
15, 213504, Control_c, 14, 11, 127
15, 213504, Note_on_c, 14, 57, 125
15, 213528, Note_on_c, 14, 57, 0
15, 213600, Note_on_c, 14, 50, 115
15, 213624, Note_on_c, 14, 50, 0
15, 213696, Note_on_c, 14, 45, 115
15, 213720, Note_on_c, 14, 45, 0
15, 213792, Note_on_c, 14, 57, 115
15, 213816, Note_on_c, 14, 57, 0
15, 213888, Note_on_c, 14, 50, 125
15, 213912, Note_on_c, 14, 50, 0
15, 214080, End_track
16, 0, Start_track
16, 0, Title_t, "Timpani"
16, 0, MIDI_port, 0
16, 176, Program_c, 9, 48
16, 176, Control_c, 9, 7, 120
16, 186, Control_c, 9, 11, 120
16, 188, Control_c, 9, 91, 85
16, 190, Control_c, 9, 93, 15
16, 192, System_exclusive, 10, 65, 16, 66, 18, 64, 16, 20, 1, 27, 247
16, 768, Note_on_c, 9, 53, 120
16, 836, Note_on_c, 9, 53, 0
16, 840, Note_on_c, 9, 41, 100
16, 862, Note_on_c, 9, 41, 0
16, 864, Note_on_c, 9, 41, 100
16, 909, Note_on_c, 9, 41, 0
16, 8256, Note_on_c, 9, 53, 110
16, 8301, Note_on_c, 9, 53, 0
16, 8400, Note_on_c, 9, 53, 110
16, 8445, Note_on_c, 9, 53, 0
16, 8688, Note_on_c, 9, 53, 110
16, 8733, Note_on_c, 9, 53, 0
16, 8976, Note_on_c, 9, 53, 110
16, 9021, Note_on_c, 9, 53, 0
16, 9264, Note_on_c, 9, 53, 110
16, 9309, Note_on_c, 9, 53, 0
16, 9552, Note_on_c, 9, 53, 110
16, 9597, Note_on_c, 9, 53, 0
16, 9840, Note_on_c, 9, 53, 110
16, 9885, Note_on_c, 9, 53, 0
16, 9936, Note_on_c, 9, 53, 110
16, 9981, Note_on_c, 9, 53, 0
16, 9984, Note_on_c, 9, 53, 110
16, 10029, Note_on_c, 9, 53, 0
16, 10464, Note_on_c, 9, 53, 110
16, 10509, Note_on_c, 9, 53, 0
16, 10512, Note_on_c, 9, 53, 110
16, 10557, Note_on_c, 9, 53, 0
16, 10560, Note_on_c, 9, 53, 110
16, 10605, Note_on_c, 9, 53, 0
16, 16032, Note_on_c, 9, 53, 120
16, 16067, Note_on_c, 9, 53, 0
16, 16104, Note_on_c, 9, 41, 113
16, 16116, Note_on_c, 9, 41, 0
16, 16128, Note_on_c, 9, 41, 113
16, 16152, Note_on_c, 9, 41, 0
16, 16176, Note_on_c, 9, 53, 113
16, 16200, Note_on_c, 9, 53, 0
16, 28704, Note_on_c, 9, 53, 110
16, 28749, Note_on_c, 9, 53, 0
16, 28848, Note_on_c, 9, 53, 110
16, 28893, Note_on_c, 9, 53, 0
16, 29136, Note_on_c, 9, 53, 110
16, 29181, Note_on_c, 9, 53, 0
16, 29424, Note_on_c, 9, 53, 110
16, 29469, Note_on_c, 9, 53, 0
16, 29712, Note_on_c, 9, 53, 110
16, 29757, Note_on_c, 9, 53, 0
16, 30000, Note_on_c, 9, 53, 110
16, 30045, Note_on_c, 9, 53, 0
16, 30288, Note_on_c, 9, 53, 110
16, 30333, Note_on_c, 9, 53, 0
16, 30384, Note_on_c, 9, 53, 110
16, 30429, Note_on_c, 9, 53, 0
16, 30432, Note_on_c, 9, 53, 110
16, 30477, Note_on_c, 9, 53, 0
16, 30912, Note_on_c, 9, 53, 110
16, 30957, Note_on_c, 9, 53, 0
16, 30960, Note_on_c, 9, 53, 110
16, 31005, Note_on_c, 9, 53, 0
16, 31008, Note_on_c, 9, 53, 110
16, 31053, Note_on_c, 9, 53, 0
16, 36480, Note_on_c, 9, 53, 120
16, 36515, Note_on_c, 9, 53, 0
16, 36552, Note_on_c, 9, 41, 113
16, 36564, Note_on_c, 9, 41, 0
16, 36576, Note_on_c, 9, 41, 113
16, 36600, Note_on_c, 9, 41, 0
16, 36624, Note_on_c, 9, 53, 113
16, 36648, Note_on_c, 9, 53, 0
16, 48624, Note_on_c, 9, 53, 110
16, 48692, Note_on_c, 9, 53, 0
16, 48696, Note_on_c, 9, 41, 100
16, 48718, Note_on_c, 9, 41, 0
16, 48720, Note_on_c, 9, 41, 100
16, 48765, Note_on_c, 9, 41, 0
16, 49056, Note_on_c, 9, 53, 110
16, 49124, Note_on_c, 9, 53, 0
16, 49128, Note_on_c, 9, 41, 100
16, 49150, Note_on_c, 9, 41, 0
16, 49152, Note_on_c, 9, 41, 100
16, 49197, Note_on_c, 9, 41, 0
16, 49488, Note_on_c, 9, 53, 110
16, 49556, Note_on_c, 9, 53, 0
16, 49560, Note_on_c, 9, 41, 100
16, 49582, Note_on_c, 9, 41, 0
16, 49584, Note_on_c, 9, 41, 100
16, 49629, Note_on_c, 9, 41, 0
16, 49920, Note_on_c, 9, 53, 110
16, 49988, Note_on_c, 9, 53, 0
16, 49992, Note_on_c, 9, 41, 100
16, 50014, Note_on_c, 9, 41, 0
16, 50016, Note_on_c, 9, 41, 100
16, 50061, Note_on_c, 9, 41, 0
16, 50496, Note_on_c, 9, 53, 80
16, 50564, Note_on_c, 9, 53, 0
16, 50568, Note_on_c, 9, 41, 70
16, 50590, Note_on_c, 9, 41, 0
16, 50592, Note_on_c, 9, 41, 70
16, 50637, Note_on_c, 9, 41, 0
16, 56256, Note_on_c, 9, 53, 60
16, 56324, Note_on_c, 9, 53, 0
16, 56328, Note_on_c, 9, 41, 50
16, 56350, Note_on_c, 9, 41, 0
16, 56352, Note_on_c, 9, 41, 50
16, 56397, Note_on_c, 9, 41, 0
16, 57408, Note_on_c, 9, 53, 70
16, 57476, Note_on_c, 9, 53, 0
16, 57480, Note_on_c, 9, 41, 60
16, 57502, Note_on_c, 9, 41, 0
16, 57504, Note_on_c, 9, 41, 60
16, 57549, Note_on_c, 9, 41, 0
16, 57984, Note_on_c, 9, 53, 85
16, 58052, Note_on_c, 9, 53, 0
16, 58056, Note_on_c, 9, 41, 75
16, 58078, Note_on_c, 9, 41, 0
16, 58080, Note_on_c, 9, 41, 75
16, 58125, Note_on_c, 9, 41, 0
16, 58560, Note_on_c, 9, 53, 105
16, 58628, Note_on_c, 9, 53, 0
16, 58632, Note_on_c, 9, 41, 95
16, 58654, Note_on_c, 9, 41, 0
16, 58656, Note_on_c, 9, 41, 95
16, 58701, Note_on_c, 9, 41, 0
16, 58704, Note_on_c, 9, 53, 105
16, 58772, Note_on_c, 9, 53, 0
16, 58776, Note_on_c, 9, 41, 95
16, 58798, Note_on_c, 9, 41, 0
16, 58800, Note_on_c, 9, 41, 95
16, 58845, Note_on_c, 9, 41, 0
16, 58848, Note_on_c, 9, 53, 110
16, 58916, Note_on_c, 9, 53, 0
16, 58920, Note_on_c, 9, 41, 100
16, 58942, Note_on_c, 9, 41, 0
16, 58944, Note_on_c, 9, 41, 100
16, 58989, Note_on_c, 9, 41, 0
16, 58992, Note_on_c, 9, 53, 110
16, 59060, Note_on_c, 9, 53, 0
16, 59064, Note_on_c, 9, 41, 100
16, 59086, Note_on_c, 9, 41, 0
16, 59088, Note_on_c, 9, 41, 100
16, 59133, Note_on_c, 9, 41, 0
16, 59136, Note_on_c, 9, 53, 120
16, 59204, Note_on_c, 9, 53, 0
16, 59208, Note_on_c, 9, 41, 110
16, 59230, Note_on_c, 9, 41, 0
16, 59232, Note_on_c, 9, 41, 110
16, 59277, Note_on_c, 9, 41, 0
16, 59280, Note_on_c, 9, 53, 120
16, 59348, Note_on_c, 9, 53, 0
16, 59352, Note_on_c, 9, 41, 110
16, 59374, Note_on_c, 9, 41, 0
16, 59376, Note_on_c, 9, 41, 110
16, 59421, Note_on_c, 9, 41, 0
16, 59424, Note_on_c, 9, 53, 120
16, 59492, Note_on_c, 9, 53, 0
16, 59496, Note_on_c, 9, 41, 110
16, 59518, Note_on_c, 9, 41, 0
16, 59520, Note_on_c, 9, 41, 110
16, 59565, Note_on_c, 9, 41, 0
16, 59568, Note_on_c, 9, 53, 120
16, 59636, Note_on_c, 9, 53, 0
16, 59640, Note_on_c, 9, 41, 110
16, 59662, Note_on_c, 9, 41, 0
16, 59664, Note_on_c, 9, 41, 110
16, 59709, Note_on_c, 9, 41, 0
16, 59712, Note_on_c, 9, 53, 115
16, 59727, Note_on_c, 9, 53, 0
16, 59728, Note_on_c, 9, 53, 110
16, 59743, Note_on_c, 9, 53, 0
16, 59744, Note_on_c, 9, 53, 110
16, 59759, Note_on_c, 9, 53, 0
16, 59760, Note_on_c, 9, 53, 113
16, 59775, Note_on_c, 9, 53, 0
16, 59776, Note_on_c, 9, 53, 110
16, 59791, Note_on_c, 9, 53, 0
16, 59792, Note_on_c, 9, 53, 110
16, 59807, Note_on_c, 9, 53, 0
16, 59808, Note_on_c, 9, 53, 113
16, 59823, Note_on_c, 9, 53, 0
16, 59824, Note_on_c, 9, 53, 110
16, 59839, Note_on_c, 9, 53, 0
16, 59840, Note_on_c, 9, 53, 110
16, 59855, Note_on_c, 9, 53, 0
16, 59856, Note_on_c, 9, 53, 115
16, 59901, Note_on_c, 9, 53, 0
16, 59904, Note_on_c, 9, 53, 110
16, 59949, Note_on_c, 9, 53, 0
16, 59952, Note_on_c, 9, 53, 110
16, 59997, Note_on_c, 9, 53, 0
16, 60000, Note_on_c, 9, 53, 115
16, 60045, Note_on_c, 9, 53, 0
16, 60048, Note_on_c, 9, 53, 110
16, 60093, Note_on_c, 9, 53, 0
16, 60096, Note_on_c, 9, 53, 110
16, 60141, Note_on_c, 9, 53, 0
16, 60144, Note_on_c, 9, 53, 115
16, 60189, Note_on_c, 9, 53, 0
16, 60192, Note_on_c, 9, 53, 110
16, 60237, Note_on_c, 9, 53, 0
16, 60240, Note_on_c, 9, 53, 110
16, 60285, Note_on_c, 9, 53, 0
16, 60288, Note_on_c, 9, 53, 115
16, 60333, Note_on_c, 9, 53, 0
16, 60336, Note_on_c, 9, 53, 110
16, 60381, Note_on_c, 9, 53, 0
16, 60384, Note_on_c, 9, 53, 110
16, 60429, Note_on_c, 9, 53, 0
16, 60432, Note_on_c, 9, 53, 115
16, 60477, Note_on_c, 9, 53, 0
16, 60480, Note_on_c, 9, 53, 110
16, 60525, Note_on_c, 9, 53, 0
16, 60528, Note_on_c, 9, 53, 110
16, 60573, Note_on_c, 9, 53, 0
16, 60576, Note_on_c, 9, 53, 115
16, 60621, Note_on_c, 9, 53, 0
16, 60624, Note_on_c, 9, 53, 110
16, 60669, Note_on_c, 9, 53, 0
16, 60672, Note_on_c, 9, 53, 110
16, 60717, Note_on_c, 9, 53, 0
16, 60720, Note_on_c, 9, 53, 115
16, 60765, Note_on_c, 9, 53, 0
16, 60768, Note_on_c, 9, 53, 110
16, 60813, Note_on_c, 9, 53, 0
16, 60816, Note_on_c, 9, 53, 110
16, 60861, Note_on_c, 9, 53, 0
16, 60864, Note_on_c, 9, 53, 115
16, 60909, Note_on_c, 9, 53, 0
16, 60912, Note_on_c, 9, 53, 110
16, 60957, Note_on_c, 9, 53, 0
16, 60960, Note_on_c, 9, 53, 110
16, 61005, Note_on_c, 9, 53, 0
16, 61008, Note_on_c, 9, 53, 115
16, 61053, Note_on_c, 9, 53, 0
16, 61056, Note_on_c, 9, 53, 110
16, 61101, Note_on_c, 9, 53, 0
16, 61104, Note_on_c, 9, 53, 110
16, 61149, Note_on_c, 9, 53, 0
16, 61152, Note_on_c, 9, 53, 115
16, 61197, Note_on_c, 9, 53, 0
16, 61200, Note_on_c, 9, 53, 110
16, 61245, Note_on_c, 9, 53, 0
16, 61248, Note_on_c, 9, 53, 110
16, 61293, Note_on_c, 9, 53, 0
16, 61296, Note_on_c, 9, 53, 115
16, 61341, Note_on_c, 9, 53, 0
16, 61344, Note_on_c, 9, 53, 110
16, 61389, Note_on_c, 9, 53, 0
16, 61392, Note_on_c, 9, 53, 110
16, 61437, Note_on_c, 9, 53, 0
16, 62304, Note_on_c, 9, 53, 105
16, 62372, Note_on_c, 9, 53, 0
16, 62376, Note_on_c, 9, 41, 95
16, 62398, Note_on_c, 9, 41, 0
16, 62400, Note_on_c, 9, 41, 95
16, 62445, Note_on_c, 9, 41, 0
16, 62448, Note_on_c, 9, 53, 105
16, 62516, Note_on_c, 9, 53, 0
16, 62520, Note_on_c, 9, 41, 95
16, 62542, Note_on_c, 9, 41, 0
16, 62544, Note_on_c, 9, 41, 95
16, 62589, Note_on_c, 9, 41, 0
16, 62592, Note_on_c, 9, 53, 105
16, 62660, Note_on_c, 9, 53, 0
16, 62664, Note_on_c, 9, 41, 95
16, 62686, Note_on_c, 9, 41, 0
16, 62688, Note_on_c, 9, 41, 95
16, 62733, Note_on_c, 9, 41, 0
16, 62736, Note_on_c, 9, 53, 105
16, 62804, Note_on_c, 9, 53, 0
16, 62808, Note_on_c, 9, 41, 95
16, 62830, Note_on_c, 9, 41, 0
16, 62832, Note_on_c, 9, 41, 95
16, 62877, Note_on_c, 9, 41, 0
16, 62880, Note_on_c, 9, 53, 105
16, 62948, Note_on_c, 9, 53, 0
16, 62952, Note_on_c, 9, 41, 95
16, 62974, Note_on_c, 9, 41, 0
16, 62976, Note_on_c, 9, 41, 95
16, 63021, Note_on_c, 9, 41, 0
16, 63024, Note_on_c, 9, 53, 105
16, 63092, Note_on_c, 9, 53, 0
16, 63096, Note_on_c, 9, 41, 95
16, 63118, Note_on_c, 9, 41, 0
16, 63120, Note_on_c, 9, 41, 95
16, 63165, Note_on_c, 9, 41, 0
16, 63168, Note_on_c, 9, 53, 95
16, 63213, Note_on_c, 9, 53, 0
16, 69216, Note_on_c, 9, 53, 120
16, 69261, Note_on_c, 9, 53, 0
16, 69264, Note_on_c, 9, 53, 110
16, 69309, Note_on_c, 9, 53, 0
16, 69792, Note_on_c, 9, 53, 120
16, 69837, Note_on_c, 9, 53, 0
16, 69840, Note_on_c, 9, 53, 110
16, 69885, Note_on_c, 9, 53, 0
16, 70368, Note_on_c, 9, 53, 120
16, 70436, Note_on_c, 9, 53, 0
16, 70440, Note_on_c, 9, 53, 110
16, 70462, Note_on_c, 9, 53, 0
16, 70464, Note_on_c, 9, 53, 110
16, 70509, Note_on_c, 9, 53, 0
16, 71232, Note_on_c, 9, 53, 110
16, 71280, Note_on_c, 9, 53, 0
16, 71376, Note_on_c, 9, 53, 110
16, 71424, Note_on_c, 9, 53, 0
16, 72960, Note_on_c, 9, 53, 100
16, 73008, Note_on_c, 9, 53, 0
16, 73248, Note_on_c, 9, 53, 100
16, 73296, Note_on_c, 9, 53, 0
16, 73536, Note_on_c, 9, 53, 100
16, 73584, Note_on_c, 9, 53, 0
16, 73824, Note_on_c, 9, 53, 100
16, 73872, Note_on_c, 9, 53, 0
16, 74112, Note_on_c, 9, 53, 100
16, 74160, Note_on_c, 9, 53, 0
16, 74400, Note_on_c, 9, 53, 100
16, 74448, Note_on_c, 9, 53, 0
16, 75552, Note_on_c, 9, 41, 60
16, 75587, Note_on_c, 9, 41, 0
16, 75624, Note_on_c, 9, 53, 50
16, 75636, Note_on_c, 9, 53, 0
16, 75648, Note_on_c, 9, 53, 50
16, 75672, Note_on_c, 9, 53, 0
16, 75696, Note_on_c, 9, 53, 50
16, 75720, Note_on_c, 9, 53, 0
16, 76416, Note_on_c, 9, 41, 60
16, 76451, Note_on_c, 9, 41, 0
16, 76488, Note_on_c, 9, 53, 50
16, 76500, Note_on_c, 9, 53, 0
16, 76512, Note_on_c, 9, 53, 50
16, 76536, Note_on_c, 9, 53, 0
16, 76560, Note_on_c, 9, 53, 50
16, 76584, Note_on_c, 9, 53, 0
16, 76704, Note_on_c, 9, 41, 60
16, 76739, Note_on_c, 9, 41, 0
16, 76776, Note_on_c, 9, 53, 50
16, 76788, Note_on_c, 9, 53, 0
16, 76800, Note_on_c, 9, 53, 50
16, 76824, Note_on_c, 9, 53, 0
16, 76848, Note_on_c, 9, 53, 50
16, 76872, Note_on_c, 9, 53, 0
16, 83376, Note_on_c, 9, 53, 110
16, 83444, Note_on_c, 9, 53, 0
16, 83448, Note_on_c, 9, 41, 100
16, 83470, Note_on_c, 9, 41, 0
16, 83472, Note_on_c, 9, 41, 100
16, 83517, Note_on_c, 9, 41, 0
16, 83808, Note_on_c, 9, 53, 110
16, 83876, Note_on_c, 9, 53, 0
16, 83880, Note_on_c, 9, 41, 100
16, 83902, Note_on_c, 9, 41, 0
16, 83904, Note_on_c, 9, 41, 100
16, 83949, Note_on_c, 9, 41, 0
16, 84240, Note_on_c, 9, 53, 110
16, 84308, Note_on_c, 9, 53, 0
16, 84312, Note_on_c, 9, 41, 100
16, 84334, Note_on_c, 9, 41, 0
16, 84336, Note_on_c, 9, 41, 100
16, 84381, Note_on_c, 9, 41, 0
16, 84672, Note_on_c, 9, 53, 110
16, 84740, Note_on_c, 9, 53, 0
16, 84744, Note_on_c, 9, 41, 100
16, 84766, Note_on_c, 9, 41, 0
16, 84768, Note_on_c, 9, 41, 100
16, 84813, Note_on_c, 9, 41, 0
16, 85248, Note_on_c, 9, 53, 80
16, 85316, Note_on_c, 9, 53, 0
16, 85320, Note_on_c, 9, 41, 70
16, 85342, Note_on_c, 9, 41, 0
16, 85344, Note_on_c, 9, 41, 70
16, 85389, Note_on_c, 9, 41, 0
16, 91008, Note_on_c, 9, 53, 60
16, 91076, Note_on_c, 9, 53, 0
16, 91080, Note_on_c, 9, 41, 50
16, 91102, Note_on_c, 9, 41, 0
16, 91104, Note_on_c, 9, 41, 50
16, 91149, Note_on_c, 9, 41, 0
16, 92160, Note_on_c, 9, 53, 70
16, 92228, Note_on_c, 9, 53, 0
16, 92232, Note_on_c, 9, 41, 60
16, 92254, Note_on_c, 9, 41, 0
16, 92256, Note_on_c, 9, 41, 60
16, 92301, Note_on_c, 9, 41, 0
16, 92736, Note_on_c, 9, 53, 85
16, 92804, Note_on_c, 9, 53, 0
16, 92808, Note_on_c, 9, 41, 75
16, 92830, Note_on_c, 9, 41, 0
16, 92832, Note_on_c, 9, 41, 75
16, 92877, Note_on_c, 9, 41, 0
16, 93312, Note_on_c, 9, 53, 105
16, 93380, Note_on_c, 9, 53, 0
16, 93384, Note_on_c, 9, 41, 95
16, 93406, Note_on_c, 9, 41, 0
16, 93408, Note_on_c, 9, 41, 95
16, 93453, Note_on_c, 9, 41, 0
16, 93456, Note_on_c, 9, 53, 105
16, 93524, Note_on_c, 9, 53, 0
16, 93528, Note_on_c, 9, 41, 95
16, 93550, Note_on_c, 9, 41, 0
16, 93552, Note_on_c, 9, 41, 95
16, 93597, Note_on_c, 9, 41, 0
16, 93600, Note_on_c, 9, 53, 110
16, 93668, Note_on_c, 9, 53, 0
16, 93672, Note_on_c, 9, 41, 100
16, 93694, Note_on_c, 9, 41, 0
16, 93696, Note_on_c, 9, 41, 100
16, 93741, Note_on_c, 9, 41, 0
16, 93744, Note_on_c, 9, 53, 110
16, 93812, Note_on_c, 9, 53, 0
16, 93816, Note_on_c, 9, 41, 100
16, 93838, Note_on_c, 9, 41, 0
16, 93840, Note_on_c, 9, 41, 100
16, 93885, Note_on_c, 9, 41, 0
16, 93888, Note_on_c, 9, 53, 120
16, 93956, Note_on_c, 9, 53, 0
16, 93960, Note_on_c, 9, 41, 110
16, 93982, Note_on_c, 9, 41, 0
16, 93984, Note_on_c, 9, 41, 110
16, 94029, Note_on_c, 9, 41, 0
16, 94032, Note_on_c, 9, 53, 120
16, 94100, Note_on_c, 9, 53, 0
16, 94104, Note_on_c, 9, 41, 110
16, 94126, Note_on_c, 9, 41, 0
16, 94128, Note_on_c, 9, 41, 110
16, 94173, Note_on_c, 9, 41, 0
16, 94176, Note_on_c, 9, 53, 120
16, 94244, Note_on_c, 9, 53, 0
16, 94248, Note_on_c, 9, 41, 110
16, 94270, Note_on_c, 9, 41, 0
16, 94272, Note_on_c, 9, 41, 110
16, 94317, Note_on_c, 9, 41, 0
16, 94320, Note_on_c, 9, 53, 120
16, 94388, Note_on_c, 9, 53, 0
16, 94392, Note_on_c, 9, 41, 110
16, 94414, Note_on_c, 9, 41, 0
16, 94416, Note_on_c, 9, 41, 110
16, 94461, Note_on_c, 9, 41, 0
16, 94464, Note_on_c, 9, 53, 115
16, 94479, Note_on_c, 9, 53, 0
16, 94480, Note_on_c, 9, 53, 110
16, 94495, Note_on_c, 9, 53, 0
16, 94496, Note_on_c, 9, 53, 110
16, 94511, Note_on_c, 9, 53, 0
16, 94512, Note_on_c, 9, 53, 113
16, 94527, Note_on_c, 9, 53, 0
16, 94528, Note_on_c, 9, 53, 110
16, 94543, Note_on_c, 9, 53, 0
16, 94544, Note_on_c, 9, 53, 110
16, 94559, Note_on_c, 9, 53, 0
16, 94560, Note_on_c, 9, 53, 113
16, 94575, Note_on_c, 9, 53, 0
16, 94576, Note_on_c, 9, 53, 110
16, 94591, Note_on_c, 9, 53, 0
16, 94592, Note_on_c, 9, 53, 110
16, 94607, Note_on_c, 9, 53, 0
16, 94608, Note_on_c, 9, 53, 115
16, 94653, Note_on_c, 9, 53, 0
16, 94656, Note_on_c, 9, 53, 110
16, 94701, Note_on_c, 9, 53, 0
16, 94704, Note_on_c, 9, 53, 110
16, 94749, Note_on_c, 9, 53, 0
16, 94752, Note_on_c, 9, 53, 115
16, 94797, Note_on_c, 9, 53, 0
16, 94800, Note_on_c, 9, 53, 110
16, 94845, Note_on_c, 9, 53, 0
16, 94848, Note_on_c, 9, 53, 110
16, 94893, Note_on_c, 9, 53, 0
16, 94896, Note_on_c, 9, 53, 115
16, 94941, Note_on_c, 9, 53, 0
16, 94944, Note_on_c, 9, 53, 110
16, 94989, Note_on_c, 9, 53, 0
16, 94992, Note_on_c, 9, 53, 110
16, 95037, Note_on_c, 9, 53, 0
16, 95040, Note_on_c, 9, 53, 115
16, 95085, Note_on_c, 9, 53, 0
16, 95088, Note_on_c, 9, 53, 110
16, 95133, Note_on_c, 9, 53, 0
16, 95136, Note_on_c, 9, 53, 110
16, 95181, Note_on_c, 9, 53, 0
16, 95184, Note_on_c, 9, 53, 115
16, 95229, Note_on_c, 9, 53, 0
16, 95232, Note_on_c, 9, 53, 110
16, 95277, Note_on_c, 9, 53, 0
16, 95280, Note_on_c, 9, 53, 110
16, 95325, Note_on_c, 9, 53, 0
16, 95328, Note_on_c, 9, 53, 115
16, 95373, Note_on_c, 9, 53, 0
16, 95376, Note_on_c, 9, 53, 110
16, 95421, Note_on_c, 9, 53, 0
16, 95424, Note_on_c, 9, 53, 110
16, 95469, Note_on_c, 9, 53, 0
16, 95472, Note_on_c, 9, 53, 115
16, 95517, Note_on_c, 9, 53, 0
16, 95520, Note_on_c, 9, 53, 110
16, 95565, Note_on_c, 9, 53, 0
16, 95568, Note_on_c, 9, 53, 110
16, 95613, Note_on_c, 9, 53, 0
16, 95616, Note_on_c, 9, 53, 115
16, 95661, Note_on_c, 9, 53, 0
16, 95664, Note_on_c, 9, 53, 110
16, 95709, Note_on_c, 9, 53, 0
16, 95712, Note_on_c, 9, 53, 110
16, 95757, Note_on_c, 9, 53, 0
16, 95760, Note_on_c, 9, 53, 115
16, 95805, Note_on_c, 9, 53, 0
16, 95808, Note_on_c, 9, 53, 110
16, 95853, Note_on_c, 9, 53, 0
16, 95856, Note_on_c, 9, 53, 110
16, 95901, Note_on_c, 9, 53, 0
16, 95904, Note_on_c, 9, 53, 115
16, 95949, Note_on_c, 9, 53, 0
16, 95952, Note_on_c, 9, 53, 110
16, 95997, Note_on_c, 9, 53, 0
16, 96000, Note_on_c, 9, 53, 110
16, 96045, Note_on_c, 9, 53, 0
16, 96048, Note_on_c, 9, 53, 115
16, 96093, Note_on_c, 9, 53, 0
16, 96096, Note_on_c, 9, 53, 110
16, 96141, Note_on_c, 9, 53, 0
16, 96144, Note_on_c, 9, 53, 110
16, 96189, Note_on_c, 9, 53, 0
16, 97056, Note_on_c, 9, 53, 105
16, 97124, Note_on_c, 9, 53, 0
16, 97128, Note_on_c, 9, 41, 95
16, 97150, Note_on_c, 9, 41, 0
16, 97152, Note_on_c, 9, 41, 95
16, 97197, Note_on_c, 9, 41, 0
16, 97200, Note_on_c, 9, 53, 105
16, 97268, Note_on_c, 9, 53, 0
16, 97272, Note_on_c, 9, 41, 95
16, 97294, Note_on_c, 9, 41, 0
16, 97296, Note_on_c, 9, 41, 95
16, 97341, Note_on_c, 9, 41, 0
16, 97344, Note_on_c, 9, 53, 105
16, 97412, Note_on_c, 9, 53, 0
16, 97416, Note_on_c, 9, 41, 95
16, 97438, Note_on_c, 9, 41, 0
16, 97440, Note_on_c, 9, 41, 95
16, 97485, Note_on_c, 9, 41, 0
16, 97488, Note_on_c, 9, 53, 105
16, 97556, Note_on_c, 9, 53, 0
16, 97560, Note_on_c, 9, 41, 95
16, 97582, Note_on_c, 9, 41, 0
16, 97584, Note_on_c, 9, 41, 95
16, 97629, Note_on_c, 9, 41, 0
16, 97632, Note_on_c, 9, 53, 105
16, 97700, Note_on_c, 9, 53, 0
16, 97704, Note_on_c, 9, 41, 95
16, 97726, Note_on_c, 9, 41, 0
16, 97728, Note_on_c, 9, 41, 95
16, 97773, Note_on_c, 9, 41, 0
16, 97776, Note_on_c, 9, 53, 105
16, 97844, Note_on_c, 9, 53, 0
16, 97848, Note_on_c, 9, 41, 95
16, 97870, Note_on_c, 9, 41, 0
16, 97872, Note_on_c, 9, 41, 95
16, 97917, Note_on_c, 9, 41, 0
16, 97920, Note_on_c, 9, 53, 95
16, 97965, Note_on_c, 9, 53, 0
16, 103968, Note_on_c, 9, 53, 120
16, 104013, Note_on_c, 9, 53, 0
16, 104016, Note_on_c, 9, 53, 110
16, 104061, Note_on_c, 9, 53, 0
16, 104544, Note_on_c, 9, 53, 120
16, 104589, Note_on_c, 9, 53, 0
16, 104592, Note_on_c, 9, 53, 110
16, 104637, Note_on_c, 9, 53, 0
16, 105120, Note_on_c, 9, 53, 120
16, 105188, Note_on_c, 9, 53, 0
16, 105192, Note_on_c, 9, 53, 110
16, 105214, Note_on_c, 9, 53, 0
16, 105216, Note_on_c, 9, 53, 110
16, 105261, Note_on_c, 9, 53, 0
16, 105984, Note_on_c, 9, 53, 110
16, 106032, Note_on_c, 9, 53, 0
16, 106128, Note_on_c, 9, 53, 110
16, 106176, Note_on_c, 9, 53, 0
16, 107712, Note_on_c, 9, 53, 100
16, 107760, Note_on_c, 9, 53, 0
16, 108000, Note_on_c, 9, 53, 100
16, 108048, Note_on_c, 9, 53, 0
16, 108288, Note_on_c, 9, 53, 100
16, 108336, Note_on_c, 9, 53, 0
16, 108576, Note_on_c, 9, 53, 100
16, 108624, Note_on_c, 9, 53, 0
16, 108864, Note_on_c, 9, 53, 100
16, 108912, Note_on_c, 9, 53, 0
16, 109152, Note_on_c, 9, 53, 100
16, 109200, Note_on_c, 9, 53, 0
16, 110304, Note_on_c, 9, 41, 60
16, 110339, Note_on_c, 9, 41, 0
16, 110376, Note_on_c, 9, 53, 50
16, 110388, Note_on_c, 9, 53, 0
16, 110400, Note_on_c, 9, 53, 50
16, 110424, Note_on_c, 9, 53, 0
16, 110448, Note_on_c, 9, 53, 50
16, 110472, Note_on_c, 9, 53, 0
16, 111456, Note_on_c, 9, 41, 66
16, 111524, Note_on_c, 9, 41, 0
16, 111528, Note_on_c, 9, 53, 71
16, 111550, Note_on_c, 9, 53, 0
16, 111552, Note_on_c, 9, 53, 72
16, 111597, Note_on_c, 9, 53, 0
16, 111600, Note_on_c, 9, 53, 75
16, 111645, Note_on_c, 9, 53, 0
16, 113664, Note_on_c, 9, 53, 57
16, 113732, Note_on_c, 9, 53, 0
16, 113736, Note_on_c, 9, 41, 61
16, 113758, Note_on_c, 9, 41, 0
16, 113760, Note_on_c, 9, 41, 63
16, 113805, Note_on_c, 9, 41, 0
16, 113952, Note_on_c, 9, 53, 73
16, 114020, Note_on_c, 9, 53, 0
16, 114024, Note_on_c, 9, 41, 77
16, 114046, Note_on_c, 9, 41, 0
16, 114048, Note_on_c, 9, 41, 78
16, 114093, Note_on_c, 9, 41, 0
16, 114240, Note_on_c, 9, 53, 89
16, 114308, Note_on_c, 9, 53, 0
16, 114312, Note_on_c, 9, 41, 93
16, 114334, Note_on_c, 9, 41, 0
16, 114336, Note_on_c, 9, 41, 94
16, 114381, Note_on_c, 9, 41, 0
16, 114528, Note_on_c, 9, 53, 105
16, 114596, Note_on_c, 9, 53, 0
16, 114600, Note_on_c, 9, 41, 109
16, 114622, Note_on_c, 9, 41, 0
16, 114624, Note_on_c, 9, 41, 110
16, 114669, Note_on_c, 9, 41, 0
16, 152880, Note_on_c, 9, 53, 120
16, 152948, Note_on_c, 9, 53, 0
16, 152952, Note_on_c, 9, 41, 100
16, 152974, Note_on_c, 9, 41, 0
16, 152976, Note_on_c, 9, 41, 100
16, 153021, Note_on_c, 9, 41, 0
16, 160368, Note_on_c, 9, 53, 110
16, 160413, Note_on_c, 9, 53, 0
16, 160512, Note_on_c, 9, 53, 110
16, 160557, Note_on_c, 9, 53, 0
16, 160800, Note_on_c, 9, 53, 110
16, 160845, Note_on_c, 9, 53, 0
16, 161088, Note_on_c, 9, 53, 110
16, 161133, Note_on_c, 9, 53, 0
16, 161376, Note_on_c, 9, 53, 110
16, 161421, Note_on_c, 9, 53, 0
16, 161664, Note_on_c, 9, 53, 110
16, 161709, Note_on_c, 9, 53, 0
16, 161952, Note_on_c, 9, 53, 110
16, 161997, Note_on_c, 9, 53, 0
16, 162048, Note_on_c, 9, 53, 110
16, 162093, Note_on_c, 9, 53, 0
16, 162096, Note_on_c, 9, 53, 110
16, 162141, Note_on_c, 9, 53, 0
16, 162576, Note_on_c, 9, 53, 110
16, 162621, Note_on_c, 9, 53, 0
16, 162624, Note_on_c, 9, 53, 110
16, 162669, Note_on_c, 9, 53, 0
16, 162672, Note_on_c, 9, 53, 110
16, 162717, Note_on_c, 9, 53, 0
16, 168144, Note_on_c, 9, 53, 120
16, 168179, Note_on_c, 9, 53, 0
16, 168216, Note_on_c, 9, 41, 113
16, 168228, Note_on_c, 9, 41, 0
16, 168240, Note_on_c, 9, 41, 113
16, 168264, Note_on_c, 9, 41, 0
16, 168288, Note_on_c, 9, 53, 113
16, 168312, Note_on_c, 9, 53, 0
16, 180288, Note_on_c, 9, 53, 110
16, 180356, Note_on_c, 9, 53, 0
16, 180360, Note_on_c, 9, 41, 100
16, 180382, Note_on_c, 9, 41, 0
16, 180384, Note_on_c, 9, 41, 100
16, 180429, Note_on_c, 9, 41, 0
16, 180720, Note_on_c, 9, 53, 110
16, 180788, Note_on_c, 9, 53, 0
16, 180792, Note_on_c, 9, 41, 100
16, 180814, Note_on_c, 9, 41, 0
16, 180816, Note_on_c, 9, 41, 100
16, 180861, Note_on_c, 9, 41, 0
16, 181152, Note_on_c, 9, 53, 110
16, 181220, Note_on_c, 9, 53, 0
16, 181224, Note_on_c, 9, 41, 100
16, 181246, Note_on_c, 9, 41, 0
16, 181248, Note_on_c, 9, 41, 100
16, 181293, Note_on_c, 9, 41, 0
16, 181584, Note_on_c, 9, 53, 110
16, 181652, Note_on_c, 9, 53, 0
16, 181656, Note_on_c, 9, 41, 100
16, 181678, Note_on_c, 9, 41, 0
16, 181680, Note_on_c, 9, 41, 100
16, 181725, Note_on_c, 9, 41, 0
16, 182160, Note_on_c, 9, 53, 80
16, 182228, Note_on_c, 9, 53, 0
16, 182232, Note_on_c, 9, 41, 70
16, 182254, Note_on_c, 9, 41, 0
16, 182256, Note_on_c, 9, 41, 70
16, 182301, Note_on_c, 9, 41, 0
16, 187920, Note_on_c, 9, 53, 60
16, 187988, Note_on_c, 9, 53, 0
16, 187992, Note_on_c, 9, 41, 50
16, 188014, Note_on_c, 9, 41, 0
16, 188016, Note_on_c, 9, 41, 50
16, 188061, Note_on_c, 9, 41, 0
16, 189072, Note_on_c, 9, 53, 70
16, 189140, Note_on_c, 9, 53, 0
16, 189144, Note_on_c, 9, 41, 60
16, 189166, Note_on_c, 9, 41, 0
16, 189168, Note_on_c, 9, 41, 60
16, 189213, Note_on_c, 9, 41, 0
16, 189648, Note_on_c, 9, 53, 85
16, 189716, Note_on_c, 9, 53, 0
16, 189720, Note_on_c, 9, 41, 75
16, 189742, Note_on_c, 9, 41, 0
16, 189744, Note_on_c, 9, 41, 75
16, 189789, Note_on_c, 9, 41, 0
16, 190224, Note_on_c, 9, 53, 105
16, 190292, Note_on_c, 9, 53, 0
16, 190296, Note_on_c, 9, 41, 95
16, 190318, Note_on_c, 9, 41, 0
16, 190320, Note_on_c, 9, 41, 95
16, 190365, Note_on_c, 9, 41, 0
16, 190368, Note_on_c, 9, 53, 105
16, 190436, Note_on_c, 9, 53, 0
16, 190440, Note_on_c, 9, 41, 95
16, 190462, Note_on_c, 9, 41, 0
16, 190464, Note_on_c, 9, 41, 95
16, 190509, Note_on_c, 9, 41, 0
16, 190512, Note_on_c, 9, 53, 110
16, 190580, Note_on_c, 9, 53, 0
16, 190584, Note_on_c, 9, 41, 100
16, 190606, Note_on_c, 9, 41, 0
16, 190608, Note_on_c, 9, 41, 100
16, 190653, Note_on_c, 9, 41, 0
16, 190656, Note_on_c, 9, 53, 110
16, 190724, Note_on_c, 9, 53, 0
16, 190728, Note_on_c, 9, 41, 100
16, 190750, Note_on_c, 9, 41, 0
16, 190752, Note_on_c, 9, 41, 100
16, 190797, Note_on_c, 9, 41, 0
16, 190800, Note_on_c, 9, 53, 120
16, 190868, Note_on_c, 9, 53, 0
16, 190872, Note_on_c, 9, 41, 110
16, 190894, Note_on_c, 9, 41, 0
16, 190896, Note_on_c, 9, 41, 110
16, 190941, Note_on_c, 9, 41, 0
16, 190944, Note_on_c, 9, 53, 120
16, 191012, Note_on_c, 9, 53, 0
16, 191016, Note_on_c, 9, 41, 110
16, 191038, Note_on_c, 9, 41, 0
16, 191040, Note_on_c, 9, 41, 110
16, 191085, Note_on_c, 9, 41, 0
16, 191088, Note_on_c, 9, 53, 120
16, 191156, Note_on_c, 9, 53, 0
16, 191160, Note_on_c, 9, 41, 110
16, 191182, Note_on_c, 9, 41, 0
16, 191184, Note_on_c, 9, 41, 110
16, 191229, Note_on_c, 9, 41, 0
16, 191232, Note_on_c, 9, 53, 120
16, 191300, Note_on_c, 9, 53, 0
16, 191304, Note_on_c, 9, 41, 110
16, 191326, Note_on_c, 9, 41, 0
16, 191328, Note_on_c, 9, 41, 110
16, 191373, Note_on_c, 9, 41, 0
16, 191376, Note_on_c, 9, 53, 115
16, 191391, Note_on_c, 9, 53, 0
16, 191392, Note_on_c, 9, 53, 110
16, 191407, Note_on_c, 9, 53, 0
16, 191408, Note_on_c, 9, 53, 110
16, 191423, Note_on_c, 9, 53, 0
16, 191424, Note_on_c, 9, 53, 113
16, 191439, Note_on_c, 9, 53, 0
16, 191440, Note_on_c, 9, 53, 110
16, 191455, Note_on_c, 9, 53, 0
16, 191456, Note_on_c, 9, 53, 110
16, 191471, Note_on_c, 9, 53, 0
16, 191472, Note_on_c, 9, 53, 113
16, 191487, Note_on_c, 9, 53, 0
16, 191488, Note_on_c, 9, 53, 110
16, 191503, Note_on_c, 9, 53, 0
16, 191504, Note_on_c, 9, 53, 110
16, 191519, Note_on_c, 9, 53, 0
16, 191520, Note_on_c, 9, 53, 115
16, 191565, Note_on_c, 9, 53, 0
16, 191568, Note_on_c, 9, 53, 110
16, 191613, Note_on_c, 9, 53, 0
16, 191616, Note_on_c, 9, 53, 110
16, 191661, Note_on_c, 9, 53, 0
16, 191664, Note_on_c, 9, 53, 115
16, 191709, Note_on_c, 9, 53, 0
16, 191712, Note_on_c, 9, 53, 110
16, 191757, Note_on_c, 9, 53, 0
16, 191760, Note_on_c, 9, 53, 110
16, 191805, Note_on_c, 9, 53, 0
16, 191808, Note_on_c, 9, 53, 115
16, 191853, Note_on_c, 9, 53, 0
16, 191856, Note_on_c, 9, 53, 110
16, 191901, Note_on_c, 9, 53, 0
16, 191904, Note_on_c, 9, 53, 110
16, 191949, Note_on_c, 9, 53, 0
16, 191952, Note_on_c, 9, 53, 115
16, 191997, Note_on_c, 9, 53, 0
16, 192000, Note_on_c, 9, 53, 110
16, 192045, Note_on_c, 9, 53, 0
16, 192048, Note_on_c, 9, 53, 110
16, 192093, Note_on_c, 9, 53, 0
16, 192096, Note_on_c, 9, 53, 115
16, 192141, Note_on_c, 9, 53, 0
16, 192144, Note_on_c, 9, 53, 110
16, 192189, Note_on_c, 9, 53, 0
16, 192192, Note_on_c, 9, 53, 110
16, 192237, Note_on_c, 9, 53, 0
16, 192240, Note_on_c, 9, 53, 115
16, 192285, Note_on_c, 9, 53, 0
16, 192288, Note_on_c, 9, 53, 110
16, 192333, Note_on_c, 9, 53, 0
16, 192336, Note_on_c, 9, 53, 110
16, 192381, Note_on_c, 9, 53, 0
16, 192384, Note_on_c, 9, 53, 115
16, 192429, Note_on_c, 9, 53, 0
16, 192432, Note_on_c, 9, 53, 110
16, 192477, Note_on_c, 9, 53, 0
16, 192480, Note_on_c, 9, 53, 110
16, 192525, Note_on_c, 9, 53, 0
16, 192528, Note_on_c, 9, 53, 115
16, 192573, Note_on_c, 9, 53, 0
16, 192576, Note_on_c, 9, 53, 110
16, 192621, Note_on_c, 9, 53, 0
16, 192624, Note_on_c, 9, 53, 110
16, 192669, Note_on_c, 9, 53, 0
16, 192672, Note_on_c, 9, 53, 115
16, 192717, Note_on_c, 9, 53, 0
16, 192720, Note_on_c, 9, 53, 110
16, 192765, Note_on_c, 9, 53, 0
16, 192768, Note_on_c, 9, 53, 110
16, 192813, Note_on_c, 9, 53, 0
16, 192816, Note_on_c, 9, 53, 115
16, 192861, Note_on_c, 9, 53, 0
16, 192864, Note_on_c, 9, 53, 110
16, 192909, Note_on_c, 9, 53, 0
16, 192912, Note_on_c, 9, 53, 110
16, 192957, Note_on_c, 9, 53, 0
16, 192960, Note_on_c, 9, 53, 115
16, 193005, Note_on_c, 9, 53, 0
16, 193008, Note_on_c, 9, 53, 110
16, 193053, Note_on_c, 9, 53, 0
16, 193056, Note_on_c, 9, 53, 110
16, 193101, Note_on_c, 9, 53, 0
16, 193968, Note_on_c, 9, 53, 105
16, 194036, Note_on_c, 9, 53, 0
16, 194040, Note_on_c, 9, 41, 95
16, 194062, Note_on_c, 9, 41, 0
16, 194064, Note_on_c, 9, 41, 95
16, 194109, Note_on_c, 9, 41, 0
16, 194112, Note_on_c, 9, 53, 105
16, 194180, Note_on_c, 9, 53, 0
16, 194184, Note_on_c, 9, 41, 95
16, 194206, Note_on_c, 9, 41, 0
16, 194208, Note_on_c, 9, 41, 95
16, 194253, Note_on_c, 9, 41, 0
16, 194256, Note_on_c, 9, 53, 105
16, 194324, Note_on_c, 9, 53, 0
16, 194328, Note_on_c, 9, 41, 95
16, 194350, Note_on_c, 9, 41, 0
16, 194352, Note_on_c, 9, 41, 95
16, 194397, Note_on_c, 9, 41, 0
16, 194400, Note_on_c, 9, 53, 105
16, 194468, Note_on_c, 9, 53, 0
16, 194472, Note_on_c, 9, 41, 95
16, 194494, Note_on_c, 9, 41, 0
16, 194496, Note_on_c, 9, 41, 95
16, 194541, Note_on_c, 9, 41, 0
16, 194544, Note_on_c, 9, 53, 105
16, 194612, Note_on_c, 9, 53, 0
16, 194616, Note_on_c, 9, 41, 95
16, 194638, Note_on_c, 9, 41, 0
16, 194640, Note_on_c, 9, 41, 95
16, 194685, Note_on_c, 9, 41, 0
16, 194688, Note_on_c, 9, 53, 105
16, 194756, Note_on_c, 9, 53, 0
16, 194760, Note_on_c, 9, 41, 95
16, 194782, Note_on_c, 9, 41, 0
16, 194784, Note_on_c, 9, 41, 95
16, 194829, Note_on_c, 9, 41, 0
16, 194832, Note_on_c, 9, 53, 95
16, 194877, Note_on_c, 9, 53, 0
16, 200880, Note_on_c, 9, 53, 120
16, 200925, Note_on_c, 9, 53, 0
16, 200928, Note_on_c, 9, 53, 110
16, 200973, Note_on_c, 9, 53, 0
16, 201456, Note_on_c, 9, 53, 120
16, 201501, Note_on_c, 9, 53, 0
16, 201504, Note_on_c, 9, 53, 110
16, 201549, Note_on_c, 9, 53, 0
16, 202032, Note_on_c, 9, 53, 120
16, 202100, Note_on_c, 9, 53, 0
16, 202104, Note_on_c, 9, 53, 110
16, 202126, Note_on_c, 9, 53, 0
16, 202128, Note_on_c, 9, 53, 110
16, 202173, Note_on_c, 9, 53, 0
16, 202896, Note_on_c, 9, 53, 110
16, 202944, Note_on_c, 9, 53, 0
16, 203040, Note_on_c, 9, 53, 110
16, 203088, Note_on_c, 9, 53, 0
16, 204624, Note_on_c, 9, 53, 100
16, 204672, Note_on_c, 9, 53, 0
16, 204912, Note_on_c, 9, 53, 100
16, 204960, Note_on_c, 9, 53, 0
16, 205200, Note_on_c, 9, 53, 100
16, 205248, Note_on_c, 9, 53, 0
16, 205488, Note_on_c, 9, 53, 100
16, 205536, Note_on_c, 9, 53, 0
16, 205776, Note_on_c, 9, 53, 100
16, 205824, Note_on_c, 9, 53, 0
16, 206064, Note_on_c, 9, 53, 100
16, 206112, Note_on_c, 9, 53, 0
16, 207216, Note_on_c, 9, 41, 60
16, 207251, Note_on_c, 9, 41, 0
16, 207288, Note_on_c, 9, 53, 50
16, 207300, Note_on_c, 9, 53, 0
16, 207312, Note_on_c, 9, 53, 50
16, 207336, Note_on_c, 9, 53, 0
16, 207360, Note_on_c, 9, 53, 50
16, 207384, Note_on_c, 9, 53, 0
16, 208368, Note_on_c, 9, 41, 66
16, 208436, Note_on_c, 9, 41, 0
16, 208440, Note_on_c, 9, 53, 71
16, 208462, Note_on_c, 9, 53, 0
16, 208464, Note_on_c, 9, 53, 72
16, 208509, Note_on_c, 9, 53, 0
16, 208512, Note_on_c, 9, 53, 75
16, 208557, Note_on_c, 9, 53, 0
16, 210576, Note_on_c, 9, 53, 57
16, 210644, Note_on_c, 9, 53, 0
16, 210648, Note_on_c, 9, 41, 61
16, 210670, Note_on_c, 9, 41, 0
16, 210672, Note_on_c, 9, 41, 63
16, 210717, Note_on_c, 9, 41, 0
16, 210864, Note_on_c, 9, 53, 73
16, 210932, Note_on_c, 9, 53, 0
16, 210936, Note_on_c, 9, 41, 77
16, 210958, Note_on_c, 9, 41, 0
16, 210960, Note_on_c, 9, 41, 78
16, 211005, Note_on_c, 9, 41, 0
16, 211152, Note_on_c, 9, 53, 89
16, 211220, Note_on_c, 9, 53, 0
16, 211224, Note_on_c, 9, 41, 93
16, 211246, Note_on_c, 9, 41, 0
16, 211248, Note_on_c, 9, 41, 94
16, 211293, Note_on_c, 9, 41, 0
16, 211440, Note_on_c, 9, 53, 105
16, 211508, Note_on_c, 9, 53, 0
16, 211512, Note_on_c, 9, 41, 109
16, 211534, Note_on_c, 9, 41, 0
16, 211536, Note_on_c, 9, 41, 110
16, 211581, Note_on_c, 9, 41, 0
16, 211584, End_track
17, 0, Start_track
17, 0, Title_t, "Tempo,Exclusiv\201i\223k\230J(;_;)\201j"
17, 0, MIDI_port, 0
17, 8, System_exclusive, 10, 65, 16, 66, 18, 64, 0, 127, 0, 65, 247
17, 12, System_exclusive, 10, 65, 16, 66, 18, 64, 0, 4, 127, 61, 247
17, 20, System_exclusive, 13, 65, 16, 66, 18, 64, 0, 0, 0, 4, 14, 9, 37, 247
17, 28, System_exclusive, 10, 65, 16, 66, 18, 64, 1, 48, 3, 12, 247
17, 32, System_exclusive, 10, 65, 16, 66, 18, 64, 1, 51, 78, 62, 247
17, 40, System_exclusive, 10, 65, 16, 66, 18, 64, 1, 56, 0, 7, 247
17, 44, System_exclusive, 10, 65, 16, 66, 18, 64, 1, 58, 20, 113, 247
17, 192, System_exclusive, 25, 65, 16, 66, 18, 64, 1, 16, 1, 2, 2, 2, 2, 2, 2, 2, 2, 2, 2, 2, 1, 0, 0, 0, 23, 247
17, 115008, System_exclusive, 25, 65, 16, 66, 18, 64, 1, 16, 0, 2, 2, 2, 2, 2, 2, 1, 1, 2, 2, 2, 1, 1, 2, 0, 23, 247
17, 152304, System_exclusive, 25, 65, 16, 66, 18, 64, 1, 16, 1, 2, 2, 2, 2, 2, 2, 2, 2, 2, 2, 2, 1, 0, 0, 0, 23, 247
17, 211920, System_exclusive, 25, 65, 16, 66, 18, 64, 1, 16, 0, 2, 2, 2, 2, 2, 2, 1, 1, 2, 2, 2, 1, 1, 2, 0, 23, 247
17, 214080, End_track
0, 0, End_of_file
