0, 0, Header, 1, 12, 480
1, 0, Start_track
1, 0, Tempo, 185089
1, 0, Time_signature, 3, 2, 24, 8
1, 0, Key_signature, -1, "major"
1, 233280, Tempo, 181761
1, 237542, Tempo, 428545
1, 237600, Time_signature, 2, 2, 24, 8
1, 273144, Tempo, 433409
1, 273168, Tempo, 438273
1, 273192, Tempo, 443393
1, 273216, Tempo, 448769
1, 273240, Tempo, 454145
1, 273264, Tempo, 459521
1, 273288, Tempo, 465153
1, 273312, Tempo, 471041
1, 273336, Tempo, 476929
1, 273360, Tempo, 483073
1, 273384, Tempo, 489217
1, 273408, Tempo, 495617
1, 273432, Tempo, 502273
1, 273456, Tempo, 508929
1, 273480, Tempo, 516097
1, 273504, Tempo, 523009
1, 273528, Tempo, 530433
1, 273552, Tempo, 537857
1, 273576, Tempo, 545793
1, 273600, Tempo, 553729
1, 273624, Tempo, 561921
1, 273648, Tempo, 570369
1, 273672, Tempo, 579073
1, 273696, Tempo, 588033
1, 273720, Tempo, 597249
1, 273744, Tempo, 606977
1, 273768, Tempo, 616705
1, 273792, Tempo, 626945
1, 273816, Tempo, 637441
1, 273840, Tempo, 648449
1, 273864, Tempo, 659713
1, 273888, Tempo, 671489
1, 273912, Tempo, 683521
1, 273936, Tempo, 696065
1, 273960, Tempo, 709121
1, 273984, Tempo, 722689
1, 274008, Tempo, 736769
1, 274032, Tempo, 751361
1, 274056, Tempo, 766465
1, 274080, Tempo, 782337
1, 274104, Tempo, 798721
1, 274128, Tempo, 816129
1, 274152, Tempo, 834049
1, 274176, Tempo, 852737
1, 274200, Tempo, 872449
1, 274224, Tempo, 892929
1, 274248, Tempo, 914433
1, 274272, Tempo, 937217
1, 274296, Tempo, 960769
1, 274320, Tempo, 985857
1, 274344, Tempo, 1012225
1, 274368, Tempo, 1039873
1, 274392, Tempo, 1069313
1, 274416, Tempo, 1100289
1, 274440, Tempo, 1133313
1, 274464, Tempo, 1168129
1, 274488, Tempo, 1205249
1, 274512, Tempo, 1244929
1, 274536, Tempo, 1287169
1, 274560, Tempo, 1333249
1, 274792, Tempo, 800001
1, 276960, Tempo, 185089
1, 276960, Time_signature, 3, 2, 24, 8
1, 510240, Tempo, 181761
1, 514502, Tempo, 428545
1, 514560, Time_signature, 2, 2, 24, 8
1, 550104, Tempo, 433409
1, 550128, Tempo, 438273
1, 550152, Tempo, 443393
1, 550176, Tempo, 448769
1, 550200, Tempo, 454145
1, 550224, Tempo, 459521
1, 550248, Tempo, 465153
1, 550272, Tempo, 471041
1, 550296, Tempo, 476929
1, 550320, Tempo, 483073
1, 550344, Tempo, 489217
1, 550368, Tempo, 495617
1, 550392, Tempo, 502273
1, 550416, Tempo, 508929
1, 550440, Tempo, 516097
1, 550464, Tempo, 523009
1, 550488, Tempo, 530433
1, 550512, Tempo, 537857
1, 550536, Tempo, 545793
1, 550560, Tempo, 553729
1, 550584, Tempo, 561921
1, 550608, Tempo, 570369
1, 550632, Tempo, 579073
1, 550656, Tempo, 588033
1, 550680, Tempo, 597249
1, 550704, Tempo, 606977
1, 550728, Tempo, 616705
1, 550752, Tempo, 626945
1, 550776, Tempo, 637441
1, 550800, Tempo, 648449
1, 550824, Tempo, 659713
1, 550848, Tempo, 671489
1, 550872, Tempo, 683521
1, 550896, Tempo, 696065
1, 550920, Tempo, 709121
1, 550944, Tempo, 722689
1, 550968, Tempo, 736769
1, 550992, Tempo, 751361
1, 551016, Tempo, 766465
1, 551040, Tempo, 782337
1, 551064, Tempo, 798721
1, 551088, Tempo, 816129
1, 551112, Tempo, 834049
1, 551136, Tempo, 852737
1, 551160, Tempo, 872449
1, 551184, Tempo, 892929
1, 551208, Tempo, 914433
1, 551232, Tempo, 937217
1, 551256, Tempo, 960769
1, 551280, Tempo, 985857
1, 551304, Tempo, 1012225
1, 551328, Tempo, 1039873
1, 551352, Tempo, 1069313
1, 551376, Tempo, 1100289
1, 551400, Tempo, 1133313
1, 551424, Tempo, 1168129
1, 551448, Tempo, 1205249
1, 551472, Tempo, 1244929
1, 551496, Tempo, 1287169
1, 551520, Tempo, 1333249
1, 551752, Tempo, 800001
1, 553920, Tempo, 185089
1, 553920, Time_signature, 3, 2, 24, 8
1, 574932, Tempo, 185857
1, 574956, Tempo, 186369
1, 574980, Tempo, 187137
1, 575004, Tempo, 187905
1, 575028, Tempo, 188673
1, 575052, Tempo, 189185
1, 575076, Tempo, 189953
1, 575100, Tempo, 190721
1, 575124, Tempo, 191489
1, 575148, Tempo, 192257
1, 575172, Tempo, 193025
1, 575196, Tempo, 193793
1, 575220, Tempo, 194305
1, 575244, Tempo, 195073
1, 575268, Tempo, 195841
1, 575292, Tempo, 196609
1, 575316, Tempo, 197377
1, 575340, Tempo, 198401
1, 575364, Tempo, 199169
1, 575388, Tempo, 199937
1, 576976, Tempo, 249857
1, 579840, Tempo, 192257
1, 598032, Tempo, 199937
1, 598056, Tempo, 199681
1, 598080, Tempo, 199169
1, 598104, Tempo, 198913
1, 598128, Tempo, 198657
1, 598152, Tempo, 198401
1, 598176, Tempo, 198145
1, 598200, Tempo, 197889
1, 598224, Tempo, 197633
1, 598248, Tempo, 197121
1, 598272, Tempo, 196865
1, 598296, Tempo, 196609
1, 598320, Tempo, 196353
1, 598344, Tempo, 196097
1, 598368, Tempo, 195841
1, 598392, Tempo, 195585
1, 598416, Tempo, 195329
1, 598440, Tempo, 194817
1, 598464, Tempo, 194561
1, 598488, Tempo, 194305
1, 598512, Tempo, 194049
1, 598536, Tempo, 193793
1, 598560, Tempo, 193537
1, 598584, Tempo, 193281
1, 598608, Tempo, 193025
1, 598632, Tempo, 192769
1, 598656, Tempo, 192513
1, 598680, Tempo, 192001
1, 598704, Tempo, 191745
1, 598728, Tempo, 191489
1, 598752, Tempo, 191233
1, 598776, Tempo, 190977
1, 598800, Tempo, 190721
1, 598824, Tempo, 190465
1, 598848, Tempo, 190209
1, 598872, Tempo, 189953
1, 598896, Tempo, 189697
1, 598920, Tempo, 189441
1, 598944, Tempo, 189185
1, 598968, Tempo, 188929
1, 598992, Tempo, 188673
1, 599016, Tempo, 188417
1, 599040, Tempo, 188161
1, 599064, Tempo, 187905
1, 599088, Tempo, 187649
1, 599112, Tempo, 187393
1, 599136, Tempo, 187137
1, 599160, Tempo, 186881
1, 599184, Tempo, 186625
1, 599208, Tempo, 186369
1, 599232, Tempo, 186113
1, 599256, Tempo, 185857
1, 599280, Tempo, 185601
1, 599304, Tempo, 185345
1, 599328, Tempo, 185089
1, 599352, Tempo, 184833
1, 599376, Tempo, 184577
1, 599400, Tempo, 184321
1, 599424, Tempo, 184065
1, 599448, Tempo, 183809
1, 599472, Tempo, 183553
1, 599496, Tempo, 183297
1, 599520, Tempo, 183041
1, 599544, Tempo, 182785
1, 599568, Tempo, 182529
1, 599592, Tempo, 182273
1, 599616, Tempo, 182017
1, 599640, Tempo, 181761
1, 599664, Tempo, 181505
1, 599688, Tempo, 181249
1, 599712, Tempo, 180993
1, 599736, Tempo, 180737
1, 599760, Tempo, 180481
1, 599784, Tempo, 180225
1, 599808, Tempo, 179969
1, 599832, Tempo, 179713
1, 599856, Tempo, 179457
1, 599880, Tempo, 179201
1, 599904, Tempo, 178945
1, 599928, Tempo, 178689
1, 599952, Tempo, 178433
1, 599962, Tempo, 178433
1, 599962, End_track
2, 0, Start_track
2, 0, Title_t, "Flute"
2, 0, MIDI_port, 0
2, 0, Channel_prefix, 0
2, 0, Control_c, 0, 7, 106
2, 0, Control_c, 0, 10, 82
2, 0, Control_c, 0, 0, 0
2, 0, Control_c, 0, 32, 0
2, 0, Control_c, 0, 91, 58
2, 0, Program_c, 0, 73
2, 12480, Note_on_c, 0, 69, 48
2, 12634, Note_off_c, 0, 69, 64
2, 12960, Note_on_c, 0, 74, 48
2, 13600, Note_off_c, 0, 74, 64
2, 13920, Note_on_c, 0, 78, 48
2, 14240, Note_off_c, 0, 78, 64
2, 14400, Note_on_c, 0, 81, 48
2, 14720, Note_off_c, 0, 81, 64
2, 14880, Note_on_c, 0, 78, 48
2, 15200, Note_off_c, 0, 78, 64
2, 15360, Note_on_c, 0, 78, 48
2, 15680, Note_off_c, 0, 78, 64
2, 15840, Note_on_c, 0, 81, 48
2, 16160, Note_off_c, 0, 81, 64
2, 16320, Note_on_c, 0, 85, 48
2, 16640, Note_off_c, 0, 85, 64
2, 16800, Note_on_c, 0, 86, 48
2, 16960, Note_off_c, 0, 86, 64
2, 17040, Note_on_c, 0, 83, 48
2, 17200, Note_off_c, 0, 83, 64
2, 17280, Note_on_c, 0, 81, 48
2, 17920, Note_off_c, 0, 81, 64
2, 18240, Note_on_c, 0, 85, 48
2, 18560, Note_off_c, 0, 85, 64
2, 18720, Note_on_c, 0, 86, 48
2, 19040, Note_off_c, 0, 86, 64
2, 19200, Note_on_c, 0, 81, 48
2, 19520, Note_off_c, 0, 81, 64
2, 19680, Note_on_c, 0, 83, 48
2, 20000, Note_off_c, 0, 83, 64
2, 20160, Note_on_c, 0, 81, 48
2, 20480, Note_off_c, 0, 81, 64
2, 20640, Note_on_c, 0, 78, 48
2, 20960, Note_off_c, 0, 78, 64
2, 21120, Note_on_c, 0, 79, 48
2, 21440, Note_off_c, 0, 79, 64
2, 21600, Note_on_c, 0, 78, 48
2, 21920, Note_off_c, 0, 78, 64
2, 22080, Note_on_c, 0, 74, 48
2, 22400, Note_off_c, 0, 74, 64
2, 22560, Note_on_c, 0, 78, 48
2, 22720, Note_off_c, 0, 78, 64
2, 22800, Note_on_c, 0, 76, 48
2, 22960, Note_off_c, 0, 76, 64
2, 23040, Note_on_c, 0, 74, 48
2, 23360, Note_off_c, 0, 74, 64
2, 35520, Note_on_c, 0, 69, 48
2, 35674, Note_off_c, 0, 69, 64
2, 36000, Note_on_c, 0, 74, 48
2, 36640, Note_off_c, 0, 74, 64
2, 36960, Note_on_c, 0, 78, 48
2, 37280, Note_off_c, 0, 78, 64
2, 37440, Note_on_c, 0, 81, 48
2, 37760, Note_off_c, 0, 81, 64
2, 37920, Note_on_c, 0, 78, 48
2, 38240, Note_off_c, 0, 78, 64
2, 38400, Note_on_c, 0, 78, 48
2, 38720, Note_off_c, 0, 78, 64
2, 38880, Note_on_c, 0, 81, 48
2, 39200, Note_off_c, 0, 81, 64
2, 39360, Note_on_c, 0, 85, 48
2, 39680, Note_off_c, 0, 85, 64
2, 39840, Note_on_c, 0, 86, 48
2, 40000, Note_off_c, 0, 86, 64
2, 40080, Note_on_c, 0, 83, 48
2, 40240, Note_off_c, 0, 83, 64
2, 40320, Note_on_c, 0, 81, 48
2, 40960, Note_off_c, 0, 81, 64
2, 41280, Note_on_c, 0, 85, 48
2, 41600, Note_off_c, 0, 85, 64
2, 41760, Note_on_c, 0, 86, 48
2, 42080, Note_off_c, 0, 86, 64
2, 42240, Note_on_c, 0, 81, 48
2, 42560, Note_off_c, 0, 81, 64
2, 42720, Note_on_c, 0, 83, 48
2, 43040, Note_off_c, 0, 83, 64
2, 43200, Note_on_c, 0, 81, 48
2, 43520, Note_off_c, 0, 81, 64
2, 43680, Note_on_c, 0, 78, 48
2, 44000, Note_off_c, 0, 78, 64
2, 44160, Note_on_c, 0, 79, 48
2, 44480, Note_off_c, 0, 79, 64
2, 44640, Note_on_c, 0, 78, 48
2, 44960, Note_off_c, 0, 78, 64
2, 45120, Note_on_c, 0, 74, 48
2, 45440, Note_off_c, 0, 74, 64
2, 45600, Note_on_c, 0, 78, 48
2, 45760, Note_off_c, 0, 78, 64
2, 45840, Note_on_c, 0, 76, 48
2, 46000, Note_off_c, 0, 76, 64
2, 46080, Note_on_c, 0, 74, 48
2, 46400, Note_off_c, 0, 74, 64
2, 55680, Note_on_c, 0, 72, 34
2, 55840, Note_off_c, 0, 72, 64
2, 56160, Note_on_c, 0, 71, 34
2, 56320, Note_off_c, 0, 71, 64
2, 56640, Note_on_c, 0, 67, 34
2, 56800, Note_off_c, 0, 67, 64
2, 57120, Note_on_c, 0, 69, 34
2, 57280, Note_off_c, 0, 69, 64
2, 57600, Note_on_c, 0, 71, 34
2, 57760, Note_off_c, 0, 71, 64
2, 58080, Note_on_c, 0, 67, 34
2, 58240, Note_off_c, 0, 67, 64
2, 67200, Note_on_c, 0, 84, 60
2, 68000, Note_off_c, 0, 84, 64
2, 68160, Note_on_c, 0, 84, 60
2, 68480, Note_off_c, 0, 84, 64
2, 68640, Note_on_c, 0, 83, 60
2, 68960, Note_off_c, 0, 83, 64
2, 69120, Note_on_c, 0, 84, 60
2, 69440, Note_off_c, 0, 84, 64
2, 69600, Note_on_c, 0, 84, 60
2, 69920, Note_off_c, 0, 84, 64
2, 70080, Note_on_c, 0, 84, 60
2, 70400, Note_off_c, 0, 84, 64
2, 70560, Note_on_c, 0, 84, 60
2, 70880, Note_off_c, 0, 84, 64
2, 71040, Note_on_c, 0, 84, 53
2, 71360, Note_off_c, 0, 84, 64
2, 71520, Note_on_c, 0, 84, 57
2, 71840, Note_off_c, 0, 84, 64
2, 72000, Note_on_c, 0, 84, 61
2, 72320, Note_off_c, 0, 84, 64
2, 72480, Note_on_c, 0, 84, 65
2, 72800, Note_off_c, 0, 84, 64
2, 72960, Note_on_c, 0, 84, 69
2, 73280, Note_off_c, 0, 84, 64
2, 73440, Note_on_c, 0, 84, 73
2, 73760, Note_off_c, 0, 84, 64
2, 73920, Note_on_c, 0, 84, 76
2, 74240, Note_off_c, 0, 84, 64
2, 74400, Note_on_c, 0, 84, 80
2, 74720, Note_off_c, 0, 84, 64
2, 74880, Note_on_c, 0, 84, 84
2, 75200, Note_off_c, 0, 84, 64
2, 75360, Note_on_c, 0, 84, 88
2, 75680, Note_off_c, 0, 84, 64
2, 75840, Note_on_c, 0, 84, 92
2, 75840, Note_on_c, 0, 72, 92
2, 76160, Note_off_c, 0, 72, 64
2, 76160, Note_off_c, 0, 84, 64
2, 76320, Note_on_c, 0, 89, 92
2, 76320, Note_on_c, 0, 77, 92
2, 76640, Note_off_c, 0, 77, 64
2, 76640, Note_off_c, 0, 89, 64
2, 76800, Note_on_c, 0, 84, 92
2, 76800, Note_on_c, 0, 72, 92
2, 77120, Note_off_c, 0, 72, 64
2, 77120, Note_off_c, 0, 84, 64
2, 77280, Note_on_c, 0, 86, 92
2, 77280, Note_on_c, 0, 74, 92
2, 77600, Note_off_c, 0, 74, 64
2, 77600, Note_off_c, 0, 86, 64
2, 77760, Note_on_c, 0, 84, 92
2, 77760, Note_on_c, 0, 72, 92
2, 78080, Note_off_c, 0, 72, 64
2, 78080, Note_off_c, 0, 84, 64
2, 78240, Note_on_c, 0, 81, 92
2, 78240, Note_on_c, 0, 69, 92
2, 78560, Note_off_c, 0, 69, 64
2, 78560, Note_off_c, 0, 81, 64
2, 78720, Note_on_c, 0, 82, 92
2, 78720, Note_on_c, 0, 70, 92
2, 79040, Note_off_c, 0, 70, 64
2, 79040, Note_off_c, 0, 82, 64
2, 79200, Note_on_c, 0, 69, 121
2, 79200, Note_on_c, 0, 81, 120
2, 79520, Note_off_c, 0, 81, 64
2, 79520, Note_off_c, 0, 69, 64
2, 79680, Note_on_c, 0, 65, 92
2, 79680, Note_on_c, 0, 77, 92
2, 80000, Note_off_c, 0, 77, 64
2, 80000, Note_off_c, 0, 65, 64
2, 80160, Note_on_c, 0, 67, 92
2, 80160, Note_on_c, 0, 79, 92
2, 80480, Note_off_c, 0, 79, 64
2, 80480, Note_off_c, 0, 67, 64
2, 80640, Note_on_c, 0, 69, 120
2, 80640, Note_on_c, 0, 81, 119
2, 80960, Note_off_c, 0, 81, 64
2, 80960, Note_off_c, 0, 69, 64
2, 81120, Note_on_c, 0, 65, 92
2, 81120, Note_on_c, 0, 77, 92
2, 81440, Note_off_c, 0, 77, 64
2, 81440, Note_off_c, 0, 65, 64
2, 81600, Note_on_c, 0, 67, 92
2, 81600, Note_on_c, 0, 79, 92
2, 81920, Note_off_c, 0, 79, 64
2, 81920, Note_off_c, 0, 67, 64
2, 82080, Note_on_c, 0, 69, 120
2, 82080, Note_on_c, 0, 81, 120
2, 82400, Note_off_c, 0, 81, 64
2, 82400, Note_off_c, 0, 69, 64
2, 82560, Note_on_c, 0, 77, 92
2, 82880, Note_off_c, 0, 77, 64
2, 83040, Note_on_c, 0, 79, 92
2, 83360, Note_off_c, 0, 79, 64
2, 83520, Note_on_c, 0, 81, 123
2, 83840, Note_off_c, 0, 81, 64
2, 84000, Note_on_c, 0, 77, 92
2, 84320, Note_off_c, 0, 77, 64
2, 84480, Note_on_c, 0, 79, 92
2, 84800, Note_off_c, 0, 79, 64
2, 84960, Note_on_c, 0, 81, 119
2, 85920, Note_off_c, 0, 81, 64
2, 86400, Note_on_c, 0, 79, 92
2, 86440, Note_off_c, 0, 79, 64
2, 86440, Note_on_c, 0, 81, 92
2, 86480, Note_off_c, 0, 81, 64
2, 86480, Note_on_c, 0, 79, 92
2, 86940, Note_off_c, 0, 79, 64
2, 87360, Note_on_c, 0, 77, 92
2, 87680, Note_off_c, 0, 77, 64
2, 87840, Note_on_c, 0, 76, 92
2, 87880, Note_off_c, 0, 76, 64
2, 87880, Note_on_c, 0, 77, 92
2, 87920, Note_off_c, 0, 77, 64
2, 87920, Note_on_c, 0, 76, 92
2, 88380, Note_off_c, 0, 76, 64
2, 88800, Note_on_c, 0, 74, 92
2, 89120, Note_off_c, 0, 74, 64
2, 89280, Note_on_c, 0, 72, 92
2, 89920, Note_off_c, 0, 72, 64
2, 90240, Note_on_c, 0, 76, 92
2, 90560, Note_off_c, 0, 76, 64
2, 90720, Note_on_c, 0, 77, 111
2, 91930, Note_off_c, 0, 77, 64
2, 92160, Note_on_c, 0, 77, 115
2, 92160, Note_on_c, 0, 79, 109
2, 93340, Note_off_c, 0, 77, 64
2, 93380, Note_off_c, 0, 79, 64
2, 93600, Note_on_c, 0, 77, 113
2, 93600, Note_on_c, 0, 81, 112
2, 94790, Note_off_c, 0, 81, 64
2, 94804, Note_off_c, 0, 77, 64
2, 95040, Note_on_c, 0, 79, 108
2, 95040, Note_on_c, 0, 76, 111
2, 96210, Note_off_c, 0, 76, 64
2, 96230, Note_off_c, 0, 79, 64
2, 96480, Note_on_c, 0, 81, 92
2, 96480, Note_on_c, 0, 77, 92
2, 96800, Note_off_c, 0, 77, 64
2, 96800, Note_off_c, 0, 81, 64
2, 97440, Note_on_c, 0, 81, 92
2, 97440, Note_on_c, 0, 93, 92
2, 97760, Note_off_c, 0, 93, 64
2, 97760, Note_off_c, 0, 81, 64
2, 97920, Note_on_c, 0, 91, 92
2, 97920, Note_on_c, 0, 79, 92
2, 98560, Note_off_c, 0, 79, 64
2, 98560, Note_off_c, 0, 91, 64
2, 98880, Note_on_c, 0, 77, 92
2, 98880, Note_on_c, 0, 89, 92
2, 99200, Note_off_c, 0, 89, 64
2, 99200, Note_off_c, 0, 77, 64
2, 99360, Note_on_c, 0, 76, 92
2, 99360, Note_on_c, 0, 88, 92
2, 100000, Note_off_c, 0, 88, 64
2, 100000, Note_off_c, 0, 76, 64
2, 100320, Note_on_c, 0, 74, 92
2, 100320, Note_on_c, 0, 86, 92
2, 100640, Note_off_c, 0, 86, 64
2, 100640, Note_off_c, 0, 74, 64
2, 100800, Note_on_c, 0, 72, 92
2, 100800, Note_on_c, 0, 84, 92
2, 101440, Note_off_c, 0, 84, 64
2, 101440, Note_off_c, 0, 72, 64
2, 101760, Note_on_c, 0, 84, 92
2, 101760, Note_on_c, 0, 88, 92
2, 102080, Note_off_c, 0, 88, 64
2, 102080, Note_off_c, 0, 84, 64
2, 102240, Note_on_c, 0, 89, 92
2, 102240, Note_on_c, 0, 77, 92
2, 103334, Note_off_c, 0, 77, 64
2, 103354, Note_off_c, 0, 89, 64
2, 103680, Note_on_c, 0, 89, 92
2, 103680, Note_on_c, 0, 86, 92
2, 104770, Note_off_c, 0, 89, 64
2, 104774, Note_off_c, 0, 86, 64
2, 105120, Note_on_c, 0, 89, 92
2, 105120, Note_on_c, 0, 84, 92
2, 106194, Note_off_c, 0, 89, 64
2, 106224, Note_off_c, 0, 84, 64
2, 106560, Note_on_c, 0, 84, 92
2, 106560, Note_on_c, 0, 88, 92
2, 107664, Note_off_c, 0, 88, 64
2, 107664, Note_off_c, 0, 84, 64
2, 108000, Note_on_c, 0, 89, 92
2, 108000, Note_on_c, 0, 84, 92
2, 108320, Note_off_c, 0, 84, 64
2, 108320, Note_off_c, 0, 89, 64
2, 112320, Note_on_c, 0, 84, 103
2, 112320, Note_on_c, 0, 88, 103
2, 112640, Note_off_c, 0, 88, 64
2, 112640, Note_off_c, 0, 84, 64
2, 112800, Note_on_c, 0, 84, 92
2, 112800, Note_on_c, 0, 88, 92
2, 113120, Note_off_c, 0, 88, 64
2, 113120, Note_off_c, 0, 84, 64
2, 113280, Note_on_c, 0, 84, 92
2, 113280, Note_on_c, 0, 88, 92
2, 113600, Note_off_c, 0, 88, 64
2, 113600, Note_off_c, 0, 84, 64
2, 113760, Note_on_c, 0, 84, 105
2, 113760, Note_on_c, 0, 89, 105
2, 114080, Note_off_c, 0, 89, 64
2, 114080, Note_off_c, 0, 84, 64
2, 118080, Note_on_c, 0, 84, 103
2, 118080, Note_on_c, 0, 88, 102
2, 118400, Note_off_c, 0, 88, 64
2, 118400, Note_off_c, 0, 84, 64
2, 118560, Note_on_c, 0, 84, 92
2, 118560, Note_on_c, 0, 88, 92
2, 118880, Note_off_c, 0, 88, 64
2, 118880, Note_off_c, 0, 84, 64
2, 119040, Note_on_c, 0, 84, 92
2, 119040, Note_on_c, 0, 88, 92
2, 119360, Note_off_c, 0, 88, 64
2, 119360, Note_off_c, 0, 84, 64
2, 119520, Note_on_c, 0, 84, 108
2, 119520, Note_on_c, 0, 89, 107
2, 119840, Note_off_c, 0, 89, 64
2, 119840, Note_off_c, 0, 84, 64
2, 122400, Note_on_c, 0, 84, 93
2, 122400, Note_on_c, 0, 89, 92
2, 122720, Note_off_c, 0, 89, 64
2, 122720, Note_off_c, 0, 84, 64
2, 245280, Note_on_c, 0, 77, 85
2, 245440, Note_off_c, 0, 77, 64
2, 245440, Note_on_c, 0, 81, 85
2, 245600, Note_off_c, 0, 81, 64
2, 245604, Note_on_c, 0, 82, 85
2, 245760, Note_on_c, 0, 84, 85
2, 245764, Note_off_c, 0, 82, 64
2, 246234, Note_off_c, 0, 84, 64
2, 246240, Note_on_c, 0, 77, 85
2, 246400, Note_off_c, 0, 77, 64
2, 246400, Note_on_c, 0, 81, 85
2, 246560, Note_off_c, 0, 81, 64
2, 246564, Note_on_c, 0, 82, 83
2, 246720, Note_on_c, 0, 84, 85
2, 246724, Note_off_c, 0, 82, 64
2, 247194, Note_off_c, 0, 84, 64
2, 247200, Note_on_c, 0, 82, 85
2, 247200, Note_on_c, 0, 77, 85
2, 247360, Note_off_c, 0, 77, 64
2, 247360, Note_on_c, 0, 82, 85
2, 247520, Note_off_c, 0, 82, 64
2, 247524, Note_on_c, 0, 84, 85
2, 247680, Note_off_c, 0, 82, 64
2, 247680, Note_on_c, 0, 86, 85
2, 247684, Note_off_c, 0, 84, 64
2, 248154, Note_off_c, 0, 86, 64
2, 248160, Note_on_c, 0, 84, 85
2, 248160, Note_on_c, 0, 81, 83
2, 248594, Note_off_c, 0, 81, 64
2, 248594, Note_off_c, 0, 84, 64
2, 248640, Note_on_c, 0, 82, 85
2, 248960, Note_off_c, 0, 82, 64
2, 249120, Note_on_c, 0, 77, 85
2, 249280, Note_off_c, 0, 77, 64
2, 249280, Note_on_c, 0, 81, 85
2, 249440, Note_off_c, 0, 81, 64
2, 249444, Note_on_c, 0, 82, 85
2, 249600, Note_on_c, 0, 84, 85
2, 249604, Note_off_c, 0, 82, 64
2, 250074, Note_off_c, 0, 84, 64
2, 250080, Note_on_c, 0, 77, 85
2, 250240, Note_off_c, 0, 77, 64
2, 250240, Note_on_c, 0, 81, 85
2, 250400, Note_off_c, 0, 81, 64
2, 250404, Note_on_c, 0, 82, 85
2, 250560, Note_on_c, 0, 84, 85
2, 250564, Note_off_c, 0, 82, 64
2, 251034, Note_off_c, 0, 84, 64
2, 251040, Note_on_c, 0, 82, 85
2, 251040, Note_on_c, 0, 77, 85
2, 251200, Note_off_c, 0, 77, 64
2, 251200, Note_on_c, 0, 82, 85
2, 251360, Note_off_c, 0, 82, 64
2, 251364, Note_on_c, 0, 84, 85
2, 251520, Note_off_c, 0, 82, 64
2, 251520, Note_on_c, 0, 86, 85
2, 251524, Note_off_c, 0, 84, 64
2, 251994, Note_off_c, 0, 86, 64
2, 252000, Note_on_c, 0, 84, 85
2, 252000, Note_on_c, 0, 81, 83
2, 252434, Note_off_c, 0, 81, 64
2, 252434, Note_off_c, 0, 84, 64
2, 252480, Note_on_c, 0, 82, 85
2, 252954, Note_off_c, 0, 82, 64
2, 254880, Note_on_c, 0, 84, 85
2, 254880, Note_on_c, 0, 89, 85
2, 255520, Note_off_c, 0, 89, 64
2, 255520, Note_off_c, 0, 84, 64
2, 255840, Note_on_c, 0, 84, 85
2, 255840, Note_on_c, 0, 88, 85
2, 256314, Note_off_c, 0, 88, 64
2, 256314, Note_off_c, 0, 84, 64
2, 256320, Note_on_c, 0, 84, 85
2, 256320, Note_on_c, 0, 89, 85
2, 256610, Note_off_c, 0, 89, 64
2, 256610, Note_off_c, 0, 84, 64
2, 258720, Note_on_c, 0, 84, 85
2, 258720, Note_on_c, 0, 89, 85
2, 259360, Note_off_c, 0, 89, 64
2, 259360, Note_off_c, 0, 84, 64
2, 259680, Note_on_c, 0, 84, 85
2, 259680, Note_on_c, 0, 88, 85
2, 260154, Note_off_c, 0, 88, 64
2, 260154, Note_off_c, 0, 84, 64
2, 260160, Note_on_c, 0, 84, 85
2, 260160, Note_on_c, 0, 89, 85
2, 260450, Note_off_c, 0, 89, 64
2, 260450, Note_off_c, 0, 84, 64
2, 262320, Note_on_c, 0, 89, 90
2, 262320, Note_on_c, 0, 93, 90
2, 262480, Note_off_c, 0, 93, 64
2, 262480, Note_off_c, 0, 89, 64
2, 262560, Note_on_c, 0, 91, 90
2, 262560, Note_on_c, 0, 88, 90
2, 262720, Note_off_c, 0, 88, 64
2, 262720, Note_off_c, 0, 91, 64
2, 263040, Note_on_c, 0, 89, 90
2, 263040, Note_on_c, 0, 86, 90
2, 263200, Note_off_c, 0, 86, 64
2, 263200, Note_off_c, 0, 89, 64
2, 263520, Note_on_c, 0, 88, 91
2, 263520, Note_on_c, 0, 84, 91
2, 263680, Note_off_c, 0, 84, 64
2, 263680, Note_off_c, 0, 88, 64
2, 264000, Note_on_c, 0, 86, 92
2, 264000, Note_on_c, 0, 83, 92
2, 264160, Note_off_c, 0, 83, 64
2, 264160, Note_off_c, 0, 86, 64
2, 264480, Note_on_c, 0, 84, 92
2, 264640, Note_off_c, 0, 84, 64
2, 266160, Note_on_c, 0, 93, 94
2, 266160, Note_on_c, 0, 89, 94
2, 266320, Note_off_c, 0, 89, 64
2, 266320, Note_off_c, 0, 93, 64
2, 266640, Note_on_c, 0, 91, 95
2, 266640, Note_on_c, 0, 88, 95
2, 266800, Note_off_c, 0, 88, 64
2, 266800, Note_off_c, 0, 91, 64
2, 267120, Note_on_c, 0, 89, 95
2, 267120, Note_on_c, 0, 86, 95
2, 267280, Note_off_c, 0, 86, 64
2, 267280, Note_off_c, 0, 89, 64
2, 267600, Note_on_c, 0, 88, 92
2, 267600, Note_on_c, 0, 84, 92
2, 267760, Note_off_c, 0, 84, 64
2, 267760, Note_off_c, 0, 88, 64
2, 268080, Note_on_c, 0, 86, 94
2, 268080, Note_on_c, 0, 83, 94
2, 268240, Note_off_c, 0, 83, 64
2, 268240, Note_off_c, 0, 86, 64
2, 268320, Note_on_c, 0, 84, 94
2, 268320, Note_on_c, 0, 76, 94
2, 268800, Note_off_c, 0, 76, 64
2, 268800, Note_off_c, 0, 84, 64
2, 269040, Note_on_c, 0, 84, 97
2, 269040, Note_on_c, 0, 76, 97
2, 269200, Note_off_c, 0, 76, 64
2, 269200, Note_off_c, 0, 84, 64
2, 269280, Note_on_c, 0, 84, 97
2, 269280, Note_on_c, 0, 76, 97
2, 269760, Note_off_c, 0, 76, 64
2, 269760, Note_off_c, 0, 84, 64
2, 270000, Note_on_c, 0, 84, 99
2, 270000, Note_on_c, 0, 76, 99
2, 270160, Note_off_c, 0, 76, 64
2, 270160, Note_off_c, 0, 84, 64
2, 270240, Note_on_c, 0, 84, 100
2, 270240, Note_on_c, 0, 76, 100
2, 270720, Note_off_c, 0, 76, 64
2, 270720, Note_off_c, 0, 84, 64
2, 270960, Note_on_c, 0, 84, 102
2, 270960, Note_on_c, 0, 76, 102
2, 271120, Note_off_c, 0, 76, 64
2, 271120, Note_off_c, 0, 84, 64
2, 271200, Note_on_c, 0, 84, 103
2, 271200, Note_on_c, 0, 76, 103
2, 271680, Note_off_c, 0, 76, 64
2, 271680, Note_off_c, 0, 84, 64
2, 271920, Note_on_c, 0, 84, 105
2, 271920, Note_on_c, 0, 76, 105
2, 272080, Note_off_c, 0, 76, 64
2, 272080, Note_off_c, 0, 84, 64
2, 272160, Note_on_c, 0, 84, 106
2, 272160, Note_on_c, 0, 76, 106
2, 272320, Note_off_c, 0, 76, 64
2, 272320, Note_off_c, 0, 84, 64
2, 272400, Note_on_c, 0, 84, 107
2, 272400, Note_on_c, 0, 76, 107
2, 272560, Note_off_c, 0, 76, 64
2, 272560, Note_off_c, 0, 84, 64
2, 272640, Note_on_c, 0, 84, 107
2, 272640, Note_on_c, 0, 76, 107
2, 272800, Note_off_c, 0, 76, 64
2, 272800, Note_off_c, 0, 84, 64
2, 272880, Note_on_c, 0, 88, 108
2, 272880, Note_on_c, 0, 84, 108
2, 273040, Note_off_c, 0, 84, 64
2, 273040, Note_off_c, 0, 88, 64
2, 273120, Note_on_c, 0, 88, 109
2, 273120, Note_on_c, 0, 84, 109
2, 273280, Note_off_c, 0, 84, 64
2, 273280, Note_off_c, 0, 88, 64
2, 273360, Note_on_c, 0, 88, 109
2, 273360, Note_on_c, 0, 84, 109
2, 273520, Note_off_c, 0, 84, 64
2, 273520, Note_off_c, 0, 88, 64
2, 273600, Note_on_c, 0, 88, 110
2, 273600, Note_on_c, 0, 84, 110
2, 273760, Note_off_c, 0, 84, 64
2, 273760, Note_off_c, 0, 88, 64
2, 273840, Note_on_c, 0, 88, 111
2, 273840, Note_on_c, 0, 84, 111
2, 274000, Note_off_c, 0, 84, 64
2, 274000, Note_off_c, 0, 88, 64
2, 274080, Note_on_c, 0, 88, 112
2, 274080, Note_on_c, 0, 84, 112
2, 274240, Note_off_c, 0, 84, 64
2, 274240, Note_off_c, 0, 88, 64
2, 275040, Note_on_c, 0, 84, 63
2, 275040, Note_on_c, 0, 76, 66
2, 275360, Note_off_c, 0, 76, 64
2, 275360, Note_off_c, 0, 84, 64
2, 276960, Control_c, 0, 91, 58
2, 276960, Control_c, 0, 10, 82
2, 276960, Control_c, 0, 7, 106
2, 276960, Control_c, 0, 0, 0
2, 276960, Control_c, 0, 32, 0
2, 276960, Program_c, 0, 73
2, 276960, Control_c, 0, 91, 58
2, 276960, Control_c, 0, 10, 82
2, 276960, Control_c, 0, 7, 106
2, 276960, Control_c, 0, 0, 0
2, 276960, Control_c, 0, 32, 0
2, 276960, Program_c, 0, 73
2, 289440, Note_on_c, 0, 69, 48
2, 289594, Note_off_c, 0, 69, 64
2, 289920, Note_on_c, 0, 74, 48
2, 290560, Note_off_c, 0, 74, 64
2, 290880, Note_on_c, 0, 78, 48
2, 291200, Note_off_c, 0, 78, 64
2, 291360, Note_on_c, 0, 81, 48
2, 291680, Note_off_c, 0, 81, 64
2, 291840, Note_on_c, 0, 78, 48
2, 292160, Note_off_c, 0, 78, 64
2, 292320, Note_on_c, 0, 78, 48
2, 292640, Note_off_c, 0, 78, 64
2, 292800, Note_on_c, 0, 81, 48
2, 293120, Note_off_c, 0, 81, 64
2, 293280, Note_on_c, 0, 85, 48
2, 293600, Note_off_c, 0, 85, 64
2, 293760, Note_on_c, 0, 86, 48
2, 293920, Note_off_c, 0, 86, 64
2, 294000, Note_on_c, 0, 83, 48
2, 294160, Note_off_c, 0, 83, 64
2, 294240, Note_on_c, 0, 81, 48
2, 294880, Note_off_c, 0, 81, 64
2, 295200, Note_on_c, 0, 85, 48
2, 295520, Note_off_c, 0, 85, 64
2, 295680, Note_on_c, 0, 86, 48
2, 296000, Note_off_c, 0, 86, 64
2, 296160, Note_on_c, 0, 81, 48
2, 296480, Note_off_c, 0, 81, 64
2, 296640, Note_on_c, 0, 83, 48
2, 296960, Note_off_c, 0, 83, 64
2, 297120, Note_on_c, 0, 81, 48
2, 297440, Note_off_c, 0, 81, 64
2, 297600, Note_on_c, 0, 78, 48
2, 297920, Note_off_c, 0, 78, 64
2, 298080, Note_on_c, 0, 79, 48
2, 298400, Note_off_c, 0, 79, 64
2, 298560, Note_on_c, 0, 78, 48
2, 298880, Note_off_c, 0, 78, 64
2, 299040, Note_on_c, 0, 74, 48
2, 299360, Note_off_c, 0, 74, 64
2, 299520, Note_on_c, 0, 78, 48
2, 299680, Note_off_c, 0, 78, 64
2, 299760, Note_on_c, 0, 76, 48
2, 299920, Note_off_c, 0, 76, 64
2, 300000, Note_on_c, 0, 74, 48
2, 300320, Note_off_c, 0, 74, 64
2, 312480, Note_on_c, 0, 69, 48
2, 312634, Note_off_c, 0, 69, 64
2, 312960, Note_on_c, 0, 74, 48
2, 313600, Note_off_c, 0, 74, 64
2, 313920, Note_on_c, 0, 78, 48
2, 314240, Note_off_c, 0, 78, 64
2, 314400, Note_on_c, 0, 81, 48
2, 314720, Note_off_c, 0, 81, 64
2, 314880, Note_on_c, 0, 78, 48
2, 315200, Note_off_c, 0, 78, 64
2, 315360, Note_on_c, 0, 78, 48
2, 315680, Note_off_c, 0, 78, 64
2, 315840, Note_on_c, 0, 81, 48
2, 316160, Note_off_c, 0, 81, 64
2, 316320, Note_on_c, 0, 85, 48
2, 316640, Note_off_c, 0, 85, 64
2, 316800, Note_on_c, 0, 86, 48
2, 316960, Note_off_c, 0, 86, 64
2, 317040, Note_on_c, 0, 83, 48
2, 317200, Note_off_c, 0, 83, 64
2, 317280, Note_on_c, 0, 81, 48
2, 317920, Note_off_c, 0, 81, 64
2, 318240, Note_on_c, 0, 85, 48
2, 318560, Note_off_c, 0, 85, 64
2, 318720, Note_on_c, 0, 86, 48
2, 319040, Note_off_c, 0, 86, 64
2, 319200, Note_on_c, 0, 81, 48
2, 319520, Note_off_c, 0, 81, 64
2, 319680, Note_on_c, 0, 83, 48
2, 320000, Note_off_c, 0, 83, 64
2, 320160, Note_on_c, 0, 81, 48
2, 320480, Note_off_c, 0, 81, 64
2, 320640, Note_on_c, 0, 78, 48
2, 320960, Note_off_c, 0, 78, 64
2, 321120, Note_on_c, 0, 79, 48
2, 321440, Note_off_c, 0, 79, 64
2, 321600, Note_on_c, 0, 78, 48
2, 321920, Note_off_c, 0, 78, 64
2, 322080, Note_on_c, 0, 74, 48
2, 322400, Note_off_c, 0, 74, 64
2, 322560, Note_on_c, 0, 78, 48
2, 322720, Note_off_c, 0, 78, 64
2, 322800, Note_on_c, 0, 76, 48
2, 322960, Note_off_c, 0, 76, 64
2, 323040, Note_on_c, 0, 74, 48
2, 323360, Note_off_c, 0, 74, 64
2, 332640, Note_on_c, 0, 72, 34
2, 332800, Note_off_c, 0, 72, 64
2, 333120, Note_on_c, 0, 71, 34
2, 333280, Note_off_c, 0, 71, 64
2, 333600, Note_on_c, 0, 67, 34
2, 333760, Note_off_c, 0, 67, 64
2, 334080, Note_on_c, 0, 69, 34
2, 334240, Note_off_c, 0, 69, 64
2, 334560, Note_on_c, 0, 71, 34
2, 334720, Note_off_c, 0, 71, 64
2, 335040, Note_on_c, 0, 67, 34
2, 335200, Note_off_c, 0, 67, 64
2, 344160, Note_on_c, 0, 84, 60
2, 344960, Note_off_c, 0, 84, 64
2, 345120, Note_on_c, 0, 84, 60
2, 345440, Note_off_c, 0, 84, 64
2, 345600, Note_on_c, 0, 83, 60
2, 345920, Note_off_c, 0, 83, 64
2, 346080, Note_on_c, 0, 84, 60
2, 346400, Note_off_c, 0, 84, 64
2, 346560, Note_on_c, 0, 84, 60
2, 346880, Note_off_c, 0, 84, 64
2, 347040, Note_on_c, 0, 84, 60
2, 347360, Note_off_c, 0, 84, 64
2, 347520, Note_on_c, 0, 84, 60
2, 347840, Note_off_c, 0, 84, 64
2, 348000, Note_on_c, 0, 84, 53
2, 348320, Note_off_c, 0, 84, 64
2, 348480, Note_on_c, 0, 84, 57
2, 348800, Note_off_c, 0, 84, 64
2, 348960, Note_on_c, 0, 84, 61
2, 349280, Note_off_c, 0, 84, 64
2, 349440, Note_on_c, 0, 84, 65
2, 349760, Note_off_c, 0, 84, 64
2, 349920, Note_on_c, 0, 84, 69
2, 350240, Note_off_c, 0, 84, 64
2, 350400, Note_on_c, 0, 84, 73
2, 350720, Note_off_c, 0, 84, 64
2, 350880, Note_on_c, 0, 84, 76
2, 351200, Note_off_c, 0, 84, 64
2, 351360, Note_on_c, 0, 84, 80
2, 351680, Note_off_c, 0, 84, 64
2, 351840, Note_on_c, 0, 84, 84
2, 352160, Note_off_c, 0, 84, 64
2, 352320, Note_on_c, 0, 84, 88
2, 352640, Note_off_c, 0, 84, 64
2, 352800, Note_on_c, 0, 84, 92
2, 352800, Note_on_c, 0, 72, 92
2, 353120, Note_off_c, 0, 72, 64
2, 353120, Note_off_c, 0, 84, 64
2, 353280, Note_on_c, 0, 89, 92
2, 353280, Note_on_c, 0, 77, 92
2, 353600, Note_off_c, 0, 77, 64
2, 353600, Note_off_c, 0, 89, 64
2, 353760, Note_on_c, 0, 84, 92
2, 353760, Note_on_c, 0, 72, 92
2, 354080, Note_off_c, 0, 72, 64
2, 354080, Note_off_c, 0, 84, 64
2, 354240, Note_on_c, 0, 86, 92
2, 354240, Note_on_c, 0, 74, 92
2, 354560, Note_off_c, 0, 74, 64
2, 354560, Note_off_c, 0, 86, 64
2, 354720, Note_on_c, 0, 84, 92
2, 354720, Note_on_c, 0, 72, 92
2, 355040, Note_off_c, 0, 72, 64
2, 355040, Note_off_c, 0, 84, 64
2, 355200, Note_on_c, 0, 81, 92
2, 355200, Note_on_c, 0, 69, 92
2, 355520, Note_off_c, 0, 69, 64
2, 355520, Note_off_c, 0, 81, 64
2, 355680, Note_on_c, 0, 82, 92
2, 355680, Note_on_c, 0, 70, 92
2, 356000, Note_off_c, 0, 70, 64
2, 356000, Note_off_c, 0, 82, 64
2, 356160, Note_on_c, 0, 69, 121
2, 356160, Note_on_c, 0, 81, 120
2, 356480, Note_off_c, 0, 81, 64
2, 356480, Note_off_c, 0, 69, 64
2, 356640, Note_on_c, 0, 65, 92
2, 356640, Note_on_c, 0, 77, 92
2, 356960, Note_off_c, 0, 77, 64
2, 356960, Note_off_c, 0, 65, 64
2, 357120, Note_on_c, 0, 67, 92
2, 357120, Note_on_c, 0, 79, 92
2, 357440, Note_off_c, 0, 79, 64
2, 357440, Note_off_c, 0, 67, 64
2, 357600, Note_on_c, 0, 69, 120
2, 357600, Note_on_c, 0, 81, 119
2, 357920, Note_off_c, 0, 81, 64
2, 357920, Note_off_c, 0, 69, 64
2, 358080, Note_on_c, 0, 65, 92
2, 358080, Note_on_c, 0, 77, 92
2, 358400, Note_off_c, 0, 77, 64
2, 358400, Note_off_c, 0, 65, 64
2, 358560, Note_on_c, 0, 67, 92
2, 358560, Note_on_c, 0, 79, 92
2, 358880, Note_off_c, 0, 79, 64
2, 358880, Note_off_c, 0, 67, 64
2, 359040, Note_on_c, 0, 69, 120
2, 359040, Note_on_c, 0, 81, 120
2, 359360, Note_off_c, 0, 81, 64
2, 359360, Note_off_c, 0, 69, 64
2, 359520, Note_on_c, 0, 77, 92
2, 359840, Note_off_c, 0, 77, 64
2, 360000, Note_on_c, 0, 79, 92
2, 360320, Note_off_c, 0, 79, 64
2, 360480, Note_on_c, 0, 81, 123
2, 360800, Note_off_c, 0, 81, 64
2, 360960, Note_on_c, 0, 77, 92
2, 361280, Note_off_c, 0, 77, 64
2, 361440, Note_on_c, 0, 79, 92
2, 361760, Note_off_c, 0, 79, 64
2, 361920, Note_on_c, 0, 81, 119
2, 362880, Note_off_c, 0, 81, 64
2, 363360, Note_on_c, 0, 79, 92
2, 363400, Note_off_c, 0, 79, 64
2, 363400, Note_on_c, 0, 81, 92
2, 363440, Note_off_c, 0, 81, 64
2, 363440, Note_on_c, 0, 79, 92
2, 363900, Note_off_c, 0, 79, 64
2, 364320, Note_on_c, 0, 77, 92
2, 364640, Note_off_c, 0, 77, 64
2, 364800, Note_on_c, 0, 76, 92
2, 364840, Note_off_c, 0, 76, 64
2, 364840, Note_on_c, 0, 77, 92
2, 364880, Note_off_c, 0, 77, 64
2, 364880, Note_on_c, 0, 76, 92
2, 365340, Note_off_c, 0, 76, 64
2, 365760, Note_on_c, 0, 74, 92
2, 366080, Note_off_c, 0, 74, 64
2, 366240, Note_on_c, 0, 72, 92
2, 366880, Note_off_c, 0, 72, 64
2, 367200, Note_on_c, 0, 76, 92
2, 367520, Note_off_c, 0, 76, 64
2, 367680, Note_on_c, 0, 77, 111
2, 368890, Note_off_c, 0, 77, 64
2, 369120, Note_on_c, 0, 77, 115
2, 369120, Note_on_c, 0, 79, 109
2, 370300, Note_off_c, 0, 77, 64
2, 370340, Note_off_c, 0, 79, 64
2, 370560, Note_on_c, 0, 77, 113
2, 370560, Note_on_c, 0, 81, 112
2, 371750, Note_off_c, 0, 81, 64
2, 371764, Note_off_c, 0, 77, 64
2, 372000, Note_on_c, 0, 79, 108
2, 372000, Note_on_c, 0, 76, 111
2, 373170, Note_off_c, 0, 76, 64
2, 373190, Note_off_c, 0, 79, 64
2, 373440, Note_on_c, 0, 81, 92
2, 373440, Note_on_c, 0, 77, 92
2, 373760, Note_off_c, 0, 77, 64
2, 373760, Note_off_c, 0, 81, 64
2, 374400, Note_on_c, 0, 81, 92
2, 374400, Note_on_c, 0, 93, 92
2, 374720, Note_off_c, 0, 93, 64
2, 374720, Note_off_c, 0, 81, 64
2, 374880, Note_on_c, 0, 91, 92
2, 374880, Note_on_c, 0, 79, 92
2, 375520, Note_off_c, 0, 79, 64
2, 375520, Note_off_c, 0, 91, 64
2, 375840, Note_on_c, 0, 77, 92
2, 375840, Note_on_c, 0, 89, 92
2, 376160, Note_off_c, 0, 89, 64
2, 376160, Note_off_c, 0, 77, 64
2, 376320, Note_on_c, 0, 76, 92
2, 376320, Note_on_c, 0, 88, 92
2, 376960, Note_off_c, 0, 88, 64
2, 376960, Note_off_c, 0, 76, 64
2, 377280, Note_on_c, 0, 74, 92
2, 377280, Note_on_c, 0, 86, 92
2, 377600, Note_off_c, 0, 86, 64
2, 377600, Note_off_c, 0, 74, 64
2, 377760, Note_on_c, 0, 72, 92
2, 377760, Note_on_c, 0, 84, 92
2, 378400, Note_off_c, 0, 84, 64
2, 378400, Note_off_c, 0, 72, 64
2, 378720, Note_on_c, 0, 84, 92
2, 378720, Note_on_c, 0, 88, 92
2, 379040, Note_off_c, 0, 88, 64
2, 379040, Note_off_c, 0, 84, 64
2, 379200, Note_on_c, 0, 89, 92
2, 379200, Note_on_c, 0, 77, 92
2, 380294, Note_off_c, 0, 77, 64
2, 380314, Note_off_c, 0, 89, 64
2, 380640, Note_on_c, 0, 89, 92
2, 380640, Note_on_c, 0, 86, 92
2, 381730, Note_off_c, 0, 89, 64
2, 381734, Note_off_c, 0, 86, 64
2, 382080, Note_on_c, 0, 89, 92
2, 382080, Note_on_c, 0, 84, 92
2, 383154, Note_off_c, 0, 89, 64
2, 383184, Note_off_c, 0, 84, 64
2, 383520, Note_on_c, 0, 84, 92
2, 383520, Note_on_c, 0, 88, 92
2, 384624, Note_off_c, 0, 88, 64
2, 384624, Note_off_c, 0, 84, 64
2, 384960, Note_on_c, 0, 89, 92
2, 384960, Note_on_c, 0, 84, 92
2, 385280, Note_off_c, 0, 84, 64
2, 385280, Note_off_c, 0, 89, 64
2, 389280, Note_on_c, 0, 84, 103
2, 389280, Note_on_c, 0, 88, 103
2, 389600, Note_off_c, 0, 88, 64
2, 389600, Note_off_c, 0, 84, 64
2, 389760, Note_on_c, 0, 84, 92
2, 389760, Note_on_c, 0, 88, 92
2, 390080, Note_off_c, 0, 88, 64
2, 390080, Note_off_c, 0, 84, 64
2, 390240, Note_on_c, 0, 84, 92
2, 390240, Note_on_c, 0, 88, 92
2, 390560, Note_off_c, 0, 88, 64
2, 390560, Note_off_c, 0, 84, 64
2, 390720, Note_on_c, 0, 84, 105
2, 390720, Note_on_c, 0, 89, 105
2, 391040, Note_off_c, 0, 89, 64
2, 391040, Note_off_c, 0, 84, 64
2, 395040, Note_on_c, 0, 84, 103
2, 395040, Note_on_c, 0, 88, 102
2, 395360, Note_off_c, 0, 88, 64
2, 395360, Note_off_c, 0, 84, 64
2, 395520, Note_on_c, 0, 84, 92
2, 395520, Note_on_c, 0, 88, 92
2, 395840, Note_off_c, 0, 88, 64
2, 395840, Note_off_c, 0, 84, 64
2, 396000, Note_on_c, 0, 84, 92
2, 396000, Note_on_c, 0, 88, 92
2, 396320, Note_off_c, 0, 88, 64
2, 396320, Note_off_c, 0, 84, 64
2, 396480, Note_on_c, 0, 84, 108
2, 396480, Note_on_c, 0, 89, 107
2, 396800, Note_off_c, 0, 89, 64
2, 396800, Note_off_c, 0, 84, 64
2, 399360, Note_on_c, 0, 84, 93
2, 399360, Note_on_c, 0, 89, 92
2, 399680, Note_off_c, 0, 89, 64
2, 399680, Note_off_c, 0, 84, 64
2, 522240, Note_on_c, 0, 77, 85
2, 522400, Note_off_c, 0, 77, 64
2, 522400, Note_on_c, 0, 81, 85
2, 522560, Note_off_c, 0, 81, 64
2, 522564, Note_on_c, 0, 82, 85
2, 522720, Note_on_c, 0, 84, 85
2, 522724, Note_off_c, 0, 82, 64
2, 523194, Note_off_c, 0, 84, 64
2, 523200, Note_on_c, 0, 77, 85
2, 523360, Note_off_c, 0, 77, 64
2, 523360, Note_on_c, 0, 81, 85
2, 523520, Note_off_c, 0, 81, 64
2, 523524, Note_on_c, 0, 82, 83
2, 523680, Note_on_c, 0, 84, 85
2, 523684, Note_off_c, 0, 82, 64
2, 524154, Note_off_c, 0, 84, 64
2, 524160, Note_on_c, 0, 82, 85
2, 524160, Note_on_c, 0, 77, 85
2, 524320, Note_off_c, 0, 77, 64
2, 524320, Note_on_c, 0, 82, 85
2, 524480, Note_off_c, 0, 82, 64
2, 524484, Note_on_c, 0, 84, 85
2, 524640, Note_off_c, 0, 82, 64
2, 524640, Note_on_c, 0, 86, 85
2, 524644, Note_off_c, 0, 84, 64
2, 525114, Note_off_c, 0, 86, 64
2, 525120, Note_on_c, 0, 84, 85
2, 525120, Note_on_c, 0, 81, 83
2, 525554, Note_off_c, 0, 81, 64
2, 525554, Note_off_c, 0, 84, 64
2, 525600, Note_on_c, 0, 82, 85
2, 525920, Note_off_c, 0, 82, 64
2, 526080, Note_on_c, 0, 77, 85
2, 526240, Note_off_c, 0, 77, 64
2, 526240, Note_on_c, 0, 81, 85
2, 526400, Note_off_c, 0, 81, 64
2, 526404, Note_on_c, 0, 82, 85
2, 526560, Note_on_c, 0, 84, 85
2, 526564, Note_off_c, 0, 82, 64
2, 527034, Note_off_c, 0, 84, 64
2, 527040, Note_on_c, 0, 77, 85
2, 527200, Note_off_c, 0, 77, 64
2, 527200, Note_on_c, 0, 81, 85
2, 527360, Note_off_c, 0, 81, 64
2, 527364, Note_on_c, 0, 82, 85
2, 527520, Note_on_c, 0, 84, 85
2, 527524, Note_off_c, 0, 82, 64
2, 527994, Note_off_c, 0, 84, 64
2, 528000, Note_on_c, 0, 82, 85
2, 528000, Note_on_c, 0, 77, 85
2, 528160, Note_off_c, 0, 77, 64
2, 528160, Note_on_c, 0, 82, 85
2, 528320, Note_off_c, 0, 82, 64
2, 528324, Note_on_c, 0, 84, 85
2, 528480, Note_off_c, 0, 82, 64
2, 528480, Note_on_c, 0, 86, 85
2, 528484, Note_off_c, 0, 84, 64
2, 528954, Note_off_c, 0, 86, 64
2, 528960, Note_on_c, 0, 84, 85
2, 528960, Note_on_c, 0, 81, 83
2, 529394, Note_off_c, 0, 81, 64
2, 529394, Note_off_c, 0, 84, 64
2, 529440, Note_on_c, 0, 82, 85
2, 529914, Note_off_c, 0, 82, 64
2, 531840, Note_on_c, 0, 84, 85
2, 531840, Note_on_c, 0, 89, 85
2, 532480, Note_off_c, 0, 89, 64
2, 532480, Note_off_c, 0, 84, 64
2, 532800, Note_on_c, 0, 84, 85
2, 532800, Note_on_c, 0, 88, 85
2, 533274, Note_off_c, 0, 88, 64
2, 533274, Note_off_c, 0, 84, 64
2, 533280, Note_on_c, 0, 84, 85
2, 533280, Note_on_c, 0, 89, 85
2, 533570, Note_off_c, 0, 89, 64
2, 533570, Note_off_c, 0, 84, 64
2, 535680, Note_on_c, 0, 84, 85
2, 535680, Note_on_c, 0, 89, 85
2, 536320, Note_off_c, 0, 89, 64
2, 536320, Note_off_c, 0, 84, 64
2, 536640, Note_on_c, 0, 84, 85
2, 536640, Note_on_c, 0, 88, 85
2, 537114, Note_off_c, 0, 88, 64
2, 537114, Note_off_c, 0, 84, 64
2, 537120, Note_on_c, 0, 84, 85
2, 537120, Note_on_c, 0, 89, 85
2, 537410, Note_off_c, 0, 89, 64
2, 537410, Note_off_c, 0, 84, 64
2, 539280, Note_on_c, 0, 89, 90
2, 539280, Note_on_c, 0, 93, 90
2, 539440, Note_off_c, 0, 93, 64
2, 539440, Note_off_c, 0, 89, 64
2, 539520, Note_on_c, 0, 91, 90
2, 539520, Note_on_c, 0, 88, 90
2, 539680, Note_off_c, 0, 88, 64
2, 539680, Note_off_c, 0, 91, 64
2, 540000, Note_on_c, 0, 89, 90
2, 540000, Note_on_c, 0, 86, 90
2, 540160, Note_off_c, 0, 86, 64
2, 540160, Note_off_c, 0, 89, 64
2, 540480, Note_on_c, 0, 88, 91
2, 540480, Note_on_c, 0, 84, 91
2, 540640, Note_off_c, 0, 84, 64
2, 540640, Note_off_c, 0, 88, 64
2, 540960, Note_on_c, 0, 86, 92
2, 540960, Note_on_c, 0, 83, 92
2, 541120, Note_off_c, 0, 83, 64
2, 541120, Note_off_c, 0, 86, 64
2, 541440, Note_on_c, 0, 84, 92
2, 541600, Note_off_c, 0, 84, 64
2, 543120, Note_on_c, 0, 93, 94
2, 543120, Note_on_c, 0, 89, 94
2, 543280, Note_off_c, 0, 89, 64
2, 543280, Note_off_c, 0, 93, 64
2, 543600, Note_on_c, 0, 91, 95
2, 543600, Note_on_c, 0, 88, 95
2, 543760, Note_off_c, 0, 88, 64
2, 543760, Note_off_c, 0, 91, 64
2, 544080, Note_on_c, 0, 89, 95
2, 544080, Note_on_c, 0, 86, 95
2, 544240, Note_off_c, 0, 86, 64
2, 544240, Note_off_c, 0, 89, 64
2, 544560, Note_on_c, 0, 88, 92
2, 544560, Note_on_c, 0, 84, 92
2, 544720, Note_off_c, 0, 84, 64
2, 544720, Note_off_c, 0, 88, 64
2, 545040, Note_on_c, 0, 86, 94
2, 545040, Note_on_c, 0, 83, 94
2, 545200, Note_off_c, 0, 83, 64
2, 545200, Note_off_c, 0, 86, 64
2, 545280, Note_on_c, 0, 84, 94
2, 545280, Note_on_c, 0, 76, 94
2, 545760, Note_off_c, 0, 76, 64
2, 545760, Note_off_c, 0, 84, 64
2, 546000, Note_on_c, 0, 84, 97
2, 546000, Note_on_c, 0, 76, 97
2, 546160, Note_off_c, 0, 76, 64
2, 546160, Note_off_c, 0, 84, 64
2, 546240, Note_on_c, 0, 84, 97
2, 546240, Note_on_c, 0, 76, 97
2, 546720, Note_off_c, 0, 76, 64
2, 546720, Note_off_c, 0, 84, 64
2, 546960, Note_on_c, 0, 84, 99
2, 546960, Note_on_c, 0, 76, 99
2, 547120, Note_off_c, 0, 76, 64
2, 547120, Note_off_c, 0, 84, 64
2, 547200, Note_on_c, 0, 84, 100
2, 547200, Note_on_c, 0, 76, 100
2, 547680, Note_off_c, 0, 76, 64
2, 547680, Note_off_c, 0, 84, 64
2, 547920, Note_on_c, 0, 84, 102
2, 547920, Note_on_c, 0, 76, 102
2, 548080, Note_off_c, 0, 76, 64
2, 548080, Note_off_c, 0, 84, 64
2, 548160, Note_on_c, 0, 84, 103
2, 548160, Note_on_c, 0, 76, 103
2, 548640, Note_off_c, 0, 76, 64
2, 548640, Note_off_c, 0, 84, 64
2, 548880, Note_on_c, 0, 84, 105
2, 548880, Note_on_c, 0, 76, 105
2, 549040, Note_off_c, 0, 76, 64
2, 549040, Note_off_c, 0, 84, 64
2, 549120, Note_on_c, 0, 84, 106
2, 549120, Note_on_c, 0, 76, 106
2, 549280, Note_off_c, 0, 76, 64
2, 549280, Note_off_c, 0, 84, 64
2, 549360, Note_on_c, 0, 84, 107
2, 549360, Note_on_c, 0, 76, 107
2, 549520, Note_off_c, 0, 76, 64
2, 549520, Note_off_c, 0, 84, 64
2, 549600, Note_on_c, 0, 84, 107
2, 549600, Note_on_c, 0, 76, 107
2, 549760, Note_off_c, 0, 76, 64
2, 549760, Note_off_c, 0, 84, 64
2, 549840, Note_on_c, 0, 88, 108
2, 549840, Note_on_c, 0, 84, 108
2, 550000, Note_off_c, 0, 84, 64
2, 550000, Note_off_c, 0, 88, 64
2, 550080, Note_on_c, 0, 88, 109
2, 550080, Note_on_c, 0, 84, 109
2, 550240, Note_off_c, 0, 84, 64
2, 550240, Note_off_c, 0, 88, 64
2, 550320, Note_on_c, 0, 88, 109
2, 550320, Note_on_c, 0, 84, 109
2, 550480, Note_off_c, 0, 84, 64
2, 550480, Note_off_c, 0, 88, 64
2, 550560, Note_on_c, 0, 88, 110
2, 550560, Note_on_c, 0, 84, 110
2, 550720, Note_off_c, 0, 84, 64
2, 550720, Note_off_c, 0, 88, 64
2, 550800, Note_on_c, 0, 88, 111
2, 550800, Note_on_c, 0, 84, 111
2, 550960, Note_off_c, 0, 84, 64
2, 550960, Note_off_c, 0, 88, 64
2, 551040, Note_on_c, 0, 88, 112
2, 551040, Note_on_c, 0, 84, 112
2, 551200, Note_off_c, 0, 84, 64
2, 551200, Note_off_c, 0, 88, 64
2, 552000, Note_on_c, 0, 84, 63
2, 552000, Note_on_c, 0, 76, 66
2, 552320, Note_off_c, 0, 76, 64
2, 552320, Note_off_c, 0, 84, 64
2, 580800, Note_on_c, 0, 72, 64
2, 581256, Note_off_c, 0, 72, 64
2, 581280, Note_on_c, 0, 77, 64
2, 582216, Note_off_c, 0, 77, 64
2, 582240, Note_on_c, 0, 81, 64
2, 582696, Note_off_c, 0, 81, 64
2, 582720, Note_on_c, 0, 84, 64
2, 583176, Note_off_c, 0, 84, 64
2, 583200, Note_on_c, 0, 81, 64
2, 583656, Note_off_c, 0, 81, 64
2, 583680, Note_on_c, 0, 81, 64
2, 584136, Note_off_c, 0, 81, 64
2, 584160, Note_on_c, 0, 84, 64
2, 584616, Note_off_c, 0, 84, 64
2, 584640, Note_on_c, 0, 88, 64
2, 585096, Note_off_c, 0, 88, 64
2, 585120, Note_on_c, 0, 89, 64
2, 585348, Note_off_c, 0, 89, 64
2, 585360, Note_on_c, 0, 86, 64
2, 585588, Note_off_c, 0, 86, 64
2, 585600, Note_on_c, 0, 84, 64
2, 586536, Note_off_c, 0, 84, 64
2, 586560, Note_on_c, 0, 88, 64
2, 587016, Note_off_c, 0, 88, 64
2, 587040, Note_on_c, 0, 89, 64
2, 587496, Note_off_c, 0, 89, 64
2, 587520, Note_on_c, 0, 84, 64
2, 587976, Note_off_c, 0, 84, 64
2, 588000, Note_on_c, 0, 86, 64
2, 588456, Note_off_c, 0, 86, 64
2, 588480, Note_on_c, 0, 84, 64
2, 588936, Note_off_c, 0, 84, 64
2, 588960, Note_on_c, 0, 81, 64
2, 589416, Note_off_c, 0, 81, 64
2, 589440, Note_on_c, 0, 82, 64
2, 589896, Note_off_c, 0, 82, 64
2, 589920, Note_on_c, 0, 81, 64
2, 590376, Note_off_c, 0, 81, 64
2, 590400, Note_on_c, 0, 77, 64
2, 590856, Note_off_c, 0, 77, 64
2, 590880, Note_on_c, 0, 79, 64
2, 591336, Note_off_c, 0, 79, 64
2, 591360, Note_on_c, 0, 81, 64
2, 591816, Note_off_c, 0, 81, 64
2, 591840, Note_on_c, 0, 77, 64
2, 592296, Note_off_c, 0, 77, 64
2, 598080, Note_on_c, 0, 72, 100
2, 598080, Note_on_c, 0, 84, 100
2, 598194, Note_off_c, 0, 84, 64
2, 598194, Note_off_c, 0, 72, 64
2, 598560, Note_on_c, 0, 77, 100
2, 598560, Note_on_c, 0, 89, 100
2, 598674, Note_off_c, 0, 89, 64
2, 598674, Note_off_c, 0, 77, 64
2, 599040, Note_on_c, 0, 84, 100
2, 599040, Note_on_c, 0, 72, 100
2, 599154, Note_off_c, 0, 72, 64
2, 599154, Note_off_c, 0, 84, 64
2, 599520, Note_on_c, 0, 86, 100
2, 599520, Note_on_c, 0, 74, 100
2, 599634, Note_off_c, 0, 74, 64
2, 599634, Note_off_c, 0, 86, 64
2, 600000, Note_on_c, 0, 72, 100
2, 600000, Note_on_c, 0, 84, 100
2, 600136, Note_off_c, 0, 84, 64
2, 600136, Note_off_c, 0, 72, 64
2, 600480, Note_on_c, 0, 69, 100
2, 600480, Note_on_c, 0, 81, 100
2, 600616, Note_off_c, 0, 81, 64
2, 600616, Note_off_c, 0, 69, 64
2, 600960, Note_on_c, 0, 70, 100
2, 600960, Note_on_c, 0, 82, 100
2, 601096, Note_off_c, 0, 82, 64
2, 601096, Note_off_c, 0, 70, 64
2, 601440, Note_on_c, 0, 81, 127
2, 601440, Note_on_c, 0, 69, 127
2, 601668, Note_off_c, 0, 69, 64
2, 601668, Note_off_c, 0, 81, 64
2, 601920, Note_on_c, 0, 77, 100
2, 601920, Note_on_c, 0, 65, 100
2, 602148, Note_off_c, 0, 65, 64
2, 602148, Note_off_c, 0, 77, 64
2, 602400, Note_on_c, 0, 79, 100
2, 602400, Note_on_c, 0, 67, 100
2, 602628, Note_off_c, 0, 67, 64
2, 602628, Note_off_c, 0, 79, 64
2, 602880, Note_on_c, 0, 81, 127
2, 602880, Note_on_c, 0, 69, 127
2, 603108, Note_off_c, 0, 69, 64
2, 603108, Note_off_c, 0, 81, 64
2, 603360, Note_on_c, 0, 77, 100
2, 603360, Note_on_c, 0, 65, 100
2, 603588, Note_off_c, 0, 65, 64
2, 603588, Note_off_c, 0, 77, 64
2, 603840, Note_on_c, 0, 79, 100
2, 603840, Note_on_c, 0, 67, 100
2, 604068, Note_off_c, 0, 67, 64
2, 604068, Note_off_c, 0, 79, 64
2, 604320, Note_on_c, 0, 81, 127
2, 604320, Note_on_c, 0, 69, 127
2, 604548, Note_off_c, 0, 69, 64
2, 604548, Note_off_c, 0, 81, 64
2, 604800, Note_on_c, 0, 77, 100
2, 605028, Note_off_c, 0, 77, 64
2, 605280, Note_on_c, 0, 79, 100
2, 605508, Note_off_c, 0, 79, 64
2, 605760, Note_on_c, 0, 81, 127
2, 605988, Note_off_c, 0, 81, 64
2, 606240, Note_on_c, 0, 77, 100
2, 606468, Note_off_c, 0, 77, 64
2, 606720, Note_on_c, 0, 79, 100
2, 606948, Note_off_c, 0, 79, 64
2, 607200, Note_on_c, 0, 81, 127
2, 608332, Note_off_c, 0, 81, 64
2, 608526, Note_on_c, 0, 79, 100
2, 608610, Note_on_c, 0, 81, 100
2, 608638, Note_off_c, 0, 79, 64
2, 608640, Note_on_c, 0, 79, 100
2, 608722, Note_off_c, 0, 81, 64
2, 609388, Note_off_c, 0, 79, 64
2, 609600, Note_on_c, 0, 77, 100
2, 609874, Note_off_c, 0, 77, 64
2, 610020, Note_on_c, 0, 76, 100
2, 610048, Note_off_c, 0, 76, 64
2, 610050, Note_on_c, 0, 77, 100
2, 610078, Note_off_c, 0, 77, 64
2, 610080, Note_on_c, 0, 76, 100
2, 610828, Note_off_c, 0, 76, 64
2, 611040, Note_on_c, 0, 74, 100
2, 611314, Note_off_c, 0, 74, 64
2, 611520, Note_on_c, 0, 72, 100
2, 612344, Note_off_c, 0, 72, 64
2, 612480, Note_on_c, 0, 76, 100
2, 612772, Note_off_c, 0, 76, 64
2, 612960, Note_on_c, 0, 77, 120
2, 613896, Note_off_c, 0, 77, 64
2, 614400, Note_on_c, 0, 77, 120
2, 614400, Note_on_c, 0, 79, 120
2, 615336, Note_off_c, 0, 79, 64
2, 615336, Note_off_c, 0, 77, 64
2, 615840, Note_on_c, 0, 77, 120
2, 615840, Note_on_c, 0, 81, 120
2, 616776, Note_off_c, 0, 81, 64
2, 616776, Note_off_c, 0, 77, 64
2, 617280, Note_on_c, 0, 76, 120
2, 617280, Note_on_c, 0, 79, 120
2, 618216, Note_off_c, 0, 79, 64
2, 618216, Note_off_c, 0, 76, 64
2, 618720, Note_on_c, 0, 81, 110
2, 618720, Note_on_c, 0, 77, 110
2, 619054, Note_off_c, 0, 77, 64
2, 619054, Note_off_c, 0, 81, 64
2, 619680, Note_on_c, 0, 81, 100
2, 619680, Note_on_c, 0, 93, 100
2, 619908, Note_off_c, 0, 93, 64
2, 619908, Note_off_c, 0, 81, 64
2, 620160, Note_on_c, 0, 91, 100
2, 620160, Note_on_c, 0, 79, 100
2, 620868, Note_off_c, 0, 79, 64
2, 620868, Note_off_c, 0, 91, 64
2, 621120, Note_on_c, 0, 77, 100
2, 621120, Note_on_c, 0, 89, 100
2, 621348, Note_off_c, 0, 89, 64
2, 621348, Note_off_c, 0, 77, 64
2, 621600, Note_on_c, 0, 88, 100
2, 621600, Note_on_c, 0, 76, 100
2, 622308, Note_off_c, 0, 76, 64
2, 622308, Note_off_c, 0, 88, 64
2, 622560, Note_on_c, 0, 86, 100
2, 622560, Note_on_c, 0, 74, 100
2, 622788, Note_off_c, 0, 74, 64
2, 622788, Note_off_c, 0, 86, 64
2, 623040, Note_on_c, 0, 84, 100
2, 623040, Note_on_c, 0, 72, 100
2, 623976, Note_off_c, 0, 72, 64
2, 623976, Note_off_c, 0, 84, 64
2, 624000, Note_on_c, 0, 84, 100
2, 624000, Note_on_c, 0, 88, 100
2, 624228, Note_off_c, 0, 88, 64
2, 624228, Note_off_c, 0, 84, 64
2, 624480, Note_on_c, 0, 89, 100
2, 624480, Note_on_c, 0, 77, 100
2, 625416, Note_off_c, 0, 77, 64
2, 625416, Note_off_c, 0, 89, 64
2, 625920, Note_on_c, 0, 89, 100
2, 625920, Note_on_c, 0, 86, 100
2, 626856, Note_off_c, 0, 86, 64
2, 626856, Note_off_c, 0, 89, 64
2, 627360, Note_on_c, 0, 89, 100
2, 627360, Note_on_c, 0, 84, 100
2, 628296, Note_off_c, 0, 84, 64
2, 628296, Note_off_c, 0, 89, 64
2, 628800, Note_on_c, 0, 88, 100
2, 628800, Note_on_c, 0, 84, 100
2, 629736, Note_off_c, 0, 84, 64
2, 629736, Note_off_c, 0, 88, 64
2, 630240, Note_on_c, 0, 89, 100
2, 630240, Note_on_c, 0, 84, 100
2, 630696, Note_off_c, 0, 84, 64
2, 630696, Note_off_c, 0, 89, 64
2, 634560, Note_on_c, 0, 88, 100
2, 634560, Note_on_c, 0, 84, 100
2, 634788, Note_off_c, 0, 84, 64
2, 634788, Note_off_c, 0, 88, 64
2, 635040, Note_on_c, 0, 88, 100
2, 635040, Note_on_c, 0, 84, 100
2, 635268, Note_off_c, 0, 84, 64
2, 635268, Note_off_c, 0, 88, 64
2, 635520, Note_on_c, 0, 84, 100
2, 635520, Note_on_c, 0, 88, 100
2, 635748, Note_off_c, 0, 88, 64
2, 635748, Note_off_c, 0, 84, 64
2, 636000, Note_on_c, 0, 89, 100
2, 636000, Note_on_c, 0, 84, 100
2, 636456, Note_off_c, 0, 84, 64
2, 636456, Note_off_c, 0, 89, 64
2, 640320, Note_on_c, 0, 88, 90
2, 640320, Note_on_c, 0, 84, 90
2, 640548, Note_off_c, 0, 84, 64
2, 640548, Note_off_c, 0, 88, 64
2, 640800, Note_on_c, 0, 88, 90
2, 640800, Note_on_c, 0, 84, 90
2, 641028, Note_off_c, 0, 84, 64
2, 641028, Note_off_c, 0, 88, 64
2, 641280, Note_on_c, 0, 84, 90
2, 641280, Note_on_c, 0, 88, 90
2, 641554, Note_off_c, 0, 88, 64
2, 641554, Note_off_c, 0, 84, 64
2, 641554, End_track
3, 0, Start_track
3, 0, Title_t, "Oboe"
3, 0, MIDI_port, 0
3, 0, Channel_prefix, 1
3, 0, Control_c, 1, 7, 99
3, 0, Control_c, 1, 10, 41
3, 0, Control_c, 1, 0, 0
3, 0, Control_c, 1, 32, 0
3, 0, Control_c, 1, 91, 51
3, 0, Program_c, 1, 68
3, 19200, Note_on_c, 1, 78, 54
3, 19520, Note_off_c, 1, 78, 64
3, 19680, Note_on_c, 1, 79, 54
3, 20000, Note_off_c, 1, 79, 64
3, 20160, Note_on_c, 1, 78, 54
3, 20480, Note_off_c, 1, 78, 64
3, 20640, Note_on_c, 1, 74, 54
3, 20960, Note_off_c, 1, 74, 64
3, 21120, Note_on_c, 1, 74, 54
3, 21920, Note_off_c, 1, 74, 64
3, 22080, Note_on_c, 1, 74, 54
3, 22400, Note_off_c, 1, 74, 64
3, 22560, Note_on_c, 1, 73, 54
3, 22880, Note_off_c, 1, 73, 64
3, 23040, Note_on_c, 1, 74, 54
3, 23360, Note_off_c, 1, 74, 64
3, 42240, Note_on_c, 1, 78, 54
3, 42560, Note_off_c, 1, 78, 64
3, 42720, Note_on_c, 1, 79, 54
3, 43040, Note_off_c, 1, 79, 64
3, 43200, Note_on_c, 1, 78, 54
3, 43520, Note_off_c, 1, 78, 64
3, 43680, Note_on_c, 1, 74, 54
3, 44000, Note_off_c, 1, 74, 64
3, 44160, Note_on_c, 1, 74, 54
3, 44960, Note_off_c, 1, 74, 64
3, 45120, Note_on_c, 1, 74, 54
3, 45440, Note_off_c, 1, 74, 64
3, 45600, Note_on_c, 1, 73, 54
3, 45920, Note_off_c, 1, 73, 64
3, 46080, Note_on_c, 1, 74, 54
3, 46400, Note_off_c, 1, 74, 64
3, 49920, Note_on_c, 1, 79, 34
3, 50080, Note_off_c, 1, 79, 64
3, 50400, Note_on_c, 1, 78, 34
3, 50560, Note_off_c, 1, 78, 64
3, 50880, Note_on_c, 1, 74, 34
3, 51040, Note_off_c, 1, 74, 64
3, 51360, Note_on_c, 1, 76, 34
3, 51520, Note_off_c, 1, 76, 64
3, 51840, Note_on_c, 1, 78, 34
3, 52000, Note_off_c, 1, 78, 64
3, 52320, Note_on_c, 1, 74, 34
3, 52480, Note_off_c, 1, 74, 64
3, 58560, Note_on_c, 1, 67, 60
3, 58880, Note_off_c, 1, 67, 64
3, 59040, Note_on_c, 1, 72, 60
3, 59680, Note_off_c, 1, 72, 64
3, 60000, Note_on_c, 1, 76, 60
3, 60320, Note_off_c, 1, 76, 64
3, 60480, Note_on_c, 1, 79, 60
3, 60800, Note_off_c, 1, 79, 64
3, 60960, Note_on_c, 1, 76, 60
3, 61280, Note_off_c, 1, 76, 64
3, 61440, Note_on_c, 1, 76, 60
3, 61760, Note_off_c, 1, 76, 64
3, 61920, Note_on_c, 1, 79, 60
3, 62240, Note_off_c, 1, 79, 64
3, 62400, Note_on_c, 1, 83, 60
3, 62720, Note_off_c, 1, 83, 64
3, 62880, Note_on_c, 1, 84, 60
3, 63040, Note_off_c, 1, 84, 64
3, 63120, Note_on_c, 1, 81, 60
3, 63280, Note_off_c, 1, 81, 64
3, 63360, Note_on_c, 1, 79, 60
3, 64000, Note_off_c, 1, 79, 64
3, 64320, Note_on_c, 1, 83, 60
3, 64640, Note_off_c, 1, 83, 64
3, 64800, Note_on_c, 1, 84, 60
3, 65120, Note_off_c, 1, 84, 64
3, 65280, Note_on_c, 1, 79, 60
3, 65600, Note_off_c, 1, 79, 64
3, 65760, Note_on_c, 1, 81, 60
3, 65760, Note_on_c, 1, 77, 60
3, 66080, Note_off_c, 1, 77, 64
3, 66080, Note_off_c, 1, 81, 64
3, 66240, Note_on_c, 1, 79, 60
3, 66240, Note_on_c, 1, 76, 60
3, 66560, Note_off_c, 1, 76, 64
3, 66560, Note_off_c, 1, 79, 64
3, 66720, Note_on_c, 1, 76, 60
3, 66720, Note_on_c, 1, 72, 60
3, 67040, Note_off_c, 1, 72, 64
3, 67040, Note_off_c, 1, 76, 64
3, 67200, Note_on_c, 1, 77, 60
3, 67200, Note_on_c, 1, 72, 60
3, 67520, Note_off_c, 1, 72, 64
3, 67520, Note_off_c, 1, 77, 64
3, 67680, Note_on_c, 1, 76, 60
3, 67680, Note_on_c, 1, 72, 60
3, 68000, Note_off_c, 1, 72, 64
3, 68000, Note_off_c, 1, 76, 64
3, 68160, Note_on_c, 1, 72, 60
3, 68160, Note_on_c, 1, 67, 60
3, 68480, Note_off_c, 1, 67, 64
3, 68480, Note_off_c, 1, 72, 64
3, 68640, Note_on_c, 1, 74, 60
3, 68640, Note_on_c, 1, 71, 60
3, 68960, Note_off_c, 1, 71, 64
3, 68960, Note_off_c, 1, 74, 64
3, 69120, Note_on_c, 1, 76, 60
3, 69120, Note_on_c, 1, 72, 60
3, 69440, Note_off_c, 1, 72, 64
3, 69440, Note_off_c, 1, 76, 64
3, 69600, Note_on_c, 1, 72, 64
3, 69600, Note_on_c, 1, 64, 64
3, 69920, Note_off_c, 1, 64, 64
3, 69920, Note_off_c, 1, 72, 64
3, 72960, Note_on_c, 1, 72, 69
3, 72960, Note_on_c, 1, 84, 69
3, 73280, Note_off_c, 1, 84, 64
3, 73280, Note_off_c, 1, 72, 64
3, 73440, Note_on_c, 1, 72, 73
3, 73440, Note_on_c, 1, 84, 73
3, 73760, Note_off_c, 1, 84, 64
3, 73760, Note_off_c, 1, 72, 64
3, 73920, Note_on_c, 1, 72, 76
3, 73920, Note_on_c, 1, 84, 76
3, 74240, Note_off_c, 1, 84, 64
3, 74240, Note_off_c, 1, 72, 64
3, 74400, Note_on_c, 1, 72, 80
3, 74400, Note_on_c, 1, 84, 80
3, 74720, Note_off_c, 1, 84, 64
3, 74720, Note_off_c, 1, 72, 64
3, 74880, Note_on_c, 1, 72, 84
3, 74880, Note_on_c, 1, 84, 84
3, 75200, Note_off_c, 1, 84, 64
3, 75200, Note_off_c, 1, 72, 64
3, 75360, Note_on_c, 1, 72, 88
3, 75360, Note_on_c, 1, 84, 88
3, 75680, Note_off_c, 1, 84, 64
3, 75680, Note_off_c, 1, 72, 64
3, 75840, Note_on_c, 1, 72, 92
3, 76160, Note_off_c, 1, 72, 64
3, 76320, Note_on_c, 1, 77, 96
3, 76640, Note_off_c, 1, 77, 64
3, 76800, Note_on_c, 1, 72, 96
3, 77120, Note_off_c, 1, 72, 64
3, 77280, Note_on_c, 1, 74, 96
3, 77600, Note_off_c, 1, 74, 64
3, 77760, Note_on_c, 1, 72, 96
3, 78080, Note_off_c, 1, 72, 64
3, 78240, Note_on_c, 1, 69, 96
3, 78240, Note_on_c, 1, 81, 96
3, 78560, Note_off_c, 1, 81, 64
3, 78560, Note_off_c, 1, 69, 64
3, 78720, Note_on_c, 1, 70, 96
3, 78720, Note_on_c, 1, 82, 96
3, 79040, Note_off_c, 1, 82, 64
3, 79040, Note_off_c, 1, 70, 64
3, 79200, Note_on_c, 1, 81, 113
3, 79200, Note_on_c, 1, 69, 114
3, 79520, Note_off_c, 1, 69, 64
3, 79520, Note_off_c, 1, 81, 64
3, 79680, Note_on_c, 1, 65, 96
3, 79680, Note_on_c, 1, 77, 96
3, 80000, Note_off_c, 1, 77, 64
3, 80000, Note_off_c, 1, 65, 64
3, 80160, Note_on_c, 1, 67, 96
3, 80160, Note_on_c, 1, 79, 96
3, 80480, Note_off_c, 1, 79, 64
3, 80480, Note_off_c, 1, 67, 64
3, 80640, Note_on_c, 1, 81, 114
3, 80640, Note_on_c, 1, 69, 114
3, 80960, Note_off_c, 1, 69, 64
3, 80960, Note_off_c, 1, 81, 64
3, 81120, Note_on_c, 1, 65, 96
3, 81120, Note_on_c, 1, 77, 96
3, 81440, Note_off_c, 1, 77, 64
3, 81440, Note_off_c, 1, 65, 64
3, 81600, Note_on_c, 1, 67, 96
3, 81600, Note_on_c, 1, 79, 96
3, 81920, Note_off_c, 1, 79, 64
3, 81920, Note_off_c, 1, 67, 64
3, 82080, Note_on_c, 1, 81, 116
3, 82080, Note_on_c, 1, 69, 116
3, 82400, Note_off_c, 1, 69, 64
3, 82400, Note_off_c, 1, 81, 64
3, 82560, Note_on_c, 1, 65, 96
3, 82560, Note_on_c, 1, 77, 96
3, 82880, Note_off_c, 1, 77, 64
3, 82880, Note_off_c, 1, 65, 64
3, 83040, Note_on_c, 1, 67, 96
3, 83040, Note_on_c, 1, 79, 96
3, 83360, Note_off_c, 1, 79, 64
3, 83360, Note_off_c, 1, 67, 64
3, 83520, Note_on_c, 1, 81, 118
3, 83520, Note_on_c, 1, 69, 117
3, 83840, Note_off_c, 1, 69, 64
3, 83840, Note_off_c, 1, 81, 64
3, 84000, Note_on_c, 1, 65, 96
3, 84000, Note_on_c, 1, 77, 96
3, 84320, Note_off_c, 1, 77, 64
3, 84320, Note_off_c, 1, 65, 64
3, 84480, Note_on_c, 1, 67, 96
3, 84480, Note_on_c, 1, 79, 96
3, 84800, Note_off_c, 1, 79, 64
3, 84800, Note_off_c, 1, 67, 64
3, 84960, Note_on_c, 1, 81, 115
3, 84960, Note_on_c, 1, 69, 112
3, 85920, Note_off_c, 1, 69, 64
3, 85920, Note_off_c, 1, 81, 64
3, 86400, Note_on_c, 1, 67, 96
3, 86400, Note_on_c, 1, 79, 96
3, 86440, Note_off_c, 1, 79, 64
3, 86440, Note_on_c, 1, 81, 96
3, 86480, Note_off_c, 1, 81, 64
3, 86480, Note_on_c, 1, 79, 96
3, 86954, Note_off_c, 1, 79, 64
3, 87354, Note_off_c, 1, 67, 64
3, 87360, Note_on_c, 1, 77, 96
3, 87360, Note_on_c, 1, 65, 96
3, 87680, Note_off_c, 1, 65, 64
3, 87680, Note_off_c, 1, 77, 64
3, 87840, Note_on_c, 1, 64, 96
3, 87840, Note_on_c, 1, 76, 96
3, 87880, Note_off_c, 1, 76, 64
3, 87880, Note_on_c, 1, 77, 96
3, 87920, Note_off_c, 1, 77, 64
3, 87920, Note_on_c, 1, 76, 96
3, 88394, Note_off_c, 1, 76, 64
3, 88794, Note_off_c, 1, 64, 64
3, 88800, Note_on_c, 1, 74, 96
3, 88800, Note_on_c, 1, 62, 96
3, 89120, Note_off_c, 1, 62, 64
3, 89120, Note_off_c, 1, 74, 64
3, 89280, Note_on_c, 1, 72, 96
3, 89280, Note_on_c, 1, 60, 96
3, 89920, Note_off_c, 1, 60, 64
3, 89920, Note_off_c, 1, 72, 64
3, 90240, Note_on_c, 1, 72, 96
3, 90240, Note_on_c, 1, 76, 96
3, 90560, Note_off_c, 1, 76, 64
3, 90560, Note_off_c, 1, 72, 64
3, 90720, Note_on_c, 1, 77, 105
3, 90720, Note_on_c, 1, 72, 106
3, 91844, Note_off_c, 1, 72, 64
3, 91860, Note_off_c, 1, 77, 64
3, 92160, Note_on_c, 1, 77, 107
3, 92160, Note_on_c, 1, 67, 105
3, 93290, Note_off_c, 1, 77, 64
3, 93324, Note_off_c, 1, 67, 64
3, 93600, Note_on_c, 1, 77, 106
3, 93600, Note_on_c, 1, 69, 105
3, 94770, Note_off_c, 1, 69, 64
3, 94770, Note_off_c, 1, 77, 64
3, 95040, Note_on_c, 1, 76, 107
3, 95040, Note_on_c, 1, 72, 104
3, 96200, Note_off_c, 1, 72, 64
3, 96214, Note_off_c, 1, 76, 64
3, 96480, Note_on_c, 1, 72, 96
3, 96480, Note_on_c, 1, 77, 96
3, 96800, Note_off_c, 1, 77, 64
3, 96800, Note_off_c, 1, 72, 64
3, 97440, Note_on_c, 1, 81, 96
3, 97760, Note_off_c, 1, 81, 64
3, 97920, Note_on_c, 1, 79, 96
3, 97960, Note_off_c, 1, 79, 64
3, 97960, Note_on_c, 1, 81, 96
3, 98000, Note_off_c, 1, 81, 64
3, 98000, Note_on_c, 1, 79, 96
3, 98474, Note_off_c, 1, 79, 64
3, 98880, Note_on_c, 1, 77, 96
3, 99200, Note_off_c, 1, 77, 64
3, 99360, Note_on_c, 1, 76, 96
3, 99400, Note_off_c, 1, 76, 64
3, 99400, Note_on_c, 1, 77, 96
3, 99440, Note_off_c, 1, 77, 64
3, 99440, Note_on_c, 1, 76, 96
3, 99914, Note_off_c, 1, 76, 64
3, 100320, Note_on_c, 1, 74, 96
3, 100640, Note_off_c, 1, 74, 64
3, 100800, Note_on_c, 1, 72, 96
3, 101440, Note_off_c, 1, 72, 64
3, 101760, Note_on_c, 1, 72, 96
3, 101760, Note_on_c, 1, 76, 96
3, 102080, Note_off_c, 1, 76, 64
3, 102080, Note_off_c, 1, 72, 64
3, 102240, Note_on_c, 1, 77, 96
3, 102240, Note_on_c, 1, 72, 96
3, 103400, Note_off_c, 1, 77, 64
3, 103404, Note_off_c, 1, 72, 64
3, 103680, Note_on_c, 1, 77, 96
3, 103680, Note_on_c, 1, 79, 96
3, 104800, Note_off_c, 1, 79, 64
3, 104810, Note_off_c, 1, 77, 64
3, 105120, Note_on_c, 1, 77, 96
3, 105120, Note_on_c, 1, 81, 96
3, 106240, Note_off_c, 1, 81, 64
3, 106280, Note_off_c, 1, 77, 64
3, 106560, Note_on_c, 1, 79, 96
3, 106560, Note_on_c, 1, 76, 96
3, 107664, Note_off_c, 1, 76, 64
3, 107690, Note_off_c, 1, 79, 64
3, 108000, Note_on_c, 1, 77, 105
3, 108000, Note_on_c, 1, 81, 107
3, 108320, Note_off_c, 1, 81, 64
3, 108320, Note_off_c, 1, 77, 64
3, 112320, Note_on_c, 1, 76, 106
3, 112320, Note_on_c, 1, 79, 109
3, 112640, Note_off_c, 1, 79, 64
3, 112640, Note_off_c, 1, 76, 64
3, 112800, Note_on_c, 1, 76, 96
3, 112800, Note_on_c, 1, 79, 96
3, 113120, Note_off_c, 1, 79, 64
3, 113120, Note_off_c, 1, 76, 64
3, 113280, Note_on_c, 1, 76, 96
3, 113280, Note_on_c, 1, 79, 96
3, 113600, Note_off_c, 1, 79, 64
3, 113600, Note_off_c, 1, 76, 64
3, 113760, Note_on_c, 1, 81, 112
3, 113760, Note_on_c, 1, 77, 112
3, 114080, Note_off_c, 1, 77, 64
3, 114080, Note_off_c, 1, 81, 64
3, 118080, Note_on_c, 1, 76, 112
3, 118080, Note_on_c, 1, 79, 114
3, 118400, Note_off_c, 1, 79, 64
3, 118400, Note_off_c, 1, 76, 64
3, 118560, Note_on_c, 1, 76, 96
3, 118560, Note_on_c, 1, 79, 96
3, 118880, Note_off_c, 1, 79, 64
3, 118880, Note_off_c, 1, 76, 64
3, 119040, Note_on_c, 1, 76, 96
3, 119040, Note_on_c, 1, 79, 96
3, 119360, Note_off_c, 1, 79, 64
3, 119360, Note_off_c, 1, 76, 64
3, 119520, Note_on_c, 1, 81, 111
3, 119520, Note_on_c, 1, 77, 114
3, 119840, Note_off_c, 1, 77, 64
3, 119840, Note_off_c, 1, 81, 64
3, 122400, Note_on_c, 1, 81, 95
3, 122400, Note_on_c, 1, 77, 90
3, 122720, Note_off_c, 1, 77, 64
3, 122720, Note_off_c, 1, 81, 64
3, 131520, Note_on_c, 1, 81, 64
3, 131610, Note_off_c, 1, 81, 64
3, 132000, Note_on_c, 1, 84, 64
3, 132800, Note_off_c, 1, 84, 64
3, 132960, Note_on_c, 1, 81, 64
3, 133090, Note_off_c, 1, 81, 64
3, 133440, Note_on_c, 1, 77, 64
3, 134240, Note_off_c, 1, 77, 64
3, 134400, Note_on_c, 1, 76, 64
3, 134560, Note_off_c, 1, 76, 64
3, 134640, Note_on_c, 1, 77, 64
3, 134800, Note_off_c, 1, 77, 64
3, 134880, Note_on_c, 1, 79, 64
3, 135680, Note_off_c, 1, 79, 64
3, 135840, Note_on_c, 1, 77, 64
3, 136160, Note_off_c, 1, 77, 64
3, 136320, Note_on_c, 1, 79, 64
3, 136640, Note_off_c, 1, 79, 64
3, 136800, Note_on_c, 1, 81, 64
3, 137224, Note_off_c, 1, 81, 64
3, 137280, Note_on_c, 1, 79, 64
3, 137710, Note_off_c, 1, 79, 64
3, 137760, Note_on_c, 1, 77, 64
3, 138204, Note_off_c, 1, 77, 64
3, 138240, Note_on_c, 1, 79, 64
3, 138680, Note_off_c, 1, 79, 64
3, 138720, Note_on_c, 1, 81, 64
3, 139144, Note_off_c, 1, 81, 64
3, 139200, Note_on_c, 1, 82, 64
3, 139630, Note_off_c, 1, 82, 64
3, 139680, Note_on_c, 1, 81, 64
3, 140124, Note_off_c, 1, 81, 64
3, 140160, Note_on_c, 1, 82, 64
3, 140620, Note_off_c, 1, 82, 64
3, 140640, Note_on_c, 1, 84, 64
3, 142560, Note_off_c, 1, 84, 64
3, 143040, Note_on_c, 1, 81, 64
3, 143160, Note_off_c, 1, 81, 64
3, 143520, Note_on_c, 1, 84, 64
3, 144320, Note_off_c, 1, 84, 64
3, 144480, Note_on_c, 1, 81, 64
3, 144584, Note_off_c, 1, 81, 64
3, 144960, Note_on_c, 1, 77, 64
3, 145760, Note_off_c, 1, 77, 64
3, 145920, Note_on_c, 1, 76, 64
3, 146080, Note_off_c, 1, 76, 64
3, 146160, Note_on_c, 1, 77, 64
3, 146320, Note_off_c, 1, 77, 64
3, 146400, Note_on_c, 1, 79, 64
3, 147200, Note_off_c, 1, 79, 64
3, 147360, Note_on_c, 1, 81, 64
3, 147680, Note_off_c, 1, 81, 64
3, 147840, Note_on_c, 1, 82, 64
3, 148160, Note_off_c, 1, 82, 64
3, 148320, Note_on_c, 1, 84, 64
3, 148734, Note_off_c, 1, 84, 64
3, 148800, Note_on_c, 1, 82, 64
3, 149210, Note_off_c, 1, 82, 64
3, 149280, Note_on_c, 1, 81, 64
3, 149700, Note_off_c, 1, 81, 64
3, 149760, Note_on_c, 1, 79, 64
3, 150634, Note_off_c, 1, 79, 64
3, 150720, Note_on_c, 1, 81, 64
3, 151150, Note_off_c, 1, 81, 64
3, 151200, Note_on_c, 1, 82, 64
3, 151614, Note_off_c, 1, 82, 64
3, 151680, Note_on_c, 1, 79, 64
3, 152104, Note_off_c, 1, 79, 64
3, 152160, Note_on_c, 1, 81, 64
3, 152600, Note_off_c, 1, 81, 64
3, 152640, Note_on_c, 1, 77, 64
3, 153590, Note_off_c, 1, 77, 64
3, 154560, Note_on_c, 1, 81, 60
3, 154674, Note_off_c, 1, 81, 64
3, 155040, Note_on_c, 1, 84, 60
3, 155840, Note_off_c, 1, 84, 64
3, 156000, Note_on_c, 1, 81, 60
3, 156130, Note_off_c, 1, 81, 64
3, 156480, Note_on_c, 1, 77, 60
3, 157280, Note_off_c, 1, 77, 64
3, 157440, Note_on_c, 1, 76, 60
3, 157600, Note_off_c, 1, 76, 64
3, 157680, Note_on_c, 1, 77, 60
3, 157840, Note_off_c, 1, 77, 64
3, 157920, Note_on_c, 1, 79, 60
3, 158720, Note_off_c, 1, 79, 64
3, 158880, Note_on_c, 1, 77, 60
3, 159200, Note_off_c, 1, 77, 64
3, 159360, Note_on_c, 1, 79, 60
3, 159680, Note_off_c, 1, 79, 64
3, 159840, Note_on_c, 1, 81, 60
3, 160290, Note_off_c, 1, 81, 64
3, 160320, Note_on_c, 1, 79, 60
3, 160750, Note_off_c, 1, 79, 64
3, 160800, Note_on_c, 1, 77, 60
3, 161244, Note_off_c, 1, 77, 64
3, 161280, Note_on_c, 1, 79, 60
3, 161720, Note_off_c, 1, 79, 64
3, 161760, Note_on_c, 1, 81, 60
3, 162190, Note_off_c, 1, 81, 64
3, 162240, Note_on_c, 1, 82, 60
3, 162680, Note_off_c, 1, 82, 64
3, 162720, Note_on_c, 1, 81, 60
3, 163154, Note_off_c, 1, 81, 64
3, 163200, Note_on_c, 1, 82, 60
3, 163634, Note_off_c, 1, 82, 64
3, 163680, Note_on_c, 1, 84, 60
3, 165600, Note_off_c, 1, 84, 64
3, 166080, Note_on_c, 1, 81, 60
3, 166170, Note_off_c, 1, 81, 64
3, 166560, Note_on_c, 1, 84, 60
3, 167360, Note_off_c, 1, 84, 64
3, 167520, Note_on_c, 1, 81, 60
3, 167630, Note_off_c, 1, 81, 64
3, 168000, Note_on_c, 1, 77, 60
3, 168800, Note_off_c, 1, 77, 64
3, 168960, Note_on_c, 1, 76, 60
3, 169120, Note_off_c, 1, 76, 64
3, 169200, Note_on_c, 1, 77, 60
3, 169360, Note_off_c, 1, 77, 64
3, 169440, Note_on_c, 1, 79, 60
3, 170240, Note_off_c, 1, 79, 64
3, 170400, Note_on_c, 1, 81, 60
3, 170720, Note_off_c, 1, 81, 64
3, 170880, Note_on_c, 1, 82, 60
3, 171200, Note_off_c, 1, 82, 64
3, 171360, Note_on_c, 1, 84, 60
3, 171800, Note_off_c, 1, 84, 64
3, 171840, Note_on_c, 1, 82, 60
3, 172274, Note_off_c, 1, 82, 64
3, 172320, Note_on_c, 1, 81, 60
3, 172744, Note_off_c, 1, 81, 64
3, 172800, Note_on_c, 1, 79, 60
3, 173574, Note_off_c, 1, 79, 64
3, 173760, Note_on_c, 1, 81, 60
3, 174184, Note_off_c, 1, 81, 64
3, 174240, Note_on_c, 1, 82, 60
3, 174690, Note_off_c, 1, 82, 64
3, 174720, Note_on_c, 1, 79, 60
3, 175170, Note_off_c, 1, 79, 64
3, 175200, Note_on_c, 1, 81, 60
3, 175644, Note_off_c, 1, 81, 64
3, 175680, Note_on_c, 1, 77, 60
3, 176130, Note_off_c, 1, 77, 64
3, 203520, Note_on_c, 1, 81, 64
3, 203840, Note_off_c, 1, 81, 64
3, 204000, Note_on_c, 1, 84, 64
3, 204800, Note_off_c, 1, 84, 64
3, 204960, Note_on_c, 1, 81, 64
3, 205280, Note_off_c, 1, 81, 64
3, 205440, Note_on_c, 1, 77, 64
3, 205760, Note_off_c, 1, 77, 64
3, 205920, Note_on_c, 1, 79, 64
3, 206240, Note_off_c, 1, 79, 64
3, 206400, Note_on_c, 1, 72, 64
3, 206720, Note_off_c, 1, 72, 64
3, 206880, Note_on_c, 1, 79, 64
3, 207680, Note_off_c, 1, 79, 64
3, 207840, Note_on_c, 1, 77, 64
3, 208160, Note_off_c, 1, 77, 64
3, 208320, Note_on_c, 1, 79, 64
3, 208640, Note_off_c, 1, 79, 64
3, 208800, Note_on_c, 1, 81, 64
3, 209120, Note_off_c, 1, 81, 64
3, 215040, Note_on_c, 1, 81, 64
3, 215360, Note_off_c, 1, 81, 64
3, 215520, Note_on_c, 1, 82, 64
3, 215840, Note_off_c, 1, 82, 64
3, 216000, Note_on_c, 1, 84, 64
3, 216320, Note_off_c, 1, 84, 64
3, 216480, Note_on_c, 1, 82, 64
3, 216800, Note_off_c, 1, 82, 64
3, 216960, Note_on_c, 1, 81, 64
3, 217280, Note_off_c, 1, 81, 64
3, 217440, Note_on_c, 1, 79, 64
3, 218080, Note_off_c, 1, 79, 64
3, 218400, Note_on_c, 1, 81, 64
3, 218720, Note_off_c, 1, 81, 64
3, 218880, Note_on_c, 1, 82, 64
3, 219200, Note_off_c, 1, 82, 64
3, 219360, Note_on_c, 1, 79, 64
3, 219680, Note_off_c, 1, 79, 64
3, 219840, Note_on_c, 1, 81, 64
3, 220160, Note_off_c, 1, 81, 64
3, 220320, Note_on_c, 1, 77, 64
3, 220640, Note_off_c, 1, 77, 64
3, 221760, Note_on_c, 1, 81, 67
3, 222080, Note_off_c, 1, 81, 64
3, 222240, Note_on_c, 1, 84, 68
3, 222560, Note_off_c, 1, 84, 64
3, 222720, Note_on_c, 1, 82, 69
3, 223040, Note_off_c, 1, 82, 64
3, 224640, Note_on_c, 1, 79, 73
3, 224960, Note_off_c, 1, 79, 64
3, 225120, Note_on_c, 1, 82, 74
3, 225440, Note_off_c, 1, 82, 64
3, 225600, Note_on_c, 1, 81, 75
3, 225920, Note_off_c, 1, 81, 64
3, 226080, Note_on_c, 1, 77, 76
3, 227040, Note_off_c, 1, 77, 64
3, 227520, Note_on_c, 1, 84, 79
3, 231360, Note_off_c, 1, 84, 64
3, 231840, Note_on_c, 1, 77, 97
3, 232160, Note_off_c, 1, 77, 64
3, 237600, Note_on_c, 1, 77, 85
3, 237600, Note_on_c, 1, 72, 85
3, 238320, Note_off_c, 1, 72, 64
3, 238320, Note_off_c, 1, 77, 64
3, 238560, Note_on_c, 1, 72, 85
3, 238560, Note_on_c, 1, 77, 85
3, 239280, Note_off_c, 1, 77, 64
3, 239280, Note_off_c, 1, 72, 64
3, 239520, Note_on_c, 1, 77, 85
3, 239520, Note_on_c, 1, 74, 85
3, 240240, Note_off_c, 1, 74, 64
3, 240240, Note_off_c, 1, 77, 64
3, 240480, Note_on_c, 1, 77, 85
3, 240480, Note_on_c, 1, 72, 85
3, 240954, Note_off_c, 1, 72, 64
3, 240954, Note_off_c, 1, 77, 64
3, 240960, Note_on_c, 1, 77, 85
3, 240960, Note_on_c, 1, 74, 85
3, 241280, Note_off_c, 1, 74, 64
3, 241280, Note_off_c, 1, 77, 64
3, 241440, Note_on_c, 1, 72, 85
3, 241440, Note_on_c, 1, 77, 85
3, 242160, Note_off_c, 1, 77, 64
3, 242160, Note_off_c, 1, 72, 64
3, 242400, Note_on_c, 1, 72, 85
3, 242400, Note_on_c, 1, 77, 85
3, 243120, Note_off_c, 1, 77, 64
3, 243120, Note_off_c, 1, 72, 64
3, 243360, Note_on_c, 1, 77, 85
3, 243360, Note_on_c, 1, 74, 85
3, 244080, Note_off_c, 1, 74, 64
3, 244080, Note_off_c, 1, 77, 64
3, 244320, Note_on_c, 1, 77, 85
3, 244320, Note_on_c, 1, 72, 85
3, 244794, Note_off_c, 1, 72, 64
3, 244794, Note_off_c, 1, 77, 64
3, 244800, Note_on_c, 1, 77, 85
3, 244800, Note_on_c, 1, 74, 85
3, 245120, Note_off_c, 1, 74, 64
3, 245120, Note_off_c, 1, 77, 64
3, 245280, Note_on_c, 1, 72, 85
3, 245280, Note_on_c, 1, 77, 85
3, 246000, Note_off_c, 1, 77, 64
3, 246000, Note_off_c, 1, 72, 64
3, 246240, Note_on_c, 1, 72, 85
3, 246240, Note_on_c, 1, 77, 85
3, 246960, Note_off_c, 1, 77, 64
3, 246960, Note_off_c, 1, 72, 64
3, 247200, Note_on_c, 1, 77, 85
3, 247200, Note_on_c, 1, 74, 85
3, 247920, Note_off_c, 1, 74, 64
3, 247920, Note_off_c, 1, 77, 64
3, 248160, Note_on_c, 1, 77, 85
3, 248160, Note_on_c, 1, 72, 85
3, 248634, Note_off_c, 1, 72, 64
3, 248634, Note_off_c, 1, 77, 64
3, 248640, Note_on_c, 1, 77, 85
3, 248640, Note_on_c, 1, 74, 85
3, 248960, Note_off_c, 1, 74, 64
3, 248960, Note_off_c, 1, 77, 64
3, 249120, Note_on_c, 1, 72, 85
3, 249120, Note_on_c, 1, 77, 85
3, 249840, Note_off_c, 1, 77, 64
3, 249840, Note_off_c, 1, 72, 64
3, 250080, Note_on_c, 1, 72, 85
3, 250080, Note_on_c, 1, 77, 85
3, 250800, Note_off_c, 1, 77, 64
3, 250800, Note_off_c, 1, 72, 64
3, 251040, Note_on_c, 1, 77, 85
3, 251040, Note_on_c, 1, 74, 85
3, 251760, Note_off_c, 1, 74, 64
3, 251760, Note_off_c, 1, 77, 64
3, 252000, Note_on_c, 1, 77, 85
3, 252000, Note_on_c, 1, 72, 85
3, 252474, Note_off_c, 1, 72, 64
3, 252474, Note_off_c, 1, 77, 64
3, 252480, Note_on_c, 1, 77, 85
3, 252480, Note_on_c, 1, 74, 85
3, 252800, Note_off_c, 1, 74, 64
3, 252800, Note_off_c, 1, 77, 64
3, 254880, Note_on_c, 1, 77, 85
3, 254880, Note_on_c, 1, 81, 85
3, 255624, Note_off_c, 1, 77, 64
3, 255634, Note_off_c, 1, 81, 64
3, 255840, Note_on_c, 1, 76, 85
3, 255840, Note_on_c, 1, 79, 85
3, 256314, Note_off_c, 1, 79, 64
3, 256314, Note_off_c, 1, 76, 64
3, 256320, Note_on_c, 1, 81, 85
3, 256320, Note_on_c, 1, 77, 85
3, 256640, Note_off_c, 1, 77, 64
3, 256640, Note_off_c, 1, 81, 64
3, 258720, Note_on_c, 1, 77, 85
3, 258720, Note_on_c, 1, 81, 85
3, 259464, Note_off_c, 1, 77, 64
3, 259474, Note_off_c, 1, 81, 64
3, 259680, Note_on_c, 1, 76, 85
3, 259680, Note_on_c, 1, 79, 85
3, 260154, Note_off_c, 1, 79, 64
3, 260154, Note_off_c, 1, 76, 64
3, 260160, Note_on_c, 1, 81, 85
3, 260160, Note_on_c, 1, 77, 85
3, 260480, Note_off_c, 1, 77, 64
3, 260480, Note_off_c, 1, 81, 64
3, 260640, Note_on_c, 1, 72, 88
3, 260640, Note_on_c, 1, 64, 88
3, 260960, Note_off_c, 1, 64, 64
3, 260960, Note_off_c, 1, 72, 64
3, 261120, Note_on_c, 1, 77, 88
3, 261120, Note_on_c, 1, 74, 88
3, 261440, Note_off_c, 1, 74, 64
3, 261440, Note_off_c, 1, 77, 64
3, 261600, Note_on_c, 1, 76, 89
3, 261600, Note_on_c, 1, 72, 89
3, 262080, Note_off_c, 1, 72, 64
3, 262080, Note_off_c, 1, 76, 64
3, 262320, Note_on_c, 1, 81, 90
3, 262320, Note_on_c, 1, 77, 90
3, 262480, Note_off_c, 1, 77, 64
3, 262480, Note_off_c, 1, 81, 64
3, 262560, Note_on_c, 1, 79, 90
3, 262560, Note_on_c, 1, 76, 90
3, 262720, Note_off_c, 1, 76, 64
3, 262720, Note_off_c, 1, 79, 64
3, 263040, Note_on_c, 1, 77, 90
3, 263040, Note_on_c, 1, 74, 90
3, 263200, Note_off_c, 1, 74, 64
3, 263200, Note_off_c, 1, 77, 64
3, 263520, Note_on_c, 1, 76, 91
3, 263520, Note_on_c, 1, 72, 91
3, 263680, Note_off_c, 1, 72, 64
3, 263680, Note_off_c, 1, 76, 64
3, 264000, Note_on_c, 1, 74, 92
3, 264000, Note_on_c, 1, 71, 92
3, 264160, Note_off_c, 1, 71, 64
3, 264160, Note_off_c, 1, 74, 64
3, 264480, Note_on_c, 1, 72, 92
3, 264480, Note_on_c, 1, 64, 92
3, 264640, Note_off_c, 1, 64, 64
3, 264640, Note_off_c, 1, 72, 64
3, 264720, Note_on_c, 1, 72, 92
3, 264720, Note_on_c, 1, 64, 92
3, 264880, Note_off_c, 1, 64, 64
3, 264880, Note_off_c, 1, 72, 64
3, 264960, Note_on_c, 1, 77, 93
3, 264960, Note_on_c, 1, 74, 93
3, 265120, Note_off_c, 1, 74, 64
3, 265120, Note_off_c, 1, 77, 64
3, 265200, Note_on_c, 1, 77, 93
3, 265200, Note_on_c, 1, 74, 93
3, 265360, Note_off_c, 1, 74, 64
3, 265360, Note_off_c, 1, 77, 64
3, 265440, Note_on_c, 1, 76, 93
3, 265440, Note_on_c, 1, 72, 93
3, 265600, Note_off_c, 1, 72, 64
3, 265600, Note_off_c, 1, 76, 64
3, 265680, Note_on_c, 1, 76, 94
3, 265680, Note_on_c, 1, 72, 94
3, 265970, Note_off_c, 1, 76, 64
3, 265990, Note_off_c, 1, 72, 64
3, 266160, Note_on_c, 1, 81, 94
3, 266160, Note_on_c, 1, 77, 94
3, 266320, Note_off_c, 1, 77, 64
3, 266320, Note_off_c, 1, 81, 64
3, 266640, Note_on_c, 1, 79, 95
3, 266640, Note_on_c, 1, 76, 95
3, 266800, Note_off_c, 1, 76, 64
3, 266800, Note_off_c, 1, 79, 64
3, 267120, Note_on_c, 1, 77, 95
3, 267120, Note_on_c, 1, 74, 95
3, 267280, Note_off_c, 1, 74, 64
3, 267280, Note_off_c, 1, 77, 64
3, 267600, Note_on_c, 1, 76, 90
3, 267600, Note_on_c, 1, 72, 90
3, 267760, Note_off_c, 1, 72, 64
3, 267760, Note_off_c, 1, 76, 64
3, 268080, Note_on_c, 1, 74, 92
3, 268080, Note_on_c, 1, 71, 92
3, 268240, Note_off_c, 1, 71, 64
3, 268240, Note_off_c, 1, 74, 64
3, 268320, Note_on_c, 1, 72, 93
3, 268800, Note_off_c, 1, 72, 64
3, 269040, Note_on_c, 1, 76, 95
3, 269200, Note_off_c, 1, 76, 64
3, 269280, Note_on_c, 1, 76, 96
3, 269760, Note_off_c, 1, 76, 64
3, 270000, Note_on_c, 1, 72, 98
3, 270160, Note_off_c, 1, 72, 64
3, 270240, Note_on_c, 1, 72, 99
3, 270720, Note_off_c, 1, 72, 64
3, 270960, Note_on_c, 1, 79, 101
3, 271120, Note_off_c, 1, 79, 64
3, 271200, Note_on_c, 1, 79, 102
3, 271680, Note_off_c, 1, 79, 64
3, 271920, Note_on_c, 1, 72, 104
3, 272080, Note_off_c, 1, 72, 64
3, 272160, Note_on_c, 1, 72, 105
3, 272320, Note_off_c, 1, 72, 64
3, 272400, Note_on_c, 1, 84, 106
3, 272400, Note_on_c, 1, 76, 106
3, 272560, Note_off_c, 1, 76, 64
3, 272560, Note_off_c, 1, 84, 64
3, 272640, Note_on_c, 1, 84, 107
3, 272640, Note_on_c, 1, 76, 107
3, 272800, Note_off_c, 1, 76, 64
3, 272800, Note_off_c, 1, 84, 64
3, 272880, Note_on_c, 1, 84, 108
3, 272880, Note_on_c, 1, 76, 108
3, 273040, Note_off_c, 1, 76, 64
3, 273040, Note_off_c, 1, 84, 64
3, 273120, Note_on_c, 1, 84, 108
3, 273120, Note_on_c, 1, 76, 108
3, 273280, Note_off_c, 1, 76, 64
3, 273280, Note_off_c, 1, 84, 64
3, 273360, Note_on_c, 1, 84, 109
3, 273360, Note_on_c, 1, 76, 109
3, 273520, Note_off_c, 1, 76, 64
3, 273520, Note_off_c, 1, 84, 64
3, 273600, Note_on_c, 1, 84, 110
3, 273600, Note_on_c, 1, 76, 110
3, 273760, Note_off_c, 1, 76, 64
3, 273760, Note_off_c, 1, 84, 64
3, 273840, Note_on_c, 1, 84, 111
3, 273840, Note_on_c, 1, 76, 111
3, 274000, Note_off_c, 1, 76, 64
3, 274000, Note_off_c, 1, 84, 64
3, 274080, Note_on_c, 1, 84, 112
3, 274080, Note_on_c, 1, 76, 112
3, 274240, Note_off_c, 1, 76, 64
3, 274240, Note_off_c, 1, 84, 64
3, 275040, Note_on_c, 1, 76, 66
3, 275040, Note_on_c, 1, 72, 67
3, 275360, Note_off_c, 1, 72, 64
3, 275360, Note_off_c, 1, 76, 64
3, 276960, Control_c, 1, 91, 51
3, 276960, Control_c, 1, 10, 41
3, 276960, Control_c, 1, 7, 99
3, 276960, Control_c, 1, 0, 0
3, 276960, Control_c, 1, 32, 0
3, 276960, Program_c, 1, 68
3, 276960, Control_c, 1, 91, 51
3, 276960, Control_c, 1, 10, 41
3, 276960, Control_c, 1, 7, 99
3, 276960, Control_c, 1, 0, 0
3, 276960, Control_c, 1, 32, 0
3, 276960, Program_c, 1, 68
3, 296160, Note_on_c, 1, 78, 54
3, 296480, Note_off_c, 1, 78, 64
3, 296640, Note_on_c, 1, 79, 54
3, 296960, Note_off_c, 1, 79, 64
3, 297120, Note_on_c, 1, 78, 54
3, 297440, Note_off_c, 1, 78, 64
3, 297600, Note_on_c, 1, 74, 54
3, 297920, Note_off_c, 1, 74, 64
3, 298080, Note_on_c, 1, 74, 54
3, 298880, Note_off_c, 1, 74, 64
3, 299040, Note_on_c, 1, 74, 54
3, 299360, Note_off_c, 1, 74, 64
3, 299520, Note_on_c, 1, 73, 54
3, 299840, Note_off_c, 1, 73, 64
3, 300000, Note_on_c, 1, 74, 54
3, 300320, Note_off_c, 1, 74, 64
3, 319200, Note_on_c, 1, 78, 54
3, 319520, Note_off_c, 1, 78, 64
3, 319680, Note_on_c, 1, 79, 54
3, 320000, Note_off_c, 1, 79, 64
3, 320160, Note_on_c, 1, 78, 54
3, 320480, Note_off_c, 1, 78, 64
3, 320640, Note_on_c, 1, 74, 54
3, 320960, Note_off_c, 1, 74, 64
3, 321120, Note_on_c, 1, 74, 54
3, 321920, Note_off_c, 1, 74, 64
3, 322080, Note_on_c, 1, 74, 54
3, 322400, Note_off_c, 1, 74, 64
3, 322560, Note_on_c, 1, 73, 54
3, 322880, Note_off_c, 1, 73, 64
3, 323040, Note_on_c, 1, 74, 54
3, 323360, Note_off_c, 1, 74, 64
3, 326880, Note_on_c, 1, 79, 34
3, 327040, Note_off_c, 1, 79, 64
3, 327360, Note_on_c, 1, 78, 34
3, 327520, Note_off_c, 1, 78, 64
3, 327840, Note_on_c, 1, 74, 34
3, 328000, Note_off_c, 1, 74, 64
3, 328320, Note_on_c, 1, 76, 34
3, 328480, Note_off_c, 1, 76, 64
3, 328800, Note_on_c, 1, 78, 34
3, 328960, Note_off_c, 1, 78, 64
3, 329280, Note_on_c, 1, 74, 34
3, 329440, Note_off_c, 1, 74, 64
3, 335520, Note_on_c, 1, 67, 60
3, 335840, Note_off_c, 1, 67, 64
3, 336000, Note_on_c, 1, 72, 60
3, 336640, Note_off_c, 1, 72, 64
3, 336960, Note_on_c, 1, 76, 60
3, 337280, Note_off_c, 1, 76, 64
3, 337440, Note_on_c, 1, 79, 60
3, 337760, Note_off_c, 1, 79, 64
3, 337920, Note_on_c, 1, 76, 60
3, 338240, Note_off_c, 1, 76, 64
3, 338400, Note_on_c, 1, 76, 60
3, 338720, Note_off_c, 1, 76, 64
3, 338880, Note_on_c, 1, 79, 60
3, 339200, Note_off_c, 1, 79, 64
3, 339360, Note_on_c, 1, 83, 60
3, 339680, Note_off_c, 1, 83, 64
3, 339840, Note_on_c, 1, 84, 60
3, 340000, Note_off_c, 1, 84, 64
3, 340080, Note_on_c, 1, 81, 60
3, 340240, Note_off_c, 1, 81, 64
3, 340320, Note_on_c, 1, 79, 60
3, 340960, Note_off_c, 1, 79, 64
3, 341280, Note_on_c, 1, 83, 60
3, 341600, Note_off_c, 1, 83, 64
3, 341760, Note_on_c, 1, 84, 60
3, 342080, Note_off_c, 1, 84, 64
3, 342240, Note_on_c, 1, 79, 60
3, 342560, Note_off_c, 1, 79, 64
3, 342720, Note_on_c, 1, 81, 60
3, 342720, Note_on_c, 1, 77, 60
3, 343040, Note_off_c, 1, 77, 64
3, 343040, Note_off_c, 1, 81, 64
3, 343200, Note_on_c, 1, 79, 60
3, 343200, Note_on_c, 1, 76, 60
3, 343520, Note_off_c, 1, 76, 64
3, 343520, Note_off_c, 1, 79, 64
3, 343680, Note_on_c, 1, 76, 60
3, 343680, Note_on_c, 1, 72, 60
3, 344000, Note_off_c, 1, 72, 64
3, 344000, Note_off_c, 1, 76, 64
3, 344160, Note_on_c, 1, 77, 60
3, 344160, Note_on_c, 1, 72, 60
3, 344480, Note_off_c, 1, 72, 64
3, 344480, Note_off_c, 1, 77, 64
3, 344640, Note_on_c, 1, 76, 60
3, 344640, Note_on_c, 1, 72, 60
3, 344960, Note_off_c, 1, 72, 64
3, 344960, Note_off_c, 1, 76, 64
3, 345120, Note_on_c, 1, 72, 60
3, 345120, Note_on_c, 1, 67, 60
3, 345440, Note_off_c, 1, 67, 64
3, 345440, Note_off_c, 1, 72, 64
3, 345600, Note_on_c, 1, 74, 60
3, 345600, Note_on_c, 1, 71, 60
3, 345920, Note_off_c, 1, 71, 64
3, 345920, Note_off_c, 1, 74, 64
3, 346080, Note_on_c, 1, 76, 60
3, 346080, Note_on_c, 1, 72, 60
3, 346400, Note_off_c, 1, 72, 64
3, 346400, Note_off_c, 1, 76, 64
3, 346560, Note_on_c, 1, 72, 64
3, 346560, Note_on_c, 1, 64, 64
3, 346880, Note_off_c, 1, 64, 64
3, 346880, Note_off_c, 1, 72, 64
3, 349920, Note_on_c, 1, 72, 69
3, 349920, Note_on_c, 1, 84, 69
3, 350240, Note_off_c, 1, 84, 64
3, 350240, Note_off_c, 1, 72, 64
3, 350400, Note_on_c, 1, 72, 73
3, 350400, Note_on_c, 1, 84, 73
3, 350720, Note_off_c, 1, 84, 64
3, 350720, Note_off_c, 1, 72, 64
3, 350880, Note_on_c, 1, 72, 76
3, 350880, Note_on_c, 1, 84, 76
3, 351200, Note_off_c, 1, 84, 64
3, 351200, Note_off_c, 1, 72, 64
3, 351360, Note_on_c, 1, 72, 80
3, 351360, Note_on_c, 1, 84, 80
3, 351680, Note_off_c, 1, 84, 64
3, 351680, Note_off_c, 1, 72, 64
3, 351840, Note_on_c, 1, 72, 84
3, 351840, Note_on_c, 1, 84, 84
3, 352160, Note_off_c, 1, 84, 64
3, 352160, Note_off_c, 1, 72, 64
3, 352320, Note_on_c, 1, 72, 88
3, 352320, Note_on_c, 1, 84, 88
3, 352640, Note_off_c, 1, 84, 64
3, 352640, Note_off_c, 1, 72, 64
3, 352800, Note_on_c, 1, 72, 92
3, 353120, Note_off_c, 1, 72, 64
3, 353280, Note_on_c, 1, 77, 96
3, 353600, Note_off_c, 1, 77, 64
3, 353760, Note_on_c, 1, 72, 96
3, 354080, Note_off_c, 1, 72, 64
3, 354240, Note_on_c, 1, 74, 96
3, 354560, Note_off_c, 1, 74, 64
3, 354720, Note_on_c, 1, 72, 96
3, 355040, Note_off_c, 1, 72, 64
3, 355200, Note_on_c, 1, 69, 96
3, 355200, Note_on_c, 1, 81, 96
3, 355520, Note_off_c, 1, 81, 64
3, 355520, Note_off_c, 1, 69, 64
3, 355680, Note_on_c, 1, 70, 96
3, 355680, Note_on_c, 1, 82, 96
3, 356000, Note_off_c, 1, 82, 64
3, 356000, Note_off_c, 1, 70, 64
3, 356160, Note_on_c, 1, 81, 113
3, 356160, Note_on_c, 1, 69, 114
3, 356480, Note_off_c, 1, 69, 64
3, 356480, Note_off_c, 1, 81, 64
3, 356640, Note_on_c, 1, 65, 96
3, 356640, Note_on_c, 1, 77, 96
3, 356960, Note_off_c, 1, 77, 64
3, 356960, Note_off_c, 1, 65, 64
3, 357120, Note_on_c, 1, 67, 96
3, 357120, Note_on_c, 1, 79, 96
3, 357440, Note_off_c, 1, 79, 64
3, 357440, Note_off_c, 1, 67, 64
3, 357600, Note_on_c, 1, 81, 114
3, 357600, Note_on_c, 1, 69, 114
3, 357920, Note_off_c, 1, 69, 64
3, 357920, Note_off_c, 1, 81, 64
3, 358080, Note_on_c, 1, 65, 96
3, 358080, Note_on_c, 1, 77, 96
3, 358400, Note_off_c, 1, 77, 64
3, 358400, Note_off_c, 1, 65, 64
3, 358560, Note_on_c, 1, 67, 96
3, 358560, Note_on_c, 1, 79, 96
3, 358880, Note_off_c, 1, 79, 64
3, 358880, Note_off_c, 1, 67, 64
3, 359040, Note_on_c, 1, 81, 116
3, 359040, Note_on_c, 1, 69, 116
3, 359360, Note_off_c, 1, 69, 64
3, 359360, Note_off_c, 1, 81, 64
3, 359520, Note_on_c, 1, 65, 96
3, 359520, Note_on_c, 1, 77, 96
3, 359840, Note_off_c, 1, 77, 64
3, 359840, Note_off_c, 1, 65, 64
3, 360000, Note_on_c, 1, 67, 96
3, 360000, Note_on_c, 1, 79, 96
3, 360320, Note_off_c, 1, 79, 64
3, 360320, Note_off_c, 1, 67, 64
3, 360480, Note_on_c, 1, 81, 118
3, 360480, Note_on_c, 1, 69, 117
3, 360800, Note_off_c, 1, 69, 64
3, 360800, Note_off_c, 1, 81, 64
3, 360960, Note_on_c, 1, 65, 96
3, 360960, Note_on_c, 1, 77, 96
3, 361280, Note_off_c, 1, 77, 64
3, 361280, Note_off_c, 1, 65, 64
3, 361440, Note_on_c, 1, 67, 96
3, 361440, Note_on_c, 1, 79, 96
3, 361760, Note_off_c, 1, 79, 64
3, 361760, Note_off_c, 1, 67, 64
3, 361920, Note_on_c, 1, 81, 115
3, 361920, Note_on_c, 1, 69, 112
3, 362880, Note_off_c, 1, 69, 64
3, 362880, Note_off_c, 1, 81, 64
3, 363360, Note_on_c, 1, 67, 96
3, 363360, Note_on_c, 1, 79, 96
3, 363400, Note_off_c, 1, 79, 64
3, 363400, Note_on_c, 1, 81, 96
3, 363440, Note_off_c, 1, 81, 64
3, 363440, Note_on_c, 1, 79, 96
3, 363914, Note_off_c, 1, 79, 64
3, 364314, Note_off_c, 1, 67, 64
3, 364320, Note_on_c, 1, 77, 96
3, 364320, Note_on_c, 1, 65, 96
3, 364640, Note_off_c, 1, 65, 64
3, 364640, Note_off_c, 1, 77, 64
3, 364800, Note_on_c, 1, 64, 96
3, 364800, Note_on_c, 1, 76, 96
3, 364840, Note_off_c, 1, 76, 64
3, 364840, Note_on_c, 1, 77, 96
3, 364880, Note_off_c, 1, 77, 64
3, 364880, Note_on_c, 1, 76, 96
3, 365354, Note_off_c, 1, 76, 64
3, 365754, Note_off_c, 1, 64, 64
3, 365760, Note_on_c, 1, 74, 96
3, 365760, Note_on_c, 1, 62, 96
3, 366080, Note_off_c, 1, 62, 64
3, 366080, Note_off_c, 1, 74, 64
3, 366240, Note_on_c, 1, 72, 96
3, 366240, Note_on_c, 1, 60, 96
3, 366880, Note_off_c, 1, 60, 64
3, 366880, Note_off_c, 1, 72, 64
3, 367200, Note_on_c, 1, 72, 96
3, 367200, Note_on_c, 1, 76, 96
3, 367520, Note_off_c, 1, 76, 64
3, 367520, Note_off_c, 1, 72, 64
3, 367680, Note_on_c, 1, 77, 105
3, 367680, Note_on_c, 1, 72, 106
3, 368804, Note_off_c, 1, 72, 64
3, 368820, Note_off_c, 1, 77, 64
3, 369120, Note_on_c, 1, 77, 107
3, 369120, Note_on_c, 1, 67, 105
3, 370250, Note_off_c, 1, 77, 64
3, 370284, Note_off_c, 1, 67, 64
3, 370560, Note_on_c, 1, 77, 106
3, 370560, Note_on_c, 1, 69, 105
3, 371730, Note_off_c, 1, 69, 64
3, 371730, Note_off_c, 1, 77, 64
3, 372000, Note_on_c, 1, 76, 107
3, 372000, Note_on_c, 1, 72, 104
3, 373160, Note_off_c, 1, 72, 64
3, 373174, Note_off_c, 1, 76, 64
3, 373440, Note_on_c, 1, 72, 96
3, 373440, Note_on_c, 1, 77, 96
3, 373760, Note_off_c, 1, 77, 64
3, 373760, Note_off_c, 1, 72, 64
3, 374400, Note_on_c, 1, 81, 96
3, 374720, Note_off_c, 1, 81, 64
3, 374880, Note_on_c, 1, 79, 96
3, 374920, Note_off_c, 1, 79, 64
3, 374920, Note_on_c, 1, 81, 96
3, 374960, Note_off_c, 1, 81, 64
3, 374960, Note_on_c, 1, 79, 96
3, 375434, Note_off_c, 1, 79, 64
3, 375840, Note_on_c, 1, 77, 96
3, 376160, Note_off_c, 1, 77, 64
3, 376320, Note_on_c, 1, 76, 96
3, 376360, Note_off_c, 1, 76, 64
3, 376360, Note_on_c, 1, 77, 96
3, 376400, Note_off_c, 1, 77, 64
3, 376400, Note_on_c, 1, 76, 96
3, 376874, Note_off_c, 1, 76, 64
3, 377280, Note_on_c, 1, 74, 96
3, 377600, Note_off_c, 1, 74, 64
3, 377760, Note_on_c, 1, 72, 96
3, 378400, Note_off_c, 1, 72, 64
3, 378720, Note_on_c, 1, 72, 96
3, 378720, Note_on_c, 1, 76, 96
3, 379040, Note_off_c, 1, 76, 64
3, 379040, Note_off_c, 1, 72, 64
3, 379200, Note_on_c, 1, 77, 96
3, 379200, Note_on_c, 1, 72, 96
3, 380360, Note_off_c, 1, 77, 64
3, 380364, Note_off_c, 1, 72, 64
3, 380640, Note_on_c, 1, 77, 96
3, 380640, Note_on_c, 1, 79, 96
3, 381760, Note_off_c, 1, 79, 64
3, 381770, Note_off_c, 1, 77, 64
3, 382080, Note_on_c, 1, 77, 96
3, 382080, Note_on_c, 1, 81, 96
3, 383200, Note_off_c, 1, 81, 64
3, 383240, Note_off_c, 1, 77, 64
3, 383520, Note_on_c, 1, 79, 96
3, 383520, Note_on_c, 1, 76, 96
3, 384624, Note_off_c, 1, 76, 64
3, 384650, Note_off_c, 1, 79, 64
3, 384960, Note_on_c, 1, 77, 105
3, 384960, Note_on_c, 1, 81, 107
3, 385280, Note_off_c, 1, 81, 64
3, 385280, Note_off_c, 1, 77, 64
3, 389280, Note_on_c, 1, 76, 106
3, 389280, Note_on_c, 1, 79, 109
3, 389600, Note_off_c, 1, 79, 64
3, 389600, Note_off_c, 1, 76, 64
3, 389760, Note_on_c, 1, 76, 96
3, 389760, Note_on_c, 1, 79, 96
3, 390080, Note_off_c, 1, 79, 64
3, 390080, Note_off_c, 1, 76, 64
3, 390240, Note_on_c, 1, 76, 96
3, 390240, Note_on_c, 1, 79, 96
3, 390560, Note_off_c, 1, 79, 64
3, 390560, Note_off_c, 1, 76, 64
3, 390720, Note_on_c, 1, 81, 112
3, 390720, Note_on_c, 1, 77, 112
3, 391040, Note_off_c, 1, 77, 64
3, 391040, Note_off_c, 1, 81, 64
3, 395040, Note_on_c, 1, 76, 112
3, 395040, Note_on_c, 1, 79, 114
3, 395360, Note_off_c, 1, 79, 64
3, 395360, Note_off_c, 1, 76, 64
3, 395520, Note_on_c, 1, 76, 96
3, 395520, Note_on_c, 1, 79, 96
3, 395840, Note_off_c, 1, 79, 64
3, 395840, Note_off_c, 1, 76, 64
3, 396000, Note_on_c, 1, 76, 96
3, 396000, Note_on_c, 1, 79, 96
3, 396320, Note_off_c, 1, 79, 64
3, 396320, Note_off_c, 1, 76, 64
3, 396480, Note_on_c, 1, 81, 111
3, 396480, Note_on_c, 1, 77, 114
3, 396800, Note_off_c, 1, 77, 64
3, 396800, Note_off_c, 1, 81, 64
3, 399360, Note_on_c, 1, 81, 95
3, 399360, Note_on_c, 1, 77, 90
3, 399680, Note_off_c, 1, 77, 64
3, 399680, Note_off_c, 1, 81, 64
3, 408480, Note_on_c, 1, 81, 64
3, 408570, Note_off_c, 1, 81, 64
3, 408960, Note_on_c, 1, 84, 64
3, 409760, Note_off_c, 1, 84, 64
3, 409920, Note_on_c, 1, 81, 64
3, 410050, Note_off_c, 1, 81, 64
3, 410400, Note_on_c, 1, 77, 64
3, 411200, Note_off_c, 1, 77, 64
3, 411360, Note_on_c, 1, 76, 64
3, 411520, Note_off_c, 1, 76, 64
3, 411600, Note_on_c, 1, 77, 64
3, 411760, Note_off_c, 1, 77, 64
3, 411840, Note_on_c, 1, 79, 64
3, 412640, Note_off_c, 1, 79, 64
3, 412800, Note_on_c, 1, 77, 64
3, 413120, Note_off_c, 1, 77, 64
3, 413280, Note_on_c, 1, 79, 64
3, 413600, Note_off_c, 1, 79, 64
3, 413760, Note_on_c, 1, 81, 64
3, 414184, Note_off_c, 1, 81, 64
3, 414240, Note_on_c, 1, 79, 64
3, 414670, Note_off_c, 1, 79, 64
3, 414720, Note_on_c, 1, 77, 64
3, 415164, Note_off_c, 1, 77, 64
3, 415200, Note_on_c, 1, 79, 64
3, 415640, Note_off_c, 1, 79, 64
3, 415680, Note_on_c, 1, 81, 64
3, 416104, Note_off_c, 1, 81, 64
3, 416160, Note_on_c, 1, 82, 64
3, 416590, Note_off_c, 1, 82, 64
3, 416640, Note_on_c, 1, 81, 64
3, 417084, Note_off_c, 1, 81, 64
3, 417120, Note_on_c, 1, 82, 64
3, 417580, Note_off_c, 1, 82, 64
3, 417600, Note_on_c, 1, 84, 64
3, 419520, Note_off_c, 1, 84, 64
3, 420000, Note_on_c, 1, 81, 64
3, 420120, Note_off_c, 1, 81, 64
3, 420480, Note_on_c, 1, 84, 64
3, 421280, Note_off_c, 1, 84, 64
3, 421440, Note_on_c, 1, 81, 64
3, 421544, Note_off_c, 1, 81, 64
3, 421920, Note_on_c, 1, 77, 64
3, 422720, Note_off_c, 1, 77, 64
3, 422880, Note_on_c, 1, 76, 64
3, 423040, Note_off_c, 1, 76, 64
3, 423120, Note_on_c, 1, 77, 64
3, 423280, Note_off_c, 1, 77, 64
3, 423360, Note_on_c, 1, 79, 64
3, 424160, Note_off_c, 1, 79, 64
3, 424320, Note_on_c, 1, 81, 64
3, 424640, Note_off_c, 1, 81, 64
3, 424800, Note_on_c, 1, 82, 64
3, 425120, Note_off_c, 1, 82, 64
3, 425280, Note_on_c, 1, 84, 64
3, 425694, Note_off_c, 1, 84, 64
3, 425760, Note_on_c, 1, 82, 64
3, 426170, Note_off_c, 1, 82, 64
3, 426240, Note_on_c, 1, 81, 64
3, 426660, Note_off_c, 1, 81, 64
3, 426720, Note_on_c, 1, 79, 64
3, 427594, Note_off_c, 1, 79, 64
3, 427680, Note_on_c, 1, 81, 64
3, 428110, Note_off_c, 1, 81, 64
3, 428160, Note_on_c, 1, 82, 64
3, 428574, Note_off_c, 1, 82, 64
3, 428640, Note_on_c, 1, 79, 64
3, 429064, Note_off_c, 1, 79, 64
3, 429120, Note_on_c, 1, 81, 64
3, 429560, Note_off_c, 1, 81, 64
3, 429600, Note_on_c, 1, 77, 64
3, 430550, Note_off_c, 1, 77, 64
3, 431520, Note_on_c, 1, 81, 60
3, 431634, Note_off_c, 1, 81, 64
3, 432000, Note_on_c, 1, 84, 60
3, 432800, Note_off_c, 1, 84, 64
3, 432960, Note_on_c, 1, 81, 60
3, 433090, Note_off_c, 1, 81, 64
3, 433440, Note_on_c, 1, 77, 60
3, 434240, Note_off_c, 1, 77, 64
3, 434400, Note_on_c, 1, 76, 60
3, 434560, Note_off_c, 1, 76, 64
3, 434640, Note_on_c, 1, 77, 60
3, 434800, Note_off_c, 1, 77, 64
3, 434880, Note_on_c, 1, 79, 60
3, 435680, Note_off_c, 1, 79, 64
3, 435840, Note_on_c, 1, 77, 60
3, 436160, Note_off_c, 1, 77, 64
3, 436320, Note_on_c, 1, 79, 60
3, 436640, Note_off_c, 1, 79, 64
3, 436800, Note_on_c, 1, 81, 60
3, 437250, Note_off_c, 1, 81, 64
3, 437280, Note_on_c, 1, 79, 60
3, 437710, Note_off_c, 1, 79, 64
3, 437760, Note_on_c, 1, 77, 60
3, 438204, Note_off_c, 1, 77, 64
3, 438240, Note_on_c, 1, 79, 60
3, 438680, Note_off_c, 1, 79, 64
3, 438720, Note_on_c, 1, 81, 60
3, 439150, Note_off_c, 1, 81, 64
3, 439200, Note_on_c, 1, 82, 60
3, 439640, Note_off_c, 1, 82, 64
3, 439680, Note_on_c, 1, 81, 60
3, 440114, Note_off_c, 1, 81, 64
3, 440160, Note_on_c, 1, 82, 60
3, 440594, Note_off_c, 1, 82, 64
3, 440640, Note_on_c, 1, 84, 60
3, 442560, Note_off_c, 1, 84, 64
3, 443040, Note_on_c, 1, 81, 60
3, 443130, Note_off_c, 1, 81, 64
3, 443520, Note_on_c, 1, 84, 60
3, 444320, Note_off_c, 1, 84, 64
3, 444480, Note_on_c, 1, 81, 60
3, 444590, Note_off_c, 1, 81, 64
3, 444960, Note_on_c, 1, 77, 60
3, 445760, Note_off_c, 1, 77, 64
3, 445920, Note_on_c, 1, 76, 60
3, 446080, Note_off_c, 1, 76, 64
3, 446160, Note_on_c, 1, 77, 60
3, 446320, Note_off_c, 1, 77, 64
3, 446400, Note_on_c, 1, 79, 60
3, 447200, Note_off_c, 1, 79, 64
3, 447360, Note_on_c, 1, 81, 60
3, 447680, Note_off_c, 1, 81, 64
3, 447840, Note_on_c, 1, 82, 60
3, 448160, Note_off_c, 1, 82, 64
3, 448320, Note_on_c, 1, 84, 60
3, 448760, Note_off_c, 1, 84, 64
3, 448800, Note_on_c, 1, 82, 60
3, 449234, Note_off_c, 1, 82, 64
3, 449280, Note_on_c, 1, 81, 60
3, 449704, Note_off_c, 1, 81, 64
3, 449760, Note_on_c, 1, 79, 60
3, 450534, Note_off_c, 1, 79, 64
3, 450720, Note_on_c, 1, 81, 60
3, 451144, Note_off_c, 1, 81, 64
3, 451200, Note_on_c, 1, 82, 60
3, 451650, Note_off_c, 1, 82, 64
3, 451680, Note_on_c, 1, 79, 60
3, 452130, Note_off_c, 1, 79, 64
3, 452160, Note_on_c, 1, 81, 60
3, 452604, Note_off_c, 1, 81, 64
3, 452640, Note_on_c, 1, 77, 60
3, 453090, Note_off_c, 1, 77, 64
3, 480480, Note_on_c, 1, 81, 64
3, 480800, Note_off_c, 1, 81, 64
3, 480960, Note_on_c, 1, 84, 64
3, 481760, Note_off_c, 1, 84, 64
3, 481920, Note_on_c, 1, 81, 64
3, 482240, Note_off_c, 1, 81, 64
3, 482400, Note_on_c, 1, 77, 64
3, 482720, Note_off_c, 1, 77, 64
3, 482880, Note_on_c, 1, 79, 64
3, 483200, Note_off_c, 1, 79, 64
3, 483360, Note_on_c, 1, 72, 64
3, 483680, Note_off_c, 1, 72, 64
3, 483840, Note_on_c, 1, 79, 64
3, 484640, Note_off_c, 1, 79, 64
3, 484800, Note_on_c, 1, 77, 64
3, 485120, Note_off_c, 1, 77, 64
3, 485280, Note_on_c, 1, 79, 64
3, 485600, Note_off_c, 1, 79, 64
3, 485760, Note_on_c, 1, 81, 64
3, 486080, Note_off_c, 1, 81, 64
3, 492000, Note_on_c, 1, 81, 64
3, 492320, Note_off_c, 1, 81, 64
3, 492480, Note_on_c, 1, 82, 64
3, 492800, Note_off_c, 1, 82, 64
3, 492960, Note_on_c, 1, 84, 64
3, 493280, Note_off_c, 1, 84, 64
3, 493440, Note_on_c, 1, 82, 64
3, 493760, Note_off_c, 1, 82, 64
3, 493920, Note_on_c, 1, 81, 64
3, 494240, Note_off_c, 1, 81, 64
3, 494400, Note_on_c, 1, 79, 64
3, 495040, Note_off_c, 1, 79, 64
3, 495360, Note_on_c, 1, 81, 64
3, 495680, Note_off_c, 1, 81, 64
3, 495840, Note_on_c, 1, 82, 64
3, 496160, Note_off_c, 1, 82, 64
3, 496320, Note_on_c, 1, 79, 64
3, 496640, Note_off_c, 1, 79, 64
3, 496800, Note_on_c, 1, 81, 64
3, 497120, Note_off_c, 1, 81, 64
3, 497280, Note_on_c, 1, 77, 64
3, 497600, Note_off_c, 1, 77, 64
3, 498720, Note_on_c, 1, 81, 67
3, 499040, Note_off_c, 1, 81, 64
3, 499200, Note_on_c, 1, 84, 68
3, 499520, Note_off_c, 1, 84, 64
3, 499680, Note_on_c, 1, 82, 69
3, 500000, Note_off_c, 1, 82, 64
3, 501600, Note_on_c, 1, 79, 73
3, 501920, Note_off_c, 1, 79, 64
3, 502080, Note_on_c, 1, 82, 74
3, 502400, Note_off_c, 1, 82, 64
3, 502560, Note_on_c, 1, 81, 75
3, 502880, Note_off_c, 1, 81, 64
3, 503040, Note_on_c, 1, 77, 76
3, 504000, Note_off_c, 1, 77, 64
3, 504480, Note_on_c, 1, 84, 79
3, 508320, Note_off_c, 1, 84, 64
3, 508800, Note_on_c, 1, 77, 97
3, 509120, Note_off_c, 1, 77, 64
3, 514560, Note_on_c, 1, 77, 85
3, 514560, Note_on_c, 1, 72, 85
3, 515280, Note_off_c, 1, 72, 64
3, 515280, Note_off_c, 1, 77, 64
3, 515520, Note_on_c, 1, 72, 85
3, 515520, Note_on_c, 1, 77, 85
3, 516240, Note_off_c, 1, 77, 64
3, 516240, Note_off_c, 1, 72, 64
3, 516480, Note_on_c, 1, 77, 85
3, 516480, Note_on_c, 1, 74, 85
3, 517200, Note_off_c, 1, 74, 64
3, 517200, Note_off_c, 1, 77, 64
3, 517440, Note_on_c, 1, 77, 85
3, 517440, Note_on_c, 1, 72, 85
3, 517914, Note_off_c, 1, 72, 64
3, 517914, Note_off_c, 1, 77, 64
3, 517920, Note_on_c, 1, 77, 85
3, 517920, Note_on_c, 1, 74, 85
3, 518240, Note_off_c, 1, 74, 64
3, 518240, Note_off_c, 1, 77, 64
3, 518400, Note_on_c, 1, 72, 85
3, 518400, Note_on_c, 1, 77, 85
3, 519120, Note_off_c, 1, 77, 64
3, 519120, Note_off_c, 1, 72, 64
3, 519360, Note_on_c, 1, 72, 85
3, 519360, Note_on_c, 1, 77, 85
3, 520080, Note_off_c, 1, 77, 64
3, 520080, Note_off_c, 1, 72, 64
3, 520320, Note_on_c, 1, 77, 85
3, 520320, Note_on_c, 1, 74, 85
3, 521040, Note_off_c, 1, 74, 64
3, 521040, Note_off_c, 1, 77, 64
3, 521280, Note_on_c, 1, 77, 85
3, 521280, Note_on_c, 1, 72, 85
3, 521754, Note_off_c, 1, 72, 64
3, 521754, Note_off_c, 1, 77, 64
3, 521760, Note_on_c, 1, 77, 85
3, 521760, Note_on_c, 1, 74, 85
3, 522080, Note_off_c, 1, 74, 64
3, 522080, Note_off_c, 1, 77, 64
3, 522240, Note_on_c, 1, 72, 85
3, 522240, Note_on_c, 1, 77, 85
3, 522960, Note_off_c, 1, 77, 64
3, 522960, Note_off_c, 1, 72, 64
3, 523200, Note_on_c, 1, 72, 85
3, 523200, Note_on_c, 1, 77, 85
3, 523920, Note_off_c, 1, 77, 64
3, 523920, Note_off_c, 1, 72, 64
3, 524160, Note_on_c, 1, 77, 85
3, 524160, Note_on_c, 1, 74, 85
3, 524880, Note_off_c, 1, 74, 64
3, 524880, Note_off_c, 1, 77, 64
3, 525120, Note_on_c, 1, 77, 85
3, 525120, Note_on_c, 1, 72, 85
3, 525594, Note_off_c, 1, 72, 64
3, 525594, Note_off_c, 1, 77, 64
3, 525600, Note_on_c, 1, 77, 85
3, 525600, Note_on_c, 1, 74, 85
3, 525920, Note_off_c, 1, 74, 64
3, 525920, Note_off_c, 1, 77, 64
3, 526080, Note_on_c, 1, 72, 85
3, 526080, Note_on_c, 1, 77, 85
3, 526800, Note_off_c, 1, 77, 64
3, 526800, Note_off_c, 1, 72, 64
3, 527040, Note_on_c, 1, 72, 85
3, 527040, Note_on_c, 1, 77, 85
3, 527760, Note_off_c, 1, 77, 64
3, 527760, Note_off_c, 1, 72, 64
3, 528000, Note_on_c, 1, 77, 85
3, 528000, Note_on_c, 1, 74, 85
3, 528720, Note_off_c, 1, 74, 64
3, 528720, Note_off_c, 1, 77, 64
3, 528960, Note_on_c, 1, 77, 85
3, 528960, Note_on_c, 1, 72, 85
3, 529434, Note_off_c, 1, 72, 64
3, 529434, Note_off_c, 1, 77, 64
3, 529440, Note_on_c, 1, 77, 85
3, 529440, Note_on_c, 1, 74, 85
3, 529760, Note_off_c, 1, 74, 64
3, 529760, Note_off_c, 1, 77, 64
3, 531840, Note_on_c, 1, 77, 85
3, 531840, Note_on_c, 1, 81, 85
3, 532584, Note_off_c, 1, 77, 64
3, 532594, Note_off_c, 1, 81, 64
3, 532800, Note_on_c, 1, 76, 85
3, 532800, Note_on_c, 1, 79, 85
3, 533274, Note_off_c, 1, 79, 64
3, 533274, Note_off_c, 1, 76, 64
3, 533280, Note_on_c, 1, 81, 85
3, 533280, Note_on_c, 1, 77, 85
3, 533600, Note_off_c, 1, 77, 64
3, 533600, Note_off_c, 1, 81, 64
3, 535680, Note_on_c, 1, 77, 85
3, 535680, Note_on_c, 1, 81, 85
3, 536424, Note_off_c, 1, 77, 64
3, 536434, Note_off_c, 1, 81, 64
3, 536640, Note_on_c, 1, 76, 85
3, 536640, Note_on_c, 1, 79, 85
3, 537114, Note_off_c, 1, 79, 64
3, 537114, Note_off_c, 1, 76, 64
3, 537120, Note_on_c, 1, 81, 85
3, 537120, Note_on_c, 1, 77, 85
3, 537440, Note_off_c, 1, 77, 64
3, 537440, Note_off_c, 1, 81, 64
3, 537600, Note_on_c, 1, 72, 88
3, 537600, Note_on_c, 1, 64, 88
3, 537920, Note_off_c, 1, 64, 64
3, 537920, Note_off_c, 1, 72, 64
3, 538080, Note_on_c, 1, 77, 88
3, 538080, Note_on_c, 1, 74, 88
3, 538400, Note_off_c, 1, 74, 64
3, 538400, Note_off_c, 1, 77, 64
3, 538560, Note_on_c, 1, 76, 89
3, 538560, Note_on_c, 1, 72, 89
3, 539040, Note_off_c, 1, 72, 64
3, 539040, Note_off_c, 1, 76, 64
3, 539280, Note_on_c, 1, 81, 90
3, 539280, Note_on_c, 1, 77, 90
3, 539440, Note_off_c, 1, 77, 64
3, 539440, Note_off_c, 1, 81, 64
3, 539520, Note_on_c, 1, 79, 90
3, 539520, Note_on_c, 1, 76, 90
3, 539680, Note_off_c, 1, 76, 64
3, 539680, Note_off_c, 1, 79, 64
3, 540000, Note_on_c, 1, 77, 90
3, 540000, Note_on_c, 1, 74, 90
3, 540160, Note_off_c, 1, 74, 64
3, 540160, Note_off_c, 1, 77, 64
3, 540480, Note_on_c, 1, 76, 91
3, 540480, Note_on_c, 1, 72, 91
3, 540640, Note_off_c, 1, 72, 64
3, 540640, Note_off_c, 1, 76, 64
3, 540960, Note_on_c, 1, 74, 92
3, 540960, Note_on_c, 1, 71, 92
3, 541120, Note_off_c, 1, 71, 64
3, 541120, Note_off_c, 1, 74, 64
3, 541440, Note_on_c, 1, 72, 92
3, 541440, Note_on_c, 1, 64, 92
3, 541600, Note_off_c, 1, 64, 64
3, 541600, Note_off_c, 1, 72, 64
3, 541680, Note_on_c, 1, 72, 92
3, 541680, Note_on_c, 1, 64, 92
3, 541840, Note_off_c, 1, 64, 64
3, 541840, Note_off_c, 1, 72, 64
3, 541920, Note_on_c, 1, 77, 93
3, 541920, Note_on_c, 1, 74, 93
3, 542080, Note_off_c, 1, 74, 64
3, 542080, Note_off_c, 1, 77, 64
3, 542160, Note_on_c, 1, 77, 93
3, 542160, Note_on_c, 1, 74, 93
3, 542320, Note_off_c, 1, 74, 64
3, 542320, Note_off_c, 1, 77, 64
3, 542400, Note_on_c, 1, 76, 93
3, 542400, Note_on_c, 1, 72, 93
3, 542560, Note_off_c, 1, 72, 64
3, 542560, Note_off_c, 1, 76, 64
3, 542640, Note_on_c, 1, 76, 94
3, 542640, Note_on_c, 1, 72, 94
3, 542930, Note_off_c, 1, 76, 64
3, 542950, Note_off_c, 1, 72, 64
3, 543120, Note_on_c, 1, 81, 94
3, 543120, Note_on_c, 1, 77, 94
3, 543280, Note_off_c, 1, 77, 64
3, 543280, Note_off_c, 1, 81, 64
3, 543600, Note_on_c, 1, 79, 95
3, 543600, Note_on_c, 1, 76, 95
3, 543760, Note_off_c, 1, 76, 64
3, 543760, Note_off_c, 1, 79, 64
3, 544080, Note_on_c, 1, 77, 95
3, 544080, Note_on_c, 1, 74, 95
3, 544240, Note_off_c, 1, 74, 64
3, 544240, Note_off_c, 1, 77, 64
3, 544560, Note_on_c, 1, 76, 90
3, 544560, Note_on_c, 1, 72, 90
3, 544720, Note_off_c, 1, 72, 64
3, 544720, Note_off_c, 1, 76, 64
3, 545040, Note_on_c, 1, 74, 92
3, 545040, Note_on_c, 1, 71, 92
3, 545200, Note_off_c, 1, 71, 64
3, 545200, Note_off_c, 1, 74, 64
3, 545280, Note_on_c, 1, 72, 93
3, 545760, Note_off_c, 1, 72, 64
3, 546000, Note_on_c, 1, 76, 95
3, 546160, Note_off_c, 1, 76, 64
3, 546240, Note_on_c, 1, 76, 96
3, 546720, Note_off_c, 1, 76, 64
3, 546960, Note_on_c, 1, 72, 98
3, 547120, Note_off_c, 1, 72, 64
3, 547200, Note_on_c, 1, 72, 99
3, 547680, Note_off_c, 1, 72, 64
3, 547920, Note_on_c, 1, 79, 101
3, 548080, Note_off_c, 1, 79, 64
3, 548160, Note_on_c, 1, 79, 102
3, 548640, Note_off_c, 1, 79, 64
3, 548880, Note_on_c, 1, 72, 104
3, 549040, Note_off_c, 1, 72, 64
3, 549120, Note_on_c, 1, 72, 105
3, 549280, Note_off_c, 1, 72, 64
3, 549360, Note_on_c, 1, 84, 106
3, 549360, Note_on_c, 1, 76, 106
3, 549520, Note_off_c, 1, 76, 64
3, 549520, Note_off_c, 1, 84, 64
3, 549600, Note_on_c, 1, 84, 107
3, 549600, Note_on_c, 1, 76, 107
3, 549760, Note_off_c, 1, 76, 64
3, 549760, Note_off_c, 1, 84, 64
3, 549840, Note_on_c, 1, 84, 108
3, 549840, Note_on_c, 1, 76, 108
3, 550000, Note_off_c, 1, 76, 64
3, 550000, Note_off_c, 1, 84, 64
3, 550080, Note_on_c, 1, 84, 108
3, 550080, Note_on_c, 1, 76, 108
3, 550240, Note_off_c, 1, 76, 64
3, 550240, Note_off_c, 1, 84, 64
3, 550320, Note_on_c, 1, 84, 109
3, 550320, Note_on_c, 1, 76, 109
3, 550480, Note_off_c, 1, 76, 64
3, 550480, Note_off_c, 1, 84, 64
3, 550560, Note_on_c, 1, 84, 110
3, 550560, Note_on_c, 1, 76, 110
3, 550720, Note_off_c, 1, 76, 64
3, 550720, Note_off_c, 1, 84, 64
3, 550800, Note_on_c, 1, 84, 111
3, 550800, Note_on_c, 1, 76, 111
3, 550960, Note_off_c, 1, 76, 64
3, 550960, Note_off_c, 1, 84, 64
3, 551040, Note_on_c, 1, 84, 112
3, 551040, Note_on_c, 1, 76, 112
3, 551200, Note_off_c, 1, 76, 64
3, 551200, Note_off_c, 1, 84, 64
3, 552000, Note_on_c, 1, 76, 66
3, 552000, Note_on_c, 1, 72, 67
3, 552320, Note_off_c, 1, 72, 64
3, 552320, Note_off_c, 1, 76, 64
3, 574080, Note_on_c, 1, 81, 100
3, 574536, Note_off_c, 1, 81, 64
3, 574560, Note_on_c, 1, 72, 100
3, 574560, Note_on_c, 1, 84, 100
3, 575016, Note_off_c, 1, 84, 64
3, 575016, Note_off_c, 1, 72, 64
3, 575040, Note_on_c, 1, 74, 100
3, 575040, Note_on_c, 1, 82, 100
3, 575268, Note_off_c, 1, 82, 64
3, 575268, Note_off_c, 1, 74, 64
3, 575280, Note_on_c, 1, 70, 100
3, 575280, Note_on_c, 1, 79, 100
3, 575508, Note_off_c, 1, 79, 64
3, 575508, Note_off_c, 1, 70, 64
3, 575520, Note_on_c, 1, 69, 100
3, 575520, Note_on_c, 1, 77, 100
3, 575684, Note_off_c, 1, 77, 64
3, 575684, Note_off_c, 1, 69, 64
3, 587520, Note_on_c, 1, 81, 64
3, 587976, Note_off_c, 1, 81, 64
3, 588000, Note_on_c, 1, 82, 64
3, 588456, Note_off_c, 1, 82, 64
3, 588480, Note_on_c, 1, 81, 64
3, 588936, Note_off_c, 1, 81, 64
3, 588960, Note_on_c, 1, 77, 64
3, 589416, Note_off_c, 1, 77, 64
3, 589440, Note_on_c, 1, 79, 64
3, 589896, Note_off_c, 1, 79, 64
3, 589920, Note_on_c, 1, 77, 64
3, 590376, Note_off_c, 1, 77, 64
3, 590400, Note_on_c, 1, 77, 64
3, 590856, Note_off_c, 1, 77, 64
3, 590880, Note_on_c, 1, 76, 64
3, 591336, Note_off_c, 1, 76, 64
3, 591360, Note_on_c, 1, 77, 64
3, 591816, Note_off_c, 1, 77, 64
3, 598080, Note_on_c, 1, 72, 100
3, 598194, Note_off_c, 1, 72, 64
3, 598560, Note_on_c, 1, 77, 100
3, 598674, Note_off_c, 1, 77, 64
3, 599040, Note_on_c, 1, 72, 100
3, 599154, Note_off_c, 1, 72, 64
3, 599520, Note_on_c, 1, 74, 100
3, 599634, Note_off_c, 1, 74, 64
3, 600000, Note_on_c, 1, 72, 127
3, 600228, Note_off_c, 1, 72, 64
3, 600480, Note_on_c, 1, 69, 100
3, 600480, Note_on_c, 1, 81, 100
3, 600708, Note_off_c, 1, 81, 64
3, 600708, Note_off_c, 1, 69, 64
3, 600960, Note_on_c, 1, 70, 100
3, 600960, Note_on_c, 1, 82, 100
3, 601188, Note_off_c, 1, 82, 64
3, 601188, Note_off_c, 1, 70, 64
3, 601440, Note_on_c, 1, 81, 127
3, 601440, Note_on_c, 1, 69, 127
3, 601668, Note_off_c, 1, 69, 64
3, 601668, Note_off_c, 1, 81, 64
3, 601920, Note_on_c, 1, 65, 100
3, 601920, Note_on_c, 1, 77, 100
3, 602148, Note_off_c, 1, 77, 64
3, 602148, Note_off_c, 1, 65, 64
3, 602400, Note_on_c, 1, 79, 100
3, 602400, Note_on_c, 1, 67, 100
3, 602628, Note_off_c, 1, 67, 64
3, 602628, Note_off_c, 1, 79, 64
3, 602880, Note_on_c, 1, 81, 127
3, 602880, Note_on_c, 1, 69, 127
3, 603108, Note_off_c, 1, 69, 64
3, 603108, Note_off_c, 1, 81, 64
3, 603360, Note_on_c, 1, 65, 100
3, 603360, Note_on_c, 1, 77, 100
3, 603588, Note_off_c, 1, 77, 64
3, 603588, Note_off_c, 1, 65, 64
3, 603840, Note_on_c, 1, 79, 100
3, 603840, Note_on_c, 1, 67, 100
3, 604068, Note_off_c, 1, 67, 64
3, 604068, Note_off_c, 1, 79, 64
3, 604320, Note_on_c, 1, 81, 127
3, 604320, Note_on_c, 1, 69, 127
3, 604548, Note_off_c, 1, 69, 64
3, 604548, Note_off_c, 1, 81, 64
3, 604800, Note_on_c, 1, 65, 100
3, 604800, Note_on_c, 1, 77, 100
3, 605028, Note_off_c, 1, 77, 64
3, 605028, Note_off_c, 1, 65, 64
3, 605280, Note_on_c, 1, 79, 100
3, 605280, Note_on_c, 1, 67, 100
3, 605508, Note_off_c, 1, 67, 64
3, 605508, Note_off_c, 1, 79, 64
3, 605760, Note_on_c, 1, 81, 127
3, 605760, Note_on_c, 1, 69, 127
3, 605988, Note_off_c, 1, 69, 64
3, 605988, Note_off_c, 1, 81, 64
3, 606240, Note_on_c, 1, 65, 100
3, 606240, Note_on_c, 1, 77, 100
3, 606468, Note_off_c, 1, 77, 64
3, 606468, Note_off_c, 1, 65, 64
3, 606720, Note_on_c, 1, 79, 100
3, 606720, Note_on_c, 1, 67, 100
3, 606948, Note_off_c, 1, 67, 64
3, 606948, Note_off_c, 1, 79, 64
3, 607200, Note_on_c, 1, 81, 127
3, 607200, Note_on_c, 1, 69, 127
3, 608332, Note_off_c, 1, 69, 64
3, 608332, Note_off_c, 1, 81, 64
3, 608526, Note_on_c, 1, 79, 100
3, 608610, Note_on_c, 1, 81, 100
3, 608638, Note_off_c, 1, 79, 64
3, 608640, Note_on_c, 1, 79, 100
3, 608640, Note_on_c, 1, 67, 100
3, 608722, Note_off_c, 1, 81, 64
3, 609348, Note_off_c, 1, 67, 64
3, 609388, Note_off_c, 1, 79, 64
3, 609600, Note_on_c, 1, 77, 100
3, 609600, Note_on_c, 1, 65, 100
3, 609828, Note_off_c, 1, 65, 64
3, 609874, Note_off_c, 1, 77, 64
3, 610020, Note_on_c, 1, 76, 100
3, 610048, Note_off_c, 1, 76, 64
3, 610050, Note_on_c, 1, 77, 100
3, 610078, Note_off_c, 1, 77, 64
3, 610080, Note_on_c, 1, 76, 100
3, 610080, Note_on_c, 1, 64, 100
3, 610788, Note_off_c, 1, 64, 64
3, 610828, Note_off_c, 1, 76, 64
3, 611040, Note_on_c, 1, 74, 100
3, 611040, Note_on_c, 1, 62, 100
3, 611268, Note_off_c, 1, 62, 64
3, 611314, Note_off_c, 1, 74, 64
3, 611520, Note_on_c, 1, 72, 100
3, 611520, Note_on_c, 1, 60, 100
3, 612298, Note_off_c, 1, 60, 64
3, 612344, Note_off_c, 1, 72, 64
3, 612480, Note_on_c, 1, 76, 100
3, 612480, Note_on_c, 1, 72, 100
3, 612708, Note_off_c, 1, 72, 64
3, 612772, Note_off_c, 1, 76, 64
3, 612960, Note_on_c, 1, 72, 120
3, 612960, Note_on_c, 1, 77, 120
3, 613896, Note_off_c, 1, 77, 64
3, 613896, Note_off_c, 1, 72, 64
3, 614400, Note_on_c, 1, 67, 120
3, 614400, Note_on_c, 1, 77, 120
3, 615336, Note_off_c, 1, 77, 64
3, 615336, Note_off_c, 1, 67, 64
3, 615840, Note_on_c, 1, 77, 120
3, 615840, Note_on_c, 1, 69, 120
3, 616776, Note_off_c, 1, 69, 64
3, 616776, Note_off_c, 1, 77, 64
3, 617280, Note_on_c, 1, 76, 120
3, 617280, Note_on_c, 1, 72, 120
3, 618216, Note_off_c, 1, 72, 64
3, 618216, Note_off_c, 1, 76, 64
3, 618720, Note_on_c, 1, 77, 110
3, 618720, Note_on_c, 1, 72, 110
3, 619326, Note_off_c, 1, 72, 64
3, 619326, Note_off_c, 1, 77, 64
3, 619680, Note_on_c, 1, 81, 110
3, 619876, Note_off_c, 1, 81, 64
3, 620046, Note_on_c, 1, 79, 100
3, 620130, Note_on_c, 1, 81, 100
3, 620158, Note_off_c, 1, 79, 64
3, 620160, Note_on_c, 1, 79, 100
3, 620242, Note_off_c, 1, 81, 64
3, 620908, Note_off_c, 1, 79, 64
3, 621120, Note_on_c, 1, 77, 100
3, 621394, Note_off_c, 1, 77, 64
3, 621486, Note_on_c, 1, 76, 100
3, 621514, Note_off_c, 1, 76, 64
3, 621570, Note_on_c, 1, 77, 100
3, 621598, Note_off_c, 1, 77, 64
3, 621600, Note_on_c, 1, 76, 100
3, 622348, Note_off_c, 1, 76, 64
3, 622560, Note_on_c, 1, 74, 100
3, 622834, Note_off_c, 1, 74, 64
3, 623040, Note_on_c, 1, 72, 100
3, 623788, Note_off_c, 1, 72, 64
3, 624000, Note_on_c, 1, 72, 100
3, 624000, Note_on_c, 1, 76, 100
3, 624228, Note_off_c, 1, 76, 64
3, 624228, Note_off_c, 1, 72, 64
3, 624480, Note_on_c, 1, 72, 100
3, 624480, Note_on_c, 1, 77, 100
3, 625416, Note_off_c, 1, 77, 64
3, 625416, Note_off_c, 1, 72, 64
3, 625920, Note_on_c, 1, 77, 100
3, 625920, Note_on_c, 1, 79, 100
3, 626856, Note_off_c, 1, 79, 64
3, 626856, Note_off_c, 1, 77, 64
3, 627360, Note_on_c, 1, 77, 100
3, 627360, Note_on_c, 1, 81, 100
3, 628296, Note_off_c, 1, 81, 64
3, 628296, Note_off_c, 1, 77, 64
3, 628800, Note_on_c, 1, 76, 100
3, 628800, Note_on_c, 1, 79, 100
3, 629736, Note_off_c, 1, 79, 64
3, 629736, Note_off_c, 1, 76, 64
3, 630240, Note_on_c, 1, 77, 100
3, 630240, Note_on_c, 1, 81, 100
3, 630696, Note_off_c, 1, 81, 64
3, 630696, Note_off_c, 1, 77, 64
3, 634560, Note_on_c, 1, 79, 100
3, 634560, Note_on_c, 1, 76, 100
3, 634788, Note_off_c, 1, 76, 64
3, 634788, Note_off_c, 1, 79, 64
3, 635040, Note_on_c, 1, 79, 100
3, 635040, Note_on_c, 1, 76, 100
3, 635268, Note_off_c, 1, 76, 64
3, 635268, Note_off_c, 1, 79, 64
3, 635520, Note_on_c, 1, 79, 100
3, 635520, Note_on_c, 1, 76, 100
3, 635748, Note_off_c, 1, 76, 64
3, 635748, Note_off_c, 1, 79, 64
3, 636000, Note_on_c, 1, 81, 100
3, 636000, Note_on_c, 1, 77, 100
3, 636456, Note_off_c, 1, 77, 64
3, 636456, Note_off_c, 1, 81, 64
3, 640320, Note_on_c, 1, 79, 90
3, 640320, Note_on_c, 1, 76, 90
3, 640548, Note_off_c, 1, 76, 64
3, 640548, Note_off_c, 1, 79, 64
3, 640800, Note_on_c, 1, 79, 90
3, 640800, Note_on_c, 1, 76, 90
3, 641028, Note_off_c, 1, 76, 64
3, 641028, Note_off_c, 1, 79, 64
3, 641280, Note_on_c, 1, 79, 90
3, 641280, Note_on_c, 1, 76, 90
3, 641554, Note_off_c, 1, 76, 64
3, 641554, Note_off_c, 1, 79, 64
3, 641554, End_track
4, 0, Start_track
4, 0, Title_t, "Clarinet"
4, 0, MIDI_port, 0
4, 0, Channel_prefix, 2
4, 0, Control_c, 2, 7, 99
4, 0, Control_c, 2, 10, 64
4, 0, Control_c, 2, 0, 0
4, 0, Control_c, 2, 32, 0
4, 0, Control_c, 2, 91, 55
4, 0, Program_c, 2, 71
4, 52800, Note_on_c, 2, 74, 32
4, 52800, Note_on_c, 2, 62, 32
4, 52960, Note_off_c, 2, 62, 64
4, 52960, Note_off_c, 2, 74, 64
4, 53280, Note_on_c, 2, 79, 32
4, 53280, Note_on_c, 2, 67, 32
4, 53440, Note_off_c, 2, 67, 64
4, 53440, Note_off_c, 2, 79, 64
4, 53760, Note_on_c, 2, 74, 32
4, 53760, Note_on_c, 2, 62, 32
4, 53920, Note_off_c, 2, 62, 64
4, 53920, Note_off_c, 2, 74, 64
4, 54240, Note_on_c, 2, 76, 32
4, 54240, Note_on_c, 2, 64, 32
4, 54400, Note_off_c, 2, 64, 64
4, 54400, Note_off_c, 2, 76, 64
4, 54720, Note_on_c, 2, 74, 32
4, 54720, Note_on_c, 2, 62, 32
4, 54880, Note_off_c, 2, 62, 64
4, 54880, Note_off_c, 2, 74, 64
4, 55200, Note_on_c, 2, 71, 32
4, 55200, Note_on_c, 2, 59, 32
4, 55360, Note_off_c, 2, 59, 64
4, 55360, Note_off_c, 2, 71, 64
4, 55680, Note_on_c, 2, 72, 32
4, 55680, Note_on_c, 2, 60, 32
4, 55840, Note_off_c, 2, 60, 64
4, 55840, Note_off_c, 2, 72, 64
4, 56160, Note_on_c, 2, 71, 32
4, 56160, Note_on_c, 2, 59, 32
4, 56320, Note_off_c, 2, 59, 64
4, 56320, Note_off_c, 2, 71, 64
4, 56640, Note_on_c, 2, 67, 32
4, 56640, Note_on_c, 2, 55, 32
4, 56800, Note_off_c, 2, 55, 64
4, 56800, Note_off_c, 2, 67, 64
4, 57120, Note_on_c, 2, 69, 32
4, 57120, Note_on_c, 2, 57, 32
4, 57280, Note_off_c, 2, 57, 64
4, 57280, Note_off_c, 2, 69, 64
4, 57600, Note_on_c, 2, 71, 32
4, 57600, Note_on_c, 2, 59, 32
4, 57760, Note_off_c, 2, 59, 64
4, 57760, Note_off_c, 2, 71, 64
4, 58080, Note_on_c, 2, 67, 32
4, 58080, Note_on_c, 2, 55, 32
4, 58240, Note_off_c, 2, 55, 64
4, 58240, Note_off_c, 2, 67, 64
4, 65280, Note_on_c, 2, 67, 64
4, 65280, Note_on_c, 2, 64, 64
4, 65600, Note_off_c, 2, 64, 64
4, 65600, Note_off_c, 2, 67, 64
4, 65760, Note_on_c, 2, 69, 64
4, 65760, Note_on_c, 2, 65, 64
4, 66080, Note_off_c, 2, 65, 64
4, 66080, Note_off_c, 2, 69, 64
4, 66240, Note_on_c, 2, 67, 64
4, 66240, Note_on_c, 2, 64, 64
4, 66560, Note_off_c, 2, 64, 64
4, 66560, Note_off_c, 2, 67, 64
4, 66720, Note_on_c, 2, 67, 64
4, 66720, Note_on_c, 2, 60, 64
4, 67040, Note_off_c, 2, 60, 64
4, 67040, Note_off_c, 2, 67, 64
4, 67200, Note_on_c, 2, 69, 64
4, 67200, Note_on_c, 2, 60, 64
4, 67520, Note_off_c, 2, 60, 64
4, 67520, Note_off_c, 2, 69, 64
4, 67680, Note_on_c, 2, 67, 64
4, 67680, Note_on_c, 2, 60, 64
4, 68000, Note_off_c, 2, 60, 64
4, 68000, Note_off_c, 2, 67, 64
4, 68160, Note_on_c, 2, 72, 64
4, 68160, Note_on_c, 2, 64, 64
4, 68480, Note_off_c, 2, 64, 64
4, 68480, Note_off_c, 2, 72, 64
4, 68640, Note_on_c, 2, 71, 64
4, 68640, Note_on_c, 2, 65, 64
4, 68960, Note_off_c, 2, 65, 64
4, 68960, Note_off_c, 2, 71, 64
4, 69120, Note_on_c, 2, 72, 64
4, 69120, Note_on_c, 2, 64, 64
4, 69440, Note_off_c, 2, 64, 64
4, 69440, Note_off_c, 2, 72, 64
4, 72960, Note_on_c, 2, 72, 69
4, 72960, Note_on_c, 2, 60, 69
4, 73280, Note_off_c, 2, 60, 64
4, 73280, Note_off_c, 2, 72, 64
4, 73440, Note_on_c, 2, 72, 73
4, 73440, Note_on_c, 2, 60, 73
4, 73760, Note_off_c, 2, 60, 64
4, 73760, Note_off_c, 2, 72, 64
4, 73920, Note_on_c, 2, 72, 76
4, 73920, Note_on_c, 2, 60, 76
4, 74240, Note_off_c, 2, 60, 64
4, 74240, Note_off_c, 2, 72, 64
4, 74400, Note_on_c, 2, 72, 80
4, 74400, Note_on_c, 2, 60, 80
4, 74720, Note_off_c, 2, 60, 64
4, 74720, Note_off_c, 2, 72, 64
4, 74880, Note_on_c, 2, 72, 84
4, 74880, Note_on_c, 2, 60, 84
4, 75200, Note_off_c, 2, 60, 64
4, 75200, Note_off_c, 2, 72, 64
4, 75360, Note_on_c, 2, 72, 88
4, 75360, Note_on_c, 2, 60, 88
4, 75680, Note_off_c, 2, 60, 64
4, 75680, Note_off_c, 2, 72, 64
4, 75840, Note_on_c, 2, 72, 92
4, 75840, Note_on_c, 2, 60, 92
4, 76160, Note_off_c, 2, 60, 64
4, 76160, Note_off_c, 2, 72, 64
4, 76320, Note_on_c, 2, 77, 96
4, 76320, Note_on_c, 2, 65, 96
4, 76640, Note_off_c, 2, 65, 64
4, 76640, Note_off_c, 2, 77, 64
4, 76800, Note_on_c, 2, 77, 96
4, 76800, Note_on_c, 2, 65, 96
4, 77120, Note_off_c, 2, 65, 64
4, 77120, Note_off_c, 2, 77, 64
4, 77280, Note_on_c, 2, 77, 96
4, 77280, Note_on_c, 2, 65, 96
4, 77600, Note_off_c, 2, 65, 64
4, 77600, Note_off_c, 2, 77, 64
4, 77760, Note_on_c, 2, 77, 96
4, 77760, Note_on_c, 2, 65, 96
4, 78080, Note_off_c, 2, 65, 64
4, 78080, Note_off_c, 2, 77, 64
4, 78240, Note_on_c, 2, 77, 96
4, 78240, Note_on_c, 2, 65, 96
4, 78560, Note_off_c, 2, 65, 64
4, 78560, Note_off_c, 2, 77, 64
4, 78720, Note_on_c, 2, 77, 96
4, 78720, Note_on_c, 2, 65, 96
4, 79040, Note_off_c, 2, 65, 64
4, 79040, Note_off_c, 2, 77, 64
4, 79200, Note_on_c, 2, 77, 117
4, 79200, Note_on_c, 2, 65, 115
4, 79520, Note_off_c, 2, 65, 64
4, 79520, Note_off_c, 2, 77, 64
4, 79680, Note_on_c, 2, 77, 96
4, 79680, Note_on_c, 2, 65, 96
4, 80000, Note_off_c, 2, 65, 64
4, 80000, Note_off_c, 2, 77, 64
4, 80160, Note_on_c, 2, 79, 96
4, 80160, Note_on_c, 2, 67, 96
4, 80480, Note_off_c, 2, 67, 64
4, 80480, Note_off_c, 2, 79, 64
4, 80640, Note_on_c, 2, 81, 118
4, 80640, Note_on_c, 2, 69, 118
4, 80960, Note_off_c, 2, 69, 64
4, 80960, Note_off_c, 2, 81, 64
4, 81120, Note_on_c, 2, 77, 96
4, 81120, Note_on_c, 2, 65, 96
4, 81440, Note_off_c, 2, 65, 64
4, 81440, Note_off_c, 2, 77, 64
4, 81600, Note_on_c, 2, 79, 96
4, 81600, Note_on_c, 2, 67, 96
4, 81920, Note_off_c, 2, 67, 64
4, 81920, Note_off_c, 2, 79, 64
4, 82080, Note_on_c, 2, 81, 118
4, 82080, Note_on_c, 2, 69, 114
4, 82400, Note_off_c, 2, 69, 64
4, 82400, Note_off_c, 2, 81, 64
4, 82560, Note_on_c, 2, 77, 96
4, 82560, Note_on_c, 2, 65, 96
4, 82880, Note_off_c, 2, 65, 64
4, 82880, Note_off_c, 2, 77, 64
4, 83040, Note_on_c, 2, 79, 96
4, 83040, Note_on_c, 2, 67, 96
4, 83360, Note_off_c, 2, 67, 64
4, 83360, Note_off_c, 2, 79, 64
4, 83520, Note_on_c, 2, 81, 120
4, 83520, Note_on_c, 2, 69, 120
4, 83840, Note_off_c, 2, 69, 64
4, 83840, Note_off_c, 2, 81, 64
4, 84000, Note_on_c, 2, 77, 96
4, 84000, Note_on_c, 2, 65, 96
4, 84320, Note_off_c, 2, 65, 64
4, 84320, Note_off_c, 2, 77, 64
4, 84480, Note_on_c, 2, 79, 96
4, 84480, Note_on_c, 2, 67, 96
4, 84800, Note_off_c, 2, 67, 64
4, 84800, Note_off_c, 2, 79, 64
4, 84960, Note_on_c, 2, 81, 116
4, 84960, Note_on_c, 2, 69, 119
4, 86060, Note_off_c, 2, 69, 64
4, 86074, Note_off_c, 2, 81, 64
4, 86400, Note_on_c, 2, 79, 96
4, 86400, Note_on_c, 2, 67, 96
4, 87040, Note_off_c, 2, 67, 64
4, 87040, Note_off_c, 2, 79, 64
4, 87360, Note_on_c, 2, 77, 96
4, 87360, Note_on_c, 2, 65, 96
4, 87680, Note_off_c, 2, 65, 64
4, 87680, Note_off_c, 2, 77, 64
4, 87840, Note_on_c, 2, 76, 96
4, 87840, Note_on_c, 2, 64, 96
4, 88480, Note_off_c, 2, 64, 64
4, 88480, Note_off_c, 2, 76, 64
4, 88800, Note_on_c, 2, 74, 96
4, 88800, Note_on_c, 2, 62, 96
4, 89120, Note_off_c, 2, 62, 64
4, 89120, Note_off_c, 2, 74, 64
4, 89280, Note_on_c, 2, 72, 96
4, 89280, Note_on_c, 2, 60, 96
4, 89920, Note_off_c, 2, 60, 64
4, 89920, Note_off_c, 2, 72, 64
4, 90240, Note_on_c, 2, 72, 96
4, 90240, Note_on_c, 2, 67, 96
4, 90560, Note_off_c, 2, 67, 64
4, 90560, Note_off_c, 2, 72, 64
4, 90720, Note_on_c, 2, 72, 105
4, 90720, Note_on_c, 2, 65, 107
4, 91840, Note_off_c, 2, 72, 64
4, 91870, Note_off_c, 2, 65, 64
4, 92160, Note_on_c, 2, 74, 106
4, 92160, Note_on_c, 2, 77, 109
4, 93284, Note_off_c, 2, 77, 64
4, 93300, Note_off_c, 2, 74, 64
4, 93600, Note_on_c, 2, 72, 108
4, 93600, Note_on_c, 2, 69, 108
4, 94734, Note_off_c, 2, 72, 64
4, 94740, Note_off_c, 2, 69, 64
4, 95040, Note_on_c, 2, 72, 104
4, 95040, Note_on_c, 2, 64, 109
4, 96194, Note_off_c, 2, 72, 64
4, 96200, Note_off_c, 2, 64, 64
4, 96480, Note_on_c, 2, 72, 96
4, 96480, Note_on_c, 2, 65, 96
4, 96800, Note_off_c, 2, 65, 64
4, 96800, Note_off_c, 2, 72, 64
4, 100320, Note_on_c, 2, 72, 96
4, 100320, Note_on_c, 2, 60, 96
4, 100640, Note_off_c, 2, 60, 64
4, 100640, Note_off_c, 2, 72, 64
4, 100800, Note_on_c, 2, 72, 96
4, 100800, Note_on_c, 2, 60, 96
4, 101440, Note_off_c, 2, 60, 64
4, 101440, Note_off_c, 2, 72, 64
4, 101760, Note_on_c, 2, 64, 96
4, 101760, Note_on_c, 2, 67, 96
4, 102080, Note_off_c, 2, 67, 64
4, 102080, Note_off_c, 2, 64, 64
4, 102240, Note_on_c, 2, 69, 96
4, 102240, Note_on_c, 2, 65, 96
4, 103370, Note_off_c, 2, 69, 64
4, 103394, Note_off_c, 2, 65, 64
4, 103680, Note_on_c, 2, 65, 96
4, 103680, Note_on_c, 2, 67, 96
4, 104824, Note_off_c, 2, 65, 64
4, 104840, Note_off_c, 2, 67, 64
4, 105120, Note_on_c, 2, 69, 96
4, 105120, Note_on_c, 2, 65, 96
4, 106290, Note_off_c, 2, 65, 64
4, 106290, Note_off_c, 2, 69, 64
4, 106560, Note_on_c, 2, 67, 96
4, 106560, Note_on_c, 2, 64, 96
4, 107700, Note_off_c, 2, 67, 64
4, 107734, Note_off_c, 2, 64, 64
4, 108000, Note_on_c, 2, 65, 110
4, 108000, Note_on_c, 2, 57, 111
4, 108320, Note_off_c, 2, 57, 64
4, 108320, Note_off_c, 2, 65, 64
4, 112320, Note_on_c, 2, 67, 109
4, 112320, Note_on_c, 2, 76, 111
4, 112640, Note_off_c, 2, 76, 64
4, 112640, Note_off_c, 2, 67, 64
4, 112800, Note_on_c, 2, 67, 96
4, 112800, Note_on_c, 2, 76, 96
4, 113120, Note_off_c, 2, 76, 64
4, 113120, Note_off_c, 2, 67, 64
4, 113280, Note_on_c, 2, 67, 96
4, 113280, Note_on_c, 2, 76, 96
4, 113600, Note_off_c, 2, 76, 64
4, 113600, Note_off_c, 2, 67, 64
4, 113760, Note_on_c, 2, 77, 114
4, 113760, Note_on_c, 2, 69, 114
4, 114080, Note_off_c, 2, 69, 64
4, 114080, Note_off_c, 2, 77, 64
4, 118080, Note_on_c, 2, 67, 110
4, 118080, Note_on_c, 2, 76, 108
4, 118400, Note_off_c, 2, 76, 64
4, 118400, Note_off_c, 2, 67, 64
4, 118560, Note_on_c, 2, 67, 96
4, 118560, Note_on_c, 2, 76, 96
4, 118880, Note_off_c, 2, 76, 64
4, 118880, Note_off_c, 2, 67, 64
4, 119040, Note_on_c, 2, 67, 96
4, 119040, Note_on_c, 2, 76, 96
4, 119360, Note_off_c, 2, 76, 64
4, 119360, Note_off_c, 2, 67, 64
4, 119520, Note_on_c, 2, 77, 116
4, 119520, Note_on_c, 2, 69, 113
4, 119840, Note_off_c, 2, 69, 64
4, 119840, Note_off_c, 2, 77, 64
4, 122400, Note_on_c, 2, 77, 97
4, 122400, Note_on_c, 2, 69, 98
4, 122720, Note_off_c, 2, 69, 64
4, 122720, Note_off_c, 2, 77, 64
4, 164160, Note_on_c, 2, 81, 64
4, 164634, Note_off_c, 2, 81, 64
4, 164640, Note_on_c, 2, 82, 64
4, 165114, Note_off_c, 2, 82, 64
4, 165120, Note_on_c, 2, 84, 64
4, 166074, Note_off_c, 2, 84, 64
4, 175680, Note_on_c, 2, 82, 64
4, 176150, Note_off_c, 2, 82, 64
4, 176160, Note_on_c, 2, 81, 64
4, 176610, Note_off_c, 2, 81, 64
4, 176640, Note_on_c, 2, 77, 64
4, 177104, Note_off_c, 2, 77, 64
4, 177120, Note_on_c, 2, 79, 64
4, 177440, Note_off_c, 2, 79, 64
4, 177600, Note_on_c, 2, 72, 64
4, 177774, Note_off_c, 2, 72, 64
4, 178080, Note_on_c, 2, 76, 64
4, 178880, Note_off_c, 2, 76, 64
4, 179040, Note_on_c, 2, 72, 70
4, 179174, Note_off_c, 2, 72, 64
4, 179520, Note_on_c, 2, 67, 70
4, 180320, Note_off_c, 2, 67, 64
4, 180480, Note_on_c, 2, 71, 70
4, 180640, Note_off_c, 2, 71, 64
4, 180720, Note_on_c, 2, 72, 70
4, 180880, Note_off_c, 2, 72, 64
4, 180960, Note_on_c, 2, 74, 70
4, 181760, Note_off_c, 2, 74, 64
4, 181920, Note_on_c, 2, 72, 70
4, 182240, Note_off_c, 2, 72, 64
4, 182400, Note_on_c, 2, 74, 70
4, 182720, Note_off_c, 2, 74, 64
4, 182880, Note_on_c, 2, 76, 70
4, 183340, Note_off_c, 2, 76, 64
4, 183360, Note_on_c, 2, 74, 70
4, 183804, Note_off_c, 2, 74, 64
4, 183840, Note_on_c, 2, 72, 70
4, 184304, Note_off_c, 2, 72, 64
4, 184320, Note_on_c, 2, 74, 70
4, 184794, Note_off_c, 2, 74, 64
4, 184800, Note_on_c, 2, 76, 70
4, 185264, Note_off_c, 2, 76, 64
4, 185280, Note_on_c, 2, 77, 70
4, 185730, Note_off_c, 2, 77, 64
4, 185760, Note_on_c, 2, 76, 70
4, 186210, Note_off_c, 2, 76, 64
4, 186240, Note_on_c, 2, 77, 70
4, 186714, Note_off_c, 2, 77, 64
4, 186720, Note_on_c, 2, 79, 70
4, 188800, Note_off_c, 2, 79, 64
4, 188880, Note_on_c, 2, 82, 70
4, 189040, Note_off_c, 2, 82, 64
4, 189120, Note_on_c, 2, 79, 70
4, 189280, Note_off_c, 2, 79, 64
4, 189360, Note_on_c, 2, 76, 70
4, 189520, Note_off_c, 2, 76, 64
4, 189600, Note_on_c, 2, 72, 70
4, 189760, Note_off_c, 2, 72, 64
4, 189840, Note_on_c, 2, 70, 83
4, 190000, Note_off_c, 2, 70, 64
4, 190080, Note_on_c, 2, 67, 70
4, 190310, Note_off_c, 2, 67, 64
4, 190320, Note_on_c, 2, 64, 70
4, 190550, Note_off_c, 2, 64, 64
4, 190560, Note_on_c, 2, 60, 70
4, 190790, Note_off_c, 2, 60, 64
4, 190800, Note_on_c, 2, 58, 70
4, 191030, Note_off_c, 2, 58, 64
4, 191040, Note_on_c, 2, 55, 70
4, 191270, Note_off_c, 2, 55, 64
4, 191280, Note_on_c, 2, 52, 70
4, 191510, Note_off_c, 2, 52, 64
4, 191520, Note_on_c, 2, 53, 70
4, 191834, Note_off_c, 2, 53, 64
4, 206400, Note_on_c, 2, 79, 64
4, 206720, Note_off_c, 2, 79, 64
4, 206880, Note_on_c, 2, 82, 64
4, 207680, Note_off_c, 2, 82, 64
4, 207840, Note_on_c, 2, 79, 64
4, 208160, Note_off_c, 2, 79, 64
4, 208320, Note_on_c, 2, 72, 64
4, 208640, Note_off_c, 2, 72, 64
4, 208800, Note_on_c, 2, 77, 64
4, 209120, Note_off_c, 2, 77, 64
4, 215040, Note_on_c, 2, 77, 64
4, 215360, Note_off_c, 2, 77, 64
4, 215520, Note_on_c, 2, 79, 64
4, 215840, Note_off_c, 2, 79, 64
4, 216000, Note_on_c, 2, 81, 64
4, 216320, Note_off_c, 2, 81, 64
4, 216480, Note_on_c, 2, 79, 64
4, 216800, Note_off_c, 2, 79, 64
4, 216960, Note_on_c, 2, 77, 64
4, 217280, Note_off_c, 2, 77, 64
4, 217440, Note_on_c, 2, 76, 64
4, 218080, Note_off_c, 2, 76, 64
4, 218400, Note_on_c, 2, 77, 64
4, 218720, Note_off_c, 2, 77, 64
4, 218880, Note_on_c, 2, 79, 64
4, 219200, Note_off_c, 2, 79, 64
4, 219360, Note_on_c, 2, 70, 64
4, 219680, Note_off_c, 2, 70, 64
4, 219840, Note_on_c, 2, 72, 64
4, 220160, Note_off_c, 2, 72, 64
4, 220320, Note_on_c, 2, 69, 64
4, 220640, Note_off_c, 2, 69, 64
4, 221760, Note_on_c, 2, 77, 67
4, 222080, Note_off_c, 2, 77, 64
4, 222240, Note_on_c, 2, 81, 68
4, 222560, Note_off_c, 2, 81, 64
4, 222720, Note_on_c, 2, 79, 69
4, 223040, Note_off_c, 2, 79, 64
4, 224640, Note_on_c, 2, 76, 73
4, 224960, Note_off_c, 2, 76, 64
4, 225120, Note_on_c, 2, 79, 74
4, 225440, Note_off_c, 2, 79, 64
4, 225600, Note_on_c, 2, 77, 75
4, 225920, Note_off_c, 2, 77, 64
4, 226080, Note_on_c, 2, 77, 76
4, 227040, Note_off_c, 2, 77, 64
4, 227520, Note_on_c, 2, 81, 79
4, 227840, Note_off_c, 2, 81, 64
4, 228000, Note_on_c, 2, 84, 80
4, 228320, Note_off_c, 2, 84, 64
4, 228480, Note_on_c, 2, 82, 81
4, 228800, Note_off_c, 2, 82, 64
4, 230400, Note_on_c, 2, 79, 85
4, 230720, Note_off_c, 2, 79, 64
4, 230880, Note_on_c, 2, 82, 86
4, 231200, Note_off_c, 2, 82, 64
4, 231360, Note_on_c, 2, 81, 87
4, 231680, Note_off_c, 2, 81, 64
4, 231840, Note_on_c, 2, 77, 96
4, 232160, Note_off_c, 2, 77, 64
4, 237600, Note_on_c, 2, 72, 85
4, 237600, Note_on_c, 2, 69, 85
4, 238320, Note_off_c, 2, 69, 64
4, 238320, Note_off_c, 2, 72, 64
4, 238560, Note_on_c, 2, 72, 85
4, 238560, Note_on_c, 2, 69, 85
4, 239280, Note_off_c, 2, 69, 64
4, 239280, Note_off_c, 2, 72, 64
4, 239520, Note_on_c, 2, 74, 85
4, 239520, Note_on_c, 2, 70, 85
4, 240240, Note_off_c, 2, 70, 64
4, 240240, Note_off_c, 2, 74, 64
4, 240480, Note_on_c, 2, 69, 85
4, 240480, Note_on_c, 2, 75, 85
4, 240954, Note_off_c, 2, 75, 64
4, 240954, Note_off_c, 2, 69, 64
4, 240960, Note_on_c, 2, 74, 85
4, 240960, Note_on_c, 2, 70, 85
4, 241280, Note_off_c, 2, 70, 64
4, 241280, Note_off_c, 2, 74, 64
4, 241440, Note_on_c, 2, 72, 85
4, 241440, Note_on_c, 2, 69, 85
4, 242160, Note_off_c, 2, 69, 64
4, 242160, Note_off_c, 2, 72, 64
4, 242400, Note_on_c, 2, 72, 85
4, 242400, Note_on_c, 2, 69, 85
4, 243120, Note_off_c, 2, 69, 64
4, 243120, Note_off_c, 2, 72, 64
4, 243360, Note_on_c, 2, 74, 85
4, 243360, Note_on_c, 2, 70, 85
4, 244080, Note_off_c, 2, 70, 64
4, 244080, Note_off_c, 2, 74, 64
4, 244320, Note_on_c, 2, 69, 85
4, 244320, Note_on_c, 2, 75, 85
4, 244794, Note_off_c, 2, 75, 64
4, 244794, Note_off_c, 2, 69, 64
4, 244800, Note_on_c, 2, 74, 85
4, 244800, Note_on_c, 2, 70, 85
4, 245120, Note_off_c, 2, 70, 64
4, 245120, Note_off_c, 2, 74, 64
4, 245280, Note_on_c, 2, 72, 85
4, 245280, Note_on_c, 2, 69, 85
4, 246000, Note_off_c, 2, 69, 64
4, 246000, Note_off_c, 2, 72, 64
4, 246240, Note_on_c, 2, 72, 85
4, 246240, Note_on_c, 2, 69, 85
4, 246960, Note_off_c, 2, 69, 64
4, 246960, Note_off_c, 2, 72, 64
4, 247200, Note_on_c, 2, 74, 85
4, 247200, Note_on_c, 2, 70, 85
4, 247920, Note_off_c, 2, 70, 64
4, 247920, Note_off_c, 2, 74, 64
4, 248160, Note_on_c, 2, 69, 85
4, 248160, Note_on_c, 2, 75, 85
4, 248634, Note_off_c, 2, 75, 64
4, 248634, Note_off_c, 2, 69, 64
4, 248640, Note_on_c, 2, 74, 85
4, 248640, Note_on_c, 2, 70, 85
4, 248960, Note_off_c, 2, 70, 64
4, 248960, Note_off_c, 2, 74, 64
4, 249120, Note_on_c, 2, 72, 85
4, 249120, Note_on_c, 2, 69, 85
4, 249840, Note_off_c, 2, 69, 64
4, 249840, Note_off_c, 2, 72, 64
4, 250080, Note_on_c, 2, 72, 85
4, 250080, Note_on_c, 2, 69, 85
4, 250800, Note_off_c, 2, 69, 64
4, 250800, Note_off_c, 2, 72, 64
4, 251040, Note_on_c, 2, 74, 85
4, 251040, Note_on_c, 2, 70, 85
4, 251760, Note_off_c, 2, 70, 64
4, 251760, Note_off_c, 2, 74, 64
4, 252000, Note_on_c, 2, 69, 85
4, 252000, Note_on_c, 2, 75, 85
4, 252474, Note_off_c, 2, 75, 64
4, 252474, Note_off_c, 2, 69, 64
4, 252480, Note_on_c, 2, 74, 85
4, 252480, Note_on_c, 2, 70, 85
4, 252800, Note_off_c, 2, 70, 64
4, 252800, Note_off_c, 2, 74, 64
4, 254880, Note_on_c, 2, 65, 85
4, 254880, Note_on_c, 2, 69, 85
4, 255630, Note_off_c, 2, 69, 64
4, 255640, Note_off_c, 2, 65, 64
4, 255840, Note_on_c, 2, 67, 85
4, 255840, Note_on_c, 2, 64, 85
4, 256314, Note_off_c, 2, 64, 64
4, 256314, Note_off_c, 2, 67, 64
4, 256320, Note_on_c, 2, 69, 85
4, 256320, Note_on_c, 2, 65, 85
4, 256544, Note_off_c, 2, 69, 64
4, 256550, Note_off_c, 2, 65, 64
4, 258720, Note_on_c, 2, 65, 85
4, 258720, Note_on_c, 2, 69, 85
4, 259470, Note_off_c, 2, 69, 64
4, 259480, Note_off_c, 2, 65, 64
4, 259680, Note_on_c, 2, 67, 85
4, 259680, Note_on_c, 2, 64, 85
4, 260154, Note_off_c, 2, 64, 64
4, 260154, Note_off_c, 2, 67, 64
4, 260160, Note_on_c, 2, 69, 85
4, 260160, Note_on_c, 2, 65, 85
4, 260384, Note_off_c, 2, 69, 64
4, 260390, Note_off_c, 2, 65, 64
4, 260640, Note_on_c, 2, 72, 88
4, 260640, Note_on_c, 2, 64, 88
4, 260960, Note_off_c, 2, 64, 64
4, 260960, Note_off_c, 2, 72, 64
4, 261120, Note_on_c, 2, 77, 88
4, 261120, Note_on_c, 2, 74, 88
4, 261440, Note_off_c, 2, 74, 64
4, 261440, Note_off_c, 2, 77, 64
4, 261600, Note_on_c, 2, 76, 89
4, 261600, Note_on_c, 2, 72, 89
4, 262080, Note_off_c, 2, 72, 64
4, 262080, Note_off_c, 2, 76, 64
4, 262320, Note_on_c, 2, 69, 90
4, 262320, Note_on_c, 2, 65, 90
4, 262480, Note_off_c, 2, 65, 64
4, 262480, Note_off_c, 2, 69, 64
4, 262560, Note_on_c, 2, 67, 90
4, 262560, Note_on_c, 2, 64, 90
4, 262720, Note_off_c, 2, 64, 64
4, 262720, Note_off_c, 2, 67, 64
4, 263040, Note_on_c, 2, 62, 90
4, 263040, Note_on_c, 2, 65, 90
4, 263200, Note_off_c, 2, 65, 64
4, 263200, Note_off_c, 2, 62, 64
4, 263520, Note_on_c, 2, 64, 91
4, 263520, Note_on_c, 2, 60, 91
4, 263680, Note_off_c, 2, 60, 64
4, 263680, Note_off_c, 2, 64, 64
4, 264000, Note_on_c, 2, 62, 92
4, 264000, Note_on_c, 2, 71, 92
4, 264160, Note_off_c, 2, 71, 64
4, 264160, Note_off_c, 2, 62, 64
4, 264480, Note_on_c, 2, 72, 92
4, 264480, Note_on_c, 2, 64, 92
4, 264640, Note_off_c, 2, 64, 64
4, 264640, Note_off_c, 2, 72, 64
4, 264720, Note_on_c, 2, 72, 92
4, 264720, Note_on_c, 2, 64, 92
4, 264880, Note_off_c, 2, 64, 64
4, 264880, Note_off_c, 2, 72, 64
4, 264960, Note_on_c, 2, 77, 93
4, 264960, Note_on_c, 2, 74, 93
4, 265120, Note_off_c, 2, 74, 64
4, 265120, Note_off_c, 2, 77, 64
4, 265200, Note_on_c, 2, 77, 93
4, 265200, Note_on_c, 2, 74, 93
4, 265360, Note_off_c, 2, 74, 64
4, 265360, Note_off_c, 2, 77, 64
4, 265440, Note_on_c, 2, 76, 93
4, 265440, Note_on_c, 2, 72, 93
4, 265600, Note_off_c, 2, 72, 64
4, 265600, Note_off_c, 2, 76, 64
4, 265680, Note_on_c, 2, 76, 94
4, 265680, Note_on_c, 2, 72, 94
4, 265964, Note_off_c, 2, 72, 64
4, 265970, Note_off_c, 2, 76, 64
4, 266160, Note_on_c, 2, 69, 94
4, 266160, Note_on_c, 2, 65, 94
4, 266320, Note_off_c, 2, 65, 64
4, 266320, Note_off_c, 2, 69, 64
4, 266640, Note_on_c, 2, 67, 95
4, 266640, Note_on_c, 2, 64, 95
4, 266800, Note_off_c, 2, 64, 64
4, 266800, Note_off_c, 2, 67, 64
4, 267120, Note_on_c, 2, 65, 95
4, 267120, Note_on_c, 2, 62, 95
4, 267280, Note_off_c, 2, 62, 64
4, 267280, Note_off_c, 2, 65, 64
4, 267600, Note_on_c, 2, 64, 90
4, 267600, Note_on_c, 2, 60, 90
4, 267760, Note_off_c, 2, 60, 64
4, 267760, Note_off_c, 2, 64, 64
4, 268080, Note_on_c, 2, 71, 92
4, 268080, Note_on_c, 2, 62, 92
4, 268240, Note_off_c, 2, 62, 64
4, 268240, Note_off_c, 2, 71, 64
4, 268320, Note_on_c, 2, 72, 93
4, 268320, Note_on_c, 2, 64, 93
4, 268800, Note_off_c, 2, 64, 64
4, 268800, Note_off_c, 2, 72, 64
4, 269040, Note_on_c, 2, 72, 95
4, 269040, Note_on_c, 2, 64, 95
4, 269200, Note_off_c, 2, 64, 64
4, 269200, Note_off_c, 2, 72, 64
4, 269280, Note_on_c, 2, 72, 96
4, 269280, Note_on_c, 2, 64, 96
4, 269760, Note_off_c, 2, 64, 64
4, 269760, Note_off_c, 2, 72, 64
4, 270000, Note_on_c, 2, 72, 98
4, 270000, Note_on_c, 2, 64, 98
4, 270160, Note_off_c, 2, 64, 64
4, 270160, Note_off_c, 2, 72, 64
4, 270240, Note_on_c, 2, 72, 99
4, 270240, Note_on_c, 2, 64, 99
4, 270720, Note_off_c, 2, 64, 64
4, 270720, Note_off_c, 2, 72, 64
4, 270960, Note_on_c, 2, 72, 101
4, 270960, Note_on_c, 2, 64, 101
4, 271120, Note_off_c, 2, 64, 64
4, 271120, Note_off_c, 2, 72, 64
4, 271200, Note_on_c, 2, 72, 102
4, 271200, Note_on_c, 2, 64, 102
4, 271680, Note_off_c, 2, 64, 64
4, 271680, Note_off_c, 2, 72, 64
4, 271920, Note_on_c, 2, 72, 104
4, 271920, Note_on_c, 2, 64, 104
4, 272080, Note_off_c, 2, 64, 64
4, 272080, Note_off_c, 2, 72, 64
4, 272160, Note_on_c, 2, 72, 105
4, 272160, Note_on_c, 2, 64, 105
4, 272320, Note_off_c, 2, 64, 64
4, 272320, Note_off_c, 2, 72, 64
4, 272400, Note_on_c, 2, 72, 106
4, 272400, Note_on_c, 2, 64, 106
4, 272560, Note_off_c, 2, 64, 64
4, 272560, Note_off_c, 2, 72, 64
4, 272640, Note_on_c, 2, 72, 107
4, 272640, Note_on_c, 2, 64, 107
4, 272800, Note_off_c, 2, 64, 64
4, 272800, Note_off_c, 2, 72, 64
4, 272880, Note_on_c, 2, 76, 108
4, 272880, Note_on_c, 2, 72, 108
4, 273040, Note_off_c, 2, 72, 64
4, 273040, Note_off_c, 2, 76, 64
4, 273120, Note_on_c, 2, 76, 108
4, 273120, Note_on_c, 2, 72, 108
4, 273280, Note_off_c, 2, 72, 64
4, 273280, Note_off_c, 2, 76, 64
4, 273360, Note_on_c, 2, 76, 109
4, 273360, Note_on_c, 2, 72, 109
4, 273520, Note_off_c, 2, 72, 64
4, 273520, Note_off_c, 2, 76, 64
4, 273600, Note_on_c, 2, 76, 110
4, 273600, Note_on_c, 2, 72, 110
4, 273760, Note_off_c, 2, 72, 64
4, 273760, Note_off_c, 2, 76, 64
4, 273840, Note_on_c, 2, 76, 111
4, 273840, Note_on_c, 2, 72, 111
4, 274000, Note_off_c, 2, 72, 64
4, 274000, Note_off_c, 2, 76, 64
4, 274080, Note_on_c, 2, 76, 112
4, 274080, Note_on_c, 2, 72, 112
4, 274240, Note_off_c, 2, 72, 64
4, 274240, Note_off_c, 2, 76, 64
4, 275040, Note_on_c, 2, 72, 67
4, 275040, Note_on_c, 2, 64, 65
4, 275360, Note_off_c, 2, 64, 64
4, 275360, Note_off_c, 2, 72, 64
4, 276960, Control_c, 2, 91, 55
4, 276960, Control_c, 2, 10, 64
4, 276960, Control_c, 2, 7, 99
4, 276960, Control_c, 2, 0, 0
4, 276960, Control_c, 2, 32, 0
4, 276960, Program_c, 2, 71
4, 276960, Control_c, 2, 91, 55
4, 276960, Control_c, 2, 10, 64
4, 276960, Control_c, 2, 7, 99
4, 276960, Control_c, 2, 0, 0
4, 276960, Control_c, 2, 32, 0
4, 276960, Program_c, 2, 71
4, 329760, Note_on_c, 2, 74, 32
4, 329760, Note_on_c, 2, 62, 32
4, 329920, Note_off_c, 2, 62, 64
4, 329920, Note_off_c, 2, 74, 64
4, 330240, Note_on_c, 2, 79, 32
4, 330240, Note_on_c, 2, 67, 32
4, 330400, Note_off_c, 2, 67, 64
4, 330400, Note_off_c, 2, 79, 64
4, 330720, Note_on_c, 2, 74, 32
4, 330720, Note_on_c, 2, 62, 32
4, 330880, Note_off_c, 2, 62, 64
4, 330880, Note_off_c, 2, 74, 64
4, 331200, Note_on_c, 2, 76, 32
4, 331200, Note_on_c, 2, 64, 32
4, 331360, Note_off_c, 2, 64, 64
4, 331360, Note_off_c, 2, 76, 64
4, 331680, Note_on_c, 2, 74, 32
4, 331680, Note_on_c, 2, 62, 32
4, 331840, Note_off_c, 2, 62, 64
4, 331840, Note_off_c, 2, 74, 64
4, 332160, Note_on_c, 2, 71, 32
4, 332160, Note_on_c, 2, 59, 32
4, 332320, Note_off_c, 2, 59, 64
4, 332320, Note_off_c, 2, 71, 64
4, 332640, Note_on_c, 2, 72, 32
4, 332640, Note_on_c, 2, 60, 32
4, 332800, Note_off_c, 2, 60, 64
4, 332800, Note_off_c, 2, 72, 64
4, 333120, Note_on_c, 2, 71, 32
4, 333120, Note_on_c, 2, 59, 32
4, 333280, Note_off_c, 2, 59, 64
4, 333280, Note_off_c, 2, 71, 64
4, 333600, Note_on_c, 2, 67, 32
4, 333600, Note_on_c, 2, 55, 32
4, 333760, Note_off_c, 2, 55, 64
4, 333760, Note_off_c, 2, 67, 64
4, 334080, Note_on_c, 2, 69, 32
4, 334080, Note_on_c, 2, 57, 32
4, 334240, Note_off_c, 2, 57, 64
4, 334240, Note_off_c, 2, 69, 64
4, 334560, Note_on_c, 2, 71, 32
4, 334560, Note_on_c, 2, 59, 32
4, 334720, Note_off_c, 2, 59, 64
4, 334720, Note_off_c, 2, 71, 64
4, 335040, Note_on_c, 2, 67, 32
4, 335040, Note_on_c, 2, 55, 32
4, 335200, Note_off_c, 2, 55, 64
4, 335200, Note_off_c, 2, 67, 64
4, 342240, Note_on_c, 2, 67, 64
4, 342240, Note_on_c, 2, 64, 64
4, 342560, Note_off_c, 2, 64, 64
4, 342560, Note_off_c, 2, 67, 64
4, 342720, Note_on_c, 2, 69, 64
4, 342720, Note_on_c, 2, 65, 64
4, 343040, Note_off_c, 2, 65, 64
4, 343040, Note_off_c, 2, 69, 64
4, 343200, Note_on_c, 2, 67, 64
4, 343200, Note_on_c, 2, 64, 64
4, 343520, Note_off_c, 2, 64, 64
4, 343520, Note_off_c, 2, 67, 64
4, 343680, Note_on_c, 2, 67, 64
4, 343680, Note_on_c, 2, 60, 64
4, 344000, Note_off_c, 2, 60, 64
4, 344000, Note_off_c, 2, 67, 64
4, 344160, Note_on_c, 2, 69, 64
4, 344160, Note_on_c, 2, 60, 64
4, 344480, Note_off_c, 2, 60, 64
4, 344480, Note_off_c, 2, 69, 64
4, 344640, Note_on_c, 2, 67, 64
4, 344640, Note_on_c, 2, 60, 64
4, 344960, Note_off_c, 2, 60, 64
4, 344960, Note_off_c, 2, 67, 64
4, 345120, Note_on_c, 2, 72, 64
4, 345120, Note_on_c, 2, 64, 64
4, 345440, Note_off_c, 2, 64, 64
4, 345440, Note_off_c, 2, 72, 64
4, 345600, Note_on_c, 2, 71, 64
4, 345600, Note_on_c, 2, 65, 64
4, 345920, Note_off_c, 2, 65, 64
4, 345920, Note_off_c, 2, 71, 64
4, 346080, Note_on_c, 2, 72, 64
4, 346080, Note_on_c, 2, 64, 64
4, 346400, Note_off_c, 2, 64, 64
4, 346400, Note_off_c, 2, 72, 64
4, 349920, Note_on_c, 2, 72, 69
4, 349920, Note_on_c, 2, 60, 69
4, 350240, Note_off_c, 2, 60, 64
4, 350240, Note_off_c, 2, 72, 64
4, 350400, Note_on_c, 2, 72, 73
4, 350400, Note_on_c, 2, 60, 73
4, 350720, Note_off_c, 2, 60, 64
4, 350720, Note_off_c, 2, 72, 64
4, 350880, Note_on_c, 2, 72, 76
4, 350880, Note_on_c, 2, 60, 76
4, 351200, Note_off_c, 2, 60, 64
4, 351200, Note_off_c, 2, 72, 64
4, 351360, Note_on_c, 2, 72, 80
4, 351360, Note_on_c, 2, 60, 80
4, 351680, Note_off_c, 2, 60, 64
4, 351680, Note_off_c, 2, 72, 64
4, 351840, Note_on_c, 2, 72, 84
4, 351840, Note_on_c, 2, 60, 84
4, 352160, Note_off_c, 2, 60, 64
4, 352160, Note_off_c, 2, 72, 64
4, 352320, Note_on_c, 2, 72, 88
4, 352320, Note_on_c, 2, 60, 88
4, 352640, Note_off_c, 2, 60, 64
4, 352640, Note_off_c, 2, 72, 64
4, 352800, Note_on_c, 2, 72, 92
4, 352800, Note_on_c, 2, 60, 92
4, 353120, Note_off_c, 2, 60, 64
4, 353120, Note_off_c, 2, 72, 64
4, 353280, Note_on_c, 2, 77, 96
4, 353280, Note_on_c, 2, 65, 96
4, 353600, Note_off_c, 2, 65, 64
4, 353600, Note_off_c, 2, 77, 64
4, 353760, Note_on_c, 2, 77, 96
4, 353760, Note_on_c, 2, 65, 96
4, 354080, Note_off_c, 2, 65, 64
4, 354080, Note_off_c, 2, 77, 64
4, 354240, Note_on_c, 2, 77, 96
4, 354240, Note_on_c, 2, 65, 96
4, 354560, Note_off_c, 2, 65, 64
4, 354560, Note_off_c, 2, 77, 64
4, 354720, Note_on_c, 2, 77, 96
4, 354720, Note_on_c, 2, 65, 96
4, 355040, Note_off_c, 2, 65, 64
4, 355040, Note_off_c, 2, 77, 64
4, 355200, Note_on_c, 2, 77, 96
4, 355200, Note_on_c, 2, 65, 96
4, 355520, Note_off_c, 2, 65, 64
4, 355520, Note_off_c, 2, 77, 64
4, 355680, Note_on_c, 2, 77, 96
4, 355680, Note_on_c, 2, 65, 96
4, 356000, Note_off_c, 2, 65, 64
4, 356000, Note_off_c, 2, 77, 64
4, 356160, Note_on_c, 2, 77, 117
4, 356160, Note_on_c, 2, 65, 115
4, 356480, Note_off_c, 2, 65, 64
4, 356480, Note_off_c, 2, 77, 64
4, 356640, Note_on_c, 2, 77, 96
4, 356640, Note_on_c, 2, 65, 96
4, 356960, Note_off_c, 2, 65, 64
4, 356960, Note_off_c, 2, 77, 64
4, 357120, Note_on_c, 2, 79, 96
4, 357120, Note_on_c, 2, 67, 96
4, 357440, Note_off_c, 2, 67, 64
4, 357440, Note_off_c, 2, 79, 64
4, 357600, Note_on_c, 2, 81, 118
4, 357600, Note_on_c, 2, 69, 118
4, 357920, Note_off_c, 2, 69, 64
4, 357920, Note_off_c, 2, 81, 64
4, 358080, Note_on_c, 2, 77, 96
4, 358080, Note_on_c, 2, 65, 96
4, 358400, Note_off_c, 2, 65, 64
4, 358400, Note_off_c, 2, 77, 64
4, 358560, Note_on_c, 2, 79, 96
4, 358560, Note_on_c, 2, 67, 96
4, 358880, Note_off_c, 2, 67, 64
4, 358880, Note_off_c, 2, 79, 64
4, 359040, Note_on_c, 2, 81, 118
4, 359040, Note_on_c, 2, 69, 114
4, 359360, Note_off_c, 2, 69, 64
4, 359360, Note_off_c, 2, 81, 64
4, 359520, Note_on_c, 2, 77, 96
4, 359520, Note_on_c, 2, 65, 96
4, 359840, Note_off_c, 2, 65, 64
4, 359840, Note_off_c, 2, 77, 64
4, 360000, Note_on_c, 2, 79, 96
4, 360000, Note_on_c, 2, 67, 96
4, 360320, Note_off_c, 2, 67, 64
4, 360320, Note_off_c, 2, 79, 64
4, 360480, Note_on_c, 2, 81, 120
4, 360480, Note_on_c, 2, 69, 120
4, 360800, Note_off_c, 2, 69, 64
4, 360800, Note_off_c, 2, 81, 64
4, 360960, Note_on_c, 2, 77, 96
4, 360960, Note_on_c, 2, 65, 96
4, 361280, Note_off_c, 2, 65, 64
4, 361280, Note_off_c, 2, 77, 64
4, 361440, Note_on_c, 2, 79, 96
4, 361440, Note_on_c, 2, 67, 96
4, 361760, Note_off_c, 2, 67, 64
4, 361760, Note_off_c, 2, 79, 64
4, 361920, Note_on_c, 2, 81, 116
4, 361920, Note_on_c, 2, 69, 119
4, 363020, Note_off_c, 2, 69, 64
4, 363034, Note_off_c, 2, 81, 64
4, 363360, Note_on_c, 2, 79, 96
4, 363360, Note_on_c, 2, 67, 96
4, 364000, Note_off_c, 2, 67, 64
4, 364000, Note_off_c, 2, 79, 64
4, 364320, Note_on_c, 2, 77, 96
4, 364320, Note_on_c, 2, 65, 96
4, 364640, Note_off_c, 2, 65, 64
4, 364640, Note_off_c, 2, 77, 64
4, 364800, Note_on_c, 2, 76, 96
4, 364800, Note_on_c, 2, 64, 96
4, 365440, Note_off_c, 2, 64, 64
4, 365440, Note_off_c, 2, 76, 64
4, 365760, Note_on_c, 2, 74, 96
4, 365760, Note_on_c, 2, 62, 96
4, 366080, Note_off_c, 2, 62, 64
4, 366080, Note_off_c, 2, 74, 64
4, 366240, Note_on_c, 2, 72, 96
4, 366240, Note_on_c, 2, 60, 96
4, 366880, Note_off_c, 2, 60, 64
4, 366880, Note_off_c, 2, 72, 64
4, 367200, Note_on_c, 2, 72, 96
4, 367200, Note_on_c, 2, 67, 96
4, 367520, Note_off_c, 2, 67, 64
4, 367520, Note_off_c, 2, 72, 64
4, 367680, Note_on_c, 2, 72, 105
4, 367680, Note_on_c, 2, 65, 107
4, 368800, Note_off_c, 2, 72, 64
4, 368830, Note_off_c, 2, 65, 64
4, 369120, Note_on_c, 2, 74, 106
4, 369120, Note_on_c, 2, 77, 109
4, 370244, Note_off_c, 2, 77, 64
4, 370260, Note_off_c, 2, 74, 64
4, 370560, Note_on_c, 2, 72, 108
4, 370560, Note_on_c, 2, 69, 108
4, 371694, Note_off_c, 2, 72, 64
4, 371700, Note_off_c, 2, 69, 64
4, 372000, Note_on_c, 2, 72, 104
4, 372000, Note_on_c, 2, 64, 109
4, 373154, Note_off_c, 2, 72, 64
4, 373160, Note_off_c, 2, 64, 64
4, 373440, Note_on_c, 2, 72, 96
4, 373440, Note_on_c, 2, 65, 96
4, 373760, Note_off_c, 2, 65, 64
4, 373760, Note_off_c, 2, 72, 64
4, 377280, Note_on_c, 2, 72, 96
4, 377280, Note_on_c, 2, 60, 96
4, 377600, Note_off_c, 2, 60, 64
4, 377600, Note_off_c, 2, 72, 64
4, 377760, Note_on_c, 2, 72, 96
4, 377760, Note_on_c, 2, 60, 96
4, 378400, Note_off_c, 2, 60, 64
4, 378400, Note_off_c, 2, 72, 64
4, 378720, Note_on_c, 2, 64, 96
4, 378720, Note_on_c, 2, 67, 96
4, 379040, Note_off_c, 2, 67, 64
4, 379040, Note_off_c, 2, 64, 64
4, 379200, Note_on_c, 2, 69, 96
4, 379200, Note_on_c, 2, 65, 96
4, 380330, Note_off_c, 2, 69, 64
4, 380354, Note_off_c, 2, 65, 64
4, 380640, Note_on_c, 2, 65, 96
4, 380640, Note_on_c, 2, 67, 96
4, 381784, Note_off_c, 2, 65, 64
4, 381800, Note_off_c, 2, 67, 64
4, 382080, Note_on_c, 2, 69, 96
4, 382080, Note_on_c, 2, 65, 96
4, 383250, Note_off_c, 2, 65, 64
4, 383250, Note_off_c, 2, 69, 64
4, 383520, Note_on_c, 2, 67, 96
4, 383520, Note_on_c, 2, 64, 96
4, 384660, Note_off_c, 2, 67, 64
4, 384694, Note_off_c, 2, 64, 64
4, 384960, Note_on_c, 2, 65, 110
4, 384960, Note_on_c, 2, 57, 111
4, 385280, Note_off_c, 2, 57, 64
4, 385280, Note_off_c, 2, 65, 64
4, 389280, Note_on_c, 2, 67, 109
4, 389280, Note_on_c, 2, 76, 111
4, 389600, Note_off_c, 2, 76, 64
4, 389600, Note_off_c, 2, 67, 64
4, 389760, Note_on_c, 2, 67, 96
4, 389760, Note_on_c, 2, 76, 96
4, 390080, Note_off_c, 2, 76, 64
4, 390080, Note_off_c, 2, 67, 64
4, 390240, Note_on_c, 2, 67, 96
4, 390240, Note_on_c, 2, 76, 96
4, 390560, Note_off_c, 2, 76, 64
4, 390560, Note_off_c, 2, 67, 64
4, 390720, Note_on_c, 2, 77, 114
4, 390720, Note_on_c, 2, 69, 114
4, 391040, Note_off_c, 2, 69, 64
4, 391040, Note_off_c, 2, 77, 64
4, 395040, Note_on_c, 2, 67, 110
4, 395040, Note_on_c, 2, 76, 108
4, 395360, Note_off_c, 2, 76, 64
4, 395360, Note_off_c, 2, 67, 64
4, 395520, Note_on_c, 2, 67, 96
4, 395520, Note_on_c, 2, 76, 96
4, 395840, Note_off_c, 2, 76, 64
4, 395840, Note_off_c, 2, 67, 64
4, 396000, Note_on_c, 2, 67, 96
4, 396000, Note_on_c, 2, 76, 96
4, 396320, Note_off_c, 2, 76, 64
4, 396320, Note_off_c, 2, 67, 64
4, 396480, Note_on_c, 2, 77, 116
4, 396480, Note_on_c, 2, 69, 113
4, 396800, Note_off_c, 2, 69, 64
4, 396800, Note_off_c, 2, 77, 64
4, 399360, Note_on_c, 2, 77, 97
4, 399360, Note_on_c, 2, 69, 98
4, 399680, Note_off_c, 2, 69, 64
4, 399680, Note_off_c, 2, 77, 64
4, 441120, Note_on_c, 2, 81, 64
4, 441594, Note_off_c, 2, 81, 64
4, 441600, Note_on_c, 2, 82, 64
4, 442074, Note_off_c, 2, 82, 64
4, 442080, Note_on_c, 2, 84, 64
4, 443034, Note_off_c, 2, 84, 64
4, 452640, Note_on_c, 2, 82, 64
4, 453110, Note_off_c, 2, 82, 64
4, 453120, Note_on_c, 2, 81, 64
4, 453570, Note_off_c, 2, 81, 64
4, 453600, Note_on_c, 2, 77, 64
4, 454064, Note_off_c, 2, 77, 64
4, 454080, Note_on_c, 2, 79, 64
4, 454400, Note_off_c, 2, 79, 64
4, 454560, Note_on_c, 2, 72, 64
4, 454734, Note_off_c, 2, 72, 64
4, 455040, Note_on_c, 2, 76, 64
4, 455840, Note_off_c, 2, 76, 64
4, 456000, Note_on_c, 2, 72, 70
4, 456134, Note_off_c, 2, 72, 64
4, 456480, Note_on_c, 2, 67, 70
4, 457280, Note_off_c, 2, 67, 64
4, 457440, Note_on_c, 2, 71, 70
4, 457600, Note_off_c, 2, 71, 64
4, 457680, Note_on_c, 2, 72, 70
4, 457840, Note_off_c, 2, 72, 64
4, 457920, Note_on_c, 2, 74, 70
4, 458720, Note_off_c, 2, 74, 64
4, 458880, Note_on_c, 2, 72, 70
4, 459200, Note_off_c, 2, 72, 64
4, 459360, Note_on_c, 2, 74, 70
4, 459680, Note_off_c, 2, 74, 64
4, 459840, Note_on_c, 2, 76, 70
4, 460300, Note_off_c, 2, 76, 64
4, 460320, Note_on_c, 2, 74, 70
4, 460764, Note_off_c, 2, 74, 64
4, 460800, Note_on_c, 2, 72, 70
4, 461264, Note_off_c, 2, 72, 64
4, 461280, Note_on_c, 2, 74, 70
4, 461754, Note_off_c, 2, 74, 64
4, 461760, Note_on_c, 2, 76, 70
4, 462224, Note_off_c, 2, 76, 64
4, 462240, Note_on_c, 2, 77, 70
4, 462690, Note_off_c, 2, 77, 64
4, 462720, Note_on_c, 2, 76, 70
4, 463170, Note_off_c, 2, 76, 64
4, 463200, Note_on_c, 2, 77, 70
4, 463674, Note_off_c, 2, 77, 64
4, 463680, Note_on_c, 2, 79, 70
4, 465760, Note_off_c, 2, 79, 64
4, 465840, Note_on_c, 2, 82, 70
4, 466000, Note_off_c, 2, 82, 64
4, 466080, Note_on_c, 2, 79, 70
4, 466240, Note_off_c, 2, 79, 64
4, 466320, Note_on_c, 2, 76, 70
4, 466480, Note_off_c, 2, 76, 64
4, 466560, Note_on_c, 2, 72, 70
4, 466720, Note_off_c, 2, 72, 64
4, 466800, Note_on_c, 2, 70, 83
4, 466960, Note_off_c, 2, 70, 64
4, 467040, Note_on_c, 2, 67, 70
4, 467270, Note_off_c, 2, 67, 64
4, 467280, Note_on_c, 2, 64, 70
4, 467510, Note_off_c, 2, 64, 64
4, 467520, Note_on_c, 2, 60, 70
4, 467750, Note_off_c, 2, 60, 64
4, 467760, Note_on_c, 2, 58, 70
4, 467990, Note_off_c, 2, 58, 64
4, 468000, Note_on_c, 2, 55, 70
4, 468230, Note_off_c, 2, 55, 64
4, 468240, Note_on_c, 2, 52, 70
4, 468470, Note_off_c, 2, 52, 64
4, 468480, Note_on_c, 2, 53, 70
4, 468794, Note_off_c, 2, 53, 64
4, 483360, Note_on_c, 2, 79, 64
4, 483680, Note_off_c, 2, 79, 64
4, 483840, Note_on_c, 2, 82, 64
4, 484640, Note_off_c, 2, 82, 64
4, 484800, Note_on_c, 2, 79, 64
4, 485120, Note_off_c, 2, 79, 64
4, 485280, Note_on_c, 2, 72, 64
4, 485600, Note_off_c, 2, 72, 64
4, 485760, Note_on_c, 2, 77, 64
4, 486080, Note_off_c, 2, 77, 64
4, 492000, Note_on_c, 2, 77, 64
4, 492320, Note_off_c, 2, 77, 64
4, 492480, Note_on_c, 2, 79, 64
4, 492800, Note_off_c, 2, 79, 64
4, 492960, Note_on_c, 2, 81, 64
4, 493280, Note_off_c, 2, 81, 64
4, 493440, Note_on_c, 2, 79, 64
4, 493760, Note_off_c, 2, 79, 64
4, 493920, Note_on_c, 2, 77, 64
4, 494240, Note_off_c, 2, 77, 64
4, 494400, Note_on_c, 2, 76, 64
4, 495040, Note_off_c, 2, 76, 64
4, 495360, Note_on_c, 2, 77, 64
4, 495680, Note_off_c, 2, 77, 64
4, 495840, Note_on_c, 2, 79, 64
4, 496160, Note_off_c, 2, 79, 64
4, 496320, Note_on_c, 2, 70, 64
4, 496640, Note_off_c, 2, 70, 64
4, 496800, Note_on_c, 2, 72, 64
4, 497120, Note_off_c, 2, 72, 64
4, 497280, Note_on_c, 2, 69, 64
4, 497600, Note_off_c, 2, 69, 64
4, 498720, Note_on_c, 2, 77, 67
4, 499040, Note_off_c, 2, 77, 64
4, 499200, Note_on_c, 2, 81, 68
4, 499520, Note_off_c, 2, 81, 64
4, 499680, Note_on_c, 2, 79, 69
4, 500000, Note_off_c, 2, 79, 64
4, 501600, Note_on_c, 2, 76, 73
4, 501920, Note_off_c, 2, 76, 64
4, 502080, Note_on_c, 2, 79, 74
4, 502400, Note_off_c, 2, 79, 64
4, 502560, Note_on_c, 2, 77, 75
4, 502880, Note_off_c, 2, 77, 64
4, 503040, Note_on_c, 2, 77, 76
4, 504000, Note_off_c, 2, 77, 64
4, 504480, Note_on_c, 2, 81, 79
4, 504800, Note_off_c, 2, 81, 64
4, 504960, Note_on_c, 2, 84, 80
4, 505280, Note_off_c, 2, 84, 64
4, 505440, Note_on_c, 2, 82, 81
4, 505760, Note_off_c, 2, 82, 64
4, 507360, Note_on_c, 2, 79, 85
4, 507680, Note_off_c, 2, 79, 64
4, 507840, Note_on_c, 2, 82, 86
4, 508160, Note_off_c, 2, 82, 64
4, 508320, Note_on_c, 2, 81, 87
4, 508640, Note_off_c, 2, 81, 64
4, 508800, Note_on_c, 2, 77, 96
4, 509120, Note_off_c, 2, 77, 64
4, 514560, Note_on_c, 2, 72, 85
4, 514560, Note_on_c, 2, 69, 85
4, 515280, Note_off_c, 2, 69, 64
4, 515280, Note_off_c, 2, 72, 64
4, 515520, Note_on_c, 2, 72, 85
4, 515520, Note_on_c, 2, 69, 85
4, 516240, Note_off_c, 2, 69, 64
4, 516240, Note_off_c, 2, 72, 64
4, 516480, Note_on_c, 2, 74, 85
4, 516480, Note_on_c, 2, 70, 85
4, 517200, Note_off_c, 2, 70, 64
4, 517200, Note_off_c, 2, 74, 64
4, 517440, Note_on_c, 2, 69, 85
4, 517440, Note_on_c, 2, 75, 85
4, 517914, Note_off_c, 2, 75, 64
4, 517914, Note_off_c, 2, 69, 64
4, 517920, Note_on_c, 2, 74, 85
4, 517920, Note_on_c, 2, 70, 85
4, 518240, Note_off_c, 2, 70, 64
4, 518240, Note_off_c, 2, 74, 64
4, 518400, Note_on_c, 2, 72, 85
4, 518400, Note_on_c, 2, 69, 85
4, 519120, Note_off_c, 2, 69, 64
4, 519120, Note_off_c, 2, 72, 64
4, 519360, Note_on_c, 2, 72, 85
4, 519360, Note_on_c, 2, 69, 85
4, 520080, Note_off_c, 2, 69, 64
4, 520080, Note_off_c, 2, 72, 64
4, 520320, Note_on_c, 2, 74, 85
4, 520320, Note_on_c, 2, 70, 85
4, 521040, Note_off_c, 2, 70, 64
4, 521040, Note_off_c, 2, 74, 64
4, 521280, Note_on_c, 2, 69, 85
4, 521280, Note_on_c, 2, 75, 85
4, 521754, Note_off_c, 2, 75, 64
4, 521754, Note_off_c, 2, 69, 64
4, 521760, Note_on_c, 2, 74, 85
4, 521760, Note_on_c, 2, 70, 85
4, 522080, Note_off_c, 2, 70, 64
4, 522080, Note_off_c, 2, 74, 64
4, 522240, Note_on_c, 2, 72, 85
4, 522240, Note_on_c, 2, 69, 85
4, 522960, Note_off_c, 2, 69, 64
4, 522960, Note_off_c, 2, 72, 64
4, 523200, Note_on_c, 2, 72, 85
4, 523200, Note_on_c, 2, 69, 85
4, 523920, Note_off_c, 2, 69, 64
4, 523920, Note_off_c, 2, 72, 64
4, 524160, Note_on_c, 2, 74, 85
4, 524160, Note_on_c, 2, 70, 85
4, 524880, Note_off_c, 2, 70, 64
4, 524880, Note_off_c, 2, 74, 64
4, 525120, Note_on_c, 2, 69, 85
4, 525120, Note_on_c, 2, 75, 85
4, 525594, Note_off_c, 2, 75, 64
4, 525594, Note_off_c, 2, 69, 64
4, 525600, Note_on_c, 2, 74, 85
4, 525600, Note_on_c, 2, 70, 85
4, 525920, Note_off_c, 2, 70, 64
4, 525920, Note_off_c, 2, 74, 64
4, 526080, Note_on_c, 2, 72, 85
4, 526080, Note_on_c, 2, 69, 85
4, 526800, Note_off_c, 2, 69, 64
4, 526800, Note_off_c, 2, 72, 64
4, 527040, Note_on_c, 2, 72, 85
4, 527040, Note_on_c, 2, 69, 85
4, 527760, Note_off_c, 2, 69, 64
4, 527760, Note_off_c, 2, 72, 64
4, 528000, Note_on_c, 2, 74, 85
4, 528000, Note_on_c, 2, 70, 85
4, 528720, Note_off_c, 2, 70, 64
4, 528720, Note_off_c, 2, 74, 64
4, 528960, Note_on_c, 2, 69, 85
4, 528960, Note_on_c, 2, 75, 85
4, 529434, Note_off_c, 2, 75, 64
4, 529434, Note_off_c, 2, 69, 64
4, 529440, Note_on_c, 2, 74, 85
4, 529440, Note_on_c, 2, 70, 85
4, 529760, Note_off_c, 2, 70, 64
4, 529760, Note_off_c, 2, 74, 64
4, 531840, Note_on_c, 2, 65, 85
4, 531840, Note_on_c, 2, 69, 85
4, 532590, Note_off_c, 2, 69, 64
4, 532600, Note_off_c, 2, 65, 64
4, 532800, Note_on_c, 2, 67, 85
4, 532800, Note_on_c, 2, 64, 85
4, 533274, Note_off_c, 2, 64, 64
4, 533274, Note_off_c, 2, 67, 64
4, 533280, Note_on_c, 2, 69, 85
4, 533280, Note_on_c, 2, 65, 85
4, 533504, Note_off_c, 2, 69, 64
4, 533510, Note_off_c, 2, 65, 64
4, 535680, Note_on_c, 2, 65, 85
4, 535680, Note_on_c, 2, 69, 85
4, 536430, Note_off_c, 2, 69, 64
4, 536440, Note_off_c, 2, 65, 64
4, 536640, Note_on_c, 2, 67, 85
4, 536640, Note_on_c, 2, 64, 85
4, 537114, Note_off_c, 2, 64, 64
4, 537114, Note_off_c, 2, 67, 64
4, 537120, Note_on_c, 2, 69, 85
4, 537120, Note_on_c, 2, 65, 85
4, 537344, Note_off_c, 2, 69, 64
4, 537350, Note_off_c, 2, 65, 64
4, 537600, Note_on_c, 2, 72, 88
4, 537600, Note_on_c, 2, 64, 88
4, 537920, Note_off_c, 2, 64, 64
4, 537920, Note_off_c, 2, 72, 64
4, 538080, Note_on_c, 2, 77, 88
4, 538080, Note_on_c, 2, 74, 88
4, 538400, Note_off_c, 2, 74, 64
4, 538400, Note_off_c, 2, 77, 64
4, 538560, Note_on_c, 2, 76, 89
4, 538560, Note_on_c, 2, 72, 89
4, 539040, Note_off_c, 2, 72, 64
4, 539040, Note_off_c, 2, 76, 64
4, 539280, Note_on_c, 2, 69, 90
4, 539280, Note_on_c, 2, 65, 90
4, 539440, Note_off_c, 2, 65, 64
4, 539440, Note_off_c, 2, 69, 64
4, 539520, Note_on_c, 2, 67, 90
4, 539520, Note_on_c, 2, 64, 90
4, 539680, Note_off_c, 2, 64, 64
4, 539680, Note_off_c, 2, 67, 64
4, 540000, Note_on_c, 2, 62, 90
4, 540000, Note_on_c, 2, 65, 90
4, 540160, Note_off_c, 2, 65, 64
4, 540160, Note_off_c, 2, 62, 64
4, 540480, Note_on_c, 2, 64, 91
4, 540480, Note_on_c, 2, 60, 91
4, 540640, Note_off_c, 2, 60, 64
4, 540640, Note_off_c, 2, 64, 64
4, 540960, Note_on_c, 2, 62, 92
4, 540960, Note_on_c, 2, 71, 92
4, 541120, Note_off_c, 2, 71, 64
4, 541120, Note_off_c, 2, 62, 64
4, 541440, Note_on_c, 2, 72, 92
4, 541440, Note_on_c, 2, 64, 92
4, 541600, Note_off_c, 2, 64, 64
4, 541600, Note_off_c, 2, 72, 64
4, 541680, Note_on_c, 2, 72, 92
4, 541680, Note_on_c, 2, 64, 92
4, 541840, Note_off_c, 2, 64, 64
4, 541840, Note_off_c, 2, 72, 64
4, 541920, Note_on_c, 2, 77, 93
4, 541920, Note_on_c, 2, 74, 93
4, 542080, Note_off_c, 2, 74, 64
4, 542080, Note_off_c, 2, 77, 64
4, 542160, Note_on_c, 2, 77, 93
4, 542160, Note_on_c, 2, 74, 93
4, 542320, Note_off_c, 2, 74, 64
4, 542320, Note_off_c, 2, 77, 64
4, 542400, Note_on_c, 2, 76, 93
4, 542400, Note_on_c, 2, 72, 93
4, 542560, Note_off_c, 2, 72, 64
4, 542560, Note_off_c, 2, 76, 64
4, 542640, Note_on_c, 2, 76, 94
4, 542640, Note_on_c, 2, 72, 94
4, 542924, Note_off_c, 2, 72, 64
4, 542930, Note_off_c, 2, 76, 64
4, 543120, Note_on_c, 2, 69, 94
4, 543120, Note_on_c, 2, 65, 94
4, 543280, Note_off_c, 2, 65, 64
4, 543280, Note_off_c, 2, 69, 64
4, 543600, Note_on_c, 2, 67, 95
4, 543600, Note_on_c, 2, 64, 95
4, 543760, Note_off_c, 2, 64, 64
4, 543760, Note_off_c, 2, 67, 64
4, 544080, Note_on_c, 2, 65, 95
4, 544080, Note_on_c, 2, 62, 95
4, 544240, Note_off_c, 2, 62, 64
4, 544240, Note_off_c, 2, 65, 64
4, 544560, Note_on_c, 2, 64, 90
4, 544560, Note_on_c, 2, 60, 90
4, 544720, Note_off_c, 2, 60, 64
4, 544720, Note_off_c, 2, 64, 64
4, 545040, Note_on_c, 2, 71, 92
4, 545040, Note_on_c, 2, 62, 92
4, 545200, Note_off_c, 2, 62, 64
4, 545200, Note_off_c, 2, 71, 64
4, 545280, Note_on_c, 2, 72, 93
4, 545280, Note_on_c, 2, 64, 93
4, 545760, Note_off_c, 2, 64, 64
4, 545760, Note_off_c, 2, 72, 64
4, 546000, Note_on_c, 2, 72, 95
4, 546000, Note_on_c, 2, 64, 95
4, 546160, Note_off_c, 2, 64, 64
4, 546160, Note_off_c, 2, 72, 64
4, 546240, Note_on_c, 2, 72, 96
4, 546240, Note_on_c, 2, 64, 96
4, 546720, Note_off_c, 2, 64, 64
4, 546720, Note_off_c, 2, 72, 64
4, 546960, Note_on_c, 2, 72, 98
4, 546960, Note_on_c, 2, 64, 98
4, 547120, Note_off_c, 2, 64, 64
4, 547120, Note_off_c, 2, 72, 64
4, 547200, Note_on_c, 2, 72, 99
4, 547200, Note_on_c, 2, 64, 99
4, 547680, Note_off_c, 2, 64, 64
4, 547680, Note_off_c, 2, 72, 64
4, 547920, Note_on_c, 2, 72, 101
4, 547920, Note_on_c, 2, 64, 101
4, 548080, Note_off_c, 2, 64, 64
4, 548080, Note_off_c, 2, 72, 64
4, 548160, Note_on_c, 2, 72, 102
4, 548160, Note_on_c, 2, 64, 102
4, 548640, Note_off_c, 2, 64, 64
4, 548640, Note_off_c, 2, 72, 64
4, 548880, Note_on_c, 2, 72, 104
4, 548880, Note_on_c, 2, 64, 104
4, 549040, Note_off_c, 2, 64, 64
4, 549040, Note_off_c, 2, 72, 64
4, 549120, Note_on_c, 2, 72, 105
4, 549120, Note_on_c, 2, 64, 105
4, 549280, Note_off_c, 2, 64, 64
4, 549280, Note_off_c, 2, 72, 64
4, 549360, Note_on_c, 2, 72, 106
4, 549360, Note_on_c, 2, 64, 106
4, 549520, Note_off_c, 2, 64, 64
4, 549520, Note_off_c, 2, 72, 64
4, 549600, Note_on_c, 2, 72, 107
4, 549600, Note_on_c, 2, 64, 107
4, 549760, Note_off_c, 2, 64, 64
4, 549760, Note_off_c, 2, 72, 64
4, 549840, Note_on_c, 2, 76, 108
4, 549840, Note_on_c, 2, 72, 108
4, 550000, Note_off_c, 2, 72, 64
4, 550000, Note_off_c, 2, 76, 64
4, 550080, Note_on_c, 2, 76, 108
4, 550080, Note_on_c, 2, 72, 108
4, 550240, Note_off_c, 2, 72, 64
4, 550240, Note_off_c, 2, 76, 64
4, 550320, Note_on_c, 2, 76, 109
4, 550320, Note_on_c, 2, 72, 109
4, 550480, Note_off_c, 2, 72, 64
4, 550480, Note_off_c, 2, 76, 64
4, 550560, Note_on_c, 2, 76, 110
4, 550560, Note_on_c, 2, 72, 110
4, 550720, Note_off_c, 2, 72, 64
4, 550720, Note_off_c, 2, 76, 64
4, 550800, Note_on_c, 2, 76, 111
4, 550800, Note_on_c, 2, 72, 111
4, 550960, Note_off_c, 2, 72, 64
4, 550960, Note_off_c, 2, 76, 64
4, 551040, Note_on_c, 2, 76, 112
4, 551040, Note_on_c, 2, 72, 112
4, 551200, Note_off_c, 2, 72, 64
4, 551200, Note_off_c, 2, 76, 64
4, 552000, Note_on_c, 2, 72, 67
4, 552000, Note_on_c, 2, 64, 65
4, 552320, Note_off_c, 2, 64, 64
4, 552320, Note_off_c, 2, 72, 64
4, 573120, Note_on_c, 2, 72, 42
4, 573576, Note_off_c, 2, 72, 64
4, 573600, Note_on_c, 2, 74, 56
4, 573828, Note_off_c, 2, 74, 64
4, 573840, Note_on_c, 2, 70, 62
4, 574068, Note_off_c, 2, 70, 64
4, 574080, Note_on_c, 2, 69, 69
4, 574536, Note_off_c, 2, 69, 64
4, 574560, Note_on_c, 2, 72, 83
4, 575016, Note_off_c, 2, 72, 64
4, 575040, Note_on_c, 2, 67, 96
4, 575040, Note_on_c, 2, 70, 96
4, 575496, Note_off_c, 2, 70, 64
4, 575496, Note_off_c, 2, 67, 64
4, 575520, Note_on_c, 2, 65, 110
4, 575520, Note_on_c, 2, 69, 110
4, 575766, Note_off_c, 2, 69, 64
4, 575766, Note_off_c, 2, 65, 64
4, 578400, Note_on_c, 2, 67, 56
4, 578400, Note_on_c, 2, 72, 56
4, 578926, Note_off_c, 2, 72, 64
4, 578926, Note_off_c, 2, 67, 64
4, 580800, Note_on_c, 2, 60, 64
4, 581256, Note_off_c, 2, 60, 64
4, 581280, Note_on_c, 2, 65, 64
4, 582216, Note_off_c, 2, 65, 64
4, 582240, Note_on_c, 2, 69, 64
4, 582696, Note_off_c, 2, 69, 64
4, 582720, Note_on_c, 2, 72, 64
4, 583176, Note_off_c, 2, 72, 64
4, 583200, Note_on_c, 2, 69, 64
4, 583656, Note_off_c, 2, 69, 64
4, 583680, Note_on_c, 2, 69, 64
4, 584136, Note_off_c, 2, 69, 64
4, 584160, Note_on_c, 2, 72, 64
4, 584616, Note_off_c, 2, 72, 64
4, 584640, Note_on_c, 2, 76, 64
4, 585096, Note_off_c, 2, 76, 64
4, 585120, Note_on_c, 2, 70, 64
4, 585120, Note_on_c, 2, 77, 64
4, 585348, Note_off_c, 2, 77, 64
4, 585360, Note_on_c, 2, 74, 64
4, 585576, Note_off_c, 2, 70, 64
4, 585588, Note_off_c, 2, 74, 64
4, 585600, Note_on_c, 2, 72, 64
4, 585600, Note_on_c, 2, 69, 64
4, 586536, Note_off_c, 2, 69, 64
4, 586536, Note_off_c, 2, 72, 64
4, 586560, Note_on_c, 2, 67, 64
4, 586560, Note_on_c, 2, 76, 64
4, 587016, Note_off_c, 2, 76, 64
4, 587016, Note_off_c, 2, 67, 64
4, 587040, Note_on_c, 2, 69, 64
4, 587040, Note_on_c, 2, 77, 64
4, 587496, Note_off_c, 2, 77, 64
4, 587520, Note_on_c, 2, 72, 64
4, 587976, Note_off_c, 2, 69, 64
4, 587976, Note_off_c, 2, 72, 64
4, 588000, Note_on_c, 2, 70, 64
4, 588000, Note_on_c, 2, 74, 64
4, 588456, Note_off_c, 2, 74, 64
4, 588456, Note_off_c, 2, 70, 64
4, 588480, Note_on_c, 2, 69, 64
4, 588480, Note_on_c, 2, 72, 64
4, 588936, Note_off_c, 2, 72, 64
4, 588936, Note_off_c, 2, 69, 64
4, 588960, Note_on_c, 2, 65, 64
4, 588960, Note_on_c, 2, 69, 64
4, 589416, Note_off_c, 2, 69, 64
4, 589416, Note_off_c, 2, 65, 64
4, 589440, Note_on_c, 2, 67, 64
4, 589440, Note_on_c, 2, 70, 64
4, 589896, Note_off_c, 2, 70, 64
4, 589896, Note_off_c, 2, 67, 64
4, 589920, Note_on_c, 2, 65, 64
4, 589920, Note_on_c, 2, 69, 64
4, 590376, Note_off_c, 2, 69, 64
4, 590376, Note_off_c, 2, 65, 64
4, 590400, Note_on_c, 2, 60, 64
4, 590400, Note_on_c, 2, 65, 64
4, 590856, Note_off_c, 2, 65, 64
4, 590856, Note_off_c, 2, 60, 64
4, 590880, Note_on_c, 2, 64, 64
4, 590880, Note_on_c, 2, 67, 64
4, 591336, Note_off_c, 2, 67, 64
4, 591336, Note_off_c, 2, 64, 64
4, 591360, Note_on_c, 2, 65, 64
4, 591360, Note_on_c, 2, 69, 64
4, 591816, Note_off_c, 2, 69, 64
4, 591816, Note_off_c, 2, 65, 64
4, 591840, Note_on_c, 2, 65, 64
4, 592296, Note_off_c, 2, 65, 64
4, 592320, Note_on_c, 2, 65, 64
4, 592320, Note_on_c, 2, 77, 64
4, 593736, Note_off_c, 2, 77, 64
4, 593736, Note_off_c, 2, 65, 64
4, 593760, Note_on_c, 2, 65, 71
4, 593760, Note_on_c, 2, 77, 71
4, 595176, Note_off_c, 2, 77, 64
4, 595176, Note_off_c, 2, 65, 64
4, 595200, Note_on_c, 2, 65, 74
4, 595200, Note_on_c, 2, 77, 74
4, 596616, Note_off_c, 2, 77, 64
4, 596616, Note_off_c, 2, 65, 64
4, 596640, Note_on_c, 2, 65, 71
4, 596640, Note_on_c, 2, 77, 71
4, 598056, Note_off_c, 2, 77, 64
4, 598056, Note_off_c, 2, 65, 64
4, 598080, Note_on_c, 2, 60, 100
4, 598080, Note_on_c, 2, 72, 100
4, 598308, Note_off_c, 2, 72, 64
4, 598308, Note_off_c, 2, 60, 64
4, 598560, Note_on_c, 2, 77, 100
4, 598560, Note_on_c, 2, 65, 100
4, 598788, Note_off_c, 2, 65, 64
4, 598788, Note_off_c, 2, 77, 64
4, 599040, Note_on_c, 2, 77, 100
4, 599040, Note_on_c, 2, 65, 100
4, 599268, Note_off_c, 2, 65, 64
4, 599268, Note_off_c, 2, 77, 64
4, 599520, Note_on_c, 2, 77, 100
4, 599520, Note_on_c, 2, 65, 100
4, 599748, Note_off_c, 2, 65, 64
4, 599748, Note_off_c, 2, 77, 64
4, 600000, Note_on_c, 2, 77, 100
4, 600000, Note_on_c, 2, 65, 100
4, 600228, Note_off_c, 2, 65, 64
4, 600228, Note_off_c, 2, 77, 64
4, 600480, Note_on_c, 2, 77, 100
4, 600480, Note_on_c, 2, 65, 100
4, 600708, Note_off_c, 2, 65, 64
4, 600708, Note_off_c, 2, 77, 64
4, 600960, Note_on_c, 2, 77, 100
4, 600960, Note_on_c, 2, 65, 100
4, 601188, Note_off_c, 2, 65, 64
4, 601188, Note_off_c, 2, 77, 64
4, 601440, Note_on_c, 2, 77, 127
4, 601440, Note_on_c, 2, 65, 127
4, 601668, Note_off_c, 2, 65, 64
4, 601668, Note_off_c, 2, 77, 64
4, 601920, Note_on_c, 2, 77, 100
4, 601920, Note_on_c, 2, 65, 100
4, 602148, Note_off_c, 2, 65, 64
4, 602148, Note_off_c, 2, 77, 64
4, 602400, Note_on_c, 2, 67, 100
4, 602400, Note_on_c, 2, 79, 100
4, 602628, Note_off_c, 2, 79, 64
4, 602628, Note_off_c, 2, 67, 64
4, 602880, Note_on_c, 2, 81, 127
4, 602880, Note_on_c, 2, 69, 127
4, 603108, Note_off_c, 2, 69, 64
4, 603108, Note_off_c, 2, 81, 64
4, 603360, Note_on_c, 2, 77, 100
4, 603360, Note_on_c, 2, 65, 100
4, 603588, Note_off_c, 2, 65, 64
4, 603588, Note_off_c, 2, 77, 64
4, 603840, Note_on_c, 2, 79, 100
4, 603840, Note_on_c, 2, 67, 100
4, 604068, Note_off_c, 2, 67, 64
4, 604068, Note_off_c, 2, 79, 64
4, 604320, Note_on_c, 2, 81, 127
4, 604320, Note_on_c, 2, 69, 127
4, 604548, Note_off_c, 2, 69, 64
4, 604548, Note_off_c, 2, 81, 64
4, 604800, Note_on_c, 2, 77, 100
4, 604800, Note_on_c, 2, 65, 100
4, 605028, Note_off_c, 2, 65, 64
4, 605028, Note_off_c, 2, 77, 64
4, 605280, Note_on_c, 2, 79, 100
4, 605280, Note_on_c, 2, 67, 100
4, 605508, Note_off_c, 2, 67, 64
4, 605508, Note_off_c, 2, 79, 64
4, 605760, Note_on_c, 2, 81, 127
4, 605760, Note_on_c, 2, 69, 127
4, 605988, Note_off_c, 2, 69, 64
4, 605988, Note_off_c, 2, 81, 64
4, 606240, Note_on_c, 2, 77, 100
4, 606240, Note_on_c, 2, 65, 100
4, 606468, Note_off_c, 2, 65, 64
4, 606468, Note_off_c, 2, 77, 64
4, 606720, Note_on_c, 2, 79, 100
4, 606720, Note_on_c, 2, 67, 100
4, 606948, Note_off_c, 2, 67, 64
4, 606948, Note_off_c, 2, 79, 64
4, 607200, Note_on_c, 2, 81, 127
4, 607200, Note_on_c, 2, 69, 127
4, 608332, Note_off_c, 2, 69, 64
4, 608332, Note_off_c, 2, 81, 64
4, 608640, Note_on_c, 2, 79, 100
4, 608640, Note_on_c, 2, 67, 100
4, 609576, Note_off_c, 2, 67, 64
4, 609576, Note_off_c, 2, 79, 64
4, 609600, Note_on_c, 2, 77, 100
4, 609600, Note_on_c, 2, 65, 100
4, 609782, Note_off_c, 2, 65, 64
4, 609782, Note_off_c, 2, 77, 64
4, 610080, Note_on_c, 2, 76, 100
4, 610080, Note_on_c, 2, 64, 100
4, 610828, Note_off_c, 2, 64, 64
4, 610828, Note_off_c, 2, 76, 64
4, 611040, Note_on_c, 2, 74, 100
4, 611040, Note_on_c, 2, 62, 100
4, 611222, Note_off_c, 2, 62, 64
4, 611222, Note_off_c, 2, 74, 64
4, 611520, Note_on_c, 2, 72, 100
4, 611520, Note_on_c, 2, 60, 100
4, 612456, Note_off_c, 2, 60, 64
4, 612456, Note_off_c, 2, 72, 64
4, 612480, Note_on_c, 2, 72, 100
4, 612480, Note_on_c, 2, 67, 100
4, 612708, Note_off_c, 2, 67, 64
4, 612708, Note_off_c, 2, 72, 64
4, 612960, Note_on_c, 2, 72, 120
4, 612960, Note_on_c, 2, 65, 120
4, 613896, Note_off_c, 2, 65, 64
4, 613896, Note_off_c, 2, 72, 64
4, 614400, Note_on_c, 2, 74, 120
4, 614400, Note_on_c, 2, 77, 120
4, 615336, Note_off_c, 2, 77, 64
4, 615336, Note_off_c, 2, 74, 64
4, 615840, Note_on_c, 2, 72, 120
4, 615840, Note_on_c, 2, 69, 120
4, 616776, Note_off_c, 2, 69, 64
4, 616776, Note_off_c, 2, 72, 64
4, 617280, Note_on_c, 2, 72, 120
4, 617280, Note_on_c, 2, 64, 120
4, 618216, Note_off_c, 2, 64, 64
4, 618216, Note_off_c, 2, 72, 64
4, 618720, Note_on_c, 2, 72, 110
4, 618720, Note_on_c, 2, 65, 110
4, 619024, Note_off_c, 2, 65, 64
4, 619024, Note_off_c, 2, 72, 64
4, 622560, Note_on_c, 2, 72, 100
4, 622560, Note_on_c, 2, 60, 100
4, 622788, Note_off_c, 2, 60, 64
4, 622788, Note_off_c, 2, 72, 64
4, 623040, Note_on_c, 2, 72, 100
4, 623040, Note_on_c, 2, 60, 100
4, 623748, Note_off_c, 2, 60, 64
4, 623748, Note_off_c, 2, 72, 64
4, 624000, Note_on_c, 2, 67, 100
4, 624000, Note_on_c, 2, 64, 100
4, 624228, Note_off_c, 2, 64, 64
4, 624228, Note_off_c, 2, 67, 64
4, 624480, Note_on_c, 2, 69, 100
4, 624480, Note_on_c, 2, 65, 100
4, 625416, Note_off_c, 2, 65, 64
4, 625416, Note_off_c, 2, 69, 64
4, 625920, Note_on_c, 2, 65, 100
4, 625920, Note_on_c, 2, 67, 100
4, 626856, Note_off_c, 2, 67, 64
4, 626856, Note_off_c, 2, 65, 64
4, 627360, Note_on_c, 2, 65, 100
4, 627360, Note_on_c, 2, 69, 100
4, 628296, Note_off_c, 2, 69, 64
4, 628296, Note_off_c, 2, 65, 64
4, 628800, Note_on_c, 2, 64, 100
4, 628800, Note_on_c, 2, 67, 100
4, 629736, Note_off_c, 2, 67, 64
4, 629736, Note_off_c, 2, 64, 64
4, 630240, Note_on_c, 2, 65, 100
4, 630240, Note_on_c, 2, 57, 100
4, 630696, Note_off_c, 2, 57, 64
4, 630696, Note_off_c, 2, 65, 64
4, 634560, Note_on_c, 2, 76, 100
4, 634560, Note_on_c, 2, 67, 100
4, 634788, Note_off_c, 2, 67, 64
4, 634788, Note_off_c, 2, 76, 64
4, 635040, Note_on_c, 2, 76, 100
4, 635040, Note_on_c, 2, 67, 100
4, 635268, Note_off_c, 2, 67, 64
4, 635268, Note_off_c, 2, 76, 64
4, 635520, Note_on_c, 2, 76, 100
4, 635520, Note_on_c, 2, 67, 100
4, 635748, Note_off_c, 2, 67, 64
4, 635748, Note_off_c, 2, 76, 64
4, 636000, Note_on_c, 2, 77, 100
4, 636000, Note_on_c, 2, 69, 100
4, 636456, Note_off_c, 2, 69, 64
4, 636456, Note_off_c, 2, 77, 64
4, 640320, Note_on_c, 2, 76, 90
4, 640320, Note_on_c, 2, 67, 90
4, 640548, Note_off_c, 2, 67, 64
4, 640548, Note_off_c, 2, 76, 64
4, 640800, Note_on_c, 2, 76, 90
4, 640800, Note_on_c, 2, 67, 90
4, 641028, Note_off_c, 2, 67, 64
4, 641028, Note_off_c, 2, 76, 64
4, 641280, Note_on_c, 2, 76, 90
4, 641280, Note_on_c, 2, 67, 90
4, 641554, Note_off_c, 2, 67, 64
4, 641554, Note_off_c, 2, 76, 64
4, 641554, End_track
5, 0, Start_track
5, 0, Title_t, "Bassoon"
5, 0, MIDI_port, 0
5, 0, Channel_prefix, 3
5, 0, Control_c, 3, 7, 106
5, 0, Control_c, 3, 10, 98
5, 0, Control_c, 3, 0, 0
5, 0, Control_c, 3, 32, 0
5, 0, Control_c, 3, 91, 58
5, 0, Program_c, 3, 70
5, 12480, Note_on_c, 3, 45, 42
5, 12480, Note_on_c, 3, 57, 42
5, 12800, Note_off_c, 3, 57, 64
5, 12800, Note_off_c, 3, 45, 64
5, 12960, Note_on_c, 3, 50, 42
5, 12960, Note_on_c, 3, 62, 42
5, 13754, Note_off_c, 3, 50, 64
5, 13760, Note_off_c, 3, 62, 64
5, 13920, Note_on_c, 3, 62, 42
5, 13920, Note_on_c, 3, 50, 42
5, 15040, Note_off_c, 3, 50, 64
5, 15040, Note_off_c, 3, 62, 64
5, 15360, Note_on_c, 3, 50, 42
5, 15360, Note_on_c, 3, 62, 42
5, 16480, Note_off_c, 3, 62, 64
5, 16480, Note_off_c, 3, 50, 64
5, 16800, Note_on_c, 3, 50, 42
5, 16800, Note_on_c, 3, 62, 42
5, 17920, Note_off_c, 3, 62, 64
5, 17920, Note_off_c, 3, 50, 64
5, 18240, Note_on_c, 3, 62, 42
5, 18240, Note_on_c, 3, 50, 42
5, 19360, Note_off_c, 3, 50, 64
5, 19360, Note_off_c, 3, 62, 64
5, 19680, Note_on_c, 3, 62, 42
5, 19680, Note_on_c, 3, 50, 42
5, 20800, Note_off_c, 3, 50, 64
5, 20800, Note_off_c, 3, 62, 64
5, 21120, Note_on_c, 3, 62, 42
5, 21120, Note_on_c, 3, 50, 42
5, 22240, Note_off_c, 3, 50, 64
5, 22240, Note_off_c, 3, 62, 64
5, 22560, Note_on_c, 3, 61, 42
5, 22560, Note_on_c, 3, 45, 42
5, 22880, Note_off_c, 3, 45, 64
5, 22880, Note_off_c, 3, 61, 64
5, 23040, Note_on_c, 3, 62, 42
5, 23040, Note_on_c, 3, 50, 42
5, 23390, Note_off_c, 3, 50, 64
5, 23390, Note_off_c, 3, 62, 64
5, 35520, Note_on_c, 3, 57, 42
5, 35520, Note_on_c, 3, 45, 42
5, 35840, Note_off_c, 3, 45, 64
5, 35840, Note_off_c, 3, 57, 64
5, 36000, Note_on_c, 3, 62, 42
5, 36000, Note_on_c, 3, 50, 42
5, 36794, Note_off_c, 3, 50, 64
5, 36800, Note_off_c, 3, 62, 64
5, 36960, Note_on_c, 3, 50, 42
5, 36960, Note_on_c, 3, 62, 42
5, 38080, Note_off_c, 3, 62, 64
5, 38080, Note_off_c, 3, 50, 64
5, 38400, Note_on_c, 3, 62, 42
5, 38400, Note_on_c, 3, 50, 42
5, 39520, Note_off_c, 3, 50, 64
5, 39520, Note_off_c, 3, 62, 64
5, 39840, Note_on_c, 3, 62, 42
5, 39840, Note_on_c, 3, 50, 42
5, 40960, Note_off_c, 3, 50, 64
5, 40960, Note_off_c, 3, 62, 64
5, 41280, Note_on_c, 3, 62, 42
5, 41280, Note_on_c, 3, 50, 42
5, 42400, Note_off_c, 3, 50, 64
5, 42400, Note_off_c, 3, 62, 64
5, 42720, Note_on_c, 3, 62, 42
5, 42720, Note_on_c, 3, 50, 42
5, 43840, Note_off_c, 3, 50, 64
5, 43840, Note_off_c, 3, 62, 64
5, 44160, Note_on_c, 3, 62, 42
5, 44160, Note_on_c, 3, 50, 42
5, 45280, Note_off_c, 3, 50, 64
5, 45280, Note_off_c, 3, 62, 64
5, 45600, Note_on_c, 3, 61, 42
5, 45600, Note_on_c, 3, 45, 42
5, 45920, Note_off_c, 3, 45, 64
5, 45920, Note_off_c, 3, 61, 64
5, 46080, Note_on_c, 3, 62, 42
5, 46080, Note_on_c, 3, 50, 42
5, 46430, Note_off_c, 3, 50, 64
5, 46430, Note_off_c, 3, 62, 64
5, 49920, Note_on_c, 3, 67, 38
5, 50080, Note_off_c, 3, 67, 64
5, 50400, Note_on_c, 3, 66, 38
5, 50560, Note_off_c, 3, 66, 64
5, 50880, Note_on_c, 3, 62, 38
5, 51040, Note_off_c, 3, 62, 64
5, 51360, Note_on_c, 3, 64, 38
5, 51520, Note_off_c, 3, 64, 64
5, 51840, Note_on_c, 3, 66, 38
5, 52000, Note_off_c, 3, 66, 64
5, 52320, Note_on_c, 3, 62, 38
5, 52480, Note_off_c, 3, 62, 64
5, 55680, Note_on_c, 3, 60, 38
5, 55840, Note_off_c, 3, 60, 64
5, 56160, Note_on_c, 3, 59, 38
5, 56320, Note_off_c, 3, 59, 64
5, 56640, Note_on_c, 3, 55, 38
5, 56800, Note_off_c, 3, 55, 64
5, 57120, Note_on_c, 3, 57, 38
5, 57280, Note_off_c, 3, 57, 64
5, 57600, Note_on_c, 3, 59, 38
5, 57760, Note_off_c, 3, 59, 64
5, 58080, Note_on_c, 3, 55, 38
5, 58240, Note_off_c, 3, 55, 64
5, 64320, Note_on_c, 3, 59, 64
5, 64320, Note_on_c, 3, 50, 64
5, 64640, Note_off_c, 3, 50, 64
5, 64640, Note_off_c, 3, 59, 64
5, 64800, Note_on_c, 3, 60, 64
5, 64800, Note_on_c, 3, 52, 64
5, 65120, Note_off_c, 3, 60, 64
5, 65280, Note_on_c, 3, 55, 64
5, 65440, Note_off_c, 3, 52, 64
5, 65600, Note_off_c, 3, 55, 64
5, 65760, Note_on_c, 3, 57, 64
5, 65760, Note_on_c, 3, 53, 64
5, 66080, Note_off_c, 3, 53, 64
5, 66080, Note_off_c, 3, 57, 64
5, 66240, Note_on_c, 3, 55, 64
5, 66240, Note_on_c, 3, 52, 64
5, 66560, Note_off_c, 3, 52, 64
5, 66560, Note_off_c, 3, 55, 64
5, 66720, Note_on_c, 3, 64, 64
5, 66720, Note_on_c, 3, 55, 64
5, 67040, Note_off_c, 3, 55, 64
5, 67040, Note_off_c, 3, 64, 64
5, 67200, Note_on_c, 3, 65, 64
5, 67200, Note_on_c, 3, 57, 64
5, 67520, Note_off_c, 3, 57, 64
5, 67520, Note_off_c, 3, 65, 64
5, 67680, Note_on_c, 3, 64, 64
5, 67680, Note_on_c, 3, 55, 64
5, 68000, Note_off_c, 3, 55, 64
5, 68000, Note_off_c, 3, 64, 64
5, 68160, Note_on_c, 3, 60, 64
5, 68160, Note_on_c, 3, 55, 64
5, 68480, Note_off_c, 3, 55, 64
5, 68480, Note_off_c, 3, 60, 64
5, 68640, Note_on_c, 3, 62, 64
5, 68640, Note_on_c, 3, 59, 64
5, 68960, Note_off_c, 3, 59, 64
5, 68960, Note_off_c, 3, 62, 64
5, 69120, Note_on_c, 3, 64, 64
5, 69120, Note_on_c, 3, 60, 64
5, 69440, Note_off_c, 3, 60, 64
5, 69440, Note_off_c, 3, 64, 64
5, 69600, Note_on_c, 3, 60, 64
5, 69600, Note_on_c, 3, 52, 64
5, 69920, Note_off_c, 3, 52, 64
5, 69920, Note_off_c, 3, 60, 64
5, 75840, Note_on_c, 3, 48, 90
5, 76160, Note_off_c, 3, 48, 64
5, 76320, Note_on_c, 3, 53, 90
5, 76640, Note_off_c, 3, 53, 64
5, 76800, Note_on_c, 3, 48, 90
5, 77120, Note_off_c, 3, 48, 64
5, 77280, Note_on_c, 3, 50, 90
5, 77600, Note_off_c, 3, 50, 64
5, 77760, Note_on_c, 3, 48, 90
5, 78080, Note_off_c, 3, 48, 64
5, 78240, Note_on_c, 3, 45, 90
5, 78560, Note_off_c, 3, 45, 64
5, 78720, Note_on_c, 3, 46, 90
5, 79040, Note_off_c, 3, 46, 64
5, 79200, Note_on_c, 3, 45, 114
5, 79520, Note_off_c, 3, 45, 64
5, 79680, Note_on_c, 3, 41, 111
5, 79680, Note_on_c, 3, 53, 90
5, 80000, Note_off_c, 3, 53, 64
5, 80000, Note_off_c, 3, 41, 64
5, 80160, Note_on_c, 3, 43, 90
5, 80160, Note_on_c, 3, 55, 90
5, 80480, Note_off_c, 3, 55, 64
5, 80480, Note_off_c, 3, 43, 64
5, 80640, Note_on_c, 3, 45, 114
5, 80640, Note_on_c, 3, 57, 115
5, 80960, Note_off_c, 3, 57, 64
5, 80960, Note_off_c, 3, 45, 64
5, 81120, Note_on_c, 3, 41, 90
5, 81120, Note_on_c, 3, 53, 90
5, 81440, Note_off_c, 3, 53, 64
5, 81440, Note_off_c, 3, 41, 64
5, 81600, Note_on_c, 3, 43, 90
5, 81600, Note_on_c, 3, 55, 90
5, 81920, Note_off_c, 3, 55, 64
5, 81920, Note_off_c, 3, 43, 64
5, 82080, Note_on_c, 3, 45, 118
5, 82080, Note_on_c, 3, 57, 114
5, 82400, Note_off_c, 3, 57, 64
5, 82400, Note_off_c, 3, 45, 64
5, 82560, Note_on_c, 3, 41, 90
5, 82560, Note_on_c, 3, 53, 90
5, 82880, Note_off_c, 3, 53, 64
5, 82880, Note_off_c, 3, 41, 64
5, 83040, Note_on_c, 3, 43, 90
5, 83040, Note_on_c, 3, 55, 90
5, 83360, Note_off_c, 3, 55, 64
5, 83360, Note_off_c, 3, 43, 64
5, 83520, Note_on_c, 3, 45, 113
5, 83520, Note_on_c, 3, 57, 112
5, 83840, Note_off_c, 3, 57, 64
5, 83840, Note_off_c, 3, 45, 64
5, 84000, Note_on_c, 3, 41, 90
5, 84000, Note_on_c, 3, 53, 90
5, 84320, Note_off_c, 3, 53, 64
5, 84320, Note_off_c, 3, 41, 64
5, 84480, Note_on_c, 3, 43, 90
5, 84480, Note_on_c, 3, 55, 90
5, 84800, Note_off_c, 3, 55, 64
5, 84800, Note_off_c, 3, 43, 64
5, 84960, Note_on_c, 3, 57, 114
5, 84960, Note_on_c, 3, 45, 113
5, 85920, Note_off_c, 3, 45, 64
5, 85920, Note_off_c, 3, 57, 64
5, 86400, Note_on_c, 3, 55, 90
5, 86400, Note_on_c, 3, 43, 90
5, 87040, Note_off_c, 3, 43, 64
5, 87040, Note_off_c, 3, 55, 64
5, 87360, Note_on_c, 3, 53, 90
5, 87360, Note_on_c, 3, 41, 90
5, 87680, Note_off_c, 3, 41, 64
5, 87680, Note_off_c, 3, 53, 64
5, 87840, Note_on_c, 3, 52, 90
5, 87840, Note_on_c, 3, 40, 90
5, 88480, Note_off_c, 3, 40, 64
5, 88480, Note_off_c, 3, 52, 64
5, 88800, Note_on_c, 3, 50, 90
5, 88800, Note_on_c, 3, 38, 90
5, 89120, Note_off_c, 3, 38, 64
5, 89120, Note_off_c, 3, 50, 64
5, 89280, Note_on_c, 3, 48, 90
5, 89280, Note_on_c, 3, 36, 90
5, 89920, Note_off_c, 3, 36, 64
5, 89920, Note_off_c, 3, 48, 64
5, 90240, Note_on_c, 3, 58, 90
5, 90240, Note_on_c, 3, 46, 90
5, 90560, Note_off_c, 3, 46, 64
5, 90560, Note_off_c, 3, 58, 64
5, 90720, Note_on_c, 3, 57, 111
5, 90720, Note_on_c, 3, 45, 109
5, 91850, Note_off_c, 3, 45, 64
5, 91874, Note_off_c, 3, 57, 64
5, 92160, Note_on_c, 3, 58, 107
5, 92160, Note_on_c, 3, 46, 111
5, 93290, Note_off_c, 3, 46, 64
5, 93300, Note_off_c, 3, 58, 64
5, 93600, Note_on_c, 3, 60, 114
5, 93600, Note_on_c, 3, 48, 111
5, 94744, Note_off_c, 3, 48, 64
5, 94760, Note_off_c, 3, 60, 64
5, 95040, Note_on_c, 3, 48, 108
5, 95040, Note_on_c, 3, 36, 113
5, 96184, Note_off_c, 3, 36, 64
5, 96190, Note_off_c, 3, 48, 64
5, 96480, Note_on_c, 3, 53, 90
5, 96480, Note_on_c, 3, 41, 90
5, 96800, Note_off_c, 3, 41, 64
5, 96800, Note_off_c, 3, 53, 64
5, 97440, Note_on_c, 3, 57, 90
5, 97440, Note_on_c, 3, 45, 90
5, 97760, Note_off_c, 3, 45, 64
5, 97760, Note_off_c, 3, 57, 64
5, 97920, Note_on_c, 3, 55, 90
5, 97920, Note_on_c, 3, 43, 90
5, 98560, Note_off_c, 3, 43, 64
5, 98560, Note_off_c, 3, 55, 64
5, 98880, Note_on_c, 3, 53, 90
5, 98880, Note_on_c, 3, 41, 90
5, 99200, Note_off_c, 3, 41, 64
5, 99200, Note_off_c, 3, 53, 64
5, 99360, Note_on_c, 3, 52, 90
5, 99360, Note_on_c, 3, 40, 90
5, 100000, Note_off_c, 3, 40, 64
5, 100000, Note_off_c, 3, 52, 64
5, 100320, Note_on_c, 3, 50, 90
5, 100320, Note_on_c, 3, 38, 90
5, 100640, Note_off_c, 3, 38, 64
5, 100640, Note_off_c, 3, 50, 64
5, 100800, Note_on_c, 3, 48, 90
5, 100800, Note_on_c, 3, 36, 90
5, 101440, Note_off_c, 3, 36, 64
5, 101440, Note_off_c, 3, 48, 64
5, 101760, Note_on_c, 3, 58, 90
5, 101760, Note_on_c, 3, 46, 90
5, 102080, Note_off_c, 3, 46, 64
5, 102080, Note_off_c, 3, 58, 64
5, 102240, Note_on_c, 3, 57, 90
5, 102240, Note_on_c, 3, 45, 90
5, 103354, Note_off_c, 3, 57, 64
5, 103360, Note_off_c, 3, 45, 64
5, 103680, Note_on_c, 3, 58, 90
5, 103680, Note_on_c, 3, 46, 90
5, 104784, Note_off_c, 3, 46, 64
5, 104820, Note_off_c, 3, 58, 64
5, 105120, Note_on_c, 3, 60, 90
5, 105120, Note_on_c, 3, 48, 90
5, 106234, Note_off_c, 3, 60, 64
5, 106240, Note_off_c, 3, 48, 64
5, 106560, Note_on_c, 3, 48, 90
5, 106560, Note_on_c, 3, 36, 90
5, 107674, Note_off_c, 3, 48, 64
5, 107680, Note_off_c, 3, 36, 64
5, 108000, Note_on_c, 3, 53, 111
5, 108000, Note_on_c, 3, 41, 108
5, 108320, Note_off_c, 3, 41, 64
5, 108320, Note_off_c, 3, 53, 64
5, 108480, Note_on_c, 3, 53, 90
5, 108480, Note_on_c, 3, 57, 90
5, 108800, Note_off_c, 3, 57, 64
5, 108800, Note_off_c, 3, 53, 64
5, 108960, Note_on_c, 3, 57, 90
5, 108960, Note_on_c, 3, 53, 90
5, 109280, Note_off_c, 3, 53, 64
5, 109280, Note_off_c, 3, 57, 64
5, 109440, Note_on_c, 3, 60, 110
5, 109440, Note_on_c, 3, 57, 108
5, 109760, Note_off_c, 3, 57, 64
5, 109760, Note_off_c, 3, 60, 64
5, 109920, Note_on_c, 3, 57, 90
5, 109920, Note_on_c, 3, 53, 90
5, 110240, Note_off_c, 3, 53, 64
5, 110240, Note_off_c, 3, 57, 64
5, 110400, Note_on_c, 3, 57, 90
5, 110400, Note_on_c, 3, 53, 90
5, 110720, Note_off_c, 3, 53, 64
5, 110720, Note_off_c, 3, 57, 64
5, 110880, Note_on_c, 3, 60, 111
5, 110880, Note_on_c, 3, 57, 113
5, 111200, Note_off_c, 3, 57, 64
5, 111200, Note_off_c, 3, 60, 64
5, 111360, Note_on_c, 3, 57, 90
5, 111360, Note_on_c, 3, 53, 90
5, 111680, Note_off_c, 3, 53, 64
5, 111680, Note_off_c, 3, 57, 64
5, 111840, Note_on_c, 3, 57, 90
5, 111840, Note_on_c, 3, 53, 90
5, 112160, Note_off_c, 3, 53, 64
5, 112160, Note_off_c, 3, 57, 64
5, 112320, Note_on_c, 3, 58, 113
5, 112320, Note_on_c, 3, 55, 113
5, 112640, Note_off_c, 3, 55, 64
5, 112640, Note_off_c, 3, 58, 64
5, 112800, Note_on_c, 3, 55, 90
5, 112800, Note_on_c, 3, 48, 90
5, 113120, Note_off_c, 3, 48, 64
5, 113120, Note_off_c, 3, 55, 64
5, 113280, Note_on_c, 3, 55, 90
5, 113280, Note_on_c, 3, 48, 90
5, 113600, Note_off_c, 3, 48, 64
5, 113600, Note_off_c, 3, 55, 64
5, 113760, Note_on_c, 3, 60, 117
5, 113760, Note_on_c, 3, 57, 113
5, 114080, Note_off_c, 3, 57, 64
5, 114080, Note_off_c, 3, 60, 64
5, 114240, Note_on_c, 3, 57, 90
5, 114240, Note_on_c, 3, 53, 90
5, 114560, Note_off_c, 3, 53, 64
5, 114560, Note_off_c, 3, 57, 64
5, 114720, Note_on_c, 3, 57, 90
5, 114720, Note_on_c, 3, 53, 90
5, 115040, Note_off_c, 3, 53, 64
5, 115040, Note_off_c, 3, 57, 64
5, 115200, Note_on_c, 3, 60, 111
5, 115200, Note_on_c, 3, 57, 110
5, 115520, Note_off_c, 3, 57, 64
5, 115520, Note_off_c, 3, 60, 64
5, 115680, Note_on_c, 3, 57, 90
5, 115680, Note_on_c, 3, 53, 90
5, 116000, Note_off_c, 3, 53, 64
5, 116000, Note_off_c, 3, 57, 64
5, 116160, Note_on_c, 3, 57, 90
5, 116160, Note_on_c, 3, 53, 90
5, 116480, Note_off_c, 3, 53, 64
5, 116480, Note_off_c, 3, 57, 64
5, 116640, Note_on_c, 3, 60, 109
5, 116640, Note_on_c, 3, 57, 110
5, 116960, Note_off_c, 3, 57, 64
5, 116960, Note_off_c, 3, 60, 64
5, 117120, Note_on_c, 3, 57, 90
5, 117120, Note_on_c, 3, 53, 90
5, 117440, Note_off_c, 3, 53, 64
5, 117440, Note_off_c, 3, 57, 64
5, 117600, Note_on_c, 3, 57, 90
5, 117600, Note_on_c, 3, 53, 90
5, 117920, Note_off_c, 3, 53, 64
5, 117920, Note_off_c, 3, 57, 64
5, 118080, Note_on_c, 3, 58, 107
5, 118080, Note_on_c, 3, 55, 107
5, 118400, Note_off_c, 3, 55, 64
5, 118400, Note_off_c, 3, 58, 64
5, 118560, Note_on_c, 3, 55, 90
5, 118560, Note_on_c, 3, 48, 90
5, 118880, Note_off_c, 3, 48, 64
5, 118880, Note_off_c, 3, 55, 64
5, 119040, Note_on_c, 3, 55, 90
5, 119040, Note_on_c, 3, 48, 90
5, 119360, Note_off_c, 3, 48, 64
5, 119360, Note_off_c, 3, 55, 64
5, 119520, Note_on_c, 3, 60, 110
5, 119520, Note_on_c, 3, 57, 104
5, 119840, Note_off_c, 3, 57, 64
5, 119840, Note_off_c, 3, 60, 64
5, 120000, Note_on_c, 3, 57, 91
5, 120000, Note_on_c, 3, 53, 87
5, 120320, Note_off_c, 3, 53, 64
5, 120320, Note_off_c, 3, 57, 64
5, 120480, Note_on_c, 3, 57, 87
5, 120480, Note_on_c, 3, 53, 91
5, 120800, Note_off_c, 3, 53, 64
5, 120800, Note_off_c, 3, 57, 64
5, 120960, Note_on_c, 3, 60, 110
5, 120960, Note_on_c, 3, 57, 108
5, 121280, Note_off_c, 3, 57, 64
5, 121280, Note_off_c, 3, 60, 64
5, 121440, Note_on_c, 3, 57, 93
5, 121440, Note_on_c, 3, 53, 94
5, 121760, Note_off_c, 3, 53, 64
5, 121760, Note_off_c, 3, 57, 64
5, 121920, Note_on_c, 3, 57, 93
5, 121920, Note_on_c, 3, 53, 90
5, 122240, Note_off_c, 3, 53, 64
5, 122240, Note_off_c, 3, 57, 64
5, 122400, Note_on_c, 3, 60, 115
5, 122400, Note_on_c, 3, 57, 115
5, 122720, Note_off_c, 3, 57, 64
5, 122720, Note_off_c, 3, 60, 64
5, 122880, Note_on_c, 3, 57, 91
5, 122880, Note_on_c, 3, 53, 85
5, 123200, Note_off_c, 3, 53, 64
5, 123200, Note_off_c, 3, 57, 64
5, 123360, Note_on_c, 3, 57, 91
5, 123360, Note_on_c, 3, 53, 88
5, 123680, Note_off_c, 3, 53, 64
5, 123680, Note_off_c, 3, 57, 64
5, 123840, Note_on_c, 3, 60, 99
5, 123840, Note_on_c, 3, 57, 93
5, 124160, Note_off_c, 3, 57, 64
5, 124160, Note_off_c, 3, 60, 64
5, 124320, Note_on_c, 3, 57, 82
5, 124320, Note_on_c, 3, 53, 81
5, 124640, Note_off_c, 3, 53, 64
5, 124640, Note_off_c, 3, 57, 64
5, 124800, Note_on_c, 3, 57, 81
5, 124800, Note_on_c, 3, 53, 79
5, 125120, Note_off_c, 3, 53, 64
5, 125120, Note_off_c, 3, 57, 64
5, 136800, Note_on_c, 3, 53, 64
5, 138030, Note_off_c, 3, 53, 64
5, 138240, Note_on_c, 3, 48, 64
5, 139440, Note_off_c, 3, 48, 64
5, 139680, Note_on_c, 3, 41, 64
5, 140840, Note_off_c, 3, 41, 64
5, 148320, Note_on_c, 3, 53, 64
5, 149484, Note_off_c, 3, 53, 64
5, 149760, Note_on_c, 3, 48, 64
5, 150874, Note_off_c, 3, 48, 64
5, 151200, Note_on_c, 3, 48, 64
5, 152374, Note_off_c, 3, 48, 64
5, 152640, Note_on_c, 3, 41, 64
5, 153774, Note_off_c, 3, 41, 64
5, 159840, Note_on_c, 3, 53, 64
5, 160980, Note_off_c, 3, 53, 64
5, 161280, Note_on_c, 3, 48, 64
5, 162394, Note_off_c, 3, 48, 64
5, 162720, Note_on_c, 3, 41, 64
5, 163894, Note_off_c, 3, 41, 64
5, 171360, Note_on_c, 3, 53, 64
5, 172574, Note_off_c, 3, 53, 64
5, 172800, Note_on_c, 3, 48, 64
5, 173970, Note_off_c, 3, 48, 64
5, 174240, Note_on_c, 3, 48, 64
5, 175404, Note_off_c, 3, 48, 64
5, 175680, Note_on_c, 3, 41, 64
5, 176854, Note_off_c, 3, 41, 64
5, 177120, Note_on_c, 3, 64, 54
5, 177120, Note_on_c, 3, 67, 54
5, 177440, Note_off_c, 3, 67, 64
5, 177440, Note_off_c, 3, 64, 64
5, 177600, Note_on_c, 3, 64, 54
5, 177600, Note_on_c, 3, 60, 54
5, 177920, Note_off_c, 3, 60, 64
5, 177920, Note_off_c, 3, 64, 64
5, 178080, Note_on_c, 3, 60, 54
5, 178080, Note_on_c, 3, 64, 54
5, 178400, Note_off_c, 3, 64, 64
5, 178400, Note_off_c, 3, 60, 64
5, 178560, Note_on_c, 3, 64, 54
5, 178560, Note_on_c, 3, 67, 54
5, 178880, Note_off_c, 3, 67, 64
5, 178880, Note_off_c, 3, 64, 64
5, 179040, Note_on_c, 3, 64, 54
5, 179040, Note_on_c, 3, 60, 54
5, 179360, Note_off_c, 3, 60, 64
5, 179360, Note_off_c, 3, 64, 64
5, 179520, Note_on_c, 3, 60, 54
5, 179520, Note_on_c, 3, 64, 54
5, 179840, Note_off_c, 3, 64, 64
5, 179840, Note_off_c, 3, 60, 64
5, 180000, Note_on_c, 3, 65, 54
5, 180000, Note_on_c, 3, 67, 54
5, 180320, Note_off_c, 3, 67, 64
5, 180320, Note_off_c, 3, 65, 64
5, 180480, Note_on_c, 3, 65, 54
5, 180480, Note_on_c, 3, 60, 54
5, 180800, Note_off_c, 3, 60, 64
5, 180800, Note_off_c, 3, 65, 64
5, 180960, Note_on_c, 3, 60, 54
5, 180960, Note_on_c, 3, 65, 54
5, 181280, Note_off_c, 3, 65, 64
5, 181280, Note_off_c, 3, 60, 64
5, 181440, Note_on_c, 3, 65, 54
5, 181440, Note_on_c, 3, 67, 54
5, 181760, Note_off_c, 3, 67, 64
5, 181760, Note_off_c, 3, 65, 64
5, 181914, Note_on_c, 3, 60, 54
5, 181920, Note_on_c, 3, 65, 54
5, 182234, Note_off_c, 3, 60, 64
5, 182240, Note_off_c, 3, 65, 64
5, 182400, Note_on_c, 3, 60, 54
5, 182400, Note_on_c, 3, 65, 54
5, 182720, Note_off_c, 3, 65, 64
5, 182720, Note_off_c, 3, 60, 64
5, 182880, Note_on_c, 3, 64, 54
5, 182880, Note_on_c, 3, 67, 54
5, 183200, Note_off_c, 3, 67, 64
5, 183200, Note_off_c, 3, 64, 64
5, 183360, Note_on_c, 3, 64, 54
5, 183360, Note_on_c, 3, 60, 54
5, 183680, Note_off_c, 3, 60, 64
5, 183680, Note_off_c, 3, 64, 64
5, 183840, Note_on_c, 3, 60, 54
5, 183840, Note_on_c, 3, 64, 54
5, 184160, Note_off_c, 3, 64, 64
5, 184160, Note_off_c, 3, 60, 64
5, 184320, Note_on_c, 3, 65, 54
5, 184320, Note_on_c, 3, 67, 54
5, 184640, Note_off_c, 3, 67, 64
5, 184640, Note_off_c, 3, 65, 64
5, 184800, Note_on_c, 3, 62, 54
5, 184800, Note_on_c, 3, 59, 54
5, 185120, Note_off_c, 3, 59, 64
5, 185120, Note_off_c, 3, 62, 64
5, 185280, Note_on_c, 3, 59, 54
5, 185280, Note_on_c, 3, 62, 54
5, 185600, Note_off_c, 3, 62, 64
5, 185600, Note_off_c, 3, 59, 64
5, 185760, Note_on_c, 3, 64, 54
5, 185760, Note_on_c, 3, 67, 54
5, 186080, Note_off_c, 3, 67, 64
5, 186080, Note_off_c, 3, 64, 64
5, 186240, Note_on_c, 3, 64, 54
5, 186240, Note_on_c, 3, 60, 54
5, 186560, Note_off_c, 3, 60, 64
5, 186560, Note_off_c, 3, 64, 64
5, 186720, Note_on_c, 3, 60, 54
5, 186720, Note_on_c, 3, 64, 54
5, 187040, Note_off_c, 3, 64, 64
5, 187040, Note_off_c, 3, 60, 64
5, 187200, Note_on_c, 3, 64, 54
5, 187200, Note_on_c, 3, 67, 54
5, 187520, Note_off_c, 3, 67, 64
5, 187520, Note_off_c, 3, 64, 64
5, 187680, Note_on_c, 3, 64, 54
5, 187680, Note_on_c, 3, 60, 54
5, 188000, Note_off_c, 3, 60, 64
5, 188000, Note_off_c, 3, 64, 64
5, 188160, Note_on_c, 3, 60, 54
5, 188160, Note_on_c, 3, 64, 54
5, 188480, Note_off_c, 3, 64, 64
5, 188480, Note_off_c, 3, 60, 64
5, 188640, Note_on_c, 3, 64, 54
5, 188640, Note_on_c, 3, 67, 54
5, 188960, Note_off_c, 3, 67, 64
5, 188960, Note_off_c, 3, 64, 64
5, 189120, Note_on_c, 3, 64, 54
5, 189120, Note_on_c, 3, 60, 54
5, 189440, Note_off_c, 3, 60, 64
5, 189440, Note_off_c, 3, 64, 64
5, 189600, Note_on_c, 3, 60, 54
5, 189600, Note_on_c, 3, 64, 54
5, 189920, Note_off_c, 3, 64, 64
5, 189920, Note_off_c, 3, 60, 64
5, 190080, Note_on_c, 3, 64, 54
5, 190080, Note_on_c, 3, 67, 54
5, 190400, Note_off_c, 3, 67, 64
5, 190400, Note_off_c, 3, 64, 64
5, 190560, Note_on_c, 3, 55, 54
5, 190560, Note_on_c, 3, 48, 54
5, 190880, Note_off_c, 3, 48, 64
5, 190880, Note_off_c, 3, 55, 64
5, 191040, Note_on_c, 3, 55, 54
5, 191040, Note_on_c, 3, 48, 54
5, 191360, Note_off_c, 3, 48, 64
5, 191360, Note_off_c, 3, 55, 64
5, 191520, Note_on_c, 3, 57, 54
5, 191520, Note_on_c, 3, 53, 54
5, 191840, Note_off_c, 3, 53, 64
5, 191840, Note_off_c, 3, 57, 64
5, 197280, Note_on_c, 3, 53, 64
5, 198240, Note_off_c, 3, 53, 64
5, 198720, Note_on_c, 3, 48, 64
5, 199680, Note_off_c, 3, 48, 64
5, 200160, Note_on_c, 3, 41, 64
5, 201120, Note_off_c, 3, 41, 64
5, 201600, Note_on_c, 3, 48, 64
5, 202560, Note_off_c, 3, 48, 64
5, 203040, Note_on_c, 3, 53, 64
5, 204000, Note_off_c, 3, 53, 64
5, 204480, Note_on_c, 3, 53, 64
5, 205440, Note_off_c, 3, 53, 64
5, 205920, Note_on_c, 3, 48, 64
5, 206880, Note_off_c, 3, 48, 64
5, 207360, Note_on_c, 3, 48, 64
5, 208320, Note_off_c, 3, 48, 64
5, 208800, Note_on_c, 3, 41, 64
5, 221760, Note_on_c, 3, 60, 67
5, 227040, Note_on_c, 3, 46, 78
5, 227190, Note_off_c, 3, 41, 64
5, 227360, Note_off_c, 3, 46, 64
5, 227520, Note_on_c, 3, 48, 79
5, 227840, Note_off_c, 3, 48, 64
5, 228000, Note_on_c, 3, 45, 80
5, 228320, Note_off_c, 3, 45, 64
5, 228480, Note_on_c, 3, 46, 81
5, 228800, Note_off_c, 3, 46, 64
5, 228960, Note_on_c, 3, 43, 82
5, 229600, Note_off_c, 3, 43, 64
5, 229920, Note_on_c, 3, 45, 84
5, 230240, Note_off_c, 3, 45, 64
5, 230400, Note_on_c, 3, 46, 85
5, 230720, Note_off_c, 3, 46, 64
5, 230880, Note_on_c, 3, 43, 86
5, 231200, Note_off_c, 3, 43, 64
5, 231360, Note_off_c, 3, 60, 64
5, 231360, Note_on_c, 3, 45, 87
5, 231680, Note_off_c, 3, 45, 64
5, 231840, Note_on_c, 3, 53, 96
5, 231840, Note_on_c, 3, 41, 96
5, 232160, Note_off_c, 3, 41, 64
5, 232160, Note_off_c, 3, 53, 64
5, 232800, Note_on_c, 3, 46, 64
5, 232974, Note_off_c, 3, 46, 64
5, 233280, Note_on_c, 3, 48, 92
5, 233480, Note_off_c, 3, 48, 64
5, 233760, Note_on_c, 3, 45, 85
5, 233950, Note_off_c, 3, 45, 64
5, 234240, Note_on_c, 3, 46, 85
5, 234424, Note_off_c, 3, 46, 64
5, 234720, Note_on_c, 3, 46, 94
5, 234904, Note_off_c, 3, 46, 64
5, 235200, Note_on_c, 3, 43, 85
5, 235394, Note_off_c, 3, 43, 64
5, 235680, Note_on_c, 3, 45, 85
5, 235854, Note_off_c, 3, 45, 64
5, 236160, Note_on_c, 3, 45, 95
5, 236344, Note_off_c, 3, 45, 64
5, 236640, Note_on_c, 3, 41, 85
5, 236830, Note_off_c, 3, 41, 64
5, 237120, Note_on_c, 3, 43, 85
5, 237294, Note_off_c, 3, 43, 64
5, 237600, Note_on_c, 3, 60, 85
5, 237600, Note_on_c, 3, 57, 85
5, 238320, Note_off_c, 3, 57, 64
5, 238320, Note_off_c, 3, 60, 64
5, 238560, Note_on_c, 3, 60, 85
5, 238560, Note_on_c, 3, 57, 85
5, 239280, Note_off_c, 3, 57, 64
5, 239280, Note_off_c, 3, 60, 64
5, 239520, Note_on_c, 3, 62, 85
5, 239520, Note_on_c, 3, 58, 85
5, 240240, Note_off_c, 3, 58, 64
5, 240240, Note_off_c, 3, 62, 64
5, 240480, Note_on_c, 3, 57, 85
5, 240480, Note_on_c, 3, 60, 85
5, 240954, Note_off_c, 3, 60, 64
5, 240954, Note_off_c, 3, 57, 64
5, 240960, Note_on_c, 3, 62, 85
5, 240960, Note_on_c, 3, 58, 85
5, 241280, Note_off_c, 3, 58, 64
5, 241280, Note_off_c, 3, 62, 64
5, 241440, Note_on_c, 3, 60, 85
5, 241440, Note_on_c, 3, 57, 85
5, 242160, Note_off_c, 3, 57, 64
5, 242160, Note_off_c, 3, 60, 64
5, 242400, Note_on_c, 3, 60, 85
5, 242400, Note_on_c, 3, 57, 85
5, 243120, Note_off_c, 3, 57, 64
5, 243120, Note_off_c, 3, 60, 64
5, 243360, Note_on_c, 3, 62, 85
5, 243360, Note_on_c, 3, 58, 85
5, 244080, Note_off_c, 3, 58, 64
5, 244080, Note_off_c, 3, 62, 64
5, 244320, Note_on_c, 3, 57, 85
5, 244320, Note_on_c, 3, 60, 85
5, 244794, Note_off_c, 3, 60, 64
5, 244794, Note_off_c, 3, 57, 64
5, 244800, Note_on_c, 3, 62, 85
5, 244800, Note_on_c, 3, 58, 85
5, 245120, Note_off_c, 3, 58, 64
5, 245120, Note_off_c, 3, 62, 64
5, 245280, Note_on_c, 3, 60, 85
5, 245280, Note_on_c, 3, 57, 85
5, 246000, Note_off_c, 3, 57, 64
5, 246000, Note_off_c, 3, 60, 64
5, 246240, Note_on_c, 3, 60, 85
5, 246240, Note_on_c, 3, 57, 85
5, 246960, Note_off_c, 3, 57, 64
5, 246960, Note_off_c, 3, 60, 64
5, 247200, Note_on_c, 3, 62, 85
5, 247200, Note_on_c, 3, 58, 85
5, 247920, Note_off_c, 3, 58, 64
5, 247920, Note_off_c, 3, 62, 64
5, 248160, Note_on_c, 3, 57, 85
5, 248160, Note_on_c, 3, 60, 85
5, 248634, Note_off_c, 3, 60, 64
5, 248634, Note_off_c, 3, 57, 64
5, 248640, Note_on_c, 3, 62, 85
5, 248640, Note_on_c, 3, 58, 85
5, 248960, Note_off_c, 3, 58, 64
5, 248960, Note_off_c, 3, 62, 64
5, 249120, Note_on_c, 3, 60, 85
5, 249120, Note_on_c, 3, 57, 85
5, 249840, Note_off_c, 3, 57, 64
5, 249840, Note_off_c, 3, 60, 64
5, 250080, Note_on_c, 3, 60, 85
5, 250080, Note_on_c, 3, 57, 85
5, 250800, Note_off_c, 3, 57, 64
5, 250800, Note_off_c, 3, 60, 64
5, 251040, Note_on_c, 3, 62, 85
5, 251040, Note_on_c, 3, 58, 85
5, 251760, Note_off_c, 3, 58, 64
5, 251760, Note_off_c, 3, 62, 64
5, 252000, Note_on_c, 3, 57, 85
5, 252000, Note_on_c, 3, 60, 85
5, 252474, Note_off_c, 3, 60, 64
5, 252474, Note_off_c, 3, 57, 64
5, 252480, Note_on_c, 3, 62, 85
5, 252480, Note_on_c, 3, 58, 85
5, 252800, Note_off_c, 3, 58, 64
5, 252800, Note_off_c, 3, 62, 64
5, 252960, Note_on_c, 3, 60, 85
5, 253064, Note_off_c, 3, 60, 64
5, 253200, Note_on_c, 3, 62, 85
5, 253280, Note_off_c, 3, 62, 64
5, 253320, Note_on_c, 3, 60, 85
5, 253400, Note_off_c, 3, 60, 64
5, 253440, Note_on_c, 3, 55, 85
5, 253560, Note_off_c, 3, 55, 64
5, 253680, Note_on_c, 3, 57, 85
5, 253760, Note_off_c, 3, 57, 64
5, 253800, Note_on_c, 3, 59, 85
5, 253880, Note_off_c, 3, 59, 64
5, 253920, Note_on_c, 3, 60, 85
5, 254020, Note_off_c, 3, 60, 64
5, 254160, Note_on_c, 3, 62, 85
5, 254240, Note_off_c, 3, 62, 64
5, 254280, Note_on_c, 3, 60, 85
5, 254360, Note_off_c, 3, 60, 64
5, 254400, Note_on_c, 3, 55, 85
5, 254720, Note_off_c, 3, 55, 64
5, 254880, Note_on_c, 3, 53, 85
5, 254960, Note_off_c, 3, 53, 64
5, 255000, Note_on_c, 3, 55, 85
5, 255080, Note_off_c, 3, 55, 64
5, 255120, Note_on_c, 3, 57, 85
5, 255200, Note_off_c, 3, 57, 64
5, 255240, Note_on_c, 3, 58, 85
5, 255320, Note_off_c, 3, 58, 64
5, 255360, Note_on_c, 3, 60, 85
5, 255520, Note_off_c, 3, 60, 64
5, 255600, Note_on_c, 3, 60, 85
5, 255640, Note_off_c, 3, 60, 64
5, 255660, Note_on_c, 3, 62, 85
5, 255740, Note_off_c, 3, 62, 64
5, 255840, Note_on_c, 3, 55, 85
5, 256000, Note_off_c, 3, 55, 64
5, 256080, Note_on_c, 3, 55, 85
5, 256120, Note_off_c, 3, 55, 64
5, 256150, Note_on_c, 3, 60, 85
5, 256230, Note_off_c, 3, 60, 64
5, 256320, Note_on_c, 3, 53, 85
5, 256640, Note_off_c, 3, 53, 64
5, 256800, Note_on_c, 3, 60, 85
5, 256904, Note_off_c, 3, 60, 64
5, 257040, Note_on_c, 3, 62, 85
5, 257120, Note_off_c, 3, 62, 64
5, 257160, Note_on_c, 3, 60, 85
5, 257240, Note_off_c, 3, 60, 64
5, 257280, Note_on_c, 3, 55, 85
5, 257400, Note_off_c, 3, 55, 64
5, 257520, Note_on_c, 3, 57, 85
5, 257600, Note_off_c, 3, 57, 64
5, 257640, Note_on_c, 3, 59, 85
5, 257720, Note_off_c, 3, 59, 64
5, 257760, Note_on_c, 3, 60, 85
5, 257860, Note_off_c, 3, 60, 64
5, 258000, Note_on_c, 3, 62, 85
5, 258080, Note_off_c, 3, 62, 64
5, 258120, Note_on_c, 3, 60, 85
5, 258200, Note_off_c, 3, 60, 64
5, 258240, Note_on_c, 3, 55, 85
5, 258560, Note_off_c, 3, 55, 64
5, 258720, Note_on_c, 3, 53, 85
5, 258800, Note_off_c, 3, 53, 64
5, 258840, Note_on_c, 3, 55, 85
5, 258920, Note_off_c, 3, 55, 64
5, 258960, Note_on_c, 3, 57, 85
5, 259040, Note_off_c, 3, 57, 64
5, 259080, Note_on_c, 3, 58, 85
5, 259160, Note_off_c, 3, 58, 64
5, 259200, Note_on_c, 3, 60, 85
5, 259360, Note_off_c, 3, 60, 64
5, 259440, Note_on_c, 3, 60, 85
5, 259480, Note_off_c, 3, 60, 64
5, 259500, Note_on_c, 3, 62, 85
5, 259580, Note_off_c, 3, 62, 64
5, 259680, Note_on_c, 3, 55, 85
5, 259840, Note_off_c, 3, 55, 64
5, 259920, Note_on_c, 3, 55, 85
5, 259960, Note_off_c, 3, 55, 64
5, 259990, Note_on_c, 3, 60, 85
5, 260070, Note_off_c, 3, 60, 64
5, 260160, Note_on_c, 3, 53, 85
5, 260480, Note_off_c, 3, 53, 64
5, 260640, Note_on_c, 3, 52, 88
5, 260640, Note_on_c, 3, 60, 88
5, 260960, Note_off_c, 3, 60, 64
5, 260960, Note_off_c, 3, 52, 64
5, 261120, Note_on_c, 3, 62, 88
5, 261120, Note_on_c, 3, 65, 88
5, 261440, Note_off_c, 3, 65, 64
5, 261440, Note_off_c, 3, 62, 64
5, 261600, Note_on_c, 3, 64, 89
5, 261600, Note_on_c, 3, 60, 89
5, 262080, Note_off_c, 3, 60, 64
5, 262080, Note_off_c, 3, 64, 64
5, 262320, Note_on_c, 3, 53, 90
5, 262320, Note_on_c, 3, 57, 90
5, 262480, Note_off_c, 3, 57, 64
5, 262480, Note_off_c, 3, 53, 64
5, 262560, Note_on_c, 3, 52, 90
5, 262560, Note_on_c, 3, 55, 90
5, 262720, Note_off_c, 3, 55, 64
5, 262720, Note_off_c, 3, 52, 64
5, 263040, Note_on_c, 3, 53, 90
5, 263040, Note_on_c, 3, 57, 90
5, 263200, Note_off_c, 3, 57, 64
5, 263200, Note_off_c, 3, 53, 64
5, 263520, Note_on_c, 3, 55, 91
5, 263520, Note_on_c, 3, 60, 91
5, 263680, Note_off_c, 3, 60, 64
5, 263680, Note_off_c, 3, 55, 64
5, 264000, Note_on_c, 3, 55, 92
5, 264000, Note_on_c, 3, 59, 92
5, 264160, Note_off_c, 3, 59, 64
5, 264160, Note_off_c, 3, 55, 64
5, 264480, Note_on_c, 3, 60, 92
5, 264480, Note_on_c, 3, 52, 92
5, 264640, Note_off_c, 3, 52, 64
5, 264640, Note_off_c, 3, 60, 64
5, 264720, Note_on_c, 3, 60, 92
5, 264720, Note_on_c, 3, 52, 92
5, 264880, Note_off_c, 3, 52, 64
5, 264880, Note_off_c, 3, 60, 64
5, 264960, Note_on_c, 3, 65, 93
5, 264960, Note_on_c, 3, 62, 93
5, 265120, Note_off_c, 3, 62, 64
5, 265120, Note_off_c, 3, 65, 64
5, 265200, Note_on_c, 3, 65, 93
5, 265200, Note_on_c, 3, 62, 93
5, 265360, Note_off_c, 3, 62, 64
5, 265360, Note_off_c, 3, 65, 64
5, 265440, Note_on_c, 3, 64, 93
5, 265440, Note_on_c, 3, 60, 93
5, 265600, Note_off_c, 3, 60, 64
5, 265600, Note_off_c, 3, 64, 64
5, 265680, Note_on_c, 3, 64, 94
5, 265680, Note_on_c, 3, 60, 94
5, 265930, Note_off_c, 3, 60, 64
5, 265934, Note_off_c, 3, 64, 64
5, 266160, Note_on_c, 3, 57, 94
5, 266160, Note_on_c, 3, 53, 94
5, 266320, Note_off_c, 3, 53, 64
5, 266320, Note_off_c, 3, 57, 64
5, 266640, Note_on_c, 3, 55, 95
5, 266640, Note_on_c, 3, 52, 95
5, 266800, Note_off_c, 3, 52, 64
5, 266800, Note_off_c, 3, 55, 64
5, 267120, Note_on_c, 3, 57, 95
5, 267120, Note_on_c, 3, 53, 95
5, 267280, Note_off_c, 3, 53, 64
5, 267280, Note_off_c, 3, 57, 64
5, 267600, Note_on_c, 3, 62, 90
5, 267600, Note_on_c, 3, 55, 90
5, 267760, Note_off_c, 3, 55, 64
5, 267760, Note_off_c, 3, 62, 64
5, 268080, Note_on_c, 3, 59, 92
5, 268080, Note_on_c, 3, 55, 92
5, 268240, Note_off_c, 3, 55, 64
5, 268240, Note_off_c, 3, 59, 64
5, 268320, Note_on_c, 3, 48, 93
5, 268320, Note_on_c, 3, 55, 93
5, 268800, Note_off_c, 3, 55, 64
5, 268800, Note_off_c, 3, 48, 64
5, 269040, Note_on_c, 3, 55, 95
5, 269040, Note_on_c, 3, 48, 95
5, 269200, Note_off_c, 3, 48, 64
5, 269200, Note_off_c, 3, 55, 64
5, 269280, Note_on_c, 3, 48, 96
5, 269280, Note_on_c, 3, 55, 96
5, 269760, Note_off_c, 3, 55, 64
5, 269760, Note_off_c, 3, 48, 64
5, 270000, Note_on_c, 3, 55, 98
5, 270000, Note_on_c, 3, 48, 98
5, 270160, Note_off_c, 3, 48, 64
5, 270160, Note_off_c, 3, 55, 64
5, 270240, Note_on_c, 3, 48, 99
5, 270240, Note_on_c, 3, 55, 99
5, 270720, Note_off_c, 3, 55, 64
5, 270720, Note_off_c, 3, 48, 64
5, 270960, Note_on_c, 3, 55, 101
5, 270960, Note_on_c, 3, 48, 101
5, 271120, Note_off_c, 3, 48, 64
5, 271120, Note_off_c, 3, 55, 64
5, 271200, Note_on_c, 3, 48, 102
5, 271200, Note_on_c, 3, 55, 102
5, 271680, Note_off_c, 3, 55, 64
5, 271680, Note_off_c, 3, 48, 64
5, 271920, Note_on_c, 3, 55, 104
5, 271920, Note_on_c, 3, 48, 104
5, 272080, Note_off_c, 3, 48, 64
5, 272080, Note_off_c, 3, 55, 64
5, 272160, Note_on_c, 3, 60, 105
5, 272160, Note_on_c, 3, 48, 105
5, 272320, Note_off_c, 3, 48, 64
5, 272320, Note_off_c, 3, 60, 64
5, 272400, Note_on_c, 3, 60, 106
5, 272400, Note_on_c, 3, 52, 106
5, 272560, Note_off_c, 3, 52, 64
5, 272560, Note_off_c, 3, 60, 64
5, 272640, Note_on_c, 3, 60, 107
5, 272640, Note_on_c, 3, 52, 107
5, 272800, Note_off_c, 3, 52, 64
5, 272800, Note_off_c, 3, 60, 64
5, 272880, Note_on_c, 3, 60, 108
5, 272880, Note_on_c, 3, 52, 108
5, 273040, Note_off_c, 3, 52, 64
5, 273040, Note_off_c, 3, 60, 64
5, 273120, Note_on_c, 3, 60, 108
5, 273120, Note_on_c, 3, 52, 108
5, 273280, Note_off_c, 3, 52, 64
5, 273280, Note_off_c, 3, 60, 64
5, 273360, Note_on_c, 3, 64, 109
5, 273360, Note_on_c, 3, 60, 109
5, 273520, Note_off_c, 3, 60, 64
5, 273520, Note_off_c, 3, 64, 64
5, 273600, Note_on_c, 3, 64, 110
5, 273600, Note_on_c, 3, 60, 110
5, 273760, Note_off_c, 3, 60, 64
5, 273760, Note_off_c, 3, 64, 64
5, 273840, Note_on_c, 3, 64, 111
5, 273840, Note_on_c, 3, 60, 111
5, 274000, Note_off_c, 3, 60, 64
5, 274000, Note_off_c, 3, 64, 64
5, 274080, Note_on_c, 3, 64, 112
5, 274080, Note_on_c, 3, 60, 112
5, 274240, Note_off_c, 3, 60, 64
5, 274240, Note_off_c, 3, 64, 64
5, 275040, Note_on_c, 3, 48, 61
5, 275200, Note_off_c, 3, 48, 64
5, 276960, Control_c, 3, 91, 58
5, 276960, Control_c, 3, 10, 98
5, 276960, Control_c, 3, 7, 106
5, 276960, Control_c, 3, 0, 0
5, 276960, Control_c, 3, 32, 0
5, 276960, Program_c, 3, 70
5, 276960, Control_c, 3, 91, 58
5, 276960, Control_c, 3, 10, 98
5, 276960, Control_c, 3, 7, 106
5, 276960, Control_c, 3, 0, 0
5, 276960, Control_c, 3, 32, 0
5, 276960, Program_c, 3, 70
5, 289440, Note_on_c, 3, 45, 42
5, 289440, Note_on_c, 3, 57, 42
5, 289760, Note_off_c, 3, 57, 64
5, 289760, Note_off_c, 3, 45, 64
5, 289920, Note_on_c, 3, 50, 42
5, 289920, Note_on_c, 3, 62, 42
5, 290714, Note_off_c, 3, 50, 64
5, 290720, Note_off_c, 3, 62, 64
5, 290880, Note_on_c, 3, 62, 42
5, 290880, Note_on_c, 3, 50, 42
5, 292000, Note_off_c, 3, 50, 64
5, 292000, Note_off_c, 3, 62, 64
5, 292320, Note_on_c, 3, 50, 42
5, 292320, Note_on_c, 3, 62, 42
5, 293440, Note_off_c, 3, 62, 64
5, 293440, Note_off_c, 3, 50, 64
5, 293760, Note_on_c, 3, 50, 42
5, 293760, Note_on_c, 3, 62, 42
5, 294880, Note_off_c, 3, 62, 64
5, 294880, Note_off_c, 3, 50, 64
5, 295200, Note_on_c, 3, 62, 42
5, 295200, Note_on_c, 3, 50, 42
5, 296320, Note_off_c, 3, 50, 64
5, 296320, Note_off_c, 3, 62, 64
5, 296640, Note_on_c, 3, 62, 42
5, 296640, Note_on_c, 3, 50, 42
5, 297760, Note_off_c, 3, 50, 64
5, 297760, Note_off_c, 3, 62, 64
5, 298080, Note_on_c, 3, 62, 42
5, 298080, Note_on_c, 3, 50, 42
5, 299200, Note_off_c, 3, 50, 64
5, 299200, Note_off_c, 3, 62, 64
5, 299520, Note_on_c, 3, 61, 42
5, 299520, Note_on_c, 3, 45, 42
5, 299840, Note_off_c, 3, 45, 64
5, 299840, Note_off_c, 3, 61, 64
5, 300000, Note_on_c, 3, 62, 42
5, 300000, Note_on_c, 3, 50, 42
5, 300350, Note_off_c, 3, 50, 64
5, 300350, Note_off_c, 3, 62, 64
5, 312480, Note_on_c, 3, 57, 42
5, 312480, Note_on_c, 3, 45, 42
5, 312800, Note_off_c, 3, 45, 64
5, 312800, Note_off_c, 3, 57, 64
5, 312960, Note_on_c, 3, 62, 42
5, 312960, Note_on_c, 3, 50, 42
5, 313754, Note_off_c, 3, 50, 64
5, 313760, Note_off_c, 3, 62, 64
5, 313920, Note_on_c, 3, 50, 42
5, 313920, Note_on_c, 3, 62, 42
5, 315040, Note_off_c, 3, 62, 64
5, 315040, Note_off_c, 3, 50, 64
5, 315360, Note_on_c, 3, 62, 42
5, 315360, Note_on_c, 3, 50, 42
5, 316480, Note_off_c, 3, 50, 64
5, 316480, Note_off_c, 3, 62, 64
5, 316800, Note_on_c, 3, 62, 42
5, 316800, Note_on_c, 3, 50, 42
5, 317920, Note_off_c, 3, 50, 64
5, 317920, Note_off_c, 3, 62, 64
5, 318240, Note_on_c, 3, 62, 42
5, 318240, Note_on_c, 3, 50, 42
5, 319360, Note_off_c, 3, 50, 64
5, 319360, Note_off_c, 3, 62, 64
5, 319680, Note_on_c, 3, 62, 42
5, 319680, Note_on_c, 3, 50, 42
5, 320800, Note_off_c, 3, 50, 64
5, 320800, Note_off_c, 3, 62, 64
5, 321120, Note_on_c, 3, 62, 42
5, 321120, Note_on_c, 3, 50, 42
5, 322240, Note_off_c, 3, 50, 64
5, 322240, Note_off_c, 3, 62, 64
5, 322560, Note_on_c, 3, 61, 42
5, 322560, Note_on_c, 3, 45, 42
5, 322880, Note_off_c, 3, 45, 64
5, 322880, Note_off_c, 3, 61, 64
5, 323040, Note_on_c, 3, 62, 42
5, 323040, Note_on_c, 3, 50, 42
5, 323390, Note_off_c, 3, 50, 64
5, 323390, Note_off_c, 3, 62, 64
5, 326880, Note_on_c, 3, 67, 38
5, 327040, Note_off_c, 3, 67, 64
5, 327360, Note_on_c, 3, 66, 38
5, 327520, Note_off_c, 3, 66, 64
5, 327840, Note_on_c, 3, 62, 38
5, 328000, Note_off_c, 3, 62, 64
5, 328320, Note_on_c, 3, 64, 38
5, 328480, Note_off_c, 3, 64, 64
5, 328800, Note_on_c, 3, 66, 38
5, 328960, Note_off_c, 3, 66, 64
5, 329280, Note_on_c, 3, 62, 38
5, 329440, Note_off_c, 3, 62, 64
5, 332640, Note_on_c, 3, 60, 38
5, 332800, Note_off_c, 3, 60, 64
5, 333120, Note_on_c, 3, 59, 38
5, 333280, Note_off_c, 3, 59, 64
5, 333600, Note_on_c, 3, 55, 38
5, 333760, Note_off_c, 3, 55, 64
5, 334080, Note_on_c, 3, 57, 38
5, 334240, Note_off_c, 3, 57, 64
5, 334560, Note_on_c, 3, 59, 38
5, 334720, Note_off_c, 3, 59, 64
5, 335040, Note_on_c, 3, 55, 38
5, 335200, Note_off_c, 3, 55, 64
5, 341280, Note_on_c, 3, 59, 64
5, 341280, Note_on_c, 3, 50, 64
5, 341600, Note_off_c, 3, 50, 64
5, 341600, Note_off_c, 3, 59, 64
5, 341760, Note_on_c, 3, 60, 64
5, 341760, Note_on_c, 3, 52, 64
5, 342080, Note_off_c, 3, 60, 64
5, 342240, Note_on_c, 3, 55, 64
5, 342400, Note_off_c, 3, 52, 64
5, 342560, Note_off_c, 3, 55, 64
5, 342720, Note_on_c, 3, 57, 64
5, 342720, Note_on_c, 3, 53, 64
5, 343040, Note_off_c, 3, 53, 64
5, 343040, Note_off_c, 3, 57, 64
5, 343200, Note_on_c, 3, 55, 64
5, 343200, Note_on_c, 3, 52, 64
5, 343520, Note_off_c, 3, 52, 64
5, 343520, Note_off_c, 3, 55, 64
5, 343680, Note_on_c, 3, 64, 64
5, 343680, Note_on_c, 3, 55, 64
5, 344000, Note_off_c, 3, 55, 64
5, 344000, Note_off_c, 3, 64, 64
5, 344160, Note_on_c, 3, 65, 64
5, 344160, Note_on_c, 3, 57, 64
5, 344480, Note_off_c, 3, 57, 64
5, 344480, Note_off_c, 3, 65, 64
5, 344640, Note_on_c, 3, 64, 64
5, 344640, Note_on_c, 3, 55, 64
5, 344960, Note_off_c, 3, 55, 64
5, 344960, Note_off_c, 3, 64, 64
5, 345120, Note_on_c, 3, 60, 64
5, 345120, Note_on_c, 3, 55, 64
5, 345440, Note_off_c, 3, 55, 64
5, 345440, Note_off_c, 3, 60, 64
5, 345600, Note_on_c, 3, 62, 64
5, 345600, Note_on_c, 3, 59, 64
5, 345920, Note_off_c, 3, 59, 64
5, 345920, Note_off_c, 3, 62, 64
5, 346080, Note_on_c, 3, 64, 64
5, 346080, Note_on_c, 3, 60, 64
5, 346400, Note_off_c, 3, 60, 64
5, 346400, Note_off_c, 3, 64, 64
5, 346560, Note_on_c, 3, 60, 64
5, 346560, Note_on_c, 3, 52, 64
5, 346880, Note_off_c, 3, 52, 64
5, 346880, Note_off_c, 3, 60, 64
5, 352800, Note_on_c, 3, 48, 90
5, 353120, Note_off_c, 3, 48, 64
5, 353280, Note_on_c, 3, 53, 90
5, 353600, Note_off_c, 3, 53, 64
5, 353760, Note_on_c, 3, 48, 90
5, 354080, Note_off_c, 3, 48, 64
5, 354240, Note_on_c, 3, 50, 90
5, 354560, Note_off_c, 3, 50, 64
5, 354720, Note_on_c, 3, 48, 90
5, 355040, Note_off_c, 3, 48, 64
5, 355200, Note_on_c, 3, 45, 90
5, 355520, Note_off_c, 3, 45, 64
5, 355680, Note_on_c, 3, 46, 90
5, 356000, Note_off_c, 3, 46, 64
5, 356160, Note_on_c, 3, 45, 114
5, 356480, Note_off_c, 3, 45, 64
5, 356640, Note_on_c, 3, 41, 111
5, 356640, Note_on_c, 3, 53, 90
5, 356960, Note_off_c, 3, 53, 64
5, 356960, Note_off_c, 3, 41, 64
5, 357120, Note_on_c, 3, 43, 90
5, 357120, Note_on_c, 3, 55, 90
5, 357440, Note_off_c, 3, 55, 64
5, 357440, Note_off_c, 3, 43, 64
5, 357600, Note_on_c, 3, 45, 114
5, 357600, Note_on_c, 3, 57, 115
5, 357920, Note_off_c, 3, 57, 64
5, 357920, Note_off_c, 3, 45, 64
5, 358080, Note_on_c, 3, 41, 90
5, 358080, Note_on_c, 3, 53, 90
5, 358400, Note_off_c, 3, 53, 64
5, 358400, Note_off_c, 3, 41, 64
5, 358560, Note_on_c, 3, 43, 90
5, 358560, Note_on_c, 3, 55, 90
5, 358880, Note_off_c, 3, 55, 64
5, 358880, Note_off_c, 3, 43, 64
5, 359040, Note_on_c, 3, 45, 118
5, 359040, Note_on_c, 3, 57, 114
5, 359360, Note_off_c, 3, 57, 64
5, 359360, Note_off_c, 3, 45, 64
5, 359520, Note_on_c, 3, 41, 90
5, 359520, Note_on_c, 3, 53, 90
5, 359840, Note_off_c, 3, 53, 64
5, 359840, Note_off_c, 3, 41, 64
5, 360000, Note_on_c, 3, 43, 90
5, 360000, Note_on_c, 3, 55, 90
5, 360320, Note_off_c, 3, 55, 64
5, 360320, Note_off_c, 3, 43, 64
5, 360480, Note_on_c, 3, 45, 113
5, 360480, Note_on_c, 3, 57, 112
5, 360800, Note_off_c, 3, 57, 64
5, 360800, Note_off_c, 3, 45, 64
5, 360960, Note_on_c, 3, 41, 90
5, 360960, Note_on_c, 3, 53, 90
5, 361280, Note_off_c, 3, 53, 64
5, 361280, Note_off_c, 3, 41, 64
5, 361440, Note_on_c, 3, 43, 90
5, 361440, Note_on_c, 3, 55, 90
5, 361760, Note_off_c, 3, 55, 64
5, 361760, Note_off_c, 3, 43, 64
5, 361920, Note_on_c, 3, 57, 114
5, 361920, Note_on_c, 3, 45, 113
5, 362880, Note_off_c, 3, 45, 64
5, 362880, Note_off_c, 3, 57, 64
5, 363360, Note_on_c, 3, 55, 90
5, 363360, Note_on_c, 3, 43, 90
5, 364000, Note_off_c, 3, 43, 64
5, 364000, Note_off_c, 3, 55, 64
5, 364320, Note_on_c, 3, 53, 90
5, 364320, Note_on_c, 3, 41, 90
5, 364640, Note_off_c, 3, 41, 64
5, 364640, Note_off_c, 3, 53, 64
5, 364800, Note_on_c, 3, 52, 90
5, 364800, Note_on_c, 3, 40, 90
5, 365440, Note_off_c, 3, 40, 64
5, 365440, Note_off_c, 3, 52, 64
5, 365760, Note_on_c, 3, 50, 90
5, 365760, Note_on_c, 3, 38, 90
5, 366080, Note_off_c, 3, 38, 64
5, 366080, Note_off_c, 3, 50, 64
5, 366240, Note_on_c, 3, 48, 90
5, 366240, Note_on_c, 3, 36, 90
5, 366880, Note_off_c, 3, 36, 64
5, 366880, Note_off_c, 3, 48, 64
5, 367200, Note_on_c, 3, 58, 90
5, 367200, Note_on_c, 3, 46, 90
5, 367520, Note_off_c, 3, 46, 64
5, 367520, Note_off_c, 3, 58, 64
5, 367680, Note_on_c, 3, 57, 111
5, 367680, Note_on_c, 3, 45, 109
5, 368810, Note_off_c, 3, 45, 64
5, 368834, Note_off_c, 3, 57, 64
5, 369120, Note_on_c, 3, 58, 107
5, 369120, Note_on_c, 3, 46, 111
5, 370250, Note_off_c, 3, 46, 64
5, 370260, Note_off_c, 3, 58, 64
5, 370560, Note_on_c, 3, 60, 114
5, 370560, Note_on_c, 3, 48, 111
5, 371704, Note_off_c, 3, 48, 64
5, 371720, Note_off_c, 3, 60, 64
5, 372000, Note_on_c, 3, 48, 108
5, 372000, Note_on_c, 3, 36, 113
5, 373144, Note_off_c, 3, 36, 64
5, 373150, Note_off_c, 3, 48, 64
5, 373440, Note_on_c, 3, 53, 90
5, 373440, Note_on_c, 3, 41, 90
5, 373760, Note_off_c, 3, 41, 64
5, 373760, Note_off_c, 3, 53, 64
5, 374400, Note_on_c, 3, 57, 90
5, 374400, Note_on_c, 3, 45, 90
5, 374720, Note_off_c, 3, 45, 64
5, 374720, Note_off_c, 3, 57, 64
5, 374880, Note_on_c, 3, 55, 90
5, 374880, Note_on_c, 3, 43, 90
5, 375520, Note_off_c, 3, 43, 64
5, 375520, Note_off_c, 3, 55, 64
5, 375840, Note_on_c, 3, 53, 90
5, 375840, Note_on_c, 3, 41, 90
5, 376160, Note_off_c, 3, 41, 64
5, 376160, Note_off_c, 3, 53, 64
5, 376320, Note_on_c, 3, 52, 90
5, 376320, Note_on_c, 3, 40, 90
5, 376960, Note_off_c, 3, 40, 64
5, 376960, Note_off_c, 3, 52, 64
5, 377280, Note_on_c, 3, 50, 90
5, 377280, Note_on_c, 3, 38, 90
5, 377600, Note_off_c, 3, 38, 64
5, 377600, Note_off_c, 3, 50, 64
5, 377760, Note_on_c, 3, 48, 90
5, 377760, Note_on_c, 3, 36, 90
5, 378400, Note_off_c, 3, 36, 64
5, 378400, Note_off_c, 3, 48, 64
5, 378720, Note_on_c, 3, 58, 90
5, 378720, Note_on_c, 3, 46, 90
5, 379040, Note_off_c, 3, 46, 64
5, 379040, Note_off_c, 3, 58, 64
5, 379200, Note_on_c, 3, 57, 90
5, 379200, Note_on_c, 3, 45, 90
5, 380314, Note_off_c, 3, 57, 64
5, 380320, Note_off_c, 3, 45, 64
5, 380640, Note_on_c, 3, 58, 90
5, 380640, Note_on_c, 3, 46, 90
5, 381744, Note_off_c, 3, 46, 64
5, 381780, Note_off_c, 3, 58, 64
5, 382080, Note_on_c, 3, 60, 90
5, 382080, Note_on_c, 3, 48, 90
5, 383194, Note_off_c, 3, 60, 64
5, 383200, Note_off_c, 3, 48, 64
5, 383520, Note_on_c, 3, 48, 90
5, 383520, Note_on_c, 3, 36, 90
5, 384634, Note_off_c, 3, 48, 64
5, 384640, Note_off_c, 3, 36, 64
5, 384960, Note_on_c, 3, 53, 111
5, 384960, Note_on_c, 3, 41, 108
5, 385280, Note_off_c, 3, 41, 64
5, 385280, Note_off_c, 3, 53, 64
5, 385440, Note_on_c, 3, 53, 90
5, 385440, Note_on_c, 3, 57, 90
5, 385760, Note_off_c, 3, 57, 64
5, 385760, Note_off_c, 3, 53, 64
5, 385920, Note_on_c, 3, 57, 90
5, 385920, Note_on_c, 3, 53, 90
5, 386240, Note_off_c, 3, 53, 64
5, 386240, Note_off_c, 3, 57, 64
5, 386400, Note_on_c, 3, 60, 110
5, 386400, Note_on_c, 3, 57, 108
5, 386720, Note_off_c, 3, 57, 64
5, 386720, Note_off_c, 3, 60, 64
5, 386880, Note_on_c, 3, 57, 90
5, 386880, Note_on_c, 3, 53, 90
5, 387200, Note_off_c, 3, 53, 64
5, 387200, Note_off_c, 3, 57, 64
5, 387360, Note_on_c, 3, 57, 90
5, 387360, Note_on_c, 3, 53, 90
5, 387680, Note_off_c, 3, 53, 64
5, 387680, Note_off_c, 3, 57, 64
5, 387840, Note_on_c, 3, 60, 111
5, 387840, Note_on_c, 3, 57, 113
5, 388160, Note_off_c, 3, 57, 64
5, 388160, Note_off_c, 3, 60, 64
5, 388320, Note_on_c, 3, 57, 90
5, 388320, Note_on_c, 3, 53, 90
5, 388640, Note_off_c, 3, 53, 64
5, 388640, Note_off_c, 3, 57, 64
5, 388800, Note_on_c, 3, 57, 90
5, 388800, Note_on_c, 3, 53, 90
5, 389120, Note_off_c, 3, 53, 64
5, 389120, Note_off_c, 3, 57, 64
5, 389280, Note_on_c, 3, 58, 113
5, 389280, Note_on_c, 3, 55, 113
5, 389600, Note_off_c, 3, 55, 64
5, 389600, Note_off_c, 3, 58, 64
5, 389760, Note_on_c, 3, 55, 90
5, 389760, Note_on_c, 3, 48, 90
5, 390080, Note_off_c, 3, 48, 64
5, 390080, Note_off_c, 3, 55, 64
5, 390240, Note_on_c, 3, 55, 90
5, 390240, Note_on_c, 3, 48, 90
5, 390560, Note_off_c, 3, 48, 64
5, 390560, Note_off_c, 3, 55, 64
5, 390720, Note_on_c, 3, 60, 117
5, 390720, Note_on_c, 3, 57, 113
5, 391040, Note_off_c, 3, 57, 64
5, 391040, Note_off_c, 3, 60, 64
5, 391200, Note_on_c, 3, 57, 90
5, 391200, Note_on_c, 3, 53, 90
5, 391520, Note_off_c, 3, 53, 64
5, 391520, Note_off_c, 3, 57, 64
5, 391680, Note_on_c, 3, 57, 90
5, 391680, Note_on_c, 3, 53, 90
5, 392000, Note_off_c, 3, 53, 64
5, 392000, Note_off_c, 3, 57, 64
5, 392160, Note_on_c, 3, 60, 111
5, 392160, Note_on_c, 3, 57, 110
5, 392480, Note_off_c, 3, 57, 64
5, 392480, Note_off_c, 3, 60, 64
5, 392640, Note_on_c, 3, 57, 90
5, 392640, Note_on_c, 3, 53, 90
5, 392960, Note_off_c, 3, 53, 64
5, 392960, Note_off_c, 3, 57, 64
5, 393120, Note_on_c, 3, 57, 90
5, 393120, Note_on_c, 3, 53, 90
5, 393440, Note_off_c, 3, 53, 64
5, 393440, Note_off_c, 3, 57, 64
5, 393600, Note_on_c, 3, 60, 109
5, 393600, Note_on_c, 3, 57, 110
5, 393920, Note_off_c, 3, 57, 64
5, 393920, Note_off_c, 3, 60, 64
5, 394080, Note_on_c, 3, 57, 90
5, 394080, Note_on_c, 3, 53, 90
5, 394400, Note_off_c, 3, 53, 64
5, 394400, Note_off_c, 3, 57, 64
5, 394560, Note_on_c, 3, 57, 90
5, 394560, Note_on_c, 3, 53, 90
5, 394880, Note_off_c, 3, 53, 64
5, 394880, Note_off_c, 3, 57, 64
5, 395040, Note_on_c, 3, 58, 107
5, 395040, Note_on_c, 3, 55, 107
5, 395360, Note_off_c, 3, 55, 64
5, 395360, Note_off_c, 3, 58, 64
5, 395520, Note_on_c, 3, 55, 90
5, 395520, Note_on_c, 3, 48, 90
5, 395840, Note_off_c, 3, 48, 64
5, 395840, Note_off_c, 3, 55, 64
5, 396000, Note_on_c, 3, 55, 90
5, 396000, Note_on_c, 3, 48, 90
5, 396320, Note_off_c, 3, 48, 64
5, 396320, Note_off_c, 3, 55, 64
5, 396480, Note_on_c, 3, 60, 110
5, 396480, Note_on_c, 3, 57, 104
5, 396800, Note_off_c, 3, 57, 64
5, 396800, Note_off_c, 3, 60, 64
5, 396960, Note_on_c, 3, 57, 91
5, 396960, Note_on_c, 3, 53, 87
5, 397280, Note_off_c, 3, 53, 64
5, 397280, Note_off_c, 3, 57, 64
5, 397440, Note_on_c, 3, 57, 87
5, 397440, Note_on_c, 3, 53, 91
5, 397760, Note_off_c, 3, 53, 64
5, 397760, Note_off_c, 3, 57, 64
5, 397920, Note_on_c, 3, 60, 110
5, 397920, Note_on_c, 3, 57, 108
5, 398240, Note_off_c, 3, 57, 64
5, 398240, Note_off_c, 3, 60, 64
5, 398400, Note_on_c, 3, 57, 93
5, 398400, Note_on_c, 3, 53, 94
5, 398720, Note_off_c, 3, 53, 64
5, 398720, Note_off_c, 3, 57, 64
5, 398880, Note_on_c, 3, 57, 93
5, 398880, Note_on_c, 3, 53, 90
5, 399200, Note_off_c, 3, 53, 64
5, 399200, Note_off_c, 3, 57, 64
5, 399360, Note_on_c, 3, 60, 115
5, 399360, Note_on_c, 3, 57, 115
5, 399680, Note_off_c, 3, 57, 64
5, 399680, Note_off_c, 3, 60, 64
5, 399840, Note_on_c, 3, 57, 91
5, 399840, Note_on_c, 3, 53, 85
5, 400160, Note_off_c, 3, 53, 64
5, 400160, Note_off_c, 3, 57, 64
5, 400320, Note_on_c, 3, 57, 91
5, 400320, Note_on_c, 3, 53, 88
5, 400640, Note_off_c, 3, 53, 64
5, 400640, Note_off_c, 3, 57, 64
5, 400800, Note_on_c, 3, 60, 99
5, 400800, Note_on_c, 3, 57, 93
5, 401120, Note_off_c, 3, 57, 64
5, 401120, Note_off_c, 3, 60, 64
5, 401280, Note_on_c, 3, 57, 82
5, 401280, Note_on_c, 3, 53, 81
5, 401600, Note_off_c, 3, 53, 64
5, 401600, Note_off_c, 3, 57, 64
5, 401760, Note_on_c, 3, 57, 81
5, 401760, Note_on_c, 3, 53, 79
5, 402080, Note_off_c, 3, 53, 64
5, 402080, Note_off_c, 3, 57, 64
5, 413760, Note_on_c, 3, 53, 64
5, 414990, Note_off_c, 3, 53, 64
5, 415200, Note_on_c, 3, 48, 64
5, 416400, Note_off_c, 3, 48, 64
5, 416640, Note_on_c, 3, 41, 64
5, 417800, Note_off_c, 3, 41, 64
5, 425280, Note_on_c, 3, 53, 64
5, 426444, Note_off_c, 3, 53, 64
5, 426720, Note_on_c, 3, 48, 64
5, 427834, Note_off_c, 3, 48, 64
5, 428160, Note_on_c, 3, 48, 64
5, 429334, Note_off_c, 3, 48, 64
5, 429600, Note_on_c, 3, 41, 64
5, 430734, Note_off_c, 3, 41, 64
5, 436800, Note_on_c, 3, 53, 64
5, 437940, Note_off_c, 3, 53, 64
5, 438240, Note_on_c, 3, 48, 64
5, 439354, Note_off_c, 3, 48, 64
5, 439680, Note_on_c, 3, 41, 64
5, 440854, Note_off_c, 3, 41, 64
5, 448320, Note_on_c, 3, 53, 64
5, 449534, Note_off_c, 3, 53, 64
5, 449760, Note_on_c, 3, 48, 64
5, 450930, Note_off_c, 3, 48, 64
5, 451200, Note_on_c, 3, 48, 64
5, 452364, Note_off_c, 3, 48, 64
5, 452640, Note_on_c, 3, 41, 64
5, 453814, Note_off_c, 3, 41, 64
5, 454080, Note_on_c, 3, 64, 54
5, 454080, Note_on_c, 3, 67, 54
5, 454400, Note_off_c, 3, 67, 64
5, 454400, Note_off_c, 3, 64, 64
5, 454560, Note_on_c, 3, 64, 54
5, 454560, Note_on_c, 3, 60, 54
5, 454880, Note_off_c, 3, 60, 64
5, 454880, Note_off_c, 3, 64, 64
5, 455040, Note_on_c, 3, 60, 54
5, 455040, Note_on_c, 3, 64, 54
5, 455360, Note_off_c, 3, 64, 64
5, 455360, Note_off_c, 3, 60, 64
5, 455520, Note_on_c, 3, 64, 54
5, 455520, Note_on_c, 3, 67, 54
5, 455840, Note_off_c, 3, 67, 64
5, 455840, Note_off_c, 3, 64, 64
5, 456000, Note_on_c, 3, 64, 54
5, 456000, Note_on_c, 3, 60, 54
5, 456320, Note_off_c, 3, 60, 64
5, 456320, Note_off_c, 3, 64, 64
5, 456480, Note_on_c, 3, 60, 54
5, 456480, Note_on_c, 3, 64, 54
5, 456800, Note_off_c, 3, 64, 64
5, 456800, Note_off_c, 3, 60, 64
5, 456960, Note_on_c, 3, 65, 54
5, 456960, Note_on_c, 3, 67, 54
5, 457280, Note_off_c, 3, 67, 64
5, 457280, Note_off_c, 3, 65, 64
5, 457440, Note_on_c, 3, 65, 54
5, 457440, Note_on_c, 3, 60, 54
5, 457760, Note_off_c, 3, 60, 64
5, 457760, Note_off_c, 3, 65, 64
5, 457920, Note_on_c, 3, 60, 54
5, 457920, Note_on_c, 3, 65, 54
5, 458240, Note_off_c, 3, 65, 64
5, 458240, Note_off_c, 3, 60, 64
5, 458400, Note_on_c, 3, 65, 54
5, 458400, Note_on_c, 3, 67, 54
5, 458720, Note_off_c, 3, 67, 64
5, 458720, Note_off_c, 3, 65, 64
5, 458874, Note_on_c, 3, 60, 54
5, 458880, Note_on_c, 3, 65, 54
5, 459194, Note_off_c, 3, 60, 64
5, 459200, Note_off_c, 3, 65, 64
5, 459360, Note_on_c, 3, 60, 54
5, 459360, Note_on_c, 3, 65, 54
5, 459680, Note_off_c, 3, 65, 64
5, 459680, Note_off_c, 3, 60, 64
5, 459840, Note_on_c, 3, 64, 54
5, 459840, Note_on_c, 3, 67, 54
5, 460160, Note_off_c, 3, 67, 64
5, 460160, Note_off_c, 3, 64, 64
5, 460320, Note_on_c, 3, 64, 54
5, 460320, Note_on_c, 3, 60, 54
5, 460640, Note_off_c, 3, 60, 64
5, 460640, Note_off_c, 3, 64, 64
5, 460800, Note_on_c, 3, 60, 54
5, 460800, Note_on_c, 3, 64, 54
5, 461120, Note_off_c, 3, 64, 64
5, 461120, Note_off_c, 3, 60, 64
5, 461280, Note_on_c, 3, 65, 54
5, 461280, Note_on_c, 3, 67, 54
5, 461600, Note_off_c, 3, 67, 64
5, 461600, Note_off_c, 3, 65, 64
5, 461760, Note_on_c, 3, 62, 54
5, 461760, Note_on_c, 3, 59, 54
5, 462080, Note_off_c, 3, 59, 64
5, 462080, Note_off_c, 3, 62, 64
5, 462240, Note_on_c, 3, 59, 54
5, 462240, Note_on_c, 3, 62, 54
5, 462560, Note_off_c, 3, 62, 64
5, 462560, Note_off_c, 3, 59, 64
5, 462720, Note_on_c, 3, 64, 54
5, 462720, Note_on_c, 3, 67, 54
5, 463040, Note_off_c, 3, 67, 64
5, 463040, Note_off_c, 3, 64, 64
5, 463200, Note_on_c, 3, 64, 54
5, 463200, Note_on_c, 3, 60, 54
5, 463520, Note_off_c, 3, 60, 64
5, 463520, Note_off_c, 3, 64, 64
5, 463680, Note_on_c, 3, 60, 54
5, 463680, Note_on_c, 3, 64, 54
5, 464000, Note_off_c, 3, 64, 64
5, 464000, Note_off_c, 3, 60, 64
5, 464160, Note_on_c, 3, 64, 54
5, 464160, Note_on_c, 3, 67, 54
5, 464480, Note_off_c, 3, 67, 64
5, 464480, Note_off_c, 3, 64, 64
5, 464640, Note_on_c, 3, 64, 54
5, 464640, Note_on_c, 3, 60, 54
5, 464960, Note_off_c, 3, 60, 64
5, 464960, Note_off_c, 3, 64, 64
5, 465120, Note_on_c, 3, 60, 54
5, 465120, Note_on_c, 3, 64, 54
5, 465440, Note_off_c, 3, 64, 64
5, 465440, Note_off_c, 3, 60, 64
5, 465600, Note_on_c, 3, 64, 54
5, 465600, Note_on_c, 3, 67, 54
5, 465920, Note_off_c, 3, 67, 64
5, 465920, Note_off_c, 3, 64, 64
5, 466080, Note_on_c, 3, 64, 54
5, 466080, Note_on_c, 3, 60, 54
5, 466400, Note_off_c, 3, 60, 64
5, 466400, Note_off_c, 3, 64, 64
5, 466560, Note_on_c, 3, 60, 54
5, 466560, Note_on_c, 3, 64, 54
5, 466880, Note_off_c, 3, 64, 64
5, 466880, Note_off_c, 3, 60, 64
5, 467040, Note_on_c, 3, 64, 54
5, 467040, Note_on_c, 3, 67, 54
5, 467360, Note_off_c, 3, 67, 64
5, 467360, Note_off_c, 3, 64, 64
5, 467520, Note_on_c, 3, 55, 54
5, 467520, Note_on_c, 3, 48, 54
5, 467840, Note_off_c, 3, 48, 64
5, 467840, Note_off_c, 3, 55, 64
5, 468000, Note_on_c, 3, 55, 54
5, 468000, Note_on_c, 3, 48, 54
5, 468320, Note_off_c, 3, 48, 64
5, 468320, Note_off_c, 3, 55, 64
5, 468480, Note_on_c, 3, 57, 54
5, 468480, Note_on_c, 3, 53, 54
5, 468800, Note_off_c, 3, 53, 64
5, 468800, Note_off_c, 3, 57, 64
5, 474240, Note_on_c, 3, 53, 64
5, 475200, Note_off_c, 3, 53, 64
5, 475680, Note_on_c, 3, 48, 64
5, 476640, Note_off_c, 3, 48, 64
5, 477120, Note_on_c, 3, 41, 64
5, 478080, Note_off_c, 3, 41, 64
5, 478560, Note_on_c, 3, 48, 64
5, 479520, Note_off_c, 3, 48, 64
5, 480000, Note_on_c, 3, 53, 64
5, 480960, Note_off_c, 3, 53, 64
5, 481440, Note_on_c, 3, 53, 64
5, 482400, Note_off_c, 3, 53, 64
5, 482880, Note_on_c, 3, 48, 64
5, 483840, Note_off_c, 3, 48, 64
5, 484320, Note_on_c, 3, 48, 64
5, 485280, Note_off_c, 3, 48, 64
5, 485760, Note_on_c, 3, 41, 64
5, 498720, Note_on_c, 3, 60, 67
5, 504000, Note_on_c, 3, 46, 78
5, 504150, Note_off_c, 3, 41, 64
5, 504320, Note_off_c, 3, 46, 64
5, 504480, Note_on_c, 3, 48, 79
5, 504800, Note_off_c, 3, 48, 64
5, 504960, Note_on_c, 3, 45, 80
5, 505280, Note_off_c, 3, 45, 64
5, 505440, Note_on_c, 3, 46, 81
5, 505760, Note_off_c, 3, 46, 64
5, 505920, Note_on_c, 3, 43, 82
5, 506560, Note_off_c, 3, 43, 64
5, 506880, Note_on_c, 3, 45, 84
5, 507200, Note_off_c, 3, 45, 64
5, 507360, Note_on_c, 3, 46, 85
5, 507680, Note_off_c, 3, 46, 64
5, 507840, Note_on_c, 3, 43, 86
5, 508160, Note_off_c, 3, 43, 64
5, 508320, Note_off_c, 3, 60, 64
5, 508320, Note_on_c, 3, 45, 87
5, 508640, Note_off_c, 3, 45, 64
5, 508800, Note_on_c, 3, 53, 96
5, 508800, Note_on_c, 3, 41, 96
5, 509120, Note_off_c, 3, 41, 64
5, 509120, Note_off_c, 3, 53, 64
5, 509760, Note_on_c, 3, 46, 64
5, 509934, Note_off_c, 3, 46, 64
5, 510240, Note_on_c, 3, 48, 92
5, 510440, Note_off_c, 3, 48, 64
5, 510720, Note_on_c, 3, 45, 85
5, 510910, Note_off_c, 3, 45, 64
5, 511200, Note_on_c, 3, 46, 85
5, 511384, Note_off_c, 3, 46, 64
5, 511680, Note_on_c, 3, 46, 94
5, 511864, Note_off_c, 3, 46, 64
5, 512160, Note_on_c, 3, 43, 85
5, 512354, Note_off_c, 3, 43, 64
5, 512640, Note_on_c, 3, 45, 85
5, 512814, Note_off_c, 3, 45, 64
5, 513120, Note_on_c, 3, 45, 95
5, 513304, Note_off_c, 3, 45, 64
5, 513600, Note_on_c, 3, 41, 85
5, 513790, Note_off_c, 3, 41, 64
5, 514080, Note_on_c, 3, 43, 85
5, 514254, Note_off_c, 3, 43, 64
5, 514560, Note_on_c, 3, 60, 85
5, 514560, Note_on_c, 3, 57, 85
5, 515280, Note_off_c, 3, 57, 64
5, 515280, Note_off_c, 3, 60, 64
5, 515520, Note_on_c, 3, 60, 85
5, 515520, Note_on_c, 3, 57, 85
5, 516240, Note_off_c, 3, 57, 64
5, 516240, Note_off_c, 3, 60, 64
5, 516480, Note_on_c, 3, 62, 85
5, 516480, Note_on_c, 3, 58, 85
5, 517200, Note_off_c, 3, 58, 64
5, 517200, Note_off_c, 3, 62, 64
5, 517440, Note_on_c, 3, 57, 85
5, 517440, Note_on_c, 3, 60, 85
5, 517914, Note_off_c, 3, 60, 64
5, 517914, Note_off_c, 3, 57, 64
5, 517920, Note_on_c, 3, 62, 85
5, 517920, Note_on_c, 3, 58, 85
5, 518240, Note_off_c, 3, 58, 64
5, 518240, Note_off_c, 3, 62, 64
5, 518400, Note_on_c, 3, 60, 85
5, 518400, Note_on_c, 3, 57, 85
5, 519120, Note_off_c, 3, 57, 64
5, 519120, Note_off_c, 3, 60, 64
5, 519360, Note_on_c, 3, 60, 85
5, 519360, Note_on_c, 3, 57, 85
5, 520080, Note_off_c, 3, 57, 64
5, 520080, Note_off_c, 3, 60, 64
5, 520320, Note_on_c, 3, 62, 85
5, 520320, Note_on_c, 3, 58, 85
5, 521040, Note_off_c, 3, 58, 64
5, 521040, Note_off_c, 3, 62, 64
5, 521280, Note_on_c, 3, 57, 85
5, 521280, Note_on_c, 3, 60, 85
5, 521754, Note_off_c, 3, 60, 64
5, 521754, Note_off_c, 3, 57, 64
5, 521760, Note_on_c, 3, 62, 85
5, 521760, Note_on_c, 3, 58, 85
5, 522080, Note_off_c, 3, 58, 64
5, 522080, Note_off_c, 3, 62, 64
5, 522240, Note_on_c, 3, 60, 85
5, 522240, Note_on_c, 3, 57, 85
5, 522960, Note_off_c, 3, 57, 64
5, 522960, Note_off_c, 3, 60, 64
5, 523200, Note_on_c, 3, 60, 85
5, 523200, Note_on_c, 3, 57, 85
5, 523920, Note_off_c, 3, 57, 64
5, 523920, Note_off_c, 3, 60, 64
5, 524160, Note_on_c, 3, 62, 85
5, 524160, Note_on_c, 3, 58, 85
5, 524880, Note_off_c, 3, 58, 64
5, 524880, Note_off_c, 3, 62, 64
5, 525120, Note_on_c, 3, 57, 85
5, 525120, Note_on_c, 3, 60, 85
5, 525594, Note_off_c, 3, 60, 64
5, 525594, Note_off_c, 3, 57, 64
5, 525600, Note_on_c, 3, 62, 85
5, 525600, Note_on_c, 3, 58, 85
5, 525920, Note_off_c, 3, 58, 64
5, 525920, Note_off_c, 3, 62, 64
5, 526080, Note_on_c, 3, 60, 85
5, 526080, Note_on_c, 3, 57, 85
5, 526800, Note_off_c, 3, 57, 64
5, 526800, Note_off_c, 3, 60, 64
5, 527040, Note_on_c, 3, 60, 85
5, 527040, Note_on_c, 3, 57, 85
5, 527760, Note_off_c, 3, 57, 64
5, 527760, Note_off_c, 3, 60, 64
5, 528000, Note_on_c, 3, 62, 85
5, 528000, Note_on_c, 3, 58, 85
5, 528720, Note_off_c, 3, 58, 64
5, 528720, Note_off_c, 3, 62, 64
5, 528960, Note_on_c, 3, 57, 85
5, 528960, Note_on_c, 3, 60, 85
5, 529434, Note_off_c, 3, 60, 64
5, 529434, Note_off_c, 3, 57, 64
5, 529440, Note_on_c, 3, 62, 85
5, 529440, Note_on_c, 3, 58, 85
5, 529760, Note_off_c, 3, 58, 64
5, 529760, Note_off_c, 3, 62, 64
5, 529920, Note_on_c, 3, 60, 85
5, 530024, Note_off_c, 3, 60, 64
5, 530160, Note_on_c, 3, 62, 85
5, 530240, Note_off_c, 3, 62, 64
5, 530280, Note_on_c, 3, 60, 85
5, 530360, Note_off_c, 3, 60, 64
5, 530400, Note_on_c, 3, 55, 85
5, 530520, Note_off_c, 3, 55, 64
5, 530640, Note_on_c, 3, 57, 85
5, 530720, Note_off_c, 3, 57, 64
5, 530760, Note_on_c, 3, 59, 85
5, 530840, Note_off_c, 3, 59, 64
5, 530880, Note_on_c, 3, 60, 85
5, 530980, Note_off_c, 3, 60, 64
5, 531120, Note_on_c, 3, 62, 85
5, 531200, Note_off_c, 3, 62, 64
5, 531240, Note_on_c, 3, 60, 85
5, 531320, Note_off_c, 3, 60, 64
5, 531360, Note_on_c, 3, 55, 85
5, 531680, Note_off_c, 3, 55, 64
5, 531840, Note_on_c, 3, 53, 85
5, 531920, Note_off_c, 3, 53, 64
5, 531960, Note_on_c, 3, 55, 85
5, 532040, Note_off_c, 3, 55, 64
5, 532080, Note_on_c, 3, 57, 85
5, 532160, Note_off_c, 3, 57, 64
5, 532200, Note_on_c, 3, 58, 85
5, 532280, Note_off_c, 3, 58, 64
5, 532320, Note_on_c, 3, 60, 85
5, 532480, Note_off_c, 3, 60, 64
5, 532560, Note_on_c, 3, 60, 85
5, 532600, Note_off_c, 3, 60, 64
5, 532620, Note_on_c, 3, 62, 85
5, 532700, Note_off_c, 3, 62, 64
5, 532800, Note_on_c, 3, 55, 85
5, 532960, Note_off_c, 3, 55, 64
5, 533040, Note_on_c, 3, 55, 85
5, 533080, Note_off_c, 3, 55, 64
5, 533110, Note_on_c, 3, 60, 85
5, 533190, Note_off_c, 3, 60, 64
5, 533280, Note_on_c, 3, 53, 85
5, 533600, Note_off_c, 3, 53, 64
5, 533760, Note_on_c, 3, 60, 85
5, 533864, Note_off_c, 3, 60, 64
5, 534000, Note_on_c, 3, 62, 85
5, 534080, Note_off_c, 3, 62, 64
5, 534120, Note_on_c, 3, 60, 85
5, 534200, Note_off_c, 3, 60, 64
5, 534240, Note_on_c, 3, 55, 85
5, 534360, Note_off_c, 3, 55, 64
5, 534480, Note_on_c, 3, 57, 85
5, 534560, Note_off_c, 3, 57, 64
5, 534600, Note_on_c, 3, 59, 85
5, 534680, Note_off_c, 3, 59, 64
5, 534720, Note_on_c, 3, 60, 85
5, 534820, Note_off_c, 3, 60, 64
5, 534960, Note_on_c, 3, 62, 85
5, 535040, Note_off_c, 3, 62, 64
5, 535080, Note_on_c, 3, 60, 85
5, 535160, Note_off_c, 3, 60, 64
5, 535200, Note_on_c, 3, 55, 85
5, 535520, Note_off_c, 3, 55, 64
5, 535680, Note_on_c, 3, 53, 85
5, 535760, Note_off_c, 3, 53, 64
5, 535800, Note_on_c, 3, 55, 85
5, 535880, Note_off_c, 3, 55, 64
5, 535920, Note_on_c, 3, 57, 85
5, 536000, Note_off_c, 3, 57, 64
5, 536040, Note_on_c, 3, 58, 85
5, 536120, Note_off_c, 3, 58, 64
5, 536160, Note_on_c, 3, 60, 85
5, 536320, Note_off_c, 3, 60, 64
5, 536400, Note_on_c, 3, 60, 85
5, 536440, Note_off_c, 3, 60, 64
5, 536460, Note_on_c, 3, 62, 85
5, 536540, Note_off_c, 3, 62, 64
5, 536640, Note_on_c, 3, 55, 85
5, 536800, Note_off_c, 3, 55, 64
5, 536880, Note_on_c, 3, 55, 85
5, 536920, Note_off_c, 3, 55, 64
5, 536950, Note_on_c, 3, 60, 85
5, 537030, Note_off_c, 3, 60, 64
5, 537120, Note_on_c, 3, 53, 85
5, 537440, Note_off_c, 3, 53, 64
5, 537600, Note_on_c, 3, 52, 88
5, 537600, Note_on_c, 3, 60, 88
5, 537920, Note_off_c, 3, 60, 64
5, 537920, Note_off_c, 3, 52, 64
5, 538080, Note_on_c, 3, 62, 88
5, 538080, Note_on_c, 3, 65, 88
5, 538400, Note_off_c, 3, 65, 64
5, 538400, Note_off_c, 3, 62, 64
5, 538560, Note_on_c, 3, 64, 89
5, 538560, Note_on_c, 3, 60, 89
5, 539040, Note_off_c, 3, 60, 64
5, 539040, Note_off_c, 3, 64, 64
5, 539280, Note_on_c, 3, 53, 90
5, 539280, Note_on_c, 3, 57, 90
5, 539440, Note_off_c, 3, 57, 64
5, 539440, Note_off_c, 3, 53, 64
5, 539520, Note_on_c, 3, 52, 90
5, 539520, Note_on_c, 3, 55, 90
5, 539680, Note_off_c, 3, 55, 64
5, 539680, Note_off_c, 3, 52, 64
5, 540000, Note_on_c, 3, 53, 90
5, 540000, Note_on_c, 3, 57, 90
5, 540160, Note_off_c, 3, 57, 64
5, 540160, Note_off_c, 3, 53, 64
5, 540480, Note_on_c, 3, 55, 91
5, 540480, Note_on_c, 3, 60, 91
5, 540640, Note_off_c, 3, 60, 64
5, 540640, Note_off_c, 3, 55, 64
5, 540960, Note_on_c, 3, 55, 92
5, 540960, Note_on_c, 3, 59, 92
5, 541120, Note_off_c, 3, 59, 64
5, 541120, Note_off_c, 3, 55, 64
5, 541440, Note_on_c, 3, 60, 92
5, 541440, Note_on_c, 3, 52, 92
5, 541600, Note_off_c, 3, 52, 64
5, 541600, Note_off_c, 3, 60, 64
5, 541680, Note_on_c, 3, 60, 92
5, 541680, Note_on_c, 3, 52, 92
5, 541840, Note_off_c, 3, 52, 64
5, 541840, Note_off_c, 3, 60, 64
5, 541920, Note_on_c, 3, 65, 93
5, 541920, Note_on_c, 3, 62, 93
5, 542080, Note_off_c, 3, 62, 64
5, 542080, Note_off_c, 3, 65, 64
5, 542160, Note_on_c, 3, 65, 93
5, 542160, Note_on_c, 3, 62, 93
5, 542320, Note_off_c, 3, 62, 64
5, 542320, Note_off_c, 3, 65, 64
5, 542400, Note_on_c, 3, 64, 93
5, 542400, Note_on_c, 3, 60, 93
5, 542560, Note_off_c, 3, 60, 64
5, 542560, Note_off_c, 3, 64, 64
5, 542640, Note_on_c, 3, 64, 94
5, 542640, Note_on_c, 3, 60, 94
5, 542890, Note_off_c, 3, 60, 64
5, 542894, Note_off_c, 3, 64, 64
5, 543120, Note_on_c, 3, 57, 94
5, 543120, Note_on_c, 3, 53, 94
5, 543280, Note_off_c, 3, 53, 64
5, 543280, Note_off_c, 3, 57, 64
5, 543600, Note_on_c, 3, 55, 95
5, 543600, Note_on_c, 3, 52, 95
5, 543760, Note_off_c, 3, 52, 64
5, 543760, Note_off_c, 3, 55, 64
5, 544080, Note_on_c, 3, 57, 95
5, 544080, Note_on_c, 3, 53, 95
5, 544240, Note_off_c, 3, 53, 64
5, 544240, Note_off_c, 3, 57, 64
5, 544560, Note_on_c, 3, 62, 90
5, 544560, Note_on_c, 3, 55, 90
5, 544720, Note_off_c, 3, 55, 64
5, 544720, Note_off_c, 3, 62, 64
5, 545040, Note_on_c, 3, 59, 92
5, 545040, Note_on_c, 3, 55, 92
5, 545200, Note_off_c, 3, 55, 64
5, 545200, Note_off_c, 3, 59, 64
5, 545280, Note_on_c, 3, 48, 93
5, 545280, Note_on_c, 3, 55, 93
5, 545760, Note_off_c, 3, 55, 64
5, 545760, Note_off_c, 3, 48, 64
5, 546000, Note_on_c, 3, 55, 95
5, 546000, Note_on_c, 3, 48, 95
5, 546160, Note_off_c, 3, 48, 64
5, 546160, Note_off_c, 3, 55, 64
5, 546240, Note_on_c, 3, 48, 96
5, 546240, Note_on_c, 3, 55, 96
5, 546720, Note_off_c, 3, 55, 64
5, 546720, Note_off_c, 3, 48, 64
5, 546960, Note_on_c, 3, 55, 98
5, 546960, Note_on_c, 3, 48, 98
5, 547120, Note_off_c, 3, 48, 64
5, 547120, Note_off_c, 3, 55, 64
5, 547200, Note_on_c, 3, 48, 99
5, 547200, Note_on_c, 3, 55, 99
5, 547680, Note_off_c, 3, 55, 64
5, 547680, Note_off_c, 3, 48, 64
5, 547920, Note_on_c, 3, 55, 101
5, 547920, Note_on_c, 3, 48, 101
5, 548080, Note_off_c, 3, 48, 64
5, 548080, Note_off_c, 3, 55, 64
5, 548160, Note_on_c, 3, 48, 102
5, 548160, Note_on_c, 3, 55, 102
5, 548640, Note_off_c, 3, 55, 64
5, 548640, Note_off_c, 3, 48, 64
5, 548880, Note_on_c, 3, 55, 104
5, 548880, Note_on_c, 3, 48, 104
5, 549040, Note_off_c, 3, 48, 64
5, 549040, Note_off_c, 3, 55, 64
5, 549120, Note_on_c, 3, 60, 105
5, 549120, Note_on_c, 3, 48, 105
5, 549280, Note_off_c, 3, 48, 64
5, 549280, Note_off_c, 3, 60, 64
5, 549360, Note_on_c, 3, 60, 106
5, 549360, Note_on_c, 3, 52, 106
5, 549520, Note_off_c, 3, 52, 64
5, 549520, Note_off_c, 3, 60, 64
5, 549600, Note_on_c, 3, 60, 107
5, 549600, Note_on_c, 3, 52, 107
5, 549760, Note_off_c, 3, 52, 64
5, 549760, Note_off_c, 3, 60, 64
5, 549840, Note_on_c, 3, 60, 108
5, 549840, Note_on_c, 3, 52, 108
5, 550000, Note_off_c, 3, 52, 64
5, 550000, Note_off_c, 3, 60, 64
5, 550080, Note_on_c, 3, 60, 108
5, 550080, Note_on_c, 3, 52, 108
5, 550240, Note_off_c, 3, 52, 64
5, 550240, Note_off_c, 3, 60, 64
5, 550320, Note_on_c, 3, 64, 109
5, 550320, Note_on_c, 3, 60, 109
5, 550480, Note_off_c, 3, 60, 64
5, 550480, Note_off_c, 3, 64, 64
5, 550560, Note_on_c, 3, 64, 110
5, 550560, Note_on_c, 3, 60, 110
5, 550720, Note_off_c, 3, 60, 64
5, 550720, Note_off_c, 3, 64, 64
5, 550800, Note_on_c, 3, 64, 111
5, 550800, Note_on_c, 3, 60, 111
5, 550960, Note_off_c, 3, 60, 64
5, 550960, Note_off_c, 3, 64, 64
5, 551040, Note_on_c, 3, 64, 112
5, 551040, Note_on_c, 3, 60, 112
5, 551200, Note_off_c, 3, 60, 64
5, 551200, Note_off_c, 3, 64, 64
5, 552000, Note_on_c, 3, 48, 61
5, 552160, Note_off_c, 3, 48, 64
5, 566400, Note_on_c, 3, 57, 42
5, 566400, Note_on_c, 3, 45, 42
5, 566720, Note_off_c, 3, 45, 64
5, 566720, Note_off_c, 3, 57, 64
5, 566880, Note_on_c, 3, 62, 42
5, 566880, Note_on_c, 3, 50, 42
5, 567674, Note_off_c, 3, 50, 64
5, 567680, Note_off_c, 3, 62, 64
5, 567840, Note_on_c, 3, 50, 42
5, 567840, Note_on_c, 3, 62, 42
5, 568960, Note_off_c, 3, 62, 64
5, 568960, Note_off_c, 3, 50, 64
5, 569280, Note_on_c, 3, 50, 42
5, 569280, Note_on_c, 3, 62, 42
5, 570880, Note_off_c, 3, 62, 64
5, 570880, Note_off_c, 3, 50, 64
5, 571200, Note_on_c, 3, 50, 42
5, 571200, Note_on_c, 3, 62, 42
5, 573120, Note_on_c, 3, 60, 67
5, 573576, Note_off_c, 3, 60, 64
5, 573576, Note_off_c, 3, 62, 64
5, 573600, Note_on_c, 3, 62, 74
5, 573828, Note_off_c, 3, 62, 64
5, 573840, Note_on_c, 3, 58, 77
5, 574056, Note_off_c, 3, 50, 64
5, 574068, Note_off_c, 3, 58, 64
5, 574080, Note_on_c, 3, 50, 80
5, 574080, Note_on_c, 3, 57, 80
5, 574536, Note_off_c, 3, 57, 64
5, 574560, Note_on_c, 3, 60, 86
5, 575016, Note_off_c, 3, 50, 64
5, 575016, Note_off_c, 3, 60, 64
5, 575040, Note_on_c, 3, 46, 93
5, 575040, Note_on_c, 3, 58, 93
5, 575268, Note_off_c, 3, 58, 64
5, 575280, Note_on_c, 3, 62, 96
5, 575496, Note_off_c, 3, 46, 64
5, 575508, Note_off_c, 3, 62, 64
5, 575520, Note_on_c, 3, 48, 110
5, 575520, Note_on_c, 3, 60, 110
5, 575766, Note_off_c, 3, 60, 64
5, 576012, Note_off_c, 3, 48, 64
5, 578400, Note_on_c, 3, 48, 56
5, 578926, Note_off_c, 3, 48, 64
5, 580800, Note_on_c, 3, 48, 64
5, 581256, Note_off_c, 3, 48, 64
5, 581280, Note_on_c, 3, 53, 64
5, 582216, Note_off_c, 3, 53, 64
5, 582240, Note_on_c, 3, 57, 64
5, 582696, Note_off_c, 3, 57, 64
5, 582720, Note_on_c, 3, 60, 64
5, 583176, Note_off_c, 3, 60, 64
5, 583200, Note_on_c, 3, 57, 64
5, 583656, Note_off_c, 3, 57, 64
5, 583680, Note_on_c, 3, 57, 64
5, 584136, Note_off_c, 3, 57, 64
5, 584160, Note_on_c, 3, 60, 64
5, 584616, Note_off_c, 3, 60, 64
5, 584640, Note_on_c, 3, 64, 64
5, 585096, Note_off_c, 3, 64, 64
5, 585120, Note_on_c, 3, 58, 64
5, 585120, Note_on_c, 3, 65, 64
5, 585348, Note_off_c, 3, 65, 64
5, 585360, Note_on_c, 3, 62, 64
5, 585576, Note_off_c, 3, 58, 64
5, 585588, Note_off_c, 3, 62, 64
5, 585600, Note_on_c, 3, 60, 64
5, 585600, Note_on_c, 3, 57, 64
5, 586536, Note_off_c, 3, 57, 64
5, 586536, Note_off_c, 3, 60, 64
5, 586560, Note_on_c, 3, 55, 64
5, 586560, Note_on_c, 3, 64, 64
5, 587016, Note_off_c, 3, 64, 64
5, 587016, Note_off_c, 3, 55, 64
5, 587040, Note_on_c, 3, 57, 64
5, 587040, Note_on_c, 3, 65, 64
5, 587496, Note_off_c, 3, 65, 64
5, 587520, Note_on_c, 3, 60, 64
5, 587976, Note_off_c, 3, 57, 64
5, 587976, Note_off_c, 3, 60, 64
5, 588000, Note_on_c, 3, 58, 64
5, 588000, Note_on_c, 3, 62, 64
5, 588456, Note_off_c, 3, 62, 64
5, 588456, Note_off_c, 3, 58, 64
5, 588480, Note_on_c, 3, 57, 64
5, 588480, Note_on_c, 3, 60, 64
5, 588936, Note_off_c, 3, 60, 64
5, 588936, Note_off_c, 3, 57, 64
5, 588960, Note_on_c, 3, 53, 64
5, 588960, Note_on_c, 3, 57, 64
5, 589416, Note_off_c, 3, 57, 64
5, 589416, Note_off_c, 3, 53, 64
5, 589440, Note_on_c, 3, 55, 64
5, 589440, Note_on_c, 3, 58, 64
5, 589896, Note_off_c, 3, 58, 64
5, 589896, Note_off_c, 3, 55, 64
5, 589920, Note_on_c, 3, 53, 64
5, 589920, Note_on_c, 3, 57, 64
5, 590376, Note_off_c, 3, 57, 64
5, 590376, Note_off_c, 3, 53, 64
5, 590400, Note_on_c, 3, 53, 64
5, 590400, Note_on_c, 3, 57, 64
5, 590856, Note_off_c, 3, 57, 64
5, 590856, Note_off_c, 3, 53, 64
5, 590880, Note_on_c, 3, 48, 64
5, 590880, Note_on_c, 3, 55, 64
5, 591336, Note_off_c, 3, 55, 64
5, 591336, Note_off_c, 3, 48, 64
5, 591360, Note_on_c, 3, 53, 64
5, 591360, Note_on_c, 3, 57, 64
5, 591816, Note_off_c, 3, 57, 64
5, 591816, Note_off_c, 3, 53, 64
5, 598080, Note_on_c, 3, 48, 100
5, 598194, Note_off_c, 3, 48, 64
5, 598560, Note_on_c, 3, 53, 100
5, 598674, Note_off_c, 3, 53, 64
5, 599040, Note_on_c, 3, 48, 100
5, 599154, Note_off_c, 3, 48, 64
5, 599520, Note_on_c, 3, 50, 100
5, 599634, Note_off_c, 3, 50, 64
5, 600000, Note_on_c, 3, 48, 100
5, 600228, Note_off_c, 3, 48, 64
5, 600480, Note_on_c, 3, 45, 100
5, 600708, Note_off_c, 3, 45, 64
5, 600960, Note_on_c, 3, 46, 100
5, 601188, Note_off_c, 3, 46, 64
5, 601440, Note_on_c, 3, 45, 127
5, 601668, Note_off_c, 3, 45, 64
5, 601920, Note_on_c, 3, 41, 100
5, 601920, Note_on_c, 3, 53, 100
5, 602148, Note_off_c, 3, 53, 64
5, 602148, Note_off_c, 3, 41, 64
5, 602400, Note_on_c, 3, 55, 100
5, 602400, Note_on_c, 3, 43, 100
5, 602628, Note_off_c, 3, 43, 64
5, 602628, Note_off_c, 3, 55, 64
5, 602880, Note_on_c, 3, 45, 127
5, 602880, Note_on_c, 3, 57, 127
5, 603108, Note_off_c, 3, 57, 64
5, 603108, Note_off_c, 3, 45, 64
5, 603360, Note_on_c, 3, 41, 100
5, 603360, Note_on_c, 3, 53, 100
5, 603588, Note_off_c, 3, 53, 64
5, 603588, Note_off_c, 3, 41, 64
5, 603840, Note_on_c, 3, 55, 100
5, 603840, Note_on_c, 3, 43, 100
5, 604068, Note_off_c, 3, 43, 64
5, 604068, Note_off_c, 3, 55, 64
5, 604320, Note_on_c, 3, 45, 127
5, 604320, Note_on_c, 3, 57, 127
5, 604548, Note_off_c, 3, 57, 64
5, 604548, Note_off_c, 3, 45, 64
5, 604800, Note_on_c, 3, 41, 100
5, 604800, Note_on_c, 3, 53, 100
5, 605028, Note_off_c, 3, 53, 64
5, 605028, Note_off_c, 3, 41, 64
5, 605280, Note_on_c, 3, 55, 100
5, 605280, Note_on_c, 3, 43, 100
5, 605508, Note_off_c, 3, 43, 64
5, 605508, Note_off_c, 3, 55, 64
5, 605760, Note_on_c, 3, 45, 127
5, 605760, Note_on_c, 3, 57, 127
5, 605988, Note_off_c, 3, 57, 64
5, 605988, Note_off_c, 3, 45, 64
5, 606240, Note_on_c, 3, 41, 100
5, 606240, Note_on_c, 3, 53, 100
5, 606468, Note_off_c, 3, 53, 64
5, 606468, Note_off_c, 3, 41, 64
5, 606720, Note_on_c, 3, 55, 100
5, 606720, Note_on_c, 3, 43, 100
5, 606948, Note_off_c, 3, 43, 64
5, 606948, Note_off_c, 3, 55, 64
5, 607200, Note_on_c, 3, 57, 127
5, 607200, Note_on_c, 3, 45, 127
5, 608332, Note_off_c, 3, 45, 64
5, 608332, Note_off_c, 3, 57, 64
5, 608640, Note_on_c, 3, 55, 100
5, 608640, Note_on_c, 3, 43, 100
5, 609348, Note_off_c, 3, 43, 64
5, 609348, Note_off_c, 3, 55, 64
5, 609600, Note_on_c, 3, 53, 100
5, 609600, Note_on_c, 3, 41, 100
5, 609828, Note_off_c, 3, 41, 64
5, 609828, Note_off_c, 3, 53, 64
5, 610080, Note_on_c, 3, 52, 100
5, 610080, Note_on_c, 3, 40, 100
5, 610788, Note_off_c, 3, 40, 64
5, 610788, Note_off_c, 3, 52, 64
5, 611040, Note_on_c, 3, 50, 100
5, 611040, Note_on_c, 3, 38, 100
5, 611268, Note_off_c, 3, 38, 64
5, 611268, Note_off_c, 3, 50, 64
5, 611520, Note_on_c, 3, 48, 100
5, 611520, Note_on_c, 3, 36, 100
5, 612456, Note_off_c, 3, 36, 64
5, 612456, Note_off_c, 3, 48, 64
5, 612480, Note_on_c, 3, 58, 100
5, 612480, Note_on_c, 3, 46, 100
5, 612708, Note_off_c, 3, 46, 64
5, 612708, Note_off_c, 3, 58, 64
5, 612960, Note_on_c, 3, 57, 120
5, 612960, Note_on_c, 3, 45, 120
5, 613896, Note_off_c, 3, 45, 64
5, 613896, Note_off_c, 3, 57, 64
5, 614400, Note_on_c, 3, 58, 120
5, 614400, Note_on_c, 3, 46, 120
5, 615336, Note_off_c, 3, 46, 64
5, 615336, Note_off_c, 3, 58, 64
5, 615840, Note_on_c, 3, 60, 120
5, 615840, Note_on_c, 3, 48, 120
5, 616776, Note_off_c, 3, 48, 64
5, 616776, Note_off_c, 3, 60, 64
5, 617280, Note_on_c, 3, 48, 120
5, 617280, Note_on_c, 3, 36, 120
5, 618216, Note_off_c, 3, 36, 64
5, 618216, Note_off_c, 3, 48, 64
5, 618720, Note_on_c, 3, 53, 120
5, 618720, Note_on_c, 3, 41, 120
5, 619176, Note_off_c, 3, 41, 64
5, 619176, Note_off_c, 3, 53, 64
5, 619680, Note_on_c, 3, 57, 100
5, 619680, Note_on_c, 3, 45, 100
5, 619908, Note_off_c, 3, 45, 64
5, 619908, Note_off_c, 3, 57, 64
5, 620160, Note_on_c, 3, 55, 100
5, 620160, Note_on_c, 3, 43, 100
5, 620868, Note_off_c, 3, 43, 64
5, 620868, Note_off_c, 3, 55, 64
5, 621120, Note_on_c, 3, 53, 100
5, 621120, Note_on_c, 3, 41, 100
5, 621348, Note_off_c, 3, 41, 64
5, 621348, Note_off_c, 3, 53, 64
5, 621600, Note_on_c, 3, 52, 100
5, 621600, Note_on_c, 3, 40, 100
5, 622308, Note_off_c, 3, 40, 64
5, 622308, Note_off_c, 3, 52, 64
5, 622560, Note_on_c, 3, 50, 100
5, 622560, Note_on_c, 3, 38, 100
5, 622788, Note_off_c, 3, 38, 64
5, 622788, Note_off_c, 3, 50, 64
5, 623040, Note_on_c, 3, 48, 100
5, 623040, Note_on_c, 3, 36, 100
5, 623976, Note_off_c, 3, 36, 64
5, 623976, Note_off_c, 3, 48, 64
5, 624000, Note_on_c, 3, 58, 100
5, 624000, Note_on_c, 3, 46, 100
5, 624228, Note_off_c, 3, 46, 64
5, 624228, Note_off_c, 3, 58, 64
5, 624480, Note_on_c, 3, 57, 120
5, 624480, Note_on_c, 3, 45, 120
5, 625416, Note_off_c, 3, 45, 64
5, 625416, Note_off_c, 3, 57, 64
5, 625920, Note_on_c, 3, 58, 120
5, 625920, Note_on_c, 3, 46, 120
5, 626856, Note_off_c, 3, 46, 64
5, 626856, Note_off_c, 3, 58, 64
5, 627360, Note_on_c, 3, 60, 120
5, 627360, Note_on_c, 3, 48, 120
5, 628296, Note_off_c, 3, 48, 64
5, 628296, Note_off_c, 3, 60, 64
5, 628800, Note_on_c, 3, 48, 120
5, 628800, Note_on_c, 3, 36, 120
5, 629736, Note_off_c, 3, 36, 64
5, 629736, Note_off_c, 3, 48, 64
5, 630240, Note_on_c, 3, 53, 127
5, 630240, Note_on_c, 3, 41, 127
5, 630468, Note_off_c, 3, 41, 64
5, 630468, Note_off_c, 3, 53, 64
5, 630720, Note_on_c, 3, 53, 100
5, 630720, Note_on_c, 3, 57, 100
5, 630948, Note_off_c, 3, 57, 64
5, 630948, Note_off_c, 3, 53, 64
5, 631200, Note_on_c, 3, 57, 100
5, 631200, Note_on_c, 3, 53, 100
5, 631428, Note_off_c, 3, 53, 64
5, 631428, Note_off_c, 3, 57, 64
5, 631680, Note_on_c, 3, 57, 127
5, 631680, Note_on_c, 3, 60, 127
5, 631908, Note_off_c, 3, 60, 64
5, 631908, Note_off_c, 3, 57, 64
5, 632160, Note_on_c, 3, 57, 100
5, 632160, Note_on_c, 3, 53, 100
5, 632388, Note_off_c, 3, 53, 64
5, 632388, Note_off_c, 3, 57, 64
5, 632640, Note_on_c, 3, 53, 100
5, 632640, Note_on_c, 3, 57, 100
5, 632868, Note_off_c, 3, 57, 64
5, 632868, Note_off_c, 3, 53, 64
5, 633120, Note_on_c, 3, 57, 127
5, 633120, Note_on_c, 3, 60, 127
5, 633348, Note_off_c, 3, 60, 64
5, 633348, Note_off_c, 3, 57, 64
5, 633600, Note_on_c, 3, 57, 100
5, 633600, Note_on_c, 3, 53, 100
5, 633828, Note_off_c, 3, 53, 64
5, 633828, Note_off_c, 3, 57, 64
5, 634080, Note_on_c, 3, 53, 100
5, 634080, Note_on_c, 3, 57, 100
5, 634308, Note_off_c, 3, 57, 64
5, 634308, Note_off_c, 3, 53, 64
5, 634560, Note_on_c, 3, 58, 127
5, 634560, Note_on_c, 3, 55, 127
5, 634788, Note_off_c, 3, 55, 64
5, 634788, Note_off_c, 3, 58, 64
5, 635040, Note_on_c, 3, 55, 100
5, 635040, Note_on_c, 3, 48, 100
5, 635268, Note_off_c, 3, 48, 64
5, 635268, Note_off_c, 3, 55, 64
5, 635520, Note_on_c, 3, 55, 100
5, 635520, Note_on_c, 3, 48, 100
5, 635748, Note_off_c, 3, 48, 64
5, 635748, Note_off_c, 3, 55, 64
5, 636000, Note_on_c, 3, 57, 127
5, 636000, Note_on_c, 3, 60, 127
5, 636228, Note_off_c, 3, 60, 64
5, 636228, Note_off_c, 3, 57, 64
5, 636480, Note_on_c, 3, 57, 100
5, 636480, Note_on_c, 3, 53, 100
5, 636708, Note_off_c, 3, 53, 64
5, 636708, Note_off_c, 3, 57, 64
5, 636960, Note_on_c, 3, 53, 100
5, 636960, Note_on_c, 3, 57, 100
5, 637188, Note_off_c, 3, 57, 64
5, 637188, Note_off_c, 3, 53, 64
5, 637440, Note_on_c, 3, 57, 127
5, 637440, Note_on_c, 3, 60, 127
5, 637668, Note_off_c, 3, 60, 64
5, 637668, Note_off_c, 3, 57, 64
5, 637920, Note_on_c, 3, 57, 100
5, 637920, Note_on_c, 3, 53, 100
5, 638148, Note_off_c, 3, 53, 64
5, 638148, Note_off_c, 3, 57, 64
5, 638400, Note_on_c, 3, 53, 100
5, 638400, Note_on_c, 3, 57, 100
5, 638628, Note_off_c, 3, 57, 64
5, 638628, Note_off_c, 3, 53, 64
5, 638880, Note_on_c, 3, 57, 127
5, 638880, Note_on_c, 3, 60, 127
5, 639108, Note_off_c, 3, 60, 64
5, 639108, Note_off_c, 3, 57, 64
5, 639360, Note_on_c, 3, 57, 100
5, 639360, Note_on_c, 3, 53, 100
5, 639588, Note_off_c, 3, 53, 64
5, 639588, Note_off_c, 3, 57, 64
5, 639840, Note_on_c, 3, 53, 100
5, 639840, Note_on_c, 3, 57, 100
5, 640068, Note_off_c, 3, 57, 64
5, 640068, Note_off_c, 3, 53, 64
5, 640320, Note_on_c, 3, 58, 114
5, 640320, Note_on_c, 3, 55, 114
5, 640548, Note_off_c, 3, 55, 64
5, 640548, Note_off_c, 3, 58, 64
5, 640800, Note_on_c, 3, 55, 90
5, 640800, Note_on_c, 3, 48, 90
5, 641028, Note_off_c, 3, 48, 64
5, 641028, Note_off_c, 3, 55, 64
5, 641280, Note_on_c, 3, 55, 90
5, 641280, Note_on_c, 3, 48, 90
5, 641554, Note_off_c, 3, 48, 64
5, 641554, Note_off_c, 3, 55, 64
5, 641554, End_track
6, 0, Start_track
6, 0, Title_t, "French Horn"
6, 0, MIDI_port, 0
6, 0, Channel_prefix, 4
6, 0, Control_c, 4, 7, 102
6, 0, Control_c, 4, 10, 52
6, 0, Control_c, 4, 0, 0
6, 0, Control_c, 4, 32, 0
6, 0, Control_c, 4, 91, 52
6, 0, Program_c, 4, 60
6, 58560, Note_on_c, 4, 67, 40
6, 58880, Note_off_c, 4, 67, 64
6, 59040, Note_on_c, 4, 60, 40
6, 59040, Note_on_c, 4, 48, 40
6, 59680, Note_off_c, 4, 48, 64
6, 59680, Note_off_c, 4, 60, 64
6, 60000, Note_on_c, 4, 60, 45
6, 60000, Note_on_c, 4, 48, 45
6, 61120, Note_off_c, 4, 48, 64
6, 61120, Note_off_c, 4, 60, 64
6, 61440, Note_on_c, 4, 60, 53
6, 61440, Note_on_c, 4, 48, 53
6, 62560, Note_off_c, 4, 48, 64
6, 62560, Note_off_c, 4, 60, 64
6, 62880, Note_on_c, 4, 60, 61
6, 62880, Note_on_c, 4, 48, 61
6, 64000, Note_off_c, 4, 48, 64
6, 64000, Note_off_c, 4, 60, 64
6, 64320, Note_on_c, 4, 60, 64
6, 64320, Note_on_c, 4, 48, 64
6, 65440, Note_off_c, 4, 48, 64
6, 65440, Note_off_c, 4, 60, 64
6, 65760, Note_on_c, 4, 60, 64
6, 65760, Note_on_c, 4, 48, 64
6, 66880, Note_off_c, 4, 48, 64
6, 66880, Note_off_c, 4, 60, 64
6, 67200, Note_on_c, 4, 60, 64
6, 67200, Note_on_c, 4, 48, 64
6, 68320, Note_off_c, 4, 48, 64
6, 68320, Note_off_c, 4, 60, 64
6, 68640, Note_on_c, 4, 67, 64
6, 68960, Note_off_c, 4, 67, 64
6, 69120, Note_on_c, 4, 67, 64
6, 69440, Note_off_c, 4, 67, 64
6, 69600, Note_on_c, 4, 60, 64
6, 69600, Note_on_c, 4, 48, 64
6, 69920, Note_off_c, 4, 48, 64
6, 69920, Note_off_c, 4, 60, 64
6, 70080, Note_on_c, 4, 60, 64
6, 70080, Note_on_c, 4, 48, 64
6, 70400, Note_off_c, 4, 48, 64
6, 70400, Note_off_c, 4, 60, 64
6, 70560, Note_on_c, 4, 60, 50
6, 70560, Note_on_c, 4, 48, 50
6, 70880, Note_off_c, 4, 48, 64
6, 70880, Note_off_c, 4, 60, 64
6, 71040, Note_on_c, 4, 60, 53
6, 71040, Note_on_c, 4, 48, 53
6, 71360, Note_off_c, 4, 48, 64
6, 71360, Note_off_c, 4, 60, 64
6, 71520, Note_on_c, 4, 60, 57
6, 71520, Note_on_c, 4, 48, 57
6, 71840, Note_off_c, 4, 48, 64
6, 71840, Note_off_c, 4, 60, 64
6, 72000, Note_on_c, 4, 60, 61
6, 72000, Note_on_c, 4, 48, 61
6, 72320, Note_off_c, 4, 48, 64
6, 72320, Note_off_c, 4, 60, 64
6, 72480, Note_on_c, 4, 60, 65
6, 72480, Note_on_c, 4, 48, 65
6, 72800, Note_off_c, 4, 48, 64
6, 72800, Note_off_c, 4, 60, 64
6, 72960, Note_on_c, 4, 60, 69
6, 72960, Note_on_c, 4, 48, 69
6, 73280, Note_off_c, 4, 48, 64
6, 73280, Note_off_c, 4, 60, 64
6, 73440, Note_on_c, 4, 60, 73
6, 73440, Note_on_c, 4, 48, 73
6, 73760, Note_off_c, 4, 48, 64
6, 73760, Note_off_c, 4, 60, 64
6, 73920, Note_on_c, 4, 60, 76
6, 73920, Note_on_c, 4, 48, 76
6, 74240, Note_off_c, 4, 48, 64
6, 74240, Note_off_c, 4, 60, 64
6, 74400, Note_on_c, 4, 60, 80
6, 74400, Note_on_c, 4, 48, 80
6, 74720, Note_off_c, 4, 48, 64
6, 74720, Note_off_c, 4, 60, 64
6, 74880, Note_on_c, 4, 60, 84
6, 74880, Note_on_c, 4, 48, 84
6, 75200, Note_off_c, 4, 48, 64
6, 75200, Note_off_c, 4, 60, 64
6, 75360, Note_on_c, 4, 60, 88
6, 75360, Note_on_c, 4, 48, 88
6, 75680, Note_off_c, 4, 48, 64
6, 75680, Note_off_c, 4, 60, 64
6, 75840, Note_on_c, 4, 60, 92
6, 75840, Note_on_c, 4, 48, 92
6, 76160, Note_off_c, 4, 48, 64
6, 76160, Note_off_c, 4, 60, 64
6, 76320, Note_on_c, 4, 65, 96
6, 76320, Note_on_c, 4, 53, 96
6, 76640, Note_off_c, 4, 53, 64
6, 76640, Note_off_c, 4, 65, 64
6, 76800, Note_on_c, 4, 65, 96
6, 76800, Note_on_c, 4, 53, 96
6, 77120, Note_off_c, 4, 53, 64
6, 77120, Note_off_c, 4, 65, 64
6, 77280, Note_on_c, 4, 65, 96
6, 77280, Note_on_c, 4, 53, 96
6, 77600, Note_off_c, 4, 53, 64
6, 77600, Note_off_c, 4, 65, 64
6, 77760, Note_on_c, 4, 53, 96
6, 77760, Note_on_c, 4, 65, 96
6, 78080, Note_off_c, 4, 65, 64
6, 78080, Note_off_c, 4, 53, 64
6, 78240, Note_on_c, 4, 65, 96
6, 78240, Note_on_c, 4, 53, 96
6, 78560, Note_off_c, 4, 53, 64
6, 78560, Note_off_c, 4, 65, 64
6, 78720, Note_on_c, 4, 65, 96
6, 78720, Note_on_c, 4, 53, 96
6, 79040, Note_off_c, 4, 53, 64
6, 79040, Note_off_c, 4, 65, 64
6, 79200, Note_on_c, 4, 65, 96
6, 79200, Note_on_c, 4, 53, 96
6, 79520, Note_off_c, 4, 53, 64
6, 79520, Note_off_c, 4, 65, 64
6, 79680, Note_on_c, 4, 65, 96
6, 80000, Note_off_c, 4, 65, 64
6, 80160, Note_on_c, 4, 67, 96
6, 80480, Note_off_c, 4, 67, 64
6, 80640, Note_on_c, 4, 69, 96
6, 80640, Note_on_c, 4, 57, 96
6, 80960, Note_off_c, 4, 57, 64
6, 80960, Note_off_c, 4, 69, 64
6, 82080, Note_on_c, 4, 69, 96
6, 82080, Note_on_c, 4, 57, 96
6, 82400, Note_off_c, 4, 57, 64
6, 82400, Note_off_c, 4, 69, 64
6, 83520, Note_on_c, 4, 69, 96
6, 83520, Note_on_c, 4, 57, 96
6, 83840, Note_off_c, 4, 57, 64
6, 83840, Note_off_c, 4, 69, 64
6, 84960, Note_on_c, 4, 69, 96
6, 84960, Note_on_c, 4, 57, 96
6, 85920, Note_off_c, 4, 57, 64
6, 85920, Note_off_c, 4, 69, 64
6, 86400, Note_on_c, 4, 67, 96
6, 87040, Note_off_c, 4, 67, 64
6, 87360, Note_on_c, 4, 60, 96
6, 87360, Note_on_c, 4, 48, 96
6, 87680, Note_off_c, 4, 48, 64
6, 87680, Note_off_c, 4, 60, 64
6, 87840, Note_on_c, 4, 60, 96
6, 87840, Note_on_c, 4, 48, 96
6, 88480, Note_off_c, 4, 48, 64
6, 88480, Note_off_c, 4, 60, 64
6, 88800, Note_on_c, 4, 60, 96
6, 88800, Note_on_c, 4, 48, 96
6, 89120, Note_off_c, 4, 48, 64
6, 89120, Note_off_c, 4, 60, 64
6, 89280, Note_on_c, 4, 60, 96
6, 89280, Note_on_c, 4, 48, 96
6, 89920, Note_off_c, 4, 48, 64
6, 89920, Note_off_c, 4, 60, 64
6, 90240, Note_on_c, 4, 60, 96
6, 90240, Note_on_c, 4, 48, 96
6, 90560, Note_off_c, 4, 48, 64
6, 90560, Note_off_c, 4, 60, 64
6, 90720, Note_on_c, 4, 65, 96
6, 91894, Note_off_c, 4, 65, 64
6, 92160, Note_on_c, 4, 65, 96
6, 92160, Note_on_c, 4, 67, 96
6, 93294, Note_off_c, 4, 65, 64
6, 93330, Note_off_c, 4, 67, 64
6, 93600, Note_on_c, 4, 69, 96
6, 93600, Note_on_c, 4, 65, 96
6, 94750, Note_off_c, 4, 65, 64
6, 94774, Note_off_c, 4, 69, 64
6, 95040, Note_on_c, 4, 64, 96
6, 95040, Note_on_c, 4, 67, 96
6, 96200, Note_off_c, 4, 67, 64
6, 96200, Note_off_c, 4, 64, 64
6, 96480, Note_on_c, 4, 69, 96
6, 96480, Note_on_c, 4, 65, 96
6, 96800, Note_off_c, 4, 65, 64
6, 96800, Note_off_c, 4, 69, 64
6, 98880, Note_on_c, 4, 60, 96
6, 98880, Note_on_c, 4, 48, 96
6, 99200, Note_off_c, 4, 48, 64
6, 99200, Note_off_c, 4, 60, 64
6, 99360, Note_on_c, 4, 60, 96
6, 99360, Note_on_c, 4, 48, 96
6, 100000, Note_off_c, 4, 48, 64
6, 100000, Note_off_c, 4, 60, 64
6, 100320, Note_on_c, 4, 60, 96
6, 100320, Note_on_c, 4, 48, 96
6, 100640, Note_off_c, 4, 48, 64
6, 100640, Note_off_c, 4, 60, 64
6, 100800, Note_on_c, 4, 60, 96
6, 100800, Note_on_c, 4, 48, 96
6, 101440, Note_off_c, 4, 48, 64
6, 101440, Note_off_c, 4, 60, 64
6, 101760, Note_on_c, 4, 60, 96
6, 101760, Note_on_c, 4, 67, 96
6, 102080, Note_off_c, 4, 67, 64
6, 102080, Note_off_c, 4, 60, 64
6, 102240, Note_on_c, 4, 65, 96
6, 102240, Note_on_c, 4, 53, 96
6, 103340, Note_off_c, 4, 65, 64
6, 103350, Note_off_c, 4, 53, 64
6, 103680, Note_on_c, 4, 65, 96
6, 103680, Note_on_c, 4, 53, 96
6, 104800, Note_off_c, 4, 65, 64
6, 104810, Note_off_c, 4, 53, 64
6, 105120, Note_on_c, 4, 65, 96
6, 105120, Note_on_c, 4, 53, 96
6, 106244, Note_off_c, 4, 53, 64
6, 106260, Note_off_c, 4, 65, 64
6, 106560, Note_on_c, 4, 60, 96
6, 106560, Note_on_c, 4, 48, 96
6, 107690, Note_off_c, 4, 60, 64
6, 107700, Note_off_c, 4, 48, 64
6, 108000, Note_on_c, 4, 65, 114
6, 108000, Note_on_c, 4, 53, 115
6, 108320, Note_off_c, 4, 53, 64
6, 108320, Note_off_c, 4, 65, 64
6, 108480, Note_on_c, 4, 65, 96
6, 108480, Note_on_c, 4, 69, 96
6, 108800, Note_off_c, 4, 69, 64
6, 108800, Note_off_c, 4, 65, 64
6, 108960, Note_on_c, 4, 65, 96
6, 108960, Note_on_c, 4, 69, 96
6, 109280, Note_off_c, 4, 69, 64
6, 109280, Note_off_c, 4, 65, 64
6, 109440, Note_on_c, 4, 69, 119
6, 109440, Note_on_c, 4, 72, 115
6, 109760, Note_off_c, 4, 72, 64
6, 109760, Note_off_c, 4, 69, 64
6, 109920, Note_on_c, 4, 65, 96
6, 109920, Note_on_c, 4, 69, 96
6, 110240, Note_off_c, 4, 69, 64
6, 110240, Note_off_c, 4, 65, 64
6, 110400, Note_on_c, 4, 65, 96
6, 110400, Note_on_c, 4, 69, 96
6, 110720, Note_off_c, 4, 69, 64
6, 110720, Note_off_c, 4, 65, 64
6, 110880, Note_on_c, 4, 69, 121
6, 110880, Note_on_c, 4, 72, 119
6, 111200, Note_off_c, 4, 72, 64
6, 111200, Note_off_c, 4, 69, 64
6, 111360, Note_on_c, 4, 65, 96
6, 111360, Note_on_c, 4, 69, 96
6, 111680, Note_off_c, 4, 69, 64
6, 111680, Note_off_c, 4, 65, 64
6, 111840, Note_on_c, 4, 65, 96
6, 111840, Note_on_c, 4, 69, 96
6, 112160, Note_off_c, 4, 69, 64
6, 112160, Note_off_c, 4, 65, 64
6, 112320, Note_on_c, 4, 67, 120
6, 112320, Note_on_c, 4, 70, 118
6, 112640, Note_off_c, 4, 70, 64
6, 112640, Note_off_c, 4, 67, 64
6, 112800, Note_on_c, 4, 60, 96
6, 112800, Note_on_c, 4, 67, 96
6, 113120, Note_off_c, 4, 67, 64
6, 113120, Note_off_c, 4, 60, 64
6, 113280, Note_on_c, 4, 67, 96
6, 113280, Note_on_c, 4, 60, 96
6, 113600, Note_off_c, 4, 60, 64
6, 113600, Note_off_c, 4, 67, 64
6, 113760, Note_on_c, 4, 69, 119
6, 113760, Note_on_c, 4, 72, 120
6, 114080, Note_off_c, 4, 72, 64
6, 114080, Note_off_c, 4, 69, 64
6, 114240, Note_on_c, 4, 65, 96
6, 114240, Note_on_c, 4, 69, 96
6, 114560, Note_off_c, 4, 69, 64
6, 114560, Note_off_c, 4, 65, 64
6, 114720, Note_on_c, 4, 65, 96
6, 114720, Note_on_c, 4, 69, 96
6, 115040, Note_off_c, 4, 69, 64
6, 115040, Note_off_c, 4, 65, 64
6, 115200, Note_on_c, 4, 69, 121
6, 115200, Note_on_c, 4, 72, 119
6, 115520, Note_off_c, 4, 72, 64
6, 115520, Note_off_c, 4, 69, 64
6, 115680, Note_on_c, 4, 65, 96
6, 115680, Note_on_c, 4, 69, 96
6, 116000, Note_off_c, 4, 69, 64
6, 116000, Note_off_c, 4, 65, 64
6, 116160, Note_on_c, 4, 65, 96
6, 116160, Note_on_c, 4, 69, 96
6, 116480, Note_off_c, 4, 69, 64
6, 116480, Note_off_c, 4, 65, 64
6, 116640, Note_on_c, 4, 69, 122
6, 116640, Note_on_c, 4, 72, 118
6, 116960, Note_off_c, 4, 72, 64
6, 116960, Note_off_c, 4, 69, 64
6, 117120, Note_on_c, 4, 65, 96
6, 117120, Note_on_c, 4, 69, 96
6, 117440, Note_off_c, 4, 69, 64
6, 117440, Note_off_c, 4, 65, 64
6, 117600, Note_on_c, 4, 65, 96
6, 117600, Note_on_c, 4, 69, 96
6, 117920, Note_off_c, 4, 69, 64
6, 117920, Note_off_c, 4, 65, 64
6, 118080, Note_on_c, 4, 67, 122
6, 118080, Note_on_c, 4, 70, 121
6, 118400, Note_off_c, 4, 70, 64
6, 118400, Note_off_c, 4, 67, 64
6, 118560, Note_on_c, 4, 60, 96
6, 118560, Note_on_c, 4, 67, 96
6, 118880, Note_off_c, 4, 67, 64
6, 118880, Note_off_c, 4, 60, 64
6, 119040, Note_on_c, 4, 67, 96
6, 119040, Note_on_c, 4, 60, 96
6, 119360, Note_off_c, 4, 60, 64
6, 119360, Note_off_c, 4, 67, 64
6, 119520, Note_on_c, 4, 69, 119
6, 119520, Note_on_c, 4, 72, 121
6, 119840, Note_off_c, 4, 72, 64
6, 119840, Note_off_c, 4, 69, 64
6, 120000, Note_on_c, 4, 65, 93
6, 120000, Note_on_c, 4, 69, 97
6, 120320, Note_off_c, 4, 69, 64
6, 120320, Note_off_c, 4, 65, 64
6, 120480, Note_on_c, 4, 65, 97
6, 120480, Note_on_c, 4, 69, 91
6, 120800, Note_off_c, 4, 69, 64
6, 120800, Note_off_c, 4, 65, 64
6, 120960, Note_on_c, 4, 69, 120
6, 120960, Note_on_c, 4, 72, 111
6, 121280, Note_off_c, 4, 72, 64
6, 121280, Note_off_c, 4, 69, 64
6, 121440, Note_on_c, 4, 65, 96
6, 121440, Note_on_c, 4, 69, 96
6, 121760, Note_off_c, 4, 69, 64
6, 121760, Note_off_c, 4, 65, 64
6, 121920, Note_on_c, 4, 65, 96
6, 121920, Note_on_c, 4, 69, 96
6, 122240, Note_off_c, 4, 69, 64
6, 122240, Note_off_c, 4, 65, 64
6, 122400, Note_on_c, 4, 69, 118
6, 122400, Note_on_c, 4, 72, 121
6, 122720, Note_off_c, 4, 72, 64
6, 122720, Note_off_c, 4, 69, 64
6, 122880, Note_on_c, 4, 65, 96
6, 122880, Note_on_c, 4, 69, 96
6, 123200, Note_off_c, 4, 69, 64
6, 123200, Note_off_c, 4, 65, 64
6, 123360, Note_on_c, 4, 65, 96
6, 123360, Note_on_c, 4, 69, 96
6, 123680, Note_off_c, 4, 69, 64
6, 123680, Note_off_c, 4, 65, 64
6, 123840, Note_on_c, 4, 69, 102
6, 123840, Note_on_c, 4, 72, 101
6, 124160, Note_off_c, 4, 72, 64
6, 124160, Note_off_c, 4, 69, 64
6, 124320, Note_on_c, 4, 65, 86
6, 124320, Note_on_c, 4, 69, 86
6, 124640, Note_off_c, 4, 69, 64
6, 124640, Note_off_c, 4, 65, 64
6, 124800, Note_on_c, 4, 65, 86
6, 124800, Note_on_c, 4, 69, 86
6, 125120, Note_off_c, 4, 69, 64
6, 125120, Note_off_c, 4, 65, 64
6, 188640, Note_on_c, 4, 60, 64
6, 189920, Note_off_c, 4, 60, 64
6, 190080, Note_on_c, 4, 48, 64
6, 190080, Note_on_c, 4, 70, 64
6, 190400, Note_off_c, 4, 70, 64
6, 190560, Note_on_c, 4, 67, 64
6, 190880, Note_off_c, 4, 67, 64
6, 191040, Note_on_c, 4, 67, 64
6, 191360, Note_off_c, 4, 48, 64
6, 191360, Note_off_c, 4, 67, 64
6, 191520, Note_on_c, 4, 53, 76
6, 191840, Note_off_c, 4, 53, 64
6, 192000, Note_on_c, 4, 69, 76
6, 192320, Note_off_c, 4, 69, 64
6, 192480, Note_on_c, 4, 72, 76
6, 193280, Note_off_c, 4, 72, 64
6, 193440, Note_on_c, 4, 69, 76
6, 193760, Note_off_c, 4, 69, 64
6, 193920, Note_on_c, 4, 65, 76
6, 194720, Note_off_c, 4, 65, 64
6, 194880, Note_on_c, 4, 60, 76
6, 195200, Note_off_c, 4, 60, 64
6, 195360, Note_on_c, 4, 67, 76
6, 196160, Note_off_c, 4, 67, 64
6, 196320, Note_on_c, 4, 65, 76
6, 196640, Note_off_c, 4, 65, 64
6, 196800, Note_on_c, 4, 67, 76
6, 197120, Note_off_c, 4, 67, 64
6, 197280, Note_on_c, 4, 69, 76
6, 197600, Note_off_c, 4, 69, 64
6, 197760, Note_on_c, 4, 67, 76
6, 198080, Note_off_c, 4, 67, 64
6, 198240, Note_on_c, 4, 65, 76
6, 198560, Note_off_c, 4, 65, 64
6, 198720, Note_on_c, 4, 67, 76
6, 199040, Note_off_c, 4, 67, 64
6, 199200, Note_on_c, 4, 69, 76
6, 199520, Note_off_c, 4, 69, 64
6, 199680, Note_on_c, 4, 70, 76
6, 200000, Note_off_c, 4, 70, 64
6, 200160, Note_on_c, 4, 69, 76
6, 200480, Note_off_c, 4, 69, 64
6, 200640, Note_on_c, 4, 70, 76
6, 200960, Note_off_c, 4, 70, 64
6, 201120, Note_on_c, 4, 72, 76
6, 209120, Note_off_c, 4, 72, 64
6, 209280, Note_on_c, 4, 69, 76
6, 209600, Note_off_c, 4, 69, 64
6, 209760, Note_on_c, 4, 70, 76
6, 210080, Note_off_c, 4, 70, 64
6, 210240, Note_on_c, 4, 72, 76
6, 210560, Note_off_c, 4, 72, 64
6, 210720, Note_on_c, 4, 70, 76
6, 211040, Note_off_c, 4, 70, 64
6, 211200, Note_on_c, 4, 69, 76
6, 211520, Note_off_c, 4, 69, 64
6, 211680, Note_on_c, 4, 67, 76
6, 212320, Note_off_c, 4, 67, 64
6, 212640, Note_on_c, 4, 69, 76
6, 212960, Note_off_c, 4, 69, 64
6, 213120, Note_on_c, 4, 70, 76
6, 213440, Note_off_c, 4, 70, 64
6, 213600, Note_on_c, 4, 67, 76
6, 213920, Note_off_c, 4, 67, 64
6, 214080, Note_on_c, 4, 69, 76
6, 214400, Note_off_c, 4, 69, 64
6, 214560, Note_on_c, 4, 65, 76
6, 214880, Note_off_c, 4, 65, 64
6, 215040, Note_on_c, 4, 69, 76
6, 215360, Note_off_c, 4, 69, 64
6, 215520, Note_on_c, 4, 70, 76
6, 215840, Note_off_c, 4, 70, 64
6, 216000, Note_on_c, 4, 72, 76
6, 216320, Note_off_c, 4, 72, 64
6, 216480, Note_on_c, 4, 70, 76
6, 216800, Note_off_c, 4, 70, 64
6, 216960, Note_on_c, 4, 69, 76
6, 217280, Note_off_c, 4, 69, 64
6, 217440, Note_on_c, 4, 67, 76
6, 218080, Note_off_c, 4, 67, 64
6, 218400, Note_on_c, 4, 69, 76
6, 218720, Note_off_c, 4, 69, 64
6, 218880, Note_on_c, 4, 70, 76
6, 218880, Note_on_c, 4, 48, 76
6, 219200, Note_off_c, 4, 70, 64
6, 219360, Note_on_c, 4, 67, 76
6, 219680, Note_off_c, 4, 67, 64
6, 219840, Note_on_c, 4, 69, 76
6, 220160, Note_off_c, 4, 69, 64
6, 220320, Note_on_c, 4, 65, 64
6, 221120, Note_off_c, 4, 65, 64
6, 221760, Note_on_c, 4, 69, 67
6, 222080, Note_off_c, 4, 69, 64
6, 222240, Note_on_c, 4, 72, 68
6, 222560, Note_off_c, 4, 72, 64
6, 222720, Note_on_c, 4, 70, 69
6, 223040, Note_off_c, 4, 70, 64
6, 224640, Note_on_c, 4, 67, 73
6, 224960, Note_off_c, 4, 67, 64
6, 225120, Note_on_c, 4, 70, 74
6, 225440, Note_off_c, 4, 70, 64
6, 225600, Note_on_c, 4, 69, 75
6, 225920, Note_off_c, 4, 69, 64
6, 226080, Note_on_c, 4, 65, 76
6, 227040, Note_off_c, 4, 65, 64
6, 227520, Note_on_c, 4, 72, 79
6, 231360, Note_off_c, 4, 48, 64
6, 231680, Note_off_c, 4, 72, 64
6, 231840, Note_on_c, 4, 65, 96
6, 231840, Note_on_c, 4, 53, 97
6, 232480, Note_off_c, 4, 53, 64
6, 232480, Note_off_c, 4, 65, 64
6, 237600, Note_on_c, 4, 65, 76
6, 237600, Note_on_c, 4, 53, 76
6, 238240, Note_off_c, 4, 53, 64
6, 238240, Note_off_c, 4, 65, 64
6, 238560, Note_on_c, 4, 65, 76
6, 238560, Note_on_c, 4, 53, 76
6, 239200, Note_off_c, 4, 53, 64
6, 239200, Note_off_c, 4, 65, 64
6, 239520, Note_on_c, 4, 65, 76
6, 239520, Note_on_c, 4, 53, 76
6, 240160, Note_off_c, 4, 53, 64
6, 240160, Note_off_c, 4, 65, 64
6, 240480, Note_on_c, 4, 65, 76
6, 240480, Note_on_c, 4, 53, 76
6, 240800, Note_off_c, 4, 53, 64
6, 240800, Note_off_c, 4, 65, 64
6, 240960, Note_on_c, 4, 65, 76
6, 240960, Note_on_c, 4, 53, 76
6, 241280, Note_off_c, 4, 53, 64
6, 241280, Note_off_c, 4, 65, 64
6, 241440, Note_on_c, 4, 65, 76
6, 241440, Note_on_c, 4, 53, 76
6, 242080, Note_off_c, 4, 53, 64
6, 242080, Note_off_c, 4, 65, 64
6, 242400, Note_on_c, 4, 65, 64
6, 242400, Note_on_c, 4, 53, 64
6, 243040, Note_off_c, 4, 53, 64
6, 243040, Note_off_c, 4, 65, 64
6, 243360, Note_on_c, 4, 65, 64
6, 243360, Note_on_c, 4, 53, 64
6, 244000, Note_off_c, 4, 53, 64
6, 244000, Note_off_c, 4, 65, 64
6, 244320, Note_on_c, 4, 65, 64
6, 244320, Note_on_c, 4, 53, 64
6, 244640, Note_off_c, 4, 53, 64
6, 244640, Note_off_c, 4, 65, 64
6, 244800, Note_on_c, 4, 65, 64
6, 244800, Note_on_c, 4, 53, 64
6, 245120, Note_off_c, 4, 53, 64
6, 245120, Note_off_c, 4, 65, 64
6, 245280, Note_on_c, 4, 65, 64
6, 245280, Note_on_c, 4, 53, 64
6, 245920, Note_off_c, 4, 53, 64
6, 245920, Note_off_c, 4, 65, 64
6, 246240, Note_on_c, 4, 65, 64
6, 246240, Note_on_c, 4, 53, 64
6, 246880, Note_off_c, 4, 53, 64
6, 246880, Note_off_c, 4, 65, 64
6, 247200, Note_on_c, 4, 65, 64
6, 247200, Note_on_c, 4, 53, 64
6, 247840, Note_off_c, 4, 53, 64
6, 247840, Note_off_c, 4, 65, 64
6, 248160, Note_on_c, 4, 65, 64
6, 248160, Note_on_c, 4, 53, 64
6, 248480, Note_off_c, 4, 53, 64
6, 248480, Note_off_c, 4, 65, 64
6, 248640, Note_on_c, 4, 65, 64
6, 248640, Note_on_c, 4, 53, 64
6, 248960, Note_off_c, 4, 53, 64
6, 248960, Note_off_c, 4, 65, 64
6, 249120, Note_on_c, 4, 65, 64
6, 249120, Note_on_c, 4, 53, 64
6, 249760, Note_off_c, 4, 53, 64
6, 249760, Note_off_c, 4, 65, 64
6, 250080, Note_on_c, 4, 65, 64
6, 250080, Note_on_c, 4, 53, 64
6, 250720, Note_off_c, 4, 53, 64
6, 250720, Note_off_c, 4, 65, 64
6, 251040, Note_on_c, 4, 65, 64
6, 251040, Note_on_c, 4, 53, 64
6, 251680, Note_off_c, 4, 53, 64
6, 251680, Note_off_c, 4, 65, 64
6, 252000, Note_on_c, 4, 65, 64
6, 252000, Note_on_c, 4, 53, 64
6, 252320, Note_off_c, 4, 53, 64
6, 252320, Note_off_c, 4, 65, 64
6, 252480, Note_on_c, 4, 65, 64
6, 252480, Note_on_c, 4, 53, 64
6, 252800, Note_off_c, 4, 53, 64
6, 252800, Note_off_c, 4, 65, 64
6, 254880, Note_on_c, 4, 69, 85
6, 254880, Note_on_c, 4, 65, 87
6, 255300, Note_off_c, 4, 69, 64
6, 255320, Note_off_c, 4, 65, 64
6, 255360, Note_on_c, 4, 65, 78
6, 255360, Note_on_c, 4, 57, 77
6, 255680, Note_off_c, 4, 57, 64
6, 255680, Note_off_c, 4, 65, 64
6, 255840, Note_on_c, 4, 67, 85
6, 255840, Note_on_c, 4, 60, 79
6, 256244, Note_off_c, 4, 67, 64
6, 256260, Note_off_c, 4, 60, 64
6, 256320, Note_on_c, 4, 65, 74
6, 256320, Note_on_c, 4, 57, 78
6, 256640, Note_off_c, 4, 57, 64
6, 256640, Note_off_c, 4, 65, 64
6, 258720, Note_on_c, 4, 69, 85
6, 258720, Note_on_c, 4, 65, 87
6, 259140, Note_off_c, 4, 69, 64
6, 259160, Note_off_c, 4, 65, 64
6, 259200, Note_on_c, 4, 65, 78
6, 259200, Note_on_c, 4, 57, 77
6, 259520, Note_off_c, 4, 57, 64
6, 259520, Note_off_c, 4, 65, 64
6, 259680, Note_on_c, 4, 67, 85
6, 259680, Note_on_c, 4, 60, 79
6, 260084, Note_off_c, 4, 67, 64
6, 260100, Note_off_c, 4, 60, 64
6, 260160, Note_on_c, 4, 65, 74
6, 260160, Note_on_c, 4, 57, 78
6, 260480, Note_off_c, 4, 57, 64
6, 260480, Note_off_c, 4, 65, 64
6, 260640, Note_on_c, 4, 60, 88
6, 260640, Note_on_c, 4, 48, 88
6, 260960, Note_off_c, 4, 48, 64
6, 260960, Note_off_c, 4, 60, 64
6, 261120, Note_on_c, 4, 67, 88
6, 261440, Note_off_c, 4, 67, 64
6, 261600, Note_on_c, 4, 60, 89
6, 261600, Note_on_c, 4, 48, 89
6, 262080, Note_off_c, 4, 48, 64
6, 262080, Note_off_c, 4, 60, 64
6, 262320, Note_on_c, 4, 60, 90
6, 262320, Note_on_c, 4, 48, 90
6, 262480, Note_off_c, 4, 48, 64
6, 262480, Note_off_c, 4, 60, 64
6, 262560, Note_on_c, 4, 60, 90
6, 262560, Note_on_c, 4, 48, 90
6, 262720, Note_off_c, 4, 48, 64
6, 262720, Note_off_c, 4, 60, 64
6, 263040, Note_on_c, 4, 60, 90
6, 263040, Note_on_c, 4, 48, 90
6, 263200, Note_off_c, 4, 48, 64
6, 263200, Note_off_c, 4, 60, 64
6, 263520, Note_on_c, 4, 60, 91
6, 263520, Note_on_c, 4, 48, 91
6, 263680, Note_off_c, 4, 48, 64
6, 263680, Note_off_c, 4, 60, 64
6, 264000, Note_on_c, 4, 67, 92
6, 264160, Note_off_c, 4, 67, 64
6, 264480, Note_on_c, 4, 60, 92
6, 264480, Note_on_c, 4, 48, 92
6, 264640, Note_off_c, 4, 48, 64
6, 264640, Note_off_c, 4, 60, 64
6, 264720, Note_on_c, 4, 60, 92
6, 264720, Note_on_c, 4, 48, 92
6, 264880, Note_off_c, 4, 48, 64
6, 264880, Note_off_c, 4, 60, 64
6, 264960, Note_on_c, 4, 67, 93
6, 265120, Note_off_c, 4, 67, 64
6, 265200, Note_on_c, 4, 67, 93
6, 265360, Note_off_c, 4, 67, 64
6, 265440, Note_on_c, 4, 60, 93
6, 265440, Note_on_c, 4, 48, 93
6, 265600, Note_off_c, 4, 48, 64
6, 265600, Note_off_c, 4, 60, 64
6, 265680, Note_on_c, 4, 60, 94
6, 265680, Note_on_c, 4, 48, 94
6, 265840, Note_off_c, 4, 48, 64
6, 265840, Note_off_c, 4, 60, 64
6, 266160, Note_on_c, 4, 60, 94
6, 266160, Note_on_c, 4, 48, 94
6, 266320, Note_off_c, 4, 48, 64
6, 266320, Note_off_c, 4, 60, 64
6, 266640, Note_on_c, 4, 60, 95
6, 266640, Note_on_c, 4, 48, 95
6, 266800, Note_off_c, 4, 48, 64
6, 266800, Note_off_c, 4, 60, 64
6, 267120, Note_on_c, 4, 60, 95
6, 267120, Note_on_c, 4, 48, 95
6, 267280, Note_off_c, 4, 48, 64
6, 267280, Note_off_c, 4, 60, 64
6, 267600, Note_on_c, 4, 60, 90
6, 267600, Note_on_c, 4, 48, 90
6, 267760, Note_off_c, 4, 48, 64
6, 267760, Note_off_c, 4, 60, 64
6, 268080, Note_on_c, 4, 55, 92
6, 268080, Note_on_c, 4, 43, 92
6, 268240, Note_off_c, 4, 43, 64
6, 268240, Note_off_c, 4, 55, 64
6, 268320, Note_on_c, 4, 60, 93
6, 268320, Note_on_c, 4, 48, 93
6, 268800, Note_off_c, 4, 48, 64
6, 268800, Note_off_c, 4, 60, 64
6, 269040, Note_on_c, 4, 60, 95
6, 269040, Note_on_c, 4, 48, 95
6, 269200, Note_off_c, 4, 48, 64
6, 269200, Note_off_c, 4, 60, 64
6, 269280, Note_on_c, 4, 60, 96
6, 269280, Note_on_c, 4, 48, 96
6, 269760, Note_off_c, 4, 48, 64
6, 269760, Note_off_c, 4, 60, 64
6, 270000, Note_on_c, 4, 60, 98
6, 270000, Note_on_c, 4, 48, 98
6, 270160, Note_off_c, 4, 48, 64
6, 270160, Note_off_c, 4, 60, 64
6, 270240, Note_on_c, 4, 60, 99
6, 270240, Note_on_c, 4, 48, 99
6, 270720, Note_off_c, 4, 48, 64
6, 270720, Note_off_c, 4, 60, 64
6, 270960, Note_on_c, 4, 60, 101
6, 270960, Note_on_c, 4, 48, 101
6, 271120, Note_off_c, 4, 48, 64
6, 271120, Note_off_c, 4, 60, 64
6, 271200, Note_on_c, 4, 60, 102
6, 271200, Note_on_c, 4, 48, 102
6, 271680, Note_off_c, 4, 48, 64
6, 271680, Note_off_c, 4, 60, 64
6, 271920, Note_on_c, 4, 60, 104
6, 271920, Note_on_c, 4, 48, 104
6, 272080, Note_off_c, 4, 48, 64
6, 272080, Note_off_c, 4, 60, 64
6, 272160, Note_on_c, 4, 60, 105
6, 272160, Note_on_c, 4, 48, 105
6, 272320, Note_off_c, 4, 48, 64
6, 272320, Note_off_c, 4, 60, 64
6, 272400, Note_on_c, 4, 60, 106
6, 272400, Note_on_c, 4, 48, 106
6, 272560, Note_off_c, 4, 48, 64
6, 272560, Note_off_c, 4, 60, 64
6, 272640, Note_on_c, 4, 60, 107
6, 272640, Note_on_c, 4, 48, 107
6, 272800, Note_off_c, 4, 48, 64
6, 272800, Note_off_c, 4, 60, 64
6, 272880, Note_on_c, 4, 60, 108
6, 272880, Note_on_c, 4, 48, 108
6, 273040, Note_off_c, 4, 48, 64
6, 273040, Note_off_c, 4, 60, 64
6, 273120, Note_on_c, 4, 60, 108
6, 273120, Note_on_c, 4, 48, 108
6, 273280, Note_off_c, 4, 48, 64
6, 273280, Note_off_c, 4, 60, 64
6, 273360, Note_on_c, 4, 60, 109
6, 273360, Note_on_c, 4, 48, 109
6, 273520, Note_off_c, 4, 48, 64
6, 273520, Note_off_c, 4, 60, 64
6, 273600, Note_on_c, 4, 60, 110
6, 273600, Note_on_c, 4, 48, 110
6, 273760, Note_off_c, 4, 48, 64
6, 273760, Note_off_c, 4, 60, 64
6, 273840, Note_on_c, 4, 60, 111
6, 273840, Note_on_c, 4, 48, 111
6, 274000, Note_off_c, 4, 48, 64
6, 274000, Note_off_c, 4, 60, 64
6, 274080, Note_on_c, 4, 60, 112
6, 274080, Note_on_c, 4, 48, 112
6, 274240, Note_off_c, 4, 48, 64
6, 274240, Note_off_c, 4, 60, 64
6, 276960, Control_c, 4, 91, 52
6, 276960, Control_c, 4, 10, 52
6, 276960, Control_c, 4, 7, 102
6, 276960, Control_c, 4, 0, 0
6, 276960, Control_c, 4, 32, 0
6, 276960, Program_c, 4, 60
6, 276960, Control_c, 4, 91, 52
6, 276960, Control_c, 4, 10, 52
6, 276960, Control_c, 4, 7, 102
6, 276960, Control_c, 4, 0, 0
6, 276960, Control_c, 4, 32, 0
6, 276960, Program_c, 4, 60
6, 335520, Note_on_c, 4, 67, 40
6, 335840, Note_off_c, 4, 67, 64
6, 336000, Note_on_c, 4, 60, 40
6, 336000, Note_on_c, 4, 48, 40
6, 336640, Note_off_c, 4, 48, 64
6, 336640, Note_off_c, 4, 60, 64
6, 336960, Note_on_c, 4, 60, 45
6, 336960, Note_on_c, 4, 48, 45
6, 338080, Note_off_c, 4, 48, 64
6, 338080, Note_off_c, 4, 60, 64
6, 338400, Note_on_c, 4, 60, 53
6, 338400, Note_on_c, 4, 48, 53
6, 339520, Note_off_c, 4, 48, 64
6, 339520, Note_off_c, 4, 60, 64
6, 339840, Note_on_c, 4, 60, 61
6, 339840, Note_on_c, 4, 48, 61
6, 340960, Note_off_c, 4, 48, 64
6, 340960, Note_off_c, 4, 60, 64
6, 341280, Note_on_c, 4, 60, 64
6, 341280, Note_on_c, 4, 48, 64
6, 342400, Note_off_c, 4, 48, 64
6, 342400, Note_off_c, 4, 60, 64
6, 342720, Note_on_c, 4, 60, 64
6, 342720, Note_on_c, 4, 48, 64
6, 343840, Note_off_c, 4, 48, 64
6, 343840, Note_off_c, 4, 60, 64
6, 344160, Note_on_c, 4, 60, 64
6, 344160, Note_on_c, 4, 48, 64
6, 345280, Note_off_c, 4, 48, 64
6, 345280, Note_off_c, 4, 60, 64
6, 345600, Note_on_c, 4, 67, 64
6, 345920, Note_off_c, 4, 67, 64
6, 346080, Note_on_c, 4, 67, 64
6, 346400, Note_off_c, 4, 67, 64
6, 346560, Note_on_c, 4, 60, 64
6, 346560, Note_on_c, 4, 48, 64
6, 346880, Note_off_c, 4, 48, 64
6, 346880, Note_off_c, 4, 60, 64
6, 347040, Note_on_c, 4, 60, 64
6, 347040, Note_on_c, 4, 48, 64
6, 347360, Note_off_c, 4, 48, 64
6, 347360, Note_off_c, 4, 60, 64
6, 347520, Note_on_c, 4, 60, 50
6, 347520, Note_on_c, 4, 48, 50
6, 347840, Note_off_c, 4, 48, 64
6, 347840, Note_off_c, 4, 60, 64
6, 348000, Note_on_c, 4, 60, 53
6, 348000, Note_on_c, 4, 48, 53
6, 348320, Note_off_c, 4, 48, 64
6, 348320, Note_off_c, 4, 60, 64
6, 348480, Note_on_c, 4, 60, 57
6, 348480, Note_on_c, 4, 48, 57
6, 348800, Note_off_c, 4, 48, 64
6, 348800, Note_off_c, 4, 60, 64
6, 348960, Note_on_c, 4, 60, 61
6, 348960, Note_on_c, 4, 48, 61
6, 349280, Note_off_c, 4, 48, 64
6, 349280, Note_off_c, 4, 60, 64
6, 349440, Note_on_c, 4, 60, 65
6, 349440, Note_on_c, 4, 48, 65
6, 349760, Note_off_c, 4, 48, 64
6, 349760, Note_off_c, 4, 60, 64
6, 349920, Note_on_c, 4, 60, 69
6, 349920, Note_on_c, 4, 48, 69
6, 350240, Note_off_c, 4, 48, 64
6, 350240, Note_off_c, 4, 60, 64
6, 350400, Note_on_c, 4, 60, 73
6, 350400, Note_on_c, 4, 48, 73
6, 350720, Note_off_c, 4, 48, 64
6, 350720, Note_off_c, 4, 60, 64
6, 350880, Note_on_c, 4, 60, 76
6, 350880, Note_on_c, 4, 48, 76
6, 351200, Note_off_c, 4, 48, 64
6, 351200, Note_off_c, 4, 60, 64
6, 351360, Note_on_c, 4, 60, 80
6, 351360, Note_on_c, 4, 48, 80
6, 351680, Note_off_c, 4, 48, 64
6, 351680, Note_off_c, 4, 60, 64
6, 351840, Note_on_c, 4, 60, 84
6, 351840, Note_on_c, 4, 48, 84
6, 352160, Note_off_c, 4, 48, 64
6, 352160, Note_off_c, 4, 60, 64
6, 352320, Note_on_c, 4, 60, 88
6, 352320, Note_on_c, 4, 48, 88
6, 352640, Note_off_c, 4, 48, 64
6, 352640, Note_off_c, 4, 60, 64
6, 352800, Note_on_c, 4, 60, 92
6, 352800, Note_on_c, 4, 48, 92
6, 353120, Note_off_c, 4, 48, 64
6, 353120, Note_off_c, 4, 60, 64
6, 353280, Note_on_c, 4, 65, 96
6, 353280, Note_on_c, 4, 53, 96
6, 353600, Note_off_c, 4, 53, 64
6, 353600, Note_off_c, 4, 65, 64
6, 353760, Note_on_c, 4, 65, 96
6, 353760, Note_on_c, 4, 53, 96
6, 354080, Note_off_c, 4, 53, 64
6, 354080, Note_off_c, 4, 65, 64
6, 354240, Note_on_c, 4, 65, 96
6, 354240, Note_on_c, 4, 53, 96
6, 354560, Note_off_c, 4, 53, 64
6, 354560, Note_off_c, 4, 65, 64
6, 354720, Note_on_c, 4, 53, 96
6, 354720, Note_on_c, 4, 65, 96
6, 355040, Note_off_c, 4, 65, 64
6, 355040, Note_off_c, 4, 53, 64
6, 355200, Note_on_c, 4, 65, 96
6, 355200, Note_on_c, 4, 53, 96
6, 355520, Note_off_c, 4, 53, 64
6, 355520, Note_off_c, 4, 65, 64
6, 355680, Note_on_c, 4, 65, 96
6, 355680, Note_on_c, 4, 53, 96
6, 356000, Note_off_c, 4, 53, 64
6, 356000, Note_off_c, 4, 65, 64
6, 356160, Note_on_c, 4, 65, 96
6, 356160, Note_on_c, 4, 53, 96
6, 356480, Note_off_c, 4, 53, 64
6, 356480, Note_off_c, 4, 65, 64
6, 356640, Note_on_c, 4, 65, 96
6, 356960, Note_off_c, 4, 65, 64
6, 357120, Note_on_c, 4, 67, 96
6, 357440, Note_off_c, 4, 67, 64
6, 357600, Note_on_c, 4, 69, 96
6, 357600, Note_on_c, 4, 57, 96
6, 357920, Note_off_c, 4, 57, 64
6, 357920, Note_off_c, 4, 69, 64
6, 359040, Note_on_c, 4, 69, 96
6, 359040, Note_on_c, 4, 57, 96
6, 359360, Note_off_c, 4, 57, 64
6, 359360, Note_off_c, 4, 69, 64
6, 360480, Note_on_c, 4, 69, 96
6, 360480, Note_on_c, 4, 57, 96
6, 360800, Note_off_c, 4, 57, 64
6, 360800, Note_off_c, 4, 69, 64
6, 361920, Note_on_c, 4, 69, 96
6, 361920, Note_on_c, 4, 57, 96
6, 362880, Note_off_c, 4, 57, 64
6, 362880, Note_off_c, 4, 69, 64
6, 363360, Note_on_c, 4, 67, 96
6, 364000, Note_off_c, 4, 67, 64
6, 364320, Note_on_c, 4, 60, 96
6, 364320, Note_on_c, 4, 48, 96
6, 364640, Note_off_c, 4, 48, 64
6, 364640, Note_off_c, 4, 60, 64
6, 364800, Note_on_c, 4, 60, 96
6, 364800, Note_on_c, 4, 48, 96
6, 365440, Note_off_c, 4, 48, 64
6, 365440, Note_off_c, 4, 60, 64
6, 365760, Note_on_c, 4, 60, 96
6, 365760, Note_on_c, 4, 48, 96
6, 366080, Note_off_c, 4, 48, 64
6, 366080, Note_off_c, 4, 60, 64
6, 366240, Note_on_c, 4, 60, 96
6, 366240, Note_on_c, 4, 48, 96
6, 366880, Note_off_c, 4, 48, 64
6, 366880, Note_off_c, 4, 60, 64
6, 367200, Note_on_c, 4, 60, 96
6, 367200, Note_on_c, 4, 48, 96
6, 367520, Note_off_c, 4, 48, 64
6, 367520, Note_off_c, 4, 60, 64
6, 367680, Note_on_c, 4, 65, 96
6, 368854, Note_off_c, 4, 65, 64
6, 369120, Note_on_c, 4, 65, 96
6, 369120, Note_on_c, 4, 67, 96
6, 370254, Note_off_c, 4, 65, 64
6, 370290, Note_off_c, 4, 67, 64
6, 370560, Note_on_c, 4, 69, 96
6, 370560, Note_on_c, 4, 65, 96
6, 371710, Note_off_c, 4, 65, 64
6, 371734, Note_off_c, 4, 69, 64
6, 372000, Note_on_c, 4, 64, 96
6, 372000, Note_on_c, 4, 67, 96
6, 373160, Note_off_c, 4, 67, 64
6, 373160, Note_off_c, 4, 64, 64
6, 373440, Note_on_c, 4, 69, 96
6, 373440, Note_on_c, 4, 65, 96
6, 373760, Note_off_c, 4, 65, 64
6, 373760, Note_off_c, 4, 69, 64
6, 375840, Note_on_c, 4, 60, 96
6, 375840, Note_on_c, 4, 48, 96
6, 376160, Note_off_c, 4, 48, 64
6, 376160, Note_off_c, 4, 60, 64
6, 376320, Note_on_c, 4, 60, 96
6, 376320, Note_on_c, 4, 48, 96
6, 376960, Note_off_c, 4, 48, 64
6, 376960, Note_off_c, 4, 60, 64
6, 377280, Note_on_c, 4, 60, 96
6, 377280, Note_on_c, 4, 48, 96
6, 377600, Note_off_c, 4, 48, 64
6, 377600, Note_off_c, 4, 60, 64
6, 377760, Note_on_c, 4, 60, 96
6, 377760, Note_on_c, 4, 48, 96
6, 378400, Note_off_c, 4, 48, 64
6, 378400, Note_off_c, 4, 60, 64
6, 378720, Note_on_c, 4, 60, 96
6, 378720, Note_on_c, 4, 67, 96
6, 379040, Note_off_c, 4, 67, 64
6, 379040, Note_off_c, 4, 60, 64
6, 379200, Note_on_c, 4, 65, 96
6, 379200, Note_on_c, 4, 53, 96
6, 380300, Note_off_c, 4, 65, 64
6, 380310, Note_off_c, 4, 53, 64
6, 380640, Note_on_c, 4, 65, 96
6, 380640, Note_on_c, 4, 53, 96
6, 381760, Note_off_c, 4, 65, 64
6, 381770, Note_off_c, 4, 53, 64
6, 382080, Note_on_c, 4, 65, 96
6, 382080, Note_on_c, 4, 53, 96
6, 383204, Note_off_c, 4, 53, 64
6, 383220, Note_off_c, 4, 65, 64
6, 383520, Note_on_c, 4, 60, 96
6, 383520, Note_on_c, 4, 48, 96
6, 384650, Note_off_c, 4, 60, 64
6, 384660, Note_off_c, 4, 48, 64
6, 384960, Note_on_c, 4, 65, 114
6, 384960, Note_on_c, 4, 53, 115
6, 385280, Note_off_c, 4, 53, 64
6, 385280, Note_off_c, 4, 65, 64
6, 385440, Note_on_c, 4, 65, 96
6, 385440, Note_on_c, 4, 69, 96
6, 385760, Note_off_c, 4, 69, 64
6, 385760, Note_off_c, 4, 65, 64
6, 385920, Note_on_c, 4, 65, 96
6, 385920, Note_on_c, 4, 69, 96
6, 386240, Note_off_c, 4, 69, 64
6, 386240, Note_off_c, 4, 65, 64
6, 386400, Note_on_c, 4, 69, 119
6, 386400, Note_on_c, 4, 72, 115
6, 386720, Note_off_c, 4, 72, 64
6, 386720, Note_off_c, 4, 69, 64
6, 386880, Note_on_c, 4, 65, 96
6, 386880, Note_on_c, 4, 69, 96
6, 387200, Note_off_c, 4, 69, 64
6, 387200, Note_off_c, 4, 65, 64
6, 387360, Note_on_c, 4, 65, 96
6, 387360, Note_on_c, 4, 69, 96
6, 387680, Note_off_c, 4, 69, 64
6, 387680, Note_off_c, 4, 65, 64
6, 387840, Note_on_c, 4, 69, 121
6, 387840, Note_on_c, 4, 72, 119
6, 388160, Note_off_c, 4, 72, 64
6, 388160, Note_off_c, 4, 69, 64
6, 388320, Note_on_c, 4, 65, 96
6, 388320, Note_on_c, 4, 69, 96
6, 388640, Note_off_c, 4, 69, 64
6, 388640, Note_off_c, 4, 65, 64
6, 388800, Note_on_c, 4, 65, 96
6, 388800, Note_on_c, 4, 69, 96
6, 389120, Note_off_c, 4, 69, 64
6, 389120, Note_off_c, 4, 65, 64
6, 389280, Note_on_c, 4, 67, 120
6, 389280, Note_on_c, 4, 70, 118
6, 389600, Note_off_c, 4, 70, 64
6, 389600, Note_off_c, 4, 67, 64
6, 389760, Note_on_c, 4, 60, 96
6, 389760, Note_on_c, 4, 67, 96
6, 390080, Note_off_c, 4, 67, 64
6, 390080, Note_off_c, 4, 60, 64
6, 390240, Note_on_c, 4, 67, 96
6, 390240, Note_on_c, 4, 60, 96
6, 390560, Note_off_c, 4, 60, 64
6, 390560, Note_off_c, 4, 67, 64
6, 390720, Note_on_c, 4, 69, 119
6, 390720, Note_on_c, 4, 72, 120
6, 391040, Note_off_c, 4, 72, 64
6, 391040, Note_off_c, 4, 69, 64
6, 391200, Note_on_c, 4, 65, 96
6, 391200, Note_on_c, 4, 69, 96
6, 391520, Note_off_c, 4, 69, 64
6, 391520, Note_off_c, 4, 65, 64
6, 391680, Note_on_c, 4, 65, 96
6, 391680, Note_on_c, 4, 69, 96
6, 392000, Note_off_c, 4, 69, 64
6, 392000, Note_off_c, 4, 65, 64
6, 392160, Note_on_c, 4, 69, 121
6, 392160, Note_on_c, 4, 72, 119
6, 392480, Note_off_c, 4, 72, 64
6, 392480, Note_off_c, 4, 69, 64
6, 392640, Note_on_c, 4, 65, 96
6, 392640, Note_on_c, 4, 69, 96
6, 392960, Note_off_c, 4, 69, 64
6, 392960, Note_off_c, 4, 65, 64
6, 393120, Note_on_c, 4, 65, 96
6, 393120, Note_on_c, 4, 69, 96
6, 393440, Note_off_c, 4, 69, 64
6, 393440, Note_off_c, 4, 65, 64
6, 393600, Note_on_c, 4, 69, 122
6, 393600, Note_on_c, 4, 72, 118
6, 393920, Note_off_c, 4, 72, 64
6, 393920, Note_off_c, 4, 69, 64
6, 394080, Note_on_c, 4, 65, 96
6, 394080, Note_on_c, 4, 69, 96
6, 394400, Note_off_c, 4, 69, 64
6, 394400, Note_off_c, 4, 65, 64
6, 394560, Note_on_c, 4, 65, 96
6, 394560, Note_on_c, 4, 69, 96
6, 394880, Note_off_c, 4, 69, 64
6, 394880, Note_off_c, 4, 65, 64
6, 395040, Note_on_c, 4, 67, 122
6, 395040, Note_on_c, 4, 70, 121
6, 395360, Note_off_c, 4, 70, 64
6, 395360, Note_off_c, 4, 67, 64
6, 395520, Note_on_c, 4, 60, 96
6, 395520, Note_on_c, 4, 67, 96
6, 395840, Note_off_c, 4, 67, 64
6, 395840, Note_off_c, 4, 60, 64
6, 396000, Note_on_c, 4, 67, 96
6, 396000, Note_on_c, 4, 60, 96
6, 396320, Note_off_c, 4, 60, 64
6, 396320, Note_off_c, 4, 67, 64
6, 396480, Note_on_c, 4, 69, 119
6, 396480, Note_on_c, 4, 72, 121
6, 396800, Note_off_c, 4, 72, 64
6, 396800, Note_off_c, 4, 69, 64
6, 396960, Note_on_c, 4, 65, 93
6, 396960, Note_on_c, 4, 69, 97
6, 397280, Note_off_c, 4, 69, 64
6, 397280, Note_off_c, 4, 65, 64
6, 397440, Note_on_c, 4, 65, 97
6, 397440, Note_on_c, 4, 69, 91
6, 397760, Note_off_c, 4, 69, 64
6, 397760, Note_off_c, 4, 65, 64
6, 397920, Note_on_c, 4, 69, 120
6, 397920, Note_on_c, 4, 72, 111
6, 398240, Note_off_c, 4, 72, 64
6, 398240, Note_off_c, 4, 69, 64
6, 398400, Note_on_c, 4, 65, 96
6, 398400, Note_on_c, 4, 69, 96
6, 398720, Note_off_c, 4, 69, 64
6, 398720, Note_off_c, 4, 65, 64
6, 398880, Note_on_c, 4, 65, 96
6, 398880, Note_on_c, 4, 69, 96
6, 399200, Note_off_c, 4, 69, 64
6, 399200, Note_off_c, 4, 65, 64
6, 399360, Note_on_c, 4, 69, 118
6, 399360, Note_on_c, 4, 72, 121
6, 399680, Note_off_c, 4, 72, 64
6, 399680, Note_off_c, 4, 69, 64
6, 399840, Note_on_c, 4, 65, 96
6, 399840, Note_on_c, 4, 69, 96
6, 400160, Note_off_c, 4, 69, 64
6, 400160, Note_off_c, 4, 65, 64
6, 400320, Note_on_c, 4, 65, 96
6, 400320, Note_on_c, 4, 69, 96
6, 400640, Note_off_c, 4, 69, 64
6, 400640, Note_off_c, 4, 65, 64
6, 400800, Note_on_c, 4, 69, 102
6, 400800, Note_on_c, 4, 72, 101
6, 401120, Note_off_c, 4, 72, 64
6, 401120, Note_off_c, 4, 69, 64
6, 401280, Note_on_c, 4, 65, 86
6, 401280, Note_on_c, 4, 69, 86
6, 401600, Note_off_c, 4, 69, 64
6, 401600, Note_off_c, 4, 65, 64
6, 401760, Note_on_c, 4, 65, 86
6, 401760, Note_on_c, 4, 69, 86
6, 402080, Note_off_c, 4, 69, 64
6, 402080, Note_off_c, 4, 65, 64
6, 465600, Note_on_c, 4, 60, 64
6, 466880, Note_off_c, 4, 60, 64
6, 467040, Note_on_c, 4, 48, 64
6, 467040, Note_on_c, 4, 70, 64
6, 467360, Note_off_c, 4, 70, 64
6, 467520, Note_on_c, 4, 67, 64
6, 467840, Note_off_c, 4, 67, 64
6, 468000, Note_on_c, 4, 67, 64
6, 468320, Note_off_c, 4, 48, 64
6, 468320, Note_off_c, 4, 67, 64
6, 468480, Note_on_c, 4, 53, 76
6, 468800, Note_off_c, 4, 53, 64
6, 468960, Note_on_c, 4, 69, 76
6, 469280, Note_off_c, 4, 69, 64
6, 469440, Note_on_c, 4, 72, 76
6, 470240, Note_off_c, 4, 72, 64
6, 470400, Note_on_c, 4, 69, 76
6, 470720, Note_off_c, 4, 69, 64
6, 470880, Note_on_c, 4, 65, 76
6, 471680, Note_off_c, 4, 65, 64
6, 471840, Note_on_c, 4, 60, 76
6, 472160, Note_off_c, 4, 60, 64
6, 472320, Note_on_c, 4, 67, 76
6, 473120, Note_off_c, 4, 67, 64
6, 473280, Note_on_c, 4, 65, 76
6, 473600, Note_off_c, 4, 65, 64
6, 473760, Note_on_c, 4, 67, 76
6, 474080, Note_off_c, 4, 67, 64
6, 474240, Note_on_c, 4, 69, 76
6, 474560, Note_off_c, 4, 69, 64
6, 474720, Note_on_c, 4, 67, 76
6, 475040, Note_off_c, 4, 67, 64
6, 475200, Note_on_c, 4, 65, 76
6, 475520, Note_off_c, 4, 65, 64
6, 475680, Note_on_c, 4, 67, 76
6, 476000, Note_off_c, 4, 67, 64
6, 476160, Note_on_c, 4, 69, 76
6, 476480, Note_off_c, 4, 69, 64
6, 476640, Note_on_c, 4, 70, 76
6, 476960, Note_off_c, 4, 70, 64
6, 477120, Note_on_c, 4, 69, 76
6, 477440, Note_off_c, 4, 69, 64
6, 477600, Note_on_c, 4, 70, 76
6, 477920, Note_off_c, 4, 70, 64
6, 478080, Note_on_c, 4, 72, 76
6, 486080, Note_off_c, 4, 72, 64
6, 486240, Note_on_c, 4, 69, 76
6, 486560, Note_off_c, 4, 69, 64
6, 486720, Note_on_c, 4, 70, 76
6, 487040, Note_off_c, 4, 70, 64
6, 487200, Note_on_c, 4, 72, 76
6, 487520, Note_off_c, 4, 72, 64
6, 487680, Note_on_c, 4, 70, 76
6, 488000, Note_off_c, 4, 70, 64
6, 488160, Note_on_c, 4, 69, 76
6, 488480, Note_off_c, 4, 69, 64
6, 488640, Note_on_c, 4, 67, 76
6, 489280, Note_off_c, 4, 67, 64
6, 489600, Note_on_c, 4, 69, 76
6, 489920, Note_off_c, 4, 69, 64
6, 490080, Note_on_c, 4, 70, 76
6, 490400, Note_off_c, 4, 70, 64
6, 490560, Note_on_c, 4, 67, 76
6, 490880, Note_off_c, 4, 67, 64
6, 491040, Note_on_c, 4, 69, 76
6, 491360, Note_off_c, 4, 69, 64
6, 491520, Note_on_c, 4, 65, 76
6, 491840, Note_off_c, 4, 65, 64
6, 492000, Note_on_c, 4, 69, 76
6, 492320, Note_off_c, 4, 69, 64
6, 492480, Note_on_c, 4, 70, 76
6, 492800, Note_off_c, 4, 70, 64
6, 492960, Note_on_c, 4, 72, 76
6, 493280, Note_off_c, 4, 72, 64
6, 493440, Note_on_c, 4, 70, 76
6, 493760, Note_off_c, 4, 70, 64
6, 493920, Note_on_c, 4, 69, 76
6, 494240, Note_off_c, 4, 69, 64
6, 494400, Note_on_c, 4, 67, 76
6, 495040, Note_off_c, 4, 67, 64
6, 495360, Note_on_c, 4, 69, 76
6, 495680, Note_off_c, 4, 69, 64
6, 495840, Note_on_c, 4, 70, 76
6, 495840, Note_on_c, 4, 48, 76
6, 496160, Note_off_c, 4, 70, 64
6, 496320, Note_on_c, 4, 67, 76
6, 496640, Note_off_c, 4, 67, 64
6, 496800, Note_on_c, 4, 69, 76
6, 497120, Note_off_c, 4, 69, 64
6, 497280, Note_on_c, 4, 65, 64
6, 498080, Note_off_c, 4, 65, 64
6, 498720, Note_on_c, 4, 69, 67
6, 499040, Note_off_c, 4, 69, 64
6, 499200, Note_on_c, 4, 72, 68
6, 499520, Note_off_c, 4, 72, 64
6, 499680, Note_on_c, 4, 70, 69
6, 500000, Note_off_c, 4, 70, 64
6, 501600, Note_on_c, 4, 67, 73
6, 501920, Note_off_c, 4, 67, 64
6, 502080, Note_on_c, 4, 70, 74
6, 502400, Note_off_c, 4, 70, 64
6, 502560, Note_on_c, 4, 69, 75
6, 502880, Note_off_c, 4, 69, 64
6, 503040, Note_on_c, 4, 65, 76
6, 504000, Note_off_c, 4, 65, 64
6, 504480, Note_on_c, 4, 72, 79
6, 508320, Note_off_c, 4, 48, 64
6, 508640, Note_off_c, 4, 72, 64
6, 508800, Note_on_c, 4, 65, 96
6, 508800, Note_on_c, 4, 53, 97
6, 509440, Note_off_c, 4, 53, 64
6, 509440, Note_off_c, 4, 65, 64
6, 514560, Note_on_c, 4, 65, 76
6, 514560, Note_on_c, 4, 53, 76
6, 515200, Note_off_c, 4, 53, 64
6, 515200, Note_off_c, 4, 65, 64
6, 515520, Note_on_c, 4, 65, 76
6, 515520, Note_on_c, 4, 53, 76
6, 516160, Note_off_c, 4, 53, 64
6, 516160, Note_off_c, 4, 65, 64
6, 516480, Note_on_c, 4, 65, 76
6, 516480, Note_on_c, 4, 53, 76
6, 517120, Note_off_c, 4, 53, 64
6, 517120, Note_off_c, 4, 65, 64
6, 517440, Note_on_c, 4, 65, 76
6, 517440, Note_on_c, 4, 53, 76
6, 517760, Note_off_c, 4, 53, 64
6, 517760, Note_off_c, 4, 65, 64
6, 517920, Note_on_c, 4, 65, 76
6, 517920, Note_on_c, 4, 53, 76
6, 518240, Note_off_c, 4, 53, 64
6, 518240, Note_off_c, 4, 65, 64
6, 518400, Note_on_c, 4, 65, 76
6, 518400, Note_on_c, 4, 53, 76
6, 519040, Note_off_c, 4, 53, 64
6, 519040, Note_off_c, 4, 65, 64
6, 519360, Note_on_c, 4, 65, 64
6, 519360, Note_on_c, 4, 53, 64
6, 520000, Note_off_c, 4, 53, 64
6, 520000, Note_off_c, 4, 65, 64
6, 520320, Note_on_c, 4, 65, 64
6, 520320, Note_on_c, 4, 53, 64
6, 520960, Note_off_c, 4, 53, 64
6, 520960, Note_off_c, 4, 65, 64
6, 521280, Note_on_c, 4, 65, 64
6, 521280, Note_on_c, 4, 53, 64
6, 521600, Note_off_c, 4, 53, 64
6, 521600, Note_off_c, 4, 65, 64
6, 521760, Note_on_c, 4, 65, 64
6, 521760, Note_on_c, 4, 53, 64
6, 522080, Note_off_c, 4, 53, 64
6, 522080, Note_off_c, 4, 65, 64
6, 522240, Note_on_c, 4, 65, 64
6, 522240, Note_on_c, 4, 53, 64
6, 522880, Note_off_c, 4, 53, 64
6, 522880, Note_off_c, 4, 65, 64
6, 523200, Note_on_c, 4, 65, 64
6, 523200, Note_on_c, 4, 53, 64
6, 523840, Note_off_c, 4, 53, 64
6, 523840, Note_off_c, 4, 65, 64
6, 524160, Note_on_c, 4, 65, 64
6, 524160, Note_on_c, 4, 53, 64
6, 524800, Note_off_c, 4, 53, 64
6, 524800, Note_off_c, 4, 65, 64
6, 525120, Note_on_c, 4, 65, 64
6, 525120, Note_on_c, 4, 53, 64
6, 525440, Note_off_c, 4, 53, 64
6, 525440, Note_off_c, 4, 65, 64
6, 525600, Note_on_c, 4, 65, 64
6, 525600, Note_on_c, 4, 53, 64
6, 525920, Note_off_c, 4, 53, 64
6, 525920, Note_off_c, 4, 65, 64
6, 526080, Note_on_c, 4, 65, 64
6, 526080, Note_on_c, 4, 53, 64
6, 526720, Note_off_c, 4, 53, 64
6, 526720, Note_off_c, 4, 65, 64
6, 527040, Note_on_c, 4, 65, 64
6, 527040, Note_on_c, 4, 53, 64
6, 527680, Note_off_c, 4, 53, 64
6, 527680, Note_off_c, 4, 65, 64
6, 528000, Note_on_c, 4, 65, 64
6, 528000, Note_on_c, 4, 53, 64
6, 528640, Note_off_c, 4, 53, 64
6, 528640, Note_off_c, 4, 65, 64
6, 528960, Note_on_c, 4, 65, 64
6, 528960, Note_on_c, 4, 53, 64
6, 529280, Note_off_c, 4, 53, 64
6, 529280, Note_off_c, 4, 65, 64
6, 529440, Note_on_c, 4, 65, 64
6, 529440, Note_on_c, 4, 53, 64
6, 529760, Note_off_c, 4, 53, 64
6, 529760, Note_off_c, 4, 65, 64
6, 531840, Note_on_c, 4, 69, 85
6, 531840, Note_on_c, 4, 65, 87
6, 532260, Note_off_c, 4, 69, 64
6, 532280, Note_off_c, 4, 65, 64
6, 532320, Note_on_c, 4, 65, 78
6, 532320, Note_on_c, 4, 57, 77
6, 532640, Note_off_c, 4, 57, 64
6, 532640, Note_off_c, 4, 65, 64
6, 532800, Note_on_c, 4, 67, 85
6, 532800, Note_on_c, 4, 60, 79
6, 533204, Note_off_c, 4, 67, 64
6, 533220, Note_off_c, 4, 60, 64
6, 533280, Note_on_c, 4, 65, 74
6, 533280, Note_on_c, 4, 57, 78
6, 533600, Note_off_c, 4, 57, 64
6, 533600, Note_off_c, 4, 65, 64
6, 535680, Note_on_c, 4, 69, 85
6, 535680, Note_on_c, 4, 65, 87
6, 536100, Note_off_c, 4, 69, 64
6, 536120, Note_off_c, 4, 65, 64
6, 536160, Note_on_c, 4, 65, 78
6, 536160, Note_on_c, 4, 57, 77
6, 536480, Note_off_c, 4, 57, 64
6, 536480, Note_off_c, 4, 65, 64
6, 536640, Note_on_c, 4, 67, 85
6, 536640, Note_on_c, 4, 60, 79
6, 537044, Note_off_c, 4, 67, 64
6, 537060, Note_off_c, 4, 60, 64
6, 537120, Note_on_c, 4, 65, 74
6, 537120, Note_on_c, 4, 57, 78
6, 537440, Note_off_c, 4, 57, 64
6, 537440, Note_off_c, 4, 65, 64
6, 537600, Note_on_c, 4, 60, 88
6, 537600, Note_on_c, 4, 48, 88
6, 537920, Note_off_c, 4, 48, 64
6, 537920, Note_off_c, 4, 60, 64
6, 538080, Note_on_c, 4, 67, 88
6, 538400, Note_off_c, 4, 67, 64
6, 538560, Note_on_c, 4, 60, 89
6, 538560, Note_on_c, 4, 48, 89
6, 539040, Note_off_c, 4, 48, 64
6, 539040, Note_off_c, 4, 60, 64
6, 539280, Note_on_c, 4, 60, 90
6, 539280, Note_on_c, 4, 48, 90
6, 539440, Note_off_c, 4, 48, 64
6, 539440, Note_off_c, 4, 60, 64
6, 539520, Note_on_c, 4, 60, 90
6, 539520, Note_on_c, 4, 48, 90
6, 539680, Note_off_c, 4, 48, 64
6, 539680, Note_off_c, 4, 60, 64
6, 540000, Note_on_c, 4, 60, 90
6, 540000, Note_on_c, 4, 48, 90
6, 540160, Note_off_c, 4, 48, 64
6, 540160, Note_off_c, 4, 60, 64
6, 540480, Note_on_c, 4, 60, 91
6, 540480, Note_on_c, 4, 48, 91
6, 540640, Note_off_c, 4, 48, 64
6, 540640, Note_off_c, 4, 60, 64
6, 540960, Note_on_c, 4, 67, 92
6, 541120, Note_off_c, 4, 67, 64
6, 541440, Note_on_c, 4, 60, 92
6, 541440, Note_on_c, 4, 48, 92
6, 541600, Note_off_c, 4, 48, 64
6, 541600, Note_off_c, 4, 60, 64
6, 541680, Note_on_c, 4, 60, 92
6, 541680, Note_on_c, 4, 48, 92
6, 541840, Note_off_c, 4, 48, 64
6, 541840, Note_off_c, 4, 60, 64
6, 541920, Note_on_c, 4, 67, 93
6, 542080, Note_off_c, 4, 67, 64
6, 542160, Note_on_c, 4, 67, 93
6, 542320, Note_off_c, 4, 67, 64
6, 542400, Note_on_c, 4, 60, 93
6, 542400, Note_on_c, 4, 48, 93
6, 542560, Note_off_c, 4, 48, 64
6, 542560, Note_off_c, 4, 60, 64
6, 542640, Note_on_c, 4, 60, 94
6, 542640, Note_on_c, 4, 48, 94
6, 542800, Note_off_c, 4, 48, 64
6, 542800, Note_off_c, 4, 60, 64
6, 543120, Note_on_c, 4, 60, 94
6, 543120, Note_on_c, 4, 48, 94
6, 543280, Note_off_c, 4, 48, 64
6, 543280, Note_off_c, 4, 60, 64
6, 543600, Note_on_c, 4, 60, 95
6, 543600, Note_on_c, 4, 48, 95
6, 543760, Note_off_c, 4, 48, 64
6, 543760, Note_off_c, 4, 60, 64
6, 544080, Note_on_c, 4, 60, 95
6, 544080, Note_on_c, 4, 48, 95
6, 544240, Note_off_c, 4, 48, 64
6, 544240, Note_off_c, 4, 60, 64
6, 544560, Note_on_c, 4, 60, 90
6, 544560, Note_on_c, 4, 48, 90
6, 544720, Note_off_c, 4, 48, 64
6, 544720, Note_off_c, 4, 60, 64
6, 545040, Note_on_c, 4, 55, 92
6, 545040, Note_on_c, 4, 43, 92
6, 545200, Note_off_c, 4, 43, 64
6, 545200, Note_off_c, 4, 55, 64
6, 545280, Note_on_c, 4, 60, 93
6, 545280, Note_on_c, 4, 48, 93
6, 545760, Note_off_c, 4, 48, 64
6, 545760, Note_off_c, 4, 60, 64
6, 546000, Note_on_c, 4, 60, 95
6, 546000, Note_on_c, 4, 48, 95
6, 546160, Note_off_c, 4, 48, 64
6, 546160, Note_off_c, 4, 60, 64
6, 546240, Note_on_c, 4, 60, 96
6, 546240, Note_on_c, 4, 48, 96
6, 546720, Note_off_c, 4, 48, 64
6, 546720, Note_off_c, 4, 60, 64
6, 546960, Note_on_c, 4, 60, 98
6, 546960, Note_on_c, 4, 48, 98
6, 547120, Note_off_c, 4, 48, 64
6, 547120, Note_off_c, 4, 60, 64
6, 547200, Note_on_c, 4, 60, 99
6, 547200, Note_on_c, 4, 48, 99
6, 547680, Note_off_c, 4, 48, 64
6, 547680, Note_off_c, 4, 60, 64
6, 547920, Note_on_c, 4, 60, 101
6, 547920, Note_on_c, 4, 48, 101
6, 548080, Note_off_c, 4, 48, 64
6, 548080, Note_off_c, 4, 60, 64
6, 548160, Note_on_c, 4, 60, 102
6, 548160, Note_on_c, 4, 48, 102
6, 548640, Note_off_c, 4, 48, 64
6, 548640, Note_off_c, 4, 60, 64
6, 548880, Note_on_c, 4, 60, 104
6, 548880, Note_on_c, 4, 48, 104
6, 549040, Note_off_c, 4, 48, 64
6, 549040, Note_off_c, 4, 60, 64
6, 549120, Note_on_c, 4, 60, 105
6, 549120, Note_on_c, 4, 48, 105
6, 549280, Note_off_c, 4, 48, 64
6, 549280, Note_off_c, 4, 60, 64
6, 549360, Note_on_c, 4, 60, 106
6, 549360, Note_on_c, 4, 48, 106
6, 549520, Note_off_c, 4, 48, 64
6, 549520, Note_off_c, 4, 60, 64
6, 549600, Note_on_c, 4, 60, 107
6, 549600, Note_on_c, 4, 48, 107
6, 549760, Note_off_c, 4, 48, 64
6, 549760, Note_off_c, 4, 60, 64
6, 549840, Note_on_c, 4, 60, 108
6, 549840, Note_on_c, 4, 48, 108
6, 550000, Note_off_c, 4, 48, 64
6, 550000, Note_off_c, 4, 60, 64
6, 550080, Note_on_c, 4, 60, 108
6, 550080, Note_on_c, 4, 48, 108
6, 550240, Note_off_c, 4, 48, 64
6, 550240, Note_off_c, 4, 60, 64
6, 550320, Note_on_c, 4, 60, 109
6, 550320, Note_on_c, 4, 48, 109
6, 550480, Note_off_c, 4, 48, 64
6, 550480, Note_off_c, 4, 60, 64
6, 550560, Note_on_c, 4, 60, 110
6, 550560, Note_on_c, 4, 48, 110
6, 550720, Note_off_c, 4, 48, 64
6, 550720, Note_off_c, 4, 60, 64
6, 550800, Note_on_c, 4, 60, 111
6, 550800, Note_on_c, 4, 48, 111
6, 550960, Note_off_c, 4, 48, 64
6, 550960, Note_off_c, 4, 60, 64
6, 551040, Note_on_c, 4, 60, 112
6, 551040, Note_on_c, 4, 48, 112
6, 551200, Note_off_c, 4, 48, 64
6, 551200, Note_off_c, 4, 60, 64
6, 575040, Note_on_c, 4, 67, 100
6, 575496, Note_off_c, 4, 67, 64
6, 575520, Note_on_c, 4, 65, 110
6, 575520, Note_on_c, 4, 69, 110
6, 575766, Note_off_c, 4, 69, 64
6, 575766, Note_off_c, 4, 65, 64
6, 578400, Note_on_c, 4, 60, 56
6, 578400, Note_on_c, 4, 67, 56
6, 578926, Note_off_c, 4, 67, 64
6, 578926, Note_off_c, 4, 60, 64
6, 580800, Note_on_c, 4, 48, 64
6, 580800, Note_on_c, 4, 60, 64
6, 581256, Note_off_c, 4, 60, 64
6, 581256, Note_off_c, 4, 48, 64
6, 581280, Note_on_c, 4, 41, 64
6, 581280, Note_on_c, 4, 53, 64
6, 582216, Note_off_c, 4, 53, 64
6, 582216, Note_off_c, 4, 41, 64
6, 582240, Note_on_c, 4, 41, 64
6, 582240, Note_on_c, 4, 53, 64
6, 583656, Note_off_c, 4, 53, 64
6, 583656, Note_off_c, 4, 41, 64
6, 583680, Note_on_c, 4, 41, 64
6, 583680, Note_on_c, 4, 53, 64
6, 585096, Note_off_c, 4, 53, 64
6, 585096, Note_off_c, 4, 41, 64
6, 585120, Note_on_c, 4, 41, 64
6, 585120, Note_on_c, 4, 53, 64
6, 586536, Note_off_c, 4, 53, 64
6, 586536, Note_off_c, 4, 41, 64
6, 586560, Note_on_c, 4, 41, 64
6, 586560, Note_on_c, 4, 53, 64
6, 587976, Note_off_c, 4, 53, 64
6, 587976, Note_off_c, 4, 41, 64
6, 588000, Note_on_c, 4, 41, 64
6, 588000, Note_on_c, 4, 53, 64
6, 589416, Note_off_c, 4, 53, 64
6, 589416, Note_off_c, 4, 41, 64
6, 589440, Note_on_c, 4, 41, 64
6, 589440, Note_on_c, 4, 53, 64
6, 590856, Note_off_c, 4, 53, 64
6, 590856, Note_off_c, 4, 41, 64
6, 590880, Note_on_c, 4, 41, 64
6, 590880, Note_on_c, 4, 53, 64
6, 592296, Note_off_c, 4, 53, 64
6, 592296, Note_off_c, 4, 41, 64
6, 592320, Note_on_c, 4, 41, 64
6, 592320, Note_on_c, 4, 53, 64
6, 593736, Note_off_c, 4, 53, 64
6, 593736, Note_off_c, 4, 41, 64
6, 593760, Note_on_c, 4, 41, 71
6, 593760, Note_on_c, 4, 53, 71
6, 595176, Note_off_c, 4, 53, 64
6, 595176, Note_off_c, 4, 41, 64
6, 595200, Note_on_c, 4, 41, 74
6, 595200, Note_on_c, 4, 53, 74
6, 596616, Note_off_c, 4, 53, 64
6, 596616, Note_off_c, 4, 41, 64
6, 596640, Note_on_c, 4, 41, 71
6, 596640, Note_on_c, 4, 53, 71
6, 598056, Note_off_c, 4, 53, 64
6, 598056, Note_off_c, 4, 41, 64
6, 598080, Note_on_c, 4, 60, 100
6, 598080, Note_on_c, 4, 48, 100
6, 598308, Note_off_c, 4, 48, 64
6, 598308, Note_off_c, 4, 60, 64
6, 598560, Note_on_c, 4, 65, 100
6, 598560, Note_on_c, 4, 53, 100
6, 598788, Note_off_c, 4, 53, 64
6, 598788, Note_off_c, 4, 65, 64
6, 599040, Note_on_c, 4, 65, 100
6, 599040, Note_on_c, 4, 53, 100
6, 599268, Note_off_c, 4, 53, 64
6, 599268, Note_off_c, 4, 65, 64
6, 599520, Note_on_c, 4, 65, 100
6, 599520, Note_on_c, 4, 53, 100
6, 599748, Note_off_c, 4, 53, 64
6, 599748, Note_off_c, 4, 65, 64
6, 600000, Note_on_c, 4, 65, 100
6, 600000, Note_on_c, 4, 53, 100
6, 600228, Note_off_c, 4, 53, 64
6, 600228, Note_off_c, 4, 65, 64
6, 600480, Note_on_c, 4, 65, 100
6, 600480, Note_on_c, 4, 53, 100
6, 600708, Note_off_c, 4, 53, 64
6, 600708, Note_off_c, 4, 65, 64
6, 600960, Note_on_c, 4, 65, 100
6, 600960, Note_on_c, 4, 53, 100
6, 601188, Note_off_c, 4, 53, 64
6, 601188, Note_off_c, 4, 65, 64
6, 601440, Note_on_c, 4, 65, 127
6, 601440, Note_on_c, 4, 53, 127
6, 601668, Note_off_c, 4, 53, 64
6, 601668, Note_off_c, 4, 65, 64
6, 601920, Note_on_c, 4, 65, 100
6, 602148, Note_off_c, 4, 65, 64
6, 602400, Note_on_c, 4, 67, 100
6, 602628, Note_off_c, 4, 67, 64
6, 602880, Note_on_c, 4, 69, 127
6, 602880, Note_on_c, 4, 57, 127
6, 603108, Note_off_c, 4, 57, 64
6, 603108, Note_off_c, 4, 69, 64
6, 604320, Note_on_c, 4, 69, 127
6, 604320, Note_on_c, 4, 57, 127
6, 604548, Note_off_c, 4, 57, 64
6, 604548, Note_off_c, 4, 69, 64
6, 605760, Note_on_c, 4, 69, 127
6, 605760, Note_on_c, 4, 57, 127
6, 605988, Note_off_c, 4, 57, 64
6, 605988, Note_off_c, 4, 69, 64
6, 607200, Note_on_c, 4, 69, 127
6, 607200, Note_on_c, 4, 57, 127
6, 608332, Note_off_c, 4, 57, 64
6, 608332, Note_off_c, 4, 69, 64
6, 608640, Note_on_c, 4, 67, 100
6, 609348, Note_off_c, 4, 67, 64
6, 609600, Note_on_c, 4, 60, 100
6, 609600, Note_on_c, 4, 48, 100
6, 609828, Note_off_c, 4, 48, 64
6, 609828, Note_off_c, 4, 60, 64
6, 610080, Note_on_c, 4, 60, 100
6, 610080, Note_on_c, 4, 48, 100
6, 610788, Note_off_c, 4, 48, 64
6, 610788, Note_off_c, 4, 60, 64
6, 611040, Note_on_c, 4, 60, 100
6, 611040, Note_on_c, 4, 48, 100
6, 611268, Note_off_c, 4, 48, 64
6, 611268, Note_off_c, 4, 60, 64
6, 611520, Note_on_c, 4, 60, 100
6, 611520, Note_on_c, 4, 48, 100
6, 612228, Note_off_c, 4, 48, 64
6, 612228, Note_off_c, 4, 60, 64
6, 612480, Note_on_c, 4, 60, 100
6, 612480, Note_on_c, 4, 48, 100
6, 612708, Note_off_c, 4, 48, 64
6, 612708, Note_off_c, 4, 60, 64
6, 612960, Note_on_c, 4, 65, 120
6, 613896, Note_off_c, 4, 65, 64
6, 614400, Note_on_c, 4, 65, 120
6, 614400, Note_on_c, 4, 67, 120
6, 615336, Note_off_c, 4, 67, 64
6, 615336, Note_off_c, 4, 65, 64
6, 615840, Note_on_c, 4, 65, 120
6, 615840, Note_on_c, 4, 69, 120
6, 616776, Note_off_c, 4, 69, 64
6, 616776, Note_off_c, 4, 65, 64
6, 617280, Note_on_c, 4, 67, 120
6, 617280, Note_on_c, 4, 60, 120
6, 618216, Note_off_c, 4, 60, 64
6, 618216, Note_off_c, 4, 67, 64
6, 618720, Note_on_c, 4, 69, 120
6, 618720, Note_on_c, 4, 65, 120
6, 619176, Note_off_c, 4, 65, 64
6, 619176, Note_off_c, 4, 69, 64
6, 621120, Note_on_c, 4, 60, 100
6, 621120, Note_on_c, 4, 48, 100
6, 621348, Note_off_c, 4, 48, 64
6, 621348, Note_off_c, 4, 60, 64
6, 621600, Note_on_c, 4, 60, 100
6, 621600, Note_on_c, 4, 48, 100
6, 622308, Note_off_c, 4, 48, 64
6, 622308, Note_off_c, 4, 60, 64
6, 622560, Note_on_c, 4, 60, 100
6, 622560, Note_on_c, 4, 48, 100
6, 622788, Note_off_c, 4, 48, 64
6, 622788, Note_off_c, 4, 60, 64
6, 623040, Note_on_c, 4, 60, 100
6, 623040, Note_on_c, 4, 48, 100
6, 623748, Note_off_c, 4, 48, 64
6, 623748, Note_off_c, 4, 60, 64
6, 624000, Note_on_c, 4, 67, 100
6, 624000, Note_on_c, 4, 60, 100
6, 624228, Note_off_c, 4, 60, 64
6, 624228, Note_off_c, 4, 67, 64
6, 624480, Note_on_c, 4, 65, 120
6, 624480, Note_on_c, 4, 53, 120
6, 625416, Note_off_c, 4, 53, 64
6, 625416, Note_off_c, 4, 65, 64
6, 625920, Note_on_c, 4, 65, 120
6, 625920, Note_on_c, 4, 53, 120
6, 626856, Note_off_c, 4, 53, 64
6, 626856, Note_off_c, 4, 65, 64
6, 627360, Note_on_c, 4, 65, 120
6, 627360, Note_on_c, 4, 53, 120
6, 628296, Note_off_c, 4, 53, 64
6, 628296, Note_off_c, 4, 65, 64
6, 628800, Note_on_c, 4, 48, 120
6, 628800, Note_on_c, 4, 60, 120
6, 629736, Note_off_c, 4, 60, 64
6, 629736, Note_off_c, 4, 48, 64
6, 630240, Note_on_c, 4, 65, 127
6, 630240, Note_on_c, 4, 53, 127
6, 630468, Note_off_c, 4, 53, 64
6, 630468, Note_off_c, 4, 65, 64
6, 630720, Note_on_c, 4, 65, 100
6, 630720, Note_on_c, 4, 69, 100
6, 630948, Note_off_c, 4, 69, 64
6, 630948, Note_off_c, 4, 65, 64
6, 631200, Note_on_c, 4, 69, 100
6, 631200, Note_on_c, 4, 65, 100
6, 631428, Note_off_c, 4, 65, 64
6, 631428, Note_off_c, 4, 69, 64
6, 631680, Note_on_c, 4, 69, 127
6, 631680, Note_on_c, 4, 72, 127
6, 631908, Note_off_c, 4, 72, 64
6, 631908, Note_off_c, 4, 69, 64
6, 632160, Note_on_c, 4, 69, 100
6, 632160, Note_on_c, 4, 65, 100
6, 632388, Note_off_c, 4, 65, 64
6, 632388, Note_off_c, 4, 69, 64
6, 632640, Note_on_c, 4, 65, 100
6, 632640, Note_on_c, 4, 69, 100
6, 632868, Note_off_c, 4, 69, 64
6, 632868, Note_off_c, 4, 65, 64
6, 633120, Note_on_c, 4, 69, 127
6, 633120, Note_on_c, 4, 72, 127
6, 633348, Note_off_c, 4, 72, 64
6, 633348, Note_off_c, 4, 69, 64
6, 633600, Note_on_c, 4, 69, 100
6, 633600, Note_on_c, 4, 65, 100
6, 633828, Note_off_c, 4, 65, 64
6, 633828, Note_off_c, 4, 69, 64
6, 634080, Note_on_c, 4, 65, 100
6, 634080, Note_on_c, 4, 69, 100
6, 634308, Note_off_c, 4, 69, 64
6, 634308, Note_off_c, 4, 65, 64
6, 634560, Note_on_c, 4, 70, 127
6, 634560, Note_on_c, 4, 67, 127
6, 634788, Note_off_c, 4, 67, 64
6, 634788, Note_off_c, 4, 70, 64
6, 635040, Note_on_c, 4, 67, 100
6, 635040, Note_on_c, 4, 60, 100
6, 635268, Note_off_c, 4, 60, 64
6, 635268, Note_off_c, 4, 67, 64
6, 635520, Note_on_c, 4, 67, 100
6, 635520, Note_on_c, 4, 60, 100
6, 635748, Note_off_c, 4, 60, 64
6, 635748, Note_off_c, 4, 67, 64
6, 636000, Note_on_c, 4, 69, 127
6, 636000, Note_on_c, 4, 72, 127
6, 636228, Note_off_c, 4, 72, 64
6, 636228, Note_off_c, 4, 69, 64
6, 636480, Note_on_c, 4, 69, 100
6, 636480, Note_on_c, 4, 65, 100
6, 636708, Note_off_c, 4, 65, 64
6, 636708, Note_off_c, 4, 69, 64
6, 636960, Note_on_c, 4, 65, 100
6, 636960, Note_on_c, 4, 69, 100
6, 637188, Note_off_c, 4, 69, 64
6, 637188, Note_off_c, 4, 65, 64
6, 637440, Note_on_c, 4, 69, 127
6, 637440, Note_on_c, 4, 72, 127
6, 637668, Note_off_c, 4, 72, 64
6, 637668, Note_off_c, 4, 69, 64
6, 637920, Note_on_c, 4, 69, 100
6, 637920, Note_on_c, 4, 65, 100
6, 638148, Note_off_c, 4, 65, 64
6, 638148, Note_off_c, 4, 69, 64
6, 638400, Note_on_c, 4, 65, 100
6, 638400, Note_on_c, 4, 69, 100
6, 638628, Note_off_c, 4, 69, 64
6, 638628, Note_off_c, 4, 65, 64
6, 638880, Note_on_c, 4, 69, 127
6, 638880, Note_on_c, 4, 72, 127
6, 639108, Note_off_c, 4, 72, 64
6, 639108, Note_off_c, 4, 69, 64
6, 639360, Note_on_c, 4, 69, 100
6, 639360, Note_on_c, 4, 65, 100
6, 639588, Note_off_c, 4, 65, 64
6, 639588, Note_off_c, 4, 69, 64
6, 639840, Note_on_c, 4, 65, 100
6, 639840, Note_on_c, 4, 69, 100
6, 640068, Note_off_c, 4, 69, 64
6, 640068, Note_off_c, 4, 65, 64
6, 640320, Note_on_c, 4, 70, 114
6, 640320, Note_on_c, 4, 67, 114
6, 640548, Note_off_c, 4, 67, 64
6, 640548, Note_off_c, 4, 70, 64
6, 640800, Note_on_c, 4, 67, 90
6, 640800, Note_on_c, 4, 60, 90
6, 641028, Note_off_c, 4, 60, 64
6, 641028, Note_off_c, 4, 67, 64
6, 641280, Note_on_c, 4, 67, 90
6, 641280, Note_on_c, 4, 60, 90
6, 641554, Note_off_c, 4, 60, 64
6, 641554, Note_off_c, 4, 67, 64
6, 641554, End_track
7, 0, Start_track
7, 0, Title_t, "Trumpet"
7, 0, MIDI_port, 0
7, 0, Channel_prefix, 5
7, 0, Control_c, 5, 7, 106
7, 0, Control_c, 5, 10, 75
7, 0, Control_c, 5, 0, 0
7, 0, Control_c, 5, 32, 0
7, 0, Control_c, 5, 91, 58
7, 0, Program_c, 5, 56
7, 252960, Note_on_c, 5, 72, 64
7, 252960, Note_on_c, 5, 60, 64
7, 253810, Note_off_c, 5, 60, 64
7, 253830, Note_off_c, 5, 72, 64
7, 253920, Note_on_c, 5, 72, 64
7, 253920, Note_on_c, 5, 60, 64
7, 254770, Note_off_c, 5, 72, 64
7, 254780, Note_off_c, 5, 60, 64
7, 254880, Note_on_c, 5, 72, 64
7, 254880, Note_on_c, 5, 60, 64
7, 255720, Note_off_c, 5, 72, 64
7, 255734, Note_off_c, 5, 60, 64
7, 255840, Note_on_c, 5, 72, 64
7, 255840, Note_on_c, 5, 60, 64
7, 256160, Note_off_c, 5, 60, 64
7, 256160, Note_off_c, 5, 72, 64
7, 256320, Note_on_c, 5, 72, 64
7, 256320, Note_on_c, 5, 60, 64
7, 256640, Note_off_c, 5, 60, 64
7, 256640, Note_off_c, 5, 72, 64
7, 256800, Note_on_c, 5, 72, 64
7, 256800, Note_on_c, 5, 60, 64
7, 257650, Note_off_c, 5, 60, 64
7, 257670, Note_off_c, 5, 72, 64
7, 257760, Note_on_c, 5, 72, 64
7, 257760, Note_on_c, 5, 60, 64
7, 258610, Note_off_c, 5, 72, 64
7, 258620, Note_off_c, 5, 60, 64
7, 258720, Note_on_c, 5, 72, 64
7, 258720, Note_on_c, 5, 60, 64
7, 259560, Note_off_c, 5, 72, 64
7, 259574, Note_off_c, 5, 60, 64
7, 259680, Note_on_c, 5, 72, 64
7, 259680, Note_on_c, 5, 60, 64
7, 260000, Note_off_c, 5, 60, 64
7, 260000, Note_off_c, 5, 72, 64
7, 260160, Note_on_c, 5, 72, 64
7, 260160, Note_on_c, 5, 60, 64
7, 260480, Note_off_c, 5, 60, 64
7, 260480, Note_off_c, 5, 72, 64
7, 260640, Note_on_c, 5, 72, 88
7, 260640, Note_on_c, 5, 60, 88
7, 260960, Note_off_c, 5, 60, 64
7, 260960, Note_off_c, 5, 72, 64
7, 261120, Note_on_c, 5, 67, 88
7, 261120, Note_on_c, 5, 55, 88
7, 261440, Note_off_c, 5, 55, 64
7, 261440, Note_off_c, 5, 67, 64
7, 261600, Note_on_c, 5, 72, 89
7, 261600, Note_on_c, 5, 60, 89
7, 262080, Note_off_c, 5, 60, 64
7, 262080, Note_off_c, 5, 72, 64
7, 262320, Note_on_c, 5, 72, 90
7, 262320, Note_on_c, 5, 60, 90
7, 262480, Note_off_c, 5, 60, 64
7, 262480, Note_off_c, 5, 72, 64
7, 262560, Note_on_c, 5, 72, 90
7, 262560, Note_on_c, 5, 60, 90
7, 262720, Note_off_c, 5, 60, 64
7, 262720, Note_off_c, 5, 72, 64
7, 263040, Note_on_c, 5, 72, 90
7, 263040, Note_on_c, 5, 60, 90
7, 263200, Note_off_c, 5, 60, 64
7, 263200, Note_off_c, 5, 72, 64
7, 263520, Note_on_c, 5, 72, 91
7, 263520, Note_on_c, 5, 60, 91
7, 263680, Note_off_c, 5, 60, 64
7, 263680, Note_off_c, 5, 72, 64
7, 264000, Note_on_c, 5, 67, 92
7, 264000, Note_on_c, 5, 55, 92
7, 264160, Note_off_c, 5, 55, 64
7, 264160, Note_off_c, 5, 67, 64
7, 264480, Note_on_c, 5, 72, 92
7, 264480, Note_on_c, 5, 60, 92
7, 264640, Note_off_c, 5, 60, 64
7, 264640, Note_off_c, 5, 72, 64
7, 264720, Note_on_c, 5, 72, 92
7, 264720, Note_on_c, 5, 60, 92
7, 264880, Note_off_c, 5, 60, 64
7, 264880, Note_off_c, 5, 72, 64
7, 264960, Note_on_c, 5, 67, 93
7, 264960, Note_on_c, 5, 55, 93
7, 265120, Note_off_c, 5, 55, 64
7, 265120, Note_off_c, 5, 67, 64
7, 265200, Note_on_c, 5, 67, 93
7, 265200, Note_on_c, 5, 55, 93
7, 265360, Note_off_c, 5, 55, 64
7, 265360, Note_off_c, 5, 67, 64
7, 265440, Note_on_c, 5, 72, 93
7, 265440, Note_on_c, 5, 60, 93
7, 265600, Note_off_c, 5, 60, 64
7, 265600, Note_off_c, 5, 72, 64
7, 265680, Note_on_c, 5, 72, 94
7, 265680, Note_on_c, 5, 60, 94
7, 265840, Note_off_c, 5, 60, 64
7, 265840, Note_off_c, 5, 72, 64
7, 266160, Note_on_c, 5, 72, 94
7, 266160, Note_on_c, 5, 60, 94
7, 266320, Note_off_c, 5, 60, 64
7, 266320, Note_off_c, 5, 72, 64
7, 266640, Note_on_c, 5, 72, 95
7, 266640, Note_on_c, 5, 60, 95
7, 266800, Note_off_c, 5, 60, 64
7, 266800, Note_off_c, 5, 72, 64
7, 267120, Note_on_c, 5, 72, 95
7, 267120, Note_on_c, 5, 60, 95
7, 267280, Note_off_c, 5, 60, 64
7, 267280, Note_off_c, 5, 72, 64
7, 267600, Note_on_c, 5, 72, 90
7, 267600, Note_on_c, 5, 60, 90
7, 267760, Note_off_c, 5, 60, 64
7, 267760, Note_off_c, 5, 72, 64
7, 268080, Note_on_c, 5, 67, 92
7, 268080, Note_on_c, 5, 55, 92
7, 268240, Note_off_c, 5, 55, 64
7, 268240, Note_off_c, 5, 67, 64
7, 268320, Note_on_c, 5, 72, 93
7, 268320, Note_on_c, 5, 60, 93
7, 268800, Note_off_c, 5, 60, 64
7, 268800, Note_off_c, 5, 72, 64
7, 269040, Note_on_c, 5, 72, 95
7, 269040, Note_on_c, 5, 60, 95
7, 269200, Note_off_c, 5, 60, 64
7, 269200, Note_off_c, 5, 72, 64
7, 269280, Note_on_c, 5, 72, 96
7, 269280, Note_on_c, 5, 60, 96
7, 269760, Note_off_c, 5, 60, 64
7, 269760, Note_off_c, 5, 72, 64
7, 270000, Note_on_c, 5, 72, 98
7, 270000, Note_on_c, 5, 60, 98
7, 270160, Note_off_c, 5, 60, 64
7, 270160, Note_off_c, 5, 72, 64
7, 270240, Note_on_c, 5, 72, 99
7, 270240, Note_on_c, 5, 60, 99
7, 270720, Note_off_c, 5, 60, 64
7, 270720, Note_off_c, 5, 72, 64
7, 270960, Note_on_c, 5, 72, 101
7, 270960, Note_on_c, 5, 60, 101
7, 271120, Note_off_c, 5, 60, 64
7, 271120, Note_off_c, 5, 72, 64
7, 271200, Note_on_c, 5, 72, 102
7, 271200, Note_on_c, 5, 60, 102
7, 271680, Note_off_c, 5, 60, 64
7, 271680, Note_off_c, 5, 72, 64
7, 271920, Note_on_c, 5, 72, 104
7, 271920, Note_on_c, 5, 60, 104
7, 272080, Note_off_c, 5, 60, 64
7, 272080, Note_off_c, 5, 72, 64
7, 272160, Note_on_c, 5, 72, 105
7, 272160, Note_on_c, 5, 60, 105
7, 272320, Note_off_c, 5, 60, 64
7, 272320, Note_off_c, 5, 72, 64
7, 272400, Note_on_c, 5, 72, 106
7, 272400, Note_on_c, 5, 60, 106
7, 272560, Note_off_c, 5, 60, 64
7, 272560, Note_off_c, 5, 72, 64
7, 272640, Note_on_c, 5, 72, 107
7, 272640, Note_on_c, 5, 60, 107
7, 272800, Note_off_c, 5, 60, 64
7, 272800, Note_off_c, 5, 72, 64
7, 272880, Note_on_c, 5, 72, 108
7, 272880, Note_on_c, 5, 60, 108
7, 273040, Note_off_c, 5, 60, 64
7, 273040, Note_off_c, 5, 72, 64
7, 273120, Note_on_c, 5, 72, 108
7, 273120, Note_on_c, 5, 60, 108
7, 273280, Note_off_c, 5, 60, 64
7, 273280, Note_off_c, 5, 72, 64
7, 273360, Note_on_c, 5, 76, 109
7, 273360, Note_on_c, 5, 60, 109
7, 273520, Note_off_c, 5, 60, 64
7, 273520, Note_off_c, 5, 76, 64
7, 273600, Note_on_c, 5, 76, 110
7, 273600, Note_on_c, 5, 60, 110
7, 273760, Note_off_c, 5, 60, 64
7, 273760, Note_off_c, 5, 76, 64
7, 273840, Note_on_c, 5, 76, 111
7, 273840, Note_on_c, 5, 60, 111
7, 274000, Note_off_c, 5, 60, 64
7, 274000, Note_off_c, 5, 76, 64
7, 274080, Note_on_c, 5, 60, 112
7, 274080, Note_on_c, 5, 76, 112
7, 274240, Note_off_c, 5, 60, 64
7, 275001, Note_off_c, 5, 76, 64
7, 275040, Note_on_c, 5, 72, 71
7, 275920, Note_off_c, 5, 72, 64
7, 276960, Control_c, 5, 91, 58
7, 276960, Control_c, 5, 10, 75
7, 276960, Control_c, 5, 7, 106
7, 276960, Control_c, 5, 0, 0
7, 276960, Control_c, 5, 32, 0
7, 276960, Program_c, 5, 56
7, 276960, Control_c, 5, 91, 58
7, 276960, Control_c, 5, 10, 75
7, 276960, Control_c, 5, 7, 106
7, 276960, Control_c, 5, 0, 0
7, 276960, Control_c, 5, 32, 0
7, 276960, Program_c, 5, 56
7, 529920, Note_on_c, 5, 72, 64
7, 529920, Note_on_c, 5, 60, 64
7, 530770, Note_off_c, 5, 60, 64
7, 530790, Note_off_c, 5, 72, 64
7, 530880, Note_on_c, 5, 72, 64
7, 530880, Note_on_c, 5, 60, 64
7, 531730, Note_off_c, 5, 72, 64
7, 531740, Note_off_c, 5, 60, 64
7, 531840, Note_on_c, 5, 72, 64
7, 531840, Note_on_c, 5, 60, 64
7, 532680, Note_off_c, 5, 72, 64
7, 532694, Note_off_c, 5, 60, 64
7, 532800, Note_on_c, 5, 72, 64
7, 532800, Note_on_c, 5, 60, 64
7, 533120, Note_off_c, 5, 60, 64
7, 533120, Note_off_c, 5, 72, 64
7, 533280, Note_on_c, 5, 72, 64
7, 533280, Note_on_c, 5, 60, 64
7, 533600, Note_off_c, 5, 60, 64
7, 533600, Note_off_c, 5, 72, 64
7, 533760, Note_on_c, 5, 72, 64
7, 533760, Note_on_c, 5, 60, 64
7, 534610, Note_off_c, 5, 60, 64
7, 534630, Note_off_c, 5, 72, 64
7, 534720, Note_on_c, 5, 72, 64
7, 534720, Note_on_c, 5, 60, 64
7, 535570, Note_off_c, 5, 72, 64
7, 535580, Note_off_c, 5, 60, 64
7, 535680, Note_on_c, 5, 72, 64
7, 535680, Note_on_c, 5, 60, 64
7, 536520, Note_off_c, 5, 72, 64
7, 536534, Note_off_c, 5, 60, 64
7, 536640, Note_on_c, 5, 72, 64
7, 536640, Note_on_c, 5, 60, 64
7, 536960, Note_off_c, 5, 60, 64
7, 536960, Note_off_c, 5, 72, 64
7, 537120, Note_on_c, 5, 72, 64
7, 537120, Note_on_c, 5, 60, 64
7, 537440, Note_off_c, 5, 60, 64
7, 537440, Note_off_c, 5, 72, 64
7, 537600, Note_on_c, 5, 72, 88
7, 537600, Note_on_c, 5, 60, 88
7, 537920, Note_off_c, 5, 60, 64
7, 537920, Note_off_c, 5, 72, 64
7, 538080, Note_on_c, 5, 67, 88
7, 538080, Note_on_c, 5, 55, 88
7, 538400, Note_off_c, 5, 55, 64
7, 538400, Note_off_c, 5, 67, 64
7, 538560, Note_on_c, 5, 72, 89
7, 538560, Note_on_c, 5, 60, 89
7, 539040, Note_off_c, 5, 60, 64
7, 539040, Note_off_c, 5, 72, 64
7, 539280, Note_on_c, 5, 72, 90
7, 539280, Note_on_c, 5, 60, 90
7, 539440, Note_off_c, 5, 60, 64
7, 539440, Note_off_c, 5, 72, 64
7, 539520, Note_on_c, 5, 72, 90
7, 539520, Note_on_c, 5, 60, 90
7, 539680, Note_off_c, 5, 60, 64
7, 539680, Note_off_c, 5, 72, 64
7, 540000, Note_on_c, 5, 72, 90
7, 540000, Note_on_c, 5, 60, 90
7, 540160, Note_off_c, 5, 60, 64
7, 540160, Note_off_c, 5, 72, 64
7, 540480, Note_on_c, 5, 72, 91
7, 540480, Note_on_c, 5, 60, 91
7, 540640, Note_off_c, 5, 60, 64
7, 540640, Note_off_c, 5, 72, 64
7, 540960, Note_on_c, 5, 67, 92
7, 540960, Note_on_c, 5, 55, 92
7, 541120, Note_off_c, 5, 55, 64
7, 541120, Note_off_c, 5, 67, 64
7, 541440, Note_on_c, 5, 72, 92
7, 541440, Note_on_c, 5, 60, 92
7, 541600, Note_off_c, 5, 60, 64
7, 541600, Note_off_c, 5, 72, 64
7, 541680, Note_on_c, 5, 72, 92
7, 541680, Note_on_c, 5, 60, 92
7, 541840, Note_off_c, 5, 60, 64
7, 541840, Note_off_c, 5, 72, 64
7, 541920, Note_on_c, 5, 67, 93
7, 541920, Note_on_c, 5, 55, 93
7, 542080, Note_off_c, 5, 55, 64
7, 542080, Note_off_c, 5, 67, 64
7, 542160, Note_on_c, 5, 67, 93
7, 542160, Note_on_c, 5, 55, 93
7, 542320, Note_off_c, 5, 55, 64
7, 542320, Note_off_c, 5, 67, 64
7, 542400, Note_on_c, 5, 72, 93
7, 542400, Note_on_c, 5, 60, 93
7, 542560, Note_off_c, 5, 60, 64
7, 542560, Note_off_c, 5, 72, 64
7, 542640, Note_on_c, 5, 72, 94
7, 542640, Note_on_c, 5, 60, 94
7, 542800, Note_off_c, 5, 60, 64
7, 542800, Note_off_c, 5, 72, 64
7, 543120, Note_on_c, 5, 72, 94
7, 543120, Note_on_c, 5, 60, 94
7, 543280, Note_off_c, 5, 60, 64
7, 543280, Note_off_c, 5, 72, 64
7, 543600, Note_on_c, 5, 72, 95
7, 543600, Note_on_c, 5, 60, 95
7, 543760, Note_off_c, 5, 60, 64
7, 543760, Note_off_c, 5, 72, 64
7, 544080, Note_on_c, 5, 72, 95
7, 544080, Note_on_c, 5, 60, 95
7, 544240, Note_off_c, 5, 60, 64
7, 544240, Note_off_c, 5, 72, 64
7, 544560, Note_on_c, 5, 72, 90
7, 544560, Note_on_c, 5, 60, 90
7, 544720, Note_off_c, 5, 60, 64
7, 544720, Note_off_c, 5, 72, 64
7, 545040, Note_on_c, 5, 67, 92
7, 545040, Note_on_c, 5, 55, 92
7, 545200, Note_off_c, 5, 55, 64
7, 545200, Note_off_c, 5, 67, 64
7, 545280, Note_on_c, 5, 72, 93
7, 545280, Note_on_c, 5, 60, 93
7, 545760, Note_off_c, 5, 60, 64
7, 545760, Note_off_c, 5, 72, 64
7, 546000, Note_on_c, 5, 72, 95
7, 546000, Note_on_c, 5, 60, 95
7, 546160, Note_off_c, 5, 60, 64
7, 546160, Note_off_c, 5, 72, 64
7, 546240, Note_on_c, 5, 72, 96
7, 546240, Note_on_c, 5, 60, 96
7, 546720, Note_off_c, 5, 60, 64
7, 546720, Note_off_c, 5, 72, 64
7, 546960, Note_on_c, 5, 72, 98
7, 546960, Note_on_c, 5, 60, 98
7, 547120, Note_off_c, 5, 60, 64
7, 547120, Note_off_c, 5, 72, 64
7, 547200, Note_on_c, 5, 72, 99
7, 547200, Note_on_c, 5, 60, 99
7, 547680, Note_off_c, 5, 60, 64
7, 547680, Note_off_c, 5, 72, 64
7, 547920, Note_on_c, 5, 72, 101
7, 547920, Note_on_c, 5, 60, 101
7, 548080, Note_off_c, 5, 60, 64
7, 548080, Note_off_c, 5, 72, 64
7, 548160, Note_on_c, 5, 72, 102
7, 548160, Note_on_c, 5, 60, 102
7, 548640, Note_off_c, 5, 60, 64
7, 548640, Note_off_c, 5, 72, 64
7, 548880, Note_on_c, 5, 72, 104
7, 548880, Note_on_c, 5, 60, 104
7, 549040, Note_off_c, 5, 60, 64
7, 549040, Note_off_c, 5, 72, 64
7, 549120, Note_on_c, 5, 72, 105
7, 549120, Note_on_c, 5, 60, 105
7, 549280, Note_off_c, 5, 60, 64
7, 549280, Note_off_c, 5, 72, 64
7, 549360, Note_on_c, 5, 72, 106
7, 549360, Note_on_c, 5, 60, 106
7, 549520, Note_off_c, 5, 60, 64
7, 549520, Note_off_c, 5, 72, 64
7, 549600, Note_on_c, 5, 72, 107
7, 549600, Note_on_c, 5, 60, 107
7, 549760, Note_off_c, 5, 60, 64
7, 549760, Note_off_c, 5, 72, 64
7, 549840, Note_on_c, 5, 72, 108
7, 549840, Note_on_c, 5, 60, 108
7, 550000, Note_off_c, 5, 60, 64
7, 550000, Note_off_c, 5, 72, 64
7, 550080, Note_on_c, 5, 72, 108
7, 550080, Note_on_c, 5, 60, 108
7, 550240, Note_off_c, 5, 60, 64
7, 550240, Note_off_c, 5, 72, 64
7, 550320, Note_on_c, 5, 76, 109
7, 550320, Note_on_c, 5, 60, 109
7, 550480, Note_off_c, 5, 60, 64
7, 550480, Note_off_c, 5, 76, 64
7, 550560, Note_on_c, 5, 76, 110
7, 550560, Note_on_c, 5, 60, 110
7, 550720, Note_off_c, 5, 60, 64
7, 550720, Note_off_c, 5, 76, 64
7, 550800, Note_on_c, 5, 76, 111
7, 550800, Note_on_c, 5, 60, 111
7, 550960, Note_off_c, 5, 60, 64
7, 550960, Note_off_c, 5, 76, 64
7, 551040, Note_on_c, 5, 60, 112
7, 551040, Note_on_c, 5, 76, 112
7, 551200, Note_off_c, 5, 60, 64
7, 551974, Note_off_c, 5, 76, 64
7, 552000, Note_on_c, 5, 72, 71
7, 552880, Note_off_c, 5, 72, 64
7, 552880, End_track
8, 0, Start_track
8, 0, Title_t, "Violin I"
8, 0, MIDI_port, 0
8, 0, Channel_prefix, 6
8, 0, Control_c, 6, 7, 102
8, 0, Control_c, 6, 10, 0
8, 0, Control_c, 6, 0, 0
8, 0, Control_c, 6, 32, 0
8, 0, Control_c, 6, 91, 52
8, 0, Control_c, 6, 93, 14
8, 0, Program_c, 6, 48
8, 960, Note_on_c, 6, 72, 32
8, 1060, Note_off_c, 6, 72, 64
8, 1440, Note_on_c, 6, 77, 32
8, 1534, Note_off_c, 6, 77, 64
8, 1920, Note_on_c, 6, 72, 32
8, 2030, Note_off_c, 6, 72, 64
8, 2400, Note_on_c, 6, 74, 32
8, 2500, Note_off_c, 6, 74, 64
8, 2880, Note_on_c, 6, 72, 32
8, 2990, Note_off_c, 6, 72, 64
8, 3360, Note_on_c, 6, 69, 32
8, 3464, Note_off_c, 6, 69, 64
8, 3840, Note_on_c, 6, 70, 32
8, 3944, Note_off_c, 6, 70, 64
8, 4320, Note_on_c, 6, 69, 32
8, 4424, Note_off_c, 6, 69, 64
8, 4800, Note_on_c, 6, 65, 32
8, 4900, Note_off_c, 6, 65, 64
8, 5280, Note_on_c, 6, 67, 32
8, 5384, Note_off_c, 6, 67, 64
8, 5760, Note_on_c, 6, 69, 32
8, 5864, Note_off_c, 6, 69, 64
8, 6240, Note_on_c, 6, 65, 32
8, 6350, Note_off_c, 6, 65, 64
8, 6720, Note_on_c, 6, 67, 32
8, 6820, Note_off_c, 6, 67, 64
8, 7200, Note_on_c, 6, 65, 32
8, 7220, Note_off_c, 6, 65, 64
8, 7260, Note_on_c, 6, 69, 32
8, 7414, Note_off_c, 6, 69, 64
8, 7680, Note_on_c, 6, 65, 32
8, 7834, Note_off_c, 6, 65, 64
8, 8160, Note_on_c, 6, 67, 32
8, 8314, Note_off_c, 6, 67, 64
8, 8640, Note_on_c, 6, 62, 32
8, 8660, Note_off_c, 6, 62, 64
8, 8700, Note_on_c, 6, 65, 32
8, 8854, Note_off_c, 6, 65, 64
8, 9120, Note_on_c, 6, 62, 32
8, 9274, Note_off_c, 6, 62, 64
8, 9600, Note_on_c, 6, 64, 32
8, 9754, Note_off_c, 6, 64, 64
8, 10080, Note_on_c, 6, 57, 32
8, 10100, Note_off_c, 6, 57, 64
8, 10140, Note_on_c, 6, 62, 32
8, 10294, Note_off_c, 6, 62, 64
8, 10560, Note_on_c, 6, 57, 32
8, 10714, Note_off_c, 6, 57, 64
8, 11040, Note_on_c, 6, 57, 32
8, 11194, Note_off_c, 6, 57, 64
8, 11520, Note_on_c, 6, 57, 32
8, 11660, Note_off_c, 6, 57, 64
8, 12480, Note_on_c, 6, 69, 32
8, 12800, Note_off_c, 6, 69, 64
8, 12960, Note_on_c, 6, 74, 32
8, 13794, Note_off_c, 6, 74, 64
8, 13920, Note_on_c, 6, 78, 36
8, 14240, Note_off_c, 6, 78, 64
8, 14400, Note_on_c, 6, 81, 38
8, 14720, Note_off_c, 6, 81, 64
8, 14880, Note_on_c, 6, 78, 40
8, 15244, Note_off_c, 6, 78, 64
8, 15360, Note_on_c, 6, 78, 42
8, 15834, Note_off_c, 6, 78, 64
8, 15840, Note_on_c, 6, 81, 44
8, 16280, Note_off_c, 6, 81, 64
8, 16320, Note_on_c, 6, 85, 46
8, 16640, Note_off_c, 6, 85, 64
8, 16800, Note_on_c, 6, 86, 48
8, 17040, Note_off_c, 6, 86, 64
8, 17040, Note_on_c, 6, 83, 48
8, 17274, Note_off_c, 6, 83, 64
8, 17280, Note_on_c, 6, 81, 48
8, 17920, Note_off_c, 6, 81, 64
8, 18240, Note_on_c, 6, 85, 48
8, 18694, Note_off_c, 6, 85, 64
8, 18720, Note_on_c, 6, 86, 48
8, 19180, Note_off_c, 6, 86, 64
8, 19200, Note_on_c, 6, 81, 48
8, 19644, Note_off_c, 6, 81, 64
8, 19680, Note_on_c, 6, 83, 48
8, 20114, Note_off_c, 6, 83, 64
8, 20160, Note_on_c, 6, 81, 48
8, 20594, Note_off_c, 6, 81, 64
8, 20640, Note_on_c, 6, 78, 48
8, 21060, Note_off_c, 6, 78, 64
8, 21120, Note_on_c, 6, 79, 48
8, 21534, Note_off_c, 6, 79, 64
8, 21600, Note_on_c, 6, 78, 48
8, 22020, Note_off_c, 6, 78, 64
8, 22080, Note_on_c, 6, 74, 47
8, 22434, Note_off_c, 6, 74, 64
8, 22560, Note_on_c, 6, 78, 46
8, 22760, Note_off_c, 6, 78, 64
8, 22800, Note_on_c, 6, 76, 45
8, 23014, Note_off_c, 6, 76, 64
8, 23040, Note_on_c, 6, 74, 44
8, 23200, Note_off_c, 6, 74, 64
8, 24000, Note_on_c, 6, 72, 32
8, 24100, Note_off_c, 6, 72, 64
8, 24480, Note_on_c, 6, 77, 32
8, 24574, Note_off_c, 6, 77, 64
8, 24960, Note_on_c, 6, 72, 32
8, 25070, Note_off_c, 6, 72, 64
8, 25440, Note_on_c, 6, 74, 32
8, 25540, Note_off_c, 6, 74, 64
8, 25920, Note_on_c, 6, 72, 32
8, 26030, Note_off_c, 6, 72, 64
8, 26400, Note_on_c, 6, 69, 32
8, 26504, Note_off_c, 6, 69, 64
8, 26880, Note_on_c, 6, 70, 32
8, 26984, Note_off_c, 6, 70, 64
8, 27360, Note_on_c, 6, 69, 32
8, 27464, Note_off_c, 6, 69, 64
8, 27840, Note_on_c, 6, 65, 32
8, 27940, Note_off_c, 6, 65, 64
8, 28320, Note_on_c, 6, 67, 32
8, 28424, Note_off_c, 6, 67, 64
8, 28800, Note_on_c, 6, 69, 32
8, 28904, Note_off_c, 6, 69, 64
8, 29280, Note_on_c, 6, 65, 32
8, 29390, Note_off_c, 6, 65, 64
8, 29760, Note_on_c, 6, 67, 32
8, 29860, Note_off_c, 6, 67, 64
8, 30240, Note_on_c, 6, 65, 32
8, 30260, Note_off_c, 6, 65, 64
8, 30300, Note_on_c, 6, 69, 32
8, 30454, Note_off_c, 6, 69, 64
8, 30720, Note_on_c, 6, 65, 32
8, 30874, Note_off_c, 6, 65, 64
8, 31200, Note_on_c, 6, 67, 32
8, 31354, Note_off_c, 6, 67, 64
8, 31680, Note_on_c, 6, 62, 32
8, 31700, Note_off_c, 6, 62, 64
8, 31740, Note_on_c, 6, 65, 32
8, 31894, Note_off_c, 6, 65, 64
8, 32160, Note_on_c, 6, 62, 32
8, 32314, Note_off_c, 6, 62, 64
8, 32640, Note_on_c, 6, 64, 32
8, 32794, Note_off_c, 6, 64, 64
8, 33120, Note_on_c, 6, 57, 32
8, 33140, Note_off_c, 6, 57, 64
8, 33180, Note_on_c, 6, 62, 32
8, 33334, Note_off_c, 6, 62, 64
8, 33600, Note_on_c, 6, 57, 32
8, 33754, Note_off_c, 6, 57, 64
8, 34080, Note_on_c, 6, 57, 32
8, 34234, Note_off_c, 6, 57, 64
8, 34560, Note_on_c, 6, 57, 32
8, 34700, Note_off_c, 6, 57, 64
8, 35520, Note_on_c, 6, 69, 32
8, 35840, Note_off_c, 6, 69, 64
8, 36000, Note_on_c, 6, 74, 32
8, 36834, Note_off_c, 6, 74, 64
8, 36960, Note_on_c, 6, 78, 36
8, 37280, Note_off_c, 6, 78, 64
8, 37440, Note_on_c, 6, 81, 38
8, 37760, Note_off_c, 6, 81, 64
8, 37920, Note_on_c, 6, 78, 40
8, 38284, Note_off_c, 6, 78, 64
8, 38400, Note_on_c, 6, 78, 42
8, 38874, Note_off_c, 6, 78, 64
8, 38880, Note_on_c, 6, 81, 44
8, 39320, Note_off_c, 6, 81, 64
8, 39360, Note_on_c, 6, 85, 46
8, 39680, Note_off_c, 6, 85, 64
8, 39840, Note_on_c, 6, 86, 48
8, 40080, Note_off_c, 6, 86, 64
8, 40080, Note_on_c, 6, 83, 48
8, 40314, Note_off_c, 6, 83, 64
8, 40320, Note_on_c, 6, 81, 48
8, 40960, Note_off_c, 6, 81, 64
8, 41280, Note_on_c, 6, 85, 48
8, 41734, Note_off_c, 6, 85, 64
8, 41760, Note_on_c, 6, 86, 48
8, 42220, Note_off_c, 6, 86, 64
8, 42240, Note_on_c, 6, 81, 48
8, 42684, Note_off_c, 6, 81, 64
8, 42720, Note_on_c, 6, 83, 48
8, 43154, Note_off_c, 6, 83, 64
8, 43200, Note_on_c, 6, 81, 48
8, 43634, Note_off_c, 6, 81, 64
8, 43680, Note_on_c, 6, 78, 48
8, 44100, Note_off_c, 6, 78, 64
8, 44160, Note_on_c, 6, 79, 48
8, 44574, Note_off_c, 6, 79, 64
8, 44640, Note_on_c, 6, 78, 48
8, 45060, Note_off_c, 6, 78, 64
8, 45120, Note_on_c, 6, 74, 47
8, 45474, Note_off_c, 6, 74, 64
8, 45600, Note_on_c, 6, 78, 46
8, 45800, Note_off_c, 6, 78, 64
8, 45840, Note_on_c, 6, 76, 45
8, 46054, Note_off_c, 6, 76, 64
8, 46080, Note_on_c, 6, 74, 44
8, 46240, Note_off_c, 6, 74, 64
8, 47040, Note_on_c, 6, 81, 30
8, 47200, Note_off_c, 6, 81, 64
8, 47520, Note_on_c, 6, 86, 30
8, 47680, Note_off_c, 6, 86, 64
8, 48000, Note_on_c, 6, 81, 30
8, 48160, Note_off_c, 6, 81, 64
8, 48480, Note_on_c, 6, 83, 30
8, 48640, Note_off_c, 6, 83, 64
8, 48960, Note_on_c, 6, 81, 30
8, 49120, Note_off_c, 6, 81, 64
8, 49440, Note_on_c, 6, 78, 30
8, 49600, Note_off_c, 6, 78, 64
8, 49920, Note_on_c, 6, 79, 30
8, 50080, Note_off_c, 6, 79, 64
8, 50400, Note_on_c, 6, 78, 30
8, 50560, Note_off_c, 6, 78, 64
8, 50880, Note_on_c, 6, 74, 30
8, 51040, Note_off_c, 6, 74, 64
8, 51360, Note_on_c, 6, 76, 30
8, 51520, Note_off_c, 6, 76, 64
8, 51840, Note_on_c, 6, 78, 30
8, 52000, Note_off_c, 6, 78, 64
8, 52320, Note_on_c, 6, 74, 30
8, 52480, Note_off_c, 6, 74, 64
8, 52800, Note_on_c, 6, 74, 30
8, 52848, Note_off_c, 6, 74, 64
8, 53280, Note_on_c, 6, 79, 30
8, 53440, Note_off_c, 6, 79, 64
8, 53760, Note_on_c, 6, 74, 30
8, 53920, Note_off_c, 6, 74, 64
8, 54240, Note_on_c, 6, 76, 30
8, 54400, Note_off_c, 6, 76, 64
8, 54720, Note_on_c, 6, 74, 30
8, 54880, Note_off_c, 6, 74, 64
8, 55200, Note_on_c, 6, 71, 30
8, 55360, Note_off_c, 6, 71, 64
8, 55680, Note_on_c, 6, 72, 30
8, 55840, Note_off_c, 6, 72, 64
8, 56160, Note_on_c, 6, 71, 30
8, 56320, Note_off_c, 6, 71, 64
8, 56640, Note_on_c, 6, 67, 30
8, 56800, Note_off_c, 6, 67, 64
8, 57120, Note_on_c, 6, 69, 30
8, 57280, Note_off_c, 6, 69, 64
8, 57600, Note_on_c, 6, 71, 30
8, 57760, Note_off_c, 6, 71, 64
8, 58080, Note_on_c, 6, 67, 30
8, 58240, Note_off_c, 6, 67, 64
8, 58560, Note_on_c, 6, 67, 30
8, 58608, Note_off_c, 6, 67, 64
8, 59040, Note_on_c, 6, 72, 32
8, 59680, Note_off_c, 6, 72, 64
8, 60000, Note_on_c, 6, 76, 37
8, 60320, Note_off_c, 6, 76, 64
8, 60480, Note_on_c, 6, 79, 40
8, 60800, Note_off_c, 6, 79, 64
8, 60960, Note_on_c, 6, 76, 42
8, 61280, Note_off_c, 6, 76, 64
8, 61440, Note_on_c, 6, 76, 45
8, 61760, Note_off_c, 6, 76, 64
8, 61920, Note_on_c, 6, 79, 48
8, 62240, Note_off_c, 6, 79, 64
8, 62400, Note_on_c, 6, 83, 50
8, 62720, Note_off_c, 6, 83, 64
8, 62880, Note_on_c, 6, 84, 53
8, 63040, Note_off_c, 6, 84, 64
8, 63120, Note_on_c, 6, 81, 54
8, 63280, Note_off_c, 6, 81, 64
8, 63360, Note_on_c, 6, 79, 56
8, 64000, Note_off_c, 6, 79, 64
8, 64320, Note_on_c, 6, 83, 64
8, 64640, Note_off_c, 6, 83, 64
8, 64800, Note_on_c, 6, 84, 64
8, 65120, Note_off_c, 6, 84, 64
8, 65280, Note_on_c, 6, 79, 64
8, 65600, Note_off_c, 6, 79, 64
8, 65760, Note_on_c, 6, 81, 64
8, 66080, Note_off_c, 6, 81, 64
8, 66240, Note_on_c, 6, 79, 64
8, 66560, Note_off_c, 6, 79, 64
8, 66720, Note_on_c, 6, 76, 64
8, 67040, Note_off_c, 6, 76, 64
8, 67200, Note_on_c, 6, 77, 64
8, 67520, Note_off_c, 6, 77, 64
8, 67680, Note_on_c, 6, 76, 64
8, 68000, Note_off_c, 6, 76, 64
8, 68160, Note_on_c, 6, 72, 64
8, 68480, Note_off_c, 6, 72, 64
8, 68640, Note_on_c, 6, 74, 64
8, 68960, Note_off_c, 6, 74, 64
8, 69120, Note_on_c, 6, 76, 64
8, 69440, Note_off_c, 6, 76, 64
8, 69600, Note_on_c, 6, 72, 64
8, 69920, Note_off_c, 6, 72, 64
8, 70080, Note_on_c, 6, 72, 64
8, 70400, Note_off_c, 6, 72, 64
8, 70560, Note_on_c, 6, 84, 50
8, 70880, Note_off_c, 6, 84, 64
8, 71040, Note_on_c, 6, 81, 53
8, 71360, Note_off_c, 6, 81, 64
8, 71520, Note_on_c, 6, 82, 57
8, 71840, Note_off_c, 6, 82, 64
8, 72000, Note_on_c, 6, 81, 61
8, 72320, Note_off_c, 6, 81, 64
8, 72480, Note_on_c, 6, 77, 65
8, 72800, Note_off_c, 6, 77, 64
8, 72960, Note_on_c, 6, 79, 69
8, 73280, Note_off_c, 6, 79, 64
8, 73440, Note_on_c, 6, 77, 73
8, 73760, Note_off_c, 6, 77, 64
8, 73920, Note_on_c, 6, 72, 76
8, 74240, Note_off_c, 6, 72, 64
8, 74400, Note_on_c, 6, 79, 80
8, 74720, Note_off_c, 6, 79, 64
8, 74880, Note_on_c, 6, 81, 84
8, 75200, Note_off_c, 6, 81, 64
8, 75360, Note_on_c, 6, 77, 88
8, 75680, Note_off_c, 6, 77, 64
8, 75840, Note_on_c, 6, 84, 92
8, 76160, Note_off_c, 6, 84, 64
8, 76320, Note_on_c, 6, 89, 96
8, 76640, Note_off_c, 6, 89, 64
8, 76800, Note_on_c, 6, 84, 96
8, 77120, Note_off_c, 6, 84, 64
8, 77280, Note_on_c, 6, 86, 96
8, 77600, Note_off_c, 6, 86, 64
8, 77760, Note_on_c, 6, 84, 96
8, 78080, Note_off_c, 6, 84, 64
8, 78240, Note_on_c, 6, 81, 96
8, 78560, Note_off_c, 6, 81, 64
8, 78720, Note_on_c, 6, 82, 96
8, 79040, Note_off_c, 6, 82, 64
8, 79200, Note_on_c, 6, 81, 127
8, 79520, Note_off_c, 6, 81, 64
8, 79680, Note_on_c, 6, 77, 96
8, 80000, Note_off_c, 6, 77, 64
8, 80160, Note_on_c, 6, 79, 96
8, 80480, Note_off_c, 6, 79, 64
8, 80640, Note_on_c, 6, 81, 127
8, 80960, Note_off_c, 6, 81, 64
8, 81120, Note_on_c, 6, 77, 96
8, 81440, Note_off_c, 6, 77, 64
8, 81600, Note_on_c, 6, 79, 96
8, 81920, Note_off_c, 6, 79, 64
8, 82080, Note_on_c, 6, 81, 127
8, 82400, Note_off_c, 6, 81, 64
8, 82560, Note_on_c, 6, 77, 96
8, 82880, Note_off_c, 6, 77, 64
8, 83040, Note_on_c, 6, 79, 96
8, 83360, Note_off_c, 6, 79, 64
8, 83520, Note_on_c, 6, 81, 127
8, 83840, Note_off_c, 6, 81, 64
8, 84000, Note_on_c, 6, 77, 96
8, 84320, Note_off_c, 6, 77, 64
8, 84480, Note_on_c, 6, 79, 96
8, 84800, Note_off_c, 6, 79, 64
8, 84960, Note_on_c, 6, 81, 119
8, 85920, Note_off_c, 6, 81, 64
8, 86400, Note_on_c, 6, 79, 96
8, 86440, Note_off_c, 6, 79, 64
8, 86440, Note_on_c, 6, 81, 96
8, 86480, Note_off_c, 6, 81, 64
8, 86480, Note_on_c, 6, 79, 96
8, 86954, Note_off_c, 6, 79, 64
8, 87360, Note_on_c, 6, 77, 96
8, 87680, Note_off_c, 6, 77, 64
8, 87840, Note_on_c, 6, 76, 96
8, 87880, Note_off_c, 6, 76, 64
8, 87880, Note_on_c, 6, 77, 96
8, 87920, Note_off_c, 6, 77, 64
8, 87920, Note_on_c, 6, 76, 96
8, 88394, Note_off_c, 6, 76, 64
8, 88800, Note_on_c, 6, 74, 96
8, 89120, Note_off_c, 6, 74, 64
8, 89280, Note_on_c, 6, 72, 96
8, 89920, Note_off_c, 6, 72, 64
8, 90240, Note_on_c, 6, 76, 96
8, 90560, Note_off_c, 6, 76, 64
8, 90720, Note_on_c, 6, 72, 113
8, 90720, Note_on_c, 6, 65, 111
8, 90720, Note_on_c, 6, 77, 112
8, 91040, Note_off_c, 6, 65, 64
8, 91040, Note_off_c, 6, 72, 64
8, 91964, Note_off_c, 6, 77, 64
8, 92160, Note_on_c, 6, 79, 109
8, 93380, Note_off_c, 6, 79, 64
8, 93600, Note_on_c, 6, 81, 114
8, 94850, Note_off_c, 6, 81, 64
8, 95040, Note_on_c, 6, 79, 115
8, 95040, Note_on_c, 6, 64, 96
8, 95040, Note_on_c, 6, 72, 96
8, 95360, Note_off_c, 6, 72, 64
8, 95360, Note_off_c, 6, 64, 64
8, 96280, Note_off_c, 6, 79, 64
8, 96480, Note_on_c, 6, 81, 96
8, 96480, Note_on_c, 6, 72, 96
8, 96480, Note_on_c, 6, 65, 96
8, 96800, Note_off_c, 6, 65, 64
8, 96800, Note_off_c, 6, 72, 64
8, 96800, Note_off_c, 6, 81, 64
8, 97440, Note_on_c, 6, 81, 96
8, 97760, Note_off_c, 6, 81, 64
8, 97920, Note_on_c, 6, 79, 96
8, 97960, Note_off_c, 6, 79, 64
8, 97960, Note_on_c, 6, 81, 96
8, 98000, Note_off_c, 6, 81, 64
8, 98000, Note_on_c, 6, 79, 96
8, 98474, Note_off_c, 6, 79, 64
8, 98880, Note_on_c, 6, 77, 96
8, 99200, Note_off_c, 6, 77, 64
8, 99360, Note_on_c, 6, 76, 96
8, 99400, Note_off_c, 6, 76, 64
8, 99400, Note_on_c, 6, 77, 96
8, 99440, Note_off_c, 6, 77, 64
8, 99440, Note_on_c, 6, 76, 96
8, 99914, Note_off_c, 6, 76, 64
8, 100320, Note_on_c, 6, 74, 96
8, 100640, Note_off_c, 6, 74, 64
8, 100800, Note_on_c, 6, 72, 96
8, 101440, Note_off_c, 6, 72, 64
8, 101760, Note_on_c, 6, 76, 96
8, 102080, Note_off_c, 6, 76, 64
8, 102240, Note_on_c, 6, 72, 96
8, 102240, Note_on_c, 6, 65, 96
8, 102240, Note_on_c, 6, 77, 96
8, 102710, Note_off_c, 6, 72, 64
8, 102714, Note_off_c, 6, 65, 64
8, 103414, Note_off_c, 6, 77, 64
8, 103680, Note_on_c, 6, 79, 96
8, 104834, Note_off_c, 6, 79, 64
8, 105120, Note_on_c, 6, 81, 96
8, 106274, Note_off_c, 6, 81, 64
8, 106560, Note_on_c, 6, 79, 96
8, 106560, Note_on_c, 6, 64, 96
8, 106560, Note_on_c, 6, 72, 96
8, 107034, Note_off_c, 6, 72, 64
8, 107034, Note_off_c, 6, 64, 64
8, 107770, Note_off_c, 6, 79, 64
8, 108000, Note_on_c, 6, 77, 96
8, 108000, Note_on_c, 6, 72, 96
8, 108000, Note_on_c, 6, 65, 96
8, 108320, Note_off_c, 6, 65, 64
8, 108320, Note_off_c, 6, 72, 64
8, 108320, Note_off_c, 6, 77, 64
8, 110880, Note_on_c, 6, 69, 96
8, 111040, Note_off_c, 6, 69, 64
8, 111120, Note_on_c, 6, 72, 96
8, 111280, Note_off_c, 6, 72, 64
8, 111360, Note_on_c, 6, 77, 96
8, 111520, Note_off_c, 6, 77, 64
8, 111600, Note_on_c, 6, 81, 96
8, 111760, Note_off_c, 6, 81, 64
8, 111840, Note_on_c, 6, 84, 96
8, 112000, Note_off_c, 6, 84, 64
8, 112320, Note_on_c, 6, 67, 96
8, 112320, Note_on_c, 6, 76, 96
8, 112640, Note_off_c, 6, 76, 64
8, 112640, Note_off_c, 6, 67, 64
8, 112800, Note_on_c, 6, 67, 96
8, 112800, Note_on_c, 6, 76, 96
8, 113120, Note_off_c, 6, 76, 64
8, 113120, Note_off_c, 6, 67, 64
8, 113280, Note_on_c, 6, 67, 96
8, 113280, Note_on_c, 6, 76, 96
8, 113600, Note_off_c, 6, 76, 64
8, 113600, Note_off_c, 6, 67, 64
8, 113760, Note_on_c, 6, 77, 96
8, 113760, Note_on_c, 6, 69, 96
8, 113760, Note_on_c, 6, 65, 96
8, 114080, Note_off_c, 6, 65, 64
8, 114080, Note_off_c, 6, 69, 64
8, 114080, Note_off_c, 6, 77, 64
8, 116640, Note_on_c, 6, 69, 96
8, 116800, Note_off_c, 6, 69, 64
8, 116880, Note_on_c, 6, 72, 96
8, 117040, Note_off_c, 6, 72, 64
8, 117120, Note_on_c, 6, 77, 96
8, 117280, Note_off_c, 6, 77, 64
8, 117360, Note_on_c, 6, 81, 96
8, 117520, Note_off_c, 6, 81, 64
8, 117600, Note_on_c, 6, 84, 96
8, 117760, Note_off_c, 6, 84, 64
8, 118080, Note_on_c, 6, 67, 96
8, 118080, Note_on_c, 6, 76, 96
8, 118400, Note_off_c, 6, 76, 64
8, 118400, Note_off_c, 6, 67, 64
8, 118560, Note_on_c, 6, 67, 96
8, 118560, Note_on_c, 6, 76, 96
8, 118880, Note_off_c, 6, 76, 64
8, 118880, Note_off_c, 6, 67, 64
8, 119040, Note_on_c, 6, 67, 96
8, 119040, Note_on_c, 6, 76, 96
8, 119360, Note_off_c, 6, 76, 64
8, 119360, Note_off_c, 6, 67, 64
8, 119520, Note_on_c, 6, 77, 96
8, 119520, Note_on_c, 6, 69, 96
8, 119520, Note_on_c, 6, 65, 96
8, 119840, Note_off_c, 6, 65, 64
8, 119840, Note_off_c, 6, 69, 64
8, 119840, Note_off_c, 6, 77, 64
8, 122400, Note_on_c, 6, 77, 64
8, 122400, Note_on_c, 6, 69, 64
8, 122400, Note_on_c, 6, 65, 64
8, 122720, Note_off_c, 6, 65, 64
8, 122720, Note_off_c, 6, 69, 64
8, 122720, Note_off_c, 6, 77, 64
8, 125280, Note_on_c, 6, 72, 64
8, 125434, Note_off_c, 6, 72, 64
8, 125760, Note_on_c, 6, 69, 62
8, 125910, Note_off_c, 6, 69, 64
8, 126240, Note_on_c, 6, 69, 59
8, 126390, Note_off_c, 6, 69, 64
8, 126720, Note_on_c, 6, 72, 56
8, 126864, Note_off_c, 6, 72, 64
8, 127200, Note_on_c, 6, 69, 54
8, 127320, Note_off_c, 6, 69, 64
8, 127680, Note_on_c, 6, 69, 51
8, 127824, Note_off_c, 6, 69, 64
8, 128160, Note_on_c, 6, 72, 48
8, 128314, Note_off_c, 6, 72, 64
8, 128640, Note_on_c, 6, 69, 46
8, 128804, Note_off_c, 6, 69, 64
8, 129120, Note_on_c, 6, 69, 43
8, 129264, Note_off_c, 6, 69, 64
8, 129600, Note_on_c, 6, 72, 40
8, 129764, Note_off_c, 6, 72, 64
8, 130080, Note_on_c, 6, 69, 40
8, 130230, Note_off_c, 6, 69, 64
8, 130560, Note_on_c, 6, 69, 40
8, 130720, Note_off_c, 6, 69, 64
8, 131040, Note_on_c, 6, 72, 40
8, 131170, Note_off_c, 6, 72, 64
8, 131520, Note_on_c, 6, 69, 40
8, 131674, Note_off_c, 6, 69, 64
8, 132000, Note_on_c, 6, 69, 40
8, 132134, Note_off_c, 6, 69, 64
8, 132480, Note_on_c, 6, 72, 40
8, 132620, Note_off_c, 6, 72, 64
8, 132960, Note_on_c, 6, 69, 40
8, 133100, Note_off_c, 6, 69, 64
8, 133440, Note_on_c, 6, 69, 40
8, 133570, Note_off_c, 6, 69, 64
8, 133920, Note_on_c, 6, 72, 40
8, 134064, Note_off_c, 6, 72, 64
8, 134400, Note_on_c, 6, 70, 40
8, 134524, Note_off_c, 6, 70, 64
8, 134880, Note_on_c, 6, 70, 40
8, 135014, Note_off_c, 6, 70, 64
8, 135360, Note_on_c, 6, 72, 40
8, 135494, Note_off_c, 6, 72, 64
8, 135840, Note_on_c, 6, 70, 40
8, 136000, Note_off_c, 6, 70, 64
8, 136320, Note_on_c, 6, 70, 40
8, 136454, Note_off_c, 6, 70, 64
8, 136800, Note_on_c, 6, 72, 40
8, 136950, Note_off_c, 6, 72, 64
8, 137280, Note_on_c, 6, 69, 40
8, 137424, Note_off_c, 6, 69, 64
8, 137760, Note_on_c, 6, 69, 40
8, 137904, Note_off_c, 6, 69, 64
8, 138240, Note_on_c, 6, 72, 40
8, 138374, Note_off_c, 6, 72, 64
8, 138720, Note_on_c, 6, 67, 40
8, 138864, Note_off_c, 6, 67, 64
8, 139200, Note_on_c, 6, 67, 40
8, 139334, Note_off_c, 6, 67, 64
8, 139680, Note_on_c, 6, 72, 40
8, 139820, Note_off_c, 6, 72, 64
8, 140160, Note_on_c, 6, 69, 40
8, 140300, Note_off_c, 6, 69, 64
8, 140640, Note_on_c, 6, 69, 40
8, 140770, Note_off_c, 6, 69, 64
8, 141120, Note_on_c, 6, 72, 40
8, 141260, Note_off_c, 6, 72, 64
8, 141600, Note_on_c, 6, 69, 40
8, 141740, Note_off_c, 6, 69, 64
8, 142080, Note_on_c, 6, 69, 40
8, 142210, Note_off_c, 6, 69, 64
8, 142560, Note_on_c, 6, 72, 40
8, 142700, Note_off_c, 6, 72, 64
8, 143040, Note_on_c, 6, 69, 40
8, 143180, Note_off_c, 6, 69, 64
8, 143520, Note_on_c, 6, 69, 40
8, 143650, Note_off_c, 6, 69, 64
8, 144000, Note_on_c, 6, 72, 40
8, 144140, Note_off_c, 6, 72, 64
8, 144480, Note_on_c, 6, 69, 40
8, 144620, Note_off_c, 6, 69, 64
8, 144960, Note_on_c, 6, 69, 40
8, 145090, Note_off_c, 6, 69, 64
8, 145440, Note_on_c, 6, 72, 40
8, 145584, Note_off_c, 6, 72, 64
8, 145920, Note_on_c, 6, 70, 40
8, 146044, Note_off_c, 6, 70, 64
8, 146400, Note_on_c, 6, 70, 40
8, 146534, Note_off_c, 6, 70, 64
8, 146880, Note_on_c, 6, 72, 40
8, 147024, Note_off_c, 6, 72, 64
8, 147360, Note_on_c, 6, 70, 40
8, 147484, Note_off_c, 6, 70, 64
8, 147840, Note_on_c, 6, 70, 40
8, 147974, Note_off_c, 6, 70, 64
8, 148320, Note_on_c, 6, 72, 40
8, 148460, Note_off_c, 6, 72, 64
8, 148800, Note_on_c, 6, 69, 40
8, 148940, Note_off_c, 6, 69, 64
8, 149280, Note_on_c, 6, 69, 40
8, 149410, Note_off_c, 6, 69, 64
8, 149760, Note_on_c, 6, 72, 40
8, 149894, Note_off_c, 6, 72, 64
8, 150240, Note_on_c, 6, 67, 40
8, 150384, Note_off_c, 6, 67, 64
8, 150720, Note_on_c, 6, 67, 40
8, 150854, Note_off_c, 6, 67, 64
8, 151200, Note_on_c, 6, 72, 40
8, 151334, Note_off_c, 6, 72, 64
8, 151680, Note_on_c, 6, 67, 40
8, 151824, Note_off_c, 6, 67, 64
8, 152160, Note_on_c, 6, 67, 40
8, 152294, Note_off_c, 6, 67, 64
8, 152640, Note_on_c, 6, 72, 40
8, 152780, Note_off_c, 6, 72, 64
8, 153120, Note_on_c, 6, 69, 40
8, 153260, Note_off_c, 6, 69, 64
8, 153600, Note_on_c, 6, 69, 40
8, 153730, Note_off_c, 6, 69, 64
8, 154080, Note_on_c, 6, 72, 40
8, 154220, Note_off_c, 6, 72, 64
8, 154560, Note_on_c, 6, 69, 40
8, 154700, Note_off_c, 6, 69, 64
8, 155040, Note_on_c, 6, 69, 40
8, 155170, Note_off_c, 6, 69, 64
8, 155520, Note_on_c, 6, 72, 40
8, 155660, Note_off_c, 6, 72, 64
8, 156000, Note_on_c, 6, 69, 40
8, 156140, Note_off_c, 6, 69, 64
8, 156480, Note_on_c, 6, 69, 40
8, 156610, Note_off_c, 6, 69, 64
8, 156960, Note_on_c, 6, 72, 40
8, 157104, Note_off_c, 6, 72, 64
8, 157440, Note_on_c, 6, 70, 40
8, 157564, Note_off_c, 6, 70, 64
8, 157920, Note_on_c, 6, 70, 40
8, 158054, Note_off_c, 6, 70, 64
8, 158400, Note_on_c, 6, 72, 40
8, 158544, Note_off_c, 6, 72, 64
8, 158880, Note_on_c, 6, 70, 40
8, 159004, Note_off_c, 6, 70, 64
8, 159360, Note_on_c, 6, 70, 40
8, 159494, Note_off_c, 6, 70, 64
8, 159840, Note_on_c, 6, 72, 40
8, 159980, Note_off_c, 6, 72, 64
8, 160320, Note_on_c, 6, 69, 40
8, 160460, Note_off_c, 6, 69, 64
8, 160800, Note_on_c, 6, 69, 40
8, 160930, Note_off_c, 6, 69, 64
8, 161280, Note_on_c, 6, 72, 40
8, 161414, Note_off_c, 6, 72, 64
8, 161760, Note_on_c, 6, 67, 40
8, 161904, Note_off_c, 6, 67, 64
8, 162240, Note_on_c, 6, 67, 40
8, 162374, Note_off_c, 6, 67, 64
8, 162720, Note_on_c, 6, 72, 40
8, 162860, Note_off_c, 6, 72, 64
8, 163200, Note_on_c, 6, 69, 40
8, 163340, Note_off_c, 6, 69, 64
8, 163680, Note_on_c, 6, 69, 40
8, 163810, Note_off_c, 6, 69, 64
8, 164160, Note_on_c, 6, 72, 40
8, 164300, Note_off_c, 6, 72, 64
8, 164640, Note_on_c, 6, 69, 40
8, 164780, Note_off_c, 6, 69, 64
8, 165120, Note_on_c, 6, 69, 40
8, 165250, Note_off_c, 6, 69, 64
8, 165600, Note_on_c, 6, 72, 40
8, 165740, Note_off_c, 6, 72, 64
8, 166080, Note_on_c, 6, 69, 40
8, 166220, Note_off_c, 6, 69, 64
8, 166560, Note_on_c, 6, 69, 40
8, 166690, Note_off_c, 6, 69, 64
8, 167040, Note_on_c, 6, 72, 40
8, 167180, Note_off_c, 6, 72, 64
8, 167520, Note_on_c, 6, 69, 40
8, 167660, Note_off_c, 6, 69, 64
8, 168000, Note_on_c, 6, 69, 40
8, 168130, Note_off_c, 6, 69, 64
8, 168480, Note_on_c, 6, 72, 40
8, 168624, Note_off_c, 6, 72, 64
8, 168960, Note_on_c, 6, 70, 40
8, 169084, Note_off_c, 6, 70, 64
8, 169440, Note_on_c, 6, 70, 40
8, 169574, Note_off_c, 6, 70, 64
8, 169920, Note_on_c, 6, 72, 40
8, 170064, Note_off_c, 6, 72, 64
8, 170400, Note_on_c, 6, 70, 40
8, 170524, Note_off_c, 6, 70, 64
8, 170880, Note_on_c, 6, 70, 40
8, 171014, Note_off_c, 6, 70, 64
8, 171360, Note_on_c, 6, 72, 40
8, 171500, Note_off_c, 6, 72, 64
8, 171840, Note_on_c, 6, 69, 40
8, 171980, Note_off_c, 6, 69, 64
8, 172320, Note_on_c, 6, 69, 40
8, 172450, Note_off_c, 6, 69, 64
8, 172800, Note_on_c, 6, 72, 40
8, 172934, Note_off_c, 6, 72, 64
8, 173280, Note_on_c, 6, 67, 40
8, 173424, Note_off_c, 6, 67, 64
8, 173760, Note_on_c, 6, 67, 40
8, 173894, Note_off_c, 6, 67, 64
8, 174240, Note_on_c, 6, 72, 40
8, 174374, Note_off_c, 6, 72, 64
8, 174720, Note_on_c, 6, 67, 40
8, 174864, Note_off_c, 6, 67, 64
8, 175200, Note_on_c, 6, 67, 40
8, 175334, Note_off_c, 6, 67, 64
8, 175680, Note_on_c, 6, 72, 40
8, 175820, Note_off_c, 6, 72, 64
8, 176160, Note_on_c, 6, 69, 40
8, 176300, Note_off_c, 6, 69, 64
8, 176640, Note_on_c, 6, 69, 40
8, 176770, Note_off_c, 6, 69, 64
8, 188640, Note_on_c, 6, 72, 48
8, 188800, Note_off_c, 6, 72, 64
8, 189120, Note_on_c, 6, 67, 52
8, 189320, Note_off_c, 6, 67, 64
8, 189600, Note_on_c, 6, 67, 56
8, 189770, Note_off_c, 6, 67, 64
8, 190080, Note_on_c, 6, 72, 60
8, 190230, Note_off_c, 6, 72, 64
8, 190560, Note_on_c, 6, 67, 64
8, 190724, Note_off_c, 6, 67, 64
8, 191040, Note_on_c, 6, 67, 68
8, 191190, Note_off_c, 6, 67, 64
8, 191520, Note_on_c, 6, 72, 40
8, 191650, Note_off_c, 6, 72, 64
8, 192000, Note_on_c, 6, 69, 40
8, 192154, Note_off_c, 6, 69, 64
8, 192480, Note_on_c, 6, 69, 40
8, 192614, Note_off_c, 6, 69, 64
8, 192960, Note_on_c, 6, 72, 40
8, 193100, Note_off_c, 6, 72, 64
8, 193440, Note_on_c, 6, 69, 40
8, 193580, Note_off_c, 6, 69, 64
8, 193920, Note_on_c, 6, 69, 40
8, 194050, Note_off_c, 6, 69, 64
8, 194400, Note_on_c, 6, 72, 40
8, 194544, Note_off_c, 6, 72, 64
8, 194880, Note_on_c, 6, 70, 40
8, 195004, Note_off_c, 6, 70, 64
8, 195360, Note_on_c, 6, 70, 40
8, 195494, Note_off_c, 6, 70, 64
8, 195840, Note_on_c, 6, 72, 40
8, 195974, Note_off_c, 6, 72, 64
8, 196320, Note_on_c, 6, 70, 40
8, 196480, Note_off_c, 6, 70, 64
8, 196800, Note_on_c, 6, 70, 40
8, 196934, Note_off_c, 6, 70, 64
8, 197280, Note_on_c, 6, 72, 40
8, 197430, Note_off_c, 6, 72, 64
8, 197760, Note_on_c, 6, 69, 40
8, 197904, Note_off_c, 6, 69, 64
8, 198240, Note_on_c, 6, 69, 40
8, 198384, Note_off_c, 6, 69, 64
8, 198720, Note_on_c, 6, 72, 40
8, 198854, Note_off_c, 6, 72, 64
8, 199200, Note_on_c, 6, 67, 40
8, 199344, Note_off_c, 6, 67, 64
8, 199680, Note_on_c, 6, 67, 40
8, 199814, Note_off_c, 6, 67, 64
8, 200160, Note_on_c, 6, 72, 40
8, 200300, Note_off_c, 6, 72, 64
8, 200640, Note_on_c, 6, 69, 40
8, 200780, Note_off_c, 6, 69, 64
8, 201120, Note_on_c, 6, 69, 40
8, 201250, Note_off_c, 6, 69, 64
8, 201600, Note_on_c, 6, 72, 40
8, 201740, Note_off_c, 6, 72, 64
8, 202080, Note_on_c, 6, 69, 40
8, 202220, Note_off_c, 6, 69, 64
8, 202560, Note_on_c, 6, 69, 40
8, 202690, Note_off_c, 6, 69, 64
8, 203040, Note_on_c, 6, 72, 40
8, 203180, Note_off_c, 6, 72, 64
8, 203520, Note_on_c, 6, 69, 40
8, 203660, Note_off_c, 6, 69, 64
8, 204000, Note_on_c, 6, 69, 40
8, 204130, Note_off_c, 6, 69, 64
8, 204480, Note_on_c, 6, 72, 40
8, 204620, Note_off_c, 6, 72, 64
8, 204960, Note_on_c, 6, 69, 40
8, 205100, Note_off_c, 6, 69, 64
8, 205440, Note_on_c, 6, 69, 40
8, 205570, Note_off_c, 6, 69, 64
8, 205920, Note_on_c, 6, 72, 40
8, 206064, Note_off_c, 6, 72, 64
8, 206400, Note_on_c, 6, 70, 40
8, 206524, Note_off_c, 6, 70, 64
8, 206880, Note_on_c, 6, 70, 40
8, 207014, Note_off_c, 6, 70, 64
8, 207360, Note_on_c, 6, 72, 40
8, 207504, Note_off_c, 6, 72, 64
8, 207840, Note_on_c, 6, 70, 40
8, 207964, Note_off_c, 6, 70, 64
8, 208320, Note_on_c, 6, 70, 40
8, 208454, Note_off_c, 6, 70, 64
8, 208800, Note_on_c, 6, 72, 40
8, 208940, Note_off_c, 6, 72, 64
8, 209280, Note_on_c, 6, 69, 40
8, 209420, Note_off_c, 6, 69, 64
8, 209760, Note_on_c, 6, 69, 40
8, 209890, Note_off_c, 6, 69, 64
8, 210240, Note_on_c, 6, 72, 40
8, 210380, Note_off_c, 6, 72, 64
8, 210720, Note_on_c, 6, 69, 40
8, 210860, Note_off_c, 6, 69, 64
8, 211200, Note_on_c, 6, 69, 40
8, 211330, Note_off_c, 6, 69, 64
8, 211680, Note_on_c, 6, 72, 40
8, 211814, Note_off_c, 6, 72, 64
8, 212160, Note_on_c, 6, 64, 64
8, 212320, Note_off_c, 6, 64, 64
8, 212640, Note_on_c, 6, 64, 64
8, 212800, Note_off_c, 6, 64, 64
8, 213120, Note_on_c, 6, 72, 40
8, 213254, Note_off_c, 6, 72, 64
8, 213600, Note_on_c, 6, 64, 64
8, 213760, Note_off_c, 6, 64, 64
8, 214080, Note_on_c, 6, 64, 64
8, 214240, Note_off_c, 6, 64, 64
8, 214560, Note_on_c, 6, 72, 40
8, 214700, Note_off_c, 6, 72, 64
8, 215040, Note_on_c, 6, 69, 40
8, 215180, Note_off_c, 6, 69, 64
8, 215520, Note_on_c, 6, 69, 40
8, 215650, Note_off_c, 6, 69, 64
8, 216000, Note_on_c, 6, 72, 40
8, 216140, Note_off_c, 6, 72, 64
8, 216480, Note_on_c, 6, 69, 40
8, 216620, Note_off_c, 6, 69, 64
8, 216960, Note_on_c, 6, 69, 40
8, 217090, Note_off_c, 6, 69, 64
8, 217440, Note_on_c, 6, 72, 40
8, 217574, Note_off_c, 6, 72, 64
8, 217920, Note_on_c, 6, 67, 40
8, 218064, Note_off_c, 6, 67, 64
8, 218400, Note_on_c, 6, 67, 40
8, 218534, Note_off_c, 6, 67, 64
8, 218880, Note_on_c, 6, 72, 40
8, 219014, Note_off_c, 6, 72, 64
8, 219360, Note_on_c, 6, 67, 40
8, 219504, Note_off_c, 6, 67, 64
8, 219840, Note_on_c, 6, 67, 40
8, 219974, Note_off_c, 6, 67, 64
8, 220320, Note_on_c, 6, 77, 64
8, 222720, Note_off_c, 6, 77, 64
8, 223200, Note_on_c, 6, 76, 70
8, 225600, Note_off_c, 6, 76, 64
8, 226080, Note_on_c, 6, 77, 76
8, 228480, Note_off_c, 6, 77, 64
8, 228960, Note_on_c, 6, 76, 82
8, 231360, Note_off_c, 6, 76, 64
8, 231840, Note_on_c, 6, 77, 97
8, 232160, Note_off_c, 6, 77, 64
8, 237600, Note_on_c, 6, 65, 85
8, 237640, Note_off_c, 6, 65, 64
8, 237840, Note_on_c, 6, 67, 85
8, 237880, Note_off_c, 6, 67, 64
8, 237960, Note_on_c, 6, 65, 85
8, 237994, Note_off_c, 6, 65, 64
8, 238080, Note_on_c, 6, 60, 85
8, 238120, Note_off_c, 6, 60, 64
8, 238320, Note_on_c, 6, 62, 85
8, 238364, Note_off_c, 6, 62, 64
8, 238440, Note_on_c, 6, 64, 85
8, 238470, Note_off_c, 6, 64, 64
8, 238560, Note_on_c, 6, 65, 85
8, 238600, Note_off_c, 6, 65, 64
8, 238800, Note_on_c, 6, 67, 85
8, 238840, Note_off_c, 6, 67, 64
8, 238920, Note_on_c, 6, 65, 85
8, 238954, Note_off_c, 6, 65, 64
8, 239040, Note_on_c, 6, 60, 85
8, 239360, Note_off_c, 6, 60, 64
8, 239520, Note_on_c, 6, 58, 85
8, 239554, Note_off_c, 6, 58, 64
8, 239640, Note_on_c, 6, 60, 85
8, 239670, Note_off_c, 6, 60, 64
8, 239760, Note_on_c, 6, 62, 85
8, 239800, Note_off_c, 6, 62, 64
8, 239880, Note_on_c, 6, 63, 85
8, 239920, Note_off_c, 6, 63, 64
8, 240000, Note_on_c, 6, 65, 85
8, 240034, Note_off_c, 6, 65, 64
8, 240240, Note_on_c, 6, 65, 85
8, 240280, Note_off_c, 6, 65, 64
8, 240314, Note_on_c, 6, 67, 85
8, 240384, Note_off_c, 6, 67, 64
8, 240480, Note_on_c, 6, 60, 85
8, 240520, Note_off_c, 6, 60, 64
8, 240720, Note_on_c, 6, 60, 85
8, 240740, Note_off_c, 6, 60, 64
8, 240794, Note_on_c, 6, 65, 85
8, 240834, Note_off_c, 6, 65, 64
8, 240960, Note_on_c, 6, 58, 85
8, 241280, Note_off_c, 6, 58, 64
8, 241440, Note_on_c, 6, 65, 85
8, 241480, Note_off_c, 6, 65, 64
8, 241680, Note_on_c, 6, 67, 85
8, 241720, Note_off_c, 6, 67, 64
8, 241800, Note_on_c, 6, 65, 85
8, 241834, Note_off_c, 6, 65, 64
8, 241920, Note_on_c, 6, 60, 85
8, 241960, Note_off_c, 6, 60, 64
8, 242160, Note_on_c, 6, 62, 85
8, 242204, Note_off_c, 6, 62, 64
8, 242280, Note_on_c, 6, 64, 85
8, 242310, Note_off_c, 6, 64, 64
8, 242400, Note_on_c, 6, 65, 85
8, 242440, Note_off_c, 6, 65, 64
8, 242640, Note_on_c, 6, 67, 85
8, 242680, Note_off_c, 6, 67, 64
8, 242760, Note_on_c, 6, 65, 85
8, 242794, Note_off_c, 6, 65, 64
8, 242880, Note_on_c, 6, 60, 85
8, 243200, Note_off_c, 6, 60, 64
8, 243360, Note_on_c, 6, 58, 85
8, 243394, Note_off_c, 6, 58, 64
8, 243480, Note_on_c, 6, 60, 85
8, 243510, Note_off_c, 6, 60, 64
8, 243600, Note_on_c, 6, 62, 85
8, 243640, Note_off_c, 6, 62, 64
8, 243720, Note_on_c, 6, 63, 85
8, 243760, Note_off_c, 6, 63, 64
8, 243840, Note_on_c, 6, 65, 85
8, 243874, Note_off_c, 6, 65, 64
8, 244080, Note_on_c, 6, 65, 85
8, 244120, Note_off_c, 6, 65, 64
8, 244154, Note_on_c, 6, 67, 85
8, 244224, Note_off_c, 6, 67, 64
8, 244320, Note_on_c, 6, 60, 85
8, 244360, Note_off_c, 6, 60, 64
8, 244560, Note_on_c, 6, 60, 85
8, 244580, Note_off_c, 6, 60, 64
8, 244634, Note_on_c, 6, 65, 85
8, 244674, Note_off_c, 6, 65, 64
8, 244800, Note_on_c, 6, 58, 85
8, 245120, Note_off_c, 6, 58, 64
8, 245280, Note_on_c, 6, 65, 85
8, 245320, Note_off_c, 6, 65, 64
8, 245520, Note_on_c, 6, 67, 85
8, 245560, Note_off_c, 6, 67, 64
8, 245640, Note_on_c, 6, 65, 85
8, 245674, Note_off_c, 6, 65, 64
8, 245760, Note_on_c, 6, 60, 85
8, 245800, Note_off_c, 6, 60, 64
8, 246000, Note_on_c, 6, 62, 85
8, 246044, Note_off_c, 6, 62, 64
8, 246120, Note_on_c, 6, 64, 85
8, 246150, Note_off_c, 6, 64, 64
8, 246240, Note_on_c, 6, 65, 85
8, 246280, Note_off_c, 6, 65, 64
8, 246480, Note_on_c, 6, 67, 85
8, 246520, Note_off_c, 6, 67, 64
8, 246600, Note_on_c, 6, 65, 85
8, 246634, Note_off_c, 6, 65, 64
8, 246720, Note_on_c, 6, 60, 85
8, 247040, Note_off_c, 6, 60, 64
8, 247200, Note_on_c, 6, 58, 85
8, 247234, Note_off_c, 6, 58, 64
8, 247320, Note_on_c, 6, 60, 85
8, 247350, Note_off_c, 6, 60, 64
8, 247440, Note_on_c, 6, 62, 85
8, 247480, Note_off_c, 6, 62, 64
8, 247560, Note_on_c, 6, 63, 85
8, 247600, Note_off_c, 6, 63, 64
8, 247680, Note_on_c, 6, 65, 85
8, 247714, Note_off_c, 6, 65, 64
8, 247920, Note_on_c, 6, 65, 85
8, 247960, Note_off_c, 6, 65, 64
8, 247994, Note_on_c, 6, 67, 85
8, 248064, Note_off_c, 6, 67, 64
8, 248160, Note_on_c, 6, 60, 85
8, 248200, Note_off_c, 6, 60, 64
8, 248400, Note_on_c, 6, 60, 85
8, 248420, Note_off_c, 6, 60, 64
8, 248474, Note_on_c, 6, 65, 85
8, 248514, Note_off_c, 6, 65, 64
8, 248640, Note_on_c, 6, 58, 85
8, 248960, Note_off_c, 6, 58, 64
8, 249120, Note_on_c, 6, 65, 85
8, 249160, Note_off_c, 6, 65, 64
8, 249360, Note_on_c, 6, 67, 85
8, 249400, Note_off_c, 6, 67, 64
8, 249480, Note_on_c, 6, 65, 85
8, 249514, Note_off_c, 6, 65, 64
8, 249600, Note_on_c, 6, 60, 85
8, 249640, Note_off_c, 6, 60, 64
8, 249840, Note_on_c, 6, 62, 85
8, 249884, Note_off_c, 6, 62, 64
8, 249960, Note_on_c, 6, 64, 85
8, 249990, Note_off_c, 6, 64, 64
8, 250080, Note_on_c, 6, 65, 85
8, 250120, Note_off_c, 6, 65, 64
8, 250320, Note_on_c, 6, 67, 85
8, 250360, Note_off_c, 6, 67, 64
8, 250440, Note_on_c, 6, 65, 85
8, 250474, Note_off_c, 6, 65, 64
8, 250560, Note_on_c, 6, 60, 85
8, 250880, Note_off_c, 6, 60, 64
8, 251040, Note_on_c, 6, 58, 85
8, 251074, Note_off_c, 6, 58, 64
8, 251160, Note_on_c, 6, 60, 85
8, 251190, Note_off_c, 6, 60, 64
8, 251280, Note_on_c, 6, 62, 85
8, 251320, Note_off_c, 6, 62, 64
8, 251400, Note_on_c, 6, 63, 85
8, 251440, Note_off_c, 6, 63, 64
8, 251520, Note_on_c, 6, 65, 85
8, 251554, Note_off_c, 6, 65, 64
8, 251760, Note_on_c, 6, 65, 85
8, 251800, Note_off_c, 6, 65, 64
8, 251834, Note_on_c, 6, 67, 85
8, 251904, Note_off_c, 6, 67, 64
8, 252000, Note_on_c, 6, 60, 85
8, 252040, Note_off_c, 6, 60, 64
8, 252240, Note_on_c, 6, 60, 85
8, 252260, Note_off_c, 6, 60, 64
8, 252314, Note_on_c, 6, 65, 85
8, 252354, Note_off_c, 6, 65, 64
8, 252480, Note_on_c, 6, 58, 85
8, 252800, Note_off_c, 6, 58, 64
8, 252960, Note_on_c, 6, 72, 101
8, 253410, Note_off_c, 6, 72, 64
8, 253440, Note_on_c, 6, 77, 70
8, 253680, Note_off_c, 6, 77, 64
8, 253920, Note_on_c, 6, 76, 102
8, 254364, Note_off_c, 6, 76, 64
8, 254400, Note_on_c, 6, 82, 73
8, 254620, Note_off_c, 6, 82, 64
8, 254880, Note_on_c, 6, 81, 93
8, 255354, Note_off_c, 6, 81, 64
8, 255360, Note_on_c, 6, 77, 93
8, 255740, Note_off_c, 6, 77, 64
8, 255840, Note_on_c, 6, 76, 85
8, 256294, Note_off_c, 6, 76, 64
8, 256320, Note_on_c, 6, 77, 73
8, 256530, Note_off_c, 6, 77, 64
8, 256800, Note_on_c, 6, 72, 101
8, 257250, Note_off_c, 6, 72, 64
8, 257280, Note_on_c, 6, 77, 70
8, 257520, Note_off_c, 6, 77, 64
8, 257760, Note_on_c, 6, 76, 102
8, 258204, Note_off_c, 6, 76, 64
8, 258240, Note_on_c, 6, 82, 73
8, 258460, Note_off_c, 6, 82, 64
8, 258720, Note_on_c, 6, 81, 93
8, 259194, Note_off_c, 6, 81, 64
8, 259200, Note_on_c, 6, 77, 93
8, 259580, Note_off_c, 6, 77, 64
8, 259680, Note_on_c, 6, 76, 85
8, 260134, Note_off_c, 6, 76, 64
8, 260160, Note_on_c, 6, 77, 73
8, 260370, Note_off_c, 6, 77, 64
8, 260640, Note_on_c, 6, 72, 88
8, 260960, Note_off_c, 6, 72, 64
8, 261120, Note_on_c, 6, 77, 88
8, 261440, Note_off_c, 6, 77, 64
8, 261600, Note_on_c, 6, 76, 89
8, 262080, Note_off_c, 6, 76, 64
8, 262320, Note_on_c, 6, 81, 90
8, 262444, Note_on_c, 6, 79, 90
8, 262464, Note_off_c, 6, 79, 64
8, 262480, Note_on_c, 6, 81, 90
8, 262524, Note_on_c, 6, 77, 90
8, 262528, Note_off_c, 6, 81, 64
8, 262544, Note_off_c, 6, 77, 64
8, 262560, Note_on_c, 6, 79, 90
8, 262684, Note_off_c, 6, 79, 64
8, 262800, Note_off_c, 6, 81, 64
8, 262934, Note_on_c, 6, 79, 90
8, 262960, Note_off_c, 6, 79, 64
8, 262964, Note_on_c, 6, 77, 90
8, 262990, Note_off_c, 6, 77, 64
8, 263004, Note_on_c, 6, 76, 90
8, 263030, Note_off_c, 6, 76, 64
8, 263040, Note_on_c, 6, 77, 90
8, 263164, Note_off_c, 6, 77, 64
8, 263400, Note_on_c, 6, 77, 91
8, 263424, Note_off_c, 6, 77, 64
8, 263440, Note_on_c, 6, 76, 91
8, 263460, Note_off_c, 6, 76, 64
8, 263484, Note_on_c, 6, 74, 91
8, 263514, Note_off_c, 6, 74, 64
8, 263520, Note_on_c, 6, 76, 91
8, 263640, Note_off_c, 6, 76, 64
8, 263874, Note_on_c, 6, 76, 91
8, 263894, Note_off_c, 6, 76, 64
8, 263914, Note_on_c, 6, 74, 91
8, 263930, Note_off_c, 6, 74, 64
8, 263964, Note_on_c, 6, 72, 91
8, 263984, Note_off_c, 6, 72, 64
8, 264000, Note_on_c, 6, 74, 92
8, 264144, Note_off_c, 6, 74, 64
8, 264480, Note_on_c, 6, 72, 92
8, 264640, Note_off_c, 6, 72, 64
8, 264720, Note_on_c, 6, 72, 92
8, 264880, Note_off_c, 6, 72, 64
8, 264960, Note_on_c, 6, 77, 93
8, 265120, Note_off_c, 6, 77, 64
8, 265200, Note_on_c, 6, 77, 93
8, 265360, Note_off_c, 6, 77, 64
8, 265440, Note_on_c, 6, 76, 93
8, 265600, Note_off_c, 6, 76, 64
8, 265680, Note_on_c, 6, 76, 94
8, 265984, Note_off_c, 6, 76, 64
8, 266160, Note_on_c, 6, 81, 94
8, 266320, Note_off_c, 6, 81, 64
8, 266640, Note_on_c, 6, 79, 95
8, 266800, Note_off_c, 6, 79, 64
8, 267120, Note_on_c, 6, 77, 95
8, 267280, Note_off_c, 6, 77, 64
8, 267600, Note_on_c, 6, 76, 90
8, 267760, Note_off_c, 6, 76, 64
8, 268080, Note_on_c, 6, 74, 92
8, 268240, Note_off_c, 6, 74, 64
8, 268320, Note_on_c, 6, 72, 93
8, 268800, Note_off_c, 6, 72, 64
8, 269040, Note_on_c, 6, 76, 95
8, 269200, Note_off_c, 6, 76, 64
8, 269280, Note_on_c, 6, 76, 96
8, 269760, Note_off_c, 6, 76, 64
8, 270000, Note_on_c, 6, 72, 98
8, 270160, Note_off_c, 6, 72, 64
8, 270240, Note_on_c, 6, 72, 99
8, 270720, Note_off_c, 6, 72, 64
8, 270960, Note_on_c, 6, 79, 101
8, 271120, Note_off_c, 6, 79, 64
8, 271200, Note_on_c, 6, 79, 102
8, 271680, Note_off_c, 6, 79, 64
8, 271920, Note_on_c, 6, 72, 104
8, 272080, Note_off_c, 6, 72, 64
8, 272160, Note_on_c, 6, 72, 105
8, 272320, Note_off_c, 6, 72, 64
8, 272400, Note_on_c, 6, 84, 106
8, 272560, Note_off_c, 6, 84, 64
8, 272640, Note_on_c, 6, 84, 107
8, 272800, Note_off_c, 6, 84, 64
8, 272880, Note_on_c, 6, 76, 108
8, 273040, Note_off_c, 6, 76, 64
8, 273120, Note_on_c, 6, 76, 108
8, 273280, Note_off_c, 6, 76, 64
8, 273360, Note_on_c, 6, 88, 109
8, 273520, Note_off_c, 6, 88, 64
8, 273600, Note_on_c, 6, 88, 110
8, 273760, Note_off_c, 6, 88, 64
8, 273840, Note_on_c, 6, 76, 111
8, 274000, Note_off_c, 6, 76, 64
8, 274080, Note_on_c, 6, 76, 112
8, 274080, Note_on_c, 6, 64, 112
8, 274080, Note_on_c, 6, 55, 112
8, 274240, Note_off_c, 6, 55, 64
8, 274240, Note_off_c, 6, 64, 64
8, 274240, Note_off_c, 6, 76, 64
8, 275040, Note_on_c, 6, 72, 63
8, 275200, Note_off_c, 6, 72, 64
8, 276960, Control_c, 6, 93, 14
8, 276960, Control_c, 6, 91, 52
8, 276960, Control_c, 6, 10, 0
8, 276960, Control_c, 6, 7, 102
8, 276960, Control_c, 6, 0, 0
8, 276960, Control_c, 6, 32, 0
8, 276960, Program_c, 6, 48
8, 276960, Control_c, 6, 93, 14
8, 276960, Control_c, 6, 91, 52
8, 276960, Control_c, 6, 10, 0
8, 276960, Control_c, 6, 7, 102
8, 276960, Control_c, 6, 0, 0
8, 276960, Control_c, 6, 32, 0
8, 276960, Program_c, 6, 48
8, 277920, Note_on_c, 6, 72, 32
8, 278020, Note_off_c, 6, 72, 64
8, 278400, Note_on_c, 6, 77, 32
8, 278494, Note_off_c, 6, 77, 64
8, 278880, Note_on_c, 6, 72, 32
8, 278990, Note_off_c, 6, 72, 64
8, 279360, Note_on_c, 6, 74, 32
8, 279460, Note_off_c, 6, 74, 64
8, 279840, Note_on_c, 6, 72, 32
8, 279950, Note_off_c, 6, 72, 64
8, 280320, Note_on_c, 6, 69, 32
8, 280424, Note_off_c, 6, 69, 64
8, 280800, Note_on_c, 6, 70, 32
8, 280904, Note_off_c, 6, 70, 64
8, 281280, Note_on_c, 6, 69, 32
8, 281384, Note_off_c, 6, 69, 64
8, 281760, Note_on_c, 6, 65, 32
8, 281860, Note_off_c, 6, 65, 64
8, 282240, Note_on_c, 6, 67, 32
8, 282344, Note_off_c, 6, 67, 64
8, 282720, Note_on_c, 6, 69, 32
8, 282824, Note_off_c, 6, 69, 64
8, 283200, Note_on_c, 6, 65, 32
8, 283310, Note_off_c, 6, 65, 64
8, 283680, Note_on_c, 6, 67, 32
8, 283780, Note_off_c, 6, 67, 64
8, 284160, Note_on_c, 6, 65, 32
8, 284180, Note_off_c, 6, 65, 64
8, 284220, Note_on_c, 6, 69, 32
8, 284374, Note_off_c, 6, 69, 64
8, 284640, Note_on_c, 6, 65, 32
8, 284794, Note_off_c, 6, 65, 64
8, 285120, Note_on_c, 6, 67, 32
8, 285274, Note_off_c, 6, 67, 64
8, 285600, Note_on_c, 6, 62, 32
8, 285620, Note_off_c, 6, 62, 64
8, 285660, Note_on_c, 6, 65, 32
8, 285814, Note_off_c, 6, 65, 64
8, 286080, Note_on_c, 6, 62, 32
8, 286234, Note_off_c, 6, 62, 64
8, 286560, Note_on_c, 6, 64, 32
8, 286714, Note_off_c, 6, 64, 64
8, 287040, Note_on_c, 6, 57, 32
8, 287060, Note_off_c, 6, 57, 64
8, 287100, Note_on_c, 6, 62, 32
8, 287254, Note_off_c, 6, 62, 64
8, 287520, Note_on_c, 6, 57, 32
8, 287674, Note_off_c, 6, 57, 64
8, 288000, Note_on_c, 6, 57, 32
8, 288154, Note_off_c, 6, 57, 64
8, 288480, Note_on_c, 6, 57, 32
8, 288620, Note_off_c, 6, 57, 64
8, 289440, Note_on_c, 6, 69, 32
8, 289760, Note_off_c, 6, 69, 64
8, 289920, Note_on_c, 6, 74, 32
8, 290754, Note_off_c, 6, 74, 64
8, 290880, Note_on_c, 6, 78, 36
8, 291200, Note_off_c, 6, 78, 64
8, 291360, Note_on_c, 6, 81, 38
8, 291680, Note_off_c, 6, 81, 64
8, 291840, Note_on_c, 6, 78, 40
8, 292204, Note_off_c, 6, 78, 64
8, 292320, Note_on_c, 6, 78, 42
8, 292794, Note_off_c, 6, 78, 64
8, 292800, Note_on_c, 6, 81, 44
8, 293240, Note_off_c, 6, 81, 64
8, 293280, Note_on_c, 6, 85, 46
8, 293600, Note_off_c, 6, 85, 64
8, 293760, Note_on_c, 6, 86, 48
8, 294000, Note_off_c, 6, 86, 64
8, 294000, Note_on_c, 6, 83, 48
8, 294234, Note_off_c, 6, 83, 64
8, 294240, Note_on_c, 6, 81, 48
8, 294880, Note_off_c, 6, 81, 64
8, 295200, Note_on_c, 6, 85, 48
8, 295654, Note_off_c, 6, 85, 64
8, 295680, Note_on_c, 6, 86, 48
8, 296140, Note_off_c, 6, 86, 64
8, 296160, Note_on_c, 6, 81, 48
8, 296604, Note_off_c, 6, 81, 64
8, 296640, Note_on_c, 6, 83, 48
8, 297074, Note_off_c, 6, 83, 64
8, 297120, Note_on_c, 6, 81, 48
8, 297554, Note_off_c, 6, 81, 64
8, 297600, Note_on_c, 6, 78, 48
8, 298020, Note_off_c, 6, 78, 64
8, 298080, Note_on_c, 6, 79, 48
8, 298494, Note_off_c, 6, 79, 64
8, 298560, Note_on_c, 6, 78, 48
8, 298980, Note_off_c, 6, 78, 64
8, 299040, Note_on_c, 6, 74, 47
8, 299394, Note_off_c, 6, 74, 64
8, 299520, Note_on_c, 6, 78, 46
8, 299720, Note_off_c, 6, 78, 64
8, 299760, Note_on_c, 6, 76, 45
8, 299974, Note_off_c, 6, 76, 64
8, 300000, Note_on_c, 6, 74, 44
8, 300160, Note_off_c, 6, 74, 64
8, 300960, Note_on_c, 6, 72, 32
8, 301060, Note_off_c, 6, 72, 64
8, 301440, Note_on_c, 6, 77, 32
8, 301534, Note_off_c, 6, 77, 64
8, 301920, Note_on_c, 6, 72, 32
8, 302030, Note_off_c, 6, 72, 64
8, 302400, Note_on_c, 6, 74, 32
8, 302500, Note_off_c, 6, 74, 64
8, 302880, Note_on_c, 6, 72, 32
8, 302990, Note_off_c, 6, 72, 64
8, 303360, Note_on_c, 6, 69, 32
8, 303464, Note_off_c, 6, 69, 64
8, 303840, Note_on_c, 6, 70, 32
8, 303944, Note_off_c, 6, 70, 64
8, 304320, Note_on_c, 6, 69, 32
8, 304424, Note_off_c, 6, 69, 64
8, 304800, Note_on_c, 6, 65, 32
8, 304900, Note_off_c, 6, 65, 64
8, 305280, Note_on_c, 6, 67, 32
8, 305384, Note_off_c, 6, 67, 64
8, 305760, Note_on_c, 6, 69, 32
8, 305864, Note_off_c, 6, 69, 64
8, 306240, Note_on_c, 6, 65, 32
8, 306350, Note_off_c, 6, 65, 64
8, 306720, Note_on_c, 6, 67, 32
8, 306820, Note_off_c, 6, 67, 64
8, 307200, Note_on_c, 6, 65, 32
8, 307220, Note_off_c, 6, 65, 64
8, 307260, Note_on_c, 6, 69, 32
8, 307414, Note_off_c, 6, 69, 64
8, 307680, Note_on_c, 6, 65, 32
8, 307834, Note_off_c, 6, 65, 64
8, 308160, Note_on_c, 6, 67, 32
8, 308314, Note_off_c, 6, 67, 64
8, 308640, Note_on_c, 6, 62, 32
8, 308660, Note_off_c, 6, 62, 64
8, 308700, Note_on_c, 6, 65, 32
8, 308854, Note_off_c, 6, 65, 64
8, 309120, Note_on_c, 6, 62, 32
8, 309274, Note_off_c, 6, 62, 64
8, 309600, Note_on_c, 6, 64, 32
8, 309754, Note_off_c, 6, 64, 64
8, 310080, Note_on_c, 6, 57, 32
8, 310100, Note_off_c, 6, 57, 64
8, 310140, Note_on_c, 6, 62, 32
8, 310294, Note_off_c, 6, 62, 64
8, 310560, Note_on_c, 6, 57, 32
8, 310714, Note_off_c, 6, 57, 64
8, 311040, Note_on_c, 6, 57, 32
8, 311194, Note_off_c, 6, 57, 64
8, 311520, Note_on_c, 6, 57, 32
8, 311660, Note_off_c, 6, 57, 64
8, 312480, Note_on_c, 6, 69, 32
8, 312800, Note_off_c, 6, 69, 64
8, 312960, Note_on_c, 6, 74, 32
8, 313794, Note_off_c, 6, 74, 64
8, 313920, Note_on_c, 6, 78, 36
8, 314240, Note_off_c, 6, 78, 64
8, 314400, Note_on_c, 6, 81, 38
8, 314720, Note_off_c, 6, 81, 64
8, 314880, Note_on_c, 6, 78, 40
8, 315244, Note_off_c, 6, 78, 64
8, 315360, Note_on_c, 6, 78, 42
8, 315834, Note_off_c, 6, 78, 64
8, 315840, Note_on_c, 6, 81, 44
8, 316280, Note_off_c, 6, 81, 64
8, 316320, Note_on_c, 6, 85, 46
8, 316640, Note_off_c, 6, 85, 64
8, 316800, Note_on_c, 6, 86, 48
8, 317040, Note_off_c, 6, 86, 64
8, 317040, Note_on_c, 6, 83, 48
8, 317274, Note_off_c, 6, 83, 64
8, 317280, Note_on_c, 6, 81, 48
8, 317920, Note_off_c, 6, 81, 64
8, 318240, Note_on_c, 6, 85, 48
8, 318694, Note_off_c, 6, 85, 64
8, 318720, Note_on_c, 6, 86, 48
8, 319180, Note_off_c, 6, 86, 64
8, 319200, Note_on_c, 6, 81, 48
8, 319644, Note_off_c, 6, 81, 64
8, 319680, Note_on_c, 6, 83, 48
8, 320114, Note_off_c, 6, 83, 64
8, 320160, Note_on_c, 6, 81, 48
8, 320594, Note_off_c, 6, 81, 64
8, 320640, Note_on_c, 6, 78, 48
8, 321060, Note_off_c, 6, 78, 64
8, 321120, Note_on_c, 6, 79, 48
8, 321534, Note_off_c, 6, 79, 64
8, 321600, Note_on_c, 6, 78, 48
8, 322020, Note_off_c, 6, 78, 64
8, 322080, Note_on_c, 6, 74, 47
8, 322434, Note_off_c, 6, 74, 64
8, 322560, Note_on_c, 6, 78, 46
8, 322760, Note_off_c, 6, 78, 64
8, 322800, Note_on_c, 6, 76, 45
8, 323014, Note_off_c, 6, 76, 64
8, 323040, Note_on_c, 6, 74, 44
8, 323200, Note_off_c, 6, 74, 64
8, 324000, Note_on_c, 6, 81, 30
8, 324160, Note_off_c, 6, 81, 64
8, 324480, Note_on_c, 6, 86, 30
8, 324640, Note_off_c, 6, 86, 64
8, 324960, Note_on_c, 6, 81, 30
8, 325120, Note_off_c, 6, 81, 64
8, 325440, Note_on_c, 6, 83, 30
8, 325600, Note_off_c, 6, 83, 64
8, 325920, Note_on_c, 6, 81, 30
8, 326080, Note_off_c, 6, 81, 64
8, 326400, Note_on_c, 6, 78, 30
8, 326560, Note_off_c, 6, 78, 64
8, 326880, Note_on_c, 6, 79, 30
8, 327040, Note_off_c, 6, 79, 64
8, 327360, Note_on_c, 6, 78, 30
8, 327520, Note_off_c, 6, 78, 64
8, 327840, Note_on_c, 6, 74, 30
8, 328000, Note_off_c, 6, 74, 64
8, 328320, Note_on_c, 6, 76, 30
8, 328480, Note_off_c, 6, 76, 64
8, 328800, Note_on_c, 6, 78, 30
8, 328960, Note_off_c, 6, 78, 64
8, 329280, Note_on_c, 6, 74, 30
8, 329440, Note_off_c, 6, 74, 64
8, 329760, Note_on_c, 6, 74, 30
8, 329808, Note_off_c, 6, 74, 64
8, 330240, Note_on_c, 6, 79, 30
8, 330400, Note_off_c, 6, 79, 64
8, 330720, Note_on_c, 6, 74, 30
8, 330880, Note_off_c, 6, 74, 64
8, 331200, Note_on_c, 6, 76, 30
8, 331360, Note_off_c, 6, 76, 64
8, 331680, Note_on_c, 6, 74, 30
8, 331840, Note_off_c, 6, 74, 64
8, 332160, Note_on_c, 6, 71, 30
8, 332320, Note_off_c, 6, 71, 64
8, 332640, Note_on_c, 6, 72, 30
8, 332800, Note_off_c, 6, 72, 64
8, 333120, Note_on_c, 6, 71, 30
8, 333280, Note_off_c, 6, 71, 64
8, 333600, Note_on_c, 6, 67, 30
8, 333760, Note_off_c, 6, 67, 64
8, 334080, Note_on_c, 6, 69, 30
8, 334240, Note_off_c, 6, 69, 64
8, 334560, Note_on_c, 6, 71, 30
8, 334720, Note_off_c, 6, 71, 64
8, 335040, Note_on_c, 6, 67, 30
8, 335200, Note_off_c, 6, 67, 64
8, 335520, Note_on_c, 6, 67, 30
8, 335568, Note_off_c, 6, 67, 64
8, 336000, Note_on_c, 6, 72, 32
8, 336640, Note_off_c, 6, 72, 64
8, 336960, Note_on_c, 6, 76, 37
8, 337280, Note_off_c, 6, 76, 64
8, 337440, Note_on_c, 6, 79, 40
8, 337760, Note_off_c, 6, 79, 64
8, 337920, Note_on_c, 6, 76, 42
8, 338240, Note_off_c, 6, 76, 64
8, 338400, Note_on_c, 6, 76, 45
8, 338720, Note_off_c, 6, 76, 64
8, 338880, Note_on_c, 6, 79, 48
8, 339200, Note_off_c, 6, 79, 64
8, 339360, Note_on_c, 6, 83, 50
8, 339680, Note_off_c, 6, 83, 64
8, 339840, Note_on_c, 6, 84, 53
8, 340000, Note_off_c, 6, 84, 64
8, 340080, Note_on_c, 6, 81, 54
8, 340240, Note_off_c, 6, 81, 64
8, 340320, Note_on_c, 6, 79, 56
8, 340960, Note_off_c, 6, 79, 64
8, 341280, Note_on_c, 6, 83, 64
8, 341600, Note_off_c, 6, 83, 64
8, 341760, Note_on_c, 6, 84, 64
8, 342080, Note_off_c, 6, 84, 64
8, 342240, Note_on_c, 6, 79, 64
8, 342560, Note_off_c, 6, 79, 64
8, 342720, Note_on_c, 6, 81, 64
8, 343040, Note_off_c, 6, 81, 64
8, 343200, Note_on_c, 6, 79, 64
8, 343520, Note_off_c, 6, 79, 64
8, 343680, Note_on_c, 6, 76, 64
8, 344000, Note_off_c, 6, 76, 64
8, 344160, Note_on_c, 6, 77, 64
8, 344480, Note_off_c, 6, 77, 64
8, 344640, Note_on_c, 6, 76, 64
8, 344960, Note_off_c, 6, 76, 64
8, 345120, Note_on_c, 6, 72, 64
8, 345440, Note_off_c, 6, 72, 64
8, 345600, Note_on_c, 6, 74, 64
8, 345920, Note_off_c, 6, 74, 64
8, 346080, Note_on_c, 6, 76, 64
8, 346400, Note_off_c, 6, 76, 64
8, 346560, Note_on_c, 6, 72, 64
8, 346880, Note_off_c, 6, 72, 64
8, 347040, Note_on_c, 6, 72, 64
8, 347360, Note_off_c, 6, 72, 64
8, 347520, Note_on_c, 6, 84, 50
8, 347840, Note_off_c, 6, 84, 64
8, 348000, Note_on_c, 6, 81, 53
8, 348320, Note_off_c, 6, 81, 64
8, 348480, Note_on_c, 6, 82, 57
8, 348800, Note_off_c, 6, 82, 64
8, 348960, Note_on_c, 6, 81, 61
8, 349280, Note_off_c, 6, 81, 64
8, 349440, Note_on_c, 6, 77, 65
8, 349760, Note_off_c, 6, 77, 64
8, 349920, Note_on_c, 6, 79, 69
8, 350240, Note_off_c, 6, 79, 64
8, 350400, Note_on_c, 6, 77, 73
8, 350720, Note_off_c, 6, 77, 64
8, 350880, Note_on_c, 6, 72, 76
8, 351200, Note_off_c, 6, 72, 64
8, 351360, Note_on_c, 6, 79, 80
8, 351680, Note_off_c, 6, 79, 64
8, 351840, Note_on_c, 6, 81, 84
8, 352160, Note_off_c, 6, 81, 64
8, 352320, Note_on_c, 6, 77, 88
8, 352640, Note_off_c, 6, 77, 64
8, 352800, Note_on_c, 6, 84, 92
8, 353120, Note_off_c, 6, 84, 64
8, 353280, Note_on_c, 6, 89, 96
8, 353600, Note_off_c, 6, 89, 64
8, 353760, Note_on_c, 6, 84, 96
8, 354080, Note_off_c, 6, 84, 64
8, 354240, Note_on_c, 6, 86, 96
8, 354560, Note_off_c, 6, 86, 64
8, 354720, Note_on_c, 6, 84, 96
8, 355040, Note_off_c, 6, 84, 64
8, 355200, Note_on_c, 6, 81, 96
8, 355520, Note_off_c, 6, 81, 64
8, 355680, Note_on_c, 6, 82, 96
8, 356000, Note_off_c, 6, 82, 64
8, 356160, Note_on_c, 6, 81, 127
8, 356480, Note_off_c, 6, 81, 64
8, 356640, Note_on_c, 6, 77, 96
8, 356960, Note_off_c, 6, 77, 64
8, 357120, Note_on_c, 6, 79, 96
8, 357440, Note_off_c, 6, 79, 64
8, 357600, Note_on_c, 6, 81, 127
8, 357920, Note_off_c, 6, 81, 64
8, 358080, Note_on_c, 6, 77, 96
8, 358400, Note_off_c, 6, 77, 64
8, 358560, Note_on_c, 6, 79, 96
8, 358880, Note_off_c, 6, 79, 64
8, 359040, Note_on_c, 6, 81, 127
8, 359360, Note_off_c, 6, 81, 64
8, 359520, Note_on_c, 6, 77, 96
8, 359840, Note_off_c, 6, 77, 64
8, 360000, Note_on_c, 6, 79, 96
8, 360320, Note_off_c, 6, 79, 64
8, 360480, Note_on_c, 6, 81, 127
8, 360800, Note_off_c, 6, 81, 64
8, 360960, Note_on_c, 6, 77, 96
8, 361280, Note_off_c, 6, 77, 64
8, 361440, Note_on_c, 6, 79, 96
8, 361760, Note_off_c, 6, 79, 64
8, 361920, Note_on_c, 6, 81, 119
8, 362880, Note_off_c, 6, 81, 64
8, 363360, Note_on_c, 6, 79, 96
8, 363400, Note_off_c, 6, 79, 64
8, 363400, Note_on_c, 6, 81, 96
8, 363440, Note_off_c, 6, 81, 64
8, 363440, Note_on_c, 6, 79, 96
8, 363914, Note_off_c, 6, 79, 64
8, 364320, Note_on_c, 6, 77, 96
8, 364640, Note_off_c, 6, 77, 64
8, 364800, Note_on_c, 6, 76, 96
8, 364840, Note_off_c, 6, 76, 64
8, 364840, Note_on_c, 6, 77, 96
8, 364880, Note_off_c, 6, 77, 64
8, 364880, Note_on_c, 6, 76, 96
8, 365354, Note_off_c, 6, 76, 64
8, 365760, Note_on_c, 6, 74, 96
8, 366080, Note_off_c, 6, 74, 64
8, 366240, Note_on_c, 6, 72, 96
8, 366880, Note_off_c, 6, 72, 64
8, 367200, Note_on_c, 6, 76, 96
8, 367520, Note_off_c, 6, 76, 64
8, 367680, Note_on_c, 6, 72, 113
8, 367680, Note_on_c, 6, 65, 111
8, 367680, Note_on_c, 6, 77, 112
8, 368000, Note_off_c, 6, 65, 64
8, 368000, Note_off_c, 6, 72, 64
8, 368924, Note_off_c, 6, 77, 64
8, 369120, Note_on_c, 6, 79, 109
8, 370340, Note_off_c, 6, 79, 64
8, 370560, Note_on_c, 6, 81, 114
8, 371810, Note_off_c, 6, 81, 64
8, 372000, Note_on_c, 6, 79, 115
8, 372000, Note_on_c, 6, 64, 96
8, 372000, Note_on_c, 6, 72, 96
8, 372320, Note_off_c, 6, 72, 64
8, 372320, Note_off_c, 6, 64, 64
8, 373240, Note_off_c, 6, 79, 64
8, 373440, Note_on_c, 6, 81, 96
8, 373440, Note_on_c, 6, 72, 96
8, 373440, Note_on_c, 6, 65, 96
8, 373760, Note_off_c, 6, 65, 64
8, 373760, Note_off_c, 6, 72, 64
8, 373760, Note_off_c, 6, 81, 64
8, 374400, Note_on_c, 6, 81, 96
8, 374720, Note_off_c, 6, 81, 64
8, 374880, Note_on_c, 6, 79, 96
8, 374920, Note_off_c, 6, 79, 64
8, 374920, Note_on_c, 6, 81, 96
8, 374960, Note_off_c, 6, 81, 64
8, 374960, Note_on_c, 6, 79, 96
8, 375434, Note_off_c, 6, 79, 64
8, 375840, Note_on_c, 6, 77, 96
8, 376160, Note_off_c, 6, 77, 64
8, 376320, Note_on_c, 6, 76, 96
8, 376360, Note_off_c, 6, 76, 64
8, 376360, Note_on_c, 6, 77, 96
8, 376400, Note_off_c, 6, 77, 64
8, 376400, Note_on_c, 6, 76, 96
8, 376874, Note_off_c, 6, 76, 64
8, 377280, Note_on_c, 6, 74, 96
8, 377600, Note_off_c, 6, 74, 64
8, 377760, Note_on_c, 6, 72, 96
8, 378400, Note_off_c, 6, 72, 64
8, 378720, Note_on_c, 6, 76, 96
8, 379040, Note_off_c, 6, 76, 64
8, 379200, Note_on_c, 6, 72, 96
8, 379200, Note_on_c, 6, 65, 96
8, 379200, Note_on_c, 6, 77, 96
8, 379670, Note_off_c, 6, 72, 64
8, 379674, Note_off_c, 6, 65, 64
8, 380374, Note_off_c, 6, 77, 64
8, 380640, Note_on_c, 6, 79, 96
8, 381794, Note_off_c, 6, 79, 64
8, 382080, Note_on_c, 6, 81, 96
8, 383234, Note_off_c, 6, 81, 64
8, 383520, Note_on_c, 6, 79, 96
8, 383520, Note_on_c, 6, 64, 96
8, 383520, Note_on_c, 6, 72, 96
8, 383994, Note_off_c, 6, 72, 64
8, 383994, Note_off_c, 6, 64, 64
8, 384730, Note_off_c, 6, 79, 64
8, 384960, Note_on_c, 6, 77, 96
8, 384960, Note_on_c, 6, 72, 96
8, 384960, Note_on_c, 6, 65, 96
8, 385280, Note_off_c, 6, 65, 64
8, 385280, Note_off_c, 6, 72, 64
8, 385280, Note_off_c, 6, 77, 64
8, 387840, Note_on_c, 6, 69, 96
8, 388000, Note_off_c, 6, 69, 64
8, 388080, Note_on_c, 6, 72, 96
8, 388240, Note_off_c, 6, 72, 64
8, 388320, Note_on_c, 6, 77, 96
8, 388480, Note_off_c, 6, 77, 64
8, 388560, Note_on_c, 6, 81, 96
8, 388720, Note_off_c, 6, 81, 64
8, 388800, Note_on_c, 6, 84, 96
8, 388960, Note_off_c, 6, 84, 64
8, 389280, Note_on_c, 6, 67, 96
8, 389280, Note_on_c, 6, 76, 96
8, 389600, Note_off_c, 6, 76, 64
8, 389600, Note_off_c, 6, 67, 64
8, 389760, Note_on_c, 6, 67, 96
8, 389760, Note_on_c, 6, 76, 96
8, 390080, Note_off_c, 6, 76, 64
8, 390080, Note_off_c, 6, 67, 64
8, 390240, Note_on_c, 6, 67, 96
8, 390240, Note_on_c, 6, 76, 96
8, 390560, Note_off_c, 6, 76, 64
8, 390560, Note_off_c, 6, 67, 64
8, 390720, Note_on_c, 6, 77, 96
8, 390720, Note_on_c, 6, 69, 96
8, 390720, Note_on_c, 6, 65, 96
8, 391040, Note_off_c, 6, 65, 64
8, 391040, Note_off_c, 6, 69, 64
8, 391040, Note_off_c, 6, 77, 64
8, 393600, Note_on_c, 6, 69, 96
8, 393760, Note_off_c, 6, 69, 64
8, 393840, Note_on_c, 6, 72, 96
8, 394000, Note_off_c, 6, 72, 64
8, 394080, Note_on_c, 6, 77, 96
8, 394240, Note_off_c, 6, 77, 64
8, 394320, Note_on_c, 6, 81, 96
8, 394480, Note_off_c, 6, 81, 64
8, 394560, Note_on_c, 6, 84, 96
8, 394720, Note_off_c, 6, 84, 64
8, 395040, Note_on_c, 6, 67, 96
8, 395040, Note_on_c, 6, 76, 96
8, 395360, Note_off_c, 6, 76, 64
8, 395360, Note_off_c, 6, 67, 64
8, 395520, Note_on_c, 6, 67, 96
8, 395520, Note_on_c, 6, 76, 96
8, 395840, Note_off_c, 6, 76, 64
8, 395840, Note_off_c, 6, 67, 64
8, 396000, Note_on_c, 6, 67, 96
8, 396000, Note_on_c, 6, 76, 96
8, 396320, Note_off_c, 6, 76, 64
8, 396320, Note_off_c, 6, 67, 64
8, 396480, Note_on_c, 6, 77, 96
8, 396480, Note_on_c, 6, 69, 96
8, 396480, Note_on_c, 6, 65, 96
8, 396800, Note_off_c, 6, 65, 64
8, 396800, Note_off_c, 6, 69, 64
8, 396800, Note_off_c, 6, 77, 64
8, 399360, Note_on_c, 6, 77, 64
8, 399360, Note_on_c, 6, 69, 64
8, 399360, Note_on_c, 6, 65, 64
8, 399680, Note_off_c, 6, 65, 64
8, 399680, Note_off_c, 6, 69, 64
8, 399680, Note_off_c, 6, 77, 64
8, 402240, Note_on_c, 6, 72, 64
8, 402394, Note_off_c, 6, 72, 64
8, 402720, Note_on_c, 6, 69, 62
8, 402870, Note_off_c, 6, 69, 64
8, 403200, Note_on_c, 6, 69, 59
8, 403350, Note_off_c, 6, 69, 64
8, 403680, Note_on_c, 6, 72, 56
8, 403824, Note_off_c, 6, 72, 64
8, 404160, Note_on_c, 6, 69, 54
8, 404280, Note_off_c, 6, 69, 64
8, 404640, Note_on_c, 6, 69, 51
8, 404784, Note_off_c, 6, 69, 64
8, 405120, Note_on_c, 6, 72, 48
8, 405274, Note_off_c, 6, 72, 64
8, 405600, Note_on_c, 6, 69, 46
8, 405764, Note_off_c, 6, 69, 64
8, 406080, Note_on_c, 6, 69, 43
8, 406224, Note_off_c, 6, 69, 64
8, 406560, Note_on_c, 6, 72, 40
8, 406724, Note_off_c, 6, 72, 64
8, 407040, Note_on_c, 6, 69, 40
8, 407190, Note_off_c, 6, 69, 64
8, 407520, Note_on_c, 6, 69, 40
8, 407680, Note_off_c, 6, 69, 64
8, 408000, Note_on_c, 6, 72, 40
8, 408130, Note_off_c, 6, 72, 64
8, 408480, Note_on_c, 6, 69, 40
8, 408634, Note_off_c, 6, 69, 64
8, 408960, Note_on_c, 6, 69, 40
8, 409094, Note_off_c, 6, 69, 64
8, 409440, Note_on_c, 6, 72, 40
8, 409580, Note_off_c, 6, 72, 64
8, 409920, Note_on_c, 6, 69, 40
8, 410060, Note_off_c, 6, 69, 64
8, 410400, Note_on_c, 6, 69, 40
8, 410530, Note_off_c, 6, 69, 64
8, 410880, Note_on_c, 6, 72, 40
8, 411024, Note_off_c, 6, 72, 64
8, 411360, Note_on_c, 6, 70, 40
8, 411484, Note_off_c, 6, 70, 64
8, 411840, Note_on_c, 6, 70, 40
8, 411974, Note_off_c, 6, 70, 64
8, 412320, Note_on_c, 6, 72, 40
8, 412454, Note_off_c, 6, 72, 64
8, 412800, Note_on_c, 6, 70, 40
8, 412960, Note_off_c, 6, 70, 64
8, 413280, Note_on_c, 6, 70, 40
8, 413414, Note_off_c, 6, 70, 64
8, 413760, Note_on_c, 6, 72, 40
8, 413910, Note_off_c, 6, 72, 64
8, 414240, Note_on_c, 6, 69, 40
8, 414384, Note_off_c, 6, 69, 64
8, 414720, Note_on_c, 6, 69, 40
8, 414864, Note_off_c, 6, 69, 64
8, 415200, Note_on_c, 6, 72, 40
8, 415334, Note_off_c, 6, 72, 64
8, 415680, Note_on_c, 6, 67, 40
8, 415824, Note_off_c, 6, 67, 64
8, 416160, Note_on_c, 6, 67, 40
8, 416294, Note_off_c, 6, 67, 64
8, 416640, Note_on_c, 6, 72, 40
8, 416780, Note_off_c, 6, 72, 64
8, 417120, Note_on_c, 6, 69, 40
8, 417260, Note_off_c, 6, 69, 64
8, 417600, Note_on_c, 6, 69, 40
8, 417730, Note_off_c, 6, 69, 64
8, 418080, Note_on_c, 6, 72, 40
8, 418220, Note_off_c, 6, 72, 64
8, 418560, Note_on_c, 6, 69, 40
8, 418700, Note_off_c, 6, 69, 64
8, 419040, Note_on_c, 6, 69, 40
8, 419170, Note_off_c, 6, 69, 64
8, 419520, Note_on_c, 6, 72, 40
8, 419660, Note_off_c, 6, 72, 64
8, 420000, Note_on_c, 6, 69, 40
8, 420140, Note_off_c, 6, 69, 64
8, 420480, Note_on_c, 6, 69, 40
8, 420610, Note_off_c, 6, 69, 64
8, 420960, Note_on_c, 6, 72, 40
8, 421100, Note_off_c, 6, 72, 64
8, 421440, Note_on_c, 6, 69, 40
8, 421580, Note_off_c, 6, 69, 64
8, 421920, Note_on_c, 6, 69, 40
8, 422050, Note_off_c, 6, 69, 64
8, 422400, Note_on_c, 6, 72, 40
8, 422544, Note_off_c, 6, 72, 64
8, 422880, Note_on_c, 6, 70, 40
8, 423004, Note_off_c, 6, 70, 64
8, 423360, Note_on_c, 6, 70, 40
8, 423494, Note_off_c, 6, 70, 64
8, 423840, Note_on_c, 6, 72, 40
8, 423984, Note_off_c, 6, 72, 64
8, 424320, Note_on_c, 6, 70, 40
8, 424444, Note_off_c, 6, 70, 64
8, 424800, Note_on_c, 6, 70, 40
8, 424934, Note_off_c, 6, 70, 64
8, 425280, Note_on_c, 6, 72, 40
8, 425420, Note_off_c, 6, 72, 64
8, 425760, Note_on_c, 6, 69, 40
8, 425900, Note_off_c, 6, 69, 64
8, 426240, Note_on_c, 6, 69, 40
8, 426370, Note_off_c, 6, 69, 64
8, 426720, Note_on_c, 6, 72, 40
8, 426854, Note_off_c, 6, 72, 64
8, 427200, Note_on_c, 6, 67, 40
8, 427344, Note_off_c, 6, 67, 64
8, 427680, Note_on_c, 6, 67, 40
8, 427814, Note_off_c, 6, 67, 64
8, 428160, Note_on_c, 6, 72, 40
8, 428294, Note_off_c, 6, 72, 64
8, 428640, Note_on_c, 6, 67, 40
8, 428784, Note_off_c, 6, 67, 64
8, 429120, Note_on_c, 6, 67, 40
8, 429254, Note_off_c, 6, 67, 64
8, 429600, Note_on_c, 6, 72, 40
8, 429740, Note_off_c, 6, 72, 64
8, 430080, Note_on_c, 6, 69, 40
8, 430220, Note_off_c, 6, 69, 64
8, 430560, Note_on_c, 6, 69, 40
8, 430690, Note_off_c, 6, 69, 64
8, 431040, Note_on_c, 6, 72, 40
8, 431180, Note_off_c, 6, 72, 64
8, 431520, Note_on_c, 6, 69, 40
8, 431660, Note_off_c, 6, 69, 64
8, 432000, Note_on_c, 6, 69, 40
8, 432130, Note_off_c, 6, 69, 64
8, 432480, Note_on_c, 6, 72, 40
8, 432620, Note_off_c, 6, 72, 64
8, 432960, Note_on_c, 6, 69, 40
8, 433100, Note_off_c, 6, 69, 64
8, 433440, Note_on_c, 6, 69, 40
8, 433570, Note_off_c, 6, 69, 64
8, 433920, Note_on_c, 6, 72, 40
8, 434064, Note_off_c, 6, 72, 64
8, 434400, Note_on_c, 6, 70, 40
8, 434524, Note_off_c, 6, 70, 64
8, 434880, Note_on_c, 6, 70, 40
8, 435014, Note_off_c, 6, 70, 64
8, 435360, Note_on_c, 6, 72, 40
8, 435504, Note_off_c, 6, 72, 64
8, 435840, Note_on_c, 6, 70, 40
8, 435964, Note_off_c, 6, 70, 64
8, 436320, Note_on_c, 6, 70, 40
8, 436454, Note_off_c, 6, 70, 64
8, 436800, Note_on_c, 6, 72, 40
8, 436940, Note_off_c, 6, 72, 64
8, 437280, Note_on_c, 6, 69, 40
8, 437420, Note_off_c, 6, 69, 64
8, 437760, Note_on_c, 6, 69, 40
8, 437890, Note_off_c, 6, 69, 64
8, 438240, Note_on_c, 6, 72, 40
8, 438374, Note_off_c, 6, 72, 64
8, 438720, Note_on_c, 6, 67, 40
8, 438864, Note_off_c, 6, 67, 64
8, 439200, Note_on_c, 6, 67, 40
8, 439334, Note_off_c, 6, 67, 64
8, 439680, Note_on_c, 6, 72, 40
8, 439820, Note_off_c, 6, 72, 64
8, 440160, Note_on_c, 6, 69, 40
8, 440300, Note_off_c, 6, 69, 64
8, 440640, Note_on_c, 6, 69, 40
8, 440770, Note_off_c, 6, 69, 64
8, 441120, Note_on_c, 6, 72, 40
8, 441260, Note_off_c, 6, 72, 64
8, 441600, Note_on_c, 6, 69, 40
8, 441740, Note_off_c, 6, 69, 64
8, 442080, Note_on_c, 6, 69, 40
8, 442210, Note_off_c, 6, 69, 64
8, 442560, Note_on_c, 6, 72, 40
8, 442700, Note_off_c, 6, 72, 64
8, 443040, Note_on_c, 6, 69, 40
8, 443180, Note_off_c, 6, 69, 64
8, 443520, Note_on_c, 6, 69, 40
8, 443650, Note_off_c, 6, 69, 64
8, 444000, Note_on_c, 6, 72, 40
8, 444140, Note_off_c, 6, 72, 64
8, 444480, Note_on_c, 6, 69, 40
8, 444620, Note_off_c, 6, 69, 64
8, 444960, Note_on_c, 6, 69, 40
8, 445090, Note_off_c, 6, 69, 64
8, 445440, Note_on_c, 6, 72, 40
8, 445584, Note_off_c, 6, 72, 64
8, 445920, Note_on_c, 6, 70, 40
8, 446044, Note_off_c, 6, 70, 64
8, 446400, Note_on_c, 6, 70, 40
8, 446534, Note_off_c, 6, 70, 64
8, 446880, Note_on_c, 6, 72, 40
8, 447024, Note_off_c, 6, 72, 64
8, 447360, Note_on_c, 6, 70, 40
8, 447484, Note_off_c, 6, 70, 64
8, 447840, Note_on_c, 6, 70, 40
8, 447974, Note_off_c, 6, 70, 64
8, 448320, Note_on_c, 6, 72, 40
8, 448460, Note_off_c, 6, 72, 64
8, 448800, Note_on_c, 6, 69, 40
8, 448940, Note_off_c, 6, 69, 64
8, 449280, Note_on_c, 6, 69, 40
8, 449410, Note_off_c, 6, 69, 64
8, 449760, Note_on_c, 6, 72, 40
8, 449894, Note_off_c, 6, 72, 64
8, 450240, Note_on_c, 6, 67, 40
8, 450384, Note_off_c, 6, 67, 64
8, 450720, Note_on_c, 6, 67, 40
8, 450854, Note_off_c, 6, 67, 64
8, 451200, Note_on_c, 6, 72, 40
8, 451334, Note_off_c, 6, 72, 64
8, 451680, Note_on_c, 6, 67, 40
8, 451824, Note_off_c, 6, 67, 64
8, 452160, Note_on_c, 6, 67, 40
8, 452294, Note_off_c, 6, 67, 64
8, 452640, Note_on_c, 6, 72, 40
8, 452780, Note_off_c, 6, 72, 64
8, 453120, Note_on_c, 6, 69, 40
8, 453260, Note_off_c, 6, 69, 64
8, 453600, Note_on_c, 6, 69, 40
8, 453730, Note_off_c, 6, 69, 64
8, 465600, Note_on_c, 6, 72, 48
8, 465760, Note_off_c, 6, 72, 64
8, 466080, Note_on_c, 6, 67, 52
8, 466280, Note_off_c, 6, 67, 64
8, 466560, Note_on_c, 6, 67, 56
8, 466730, Note_off_c, 6, 67, 64
8, 467040, Note_on_c, 6, 72, 60
8, 467190, Note_off_c, 6, 72, 64
8, 467520, Note_on_c, 6, 67, 64
8, 467684, Note_off_c, 6, 67, 64
8, 468000, Note_on_c, 6, 67, 68
8, 468150, Note_off_c, 6, 67, 64
8, 468480, Note_on_c, 6, 72, 40
8, 468610, Note_off_c, 6, 72, 64
8, 468960, Note_on_c, 6, 69, 40
8, 469114, Note_off_c, 6, 69, 64
8, 469440, Note_on_c, 6, 69, 40
8, 469574, Note_off_c, 6, 69, 64
8, 469920, Note_on_c, 6, 72, 40
8, 470060, Note_off_c, 6, 72, 64
8, 470400, Note_on_c, 6, 69, 40
8, 470540, Note_off_c, 6, 69, 64
8, 470880, Note_on_c, 6, 69, 40
8, 471010, Note_off_c, 6, 69, 64
8, 471360, Note_on_c, 6, 72, 40
8, 471504, Note_off_c, 6, 72, 64
8, 471840, Note_on_c, 6, 70, 40
8, 471964, Note_off_c, 6, 70, 64
8, 472320, Note_on_c, 6, 70, 40
8, 472454, Note_off_c, 6, 70, 64
8, 472800, Note_on_c, 6, 72, 40
8, 472934, Note_off_c, 6, 72, 64
8, 473280, Note_on_c, 6, 70, 40
8, 473440, Note_off_c, 6, 70, 64
8, 473760, Note_on_c, 6, 70, 40
8, 473894, Note_off_c, 6, 70, 64
8, 474240, Note_on_c, 6, 72, 40
8, 474390, Note_off_c, 6, 72, 64
8, 474720, Note_on_c, 6, 69, 40
8, 474864, Note_off_c, 6, 69, 64
8, 475200, Note_on_c, 6, 69, 40
8, 475344, Note_off_c, 6, 69, 64
8, 475680, Note_on_c, 6, 72, 40
8, 475814, Note_off_c, 6, 72, 64
8, 476160, Note_on_c, 6, 67, 40
8, 476304, Note_off_c, 6, 67, 64
8, 476640, Note_on_c, 6, 67, 40
8, 476774, Note_off_c, 6, 67, 64
8, 477120, Note_on_c, 6, 72, 40
8, 477260, Note_off_c, 6, 72, 64
8, 477600, Note_on_c, 6, 69, 40
8, 477740, Note_off_c, 6, 69, 64
8, 478080, Note_on_c, 6, 69, 40
8, 478210, Note_off_c, 6, 69, 64
8, 478560, Note_on_c, 6, 72, 40
8, 478700, Note_off_c, 6, 72, 64
8, 479040, Note_on_c, 6, 69, 40
8, 479180, Note_off_c, 6, 69, 64
8, 479520, Note_on_c, 6, 69, 40
8, 479650, Note_off_c, 6, 69, 64
8, 480000, Note_on_c, 6, 72, 40
8, 480140, Note_off_c, 6, 72, 64
8, 480480, Note_on_c, 6, 69, 40
8, 480620, Note_off_c, 6, 69, 64
8, 480960, Note_on_c, 6, 69, 40
8, 481090, Note_off_c, 6, 69, 64
8, 481440, Note_on_c, 6, 72, 40
8, 481580, Note_off_c, 6, 72, 64
8, 481920, Note_on_c, 6, 69, 40
8, 482060, Note_off_c, 6, 69, 64
8, 482400, Note_on_c, 6, 69, 40
8, 482530, Note_off_c, 6, 69, 64
8, 482880, Note_on_c, 6, 72, 40
8, 483024, Note_off_c, 6, 72, 64
8, 483360, Note_on_c, 6, 70, 40
8, 483484, Note_off_c, 6, 70, 64
8, 483840, Note_on_c, 6, 70, 40
8, 483974, Note_off_c, 6, 70, 64
8, 484320, Note_on_c, 6, 72, 40
8, 484464, Note_off_c, 6, 72, 64
8, 484800, Note_on_c, 6, 70, 40
8, 484924, Note_off_c, 6, 70, 64
8, 485280, Note_on_c, 6, 70, 40
8, 485414, Note_off_c, 6, 70, 64
8, 485760, Note_on_c, 6, 72, 40
8, 485900, Note_off_c, 6, 72, 64
8, 486240, Note_on_c, 6, 69, 40
8, 486380, Note_off_c, 6, 69, 64
8, 486720, Note_on_c, 6, 69, 40
8, 486850, Note_off_c, 6, 69, 64
8, 487200, Note_on_c, 6, 72, 40
8, 487340, Note_off_c, 6, 72, 64
8, 487680, Note_on_c, 6, 69, 40
8, 487820, Note_off_c, 6, 69, 64
8, 488160, Note_on_c, 6, 69, 40
8, 488290, Note_off_c, 6, 69, 64
8, 488640, Note_on_c, 6, 72, 40
8, 488774, Note_off_c, 6, 72, 64
8, 489120, Note_on_c, 6, 64, 64
8, 489280, Note_off_c, 6, 64, 64
8, 489600, Note_on_c, 6, 64, 64
8, 489760, Note_off_c, 6, 64, 64
8, 490080, Note_on_c, 6, 72, 40
8, 490214, Note_off_c, 6, 72, 64
8, 490560, Note_on_c, 6, 64, 64
8, 490720, Note_off_c, 6, 64, 64
8, 491040, Note_on_c, 6, 64, 64
8, 491200, Note_off_c, 6, 64, 64
8, 491520, Note_on_c, 6, 72, 40
8, 491660, Note_off_c, 6, 72, 64
8, 492000, Note_on_c, 6, 69, 40
8, 492140, Note_off_c, 6, 69, 64
8, 492480, Note_on_c, 6, 69, 40
8, 492610, Note_off_c, 6, 69, 64
8, 492960, Note_on_c, 6, 72, 40
8, 493100, Note_off_c, 6, 72, 64
8, 493440, Note_on_c, 6, 69, 40
8, 493580, Note_off_c, 6, 69, 64
8, 493920, Note_on_c, 6, 69, 40
8, 494050, Note_off_c, 6, 69, 64
8, 494400, Note_on_c, 6, 72, 40
8, 494534, Note_off_c, 6, 72, 64
8, 494880, Note_on_c, 6, 67, 40
8, 495024, Note_off_c, 6, 67, 64
8, 495360, Note_on_c, 6, 67, 40
8, 495494, Note_off_c, 6, 67, 64
8, 495840, Note_on_c, 6, 72, 40
8, 495974, Note_off_c, 6, 72, 64
8, 496320, Note_on_c, 6, 67, 40
8, 496464, Note_off_c, 6, 67, 64
8, 496800, Note_on_c, 6, 67, 40
8, 496934, Note_off_c, 6, 67, 64
8, 497280, Note_on_c, 6, 77, 64
8, 499680, Note_off_c, 6, 77, 64
8, 500160, Note_on_c, 6, 76, 70
8, 502560, Note_off_c, 6, 76, 64
8, 503040, Note_on_c, 6, 77, 76
8, 505440, Note_off_c, 6, 77, 64
8, 505920, Note_on_c, 6, 76, 82
8, 508320, Note_off_c, 6, 76, 64
8, 508800, Note_on_c, 6, 77, 97
8, 509120, Note_off_c, 6, 77, 64
8, 514560, Note_on_c, 6, 65, 85
8, 514600, Note_off_c, 6, 65, 64
8, 514800, Note_on_c, 6, 67, 85
8, 514840, Note_off_c, 6, 67, 64
8, 514920, Note_on_c, 6, 65, 85
8, 514954, Note_off_c, 6, 65, 64
8, 515040, Note_on_c, 6, 60, 85
8, 515080, Note_off_c, 6, 60, 64
8, 515280, Note_on_c, 6, 62, 85
8, 515324, Note_off_c, 6, 62, 64
8, 515400, Note_on_c, 6, 64, 85
8, 515430, Note_off_c, 6, 64, 64
8, 515520, Note_on_c, 6, 65, 85
8, 515560, Note_off_c, 6, 65, 64
8, 515760, Note_on_c, 6, 67, 85
8, 515800, Note_off_c, 6, 67, 64
8, 515880, Note_on_c, 6, 65, 85
8, 515914, Note_off_c, 6, 65, 64
8, 516000, Note_on_c, 6, 60, 85
8, 516320, Note_off_c, 6, 60, 64
8, 516480, Note_on_c, 6, 58, 85
8, 516514, Note_off_c, 6, 58, 64
8, 516600, Note_on_c, 6, 60, 85
8, 516630, Note_off_c, 6, 60, 64
8, 516720, Note_on_c, 6, 62, 85
8, 516760, Note_off_c, 6, 62, 64
8, 516840, Note_on_c, 6, 63, 85
8, 516880, Note_off_c, 6, 63, 64
8, 516960, Note_on_c, 6, 65, 85
8, 516994, Note_off_c, 6, 65, 64
8, 517200, Note_on_c, 6, 65, 85
8, 517240, Note_off_c, 6, 65, 64
8, 517274, Note_on_c, 6, 67, 85
8, 517344, Note_off_c, 6, 67, 64
8, 517440, Note_on_c, 6, 60, 85
8, 517480, Note_off_c, 6, 60, 64
8, 517680, Note_on_c, 6, 60, 85
8, 517700, Note_off_c, 6, 60, 64
8, 517754, Note_on_c, 6, 65, 85
8, 517794, Note_off_c, 6, 65, 64
8, 517920, Note_on_c, 6, 58, 85
8, 518240, Note_off_c, 6, 58, 64
8, 518400, Note_on_c, 6, 65, 85
8, 518440, Note_off_c, 6, 65, 64
8, 518640, Note_on_c, 6, 67, 85
8, 518680, Note_off_c, 6, 67, 64
8, 518760, Note_on_c, 6, 65, 85
8, 518794, Note_off_c, 6, 65, 64
8, 518880, Note_on_c, 6, 60, 85
8, 518920, Note_off_c, 6, 60, 64
8, 519120, Note_on_c, 6, 62, 85
8, 519164, Note_off_c, 6, 62, 64
8, 519240, Note_on_c, 6, 64, 85
8, 519270, Note_off_c, 6, 64, 64
8, 519360, Note_on_c, 6, 65, 85
8, 519400, Note_off_c, 6, 65, 64
8, 519600, Note_on_c, 6, 67, 85
8, 519640, Note_off_c, 6, 67, 64
8, 519720, Note_on_c, 6, 65, 85
8, 519754, Note_off_c, 6, 65, 64
8, 519840, Note_on_c, 6, 60, 85
8, 520160, Note_off_c, 6, 60, 64
8, 520320, Note_on_c, 6, 58, 85
8, 520354, Note_off_c, 6, 58, 64
8, 520440, Note_on_c, 6, 60, 85
8, 520470, Note_off_c, 6, 60, 64
8, 520560, Note_on_c, 6, 62, 85
8, 520600, Note_off_c, 6, 62, 64
8, 520680, Note_on_c, 6, 63, 85
8, 520720, Note_off_c, 6, 63, 64
8, 520800, Note_on_c, 6, 65, 85
8, 520834, Note_off_c, 6, 65, 64
8, 521040, Note_on_c, 6, 65, 85
8, 521080, Note_off_c, 6, 65, 64
8, 521114, Note_on_c, 6, 67, 85
8, 521184, Note_off_c, 6, 67, 64
8, 521280, Note_on_c, 6, 60, 85
8, 521320, Note_off_c, 6, 60, 64
8, 521520, Note_on_c, 6, 60, 85
8, 521540, Note_off_c, 6, 60, 64
8, 521594, Note_on_c, 6, 65, 85
8, 521634, Note_off_c, 6, 65, 64
8, 521760, Note_on_c, 6, 58, 85
8, 522080, Note_off_c, 6, 58, 64
8, 522240, Note_on_c, 6, 65, 85
8, 522280, Note_off_c, 6, 65, 64
8, 522480, Note_on_c, 6, 67, 85
8, 522520, Note_off_c, 6, 67, 64
8, 522600, Note_on_c, 6, 65, 85
8, 522634, Note_off_c, 6, 65, 64
8, 522720, Note_on_c, 6, 60, 85
8, 522760, Note_off_c, 6, 60, 64
8, 522960, Note_on_c, 6, 62, 85
8, 523004, Note_off_c, 6, 62, 64
8, 523080, Note_on_c, 6, 64, 85
8, 523110, Note_off_c, 6, 64, 64
8, 523200, Note_on_c, 6, 65, 85
8, 523240, Note_off_c, 6, 65, 64
8, 523440, Note_on_c, 6, 67, 85
8, 523480, Note_off_c, 6, 67, 64
8, 523560, Note_on_c, 6, 65, 85
8, 523594, Note_off_c, 6, 65, 64
8, 523680, Note_on_c, 6, 60, 85
8, 524000, Note_off_c, 6, 60, 64
8, 524160, Note_on_c, 6, 58, 85
8, 524194, Note_off_c, 6, 58, 64
8, 524280, Note_on_c, 6, 60, 85
8, 524310, Note_off_c, 6, 60, 64
8, 524400, Note_on_c, 6, 62, 85
8, 524440, Note_off_c, 6, 62, 64
8, 524520, Note_on_c, 6, 63, 85
8, 524560, Note_off_c, 6, 63, 64
8, 524640, Note_on_c, 6, 65, 85
8, 524674, Note_off_c, 6, 65, 64
8, 524880, Note_on_c, 6, 65, 85
8, 524920, Note_off_c, 6, 65, 64
8, 524954, Note_on_c, 6, 67, 85
8, 525024, Note_off_c, 6, 67, 64
8, 525120, Note_on_c, 6, 60, 85
8, 525160, Note_off_c, 6, 60, 64
8, 525360, Note_on_c, 6, 60, 85
8, 525380, Note_off_c, 6, 60, 64
8, 525434, Note_on_c, 6, 65, 85
8, 525474, Note_off_c, 6, 65, 64
8, 525600, Note_on_c, 6, 58, 85
8, 525920, Note_off_c, 6, 58, 64
8, 526080, Note_on_c, 6, 65, 85
8, 526120, Note_off_c, 6, 65, 64
8, 526320, Note_on_c, 6, 67, 85
8, 526360, Note_off_c, 6, 67, 64
8, 526440, Note_on_c, 6, 65, 85
8, 526474, Note_off_c, 6, 65, 64
8, 526560, Note_on_c, 6, 60, 85
8, 526600, Note_off_c, 6, 60, 64
8, 526800, Note_on_c, 6, 62, 85
8, 526844, Note_off_c, 6, 62, 64
8, 526920, Note_on_c, 6, 64, 85
8, 526950, Note_off_c, 6, 64, 64
8, 527040, Note_on_c, 6, 65, 85
8, 527080, Note_off_c, 6, 65, 64
8, 527280, Note_on_c, 6, 67, 85
8, 527320, Note_off_c, 6, 67, 64
8, 527400, Note_on_c, 6, 65, 85
8, 527434, Note_off_c, 6, 65, 64
8, 527520, Note_on_c, 6, 60, 85
8, 527840, Note_off_c, 6, 60, 64
8, 528000, Note_on_c, 6, 58, 85
8, 528034, Note_off_c, 6, 58, 64
8, 528120, Note_on_c, 6, 60, 85
8, 528150, Note_off_c, 6, 60, 64
8, 528240, Note_on_c, 6, 62, 85
8, 528280, Note_off_c, 6, 62, 64
8, 528360, Note_on_c, 6, 63, 85
8, 528400, Note_off_c, 6, 63, 64
8, 528480, Note_on_c, 6, 65, 85
8, 528514, Note_off_c, 6, 65, 64
8, 528720, Note_on_c, 6, 65, 85
8, 528760, Note_off_c, 6, 65, 64
8, 528794, Note_on_c, 6, 67, 85
8, 528864, Note_off_c, 6, 67, 64
8, 528960, Note_on_c, 6, 60, 85
8, 529000, Note_off_c, 6, 60, 64
8, 529200, Note_on_c, 6, 60, 85
8, 529220, Note_off_c, 6, 60, 64
8, 529274, Note_on_c, 6, 65, 85
8, 529314, Note_off_c, 6, 65, 64
8, 529440, Note_on_c, 6, 58, 85
8, 529760, Note_off_c, 6, 58, 64
8, 529920, Note_on_c, 6, 72, 101
8, 530370, Note_off_c, 6, 72, 64
8, 530400, Note_on_c, 6, 77, 70
8, 530640, Note_off_c, 6, 77, 64
8, 530880, Note_on_c, 6, 76, 102
8, 531324, Note_off_c, 6, 76, 64
8, 531360, Note_on_c, 6, 82, 73
8, 531580, Note_off_c, 6, 82, 64
8, 531840, Note_on_c, 6, 81, 93
8, 532314, Note_off_c, 6, 81, 64
8, 532320, Note_on_c, 6, 77, 93
8, 532700, Note_off_c, 6, 77, 64
8, 532800, Note_on_c, 6, 76, 85
8, 533254, Note_off_c, 6, 76, 64
8, 533280, Note_on_c, 6, 77, 73
8, 533490, Note_off_c, 6, 77, 64
8, 533760, Note_on_c, 6, 72, 101
8, 534210, Note_off_c, 6, 72, 64
8, 534240, Note_on_c, 6, 77, 70
8, 534480, Note_off_c, 6, 77, 64
8, 534720, Note_on_c, 6, 76, 102
8, 535164, Note_off_c, 6, 76, 64
8, 535200, Note_on_c, 6, 82, 73
8, 535420, Note_off_c, 6, 82, 64
8, 535680, Note_on_c, 6, 81, 93
8, 536154, Note_off_c, 6, 81, 64
8, 536160, Note_on_c, 6, 77, 93
8, 536540, Note_off_c, 6, 77, 64
8, 536640, Note_on_c, 6, 76, 85
8, 537094, Note_off_c, 6, 76, 64
8, 537120, Note_on_c, 6, 77, 73
8, 537330, Note_off_c, 6, 77, 64
8, 537600, Note_on_c, 6, 72, 88
8, 537920, Note_off_c, 6, 72, 64
8, 538080, Note_on_c, 6, 77, 88
8, 538400, Note_off_c, 6, 77, 64
8, 538560, Note_on_c, 6, 76, 89
8, 539040, Note_off_c, 6, 76, 64
8, 539280, Note_on_c, 6, 81, 90
8, 539404, Note_on_c, 6, 79, 90
8, 539424, Note_off_c, 6, 79, 64
8, 539440, Note_on_c, 6, 81, 90
8, 539484, Note_on_c, 6, 77, 90
8, 539488, Note_off_c, 6, 81, 64
8, 539504, Note_off_c, 6, 77, 64
8, 539520, Note_on_c, 6, 79, 90
8, 539644, Note_off_c, 6, 79, 64
8, 539760, Note_off_c, 6, 81, 64
8, 539894, Note_on_c, 6, 79, 90
8, 539920, Note_off_c, 6, 79, 64
8, 539924, Note_on_c, 6, 77, 90
8, 539950, Note_off_c, 6, 77, 64
8, 539964, Note_on_c, 6, 76, 90
8, 539990, Note_off_c, 6, 76, 64
8, 540000, Note_on_c, 6, 77, 90
8, 540124, Note_off_c, 6, 77, 64
8, 540360, Note_on_c, 6, 77, 91
8, 540384, Note_off_c, 6, 77, 64
8, 540400, Note_on_c, 6, 76, 91
8, 540420, Note_off_c, 6, 76, 64
8, 540444, Note_on_c, 6, 74, 91
8, 540474, Note_off_c, 6, 74, 64
8, 540480, Note_on_c, 6, 76, 91
8, 540600, Note_off_c, 6, 76, 64
8, 540834, Note_on_c, 6, 76, 91
8, 540854, Note_off_c, 6, 76, 64
8, 540874, Note_on_c, 6, 74, 91
8, 540890, Note_off_c, 6, 74, 64
8, 540924, Note_on_c, 6, 72, 91
8, 540944, Note_off_c, 6, 72, 64
8, 540960, Note_on_c, 6, 74, 92
8, 541104, Note_off_c, 6, 74, 64
8, 541440, Note_on_c, 6, 72, 92
8, 541600, Note_off_c, 6, 72, 64
8, 541680, Note_on_c, 6, 72, 92
8, 541840, Note_off_c, 6, 72, 64
8, 541920, Note_on_c, 6, 77, 93
8, 542080, Note_off_c, 6, 77, 64
8, 542160, Note_on_c, 6, 77, 93
8, 542320, Note_off_c, 6, 77, 64
8, 542400, Note_on_c, 6, 76, 93
8, 542560, Note_off_c, 6, 76, 64
8, 542640, Note_on_c, 6, 76, 94
8, 542944, Note_off_c, 6, 76, 64
8, 543120, Note_on_c, 6, 81, 94
8, 543280, Note_off_c, 6, 81, 64
8, 543600, Note_on_c, 6, 79, 95
8, 543760, Note_off_c, 6, 79, 64
8, 544080, Note_on_c, 6, 77, 95
8, 544240, Note_off_c, 6, 77, 64
8, 544560, Note_on_c, 6, 76, 90
8, 544720, Note_off_c, 6, 76, 64
8, 545040, Note_on_c, 6, 74, 92
8, 545200, Note_off_c, 6, 74, 64
8, 545280, Note_on_c, 6, 72, 93
8, 545760, Note_off_c, 6, 72, 64
8, 546000, Note_on_c, 6, 76, 95
8, 546160, Note_off_c, 6, 76, 64
8, 546240, Note_on_c, 6, 76, 96
8, 546720, Note_off_c, 6, 76, 64
8, 546960, Note_on_c, 6, 72, 98
8, 547120, Note_off_c, 6, 72, 64
8, 547200, Note_on_c, 6, 72, 99
8, 547680, Note_off_c, 6, 72, 64
8, 547920, Note_on_c, 6, 79, 101
8, 548080, Note_off_c, 6, 79, 64
8, 548160, Note_on_c, 6, 79, 102
8, 548640, Note_off_c, 6, 79, 64
8, 548880, Note_on_c, 6, 72, 104
8, 549040, Note_off_c, 6, 72, 64
8, 549120, Note_on_c, 6, 72, 105
8, 549280, Note_off_c, 6, 72, 64
8, 549360, Note_on_c, 6, 84, 106
8, 549520, Note_off_c, 6, 84, 64
8, 549600, Note_on_c, 6, 84, 107
8, 549760, Note_off_c, 6, 84, 64
8, 549840, Note_on_c, 6, 76, 108
8, 550000, Note_off_c, 6, 76, 64
8, 550080, Note_on_c, 6, 76, 108
8, 550240, Note_off_c, 6, 76, 64
8, 550320, Note_on_c, 6, 88, 109
8, 550480, Note_off_c, 6, 88, 64
8, 550560, Note_on_c, 6, 88, 110
8, 550720, Note_off_c, 6, 88, 64
8, 550800, Note_on_c, 6, 76, 111
8, 550960, Note_off_c, 6, 76, 64
8, 551040, Note_on_c, 6, 76, 112
8, 551040, Note_on_c, 6, 64, 112
8, 551040, Note_on_c, 6, 55, 112
8, 551200, Note_off_c, 6, 55, 64
8, 551200, Note_off_c, 6, 64, 64
8, 551200, Note_off_c, 6, 76, 64
8, 552000, Note_on_c, 6, 72, 63
8, 552160, Note_off_c, 6, 72, 64
8, 554880, Note_on_c, 6, 72, 32
8, 554990, Note_off_c, 6, 72, 64
8, 555360, Note_on_c, 6, 77, 32
8, 555454, Note_off_c, 6, 77, 64
8, 555840, Note_on_c, 6, 72, 32
8, 555950, Note_off_c, 6, 72, 64
8, 556320, Note_on_c, 6, 74, 32
8, 556420, Note_off_c, 6, 74, 64
8, 556800, Note_on_c, 6, 72, 32
8, 556910, Note_off_c, 6, 72, 64
8, 557280, Note_on_c, 6, 69, 32
8, 557384, Note_off_c, 6, 69, 64
8, 557760, Note_on_c, 6, 70, 32
8, 557864, Note_off_c, 6, 70, 64
8, 558240, Note_on_c, 6, 69, 32
8, 558344, Note_off_c, 6, 69, 64
8, 558720, Note_on_c, 6, 65, 32
8, 558820, Note_off_c, 6, 65, 64
8, 559200, Note_on_c, 6, 67, 32
8, 559304, Note_off_c, 6, 67, 64
8, 559680, Note_on_c, 6, 69, 32
8, 559784, Note_off_c, 6, 69, 64
8, 560160, Note_on_c, 6, 65, 32
8, 560270, Note_off_c, 6, 65, 64
8, 560640, Note_on_c, 6, 67, 32
8, 560740, Note_off_c, 6, 67, 64
8, 561120, Note_on_c, 6, 65, 32
8, 561140, Note_off_c, 6, 65, 64
8, 561180, Note_on_c, 6, 69, 32
8, 561334, Note_off_c, 6, 69, 64
8, 561600, Note_on_c, 6, 65, 32
8, 561754, Note_off_c, 6, 65, 64
8, 562080, Note_on_c, 6, 67, 32
8, 562234, Note_off_c, 6, 67, 64
8, 562560, Note_on_c, 6, 62, 32
8, 562580, Note_off_c, 6, 62, 64
8, 562620, Note_on_c, 6, 65, 32
8, 562774, Note_off_c, 6, 65, 64
8, 563040, Note_on_c, 6, 62, 32
8, 563194, Note_off_c, 6, 62, 64
8, 563520, Note_on_c, 6, 64, 32
8, 563674, Note_off_c, 6, 64, 64
8, 564000, Note_on_c, 6, 57, 32
8, 564020, Note_off_c, 6, 57, 64
8, 564060, Note_on_c, 6, 62, 32
8, 564214, Note_off_c, 6, 62, 64
8, 564480, Note_on_c, 6, 57, 32
8, 564634, Note_off_c, 6, 57, 64
8, 564960, Note_on_c, 6, 57, 32
8, 565114, Note_off_c, 6, 57, 64
8, 565440, Note_on_c, 6, 57, 32
8, 565580, Note_off_c, 6, 57, 64
8, 566400, Note_on_c, 6, 69, 32
8, 566720, Note_off_c, 6, 69, 64
8, 566880, Note_on_c, 6, 74, 32
8, 567714, Note_off_c, 6, 74, 64
8, 567840, Note_on_c, 6, 78, 36
8, 568160, Note_off_c, 6, 78, 64
8, 568320, Note_on_c, 6, 81, 38
8, 568640, Note_off_c, 6, 81, 64
8, 568800, Note_on_c, 6, 78, 40
8, 569164, Note_off_c, 6, 78, 64
8, 569280, Note_on_c, 6, 78, 42
8, 569754, Note_off_c, 6, 78, 64
8, 569760, Note_on_c, 6, 81, 44
8, 570200, Note_off_c, 6, 81, 64
8, 570240, Note_on_c, 6, 85, 46
8, 570560, Note_off_c, 6, 85, 64
8, 570720, Note_on_c, 6, 86, 48
8, 570960, Note_off_c, 6, 86, 64
8, 570960, Note_on_c, 6, 83, 48
8, 571194, Note_off_c, 6, 83, 64
8, 571200, Note_on_c, 6, 81, 48
8, 571656, Note_off_c, 6, 81, 64
8, 571680, Note_on_c, 6, 85, 54
8, 572136, Note_off_c, 6, 85, 64
8, 572160, Note_on_c, 6, 86, 59
8, 572388, Note_off_c, 6, 86, 64
8, 572400, Note_on_c, 6, 82, 62
8, 572628, Note_off_c, 6, 82, 64
8, 572640, Note_on_c, 6, 81, 65
8, 573096, Note_off_c, 6, 81, 64
8, 573120, Note_on_c, 6, 84, 71
8, 573576, Note_off_c, 6, 84, 64
8, 573600, Note_on_c, 6, 86, 76
8, 573828, Note_off_c, 6, 86, 64
8, 573840, Note_on_c, 6, 82, 79
8, 574068, Note_off_c, 6, 82, 64
8, 574080, Note_on_c, 6, 81, 82
8, 574536, Note_off_c, 6, 81, 64
8, 574560, Note_on_c, 6, 84, 88
8, 575016, Note_off_c, 6, 84, 64
8, 575040, Note_on_c, 6, 82, 93
8, 575268, Note_off_c, 6, 82, 64
8, 575280, Note_on_c, 6, 79, 96
8, 575508, Note_off_c, 6, 79, 64
8, 575520, Note_on_c, 6, 65, 110
8, 575520, Note_on_c, 6, 69, 110
8, 575520, Note_on_c, 6, 77, 110
8, 576012, Note_off_c, 6, 77, 64
8, 576012, Note_off_c, 6, 69, 64
8, 576012, Note_off_c, 6, 65, 64
8, 578400, Note_on_c, 6, 76, 56
8, 578926, Note_off_c, 6, 76, 64
8, 579840, Control_c, 6, 0, 0
8, 579840, Control_c, 6, 32, 0
8, 579840, Program_c, 6, 45
8, 581280, Note_on_c, 6, 65, 51
8, 581736, Note_off_c, 6, 65, 64
8, 582720, Note_on_c, 6, 65, 51
8, 583176, Note_off_c, 6, 65, 64
8, 584160, Note_on_c, 6, 65, 51
8, 584616, Note_off_c, 6, 65, 64
8, 585600, Note_on_c, 6, 65, 51
8, 586056, Note_off_c, 6, 65, 64
8, 587040, Note_on_c, 6, 65, 51
8, 587496, Note_off_c, 6, 65, 64
8, 588480, Note_on_c, 6, 65, 51
8, 588936, Note_off_c, 6, 65, 64
8, 589920, Note_on_c, 6, 65, 51
8, 590376, Note_off_c, 6, 65, 64
8, 591360, Note_on_c, 6, 65, 51
8, 591816, Note_off_c, 6, 65, 64
8, 591840, Control_c, 6, 0, 0
8, 591840, Control_c, 6, 32, 0
8, 591840, Program_c, 6, 48
8, 592320, Note_on_c, 6, 72, 64
8, 592776, Note_off_c, 6, 72, 64
8, 592800, Note_on_c, 6, 77, 66
8, 593256, Note_off_c, 6, 77, 64
8, 593280, Note_on_c, 6, 72, 68
8, 593736, Note_off_c, 6, 72, 64
8, 593760, Note_on_c, 6, 74, 70
8, 594216, Note_off_c, 6, 74, 64
8, 594240, Note_on_c, 6, 72, 73
8, 594696, Note_off_c, 6, 72, 64
8, 594720, Note_on_c, 6, 69, 74
8, 595176, Note_off_c, 6, 69, 64
8, 595200, Note_on_c, 6, 70, 77
8, 595656, Note_off_c, 6, 70, 64
8, 595680, Note_on_c, 6, 69, 77
8, 596136, Note_off_c, 6, 69, 64
8, 596160, Note_on_c, 6, 65, 75
8, 596616, Note_off_c, 6, 65, 64
8, 596640, Note_on_c, 6, 67, 74
8, 597096, Note_off_c, 6, 67, 64
8, 597120, Note_on_c, 6, 69, 72
8, 597576, Note_off_c, 6, 69, 64
8, 597600, Note_on_c, 6, 65, 70
8, 598056, Note_off_c, 6, 65, 64
8, 598080, Note_on_c, 6, 72, 110
8, 598194, Note_off_c, 6, 72, 64
8, 598560, Note_on_c, 6, 77, 110
8, 598674, Note_off_c, 6, 77, 64
8, 599040, Note_on_c, 6, 72, 110
8, 599154, Note_off_c, 6, 72, 64
8, 599520, Note_on_c, 6, 74, 110
8, 599634, Note_off_c, 6, 74, 64
8, 600000, Note_on_c, 6, 72, 100
8, 600228, Note_off_c, 6, 72, 64
8, 600480, Note_on_c, 6, 69, 100
8, 600708, Note_off_c, 6, 69, 64
8, 600960, Note_on_c, 6, 70, 100
8, 601188, Note_off_c, 6, 70, 64
8, 601440, Note_on_c, 6, 69, 127
8, 601668, Note_off_c, 6, 69, 64
8, 601920, Note_on_c, 6, 77, 100
8, 602102, Note_off_c, 6, 77, 64
8, 602400, Note_on_c, 6, 79, 100
8, 602582, Note_off_c, 6, 79, 64
8, 602880, Note_on_c, 6, 81, 127
8, 603108, Note_off_c, 6, 81, 64
8, 603360, Note_on_c, 6, 77, 100
8, 603588, Note_off_c, 6, 77, 64
8, 603840, Note_on_c, 6, 79, 100
8, 604068, Note_off_c, 6, 79, 64
8, 604320, Note_on_c, 6, 81, 127
8, 604548, Note_off_c, 6, 81, 64
8, 604800, Note_on_c, 6, 77, 100
8, 605028, Note_off_c, 6, 77, 64
8, 605280, Note_on_c, 6, 79, 100
8, 605508, Note_off_c, 6, 79, 64
8, 605760, Note_on_c, 6, 81, 127
8, 605988, Note_off_c, 6, 81, 64
8, 606240, Note_on_c, 6, 77, 100
8, 606468, Note_off_c, 6, 77, 64
8, 606720, Note_on_c, 6, 79, 100
8, 606948, Note_off_c, 6, 79, 64
8, 607200, Note_on_c, 6, 81, 127
8, 608260, Note_off_c, 6, 81, 64
8, 608526, Note_on_c, 6, 79, 100
8, 608610, Note_on_c, 6, 81, 100
8, 608638, Note_off_c, 6, 79, 64
8, 608640, Note_on_c, 6, 79, 100
8, 608722, Note_off_c, 6, 81, 64
8, 609388, Note_off_c, 6, 79, 64
8, 609600, Note_on_c, 6, 77, 100
8, 609874, Note_off_c, 6, 77, 64
8, 610020, Note_on_c, 6, 76, 100
8, 610048, Note_off_c, 6, 76, 64
8, 610050, Note_on_c, 6, 77, 100
8, 610078, Note_off_c, 6, 77, 64
8, 610080, Note_on_c, 6, 76, 100
8, 610828, Note_off_c, 6, 76, 64
8, 611040, Note_on_c, 6, 74, 100
8, 611314, Note_off_c, 6, 74, 64
8, 611520, Note_on_c, 6, 72, 100
8, 612268, Note_off_c, 6, 72, 64
8, 612480, Note_on_c, 6, 76, 100
8, 612844, Note_off_c, 6, 76, 64
8, 612960, Note_on_c, 6, 77, 120
8, 612960, Note_on_c, 6, 72, 120
8, 612960, Note_on_c, 6, 65, 120
8, 613508, Note_off_c, 6, 65, 64
8, 613508, Note_off_c, 6, 72, 64
8, 614342, Note_off_c, 6, 77, 64
8, 614400, Note_on_c, 6, 79, 120
8, 615748, Note_off_c, 6, 79, 64
8, 615840, Note_on_c, 6, 81, 120
8, 617188, Note_off_c, 6, 81, 64
8, 617280, Note_on_c, 6, 79, 120
8, 617280, Note_on_c, 6, 72, 120
8, 617280, Note_on_c, 6, 64, 120
8, 618088, Note_off_c, 6, 64, 64
8, 618088, Note_off_c, 6, 72, 64
8, 618570, Note_off_c, 6, 79, 64
8, 618720, Note_on_c, 6, 81, 110
8, 618720, Note_on_c, 6, 72, 110
8, 618720, Note_on_c, 6, 65, 110
8, 619356, Note_off_c, 6, 65, 64
8, 619356, Note_off_c, 6, 72, 64
8, 619356, Note_off_c, 6, 81, 64
8, 619680, Note_on_c, 6, 81, 110
8, 619876, Note_off_c, 6, 81, 64
8, 620046, Note_on_c, 6, 79, 100
8, 620130, Note_on_c, 6, 81, 100
8, 620158, Note_off_c, 6, 79, 64
8, 620160, Note_on_c, 6, 79, 100
8, 620242, Note_off_c, 6, 81, 64
8, 620908, Note_off_c, 6, 79, 64
8, 621120, Note_on_c, 6, 77, 100
8, 621394, Note_off_c, 6, 77, 64
8, 621540, Note_on_c, 6, 76, 100
8, 621568, Note_off_c, 6, 76, 64
8, 621570, Note_on_c, 6, 77, 100
8, 621598, Note_off_c, 6, 77, 64
8, 621600, Note_on_c, 6, 76, 100
8, 622348, Note_off_c, 6, 76, 64
8, 622560, Note_on_c, 6, 74, 100
8, 622834, Note_off_c, 6, 74, 64
8, 623040, Note_on_c, 6, 72, 100
8, 623788, Note_off_c, 6, 72, 64
8, 624000, Note_on_c, 6, 76, 100
8, 624364, Note_off_c, 6, 76, 64
8, 624480, Note_on_c, 6, 77, 120
8, 624480, Note_on_c, 6, 72, 120
8, 624480, Note_on_c, 6, 65, 120
8, 625028, Note_off_c, 6, 65, 64
8, 625028, Note_off_c, 6, 72, 64
8, 625862, Note_off_c, 6, 77, 64
8, 625920, Note_on_c, 6, 79, 120
8, 627268, Note_off_c, 6, 79, 64
8, 627360, Note_on_c, 6, 81, 120
8, 628708, Note_off_c, 6, 81, 64
8, 628800, Note_on_c, 6, 79, 120
8, 628800, Note_on_c, 6, 72, 120
8, 628800, Note_on_c, 6, 64, 120
8, 629608, Note_off_c, 6, 64, 64
8, 629608, Note_off_c, 6, 72, 64
8, 630090, Note_off_c, 6, 79, 64
8, 630240, Note_on_c, 6, 77, 127
8, 630240, Note_on_c, 6, 72, 127
8, 630240, Note_on_c, 6, 65, 127
8, 630696, Note_off_c, 6, 65, 64
8, 630696, Note_off_c, 6, 72, 64
8, 630696, Note_off_c, 6, 77, 64
8, 633120, Note_on_c, 6, 69, 120
8, 633234, Note_off_c, 6, 69, 64
8, 633360, Note_on_c, 6, 72, 120
8, 633474, Note_off_c, 6, 72, 64
8, 633600, Note_on_c, 6, 77, 120
8, 633714, Note_off_c, 6, 77, 64
8, 633840, Note_on_c, 6, 81, 120
8, 633954, Note_off_c, 6, 81, 64
8, 634080, Note_on_c, 6, 84, 120
8, 634308, Note_off_c, 6, 84, 64
8, 634560, Note_on_c, 6, 76, 110
8, 634560, Note_on_c, 6, 67, 110
8, 634788, Note_off_c, 6, 67, 64
8, 634788, Note_off_c, 6, 76, 64
8, 635040, Note_on_c, 6, 76, 110
8, 635040, Note_on_c, 6, 67, 110
8, 635268, Note_off_c, 6, 67, 64
8, 635268, Note_off_c, 6, 76, 64
8, 635520, Note_on_c, 6, 76, 110
8, 635520, Note_on_c, 6, 67, 110
8, 635748, Note_off_c, 6, 67, 64
8, 635748, Note_off_c, 6, 76, 64
8, 636000, Note_on_c, 6, 77, 127
8, 636000, Note_on_c, 6, 69, 127
8, 636000, Note_on_c, 6, 65, 127
8, 636456, Note_off_c, 6, 65, 64
8, 636456, Note_off_c, 6, 69, 64
8, 636456, Note_off_c, 6, 77, 64
8, 638880, Note_on_c, 6, 69, 120
8, 638994, Note_off_c, 6, 69, 64
8, 639120, Note_on_c, 6, 72, 120
8, 639234, Note_off_c, 6, 72, 64
8, 639360, Note_on_c, 6, 77, 120
8, 639474, Note_off_c, 6, 77, 64
8, 639600, Note_on_c, 6, 81, 120
8, 639714, Note_off_c, 6, 81, 64
8, 639840, Note_on_c, 6, 84, 120
8, 640068, Note_off_c, 6, 84, 64
8, 640320, Note_on_c, 6, 76, 99
8, 640320, Note_on_c, 6, 67, 99
8, 640548, Note_off_c, 6, 67, 64
8, 640548, Note_off_c, 6, 76, 64
8, 640800, Note_on_c, 6, 76, 99
8, 640800, Note_on_c, 6, 67, 99
8, 641028, Note_off_c, 6, 67, 64
8, 641028, Note_off_c, 6, 76, 64
8, 641280, Note_on_c, 6, 76, 99
8, 641280, Note_on_c, 6, 67, 99
8, 641554, Note_off_c, 6, 67, 64
8, 641554, Note_off_c, 6, 76, 64
8, 641554, End_track
9, 0, Start_track
9, 0, Title_t, "Violin II"
9, 0, MIDI_port, 0
9, 0, Channel_prefix, 7
9, 0, Control_c, 7, 7, 99
9, 0, Control_c, 7, 10, 33
9, 0, Control_c, 7, 0, 0
9, 0, Control_c, 7, 32, 0
9, 0, Control_c, 7, 91, 52
9, 0, Control_c, 7, 93, 9
9, 0, Program_c, 7, 48
9, 960, Note_on_c, 7, 72, 32
9, 1074, Note_off_c, 7, 72, 64
9, 1440, Note_on_c, 7, 77, 32
9, 1544, Note_off_c, 7, 77, 64
9, 1920, Note_on_c, 7, 72, 32
9, 2020, Note_off_c, 7, 72, 64
9, 2400, Note_on_c, 7, 74, 32
9, 2510, Note_off_c, 7, 74, 64
9, 2880, Note_on_c, 7, 72, 32
9, 2984, Note_off_c, 7, 72, 64
9, 3360, Note_on_c, 7, 69, 32
9, 3450, Note_off_c, 7, 69, 64
9, 3840, Note_on_c, 7, 70, 32
9, 3940, Note_off_c, 7, 70, 64
9, 4320, Note_on_c, 7, 69, 32
9, 4410, Note_off_c, 7, 69, 64
9, 4800, Note_on_c, 7, 65, 32
9, 4894, Note_off_c, 7, 65, 64
9, 5280, Note_on_c, 7, 67, 32
9, 5374, Note_off_c, 7, 67, 64
9, 5760, Note_on_c, 7, 69, 32
9, 5860, Note_off_c, 7, 69, 64
9, 6240, Note_on_c, 7, 65, 32
9, 6334, Note_off_c, 7, 65, 64
9, 6720, Note_on_c, 7, 67, 32
9, 6820, Note_off_c, 7, 67, 64
9, 7200, Note_on_c, 7, 65, 32
9, 7220, Note_off_c, 7, 65, 64
9, 7260, Note_on_c, 7, 69, 32
9, 7360, Note_off_c, 7, 69, 64
9, 7680, Note_on_c, 7, 65, 32
9, 7780, Note_off_c, 7, 65, 64
9, 8160, Note_on_c, 7, 67, 32
9, 8264, Note_off_c, 7, 67, 64
9, 8640, Note_on_c, 7, 62, 32
9, 8660, Note_off_c, 7, 62, 64
9, 8700, Note_on_c, 7, 65, 32
9, 8800, Note_off_c, 7, 65, 64
9, 9120, Note_on_c, 7, 62, 32
9, 9224, Note_off_c, 7, 62, 64
9, 9600, Note_on_c, 7, 64, 32
9, 9700, Note_off_c, 7, 64, 64
9, 10080, Note_on_c, 7, 57, 32
9, 10100, Note_off_c, 7, 57, 64
9, 10140, Note_on_c, 7, 62, 32
9, 10244, Note_off_c, 7, 62, 64
9, 10560, Note_on_c, 7, 57, 32
9, 10660, Note_off_c, 7, 57, 64
9, 11040, Note_on_c, 7, 57, 32
9, 11140, Note_off_c, 7, 57, 64
9, 11520, Note_on_c, 7, 57, 32
9, 11614, Note_off_c, 7, 57, 64
9, 12480, Note_on_c, 7, 57, 32
9, 12800, Note_off_c, 7, 57, 64
9, 12960, Note_on_c, 7, 62, 32
9, 13850, Note_off_c, 7, 62, 64
9, 13920, Note_on_c, 7, 66, 36
9, 14240, Note_off_c, 7, 66, 64
9, 14400, Note_on_c, 7, 69, 38
9, 14840, Note_off_c, 7, 69, 64
9, 14880, Note_on_c, 7, 66, 40
9, 15320, Note_off_c, 7, 66, 64
9, 15360, Note_on_c, 7, 66, 42
9, 15680, Note_off_c, 7, 66, 64
9, 15840, Note_on_c, 7, 69, 44
9, 16294, Note_off_c, 7, 69, 64
9, 16320, Note_on_c, 7, 73, 46
9, 16754, Note_off_c, 7, 73, 64
9, 16800, Note_on_c, 7, 74, 48
9, 17034, Note_off_c, 7, 74, 64
9, 17040, Note_on_c, 7, 71, 48
9, 17264, Note_off_c, 7, 71, 64
9, 17280, Note_on_c, 7, 69, 48
9, 18164, Note_off_c, 7, 69, 64
9, 18240, Note_on_c, 7, 73, 48
9, 18680, Note_off_c, 7, 73, 64
9, 18720, Note_on_c, 7, 74, 48
9, 19170, Note_off_c, 7, 74, 64
9, 19200, Note_on_c, 7, 69, 48
9, 19654, Note_off_c, 7, 69, 64
9, 19680, Note_on_c, 7, 71, 48
9, 20134, Note_off_c, 7, 71, 64
9, 20160, Note_on_c, 7, 69, 48
9, 20594, Note_off_c, 7, 69, 64
9, 20640, Note_on_c, 7, 66, 48
9, 21080, Note_off_c, 7, 66, 64
9, 21120, Note_on_c, 7, 67, 48
9, 21550, Note_off_c, 7, 67, 64
9, 21600, Note_on_c, 7, 66, 48
9, 22034, Note_off_c, 7, 66, 64
9, 22080, Note_on_c, 7, 62, 47
9, 22504, Note_off_c, 7, 62, 64
9, 22560, Note_on_c, 7, 66, 46
9, 22764, Note_off_c, 7, 66, 64
9, 22800, Note_on_c, 7, 64, 45
9, 23040, Note_on_c, 7, 62, 44
9, 23044, Note_off_c, 7, 64, 64
9, 23200, Note_off_c, 7, 62, 64
9, 24000, Note_on_c, 7, 72, 32
9, 24114, Note_off_c, 7, 72, 64
9, 24480, Note_on_c, 7, 77, 32
9, 24584, Note_off_c, 7, 77, 64
9, 24960, Note_on_c, 7, 72, 32
9, 25060, Note_off_c, 7, 72, 64
9, 25440, Note_on_c, 7, 74, 32
9, 25550, Note_off_c, 7, 74, 64
9, 25920, Note_on_c, 7, 72, 32
9, 26024, Note_off_c, 7, 72, 64
9, 26400, Note_on_c, 7, 69, 32
9, 26490, Note_off_c, 7, 69, 64
9, 26880, Note_on_c, 7, 70, 32
9, 26980, Note_off_c, 7, 70, 64
9, 27360, Note_on_c, 7, 69, 32
9, 27450, Note_off_c, 7, 69, 64
9, 27840, Note_on_c, 7, 65, 32
9, 27934, Note_off_c, 7, 65, 64
9, 28320, Note_on_c, 7, 67, 32
9, 28414, Note_off_c, 7, 67, 64
9, 28800, Note_on_c, 7, 69, 32
9, 28900, Note_off_c, 7, 69, 64
9, 29280, Note_on_c, 7, 65, 32
9, 29374, Note_off_c, 7, 65, 64
9, 29760, Note_on_c, 7, 67, 32
9, 29860, Note_off_c, 7, 67, 64
9, 30240, Note_on_c, 7, 65, 32
9, 30260, Note_off_c, 7, 65, 64
9, 30300, Note_on_c, 7, 69, 32
9, 30400, Note_off_c, 7, 69, 64
9, 30720, Note_on_c, 7, 65, 32
9, 30820, Note_off_c, 7, 65, 64
9, 31200, Note_on_c, 7, 67, 32
9, 31304, Note_off_c, 7, 67, 64
9, 31680, Note_on_c, 7, 62, 32
9, 31700, Note_off_c, 7, 62, 64
9, 31740, Note_on_c, 7, 65, 32
9, 31840, Note_off_c, 7, 65, 64
9, 32160, Note_on_c, 7, 62, 32
9, 32264, Note_off_c, 7, 62, 64
9, 32640, Note_on_c, 7, 64, 32
9, 32740, Note_off_c, 7, 64, 64
9, 33120, Note_on_c, 7, 57, 32
9, 33140, Note_off_c, 7, 57, 64
9, 33180, Note_on_c, 7, 62, 32
9, 33284, Note_off_c, 7, 62, 64
9, 33600, Note_on_c, 7, 57, 32
9, 33700, Note_off_c, 7, 57, 64
9, 34080, Note_on_c, 7, 57, 32
9, 34180, Note_off_c, 7, 57, 64
9, 34560, Note_on_c, 7, 57, 32
9, 34654, Note_off_c, 7, 57, 64
9, 35520, Note_on_c, 7, 57, 32
9, 35840, Note_off_c, 7, 57, 64
9, 36000, Note_on_c, 7, 62, 32
9, 36890, Note_off_c, 7, 62, 64
9, 36960, Note_on_c, 7, 66, 36
9, 37280, Note_off_c, 7, 66, 64
9, 37440, Note_on_c, 7, 69, 38
9, 37880, Note_off_c, 7, 69, 64
9, 37920, Note_on_c, 7, 66, 40
9, 38360, Note_off_c, 7, 66, 64
9, 38400, Note_on_c, 7, 66, 42
9, 38720, Note_off_c, 7, 66, 64
9, 38880, Note_on_c, 7, 69, 44
9, 39334, Note_off_c, 7, 69, 64
9, 39360, Note_on_c, 7, 73, 46
9, 39794, Note_off_c, 7, 73, 64
9, 39840, Note_on_c, 7, 74, 48
9, 40074, Note_off_c, 7, 74, 64
9, 40080, Note_on_c, 7, 71, 48
9, 40304, Note_off_c, 7, 71, 64
9, 40320, Note_on_c, 7, 69, 48
9, 41204, Note_off_c, 7, 69, 64
9, 41280, Note_on_c, 7, 73, 48
9, 41720, Note_off_c, 7, 73, 64
9, 41760, Note_on_c, 7, 74, 48
9, 42210, Note_off_c, 7, 74, 64
9, 42240, Note_on_c, 7, 69, 48
9, 42694, Note_off_c, 7, 69, 64
9, 42720, Note_on_c, 7, 71, 48
9, 43174, Note_off_c, 7, 71, 64
9, 43200, Note_on_c, 7, 69, 48
9, 43634, Note_off_c, 7, 69, 64
9, 43680, Note_on_c, 7, 66, 48
9, 44120, Note_off_c, 7, 66, 64
9, 44160, Note_on_c, 7, 67, 48
9, 44590, Note_off_c, 7, 67, 64
9, 44640, Note_on_c, 7, 66, 48
9, 45074, Note_off_c, 7, 66, 64
9, 45120, Note_on_c, 7, 62, 47
9, 45544, Note_off_c, 7, 62, 64
9, 45600, Note_on_c, 7, 66, 46
9, 45804, Note_off_c, 7, 66, 64
9, 45840, Note_on_c, 7, 64, 45
9, 46080, Note_on_c, 7, 62, 44
9, 46084, Note_off_c, 7, 64, 64
9, 46240, Note_off_c, 7, 62, 64
9, 47040, Note_on_c, 7, 69, 30
9, 47200, Note_off_c, 7, 69, 64
9, 47520, Note_on_c, 7, 74, 30
9, 47680, Note_off_c, 7, 74, 64
9, 48000, Note_on_c, 7, 69, 30
9, 48160, Note_off_c, 7, 69, 64
9, 48480, Note_on_c, 7, 71, 30
9, 48640, Note_off_c, 7, 71, 64
9, 48960, Note_on_c, 7, 69, 30
9, 49120, Note_off_c, 7, 69, 64
9, 49440, Note_on_c, 7, 66, 30
9, 49600, Note_off_c, 7, 66, 64
9, 49920, Note_on_c, 7, 67, 30
9, 50080, Note_off_c, 7, 67, 64
9, 50400, Note_on_c, 7, 66, 30
9, 50560, Note_off_c, 7, 66, 64
9, 50880, Note_on_c, 7, 62, 30
9, 51040, Note_off_c, 7, 62, 64
9, 51360, Note_on_c, 7, 64, 30
9, 51520, Note_off_c, 7, 64, 64
9, 51840, Note_on_c, 7, 66, 30
9, 52000, Note_off_c, 7, 66, 64
9, 52320, Note_on_c, 7, 62, 30
9, 52480, Note_off_c, 7, 62, 64
9, 52800, Note_on_c, 7, 62, 30
9, 52960, Note_off_c, 7, 62, 64
9, 53280, Note_on_c, 7, 67, 30
9, 53440, Note_off_c, 7, 67, 64
9, 53760, Note_on_c, 7, 62, 30
9, 53920, Note_off_c, 7, 62, 64
9, 54240, Note_on_c, 7, 64, 30
9, 54400, Note_off_c, 7, 64, 64
9, 54720, Note_on_c, 7, 62, 30
9, 54880, Note_off_c, 7, 62, 64
9, 55200, Note_on_c, 7, 59, 30
9, 55360, Note_off_c, 7, 59, 64
9, 55680, Note_on_c, 7, 60, 30
9, 55840, Note_off_c, 7, 60, 64
9, 56160, Note_on_c, 7, 59, 30
9, 56320, Note_off_c, 7, 59, 64
9, 56640, Note_on_c, 7, 55, 30
9, 56800, Note_off_c, 7, 55, 64
9, 57120, Note_on_c, 7, 57, 30
9, 57280, Note_off_c, 7, 57, 64
9, 57600, Note_on_c, 7, 59, 30
9, 57760, Note_off_c, 7, 59, 64
9, 58080, Note_on_c, 7, 55, 30
9, 58240, Note_off_c, 7, 55, 64
9, 58560, Note_on_c, 7, 55, 30
9, 58720, Note_off_c, 7, 55, 64
9, 59040, Note_on_c, 7, 60, 32
9, 59680, Note_off_c, 7, 60, 64
9, 60000, Note_on_c, 7, 64, 39
9, 60320, Note_off_c, 7, 64, 64
9, 60480, Note_on_c, 7, 67, 42
9, 60800, Note_off_c, 7, 67, 64
9, 60960, Note_on_c, 7, 64, 46
9, 61280, Note_off_c, 7, 64, 64
9, 61440, Note_on_c, 7, 64, 49
9, 61760, Note_off_c, 7, 64, 64
9, 61920, Note_on_c, 7, 67, 53
9, 62240, Note_off_c, 7, 67, 64
9, 62400, Note_on_c, 7, 71, 56
9, 62720, Note_off_c, 7, 71, 64
9, 62880, Note_on_c, 7, 72, 60
9, 63040, Note_off_c, 7, 72, 64
9, 63120, Note_on_c, 7, 69, 62
9, 63280, Note_off_c, 7, 69, 64
9, 63360, Note_on_c, 7, 67, 64
9, 64000, Note_off_c, 7, 67, 64
9, 64320, Note_on_c, 7, 71, 64
9, 64640, Note_off_c, 7, 71, 64
9, 64800, Note_on_c, 7, 72, 64
9, 65120, Note_off_c, 7, 72, 64
9, 65280, Note_on_c, 7, 67, 64
9, 65600, Note_off_c, 7, 67, 64
9, 65760, Note_on_c, 7, 69, 64
9, 66080, Note_off_c, 7, 69, 64
9, 66240, Note_on_c, 7, 67, 64
9, 66560, Note_off_c, 7, 67, 64
9, 66720, Note_on_c, 7, 64, 64
9, 67040, Note_off_c, 7, 64, 64
9, 67200, Note_on_c, 7, 65, 64
9, 67520, Note_off_c, 7, 65, 64
9, 67680, Note_on_c, 7, 64, 64
9, 68000, Note_off_c, 7, 64, 64
9, 68160, Note_on_c, 7, 60, 64
9, 68480, Note_off_c, 7, 60, 64
9, 68640, Note_on_c, 7, 62, 64
9, 68640, Note_on_c, 7, 55, 64
9, 68960, Note_off_c, 7, 55, 64
9, 68960, Note_off_c, 7, 62, 64
9, 69120, Note_on_c, 7, 64, 64
9, 69120, Note_on_c, 7, 55, 64
9, 69440, Note_off_c, 7, 55, 64
9, 69440, Note_off_c, 7, 64, 64
9, 69600, Note_on_c, 7, 60, 64
9, 69920, Note_off_c, 7, 60, 64
9, 70080, Note_on_c, 7, 60, 64
9, 70400, Note_off_c, 7, 60, 64
9, 70560, Note_on_c, 7, 72, 50
9, 70880, Note_off_c, 7, 72, 64
9, 71040, Note_on_c, 7, 69, 53
9, 71360, Note_off_c, 7, 69, 64
9, 71520, Note_on_c, 7, 70, 57
9, 71840, Note_off_c, 7, 70, 64
9, 72000, Note_on_c, 7, 69, 61
9, 72320, Note_off_c, 7, 69, 64
9, 72480, Note_on_c, 7, 65, 65
9, 72800, Note_off_c, 7, 65, 64
9, 72960, Note_on_c, 7, 67, 69
9, 73280, Note_off_c, 7, 67, 64
9, 73440, Note_on_c, 7, 65, 73
9, 73760, Note_off_c, 7, 65, 64
9, 73920, Note_on_c, 7, 60, 76
9, 74240, Note_off_c, 7, 60, 64
9, 74400, Note_on_c, 7, 67, 80
9, 74720, Note_off_c, 7, 67, 64
9, 74880, Note_on_c, 7, 69, 84
9, 75200, Note_off_c, 7, 69, 64
9, 75360, Note_on_c, 7, 65, 88
9, 75680, Note_off_c, 7, 65, 64
9, 75840, Note_on_c, 7, 72, 92
9, 76160, Note_off_c, 7, 72, 64
9, 76320, Note_on_c, 7, 77, 94
9, 76640, Note_off_c, 7, 77, 64
9, 76800, Note_on_c, 7, 72, 94
9, 77120, Note_off_c, 7, 72, 64
9, 77280, Note_on_c, 7, 74, 94
9, 77600, Note_off_c, 7, 74, 64
9, 77760, Note_on_c, 7, 72, 94
9, 78080, Note_off_c, 7, 72, 64
9, 78240, Note_on_c, 7, 69, 94
9, 78560, Note_off_c, 7, 69, 64
9, 78720, Note_on_c, 7, 70, 94
9, 79040, Note_off_c, 7, 70, 64
9, 79200, Note_on_c, 7, 69, 122
9, 79520, Note_off_c, 7, 69, 64
9, 79680, Note_on_c, 7, 65, 94
9, 80000, Note_off_c, 7, 65, 64
9, 80160, Note_on_c, 7, 67, 94
9, 80480, Note_off_c, 7, 67, 64
9, 80640, Note_on_c, 7, 69, 126
9, 80960, Note_off_c, 7, 69, 64
9, 81120, Note_on_c, 7, 65, 94
9, 81440, Note_off_c, 7, 65, 64
9, 81600, Note_on_c, 7, 67, 94
9, 81920, Note_off_c, 7, 67, 64
9, 82080, Note_on_c, 7, 69, 123
9, 82400, Note_off_c, 7, 69, 64
9, 82560, Note_on_c, 7, 65, 94
9, 82880, Note_off_c, 7, 65, 64
9, 83040, Note_on_c, 7, 67, 94
9, 83360, Note_off_c, 7, 67, 64
9, 83520, Note_on_c, 7, 69, 126
9, 83840, Note_off_c, 7, 69, 64
9, 84000, Note_on_c, 7, 65, 94
9, 84320, Note_off_c, 7, 65, 64
9, 84480, Note_on_c, 7, 67, 94
9, 84800, Note_off_c, 7, 67, 64
9, 84960, Note_on_c, 7, 69, 118
9, 85920, Note_off_c, 7, 69, 64
9, 86400, Note_on_c, 7, 67, 94
9, 86440, Note_off_c, 7, 67, 64
9, 86440, Note_on_c, 7, 69, 94
9, 86480, Note_off_c, 7, 69, 64
9, 86480, Note_on_c, 7, 67, 94
9, 86954, Note_off_c, 7, 67, 64
9, 87360, Note_on_c, 7, 65, 94
9, 87680, Note_off_c, 7, 65, 64
9, 87840, Note_on_c, 7, 64, 94
9, 87880, Note_off_c, 7, 64, 64
9, 87880, Note_on_c, 7, 65, 94
9, 87920, Note_off_c, 7, 65, 64
9, 87920, Note_on_c, 7, 64, 94
9, 88394, Note_off_c, 7, 64, 64
9, 88800, Note_on_c, 7, 62, 94
9, 89120, Note_off_c, 7, 62, 64
9, 89280, Note_on_c, 7, 60, 94
9, 89920, Note_off_c, 7, 60, 64
9, 90240, Note_on_c, 7, 72, 94
9, 90560, Note_off_c, 7, 72, 64
9, 90720, Note_on_c, 7, 77, 113
9, 91940, Note_off_c, 7, 77, 64
9, 92160, Note_on_c, 7, 77, 113
9, 93394, Note_off_c, 7, 77, 64
9, 93600, Note_on_c, 7, 77, 111
9, 94800, Note_off_c, 7, 77, 64
9, 95040, Note_on_c, 7, 76, 114
9, 95040, Note_on_c, 7, 67, 94
9, 95040, Note_on_c, 7, 60, 94
9, 95360, Note_off_c, 7, 60, 64
9, 95360, Note_off_c, 7, 67, 64
9, 96250, Note_off_c, 7, 76, 64
9, 96480, Note_on_c, 7, 77, 94
9, 96480, Note_on_c, 7, 69, 94
9, 96800, Note_off_c, 7, 69, 64
9, 96800, Note_off_c, 7, 77, 64
9, 97440, Note_on_c, 7, 81, 94
9, 97760, Note_off_c, 7, 81, 64
9, 97920, Note_on_c, 7, 79, 94
9, 97960, Note_off_c, 7, 79, 64
9, 97960, Note_on_c, 7, 81, 94
9, 98000, Note_off_c, 7, 81, 64
9, 98000, Note_on_c, 7, 79, 94
9, 98474, Note_off_c, 7, 79, 64
9, 98880, Note_on_c, 7, 77, 94
9, 99200, Note_off_c, 7, 77, 64
9, 99360, Note_on_c, 7, 76, 94
9, 99400, Note_off_c, 7, 76, 64
9, 99400, Note_on_c, 7, 77, 94
9, 99440, Note_off_c, 7, 77, 64
9, 99440, Note_on_c, 7, 76, 94
9, 99914, Note_off_c, 7, 76, 64
9, 100320, Note_on_c, 7, 74, 94
9, 100640, Note_off_c, 7, 74, 64
9, 100800, Note_on_c, 7, 72, 94
9, 101440, Note_off_c, 7, 72, 64
9, 101760, Note_on_c, 7, 76, 94
9, 102080, Note_off_c, 7, 76, 64
9, 102240, Note_on_c, 7, 72, 94
9, 102240, Note_on_c, 7, 65, 94
9, 102240, Note_on_c, 7, 77, 94
9, 102684, Note_off_c, 7, 65, 64
9, 102684, Note_off_c, 7, 72, 64
9, 103414, Note_off_c, 7, 77, 64
9, 103680, Note_on_c, 7, 67, 94
9, 104860, Note_off_c, 7, 67, 64
9, 105120, Note_on_c, 7, 72, 94
9, 106240, Note_off_c, 7, 72, 64
9, 106560, Note_on_c, 7, 76, 94
9, 106560, Note_on_c, 7, 72, 94
9, 106560, Note_on_c, 7, 64, 94
9, 106994, Note_off_c, 7, 72, 64
9, 107010, Note_off_c, 7, 64, 64
9, 107740, Note_off_c, 7, 76, 64
9, 108000, Note_on_c, 7, 77, 94
9, 108000, Note_on_c, 7, 72, 94
9, 108000, Note_on_c, 7, 65, 94
9, 108320, Note_off_c, 7, 65, 64
9, 108320, Note_off_c, 7, 72, 64
9, 108320, Note_off_c, 7, 77, 64
9, 109440, Note_on_c, 7, 57, 94
9, 109600, Note_off_c, 7, 57, 64
9, 109680, Note_on_c, 7, 60, 94
9, 109840, Note_off_c, 7, 60, 64
9, 109920, Note_on_c, 7, 65, 94
9, 110080, Note_off_c, 7, 65, 64
9, 110160, Note_on_c, 7, 69, 94
9, 110320, Note_off_c, 7, 69, 64
9, 110400, Note_on_c, 7, 72, 94
9, 110560, Note_off_c, 7, 72, 64
9, 112320, Note_on_c, 7, 70, 94
9, 112320, Note_on_c, 7, 67, 94
9, 112640, Note_off_c, 7, 67, 64
9, 112640, Note_off_c, 7, 70, 64
9, 112800, Note_on_c, 7, 70, 94
9, 112800, Note_on_c, 7, 67, 94
9, 113120, Note_off_c, 7, 67, 64
9, 113120, Note_off_c, 7, 70, 64
9, 113280, Note_on_c, 7, 70, 94
9, 113280, Note_on_c, 7, 67, 94
9, 113600, Note_off_c, 7, 67, 64
9, 113600, Note_off_c, 7, 70, 64
9, 113760, Note_on_c, 7, 69, 94
9, 113760, Note_on_c, 7, 65, 94
9, 114080, Note_off_c, 7, 65, 64
9, 114080, Note_off_c, 7, 69, 64
9, 115200, Note_on_c, 7, 57, 94
9, 115360, Note_off_c, 7, 57, 64
9, 115440, Note_on_c, 7, 60, 94
9, 115600, Note_off_c, 7, 60, 64
9, 115680, Note_on_c, 7, 65, 94
9, 115840, Note_off_c, 7, 65, 64
9, 115920, Note_on_c, 7, 69, 94
9, 116080, Note_off_c, 7, 69, 64
9, 116160, Note_on_c, 7, 72, 94
9, 116320, Note_off_c, 7, 72, 64
9, 118080, Note_on_c, 7, 70, 94
9, 118080, Note_on_c, 7, 67, 94
9, 118400, Note_off_c, 7, 67, 64
9, 118400, Note_off_c, 7, 70, 64
9, 118560, Note_on_c, 7, 70, 94
9, 118560, Note_on_c, 7, 67, 94
9, 118880, Note_off_c, 7, 67, 64
9, 118880, Note_off_c, 7, 70, 64
9, 119040, Note_on_c, 7, 70, 94
9, 119040, Note_on_c, 7, 67, 94
9, 119360, Note_off_c, 7, 67, 64
9, 119360, Note_off_c, 7, 70, 64
9, 119520, Note_on_c, 7, 69, 94
9, 119520, Note_on_c, 7, 65, 94
9, 119840, Note_off_c, 7, 65, 64
9, 119840, Note_off_c, 7, 69, 64
9, 122400, Note_on_c, 7, 69, 64
9, 122400, Note_on_c, 7, 65, 64
9, 122400, Note_on_c, 7, 77, 64
9, 122720, Note_off_c, 7, 77, 64
9, 122720, Note_off_c, 7, 65, 64
9, 122720, Note_off_c, 7, 69, 64
9, 125280, Note_on_c, 7, 69, 64
9, 125430, Note_off_c, 7, 69, 64
9, 125760, Note_on_c, 7, 65, 62
9, 125910, Note_off_c, 7, 65, 64
9, 126240, Note_on_c, 7, 65, 59
9, 126404, Note_off_c, 7, 65, 64
9, 126720, Note_on_c, 7, 69, 56
9, 126870, Note_off_c, 7, 69, 64
9, 127200, Note_on_c, 7, 65, 54
9, 127360, Note_off_c, 7, 65, 64
9, 127680, Note_on_c, 7, 65, 51
9, 127830, Note_off_c, 7, 65, 64
9, 128160, Note_on_c, 7, 69, 48
9, 128300, Note_off_c, 7, 69, 64
9, 128640, Note_on_c, 7, 65, 46
9, 128794, Note_off_c, 7, 65, 64
9, 129120, Note_on_c, 7, 65, 43
9, 129270, Note_off_c, 7, 65, 64
9, 129600, Note_on_c, 7, 69, 40
9, 129750, Note_off_c, 7, 69, 64
9, 130080, Note_on_c, 7, 65, 40
9, 130240, Note_off_c, 7, 65, 64
9, 130560, Note_on_c, 7, 65, 40
9, 130710, Note_off_c, 7, 65, 64
9, 131040, Note_on_c, 7, 69, 40
9, 131190, Note_off_c, 7, 69, 64
9, 131520, Note_on_c, 7, 65, 40
9, 131664, Note_off_c, 7, 65, 64
9, 132000, Note_on_c, 7, 65, 40
9, 132154, Note_off_c, 7, 65, 64
9, 132480, Note_on_c, 7, 69, 40
9, 132634, Note_off_c, 7, 69, 64
9, 132960, Note_on_c, 7, 65, 40
9, 133104, Note_off_c, 7, 65, 64
9, 133440, Note_on_c, 7, 65, 40
9, 133590, Note_off_c, 7, 65, 64
9, 133920, Note_on_c, 7, 70, 40
9, 134054, Note_off_c, 7, 70, 64
9, 134400, Note_on_c, 7, 65, 40
9, 134554, Note_off_c, 7, 65, 64
9, 134880, Note_on_c, 7, 65, 40
9, 135040, Note_off_c, 7, 65, 64
9, 135360, Note_on_c, 7, 70, 40
9, 135504, Note_off_c, 7, 70, 64
9, 135840, Note_on_c, 7, 65, 40
9, 135990, Note_off_c, 7, 65, 64
9, 136320, Note_on_c, 7, 65, 40
9, 136464, Note_off_c, 7, 65, 64
9, 136800, Note_on_c, 7, 69, 40
9, 136950, Note_off_c, 7, 69, 64
9, 137280, Note_on_c, 7, 65, 40
9, 137430, Note_off_c, 7, 65, 64
9, 137760, Note_on_c, 7, 65, 40
9, 137914, Note_off_c, 7, 65, 64
9, 138240, Note_on_c, 7, 67, 40
9, 138390, Note_off_c, 7, 67, 64
9, 138720, Note_on_c, 7, 64, 40
9, 138864, Note_off_c, 7, 64, 64
9, 139200, Note_on_c, 7, 64, 40
9, 139344, Note_off_c, 7, 64, 64
9, 139680, Note_on_c, 7, 69, 40
9, 139830, Note_off_c, 7, 69, 64
9, 140160, Note_on_c, 7, 65, 40
9, 140310, Note_off_c, 7, 65, 64
9, 140640, Note_on_c, 7, 65, 40
9, 140794, Note_off_c, 7, 65, 64
9, 141120, Note_on_c, 7, 69, 40
9, 141270, Note_off_c, 7, 69, 64
9, 141600, Note_on_c, 7, 65, 40
9, 141750, Note_off_c, 7, 65, 64
9, 142080, Note_on_c, 7, 65, 40
9, 142234, Note_off_c, 7, 65, 64
9, 142560, Note_on_c, 7, 69, 40
9, 142710, Note_off_c, 7, 69, 64
9, 143040, Note_on_c, 7, 65, 40
9, 143190, Note_off_c, 7, 65, 64
9, 143520, Note_on_c, 7, 65, 40
9, 143674, Note_off_c, 7, 65, 64
9, 144000, Note_on_c, 7, 69, 40
9, 144150, Note_off_c, 7, 69, 64
9, 144480, Note_on_c, 7, 65, 40
9, 144630, Note_off_c, 7, 65, 64
9, 144960, Note_on_c, 7, 65, 40
9, 145114, Note_off_c, 7, 65, 64
9, 145440, Note_on_c, 7, 70, 40
9, 145574, Note_off_c, 7, 70, 64
9, 145920, Note_on_c, 7, 65, 40
9, 146074, Note_off_c, 7, 65, 64
9, 146400, Note_on_c, 7, 65, 40
9, 146560, Note_off_c, 7, 65, 64
9, 146880, Note_on_c, 7, 70, 40
9, 147014, Note_off_c, 7, 70, 64
9, 147360, Note_on_c, 7, 65, 40
9, 147514, Note_off_c, 7, 65, 64
9, 147840, Note_on_c, 7, 65, 40
9, 148000, Note_off_c, 7, 65, 64
9, 148320, Note_on_c, 7, 69, 40
9, 148470, Note_off_c, 7, 69, 64
9, 148800, Note_on_c, 7, 65, 40
9, 148950, Note_off_c, 7, 65, 64
9, 149280, Note_on_c, 7, 65, 40
9, 149434, Note_off_c, 7, 65, 64
9, 149760, Note_on_c, 7, 67, 40
9, 149910, Note_off_c, 7, 67, 64
9, 150240, Note_on_c, 7, 64, 40
9, 150384, Note_off_c, 7, 64, 64
9, 150720, Note_on_c, 7, 64, 40
9, 150864, Note_off_c, 7, 64, 64
9, 151200, Note_on_c, 7, 67, 40
9, 151350, Note_off_c, 7, 67, 64
9, 151680, Note_on_c, 7, 64, 40
9, 151824, Note_off_c, 7, 64, 64
9, 152160, Note_on_c, 7, 64, 40
9, 152304, Note_off_c, 7, 64, 64
9, 152640, Note_on_c, 7, 69, 40
9, 152790, Note_off_c, 7, 69, 64
9, 153120, Note_on_c, 7, 65, 40
9, 153270, Note_off_c, 7, 65, 64
9, 153600, Note_on_c, 7, 65, 40
9, 153754, Note_off_c, 7, 65, 64
9, 154080, Note_on_c, 7, 69, 40
9, 154230, Note_off_c, 7, 69, 64
9, 154560, Note_on_c, 7, 65, 40
9, 154710, Note_off_c, 7, 65, 64
9, 155040, Note_on_c, 7, 65, 40
9, 155194, Note_off_c, 7, 65, 64
9, 155520, Note_on_c, 7, 69, 40
9, 155670, Note_off_c, 7, 69, 64
9, 156000, Note_on_c, 7, 65, 40
9, 156150, Note_off_c, 7, 65, 64
9, 156480, Note_on_c, 7, 65, 40
9, 156634, Note_off_c, 7, 65, 64
9, 156960, Note_on_c, 7, 70, 40
9, 157094, Note_off_c, 7, 70, 64
9, 157440, Note_on_c, 7, 65, 40
9, 157594, Note_off_c, 7, 65, 64
9, 157920, Note_on_c, 7, 65, 40
9, 158080, Note_off_c, 7, 65, 64
9, 158400, Note_on_c, 7, 70, 40
9, 158534, Note_off_c, 7, 70, 64
9, 158880, Note_on_c, 7, 65, 40
9, 159034, Note_off_c, 7, 65, 64
9, 159360, Note_on_c, 7, 65, 40
9, 159520, Note_off_c, 7, 65, 64
9, 159840, Note_on_c, 7, 69, 40
9, 159990, Note_off_c, 7, 69, 64
9, 160320, Note_on_c, 7, 65, 40
9, 160470, Note_off_c, 7, 65, 64
9, 160800, Note_on_c, 7, 65, 40
9, 160954, Note_off_c, 7, 65, 64
9, 161280, Note_on_c, 7, 67, 40
9, 161430, Note_off_c, 7, 67, 64
9, 161760, Note_on_c, 7, 64, 40
9, 161904, Note_off_c, 7, 64, 64
9, 162240, Note_on_c, 7, 64, 40
9, 162384, Note_off_c, 7, 64, 64
9, 162720, Note_on_c, 7, 69, 40
9, 162870, Note_off_c, 7, 69, 64
9, 163200, Note_on_c, 7, 65, 40
9, 163350, Note_off_c, 7, 65, 64
9, 163680, Note_on_c, 7, 65, 40
9, 163834, Note_off_c, 7, 65, 64
9, 164160, Note_on_c, 7, 69, 40
9, 164310, Note_off_c, 7, 69, 64
9, 164640, Note_on_c, 7, 65, 40
9, 164790, Note_off_c, 7, 65, 64
9, 165120, Note_on_c, 7, 65, 40
9, 165274, Note_off_c, 7, 65, 64
9, 165600, Note_on_c, 7, 69, 40
9, 165750, Note_off_c, 7, 69, 64
9, 166080, Note_on_c, 7, 65, 40
9, 166230, Note_off_c, 7, 65, 64
9, 166560, Note_on_c, 7, 65, 40
9, 166714, Note_off_c, 7, 65, 64
9, 167040, Note_on_c, 7, 69, 40
9, 167190, Note_off_c, 7, 69, 64
9, 167520, Note_on_c, 7, 65, 40
9, 167670, Note_off_c, 7, 65, 64
9, 168000, Note_on_c, 7, 65, 40
9, 168154, Note_off_c, 7, 65, 64
9, 168480, Note_on_c, 7, 70, 40
9, 168614, Note_off_c, 7, 70, 64
9, 168960, Note_on_c, 7, 65, 40
9, 169114, Note_off_c, 7, 65, 64
9, 169440, Note_on_c, 7, 65, 40
9, 169600, Note_off_c, 7, 65, 64
9, 169920, Note_on_c, 7, 70, 40
9, 170054, Note_off_c, 7, 70, 64
9, 170400, Note_on_c, 7, 65, 40
9, 170554, Note_off_c, 7, 65, 64
9, 170880, Note_on_c, 7, 65, 40
9, 171040, Note_off_c, 7, 65, 64
9, 171360, Note_on_c, 7, 69, 40
9, 171510, Note_off_c, 7, 69, 64
9, 171840, Note_on_c, 7, 65, 40
9, 171990, Note_off_c, 7, 65, 64
9, 172320, Note_on_c, 7, 65, 40
9, 172474, Note_off_c, 7, 65, 64
9, 172800, Note_on_c, 7, 67, 40
9, 172950, Note_off_c, 7, 67, 64
9, 173280, Note_on_c, 7, 64, 40
9, 173424, Note_off_c, 7, 64, 64
9, 173760, Note_on_c, 7, 64, 40
9, 173904, Note_off_c, 7, 64, 64
9, 174240, Note_on_c, 7, 67, 40
9, 174390, Note_off_c, 7, 67, 64
9, 174720, Note_on_c, 7, 64, 40
9, 174864, Note_off_c, 7, 64, 64
9, 175200, Note_on_c, 7, 64, 40
9, 175344, Note_off_c, 7, 64, 64
9, 175680, Note_on_c, 7, 69, 40
9, 175830, Note_off_c, 7, 69, 64
9, 176160, Note_on_c, 7, 65, 40
9, 176310, Note_off_c, 7, 65, 64
9, 176640, Note_on_c, 7, 65, 40
9, 176794, Note_off_c, 7, 65, 64
9, 188640, Note_on_c, 7, 67, 64
9, 188780, Note_off_c, 7, 67, 64
9, 189120, Note_on_c, 7, 64, 64
9, 189260, Note_off_c, 7, 64, 64
9, 189600, Note_on_c, 7, 64, 64
9, 189760, Note_off_c, 7, 64, 64
9, 190080, Note_on_c, 7, 67, 64
9, 190230, Note_off_c, 7, 67, 64
9, 190560, Note_on_c, 7, 64, 64
9, 190720, Note_off_c, 7, 64, 64
9, 191040, Note_on_c, 7, 64, 64
9, 191184, Note_off_c, 7, 64, 64
9, 191520, Note_on_c, 7, 69, 40
9, 191670, Note_off_c, 7, 69, 64
9, 192000, Note_on_c, 7, 65, 40
9, 192144, Note_off_c, 7, 65, 64
9, 192480, Note_on_c, 7, 65, 40
9, 192634, Note_off_c, 7, 65, 64
9, 192960, Note_on_c, 7, 69, 40
9, 193114, Note_off_c, 7, 69, 64
9, 193440, Note_on_c, 7, 65, 40
9, 193584, Note_off_c, 7, 65, 64
9, 193920, Note_on_c, 7, 65, 40
9, 194070, Note_off_c, 7, 65, 64
9, 194400, Note_on_c, 7, 70, 40
9, 194534, Note_off_c, 7, 70, 64
9, 194880, Note_on_c, 7, 65, 40
9, 195034, Note_off_c, 7, 65, 64
9, 195360, Note_on_c, 7, 65, 40
9, 195520, Note_off_c, 7, 65, 64
9, 195840, Note_on_c, 7, 70, 40
9, 195984, Note_off_c, 7, 70, 64
9, 196320, Note_on_c, 7, 65, 40
9, 196470, Note_off_c, 7, 65, 64
9, 196800, Note_on_c, 7, 65, 40
9, 196944, Note_off_c, 7, 65, 64
9, 197280, Note_on_c, 7, 69, 40
9, 197430, Note_off_c, 7, 69, 64
9, 197760, Note_on_c, 7, 65, 40
9, 197910, Note_off_c, 7, 65, 64
9, 198240, Note_on_c, 7, 65, 40
9, 198394, Note_off_c, 7, 65, 64
9, 198720, Note_on_c, 7, 67, 40
9, 198870, Note_off_c, 7, 67, 64
9, 199200, Note_on_c, 7, 64, 40
9, 199344, Note_off_c, 7, 64, 64
9, 199680, Note_on_c, 7, 64, 40
9, 199824, Note_off_c, 7, 64, 64
9, 200160, Note_on_c, 7, 69, 40
9, 200310, Note_off_c, 7, 69, 64
9, 200640, Note_on_c, 7, 65, 40
9, 200790, Note_off_c, 7, 65, 64
9, 201120, Note_on_c, 7, 65, 40
9, 201274, Note_off_c, 7, 65, 64
9, 201600, Note_on_c, 7, 69, 40
9, 201750, Note_off_c, 7, 69, 64
9, 202080, Note_on_c, 7, 65, 40
9, 202230, Note_off_c, 7, 65, 64
9, 202560, Note_on_c, 7, 65, 40
9, 202714, Note_off_c, 7, 65, 64
9, 203040, Note_on_c, 7, 69, 40
9, 203190, Note_off_c, 7, 69, 64
9, 203520, Note_on_c, 7, 65, 40
9, 203670, Note_off_c, 7, 65, 64
9, 204000, Note_on_c, 7, 65, 40
9, 204154, Note_off_c, 7, 65, 64
9, 204480, Note_on_c, 7, 69, 40
9, 204630, Note_off_c, 7, 69, 64
9, 204960, Note_on_c, 7, 65, 40
9, 205110, Note_off_c, 7, 65, 64
9, 205440, Note_on_c, 7, 65, 40
9, 205594, Note_off_c, 7, 65, 64
9, 205920, Note_on_c, 7, 70, 40
9, 206054, Note_off_c, 7, 70, 64
9, 206400, Note_on_c, 7, 65, 40
9, 206554, Note_off_c, 7, 65, 64
9, 206880, Note_on_c, 7, 65, 40
9, 207040, Note_off_c, 7, 65, 64
9, 207360, Note_on_c, 7, 70, 40
9, 207494, Note_off_c, 7, 70, 64
9, 207840, Note_on_c, 7, 65, 40
9, 207994, Note_off_c, 7, 65, 64
9, 208320, Note_on_c, 7, 65, 40
9, 208480, Note_off_c, 7, 65, 64
9, 208800, Note_on_c, 7, 69, 40
9, 208950, Note_off_c, 7, 69, 64
9, 209280, Note_on_c, 7, 65, 40
9, 209430, Note_off_c, 7, 65, 64
9, 209760, Note_on_c, 7, 65, 40
9, 209914, Note_off_c, 7, 65, 64
9, 210240, Note_on_c, 7, 69, 40
9, 210390, Note_off_c, 7, 69, 64
9, 210720, Note_on_c, 7, 65, 40
9, 210870, Note_off_c, 7, 65, 64
9, 211200, Note_on_c, 7, 65, 40
9, 211354, Note_off_c, 7, 65, 64
9, 211680, Note_on_c, 7, 70, 64
9, 211840, Note_off_c, 7, 70, 64
9, 212160, Note_on_c, 7, 60, 64
9, 212320, Note_off_c, 7, 60, 64
9, 212640, Note_on_c, 7, 60, 64
9, 212800, Note_off_c, 7, 60, 64
9, 213120, Note_on_c, 7, 70, 64
9, 213280, Note_off_c, 7, 70, 64
9, 213600, Note_on_c, 7, 60, 64
9, 213760, Note_off_c, 7, 60, 64
9, 214080, Note_on_c, 7, 60, 64
9, 214240, Note_off_c, 7, 60, 64
9, 214560, Note_on_c, 7, 69, 40
9, 214710, Note_off_c, 7, 69, 64
9, 215040, Note_on_c, 7, 65, 40
9, 215190, Note_off_c, 7, 65, 64
9, 215520, Note_on_c, 7, 65, 40
9, 215674, Note_off_c, 7, 65, 64
9, 216000, Note_on_c, 7, 69, 40
9, 216150, Note_off_c, 7, 69, 64
9, 216480, Note_on_c, 7, 65, 40
9, 216630, Note_off_c, 7, 65, 64
9, 216960, Note_on_c, 7, 65, 40
9, 217114, Note_off_c, 7, 65, 64
9, 217440, Note_on_c, 7, 67, 40
9, 217590, Note_off_c, 7, 67, 64
9, 217920, Note_on_c, 7, 64, 40
9, 218064, Note_off_c, 7, 64, 64
9, 218400, Note_on_c, 7, 64, 40
9, 218544, Note_off_c, 7, 64, 64
9, 218880, Note_on_c, 7, 67, 40
9, 219030, Note_off_c, 7, 67, 64
9, 219360, Note_on_c, 7, 64, 40
9, 219504, Note_off_c, 7, 64, 64
9, 219840, Note_on_c, 7, 64, 40
9, 219984, Note_off_c, 7, 64, 64
9, 220320, Note_on_c, 7, 65, 64
9, 222720, Note_off_c, 7, 65, 64
9, 223200, Note_on_c, 7, 64, 70
9, 225600, Note_off_c, 7, 64, 64
9, 226080, Note_on_c, 7, 65, 76
9, 228480, Note_off_c, 7, 65, 64
9, 228960, Note_on_c, 7, 64, 82
9, 231360, Note_off_c, 7, 64, 64
9, 231840, Note_on_c, 7, 65, 95
9, 232160, Note_off_c, 7, 65, 64
9, 237600, Note_on_c, 7, 65, 85
9, 237640, Note_off_c, 7, 65, 64
9, 237840, Note_on_c, 7, 67, 85
9, 237880, Note_off_c, 7, 67, 64
9, 237960, Note_on_c, 7, 65, 85
9, 237994, Note_off_c, 7, 65, 64
9, 238080, Note_on_c, 7, 60, 85
9, 238120, Note_off_c, 7, 60, 64
9, 238320, Note_on_c, 7, 62, 85
9, 238364, Note_off_c, 7, 62, 64
9, 238440, Note_on_c, 7, 64, 85
9, 238470, Note_off_c, 7, 64, 64
9, 238560, Note_on_c, 7, 65, 85
9, 238600, Note_off_c, 7, 65, 64
9, 238800, Note_on_c, 7, 67, 85
9, 238840, Note_off_c, 7, 67, 64
9, 238920, Note_on_c, 7, 65, 85
9, 238954, Note_off_c, 7, 65, 64
9, 239040, Note_on_c, 7, 60, 85
9, 239360, Note_off_c, 7, 60, 64
9, 239520, Note_on_c, 7, 58, 85
9, 239554, Note_off_c, 7, 58, 64
9, 239640, Note_on_c, 7, 60, 85
9, 239670, Note_off_c, 7, 60, 64
9, 239760, Note_on_c, 7, 62, 85
9, 239800, Note_off_c, 7, 62, 64
9, 239880, Note_on_c, 7, 63, 85
9, 239920, Note_off_c, 7, 63, 64
9, 240000, Note_on_c, 7, 65, 85
9, 240034, Note_off_c, 7, 65, 64
9, 240240, Note_on_c, 7, 65, 85
9, 240280, Note_off_c, 7, 65, 64
9, 240314, Note_on_c, 7, 67, 85
9, 240384, Note_off_c, 7, 67, 64
9, 240480, Note_on_c, 7, 60, 85
9, 240520, Note_off_c, 7, 60, 64
9, 240720, Note_on_c, 7, 60, 85
9, 240740, Note_off_c, 7, 60, 64
9, 240794, Note_on_c, 7, 65, 85
9, 240834, Note_off_c, 7, 65, 64
9, 240960, Note_on_c, 7, 58, 85
9, 241280, Note_off_c, 7, 58, 64
9, 241440, Note_on_c, 7, 65, 85
9, 241480, Note_off_c, 7, 65, 64
9, 241680, Note_on_c, 7, 67, 85
9, 241720, Note_off_c, 7, 67, 64
9, 241800, Note_on_c, 7, 65, 85
9, 241834, Note_off_c, 7, 65, 64
9, 241920, Note_on_c, 7, 60, 85
9, 241960, Note_off_c, 7, 60, 64
9, 242160, Note_on_c, 7, 62, 85
9, 242204, Note_off_c, 7, 62, 64
9, 242280, Note_on_c, 7, 64, 85
9, 242310, Note_off_c, 7, 64, 64
9, 242400, Note_on_c, 7, 65, 85
9, 242440, Note_off_c, 7, 65, 64
9, 242640, Note_on_c, 7, 67, 85
9, 242680, Note_off_c, 7, 67, 64
9, 242760, Note_on_c, 7, 65, 85
9, 242794, Note_off_c, 7, 65, 64
9, 242880, Note_on_c, 7, 60, 85
9, 243200, Note_off_c, 7, 60, 64
9, 243360, Note_on_c, 7, 58, 85
9, 243394, Note_off_c, 7, 58, 64
9, 243480, Note_on_c, 7, 60, 85
9, 243510, Note_off_c, 7, 60, 64
9, 243600, Note_on_c, 7, 62, 85
9, 243640, Note_off_c, 7, 62, 64
9, 243720, Note_on_c, 7, 63, 85
9, 243760, Note_off_c, 7, 63, 64
9, 243840, Note_on_c, 7, 65, 85
9, 243874, Note_off_c, 7, 65, 64
9, 244080, Note_on_c, 7, 65, 85
9, 244120, Note_off_c, 7, 65, 64
9, 244154, Note_on_c, 7, 67, 85
9, 244224, Note_off_c, 7, 67, 64
9, 244320, Note_on_c, 7, 60, 85
9, 244360, Note_off_c, 7, 60, 64
9, 244560, Note_on_c, 7, 60, 85
9, 244580, Note_off_c, 7, 60, 64
9, 244634, Note_on_c, 7, 65, 85
9, 244674, Note_off_c, 7, 65, 64
9, 244800, Note_on_c, 7, 58, 85
9, 245120, Note_off_c, 7, 58, 64
9, 245280, Note_on_c, 7, 65, 85
9, 245320, Note_off_c, 7, 65, 64
9, 245520, Note_on_c, 7, 67, 85
9, 245560, Note_off_c, 7, 67, 64
9, 245640, Note_on_c, 7, 65, 85
9, 245674, Note_off_c, 7, 65, 64
9, 245760, Note_on_c, 7, 60, 85
9, 245800, Note_off_c, 7, 60, 64
9, 246000, Note_on_c, 7, 62, 85
9, 246044, Note_off_c, 7, 62, 64
9, 246120, Note_on_c, 7, 64, 85
9, 246150, Note_off_c, 7, 64, 64
9, 246240, Note_on_c, 7, 65, 85
9, 246280, Note_off_c, 7, 65, 64
9, 246480, Note_on_c, 7, 67, 85
9, 246520, Note_off_c, 7, 67, 64
9, 246600, Note_on_c, 7, 65, 85
9, 246634, Note_off_c, 7, 65, 64
9, 246720, Note_on_c, 7, 60, 85
9, 247040, Note_off_c, 7, 60, 64
9, 247200, Note_on_c, 7, 58, 85
9, 247234, Note_off_c, 7, 58, 64
9, 247320, Note_on_c, 7, 60, 85
9, 247350, Note_off_c, 7, 60, 64
9, 247440, Note_on_c, 7, 62, 85
9, 247480, Note_off_c, 7, 62, 64
9, 247560, Note_on_c, 7, 63, 85
9, 247600, Note_off_c, 7, 63, 64
9, 247680, Note_on_c, 7, 65, 85
9, 247714, Note_off_c, 7, 65, 64
9, 247920, Note_on_c, 7, 65, 85
9, 247960, Note_off_c, 7, 65, 64
9, 247994, Note_on_c, 7, 67, 85
9, 248064, Note_off_c, 7, 67, 64
9, 248160, Note_on_c, 7, 60, 85
9, 248200, Note_off_c, 7, 60, 64
9, 248400, Note_on_c, 7, 60, 85
9, 248420, Note_off_c, 7, 60, 64
9, 248474, Note_on_c, 7, 65, 85
9, 248514, Note_off_c, 7, 65, 64
9, 248640, Note_on_c, 7, 58, 85
9, 248960, Note_off_c, 7, 58, 64
9, 249120, Note_on_c, 7, 65, 85
9, 249160, Note_off_c, 7, 65, 64
9, 249360, Note_on_c, 7, 67, 85
9, 249400, Note_off_c, 7, 67, 64
9, 249480, Note_on_c, 7, 65, 85
9, 249514, Note_off_c, 7, 65, 64
9, 249600, Note_on_c, 7, 60, 85
9, 249640, Note_off_c, 7, 60, 64
9, 249840, Note_on_c, 7, 62, 85
9, 249884, Note_off_c, 7, 62, 64
9, 249960, Note_on_c, 7, 64, 85
9, 249990, Note_off_c, 7, 64, 64
9, 250080, Note_on_c, 7, 65, 85
9, 250120, Note_off_c, 7, 65, 64
9, 250320, Note_on_c, 7, 67, 85
9, 250360, Note_off_c, 7, 67, 64
9, 250440, Note_on_c, 7, 65, 85
9, 250474, Note_off_c, 7, 65, 64
9, 250560, Note_on_c, 7, 60, 85
9, 250880, Note_off_c, 7, 60, 64
9, 251040, Note_on_c, 7, 58, 85
9, 251074, Note_off_c, 7, 58, 64
9, 251160, Note_on_c, 7, 60, 85
9, 251190, Note_off_c, 7, 60, 64
9, 251280, Note_on_c, 7, 62, 85
9, 251320, Note_off_c, 7, 62, 64
9, 251400, Note_on_c, 7, 63, 85
9, 251440, Note_off_c, 7, 63, 64
9, 251520, Note_on_c, 7, 65, 85
9, 251554, Note_off_c, 7, 65, 64
9, 251760, Note_on_c, 7, 65, 85
9, 251800, Note_off_c, 7, 65, 64
9, 251834, Note_on_c, 7, 67, 85
9, 251904, Note_off_c, 7, 67, 64
9, 252000, Note_on_c, 7, 60, 85
9, 252040, Note_off_c, 7, 60, 64
9, 252240, Note_on_c, 7, 60, 85
9, 252260, Note_off_c, 7, 60, 64
9, 252314, Note_on_c, 7, 65, 85
9, 252354, Note_off_c, 7, 65, 64
9, 252480, Note_on_c, 7, 58, 85
9, 252800, Note_off_c, 7, 58, 64
9, 252960, Note_on_c, 7, 72, 102
9, 253424, Note_off_c, 7, 72, 64
9, 253440, Note_on_c, 7, 74, 85
9, 253660, Note_off_c, 7, 74, 64
9, 253920, Note_on_c, 7, 72, 97
9, 254374, Note_off_c, 7, 72, 64
9, 254400, Note_on_c, 7, 76, 85
9, 254624, Note_off_c, 7, 76, 64
9, 254880, Note_on_c, 7, 77, 93
9, 255340, Note_off_c, 7, 77, 64
9, 255360, Note_on_c, 7, 69, 95
9, 255680, Note_off_c, 7, 69, 64
9, 255840, Note_on_c, 7, 70, 98
9, 256160, Note_off_c, 7, 70, 64
9, 256320, Note_on_c, 7, 69, 85
9, 256480, Note_off_c, 7, 69, 64
9, 256560, Note_on_c, 7, 71, 85
9, 256720, Note_off_c, 7, 71, 64
9, 256800, Note_on_c, 7, 72, 102
9, 257264, Note_off_c, 7, 72, 64
9, 257280, Note_on_c, 7, 74, 85
9, 257500, Note_off_c, 7, 74, 64
9, 257760, Note_on_c, 7, 72, 97
9, 258214, Note_off_c, 7, 72, 64
9, 258240, Note_on_c, 7, 76, 85
9, 258464, Note_off_c, 7, 76, 64
9, 258720, Note_on_c, 7, 77, 93
9, 259180, Note_off_c, 7, 77, 64
9, 259200, Note_on_c, 7, 69, 95
9, 259520, Note_off_c, 7, 69, 64
9, 259680, Note_on_c, 7, 70, 98
9, 260000, Note_off_c, 7, 70, 64
9, 260160, Note_on_c, 7, 69, 85
9, 260320, Note_off_c, 7, 69, 64
9, 260640, Note_on_c, 7, 60, 88
9, 260730, Note_off_c, 7, 60, 64
9, 260880, Note_on_c, 7, 62, 88
9, 260920, Note_off_c, 7, 62, 64
9, 261000, Note_on_c, 7, 60, 88
9, 261040, Note_off_c, 7, 60, 64
9, 261120, Note_on_c, 7, 59, 88
9, 261220, Note_off_c, 7, 59, 64
9, 261360, Note_on_c, 7, 60, 88
9, 261400, Note_off_c, 7, 60, 64
9, 261480, Note_on_c, 7, 62, 89
9, 261524, Note_off_c, 7, 62, 64
9, 261600, Note_on_c, 7, 64, 89
9, 261700, Note_off_c, 7, 64, 64
9, 261840, Note_on_c, 7, 65, 89
9, 261884, Note_off_c, 7, 65, 64
9, 261960, Note_on_c, 7, 64, 89
9, 261994, Note_off_c, 7, 64, 64
9, 262080, Note_on_c, 7, 62, 89
9, 262180, Note_off_c, 7, 62, 64
9, 262320, Note_on_c, 7, 64, 90
9, 262360, Note_off_c, 7, 64, 64
9, 262440, Note_on_c, 7, 65, 90
9, 262474, Note_off_c, 7, 65, 64
9, 262560, Note_on_c, 7, 67, 90
9, 262674, Note_off_c, 7, 67, 64
9, 262800, Note_on_c, 7, 65, 90
9, 262850, Note_off_c, 7, 65, 64
9, 262920, Note_on_c, 7, 67, 90
9, 262970, Note_off_c, 7, 67, 64
9, 263040, Note_on_c, 7, 69, 90
9, 263164, Note_off_c, 7, 69, 64
9, 263520, Note_on_c, 7, 72, 91
9, 263520, Note_on_c, 7, 64, 91
9, 263680, Note_off_c, 7, 64, 64
9, 263680, Note_off_c, 7, 72, 64
9, 264000, Note_on_c, 7, 71, 92
9, 264000, Note_on_c, 7, 65, 92
9, 264000, Note_on_c, 7, 55, 92
9, 264160, Note_off_c, 7, 55, 64
9, 264160, Note_off_c, 7, 65, 64
9, 264160, Note_off_c, 7, 71, 64
9, 264480, Note_on_c, 7, 60, 92
9, 264570, Note_off_c, 7, 60, 64
9, 264720, Note_on_c, 7, 62, 92
9, 264760, Note_off_c, 7, 62, 64
9, 264840, Note_on_c, 7, 60, 93
9, 264880, Note_off_c, 7, 60, 64
9, 264960, Note_on_c, 7, 59, 93
9, 265060, Note_off_c, 7, 59, 64
9, 265200, Note_on_c, 7, 60, 93
9, 265240, Note_off_c, 7, 60, 64
9, 265320, Note_on_c, 7, 62, 93
9, 265364, Note_off_c, 7, 62, 64
9, 265440, Note_on_c, 7, 64, 93
9, 265540, Note_off_c, 7, 64, 64
9, 265680, Note_on_c, 7, 65, 94
9, 265724, Note_off_c, 7, 65, 64
9, 265800, Note_on_c, 7, 64, 94
9, 265834, Note_off_c, 7, 64, 64
9, 265920, Note_on_c, 7, 62, 94
9, 266020, Note_off_c, 7, 62, 64
9, 266160, Note_on_c, 7, 64, 94
9, 266200, Note_off_c, 7, 64, 64
9, 266280, Note_on_c, 7, 65, 94
9, 266314, Note_off_c, 7, 65, 64
9, 266400, Note_on_c, 7, 67, 94
9, 266514, Note_off_c, 7, 67, 64
9, 266640, Note_on_c, 7, 65, 95
9, 266690, Note_off_c, 7, 65, 64
9, 266760, Note_on_c, 7, 67, 95
9, 266810, Note_off_c, 7, 67, 64
9, 266880, Note_on_c, 7, 69, 95
9, 267004, Note_off_c, 7, 69, 64
9, 267360, Note_on_c, 7, 72, 90
9, 267360, Note_on_c, 7, 64, 90
9, 267520, Note_off_c, 7, 64, 64
9, 267520, Note_off_c, 7, 72, 64
9, 267840, Note_on_c, 7, 71, 91
9, 267840, Note_on_c, 7, 65, 91
9, 267840, Note_on_c, 7, 55, 91
9, 268000, Note_off_c, 7, 55, 64
9, 268000, Note_off_c, 7, 65, 64
9, 268000, Note_off_c, 7, 71, 64
9, 268320, Note_on_c, 7, 72, 93
9, 268320, Note_on_c, 7, 64, 93
9, 268320, Note_on_c, 7, 55, 93
9, 268800, Note_off_c, 7, 55, 64
9, 268800, Note_off_c, 7, 64, 64
9, 268800, Note_off_c, 7, 72, 64
9, 269040, Note_on_c, 7, 64, 95
9, 269200, Note_off_c, 7, 64, 64
9, 269280, Note_on_c, 7, 64, 96
9, 269760, Note_off_c, 7, 64, 64
9, 270000, Note_on_c, 7, 60, 98
9, 270160, Note_off_c, 7, 60, 64
9, 270240, Note_on_c, 7, 60, 99
9, 270720, Note_off_c, 7, 60, 64
9, 270960, Note_on_c, 7, 67, 101
9, 271120, Note_off_c, 7, 67, 64
9, 271200, Note_on_c, 7, 67, 102
9, 271680, Note_off_c, 7, 67, 64
9, 271920, Note_on_c, 7, 60, 104
9, 272080, Note_off_c, 7, 60, 64
9, 272160, Note_on_c, 7, 60, 105
9, 272320, Note_off_c, 7, 60, 64
9, 272400, Note_on_c, 7, 72, 106
9, 272560, Note_off_c, 7, 72, 64
9, 272640, Note_on_c, 7, 72, 107
9, 272800, Note_off_c, 7, 72, 64
9, 272880, Note_on_c, 7, 64, 108
9, 273040, Note_off_c, 7, 64, 64
9, 273120, Note_on_c, 7, 64, 108
9, 273280, Note_off_c, 7, 64, 64
9, 273360, Note_on_c, 7, 76, 109
9, 273520, Note_off_c, 7, 76, 64
9, 273600, Note_on_c, 7, 76, 110
9, 273760, Note_off_c, 7, 76, 64
9, 273840, Note_on_c, 7, 76, 111
9, 273840, Note_on_c, 7, 72, 111
9, 274000, Note_off_c, 7, 72, 64
9, 274000, Note_off_c, 7, 76, 64
9, 274080, Note_on_c, 7, 76, 112
9, 274080, Note_on_c, 7, 72, 112
9, 274080, Note_on_c, 7, 64, 112
9, 274400, Note_off_c, 7, 64, 64
9, 274400, Note_off_c, 7, 72, 64
9, 274400, Note_off_c, 7, 76, 64
9, 275040, Note_on_c, 7, 72, 66
9, 275040, Note_on_c, 7, 64, 66
9, 275040, Note_on_c, 7, 55, 66
9, 275360, Note_off_c, 7, 55, 64
9, 275360, Note_off_c, 7, 64, 64
9, 275360, Note_off_c, 7, 72, 64
9, 276960, Control_c, 7, 93, 9
9, 276960, Control_c, 7, 91, 52
9, 276960, Control_c, 7, 10, 33
9, 276960, Control_c, 7, 7, 99
9, 276960, Control_c, 7, 0, 0
9, 276960, Control_c, 7, 32, 0
9, 276960, Program_c, 7, 48
9, 276960, Control_c, 7, 93, 9
9, 276960, Control_c, 7, 91, 52
9, 276960, Control_c, 7, 10, 33
9, 276960, Control_c, 7, 7, 99
9, 276960, Control_c, 7, 0, 0
9, 276960, Control_c, 7, 32, 0
9, 276960, Program_c, 7, 48
9, 277920, Note_on_c, 7, 72, 32
9, 278034, Note_off_c, 7, 72, 64
9, 278400, Note_on_c, 7, 77, 32
9, 278504, Note_off_c, 7, 77, 64
9, 278880, Note_on_c, 7, 72, 32
9, 278980, Note_off_c, 7, 72, 64
9, 279360, Note_on_c, 7, 74, 32
9, 279470, Note_off_c, 7, 74, 64
9, 279840, Note_on_c, 7, 72, 32
9, 279944, Note_off_c, 7, 72, 64
9, 280320, Note_on_c, 7, 69, 32
9, 280410, Note_off_c, 7, 69, 64
9, 280800, Note_on_c, 7, 70, 32
9, 280900, Note_off_c, 7, 70, 64
9, 281280, Note_on_c, 7, 69, 32
9, 281370, Note_off_c, 7, 69, 64
9, 281760, Note_on_c, 7, 65, 32
9, 281854, Note_off_c, 7, 65, 64
9, 282240, Note_on_c, 7, 67, 32
9, 282334, Note_off_c, 7, 67, 64
9, 282720, Note_on_c, 7, 69, 32
9, 282820, Note_off_c, 7, 69, 64
9, 283200, Note_on_c, 7, 65, 32
9, 283294, Note_off_c, 7, 65, 64
9, 283680, Note_on_c, 7, 67, 32
9, 283780, Note_off_c, 7, 67, 64
9, 284160, Note_on_c, 7, 65, 32
9, 284180, Note_off_c, 7, 65, 64
9, 284220, Note_on_c, 7, 69, 32
9, 284320, Note_off_c, 7, 69, 64
9, 284640, Note_on_c, 7, 65, 32
9, 284740, Note_off_c, 7, 65, 64
9, 285120, Note_on_c, 7, 67, 32
9, 285224, Note_off_c, 7, 67, 64
9, 285600, Note_on_c, 7, 62, 32
9, 285620, Note_off_c, 7, 62, 64
9, 285660, Note_on_c, 7, 65, 32
9, 285760, Note_off_c, 7, 65, 64
9, 286080, Note_on_c, 7, 62, 32
9, 286184, Note_off_c, 7, 62, 64
9, 286560, Note_on_c, 7, 64, 32
9, 286660, Note_off_c, 7, 64, 64
9, 287040, Note_on_c, 7, 57, 32
9, 287060, Note_off_c, 7, 57, 64
9, 287100, Note_on_c, 7, 62, 32
9, 287204, Note_off_c, 7, 62, 64
9, 287520, Note_on_c, 7, 57, 32
9, 287620, Note_off_c, 7, 57, 64
9, 288000, Note_on_c, 7, 57, 32
9, 288100, Note_off_c, 7, 57, 64
9, 288480, Note_on_c, 7, 57, 32
9, 288574, Note_off_c, 7, 57, 64
9, 289440, Note_on_c, 7, 57, 32
9, 289760, Note_off_c, 7, 57, 64
9, 289920, Note_on_c, 7, 62, 32
9, 290810, Note_off_c, 7, 62, 64
9, 290880, Note_on_c, 7, 66, 36
9, 291200, Note_off_c, 7, 66, 64
9, 291360, Note_on_c, 7, 69, 38
9, 291800, Note_off_c, 7, 69, 64
9, 291840, Note_on_c, 7, 66, 40
9, 292280, Note_off_c, 7, 66, 64
9, 292320, Note_on_c, 7, 66, 42
9, 292640, Note_off_c, 7, 66, 64
9, 292800, Note_on_c, 7, 69, 44
9, 293254, Note_off_c, 7, 69, 64
9, 293280, Note_on_c, 7, 73, 46
9, 293714, Note_off_c, 7, 73, 64
9, 293760, Note_on_c, 7, 74, 48
9, 293994, Note_off_c, 7, 74, 64
9, 294000, Note_on_c, 7, 71, 48
9, 294224, Note_off_c, 7, 71, 64
9, 294240, Note_on_c, 7, 69, 48
9, 295124, Note_off_c, 7, 69, 64
9, 295200, Note_on_c, 7, 73, 48
9, 295640, Note_off_c, 7, 73, 64
9, 295680, Note_on_c, 7, 74, 48
9, 296130, Note_off_c, 7, 74, 64
9, 296160, Note_on_c, 7, 69, 48
9, 296614, Note_off_c, 7, 69, 64
9, 296640, Note_on_c, 7, 71, 48
9, 297094, Note_off_c, 7, 71, 64
9, 297120, Note_on_c, 7, 69, 48
9, 297554, Note_off_c, 7, 69, 64
9, 297600, Note_on_c, 7, 66, 48
9, 298040, Note_off_c, 7, 66, 64
9, 298080, Note_on_c, 7, 67, 48
9, 298510, Note_off_c, 7, 67, 64
9, 298560, Note_on_c, 7, 66, 48
9, 298994, Note_off_c, 7, 66, 64
9, 299040, Note_on_c, 7, 62, 47
9, 299464, Note_off_c, 7, 62, 64
9, 299520, Note_on_c, 7, 66, 46
9, 299724, Note_off_c, 7, 66, 64
9, 299760, Note_on_c, 7, 64, 45
9, 300000, Note_on_c, 7, 62, 44
9, 300004, Note_off_c, 7, 64, 64
9, 300160, Note_off_c, 7, 62, 64
9, 300960, Note_on_c, 7, 72, 32
9, 301074, Note_off_c, 7, 72, 64
9, 301440, Note_on_c, 7, 77, 32
9, 301544, Note_off_c, 7, 77, 64
9, 301920, Note_on_c, 7, 72, 32
9, 302020, Note_off_c, 7, 72, 64
9, 302400, Note_on_c, 7, 74, 32
9, 302510, Note_off_c, 7, 74, 64
9, 302880, Note_on_c, 7, 72, 32
9, 302984, Note_off_c, 7, 72, 64
9, 303360, Note_on_c, 7, 69, 32
9, 303450, Note_off_c, 7, 69, 64
9, 303840, Note_on_c, 7, 70, 32
9, 303940, Note_off_c, 7, 70, 64
9, 304320, Note_on_c, 7, 69, 32
9, 304410, Note_off_c, 7, 69, 64
9, 304800, Note_on_c, 7, 65, 32
9, 304894, Note_off_c, 7, 65, 64
9, 305280, Note_on_c, 7, 67, 32
9, 305374, Note_off_c, 7, 67, 64
9, 305760, Note_on_c, 7, 69, 32
9, 305860, Note_off_c, 7, 69, 64
9, 306240, Note_on_c, 7, 65, 32
9, 306334, Note_off_c, 7, 65, 64
9, 306720, Note_on_c, 7, 67, 32
9, 306820, Note_off_c, 7, 67, 64
9, 307200, Note_on_c, 7, 65, 32
9, 307220, Note_off_c, 7, 65, 64
9, 307260, Note_on_c, 7, 69, 32
9, 307360, Note_off_c, 7, 69, 64
9, 307680, Note_on_c, 7, 65, 32
9, 307780, Note_off_c, 7, 65, 64
9, 308160, Note_on_c, 7, 67, 32
9, 308264, Note_off_c, 7, 67, 64
9, 308640, Note_on_c, 7, 62, 32
9, 308660, Note_off_c, 7, 62, 64
9, 308700, Note_on_c, 7, 65, 32
9, 308800, Note_off_c, 7, 65, 64
9, 309120, Note_on_c, 7, 62, 32
9, 309224, Note_off_c, 7, 62, 64
9, 309600, Note_on_c, 7, 64, 32
9, 309700, Note_off_c, 7, 64, 64
9, 310080, Note_on_c, 7, 57, 32
9, 310100, Note_off_c, 7, 57, 64
9, 310140, Note_on_c, 7, 62, 32
9, 310244, Note_off_c, 7, 62, 64
9, 310560, Note_on_c, 7, 57, 32
9, 310660, Note_off_c, 7, 57, 64
9, 311040, Note_on_c, 7, 57, 32
9, 311140, Note_off_c, 7, 57, 64
9, 311520, Note_on_c, 7, 57, 32
9, 311614, Note_off_c, 7, 57, 64
9, 312480, Note_on_c, 7, 57, 32
9, 312800, Note_off_c, 7, 57, 64
9, 312960, Note_on_c, 7, 62, 32
9, 313850, Note_off_c, 7, 62, 64
9, 313920, Note_on_c, 7, 66, 36
9, 314240, Note_off_c, 7, 66, 64
9, 314400, Note_on_c, 7, 69, 38
9, 314840, Note_off_c, 7, 69, 64
9, 314880, Note_on_c, 7, 66, 40
9, 315320, Note_off_c, 7, 66, 64
9, 315360, Note_on_c, 7, 66, 42
9, 315680, Note_off_c, 7, 66, 64
9, 315840, Note_on_c, 7, 69, 44
9, 316294, Note_off_c, 7, 69, 64
9, 316320, Note_on_c, 7, 73, 46
9, 316754, Note_off_c, 7, 73, 64
9, 316800, Note_on_c, 7, 74, 48
9, 317034, Note_off_c, 7, 74, 64
9, 317040, Note_on_c, 7, 71, 48
9, 317264, Note_off_c, 7, 71, 64
9, 317280, Note_on_c, 7, 69, 48
9, 318164, Note_off_c, 7, 69, 64
9, 318240, Note_on_c, 7, 73, 48
9, 318680, Note_off_c, 7, 73, 64
9, 318720, Note_on_c, 7, 74, 48
9, 319170, Note_off_c, 7, 74, 64
9, 319200, Note_on_c, 7, 69, 48
9, 319654, Note_off_c, 7, 69, 64
9, 319680, Note_on_c, 7, 71, 48
9, 320134, Note_off_c, 7, 71, 64
9, 320160, Note_on_c, 7, 69, 48
9, 320594, Note_off_c, 7, 69, 64
9, 320640, Note_on_c, 7, 66, 48
9, 321080, Note_off_c, 7, 66, 64
9, 321120, Note_on_c, 7, 67, 48
9, 321550, Note_off_c, 7, 67, 64
9, 321600, Note_on_c, 7, 66, 48
9, 322034, Note_off_c, 7, 66, 64
9, 322080, Note_on_c, 7, 62, 47
9, 322504, Note_off_c, 7, 62, 64
9, 322560, Note_on_c, 7, 66, 46
9, 322764, Note_off_c, 7, 66, 64
9, 322800, Note_on_c, 7, 64, 45
9, 323040, Note_on_c, 7, 62, 44
9, 323044, Note_off_c, 7, 64, 64
9, 323200, Note_off_c, 7, 62, 64
9, 324000, Note_on_c, 7, 69, 30
9, 324160, Note_off_c, 7, 69, 64
9, 324480, Note_on_c, 7, 74, 30
9, 324640, Note_off_c, 7, 74, 64
9, 324960, Note_on_c, 7, 69, 30
9, 325120, Note_off_c, 7, 69, 64
9, 325440, Note_on_c, 7, 71, 30
9, 325600, Note_off_c, 7, 71, 64
9, 325920, Note_on_c, 7, 69, 30
9, 326080, Note_off_c, 7, 69, 64
9, 326400, Note_on_c, 7, 66, 30
9, 326560, Note_off_c, 7, 66, 64
9, 326880, Note_on_c, 7, 67, 30
9, 327040, Note_off_c, 7, 67, 64
9, 327360, Note_on_c, 7, 66, 30
9, 327520, Note_off_c, 7, 66, 64
9, 327840, Note_on_c, 7, 62, 30
9, 328000, Note_off_c, 7, 62, 64
9, 328320, Note_on_c, 7, 64, 30
9, 328480, Note_off_c, 7, 64, 64
9, 328800, Note_on_c, 7, 66, 30
9, 328960, Note_off_c, 7, 66, 64
9, 329280, Note_on_c, 7, 62, 30
9, 329440, Note_off_c, 7, 62, 64
9, 329760, Note_on_c, 7, 62, 30
9, 329920, Note_off_c, 7, 62, 64
9, 330240, Note_on_c, 7, 67, 30
9, 330400, Note_off_c, 7, 67, 64
9, 330720, Note_on_c, 7, 62, 30
9, 330880, Note_off_c, 7, 62, 64
9, 331200, Note_on_c, 7, 64, 30
9, 331360, Note_off_c, 7, 64, 64
9, 331680, Note_on_c, 7, 62, 30
9, 331840, Note_off_c, 7, 62, 64
9, 332160, Note_on_c, 7, 59, 30
9, 332320, Note_off_c, 7, 59, 64
9, 332640, Note_on_c, 7, 60, 30
9, 332800, Note_off_c, 7, 60, 64
9, 333120, Note_on_c, 7, 59, 30
9, 333280, Note_off_c, 7, 59, 64
9, 333600, Note_on_c, 7, 55, 30
9, 333760, Note_off_c, 7, 55, 64
9, 334080, Note_on_c, 7, 57, 30
9, 334240, Note_off_c, 7, 57, 64
9, 334560, Note_on_c, 7, 59, 30
9, 334720, Note_off_c, 7, 59, 64
9, 335040, Note_on_c, 7, 55, 30
9, 335200, Note_off_c, 7, 55, 64
9, 335520, Note_on_c, 7, 55, 30
9, 335680, Note_off_c, 7, 55, 64
9, 336000, Note_on_c, 7, 60, 32
9, 336640, Note_off_c, 7, 60, 64
9, 336960, Note_on_c, 7, 64, 39
9, 337280, Note_off_c, 7, 64, 64
9, 337440, Note_on_c, 7, 67, 42
9, 337760, Note_off_c, 7, 67, 64
9, 337920, Note_on_c, 7, 64, 46
9, 338240, Note_off_c, 7, 64, 64
9, 338400, Note_on_c, 7, 64, 49
9, 338720, Note_off_c, 7, 64, 64
9, 338880, Note_on_c, 7, 67, 53
9, 339200, Note_off_c, 7, 67, 64
9, 339360, Note_on_c, 7, 71, 56
9, 339680, Note_off_c, 7, 71, 64
9, 339840, Note_on_c, 7, 72, 60
9, 340000, Note_off_c, 7, 72, 64
9, 340080, Note_on_c, 7, 69, 62
9, 340240, Note_off_c, 7, 69, 64
9, 340320, Note_on_c, 7, 67, 64
9, 340960, Note_off_c, 7, 67, 64
9, 341280, Note_on_c, 7, 71, 64
9, 341600, Note_off_c, 7, 71, 64
9, 341760, Note_on_c, 7, 72, 64
9, 342080, Note_off_c, 7, 72, 64
9, 342240, Note_on_c, 7, 67, 64
9, 342560, Note_off_c, 7, 67, 64
9, 342720, Note_on_c, 7, 69, 64
9, 343040, Note_off_c, 7, 69, 64
9, 343200, Note_on_c, 7, 67, 64
9, 343520, Note_off_c, 7, 67, 64
9, 343680, Note_on_c, 7, 64, 64
9, 344000, Note_off_c, 7, 64, 64
9, 344160, Note_on_c, 7, 65, 64
9, 344480, Note_off_c, 7, 65, 64
9, 344640, Note_on_c, 7, 64, 64
9, 344960, Note_off_c, 7, 64, 64
9, 345120, Note_on_c, 7, 60, 64
9, 345440, Note_off_c, 7, 60, 64
9, 345600, Note_on_c, 7, 62, 64
9, 345600, Note_on_c, 7, 55, 64
9, 345920, Note_off_c, 7, 55, 64
9, 345920, Note_off_c, 7, 62, 64
9, 346080, Note_on_c, 7, 64, 64
9, 346080, Note_on_c, 7, 55, 64
9, 346400, Note_off_c, 7, 55, 64
9, 346400, Note_off_c, 7, 64, 64
9, 346560, Note_on_c, 7, 60, 64
9, 346880, Note_off_c, 7, 60, 64
9, 347040, Note_on_c, 7, 60, 64
9, 347360, Note_off_c, 7, 60, 64
9, 347520, Note_on_c, 7, 72, 50
9, 347840, Note_off_c, 7, 72, 64
9, 348000, Note_on_c, 7, 69, 53
9, 348320, Note_off_c, 7, 69, 64
9, 348480, Note_on_c, 7, 70, 57
9, 348800, Note_off_c, 7, 70, 64
9, 348960, Note_on_c, 7, 69, 61
9, 349280, Note_off_c, 7, 69, 64
9, 349440, Note_on_c, 7, 65, 65
9, 349760, Note_off_c, 7, 65, 64
9, 349920, Note_on_c, 7, 67, 69
9, 350240, Note_off_c, 7, 67, 64
9, 350400, Note_on_c, 7, 65, 73
9, 350720, Note_off_c, 7, 65, 64
9, 350880, Note_on_c, 7, 60, 76
9, 351200, Note_off_c, 7, 60, 64
9, 351360, Note_on_c, 7, 67, 80
9, 351680, Note_off_c, 7, 67, 64
9, 351840, Note_on_c, 7, 69, 84
9, 352160, Note_off_c, 7, 69, 64
9, 352320, Note_on_c, 7, 65, 88
9, 352640, Note_off_c, 7, 65, 64
9, 352800, Note_on_c, 7, 72, 92
9, 353120, Note_off_c, 7, 72, 64
9, 353280, Note_on_c, 7, 77, 94
9, 353600, Note_off_c, 7, 77, 64
9, 353760, Note_on_c, 7, 72, 94
9, 354080, Note_off_c, 7, 72, 64
9, 354240, Note_on_c, 7, 74, 94
9, 354560, Note_off_c, 7, 74, 64
9, 354720, Note_on_c, 7, 72, 94
9, 355040, Note_off_c, 7, 72, 64
9, 355200, Note_on_c, 7, 69, 94
9, 355520, Note_off_c, 7, 69, 64
9, 355680, Note_on_c, 7, 70, 94
9, 356000, Note_off_c, 7, 70, 64
9, 356160, Note_on_c, 7, 69, 122
9, 356480, Note_off_c, 7, 69, 64
9, 356640, Note_on_c, 7, 65, 94
9, 356960, Note_off_c, 7, 65, 64
9, 357120, Note_on_c, 7, 67, 94
9, 357440, Note_off_c, 7, 67, 64
9, 357600, Note_on_c, 7, 69, 126
9, 357920, Note_off_c, 7, 69, 64
9, 358080, Note_on_c, 7, 65, 94
9, 358400, Note_off_c, 7, 65, 64
9, 358560, Note_on_c, 7, 67, 94
9, 358880, Note_off_c, 7, 67, 64
9, 359040, Note_on_c, 7, 69, 123
9, 359360, Note_off_c, 7, 69, 64
9, 359520, Note_on_c, 7, 65, 94
9, 359840, Note_off_c, 7, 65, 64
9, 360000, Note_on_c, 7, 67, 94
9, 360320, Note_off_c, 7, 67, 64
9, 360480, Note_on_c, 7, 69, 126
9, 360800, Note_off_c, 7, 69, 64
9, 360960, Note_on_c, 7, 65, 94
9, 361280, Note_off_c, 7, 65, 64
9, 361440, Note_on_c, 7, 67, 94
9, 361760, Note_off_c, 7, 67, 64
9, 361920, Note_on_c, 7, 69, 118
9, 362880, Note_off_c, 7, 69, 64
9, 363360, Note_on_c, 7, 67, 94
9, 363400, Note_off_c, 7, 67, 64
9, 363400, Note_on_c, 7, 69, 94
9, 363440, Note_off_c, 7, 69, 64
9, 363440, Note_on_c, 7, 67, 94
9, 363914, Note_off_c, 7, 67, 64
9, 364320, Note_on_c, 7, 65, 94
9, 364640, Note_off_c, 7, 65, 64
9, 364800, Note_on_c, 7, 64, 94
9, 364840, Note_off_c, 7, 64, 64
9, 364840, Note_on_c, 7, 65, 94
9, 364880, Note_off_c, 7, 65, 64
9, 364880, Note_on_c, 7, 64, 94
9, 365354, Note_off_c, 7, 64, 64
9, 365760, Note_on_c, 7, 62, 94
9, 366080, Note_off_c, 7, 62, 64
9, 366240, Note_on_c, 7, 60, 94
9, 366880, Note_off_c, 7, 60, 64
9, 367200, Note_on_c, 7, 72, 94
9, 367520, Note_off_c, 7, 72, 64
9, 367680, Note_on_c, 7, 77, 113
9, 368900, Note_off_c, 7, 77, 64
9, 369120, Note_on_c, 7, 77, 113
9, 370354, Note_off_c, 7, 77, 64
9, 370560, Note_on_c, 7, 77, 111
9, 371760, Note_off_c, 7, 77, 64
9, 372000, Note_on_c, 7, 76, 114
9, 372000, Note_on_c, 7, 67, 94
9, 372000, Note_on_c, 7, 60, 94
9, 372320, Note_off_c, 7, 60, 64
9, 372320, Note_off_c, 7, 67, 64
9, 373210, Note_off_c, 7, 76, 64
9, 373440, Note_on_c, 7, 77, 94
9, 373440, Note_on_c, 7, 69, 94
9, 373760, Note_off_c, 7, 69, 64
9, 373760, Note_off_c, 7, 77, 64
9, 374400, Note_on_c, 7, 81, 94
9, 374720, Note_off_c, 7, 81, 64
9, 374880, Note_on_c, 7, 79, 94
9, 374920, Note_off_c, 7, 79, 64
9, 374920, Note_on_c, 7, 81, 94
9, 374960, Note_off_c, 7, 81, 64
9, 374960, Note_on_c, 7, 79, 94
9, 375434, Note_off_c, 7, 79, 64
9, 375840, Note_on_c, 7, 77, 94
9, 376160, Note_off_c, 7, 77, 64
9, 376320, Note_on_c, 7, 76, 94
9, 376360, Note_off_c, 7, 76, 64
9, 376360, Note_on_c, 7, 77, 94
9, 376400, Note_off_c, 7, 77, 64
9, 376400, Note_on_c, 7, 76, 94
9, 376874, Note_off_c, 7, 76, 64
9, 377280, Note_on_c, 7, 74, 94
9, 377600, Note_off_c, 7, 74, 64
9, 377760, Note_on_c, 7, 72, 94
9, 378400, Note_off_c, 7, 72, 64
9, 378720, Note_on_c, 7, 76, 94
9, 379040, Note_off_c, 7, 76, 64
9, 379200, Note_on_c, 7, 72, 94
9, 379200, Note_on_c, 7, 65, 94
9, 379200, Note_on_c, 7, 77, 94
9, 379644, Note_off_c, 7, 65, 64
9, 379644, Note_off_c, 7, 72, 64
9, 380374, Note_off_c, 7, 77, 64
9, 380640, Note_on_c, 7, 67, 94
9, 381820, Note_off_c, 7, 67, 64
9, 382080, Note_on_c, 7, 72, 94
9, 383200, Note_off_c, 7, 72, 64
9, 383520, Note_on_c, 7, 76, 94
9, 383520, Note_on_c, 7, 72, 94
9, 383520, Note_on_c, 7, 64, 94
9, 383954, Note_off_c, 7, 72, 64
9, 383970, Note_off_c, 7, 64, 64
9, 384700, Note_off_c, 7, 76, 64
9, 384960, Note_on_c, 7, 77, 94
9, 384960, Note_on_c, 7, 72, 94
9, 384960, Note_on_c, 7, 65, 94
9, 385280, Note_off_c, 7, 65, 64
9, 385280, Note_off_c, 7, 72, 64
9, 385280, Note_off_c, 7, 77, 64
9, 386400, Note_on_c, 7, 57, 94
9, 386560, Note_off_c, 7, 57, 64
9, 386640, Note_on_c, 7, 60, 94
9, 386800, Note_off_c, 7, 60, 64
9, 386880, Note_on_c, 7, 65, 94
9, 387040, Note_off_c, 7, 65, 64
9, 387120, Note_on_c, 7, 69, 94
9, 387280, Note_off_c, 7, 69, 64
9, 387360, Note_on_c, 7, 72, 94
9, 387520, Note_off_c, 7, 72, 64
9, 389280, Note_on_c, 7, 70, 94
9, 389280, Note_on_c, 7, 67, 94
9, 389600, Note_off_c, 7, 67, 64
9, 389600, Note_off_c, 7, 70, 64
9, 389760, Note_on_c, 7, 70, 94
9, 389760, Note_on_c, 7, 67, 94
9, 390080, Note_off_c, 7, 67, 64
9, 390080, Note_off_c, 7, 70, 64
9, 390240, Note_on_c, 7, 70, 94
9, 390240, Note_on_c, 7, 67, 94
9, 390560, Note_off_c, 7, 67, 64
9, 390560, Note_off_c, 7, 70, 64
9, 390720, Note_on_c, 7, 69, 94
9, 390720, Note_on_c, 7, 65, 94
9, 391040, Note_off_c, 7, 65, 64
9, 391040, Note_off_c, 7, 69, 64
9, 392160, Note_on_c, 7, 57, 94
9, 392320, Note_off_c, 7, 57, 64
9, 392400, Note_on_c, 7, 60, 94
9, 392560, Note_off_c, 7, 60, 64
9, 392640, Note_on_c, 7, 65, 94
9, 392800, Note_off_c, 7, 65, 64
9, 392880, Note_on_c, 7, 69, 94
9, 393040, Note_off_c, 7, 69, 64
9, 393120, Note_on_c, 7, 72, 94
9, 393280, Note_off_c, 7, 72, 64
9, 395040, Note_on_c, 7, 70, 94
9, 395040, Note_on_c, 7, 67, 94
9, 395360, Note_off_c, 7, 67, 64
9, 395360, Note_off_c, 7, 70, 64
9, 395520, Note_on_c, 7, 70, 94
9, 395520, Note_on_c, 7, 67, 94
9, 395840, Note_off_c, 7, 67, 64
9, 395840, Note_off_c, 7, 70, 64
9, 396000, Note_on_c, 7, 70, 94
9, 396000, Note_on_c, 7, 67, 94
9, 396320, Note_off_c, 7, 67, 64
9, 396320, Note_off_c, 7, 70, 64
9, 396480, Note_on_c, 7, 69, 94
9, 396480, Note_on_c, 7, 65, 94
9, 396800, Note_off_c, 7, 65, 64
9, 396800, Note_off_c, 7, 69, 64
9, 399360, Note_on_c, 7, 69, 64
9, 399360, Note_on_c, 7, 65, 64
9, 399360, Note_on_c, 7, 77, 64
9, 399680, Note_off_c, 7, 77, 64
9, 399680, Note_off_c, 7, 65, 64
9, 399680, Note_off_c, 7, 69, 64
9, 402240, Note_on_c, 7, 69, 64
9, 402390, Note_off_c, 7, 69, 64
9, 402720, Note_on_c, 7, 65, 62
9, 402870, Note_off_c, 7, 65, 64
9, 403200, Note_on_c, 7, 65, 59
9, 403364, Note_off_c, 7, 65, 64
9, 403680, Note_on_c, 7, 69, 56
9, 403830, Note_off_c, 7, 69, 64
9, 404160, Note_on_c, 7, 65, 54
9, 404320, Note_off_c, 7, 65, 64
9, 404640, Note_on_c, 7, 65, 51
9, 404790, Note_off_c, 7, 65, 64
9, 405120, Note_on_c, 7, 69, 48
9, 405260, Note_off_c, 7, 69, 64
9, 405600, Note_on_c, 7, 65, 46
9, 405754, Note_off_c, 7, 65, 64
9, 406080, Note_on_c, 7, 65, 43
9, 406230, Note_off_c, 7, 65, 64
9, 406560, Note_on_c, 7, 69, 40
9, 406710, Note_off_c, 7, 69, 64
9, 407040, Note_on_c, 7, 65, 40
9, 407200, Note_off_c, 7, 65, 64
9, 407520, Note_on_c, 7, 65, 40
9, 407670, Note_off_c, 7, 65, 64
9, 408000, Note_on_c, 7, 69, 40
9, 408150, Note_off_c, 7, 69, 64
9, 408480, Note_on_c, 7, 65, 40
9, 408624, Note_off_c, 7, 65, 64
9, 408960, Note_on_c, 7, 65, 40
9, 409114, Note_off_c, 7, 65, 64
9, 409440, Note_on_c, 7, 69, 40
9, 409594, Note_off_c, 7, 69, 64
9, 409920, Note_on_c, 7, 65, 40
9, 410064, Note_off_c, 7, 65, 64
9, 410400, Note_on_c, 7, 65, 40
9, 410550, Note_off_c, 7, 65, 64
9, 410880, Note_on_c, 7, 70, 40
9, 411014, Note_off_c, 7, 70, 64
9, 411360, Note_on_c, 7, 65, 40
9, 411514, Note_off_c, 7, 65, 64
9, 411840, Note_on_c, 7, 65, 40
9, 412000, Note_off_c, 7, 65, 64
9, 412320, Note_on_c, 7, 70, 40
9, 412464, Note_off_c, 7, 70, 64
9, 412800, Note_on_c, 7, 65, 40
9, 412950, Note_off_c, 7, 65, 64
9, 413280, Note_on_c, 7, 65, 40
9, 413424, Note_off_c, 7, 65, 64
9, 413760, Note_on_c, 7, 69, 40
9, 413910, Note_off_c, 7, 69, 64
9, 414240, Note_on_c, 7, 65, 40
9, 414390, Note_off_c, 7, 65, 64
9, 414720, Note_on_c, 7, 65, 40
9, 414874, Note_off_c, 7, 65, 64
9, 415200, Note_on_c, 7, 67, 40
9, 415350, Note_off_c, 7, 67, 64
9, 415680, Note_on_c, 7, 64, 40
9, 415824, Note_off_c, 7, 64, 64
9, 416160, Note_on_c, 7, 64, 40
9, 416304, Note_off_c, 7, 64, 64
9, 416640, Note_on_c, 7, 69, 40
9, 416790, Note_off_c, 7, 69, 64
9, 417120, Note_on_c, 7, 65, 40
9, 417270, Note_off_c, 7, 65, 64
9, 417600, Note_on_c, 7, 65, 40
9, 417754, Note_off_c, 7, 65, 64
9, 418080, Note_on_c, 7, 69, 40
9, 418230, Note_off_c, 7, 69, 64
9, 418560, Note_on_c, 7, 65, 40
9, 418710, Note_off_c, 7, 65, 64
9, 419040, Note_on_c, 7, 65, 40
9, 419194, Note_off_c, 7, 65, 64
9, 419520, Note_on_c, 7, 69, 40
9, 419670, Note_off_c, 7, 69, 64
9, 420000, Note_on_c, 7, 65, 40
9, 420150, Note_off_c, 7, 65, 64
9, 420480, Note_on_c, 7, 65, 40
9, 420634, Note_off_c, 7, 65, 64
9, 420960, Note_on_c, 7, 69, 40
9, 421110, Note_off_c, 7, 69, 64
9, 421440, Note_on_c, 7, 65, 40
9, 421590, Note_off_c, 7, 65, 64
9, 421920, Note_on_c, 7, 65, 40
9, 422074, Note_off_c, 7, 65, 64
9, 422400, Note_on_c, 7, 70, 40
9, 422534, Note_off_c, 7, 70, 64
9, 422880, Note_on_c, 7, 65, 40
9, 423034, Note_off_c, 7, 65, 64
9, 423360, Note_on_c, 7, 65, 40
9, 423520, Note_off_c, 7, 65, 64
9, 423840, Note_on_c, 7, 70, 40
9, 423974, Note_off_c, 7, 70, 64
9, 424320, Note_on_c, 7, 65, 40
9, 424474, Note_off_c, 7, 65, 64
9, 424800, Note_on_c, 7, 65, 40
9, 424960, Note_off_c, 7, 65, 64
9, 425280, Note_on_c, 7, 69, 40
9, 425430, Note_off_c, 7, 69, 64
9, 425760, Note_on_c, 7, 65, 40
9, 425910, Note_off_c, 7, 65, 64
9, 426240, Note_on_c, 7, 65, 40
9, 426394, Note_off_c, 7, 65, 64
9, 426720, Note_on_c, 7, 67, 40
9, 426870, Note_off_c, 7, 67, 64
9, 427200, Note_on_c, 7, 64, 40
9, 427344, Note_off_c, 7, 64, 64
9, 427680, Note_on_c, 7, 64, 40
9, 427824, Note_off_c, 7, 64, 64
9, 428160, Note_on_c, 7, 67, 40
9, 428310, Note_off_c, 7, 67, 64
9, 428640, Note_on_c, 7, 64, 40
9, 428784, Note_off_c, 7, 64, 64
9, 429120, Note_on_c, 7, 64, 40
9, 429264, Note_off_c, 7, 64, 64
9, 429600, Note_on_c, 7, 69, 40
9, 429750, Note_off_c, 7, 69, 64
9, 430080, Note_on_c, 7, 65, 40
9, 430230, Note_off_c, 7, 65, 64
9, 430560, Note_on_c, 7, 65, 40
9, 430714, Note_off_c, 7, 65, 64
9, 431040, Note_on_c, 7, 69, 40
9, 431190, Note_off_c, 7, 69, 64
9, 431520, Note_on_c, 7, 65, 40
9, 431670, Note_off_c, 7, 65, 64
9, 432000, Note_on_c, 7, 65, 40
9, 432154, Note_off_c, 7, 65, 64
9, 432480, Note_on_c, 7, 69, 40
9, 432630, Note_off_c, 7, 69, 64
9, 432960, Note_on_c, 7, 65, 40
9, 433110, Note_off_c, 7, 65, 64
9, 433440, Note_on_c, 7, 65, 40
9, 433594, Note_off_c, 7, 65, 64
9, 433920, Note_on_c, 7, 70, 40
9, 434054, Note_off_c, 7, 70, 64
9, 434400, Note_on_c, 7, 65, 40
9, 434554, Note_off_c, 7, 65, 64
9, 434880, Note_on_c, 7, 65, 40
9, 435040, Note_off_c, 7, 65, 64
9, 435360, Note_on_c, 7, 70, 40
9, 435494, Note_off_c, 7, 70, 64
9, 435840, Note_on_c, 7, 65, 40
9, 435994, Note_off_c, 7, 65, 64
9, 436320, Note_on_c, 7, 65, 40
9, 436480, Note_off_c, 7, 65, 64
9, 436800, Note_on_c, 7, 69, 40
9, 436950, Note_off_c, 7, 69, 64
9, 437280, Note_on_c, 7, 65, 40
9, 437430, Note_off_c, 7, 65, 64
9, 437760, Note_on_c, 7, 65, 40
9, 437914, Note_off_c, 7, 65, 64
9, 438240, Note_on_c, 7, 67, 40
9, 438390, Note_off_c, 7, 67, 64
9, 438720, Note_on_c, 7, 64, 40
9, 438864, Note_off_c, 7, 64, 64
9, 439200, Note_on_c, 7, 64, 40
9, 439344, Note_off_c, 7, 64, 64
9, 439680, Note_on_c, 7, 69, 40
9, 439830, Note_off_c, 7, 69, 64
9, 440160, Note_on_c, 7, 65, 40
9, 440310, Note_off_c, 7, 65, 64
9, 440640, Note_on_c, 7, 65, 40
9, 440794, Note_off_c, 7, 65, 64
9, 441120, Note_on_c, 7, 69, 40
9, 441270, Note_off_c, 7, 69, 64
9, 441600, Note_on_c, 7, 65, 40
9, 441750, Note_off_c, 7, 65, 64
9, 442080, Note_on_c, 7, 65, 40
9, 442234, Note_off_c, 7, 65, 64
9, 442560, Note_on_c, 7, 69, 40
9, 442710, Note_off_c, 7, 69, 64
9, 443040, Note_on_c, 7, 65, 40
9, 443190, Note_off_c, 7, 65, 64
9, 443520, Note_on_c, 7, 65, 40
9, 443674, Note_off_c, 7, 65, 64
9, 444000, Note_on_c, 7, 69, 40
9, 444150, Note_off_c, 7, 69, 64
9, 444480, Note_on_c, 7, 65, 40
9, 444630, Note_off_c, 7, 65, 64
9, 444960, Note_on_c, 7, 65, 40
9, 445114, Note_off_c, 7, 65, 64
9, 445440, Note_on_c, 7, 70, 40
9, 445574, Note_off_c, 7, 70, 64
9, 445920, Note_on_c, 7, 65, 40
9, 446074, Note_off_c, 7, 65, 64
9, 446400, Note_on_c, 7, 65, 40
9, 446560, Note_off_c, 7, 65, 64
9, 446880, Note_on_c, 7, 70, 40
9, 447014, Note_off_c, 7, 70, 64
9, 447360, Note_on_c, 7, 65, 40
9, 447514, Note_off_c, 7, 65, 64
9, 447840, Note_on_c, 7, 65, 40
9, 448000, Note_off_c, 7, 65, 64
9, 448320, Note_on_c, 7, 69, 40
9, 448470, Note_off_c, 7, 69, 64
9, 448800, Note_on_c, 7, 65, 40
9, 448950, Note_off_c, 7, 65, 64
9, 449280, Note_on_c, 7, 65, 40
9, 449434, Note_off_c, 7, 65, 64
9, 449760, Note_on_c, 7, 67, 40
9, 449910, Note_off_c, 7, 67, 64
9, 450240, Note_on_c, 7, 64, 40
9, 450384, Note_off_c, 7, 64, 64
9, 450720, Note_on_c, 7, 64, 40
9, 450864, Note_off_c, 7, 64, 64
9, 451200, Note_on_c, 7, 67, 40
9, 451350, Note_off_c, 7, 67, 64
9, 451680, Note_on_c, 7, 64, 40
9, 451824, Note_off_c, 7, 64, 64
9, 452160, Note_on_c, 7, 64, 40
9, 452304, Note_off_c, 7, 64, 64
9, 452640, Note_on_c, 7, 69, 40
9, 452790, Note_off_c, 7, 69, 64
9, 453120, Note_on_c, 7, 65, 40
9, 453270, Note_off_c, 7, 65, 64
9, 453600, Note_on_c, 7, 65, 40
9, 453754, Note_off_c, 7, 65, 64
9, 465600, Note_on_c, 7, 67, 64
9, 465740, Note_off_c, 7, 67, 64
9, 466080, Note_on_c, 7, 64, 64
9, 466220, Note_off_c, 7, 64, 64
9, 466560, Note_on_c, 7, 64, 64
9, 466720, Note_off_c, 7, 64, 64
9, 467040, Note_on_c, 7, 67, 64
9, 467190, Note_off_c, 7, 67, 64
9, 467520, Note_on_c, 7, 64, 64
9, 467680, Note_off_c, 7, 64, 64
9, 468000, Note_on_c, 7, 64, 64
9, 468144, Note_off_c, 7, 64, 64
9, 468480, Note_on_c, 7, 69, 40
9, 468630, Note_off_c, 7, 69, 64
9, 468960, Note_on_c, 7, 65, 40
9, 469104, Note_off_c, 7, 65, 64
9, 469440, Note_on_c, 7, 65, 40
9, 469594, Note_off_c, 7, 65, 64
9, 469920, Note_on_c, 7, 69, 40
9, 470074, Note_off_c, 7, 69, 64
9, 470400, Note_on_c, 7, 65, 40
9, 470544, Note_off_c, 7, 65, 64
9, 470880, Note_on_c, 7, 65, 40
9, 471030, Note_off_c, 7, 65, 64
9, 471360, Note_on_c, 7, 70, 40
9, 471494, Note_off_c, 7, 70, 64
9, 471840, Note_on_c, 7, 65, 40
9, 471994, Note_off_c, 7, 65, 64
9, 472320, Note_on_c, 7, 65, 40
9, 472480, Note_off_c, 7, 65, 64
9, 472800, Note_on_c, 7, 70, 40
9, 472944, Note_off_c, 7, 70, 64
9, 473280, Note_on_c, 7, 65, 40
9, 473430, Note_off_c, 7, 65, 64
9, 473760, Note_on_c, 7, 65, 40
9, 473904, Note_off_c, 7, 65, 64
9, 474240, Note_on_c, 7, 69, 40
9, 474390, Note_off_c, 7, 69, 64
9, 474720, Note_on_c, 7, 65, 40
9, 474870, Note_off_c, 7, 65, 64
9, 475200, Note_on_c, 7, 65, 40
9, 475354, Note_off_c, 7, 65, 64
9, 475680, Note_on_c, 7, 67, 40
9, 475830, Note_off_c, 7, 67, 64
9, 476160, Note_on_c, 7, 64, 40
9, 476304, Note_off_c, 7, 64, 64
9, 476640, Note_on_c, 7, 64, 40
9, 476784, Note_off_c, 7, 64, 64
9, 477120, Note_on_c, 7, 69, 40
9, 477270, Note_off_c, 7, 69, 64
9, 477600, Note_on_c, 7, 65, 40
9, 477750, Note_off_c, 7, 65, 64
9, 478080, Note_on_c, 7, 65, 40
9, 478234, Note_off_c, 7, 65, 64
9, 478560, Note_on_c, 7, 69, 40
9, 478710, Note_off_c, 7, 69, 64
9, 479040, Note_on_c, 7, 65, 40
9, 479190, Note_off_c, 7, 65, 64
9, 479520, Note_on_c, 7, 65, 40
9, 479674, Note_off_c, 7, 65, 64
9, 480000, Note_on_c, 7, 69, 40
9, 480150, Note_off_c, 7, 69, 64
9, 480480, Note_on_c, 7, 65, 40
9, 480630, Note_off_c, 7, 65, 64
9, 480960, Note_on_c, 7, 65, 40
9, 481114, Note_off_c, 7, 65, 64
9, 481440, Note_on_c, 7, 69, 40
9, 481590, Note_off_c, 7, 69, 64
9, 481920, Note_on_c, 7, 65, 40
9, 482070, Note_off_c, 7, 65, 64
9, 482400, Note_on_c, 7, 65, 40
9, 482554, Note_off_c, 7, 65, 64
9, 482880, Note_on_c, 7, 70, 40
9, 483014, Note_off_c, 7, 70, 64
9, 483360, Note_on_c, 7, 65, 40
9, 483514, Note_off_c, 7, 65, 64
9, 483840, Note_on_c, 7, 65, 40
9, 484000, Note_off_c, 7, 65, 64
9, 484320, Note_on_c, 7, 70, 40
9, 484454, Note_off_c, 7, 70, 64
9, 484800, Note_on_c, 7, 65, 40
9, 484954, Note_off_c, 7, 65, 64
9, 485280, Note_on_c, 7, 65, 40
9, 485440, Note_off_c, 7, 65, 64
9, 485760, Note_on_c, 7, 69, 40
9, 485910, Note_off_c, 7, 69, 64
9, 486240, Note_on_c, 7, 65, 40
9, 486390, Note_off_c, 7, 65, 64
9, 486720, Note_on_c, 7, 65, 40
9, 486874, Note_off_c, 7, 65, 64
9, 487200, Note_on_c, 7, 69, 40
9, 487350, Note_off_c, 7, 69, 64
9, 487680, Note_on_c, 7, 65, 40
9, 487830, Note_off_c, 7, 65, 64
9, 488160, Note_on_c, 7, 65, 40
9, 488314, Note_off_c, 7, 65, 64
9, 488640, Note_on_c, 7, 70, 64
9, 488800, Note_off_c, 7, 70, 64
9, 489120, Note_on_c, 7, 60, 64
9, 489280, Note_off_c, 7, 60, 64
9, 489600, Note_on_c, 7, 60, 64
9, 489760, Note_off_c, 7, 60, 64
9, 490080, Note_on_c, 7, 70, 64
9, 490240, Note_off_c, 7, 70, 64
9, 490560, Note_on_c, 7, 60, 64
9, 490720, Note_off_c, 7, 60, 64
9, 491040, Note_on_c, 7, 60, 64
9, 491200, Note_off_c, 7, 60, 64
9, 491520, Note_on_c, 7, 69, 40
9, 491670, Note_off_c, 7, 69, 64
9, 492000, Note_on_c, 7, 65, 40
9, 492150, Note_off_c, 7, 65, 64
9, 492480, Note_on_c, 7, 65, 40
9, 492634, Note_off_c, 7, 65, 64
9, 492960, Note_on_c, 7, 69, 40
9, 493110, Note_off_c, 7, 69, 64
9, 493440, Note_on_c, 7, 65, 40
9, 493590, Note_off_c, 7, 65, 64
9, 493920, Note_on_c, 7, 65, 40
9, 494074, Note_off_c, 7, 65, 64
9, 494400, Note_on_c, 7, 67, 40
9, 494550, Note_off_c, 7, 67, 64
9, 494880, Note_on_c, 7, 64, 40
9, 495024, Note_off_c, 7, 64, 64
9, 495360, Note_on_c, 7, 64, 40
9, 495504, Note_off_c, 7, 64, 64
9, 495840, Note_on_c, 7, 67, 40
9, 495990, Note_off_c, 7, 67, 64
9, 496320, Note_on_c, 7, 64, 40
9, 496464, Note_off_c, 7, 64, 64
9, 496800, Note_on_c, 7, 64, 40
9, 496944, Note_off_c, 7, 64, 64
9, 497280, Note_on_c, 7, 65, 64
9, 499680, Note_off_c, 7, 65, 64
9, 500160, Note_on_c, 7, 64, 70
9, 502560, Note_off_c, 7, 64, 64
9, 503040, Note_on_c, 7, 65, 76
9, 505440, Note_off_c, 7, 65, 64
9, 505920, Note_on_c, 7, 64, 82
9, 508320, Note_off_c, 7, 64, 64
9, 508800, Note_on_c, 7, 65, 95
9, 509120, Note_off_c, 7, 65, 64
9, 514560, Note_on_c, 7, 65, 85
9, 514600, Note_off_c, 7, 65, 64
9, 514800, Note_on_c, 7, 67, 85
9, 514840, Note_off_c, 7, 67, 64
9, 514920, Note_on_c, 7, 65, 85
9, 514954, Note_off_c, 7, 65, 64
9, 515040, Note_on_c, 7, 60, 85
9, 515080, Note_off_c, 7, 60, 64
9, 515280, Note_on_c, 7, 62, 85
9, 515324, Note_off_c, 7, 62, 64
9, 515400, Note_on_c, 7, 64, 85
9, 515430, Note_off_c, 7, 64, 64
9, 515520, Note_on_c, 7, 65, 85
9, 515560, Note_off_c, 7, 65, 64
9, 515760, Note_on_c, 7, 67, 85
9, 515800, Note_off_c, 7, 67, 64
9, 515880, Note_on_c, 7, 65, 85
9, 515914, Note_off_c, 7, 65, 64
9, 516000, Note_on_c, 7, 60, 85
9, 516320, Note_off_c, 7, 60, 64
9, 516480, Note_on_c, 7, 58, 85
9, 516514, Note_off_c, 7, 58, 64
9, 516600, Note_on_c, 7, 60, 85
9, 516630, Note_off_c, 7, 60, 64
9, 516720, Note_on_c, 7, 62, 85
9, 516760, Note_off_c, 7, 62, 64
9, 516840, Note_on_c, 7, 63, 85
9, 516880, Note_off_c, 7, 63, 64
9, 516960, Note_on_c, 7, 65, 85
9, 516994, Note_off_c, 7, 65, 64
9, 517200, Note_on_c, 7, 65, 85
9, 517240, Note_off_c, 7, 65, 64
9, 517274, Note_on_c, 7, 67, 85
9, 517344, Note_off_c, 7, 67, 64
9, 517440, Note_on_c, 7, 60, 85
9, 517480, Note_off_c, 7, 60, 64
9, 517680, Note_on_c, 7, 60, 85
9, 517700, Note_off_c, 7, 60, 64
9, 517754, Note_on_c, 7, 65, 85
9, 517794, Note_off_c, 7, 65, 64
9, 517920, Note_on_c, 7, 58, 85
9, 518240, Note_off_c, 7, 58, 64
9, 518400, Note_on_c, 7, 65, 85
9, 518440, Note_off_c, 7, 65, 64
9, 518640, Note_on_c, 7, 67, 85
9, 518680, Note_off_c, 7, 67, 64
9, 518760, Note_on_c, 7, 65, 85
9, 518794, Note_off_c, 7, 65, 64
9, 518880, Note_on_c, 7, 60, 85
9, 518920, Note_off_c, 7, 60, 64
9, 519120, Note_on_c, 7, 62, 85
9, 519164, Note_off_c, 7, 62, 64
9, 519240, Note_on_c, 7, 64, 85
9, 519270, Note_off_c, 7, 64, 64
9, 519360, Note_on_c, 7, 65, 85
9, 519400, Note_off_c, 7, 65, 64
9, 519600, Note_on_c, 7, 67, 85
9, 519640, Note_off_c, 7, 67, 64
9, 519720, Note_on_c, 7, 65, 85
9, 519754, Note_off_c, 7, 65, 64
9, 519840, Note_on_c, 7, 60, 85
9, 520160, Note_off_c, 7, 60, 64
9, 520320, Note_on_c, 7, 58, 85
9, 520354, Note_off_c, 7, 58, 64
9, 520440, Note_on_c, 7, 60, 85
9, 520470, Note_off_c, 7, 60, 64
9, 520560, Note_on_c, 7, 62, 85
9, 520600, Note_off_c, 7, 62, 64
9, 520680, Note_on_c, 7, 63, 85
9, 520720, Note_off_c, 7, 63, 64
9, 520800, Note_on_c, 7, 65, 85
9, 520834, Note_off_c, 7, 65, 64
9, 521040, Note_on_c, 7, 65, 85
9, 521080, Note_off_c, 7, 65, 64
9, 521114, Note_on_c, 7, 67, 85
9, 521184, Note_off_c, 7, 67, 64
9, 521280, Note_on_c, 7, 60, 85
9, 521320, Note_off_c, 7, 60, 64
9, 521520, Note_on_c, 7, 60, 85
9, 521540, Note_off_c, 7, 60, 64
9, 521594, Note_on_c, 7, 65, 85
9, 521634, Note_off_c, 7, 65, 64
9, 521760, Note_on_c, 7, 58, 85
9, 522080, Note_off_c, 7, 58, 64
9, 522240, Note_on_c, 7, 65, 85
9, 522280, Note_off_c, 7, 65, 64
9, 522480, Note_on_c, 7, 67, 85
9, 522520, Note_off_c, 7, 67, 64
9, 522600, Note_on_c, 7, 65, 85
9, 522634, Note_off_c, 7, 65, 64
9, 522720, Note_on_c, 7, 60, 85
9, 522760, Note_off_c, 7, 60, 64
9, 522960, Note_on_c, 7, 62, 85
9, 523004, Note_off_c, 7, 62, 64
9, 523080, Note_on_c, 7, 64, 85
9, 523110, Note_off_c, 7, 64, 64
9, 523200, Note_on_c, 7, 65, 85
9, 523240, Note_off_c, 7, 65, 64
9, 523440, Note_on_c, 7, 67, 85
9, 523480, Note_off_c, 7, 67, 64
9, 523560, Note_on_c, 7, 65, 85
9, 523594, Note_off_c, 7, 65, 64
9, 523680, Note_on_c, 7, 60, 85
9, 524000, Note_off_c, 7, 60, 64
9, 524160, Note_on_c, 7, 58, 85
9, 524194, Note_off_c, 7, 58, 64
9, 524280, Note_on_c, 7, 60, 85
9, 524310, Note_off_c, 7, 60, 64
9, 524400, Note_on_c, 7, 62, 85
9, 524440, Note_off_c, 7, 62, 64
9, 524520, Note_on_c, 7, 63, 85
9, 524560, Note_off_c, 7, 63, 64
9, 524640, Note_on_c, 7, 65, 85
9, 524674, Note_off_c, 7, 65, 64
9, 524880, Note_on_c, 7, 65, 85
9, 524920, Note_off_c, 7, 65, 64
9, 524954, Note_on_c, 7, 67, 85
9, 525024, Note_off_c, 7, 67, 64
9, 525120, Note_on_c, 7, 60, 85
9, 525160, Note_off_c, 7, 60, 64
9, 525360, Note_on_c, 7, 60, 85
9, 525380, Note_off_c, 7, 60, 64
9, 525434, Note_on_c, 7, 65, 85
9, 525474, Note_off_c, 7, 65, 64
9, 525600, Note_on_c, 7, 58, 85
9, 525920, Note_off_c, 7, 58, 64
9, 526080, Note_on_c, 7, 65, 85
9, 526120, Note_off_c, 7, 65, 64
9, 526320, Note_on_c, 7, 67, 85
9, 526360, Note_off_c, 7, 67, 64
9, 526440, Note_on_c, 7, 65, 85
9, 526474, Note_off_c, 7, 65, 64
9, 526560, Note_on_c, 7, 60, 85
9, 526600, Note_off_c, 7, 60, 64
9, 526800, Note_on_c, 7, 62, 85
9, 526844, Note_off_c, 7, 62, 64
9, 526920, Note_on_c, 7, 64, 85
9, 526950, Note_off_c, 7, 64, 64
9, 527040, Note_on_c, 7, 65, 85
9, 527080, Note_off_c, 7, 65, 64
9, 527280, Note_on_c, 7, 67, 85
9, 527320, Note_off_c, 7, 67, 64
9, 527400, Note_on_c, 7, 65, 85
9, 527434, Note_off_c, 7, 65, 64
9, 527520, Note_on_c, 7, 60, 85
9, 527840, Note_off_c, 7, 60, 64
9, 528000, Note_on_c, 7, 58, 85
9, 528034, Note_off_c, 7, 58, 64
9, 528120, Note_on_c, 7, 60, 85
9, 528150, Note_off_c, 7, 60, 64
9, 528240, Note_on_c, 7, 62, 85
9, 528280, Note_off_c, 7, 62, 64
9, 528360, Note_on_c, 7, 63, 85
9, 528400, Note_off_c, 7, 63, 64
9, 528480, Note_on_c, 7, 65, 85
9, 528514, Note_off_c, 7, 65, 64
9, 528720, Note_on_c, 7, 65, 85
9, 528760, Note_off_c, 7, 65, 64
9, 528794, Note_on_c, 7, 67, 85
9, 528864, Note_off_c, 7, 67, 64
9, 528960, Note_on_c, 7, 60, 85
9, 529000, Note_off_c, 7, 60, 64
9, 529200, Note_on_c, 7, 60, 85
9, 529220, Note_off_c, 7, 60, 64
9, 529274, Note_on_c, 7, 65, 85
9, 529314, Note_off_c, 7, 65, 64
9, 529440, Note_on_c, 7, 58, 85
9, 529760, Note_off_c, 7, 58, 64
9, 529920, Note_on_c, 7, 72, 102
9, 530384, Note_off_c, 7, 72, 64
9, 530400, Note_on_c, 7, 74, 85
9, 530620, Note_off_c, 7, 74, 64
9, 530880, Note_on_c, 7, 72, 97
9, 531334, Note_off_c, 7, 72, 64
9, 531360, Note_on_c, 7, 76, 85
9, 531584, Note_off_c, 7, 76, 64
9, 531840, Note_on_c, 7, 77, 93
9, 532300, Note_off_c, 7, 77, 64
9, 532320, Note_on_c, 7, 69, 95
9, 532640, Note_off_c, 7, 69, 64
9, 532800, Note_on_c, 7, 70, 98
9, 533120, Note_off_c, 7, 70, 64
9, 533280, Note_on_c, 7, 69, 85
9, 533440, Note_off_c, 7, 69, 64
9, 533520, Note_on_c, 7, 71, 85
9, 533680, Note_off_c, 7, 71, 64
9, 533760, Note_on_c, 7, 72, 102
9, 534224, Note_off_c, 7, 72, 64
9, 534240, Note_on_c, 7, 74, 85
9, 534460, Note_off_c, 7, 74, 64
9, 534720, Note_on_c, 7, 72, 97
9, 535174, Note_off_c, 7, 72, 64
9, 535200, Note_on_c, 7, 76, 85
9, 535424, Note_off_c, 7, 76, 64
9, 535680, Note_on_c, 7, 77, 93
9, 536140, Note_off_c, 7, 77, 64
9, 536160, Note_on_c, 7, 69, 95
9, 536480, Note_off_c, 7, 69, 64
9, 536640, Note_on_c, 7, 70, 98
9, 536960, Note_off_c, 7, 70, 64
9, 537120, Note_on_c, 7, 69, 85
9, 537280, Note_off_c, 7, 69, 64
9, 537600, Note_on_c, 7, 60, 88
9, 537690, Note_off_c, 7, 60, 64
9, 537840, Note_on_c, 7, 62, 88
9, 537880, Note_off_c, 7, 62, 64
9, 537960, Note_on_c, 7, 60, 88
9, 538000, Note_off_c, 7, 60, 64
9, 538080, Note_on_c, 7, 59, 88
9, 538180, Note_off_c, 7, 59, 64
9, 538320, Note_on_c, 7, 60, 88
9, 538360, Note_off_c, 7, 60, 64
9, 538440, Note_on_c, 7, 62, 89
9, 538484, Note_off_c, 7, 62, 64
9, 538560, Note_on_c, 7, 64, 89
9, 538660, Note_off_c, 7, 64, 64
9, 538800, Note_on_c, 7, 65, 89
9, 538844, Note_off_c, 7, 65, 64
9, 538920, Note_on_c, 7, 64, 89
9, 538954, Note_off_c, 7, 64, 64
9, 539040, Note_on_c, 7, 62, 89
9, 539140, Note_off_c, 7, 62, 64
9, 539280, Note_on_c, 7, 64, 90
9, 539320, Note_off_c, 7, 64, 64
9, 539400, Note_on_c, 7, 65, 90
9, 539434, Note_off_c, 7, 65, 64
9, 539520, Note_on_c, 7, 67, 90
9, 539634, Note_off_c, 7, 67, 64
9, 539760, Note_on_c, 7, 65, 90
9, 539810, Note_off_c, 7, 65, 64
9, 539880, Note_on_c, 7, 67, 90
9, 539930, Note_off_c, 7, 67, 64
9, 540000, Note_on_c, 7, 69, 90
9, 540124, Note_off_c, 7, 69, 64
9, 540480, Note_on_c, 7, 72, 91
9, 540480, Note_on_c, 7, 64, 91
9, 540640, Note_off_c, 7, 64, 64
9, 540640, Note_off_c, 7, 72, 64
9, 540960, Note_on_c, 7, 71, 92
9, 540960, Note_on_c, 7, 65, 92
9, 540960, Note_on_c, 7, 55, 92
9, 541120, Note_off_c, 7, 55, 64
9, 541120, Note_off_c, 7, 65, 64
9, 541120, Note_off_c, 7, 71, 64
9, 541440, Note_on_c, 7, 60, 92
9, 541530, Note_off_c, 7, 60, 64
9, 541680, Note_on_c, 7, 62, 92
9, 541720, Note_off_c, 7, 62, 64
9, 541800, Note_on_c, 7, 60, 93
9, 541840, Note_off_c, 7, 60, 64
9, 541920, Note_on_c, 7, 59, 93
9, 542020, Note_off_c, 7, 59, 64
9, 542160, Note_on_c, 7, 60, 93
9, 542200, Note_off_c, 7, 60, 64
9, 542280, Note_on_c, 7, 62, 93
9, 542324, Note_off_c, 7, 62, 64
9, 542400, Note_on_c, 7, 64, 93
9, 542500, Note_off_c, 7, 64, 64
9, 542640, Note_on_c, 7, 65, 94
9, 542684, Note_off_c, 7, 65, 64
9, 542760, Note_on_c, 7, 64, 94
9, 542794, Note_off_c, 7, 64, 64
9, 542880, Note_on_c, 7, 62, 94
9, 542980, Note_off_c, 7, 62, 64
9, 543120, Note_on_c, 7, 64, 94
9, 543160, Note_off_c, 7, 64, 64
9, 543240, Note_on_c, 7, 65, 94
9, 543274, Note_off_c, 7, 65, 64
9, 543360, Note_on_c, 7, 67, 94
9, 543474, Note_off_c, 7, 67, 64
9, 543600, Note_on_c, 7, 65, 95
9, 543650, Note_off_c, 7, 65, 64
9, 543720, Note_on_c, 7, 67, 95
9, 543770, Note_off_c, 7, 67, 64
9, 543840, Note_on_c, 7, 69, 95
9, 543964, Note_off_c, 7, 69, 64
9, 544320, Note_on_c, 7, 72, 90
9, 544320, Note_on_c, 7, 64, 90
9, 544480, Note_off_c, 7, 64, 64
9, 544480, Note_off_c, 7, 72, 64
9, 544800, Note_on_c, 7, 71, 91
9, 544800, Note_on_c, 7, 65, 91
9, 544800, Note_on_c, 7, 55, 91
9, 544960, Note_off_c, 7, 55, 64
9, 544960, Note_off_c, 7, 65, 64
9, 544960, Note_off_c, 7, 71, 64
9, 545280, Note_on_c, 7, 72, 93
9, 545280, Note_on_c, 7, 64, 93
9, 545280, Note_on_c, 7, 55, 93
9, 545760, Note_off_c, 7, 55, 64
9, 545760, Note_off_c, 7, 64, 64
9, 545760, Note_off_c, 7, 72, 64
9, 546000, Note_on_c, 7, 64, 95
9, 546160, Note_off_c, 7, 64, 64
9, 546240, Note_on_c, 7, 64, 96
9, 546720, Note_off_c, 7, 64, 64
9, 546960, Note_on_c, 7, 60, 98
9, 547120, Note_off_c, 7, 60, 64
9, 547200, Note_on_c, 7, 60, 99
9, 547680, Note_off_c, 7, 60, 64
9, 547920, Note_on_c, 7, 67, 101
9, 548080, Note_off_c, 7, 67, 64
9, 548160, Note_on_c, 7, 67, 102
9, 548640, Note_off_c, 7, 67, 64
9, 548880, Note_on_c, 7, 60, 104
9, 549040, Note_off_c, 7, 60, 64
9, 549120, Note_on_c, 7, 60, 105
9, 549280, Note_off_c, 7, 60, 64
9, 549360, Note_on_c, 7, 72, 106
9, 549520, Note_off_c, 7, 72, 64
9, 549600, Note_on_c, 7, 72, 107
9, 549760, Note_off_c, 7, 72, 64
9, 549840, Note_on_c, 7, 64, 108
9, 550000, Note_off_c, 7, 64, 64
9, 550080, Note_on_c, 7, 64, 108
9, 550240, Note_off_c, 7, 64, 64
9, 550320, Note_on_c, 7, 76, 109
9, 550480, Note_off_c, 7, 76, 64
9, 550560, Note_on_c, 7, 76, 110
9, 550720, Note_off_c, 7, 76, 64
9, 550800, Note_on_c, 7, 76, 111
9, 550800, Note_on_c, 7, 72, 111
9, 550960, Note_off_c, 7, 72, 64
9, 550960, Note_off_c, 7, 76, 64
9, 551040, Note_on_c, 7, 76, 112
9, 551040, Note_on_c, 7, 72, 112
9, 551040, Note_on_c, 7, 64, 112
9, 551360, Note_off_c, 7, 64, 64
9, 551360, Note_off_c, 7, 72, 64
9, 551360, Note_off_c, 7, 76, 64
9, 552000, Note_on_c, 7, 72, 66
9, 552000, Note_on_c, 7, 64, 66
9, 552000, Note_on_c, 7, 55, 66
9, 552320, Note_off_c, 7, 55, 64
9, 552320, Note_off_c, 7, 64, 64
9, 552320, Note_off_c, 7, 72, 64
9, 554880, Note_on_c, 7, 60, 32
9, 554990, Note_off_c, 7, 60, 64
9, 555360, Note_on_c, 7, 65, 32
9, 555464, Note_off_c, 7, 65, 64
9, 555840, Note_on_c, 7, 72, 32
9, 555940, Note_off_c, 7, 72, 64
9, 556320, Note_on_c, 7, 74, 32
9, 556430, Note_off_c, 7, 74, 64
9, 556800, Note_on_c, 7, 72, 32
9, 556904, Note_off_c, 7, 72, 64
9, 557280, Note_on_c, 7, 69, 32
9, 557370, Note_off_c, 7, 69, 64
9, 557760, Note_on_c, 7, 70, 32
9, 557860, Note_off_c, 7, 70, 64
9, 558240, Note_on_c, 7, 69, 32
9, 558330, Note_off_c, 7, 69, 64
9, 558720, Note_on_c, 7, 65, 32
9, 558814, Note_off_c, 7, 65, 64
9, 559200, Note_on_c, 7, 67, 32
9, 559294, Note_off_c, 7, 67, 64
9, 559680, Note_on_c, 7, 69, 32
9, 559780, Note_off_c, 7, 69, 64
9, 560160, Note_on_c, 7, 65, 32
9, 560254, Note_off_c, 7, 65, 64
9, 560640, Note_on_c, 7, 67, 32
9, 560740, Note_off_c, 7, 67, 64
9, 561120, Note_on_c, 7, 65, 32
9, 561140, Note_off_c, 7, 65, 64
9, 561180, Note_on_c, 7, 69, 32
9, 561280, Note_off_c, 7, 69, 64
9, 561600, Note_on_c, 7, 65, 32
9, 561700, Note_off_c, 7, 65, 64
9, 562080, Note_on_c, 7, 67, 32
9, 562184, Note_off_c, 7, 67, 64
9, 562560, Note_on_c, 7, 62, 32
9, 562580, Note_off_c, 7, 62, 64
9, 562620, Note_on_c, 7, 65, 32
9, 562720, Note_off_c, 7, 65, 64
9, 563040, Note_on_c, 7, 62, 32
9, 563144, Note_off_c, 7, 62, 64
9, 563520, Note_on_c, 7, 64, 32
9, 563620, Note_off_c, 7, 64, 64
9, 564000, Note_on_c, 7, 57, 32
9, 564020, Note_off_c, 7, 57, 64
9, 564060, Note_on_c, 7, 62, 32
9, 564164, Note_off_c, 7, 62, 64
9, 564480, Note_on_c, 7, 57, 32
9, 564580, Note_off_c, 7, 57, 64
9, 564960, Note_on_c, 7, 57, 32
9, 565060, Note_off_c, 7, 57, 64
9, 565440, Note_on_c, 7, 57, 32
9, 565534, Note_off_c, 7, 57, 64
9, 566400, Note_on_c, 7, 57, 32
9, 566720, Note_off_c, 7, 57, 64
9, 566880, Note_on_c, 7, 62, 32
9, 567770, Note_off_c, 7, 62, 64
9, 567840, Note_on_c, 7, 66, 36
9, 568160, Note_off_c, 7, 66, 64
9, 568320, Note_on_c, 7, 69, 38
9, 568760, Note_off_c, 7, 69, 64
9, 568800, Note_on_c, 7, 66, 40
9, 569240, Note_off_c, 7, 66, 64
9, 569280, Note_on_c, 7, 66, 42
9, 569600, Note_off_c, 7, 66, 64
9, 569760, Note_on_c, 7, 69, 44
9, 570214, Note_off_c, 7, 69, 64
9, 570240, Note_on_c, 7, 73, 46
9, 570674, Note_off_c, 7, 73, 64
9, 570720, Note_on_c, 7, 74, 48
9, 570954, Note_off_c, 7, 74, 64
9, 570960, Note_on_c, 7, 71, 48
9, 571184, Note_off_c, 7, 71, 64
9, 571200, Note_on_c, 7, 69, 48
9, 571656, Note_off_c, 7, 69, 64
9, 571680, Note_on_c, 7, 73, 54
9, 572136, Note_off_c, 7, 73, 64
9, 572160, Note_on_c, 7, 74, 59
9, 572388, Note_off_c, 7, 74, 64
9, 572400, Note_on_c, 7, 70, 62
9, 572628, Note_off_c, 7, 70, 64
9, 572640, Note_on_c, 7, 69, 65
9, 573096, Note_off_c, 7, 69, 64
9, 573120, Note_on_c, 7, 72, 71
9, 573576, Note_off_c, 7, 72, 64
9, 573600, Note_on_c, 7, 74, 76
9, 573828, Note_off_c, 7, 74, 64
9, 573840, Note_on_c, 7, 70, 79
9, 574068, Note_off_c, 7, 70, 64
9, 574080, Note_on_c, 7, 69, 82
9, 574536, Note_off_c, 7, 69, 64
9, 574560, Note_on_c, 7, 72, 88
9, 575016, Note_off_c, 7, 72, 64
9, 575040, Note_on_c, 7, 70, 93
9, 575268, Note_off_c, 7, 70, 64
9, 575280, Note_on_c, 7, 67, 96
9, 575508, Note_off_c, 7, 67, 64
9, 575520, Note_on_c, 7, 65, 110
9, 575520, Note_on_c, 7, 69, 110
9, 576012, Note_off_c, 7, 69, 64
9, 576012, Note_off_c, 7, 65, 64
9, 578400, Note_on_c, 7, 67, 56
9, 578400, Note_on_c, 7, 70, 56
9, 578926, Note_off_c, 7, 70, 64
9, 578926, Note_off_c, 7, 67, 64
9, 579840, Control_c, 7, 0, 0
9, 579840, Control_c, 7, 32, 0
9, 579840, Program_c, 7, 45
9, 581280, Note_on_c, 7, 65, 51
9, 581736, Note_off_c, 7, 65, 64
9, 582720, Note_on_c, 7, 65, 51
9, 583176, Note_off_c, 7, 65, 64
9, 584160, Note_on_c, 7, 65, 51
9, 584616, Note_off_c, 7, 65, 64
9, 585600, Note_on_c, 7, 65, 51
9, 586056, Note_off_c, 7, 65, 64
9, 587040, Note_on_c, 7, 65, 51
9, 587496, Note_off_c, 7, 65, 64
9, 588480, Note_on_c, 7, 65, 51
9, 588936, Note_off_c, 7, 65, 64
9, 589920, Note_on_c, 7, 65, 51
9, 590376, Note_off_c, 7, 65, 64
9, 591360, Note_on_c, 7, 65, 51
9, 591816, Note_off_c, 7, 65, 64
9, 591840, Control_c, 7, 0, 0
9, 591840, Control_c, 7, 32, 0
9, 591840, Program_c, 7, 48
9, 592320, Note_on_c, 7, 72, 64
9, 592776, Note_off_c, 7, 72, 64
9, 592800, Note_on_c, 7, 77, 66
9, 593256, Note_off_c, 7, 77, 64
9, 593280, Note_on_c, 7, 72, 68
9, 593736, Note_off_c, 7, 72, 64
9, 593760, Note_on_c, 7, 74, 70
9, 594216, Note_off_c, 7, 74, 64
9, 594240, Note_on_c, 7, 72, 73
9, 594696, Note_off_c, 7, 72, 64
9, 594720, Note_on_c, 7, 69, 74
9, 595176, Note_off_c, 7, 69, 64
9, 595200, Note_on_c, 7, 70, 77
9, 595656, Note_off_c, 7, 70, 64
9, 595680, Note_on_c, 7, 69, 77
9, 596136, Note_off_c, 7, 69, 64
9, 596160, Note_on_c, 7, 65, 75
9, 596616, Note_off_c, 7, 65, 64
9, 596640, Note_on_c, 7, 67, 74
9, 597096, Note_off_c, 7, 67, 64
9, 597120, Note_on_c, 7, 69, 72
9, 597576, Note_off_c, 7, 69, 64
9, 597600, Note_on_c, 7, 65, 70
9, 598056, Note_off_c, 7, 65, 64
9, 598080, Note_on_c, 7, 72, 110
9, 598194, Note_off_c, 7, 72, 64
9, 598560, Note_on_c, 7, 77, 110
9, 598674, Note_off_c, 7, 77, 64
9, 599040, Note_on_c, 7, 72, 110
9, 599154, Note_off_c, 7, 72, 64
9, 599520, Note_on_c, 7, 74, 110
9, 599634, Note_off_c, 7, 74, 64
9, 600000, Note_on_c, 7, 72, 100
9, 600228, Note_off_c, 7, 72, 64
9, 600480, Note_on_c, 7, 69, 100
9, 600708, Note_off_c, 7, 69, 64
9, 600960, Note_on_c, 7, 70, 100
9, 601188, Note_off_c, 7, 70, 64
9, 601440, Note_on_c, 7, 69, 127
9, 601668, Note_off_c, 7, 69, 64
9, 601920, Note_on_c, 7, 65, 100
9, 602102, Note_off_c, 7, 65, 64
9, 602400, Note_on_c, 7, 67, 100
9, 602582, Note_off_c, 7, 67, 64
9, 602880, Note_on_c, 7, 69, 127
9, 603108, Note_off_c, 7, 69, 64
9, 603360, Note_on_c, 7, 65, 100
9, 603588, Note_off_c, 7, 65, 64
9, 603840, Note_on_c, 7, 67, 100
9, 604068, Note_off_c, 7, 67, 64
9, 604320, Note_on_c, 7, 69, 127
9, 604548, Note_off_c, 7, 69, 64
9, 604800, Note_on_c, 7, 65, 100
9, 605028, Note_off_c, 7, 65, 64
9, 605280, Note_on_c, 7, 67, 100
9, 605508, Note_off_c, 7, 67, 64
9, 605760, Note_on_c, 7, 69, 127
9, 605988, Note_off_c, 7, 69, 64
9, 606240, Note_on_c, 7, 65, 100
9, 606468, Note_off_c, 7, 65, 64
9, 606720, Note_on_c, 7, 67, 100
9, 606948, Note_off_c, 7, 67, 64
9, 607200, Note_on_c, 7, 69, 127
9, 608260, Note_off_c, 7, 69, 64
9, 608526, Note_on_c, 7, 67, 100
9, 608610, Note_on_c, 7, 69, 100
9, 608638, Note_off_c, 7, 67, 64
9, 608640, Note_on_c, 7, 67, 100
9, 608722, Note_off_c, 7, 69, 64
9, 609388, Note_off_c, 7, 67, 64
9, 609600, Note_on_c, 7, 65, 100
9, 609874, Note_off_c, 7, 65, 64
9, 610020, Note_on_c, 7, 64, 100
9, 610048, Note_off_c, 7, 64, 64
9, 610050, Note_on_c, 7, 65, 100
9, 610078, Note_off_c, 7, 65, 64
9, 610080, Note_on_c, 7, 64, 100
9, 610828, Note_off_c, 7, 64, 64
9, 611040, Note_on_c, 7, 62, 100
9, 611314, Note_off_c, 7, 62, 64
9, 611520, Note_on_c, 7, 60, 100
9, 612268, Note_off_c, 7, 60, 64
9, 612480, Note_on_c, 7, 72, 100
9, 612844, Note_off_c, 7, 72, 64
9, 612960, Note_on_c, 7, 77, 120
9, 614184, Note_off_c, 7, 77, 64
9, 614400, Note_on_c, 7, 77, 120
9, 615624, Note_off_c, 7, 77, 64
9, 615840, Note_on_c, 7, 77, 120
9, 617064, Note_off_c, 7, 77, 64
9, 617280, Note_on_c, 7, 76, 100
9, 617280, Note_on_c, 7, 67, 100
9, 617280, Note_on_c, 7, 60, 100
9, 617554, Note_off_c, 7, 60, 64
9, 617554, Note_off_c, 7, 67, 64
9, 618404, Note_off_c, 7, 76, 64
9, 618720, Note_on_c, 7, 77, 100
9, 618720, Note_on_c, 7, 69, 100
9, 618924, Note_off_c, 7, 69, 64
9, 618924, Note_off_c, 7, 77, 64
9, 619680, Note_on_c, 7, 81, 110
9, 619876, Note_off_c, 7, 81, 64
9, 620046, Note_on_c, 7, 79, 100
9, 620130, Note_on_c, 7, 81, 100
9, 620158, Note_off_c, 7, 79, 64
9, 620160, Note_on_c, 7, 79, 100
9, 620242, Note_off_c, 7, 81, 64
9, 620908, Note_off_c, 7, 79, 64
9, 621120, Note_on_c, 7, 77, 100
9, 621394, Note_off_c, 7, 77, 64
9, 621540, Note_on_c, 7, 76, 100
9, 621568, Note_off_c, 7, 76, 64
9, 621570, Note_on_c, 7, 77, 100
9, 621598, Note_off_c, 7, 77, 64
9, 621600, Note_on_c, 7, 76, 100
9, 622348, Note_off_c, 7, 76, 64
9, 622560, Note_on_c, 7, 74, 100
9, 622834, Note_off_c, 7, 74, 64
9, 623040, Note_on_c, 7, 72, 100
9, 623788, Note_off_c, 7, 72, 64
9, 624000, Note_on_c, 7, 76, 100
9, 624364, Note_off_c, 7, 76, 64
9, 624480, Note_on_c, 7, 77, 120
9, 624480, Note_on_c, 7, 72, 120
9, 624480, Note_on_c, 7, 65, 120
9, 625028, Note_off_c, 7, 65, 64
9, 625028, Note_off_c, 7, 72, 64
9, 625862, Note_off_c, 7, 77, 64
9, 625920, Note_on_c, 7, 79, 120
9, 627268, Note_off_c, 7, 79, 64
9, 627360, Note_on_c, 7, 81, 120
9, 628708, Note_off_c, 7, 81, 64
9, 628800, Note_on_c, 7, 79, 120
9, 628800, Note_on_c, 7, 72, 120
9, 628800, Note_on_c, 7, 64, 120
9, 629608, Note_off_c, 7, 64, 64
9, 629608, Note_off_c, 7, 72, 64
9, 630090, Note_off_c, 7, 79, 64
9, 630240, Note_on_c, 7, 77, 127
9, 630240, Note_on_c, 7, 72, 127
9, 630240, Note_on_c, 7, 65, 127
9, 630696, Note_off_c, 7, 65, 64
9, 630696, Note_off_c, 7, 72, 64
9, 630696, Note_off_c, 7, 77, 64
9, 631680, Note_on_c, 7, 57, 120
9, 631794, Note_off_c, 7, 57, 64
9, 631920, Note_on_c, 7, 60, 120
9, 632034, Note_off_c, 7, 60, 64
9, 632160, Note_on_c, 7, 65, 120
9, 632274, Note_off_c, 7, 65, 64
9, 632400, Note_on_c, 7, 69, 120
9, 632514, Note_off_c, 7, 69, 64
9, 632640, Note_on_c, 7, 72, 120
9, 632868, Note_off_c, 7, 72, 64
9, 634560, Note_on_c, 7, 70, 110
9, 634560, Note_on_c, 7, 67, 110
9, 634788, Note_off_c, 7, 67, 64
9, 634788, Note_off_c, 7, 70, 64
9, 635040, Note_on_c, 7, 70, 110
9, 635040, Note_on_c, 7, 67, 110
9, 635268, Note_off_c, 7, 67, 64
9, 635268, Note_off_c, 7, 70, 64
9, 635520, Note_on_c, 7, 70, 110
9, 635520, Note_on_c, 7, 67, 110
9, 635748, Note_off_c, 7, 67, 64
9, 635748, Note_off_c, 7, 70, 64
9, 636000, Note_on_c, 7, 69, 127
9, 636000, Note_on_c, 7, 65, 127
9, 636456, Note_off_c, 7, 65, 64
9, 636456, Note_off_c, 7, 69, 64
9, 637440, Note_on_c, 7, 57, 120
9, 637554, Note_off_c, 7, 57, 64
9, 637680, Note_on_c, 7, 60, 120
9, 637794, Note_off_c, 7, 60, 64
9, 637920, Note_on_c, 7, 65, 120
9, 638034, Note_off_c, 7, 65, 64
9, 638160, Note_on_c, 7, 69, 120
9, 638274, Note_off_c, 7, 69, 64
9, 638400, Note_on_c, 7, 72, 120
9, 638628, Note_off_c, 7, 72, 64
9, 640320, Note_on_c, 7, 70, 99
9, 640320, Note_on_c, 7, 67, 99
9, 640548, Note_off_c, 7, 67, 64
9, 640548, Note_off_c, 7, 70, 64
9, 640800, Note_on_c, 7, 70, 99
9, 640800, Note_on_c, 7, 67, 99
9, 641028, Note_off_c, 7, 67, 64
9, 641028, Note_off_c, 7, 70, 64
9, 641280, Note_on_c, 7, 70, 99
9, 641280, Note_on_c, 7, 67, 99
9, 641554, Note_off_c, 7, 67, 64
9, 641554, Note_off_c, 7, 70, 64
9, 641554, End_track
10, 0, Start_track
10, 0, Title_t, "Viola"
10, 0, MIDI_port, 0
10, 0, Channel_prefix, 8
10, 0, Control_c, 8, 7, 111
10, 0, Control_c, 8, 10, 64
10, 0, Control_c, 8, 0, 0
10, 0, Control_c, 8, 32, 0
10, 0, Control_c, 8, 91, 52
10, 0, Control_c, 8, 93, 12
10, 0, Program_c, 8, 48
10, 960, Note_on_c, 8, 60, 32
10, 1060, Note_off_c, 8, 60, 64
10, 1440, Note_on_c, 8, 65, 32
10, 1540, Note_off_c, 8, 65, 64
10, 1920, Note_on_c, 8, 60, 32
10, 2030, Note_off_c, 8, 60, 64
10, 2400, Note_on_c, 8, 62, 32
10, 2494, Note_off_c, 8, 62, 64
10, 2880, Note_on_c, 8, 60, 32
10, 2980, Note_off_c, 8, 60, 64
10, 3360, Note_on_c, 8, 57, 32
10, 3464, Note_off_c, 8, 57, 64
10, 3840, Note_on_c, 8, 58, 32
10, 3944, Note_off_c, 8, 58, 64
10, 4320, Note_on_c, 8, 57, 32
10, 4420, Note_off_c, 8, 57, 64
10, 4800, Note_on_c, 8, 53, 32
10, 4900, Note_off_c, 8, 53, 64
10, 5280, Note_on_c, 8, 55, 32
10, 5380, Note_off_c, 8, 55, 64
10, 5760, Note_on_c, 8, 57, 32
10, 5860, Note_off_c, 8, 57, 64
10, 6240, Note_on_c, 8, 65, 32
10, 6340, Note_off_c, 8, 65, 64
10, 6720, Note_on_c, 8, 67, 32
10, 6814, Note_off_c, 8, 67, 64
10, 7200, Note_on_c, 8, 69, 32
10, 7304, Note_off_c, 8, 69, 64
10, 7680, Note_on_c, 8, 65, 32
10, 7774, Note_off_c, 8, 65, 64
10, 8160, Note_on_c, 8, 67, 32
10, 8260, Note_off_c, 8, 67, 64
10, 8640, Note_on_c, 8, 65, 32
10, 8724, Note_off_c, 8, 65, 64
10, 9120, Note_on_c, 8, 62, 32
10, 9214, Note_off_c, 8, 62, 64
10, 9600, Note_on_c, 8, 64, 32
10, 9700, Note_off_c, 8, 64, 64
10, 10080, Note_on_c, 8, 62, 32
10, 10174, Note_off_c, 8, 62, 64
10, 10560, Note_on_c, 8, 57, 32
10, 10670, Note_off_c, 8, 57, 64
10, 11040, Note_on_c, 8, 57, 32
10, 11150, Note_off_c, 8, 57, 64
10, 11520, Note_on_c, 8, 57, 32
10, 11620, Note_off_c, 8, 57, 64
10, 12480, Note_on_c, 8, 57, 32
10, 12590, Note_off_c, 8, 57, 64
10, 12960, Note_on_c, 8, 50, 32
10, 13844, Note_off_c, 8, 50, 64
10, 13920, Note_on_c, 8, 54, 36
10, 14240, Note_off_c, 8, 54, 64
10, 14400, Note_on_c, 8, 57, 38
10, 14870, Note_off_c, 8, 57, 64
10, 14880, Note_on_c, 8, 54, 40
10, 15340, Note_off_c, 8, 54, 64
10, 15360, Note_on_c, 8, 54, 42
10, 15680, Note_off_c, 8, 54, 64
10, 15840, Note_on_c, 8, 57, 44
10, 16304, Note_off_c, 8, 57, 64
10, 16320, Note_on_c, 8, 61, 46
10, 16740, Note_off_c, 8, 61, 64
10, 16800, Note_on_c, 8, 62, 48
10, 17010, Note_off_c, 8, 62, 64
10, 17040, Note_on_c, 8, 59, 48
10, 17254, Note_off_c, 8, 59, 64
10, 17280, Note_on_c, 8, 57, 48
10, 18120, Note_off_c, 8, 57, 64
10, 18240, Note_on_c, 8, 61, 48
10, 18240, Note_on_c, 8, 52, 48
10, 18614, Note_off_c, 8, 61, 64
10, 18690, Note_off_c, 8, 52, 64
10, 18720, Note_on_c, 8, 62, 48
10, 18720, Note_on_c, 8, 54, 48
10, 19170, Note_off_c, 8, 62, 64
10, 19200, Note_on_c, 8, 57, 48
10, 19620, Note_off_c, 8, 54, 64
10, 19654, Note_off_c, 8, 57, 64
10, 19680, Note_on_c, 8, 59, 48
10, 19680, Note_on_c, 8, 55, 48
10, 20130, Note_off_c, 8, 55, 64
10, 20144, Note_off_c, 8, 59, 64
10, 20160, Note_on_c, 8, 57, 48
10, 20160, Note_on_c, 8, 54, 48
10, 20610, Note_off_c, 8, 54, 64
10, 20610, Note_off_c, 8, 57, 64
10, 20640, Note_on_c, 8, 57, 48
10, 20640, Note_on_c, 8, 69, 48
10, 21054, Note_off_c, 8, 57, 64
10, 21060, Note_off_c, 8, 69, 64
10, 21120, Note_on_c, 8, 59, 48
10, 21120, Note_on_c, 8, 71, 48
10, 21540, Note_off_c, 8, 71, 64
10, 21554, Note_off_c, 8, 59, 64
10, 21600, Note_on_c, 8, 57, 48
10, 21600, Note_on_c, 8, 69, 48
10, 22014, Note_off_c, 8, 69, 64
10, 22030, Note_off_c, 8, 57, 64
10, 22080, Note_on_c, 8, 54, 47
10, 22080, Note_on_c, 8, 66, 47
10, 22504, Note_off_c, 8, 66, 64
10, 22504, Note_off_c, 8, 54, 64
10, 22560, Note_on_c, 8, 55, 46
10, 22560, Note_on_c, 8, 67, 46
10, 22980, Note_off_c, 8, 55, 64
10, 22984, Note_off_c, 8, 67, 64
10, 23040, Note_on_c, 8, 54, 44
10, 23040, Note_on_c, 8, 66, 44
10, 23444, Note_off_c, 8, 54, 64
10, 23460, Note_off_c, 8, 66, 64
10, 24000, Note_on_c, 8, 60, 32
10, 24100, Note_off_c, 8, 60, 64
10, 24480, Note_on_c, 8, 65, 32
10, 24580, Note_off_c, 8, 65, 64
10, 24960, Note_on_c, 8, 60, 32
10, 25070, Note_off_c, 8, 60, 64
10, 25440, Note_on_c, 8, 62, 32
10, 25534, Note_off_c, 8, 62, 64
10, 25920, Note_on_c, 8, 60, 32
10, 26020, Note_off_c, 8, 60, 64
10, 26400, Note_on_c, 8, 57, 32
10, 26504, Note_off_c, 8, 57, 64
10, 26880, Note_on_c, 8, 58, 32
10, 26984, Note_off_c, 8, 58, 64
10, 27360, Note_on_c, 8, 57, 32
10, 27460, Note_off_c, 8, 57, 64
10, 27840, Note_on_c, 8, 53, 32
10, 27940, Note_off_c, 8, 53, 64
10, 28320, Note_on_c, 8, 55, 32
10, 28420, Note_off_c, 8, 55, 64
10, 28800, Note_on_c, 8, 57, 32
10, 28900, Note_off_c, 8, 57, 64
10, 29280, Note_on_c, 8, 65, 32
10, 29380, Note_off_c, 8, 65, 64
10, 29760, Note_on_c, 8, 67, 32
10, 29854, Note_off_c, 8, 67, 64
10, 30240, Note_on_c, 8, 69, 32
10, 30344, Note_off_c, 8, 69, 64
10, 30720, Note_on_c, 8, 65, 32
10, 30814, Note_off_c, 8, 65, 64
10, 31200, Note_on_c, 8, 67, 32
10, 31300, Note_off_c, 8, 67, 64
10, 31680, Note_on_c, 8, 65, 32
10, 31764, Note_off_c, 8, 65, 64
10, 32160, Note_on_c, 8, 62, 32
10, 32254, Note_off_c, 8, 62, 64
10, 32640, Note_on_c, 8, 64, 32
10, 32740, Note_off_c, 8, 64, 64
10, 33120, Note_on_c, 8, 62, 32
10, 33214, Note_off_c, 8, 62, 64
10, 33600, Note_on_c, 8, 57, 32
10, 33710, Note_off_c, 8, 57, 64
10, 34080, Note_on_c, 8, 57, 32
10, 34190, Note_off_c, 8, 57, 64
10, 34560, Note_on_c, 8, 57, 32
10, 34660, Note_off_c, 8, 57, 64
10, 35520, Note_on_c, 8, 57, 32
10, 35630, Note_off_c, 8, 57, 64
10, 36000, Note_on_c, 8, 50, 32
10, 36884, Note_off_c, 8, 50, 64
10, 36960, Note_on_c, 8, 54, 36
10, 37280, Note_off_c, 8, 54, 64
10, 37440, Note_on_c, 8, 57, 38
10, 37910, Note_off_c, 8, 57, 64
10, 37920, Note_on_c, 8, 54, 40
10, 38380, Note_off_c, 8, 54, 64
10, 38400, Note_on_c, 8, 54, 42
10, 38720, Note_off_c, 8, 54, 64
10, 38880, Note_on_c, 8, 57, 44
10, 39344, Note_off_c, 8, 57, 64
10, 39360, Note_on_c, 8, 61, 46
10, 39780, Note_off_c, 8, 61, 64
10, 39840, Note_on_c, 8, 62, 48
10, 40050, Note_off_c, 8, 62, 64
10, 40080, Note_on_c, 8, 59, 48
10, 40294, Note_off_c, 8, 59, 64
10, 40320, Note_on_c, 8, 57, 48
10, 41160, Note_off_c, 8, 57, 64
10, 41280, Note_on_c, 8, 61, 48
10, 41280, Note_on_c, 8, 52, 48
10, 41654, Note_off_c, 8, 61, 64
10, 41730, Note_off_c, 8, 52, 64
10, 41760, Note_on_c, 8, 62, 48
10, 41760, Note_on_c, 8, 54, 48
10, 42210, Note_off_c, 8, 62, 64
10, 42240, Note_on_c, 8, 57, 48
10, 42660, Note_off_c, 8, 54, 64
10, 42694, Note_off_c, 8, 57, 64
10, 42720, Note_on_c, 8, 59, 48
10, 42720, Note_on_c, 8, 55, 48
10, 43170, Note_off_c, 8, 55, 64
10, 43184, Note_off_c, 8, 59, 64
10, 43200, Note_on_c, 8, 57, 48
10, 43200, Note_on_c, 8, 54, 48
10, 43650, Note_off_c, 8, 54, 64
10, 43650, Note_off_c, 8, 57, 64
10, 43680, Note_on_c, 8, 57, 48
10, 43680, Note_on_c, 8, 69, 48
10, 44094, Note_off_c, 8, 57, 64
10, 44100, Note_off_c, 8, 69, 64
10, 44160, Note_on_c, 8, 59, 48
10, 44160, Note_on_c, 8, 71, 48
10, 44580, Note_off_c, 8, 71, 64
10, 44594, Note_off_c, 8, 59, 64
10, 44640, Note_on_c, 8, 57, 48
10, 44640, Note_on_c, 8, 69, 48
10, 45054, Note_off_c, 8, 69, 64
10, 45070, Note_off_c, 8, 57, 64
10, 45120, Note_on_c, 8, 54, 47
10, 45120, Note_on_c, 8, 66, 47
10, 45544, Note_off_c, 8, 66, 64
10, 45544, Note_off_c, 8, 54, 64
10, 45600, Note_on_c, 8, 55, 46
10, 45600, Note_on_c, 8, 67, 46
10, 46020, Note_off_c, 8, 55, 64
10, 46024, Note_off_c, 8, 67, 64
10, 46080, Note_on_c, 8, 54, 44
10, 46080, Note_on_c, 8, 66, 44
10, 46484, Note_off_c, 8, 54, 64
10, 46500, Note_off_c, 8, 66, 64
10, 52800, Note_on_c, 8, 62, 32
10, 52960, Note_off_c, 8, 62, 64
10, 53280, Note_on_c, 8, 67, 32
10, 53440, Note_off_c, 8, 67, 64
10, 53760, Note_on_c, 8, 62, 32
10, 53920, Note_off_c, 8, 62, 64
10, 54240, Note_on_c, 8, 64, 32
10, 54400, Note_off_c, 8, 64, 64
10, 54720, Note_on_c, 8, 62, 32
10, 54880, Note_off_c, 8, 62, 64
10, 55200, Note_on_c, 8, 59, 32
10, 55360, Note_off_c, 8, 59, 64
10, 55680, Note_on_c, 8, 60, 32
10, 55840, Note_off_c, 8, 60, 64
10, 56160, Note_on_c, 8, 59, 32
10, 56320, Note_off_c, 8, 59, 64
10, 56640, Note_on_c, 8, 55, 32
10, 56800, Note_off_c, 8, 55, 64
10, 57120, Note_on_c, 8, 57, 32
10, 57280, Note_off_c, 8, 57, 64
10, 57600, Note_on_c, 8, 59, 32
10, 57760, Note_off_c, 8, 59, 64
10, 58080, Note_on_c, 8, 55, 32
10, 58240, Note_off_c, 8, 55, 64
10, 58560, Note_on_c, 8, 55, 32
10, 58720, Note_off_c, 8, 55, 64
10, 59040, Note_on_c, 8, 48, 32
10, 59680, Note_off_c, 8, 48, 64
10, 60000, Note_on_c, 8, 52, 39
10, 60320, Note_off_c, 8, 52, 64
10, 60480, Note_on_c, 8, 55, 42
10, 60800, Note_off_c, 8, 55, 64
10, 60960, Note_on_c, 8, 52, 46
10, 61280, Note_off_c, 8, 52, 64
10, 61440, Note_on_c, 8, 52, 49
10, 61760, Note_off_c, 8, 52, 64
10, 61920, Note_on_c, 8, 55, 53
10, 62240, Note_off_c, 8, 55, 64
10, 62400, Note_on_c, 8, 59, 56
10, 62720, Note_off_c, 8, 59, 64
10, 62880, Note_on_c, 8, 60, 60
10, 63040, Note_off_c, 8, 60, 64
10, 63120, Note_on_c, 8, 57, 62
10, 63280, Note_off_c, 8, 57, 64
10, 63360, Note_on_c, 8, 55, 64
10, 64000, Note_off_c, 8, 55, 64
10, 64320, Note_on_c, 8, 62, 64
10, 64640, Note_off_c, 8, 62, 64
10, 64800, Note_on_c, 8, 64, 64
10, 65440, Note_off_c, 8, 64, 64
10, 65760, Note_on_c, 8, 65, 64
10, 66080, Note_off_c, 8, 65, 64
10, 66240, Note_on_c, 8, 64, 64
10, 66560, Note_off_c, 8, 64, 64
10, 66720, Note_on_c, 8, 60, 64
10, 67040, Note_off_c, 8, 60, 64
10, 67200, Note_on_c, 8, 60, 64
10, 67520, Note_off_c, 8, 60, 64
10, 67680, Note_on_c, 8, 60, 64
10, 68000, Note_off_c, 8, 60, 64
10, 68160, Note_on_c, 8, 52, 64
10, 68480, Note_off_c, 8, 52, 64
10, 68640, Note_on_c, 8, 53, 64
10, 68960, Note_off_c, 8, 53, 64
10, 69120, Note_on_c, 8, 52, 64
10, 69440, Note_off_c, 8, 52, 64
10, 70080, Note_on_c, 8, 48, 44
10, 70170, Note_off_c, 8, 48, 64
10, 70560, Note_on_c, 8, 60, 50
10, 70880, Note_off_c, 8, 60, 64
10, 71040, Note_on_c, 8, 57, 53
10, 71360, Note_off_c, 8, 57, 64
10, 71520, Note_on_c, 8, 58, 57
10, 71840, Note_off_c, 8, 58, 64
10, 72000, Note_on_c, 8, 57, 61
10, 72320, Note_off_c, 8, 57, 64
10, 72480, Note_on_c, 8, 53, 65
10, 72800, Note_off_c, 8, 53, 64
10, 72960, Note_on_c, 8, 55, 69
10, 73280, Note_off_c, 8, 55, 64
10, 73440, Note_on_c, 8, 53, 73
10, 73760, Note_off_c, 8, 53, 64
10, 73920, Note_on_c, 8, 48, 76
10, 74240, Note_off_c, 8, 48, 64
10, 74400, Note_on_c, 8, 55, 80
10, 74720, Note_off_c, 8, 55, 64
10, 74880, Note_on_c, 8, 57, 84
10, 75200, Note_off_c, 8, 57, 64
10, 75360, Note_on_c, 8, 53, 88
10, 75680, Note_off_c, 8, 53, 64
10, 75840, Note_on_c, 8, 60, 92
10, 76160, Note_off_c, 8, 60, 64
10, 76320, Note_on_c, 8, 65, 96
10, 76640, Note_off_c, 8, 65, 64
10, 76800, Note_on_c, 8, 60, 96
10, 77120, Note_off_c, 8, 60, 64
10, 77280, Note_on_c, 8, 62, 96
10, 77600, Note_off_c, 8, 62, 64
10, 77760, Note_on_c, 8, 60, 96
10, 78080, Note_off_c, 8, 60, 64
10, 78240, Note_on_c, 8, 57, 96
10, 78560, Note_off_c, 8, 57, 64
10, 78720, Note_on_c, 8, 58, 96
10, 79040, Note_off_c, 8, 58, 64
10, 79200, Note_on_c, 8, 57, 126
10, 79520, Note_off_c, 8, 57, 64
10, 79680, Note_on_c, 8, 53, 96
10, 80000, Note_off_c, 8, 53, 64
10, 80160, Note_on_c, 8, 55, 96
10, 80480, Note_off_c, 8, 55, 64
10, 80640, Note_on_c, 8, 57, 126
10, 80960, Note_off_c, 8, 57, 64
10, 81120, Note_on_c, 8, 53, 96
10, 81440, Note_off_c, 8, 53, 64
10, 81600, Note_on_c, 8, 55, 96
10, 81920, Note_off_c, 8, 55, 64
10, 82080, Note_on_c, 8, 57, 125
10, 82400, Note_off_c, 8, 57, 64
10, 82560, Note_on_c, 8, 53, 96
10, 82880, Note_off_c, 8, 53, 64
10, 83040, Note_on_c, 8, 55, 96
10, 83360, Note_off_c, 8, 55, 64
10, 83520, Note_on_c, 8, 57, 125
10, 83840, Note_off_c, 8, 57, 64
10, 84000, Note_on_c, 8, 53, 96
10, 84320, Note_off_c, 8, 53, 64
10, 84480, Note_on_c, 8, 55, 96
10, 84800, Note_off_c, 8, 55, 64
10, 84960, Note_on_c, 8, 57, 122
10, 85920, Note_off_c, 8, 57, 64
10, 86400, Note_on_c, 8, 55, 96
10, 87040, Note_off_c, 8, 55, 64
10, 87360, Note_on_c, 8, 53, 96
10, 87680, Note_off_c, 8, 53, 64
10, 87840, Note_on_c, 8, 52, 96
10, 88480, Note_off_c, 8, 52, 64
10, 88800, Note_on_c, 8, 50, 96
10, 89120, Note_off_c, 8, 50, 64
10, 89280, Note_on_c, 8, 48, 96
10, 89920, Note_off_c, 8, 48, 64
10, 90240, Note_on_c, 8, 55, 96
10, 90560, Note_off_c, 8, 55, 64
10, 90720, Note_on_c, 8, 60, 96
10, 91680, Note_off_c, 8, 60, 64
10, 92160, Note_on_c, 8, 62, 96
10, 93120, Note_off_c, 8, 62, 64
10, 93600, Note_on_c, 8, 60, 96
10, 94560, Note_off_c, 8, 60, 64
10, 95040, Note_on_c, 8, 48, 96
10, 96000, Note_off_c, 8, 48, 64
10, 96480, Note_on_c, 8, 53, 96
10, 96800, Note_off_c, 8, 53, 64
10, 97440, Note_on_c, 8, 69, 96
10, 97760, Note_off_c, 8, 69, 64
10, 97920, Note_on_c, 8, 67, 96
10, 98560, Note_off_c, 8, 67, 64
10, 98880, Note_on_c, 8, 65, 96
10, 99200, Note_off_c, 8, 65, 64
10, 99360, Note_on_c, 8, 64, 96
10, 100000, Note_off_c, 8, 64, 64
10, 100320, Note_on_c, 8, 62, 96
10, 100640, Note_off_c, 8, 62, 64
10, 100800, Note_on_c, 8, 60, 96
10, 101440, Note_off_c, 8, 60, 64
10, 101760, Note_on_c, 8, 67, 96
10, 102080, Note_off_c, 8, 67, 64
10, 102240, Note_on_c, 8, 60, 96
10, 103404, Note_off_c, 8, 60, 64
10, 103680, Note_on_c, 8, 62, 96
10, 104794, Note_off_c, 8, 62, 64
10, 105120, Note_on_c, 8, 69, 96
10, 106290, Note_off_c, 8, 69, 64
10, 106560, Note_on_c, 8, 60, 96
10, 106560, Note_on_c, 8, 48, 96
10, 107680, Note_off_c, 8, 48, 64
10, 107720, Note_off_c, 8, 60, 64
10, 108000, Note_on_c, 8, 53, 96
10, 108160, Note_off_c, 8, 53, 64
10, 108240, Note_on_c, 8, 57, 96
10, 108400, Note_off_c, 8, 57, 64
10, 108480, Note_on_c, 8, 60, 96
10, 108640, Note_off_c, 8, 60, 64
10, 108720, Note_on_c, 8, 65, 96
10, 108880, Note_off_c, 8, 65, 64
10, 108960, Note_on_c, 8, 69, 96
10, 109280, Note_off_c, 8, 69, 64
10, 112320, Note_on_c, 8, 60, 96
10, 112640, Note_off_c, 8, 60, 64
10, 112800, Note_on_c, 8, 60, 96
10, 113120, Note_off_c, 8, 60, 64
10, 113280, Note_on_c, 8, 60, 96
10, 113600, Note_off_c, 8, 60, 64
10, 113760, Note_on_c, 8, 53, 96
10, 113920, Note_off_c, 8, 53, 64
10, 114000, Note_on_c, 8, 57, 96
10, 114160, Note_off_c, 8, 57, 64
10, 114240, Note_on_c, 8, 60, 96
10, 114400, Note_off_c, 8, 60, 64
10, 114480, Note_on_c, 8, 65, 96
10, 114640, Note_off_c, 8, 65, 64
10, 114720, Note_on_c, 8, 69, 96
10, 115040, Note_off_c, 8, 69, 64
10, 118080, Note_on_c, 8, 60, 96
10, 118400, Note_off_c, 8, 60, 64
10, 118560, Note_on_c, 8, 60, 96
10, 118880, Note_off_c, 8, 60, 64
10, 119040, Note_on_c, 8, 60, 96
10, 119360, Note_off_c, 8, 60, 64
10, 119520, Note_on_c, 8, 53, 96
10, 119840, Note_off_c, 8, 53, 64
10, 122400, Note_on_c, 8, 53, 64
10, 122720, Note_off_c, 8, 53, 64
10, 182880, Note_on_c, 8, 60, 64
10, 183840, Note_off_c, 8, 60, 64
10, 184320, Note_on_c, 8, 55, 64
10, 185280, Note_off_c, 8, 55, 64
10, 185760, Note_on_c, 8, 48, 64
10, 186720, Note_off_c, 8, 48, 64
10, 190080, Note_on_c, 8, 60, 64
10, 190080, Note_on_c, 8, 55, 64
10, 190230, Note_off_c, 8, 55, 64
10, 190234, Note_off_c, 8, 60, 64
10, 190560, Note_on_c, 8, 55, 64
10, 190560, Note_on_c, 8, 52, 64
10, 190710, Note_off_c, 8, 52, 64
10, 190710, Note_off_c, 8, 55, 64
10, 191040, Note_on_c, 8, 55, 64
10, 191040, Note_on_c, 8, 52, 64
10, 191174, Note_off_c, 8, 55, 64
10, 191190, Note_off_c, 8, 52, 64
10, 191520, Note_on_c, 8, 60, 64
10, 191520, Note_on_c, 8, 57, 64
10, 191664, Note_off_c, 8, 60, 64
10, 191674, Note_off_c, 8, 57, 64
10, 192000, Note_on_c, 8, 57, 64
10, 192000, Note_on_c, 8, 53, 64
10, 192154, Note_off_c, 8, 57, 64
10, 192160, Note_off_c, 8, 53, 64
10, 192480, Note_on_c, 8, 57, 64
10, 192480, Note_on_c, 8, 53, 64
10, 192630, Note_off_c, 8, 53, 64
10, 192630, Note_off_c, 8, 57, 64
10, 192960, Note_on_c, 8, 60, 64
10, 192960, Note_on_c, 8, 57, 64
10, 193110, Note_off_c, 8, 60, 64
10, 193120, Note_off_c, 8, 57, 64
10, 193440, Note_on_c, 8, 57, 64
10, 193440, Note_on_c, 8, 53, 64
10, 193580, Note_off_c, 8, 57, 64
10, 193594, Note_off_c, 8, 53, 64
10, 193920, Note_on_c, 8, 57, 64
10, 193920, Note_on_c, 8, 53, 64
10, 194064, Note_off_c, 8, 53, 64
10, 194064, Note_off_c, 8, 57, 64
10, 194400, Note_on_c, 8, 60, 64
10, 194400, Note_on_c, 8, 58, 64
10, 194550, Note_off_c, 8, 58, 64
10, 194550, Note_off_c, 8, 60, 64
10, 194880, Note_on_c, 8, 58, 64
10, 194880, Note_on_c, 8, 53, 64
10, 195024, Note_off_c, 8, 58, 64
10, 195030, Note_off_c, 8, 53, 64
10, 195360, Note_on_c, 8, 58, 64
10, 195360, Note_on_c, 8, 53, 64
10, 195500, Note_off_c, 8, 53, 64
10, 195504, Note_off_c, 8, 58, 64
10, 195840, Note_on_c, 8, 60, 64
10, 195840, Note_on_c, 8, 58, 64
10, 195994, Note_off_c, 8, 60, 64
10, 196004, Note_off_c, 8, 58, 64
10, 196320, Note_on_c, 8, 58, 64
10, 196320, Note_on_c, 8, 53, 64
10, 196454, Note_off_c, 8, 58, 64
10, 196474, Note_off_c, 8, 53, 64
10, 196800, Note_on_c, 8, 58, 64
10, 196800, Note_on_c, 8, 53, 64
10, 196940, Note_off_c, 8, 53, 64
10, 196954, Note_off_c, 8, 58, 64
10, 197280, Note_on_c, 8, 60, 64
10, 197280, Note_on_c, 8, 57, 64
10, 197430, Note_off_c, 8, 57, 64
10, 197434, Note_off_c, 8, 60, 64
10, 197760, Note_on_c, 8, 57, 64
10, 197760, Note_on_c, 8, 53, 64
10, 197910, Note_off_c, 8, 53, 64
10, 197910, Note_off_c, 8, 57, 64
10, 198240, Note_on_c, 8, 57, 64
10, 198240, Note_on_c, 8, 53, 64
10, 198390, Note_off_c, 8, 53, 64
10, 198394, Note_off_c, 8, 57, 64
10, 198720, Note_on_c, 8, 60, 64
10, 198720, Note_on_c, 8, 55, 64
10, 198860, Note_off_c, 8, 60, 64
10, 198874, Note_off_c, 8, 55, 64
10, 199200, Note_on_c, 8, 55, 64
10, 199200, Note_on_c, 8, 52, 64
10, 199340, Note_off_c, 8, 55, 64
10, 199350, Note_off_c, 8, 52, 64
10, 199680, Note_on_c, 8, 55, 64
10, 199680, Note_on_c, 8, 52, 64
10, 199830, Note_off_c, 8, 52, 64
10, 199834, Note_off_c, 8, 55, 64
10, 200160, Note_on_c, 8, 60, 64
10, 200160, Note_on_c, 8, 57, 64
10, 200310, Note_off_c, 8, 57, 64
10, 200314, Note_off_c, 8, 60, 64
10, 200640, Note_on_c, 8, 57, 64
10, 200640, Note_on_c, 8, 53, 64
10, 200790, Note_off_c, 8, 53, 64
10, 200790, Note_off_c, 8, 57, 64
10, 201120, Note_on_c, 8, 57, 64
10, 201120, Note_on_c, 8, 53, 64
10, 201270, Note_off_c, 8, 53, 64
10, 201274, Note_off_c, 8, 57, 64
10, 201600, Note_on_c, 8, 60, 64
10, 201600, Note_on_c, 8, 57, 64
10, 201750, Note_off_c, 8, 57, 64
10, 201754, Note_off_c, 8, 60, 64
10, 202080, Note_on_c, 8, 57, 64
10, 202080, Note_on_c, 8, 53, 64
10, 202230, Note_off_c, 8, 53, 64
10, 202230, Note_off_c, 8, 57, 64
10, 202560, Note_on_c, 8, 57, 64
10, 202560, Note_on_c, 8, 53, 64
10, 202710, Note_off_c, 8, 53, 64
10, 202714, Note_off_c, 8, 57, 64
10, 203040, Note_on_c, 8, 60, 64
10, 203040, Note_on_c, 8, 57, 64
10, 203190, Note_off_c, 8, 57, 64
10, 203194, Note_off_c, 8, 60, 64
10, 203520, Note_on_c, 8, 57, 64
10, 203520, Note_on_c, 8, 53, 64
10, 203670, Note_off_c, 8, 53, 64
10, 203670, Note_off_c, 8, 57, 64
10, 204000, Note_on_c, 8, 57, 64
10, 204000, Note_on_c, 8, 53, 64
10, 204150, Note_off_c, 8, 53, 64
10, 204154, Note_off_c, 8, 57, 64
10, 204480, Note_on_c, 8, 60, 64
10, 204480, Note_on_c, 8, 57, 64
10, 204630, Note_off_c, 8, 57, 64
10, 204634, Note_off_c, 8, 60, 64
10, 204960, Note_on_c, 8, 57, 64
10, 204960, Note_on_c, 8, 53, 64
10, 205110, Note_off_c, 8, 53, 64
10, 205110, Note_off_c, 8, 57, 64
10, 205440, Note_on_c, 8, 57, 64
10, 205440, Note_on_c, 8, 53, 64
10, 205590, Note_off_c, 8, 53, 64
10, 205594, Note_off_c, 8, 57, 64
10, 205920, Note_on_c, 8, 60, 64
10, 205920, Note_on_c, 8, 58, 64
10, 206074, Note_off_c, 8, 60, 64
10, 206084, Note_off_c, 8, 58, 64
10, 206400, Note_on_c, 8, 58, 64
10, 206400, Note_on_c, 8, 53, 64
10, 206534, Note_off_c, 8, 58, 64
10, 206554, Note_off_c, 8, 53, 64
10, 206880, Note_on_c, 8, 58, 64
10, 206880, Note_on_c, 8, 53, 64
10, 207020, Note_off_c, 8, 53, 64
10, 207034, Note_off_c, 8, 58, 64
10, 207360, Note_on_c, 8, 60, 64
10, 207360, Note_on_c, 8, 58, 64
10, 207514, Note_off_c, 8, 60, 64
10, 207524, Note_off_c, 8, 58, 64
10, 207840, Note_on_c, 8, 58, 64
10, 207840, Note_on_c, 8, 53, 64
10, 207974, Note_off_c, 8, 58, 64
10, 207994, Note_off_c, 8, 53, 64
10, 208320, Note_on_c, 8, 58, 64
10, 208320, Note_on_c, 8, 53, 64
10, 208460, Note_off_c, 8, 53, 64
10, 208474, Note_off_c, 8, 58, 64
10, 208800, Note_on_c, 8, 60, 64
10, 208800, Note_on_c, 8, 57, 64
10, 208950, Note_off_c, 8, 57, 64
10, 208954, Note_off_c, 8, 60, 64
10, 209280, Note_on_c, 8, 57, 64
10, 209280, Note_on_c, 8, 53, 64
10, 209430, Note_off_c, 8, 53, 64
10, 209430, Note_off_c, 8, 57, 64
10, 209760, Note_on_c, 8, 57, 64
10, 209760, Note_on_c, 8, 53, 64
10, 209910, Note_off_c, 8, 53, 64
10, 209914, Note_off_c, 8, 57, 64
10, 210240, Note_on_c, 8, 60, 64
10, 210240, Note_on_c, 8, 57, 64
10, 210390, Note_off_c, 8, 57, 64
10, 210394, Note_off_c, 8, 60, 64
10, 210720, Note_on_c, 8, 57, 64
10, 210720, Note_on_c, 8, 53, 64
10, 210870, Note_off_c, 8, 53, 64
10, 210870, Note_off_c, 8, 57, 64
10, 211200, Note_on_c, 8, 57, 64
10, 211200, Note_on_c, 8, 53, 64
10, 211350, Note_off_c, 8, 53, 64
10, 211354, Note_off_c, 8, 57, 64
10, 211680, Note_on_c, 8, 60, 64
10, 211680, Note_on_c, 8, 58, 64
10, 211840, Note_off_c, 8, 58, 64
10, 211840, Note_off_c, 8, 60, 64
10, 212160, Note_on_c, 8, 52, 64
10, 212160, Note_on_c, 8, 48, 64
10, 212320, Note_off_c, 8, 48, 64
10, 212320, Note_off_c, 8, 52, 64
10, 212640, Note_on_c, 8, 52, 64
10, 212640, Note_on_c, 8, 48, 64
10, 212800, Note_off_c, 8, 48, 64
10, 212800, Note_off_c, 8, 52, 64
10, 213120, Note_on_c, 8, 60, 64
10, 213120, Note_on_c, 8, 58, 64
10, 213280, Note_off_c, 8, 58, 64
10, 213280, Note_off_c, 8, 60, 64
10, 213600, Note_on_c, 8, 55, 64
10, 213600, Note_on_c, 8, 52, 64
10, 213760, Note_off_c, 8, 52, 64
10, 213760, Note_off_c, 8, 55, 64
10, 214080, Note_on_c, 8, 55, 64
10, 214080, Note_on_c, 8, 52, 64
10, 214240, Note_off_c, 8, 52, 64
10, 214240, Note_off_c, 8, 55, 64
10, 214560, Note_on_c, 8, 60, 64
10, 214560, Note_on_c, 8, 57, 64
10, 214710, Note_off_c, 8, 57, 64
10, 214714, Note_off_c, 8, 60, 64
10, 215040, Note_on_c, 8, 57, 64
10, 215040, Note_on_c, 8, 53, 64
10, 215190, Note_off_c, 8, 53, 64
10, 215190, Note_off_c, 8, 57, 64
10, 215520, Note_on_c, 8, 57, 64
10, 215520, Note_on_c, 8, 53, 64
10, 215670, Note_off_c, 8, 53, 64
10, 215674, Note_off_c, 8, 57, 64
10, 216000, Note_on_c, 8, 60, 64
10, 216000, Note_on_c, 8, 57, 64
10, 216150, Note_off_c, 8, 57, 64
10, 216154, Note_off_c, 8, 60, 64
10, 216480, Note_on_c, 8, 57, 64
10, 216480, Note_on_c, 8, 53, 64
10, 216630, Note_off_c, 8, 53, 64
10, 216630, Note_off_c, 8, 57, 64
10, 216960, Note_on_c, 8, 57, 64
10, 216960, Note_on_c, 8, 53, 64
10, 217110, Note_off_c, 8, 53, 64
10, 217114, Note_off_c, 8, 57, 64
10, 217440, Note_on_c, 8, 55, 64
10, 217440, Note_on_c, 8, 52, 64
10, 217600, Note_off_c, 8, 52, 64
10, 217600, Note_off_c, 8, 55, 64
10, 217920, Note_on_c, 8, 52, 64
10, 217920, Note_on_c, 8, 48, 64
10, 218080, Note_off_c, 8, 48, 64
10, 218080, Note_off_c, 8, 52, 64
10, 218400, Note_on_c, 8, 52, 64
10, 218400, Note_on_c, 8, 48, 64
10, 218560, Note_off_c, 8, 48, 64
10, 218560, Note_off_c, 8, 52, 64
10, 218880, Note_on_c, 8, 55, 64
10, 218880, Note_on_c, 8, 52, 64
10, 219040, Note_off_c, 8, 55, 64
10, 219360, Note_off_c, 8, 52, 64
10, 219360, Note_on_c, 8, 48, 64
10, 219360, Note_on_c, 8, 52, 64
10, 219408, Note_off_c, 8, 52, 64
10, 219520, Note_off_c, 8, 48, 64
10, 219840, Note_on_c, 8, 52, 64
10, 219840, Note_on_c, 8, 48, 64
10, 220000, Note_off_c, 8, 48, 64
10, 220000, Note_off_c, 8, 52, 64
10, 220320, Note_on_c, 8, 65, 64
10, 220960, Note_off_c, 8, 65, 64
10, 221280, Note_on_c, 8, 70, 66
10, 221600, Note_off_c, 8, 70, 64
10, 221760, Note_on_c, 8, 72, 67
10, 222174, Note_off_c, 8, 72, 64
10, 222240, Note_on_c, 8, 70, 68
10, 222650, Note_off_c, 8, 70, 64
10, 222720, Note_on_c, 8, 69, 69
10, 223144, Note_off_c, 8, 69, 64
10, 223200, Note_on_c, 8, 67, 70
10, 223904, Note_off_c, 8, 67, 64
10, 224160, Note_on_c, 8, 69, 72
10, 224480, Note_off_c, 8, 69, 64
10, 224640, Note_on_c, 8, 70, 73
10, 225050, Note_off_c, 8, 70, 64
10, 225120, Note_on_c, 8, 67, 74
10, 225534, Note_off_c, 8, 67, 64
10, 225600, Note_on_c, 8, 69, 75
10, 226034, Note_off_c, 8, 69, 64
10, 226080, Note_on_c, 8, 65, 76
10, 226830, Note_off_c, 8, 65, 64
10, 227040, Note_on_c, 8, 58, 78
10, 227360, Note_off_c, 8, 58, 64
10, 227520, Note_on_c, 8, 60, 79
10, 227840, Note_off_c, 8, 60, 64
10, 228000, Note_on_c, 8, 58, 80
10, 228320, Note_off_c, 8, 58, 64
10, 228480, Note_on_c, 8, 57, 81
10, 228800, Note_off_c, 8, 57, 64
10, 228960, Note_on_c, 8, 55, 82
10, 229600, Note_off_c, 8, 55, 64
10, 229920, Note_on_c, 8, 57, 84
10, 230240, Note_off_c, 8, 57, 64
10, 230400, Note_on_c, 8, 58, 85
10, 230720, Note_off_c, 8, 58, 64
10, 230880, Note_on_c, 8, 55, 86
10, 231200, Note_off_c, 8, 55, 64
10, 231360, Note_on_c, 8, 57, 87
10, 231680, Note_off_c, 8, 57, 64
10, 231840, Note_on_c, 8, 53, 98
10, 232160, Note_off_c, 8, 53, 64
10, 237600, Note_on_c, 8, 53, 64
10, 238240, Note_off_c, 8, 53, 64
10, 238560, Note_on_c, 8, 53, 64
10, 239200, Note_off_c, 8, 53, 64
10, 239520, Note_on_c, 8, 58, 64
10, 240160, Note_off_c, 8, 58, 64
10, 240480, Note_on_c, 8, 53, 64
10, 240954, Note_off_c, 8, 53, 64
10, 240960, Note_on_c, 8, 58, 64
10, 241194, Note_off_c, 8, 58, 64
10, 241440, Note_on_c, 8, 53, 64
10, 242080, Note_off_c, 8, 53, 64
10, 242400, Note_on_c, 8, 53, 64
10, 243040, Note_off_c, 8, 53, 64
10, 243360, Note_on_c, 8, 58, 64
10, 244000, Note_off_c, 8, 58, 64
10, 244320, Note_on_c, 8, 53, 64
10, 244794, Note_off_c, 8, 53, 64
10, 244800, Note_on_c, 8, 58, 64
10, 245034, Note_off_c, 8, 58, 64
10, 245280, Note_on_c, 8, 53, 64
10, 245920, Note_off_c, 8, 53, 64
10, 246240, Note_on_c, 8, 53, 64
10, 246880, Note_off_c, 8, 53, 64
10, 247200, Note_on_c, 8, 58, 64
10, 247840, Note_off_c, 8, 58, 64
10, 248160, Note_on_c, 8, 53, 64
10, 248634, Note_off_c, 8, 53, 64
10, 248640, Note_on_c, 8, 58, 64
10, 248874, Note_off_c, 8, 58, 64
10, 249120, Note_on_c, 8, 53, 64
10, 249760, Note_off_c, 8, 53, 64
10, 250080, Note_on_c, 8, 53, 64
10, 250720, Note_off_c, 8, 53, 64
10, 251040, Note_on_c, 8, 58, 64
10, 251680, Note_off_c, 8, 58, 64
10, 252000, Note_on_c, 8, 53, 64
10, 252474, Note_off_c, 8, 53, 64
10, 252480, Note_on_c, 8, 58, 64
10, 252714, Note_off_c, 8, 58, 64
10, 252960, Note_on_c, 8, 60, 72
10, 253030, Note_off_c, 8, 60, 64
10, 253200, Note_on_c, 8, 62, 64
10, 253240, Note_off_c, 8, 62, 64
10, 253320, Note_on_c, 8, 60, 64
10, 253364, Note_off_c, 8, 60, 64
10, 253440, Note_on_c, 8, 55, 66
10, 253494, Note_off_c, 8, 55, 64
10, 253680, Note_on_c, 8, 57, 64
10, 253720, Note_off_c, 8, 57, 64
10, 253800, Note_on_c, 8, 59, 64
10, 253840, Note_off_c, 8, 59, 64
10, 253920, Note_on_c, 8, 60, 74
10, 253960, Note_off_c, 8, 60, 64
10, 254160, Note_on_c, 8, 62, 64
10, 254190, Note_off_c, 8, 62, 64
10, 254280, Note_on_c, 8, 60, 64
10, 254320, Note_off_c, 8, 60, 64
10, 254400, Note_on_c, 8, 55, 64
10, 254650, Note_off_c, 8, 55, 64
10, 254880, Note_on_c, 8, 53, 72
10, 254930, Note_off_c, 8, 53, 64
10, 255000, Note_on_c, 8, 55, 64
10, 255044, Note_off_c, 8, 55, 64
10, 255120, Note_on_c, 8, 57, 64
10, 255170, Note_off_c, 8, 57, 64
10, 255240, Note_on_c, 8, 58, 64
10, 255320, Note_off_c, 8, 58, 64
10, 255360, Note_on_c, 8, 60, 64
10, 255430, Note_off_c, 8, 60, 64
10, 255600, Note_on_c, 8, 60, 64
10, 255620, Note_off_c, 8, 60, 64
10, 255660, Note_on_c, 8, 62, 64
10, 255674, Note_off_c, 8, 62, 64
10, 255840, Note_on_c, 8, 55, 64
10, 255890, Note_off_c, 8, 55, 64
10, 256080, Note_on_c, 8, 55, 64
10, 256120, Note_off_c, 8, 55, 64
10, 256150, Note_on_c, 8, 60, 64
10, 256184, Note_off_c, 8, 60, 64
10, 256320, Note_on_c, 8, 53, 64
10, 256640, Note_off_c, 8, 53, 64
10, 256800, Note_on_c, 8, 60, 72
10, 256870, Note_off_c, 8, 60, 64
10, 257040, Note_on_c, 8, 62, 64
10, 257080, Note_off_c, 8, 62, 64
10, 257160, Note_on_c, 8, 60, 64
10, 257204, Note_off_c, 8, 60, 64
10, 257280, Note_on_c, 8, 55, 66
10, 257334, Note_off_c, 8, 55, 64
10, 257520, Note_on_c, 8, 57, 64
10, 257560, Note_off_c, 8, 57, 64
10, 257640, Note_on_c, 8, 59, 64
10, 257680, Note_off_c, 8, 59, 64
10, 257760, Note_on_c, 8, 60, 74
10, 257800, Note_off_c, 8, 60, 64
10, 258000, Note_on_c, 8, 62, 64
10, 258030, Note_off_c, 8, 62, 64
10, 258120, Note_on_c, 8, 60, 64
10, 258160, Note_off_c, 8, 60, 64
10, 258240, Note_on_c, 8, 55, 64
10, 258490, Note_off_c, 8, 55, 64
10, 258720, Note_on_c, 8, 53, 72
10, 258770, Note_off_c, 8, 53, 64
10, 258840, Note_on_c, 8, 55, 64
10, 258884, Note_off_c, 8, 55, 64
10, 258960, Note_on_c, 8, 57, 64
10, 259010, Note_off_c, 8, 57, 64
10, 259080, Note_on_c, 8, 58, 64
10, 259160, Note_off_c, 8, 58, 64
10, 259200, Note_on_c, 8, 60, 64
10, 259270, Note_off_c, 8, 60, 64
10, 259440, Note_on_c, 8, 60, 64
10, 259460, Note_off_c, 8, 60, 64
10, 259500, Note_on_c, 8, 62, 64
10, 259514, Note_off_c, 8, 62, 64
10, 259680, Note_on_c, 8, 55, 64
10, 259730, Note_off_c, 8, 55, 64
10, 259920, Note_on_c, 8, 55, 64
10, 259960, Note_off_c, 8, 55, 64
10, 259990, Note_on_c, 8, 60, 64
10, 260024, Note_off_c, 8, 60, 64
10, 260160, Note_on_c, 8, 53, 64
10, 260480, Note_off_c, 8, 53, 64
10, 260640, Note_on_c, 8, 60, 88
10, 260764, Note_off_c, 8, 60, 64
10, 260880, Note_on_c, 8, 62, 88
10, 260920, Note_off_c, 8, 62, 64
10, 261000, Note_on_c, 8, 60, 88
10, 261034, Note_off_c, 8, 60, 64
10, 261120, Note_on_c, 8, 55, 88
10, 261224, Note_off_c, 8, 55, 64
10, 261360, Note_on_c, 8, 57, 88
10, 261394, Note_off_c, 8, 57, 64
10, 261480, Note_on_c, 8, 59, 88
10, 261520, Note_off_c, 8, 59, 64
10, 261600, Note_on_c, 8, 60, 89
10, 261720, Note_off_c, 8, 60, 64
10, 261840, Note_on_c, 8, 62, 89
10, 261874, Note_off_c, 8, 62, 64
10, 261960, Note_on_c, 8, 60, 89
10, 262004, Note_off_c, 8, 60, 64
10, 262080, Note_on_c, 8, 59, 89
10, 262180, Note_off_c, 8, 59, 64
10, 262320, Note_on_c, 8, 60, 89
10, 262354, Note_off_c, 8, 60, 64
10, 262440, Note_on_c, 8, 62, 89
10, 262474, Note_off_c, 8, 62, 64
10, 262560, Note_on_c, 8, 64, 90
10, 262680, Note_off_c, 8, 64, 64
10, 262800, Note_on_c, 8, 62, 90
10, 262844, Note_off_c, 8, 62, 64
10, 262920, Note_on_c, 8, 64, 90
10, 262954, Note_off_c, 8, 64, 64
10, 263040, Note_on_c, 8, 65, 90
10, 263134, Note_off_c, 8, 65, 64
10, 263280, Note_on_c, 8, 67, 90
10, 263320, Note_off_c, 8, 67, 64
10, 263400, Note_on_c, 8, 69, 90
10, 263434, Note_off_c, 8, 69, 64
10, 263520, Note_on_c, 8, 67, 91
10, 263640, Note_off_c, 8, 67, 64
10, 263760, Note_on_c, 8, 69, 91
10, 263800, Note_off_c, 8, 69, 64
10, 263880, Note_on_c, 8, 66, 91
10, 263920, Note_off_c, 8, 66, 64
10, 264000, Note_on_c, 8, 67, 91
10, 264100, Note_off_c, 8, 67, 64
10, 264240, Note_on_c, 8, 55, 91
10, 264334, Note_off_c, 8, 55, 64
10, 264480, Note_on_c, 8, 60, 92
10, 264604, Note_off_c, 8, 60, 64
10, 264720, Note_on_c, 8, 62, 92
10, 264760, Note_off_c, 8, 62, 64
10, 264840, Note_on_c, 8, 60, 92
10, 264874, Note_off_c, 8, 60, 64
10, 264960, Note_on_c, 8, 55, 92
10, 265064, Note_off_c, 8, 55, 64
10, 265200, Note_on_c, 8, 57, 92
10, 265234, Note_off_c, 8, 57, 64
10, 265320, Note_on_c, 8, 59, 92
10, 265360, Note_off_c, 8, 59, 64
10, 265440, Note_on_c, 8, 60, 93
10, 265560, Note_off_c, 8, 60, 64
10, 265680, Note_on_c, 8, 62, 93
10, 265714, Note_off_c, 8, 62, 64
10, 265800, Note_on_c, 8, 60, 93
10, 265844, Note_off_c, 8, 60, 64
10, 265920, Note_on_c, 8, 59, 93
10, 266020, Note_off_c, 8, 59, 64
10, 266160, Note_on_c, 8, 60, 93
10, 266194, Note_off_c, 8, 60, 64
10, 266280, Note_on_c, 8, 62, 93
10, 266314, Note_off_c, 8, 62, 64
10, 266400, Note_on_c, 8, 64, 94
10, 266520, Note_off_c, 8, 64, 64
10, 266640, Note_on_c, 8, 62, 94
10, 266684, Note_off_c, 8, 62, 64
10, 266760, Note_on_c, 8, 64, 94
10, 266794, Note_off_c, 8, 64, 64
10, 266880, Note_on_c, 8, 65, 94
10, 266974, Note_off_c, 8, 65, 64
10, 267120, Note_on_c, 8, 67, 94
10, 267160, Note_off_c, 8, 67, 64
10, 267240, Note_on_c, 8, 69, 94
10, 267274, Note_off_c, 8, 69, 64
10, 267360, Note_on_c, 8, 67, 90
10, 267480, Note_off_c, 8, 67, 64
10, 267600, Note_on_c, 8, 69, 90
10, 267640, Note_off_c, 8, 69, 64
10, 267720, Note_on_c, 8, 66, 91
10, 267760, Note_off_c, 8, 66, 64
10, 267840, Note_on_c, 8, 67, 91
10, 267940, Note_off_c, 8, 67, 64
10, 268080, Note_on_c, 8, 55, 92
10, 268174, Note_off_c, 8, 55, 64
10, 268320, Note_on_c, 8, 60, 93
10, 268444, Note_off_c, 8, 60, 64
10, 268560, Note_on_c, 8, 62, 93
10, 268600, Note_off_c, 8, 62, 64
10, 268680, Note_on_c, 8, 60, 94
10, 268714, Note_off_c, 8, 60, 64
10, 268800, Note_on_c, 8, 55, 94
10, 268904, Note_off_c, 8, 55, 64
10, 269040, Note_on_c, 8, 57, 95
10, 269074, Note_off_c, 8, 57, 64
10, 269160, Note_on_c, 8, 59, 95
10, 269200, Note_off_c, 8, 59, 64
10, 269280, Note_on_c, 8, 60, 96
10, 269400, Note_off_c, 8, 60, 64
10, 269520, Note_on_c, 8, 62, 97
10, 269554, Note_off_c, 8, 62, 64
10, 269640, Note_on_c, 8, 60, 97
10, 269684, Note_off_c, 8, 60, 64
10, 269760, Note_on_c, 8, 59, 97
10, 269860, Note_off_c, 8, 59, 64
10, 270000, Note_on_c, 8, 60, 98
10, 270034, Note_off_c, 8, 60, 64
10, 270120, Note_on_c, 8, 62, 99
10, 270154, Note_off_c, 8, 62, 64
10, 270240, Note_on_c, 8, 64, 99
10, 270370, Note_off_c, 8, 64, 64
10, 270480, Note_on_c, 8, 65, 100
10, 270520, Note_off_c, 8, 65, 64
10, 270600, Note_on_c, 8, 64, 100
10, 270634, Note_off_c, 8, 64, 64
10, 270720, Note_on_c, 8, 62, 101
10, 270820, Note_off_c, 8, 62, 64
10, 270960, Note_on_c, 8, 64, 101
10, 271004, Note_off_c, 8, 64, 64
10, 271080, Note_on_c, 8, 65, 102
10, 271120, Note_off_c, 8, 65, 64
10, 271200, Note_on_c, 8, 67, 102
10, 271320, Note_off_c, 8, 67, 64
10, 271440, Note_on_c, 8, 69, 103
10, 271484, Note_off_c, 8, 69, 64
10, 271560, Note_on_c, 8, 65, 103
10, 271604, Note_off_c, 8, 65, 64
10, 271680, Note_on_c, 8, 67, 104
10, 271780, Note_off_c, 8, 67, 64
10, 271920, Note_on_c, 8, 69, 104
10, 271960, Note_off_c, 8, 69, 64
10, 272040, Note_on_c, 8, 71, 105
10, 272074, Note_off_c, 8, 71, 64
10, 272160, Note_on_c, 8, 72, 105
10, 272320, Note_off_c, 8, 72, 64
10, 272400, Note_on_c, 8, 74, 106
10, 272480, Note_off_c, 8, 74, 64
10, 272520, Note_on_c, 8, 71, 106
10, 272600, Note_off_c, 8, 71, 64
10, 272640, Note_on_c, 8, 72, 107
10, 272800, Note_off_c, 8, 72, 64
10, 272880, Note_on_c, 8, 74, 108
10, 272960, Note_off_c, 8, 74, 64
10, 273000, Note_on_c, 8, 71, 108
10, 273080, Note_off_c, 8, 71, 64
10, 273120, Note_on_c, 8, 72, 108
10, 273280, Note_off_c, 8, 72, 64
10, 273360, Note_on_c, 8, 74, 109
10, 273440, Note_off_c, 8, 74, 64
10, 273480, Note_on_c, 8, 71, 110
10, 273560, Note_off_c, 8, 71, 64
10, 273600, Note_on_c, 8, 72, 110
10, 273760, Note_off_c, 8, 72, 64
10, 273840, Note_on_c, 8, 74, 111
10, 273920, Note_off_c, 8, 74, 64
10, 273960, Note_on_c, 8, 71, 111
10, 274040, Note_off_c, 8, 71, 64
10, 274080, Note_on_c, 8, 72, 112
10, 274080, Note_on_c, 8, 64, 112
10, 274080, Note_on_c, 8, 55, 112
10, 274080, Note_on_c, 8, 48, 112
10, 274400, Note_off_c, 8, 48, 64
10, 274400, Note_off_c, 8, 55, 64
10, 274400, Note_off_c, 8, 64, 64
10, 274400, Note_off_c, 8, 72, 64
10, 275040, Note_on_c, 8, 60, 49
10, 275040, Note_on_c, 8, 48, 50
10, 275360, Note_off_c, 8, 48, 64
10, 275360, Note_off_c, 8, 60, 64
10, 276960, Control_c, 8, 93, 12
10, 276960, Control_c, 8, 91, 52
10, 276960, Control_c, 8, 10, 64
10, 276960, Control_c, 8, 7, 111
10, 276960, Control_c, 8, 0, 0
10, 276960, Control_c, 8, 32, 0
10, 276960, Program_c, 8, 48
10, 276960, Control_c, 8, 93, 12
10, 276960, Control_c, 8, 91, 52
10, 276960, Control_c, 8, 10, 64
10, 276960, Control_c, 8, 7, 111
10, 276960, Control_c, 8, 0, 0
10, 276960, Control_c, 8, 32, 0
10, 276960, Program_c, 8, 48
10, 277920, Note_on_c, 8, 60, 32
10, 278020, Note_off_c, 8, 60, 64
10, 278400, Note_on_c, 8, 65, 32
10, 278500, Note_off_c, 8, 65, 64
10, 278880, Note_on_c, 8, 60, 32
10, 278990, Note_off_c, 8, 60, 64
10, 279360, Note_on_c, 8, 62, 32
10, 279454, Note_off_c, 8, 62, 64
10, 279840, Note_on_c, 8, 60, 32
10, 279940, Note_off_c, 8, 60, 64
10, 280320, Note_on_c, 8, 57, 32
10, 280424, Note_off_c, 8, 57, 64
10, 280800, Note_on_c, 8, 58, 32
10, 280904, Note_off_c, 8, 58, 64
10, 281280, Note_on_c, 8, 57, 32
10, 281380, Note_off_c, 8, 57, 64
10, 281760, Note_on_c, 8, 53, 32
10, 281860, Note_off_c, 8, 53, 64
10, 282240, Note_on_c, 8, 55, 32
10, 282340, Note_off_c, 8, 55, 64
10, 282720, Note_on_c, 8, 57, 32
10, 282820, Note_off_c, 8, 57, 64
10, 283200, Note_on_c, 8, 65, 32
10, 283300, Note_off_c, 8, 65, 64
10, 283680, Note_on_c, 8, 67, 32
10, 283774, Note_off_c, 8, 67, 64
10, 284160, Note_on_c, 8, 69, 32
10, 284264, Note_off_c, 8, 69, 64
10, 284640, Note_on_c, 8, 65, 32
10, 284734, Note_off_c, 8, 65, 64
10, 285120, Note_on_c, 8, 67, 32
10, 285220, Note_off_c, 8, 67, 64
10, 285600, Note_on_c, 8, 65, 32
10, 285684, Note_off_c, 8, 65, 64
10, 286080, Note_on_c, 8, 62, 32
10, 286174, Note_off_c, 8, 62, 64
10, 286560, Note_on_c, 8, 64, 32
10, 286660, Note_off_c, 8, 64, 64
10, 287040, Note_on_c, 8, 62, 32
10, 287134, Note_off_c, 8, 62, 64
10, 287520, Note_on_c, 8, 57, 32
10, 287630, Note_off_c, 8, 57, 64
10, 288000, Note_on_c, 8, 57, 32
10, 288110, Note_off_c, 8, 57, 64
10, 288480, Note_on_c, 8, 57, 32
10, 288580, Note_off_c, 8, 57, 64
10, 289440, Note_on_c, 8, 57, 32
10, 289550, Note_off_c, 8, 57, 64
10, 289920, Note_on_c, 8, 50, 32
10, 290804, Note_off_c, 8, 50, 64
10, 290880, Note_on_c, 8, 54, 36
10, 291200, Note_off_c, 8, 54, 64
10, 291360, Note_on_c, 8, 57, 38
10, 291830, Note_off_c, 8, 57, 64
10, 291840, Note_on_c, 8, 54, 40
10, 292300, Note_off_c, 8, 54, 64
10, 292320, Note_on_c, 8, 54, 42
10, 292640, Note_off_c, 8, 54, 64
10, 292800, Note_on_c, 8, 57, 44
10, 293264, Note_off_c, 8, 57, 64
10, 293280, Note_on_c, 8, 61, 46
10, 293700, Note_off_c, 8, 61, 64
10, 293760, Note_on_c, 8, 62, 48
10, 293970, Note_off_c, 8, 62, 64
10, 294000, Note_on_c, 8, 59, 48
10, 294214, Note_off_c, 8, 59, 64
10, 294240, Note_on_c, 8, 57, 48
10, 295080, Note_off_c, 8, 57, 64
10, 295200, Note_on_c, 8, 61, 48
10, 295200, Note_on_c, 8, 52, 48
10, 295574, Note_off_c, 8, 61, 64
10, 295650, Note_off_c, 8, 52, 64
10, 295680, Note_on_c, 8, 62, 48
10, 295680, Note_on_c, 8, 54, 48
10, 296130, Note_off_c, 8, 62, 64
10, 296160, Note_on_c, 8, 57, 48
10, 296580, Note_off_c, 8, 54, 64
10, 296614, Note_off_c, 8, 57, 64
10, 296640, Note_on_c, 8, 59, 48
10, 296640, Note_on_c, 8, 55, 48
10, 297090, Note_off_c, 8, 55, 64
10, 297104, Note_off_c, 8, 59, 64
10, 297120, Note_on_c, 8, 57, 48
10, 297120, Note_on_c, 8, 54, 48
10, 297570, Note_off_c, 8, 54, 64
10, 297570, Note_off_c, 8, 57, 64
10, 297600, Note_on_c, 8, 57, 48
10, 297600, Note_on_c, 8, 69, 48
10, 298014, Note_off_c, 8, 57, 64
10, 298020, Note_off_c, 8, 69, 64
10, 298080, Note_on_c, 8, 59, 48
10, 298080, Note_on_c, 8, 71, 48
10, 298500, Note_off_c, 8, 71, 64
10, 298514, Note_off_c, 8, 59, 64
10, 298560, Note_on_c, 8, 57, 48
10, 298560, Note_on_c, 8, 69, 48
10, 298974, Note_off_c, 8, 69, 64
10, 298990, Note_off_c, 8, 57, 64
10, 299040, Note_on_c, 8, 54, 47
10, 299040, Note_on_c, 8, 66, 47
10, 299464, Note_off_c, 8, 66, 64
10, 299464, Note_off_c, 8, 54, 64
10, 299520, Note_on_c, 8, 55, 46
10, 299520, Note_on_c, 8, 67, 46
10, 299940, Note_off_c, 8, 55, 64
10, 299944, Note_off_c, 8, 67, 64
10, 300000, Note_on_c, 8, 54, 44
10, 300000, Note_on_c, 8, 66, 44
10, 300404, Note_off_c, 8, 54, 64
10, 300420, Note_off_c, 8, 66, 64
10, 300960, Note_on_c, 8, 60, 32
10, 301060, Note_off_c, 8, 60, 64
10, 301440, Note_on_c, 8, 65, 32
10, 301540, Note_off_c, 8, 65, 64
10, 301920, Note_on_c, 8, 60, 32
10, 302030, Note_off_c, 8, 60, 64
10, 302400, Note_on_c, 8, 62, 32
10, 302494, Note_off_c, 8, 62, 64
10, 302880, Note_on_c, 8, 60, 32
10, 302980, Note_off_c, 8, 60, 64
10, 303360, Note_on_c, 8, 57, 32
10, 303464, Note_off_c, 8, 57, 64
10, 303840, Note_on_c, 8, 58, 32
10, 303944, Note_off_c, 8, 58, 64
10, 304320, Note_on_c, 8, 57, 32
10, 304420, Note_off_c, 8, 57, 64
10, 304800, Note_on_c, 8, 53, 32
10, 304900, Note_off_c, 8, 53, 64
10, 305280, Note_on_c, 8, 55, 32
10, 305380, Note_off_c, 8, 55, 64
10, 305760, Note_on_c, 8, 57, 32
10, 305860, Note_off_c, 8, 57, 64
10, 306240, Note_on_c, 8, 65, 32
10, 306340, Note_off_c, 8, 65, 64
10, 306720, Note_on_c, 8, 67, 32
10, 306814, Note_off_c, 8, 67, 64
10, 307200, Note_on_c, 8, 69, 32
10, 307304, Note_off_c, 8, 69, 64
10, 307680, Note_on_c, 8, 65, 32
10, 307774, Note_off_c, 8, 65, 64
10, 308160, Note_on_c, 8, 67, 32
10, 308260, Note_off_c, 8, 67, 64
10, 308640, Note_on_c, 8, 65, 32
10, 308724, Note_off_c, 8, 65, 64
10, 309120, Note_on_c, 8, 62, 32
10, 309214, Note_off_c, 8, 62, 64
10, 309600, Note_on_c, 8, 64, 32
10, 309700, Note_off_c, 8, 64, 64
10, 310080, Note_on_c, 8, 62, 32
10, 310174, Note_off_c, 8, 62, 64
10, 310560, Note_on_c, 8, 57, 32
10, 310670, Note_off_c, 8, 57, 64
10, 311040, Note_on_c, 8, 57, 32
10, 311150, Note_off_c, 8, 57, 64
10, 311520, Note_on_c, 8, 57, 32
10, 311620, Note_off_c, 8, 57, 64
10, 312480, Note_on_c, 8, 57, 32
10, 312590, Note_off_c, 8, 57, 64
10, 312960, Note_on_c, 8, 50, 32
10, 313844, Note_off_c, 8, 50, 64
10, 313920, Note_on_c, 8, 54, 36
10, 314240, Note_off_c, 8, 54, 64
10, 314400, Note_on_c, 8, 57, 38
10, 314870, Note_off_c, 8, 57, 64
10, 314880, Note_on_c, 8, 54, 40
10, 315340, Note_off_c, 8, 54, 64
10, 315360, Note_on_c, 8, 54, 42
10, 315680, Note_off_c, 8, 54, 64
10, 315840, Note_on_c, 8, 57, 44
10, 316304, Note_off_c, 8, 57, 64
10, 316320, Note_on_c, 8, 61, 46
10, 316740, Note_off_c, 8, 61, 64
10, 316800, Note_on_c, 8, 62, 48
10, 317010, Note_off_c, 8, 62, 64
10, 317040, Note_on_c, 8, 59, 48
10, 317254, Note_off_c, 8, 59, 64
10, 317280, Note_on_c, 8, 57, 48
10, 318120, Note_off_c, 8, 57, 64
10, 318240, Note_on_c, 8, 61, 48
10, 318240, Note_on_c, 8, 52, 48
10, 318614, Note_off_c, 8, 61, 64
10, 318690, Note_off_c, 8, 52, 64
10, 318720, Note_on_c, 8, 62, 48
10, 318720, Note_on_c, 8, 54, 48
10, 319170, Note_off_c, 8, 62, 64
10, 319200, Note_on_c, 8, 57, 48
10, 319620, Note_off_c, 8, 54, 64
10, 319654, Note_off_c, 8, 57, 64
10, 319680, Note_on_c, 8, 59, 48
10, 319680, Note_on_c, 8, 55, 48
10, 320130, Note_off_c, 8, 55, 64
10, 320144, Note_off_c, 8, 59, 64
10, 320160, Note_on_c, 8, 57, 48
10, 320160, Note_on_c, 8, 54, 48
10, 320610, Note_off_c, 8, 54, 64
10, 320610, Note_off_c, 8, 57, 64
10, 320640, Note_on_c, 8, 57, 48
10, 320640, Note_on_c, 8, 69, 48
10, 321054, Note_off_c, 8, 57, 64
10, 321060, Note_off_c, 8, 69, 64
10, 321120, Note_on_c, 8, 59, 48
10, 321120, Note_on_c, 8, 71, 48
10, 321540, Note_off_c, 8, 71, 64
10, 321554, Note_off_c, 8, 59, 64
10, 321600, Note_on_c, 8, 57, 48
10, 321600, Note_on_c, 8, 69, 48
10, 322014, Note_off_c, 8, 69, 64
10, 322030, Note_off_c, 8, 57, 64
10, 322080, Note_on_c, 8, 54, 47
10, 322080, Note_on_c, 8, 66, 47
10, 322504, Note_off_c, 8, 66, 64
10, 322504, Note_off_c, 8, 54, 64
10, 322560, Note_on_c, 8, 55, 46
10, 322560, Note_on_c, 8, 67, 46
10, 322980, Note_off_c, 8, 55, 64
10, 322984, Note_off_c, 8, 67, 64
10, 323040, Note_on_c, 8, 54, 44
10, 323040, Note_on_c, 8, 66, 44
10, 323444, Note_off_c, 8, 54, 64
10, 323460, Note_off_c, 8, 66, 64
10, 329760, Note_on_c, 8, 62, 32
10, 329920, Note_off_c, 8, 62, 64
10, 330240, Note_on_c, 8, 67, 32
10, 330400, Note_off_c, 8, 67, 64
10, 330720, Note_on_c, 8, 62, 32
10, 330880, Note_off_c, 8, 62, 64
10, 331200, Note_on_c, 8, 64, 32
10, 331360, Note_off_c, 8, 64, 64
10, 331680, Note_on_c, 8, 62, 32
10, 331840, Note_off_c, 8, 62, 64
10, 332160, Note_on_c, 8, 59, 32
10, 332320, Note_off_c, 8, 59, 64
10, 332640, Note_on_c, 8, 60, 32
10, 332800, Note_off_c, 8, 60, 64
10, 333120, Note_on_c, 8, 59, 32
10, 333280, Note_off_c, 8, 59, 64
10, 333600, Note_on_c, 8, 55, 32
10, 333760, Note_off_c, 8, 55, 64
10, 334080, Note_on_c, 8, 57, 32
10, 334240, Note_off_c, 8, 57, 64
10, 334560, Note_on_c, 8, 59, 32
10, 334720, Note_off_c, 8, 59, 64
10, 335040, Note_on_c, 8, 55, 32
10, 335200, Note_off_c, 8, 55, 64
10, 335520, Note_on_c, 8, 55, 32
10, 335680, Note_off_c, 8, 55, 64
10, 336000, Note_on_c, 8, 48, 32
10, 336640, Note_off_c, 8, 48, 64
10, 336960, Note_on_c, 8, 52, 39
10, 337280, Note_off_c, 8, 52, 64
10, 337440, Note_on_c, 8, 55, 42
10, 337760, Note_off_c, 8, 55, 64
10, 337920, Note_on_c, 8, 52, 46
10, 338240, Note_off_c, 8, 52, 64
10, 338400, Note_on_c, 8, 52, 49
10, 338720, Note_off_c, 8, 52, 64
10, 338880, Note_on_c, 8, 55, 53
10, 339200, Note_off_c, 8, 55, 64
10, 339360, Note_on_c, 8, 59, 56
10, 339680, Note_off_c, 8, 59, 64
10, 339840, Note_on_c, 8, 60, 60
10, 340000, Note_off_c, 8, 60, 64
10, 340080, Note_on_c, 8, 57, 62
10, 340240, Note_off_c, 8, 57, 64
10, 340320, Note_on_c, 8, 55, 64
10, 340960, Note_off_c, 8, 55, 64
10, 341280, Note_on_c, 8, 62, 64
10, 341600, Note_off_c, 8, 62, 64
10, 341760, Note_on_c, 8, 64, 64
10, 342400, Note_off_c, 8, 64, 64
10, 342720, Note_on_c, 8, 65, 64
10, 343040, Note_off_c, 8, 65, 64
10, 343200, Note_on_c, 8, 64, 64
10, 343520, Note_off_c, 8, 64, 64
10, 343680, Note_on_c, 8, 60, 64
10, 344000, Note_off_c, 8, 60, 64
10, 344160, Note_on_c, 8, 60, 64
10, 344480, Note_off_c, 8, 60, 64
10, 344640, Note_on_c, 8, 60, 64
10, 344960, Note_off_c, 8, 60, 64
10, 345120, Note_on_c, 8, 52, 64
10, 345440, Note_off_c, 8, 52, 64
10, 345600, Note_on_c, 8, 53, 64
10, 345920, Note_off_c, 8, 53, 64
10, 346080, Note_on_c, 8, 52, 64
10, 346400, Note_off_c, 8, 52, 64
10, 347040, Note_on_c, 8, 48, 44
10, 347130, Note_off_c, 8, 48, 64
10, 347520, Note_on_c, 8, 60, 50
10, 347840, Note_off_c, 8, 60, 64
10, 348000, Note_on_c, 8, 57, 53
10, 348320, Note_off_c, 8, 57, 64
10, 348480, Note_on_c, 8, 58, 57
10, 348800, Note_off_c, 8, 58, 64
10, 348960, Note_on_c, 8, 57, 61
10, 349280, Note_off_c, 8, 57, 64
10, 349440, Note_on_c, 8, 53, 65
10, 349760, Note_off_c, 8, 53, 64
10, 349920, Note_on_c, 8, 55, 69
10, 350240, Note_off_c, 8, 55, 64
10, 350400, Note_on_c, 8, 53, 73
10, 350720, Note_off_c, 8, 53, 64
10, 350880, Note_on_c, 8, 48, 76
10, 351200, Note_off_c, 8, 48, 64
10, 351360, Note_on_c, 8, 55, 80
10, 351680, Note_off_c, 8, 55, 64
10, 351840, Note_on_c, 8, 57, 84
10, 352160, Note_off_c, 8, 57, 64
10, 352320, Note_on_c, 8, 53, 88
10, 352640, Note_off_c, 8, 53, 64
10, 352800, Note_on_c, 8, 60, 92
10, 353120, Note_off_c, 8, 60, 64
10, 353280, Note_on_c, 8, 65, 96
10, 353600, Note_off_c, 8, 65, 64
10, 353760, Note_on_c, 8, 60, 96
10, 354080, Note_off_c, 8, 60, 64
10, 354240, Note_on_c, 8, 62, 96
10, 354560, Note_off_c, 8, 62, 64
10, 354720, Note_on_c, 8, 60, 96
10, 355040, Note_off_c, 8, 60, 64
10, 355200, Note_on_c, 8, 57, 96
10, 355520, Note_off_c, 8, 57, 64
10, 355680, Note_on_c, 8, 58, 96
10, 356000, Note_off_c, 8, 58, 64
10, 356160, Note_on_c, 8, 57, 126
10, 356480, Note_off_c, 8, 57, 64
10, 356640, Note_on_c, 8, 53, 96
10, 356960, Note_off_c, 8, 53, 64
10, 357120, Note_on_c, 8, 55, 96
10, 357440, Note_off_c, 8, 55, 64
10, 357600, Note_on_c, 8, 57, 126
10, 357920, Note_off_c, 8, 57, 64
10, 358080, Note_on_c, 8, 53, 96
10, 358400, Note_off_c, 8, 53, 64
10, 358560, Note_on_c, 8, 55, 96
10, 358880, Note_off_c, 8, 55, 64
10, 359040, Note_on_c, 8, 57, 125
10, 359360, Note_off_c, 8, 57, 64
10, 359520, Note_on_c, 8, 53, 96
10, 359840, Note_off_c, 8, 53, 64
10, 360000, Note_on_c, 8, 55, 96
10, 360320, Note_off_c, 8, 55, 64
10, 360480, Note_on_c, 8, 57, 125
10, 360800, Note_off_c, 8, 57, 64
10, 360960, Note_on_c, 8, 53, 96
10, 361280, Note_off_c, 8, 53, 64
10, 361440, Note_on_c, 8, 55, 96
10, 361760, Note_off_c, 8, 55, 64
10, 361920, Note_on_c, 8, 57, 122
10, 362880, Note_off_c, 8, 57, 64
10, 363360, Note_on_c, 8, 55, 96
10, 364000, Note_off_c, 8, 55, 64
10, 364320, Note_on_c, 8, 53, 96
10, 364640, Note_off_c, 8, 53, 64
10, 364800, Note_on_c, 8, 52, 96
10, 365440, Note_off_c, 8, 52, 64
10, 365760, Note_on_c, 8, 50, 96
10, 366080, Note_off_c, 8, 50, 64
10, 366240, Note_on_c, 8, 48, 96
10, 366880, Note_off_c, 8, 48, 64
10, 367200, Note_on_c, 8, 55, 96
10, 367520, Note_off_c, 8, 55, 64
10, 367680, Note_on_c, 8, 60, 96
10, 368640, Note_off_c, 8, 60, 64
10, 369120, Note_on_c, 8, 62, 96
10, 370080, Note_off_c, 8, 62, 64
10, 370560, Note_on_c, 8, 60, 96
10, 371520, Note_off_c, 8, 60, 64
10, 372000, Note_on_c, 8, 48, 96
10, 372960, Note_off_c, 8, 48, 64
10, 373440, Note_on_c, 8, 53, 96
10, 373760, Note_off_c, 8, 53, 64
10, 374400, Note_on_c, 8, 69, 96
10, 374720, Note_off_c, 8, 69, 64
10, 374880, Note_on_c, 8, 67, 96
10, 375520, Note_off_c, 8, 67, 64
10, 375840, Note_on_c, 8, 65, 96
10, 376160, Note_off_c, 8, 65, 64
10, 376320, Note_on_c, 8, 64, 96
10, 376960, Note_off_c, 8, 64, 64
10, 377280, Note_on_c, 8, 62, 96
10, 377600, Note_off_c, 8, 62, 64
10, 377760, Note_on_c, 8, 60, 96
10, 378400, Note_off_c, 8, 60, 64
10, 378720, Note_on_c, 8, 67, 96
10, 379040, Note_off_c, 8, 67, 64
10, 379200, Note_on_c, 8, 60, 96
10, 380364, Note_off_c, 8, 60, 64
10, 380640, Note_on_c, 8, 62, 96
10, 381754, Note_off_c, 8, 62, 64
10, 382080, Note_on_c, 8, 69, 96
10, 383250, Note_off_c, 8, 69, 64
10, 383520, Note_on_c, 8, 60, 96
10, 383520, Note_on_c, 8, 48, 96
10, 384640, Note_off_c, 8, 48, 64
10, 384680, Note_off_c, 8, 60, 64
10, 384960, Note_on_c, 8, 53, 96
10, 385120, Note_off_c, 8, 53, 64
10, 385200, Note_on_c, 8, 57, 96
10, 385360, Note_off_c, 8, 57, 64
10, 385440, Note_on_c, 8, 60, 96
10, 385600, Note_off_c, 8, 60, 64
10, 385680, Note_on_c, 8, 65, 96
10, 385840, Note_off_c, 8, 65, 64
10, 385920, Note_on_c, 8, 69, 96
10, 386240, Note_off_c, 8, 69, 64
10, 389280, Note_on_c, 8, 60, 96
10, 389600, Note_off_c, 8, 60, 64
10, 389760, Note_on_c, 8, 60, 96
10, 390080, Note_off_c, 8, 60, 64
10, 390240, Note_on_c, 8, 60, 96
10, 390560, Note_off_c, 8, 60, 64
10, 390720, Note_on_c, 8, 53, 96
10, 390880, Note_off_c, 8, 53, 64
10, 390960, Note_on_c, 8, 57, 96
10, 391120, Note_off_c, 8, 57, 64
10, 391200, Note_on_c, 8, 60, 96
10, 391360, Note_off_c, 8, 60, 64
10, 391440, Note_on_c, 8, 65, 96
10, 391600, Note_off_c, 8, 65, 64
10, 391680, Note_on_c, 8, 69, 96
10, 392000, Note_off_c, 8, 69, 64
10, 395040, Note_on_c, 8, 60, 96
10, 395360, Note_off_c, 8, 60, 64
10, 395520, Note_on_c, 8, 60, 96
10, 395840, Note_off_c, 8, 60, 64
10, 396000, Note_on_c, 8, 60, 96
10, 396320, Note_off_c, 8, 60, 64
10, 396480, Note_on_c, 8, 53, 96
10, 396800, Note_off_c, 8, 53, 64
10, 399360, Note_on_c, 8, 53, 64
10, 399680, Note_off_c, 8, 53, 64
10, 459840, Note_on_c, 8, 60, 64
10, 460800, Note_off_c, 8, 60, 64
10, 461280, Note_on_c, 8, 55, 64
10, 462240, Note_off_c, 8, 55, 64
10, 462720, Note_on_c, 8, 48, 64
10, 463680, Note_off_c, 8, 48, 64
10, 467040, Note_on_c, 8, 60, 64
10, 467040, Note_on_c, 8, 55, 64
10, 467190, Note_off_c, 8, 55, 64
10, 467194, Note_off_c, 8, 60, 64
10, 467520, Note_on_c, 8, 55, 64
10, 467520, Note_on_c, 8, 52, 64
10, 467670, Note_off_c, 8, 52, 64
10, 467670, Note_off_c, 8, 55, 64
10, 468000, Note_on_c, 8, 55, 64
10, 468000, Note_on_c, 8, 52, 64
10, 468134, Note_off_c, 8, 55, 64
10, 468150, Note_off_c, 8, 52, 64
10, 468480, Note_on_c, 8, 60, 64
10, 468480, Note_on_c, 8, 57, 64
10, 468624, Note_off_c, 8, 60, 64
10, 468634, Note_off_c, 8, 57, 64
10, 468960, Note_on_c, 8, 57, 64
10, 468960, Note_on_c, 8, 53, 64
10, 469114, Note_off_c, 8, 57, 64
10, 469120, Note_off_c, 8, 53, 64
10, 469440, Note_on_c, 8, 57, 64
10, 469440, Note_on_c, 8, 53, 64
10, 469590, Note_off_c, 8, 53, 64
10, 469590, Note_off_c, 8, 57, 64
10, 469920, Note_on_c, 8, 60, 64
10, 469920, Note_on_c, 8, 57, 64
10, 470070, Note_off_c, 8, 60, 64
10, 470080, Note_off_c, 8, 57, 64
10, 470400, Note_on_c, 8, 57, 64
10, 470400, Note_on_c, 8, 53, 64
10, 470540, Note_off_c, 8, 57, 64
10, 470554, Note_off_c, 8, 53, 64
10, 470880, Note_on_c, 8, 57, 64
10, 470880, Note_on_c, 8, 53, 64
10, 471024, Note_off_c, 8, 53, 64
10, 471024, Note_off_c, 8, 57, 64
10, 471360, Note_on_c, 8, 60, 64
10, 471360, Note_on_c, 8, 58, 64
10, 471510, Note_off_c, 8, 58, 64
10, 471510, Note_off_c, 8, 60, 64
10, 471840, Note_on_c, 8, 58, 64
10, 471840, Note_on_c, 8, 53, 64
10, 471984, Note_off_c, 8, 58, 64
10, 471990, Note_off_c, 8, 53, 64
10, 472320, Note_on_c, 8, 58, 64
10, 472320, Note_on_c, 8, 53, 64
10, 472460, Note_off_c, 8, 53, 64
10, 472464, Note_off_c, 8, 58, 64
10, 472800, Note_on_c, 8, 60, 64
10, 472800, Note_on_c, 8, 58, 64
10, 472954, Note_off_c, 8, 60, 64
10, 472964, Note_off_c, 8, 58, 64
10, 473280, Note_on_c, 8, 58, 64
10, 473280, Note_on_c, 8, 53, 64
10, 473414, Note_off_c, 8, 58, 64
10, 473434, Note_off_c, 8, 53, 64
10, 473760, Note_on_c, 8, 58, 64
10, 473760, Note_on_c, 8, 53, 64
10, 473900, Note_off_c, 8, 53, 64
10, 473914, Note_off_c, 8, 58, 64
10, 474240, Note_on_c, 8, 60, 64
10, 474240, Note_on_c, 8, 57, 64
10, 474390, Note_off_c, 8, 57, 64
10, 474394, Note_off_c, 8, 60, 64
10, 474720, Note_on_c, 8, 57, 64
10, 474720, Note_on_c, 8, 53, 64
10, 474870, Note_off_c, 8, 53, 64
10, 474870, Note_off_c, 8, 57, 64
10, 475200, Note_on_c, 8, 57, 64
10, 475200, Note_on_c, 8, 53, 64
10, 475350, Note_off_c, 8, 53, 64
10, 475354, Note_off_c, 8, 57, 64
10, 475680, Note_on_c, 8, 60, 64
10, 475680, Note_on_c, 8, 55, 64
10, 475820, Note_off_c, 8, 60, 64
10, 475834, Note_off_c, 8, 55, 64
10, 476160, Note_on_c, 8, 55, 64
10, 476160, Note_on_c, 8, 52, 64
10, 476300, Note_off_c, 8, 55, 64
10, 476310, Note_off_c, 8, 52, 64
10, 476640, Note_on_c, 8, 55, 64
10, 476640, Note_on_c, 8, 52, 64
10, 476790, Note_off_c, 8, 52, 64
10, 476794, Note_off_c, 8, 55, 64
10, 477120, Note_on_c, 8, 60, 64
10, 477120, Note_on_c, 8, 57, 64
10, 477270, Note_off_c, 8, 57, 64
10, 477274, Note_off_c, 8, 60, 64
10, 477600, Note_on_c, 8, 57, 64
10, 477600, Note_on_c, 8, 53, 64
10, 477750, Note_off_c, 8, 53, 64
10, 477750, Note_off_c, 8, 57, 64
10, 478080, Note_on_c, 8, 57, 64
10, 478080, Note_on_c, 8, 53, 64
10, 478230, Note_off_c, 8, 53, 64
10, 478234, Note_off_c, 8, 57, 64
10, 478560, Note_on_c, 8, 60, 64
10, 478560, Note_on_c, 8, 57, 64
10, 478710, Note_off_c, 8, 57, 64
10, 478714, Note_off_c, 8, 60, 64
10, 479040, Note_on_c, 8, 57, 64
10, 479040, Note_on_c, 8, 53, 64
10, 479190, Note_off_c, 8, 53, 64
10, 479190, Note_off_c, 8, 57, 64
10, 479520, Note_on_c, 8, 57, 64
10, 479520, Note_on_c, 8, 53, 64
10, 479670, Note_off_c, 8, 53, 64
10, 479674, Note_off_c, 8, 57, 64
10, 480000, Note_on_c, 8, 60, 64
10, 480000, Note_on_c, 8, 57, 64
10, 480150, Note_off_c, 8, 57, 64
10, 480154, Note_off_c, 8, 60, 64
10, 480480, Note_on_c, 8, 57, 64
10, 480480, Note_on_c, 8, 53, 64
10, 480630, Note_off_c, 8, 53, 64
10, 480630, Note_off_c, 8, 57, 64
10, 480960, Note_on_c, 8, 57, 64
10, 480960, Note_on_c, 8, 53, 64
10, 481110, Note_off_c, 8, 53, 64
10, 481114, Note_off_c, 8, 57, 64
10, 481440, Note_on_c, 8, 60, 64
10, 481440, Note_on_c, 8, 57, 64
10, 481590, Note_off_c, 8, 57, 64
10, 481594, Note_off_c, 8, 60, 64
10, 481920, Note_on_c, 8, 57, 64
10, 481920, Note_on_c, 8, 53, 64
10, 482070, Note_off_c, 8, 53, 64
10, 482070, Note_off_c, 8, 57, 64
10, 482400, Note_on_c, 8, 57, 64
10, 482400, Note_on_c, 8, 53, 64
10, 482550, Note_off_c, 8, 53, 64
10, 482554, Note_off_c, 8, 57, 64
10, 482880, Note_on_c, 8, 60, 64
10, 482880, Note_on_c, 8, 58, 64
10, 483034, Note_off_c, 8, 60, 64
10, 483044, Note_off_c, 8, 58, 64
10, 483360, Note_on_c, 8, 58, 64
10, 483360, Note_on_c, 8, 53, 64
10, 483494, Note_off_c, 8, 58, 64
10, 483514, Note_off_c, 8, 53, 64
10, 483840, Note_on_c, 8, 58, 64
10, 483840, Note_on_c, 8, 53, 64
10, 483980, Note_off_c, 8, 53, 64
10, 483994, Note_off_c, 8, 58, 64
10, 484320, Note_on_c, 8, 60, 64
10, 484320, Note_on_c, 8, 58, 64
10, 484474, Note_off_c, 8, 60, 64
10, 484484, Note_off_c, 8, 58, 64
10, 484800, Note_on_c, 8, 58, 64
10, 484800, Note_on_c, 8, 53, 64
10, 484934, Note_off_c, 8, 58, 64
10, 484954, Note_off_c, 8, 53, 64
10, 485280, Note_on_c, 8, 58, 64
10, 485280, Note_on_c, 8, 53, 64
10, 485420, Note_off_c, 8, 53, 64
10, 485434, Note_off_c, 8, 58, 64
10, 485760, Note_on_c, 8, 60, 64
10, 485760, Note_on_c, 8, 57, 64
10, 485910, Note_off_c, 8, 57, 64
10, 485914, Note_off_c, 8, 60, 64
10, 486240, Note_on_c, 8, 57, 64
10, 486240, Note_on_c, 8, 53, 64
10, 486390, Note_off_c, 8, 53, 64
10, 486390, Note_off_c, 8, 57, 64
10, 486720, Note_on_c, 8, 57, 64
10, 486720, Note_on_c, 8, 53, 64
10, 486870, Note_off_c, 8, 53, 64
10, 486874, Note_off_c, 8, 57, 64
10, 487200, Note_on_c, 8, 60, 64
10, 487200, Note_on_c, 8, 57, 64
10, 487350, Note_off_c, 8, 57, 64
10, 487354, Note_off_c, 8, 60, 64
10, 487680, Note_on_c, 8, 57, 64
10, 487680, Note_on_c, 8, 53, 64
10, 487830, Note_off_c, 8, 53, 64
10, 487830, Note_off_c, 8, 57, 64
10, 488160, Note_on_c, 8, 57, 64
10, 488160, Note_on_c, 8, 53, 64
10, 488310, Note_off_c, 8, 53, 64
10, 488314, Note_off_c, 8, 57, 64
10, 488640, Note_on_c, 8, 60, 64
10, 488640, Note_on_c, 8, 58, 64
10, 488800, Note_off_c, 8, 58, 64
10, 488800, Note_off_c, 8, 60, 64
10, 489120, Note_on_c, 8, 52, 64
10, 489120, Note_on_c, 8, 48, 64
10, 489280, Note_off_c, 8, 48, 64
10, 489280, Note_off_c, 8, 52, 64
10, 489600, Note_on_c, 8, 52, 64
10, 489600, Note_on_c, 8, 48, 64
10, 489760, Note_off_c, 8, 48, 64
10, 489760, Note_off_c, 8, 52, 64
10, 490080, Note_on_c, 8, 60, 64
10, 490080, Note_on_c, 8, 58, 64
10, 490240, Note_off_c, 8, 58, 64
10, 490240, Note_off_c, 8, 60, 64
10, 490560, Note_on_c, 8, 55, 64
10, 490560, Note_on_c, 8, 52, 64
10, 490720, Note_off_c, 8, 52, 64
10, 490720, Note_off_c, 8, 55, 64
10, 491040, Note_on_c, 8, 55, 64
10, 491040, Note_on_c, 8, 52, 64
10, 491200, Note_off_c, 8, 52, 64
10, 491200, Note_off_c, 8, 55, 64
10, 491520, Note_on_c, 8, 60, 64
10, 491520, Note_on_c, 8, 57, 64
10, 491670, Note_off_c, 8, 57, 64
10, 491674, Note_off_c, 8, 60, 64
10, 492000, Note_on_c, 8, 57, 64
10, 492000, Note_on_c, 8, 53, 64
10, 492150, Note_off_c, 8, 53, 64
10, 492150, Note_off_c, 8, 57, 64
10, 492480, Note_on_c, 8, 57, 64
10, 492480, Note_on_c, 8, 53, 64
10, 492630, Note_off_c, 8, 53, 64
10, 492634, Note_off_c, 8, 57, 64
10, 492960, Note_on_c, 8, 60, 64
10, 492960, Note_on_c, 8, 57, 64
10, 493110, Note_off_c, 8, 57, 64
10, 493114, Note_off_c, 8, 60, 64
10, 493440, Note_on_c, 8, 57, 64
10, 493440, Note_on_c, 8, 53, 64
10, 493590, Note_off_c, 8, 53, 64
10, 493590, Note_off_c, 8, 57, 64
10, 493920, Note_on_c, 8, 57, 64
10, 493920, Note_on_c, 8, 53, 64
10, 494070, Note_off_c, 8, 53, 64
10, 494074, Note_off_c, 8, 57, 64
10, 494400, Note_on_c, 8, 55, 64
10, 494400, Note_on_c, 8, 52, 64
10, 494560, Note_off_c, 8, 52, 64
10, 494560, Note_off_c, 8, 55, 64
10, 494880, Note_on_c, 8, 52, 64
10, 494880, Note_on_c, 8, 48, 64
10, 495040, Note_off_c, 8, 48, 64
10, 495040, Note_off_c, 8, 52, 64
10, 495360, Note_on_c, 8, 52, 64
10, 495360, Note_on_c, 8, 48, 64
10, 495520, Note_off_c, 8, 48, 64
10, 495520, Note_off_c, 8, 52, 64
10, 495840, Note_on_c, 8, 55, 64
10, 495840, Note_on_c, 8, 52, 64
10, 496000, Note_off_c, 8, 55, 64
10, 496320, Note_off_c, 8, 52, 64
10, 496320, Note_on_c, 8, 48, 64
10, 496320, Note_on_c, 8, 52, 64
10, 496368, Note_off_c, 8, 52, 64
10, 496480, Note_off_c, 8, 48, 64
10, 496800, Note_on_c, 8, 52, 64
10, 496800, Note_on_c, 8, 48, 64
10, 496960, Note_off_c, 8, 48, 64
10, 496960, Note_off_c, 8, 52, 64
10, 497280, Note_on_c, 8, 65, 64
10, 497920, Note_off_c, 8, 65, 64
10, 498240, Note_on_c, 8, 70, 66
10, 498560, Note_off_c, 8, 70, 64
10, 498720, Note_on_c, 8, 72, 67
10, 499134, Note_off_c, 8, 72, 64
10, 499200, Note_on_c, 8, 70, 68
10, 499610, Note_off_c, 8, 70, 64
10, 499680, Note_on_c, 8, 69, 69
10, 500104, Note_off_c, 8, 69, 64
10, 500160, Note_on_c, 8, 67, 70
10, 500864, Note_off_c, 8, 67, 64
10, 501120, Note_on_c, 8, 69, 72
10, 501440, Note_off_c, 8, 69, 64
10, 501600, Note_on_c, 8, 70, 73
10, 502010, Note_off_c, 8, 70, 64
10, 502080, Note_on_c, 8, 67, 74
10, 502494, Note_off_c, 8, 67, 64
10, 502560, Note_on_c, 8, 69, 75
10, 502994, Note_off_c, 8, 69, 64
10, 503040, Note_on_c, 8, 65, 76
10, 503790, Note_off_c, 8, 65, 64
10, 504000, Note_on_c, 8, 58, 78
10, 504320, Note_off_c, 8, 58, 64
10, 504480, Note_on_c, 8, 60, 79
10, 504800, Note_off_c, 8, 60, 64
10, 504960, Note_on_c, 8, 58, 80
10, 505280, Note_off_c, 8, 58, 64
10, 505440, Note_on_c, 8, 57, 81
10, 505760, Note_off_c, 8, 57, 64
10, 505920, Note_on_c, 8, 55, 82
10, 506560, Note_off_c, 8, 55, 64
10, 506880, Note_on_c, 8, 57, 84
10, 507200, Note_off_c, 8, 57, 64
10, 507360, Note_on_c, 8, 58, 85
10, 507680, Note_off_c, 8, 58, 64
10, 507840, Note_on_c, 8, 55, 86
10, 508160, Note_off_c, 8, 55, 64
10, 508320, Note_on_c, 8, 57, 87
10, 508640, Note_off_c, 8, 57, 64
10, 508800, Note_on_c, 8, 53, 98
10, 509120, Note_off_c, 8, 53, 64
10, 514560, Note_on_c, 8, 53, 64
10, 515200, Note_off_c, 8, 53, 64
10, 515520, Note_on_c, 8, 53, 64
10, 516160, Note_off_c, 8, 53, 64
10, 516480, Note_on_c, 8, 58, 64
10, 517120, Note_off_c, 8, 58, 64
10, 517440, Note_on_c, 8, 53, 64
10, 517914, Note_off_c, 8, 53, 64
10, 517920, Note_on_c, 8, 58, 64
10, 518154, Note_off_c, 8, 58, 64
10, 518400, Note_on_c, 8, 53, 64
10, 519040, Note_off_c, 8, 53, 64
10, 519360, Note_on_c, 8, 53, 64
10, 520000, Note_off_c, 8, 53, 64
10, 520320, Note_on_c, 8, 58, 64
10, 520960, Note_off_c, 8, 58, 64
10, 521280, Note_on_c, 8, 53, 64
10, 521754, Note_off_c, 8, 53, 64
10, 521760, Note_on_c, 8, 58, 64
10, 521994, Note_off_c, 8, 58, 64
10, 522240, Note_on_c, 8, 53, 64
10, 522880, Note_off_c, 8, 53, 64
10, 523200, Note_on_c, 8, 53, 64
10, 523840, Note_off_c, 8, 53, 64
10, 524160, Note_on_c, 8, 58, 64
10, 524800, Note_off_c, 8, 58, 64
10, 525120, Note_on_c, 8, 53, 64
10, 525594, Note_off_c, 8, 53, 64
10, 525600, Note_on_c, 8, 58, 64
10, 525834, Note_off_c, 8, 58, 64
10, 526080, Note_on_c, 8, 53, 64
10, 526720, Note_off_c, 8, 53, 64
10, 527040, Note_on_c, 8, 53, 64
10, 527680, Note_off_c, 8, 53, 64
10, 528000, Note_on_c, 8, 58, 64
10, 528640, Note_off_c, 8, 58, 64
10, 528960, Note_on_c, 8, 53, 64
10, 529434, Note_off_c, 8, 53, 64
10, 529440, Note_on_c, 8, 58, 64
10, 529674, Note_off_c, 8, 58, 64
10, 529920, Note_on_c, 8, 60, 72
10, 529990, Note_off_c, 8, 60, 64
10, 530160, Note_on_c, 8, 62, 64
10, 530200, Note_off_c, 8, 62, 64
10, 530280, Note_on_c, 8, 60, 64
10, 530324, Note_off_c, 8, 60, 64
10, 530400, Note_on_c, 8, 55, 66
10, 530454, Note_off_c, 8, 55, 64
10, 530640, Note_on_c, 8, 57, 64
10, 530680, Note_off_c, 8, 57, 64
10, 530760, Note_on_c, 8, 59, 64
10, 530800, Note_off_c, 8, 59, 64
10, 530880, Note_on_c, 8, 60, 74
10, 530920, Note_off_c, 8, 60, 64
10, 531120, Note_on_c, 8, 62, 64
10, 531150, Note_off_c, 8, 62, 64
10, 531240, Note_on_c, 8, 60, 64
10, 531280, Note_off_c, 8, 60, 64
10, 531360, Note_on_c, 8, 55, 64
10, 531610, Note_off_c, 8, 55, 64
10, 531840, Note_on_c, 8, 53, 72
10, 531890, Note_off_c, 8, 53, 64
10, 531960, Note_on_c, 8, 55, 64
10, 532004, Note_off_c, 8, 55, 64
10, 532080, Note_on_c, 8, 57, 64
10, 532130, Note_off_c, 8, 57, 64
10, 532200, Note_on_c, 8, 58, 64
10, 532280, Note_off_c, 8, 58, 64
10, 532320, Note_on_c, 8, 60, 64
10, 532390, Note_off_c, 8, 60, 64
10, 532560, Note_on_c, 8, 60, 64
10, 532580, Note_off_c, 8, 60, 64
10, 532620, Note_on_c, 8, 62, 64
10, 532634, Note_off_c, 8, 62, 64
10, 532800, Note_on_c, 8, 55, 64
10, 532850, Note_off_c, 8, 55, 64
10, 533040, Note_on_c, 8, 55, 64
10, 533080, Note_off_c, 8, 55, 64
10, 533110, Note_on_c, 8, 60, 64
10, 533144, Note_off_c, 8, 60, 64
10, 533280, Note_on_c, 8, 53, 64
10, 533600, Note_off_c, 8, 53, 64
10, 533760, Note_on_c, 8, 60, 72
10, 533830, Note_off_c, 8, 60, 64
10, 534000, Note_on_c, 8, 62, 64
10, 534040, Note_off_c, 8, 62, 64
10, 534120, Note_on_c, 8, 60, 64
10, 534164, Note_off_c, 8, 60, 64
10, 534240, Note_on_c, 8, 55, 66
10, 534294, Note_off_c, 8, 55, 64
10, 534480, Note_on_c, 8, 57, 64
10, 534520, Note_off_c, 8, 57, 64
10, 534600, Note_on_c, 8, 59, 64
10, 534640, Note_off_c, 8, 59, 64
10, 534720, Note_on_c, 8, 60, 74
10, 534760, Note_off_c, 8, 60, 64
10, 534960, Note_on_c, 8, 62, 64
10, 534990, Note_off_c, 8, 62, 64
10, 535080, Note_on_c, 8, 60, 64
10, 535120, Note_off_c, 8, 60, 64
10, 535200, Note_on_c, 8, 55, 64
10, 535450, Note_off_c, 8, 55, 64
10, 535680, Note_on_c, 8, 53, 72
10, 535730, Note_off_c, 8, 53, 64
10, 535800, Note_on_c, 8, 55, 64
10, 535844, Note_off_c, 8, 55, 64
10, 535920, Note_on_c, 8, 57, 64
10, 535970, Note_off_c, 8, 57, 64
10, 536040, Note_on_c, 8, 58, 64
10, 536120, Note_off_c, 8, 58, 64
10, 536160, Note_on_c, 8, 60, 64
10, 536230, Note_off_c, 8, 60, 64
10, 536400, Note_on_c, 8, 60, 64
10, 536420, Note_off_c, 8, 60, 64
10, 536460, Note_on_c, 8, 62, 64
10, 536474, Note_off_c, 8, 62, 64
10, 536640, Note_on_c, 8, 55, 64
10, 536690, Note_off_c, 8, 55, 64
10, 536880, Note_on_c, 8, 55, 64
10, 536920, Note_off_c, 8, 55, 64
10, 536950, Note_on_c, 8, 60, 64
10, 536984, Note_off_c, 8, 60, 64
10, 537120, Note_on_c, 8, 53, 64
10, 537440, Note_off_c, 8, 53, 64
10, 537600, Note_on_c, 8, 60, 88
10, 537724, Note_off_c, 8, 60, 64
10, 537840, Note_on_c, 8, 62, 88
10, 537880, Note_off_c, 8, 62, 64
10, 537960, Note_on_c, 8, 60, 88
10, 537994, Note_off_c, 8, 60, 64
10, 538080, Note_on_c, 8, 55, 88
10, 538184, Note_off_c, 8, 55, 64
10, 538320, Note_on_c, 8, 57, 88
10, 538354, Note_off_c, 8, 57, 64
10, 538440, Note_on_c, 8, 59, 88
10, 538480, Note_off_c, 8, 59, 64
10, 538560, Note_on_c, 8, 60, 89
10, 538680, Note_off_c, 8, 60, 64
10, 538800, Note_on_c, 8, 62, 89
10, 538834, Note_off_c, 8, 62, 64
10, 538920, Note_on_c, 8, 60, 89
10, 538964, Note_off_c, 8, 60, 64
10, 539040, Note_on_c, 8, 59, 89
10, 539140, Note_off_c, 8, 59, 64
10, 539280, Note_on_c, 8, 60, 89
10, 539314, Note_off_c, 8, 60, 64
10, 539400, Note_on_c, 8, 62, 89
10, 539434, Note_off_c, 8, 62, 64
10, 539520, Note_on_c, 8, 64, 90
10, 539640, Note_off_c, 8, 64, 64
10, 539760, Note_on_c, 8, 62, 90
10, 539804, Note_off_c, 8, 62, 64
10, 539880, Note_on_c, 8, 64, 90
10, 539914, Note_off_c, 8, 64, 64
10, 540000, Note_on_c, 8, 65, 90
10, 540094, Note_off_c, 8, 65, 64
10, 540240, Note_on_c, 8, 67, 90
10, 540280, Note_off_c, 8, 67, 64
10, 540360, Note_on_c, 8, 69, 90
10, 540394, Note_off_c, 8, 69, 64
10, 540480, Note_on_c, 8, 67, 91
10, 540600, Note_off_c, 8, 67, 64
10, 540720, Note_on_c, 8, 69, 91
10, 540760, Note_off_c, 8, 69, 64
10, 540840, Note_on_c, 8, 66, 91
10, 540880, Note_off_c, 8, 66, 64
10, 540960, Note_on_c, 8, 67, 91
10, 541060, Note_off_c, 8, 67, 64
10, 541200, Note_on_c, 8, 55, 91
10, 541294, Note_off_c, 8, 55, 64
10, 541440, Note_on_c, 8, 60, 92
10, 541564, Note_off_c, 8, 60, 64
10, 541680, Note_on_c, 8, 62, 92
10, 541720, Note_off_c, 8, 62, 64
10, 541800, Note_on_c, 8, 60, 92
10, 541834, Note_off_c, 8, 60, 64
10, 541920, Note_on_c, 8, 55, 92
10, 542024, Note_off_c, 8, 55, 64
10, 542160, Note_on_c, 8, 57, 92
10, 542194, Note_off_c, 8, 57, 64
10, 542280, Note_on_c, 8, 59, 92
10, 542320, Note_off_c, 8, 59, 64
10, 542400, Note_on_c, 8, 60, 93
10, 542520, Note_off_c, 8, 60, 64
10, 542640, Note_on_c, 8, 62, 93
10, 542674, Note_off_c, 8, 62, 64
10, 542760, Note_on_c, 8, 60, 93
10, 542804, Note_off_c, 8, 60, 64
10, 542880, Note_on_c, 8, 59, 93
10, 542980, Note_off_c, 8, 59, 64
10, 543120, Note_on_c, 8, 60, 93
10, 543154, Note_off_c, 8, 60, 64
10, 543240, Note_on_c, 8, 62, 93
10, 543274, Note_off_c, 8, 62, 64
10, 543360, Note_on_c, 8, 64, 94
10, 543480, Note_off_c, 8, 64, 64
10, 543600, Note_on_c, 8, 62, 94
10, 543644, Note_off_c, 8, 62, 64
10, 543720, Note_on_c, 8, 64, 94
10, 543754, Note_off_c, 8, 64, 64
10, 543840, Note_on_c, 8, 65, 94
10, 543934, Note_off_c, 8, 65, 64
10, 544080, Note_on_c, 8, 67, 94
10, 544120, Note_off_c, 8, 67, 64
10, 544200, Note_on_c, 8, 69, 94
10, 544234, Note_off_c, 8, 69, 64
10, 544320, Note_on_c, 8, 67, 90
10, 544440, Note_off_c, 8, 67, 64
10, 544560, Note_on_c, 8, 69, 90
10, 544600, Note_off_c, 8, 69, 64
10, 544680, Note_on_c, 8, 66, 91
10, 544720, Note_off_c, 8, 66, 64
10, 544800, Note_on_c, 8, 67, 91
10, 544900, Note_off_c, 8, 67, 64
10, 545040, Note_on_c, 8, 55, 92
10, 545134, Note_off_c, 8, 55, 64
10, 545280, Note_on_c, 8, 60, 93
10, 545404, Note_off_c, 8, 60, 64
10, 545520, Note_on_c, 8, 62, 93
10, 545560, Note_off_c, 8, 62, 64
10, 545640, Note_on_c, 8, 60, 94
10, 545674, Note_off_c, 8, 60, 64
10, 545760, Note_on_c, 8, 55, 94
10, 545864, Note_off_c, 8, 55, 64
10, 546000, Note_on_c, 8, 57, 95
10, 546034, Note_off_c, 8, 57, 64
10, 546120, Note_on_c, 8, 59, 95
10, 546160, Note_off_c, 8, 59, 64
10, 546240, Note_on_c, 8, 60, 96
10, 546360, Note_off_c, 8, 60, 64
10, 546480, Note_on_c, 8, 62, 97
10, 546514, Note_off_c, 8, 62, 64
10, 546600, Note_on_c, 8, 60, 97
10, 546644, Note_off_c, 8, 60, 64
10, 546720, Note_on_c, 8, 59, 97
10, 546820, Note_off_c, 8, 59, 64
10, 546960, Note_on_c, 8, 60, 98
10, 546994, Note_off_c, 8, 60, 64
10, 547080, Note_on_c, 8, 62, 99
10, 547114, Note_off_c, 8, 62, 64
10, 547200, Note_on_c, 8, 64, 99
10, 547330, Note_off_c, 8, 64, 64
10, 547440, Note_on_c, 8, 65, 100
10, 547480, Note_off_c, 8, 65, 64
10, 547560, Note_on_c, 8, 64, 100
10, 547594, Note_off_c, 8, 64, 64
10, 547680, Note_on_c, 8, 62, 101
10, 547780, Note_off_c, 8, 62, 64
10, 547920, Note_on_c, 8, 64, 101
10, 547964, Note_off_c, 8, 64, 64
10, 548040, Note_on_c, 8, 65, 102
10, 548080, Note_off_c, 8, 65, 64
10, 548160, Note_on_c, 8, 67, 102
10, 548280, Note_off_c, 8, 67, 64
10, 548400, Note_on_c, 8, 69, 103
10, 548444, Note_off_c, 8, 69, 64
10, 548520, Note_on_c, 8, 65, 103
10, 548564, Note_off_c, 8, 65, 64
10, 548640, Note_on_c, 8, 67, 104
10, 548740, Note_off_c, 8, 67, 64
10, 548880, Note_on_c, 8, 69, 104
10, 548920, Note_off_c, 8, 69, 64
10, 549000, Note_on_c, 8, 71, 105
10, 549034, Note_off_c, 8, 71, 64
10, 549120, Note_on_c, 8, 72, 105
10, 549280, Note_off_c, 8, 72, 64
10, 549360, Note_on_c, 8, 74, 106
10, 549440, Note_off_c, 8, 74, 64
10, 549480, Note_on_c, 8, 71, 106
10, 549560, Note_off_c, 8, 71, 64
10, 549600, Note_on_c, 8, 72, 107
10, 549760, Note_off_c, 8, 72, 64
10, 549840, Note_on_c, 8, 74, 108
10, 549920, Note_off_c, 8, 74, 64
10, 549960, Note_on_c, 8, 71, 108
10, 550040, Note_off_c, 8, 71, 64
10, 550080, Note_on_c, 8, 72, 108
10, 550240, Note_off_c, 8, 72, 64
10, 550320, Note_on_c, 8, 74, 109
10, 550400, Note_off_c, 8, 74, 64
10, 550440, Note_on_c, 8, 71, 110
10, 550520, Note_off_c, 8, 71, 64
10, 550560, Note_on_c, 8, 72, 110
10, 550720, Note_off_c, 8, 72, 64
10, 550800, Note_on_c, 8, 74, 111
10, 550880, Note_off_c, 8, 74, 64
10, 550920, Note_on_c, 8, 71, 111
10, 551000, Note_off_c, 8, 71, 64
10, 551040, Note_on_c, 8, 72, 112
10, 551040, Note_on_c, 8, 64, 112
10, 551040, Note_on_c, 8, 55, 112
10, 551040, Note_on_c, 8, 48, 112
10, 551360, Note_off_c, 8, 48, 64
10, 551360, Note_off_c, 8, 55, 64
10, 551360, Note_off_c, 8, 64, 64
10, 551360, Note_off_c, 8, 72, 64
10, 552000, Note_on_c, 8, 60, 49
10, 552000, Note_on_c, 8, 48, 50
10, 552320, Note_off_c, 8, 48, 64
10, 552320, Note_off_c, 8, 60, 64
10, 554880, Note_on_c, 8, 60, 32
10, 554990, Note_off_c, 8, 60, 64
10, 555360, Note_on_c, 8, 65, 32
10, 555460, Note_off_c, 8, 65, 64
10, 555840, Note_on_c, 8, 60, 32
10, 555950, Note_off_c, 8, 60, 64
10, 556320, Note_on_c, 8, 62, 32
10, 556414, Note_off_c, 8, 62, 64
10, 556800, Note_on_c, 8, 60, 32
10, 556900, Note_off_c, 8, 60, 64
10, 557280, Note_on_c, 8, 57, 32
10, 557384, Note_off_c, 8, 57, 64
10, 557760, Note_on_c, 8, 58, 32
10, 557864, Note_off_c, 8, 58, 64
10, 558240, Note_on_c, 8, 57, 32
10, 558340, Note_off_c, 8, 57, 64
10, 558720, Note_on_c, 8, 53, 32
10, 558820, Note_off_c, 8, 53, 64
10, 559200, Note_on_c, 8, 55, 32
10, 559300, Note_off_c, 8, 55, 64
10, 559680, Note_on_c, 8, 57, 32
10, 559780, Note_off_c, 8, 57, 64
10, 560160, Note_on_c, 8, 65, 32
10, 560260, Note_off_c, 8, 65, 64
10, 560640, Note_on_c, 8, 67, 32
10, 560734, Note_off_c, 8, 67, 64
10, 561120, Note_on_c, 8, 69, 32
10, 561224, Note_off_c, 8, 69, 64
10, 561600, Note_on_c, 8, 65, 32
10, 561694, Note_off_c, 8, 65, 64
10, 562080, Note_on_c, 8, 67, 32
10, 562180, Note_off_c, 8, 67, 64
10, 562560, Note_on_c, 8, 65, 32
10, 562644, Note_off_c, 8, 65, 64
10, 563040, Note_on_c, 8, 62, 32
10, 563134, Note_off_c, 8, 62, 64
10, 563520, Note_on_c, 8, 64, 32
10, 563620, Note_off_c, 8, 64, 64
10, 564000, Note_on_c, 8, 62, 32
10, 564094, Note_off_c, 8, 62, 64
10, 564480, Note_on_c, 8, 57, 32
10, 564590, Note_off_c, 8, 57, 64
10, 564960, Note_on_c, 8, 57, 32
10, 565070, Note_off_c, 8, 57, 64
10, 565440, Note_on_c, 8, 57, 32
10, 565540, Note_off_c, 8, 57, 64
10, 566400, Note_on_c, 8, 57, 32
10, 566510, Note_off_c, 8, 57, 64
10, 566880, Note_on_c, 8, 50, 32
10, 567764, Note_off_c, 8, 50, 64
10, 567840, Note_on_c, 8, 54, 36
10, 568160, Note_off_c, 8, 54, 64
10, 568320, Note_on_c, 8, 57, 38
10, 568790, Note_off_c, 8, 57, 64
10, 568800, Note_on_c, 8, 54, 40
10, 569260, Note_off_c, 8, 54, 64
10, 569280, Note_on_c, 8, 54, 42
10, 569600, Note_off_c, 8, 54, 64
10, 569760, Note_on_c, 8, 57, 44
10, 570224, Note_off_c, 8, 57, 64
10, 570240, Note_on_c, 8, 61, 46
10, 570660, Note_off_c, 8, 61, 64
10, 570720, Note_on_c, 8, 62, 48
10, 570930, Note_off_c, 8, 62, 64
10, 570960, Note_on_c, 8, 59, 48
10, 571174, Note_off_c, 8, 59, 64
10, 571200, Note_on_c, 8, 57, 48
10, 571656, Note_off_c, 8, 57, 64
10, 571680, Note_on_c, 8, 61, 54
10, 572136, Note_off_c, 8, 61, 64
10, 572160, Note_on_c, 8, 62, 59
10, 572388, Note_off_c, 8, 62, 64
10, 572400, Note_on_c, 8, 58, 62
10, 572628, Note_off_c, 8, 58, 64
10, 572640, Note_on_c, 8, 57, 65
10, 573096, Note_off_c, 8, 57, 64
10, 573120, Note_on_c, 8, 60, 71
10, 573576, Note_off_c, 8, 60, 64
10, 573600, Note_on_c, 8, 62, 76
10, 573828, Note_off_c, 8, 62, 64
10, 573840, Note_on_c, 8, 58, 79
10, 574068, Note_off_c, 8, 58, 64
10, 574080, Note_on_c, 8, 57, 82
10, 574536, Note_off_c, 8, 57, 64
10, 574560, Note_on_c, 8, 60, 88
10, 575016, Note_off_c, 8, 60, 64
10, 575040, Note_on_c, 8, 62, 93
10, 575268, Note_off_c, 8, 62, 64
10, 575280, Note_on_c, 8, 58, 96
10, 575508, Note_off_c, 8, 58, 64
10, 575520, Note_on_c, 8, 65, 110
10, 575520, Note_on_c, 8, 57, 110
10, 576012, Note_off_c, 8, 57, 64
10, 576012, Note_off_c, 8, 65, 64
10, 578400, Note_on_c, 8, 60, 56
10, 578926, Note_off_c, 8, 60, 64
10, 579840, Control_c, 8, 0, 0
10, 579840, Control_c, 8, 32, 0
10, 579840, Program_c, 8, 45
10, 581280, Note_on_c, 8, 53, 51
10, 581736, Note_off_c, 8, 53, 64
10, 582720, Note_on_c, 8, 53, 51
10, 583176, Note_off_c, 8, 53, 64
10, 584160, Note_on_c, 8, 53, 51
10, 584616, Note_off_c, 8, 53, 64
10, 585600, Note_on_c, 8, 53, 51
10, 586056, Note_off_c, 8, 53, 64
10, 587040, Note_on_c, 8, 53, 51
10, 587496, Note_off_c, 8, 53, 64
10, 588480, Note_on_c, 8, 53, 51
10, 588936, Note_off_c, 8, 53, 64
10, 589920, Note_on_c, 8, 53, 51
10, 590376, Note_off_c, 8, 53, 64
10, 591360, Note_on_c, 8, 53, 51
10, 591816, Note_off_c, 8, 53, 64
10, 591840, Control_c, 8, 0, 0
10, 591840, Control_c, 8, 32, 0
10, 591840, Program_c, 8, 48
10, 592320, Note_on_c, 8, 60, 64
10, 592776, Note_off_c, 8, 60, 64
10, 592800, Note_on_c, 8, 65, 66
10, 593256, Note_off_c, 8, 65, 64
10, 593280, Note_on_c, 8, 60, 68
10, 593736, Note_off_c, 8, 60, 64
10, 593760, Note_on_c, 8, 62, 70
10, 594216, Note_off_c, 8, 62, 64
10, 594240, Note_on_c, 8, 60, 73
10, 594696, Note_off_c, 8, 60, 64
10, 594720, Note_on_c, 8, 57, 74
10, 595176, Note_off_c, 8, 57, 64
10, 595200, Note_on_c, 8, 58, 77
10, 595656, Note_off_c, 8, 58, 64
10, 595680, Note_on_c, 8, 57, 77
10, 596136, Note_off_c, 8, 57, 64
10, 596160, Note_on_c, 8, 53, 75
10, 596616, Note_off_c, 8, 53, 64
10, 596640, Note_on_c, 8, 55, 74
10, 597096, Note_off_c, 8, 55, 64
10, 597120, Note_on_c, 8, 57, 72
10, 597576, Note_off_c, 8, 57, 64
10, 597600, Note_on_c, 8, 53, 70
10, 598056, Note_off_c, 8, 53, 64
10, 598080, Note_on_c, 8, 60, 110
10, 598194, Note_off_c, 8, 60, 64
10, 598560, Note_on_c, 8, 65, 110
10, 598674, Note_off_c, 8, 65, 64
10, 599040, Note_on_c, 8, 60, 110
10, 599154, Note_off_c, 8, 60, 64
10, 599520, Note_on_c, 8, 62, 110
10, 599634, Note_off_c, 8, 62, 64
10, 600000, Note_on_c, 8, 60, 100
10, 600228, Note_off_c, 8, 60, 64
10, 600480, Note_on_c, 8, 57, 100
10, 600708, Note_off_c, 8, 57, 64
10, 600960, Note_on_c, 8, 58, 100
10, 601188, Note_off_c, 8, 58, 64
10, 601440, Note_on_c, 8, 57, 127
10, 601668, Note_off_c, 8, 57, 64
10, 601920, Note_on_c, 8, 53, 100
10, 602102, Note_off_c, 8, 53, 64
10, 602400, Note_on_c, 8, 55, 100
10, 602582, Note_off_c, 8, 55, 64
10, 602880, Note_on_c, 8, 57, 127
10, 603108, Note_off_c, 8, 57, 64
10, 603360, Note_on_c, 8, 53, 100
10, 603588, Note_off_c, 8, 53, 64
10, 603840, Note_on_c, 8, 55, 100
10, 604068, Note_off_c, 8, 55, 64
10, 604320, Note_on_c, 8, 57, 127
10, 604548, Note_off_c, 8, 57, 64
10, 604800, Note_on_c, 8, 53, 100
10, 605028, Note_off_c, 8, 53, 64
10, 605280, Note_on_c, 8, 55, 100
10, 605508, Note_off_c, 8, 55, 64
10, 605760, Note_on_c, 8, 57, 127
10, 605988, Note_off_c, 8, 57, 64
10, 606240, Note_on_c, 8, 53, 100
10, 606468, Note_off_c, 8, 53, 64
10, 606720, Note_on_c, 8, 55, 100
10, 606948, Note_off_c, 8, 55, 64
10, 607200, Note_on_c, 8, 57, 127
10, 608260, Note_off_c, 8, 57, 64
10, 608640, Note_on_c, 8, 55, 100
10, 609576, Note_off_c, 8, 55, 64
10, 609600, Note_on_c, 8, 53, 100
10, 609828, Note_off_c, 8, 53, 64
10, 610080, Note_on_c, 8, 52, 100
10, 611016, Note_off_c, 8, 52, 64
10, 611040, Note_on_c, 8, 50, 100
10, 611268, Note_off_c, 8, 50, 64
10, 611520, Note_on_c, 8, 48, 100
10, 612456, Note_off_c, 8, 48, 64
10, 612480, Note_on_c, 8, 55, 100
10, 612708, Note_off_c, 8, 55, 64
10, 612960, Note_on_c, 8, 60, 120
10, 613896, Note_off_c, 8, 60, 64
10, 614400, Note_on_c, 8, 62, 120
10, 615336, Note_off_c, 8, 62, 64
10, 615840, Note_on_c, 8, 60, 120
10, 616776, Note_off_c, 8, 60, 64
10, 617280, Note_on_c, 8, 48, 120
10, 618216, Note_off_c, 8, 48, 64
10, 618720, Note_on_c, 8, 53, 110
10, 618948, Note_off_c, 8, 53, 64
10, 619680, Note_on_c, 8, 69, 110
10, 619876, Note_off_c, 8, 69, 64
10, 620160, Note_on_c, 8, 67, 100
10, 620868, Note_off_c, 8, 67, 64
10, 621120, Note_on_c, 8, 65, 100
10, 621348, Note_off_c, 8, 65, 64
10, 621600, Note_on_c, 8, 64, 100
10, 622308, Note_off_c, 8, 64, 64
10, 622560, Note_on_c, 8, 62, 100
10, 622788, Note_off_c, 8, 62, 64
10, 623040, Note_on_c, 8, 60, 100
10, 623788, Note_off_c, 8, 60, 64
10, 624000, Note_on_c, 8, 67, 100
10, 624228, Note_off_c, 8, 67, 64
10, 624480, Note_on_c, 8, 60, 120
10, 625416, Note_off_c, 8, 60, 64
10, 625920, Note_on_c, 8, 62, 120
10, 626856, Note_off_c, 8, 62, 64
10, 627360, Note_on_c, 8, 69, 120
10, 628296, Note_off_c, 8, 69, 64
10, 628800, Note_on_c, 8, 60, 120
10, 628800, Note_on_c, 8, 48, 120
10, 629736, Note_off_c, 8, 48, 64
10, 629736, Note_off_c, 8, 60, 64
10, 630240, Note_on_c, 8, 53, 127
10, 630354, Note_off_c, 8, 53, 64
10, 630480, Note_on_c, 8, 57, 120
10, 630594, Note_off_c, 8, 57, 64
10, 630720, Note_on_c, 8, 60, 120
10, 630834, Note_off_c, 8, 60, 64
10, 630960, Note_on_c, 8, 65, 120
10, 631074, Note_off_c, 8, 65, 64
10, 631200, Note_on_c, 8, 69, 120
10, 631428, Note_off_c, 8, 69, 64
10, 634560, Note_on_c, 8, 60, 110
10, 634788, Note_off_c, 8, 60, 64
10, 635040, Note_on_c, 8, 60, 110
10, 635268, Note_off_c, 8, 60, 64
10, 635520, Note_on_c, 8, 60, 110
10, 635748, Note_off_c, 8, 60, 64
10, 636000, Note_on_c, 8, 53, 127
10, 636114, Note_off_c, 8, 53, 64
10, 636240, Note_on_c, 8, 57, 120
10, 636354, Note_off_c, 8, 57, 64
10, 636480, Note_on_c, 8, 60, 120
10, 636594, Note_off_c, 8, 60, 64
10, 636720, Note_on_c, 8, 65, 120
10, 636834, Note_off_c, 8, 65, 64
10, 636960, Note_on_c, 8, 69, 120
10, 637188, Note_off_c, 8, 69, 64
10, 637188, End_track
11, 0, Start_track
11, 0, Title_t, "Cello"
11, 0, MIDI_port, 0
11, 0, Channel_prefix, 10
11, 0, Control_c, 10, 7, 127
11, 0, Control_c, 10, 10, 111
11, 0, Control_c, 10, 0, 0
11, 0, Control_c, 10, 32, 0
11, 0, Control_c, 10, 91, 53
11, 0, Control_c, 10, 93, 8
11, 0, Program_c, 10, 48
11, 6720, Note_on_c, 10, 55, 32
11, 6820, Note_off_c, 10, 55, 64
11, 7200, Note_on_c, 10, 57, 32
11, 7304, Note_off_c, 10, 57, 64
11, 7680, Note_on_c, 10, 53, 32
11, 7770, Note_off_c, 10, 53, 64
11, 8160, Note_on_c, 10, 55, 32
11, 8244, Note_off_c, 10, 55, 64
11, 8640, Note_on_c, 10, 53, 32
11, 8740, Note_off_c, 10, 53, 64
11, 9120, Note_on_c, 10, 50, 32
11, 9204, Note_off_c, 10, 50, 64
11, 9600, Note_on_c, 10, 52, 32
11, 9700, Note_off_c, 10, 52, 64
11, 10080, Note_on_c, 10, 50, 32
11, 10174, Note_off_c, 10, 50, 64
11, 10560, Note_on_c, 10, 45, 32
11, 10650, Note_off_c, 10, 45, 64
11, 11040, Note_on_c, 10, 45, 32
11, 11144, Note_off_c, 10, 45, 64
11, 11520, Note_on_c, 10, 45, 32
11, 11624, Note_off_c, 10, 45, 64
11, 12480, Note_on_c, 10, 45, 32
11, 12580, Note_off_c, 10, 45, 64
11, 12960, Note_on_c, 10, 50, 32
11, 13564, Note_off_c, 10, 50, 64
11, 14400, Note_on_c, 10, 50, 32
11, 15020, Note_off_c, 10, 50, 64
11, 15840, Note_on_c, 10, 50, 32
11, 16460, Note_off_c, 10, 50, 64
11, 17280, Note_on_c, 10, 50, 32
11, 17884, Note_off_c, 10, 50, 64
11, 18720, Note_on_c, 10, 50, 32
11, 19340, Note_off_c, 10, 50, 64
11, 20160, Note_on_c, 10, 50, 32
11, 20754, Note_off_c, 10, 50, 64
11, 21600, Note_on_c, 10, 50, 32
11, 22080, Note_off_c, 10, 50, 64
11, 22560, Note_on_c, 10, 45, 32
11, 22770, Note_off_c, 10, 45, 64
11, 23040, Note_on_c, 10, 50, 32
11, 23454, Note_off_c, 10, 50, 64
11, 29760, Note_on_c, 10, 55, 32
11, 29860, Note_off_c, 10, 55, 64
11, 30240, Note_on_c, 10, 57, 32
11, 30344, Note_off_c, 10, 57, 64
11, 30720, Note_on_c, 10, 53, 32
11, 30810, Note_off_c, 10, 53, 64
11, 31200, Note_on_c, 10, 55, 32
11, 31284, Note_off_c, 10, 55, 64
11, 31680, Note_on_c, 10, 53, 32
11, 31780, Note_off_c, 10, 53, 64
11, 32160, Note_on_c, 10, 50, 32
11, 32244, Note_off_c, 10, 50, 64
11, 32640, Note_on_c, 10, 52, 32
11, 32740, Note_off_c, 10, 52, 64
11, 33120, Note_on_c, 10, 50, 32
11, 33214, Note_off_c, 10, 50, 64
11, 33600, Note_on_c, 10, 45, 32
11, 33690, Note_off_c, 10, 45, 64
11, 34080, Note_on_c, 10, 45, 32
11, 34184, Note_off_c, 10, 45, 64
11, 34560, Note_on_c, 10, 45, 32
11, 34664, Note_off_c, 10, 45, 64
11, 35520, Note_on_c, 10, 45, 32
11, 35620, Note_off_c, 10, 45, 64
11, 36000, Note_on_c, 10, 50, 32
11, 36604, Note_off_c, 10, 50, 64
11, 37440, Note_on_c, 10, 50, 32
11, 38060, Note_off_c, 10, 50, 64
11, 38880, Note_on_c, 10, 50, 32
11, 39500, Note_off_c, 10, 50, 64
11, 40320, Note_on_c, 10, 50, 32
11, 40924, Note_off_c, 10, 50, 64
11, 41760, Note_on_c, 10, 50, 32
11, 42380, Note_off_c, 10, 50, 64
11, 43200, Note_on_c, 10, 50, 32
11, 43794, Note_off_c, 10, 50, 64
11, 44640, Note_on_c, 10, 50, 32
11, 45120, Note_off_c, 10, 50, 64
11, 45600, Note_on_c, 10, 45, 32
11, 45810, Note_off_c, 10, 45, 64
11, 46080, Note_on_c, 10, 50, 32
11, 46494, Note_off_c, 10, 50, 64
11, 56640, Note_on_c, 10, 43, 34
11, 56800, Note_off_c, 10, 43, 64
11, 57120, Note_on_c, 10, 45, 34
11, 57280, Note_off_c, 10, 45, 64
11, 57600, Note_on_c, 10, 47, 34
11, 57760, Note_off_c, 10, 47, 64
11, 58080, Note_on_c, 10, 43, 34
11, 58240, Note_off_c, 10, 43, 64
11, 58560, Note_on_c, 10, 43, 34
11, 58720, Note_off_c, 10, 43, 64
11, 59040, Note_on_c, 10, 48, 34
11, 59680, Note_off_c, 10, 48, 64
11, 60480, Note_on_c, 10, 48, 44
11, 61120, Note_off_c, 10, 48, 64
11, 61920, Note_on_c, 10, 48, 54
11, 62560, Note_off_c, 10, 48, 64
11, 63360, Note_on_c, 10, 48, 64
11, 64000, Note_off_c, 10, 48, 64
11, 64800, Note_on_c, 10, 48, 64
11, 65440, Note_off_c, 10, 48, 64
11, 66240, Note_on_c, 10, 48, 64
11, 66880, Note_off_c, 10, 48, 64
11, 67680, Note_on_c, 10, 48, 64
11, 68320, Note_off_c, 10, 48, 64
11, 68640, Note_on_c, 10, 43, 64
11, 68960, Note_off_c, 10, 43, 64
11, 69120, Note_on_c, 10, 48, 64
11, 69760, Note_off_c, 10, 48, 64
11, 70560, Note_on_c, 10, 60, 50
11, 70880, Note_off_c, 10, 60, 64
11, 71040, Note_on_c, 10, 57, 53
11, 71360, Note_off_c, 10, 57, 64
11, 71520, Note_on_c, 10, 58, 57
11, 71840, Note_off_c, 10, 58, 64
11, 72000, Note_on_c, 10, 57, 61
11, 72320, Note_off_c, 10, 57, 64
11, 72480, Note_on_c, 10, 53, 65
11, 72800, Note_off_c, 10, 53, 64
11, 72960, Note_on_c, 10, 55, 69
11, 73280, Note_off_c, 10, 55, 64
11, 73440, Note_on_c, 10, 53, 73
11, 73760, Note_off_c, 10, 53, 64
11, 73920, Note_on_c, 10, 48, 76
11, 74240, Note_off_c, 10, 48, 64
11, 74400, Note_on_c, 10, 55, 80
11, 74720, Note_off_c, 10, 55, 64
11, 74880, Note_on_c, 10, 57, 84
11, 75200, Note_off_c, 10, 57, 64
11, 75360, Note_on_c, 10, 53, 88
11, 75680, Note_off_c, 10, 53, 64
11, 75840, Note_on_c, 10, 48, 92
11, 76160, Note_off_c, 10, 48, 64
11, 76320, Note_on_c, 10, 53, 96
11, 76640, Note_off_c, 10, 53, 64
11, 76800, Note_on_c, 10, 48, 96
11, 77120, Note_off_c, 10, 48, 64
11, 77280, Note_on_c, 10, 50, 96
11, 77600, Note_off_c, 10, 50, 64
11, 77760, Note_on_c, 10, 48, 96
11, 78080, Note_off_c, 10, 48, 64
11, 78240, Note_on_c, 10, 45, 96
11, 78560, Note_off_c, 10, 45, 64
11, 78720, Note_on_c, 10, 46, 96
11, 79040, Note_off_c, 10, 46, 64
11, 79200, Note_on_c, 10, 45, 122
11, 79520, Note_off_c, 10, 45, 64
11, 79680, Note_on_c, 10, 41, 96
11, 80000, Note_off_c, 10, 41, 64
11, 80160, Note_on_c, 10, 43, 96
11, 80480, Note_off_c, 10, 43, 64
11, 80640, Note_on_c, 10, 45, 122
11, 80960, Note_off_c, 10, 45, 64
11, 81120, Note_on_c, 10, 41, 96
11, 81440, Note_off_c, 10, 41, 64
11, 81600, Note_on_c, 10, 43, 96
11, 81920, Note_off_c, 10, 43, 64
11, 82080, Note_on_c, 10, 45, 122
11, 82400, Note_off_c, 10, 45, 64
11, 82560, Note_on_c, 10, 41, 96
11, 82880, Note_off_c, 10, 41, 64
11, 83040, Note_on_c, 10, 43, 96
11, 83360, Note_off_c, 10, 43, 64
11, 83520, Note_on_c, 10, 45, 124
11, 83840, Note_off_c, 10, 45, 64
11, 84000, Note_on_c, 10, 41, 96
11, 84320, Note_off_c, 10, 41, 64
11, 84480, Note_on_c, 10, 43, 96
11, 84800, Note_off_c, 10, 43, 64
11, 84960, Note_on_c, 10, 45, 124
11, 85920, Note_off_c, 10, 45, 64
11, 86400, Note_on_c, 10, 43, 96
11, 87040, Note_off_c, 10, 43, 64
11, 87360, Note_on_c, 10, 41, 96
11, 87680, Note_off_c, 10, 41, 64
11, 87840, Note_on_c, 10, 40, 96
11, 88480, Note_off_c, 10, 40, 64
11, 88800, Note_on_c, 10, 38, 96
11, 89120, Note_off_c, 10, 38, 64
11, 89280, Note_on_c, 10, 36, 96
11, 89920, Note_off_c, 10, 36, 64
11, 90240, Note_on_c, 10, 46, 96
11, 90560, Note_off_c, 10, 46, 64
11, 90720, Note_on_c, 10, 45, 96
11, 91680, Note_off_c, 10, 45, 64
11, 92160, Note_on_c, 10, 46, 96
11, 93120, Note_off_c, 10, 46, 64
11, 93600, Note_on_c, 10, 48, 96
11, 94560, Note_off_c, 10, 48, 64
11, 95040, Note_on_c, 10, 48, 96
11, 96000, Note_off_c, 10, 48, 64
11, 96480, Note_on_c, 10, 53, 96
11, 96800, Note_off_c, 10, 53, 64
11, 97440, Note_on_c, 10, 57, 96
11, 97760, Note_off_c, 10, 57, 64
11, 97920, Note_on_c, 10, 55, 96
11, 98560, Note_off_c, 10, 55, 64
11, 98880, Note_on_c, 10, 53, 96
11, 99200, Note_off_c, 10, 53, 64
11, 99360, Note_on_c, 10, 52, 96
11, 100000, Note_off_c, 10, 52, 64
11, 100320, Note_on_c, 10, 50, 96
11, 100640, Note_off_c, 10, 50, 64
11, 100800, Note_on_c, 10, 48, 96
11, 101440, Note_off_c, 10, 48, 64
11, 101760, Note_on_c, 10, 58, 96
11, 102080, Note_off_c, 10, 58, 64
11, 102240, Note_on_c, 10, 57, 96
11, 103364, Note_off_c, 10, 57, 64
11, 103680, Note_on_c, 10, 58, 96
11, 104804, Note_off_c, 10, 58, 64
11, 105120, Note_on_c, 10, 60, 96
11, 106204, Note_off_c, 10, 60, 64
11, 106560, Note_on_c, 10, 48, 96
11, 107674, Note_off_c, 10, 48, 64
11, 108000, Note_on_c, 10, 53, 96
11, 108320, Note_off_c, 10, 53, 64
11, 112320, Note_on_c, 10, 48, 96
11, 112640, Note_off_c, 10, 48, 64
11, 112800, Note_on_c, 10, 48, 96
11, 113120, Note_off_c, 10, 48, 64
11, 113280, Note_on_c, 10, 48, 96
11, 113600, Note_off_c, 10, 48, 64
11, 113760, Note_on_c, 10, 41, 96
11, 114080, Note_off_c, 10, 41, 64
11, 118080, Note_on_c, 10, 48, 96
11, 118400, Note_off_c, 10, 48, 64
11, 118560, Note_on_c, 10, 48, 96
11, 118880, Note_off_c, 10, 48, 64
11, 119040, Note_on_c, 10, 48, 96
11, 119360, Note_off_c, 10, 48, 64
11, 119520, Note_on_c, 10, 41, 96
11, 119840, Note_off_c, 10, 41, 64
11, 122400, Note_on_c, 10, 41, 64
11, 122720, Note_off_c, 10, 41, 64
11, 184320, Note_on_c, 10, 55, 64
11, 185280, Note_off_c, 10, 55, 64
11, 185760, Note_on_c, 10, 48, 64
11, 186720, Note_off_c, 10, 48, 64
11, 187200, Note_on_c, 10, 43, 64
11, 188160, Note_off_c, 10, 43, 64
11, 188640, Note_on_c, 10, 36, 64
11, 189600, Note_off_c, 10, 36, 64
11, 190080, Note_on_c, 10, 48, 64
11, 191040, Note_off_c, 10, 48, 64
11, 191520, Note_on_c, 10, 41, 64
11, 191840, Note_off_c, 10, 41, 64
11, 214560, Note_on_c, 10, 41, 64
11, 219840, Note_off_c, 10, 41, 64
11, 220320, Note_on_c, 10, 53, 64
11, 220960, Note_off_c, 10, 53, 64
11, 221280, Note_on_c, 10, 58, 66
11, 221600, Note_off_c, 10, 58, 64
11, 221760, Note_on_c, 10, 60, 67
11, 222080, Note_off_c, 10, 60, 64
11, 222240, Note_on_c, 10, 57, 68
11, 222560, Note_off_c, 10, 57, 64
11, 222720, Note_on_c, 10, 58, 69
11, 223040, Note_off_c, 10, 58, 64
11, 223200, Note_on_c, 10, 55, 70
11, 223840, Note_off_c, 10, 55, 64
11, 224160, Note_on_c, 10, 57, 72
11, 224480, Note_off_c, 10, 57, 64
11, 224640, Note_on_c, 10, 58, 73
11, 224960, Note_off_c, 10, 58, 64
11, 225120, Note_on_c, 10, 55, 74
11, 225440, Note_off_c, 10, 55, 64
11, 225600, Note_on_c, 10, 57, 75
11, 225920, Note_off_c, 10, 57, 64
11, 226080, Note_on_c, 10, 41, 76
11, 226720, Note_off_c, 10, 41, 64
11, 227040, Note_on_c, 10, 46, 78
11, 227360, Note_off_c, 10, 46, 64
11, 227520, Note_on_c, 10, 48, 79
11, 227840, Note_off_c, 10, 48, 64
11, 228000, Note_on_c, 10, 46, 80
11, 228320, Note_off_c, 10, 46, 64
11, 228480, Note_on_c, 10, 45, 81
11, 228800, Note_off_c, 10, 45, 64
11, 228960, Note_on_c, 10, 43, 82
11, 229600, Note_off_c, 10, 43, 64
11, 229920, Note_on_c, 10, 45, 84
11, 230240, Note_off_c, 10, 45, 64
11, 230400, Note_on_c, 10, 46, 85
11, 230720, Note_off_c, 10, 46, 64
11, 230880, Note_on_c, 10, 43, 86
11, 231200, Note_off_c, 10, 43, 64
11, 231360, Note_on_c, 10, 45, 87
11, 231680, Note_off_c, 10, 45, 64
11, 231840, Note_on_c, 10, 41, 97
11, 232160, Note_off_c, 10, 41, 64
11, 232800, Note_on_c, 10, 46, 127
11, 232900, Note_off_c, 10, 46, 64
11, 233280, Note_on_c, 10, 48, 127
11, 233392, Note_off_c, 10, 48, 64
11, 233760, Note_on_c, 10, 45, 127
11, 233884, Note_off_c, 10, 45, 64
11, 234240, Note_on_c, 10, 46, 127
11, 234356, Note_off_c, 10, 46, 64
11, 234720, Note_on_c, 10, 46, 127
11, 234836, Note_off_c, 10, 46, 64
11, 235200, Note_on_c, 10, 43, 127
11, 235332, Note_off_c, 10, 43, 64
11, 235680, Note_on_c, 10, 45, 127
11, 235792, Note_off_c, 10, 45, 64
11, 236160, Note_on_c, 10, 45, 127
11, 236268, Note_off_c, 10, 45, 64
11, 236640, Note_on_c, 10, 41, 127
11, 236760, Note_off_c, 10, 41, 64
11, 237120, Note_on_c, 10, 43, 127
11, 237240, Note_off_c, 10, 43, 64
11, 237600, Note_on_c, 10, 41, 100
11, 238308, Note_off_c, 10, 41, 64
11, 238560, Note_on_c, 10, 41, 106
11, 239214, Note_off_c, 10, 41, 64
11, 239520, Note_on_c, 10, 46, 107
11, 240174, Note_off_c, 10, 46, 64
11, 240480, Note_on_c, 10, 41, 110
11, 240954, Note_off_c, 10, 41, 64
11, 240960, Note_on_c, 10, 46, 95
11, 241194, Note_off_c, 10, 46, 64
11, 241440, Note_on_c, 10, 41, 106
11, 242100, Note_off_c, 10, 41, 64
11, 242400, Note_on_c, 10, 41, 107
11, 243074, Note_off_c, 10, 41, 64
11, 243360, Note_on_c, 10, 46, 90
11, 244004, Note_off_c, 10, 46, 64
11, 244320, Note_on_c, 10, 41, 103
11, 244794, Note_off_c, 10, 41, 64
11, 244800, Note_on_c, 10, 46, 90
11, 245034, Note_off_c, 10, 46, 64
11, 245280, Note_on_c, 10, 41, 103
11, 245914, Note_off_c, 10, 41, 64
11, 246240, Note_on_c, 10, 41, 102
11, 246894, Note_off_c, 10, 41, 64
11, 247200, Note_on_c, 10, 46, 93
11, 247870, Note_off_c, 10, 46, 64
11, 248160, Note_on_c, 10, 41, 104
11, 248634, Note_off_c, 10, 41, 64
11, 248640, Note_on_c, 10, 46, 106
11, 248874, Note_off_c, 10, 46, 64
11, 249120, Note_on_c, 10, 41, 104
11, 249764, Note_off_c, 10, 41, 64
11, 250080, Note_on_c, 10, 41, 106
11, 250750, Note_off_c, 10, 41, 64
11, 251040, Note_on_c, 10, 46, 85
11, 251714, Note_off_c, 10, 46, 64
11, 252000, Note_on_c, 10, 41, 85
11, 252474, Note_off_c, 10, 41, 64
11, 252480, Note_on_c, 10, 46, 85
11, 252714, Note_off_c, 10, 46, 64
11, 254880, Note_on_c, 10, 53, 107
11, 255710, Note_off_c, 10, 53, 64
11, 255840, Note_on_c, 10, 48, 90
11, 256294, Note_off_c, 10, 48, 64
11, 256320, Note_on_c, 10, 41, 85
11, 256630, Note_off_c, 10, 41, 64
11, 258720, Note_on_c, 10, 53, 107
11, 259550, Note_off_c, 10, 53, 64
11, 259680, Note_on_c, 10, 48, 90
11, 260134, Note_off_c, 10, 48, 64
11, 260160, Note_on_c, 10, 41, 85
11, 260470, Note_off_c, 10, 41, 64
11, 260640, Note_on_c, 10, 48, 88
11, 260764, Note_off_c, 10, 48, 64
11, 260880, Note_on_c, 10, 50, 88
11, 260920, Note_off_c, 10, 50, 64
11, 261000, Note_on_c, 10, 48, 88
11, 261034, Note_off_c, 10, 48, 64
11, 261120, Note_on_c, 10, 43, 88
11, 261224, Note_off_c, 10, 43, 64
11, 261360, Note_on_c, 10, 45, 88
11, 261394, Note_off_c, 10, 45, 64
11, 261480, Note_on_c, 10, 47, 89
11, 261520, Note_off_c, 10, 47, 64
11, 261600, Note_on_c, 10, 48, 89
11, 261720, Note_off_c, 10, 48, 64
11, 261840, Note_on_c, 10, 50, 89
11, 261874, Note_off_c, 10, 50, 64
11, 261960, Note_on_c, 10, 48, 89
11, 262004, Note_off_c, 10, 48, 64
11, 262080, Note_on_c, 10, 47, 89
11, 262180, Note_off_c, 10, 47, 64
11, 262320, Note_on_c, 10, 48, 90
11, 262354, Note_off_c, 10, 48, 64
11, 262440, Note_on_c, 10, 50, 90
11, 262474, Note_off_c, 10, 50, 64
11, 262560, Note_on_c, 10, 52, 90
11, 262680, Note_off_c, 10, 52, 64
11, 262800, Note_on_c, 10, 50, 90
11, 262844, Note_off_c, 10, 50, 64
11, 262920, Note_on_c, 10, 52, 90
11, 262954, Note_off_c, 10, 52, 64
11, 263040, Note_on_c, 10, 53, 90
11, 263134, Note_off_c, 10, 53, 64
11, 263280, Note_on_c, 10, 55, 91
11, 263320, Note_off_c, 10, 55, 64
11, 263400, Note_on_c, 10, 57, 91
11, 263434, Note_off_c, 10, 57, 64
11, 263520, Note_on_c, 10, 55, 91
11, 263640, Note_off_c, 10, 55, 64
11, 263760, Note_on_c, 10, 57, 91
11, 263800, Note_off_c, 10, 57, 64
11, 263880, Note_on_c, 10, 54, 91
11, 263920, Note_off_c, 10, 54, 64
11, 264000, Note_on_c, 10, 55, 92
11, 264080, Note_off_c, 10, 55, 64
11, 264240, Note_on_c, 10, 43, 92
11, 264320, Note_off_c, 10, 43, 64
11, 264480, Note_on_c, 10, 48, 92
11, 264604, Note_off_c, 10, 48, 64
11, 264720, Note_on_c, 10, 50, 92
11, 264760, Note_off_c, 10, 50, 64
11, 264840, Note_on_c, 10, 48, 93
11, 264874, Note_off_c, 10, 48, 64
11, 264960, Note_on_c, 10, 43, 93
11, 265064, Note_off_c, 10, 43, 64
11, 265200, Note_on_c, 10, 45, 93
11, 265234, Note_off_c, 10, 45, 64
11, 265320, Note_on_c, 10, 47, 93
11, 265360, Note_off_c, 10, 47, 64
11, 265440, Note_on_c, 10, 48, 93
11, 265560, Note_off_c, 10, 48, 64
11, 265680, Note_on_c, 10, 50, 94
11, 265714, Note_off_c, 10, 50, 64
11, 265800, Note_on_c, 10, 48, 94
11, 265844, Note_off_c, 10, 48, 64
11, 265920, Note_on_c, 10, 47, 94
11, 266020, Note_off_c, 10, 47, 64
11, 266160, Note_on_c, 10, 48, 94
11, 266194, Note_off_c, 10, 48, 64
11, 266280, Note_on_c, 10, 50, 94
11, 266314, Note_off_c, 10, 50, 64
11, 266400, Note_on_c, 10, 52, 94
11, 266520, Note_off_c, 10, 52, 64
11, 266640, Note_on_c, 10, 50, 95
11, 266684, Note_off_c, 10, 50, 64
11, 266760, Note_on_c, 10, 52, 95
11, 266794, Note_off_c, 10, 52, 64
11, 266880, Note_on_c, 10, 53, 95
11, 266974, Note_off_c, 10, 53, 64
11, 267120, Note_on_c, 10, 55, 95
11, 267160, Note_off_c, 10, 55, 64
11, 267240, Note_on_c, 10, 57, 95
11, 267274, Note_off_c, 10, 57, 64
11, 267360, Note_on_c, 10, 55, 90
11, 267480, Note_off_c, 10, 55, 64
11, 267600, Note_on_c, 10, 57, 90
11, 267640, Note_off_c, 10, 57, 64
11, 267720, Note_on_c, 10, 54, 91
11, 267760, Note_off_c, 10, 54, 64
11, 267840, Note_on_c, 10, 55, 91
11, 267920, Note_off_c, 10, 55, 64
11, 268080, Note_on_c, 10, 43, 92
11, 268160, Note_off_c, 10, 43, 64
11, 268320, Note_on_c, 10, 48, 93
11, 268480, Note_off_c, 10, 48, 64
11, 268560, Note_on_c, 10, 50, 93
11, 268600, Note_off_c, 10, 50, 64
11, 268680, Note_on_c, 10, 48, 94
11, 268714, Note_off_c, 10, 48, 64
11, 268800, Note_on_c, 10, 43, 94
11, 268904, Note_off_c, 10, 43, 64
11, 269040, Note_on_c, 10, 45, 95
11, 269074, Note_off_c, 10, 45, 64
11, 269160, Note_on_c, 10, 47, 95
11, 269200, Note_off_c, 10, 47, 64
11, 269280, Note_on_c, 10, 48, 96
11, 269400, Note_off_c, 10, 48, 64
11, 269520, Note_on_c, 10, 50, 97
11, 269554, Note_off_c, 10, 50, 64
11, 269640, Note_on_c, 10, 48, 97
11, 269684, Note_off_c, 10, 48, 64
11, 269760, Note_on_c, 10, 47, 97
11, 269860, Note_off_c, 10, 47, 64
11, 270000, Note_on_c, 10, 48, 98
11, 270034, Note_off_c, 10, 48, 64
11, 270120, Note_on_c, 10, 50, 99
11, 270154, Note_off_c, 10, 50, 64
11, 270240, Note_on_c, 10, 52, 99
11, 270370, Note_off_c, 10, 52, 64
11, 270480, Note_on_c, 10, 53, 100
11, 270520, Note_off_c, 10, 53, 64
11, 270600, Note_on_c, 10, 52, 100
11, 270634, Note_off_c, 10, 52, 64
11, 270720, Note_on_c, 10, 50, 101
11, 270820, Note_off_c, 10, 50, 64
11, 270960, Note_on_c, 10, 52, 101
11, 271004, Note_off_c, 10, 52, 64
11, 271080, Note_on_c, 10, 53, 102
11, 271120, Note_off_c, 10, 53, 64
11, 271200, Note_on_c, 10, 55, 102
11, 271320, Note_off_c, 10, 55, 64
11, 271440, Note_on_c, 10, 57, 103
11, 271484, Note_off_c, 10, 57, 64
11, 271560, Note_on_c, 10, 53, 103
11, 271604, Note_off_c, 10, 53, 64
11, 271680, Note_on_c, 10, 55, 104
11, 271780, Note_off_c, 10, 55, 64
11, 271920, Note_on_c, 10, 57, 104
11, 271960, Note_off_c, 10, 57, 64
11, 272040, Note_on_c, 10, 59, 105
11, 272074, Note_off_c, 10, 59, 64
11, 272160, Note_on_c, 10, 60, 105
11, 272320, Note_off_c, 10, 60, 64
11, 272400, Note_on_c, 10, 62, 106
11, 272480, Note_off_c, 10, 62, 64
11, 272520, Note_on_c, 10, 59, 106
11, 272600, Note_off_c, 10, 59, 64
11, 272640, Note_on_c, 10, 60, 107
11, 272800, Note_off_c, 10, 60, 64
11, 272880, Note_on_c, 10, 62, 108
11, 272960, Note_off_c, 10, 62, 64
11, 273000, Note_on_c, 10, 59, 108
11, 273080, Note_off_c, 10, 59, 64
11, 273120, Note_on_c, 10, 60, 108
11, 273280, Note_off_c, 10, 60, 64
11, 273360, Note_on_c, 10, 62, 109
11, 273440, Note_off_c, 10, 62, 64
11, 273480, Note_on_c, 10, 59, 110
11, 273560, Note_off_c, 10, 59, 64
11, 273600, Note_on_c, 10, 60, 110
11, 273760, Note_off_c, 10, 60, 64
11, 273840, Note_on_c, 10, 62, 111
11, 273920, Note_off_c, 10, 62, 64
11, 273960, Note_on_c, 10, 59, 111
11, 274040, Note_off_c, 10, 59, 64
11, 274080, Note_on_c, 10, 60, 112
11, 274400, Note_off_c, 10, 60, 64
11, 275040, Note_on_c, 10, 48, 61
11, 275360, Note_off_c, 10, 48, 64
11, 276960, Control_c, 10, 93, 8
11, 276960, Control_c, 10, 91, 53
11, 276960, Control_c, 10, 10, 111
11, 276960, Control_c, 10, 7, 127
11, 276960, Control_c, 10, 0, 0
11, 276960, Control_c, 10, 32, 0
11, 276960, Program_c, 10, 48
11, 276960, Control_c, 10, 93, 8
11, 276960, Control_c, 10, 91, 53
11, 276960, Control_c, 10, 10, 111
11, 276960, Control_c, 10, 7, 127
11, 276960, Control_c, 10, 0, 0
11, 276960, Control_c, 10, 32, 0
11, 276960, Program_c, 10, 48
11, 283680, Note_on_c, 10, 55, 32
11, 283780, Note_off_c, 10, 55, 64
11, 284160, Note_on_c, 10, 57, 32
11, 284264, Note_off_c, 10, 57, 64
11, 284640, Note_on_c, 10, 53, 32
11, 284730, Note_off_c, 10, 53, 64
11, 285120, Note_on_c, 10, 55, 32
11, 285204, Note_off_c, 10, 55, 64
11, 285600, Note_on_c, 10, 53, 32
11, 285700, Note_off_c, 10, 53, 64
11, 286080, Note_on_c, 10, 50, 32
11, 286164, Note_off_c, 10, 50, 64
11, 286560, Note_on_c, 10, 52, 32
11, 286660, Note_off_c, 10, 52, 64
11, 287040, Note_on_c, 10, 50, 32
11, 287134, Note_off_c, 10, 50, 64
11, 287520, Note_on_c, 10, 45, 32
11, 287610, Note_off_c, 10, 45, 64
11, 288000, Note_on_c, 10, 45, 32
11, 288104, Note_off_c, 10, 45, 64
11, 288480, Note_on_c, 10, 45, 32
11, 288584, Note_off_c, 10, 45, 64
11, 289440, Note_on_c, 10, 45, 32
11, 289540, Note_off_c, 10, 45, 64
11, 289920, Note_on_c, 10, 50, 32
11, 290524, Note_off_c, 10, 50, 64
11, 291360, Note_on_c, 10, 50, 32
11, 291980, Note_off_c, 10, 50, 64
11, 292800, Note_on_c, 10, 50, 32
11, 293420, Note_off_c, 10, 50, 64
11, 294240, Note_on_c, 10, 50, 32
11, 294844, Note_off_c, 10, 50, 64
11, 295680, Note_on_c, 10, 50, 32
11, 296300, Note_off_c, 10, 50, 64
11, 297120, Note_on_c, 10, 50, 32
11, 297714, Note_off_c, 10, 50, 64
11, 298560, Note_on_c, 10, 50, 32
11, 299040, Note_off_c, 10, 50, 64
11, 299520, Note_on_c, 10, 45, 32
11, 299730, Note_off_c, 10, 45, 64
11, 300000, Note_on_c, 10, 50, 32
11, 300414, Note_off_c, 10, 50, 64
11, 306720, Note_on_c, 10, 55, 32
11, 306820, Note_off_c, 10, 55, 64
11, 307200, Note_on_c, 10, 57, 32
11, 307304, Note_off_c, 10, 57, 64
11, 307680, Note_on_c, 10, 53, 32
11, 307770, Note_off_c, 10, 53, 64
11, 308160, Note_on_c, 10, 55, 32
11, 308244, Note_off_c, 10, 55, 64
11, 308640, Note_on_c, 10, 53, 32
11, 308740, Note_off_c, 10, 53, 64
11, 309120, Note_on_c, 10, 50, 32
11, 309204, Note_off_c, 10, 50, 64
11, 309600, Note_on_c, 10, 52, 32
11, 309700, Note_off_c, 10, 52, 64
11, 310080, Note_on_c, 10, 50, 32
11, 310174, Note_off_c, 10, 50, 64
11, 310560, Note_on_c, 10, 45, 32
11, 310650, Note_off_c, 10, 45, 64
11, 311040, Note_on_c, 10, 45, 32
11, 311144, Note_off_c, 10, 45, 64
11, 311520, Note_on_c, 10, 45, 32
11, 311624, Note_off_c, 10, 45, 64
11, 312480, Note_on_c, 10, 45, 32
11, 312580, Note_off_c, 10, 45, 64
11, 312960, Note_on_c, 10, 50, 32
11, 313564, Note_off_c, 10, 50, 64
11, 314400, Note_on_c, 10, 50, 32
11, 315020, Note_off_c, 10, 50, 64
11, 315840, Note_on_c, 10, 50, 32
11, 316460, Note_off_c, 10, 50, 64
11, 317280, Note_on_c, 10, 50, 32
11, 317884, Note_off_c, 10, 50, 64
11, 318720, Note_on_c, 10, 50, 32
11, 319340, Note_off_c, 10, 50, 64
11, 320160, Note_on_c, 10, 50, 32
11, 320754, Note_off_c, 10, 50, 64
11, 321600, Note_on_c, 10, 50, 32
11, 322080, Note_off_c, 10, 50, 64
11, 322560, Note_on_c, 10, 45, 32
11, 322770, Note_off_c, 10, 45, 64
11, 323040, Note_on_c, 10, 50, 32
11, 323454, Note_off_c, 10, 50, 64
11, 333600, Note_on_c, 10, 43, 34
11, 333760, Note_off_c, 10, 43, 64
11, 334080, Note_on_c, 10, 45, 34
11, 334240, Note_off_c, 10, 45, 64
11, 334560, Note_on_c, 10, 47, 34
11, 334720, Note_off_c, 10, 47, 64
11, 335040, Note_on_c, 10, 43, 34
11, 335200, Note_off_c, 10, 43, 64
11, 335520, Note_on_c, 10, 43, 34
11, 335680, Note_off_c, 10, 43, 64
11, 336000, Note_on_c, 10, 48, 34
11, 336640, Note_off_c, 10, 48, 64
11, 337440, Note_on_c, 10, 48, 44
11, 338080, Note_off_c, 10, 48, 64
11, 338880, Note_on_c, 10, 48, 54
11, 339520, Note_off_c, 10, 48, 64
11, 340320, Note_on_c, 10, 48, 64
11, 340960, Note_off_c, 10, 48, 64
11, 341760, Note_on_c, 10, 48, 64
11, 342400, Note_off_c, 10, 48, 64
11, 343200, Note_on_c, 10, 48, 64
11, 343840, Note_off_c, 10, 48, 64
11, 344640, Note_on_c, 10, 48, 64
11, 345280, Note_off_c, 10, 48, 64
11, 345600, Note_on_c, 10, 43, 64
11, 345920, Note_off_c, 10, 43, 64
11, 346080, Note_on_c, 10, 48, 64
11, 346720, Note_off_c, 10, 48, 64
11, 347520, Note_on_c, 10, 60, 50
11, 347840, Note_off_c, 10, 60, 64
11, 348000, Note_on_c, 10, 57, 53
11, 348320, Note_off_c, 10, 57, 64
11, 348480, Note_on_c, 10, 58, 57
11, 348800, Note_off_c, 10, 58, 64
11, 348960, Note_on_c, 10, 57, 61
11, 349280, Note_off_c, 10, 57, 64
11, 349440, Note_on_c, 10, 53, 65
11, 349760, Note_off_c, 10, 53, 64
11, 349920, Note_on_c, 10, 55, 69
11, 350240, Note_off_c, 10, 55, 64
11, 350400, Note_on_c, 10, 53, 73
11, 350720, Note_off_c, 10, 53, 64
11, 350880, Note_on_c, 10, 48, 76
11, 351200, Note_off_c, 10, 48, 64
11, 351360, Note_on_c, 10, 55, 80
11, 351680, Note_off_c, 10, 55, 64
11, 351840, Note_on_c, 10, 57, 84
11, 352160, Note_off_c, 10, 57, 64
11, 352320, Note_on_c, 10, 53, 88
11, 352640, Note_off_c, 10, 53, 64
11, 352800, Note_on_c, 10, 48, 92
11, 353120, Note_off_c, 10, 48, 64
11, 353280, Note_on_c, 10, 53, 96
11, 353600, Note_off_c, 10, 53, 64
11, 353760, Note_on_c, 10, 48, 96
11, 354080, Note_off_c, 10, 48, 64
11, 354240, Note_on_c, 10, 50, 96
11, 354560, Note_off_c, 10, 50, 64
11, 354720, Note_on_c, 10, 48, 96
11, 355040, Note_off_c, 10, 48, 64
11, 355200, Note_on_c, 10, 45, 96
11, 355520, Note_off_c, 10, 45, 64
11, 355680, Note_on_c, 10, 46, 96
11, 356000, Note_off_c, 10, 46, 64
11, 356160, Note_on_c, 10, 45, 122
11, 356480, Note_off_c, 10, 45, 64
11, 356640, Note_on_c, 10, 41, 96
11, 356960, Note_off_c, 10, 41, 64
11, 357120, Note_on_c, 10, 43, 96
11, 357440, Note_off_c, 10, 43, 64
11, 357600, Note_on_c, 10, 45, 122
11, 357920, Note_off_c, 10, 45, 64
11, 358080, Note_on_c, 10, 41, 96
11, 358400, Note_off_c, 10, 41, 64
11, 358560, Note_on_c, 10, 43, 96
11, 358880, Note_off_c, 10, 43, 64
11, 359040, Note_on_c, 10, 45, 122
11, 359360, Note_off_c, 10, 45, 64
11, 359520, Note_on_c, 10, 41, 96
11, 359840, Note_off_c, 10, 41, 64
11, 360000, Note_on_c, 10, 43, 96
11, 360320, Note_off_c, 10, 43, 64
11, 360480, Note_on_c, 10, 45, 124
11, 360800, Note_off_c, 10, 45, 64
11, 360960, Note_on_c, 10, 41, 96
11, 361280, Note_off_c, 10, 41, 64
11, 361440, Note_on_c, 10, 43, 96
11, 361760, Note_off_c, 10, 43, 64
11, 361920, Note_on_c, 10, 45, 124
11, 362880, Note_off_c, 10, 45, 64
11, 363360, Note_on_c, 10, 43, 96
11, 364000, Note_off_c, 10, 43, 64
11, 364320, Note_on_c, 10, 41, 96
11, 364640, Note_off_c, 10, 41, 64
11, 364800, Note_on_c, 10, 40, 96
11, 365440, Note_off_c, 10, 40, 64
11, 365760, Note_on_c, 10, 38, 96
11, 366080, Note_off_c, 10, 38, 64
11, 366240, Note_on_c, 10, 36, 96
11, 366880, Note_off_c, 10, 36, 64
11, 367200, Note_on_c, 10, 46, 96
11, 367520, Note_off_c, 10, 46, 64
11, 367680, Note_on_c, 10, 45, 96
11, 368640, Note_off_c, 10, 45, 64
11, 369120, Note_on_c, 10, 46, 96
11, 370080, Note_off_c, 10, 46, 64
11, 370560, Note_on_c, 10, 48, 96
11, 371520, Note_off_c, 10, 48, 64
11, 372000, Note_on_c, 10, 48, 96
11, 372960, Note_off_c, 10, 48, 64
11, 373440, Note_on_c, 10, 53, 96
11, 373760, Note_off_c, 10, 53, 64
11, 374400, Note_on_c, 10, 57, 96
11, 374720, Note_off_c, 10, 57, 64
11, 374880, Note_on_c, 10, 55, 96
11, 375520, Note_off_c, 10, 55, 64
11, 375840, Note_on_c, 10, 53, 96
11, 376160, Note_off_c, 10, 53, 64
11, 376320, Note_on_c, 10, 52, 96
11, 376960, Note_off_c, 10, 52, 64
11, 377280, Note_on_c, 10, 50, 96
11, 377600, Note_off_c, 10, 50, 64
11, 377760, Note_on_c, 10, 48, 96
11, 378400, Note_off_c, 10, 48, 64
11, 378720, Note_on_c, 10, 58, 96
11, 379040, Note_off_c, 10, 58, 64
11, 379200, Note_on_c, 10, 57, 96
11, 380324, Note_off_c, 10, 57, 64
11, 380640, Note_on_c, 10, 58, 96
11, 381764, Note_off_c, 10, 58, 64
11, 382080, Note_on_c, 10, 60, 96
11, 383164, Note_off_c, 10, 60, 64
11, 383520, Note_on_c, 10, 48, 96
11, 384634, Note_off_c, 10, 48, 64
11, 384960, Note_on_c, 10, 53, 96
11, 385280, Note_off_c, 10, 53, 64
11, 389280, Note_on_c, 10, 48, 96
11, 389600, Note_off_c, 10, 48, 64
11, 389760, Note_on_c, 10, 48, 96
11, 390080, Note_off_c, 10, 48, 64
11, 390240, Note_on_c, 10, 48, 96
11, 390560, Note_off_c, 10, 48, 64
11, 390720, Note_on_c, 10, 41, 96
11, 391040, Note_off_c, 10, 41, 64
11, 395040, Note_on_c, 10, 48, 96
11, 395360, Note_off_c, 10, 48, 64
11, 395520, Note_on_c, 10, 48, 96
11, 395840, Note_off_c, 10, 48, 64
11, 396000, Note_on_c, 10, 48, 96
11, 396320, Note_off_c, 10, 48, 64
11, 396480, Note_on_c, 10, 41, 96
11, 396800, Note_off_c, 10, 41, 64
11, 399360, Note_on_c, 10, 41, 64
11, 399680, Note_off_c, 10, 41, 64
11, 461280, Note_on_c, 10, 55, 64
11, 462240, Note_off_c, 10, 55, 64
11, 462720, Note_on_c, 10, 48, 64
11, 463680, Note_off_c, 10, 48, 64
11, 464160, Note_on_c, 10, 43, 64
11, 465120, Note_off_c, 10, 43, 64
11, 465600, Note_on_c, 10, 36, 64
11, 466560, Note_off_c, 10, 36, 64
11, 467040, Note_on_c, 10, 48, 64
11, 468000, Note_off_c, 10, 48, 64
11, 468480, Note_on_c, 10, 41, 64
11, 468800, Note_off_c, 10, 41, 64
11, 491520, Note_on_c, 10, 41, 64
11, 496800, Note_off_c, 10, 41, 64
11, 497280, Note_on_c, 10, 53, 64
11, 497920, Note_off_c, 10, 53, 64
11, 498240, Note_on_c, 10, 58, 66
11, 498560, Note_off_c, 10, 58, 64
11, 498720, Note_on_c, 10, 60, 67
11, 499040, Note_off_c, 10, 60, 64
11, 499200, Note_on_c, 10, 57, 68
11, 499520, Note_off_c, 10, 57, 64
11, 499680, Note_on_c, 10, 58, 69
11, 500000, Note_off_c, 10, 58, 64
11, 500160, Note_on_c, 10, 55, 70
11, 500800, Note_off_c, 10, 55, 64
11, 501120, Note_on_c, 10, 57, 72
11, 501440, Note_off_c, 10, 57, 64
11, 501600, Note_on_c, 10, 58, 73
11, 501920, Note_off_c, 10, 58, 64
11, 502080, Note_on_c, 10, 55, 74
11, 502400, Note_off_c, 10, 55, 64
11, 502560, Note_on_c, 10, 57, 75
11, 502880, Note_off_c, 10, 57, 64
11, 503040, Note_on_c, 10, 41, 76
11, 503680, Note_off_c, 10, 41, 64
11, 504000, Note_on_c, 10, 46, 78
11, 504320, Note_off_c, 10, 46, 64
11, 504480, Note_on_c, 10, 48, 79
11, 504800, Note_off_c, 10, 48, 64
11, 504960, Note_on_c, 10, 46, 80
11, 505280, Note_off_c, 10, 46, 64
11, 505440, Note_on_c, 10, 45, 81
11, 505760, Note_off_c, 10, 45, 64
11, 505920, Note_on_c, 10, 43, 82
11, 506560, Note_off_c, 10, 43, 64
11, 506880, Note_on_c, 10, 45, 84
11, 507200, Note_off_c, 10, 45, 64
11, 507360, Note_on_c, 10, 46, 85
11, 507680, Note_off_c, 10, 46, 64
11, 507840, Note_on_c, 10, 43, 86
11, 508160, Note_off_c, 10, 43, 64
11, 508320, Note_on_c, 10, 45, 87
11, 508640, Note_off_c, 10, 45, 64
11, 508800, Note_on_c, 10, 41, 97
11, 509120, Note_off_c, 10, 41, 64
11, 509760, Note_on_c, 10, 46, 127
11, 509860, Note_off_c, 10, 46, 64
11, 510240, Note_on_c, 10, 48, 127
11, 510352, Note_off_c, 10, 48, 64
11, 510720, Note_on_c, 10, 45, 127
11, 510844, Note_off_c, 10, 45, 64
11, 511200, Note_on_c, 10, 46, 127
11, 511316, Note_off_c, 10, 46, 64
11, 511680, Note_on_c, 10, 46, 127
11, 511796, Note_off_c, 10, 46, 64
11, 512160, Note_on_c, 10, 43, 127
11, 512292, Note_off_c, 10, 43, 64
11, 512640, Note_on_c, 10, 45, 127
11, 512752, Note_off_c, 10, 45, 64
11, 513120, Note_on_c, 10, 45, 127
11, 513228, Note_off_c, 10, 45, 64
11, 513600, Note_on_c, 10, 41, 127
11, 513720, Note_off_c, 10, 41, 64
11, 514080, Note_on_c, 10, 43, 127
11, 514200, Note_off_c, 10, 43, 64
11, 514560, Note_on_c, 10, 41, 100
11, 515268, Note_off_c, 10, 41, 64
11, 515520, Note_on_c, 10, 41, 106
11, 516174, Note_off_c, 10, 41, 64
11, 516480, Note_on_c, 10, 46, 107
11, 517134, Note_off_c, 10, 46, 64
11, 517440, Note_on_c, 10, 41, 110
11, 517914, Note_off_c, 10, 41, 64
11, 517920, Note_on_c, 10, 46, 95
11, 518154, Note_off_c, 10, 46, 64
11, 518400, Note_on_c, 10, 41, 106
11, 519060, Note_off_c, 10, 41, 64
11, 519360, Note_on_c, 10, 41, 107
11, 520034, Note_off_c, 10, 41, 64
11, 520320, Note_on_c, 10, 46, 90
11, 520964, Note_off_c, 10, 46, 64
11, 521280, Note_on_c, 10, 41, 103
11, 521754, Note_off_c, 10, 41, 64
11, 521760, Note_on_c, 10, 46, 90
11, 521994, Note_off_c, 10, 46, 64
11, 522240, Note_on_c, 10, 41, 103
11, 522874, Note_off_c, 10, 41, 64
11, 523200, Note_on_c, 10, 41, 102
11, 523854, Note_off_c, 10, 41, 64
11, 524160, Note_on_c, 10, 46, 93
11, 524830, Note_off_c, 10, 46, 64
11, 525120, Note_on_c, 10, 41, 104
11, 525594, Note_off_c, 10, 41, 64
11, 525600, Note_on_c, 10, 46, 106
11, 525834, Note_off_c, 10, 46, 64
11, 526080, Note_on_c, 10, 41, 104
11, 526724, Note_off_c, 10, 41, 64
11, 527040, Note_on_c, 10, 41, 106
11, 527710, Note_off_c, 10, 41, 64
11, 528000, Note_on_c, 10, 46, 85
11, 528674, Note_off_c, 10, 46, 64
11, 528960, Note_on_c, 10, 41, 85
11, 529434, Note_off_c, 10, 41, 64
11, 529440, Note_on_c, 10, 46, 85
11, 529674, Note_off_c, 10, 46, 64
11, 531840, Note_on_c, 10, 53, 107
11, 532670, Note_off_c, 10, 53, 64
11, 532800, Note_on_c, 10, 48, 90
11, 533254, Note_off_c, 10, 48, 64
11, 533280, Note_on_c, 10, 41, 85
11, 533590, Note_off_c, 10, 41, 64
11, 535680, Note_on_c, 10, 53, 107
11, 536510, Note_off_c, 10, 53, 64
11, 536640, Note_on_c, 10, 48, 90
11, 537094, Note_off_c, 10, 48, 64
11, 537120, Note_on_c, 10, 41, 85
11, 537430, Note_off_c, 10, 41, 64
11, 537600, Note_on_c, 10, 48, 88
11, 537724, Note_off_c, 10, 48, 64
11, 537840, Note_on_c, 10, 50, 88
11, 537880, Note_off_c, 10, 50, 64
11, 537960, Note_on_c, 10, 48, 88
11, 537994, Note_off_c, 10, 48, 64
11, 538080, Note_on_c, 10, 43, 88
11, 538184, Note_off_c, 10, 43, 64
11, 538320, Note_on_c, 10, 45, 88
11, 538354, Note_off_c, 10, 45, 64
11, 538440, Note_on_c, 10, 47, 89
11, 538480, Note_off_c, 10, 47, 64
11, 538560, Note_on_c, 10, 48, 89
11, 538680, Note_off_c, 10, 48, 64
11, 538800, Note_on_c, 10, 50, 89
11, 538834, Note_off_c, 10, 50, 64
11, 538920, Note_on_c, 10, 48, 89
11, 538964, Note_off_c, 10, 48, 64
11, 539040, Note_on_c, 10, 47, 89
11, 539140, Note_off_c, 10, 47, 64
11, 539280, Note_on_c, 10, 48, 90
11, 539314, Note_off_c, 10, 48, 64
11, 539400, Note_on_c, 10, 50, 90
11, 539434, Note_off_c, 10, 50, 64
11, 539520, Note_on_c, 10, 52, 90
11, 539640, Note_off_c, 10, 52, 64
11, 539760, Note_on_c, 10, 50, 90
11, 539804, Note_off_c, 10, 50, 64
11, 539880, Note_on_c, 10, 52, 90
11, 539914, Note_off_c, 10, 52, 64
11, 540000, Note_on_c, 10, 53, 90
11, 540094, Note_off_c, 10, 53, 64
11, 540240, Note_on_c, 10, 55, 91
11, 540280, Note_off_c, 10, 55, 64
11, 540360, Note_on_c, 10, 57, 91
11, 540394, Note_off_c, 10, 57, 64
11, 540480, Note_on_c, 10, 55, 91
11, 540600, Note_off_c, 10, 55, 64
11, 540720, Note_on_c, 10, 57, 91
11, 540760, Note_off_c, 10, 57, 64
11, 540840, Note_on_c, 10, 54, 91
11, 540880, Note_off_c, 10, 54, 64
11, 540960, Note_on_c, 10, 55, 92
11, 541040, Note_off_c, 10, 55, 64
11, 541200, Note_on_c, 10, 43, 92
11, 541280, Note_off_c, 10, 43, 64
11, 541440, Note_on_c, 10, 48, 92
11, 541564, Note_off_c, 10, 48, 64
11, 541680, Note_on_c, 10, 50, 92
11, 541720, Note_off_c, 10, 50, 64
11, 541800, Note_on_c, 10, 48, 93
11, 541834, Note_off_c, 10, 48, 64
11, 541920, Note_on_c, 10, 43, 93
11, 542024, Note_off_c, 10, 43, 64
11, 542160, Note_on_c, 10, 45, 93
11, 542194, Note_off_c, 10, 45, 64
11, 542280, Note_on_c, 10, 47, 93
11, 542320, Note_off_c, 10, 47, 64
11, 542400, Note_on_c, 10, 48, 93
11, 542520, Note_off_c, 10, 48, 64
11, 542640, Note_on_c, 10, 50, 94
11, 542674, Note_off_c, 10, 50, 64
11, 542760, Note_on_c, 10, 48, 94
11, 542804, Note_off_c, 10, 48, 64
11, 542880, Note_on_c, 10, 47, 94
11, 542980, Note_off_c, 10, 47, 64
11, 543120, Note_on_c, 10, 48, 94
11, 543154, Note_off_c, 10, 48, 64
11, 543240, Note_on_c, 10, 50, 94
11, 543274, Note_off_c, 10, 50, 64
11, 543360, Note_on_c, 10, 52, 94
11, 543480, Note_off_c, 10, 52, 64
11, 543600, Note_on_c, 10, 50, 95
11, 543644, Note_off_c, 10, 50, 64
11, 543720, Note_on_c, 10, 52, 95
11, 543754, Note_off_c, 10, 52, 64
11, 543840, Note_on_c, 10, 53, 95
11, 543934, Note_off_c, 10, 53, 64
11, 544080, Note_on_c, 10, 55, 95
11, 544120, Note_off_c, 10, 55, 64
11, 544200, Note_on_c, 10, 57, 95
11, 544234, Note_off_c, 10, 57, 64
11, 544320, Note_on_c, 10, 55, 90
11, 544440, Note_off_c, 10, 55, 64
11, 544560, Note_on_c, 10, 57, 90
11, 544600, Note_off_c, 10, 57, 64
11, 544680, Note_on_c, 10, 54, 91
11, 544720, Note_off_c, 10, 54, 64
11, 544800, Note_on_c, 10, 55, 91
11, 544880, Note_off_c, 10, 55, 64
11, 545040, Note_on_c, 10, 43, 92
11, 545120, Note_off_c, 10, 43, 64
11, 545280, Note_on_c, 10, 48, 93
11, 545440, Note_off_c, 10, 48, 64
11, 545520, Note_on_c, 10, 50, 93
11, 545560, Note_off_c, 10, 50, 64
11, 545640, Note_on_c, 10, 48, 94
11, 545674, Note_off_c, 10, 48, 64
11, 545760, Note_on_c, 10, 43, 94
11, 545864, Note_off_c, 10, 43, 64
11, 546000, Note_on_c, 10, 45, 95
11, 546034, Note_off_c, 10, 45, 64
11, 546120, Note_on_c, 10, 47, 95
11, 546160, Note_off_c, 10, 47, 64
11, 546240, Note_on_c, 10, 48, 96
11, 546360, Note_off_c, 10, 48, 64
11, 546480, Note_on_c, 10, 50, 97
11, 546514, Note_off_c, 10, 50, 64
11, 546600, Note_on_c, 10, 48, 97
11, 546644, Note_off_c, 10, 48, 64
11, 546720, Note_on_c, 10, 47, 97
11, 546820, Note_off_c, 10, 47, 64
11, 546960, Note_on_c, 10, 48, 98
11, 546994, Note_off_c, 10, 48, 64
11, 547080, Note_on_c, 10, 50, 99
11, 547114, Note_off_c, 10, 50, 64
11, 547200, Note_on_c, 10, 52, 99
11, 547330, Note_off_c, 10, 52, 64
11, 547440, Note_on_c, 10, 53, 100
11, 547480, Note_off_c, 10, 53, 64
11, 547560, Note_on_c, 10, 52, 100
11, 547594, Note_off_c, 10, 52, 64
11, 547680, Note_on_c, 10, 50, 101
11, 547780, Note_off_c, 10, 50, 64
11, 547920, Note_on_c, 10, 52, 101
11, 547964, Note_off_c, 10, 52, 64
11, 548040, Note_on_c, 10, 53, 102
11, 548080, Note_off_c, 10, 53, 64
11, 548160, Note_on_c, 10, 55, 102
11, 548280, Note_off_c, 10, 55, 64
11, 548400, Note_on_c, 10, 57, 103
11, 548444, Note_off_c, 10, 57, 64
11, 548520, Note_on_c, 10, 53, 103
11, 548564, Note_off_c, 10, 53, 64
11, 548640, Note_on_c, 10, 55, 104
11, 548740, Note_off_c, 10, 55, 64
11, 548880, Note_on_c, 10, 57, 104
11, 548920, Note_off_c, 10, 57, 64
11, 549000, Note_on_c, 10, 59, 105
11, 549034, Note_off_c, 10, 59, 64
11, 549120, Note_on_c, 10, 60, 105
11, 549280, Note_off_c, 10, 60, 64
11, 549360, Note_on_c, 10, 62, 106
11, 549440, Note_off_c, 10, 62, 64
11, 549480, Note_on_c, 10, 59, 106
11, 549560, Note_off_c, 10, 59, 64
11, 549600, Note_on_c, 10, 60, 107
11, 549760, Note_off_c, 10, 60, 64
11, 549840, Note_on_c, 10, 62, 108
11, 549920, Note_off_c, 10, 62, 64
11, 549960, Note_on_c, 10, 59, 108
11, 550040, Note_off_c, 10, 59, 64
11, 550080, Note_on_c, 10, 60, 108
11, 550240, Note_off_c, 10, 60, 64
11, 550320, Note_on_c, 10, 62, 109
11, 550400, Note_off_c, 10, 62, 64
11, 550440, Note_on_c, 10, 59, 110
11, 550520, Note_off_c, 10, 59, 64
11, 550560, Note_on_c, 10, 60, 110
11, 550720, Note_off_c, 10, 60, 64
11, 550800, Note_on_c, 10, 62, 111
11, 550880, Note_off_c, 10, 62, 64
11, 550920, Note_on_c, 10, 59, 111
11, 551000, Note_off_c, 10, 59, 64
11, 551040, Note_on_c, 10, 60, 112
11, 551360, Note_off_c, 10, 60, 64
11, 552000, Note_on_c, 10, 48, 61
11, 552320, Note_off_c, 10, 48, 64
11, 560640, Note_on_c, 10, 55, 32
11, 560740, Note_off_c, 10, 55, 64
11, 561120, Note_on_c, 10, 57, 32
11, 561224, Note_off_c, 10, 57, 64
11, 561600, Note_on_c, 10, 53, 32
11, 561690, Note_off_c, 10, 53, 64
11, 562080, Note_on_c, 10, 55, 32
11, 562164, Note_off_c, 10, 55, 64
11, 562560, Note_on_c, 10, 53, 32
11, 562660, Note_off_c, 10, 53, 64
11, 563040, Note_on_c, 10, 50, 32
11, 563124, Note_off_c, 10, 50, 64
11, 563520, Note_on_c, 10, 52, 32
11, 563620, Note_off_c, 10, 52, 64
11, 564000, Note_on_c, 10, 50, 32
11, 564094, Note_off_c, 10, 50, 64
11, 564480, Note_on_c, 10, 45, 32
11, 564570, Note_off_c, 10, 45, 64
11, 564960, Note_on_c, 10, 45, 32
11, 565064, Note_off_c, 10, 45, 64
11, 565440, Note_on_c, 10, 45, 32
11, 565544, Note_off_c, 10, 45, 64
11, 566400, Note_on_c, 10, 45, 32
11, 566500, Note_off_c, 10, 45, 64
11, 566880, Note_on_c, 10, 50, 32
11, 567484, Note_off_c, 10, 50, 64
11, 568320, Note_on_c, 10, 50, 32
11, 568940, Note_off_c, 10, 50, 64
11, 569760, Note_on_c, 10, 50, 32
11, 570380, Note_off_c, 10, 50, 64
11, 575040, Note_on_c, 10, 46, 100
11, 575496, Note_off_c, 10, 46, 64
11, 575520, Note_on_c, 10, 48, 110
11, 576012, Note_off_c, 10, 48, 64
11, 578400, Note_on_c, 10, 48, 56
11, 578926, Note_off_c, 10, 48, 64
11, 579840, Control_c, 10, 0, 0
11, 579840, Control_c, 10, 32, 0
11, 579840, Program_c, 10, 45
11, 581280, Note_on_c, 10, 41, 51
11, 581736, Note_off_c, 10, 41, 64
11, 582720, Note_on_c, 10, 41, 51
11, 583176, Note_off_c, 10, 41, 64
11, 584160, Note_on_c, 10, 41, 51
11, 584616, Note_off_c, 10, 41, 64
11, 585600, Note_on_c, 10, 41, 51
11, 586056, Note_off_c, 10, 41, 64
11, 587040, Note_on_c, 10, 41, 51
11, 587496, Note_off_c, 10, 41, 64
11, 588480, Note_on_c, 10, 41, 51
11, 588936, Note_off_c, 10, 41, 64
11, 589920, Note_on_c, 10, 41, 51
11, 590376, Note_off_c, 10, 41, 64
11, 591360, Note_on_c, 10, 41, 51
11, 591816, Note_off_c, 10, 41, 64
11, 591840, Control_c, 10, 0, 0
11, 591840, Control_c, 10, 32, 0
11, 591840, Program_c, 10, 48
11, 592320, Note_on_c, 10, 48, 64
11, 592776, Note_off_c, 10, 48, 64
11, 592800, Note_on_c, 10, 53, 66
11, 593256, Note_off_c, 10, 53, 64
11, 593280, Note_on_c, 10, 48, 68
11, 593736, Note_off_c, 10, 48, 64
11, 593760, Note_on_c, 10, 50, 70
11, 594216, Note_off_c, 10, 50, 64
11, 594240, Note_on_c, 10, 48, 73
11, 594696, Note_off_c, 10, 48, 64
11, 594720, Note_on_c, 10, 45, 74
11, 595176, Note_off_c, 10, 45, 64
11, 595200, Note_on_c, 10, 46, 77
11, 595656, Note_off_c, 10, 46, 64
11, 595680, Note_on_c, 10, 45, 77
11, 596136, Note_off_c, 10, 45, 64
11, 596160, Note_on_c, 10, 41, 75
11, 596616, Note_off_c, 10, 41, 64
11, 596640, Note_on_c, 10, 43, 74
11, 597096, Note_off_c, 10, 43, 64
11, 597120, Note_on_c, 10, 45, 72
11, 597576, Note_off_c, 10, 45, 64
11, 597600, Note_on_c, 10, 41, 70
11, 598056, Note_off_c, 10, 41, 64
11, 598080, Note_on_c, 10, 48, 110
11, 598194, Note_off_c, 10, 48, 64
11, 598560, Note_on_c, 10, 53, 110
11, 598674, Note_off_c, 10, 53, 64
11, 599040, Note_on_c, 10, 48, 110
11, 599154, Note_off_c, 10, 48, 64
11, 599520, Note_on_c, 10, 50, 110
11, 599634, Note_off_c, 10, 50, 64
11, 600000, Note_on_c, 10, 48, 100
11, 600228, Note_off_c, 10, 48, 64
11, 600480, Note_on_c, 10, 45, 100
11, 600708, Note_off_c, 10, 45, 64
11, 600960, Note_on_c, 10, 46, 100
11, 601188, Note_off_c, 10, 46, 64
11, 601440, Note_on_c, 10, 45, 127
11, 601668, Note_off_c, 10, 45, 64
11, 601920, Note_on_c, 10, 41, 100
11, 602102, Note_off_c, 10, 41, 64
11, 602400, Note_on_c, 10, 43, 100
11, 602582, Note_off_c, 10, 43, 64
11, 602880, Note_on_c, 10, 45, 127
11, 603108, Note_off_c, 10, 45, 64
11, 603360, Note_on_c, 10, 41, 100
11, 603588, Note_off_c, 10, 41, 64
11, 603840, Note_on_c, 10, 43, 100
11, 604068, Note_off_c, 10, 43, 64
11, 604320, Note_on_c, 10, 45, 127
11, 604548, Note_off_c, 10, 45, 64
11, 604800, Note_on_c, 10, 41, 100
11, 605028, Note_off_c, 10, 41, 64
11, 605280, Note_on_c, 10, 43, 100
11, 605508, Note_off_c, 10, 43, 64
11, 605760, Note_on_c, 10, 45, 127
11, 605988, Note_off_c, 10, 45, 64
11, 606240, Note_on_c, 10, 41, 100
11, 606468, Note_off_c, 10, 41, 64
11, 606720, Note_on_c, 10, 43, 100
11, 606948, Note_off_c, 10, 43, 64
11, 607200, Note_on_c, 10, 45, 127
11, 608260, Note_off_c, 10, 45, 64
11, 608640, Note_on_c, 10, 43, 100
11, 609388, Note_off_c, 10, 43, 64
11, 609600, Note_on_c, 10, 41, 100
11, 609782, Note_off_c, 10, 41, 64
11, 610080, Note_on_c, 10, 40, 100
11, 610828, Note_off_c, 10, 40, 64
11, 611040, Note_on_c, 10, 38, 100
11, 611222, Note_off_c, 10, 38, 64
11, 611520, Note_on_c, 10, 36, 100
11, 612268, Note_off_c, 10, 36, 64
11, 612480, Note_on_c, 10, 46, 100
11, 612662, Note_off_c, 10, 46, 64
11, 612960, Note_on_c, 10, 45, 120
11, 614092, Note_off_c, 10, 45, 64
11, 614400, Note_on_c, 10, 46, 120
11, 615532, Note_off_c, 10, 46, 64
11, 615840, Note_on_c, 10, 48, 120
11, 616972, Note_off_c, 10, 48, 64
11, 617280, Note_on_c, 10, 48, 120
11, 618412, Note_off_c, 10, 48, 64
11, 618720, Note_on_c, 10, 53, 110
11, 619326, Note_off_c, 10, 53, 64
11, 619680, Note_on_c, 10, 57, 110
11, 619876, Note_off_c, 10, 57, 64
11, 620160, Note_on_c, 10, 55, 100
11, 620868, Note_off_c, 10, 55, 64
11, 621120, Note_on_c, 10, 53, 100
11, 621348, Note_off_c, 10, 53, 64
11, 621600, Note_on_c, 10, 52, 100
11, 622308, Note_off_c, 10, 52, 64
11, 622560, Note_on_c, 10, 50, 100
11, 622788, Note_off_c, 10, 50, 64
11, 623040, Note_on_c, 10, 48, 100
11, 623810, Note_off_c, 10, 48, 64
11, 624000, Note_on_c, 10, 58, 100
11, 624228, Note_off_c, 10, 58, 64
11, 624480, Note_on_c, 10, 57, 120
11, 625188, Note_off_c, 10, 57, 64
11, 625920, Note_on_c, 10, 58, 120
11, 626628, Note_off_c, 10, 58, 64
11, 627360, Note_on_c, 10, 60, 120
11, 628068, Note_off_c, 10, 60, 64
11, 628800, Note_on_c, 10, 48, 120
11, 629508, Note_off_c, 10, 48, 64
11, 630240, Note_on_c, 10, 53, 127
11, 630696, Note_off_c, 10, 53, 64
11, 634560, Note_on_c, 10, 48, 110
11, 634788, Note_off_c, 10, 48, 64
11, 635040, Note_on_c, 10, 48, 110
11, 635268, Note_off_c, 10, 48, 64
11, 635520, Note_on_c, 10, 48, 110
11, 635748, Note_off_c, 10, 48, 64
11, 636000, Note_on_c, 10, 41, 127
11, 636456, Note_off_c, 10, 41, 64
11, 640320, Note_on_c, 10, 48, 99
11, 640548, Note_off_c, 10, 48, 64
11, 640800, Note_on_c, 10, 48, 99
11, 641028, Note_off_c, 10, 48, 64
11, 641280, Note_on_c, 10, 48, 99
11, 641554, Note_off_c, 10, 48, 64
11, 641554, End_track
12, 0, Start_track
12, 0, Title_t, "Bass"
12, 0, MIDI_port, 0
12, 0, Channel_prefix, 11
12, 0, Control_c, 11, 7, 127
12, 0, Control_c, 11, 10, 127
12, 0, Control_c, 11, 0, 0
12, 0, Control_c, 11, 32, 0
12, 0, Control_c, 11, 91, 52
12, 0, Control_c, 11, 93, 10
12, 0, Program_c, 11, 48
12, 9600, Note_on_c, 11, 40, 38
12, 9710, Note_off_c, 11, 40, 64
12, 10080, Note_on_c, 11, 38, 38
12, 10184, Note_off_c, 11, 38, 64
12, 10560, Note_on_c, 11, 33, 38
12, 10660, Note_off_c, 11, 33, 64
12, 11040, Note_on_c, 11, 33, 38
12, 11144, Note_off_c, 11, 33, 64
12, 11520, Note_on_c, 11, 33, 38
12, 11610, Note_off_c, 11, 33, 64
12, 12480, Note_on_c, 11, 33, 38
12, 12574, Note_off_c, 11, 33, 64
12, 12960, Note_on_c, 11, 38, 38
12, 13280, Note_off_c, 11, 38, 64
12, 14400, Note_on_c, 11, 38, 38
12, 14720, Note_off_c, 11, 38, 64
12, 15840, Note_on_c, 11, 38, 38
12, 16160, Note_off_c, 11, 38, 64
12, 17280, Note_on_c, 11, 38, 38
12, 17600, Note_off_c, 11, 38, 64
12, 18720, Note_on_c, 11, 38, 38
12, 19040, Note_off_c, 11, 38, 64
12, 20160, Note_on_c, 11, 38, 38
12, 20480, Note_off_c, 11, 38, 64
12, 21600, Note_on_c, 11, 38, 38
12, 21920, Note_off_c, 11, 38, 64
12, 22560, Note_on_c, 11, 33, 38
12, 22720, Note_off_c, 11, 33, 64
12, 23040, Note_on_c, 11, 38, 38
12, 23360, Note_off_c, 11, 38, 64
12, 32640, Note_on_c, 11, 40, 38
12, 32750, Note_off_c, 11, 40, 64
12, 33120, Note_on_c, 11, 38, 38
12, 33224, Note_off_c, 11, 38, 64
12, 33600, Note_on_c, 11, 33, 38
12, 33700, Note_off_c, 11, 33, 64
12, 34080, Note_on_c, 11, 33, 38
12, 34184, Note_off_c, 11, 33, 64
12, 34560, Note_on_c, 11, 33, 38
12, 34650, Note_off_c, 11, 33, 64
12, 35520, Note_on_c, 11, 33, 38
12, 35614, Note_off_c, 11, 33, 64
12, 36000, Note_on_c, 11, 38, 38
12, 36320, Note_off_c, 11, 38, 64
12, 37440, Note_on_c, 11, 38, 38
12, 37760, Note_off_c, 11, 38, 64
12, 38880, Note_on_c, 11, 38, 38
12, 39200, Note_off_c, 11, 38, 64
12, 40320, Note_on_c, 11, 38, 38
12, 40640, Note_off_c, 11, 38, 64
12, 41760, Note_on_c, 11, 38, 38
12, 42080, Note_off_c, 11, 38, 64
12, 43200, Note_on_c, 11, 38, 38
12, 43520, Note_off_c, 11, 38, 64
12, 44640, Note_on_c, 11, 38, 38
12, 44960, Note_off_c, 11, 38, 64
12, 45600, Note_on_c, 11, 33, 38
12, 45760, Note_off_c, 11, 33, 64
12, 46080, Note_on_c, 11, 38, 38
12, 46400, Note_off_c, 11, 38, 64
12, 56640, Note_on_c, 11, 31, 34
12, 56800, Note_off_c, 11, 31, 64
12, 57120, Note_on_c, 11, 33, 34
12, 57280, Note_off_c, 11, 33, 64
12, 57600, Note_on_c, 11, 35, 34
12, 57760, Note_off_c, 11, 35, 64
12, 58080, Note_on_c, 11, 31, 34
12, 58240, Note_off_c, 11, 31, 64
12, 58560, Note_on_c, 11, 31, 34
12, 58720, Note_off_c, 11, 31, 64
12, 59040, Note_on_c, 11, 36, 34
12, 59680, Note_off_c, 11, 36, 64
12, 60480, Note_on_c, 11, 36, 44
12, 61120, Note_off_c, 11, 36, 64
12, 61920, Note_on_c, 11, 36, 54
12, 62560, Note_off_c, 11, 36, 64
12, 63360, Note_on_c, 11, 36, 64
12, 64000, Note_off_c, 11, 36, 64
12, 64800, Note_on_c, 11, 36, 64
12, 65440, Note_off_c, 11, 36, 64
12, 66240, Note_on_c, 11, 36, 64
12, 66880, Note_off_c, 11, 36, 64
12, 67680, Note_on_c, 11, 36, 64
12, 68320, Note_off_c, 11, 36, 64
12, 68640, Note_on_c, 11, 31, 64
12, 68960, Note_off_c, 11, 31, 64
12, 69120, Note_on_c, 11, 36, 64
12, 69760, Note_off_c, 11, 36, 64
12, 70560, Note_on_c, 11, 48, 50
12, 70880, Note_off_c, 11, 48, 64
12, 71040, Note_on_c, 11, 45, 53
12, 71360, Note_off_c, 11, 45, 64
12, 71520, Note_on_c, 11, 46, 57
12, 71840, Note_off_c, 11, 46, 64
12, 72000, Note_on_c, 11, 45, 61
12, 72320, Note_off_c, 11, 45, 64
12, 72480, Note_on_c, 11, 41, 65
12, 72800, Note_off_c, 11, 41, 64
12, 72960, Note_on_c, 11, 43, 69
12, 73280, Note_off_c, 11, 43, 64
12, 73440, Note_on_c, 11, 41, 73
12, 73760, Note_off_c, 11, 41, 64
12, 73920, Note_on_c, 11, 36, 76
12, 74240, Note_off_c, 11, 36, 64
12, 74400, Note_on_c, 11, 43, 80
12, 74720, Note_off_c, 11, 43, 64
12, 74880, Note_on_c, 11, 45, 84
12, 75200, Note_off_c, 11, 45, 64
12, 75360, Note_on_c, 11, 41, 88
12, 75680, Note_off_c, 11, 41, 64
12, 75840, Note_on_c, 11, 36, 92
12, 76160, Note_off_c, 11, 36, 64
12, 76320, Note_on_c, 11, 41, 96
12, 76640, Note_off_c, 11, 41, 64
12, 76800, Note_on_c, 11, 36, 96
12, 77120, Note_off_c, 11, 36, 64
12, 77280, Note_on_c, 11, 38, 96
12, 77600, Note_off_c, 11, 38, 64
12, 77760, Note_on_c, 11, 36, 96
12, 78080, Note_off_c, 11, 36, 64
12, 78240, Note_on_c, 11, 33, 96
12, 78560, Note_off_c, 11, 33, 64
12, 78720, Note_on_c, 11, 34, 96
12, 79040, Note_off_c, 11, 34, 64
12, 79200, Note_on_c, 11, 33, 116
12, 79520, Note_off_c, 11, 33, 64
12, 79680, Note_on_c, 11, 29, 96
12, 80000, Note_off_c, 11, 29, 64
12, 80160, Note_on_c, 11, 31, 96
12, 80480, Note_off_c, 11, 31, 64
12, 80640, Note_on_c, 11, 33, 115
12, 80960, Note_off_c, 11, 33, 64
12, 81120, Note_on_c, 11, 29, 96
12, 81440, Note_off_c, 11, 29, 64
12, 81600, Note_on_c, 11, 31, 96
12, 81920, Note_off_c, 11, 31, 64
12, 82080, Note_on_c, 11, 33, 116
12, 82400, Note_off_c, 11, 33, 64
12, 82560, Note_on_c, 11, 29, 96
12, 82880, Note_off_c, 11, 29, 64
12, 83040, Note_on_c, 11, 31, 96
12, 83360, Note_off_c, 11, 31, 64
12, 83520, Note_on_c, 11, 33, 118
12, 83840, Note_off_c, 11, 33, 64
12, 84000, Note_on_c, 11, 29, 96
12, 84320, Note_off_c, 11, 29, 64
12, 84480, Note_on_c, 11, 31, 96
12, 84800, Note_off_c, 11, 31, 64
12, 84960, Note_on_c, 11, 33, 118
12, 85920, Note_off_c, 11, 33, 64
12, 86400, Note_on_c, 11, 31, 96
12, 87040, Note_off_c, 11, 31, 64
12, 87360, Note_on_c, 11, 41, 96
12, 87680, Note_off_c, 11, 41, 64
12, 87840, Note_on_c, 11, 40, 96
12, 88480, Note_off_c, 11, 40, 64
12, 88800, Note_on_c, 11, 38, 96
12, 89120, Note_off_c, 11, 38, 64
12, 89280, Note_on_c, 11, 36, 96
12, 89920, Note_off_c, 11, 36, 64
12, 90240, Note_on_c, 11, 34, 96
12, 90560, Note_off_c, 11, 34, 64
12, 90720, Note_on_c, 11, 33, 96
12, 91680, Note_off_c, 11, 33, 64
12, 92160, Note_on_c, 11, 34, 96
12, 93120, Note_off_c, 11, 34, 64
12, 93600, Note_on_c, 11, 36, 96
12, 94560, Note_off_c, 11, 36, 64
12, 95040, Note_on_c, 11, 36, 96
12, 96000, Note_off_c, 11, 36, 64
12, 96480, Note_on_c, 11, 41, 96
12, 96800, Note_off_c, 11, 41, 64
12, 97440, Note_on_c, 11, 45, 96
12, 97760, Note_off_c, 11, 45, 64
12, 97920, Note_on_c, 11, 43, 96
12, 98560, Note_off_c, 11, 43, 64
12, 98880, Note_on_c, 11, 41, 96
12, 99200, Note_off_c, 11, 41, 64
12, 99360, Note_on_c, 11, 40, 96
12, 100000, Note_off_c, 11, 40, 64
12, 100320, Note_on_c, 11, 38, 96
12, 100640, Note_off_c, 11, 38, 64
12, 100800, Note_on_c, 11, 36, 96
12, 101440, Note_off_c, 11, 36, 64
12, 101760, Note_on_c, 11, 46, 96
12, 102080, Note_off_c, 11, 46, 64
12, 102240, Note_on_c, 11, 45, 96
12, 103354, Note_off_c, 11, 45, 64
12, 103680, Note_on_c, 11, 46, 96
12, 104820, Note_off_c, 11, 46, 64
12, 105120, Note_on_c, 11, 48, 96
12, 106240, Note_off_c, 11, 48, 64
12, 106560, Note_on_c, 11, 36, 96
12, 107664, Note_off_c, 11, 36, 64
12, 108000, Note_on_c, 11, 41, 96
12, 108320, Note_off_c, 11, 41, 64
12, 112320, Note_on_c, 11, 36, 96
12, 112640, Note_off_c, 11, 36, 64
12, 112800, Note_on_c, 11, 36, 96
12, 113120, Note_off_c, 11, 36, 64
12, 113280, Note_on_c, 11, 36, 96
12, 113600, Note_off_c, 11, 36, 64
12, 113760, Note_on_c, 11, 29, 96
12, 114080, Note_off_c, 11, 29, 64
12, 118080, Note_on_c, 11, 36, 96
12, 118400, Note_off_c, 11, 36, 64
12, 118560, Note_on_c, 11, 36, 96
12, 118880, Note_off_c, 11, 36, 64
12, 119040, Note_on_c, 11, 36, 96
12, 119360, Note_off_c, 11, 36, 64
12, 119520, Note_on_c, 11, 29, 96
12, 119840, Note_off_c, 11, 29, 64
12, 122400, Note_on_c, 11, 29, 64
12, 122720, Note_off_c, 11, 29, 64
12, 214560, Note_on_c, 11, 29, 64
12, 215040, Note_off_c, 11, 29, 64
12, 226080, Note_on_c, 11, 29, 76
12, 226128, Note_off_c, 11, 29, 64
12, 227040, Note_on_c, 11, 34, 78
12, 227360, Note_off_c, 11, 34, 64
12, 227520, Note_on_c, 11, 36, 79
12, 227840, Note_off_c, 11, 36, 64
12, 228000, Note_on_c, 11, 34, 80
12, 228320, Note_off_c, 11, 34, 64
12, 228480, Note_on_c, 11, 33, 81
12, 228800, Note_off_c, 11, 33, 64
12, 228960, Note_on_c, 11, 31, 82
12, 229600, Note_off_c, 11, 31, 64
12, 229920, Note_on_c, 11, 33, 84
12, 230240, Note_off_c, 11, 33, 64
12, 230400, Note_on_c, 11, 34, 85
12, 230720, Note_off_c, 11, 34, 64
12, 230880, Note_on_c, 11, 31, 86
12, 231200, Note_off_c, 11, 31, 64
12, 231360, Note_on_c, 11, 33, 87
12, 231680, Note_off_c, 11, 33, 64
12, 231840, Note_on_c, 11, 29, 96
12, 232160, Note_off_c, 11, 29, 64
12, 232800, Note_on_c, 11, 34, 102
12, 232954, Note_off_c, 11, 34, 64
12, 233280, Note_on_c, 11, 36, 110
12, 233430, Note_off_c, 11, 36, 64
12, 233760, Note_on_c, 11, 33, 102
12, 234080, Note_off_c, 11, 33, 64
12, 234240, Note_on_c, 11, 34, 102
12, 234560, Note_off_c, 11, 34, 64
12, 234720, Note_on_c, 11, 34, 114
12, 235040, Note_off_c, 11, 34, 64
12, 235200, Note_on_c, 11, 31, 102
12, 235520, Note_off_c, 11, 31, 64
12, 235680, Note_on_c, 11, 33, 102
12, 236000, Note_off_c, 11, 33, 64
12, 236160, Note_on_c, 11, 33, 113
12, 236480, Note_off_c, 11, 33, 64
12, 236640, Note_on_c, 11, 29, 102
12, 236960, Note_off_c, 11, 29, 64
12, 237120, Note_on_c, 11, 31, 102
12, 237440, Note_off_c, 11, 31, 64
12, 237600, Note_on_c, 11, 29, 85
12, 238380, Note_off_c, 11, 29, 64
12, 238560, Note_on_c, 11, 29, 85
12, 239340, Note_off_c, 11, 29, 64
12, 239520, Note_on_c, 11, 34, 85
12, 240320, Note_off_c, 11, 34, 64
12, 240480, Note_on_c, 11, 29, 85
12, 240954, Note_off_c, 11, 29, 64
12, 240960, Note_on_c, 11, 34, 85
12, 241194, Note_off_c, 11, 34, 64
12, 241440, Note_on_c, 11, 29, 85
12, 242214, Note_off_c, 11, 29, 64
12, 242400, Note_on_c, 11, 29, 85
12, 243184, Note_off_c, 11, 29, 64
12, 243360, Note_on_c, 11, 34, 85
12, 244144, Note_off_c, 11, 34, 64
12, 244320, Note_on_c, 11, 29, 85
12, 244794, Note_off_c, 11, 29, 64
12, 244800, Note_on_c, 11, 34, 85
12, 245034, Note_off_c, 11, 34, 64
12, 245280, Note_on_c, 11, 29, 85
12, 246074, Note_off_c, 11, 29, 64
12, 246240, Note_on_c, 11, 29, 85
12, 247034, Note_off_c, 11, 29, 64
12, 247200, Note_on_c, 11, 34, 85
12, 247970, Note_off_c, 11, 34, 64
12, 248160, Note_on_c, 11, 29, 85
12, 248634, Note_off_c, 11, 29, 64
12, 248640, Note_on_c, 11, 34, 85
12, 248874, Note_off_c, 11, 34, 64
12, 249120, Note_on_c, 11, 29, 85
12, 249910, Note_off_c, 11, 29, 64
12, 250080, Note_on_c, 11, 29, 85
12, 250854, Note_off_c, 11, 29, 64
12, 251040, Note_on_c, 11, 34, 85
12, 251844, Note_off_c, 11, 34, 64
12, 252000, Note_on_c, 11, 29, 85
12, 252474, Note_off_c, 11, 29, 64
12, 252480, Note_on_c, 11, 34, 85
12, 252714, Note_off_c, 11, 34, 64
12, 254880, Note_on_c, 11, 41, 101
12, 255710, Note_off_c, 11, 41, 64
12, 255840, Note_on_c, 11, 36, 85
12, 256314, Note_off_c, 11, 36, 64
12, 256320, Note_on_c, 11, 29, 85
12, 256640, Note_off_c, 11, 29, 64
12, 258720, Note_on_c, 11, 41, 101
12, 259550, Note_off_c, 11, 41, 64
12, 259680, Note_on_c, 11, 36, 85
12, 260154, Note_off_c, 11, 36, 64
12, 260160, Note_on_c, 11, 29, 85
12, 260480, Note_off_c, 11, 29, 64
12, 260640, Note_on_c, 11, 36, 88
12, 260764, Note_off_c, 11, 36, 64
12, 260880, Note_on_c, 11, 38, 88
12, 260920, Note_off_c, 11, 38, 64
12, 261000, Note_on_c, 11, 36, 88
12, 261034, Note_off_c, 11, 36, 64
12, 261120, Note_on_c, 11, 31, 88
12, 261224, Note_off_c, 11, 31, 64
12, 261360, Note_on_c, 11, 33, 88
12, 261394, Note_off_c, 11, 33, 64
12, 261480, Note_on_c, 11, 35, 89
12, 261520, Note_off_c, 11, 35, 64
12, 261600, Note_on_c, 11, 36, 89
12, 261720, Note_off_c, 11, 36, 64
12, 261840, Note_on_c, 11, 38, 89
12, 261874, Note_off_c, 11, 38, 64
12, 261960, Note_on_c, 11, 36, 89
12, 262004, Note_off_c, 11, 36, 64
12, 262080, Note_on_c, 11, 35, 89
12, 262180, Note_off_c, 11, 35, 64
12, 262320, Note_on_c, 11, 36, 90
12, 262354, Note_off_c, 11, 36, 64
12, 262440, Note_on_c, 11, 38, 90
12, 262474, Note_off_c, 11, 38, 64
12, 262560, Note_on_c, 11, 40, 90
12, 262680, Note_off_c, 11, 40, 64
12, 262800, Note_on_c, 11, 38, 90
12, 262844, Note_off_c, 11, 38, 64
12, 262920, Note_on_c, 11, 40, 90
12, 262954, Note_off_c, 11, 40, 64
12, 263040, Note_on_c, 11, 41, 90
12, 263134, Note_off_c, 11, 41, 64
12, 263280, Note_on_c, 11, 43, 91
12, 263320, Note_off_c, 11, 43, 64
12, 263400, Note_on_c, 11, 45, 91
12, 263434, Note_off_c, 11, 45, 64
12, 263520, Note_on_c, 11, 43, 91
12, 263640, Note_off_c, 11, 43, 64
12, 263760, Note_on_c, 11, 45, 91
12, 263800, Note_off_c, 11, 45, 64
12, 263880, Note_on_c, 11, 42, 91
12, 263920, Note_off_c, 11, 42, 64
12, 264000, Note_on_c, 11, 43, 92
12, 264080, Note_off_c, 11, 43, 64
12, 264240, Note_on_c, 11, 31, 92
12, 264320, Note_off_c, 11, 31, 64
12, 264480, Note_on_c, 11, 36, 92
12, 264604, Note_off_c, 11, 36, 64
12, 264720, Note_on_c, 11, 38, 92
12, 264760, Note_off_c, 11, 38, 64
12, 264840, Note_on_c, 11, 36, 93
12, 264874, Note_off_c, 11, 36, 64
12, 264960, Note_on_c, 11, 31, 93
12, 265064, Note_off_c, 11, 31, 64
12, 265200, Note_on_c, 11, 33, 93
12, 265234, Note_off_c, 11, 33, 64
12, 265320, Note_on_c, 11, 35, 93
12, 265360, Note_off_c, 11, 35, 64
12, 265440, Note_on_c, 11, 36, 93
12, 265560, Note_off_c, 11, 36, 64
12, 265680, Note_on_c, 11, 38, 94
12, 265714, Note_off_c, 11, 38, 64
12, 265800, Note_on_c, 11, 36, 94
12, 265844, Note_off_c, 11, 36, 64
12, 265920, Note_on_c, 11, 35, 94
12, 266020, Note_off_c, 11, 35, 64
12, 266160, Note_on_c, 11, 36, 94
12, 266194, Note_off_c, 11, 36, 64
12, 266280, Note_on_c, 11, 38, 94
12, 266314, Note_off_c, 11, 38, 64
12, 266400, Note_on_c, 11, 40, 94
12, 266520, Note_off_c, 11, 40, 64
12, 266640, Note_on_c, 11, 38, 95
12, 266684, Note_off_c, 11, 38, 64
12, 266760, Note_on_c, 11, 40, 95
12, 266794, Note_off_c, 11, 40, 64
12, 266880, Note_on_c, 11, 41, 95
12, 266974, Note_off_c, 11, 41, 64
12, 267120, Note_on_c, 11, 43, 95
12, 267160, Note_off_c, 11, 43, 64
12, 267240, Note_on_c, 11, 45, 95
12, 267274, Note_off_c, 11, 45, 64
12, 267360, Note_on_c, 11, 43, 90
12, 267480, Note_off_c, 11, 43, 64
12, 267600, Note_on_c, 11, 45, 90
12, 267640, Note_off_c, 11, 45, 64
12, 267720, Note_on_c, 11, 42, 91
12, 267760, Note_off_c, 11, 42, 64
12, 267840, Note_on_c, 11, 43, 91
12, 267920, Note_off_c, 11, 43, 64
12, 268080, Note_on_c, 11, 31, 92
12, 268160, Note_off_c, 11, 31, 64
12, 268320, Note_on_c, 11, 36, 93
12, 268480, Note_off_c, 11, 36, 64
12, 268560, Note_on_c, 11, 38, 93
12, 268600, Note_off_c, 11, 38, 64
12, 268680, Note_on_c, 11, 36, 94
12, 268714, Note_off_c, 11, 36, 64
12, 268800, Note_on_c, 11, 31, 94
12, 268904, Note_off_c, 11, 31, 64
12, 269040, Note_on_c, 11, 33, 95
12, 269074, Note_off_c, 11, 33, 64
12, 269160, Note_on_c, 11, 35, 95
12, 269200, Note_off_c, 11, 35, 64
12, 269280, Note_on_c, 11, 36, 96
12, 269400, Note_off_c, 11, 36, 64
12, 269520, Note_on_c, 11, 38, 97
12, 269554, Note_off_c, 11, 38, 64
12, 269640, Note_on_c, 11, 36, 97
12, 269684, Note_off_c, 11, 36, 64
12, 269760, Note_on_c, 11, 35, 97
12, 269860, Note_off_c, 11, 35, 64
12, 270000, Note_on_c, 11, 36, 98
12, 270034, Note_off_c, 11, 36, 64
12, 270120, Note_on_c, 11, 38, 99
12, 270154, Note_off_c, 11, 38, 64
12, 270240, Note_on_c, 11, 40, 99
12, 270370, Note_off_c, 11, 40, 64
12, 270480, Note_on_c, 11, 41, 100
12, 270520, Note_off_c, 11, 41, 64
12, 270600, Note_on_c, 11, 40, 100
12, 270634, Note_off_c, 11, 40, 64
12, 270720, Note_on_c, 11, 38, 101
12, 270820, Note_off_c, 11, 38, 64
12, 270960, Note_on_c, 11, 40, 101
12, 271004, Note_off_c, 11, 40, 64
12, 271080, Note_on_c, 11, 41, 102
12, 271120, Note_off_c, 11, 41, 64
12, 271200, Note_on_c, 11, 43, 102
12, 271320, Note_off_c, 11, 43, 64
12, 271440, Note_on_c, 11, 45, 103
12, 271484, Note_off_c, 11, 45, 64
12, 271560, Note_on_c, 11, 41, 103
12, 271604, Note_off_c, 11, 41, 64
12, 271680, Note_on_c, 11, 43, 104
12, 271780, Note_off_c, 11, 43, 64
12, 271920, Note_on_c, 11, 45, 104
12, 271960, Note_off_c, 11, 45, 64
12, 272040, Note_on_c, 11, 47, 105
12, 272074, Note_off_c, 11, 47, 64
12, 272160, Note_on_c, 11, 48, 105
12, 272320, Note_off_c, 11, 48, 64
12, 272400, Note_on_c, 11, 50, 106
12, 272480, Note_off_c, 11, 50, 64
12, 272520, Note_on_c, 11, 47, 106
12, 272600, Note_off_c, 11, 47, 64
12, 272640, Note_on_c, 11, 48, 107
12, 272800, Note_off_c, 11, 48, 64
12, 272880, Note_on_c, 11, 50, 108
12, 272960, Note_off_c, 11, 50, 64
12, 273000, Note_on_c, 11, 47, 108
12, 273080, Note_off_c, 11, 47, 64
12, 273120, Note_on_c, 11, 48, 108
12, 273280, Note_off_c, 11, 48, 64
12, 273360, Note_on_c, 11, 50, 109
12, 273440, Note_off_c, 11, 50, 64
12, 273480, Note_on_c, 11, 47, 110
12, 273560, Note_off_c, 11, 47, 64
12, 273600, Note_on_c, 11, 48, 110
12, 273760, Note_off_c, 11, 48, 64
12, 273840, Note_on_c, 11, 50, 111
12, 273920, Note_off_c, 11, 50, 64
12, 273960, Note_on_c, 11, 47, 111
12, 274040, Note_off_c, 11, 47, 64
12, 274080, Note_on_c, 11, 48, 112
12, 274400, Note_off_c, 11, 48, 64
12, 275040, Note_on_c, 11, 36, 67
12, 275360, Note_off_c, 11, 36, 64
12, 276960, Control_c, 11, 93, 10
12, 276960, Control_c, 11, 91, 52
12, 276960, Control_c, 11, 10, 127
12, 276960, Control_c, 11, 7, 127
12, 276960, Control_c, 11, 0, 0
12, 276960, Control_c, 11, 32, 0
12, 276960, Program_c, 11, 48
12, 276960, Control_c, 11, 93, 10
12, 276960, Control_c, 11, 91, 52
12, 276960, Control_c, 11, 10, 127
12, 276960, Control_c, 11, 7, 127
12, 276960, Control_c, 11, 0, 0
12, 276960, Control_c, 11, 32, 0
12, 276960, Program_c, 11, 48
12, 286560, Note_on_c, 11, 40, 38
12, 286670, Note_off_c, 11, 40, 64
12, 287040, Note_on_c, 11, 38, 38
12, 287144, Note_off_c, 11, 38, 64
12, 287520, Note_on_c, 11, 33, 38
12, 287620, Note_off_c, 11, 33, 64
12, 288000, Note_on_c, 11, 33, 38
12, 288104, Note_off_c, 11, 33, 64
12, 288480, Note_on_c, 11, 33, 38
12, 288570, Note_off_c, 11, 33, 64
12, 289440, Note_on_c, 11, 33, 38
12, 289534, Note_off_c, 11, 33, 64
12, 289920, Note_on_c, 11, 38, 38
12, 290240, Note_off_c, 11, 38, 64
12, 291360, Note_on_c, 11, 38, 38
12, 291680, Note_off_c, 11, 38, 64
12, 292800, Note_on_c, 11, 38, 38
12, 293120, Note_off_c, 11, 38, 64
12, 294240, Note_on_c, 11, 38, 38
12, 294560, Note_off_c, 11, 38, 64
12, 295680, Note_on_c, 11, 38, 38
12, 296000, Note_off_c, 11, 38, 64
12, 297120, Note_on_c, 11, 38, 38
12, 297440, Note_off_c, 11, 38, 64
12, 298560, Note_on_c, 11, 38, 38
12, 298880, Note_off_c, 11, 38, 64
12, 299520, Note_on_c, 11, 33, 38
12, 299680, Note_off_c, 11, 33, 64
12, 300000, Note_on_c, 11, 38, 38
12, 300320, Note_off_c, 11, 38, 64
12, 309600, Note_on_c, 11, 40, 38
12, 309710, Note_off_c, 11, 40, 64
12, 310080, Note_on_c, 11, 38, 38
12, 310184, Note_off_c, 11, 38, 64
12, 310560, Note_on_c, 11, 33, 38
12, 310660, Note_off_c, 11, 33, 64
12, 311040, Note_on_c, 11, 33, 38
12, 311144, Note_off_c, 11, 33, 64
12, 311520, Note_on_c, 11, 33, 38
12, 311610, Note_off_c, 11, 33, 64
12, 312480, Note_on_c, 11, 33, 38
12, 312574, Note_off_c, 11, 33, 64
12, 312960, Note_on_c, 11, 38, 38
12, 313280, Note_off_c, 11, 38, 64
12, 314400, Note_on_c, 11, 38, 38
12, 314720, Note_off_c, 11, 38, 64
12, 315840, Note_on_c, 11, 38, 38
12, 316160, Note_off_c, 11, 38, 64
12, 317280, Note_on_c, 11, 38, 38
12, 317600, Note_off_c, 11, 38, 64
12, 318720, Note_on_c, 11, 38, 38
12, 319040, Note_off_c, 11, 38, 64
12, 320160, Note_on_c, 11, 38, 38
12, 320480, Note_off_c, 11, 38, 64
12, 321600, Note_on_c, 11, 38, 38
12, 321920, Note_off_c, 11, 38, 64
12, 322560, Note_on_c, 11, 33, 38
12, 322720, Note_off_c, 11, 33, 64
12, 323040, Note_on_c, 11, 38, 38
12, 323360, Note_off_c, 11, 38, 64
12, 333600, Note_on_c, 11, 31, 34
12, 333760, Note_off_c, 11, 31, 64
12, 334080, Note_on_c, 11, 33, 34
12, 334240, Note_off_c, 11, 33, 64
12, 334560, Note_on_c, 11, 35, 34
12, 334720, Note_off_c, 11, 35, 64
12, 335040, Note_on_c, 11, 31, 34
12, 335200, Note_off_c, 11, 31, 64
12, 335520, Note_on_c, 11, 31, 34
12, 335680, Note_off_c, 11, 31, 64
12, 336000, Note_on_c, 11, 36, 34
12, 336640, Note_off_c, 11, 36, 64
12, 337440, Note_on_c, 11, 36, 44
12, 338080, Note_off_c, 11, 36, 64
12, 338880, Note_on_c, 11, 36, 54
12, 339520, Note_off_c, 11, 36, 64
12, 340320, Note_on_c, 11, 36, 64
12, 340960, Note_off_c, 11, 36, 64
12, 341760, Note_on_c, 11, 36, 64
12, 342400, Note_off_c, 11, 36, 64
12, 343200, Note_on_c, 11, 36, 64
12, 343840, Note_off_c, 11, 36, 64
12, 344640, Note_on_c, 11, 36, 64
12, 345280, Note_off_c, 11, 36, 64
12, 345600, Note_on_c, 11, 31, 64
12, 345920, Note_off_c, 11, 31, 64
12, 346080, Note_on_c, 11, 36, 64
12, 346720, Note_off_c, 11, 36, 64
12, 347520, Note_on_c, 11, 48, 50
12, 347840, Note_off_c, 11, 48, 64
12, 348000, Note_on_c, 11, 45, 53
12, 348320, Note_off_c, 11, 45, 64
12, 348480, Note_on_c, 11, 46, 57
12, 348800, Note_off_c, 11, 46, 64
12, 348960, Note_on_c, 11, 45, 61
12, 349280, Note_off_c, 11, 45, 64
12, 349440, Note_on_c, 11, 41, 65
12, 349760, Note_off_c, 11, 41, 64
12, 349920, Note_on_c, 11, 43, 69
12, 350240, Note_off_c, 11, 43, 64
12, 350400, Note_on_c, 11, 41, 73
12, 350720, Note_off_c, 11, 41, 64
12, 350880, Note_on_c, 11, 36, 76
12, 351200, Note_off_c, 11, 36, 64
12, 351360, Note_on_c, 11, 43, 80
12, 351680, Note_off_c, 11, 43, 64
12, 351840, Note_on_c, 11, 45, 84
12, 352160, Note_off_c, 11, 45, 64
12, 352320, Note_on_c, 11, 41, 88
12, 352640, Note_off_c, 11, 41, 64
12, 352800, Note_on_c, 11, 36, 92
12, 353120, Note_off_c, 11, 36, 64
12, 353280, Note_on_c, 11, 41, 96
12, 353600, Note_off_c, 11, 41, 64
12, 353760, Note_on_c, 11, 36, 96
12, 354080, Note_off_c, 11, 36, 64
12, 354240, Note_on_c, 11, 38, 96
12, 354560, Note_off_c, 11, 38, 64
12, 354720, Note_on_c, 11, 36, 96
12, 355040, Note_off_c, 11, 36, 64
12, 355200, Note_on_c, 11, 33, 96
12, 355520, Note_off_c, 11, 33, 64
12, 355680, Note_on_c, 11, 34, 96
12, 356000, Note_off_c, 11, 34, 64
12, 356160, Note_on_c, 11, 33, 116
12, 356480, Note_off_c, 11, 33, 64
12, 356640, Note_on_c, 11, 29, 96
12, 356960, Note_off_c, 11, 29, 64
12, 357120, Note_on_c, 11, 31, 96
12, 357440, Note_off_c, 11, 31, 64
12, 357600, Note_on_c, 11, 33, 115
12, 357920, Note_off_c, 11, 33, 64
12, 358080, Note_on_c, 11, 29, 96
12, 358400, Note_off_c, 11, 29, 64
12, 358560, Note_on_c, 11, 31, 96
12, 358880, Note_off_c, 11, 31, 64
12, 359040, Note_on_c, 11, 33, 116
12, 359360, Note_off_c, 11, 33, 64
12, 359520, Note_on_c, 11, 29, 96
12, 359840, Note_off_c, 11, 29, 64
12, 360000, Note_on_c, 11, 31, 96
12, 360320, Note_off_c, 11, 31, 64
12, 360480, Note_on_c, 11, 33, 118
12, 360800, Note_off_c, 11, 33, 64
12, 360960, Note_on_c, 11, 29, 96
12, 361280, Note_off_c, 11, 29, 64
12, 361440, Note_on_c, 11, 31, 96
12, 361760, Note_off_c, 11, 31, 64
12, 361920, Note_on_c, 11, 33, 118
12, 362880, Note_off_c, 11, 33, 64
12, 363360, Note_on_c, 11, 31, 96
12, 364000, Note_off_c, 11, 31, 64
12, 364320, Note_on_c, 11, 41, 96
12, 364640, Note_off_c, 11, 41, 64
12, 364800, Note_on_c, 11, 40, 96
12, 365440, Note_off_c, 11, 40, 64
12, 365760, Note_on_c, 11, 38, 96
12, 366080, Note_off_c, 11, 38, 64
12, 366240, Note_on_c, 11, 36, 96
12, 366880, Note_off_c, 11, 36, 64
12, 367200, Note_on_c, 11, 34, 96
12, 367520, Note_off_c, 11, 34, 64
12, 367680, Note_on_c, 11, 33, 96
12, 368640, Note_off_c, 11, 33, 64
12, 369120, Note_on_c, 11, 34, 96
12, 370080, Note_off_c, 11, 34, 64
12, 370560, Note_on_c, 11, 36, 96
12, 371520, Note_off_c, 11, 36, 64
12, 372000, Note_on_c, 11, 36, 96
12, 372960, Note_off_c, 11, 36, 64
12, 373440, Note_on_c, 11, 41, 96
12, 373760, Note_off_c, 11, 41, 64
12, 374400, Note_on_c, 11, 45, 96
12, 374720, Note_off_c, 11, 45, 64
12, 374880, Note_on_c, 11, 43, 96
12, 375520, Note_off_c, 11, 43, 64
12, 375840, Note_on_c, 11, 41, 96
12, 376160, Note_off_c, 11, 41, 64
12, 376320, Note_on_c, 11, 40, 96
12, 376960, Note_off_c, 11, 40, 64
12, 377280, Note_on_c, 11, 38, 96
12, 377600, Note_off_c, 11, 38, 64
12, 377760, Note_on_c, 11, 36, 96
12, 378400, Note_off_c, 11, 36, 64
12, 378720, Note_on_c, 11, 46, 96
12, 379040, Note_off_c, 11, 46, 64
12, 379200, Note_on_c, 11, 45, 96
12, 380314, Note_off_c, 11, 45, 64
12, 380640, Note_on_c, 11, 46, 96
12, 381780, Note_off_c, 11, 46, 64
12, 382080, Note_on_c, 11, 48, 96
12, 383200, Note_off_c, 11, 48, 64
12, 383520, Note_on_c, 11, 36, 96
12, 384624, Note_off_c, 11, 36, 64
12, 384960, Note_on_c, 11, 41, 96
12, 385280, Note_off_c, 11, 41, 64
12, 389280, Note_on_c, 11, 36, 96
12, 389600, Note_off_c, 11, 36, 64
12, 389760, Note_on_c, 11, 36, 96
12, 390080, Note_off_c, 11, 36, 64
12, 390240, Note_on_c, 11, 36, 96
12, 390560, Note_off_c, 11, 36, 64
12, 390720, Note_on_c, 11, 29, 96
12, 391040, Note_off_c, 11, 29, 64
12, 395040, Note_on_c, 11, 36, 96
12, 395360, Note_off_c, 11, 36, 64
12, 395520, Note_on_c, 11, 36, 96
12, 395840, Note_off_c, 11, 36, 64
12, 396000, Note_on_c, 11, 36, 96
12, 396320, Note_off_c, 11, 36, 64
12, 396480, Note_on_c, 11, 29, 96
12, 396800, Note_off_c, 11, 29, 64
12, 399360, Note_on_c, 11, 29, 64
12, 399680, Note_off_c, 11, 29, 64
12, 491520, Note_on_c, 11, 29, 64
12, 492000, Note_off_c, 11, 29, 64
12, 503040, Note_on_c, 11, 29, 76
12, 503088, Note_off_c, 11, 29, 64
12, 504000, Note_on_c, 11, 34, 78
12, 504320, Note_off_c, 11, 34, 64
12, 504480, Note_on_c, 11, 36, 79
12, 504800, Note_off_c, 11, 36, 64
12, 504960, Note_on_c, 11, 34, 80
12, 505280, Note_off_c, 11, 34, 64
12, 505440, Note_on_c, 11, 33, 81
12, 505760, Note_off_c, 11, 33, 64
12, 505920, Note_on_c, 11, 31, 82
12, 506560, Note_off_c, 11, 31, 64
12, 506880, Note_on_c, 11, 33, 84
12, 507200, Note_off_c, 11, 33, 64
12, 507360, Note_on_c, 11, 34, 85
12, 507680, Note_off_c, 11, 34, 64
12, 507840, Note_on_c, 11, 31, 86
12, 508160, Note_off_c, 11, 31, 64
12, 508320, Note_on_c, 11, 33, 87
12, 508640, Note_off_c, 11, 33, 64
12, 508800, Note_on_c, 11, 29, 96
12, 509120, Note_off_c, 11, 29, 64
12, 509760, Note_on_c, 11, 34, 102
12, 509914, Note_off_c, 11, 34, 64
12, 510240, Note_on_c, 11, 36, 110
12, 510390, Note_off_c, 11, 36, 64
12, 510720, Note_on_c, 11, 33, 102
12, 511040, Note_off_c, 11, 33, 64
12, 511200, Note_on_c, 11, 34, 102
12, 511520, Note_off_c, 11, 34, 64
12, 511680, Note_on_c, 11, 34, 114
12, 512000, Note_off_c, 11, 34, 64
12, 512160, Note_on_c, 11, 31, 102
12, 512480, Note_off_c, 11, 31, 64
12, 512640, Note_on_c, 11, 33, 102
12, 512960, Note_off_c, 11, 33, 64
12, 513120, Note_on_c, 11, 33, 113
12, 513440, Note_off_c, 11, 33, 64
12, 513600, Note_on_c, 11, 29, 102
12, 513920, Note_off_c, 11, 29, 64
12, 514080, Note_on_c, 11, 31, 102
12, 514400, Note_off_c, 11, 31, 64
12, 514560, Note_on_c, 11, 29, 85
12, 515340, Note_off_c, 11, 29, 64
12, 515520, Note_on_c, 11, 29, 85
12, 516300, Note_off_c, 11, 29, 64
12, 516480, Note_on_c, 11, 34, 85
12, 517280, Note_off_c, 11, 34, 64
12, 517440, Note_on_c, 11, 29, 85
12, 517914, Note_off_c, 11, 29, 64
12, 517920, Note_on_c, 11, 34, 85
12, 518154, Note_off_c, 11, 34, 64
12, 518400, Note_on_c, 11, 29, 85
12, 519174, Note_off_c, 11, 29, 64
12, 519360, Note_on_c, 11, 29, 85
12, 520144, Note_off_c, 11, 29, 64
12, 520320, Note_on_c, 11, 34, 85
12, 521104, Note_off_c, 11, 34, 64
12, 521280, Note_on_c, 11, 29, 85
12, 521754, Note_off_c, 11, 29, 64
12, 521760, Note_on_c, 11, 34, 85
12, 521994, Note_off_c, 11, 34, 64
12, 522240, Note_on_c, 11, 29, 85
12, 523034, Note_off_c, 11, 29, 64
12, 523200, Note_on_c, 11, 29, 85
12, 523994, Note_off_c, 11, 29, 64
12, 524160, Note_on_c, 11, 34, 85
12, 524930, Note_off_c, 11, 34, 64
12, 525120, Note_on_c, 11, 29, 85
12, 525594, Note_off_c, 11, 29, 64
12, 525600, Note_on_c, 11, 34, 85
12, 525834, Note_off_c, 11, 34, 64
12, 526080, Note_on_c, 11, 29, 85
12, 526870, Note_off_c, 11, 29, 64
12, 527040, Note_on_c, 11, 29, 85
12, 527814, Note_off_c, 11, 29, 64
12, 528000, Note_on_c, 11, 34, 85
12, 528804, Note_off_c, 11, 34, 64
12, 528960, Note_on_c, 11, 29, 85
12, 529434, Note_off_c, 11, 29, 64
12, 529440, Note_on_c, 11, 34, 85
12, 529674, Note_off_c, 11, 34, 64
12, 531840, Note_on_c, 11, 41, 101
12, 532670, Note_off_c, 11, 41, 64
12, 532800, Note_on_c, 11, 36, 85
12, 533274, Note_off_c, 11, 36, 64
12, 533280, Note_on_c, 11, 29, 85
12, 533600, Note_off_c, 11, 29, 64
12, 535680, Note_on_c, 11, 41, 101
12, 536510, Note_off_c, 11, 41, 64
12, 536640, Note_on_c, 11, 36, 85
12, 537114, Note_off_c, 11, 36, 64
12, 537120, Note_on_c, 11, 29, 85
12, 537440, Note_off_c, 11, 29, 64
12, 537600, Note_on_c, 11, 36, 88
12, 537724, Note_off_c, 11, 36, 64
12, 537840, Note_on_c, 11, 38, 88
12, 537880, Note_off_c, 11, 38, 64
12, 537960, Note_on_c, 11, 36, 88
12, 537994, Note_off_c, 11, 36, 64
12, 538080, Note_on_c, 11, 31, 88
12, 538184, Note_off_c, 11, 31, 64
12, 538320, Note_on_c, 11, 33, 88
12, 538354, Note_off_c, 11, 33, 64
12, 538440, Note_on_c, 11, 35, 89
12, 538480, Note_off_c, 11, 35, 64
12, 538560, Note_on_c, 11, 36, 89
12, 538680, Note_off_c, 11, 36, 64
12, 538800, Note_on_c, 11, 38, 89
12, 538834, Note_off_c, 11, 38, 64
12, 538920, Note_on_c, 11, 36, 89
12, 538964, Note_off_c, 11, 36, 64
12, 539040, Note_on_c, 11, 35, 89
12, 539140, Note_off_c, 11, 35, 64
12, 539280, Note_on_c, 11, 36, 90
12, 539314, Note_off_c, 11, 36, 64
12, 539400, Note_on_c, 11, 38, 90
12, 539434, Note_off_c, 11, 38, 64
12, 539520, Note_on_c, 11, 40, 90
12, 539640, Note_off_c, 11, 40, 64
12, 539760, Note_on_c, 11, 38, 90
12, 539804, Note_off_c, 11, 38, 64
12, 539880, Note_on_c, 11, 40, 90
12, 539914, Note_off_c, 11, 40, 64
12, 540000, Note_on_c, 11, 41, 90
12, 540094, Note_off_c, 11, 41, 64
12, 540240, Note_on_c, 11, 43, 91
12, 540280, Note_off_c, 11, 43, 64
12, 540360, Note_on_c, 11, 45, 91
12, 540394, Note_off_c, 11, 45, 64
12, 540480, Note_on_c, 11, 43, 91
12, 540600, Note_off_c, 11, 43, 64
12, 540720, Note_on_c, 11, 45, 91
12, 540760, Note_off_c, 11, 45, 64
12, 540840, Note_on_c, 11, 42, 91
12, 540880, Note_off_c, 11, 42, 64
12, 540960, Note_on_c, 11, 43, 92
12, 541040, Note_off_c, 11, 43, 64
12, 541200, Note_on_c, 11, 31, 92
12, 541280, Note_off_c, 11, 31, 64
12, 541440, Note_on_c, 11, 36, 92
12, 541564, Note_off_c, 11, 36, 64
12, 541680, Note_on_c, 11, 38, 92
12, 541720, Note_off_c, 11, 38, 64
12, 541800, Note_on_c, 11, 36, 93
12, 541834, Note_off_c, 11, 36, 64
12, 541920, Note_on_c, 11, 31, 93
12, 542024, Note_off_c, 11, 31, 64
12, 542160, Note_on_c, 11, 33, 93
12, 542194, Note_off_c, 11, 33, 64
12, 542280, Note_on_c, 11, 35, 93
12, 542320, Note_off_c, 11, 35, 64
12, 542400, Note_on_c, 11, 36, 93
12, 542520, Note_off_c, 11, 36, 64
12, 542640, Note_on_c, 11, 38, 94
12, 542674, Note_off_c, 11, 38, 64
12, 542760, Note_on_c, 11, 36, 94
12, 542804, Note_off_c, 11, 36, 64
12, 542880, Note_on_c, 11, 35, 94
12, 542980, Note_off_c, 11, 35, 64
12, 543120, Note_on_c, 11, 36, 94
12, 543154, Note_off_c, 11, 36, 64
12, 543240, Note_on_c, 11, 38, 94
12, 543274, Note_off_c, 11, 38, 64
12, 543360, Note_on_c, 11, 40, 94
12, 543480, Note_off_c, 11, 40, 64
12, 543600, Note_on_c, 11, 38, 95
12, 543644, Note_off_c, 11, 38, 64
12, 543720, Note_on_c, 11, 40, 95
12, 543754, Note_off_c, 11, 40, 64
12, 543840, Note_on_c, 11, 41, 95
12, 543934, Note_off_c, 11, 41, 64
12, 544080, Note_on_c, 11, 43, 95
12, 544120, Note_off_c, 11, 43, 64
12, 544200, Note_on_c, 11, 45, 95
12, 544234, Note_off_c, 11, 45, 64
12, 544320, Note_on_c, 11, 43, 90
12, 544440, Note_off_c, 11, 43, 64
12, 544560, Note_on_c, 11, 45, 90
12, 544600, Note_off_c, 11, 45, 64
12, 544680, Note_on_c, 11, 42, 91
12, 544720, Note_off_c, 11, 42, 64
12, 544800, Note_on_c, 11, 43, 91
12, 544880, Note_off_c, 11, 43, 64
12, 545040, Note_on_c, 11, 31, 92
12, 545120, Note_off_c, 11, 31, 64
12, 545280, Note_on_c, 11, 36, 93
12, 545440, Note_off_c, 11, 36, 64
12, 545520, Note_on_c, 11, 38, 93
12, 545560, Note_off_c, 11, 38, 64
12, 545640, Note_on_c, 11, 36, 94
12, 545674, Note_off_c, 11, 36, 64
12, 545760, Note_on_c, 11, 31, 94
12, 545864, Note_off_c, 11, 31, 64
12, 546000, Note_on_c, 11, 33, 95
12, 546034, Note_off_c, 11, 33, 64
12, 546120, Note_on_c, 11, 35, 95
12, 546160, Note_off_c, 11, 35, 64
12, 546240, Note_on_c, 11, 36, 96
12, 546360, Note_off_c, 11, 36, 64
12, 546480, Note_on_c, 11, 38, 97
12, 546514, Note_off_c, 11, 38, 64
12, 546600, Note_on_c, 11, 36, 97
12, 546644, Note_off_c, 11, 36, 64
12, 546720, Note_on_c, 11, 35, 97
12, 546820, Note_off_c, 11, 35, 64
12, 546960, Note_on_c, 11, 36, 98
12, 546994, Note_off_c, 11, 36, 64
12, 547080, Note_on_c, 11, 38, 99
12, 547114, Note_off_c, 11, 38, 64
12, 547200, Note_on_c, 11, 40, 99
12, 547330, Note_off_c, 11, 40, 64
12, 547440, Note_on_c, 11, 41, 100
12, 547480, Note_off_c, 11, 41, 64
12, 547560, Note_on_c, 11, 40, 100
12, 547594, Note_off_c, 11, 40, 64
12, 547680, Note_on_c, 11, 38, 101
12, 547780, Note_off_c, 11, 38, 64
12, 547920, Note_on_c, 11, 40, 101
12, 547964, Note_off_c, 11, 40, 64
12, 548040, Note_on_c, 11, 41, 102
12, 548080, Note_off_c, 11, 41, 64
12, 548160, Note_on_c, 11, 43, 102
12, 548280, Note_off_c, 11, 43, 64
12, 548400, Note_on_c, 11, 45, 103
12, 548444, Note_off_c, 11, 45, 64
12, 548520, Note_on_c, 11, 41, 103
12, 548564, Note_off_c, 11, 41, 64
12, 548640, Note_on_c, 11, 43, 104
12, 548740, Note_off_c, 11, 43, 64
12, 548880, Note_on_c, 11, 45, 104
12, 548920, Note_off_c, 11, 45, 64
12, 549000, Note_on_c, 11, 47, 105
12, 549034, Note_off_c, 11, 47, 64
12, 549120, Note_on_c, 11, 48, 105
12, 549280, Note_off_c, 11, 48, 64
12, 549360, Note_on_c, 11, 50, 106
12, 549440, Note_off_c, 11, 50, 64
12, 549480, Note_on_c, 11, 47, 106
12, 549560, Note_off_c, 11, 47, 64
12, 549600, Note_on_c, 11, 48, 107
12, 549760, Note_off_c, 11, 48, 64
12, 549840, Note_on_c, 11, 50, 108
12, 549920, Note_off_c, 11, 50, 64
12, 549960, Note_on_c, 11, 47, 108
12, 550040, Note_off_c, 11, 47, 64
12, 550080, Note_on_c, 11, 48, 108
12, 550240, Note_off_c, 11, 48, 64
12, 550320, Note_on_c, 11, 50, 109
12, 550400, Note_off_c, 11, 50, 64
12, 550440, Note_on_c, 11, 47, 110
12, 550520, Note_off_c, 11, 47, 64
12, 550560, Note_on_c, 11, 48, 110
12, 550720, Note_off_c, 11, 48, 64
12, 550800, Note_on_c, 11, 50, 111
12, 550880, Note_off_c, 11, 50, 64
12, 550920, Note_on_c, 11, 47, 111
12, 551000, Note_off_c, 11, 47, 64
12, 551040, Note_on_c, 11, 48, 112
12, 551360, Note_off_c, 11, 48, 64
12, 552000, Note_on_c, 11, 36, 67
12, 552320, Note_off_c, 11, 36, 64
12, 563520, Note_on_c, 11, 40, 38
12, 563630, Note_off_c, 11, 40, 64
12, 564000, Note_on_c, 11, 38, 38
12, 564104, Note_off_c, 11, 38, 64
12, 564480, Note_on_c, 11, 33, 38
12, 564580, Note_off_c, 11, 33, 64
12, 564960, Note_on_c, 11, 33, 38
12, 565064, Note_off_c, 11, 33, 64
12, 565440, Note_on_c, 11, 33, 38
12, 565530, Note_off_c, 11, 33, 64
12, 566400, Note_on_c, 11, 33, 38
12, 566494, Note_off_c, 11, 33, 64
12, 566880, Note_on_c, 11, 38, 38
12, 567200, Note_off_c, 11, 38, 64
12, 568320, Note_on_c, 11, 38, 38
12, 568640, Note_off_c, 11, 38, 64
12, 569760, Note_on_c, 11, 38, 38
12, 570080, Note_off_c, 11, 38, 64
12, 575040, Note_on_c, 11, 34, 100
12, 575496, Note_off_c, 11, 34, 64
12, 575520, Note_on_c, 11, 36, 110
12, 576012, Note_off_c, 11, 36, 64
12, 578400, Note_on_c, 11, 36, 56
12, 578926, Note_off_c, 11, 36, 64
12, 579840, Control_c, 11, 0, 0
12, 579840, Control_c, 11, 32, 0
12, 579840, Program_c, 11, 45
12, 581280, Note_on_c, 11, 29, 51
12, 581736, Note_off_c, 11, 29, 64
12, 582720, Note_on_c, 11, 29, 51
12, 583176, Note_off_c, 11, 29, 64
12, 584160, Note_on_c, 11, 29, 51
12, 584616, Note_off_c, 11, 29, 64
12, 585600, Note_on_c, 11, 29, 51
12, 586056, Note_off_c, 11, 29, 64
12, 587040, Note_on_c, 11, 29, 51
12, 587496, Note_off_c, 11, 29, 64
12, 588480, Note_on_c, 11, 29, 51
12, 588936, Note_off_c, 11, 29, 64
12, 589920, Note_on_c, 11, 29, 51
12, 590376, Note_off_c, 11, 29, 64
12, 591360, Note_on_c, 11, 29, 51
12, 591816, Note_off_c, 11, 29, 64
12, 591840, Control_c, 11, 0, 0
12, 591840, Control_c, 11, 32, 0
12, 591840, Program_c, 11, 48
12, 592320, Note_on_c, 11, 36, 64
12, 592776, Note_off_c, 11, 36, 64
12, 592800, Note_on_c, 11, 41, 66
12, 593256, Note_off_c, 11, 41, 64
12, 593280, Note_on_c, 11, 36, 68
12, 593736, Note_off_c, 11, 36, 64
12, 593760, Note_on_c, 11, 38, 70
12, 594216, Note_off_c, 11, 38, 64
12, 594240, Note_on_c, 11, 36, 73
12, 594696, Note_off_c, 11, 36, 64
12, 594720, Note_on_c, 11, 33, 74
12, 595176, Note_off_c, 11, 33, 64
12, 595200, Note_on_c, 11, 34, 77
12, 595656, Note_off_c, 11, 34, 64
12, 595680, Note_on_c, 11, 33, 77
12, 596136, Note_off_c, 11, 33, 64
12, 596160, Note_on_c, 11, 29, 75
12, 596616, Note_off_c, 11, 29, 64
12, 596640, Note_on_c, 11, 31, 74
12, 597096, Note_off_c, 11, 31, 64
12, 597120, Note_on_c, 11, 33, 72
12, 597576, Note_off_c, 11, 33, 64
12, 597600, Note_on_c, 11, 29, 70
12, 598056, Note_off_c, 11, 29, 64
12, 598080, Note_on_c, 11, 36, 110
12, 598194, Note_off_c, 11, 36, 64
12, 598560, Note_on_c, 11, 41, 110
12, 598674, Note_off_c, 11, 41, 64
12, 599040, Note_on_c, 11, 36, 110
12, 599154, Note_off_c, 11, 36, 64
12, 599520, Note_on_c, 11, 38, 110
12, 599634, Note_off_c, 11, 38, 64
12, 600000, Note_on_c, 11, 36, 100
12, 600228, Note_off_c, 11, 36, 64
12, 600480, Note_on_c, 11, 33, 100
12, 600708, Note_off_c, 11, 33, 64
12, 600960, Note_on_c, 11, 34, 100
12, 601188, Note_off_c, 11, 34, 64
12, 601440, Note_on_c, 11, 33, 127
12, 601668, Note_off_c, 11, 33, 64
12, 601920, Note_on_c, 11, 29, 100
12, 602102, Note_off_c, 11, 29, 64
12, 602400, Note_on_c, 11, 31, 100
12, 602582, Note_off_c, 11, 31, 64
12, 602880, Note_on_c, 11, 33, 127
12, 603108, Note_off_c, 11, 33, 64
12, 603360, Note_on_c, 11, 29, 100
12, 603588, Note_off_c, 11, 29, 64
12, 603840, Note_on_c, 11, 31, 100
12, 604068, Note_off_c, 11, 31, 64
12, 604320, Note_on_c, 11, 33, 127
12, 604548, Note_off_c, 11, 33, 64
12, 604800, Note_on_c, 11, 29, 100
12, 605028, Note_off_c, 11, 29, 64
12, 605280, Note_on_c, 11, 31, 100
12, 605508, Note_off_c, 11, 31, 64
12, 605760, Note_on_c, 11, 33, 127
12, 605988, Note_off_c, 11, 33, 64
12, 606240, Note_on_c, 11, 29, 100
12, 606468, Note_off_c, 11, 29, 64
12, 606720, Note_on_c, 11, 31, 100
12, 606948, Note_off_c, 11, 31, 64
12, 607200, Note_on_c, 11, 33, 127
12, 608260, Note_off_c, 11, 33, 64
12, 608640, Note_on_c, 11, 31, 100
12, 609388, Note_off_c, 11, 31, 64
12, 609600, Note_on_c, 11, 41, 100
12, 609782, Note_off_c, 11, 41, 64
12, 610080, Note_on_c, 11, 40, 100
12, 610828, Note_off_c, 11, 40, 64
12, 611040, Note_on_c, 11, 38, 100
12, 611222, Note_off_c, 11, 38, 64
12, 611520, Note_on_c, 11, 36, 100
12, 612268, Note_off_c, 11, 36, 64
12, 612480, Note_on_c, 11, 34, 100
12, 612662, Note_off_c, 11, 34, 64
12, 612960, Note_on_c, 11, 33, 120
12, 614092, Note_off_c, 11, 33, 64
12, 614400, Note_on_c, 11, 34, 120
12, 615532, Note_off_c, 11, 34, 64
12, 615840, Note_on_c, 11, 36, 120
12, 616972, Note_off_c, 11, 36, 64
12, 617280, Note_on_c, 11, 36, 120
12, 618412, Note_off_c, 11, 36, 64
12, 618720, Note_on_c, 11, 41, 110
12, 619326, Note_off_c, 11, 41, 64
12, 619680, Note_on_c, 11, 45, 110
12, 619876, Note_off_c, 11, 45, 64
12, 620160, Note_on_c, 11, 43, 100
12, 620868, Note_off_c, 11, 43, 64
12, 621120, Note_on_c, 11, 41, 100
12, 621348, Note_off_c, 11, 41, 64
12, 621600, Note_on_c, 11, 40, 100
12, 622308, Note_off_c, 11, 40, 64
12, 622560, Note_on_c, 11, 38, 100
12, 622788, Note_off_c, 11, 38, 64
12, 623040, Note_on_c, 11, 36, 100
12, 623976, Note_off_c, 11, 36, 64
12, 624000, Note_on_c, 11, 46, 100
12, 624228, Note_off_c, 11, 46, 64
12, 624480, Note_on_c, 11, 45, 120
12, 625188, Note_off_c, 11, 45, 64
12, 625920, Note_on_c, 11, 46, 120
12, 626628, Note_off_c, 11, 46, 64
12, 627360, Note_on_c, 11, 48, 120
12, 628068, Note_off_c, 11, 48, 64
12, 628800, Note_on_c, 11, 36, 120
12, 629508, Note_off_c, 11, 36, 64
12, 630240, Note_on_c, 11, 41, 127
12, 630696, Note_off_c, 11, 41, 64
12, 634560, Note_on_c, 11, 36, 110
12, 634788, Note_off_c, 11, 36, 64
12, 635040, Note_on_c, 11, 36, 110
12, 635268, Note_off_c, 11, 36, 64
12, 635520, Note_on_c, 11, 36, 110
12, 635748, Note_off_c, 11, 36, 64
12, 636000, Note_on_c, 11, 29, 127
12, 636456, Note_off_c, 11, 29, 64
12, 640320, Note_on_c, 11, 36, 99
12, 640548, Note_off_c, 11, 36, 64
12, 640800, Note_on_c, 11, 36, 99
12, 641028, Note_off_c, 11, 36, 64
12, 641280, Note_on_c, 11, 36, 99
12, 641554, Note_off_c, 11, 36, 64
12, 641554, End_track
0, 0, End_of_file
