0, 0, Header, 1, 4, 120
1, 0, Start_track
1, 0, Time_signature, 4, 2, 24, 8
1, 0, Key_signature, 4, "major"
1, 0, Tempo, 1153846
1, 0, Marker_t, "Copyright"
1, 0, Marker_t, "Generated by NoteWorthy 1.0"
1, 19680, Tempo, 1303498
1, 19920, Tempo, 1399907
1, 20160, Tempo, 1153846
1, 32280, Tempo, 1165049
1, 32320, Tempo, 1239926
1, 32360, Tempo, 1279863
1, 32400, Tempo, 1320132
1, 32440, Tempo, 1359927
1, 32480, Tempo, 1399907
1, 32520, Tempo, 1480020
1, 32560, Tempo, 1520142
1, 32600, Tempo, 1560062
1, 32640, Tempo, 1600000
1, 33360, Tempo, 535714
1, 83160, Tempo, 681818
1, 83640, Tempo, 535714
1, 84360, Tempo, 340909
1, 90720, Tempo, 600000
1, 91080, Tempo, 340909
1, 121440, Tempo, 600000
1, 121800, Tempo, 340909
1, 162360, Tempo, 428571
1, 163560, Tempo, 340909
1, 169920, Tempo, 600000
1, 170280, Tempo, 340909
1, 194310, Tempo, 750000
1, 194400, Tempo, 1051893
1, 194760, Tempo, 340909
1, 205560, Tempo, 430015
1, 205680, Tempo, 500000
1, 205800, Tempo, 370005
1, 205920, Tempo, 560015
1, 206040, Tempo, 620027
1, 206160, Tempo, 670017
1, 206280, Tempo, 771803
1, 207240, Tempo, 340909
1, 210120, Tempo, 320000
1, 210240, Tempo, 314994
1, 210360, Tempo, 309997
1, 210480, Tempo, 305002
1, 210600, Tempo, 300000
1, 210720, Tempo, 295000
1, 210840, Tempo, 289995
1, 210960, Tempo, 284995
1, 211080, Tempo, 279994
1, 211200, Tempo, 275002
1, 211320, Tempo, 270003
1, 211440, Tempo, 264994
1, 211560, Tempo, 259999
1, 211920, Tempo, 800000
1, 212040, Tempo, 340909
1, 212040, End_track
2, 0, Start_track
2, 0, MIDI_port, 0
2, 0, Title_t, "Piano, RH (high)"
2, 0, Program_c, 2, 0
2, 0, Control_c, 2, 7, 127
2, 0, Control_c, 2, 10, 70
2, 0, Control_c, 2, 93, 0
2, 0, Control_c, 2, 91, 0
2, 480, Note_on_c, 2, 56, 34
2, 960, Note_on_c, 2, 56, 0
2, 1680, Control_c, 2, 64, 127
2, 1680, Note_on_c, 2, 57, 34
2, 1800, Note_on_c, 2, 57, 0
2, 1920, Control_c, 2, 64, 0
2, 1920, Note_on_c, 2, 56, 34
2, 1960, Note_on_c, 2, 60, 34
2, 2000, Note_on_c, 2, 56, 0
2, 2080, Note_on_c, 2, 60, 0
2, 2080, Note_on_c, 2, 61, 34
2, 2160, Note_on_c, 2, 61, 0
2, 2200, Note_on_c, 2, 61, 34
2, 2280, Note_on_c, 2, 61, 0
2, 2280, Note_on_c, 2, 54, 45
2, 2320, Note_on_c, 2, 60, 40
2, 2360, Note_on_c, 2, 60, 0
2, 2360, Note_on_c, 2, 54, 0
2, 2400, Note_on_c, 2, 52, 34
2, 2760, Note_on_c, 2, 52, 0
2, 2760, Note_on_c, 2, 68, 34
2, 2842, Note_on_c, 2, 68, 0
2, 2850, Note_on_c, 2, 68, 34
2, 2872, Note_on_c, 2, 68, 0
2, 2880, Control_c, 2, 64, 127
2, 2880, Note_on_c, 2, 68, 34
2, 3232, Note_on_c, 2, 68, 0
2, 3240, Note_on_c, 2, 68, 34
2, 3322, Note_on_c, 2, 68, 0
2, 3330, Note_on_c, 2, 68, 34
2, 3352, Note_on_c, 2, 68, 0
2, 3360, Control_c, 2, 64, 0
2, 3360, Note_on_c, 2, 68, 34
2, 3600, Note_on_c, 2, 68, 0
2, 3600, Control_c, 2, 64, 127
2, 3600, Note_on_c, 2, 69, 34
2, 3840, Note_on_c, 2, 69, 0
2, 3840, Control_c, 2, 64, 0
2, 3840, Note_on_c, 2, 68, 34
2, 4080, Note_on_c, 2, 68, 0
2, 4080, Control_c, 2, 64, 127
2, 4080, Note_on_c, 2, 66, 33
2, 4200, Note_on_c, 2, 66, 0
2, 4200, Note_on_c, 2, 71, 40
2, 4320, Note_on_c, 2, 71, 0
2, 4320, Control_c, 2, 64, 0
2, 4320, Note_on_c, 2, 64, 45
2, 4410, Note_on_c, 2, 64, 0
2, 5160, Note_on_c, 2, 67, 34
2, 5242, Note_on_c, 2, 67, 0
2, 5250, Note_on_c, 2, 67, 34
2, 5272, Note_on_c, 2, 67, 0
2, 5280, Note_on_c, 2, 67, 34
2, 5632, Note_on_c, 2, 67, 0
2, 5640, Note_on_c, 2, 67, 34
2, 5722, Note_on_c, 2, 67, 0
2, 5730, Note_on_c, 2, 67, 34
2, 5752, Note_on_c, 2, 67, 0
2, 5760, Note_on_c, 2, 67, 34
2, 6120, Note_on_c, 2, 67, 0
2, 6120, Note_on_c, 2, 66, 34
2, 6232, Note_on_c, 2, 66, 0
2, 6240, Control_c, 2, 64, 127
2, 6240, Note_on_c, 2, 66, 34
2, 6480, Note_on_c, 2, 66, 0
2, 6480, Control_c, 2, 64, 0
2, 6480, Note_on_c, 2, 67, 34
2, 6600, Note_on_c, 2, 67, 0
2, 6600, Note_on_c, 2, 64, 34
2, 6712, Note_on_c, 2, 64, 0
2, 6720, Note_on_c, 2, 66, 34
2, 6952, Note_on_c, 2, 66, 0
2, 6960, Note_on_c, 2, 66, 34
2, 7200, Note_on_c, 2, 66, 0
2, 7200, Note_on_c, 2, 59, 34
2, 7290, Note_on_c, 2, 59, 0
2, 7560, Note_on_c, 2, 71, 34
2, 7680, Note_on_c, 2, 71, 0
2, 7680, Control_c, 2, 64, 127
2, 7691, Note_on_c, 2, 72, 55
2, 8039, Note_on_c, 2, 72, 0
2, 8040, Control_c, 2, 64, 0
2, 8040, Note_on_c, 2, 70, 34
2, 8160, Note_on_c, 2, 70, 0
2, 8160, Note_on_c, 2, 71, 34
2, 8490, Note_on_c, 2, 71, 0
2, 8520, Note_on_c, 2, 71, 34
2, 8640, Note_on_c, 2, 71, 0
2, 8640, Control_c, 2, 64, 127
2, 8651, Note_on_c, 2, 72, 50
2, 8999, Note_on_c, 2, 72, 0
2, 9000, Control_c, 2, 64, 0
2, 9000, Note_on_c, 2, 70, 34
2, 9120, Note_on_c, 2, 70, 0
2, 9120, Note_on_c, 2, 71, 34
2, 9330, Note_on_c, 2, 71, 0
2, 9360, Note_on_c, 2, 71, 34
2, 9570, Note_on_c, 2, 71, 0
2, 9600, Note_on_c, 2, 71, 55
2, 9840, Note_on_c, 2, 71, 0
2, 9840, Note_on_c, 2, 69, 45
2, 10080, Note_on_c, 2, 69, 0
2, 10080, Note_on_c, 2, 67, 45
2, 10320, Note_on_c, 2, 67, 0
2, 10320, Note_on_c, 2, 66, 45
2, 10560, Note_on_c, 2, 66, 0
2, 10560, Note_on_c, 2, 61, 40
2, 10770, Note_on_c, 2, 61, 0
2, 10800, Note_on_c, 2, 61, 40
2, 11040, Note_on_c, 2, 61, 0
2, 11040, Control_c, 2, 64, 127
2, 11040, Note_on_c, 2, 54, 34
2, 11130, Note_on_c, 2, 54, 0
2, 11400, Note_on_c, 2, 73, 34
2, 11482, Note_on_c, 2, 73, 0
2, 11490, Note_on_c, 2, 73, 34
2, 11512, Note_on_c, 2, 73, 0
2, 11520, Control_c, 2, 64, 0
2, 11520, Control_c, 2, 64, 127
2, 11520, Note_on_c, 2, 73, 45
2, 11850, Note_on_c, 2, 73, 0
2, 11880, Note_on_c, 2, 73, 45
2, 11962, Note_on_c, 2, 73, 0
2, 11970, Note_on_c, 2, 73, 45
2, 11992, Note_on_c, 2, 73, 0
2, 12000, Control_c, 2, 64, 0
2, 12000, Note_on_c, 2, 73, 48
2, 12240, Note_on_c, 2, 73, 0
2, 12240, Note_on_c, 2, 72, 52
2, 12360, Note_on_c, 2, 72, 0
2, 12360, Note_on_c, 2, 73, 54
2, 12480, Note_on_c, 2, 73, 0
2, 12480, Control_c, 2, 64, 127
2, 12480, Note_on_c, 2, 75, 56
2, 12810, Note_on_c, 2, 75, 0
2, 12840, Note_on_c, 2, 75, 60
2, 12960, Note_on_c, 2, 75, 0
2, 12960, Control_c, 2, 64, 0
2, 12960, Control_c, 2, 64, 127
2, 12960, Note_on_c, 2, 76, 62
2, 13200, Note_on_c, 2, 76, 0
2, 13200, Control_c, 2, 64, 0
2, 13200, Note_on_c, 2, 75, 58
2, 13320, Note_on_c, 2, 75, 0
2, 13320, Note_on_c, 2, 73, 56
2, 13440, Note_on_c, 2, 73, 0
2, 13440, Note_on_c, 2, 72, 54
2, 13485, Note_on_c, 2, 72, 0
2, 13560, Note_on_c, 2, 68, 52
2, 13680, Note_on_c, 2, 68, 0
2, 13680, Note_on_c, 2, 69, 60
2, 13800, Note_on_c, 2, 69, 0
2, 13800, Note_on_c, 2, 66, 45
2, 13890, Note_on_c, 2, 66, 0
2, 14040, Note_on_c, 2, 56, 45
2, 14160, Note_on_c, 2, 56, 0
2, 14160, Note_on_c, 2, 57, 60
2, 14280, Note_on_c, 2, 57, 0
2, 14280, Note_on_c, 2, 54, 45
2, 14370, Note_on_c, 2, 54, 0
2, 14400, Note_on_c, 2, 52, 45
2, 14460, Note_on_c, 2, 52, 0
2, 14520, Note_on_c, 2, 73, 45
2, 14640, Note_on_c, 2, 73, 0
2, 14640, Note_on_c, 2, 76, 60
2, 14760, Note_on_c, 2, 76, 0
2, 14760, Note_on_c, 2, 73, 45
2, 14850, Note_on_c, 2, 73, 0
2, 15000, Note_on_c, 2, 61, 34
2, 15120, Note_on_c, 2, 61, 0
2, 15120, Note_on_c, 2, 64, 45
2, 15240, Note_on_c, 2, 64, 0
2, 15240, Note_on_c, 2, 61, 34
2, 15330, Note_on_c, 2, 61, 0
2, 18040, Note_on_c, 2, 51, 34
2, 18120, Note_on_c, 2, 51, 0
2, 18120, Note_on_c, 2, 49, 34
2, 18240, Note_on_c, 2, 49, 0
2, 18240, Note_on_c, 2, 48, 34
2, 18450, Note_on_c, 2, 48, 0
2, 18480, Note_on_c, 2, 51, 45
2, 18600, Note_on_c, 2, 51, 0
2, 18600, Note_on_c, 2, 49, 45
2, 18720, Note_on_c, 2, 49, 0
2, 18720, Note_on_c, 2, 48, 45
2, 18930, Note_on_c, 2, 48, 0
2, 18960, Note_on_c, 2, 50, 85
2, 19050, Note_on_c, 2, 50, 0
2, 19080, Note_on_c, 2, 49, 75
2, 19170, Note_on_c, 2, 49, 0
2, 19200, Note_on_c, 2, 48, 75
2, 19440, Note_on_c, 2, 48, 0
2, 19440, Note_on_c, 2, 49, 70
2, 19485, Note_on_c, 2, 49, 0
2, 19720, Note_on_c, 2, 57, 60
2, 19840, Note_on_c, 2, 57, 0
2, 19960, Note_on_c, 2, 56, 55
2, 20080, Note_on_c, 2, 56, 0
2, 20080, Note_on_c, 2, 54, 50
2, 20160, Note_on_c, 2, 54, 0
2, 20160, Note_on_c, 2, 52, 34
2, 20205, Note_on_c, 2, 52, 0
2, 20520, Note_on_c, 2, 68, 45
2, 20602, Note_on_c, 2, 68, 0
2, 20610, Note_on_c, 2, 68, 45
2, 20632, Note_on_c, 2, 68, 0
2, 20640, Control_c, 2, 64, 127
2, 20640, Note_on_c, 2, 68, 37
2, 20970, Note_on_c, 2, 68, 0
2, 21000, Note_on_c, 2, 68, 34
2, 21082, Note_on_c, 2, 68, 0
2, 21090, Note_on_c, 2, 68, 34
2, 21112, Note_on_c, 2, 68, 0
2, 21120, Control_c, 2, 64, 0
2, 21120, Note_on_c, 2, 68, 35
2, 21360, Note_on_c, 2, 68, 0
2, 21360, Control_c, 2, 64, 127
2, 21360, Note_on_c, 2, 69, 55
2, 21600, Note_on_c, 2, 69, 0
2, 21600, Control_c, 2, 64, 0
2, 21600, Note_on_c, 2, 68, 45
2, 21810, Note_on_c, 2, 68, 0
2, 21840, Control_c, 2, 64, 127
2, 21840, Note_on_c, 2, 66, 45
2, 21930, Note_on_c, 2, 66, 0
2, 21971, Note_on_c, 2, 71, 60
2, 22061, Note_on_c, 2, 71, 0
2, 22080, Control_c, 2, 64, 0
2, 22080, Note_on_c, 2, 64, 45
2, 22170, Note_on_c, 2, 64, 0
2, 22440, Note_on_c, 2, 71, 45
2, 22522, Note_on_c, 2, 71, 0
2, 22530, Note_on_c, 2, 71, 45
2, 22552, Note_on_c, 2, 71, 0
2, 22560, Control_c, 2, 64, 127
2, 22560, Note_on_c, 2, 71, 45
2, 22890, Note_on_c, 2, 71, 0
2, 22920, Note_on_c, 2, 71, 45
2, 23002, Note_on_c, 2, 71, 0
2, 23010, Note_on_c, 2, 71, 45
2, 23032, Note_on_c, 2, 71, 0
2, 23040, Control_c, 2, 64, 0
2, 23040, Note_on_c, 2, 71, 55
2, 23280, Note_on_c, 2, 71, 0
2, 23280, Note_on_c, 2, 72, 60
2, 23400, Note_on_c, 2, 72, 0
2, 23400, Note_on_c, 2, 73, 65
2, 23490, Note_on_c, 2, 73, 0
2, 23520, Note_on_c, 2, 75, 45
2, 23760, Note_on_c, 2, 75, 0
2, 23760, Note_on_c, 2, 76, 45
2, 24000, Note_on_c, 2, 76, 0
2, 24000, Note_on_c, 2, 74, 45
2, 24240, Note_on_c, 2, 74, 0
2, 24240, Note_on_c, 2, 72, 45
2, 24480, Note_on_c, 2, 72, 0
2, 24480, Note_on_c, 2, 73, 34
2, 24810, Note_on_c, 2, 73, 0
2, 24840, Note_on_c, 2, 73, 34
2, 24960, Note_on_c, 2, 73, 0
2, 24960, Control_c, 2, 64, 127
2, 24971, Note_on_c, 2, 74, 42
2, 25319, Note_on_c, 2, 74, 0
2, 25320, Note_on_c, 2, 72, 35
2, 25440, Note_on_c, 2, 72, 0
2, 25440, Control_c, 2, 64, 0
2, 25440, Note_on_c, 2, 73, 34
2, 25770, Note_on_c, 2, 73, 0
2, 25800, Control_c, 2, 64, 127
2, 25800, Note_on_c, 2, 73, 40
2, 25920, Note_on_c, 2, 73, 0
2, 25920, Control_c, 2, 64, 0
2, 25920, Control_c, 2, 64, 127
2, 25931, Note_on_c, 2, 74, 60
2, 26279, Note_on_c, 2, 74, 0
2, 26280, Note_on_c, 2, 72, 40
2, 26400, Note_on_c, 2, 72, 0
2, 26400, Control_c, 2, 64, 0
2, 26400, Note_on_c, 2, 73, 34
2, 26610, Note_on_c, 2, 73, 0
2, 26640, Note_on_c, 2, 73, 34
2, 26880, Note_on_c, 2, 73, 0
2, 26880, Control_c, 2, 64, 127
2, 26880, Note_on_c, 2, 71, 34
2, 27210, Note_on_c, 2, 71, 0
2, 27240, Control_c, 2, 64, 0
2, 27240, Note_on_c, 2, 71, 50
2, 27360, Note_on_c, 2, 71, 0
2, 27360, Note_on_c, 2, 69, 50
2, 27450, Note_on_c, 2, 69, 0
2, 27480, Note_on_c, 2, 69, 50
2, 27600, Note_on_c, 2, 69, 0
2, 27600, Note_on_c, 2, 68, 50
2, 27690, Note_on_c, 2, 68, 0
2, 27720, Note_on_c, 2, 68, 50
2, 27840, Note_on_c, 2, 68, 0
2, 27840, Note_on_c, 2, 66, 50
2, 28080, Note_on_c, 2, 66, 0
2, 28080, Note_on_c, 2, 68, 50
2, 28200, Note_on_c, 2, 68, 0
2, 28200, Note_on_c, 2, 69, 50
2, 28320, Note_on_c, 2, 69, 0
2, 28320, Note_on_c, 2, 68, 50
2, 28530, Note_on_c, 2, 68, 0
2, 28560, Control_c, 2, 64, 127
2, 28567, Note_on_c, 2, 68, 50
2, 28799, Note_on_c, 2, 68, 0
2, 28800, Control_c, 2, 64, 0
2, 28800, Note_on_c, 2, 61, 45
2, 28890, Note_on_c, 2, 61, 0
2, 30240, Control_c, 2, 64, 127
2, 30600, Note_on_c, 2, 60, 65
2, 30720, Note_on_c, 2, 60, 0
2, 30720, Control_c, 2, 64, 0
2, 30720, Control_c, 2, 64, 127
2, 30720, Note_on_c, 2, 61, 65
2, 30765, Note_on_c, 2, 61, 0
2, 31200, Control_c, 2, 64, 0
2, 31560, Note_on_c, 2, 60, 60
2, 31680, Note_on_c, 2, 60, 0
2, 31680, Note_on_c, 2, 61, 45
2, 31725, Note_on_c, 2, 61, 0
2, 31725, End_track
3, 0, Start_track
3, 0, MIDI_port, 0
3, 0, Title_t, "Piano, RH"
3, 0, Program_c, 0, 0
3, 0, Control_c, 0, 7, 127
3, 0, Control_c, 0, 10, 70
3, 0, Control_c, 0, 93, 0
3, 0, Control_c, 0, 91, 0
3, 480, Note_on_c, 0, 56, 30
3, 520, Note_on_c, 0, 56, 0
3, 520, Note_on_c, 0, 61, 30
3, 560, Note_on_c, 0, 61, 0
3, 560, Note_on_c, 0, 64, 30
3, 600, Note_on_c, 0, 64, 0
3, 600, Note_on_c, 0, 56, 30
3, 640, Note_on_c, 0, 56, 0
3, 640, Note_on_c, 0, 61, 30
3, 680, Note_on_c, 0, 61, 0
3, 680, Note_on_c, 0, 64, 30
3, 720, Note_on_c, 0, 64, 0
3, 720, Note_on_c, 0, 56, 30
3, 760, Note_on_c, 0, 56, 0
3, 760, Note_on_c, 0, 61, 30
3, 800, Note_on_c, 0, 61, 0
3, 800, Note_on_c, 0, 64, 30
3, 840, Note_on_c, 0, 64, 0
3, 840, Note_on_c, 0, 56, 30
3, 880, Note_on_c, 0, 56, 0
3, 880, Note_on_c, 0, 61, 30
3, 920, Note_on_c, 0, 61, 0
3, 920, Note_on_c, 0, 64, 30
3, 958, Note_on_c, 0, 64, 0
3, 960, Note_on_c, 0, 56, 30
3, 1000, Note_on_c, 0, 56, 0
3, 1000, Note_on_c, 0, 61, 30
3, 1040, Note_on_c, 0, 61, 0
3, 1040, Note_on_c, 0, 64, 30
3, 1080, Note_on_c, 0, 64, 0
3, 1080, Note_on_c, 0, 56, 30
3, 1120, Note_on_c, 0, 56, 0
3, 1120, Note_on_c, 0, 61, 30
3, 1160, Note_on_c, 0, 61, 0
3, 1160, Note_on_c, 0, 64, 30
3, 1200, Note_on_c, 0, 64, 0
3, 1200, Note_on_c, 0, 56, 30
3, 1240, Note_on_c, 0, 56, 0
3, 1240, Note_on_c, 0, 61, 30
3, 1280, Note_on_c, 0, 61, 0
3, 1280, Note_on_c, 0, 64, 30
3, 1320, Note_on_c, 0, 64, 0
3, 1320, Note_on_c, 0, 56, 30
3, 1360, Note_on_c, 0, 56, 0
3, 1360, Note_on_c, 0, 61, 30
3, 1400, Note_on_c, 0, 61, 0
3, 1400, Note_on_c, 0, 64, 30
3, 1438, Note_on_c, 0, 64, 0
3, 1440, Note_on_c, 0, 57, 30
3, 1480, Note_on_c, 0, 57, 0
3, 1480, Note_on_c, 0, 61, 30
3, 1520, Note_on_c, 0, 61, 0
3, 1520, Note_on_c, 0, 64, 30
3, 1560, Note_on_c, 0, 64, 0
3, 1560, Note_on_c, 0, 57, 30
3, 1600, Note_on_c, 0, 57, 0
3, 1600, Note_on_c, 0, 61, 30
3, 1640, Note_on_c, 0, 61, 0
3, 1640, Note_on_c, 0, 64, 30
3, 1672, Note_on_c, 0, 64, 0
3, 1680, Control_c, 0, 64, 127
3, 1680, Note_on_c, 0, 57, 32
3, 1720, Note_on_c, 0, 57, 0
3, 1720, Note_on_c, 0, 62, 36
3, 1760, Note_on_c, 0, 62, 0
3, 1760, Note_on_c, 0, 66, 40
3, 1800, Note_on_c, 0, 66, 0
3, 1800, Note_on_c, 0, 57, 44
3, 1840, Note_on_c, 0, 57, 0
3, 1840, Note_on_c, 0, 62, 48
3, 1880, Note_on_c, 0, 62, 0
3, 1880, Note_on_c, 0, 66, 52
3, 1920, Note_on_c, 0, 66, 0
3, 1920, Control_c, 0, 64, 0
3, 1920, Note_on_c, 0, 56, 30
3, 1960, Note_on_c, 0, 56, 0
3, 1960, Note_on_c, 0, 60, 30
3, 2000, Note_on_c, 0, 60, 0
3, 2000, Note_on_c, 0, 66, 30
3, 2040, Note_on_c, 0, 66, 0
3, 2040, Note_on_c, 0, 56, 30
3, 2080, Note_on_c, 0, 56, 0
3, 2080, Note_on_c, 0, 61, 30
3, 2120, Note_on_c, 0, 61, 0
3, 2120, Note_on_c, 0, 64, 30
3, 2160, Note_on_c, 0, 64, 0
3, 2160, Note_on_c, 0, 56, 32
3, 2200, Note_on_c, 0, 56, 0
3, 2200, Note_on_c, 0, 61, 36
3, 2240, Note_on_c, 0, 61, 0
3, 2240, Note_on_c, 0, 63, 40
3, 2280, Note_on_c, 0, 63, 0
3, 2280, Note_on_c, 0, 54, 40
3, 2320, Note_on_c, 0, 54, 0
3, 2320, Note_on_c, 0, 60, 36
3, 2360, Note_on_c, 0, 60, 0
3, 2360, Note_on_c, 0, 63, 32
3, 2400, Note_on_c, 0, 63, 0
3, 2400, Note_on_c, 0, 52, 30
3, 2440, Note_on_c, 0, 52, 0
3, 2440, Note_on_c, 0, 56, 30
3, 2480, Note_on_c, 0, 56, 0
3, 2480, Note_on_c, 0, 61, 30
3, 2520, Note_on_c, 0, 61, 0
3, 2520, Note_on_c, 0, 56, 30
3, 2560, Note_on_c, 0, 56, 0
3, 2560, Note_on_c, 0, 61, 30
3, 2600, Note_on_c, 0, 61, 0
3, 2600, Note_on_c, 0, 64, 30
3, 2632, Note_on_c, 0, 64, 0
3, 2640, Note_on_c, 0, 56, 30
3, 2675, Note_on_c, 0, 56, 0
3, 2680, Note_on_c, 0, 61, 30
3, 2713, Note_on_c, 0, 61, 0
3, 2720, Note_on_c, 0, 64, 30
3, 2755, Note_on_c, 0, 64, 0
3, 2760, Note_on_c, 0, 56, 30
3, 2795, Note_on_c, 0, 56, 0
3, 2800, Note_on_c, 0, 61, 30
3, 2833, Note_on_c, 0, 61, 0
3, 2840, Note_on_c, 0, 64, 30
3, 2875, Note_on_c, 0, 64, 0
3, 2880, Control_c, 0, 64, 127
3, 2880, Note_on_c, 0, 56, 30
3, 2915, Note_on_c, 0, 56, 0
3, 2920, Note_on_c, 0, 63, 30
3, 2953, Note_on_c, 0, 63, 0
3, 2960, Note_on_c, 0, 66, 30
3, 2995, Note_on_c, 0, 66, 0
3, 3000, Note_on_c, 0, 56, 30
3, 3035, Note_on_c, 0, 56, 0
3, 3040, Note_on_c, 0, 63, 30
3, 3073, Note_on_c, 0, 63, 0
3, 3080, Note_on_c, 0, 66, 30
3, 3115, Note_on_c, 0, 66, 0
3, 3120, Note_on_c, 0, 56, 30
3, 3155, Note_on_c, 0, 56, 0
3, 3160, Note_on_c, 0, 63, 30
3, 3193, Note_on_c, 0, 63, 0
3, 3200, Note_on_c, 0, 66, 30
3, 3235, Note_on_c, 0, 66, 0
3, 3240, Note_on_c, 0, 56, 30
3, 3275, Note_on_c, 0, 56, 0
3, 3280, Note_on_c, 0, 63, 30
3, 3313, Note_on_c, 0, 63, 0
3, 3320, Note_on_c, 0, 66, 30
3, 3355, Note_on_c, 0, 66, 0
3, 3360, Control_c, 0, 64, 0
3, 3360, Note_on_c, 0, 56, 30
3, 3400, Note_on_c, 0, 56, 0
3, 3400, Note_on_c, 0, 61, 30
3, 3440, Note_on_c, 0, 61, 0
3, 3440, Note_on_c, 0, 64, 30
3, 3480, Note_on_c, 0, 64, 0
3, 3480, Note_on_c, 0, 56, 30
3, 3520, Note_on_c, 0, 56, 0
3, 3520, Note_on_c, 0, 61, 30
3, 3560, Note_on_c, 0, 61, 0
3, 3560, Note_on_c, 0, 64, 30
3, 3600, Note_on_c, 0, 64, 0
3, 3600, Control_c, 0, 64, 127
3, 3600, Note_on_c, 0, 56, 30
3, 3640, Note_on_c, 0, 56, 0
3, 3640, Note_on_c, 0, 61, 30
3, 3680, Note_on_c, 0, 61, 0
3, 3680, Note_on_c, 0, 66, 30
3, 3720, Note_on_c, 0, 66, 0
3, 3720, Note_on_c, 0, 56, 30
3, 3760, Note_on_c, 0, 56, 0
3, 3760, Note_on_c, 0, 61, 30
3, 3800, Note_on_c, 0, 61, 0
3, 3800, Note_on_c, 0, 66, 30
3, 3840, Note_on_c, 0, 66, 0
3, 3840, Control_c, 0, 64, 0
3, 3840, Note_on_c, 0, 56, 30
3, 3880, Note_on_c, 0, 56, 0
3, 3880, Note_on_c, 0, 59, 30
3, 3920, Note_on_c, 0, 59, 0
3, 3920, Note_on_c, 0, 64, 30
3, 3960, Note_on_c, 0, 64, 0
3, 3960, Note_on_c, 0, 56, 30
3, 4000, Note_on_c, 0, 56, 0
3, 4000, Note_on_c, 0, 59, 30
3, 4040, Note_on_c, 0, 59, 0
3, 4040, Note_on_c, 0, 64, 30
3, 4080, Note_on_c, 0, 64, 0
3, 4080, Control_c, 0, 64, 127
3, 4080, Note_on_c, 0, 57, 32
3, 4120, Note_on_c, 0, 57, 0
3, 4120, Note_on_c, 0, 59, 36
3, 4160, Note_on_c, 0, 59, 0
3, 4160, Note_on_c, 0, 63, 40
3, 4200, Note_on_c, 0, 63, 0
3, 4200, Note_on_c, 0, 57, 44
3, 4240, Note_on_c, 0, 57, 0
3, 4240, Note_on_c, 0, 59, 48
3, 4280, Note_on_c, 0, 59, 0
3, 4280, Note_on_c, 0, 63, 52
3, 4320, Note_on_c, 0, 63, 0
3, 4320, Control_c, 0, 64, 0
3, 4320, Note_on_c, 0, 56, 52
3, 4355, Note_on_c, 0, 56, 0
3, 4360, Note_on_c, 0, 59, 52
3, 4393, Note_on_c, 0, 59, 0
3, 4400, Note_on_c, 0, 64, 52
3, 4435, Note_on_c, 0, 64, 0
3, 4440, Note_on_c, 0, 56, 50
3, 4475, Note_on_c, 0, 56, 0
3, 4480, Note_on_c, 0, 59, 48
3, 4513, Note_on_c, 0, 59, 0
3, 4520, Note_on_c, 0, 64, 46
3, 4555, Note_on_c, 0, 64, 0
3, 4560, Note_on_c, 0, 56, 44
3, 4595, Note_on_c, 0, 56, 0
3, 4600, Note_on_c, 0, 59, 42
3, 4633, Note_on_c, 0, 59, 0
3, 4640, Note_on_c, 0, 64, 40
3, 4675, Note_on_c, 0, 64, 0
3, 4680, Note_on_c, 0, 56, 38
3, 4715, Note_on_c, 0, 56, 0
3, 4720, Note_on_c, 0, 59, 36
3, 4753, Note_on_c, 0, 59, 0
3, 4760, Note_on_c, 0, 64, 34
3, 4795, Note_on_c, 0, 64, 0
3, 4800, Note_on_c, 0, 55, 32
3, 4835, Note_on_c, 0, 55, 0
3, 4840, Note_on_c, 0, 59, 30
3, 4873, Note_on_c, 0, 59, 0
3, 4880, Note_on_c, 0, 64, 30
3, 4915, Note_on_c, 0, 64, 0
3, 4920, Note_on_c, 0, 55, 30
3, 4955, Note_on_c, 0, 55, 0
3, 4960, Note_on_c, 0, 59, 30
3, 4993, Note_on_c, 0, 59, 0
3, 5000, Note_on_c, 0, 64, 30
3, 5035, Note_on_c, 0, 64, 0
3, 5040, Note_on_c, 0, 55, 30
3, 5075, Note_on_c, 0, 55, 0
3, 5080, Note_on_c, 0, 59, 30
3, 5113, Note_on_c, 0, 59, 0
3, 5120, Note_on_c, 0, 64, 30
3, 5155, Note_on_c, 0, 64, 0
3, 5160, Note_on_c, 0, 55, 30
3, 5195, Note_on_c, 0, 55, 0
3, 5200, Note_on_c, 0, 59, 30
3, 5233, Note_on_c, 0, 59, 0
3, 5240, Note_on_c, 0, 64, 30
3, 5275, Note_on_c, 0, 64, 0
3, 5280, Note_on_c, 0, 55, 30
3, 5315, Note_on_c, 0, 55, 0
3, 5320, Note_on_c, 0, 59, 30
3, 5353, Note_on_c, 0, 59, 0
3, 5360, Note_on_c, 0, 65, 30
3, 5395, Note_on_c, 0, 65, 0
3, 5400, Note_on_c, 0, 55, 30
3, 5435, Note_on_c, 0, 55, 0
3, 5440, Note_on_c, 0, 59, 30
3, 5473, Note_on_c, 0, 59, 0
3, 5480, Note_on_c, 0, 65, 30
3, 5515, Note_on_c, 0, 65, 0
3, 5520, Note_on_c, 0, 55, 30
3, 5555, Note_on_c, 0, 55, 0
3, 5560, Note_on_c, 0, 59, 30
3, 5593, Note_on_c, 0, 59, 0
3, 5600, Note_on_c, 0, 65, 30
3, 5635, Note_on_c, 0, 65, 0
3, 5640, Note_on_c, 0, 55, 30
3, 5675, Note_on_c, 0, 55, 0
3, 5680, Note_on_c, 0, 59, 30
3, 5713, Note_on_c, 0, 59, 0
3, 5720, Note_on_c, 0, 65, 30
3, 5755, Note_on_c, 0, 65, 0
3, 5760, Note_on_c, 0, 55, 35
3, 5795, Note_on_c, 0, 55, 0
3, 5800, Note_on_c, 0, 60, 40
3, 5833, Note_on_c, 0, 60, 0
3, 5840, Note_on_c, 0, 64, 45
3, 5875, Note_on_c, 0, 64, 0
3, 5880, Note_on_c, 0, 55, 50
3, 5915, Note_on_c, 0, 55, 0
3, 5920, Note_on_c, 0, 59, 60
3, 5953, Note_on_c, 0, 59, 0
3, 5960, Note_on_c, 0, 64, 55
3, 5995, Note_on_c, 0, 64, 0
3, 6000, Note_on_c, 0, 55, 55
3, 6035, Note_on_c, 0, 55, 0
3, 6040, Note_on_c, 0, 61, 50
3, 6073, Note_on_c, 0, 61, 0
3, 6080, Note_on_c, 0, 64, 45
3, 6115, Note_on_c, 0, 64, 0
3, 6120, Note_on_c, 0, 54, 40
3, 6155, Note_on_c, 0, 54, 0
3, 6160, Note_on_c, 0, 61, 35
3, 6193, Note_on_c, 0, 61, 0
3, 6200, Note_on_c, 0, 64, 32
3, 6235, Note_on_c, 0, 64, 0
3, 6240, Control_c, 0, 64, 127
3, 6240, Note_on_c, 0, 54, 30
3, 6275, Note_on_c, 0, 54, 0
3, 6280, Note_on_c, 0, 59, 30
3, 6313, Note_on_c, 0, 59, 0
3, 6320, Note_on_c, 0, 62, 30
3, 6355, Note_on_c, 0, 62, 0
3, 6360, Note_on_c, 0, 54, 30
3, 6395, Note_on_c, 0, 54, 0
3, 6400, Note_on_c, 0, 59, 30
3, 6433, Note_on_c, 0, 59, 0
3, 6440, Note_on_c, 0, 62, 30
3, 6475, Note_on_c, 0, 62, 0
3, 6480, Control_c, 0, 64, 0
3, 6480, Note_on_c, 0, 55, 30
3, 6515, Note_on_c, 0, 55, 0
3, 6520, Note_on_c, 0, 59, 30
3, 6553, Note_on_c, 0, 59, 0
3, 6560, Note_on_c, 0, 61, 30
3, 6595, Note_on_c, 0, 61, 0
3, 6600, Note_on_c, 0, 52, 30
3, 6635, Note_on_c, 0, 52, 0
3, 6640, Note_on_c, 0, 59, 30
3, 6673, Note_on_c, 0, 59, 0
3, 6680, Note_on_c, 0, 61, 30
3, 6715, Note_on_c, 0, 61, 0
3, 6720, Note_on_c, 0, 54, 30
3, 6757, Note_on_c, 0, 54, 0
3, 6760, Note_on_c, 0, 59, 30
3, 6797, Note_on_c, 0, 59, 0
3, 6800, Note_on_c, 0, 62, 30
3, 6837, Note_on_c, 0, 62, 0
3, 6840, Note_on_c, 0, 54, 30
3, 6877, Note_on_c, 0, 54, 0
3, 6880, Note_on_c, 0, 59, 30
3, 6917, Note_on_c, 0, 59, 0
3, 6920, Note_on_c, 0, 62, 30
3, 6957, Note_on_c, 0, 62, 0
3, 6960, Note_on_c, 0, 54, 28
3, 7000, Note_on_c, 0, 54, 0
3, 7000, Note_on_c, 0, 58, 26
3, 7040, Note_on_c, 0, 58, 0
3, 7040, Note_on_c, 0, 61, 24
3, 7079, Note_on_c, 0, 61, 0
3, 7080, Note_on_c, 0, 54, 22
3, 7120, Note_on_c, 0, 54, 0
3, 7120, Note_on_c, 0, 58, 20
3, 7160, Note_on_c, 0, 58, 0
3, 7160, Note_on_c, 0, 61, 18
3, 7199, Note_on_c, 0, 61, 0
3, 7200, Note_on_c, 0, 59, 30
3, 7237, Note_on_c, 0, 59, 0
3, 7240, Note_on_c, 0, 62, 30
3, 7277, Note_on_c, 0, 62, 0
3, 7280, Note_on_c, 0, 66, 30
3, 7317, Note_on_c, 0, 66, 0
3, 7320, Note_on_c, 0, 59, 30
3, 7357, Note_on_c, 0, 59, 0
3, 7360, Note_on_c, 0, 62, 30
3, 7397, Note_on_c, 0, 62, 0
3, 7400, Note_on_c, 0, 66, 30
3, 7437, Note_on_c, 0, 66, 0
3, 7440, Note_on_c, 0, 59, 30
3, 7477, Note_on_c, 0, 59, 0
3, 7480, Note_on_c, 0, 63, 30
3, 7517, Note_on_c, 0, 63, 0
3, 7520, Note_on_c, 0, 66, 30
3, 7557, Note_on_c, 0, 66, 0
3, 7560, Note_on_c, 0, 59, 30
3, 7600, Note_on_c, 0, 59, 0
3, 7600, Note_on_c, 0, 63, 30
3, 7640, Note_on_c, 0, 63, 0
3, 7640, Note_on_c, 0, 66, 30
3, 7680, Note_on_c, 0, 66, 0
3, 7680, Control_c, 0, 64, 127
3, 7680, Note_on_c, 0, 59, 35
3, 7720, Note_on_c, 0, 59, 0
3, 7720, Note_on_c, 0, 64, 40
3, 7760, Note_on_c, 0, 64, 0
3, 7760, Note_on_c, 0, 67, 45
3, 7800, Note_on_c, 0, 67, 0
3, 7800, Note_on_c, 0, 59, 50
3, 7840, Note_on_c, 0, 59, 0
3, 7840, Note_on_c, 0, 64, 55
3, 7880, Note_on_c, 0, 64, 0
3, 7880, Note_on_c, 0, 67, 60
3, 7920, Note_on_c, 0, 67, 0
3, 7920, Note_on_c, 0, 59, 60
3, 7960, Note_on_c, 0, 59, 0
3, 7960, Note_on_c, 0, 64, 55
3, 8000, Note_on_c, 0, 64, 0
3, 8000, Note_on_c, 0, 67, 50
3, 8040, Note_on_c, 0, 67, 0
3, 8040, Control_c, 0, 64, 0
3, 8040, Note_on_c, 0, 59, 45
3, 8080, Note_on_c, 0, 59, 0
3, 8080, Note_on_c, 0, 64, 40
3, 8120, Note_on_c, 0, 64, 0
3, 8120, Note_on_c, 0, 67, 35
3, 8157, Note_on_c, 0, 67, 0
3, 8160, Note_on_c, 0, 59, 30
3, 8197, Note_on_c, 0, 59, 0
3, 8200, Note_on_c, 0, 63, 30
3, 8237, Note_on_c, 0, 63, 0
3, 8240, Note_on_c, 0, 66, 30
3, 8277, Note_on_c, 0, 66, 0
3, 8280, Note_on_c, 0, 59, 30
3, 8317, Note_on_c, 0, 59, 0
3, 8320, Note_on_c, 0, 63, 30
3, 8357, Note_on_c, 0, 63, 0
3, 8360, Note_on_c, 0, 66, 30
3, 8397, Note_on_c, 0, 66, 0
3, 8400, Note_on_c, 0, 59, 30
3, 8437, Note_on_c, 0, 59, 0
3, 8440, Note_on_c, 0, 63, 30
3, 8477, Note_on_c, 0, 63, 0
3, 8480, Note_on_c, 0, 66, 30
3, 8517, Note_on_c, 0, 66, 0
3, 8520, Note_on_c, 0, 59, 30
3, 8560, Note_on_c, 0, 59, 0
3, 8560, Note_on_c, 0, 63, 30
3, 8600, Note_on_c, 0, 63, 0
3, 8600, Note_on_c, 0, 66, 30
3, 8640, Note_on_c, 0, 66, 0
3, 8640, Control_c, 0, 64, 127
3, 8640, Note_on_c, 0, 59, 35
3, 8680, Note_on_c, 0, 59, 0
3, 8680, Note_on_c, 0, 64, 40
3, 8720, Note_on_c, 0, 64, 0
3, 8720, Note_on_c, 0, 67, 45
3, 8760, Note_on_c, 0, 67, 0
3, 8760, Note_on_c, 0, 59, 50
3, 8800, Note_on_c, 0, 59, 0
3, 8800, Note_on_c, 0, 64, 55
3, 8840, Note_on_c, 0, 64, 0
3, 8840, Note_on_c, 0, 67, 60
3, 8880, Note_on_c, 0, 67, 0
3, 8880, Note_on_c, 0, 59, 60
3, 8920, Note_on_c, 0, 59, 0
3, 8920, Note_on_c, 0, 64, 55
3, 8960, Note_on_c, 0, 64, 0
3, 8960, Note_on_c, 0, 67, 50
3, 9000, Note_on_c, 0, 67, 0
3, 9000, Control_c, 0, 64, 0
3, 9000, Note_on_c, 0, 59, 45
3, 9040, Note_on_c, 0, 59, 0
3, 9040, Note_on_c, 0, 64, 40
3, 9080, Note_on_c, 0, 64, 0
3, 9080, Note_on_c, 0, 67, 35
3, 9120, Note_on_c, 0, 67, 0
3, 9120, Note_on_c, 0, 59, 30
3, 9157, Note_on_c, 0, 59, 0
3, 9160, Note_on_c, 0, 63, 30
3, 9197, Note_on_c, 0, 63, 0
3, 9200, Note_on_c, 0, 66, 30
3, 9237, Note_on_c, 0, 66, 0
3, 9240, Note_on_c, 0, 59, 30
3, 9277, Note_on_c, 0, 59, 0
3, 9280, Note_on_c, 0, 63, 30
3, 9317, Note_on_c, 0, 63, 0
3, 9320, Note_on_c, 0, 66, 30
3, 9357, Note_on_c, 0, 66, 0
3, 9360, Note_on_c, 0, 59, 30
3, 9397, Note_on_c, 0, 59, 0
3, 9400, Note_on_c, 0, 62, 30
3, 9437, Note_on_c, 0, 62, 0
3, 9440, Note_on_c, 0, 65, 30
3, 9477, Note_on_c, 0, 65, 0
3, 9480, Note_on_c, 0, 59, 30
3, 9517, Note_on_c, 0, 59, 0
3, 9520, Note_on_c, 0, 62, 30
3, 9557, Note_on_c, 0, 62, 0
3, 9560, Note_on_c, 0, 65, 30
3, 9597, Note_on_c, 0, 65, 0
3, 9600, Note_on_c, 0, 59, 30
3, 9640, Note_on_c, 0, 59, 0
3, 9640, Note_on_c, 0, 61, 30
3, 9680, Note_on_c, 0, 61, 0
3, 9680, Note_on_c, 0, 68, 30
3, 9720, Note_on_c, 0, 68, 0
3, 9720, Note_on_c, 0, 59, 30
3, 9760, Note_on_c, 0, 59, 0
3, 9760, Note_on_c, 0, 61, 30
3, 9800, Note_on_c, 0, 61, 0
3, 9800, Note_on_c, 0, 68, 30
3, 9840, Note_on_c, 0, 68, 0
3, 9840, Note_on_c, 0, 57, 30
3, 9880, Note_on_c, 0, 57, 0
3, 9880, Note_on_c, 0, 61, 30
3, 9920, Note_on_c, 0, 61, 0
3, 9920, Note_on_c, 0, 66, 30
3, 9960, Note_on_c, 0, 66, 0
3, 9960, Note_on_c, 0, 57, 30
3, 10000, Note_on_c, 0, 57, 0
3, 10000, Note_on_c, 0, 61, 30
3, 10040, Note_on_c, 0, 61, 0
3, 10040, Note_on_c, 0, 66, 30
3, 10080, Note_on_c, 0, 66, 0
3, 10080, Note_on_c, 0, 55, 30
3, 10120, Note_on_c, 0, 55, 0
3, 10120, Note_on_c, 0, 59, 30
3, 10160, Note_on_c, 0, 59, 0
3, 10160, Note_on_c, 0, 62, 30
3, 10200, Note_on_c, 0, 62, 0
3, 10200, Note_on_c, 0, 55, 30
3, 10240, Note_on_c, 0, 55, 0
3, 10240, Note_on_c, 0, 59, 30
3, 10280, Note_on_c, 0, 59, 0
3, 10280, Note_on_c, 0, 62, 30
3, 10320, Note_on_c, 0, 62, 0
3, 10320, Note_on_c, 0, 54, 32
3, 10360, Note_on_c, 0, 54, 0
3, 10360, Note_on_c, 0, 57, 36
3, 10400, Note_on_c, 0, 57, 0
3, 10400, Note_on_c, 0, 63, 40
3, 10440, Note_on_c, 0, 63, 0
3, 10440, Note_on_c, 0, 54, 44
3, 10480, Note_on_c, 0, 54, 0
3, 10480, Note_on_c, 0, 57, 48
3, 10520, Note_on_c, 0, 57, 0
3, 10520, Note_on_c, 0, 63, 52
3, 10560, Note_on_c, 0, 63, 0
3, 10560, Note_on_c, 0, 49, 30
3, 10597, Note_on_c, 0, 49, 0
3, 10600, Note_on_c, 0, 54, 30
3, 10637, Note_on_c, 0, 54, 0
3, 10640, Note_on_c, 0, 57, 30
3, 10677, Note_on_c, 0, 57, 0
3, 10680, Note_on_c, 0, 49, 30
3, 10717, Note_on_c, 0, 49, 0
3, 10720, Note_on_c, 0, 54, 30
3, 10757, Note_on_c, 0, 54, 0
3, 10760, Note_on_c, 0, 57, 30
3, 10797, Note_on_c, 0, 57, 0
3, 10800, Note_on_c, 0, 49, 30
3, 10840, Note_on_c, 0, 49, 0
3, 10840, Note_on_c, 0, 54, 30
3, 10880, Note_on_c, 0, 54, 0
3, 10880, Note_on_c, 0, 56, 30
3, 10920, Note_on_c, 0, 56, 0
3, 10920, Note_on_c, 0, 49, 30
3, 10960, Note_on_c, 0, 49, 0
3, 10960, Note_on_c, 0, 53, 30
3, 11000, Note_on_c, 0, 53, 0
3, 11000, Note_on_c, 0, 56, 30
3, 11040, Note_on_c, 0, 56, 0
3, 11040, Control_c, 0, 64, 127
3, 11040, Note_on_c, 0, 54, 30
3, 11077, Note_on_c, 0, 54, 0
3, 11080, Note_on_c, 0, 57, 30
3, 11117, Note_on_c, 0, 57, 0
3, 11120, Note_on_c, 0, 61, 30
3, 11157, Note_on_c, 0, 61, 0
3, 11160, Note_on_c, 0, 57, 32
3, 11197, Note_on_c, 0, 57, 0
3, 11200, Note_on_c, 0, 61, 36
3, 11237, Note_on_c, 0, 61, 0
3, 11240, Note_on_c, 0, 66, 40
3, 11277, Note_on_c, 0, 66, 0
3, 11280, Note_on_c, 0, 61, 44
3, 11317, Note_on_c, 0, 61, 0
3, 11320, Note_on_c, 0, 66, 48
3, 11357, Note_on_c, 0, 66, 0
3, 11360, Note_on_c, 0, 69, 52
3, 11397, Note_on_c, 0, 69, 0
3, 11400, Note_on_c, 0, 61, 30
3, 11437, Note_on_c, 0, 61, 0
3, 11440, Note_on_c, 0, 66, 30
3, 11477, Note_on_c, 0, 66, 0
3, 11480, Note_on_c, 0, 69, 30
3, 11517, Note_on_c, 0, 69, 0
3, 11520, Control_c, 0, 64, 0
3, 11520, Control_c, 0, 64, 127
3, 11520, Note_on_c, 0, 61, 30
3, 11557, Note_on_c, 0, 61, 0
3, 11560, Note_on_c, 0, 68, 30
3, 11597, Note_on_c, 0, 68, 0
3, 11600, Note_on_c, 0, 71, 30
3, 11637, Note_on_c, 0, 71, 0
3, 11640, Note_on_c, 0, 61, 30
3, 11677, Note_on_c, 0, 61, 0
3, 11680, Note_on_c, 0, 68, 30
3, 11717, Note_on_c, 0, 68, 0
3, 11720, Note_on_c, 0, 71, 30
3, 11757, Note_on_c, 0, 71, 0
3, 11760, Note_on_c, 0, 61, 30
3, 11797, Note_on_c, 0, 61, 0
3, 11800, Note_on_c, 0, 68, 30
3, 11837, Note_on_c, 0, 68, 0
3, 11840, Note_on_c, 0, 71, 30
3, 11877, Note_on_c, 0, 71, 0
3, 11880, Note_on_c, 0, 61, 30
3, 11917, Note_on_c, 0, 61, 0
3, 11920, Note_on_c, 0, 68, 30
3, 11957, Note_on_c, 0, 68, 0
3, 11960, Note_on_c, 0, 71, 30
3, 11997, Note_on_c, 0, 71, 0
3, 12000, Control_c, 0, 64, 0
3, 12000, Note_on_c, 0, 61, 32
3, 12040, Note_on_c, 0, 61, 0
3, 12040, Note_on_c, 0, 66, 33
3, 12080, Note_on_c, 0, 66, 0
3, 12080, Note_on_c, 0, 69, 35
3, 12120, Note_on_c, 0, 69, 0
3, 12120, Note_on_c, 0, 61, 36
3, 12160, Note_on_c, 0, 61, 0
3, 12160, Note_on_c, 0, 66, 38
3, 12200, Note_on_c, 0, 66, 0
3, 12200, Note_on_c, 0, 69, 39
3, 12240, Note_on_c, 0, 69, 0
3, 12240, Note_on_c, 0, 60, 41
3, 12280, Note_on_c, 0, 60, 0
3, 12280, Note_on_c, 0, 66, 42
3, 12320, Note_on_c, 0, 66, 0
3, 12320, Note_on_c, 0, 69, 44
3, 12360, Note_on_c, 0, 69, 0
3, 12360, Note_on_c, 0, 61, 45
3, 12400, Note_on_c, 0, 61, 0
3, 12400, Note_on_c, 0, 66, 47
3, 12440, Note_on_c, 0, 66, 0
3, 12440, Note_on_c, 0, 69, 48
3, 12480, Note_on_c, 0, 69, 0
3, 12480, Control_c, 0, 64, 127
3, 12480, Note_on_c, 0, 63, 50
3, 12517, Note_on_c, 0, 63, 0
3, 12520, Note_on_c, 0, 66, 51
3, 12557, Note_on_c, 0, 66, 0
3, 12560, Note_on_c, 0, 68, 53
3, 12597, Note_on_c, 0, 68, 0
3, 12600, Note_on_c, 0, 63, 54
3, 12637, Note_on_c, 0, 63, 0
3, 12640, Note_on_c, 0, 66, 56
3, 12677, Note_on_c, 0, 66, 0
3, 12680, Note_on_c, 0, 68, 57
3, 12717, Note_on_c, 0, 68, 0
3, 12720, Note_on_c, 0, 63, 59
3, 12757, Note_on_c, 0, 63, 0
3, 12760, Note_on_c, 0, 66, 60
3, 12797, Note_on_c, 0, 66, 0
3, 12800, Note_on_c, 0, 68, 62
3, 12837, Note_on_c, 0, 68, 0
3, 12840, Note_on_c, 0, 63, 63
3, 12880, Note_on_c, 0, 63, 0
3, 12880, Note_on_c, 0, 66, 65
3, 12920, Note_on_c, 0, 66, 0
3, 12920, Note_on_c, 0, 68, 66
3, 12960, Note_on_c, 0, 68, 0
3, 12960, Control_c, 0, 64, 0
3, 12960, Control_c, 0, 64, 127
3, 12960, Note_on_c, 0, 64, 67
3, 13000, Note_on_c, 0, 64, 0
3, 13000, Note_on_c, 0, 68, 68
3, 13040, Note_on_c, 0, 68, 0
3, 13040, Note_on_c, 0, 73, 68
3, 13080, Note_on_c, 0, 73, 0
3, 13080, Note_on_c, 0, 64, 68
3, 13120, Note_on_c, 0, 64, 0
3, 13120, Note_on_c, 0, 68, 68
3, 13160, Note_on_c, 0, 68, 0
3, 13160, Note_on_c, 0, 73, 68
3, 13200, Note_on_c, 0, 73, 0
3, 13200, Control_c, 0, 64, 0
3, 13200, Note_on_c, 0, 63, 65
3, 13240, Note_on_c, 0, 63, 0
3, 13240, Note_on_c, 0, 66, 62
3, 13280, Note_on_c, 0, 66, 0
3, 13280, Note_on_c, 0, 69, 59
3, 13320, Note_on_c, 0, 69, 0
3, 13320, Note_on_c, 0, 61, 56
3, 13360, Note_on_c, 0, 61, 0
3, 13360, Note_on_c, 0, 64, 53
3, 13400, Note_on_c, 0, 64, 0
3, 13400, Note_on_c, 0, 70, 50
3, 13440, Note_on_c, 0, 70, 0
3, 13440, Note_on_c, 0, 72, 49
3, 13477, Note_on_c, 0, 72, 0
3, 13480, Note_on_c, 0, 60, 48
3, 13517, Note_on_c, 0, 60, 0
3, 13520, Note_on_c, 0, 63, 46
3, 13557, Note_on_c, 0, 63, 0
3, 13560, Note_on_c, 0, 68, 45
3, 13600, Note_on_c, 0, 68, 0
3, 13600, Note_on_c, 0, 60, 50
3, 13640, Note_on_c, 0, 60, 0
3, 13640, Note_on_c, 0, 63, 55
3, 13680, Note_on_c, 0, 63, 0
3, 13680, Note_on_c, 0, 69, 60
3, 13720, Note_on_c, 0, 69, 0
3, 13720, Note_on_c, 0, 60, 55
3, 13760, Note_on_c, 0, 60, 0
3, 13760, Note_on_c, 0, 63, 50
3, 13800, Note_on_c, 0, 63, 0
3, 13800, Note_on_c, 0, 66, 45
3, 13837, Note_on_c, 0, 66, 0
3, 13840, Note_on_c, 0, 60, 45
3, 13877, Note_on_c, 0, 60, 0
3, 13880, Note_on_c, 0, 63, 45
3, 13917, Note_on_c, 0, 63, 0
3, 13960, Note_on_c, 0, 60, 45
3, 13997, Note_on_c, 0, 60, 0
3, 14000, Note_on_c, 0, 63, 45
3, 14037, Note_on_c, 0, 63, 0
3, 14040, Note_on_c, 0, 44, 30
3, 14080, Note_on_c, 0, 44, 0
3, 14080, Note_on_c, 0, 60, 35
3, 14120, Note_on_c, 0, 60, 0
3, 14120, Note_on_c, 0, 63, 40
3, 14160, Note_on_c, 0, 63, 0
3, 14160, Note_on_c, 0, 45, 45
3, 14200, Note_on_c, 0, 45, 0
3, 14200, Note_on_c, 0, 60, 40
3, 14240, Note_on_c, 0, 60, 0
3, 14240, Note_on_c, 0, 63, 35
3, 14280, Note_on_c, 0, 63, 0
3, 14280, Note_on_c, 0, 42, 30
3, 14320, Note_on_c, 0, 42, 0
3, 14320, Note_on_c, 0, 60, 30
3, 14360, Note_on_c, 0, 60, 0
3, 14360, Note_on_c, 0, 63, 30
3, 14399, Note_on_c, 0, 63, 0
3, 14400, Note_on_c, 0, 40, 30
3, 14440, Note_on_c, 0, 40, 0
3, 14440, Note_on_c, 0, 64, 30
3, 14480, Note_on_c, 0, 64, 0
3, 14480, Note_on_c, 0, 68, 30
3, 14520, Note_on_c, 0, 68, 0
3, 14520, Control_c, 0, 64, 127
3, 14520, Note_on_c, 0, 73, 45
3, 14560, Note_on_c, 0, 73, 0
3, 14560, Note_on_c, 0, 64, 50
3, 14600, Note_on_c, 0, 64, 0
3, 14600, Note_on_c, 0, 68, 55
3, 14640, Note_on_c, 0, 68, 0
3, 14640, Note_on_c, 0, 76, 60
3, 14680, Note_on_c, 0, 76, 0
3, 14680, Note_on_c, 0, 64, 55
3, 14720, Note_on_c, 0, 64, 0
3, 14720, Note_on_c, 0, 68, 50
3, 14760, Note_on_c, 0, 68, 0
3, 14760, Note_on_c, 0, 73, 45
3, 14797, Note_on_c, 0, 73, 0
3, 14800, Note_on_c, 0, 64, 45
3, 14837, Note_on_c, 0, 64, 0
3, 14840, Note_on_c, 0, 68, 45
3, 14877, Note_on_c, 0, 68, 0
3, 14880, Control_c, 0, 64, 0
3, 14920, Note_on_c, 0, 52, 45
3, 14957, Note_on_c, 0, 52, 0
3, 14960, Note_on_c, 0, 56, 45
3, 14997, Note_on_c, 0, 56, 0
3, 15000, Control_c, 0, 64, 127
3, 15000, Note_on_c, 0, 61, 30
3, 15040, Note_on_c, 0, 61, 0
3, 15040, Note_on_c, 0, 52, 35
3, 15080, Note_on_c, 0, 52, 0
3, 15080, Note_on_c, 0, 56, 40
3, 15120, Note_on_c, 0, 56, 0
3, 15120, Note_on_c, 0, 64, 45
3, 15160, Note_on_c, 0, 64, 0
3, 15160, Note_on_c, 0, 52, 40
3, 15200, Note_on_c, 0, 52, 0
3, 15200, Note_on_c, 0, 56, 35
3, 15240, Note_on_c, 0, 56, 0
3, 15240, Note_on_c, 0, 61, 30
3, 15277, Note_on_c, 0, 61, 0
3, 15280, Note_on_c, 0, 52, 30
3, 15317, Note_on_c, 0, 52, 0
3, 15320, Note_on_c, 0, 56, 30
3, 15357, Note_on_c, 0, 56, 0
3, 15360, Control_c, 0, 64, 0
3, 15360, Note_on_c, 0, 51, 35
3, 15400, Note_on_c, 0, 51, 0
3, 15400, Note_on_c, 0, 57, 30
3, 15440, Note_on_c, 0, 57, 0
3, 15440, Note_on_c, 0, 54, 30
3, 15480, Note_on_c, 0, 54, 0
3, 15480, Note_on_c, 0, 60, 35
3, 15520, Note_on_c, 0, 60, 0
3, 15520, Note_on_c, 0, 57, 30
3, 15560, Note_on_c, 0, 57, 0
3, 15560, Note_on_c, 0, 63, 30
3, 15600, Note_on_c, 0, 63, 0
3, 15600, Note_on_c, 0, 60, 44
3, 15640, Note_on_c, 0, 60, 0
3, 15640, Note_on_c, 0, 66, 38
3, 15680, Note_on_c, 0, 66, 0
3, 15680, Note_on_c, 0, 63, 42
3, 15720, Note_on_c, 0, 63, 0
3, 15720, Note_on_c, 0, 69, 56
3, 15760, Note_on_c, 0, 69, 0
3, 15760, Note_on_c, 0, 66, 50
3, 15800, Note_on_c, 0, 66, 0
3, 15800, Note_on_c, 0, 72, 54
3, 15835, Note_on_c, 0, 72, 0
3, 15840, Control_c, 0, 64, 127
3, 15840, Note_on_c, 0, 52, 35
3, 15880, Note_on_c, 0, 52, 0
3, 15880, Note_on_c, 0, 61, 30
3, 15920, Note_on_c, 0, 61, 0
3, 15920, Note_on_c, 0, 56, 30
3, 15960, Note_on_c, 0, 56, 0
3, 15960, Note_on_c, 0, 64, 35
3, 16000, Note_on_c, 0, 64, 0
3, 16000, Note_on_c, 0, 61, 30
3, 16040, Note_on_c, 0, 61, 0
3, 16040, Note_on_c, 0, 68, 30
3, 16080, Note_on_c, 0, 68, 0
3, 16080, Note_on_c, 0, 64, 35
3, 16120, Note_on_c, 0, 64, 0
3, 16120, Note_on_c, 0, 73, 30
3, 16160, Note_on_c, 0, 73, 0
3, 16160, Note_on_c, 0, 68, 30
3, 16200, Note_on_c, 0, 68, 0
3, 16200, Note_on_c, 0, 76, 35
3, 16240, Note_on_c, 0, 76, 0
3, 16240, Note_on_c, 0, 73, 30
3, 16280, Note_on_c, 0, 73, 0
3, 16280, Note_on_c, 0, 68, 30
3, 16320, Note_on_c, 0, 68, 0
3, 16320, Control_c, 0, 64, 0
3, 16320, Note_on_c, 0, 61, 35
3, 16360, Note_on_c, 0, 61, 0
3, 16360, Note_on_c, 0, 67, 30
3, 16400, Note_on_c, 0, 67, 0
3, 16400, Note_on_c, 0, 64, 30
3, 16440, Note_on_c, 0, 64, 0
3, 16440, Note_on_c, 0, 70, 35
3, 16480, Note_on_c, 0, 70, 0
3, 16480, Note_on_c, 0, 67, 30
3, 16520, Note_on_c, 0, 67, 0
3, 16520, Note_on_c, 0, 73, 30
3, 16560, Note_on_c, 0, 73, 0
3, 16560, Note_on_c, 0, 70, 44
3, 16600, Note_on_c, 0, 70, 0
3, 16600, Note_on_c, 0, 76, 38
3, 16640, Note_on_c, 0, 76, 0
3, 16640, Note_on_c, 0, 73, 42
3, 16680, Note_on_c, 0, 73, 0
3, 16680, Note_on_c, 0, 79, 54
3, 16720, Note_on_c, 0, 79, 0
3, 16720, Note_on_c, 0, 76, 50
3, 16760, Note_on_c, 0, 76, 0
3, 16760, Note_on_c, 0, 82, 52
3, 16795, Note_on_c, 0, 82, 0
3, 16800, Control_c, 0, 64, 127
3, 16800, Note_on_c, 0, 66, 50
3, 16840, Note_on_c, 0, 66, 0
3, 16840, Note_on_c, 0, 72, 45
3, 16880, Note_on_c, 0, 72, 0
3, 16880, Note_on_c, 0, 69, 45
3, 16920, Note_on_c, 0, 69, 0
3, 16920, Note_on_c, 0, 75, 53
3, 16960, Note_on_c, 0, 75, 0
3, 16960, Note_on_c, 0, 72, 49
3, 17000, Note_on_c, 0, 72, 0
3, 17000, Note_on_c, 0, 78, 51
3, 17040, Note_on_c, 0, 78, 0
3, 17040, Note_on_c, 0, 75, 59
3, 17080, Note_on_c, 0, 75, 0
3, 17080, Note_on_c, 0, 81, 55
3, 17120, Note_on_c, 0, 81, 0
3, 17120, Note_on_c, 0, 78, 57
3, 17160, Note_on_c, 0, 78, 0
3, 17160, Note_on_c, 0, 84, 65
3, 17200, Note_on_c, 0, 84, 0
3, 17200, Note_on_c, 0, 81, 61
3, 17240, Note_on_c, 0, 81, 0
3, 17240, Note_on_c, 0, 87, 75
3, 17280, Note_on_c, 0, 87, 0
3, 17280, Note_on_c, 0, 84, 71
3, 17320, Note_on_c, 0, 84, 0
3, 17320, Note_on_c, 0, 78, 67
3, 17360, Note_on_c, 0, 78, 0
3, 17360, Note_on_c, 0, 81, 69
3, 17400, Note_on_c, 0, 81, 0
3, 17400, Note_on_c, 0, 75, 77
3, 17440, Note_on_c, 0, 75, 0
3, 17440, Note_on_c, 0, 78, 73
3, 17480, Note_on_c, 0, 78, 0
3, 17480, Note_on_c, 0, 72, 75
3, 17520, Note_on_c, 0, 72, 0
3, 17520, Note_on_c, 0, 75, 77
3, 17560, Note_on_c, 0, 75, 0
3, 17560, Note_on_c, 0, 69, 71
3, 17600, Note_on_c, 0, 69, 0
3, 17600, Note_on_c, 0, 72, 69
3, 17640, Note_on_c, 0, 72, 0
3, 17640, Note_on_c, 0, 66, 71
3, 17680, Note_on_c, 0, 66, 0
3, 17680, Note_on_c, 0, 69, 65
3, 17720, Note_on_c, 0, 69, 0
3, 17720, Note_on_c, 0, 63, 63
3, 17755, Note_on_c, 0, 63, 0
3, 17760, Note_on_c, 0, 66, 65
3, 17800, Note_on_c, 0, 66, 0
3, 17800, Note_on_c, 0, 60, 59
3, 17840, Note_on_c, 0, 60, 0
3, 17840, Note_on_c, 0, 63, 57
3, 17880, Note_on_c, 0, 63, 0
3, 17880, Note_on_c, 0, 57, 59
3, 17920, Note_on_c, 0, 57, 0
3, 17920, Note_on_c, 0, 60, 53
3, 17960, Note_on_c, 0, 60, 0
3, 17960, Note_on_c, 0, 54, 51
3, 18000, Note_on_c, 0, 54, 0
3, 18000, Control_c, 0, 64, 0
3, 18000, Note_on_c, 0, 57, 53
3, 18040, Note_on_c, 0, 57, 0
3, 18040, Note_on_c, 0, 51, 47
3, 18080, Note_on_c, 0, 51, 0
3, 18080, Note_on_c, 0, 54, 45
3, 18120, Note_on_c, 0, 54, 0
3, 18120, Note_on_c, 0, 49, 47
3, 18160, Note_on_c, 0, 49, 0
3, 18160, Note_on_c, 0, 54, 41
3, 18200, Note_on_c, 0, 54, 0
3, 18200, Note_on_c, 0, 57, 43
3, 18240, Note_on_c, 0, 57, 0
3, 18240, Note_on_c, 0, 48, 45
3, 18280, Note_on_c, 0, 48, 0
3, 18280, Note_on_c, 0, 54, 50
3, 18320, Note_on_c, 0, 54, 0
3, 18320, Note_on_c, 0, 56, 55
3, 18360, Note_on_c, 0, 56, 0
3, 18360, Note_on_c, 0, 57, 60
3, 18400, Note_on_c, 0, 57, 0
3, 18400, Note_on_c, 0, 56, 55
3, 18440, Note_on_c, 0, 56, 0
3, 18440, Note_on_c, 0, 54, 50
3, 18475, Note_on_c, 0, 54, 0
3, 18480, Note_on_c, 0, 51, 45
3, 18520, Note_on_c, 0, 51, 0
3, 18520, Note_on_c, 0, 54, 45
3, 18560, Note_on_c, 0, 54, 0
3, 18560, Note_on_c, 0, 57, 45
3, 18600, Note_on_c, 0, 57, 0
3, 18600, Note_on_c, 0, 49, 45
3, 18640, Note_on_c, 0, 49, 0
3, 18640, Note_on_c, 0, 54, 45
3, 18680, Note_on_c, 0, 54, 0
3, 18680, Note_on_c, 0, 57, 45
3, 18720, Note_on_c, 0, 57, 0
3, 18720, Note_on_c, 0, 48, 45
3, 18760, Note_on_c, 0, 48, 0
3, 18760, Note_on_c, 0, 54, 50
3, 18800, Note_on_c, 0, 54, 0
3, 18800, Note_on_c, 0, 56, 55
3, 18840, Note_on_c, 0, 56, 0
3, 18840, Note_on_c, 0, 57, 60
3, 18880, Note_on_c, 0, 57, 0
3, 18880, Note_on_c, 0, 56, 65
3, 18920, Note_on_c, 0, 56, 0
3, 18920, Note_on_c, 0, 54, 70
3, 18955, Note_on_c, 0, 54, 0
3, 18960, Note_on_c, 0, 50, 80
3, 19000, Note_on_c, 0, 50, 0
3, 19000, Note_on_c, 0, 54, 68
3, 19040, Note_on_c, 0, 54, 0
3, 19040, Note_on_c, 0, 57, 68
3, 19080, Note_on_c, 0, 57, 0
3, 19080, Note_on_c, 0, 49, 68
3, 19120, Note_on_c, 0, 49, 0
3, 19120, Note_on_c, 0, 54, 68
3, 19160, Note_on_c, 0, 54, 0
3, 19160, Note_on_c, 0, 57, 68
3, 19200, Note_on_c, 0, 57, 0
3, 19200, Note_on_c, 0, 48, 68
3, 19240, Note_on_c, 0, 48, 0
3, 19240, Note_on_c, 0, 54, 68
3, 19280, Note_on_c, 0, 54, 0
3, 19280, Note_on_c, 0, 56, 67
3, 19320, Note_on_c, 0, 56, 0
3, 19320, Note_on_c, 0, 57, 63
3, 19360, Note_on_c, 0, 57, 0
3, 19360, Note_on_c, 0, 56, 59
3, 19400, Note_on_c, 0, 56, 0
3, 19400, Note_on_c, 0, 54, 55
3, 19435, Note_on_c, 0, 54, 0
3, 19440, Note_on_c, 0, 49, 54
3, 19477, Note_on_c, 0, 49, 0
3, 19480, Note_on_c, 0, 52, 53
3, 19517, Note_on_c, 0, 52, 0
3, 19520, Note_on_c, 0, 61, 52
3, 19557, Note_on_c, 0, 61, 0
3, 19560, Note_on_c, 0, 49, 51
3, 19597, Note_on_c, 0, 49, 0
3, 19600, Note_on_c, 0, 52, 50
3, 19637, Note_on_c, 0, 52, 0
3, 19640, Note_on_c, 0, 61, 49
3, 19677, Note_on_c, 0, 61, 0
3, 19680, Note_on_c, 0, 51, 47
3, 19720, Note_on_c, 0, 51, 0
3, 19720, Note_on_c, 0, 57, 46
3, 19760, Note_on_c, 0, 57, 0
3, 19760, Note_on_c, 0, 61, 44
3, 19800, Note_on_c, 0, 61, 0
3, 19800, Note_on_c, 0, 51, 43
3, 19840, Note_on_c, 0, 51, 0
3, 19840, Note_on_c, 0, 57, 41
3, 19880, Note_on_c, 0, 57, 0
3, 19880, Note_on_c, 0, 61, 39
3, 19920, Note_on_c, 0, 61, 0
3, 19920, Note_on_c, 0, 51, 37
3, 19960, Note_on_c, 0, 51, 0
3, 19960, Note_on_c, 0, 56, 36
3, 20000, Note_on_c, 0, 56, 0
3, 20000, Note_on_c, 0, 60, 35
3, 20040, Note_on_c, 0, 60, 0
3, 20040, Note_on_c, 0, 51, 33
3, 20080, Note_on_c, 0, 51, 0
3, 20080, Note_on_c, 0, 54, 32
3, 20120, Note_on_c, 0, 54, 0
3, 20120, Note_on_c, 0, 60, 31
3, 20160, Note_on_c, 0, 60, 0
3, 20160, Note_on_c, 0, 52, 30
3, 20200, Note_on_c, 0, 52, 0
3, 20200, Note_on_c, 0, 56, 30
3, 20240, Note_on_c, 0, 56, 0
3, 20240, Note_on_c, 0, 61, 30
3, 20280, Note_on_c, 0, 61, 0
3, 20280, Note_on_c, 0, 56, 30
3, 20320, Note_on_c, 0, 56, 0
3, 20320, Note_on_c, 0, 61, 30
3, 20360, Note_on_c, 0, 61, 0
3, 20360, Note_on_c, 0, 64, 30
3, 20395, Note_on_c, 0, 64, 0
3, 20400, Note_on_c, 0, 56, 35
3, 20437, Note_on_c, 0, 56, 0
3, 20440, Note_on_c, 0, 61, 40
3, 20477, Note_on_c, 0, 61, 0
3, 20480, Note_on_c, 0, 64, 45
3, 20517, Note_on_c, 0, 64, 0
3, 20520, Note_on_c, 0, 56, 30
3, 20557, Note_on_c, 0, 56, 0
3, 20560, Note_on_c, 0, 61, 30
3, 20597, Note_on_c, 0, 61, 0
3, 20600, Note_on_c, 0, 64, 30
3, 20637, Note_on_c, 0, 64, 0
3, 20640, Control_c, 0, 64, 127
3, 20640, Note_on_c, 0, 56, 30
3, 20677, Note_on_c, 0, 56, 0
3, 20680, Note_on_c, 0, 63, 30
3, 20717, Note_on_c, 0, 63, 0
3, 20720, Note_on_c, 0, 66, 30
3, 20757, Note_on_c, 0, 66, 0
3, 20760, Note_on_c, 0, 56, 30
3, 20797, Note_on_c, 0, 56, 0
3, 20800, Note_on_c, 0, 63, 30
3, 20837, Note_on_c, 0, 63, 0
3, 20840, Note_on_c, 0, 66, 30
3, 20877, Note_on_c, 0, 66, 0
3, 20880, Note_on_c, 0, 56, 30
3, 20917, Note_on_c, 0, 56, 0
3, 20920, Note_on_c, 0, 63, 30
3, 20957, Note_on_c, 0, 63, 0
3, 20960, Note_on_c, 0, 66, 30
3, 20997, Note_on_c, 0, 66, 0
3, 21000, Note_on_c, 0, 56, 30
3, 21037, Note_on_c, 0, 56, 0
3, 21040, Note_on_c, 0, 63, 30
3, 21077, Note_on_c, 0, 63, 0
3, 21080, Note_on_c, 0, 66, 30
3, 21117, Note_on_c, 0, 66, 0
3, 21120, Control_c, 0, 64, 0
3, 21120, Note_on_c, 0, 56, 32
3, 21160, Note_on_c, 0, 56, 0
3, 21160, Note_on_c, 0, 61, 35
3, 21200, Note_on_c, 0, 61, 0
3, 21200, Note_on_c, 0, 64, 37
3, 21240, Note_on_c, 0, 64, 0
3, 21240, Note_on_c, 0, 56, 39
3, 21280, Note_on_c, 0, 56, 0
3, 21280, Note_on_c, 0, 61, 41
3, 21320, Note_on_c, 0, 61, 0
3, 21320, Note_on_c, 0, 64, 43
3, 21360, Note_on_c, 0, 64, 0
3, 21360, Control_c, 0, 64, 127
3, 21360, Note_on_c, 0, 57, 50
3, 21400, Note_on_c, 0, 57, 0
3, 21400, Note_on_c, 0, 61, 50
3, 21440, Note_on_c, 0, 61, 0
3, 21440, Note_on_c, 0, 66, 50
3, 21480, Note_on_c, 0, 66, 0
3, 21480, Note_on_c, 0, 57, 50
3, 21520, Note_on_c, 0, 57, 0
3, 21520, Note_on_c, 0, 61, 50
3, 21560, Note_on_c, 0, 61, 0
3, 21560, Note_on_c, 0, 66, 50
3, 21600, Note_on_c, 0, 66, 0
3, 21600, Control_c, 0, 64, 0
3, 21600, Note_on_c, 0, 56, 45
3, 21637, Note_on_c, 0, 56, 0
3, 21640, Note_on_c, 0, 59, 45
3, 21677, Note_on_c, 0, 59, 0
3, 21680, Note_on_c, 0, 64, 47
3, 21717, Note_on_c, 0, 64, 0
3, 21720, Note_on_c, 0, 56, 49
3, 21757, Note_on_c, 0, 56, 0
3, 21760, Note_on_c, 0, 59, 50
3, 21797, Note_on_c, 0, 59, 0
3, 21800, Note_on_c, 0, 64, 52
3, 21837, Note_on_c, 0, 64, 0
3, 21840, Control_c, 0, 64, 127
3, 21840, Note_on_c, 0, 57, 54
3, 21877, Note_on_c, 0, 57, 0
3, 21880, Note_on_c, 0, 59, 56
3, 21917, Note_on_c, 0, 59, 0
3, 21920, Note_on_c, 0, 63, 58
3, 21957, Note_on_c, 0, 63, 0
3, 21960, Note_on_c, 0, 57, 54
3, 21997, Note_on_c, 0, 57, 0
3, 22000, Note_on_c, 0, 59, 50
3, 22037, Note_on_c, 0, 59, 0
3, 22040, Note_on_c, 0, 63, 46
3, 22077, Note_on_c, 0, 63, 0
3, 22080, Control_c, 0, 64, 0
3, 22080, Note_on_c, 0, 56, 45
3, 22117, Note_on_c, 0, 56, 0
3, 22120, Note_on_c, 0, 59, 45
3, 22157, Note_on_c, 0, 59, 0
3, 22160, Note_on_c, 0, 64, 45
3, 22197, Note_on_c, 0, 64, 0
3, 22200, Note_on_c, 0, 59, 45
3, 22237, Note_on_c, 0, 59, 0
3, 22240, Note_on_c, 0, 64, 45
3, 22277, Note_on_c, 0, 64, 0
3, 22280, Note_on_c, 0, 68, 45
3, 22317, Note_on_c, 0, 68, 0
3, 22320, Note_on_c, 0, 59, 45
3, 22357, Note_on_c, 0, 59, 0
3, 22360, Note_on_c, 0, 64, 45
3, 22397, Note_on_c, 0, 64, 0
3, 22400, Note_on_c, 0, 68, 45
3, 22437, Note_on_c, 0, 68, 0
3, 22440, Note_on_c, 0, 59, 48
3, 22477, Note_on_c, 0, 59, 0
3, 22480, Note_on_c, 0, 64, 52
3, 22517, Note_on_c, 0, 64, 0
3, 22520, Note_on_c, 0, 68, 56
3, 22557, Note_on_c, 0, 68, 0
3, 22560, Control_c, 0, 64, 127
3, 22560, Note_on_c, 0, 59, 45
3, 22597, Note_on_c, 0, 59, 0
3, 22600, Note_on_c, 0, 66, 47
3, 22637, Note_on_c, 0, 66, 0
3, 22640, Note_on_c, 0, 69, 49
3, 22677, Note_on_c, 0, 69, 0
3, 22680, Note_on_c, 0, 59, 50
3, 22717, Note_on_c, 0, 59, 0
3, 22720, Note_on_c, 0, 66, 52
3, 22757, Note_on_c, 0, 66, 0
3, 22760, Note_on_c, 0, 69, 54
3, 22797, Note_on_c, 0, 69, 0
3, 22800, Note_on_c, 0, 59, 56
3, 22837, Note_on_c, 0, 59, 0
3, 22840, Note_on_c, 0, 66, 58
3, 22877, Note_on_c, 0, 66, 0
3, 22880, Note_on_c, 0, 69, 45
3, 22917, Note_on_c, 0, 69, 0
3, 22920, Note_on_c, 0, 59, 45
3, 22957, Note_on_c, 0, 59, 0
3, 22960, Note_on_c, 0, 66, 45
3, 22997, Note_on_c, 0, 66, 0
3, 23000, Note_on_c, 0, 69, 45
3, 23037, Note_on_c, 0, 69, 0
3, 23040, Control_c, 0, 64, 0
3, 23040, Note_on_c, 0, 59, 45
3, 23080, Note_on_c, 0, 59, 0
3, 23080, Note_on_c, 0, 64, 47
3, 23120, Note_on_c, 0, 64, 0
3, 23120, Note_on_c, 0, 68, 49
3, 23160, Note_on_c, 0, 68, 0
3, 23160, Note_on_c, 0, 59, 51
3, 23200, Note_on_c, 0, 59, 0
3, 23200, Note_on_c, 0, 64, 53
3, 23240, Note_on_c, 0, 64, 0
3, 23240, Note_on_c, 0, 68, 55
3, 23280, Note_on_c, 0, 68, 0
3, 23280, Note_on_c, 0, 60, 57
3, 23320, Note_on_c, 0, 60, 0
3, 23320, Note_on_c, 0, 66, 59
3, 23360, Note_on_c, 0, 66, 0
3, 23360, Note_on_c, 0, 68, 61
3, 23400, Note_on_c, 0, 68, 0
3, 23400, Note_on_c, 0, 61, 63
3, 23437, Note_on_c, 0, 61, 0
3, 23440, Note_on_c, 0, 64, 65
3, 23477, Note_on_c, 0, 64, 0
3, 23480, Note_on_c, 0, 68, 67
3, 23517, Note_on_c, 0, 68, 0
3, 23520, Note_on_c, 0, 63, 35
3, 23560, Note_on_c, 0, 63, 0
3, 23560, Note_on_c, 0, 66, 35
3, 23600, Note_on_c, 0, 66, 0
3, 23600, Note_on_c, 0, 68, 35
3, 23640, Note_on_c, 0, 68, 0
3, 23640, Note_on_c, 0, 63, 35
3, 23680, Note_on_c, 0, 63, 0
3, 23680, Note_on_c, 0, 66, 35
3, 23720, Note_on_c, 0, 66, 0
3, 23720, Note_on_c, 0, 68, 35
3, 23760, Note_on_c, 0, 68, 0
3, 23760, Note_on_c, 0, 64, 35
3, 23800, Note_on_c, 0, 64, 0
3, 23800, Note_on_c, 0, 68, 35
3, 23840, Note_on_c, 0, 68, 0
3, 23840, Note_on_c, 0, 73, 35
3, 23880, Note_on_c, 0, 73, 0
3, 23880, Note_on_c, 0, 64, 35
3, 23920, Note_on_c, 0, 64, 0
3, 23920, Note_on_c, 0, 68, 35
3, 23960, Note_on_c, 0, 68, 0
3, 23960, Note_on_c, 0, 73, 35
3, 23997, Note_on_c, 0, 73, 0
3, 24000, Note_on_c, 0, 62, 40
3, 24040, Note_on_c, 0, 62, 0
3, 24040, Note_on_c, 0, 66, 40
3, 24080, Note_on_c, 0, 66, 0
3, 24080, Note_on_c, 0, 69, 40
3, 24120, Note_on_c, 0, 69, 0
3, 24120, Note_on_c, 0, 62, 40
3, 24160, Note_on_c, 0, 62, 0
3, 24160, Note_on_c, 0, 66, 40
3, 24200, Note_on_c, 0, 66, 0
3, 24200, Note_on_c, 0, 69, 40
3, 24240, Note_on_c, 0, 69, 0
3, 24240, Note_on_c, 0, 60, 45
3, 24280, Note_on_c, 0, 60, 0
3, 24280, Note_on_c, 0, 66, 45
3, 24320, Note_on_c, 0, 66, 0
3, 24320, Note_on_c, 0, 68, 45
3, 24360, Note_on_c, 0, 68, 0
3, 24360, Note_on_c, 0, 60, 45
3, 24400, Note_on_c, 0, 60, 0
3, 24400, Note_on_c, 0, 66, 45
3, 24440, Note_on_c, 0, 66, 0
3, 24440, Note_on_c, 0, 68, 45
3, 24480, Note_on_c, 0, 68, 0
3, 24480, Note_on_c, 0, 61, 30
3, 24517, Note_on_c, 0, 61, 0
3, 24520, Note_on_c, 0, 64, 30
3, 24557, Note_on_c, 0, 64, 0
3, 24560, Note_on_c, 0, 68, 30
3, 24597, Note_on_c, 0, 68, 0
3, 24600, Note_on_c, 0, 61, 30
3, 24637, Note_on_c, 0, 61, 0
3, 24640, Note_on_c, 0, 64, 30
3, 24677, Note_on_c, 0, 64, 0
3, 24680, Note_on_c, 0, 68, 30
3, 24717, Note_on_c, 0, 68, 0
3, 24720, Note_on_c, 0, 61, 30
3, 24757, Note_on_c, 0, 61, 0
3, 24760, Note_on_c, 0, 65, 30
3, 24797, Note_on_c, 0, 65, 0
3, 24800, Note_on_c, 0, 68, 30
3, 24837, Note_on_c, 0, 68, 0
3, 24840, Note_on_c, 0, 61, 35
3, 24880, Note_on_c, 0, 61, 0
3, 24880, Note_on_c, 0, 65, 40
3, 24920, Note_on_c, 0, 65, 0
3, 24920, Note_on_c, 0, 68, 45
3, 24960, Note_on_c, 0, 68, 0
3, 24960, Control_c, 0, 64, 127
3, 24960, Note_on_c, 0, 61, 35
3, 25000, Note_on_c, 0, 61, 0
3, 25000, Note_on_c, 0, 66, 40
3, 25040, Note_on_c, 0, 66, 0
3, 25040, Note_on_c, 0, 69, 45
3, 25080, Note_on_c, 0, 69, 0
3, 25080, Note_on_c, 0, 61, 50
3, 25120, Note_on_c, 0, 61, 0
3, 25120, Note_on_c, 0, 66, 55
3, 25160, Note_on_c, 0, 66, 0
3, 25160, Note_on_c, 0, 69, 60
3, 25200, Note_on_c, 0, 69, 0
3, 25200, Note_on_c, 0, 61, 60
3, 25240, Note_on_c, 0, 61, 0
3, 25240, Note_on_c, 0, 66, 55
3, 25280, Note_on_c, 0, 66, 0
3, 25280, Note_on_c, 0, 69, 50
3, 25320, Note_on_c, 0, 69, 0
3, 25320, Note_on_c, 0, 61, 45
3, 25360, Note_on_c, 0, 61, 0
3, 25360, Note_on_c, 0, 66, 40
3, 25400, Note_on_c, 0, 66, 0
3, 25400, Note_on_c, 0, 69, 35
3, 25440, Note_on_c, 0, 69, 0
3, 25440, Control_c, 0, 64, 0
3, 25440, Note_on_c, 0, 61, 30
3, 25477, Note_on_c, 0, 61, 0
3, 25480, Note_on_c, 0, 65, 30
3, 25517, Note_on_c, 0, 65, 0
3, 25520, Note_on_c, 0, 68, 30
3, 25557, Note_on_c, 0, 68, 0
3, 25560, Note_on_c, 0, 61, 30
3, 25597, Note_on_c, 0, 61, 0
3, 25600, Note_on_c, 0, 65, 30
3, 25637, Note_on_c, 0, 65, 0
3, 25640, Note_on_c, 0, 68, 30
3, 25677, Note_on_c, 0, 68, 0
3, 25680, Control_c, 0, 64, 127
3, 25680, Note_on_c, 0, 61, 30
3, 25717, Note_on_c, 0, 61, 0
3, 25720, Note_on_c, 0, 65, 30
3, 25757, Note_on_c, 0, 65, 0
3, 25760, Note_on_c, 0, 68, 30
3, 25797, Note_on_c, 0, 68, 0
3, 25800, Note_on_c, 0, 61, 35
3, 25840, Note_on_c, 0, 61, 0
3, 25840, Note_on_c, 0, 65, 40
3, 25880, Note_on_c, 0, 65, 0
3, 25880, Note_on_c, 0, 68, 45
3, 25920, Note_on_c, 0, 68, 0
3, 25920, Control_c, 0, 64, 0
3, 25920, Control_c, 0, 64, 127
3, 25920, Note_on_c, 0, 61, 35
3, 25960, Note_on_c, 0, 61, 0
3, 25960, Note_on_c, 0, 66, 40
3, 26000, Note_on_c, 0, 66, 0
3, 26000, Note_on_c, 0, 69, 45
3, 26039, Note_on_c, 0, 69, 0
3, 26040, Note_on_c, 0, 61, 50
3, 26080, Note_on_c, 0, 61, 0
3, 26080, Note_on_c, 0, 66, 55
3, 26120, Note_on_c, 0, 66, 0
3, 26120, Note_on_c, 0, 69, 60
3, 26160, Note_on_c, 0, 69, 0
3, 26160, Note_on_c, 0, 61, 60
3, 26200, Note_on_c, 0, 61, 0
3, 26200, Note_on_c, 0, 66, 55
3, 26240, Note_on_c, 0, 66, 0
3, 26240, Note_on_c, 0, 69, 50
3, 26280, Note_on_c, 0, 69, 0
3, 26280, Note_on_c, 0, 61, 45
3, 26320, Note_on_c, 0, 61, 0
3, 26320, Note_on_c, 0, 66, 40
3, 26360, Note_on_c, 0, 66, 0
3, 26360, Note_on_c, 0, 69, 35
3, 26400, Note_on_c, 0, 69, 0
3, 26400, Control_c, 0, 64, 0
3, 26400, Note_on_c, 0, 61, 30
3, 26437, Note_on_c, 0, 61, 0
3, 26440, Note_on_c, 0, 65, 30
3, 26477, Note_on_c, 0, 65, 0
3, 26480, Note_on_c, 0, 68, 30
3, 26517, Note_on_c, 0, 68, 0
3, 26520, Note_on_c, 0, 61, 30
3, 26557, Note_on_c, 0, 61, 0
3, 26560, Note_on_c, 0, 65, 30
3, 26597, Note_on_c, 0, 65, 0
3, 26600, Note_on_c, 0, 68, 30
3, 26637, Note_on_c, 0, 68, 0
3, 26640, Note_on_c, 0, 61, 35
3, 26680, Note_on_c, 0, 61, 0
3, 26680, Note_on_c, 0, 66, 40
3, 26720, Note_on_c, 0, 66, 0
3, 26720, Note_on_c, 0, 69, 45
3, 26760, Note_on_c, 0, 69, 0
3, 26760, Note_on_c, 0, 61, 50
3, 26800, Note_on_c, 0, 61, 0
3, 26800, Note_on_c, 0, 66, 55
3, 26840, Note_on_c, 0, 66, 0
3, 26840, Note_on_c, 0, 69, 60
3, 26880, Note_on_c, 0, 69, 0
3, 26880, Control_c, 0, 64, 127
3, 26880, Note_on_c, 0, 59, 63
3, 26917, Note_on_c, 0, 59, 0
3, 26920, Note_on_c, 0, 66, 63
3, 26957, Note_on_c, 0, 66, 0
3, 26960, Note_on_c, 0, 69, 60
3, 26997, Note_on_c, 0, 69, 0
3, 27000, Note_on_c, 0, 59, 55
3, 27037, Note_on_c, 0, 59, 0
3, 27040, Note_on_c, 0, 66, 50
3, 27077, Note_on_c, 0, 66, 0
3, 27080, Note_on_c, 0, 69, 45
3, 27117, Note_on_c, 0, 69, 0
3, 27120, Note_on_c, 0, 59, 40
3, 27157, Note_on_c, 0, 59, 0
3, 27160, Note_on_c, 0, 66, 35
3, 27197, Note_on_c, 0, 66, 0
3, 27200, Note_on_c, 0, 69, 30
3, 27240, Control_c, 0, 64, 0
3, 27240, Note_on_c, 0, 59, 30
3, 27277, Note_on_c, 0, 59, 0
3, 27277, Note_on_c, 0, 69, 0
3, 27280, Note_on_c, 0, 64, 30
3, 27317, Note_on_c, 0, 64, 0
3, 27320, Note_on_c, 0, 68, 30
3, 27360, Note_on_c, 0, 57, 30
3, 27397, Note_on_c, 0, 57, 0
3, 27397, Note_on_c, 0, 68, 0
3, 27400, Note_on_c, 0, 64, 30
3, 27437, Note_on_c, 0, 64, 0
3, 27440, Note_on_c, 0, 68, 30
3, 27480, Note_on_c, 0, 57, 30
3, 27517, Note_on_c, 0, 57, 0
3, 27517, Note_on_c, 0, 68, 0
3, 27520, Note_on_c, 0, 63, 30
3, 27557, Note_on_c, 0, 63, 0
3, 27560, Note_on_c, 0, 66, 30
3, 27600, Note_on_c, 0, 56, 30
3, 27637, Note_on_c, 0, 56, 0
3, 27637, Note_on_c, 0, 66, 0
3, 27640, Note_on_c, 0, 63, 30
3, 27677, Note_on_c, 0, 63, 0
3, 27680, Note_on_c, 0, 66, 30
3, 27720, Note_on_c, 0, 56, 30
3, 27760, Note_on_c, 0, 56, 0
3, 27760, Note_on_c, 0, 66, 0
3, 27760, Note_on_c, 0, 61, 30
3, 27800, Note_on_c, 0, 61, 0
3, 27800, Note_on_c, 0, 64, 30
3, 27840, Note_on_c, 0, 54, 35
3, 27880, Note_on_c, 0, 54, 0
3, 27880, Note_on_c, 0, 64, 0
3, 27880, Note_on_c, 0, 61, 40
3, 27920, Note_on_c, 0, 61, 0
3, 27920, Note_on_c, 0, 63, 45
3, 27960, Note_on_c, 0, 63, 0
3, 27960, Note_on_c, 0, 54, 50
3, 28000, Note_on_c, 0, 54, 0
3, 28000, Note_on_c, 0, 61, 55
3, 28040, Note_on_c, 0, 61, 0
3, 28040, Note_on_c, 0, 63, 60
3, 28080, Note_on_c, 0, 63, 0
3, 28080, Note_on_c, 0, 56, 60
3, 28120, Note_on_c, 0, 56, 0
3, 28120, Note_on_c, 0, 61, 55
3, 28160, Note_on_c, 0, 61, 0
3, 28160, Note_on_c, 0, 63, 50
3, 28200, Note_on_c, 0, 63, 0
3, 28200, Note_on_c, 0, 57, 45
3, 28240, Note_on_c, 0, 57, 0
3, 28240, Note_on_c, 0, 61, 40
3, 28280, Note_on_c, 0, 61, 0
3, 28280, Note_on_c, 0, 63, 35
3, 28320, Note_on_c, 0, 63, 0
3, 28320, Note_on_c, 0, 56, 30
3, 28357, Note_on_c, 0, 56, 0
3, 28360, Note_on_c, 0, 61, 30
3, 28397, Note_on_c, 0, 61, 0
3, 28400, Note_on_c, 0, 64, 30
3, 28437, Note_on_c, 0, 64, 0
3, 28440, Note_on_c, 0, 56, 30
3, 28477, Note_on_c, 0, 56, 0
3, 28480, Note_on_c, 0, 61, 30
3, 28517, Note_on_c, 0, 61, 0
3, 28520, Note_on_c, 0, 64, 30
3, 28557, Note_on_c, 0, 64, 0
3, 28560, Control_c, 0, 64, 127
3, 28560, Note_on_c, 0, 54, 30
3, 28600, Note_on_c, 0, 54, 0
3, 28600, Note_on_c, 0, 60, 30
3, 28640, Note_on_c, 0, 60, 0
3, 28640, Note_on_c, 0, 63, 30
3, 28680, Note_on_c, 0, 63, 0
3, 28680, Note_on_c, 0, 54, 30
3, 28720, Note_on_c, 0, 54, 0
3, 28720, Note_on_c, 0, 60, 30
3, 28760, Note_on_c, 0, 60, 0
3, 28760, Note_on_c, 0, 63, 30
3, 28800, Note_on_c, 0, 63, 0
3, 28800, Control_c, 0, 64, 0
3, 28800, Note_on_c, 0, 52, 30
3, 28837, Note_on_c, 0, 52, 0
3, 28840, Note_on_c, 0, 56, 30
3, 28877, Note_on_c, 0, 56, 0
3, 28880, Note_on_c, 0, 61, 30
3, 28917, Note_on_c, 0, 61, 0
3, 28920, Note_on_c, 0, 56, 30
3, 28957, Note_on_c, 0, 56, 0
3, 28960, Note_on_c, 0, 61, 30
3, 28997, Note_on_c, 0, 61, 0
3, 29000, Note_on_c, 0, 64, 30
3, 29037, Note_on_c, 0, 64, 0
3, 29040, Note_on_c, 0, 56, 30
3, 29077, Note_on_c, 0, 56, 0
3, 29080, Note_on_c, 0, 61, 30
3, 29117, Note_on_c, 0, 61, 0
3, 29120, Note_on_c, 0, 64, 30
3, 29157, Note_on_c, 0, 64, 0
3, 29160, Note_on_c, 0, 56, 30
3, 29197, Note_on_c, 0, 56, 0
3, 29200, Note_on_c, 0, 61, 30
3, 29237, Note_on_c, 0, 61, 0
3, 29240, Note_on_c, 0, 64, 30
3, 29277, Note_on_c, 0, 64, 0
3, 29280, Note_on_c, 0, 56, 30
3, 29317, Note_on_c, 0, 56, 0
3, 29320, Note_on_c, 0, 63, 30
3, 29357, Note_on_c, 0, 63, 0
3, 29360, Note_on_c, 0, 66, 30
3, 29397, Note_on_c, 0, 66, 0
3, 29400, Note_on_c, 0, 56, 30
3, 29437, Note_on_c, 0, 56, 0
3, 29440, Note_on_c, 0, 63, 30
3, 29477, Note_on_c, 0, 63, 0
3, 29480, Note_on_c, 0, 66, 30
3, 29517, Note_on_c, 0, 66, 0
3, 29520, Note_on_c, 0, 56, 30
3, 29557, Note_on_c, 0, 56, 0
3, 29560, Note_on_c, 0, 63, 30
3, 29597, Note_on_c, 0, 63, 0
3, 29600, Note_on_c, 0, 66, 30
3, 29637, Note_on_c, 0, 66, 0
3, 29640, Note_on_c, 0, 56, 30
3, 29677, Note_on_c, 0, 56, 0
3, 29680, Note_on_c, 0, 63, 30
3, 29717, Note_on_c, 0, 63, 0
3, 29720, Note_on_c, 0, 66, 30
3, 29757, Note_on_c, 0, 66, 0
3, 29760, Control_c, 0, 64, 127
3, 29760, Note_on_c, 0, 56, 38
3, 29800, Note_on_c, 0, 56, 0
3, 29800, Note_on_c, 0, 64, 34
3, 29840, Note_on_c, 0, 64, 0
3, 29840, Note_on_c, 0, 61, 36
3, 29880, Note_on_c, 0, 61, 0
3, 29880, Note_on_c, 0, 68, 44
3, 29920, Note_on_c, 0, 68, 0
3, 29920, Note_on_c, 0, 64, 40
3, 29960, Note_on_c, 0, 64, 0
3, 29960, Note_on_c, 0, 73, 42
3, 30000, Note_on_c, 0, 73, 0
3, 30000, Note_on_c, 0, 68, 50
3, 30040, Note_on_c, 0, 68, 0
3, 30040, Note_on_c, 0, 76, 46
3, 30080, Note_on_c, 0, 76, 0
3, 30080, Note_on_c, 0, 73, 48
3, 30120, Note_on_c, 0, 73, 0
3, 30120, Note_on_c, 0, 80, 56
3, 30160, Note_on_c, 0, 80, 0
3, 30160, Note_on_c, 0, 76, 52
3, 30200, Note_on_c, 0, 76, 0
3, 30200, Note_on_c, 0, 73, 54
3, 30240, Note_on_c, 0, 73, 0
3, 30240, Control_c, 0, 64, 0
3, 30240, Control_c, 0, 64, 127
3, 30240, Note_on_c, 0, 72, 56
3, 30280, Note_on_c, 0, 72, 0
3, 30280, Note_on_c, 0, 75, 52
3, 30320, Note_on_c, 0, 75, 0
3, 30320, Note_on_c, 0, 69, 50
3, 30360, Note_on_c, 0, 69, 0
3, 30360, Note_on_c, 0, 72, 52
3, 30400, Note_on_c, 0, 72, 0
3, 30400, Note_on_c, 0, 66, 46
3, 30440, Note_on_c, 0, 66, 0
3, 30440, Note_on_c, 0, 69, 44
3, 30480, Note_on_c, 0, 69, 0
3, 30480, Note_on_c, 0, 63, 46
3, 30520, Note_on_c, 0, 63, 0
3, 30520, Note_on_c, 0, 66, 40
3, 30560, Note_on_c, 0, 66, 0
3, 30560, Note_on_c, 0, 57, 38
3, 30600, Control_c, 0, 64, 0
3, 30640, Note_on_c, 0, 57, 0
3, 30640, Note_on_c, 0, 56, 36
3, 30680, Note_on_c, 0, 56, 0
3, 30680, Note_on_c, 0, 54, 34
3, 30720, Note_on_c, 0, 54, 0
3, 30720, Control_c, 0, 64, 127
3, 30720, Note_on_c, 0, 52, 38
3, 30755, Note_on_c, 0, 52, 0
3, 30760, Note_on_c, 0, 64, 34
3, 30800, Note_on_c, 0, 64, 0
3, 30800, Note_on_c, 0, 61, 36
3, 30840, Note_on_c, 0, 61, 0
3, 30840, Note_on_c, 0, 68, 44
3, 30880, Note_on_c, 0, 68, 0
3, 30880, Note_on_c, 0, 64, 40
3, 30920, Note_on_c, 0, 64, 0
3, 30920, Note_on_c, 0, 73, 42
3, 30960, Note_on_c, 0, 73, 0
3, 30960, Note_on_c, 0, 68, 50
3, 31000, Note_on_c, 0, 68, 0
3, 31000, Note_on_c, 0, 76, 46
3, 31040, Note_on_c, 0, 76, 0
3, 31040, Note_on_c, 0, 73, 48
3, 31080, Note_on_c, 0, 73, 0
3, 31080, Note_on_c, 0, 80, 56
3, 31120, Note_on_c, 0, 80, 0
3, 31120, Note_on_c, 0, 76, 52
3, 31160, Note_on_c, 0, 76, 0
3, 31160, Note_on_c, 0, 73, 54
3, 31195, Note_on_c, 0, 73, 0
3, 31200, Control_c, 0, 64, 0
3, 31200, Control_c, 0, 64, 127
3, 31200, Note_on_c, 0, 72, 56
3, 31240, Note_on_c, 0, 72, 0
3, 31240, Note_on_c, 0, 75, 53
3, 31280, Note_on_c, 0, 75, 0
3, 31280, Note_on_c, 0, 69, 52
3, 31320, Note_on_c, 0, 69, 0
3, 31320, Note_on_c, 0, 72, 54
3, 31360, Note_on_c, 0, 72, 0
3, 31360, Note_on_c, 0, 66, 51
3, 31400, Note_on_c, 0, 66, 0
3, 31400, Note_on_c, 0, 69, 50
3, 31440, Note_on_c, 0, 69, 0
3, 31440, Note_on_c, 0, 63, 52
3, 31480, Note_on_c, 0, 63, 0
3, 31480, Note_on_c, 0, 66, 49
3, 31520, Note_on_c, 0, 66, 0
3, 31520, Note_on_c, 0, 57, 48
3, 31560, Control_c, 0, 64, 0
3, 31600, Note_on_c, 0, 57, 0
3, 31600, Note_on_c, 0, 56, 47
3, 31640, Note_on_c, 0, 56, 0
3, 31640, Note_on_c, 0, 54, 47
3, 31680, Note_on_c, 0, 54, 0
3, 31680, Note_on_c, 0, 52, 50
3, 31720, Note_on_c, 0, 52, 0
3, 31720, Note_on_c, 0, 56, 45
3, 31760, Note_on_c, 0, 56, 0
3, 31760, Note_on_c, 0, 61, 40
3, 31800, Note_on_c, 0, 61, 0
3, 31800, Note_on_c, 0, 64, 46
3, 31840, Note_on_c, 0, 64, 0
3, 31840, Note_on_c, 0, 61, 43
3, 31880, Note_on_c, 0, 61, 0
3, 31880, Note_on_c, 0, 56, 43
3, 31960, Note_on_c, 0, 56, 0
3, 31960, Note_on_c, 0, 52, 42
3, 32000, Note_on_c, 0, 52, 0
3, 32000, Note_on_c, 0, 56, 41
3, 32040, Note_on_c, 0, 56, 0
3, 32040, Note_on_c, 0, 61, 45
3, 32080, Note_on_c, 0, 61, 0
3, 32080, Note_on_c, 0, 56, 40
3, 32120, Note_on_c, 0, 56, 0
3, 32120, Note_on_c, 0, 52, 39
3, 32155, Note_on_c, 0, 52, 0
3, 32160, Control_c, 0, 64, 127
3, 32200, Note_on_c, 0, 49, 43
3, 32240, Note_on_c, 0, 49, 0
3, 32240, Note_on_c, 0, 52, 38
3, 32280, Note_on_c, 0, 52, 0
3, 32280, Note_on_c, 0, 56, 42
3, 32320, Note_on_c, 0, 56, 0
3, 32320, Note_on_c, 0, 52, 37
3, 32360, Note_on_c, 0, 52, 0
3, 32360, Note_on_c, 0, 49, 36
3, 32400, Note_on_c, 0, 49, 0
3, 32400, Note_on_c, 0, 44, 39
3, 32440, Note_on_c, 0, 44, 0
3, 32440, Note_on_c, 0, 49, 34
3, 32480, Note_on_c, 0, 49, 0
3, 32480, Note_on_c, 0, 44, 33
3, 32520, Note_on_c, 0, 44, 0
3, 32520, Note_on_c, 0, 40, 36
3, 32560, Note_on_c, 0, 40, 0
3, 32560, Note_on_c, 0, 44, 31
3, 32600, Note_on_c, 0, 44, 0
3, 32600, Note_on_c, 0, 40, 31
3, 32635, Note_on_c, 0, 40, 0
3, 32880, Note_on_c, 0, 52, 30
3, 32880, Note_on_c, 0, 56, 30
3, 32880, Note_on_c, 0, 61, 30
3, 33120, Note_on_c, 0, 61, 0
3, 33120, Note_on_c, 0, 56, 0
3, 33120, Note_on_c, 0, 52, 0
3, 33120, Control_c, 0, 64, 0
3, 33120, Note_on_c, 0, 52, 20
3, 33120, Note_on_c, 0, 56, 20
3, 33120, Note_on_c, 0, 61, 20
3, 33600, Note_on_c, 0, 61, 0
3, 33600, Note_on_c, 0, 56, 0
3, 33600, Note_on_c, 0, 52, 0
3, 33840, Note_on_c, 0, 68, 45
3, 33840, Note_on_c, 0, 73, 45
3, 33960, Note_on_c, 0, 73, 0
3, 33960, Note_on_c, 0, 68, 0
3, 33960, Note_on_c, 0, 68, 45
3, 33960, Note_on_c, 0, 72, 45
3, 34200, Note_on_c, 0, 72, 0
3, 34200, Note_on_c, 0, 68, 0
3, 34200, Note_on_c, 0, 67, 45
3, 34200, Note_on_c, 0, 70, 45
3, 34320, Note_on_c, 0, 70, 0
3, 34320, Note_on_c, 0, 67, 0
3, 34320, Note_on_c, 0, 68, 45
3, 34320, Note_on_c, 0, 75, 45
3, 34350, Note_on_c, 0, 75, 0
3, 34350, Note_on_c, 0, 68, 0
3, 34560, Note_on_c, 0, 65, 30
3, 34560, Note_on_c, 0, 73, 30
3, 34590, Note_on_c, 0, 73, 0
3, 34590, Note_on_c, 0, 65, 0
3, 34680, Note_on_c, 0, 68, 30
3, 34680, Note_on_c, 0, 72, 30
3, 34710, Note_on_c, 0, 72, 0
3, 34710, Note_on_c, 0, 68, 0
3, 34920, Note_on_c, 0, 67, 30
3, 34920, Note_on_c, 0, 70, 30
3, 34950, Note_on_c, 0, 70, 0
3, 34950, Note_on_c, 0, 67, 0
3, 35040, Note_on_c, 0, 68, 30
3, 35070, Note_on_c, 0, 68, 0
3, 35280, Note_on_c, 0, 73, 45
3, 35280, Note_on_c, 0, 78, 45
3, 35400, Note_on_c, 0, 78, 0
3, 35400, Note_on_c, 0, 73, 0
3, 35400, Note_on_c, 0, 73, 45
3, 35400, Note_on_c, 0, 77, 45
3, 35640, Note_on_c, 0, 77, 0
3, 35640, Note_on_c, 0, 73, 0
3, 35640, Note_on_c, 0, 72, 45
3, 35640, Note_on_c, 0, 75, 45
3, 35760, Note_on_c, 0, 75, 0
3, 35760, Note_on_c, 0, 72, 0
3, 35760, Note_on_c, 0, 73, 45
3, 35760, Note_on_c, 0, 80, 45
3, 35790, Note_on_c, 0, 80, 0
3, 35790, Note_on_c, 0, 73, 0
3, 36000, Note_on_c, 0, 70, 30
3, 36000, Note_on_c, 0, 78, 30
3, 36030, Note_on_c, 0, 78, 0
3, 36030, Note_on_c, 0, 70, 0
3, 36120, Note_on_c, 0, 73, 30
3, 36120, Note_on_c, 0, 77, 30
3, 36150, Note_on_c, 0, 77, 0
3, 36150, Note_on_c, 0, 73, 0
3, 36360, Note_on_c, 0, 72, 30
3, 36360, Note_on_c, 0, 75, 30
3, 36390, Note_on_c, 0, 75, 0
3, 36390, Note_on_c, 0, 72, 0
3, 36480, Note_on_c, 0, 73, 30
3, 36510, Note_on_c, 0, 73, 0
3, 36720, Note_on_c, 0, 61, 75
3, 36720, Note_on_c, 0, 73, 75
3, 36960, Note_on_c, 0, 73, 0
3, 36960, Note_on_c, 0, 61, 0
3, 36960, Note_on_c, 0, 60, 75
3, 36960, Note_on_c, 0, 72, 75
3, 37080, Note_on_c, 0, 72, 0
3, 37080, Note_on_c, 0, 60, 0
3, 37080, Note_on_c, 0, 58, 75
3, 37080, Note_on_c, 0, 70, 75
3, 37110, Note_on_c, 0, 58, 0
3, 37200, Note_on_c, 0, 63, 75
3, 37230, Note_on_c, 0, 63, 0
3, 37320, Note_on_c, 0, 70, 0
3, 37320, Note_on_c, 0, 75, 75
3, 37440, Note_on_c, 0, 75, 0
3, 37440, Note_on_c, 0, 65, 45
3, 37440, Note_on_c, 0, 73, 45
3, 37470, Note_on_c, 0, 65, 0
3, 37560, Note_on_c, 0, 68, 45
3, 37590, Note_on_c, 0, 68, 0
3, 37680, Note_on_c, 0, 73, 0
3, 37680, Note_on_c, 0, 72, 45
3, 37800, Note_on_c, 0, 72, 0
3, 37800, Note_on_c, 0, 67, 45
3, 37800, Note_on_c, 0, 70, 45
3, 37830, Note_on_c, 0, 67, 0
3, 38040, Note_on_c, 0, 70, 0
3, 38040, Note_on_c, 0, 68, 45
3, 38160, Note_on_c, 0, 68, 0
3, 38160, Note_on_c, 0, 66, 75
3, 38160, Note_on_c, 0, 78, 75
3, 38400, Note_on_c, 0, 78, 0
3, 38400, Note_on_c, 0, 66, 0
3, 38400, Note_on_c, 0, 65, 75
3, 38400, Note_on_c, 0, 77, 75
3, 38520, Note_on_c, 0, 77, 0
3, 38520, Note_on_c, 0, 65, 0
3, 38520, Note_on_c, 0, 63, 75
3, 38520, Note_on_c, 0, 75, 75
3, 38550, Note_on_c, 0, 63, 0
3, 38640, Note_on_c, 0, 68, 75
3, 38670, Note_on_c, 0, 68, 0
3, 38759, Note_on_c, 0, 75, 0
3, 38760, Note_on_c, 0, 80, 75
3, 38880, Note_on_c, 0, 80, 0
3, 38880, Note_on_c, 0, 70, 45
3, 38880, Note_on_c, 0, 78, 45
3, 38910, Note_on_c, 0, 70, 0
3, 39000, Note_on_c, 0, 73, 45
3, 39030, Note_on_c, 0, 73, 0
3, 39120, Note_on_c, 0, 78, 0
3, 39120, Note_on_c, 0, 77, 45
3, 39240, Note_on_c, 0, 77, 0
3, 39240, Note_on_c, 0, 72, 45
3, 39240, Note_on_c, 0, 75, 45
3, 39270, Note_on_c, 0, 72, 0
3, 39480, Note_on_c, 0, 75, 0
3, 39480, Note_on_c, 0, 73, 45
3, 39600, Note_on_c, 0, 73, 0
3, 39600, Note_on_c, 0, 65, 45
3, 39600, Note_on_c, 0, 73, 45
3, 39630, Note_on_c, 0, 73, 0
3, 39630, Note_on_c, 0, 65, 0
3, 39720, Note_on_c, 0, 65, 45
3, 39720, Note_on_c, 0, 73, 45
3, 39960, Note_on_c, 0, 73, 0
3, 39960, Note_on_c, 0, 65, 0
3, 39960, Note_on_c, 0, 65, 45
3, 39960, Note_on_c, 0, 73, 45
3, 40005, Note_on_c, 0, 73, 0
3, 40005, Note_on_c, 0, 65, 0
3, 40080, Note_on_c, 0, 63, 45
3, 40080, Note_on_c, 0, 73, 45
3, 40200, Note_on_c, 0, 73, 0
3, 40200, Note_on_c, 0, 72, 30
3, 40290, Note_on_c, 0, 72, 0
3, 40290, Note_on_c, 0, 63, 0
3, 40320, Note_on_c, 0, 63, 45
3, 40320, Note_on_c, 0, 71, 45
3, 40350, Note_on_c, 0, 71, 0
3, 40350, Note_on_c, 0, 63, 0
3, 40440, Note_on_c, 0, 63, 45
3, 40440, Note_on_c, 0, 71, 45
3, 40680, Note_on_c, 0, 71, 0
3, 40680, Note_on_c, 0, 63, 0
3, 40680, Note_on_c, 0, 63, 45
3, 40680, Note_on_c, 0, 71, 45
3, 40770, Note_on_c, 0, 71, 0
3, 40770, Note_on_c, 0, 63, 0
3, 40800, Note_on_c, 0, 61, 45
3, 40800, Note_on_c, 0, 71, 45
3, 40920, Note_on_c, 0, 71, 0
3, 40920, Note_on_c, 0, 70, 30
3, 41010, Note_on_c, 0, 70, 0
3, 41010, Note_on_c, 0, 61, 0
3, 41040, Note_on_c, 0, 61, 45
3, 41040, Note_on_c, 0, 70, 45
3, 41160, Note_on_c, 0, 70, 0
3, 41160, Note_on_c, 0, 61, 0
3, 41160, Note_on_c, 0, 66, 45
3, 41160, Note_on_c, 0, 72, 45
3, 41400, Note_on_c, 0, 72, 0
3, 41400, Note_on_c, 0, 66, 0
3, 41400, Note_on_c, 0, 65, 45
3, 41400, Note_on_c, 0, 73, 45
3, 41520, Note_on_c, 0, 73, 0
3, 41520, Note_on_c, 0, 65, 0
3, 41520, Note_on_c, 0, 66, 78
3, 41520, Note_on_c, 0, 75, 78
3, 41730, Note_on_c, 0, 75, 0
3, 41730, Note_on_c, 0, 66, 0
3, 41760, Note_on_c, 0, 63, 55
3, 41760, Note_on_c, 0, 66, 55
3, 42000, Note_on_c, 0, 66, 0
3, 42000, Note_on_c, 0, 63, 0
3, 42000, Note_on_c, 0, 61, 45
3, 42000, Note_on_c, 0, 65, 45
3, 42120, Note_on_c, 0, 65, 0
3, 42120, Note_on_c, 0, 61, 0
3, 42120, Note_on_c, 0, 58, 45
3, 42120, Note_on_c, 0, 70, 45
3, 42180, Note_on_c, 0, 70, 0
3, 42180, Note_on_c, 0, 66, 45
3, 42240, Note_on_c, 0, 66, 0
3, 42240, Note_on_c, 0, 58, 0
3, 42240, Note_on_c, 0, 61, 45
3, 42240, Note_on_c, 0, 65, 45
3, 42360, Note_on_c, 0, 65, 0
3, 42360, Note_on_c, 0, 61, 0
3, 42360, Note_on_c, 0, 60, 45
3, 42360, Note_on_c, 0, 63, 45
3, 42450, Note_on_c, 0, 63, 0
3, 42450, Note_on_c, 0, 60, 0
3, 42480, Note_on_c, 0, 61, 75
3, 42480, Note_on_c, 0, 73, 75
3, 42600, Note_on_c, 0, 73, 0
3, 42600, Note_on_c, 0, 61, 0
3, 42600, Note_on_c, 0, 60, 75
3, 42600, Note_on_c, 0, 72, 75
3, 42840, Note_on_c, 0, 72, 0
3, 42840, Note_on_c, 0, 60, 0
3, 42840, Note_on_c, 0, 58, 75
3, 42840, Note_on_c, 0, 70, 75
3, 42960, Note_on_c, 0, 70, 0
3, 42960, Note_on_c, 0, 58, 0
3, 42960, Note_on_c, 0, 63, 75
3, 42960, Note_on_c, 0, 75, 75
3, 43050, Note_on_c, 0, 75, 0
3, 43050, Note_on_c, 0, 63, 0
3, 43200, Note_on_c, 0, 65, 45
3, 43200, Note_on_c, 0, 73, 45
3, 43230, Note_on_c, 0, 65, 0
3, 43320, Note_on_c, 0, 68, 45
3, 43350, Note_on_c, 0, 68, 0
3, 43440, Note_on_c, 0, 73, 0
3, 43440, Note_on_c, 0, 72, 45
3, 43530, Note_on_c, 0, 72, 0
3, 43560, Note_on_c, 0, 67, 45
3, 43560, Note_on_c, 0, 70, 45
3, 43590, Note_on_c, 0, 67, 0
3, 43800, Note_on_c, 0, 70, 0
3, 43800, Note_on_c, 0, 68, 45
3, 43890, Note_on_c, 0, 68, 0
3, 43920, Note_on_c, 0, 66, 45
3, 43920, Note_on_c, 0, 78, 45
3, 44040, Note_on_c, 0, 78, 0
3, 44040, Note_on_c, 0, 66, 0
3, 44040, Note_on_c, 0, 65, 45
3, 44040, Note_on_c, 0, 77, 45
3, 44280, Note_on_c, 0, 77, 0
3, 44280, Note_on_c, 0, 65, 0
3, 44280, Note_on_c, 0, 63, 45
3, 44280, Note_on_c, 0, 75, 45
3, 44400, Note_on_c, 0, 75, 0
3, 44400, Note_on_c, 0, 63, 0
3, 44400, Note_on_c, 0, 68, 45
3, 44400, Note_on_c, 0, 80, 45
3, 44490, Note_on_c, 0, 80, 0
3, 44490, Note_on_c, 0, 68, 0
3, 44640, Note_on_c, 0, 66, 55
3, 44640, Note_on_c, 0, 78, 55
3, 44880, Note_on_c, 0, 78, 0
3, 44880, Note_on_c, 0, 66, 0
3, 44880, Note_on_c, 0, 65, 65
3, 44880, Note_on_c, 0, 77, 65
3, 44970, Note_on_c, 0, 77, 0
3, 44970, Note_on_c, 0, 65, 0
3, 45000, Note_on_c, 0, 63, 55
3, 45000, Note_on_c, 0, 75, 55
3, 45030, Note_on_c, 0, 75, 0
3, 45030, Note_on_c, 0, 63, 0
3, 45120, Note_on_c, 0, 68, 45
3, 45120, Note_on_c, 0, 80, 45
3, 45150, Note_on_c, 0, 80, 0
3, 45150, Note_on_c, 0, 68, 0
3, 45360, Note_on_c, 0, 66, 45
3, 45360, Note_on_c, 0, 78, 45
3, 45600, Note_on_c, 0, 78, 0
3, 45600, Note_on_c, 0, 66, 0
3, 45600, Note_on_c, 0, 65, 45
3, 45600, Note_on_c, 0, 77, 45
3, 45690, Note_on_c, 0, 77, 0
3, 45690, Note_on_c, 0, 65, 0
3, 45720, Note_on_c, 0, 70, 78
3, 45720, Note_on_c, 0, 82, 78
3, 45960, Note_on_c, 0, 82, 0
3, 45960, Note_on_c, 0, 70, 0
3, 45960, Note_on_c, 0, 68, 50
3, 45960, Note_on_c, 0, 80, 50
3, 46050, Note_on_c, 0, 80, 0
3, 46050, Note_on_c, 0, 68, 0
3, 46200, Note_on_c, 0, 54, 45
3, 46200, Note_on_c, 0, 60, 45
3, 46440, Note_on_c, 0, 60, 0
3, 46440, Note_on_c, 0, 63, 45
3, 46500, Note_on_c, 0, 63, 0
3, 46500, Note_on_c, 0, 61, 45
3, 46560, Note_on_c, 0, 61, 0
3, 46560, Note_on_c, 0, 54, 0
3, 46560, Note_on_c, 0, 53, 45
3, 46560, Note_on_c, 0, 61, 45
3, 46650, Note_on_c, 0, 61, 0
3, 46650, Note_on_c, 0, 53, 0
3, 46800, Note_on_c, 0, 65, 45
3, 46800, Note_on_c, 0, 73, 45
3, 46800, Note_on_c, 0, 73, 0
3, 46830, Note_on_c, 0, 65, 0
3, 46920, Note_on_c, 0, 65, 45
3, 46920, Note_on_c, 0, 73, 45
3, 47160, Note_on_c, 0, 73, 0
3, 47160, Note_on_c, 0, 65, 0
3, 47160, Note_on_c, 0, 65, 45
3, 47160, Note_on_c, 0, 73, 45
3, 47205, Note_on_c, 0, 73, 0
3, 47205, Note_on_c, 0, 65, 0
3, 47280, Note_on_c, 0, 63, 45
3, 47280, Note_on_c, 0, 73, 45
3, 47400, Note_on_c, 0, 73, 0
3, 47400, Note_on_c, 0, 72, 30
3, 47490, Note_on_c, 0, 72, 0
3, 47490, Note_on_c, 0, 63, 0
3, 47520, Note_on_c, 0, 63, 45
3, 47520, Note_on_c, 0, 71, 45
3, 47550, Note_on_c, 0, 71, 0
3, 47550, Note_on_c, 0, 63, 0
3, 47640, Note_on_c, 0, 63, 45
3, 47640, Note_on_c, 0, 71, 45
3, 47880, Note_on_c, 0, 71, 0
3, 47880, Note_on_c, 0, 63, 0
3, 47880, Note_on_c, 0, 63, 45
3, 47880, Note_on_c, 0, 71, 45
3, 47970, Note_on_c, 0, 71, 0
3, 47970, Note_on_c, 0, 63, 0
3, 48000, Note_on_c, 0, 61, 45
3, 48000, Note_on_c, 0, 71, 45
3, 48120, Note_on_c, 0, 71, 0
3, 48120, Note_on_c, 0, 70, 30
3, 48210, Note_on_c, 0, 70, 0
3, 48210, Note_on_c, 0, 61, 0
3, 48240, Note_on_c, 0, 61, 45
3, 48240, Note_on_c, 0, 70, 45
3, 48360, Note_on_c, 0, 70, 0
3, 48360, Note_on_c, 0, 61, 0
3, 48360, Note_on_c, 0, 66, 45
3, 48360, Note_on_c, 0, 72, 45
3, 48600, Note_on_c, 0, 72, 0
3, 48600, Note_on_c, 0, 66, 0
3, 48600, Note_on_c, 0, 65, 45
3, 48600, Note_on_c, 0, 73, 45
3, 48720, Note_on_c, 0, 73, 0
3, 48720, Note_on_c, 0, 65, 0
3, 48720, Note_on_c, 0, 66, 78
3, 48720, Note_on_c, 0, 75, 78
3, 48930, Note_on_c, 0, 75, 0
3, 48930, Note_on_c, 0, 66, 0
3, 48960, Note_on_c, 0, 63, 55
3, 48960, Note_on_c, 0, 66, 55
3, 49200, Note_on_c, 0, 66, 0
3, 49200, Note_on_c, 0, 63, 0
3, 49200, Note_on_c, 0, 61, 45
3, 49200, Note_on_c, 0, 65, 45
3, 49320, Note_on_c, 0, 65, 0
3, 49320, Note_on_c, 0, 61, 0
3, 49320, Note_on_c, 0, 58, 45
3, 49320, Note_on_c, 0, 70, 45
3, 49380, Note_on_c, 0, 70, 0
3, 49380, Note_on_c, 0, 66, 45
3, 49440, Note_on_c, 0, 66, 0
3, 49440, Note_on_c, 0, 58, 0
3, 49440, Note_on_c, 0, 61, 45
3, 49440, Note_on_c, 0, 65, 45
3, 49560, Note_on_c, 0, 65, 0
3, 49560, Note_on_c, 0, 61, 0
3, 49560, Note_on_c, 0, 60, 45
3, 49560, Note_on_c, 0, 63, 45
3, 49650, Note_on_c, 0, 63, 0
3, 49650, Note_on_c, 0, 60, 0
3, 49680, Note_on_c, 0, 61, 75
3, 49680, Note_on_c, 0, 73, 75
3, 49800, Note_on_c, 0, 73, 0
3, 49800, Note_on_c, 0, 61, 0
3, 49800, Note_on_c, 0, 60, 75
3, 49800, Note_on_c, 0, 72, 75
3, 50040, Note_on_c, 0, 72, 0
3, 50040, Note_on_c, 0, 60, 0
3, 50040, Note_on_c, 0, 58, 75
3, 50040, Note_on_c, 0, 70, 75
3, 50160, Note_on_c, 0, 70, 0
3, 50160, Note_on_c, 0, 58, 0
3, 50160, Note_on_c, 0, 63, 75
3, 50160, Note_on_c, 0, 75, 75
3, 50250, Note_on_c, 0, 75, 0
3, 50250, Note_on_c, 0, 63, 0
3, 50400, Note_on_c, 0, 65, 45
3, 50400, Note_on_c, 0, 73, 45
3, 50430, Note_on_c, 0, 65, 0
3, 50520, Note_on_c, 0, 68, 45
3, 50550, Note_on_c, 0, 68, 0
3, 50640, Note_on_c, 0, 73, 0
3, 50640, Note_on_c, 0, 72, 45
3, 50730, Note_on_c, 0, 72, 0
3, 50760, Note_on_c, 0, 67, 45
3, 50760, Note_on_c, 0, 70, 45
3, 50790, Note_on_c, 0, 67, 0
3, 51000, Note_on_c, 0, 70, 0
3, 51000, Note_on_c, 0, 68, 45
3, 51090, Note_on_c, 0, 68, 0
3, 51120, Note_on_c, 0, 66, 45
3, 51120, Note_on_c, 0, 78, 45
3, 51240, Note_on_c, 0, 78, 0
3, 51240, Note_on_c, 0, 66, 0
3, 51240, Note_on_c, 0, 65, 45
3, 51240, Note_on_c, 0, 77, 45
3, 51480, Note_on_c, 0, 77, 0
3, 51480, Note_on_c, 0, 65, 0
3, 51480, Note_on_c, 0, 63, 45
3, 51480, Note_on_c, 0, 75, 45
3, 51600, Note_on_c, 0, 75, 0
3, 51600, Note_on_c, 0, 63, 0
3, 51600, Note_on_c, 0, 68, 45
3, 51600, Note_on_c, 0, 80, 45
3, 51690, Note_on_c, 0, 80, 0
3, 51690, Note_on_c, 0, 68, 0
3, 51840, Note_on_c, 0, 66, 55
3, 51840, Note_on_c, 0, 78, 55
3, 52080, Note_on_c, 0, 78, 0
3, 52080, Note_on_c, 0, 66, 0
3, 52080, Note_on_c, 0, 65, 65
3, 52080, Note_on_c, 0, 77, 65
3, 52170, Note_on_c, 0, 77, 0
3, 52170, Note_on_c, 0, 65, 0
3, 52200, Note_on_c, 0, 63, 55
3, 52200, Note_on_c, 0, 75, 55
3, 52230, Note_on_c, 0, 75, 0
3, 52230, Note_on_c, 0, 63, 0
3, 52320, Note_on_c, 0, 68, 45
3, 52320, Note_on_c, 0, 80, 45
3, 52350, Note_on_c, 0, 80, 0
3, 52350, Note_on_c, 0, 68, 0
3, 52560, Note_on_c, 0, 66, 45
3, 52560, Note_on_c, 0, 78, 45
3, 52800, Note_on_c, 0, 78, 0
3, 52800, Note_on_c, 0, 66, 0
3, 52800, Note_on_c, 0, 65, 45
3, 52800, Note_on_c, 0, 77, 45
3, 52890, Note_on_c, 0, 77, 0
3, 52890, Note_on_c, 0, 65, 0
3, 52920, Note_on_c, 0, 70, 78
3, 52920, Note_on_c, 0, 82, 78
3, 53160, Note_on_c, 0, 82, 0
3, 53160, Note_on_c, 0, 70, 0
3, 53160, Note_on_c, 0, 68, 50
3, 53160, Note_on_c, 0, 80, 50
3, 53250, Note_on_c, 0, 80, 0
3, 53250, Note_on_c, 0, 68, 0
3, 53400, Note_on_c, 0, 54, 45
3, 53400, Note_on_c, 0, 60, 45
3, 53640, Note_on_c, 0, 60, 0
3, 53640, Note_on_c, 0, 63, 45
3, 53700, Note_on_c, 0, 63, 0
3, 53700, Note_on_c, 0, 61, 45
3, 53760, Note_on_c, 0, 61, 0
3, 53760, Note_on_c, 0, 54, 0
3, 53760, Note_on_c, 0, 53, 45
3, 53760, Note_on_c, 0, 61, 45
3, 53850, Note_on_c, 0, 61, 0
3, 53850, Note_on_c, 0, 53, 0
3, 54000, Note_on_c, 0, 53, 78
3, 54000, Note_on_c, 0, 65, 78
3, 54359, Note_on_c, 0, 65, 0
3, 54359, Note_on_c, 0, 53, 0
3, 54360, Note_on_c, 0, 54, 78
3, 54360, Note_on_c, 0, 66, 78
3, 54719, Note_on_c, 0, 66, 0
3, 54719, Note_on_c, 0, 54, 0
3, 54720, Note_on_c, 0, 63, 78
3, 54720, Note_on_c, 0, 75, 78
3, 54960, Note_on_c, 0, 75, 0
3, 54960, Note_on_c, 0, 63, 0
3, 54960, Note_on_c, 0, 60, 78
3, 54960, Note_on_c, 0, 72, 78
3, 55079, Note_on_c, 0, 72, 0
3, 55079, Note_on_c, 0, 60, 0
3, 55080, Note_on_c, 0, 56, 75
3, 55080, Note_on_c, 0, 68, 75
3, 55110, Note_on_c, 0, 68, 0
3, 55110, Note_on_c, 0, 56, 0
3, 55200, Note_on_c, 0, 61, 45
3, 55200, Note_on_c, 0, 73, 45
3, 55320, Note_on_c, 0, 73, 0
3, 55320, Note_on_c, 0, 61, 0
3, 55320, Note_on_c, 0, 65, 45
3, 55320, Note_on_c, 0, 77, 45
3, 55439, Note_on_c, 0, 77, 0
3, 55439, Note_on_c, 0, 65, 0
3, 55440, Note_on_c, 0, 53, 78
3, 55440, Note_on_c, 0, 65, 78
3, 55799, Note_on_c, 0, 65, 0
3, 55799, Note_on_c, 0, 53, 0
3, 55800, Note_on_c, 0, 54, 78
3, 55800, Note_on_c, 0, 66, 78
3, 56159, Note_on_c, 0, 66, 0
3, 56159, Note_on_c, 0, 54, 0
3, 56160, Note_on_c, 0, 66, 78
3, 56160, Note_on_c, 0, 78, 78
3, 56399, Note_on_c, 0, 78, 0
3, 56399, Note_on_c, 0, 66, 0
3, 56400, Note_on_c, 0, 70, 60
3, 56400, Note_on_c, 0, 82, 60
3, 56519, Note_on_c, 0, 82, 0
3, 56519, Note_on_c, 0, 70, 0
3, 56520, Note_on_c, 0, 60, 45
3, 56520, Note_on_c, 0, 72, 45
3, 56550, Note_on_c, 0, 72, 0
3, 56550, Note_on_c, 0, 60, 0
3, 56640, Note_on_c, 0, 63, 45
3, 56640, Note_on_c, 0, 75, 45
3, 56760, Note_on_c, 0, 75, 0
3, 56760, Note_on_c, 0, 63, 0
3, 56760, Note_on_c, 0, 61, 45
3, 56760, Note_on_c, 0, 73, 45
3, 56879, Note_on_c, 0, 73, 0
3, 56879, Note_on_c, 0, 61, 0
3, 56880, Note_on_c, 0, 53, 78
3, 56880, Note_on_c, 0, 65, 78
3, 57239, Note_on_c, 0, 65, 0
3, 57239, Note_on_c, 0, 53, 0
3, 57240, Note_on_c, 0, 54, 78
3, 57240, Note_on_c, 0, 66, 78
3, 57599, Note_on_c, 0, 66, 0
3, 57599, Note_on_c, 0, 54, 0
3, 57600, Note_on_c, 0, 63, 78
3, 57600, Note_on_c, 0, 75, 78
3, 57840, Note_on_c, 0, 75, 0
3, 57840, Note_on_c, 0, 63, 0
3, 57840, Note_on_c, 0, 60, 78
3, 57840, Note_on_c, 0, 72, 78
3, 57959, Note_on_c, 0, 72, 0
3, 57959, Note_on_c, 0, 60, 0
3, 57960, Note_on_c, 0, 56, 60
3, 57960, Note_on_c, 0, 68, 60
3, 57990, Note_on_c, 0, 68, 0
3, 57990, Note_on_c, 0, 56, 0
3, 58080, Note_on_c, 0, 61, 45
3, 58080, Note_on_c, 0, 73, 45
3, 58200, Note_on_c, 0, 73, 0
3, 58200, Note_on_c, 0, 61, 0
3, 58200, Note_on_c, 0, 65, 45
3, 58200, Note_on_c, 0, 77, 45
3, 58319, Note_on_c, 0, 77, 0
3, 58319, Note_on_c, 0, 65, 0
3, 58320, Note_on_c, 0, 53, 78
3, 58320, Note_on_c, 0, 65, 78
3, 58679, Note_on_c, 0, 65, 0
3, 58679, Note_on_c, 0, 53, 0
3, 58680, Note_on_c, 0, 54, 78
3, 58680, Note_on_c, 0, 66, 78
3, 59039, Note_on_c, 0, 66, 0
3, 59039, Note_on_c, 0, 54, 0
3, 59040, Note_on_c, 0, 66, 78
3, 59040, Note_on_c, 0, 78, 78
3, 59279, Note_on_c, 0, 78, 0
3, 59279, Note_on_c, 0, 66, 0
3, 59280, Note_on_c, 0, 70, 60
3, 59280, Note_on_c, 0, 82, 60
3, 59399, Note_on_c, 0, 82, 0
3, 59399, Note_on_c, 0, 70, 0
3, 59400, Note_on_c, 0, 60, 45
3, 59400, Note_on_c, 0, 72, 45
3, 59430, Note_on_c, 0, 72, 0
3, 59430, Note_on_c, 0, 60, 0
3, 59520, Note_on_c, 0, 63, 45
3, 59520, Note_on_c, 0, 75, 45
3, 59640, Note_on_c, 0, 75, 0
3, 59640, Note_on_c, 0, 63, 0
3, 59640, Note_on_c, 0, 61, 45
3, 59640, Note_on_c, 0, 73, 45
3, 59759, Note_on_c, 0, 73, 0
3, 59759, Note_on_c, 0, 61, 0
3, 59760, Note_on_c, 0, 65, 30
3, 59760, Note_on_c, 0, 77, 30
3, 60119, Note_on_c, 0, 77, 0
3, 60119, Note_on_c, 0, 65, 0
3, 60120, Note_on_c, 0, 58, 30
3, 60120, Note_on_c, 0, 70, 30
3, 60479, Note_on_c, 0, 70, 0
3, 60479, Note_on_c, 0, 58, 0
3, 60480, Note_on_c, 0, 63, 30
3, 60480, Note_on_c, 0, 75, 30
3, 60839, Note_on_c, 0, 75, 0
3, 60839, Note_on_c, 0, 63, 0
3, 60840, Note_on_c, 0, 56, 30
3, 60840, Note_on_c, 0, 68, 30
3, 61199, Note_on_c, 0, 68, 0
3, 61199, Note_on_c, 0, 56, 0
3, 61200, Note_on_c, 0, 61, 30
3, 61200, Note_on_c, 0, 73, 30
3, 61559, Note_on_c, 0, 73, 0
3, 61559, Note_on_c, 0, 61, 0
3, 61560, Note_on_c, 0, 54, 45
3, 61560, Note_on_c, 0, 66, 45
3, 61919, Note_on_c, 0, 66, 0
3, 61919, Note_on_c, 0, 54, 0
3, 61920, Note_on_c, 0, 53, 55
3, 61920, Note_on_c, 0, 65, 55
3, 62159, Note_on_c, 0, 65, 0
3, 62159, Note_on_c, 0, 53, 0
3, 62160, Note_on_c, 0, 56, 65
3, 62160, Note_on_c, 0, 68, 65
3, 62279, Note_on_c, 0, 68, 0
3, 62279, Note_on_c, 0, 56, 0
3, 62280, Note_on_c, 0, 59, 75
3, 62280, Note_on_c, 0, 71, 75
3, 62519, Note_on_c, 0, 71, 0
3, 62519, Note_on_c, 0, 59, 0
3, 62520, Note_on_c, 0, 58, 60
3, 62520, Note_on_c, 0, 70, 60
3, 62639, Note_on_c, 0, 70, 0
3, 62639, Note_on_c, 0, 58, 0
3, 62640, Note_on_c, 0, 61, 45
3, 62640, Note_on_c, 0, 73, 45
3, 62999, Note_on_c, 0, 73, 0
3, 62999, Note_on_c, 0, 61, 0
3, 63000, Note_on_c, 0, 54, 45
3, 63000, Note_on_c, 0, 66, 45
3, 63359, Note_on_c, 0, 66, 0
3, 63359, Note_on_c, 0, 54, 0
3, 63360, Note_on_c, 0, 53, 45
3, 63360, Note_on_c, 0, 65, 45
3, 63719, Note_on_c, 0, 65, 0
3, 63719, Note_on_c, 0, 53, 0
3, 63720, Note_on_c, 0, 52, 45
3, 63720, Note_on_c, 0, 64, 45
3, 64079, Note_on_c, 0, 64, 0
3, 64079, Note_on_c, 0, 52, 0
3, 64080, Note_on_c, 0, 53, 55
3, 64080, Note_on_c, 0, 65, 55
3, 64439, Note_on_c, 0, 65, 0
3, 64439, Note_on_c, 0, 53, 0
3, 64440, Note_on_c, 0, 54, 65
3, 64440, Note_on_c, 0, 66, 65
3, 64799, Note_on_c, 0, 66, 0
3, 64799, Note_on_c, 0, 54, 0
3, 64800, Note_on_c, 0, 53, 75
3, 64800, Note_on_c, 0, 65, 75
3, 65040, Note_on_c, 0, 65, 0
3, 65040, Note_on_c, 0, 53, 0
3, 65040, Note_on_c, 0, 54, 45
3, 65040, Note_on_c, 0, 66, 45
3, 65159, Note_on_c, 0, 66, 0
3, 65159, Note_on_c, 0, 54, 0
3, 65160, Note_on_c, 0, 48, 30
3, 65160, Note_on_c, 0, 60, 30
3, 65190, Note_on_c, 0, 60, 0
3, 65190, Note_on_c, 0, 48, 0
3, 65280, Note_on_c, 0, 49, 30
3, 65280, Note_on_c, 0, 61, 30
3, 65310, Note_on_c, 0, 61, 0
3, 65310, Note_on_c, 0, 49, 0
3, 65520, Note_on_c, 0, 65, 30
3, 65520, Note_on_c, 0, 77, 30
3, 65879, Note_on_c, 0, 77, 0
3, 65879, Note_on_c, 0, 65, 0
3, 65880, Note_on_c, 0, 58, 30
3, 65880, Note_on_c, 0, 70, 30
3, 66239, Note_on_c, 0, 70, 0
3, 66239, Note_on_c, 0, 58, 0
3, 66240, Note_on_c, 0, 63, 30
3, 66240, Note_on_c, 0, 75, 30
3, 66599, Note_on_c, 0, 75, 0
3, 66599, Note_on_c, 0, 63, 0
3, 66600, Note_on_c, 0, 56, 30
3, 66600, Note_on_c, 0, 68, 30
3, 66959, Note_on_c, 0, 68, 0
3, 66959, Note_on_c, 0, 56, 0
3, 66960, Note_on_c, 0, 61, 30
3, 66960, Note_on_c, 0, 73, 30
3, 67319, Note_on_c, 0, 73, 0
3, 67319, Note_on_c, 0, 61, 0
3, 67320, Note_on_c, 0, 54, 30
3, 67320, Note_on_c, 0, 66, 30
3, 67679, Note_on_c, 0, 66, 0
3, 67679, Note_on_c, 0, 54, 0
3, 67680, Note_on_c, 0, 53, 45
3, 67680, Note_on_c, 0, 65, 45
3, 67919, Note_on_c, 0, 65, 0
3, 67919, Note_on_c, 0, 53, 0
3, 67920, Note_on_c, 0, 56, 60
3, 67920, Note_on_c, 0, 68, 60
3, 68039, Note_on_c, 0, 68, 0
3, 68039, Note_on_c, 0, 56, 0
3, 68040, Note_on_c, 0, 59, 75
3, 68040, Note_on_c, 0, 71, 75
3, 68279, Note_on_c, 0, 71, 0
3, 68279, Note_on_c, 0, 59, 0
3, 68280, Note_on_c, 0, 58, 60
3, 68280, Note_on_c, 0, 70, 60
3, 68399, Note_on_c, 0, 70, 0
3, 68399, Note_on_c, 0, 58, 0
3, 68400, Note_on_c, 0, 61, 30
3, 68400, Note_on_c, 0, 73, 30
3, 68759, Note_on_c, 0, 73, 0
3, 68759, Note_on_c, 0, 61, 0
3, 68760, Note_on_c, 0, 54, 30
3, 68760, Note_on_c, 0, 66, 30
3, 69119, Note_on_c, 0, 66, 0
3, 69119, Note_on_c, 0, 54, 0
3, 69120, Note_on_c, 0, 53, 30
3, 69120, Note_on_c, 0, 65, 30
3, 69479, Note_on_c, 0, 65, 0
3, 69479, Note_on_c, 0, 53, 0
3, 69480, Note_on_c, 0, 52, 30
3, 69480, Note_on_c, 0, 64, 30
3, 69839, Note_on_c, 0, 64, 0
3, 69839, Note_on_c, 0, 52, 0
3, 69840, Note_on_c, 0, 53, 45
3, 69840, Note_on_c, 0, 65, 45
3, 70199, Note_on_c, 0, 65, 0
3, 70199, Note_on_c, 0, 53, 0
3, 70200, Note_on_c, 0, 54, 60
3, 70200, Note_on_c, 0, 66, 60
3, 70559, Note_on_c, 0, 66, 0
3, 70559, Note_on_c, 0, 54, 0
3, 70560, Note_on_c, 0, 53, 75
3, 70560, Note_on_c, 0, 65, 75
3, 70800, Note_on_c, 0, 65, 0
3, 70800, Note_on_c, 0, 53, 0
3, 70800, Note_on_c, 0, 54, 45
3, 70800, Note_on_c, 0, 66, 45
3, 70919, Note_on_c, 0, 66, 0
3, 70919, Note_on_c, 0, 54, 0
3, 70920, Note_on_c, 0, 48, 30
3, 70920, Note_on_c, 0, 60, 30
3, 70950, Note_on_c, 0, 60, 0
3, 70950, Note_on_c, 0, 48, 0
3, 71040, Note_on_c, 0, 49, 30
3, 71040, Note_on_c, 0, 61, 30
3, 71070, Note_on_c, 0, 61, 0
3, 71070, Note_on_c, 0, 49, 0
3, 71280, Note_on_c, 0, 68, 34
3, 71280, Note_on_c, 0, 73, 34
3, 71399, Note_on_c, 0, 73, 0
3, 71399, Note_on_c, 0, 68, 0
3, 71400, Note_on_c, 0, 68, 38
3, 71400, Note_on_c, 0, 72, 38
3, 71640, Note_on_c, 0, 72, 0
3, 71640, Note_on_c, 0, 68, 0
3, 71640, Note_on_c, 0, 67, 42
3, 71640, Note_on_c, 0, 70, 42
3, 71759, Note_on_c, 0, 70, 0
3, 71759, Note_on_c, 0, 67, 0
3, 71760, Note_on_c, 0, 68, 45
3, 71760, Note_on_c, 0, 75, 45
3, 71850, Note_on_c, 0, 75, 0
3, 71850, Note_on_c, 0, 68, 0
3, 72000, Note_on_c, 0, 65, 45
3, 72000, Note_on_c, 0, 73, 45
3, 72030, Note_on_c, 0, 73, 0
3, 72030, Note_on_c, 0, 65, 0
3, 72120, Note_on_c, 0, 68, 45
3, 72120, Note_on_c, 0, 72, 45
3, 72150, Note_on_c, 0, 72, 0
3, 72150, Note_on_c, 0, 68, 0
3, 72360, Note_on_c, 0, 67, 45
3, 72360, Note_on_c, 0, 70, 45
3, 72390, Note_on_c, 0, 70, 0
3, 72390, Note_on_c, 0, 67, 0
3, 72480, Note_on_c, 0, 68, 45
3, 72510, Note_on_c, 0, 68, 0
3, 72720, Note_on_c, 0, 73, 45
3, 72720, Note_on_c, 0, 78, 45
3, 72840, Note_on_c, 0, 78, 0
3, 72840, Note_on_c, 0, 73, 0
3, 72840, Note_on_c, 0, 73, 45
3, 72840, Note_on_c, 0, 77, 45
3, 73080, Note_on_c, 0, 77, 0
3, 73080, Note_on_c, 0, 73, 0
3, 73080, Note_on_c, 0, 72, 45
3, 73080, Note_on_c, 0, 75, 45
3, 73200, Note_on_c, 0, 75, 0
3, 73200, Note_on_c, 0, 72, 0
3, 73200, Note_on_c, 0, 73, 45
3, 73200, Note_on_c, 0, 80, 45
3, 73230, Note_on_c, 0, 80, 0
3, 73230, Note_on_c, 0, 73, 0
3, 73440, Note_on_c, 0, 70, 45
3, 73440, Note_on_c, 0, 78, 45
3, 73470, Note_on_c, 0, 78, 0
3, 73470, Note_on_c, 0, 70, 0
3, 73560, Note_on_c, 0, 73, 45
3, 73560, Note_on_c, 0, 77, 45
3, 73590, Note_on_c, 0, 77, 0
3, 73590, Note_on_c, 0, 73, 0
3, 73800, Note_on_c, 0, 72, 45
3, 73800, Note_on_c, 0, 75, 45
3, 73830, Note_on_c, 0, 75, 0
3, 73830, Note_on_c, 0, 72, 0
3, 73920, Note_on_c, 0, 73, 45
3, 73950, Note_on_c, 0, 73, 0
3, 74160, Note_on_c, 0, 61, 75
3, 74160, Note_on_c, 0, 73, 75
3, 74400, Note_on_c, 0, 73, 0
3, 74400, Note_on_c, 0, 61, 0
3, 74400, Note_on_c, 0, 60, 75
3, 74400, Note_on_c, 0, 72, 75
3, 74430, Note_on_c, 0, 72, 0
3, 74430, Note_on_c, 0, 60, 0
3, 74520, Note_on_c, 0, 58, 75
3, 74520, Note_on_c, 0, 70, 75
3, 74550, Note_on_c, 0, 58, 0
3, 74640, Note_on_c, 0, 63, 75
3, 74670, Note_on_c, 0, 63, 0
3, 74759, Note_on_c, 0, 70, 0
3, 74760, Note_on_c, 0, 75, 75
3, 74850, Note_on_c, 0, 75, 0
3, 74880, Note_on_c, 0, 65, 45
3, 74880, Note_on_c, 0, 73, 45
3, 74910, Note_on_c, 0, 65, 0
3, 75000, Note_on_c, 0, 68, 45
3, 75030, Note_on_c, 0, 68, 0
3, 75120, Note_on_c, 0, 73, 0
3, 75120, Note_on_c, 0, 72, 45
3, 75210, Note_on_c, 0, 72, 0
3, 75240, Note_on_c, 0, 67, 45
3, 75240, Note_on_c, 0, 70, 45
3, 75270, Note_on_c, 0, 67, 0
3, 75480, Note_on_c, 0, 70, 0
3, 75480, Note_on_c, 0, 68, 45
3, 75570, Note_on_c, 0, 68, 0
3, 75600, Note_on_c, 0, 66, 75
3, 75600, Note_on_c, 0, 78, 75
3, 75840, Note_on_c, 0, 78, 0
3, 75840, Note_on_c, 0, 66, 0
3, 75840, Note_on_c, 0, 65, 75
3, 75840, Note_on_c, 0, 77, 75
3, 75930, Note_on_c, 0, 77, 0
3, 75930, Note_on_c, 0, 65, 0
3, 75960, Note_on_c, 0, 63, 75
3, 75960, Note_on_c, 0, 75, 75
3, 75990, Note_on_c, 0, 63, 0
3, 76080, Note_on_c, 0, 68, 75
3, 76110, Note_on_c, 0, 68, 0
3, 76200, Note_on_c, 0, 75, 0
3, 76200, Note_on_c, 0, 80, 75
3, 76290, Note_on_c, 0, 80, 0
3, 76320, Note_on_c, 0, 70, 45
3, 76320, Note_on_c, 0, 78, 45
3, 76350, Note_on_c, 0, 70, 0
3, 76440, Note_on_c, 0, 73, 45
3, 76470, Note_on_c, 0, 73, 0
3, 76560, Note_on_c, 0, 78, 0
3, 76560, Note_on_c, 0, 77, 45
3, 76650, Note_on_c, 0, 77, 0
3, 76680, Note_on_c, 0, 72, 45
3, 76680, Note_on_c, 0, 75, 45
3, 76710, Note_on_c, 0, 72, 0
3, 76920, Note_on_c, 0, 75, 0
3, 76920, Note_on_c, 0, 73, 45
3, 77010, Note_on_c, 0, 73, 0
3, 77040, Note_on_c, 0, 65, 45
3, 77040, Note_on_c, 0, 73, 45
3, 77070, Note_on_c, 0, 73, 0
3, 77070, Note_on_c, 0, 65, 0
3, 77160, Note_on_c, 0, 65, 55
3, 77160, Note_on_c, 0, 73, 55
3, 77400, Note_on_c, 0, 73, 0
3, 77400, Note_on_c, 0, 65, 0
3, 77400, Note_on_c, 0, 65, 65
3, 77400, Note_on_c, 0, 73, 65
3, 77430, Note_on_c, 0, 73, 0
3, 77430, Note_on_c, 0, 65, 0
3, 77520, Note_on_c, 0, 63, 60
3, 77520, Note_on_c, 0, 73, 55
3, 77640, Note_on_c, 0, 73, 0
3, 77640, Note_on_c, 0, 72, 40
3, 77730, Note_on_c, 0, 72, 0
3, 77730, Note_on_c, 0, 63, 0
3, 77760, Note_on_c, 0, 63, 45
3, 77760, Note_on_c, 0, 71, 45
3, 77790, Note_on_c, 0, 71, 0
3, 77790, Note_on_c, 0, 63, 0
3, 77880, Note_on_c, 0, 63, 45
3, 77880, Note_on_c, 0, 71, 45
3, 78120, Note_on_c, 0, 71, 0
3, 78120, Note_on_c, 0, 63, 0
3, 78120, Note_on_c, 0, 63, 45
3, 78120, Note_on_c, 0, 71, 45
3, 78150, Note_on_c, 0, 71, 0
3, 78150, Note_on_c, 0, 63, 0
3, 78240, Note_on_c, 0, 61, 45
3, 78240, Note_on_c, 0, 71, 45
3, 78360, Note_on_c, 0, 71, 0
3, 78360, Note_on_c, 0, 70, 45
3, 78450, Note_on_c, 0, 70, 0
3, 78450, Note_on_c, 0, 61, 0
3, 78480, Note_on_c, 0, 61, 60
3, 78480, Note_on_c, 0, 70, 60
3, 78600, Note_on_c, 0, 70, 0
3, 78600, Note_on_c, 0, 61, 0
3, 78600, Note_on_c, 0, 66, 75
3, 78600, Note_on_c, 0, 72, 75
3, 78840, Note_on_c, 0, 72, 0
3, 78840, Note_on_c, 0, 66, 0
3, 78840, Note_on_c, 0, 65, 82
3, 78840, Note_on_c, 0, 73, 82
3, 78960, Note_on_c, 0, 73, 0
3, 78960, Note_on_c, 0, 65, 0
3, 78960, Note_on_c, 0, 66, 78
3, 78960, Note_on_c, 0, 75, 78
3, 79170, Note_on_c, 0, 75, 0
3, 79170, Note_on_c, 0, 66, 0
3, 79200, Note_on_c, 0, 63, 65
3, 79200, Note_on_c, 0, 66, 65
3, 79440, Note_on_c, 0, 66, 0
3, 79440, Note_on_c, 0, 63, 0
3, 79440, Note_on_c, 0, 61, 45
3, 79440, Note_on_c, 0, 65, 45
3, 79560, Note_on_c, 0, 65, 0
3, 79560, Note_on_c, 0, 61, 0
3, 79560, Note_on_c, 0, 58, 45
3, 79560, Note_on_c, 0, 70, 45
3, 79620, Note_on_c, 0, 70, 0
3, 79620, Note_on_c, 0, 66, 45
3, 79680, Note_on_c, 0, 66, 0
3, 79680, Note_on_c, 0, 58, 0
3, 79680, Note_on_c, 0, 61, 45
3, 79680, Note_on_c, 0, 65, 45
3, 79800, Note_on_c, 0, 65, 0
3, 79800, Note_on_c, 0, 61, 0
3, 79800, Note_on_c, 0, 60, 45
3, 79800, Note_on_c, 0, 63, 45
3, 79890, Note_on_c, 0, 63, 0
3, 79890, Note_on_c, 0, 60, 0
3, 79920, Note_on_c, 0, 61, 45
3, 79920, Note_on_c, 0, 73, 45
3, 80040, Note_on_c, 0, 73, 0
3, 80040, Note_on_c, 0, 61, 0
3, 80040, Note_on_c, 0, 60, 45
3, 80040, Note_on_c, 0, 72, 45
3, 80280, Note_on_c, 0, 72, 0
3, 80280, Note_on_c, 0, 60, 0
3, 80280, Note_on_c, 0, 58, 45
3, 80280, Note_on_c, 0, 70, 45
3, 80400, Note_on_c, 0, 70, 0
3, 80400, Note_on_c, 0, 58, 0
3, 80400, Note_on_c, 0, 63, 45
3, 80400, Note_on_c, 0, 75, 45
3, 80430, Note_on_c, 0, 75, 0
3, 80430, Note_on_c, 0, 63, 0
3, 80640, Note_on_c, 0, 65, 30
3, 80640, Note_on_c, 0, 73, 30
3, 80670, Note_on_c, 0, 65, 0
3, 80760, Note_on_c, 0, 68, 30
3, 80790, Note_on_c, 0, 68, 0
3, 80790, Note_on_c, 0, 73, 0
3, 80880, Note_on_c, 0, 72, 30
3, 80970, Note_on_c, 0, 72, 0
3, 81000, Note_on_c, 0, 67, 30
3, 81000, Note_on_c, 0, 70, 30
3, 81030, Note_on_c, 0, 67, 0
3, 81240, Note_on_c, 0, 70, 0
3, 81240, Note_on_c, 0, 68, 30
3, 81330, Note_on_c, 0, 68, 0
3, 81360, Note_on_c, 0, 66, 30
3, 81360, Note_on_c, 0, 78, 30
3, 81480, Note_on_c, 0, 78, 0
3, 81480, Note_on_c, 0, 66, 0
3, 81480, Note_on_c, 0, 65, 30
3, 81480, Note_on_c, 0, 77, 30
3, 81720, Note_on_c, 0, 77, 0
3, 81720, Note_on_c, 0, 65, 0
3, 81720, Note_on_c, 0, 63, 30
3, 81720, Note_on_c, 0, 75, 30
3, 81840, Note_on_c, 0, 75, 0
3, 81840, Note_on_c, 0, 63, 0
3, 81840, Note_on_c, 0, 68, 30
3, 81840, Note_on_c, 0, 80, 30
3, 81870, Note_on_c, 0, 80, 0
3, 81870, Note_on_c, 0, 68, 0
3, 82080, Note_on_c, 0, 66, 34
3, 82080, Note_on_c, 0, 78, 34
3, 82320, Note_on_c, 0, 78, 0
3, 82320, Note_on_c, 0, 66, 0
3, 82320, Note_on_c, 0, 65, 38
3, 82320, Note_on_c, 0, 77, 38
3, 82410, Note_on_c, 0, 77, 0
3, 82410, Note_on_c, 0, 65, 0
3, 82440, Note_on_c, 0, 63, 42
3, 82440, Note_on_c, 0, 75, 42
3, 82470, Note_on_c, 0, 75, 0
3, 82470, Note_on_c, 0, 63, 0
3, 82560, Note_on_c, 0, 68, 45
3, 82560, Note_on_c, 0, 80, 45
3, 82590, Note_on_c, 0, 80, 0
3, 82590, Note_on_c, 0, 68, 0
3, 82800, Note_on_c, 0, 66, 60
3, 82800, Note_on_c, 0, 78, 60
3, 83040, Note_on_c, 0, 78, 0
3, 83040, Note_on_c, 0, 66, 0
3, 83040, Note_on_c, 0, 65, 78
3, 83040, Note_on_c, 0, 77, 78
3, 83130, Note_on_c, 0, 77, 0
3, 83130, Note_on_c, 0, 65, 0
3, 83160, Note_on_c, 0, 70, 78
3, 83160, Note_on_c, 0, 82, 78
3, 83400, Note_on_c, 0, 82, 0
3, 83400, Note_on_c, 0, 70, 0
3, 83400, Note_on_c, 0, 68, 60
3, 83400, Note_on_c, 0, 80, 60
3, 83490, Note_on_c, 0, 80, 0
3, 83490, Note_on_c, 0, 68, 0
3, 83640, Note_on_c, 0, 54, 30
3, 83640, Note_on_c, 0, 60, 30
3, 83880, Note_on_c, 0, 60, 0
3, 83880, Note_on_c, 0, 54, 0
3, 83880, Note_on_c, 0, 63, 30
3, 83940, Note_on_c, 0, 63, 0
3, 83940, Note_on_c, 0, 61, 30
3, 84000, Note_on_c, 0, 61, 0
3, 84000, Note_on_c, 0, 61, 30
3, 84090, Note_on_c, 0, 61, 0
3, 84390, Note_on_c, 0, 44, 45
3, 84405, Note_on_c, 0, 44, 0
3, 84420, Note_on_c, 0, 49, 45
3, 84435, Note_on_c, 0, 49, 0
3, 84450, Note_on_c, 0, 52, 45
3, 84465, Note_on_c, 0, 52, 0
3, 84480, Note_on_c, 0, 56, 45
3, 84495, Note_on_c, 0, 56, 0
3, 84510, Note_on_c, 0, 49, 45
3, 84525, Note_on_c, 0, 49, 0
3, 84540, Note_on_c, 0, 52, 45
3, 84555, Note_on_c, 0, 52, 0
3, 84570, Note_on_c, 0, 56, 45
3, 84585, Note_on_c, 0, 56, 0
3, 84600, Note_on_c, 0, 61, 45
3, 84615, Note_on_c, 0, 61, 0
3, 84630, Note_on_c, 0, 52, 45
3, 84645, Note_on_c, 0, 52, 0
3, 84660, Note_on_c, 0, 56, 45
3, 84675, Note_on_c, 0, 56, 0
3, 84690, Note_on_c, 0, 61, 45
3, 84705, Note_on_c, 0, 61, 0
3, 84720, Note_on_c, 0, 64, 45
3, 84735, Note_on_c, 0, 64, 0
3, 84750, Note_on_c, 0, 56, 45
3, 84765, Note_on_c, 0, 56, 0
3, 84780, Note_on_c, 0, 61, 45
3, 84795, Note_on_c, 0, 61, 0
3, 84810, Note_on_c, 0, 64, 45
3, 84825, Note_on_c, 0, 64, 0
3, 84840, Note_on_c, 0, 68, 45
3, 84855, Note_on_c, 0, 68, 0
3, 84870, Note_on_c, 0, 61, 45
3, 84885, Note_on_c, 0, 61, 0
3, 84900, Note_on_c, 0, 64, 45
3, 84915, Note_on_c, 0, 64, 0
3, 84930, Note_on_c, 0, 68, 45
3, 84945, Note_on_c, 0, 68, 0
3, 84960, Note_on_c, 0, 73, 45
3, 84975, Note_on_c, 0, 73, 0
3, 84990, Note_on_c, 0, 64, 45
3, 85005, Note_on_c, 0, 64, 0
3, 85020, Note_on_c, 0, 68, 45
3, 85035, Note_on_c, 0, 68, 0
3, 85050, Note_on_c, 0, 73, 45
3, 85065, Note_on_c, 0, 73, 0
3, 85080, Note_on_c, 0, 76, 45
3, 85095, Note_on_c, 0, 76, 0
3, 85110, Note_on_c, 0, 68, 45
3, 85125, Note_on_c, 0, 68, 0
3, 85140, Note_on_c, 0, 73, 45
3, 85155, Note_on_c, 0, 73, 0
3, 85170, Note_on_c, 0, 76, 45
3, 85185, Note_on_c, 0, 76, 0
3, 85200, Note_on_c, 0, 68, 85
3, 85200, Note_on_c, 0, 73, 85
3, 85200, Note_on_c, 0, 76, 85
3, 85200, Note_on_c, 0, 80, 85
3, 85207, Note_on_c, 0, 80, 0
3, 85207, Note_on_c, 0, 68, 0
3, 85207, Note_on_c, 0, 73, 0
3, 85207, Note_on_c, 0, 76, 0
3, 85260, Note_on_c, 0, 68, 60
3, 85260, Note_on_c, 0, 73, 60
3, 85260, Note_on_c, 0, 76, 60
3, 85260, Note_on_c, 0, 80, 60
3, 85268, Note_on_c, 0, 80, 0
3, 85268, Note_on_c, 0, 68, 0
3, 85268, Note_on_c, 0, 73, 0
3, 85268, Note_on_c, 0, 76, 0
3, 85350, Note_on_c, 0, 44, 45
3, 85365, Note_on_c, 0, 44, 0
3, 85380, Note_on_c, 0, 48, 45
3, 85395, Note_on_c, 0, 48, 0
3, 85410, Note_on_c, 0, 51, 45
3, 85425, Note_on_c, 0, 51, 0
3, 85440, Note_on_c, 0, 56, 45
3, 85455, Note_on_c, 0, 56, 0
3, 85470, Note_on_c, 0, 48, 45
3, 85485, Note_on_c, 0, 48, 0
3, 85500, Note_on_c, 0, 51, 45
3, 85515, Note_on_c, 0, 51, 0
3, 85530, Note_on_c, 0, 56, 45
3, 85545, Note_on_c, 0, 56, 0
3, 85560, Note_on_c, 0, 60, 45
3, 85575, Note_on_c, 0, 60, 0
3, 85590, Note_on_c, 0, 51, 45
3, 85605, Note_on_c, 0, 51, 0
3, 85620, Note_on_c, 0, 56, 45
3, 85635, Note_on_c, 0, 56, 0
3, 85650, Note_on_c, 0, 60, 45
3, 85665, Note_on_c, 0, 60, 0
3, 85680, Note_on_c, 0, 63, 45
3, 85695, Note_on_c, 0, 63, 0
3, 85710, Note_on_c, 0, 56, 45
3, 85725, Note_on_c, 0, 56, 0
3, 85740, Note_on_c, 0, 60, 45
3, 85755, Note_on_c, 0, 60, 0
3, 85770, Note_on_c, 0, 63, 45
3, 85785, Note_on_c, 0, 63, 0
3, 85800, Note_on_c, 0, 68, 45
3, 85815, Note_on_c, 0, 68, 0
3, 85830, Note_on_c, 0, 60, 45
3, 85845, Note_on_c, 0, 60, 0
3, 85860, Note_on_c, 0, 63, 45
3, 85875, Note_on_c, 0, 63, 0
3, 85890, Note_on_c, 0, 68, 45
3, 85905, Note_on_c, 0, 68, 0
3, 85920, Note_on_c, 0, 72, 45
3, 85935, Note_on_c, 0, 72, 0
3, 85950, Note_on_c, 0, 63, 45
3, 85965, Note_on_c, 0, 63, 0
3, 85980, Note_on_c, 0, 68, 45
3, 85995, Note_on_c, 0, 68, 0
3, 86010, Note_on_c, 0, 72, 45
3, 86025, Note_on_c, 0, 72, 0
3, 86040, Note_on_c, 0, 75, 45
3, 86055, Note_on_c, 0, 75, 0
3, 86070, Note_on_c, 0, 68, 45
3, 86100, Note_on_c, 0, 68, 0
3, 86100, Note_on_c, 0, 72, 45
3, 86130, Note_on_c, 0, 72, 0
3, 86130, Note_on_c, 0, 75, 45
3, 86145, Note_on_c, 0, 75, 0
3, 86160, Note_on_c, 0, 68, 85
3, 86160, Note_on_c, 0, 72, 85
3, 86160, Note_on_c, 0, 75, 85
3, 86160, Note_on_c, 0, 80, 85
3, 86167, Note_on_c, 0, 80, 0
3, 86167, Note_on_c, 0, 68, 0
3, 86167, Note_on_c, 0, 72, 0
3, 86167, Note_on_c, 0, 75, 0
3, 86220, Note_on_c, 0, 68, 60
3, 86220, Note_on_c, 0, 72, 60
3, 86220, Note_on_c, 0, 75, 60
3, 86220, Note_on_c, 0, 80, 60
3, 86228, Note_on_c, 0, 80, 0
3, 86228, Note_on_c, 0, 68, 0
3, 86228, Note_on_c, 0, 72, 0
3, 86228, Note_on_c, 0, 75, 0
3, 86310, Note_on_c, 0, 49, 45
3, 86325, Note_on_c, 0, 49, 0
3, 86340, Note_on_c, 0, 53, 45
3, 86355, Note_on_c, 0, 53, 0
3, 86370, Note_on_c, 0, 56, 45
3, 86385, Note_on_c, 0, 56, 0
3, 86400, Note_on_c, 0, 61, 45
3, 86415, Note_on_c, 0, 61, 0
3, 86430, Note_on_c, 0, 53, 45
3, 86445, Note_on_c, 0, 53, 0
3, 86460, Note_on_c, 0, 56, 45
3, 86475, Note_on_c, 0, 56, 0
3, 86490, Note_on_c, 0, 61, 45
3, 86505, Note_on_c, 0, 61, 0
3, 86520, Note_on_c, 0, 65, 45
3, 86535, Note_on_c, 0, 65, 0
3, 86550, Note_on_c, 0, 56, 45
3, 86565, Note_on_c, 0, 56, 0
3, 86580, Note_on_c, 0, 61, 45
3, 86595, Note_on_c, 0, 61, 0
3, 86610, Note_on_c, 0, 65, 45
3, 86625, Note_on_c, 0, 65, 0
3, 86640, Note_on_c, 0, 68, 45
3, 86655, Note_on_c, 0, 68, 0
3, 86670, Note_on_c, 0, 61, 45
3, 86685, Note_on_c, 0, 61, 0
3, 86700, Note_on_c, 0, 65, 45
3, 86715, Note_on_c, 0, 65, 0
3, 86730, Note_on_c, 0, 68, 45
3, 86745, Note_on_c, 0, 68, 0
3, 86760, Note_on_c, 0, 73, 45
3, 86775, Note_on_c, 0, 73, 0
3, 86790, Note_on_c, 0, 65, 45
3, 86805, Note_on_c, 0, 65, 0
3, 86820, Note_on_c, 0, 68, 45
3, 86835, Note_on_c, 0, 68, 0
3, 86850, Note_on_c, 0, 73, 45
3, 86865, Note_on_c, 0, 73, 0
3, 86880, Note_on_c, 0, 77, 45
3, 86895, Note_on_c, 0, 77, 0
3, 86910, Note_on_c, 0, 68, 45
3, 86925, Note_on_c, 0, 68, 0
3, 86940, Note_on_c, 0, 73, 45
3, 86955, Note_on_c, 0, 73, 0
3, 86970, Note_on_c, 0, 77, 45
3, 86985, Note_on_c, 0, 77, 0
3, 87000, Note_on_c, 0, 80, 45
3, 87015, Note_on_c, 0, 80, 0
3, 87030, Note_on_c, 0, 73, 45
3, 87045, Note_on_c, 0, 73, 0
3, 87060, Note_on_c, 0, 77, 45
3, 87075, Note_on_c, 0, 77, 0
3, 87090, Note_on_c, 0, 80, 45
3, 87105, Note_on_c, 0, 80, 0
3, 87120, Note_on_c, 0, 73, 85
3, 87120, Note_on_c, 0, 77, 85
3, 87120, Note_on_c, 0, 80, 85
3, 87120, Note_on_c, 0, 85, 85
3, 87127, Note_on_c, 0, 85, 0
3, 87127, Note_on_c, 0, 73, 0
3, 87127, Note_on_c, 0, 77, 0
3, 87127, Note_on_c, 0, 80, 0
3, 87180, Note_on_c, 0, 73, 60
3, 87180, Note_on_c, 0, 77, 60
3, 87180, Note_on_c, 0, 80, 60
3, 87180, Note_on_c, 0, 85, 60
3, 87188, Note_on_c, 0, 85, 0
3, 87188, Note_on_c, 0, 73, 0
3, 87188, Note_on_c, 0, 77, 0
3, 87188, Note_on_c, 0, 80, 0
3, 87270, Note_on_c, 0, 49, 45
3, 87285, Note_on_c, 0, 49, 0
3, 87300, Note_on_c, 0, 54, 45
3, 87315, Note_on_c, 0, 54, 0
3, 87330, Note_on_c, 0, 57, 45
3, 87360, Note_on_c, 0, 57, 0
3, 87360, Note_on_c, 0, 61, 45
3, 87375, Note_on_c, 0, 61, 0
3, 87390, Note_on_c, 0, 61, 45
3, 87405, Note_on_c, 0, 61, 0
3, 87420, Note_on_c, 0, 66, 45
3, 87435, Note_on_c, 0, 66, 0
3, 87450, Note_on_c, 0, 69, 45
3, 87480, Note_on_c, 0, 69, 0
3, 87480, Note_on_c, 0, 73, 45
3, 87495, Note_on_c, 0, 73, 0
3, 87525, Note_on_c, 0, 73, 45
3, 87540, Note_on_c, 0, 73, 0
3, 87540, Note_on_c, 0, 78, 45
3, 87555, Note_on_c, 0, 78, 0
3, 87570, Note_on_c, 0, 81, 45
3, 87585, Note_on_c, 0, 81, 0
3, 87600, Note_on_c, 0, 73, 85
3, 87600, Note_on_c, 0, 78, 85
3, 87600, Note_on_c, 0, 85, 85
3, 87607, Note_on_c, 0, 85, 0
3, 87607, Note_on_c, 0, 78, 0
3, 87607, Note_on_c, 0, 73, 0
3, 87660, Note_on_c, 0, 73, 60
3, 87660, Note_on_c, 0, 78, 60
3, 87660, Note_on_c, 0, 85, 60
3, 87668, Note_on_c, 0, 85, 0
3, 87668, Note_on_c, 0, 78, 0
3, 87668, Note_on_c, 0, 73, 0
3, 87750, Note_on_c, 0, 49, 45
3, 87765, Note_on_c, 0, 49, 0
3, 87780, Note_on_c, 0, 51, 45
3, 87795, Note_on_c, 0, 51, 0
3, 87810, Note_on_c, 0, 55, 45
3, 87825, Note_on_c, 0, 55, 0
3, 87840, Note_on_c, 0, 61, 45
3, 87855, Note_on_c, 0, 61, 0
3, 87870, Note_on_c, 0, 61, 45
3, 87885, Note_on_c, 0, 61, 0
3, 87900, Note_on_c, 0, 64, 45
3, 87915, Note_on_c, 0, 64, 0
3, 87930, Note_on_c, 0, 67, 45
3, 87960, Note_on_c, 0, 67, 0
3, 87960, Note_on_c, 0, 73, 45
3, 87975, Note_on_c, 0, 73, 0
3, 87990, Note_on_c, 0, 73, 45
3, 88005, Note_on_c, 0, 73, 0
3, 88020, Note_on_c, 0, 76, 45
3, 88035, Note_on_c, 0, 76, 0
3, 88050, Note_on_c, 0, 79, 45
3, 88065, Note_on_c, 0, 79, 0
3, 88080, Note_on_c, 0, 73, 80
3, 88080, Note_on_c, 0, 79, 80
3, 88080, Note_on_c, 0, 85, 80
3, 88087, Note_on_c, 0, 85, 0
3, 88087, Note_on_c, 0, 79, 0
3, 88087, Note_on_c, 0, 73, 0
3, 88140, Note_on_c, 0, 73, 80
3, 88140, Note_on_c, 0, 79, 80
3, 88140, Note_on_c, 0, 85, 80
3, 88148, Note_on_c, 0, 85, 0
3, 88148, Note_on_c, 0, 79, 0
3, 88148, Note_on_c, 0, 73, 0
3, 88200, Control_c, 0, 64, 127
3, 88200, Note_on_c, 0, 72, 80
3, 88200, Note_on_c, 0, 80, 80
3, 88200, Note_on_c, 0, 84, 80
3, 88212, Note_on_c, 0, 84, 0
3, 88212, Note_on_c, 0, 80, 0
3, 88212, Note_on_c, 0, 72, 0
3, 88260, Control_c, 0, 64, 0
3, 88260, Note_on_c, 0, 68, 75
3, 88275, Note_on_c, 0, 68, 0
3, 88290, Note_on_c, 0, 80, 70
3, 88305, Note_on_c, 0, 80, 0
3, 88320, Note_on_c, 0, 68, 65
3, 88335, Note_on_c, 0, 68, 0
3, 88350, Note_on_c, 0, 80, 60
3, 88365, Note_on_c, 0, 80, 0
3, 88380, Note_on_c, 0, 70, 55
3, 88395, Note_on_c, 0, 70, 0
3, 88410, Note_on_c, 0, 80, 50
3, 88425, Note_on_c, 0, 80, 0
3, 88440, Note_on_c, 0, 72, 52
3, 88455, Note_on_c, 0, 72, 0
3, 88470, Note_on_c, 0, 80, 54
3, 88485, Note_on_c, 0, 80, 0
3, 88500, Note_on_c, 0, 73, 56
3, 88515, Note_on_c, 0, 73, 0
3, 88530, Note_on_c, 0, 80, 58
3, 88545, Note_on_c, 0, 80, 0
3, 88560, Note_on_c, 0, 75, 60
3, 88575, Note_on_c, 0, 75, 0
3, 88590, Note_on_c, 0, 80, 62
3, 88605, Note_on_c, 0, 80, 0
3, 88620, Note_on_c, 0, 72, 64
3, 88635, Note_on_c, 0, 72, 0
3, 88650, Note_on_c, 0, 80, 66
3, 88665, Note_on_c, 0, 80, 0
3, 88680, Note_on_c, 0, 75, 68
3, 88695, Note_on_c, 0, 75, 0
3, 88710, Note_on_c, 0, 80, 70
3, 88725, Note_on_c, 0, 80, 0
3, 88740, Note_on_c, 0, 73, 72
3, 88755, Note_on_c, 0, 73, 0
3, 88770, Note_on_c, 0, 80, 74
3, 88785, Note_on_c, 0, 80, 0
3, 88800, Note_on_c, 0, 78, 76
3, 88815, Note_on_c, 0, 78, 0
3, 88830, Note_on_c, 0, 80, 76
3, 88845, Note_on_c, 0, 80, 0
3, 88860, Note_on_c, 0, 76, 76
3, 88875, Note_on_c, 0, 76, 0
3, 88890, Note_on_c, 0, 80, 76
3, 88905, Note_on_c, 0, 80, 0
3, 88920, Note_on_c, 0, 75, 72
3, 88935, Note_on_c, 0, 75, 0
3, 88950, Note_on_c, 0, 80, 68
3, 88965, Note_on_c, 0, 80, 0
3, 88980, Note_on_c, 0, 73, 64
3, 88995, Note_on_c, 0, 73, 0
3, 89010, Note_on_c, 0, 80, 60
3, 89025, Note_on_c, 0, 80, 0
3, 89040, Note_on_c, 0, 72, 56
3, 89055, Note_on_c, 0, 72, 0
3, 89070, Note_on_c, 0, 80, 52
3, 89085, Note_on_c, 0, 80, 0
3, 89100, Note_on_c, 0, 69, 48
3, 89115, Note_on_c, 0, 69, 0
3, 89130, Note_on_c, 0, 79, 44
3, 89145, Note_on_c, 0, 79, 0
3, 89160, Note_on_c, 0, 68, 42
3, 89175, Note_on_c, 0, 68, 0
3, 89190, Note_on_c, 0, 80, 45
3, 89205, Note_on_c, 0, 80, 0
3, 89220, Note_on_c, 0, 68, 45
3, 89235, Note_on_c, 0, 68, 0
3, 89250, Note_on_c, 0, 80, 45
3, 89265, Note_on_c, 0, 80, 0
3, 89280, Note_on_c, 0, 68, 45
3, 89295, Note_on_c, 0, 68, 0
3, 89310, Note_on_c, 0, 80, 45
3, 89325, Note_on_c, 0, 80, 0
3, 89340, Note_on_c, 0, 70, 45
3, 89355, Note_on_c, 0, 70, 0
3, 89370, Note_on_c, 0, 80, 45
3, 89385, Note_on_c, 0, 80, 0
3, 89400, Note_on_c, 0, 72, 45
3, 89415, Note_on_c, 0, 72, 0
3, 89430, Note_on_c, 0, 80, 45
3, 89445, Note_on_c, 0, 80, 0
3, 89460, Note_on_c, 0, 73, 46
3, 89475, Note_on_c, 0, 73, 0
3, 89490, Note_on_c, 0, 80, 48
3, 89505, Note_on_c, 0, 80, 0
3, 89520, Note_on_c, 0, 75, 50
3, 89535, Note_on_c, 0, 75, 0
3, 89550, Note_on_c, 0, 80, 52
3, 89565, Note_on_c, 0, 80, 0
3, 89580, Note_on_c, 0, 72, 55
3, 89595, Note_on_c, 0, 72, 0
3, 89610, Note_on_c, 0, 80, 57
3, 89625, Note_on_c, 0, 80, 0
3, 89640, Note_on_c, 0, 75, 59
3, 89655, Note_on_c, 0, 75, 0
3, 89670, Note_on_c, 0, 80, 61
3, 89685, Note_on_c, 0, 80, 0
3, 89700, Note_on_c, 0, 73, 63
3, 89715, Note_on_c, 0, 73, 0
3, 89730, Note_on_c, 0, 80, 65
3, 89745, Note_on_c, 0, 80, 0
3, 89760, Note_on_c, 0, 78, 69
3, 89775, Note_on_c, 0, 78, 0
3, 89790, Note_on_c, 0, 80, 71
3, 89805, Note_on_c, 0, 80, 0
3, 89820, Note_on_c, 0, 76, 73
3, 89835, Note_on_c, 0, 76, 0
3, 89850, Note_on_c, 0, 80, 75
3, 89865, Note_on_c, 0, 80, 0
3, 89880, Note_on_c, 0, 75, 71
3, 89895, Note_on_c, 0, 75, 0
3, 89910, Note_on_c, 0, 80, 68
3, 89925, Note_on_c, 0, 80, 0
3, 89940, Note_on_c, 0, 73, 65
3, 89955, Note_on_c, 0, 73, 0
3, 89970, Note_on_c, 0, 80, 62
3, 89985, Note_on_c, 0, 80, 0
3, 90000, Note_on_c, 0, 72, 59
3, 90015, Note_on_c, 0, 72, 0
3, 90030, Note_on_c, 0, 80, 56
3, 90045, Note_on_c, 0, 80, 0
3, 90060, Note_on_c, 0, 69, 53
3, 90075, Note_on_c, 0, 69, 0
3, 90090, Note_on_c, 0, 79, 50
3, 90105, Note_on_c, 0, 79, 0
3, 90120, Note_on_c, 0, 68, 50
3, 90135, Note_on_c, 0, 68, 0
3, 90150, Note_on_c, 0, 80, 50
3, 90165, Note_on_c, 0, 80, 0
3, 90180, Note_on_c, 0, 69, 50
3, 90195, Note_on_c, 0, 69, 0
3, 90210, Note_on_c, 0, 79, 50
3, 90225, Note_on_c, 0, 79, 0
3, 90240, Note_on_c, 0, 68, 52
3, 90255, Note_on_c, 0, 68, 0
3, 90270, Note_on_c, 0, 80, 54
3, 90285, Note_on_c, 0, 80, 0
3, 90300, Note_on_c, 0, 69, 56
3, 90315, Note_on_c, 0, 69, 0
3, 90330, Note_on_c, 0, 79, 58
3, 90345, Note_on_c, 0, 79, 0
3, 90360, Note_on_c, 0, 68, 60
3, 90375, Note_on_c, 0, 68, 0
3, 90390, Note_on_c, 0, 80, 62
3, 90405, Note_on_c, 0, 80, 0
3, 90420, Note_on_c, 0, 69, 64
3, 90435, Note_on_c, 0, 69, 0
3, 90450, Note_on_c, 0, 79, 66
3, 90465, Note_on_c, 0, 79, 0
3, 90480, Note_on_c, 0, 68, 68
3, 90495, Note_on_c, 0, 68, 0
3, 90510, Note_on_c, 0, 80, 70
3, 90525, Note_on_c, 0, 80, 0
3, 90540, Note_on_c, 0, 69, 75
3, 90555, Note_on_c, 0, 69, 0
3, 90570, Note_on_c, 0, 79, 80
3, 90585, Note_on_c, 0, 79, 0
3, 90600, Note_on_c, 0, 68, 85
3, 90600, Note_on_c, 0, 80, 85
3, 90707, Note_on_c, 0, 80, 0
3, 90707, Note_on_c, 0, 68, 0
3, 90720, Note_on_c, 0, 56, 85
3, 91067, Note_on_c, 0, 56, 0
3, 91110, Note_on_c, 0, 44, 45
3, 91125, Note_on_c, 0, 44, 0
3, 91140, Note_on_c, 0, 49, 45
3, 91155, Note_on_c, 0, 49, 0
3, 91170, Note_on_c, 0, 52, 45
3, 91187, Note_on_c, 0, 52, 0
3, 91200, Note_on_c, 0, 56, 45
3, 91215, Note_on_c, 0, 56, 0
3, 91230, Note_on_c, 0, 49, 45
3, 91245, Note_on_c, 0, 49, 0
3, 91260, Note_on_c, 0, 52, 45
3, 91275, Note_on_c, 0, 52, 0
3, 91290, Note_on_c, 0, 56, 45
3, 91307, Note_on_c, 0, 56, 0
3, 91320, Note_on_c, 0, 61, 45
3, 91335, Note_on_c, 0, 61, 0
3, 91350, Note_on_c, 0, 52, 45
3, 91365, Note_on_c, 0, 52, 0
3, 91380, Note_on_c, 0, 56, 45
3, 91395, Note_on_c, 0, 56, 0
3, 91410, Note_on_c, 0, 61, 45
3, 91427, Note_on_c, 0, 61, 0
3, 91440, Note_on_c, 0, 64, 45
3, 91455, Note_on_c, 0, 64, 0
3, 91470, Note_on_c, 0, 56, 45
3, 91485, Note_on_c, 0, 56, 0
3, 91500, Note_on_c, 0, 61, 45
3, 91515, Note_on_c, 0, 61, 0
3, 91530, Note_on_c, 0, 64, 45
3, 91547, Note_on_c, 0, 64, 0
3, 91560, Note_on_c, 0, 68, 45
3, 91575, Note_on_c, 0, 68, 0
3, 91590, Note_on_c, 0, 61, 45
3, 91605, Note_on_c, 0, 61, 0
3, 91620, Note_on_c, 0, 64, 45
3, 91635, Note_on_c, 0, 64, 0
3, 91650, Note_on_c, 0, 68, 45
3, 91667, Note_on_c, 0, 68, 0
3, 91680, Note_on_c, 0, 73, 45
3, 91695, Note_on_c, 0, 73, 0
3, 91710, Note_on_c, 0, 64, 45
3, 91725, Note_on_c, 0, 64, 0
3, 91740, Note_on_c, 0, 68, 45
3, 91755, Note_on_c, 0, 68, 0
3, 91770, Note_on_c, 0, 73, 45
3, 91787, Note_on_c, 0, 73, 0
3, 91800, Note_on_c, 0, 76, 45
3, 91820, Note_on_c, 0, 76, 0
3, 91830, Note_on_c, 0, 76, 45
3, 91860, Note_on_c, 0, 76, 0
3, 91860, Note_on_c, 0, 80, 45
3, 91890, Note_on_c, 0, 80, 0
3, 91890, Note_on_c, 0, 85, 45
3, 91907, Note_on_c, 0, 85, 0
3, 91920, Note_on_c, 0, 76, 80
3, 91920, Note_on_c, 0, 88, 80
3, 91927, Note_on_c, 0, 88, 0
3, 91927, Note_on_c, 0, 76, 0
3, 91980, Note_on_c, 0, 76, 60
3, 91980, Note_on_c, 0, 88, 60
3, 91988, Note_on_c, 0, 88, 0
3, 91988, Note_on_c, 0, 76, 0
3, 92070, Note_on_c, 0, 52, 45
3, 92085, Note_on_c, 0, 52, 0
3, 92100, Note_on_c, 0, 55, 45
3, 92115, Note_on_c, 0, 55, 0
3, 92130, Note_on_c, 0, 61, 45
3, 92147, Note_on_c, 0, 61, 0
3, 92160, Note_on_c, 0, 64, 45
3, 92175, Note_on_c, 0, 64, 0
3, 92190, Note_on_c, 0, 54, 45
3, 92205, Note_on_c, 0, 54, 0
3, 92220, Note_on_c, 0, 61, 45
3, 92235, Note_on_c, 0, 61, 0
3, 92250, Note_on_c, 0, 64, 45
3, 92267, Note_on_c, 0, 64, 0
3, 92280, Note_on_c, 0, 67, 45
3, 92295, Note_on_c, 0, 67, 0
3, 92310, Note_on_c, 0, 61, 45
3, 92325, Note_on_c, 0, 61, 0
3, 92340, Note_on_c, 0, 64, 45
3, 92355, Note_on_c, 0, 64, 0
3, 92370, Note_on_c, 0, 67, 45
3, 92387, Note_on_c, 0, 67, 0
3, 92400, Note_on_c, 0, 73, 45
3, 92415, Note_on_c, 0, 73, 0
3, 92430, Note_on_c, 0, 64, 45
3, 92445, Note_on_c, 0, 64, 0
3, 92460, Note_on_c, 0, 67, 45
3, 92475, Note_on_c, 0, 67, 0
3, 92490, Note_on_c, 0, 73, 45
3, 92507, Note_on_c, 0, 73, 0
3, 92520, Note_on_c, 0, 76, 45
3, 92535, Note_on_c, 0, 76, 0
3, 92550, Note_on_c, 0, 67, 45
3, 92578, Note_on_c, 0, 67, 0
3, 92580, Note_on_c, 0, 73, 45
3, 92608, Note_on_c, 0, 73, 0
3, 92610, Note_on_c, 0, 76, 45
3, 92627, Note_on_c, 0, 76, 0
3, 92640, Note_on_c, 0, 79, 45
3, 92655, Note_on_c, 0, 79, 0
3, 92670, Note_on_c, 0, 73, 45
3, 92700, Note_on_c, 0, 73, 0
3, 92700, Note_on_c, 0, 76, 45
3, 92730, Note_on_c, 0, 76, 0
3, 92730, Note_on_c, 0, 79, 45
3, 92760, Note_on_c, 0, 79, 0
3, 92760, Note_on_c, 0, 85, 45
3, 92780, Note_on_c, 0, 85, 0
3, 92790, Note_on_c, 0, 76, 45
3, 92820, Note_on_c, 0, 76, 0
3, 92820, Note_on_c, 0, 79, 45
3, 92850, Note_on_c, 0, 79, 0
3, 92850, Note_on_c, 0, 85, 45
3, 92879, Note_on_c, 0, 85, 0
3, 92880, Note_on_c, 0, 76, 80
3, 92880, Note_on_c, 0, 88, 80
3, 92887, Note_on_c, 0, 88, 0
3, 92887, Note_on_c, 0, 76, 0
3, 92940, Note_on_c, 0, 76, 60
3, 92940, Note_on_c, 0, 88, 60
3, 92948, Note_on_c, 0, 88, 0
3, 92948, Note_on_c, 0, 76, 0
3, 93000, Control_c, 0, 64, 127
3, 93030, Note_on_c, 0, 51, 45
3, 93060, Note_on_c, 0, 51, 0
3, 93060, Note_on_c, 0, 58, 45
3, 93090, Note_on_c, 0, 58, 0
3, 93090, Note_on_c, 0, 61, 45
3, 93120, Note_on_c, 0, 61, 0
3, 93120, Note_on_c, 0, 63, 45
3, 93150, Note_on_c, 0, 63, 0
3, 93150, Note_on_c, 0, 58, 45
3, 93180, Note_on_c, 0, 58, 0
3, 93180, Note_on_c, 0, 61, 45
3, 93210, Note_on_c, 0, 61, 0
3, 93210, Note_on_c, 0, 63, 45
3, 93239, Note_on_c, 0, 63, 0
3, 93240, Note_on_c, 0, 70, 45
3, 93270, Note_on_c, 0, 70, 0
3, 93270, Note_on_c, 0, 61, 45
3, 93300, Note_on_c, 0, 61, 0
3, 93300, Note_on_c, 0, 63, 45
3, 93330, Note_on_c, 0, 63, 0
3, 93330, Note_on_c, 0, 70, 45
3, 93360, Note_on_c, 0, 70, 0
3, 93360, Note_on_c, 0, 73, 45
3, 93390, Note_on_c, 0, 73, 0
3, 93390, Note_on_c, 0, 63, 45
3, 93420, Note_on_c, 0, 63, 0
3, 93420, Note_on_c, 0, 70, 45
3, 93450, Note_on_c, 0, 70, 0
3, 93450, Note_on_c, 0, 73, 45
3, 93479, Note_on_c, 0, 73, 0
3, 93480, Note_on_c, 0, 75, 45
3, 93510, Note_on_c, 0, 75, 0
3, 93510, Note_on_c, 0, 70, 45
3, 93540, Note_on_c, 0, 70, 0
3, 93540, Note_on_c, 0, 73, 45
3, 93570, Note_on_c, 0, 73, 0
3, 93570, Note_on_c, 0, 75, 45
3, 93600, Note_on_c, 0, 75, 0
3, 93600, Note_on_c, 0, 82, 45
3, 93630, Note_on_c, 0, 82, 0
3, 93630, Note_on_c, 0, 73, 45
3, 93660, Note_on_c, 0, 73, 0
3, 93660, Note_on_c, 0, 75, 45
3, 93690, Note_on_c, 0, 75, 0
3, 93690, Note_on_c, 0, 82, 45
3, 93720, Note_on_c, 0, 82, 0
3, 93720, Note_on_c, 0, 85, 63
3, 93750, Note_on_c, 0, 85, 0
3, 93750, Note_on_c, 0, 82, 61
3, 93780, Note_on_c, 0, 82, 0
3, 93780, Note_on_c, 0, 75, 59
3, 93810, Note_on_c, 0, 75, 0
3, 93810, Note_on_c, 0, 73, 57
3, 93839, Note_on_c, 0, 73, 0
3, 93840, Control_c, 0, 64, 0
3, 93840, Note_on_c, 0, 82, 55
3, 93870, Note_on_c, 0, 82, 0
3, 93870, Note_on_c, 0, 75, 51
3, 93900, Note_on_c, 0, 75, 0
3, 93900, Note_on_c, 0, 73, 49
3, 93930, Note_on_c, 0, 73, 0
3, 93930, Note_on_c, 0, 70, 47
3, 93960, Note_on_c, 0, 70, 0
3, 93960, Note_on_c, 0, 71, 45
3, 93990, Note_on_c, 0, 71, 0
3, 94080, Note_on_c, 0, 75, 60
3, 94320, Note_on_c, 0, 75, 0
3, 94320, Note_on_c, 0, 71, 45
3, 94410, Note_on_c, 0, 71, 0
3, 94410, Note_on_c, 0, 68, 45
3, 94440, Note_on_c, 0, 68, 0
3, 94440, Note_on_c, 0, 67, 45
3, 94448, Note_on_c, 0, 67, 0
3, 94450, Note_on_c, 0, 68, 45
3, 94458, Note_on_c, 0, 68, 0
3, 94460, Note_on_c, 0, 70, 45
3, 94468, Note_on_c, 0, 70, 0
3, 94470, Note_on_c, 0, 68, 60
3, 94560, Note_on_c, 0, 68, 0
3, 94560, Note_on_c, 0, 67, 45
3, 94738, Note_on_c, 0, 67, 0
3, 94740, Note_on_c, 0, 67, 45
3, 94799, Note_on_c, 0, 67, 0
3, 94800, Note_on_c, 0, 75, 60
3, 94888, Note_on_c, 0, 75, 0
3, 94890, Note_on_c, 0, 67, 45
3, 94919, Note_on_c, 0, 67, 0
3, 94920, Note_on_c, 0, 70, 45
3, 95040, Note_on_c, 0, 70, 0
3, 95040, Note_on_c, 0, 68, 45
3, 95218, Note_on_c, 0, 68, 0
3, 95220, Note_on_c, 0, 68, 45
3, 95280, Note_on_c, 0, 68, 0
3, 95280, Note_on_c, 0, 75, 60
3, 95370, Note_on_c, 0, 75, 0
3, 95370, Note_on_c, 0, 68, 45
3, 95399, Note_on_c, 0, 68, 0
3, 95400, Note_on_c, 0, 71, 45
3, 95520, Note_on_c, 0, 71, 0
3, 95520, Note_on_c, 0, 70, 45
3, 95698, Note_on_c, 0, 70, 0
3, 95700, Note_on_c, 0, 70, 45
3, 95760, Note_on_c, 0, 70, 0
3, 95760, Note_on_c, 0, 75, 60
3, 95850, Note_on_c, 0, 75, 0
3, 95850, Note_on_c, 0, 70, 45
3, 95879, Note_on_c, 0, 70, 0
3, 95880, Control_c, 0, 64, 127
3, 95880, Note_on_c, 0, 71, 45
3, 95938, Note_on_c, 0, 71, 0
3, 95940, Note_on_c, 0, 75, 45
3, 95940, Note_on_c, 0, 87, 45
3, 96058, Note_on_c, 0, 87, 0
3, 96058, Note_on_c, 0, 75, 0
3, 96060, Note_on_c, 0, 75, 47
3, 96060, Note_on_c, 0, 87, 47
3, 96178, Note_on_c, 0, 87, 0
3, 96178, Note_on_c, 0, 75, 0
3, 96180, Note_on_c, 0, 75, 49
3, 96180, Note_on_c, 0, 87, 49
3, 96200, Note_on_c, 0, 87, 0
3, 96200, Note_on_c, 0, 75, 0
3, 96240, Note_on_c, 0, 71, 51
3, 96240, Note_on_c, 0, 83, 51
3, 96260, Note_on_c, 0, 83, 0
3, 96260, Note_on_c, 0, 71, 0
3, 96300, Note_on_c, 0, 68, 53
3, 96300, Note_on_c, 0, 80, 53
3, 96320, Note_on_c, 0, 80, 0
3, 96320, Note_on_c, 0, 68, 0
3, 96360, Control_c, 0, 64, 0
3, 96360, Note_on_c, 0, 68, 55
3, 96360, Note_on_c, 0, 80, 55
3, 96380, Note_on_c, 0, 80, 0
3, 96380, Note_on_c, 0, 68, 0
3, 96420, Note_on_c, 0, 67, 57
3, 96420, Note_on_c, 0, 79, 57
3, 96538, Note_on_c, 0, 79, 0
3, 96538, Note_on_c, 0, 67, 0
3, 96540, Control_c, 0, 64, 127
3, 96540, Note_on_c, 0, 67, 59
3, 96540, Note_on_c, 0, 79, 59
3, 96658, Note_on_c, 0, 79, 0
3, 96658, Note_on_c, 0, 67, 0
3, 96660, Note_on_c, 0, 67, 61
3, 96660, Note_on_c, 0, 79, 61
3, 96680, Note_on_c, 0, 79, 0
3, 96680, Note_on_c, 0, 67, 0
3, 96720, Note_on_c, 0, 75, 63
3, 96720, Note_on_c, 0, 87, 63
3, 96740, Note_on_c, 0, 87, 0
3, 96740, Note_on_c, 0, 75, 0
3, 96780, Note_on_c, 0, 67, 65
3, 96780, Note_on_c, 0, 79, 65
3, 96800, Note_on_c, 0, 79, 0
3, 96800, Note_on_c, 0, 67, 0
3, 96840, Control_c, 0, 64, 0
3, 96840, Note_on_c, 0, 70, 67
3, 96840, Note_on_c, 0, 82, 67
3, 96860, Note_on_c, 0, 82, 0
3, 96860, Note_on_c, 0, 70, 0
3, 96900, Note_on_c, 0, 68, 69
3, 96900, Note_on_c, 0, 80, 69
3, 97018, Note_on_c, 0, 80, 0
3, 97018, Note_on_c, 0, 68, 0
3, 97020, Control_c, 0, 64, 127
3, 97020, Note_on_c, 0, 68, 71
3, 97020, Note_on_c, 0, 80, 71
3, 97138, Note_on_c, 0, 80, 0
3, 97138, Note_on_c, 0, 68, 0
3, 97140, Note_on_c, 0, 68, 73
3, 97140, Note_on_c, 0, 80, 73
3, 97160, Note_on_c, 0, 80, 0
3, 97160, Note_on_c, 0, 68, 0
3, 97200, Note_on_c, 0, 75, 75
3, 97200, Note_on_c, 0, 87, 75
3, 97220, Note_on_c, 0, 87, 0
3, 97220, Note_on_c, 0, 75, 0
3, 97260, Note_on_c, 0, 68, 77
3, 97260, Note_on_c, 0, 80, 77
3, 97280, Note_on_c, 0, 80, 0
3, 97280, Note_on_c, 0, 68, 0
3, 97320, Control_c, 0, 64, 0
3, 97320, Note_on_c, 0, 71, 79
3, 97320, Note_on_c, 0, 83, 79
3, 97340, Note_on_c, 0, 83, 0
3, 97340, Note_on_c, 0, 71, 0
3, 97380, Note_on_c, 0, 70, 80
3, 97380, Note_on_c, 0, 82, 80
3, 97498, Note_on_c, 0, 82, 0
3, 97498, Note_on_c, 0, 70, 0
3, 97500, Control_c, 0, 64, 127
3, 97500, Note_on_c, 0, 70, 81
3, 97500, Note_on_c, 0, 82, 81
3, 97618, Note_on_c, 0, 82, 0
3, 97618, Note_on_c, 0, 70, 0
3, 97620, Note_on_c, 0, 70, 82
3, 97620, Note_on_c, 0, 82, 82
3, 97640, Note_on_c, 0, 82, 0
3, 97640, Note_on_c, 0, 70, 0
3, 97680, Note_on_c, 0, 75, 84
3, 97680, Note_on_c, 0, 87, 84
3, 97700, Note_on_c, 0, 87, 0
3, 97700, Note_on_c, 0, 75, 0
3, 97740, Note_on_c, 0, 70, 85
3, 97740, Note_on_c, 0, 82, 85
3, 97760, Note_on_c, 0, 82, 0
3, 97760, Note_on_c, 0, 70, 0
3, 97800, Control_c, 0, 64, 0
3, 97800, Control_c, 0, 64, 127
3, 97800, Note_on_c, 0, 72, 85
3, 97800, Note_on_c, 0, 84, 85
3, 98039, Note_on_c, 0, 84, 0
3, 98039, Note_on_c, 0, 72, 0
3, 98040, Control_c, 0, 64, 0
3, 98040, Control_c, 0, 64, 127
3, 98040, Note_on_c, 0, 73, 85
3, 98040, Note_on_c, 0, 85, 85
3, 98279, Note_on_c, 0, 85, 0
3, 98279, Note_on_c, 0, 73, 0
3, 98280, Control_c, 0, 64, 0
3, 98280, Note_on_c, 0, 70, 78
3, 98280, Note_on_c, 0, 82, 78
3, 98298, Note_on_c, 0, 82, 0
3, 98298, Note_on_c, 0, 70, 0
3, 98300, Note_on_c, 0, 83, 78
3, 98318, Note_on_c, 0, 83, 0
3, 98320, Note_on_c, 0, 82, 78
3, 98338, Note_on_c, 0, 82, 0
3, 98340, Note_on_c, 0, 80, 78
3, 98368, Note_on_c, 0, 80, 0
3, 98370, Note_on_c, 0, 82, 78
3, 98399, Note_on_c, 0, 82, 0
3, 98400, Note_on_c, 0, 71, 85
3, 98400, Note_on_c, 0, 83, 85
3, 98759, Note_on_c, 0, 83, 0
3, 98759, Note_on_c, 0, 71, 0
3, 98760, Control_c, 0, 64, 127
3, 98760, Note_on_c, 0, 68, 85
3, 98760, Note_on_c, 0, 80, 85
3, 98999, Note_on_c, 0, 80, 0
3, 98999, Note_on_c, 0, 68, 0
3, 99000, Control_c, 0, 64, 0
3, 99000, Control_c, 0, 64, 127
3, 99000, Note_on_c, 0, 69, 85
3, 99000, Note_on_c, 0, 81, 85
3, 99239, Note_on_c, 0, 81, 0
3, 99239, Note_on_c, 0, 69, 0
3, 99240, Control_c, 0, 64, 0
3, 99240, Note_on_c, 0, 67, 85
3, 99240, Note_on_c, 0, 79, 85
3, 99258, Note_on_c, 0, 79, 0
3, 99258, Note_on_c, 0, 67, 0
3, 99260, Note_on_c, 0, 81, 85
3, 99278, Note_on_c, 0, 81, 0
3, 99280, Note_on_c, 0, 79, 85
3, 99298, Note_on_c, 0, 79, 0
3, 99300, Note_on_c, 0, 77, 85
3, 99328, Note_on_c, 0, 77, 0
3, 99330, Note_on_c, 0, 78, 85
3, 99359, Note_on_c, 0, 78, 0
3, 99360, Note_on_c, 0, 67, 85
3, 99360, Note_on_c, 0, 79, 85
3, 99719, Note_on_c, 0, 79, 0
3, 99719, Note_on_c, 0, 67, 0
3, 99720, Control_c, 0, 64, 127
3, 99720, Note_on_c, 0, 69, 85
3, 99720, Note_on_c, 0, 73, 85
3, 99720, Note_on_c, 0, 76, 85
3, 99720, Note_on_c, 0, 81, 85
3, 99975, Note_on_c, 0, 81, 0
3, 99975, Note_on_c, 0, 69, 0
3, 99975, Note_on_c, 0, 73, 0
3, 99975, Note_on_c, 0, 76, 0
3, 99990, Note_on_c, 0, 76, 45
3, 100020, Note_on_c, 0, 76, 0
3, 100020, Note_on_c, 0, 78, 45
3, 100050, Note_on_c, 0, 78, 0
3, 100050, Note_on_c, 0, 80, 45
3, 100079, Note_on_c, 0, 80, 0
3, 100080, Control_c, 0, 64, 0
3, 100080, Note_on_c, 0, 81, 45
3, 100110, Note_on_c, 0, 81, 0
3, 100110, Note_on_c, 0, 83, 45
3, 100140, Note_on_c, 0, 83, 0
3, 100140, Note_on_c, 0, 85, 45
3, 100170, Note_on_c, 0, 85, 0
3, 100170, Note_on_c, 0, 83, 45
3, 100199, Note_on_c, 0, 83, 0
3, 100200, Note_on_c, 0, 81, 49
3, 100215, Note_on_c, 0, 81, 0
3, 100230, Note_on_c, 0, 76, 53
3, 100260, Note_on_c, 0, 76, 0
3, 100260, Note_on_c, 0, 78, 57
3, 100290, Note_on_c, 0, 78, 0
3, 100290, Note_on_c, 0, 80, 61
3, 100320, Note_on_c, 0, 80, 0
3, 100320, Note_on_c, 0, 81, 61
3, 100350, Note_on_c, 0, 81, 0
3, 100350, Note_on_c, 0, 83, 57
3, 100380, Note_on_c, 0, 83, 0
3, 100380, Note_on_c, 0, 85, 53
3, 100410, Note_on_c, 0, 85, 0
3, 100410, Note_on_c, 0, 83, 49
3, 100439, Note_on_c, 0, 83, 0
3, 100440, Note_on_c, 0, 81, 49
3, 100455, Note_on_c, 0, 81, 0
3, 100470, Note_on_c, 0, 76, 53
3, 100500, Note_on_c, 0, 76, 0
3, 100500, Note_on_c, 0, 78, 57
3, 100530, Note_on_c, 0, 78, 0
3, 100530, Note_on_c, 0, 80, 61
3, 100560, Note_on_c, 0, 80, 0
3, 100560, Note_on_c, 0, 81, 61
3, 100590, Note_on_c, 0, 81, 0
3, 100590, Note_on_c, 0, 83, 57
3, 100620, Note_on_c, 0, 83, 0
3, 100620, Note_on_c, 0, 85, 53
3, 100650, Note_on_c, 0, 85, 0
3, 100650, Note_on_c, 0, 83, 49
3, 100679, Note_on_c, 0, 83, 0
3, 100680, Note_on_c, 0, 81, 45
3, 100695, Note_on_c, 0, 81, 0
3, 100710, Note_on_c, 0, 76, 47
3, 100740, Note_on_c, 0, 76, 0
3, 100740, Note_on_c, 0, 78, 49
3, 100770, Note_on_c, 0, 78, 0
3, 100770, Note_on_c, 0, 80, 50
3, 100800, Note_on_c, 0, 80, 0
3, 100800, Note_on_c, 0, 81, 52
3, 100830, Note_on_c, 0, 81, 0
3, 100830, Note_on_c, 0, 83, 54
3, 100860, Note_on_c, 0, 83, 0
3, 100860, Note_on_c, 0, 85, 56
3, 100890, Note_on_c, 0, 85, 0
3, 100890, Note_on_c, 0, 86, 58
3, 100920, Note_on_c, 0, 86, 0
3, 100920, Note_on_c, 0, 88, 60
3, 100950, Note_on_c, 0, 88, 0
3, 100950, Note_on_c, 0, 87, 62
3, 100980, Note_on_c, 0, 87, 0
3, 100980, Note_on_c, 0, 88, 64
3, 101010, Note_on_c, 0, 88, 0
3, 101010, Note_on_c, 0, 87, 66
3, 101022, Note_on_c, 0, 87, 0
3, 101040, Note_on_c, 0, 88, 75
3, 101070, Note_on_c, 0, 88, 0
3, 101070, Note_on_c, 0, 85, 68
3, 101100, Note_on_c, 0, 85, 0
3, 101100, Note_on_c, 0, 83, 62
3, 101130, Note_on_c, 0, 83, 0
3, 101130, Note_on_c, 0, 81, 54
3, 101160, Note_on_c, 0, 81, 0
3, 101160, Note_on_c, 0, 80, 45
3, 101370, Note_on_c, 0, 80, 0
3, 101385, Note_on_c, 0, 83, 45
3, 101392, Note_on_c, 0, 83, 0
3, 101400, Note_on_c, 0, 82, 45
3, 101415, Note_on_c, 0, 82, 0
3, 101430, Note_on_c, 0, 83, 45
3, 101445, Note_on_c, 0, 83, 0
3, 101460, Note_on_c, 0, 82, 45
3, 101475, Note_on_c, 0, 82, 0
3, 101490, Note_on_c, 0, 83, 45
3, 101505, Note_on_c, 0, 83, 0
3, 101520, Note_on_c, 0, 82, 45
3, 101535, Note_on_c, 0, 82, 0
3, 101550, Note_on_c, 0, 83, 45
3, 101565, Note_on_c, 0, 83, 0
3, 101580, Note_on_c, 0, 82, 45
3, 101595, Note_on_c, 0, 82, 0
3, 101610, Note_on_c, 0, 83, 45
3, 101620, Note_on_c, 0, 83, 0
3, 101625, Note_on_c, 0, 82, 45
3, 101633, Note_on_c, 0, 82, 0
3, 101640, Note_on_c, 0, 80, 45
3, 101670, Note_on_c, 0, 80, 0
3, 101760, Control_c, 0, 64, 127
3, 101760, Note_on_c, 0, 57, 80
3, 101760, Note_on_c, 0, 61, 80
3, 101760, Note_on_c, 0, 64, 80
3, 101760, Note_on_c, 0, 69, 80
3, 101895, Note_on_c, 0, 69, 0
3, 101895, Note_on_c, 0, 57, 0
3, 101895, Note_on_c, 0, 61, 0
3, 101895, Note_on_c, 0, 64, 0
3, 101910, Note_on_c, 0, 64, 45
3, 101922, Note_on_c, 0, 64, 0
3, 101940, Note_on_c, 0, 66, 45
3, 101952, Note_on_c, 0, 66, 0
3, 101970, Note_on_c, 0, 68, 45
3, 101982, Note_on_c, 0, 68, 0
3, 102000, Control_c, 0, 64, 0
3, 102000, Note_on_c, 0, 69, 45
3, 102012, Note_on_c, 0, 69, 0
3, 102030, Note_on_c, 0, 71, 45
3, 102042, Note_on_c, 0, 71, 0
3, 102060, Note_on_c, 0, 73, 45
3, 102072, Note_on_c, 0, 73, 0
3, 102090, Note_on_c, 0, 71, 45
3, 102102, Note_on_c, 0, 71, 0
3, 102120, Note_on_c, 0, 69, 45
3, 102132, Note_on_c, 0, 69, 0
3, 102150, Note_on_c, 0, 64, 45
3, 102162, Note_on_c, 0, 64, 0
3, 102180, Note_on_c, 0, 66, 45
3, 102192, Note_on_c, 0, 66, 0
3, 102210, Note_on_c, 0, 68, 45
3, 102222, Note_on_c, 0, 68, 0
3, 102240, Note_on_c, 0, 69, 45
3, 102252, Note_on_c, 0, 69, 0
3, 102270, Note_on_c, 0, 71, 45
3, 102282, Note_on_c, 0, 71, 0
3, 102300, Note_on_c, 0, 73, 45
3, 102312, Note_on_c, 0, 73, 0
3, 102330, Note_on_c, 0, 71, 45
3, 102342, Note_on_c, 0, 71, 0
3, 102360, Note_on_c, 0, 69, 45
3, 102372, Note_on_c, 0, 69, 0
3, 102390, Note_on_c, 0, 64, 45
3, 102402, Note_on_c, 0, 64, 0
3, 102420, Note_on_c, 0, 66, 45
3, 102432, Note_on_c, 0, 66, 0
3, 102450, Note_on_c, 0, 68, 45
3, 102462, Note_on_c, 0, 68, 0
3, 102480, Note_on_c, 0, 69, 45
3, 102492, Note_on_c, 0, 69, 0
3, 102510, Note_on_c, 0, 71, 45
3, 102522, Note_on_c, 0, 71, 0
3, 102540, Note_on_c, 0, 73, 45
3, 102552, Note_on_c, 0, 73, 0
3, 102570, Note_on_c, 0, 71, 45
3, 102582, Note_on_c, 0, 71, 0
3, 102600, Note_on_c, 0, 69, 45
3, 102612, Note_on_c, 0, 69, 0
3, 102630, Note_on_c, 0, 64, 45
3, 102642, Note_on_c, 0, 64, 0
3, 102660, Note_on_c, 0, 66, 45
3, 102672, Note_on_c, 0, 66, 0
3, 102690, Note_on_c, 0, 68, 45
3, 102702, Note_on_c, 0, 68, 0
3, 102720, Note_on_c, 0, 69, 45
3, 102732, Note_on_c, 0, 69, 0
3, 102750, Note_on_c, 0, 71, 45
3, 102762, Note_on_c, 0, 71, 0
3, 102780, Note_on_c, 0, 73, 45
3, 102792, Note_on_c, 0, 73, 0
3, 102810, Note_on_c, 0, 71, 45
3, 102822, Note_on_c, 0, 71, 0
3, 102840, Note_on_c, 0, 69, 45
3, 102852, Note_on_c, 0, 69, 0
3, 102870, Note_on_c, 0, 64, 45
3, 102882, Note_on_c, 0, 64, 0
3, 102900, Note_on_c, 0, 66, 45
3, 102912, Note_on_c, 0, 66, 0
3, 102930, Note_on_c, 0, 68, 45
3, 102942, Note_on_c, 0, 68, 0
3, 102960, Note_on_c, 0, 69, 45
3, 102972, Note_on_c, 0, 69, 0
3, 102990, Note_on_c, 0, 71, 45
3, 103002, Note_on_c, 0, 71, 0
3, 103020, Note_on_c, 0, 73, 45
3, 103032, Note_on_c, 0, 73, 0
3, 103050, Note_on_c, 0, 71, 45
3, 103062, Note_on_c, 0, 71, 0
3, 103080, Note_on_c, 0, 69, 78
3, 103092, Note_on_c, 0, 69, 0
3, 103110, Note_on_c, 0, 64, 78
3, 103122, Note_on_c, 0, 64, 0
3, 103140, Note_on_c, 0, 66, 78
3, 103152, Note_on_c, 0, 66, 0
3, 103170, Note_on_c, 0, 68, 78
3, 103182, Note_on_c, 0, 68, 0
3, 103200, Note_on_c, 0, 69, 78
3, 103212, Note_on_c, 0, 69, 0
3, 103230, Note_on_c, 0, 71, 78
3, 103242, Note_on_c, 0, 71, 0
3, 103260, Note_on_c, 0, 73, 78
3, 103272, Note_on_c, 0, 73, 0
3, 103290, Note_on_c, 0, 74, 78
3, 103302, Note_on_c, 0, 74, 0
3, 103320, Note_on_c, 0, 76, 78
3, 103332, Note_on_c, 0, 76, 0
3, 103350, Note_on_c, 0, 78, 78
3, 103362, Note_on_c, 0, 78, 0
3, 103380, Note_on_c, 0, 80, 78
3, 103392, Note_on_c, 0, 80, 0
3, 103410, Note_on_c, 0, 81, 78
3, 103422, Note_on_c, 0, 81, 0
3, 103440, Note_on_c, 0, 83, 78
3, 103452, Note_on_c, 0, 83, 0
3, 103470, Note_on_c, 0, 85, 78
3, 103482, Note_on_c, 0, 85, 0
3, 103500, Note_on_c, 0, 86, 78
3, 103512, Note_on_c, 0, 86, 0
3, 103530, Note_on_c, 0, 87, 78
3, 103542, Note_on_c, 0, 87, 0
3, 103560, Control_c, 0, 64, 127
3, 103560, Note_on_c, 0, 76, 95
3, 103560, Note_on_c, 0, 88, 95
3, 103770, Note_on_c, 0, 88, 0
3, 103770, Note_on_c, 0, 76, 0
3, 103800, Control_c, 0, 64, 0
3, 103800, Control_c, 0, 64, 127
3, 103800, Note_on_c, 0, 68, 85
3, 103800, Note_on_c, 0, 80, 85
3, 104010, Note_on_c, 0, 80, 0
3, 104010, Note_on_c, 0, 68, 0
3, 104040, Control_c, 0, 64, 0
3, 104040, Control_c, 0, 64, 127
3, 104040, Note_on_c, 0, 71, 85
3, 104040, Note_on_c, 0, 83, 85
3, 104250, Note_on_c, 0, 83, 0
3, 104250, Note_on_c, 0, 71, 0
3, 104280, Control_c, 0, 64, 0
3, 104280, Control_c, 0, 64, 127
3, 104280, Note_on_c, 0, 55, 85
3, 104280, Note_on_c, 0, 61, 85
3, 104280, Note_on_c, 0, 67, 85
3, 104490, Note_on_c, 0, 67, 0
3, 104490, Note_on_c, 0, 61, 0
3, 104490, Note_on_c, 0, 55, 0
3, 104520, Control_c, 0, 64, 0
3, 104520, Note_on_c, 0, 56, 78
3, 104520, Note_on_c, 0, 59, 78
3, 104520, Note_on_c, 0, 68, 78
3, 104550, Note_on_c, 0, 68, 0
3, 104550, Note_on_c, 0, 59, 0
3, 104550, Note_on_c, 0, 56, 0
3, 104580, Note_on_c, 0, 63, 45
3, 104580, Note_on_c, 0, 71, 45
3, 104595, Note_on_c, 0, 71, 0
3, 104595, Note_on_c, 0, 63, 0
3, 104640, Note_on_c, 0, 63, 45
3, 104640, Note_on_c, 0, 71, 45
3, 104655, Note_on_c, 0, 71, 0
3, 104655, Note_on_c, 0, 63, 0
3, 104700, Note_on_c, 0, 63, 45
3, 104700, Note_on_c, 0, 71, 45
3, 104715, Note_on_c, 0, 71, 0
3, 104715, Note_on_c, 0, 63, 0
3, 104760, Note_on_c, 0, 63, 45
3, 104760, Note_on_c, 0, 71, 45
3, 104775, Note_on_c, 0, 71, 0
3, 104775, Note_on_c, 0, 63, 0
3, 104820, Note_on_c, 0, 63, 45
3, 104820, Note_on_c, 0, 71, 45
3, 104850, Note_on_c, 0, 71, 0
3, 104850, Note_on_c, 0, 63, 0
3, 104880, Note_on_c, 0, 63, 45
3, 104880, Note_on_c, 0, 70, 45
3, 104910, Note_on_c, 0, 70, 0
3, 104910, Note_on_c, 0, 63, 0
3, 104940, Note_on_c, 0, 63, 45
3, 104940, Note_on_c, 0, 68, 45
3, 104970, Note_on_c, 0, 68, 0
3, 104970, Note_on_c, 0, 63, 0
3, 105000, Note_on_c, 0, 63, 45
3, 105000, Note_on_c, 0, 67, 45
3, 105030, Note_on_c, 0, 67, 0
3, 105030, Note_on_c, 0, 63, 0
3, 105060, Note_on_c, 0, 67, 63
3, 105060, Note_on_c, 0, 75, 63
3, 105075, Note_on_c, 0, 75, 0
3, 105075, Note_on_c, 0, 67, 0
3, 105120, Note_on_c, 0, 67, 45
3, 105120, Note_on_c, 0, 75, 45
3, 105135, Note_on_c, 0, 75, 0
3, 105135, Note_on_c, 0, 67, 0
3, 105180, Note_on_c, 0, 67, 45
3, 105180, Note_on_c, 0, 75, 45
3, 105195, Note_on_c, 0, 75, 0
3, 105195, Note_on_c, 0, 67, 0
3, 105240, Note_on_c, 0, 67, 45
3, 105240, Note_on_c, 0, 75, 45
3, 105255, Note_on_c, 0, 75, 0
3, 105255, Note_on_c, 0, 67, 0
3, 105300, Note_on_c, 0, 67, 45
3, 105300, Note_on_c, 0, 75, 45
3, 105330, Note_on_c, 0, 75, 0
3, 105330, Note_on_c, 0, 67, 0
3, 105360, Note_on_c, 0, 68, 45
3, 105360, Note_on_c, 0, 75, 45
3, 105390, Note_on_c, 0, 75, 0
3, 105390, Note_on_c, 0, 68, 0
3, 105420, Note_on_c, 0, 70, 45
3, 105420, Note_on_c, 0, 75, 45
3, 105450, Note_on_c, 0, 75, 0
3, 105450, Note_on_c, 0, 70, 0
3, 105480, Note_on_c, 0, 71, 45
3, 105480, Note_on_c, 0, 75, 45
3, 105510, Note_on_c, 0, 75, 0
3, 105510, Note_on_c, 0, 71, 0
3, 105540, Note_on_c, 0, 63, 45
3, 105540, Note_on_c, 0, 71, 45
3, 105555, Note_on_c, 0, 71, 0
3, 105555, Note_on_c, 0, 63, 0
3, 105600, Note_on_c, 0, 63, 45
3, 105600, Note_on_c, 0, 71, 45
3, 105615, Note_on_c, 0, 71, 0
3, 105615, Note_on_c, 0, 63, 0
3, 105660, Note_on_c, 0, 63, 45
3, 105660, Note_on_c, 0, 71, 45
3, 105675, Note_on_c, 0, 71, 0
3, 105675, Note_on_c, 0, 63, 0
3, 105720, Note_on_c, 0, 63, 45
3, 105720, Note_on_c, 0, 71, 45
3, 105735, Note_on_c, 0, 71, 0
3, 105735, Note_on_c, 0, 63, 0
3, 105780, Note_on_c, 0, 63, 45
3, 105780, Note_on_c, 0, 71, 45
3, 105810, Note_on_c, 0, 71, 0
3, 105810, Note_on_c, 0, 63, 0
3, 105840, Note_on_c, 0, 63, 45
3, 105840, Note_on_c, 0, 70, 45
3, 105870, Note_on_c, 0, 70, 0
3, 105870, Note_on_c, 0, 63, 0
3, 105900, Note_on_c, 0, 63, 45
3, 105900, Note_on_c, 0, 68, 45
3, 105930, Note_on_c, 0, 68, 0
3, 105930, Note_on_c, 0, 63, 0
3, 105960, Note_on_c, 0, 63, 45
3, 105960, Note_on_c, 0, 67, 45
3, 106005, Note_on_c, 0, 67, 0
3, 106005, Note_on_c, 0, 63, 0
3, 106020, Note_on_c, 0, 67, 45
3, 106020, Note_on_c, 0, 75, 45
3, 106035, Note_on_c, 0, 75, 0
3, 106035, Note_on_c, 0, 67, 0
3, 106080, Note_on_c, 0, 67, 45
3, 106080, Note_on_c, 0, 75, 45
3, 106095, Note_on_c, 0, 75, 0
3, 106095, Note_on_c, 0, 67, 0
3, 106140, Note_on_c, 0, 67, 45
3, 106140, Note_on_c, 0, 75, 45
3, 106155, Note_on_c, 0, 75, 0
3, 106155, Note_on_c, 0, 67, 0
3, 106200, Note_on_c, 0, 67, 45
3, 106200, Note_on_c, 0, 75, 45
3, 106215, Note_on_c, 0, 75, 0
3, 106215, Note_on_c, 0, 67, 0
3, 106260, Note_on_c, 0, 67, 45
3, 106260, Note_on_c, 0, 75, 45
3, 106290, Note_on_c, 0, 75, 0
3, 106290, Note_on_c, 0, 67, 0
3, 106320, Note_on_c, 0, 68, 45
3, 106320, Note_on_c, 0, 75, 45
3, 106350, Note_on_c, 0, 75, 0
3, 106350, Note_on_c, 0, 68, 0
3, 106380, Note_on_c, 0, 70, 45
3, 106380, Note_on_c, 0, 75, 45
3, 106410, Note_on_c, 0, 75, 0
3, 106410, Note_on_c, 0, 70, 0
3, 106440, Control_c, 0, 64, 127
3, 106440, Note_on_c, 0, 71, 45
3, 106440, Note_on_c, 0, 75, 45
3, 106455, Note_on_c, 0, 75, 0
3, 106455, Note_on_c, 0, 71, 0
3, 106500, Note_on_c, 0, 71, 45
3, 106500, Note_on_c, 0, 75, 45
3, 106515, Note_on_c, 0, 75, 0
3, 106515, Note_on_c, 0, 71, 0
3, 106560, Note_on_c, 0, 71, 45
3, 106560, Note_on_c, 0, 75, 45
3, 106620, Note_on_c, 0, 75, 0
3, 106620, Note_on_c, 0, 71, 0
3, 106620, Note_on_c, 0, 68, 35
3, 106620, Note_on_c, 0, 71, 35
3, 106665, Note_on_c, 0, 71, 0
3, 106665, Note_on_c, 0, 68, 0
3, 106680, Control_c, 0, 64, 0
3, 106680, Control_c, 0, 64, 127
3, 106740, Note_on_c, 0, 73, 45
3, 106740, Note_on_c, 0, 76, 45
3, 106755, Note_on_c, 0, 76, 0
3, 106755, Note_on_c, 0, 73, 0
3, 106800, Note_on_c, 0, 73, 45
3, 106800, Note_on_c, 0, 76, 45
3, 106860, Note_on_c, 0, 76, 0
3, 106860, Note_on_c, 0, 73, 0
3, 106860, Note_on_c, 0, 68, 35
3, 106860, Note_on_c, 0, 73, 35
3, 106905, Note_on_c, 0, 73, 0
3, 106905, Note_on_c, 0, 68, 0
3, 106920, Control_c, 0, 64, 0
3, 106980, Note_on_c, 0, 71, 45
3, 106980, Note_on_c, 0, 75, 45
3, 106995, Note_on_c, 0, 75, 0
3, 106995, Note_on_c, 0, 71, 0
3, 107040, Note_on_c, 0, 71, 45
3, 107040, Note_on_c, 0, 75, 45
3, 107100, Note_on_c, 0, 75, 0
3, 107100, Note_on_c, 0, 71, 0
3, 107100, Note_on_c, 0, 68, 35
3, 107100, Note_on_c, 0, 71, 35
3, 107145, Note_on_c, 0, 71, 0
3, 107145, Note_on_c, 0, 68, 0
3, 107220, Note_on_c, 0, 70, 45
3, 107220, Note_on_c, 0, 75, 45
3, 107235, Note_on_c, 0, 75, 0
3, 107235, Note_on_c, 0, 70, 0
3, 107280, Note_on_c, 0, 70, 45
3, 107280, Note_on_c, 0, 75, 45
3, 107340, Note_on_c, 0, 75, 0
3, 107340, Note_on_c, 0, 70, 0
3, 107340, Note_on_c, 0, 67, 35
3, 107340, Note_on_c, 0, 70, 35
3, 107385, Note_on_c, 0, 70, 0
3, 107385, Note_on_c, 0, 67, 0
3, 107400, Note_on_c, 0, 68, 45
3, 107400, Note_on_c, 0, 71, 45
3, 107415, Note_on_c, 0, 71, 0
3, 107415, Note_on_c, 0, 68, 0
3, 107460, Note_on_c, 0, 71, 45
3, 107460, Note_on_c, 0, 75, 45
3, 107460, Note_on_c, 0, 83, 45
3, 107475, Note_on_c, 0, 83, 0
3, 107475, Note_on_c, 0, 75, 0
3, 107475, Note_on_c, 0, 71, 0
3, 107520, Note_on_c, 0, 71, 50
3, 107520, Note_on_c, 0, 75, 50
3, 107520, Note_on_c, 0, 83, 50
3, 107535, Note_on_c, 0, 83, 0
3, 107535, Note_on_c, 0, 75, 0
3, 107535, Note_on_c, 0, 71, 0
3, 107580, Note_on_c, 0, 71, 55
3, 107580, Note_on_c, 0, 75, 55
3, 107580, Note_on_c, 0, 83, 55
3, 107595, Note_on_c, 0, 83, 0
3, 107595, Note_on_c, 0, 75, 0
3, 107595, Note_on_c, 0, 71, 0
3, 107640, Note_on_c, 0, 71, 60
3, 107640, Note_on_c, 0, 75, 60
3, 107640, Note_on_c, 0, 83, 60
3, 107655, Note_on_c, 0, 83, 0
3, 107655, Note_on_c, 0, 75, 0
3, 107655, Note_on_c, 0, 71, 0
3, 107700, Note_on_c, 0, 71, 65
3, 107700, Note_on_c, 0, 75, 65
3, 107700, Note_on_c, 0, 83, 65
3, 107715, Note_on_c, 0, 83, 0
3, 107715, Note_on_c, 0, 75, 0
3, 107715, Note_on_c, 0, 71, 0
3, 107760, Note_on_c, 0, 70, 70
3, 107760, Note_on_c, 0, 73, 70
3, 107760, Note_on_c, 0, 82, 70
3, 107775, Note_on_c, 0, 82, 0
3, 107775, Note_on_c, 0, 73, 0
3, 107775, Note_on_c, 0, 70, 0
3, 107820, Note_on_c, 0, 68, 74
3, 107820, Note_on_c, 0, 71, 74
3, 107820, Note_on_c, 0, 80, 74
3, 107835, Note_on_c, 0, 80, 0
3, 107835, Note_on_c, 0, 71, 0
3, 107835, Note_on_c, 0, 68, 0
3, 107880, Note_on_c, 0, 67, 78
3, 107880, Note_on_c, 0, 70, 78
3, 107880, Note_on_c, 0, 79, 78
3, 107925, Note_on_c, 0, 79, 0
3, 107925, Note_on_c, 0, 70, 0
3, 107925, Note_on_c, 0, 67, 0
3, 107940, Control_c, 0, 64, 127
3, 107940, Note_on_c, 0, 76, 85
3, 107940, Note_on_c, 0, 79, 85
3, 107940, Note_on_c, 0, 88, 85
3, 107970, Note_on_c, 0, 88, 0
3, 107970, Note_on_c, 0, 79, 0
3, 107970, Note_on_c, 0, 76, 0
3, 108000, Note_on_c, 0, 76, 78
3, 108000, Note_on_c, 0, 79, 78
3, 108000, Note_on_c, 0, 88, 78
3, 108015, Note_on_c, 0, 88, 0
3, 108015, Note_on_c, 0, 79, 0
3, 108015, Note_on_c, 0, 76, 0
3, 108060, Note_on_c, 0, 76, 78
3, 108060, Note_on_c, 0, 79, 78
3, 108060, Note_on_c, 0, 88, 78
3, 108075, Note_on_c, 0, 88, 0
3, 108075, Note_on_c, 0, 79, 0
3, 108075, Note_on_c, 0, 76, 0
3, 108120, Note_on_c, 0, 76, 78
3, 108120, Note_on_c, 0, 79, 78
3, 108120, Note_on_c, 0, 88, 78
3, 108135, Note_on_c, 0, 88, 0
3, 108135, Note_on_c, 0, 79, 0
3, 108135, Note_on_c, 0, 76, 0
3, 108180, Control_c, 0, 64, 0
3, 108180, Note_on_c, 0, 76, 78
3, 108180, Note_on_c, 0, 79, 78
3, 108180, Note_on_c, 0, 88, 78
3, 108195, Note_on_c, 0, 88, 0
3, 108195, Note_on_c, 0, 79, 0
3, 108195, Note_on_c, 0, 76, 0
3, 108240, Note_on_c, 0, 75, 78
3, 108240, Note_on_c, 0, 79, 78
3, 108240, Note_on_c, 0, 87, 78
3, 108255, Note_on_c, 0, 87, 0
3, 108255, Note_on_c, 0, 79, 0
3, 108255, Note_on_c, 0, 75, 0
3, 108300, Note_on_c, 0, 73, 78
3, 108300, Note_on_c, 0, 79, 78
3, 108300, Note_on_c, 0, 85, 78
3, 108315, Note_on_c, 0, 85, 0
3, 108315, Note_on_c, 0, 79, 0
3, 108315, Note_on_c, 0, 73, 0
3, 108360, Note_on_c, 0, 71, 78
3, 108360, Note_on_c, 0, 80, 78
3, 108360, Note_on_c, 0, 83, 78
3, 108375, Note_on_c, 0, 83, 0
3, 108375, Note_on_c, 0, 80, 0
3, 108375, Note_on_c, 0, 71, 0
3, 108420, Note_on_c, 0, 71, 45
3, 108420, Note_on_c, 0, 75, 45
3, 108420, Note_on_c, 0, 83, 45
3, 108435, Note_on_c, 0, 83, 0
3, 108435, Note_on_c, 0, 75, 0
3, 108435, Note_on_c, 0, 71, 0
3, 108480, Note_on_c, 0, 71, 50
3, 108480, Note_on_c, 0, 75, 50
3, 108480, Note_on_c, 0, 83, 50
3, 108495, Note_on_c, 0, 83, 0
3, 108495, Note_on_c, 0, 75, 0
3, 108495, Note_on_c, 0, 71, 0
3, 108540, Note_on_c, 0, 71, 55
3, 108540, Note_on_c, 0, 75, 55
3, 108540, Note_on_c, 0, 83, 55
3, 108555, Note_on_c, 0, 83, 0
3, 108555, Note_on_c, 0, 75, 0
3, 108555, Note_on_c, 0, 71, 0
3, 108600, Note_on_c, 0, 71, 60
3, 108600, Note_on_c, 0, 75, 60
3, 108600, Note_on_c, 0, 83, 60
3, 108615, Note_on_c, 0, 83, 0
3, 108615, Note_on_c, 0, 75, 0
3, 108615, Note_on_c, 0, 71, 0
3, 108660, Note_on_c, 0, 71, 65
3, 108660, Note_on_c, 0, 75, 65
3, 108660, Note_on_c, 0, 83, 65
3, 108675, Note_on_c, 0, 83, 0
3, 108675, Note_on_c, 0, 75, 0
3, 108675, Note_on_c, 0, 71, 0
3, 108720, Note_on_c, 0, 70, 70
3, 108720, Note_on_c, 0, 73, 70
3, 108720, Note_on_c, 0, 82, 70
3, 108735, Note_on_c, 0, 82, 0
3, 108735, Note_on_c, 0, 73, 0
3, 108735, Note_on_c, 0, 70, 0
3, 108780, Note_on_c, 0, 68, 74
3, 108780, Note_on_c, 0, 71, 74
3, 108780, Note_on_c, 0, 80, 74
3, 108795, Note_on_c, 0, 80, 0
3, 108795, Note_on_c, 0, 71, 0
3, 108795, Note_on_c, 0, 68, 0
3, 108840, Note_on_c, 0, 67, 78
3, 108840, Note_on_c, 0, 70, 78
3, 108840, Note_on_c, 0, 79, 78
3, 108885, Note_on_c, 0, 79, 0
3, 108885, Note_on_c, 0, 70, 0
3, 108885, Note_on_c, 0, 67, 0
3, 108900, Control_c, 0, 64, 127
3, 108900, Note_on_c, 0, 76, 85
3, 108900, Note_on_c, 0, 79, 85
3, 108900, Note_on_c, 0, 88, 85
3, 108915, Note_on_c, 0, 88, 0
3, 108915, Note_on_c, 0, 79, 0
3, 108915, Note_on_c, 0, 76, 0
3, 108960, Note_on_c, 0, 76, 78
3, 108960, Note_on_c, 0, 79, 78
3, 108960, Note_on_c, 0, 88, 78
3, 108975, Note_on_c, 0, 88, 0
3, 108975, Note_on_c, 0, 79, 0
3, 108975, Note_on_c, 0, 76, 0
3, 109020, Note_on_c, 0, 76, 78
3, 109020, Note_on_c, 0, 79, 78
3, 109020, Note_on_c, 0, 88, 78
3, 109035, Note_on_c, 0, 88, 0
3, 109035, Note_on_c, 0, 79, 0
3, 109035, Note_on_c, 0, 76, 0
3, 109080, Note_on_c, 0, 76, 78
3, 109080, Note_on_c, 0, 79, 78
3, 109080, Note_on_c, 0, 88, 78
3, 109095, Note_on_c, 0, 88, 0
3, 109095, Note_on_c, 0, 79, 0
3, 109095, Note_on_c, 0, 76, 0
3, 109140, Control_c, 0, 64, 0
3, 109140, Note_on_c, 0, 76, 78
3, 109140, Note_on_c, 0, 79, 78
3, 109140, Note_on_c, 0, 88, 78
3, 109155, Note_on_c, 0, 88, 0
3, 109155, Note_on_c, 0, 79, 0
3, 109155, Note_on_c, 0, 76, 0
3, 109200, Note_on_c, 0, 75, 78
3, 109200, Note_on_c, 0, 79, 78
3, 109200, Note_on_c, 0, 87, 78
3, 109215, Note_on_c, 0, 87, 0
3, 109215, Note_on_c, 0, 79, 0
3, 109215, Note_on_c, 0, 75, 0
3, 109260, Note_on_c, 0, 73, 78
3, 109260, Note_on_c, 0, 79, 78
3, 109260, Note_on_c, 0, 85, 78
3, 109275, Note_on_c, 0, 85, 0
3, 109275, Note_on_c, 0, 79, 0
3, 109275, Note_on_c, 0, 73, 0
3, 109320, Note_on_c, 0, 71, 78
3, 109320, Note_on_c, 0, 80, 78
3, 109320, Note_on_c, 0, 83, 78
3, 109335, Note_on_c, 0, 83, 0
3, 109335, Note_on_c, 0, 80, 0
3, 109335, Note_on_c, 0, 71, 0
3, 109380, Note_on_c, 0, 80, 45
3, 109380, Note_on_c, 0, 83, 45
3, 109395, Note_on_c, 0, 83, 0
3, 109395, Note_on_c, 0, 80, 0
3, 109440, Note_on_c, 0, 80, 45
3, 109440, Note_on_c, 0, 83, 45
3, 109500, Note_on_c, 0, 83, 0
3, 109500, Note_on_c, 0, 80, 0
3, 109500, Note_on_c, 0, 83, 35
3, 109500, Note_on_c, 0, 87, 35
3, 109530, Note_on_c, 0, 87, 0
3, 109530, Note_on_c, 0, 83, 0
3, 109620, Note_on_c, 0, 80, 45
3, 109620, Note_on_c, 0, 85, 45
3, 109635, Note_on_c, 0, 85, 0
3, 109635, Note_on_c, 0, 80, 0
3, 109680, Note_on_c, 0, 80, 45
3, 109680, Note_on_c, 0, 85, 45
3, 109740, Note_on_c, 0, 85, 0
3, 109740, Note_on_c, 0, 80, 0
3, 109740, Note_on_c, 0, 85, 35
3, 109740, Note_on_c, 0, 88, 35
3, 109770, Note_on_c, 0, 88, 0
3, 109770, Note_on_c, 0, 85, 0
3, 109860, Note_on_c, 0, 80, 45
3, 109860, Note_on_c, 0, 83, 45
3, 109875, Note_on_c, 0, 83, 0
3, 109875, Note_on_c, 0, 80, 0
3, 109920, Note_on_c, 0, 80, 45
3, 109920, Note_on_c, 0, 83, 45
3, 109980, Note_on_c, 0, 83, 0
3, 109980, Note_on_c, 0, 80, 0
3, 109980, Note_on_c, 0, 83, 35
3, 109980, Note_on_c, 0, 87, 35
3, 110010, Note_on_c, 0, 87, 0
3, 110010, Note_on_c, 0, 83, 0
3, 110100, Note_on_c, 0, 79, 45
3, 110100, Note_on_c, 0, 82, 45
3, 110115, Note_on_c, 0, 82, 0
3, 110115, Note_on_c, 0, 79, 0
3, 110160, Note_on_c, 0, 79, 45
3, 110160, Note_on_c, 0, 82, 45
3, 110220, Note_on_c, 0, 82, 0
3, 110220, Note_on_c, 0, 79, 0
3, 110220, Note_on_c, 0, 82, 35
3, 110220, Note_on_c, 0, 87, 35
3, 110250, Note_on_c, 0, 87, 0
3, 110250, Note_on_c, 0, 82, 0
3, 110340, Note_on_c, 0, 75, 45
3, 110340, Note_on_c, 0, 83, 45
3, 110355, Note_on_c, 0, 83, 0
3, 110355, Note_on_c, 0, 75, 0
3, 110400, Note_on_c, 0, 75, 45
3, 110400, Note_on_c, 0, 83, 45
3, 110460, Note_on_c, 0, 83, 0
3, 110460, Note_on_c, 0, 75, 0
3, 110460, Note_on_c, 0, 80, 35
3, 110460, Note_on_c, 0, 87, 35
3, 110490, Note_on_c, 0, 87, 0
3, 110490, Note_on_c, 0, 80, 0
3, 110580, Note_on_c, 0, 73, 45
3, 110580, Note_on_c, 0, 81, 45
3, 110595, Note_on_c, 0, 81, 0
3, 110595, Note_on_c, 0, 73, 0
3, 110640, Note_on_c, 0, 73, 45
3, 110640, Note_on_c, 0, 81, 45
3, 110700, Note_on_c, 0, 81, 0
3, 110700, Note_on_c, 0, 73, 0
3, 110700, Note_on_c, 0, 76, 35
3, 110700, Note_on_c, 0, 85, 35
3, 110730, Note_on_c, 0, 85, 0
3, 110730, Note_on_c, 0, 76, 0
3, 110820, Note_on_c, 0, 71, 45
3, 110820, Note_on_c, 0, 80, 45
3, 110835, Note_on_c, 0, 80, 0
3, 110835, Note_on_c, 0, 71, 0
3, 110880, Note_on_c, 0, 71, 45
3, 110880, Note_on_c, 0, 80, 45
3, 110940, Note_on_c, 0, 80, 0
3, 110940, Note_on_c, 0, 71, 0
3, 110940, Note_on_c, 0, 75, 35
3, 110940, Note_on_c, 0, 83, 35
3, 110970, Note_on_c, 0, 83, 0
3, 110970, Note_on_c, 0, 75, 0
3, 111060, Note_on_c, 0, 70, 45
3, 111060, Note_on_c, 0, 79, 45
3, 111075, Note_on_c, 0, 79, 0
3, 111075, Note_on_c, 0, 70, 0
3, 111120, Note_on_c, 0, 70, 45
3, 111120, Note_on_c, 0, 79, 45
3, 111180, Note_on_c, 0, 79, 0
3, 111180, Note_on_c, 0, 70, 0
3, 111180, Note_on_c, 0, 73, 40
3, 111180, Note_on_c, 0, 82, 40
3, 111240, Note_on_c, 0, 82, 0
3, 111240, Note_on_c, 0, 73, 0
3, 111240, Control_c, 0, 64, 127
3, 111240, Note_on_c, 0, 71, 35
3, 111240, Note_on_c, 0, 80, 35
3, 111359, Note_on_c, 0, 80, 0
3, 111359, Note_on_c, 0, 71, 0
3, 111600, Control_c, 0, 64, 0
3, 111600, Note_on_c, 0, 71, 45
3, 111688, Note_on_c, 0, 71, 0
3, 111690, Note_on_c, 0, 68, 35
3, 111720, Note_on_c, 0, 68, 0
3, 111720, Note_on_c, 0, 67, 45
3, 111810, Note_on_c, 0, 67, 0
3, 111840, Control_c, 0, 64, 127
3, 111840, Note_on_c, 0, 61, 45
3, 111840, Note_on_c, 0, 67, 45
3, 111840, Note_on_c, 0, 75, 45
3, 111900, Note_on_c, 0, 75, 0
3, 111900, Note_on_c, 0, 67, 0
3, 111900, Note_on_c, 0, 61, 0
3, 111960, Note_on_c, 0, 61, 45
3, 111960, Note_on_c, 0, 67, 45
3, 111960, Note_on_c, 0, 75, 45
3, 112020, Note_on_c, 0, 75, 0
3, 112020, Note_on_c, 0, 67, 0
3, 112020, Note_on_c, 0, 61, 0
3, 112080, Note_on_c, 0, 61, 45
3, 112080, Note_on_c, 0, 67, 45
3, 112080, Note_on_c, 0, 75, 45
3, 112125, Note_on_c, 0, 75, 0
3, 112125, Note_on_c, 0, 67, 0
3, 112125, Note_on_c, 0, 61, 0
3, 112200, Control_c, 0, 64, 0
3, 112200, Control_c, 0, 64, 127
3, 112200, Note_on_c, 0, 59, 45
3, 112215, Note_on_c, 0, 59, 0
3, 112215, Note_on_c, 0, 68, 45
3, 112230, Note_on_c, 0, 68, 0
3, 112230, Note_on_c, 0, 75, 45
3, 112560, Note_on_c, 0, 75, 0
3, 112560, Note_on_c, 0, 83, 45
3, 112650, Note_on_c, 0, 83, 0
3, 112650, Note_on_c, 0, 80, 45
3, 112680, Note_on_c, 0, 80, 0
3, 112680, Control_c, 0, 64, 0
3, 112680, Note_on_c, 0, 79, 45
3, 112770, Note_on_c, 0, 79, 0
3, 112800, Control_c, 0, 64, 127
3, 112800, Note_on_c, 0, 73, 45
3, 112800, Note_on_c, 0, 79, 45
3, 112800, Note_on_c, 0, 87, 45
3, 112845, Note_on_c, 0, 87, 0
3, 112845, Note_on_c, 0, 79, 0
3, 112845, Note_on_c, 0, 73, 0
3, 112920, Note_on_c, 0, 73, 45
3, 112920, Note_on_c, 0, 79, 45
3, 112920, Note_on_c, 0, 87, 45
3, 112965, Note_on_c, 0, 87, 0
3, 112965, Note_on_c, 0, 79, 0
3, 112965, Note_on_c, 0, 73, 0
3, 113040, Note_on_c, 0, 73, 45
3, 113040, Note_on_c, 0, 79, 45
3, 113040, Note_on_c, 0, 87, 45
3, 113085, Note_on_c, 0, 87, 0
3, 113085, Note_on_c, 0, 79, 0
3, 113085, Note_on_c, 0, 73, 0
3, 113160, Control_c, 0, 64, 0
3, 113160, Control_c, 0, 64, 127
3, 113160, Note_on_c, 0, 71, 45
3, 113175, Note_on_c, 0, 71, 0
3, 113175, Note_on_c, 0, 80, 45
3, 113190, Note_on_c, 0, 80, 0
3, 113190, Note_on_c, 0, 87, 45
3, 113400, Note_on_c, 0, 87, 0
3, 113400, Control_c, 0, 64, 0
3, 113400, Control_c, 0, 64, 127
3, 113400, Note_on_c, 0, 73, 45
3, 113415, Note_on_c, 0, 73, 0
3, 113415, Note_on_c, 0, 79, 45
3, 113430, Note_on_c, 0, 79, 0
3, 113430, Note_on_c, 0, 87, 45
3, 113640, Note_on_c, 0, 87, 0
3, 113640, Control_c, 0, 64, 0
3, 113640, Control_c, 0, 64, 127
3, 113640, Note_on_c, 0, 71, 45
3, 113655, Note_on_c, 0, 71, 0
3, 113655, Note_on_c, 0, 80, 45
3, 113670, Note_on_c, 0, 80, 0
3, 113670, Note_on_c, 0, 87, 45
3, 113880, Note_on_c, 0, 87, 0
3, 113880, Control_c, 0, 64, 0
3, 113880, Control_c, 0, 64, 127
3, 113880, Note_on_c, 0, 73, 45
3, 113895, Note_on_c, 0, 73, 0
3, 113895, Note_on_c, 0, 79, 45
3, 113910, Note_on_c, 0, 79, 0
3, 113910, Note_on_c, 0, 87, 45
3, 114120, Note_on_c, 0, 87, 0
3, 114120, Control_c, 0, 64, 0
3, 114120, Note_on_c, 0, 59, 45
3, 114135, Note_on_c, 0, 59, 0
3, 114150, Note_on_c, 0, 68, 45
3, 114165, Note_on_c, 0, 68, 0
3, 114180, Note_on_c, 0, 63, 45
3, 114195, Note_on_c, 0, 63, 0
3, 114210, Note_on_c, 0, 68, 45
3, 114225, Note_on_c, 0, 68, 0
3, 114240, Note_on_c, 0, 59, 45
3, 114255, Note_on_c, 0, 59, 0
3, 114270, Note_on_c, 0, 68, 45
3, 114285, Note_on_c, 0, 68, 0
3, 114300, Note_on_c, 0, 63, 45
3, 114315, Note_on_c, 0, 63, 0
3, 114330, Note_on_c, 0, 68, 45
3, 114345, Note_on_c, 0, 68, 0
3, 114360, Note_on_c, 0, 59, 45
3, 114375, Note_on_c, 0, 59, 0
3, 114390, Note_on_c, 0, 68, 45
3, 114405, Note_on_c, 0, 68, 0
3, 114420, Note_on_c, 0, 63, 45
3, 114435, Note_on_c, 0, 63, 0
3, 114450, Note_on_c, 0, 68, 45
3, 114465, Note_on_c, 0, 68, 0
3, 114480, Note_on_c, 0, 59, 45
3, 114495, Note_on_c, 0, 59, 0
3, 114510, Note_on_c, 0, 68, 45
3, 114525, Note_on_c, 0, 68, 0
3, 114540, Note_on_c, 0, 63, 45
3, 114555, Note_on_c, 0, 63, 0
3, 114570, Note_on_c, 0, 68, 45
3, 114585, Note_on_c, 0, 68, 0
3, 114600, Control_c, 0, 64, 127
3, 114600, Note_on_c, 0, 60, 45
3, 114615, Note_on_c, 0, 60, 0
3, 114630, Note_on_c, 0, 66, 45
3, 114645, Note_on_c, 0, 66, 0
3, 114660, Note_on_c, 0, 63, 45
3, 114675, Note_on_c, 0, 63, 0
3, 114690, Note_on_c, 0, 66, 45
3, 114705, Note_on_c, 0, 66, 0
3, 114720, Note_on_c, 0, 60, 45
3, 114735, Note_on_c, 0, 60, 0
3, 114750, Note_on_c, 0, 66, 45
3, 114765, Note_on_c, 0, 66, 0
3, 114780, Note_on_c, 0, 63, 45
3, 114795, Note_on_c, 0, 63, 0
3, 114810, Note_on_c, 0, 66, 45
3, 114825, Note_on_c, 0, 66, 0
3, 114840, Note_on_c, 0, 60, 45
3, 114855, Note_on_c, 0, 60, 0
3, 114870, Note_on_c, 0, 66, 45
3, 114885, Note_on_c, 0, 66, 0
3, 114900, Note_on_c, 0, 63, 45
3, 114915, Note_on_c, 0, 63, 0
3, 114930, Note_on_c, 0, 66, 45
3, 114945, Note_on_c, 0, 66, 0
3, 114960, Note_on_c, 0, 60, 45
3, 114975, Note_on_c, 0, 60, 0
3, 114990, Note_on_c, 0, 66, 45
3, 115005, Note_on_c, 0, 66, 0
3, 115020, Note_on_c, 0, 63, 45
3, 115035, Note_on_c, 0, 63, 0
3, 115050, Note_on_c, 0, 66, 45
3, 115065, Note_on_c, 0, 66, 0
3, 115080, Control_c, 0, 64, 0
3, 115080, Note_on_c, 0, 52, 85
3, 115080, Note_on_c, 0, 56, 85
3, 115080, Note_on_c, 0, 61, 85
3, 115080, Note_on_c, 0, 64, 85
3, 115087, Note_on_c, 0, 64, 0
3, 115087, Note_on_c, 0, 52, 0
3, 115087, Note_on_c, 0, 56, 0
3, 115087, Note_on_c, 0, 61, 0
3, 115110, Note_on_c, 0, 44, 45
3, 115125, Note_on_c, 0, 44, 0
3, 115140, Note_on_c, 0, 49, 45
3, 115155, Note_on_c, 0, 49, 0
3, 115170, Note_on_c, 0, 52, 45
3, 115185, Note_on_c, 0, 52, 0
3, 115200, Note_on_c, 0, 56, 45
3, 115215, Note_on_c, 0, 56, 0
3, 115230, Note_on_c, 0, 49, 45
3, 115245, Note_on_c, 0, 49, 0
3, 115260, Note_on_c, 0, 52, 45
3, 115275, Note_on_c, 0, 52, 0
3, 115290, Note_on_c, 0, 56, 45
3, 115305, Note_on_c, 0, 56, 0
3, 115320, Note_on_c, 0, 61, 45
3, 115335, Note_on_c, 0, 61, 0
3, 115350, Note_on_c, 0, 52, 45
3, 115365, Note_on_c, 0, 52, 0
3, 115380, Note_on_c, 0, 56, 45
3, 115395, Note_on_c, 0, 56, 0
3, 115410, Note_on_c, 0, 61, 45
3, 115425, Note_on_c, 0, 61, 0
3, 115440, Note_on_c, 0, 64, 45
3, 115455, Note_on_c, 0, 64, 0
3, 115470, Note_on_c, 0, 56, 45
3, 115485, Note_on_c, 0, 56, 0
3, 115500, Note_on_c, 0, 61, 45
3, 115515, Note_on_c, 0, 61, 0
3, 115530, Note_on_c, 0, 63, 45
3, 115545, Note_on_c, 0, 63, 0
3, 115560, Note_on_c, 0, 68, 45
3, 115575, Note_on_c, 0, 68, 0
3, 115590, Note_on_c, 0, 61, 45
3, 115605, Note_on_c, 0, 61, 0
3, 115620, Note_on_c, 0, 64, 45
3, 115635, Note_on_c, 0, 64, 0
3, 115650, Note_on_c, 0, 68, 45
3, 115665, Note_on_c, 0, 68, 0
3, 115680, Note_on_c, 0, 73, 45
3, 115695, Note_on_c, 0, 73, 0
3, 115710, Note_on_c, 0, 64, 45
3, 115725, Note_on_c, 0, 64, 0
3, 115740, Note_on_c, 0, 68, 45
3, 115755, Note_on_c, 0, 68, 0
3, 115770, Note_on_c, 0, 73, 45
3, 115785, Note_on_c, 0, 73, 0
3, 115800, Note_on_c, 0, 76, 45
3, 115815, Note_on_c, 0, 76, 0
3, 115830, Note_on_c, 0, 68, 45
3, 115860, Note_on_c, 0, 68, 0
3, 115860, Note_on_c, 0, 73, 45
3, 115890, Note_on_c, 0, 73, 0
3, 115890, Note_on_c, 0, 76, 45
3, 115920, Note_on_c, 0, 76, 0
3, 115920, Note_on_c, 0, 68, 80
3, 115920, Note_on_c, 0, 73, 80
3, 115920, Note_on_c, 0, 76, 80
3, 115920, Note_on_c, 0, 80, 80
3, 115927, Note_on_c, 0, 80, 0
3, 115927, Note_on_c, 0, 68, 0
3, 115927, Note_on_c, 0, 73, 0
3, 115927, Note_on_c, 0, 76, 0
3, 115980, Note_on_c, 0, 68, 60
3, 115980, Note_on_c, 0, 73, 60
3, 115980, Note_on_c, 0, 76, 60
3, 115980, Note_on_c, 0, 80, 60
3, 115988, Note_on_c, 0, 80, 0
3, 115988, Note_on_c, 0, 68, 0
3, 115988, Note_on_c, 0, 73, 0
3, 115988, Note_on_c, 0, 76, 0
3, 116070, Note_on_c, 0, 44, 45
3, 116085, Note_on_c, 0, 44, 0
3, 116100, Note_on_c, 0, 48, 45
3, 116115, Note_on_c, 0, 48, 0
3, 116130, Note_on_c, 0, 51, 45
3, 116145, Note_on_c, 0, 51, 0
3, 116160, Note_on_c, 0, 56, 45
3, 116175, Note_on_c, 0, 56, 0
3, 116190, Note_on_c, 0, 48, 45
3, 116205, Note_on_c, 0, 48, 0
3, 116220, Note_on_c, 0, 51, 45
3, 116235, Note_on_c, 0, 51, 0
3, 116250, Note_on_c, 0, 56, 45
3, 116265, Note_on_c, 0, 56, 0
3, 116280, Note_on_c, 0, 60, 45
3, 116295, Note_on_c, 0, 60, 0
3, 116310, Note_on_c, 0, 51, 45
3, 116325, Note_on_c, 0, 51, 0
3, 116340, Note_on_c, 0, 56, 45
3, 116355, Note_on_c, 0, 56, 0
3, 116370, Note_on_c, 0, 60, 45
3, 116385, Note_on_c, 0, 60, 0
3, 116400, Note_on_c, 0, 63, 45
3, 116415, Note_on_c, 0, 63, 0
3, 116430, Note_on_c, 0, 56, 45
3, 116445, Note_on_c, 0, 56, 0
3, 116460, Note_on_c, 0, 60, 45
3, 116475, Note_on_c, 0, 60, 0
3, 116490, Note_on_c, 0, 63, 45
3, 116505, Note_on_c, 0, 63, 0
3, 116520, Note_on_c, 0, 68, 45
3, 116535, Note_on_c, 0, 68, 0
3, 116550, Note_on_c, 0, 60, 45
3, 116565, Note_on_c, 0, 60, 0
3, 116580, Note_on_c, 0, 63, 45
3, 116595, Note_on_c, 0, 63, 0
3, 116610, Note_on_c, 0, 68, 45
3, 116625, Note_on_c, 0, 68, 0
3, 116640, Note_on_c, 0, 72, 45
3, 116655, Note_on_c, 0, 72, 0
3, 116670, Note_on_c, 0, 63, 45
3, 116685, Note_on_c, 0, 63, 0
3, 116700, Note_on_c, 0, 68, 45
3, 116715, Note_on_c, 0, 68, 0
3, 116730, Note_on_c, 0, 72, 45
3, 116745, Note_on_c, 0, 72, 0
3, 116760, Note_on_c, 0, 75, 45
3, 116775, Note_on_c, 0, 75, 0
3, 116790, Note_on_c, 0, 68, 45
3, 116820, Note_on_c, 0, 68, 0
3, 116820, Note_on_c, 0, 72, 45
3, 116850, Note_on_c, 0, 72, 0
3, 116850, Note_on_c, 0, 75, 45
3, 116865, Note_on_c, 0, 75, 0
3, 116880, Note_on_c, 0, 68, 80
3, 116880, Note_on_c, 0, 72, 80
3, 116880, Note_on_c, 0, 75, 80
3, 116880, Note_on_c, 0, 80, 80
3, 116887, Note_on_c, 0, 80, 0
3, 116887, Note_on_c, 0, 68, 0
3, 116887, Note_on_c, 0, 72, 0
3, 116887, Note_on_c, 0, 75, 0
3, 116940, Note_on_c, 0, 68, 60
3, 116940, Note_on_c, 0, 72, 60
3, 116940, Note_on_c, 0, 75, 60
3, 116940, Note_on_c, 0, 80, 60
3, 116950, Note_on_c, 0, 80, 0
3, 116950, Note_on_c, 0, 68, 0
3, 116950, Note_on_c, 0, 72, 0
3, 116950, Note_on_c, 0, 75, 0
3, 117030, Note_on_c, 0, 49, 45
3, 117045, Note_on_c, 0, 49, 0
3, 117060, Note_on_c, 0, 53, 45
3, 117075, Note_on_c, 0, 53, 0
3, 117090, Note_on_c, 0, 56, 45
3, 117105, Note_on_c, 0, 56, 0
3, 117120, Note_on_c, 0, 61, 45
3, 117135, Note_on_c, 0, 61, 0
3, 117150, Note_on_c, 0, 53, 45
3, 117165, Note_on_c, 0, 53, 0
3, 117180, Note_on_c, 0, 56, 45
3, 117195, Note_on_c, 0, 56, 0
3, 117210, Note_on_c, 0, 61, 45
3, 117225, Note_on_c, 0, 61, 0
3, 117240, Note_on_c, 0, 65, 45
3, 117255, Note_on_c, 0, 65, 0
3, 117270, Note_on_c, 0, 56, 45
3, 117285, Note_on_c, 0, 56, 0
3, 117300, Note_on_c, 0, 61, 45
3, 117315, Note_on_c, 0, 61, 0
3, 117330, Note_on_c, 0, 65, 45
3, 117345, Note_on_c, 0, 65, 0
3, 117360, Note_on_c, 0, 68, 45
3, 117375, Note_on_c, 0, 68, 0
3, 117390, Note_on_c, 0, 61, 45
3, 117405, Note_on_c, 0, 61, 0
3, 117420, Note_on_c, 0, 65, 45
3, 117435, Note_on_c, 0, 65, 0
3, 117450, Note_on_c, 0, 68, 45
3, 117465, Note_on_c, 0, 68, 0
3, 117480, Note_on_c, 0, 73, 45
3, 117495, Note_on_c, 0, 73, 0
3, 117510, Note_on_c, 0, 65, 45
3, 117525, Note_on_c, 0, 65, 0
3, 117540, Note_on_c, 0, 68, 45
3, 117555, Note_on_c, 0, 68, 0
3, 117570, Note_on_c, 0, 73, 45
3, 117585, Note_on_c, 0, 73, 0
3, 117600, Note_on_c, 0, 77, 45
3, 117615, Note_on_c, 0, 77, 0
3, 117630, Note_on_c, 0, 68, 45
3, 117645, Note_on_c, 0, 68, 0
3, 117660, Note_on_c, 0, 73, 45
3, 117675, Note_on_c, 0, 73, 0
3, 117690, Note_on_c, 0, 77, 45
3, 117705, Note_on_c, 0, 77, 0
3, 117720, Note_on_c, 0, 80, 45
3, 117735, Note_on_c, 0, 80, 0
3, 117750, Note_on_c, 0, 73, 45
3, 117765, Note_on_c, 0, 73, 0
3, 117780, Note_on_c, 0, 77, 45
3, 117795, Note_on_c, 0, 77, 0
3, 117810, Note_on_c, 0, 80, 45
3, 117825, Note_on_c, 0, 80, 0
3, 117840, Note_on_c, 0, 73, 80
3, 117840, Note_on_c, 0, 77, 80
3, 117840, Note_on_c, 0, 80, 80
3, 117840, Note_on_c, 0, 85, 80
3, 117847, Note_on_c, 0, 85, 0
3, 117847, Note_on_c, 0, 73, 0
3, 117847, Note_on_c, 0, 77, 0
3, 117847, Note_on_c, 0, 80, 0
3, 117900, Note_on_c, 0, 73, 60
3, 117900, Note_on_c, 0, 77, 60
3, 117900, Note_on_c, 0, 80, 60
3, 117900, Note_on_c, 0, 85, 60
3, 117908, Note_on_c, 0, 85, 0
3, 117908, Note_on_c, 0, 73, 0
3, 117908, Note_on_c, 0, 77, 0
3, 117908, Note_on_c, 0, 80, 0
3, 117990, Note_on_c, 0, 49, 45
3, 118005, Note_on_c, 0, 49, 0
3, 118020, Note_on_c, 0, 54, 45
3, 118035, Note_on_c, 0, 54, 0
3, 118050, Note_on_c, 0, 57, 45
3, 118080, Note_on_c, 0, 57, 0
3, 118080, Note_on_c, 0, 61, 45
3, 118087, Note_on_c, 0, 61, 0
3, 118110, Note_on_c, 0, 61, 45
3, 118125, Note_on_c, 0, 61, 0
3, 118140, Note_on_c, 0, 66, 45
3, 118155, Note_on_c, 0, 66, 0
3, 118170, Note_on_c, 0, 69, 45
3, 118200, Note_on_c, 0, 69, 0
3, 118200, Note_on_c, 0, 73, 45
3, 118215, Note_on_c, 0, 73, 0
3, 118245, Note_on_c, 0, 73, 45
3, 118260, Note_on_c, 0, 73, 0
3, 118260, Note_on_c, 0, 78, 45
3, 118275, Note_on_c, 0, 78, 0
3, 118290, Note_on_c, 0, 81, 45
3, 118297, Note_on_c, 0, 81, 0
3, 118320, Note_on_c, 0, 73, 80
3, 118320, Note_on_c, 0, 78, 80
3, 118320, Note_on_c, 0, 85, 80
3, 118327, Note_on_c, 0, 85, 0
3, 118327, Note_on_c, 0, 78, 0
3, 118327, Note_on_c, 0, 73, 0
3, 118380, Note_on_c, 0, 73, 60
3, 118380, Note_on_c, 0, 78, 60
3, 118380, Note_on_c, 0, 85, 60
3, 118388, Note_on_c, 0, 85, 0
3, 118388, Note_on_c, 0, 78, 0
3, 118388, Note_on_c, 0, 73, 0
3, 118470, Note_on_c, 0, 49, 45
3, 118485, Note_on_c, 0, 49, 0
3, 118500, Note_on_c, 0, 51, 45
3, 118515, Note_on_c, 0, 51, 0
3, 118530, Note_on_c, 0, 55, 45
3, 118545, Note_on_c, 0, 55, 0
3, 118560, Note_on_c, 0, 61, 45
3, 118567, Note_on_c, 0, 61, 0
3, 118590, Note_on_c, 0, 61, 45
3, 118605, Note_on_c, 0, 61, 0
3, 118620, Note_on_c, 0, 64, 45
3, 118635, Note_on_c, 0, 64, 0
3, 118650, Note_on_c, 0, 67, 45
3, 118680, Note_on_c, 0, 67, 0
3, 118680, Note_on_c, 0, 73, 45
3, 118687, Note_on_c, 0, 73, 0
3, 118710, Note_on_c, 0, 73, 45
3, 118725, Note_on_c, 0, 73, 0
3, 118740, Note_on_c, 0, 76, 45
3, 118755, Note_on_c, 0, 76, 0
3, 118770, Note_on_c, 0, 79, 45
3, 118785, Note_on_c, 0, 79, 0
3, 118800, Note_on_c, 0, 73, 80
3, 118800, Note_on_c, 0, 79, 80
3, 118800, Note_on_c, 0, 85, 80
3, 118807, Note_on_c, 0, 85, 0
3, 118807, Note_on_c, 0, 79, 0
3, 118807, Note_on_c, 0, 73, 0
3, 118860, Note_on_c, 0, 73, 80
3, 118860, Note_on_c, 0, 79, 80
3, 118860, Note_on_c, 0, 85, 80
3, 118868, Note_on_c, 0, 85, 0
3, 118868, Note_on_c, 0, 79, 0
3, 118868, Note_on_c, 0, 73, 0
3, 118920, Control_c, 0, 64, 127
3, 118920, Note_on_c, 0, 72, 85
3, 118920, Note_on_c, 0, 80, 85
3, 118920, Note_on_c, 0, 84, 85
3, 118927, Note_on_c, 0, 84, 0
3, 118927, Note_on_c, 0, 80, 0
3, 118927, Note_on_c, 0, 72, 0
3, 118980, Control_c, 0, 64, 0
3, 118980, Note_on_c, 0, 68, 70
3, 118995, Note_on_c, 0, 68, 0
3, 119010, Note_on_c, 0, 80, 65
3, 119025, Note_on_c, 0, 80, 0
3, 119040, Note_on_c, 0, 68, 60
3, 119055, Note_on_c, 0, 68, 0
3, 119070, Note_on_c, 0, 80, 55
3, 119085, Note_on_c, 0, 80, 0
3, 119100, Note_on_c, 0, 70, 50
3, 119115, Note_on_c, 0, 70, 0
3, 119130, Note_on_c, 0, 80, 45
3, 119145, Note_on_c, 0, 80, 0
3, 119160, Note_on_c, 0, 72, 47
3, 119175, Note_on_c, 0, 72, 0
3, 119190, Note_on_c, 0, 80, 49
3, 119205, Note_on_c, 0, 80, 0
3, 119220, Note_on_c, 0, 73, 51
3, 119235, Note_on_c, 0, 73, 0
3, 119250, Note_on_c, 0, 80, 53
3, 119265, Note_on_c, 0, 80, 0
3, 119280, Note_on_c, 0, 75, 55
3, 119295, Note_on_c, 0, 75, 0
3, 119310, Note_on_c, 0, 80, 57
3, 119325, Note_on_c, 0, 80, 0
3, 119340, Note_on_c, 0, 72, 59
3, 119355, Note_on_c, 0, 72, 0
3, 119370, Note_on_c, 0, 80, 61
3, 119385, Note_on_c, 0, 80, 0
3, 119400, Note_on_c, 0, 75, 63
3, 119415, Note_on_c, 0, 75, 0
3, 119430, Note_on_c, 0, 80, 65
3, 119445, Note_on_c, 0, 80, 0
3, 119460, Note_on_c, 0, 73, 67
3, 119475, Note_on_c, 0, 73, 0
3, 119490, Note_on_c, 0, 80, 69
3, 119505, Note_on_c, 0, 80, 0
3, 119520, Note_on_c, 0, 78, 71
3, 119535, Note_on_c, 0, 78, 0
3, 119550, Note_on_c, 0, 80, 75
3, 119565, Note_on_c, 0, 80, 0
3, 119580, Note_on_c, 0, 76, 75
3, 119595, Note_on_c, 0, 76, 0
3, 119610, Note_on_c, 0, 80, 75
3, 119625, Note_on_c, 0, 80, 0
3, 119640, Note_on_c, 0, 75, 75
3, 119655, Note_on_c, 0, 75, 0
3, 119670, Note_on_c, 0, 80, 75
3, 119685, Note_on_c, 0, 80, 0
3, 119700, Note_on_c, 0, 73, 75
3, 119715, Note_on_c, 0, 73, 0
3, 119730, Note_on_c, 0, 80, 75
3, 119745, Note_on_c, 0, 80, 0
3, 119760, Note_on_c, 0, 72, 72
3, 119775, Note_on_c, 0, 72, 0
3, 119790, Note_on_c, 0, 80, 69
3, 119805, Note_on_c, 0, 80, 0
3, 119820, Note_on_c, 0, 69, 66
3, 119835, Note_on_c, 0, 69, 0
3, 119850, Note_on_c, 0, 79, 63
3, 119865, Note_on_c, 0, 79, 0
3, 119880, Note_on_c, 0, 68, 60
3, 119895, Note_on_c, 0, 68, 0
3, 119910, Note_on_c, 0, 80, 57
3, 119925, Note_on_c, 0, 80, 0
3, 119940, Note_on_c, 0, 68, 54
3, 119955, Note_on_c, 0, 68, 0
3, 119970, Note_on_c, 0, 80, 54
3, 119985, Note_on_c, 0, 80, 0
3, 120000, Note_on_c, 0, 68, 54
3, 120015, Note_on_c, 0, 68, 0
3, 120030, Note_on_c, 0, 80, 54
3, 120045, Note_on_c, 0, 80, 0
3, 120060, Note_on_c, 0, 70, 54
3, 120075, Note_on_c, 0, 70, 0
3, 120090, Note_on_c, 0, 80, 54
3, 120105, Note_on_c, 0, 80, 0
3, 120120, Note_on_c, 0, 72, 56
3, 120135, Note_on_c, 0, 72, 0
3, 120150, Note_on_c, 0, 80, 58
3, 120165, Note_on_c, 0, 80, 0
3, 120180, Note_on_c, 0, 73, 60
3, 120195, Note_on_c, 0, 73, 0
3, 120210, Note_on_c, 0, 80, 62
3, 120225, Note_on_c, 0, 80, 0
3, 120240, Note_on_c, 0, 75, 64
3, 120255, Note_on_c, 0, 75, 0
3, 120270, Note_on_c, 0, 80, 66
3, 120285, Note_on_c, 0, 80, 0
3, 120300, Note_on_c, 0, 72, 68
3, 120315, Note_on_c, 0, 72, 0
3, 120330, Note_on_c, 0, 80, 70
3, 120345, Note_on_c, 0, 80, 0
3, 120360, Note_on_c, 0, 75, 72
3, 120375, Note_on_c, 0, 75, 0
3, 120390, Note_on_c, 0, 80, 74
3, 120405, Note_on_c, 0, 80, 0
3, 120420, Note_on_c, 0, 73, 76
3, 120435, Note_on_c, 0, 73, 0
3, 120450, Note_on_c, 0, 80, 75
3, 120465, Note_on_c, 0, 80, 0
3, 120480, Note_on_c, 0, 78, 75
3, 120495, Note_on_c, 0, 78, 0
3, 120510, Note_on_c, 0, 80, 75
3, 120525, Note_on_c, 0, 80, 0
3, 120540, Note_on_c, 0, 76, 75
3, 120555, Note_on_c, 0, 76, 0
3, 120570, Note_on_c, 0, 80, 75
3, 120585, Note_on_c, 0, 80, 0
3, 120600, Note_on_c, 0, 75, 74
3, 120615, Note_on_c, 0, 75, 0
3, 120630, Note_on_c, 0, 80, 70
3, 120645, Note_on_c, 0, 80, 0
3, 120660, Note_on_c, 0, 73, 66
3, 120675, Note_on_c, 0, 73, 0
3, 120690, Note_on_c, 0, 80, 62
3, 120705, Note_on_c, 0, 80, 0
3, 120720, Note_on_c, 0, 72, 58
3, 120735, Note_on_c, 0, 72, 0
3, 120750, Note_on_c, 0, 80, 54
3, 120765, Note_on_c, 0, 80, 0
3, 120780, Note_on_c, 0, 69, 50
3, 120795, Note_on_c, 0, 69, 0
3, 120810, Note_on_c, 0, 79, 46
3, 120825, Note_on_c, 0, 79, 0
3, 120840, Note_on_c, 0, 68, 47
3, 120855, Note_on_c, 0, 68, 0
3, 120870, Note_on_c, 0, 80, 48
3, 120885, Note_on_c, 0, 80, 0
3, 120900, Note_on_c, 0, 69, 49
3, 120915, Note_on_c, 0, 69, 0
3, 120930, Note_on_c, 0, 79, 50
3, 120945, Note_on_c, 0, 79, 0
3, 120960, Note_on_c, 0, 68, 53
3, 120975, Note_on_c, 0, 68, 0
3, 120990, Note_on_c, 0, 80, 56
3, 121005, Note_on_c, 0, 80, 0
3, 121020, Note_on_c, 0, 69, 59
3, 121035, Note_on_c, 0, 69, 0
3, 121050, Note_on_c, 0, 79, 62
3, 121065, Note_on_c, 0, 79, 0
3, 121080, Note_on_c, 0, 68, 65
3, 121095, Note_on_c, 0, 68, 0
3, 121110, Note_on_c, 0, 80, 68
3, 121125, Note_on_c, 0, 80, 0
3, 121140, Note_on_c, 0, 69, 71
3, 121155, Note_on_c, 0, 69, 0
3, 121170, Note_on_c, 0, 79, 74
3, 121185, Note_on_c, 0, 79, 0
3, 121200, Note_on_c, 0, 68, 77
3, 121215, Note_on_c, 0, 68, 0
3, 121230, Note_on_c, 0, 80, 80
3, 121245, Note_on_c, 0, 80, 0
3, 121260, Note_on_c, 0, 69, 82
3, 121275, Note_on_c, 0, 69, 0
3, 121290, Note_on_c, 0, 79, 84
3, 121305, Note_on_c, 0, 79, 0
3, 121320, Note_on_c, 0, 68, 85
3, 121320, Note_on_c, 0, 80, 85
3, 121425, Note_on_c, 0, 80, 0
3, 121425, Note_on_c, 0, 68, 0
3, 121440, Note_on_c, 0, 56, 85
3, 121785, Note_on_c, 0, 56, 0
3, 121830, Note_on_c, 0, 44, 45
3, 121845, Note_on_c, 0, 44, 0
3, 121860, Note_on_c, 0, 49, 45
3, 121875, Note_on_c, 0, 49, 0
3, 121890, Note_on_c, 0, 52, 45
3, 121905, Note_on_c, 0, 52, 0
3, 121920, Note_on_c, 0, 56, 45
3, 121935, Note_on_c, 0, 56, 0
3, 121950, Note_on_c, 0, 49, 45
3, 121965, Note_on_c, 0, 49, 0
3, 121980, Note_on_c, 0, 52, 45
3, 121995, Note_on_c, 0, 52, 0
3, 122010, Note_on_c, 0, 56, 45
3, 122025, Note_on_c, 0, 56, 0
3, 122040, Note_on_c, 0, 61, 45
3, 122055, Note_on_c, 0, 61, 0
3, 122070, Note_on_c, 0, 52, 45
3, 122085, Note_on_c, 0, 52, 0
3, 122100, Note_on_c, 0, 56, 45
3, 122115, Note_on_c, 0, 56, 0
3, 122130, Note_on_c, 0, 61, 45
3, 122145, Note_on_c, 0, 61, 0
3, 122160, Note_on_c, 0, 64, 45
3, 122175, Note_on_c, 0, 64, 0
3, 122190, Note_on_c, 0, 56, 45
3, 122205, Note_on_c, 0, 56, 0
3, 122220, Note_on_c, 0, 61, 45
3, 122235, Note_on_c, 0, 61, 0
3, 122250, Note_on_c, 0, 64, 45
3, 122265, Note_on_c, 0, 64, 0
3, 122280, Note_on_c, 0, 68, 45
3, 122295, Note_on_c, 0, 68, 0
3, 122310, Note_on_c, 0, 61, 45
3, 122325, Note_on_c, 0, 61, 0
3, 122340, Note_on_c, 0, 64, 45
3, 122355, Note_on_c, 0, 64, 0
3, 122370, Note_on_c, 0, 68, 45
3, 122385, Note_on_c, 0, 68, 0
3, 122400, Note_on_c, 0, 73, 45
3, 122415, Note_on_c, 0, 73, 0
3, 122430, Note_on_c, 0, 64, 45
3, 122445, Note_on_c, 0, 64, 0
3, 122460, Note_on_c, 0, 68, 45
3, 122475, Note_on_c, 0, 68, 0
3, 122490, Note_on_c, 0, 73, 45
3, 122505, Note_on_c, 0, 73, 0
3, 122520, Note_on_c, 0, 76, 45
3, 122540, Note_on_c, 0, 76, 0
3, 122550, Note_on_c, 0, 76, 45
3, 122580, Note_on_c, 0, 76, 0
3, 122580, Note_on_c, 0, 80, 45
3, 122610, Note_on_c, 0, 80, 0
3, 122610, Note_on_c, 0, 85, 45
3, 122625, Note_on_c, 0, 85, 0
3, 122640, Note_on_c, 0, 76, 80
3, 122640, Note_on_c, 0, 88, 80
3, 122647, Note_on_c, 0, 88, 0
3, 122647, Note_on_c, 0, 76, 0
3, 122700, Note_on_c, 0, 76, 60
3, 122700, Note_on_c, 0, 88, 60
3, 122708, Note_on_c, 0, 88, 0
3, 122708, Note_on_c, 0, 76, 0
3, 122790, Note_on_c, 0, 52, 45
3, 122805, Note_on_c, 0, 52, 0
3, 122820, Note_on_c, 0, 55, 45
3, 122835, Note_on_c, 0, 55, 0
3, 122850, Note_on_c, 0, 61, 45
3, 122865, Note_on_c, 0, 61, 0
3, 122880, Note_on_c, 0, 64, 45
3, 122895, Note_on_c, 0, 64, 0
3, 122910, Note_on_c, 0, 54, 45
3, 122925, Note_on_c, 0, 54, 0
3, 122940, Note_on_c, 0, 61, 45
3, 122955, Note_on_c, 0, 61, 0
3, 122970, Note_on_c, 0, 64, 45
3, 122985, Note_on_c, 0, 64, 0
3, 123000, Note_on_c, 0, 67, 45
3, 123015, Note_on_c, 0, 67, 0
3, 123030, Note_on_c, 0, 61, 45
3, 123045, Note_on_c, 0, 61, 0
3, 123060, Note_on_c, 0, 64, 45
3, 123075, Note_on_c, 0, 64, 0
3, 123090, Note_on_c, 0, 67, 45
3, 123105, Note_on_c, 0, 67, 0
3, 123120, Note_on_c, 0, 73, 45
3, 123135, Note_on_c, 0, 73, 0
3, 123150, Note_on_c, 0, 64, 45
3, 123165, Note_on_c, 0, 64, 0
3, 123180, Note_on_c, 0, 67, 45
3, 123195, Note_on_c, 0, 67, 0
3, 123210, Note_on_c, 0, 73, 45
3, 123225, Note_on_c, 0, 73, 0
3, 123240, Note_on_c, 0, 76, 45
3, 123255, Note_on_c, 0, 76, 0
3, 123270, Note_on_c, 0, 67, 45
3, 123298, Note_on_c, 0, 67, 0
3, 123300, Note_on_c, 0, 73, 45
3, 123328, Note_on_c, 0, 73, 0
3, 123330, Note_on_c, 0, 76, 45
3, 123345, Note_on_c, 0, 76, 0
3, 123360, Note_on_c, 0, 79, 45
3, 123375, Note_on_c, 0, 79, 0
3, 123390, Note_on_c, 0, 73, 45
3, 123420, Note_on_c, 0, 73, 0
3, 123420, Note_on_c, 0, 76, 45
3, 123450, Note_on_c, 0, 76, 0
3, 123450, Note_on_c, 0, 79, 45
3, 123480, Note_on_c, 0, 79, 0
3, 123480, Note_on_c, 0, 85, 45
3, 123500, Note_on_c, 0, 85, 0
3, 123510, Note_on_c, 0, 76, 45
3, 123540, Note_on_c, 0, 76, 0
3, 123540, Note_on_c, 0, 79, 45
3, 123570, Note_on_c, 0, 79, 0
3, 123570, Note_on_c, 0, 85, 45
3, 123599, Note_on_c, 0, 85, 0
3, 123600, Note_on_c, 0, 76, 80
3, 123600, Note_on_c, 0, 88, 80
3, 123607, Note_on_c, 0, 88, 0
3, 123607, Note_on_c, 0, 76, 0
3, 123660, Note_on_c, 0, 76, 60
3, 123660, Note_on_c, 0, 88, 60
3, 123668, Note_on_c, 0, 88, 0
3, 123668, Note_on_c, 0, 76, 0
3, 123720, Control_c, 0, 64, 127
3, 123750, Note_on_c, 0, 51, 45
3, 123780, Note_on_c, 0, 51, 0
3, 123780, Note_on_c, 0, 58, 45
3, 123810, Note_on_c, 0, 58, 0
3, 123810, Note_on_c, 0, 61, 45
3, 123840, Note_on_c, 0, 61, 0
3, 123840, Note_on_c, 0, 63, 45
3, 123870, Note_on_c, 0, 63, 0
3, 123870, Note_on_c, 0, 58, 45
3, 123900, Note_on_c, 0, 58, 0
3, 123900, Note_on_c, 0, 61, 45
3, 123930, Note_on_c, 0, 61, 0
3, 123930, Note_on_c, 0, 63, 45
3, 123959, Note_on_c, 0, 63, 0
3, 123960, Note_on_c, 0, 70, 45
3, 123990, Note_on_c, 0, 70, 0
3, 123990, Note_on_c, 0, 61, 45
3, 124020, Note_on_c, 0, 61, 0
3, 124020, Note_on_c, 0, 63, 45
3, 124050, Note_on_c, 0, 63, 0
3, 124050, Note_on_c, 0, 70, 45
3, 124080, Note_on_c, 0, 70, 0
3, 124080, Note_on_c, 0, 73, 45
3, 124110, Note_on_c, 0, 73, 0
3, 124110, Note_on_c, 0, 63, 45
3, 124140, Note_on_c, 0, 63, 0
3, 124140, Note_on_c, 0, 70, 45
3, 124170, Note_on_c, 0, 70, 0
3, 124170, Note_on_c, 0, 73, 45
3, 124199, Note_on_c, 0, 73, 0
3, 124200, Note_on_c, 0, 75, 45
3, 124230, Note_on_c, 0, 75, 0
3, 124230, Note_on_c, 0, 70, 45
3, 124260, Note_on_c, 0, 70, 0
3, 124260, Note_on_c, 0, 73, 45
3, 124290, Note_on_c, 0, 73, 0
3, 124290, Note_on_c, 0, 75, 45
3, 124320, Note_on_c, 0, 75, 0
3, 124320, Note_on_c, 0, 82, 45
3, 124350, Note_on_c, 0, 82, 0
3, 124350, Note_on_c, 0, 73, 45
3, 124380, Note_on_c, 0, 73, 0
3, 124380, Note_on_c, 0, 75, 45
3, 124410, Note_on_c, 0, 75, 0
3, 124410, Note_on_c, 0, 82, 45
3, 124440, Note_on_c, 0, 82, 0
3, 124440, Note_on_c, 0, 85, 63
3, 124470, Note_on_c, 0, 85, 0
3, 124470, Note_on_c, 0, 82, 61
3, 124500, Note_on_c, 0, 82, 0
3, 124500, Note_on_c, 0, 75, 59
3, 124530, Note_on_c, 0, 75, 0
3, 124530, Note_on_c, 0, 73, 57
3, 124559, Note_on_c, 0, 73, 0
3, 124560, Control_c, 0, 64, 0
3, 124560, Note_on_c, 0, 82, 55
3, 124590, Note_on_c, 0, 82, 0
3, 124590, Note_on_c, 0, 75, 51
3, 124620, Note_on_c, 0, 75, 0
3, 124620, Note_on_c, 0, 73, 49
3, 124650, Note_on_c, 0, 73, 0
3, 124650, Note_on_c, 0, 70, 47
3, 124680, Note_on_c, 0, 70, 0
3, 124680, Note_on_c, 0, 71, 45
3, 124710, Note_on_c, 0, 71, 0
3, 124800, Note_on_c, 0, 75, 60
3, 125040, Note_on_c, 0, 75, 0
3, 125040, Note_on_c, 0, 71, 45
3, 125130, Note_on_c, 0, 71, 0
3, 125130, Note_on_c, 0, 68, 45
3, 125160, Note_on_c, 0, 68, 0
3, 125160, Note_on_c, 0, 67, 45
3, 125168, Note_on_c, 0, 67, 0
3, 125170, Note_on_c, 0, 68, 45
3, 125178, Note_on_c, 0, 68, 0
3, 125180, Note_on_c, 0, 70, 45
3, 125188, Note_on_c, 0, 70, 0
3, 125190, Note_on_c, 0, 68, 60
3, 125280, Note_on_c, 0, 68, 0
3, 125280, Note_on_c, 0, 67, 45
3, 125458, Note_on_c, 0, 67, 0
3, 125460, Note_on_c, 0, 67, 45
3, 125519, Note_on_c, 0, 67, 0
3, 125520, Note_on_c, 0, 75, 60
3, 125608, Note_on_c, 0, 75, 0
3, 125610, Note_on_c, 0, 67, 45
3, 125639, Note_on_c, 0, 67, 0
3, 125640, Note_on_c, 0, 70, 45
3, 125760, Note_on_c, 0, 70, 0
3, 125760, Note_on_c, 0, 68, 45
3, 125938, Note_on_c, 0, 68, 0
3, 125940, Note_on_c, 0, 68, 45
3, 126000, Note_on_c, 0, 68, 0
3, 126000, Note_on_c, 0, 75, 60
3, 126090, Note_on_c, 0, 75, 0
3, 126090, Note_on_c, 0, 68, 45
3, 126119, Note_on_c, 0, 68, 0
3, 126120, Note_on_c, 0, 71, 45
3, 126240, Note_on_c, 0, 71, 0
3, 126240, Note_on_c, 0, 70, 45
3, 126418, Note_on_c, 0, 70, 0
3, 126420, Note_on_c, 0, 70, 45
3, 126480, Note_on_c, 0, 70, 0
3, 126480, Note_on_c, 0, 75, 60
3, 126570, Note_on_c, 0, 75, 0
3, 126570, Note_on_c, 0, 70, 45
3, 126599, Note_on_c, 0, 70, 0
3, 126600, Control_c, 0, 64, 127
3, 126600, Note_on_c, 0, 71, 45
3, 126658, Note_on_c, 0, 71, 0
3, 126660, Note_on_c, 0, 75, 45
3, 126660, Note_on_c, 0, 87, 45
3, 126778, Note_on_c, 0, 87, 0
3, 126778, Note_on_c, 0, 75, 0
3, 126780, Note_on_c, 0, 75, 47
3, 126780, Note_on_c, 0, 87, 47
3, 126898, Note_on_c, 0, 87, 0
3, 126898, Note_on_c, 0, 75, 0
3, 126900, Note_on_c, 0, 75, 49
3, 126900, Note_on_c, 0, 87, 49
3, 126920, Note_on_c, 0, 87, 0
3, 126920, Note_on_c, 0, 75, 0
3, 126960, Note_on_c, 0, 71, 51
3, 126960, Note_on_c, 0, 83, 51
3, 126980, Note_on_c, 0, 83, 0
3, 126980, Note_on_c, 0, 71, 0
3, 127020, Note_on_c, 0, 68, 53
3, 127020, Note_on_c, 0, 80, 53
3, 127040, Note_on_c, 0, 80, 0
3, 127040, Note_on_c, 0, 68, 0
3, 127080, Control_c, 0, 64, 0
3, 127080, Note_on_c, 0, 68, 55
3, 127080, Note_on_c, 0, 80, 55
3, 127100, Note_on_c, 0, 80, 0
3, 127100, Note_on_c, 0, 68, 0
3, 127140, Note_on_c, 0, 67, 57
3, 127140, Note_on_c, 0, 79, 57
3, 127258, Note_on_c, 0, 79, 0
3, 127258, Note_on_c, 0, 67, 0
3, 127260, Control_c, 0, 64, 127
3, 127260, Note_on_c, 0, 67, 59
3, 127260, Note_on_c, 0, 79, 59
3, 127378, Note_on_c, 0, 79, 0
3, 127378, Note_on_c, 0, 67, 0
3, 127380, Note_on_c, 0, 67, 61
3, 127380, Note_on_c, 0, 79, 61
3, 127400, Note_on_c, 0, 79, 0
3, 127400, Note_on_c, 0, 67, 0
3, 127440, Note_on_c, 0, 75, 63
3, 127440, Note_on_c, 0, 87, 63
3, 127460, Note_on_c, 0, 87, 0
3, 127460, Note_on_c, 0, 75, 0
3, 127500, Note_on_c, 0, 67, 65
3, 127500, Note_on_c, 0, 79, 65
3, 127520, Note_on_c, 0, 79, 0
3, 127520, Note_on_c, 0, 67, 0
3, 127560, Control_c, 0, 64, 0
3, 127560, Note_on_c, 0, 70, 67
3, 127560, Note_on_c, 0, 82, 67
3, 127580, Note_on_c, 0, 82, 0
3, 127580, Note_on_c, 0, 70, 0
3, 127620, Note_on_c, 0, 68, 69
3, 127620, Note_on_c, 0, 80, 69
3, 127738, Note_on_c, 0, 80, 0
3, 127738, Note_on_c, 0, 68, 0
3, 127740, Control_c, 0, 64, 127
3, 127740, Note_on_c, 0, 68, 71
3, 127740, Note_on_c, 0, 80, 71
3, 127858, Note_on_c, 0, 80, 0
3, 127858, Note_on_c, 0, 68, 0
3, 127860, Note_on_c, 0, 68, 73
3, 127860, Note_on_c, 0, 80, 73
3, 127880, Note_on_c, 0, 80, 0
3, 127880, Note_on_c, 0, 68, 0
3, 127920, Note_on_c, 0, 75, 75
3, 127920, Note_on_c, 0, 87, 75
3, 127940, Note_on_c, 0, 87, 0
3, 127940, Note_on_c, 0, 75, 0
3, 127980, Note_on_c, 0, 68, 77
3, 127980, Note_on_c, 0, 80, 77
3, 128000, Note_on_c, 0, 80, 0
3, 128000, Note_on_c, 0, 68, 0
3, 128040, Control_c, 0, 64, 0
3, 128040, Note_on_c, 0, 71, 79
3, 128040, Note_on_c, 0, 83, 79
3, 128060, Note_on_c, 0, 83, 0
3, 128060, Note_on_c, 0, 71, 0
3, 128100, Note_on_c, 0, 70, 80
3, 128100, Note_on_c, 0, 82, 80
3, 128218, Note_on_c, 0, 82, 0
3, 128218, Note_on_c, 0, 70, 0
3, 128220, Control_c, 0, 64, 127
3, 128220, Note_on_c, 0, 70, 81
3, 128220, Note_on_c, 0, 82, 81
3, 128338, Note_on_c, 0, 82, 0
3, 128338, Note_on_c, 0, 70, 0
3, 128340, Note_on_c, 0, 70, 82
3, 128340, Note_on_c, 0, 82, 82
3, 128360, Note_on_c, 0, 82, 0
3, 128360, Note_on_c, 0, 70, 0
3, 128400, Note_on_c, 0, 75, 84
3, 128400, Note_on_c, 0, 87, 84
3, 128420, Note_on_c, 0, 87, 0
3, 128420, Note_on_c, 0, 75, 0
3, 128460, Note_on_c, 0, 70, 85
3, 128460, Note_on_c, 0, 82, 85
3, 128480, Note_on_c, 0, 82, 0
3, 128480, Note_on_c, 0, 70, 0
3, 128520, Control_c, 0, 64, 0
3, 128520, Control_c, 0, 64, 127
3, 128520, Note_on_c, 0, 72, 85
3, 128520, Note_on_c, 0, 84, 85
3, 128759, Note_on_c, 0, 84, 0
3, 128759, Note_on_c, 0, 72, 0
3, 128760, Control_c, 0, 64, 0
3, 128760, Control_c, 0, 64, 127
3, 128760, Note_on_c, 0, 73, 85
3, 128760, Note_on_c, 0, 85, 85
3, 128999, Note_on_c, 0, 85, 0
3, 128999, Note_on_c, 0, 73, 0
3, 129000, Control_c, 0, 64, 0
3, 129000, Note_on_c, 0, 70, 78
3, 129000, Note_on_c, 0, 82, 78
3, 129018, Note_on_c, 0, 82, 0
3, 129018, Note_on_c, 0, 70, 0
3, 129020, Note_on_c, 0, 83, 78
3, 129038, Note_on_c, 0, 83, 0
3, 129040, Note_on_c, 0, 82, 78
3, 129058, Note_on_c, 0, 82, 0
3, 129060, Note_on_c, 0, 80, 78
3, 129088, Note_on_c, 0, 80, 0
3, 129090, Note_on_c, 0, 82, 78
3, 129119, Note_on_c, 0, 82, 0
3, 129120, Note_on_c, 0, 71, 85
3, 129120, Note_on_c, 0, 83, 85
3, 129479, Note_on_c, 0, 83, 0
3, 129479, Note_on_c, 0, 71, 0
3, 129480, Control_c, 0, 64, 127
3, 129480, Note_on_c, 0, 68, 85
3, 129480, Note_on_c, 0, 80, 85
3, 129719, Note_on_c, 0, 80, 0
3, 129719, Note_on_c, 0, 68, 0
3, 129720, Control_c, 0, 64, 0
3, 129720, Control_c, 0, 64, 127
3, 129720, Note_on_c, 0, 69, 85
3, 129720, Note_on_c, 0, 81, 85
3, 129959, Note_on_c, 0, 81, 0
3, 129959, Note_on_c, 0, 69, 0
3, 129960, Control_c, 0, 64, 0
3, 129960, Note_on_c, 0, 67, 85
3, 129960, Note_on_c, 0, 79, 85
3, 129978, Note_on_c, 0, 79, 0
3, 129978, Note_on_c, 0, 67, 0
3, 129980, Note_on_c, 0, 81, 85
3, 129998, Note_on_c, 0, 81, 0
3, 130000, Note_on_c, 0, 79, 85
3, 130018, Note_on_c, 0, 79, 0
3, 130020, Note_on_c, 0, 77, 85
3, 130048, Note_on_c, 0, 77, 0
3, 130050, Note_on_c, 0, 78, 85
3, 130079, Note_on_c, 0, 78, 0
3, 130080, Note_on_c, 0, 67, 85
3, 130080, Note_on_c, 0, 79, 85
3, 130439, Note_on_c, 0, 79, 0
3, 130439, Note_on_c, 0, 67, 0
3, 130440, Control_c, 0, 64, 127
3, 130440, Note_on_c, 0, 69, 85
3, 130440, Note_on_c, 0, 73, 85
3, 130440, Note_on_c, 0, 76, 85
3, 130440, Note_on_c, 0, 81, 85
3, 130695, Note_on_c, 0, 81, 0
3, 130695, Note_on_c, 0, 69, 0
3, 130695, Note_on_c, 0, 73, 0
3, 130695, Note_on_c, 0, 76, 0
3, 130710, Note_on_c, 0, 76, 45
3, 130740, Note_on_c, 0, 76, 0
3, 130740, Note_on_c, 0, 78, 45
3, 130770, Note_on_c, 0, 78, 0
3, 130770, Note_on_c, 0, 80, 45
3, 130799, Note_on_c, 0, 80, 0
3, 130800, Control_c, 0, 64, 0
3, 130800, Note_on_c, 0, 81, 45
3, 130830, Note_on_c, 0, 81, 0
3, 130830, Note_on_c, 0, 83, 45
3, 130860, Note_on_c, 0, 83, 0
3, 130860, Note_on_c, 0, 85, 45
3, 130890, Note_on_c, 0, 85, 0
3, 130890, Note_on_c, 0, 83, 45
3, 130919, Note_on_c, 0, 83, 0
3, 130920, Note_on_c, 0, 81, 45
3, 130935, Note_on_c, 0, 81, 0
3, 130950, Note_on_c, 0, 76, 45
3, 130980, Note_on_c, 0, 76, 0
3, 130980, Note_on_c, 0, 78, 45
3, 131010, Note_on_c, 0, 78, 0
3, 131010, Note_on_c, 0, 80, 45
3, 131040, Note_on_c, 0, 80, 0
3, 131040, Note_on_c, 0, 81, 45
3, 131070, Note_on_c, 0, 81, 0
3, 131070, Note_on_c, 0, 83, 45
3, 131100, Note_on_c, 0, 83, 0
3, 131100, Note_on_c, 0, 85, 45
3, 131130, Note_on_c, 0, 85, 0
3, 131130, Note_on_c, 0, 83, 45
3, 131159, Note_on_c, 0, 83, 0
3, 131160, Note_on_c, 0, 81, 45
3, 131175, Note_on_c, 0, 81, 0
3, 131190, Note_on_c, 0, 76, 45
3, 131220, Note_on_c, 0, 76, 0
3, 131220, Note_on_c, 0, 78, 45
3, 131250, Note_on_c, 0, 78, 0
3, 131250, Note_on_c, 0, 80, 45
3, 131280, Note_on_c, 0, 80, 0
3, 131280, Note_on_c, 0, 81, 45
3, 131310, Note_on_c, 0, 81, 0
3, 131310, Note_on_c, 0, 83, 45
3, 131340, Note_on_c, 0, 83, 0
3, 131340, Note_on_c, 0, 85, 45
3, 131370, Note_on_c, 0, 85, 0
3, 131370, Note_on_c, 0, 83, 45
3, 131399, Note_on_c, 0, 83, 0
3, 131400, Note_on_c, 0, 81, 45
3, 131415, Note_on_c, 0, 81, 0
3, 131430, Note_on_c, 0, 76, 45
3, 131460, Note_on_c, 0, 76, 0
3, 131460, Note_on_c, 0, 78, 45
3, 131490, Note_on_c, 0, 78, 0
3, 131490, Note_on_c, 0, 80, 45
3, 131520, Note_on_c, 0, 80, 0
3, 131520, Note_on_c, 0, 81, 45
3, 131550, Note_on_c, 0, 81, 0
3, 131550, Note_on_c, 0, 83, 45
3, 131580, Note_on_c, 0, 83, 0
3, 131580, Note_on_c, 0, 85, 45
3, 131610, Note_on_c, 0, 85, 0
3, 131610, Note_on_c, 0, 86, 45
3, 131639, Note_on_c, 0, 86, 0
3, 131640, Note_on_c, 0, 88, 45
3, 131670, Note_on_c, 0, 88, 0
3, 131670, Note_on_c, 0, 87, 45
3, 131700, Note_on_c, 0, 87, 0
3, 131700, Note_on_c, 0, 88, 45
3, 131730, Note_on_c, 0, 88, 0
3, 131730, Note_on_c, 0, 87, 45
3, 131742, Note_on_c, 0, 87, 0
3, 131760, Note_on_c, 0, 88, 63
3, 131790, Note_on_c, 0, 88, 0
3, 131790, Note_on_c, 0, 85, 45
3, 131820, Note_on_c, 0, 85, 0
3, 131820, Note_on_c, 0, 83, 45
3, 131850, Note_on_c, 0, 83, 0
3, 131850, Note_on_c, 0, 81, 45
3, 131880, Note_on_c, 0, 81, 0
3, 131880, Note_on_c, 0, 80, 45
3, 132090, Note_on_c, 0, 80, 0
3, 132105, Note_on_c, 0, 83, 63
3, 132112, Note_on_c, 0, 83, 0
3, 132120, Note_on_c, 0, 82, 45
3, 132135, Note_on_c, 0, 82, 0
3, 132150, Note_on_c, 0, 83, 45
3, 132165, Note_on_c, 0, 83, 0
3, 132180, Note_on_c, 0, 82, 45
3, 132195, Note_on_c, 0, 82, 0
3, 132210, Note_on_c, 0, 83, 45
3, 132225, Note_on_c, 0, 83, 0
3, 132240, Note_on_c, 0, 82, 45
3, 132255, Note_on_c, 0, 82, 0
3, 132270, Note_on_c, 0, 83, 45
3, 132285, Note_on_c, 0, 83, 0
3, 132300, Note_on_c, 0, 82, 45
3, 132315, Note_on_c, 0, 82, 0
3, 132330, Note_on_c, 0, 83, 45
3, 132340, Note_on_c, 0, 83, 0
3, 132345, Note_on_c, 0, 82, 45
3, 132353, Note_on_c, 0, 82, 0
3, 132360, Note_on_c, 0, 80, 45
3, 132390, Note_on_c, 0, 80, 0
3, 132480, Control_c, 0, 64, 127
3, 132480, Note_on_c, 0, 57, 80
3, 132480, Note_on_c, 0, 61, 80
3, 132480, Note_on_c, 0, 64, 80
3, 132480, Note_on_c, 0, 69, 80
3, 132615, Note_on_c, 0, 69, 0
3, 132615, Note_on_c, 0, 57, 0
3, 132615, Note_on_c, 0, 61, 0
3, 132615, Note_on_c, 0, 64, 0
3, 132630, Note_on_c, 0, 64, 45
3, 132642, Note_on_c, 0, 64, 0
3, 132660, Note_on_c, 0, 66, 45
3, 132672, Note_on_c, 0, 66, 0
3, 132690, Note_on_c, 0, 68, 45
3, 132702, Note_on_c, 0, 68, 0
3, 132720, Control_c, 0, 64, 0
3, 132720, Note_on_c, 0, 69, 45
3, 132732, Note_on_c, 0, 69, 0
3, 132750, Note_on_c, 0, 71, 45
3, 132762, Note_on_c, 0, 71, 0
3, 132780, Note_on_c, 0, 73, 45
3, 132792, Note_on_c, 0, 73, 0
3, 132810, Note_on_c, 0, 71, 45
3, 132822, Note_on_c, 0, 71, 0
3, 132840, Note_on_c, 0, 69, 45
3, 132852, Note_on_c, 0, 69, 0
3, 132870, Note_on_c, 0, 64, 45
3, 132882, Note_on_c, 0, 64, 0
3, 132900, Note_on_c, 0, 66, 45
3, 132912, Note_on_c, 0, 66, 0
3, 132930, Note_on_c, 0, 68, 45
3, 132942, Note_on_c, 0, 68, 0
3, 132960, Note_on_c, 0, 69, 45
3, 132972, Note_on_c, 0, 69, 0
3, 132990, Note_on_c, 0, 71, 45
3, 133002, Note_on_c, 0, 71, 0
3, 133020, Note_on_c, 0, 73, 45
3, 133032, Note_on_c, 0, 73, 0
3, 133050, Note_on_c, 0, 71, 45
3, 133062, Note_on_c, 0, 71, 0
3, 133080, Note_on_c, 0, 69, 45
3, 133092, Note_on_c, 0, 69, 0
3, 133110, Note_on_c, 0, 64, 45
3, 133122, Note_on_c, 0, 64, 0
3, 133140, Note_on_c, 0, 66, 45
3, 133152, Note_on_c, 0, 66, 0
3, 133170, Note_on_c, 0, 68, 45
3, 133182, Note_on_c, 0, 68, 0
3, 133200, Note_on_c, 0, 69, 45
3, 133212, Note_on_c, 0, 69, 0
3, 133230, Note_on_c, 0, 71, 45
3, 133242, Note_on_c, 0, 71, 0
3, 133260, Note_on_c, 0, 73, 45
3, 133272, Note_on_c, 0, 73, 0
3, 133290, Note_on_c, 0, 71, 45
3, 133302, Note_on_c, 0, 71, 0
3, 133320, Note_on_c, 0, 69, 45
3, 133332, Note_on_c, 0, 69, 0
3, 133350, Note_on_c, 0, 64, 45
3, 133362, Note_on_c, 0, 64, 0
3, 133380, Note_on_c, 0, 66, 45
3, 133392, Note_on_c, 0, 66, 0
3, 133410, Note_on_c, 0, 68, 45
3, 133422, Note_on_c, 0, 68, 0
3, 133440, Note_on_c, 0, 69, 45
3, 133452, Note_on_c, 0, 69, 0
3, 133470, Note_on_c, 0, 71, 45
3, 133482, Note_on_c, 0, 71, 0
3, 133500, Note_on_c, 0, 73, 45
3, 133512, Note_on_c, 0, 73, 0
3, 133530, Note_on_c, 0, 71, 45
3, 133542, Note_on_c, 0, 71, 0
3, 133560, Note_on_c, 0, 69, 45
3, 133572, Note_on_c, 0, 69, 0
3, 133590, Note_on_c, 0, 64, 45
3, 133602, Note_on_c, 0, 64, 0
3, 133620, Note_on_c, 0, 66, 45
3, 133632, Note_on_c, 0, 66, 0
3, 133650, Note_on_c, 0, 68, 45
3, 133662, Note_on_c, 0, 68, 0
3, 133680, Note_on_c, 0, 69, 45
3, 133692, Note_on_c, 0, 69, 0
3, 133710, Note_on_c, 0, 71, 45
3, 133722, Note_on_c, 0, 71, 0
3, 133740, Note_on_c, 0, 73, 45
3, 133752, Note_on_c, 0, 73, 0
3, 133770, Note_on_c, 0, 71, 45
3, 133782, Note_on_c, 0, 71, 0
3, 133800, Note_on_c, 0, 69, 78
3, 133812, Note_on_c, 0, 69, 0
3, 133830, Note_on_c, 0, 64, 78
3, 133842, Note_on_c, 0, 64, 0
3, 133860, Note_on_c, 0, 66, 78
3, 133872, Note_on_c, 0, 66, 0
3, 133890, Note_on_c, 0, 68, 78
3, 133902, Note_on_c, 0, 68, 0
3, 133920, Note_on_c, 0, 69, 78
3, 133932, Note_on_c, 0, 69, 0
3, 133950, Note_on_c, 0, 71, 78
3, 133962, Note_on_c, 0, 71, 0
3, 133980, Note_on_c, 0, 73, 78
3, 133992, Note_on_c, 0, 73, 0
3, 134010, Note_on_c, 0, 74, 78
3, 134022, Note_on_c, 0, 74, 0
3, 134040, Note_on_c, 0, 76, 78
3, 134052, Note_on_c, 0, 76, 0
3, 134070, Note_on_c, 0, 78, 78
3, 134082, Note_on_c, 0, 78, 0
3, 134100, Note_on_c, 0, 80, 78
3, 134112, Note_on_c, 0, 80, 0
3, 134130, Note_on_c, 0, 81, 78
3, 134142, Note_on_c, 0, 81, 0
3, 134160, Note_on_c, 0, 83, 78
3, 134172, Note_on_c, 0, 83, 0
3, 134190, Note_on_c, 0, 85, 78
3, 134202, Note_on_c, 0, 85, 0
3, 134220, Note_on_c, 0, 86, 78
3, 134232, Note_on_c, 0, 86, 0
3, 134250, Note_on_c, 0, 87, 78
3, 134262, Note_on_c, 0, 87, 0
3, 134280, Control_c, 0, 64, 127
3, 134280, Note_on_c, 0, 76, 85
3, 134280, Note_on_c, 0, 88, 85
3, 134490, Note_on_c, 0, 88, 0
3, 134490, Note_on_c, 0, 76, 0
3, 134520, Control_c, 0, 64, 0
3, 134520, Control_c, 0, 64, 127
3, 134520, Note_on_c, 0, 68, 85
3, 134520, Note_on_c, 0, 80, 85
3, 134730, Note_on_c, 0, 80, 0
3, 134730, Note_on_c, 0, 68, 0
3, 134760, Control_c, 0, 64, 0
3, 134760, Control_c, 0, 64, 127
3, 134760, Note_on_c, 0, 71, 85
3, 134760, Note_on_c, 0, 83, 85
3, 134970, Note_on_c, 0, 83, 0
3, 134970, Note_on_c, 0, 71, 0
3, 135000, Control_c, 0, 64, 0
3, 135000, Control_c, 0, 64, 127
3, 135000, Note_on_c, 0, 55, 85
3, 135000, Note_on_c, 0, 61, 85
3, 135000, Note_on_c, 0, 67, 85
3, 135210, Note_on_c, 0, 67, 0
3, 135210, Note_on_c, 0, 61, 0
3, 135210, Note_on_c, 0, 55, 0
3, 135240, Control_c, 0, 64, 0
3, 135240, Note_on_c, 0, 56, 78
3, 135240, Note_on_c, 0, 59, 78
3, 135240, Note_on_c, 0, 68, 78
3, 135270, Note_on_c, 0, 68, 0
3, 135270, Note_on_c, 0, 59, 0
3, 135270, Note_on_c, 0, 56, 0
3, 135300, Note_on_c, 0, 63, 45
3, 135300, Note_on_c, 0, 71, 45
3, 135315, Note_on_c, 0, 71, 0
3, 135315, Note_on_c, 0, 63, 0
3, 135360, Note_on_c, 0, 63, 45
3, 135360, Note_on_c, 0, 71, 45
3, 135375, Note_on_c, 0, 71, 0
3, 135375, Note_on_c, 0, 63, 0
3, 135420, Note_on_c, 0, 63, 45
3, 135420, Note_on_c, 0, 71, 45
3, 135435, Note_on_c, 0, 71, 0
3, 135435, Note_on_c, 0, 63, 0
3, 135480, Note_on_c, 0, 63, 45
3, 135480, Note_on_c, 0, 71, 45
3, 135495, Note_on_c, 0, 71, 0
3, 135495, Note_on_c, 0, 63, 0
3, 135540, Note_on_c, 0, 63, 45
3, 135540, Note_on_c, 0, 71, 45
3, 135570, Note_on_c, 0, 71, 0
3, 135570, Note_on_c, 0, 63, 0
3, 135600, Note_on_c, 0, 63, 45
3, 135600, Note_on_c, 0, 70, 45
3, 135630, Note_on_c, 0, 70, 0
3, 135630, Note_on_c, 0, 63, 0
3, 135660, Note_on_c, 0, 63, 45
3, 135660, Note_on_c, 0, 68, 45
3, 135690, Note_on_c, 0, 68, 0
3, 135690, Note_on_c, 0, 63, 0
3, 135720, Note_on_c, 0, 63, 45
3, 135720, Note_on_c, 0, 67, 45
3, 135750, Note_on_c, 0, 67, 0
3, 135750, Note_on_c, 0, 63, 0
3, 135780, Note_on_c, 0, 67, 63
3, 135780, Note_on_c, 0, 75, 63
3, 135795, Note_on_c, 0, 75, 0
3, 135795, Note_on_c, 0, 67, 0
3, 135840, Note_on_c, 0, 67, 45
3, 135840, Note_on_c, 0, 75, 45
3, 135855, Note_on_c, 0, 75, 0
3, 135855, Note_on_c, 0, 67, 0
3, 135900, Note_on_c, 0, 67, 45
3, 135900, Note_on_c, 0, 75, 45
3, 135915, Note_on_c, 0, 75, 0
3, 135915, Note_on_c, 0, 67, 0
3, 135960, Note_on_c, 0, 67, 45
3, 135960, Note_on_c, 0, 75, 45
3, 135975, Note_on_c, 0, 75, 0
3, 135975, Note_on_c, 0, 67, 0
3, 136020, Note_on_c, 0, 67, 45
3, 136020, Note_on_c, 0, 75, 45
3, 136050, Note_on_c, 0, 75, 0
3, 136050, Note_on_c, 0, 67, 0
3, 136080, Note_on_c, 0, 68, 52
3, 136080, Note_on_c, 0, 75, 52
3, 136110, Note_on_c, 0, 75, 0
3, 136110, Note_on_c, 0, 68, 0
3, 136140, Note_on_c, 0, 70, 60
3, 136140, Note_on_c, 0, 75, 60
3, 136170, Note_on_c, 0, 75, 0
3, 136170, Note_on_c, 0, 70, 0
3, 136200, Note_on_c, 0, 71, 65
3, 136200, Note_on_c, 0, 75, 65
3, 136230, Note_on_c, 0, 75, 0
3, 136230, Note_on_c, 0, 71, 0
3, 136260, Note_on_c, 0, 63, 45
3, 136260, Note_on_c, 0, 71, 45
3, 136275, Note_on_c, 0, 71, 0
3, 136275, Note_on_c, 0, 63, 0
3, 136320, Note_on_c, 0, 63, 45
3, 136320, Note_on_c, 0, 71, 45
3, 136335, Note_on_c, 0, 71, 0
3, 136335, Note_on_c, 0, 63, 0
3, 136380, Note_on_c, 0, 63, 45
3, 136380, Note_on_c, 0, 71, 45
3, 136395, Note_on_c, 0, 71, 0
3, 136395, Note_on_c, 0, 63, 0
3, 136440, Note_on_c, 0, 63, 45
3, 136440, Note_on_c, 0, 71, 45
3, 136455, Note_on_c, 0, 71, 0
3, 136455, Note_on_c, 0, 63, 0
3, 136500, Note_on_c, 0, 63, 45
3, 136500, Note_on_c, 0, 71, 45
3, 136530, Note_on_c, 0, 71, 0
3, 136530, Note_on_c, 0, 63, 0
3, 136560, Note_on_c, 0, 63, 45
3, 136560, Note_on_c, 0, 70, 45
3, 136590, Note_on_c, 0, 70, 0
3, 136590, Note_on_c, 0, 63, 0
3, 136620, Note_on_c, 0, 63, 45
3, 136620, Note_on_c, 0, 68, 45
3, 136650, Note_on_c, 0, 68, 0
3, 136650, Note_on_c, 0, 63, 0
3, 136680, Note_on_c, 0, 63, 45
3, 136680, Note_on_c, 0, 67, 45
3, 136710, Note_on_c, 0, 67, 0
3, 136710, Note_on_c, 0, 63, 0
3, 136740, Note_on_c, 0, 67, 45
3, 136740, Note_on_c, 0, 75, 45
3, 136755, Note_on_c, 0, 75, 0
3, 136755, Note_on_c, 0, 67, 0
3, 136800, Note_on_c, 0, 67, 45
3, 136800, Note_on_c, 0, 75, 45
3, 136815, Note_on_c, 0, 75, 0
3, 136815, Note_on_c, 0, 67, 0
3, 136860, Note_on_c, 0, 67, 45
3, 136860, Note_on_c, 0, 75, 45
3, 136875, Note_on_c, 0, 75, 0
3, 136875, Note_on_c, 0, 67, 0
3, 136920, Note_on_c, 0, 67, 45
3, 136920, Note_on_c, 0, 75, 45
3, 136935, Note_on_c, 0, 75, 0
3, 136935, Note_on_c, 0, 67, 0
3, 136980, Note_on_c, 0, 67, 45
3, 136980, Note_on_c, 0, 75, 45
3, 137010, Note_on_c, 0, 75, 0
3, 137010, Note_on_c, 0, 67, 0
3, 137040, Note_on_c, 0, 68, 52
3, 137040, Note_on_c, 0, 75, 52
3, 137070, Note_on_c, 0, 75, 0
3, 137070, Note_on_c, 0, 68, 0
3, 137100, Note_on_c, 0, 70, 60
3, 137100, Note_on_c, 0, 75, 60
3, 137130, Note_on_c, 0, 75, 0
3, 137130, Note_on_c, 0, 70, 0
3, 137160, Control_c, 0, 64, 127
3, 137160, Note_on_c, 0, 71, 65
3, 137160, Note_on_c, 0, 75, 65
3, 137175, Note_on_c, 0, 75, 0
3, 137175, Note_on_c, 0, 71, 0
3, 137220, Note_on_c, 0, 71, 45
3, 137220, Note_on_c, 0, 75, 45
3, 137235, Note_on_c, 0, 75, 0
3, 137235, Note_on_c, 0, 71, 0
3, 137280, Note_on_c, 0, 71, 45
3, 137280, Note_on_c, 0, 75, 45
3, 137340, Note_on_c, 0, 75, 0
3, 137340, Note_on_c, 0, 71, 0
3, 137340, Note_on_c, 0, 68, 35
3, 137340, Note_on_c, 0, 71, 35
3, 137385, Note_on_c, 0, 71, 0
3, 137385, Note_on_c, 0, 68, 0
3, 137400, Control_c, 0, 64, 0
3, 137400, Control_c, 0, 64, 127
3, 137460, Note_on_c, 0, 73, 45
3, 137460, Note_on_c, 0, 76, 45
3, 137475, Note_on_c, 0, 76, 0
3, 137475, Note_on_c, 0, 73, 0
3, 137520, Note_on_c, 0, 73, 45
3, 137520, Note_on_c, 0, 76, 45
3, 137580, Note_on_c, 0, 76, 0
3, 137580, Note_on_c, 0, 73, 0
3, 137580, Note_on_c, 0, 68, 35
3, 137580, Note_on_c, 0, 73, 35
3, 137625, Note_on_c, 0, 73, 0
3, 137625, Note_on_c, 0, 68, 0
3, 137640, Control_c, 0, 64, 0
3, 137700, Note_on_c, 0, 71, 45
3, 137700, Note_on_c, 0, 75, 45
3, 137715, Note_on_c, 0, 75, 0
3, 137715, Note_on_c, 0, 71, 0
3, 137760, Note_on_c, 0, 71, 45
3, 137760, Note_on_c, 0, 75, 45
3, 137820, Note_on_c, 0, 75, 0
3, 137820, Note_on_c, 0, 71, 0
3, 137820, Note_on_c, 0, 68, 35
3, 137820, Note_on_c, 0, 71, 35
3, 137865, Note_on_c, 0, 71, 0
3, 137865, Note_on_c, 0, 68, 0
3, 137940, Note_on_c, 0, 70, 45
3, 137940, Note_on_c, 0, 75, 45
3, 137955, Note_on_c, 0, 75, 0
3, 137955, Note_on_c, 0, 70, 0
3, 138000, Note_on_c, 0, 70, 45
3, 138000, Note_on_c, 0, 75, 45
3, 138060, Note_on_c, 0, 75, 0
3, 138060, Note_on_c, 0, 70, 0
3, 138060, Note_on_c, 0, 67, 35
3, 138060, Note_on_c, 0, 70, 35
3, 138105, Note_on_c, 0, 70, 0
3, 138105, Note_on_c, 0, 67, 0
3, 138120, Note_on_c, 0, 68, 45
3, 138120, Note_on_c, 0, 71, 45
3, 138135, Note_on_c, 0, 71, 0
3, 138135, Note_on_c, 0, 68, 0
3, 138180, Note_on_c, 0, 71, 45
3, 138180, Note_on_c, 0, 75, 45
3, 138180, Note_on_c, 0, 83, 45
3, 138195, Note_on_c, 0, 83, 0
3, 138195, Note_on_c, 0, 75, 0
3, 138195, Note_on_c, 0, 71, 0
3, 138240, Note_on_c, 0, 71, 50
3, 138240, Note_on_c, 0, 75, 50
3, 138240, Note_on_c, 0, 83, 50
3, 138255, Note_on_c, 0, 83, 0
3, 138255, Note_on_c, 0, 75, 0
3, 138255, Note_on_c, 0, 71, 0
3, 138300, Note_on_c, 0, 71, 55
3, 138300, Note_on_c, 0, 75, 55
3, 138300, Note_on_c, 0, 83, 55
3, 138315, Note_on_c, 0, 83, 0
3, 138315, Note_on_c, 0, 75, 0
3, 138315, Note_on_c, 0, 71, 0
3, 138360, Note_on_c, 0, 71, 60
3, 138360, Note_on_c, 0, 75, 60
3, 138360, Note_on_c, 0, 83, 60
3, 138375, Note_on_c, 0, 83, 0
3, 138375, Note_on_c, 0, 75, 0
3, 138375, Note_on_c, 0, 71, 0
3, 138420, Note_on_c, 0, 71, 65
3, 138420, Note_on_c, 0, 75, 65
3, 138420, Note_on_c, 0, 83, 65
3, 138435, Note_on_c, 0, 83, 0
3, 138435, Note_on_c, 0, 75, 0
3, 138435, Note_on_c, 0, 71, 0
3, 138480, Note_on_c, 0, 70, 70
3, 138480, Note_on_c, 0, 73, 70
3, 138480, Note_on_c, 0, 82, 70
3, 138495, Note_on_c, 0, 82, 0
3, 138495, Note_on_c, 0, 73, 0
3, 138495, Note_on_c, 0, 70, 0
3, 138540, Note_on_c, 0, 68, 75
3, 138540, Note_on_c, 0, 71, 75
3, 138540, Note_on_c, 0, 80, 75
3, 138555, Note_on_c, 0, 80, 0
3, 138555, Note_on_c, 0, 71, 0
3, 138555, Note_on_c, 0, 68, 0
3, 138600, Note_on_c, 0, 67, 78
3, 138600, Note_on_c, 0, 70, 78
3, 138600, Note_on_c, 0, 79, 78
3, 138630, Note_on_c, 0, 79, 0
3, 138630, Note_on_c, 0, 70, 0
3, 138630, Note_on_c, 0, 67, 0
3, 138660, Control_c, 0, 64, 127
3, 138660, Note_on_c, 0, 76, 85
3, 138660, Note_on_c, 0, 79, 85
3, 138660, Note_on_c, 0, 88, 85
3, 138675, Note_on_c, 0, 88, 0
3, 138675, Note_on_c, 0, 79, 0
3, 138675, Note_on_c, 0, 76, 0
3, 138720, Note_on_c, 0, 76, 78
3, 138720, Note_on_c, 0, 79, 78
3, 138720, Note_on_c, 0, 88, 78
3, 138735, Note_on_c, 0, 88, 0
3, 138735, Note_on_c, 0, 79, 0
3, 138735, Note_on_c, 0, 76, 0
3, 138780, Note_on_c, 0, 76, 78
3, 138780, Note_on_c, 0, 79, 78
3, 138780, Note_on_c, 0, 88, 78
3, 138795, Note_on_c, 0, 88, 0
3, 138795, Note_on_c, 0, 79, 0
3, 138795, Note_on_c, 0, 76, 0
3, 138840, Note_on_c, 0, 76, 78
3, 138840, Note_on_c, 0, 79, 78
3, 138840, Note_on_c, 0, 88, 78
3, 138855, Note_on_c, 0, 88, 0
3, 138855, Note_on_c, 0, 79, 0
3, 138855, Note_on_c, 0, 76, 0
3, 138900, Control_c, 0, 64, 0
3, 138900, Note_on_c, 0, 76, 78
3, 138900, Note_on_c, 0, 79, 78
3, 138900, Note_on_c, 0, 88, 78
3, 138915, Note_on_c, 0, 88, 0
3, 138915, Note_on_c, 0, 79, 0
3, 138915, Note_on_c, 0, 76, 0
3, 138960, Note_on_c, 0, 75, 78
3, 138960, Note_on_c, 0, 79, 78
3, 138960, Note_on_c, 0, 87, 78
3, 138975, Note_on_c, 0, 87, 0
3, 138975, Note_on_c, 0, 79, 0
3, 138975, Note_on_c, 0, 75, 0
3, 139020, Note_on_c, 0, 73, 78
3, 139020, Note_on_c, 0, 79, 78
3, 139020, Note_on_c, 0, 85, 78
3, 139035, Note_on_c, 0, 85, 0
3, 139035, Note_on_c, 0, 79, 0
3, 139035, Note_on_c, 0, 73, 0
3, 139080, Note_on_c, 0, 71, 78
3, 139080, Note_on_c, 0, 80, 78
3, 139080, Note_on_c, 0, 83, 78
3, 139095, Note_on_c, 0, 83, 0
3, 139095, Note_on_c, 0, 80, 0
3, 139095, Note_on_c, 0, 71, 0
3, 139140, Note_on_c, 0, 71, 45
3, 139140, Note_on_c, 0, 75, 45
3, 139140, Note_on_c, 0, 83, 45
3, 139155, Note_on_c, 0, 83, 0
3, 139155, Note_on_c, 0, 75, 0
3, 139155, Note_on_c, 0, 71, 0
3, 139200, Note_on_c, 0, 71, 45
3, 139200, Note_on_c, 0, 75, 45
3, 139200, Note_on_c, 0, 83, 45
3, 139215, Note_on_c, 0, 83, 0
3, 139215, Note_on_c, 0, 75, 0
3, 139215, Note_on_c, 0, 71, 0
3, 139260, Note_on_c, 0, 71, 45
3, 139260, Note_on_c, 0, 75, 45
3, 139260, Note_on_c, 0, 83, 45
3, 139275, Note_on_c, 0, 83, 0
3, 139275, Note_on_c, 0, 75, 0
3, 139275, Note_on_c, 0, 71, 0
3, 139320, Note_on_c, 0, 71, 45
3, 139320, Note_on_c, 0, 75, 45
3, 139320, Note_on_c, 0, 83, 45
3, 139335, Note_on_c, 0, 83, 0
3, 139335, Note_on_c, 0, 75, 0
3, 139335, Note_on_c, 0, 71, 0
3, 139380, Note_on_c, 0, 71, 45
3, 139380, Note_on_c, 0, 75, 45
3, 139380, Note_on_c, 0, 83, 45
3, 139395, Note_on_c, 0, 83, 0
3, 139395, Note_on_c, 0, 75, 0
3, 139395, Note_on_c, 0, 71, 0
3, 139440, Note_on_c, 0, 70, 45
3, 139440, Note_on_c, 0, 73, 45
3, 139440, Note_on_c, 0, 82, 45
3, 139455, Note_on_c, 0, 82, 0
3, 139455, Note_on_c, 0, 73, 0
3, 139455, Note_on_c, 0, 70, 0
3, 139500, Note_on_c, 0, 68, 45
3, 139500, Note_on_c, 0, 71, 45
3, 139500, Note_on_c, 0, 80, 45
3, 139515, Note_on_c, 0, 80, 0
3, 139515, Note_on_c, 0, 71, 0
3, 139515, Note_on_c, 0, 68, 0
3, 139560, Note_on_c, 0, 67, 78
3, 139560, Note_on_c, 0, 70, 78
3, 139560, Note_on_c, 0, 79, 78
3, 139590, Note_on_c, 0, 79, 0
3, 139590, Note_on_c, 0, 70, 0
3, 139590, Note_on_c, 0, 67, 0
3, 139620, Control_c, 0, 64, 127
3, 139620, Note_on_c, 0, 76, 85
3, 139620, Note_on_c, 0, 79, 85
3, 139620, Note_on_c, 0, 88, 85
3, 139635, Note_on_c, 0, 88, 0
3, 139635, Note_on_c, 0, 79, 0
3, 139635, Note_on_c, 0, 76, 0
3, 139680, Note_on_c, 0, 76, 78
3, 139680, Note_on_c, 0, 79, 78
3, 139680, Note_on_c, 0, 88, 78
3, 139695, Note_on_c, 0, 88, 0
3, 139695, Note_on_c, 0, 79, 0
3, 139695, Note_on_c, 0, 76, 0
3, 139740, Note_on_c, 0, 76, 78
3, 139740, Note_on_c, 0, 79, 78
3, 139740, Note_on_c, 0, 88, 78
3, 139755, Note_on_c, 0, 88, 0
3, 139755, Note_on_c, 0, 79, 0
3, 139755, Note_on_c, 0, 76, 0
3, 139800, Note_on_c, 0, 76, 78
3, 139800, Note_on_c, 0, 79, 78
3, 139800, Note_on_c, 0, 88, 78
3, 139815, Note_on_c, 0, 88, 0
3, 139815, Note_on_c, 0, 79, 0
3, 139815, Note_on_c, 0, 76, 0
3, 139860, Control_c, 0, 64, 0
3, 139860, Note_on_c, 0, 76, 78
3, 139860, Note_on_c, 0, 79, 78
3, 139860, Note_on_c, 0, 88, 78
3, 139875, Note_on_c, 0, 88, 0
3, 139875, Note_on_c, 0, 79, 0
3, 139875, Note_on_c, 0, 76, 0
3, 139920, Note_on_c, 0, 75, 78
3, 139920, Note_on_c, 0, 79, 78
3, 139920, Note_on_c, 0, 87, 78
3, 139935, Note_on_c, 0, 87, 0
3, 139935, Note_on_c, 0, 79, 0
3, 139935, Note_on_c, 0, 75, 0
3, 139980, Note_on_c, 0, 73, 78
3, 139980, Note_on_c, 0, 79, 78
3, 139980, Note_on_c, 0, 85, 78
3, 139995, Note_on_c, 0, 85, 0
3, 139995, Note_on_c, 0, 79, 0
3, 139995, Note_on_c, 0, 73, 0
3, 140040, Note_on_c, 0, 71, 78
3, 140040, Note_on_c, 0, 80, 78
3, 140040, Note_on_c, 0, 83, 78
3, 140055, Note_on_c, 0, 83, 0
3, 140055, Note_on_c, 0, 80, 0
3, 140055, Note_on_c, 0, 71, 0
3, 140100, Note_on_c, 0, 80, 45
3, 140100, Note_on_c, 0, 83, 45
3, 140115, Note_on_c, 0, 83, 0
3, 140115, Note_on_c, 0, 80, 0
3, 140160, Note_on_c, 0, 80, 45
3, 140160, Note_on_c, 0, 83, 45
3, 140220, Note_on_c, 0, 83, 0
3, 140220, Note_on_c, 0, 80, 0
3, 140220, Note_on_c, 0, 83, 35
3, 140220, Note_on_c, 0, 87, 35
3, 140265, Note_on_c, 0, 87, 0
3, 140265, Note_on_c, 0, 83, 0
3, 140340, Note_on_c, 0, 80, 45
3, 140340, Note_on_c, 0, 85, 45
3, 140355, Note_on_c, 0, 85, 0
3, 140355, Note_on_c, 0, 80, 0
3, 140400, Note_on_c, 0, 80, 45
3, 140400, Note_on_c, 0, 85, 45
3, 140460, Note_on_c, 0, 85, 0
3, 140460, Note_on_c, 0, 80, 0
3, 140460, Note_on_c, 0, 85, 35
3, 140460, Note_on_c, 0, 88, 35
3, 140505, Note_on_c, 0, 88, 0
3, 140505, Note_on_c, 0, 85, 0
3, 140580, Note_on_c, 0, 80, 45
3, 140580, Note_on_c, 0, 83, 45
3, 140595, Note_on_c, 0, 83, 0
3, 140595, Note_on_c, 0, 80, 0
3, 140640, Note_on_c, 0, 80, 45
3, 140640, Note_on_c, 0, 83, 45
3, 140700, Note_on_c, 0, 83, 0
3, 140700, Note_on_c, 0, 80, 0
3, 140700, Note_on_c, 0, 83, 35
3, 140700, Note_on_c, 0, 87, 35
3, 140745, Note_on_c, 0, 87, 0
3, 140745, Note_on_c, 0, 83, 0
3, 140820, Note_on_c, 0, 79, 45
3, 140820, Note_on_c, 0, 82, 45
3, 140835, Note_on_c, 0, 82, 0
3, 140835, Note_on_c, 0, 79, 0
3, 140880, Note_on_c, 0, 79, 45
3, 140880, Note_on_c, 0, 82, 45
3, 140940, Note_on_c, 0, 82, 0
3, 140940, Note_on_c, 0, 79, 0
3, 140940, Note_on_c, 0, 82, 35
3, 140940, Note_on_c, 0, 87, 35
3, 140985, Note_on_c, 0, 87, 0
3, 140985, Note_on_c, 0, 82, 0
3, 141060, Note_on_c, 0, 75, 45
3, 141060, Note_on_c, 0, 83, 45
3, 141075, Note_on_c, 0, 83, 0
3, 141075, Note_on_c, 0, 75, 0
3, 141120, Note_on_c, 0, 75, 45
3, 141120, Note_on_c, 0, 83, 45
3, 141180, Note_on_c, 0, 83, 0
3, 141180, Note_on_c, 0, 75, 0
3, 141180, Note_on_c, 0, 80, 35
3, 141180, Note_on_c, 0, 87, 35
3, 141225, Note_on_c, 0, 87, 0
3, 141225, Note_on_c, 0, 80, 0
3, 141300, Note_on_c, 0, 73, 45
3, 141300, Note_on_c, 0, 81, 45
3, 141315, Note_on_c, 0, 81, 0
3, 141315, Note_on_c, 0, 73, 0
3, 141360, Note_on_c, 0, 73, 45
3, 141360, Note_on_c, 0, 81, 45
3, 141420, Note_on_c, 0, 81, 0
3, 141420, Note_on_c, 0, 73, 0
3, 141420, Note_on_c, 0, 76, 35
3, 141420, Note_on_c, 0, 85, 35
3, 141465, Note_on_c, 0, 85, 0
3, 141465, Note_on_c, 0, 76, 0
3, 141540, Note_on_c, 0, 71, 45
3, 141540, Note_on_c, 0, 80, 45
3, 141555, Note_on_c, 0, 80, 0
3, 141555, Note_on_c, 0, 71, 0
3, 141600, Note_on_c, 0, 71, 45
3, 141600, Note_on_c, 0, 80, 45
3, 141660, Note_on_c, 0, 80, 0
3, 141660, Note_on_c, 0, 71, 0
3, 141660, Note_on_c, 0, 75, 35
3, 141660, Note_on_c, 0, 83, 35
3, 141705, Note_on_c, 0, 83, 0
3, 141705, Note_on_c, 0, 75, 0
3, 141780, Note_on_c, 0, 70, 45
3, 141780, Note_on_c, 0, 79, 45
3, 141795, Note_on_c, 0, 79, 0
3, 141795, Note_on_c, 0, 70, 0
3, 141840, Note_on_c, 0, 70, 45
3, 141840, Note_on_c, 0, 79, 45
3, 141900, Note_on_c, 0, 79, 0
3, 141900, Note_on_c, 0, 70, 0
3, 141900, Note_on_c, 0, 73, 35
3, 141900, Note_on_c, 0, 82, 35
3, 141945, Note_on_c, 0, 82, 0
3, 141945, Note_on_c, 0, 73, 0
3, 141960, Control_c, 0, 64, 127
3, 141960, Note_on_c, 0, 71, 45
3, 141960, Note_on_c, 0, 80, 45
3, 142050, Note_on_c, 0, 80, 0
3, 142050, Note_on_c, 0, 71, 0
3, 142320, Control_c, 0, 64, 0
3, 142320, Note_on_c, 0, 71, 45
3, 142408, Note_on_c, 0, 71, 0
3, 142410, Note_on_c, 0, 68, 35
3, 142440, Note_on_c, 0, 68, 0
3, 142440, Note_on_c, 0, 67, 45
3, 142530, Note_on_c, 0, 67, 0
3, 142560, Control_c, 0, 64, 127
3, 142560, Note_on_c, 0, 61, 45
3, 142560, Note_on_c, 0, 67, 45
3, 142560, Note_on_c, 0, 75, 45
3, 142605, Note_on_c, 0, 75, 0
3, 142605, Note_on_c, 0, 67, 0
3, 142605, Note_on_c, 0, 61, 0
3, 142680, Note_on_c, 0, 61, 45
3, 142680, Note_on_c, 0, 67, 45
3, 142680, Note_on_c, 0, 75, 45
3, 142725, Note_on_c, 0, 75, 0
3, 142725, Note_on_c, 0, 67, 0
3, 142725, Note_on_c, 0, 61, 0
3, 142800, Note_on_c, 0, 61, 45
3, 142800, Note_on_c, 0, 67, 45
3, 142800, Note_on_c, 0, 75, 45
3, 142845, Note_on_c, 0, 75, 0
3, 142845, Note_on_c, 0, 67, 0
3, 142845, Note_on_c, 0, 61, 0
3, 142920, Control_c, 0, 64, 0
3, 142920, Control_c, 0, 64, 127
3, 142920, Note_on_c, 0, 59, 45
3, 142935, Note_on_c, 0, 59, 0
3, 142935, Note_on_c, 0, 68, 45
3, 142950, Note_on_c, 0, 68, 0
3, 142950, Note_on_c, 0, 75, 45
3, 143280, Note_on_c, 0, 75, 0
3, 143280, Note_on_c, 0, 83, 45
3, 143370, Note_on_c, 0, 83, 0
3, 143370, Note_on_c, 0, 80, 45
3, 143400, Note_on_c, 0, 80, 0
3, 143400, Control_c, 0, 64, 0
3, 143400, Note_on_c, 0, 79, 45
3, 143490, Note_on_c, 0, 79, 0
3, 143520, Control_c, 0, 64, 127
3, 143520, Note_on_c, 0, 73, 45
3, 143520, Note_on_c, 0, 79, 45
3, 143520, Note_on_c, 0, 87, 45
3, 143565, Note_on_c, 0, 87, 0
3, 143565, Note_on_c, 0, 79, 0
3, 143565, Note_on_c, 0, 73, 0
3, 143640, Note_on_c, 0, 73, 45
3, 143640, Note_on_c, 0, 79, 45
3, 143640, Note_on_c, 0, 87, 45
3, 143685, Note_on_c, 0, 87, 0
3, 143685, Note_on_c, 0, 79, 0
3, 143685, Note_on_c, 0, 73, 0
3, 143760, Note_on_c, 0, 73, 45
3, 143760, Note_on_c, 0, 79, 45
3, 143760, Note_on_c, 0, 87, 45
3, 143820, Note_on_c, 0, 87, 0
3, 143820, Note_on_c, 0, 79, 0
3, 143820, Note_on_c, 0, 73, 0
3, 143880, Control_c, 0, 64, 0
3, 143880, Control_c, 0, 64, 127
3, 143880, Note_on_c, 0, 71, 45
3, 143895, Note_on_c, 0, 71, 0
3, 143895, Note_on_c, 0, 80, 45
3, 143910, Note_on_c, 0, 80, 0
3, 143910, Note_on_c, 0, 87, 45
3, 144120, Note_on_c, 0, 87, 0
3, 144120, Control_c, 0, 64, 0
3, 144120, Control_c, 0, 64, 127
3, 144120, Note_on_c, 0, 73, 45
3, 144135, Note_on_c, 0, 73, 0
3, 144135, Note_on_c, 0, 79, 45
3, 144150, Note_on_c, 0, 79, 0
3, 144150, Note_on_c, 0, 87, 45
3, 144360, Note_on_c, 0, 87, 0
3, 144360, Control_c, 0, 64, 0
3, 144360, Control_c, 0, 64, 127
3, 144360, Note_on_c, 0, 71, 45
3, 144375, Note_on_c, 0, 71, 0
3, 144375, Note_on_c, 0, 80, 45
3, 144390, Note_on_c, 0, 80, 0
3, 144390, Note_on_c, 0, 87, 45
3, 144600, Note_on_c, 0, 87, 0
3, 144600, Control_c, 0, 64, 0
3, 144600, Control_c, 0, 64, 127
3, 144600, Note_on_c, 0, 73, 45
3, 144615, Note_on_c, 0, 73, 0
3, 144615, Note_on_c, 0, 79, 45
3, 144630, Note_on_c, 0, 79, 0
3, 144630, Note_on_c, 0, 87, 45
3, 144840, Note_on_c, 0, 87, 0
3, 144840, Control_c, 0, 64, 0
3, 144840, Note_on_c, 0, 59, 45
3, 144855, Note_on_c, 0, 59, 0
3, 144870, Note_on_c, 0, 68, 45
3, 144885, Note_on_c, 0, 68, 0
3, 144900, Note_on_c, 0, 63, 45
3, 144915, Note_on_c, 0, 63, 0
3, 144930, Note_on_c, 0, 68, 45
3, 144945, Note_on_c, 0, 68, 0
3, 144960, Note_on_c, 0, 59, 45
3, 144975, Note_on_c, 0, 59, 0
3, 144990, Note_on_c, 0, 68, 45
3, 145005, Note_on_c, 0, 68, 0
3, 145020, Note_on_c, 0, 63, 45
3, 145035, Note_on_c, 0, 63, 0
3, 145050, Note_on_c, 0, 68, 45
3, 145065, Note_on_c, 0, 68, 0
3, 145080, Note_on_c, 0, 59, 45
3, 145095, Note_on_c, 0, 59, 0
3, 145110, Note_on_c, 0, 68, 45
3, 145125, Note_on_c, 0, 68, 0
3, 145140, Note_on_c, 0, 63, 45
3, 145155, Note_on_c, 0, 63, 0
3, 145170, Note_on_c, 0, 68, 45
3, 145185, Note_on_c, 0, 68, 0
3, 145200, Note_on_c, 0, 59, 45
3, 145215, Note_on_c, 0, 59, 0
3, 145230, Note_on_c, 0, 68, 45
3, 145245, Note_on_c, 0, 68, 0
3, 145260, Note_on_c, 0, 63, 45
3, 145275, Note_on_c, 0, 63, 0
3, 145290, Note_on_c, 0, 68, 45
3, 145305, Note_on_c, 0, 68, 0
3, 145320, Control_c, 0, 64, 127
3, 145320, Note_on_c, 0, 60, 45
3, 145335, Note_on_c, 0, 60, 0
3, 145350, Note_on_c, 0, 66, 45
3, 145365, Note_on_c, 0, 66, 0
3, 145380, Note_on_c, 0, 63, 45
3, 145395, Note_on_c, 0, 63, 0
3, 145410, Note_on_c, 0, 66, 45
3, 145425, Note_on_c, 0, 66, 0
3, 145440, Note_on_c, 0, 60, 45
3, 145455, Note_on_c, 0, 60, 0
3, 145470, Note_on_c, 0, 66, 45
3, 145485, Note_on_c, 0, 66, 0
3, 145500, Note_on_c, 0, 63, 45
3, 145515, Note_on_c, 0, 63, 0
3, 145530, Note_on_c, 0, 66, 45
3, 145545, Note_on_c, 0, 66, 0
3, 145560, Note_on_c, 0, 60, 45
3, 145575, Note_on_c, 0, 60, 0
3, 145590, Note_on_c, 0, 66, 45
3, 145605, Note_on_c, 0, 66, 0
3, 145620, Note_on_c, 0, 63, 45
3, 145635, Note_on_c, 0, 63, 0
3, 145650, Note_on_c, 0, 66, 45
3, 145665, Note_on_c, 0, 66, 0
3, 145680, Note_on_c, 0, 60, 45
3, 145695, Note_on_c, 0, 60, 0
3, 145710, Note_on_c, 0, 66, 45
3, 145725, Note_on_c, 0, 66, 0
3, 145740, Note_on_c, 0, 63, 45
3, 145755, Note_on_c, 0, 63, 0
3, 145770, Note_on_c, 0, 66, 45
3, 145785, Note_on_c, 0, 66, 0
3, 145800, Control_c, 0, 64, 0
3, 145800, Note_on_c, 0, 53, 85
3, 145800, Note_on_c, 0, 56, 85
3, 145800, Note_on_c, 0, 61, 85
3, 145800, Note_on_c, 0, 65, 85
3, 145812, Note_on_c, 0, 65, 0
3, 145812, Note_on_c, 0, 53, 0
3, 145812, Note_on_c, 0, 56, 0
3, 145812, Note_on_c, 0, 61, 0
3, 145830, Note_on_c, 0, 49, 45
3, 145845, Note_on_c, 0, 49, 0
3, 145860, Note_on_c, 0, 53, 45
3, 145875, Note_on_c, 0, 53, 0
3, 145890, Note_on_c, 0, 56, 45
3, 145905, Note_on_c, 0, 56, 0
3, 145920, Note_on_c, 0, 61, 45
3, 145935, Note_on_c, 0, 61, 0
3, 145950, Note_on_c, 0, 53, 45
3, 145965, Note_on_c, 0, 53, 0
3, 145980, Note_on_c, 0, 56, 45
3, 145995, Note_on_c, 0, 56, 0
3, 146010, Note_on_c, 0, 61, 45
3, 146025, Note_on_c, 0, 61, 0
3, 146040, Note_on_c, 0, 65, 45
3, 146055, Note_on_c, 0, 65, 0
3, 146070, Note_on_c, 0, 56, 45
3, 146085, Note_on_c, 0, 56, 0
3, 146100, Note_on_c, 0, 61, 45
3, 146115, Note_on_c, 0, 61, 0
3, 146130, Note_on_c, 0, 65, 45
3, 146145, Note_on_c, 0, 65, 0
3, 146160, Note_on_c, 0, 68, 45
3, 146175, Note_on_c, 0, 68, 0
3, 146190, Note_on_c, 0, 61, 45
3, 146205, Note_on_c, 0, 61, 0
3, 146220, Note_on_c, 0, 65, 45
3, 146235, Note_on_c, 0, 65, 0
3, 146250, Note_on_c, 0, 68, 45
3, 146265, Note_on_c, 0, 68, 0
3, 146280, Note_on_c, 0, 73, 45
3, 146295, Note_on_c, 0, 73, 0
3, 146310, Note_on_c, 0, 65, 45
3, 146325, Note_on_c, 0, 65, 0
3, 146340, Note_on_c, 0, 68, 45
3, 146355, Note_on_c, 0, 68, 0
3, 146370, Note_on_c, 0, 73, 45
3, 146385, Note_on_c, 0, 73, 0
3, 146400, Note_on_c, 0, 77, 45
3, 146415, Note_on_c, 0, 77, 0
3, 146430, Note_on_c, 0, 68, 45
3, 146445, Note_on_c, 0, 68, 0
3, 146460, Note_on_c, 0, 73, 45
3, 146475, Note_on_c, 0, 73, 0
3, 146490, Note_on_c, 0, 77, 45
3, 146505, Note_on_c, 0, 77, 0
3, 146520, Note_on_c, 0, 80, 45
3, 146535, Note_on_c, 0, 80, 0
3, 146550, Note_on_c, 0, 73, 45
3, 146580, Note_on_c, 0, 73, 0
3, 146580, Note_on_c, 0, 77, 45
3, 146610, Note_on_c, 0, 77, 0
3, 146610, Note_on_c, 0, 80, 45
3, 146625, Note_on_c, 0, 80, 0
3, 146640, Note_on_c, 0, 73, 80
3, 146640, Note_on_c, 0, 77, 80
3, 146640, Note_on_c, 0, 80, 80
3, 146640, Note_on_c, 0, 85, 80
3, 146647, Note_on_c, 0, 85, 0
3, 146647, Note_on_c, 0, 73, 0
3, 146647, Note_on_c, 0, 77, 0
3, 146647, Note_on_c, 0, 80, 0
3, 146700, Note_on_c, 0, 73, 60
3, 146700, Note_on_c, 0, 77, 60
3, 146700, Note_on_c, 0, 80, 60
3, 146700, Note_on_c, 0, 85, 60
3, 146708, Note_on_c, 0, 85, 0
3, 146708, Note_on_c, 0, 73, 0
3, 146708, Note_on_c, 0, 77, 0
3, 146708, Note_on_c, 0, 80, 0
3, 146790, Note_on_c, 0, 49, 45
3, 146805, Note_on_c, 0, 49, 0
3, 146820, Note_on_c, 0, 53, 45
3, 146835, Note_on_c, 0, 53, 0
3, 146850, Note_on_c, 0, 56, 45
3, 146865, Note_on_c, 0, 56, 0
3, 146880, Note_on_c, 0, 61, 45
3, 146895, Note_on_c, 0, 61, 0
3, 146910, Note_on_c, 0, 53, 45
3, 146925, Note_on_c, 0, 53, 0
3, 146940, Note_on_c, 0, 56, 45
3, 146955, Note_on_c, 0, 56, 0
3, 146970, Note_on_c, 0, 61, 45
3, 146985, Note_on_c, 0, 61, 0
3, 147000, Note_on_c, 0, 65, 45
3, 147015, Note_on_c, 0, 65, 0
3, 147030, Note_on_c, 0, 56, 45
3, 147045, Note_on_c, 0, 56, 0
3, 147060, Note_on_c, 0, 61, 45
3, 147075, Note_on_c, 0, 61, 0
3, 147090, Note_on_c, 0, 65, 45
3, 147105, Note_on_c, 0, 65, 0
3, 147120, Note_on_c, 0, 68, 45
3, 147135, Note_on_c, 0, 68, 0
3, 147150, Note_on_c, 0, 61, 45
3, 147165, Note_on_c, 0, 61, 0
3, 147180, Note_on_c, 0, 65, 45
3, 147195, Note_on_c, 0, 65, 0
3, 147210, Note_on_c, 0, 68, 45
3, 147225, Note_on_c, 0, 68, 0
3, 147240, Note_on_c, 0, 73, 45
3, 147255, Note_on_c, 0, 73, 0
3, 147270, Note_on_c, 0, 65, 45
3, 147285, Note_on_c, 0, 65, 0
3, 147300, Note_on_c, 0, 68, 45
3, 147315, Note_on_c, 0, 68, 0
3, 147330, Note_on_c, 0, 73, 45
3, 147345, Note_on_c, 0, 73, 0
3, 147360, Note_on_c, 0, 77, 45
3, 147375, Note_on_c, 0, 77, 0
3, 147390, Note_on_c, 0, 68, 45
3, 147405, Note_on_c, 0, 68, 0
3, 147420, Note_on_c, 0, 73, 45
3, 147435, Note_on_c, 0, 73, 0
3, 147450, Note_on_c, 0, 77, 45
3, 147465, Note_on_c, 0, 77, 0
3, 147480, Note_on_c, 0, 80, 45
3, 147495, Note_on_c, 0, 80, 0
3, 147510, Note_on_c, 0, 73, 45
3, 147540, Note_on_c, 0, 73, 0
3, 147540, Note_on_c, 0, 77, 45
3, 147570, Note_on_c, 0, 77, 0
3, 147570, Note_on_c, 0, 80, 45
3, 147585, Note_on_c, 0, 80, 0
3, 147600, Note_on_c, 0, 73, 80
3, 147600, Note_on_c, 0, 77, 80
3, 147600, Note_on_c, 0, 80, 80
3, 147600, Note_on_c, 0, 85, 80
3, 147607, Note_on_c, 0, 85, 0
3, 147607, Note_on_c, 0, 73, 0
3, 147607, Note_on_c, 0, 77, 0
3, 147607, Note_on_c, 0, 80, 0
3, 147660, Note_on_c, 0, 73, 60
3, 147660, Note_on_c, 0, 77, 60
3, 147660, Note_on_c, 0, 80, 60
3, 147660, Note_on_c, 0, 85, 60
3, 147668, Note_on_c, 0, 85, 0
3, 147668, Note_on_c, 0, 73, 0
3, 147668, Note_on_c, 0, 77, 0
3, 147668, Note_on_c, 0, 80, 0
3, 147750, Note_on_c, 0, 49, 45
3, 147780, Note_on_c, 0, 49, 0
3, 147780, Note_on_c, 0, 54, 45
3, 147810, Note_on_c, 0, 54, 0
3, 147810, Note_on_c, 0, 57, 45
3, 147840, Note_on_c, 0, 57, 0
3, 147840, Note_on_c, 0, 61, 45
3, 147847, Note_on_c, 0, 61, 0
3, 147870, Note_on_c, 0, 61, 45
3, 147900, Note_on_c, 0, 61, 0
3, 147900, Note_on_c, 0, 66, 45
3, 147930, Note_on_c, 0, 66, 0
3, 147930, Note_on_c, 0, 69, 45
3, 147960, Note_on_c, 0, 69, 0
3, 147960, Note_on_c, 0, 73, 45
3, 147967, Note_on_c, 0, 73, 0
3, 147990, Note_on_c, 0, 73, 45
3, 148020, Note_on_c, 0, 73, 0
3, 148020, Note_on_c, 0, 78, 45
3, 148050, Note_on_c, 0, 78, 0
3, 148050, Note_on_c, 0, 81, 45
3, 148065, Note_on_c, 0, 81, 0
3, 148080, Note_on_c, 0, 73, 80
3, 148080, Note_on_c, 0, 78, 80
3, 148080, Note_on_c, 0, 81, 80
3, 148080, Note_on_c, 0, 85, 80
3, 148087, Note_on_c, 0, 85, 0
3, 148087, Note_on_c, 0, 73, 0
3, 148087, Note_on_c, 0, 78, 0
3, 148087, Note_on_c, 0, 81, 0
3, 148140, Note_on_c, 0, 73, 60
3, 148140, Note_on_c, 0, 78, 60
3, 148140, Note_on_c, 0, 81, 60
3, 148140, Note_on_c, 0, 85, 60
3, 148148, Note_on_c, 0, 85, 0
3, 148148, Note_on_c, 0, 73, 0
3, 148148, Note_on_c, 0, 78, 0
3, 148148, Note_on_c, 0, 81, 0
3, 148230, Note_on_c, 0, 69, 45
3, 148260, Note_on_c, 0, 69, 0
3, 148260, Note_on_c, 0, 76, 45
3, 148290, Note_on_c, 0, 76, 0
3, 148290, Note_on_c, 0, 80, 45
3, 148320, Note_on_c, 0, 80, 0
3, 148320, Note_on_c, 0, 81, 45
3, 148327, Note_on_c, 0, 81, 0
3, 148350, Note_on_c, 0, 61, 45
3, 148380, Note_on_c, 0, 61, 0
3, 148380, Note_on_c, 0, 68, 45
3, 148410, Note_on_c, 0, 68, 0
3, 148410, Note_on_c, 0, 71, 45
3, 148440, Note_on_c, 0, 71, 0
3, 148440, Note_on_c, 0, 73, 45
3, 148447, Note_on_c, 0, 73, 0
3, 148470, Note_on_c, 0, 73, 45
3, 148500, Note_on_c, 0, 73, 0
3, 148500, Note_on_c, 0, 80, 45
3, 148530, Note_on_c, 0, 80, 0
3, 148530, Note_on_c, 0, 83, 45
3, 148545, Note_on_c, 0, 83, 0
3, 148560, Note_on_c, 0, 73, 80
3, 148560, Note_on_c, 0, 80, 80
3, 148560, Note_on_c, 0, 83, 80
3, 148560, Note_on_c, 0, 85, 80
3, 148567, Note_on_c, 0, 85, 0
3, 148567, Note_on_c, 0, 73, 0
3, 148567, Note_on_c, 0, 80, 0
3, 148567, Note_on_c, 0, 83, 0
3, 148620, Note_on_c, 0, 73, 80
3, 148620, Note_on_c, 0, 80, 80
3, 148620, Note_on_c, 0, 83, 80
3, 148620, Note_on_c, 0, 85, 80
3, 148627, Note_on_c, 0, 85, 0
3, 148627, Note_on_c, 0, 73, 0
3, 148627, Note_on_c, 0, 80, 0
3, 148627, Note_on_c, 0, 83, 0
3, 148680, Note_on_c, 0, 73, 80
3, 148680, Note_on_c, 0, 78, 80
3, 148680, Note_on_c, 0, 81, 80
3, 148680, Note_on_c, 0, 85, 80
3, 148687, Note_on_c, 0, 85, 0
3, 148687, Note_on_c, 0, 73, 0
3, 148687, Note_on_c, 0, 78, 0
3, 148687, Note_on_c, 0, 81, 0
3, 148800, Note_on_c, 0, 73, 45
3, 149040, Note_on_c, 0, 73, 0
3, 149040, Note_on_c, 0, 69, 45
3, 149130, Note_on_c, 0, 69, 0
3, 149130, Note_on_c, 0, 66, 45
3, 149160, Note_on_c, 0, 66, 0
3, 149160, Note_on_c, 0, 65, 45
3, 149170, Note_on_c, 0, 65, 0
3, 149170, Note_on_c, 0, 66, 45
3, 149180, Note_on_c, 0, 66, 0
3, 149180, Note_on_c, 0, 68, 45
3, 149190, Note_on_c, 0, 68, 0
3, 149190, Note_on_c, 0, 66, 63
3, 149280, Note_on_c, 0, 66, 0
3, 149280, Note_on_c, 0, 65, 45
3, 149445, Note_on_c, 0, 65, 0
3, 149460, Note_on_c, 0, 65, 52
3, 149520, Note_on_c, 0, 65, 0
3, 149520, Note_on_c, 0, 73, 63
3, 149595, Note_on_c, 0, 73, 0
3, 149610, Note_on_c, 0, 65, 52
3, 149632, Note_on_c, 0, 65, 0
3, 149640, Note_on_c, 0, 68, 45
3, 149760, Note_on_c, 0, 68, 0
3, 149760, Note_on_c, 0, 66, 45
3, 149925, Note_on_c, 0, 66, 0
3, 149940, Note_on_c, 0, 66, 52
3, 150000, Note_on_c, 0, 66, 0
3, 150000, Note_on_c, 0, 73, 63
3, 150075, Note_on_c, 0, 73, 0
3, 150090, Note_on_c, 0, 66, 52
3, 150112, Note_on_c, 0, 66, 0
3, 150120, Note_on_c, 0, 69, 45
3, 150240, Note_on_c, 0, 69, 0
3, 150240, Note_on_c, 0, 68, 45
3, 150405, Note_on_c, 0, 68, 0
3, 150420, Note_on_c, 0, 68, 52
3, 150480, Note_on_c, 0, 73, 63
3, 150570, Note_on_c, 0, 73, 0
3, 150600, Note_on_c, 0, 68, 0
3, 150600, Note_on_c, 0, 69, 45
3, 150615, Note_on_c, 0, 69, 0
3, 150630, Note_on_c, 0, 73, 45
3, 150645, Note_on_c, 0, 73, 0
3, 150660, Note_on_c, 0, 69, 45
3, 150677, Note_on_c, 0, 69, 0
3, 150690, Note_on_c, 0, 73, 45
3, 150705, Note_on_c, 0, 73, 0
3, 150720, Note_on_c, 0, 66, 45
3, 150735, Note_on_c, 0, 66, 0
3, 150750, Note_on_c, 0, 73, 45
3, 150765, Note_on_c, 0, 73, 0
3, 150780, Note_on_c, 0, 69, 45
3, 150797, Note_on_c, 0, 69, 0
3, 150810, Note_on_c, 0, 73, 45
3, 150825, Note_on_c, 0, 73, 0
3, 150840, Note_on_c, 0, 66, 45
3, 150855, Note_on_c, 0, 66, 0
3, 150870, Note_on_c, 0, 73, 45
3, 150885, Note_on_c, 0, 73, 0
3, 150900, Note_on_c, 0, 69, 45
3, 150917, Note_on_c, 0, 69, 0
3, 150930, Note_on_c, 0, 73, 45
3, 150945, Note_on_c, 0, 73, 0
3, 150960, Note_on_c, 0, 66, 45
3, 150975, Note_on_c, 0, 66, 0
3, 150990, Note_on_c, 0, 73, 45
3, 151005, Note_on_c, 0, 73, 0
3, 151020, Note_on_c, 0, 69, 45
3, 151037, Note_on_c, 0, 69, 0
3, 151050, Note_on_c, 0, 73, 45
3, 151065, Note_on_c, 0, 73, 0
3, 151080, Note_on_c, 0, 68, 45
3, 151095, Note_on_c, 0, 68, 0
3, 151110, Note_on_c, 0, 73, 45
3, 151125, Note_on_c, 0, 73, 0
3, 151140, Note_on_c, 0, 71, 45
3, 151157, Note_on_c, 0, 71, 0
3, 151170, Note_on_c, 0, 73, 45
3, 151185, Note_on_c, 0, 73, 0
3, 151200, Note_on_c, 0, 68, 45
3, 151215, Note_on_c, 0, 68, 0
3, 151230, Note_on_c, 0, 73, 45
3, 151245, Note_on_c, 0, 73, 0
3, 151260, Note_on_c, 0, 71, 45
3, 151277, Note_on_c, 0, 71, 0
3, 151290, Note_on_c, 0, 73, 45
3, 151305, Note_on_c, 0, 73, 0
3, 151320, Note_on_c, 0, 68, 45
3, 151335, Note_on_c, 0, 68, 0
3, 151350, Note_on_c, 0, 73, 45
3, 151365, Note_on_c, 0, 73, 0
3, 151380, Note_on_c, 0, 71, 45
3, 151397, Note_on_c, 0, 71, 0
3, 151410, Note_on_c, 0, 73, 45
3, 151425, Note_on_c, 0, 73, 0
3, 151440, Note_on_c, 0, 68, 45
3, 151455, Note_on_c, 0, 68, 0
3, 151470, Note_on_c, 0, 73, 45
3, 151485, Note_on_c, 0, 73, 0
3, 151500, Note_on_c, 0, 71, 45
3, 151517, Note_on_c, 0, 71, 0
3, 151530, Note_on_c, 0, 73, 45
3, 151545, Note_on_c, 0, 73, 0
3, 151560, Note_on_c, 0, 66, 45
3, 151575, Note_on_c, 0, 66, 0
3, 151590, Note_on_c, 0, 73, 45
3, 151605, Note_on_c, 0, 73, 0
3, 151620, Note_on_c, 0, 69, 45
3, 151637, Note_on_c, 0, 69, 0
3, 151650, Note_on_c, 0, 73, 45
3, 151665, Note_on_c, 0, 73, 0
3, 151680, Note_on_c, 0, 66, 45
3, 151695, Note_on_c, 0, 66, 0
3, 151710, Note_on_c, 0, 73, 45
3, 151725, Note_on_c, 0, 73, 0
3, 151740, Note_on_c, 0, 69, 45
3, 151757, Note_on_c, 0, 69, 0
3, 151770, Note_on_c, 0, 73, 45
3, 151785, Note_on_c, 0, 73, 0
3, 151800, Note_on_c, 0, 66, 45
3, 151815, Note_on_c, 0, 66, 0
3, 151830, Note_on_c, 0, 73, 45
3, 151845, Note_on_c, 0, 73, 0
3, 151860, Note_on_c, 0, 69, 45
3, 151877, Note_on_c, 0, 69, 0
3, 151890, Note_on_c, 0, 73, 45
3, 151905, Note_on_c, 0, 73, 0
3, 151920, Note_on_c, 0, 66, 45
3, 151935, Note_on_c, 0, 66, 0
3, 151950, Note_on_c, 0, 73, 45
3, 151965, Note_on_c, 0, 73, 0
3, 151980, Note_on_c, 0, 69, 45
3, 151997, Note_on_c, 0, 69, 0
3, 152010, Note_on_c, 0, 73, 45
3, 152025, Note_on_c, 0, 73, 0
3, 152040, Note_on_c, 0, 66, 45
3, 152055, Note_on_c, 0, 66, 0
3, 152070, Note_on_c, 0, 74, 45
3, 152085, Note_on_c, 0, 74, 0
3, 152100, Note_on_c, 0, 69, 45
3, 152117, Note_on_c, 0, 69, 0
3, 152130, Note_on_c, 0, 74, 45
3, 152145, Note_on_c, 0, 74, 0
3, 152160, Note_on_c, 0, 66, 45
3, 152175, Note_on_c, 0, 66, 0
3, 152190, Note_on_c, 0, 74, 45
3, 152205, Note_on_c, 0, 74, 0
3, 152220, Note_on_c, 0, 69, 45
3, 152237, Note_on_c, 0, 69, 0
3, 152250, Note_on_c, 0, 74, 45
3, 152265, Note_on_c, 0, 74, 0
3, 152280, Note_on_c, 0, 69, 45
3, 152295, Note_on_c, 0, 69, 0
3, 152310, Note_on_c, 0, 74, 45
3, 152325, Note_on_c, 0, 74, 0
3, 152340, Note_on_c, 0, 72, 45
3, 152357, Note_on_c, 0, 72, 0
3, 152370, Note_on_c, 0, 74, 45
3, 152385, Note_on_c, 0, 74, 0
3, 152400, Note_on_c, 0, 69, 45
3, 152415, Note_on_c, 0, 69, 0
3, 152430, Note_on_c, 0, 74, 45
3, 152445, Note_on_c, 0, 74, 0
3, 152460, Note_on_c, 0, 72, 45
3, 152477, Note_on_c, 0, 72, 0
3, 152490, Note_on_c, 0, 74, 45
3, 152505, Note_on_c, 0, 74, 0
3, 152520, Note_on_c, 0, 67, 78
3, 152535, Note_on_c, 0, 67, 0
3, 152550, Note_on_c, 0, 74, 45
3, 152565, Note_on_c, 0, 74, 0
3, 152580, Note_on_c, 0, 71, 45
3, 152597, Note_on_c, 0, 71, 0
3, 152610, Note_on_c, 0, 74, 45
3, 152625, Note_on_c, 0, 74, 0
3, 152640, Note_on_c, 0, 67, 30
3, 152655, Note_on_c, 0, 67, 0
3, 152670, Note_on_c, 0, 74, 30
3, 152685, Note_on_c, 0, 74, 0
3, 152700, Note_on_c, 0, 71, 30
3, 152717, Note_on_c, 0, 71, 0
3, 152730, Note_on_c, 0, 74, 30
3, 152745, Note_on_c, 0, 74, 0
3, 152760, Note_on_c, 0, 67, 30
3, 152775, Note_on_c, 0, 67, 0
3, 152790, Note_on_c, 0, 74, 30
3, 152805, Note_on_c, 0, 74, 0
3, 152820, Note_on_c, 0, 71, 30
3, 152837, Note_on_c, 0, 71, 0
3, 152850, Note_on_c, 0, 74, 30
3, 152865, Note_on_c, 0, 74, 0
3, 152880, Note_on_c, 0, 67, 30
3, 152895, Note_on_c, 0, 67, 0
3, 152910, Note_on_c, 0, 74, 30
3, 152925, Note_on_c, 0, 74, 0
3, 152940, Note_on_c, 0, 71, 30
3, 152957, Note_on_c, 0, 71, 0
3, 152970, Note_on_c, 0, 74, 30
3, 152985, Note_on_c, 0, 74, 0
3, 153000, Note_on_c, 0, 69, 30
3, 153015, Note_on_c, 0, 69, 0
3, 153030, Note_on_c, 0, 74, 30
3, 153045, Note_on_c, 0, 74, 0
3, 153060, Note_on_c, 0, 72, 30
3, 153077, Note_on_c, 0, 72, 0
3, 153090, Note_on_c, 0, 74, 30
3, 153105, Note_on_c, 0, 74, 0
3, 153120, Note_on_c, 0, 69, 30
3, 153135, Note_on_c, 0, 69, 0
3, 153150, Note_on_c, 0, 74, 30
3, 153165, Note_on_c, 0, 74, 0
3, 153180, Note_on_c, 0, 72, 30
3, 153197, Note_on_c, 0, 72, 0
3, 153210, Note_on_c, 0, 74, 30
3, 153225, Note_on_c, 0, 74, 0
3, 153240, Note_on_c, 0, 69, 30
3, 153255, Note_on_c, 0, 69, 0
3, 153270, Note_on_c, 0, 74, 30
3, 153285, Note_on_c, 0, 74, 0
3, 153300, Note_on_c, 0, 72, 30
3, 153317, Note_on_c, 0, 72, 0
3, 153330, Note_on_c, 0, 74, 30
3, 153345, Note_on_c, 0, 74, 0
3, 153360, Note_on_c, 0, 69, 30
3, 153375, Note_on_c, 0, 69, 0
3, 153390, Note_on_c, 0, 74, 30
3, 153405, Note_on_c, 0, 74, 0
3, 153420, Note_on_c, 0, 72, 30
3, 153437, Note_on_c, 0, 72, 0
3, 153450, Note_on_c, 0, 74, 30
3, 153465, Note_on_c, 0, 74, 0
3, 153480, Note_on_c, 0, 67, 30
3, 153495, Note_on_c, 0, 67, 0
3, 153510, Note_on_c, 0, 74, 30
3, 153525, Note_on_c, 0, 74, 0
3, 153540, Note_on_c, 0, 71, 30
3, 153557, Note_on_c, 0, 71, 0
3, 153570, Note_on_c, 0, 74, 30
3, 153585, Note_on_c, 0, 74, 0
3, 153600, Note_on_c, 0, 67, 30
3, 153615, Note_on_c, 0, 67, 0
3, 153630, Note_on_c, 0, 74, 30
3, 153645, Note_on_c, 0, 74, 0
3, 153660, Note_on_c, 0, 71, 30
3, 153677, Note_on_c, 0, 71, 0
3, 153690, Note_on_c, 0, 74, 30
3, 153705, Note_on_c, 0, 74, 0
3, 153720, Note_on_c, 0, 67, 30
3, 153735, Note_on_c, 0, 67, 0
3, 153750, Note_on_c, 0, 74, 30
3, 153765, Note_on_c, 0, 74, 0
3, 153780, Note_on_c, 0, 71, 30
3, 153797, Note_on_c, 0, 71, 0
3, 153810, Note_on_c, 0, 74, 30
3, 153825, Note_on_c, 0, 74, 0
3, 153840, Note_on_c, 0, 67, 30
3, 153855, Note_on_c, 0, 67, 0
3, 153870, Note_on_c, 0, 74, 30
3, 153885, Note_on_c, 0, 74, 0
3, 153900, Note_on_c, 0, 71, 30
3, 153917, Note_on_c, 0, 71, 0
3, 153930, Note_on_c, 0, 74, 30
3, 153945, Note_on_c, 0, 74, 0
3, 153960, Note_on_c, 0, 68, 30
3, 153975, Note_on_c, 0, 68, 0
3, 153990, Note_on_c, 0, 74, 30
3, 154005, Note_on_c, 0, 74, 0
3, 154020, Note_on_c, 0, 71, 30
3, 154037, Note_on_c, 0, 71, 0
3, 154050, Note_on_c, 0, 74, 30
3, 154065, Note_on_c, 0, 74, 0
3, 154080, Note_on_c, 0, 68, 30
3, 154095, Note_on_c, 0, 68, 0
3, 154110, Note_on_c, 0, 73, 30
3, 154125, Note_on_c, 0, 73, 0
3, 154140, Note_on_c, 0, 71, 30
3, 154157, Note_on_c, 0, 71, 0
3, 154170, Note_on_c, 0, 73, 30
3, 154185, Note_on_c, 0, 73, 0
3, 154200, Note_on_c, 0, 68, 30
3, 154215, Note_on_c, 0, 68, 0
3, 154230, Note_on_c, 0, 73, 30
3, 154245, Note_on_c, 0, 73, 0
3, 154260, Note_on_c, 0, 71, 30
3, 154277, Note_on_c, 0, 71, 0
3, 154290, Note_on_c, 0, 73, 30
3, 154305, Note_on_c, 0, 73, 0
3, 154320, Note_on_c, 0, 68, 31
3, 154335, Note_on_c, 0, 68, 0
3, 154350, Note_on_c, 0, 73, 32
3, 154365, Note_on_c, 0, 73, 0
3, 154380, Note_on_c, 0, 71, 34
3, 154397, Note_on_c, 0, 71, 0
3, 154410, Note_on_c, 0, 73, 35
3, 154425, Note_on_c, 0, 73, 0
3, 154440, Note_on_c, 0, 66, 37
3, 154455, Note_on_c, 0, 66, 0
3, 154470, Note_on_c, 0, 73, 38
3, 154485, Note_on_c, 0, 73, 0
3, 154500, Note_on_c, 0, 69, 40
3, 154517, Note_on_c, 0, 69, 0
3, 154530, Note_on_c, 0, 73, 41
3, 154545, Note_on_c, 0, 73, 0
3, 154560, Note_on_c, 0, 66, 43
3, 154575, Note_on_c, 0, 66, 0
3, 154590, Note_on_c, 0, 73, 44
3, 154605, Note_on_c, 0, 73, 0
3, 154620, Note_on_c, 0, 69, 46
3, 154637, Note_on_c, 0, 69, 0
3, 154650, Note_on_c, 0, 73, 47
3, 154665, Note_on_c, 0, 73, 0
3, 154680, Note_on_c, 0, 66, 49
3, 154695, Note_on_c, 0, 66, 0
3, 154710, Note_on_c, 0, 78, 50
3, 154725, Note_on_c, 0, 78, 0
3, 154740, Note_on_c, 0, 69, 52
3, 154757, Note_on_c, 0, 69, 0
3, 154770, Note_on_c, 0, 78, 53
3, 154785, Note_on_c, 0, 78, 0
3, 154800, Note_on_c, 0, 66, 55
3, 154815, Note_on_c, 0, 66, 0
3, 154830, Note_on_c, 0, 78, 56
3, 154845, Note_on_c, 0, 78, 0
3, 154860, Note_on_c, 0, 69, 58
3, 154877, Note_on_c, 0, 69, 0
3, 154890, Note_on_c, 0, 78, 60
3, 154905, Note_on_c, 0, 78, 0
3, 154920, Control_c, 0, 64, 127
3, 154920, Note_on_c, 0, 66, 63
3, 154935, Note_on_c, 0, 66, 0
3, 154950, Note_on_c, 0, 78, 63
3, 154965, Note_on_c, 0, 78, 0
3, 154980, Note_on_c, 0, 68, 63
3, 154980, Note_on_c, 0, 75, 63
3, 154997, Note_on_c, 0, 75, 0
3, 154997, Note_on_c, 0, 68, 0
3, 155010, Note_on_c, 0, 78, 63
3, 155025, Note_on_c, 0, 78, 0
3, 155040, Note_on_c, 0, 66, 61
3, 155055, Note_on_c, 0, 66, 0
3, 155070, Note_on_c, 0, 78, 59
3, 155085, Note_on_c, 0, 78, 0
3, 155100, Note_on_c, 0, 68, 57
3, 155100, Note_on_c, 0, 75, 57
3, 155117, Note_on_c, 0, 75, 0
3, 155117, Note_on_c, 0, 68, 0
3, 155130, Note_on_c, 0, 78, 55
3, 155145, Note_on_c, 0, 78, 0
3, 155160, Note_on_c, 0, 66, 53
3, 155175, Note_on_c, 0, 66, 0
3, 155190, Note_on_c, 0, 78, 51
3, 155205, Note_on_c, 0, 78, 0
3, 155220, Note_on_c, 0, 68, 50
3, 155220, Note_on_c, 0, 75, 50
3, 155237, Note_on_c, 0, 75, 0
3, 155237, Note_on_c, 0, 68, 0
3, 155250, Note_on_c, 0, 78, 48
3, 155265, Note_on_c, 0, 78, 0
3, 155280, Note_on_c, 0, 66, 46
3, 155295, Note_on_c, 0, 66, 0
3, 155310, Note_on_c, 0, 78, 44
3, 155325, Note_on_c, 0, 78, 0
3, 155340, Note_on_c, 0, 68, 42
3, 155340, Note_on_c, 0, 75, 42
3, 155357, Note_on_c, 0, 75, 0
3, 155357, Note_on_c, 0, 68, 0
3, 155370, Note_on_c, 0, 78, 40
3, 155385, Note_on_c, 0, 78, 0
3, 155400, Control_c, 0, 64, 0
3, 155400, Note_on_c, 0, 64, 42
3, 155415, Note_on_c, 0, 64, 0
3, 155430, Note_on_c, 0, 76, 43
3, 155445, Note_on_c, 0, 76, 0
3, 155460, Note_on_c, 0, 73, 45
3, 155477, Note_on_c, 0, 73, 0
3, 155490, Note_on_c, 0, 76, 46
3, 155505, Note_on_c, 0, 76, 0
3, 155520, Note_on_c, 0, 64, 48
3, 155535, Note_on_c, 0, 64, 0
3, 155550, Note_on_c, 0, 76, 49
3, 155565, Note_on_c, 0, 76, 0
3, 155580, Note_on_c, 0, 73, 51
3, 155597, Note_on_c, 0, 73, 0
3, 155610, Note_on_c, 0, 76, 52
3, 155625, Note_on_c, 0, 76, 0
3, 155640, Note_on_c, 0, 64, 54
3, 155655, Note_on_c, 0, 64, 0
3, 155670, Note_on_c, 0, 76, 55
3, 155685, Note_on_c, 0, 76, 0
3, 155700, Note_on_c, 0, 73, 57
3, 155717, Note_on_c, 0, 73, 0
3, 155730, Note_on_c, 0, 76, 58
3, 155745, Note_on_c, 0, 76, 0
3, 155760, Note_on_c, 0, 64, 60
3, 155775, Note_on_c, 0, 64, 0
3, 155790, Note_on_c, 0, 76, 61
3, 155805, Note_on_c, 0, 76, 0
3, 155820, Note_on_c, 0, 73, 63
3, 155837, Note_on_c, 0, 73, 0
3, 155850, Note_on_c, 0, 76, 64
3, 155865, Note_on_c, 0, 76, 0
3, 155880, Note_on_c, 0, 63, 66
3, 155895, Note_on_c, 0, 63, 0
3, 155910, Note_on_c, 0, 75, 68
3, 155925, Note_on_c, 0, 75, 0
3, 155940, Note_on_c, 0, 73, 70
3, 155957, Note_on_c, 0, 73, 0
3, 155970, Note_on_c, 0, 75, 71
3, 155985, Note_on_c, 0, 75, 0
3, 156000, Note_on_c, 0, 63, 73
3, 156015, Note_on_c, 0, 63, 0
3, 156030, Note_on_c, 0, 75, 74
3, 156045, Note_on_c, 0, 75, 0
3, 156060, Note_on_c, 0, 73, 75
3, 156077, Note_on_c, 0, 73, 0
3, 156090, Note_on_c, 0, 75, 77
3, 156105, Note_on_c, 0, 75, 0
3, 156120, Control_c, 0, 64, 0
3, 156120, Control_c, 0, 64, 127
3, 156120, Note_on_c, 0, 63, 78
3, 156135, Note_on_c, 0, 63, 0
3, 156150, Note_on_c, 0, 75, 79
3, 156165, Note_on_c, 0, 75, 0
3, 156180, Note_on_c, 0, 73, 80
3, 156197, Note_on_c, 0, 73, 0
3, 156210, Note_on_c, 0, 75, 81
3, 156225, Note_on_c, 0, 75, 0
3, 156240, Note_on_c, 0, 63, 82
3, 156255, Note_on_c, 0, 63, 0
3, 156270, Note_on_c, 0, 75, 83
3, 156285, Note_on_c, 0, 75, 0
3, 156300, Note_on_c, 0, 73, 84
3, 156317, Note_on_c, 0, 73, 0
3, 156330, Note_on_c, 0, 75, 85
3, 156345, Note_on_c, 0, 75, 0
3, 156360, Control_c, 0, 64, 0
3, 156360, Control_c, 0, 64, 127
3, 156360, Note_on_c, 0, 63, 85
3, 156360, Note_on_c, 0, 72, 85
3, 156360, Note_on_c, 0, 75, 85
3, 156390, Note_on_c, 0, 75, 0
3, 156390, Note_on_c, 0, 72, 0
3, 156390, Note_on_c, 0, 63, 0
3, 156480, Control_c, 0, 64, 0
3, 156480, Note_on_c, 0, 68, 45
3, 156720, Note_on_c, 0, 68, 0
3, 156720, Note_on_c, 0, 69, 45
3, 156780, Note_on_c, 0, 69, 0
3, 156780, Note_on_c, 0, 68, 45
3, 156840, Note_on_c, 0, 68, 0
3, 156840, Note_on_c, 0, 57, 45
3, 156840, Note_on_c, 0, 61, 45
3, 156840, Note_on_c, 0, 66, 45
3, 156960, Note_on_c, 0, 66, 0
3, 156960, Note_on_c, 0, 68, 45
3, 157020, Note_on_c, 0, 68, 0
3, 157020, Note_on_c, 0, 66, 45
3, 157080, Note_on_c, 0, 66, 0
3, 157080, Note_on_c, 0, 61, 0
3, 157080, Note_on_c, 0, 57, 0
3, 157080, Note_on_c, 0, 56, 45
3, 157080, Note_on_c, 0, 59, 45
3, 157080, Note_on_c, 0, 64, 45
3, 157200, Note_on_c, 0, 64, 0
3, 157200, Note_on_c, 0, 66, 45
3, 157260, Note_on_c, 0, 66, 0
3, 157260, Note_on_c, 0, 64, 45
3, 157320, Note_on_c, 0, 64, 0
3, 157320, Note_on_c, 0, 59, 0
3, 157320, Note_on_c, 0, 56, 0
3, 157320, Note_on_c, 0, 54, 48
3, 157320, Note_on_c, 0, 57, 48
3, 157320, Note_on_c, 0, 63, 48
3, 157440, Note_on_c, 0, 63, 0
3, 157440, Note_on_c, 0, 64, 50
3, 157500, Note_on_c, 0, 64, 0
3, 157500, Note_on_c, 0, 63, 50
3, 157560, Note_on_c, 0, 63, 0
3, 157560, Note_on_c, 0, 57, 0
3, 157560, Note_on_c, 0, 54, 0
3, 157560, Note_on_c, 0, 52, 55
3, 157560, Note_on_c, 0, 56, 55
3, 157560, Note_on_c, 0, 61, 55
3, 157680, Note_on_c, 0, 61, 0
3, 157680, Note_on_c, 0, 63, 62
3, 157740, Note_on_c, 0, 63, 0
3, 157740, Note_on_c, 0, 61, 64
3, 157800, Note_on_c, 0, 61, 0
3, 157800, Note_on_c, 0, 56, 0
3, 157800, Note_on_c, 0, 52, 0
3, 157800, Note_on_c, 0, 51, 65
3, 157800, Note_on_c, 0, 54, 65
3, 157800, Note_on_c, 0, 60, 65
3, 158040, Note_on_c, 0, 60, 0
3, 158040, Note_on_c, 0, 54, 0
3, 158040, Note_on_c, 0, 51, 0
3, 158040, Note_on_c, 0, 49, 55
3, 158040, Note_on_c, 0, 52, 55
3, 158040, Note_on_c, 0, 61, 55
3, 158280, Note_on_c, 0, 61, 0
3, 158280, Note_on_c, 0, 52, 0
3, 158280, Note_on_c, 0, 49, 0
3, 158280, Note_on_c, 0, 48, 45
3, 158280, Note_on_c, 0, 56, 45
3, 158280, Note_on_c, 0, 63, 45
3, 158310, Note_on_c, 0, 63, 0
3, 158310, Note_on_c, 0, 56, 0
3, 158310, Note_on_c, 0, 48, 0
3, 158400, Note_on_c, 0, 80, 63
3, 158565, Note_on_c, 0, 80, 0
3, 158580, Note_on_c, 0, 80, 45
3, 158595, Note_on_c, 0, 80, 0
3, 158640, Note_on_c, 0, 81, 55
3, 158655, Note_on_c, 0, 81, 0
3, 158700, Note_on_c, 0, 80, 65
3, 158715, Note_on_c, 0, 80, 0
3, 158760, Note_on_c, 0, 78, 45
3, 158775, Note_on_c, 0, 78, 0
3, 158820, Note_on_c, 0, 69, 45
3, 158820, Note_on_c, 0, 73, 45
3, 158820, Note_on_c, 0, 78, 45
3, 158835, Note_on_c, 0, 78, 0
3, 158835, Note_on_c, 0, 73, 0
3, 158835, Note_on_c, 0, 69, 0
3, 158880, Note_on_c, 0, 71, 63
3, 158880, Note_on_c, 0, 75, 63
3, 158880, Note_on_c, 0, 80, 63
3, 158895, Note_on_c, 0, 80, 0
3, 158895, Note_on_c, 0, 75, 0
3, 158895, Note_on_c, 0, 71, 0
3, 158940, Note_on_c, 0, 69, 45
3, 158940, Note_on_c, 0, 73, 45
3, 158940, Note_on_c, 0, 78, 45
3, 158955, Note_on_c, 0, 78, 0
3, 158955, Note_on_c, 0, 73, 0
3, 158955, Note_on_c, 0, 69, 0
3, 159000, Note_on_c, 0, 68, 45
3, 159000, Note_on_c, 0, 71, 45
3, 159000, Note_on_c, 0, 76, 45
3, 159015, Note_on_c, 0, 76, 0
3, 159015, Note_on_c, 0, 71, 0
3, 159015, Note_on_c, 0, 68, 0
3, 159060, Note_on_c, 0, 68, 55
3, 159060, Note_on_c, 0, 71, 55
3, 159060, Note_on_c, 0, 76, 55
3, 159075, Note_on_c, 0, 76, 0
3, 159075, Note_on_c, 0, 71, 0
3, 159075, Note_on_c, 0, 68, 0
3, 159120, Note_on_c, 0, 69, 63
3, 159120, Note_on_c, 0, 73, 63
3, 159120, Note_on_c, 0, 78, 63
3, 159135, Note_on_c, 0, 78, 0
3, 159135, Note_on_c, 0, 73, 0
3, 159135, Note_on_c, 0, 69, 0
3, 159180, Note_on_c, 0, 68, 45
3, 159180, Note_on_c, 0, 71, 45
3, 159180, Note_on_c, 0, 76, 45
3, 159195, Note_on_c, 0, 76, 0
3, 159195, Note_on_c, 0, 71, 0
3, 159195, Note_on_c, 0, 68, 0
3, 159240, Note_on_c, 0, 66, 45
3, 159240, Note_on_c, 0, 69, 45
3, 159240, Note_on_c, 0, 75, 45
3, 159255, Note_on_c, 0, 75, 0
3, 159255, Note_on_c, 0, 69, 0
3, 159255, Note_on_c, 0, 66, 0
3, 159300, Note_on_c, 0, 66, 50
3, 159300, Note_on_c, 0, 69, 50
3, 159300, Note_on_c, 0, 75, 50
3, 159315, Note_on_c, 0, 75, 0
3, 159315, Note_on_c, 0, 69, 0
3, 159315, Note_on_c, 0, 66, 0
3, 159360, Note_on_c, 0, 68, 55
3, 159360, Note_on_c, 0, 71, 55
3, 159360, Note_on_c, 0, 76, 55
3, 159375, Note_on_c, 0, 76, 0
3, 159375, Note_on_c, 0, 71, 0
3, 159375, Note_on_c, 0, 68, 0
3, 159420, Note_on_c, 0, 66, 60
3, 159420, Note_on_c, 0, 69, 60
3, 159420, Note_on_c, 0, 75, 60
3, 159435, Note_on_c, 0, 75, 0
3, 159435, Note_on_c, 0, 69, 0
3, 159435, Note_on_c, 0, 66, 0
3, 159480, Note_on_c, 0, 64, 45
3, 159480, Note_on_c, 0, 68, 45
3, 159480, Note_on_c, 0, 73, 45
3, 159495, Note_on_c, 0, 73, 0
3, 159495, Note_on_c, 0, 68, 0
3, 159495, Note_on_c, 0, 64, 0
3, 159540, Note_on_c, 0, 64, 50
3, 159540, Note_on_c, 0, 68, 50
3, 159540, Note_on_c, 0, 73, 50
3, 159555, Note_on_c, 0, 73, 0
3, 159555, Note_on_c, 0, 68, 0
3, 159555, Note_on_c, 0, 64, 0
3, 159600, Note_on_c, 0, 66, 55
3, 159600, Note_on_c, 0, 69, 55
3, 159600, Note_on_c, 0, 75, 55
3, 159615, Note_on_c, 0, 75, 0
3, 159615, Note_on_c, 0, 69, 0
3, 159615, Note_on_c, 0, 66, 0
3, 159660, Note_on_c, 0, 64, 60
3, 159660, Note_on_c, 0, 68, 60
3, 159660, Note_on_c, 0, 73, 60
3, 159675, Note_on_c, 0, 73, 0
3, 159675, Note_on_c, 0, 68, 0
3, 159675, Note_on_c, 0, 64, 0
3, 159720, Note_on_c, 0, 63, 45
3, 159720, Note_on_c, 0, 66, 45
3, 159720, Note_on_c, 0, 72, 45
3, 159960, Note_on_c, 0, 72, 0
3, 159960, Note_on_c, 0, 66, 0
3, 159960, Note_on_c, 0, 63, 0
3, 159960, Note_on_c, 0, 61, 60
3, 159960, Note_on_c, 0, 64, 60
3, 159960, Note_on_c, 0, 73, 60
3, 160200, Note_on_c, 0, 73, 0
3, 160200, Note_on_c, 0, 64, 0
3, 160200, Note_on_c, 0, 61, 0
3, 160200, Control_c, 0, 64, 127
3, 160207, Note_on_c, 0, 60, 60
3, 160215, Note_on_c, 0, 66, 60
3, 160222, Note_on_c, 0, 75, 60
3, 160559, Note_on_c, 0, 75, 0
3, 160559, Note_on_c, 0, 60, 0
3, 160560, Note_on_c, 0, 66, 0
3, 160560, Control_c, 0, 64, 0
3, 160560, Control_c, 0, 64, 127
3, 160560, Note_on_c, 0, 61, 45
3, 160560, Note_on_c, 0, 64, 45
3, 160560, Note_on_c, 0, 73, 45
3, 160650, Note_on_c, 0, 73, 0
3, 160650, Note_on_c, 0, 64, 0
3, 160650, Note_on_c, 0, 61, 0
3, 160680, Control_c, 0, 64, 0
3, 160680, Note_on_c, 0, 63, 50
3, 160680, Note_on_c, 0, 66, 50
3, 160680, Note_on_c, 0, 72, 50
3, 160710, Note_on_c, 0, 72, 0
3, 160710, Note_on_c, 0, 66, 0
3, 160710, Note_on_c, 0, 63, 0
3, 160800, Note_on_c, 0, 63, 55
3, 160800, Note_on_c, 0, 66, 55
3, 160800, Note_on_c, 0, 72, 55
3, 160830, Note_on_c, 0, 72, 0
3, 160830, Note_on_c, 0, 66, 0
3, 160830, Note_on_c, 0, 63, 0
3, 160920, Note_on_c, 0, 61, 60
3, 160920, Note_on_c, 0, 64, 60
3, 160920, Note_on_c, 0, 73, 60
3, 160950, Note_on_c, 0, 73, 0
3, 160950, Note_on_c, 0, 64, 0
3, 160950, Note_on_c, 0, 61, 0
3, 161040, Note_on_c, 0, 61, 65
3, 161040, Note_on_c, 0, 64, 65
3, 161040, Note_on_c, 0, 73, 65
3, 161070, Note_on_c, 0, 73, 0
3, 161070, Note_on_c, 0, 64, 0
3, 161070, Note_on_c, 0, 61, 0
3, 161160, Control_c, 0, 64, 127
3, 161167, Note_on_c, 0, 60, 65
3, 161175, Note_on_c, 0, 66, 65
3, 161182, Note_on_c, 0, 75, 65
3, 161519, Note_on_c, 0, 75, 0
3, 161519, Note_on_c, 0, 60, 0
3, 161520, Note_on_c, 0, 66, 0
3, 161520, Control_c, 0, 64, 0
3, 161520, Control_c, 0, 64, 127
3, 161520, Note_on_c, 0, 61, 45
3, 161520, Note_on_c, 0, 64, 45
3, 161580, Note_on_c, 0, 64, 0
3, 161580, Note_on_c, 0, 61, 0
3, 161580, Note_on_c, 0, 73, 45
3, 161610, Note_on_c, 0, 73, 0
3, 161640, Control_c, 0, 64, 0
3, 161640, Note_on_c, 0, 63, 47
3, 161640, Note_on_c, 0, 66, 47
3, 161700, Note_on_c, 0, 66, 0
3, 161700, Note_on_c, 0, 63, 0
3, 161700, Note_on_c, 0, 72, 50
3, 161730, Note_on_c, 0, 72, 0
3, 161760, Note_on_c, 0, 63, 53
3, 161760, Note_on_c, 0, 66, 53
3, 161820, Note_on_c, 0, 66, 0
3, 161820, Note_on_c, 0, 63, 0
3, 161820, Note_on_c, 0, 72, 56
3, 161850, Note_on_c, 0, 72, 0
3, 161880, Note_on_c, 0, 61, 59
3, 161880, Note_on_c, 0, 64, 59
3, 161940, Note_on_c, 0, 64, 0
3, 161940, Note_on_c, 0, 61, 0
3, 161940, Note_on_c, 0, 73, 62
3, 161970, Note_on_c, 0, 73, 0
3, 162000, Note_on_c, 0, 61, 65
3, 162000, Note_on_c, 0, 64, 65
3, 162060, Note_on_c, 0, 64, 0
3, 162060, Note_on_c, 0, 61, 0
3, 162060, Note_on_c, 0, 73, 68
3, 162090, Note_on_c, 0, 73, 0
3, 162120, Control_c, 0, 64, 127
3, 162120, Note_on_c, 0, 60, 45
3, 162120, Note_on_c, 0, 66, 45
3, 162180, Note_on_c, 0, 66, 0
3, 162180, Note_on_c, 0, 60, 0
3, 162180, Note_on_c, 0, 75, 50
3, 162210, Note_on_c, 0, 75, 0
3, 162240, Note_on_c, 0, 60, 55
3, 162240, Note_on_c, 0, 66, 55
3, 162300, Note_on_c, 0, 66, 0
3, 162300, Note_on_c, 0, 60, 0
3, 162300, Note_on_c, 0, 75, 60
3, 162330, Note_on_c, 0, 75, 0
3, 162360, Control_c, 0, 64, 0
3, 162360, Control_c, 0, 64, 127
3, 162360, Note_on_c, 0, 61, 60
3, 162360, Note_on_c, 0, 64, 60
3, 162420, Note_on_c, 0, 64, 0
3, 162420, Note_on_c, 0, 61, 0
3, 162420, Note_on_c, 0, 73, 55
3, 162450, Note_on_c, 0, 73, 0
3, 162480, Note_on_c, 0, 61, 50
3, 162480, Note_on_c, 0, 64, 50
3, 162540, Note_on_c, 0, 64, 0
3, 162540, Note_on_c, 0, 61, 0
3, 162540, Note_on_c, 0, 73, 45
3, 162570, Note_on_c, 0, 73, 0
3, 162600, Control_c, 0, 64, 0
3, 162600, Note_on_c, 0, 57, 45
3, 162600, Note_on_c, 0, 61, 45
3, 162600, Note_on_c, 0, 63, 45
3, 162600, Note_on_c, 0, 69, 45
3, 163050, Note_on_c, 0, 69, 0
3, 163050, Note_on_c, 0, 57, 0
3, 163050, Note_on_c, 0, 61, 0
3, 163050, Note_on_c, 0, 63, 0
3, 163080, Note_on_c, 0, 56, 30
3, 163080, Note_on_c, 0, 60, 30
3, 163080, Note_on_c, 0, 63, 30
3, 163080, Note_on_c, 0, 68, 30
3, 163530, Note_on_c, 0, 68, 0
3, 163530, Note_on_c, 0, 56, 0
3, 163530, Note_on_c, 0, 60, 0
3, 163530, Note_on_c, 0, 63, 0
3, 163590, Note_on_c, 0, 44, 45
3, 163605, Note_on_c, 0, 44, 0
3, 163620, Note_on_c, 0, 49, 45
3, 163635, Note_on_c, 0, 49, 0
3, 163650, Note_on_c, 0, 52, 45
3, 163665, Note_on_c, 0, 52, 0
3, 163680, Note_on_c, 0, 56, 45
3, 163695, Note_on_c, 0, 56, 0
3, 163710, Note_on_c, 0, 49, 45
3, 163725, Note_on_c, 0, 49, 0
3, 163740, Note_on_c, 0, 52, 45
3, 163755, Note_on_c, 0, 52, 0
3, 163770, Note_on_c, 0, 56, 45
3, 163785, Note_on_c, 0, 56, 0
3, 163800, Note_on_c, 0, 61, 45
3, 163815, Note_on_c, 0, 61, 0
3, 163830, Note_on_c, 0, 52, 45
3, 163845, Note_on_c, 0, 52, 0
3, 163860, Note_on_c, 0, 56, 45
3, 163875, Note_on_c, 0, 56, 0
3, 163890, Note_on_c, 0, 61, 45
3, 163905, Note_on_c, 0, 61, 0
3, 163920, Note_on_c, 0, 64, 45
3, 163935, Note_on_c, 0, 64, 0
3, 163950, Note_on_c, 0, 56, 45
3, 163965, Note_on_c, 0, 56, 0
3, 163980, Note_on_c, 0, 61, 45
3, 163995, Note_on_c, 0, 61, 0
3, 164010, Note_on_c, 0, 64, 45
3, 164025, Note_on_c, 0, 64, 0
3, 164040, Note_on_c, 0, 68, 45
3, 164055, Note_on_c, 0, 68, 0
3, 164070, Note_on_c, 0, 61, 45
3, 164085, Note_on_c, 0, 61, 0
3, 164100, Note_on_c, 0, 64, 45
3, 164115, Note_on_c, 0, 64, 0
3, 164130, Note_on_c, 0, 68, 45
3, 164145, Note_on_c, 0, 68, 0
3, 164160, Note_on_c, 0, 73, 45
3, 164175, Note_on_c, 0, 73, 0
3, 164190, Note_on_c, 0, 64, 45
3, 164205, Note_on_c, 0, 64, 0
3, 164220, Note_on_c, 0, 68, 45
3, 164235, Note_on_c, 0, 68, 0
3, 164250, Note_on_c, 0, 73, 45
3, 164265, Note_on_c, 0, 73, 0
3, 164280, Note_on_c, 0, 76, 45
3, 164295, Note_on_c, 0, 76, 0
3, 164310, Note_on_c, 0, 68, 45
3, 164325, Note_on_c, 0, 68, 0
3, 164340, Note_on_c, 0, 73, 45
3, 164355, Note_on_c, 0, 73, 0
3, 164370, Note_on_c, 0, 76, 45
3, 164385, Note_on_c, 0, 76, 0
3, 164400, Note_on_c, 0, 68, 75
3, 164400, Note_on_c, 0, 73, 75
3, 164400, Note_on_c, 0, 76, 75
3, 164400, Note_on_c, 0, 80, 75
3, 164407, Note_on_c, 0, 80, 0
3, 164407, Note_on_c, 0, 68, 0
3, 164407, Note_on_c, 0, 73, 0
3, 164407, Note_on_c, 0, 76, 0
3, 164460, Note_on_c, 0, 68, 60
3, 164460, Note_on_c, 0, 73, 60
3, 164460, Note_on_c, 0, 76, 60
3, 164460, Note_on_c, 0, 80, 60
3, 164468, Note_on_c, 0, 80, 0
3, 164468, Note_on_c, 0, 68, 0
3, 164468, Note_on_c, 0, 73, 0
3, 164468, Note_on_c, 0, 76, 0
3, 164550, Note_on_c, 0, 44, 45
3, 164565, Note_on_c, 0, 44, 0
3, 164580, Note_on_c, 0, 48, 45
3, 164595, Note_on_c, 0, 48, 0
3, 164610, Note_on_c, 0, 51, 45
3, 164625, Note_on_c, 0, 51, 0
3, 164640, Note_on_c, 0, 56, 45
3, 164655, Note_on_c, 0, 56, 0
3, 164670, Note_on_c, 0, 48, 45
3, 164685, Note_on_c, 0, 48, 0
3, 164700, Note_on_c, 0, 51, 45
3, 164715, Note_on_c, 0, 51, 0
3, 164730, Note_on_c, 0, 56, 45
3, 164745, Note_on_c, 0, 56, 0
3, 164760, Note_on_c, 0, 60, 45
3, 164775, Note_on_c, 0, 60, 0
3, 164790, Note_on_c, 0, 51, 45
3, 164805, Note_on_c, 0, 51, 0
3, 164820, Note_on_c, 0, 56, 45
3, 164835, Note_on_c, 0, 56, 0
3, 164850, Note_on_c, 0, 60, 45
3, 164865, Note_on_c, 0, 60, 0
3, 164880, Note_on_c, 0, 63, 45
3, 164895, Note_on_c, 0, 63, 0
3, 164910, Note_on_c, 0, 56, 45
3, 164925, Note_on_c, 0, 56, 0
3, 164940, Note_on_c, 0, 60, 45
3, 164955, Note_on_c, 0, 60, 0
3, 164970, Note_on_c, 0, 63, 45
3, 164985, Note_on_c, 0, 63, 0
3, 165000, Note_on_c, 0, 68, 45
3, 165015, Note_on_c, 0, 68, 0
3, 165030, Note_on_c, 0, 60, 45
3, 165045, Note_on_c, 0, 60, 0
3, 165060, Note_on_c, 0, 63, 45
3, 165075, Note_on_c, 0, 63, 0
3, 165090, Note_on_c, 0, 68, 45
3, 165105, Note_on_c, 0, 68, 0
3, 165120, Note_on_c, 0, 72, 45
3, 165135, Note_on_c, 0, 72, 0
3, 165150, Note_on_c, 0, 63, 45
3, 165165, Note_on_c, 0, 63, 0
3, 165180, Note_on_c, 0, 68, 45
3, 165195, Note_on_c, 0, 68, 0
3, 165210, Note_on_c, 0, 72, 45
3, 165225, Note_on_c, 0, 72, 0
3, 165240, Note_on_c, 0, 75, 45
3, 165255, Note_on_c, 0, 75, 0
3, 165270, Note_on_c, 0, 68, 45
3, 165300, Note_on_c, 0, 68, 0
3, 165300, Note_on_c, 0, 72, 45
3, 165330, Note_on_c, 0, 72, 0
3, 165330, Note_on_c, 0, 75, 45
3, 165345, Note_on_c, 0, 75, 0
3, 165360, Note_on_c, 0, 68, 80
3, 165360, Note_on_c, 0, 72, 80
3, 165360, Note_on_c, 0, 75, 80
3, 165360, Note_on_c, 0, 80, 80
3, 165367, Note_on_c, 0, 80, 0
3, 165367, Note_on_c, 0, 68, 0
3, 165367, Note_on_c, 0, 72, 0
3, 165367, Note_on_c, 0, 75, 0
3, 165420, Note_on_c, 0, 68, 60
3, 165420, Note_on_c, 0, 72, 60
3, 165420, Note_on_c, 0, 75, 60
3, 165420, Note_on_c, 0, 80, 60
3, 165428, Note_on_c, 0, 80, 0
3, 165428, Note_on_c, 0, 68, 0
3, 165428, Note_on_c, 0, 72, 0
3, 165428, Note_on_c, 0, 75, 0
3, 165510, Note_on_c, 0, 49, 45
3, 165525, Note_on_c, 0, 49, 0
3, 165540, Note_on_c, 0, 53, 45
3, 165555, Note_on_c, 0, 53, 0
3, 165570, Note_on_c, 0, 56, 45
3, 165585, Note_on_c, 0, 56, 0
3, 165600, Note_on_c, 0, 61, 45
3, 165615, Note_on_c, 0, 61, 0
3, 165630, Note_on_c, 0, 53, 45
3, 165645, Note_on_c, 0, 53, 0
3, 165660, Note_on_c, 0, 56, 45
3, 165675, Note_on_c, 0, 56, 0
3, 165690, Note_on_c, 0, 61, 45
3, 165705, Note_on_c, 0, 61, 0
3, 165720, Note_on_c, 0, 65, 45
3, 165735, Note_on_c, 0, 65, 0
3, 165750, Note_on_c, 0, 56, 45
3, 165765, Note_on_c, 0, 56, 0
3, 165780, Note_on_c, 0, 61, 45
3, 165795, Note_on_c, 0, 61, 0
3, 165810, Note_on_c, 0, 65, 45
3, 165825, Note_on_c, 0, 65, 0
3, 165840, Note_on_c, 0, 68, 45
3, 165855, Note_on_c, 0, 68, 0
3, 165870, Note_on_c, 0, 61, 45
3, 165885, Note_on_c, 0, 61, 0
3, 165900, Note_on_c, 0, 65, 45
3, 165915, Note_on_c, 0, 65, 0
3, 165930, Note_on_c, 0, 68, 45
3, 165945, Note_on_c, 0, 68, 0
3, 165960, Note_on_c, 0, 73, 45
3, 165975, Note_on_c, 0, 73, 0
3, 165990, Note_on_c, 0, 65, 45
3, 166005, Note_on_c, 0, 65, 0
3, 166020, Note_on_c, 0, 68, 45
3, 166035, Note_on_c, 0, 68, 0
3, 166050, Note_on_c, 0, 73, 45
3, 166065, Note_on_c, 0, 73, 0
3, 166080, Note_on_c, 0, 77, 45
3, 166095, Note_on_c, 0, 77, 0
3, 166110, Note_on_c, 0, 68, 45
3, 166125, Note_on_c, 0, 68, 0
3, 166140, Note_on_c, 0, 73, 45
3, 166155, Note_on_c, 0, 73, 0
3, 166170, Note_on_c, 0, 77, 45
3, 166185, Note_on_c, 0, 77, 0
3, 166200, Note_on_c, 0, 80, 45
3, 166215, Note_on_c, 0, 80, 0
3, 166230, Note_on_c, 0, 73, 45
3, 166245, Note_on_c, 0, 73, 0
3, 166260, Note_on_c, 0, 77, 45
3, 166275, Note_on_c, 0, 77, 0
3, 166290, Note_on_c, 0, 80, 45
3, 166305, Note_on_c, 0, 80, 0
3, 166320, Note_on_c, 0, 73, 80
3, 166320, Note_on_c, 0, 77, 80
3, 166320, Note_on_c, 0, 80, 80
3, 166320, Note_on_c, 0, 85, 80
3, 166327, Note_on_c, 0, 85, 0
3, 166327, Note_on_c, 0, 73, 0
3, 166327, Note_on_c, 0, 77, 0
3, 166327, Note_on_c, 0, 80, 0
3, 166380, Note_on_c, 0, 73, 60
3, 166380, Note_on_c, 0, 77, 60
3, 166380, Note_on_c, 0, 80, 60
3, 166380, Note_on_c, 0, 85, 60
3, 166388, Note_on_c, 0, 85, 0
3, 166388, Note_on_c, 0, 73, 0
3, 166388, Note_on_c, 0, 77, 0
3, 166388, Note_on_c, 0, 80, 0
3, 166470, Note_on_c, 0, 49, 45
3, 166485, Note_on_c, 0, 49, 0
3, 166500, Note_on_c, 0, 54, 45
3, 166515, Note_on_c, 0, 54, 0
3, 166530, Note_on_c, 0, 57, 45
3, 166560, Note_on_c, 0, 57, 0
3, 166560, Note_on_c, 0, 61, 45
3, 166575, Note_on_c, 0, 61, 0
3, 166590, Note_on_c, 0, 61, 45
3, 166605, Note_on_c, 0, 61, 0
3, 166620, Note_on_c, 0, 66, 45
3, 166635, Note_on_c, 0, 66, 0
3, 166650, Note_on_c, 0, 69, 45
3, 166680, Note_on_c, 0, 69, 0
3, 166680, Note_on_c, 0, 73, 45
3, 166695, Note_on_c, 0, 73, 0
3, 166725, Note_on_c, 0, 73, 45
3, 166740, Note_on_c, 0, 73, 0
3, 166740, Note_on_c, 0, 78, 45
3, 166755, Note_on_c, 0, 78, 0
3, 166770, Note_on_c, 0, 81, 45
3, 166785, Note_on_c, 0, 81, 0
3, 166800, Note_on_c, 0, 73, 80
3, 166800, Note_on_c, 0, 78, 80
3, 166800, Note_on_c, 0, 85, 80
3, 166807, Note_on_c, 0, 85, 0
3, 166807, Note_on_c, 0, 78, 0
3, 166807, Note_on_c, 0, 73, 0
3, 166860, Note_on_c, 0, 73, 60
3, 166860, Note_on_c, 0, 78, 60
3, 166860, Note_on_c, 0, 85, 60
3, 166868, Note_on_c, 0, 85, 0
3, 166868, Note_on_c, 0, 78, 0
3, 166868, Note_on_c, 0, 73, 0
3, 166950, Note_on_c, 0, 49, 45
3, 166965, Note_on_c, 0, 49, 0
3, 166980, Note_on_c, 0, 51, 45
3, 166995, Note_on_c, 0, 51, 0
3, 167010, Note_on_c, 0, 55, 45
3, 167025, Note_on_c, 0, 55, 0
3, 167040, Note_on_c, 0, 61, 45
3, 167055, Note_on_c, 0, 61, 0
3, 167070, Note_on_c, 0, 61, 45
3, 167085, Note_on_c, 0, 61, 0
3, 167100, Note_on_c, 0, 64, 45
3, 167115, Note_on_c, 0, 64, 0
3, 167130, Note_on_c, 0, 67, 45
3, 167160, Note_on_c, 0, 67, 0
3, 167160, Note_on_c, 0, 73, 45
3, 167175, Note_on_c, 0, 73, 0
3, 167190, Note_on_c, 0, 73, 45
3, 167205, Note_on_c, 0, 73, 0
3, 167220, Note_on_c, 0, 76, 45
3, 167235, Note_on_c, 0, 76, 0
3, 167250, Note_on_c, 0, 79, 45
3, 167265, Note_on_c, 0, 79, 0
3, 167280, Note_on_c, 0, 73, 80
3, 167280, Note_on_c, 0, 79, 80
3, 167280, Note_on_c, 0, 85, 80
3, 167287, Note_on_c, 0, 85, 0
3, 167287, Note_on_c, 0, 79, 0
3, 167287, Note_on_c, 0, 73, 0
3, 167340, Note_on_c, 0, 73, 80
3, 167340, Note_on_c, 0, 79, 80
3, 167340, Note_on_c, 0, 85, 80
3, 167348, Note_on_c, 0, 85, 0
3, 167348, Note_on_c, 0, 79, 0
3, 167348, Note_on_c, 0, 73, 0
3, 167400, Control_c, 0, 64, 127
3, 167400, Note_on_c, 0, 72, 80
3, 167400, Note_on_c, 0, 80, 85
3, 167400, Note_on_c, 0, 84, 80
3, 167407, Note_on_c, 0, 84, 0
3, 167407, Note_on_c, 0, 80, 0
3, 167407, Note_on_c, 0, 72, 0
3, 167460, Control_c, 0, 64, 0
3, 167460, Note_on_c, 0, 68, 75
3, 167475, Note_on_c, 0, 68, 0
3, 167490, Note_on_c, 0, 80, 70
3, 167505, Note_on_c, 0, 80, 0
3, 167520, Note_on_c, 0, 68, 65
3, 167535, Note_on_c, 0, 68, 0
3, 167550, Note_on_c, 0, 80, 60
3, 167565, Note_on_c, 0, 80, 0
3, 167580, Note_on_c, 0, 70, 55
3, 167595, Note_on_c, 0, 70, 0
3, 167610, Note_on_c, 0, 80, 50
3, 167625, Note_on_c, 0, 80, 0
3, 167640, Note_on_c, 0, 72, 52
3, 167655, Note_on_c, 0, 72, 0
3, 167670, Note_on_c, 0, 80, 54
3, 167685, Note_on_c, 0, 80, 0
3, 167700, Note_on_c, 0, 73, 56
3, 167715, Note_on_c, 0, 73, 0
3, 167730, Note_on_c, 0, 80, 58
3, 167745, Note_on_c, 0, 80, 0
3, 167760, Note_on_c, 0, 75, 60
3, 167775, Note_on_c, 0, 75, 0
3, 167790, Note_on_c, 0, 80, 62
3, 167805, Note_on_c, 0, 80, 0
3, 167820, Note_on_c, 0, 72, 64
3, 167835, Note_on_c, 0, 72, 0
3, 167850, Note_on_c, 0, 80, 66
3, 167865, Note_on_c, 0, 80, 0
3, 167880, Note_on_c, 0, 75, 68
3, 167895, Note_on_c, 0, 75, 0
3, 167910, Note_on_c, 0, 80, 70
3, 167925, Note_on_c, 0, 80, 0
3, 167940, Note_on_c, 0, 73, 72
3, 167955, Note_on_c, 0, 73, 0
3, 167970, Note_on_c, 0, 80, 74
3, 167985, Note_on_c, 0, 80, 0
3, 168000, Note_on_c, 0, 78, 75
3, 168015, Note_on_c, 0, 78, 0
3, 168030, Note_on_c, 0, 80, 75
3, 168045, Note_on_c, 0, 80, 0
3, 168060, Note_on_c, 0, 76, 75
3, 168075, Note_on_c, 0, 76, 0
3, 168090, Note_on_c, 0, 80, 75
3, 168105, Note_on_c, 0, 80, 0
3, 168120, Note_on_c, 0, 75, 73
3, 168135, Note_on_c, 0, 75, 0
3, 168150, Note_on_c, 0, 80, 71
3, 168165, Note_on_c, 0, 80, 0
3, 168180, Note_on_c, 0, 73, 69
3, 168195, Note_on_c, 0, 73, 0
3, 168210, Note_on_c, 0, 80, 67
3, 168225, Note_on_c, 0, 80, 0
3, 168240, Note_on_c, 0, 72, 65
3, 168255, Note_on_c, 0, 72, 0
3, 168270, Note_on_c, 0, 80, 63
3, 168285, Note_on_c, 0, 80, 0
3, 168300, Note_on_c, 0, 69, 61
3, 168315, Note_on_c, 0, 69, 0
3, 168330, Note_on_c, 0, 79, 59
3, 168345, Note_on_c, 0, 79, 0
3, 168360, Note_on_c, 0, 68, 57
3, 168375, Note_on_c, 0, 68, 0
3, 168390, Note_on_c, 0, 80, 55
3, 168405, Note_on_c, 0, 80, 0
3, 168420, Note_on_c, 0, 68, 53
3, 168435, Note_on_c, 0, 68, 0
3, 168450, Note_on_c, 0, 80, 51
3, 168465, Note_on_c, 0, 80, 0
3, 168480, Note_on_c, 0, 68, 49
3, 168495, Note_on_c, 0, 68, 0
3, 168510, Note_on_c, 0, 80, 51
3, 168525, Note_on_c, 0, 80, 0
3, 168540, Note_on_c, 0, 70, 53
3, 168555, Note_on_c, 0, 70, 0
3, 168570, Note_on_c, 0, 80, 55
3, 168585, Note_on_c, 0, 80, 0
3, 168600, Note_on_c, 0, 72, 57
3, 168615, Note_on_c, 0, 72, 0
3, 168630, Note_on_c, 0, 80, 59
3, 168645, Note_on_c, 0, 80, 0
3, 168660, Note_on_c, 0, 73, 61
3, 168675, Note_on_c, 0, 73, 0
3, 168690, Note_on_c, 0, 80, 63
3, 168705, Note_on_c, 0, 80, 0
3, 168720, Note_on_c, 0, 75, 65
3, 168735, Note_on_c, 0, 75, 0
3, 168750, Note_on_c, 0, 80, 67
3, 168765, Note_on_c, 0, 80, 0
3, 168780, Note_on_c, 0, 72, 69
3, 168795, Note_on_c, 0, 72, 0
3, 168810, Note_on_c, 0, 80, 71
3, 168825, Note_on_c, 0, 80, 0
3, 168840, Note_on_c, 0, 75, 73
3, 168855, Note_on_c, 0, 75, 0
3, 168870, Note_on_c, 0, 80, 75
3, 168885, Note_on_c, 0, 80, 0
3, 168900, Note_on_c, 0, 73, 75
3, 168915, Note_on_c, 0, 73, 0
3, 168930, Note_on_c, 0, 80, 75
3, 168945, Note_on_c, 0, 80, 0
3, 168960, Note_on_c, 0, 78, 75
3, 168975, Note_on_c, 0, 78, 0
3, 168990, Note_on_c, 0, 80, 75
3, 169005, Note_on_c, 0, 80, 0
3, 169020, Note_on_c, 0, 76, 75
3, 169035, Note_on_c, 0, 76, 0
3, 169050, Note_on_c, 0, 80, 75
3, 169065, Note_on_c, 0, 80, 0
3, 169080, Note_on_c, 0, 75, 71
3, 169095, Note_on_c, 0, 75, 0
3, 169110, Note_on_c, 0, 80, 67
3, 169125, Note_on_c, 0, 80, 0
3, 169140, Note_on_c, 0, 73, 63
3, 169155, Note_on_c, 0, 73, 0
3, 169170, Note_on_c, 0, 80, 59
3, 169185, Note_on_c, 0, 80, 0
3, 169200, Note_on_c, 0, 72, 55
3, 169215, Note_on_c, 0, 72, 0
3, 169230, Note_on_c, 0, 80, 51
3, 169245, Note_on_c, 0, 80, 0
3, 169260, Note_on_c, 0, 69, 47
3, 169275, Note_on_c, 0, 69, 0
3, 169290, Note_on_c, 0, 79, 43
3, 169305, Note_on_c, 0, 79, 0
3, 169320, Note_on_c, 0, 68, 43
3, 169335, Note_on_c, 0, 68, 0
3, 169350, Note_on_c, 0, 80, 45
3, 169365, Note_on_c, 0, 80, 0
3, 169380, Note_on_c, 0, 69, 47
3, 169395, Note_on_c, 0, 69, 0
3, 169410, Note_on_c, 0, 79, 49
3, 169425, Note_on_c, 0, 79, 0
3, 169440, Note_on_c, 0, 68, 51
3, 169455, Note_on_c, 0, 68, 0
3, 169470, Note_on_c, 0, 80, 53
3, 169485, Note_on_c, 0, 80, 0
3, 169500, Note_on_c, 0, 69, 55
3, 169515, Note_on_c, 0, 69, 0
3, 169530, Note_on_c, 0, 79, 57
3, 169545, Note_on_c, 0, 79, 0
3, 169560, Note_on_c, 0, 68, 59
3, 169575, Note_on_c, 0, 68, 0
3, 169590, Note_on_c, 0, 80, 61
3, 169605, Note_on_c, 0, 80, 0
3, 169620, Note_on_c, 0, 69, 63
3, 169635, Note_on_c, 0, 69, 0
3, 169650, Note_on_c, 0, 79, 65
3, 169665, Note_on_c, 0, 79, 0
3, 169680, Note_on_c, 0, 68, 67
3, 169695, Note_on_c, 0, 68, 0
3, 169710, Note_on_c, 0, 80, 69
3, 169725, Note_on_c, 0, 80, 0
3, 169740, Note_on_c, 0, 69, 71
3, 169755, Note_on_c, 0, 69, 0
3, 169770, Note_on_c, 0, 79, 73
3, 169785, Note_on_c, 0, 79, 0
3, 169800, Note_on_c, 0, 68, 78
3, 169800, Note_on_c, 0, 80, 78
3, 169830, Note_on_c, 0, 80, 0
3, 169830, Note_on_c, 0, 68, 0
3, 169920, Control_c, 0, 64, 127
3, 169920, Note_on_c, 0, 56, 85
3, 170279, Note_on_c, 0, 56, 0
3, 170280, Control_c, 0, 64, 0
3, 170400, Note_on_c, 0, 68, 50
3, 170640, Note_on_c, 0, 68, 0
3, 170640, Note_on_c, 0, 64, 50
3, 170730, Note_on_c, 0, 64, 0
3, 170730, Note_on_c, 0, 61, 50
3, 170745, Note_on_c, 0, 61, 0
3, 170760, Note_on_c, 0, 60, 50
3, 170770, Note_on_c, 0, 60, 0
3, 170770, Note_on_c, 0, 61, 48
3, 170780, Note_on_c, 0, 61, 0
3, 170780, Note_on_c, 0, 63, 46
3, 170790, Note_on_c, 0, 63, 0
3, 170790, Note_on_c, 0, 61, 44
3, 170880, Note_on_c, 0, 61, 0
3, 170880, Note_on_c, 0, 60, 42
3, 171045, Note_on_c, 0, 60, 0
3, 171060, Note_on_c, 0, 60, 50
3, 171120, Note_on_c, 0, 60, 0
3, 171120, Note_on_c, 0, 68, 60
3, 171210, Note_on_c, 0, 68, 0
3, 171210, Note_on_c, 0, 60, 50
3, 171232, Note_on_c, 0, 60, 0
3, 171240, Note_on_c, 0, 63, 50
3, 171360, Note_on_c, 0, 63, 0
3, 171360, Note_on_c, 0, 61, 50
3, 171525, Note_on_c, 0, 61, 0
3, 171540, Note_on_c, 0, 61, 55
3, 171600, Note_on_c, 0, 61, 0
3, 171600, Note_on_c, 0, 68, 60
3, 171690, Note_on_c, 0, 68, 0
3, 171690, Note_on_c, 0, 61, 55
3, 171712, Note_on_c, 0, 61, 0
3, 171720, Note_on_c, 0, 64, 60
3, 171840, Note_on_c, 0, 64, 0
3, 171840, Note_on_c, 0, 63, 50
3, 172005, Note_on_c, 0, 63, 0
3, 172020, Note_on_c, 0, 63, 50
3, 172080, Note_on_c, 0, 68, 60
3, 172170, Note_on_c, 0, 68, 0
3, 172192, Note_on_c, 0, 63, 0
3, 172200, Note_on_c, 0, 64, 60
3, 172215, Note_on_c, 0, 64, 0
3, 172260, Control_c, 0, 64, 127
3, 172260, Note_on_c, 0, 68, 50
3, 172260, Note_on_c, 0, 80, 50
3, 172380, Note_on_c, 0, 80, 0
3, 172380, Note_on_c, 0, 68, 0
3, 172380, Note_on_c, 0, 68, 52
3, 172380, Note_on_c, 0, 80, 52
3, 172500, Note_on_c, 0, 80, 0
3, 172500, Note_on_c, 0, 68, 0
3, 172500, Note_on_c, 0, 68, 54
3, 172500, Note_on_c, 0, 80, 54
3, 172515, Note_on_c, 0, 80, 0
3, 172515, Note_on_c, 0, 68, 0
3, 172560, Note_on_c, 0, 64, 56
3, 172560, Note_on_c, 0, 76, 56
3, 172575, Note_on_c, 0, 76, 0
3, 172575, Note_on_c, 0, 64, 0
3, 172620, Note_on_c, 0, 61, 58
3, 172620, Note_on_c, 0, 73, 58
3, 172635, Note_on_c, 0, 73, 0
3, 172635, Note_on_c, 0, 61, 0
3, 172680, Control_c, 0, 64, 0
3, 172680, Note_on_c, 0, 61, 60
3, 172680, Note_on_c, 0, 73, 60
3, 172695, Note_on_c, 0, 73, 0
3, 172695, Note_on_c, 0, 61, 0
3, 172740, Control_c, 0, 64, 127
3, 172740, Note_on_c, 0, 60, 62
3, 172740, Note_on_c, 0, 72, 62
3, 172860, Note_on_c, 0, 72, 0
3, 172860, Note_on_c, 0, 60, 0
3, 172860, Note_on_c, 0, 60, 63
3, 172860, Note_on_c, 0, 72, 63
3, 172980, Note_on_c, 0, 72, 0
3, 172980, Note_on_c, 0, 60, 0
3, 172980, Note_on_c, 0, 60, 64
3, 172980, Note_on_c, 0, 72, 64
3, 172995, Note_on_c, 0, 72, 0
3, 172995, Note_on_c, 0, 60, 0
3, 173040, Note_on_c, 0, 68, 65
3, 173040, Note_on_c, 0, 80, 65
3, 173055, Note_on_c, 0, 80, 0
3, 173055, Note_on_c, 0, 68, 0
3, 173100, Note_on_c, 0, 60, 66
3, 173100, Note_on_c, 0, 72, 66
3, 173115, Note_on_c, 0, 72, 0
3, 173115, Note_on_c, 0, 60, 0
3, 173160, Control_c, 0, 64, 0
3, 173160, Note_on_c, 0, 63, 67
3, 173160, Note_on_c, 0, 75, 67
3, 173175, Note_on_c, 0, 75, 0
3, 173175, Note_on_c, 0, 63, 0
3, 173220, Note_on_c, 0, 61, 68
3, 173220, Note_on_c, 0, 73, 68
3, 173340, Note_on_c, 0, 73, 0
3, 173340, Note_on_c, 0, 61, 0
3, 173340, Control_c, 0, 64, 127
3, 173340, Note_on_c, 0, 61, 70
3, 173340, Note_on_c, 0, 73, 70
3, 173460, Note_on_c, 0, 73, 0
3, 173460, Note_on_c, 0, 61, 0
3, 173460, Note_on_c, 0, 61, 71
3, 173460, Note_on_c, 0, 73, 71
3, 173475, Note_on_c, 0, 73, 0
3, 173475, Note_on_c, 0, 61, 0
3, 173520, Note_on_c, 0, 68, 72
3, 173520, Note_on_c, 0, 80, 72
3, 173535, Note_on_c, 0, 80, 0
3, 173535, Note_on_c, 0, 68, 0
3, 173580, Note_on_c, 0, 61, 73
3, 173580, Note_on_c, 0, 73, 73
3, 173595, Note_on_c, 0, 73, 0
3, 173595, Note_on_c, 0, 61, 0
3, 173640, Control_c, 0, 64, 0
3, 173640, Note_on_c, 0, 64, 74
3, 173640, Note_on_c, 0, 76, 74
3, 173655, Note_on_c, 0, 76, 0
3, 173655, Note_on_c, 0, 64, 0
3, 173700, Note_on_c, 0, 63, 75
3, 173700, Note_on_c, 0, 75, 75
3, 173820, Note_on_c, 0, 75, 0
3, 173820, Note_on_c, 0, 63, 0
3, 173820, Control_c, 0, 64, 127
3, 173820, Note_on_c, 0, 63, 77
3, 173820, Note_on_c, 0, 75, 77
3, 173940, Note_on_c, 0, 75, 0
3, 173940, Note_on_c, 0, 63, 0
3, 173940, Note_on_c, 0, 63, 78
3, 173940, Note_on_c, 0, 75, 78
3, 173955, Note_on_c, 0, 75, 0
3, 173955, Note_on_c, 0, 63, 0
3, 174000, Note_on_c, 0, 68, 80
3, 174000, Note_on_c, 0, 80, 80
3, 174015, Note_on_c, 0, 80, 0
3, 174015, Note_on_c, 0, 68, 0
3, 174060, Note_on_c, 0, 63, 80
3, 174060, Note_on_c, 0, 75, 80
3, 174075, Note_on_c, 0, 75, 0
3, 174075, Note_on_c, 0, 63, 0
3, 174120, Control_c, 0, 64, 0
3, 174120, Control_c, 0, 64, 127
3, 174120, Note_on_c, 0, 65, 80
3, 174120, Note_on_c, 0, 77, 80
3, 174330, Note_on_c, 0, 77, 0
3, 174330, Note_on_c, 0, 65, 0
3, 174360, Control_c, 0, 64, 127
3, 174360, Note_on_c, 0, 66, 80
3, 174360, Note_on_c, 0, 78, 80
3, 174570, Note_on_c, 0, 78, 0
3, 174570, Note_on_c, 0, 66, 0
3, 174600, Control_c, 0, 64, 0
3, 174600, Note_on_c, 0, 63, 80
3, 174600, Note_on_c, 0, 75, 80
3, 174615, Note_on_c, 0, 75, 0
3, 174615, Note_on_c, 0, 63, 0
3, 174620, Note_on_c, 0, 76, 80
3, 174635, Note_on_c, 0, 76, 0
3, 174640, Note_on_c, 0, 75, 80
3, 174655, Note_on_c, 0, 75, 0
3, 174660, Note_on_c, 0, 73, 80
3, 174685, Note_on_c, 0, 73, 0
3, 174690, Note_on_c, 0, 75, 80
3, 174717, Note_on_c, 0, 75, 0
3, 174720, Note_on_c, 0, 64, 80
3, 174720, Note_on_c, 0, 76, 80
3, 175050, Note_on_c, 0, 76, 0
3, 175050, Note_on_c, 0, 64, 0
3, 175080, Control_c, 0, 64, 127
3, 175080, Note_on_c, 0, 61, 80
3, 175080, Note_on_c, 0, 73, 80
3, 175290, Note_on_c, 0, 73, 0
3, 175290, Note_on_c, 0, 61, 0
3, 175320, Control_c, 0, 64, 0
3, 175320, Control_c, 0, 64, 127
3, 175320, Note_on_c, 0, 62, 80
3, 175320, Note_on_c, 0, 74, 80
3, 175530, Note_on_c, 0, 74, 0
3, 175530, Note_on_c, 0, 62, 0
3, 175560, Control_c, 0, 64, 0
3, 175560, Note_on_c, 0, 60, 78
3, 175560, Note_on_c, 0, 72, 78
3, 175575, Note_on_c, 0, 72, 0
3, 175580, Note_on_c, 0, 73, 78
3, 175595, Note_on_c, 0, 73, 0
3, 175600, Note_on_c, 0, 72, 78
3, 175615, Note_on_c, 0, 72, 0
3, 175620, Note_on_c, 0, 70, 78
3, 175645, Note_on_c, 0, 70, 0
3, 175650, Note_on_c, 0, 72, 78
3, 175665, Note_on_c, 0, 72, 0
3, 175665, Note_on_c, 0, 60, 0
3, 175680, Note_on_c, 0, 61, 85
3, 175680, Note_on_c, 0, 73, 85
3, 176010, Note_on_c, 0, 73, 0
3, 176010, Note_on_c, 0, 61, 0
3, 176040, Control_c, 0, 64, 127
3, 176040, Note_on_c, 0, 62, 82
3, 176040, Note_on_c, 0, 66, 82
3, 176040, Note_on_c, 0, 69, 82
3, 176040, Note_on_c, 0, 74, 82
3, 176295, Note_on_c, 0, 74, 0
3, 176295, Note_on_c, 0, 62, 0
3, 176295, Note_on_c, 0, 66, 0
3, 176295, Note_on_c, 0, 69, 0
3, 176310, Control_c, 0, 64, 0
3, 176310, Note_on_c, 0, 69, 45
3, 176338, Note_on_c, 0, 69, 0
3, 176340, Note_on_c, 0, 71, 45
3, 176368, Note_on_c, 0, 71, 0
3, 176370, Note_on_c, 0, 73, 45
3, 176399, Note_on_c, 0, 73, 0
3, 176400, Note_on_c, 0, 74, 45
3, 176415, Note_on_c, 0, 74, 0
3, 176430, Note_on_c, 0, 76, 45
3, 176458, Note_on_c, 0, 76, 0
3, 176460, Note_on_c, 0, 78, 45
3, 176488, Note_on_c, 0, 78, 0
3, 176490, Note_on_c, 0, 76, 45
3, 176519, Note_on_c, 0, 76, 0
3, 176520, Note_on_c, 0, 74, 45
3, 176535, Note_on_c, 0, 74, 0
3, 176550, Note_on_c, 0, 69, 45
3, 176578, Note_on_c, 0, 69, 0
3, 176580, Note_on_c, 0, 71, 45
3, 176608, Note_on_c, 0, 71, 0
3, 176610, Note_on_c, 0, 73, 45
3, 176639, Note_on_c, 0, 73, 0
3, 176640, Note_on_c, 0, 74, 45
3, 176655, Note_on_c, 0, 74, 0
3, 176670, Note_on_c, 0, 76, 45
3, 176698, Note_on_c, 0, 76, 0
3, 176700, Note_on_c, 0, 78, 45
3, 176728, Note_on_c, 0, 78, 0
3, 176730, Note_on_c, 0, 76, 45
3, 176759, Note_on_c, 0, 76, 0
3, 176760, Note_on_c, 0, 74, 45
3, 176788, Note_on_c, 0, 74, 0
3, 176790, Note_on_c, 0, 69, 45
3, 176818, Note_on_c, 0, 69, 0
3, 176820, Note_on_c, 0, 71, 45
3, 176848, Note_on_c, 0, 71, 0
3, 176850, Note_on_c, 0, 73, 45
3, 176879, Note_on_c, 0, 73, 0
3, 176880, Note_on_c, 0, 74, 45
3, 176908, Note_on_c, 0, 74, 0
3, 176910, Note_on_c, 0, 76, 45
3, 176938, Note_on_c, 0, 76, 0
3, 176940, Note_on_c, 0, 78, 45
3, 176968, Note_on_c, 0, 78, 0
3, 176970, Note_on_c, 0, 76, 45
3, 176999, Note_on_c, 0, 76, 0
3, 177000, Note_on_c, 0, 74, 45
3, 177028, Note_on_c, 0, 74, 0
3, 177030, Note_on_c, 0, 69, 45
3, 177058, Note_on_c, 0, 69, 0
3, 177060, Note_on_c, 0, 71, 45
3, 177088, Note_on_c, 0, 71, 0
3, 177090, Note_on_c, 0, 73, 45
3, 177119, Note_on_c, 0, 73, 0
3, 177120, Note_on_c, 0, 74, 45
3, 177148, Note_on_c, 0, 74, 0
3, 177150, Note_on_c, 0, 76, 45
3, 177178, Note_on_c, 0, 76, 0
3, 177180, Note_on_c, 0, 78, 45
3, 177208, Note_on_c, 0, 78, 0
3, 177210, Note_on_c, 0, 79, 45
3, 177239, Note_on_c, 0, 79, 0
3, 177240, Note_on_c, 0, 81, 45
3, 177268, Note_on_c, 0, 81, 0
3, 177270, Note_on_c, 0, 80, 45
3, 177298, Note_on_c, 0, 80, 0
3, 177300, Note_on_c, 0, 83, 45
3, 177328, Note_on_c, 0, 83, 0
3, 177330, Note_on_c, 0, 81, 45
3, 177359, Note_on_c, 0, 81, 0
3, 177360, Note_on_c, 0, 79, 45
3, 177388, Note_on_c, 0, 79, 0
3, 177390, Note_on_c, 0, 78, 45
3, 177418, Note_on_c, 0, 78, 0
3, 177420, Note_on_c, 0, 76, 45
3, 177448, Note_on_c, 0, 76, 0
3, 177450, Note_on_c, 0, 74, 45
3, 177479, Note_on_c, 0, 74, 0
3, 177480, Note_on_c, 0, 73, 45
3, 177688, Note_on_c, 0, 73, 0
3, 177690, Note_on_c, 0, 76, 63
3, 177719, Note_on_c, 0, 76, 0
3, 177720, Note_on_c, 0, 75, 45
3, 177748, Note_on_c, 0, 75, 0
3, 177750, Note_on_c, 0, 76, 45
3, 177778, Note_on_c, 0, 76, 0
3, 177780, Note_on_c, 0, 75, 45
3, 177808, Note_on_c, 0, 75, 0
3, 177810, Note_on_c, 0, 76, 45
3, 177839, Note_on_c, 0, 76, 0
3, 177840, Note_on_c, 0, 75, 45
3, 177868, Note_on_c, 0, 75, 0
3, 177870, Note_on_c, 0, 76, 45
3, 177898, Note_on_c, 0, 76, 0
3, 177900, Note_on_c, 0, 73, 45
3, 177928, Note_on_c, 0, 73, 0
3, 177930, Note_on_c, 0, 75, 45
3, 177959, Note_on_c, 0, 75, 0
3, 177960, Note_on_c, 0, 73, 45
3, 177990, Note_on_c, 0, 73, 0
3, 178080, Control_c, 0, 64, 127
3, 178080, Note_on_c, 0, 50, 85
3, 178080, Note_on_c, 0, 54, 85
3, 178080, Note_on_c, 0, 57, 85
3, 178080, Note_on_c, 0, 62, 85
3, 178222, Note_on_c, 0, 62, 0
3, 178222, Note_on_c, 0, 50, 0
3, 178222, Note_on_c, 0, 54, 0
3, 178222, Note_on_c, 0, 57, 0
3, 178230, Control_c, 0, 64, 0
3, 178230, Note_on_c, 0, 57, 45
3, 178252, Note_on_c, 0, 57, 0
3, 178260, Note_on_c, 0, 59, 45
3, 178282, Note_on_c, 0, 59, 0
3, 178290, Note_on_c, 0, 61, 45
3, 178312, Note_on_c, 0, 61, 0
3, 178320, Note_on_c, 0, 62, 45
3, 178342, Note_on_c, 0, 62, 0
3, 178350, Note_on_c, 0, 64, 45
3, 178372, Note_on_c, 0, 64, 0
3, 178380, Note_on_c, 0, 66, 45
3, 178402, Note_on_c, 0, 66, 0
3, 178410, Note_on_c, 0, 64, 45
3, 178432, Note_on_c, 0, 64, 0
3, 178440, Note_on_c, 0, 62, 45
3, 178462, Note_on_c, 0, 62, 0
3, 178470, Note_on_c, 0, 57, 45
3, 178492, Note_on_c, 0, 57, 0
3, 178500, Note_on_c, 0, 59, 45
3, 178522, Note_on_c, 0, 59, 0
3, 178530, Note_on_c, 0, 61, 45
3, 178552, Note_on_c, 0, 61, 0
3, 178560, Note_on_c, 0, 62, 46
3, 178582, Note_on_c, 0, 62, 0
3, 178590, Note_on_c, 0, 64, 47
3, 178612, Note_on_c, 0, 64, 0
3, 178620, Note_on_c, 0, 66, 48
3, 178642, Note_on_c, 0, 66, 0
3, 178650, Note_on_c, 0, 64, 49
3, 178672, Note_on_c, 0, 64, 0
3, 178680, Note_on_c, 0, 62, 50
3, 178702, Note_on_c, 0, 62, 0
3, 178710, Note_on_c, 0, 57, 51
3, 178732, Note_on_c, 0, 57, 0
3, 178740, Note_on_c, 0, 59, 52
3, 178762, Note_on_c, 0, 59, 0
3, 178770, Note_on_c, 0, 61, 53
3, 178792, Note_on_c, 0, 61, 0
3, 178800, Note_on_c, 0, 62, 54
3, 178822, Note_on_c, 0, 62, 0
3, 178830, Note_on_c, 0, 64, 55
3, 178852, Note_on_c, 0, 64, 0
3, 178860, Note_on_c, 0, 66, 56
3, 178882, Note_on_c, 0, 66, 0
3, 178890, Note_on_c, 0, 64, 57
3, 178912, Note_on_c, 0, 64, 0
3, 178920, Note_on_c, 0, 62, 58
3, 178942, Note_on_c, 0, 62, 0
3, 178950, Note_on_c, 0, 57, 59
3, 178972, Note_on_c, 0, 57, 0
3, 178980, Note_on_c, 0, 59, 60
3, 179002, Note_on_c, 0, 59, 0
3, 179010, Note_on_c, 0, 61, 61
3, 179032, Note_on_c, 0, 61, 0
3, 179040, Note_on_c, 0, 63, 62
3, 179062, Note_on_c, 0, 63, 0
3, 179070, Note_on_c, 0, 64, 63
3, 179092, Note_on_c, 0, 64, 0
3, 179100, Note_on_c, 0, 66, 64
3, 179122, Note_on_c, 0, 66, 0
3, 179130, Note_on_c, 0, 67, 65
3, 179152, Note_on_c, 0, 67, 0
3, 179160, Note_on_c, 0, 69, 66
3, 179182, Note_on_c, 0, 69, 0
3, 179190, Note_on_c, 0, 71, 67
3, 179212, Note_on_c, 0, 71, 0
3, 179220, Note_on_c, 0, 73, 68
3, 179242, Note_on_c, 0, 73, 0
3, 179250, Note_on_c, 0, 74, 69
3, 179272, Note_on_c, 0, 74, 0
3, 179280, Note_on_c, 0, 76, 70
3, 179302, Note_on_c, 0, 76, 0
3, 179310, Note_on_c, 0, 78, 71
3, 179332, Note_on_c, 0, 78, 0
3, 179340, Note_on_c, 0, 79, 72
3, 179362, Note_on_c, 0, 79, 0
3, 179370, Note_on_c, 0, 80, 73
3, 179392, Note_on_c, 0, 80, 0
3, 179400, Control_c, 0, 64, 127
3, 179400, Note_on_c, 0, 69, 85
3, 179400, Note_on_c, 0, 81, 85
3, 179639, Note_on_c, 0, 81, 0
3, 179639, Note_on_c, 0, 69, 0
3, 179640, Control_c, 0, 64, 0
3, 179640, Control_c, 0, 64, 127
3, 179640, Note_on_c, 0, 61, 85
3, 179640, Note_on_c, 0, 73, 85
3, 179879, Note_on_c, 0, 73, 0
3, 179879, Note_on_c, 0, 61, 0
3, 179880, Control_c, 0, 64, 0
3, 179880, Control_c, 0, 64, 127
3, 179880, Note_on_c, 0, 64, 85
3, 179880, Note_on_c, 0, 76, 85
3, 180119, Note_on_c, 0, 76, 0
3, 180119, Note_on_c, 0, 64, 0
3, 180120, Control_c, 0, 64, 0
3, 180120, Control_c, 0, 64, 127
3, 180120, Note_on_c, 0, 48, 85
3, 180120, Note_on_c, 0, 54, 85
3, 180120, Note_on_c, 0, 60, 85
3, 180359, Note_on_c, 0, 60, 0
3, 180359, Note_on_c, 0, 54, 0
3, 180359, Note_on_c, 0, 48, 0
3, 180360, Control_c, 0, 64, 0
3, 180360, Note_on_c, 0, 49, 78
3, 180360, Note_on_c, 0, 52, 78
3, 180360, Note_on_c, 0, 61, 78
3, 180375, Note_on_c, 0, 61, 0
3, 180375, Note_on_c, 0, 52, 0
3, 180375, Note_on_c, 0, 49, 0
3, 180420, Note_on_c, 0, 56, 45
3, 180420, Note_on_c, 0, 64, 45
3, 180435, Note_on_c, 0, 64, 0
3, 180435, Note_on_c, 0, 56, 0
3, 180480, Note_on_c, 0, 56, 45
3, 180480, Note_on_c, 0, 64, 45
3, 180495, Note_on_c, 0, 64, 0
3, 180495, Note_on_c, 0, 56, 0
3, 180540, Note_on_c, 0, 56, 45
3, 180540, Note_on_c, 0, 64, 45
3, 180555, Note_on_c, 0, 64, 0
3, 180555, Note_on_c, 0, 56, 0
3, 180600, Note_on_c, 0, 56, 45
3, 180600, Note_on_c, 0, 64, 45
3, 180615, Note_on_c, 0, 64, 0
3, 180615, Note_on_c, 0, 56, 0
3, 180660, Note_on_c, 0, 56, 45
3, 180660, Note_on_c, 0, 64, 45
3, 180705, Note_on_c, 0, 64, 0
3, 180705, Note_on_c, 0, 56, 0
3, 180720, Note_on_c, 0, 56, 55
3, 180720, Note_on_c, 0, 63, 55
3, 180765, Note_on_c, 0, 63, 0
3, 180765, Note_on_c, 0, 56, 0
3, 180780, Note_on_c, 0, 56, 60
3, 180780, Note_on_c, 0, 61, 60
3, 180825, Note_on_c, 0, 61, 0
3, 180825, Note_on_c, 0, 56, 0
3, 180840, Note_on_c, 0, 56, 45
3, 180840, Note_on_c, 0, 60, 45
3, 180885, Note_on_c, 0, 60, 0
3, 180885, Note_on_c, 0, 56, 0
3, 180900, Note_on_c, 0, 60, 45
3, 180900, Note_on_c, 0, 68, 45
3, 180915, Note_on_c, 0, 68, 0
3, 180915, Note_on_c, 0, 60, 0
3, 180960, Note_on_c, 0, 60, 45
3, 180960, Note_on_c, 0, 68, 45
3, 180975, Note_on_c, 0, 68, 0
3, 180975, Note_on_c, 0, 60, 0
3, 181020, Note_on_c, 0, 60, 45
3, 181020, Note_on_c, 0, 68, 45
3, 181035, Note_on_c, 0, 68, 0
3, 181035, Note_on_c, 0, 60, 0
3, 181080, Note_on_c, 0, 60, 45
3, 181080, Note_on_c, 0, 68, 45
3, 181095, Note_on_c, 0, 68, 0
3, 181095, Note_on_c, 0, 60, 0
3, 181140, Note_on_c, 0, 60, 50
3, 181140, Note_on_c, 0, 68, 50
3, 181185, Note_on_c, 0, 68, 0
3, 181185, Note_on_c, 0, 60, 0
3, 181200, Note_on_c, 0, 61, 55
3, 181200, Note_on_c, 0, 68, 55
3, 181245, Note_on_c, 0, 68, 0
3, 181245, Note_on_c, 0, 61, 0
3, 181260, Note_on_c, 0, 63, 60
3, 181260, Note_on_c, 0, 68, 60
3, 181305, Note_on_c, 0, 68, 0
3, 181305, Note_on_c, 0, 63, 0
3, 181320, Note_on_c, 0, 64, 45
3, 181320, Note_on_c, 0, 68, 45
3, 181365, Note_on_c, 0, 68, 0
3, 181365, Note_on_c, 0, 64, 0
3, 181380, Note_on_c, 0, 56, 45
3, 181380, Note_on_c, 0, 64, 45
3, 181395, Note_on_c, 0, 64, 0
3, 181395, Note_on_c, 0, 56, 0
3, 181440, Note_on_c, 0, 56, 45
3, 181440, Note_on_c, 0, 64, 45
3, 181455, Note_on_c, 0, 64, 0
3, 181455, Note_on_c, 0, 56, 0
3, 181500, Note_on_c, 0, 56, 45
3, 181500, Note_on_c, 0, 64, 45
3, 181515, Note_on_c, 0, 64, 0
3, 181515, Note_on_c, 0, 56, 0
3, 181560, Note_on_c, 0, 56, 45
3, 181560, Note_on_c, 0, 64, 45
3, 181575, Note_on_c, 0, 64, 0
3, 181575, Note_on_c, 0, 56, 0
3, 181620, Note_on_c, 0, 56, 50
3, 181620, Note_on_c, 0, 64, 50
3, 181665, Note_on_c, 0, 64, 0
3, 181665, Note_on_c, 0, 56, 0
3, 181680, Note_on_c, 0, 56, 55
3, 181680, Note_on_c, 0, 63, 55
3, 181725, Note_on_c, 0, 63, 0
3, 181725, Note_on_c, 0, 56, 0
3, 181740, Note_on_c, 0, 56, 60
3, 181740, Note_on_c, 0, 61, 60
3, 181785, Note_on_c, 0, 61, 0
3, 181785, Note_on_c, 0, 56, 0
3, 181800, Note_on_c, 0, 56, 45
3, 181800, Note_on_c, 0, 60, 45
3, 181845, Note_on_c, 0, 60, 0
3, 181845, Note_on_c, 0, 56, 0
3, 181860, Note_on_c, 0, 60, 45
3, 181860, Note_on_c, 0, 68, 45
3, 181875, Note_on_c, 0, 68, 0
3, 181875, Note_on_c, 0, 60, 0
3, 181920, Note_on_c, 0, 60, 45
3, 181920, Note_on_c, 0, 68, 45
3, 181935, Note_on_c, 0, 68, 0
3, 181935, Note_on_c, 0, 60, 0
3, 181980, Note_on_c, 0, 60, 35
3, 181980, Note_on_c, 0, 68, 35
3, 181995, Note_on_c, 0, 68, 0
3, 181995, Note_on_c, 0, 60, 0
3, 182040, Note_on_c, 0, 60, 45
3, 182040, Note_on_c, 0, 68, 45
3, 182055, Note_on_c, 0, 68, 0
3, 182055, Note_on_c, 0, 60, 0
3, 182100, Note_on_c, 0, 60, 55
3, 182100, Note_on_c, 0, 68, 55
3, 182145, Note_on_c, 0, 68, 0
3, 182145, Note_on_c, 0, 60, 0
3, 182160, Note_on_c, 0, 61, 55
3, 182160, Note_on_c, 0, 68, 55
3, 182205, Note_on_c, 0, 68, 0
3, 182205, Note_on_c, 0, 61, 0
3, 182220, Note_on_c, 0, 63, 60
3, 182220, Note_on_c, 0, 68, 60
3, 182265, Note_on_c, 0, 68, 0
3, 182265, Note_on_c, 0, 63, 0
3, 182280, Note_on_c, 0, 64, 45
3, 182280, Note_on_c, 0, 68, 45
3, 182310, Note_on_c, 0, 68, 0
3, 182310, Note_on_c, 0, 64, 0
3, 182340, Note_on_c, 0, 64, 45
3, 182340, Note_on_c, 0, 68, 45
3, 182355, Note_on_c, 0, 68, 0
3, 182355, Note_on_c, 0, 64, 0
3, 182400, Note_on_c, 0, 64, 45
3, 182400, Note_on_c, 0, 68, 45
3, 182460, Note_on_c, 0, 68, 0
3, 182460, Note_on_c, 0, 64, 0
3, 182460, Note_on_c, 0, 61, 35
3, 182460, Note_on_c, 0, 64, 35
3, 182505, Note_on_c, 0, 64, 0
3, 182505, Note_on_c, 0, 61, 0
3, 182580, Note_on_c, 0, 66, 45
3, 182580, Note_on_c, 0, 69, 45
3, 182595, Note_on_c, 0, 69, 0
3, 182595, Note_on_c, 0, 66, 0
3, 182640, Note_on_c, 0, 66, 45
3, 182640, Note_on_c, 0, 69, 45
3, 182700, Note_on_c, 0, 69, 0
3, 182700, Note_on_c, 0, 66, 0
3, 182700, Note_on_c, 0, 61, 35
3, 182700, Note_on_c, 0, 66, 35
3, 182745, Note_on_c, 0, 66, 0
3, 182745, Note_on_c, 0, 61, 0
3, 182820, Note_on_c, 0, 64, 45
3, 182820, Note_on_c, 0, 68, 45
3, 182835, Note_on_c, 0, 68, 0
3, 182835, Note_on_c, 0, 64, 0
3, 182880, Note_on_c, 0, 64, 45
3, 182880, Note_on_c, 0, 68, 45
3, 182940, Note_on_c, 0, 68, 0
3, 182940, Note_on_c, 0, 64, 0
3, 182940, Note_on_c, 0, 61, 35
3, 182940, Note_on_c, 0, 64, 35
3, 182985, Note_on_c, 0, 64, 0
3, 182985, Note_on_c, 0, 61, 0
3, 183060, Note_on_c, 0, 63, 45
3, 183060, Note_on_c, 0, 68, 45
3, 183075, Note_on_c, 0, 68, 0
3, 183075, Note_on_c, 0, 63, 0
3, 183120, Note_on_c, 0, 63, 45
3, 183120, Note_on_c, 0, 68, 45
3, 183180, Note_on_c, 0, 68, 0
3, 183180, Note_on_c, 0, 63, 0
3, 183180, Note_on_c, 0, 60, 35
3, 183180, Note_on_c, 0, 63, 35
3, 183225, Note_on_c, 0, 63, 0
3, 183225, Note_on_c, 0, 60, 0
3, 183240, Note_on_c, 0, 61, 45
3, 183240, Note_on_c, 0, 64, 45
3, 183240, Note_on_c, 0, 68, 45
3, 183255, Note_on_c, 0, 68, 0
3, 183255, Note_on_c, 0, 64, 0
3, 183255, Note_on_c, 0, 61, 0
3, 183300, Note_on_c, 0, 64, 45
3, 183300, Note_on_c, 0, 68, 45
3, 183300, Note_on_c, 0, 76, 45
3, 183315, Note_on_c, 0, 76, 0
3, 183315, Note_on_c, 0, 68, 0
3, 183315, Note_on_c, 0, 64, 0
3, 183360, Note_on_c, 0, 64, 50
3, 183360, Note_on_c, 0, 68, 50
3, 183360, Note_on_c, 0, 76, 50
3, 183375, Note_on_c, 0, 76, 0
3, 183375, Note_on_c, 0, 68, 0
3, 183375, Note_on_c, 0, 64, 0
3, 183420, Note_on_c, 0, 64, 55
3, 183420, Note_on_c, 0, 68, 55
3, 183420, Note_on_c, 0, 76, 55
3, 183435, Note_on_c, 0, 76, 0
3, 183435, Note_on_c, 0, 68, 0
3, 183435, Note_on_c, 0, 64, 0
3, 183480, Note_on_c, 0, 64, 60
3, 183480, Note_on_c, 0, 68, 60
3, 183480, Note_on_c, 0, 76, 60
3, 183495, Note_on_c, 0, 76, 0
3, 183495, Note_on_c, 0, 68, 0
3, 183495, Note_on_c, 0, 64, 0
3, 183540, Note_on_c, 0, 64, 65
3, 183540, Note_on_c, 0, 68, 65
3, 183540, Note_on_c, 0, 76, 65
3, 183555, Note_on_c, 0, 76, 0
3, 183555, Note_on_c, 0, 68, 0
3, 183555, Note_on_c, 0, 64, 0
3, 183600, Note_on_c, 0, 63, 70
3, 183600, Note_on_c, 0, 66, 70
3, 183600, Note_on_c, 0, 75, 70
3, 183615, Note_on_c, 0, 75, 0
3, 183615, Note_on_c, 0, 66, 0
3, 183615, Note_on_c, 0, 63, 0
3, 183660, Note_on_c, 0, 61, 74
3, 183660, Note_on_c, 0, 64, 74
3, 183660, Note_on_c, 0, 73, 74
3, 183675, Note_on_c, 0, 73, 0
3, 183675, Note_on_c, 0, 64, 0
3, 183675, Note_on_c, 0, 61, 0
3, 183720, Note_on_c, 0, 60, 78
3, 183720, Note_on_c, 0, 63, 78
3, 183720, Note_on_c, 0, 72, 78
3, 183735, Note_on_c, 0, 72, 0
3, 183735, Note_on_c, 0, 63, 0
3, 183735, Note_on_c, 0, 60, 0
3, 183780, Control_c, 0, 64, 127
3, 183780, Note_on_c, 0, 72, 85
3, 183780, Note_on_c, 0, 75, 85
3, 183780, Note_on_c, 0, 84, 85
3, 183795, Note_on_c, 0, 84, 0
3, 183795, Note_on_c, 0, 75, 0
3, 183795, Note_on_c, 0, 72, 0
3, 183840, Note_on_c, 0, 72, 75
3, 183840, Note_on_c, 0, 75, 75
3, 183840, Note_on_c, 0, 84, 75
3, 183855, Note_on_c, 0, 84, 0
3, 183855, Note_on_c, 0, 75, 0
3, 183855, Note_on_c, 0, 72, 0
3, 183900, Note_on_c, 0, 72, 75
3, 183900, Note_on_c, 0, 75, 75
3, 183900, Note_on_c, 0, 84, 75
3, 183915, Note_on_c, 0, 84, 0
3, 183915, Note_on_c, 0, 75, 0
3, 183915, Note_on_c, 0, 72, 0
3, 183960, Note_on_c, 0, 72, 75
3, 183960, Note_on_c, 0, 75, 75
3, 183960, Note_on_c, 0, 84, 75
3, 183975, Note_on_c, 0, 84, 0
3, 183975, Note_on_c, 0, 75, 0
3, 183975, Note_on_c, 0, 72, 0
3, 184020, Control_c, 0, 64, 0
3, 184020, Note_on_c, 0, 72, 75
3, 184020, Note_on_c, 0, 75, 75
3, 184020, Note_on_c, 0, 84, 75
3, 184035, Note_on_c, 0, 84, 0
3, 184035, Note_on_c, 0, 75, 0
3, 184035, Note_on_c, 0, 72, 0
3, 184080, Note_on_c, 0, 73, 75
3, 184080, Note_on_c, 0, 76, 75
3, 184080, Note_on_c, 0, 85, 75
3, 184095, Note_on_c, 0, 85, 0
3, 184095, Note_on_c, 0, 76, 0
3, 184095, Note_on_c, 0, 73, 0
3, 184140, Note_on_c, 0, 75, 75
3, 184140, Note_on_c, 0, 78, 75
3, 184140, Note_on_c, 0, 87, 75
3, 184155, Note_on_c, 0, 87, 0
3, 184155, Note_on_c, 0, 78, 0
3, 184155, Note_on_c, 0, 75, 0
3, 184200, Note_on_c, 0, 76, 78
3, 184200, Note_on_c, 0, 80, 78
3, 184200, Note_on_c, 0, 88, 78
3, 184215, Note_on_c, 0, 88, 0
3, 184215, Note_on_c, 0, 80, 0
3, 184215, Note_on_c, 0, 76, 0
3, 184260, Note_on_c, 0, 64, 45
3, 184260, Note_on_c, 0, 68, 45
3, 184260, Note_on_c, 0, 76, 45
3, 184275, Note_on_c, 0, 76, 0
3, 184275, Note_on_c, 0, 68, 0
3, 184275, Note_on_c, 0, 64, 0
3, 184320, Note_on_c, 0, 64, 50
3, 184320, Note_on_c, 0, 68, 50
3, 184320, Note_on_c, 0, 76, 50
3, 184335, Note_on_c, 0, 76, 0
3, 184335, Note_on_c, 0, 68, 0
3, 184335, Note_on_c, 0, 64, 0
3, 184380, Note_on_c, 0, 64, 55
3, 184380, Note_on_c, 0, 68, 55
3, 184380, Note_on_c, 0, 76, 55
3, 184395, Note_on_c, 0, 76, 0
3, 184395, Note_on_c, 0, 68, 0
3, 184395, Note_on_c, 0, 64, 0
3, 184440, Note_on_c, 0, 64, 60
3, 184440, Note_on_c, 0, 68, 60
3, 184440, Note_on_c, 0, 76, 60
3, 184455, Note_on_c, 0, 76, 0
3, 184455, Note_on_c, 0, 68, 0
3, 184455, Note_on_c, 0, 64, 0
3, 184500, Note_on_c, 0, 64, 65
3, 184500, Note_on_c, 0, 68, 65
3, 184500, Note_on_c, 0, 76, 65
3, 184515, Note_on_c, 0, 76, 0
3, 184515, Note_on_c, 0, 68, 0
3, 184515, Note_on_c, 0, 64, 0
3, 184560, Note_on_c, 0, 63, 70
3, 184560, Note_on_c, 0, 66, 70
3, 184560, Note_on_c, 0, 75, 70
3, 184575, Note_on_c, 0, 75, 0
3, 184575, Note_on_c, 0, 66, 0
3, 184575, Note_on_c, 0, 63, 0
3, 184620, Note_on_c, 0, 61, 74
3, 184620, Note_on_c, 0, 64, 74
3, 184620, Note_on_c, 0, 73, 74
3, 184635, Note_on_c, 0, 73, 0
3, 184635, Note_on_c, 0, 64, 0
3, 184635, Note_on_c, 0, 61, 0
3, 184680, Note_on_c, 0, 60, 78
3, 184680, Note_on_c, 0, 63, 78
3, 184680, Note_on_c, 0, 72, 78
3, 184695, Note_on_c, 0, 72, 0
3, 184695, Note_on_c, 0, 63, 0
3, 184695, Note_on_c, 0, 60, 0
3, 184740, Control_c, 0, 64, 127
3, 184740, Note_on_c, 0, 72, 75
3, 184740, Note_on_c, 0, 75, 75
3, 184740, Note_on_c, 0, 84, 75
3, 184755, Note_on_c, 0, 84, 0
3, 184755, Note_on_c, 0, 75, 0
3, 184755, Note_on_c, 0, 72, 0
3, 184800, Note_on_c, 0, 72, 75
3, 184800, Note_on_c, 0, 75, 75
3, 184800, Note_on_c, 0, 84, 75
3, 184815, Note_on_c, 0, 84, 0
3, 184815, Note_on_c, 0, 75, 0
3, 184815, Note_on_c, 0, 72, 0
3, 184860, Note_on_c, 0, 72, 75
3, 184860, Note_on_c, 0, 75, 75
3, 184860, Note_on_c, 0, 84, 75
3, 184875, Note_on_c, 0, 84, 0
3, 184875, Note_on_c, 0, 75, 0
3, 184875, Note_on_c, 0, 72, 0
3, 184920, Note_on_c, 0, 72, 75
3, 184920, Note_on_c, 0, 75, 75
3, 184920, Note_on_c, 0, 84, 75
3, 184935, Note_on_c, 0, 84, 0
3, 184935, Note_on_c, 0, 75, 0
3, 184935, Note_on_c, 0, 72, 0
3, 184980, Control_c, 0, 64, 0
3, 184980, Note_on_c, 0, 72, 75
3, 184980, Note_on_c, 0, 75, 75
3, 184980, Note_on_c, 0, 84, 75
3, 184995, Note_on_c, 0, 84, 0
3, 184995, Note_on_c, 0, 75, 0
3, 184995, Note_on_c, 0, 72, 0
3, 185040, Note_on_c, 0, 73, 75
3, 185040, Note_on_c, 0, 76, 75
3, 185040, Note_on_c, 0, 85, 75
3, 185055, Note_on_c, 0, 85, 0
3, 185055, Note_on_c, 0, 76, 0
3, 185055, Note_on_c, 0, 73, 0
3, 185100, Note_on_c, 0, 75, 75
3, 185100, Note_on_c, 0, 78, 75
3, 185100, Note_on_c, 0, 87, 75
3, 185115, Note_on_c, 0, 87, 0
3, 185115, Note_on_c, 0, 78, 0
3, 185115, Note_on_c, 0, 75, 0
3, 185160, Note_on_c, 0, 76, 78
3, 185160, Note_on_c, 0, 80, 78
3, 185160, Note_on_c, 0, 88, 78
3, 185175, Note_on_c, 0, 88, 0
3, 185175, Note_on_c, 0, 80, 0
3, 185175, Note_on_c, 0, 76, 0
3, 185220, Note_on_c, 0, 80, 45
3, 185220, Note_on_c, 0, 85, 45
3, 185235, Note_on_c, 0, 85, 0
3, 185235, Note_on_c, 0, 80, 0
3, 185280, Note_on_c, 0, 80, 45
3, 185280, Note_on_c, 0, 85, 45
3, 185340, Note_on_c, 0, 85, 0
3, 185340, Note_on_c, 0, 80, 0
3, 185340, Note_on_c, 0, 76, 35
3, 185340, Note_on_c, 0, 80, 35
3, 185385, Note_on_c, 0, 80, 0
3, 185385, Note_on_c, 0, 76, 0
3, 185460, Note_on_c, 0, 81, 45
3, 185460, Note_on_c, 0, 85, 45
3, 185475, Note_on_c, 0, 85, 0
3, 185475, Note_on_c, 0, 81, 0
3, 185520, Note_on_c, 0, 81, 45
3, 185520, Note_on_c, 0, 85, 45
3, 185580, Note_on_c, 0, 85, 0
3, 185580, Note_on_c, 0, 81, 0
3, 185580, Note_on_c, 0, 78, 35
3, 185580, Note_on_c, 0, 81, 35
3, 185625, Note_on_c, 0, 81, 0
3, 185625, Note_on_c, 0, 78, 0
3, 185700, Note_on_c, 0, 76, 45
3, 185700, Note_on_c, 0, 80, 45
3, 185715, Note_on_c, 0, 80, 0
3, 185715, Note_on_c, 0, 76, 0
3, 185760, Note_on_c, 0, 76, 45
3, 185760, Note_on_c, 0, 80, 45
3, 185820, Note_on_c, 0, 80, 0
3, 185820, Note_on_c, 0, 76, 0
3, 185820, Note_on_c, 0, 73, 35
3, 185820, Note_on_c, 0, 76, 35
3, 185865, Note_on_c, 0, 76, 0
3, 185865, Note_on_c, 0, 73, 0
3, 185940, Note_on_c, 0, 75, 45
3, 185940, Note_on_c, 0, 80, 45
3, 185955, Note_on_c, 0, 80, 0
3, 185955, Note_on_c, 0, 75, 0
3, 186000, Note_on_c, 0, 75, 45
3, 186000, Note_on_c, 0, 80, 45
3, 186060, Note_on_c, 0, 80, 0
3, 186060, Note_on_c, 0, 75, 0
3, 186060, Note_on_c, 0, 72, 35
3, 186060, Note_on_c, 0, 75, 35
3, 186105, Note_on_c, 0, 75, 0
3, 186105, Note_on_c, 0, 72, 0
3, 186180, Note_on_c, 0, 73, 45
3, 186180, Note_on_c, 0, 80, 45
3, 186195, Note_on_c, 0, 80, 0
3, 186195, Note_on_c, 0, 73, 0
3, 186240, Note_on_c, 0, 73, 45
3, 186240, Note_on_c, 0, 80, 45
3, 186300, Note_on_c, 0, 80, 0
3, 186300, Note_on_c, 0, 73, 0
3, 186300, Note_on_c, 0, 68, 35
3, 186300, Note_on_c, 0, 76, 35
3, 186345, Note_on_c, 0, 76, 0
3, 186345, Note_on_c, 0, 68, 0
3, 186420, Note_on_c, 0, 69, 45
3, 186420, Note_on_c, 0, 78, 45
3, 186435, Note_on_c, 0, 78, 0
3, 186435, Note_on_c, 0, 69, 0
3, 186480, Note_on_c, 0, 69, 45
3, 186480, Note_on_c, 0, 78, 45
3, 186540, Note_on_c, 0, 78, 0
3, 186540, Note_on_c, 0, 69, 0
3, 186540, Note_on_c, 0, 66, 35
3, 186540, Note_on_c, 0, 74, 35
3, 186585, Note_on_c, 0, 74, 0
3, 186585, Note_on_c, 0, 66, 0
3, 186660, Note_on_c, 0, 68, 45
3, 186660, Note_on_c, 0, 76, 45
3, 186675, Note_on_c, 0, 76, 0
3, 186675, Note_on_c, 0, 68, 0
3, 186720, Note_on_c, 0, 68, 45
3, 186720, Note_on_c, 0, 76, 45
3, 186780, Note_on_c, 0, 76, 0
3, 186780, Note_on_c, 0, 68, 0
3, 186780, Note_on_c, 0, 64, 35
3, 186780, Note_on_c, 0, 73, 35
3, 186825, Note_on_c, 0, 73, 0
3, 186825, Note_on_c, 0, 64, 0
3, 186900, Note_on_c, 0, 66, 45
3, 186900, Note_on_c, 0, 75, 45
3, 186915, Note_on_c, 0, 75, 0
3, 186915, Note_on_c, 0, 66, 0
3, 186960, Note_on_c, 0, 66, 45
3, 186960, Note_on_c, 0, 75, 45
3, 187020, Note_on_c, 0, 75, 0
3, 187020, Note_on_c, 0, 66, 0
3, 187020, Note_on_c, 0, 63, 35
3, 187020, Note_on_c, 0, 72, 35
3, 187065, Note_on_c, 0, 72, 0
3, 187065, Note_on_c, 0, 63, 0
3, 187080, Control_c, 0, 64, 127
3, 187080, Note_on_c, 0, 64, 45
3, 187080, Note_on_c, 0, 73, 45
3, 187170, Note_on_c, 0, 73, 0
3, 187170, Note_on_c, 0, 64, 0
3, 187440, Control_c, 0, 64, 0
3, 187440, Note_on_c, 0, 64, 45
3, 187530, Note_on_c, 0, 64, 0
3, 187530, Note_on_c, 0, 61, 45
3, 187559, Note_on_c, 0, 61, 0
3, 187560, Note_on_c, 0, 60, 45
3, 187679, Note_on_c, 0, 60, 0
3, 187680, Control_c, 0, 64, 127
3, 187680, Note_on_c, 0, 54, 45
3, 187680, Note_on_c, 0, 60, 45
3, 187680, Note_on_c, 0, 68, 45
3, 187710, Note_on_c, 0, 68, 0
3, 187710, Note_on_c, 0, 60, 0
3, 187710, Note_on_c, 0, 54, 0
3, 187800, Note_on_c, 0, 54, 45
3, 187800, Note_on_c, 0, 60, 45
3, 187800, Note_on_c, 0, 68, 45
3, 187830, Note_on_c, 0, 68, 0
3, 187830, Note_on_c, 0, 60, 0
3, 187830, Note_on_c, 0, 54, 0
3, 187920, Note_on_c, 0, 54, 45
3, 187920, Note_on_c, 0, 60, 45
3, 187920, Note_on_c, 0, 68, 45
3, 187950, Note_on_c, 0, 68, 0
3, 187950, Note_on_c, 0, 60, 0
3, 187950, Note_on_c, 0, 54, 0
3, 188040, Control_c, 0, 64, 0
3, 188040, Control_c, 0, 64, 127
3, 188040, Note_on_c, 0, 52, 45
3, 188053, Note_on_c, 0, 52, 0
3, 188055, Note_on_c, 0, 61, 45
3, 188068, Note_on_c, 0, 61, 0
3, 188070, Note_on_c, 0, 68, 45
3, 188399, Note_on_c, 0, 68, 0
3, 188400, Control_c, 0, 64, 0
3, 188400, Note_on_c, 0, 76, 45
3, 188490, Note_on_c, 0, 76, 0
3, 188490, Note_on_c, 0, 73, 45
3, 188519, Note_on_c, 0, 73, 0
3, 188520, Note_on_c, 0, 72, 45
3, 188639, Note_on_c, 0, 72, 0
3, 188640, Control_c, 0, 64, 127
3, 188640, Note_on_c, 0, 66, 45
3, 188640, Note_on_c, 0, 72, 45
3, 188640, Note_on_c, 0, 80, 45
3, 188670, Note_on_c, 0, 80, 0
3, 188670, Note_on_c, 0, 72, 0
3, 188670, Note_on_c, 0, 66, 0
3, 188760, Note_on_c, 0, 66, 45
3, 188760, Note_on_c, 0, 72, 45
3, 188760, Note_on_c, 0, 80, 45
3, 188790, Note_on_c, 0, 80, 0
3, 188790, Note_on_c, 0, 72, 0
3, 188790, Note_on_c, 0, 66, 0
3, 188880, Note_on_c, 0, 66, 45
3, 188880, Note_on_c, 0, 72, 45
3, 188880, Note_on_c, 0, 80, 45
3, 188910, Note_on_c, 0, 80, 0
3, 188910, Note_on_c, 0, 72, 0
3, 188910, Note_on_c, 0, 66, 0
3, 189000, Control_c, 0, 64, 0
3, 189000, Control_c, 0, 64, 127
3, 189000, Note_on_c, 0, 64, 45
3, 189013, Note_on_c, 0, 64, 0
3, 189015, Note_on_c, 0, 73, 45
3, 189028, Note_on_c, 0, 73, 0
3, 189030, Note_on_c, 0, 80, 45
3, 189239, Note_on_c, 0, 80, 0
3, 189240, Control_c, 0, 64, 0
3, 189240, Control_c, 0, 64, 127
3, 189240, Note_on_c, 0, 66, 45
3, 189253, Note_on_c, 0, 66, 0
3, 189255, Note_on_c, 0, 72, 45
3, 189268, Note_on_c, 0, 72, 0
3, 189270, Note_on_c, 0, 80, 45
3, 189479, Note_on_c, 0, 80, 0
3, 189480, Control_c, 0, 64, 0
3, 189480, Control_c, 0, 64, 127
3, 189480, Note_on_c, 0, 64, 45
3, 189493, Note_on_c, 0, 64, 0
3, 189495, Note_on_c, 0, 73, 45
3, 189508, Note_on_c, 0, 73, 0
3, 189510, Note_on_c, 0, 80, 45
3, 189719, Note_on_c, 0, 80, 0
3, 189720, Control_c, 0, 64, 0
3, 189720, Control_c, 0, 64, 127
3, 189720, Note_on_c, 0, 66, 45
3, 189733, Note_on_c, 0, 66, 0
3, 189735, Note_on_c, 0, 72, 45
3, 189748, Note_on_c, 0, 72, 0
3, 189750, Note_on_c, 0, 80, 45
3, 189959, Note_on_c, 0, 80, 0
3, 189960, Control_c, 0, 64, 0
3, 189960, Control_c, 0, 64, 127
3, 189960, Note_on_c, 0, 52, 30
3, 189975, Note_on_c, 0, 52, 0
3, 189990, Note_on_c, 0, 61, 31
3, 190005, Note_on_c, 0, 61, 0
3, 190020, Note_on_c, 0, 56, 33
3, 190035, Note_on_c, 0, 56, 0
3, 190050, Note_on_c, 0, 61, 34
3, 190065, Note_on_c, 0, 61, 0
3, 190080, Note_on_c, 0, 52, 36
3, 190095, Note_on_c, 0, 52, 0
3, 190110, Note_on_c, 0, 61, 37
3, 190125, Note_on_c, 0, 61, 0
3, 190140, Note_on_c, 0, 56, 39
3, 190155, Note_on_c, 0, 56, 0
3, 190170, Note_on_c, 0, 61, 40
3, 190185, Note_on_c, 0, 61, 0
3, 190200, Note_on_c, 0, 52, 42
3, 190215, Note_on_c, 0, 52, 0
3, 190230, Note_on_c, 0, 61, 43
3, 190245, Note_on_c, 0, 61, 0
3, 190260, Note_on_c, 0, 56, 45
3, 190275, Note_on_c, 0, 56, 0
3, 190290, Note_on_c, 0, 61, 46
3, 190305, Note_on_c, 0, 61, 0
3, 190320, Note_on_c, 0, 52, 48
3, 190335, Note_on_c, 0, 52, 0
3, 190350, Note_on_c, 0, 61, 49
3, 190365, Note_on_c, 0, 61, 0
3, 190380, Note_on_c, 0, 56, 51
3, 190395, Note_on_c, 0, 56, 0
3, 190410, Note_on_c, 0, 61, 53
3, 190425, Note_on_c, 0, 61, 0
3, 190440, Control_c, 0, 64, 0
3, 190440, Control_c, 0, 64, 127
3, 190440, Note_on_c, 0, 49, 55
3, 190440, Note_on_c, 0, 53, 55
3, 190455, Note_on_c, 0, 53, 0
3, 190455, Note_on_c, 0, 49, 0
3, 190470, Note_on_c, 0, 61, 56
3, 190485, Note_on_c, 0, 61, 0
3, 190500, Note_on_c, 0, 56, 58
3, 190515, Note_on_c, 0, 56, 0
3, 190530, Note_on_c, 0, 61, 59
3, 190545, Note_on_c, 0, 61, 0
3, 190560, Note_on_c, 0, 49, 61
3, 190560, Note_on_c, 0, 53, 61
3, 190575, Note_on_c, 0, 53, 0
3, 190575, Note_on_c, 0, 49, 0
3, 190590, Note_on_c, 0, 61, 62
3, 190605, Note_on_c, 0, 61, 0
3, 190620, Note_on_c, 0, 56, 64
3, 190635, Note_on_c, 0, 56, 0
3, 190650, Note_on_c, 0, 61, 65
3, 190665, Note_on_c, 0, 61, 0
3, 190680, Note_on_c, 0, 49, 67
3, 190680, Note_on_c, 0, 53, 67
3, 190695, Note_on_c, 0, 53, 0
3, 190695, Note_on_c, 0, 49, 0
3, 190710, Note_on_c, 0, 61, 68
3, 190725, Note_on_c, 0, 61, 0
3, 190740, Note_on_c, 0, 56, 70
3, 190755, Note_on_c, 0, 56, 0
3, 190770, Note_on_c, 0, 61, 71
3, 190785, Note_on_c, 0, 61, 0
3, 190800, Note_on_c, 0, 49, 73
3, 190800, Note_on_c, 0, 53, 73
3, 190815, Note_on_c, 0, 53, 0
3, 190815, Note_on_c, 0, 49, 0
3, 190830, Note_on_c, 0, 61, 74
3, 190845, Note_on_c, 0, 61, 0
3, 190860, Note_on_c, 0, 56, 76
3, 190875, Note_on_c, 0, 56, 0
3, 190890, Note_on_c, 0, 61, 77
3, 190905, Note_on_c, 0, 61, 0
3, 190920, Control_c, 0, 64, 0
3, 190920, Note_on_c, 0, 49, 78
3, 190920, Note_on_c, 0, 54, 78
3, 190920, Note_on_c, 0, 57, 78
3, 190920, Note_on_c, 0, 61, 78
3, 190935, Note_on_c, 0, 61, 0
3, 190935, Note_on_c, 0, 49, 0
3, 190935, Note_on_c, 0, 54, 0
3, 190935, Note_on_c, 0, 57, 0
3, 190950, Note_on_c, 0, 49, 45
3, 190965, Note_on_c, 0, 49, 0
3, 190980, Note_on_c, 0, 54, 45
3, 190995, Note_on_c, 0, 54, 0
3, 191010, Note_on_c, 0, 57, 45
3, 191025, Note_on_c, 0, 57, 0
3, 191040, Note_on_c, 0, 61, 45
3, 191055, Note_on_c, 0, 61, 0
3, 191070, Note_on_c, 0, 54, 45
3, 191085, Note_on_c, 0, 54, 0
3, 191100, Note_on_c, 0, 57, 45
3, 191115, Note_on_c, 0, 57, 0
3, 191130, Note_on_c, 0, 61, 45
3, 191145, Note_on_c, 0, 61, 0
3, 191160, Note_on_c, 0, 66, 45
3, 191175, Note_on_c, 0, 66, 0
3, 191190, Note_on_c, 0, 57, 45
3, 191205, Note_on_c, 0, 57, 0
3, 191220, Note_on_c, 0, 61, 45
3, 191235, Note_on_c, 0, 61, 0
3, 191250, Note_on_c, 0, 66, 45
3, 191265, Note_on_c, 0, 66, 0
3, 191280, Note_on_c, 0, 69, 45
3, 191295, Note_on_c, 0, 69, 0
3, 191310, Note_on_c, 0, 61, 45
3, 191325, Note_on_c, 0, 61, 0
3, 191340, Note_on_c, 0, 66, 45
3, 191355, Note_on_c, 0, 66, 0
3, 191370, Note_on_c, 0, 69, 45
3, 191385, Note_on_c, 0, 69, 0
3, 191400, Note_on_c, 0, 73, 45
3, 191415, Note_on_c, 0, 73, 0
3, 191430, Note_on_c, 0, 66, 45
3, 191445, Note_on_c, 0, 66, 0
3, 191460, Note_on_c, 0, 69, 45
3, 191475, Note_on_c, 0, 69, 0
3, 191490, Note_on_c, 0, 73, 45
3, 191505, Note_on_c, 0, 73, 0
3, 191520, Note_on_c, 0, 78, 45
3, 191535, Note_on_c, 0, 78, 0
3, 191550, Note_on_c, 0, 69, 45
3, 191565, Note_on_c, 0, 69, 0
3, 191580, Note_on_c, 0, 73, 45
3, 191595, Note_on_c, 0, 73, 0
3, 191610, Note_on_c, 0, 78, 45
3, 191625, Note_on_c, 0, 78, 0
3, 191640, Note_on_c, 0, 81, 45
3, 191655, Note_on_c, 0, 81, 0
3, 191670, Note_on_c, 0, 73, 45
3, 191700, Note_on_c, 0, 73, 0
3, 191700, Note_on_c, 0, 78, 45
3, 191730, Note_on_c, 0, 78, 0
3, 191730, Note_on_c, 0, 81, 45
3, 191745, Note_on_c, 0, 81, 0
3, 191760, Note_on_c, 0, 73, 80
3, 191760, Note_on_c, 0, 78, 80
3, 191760, Note_on_c, 0, 81, 80
3, 191760, Note_on_c, 0, 85, 80
3, 191767, Note_on_c, 0, 85, 0
3, 191767, Note_on_c, 0, 73, 0
3, 191767, Note_on_c, 0, 78, 0
3, 191767, Note_on_c, 0, 81, 0
3, 191820, Note_on_c, 0, 73, 60
3, 191820, Note_on_c, 0, 78, 60
3, 191820, Note_on_c, 0, 81, 60
3, 191820, Note_on_c, 0, 85, 60
3, 191828, Note_on_c, 0, 85, 0
3, 191828, Note_on_c, 0, 73, 0
3, 191828, Note_on_c, 0, 78, 0
3, 191828, Note_on_c, 0, 81, 0
3, 191910, Note_on_c, 0, 49, 45
3, 191925, Note_on_c, 0, 49, 0
3, 191940, Note_on_c, 0, 52, 45
3, 191955, Note_on_c, 0, 52, 0
3, 191970, Note_on_c, 0, 56, 45
3, 191985, Note_on_c, 0, 56, 0
3, 192000, Note_on_c, 0, 61, 45
3, 192015, Note_on_c, 0, 61, 0
3, 192030, Note_on_c, 0, 52, 45
3, 192045, Note_on_c, 0, 52, 0
3, 192060, Note_on_c, 0, 56, 45
3, 192075, Note_on_c, 0, 56, 0
3, 192090, Note_on_c, 0, 61, 45
3, 192105, Note_on_c, 0, 61, 0
3, 192120, Note_on_c, 0, 64, 45
3, 192135, Note_on_c, 0, 64, 0
3, 192150, Note_on_c, 0, 56, 45
3, 192165, Note_on_c, 0, 56, 0
3, 192180, Note_on_c, 0, 61, 45
3, 192195, Note_on_c, 0, 61, 0
3, 192210, Note_on_c, 0, 64, 45
3, 192225, Note_on_c, 0, 64, 0
3, 192240, Note_on_c, 0, 68, 45
3, 192255, Note_on_c, 0, 68, 0
3, 192270, Note_on_c, 0, 61, 45
3, 192285, Note_on_c, 0, 61, 0
3, 192300, Note_on_c, 0, 64, 45
3, 192315, Note_on_c, 0, 64, 0
3, 192330, Note_on_c, 0, 68, 45
3, 192345, Note_on_c, 0, 68, 0
3, 192360, Note_on_c, 0, 73, 45
3, 192375, Note_on_c, 0, 73, 0
3, 192390, Note_on_c, 0, 64, 45
3, 192405, Note_on_c, 0, 64, 0
3, 192420, Note_on_c, 0, 68, 45
3, 192435, Note_on_c, 0, 68, 0
3, 192450, Note_on_c, 0, 73, 45
3, 192465, Note_on_c, 0, 73, 0
3, 192480, Note_on_c, 0, 76, 45
3, 192495, Note_on_c, 0, 76, 0
3, 192510, Note_on_c, 0, 68, 45
3, 192525, Note_on_c, 0, 68, 0
3, 192540, Note_on_c, 0, 73, 45
3, 192555, Note_on_c, 0, 73, 0
3, 192570, Note_on_c, 0, 76, 45
3, 192585, Note_on_c, 0, 76, 0
3, 192600, Note_on_c, 0, 80, 45
3, 192615, Note_on_c, 0, 80, 0
3, 192630, Note_on_c, 0, 73, 45
3, 192660, Note_on_c, 0, 73, 0
3, 192660, Note_on_c, 0, 76, 45
3, 192690, Note_on_c, 0, 76, 0
3, 192690, Note_on_c, 0, 80, 45
3, 192720, Note_on_c, 0, 80, 0
3, 192720, Note_on_c, 0, 73, 80
3, 192720, Note_on_c, 0, 76, 80
3, 192720, Note_on_c, 0, 80, 80
3, 192720, Note_on_c, 0, 85, 80
3, 192726, Note_on_c, 0, 85, 0
3, 192726, Note_on_c, 0, 73, 0
3, 192726, Note_on_c, 0, 76, 0
3, 192726, Note_on_c, 0, 80, 0
3, 192780, Note_on_c, 0, 73, 60
3, 192780, Note_on_c, 0, 76, 60
3, 192780, Note_on_c, 0, 80, 60
3, 192780, Note_on_c, 0, 85, 60
3, 192788, Note_on_c, 0, 85, 0
3, 192788, Note_on_c, 0, 73, 0
3, 192788, Note_on_c, 0, 76, 0
3, 192788, Note_on_c, 0, 80, 0
3, 192840, Control_c, 0, 64, 127
3, 192900, Note_on_c, 0, 49, 60
3, 192915, Note_on_c, 0, 52, 65
3, 192930, Note_on_c, 0, 55, 70
3, 192945, Note_on_c, 0, 58, 75
3, 192960, Note_on_c, 0, 61, 80
3, 193138, Note_on_c, 0, 61, 0
3, 193138, Note_on_c, 0, 55, 0
3, 193138, Note_on_c, 0, 49, 0
3, 193138, Note_on_c, 0, 52, 0
3, 193138, Note_on_c, 0, 58, 0
3, 193140, Note_on_c, 0, 61, 60
3, 193155, Note_on_c, 0, 64, 65
3, 193170, Note_on_c, 0, 67, 70
3, 193185, Note_on_c, 0, 70, 75
3, 193200, Note_on_c, 0, 73, 80
3, 193378, Note_on_c, 0, 73, 0
3, 193378, Note_on_c, 0, 67, 0
3, 193378, Note_on_c, 0, 61, 0
3, 193378, Note_on_c, 0, 64, 0
3, 193378, Note_on_c, 0, 70, 0
3, 193380, Note_on_c, 0, 73, 60
3, 193395, Note_on_c, 0, 76, 65
3, 193410, Note_on_c, 0, 79, 70
3, 193425, Note_on_c, 0, 82, 75
3, 193440, Note_on_c, 0, 85, 80
3, 193799, Note_on_c, 0, 85, 0
3, 193799, Note_on_c, 0, 79, 0
3, 193799, Note_on_c, 0, 73, 0
3, 193799, Note_on_c, 0, 76, 0
3, 193799, Note_on_c, 0, 82, 0
3, 193800, Control_c, 0, 64, 0
3, 193800, Control_c, 0, 64, 127
3, 193860, Note_on_c, 0, 45, 60
3, 193875, Note_on_c, 0, 48, 65
3, 193890, Note_on_c, 0, 51, 70
3, 193905, Note_on_c, 0, 54, 75
3, 193920, Note_on_c, 0, 57, 80
3, 194098, Note_on_c, 0, 57, 0
3, 194098, Note_on_c, 0, 51, 0
3, 194098, Note_on_c, 0, 45, 0
3, 194098, Note_on_c, 0, 48, 0
3, 194098, Note_on_c, 0, 54, 0
3, 194100, Note_on_c, 0, 57, 60
3, 194115, Note_on_c, 0, 60, 65
3, 194130, Note_on_c, 0, 63, 70
3, 194145, Note_on_c, 0, 66, 75
3, 194160, Note_on_c, 0, 69, 80
3, 194302, Note_on_c, 0, 69, 0
3, 194302, Note_on_c, 0, 63, 0
3, 194302, Note_on_c, 0, 57, 0
3, 194302, Note_on_c, 0, 60, 0
3, 194302, Note_on_c, 0, 66, 0
3, 194310, Note_on_c, 0, 69, 70
3, 194340, Note_on_c, 0, 72, 75
3, 194370, Note_on_c, 0, 75, 80
3, 194400, Note_on_c, 0, 81, 85
3, 194759, Note_on_c, 0, 81, 0
3, 194759, Note_on_c, 0, 69, 0
3, 194759, Note_on_c, 0, 72, 0
3, 194759, Note_on_c, 0, 75, 0
3, 194760, Control_c, 0, 64, 0
3, 194790, Note_on_c, 0, 68, 30
3, 194818, Note_on_c, 0, 68, 0
3, 194820, Note_on_c, 0, 64, 30
3, 194848, Note_on_c, 0, 64, 0
3, 194850, Note_on_c, 0, 68, 30
3, 194879, Note_on_c, 0, 68, 0
3, 194880, Note_on_c, 0, 61, 30
3, 194908, Note_on_c, 0, 61, 0
3, 194910, Note_on_c, 0, 68, 30
3, 194938, Note_on_c, 0, 68, 0
3, 194940, Note_on_c, 0, 64, 30
3, 194968, Note_on_c, 0, 64, 0
3, 194970, Note_on_c, 0, 68, 30
3, 194999, Note_on_c, 0, 68, 0
3, 195000, Note_on_c, 0, 61, 30
3, 195028, Note_on_c, 0, 61, 0
3, 195030, Note_on_c, 0, 68, 30
3, 195058, Note_on_c, 0, 68, 0
3, 195060, Note_on_c, 0, 64, 30
3, 195088, Note_on_c, 0, 64, 0
3, 195090, Note_on_c, 0, 68, 30
3, 195119, Note_on_c, 0, 68, 0
3, 195120, Note_on_c, 0, 61, 30
3, 195148, Note_on_c, 0, 61, 0
3, 195150, Note_on_c, 0, 68, 30
3, 195178, Note_on_c, 0, 68, 0
3, 195180, Note_on_c, 0, 64, 30
3, 195208, Note_on_c, 0, 64, 0
3, 195210, Note_on_c, 0, 68, 30
3, 195239, Note_on_c, 0, 68, 0
3, 195240, Note_on_c, 0, 63, 30
3, 195268, Note_on_c, 0, 63, 0
3, 195270, Note_on_c, 0, 68, 30
3, 195298, Note_on_c, 0, 68, 0
3, 195300, Note_on_c, 0, 66, 30
3, 195328, Note_on_c, 0, 66, 0
3, 195330, Note_on_c, 0, 68, 30
3, 195359, Note_on_c, 0, 68, 0
3, 195360, Note_on_c, 0, 63, 30
3, 195388, Note_on_c, 0, 63, 0
3, 195390, Note_on_c, 0, 68, 30
3, 195418, Note_on_c, 0, 68, 0
3, 195420, Note_on_c, 0, 66, 30
3, 195448, Note_on_c, 0, 66, 0
3, 195450, Note_on_c, 0, 68, 30
3, 195479, Note_on_c, 0, 68, 0
3, 195480, Note_on_c, 0, 63, 30
3, 195508, Note_on_c, 0, 63, 0
3, 195510, Note_on_c, 0, 68, 30
3, 195538, Note_on_c, 0, 68, 0
3, 195540, Note_on_c, 0, 66, 30
3, 195568, Note_on_c, 0, 66, 0
3, 195570, Note_on_c, 0, 68, 30
3, 195599, Note_on_c, 0, 68, 0
3, 195600, Note_on_c, 0, 63, 30
3, 195628, Note_on_c, 0, 63, 0
3, 195630, Note_on_c, 0, 68, 30
3, 195658, Note_on_c, 0, 68, 0
3, 195660, Note_on_c, 0, 66, 30
3, 195688, Note_on_c, 0, 66, 0
3, 195690, Note_on_c, 0, 68, 30
3, 195719, Note_on_c, 0, 68, 0
3, 195720, Note_on_c, 0, 61, 30
3, 195748, Note_on_c, 0, 61, 0
3, 195750, Note_on_c, 0, 68, 30
3, 195778, Note_on_c, 0, 68, 0
3, 195780, Note_on_c, 0, 64, 30
3, 195808, Note_on_c, 0, 64, 0
3, 195810, Note_on_c, 0, 68, 30
3, 195839, Note_on_c, 0, 68, 0
3, 195840, Note_on_c, 0, 61, 30
3, 195868, Note_on_c, 0, 61, 0
3, 195870, Note_on_c, 0, 68, 30
3, 195898, Note_on_c, 0, 68, 0
3, 195900, Note_on_c, 0, 64, 30
3, 195928, Note_on_c, 0, 64, 0
3, 195930, Note_on_c, 0, 68, 30
3, 195959, Note_on_c, 0, 68, 0
3, 195960, Note_on_c, 0, 61, 30
3, 195988, Note_on_c, 0, 61, 0
3, 195990, Note_on_c, 0, 68, 30
3, 196018, Note_on_c, 0, 68, 0
3, 196020, Note_on_c, 0, 64, 30
3, 196048, Note_on_c, 0, 64, 0
3, 196050, Note_on_c, 0, 68, 30
3, 196079, Note_on_c, 0, 68, 0
3, 196080, Note_on_c, 0, 61, 30
3, 196108, Note_on_c, 0, 61, 0
3, 196110, Note_on_c, 0, 68, 30
3, 196138, Note_on_c, 0, 68, 0
3, 196140, Note_on_c, 0, 64, 30
3, 196168, Note_on_c, 0, 64, 0
3, 196170, Note_on_c, 0, 68, 30
3, 196199, Note_on_c, 0, 68, 0
3, 196200, Note_on_c, 0, 60, 30
3, 196228, Note_on_c, 0, 60, 0
3, 196230, Note_on_c, 0, 68, 30
3, 196258, Note_on_c, 0, 68, 0
3, 196260, Note_on_c, 0, 66, 30
3, 196288, Note_on_c, 0, 66, 0
3, 196290, Note_on_c, 0, 68, 30
3, 196319, Note_on_c, 0, 68, 0
3, 196320, Note_on_c, 0, 60, 30
3, 196348, Note_on_c, 0, 60, 0
3, 196350, Note_on_c, 0, 68, 30
3, 196378, Note_on_c, 0, 68, 0
3, 196380, Note_on_c, 0, 66, 30
3, 196408, Note_on_c, 0, 66, 0
3, 196410, Note_on_c, 0, 68, 30
3, 196439, Note_on_c, 0, 68, 0
3, 196440, Note_on_c, 0, 60, 30
3, 196468, Note_on_c, 0, 60, 0
3, 196470, Note_on_c, 0, 68, 30
3, 196498, Note_on_c, 0, 68, 0
3, 196500, Note_on_c, 0, 66, 30
3, 196528, Note_on_c, 0, 66, 0
3, 196530, Note_on_c, 0, 68, 30
3, 196559, Note_on_c, 0, 68, 0
3, 196560, Note_on_c, 0, 60, 30
3, 196588, Note_on_c, 0, 60, 0
3, 196590, Note_on_c, 0, 68, 30
3, 196618, Note_on_c, 0, 68, 0
3, 196620, Note_on_c, 0, 66, 30
3, 196648, Note_on_c, 0, 66, 0
3, 196650, Note_on_c, 0, 68, 30
3, 196679, Note_on_c, 0, 68, 0
3, 196680, Note_on_c, 0, 61, 45
3, 196680, Note_on_c, 0, 64, 45
3, 196680, Note_on_c, 0, 68, 45
3, 196710, Note_on_c, 0, 68, 0
3, 196710, Note_on_c, 0, 64, 0
3, 196710, Note_on_c, 0, 61, 0
3, 196800, Note_on_c, 0, 68, 45
3, 196800, Note_on_c, 0, 80, 45
3, 197040, Note_on_c, 0, 80, 0
3, 197040, Note_on_c, 0, 68, 0
3, 197040, Note_on_c, 0, 64, 45
3, 197040, Note_on_c, 0, 76, 45
3, 197130, Note_on_c, 0, 76, 0
3, 197130, Note_on_c, 0, 64, 0
3, 197130, Note_on_c, 0, 61, 45
3, 197130, Note_on_c, 0, 73, 45
3, 197159, Note_on_c, 0, 73, 0
3, 197159, Note_on_c, 0, 61, 0
3, 197160, Note_on_c, 0, 61, 45
3, 197160, Note_on_c, 0, 73, 45
3, 197280, Note_on_c, 0, 73, 0
3, 197280, Note_on_c, 0, 61, 0
3, 197280, Note_on_c, 0, 60, 45
3, 197280, Note_on_c, 0, 72, 45
3, 197458, Note_on_c, 0, 72, 0
3, 197458, Note_on_c, 0, 60, 0
3, 197460, Note_on_c, 0, 60, 45
3, 197460, Note_on_c, 0, 72, 45
3, 197520, Note_on_c, 0, 72, 0
3, 197520, Note_on_c, 0, 60, 0
3, 197520, Note_on_c, 0, 68, 63
3, 197520, Note_on_c, 0, 80, 63
3, 197610, Note_on_c, 0, 80, 0
3, 197610, Note_on_c, 0, 68, 0
3, 197610, Note_on_c, 0, 60, 45
3, 197610, Note_on_c, 0, 72, 45
3, 197639, Note_on_c, 0, 72, 0
3, 197639, Note_on_c, 0, 60, 0
3, 197640, Note_on_c, 0, 63, 45
3, 197640, Note_on_c, 0, 75, 45
3, 197760, Note_on_c, 0, 75, 0
3, 197760, Note_on_c, 0, 63, 0
3, 197760, Note_on_c, 0, 61, 45
3, 197760, Note_on_c, 0, 73, 45
3, 197938, Note_on_c, 0, 73, 0
3, 197938, Note_on_c, 0, 61, 0
3, 197940, Note_on_c, 0, 61, 45
3, 197940, Note_on_c, 0, 73, 45
3, 198000, Note_on_c, 0, 73, 0
3, 198000, Note_on_c, 0, 61, 0
3, 198000, Note_on_c, 0, 68, 63
3, 198000, Note_on_c, 0, 80, 63
3, 198090, Note_on_c, 0, 80, 0
3, 198090, Note_on_c, 0, 68, 0
3, 198090, Note_on_c, 0, 61, 45
3, 198090, Note_on_c, 0, 73, 45
3, 198119, Note_on_c, 0, 73, 0
3, 198119, Note_on_c, 0, 61, 0
3, 198120, Note_on_c, 0, 64, 45
3, 198120, Note_on_c, 0, 76, 45
3, 198240, Note_on_c, 0, 76, 0
3, 198240, Note_on_c, 0, 64, 0
3, 198240, Note_on_c, 0, 63, 45
3, 198240, Note_on_c, 0, 75, 45
3, 198418, Note_on_c, 0, 75, 0
3, 198418, Note_on_c, 0, 63, 0
3, 198420, Note_on_c, 0, 63, 45
3, 198420, Note_on_c, 0, 75, 45
3, 198480, Note_on_c, 0, 75, 0
3, 198480, Note_on_c, 0, 63, 0
3, 198480, Note_on_c, 0, 68, 63
3, 198480, Note_on_c, 0, 80, 63
3, 198570, Note_on_c, 0, 80, 0
3, 198570, Note_on_c, 0, 68, 0
3, 198570, Note_on_c, 0, 63, 45
3, 198570, Note_on_c, 0, 75, 45
3, 198599, Note_on_c, 0, 75, 0
3, 198599, Note_on_c, 0, 63, 0
3, 198600, Note_on_c, 0, 66, 45
3, 198600, Note_on_c, 0, 78, 45
3, 198660, Note_on_c, 0, 78, 0
3, 198660, Note_on_c, 0, 66, 0
3, 198660, Note_on_c, 0, 64, 45
3, 198660, Note_on_c, 0, 76, 45
3, 198719, Note_on_c, 0, 76, 0
3, 198719, Note_on_c, 0, 64, 0
3, 198720, Note_on_c, 0, 73, 63
3, 198720, Note_on_c, 0, 85, 63
3, 198778, Note_on_c, 0, 85, 0
3, 198778, Note_on_c, 0, 73, 0
3, 198780, Note_on_c, 0, 64, 45
3, 198780, Note_on_c, 0, 76, 45
3, 198800, Note_on_c, 0, 76, 0
3, 198800, Note_on_c, 0, 64, 0
3, 198840, Note_on_c, 0, 66, 45
3, 198840, Note_on_c, 0, 78, 45
3, 198900, Note_on_c, 0, 78, 0
3, 198900, Note_on_c, 0, 66, 0
3, 198900, Note_on_c, 0, 65, 45
3, 198900, Note_on_c, 0, 77, 45
3, 198959, Note_on_c, 0, 77, 0
3, 198959, Note_on_c, 0, 65, 0
3, 198960, Note_on_c, 0, 73, 63
3, 198960, Note_on_c, 0, 85, 63
3, 198980, Note_on_c, 0, 85, 0
3, 198980, Note_on_c, 0, 73, 0
3, 199020, Note_on_c, 0, 65, 45
3, 199020, Note_on_c, 0, 77, 45
3, 199040, Note_on_c, 0, 77, 0
3, 199040, Note_on_c, 0, 65, 0
3, 199080, Note_on_c, 0, 68, 45
3, 199080, Note_on_c, 0, 80, 45
3, 199140, Note_on_c, 0, 80, 0
3, 199140, Note_on_c, 0, 68, 0
3, 199140, Note_on_c, 0, 66, 45
3, 199140, Note_on_c, 0, 78, 45
3, 199199, Note_on_c, 0, 78, 0
3, 199199, Note_on_c, 0, 66, 0
3, 199200, Note_on_c, 0, 73, 63
3, 199200, Note_on_c, 0, 85, 63
3, 199220, Note_on_c, 0, 85, 0
3, 199220, Note_on_c, 0, 73, 0
3, 199260, Note_on_c, 0, 66, 45
3, 199260, Note_on_c, 0, 78, 45
3, 199280, Note_on_c, 0, 78, 0
3, 199280, Note_on_c, 0, 66, 0
3, 199320, Note_on_c, 0, 69, 45
3, 199320, Note_on_c, 0, 81, 45
3, 199380, Note_on_c, 0, 81, 0
3, 199380, Note_on_c, 0, 69, 0
3, 199380, Note_on_c, 0, 68, 45
3, 199380, Note_on_c, 0, 80, 45
3, 199439, Note_on_c, 0, 80, 0
3, 199439, Note_on_c, 0, 68, 0
3, 199440, Note_on_c, 0, 73, 63
3, 199440, Note_on_c, 0, 85, 63
3, 199460, Note_on_c, 0, 85, 0
3, 199460, Note_on_c, 0, 73, 0
3, 199500, Note_on_c, 0, 68, 45
3, 199500, Note_on_c, 0, 80, 45
3, 199520, Note_on_c, 0, 80, 0
3, 199520, Note_on_c, 0, 68, 0
3, 199560, Control_c, 0, 64, 127
3, 199560, Note_on_c, 0, 81, 85
3, 199600, Note_on_c, 0, 81, 0
3, 199600, Note_on_c, 0, 78, 78
3, 199640, Note_on_c, 0, 78, 0
3, 199640, Note_on_c, 0, 73, 78
3, 199680, Note_on_c, 0, 73, 0
3, 199680, Note_on_c, 0, 69, 78
3, 199720, Note_on_c, 0, 69, 0
3, 199720, Note_on_c, 0, 66, 78
3, 199760, Note_on_c, 0, 66, 0
3, 199760, Note_on_c, 0, 61, 78
3, 199799, Note_on_c, 0, 61, 0
3, 199800, Note_on_c, 0, 69, 85
3, 199838, Note_on_c, 0, 69, 0
3, 199840, Note_on_c, 0, 66, 78
3, 199878, Note_on_c, 0, 66, 0
3, 199880, Note_on_c, 0, 61, 78
3, 199919, Note_on_c, 0, 61, 0
3, 199920, Note_on_c, 0, 57, 78
3, 199960, Note_on_c, 0, 57, 0
3, 199960, Note_on_c, 0, 54, 78
3, 200000, Note_on_c, 0, 54, 0
3, 200000, Note_on_c, 0, 49, 78
3, 200039, Note_on_c, 0, 49, 0
3, 200040, Note_on_c, 0, 57, 85
3, 200070, Note_on_c, 0, 57, 0
3, 200070, Note_on_c, 0, 54, 78
3, 200100, Note_on_c, 0, 54, 0
3, 200100, Note_on_c, 0, 49, 78
3, 200130, Note_on_c, 0, 49, 0
3, 200130, Note_on_c, 0, 45, 78
3, 200160, Note_on_c, 0, 45, 0
3, 200160, Note_on_c, 0, 49, 78
3, 200190, Note_on_c, 0, 49, 0
3, 200190, Note_on_c, 0, 54, 78
3, 200220, Note_on_c, 0, 54, 0
3, 200220, Note_on_c, 0, 57, 78
3, 200250, Note_on_c, 0, 57, 0
3, 200250, Note_on_c, 0, 61, 78
3, 200279, Note_on_c, 0, 61, 0
3, 200280, Note_on_c, 0, 66, 78
3, 200310, Note_on_c, 0, 66, 0
3, 200310, Note_on_c, 0, 69, 78
3, 200340, Note_on_c, 0, 69, 0
3, 200340, Note_on_c, 0, 73, 78
3, 200370, Note_on_c, 0, 73, 0
3, 200370, Note_on_c, 0, 78, 78
3, 200399, Note_on_c, 0, 78, 0
3, 200400, Note_on_c, 0, 81, 85
3, 200428, Note_on_c, 0, 81, 0
3, 200430, Note_on_c, 0, 78, 78
3, 200458, Note_on_c, 0, 78, 0
3, 200460, Note_on_c, 0, 73, 78
3, 200488, Note_on_c, 0, 73, 0
3, 200490, Note_on_c, 0, 69, 78
3, 200519, Note_on_c, 0, 69, 0
3, 200520, Control_c, 0, 64, 0
3, 200520, Control_c, 0, 64, 127
3, 200520, Note_on_c, 0, 81, 85
3, 200558, Note_on_c, 0, 81, 0
3, 200560, Note_on_c, 0, 78, 78
3, 200598, Note_on_c, 0, 78, 0
3, 200600, Note_on_c, 0, 74, 78
3, 200639, Note_on_c, 0, 74, 0
3, 200640, Note_on_c, 0, 69, 78
3, 200678, Note_on_c, 0, 69, 0
3, 200680, Note_on_c, 0, 66, 78
3, 200718, Note_on_c, 0, 66, 0
3, 200720, Note_on_c, 0, 62, 78
3, 200759, Note_on_c, 0, 62, 0
3, 200760, Note_on_c, 0, 69, 85
3, 200798, Note_on_c, 0, 69, 0
3, 200800, Note_on_c, 0, 66, 78
3, 200838, Note_on_c, 0, 66, 0
3, 200840, Note_on_c, 0, 62, 78
3, 200879, Note_on_c, 0, 62, 0
3, 200880, Note_on_c, 0, 57, 78
3, 200920, Note_on_c, 0, 57, 0
3, 200920, Note_on_c, 0, 54, 78
3, 200960, Note_on_c, 0, 54, 0
3, 200960, Note_on_c, 0, 50, 78
3, 200999, Note_on_c, 0, 50, 0
3, 201000, Note_on_c, 0, 57, 85
3, 201030, Note_on_c, 0, 57, 0
3, 201030, Note_on_c, 0, 54, 78
3, 201060, Note_on_c, 0, 54, 0
3, 201060, Note_on_c, 0, 50, 78
3, 201090, Note_on_c, 0, 50, 0
3, 201090, Note_on_c, 0, 45, 78
3, 201120, Note_on_c, 0, 45, 0
3, 201120, Note_on_c, 0, 50, 78
3, 201150, Note_on_c, 0, 50, 0
3, 201150, Note_on_c, 0, 54, 78
3, 201180, Note_on_c, 0, 54, 0
3, 201180, Note_on_c, 0, 57, 78
3, 201210, Note_on_c, 0, 57, 0
3, 201210, Note_on_c, 0, 62, 78
3, 201239, Note_on_c, 0, 62, 0
3, 201240, Note_on_c, 0, 66, 78
3, 201270, Note_on_c, 0, 66, 0
3, 201270, Note_on_c, 0, 69, 78
3, 201300, Note_on_c, 0, 69, 0
3, 201300, Note_on_c, 0, 74, 78
3, 201330, Note_on_c, 0, 74, 0
3, 201330, Note_on_c, 0, 78, 78
3, 201359, Note_on_c, 0, 78, 0
3, 201360, Note_on_c, 0, 81, 85
3, 201390, Note_on_c, 0, 81, 0
3, 201390, Note_on_c, 0, 78, 78
3, 201420, Note_on_c, 0, 78, 0
3, 201420, Note_on_c, 0, 74, 78
3, 201450, Note_on_c, 0, 74, 0
3, 201450, Note_on_c, 0, 69, 78
3, 201479, Note_on_c, 0, 69, 0
3, 201480, Control_c, 0, 64, 0
3, 201480, Control_c, 0, 64, 127
3, 201480, Note_on_c, 0, 85, 85
3, 201520, Note_on_c, 0, 85, 0
3, 201520, Note_on_c, 0, 82, 78
3, 201560, Note_on_c, 0, 82, 0
3, 201560, Note_on_c, 0, 79, 78
3, 201600, Note_on_c, 0, 79, 0
3, 201600, Note_on_c, 0, 76, 78
3, 201640, Note_on_c, 0, 76, 0
3, 201640, Note_on_c, 0, 73, 78
3, 201680, Note_on_c, 0, 73, 0
3, 201680, Note_on_c, 0, 70, 78
3, 201719, Note_on_c, 0, 70, 0
3, 201720, Note_on_c, 0, 76, 85
3, 201760, Note_on_c, 0, 76, 0
3, 201760, Note_on_c, 0, 73, 78
3, 201800, Note_on_c, 0, 73, 0
3, 201800, Note_on_c, 0, 70, 78
3, 201840, Note_on_c, 0, 70, 0
3, 201840, Note_on_c, 0, 67, 78
3, 201870, Note_on_c, 0, 67, 0
3, 201870, Note_on_c, 0, 64, 78
3, 201900, Note_on_c, 0, 64, 0
3, 201900, Note_on_c, 0, 61, 78
3, 201930, Note_on_c, 0, 61, 0
3, 201930, Note_on_c, 0, 58, 78
3, 201959, Note_on_c, 0, 58, 0
3, 201960, Note_on_c, 0, 64, 85
3, 201990, Note_on_c, 0, 64, 0
3, 201990, Note_on_c, 0, 61, 78
3, 202020, Note_on_c, 0, 61, 0
3, 202020, Note_on_c, 0, 58, 78
3, 202050, Note_on_c, 0, 58, 0
3, 202050, Note_on_c, 0, 55, 78
3, 202079, Note_on_c, 0, 55, 0
3, 202080, Note_on_c, 0, 52, 78
3, 202110, Note_on_c, 0, 52, 0
3, 202110, Note_on_c, 0, 49, 78
3, 202140, Note_on_c, 0, 49, 0
3, 202140, Note_on_c, 0, 52, 78
3, 202170, Note_on_c, 0, 52, 0
3, 202170, Note_on_c, 0, 55, 78
3, 202199, Note_on_c, 0, 55, 0
3, 202200, Note_on_c, 0, 58, 78
3, 202220, Note_on_c, 0, 58, 0
3, 202220, Note_on_c, 0, 61, 78
3, 202240, Note_on_c, 0, 61, 0
3, 202240, Note_on_c, 0, 64, 78
3, 202260, Note_on_c, 0, 64, 0
3, 202260, Note_on_c, 0, 67, 78
3, 202280, Note_on_c, 0, 67, 0
3, 202280, Note_on_c, 0, 70, 78
3, 202300, Note_on_c, 0, 70, 0
3, 202300, Note_on_c, 0, 73, 78
3, 202320, Note_on_c, 0, 73, 0
3, 202320, Note_on_c, 0, 76, 85
3, 202340, Note_on_c, 0, 76, 0
3, 202340, Note_on_c, 0, 79, 78
3, 202360, Note_on_c, 0, 79, 0
3, 202360, Note_on_c, 0, 82, 78
3, 202380, Note_on_c, 0, 82, 0
3, 202380, Note_on_c, 0, 85, 78
3, 202400, Note_on_c, 0, 85, 0
3, 202400, Note_on_c, 0, 82, 78
3, 202420, Note_on_c, 0, 82, 0
3, 202420, Note_on_c, 0, 76, 78
3, 202439, Note_on_c, 0, 76, 0
3, 202440, Control_c, 0, 64, 0
3, 202440, Control_c, 0, 64, 127
3, 202440, Note_on_c, 0, 88, 82
3, 202480, Note_on_c, 0, 88, 0
3, 202480, Note_on_c, 0, 85, 82
3, 202520, Note_on_c, 0, 85, 0
3, 202520, Note_on_c, 0, 80, 82
3, 202560, Note_on_c, 0, 80, 0
3, 202560, Note_on_c, 0, 76, 82
3, 202600, Note_on_c, 0, 76, 0
3, 202600, Note_on_c, 0, 73, 82
3, 202640, Note_on_c, 0, 73, 0
3, 202640, Note_on_c, 0, 68, 82
3, 202679, Note_on_c, 0, 68, 0
3, 202680, Note_on_c, 0, 76, 85
3, 202720, Note_on_c, 0, 76, 0
3, 202720, Note_on_c, 0, 73, 82
3, 202760, Note_on_c, 0, 73, 0
3, 202760, Note_on_c, 0, 68, 82
3, 202799, Note_on_c, 0, 68, 0
3, 202800, Note_on_c, 0, 64, 82
3, 202820, Note_on_c, 0, 64, 0
3, 202830, Note_on_c, 0, 73, 82
3, 202860, Note_on_c, 0, 73, 0
3, 202860, Note_on_c, 0, 68, 82
3, 202890, Note_on_c, 0, 68, 0
3, 202890, Note_on_c, 0, 64, 82
3, 202919, Note_on_c, 0, 64, 0
3, 202920, Note_on_c, 0, 61, 82
3, 202940, Note_on_c, 0, 61, 0
3, 202950, Note_on_c, 0, 68, 82
3, 202980, Note_on_c, 0, 68, 0
3, 202980, Note_on_c, 0, 64, 82
3, 203010, Note_on_c, 0, 64, 0
3, 203010, Note_on_c, 0, 61, 82
3, 203039, Note_on_c, 0, 61, 0
3, 203040, Note_on_c, 0, 56, 82
3, 203060, Note_on_c, 0, 56, 0
3, 203070, Note_on_c, 0, 64, 82
3, 203100, Note_on_c, 0, 64, 0
3, 203100, Note_on_c, 0, 61, 82
3, 203130, Note_on_c, 0, 61, 0
3, 203130, Note_on_c, 0, 56, 82
3, 203159, Note_on_c, 0, 56, 0
3, 203160, Note_on_c, 0, 49, 82
3, 203180, Note_on_c, 0, 49, 0
3, 203190, Note_on_c, 0, 61, 82
3, 203220, Note_on_c, 0, 61, 0
3, 203220, Note_on_c, 0, 56, 82
3, 203250, Note_on_c, 0, 56, 0
3, 203250, Note_on_c, 0, 52, 82
3, 203279, Note_on_c, 0, 52, 0
3, 203280, Note_on_c, 0, 49, 82
3, 203300, Note_on_c, 0, 49, 0
3, 203310, Note_on_c, 0, 56, 82
3, 203340, Note_on_c, 0, 56, 0
3, 203340, Note_on_c, 0, 52, 82
3, 203370, Note_on_c, 0, 52, 0
3, 203370, Note_on_c, 0, 49, 82
3, 203399, Note_on_c, 0, 49, 0
3, 203880, Note_on_c, 0, 60, 82
3, 203910, Note_on_c, 0, 60, 0
3, 203910, Note_on_c, 0, 61, 82
3, 203940, Note_on_c, 0, 61, 0
3, 203940, Note_on_c, 0, 62, 82
3, 203962, Note_on_c, 0, 62, 0
3, 203962, Note_on_c, 0, 63, 82
3, 203984, Note_on_c, 0, 63, 0
3, 203985, Note_on_c, 0, 64, 82
3, 204007, Note_on_c, 0, 64, 0
3, 204007, Note_on_c, 0, 65, 82
3, 204029, Note_on_c, 0, 65, 0
3, 204030, Note_on_c, 0, 66, 82
3, 204052, Note_on_c, 0, 66, 0
3, 204052, Note_on_c, 0, 67, 82
3, 204074, Note_on_c, 0, 67, 0
3, 204075, Note_on_c, 0, 68, 82
3, 204097, Note_on_c, 0, 68, 0
3, 204097, Note_on_c, 0, 69, 82
3, 204119, Note_on_c, 0, 69, 0
3, 204120, Note_on_c, 0, 70, 82
3, 204142, Note_on_c, 0, 70, 0
3, 204142, Note_on_c, 0, 72, 82
3, 204164, Note_on_c, 0, 72, 0
3, 204165, Note_on_c, 0, 72, 82
3, 204187, Note_on_c, 0, 72, 0
3, 204187, Note_on_c, 0, 73, 82
3, 204209, Note_on_c, 0, 73, 0
3, 204210, Note_on_c, 0, 74, 82
3, 204232, Note_on_c, 0, 74, 0
3, 204232, Note_on_c, 0, 75, 82
3, 204254, Note_on_c, 0, 75, 0
3, 204255, Note_on_c, 0, 77, 82
3, 204277, Note_on_c, 0, 77, 0
3, 204277, Note_on_c, 0, 77, 82
3, 204299, Note_on_c, 0, 77, 0
3, 204300, Note_on_c, 0, 78, 82
3, 204322, Note_on_c, 0, 78, 0
3, 204322, Note_on_c, 0, 79, 82
3, 204344, Note_on_c, 0, 79, 0
3, 204345, Note_on_c, 0, 80, 82
3, 204359, Note_on_c, 0, 80, 0
3, 204360, Note_on_c, 0, 81, 85
3, 204390, Note_on_c, 0, 81, 0
3, 204390, Note_on_c, 0, 83, 82
3, 204420, Note_on_c, 0, 83, 0
3, 204420, Note_on_c, 0, 81, 82
3, 204450, Note_on_c, 0, 81, 0
3, 204450, Note_on_c, 0, 83, 82
3, 204480, Note_on_c, 0, 83, 0
3, 204480, Note_on_c, 0, 81, 82
3, 204510, Note_on_c, 0, 81, 0
3, 204510, Note_on_c, 0, 83, 82
3, 204540, Note_on_c, 0, 83, 0
3, 204540, Note_on_c, 0, 81, 82
3, 204570, Note_on_c, 0, 81, 0
3, 204570, Note_on_c, 0, 83, 82
3, 204600, Note_on_c, 0, 83, 0
3, 204600, Note_on_c, 0, 81, 82
3, 204630, Note_on_c, 0, 81, 0
3, 204630, Note_on_c, 0, 83, 82
3, 204660, Note_on_c, 0, 83, 0
3, 204660, Note_on_c, 0, 81, 82
3, 204690, Note_on_c, 0, 81, 0
3, 204690, Note_on_c, 0, 83, 82
3, 204720, Note_on_c, 0, 83, 0
3, 204720, Note_on_c, 0, 81, 82
3, 204750, Note_on_c, 0, 81, 0
3, 204750, Note_on_c, 0, 83, 82
3, 204780, Note_on_c, 0, 83, 0
3, 204780, Note_on_c, 0, 81, 82
3, 204810, Note_on_c, 0, 81, 0
3, 204810, Note_on_c, 0, 83, 82
3, 204839, Note_on_c, 0, 83, 0
3, 204840, Note_on_c, 0, 81, 82
3, 204870, Note_on_c, 0, 81, 0
3, 204870, Note_on_c, 0, 83, 82
3, 204900, Note_on_c, 0, 83, 0
3, 204900, Note_on_c, 0, 81, 82
3, 204930, Note_on_c, 0, 81, 0
3, 204930, Note_on_c, 0, 83, 82
3, 204960, Note_on_c, 0, 83, 0
3, 204960, Note_on_c, 0, 81, 82
3, 204990, Note_on_c, 0, 81, 0
3, 204990, Note_on_c, 0, 83, 82
3, 205020, Note_on_c, 0, 83, 0
3, 205020, Note_on_c, 0, 81, 82
3, 205050, Note_on_c, 0, 81, 0
3, 205050, Note_on_c, 0, 83, 82
3, 205079, Note_on_c, 0, 83, 0
3, 205080, Control_c, 0, 64, 0
3, 205080, Note_on_c, 0, 81, 82
3, 205110, Note_on_c, 0, 81, 0
3, 205110, Note_on_c, 0, 80, 82
3, 205140, Note_on_c, 0, 80, 0
3, 205140, Note_on_c, 0, 78, 82
3, 205170, Note_on_c, 0, 78, 0
3, 205170, Note_on_c, 0, 76, 82
3, 205200, Note_on_c, 0, 76, 0
3, 205200, Note_on_c, 0, 75, 82
3, 205230, Note_on_c, 0, 75, 0
3, 205230, Note_on_c, 0, 78, 82
3, 205260, Note_on_c, 0, 78, 0
3, 205260, Note_on_c, 0, 73, 82
3, 205290, Note_on_c, 0, 73, 0
3, 205290, Note_on_c, 0, 72, 82
3, 205319, Note_on_c, 0, 72, 0
3, 205320, Note_on_c, 0, 75, 82
3, 205350, Note_on_c, 0, 75, 0
3, 205350, Note_on_c, 0, 69, 82
3, 205380, Note_on_c, 0, 69, 0
3, 205380, Note_on_c, 0, 68, 82
3, 205410, Note_on_c, 0, 68, 0
3, 205410, Note_on_c, 0, 66, 82
3, 205440, Note_on_c, 0, 66, 0
3, 205440, Note_on_c, 0, 69, 80
3, 205470, Note_on_c, 0, 69, 0
3, 205470, Note_on_c, 0, 64, 78
3, 205500, Note_on_c, 0, 64, 0
3, 205500, Note_on_c, 0, 63, 76
3, 205530, Note_on_c, 0, 63, 0
3, 205530, Note_on_c, 0, 66, 74
3, 205560, Note_on_c, 0, 66, 0
3, 205560, Note_on_c, 0, 63, 80
3, 205590, Note_on_c, 0, 63, 0
3, 205590, Note_on_c, 0, 60, 72
3, 205620, Note_on_c, 0, 60, 0
3, 205620, Note_on_c, 0, 63, 70
3, 205650, Note_on_c, 0, 63, 0
3, 205650, Note_on_c, 0, 57, 68
3, 205679, Note_on_c, 0, 57, 0
3, 205680, Note_on_c, 0, 56, 66
3, 205720, Note_on_c, 0, 56, 0
3, 205720, Note_on_c, 0, 54, 64
3, 205760, Note_on_c, 0, 54, 0
3, 205760, Note_on_c, 0, 57, 62
3, 205799, Note_on_c, 0, 57, 0
3, 205800, Note_on_c, 0, 52, 60
3, 205840, Note_on_c, 0, 52, 0
3, 205840, Note_on_c, 0, 51, 58
3, 205880, Note_on_c, 0, 51, 0
3, 205880, Note_on_c, 0, 54, 56
3, 205920, Note_on_c, 0, 54, 0
3, 205920, Note_on_c, 0, 49, 60
3, 205980, Note_on_c, 0, 49, 0
3, 205980, Note_on_c, 0, 48, 54
3, 206040, Note_on_c, 0, 48, 0
3, 206040, Note_on_c, 0, 51, 52
3, 206066, Note_on_c, 0, 51, 0
3, 206120, Note_on_c, 0, 45, 50
3, 206146, Note_on_c, 0, 45, 0
3, 206200, Note_on_c, 0, 44, 48
3, 206226, Note_on_c, 0, 44, 0
3, 206280, Note_on_c, 0, 43, 45
3, 206759, Note_on_c, 0, 43, 0
3, 206760, Note_on_c, 0, 44, 45
3, 207239, Note_on_c, 0, 44, 0
3, 207240, Note_on_c, 0, 49, 45
3, 207330, Note_on_c, 0, 49, 0
3, 207600, Note_on_c, 0, 64, 50
3, 207690, Note_on_c, 0, 64, 0
3, 207690, Note_on_c, 0, 61, 50
3, 207719, Note_on_c, 0, 61, 0
3, 207720, Note_on_c, 0, 60, 50
3, 207839, Note_on_c, 0, 60, 0
3, 207840, Note_on_c, 0, 54, 50
3, 207840, Note_on_c, 0, 60, 50
3, 207840, Note_on_c, 0, 68, 50
3, 207870, Note_on_c, 0, 68, 0
3, 207870, Note_on_c, 0, 60, 0
3, 207870, Note_on_c, 0, 54, 0
3, 207960, Note_on_c, 0, 54, 50
3, 207960, Note_on_c, 0, 60, 50
3, 207960, Note_on_c, 0, 68, 50
3, 207990, Note_on_c, 0, 68, 0
3, 207990, Note_on_c, 0, 60, 0
3, 207990, Note_on_c, 0, 54, 0
3, 208080, Note_on_c, 0, 54, 50
3, 208080, Note_on_c, 0, 60, 50
3, 208080, Note_on_c, 0, 68, 50
3, 208110, Note_on_c, 0, 68, 0
3, 208110, Note_on_c, 0, 60, 0
3, 208110, Note_on_c, 0, 54, 0
3, 208200, Note_on_c, 0, 52, 50
3, 208215, Note_on_c, 0, 61, 50
3, 208230, Note_on_c, 0, 68, 50
3, 208288, Note_on_c, 0, 61, 0
3, 208288, Note_on_c, 0, 52, 0
3, 208559, Note_on_c, 0, 68, 0
3, 208560, Note_on_c, 0, 76, 50
3, 208650, Note_on_c, 0, 76, 0
3, 208650, Note_on_c, 0, 73, 50
3, 208679, Note_on_c, 0, 73, 0
3, 208680, Note_on_c, 0, 72, 50
3, 208799, Note_on_c, 0, 72, 0
3, 208800, Note_on_c, 0, 66, 50
3, 208800, Note_on_c, 0, 72, 50
3, 208800, Note_on_c, 0, 80, 50
3, 208830, Note_on_c, 0, 80, 0
3, 208830, Note_on_c, 0, 72, 0
3, 208830, Note_on_c, 0, 66, 0
3, 208920, Note_on_c, 0, 66, 50
3, 208920, Note_on_c, 0, 72, 50
3, 208920, Note_on_c, 0, 80, 50
3, 208950, Note_on_c, 0, 80, 0
3, 208950, Note_on_c, 0, 72, 0
3, 208950, Note_on_c, 0, 66, 0
3, 209040, Note_on_c, 0, 66, 50
3, 209040, Note_on_c, 0, 72, 50
3, 209040, Note_on_c, 0, 80, 50
3, 209070, Note_on_c, 0, 80, 0
3, 209070, Note_on_c, 0, 72, 0
3, 209070, Note_on_c, 0, 66, 0
3, 209160, Note_on_c, 0, 64, 50
3, 209175, Note_on_c, 0, 73, 50
3, 209190, Note_on_c, 0, 80, 50
3, 209248, Note_on_c, 0, 73, 0
3, 209248, Note_on_c, 0, 64, 0
3, 209399, Note_on_c, 0, 80, 0
3, 209400, Note_on_c, 0, 66, 50
3, 209415, Note_on_c, 0, 72, 50
3, 209430, Note_on_c, 0, 80, 50
3, 209488, Note_on_c, 0, 72, 0
3, 209488, Note_on_c, 0, 66, 0
3, 209639, Note_on_c, 0, 80, 0
3, 209640, Note_on_c, 0, 64, 50
3, 209655, Note_on_c, 0, 73, 50
3, 209670, Note_on_c, 0, 80, 50
3, 209728, Note_on_c, 0, 73, 0
3, 209728, Note_on_c, 0, 64, 0
3, 209879, Note_on_c, 0, 80, 0
3, 209880, Note_on_c, 0, 66, 50
3, 209895, Note_on_c, 0, 72, 50
3, 209910, Note_on_c, 0, 80, 50
3, 209968, Note_on_c, 0, 72, 0
3, 209968, Note_on_c, 0, 66, 0
3, 210119, Note_on_c, 0, 80, 0
3, 210120, Control_c, 0, 64, 127
3, 210120, Note_on_c, 0, 64, 78
3, 210135, Note_on_c, 0, 73, 78
3, 210148, Note_on_c, 0, 73, 0
3, 210148, Note_on_c, 0, 64, 0
3, 210150, Note_on_c, 0, 64, 79
3, 210150, Note_on_c, 0, 80, 79
3, 210178, Note_on_c, 0, 80, 0
3, 210178, Note_on_c, 0, 64, 0
3, 210180, Note_on_c, 0, 68, 80
3, 210208, Note_on_c, 0, 68, 0
3, 210210, Note_on_c, 0, 73, 81
3, 210239, Note_on_c, 0, 73, 0
3, 210240, Note_on_c, 0, 76, 82
3, 210268, Note_on_c, 0, 76, 0
3, 210270, Note_on_c, 0, 68, 83
3, 210298, Note_on_c, 0, 68, 0
3, 210300, Note_on_c, 0, 73, 84
3, 210328, Note_on_c, 0, 73, 0
3, 210330, Note_on_c, 0, 76, 85
3, 210359, Note_on_c, 0, 76, 0
3, 210360, Note_on_c, 0, 80, 86
3, 210388, Note_on_c, 0, 80, 0
3, 210390, Note_on_c, 0, 73, 87
3, 210418, Note_on_c, 0, 73, 0
3, 210420, Note_on_c, 0, 76, 88
3, 210448, Note_on_c, 0, 76, 0
3, 210450, Note_on_c, 0, 80, 89
3, 210479, Note_on_c, 0, 80, 0
3, 210480, Note_on_c, 0, 85, 90
3, 210508, Note_on_c, 0, 85, 0
3, 210510, Note_on_c, 0, 76, 90
3, 210538, Note_on_c, 0, 76, 0
3, 210540, Note_on_c, 0, 80, 90
3, 210568, Note_on_c, 0, 80, 0
3, 210570, Note_on_c, 0, 85, 90
3, 210599, Note_on_c, 0, 85, 0
3, 210600, Note_on_c, 0, 88, 85
3, 210630, Note_on_c, 0, 88, 0
3, 210630, Note_on_c, 0, 85, 78
3, 210660, Note_on_c, 0, 85, 0
3, 210660, Note_on_c, 0, 80, 78
3, 210690, Note_on_c, 0, 80, 0
3, 210690, Note_on_c, 0, 76, 78
3, 210720, Note_on_c, 0, 76, 0
3, 210720, Note_on_c, 0, 85, 85
3, 210750, Note_on_c, 0, 85, 0
3, 210750, Note_on_c, 0, 80, 78
3, 210780, Note_on_c, 0, 80, 0
3, 210780, Note_on_c, 0, 76, 78
3, 210810, Note_on_c, 0, 76, 0
3, 210810, Note_on_c, 0, 73, 78
3, 210840, Note_on_c, 0, 73, 0
3, 210840, Note_on_c, 0, 80, 85
3, 210870, Note_on_c, 0, 80, 0
3, 210870, Note_on_c, 0, 76, 78
3, 210900, Note_on_c, 0, 76, 0
3, 210900, Note_on_c, 0, 73, 78
3, 210930, Note_on_c, 0, 73, 0
3, 210930, Note_on_c, 0, 68, 78
3, 210960, Note_on_c, 0, 68, 0
3, 210960, Note_on_c, 0, 76, 85
3, 210990, Note_on_c, 0, 76, 0
3, 210990, Note_on_c, 0, 73, 78
3, 211020, Note_on_c, 0, 73, 0
3, 211020, Note_on_c, 0, 68, 78
3, 211050, Note_on_c, 0, 68, 0
3, 211050, Note_on_c, 0, 64, 78
3, 211079, Note_on_c, 0, 64, 0
3, 211080, Note_on_c, 0, 73, 85
3, 211110, Note_on_c, 0, 73, 0
3, 211110, Note_on_c, 0, 68, 78
3, 211140, Note_on_c, 0, 68, 0
3, 211140, Note_on_c, 0, 64, 78
3, 211170, Note_on_c, 0, 64, 0
3, 211170, Note_on_c, 0, 61, 78
3, 211200, Note_on_c, 0, 61, 0
3, 211200, Note_on_c, 0, 68, 85
3, 211230, Note_on_c, 0, 68, 0
3, 211230, Note_on_c, 0, 64, 78
3, 211260, Note_on_c, 0, 64, 0
3, 211260, Note_on_c, 0, 61, 78
3, 211290, Note_on_c, 0, 61, 0
3, 211290, Note_on_c, 0, 56, 78
3, 211320, Note_on_c, 0, 56, 0
3, 211320, Note_on_c, 0, 64, 85
3, 211350, Note_on_c, 0, 64, 0
3, 211350, Note_on_c, 0, 61, 78
3, 211380, Note_on_c, 0, 61, 0
3, 211380, Note_on_c, 0, 56, 78
3, 211410, Note_on_c, 0, 56, 0
3, 211410, Note_on_c, 0, 52, 78
3, 211440, Note_on_c, 0, 52, 0
3, 211440, Note_on_c, 0, 61, 85
3, 211470, Note_on_c, 0, 61, 0
3, 211470, Note_on_c, 0, 56, 78
3, 211500, Note_on_c, 0, 56, 0
3, 211500, Note_on_c, 0, 52, 78
3, 211530, Note_on_c, 0, 52, 0
3, 211530, Note_on_c, 0, 56, 78
3, 211560, Note_on_c, 0, 56, 0
3, 211560, Control_c, 0, 64, 0
3, 211560, Note_on_c, 0, 49, 78
3, 211590, Note_on_c, 0, 49, 0
3, 211800, Control_c, 0, 64, 127
3, 211800, Note_on_c, 0, 73, 82
3, 211800, Note_on_c, 0, 76, 82
3, 211800, Note_on_c, 0, 80, 82
3, 211800, Note_on_c, 0, 85, 82
3, 211810, Note_on_c, 0, 85, 0
3, 211810, Note_on_c, 0, 73, 0
3, 211810, Note_on_c, 0, 76, 0
3, 211810, Note_on_c, 0, 80, 0
3, 212040, Note_on_c, 0, 61, 82
3, 212040, Note_on_c, 0, 64, 82
3, 212040, Note_on_c, 0, 68, 82
3, 212040, Note_on_c, 0, 73, 82
3, 212050, Note_on_c, 0, 73, 0
3, 212050, Note_on_c, 0, 61, 0
3, 212050, Note_on_c, 0, 64, 0
3, 212050, Note_on_c, 0, 68, 0
3, 212520, Control_c, 0, 64, 0
3, 212520, End_track
4, 0, Start_track
4, 0, MIDI_port, 0
4, 0, Title_t, "Piano, LH"
4, 0, Program_c, 1, 0
4, 0, Control_c, 1, 7, 127
4, 0, Control_c, 1, 10, 58
4, 0, Control_c, 1, 93, 0
4, 0, Control_c, 1, 91, 0
4, 480, Note_on_c, 1, 37, 35
4, 480, Note_on_c, 1, 49, 35
4, 960, Note_on_c, 1, 49, 0
4, 960, Note_on_c, 1, 37, 0
4, 960, Note_on_c, 1, 35, 35
4, 960, Note_on_c, 1, 47, 35
4, 1440, Note_on_c, 1, 47, 0
4, 1440, Note_on_c, 1, 35, 0
4, 1440, Note_on_c, 1, 33, 35
4, 1440, Note_on_c, 1, 45, 35
4, 1650, Note_on_c, 1, 45, 0
4, 1650, Note_on_c, 1, 33, 0
4, 1680, Control_c, 1, 64, 127
4, 1680, Note_on_c, 1, 30, 35
4, 1680, Note_on_c, 1, 42, 35
4, 1890, Note_on_c, 1, 42, 0
4, 1890, Note_on_c, 1, 30, 0
4, 1920, Control_c, 1, 64, 0
4, 1920, Note_on_c, 1, 32, 35
4, 1920, Note_on_c, 1, 44, 35
4, 2130, Note_on_c, 1, 44, 0
4, 2130, Note_on_c, 1, 32, 0
4, 2160, Note_on_c, 1, 32, 35
4, 2160, Note_on_c, 1, 44, 35
4, 2370, Note_on_c, 1, 44, 0
4, 2370, Note_on_c, 1, 32, 0
4, 2400, Note_on_c, 1, 37, 35
4, 2400, Note_on_c, 1, 44, 35
4, 2400, Note_on_c, 1, 49, 35
4, 2850, Note_on_c, 1, 49, 0
4, 2850, Note_on_c, 1, 44, 0
4, 2850, Note_on_c, 1, 37, 0
4, 2880, Control_c, 1, 64, 127
4, 2880, Note_on_c, 1, 36, 35
4, 2880, Note_on_c, 1, 44, 35
4, 2880, Note_on_c, 1, 48, 35
4, 3330, Note_on_c, 1, 48, 0
4, 3330, Note_on_c, 1, 44, 0
4, 3330, Note_on_c, 1, 36, 0
4, 3360, Control_c, 1, 64, 0
4, 3360, Note_on_c, 1, 37, 35
4, 3360, Note_on_c, 1, 49, 35
4, 3600, Note_on_c, 1, 49, 0
4, 3600, Note_on_c, 1, 37, 0
4, 3600, Control_c, 1, 64, 127
4, 3600, Note_on_c, 1, 30, 35
4, 3600, Note_on_c, 1, 42, 35
4, 3810, Note_on_c, 1, 42, 0
4, 3810, Note_on_c, 1, 30, 0
4, 3840, Control_c, 1, 64, 0
4, 3840, Note_on_c, 1, 35, 35
4, 3840, Note_on_c, 1, 47, 35
4, 4050, Note_on_c, 1, 47, 0
4, 4050, Note_on_c, 1, 35, 0
4, 4080, Control_c, 1, 64, 127
4, 4080, Note_on_c, 1, 35, 35
4, 4080, Note_on_c, 1, 47, 35
4, 4290, Note_on_c, 1, 47, 0
4, 4290, Note_on_c, 1, 35, 0
4, 4320, Control_c, 1, 64, 0
4, 4320, Note_on_c, 1, 40, 35
4, 4320, Note_on_c, 1, 52, 35
4, 4770, Note_on_c, 1, 52, 0
4, 4770, Note_on_c, 1, 40, 0
4, 4800, Note_on_c, 1, 40, 35
4, 4800, Note_on_c, 1, 52, 35
4, 5250, Note_on_c, 1, 52, 0
4, 5250, Note_on_c, 1, 40, 0
4, 5280, Note_on_c, 1, 38, 35
4, 5280, Note_on_c, 1, 50, 35
4, 5730, Note_on_c, 1, 50, 0
4, 5730, Note_on_c, 1, 38, 0
4, 5760, Note_on_c, 1, 36, 40
4, 5760, Note_on_c, 1, 48, 40
4, 5880, Note_on_c, 1, 48, 0
4, 5880, Note_on_c, 1, 36, 0
4, 5880, Note_on_c, 1, 35, 45
4, 5880, Note_on_c, 1, 47, 45
4, 6000, Note_on_c, 1, 47, 0
4, 6000, Note_on_c, 1, 35, 0
4, 6000, Note_on_c, 1, 34, 50
4, 6000, Note_on_c, 1, 46, 50
4, 6210, Note_on_c, 1, 46, 0
4, 6210, Note_on_c, 1, 34, 0
4, 6240, Control_c, 1, 64, 127
4, 6240, Note_on_c, 1, 35, 35
4, 6240, Note_on_c, 1, 47, 35
4, 6480, Note_on_c, 1, 47, 0
4, 6480, Note_on_c, 1, 35, 0
4, 6480, Control_c, 1, 64, 0
4, 6480, Note_on_c, 1, 40, 35
4, 6600, Note_on_c, 1, 40, 0
4, 6600, Note_on_c, 1, 43, 35
4, 6720, Note_on_c, 1, 43, 0
4, 6720, Note_on_c, 1, 42, 35
4, 6930, Note_on_c, 1, 42, 0
4, 6960, Note_on_c, 1, 30, 35
4, 6960, Note_on_c, 1, 42, 35
4, 7170, Note_on_c, 1, 42, 0
4, 7170, Note_on_c, 1, 30, 0
4, 7200, Note_on_c, 1, 35, 35
4, 7200, Note_on_c, 1, 47, 35
4, 7680, Note_on_c, 1, 47, 0
4, 7680, Note_on_c, 1, 35, 0
4, 7680, Control_c, 1, 64, 127
4, 7680, Note_on_c, 1, 35, 40
4, 7680, Note_on_c, 1, 47, 40
4, 7800, Note_on_c, 1, 47, 0
4, 7800, Note_on_c, 1, 35, 0
4, 7800, Note_on_c, 1, 40, 45
4, 7800, Note_on_c, 1, 52, 45
4, 7920, Note_on_c, 1, 52, 0
4, 7920, Note_on_c, 1, 40, 0
4, 7920, Note_on_c, 1, 43, 50
4, 7920, Note_on_c, 1, 55, 50
4, 8040, Note_on_c, 1, 55, 0
4, 8040, Note_on_c, 1, 43, 0
4, 8040, Control_c, 1, 64, 0
4, 8040, Note_on_c, 1, 40, 42
4, 8040, Note_on_c, 1, 52, 42
4, 8160, Note_on_c, 1, 52, 0
4, 8160, Note_on_c, 1, 40, 0
4, 8160, Note_on_c, 1, 35, 35
4, 8160, Note_on_c, 1, 47, 35
4, 8640, Note_on_c, 1, 47, 0
4, 8640, Note_on_c, 1, 35, 0
4, 8640, Control_c, 1, 64, 127
4, 8640, Note_on_c, 1, 35, 40
4, 8640, Note_on_c, 1, 47, 40
4, 8760, Note_on_c, 1, 47, 0
4, 8760, Note_on_c, 1, 35, 0
4, 8760, Note_on_c, 1, 40, 45
4, 8760, Note_on_c, 1, 52, 45
4, 8880, Note_on_c, 1, 52, 0
4, 8880, Note_on_c, 1, 40, 0
4, 8880, Note_on_c, 1, 43, 50
4, 8880, Note_on_c, 1, 55, 50
4, 9000, Note_on_c, 1, 55, 0
4, 9000, Note_on_c, 1, 43, 0
4, 9000, Control_c, 1, 64, 0
4, 9000, Note_on_c, 1, 40, 42
4, 9000, Note_on_c, 1, 52, 42
4, 9090, Note_on_c, 1, 52, 0
4, 9090, Note_on_c, 1, 40, 0
4, 9120, Note_on_c, 1, 35, 35
4, 9120, Note_on_c, 1, 47, 35
4, 9330, Note_on_c, 1, 47, 0
4, 9330, Note_on_c, 1, 35, 0
4, 9360, Note_on_c, 1, 32, 35
4, 9360, Note_on_c, 1, 44, 35
4, 9600, Note_on_c, 1, 44, 0
4, 9600, Note_on_c, 1, 32, 0
4, 9600, Note_on_c, 1, 29, 35
4, 9600, Note_on_c, 1, 41, 35
4, 9840, Note_on_c, 1, 41, 0
4, 9840, Note_on_c, 1, 29, 0
4, 9840, Note_on_c, 1, 30, 35
4, 9840, Note_on_c, 1, 42, 35
4, 10050, Note_on_c, 1, 42, 0
4, 10050, Note_on_c, 1, 30, 0
4, 10080, Note_on_c, 1, 35, 35
4, 10080, Note_on_c, 1, 47, 35
4, 10320, Note_on_c, 1, 47, 0
4, 10320, Note_on_c, 1, 35, 0
4, 10320, Note_on_c, 1, 36, 35
4, 10320, Note_on_c, 1, 48, 35
4, 10560, Note_on_c, 1, 48, 0
4, 10560, Note_on_c, 1, 36, 0
4, 10560, Note_on_c, 1, 37, 35
4, 10770, Note_on_c, 1, 37, 0
4, 10800, Note_on_c, 1, 37, 35
4, 11010, Note_on_c, 1, 37, 0
4, 11040, Control_c, 1, 64, 127
4, 11040, Note_on_c, 1, 30, 35
4, 11040, Note_on_c, 1, 37, 35
4, 11040, Note_on_c, 1, 42, 35
4, 11490, Note_on_c, 1, 42, 0
4, 11490, Note_on_c, 1, 37, 0
4, 11490, Note_on_c, 1, 30, 0
4, 11520, Control_c, 1, 64, 0
4, 11520, Control_c, 1, 64, 127
4, 11520, Note_on_c, 1, 41, 35
4, 11520, Note_on_c, 1, 49, 35
4, 11520, Note_on_c, 1, 53, 35
4, 11970, Note_on_c, 1, 53, 0
4, 11970, Note_on_c, 1, 49, 0
4, 11970, Note_on_c, 1, 41, 0
4, 12000, Control_c, 1, 64, 0
4, 12000, Note_on_c, 1, 42, 35
4, 12000, Note_on_c, 1, 54, 35
4, 12240, Note_on_c, 1, 54, 0
4, 12240, Note_on_c, 1, 42, 0
4, 12240, Note_on_c, 1, 39, 35
4, 12240, Note_on_c, 1, 51, 35
4, 12360, Note_on_c, 1, 51, 0
4, 12360, Note_on_c, 1, 39, 0
4, 12360, Note_on_c, 1, 37, 35
4, 12360, Note_on_c, 1, 49, 35
4, 12480, Note_on_c, 1, 49, 0
4, 12480, Note_on_c, 1, 37, 0
4, 12480, Control_c, 1, 64, 127
4, 12480, Note_on_c, 1, 36, 35
4, 12480, Note_on_c, 1, 44, 35
4, 12480, Note_on_c, 1, 48, 35
4, 12810, Note_on_c, 1, 48, 0
4, 12810, Note_on_c, 1, 44, 0
4, 12810, Note_on_c, 1, 36, 0
4, 12840, Note_on_c, 1, 36, 35
4, 12840, Note_on_c, 1, 44, 35
4, 12840, Note_on_c, 1, 48, 35
4, 12960, Note_on_c, 1, 48, 0
4, 12960, Note_on_c, 1, 44, 0
4, 12960, Note_on_c, 1, 36, 0
4, 12960, Control_c, 1, 64, 0
4, 12960, Control_c, 1, 64, 127
4, 12960, Note_on_c, 1, 37, 35
4, 12960, Note_on_c, 1, 44, 35
4, 12960, Note_on_c, 1, 49, 35
4, 13170, Note_on_c, 1, 49, 0
4, 13170, Note_on_c, 1, 44, 0
4, 13170, Note_on_c, 1, 37, 0
4, 13200, Control_c, 1, 64, 0
4, 13200, Note_on_c, 1, 30, 35
4, 13200, Note_on_c, 1, 42, 35
4, 13320, Note_on_c, 1, 42, 0
4, 13320, Note_on_c, 1, 30, 0
4, 13320, Note_on_c, 1, 31, 35
4, 13320, Note_on_c, 1, 43, 35
4, 13440, Note_on_c, 1, 43, 0
4, 13440, Note_on_c, 1, 31, 0
4, 13440, Note_on_c, 1, 32, 35
4, 13440, Note_on_c, 1, 44, 35
4, 13890, Note_on_c, 1, 44, 0
4, 13890, Note_on_c, 1, 32, 0
4, 13920, Note_on_c, 1, 32, 50
4, 13920, Note_on_c, 1, 44, 50
4, 14370, Note_on_c, 1, 44, 0
4, 14370, Note_on_c, 1, 32, 0
4, 14400, Note_on_c, 1, 32, 35
4, 14400, Note_on_c, 1, 44, 35
4, 14850, Note_on_c, 1, 44, 0
4, 14850, Note_on_c, 1, 32, 0
4, 14880, Control_c, 1, 64, 127
4, 14880, Control_c, 1, 64, 0
4, 14880, Note_on_c, 1, 32, 50
4, 14880, Note_on_c, 1, 44, 50
4, 15330, Note_on_c, 1, 44, 0
4, 15330, Note_on_c, 1, 32, 0
4, 15360, Control_c, 1, 64, 127
4, 15360, Control_c, 1, 64, 0
4, 15360, Note_on_c, 1, 32, 35
4, 15360, Note_on_c, 1, 44, 35
4, 15810, Note_on_c, 1, 44, 0
4, 15810, Note_on_c, 1, 32, 0
4, 15840, Control_c, 1, 64, 127
4, 15840, Note_on_c, 1, 32, 35
4, 15840, Note_on_c, 1, 44, 35
4, 16290, Note_on_c, 1, 44, 0
4, 16290, Note_on_c, 1, 32, 0
4, 16320, Control_c, 1, 64, 0
4, 16320, Note_on_c, 1, 32, 35
4, 16320, Note_on_c, 1, 44, 35
4, 16770, Note_on_c, 1, 44, 0
4, 16770, Note_on_c, 1, 32, 0
4, 16800, Control_c, 1, 64, 127
4, 16800, Note_on_c, 1, 32, 40
4, 16800, Note_on_c, 1, 44, 40
4, 17280, Note_on_c, 1, 44, 0
4, 17280, Note_on_c, 1, 32, 0
4, 17280, Note_on_c, 1, 32, 30
4, 17280, Note_on_c, 1, 44, 30
4, 17760, Note_on_c, 1, 44, 0
4, 17760, Note_on_c, 1, 32, 0
4, 17760, Note_on_c, 1, 32, 30
4, 17760, Note_on_c, 1, 44, 30
4, 18210, Note_on_c, 1, 44, 0
4, 18210, Note_on_c, 1, 32, 0
4, 18240, Control_c, 1, 64, 0
4, 18240, Note_on_c, 1, 32, 35
4, 18240, Note_on_c, 1, 44, 35
4, 18690, Note_on_c, 1, 44, 0
4, 18690, Note_on_c, 1, 32, 0
4, 18720, Note_on_c, 1, 32, 45
4, 18720, Note_on_c, 1, 44, 45
4, 19170, Note_on_c, 1, 44, 0
4, 19170, Note_on_c, 1, 32, 0
4, 19200, Note_on_c, 1, 32, 60
4, 19200, Note_on_c, 1, 44, 60
4, 19440, Note_on_c, 1, 44, 0
4, 19440, Note_on_c, 1, 32, 0
4, 19440, Note_on_c, 1, 33, 50
4, 19440, Note_on_c, 1, 45, 50
4, 19680, Note_on_c, 1, 45, 0
4, 19680, Note_on_c, 1, 33, 0
4, 19680, Note_on_c, 1, 30, 45
4, 19680, Note_on_c, 1, 42, 45
4, 19920, Note_on_c, 1, 42, 0
4, 19920, Note_on_c, 1, 30, 0
4, 19920, Note_on_c, 1, 32, 40
4, 19920, Note_on_c, 1, 44, 40
4, 20130, Note_on_c, 1, 44, 0
4, 20130, Note_on_c, 1, 32, 0
4, 20160, Note_on_c, 1, 37, 35
4, 20160, Note_on_c, 1, 44, 35
4, 20160, Note_on_c, 1, 49, 35
4, 20610, Note_on_c, 1, 49, 0
4, 20610, Note_on_c, 1, 44, 0
4, 20610, Note_on_c, 1, 37, 0
4, 20640, Control_c, 1, 64, 127
4, 20640, Note_on_c, 1, 36, 35
4, 20640, Note_on_c, 1, 44, 35
4, 20640, Note_on_c, 1, 48, 35
4, 21090, Note_on_c, 1, 48, 0
4, 21090, Note_on_c, 1, 44, 0
4, 21090, Note_on_c, 1, 36, 0
4, 21120, Control_c, 1, 64, 0
4, 21120, Note_on_c, 1, 37, 35
4, 21120, Note_on_c, 1, 49, 35
4, 21360, Note_on_c, 1, 49, 0
4, 21360, Note_on_c, 1, 37, 0
4, 21360, Control_c, 1, 64, 127
4, 21360, Note_on_c, 1, 30, 50
4, 21360, Note_on_c, 1, 42, 50
4, 21570, Note_on_c, 1, 42, 0
4, 21570, Note_on_c, 1, 30, 0
4, 21600, Control_c, 1, 64, 0
4, 21600, Note_on_c, 1, 35, 50
4, 21600, Note_on_c, 1, 47, 50
4, 21810, Note_on_c, 1, 47, 0
4, 21810, Note_on_c, 1, 35, 0
4, 21840, Control_c, 1, 64, 127
4, 21840, Note_on_c, 1, 35, 50
4, 21840, Note_on_c, 1, 47, 50
4, 22050, Note_on_c, 1, 47, 0
4, 22050, Note_on_c, 1, 35, 0
4, 22080, Control_c, 1, 64, 0
4, 22080, Note_on_c, 1, 40, 50
4, 22080, Note_on_c, 1, 52, 50
4, 22530, Note_on_c, 1, 52, 0
4, 22530, Note_on_c, 1, 40, 0
4, 22560, Control_c, 1, 64, 127
4, 22560, Note_on_c, 1, 39, 50
4, 22560, Note_on_c, 1, 51, 50
4, 23010, Note_on_c, 1, 51, 0
4, 23010, Note_on_c, 1, 39, 0
4, 23040, Control_c, 1, 64, 0
4, 23040, Note_on_c, 1, 40, 50
4, 23040, Note_on_c, 1, 52, 50
4, 23280, Note_on_c, 1, 52, 0
4, 23280, Note_on_c, 1, 40, 0
4, 23280, Note_on_c, 1, 39, 50
4, 23280, Note_on_c, 1, 51, 50
4, 23400, Note_on_c, 1, 51, 0
4, 23400, Note_on_c, 1, 39, 0
4, 23400, Note_on_c, 1, 37, 50
4, 23400, Note_on_c, 1, 49, 50
4, 23490, Note_on_c, 1, 49, 0
4, 23490, Note_on_c, 1, 37, 0
4, 23520, Note_on_c, 1, 36, 35
4, 23520, Note_on_c, 1, 44, 35
4, 23520, Note_on_c, 1, 48, 35
4, 23760, Note_on_c, 1, 48, 0
4, 23760, Note_on_c, 1, 44, 0
4, 23760, Note_on_c, 1, 36, 0
4, 23760, Note_on_c, 1, 37, 35
4, 23760, Note_on_c, 1, 44, 35
4, 23760, Note_on_c, 1, 49, 35
4, 23970, Note_on_c, 1, 49, 0
4, 23970, Note_on_c, 1, 44, 0
4, 23970, Note_on_c, 1, 37, 0
4, 24000, Note_on_c, 1, 30, 40
4, 24000, Note_on_c, 1, 42, 40
4, 24240, Note_on_c, 1, 42, 0
4, 24240, Note_on_c, 1, 30, 0
4, 24240, Note_on_c, 1, 32, 45
4, 24240, Note_on_c, 1, 44, 45
4, 24450, Note_on_c, 1, 44, 0
4, 24450, Note_on_c, 1, 32, 0
4, 24480, Note_on_c, 1, 37, 30
4, 24480, Note_on_c, 1, 49, 30
4, 24960, Note_on_c, 1, 49, 0
4, 24960, Note_on_c, 1, 37, 0
4, 24960, Control_c, 1, 64, 127
4, 24960, Note_on_c, 1, 37, 30
4, 24960, Note_on_c, 1, 49, 30
4, 25080, Note_on_c, 1, 49, 0
4, 25080, Note_on_c, 1, 37, 0
4, 25080, Note_on_c, 1, 42, 35
4, 25080, Note_on_c, 1, 54, 35
4, 25200, Note_on_c, 1, 54, 0
4, 25200, Note_on_c, 1, 42, 0
4, 25200, Note_on_c, 1, 45, 35
4, 25200, Note_on_c, 1, 57, 35
4, 25320, Note_on_c, 1, 57, 0
4, 25320, Note_on_c, 1, 45, 0
4, 25320, Note_on_c, 1, 42, 35
4, 25320, Note_on_c, 1, 54, 35
4, 25410, Note_on_c, 1, 54, 0
4, 25410, Note_on_c, 1, 42, 0
4, 25440, Control_c, 1, 64, 0
4, 25440, Note_on_c, 1, 37, 35
4, 25440, Note_on_c, 1, 49, 35
4, 25920, Note_on_c, 1, 49, 0
4, 25920, Note_on_c, 1, 37, 0
4, 25920, Control_c, 1, 64, 127
4, 25920, Note_on_c, 1, 37, 35
4, 25920, Note_on_c, 1, 49, 35
4, 26040, Note_on_c, 1, 49, 0
4, 26040, Note_on_c, 1, 37, 0
4, 26040, Note_on_c, 1, 42, 35
4, 26040, Note_on_c, 1, 54, 35
4, 26160, Note_on_c, 1, 54, 0
4, 26160, Note_on_c, 1, 42, 0
4, 26160, Note_on_c, 1, 45, 35
4, 26160, Note_on_c, 1, 57, 35
4, 26280, Note_on_c, 1, 57, 0
4, 26280, Note_on_c, 1, 45, 0
4, 26280, Note_on_c, 1, 42, 35
4, 26280, Note_on_c, 1, 54, 35
4, 26370, Note_on_c, 1, 54, 0
4, 26370, Note_on_c, 1, 42, 0
4, 26400, Control_c, 1, 64, 0
4, 26400, Note_on_c, 1, 37, 35
4, 26400, Note_on_c, 1, 49, 35
4, 26610, Note_on_c, 1, 49, 0
4, 26610, Note_on_c, 1, 37, 0
4, 26640, Note_on_c, 1, 30, 35
4, 26640, Note_on_c, 1, 42, 35
4, 26880, Note_on_c, 1, 42, 0
4, 26880, Note_on_c, 1, 30, 0
4, 26880, Control_c, 1, 64, 127
4, 26880, Note_on_c, 1, 39, 35
4, 26880, Note_on_c, 1, 51, 35
4, 27210, Note_on_c, 1, 51, 0
4, 27210, Note_on_c, 1, 39, 0
4, 27240, Control_c, 1, 64, 0
4, 27240, Note_on_c, 1, 40, 35
4, 27240, Note_on_c, 1, 52, 35
4, 27360, Note_on_c, 1, 52, 0
4, 27360, Note_on_c, 1, 40, 0
4, 27360, Note_on_c, 1, 37, 35
4, 27360, Note_on_c, 1, 49, 35
4, 27480, Note_on_c, 1, 49, 0
4, 27480, Note_on_c, 1, 37, 0
4, 27480, Note_on_c, 1, 39, 35
4, 27480, Note_on_c, 1, 51, 35
4, 27600, Note_on_c, 1, 51, 0
4, 27600, Note_on_c, 1, 39, 0
4, 27600, Note_on_c, 1, 36, 35
4, 27600, Note_on_c, 1, 48, 35
4, 27720, Note_on_c, 1, 48, 0
4, 27720, Note_on_c, 1, 36, 0
4, 27720, Note_on_c, 1, 37, 35
4, 27720, Note_on_c, 1, 49, 35
4, 27810, Note_on_c, 1, 49, 0
4, 27810, Note_on_c, 1, 37, 0
4, 27840, Note_on_c, 1, 33, 35
4, 27840, Note_on_c, 1, 45, 35
4, 28080, Note_on_c, 1, 45, 0
4, 28080, Note_on_c, 1, 33, 0
4, 28080, Note_on_c, 1, 32, 35
4, 28080, Note_on_c, 1, 44, 35
4, 28200, Note_on_c, 1, 44, 0
4, 28200, Note_on_c, 1, 32, 0
4, 28200, Note_on_c, 1, 30, 35
4, 28200, Note_on_c, 1, 42, 35
4, 28320, Note_on_c, 1, 42, 0
4, 28320, Note_on_c, 1, 30, 0
4, 28320, Note_on_c, 1, 32, 35
4, 28320, Note_on_c, 1, 44, 35
4, 28530, Note_on_c, 1, 44, 0
4, 28530, Note_on_c, 1, 32, 0
4, 28560, Control_c, 1, 64, 127
4, 28560, Note_on_c, 1, 32, 35
4, 28560, Note_on_c, 1, 44, 35
4, 28770, Note_on_c, 1, 44, 0
4, 28770, Note_on_c, 1, 32, 0
4, 28800, Control_c, 1, 64, 0
4, 28800, Note_on_c, 1, 37, 55
4, 28800, Note_on_c, 1, 44, 55
4, 29157, Note_on_c, 1, 44, 0
4, 29160, Note_on_c, 1, 44, 55
4, 29248, Note_on_c, 1, 44, 0
4, 29250, Note_on_c, 1, 44, 55
4, 29277, Note_on_c, 1, 44, 0
4, 29277, Note_on_c, 1, 37, 0
4, 29280, Note_on_c, 1, 36, 55
4, 29280, Note_on_c, 1, 44, 55
4, 29637, Note_on_c, 1, 44, 0
4, 29640, Note_on_c, 1, 44, 55
4, 29728, Note_on_c, 1, 44, 0
4, 29730, Note_on_c, 1, 44, 55
4, 29757, Note_on_c, 1, 44, 0
4, 29757, Note_on_c, 1, 36, 0
4, 29760, Control_c, 1, 64, 127
4, 29760, Note_on_c, 1, 37, 55
4, 29760, Note_on_c, 1, 44, 55
4, 30117, Note_on_c, 1, 44, 0
4, 30120, Note_on_c, 1, 44, 55
4, 30202, Note_on_c, 1, 44, 0
4, 30210, Note_on_c, 1, 44, 55
4, 30232, Note_on_c, 1, 44, 0
4, 30232, Note_on_c, 1, 37, 0
4, 30240, Control_c, 1, 64, 0
4, 30240, Control_c, 1, 64, 127
4, 30240, Note_on_c, 1, 32, 55
4, 30240, Note_on_c, 1, 44, 55
4, 30600, Note_on_c, 1, 44, 0
4, 30600, Control_c, 1, 64, 0
4, 30600, Note_on_c, 1, 44, 55
4, 30682, Note_on_c, 1, 44, 0
4, 30690, Note_on_c, 1, 44, 55
4, 30712, Note_on_c, 1, 44, 0
4, 30712, Note_on_c, 1, 32, 0
4, 30720, Control_c, 1, 64, 127
4, 30720, Note_on_c, 1, 37, 55
4, 30720, Note_on_c, 1, 44, 55
4, 31072, Note_on_c, 1, 44, 0
4, 31080, Note_on_c, 1, 44, 55
4, 31162, Note_on_c, 1, 44, 0
4, 31170, Note_on_c, 1, 44, 55
4, 31192, Note_on_c, 1, 44, 0
4, 31192, Note_on_c, 1, 37, 0
4, 31200, Control_c, 1, 64, 0
4, 31200, Control_c, 1, 64, 127
4, 31200, Note_on_c, 1, 32, 50
4, 31200, Note_on_c, 1, 44, 50
4, 31557, Note_on_c, 1, 44, 0
4, 31560, Control_c, 1, 64, 0
4, 31560, Note_on_c, 1, 44, 40
4, 31642, Note_on_c, 1, 44, 0
4, 31650, Note_on_c, 1, 44, 35
4, 31672, Note_on_c, 1, 44, 0
4, 31672, Note_on_c, 1, 32, 0
4, 31680, Note_on_c, 1, 37, 35
4, 31680, Note_on_c, 1, 44, 35
4, 31920, Note_on_c, 1, 44, 0
4, 31920, Note_on_c, 1, 49, 35
4, 32152, Note_on_c, 1, 37, 0
4, 32160, Note_on_c, 1, 49, 0
4, 32160, Control_c, 1, 64, 127
4, 32160, Note_on_c, 1, 44, 35
4, 32160, Note_on_c, 1, 37, 35
4, 32400, Note_on_c, 1, 44, 0
4, 32632, Note_on_c, 1, 37, 0
4, 32640, Note_on_c, 1, 37, 35
4, 32872, Note_on_c, 1, 37, 0
4, 32880, Note_on_c, 1, 37, 35
4, 32880, Note_on_c, 1, 44, 35
4, 32880, Note_on_c, 1, 49, 35
4, 33090, Note_on_c, 1, 49, 0
4, 33090, Note_on_c, 1, 44, 0
4, 33090, Note_on_c, 1, 37, 0
4, 33120, Control_c, 1, 64, 0
4, 33120, Note_on_c, 1, 37, 25
4, 33120, Note_on_c, 1, 44, 25
4, 33120, Note_on_c, 1, 49, 25
4, 33570, Note_on_c, 1, 49, 0
4, 33570, Note_on_c, 1, 44, 0
4, 33570, Note_on_c, 1, 37, 0
4, 33840, Note_on_c, 1, 65, 45
4, 33959, Note_on_c, 1, 65, 0
4, 33960, Note_on_c, 1, 63, 45
4, 34200, Note_on_c, 1, 63, 0
4, 34200, Note_on_c, 1, 61, 45
4, 34319, Note_on_c, 1, 61, 0
4, 34320, Note_on_c, 1, 60, 45
4, 34350, Note_on_c, 1, 60, 0
4, 34560, Note_on_c, 1, 49, 30
4, 34560, Note_on_c, 1, 58, 30
4, 34590, Note_on_c, 1, 58, 0
4, 34590, Note_on_c, 1, 49, 0
4, 34680, Note_on_c, 1, 51, 30
4, 34680, Note_on_c, 1, 63, 30
4, 34710, Note_on_c, 1, 63, 0
4, 34710, Note_on_c, 1, 51, 0
4, 34920, Note_on_c, 1, 51, 30
4, 34920, Note_on_c, 1, 61, 30
4, 34950, Note_on_c, 1, 61, 0
4, 34950, Note_on_c, 1, 51, 0
4, 35040, Note_on_c, 1, 56, 30
4, 35040, Note_on_c, 1, 60, 30
4, 35070, Note_on_c, 1, 60, 0
4, 35070, Note_on_c, 1, 56, 0
4, 35280, Note_on_c, 1, 70, 45
4, 35399, Note_on_c, 1, 70, 0
4, 35400, Note_on_c, 1, 68, 45
4, 35640, Note_on_c, 1, 68, 0
4, 35640, Note_on_c, 1, 66, 45
4, 35759, Note_on_c, 1, 66, 0
4, 35760, Note_on_c, 1, 65, 45
4, 35790, Note_on_c, 1, 65, 0
4, 36000, Note_on_c, 1, 54, 30
4, 36000, Note_on_c, 1, 63, 30
4, 36030, Note_on_c, 1, 63, 0
4, 36030, Note_on_c, 1, 54, 0
4, 36120, Note_on_c, 1, 56, 30
4, 36120, Note_on_c, 1, 68, 30
4, 36150, Note_on_c, 1, 68, 0
4, 36150, Note_on_c, 1, 56, 0
4, 36360, Note_on_c, 1, 56, 30
4, 36360, Note_on_c, 1, 66, 30
4, 36390, Note_on_c, 1, 66, 0
4, 36390, Note_on_c, 1, 56, 0
4, 36480, Note_on_c, 1, 61, 30
4, 36480, Note_on_c, 1, 65, 30
4, 36510, Note_on_c, 1, 65, 0
4, 36510, Note_on_c, 1, 61, 0
4, 36720, Note_on_c, 1, 53, 75
4, 36720, Note_on_c, 1, 56, 75
4, 36839, Note_on_c, 1, 56, 0
4, 36839, Note_on_c, 1, 53, 0
4, 36840, Note_on_c, 1, 51, 75
4, 36840, Note_on_c, 1, 56, 75
4, 37079, Note_on_c, 1, 56, 0
4, 37079, Note_on_c, 1, 51, 0
4, 37080, Note_on_c, 1, 49, 45
4, 37080, Note_on_c, 1, 55, 45
4, 37199, Note_on_c, 1, 55, 0
4, 37199, Note_on_c, 1, 49, 0
4, 37200, Note_on_c, 1, 48, 45
4, 37200, Note_on_c, 1, 60, 45
4, 37290, Note_on_c, 1, 60, 0
4, 37290, Note_on_c, 1, 48, 0
4, 37440, Note_on_c, 1, 49, 45
4, 37440, Note_on_c, 1, 58, 45
4, 37470, Note_on_c, 1, 58, 0
4, 37470, Note_on_c, 1, 49, 0
4, 37560, Note_on_c, 1, 51, 45
4, 37560, Note_on_c, 1, 63, 45
4, 37590, Note_on_c, 1, 63, 0
4, 37590, Note_on_c, 1, 51, 0
4, 37800, Note_on_c, 1, 51, 45
4, 37800, Note_on_c, 1, 61, 45
4, 37830, Note_on_c, 1, 61, 0
4, 37830, Note_on_c, 1, 51, 0
4, 37920, Note_on_c, 1, 56, 45
4, 37920, Note_on_c, 1, 60, 45
4, 37950, Note_on_c, 1, 60, 0
4, 37950, Note_on_c, 1, 56, 0
4, 38160, Note_on_c, 1, 58, 75
4, 38160, Note_on_c, 1, 61, 75
4, 38279, Note_on_c, 1, 61, 0
4, 38279, Note_on_c, 1, 58, 0
4, 38280, Note_on_c, 1, 56, 75
4, 38280, Note_on_c, 1, 61, 75
4, 38520, Note_on_c, 1, 61, 0
4, 38520, Note_on_c, 1, 56, 0
4, 38520, Note_on_c, 1, 54, 75
4, 38520, Note_on_c, 1, 60, 75
4, 38639, Note_on_c, 1, 60, 0
4, 38639, Note_on_c, 1, 54, 0
4, 38640, Note_on_c, 1, 53, 75
4, 38640, Note_on_c, 1, 65, 75
4, 38730, Note_on_c, 1, 65, 0
4, 38730, Note_on_c, 1, 53, 0
4, 38880, Note_on_c, 1, 54, 45
4, 38880, Note_on_c, 1, 63, 45
4, 38910, Note_on_c, 1, 63, 0
4, 38910, Note_on_c, 1, 54, 0
4, 39000, Note_on_c, 1, 56, 45
4, 39000, Note_on_c, 1, 68, 45
4, 39030, Note_on_c, 1, 68, 0
4, 39030, Note_on_c, 1, 56, 0
4, 39240, Note_on_c, 1, 56, 45
4, 39240, Note_on_c, 1, 66, 45
4, 39270, Note_on_c, 1, 66, 0
4, 39270, Note_on_c, 1, 56, 0
4, 39360, Note_on_c, 1, 61, 45
4, 39360, Note_on_c, 1, 65, 45
4, 39390, Note_on_c, 1, 65, 0
4, 39390, Note_on_c, 1, 61, 0
4, 39600, Note_on_c, 1, 61, 45
4, 39719, Note_on_c, 1, 61, 0
4, 39720, Note_on_c, 1, 58, 50
4, 39960, Note_on_c, 1, 58, 0
4, 39960, Note_on_c, 1, 56, 60
4, 40079, Note_on_c, 1, 56, 0
4, 40080, Note_on_c, 1, 55, 55
4, 40199, Note_on_c, 1, 55, 0
4, 40200, Note_on_c, 1, 56, 50
4, 40290, Note_on_c, 1, 56, 0
4, 40320, Note_on_c, 1, 56, 45
4, 40350, Note_on_c, 1, 56, 0
4, 40440, Note_on_c, 1, 56, 50
4, 40680, Note_on_c, 1, 56, 0
4, 40680, Note_on_c, 1, 54, 60
4, 40799, Note_on_c, 1, 54, 0
4, 40800, Note_on_c, 1, 53, 55
4, 40920, Note_on_c, 1, 53, 0
4, 40920, Note_on_c, 1, 54, 50
4, 41010, Note_on_c, 1, 54, 0
4, 41040, Note_on_c, 1, 54, 45
4, 41159, Note_on_c, 1, 54, 0
4, 41160, Note_on_c, 1, 51, 45
4, 41160, Note_on_c, 1, 56, 45
4, 41400, Note_on_c, 1, 56, 0
4, 41400, Note_on_c, 1, 51, 0
4, 41400, Note_on_c, 1, 49, 45
4, 41400, Note_on_c, 1, 56, 45
4, 41519, Note_on_c, 1, 56, 0
4, 41519, Note_on_c, 1, 49, 0
4, 41520, Note_on_c, 1, 48, 82
4, 41520, Note_on_c, 1, 56, 82
4, 41879, Note_on_c, 1, 56, 0
4, 41879, Note_on_c, 1, 48, 0
4, 41880, Note_on_c, 1, 49, 45
4, 41880, Note_on_c, 1, 56, 45
4, 42120, Note_on_c, 1, 56, 0
4, 42120, Note_on_c, 1, 49, 0
4, 42120, Note_on_c, 1, 42, 45
4, 42120, Note_on_c, 1, 54, 45
4, 42180, Note_on_c, 1, 54, 0
4, 42180, Note_on_c, 1, 51, 45
4, 42239, Note_on_c, 1, 51, 0
4, 42239, Note_on_c, 1, 42, 0
4, 42240, Note_on_c, 1, 44, 45
4, 42240, Note_on_c, 1, 56, 45
4, 42450, Note_on_c, 1, 56, 0
4, 42450, Note_on_c, 1, 44, 0
4, 42480, Note_on_c, 1, 53, 75
4, 42480, Note_on_c, 1, 56, 75
4, 42599, Note_on_c, 1, 56, 0
4, 42599, Note_on_c, 1, 53, 0
4, 42600, Note_on_c, 1, 51, 75
4, 42600, Note_on_c, 1, 56, 75
4, 42840, Note_on_c, 1, 56, 0
4, 42840, Note_on_c, 1, 51, 0
4, 42840, Note_on_c, 1, 49, 75
4, 42840, Note_on_c, 1, 55, 75
4, 42959, Note_on_c, 1, 55, 0
4, 42959, Note_on_c, 1, 49, 0
4, 42960, Note_on_c, 1, 48, 75
4, 42960, Note_on_c, 1, 60, 75
4, 43050, Note_on_c, 1, 60, 0
4, 43050, Note_on_c, 1, 48, 0
4, 43200, Note_on_c, 1, 49, 45
4, 43200, Note_on_c, 1, 58, 45
4, 43230, Note_on_c, 1, 58, 0
4, 43230, Note_on_c, 1, 49, 0
4, 43320, Note_on_c, 1, 51, 45
4, 43320, Note_on_c, 1, 63, 45
4, 43350, Note_on_c, 1, 63, 0
4, 43350, Note_on_c, 1, 51, 0
4, 43560, Note_on_c, 1, 51, 45
4, 43560, Note_on_c, 1, 61, 45
4, 43590, Note_on_c, 1, 61, 0
4, 43590, Note_on_c, 1, 51, 0
4, 43680, Note_on_c, 1, 56, 45
4, 43680, Note_on_c, 1, 60, 45
4, 43710, Note_on_c, 1, 60, 0
4, 43710, Note_on_c, 1, 56, 0
4, 43920, Note_on_c, 1, 58, 45
4, 43920, Note_on_c, 1, 61, 45
4, 44039, Note_on_c, 1, 61, 0
4, 44039, Note_on_c, 1, 58, 0
4, 44040, Note_on_c, 1, 56, 45
4, 44040, Note_on_c, 1, 61, 45
4, 44280, Note_on_c, 1, 61, 0
4, 44280, Note_on_c, 1, 56, 0
4, 44280, Note_on_c, 1, 54, 45
4, 44280, Note_on_c, 1, 60, 45
4, 44399, Note_on_c, 1, 60, 0
4, 44399, Note_on_c, 1, 54, 0
4, 44400, Note_on_c, 1, 53, 45
4, 44400, Note_on_c, 1, 61, 45
4, 44490, Note_on_c, 1, 61, 0
4, 44490, Note_on_c, 1, 53, 0
4, 44640, Note_on_c, 1, 58, 50
4, 44640, Note_on_c, 1, 61, 50
4, 44759, Note_on_c, 1, 61, 0
4, 44759, Note_on_c, 1, 58, 0
4, 44760, Note_on_c, 1, 56, 55
4, 44760, Note_on_c, 1, 61, 55
4, 44970, Note_on_c, 1, 61, 0
4, 44970, Note_on_c, 1, 56, 0
4, 45000, Note_on_c, 1, 54, 55
4, 45000, Note_on_c, 1, 60, 55
4, 45030, Note_on_c, 1, 60, 0
4, 45030, Note_on_c, 1, 54, 0
4, 45120, Note_on_c, 1, 53, 50
4, 45120, Note_on_c, 1, 61, 50
4, 45150, Note_on_c, 1, 61, 0
4, 45150, Note_on_c, 1, 53, 0
4, 45360, Note_on_c, 1, 58, 45
4, 45360, Note_on_c, 1, 61, 45
4, 45479, Note_on_c, 1, 61, 0
4, 45479, Note_on_c, 1, 58, 0
4, 45480, Note_on_c, 1, 56, 50
4, 45480, Note_on_c, 1, 61, 50
4, 45690, Note_on_c, 1, 61, 0
4, 45690, Note_on_c, 1, 56, 0
4, 45720, Note_on_c, 1, 55, 80
4, 45720, Note_on_c, 1, 61, 80
4, 45720, Note_on_c, 1, 64, 80
4, 45839, Note_on_c, 1, 64, 0
4, 45839, Note_on_c, 1, 61, 0
4, 45839, Note_on_c, 1, 55, 0
4, 45840, Note_on_c, 1, 56, 80
4, 45840, Note_on_c, 1, 61, 80
4, 45840, Note_on_c, 1, 65, 80
4, 45930, Note_on_c, 1, 65, 0
4, 45930, Note_on_c, 1, 61, 0
4, 45930, Note_on_c, 1, 56, 0
4, 46200, Note_on_c, 1, 32, 45
4, 46200, Note_on_c, 1, 44, 45
4, 46559, Note_on_c, 1, 44, 0
4, 46559, Note_on_c, 1, 32, 0
4, 46560, Note_on_c, 1, 37, 45
4, 46560, Note_on_c, 1, 44, 45
4, 46650, Note_on_c, 1, 44, 0
4, 46650, Note_on_c, 1, 37, 0
4, 46800, Note_on_c, 1, 61, 45
4, 46919, Note_on_c, 1, 61, 0
4, 46920, Note_on_c, 1, 58, 50
4, 47160, Note_on_c, 1, 58, 0
4, 47160, Note_on_c, 1, 56, 55
4, 47279, Note_on_c, 1, 56, 0
4, 47280, Note_on_c, 1, 55, 55
4, 47399, Note_on_c, 1, 55, 0
4, 47400, Note_on_c, 1, 56, 50
4, 47490, Note_on_c, 1, 56, 0
4, 47520, Note_on_c, 1, 56, 45
4, 47550, Note_on_c, 1, 56, 0
4, 47640, Note_on_c, 1, 56, 45
4, 47880, Note_on_c, 1, 56, 0
4, 47880, Note_on_c, 1, 54, 45
4, 47999, Note_on_c, 1, 54, 0
4, 48000, Note_on_c, 1, 53, 45
4, 48120, Note_on_c, 1, 53, 0
4, 48120, Note_on_c, 1, 54, 45
4, 48210, Note_on_c, 1, 54, 0
4, 48240, Note_on_c, 1, 54, 45
4, 48359, Note_on_c, 1, 54, 0
4, 48360, Note_on_c, 1, 51, 45
4, 48360, Note_on_c, 1, 56, 45
4, 48600, Note_on_c, 1, 56, 0
4, 48600, Note_on_c, 1, 51, 0
4, 48600, Note_on_c, 1, 49, 45
4, 48600, Note_on_c, 1, 56, 45
4, 48719, Note_on_c, 1, 56, 0
4, 48719, Note_on_c, 1, 49, 0
4, 48720, Note_on_c, 1, 48, 78
4, 48720, Note_on_c, 1, 56, 78
4, 49050, Note_on_c, 1, 56, 0
4, 49050, Note_on_c, 1, 48, 0
4, 49080, Note_on_c, 1, 49, 45
4, 49080, Note_on_c, 1, 56, 45
4, 49320, Note_on_c, 1, 56, 0
4, 49320, Note_on_c, 1, 49, 0
4, 49320, Note_on_c, 1, 42, 45
4, 49320, Note_on_c, 1, 54, 45
4, 49380, Note_on_c, 1, 54, 0
4, 49380, Note_on_c, 1, 51, 45
4, 49439, Note_on_c, 1, 51, 0
4, 49439, Note_on_c, 1, 42, 0
4, 49440, Note_on_c, 1, 44, 45
4, 49440, Note_on_c, 1, 56, 45
4, 49650, Note_on_c, 1, 56, 0
4, 49650, Note_on_c, 1, 44, 0
4, 49680, Note_on_c, 1, 53, 75
4, 49680, Note_on_c, 1, 56, 75
4, 49799, Note_on_c, 1, 56, 0
4, 49799, Note_on_c, 1, 53, 0
4, 49800, Note_on_c, 1, 51, 75
4, 49800, Note_on_c, 1, 56, 75
4, 50040, Note_on_c, 1, 56, 0
4, 50040, Note_on_c, 1, 51, 0
4, 50040, Note_on_c, 1, 49, 75
4, 50040, Note_on_c, 1, 55, 75
4, 50159, Note_on_c, 1, 55, 0
4, 50159, Note_on_c, 1, 49, 0
4, 50160, Note_on_c, 1, 48, 75
4, 50160, Note_on_c, 1, 60, 75
4, 50250, Note_on_c, 1, 60, 0
4, 50250, Note_on_c, 1, 48, 0
4, 50400, Note_on_c, 1, 49, 45
4, 50400, Note_on_c, 1, 58, 45
4, 50430, Note_on_c, 1, 58, 0
4, 50430, Note_on_c, 1, 49, 0
4, 50520, Note_on_c, 1, 51, 45
4, 50520, Note_on_c, 1, 63, 45
4, 50550, Note_on_c, 1, 63, 0
4, 50550, Note_on_c, 1, 51, 0
4, 50760, Note_on_c, 1, 51, 45
4, 50760, Note_on_c, 1, 61, 45
4, 50790, Note_on_c, 1, 61, 0
4, 50790, Note_on_c, 1, 51, 0
4, 50880, Note_on_c, 1, 56, 45
4, 50880, Note_on_c, 1, 60, 45
4, 50910, Note_on_c, 1, 60, 0
4, 50910, Note_on_c, 1, 56, 0
4, 51120, Note_on_c, 1, 58, 45
4, 51120, Note_on_c, 1, 61, 45
4, 51239, Note_on_c, 1, 61, 0
4, 51239, Note_on_c, 1, 58, 0
4, 51240, Note_on_c, 1, 56, 45
4, 51240, Note_on_c, 1, 61, 45
4, 51480, Note_on_c, 1, 61, 0
4, 51480, Note_on_c, 1, 56, 0
4, 51480, Note_on_c, 1, 54, 45
4, 51480, Note_on_c, 1, 60, 45
4, 51599, Note_on_c, 1, 60, 0
4, 51599, Note_on_c, 1, 54, 0
4, 51600, Note_on_c, 1, 53, 45
4, 51600, Note_on_c, 1, 61, 45
4, 51690, Note_on_c, 1, 61, 0
4, 51690, Note_on_c, 1, 53, 0
4, 51840, Note_on_c, 1, 58, 45
4, 51840, Note_on_c, 1, 61, 45
4, 51959, Note_on_c, 1, 61, 0
4, 51959, Note_on_c, 1, 58, 0
4, 51960, Note_on_c, 1, 56, 45
4, 51960, Note_on_c, 1, 61, 45
4, 52170, Note_on_c, 1, 61, 0
4, 52170, Note_on_c, 1, 56, 0
4, 52200, Note_on_c, 1, 54, 45
4, 52200, Note_on_c, 1, 60, 45
4, 52230, Note_on_c, 1, 60, 0
4, 52230, Note_on_c, 1, 54, 0
4, 52320, Note_on_c, 1, 53, 45
4, 52320, Note_on_c, 1, 61, 45
4, 52350, Note_on_c, 1, 61, 0
4, 52350, Note_on_c, 1, 53, 0
4, 52560, Note_on_c, 1, 58, 50
4, 52560, Note_on_c, 1, 61, 50
4, 52679, Note_on_c, 1, 61, 0
4, 52679, Note_on_c, 1, 58, 0
4, 52680, Note_on_c, 1, 56, 55
4, 52680, Note_on_c, 1, 61, 55
4, 52890, Note_on_c, 1, 61, 0
4, 52890, Note_on_c, 1, 56, 0
4, 52920, Note_on_c, 1, 55, 80
4, 52920, Note_on_c, 1, 61, 80
4, 52920, Note_on_c, 1, 64, 80
4, 53039, Note_on_c, 1, 64, 0
4, 53039, Note_on_c, 1, 61, 0
4, 53039, Note_on_c, 1, 55, 0
4, 53040, Note_on_c, 1, 56, 80
4, 53040, Note_on_c, 1, 61, 80
4, 53040, Note_on_c, 1, 65, 80
4, 53130, Note_on_c, 1, 65, 0
4, 53130, Note_on_c, 1, 61, 0
4, 53130, Note_on_c, 1, 56, 0
4, 53400, Note_on_c, 1, 32, 45
4, 53400, Note_on_c, 1, 44, 45
4, 53759, Note_on_c, 1, 44, 0
4, 53759, Note_on_c, 1, 32, 0
4, 53760, Note_on_c, 1, 37, 45
4, 53760, Note_on_c, 1, 44, 45
4, 53850, Note_on_c, 1, 44, 0
4, 53850, Note_on_c, 1, 37, 0
4, 54120, Note_on_c, 1, 44, 70
4, 54120, Note_on_c, 1, 37, 70
4, 54480, Note_on_c, 1, 37, 0
4, 54480, Note_on_c, 1, 44, 0
4, 54480, Note_on_c, 1, 39, 70
4, 54480, Note_on_c, 1, 44, 70
4, 54840, Note_on_c, 1, 39, 0
4, 54840, Note_on_c, 1, 42, 70
4, 54840, Note_on_c, 1, 44, 70
4, 55200, Note_on_c, 1, 44, 0
4, 55200, Note_on_c, 1, 42, 0
4, 55200, Note_on_c, 1, 41, 70
4, 55200, Note_on_c, 1, 44, 70
4, 55530, Note_on_c, 1, 44, 0
4, 55530, Note_on_c, 1, 41, 0
4, 55560, Note_on_c, 1, 37, 70
4, 55560, Note_on_c, 1, 44, 70
4, 55920, Note_on_c, 1, 44, 0
4, 55920, Note_on_c, 1, 37, 0
4, 55920, Note_on_c, 1, 39, 70
4, 55920, Note_on_c, 1, 44, 70
4, 56280, Note_on_c, 1, 44, 0
4, 56280, Note_on_c, 1, 39, 0
4, 56280, Note_on_c, 1, 32, 70
4, 56280, Note_on_c, 1, 44, 70
4, 56490, Note_on_c, 1, 44, 0
4, 56490, Note_on_c, 1, 32, 0
4, 56520, Note_on_c, 1, 44, 70
4, 56640, Note_on_c, 1, 37, 70
4, 56850, Note_on_c, 1, 37, 0
4, 56850, Note_on_c, 1, 44, 0
4, 57000, Note_on_c, 1, 37, 70
4, 57000, Note_on_c, 1, 44, 70
4, 57360, Note_on_c, 1, 44, 0
4, 57360, Note_on_c, 1, 37, 0
4, 57360, Note_on_c, 1, 39, 70
4, 57360, Note_on_c, 1, 44, 70
4, 57720, Note_on_c, 1, 44, 0
4, 57720, Note_on_c, 1, 39, 0
4, 57720, Note_on_c, 1, 42, 70
4, 57720, Note_on_c, 1, 44, 70
4, 58080, Note_on_c, 1, 44, 0
4, 58080, Note_on_c, 1, 42, 0
4, 58080, Note_on_c, 1, 41, 70
4, 58080, Note_on_c, 1, 44, 70
4, 58410, Note_on_c, 1, 44, 0
4, 58410, Note_on_c, 1, 41, 0
4, 58440, Note_on_c, 1, 37, 70
4, 58440, Note_on_c, 1, 44, 70
4, 58800, Note_on_c, 1, 44, 0
4, 58800, Note_on_c, 1, 37, 0
4, 58800, Note_on_c, 1, 39, 55
4, 58800, Note_on_c, 1, 44, 55
4, 59160, Note_on_c, 1, 44, 0
4, 59160, Note_on_c, 1, 39, 0
4, 59160, Note_on_c, 1, 32, 55
4, 59160, Note_on_c, 1, 44, 55
4, 59370, Note_on_c, 1, 44, 0
4, 59370, Note_on_c, 1, 32, 0
4, 59400, Note_on_c, 1, 44, 0
4, 59400, Note_on_c, 1, 44, 45
4, 59400, Note_on_c, 1, 44, 45
4, 59520, Note_on_c, 1, 37, 45
4, 59759, Note_on_c, 1, 37, 0
4, 59759, Note_on_c, 1, 44, 0
4, 59880, Note_on_c, 1, 50, 40
4, 59880, Note_on_c, 1, 56, 40
4, 60239, Note_on_c, 1, 56, 0
4, 60239, Note_on_c, 1, 50, 0
4, 60240, Note_on_c, 1, 49, 40
4, 60240, Note_on_c, 1, 55, 40
4, 60599, Note_on_c, 1, 55, 0
4, 60599, Note_on_c, 1, 49, 0
4, 60600, Note_on_c, 1, 48, 40
4, 60600, Note_on_c, 1, 54, 40
4, 60959, Note_on_c, 1, 54, 0
4, 60959, Note_on_c, 1, 48, 0
4, 60960, Note_on_c, 1, 47, 40
4, 60960, Note_on_c, 1, 53, 40
4, 61290, Note_on_c, 1, 53, 0
4, 61290, Note_on_c, 1, 47, 0
4, 61320, Note_on_c, 1, 46, 65
4, 61320, Note_on_c, 1, 49, 65
4, 61650, Note_on_c, 1, 46, 0
4, 61680, Note_on_c, 1, 49, 0
4, 61680, Note_on_c, 1, 49, 40
4, 61680, Note_on_c, 1, 44, 40
4, 62010, Note_on_c, 1, 44, 0
4, 62040, Note_on_c, 1, 49, 0
4, 62040, Note_on_c, 1, 49, 40
4, 62040, Note_on_c, 1, 37, 40
4, 62160, Note_on_c, 1, 37, 0
4, 62160, Note_on_c, 1, 41, 40
4, 62280, Note_on_c, 1, 41, 0
4, 62280, Note_on_c, 1, 44, 40
4, 62399, Note_on_c, 1, 44, 0
4, 62400, Note_on_c, 1, 49, 40
4, 62400, Note_on_c, 1, 37, 40
4, 62400, Note_on_c, 1, 42, 40
4, 62730, Note_on_c, 1, 42, 0
4, 62730, Note_on_c, 1, 49, 0
4, 62760, Note_on_c, 1, 46, 65
4, 62760, Note_on_c, 1, 49, 65
4, 63090, Note_on_c, 1, 46, 0
4, 63120, Note_on_c, 1, 49, 0
4, 63120, Note_on_c, 1, 49, 40
4, 63120, Note_on_c, 1, 44, 40
4, 63450, Note_on_c, 1, 44, 0
4, 63480, Note_on_c, 1, 49, 0
4, 63480, Note_on_c, 1, 49, 40
4, 63480, Note_on_c, 1, 43, 40
4, 63810, Note_on_c, 1, 43, 0
4, 63840, Note_on_c, 1, 49, 0
4, 63840, Note_on_c, 1, 49, 40
4, 63840, Note_on_c, 1, 44, 40
4, 64170, Note_on_c, 1, 44, 0
4, 64170, Note_on_c, 1, 49, 0
4, 64200, Note_on_c, 1, 46, 65
4, 64200, Note_on_c, 1, 49, 65
4, 64559, Note_on_c, 1, 46, 0
4, 64560, Note_on_c, 1, 49, 0
4, 64560, Note_on_c, 1, 49, 40
4, 64560, Note_on_c, 1, 44, 30
4, 64890, Note_on_c, 1, 44, 0
4, 64890, Note_on_c, 1, 49, 0
4, 64920, Note_on_c, 1, 32, 45
4, 64920, Note_on_c, 1, 44, 45
4, 65130, Note_on_c, 1, 44, 0
4, 65130, Note_on_c, 1, 32, 0
4, 65160, Note_on_c, 1, 44, 30
4, 65190, Note_on_c, 1, 44, 0
4, 65280, Note_on_c, 1, 37, 30
4, 65310, Note_on_c, 1, 37, 0
4, 65640, Note_on_c, 1, 50, 40
4, 65640, Note_on_c, 1, 56, 40
4, 65999, Note_on_c, 1, 56, 0
4, 65999, Note_on_c, 1, 50, 0
4, 66000, Note_on_c, 1, 49, 40
4, 66000, Note_on_c, 1, 55, 40
4, 66359, Note_on_c, 1, 55, 0
4, 66359, Note_on_c, 1, 49, 0
4, 66360, Note_on_c, 1, 48, 40
4, 66360, Note_on_c, 1, 54, 40
4, 66719, Note_on_c, 1, 54, 0
4, 66719, Note_on_c, 1, 48, 0
4, 66720, Note_on_c, 1, 47, 40
4, 66720, Note_on_c, 1, 53, 40
4, 67050, Note_on_c, 1, 53, 0
4, 67050, Note_on_c, 1, 47, 0
4, 67080, Note_on_c, 1, 46, 65
4, 67080, Note_on_c, 1, 49, 65
4, 67410, Note_on_c, 1, 46, 0
4, 67440, Note_on_c, 1, 49, 0
4, 67440, Note_on_c, 1, 49, 40
4, 67440, Note_on_c, 1, 44, 40
4, 67770, Note_on_c, 1, 44, 0
4, 67800, Note_on_c, 1, 49, 0
4, 67800, Note_on_c, 1, 49, 40
4, 67800, Note_on_c, 1, 37, 40
4, 67920, Note_on_c, 1, 37, 0
4, 67920, Note_on_c, 1, 41, 40
4, 68040, Note_on_c, 1, 41, 0
4, 68040, Note_on_c, 1, 44, 40
4, 68159, Note_on_c, 1, 44, 0
4, 68160, Note_on_c, 1, 49, 0
4, 68160, Note_on_c, 1, 49, 40
4, 68160, Note_on_c, 1, 42, 40
4, 68490, Note_on_c, 1, 42, 0
4, 68490, Note_on_c, 1, 49, 0
4, 68520, Note_on_c, 1, 46, 65
4, 68520, Note_on_c, 1, 49, 65
4, 68879, Note_on_c, 1, 46, 0
4, 68880, Note_on_c, 1, 49, 0
4, 68880, Note_on_c, 1, 49, 40
4, 68880, Note_on_c, 1, 44, 40
4, 69239, Note_on_c, 1, 44, 0
4, 69240, Note_on_c, 1, 49, 0
4, 69240, Note_on_c, 1, 49, 40
4, 69240, Note_on_c, 1, 43, 40
4, 69599, Note_on_c, 1, 43, 0
4, 69600, Note_on_c, 1, 49, 0
4, 69600, Note_on_c, 1, 49, 40
4, 69600, Note_on_c, 1, 44, 40
4, 69930, Note_on_c, 1, 44, 0
4, 69930, Note_on_c, 1, 49, 0
4, 69960, Note_on_c, 1, 46, 42
4, 69960, Note_on_c, 1, 49, 75
4, 70319, Note_on_c, 1, 46, 0
4, 70320, Note_on_c, 1, 49, 0
4, 70320, Note_on_c, 1, 49, 40
4, 70320, Note_on_c, 1, 44, 30
4, 70559, Note_on_c, 1, 44, 0
4, 70650, Note_on_c, 1, 49, 0
4, 70650, Note_on_c, 1, 44, 0
4, 70680, Note_on_c, 1, 32, 45
4, 70680, Note_on_c, 1, 44, 45
4, 70919, Note_on_c, 1, 44, 0
4, 70919, Note_on_c, 1, 32, 0
4, 70920, Note_on_c, 1, 44, 30
4, 70950, Note_on_c, 1, 44, 0
4, 71040, Note_on_c, 1, 37, 30
4, 71070, Note_on_c, 1, 37, 0
4, 71280, Note_on_c, 1, 65, 30
4, 71399, Note_on_c, 1, 65, 0
4, 71400, Note_on_c, 1, 63, 35
4, 71640, Note_on_c, 1, 63, 0
4, 71640, Note_on_c, 1, 61, 40
4, 71759, Note_on_c, 1, 61, 0
4, 71760, Note_on_c, 1, 60, 45
4, 71850, Note_on_c, 1, 60, 0
4, 72000, Note_on_c, 1, 49, 45
4, 72000, Note_on_c, 1, 58, 45
4, 72030, Note_on_c, 1, 58, 0
4, 72030, Note_on_c, 1, 49, 0
4, 72120, Note_on_c, 1, 51, 45
4, 72120, Note_on_c, 1, 63, 45
4, 72150, Note_on_c, 1, 63, 0
4, 72150, Note_on_c, 1, 51, 0
4, 72360, Note_on_c, 1, 51, 45
4, 72360, Note_on_c, 1, 61, 45
4, 72390, Note_on_c, 1, 61, 0
4, 72390, Note_on_c, 1, 51, 0
4, 72480, Note_on_c, 1, 56, 45
4, 72480, Note_on_c, 1, 60, 45
4, 72510, Note_on_c, 1, 60, 0
4, 72510, Note_on_c, 1, 56, 0
4, 72720, Note_on_c, 1, 70, 45
4, 72839, Note_on_c, 1, 70, 0
4, 72840, Note_on_c, 1, 68, 45
4, 73080, Note_on_c, 1, 68, 0
4, 73080, Note_on_c, 1, 66, 45
4, 73199, Note_on_c, 1, 66, 0
4, 73200, Note_on_c, 1, 65, 45
4, 73290, Note_on_c, 1, 65, 0
4, 73440, Note_on_c, 1, 54, 45
4, 73440, Note_on_c, 1, 63, 45
4, 73470, Note_on_c, 1, 63, 0
4, 73470, Note_on_c, 1, 54, 0
4, 73560, Note_on_c, 1, 56, 45
4, 73560, Note_on_c, 1, 68, 45
4, 73590, Note_on_c, 1, 68, 0
4, 73590, Note_on_c, 1, 56, 0
4, 73800, Note_on_c, 1, 56, 45
4, 73800, Note_on_c, 1, 66, 45
4, 73830, Note_on_c, 1, 66, 0
4, 73830, Note_on_c, 1, 56, 0
4, 73920, Note_on_c, 1, 61, 45
4, 73920, Note_on_c, 1, 65, 45
4, 73950, Note_on_c, 1, 65, 0
4, 73950, Note_on_c, 1, 61, 0
4, 74160, Note_on_c, 1, 53, 75
4, 74160, Note_on_c, 1, 56, 75
4, 74279, Note_on_c, 1, 56, 0
4, 74279, Note_on_c, 1, 53, 0
4, 74280, Note_on_c, 1, 51, 75
4, 74280, Note_on_c, 1, 56, 75
4, 74520, Note_on_c, 1, 56, 0
4, 74520, Note_on_c, 1, 51, 0
4, 74520, Note_on_c, 1, 49, 75
4, 74520, Note_on_c, 1, 55, 75
4, 74639, Note_on_c, 1, 55, 0
4, 74639, Note_on_c, 1, 49, 0
4, 74640, Note_on_c, 1, 48, 75
4, 74640, Note_on_c, 1, 60, 75
4, 74730, Note_on_c, 1, 60, 0
4, 74730, Note_on_c, 1, 48, 0
4, 74880, Note_on_c, 1, 49, 45
4, 74880, Note_on_c, 1, 58, 45
4, 74910, Note_on_c, 1, 58, 0
4, 74910, Note_on_c, 1, 49, 0
4, 75000, Note_on_c, 1, 51, 45
4, 75000, Note_on_c, 1, 63, 45
4, 75030, Note_on_c, 1, 63, 0
4, 75030, Note_on_c, 1, 51, 0
4, 75240, Note_on_c, 1, 51, 45
4, 75240, Note_on_c, 1, 61, 45
4, 75270, Note_on_c, 1, 61, 0
4, 75270, Note_on_c, 1, 51, 0
4, 75360, Note_on_c, 1, 56, 45
4, 75360, Note_on_c, 1, 60, 45
4, 75390, Note_on_c, 1, 60, 0
4, 75390, Note_on_c, 1, 56, 0
4, 75600, Note_on_c, 1, 58, 75
4, 75600, Note_on_c, 1, 61, 75
4, 75719, Note_on_c, 1, 61, 0
4, 75719, Note_on_c, 1, 58, 0
4, 75720, Note_on_c, 1, 56, 75
4, 75720, Note_on_c, 1, 61, 75
4, 75960, Note_on_c, 1, 61, 0
4, 75960, Note_on_c, 1, 56, 0
4, 75960, Note_on_c, 1, 54, 75
4, 75960, Note_on_c, 1, 60, 75
4, 76079, Note_on_c, 1, 60, 0
4, 76079, Note_on_c, 1, 54, 0
4, 76080, Note_on_c, 1, 53, 75
4, 76080, Note_on_c, 1, 65, 75
4, 76170, Note_on_c, 1, 65, 0
4, 76170, Note_on_c, 1, 53, 0
4, 76320, Note_on_c, 1, 54, 45
4, 76320, Note_on_c, 1, 63, 45
4, 76350, Note_on_c, 1, 63, 0
4, 76350, Note_on_c, 1, 54, 0
4, 76440, Note_on_c, 1, 56, 45
4, 76440, Note_on_c, 1, 68, 45
4, 76470, Note_on_c, 1, 68, 0
4, 76470, Note_on_c, 1, 56, 0
4, 76680, Note_on_c, 1, 56, 45
4, 76680, Note_on_c, 1, 66, 45
4, 76710, Note_on_c, 1, 66, 0
4, 76710, Note_on_c, 1, 56, 0
4, 76800, Note_on_c, 1, 61, 45
4, 76800, Note_on_c, 1, 65, 45
4, 76890, Note_on_c, 1, 65, 0
4, 76890, Note_on_c, 1, 61, 0
4, 77040, Note_on_c, 1, 61, 45
4, 77159, Note_on_c, 1, 61, 0
4, 77160, Note_on_c, 1, 58, 50
4, 77400, Note_on_c, 1, 58, 0
4, 77400, Note_on_c, 1, 56, 55
4, 77519, Note_on_c, 1, 56, 0
4, 77520, Note_on_c, 1, 55, 60
4, 77640, Note_on_c, 1, 55, 0
4, 77640, Note_on_c, 1, 56, 55
4, 77730, Note_on_c, 1, 56, 0
4, 77760, Note_on_c, 1, 56, 50
4, 77790, Note_on_c, 1, 56, 0
4, 77880, Note_on_c, 1, 56, 45
4, 78120, Note_on_c, 1, 56, 0
4, 78120, Note_on_c, 1, 54, 45
4, 78239, Note_on_c, 1, 54, 0
4, 78240, Note_on_c, 1, 53, 45
4, 78360, Note_on_c, 1, 53, 0
4, 78360, Note_on_c, 1, 54, 45
4, 78450, Note_on_c, 1, 54, 0
4, 78480, Note_on_c, 1, 54, 45
4, 78599, Note_on_c, 1, 54, 0
4, 78600, Note_on_c, 1, 51, 45
4, 78600, Note_on_c, 1, 56, 45
4, 78840, Note_on_c, 1, 56, 0
4, 78840, Note_on_c, 1, 51, 0
4, 78840, Note_on_c, 1, 49, 45
4, 78840, Note_on_c, 1, 56, 45
4, 78959, Note_on_c, 1, 56, 0
4, 78959, Note_on_c, 1, 49, 0
4, 78960, Note_on_c, 1, 48, 80
4, 78960, Note_on_c, 1, 56, 80
4, 79290, Note_on_c, 1, 56, 0
4, 79290, Note_on_c, 1, 48, 0
4, 79320, Note_on_c, 1, 49, 45
4, 79320, Note_on_c, 1, 56, 45
4, 79560, Note_on_c, 1, 56, 0
4, 79560, Note_on_c, 1, 49, 0
4, 79560, Note_on_c, 1, 42, 45
4, 79560, Note_on_c, 1, 54, 45
4, 79620, Note_on_c, 1, 54, 0
4, 79620, Note_on_c, 1, 51, 45
4, 79679, Note_on_c, 1, 51, 0
4, 79679, Note_on_c, 1, 42, 0
4, 79680, Note_on_c, 1, 44, 45
4, 79680, Note_on_c, 1, 56, 45
4, 79890, Note_on_c, 1, 56, 0
4, 79890, Note_on_c, 1, 44, 0
4, 79920, Note_on_c, 1, 53, 45
4, 79920, Note_on_c, 1, 56, 45
4, 80039, Note_on_c, 1, 56, 0
4, 80039, Note_on_c, 1, 53, 0
4, 80040, Note_on_c, 1, 51, 45
4, 80040, Note_on_c, 1, 56, 45
4, 80280, Note_on_c, 1, 56, 0
4, 80280, Note_on_c, 1, 51, 0
4, 80280, Note_on_c, 1, 49, 45
4, 80280, Note_on_c, 1, 55, 45
4, 80399, Note_on_c, 1, 55, 0
4, 80399, Note_on_c, 1, 49, 0
4, 80400, Note_on_c, 1, 48, 45
4, 80400, Note_on_c, 1, 60, 45
4, 80430, Note_on_c, 1, 60, 0
4, 80430, Note_on_c, 1, 48, 0
4, 80640, Note_on_c, 1, 49, 30
4, 80640, Note_on_c, 1, 58, 30
4, 80670, Note_on_c, 1, 58, 0
4, 80670, Note_on_c, 1, 49, 0
4, 80760, Note_on_c, 1, 51, 30
4, 80760, Note_on_c, 1, 63, 30
4, 80790, Note_on_c, 1, 63, 0
4, 80790, Note_on_c, 1, 51, 0
4, 81000, Note_on_c, 1, 51, 30
4, 81000, Note_on_c, 1, 61, 30
4, 81030, Note_on_c, 1, 61, 0
4, 81030, Note_on_c, 1, 51, 0
4, 81120, Note_on_c, 1, 56, 30
4, 81120, Note_on_c, 1, 60, 30
4, 81150, Note_on_c, 1, 60, 0
4, 81150, Note_on_c, 1, 56, 0
4, 81360, Note_on_c, 1, 58, 30
4, 81360, Note_on_c, 1, 61, 30
4, 81479, Note_on_c, 1, 61, 0
4, 81479, Note_on_c, 1, 58, 0
4, 81480, Note_on_c, 1, 56, 30
4, 81480, Note_on_c, 1, 61, 30
4, 81720, Note_on_c, 1, 61, 0
4, 81720, Note_on_c, 1, 56, 0
4, 81720, Note_on_c, 1, 54, 30
4, 81720, Note_on_c, 1, 60, 30
4, 81839, Note_on_c, 1, 60, 0
4, 81839, Note_on_c, 1, 54, 0
4, 81840, Note_on_c, 1, 53, 30
4, 81840, Note_on_c, 1, 61, 30
4, 81930, Note_on_c, 1, 61, 0
4, 81930, Note_on_c, 1, 53, 0
4, 82080, Note_on_c, 1, 58, 30
4, 82080, Note_on_c, 1, 61, 30
4, 82199, Note_on_c, 1, 61, 0
4, 82199, Note_on_c, 1, 58, 0
4, 82200, Note_on_c, 1, 56, 30
4, 82200, Note_on_c, 1, 61, 30
4, 82410, Note_on_c, 1, 61, 0
4, 82410, Note_on_c, 1, 56, 0
4, 82440, Note_on_c, 1, 54, 30
4, 82440, Note_on_c, 1, 60, 30
4, 82470, Note_on_c, 1, 60, 0
4, 82470, Note_on_c, 1, 54, 0
4, 82560, Note_on_c, 1, 53, 45
4, 82560, Note_on_c, 1, 61, 45
4, 82590, Note_on_c, 1, 61, 0
4, 82590, Note_on_c, 1, 53, 0
4, 82800, Note_on_c, 1, 58, 45
4, 82800, Note_on_c, 1, 61, 45
4, 82919, Note_on_c, 1, 61, 0
4, 82919, Note_on_c, 1, 58, 0
4, 82920, Note_on_c, 1, 56, 45
4, 82920, Note_on_c, 1, 61, 45
4, 83130, Note_on_c, 1, 61, 0
4, 83130, Note_on_c, 1, 56, 0
4, 83160, Note_on_c, 1, 55, 80
4, 83160, Note_on_c, 1, 61, 80
4, 83160, Note_on_c, 1, 64, 80
4, 83279, Note_on_c, 1, 64, 0
4, 83279, Note_on_c, 1, 55, 0
4, 83280, Note_on_c, 1, 56, 60
4, 83280, Note_on_c, 1, 65, 60
4, 83370, Note_on_c, 1, 65, 0
4, 83370, Note_on_c, 1, 61, 0
4, 83370, Note_on_c, 1, 56, 0
4, 83640, Note_on_c, 1, 32, 30
4, 83640, Note_on_c, 1, 44, 30
4, 83999, Note_on_c, 1, 44, 0
4, 83999, Note_on_c, 1, 32, 0
4, 84000, Note_on_c, 1, 37, 30
4, 84000, Note_on_c, 1, 44, 30
4, 84090, Note_on_c, 1, 44, 0
4, 84090, Note_on_c, 1, 37, 0
4, 84360, Note_on_c, 1, 37, 63
4, 84375, Note_on_c, 1, 37, 0
4, 84420, Note_on_c, 1, 44, 45
4, 84435, Note_on_c, 1, 44, 0
4, 84480, Note_on_c, 1, 37, 45
4, 84495, Note_on_c, 1, 37, 0
4, 84540, Note_on_c, 1, 44, 45
4, 84555, Note_on_c, 1, 44, 0
4, 84600, Note_on_c, 1, 37, 45
4, 84615, Note_on_c, 1, 37, 0
4, 84660, Note_on_c, 1, 44, 45
4, 84675, Note_on_c, 1, 44, 0
4, 84720, Note_on_c, 1, 37, 45
4, 84735, Note_on_c, 1, 37, 0
4, 84780, Note_on_c, 1, 44, 45
4, 84795, Note_on_c, 1, 44, 0
4, 84840, Note_on_c, 1, 37, 45
4, 84855, Note_on_c, 1, 37, 0
4, 84900, Note_on_c, 1, 44, 45
4, 84915, Note_on_c, 1, 44, 0
4, 84960, Note_on_c, 1, 37, 45
4, 84975, Note_on_c, 1, 37, 0
4, 85020, Note_on_c, 1, 44, 45
4, 85035, Note_on_c, 1, 44, 0
4, 85080, Note_on_c, 1, 37, 45
4, 85095, Note_on_c, 1, 37, 0
4, 85140, Note_on_c, 1, 44, 45
4, 85155, Note_on_c, 1, 44, 0
4, 85200, Control_c, 1, 64, 127
4, 85200, Note_on_c, 1, 37, 78
4, 85200, Note_on_c, 1, 49, 78
4, 85210, Note_on_c, 1, 49, 0
4, 85210, Note_on_c, 1, 37, 0
4, 85260, Note_on_c, 1, 44, 60
4, 85270, Note_on_c, 1, 44, 0
4, 85320, Control_c, 1, 64, 0
4, 85320, Note_on_c, 1, 36, 45
4, 85335, Note_on_c, 1, 36, 0
4, 85380, Note_on_c, 1, 44, 45
4, 85395, Note_on_c, 1, 44, 0
4, 85440, Note_on_c, 1, 36, 45
4, 85455, Note_on_c, 1, 36, 0
4, 85500, Note_on_c, 1, 44, 45
4, 85515, Note_on_c, 1, 44, 0
4, 85560, Note_on_c, 1, 36, 45
4, 85575, Note_on_c, 1, 36, 0
4, 85620, Note_on_c, 1, 44, 45
4, 85635, Note_on_c, 1, 44, 0
4, 85680, Note_on_c, 1, 36, 45
4, 85695, Note_on_c, 1, 36, 0
4, 85740, Note_on_c, 1, 44, 45
4, 85755, Note_on_c, 1, 44, 0
4, 85800, Note_on_c, 1, 36, 45
4, 85815, Note_on_c, 1, 36, 0
4, 85860, Note_on_c, 1, 44, 45
4, 85875, Note_on_c, 1, 44, 0
4, 85920, Note_on_c, 1, 36, 45
4, 85935, Note_on_c, 1, 36, 0
4, 85980, Note_on_c, 1, 44, 45
4, 85995, Note_on_c, 1, 44, 0
4, 86040, Note_on_c, 1, 36, 45
4, 86055, Note_on_c, 1, 36, 0
4, 86100, Note_on_c, 1, 44, 45
4, 86115, Note_on_c, 1, 44, 0
4, 86160, Control_c, 1, 64, 127
4, 86160, Note_on_c, 1, 36, 78
4, 86160, Note_on_c, 1, 48, 78
4, 86170, Note_on_c, 1, 48, 0
4, 86170, Note_on_c, 1, 36, 0
4, 86220, Note_on_c, 1, 44, 65
4, 86230, Note_on_c, 1, 44, 0
4, 86280, Control_c, 1, 64, 0
4, 86280, Note_on_c, 1, 35, 45
4, 86295, Note_on_c, 1, 35, 0
4, 86340, Note_on_c, 1, 44, 45
4, 86355, Note_on_c, 1, 44, 0
4, 86400, Note_on_c, 1, 35, 45
4, 86415, Note_on_c, 1, 35, 0
4, 86460, Note_on_c, 1, 44, 45
4, 86475, Note_on_c, 1, 44, 0
4, 86520, Note_on_c, 1, 35, 45
4, 86535, Note_on_c, 1, 35, 0
4, 86580, Note_on_c, 1, 44, 45
4, 86595, Note_on_c, 1, 44, 0
4, 86640, Note_on_c, 1, 35, 45
4, 86655, Note_on_c, 1, 35, 0
4, 86700, Note_on_c, 1, 44, 45
4, 86715, Note_on_c, 1, 44, 0
4, 86760, Note_on_c, 1, 35, 45
4, 86775, Note_on_c, 1, 35, 0
4, 86820, Note_on_c, 1, 44, 45
4, 86835, Note_on_c, 1, 44, 0
4, 86880, Note_on_c, 1, 35, 45
4, 86895, Note_on_c, 1, 35, 0
4, 86940, Note_on_c, 1, 44, 45
4, 86955, Note_on_c, 1, 44, 0
4, 87000, Note_on_c, 1, 35, 45
4, 87015, Note_on_c, 1, 35, 0
4, 87060, Note_on_c, 1, 44, 45
4, 87075, Note_on_c, 1, 44, 0
4, 87120, Control_c, 1, 64, 127
4, 87120, Note_on_c, 1, 35, 78
4, 87120, Note_on_c, 1, 47, 78
4, 87130, Note_on_c, 1, 47, 0
4, 87130, Note_on_c, 1, 35, 0
4, 87180, Note_on_c, 1, 44, 60
4, 87190, Note_on_c, 1, 44, 0
4, 87240, Control_c, 1, 64, 0
4, 87240, Note_on_c, 1, 33, 45
4, 87255, Note_on_c, 1, 33, 0
4, 87300, Note_on_c, 1, 45, 45
4, 87315, Note_on_c, 1, 45, 0
4, 87360, Note_on_c, 1, 33, 45
4, 87375, Note_on_c, 1, 33, 0
4, 87420, Note_on_c, 1, 45, 45
4, 87435, Note_on_c, 1, 45, 0
4, 87480, Note_on_c, 1, 33, 45
4, 87495, Note_on_c, 1, 33, 0
4, 87540, Note_on_c, 1, 45, 45
4, 87555, Note_on_c, 1, 45, 0
4, 87600, Control_c, 1, 64, 127
4, 87600, Note_on_c, 1, 33, 85
4, 87610, Note_on_c, 1, 33, 0
4, 87660, Note_on_c, 1, 45, 60
4, 87670, Note_on_c, 1, 45, 0
4, 87720, Control_c, 1, 64, 0
4, 87720, Note_on_c, 1, 33, 45
4, 87735, Note_on_c, 1, 33, 0
4, 87780, Note_on_c, 1, 45, 45
4, 87795, Note_on_c, 1, 45, 0
4, 87840, Note_on_c, 1, 33, 45
4, 87855, Note_on_c, 1, 33, 0
4, 87900, Note_on_c, 1, 45, 45
4, 87915, Note_on_c, 1, 45, 0
4, 87960, Note_on_c, 1, 33, 45
4, 87975, Note_on_c, 1, 33, 0
4, 88020, Note_on_c, 1, 45, 45
4, 88035, Note_on_c, 1, 45, 0
4, 88080, Control_c, 1, 64, 127
4, 88080, Note_on_c, 1, 33, 78
4, 88090, Note_on_c, 1, 33, 0
4, 88140, Note_on_c, 1, 33, 85
4, 88140, Note_on_c, 1, 45, 85
4, 88150, Note_on_c, 1, 45, 0
4, 88150, Note_on_c, 1, 33, 0
4, 88200, Control_c, 1, 64, 0
4, 88200, Control_c, 1, 64, 127
4, 88200, Note_on_c, 1, 32, 80
4, 88200, Note_on_c, 1, 44, 80
4, 88215, Note_on_c, 1, 44, 0
4, 88215, Note_on_c, 1, 32, 0
4, 88260, Control_c, 1, 64, 0
4, 88260, Note_on_c, 1, 56, 75
4, 88260, Note_on_c, 1, 60, 75
4, 88320, Note_on_c, 1, 60, 0
4, 88320, Note_on_c, 1, 60, 65
4, 88380, Note_on_c, 1, 60, 0
4, 88380, Note_on_c, 1, 61, 55
4, 88440, Note_on_c, 1, 61, 0
4, 88440, Note_on_c, 1, 63, 60
4, 88500, Note_on_c, 1, 63, 0
4, 88500, Note_on_c, 1, 64, 64
4, 88560, Note_on_c, 1, 64, 0
4, 88560, Note_on_c, 1, 66, 68
4, 88620, Note_on_c, 1, 66, 0
4, 88620, Note_on_c, 1, 63, 72
4, 88680, Note_on_c, 1, 63, 0
4, 88680, Note_on_c, 1, 66, 76
4, 88725, Note_on_c, 1, 66, 0
4, 88740, Note_on_c, 1, 64, 80
4, 88785, Note_on_c, 1, 64, 0
4, 88800, Note_on_c, 1, 69, 80
4, 88845, Note_on_c, 1, 69, 0
4, 88860, Note_on_c, 1, 68, 80
4, 88920, Note_on_c, 1, 68, 0
4, 88920, Note_on_c, 1, 66, 80
4, 88980, Note_on_c, 1, 66, 0
4, 88980, Note_on_c, 1, 64, 75
4, 89040, Note_on_c, 1, 64, 0
4, 89040, Note_on_c, 1, 63, 70
4, 89100, Note_on_c, 1, 63, 0
4, 89100, Note_on_c, 1, 61, 65
4, 89160, Note_on_c, 1, 61, 0
4, 89160, Note_on_c, 1, 56, 0
4, 89160, Note_on_c, 1, 56, 60
4, 89160, Note_on_c, 1, 60, 60
4, 89190, Note_on_c, 1, 60, 0
4, 89220, Note_on_c, 1, 60, 62
4, 89250, Note_on_c, 1, 60, 0
4, 89280, Note_on_c, 1, 60, 64
4, 89310, Note_on_c, 1, 60, 0
4, 89340, Note_on_c, 1, 61, 68
4, 89400, Note_on_c, 1, 61, 0
4, 89400, Note_on_c, 1, 63, 72
4, 89460, Note_on_c, 1, 63, 0
4, 89460, Note_on_c, 1, 64, 74
4, 89520, Note_on_c, 1, 64, 0
4, 89520, Note_on_c, 1, 66, 76
4, 89580, Note_on_c, 1, 66, 0
4, 89580, Note_on_c, 1, 63, 78
4, 89610, Note_on_c, 1, 63, 0
4, 89640, Note_on_c, 1, 66, 78
4, 89685, Note_on_c, 1, 66, 0
4, 89700, Note_on_c, 1, 64, 78
4, 89730, Note_on_c, 1, 64, 0
4, 89760, Note_on_c, 1, 69, 80
4, 89820, Note_on_c, 1, 69, 0
4, 89820, Note_on_c, 1, 68, 78
4, 89880, Note_on_c, 1, 68, 0
4, 89880, Note_on_c, 1, 66, 76
4, 89940, Note_on_c, 1, 66, 0
4, 89940, Note_on_c, 1, 64, 74
4, 90000, Note_on_c, 1, 64, 0
4, 90000, Note_on_c, 1, 63, 70
4, 90060, Note_on_c, 1, 63, 0
4, 90060, Note_on_c, 1, 61, 66
4, 90090, Note_on_c, 1, 61, 0
4, 90119, Note_on_c, 1, 56, 0
4, 90120, Note_on_c, 1, 56, 66
4, 90120, Note_on_c, 1, 60, 66
4, 90135, Note_on_c, 1, 60, 0
4, 90135, Note_on_c, 1, 56, 0
4, 90180, Note_on_c, 1, 56, 66
4, 90180, Note_on_c, 1, 61, 66
4, 90195, Note_on_c, 1, 61, 0
4, 90195, Note_on_c, 1, 56, 0
4, 90240, Note_on_c, 1, 56, 68
4, 90240, Note_on_c, 1, 60, 68
4, 90255, Note_on_c, 1, 60, 0
4, 90255, Note_on_c, 1, 56, 0
4, 90300, Note_on_c, 1, 56, 70
4, 90300, Note_on_c, 1, 61, 70
4, 90315, Note_on_c, 1, 61, 0
4, 90315, Note_on_c, 1, 56, 0
4, 90360, Note_on_c, 1, 56, 72
4, 90360, Note_on_c, 1, 60, 72
4, 90375, Note_on_c, 1, 60, 0
4, 90375, Note_on_c, 1, 56, 0
4, 90420, Note_on_c, 1, 56, 74
4, 90420, Note_on_c, 1, 61, 74
4, 90435, Note_on_c, 1, 61, 0
4, 90435, Note_on_c, 1, 56, 0
4, 90480, Note_on_c, 1, 56, 76
4, 90480, Note_on_c, 1, 60, 76
4, 90495, Note_on_c, 1, 60, 0
4, 90495, Note_on_c, 1, 56, 0
4, 90540, Note_on_c, 1, 56, 78
4, 90540, Note_on_c, 1, 61, 78
4, 90555, Note_on_c, 1, 61, 0
4, 90555, Note_on_c, 1, 56, 0
4, 90600, Note_on_c, 1, 56, 78
4, 90600, Note_on_c, 1, 60, 78
4, 90615, Note_on_c, 1, 60, 0
4, 90615, Note_on_c, 1, 56, 0
4, 90720, Note_on_c, 1, 32, 85
4, 90720, Note_on_c, 1, 44, 85
4, 91080, Note_on_c, 1, 44, 0
4, 91080, Note_on_c, 1, 32, 0
4, 91080, Note_on_c, 1, 37, 45
4, 91095, Note_on_c, 1, 37, 0
4, 91140, Note_on_c, 1, 44, 45
4, 91155, Note_on_c, 1, 44, 0
4, 91200, Note_on_c, 1, 37, 45
4, 91215, Note_on_c, 1, 37, 0
4, 91260, Note_on_c, 1, 44, 45
4, 91275, Note_on_c, 1, 44, 0
4, 91320, Note_on_c, 1, 37, 45
4, 91335, Note_on_c, 1, 37, 0
4, 91380, Note_on_c, 1, 44, 45
4, 91395, Note_on_c, 1, 44, 0
4, 91440, Note_on_c, 1, 37, 45
4, 91455, Note_on_c, 1, 37, 0
4, 91500, Note_on_c, 1, 44, 45
4, 91515, Note_on_c, 1, 44, 0
4, 91560, Note_on_c, 1, 37, 45
4, 91575, Note_on_c, 1, 37, 0
4, 91620, Note_on_c, 1, 44, 45
4, 91635, Note_on_c, 1, 44, 0
4, 91680, Note_on_c, 1, 37, 45
4, 91695, Note_on_c, 1, 37, 0
4, 91740, Note_on_c, 1, 44, 45
4, 91755, Note_on_c, 1, 44, 0
4, 91800, Note_on_c, 1, 37, 45
4, 91815, Note_on_c, 1, 37, 0
4, 91860, Note_on_c, 1, 44, 45
4, 91875, Note_on_c, 1, 44, 0
4, 91920, Control_c, 1, 64, 127
4, 91920, Note_on_c, 1, 37, 78
4, 91920, Note_on_c, 1, 49, 78
4, 91930, Note_on_c, 1, 49, 0
4, 91930, Note_on_c, 1, 37, 0
4, 91980, Note_on_c, 1, 44, 60
4, 91990, Note_on_c, 1, 44, 0
4, 92040, Control_c, 1, 64, 0
4, 92040, Note_on_c, 1, 34, 63
4, 92055, Note_on_c, 1, 34, 0
4, 92100, Note_on_c, 1, 49, 45
4, 92115, Note_on_c, 1, 49, 0
4, 92160, Note_on_c, 1, 46, 45
4, 92175, Note_on_c, 1, 46, 0
4, 92220, Note_on_c, 1, 49, 45
4, 92235, Note_on_c, 1, 49, 0
4, 92280, Note_on_c, 1, 46, 45
4, 92295, Note_on_c, 1, 46, 0
4, 92340, Note_on_c, 1, 49, 45
4, 92355, Note_on_c, 1, 49, 0
4, 92400, Note_on_c, 1, 46, 45
4, 92415, Note_on_c, 1, 46, 0
4, 92460, Note_on_c, 1, 49, 45
4, 92475, Note_on_c, 1, 49, 0
4, 92520, Note_on_c, 1, 46, 45
4, 92535, Note_on_c, 1, 46, 0
4, 92580, Note_on_c, 1, 49, 45
4, 92595, Note_on_c, 1, 49, 0
4, 92640, Note_on_c, 1, 46, 45
4, 92655, Note_on_c, 1, 46, 0
4, 92700, Note_on_c, 1, 49, 45
4, 92715, Note_on_c, 1, 49, 0
4, 92760, Note_on_c, 1, 46, 45
4, 92775, Note_on_c, 1, 46, 0
4, 92820, Note_on_c, 1, 49, 45
4, 92835, Note_on_c, 1, 49, 0
4, 92880, Control_c, 1, 64, 127
4, 92880, Note_on_c, 1, 34, 78
4, 92880, Note_on_c, 1, 46, 78
4, 92890, Note_on_c, 1, 46, 0
4, 92890, Note_on_c, 1, 34, 0
4, 92940, Note_on_c, 1, 49, 60
4, 92950, Note_on_c, 1, 49, 0
4, 93000, Control_c, 1, 64, 0
4, 93000, Control_c, 1, 64, 127
4, 93000, Note_on_c, 1, 31, 53
4, 93015, Note_on_c, 1, 31, 0
4, 93060, Note_on_c, 1, 51, 35
4, 93075, Note_on_c, 1, 51, 0
4, 93120, Note_on_c, 1, 43, 39
4, 93135, Note_on_c, 1, 43, 0
4, 93180, Note_on_c, 1, 51, 43
4, 93195, Note_on_c, 1, 51, 0
4, 93240, Note_on_c, 1, 43, 47
4, 93255, Note_on_c, 1, 43, 0
4, 93300, Note_on_c, 1, 51, 51
4, 93315, Note_on_c, 1, 51, 0
4, 93360, Note_on_c, 1, 43, 55
4, 93375, Note_on_c, 1, 43, 0
4, 93420, Note_on_c, 1, 51, 59
4, 93435, Note_on_c, 1, 51, 0
4, 93480, Note_on_c, 1, 43, 63
4, 93495, Note_on_c, 1, 43, 0
4, 93540, Note_on_c, 1, 51, 67
4, 93555, Note_on_c, 1, 51, 0
4, 93600, Note_on_c, 1, 43, 71
4, 93615, Note_on_c, 1, 43, 0
4, 93660, Note_on_c, 1, 51, 75
4, 93675, Note_on_c, 1, 51, 0
4, 93720, Note_on_c, 1, 43, 65
4, 93735, Note_on_c, 1, 43, 0
4, 93780, Note_on_c, 1, 51, 60
4, 93795, Note_on_c, 1, 51, 0
4, 93840, Control_c, 1, 64, 0
4, 93840, Note_on_c, 1, 43, 55
4, 93855, Note_on_c, 1, 43, 0
4, 93900, Note_on_c, 1, 51, 45
4, 93915, Note_on_c, 1, 51, 0
4, 93960, Note_on_c, 1, 44, 63
4, 93975, Note_on_c, 1, 44, 0
4, 93990, Note_on_c, 1, 51, 45
4, 94005, Note_on_c, 1, 51, 0
4, 94020, Note_on_c, 1, 47, 45
4, 94035, Note_on_c, 1, 47, 0
4, 94050, Note_on_c, 1, 51, 45
4, 94065, Note_on_c, 1, 51, 0
4, 94080, Note_on_c, 1, 44, 45
4, 94095, Note_on_c, 1, 44, 0
4, 94110, Note_on_c, 1, 51, 45
4, 94125, Note_on_c, 1, 51, 0
4, 94140, Note_on_c, 1, 47, 45
4, 94155, Note_on_c, 1, 47, 0
4, 94170, Note_on_c, 1, 51, 45
4, 94185, Note_on_c, 1, 51, 0
4, 94200, Note_on_c, 1, 44, 47
4, 94215, Note_on_c, 1, 44, 0
4, 94230, Note_on_c, 1, 51, 49
4, 94245, Note_on_c, 1, 51, 0
4, 94260, Note_on_c, 1, 47, 51
4, 94275, Note_on_c, 1, 47, 0
4, 94290, Note_on_c, 1, 51, 53
4, 94305, Note_on_c, 1, 51, 0
4, 94320, Note_on_c, 1, 44, 55
4, 94335, Note_on_c, 1, 44, 0
4, 94350, Note_on_c, 1, 51, 57
4, 94365, Note_on_c, 1, 51, 0
4, 94380, Note_on_c, 1, 47, 59
4, 94395, Note_on_c, 1, 47, 0
4, 94410, Note_on_c, 1, 51, 61
4, 94425, Note_on_c, 1, 51, 0
4, 94440, Note_on_c, 1, 46, 63
4, 94455, Note_on_c, 1, 46, 0
4, 94470, Note_on_c, 1, 51, 59
4, 94485, Note_on_c, 1, 51, 0
4, 94500, Note_on_c, 1, 49, 55
4, 94515, Note_on_c, 1, 49, 0
4, 94530, Note_on_c, 1, 51, 51
4, 94545, Note_on_c, 1, 51, 0
4, 94560, Note_on_c, 1, 46, 47
4, 94575, Note_on_c, 1, 46, 0
4, 94590, Note_on_c, 1, 51, 45
4, 94605, Note_on_c, 1, 51, 0
4, 94620, Note_on_c, 1, 49, 45
4, 94635, Note_on_c, 1, 49, 0
4, 94650, Note_on_c, 1, 51, 45
4, 94665, Note_on_c, 1, 51, 0
4, 94680, Note_on_c, 1, 46, 50
4, 94695, Note_on_c, 1, 46, 0
4, 94710, Note_on_c, 1, 51, 55
4, 94725, Note_on_c, 1, 51, 0
4, 94740, Note_on_c, 1, 49, 60
4, 94755, Note_on_c, 1, 49, 0
4, 94770, Note_on_c, 1, 51, 65
4, 94785, Note_on_c, 1, 51, 0
4, 94800, Note_on_c, 1, 46, 65
4, 94815, Note_on_c, 1, 46, 0
4, 94830, Note_on_c, 1, 51, 60
4, 94845, Note_on_c, 1, 51, 0
4, 94860, Note_on_c, 1, 49, 55
4, 94875, Note_on_c, 1, 49, 0
4, 94890, Note_on_c, 1, 51, 50
4, 94905, Note_on_c, 1, 51, 0
4, 94920, Note_on_c, 1, 47, 63
4, 94935, Note_on_c, 1, 47, 0
4, 94950, Note_on_c, 1, 51, 45
4, 94965, Note_on_c, 1, 51, 0
4, 94980, Note_on_c, 1, 47, 45
4, 94995, Note_on_c, 1, 47, 0
4, 95010, Note_on_c, 1, 51, 45
4, 95025, Note_on_c, 1, 51, 0
4, 95040, Note_on_c, 1, 47, 45
4, 95055, Note_on_c, 1, 47, 0
4, 95070, Note_on_c, 1, 51, 45
4, 95085, Note_on_c, 1, 51, 0
4, 95100, Note_on_c, 1, 47, 45
4, 95115, Note_on_c, 1, 47, 0
4, 95130, Note_on_c, 1, 51, 45
4, 95145, Note_on_c, 1, 51, 0
4, 95160, Note_on_c, 1, 47, 50
4, 95175, Note_on_c, 1, 47, 0
4, 95190, Note_on_c, 1, 51, 55
4, 95205, Note_on_c, 1, 51, 0
4, 95220, Note_on_c, 1, 47, 60
4, 95235, Note_on_c, 1, 47, 0
4, 95250, Note_on_c, 1, 51, 65
4, 95265, Note_on_c, 1, 51, 0
4, 95280, Note_on_c, 1, 47, 60
4, 95295, Note_on_c, 1, 47, 0
4, 95310, Note_on_c, 1, 51, 55
4, 95325, Note_on_c, 1, 51, 0
4, 95340, Note_on_c, 1, 47, 50
4, 95355, Note_on_c, 1, 47, 0
4, 95370, Note_on_c, 1, 51, 45
4, 95385, Note_on_c, 1, 51, 0
4, 95400, Note_on_c, 1, 43, 63
4, 95415, Note_on_c, 1, 43, 0
4, 95430, Note_on_c, 1, 51, 45
4, 95445, Note_on_c, 1, 51, 0
4, 95460, Note_on_c, 1, 43, 45
4, 95475, Note_on_c, 1, 43, 0
4, 95490, Note_on_c, 1, 51, 45
4, 95505, Note_on_c, 1, 51, 0
4, 95520, Note_on_c, 1, 43, 45
4, 95535, Note_on_c, 1, 43, 0
4, 95550, Note_on_c, 1, 51, 45
4, 95565, Note_on_c, 1, 51, 0
4, 95580, Note_on_c, 1, 43, 45
4, 95595, Note_on_c, 1, 43, 0
4, 95610, Note_on_c, 1, 51, 45
4, 95625, Note_on_c, 1, 51, 0
4, 95640, Note_on_c, 1, 43, 45
4, 95655, Note_on_c, 1, 43, 0
4, 95670, Note_on_c, 1, 51, 45
4, 95685, Note_on_c, 1, 51, 0
4, 95700, Note_on_c, 1, 43, 45
4, 95715, Note_on_c, 1, 43, 0
4, 95730, Note_on_c, 1, 51, 45
4, 95745, Note_on_c, 1, 51, 0
4, 95760, Note_on_c, 1, 43, 45
4, 95775, Note_on_c, 1, 43, 0
4, 95790, Note_on_c, 1, 51, 45
4, 95805, Note_on_c, 1, 51, 0
4, 95820, Note_on_c, 1, 43, 45
4, 95835, Note_on_c, 1, 43, 0
4, 95850, Note_on_c, 1, 51, 45
4, 95865, Note_on_c, 1, 51, 0
4, 95880, Control_c, 1, 64, 127
4, 95880, Note_on_c, 1, 44, 63
4, 95895, Note_on_c, 1, 44, 0
4, 95910, Note_on_c, 1, 51, 46
4, 95925, Note_on_c, 1, 51, 0
4, 95940, Note_on_c, 1, 47, 46
4, 95955, Note_on_c, 1, 47, 0
4, 95970, Note_on_c, 1, 51, 47
4, 95985, Note_on_c, 1, 51, 0
4, 96000, Note_on_c, 1, 44, 48
4, 96015, Note_on_c, 1, 44, 0
4, 96030, Note_on_c, 1, 51, 48
4, 96045, Note_on_c, 1, 51, 0
4, 96060, Note_on_c, 1, 47, 49
4, 96075, Note_on_c, 1, 47, 0
4, 96090, Note_on_c, 1, 51, 50
4, 96105, Note_on_c, 1, 51, 0
4, 96120, Note_on_c, 1, 44, 50
4, 96135, Note_on_c, 1, 44, 0
4, 96150, Note_on_c, 1, 51, 51
4, 96165, Note_on_c, 1, 51, 0
4, 96180, Note_on_c, 1, 47, 52
4, 96195, Note_on_c, 1, 47, 0
4, 96210, Note_on_c, 1, 51, 52
4, 96225, Note_on_c, 1, 51, 0
4, 96240, Note_on_c, 1, 44, 53
4, 96255, Note_on_c, 1, 44, 0
4, 96270, Note_on_c, 1, 51, 54
4, 96285, Note_on_c, 1, 51, 0
4, 96300, Note_on_c, 1, 47, 54
4, 96315, Note_on_c, 1, 47, 0
4, 96330, Note_on_c, 1, 51, 55
4, 96345, Note_on_c, 1, 51, 0
4, 96360, Control_c, 1, 64, 0
4, 96360, Note_on_c, 1, 46, 63
4, 96375, Note_on_c, 1, 46, 0
4, 96390, Note_on_c, 1, 51, 57
4, 96405, Note_on_c, 1, 51, 0
4, 96420, Note_on_c, 1, 49, 58
4, 96435, Note_on_c, 1, 49, 0
4, 96450, Note_on_c, 1, 51, 59
4, 96465, Note_on_c, 1, 51, 0
4, 96480, Control_c, 1, 64, 127
4, 96480, Note_on_c, 1, 46, 60
4, 96495, Note_on_c, 1, 46, 0
4, 96510, Note_on_c, 1, 51, 60
4, 96525, Note_on_c, 1, 51, 0
4, 96540, Note_on_c, 1, 49, 61
4, 96555, Note_on_c, 1, 49, 0
4, 96570, Note_on_c, 1, 51, 62
4, 96585, Note_on_c, 1, 51, 0
4, 96600, Note_on_c, 1, 46, 62
4, 96615, Note_on_c, 1, 46, 0
4, 96630, Note_on_c, 1, 51, 63
4, 96645, Note_on_c, 1, 51, 0
4, 96660, Note_on_c, 1, 49, 64
4, 96675, Note_on_c, 1, 49, 0
4, 96690, Note_on_c, 1, 51, 64
4, 96705, Note_on_c, 1, 51, 0
4, 96720, Note_on_c, 1, 46, 65
4, 96735, Note_on_c, 1, 46, 0
4, 96750, Note_on_c, 1, 51, 66
4, 96765, Note_on_c, 1, 51, 0
4, 96780, Note_on_c, 1, 49, 66
4, 96795, Note_on_c, 1, 49, 0
4, 96810, Note_on_c, 1, 51, 67
4, 96825, Note_on_c, 1, 51, 0
4, 96840, Control_c, 1, 64, 0
4, 96840, Note_on_c, 1, 47, 68
4, 96855, Note_on_c, 1, 47, 0
4, 96870, Note_on_c, 1, 51, 69
4, 96885, Note_on_c, 1, 51, 0
4, 96900, Note_on_c, 1, 47, 70
4, 96915, Note_on_c, 1, 47, 0
4, 96930, Note_on_c, 1, 51, 71
4, 96945, Note_on_c, 1, 51, 0
4, 96960, Control_c, 1, 64, 127
4, 96960, Note_on_c, 1, 47, 71
4, 96975, Note_on_c, 1, 47, 0
4, 96990, Note_on_c, 1, 51, 72
4, 97005, Note_on_c, 1, 51, 0
4, 97020, Note_on_c, 1, 47, 72
4, 97035, Note_on_c, 1, 47, 0
4, 97050, Note_on_c, 1, 51, 73
4, 97065, Note_on_c, 1, 51, 0
4, 97080, Note_on_c, 1, 47, 73
4, 97095, Note_on_c, 1, 47, 0
4, 97110, Note_on_c, 1, 51, 74
4, 97125, Note_on_c, 1, 51, 0
4, 97140, Note_on_c, 1, 47, 74
4, 97155, Note_on_c, 1, 47, 0
4, 97170, Note_on_c, 1, 51, 75
4, 97185, Note_on_c, 1, 51, 0
4, 97200, Note_on_c, 1, 47, 75
4, 97215, Note_on_c, 1, 47, 0
4, 97230, Note_on_c, 1, 51, 76
4, 97245, Note_on_c, 1, 51, 0
4, 97260, Note_on_c, 1, 47, 76
4, 97275, Note_on_c, 1, 47, 0
4, 97290, Note_on_c, 1, 51, 77
4, 97305, Note_on_c, 1, 51, 0
4, 97320, Control_c, 1, 64, 0
4, 97320, Note_on_c, 1, 43, 78
4, 97335, Note_on_c, 1, 43, 0
4, 97350, Note_on_c, 1, 51, 79
4, 97365, Note_on_c, 1, 51, 0
4, 97380, Note_on_c, 1, 43, 80
4, 97395, Note_on_c, 1, 43, 0
4, 97410, Note_on_c, 1, 51, 81
4, 97425, Note_on_c, 1, 51, 0
4, 97440, Note_on_c, 1, 43, 82
4, 97455, Note_on_c, 1, 43, 0
4, 97470, Note_on_c, 1, 51, 83
4, 97485, Note_on_c, 1, 51, 0
4, 97500, Control_c, 1, 64, 127
4, 97500, Note_on_c, 1, 43, 84
4, 97515, Note_on_c, 1, 43, 0
4, 97530, Note_on_c, 1, 51, 85
4, 97545, Note_on_c, 1, 51, 0
4, 97560, Note_on_c, 1, 43, 85
4, 97575, Note_on_c, 1, 43, 0
4, 97590, Note_on_c, 1, 51, 85
4, 97605, Note_on_c, 1, 51, 0
4, 97620, Note_on_c, 1, 43, 85
4, 97635, Note_on_c, 1, 43, 0
4, 97650, Note_on_c, 1, 51, 85
4, 97665, Note_on_c, 1, 51, 0
4, 97680, Note_on_c, 1, 43, 85
4, 97695, Note_on_c, 1, 43, 0
4, 97710, Note_on_c, 1, 51, 85
4, 97725, Note_on_c, 1, 51, 0
4, 97740, Note_on_c, 1, 43, 85
4, 97755, Note_on_c, 1, 43, 0
4, 97770, Note_on_c, 1, 51, 85
4, 97785, Note_on_c, 1, 51, 0
4, 97800, Control_c, 1, 64, 0
4, 97800, Control_c, 1, 64, 127
4, 97800, Note_on_c, 1, 42, 63
4, 97815, Note_on_c, 1, 42, 0
4, 97830, Note_on_c, 1, 51, 55
4, 97845, Note_on_c, 1, 51, 0
4, 97860, Note_on_c, 1, 44, 55
4, 97875, Note_on_c, 1, 44, 0
4, 97890, Note_on_c, 1, 51, 55
4, 97905, Note_on_c, 1, 51, 0
4, 97920, Note_on_c, 1, 42, 55
4, 97935, Note_on_c, 1, 42, 0
4, 97950, Note_on_c, 1, 51, 55
4, 97965, Note_on_c, 1, 51, 0
4, 97980, Note_on_c, 1, 44, 55
4, 97995, Note_on_c, 1, 44, 0
4, 98010, Note_on_c, 1, 51, 55
4, 98025, Note_on_c, 1, 51, 0
4, 98040, Control_c, 1, 64, 0
4, 98040, Control_c, 1, 64, 127
4, 98040, Note_on_c, 1, 40, 63
4, 98055, Note_on_c, 1, 40, 0
4, 98070, Note_on_c, 1, 51, 55
4, 98085, Note_on_c, 1, 51, 0
4, 98100, Note_on_c, 1, 44, 55
4, 98115, Note_on_c, 1, 44, 0
4, 98130, Note_on_c, 1, 51, 55
4, 98145, Note_on_c, 1, 51, 0
4, 98160, Note_on_c, 1, 40, 55
4, 98175, Note_on_c, 1, 40, 0
4, 98190, Note_on_c, 1, 51, 55
4, 98205, Note_on_c, 1, 51, 0
4, 98220, Note_on_c, 1, 44, 55
4, 98235, Note_on_c, 1, 44, 0
4, 98250, Note_on_c, 1, 51, 55
4, 98265, Note_on_c, 1, 51, 0
4, 98280, Control_c, 1, 64, 0
4, 98280, Note_on_c, 1, 40, 63
4, 98295, Note_on_c, 1, 40, 0
4, 98310, Note_on_c, 1, 49, 55
4, 98325, Note_on_c, 1, 49, 0
4, 98340, Note_on_c, 1, 42, 55
4, 98355, Note_on_c, 1, 42, 0
4, 98370, Note_on_c, 1, 49, 55
4, 98385, Note_on_c, 1, 49, 0
4, 98400, Note_on_c, 1, 39, 63
4, 98415, Note_on_c, 1, 39, 0
4, 98430, Note_on_c, 1, 47, 55
4, 98445, Note_on_c, 1, 47, 0
4, 98460, Note_on_c, 1, 42, 55
4, 98475, Note_on_c, 1, 42, 0
4, 98490, Note_on_c, 1, 47, 55
4, 98505, Note_on_c, 1, 47, 0
4, 98520, Note_on_c, 1, 39, 55
4, 98535, Note_on_c, 1, 39, 0
4, 98550, Note_on_c, 1, 47, 55
4, 98565, Note_on_c, 1, 47, 0
4, 98580, Note_on_c, 1, 42, 55
4, 98595, Note_on_c, 1, 42, 0
4, 98610, Note_on_c, 1, 47, 55
4, 98625, Note_on_c, 1, 47, 0
4, 98640, Note_on_c, 1, 39, 55
4, 98655, Note_on_c, 1, 39, 0
4, 98670, Note_on_c, 1, 47, 55
4, 98685, Note_on_c, 1, 47, 0
4, 98700, Note_on_c, 1, 42, 55
4, 98715, Note_on_c, 1, 42, 0
4, 98730, Note_on_c, 1, 47, 55
4, 98745, Note_on_c, 1, 47, 0
4, 98760, Control_c, 1, 64, 127
4, 98760, Note_on_c, 1, 38, 63
4, 98775, Note_on_c, 1, 38, 0
4, 98790, Note_on_c, 1, 47, 55
4, 98805, Note_on_c, 1, 47, 0
4, 98820, Note_on_c, 1, 40, 55
4, 98835, Note_on_c, 1, 40, 0
4, 98850, Note_on_c, 1, 47, 55
4, 98865, Note_on_c, 1, 47, 0
4, 98880, Note_on_c, 1, 38, 55
4, 98895, Note_on_c, 1, 38, 0
4, 98910, Note_on_c, 1, 47, 55
4, 98925, Note_on_c, 1, 47, 0
4, 98940, Note_on_c, 1, 40, 55
4, 98955, Note_on_c, 1, 40, 0
4, 98970, Note_on_c, 1, 47, 55
4, 98985, Note_on_c, 1, 47, 0
4, 99000, Control_c, 1, 64, 0
4, 99000, Control_c, 1, 64, 127
4, 99000, Note_on_c, 1, 37, 63
4, 99015, Note_on_c, 1, 37, 0
4, 99030, Note_on_c, 1, 45, 55
4, 99045, Note_on_c, 1, 45, 0
4, 99060, Note_on_c, 1, 40, 55
4, 99075, Note_on_c, 1, 40, 0
4, 99090, Note_on_c, 1, 45, 55
4, 99105, Note_on_c, 1, 45, 0
4, 99120, Note_on_c, 1, 37, 55
4, 99135, Note_on_c, 1, 37, 0
4, 99150, Note_on_c, 1, 45, 55
4, 99165, Note_on_c, 1, 45, 0
4, 99180, Note_on_c, 1, 40, 55
4, 99195, Note_on_c, 1, 40, 0
4, 99210, Note_on_c, 1, 45, 55
4, 99225, Note_on_c, 1, 45, 0
4, 99240, Control_c, 1, 64, 0
4, 99240, Note_on_c, 1, 37, 63
4, 99255, Note_on_c, 1, 37, 0
4, 99270, Note_on_c, 1, 46, 55
4, 99285, Note_on_c, 1, 46, 0
4, 99300, Note_on_c, 1, 39, 55
4, 99315, Note_on_c, 1, 39, 0
4, 99330, Note_on_c, 1, 46, 55
4, 99345, Note_on_c, 1, 46, 0
4, 99360, Note_on_c, 1, 35, 63
4, 99375, Note_on_c, 1, 35, 0
4, 99390, Note_on_c, 1, 44, 55
4, 99405, Note_on_c, 1, 44, 0
4, 99420, Note_on_c, 1, 39, 55
4, 99435, Note_on_c, 1, 39, 0
4, 99450, Note_on_c, 1, 44, 55
4, 99465, Note_on_c, 1, 44, 0
4, 99480, Note_on_c, 1, 35, 55
4, 99495, Note_on_c, 1, 35, 0
4, 99510, Note_on_c, 1, 44, 55
4, 99525, Note_on_c, 1, 44, 0
4, 99540, Note_on_c, 1, 39, 55
4, 99555, Note_on_c, 1, 39, 0
4, 99570, Note_on_c, 1, 44, 55
4, 99585, Note_on_c, 1, 44, 0
4, 99600, Note_on_c, 1, 35, 55
4, 99615, Note_on_c, 1, 35, 0
4, 99630, Note_on_c, 1, 44, 55
4, 99645, Note_on_c, 1, 44, 0
4, 99660, Note_on_c, 1, 39, 55
4, 99675, Note_on_c, 1, 39, 0
4, 99690, Note_on_c, 1, 44, 55
4, 99705, Note_on_c, 1, 44, 0
4, 99720, Control_c, 1, 64, 127
4, 99720, Note_on_c, 1, 37, 85
4, 99720, Note_on_c, 1, 40, 85
4, 99720, Note_on_c, 1, 45, 85
4, 99720, Note_on_c, 1, 49, 85
4, 100050, Note_on_c, 1, 49, 0
4, 100050, Note_on_c, 1, 40, 0
4, 100050, Note_on_c, 1, 37, 0
4, 100050, Note_on_c, 1, 45, 0
4, 100080, Control_c, 1, 64, 0
4, 100200, Note_on_c, 1, 61, 45
4, 100200, Note_on_c, 1, 64, 45
4, 100200, Note_on_c, 1, 69, 45
4, 100230, Note_on_c, 1, 69, 0
4, 100230, Note_on_c, 1, 61, 0
4, 100230, Note_on_c, 1, 64, 0
4, 100440, Note_on_c, 1, 61, 45
4, 100440, Note_on_c, 1, 64, 45
4, 100440, Note_on_c, 1, 69, 45
4, 100470, Note_on_c, 1, 69, 0
4, 100470, Note_on_c, 1, 61, 0
4, 100470, Note_on_c, 1, 64, 0
4, 100680, Note_on_c, 1, 61, 50
4, 100680, Note_on_c, 1, 64, 50
4, 100680, Note_on_c, 1, 69, 50
4, 100710, Note_on_c, 1, 69, 0
4, 100710, Note_on_c, 1, 61, 0
4, 100710, Note_on_c, 1, 64, 0
4, 100800, Note_on_c, 1, 61, 55
4, 100800, Note_on_c, 1, 64, 55
4, 100800, Note_on_c, 1, 69, 55
4, 100830, Note_on_c, 1, 69, 0
4, 100830, Note_on_c, 1, 61, 0
4, 100830, Note_on_c, 1, 64, 0
4, 100920, Note_on_c, 1, 61, 60
4, 100920, Note_on_c, 1, 64, 60
4, 100920, Note_on_c, 1, 69, 60
4, 100950, Note_on_c, 1, 69, 0
4, 100950, Note_on_c, 1, 61, 0
4, 100950, Note_on_c, 1, 64, 0
4, 101040, Note_on_c, 1, 61, 65
4, 101040, Note_on_c, 1, 64, 65
4, 101040, Note_on_c, 1, 69, 65
4, 101070, Note_on_c, 1, 69, 0
4, 101070, Note_on_c, 1, 61, 0
4, 101070, Note_on_c, 1, 64, 0
4, 101160, Note_on_c, 1, 63, 63
4, 101175, Note_on_c, 1, 63, 0
4, 101190, Note_on_c, 1, 71, 45
4, 101205, Note_on_c, 1, 71, 0
4, 101220, Note_on_c, 1, 68, 45
4, 101235, Note_on_c, 1, 68, 0
4, 101250, Note_on_c, 1, 71, 45
4, 101265, Note_on_c, 1, 71, 0
4, 101280, Note_on_c, 1, 63, 45
4, 101295, Note_on_c, 1, 63, 0
4, 101310, Note_on_c, 1, 71, 45
4, 101325, Note_on_c, 1, 71, 0
4, 101340, Note_on_c, 1, 68, 45
4, 101355, Note_on_c, 1, 68, 0
4, 101370, Note_on_c, 1, 71, 45
4, 101385, Note_on_c, 1, 71, 0
4, 101400, Note_on_c, 1, 63, 45
4, 101415, Note_on_c, 1, 63, 0
4, 101430, Note_on_c, 1, 73, 45
4, 101445, Note_on_c, 1, 73, 0
4, 101460, Note_on_c, 1, 67, 45
4, 101475, Note_on_c, 1, 67, 0
4, 101490, Note_on_c, 1, 73, 45
4, 101513, Note_on_c, 1, 73, 0
4, 101520, Note_on_c, 1, 63, 45
4, 101535, Note_on_c, 1, 63, 0
4, 101550, Note_on_c, 1, 73, 45
4, 101565, Note_on_c, 1, 73, 0
4, 101580, Note_on_c, 1, 67, 45
4, 101595, Note_on_c, 1, 67, 0
4, 101610, Note_on_c, 1, 73, 45
4, 101625, Note_on_c, 1, 73, 0
4, 101640, Note_on_c, 1, 64, 45
4, 101640, Note_on_c, 1, 68, 45
4, 101640, Note_on_c, 1, 71, 45
4, 101670, Note_on_c, 1, 71, 0
4, 101670, Note_on_c, 1, 64, 0
4, 101670, Note_on_c, 1, 68, 0
4, 101760, Control_c, 1, 64, 127
4, 101760, Note_on_c, 1, 37, 85
4, 101760, Note_on_c, 1, 40, 85
4, 101760, Note_on_c, 1, 45, 85
4, 101760, Note_on_c, 1, 49, 85
4, 101970, Note_on_c, 1, 45, 0
4, 101970, Note_on_c, 1, 40, 0
4, 101970, Note_on_c, 1, 37, 0
4, 101999, Note_on_c, 1, 49, 0
4, 102000, Control_c, 1, 64, 0
4, 102240, Note_on_c, 1, 49, 45
4, 102240, Note_on_c, 1, 52, 45
4, 102240, Note_on_c, 1, 57, 45
4, 102270, Note_on_c, 1, 57, 0
4, 102270, Note_on_c, 1, 49, 0
4, 102270, Note_on_c, 1, 52, 0
4, 102480, Note_on_c, 1, 49, 50
4, 102480, Note_on_c, 1, 52, 50
4, 102480, Note_on_c, 1, 57, 50
4, 102510, Note_on_c, 1, 57, 0
4, 102510, Note_on_c, 1, 49, 0
4, 102510, Note_on_c, 1, 52, 0
4, 102660, Note_on_c, 1, 49, 50
4, 102660, Note_on_c, 1, 52, 50
4, 102660, Note_on_c, 1, 57, 50
4, 102680, Note_on_c, 1, 57, 0
4, 102680, Note_on_c, 1, 49, 0
4, 102680, Note_on_c, 1, 52, 0
4, 102780, Note_on_c, 1, 49, 55
4, 102780, Note_on_c, 1, 52, 55
4, 102780, Note_on_c, 1, 57, 55
4, 102800, Note_on_c, 1, 57, 0
4, 102800, Note_on_c, 1, 49, 0
4, 102800, Note_on_c, 1, 52, 0
4, 102900, Note_on_c, 1, 49, 60
4, 102900, Note_on_c, 1, 52, 60
4, 102900, Note_on_c, 1, 57, 60
4, 102920, Note_on_c, 1, 57, 0
4, 102920, Note_on_c, 1, 49, 0
4, 102920, Note_on_c, 1, 52, 0
4, 102999, Note_on_c, 1, 49, 0
4, 103020, Note_on_c, 1, 49, 65
4, 103020, Note_on_c, 1, 52, 65
4, 103020, Note_on_c, 1, 57, 65
4, 103040, Note_on_c, 1, 57, 0
4, 103040, Note_on_c, 1, 52, 0
4, 103040, Note_on_c, 1, 49, 0
4, 103080, Note_on_c, 1, 49, 85
4, 103080, Note_on_c, 1, 52, 85
4, 103080, Note_on_c, 1, 57, 85
4, 103110, Note_on_c, 1, 57, 0
4, 103110, Note_on_c, 1, 52, 0
4, 103110, Note_on_c, 1, 49, 0
4, 103359, Note_on_c, 1, 37, 0
4, 103560, Control_c, 1, 64, 127
4, 103560, Note_on_c, 1, 49, 85
4, 103575, Note_on_c, 1, 49, 0
4, 103590, Note_on_c, 1, 57, 82
4, 103605, Note_on_c, 1, 57, 0
4, 103620, Note_on_c, 1, 52, 82
4, 103635, Note_on_c, 1, 52, 0
4, 103650, Note_on_c, 1, 57, 82
4, 103665, Note_on_c, 1, 57, 0
4, 103680, Note_on_c, 1, 49, 82
4, 103695, Note_on_c, 1, 49, 0
4, 103710, Note_on_c, 1, 57, 82
4, 103725, Note_on_c, 1, 57, 0
4, 103740, Note_on_c, 1, 52, 82
4, 103755, Note_on_c, 1, 52, 0
4, 103770, Note_on_c, 1, 57, 82
4, 103785, Note_on_c, 1, 57, 0
4, 103800, Control_c, 1, 64, 0
4, 103800, Control_c, 1, 64, 127
4, 103800, Note_on_c, 1, 50, 85
4, 103815, Note_on_c, 1, 50, 0
4, 103830, Note_on_c, 1, 59, 82
4, 103845, Note_on_c, 1, 59, 0
4, 103860, Note_on_c, 1, 53, 82
4, 103875, Note_on_c, 1, 53, 0
4, 103890, Note_on_c, 1, 59, 82
4, 103905, Note_on_c, 1, 59, 0
4, 103920, Note_on_c, 1, 50, 82
4, 103935, Note_on_c, 1, 50, 0
4, 103950, Note_on_c, 1, 59, 82
4, 103965, Note_on_c, 1, 59, 0
4, 103980, Note_on_c, 1, 53, 82
4, 103995, Note_on_c, 1, 53, 0
4, 104010, Note_on_c, 1, 59, 82
4, 104025, Note_on_c, 1, 59, 0
4, 104040, Control_c, 1, 64, 0
4, 104040, Control_c, 1, 64, 127
4, 104040, Note_on_c, 1, 51, 85
4, 104055, Note_on_c, 1, 51, 0
4, 104070, Note_on_c, 1, 59, 82
4, 104085, Note_on_c, 1, 59, 0
4, 104100, Note_on_c, 1, 56, 82
4, 104115, Note_on_c, 1, 56, 0
4, 104130, Note_on_c, 1, 59, 82
4, 104145, Note_on_c, 1, 59, 0
4, 104160, Note_on_c, 1, 51, 82
4, 104175, Note_on_c, 1, 51, 0
4, 104190, Note_on_c, 1, 59, 82
4, 104205, Note_on_c, 1, 59, 0
4, 104220, Note_on_c, 1, 56, 82
4, 104235, Note_on_c, 1, 56, 0
4, 104250, Note_on_c, 1, 59, 82
4, 104265, Note_on_c, 1, 59, 0
4, 104280, Control_c, 1, 64, 0
4, 104280, Control_c, 1, 64, 127
4, 104280, Note_on_c, 1, 39, 85
4, 104295, Note_on_c, 1, 39, 0
4, 104310, Note_on_c, 1, 51, 82
4, 104325, Note_on_c, 1, 51, 0
4, 104340, Note_on_c, 1, 50, 82
4, 104355, Note_on_c, 1, 50, 0
4, 104370, Note_on_c, 1, 51, 82
4, 104385, Note_on_c, 1, 51, 0
4, 104400, Note_on_c, 1, 50, 82
4, 104415, Note_on_c, 1, 50, 0
4, 104430, Note_on_c, 1, 51, 82
4, 104445, Note_on_c, 1, 51, 0
4, 104460, Note_on_c, 1, 50, 82
4, 104475, Note_on_c, 1, 50, 0
4, 104490, Note_on_c, 1, 51, 82
4, 104505, Note_on_c, 1, 51, 0
4, 104520, Control_c, 1, 64, 0
4, 104520, Note_on_c, 1, 44, 78
4, 104565, Note_on_c, 1, 44, 0
4, 104580, Note_on_c, 1, 56, 45
4, 104595, Note_on_c, 1, 56, 0
4, 104640, Note_on_c, 1, 56, 45
4, 104655, Note_on_c, 1, 56, 0
4, 104700, Note_on_c, 1, 56, 45
4, 104715, Note_on_c, 1, 56, 0
4, 104760, Note_on_c, 1, 56, 45
4, 104775, Note_on_c, 1, 56, 0
4, 104820, Note_on_c, 1, 56, 45
4, 104865, Note_on_c, 1, 56, 0
4, 104880, Note_on_c, 1, 58, 45
4, 104925, Note_on_c, 1, 58, 0
4, 104940, Note_on_c, 1, 59, 45
4, 104985, Note_on_c, 1, 59, 0
4, 105000, Note_on_c, 1, 51, 45
4, 105000, Note_on_c, 1, 61, 45
4, 105045, Note_on_c, 1, 61, 0
4, 105045, Note_on_c, 1, 51, 0
4, 105060, Note_on_c, 1, 61, 63
4, 105060, Note_on_c, 1, 63, 63
4, 105075, Note_on_c, 1, 63, 0
4, 105075, Note_on_c, 1, 61, 0
4, 105120, Note_on_c, 1, 61, 45
4, 105120, Note_on_c, 1, 63, 45
4, 105135, Note_on_c, 1, 63, 0
4, 105135, Note_on_c, 1, 61, 0
4, 105180, Note_on_c, 1, 61, 45
4, 105180, Note_on_c, 1, 63, 45
4, 105195, Note_on_c, 1, 63, 0
4, 105195, Note_on_c, 1, 61, 0
4, 105240, Note_on_c, 1, 61, 45
4, 105240, Note_on_c, 1, 63, 45
4, 105255, Note_on_c, 1, 63, 0
4, 105255, Note_on_c, 1, 61, 0
4, 105300, Note_on_c, 1, 61, 45
4, 105300, Note_on_c, 1, 63, 45
4, 105345, Note_on_c, 1, 63, 0
4, 105345, Note_on_c, 1, 61, 0
4, 105360, Note_on_c, 1, 59, 45
4, 105360, Note_on_c, 1, 63, 45
4, 105405, Note_on_c, 1, 63, 0
4, 105405, Note_on_c, 1, 59, 0
4, 105420, Note_on_c, 1, 58, 45
4, 105420, Note_on_c, 1, 63, 45
4, 105465, Note_on_c, 1, 63, 0
4, 105465, Note_on_c, 1, 58, 0
4, 105480, Note_on_c, 1, 56, 45
4, 105480, Note_on_c, 1, 44, 45
4, 105525, Note_on_c, 1, 44, 0
4, 105525, Note_on_c, 1, 56, 0
4, 105540, Note_on_c, 1, 56, 45
4, 105555, Note_on_c, 1, 56, 0
4, 105600, Note_on_c, 1, 56, 45
4, 105615, Note_on_c, 1, 56, 0
4, 105660, Note_on_c, 1, 56, 45
4, 105675, Note_on_c, 1, 56, 0
4, 105720, Note_on_c, 1, 56, 45
4, 105735, Note_on_c, 1, 56, 0
4, 105780, Note_on_c, 1, 56, 45
4, 105825, Note_on_c, 1, 56, 0
4, 105840, Note_on_c, 1, 58, 45
4, 105885, Note_on_c, 1, 58, 0
4, 105900, Note_on_c, 1, 59, 45
4, 105945, Note_on_c, 1, 59, 0
4, 105960, Note_on_c, 1, 51, 45
4, 105960, Note_on_c, 1, 61, 45
4, 105975, Note_on_c, 1, 61, 0
4, 105975, Note_on_c, 1, 51, 0
4, 106020, Note_on_c, 1, 61, 45
4, 106020, Note_on_c, 1, 63, 45
4, 106035, Note_on_c, 1, 63, 0
4, 106035, Note_on_c, 1, 61, 0
4, 106080, Note_on_c, 1, 61, 45
4, 106080, Note_on_c, 1, 63, 45
4, 106095, Note_on_c, 1, 63, 0
4, 106095, Note_on_c, 1, 61, 0
4, 106140, Note_on_c, 1, 61, 45
4, 106140, Note_on_c, 1, 63, 45
4, 106155, Note_on_c, 1, 63, 0
4, 106155, Note_on_c, 1, 61, 0
4, 106200, Note_on_c, 1, 61, 45
4, 106200, Note_on_c, 1, 63, 45
4, 106215, Note_on_c, 1, 63, 0
4, 106215, Note_on_c, 1, 61, 0
4, 106260, Note_on_c, 1, 61, 50
4, 106260, Note_on_c, 1, 63, 50
4, 106305, Note_on_c, 1, 63, 0
4, 106305, Note_on_c, 1, 61, 0
4, 106320, Note_on_c, 1, 59, 55
4, 106320, Note_on_c, 1, 63, 55
4, 106365, Note_on_c, 1, 63, 0
4, 106365, Note_on_c, 1, 59, 0
4, 106380, Note_on_c, 1, 58, 60
4, 106380, Note_on_c, 1, 63, 60
4, 106425, Note_on_c, 1, 63, 0
4, 106425, Note_on_c, 1, 58, 0
4, 106440, Control_c, 1, 64, 127
4, 106440, Note_on_c, 1, 44, 45
4, 106455, Note_on_c, 1, 44, 0
4, 106500, Note_on_c, 1, 56, 45
4, 106500, Note_on_c, 1, 59, 45
4, 106515, Note_on_c, 1, 59, 0
4, 106515, Note_on_c, 1, 56, 0
4, 106560, Note_on_c, 1, 56, 45
4, 106560, Note_on_c, 1, 59, 45
4, 106620, Note_on_c, 1, 59, 0
4, 106620, Note_on_c, 1, 56, 0
4, 106620, Note_on_c, 1, 59, 35
4, 106620, Note_on_c, 1, 63, 35
4, 106665, Note_on_c, 1, 63, 0
4, 106665, Note_on_c, 1, 59, 0
4, 106680, Control_c, 1, 64, 0
4, 106680, Control_c, 1, 64, 127
4, 106680, Note_on_c, 1, 49, 45
4, 106695, Note_on_c, 1, 49, 0
4, 106740, Note_on_c, 1, 56, 45
4, 106740, Note_on_c, 1, 61, 45
4, 106755, Note_on_c, 1, 61, 0
4, 106755, Note_on_c, 1, 56, 0
4, 106800, Note_on_c, 1, 56, 45
4, 106800, Note_on_c, 1, 61, 45
4, 106860, Note_on_c, 1, 61, 0
4, 106860, Note_on_c, 1, 56, 0
4, 106860, Note_on_c, 1, 61, 35
4, 106860, Note_on_c, 1, 64, 35
4, 106905, Note_on_c, 1, 64, 0
4, 106905, Note_on_c, 1, 61, 0
4, 106920, Control_c, 1, 64, 0
4, 106920, Note_on_c, 1, 51, 63
4, 106935, Note_on_c, 1, 51, 0
4, 106980, Note_on_c, 1, 56, 45
4, 106980, Note_on_c, 1, 59, 45
4, 106995, Note_on_c, 1, 59, 0
4, 106995, Note_on_c, 1, 56, 0
4, 107040, Note_on_c, 1, 56, 45
4, 107040, Note_on_c, 1, 59, 45
4, 107100, Note_on_c, 1, 59, 0
4, 107100, Note_on_c, 1, 56, 0
4, 107100, Note_on_c, 1, 59, 35
4, 107100, Note_on_c, 1, 63, 35
4, 107145, Note_on_c, 1, 63, 0
4, 107145, Note_on_c, 1, 59, 0
4, 107160, Note_on_c, 1, 51, 45
4, 107175, Note_on_c, 1, 51, 0
4, 107220, Note_on_c, 1, 55, 45
4, 107220, Note_on_c, 1, 58, 45
4, 107235, Note_on_c, 1, 58, 0
4, 107235, Note_on_c, 1, 55, 0
4, 107280, Note_on_c, 1, 55, 45
4, 107280, Note_on_c, 1, 58, 45
4, 107340, Note_on_c, 1, 58, 0
4, 107340, Note_on_c, 1, 55, 0
4, 107340, Note_on_c, 1, 58, 35
4, 107340, Note_on_c, 1, 63, 35
4, 107385, Note_on_c, 1, 63, 0
4, 107385, Note_on_c, 1, 58, 0
4, 107400, Note_on_c, 1, 32, 45
4, 107400, Note_on_c, 1, 44, 45
4, 107415, Note_on_c, 1, 44, 0
4, 107415, Note_on_c, 1, 32, 0
4, 107460, Note_on_c, 1, 44, 55
4, 107460, Note_on_c, 1, 51, 55
4, 107475, Note_on_c, 1, 51, 0
4, 107475, Note_on_c, 1, 44, 0
4, 107520, Note_on_c, 1, 44, 60
4, 107520, Note_on_c, 1, 51, 60
4, 107535, Note_on_c, 1, 51, 0
4, 107535, Note_on_c, 1, 44, 0
4, 107580, Note_on_c, 1, 44, 65
4, 107580, Note_on_c, 1, 51, 65
4, 107595, Note_on_c, 1, 51, 0
4, 107595, Note_on_c, 1, 44, 0
4, 107640, Note_on_c, 1, 44, 70
4, 107640, Note_on_c, 1, 51, 70
4, 107655, Note_on_c, 1, 51, 0
4, 107655, Note_on_c, 1, 44, 0
4, 107700, Note_on_c, 1, 44, 75
4, 107700, Note_on_c, 1, 51, 75
4, 107715, Note_on_c, 1, 51, 0
4, 107715, Note_on_c, 1, 44, 0
4, 107760, Note_on_c, 1, 46, 78
4, 107760, Note_on_c, 1, 51, 78
4, 107775, Note_on_c, 1, 51, 0
4, 107775, Note_on_c, 1, 46, 0
4, 107820, Note_on_c, 1, 47, 80
4, 107820, Note_on_c, 1, 51, 80
4, 107835, Note_on_c, 1, 51, 0
4, 107835, Note_on_c, 1, 47, 0
4, 107880, Note_on_c, 1, 39, 80
4, 107880, Note_on_c, 1, 49, 80
4, 107880, Note_on_c, 1, 51, 80
4, 107938, Note_on_c, 1, 51, 0
4, 107938, Note_on_c, 1, 49, 0
4, 107938, Note_on_c, 1, 39, 0
4, 107940, Control_c, 1, 64, 127
4, 107940, Note_on_c, 1, 51, 85
4, 107940, Note_on_c, 1, 61, 85
4, 107999, Note_on_c, 1, 61, 0
4, 107999, Note_on_c, 1, 51, 0
4, 108000, Note_on_c, 1, 51, 78
4, 108000, Note_on_c, 1, 61, 78
4, 108015, Note_on_c, 1, 61, 0
4, 108015, Note_on_c, 1, 51, 0
4, 108060, Note_on_c, 1, 51, 78
4, 108060, Note_on_c, 1, 61, 78
4, 108075, Note_on_c, 1, 61, 0
4, 108075, Note_on_c, 1, 51, 0
4, 108120, Note_on_c, 1, 51, 78
4, 108120, Note_on_c, 1, 61, 78
4, 108135, Note_on_c, 1, 61, 0
4, 108135, Note_on_c, 1, 51, 0
4, 108180, Control_c, 1, 64, 0
4, 108180, Note_on_c, 1, 51, 78
4, 108180, Note_on_c, 1, 61, 78
4, 108195, Note_on_c, 1, 61, 0
4, 108195, Note_on_c, 1, 51, 0
4, 108240, Note_on_c, 1, 51, 78
4, 108240, Note_on_c, 1, 59, 78
4, 108255, Note_on_c, 1, 59, 0
4, 108255, Note_on_c, 1, 51, 0
4, 108300, Note_on_c, 1, 51, 78
4, 108300, Note_on_c, 1, 58, 78
4, 108315, Note_on_c, 1, 58, 0
4, 108315, Note_on_c, 1, 51, 0
4, 108360, Note_on_c, 1, 32, 45
4, 108360, Note_on_c, 1, 44, 45
4, 108375, Note_on_c, 1, 44, 0
4, 108375, Note_on_c, 1, 32, 0
4, 108420, Note_on_c, 1, 44, 50
4, 108420, Note_on_c, 1, 51, 50
4, 108435, Note_on_c, 1, 51, 0
4, 108435, Note_on_c, 1, 44, 0
4, 108480, Note_on_c, 1, 44, 55
4, 108480, Note_on_c, 1, 51, 55
4, 108495, Note_on_c, 1, 51, 0
4, 108495, Note_on_c, 1, 44, 0
4, 108540, Note_on_c, 1, 44, 60
4, 108540, Note_on_c, 1, 51, 60
4, 108555, Note_on_c, 1, 51, 0
4, 108555, Note_on_c, 1, 44, 0
4, 108600, Note_on_c, 1, 44, 65
4, 108600, Note_on_c, 1, 51, 65
4, 108615, Note_on_c, 1, 51, 0
4, 108615, Note_on_c, 1, 44, 0
4, 108660, Note_on_c, 1, 44, 70
4, 108660, Note_on_c, 1, 51, 70
4, 108675, Note_on_c, 1, 51, 0
4, 108675, Note_on_c, 1, 44, 0
4, 108720, Note_on_c, 1, 46, 75
4, 108720, Note_on_c, 1, 51, 75
4, 108735, Note_on_c, 1, 51, 0
4, 108735, Note_on_c, 1, 46, 0
4, 108780, Note_on_c, 1, 47, 80
4, 108780, Note_on_c, 1, 51, 80
4, 108795, Note_on_c, 1, 51, 0
4, 108795, Note_on_c, 1, 47, 0
4, 108840, Note_on_c, 1, 39, 80
4, 108840, Note_on_c, 1, 49, 80
4, 108840, Note_on_c, 1, 51, 80
4, 108898, Note_on_c, 1, 51, 0
4, 108898, Note_on_c, 1, 49, 0
4, 108898, Note_on_c, 1, 39, 0
4, 108900, Control_c, 1, 64, 127
4, 108900, Note_on_c, 1, 51, 85
4, 108900, Note_on_c, 1, 61, 85
4, 108915, Note_on_c, 1, 61, 0
4, 108915, Note_on_c, 1, 51, 0
4, 108960, Note_on_c, 1, 51, 78
4, 108960, Note_on_c, 1, 61, 78
4, 108975, Note_on_c, 1, 61, 0
4, 108975, Note_on_c, 1, 51, 0
4, 109020, Note_on_c, 1, 51, 78
4, 109020, Note_on_c, 1, 61, 78
4, 109035, Note_on_c, 1, 61, 0
4, 109035, Note_on_c, 1, 51, 0
4, 109080, Note_on_c, 1, 51, 78
4, 109080, Note_on_c, 1, 61, 78
4, 109095, Note_on_c, 1, 61, 0
4, 109095, Note_on_c, 1, 51, 0
4, 109140, Control_c, 1, 64, 0
4, 109140, Note_on_c, 1, 51, 78
4, 109140, Note_on_c, 1, 61, 78
4, 109155, Note_on_c, 1, 61, 0
4, 109155, Note_on_c, 1, 51, 0
4, 109200, Note_on_c, 1, 51, 78
4, 109200, Note_on_c, 1, 59, 78
4, 109215, Note_on_c, 1, 59, 0
4, 109215, Note_on_c, 1, 51, 0
4, 109260, Note_on_c, 1, 51, 78
4, 109260, Note_on_c, 1, 58, 78
4, 109275, Note_on_c, 1, 58, 0
4, 109275, Note_on_c, 1, 51, 0
4, 109320, Note_on_c, 1, 44, 78
4, 109320, Note_on_c, 1, 56, 78
4, 109335, Note_on_c, 1, 56, 0
4, 109335, Note_on_c, 1, 44, 0
4, 109380, Note_on_c, 1, 59, 45
4, 109380, Note_on_c, 1, 63, 45
4, 109395, Note_on_c, 1, 63, 0
4, 109395, Note_on_c, 1, 59, 0
4, 109440, Note_on_c, 1, 59, 45
4, 109440, Note_on_c, 1, 63, 45
4, 109500, Note_on_c, 1, 63, 0
4, 109500, Note_on_c, 1, 59, 0
4, 109500, Note_on_c, 1, 56, 35
4, 109500, Note_on_c, 1, 59, 35
4, 109552, Note_on_c, 1, 59, 0
4, 109552, Note_on_c, 1, 56, 0
4, 109560, Note_on_c, 1, 49, 63
4, 109618, Note_on_c, 1, 49, 0
4, 109620, Note_on_c, 1, 61, 45
4, 109620, Note_on_c, 1, 64, 45
4, 109635, Note_on_c, 1, 64, 0
4, 109635, Note_on_c, 1, 61, 0
4, 109680, Note_on_c, 1, 61, 45
4, 109680, Note_on_c, 1, 64, 45
4, 109740, Note_on_c, 1, 64, 0
4, 109740, Note_on_c, 1, 61, 0
4, 109740, Note_on_c, 1, 56, 35
4, 109740, Note_on_c, 1, 61, 35
4, 109792, Note_on_c, 1, 61, 0
4, 109792, Note_on_c, 1, 56, 0
4, 109800, Note_on_c, 1, 51, 63
4, 109815, Note_on_c, 1, 51, 0
4, 109860, Note_on_c, 1, 59, 45
4, 109860, Note_on_c, 1, 63, 45
4, 109875, Note_on_c, 1, 63, 0
4, 109875, Note_on_c, 1, 59, 0
4, 109920, Note_on_c, 1, 59, 45
4, 109920, Note_on_c, 1, 63, 45
4, 109980, Note_on_c, 1, 63, 0
4, 109980, Note_on_c, 1, 59, 0
4, 109980, Note_on_c, 1, 56, 35
4, 109980, Note_on_c, 1, 59, 35
4, 110032, Note_on_c, 1, 59, 0
4, 110032, Note_on_c, 1, 56, 0
4, 110040, Note_on_c, 1, 49, 63
4, 110055, Note_on_c, 1, 49, 0
4, 110100, Note_on_c, 1, 58, 45
4, 110100, Note_on_c, 1, 63, 45
4, 110115, Note_on_c, 1, 63, 0
4, 110115, Note_on_c, 1, 58, 0
4, 110160, Note_on_c, 1, 58, 45
4, 110160, Note_on_c, 1, 63, 45
4, 110220, Note_on_c, 1, 63, 0
4, 110220, Note_on_c, 1, 58, 0
4, 110220, Note_on_c, 1, 55, 35
4, 110220, Note_on_c, 1, 58, 35
4, 110272, Note_on_c, 1, 58, 0
4, 110272, Note_on_c, 1, 55, 0
4, 110280, Note_on_c, 1, 47, 63
4, 110295, Note_on_c, 1, 47, 0
4, 110340, Note_on_c, 1, 63, 45
4, 110340, Note_on_c, 1, 68, 45
4, 110355, Note_on_c, 1, 68, 0
4, 110355, Note_on_c, 1, 63, 0
4, 110400, Note_on_c, 1, 63, 45
4, 110400, Note_on_c, 1, 68, 45
4, 110460, Note_on_c, 1, 68, 0
4, 110460, Note_on_c, 1, 63, 0
4, 110460, Note_on_c, 1, 59, 35
4, 110460, Note_on_c, 1, 63, 35
4, 110512, Note_on_c, 1, 63, 0
4, 110512, Note_on_c, 1, 59, 0
4, 110520, Note_on_c, 1, 49, 63
4, 110535, Note_on_c, 1, 49, 0
4, 110580, Note_on_c, 1, 64, 45
4, 110580, Note_on_c, 1, 69, 45
4, 110595, Note_on_c, 1, 69, 0
4, 110595, Note_on_c, 1, 64, 0
4, 110640, Note_on_c, 1, 64, 45
4, 110640, Note_on_c, 1, 69, 45
4, 110700, Note_on_c, 1, 69, 0
4, 110700, Note_on_c, 1, 64, 0
4, 110700, Note_on_c, 1, 61, 35
4, 110700, Note_on_c, 1, 64, 35
4, 110752, Note_on_c, 1, 64, 0
4, 110752, Note_on_c, 1, 61, 0
4, 110760, Note_on_c, 1, 51, 63
4, 110775, Note_on_c, 1, 51, 0
4, 110820, Note_on_c, 1, 63, 45
4, 110820, Note_on_c, 1, 68, 45
4, 110835, Note_on_c, 1, 68, 0
4, 110835, Note_on_c, 1, 63, 0
4, 110880, Note_on_c, 1, 63, 45
4, 110880, Note_on_c, 1, 68, 45
4, 110940, Note_on_c, 1, 68, 0
4, 110940, Note_on_c, 1, 63, 0
4, 110940, Note_on_c, 1, 59, 35
4, 110940, Note_on_c, 1, 63, 35
4, 110992, Note_on_c, 1, 63, 0
4, 110992, Note_on_c, 1, 59, 0
4, 111000, Note_on_c, 1, 51, 63
4, 111015, Note_on_c, 1, 51, 0
4, 111060, Note_on_c, 1, 61, 45
4, 111060, Note_on_c, 1, 67, 45
4, 111075, Note_on_c, 1, 67, 0
4, 111075, Note_on_c, 1, 61, 0
4, 111120, Note_on_c, 1, 61, 45
4, 111120, Note_on_c, 1, 67, 45
4, 111180, Note_on_c, 1, 67, 0
4, 111180, Note_on_c, 1, 61, 0
4, 111180, Note_on_c, 1, 58, 35
4, 111180, Note_on_c, 1, 61, 35
4, 111232, Note_on_c, 1, 61, 0
4, 111232, Note_on_c, 1, 58, 0
4, 111240, Control_c, 1, 64, 127
4, 111240, Note_on_c, 1, 44, 45
4, 111270, Note_on_c, 1, 44, 0
4, 111270, Note_on_c, 1, 56, 45
4, 111300, Note_on_c, 1, 56, 0
4, 111300, Note_on_c, 1, 51, 45
4, 111330, Note_on_c, 1, 51, 0
4, 111330, Note_on_c, 1, 56, 45
4, 111360, Note_on_c, 1, 56, 0
4, 111360, Note_on_c, 1, 44, 45
4, 111390, Note_on_c, 1, 44, 0
4, 111390, Note_on_c, 1, 56, 45
4, 111420, Note_on_c, 1, 56, 0
4, 111420, Note_on_c, 1, 51, 45
4, 111450, Note_on_c, 1, 51, 0
4, 111450, Note_on_c, 1, 56, 45
4, 111480, Note_on_c, 1, 56, 0
4, 111480, Note_on_c, 1, 44, 45
4, 111510, Note_on_c, 1, 44, 0
4, 111510, Note_on_c, 1, 56, 45
4, 111540, Note_on_c, 1, 56, 0
4, 111540, Note_on_c, 1, 51, 45
4, 111570, Note_on_c, 1, 51, 0
4, 111570, Note_on_c, 1, 56, 45
4, 111599, Note_on_c, 1, 56, 0
4, 111600, Control_c, 1, 64, 0
4, 111600, Note_on_c, 1, 44, 45
4, 111630, Note_on_c, 1, 44, 0
4, 111630, Note_on_c, 1, 56, 45
4, 111660, Note_on_c, 1, 56, 0
4, 111660, Note_on_c, 1, 51, 45
4, 111690, Note_on_c, 1, 51, 0
4, 111690, Note_on_c, 1, 56, 45
4, 111719, Note_on_c, 1, 56, 0
4, 111720, Note_on_c, 1, 44, 45
4, 111750, Note_on_c, 1, 44, 0
4, 111750, Note_on_c, 1, 58, 45
4, 111780, Note_on_c, 1, 58, 0
4, 111780, Note_on_c, 1, 51, 45
4, 111810, Note_on_c, 1, 51, 0
4, 111810, Note_on_c, 1, 58, 45
4, 111839, Note_on_c, 1, 58, 0
4, 111840, Control_c, 1, 64, 127
4, 111840, Note_on_c, 1, 44, 45
4, 111870, Note_on_c, 1, 44, 0
4, 111870, Note_on_c, 1, 58, 45
4, 111900, Note_on_c, 1, 58, 0
4, 111900, Note_on_c, 1, 51, 45
4, 111930, Note_on_c, 1, 51, 0
4, 111930, Note_on_c, 1, 58, 45
4, 111960, Note_on_c, 1, 58, 0
4, 111960, Note_on_c, 1, 44, 45
4, 111990, Note_on_c, 1, 44, 0
4, 111990, Note_on_c, 1, 58, 45
4, 112020, Note_on_c, 1, 58, 0
4, 112020, Note_on_c, 1, 51, 45
4, 112050, Note_on_c, 1, 51, 0
4, 112050, Note_on_c, 1, 58, 45
4, 112080, Note_on_c, 1, 58, 0
4, 112080, Note_on_c, 1, 44, 45
4, 112110, Note_on_c, 1, 44, 0
4, 112110, Note_on_c, 1, 58, 45
4, 112140, Note_on_c, 1, 58, 0
4, 112140, Note_on_c, 1, 51, 45
4, 112170, Note_on_c, 1, 51, 0
4, 112170, Note_on_c, 1, 58, 45
4, 112199, Note_on_c, 1, 58, 0
4, 112200, Control_c, 1, 64, 0
4, 112200, Control_c, 1, 64, 127
4, 112200, Note_on_c, 1, 44, 45
4, 112230, Note_on_c, 1, 44, 0
4, 112230, Note_on_c, 1, 56, 45
4, 112260, Note_on_c, 1, 56, 0
4, 112260, Note_on_c, 1, 51, 45
4, 112290, Note_on_c, 1, 51, 0
4, 112290, Note_on_c, 1, 56, 45
4, 112320, Note_on_c, 1, 56, 0
4, 112320, Note_on_c, 1, 44, 45
4, 112350, Note_on_c, 1, 44, 0
4, 112350, Note_on_c, 1, 56, 45
4, 112380, Note_on_c, 1, 56, 0
4, 112380, Note_on_c, 1, 51, 45
4, 112410, Note_on_c, 1, 51, 0
4, 112410, Note_on_c, 1, 56, 45
4, 112440, Note_on_c, 1, 56, 0
4, 112440, Note_on_c, 1, 44, 45
4, 112470, Note_on_c, 1, 44, 0
4, 112470, Note_on_c, 1, 56, 45
4, 112500, Note_on_c, 1, 56, 0
4, 112500, Note_on_c, 1, 51, 45
4, 112530, Note_on_c, 1, 51, 0
4, 112530, Note_on_c, 1, 56, 45
4, 112560, Note_on_c, 1, 56, 0
4, 112560, Note_on_c, 1, 44, 45
4, 112590, Note_on_c, 1, 44, 0
4, 112590, Note_on_c, 1, 56, 45
4, 112620, Note_on_c, 1, 56, 0
4, 112620, Note_on_c, 1, 51, 45
4, 112650, Note_on_c, 1, 51, 0
4, 112650, Note_on_c, 1, 56, 45
4, 112672, Note_on_c, 1, 56, 0
4, 112680, Control_c, 1, 64, 0
4, 112680, Note_on_c, 1, 44, 45
4, 112695, Note_on_c, 1, 44, 0
4, 112710, Note_on_c, 1, 58, 45
4, 112725, Note_on_c, 1, 58, 0
4, 112740, Note_on_c, 1, 51, 45
4, 112755, Note_on_c, 1, 51, 0
4, 112770, Note_on_c, 1, 58, 45
4, 112785, Note_on_c, 1, 58, 0
4, 112800, Control_c, 1, 64, 127
4, 112800, Note_on_c, 1, 44, 45
4, 112815, Note_on_c, 1, 44, 0
4, 112830, Note_on_c, 1, 58, 45
4, 112845, Note_on_c, 1, 58, 0
4, 112860, Note_on_c, 1, 51, 45
4, 112875, Note_on_c, 1, 51, 0
4, 112890, Note_on_c, 1, 58, 45
4, 112905, Note_on_c, 1, 58, 0
4, 112920, Note_on_c, 1, 44, 45
4, 112935, Note_on_c, 1, 44, 0
4, 112950, Note_on_c, 1, 58, 45
4, 112965, Note_on_c, 1, 58, 0
4, 112980, Note_on_c, 1, 51, 45
4, 112995, Note_on_c, 1, 51, 0
4, 113010, Note_on_c, 1, 58, 45
4, 113025, Note_on_c, 1, 58, 0
4, 113040, Note_on_c, 1, 44, 45
4, 113055, Note_on_c, 1, 44, 0
4, 113070, Note_on_c, 1, 58, 45
4, 113085, Note_on_c, 1, 58, 0
4, 113100, Note_on_c, 1, 51, 45
4, 113115, Note_on_c, 1, 51, 0
4, 113130, Note_on_c, 1, 58, 45
4, 113145, Note_on_c, 1, 58, 0
4, 113160, Control_c, 1, 64, 0
4, 113160, Control_c, 1, 64, 127
4, 113160, Note_on_c, 1, 44, 45
4, 113190, Note_on_c, 1, 44, 0
4, 113190, Note_on_c, 1, 56, 45
4, 113220, Note_on_c, 1, 56, 0
4, 113220, Note_on_c, 1, 51, 45
4, 113250, Note_on_c, 1, 51, 0
4, 113250, Note_on_c, 1, 56, 45
4, 113280, Note_on_c, 1, 56, 0
4, 113280, Note_on_c, 1, 44, 45
4, 113310, Note_on_c, 1, 44, 0
4, 113310, Note_on_c, 1, 56, 45
4, 113340, Note_on_c, 1, 56, 0
4, 113340, Note_on_c, 1, 51, 45
4, 113370, Note_on_c, 1, 51, 0
4, 113370, Note_on_c, 1, 56, 45
4, 113392, Note_on_c, 1, 56, 0
4, 113400, Control_c, 1, 64, 0
4, 113400, Control_c, 1, 64, 127
4, 113400, Note_on_c, 1, 44, 45
4, 113430, Note_on_c, 1, 44, 0
4, 113430, Note_on_c, 1, 58, 45
4, 113460, Note_on_c, 1, 58, 0
4, 113460, Note_on_c, 1, 51, 45
4, 113490, Note_on_c, 1, 51, 0
4, 113490, Note_on_c, 1, 58, 45
4, 113520, Note_on_c, 1, 58, 0
4, 113520, Note_on_c, 1, 44, 45
4, 113550, Note_on_c, 1, 44, 0
4, 113550, Note_on_c, 1, 58, 45
4, 113580, Note_on_c, 1, 58, 0
4, 113580, Note_on_c, 1, 51, 45
4, 113610, Note_on_c, 1, 51, 0
4, 113610, Note_on_c, 1, 58, 45
4, 113632, Note_on_c, 1, 58, 0
4, 113640, Control_c, 1, 64, 0
4, 113640, Control_c, 1, 64, 127
4, 113640, Note_on_c, 1, 44, 45
4, 113670, Note_on_c, 1, 44, 0
4, 113670, Note_on_c, 1, 56, 45
4, 113700, Note_on_c, 1, 56, 0
4, 113700, Note_on_c, 1, 51, 45
4, 113730, Note_on_c, 1, 51, 0
4, 113730, Note_on_c, 1, 56, 45
4, 113760, Note_on_c, 1, 56, 0
4, 113760, Note_on_c, 1, 44, 45
4, 113790, Note_on_c, 1, 44, 0
4, 113790, Note_on_c, 1, 56, 45
4, 113820, Note_on_c, 1, 56, 0
4, 113820, Note_on_c, 1, 51, 45
4, 113850, Note_on_c, 1, 51, 0
4, 113850, Note_on_c, 1, 56, 45
4, 113872, Note_on_c, 1, 56, 0
4, 113880, Control_c, 1, 64, 0
4, 113880, Control_c, 1, 64, 127
4, 113880, Note_on_c, 1, 44, 45
4, 113910, Note_on_c, 1, 44, 0
4, 113910, Note_on_c, 1, 58, 45
4, 113940, Note_on_c, 1, 58, 0
4, 113940, Note_on_c, 1, 51, 45
4, 113970, Note_on_c, 1, 51, 0
4, 113970, Note_on_c, 1, 58, 45
4, 114000, Note_on_c, 1, 58, 0
4, 114000, Note_on_c, 1, 44, 45
4, 114030, Note_on_c, 1, 44, 0
4, 114030, Note_on_c, 1, 58, 45
4, 114060, Note_on_c, 1, 58, 0
4, 114060, Note_on_c, 1, 51, 45
4, 114090, Note_on_c, 1, 51, 0
4, 114090, Note_on_c, 1, 58, 45
4, 114112, Note_on_c, 1, 58, 0
4, 114120, Control_c, 1, 64, 0
4, 114120, Note_on_c, 1, 44, 63
4, 114135, Note_on_c, 1, 44, 0
4, 114150, Note_on_c, 1, 56, 45
4, 114165, Note_on_c, 1, 56, 0
4, 114180, Note_on_c, 1, 51, 45
4, 114195, Note_on_c, 1, 51, 0
4, 114210, Note_on_c, 1, 56, 45
4, 114225, Note_on_c, 1, 56, 0
4, 114240, Note_on_c, 1, 44, 46
4, 114255, Note_on_c, 1, 44, 0
4, 114270, Note_on_c, 1, 56, 47
4, 114285, Note_on_c, 1, 56, 0
4, 114300, Note_on_c, 1, 51, 49
4, 114315, Note_on_c, 1, 51, 0
4, 114330, Note_on_c, 1, 56, 50
4, 114345, Note_on_c, 1, 56, 0
4, 114360, Note_on_c, 1, 44, 52
4, 114375, Note_on_c, 1, 44, 0
4, 114390, Note_on_c, 1, 56, 53
4, 114405, Note_on_c, 1, 56, 0
4, 114420, Note_on_c, 1, 51, 55
4, 114435, Note_on_c, 1, 51, 0
4, 114450, Note_on_c, 1, 56, 56
4, 114465, Note_on_c, 1, 56, 0
4, 114480, Note_on_c, 1, 44, 57
4, 114495, Note_on_c, 1, 44, 0
4, 114510, Note_on_c, 1, 56, 58
4, 114525, Note_on_c, 1, 56, 0
4, 114540, Note_on_c, 1, 51, 60
4, 114555, Note_on_c, 1, 51, 0
4, 114570, Note_on_c, 1, 56, 61
4, 114585, Note_on_c, 1, 56, 0
4, 114600, Control_c, 1, 64, 127
4, 114600, Note_on_c, 1, 44, 63
4, 114615, Note_on_c, 1, 44, 0
4, 114630, Note_on_c, 1, 54, 64
4, 114645, Note_on_c, 1, 54, 0
4, 114660, Note_on_c, 1, 51, 66
4, 114675, Note_on_c, 1, 51, 0
4, 114690, Note_on_c, 1, 54, 67
4, 114705, Note_on_c, 1, 54, 0
4, 114720, Note_on_c, 1, 44, 69
4, 114735, Note_on_c, 1, 44, 0
4, 114750, Note_on_c, 1, 54, 70
4, 114765, Note_on_c, 1, 54, 0
4, 114780, Note_on_c, 1, 51, 71
4, 114795, Note_on_c, 1, 51, 0
4, 114810, Note_on_c, 1, 54, 72
4, 114825, Note_on_c, 1, 54, 0
4, 114840, Note_on_c, 1, 44, 73
4, 114855, Note_on_c, 1, 44, 0
4, 114870, Note_on_c, 1, 54, 74
4, 114885, Note_on_c, 1, 54, 0
4, 114900, Note_on_c, 1, 51, 75
4, 114915, Note_on_c, 1, 51, 0
4, 114930, Note_on_c, 1, 54, 76
4, 114945, Note_on_c, 1, 54, 0
4, 114960, Note_on_c, 1, 44, 77
4, 114975, Note_on_c, 1, 44, 0
4, 114990, Note_on_c, 1, 54, 78
4, 115005, Note_on_c, 1, 54, 0
4, 115020, Note_on_c, 1, 51, 79
4, 115035, Note_on_c, 1, 51, 0
4, 115050, Note_on_c, 1, 54, 80
4, 115065, Note_on_c, 1, 54, 0
4, 115080, Control_c, 1, 64, 0
4, 115080, Note_on_c, 1, 37, 80
4, 115100, Note_on_c, 1, 37, 0
4, 115140, Note_on_c, 1, 44, 45
4, 115160, Note_on_c, 1, 44, 0
4, 115200, Note_on_c, 1, 37, 45
4, 115220, Note_on_c, 1, 37, 0
4, 115260, Note_on_c, 1, 44, 45
4, 115280, Note_on_c, 1, 44, 0
4, 115320, Note_on_c, 1, 37, 45
4, 115340, Note_on_c, 1, 37, 0
4, 115380, Note_on_c, 1, 44, 45
4, 115400, Note_on_c, 1, 44, 0
4, 115440, Note_on_c, 1, 37, 45
4, 115460, Note_on_c, 1, 37, 0
4, 115500, Note_on_c, 1, 44, 45
4, 115520, Note_on_c, 1, 44, 0
4, 115560, Note_on_c, 1, 37, 45
4, 115580, Note_on_c, 1, 37, 0
4, 115620, Note_on_c, 1, 44, 45
4, 115640, Note_on_c, 1, 44, 0
4, 115680, Note_on_c, 1, 37, 45
4, 115700, Note_on_c, 1, 37, 0
4, 115740, Note_on_c, 1, 44, 45
4, 115760, Note_on_c, 1, 44, 0
4, 115800, Note_on_c, 1, 37, 45
4, 115820, Note_on_c, 1, 37, 0
4, 115860, Note_on_c, 1, 44, 45
4, 115880, Note_on_c, 1, 44, 0
4, 115920, Control_c, 1, 64, 127
4, 115920, Note_on_c, 1, 37, 78
4, 115920, Note_on_c, 1, 49, 78
4, 115940, Note_on_c, 1, 49, 0
4, 115940, Note_on_c, 1, 37, 0
4, 115980, Note_on_c, 1, 44, 45
4, 116000, Note_on_c, 1, 44, 0
4, 116040, Control_c, 1, 64, 0
4, 116040, Note_on_c, 1, 36, 45
4, 116060, Note_on_c, 1, 36, 0
4, 116100, Note_on_c, 1, 44, 45
4, 116120, Note_on_c, 1, 44, 0
4, 116160, Note_on_c, 1, 36, 45
4, 116180, Note_on_c, 1, 36, 0
4, 116220, Note_on_c, 1, 44, 45
4, 116240, Note_on_c, 1, 44, 0
4, 116280, Note_on_c, 1, 36, 45
4, 116300, Note_on_c, 1, 36, 0
4, 116340, Note_on_c, 1, 44, 45
4, 116360, Note_on_c, 1, 44, 0
4, 116400, Note_on_c, 1, 36, 45
4, 116420, Note_on_c, 1, 36, 0
4, 116460, Note_on_c, 1, 44, 45
4, 116480, Note_on_c, 1, 44, 0
4, 116520, Note_on_c, 1, 36, 45
4, 116540, Note_on_c, 1, 36, 0
4, 116580, Note_on_c, 1, 44, 45
4, 116600, Note_on_c, 1, 44, 0
4, 116640, Note_on_c, 1, 36, 45
4, 116660, Note_on_c, 1, 36, 0
4, 116700, Note_on_c, 1, 44, 45
4, 116720, Note_on_c, 1, 44, 0
4, 116760, Note_on_c, 1, 36, 45
4, 116780, Note_on_c, 1, 36, 0
4, 116820, Note_on_c, 1, 44, 45
4, 116840, Note_on_c, 1, 44, 0
4, 116880, Control_c, 1, 64, 127
4, 116880, Note_on_c, 1, 36, 78
4, 116880, Note_on_c, 1, 48, 78
4, 116900, Note_on_c, 1, 48, 0
4, 116900, Note_on_c, 1, 36, 0
4, 116940, Note_on_c, 1, 44, 45
4, 116960, Note_on_c, 1, 44, 0
4, 117000, Control_c, 1, 64, 0
4, 117000, Note_on_c, 1, 35, 45
4, 117020, Note_on_c, 1, 35, 0
4, 117060, Note_on_c, 1, 44, 45
4, 117080, Note_on_c, 1, 44, 0
4, 117120, Note_on_c, 1, 35, 45
4, 117140, Note_on_c, 1, 35, 0
4, 117180, Note_on_c, 1, 44, 45
4, 117200, Note_on_c, 1, 44, 0
4, 117240, Note_on_c, 1, 35, 45
4, 117260, Note_on_c, 1, 35, 0
4, 117300, Note_on_c, 1, 44, 45
4, 117320, Note_on_c, 1, 44, 0
4, 117360, Note_on_c, 1, 35, 45
4, 117380, Note_on_c, 1, 35, 0
4, 117420, Note_on_c, 1, 44, 45
4, 117440, Note_on_c, 1, 44, 0
4, 117480, Note_on_c, 1, 35, 45
4, 117500, Note_on_c, 1, 35, 0
4, 117540, Note_on_c, 1, 44, 45
4, 117560, Note_on_c, 1, 44, 0
4, 117600, Note_on_c, 1, 35, 45
4, 117620, Note_on_c, 1, 35, 0
4, 117660, Note_on_c, 1, 44, 45
4, 117680, Note_on_c, 1, 44, 0
4, 117720, Note_on_c, 1, 35, 45
4, 117740, Note_on_c, 1, 35, 0
4, 117780, Note_on_c, 1, 44, 45
4, 117800, Note_on_c, 1, 44, 0
4, 117840, Control_c, 1, 64, 127
4, 117840, Note_on_c, 1, 35, 78
4, 117840, Note_on_c, 1, 47, 78
4, 117860, Note_on_c, 1, 47, 0
4, 117860, Note_on_c, 1, 35, 0
4, 117900, Note_on_c, 1, 44, 45
4, 117920, Note_on_c, 1, 44, 0
4, 117960, Control_c, 1, 64, 0
4, 117960, Note_on_c, 1, 33, 45
4, 117980, Note_on_c, 1, 33, 0
4, 118020, Note_on_c, 1, 45, 45
4, 118040, Note_on_c, 1, 45, 0
4, 118080, Note_on_c, 1, 33, 45
4, 118100, Note_on_c, 1, 33, 0
4, 118140, Note_on_c, 1, 45, 45
4, 118160, Note_on_c, 1, 45, 0
4, 118200, Note_on_c, 1, 33, 45
4, 118220, Note_on_c, 1, 33, 0
4, 118260, Note_on_c, 1, 45, 45
4, 118280, Note_on_c, 1, 45, 0
4, 118320, Control_c, 1, 64, 127
4, 118320, Note_on_c, 1, 33, 85
4, 118340, Note_on_c, 1, 33, 0
4, 118380, Note_on_c, 1, 45, 45
4, 118400, Note_on_c, 1, 45, 0
4, 118440, Control_c, 1, 64, 0
4, 118440, Note_on_c, 1, 33, 45
4, 118460, Note_on_c, 1, 33, 0
4, 118500, Note_on_c, 1, 45, 45
4, 118520, Note_on_c, 1, 45, 0
4, 118560, Note_on_c, 1, 33, 45
4, 118580, Note_on_c, 1, 33, 0
4, 118620, Note_on_c, 1, 45, 45
4, 118640, Note_on_c, 1, 45, 0
4, 118680, Note_on_c, 1, 33, 45
4, 118700, Note_on_c, 1, 33, 0
4, 118740, Note_on_c, 1, 45, 45
4, 118760, Note_on_c, 1, 45, 0
4, 118800, Control_c, 1, 64, 127
4, 118800, Note_on_c, 1, 33, 78
4, 118820, Note_on_c, 1, 33, 0
4, 118860, Note_on_c, 1, 33, 78
4, 118860, Note_on_c, 1, 45, 78
4, 118880, Note_on_c, 1, 45, 0
4, 118880, Note_on_c, 1, 33, 0
4, 118920, Control_c, 1, 64, 0
4, 118920, Control_c, 1, 64, 127
4, 118920, Note_on_c, 1, 32, 78
4, 118920, Note_on_c, 1, 44, 78
4, 118940, Note_on_c, 1, 44, 0
4, 118940, Note_on_c, 1, 32, 0
4, 118980, Control_c, 1, 64, 0
4, 118980, Note_on_c, 1, 56, 75
4, 118980, Note_on_c, 1, 60, 105
4, 119039, Note_on_c, 1, 60, 0
4, 119040, Note_on_c, 1, 60, 75
4, 119100, Note_on_c, 1, 60, 0
4, 119100, Note_on_c, 1, 61, 75
4, 119160, Note_on_c, 1, 61, 0
4, 119160, Note_on_c, 1, 63, 75
4, 119220, Note_on_c, 1, 63, 0
4, 119220, Note_on_c, 1, 64, 75
4, 119280, Note_on_c, 1, 64, 0
4, 119280, Note_on_c, 1, 66, 75
4, 119340, Note_on_c, 1, 66, 0
4, 119340, Note_on_c, 1, 63, 75
4, 119399, Note_on_c, 1, 63, 0
4, 119400, Note_on_c, 1, 66, 75
4, 119458, Note_on_c, 1, 66, 0
4, 119460, Note_on_c, 1, 64, 75
4, 119519, Note_on_c, 1, 64, 0
4, 119520, Note_on_c, 1, 69, 85
4, 119578, Note_on_c, 1, 69, 0
4, 119580, Note_on_c, 1, 68, 78
4, 119640, Note_on_c, 1, 68, 0
4, 119640, Note_on_c, 1, 66, 78
4, 119700, Note_on_c, 1, 66, 0
4, 119700, Note_on_c, 1, 64, 78
4, 119760, Note_on_c, 1, 64, 0
4, 119760, Note_on_c, 1, 63, 78
4, 119820, Note_on_c, 1, 63, 0
4, 119820, Note_on_c, 1, 61, 78
4, 119879, Note_on_c, 1, 61, 0
4, 119879, Note_on_c, 1, 56, 0
4, 119880, Note_on_c, 1, 56, 78
4, 119880, Note_on_c, 1, 60, 85
4, 119938, Note_on_c, 1, 60, 0
4, 119940, Note_on_c, 1, 60, 78
4, 120000, Note_on_c, 1, 60, 0
4, 120000, Note_on_c, 1, 60, 78
4, 120060, Note_on_c, 1, 60, 0
4, 120060, Note_on_c, 1, 61, 78
4, 120120, Note_on_c, 1, 61, 0
4, 120120, Note_on_c, 1, 63, 78
4, 120180, Note_on_c, 1, 63, 0
4, 120180, Note_on_c, 1, 64, 78
4, 120240, Note_on_c, 1, 64, 0
4, 120240, Note_on_c, 1, 66, 78
4, 120300, Note_on_c, 1, 66, 0
4, 120300, Note_on_c, 1, 63, 78
4, 120359, Note_on_c, 1, 63, 0
4, 120360, Note_on_c, 1, 66, 78
4, 120418, Note_on_c, 1, 66, 0
4, 120420, Note_on_c, 1, 64, 78
4, 120479, Note_on_c, 1, 64, 0
4, 120480, Note_on_c, 1, 69, 85
4, 120538, Note_on_c, 1, 69, 0
4, 120540, Note_on_c, 1, 68, 78
4, 120600, Note_on_c, 1, 68, 0
4, 120600, Note_on_c, 1, 66, 78
4, 120660, Note_on_c, 1, 66, 0
4, 120660, Note_on_c, 1, 64, 78
4, 120720, Note_on_c, 1, 64, 0
4, 120720, Note_on_c, 1, 63, 78
4, 120780, Note_on_c, 1, 63, 0
4, 120780, Note_on_c, 1, 61, 78
4, 120839, Note_on_c, 1, 61, 0
4, 120839, Note_on_c, 1, 56, 0
4, 120840, Note_on_c, 1, 56, 78
4, 120840, Note_on_c, 1, 60, 78
4, 120860, Note_on_c, 1, 60, 0
4, 120860, Note_on_c, 1, 56, 0
4, 120900, Note_on_c, 1, 56, 78
4, 120900, Note_on_c, 1, 61, 78
4, 120920, Note_on_c, 1, 61, 0
4, 120920, Note_on_c, 1, 56, 0
4, 120960, Note_on_c, 1, 56, 78
4, 120960, Note_on_c, 1, 60, 78
4, 120980, Note_on_c, 1, 60, 0
4, 120980, Note_on_c, 1, 56, 0
4, 121020, Note_on_c, 1, 56, 78
4, 121020, Note_on_c, 1, 61, 78
4, 121040, Note_on_c, 1, 61, 0
4, 121040, Note_on_c, 1, 56, 0
4, 121080, Note_on_c, 1, 56, 78
4, 121080, Note_on_c, 1, 60, 78
4, 121100, Note_on_c, 1, 60, 0
4, 121100, Note_on_c, 1, 56, 0
4, 121140, Note_on_c, 1, 56, 78
4, 121140, Note_on_c, 1, 61, 78
4, 121160, Note_on_c, 1, 61, 0
4, 121160, Note_on_c, 1, 56, 0
4, 121200, Note_on_c, 1, 56, 78
4, 121200, Note_on_c, 1, 60, 78
4, 121220, Note_on_c, 1, 60, 0
4, 121220, Note_on_c, 1, 56, 0
4, 121260, Note_on_c, 1, 56, 78
4, 121260, Note_on_c, 1, 61, 78
4, 121280, Note_on_c, 1, 61, 0
4, 121280, Note_on_c, 1, 56, 0
4, 121320, Note_on_c, 1, 56, 78
4, 121320, Note_on_c, 1, 60, 78
4, 121350, Note_on_c, 1, 60, 0
4, 121350, Note_on_c, 1, 56, 0
4, 121440, Note_on_c, 1, 32, 85
4, 121440, Note_on_c, 1, 44, 85
4, 121799, Note_on_c, 1, 44, 0
4, 121799, Note_on_c, 1, 32, 0
4, 121800, Note_on_c, 1, 37, 45
4, 121815, Note_on_c, 1, 37, 0
4, 121860, Note_on_c, 1, 44, 45
4, 121875, Note_on_c, 1, 44, 0
4, 121920, Note_on_c, 1, 37, 45
4, 121935, Note_on_c, 1, 37, 0
4, 121980, Note_on_c, 1, 44, 45
4, 121995, Note_on_c, 1, 44, 0
4, 122040, Note_on_c, 1, 37, 45
4, 122055, Note_on_c, 1, 37, 0
4, 122100, Note_on_c, 1, 44, 45
4, 122115, Note_on_c, 1, 44, 0
4, 122160, Note_on_c, 1, 37, 45
4, 122175, Note_on_c, 1, 37, 0
4, 122220, Note_on_c, 1, 44, 45
4, 122235, Note_on_c, 1, 44, 0
4, 122280, Note_on_c, 1, 37, 45
4, 122295, Note_on_c, 1, 37, 0
4, 122340, Note_on_c, 1, 44, 45
4, 122355, Note_on_c, 1, 44, 0
4, 122400, Note_on_c, 1, 37, 45
4, 122415, Note_on_c, 1, 37, 0
4, 122460, Note_on_c, 1, 44, 45
4, 122475, Note_on_c, 1, 44, 0
4, 122520, Note_on_c, 1, 37, 45
4, 122535, Note_on_c, 1, 37, 0
4, 122580, Note_on_c, 1, 44, 45
4, 122595, Note_on_c, 1, 44, 0
4, 122640, Control_c, 1, 64, 127
4, 122640, Note_on_c, 1, 37, 78
4, 122640, Note_on_c, 1, 49, 78
4, 122655, Note_on_c, 1, 49, 0
4, 122655, Note_on_c, 1, 37, 0
4, 122700, Note_on_c, 1, 44, 45
4, 122715, Note_on_c, 1, 44, 0
4, 122760, Control_c, 1, 64, 0
4, 122760, Note_on_c, 1, 34, 63
4, 122775, Note_on_c, 1, 34, 0
4, 122820, Note_on_c, 1, 49, 45
4, 122835, Note_on_c, 1, 49, 0
4, 122880, Note_on_c, 1, 46, 45
4, 122895, Note_on_c, 1, 46, 0
4, 122940, Note_on_c, 1, 49, 45
4, 122955, Note_on_c, 1, 49, 0
4, 123000, Note_on_c, 1, 46, 45
4, 123015, Note_on_c, 1, 46, 0
4, 123060, Note_on_c, 1, 49, 45
4, 123075, Note_on_c, 1, 49, 0
4, 123120, Note_on_c, 1, 46, 45
4, 123135, Note_on_c, 1, 46, 0
4, 123180, Note_on_c, 1, 49, 45
4, 123195, Note_on_c, 1, 49, 0
4, 123240, Note_on_c, 1, 46, 45
4, 123255, Note_on_c, 1, 46, 0
4, 123300, Note_on_c, 1, 49, 45
4, 123315, Note_on_c, 1, 49, 0
4, 123360, Note_on_c, 1, 46, 45
4, 123375, Note_on_c, 1, 46, 0
4, 123420, Note_on_c, 1, 49, 45
4, 123435, Note_on_c, 1, 49, 0
4, 123480, Note_on_c, 1, 46, 45
4, 123495, Note_on_c, 1, 46, 0
4, 123540, Note_on_c, 1, 49, 45
4, 123555, Note_on_c, 1, 49, 0
4, 123600, Control_c, 1, 64, 127
4, 123600, Note_on_c, 1, 34, 78
4, 123600, Note_on_c, 1, 46, 78
4, 123615, Note_on_c, 1, 46, 0
4, 123615, Note_on_c, 1, 34, 0
4, 123660, Note_on_c, 1, 49, 45
4, 123675, Note_on_c, 1, 49, 0
4, 123720, Control_c, 1, 64, 0
4, 123720, Control_c, 1, 64, 127
4, 123720, Note_on_c, 1, 31, 53
4, 123735, Note_on_c, 1, 31, 0
4, 123780, Note_on_c, 1, 51, 37
4, 123795, Note_on_c, 1, 51, 0
4, 123840, Note_on_c, 1, 43, 39
4, 123855, Note_on_c, 1, 43, 0
4, 123900, Note_on_c, 1, 51, 41
4, 123915, Note_on_c, 1, 51, 0
4, 123960, Note_on_c, 1, 43, 43
4, 123975, Note_on_c, 1, 43, 0
4, 124020, Note_on_c, 1, 51, 45
4, 124035, Note_on_c, 1, 51, 0
4, 124080, Note_on_c, 1, 43, 47
4, 124095, Note_on_c, 1, 43, 0
4, 124140, Note_on_c, 1, 51, 49
4, 124155, Note_on_c, 1, 51, 0
4, 124200, Note_on_c, 1, 43, 51
4, 124215, Note_on_c, 1, 43, 0
4, 124260, Note_on_c, 1, 51, 53
4, 124275, Note_on_c, 1, 51, 0
4, 124320, Note_on_c, 1, 43, 55
4, 124335, Note_on_c, 1, 43, 0
4, 124380, Note_on_c, 1, 51, 57
4, 124395, Note_on_c, 1, 51, 0
4, 124440, Note_on_c, 1, 43, 54
4, 124455, Note_on_c, 1, 43, 0
4, 124500, Note_on_c, 1, 51, 50
4, 124515, Note_on_c, 1, 51, 0
4, 124560, Control_c, 1, 64, 0
4, 124560, Note_on_c, 1, 43, 46
4, 124575, Note_on_c, 1, 43, 0
4, 124620, Note_on_c, 1, 51, 46
4, 124635, Note_on_c, 1, 51, 0
4, 124680, Note_on_c, 1, 44, 45
4, 124695, Note_on_c, 1, 44, 0
4, 124710, Note_on_c, 1, 51, 45
4, 124725, Note_on_c, 1, 51, 0
4, 124740, Note_on_c, 1, 47, 45
4, 124755, Note_on_c, 1, 47, 0
4, 124770, Note_on_c, 1, 51, 45
4, 124785, Note_on_c, 1, 51, 0
4, 124800, Note_on_c, 1, 44, 45
4, 124815, Note_on_c, 1, 44, 0
4, 124830, Note_on_c, 1, 51, 45
4, 124845, Note_on_c, 1, 51, 0
4, 124860, Note_on_c, 1, 47, 45
4, 124875, Note_on_c, 1, 47, 0
4, 124890, Note_on_c, 1, 51, 45
4, 124905, Note_on_c, 1, 51, 0
4, 124920, Note_on_c, 1, 44, 47
4, 124935, Note_on_c, 1, 44, 0
4, 124950, Note_on_c, 1, 51, 49
4, 124965, Note_on_c, 1, 51, 0
4, 124980, Note_on_c, 1, 47, 51
4, 124995, Note_on_c, 1, 47, 0
4, 125010, Note_on_c, 1, 51, 53
4, 125025, Note_on_c, 1, 51, 0
4, 125040, Note_on_c, 1, 44, 55
4, 125055, Note_on_c, 1, 44, 0
4, 125070, Note_on_c, 1, 51, 57
4, 125085, Note_on_c, 1, 51, 0
4, 125100, Note_on_c, 1, 47, 59
4, 125115, Note_on_c, 1, 47, 0
4, 125130, Note_on_c, 1, 51, 61
4, 125145, Note_on_c, 1, 51, 0
4, 125160, Note_on_c, 1, 46, 63
4, 125175, Note_on_c, 1, 46, 0
4, 125190, Note_on_c, 1, 51, 58
4, 125205, Note_on_c, 1, 51, 0
4, 125220, Note_on_c, 1, 49, 53
4, 125235, Note_on_c, 1, 49, 0
4, 125250, Note_on_c, 1, 51, 48
4, 125265, Note_on_c, 1, 51, 0
4, 125280, Note_on_c, 1, 46, 45
4, 125295, Note_on_c, 1, 46, 0
4, 125310, Note_on_c, 1, 51, 45
4, 125325, Note_on_c, 1, 51, 0
4, 125340, Note_on_c, 1, 49, 45
4, 125355, Note_on_c, 1, 49, 0
4, 125370, Note_on_c, 1, 51, 45
4, 125385, Note_on_c, 1, 51, 0
4, 125400, Note_on_c, 1, 46, 45
4, 125415, Note_on_c, 1, 46, 0
4, 125430, Note_on_c, 1, 51, 50
4, 125445, Note_on_c, 1, 51, 0
4, 125460, Note_on_c, 1, 49, 55
4, 125475, Note_on_c, 1, 49, 0
4, 125490, Note_on_c, 1, 51, 60
4, 125505, Note_on_c, 1, 51, 0
4, 125520, Note_on_c, 1, 46, 60
4, 125535, Note_on_c, 1, 46, 0
4, 125550, Note_on_c, 1, 51, 55
4, 125565, Note_on_c, 1, 51, 0
4, 125580, Note_on_c, 1, 49, 50
4, 125595, Note_on_c, 1, 49, 0
4, 125610, Note_on_c, 1, 51, 45
4, 125625, Note_on_c, 1, 51, 0
4, 125640, Note_on_c, 1, 47, 63
4, 125655, Note_on_c, 1, 47, 0
4, 125670, Note_on_c, 1, 51, 45
4, 125685, Note_on_c, 1, 51, 0
4, 125700, Note_on_c, 1, 47, 45
4, 125715, Note_on_c, 1, 47, 0
4, 125730, Note_on_c, 1, 51, 45
4, 125745, Note_on_c, 1, 51, 0
4, 125760, Note_on_c, 1, 47, 45
4, 125775, Note_on_c, 1, 47, 0
4, 125790, Note_on_c, 1, 51, 45
4, 125805, Note_on_c, 1, 51, 0
4, 125820, Note_on_c, 1, 47, 45
4, 125835, Note_on_c, 1, 47, 0
4, 125850, Note_on_c, 1, 51, 45
4, 125865, Note_on_c, 1, 51, 0
4, 125880, Note_on_c, 1, 47, 45
4, 125895, Note_on_c, 1, 47, 0
4, 125910, Note_on_c, 1, 51, 50
4, 125925, Note_on_c, 1, 51, 0
4, 125940, Note_on_c, 1, 47, 55
4, 125955, Note_on_c, 1, 47, 0
4, 125970, Note_on_c, 1, 51, 60
4, 125985, Note_on_c, 1, 51, 0
4, 126000, Note_on_c, 1, 47, 60
4, 126015, Note_on_c, 1, 47, 0
4, 126030, Note_on_c, 1, 51, 55
4, 126045, Note_on_c, 1, 51, 0
4, 126060, Note_on_c, 1, 47, 50
4, 126075, Note_on_c, 1, 47, 0
4, 126090, Note_on_c, 1, 51, 45
4, 126105, Note_on_c, 1, 51, 0
4, 126120, Note_on_c, 1, 43, 63
4, 126135, Note_on_c, 1, 43, 0
4, 126150, Note_on_c, 1, 51, 45
4, 126165, Note_on_c, 1, 51, 0
4, 126180, Note_on_c, 1, 43, 45
4, 126195, Note_on_c, 1, 43, 0
4, 126210, Note_on_c, 1, 51, 45
4, 126225, Note_on_c, 1, 51, 0
4, 126240, Note_on_c, 1, 43, 45
4, 126255, Note_on_c, 1, 43, 0
4, 126270, Note_on_c, 1, 51, 45
4, 126285, Note_on_c, 1, 51, 0
4, 126300, Note_on_c, 1, 43, 45
4, 126315, Note_on_c, 1, 43, 0
4, 126330, Note_on_c, 1, 51, 45
4, 126345, Note_on_c, 1, 51, 0
4, 126360, Note_on_c, 1, 43, 45
4, 126375, Note_on_c, 1, 43, 0
4, 126390, Note_on_c, 1, 51, 45
4, 126405, Note_on_c, 1, 51, 0
4, 126420, Note_on_c, 1, 43, 45
4, 126435, Note_on_c, 1, 43, 0
4, 126450, Note_on_c, 1, 51, 45
4, 126465, Note_on_c, 1, 51, 0
4, 126480, Note_on_c, 1, 43, 45
4, 126495, Note_on_c, 1, 43, 0
4, 126510, Note_on_c, 1, 51, 45
4, 126525, Note_on_c, 1, 51, 0
4, 126540, Note_on_c, 1, 43, 45
4, 126555, Note_on_c, 1, 43, 0
4, 126570, Note_on_c, 1, 51, 45
4, 126585, Note_on_c, 1, 51, 0
4, 126600, Control_c, 1, 64, 127
4, 126600, Note_on_c, 1, 44, 63
4, 126615, Note_on_c, 1, 44, 0
4, 126630, Note_on_c, 1, 51, 45
4, 126645, Note_on_c, 1, 51, 0
4, 126660, Note_on_c, 1, 47, 46
4, 126675, Note_on_c, 1, 47, 0
4, 126690, Note_on_c, 1, 51, 46
4, 126705, Note_on_c, 1, 51, 0
4, 126720, Note_on_c, 1, 44, 47
4, 126735, Note_on_c, 1, 44, 0
4, 126750, Note_on_c, 1, 51, 47
4, 126765, Note_on_c, 1, 51, 0
4, 126780, Note_on_c, 1, 47, 48
4, 126795, Note_on_c, 1, 47, 0
4, 126810, Note_on_c, 1, 51, 48
4, 126825, Note_on_c, 1, 51, 0
4, 126840, Note_on_c, 1, 44, 49
4, 126855, Note_on_c, 1, 44, 0
4, 126870, Note_on_c, 1, 51, 49
4, 126885, Note_on_c, 1, 51, 0
4, 126900, Note_on_c, 1, 47, 50
4, 126915, Note_on_c, 1, 47, 0
4, 126930, Note_on_c, 1, 51, 50
4, 126945, Note_on_c, 1, 51, 0
4, 126960, Note_on_c, 1, 44, 51
4, 126975, Note_on_c, 1, 44, 0
4, 126990, Note_on_c, 1, 51, 51
4, 127005, Note_on_c, 1, 51, 0
4, 127020, Note_on_c, 1, 47, 52
4, 127035, Note_on_c, 1, 47, 0
4, 127050, Note_on_c, 1, 51, 52
4, 127065, Note_on_c, 1, 51, 0
4, 127080, Control_c, 1, 64, 0
4, 127080, Note_on_c, 1, 46, 63
4, 127095, Note_on_c, 1, 46, 0
4, 127110, Note_on_c, 1, 51, 53
4, 127125, Note_on_c, 1, 51, 0
4, 127140, Note_on_c, 1, 49, 54
4, 127155, Note_on_c, 1, 49, 0
4, 127170, Note_on_c, 1, 51, 54
4, 127185, Note_on_c, 1, 51, 0
4, 127200, Control_c, 1, 64, 127
4, 127200, Note_on_c, 1, 46, 55
4, 127215, Note_on_c, 1, 46, 0
4, 127230, Note_on_c, 1, 51, 55
4, 127245, Note_on_c, 1, 51, 0
4, 127260, Note_on_c, 1, 49, 56
4, 127275, Note_on_c, 1, 49, 0
4, 127290, Note_on_c, 1, 51, 56
4, 127305, Note_on_c, 1, 51, 0
4, 127320, Note_on_c, 1, 46, 57
4, 127335, Note_on_c, 1, 46, 0
4, 127350, Note_on_c, 1, 51, 57
4, 127365, Note_on_c, 1, 51, 0
4, 127380, Note_on_c, 1, 49, 58
4, 127395, Note_on_c, 1, 49, 0
4, 127410, Note_on_c, 1, 51, 58
4, 127425, Note_on_c, 1, 51, 0
4, 127440, Note_on_c, 1, 46, 59
4, 127455, Note_on_c, 1, 46, 0
4, 127470, Note_on_c, 1, 51, 59
4, 127485, Note_on_c, 1, 51, 0
4, 127500, Note_on_c, 1, 49, 60
4, 127515, Note_on_c, 1, 49, 0
4, 127530, Note_on_c, 1, 51, 60
4, 127545, Note_on_c, 1, 51, 0
4, 127560, Control_c, 1, 64, 0
4, 127560, Note_on_c, 1, 47, 69
4, 127575, Note_on_c, 1, 47, 0
4, 127590, Note_on_c, 1, 51, 61
4, 127605, Note_on_c, 1, 51, 0
4, 127620, Note_on_c, 1, 47, 62
4, 127635, Note_on_c, 1, 47, 0
4, 127650, Note_on_c, 1, 51, 62
4, 127665, Note_on_c, 1, 51, 0
4, 127680, Control_c, 1, 64, 127
4, 127680, Note_on_c, 1, 47, 63
4, 127695, Note_on_c, 1, 47, 0
4, 127710, Note_on_c, 1, 51, 63
4, 127725, Note_on_c, 1, 51, 0
4, 127740, Note_on_c, 1, 47, 64
4, 127755, Note_on_c, 1, 47, 0
4, 127770, Note_on_c, 1, 51, 64
4, 127785, Note_on_c, 1, 51, 0
4, 127800, Note_on_c, 1, 47, 65
4, 127815, Note_on_c, 1, 47, 0
4, 127830, Note_on_c, 1, 51, 65
4, 127845, Note_on_c, 1, 51, 0
4, 127860, Note_on_c, 1, 47, 66
4, 127875, Note_on_c, 1, 47, 0
4, 127890, Note_on_c, 1, 51, 66
4, 127905, Note_on_c, 1, 51, 0
4, 127920, Note_on_c, 1, 47, 67
4, 127935, Note_on_c, 1, 47, 0
4, 127950, Note_on_c, 1, 51, 67
4, 127965, Note_on_c, 1, 51, 0
4, 127980, Note_on_c, 1, 47, 68
4, 127995, Note_on_c, 1, 47, 0
4, 128010, Note_on_c, 1, 51, 68
4, 128025, Note_on_c, 1, 51, 0
4, 128040, Control_c, 1, 64, 0
4, 128040, Note_on_c, 1, 43, 75
4, 128055, Note_on_c, 1, 43, 0
4, 128070, Note_on_c, 1, 51, 69
4, 128085, Note_on_c, 1, 51, 0
4, 128100, Note_on_c, 1, 43, 70
4, 128115, Note_on_c, 1, 43, 0
4, 128130, Note_on_c, 1, 51, 70
4, 128145, Note_on_c, 1, 51, 0
4, 128160, Note_on_c, 1, 43, 71
4, 128175, Note_on_c, 1, 43, 0
4, 128190, Note_on_c, 1, 51, 71
4, 128205, Note_on_c, 1, 51, 0
4, 128220, Control_c, 1, 64, 127
4, 128220, Note_on_c, 1, 43, 72
4, 128235, Note_on_c, 1, 43, 0
4, 128250, Note_on_c, 1, 51, 72
4, 128265, Note_on_c, 1, 51, 0
4, 128280, Note_on_c, 1, 43, 73
4, 128295, Note_on_c, 1, 43, 0
4, 128310, Note_on_c, 1, 51, 73
4, 128325, Note_on_c, 1, 51, 0
4, 128340, Note_on_c, 1, 43, 74
4, 128355, Note_on_c, 1, 43, 0
4, 128370, Note_on_c, 1, 51, 74
4, 128385, Note_on_c, 1, 51, 0
4, 128400, Note_on_c, 1, 43, 75
4, 128415, Note_on_c, 1, 43, 0
4, 128430, Note_on_c, 1, 51, 75
4, 128445, Note_on_c, 1, 51, 0
4, 128460, Note_on_c, 1, 43, 76
4, 128475, Note_on_c, 1, 43, 0
4, 128490, Note_on_c, 1, 51, 76
4, 128505, Note_on_c, 1, 51, 0
4, 128520, Control_c, 1, 64, 0
4, 128520, Control_c, 1, 64, 127
4, 128520, Note_on_c, 1, 42, 63
4, 128535, Note_on_c, 1, 42, 0
4, 128550, Note_on_c, 1, 51, 45
4, 128565, Note_on_c, 1, 51, 0
4, 128580, Note_on_c, 1, 44, 45
4, 128595, Note_on_c, 1, 44, 0
4, 128610, Note_on_c, 1, 51, 45
4, 128625, Note_on_c, 1, 51, 0
4, 128640, Note_on_c, 1, 42, 45
4, 128655, Note_on_c, 1, 42, 0
4, 128670, Note_on_c, 1, 51, 45
4, 128685, Note_on_c, 1, 51, 0
4, 128700, Note_on_c, 1, 44, 45
4, 128715, Note_on_c, 1, 44, 0
4, 128730, Note_on_c, 1, 51, 45
4, 128745, Note_on_c, 1, 51, 0
4, 128760, Control_c, 1, 64, 0
4, 128760, Control_c, 1, 64, 127
4, 128760, Note_on_c, 1, 40, 63
4, 128775, Note_on_c, 1, 40, 0
4, 128790, Note_on_c, 1, 51, 45
4, 128805, Note_on_c, 1, 51, 0
4, 128820, Note_on_c, 1, 44, 45
4, 128835, Note_on_c, 1, 44, 0
4, 128850, Note_on_c, 1, 51, 45
4, 128865, Note_on_c, 1, 51, 0
4, 128880, Note_on_c, 1, 40, 45
4, 128895, Note_on_c, 1, 40, 0
4, 128910, Note_on_c, 1, 51, 45
4, 128925, Note_on_c, 1, 51, 0
4, 128940, Note_on_c, 1, 44, 45
4, 128955, Note_on_c, 1, 44, 0
4, 128970, Note_on_c, 1, 51, 45
4, 128985, Note_on_c, 1, 51, 0
4, 129000, Control_c, 1, 64, 0
4, 129000, Note_on_c, 1, 40, 63
4, 129015, Note_on_c, 1, 40, 0
4, 129030, Note_on_c, 1, 49, 45
4, 129045, Note_on_c, 1, 49, 0
4, 129060, Note_on_c, 1, 42, 45
4, 129075, Note_on_c, 1, 42, 0
4, 129090, Note_on_c, 1, 49, 45
4, 129105, Note_on_c, 1, 49, 0
4, 129120, Note_on_c, 1, 39, 63
4, 129135, Note_on_c, 1, 39, 0
4, 129150, Note_on_c, 1, 47, 45
4, 129165, Note_on_c, 1, 47, 0
4, 129180, Note_on_c, 1, 42, 45
4, 129195, Note_on_c, 1, 42, 0
4, 129210, Note_on_c, 1, 47, 45
4, 129225, Note_on_c, 1, 47, 0
4, 129240, Note_on_c, 1, 39, 45
4, 129255, Note_on_c, 1, 39, 0
4, 129270, Note_on_c, 1, 47, 45
4, 129285, Note_on_c, 1, 47, 0
4, 129300, Note_on_c, 1, 42, 45
4, 129315, Note_on_c, 1, 42, 0
4, 129330, Note_on_c, 1, 47, 45
4, 129345, Note_on_c, 1, 47, 0
4, 129360, Note_on_c, 1, 39, 45
4, 129375, Note_on_c, 1, 39, 0
4, 129390, Note_on_c, 1, 47, 45
4, 129405, Note_on_c, 1, 47, 0
4, 129420, Note_on_c, 1, 42, 45
4, 129435, Note_on_c, 1, 42, 0
4, 129450, Note_on_c, 1, 47, 45
4, 129465, Note_on_c, 1, 47, 0
4, 129480, Control_c, 1, 64, 127
4, 129480, Note_on_c, 1, 38, 63
4, 129495, Note_on_c, 1, 38, 0
4, 129510, Note_on_c, 1, 47, 45
4, 129525, Note_on_c, 1, 47, 0
4, 129540, Note_on_c, 1, 40, 45
4, 129555, Note_on_c, 1, 40, 0
4, 129570, Note_on_c, 1, 47, 45
4, 129585, Note_on_c, 1, 47, 0
4, 129600, Note_on_c, 1, 38, 45
4, 129615, Note_on_c, 1, 38, 0
4, 129630, Note_on_c, 1, 47, 45
4, 129645, Note_on_c, 1, 47, 0
4, 129660, Note_on_c, 1, 40, 45
4, 129675, Note_on_c, 1, 40, 0
4, 129690, Note_on_c, 1, 47, 45
4, 129705, Note_on_c, 1, 47, 0
4, 129720, Control_c, 1, 64, 0
4, 129720, Control_c, 1, 64, 127
4, 129720, Note_on_c, 1, 37, 63
4, 129735, Note_on_c, 1, 37, 0
4, 129750, Note_on_c, 1, 45, 45
4, 129765, Note_on_c, 1, 45, 0
4, 129780, Note_on_c, 1, 40, 45
4, 129795, Note_on_c, 1, 40, 0
4, 129810, Note_on_c, 1, 45, 45
4, 129825, Note_on_c, 1, 45, 0
4, 129840, Note_on_c, 1, 37, 45
4, 129855, Note_on_c, 1, 37, 0
4, 129870, Note_on_c, 1, 45, 45
4, 129885, Note_on_c, 1, 45, 0
4, 129900, Note_on_c, 1, 40, 45
4, 129915, Note_on_c, 1, 40, 0
4, 129930, Note_on_c, 1, 45, 45
4, 129945, Note_on_c, 1, 45, 0
4, 129960, Control_c, 1, 64, 0
4, 129960, Note_on_c, 1, 37, 63
4, 129975, Note_on_c, 1, 37, 0
4, 129990, Note_on_c, 1, 46, 45
4, 130005, Note_on_c, 1, 46, 0
4, 130020, Note_on_c, 1, 39, 45
4, 130035, Note_on_c, 1, 39, 0
4, 130050, Note_on_c, 1, 46, 45
4, 130065, Note_on_c, 1, 46, 0
4, 130080, Note_on_c, 1, 35, 63
4, 130095, Note_on_c, 1, 35, 0
4, 130110, Note_on_c, 1, 44, 45
4, 130125, Note_on_c, 1, 44, 0
4, 130140, Note_on_c, 1, 39, 45
4, 130155, Note_on_c, 1, 39, 0
4, 130170, Note_on_c, 1, 44, 45
4, 130185, Note_on_c, 1, 44, 0
4, 130200, Note_on_c, 1, 35, 45
4, 130215, Note_on_c, 1, 35, 0
4, 130230, Note_on_c, 1, 44, 45
4, 130245, Note_on_c, 1, 44, 0
4, 130260, Note_on_c, 1, 39, 45
4, 130275, Note_on_c, 1, 39, 0
4, 130290, Note_on_c, 1, 44, 45
4, 130305, Note_on_c, 1, 44, 0
4, 130320, Note_on_c, 1, 35, 45
4, 130335, Note_on_c, 1, 35, 0
4, 130350, Note_on_c, 1, 44, 45
4, 130365, Note_on_c, 1, 44, 0
4, 130380, Note_on_c, 1, 39, 45
4, 130395, Note_on_c, 1, 39, 0
4, 130410, Note_on_c, 1, 44, 45
4, 130425, Note_on_c, 1, 44, 0
4, 130440, Control_c, 1, 64, 127
4, 130440, Note_on_c, 1, 37, 85
4, 130440, Note_on_c, 1, 40, 85
4, 130440, Note_on_c, 1, 45, 85
4, 130440, Note_on_c, 1, 49, 85
4, 130799, Note_on_c, 1, 49, 0
4, 130799, Note_on_c, 1, 37, 0
4, 130799, Note_on_c, 1, 40, 0
4, 130799, Note_on_c, 1, 45, 0
4, 130800, Control_c, 1, 64, 0
4, 130920, Note_on_c, 1, 61, 45
4, 130920, Note_on_c, 1, 64, 45
4, 130920, Note_on_c, 1, 69, 45
4, 130950, Note_on_c, 1, 69, 0
4, 130950, Note_on_c, 1, 64, 0
4, 130950, Note_on_c, 1, 61, 0
4, 131160, Note_on_c, 1, 61, 45
4, 131160, Note_on_c, 1, 64, 45
4, 131160, Note_on_c, 1, 69, 45
4, 131190, Note_on_c, 1, 69, 0
4, 131190, Note_on_c, 1, 64, 0
4, 131190, Note_on_c, 1, 61, 0
4, 131400, Note_on_c, 1, 61, 50
4, 131400, Note_on_c, 1, 64, 50
4, 131400, Note_on_c, 1, 69, 50
4, 131430, Note_on_c, 1, 69, 0
4, 131430, Note_on_c, 1, 64, 0
4, 131430, Note_on_c, 1, 61, 0
4, 131520, Note_on_c, 1, 61, 55
4, 131520, Note_on_c, 1, 64, 55
4, 131520, Note_on_c, 1, 69, 55
4, 131550, Note_on_c, 1, 69, 0
4, 131550, Note_on_c, 1, 64, 0
4, 131550, Note_on_c, 1, 61, 0
4, 131640, Note_on_c, 1, 61, 60
4, 131640, Note_on_c, 1, 64, 60
4, 131640, Note_on_c, 1, 69, 60
4, 131670, Note_on_c, 1, 69, 0
4, 131670, Note_on_c, 1, 64, 0
4, 131670, Note_on_c, 1, 61, 0
4, 131760, Note_on_c, 1, 61, 65
4, 131760, Note_on_c, 1, 64, 65
4, 131760, Note_on_c, 1, 69, 65
4, 131790, Note_on_c, 1, 69, 0
4, 131790, Note_on_c, 1, 64, 0
4, 131790, Note_on_c, 1, 61, 0
4, 131880, Note_on_c, 1, 63, 63
4, 131895, Note_on_c, 1, 63, 0
4, 131910, Note_on_c, 1, 71, 45
4, 131925, Note_on_c, 1, 71, 0
4, 131940, Note_on_c, 1, 68, 45
4, 131955, Note_on_c, 1, 68, 0
4, 131970, Note_on_c, 1, 71, 45
4, 131985, Note_on_c, 1, 71, 0
4, 132000, Note_on_c, 1, 63, 45
4, 132015, Note_on_c, 1, 63, 0
4, 132030, Note_on_c, 1, 71, 45
4, 132045, Note_on_c, 1, 71, 0
4, 132060, Note_on_c, 1, 68, 45
4, 132075, Note_on_c, 1, 68, 0
4, 132090, Note_on_c, 1, 71, 45
4, 132105, Note_on_c, 1, 71, 0
4, 132120, Note_on_c, 1, 63, 45
4, 132135, Note_on_c, 1, 63, 0
4, 132150, Note_on_c, 1, 73, 45
4, 132165, Note_on_c, 1, 73, 0
4, 132180, Note_on_c, 1, 67, 45
4, 132195, Note_on_c, 1, 67, 0
4, 132210, Note_on_c, 1, 73, 45
4, 132225, Note_on_c, 1, 73, 0
4, 132240, Note_on_c, 1, 63, 45
4, 132255, Note_on_c, 1, 63, 0
4, 132270, Note_on_c, 1, 73, 45
4, 132285, Note_on_c, 1, 73, 0
4, 132300, Note_on_c, 1, 67, 45
4, 132315, Note_on_c, 1, 67, 0
4, 132330, Note_on_c, 1, 73, 45
4, 132345, Note_on_c, 1, 73, 0
4, 132360, Note_on_c, 1, 64, 45
4, 132360, Note_on_c, 1, 68, 45
4, 132360, Note_on_c, 1, 71, 45
4, 132390, Note_on_c, 1, 71, 0
4, 132390, Note_on_c, 1, 68, 0
4, 132390, Note_on_c, 1, 64, 0
4, 132480, Control_c, 1, 64, 127
4, 132480, Note_on_c, 1, 37, 85
4, 132480, Note_on_c, 1, 40, 85
4, 132480, Note_on_c, 1, 45, 85
4, 132480, Note_on_c, 1, 49, 85
4, 132719, Note_on_c, 1, 49, 0
4, 132719, Note_on_c, 1, 37, 0
4, 132719, Note_on_c, 1, 40, 0
4, 132719, Note_on_c, 1, 45, 0
4, 132720, Control_c, 1, 64, 0
4, 132960, Note_on_c, 1, 49, 50
4, 132960, Note_on_c, 1, 52, 50
4, 132960, Note_on_c, 1, 57, 50
4, 132990, Note_on_c, 1, 57, 0
4, 132990, Note_on_c, 1, 52, 0
4, 132990, Note_on_c, 1, 49, 0
4, 133200, Note_on_c, 1, 49, 55
4, 133200, Note_on_c, 1, 52, 55
4, 133200, Note_on_c, 1, 57, 55
4, 133230, Note_on_c, 1, 57, 0
4, 133230, Note_on_c, 1, 52, 0
4, 133230, Note_on_c, 1, 49, 0
4, 133380, Note_on_c, 1, 49, 60
4, 133380, Note_on_c, 1, 52, 60
4, 133380, Note_on_c, 1, 57, 60
4, 133400, Note_on_c, 1, 57, 0
4, 133400, Note_on_c, 1, 52, 0
4, 133400, Note_on_c, 1, 49, 0
4, 133500, Note_on_c, 1, 49, 65
4, 133500, Note_on_c, 1, 52, 65
4, 133500, Note_on_c, 1, 57, 65
4, 133520, Note_on_c, 1, 57, 0
4, 133520, Note_on_c, 1, 52, 0
4, 133520, Note_on_c, 1, 49, 0
4, 133620, Note_on_c, 1, 49, 70
4, 133620, Note_on_c, 1, 52, 70
4, 133620, Note_on_c, 1, 57, 70
4, 133640, Note_on_c, 1, 57, 0
4, 133640, Note_on_c, 1, 52, 0
4, 133640, Note_on_c, 1, 49, 0
4, 133740, Note_on_c, 1, 49, 75
4, 133740, Note_on_c, 1, 52, 75
4, 133740, Note_on_c, 1, 57, 75
4, 133760, Note_on_c, 1, 57, 0
4, 133760, Note_on_c, 1, 52, 0
4, 133760, Note_on_c, 1, 49, 0
4, 133800, Note_on_c, 1, 49, 85
4, 133800, Note_on_c, 1, 52, 85
4, 133800, Note_on_c, 1, 57, 85
4, 133830, Note_on_c, 1, 57, 0
4, 133830, Note_on_c, 1, 52, 0
4, 133830, Note_on_c, 1, 49, 0
4, 134280, Control_c, 1, 64, 127
4, 134280, Note_on_c, 1, 49, 85
4, 134295, Note_on_c, 1, 49, 0
4, 134310, Note_on_c, 1, 57, 82
4, 134325, Note_on_c, 1, 57, 0
4, 134340, Note_on_c, 1, 52, 82
4, 134355, Note_on_c, 1, 52, 0
4, 134370, Note_on_c, 1, 57, 82
4, 134385, Note_on_c, 1, 57, 0
4, 134400, Note_on_c, 1, 49, 82
4, 134415, Note_on_c, 1, 49, 0
4, 134430, Note_on_c, 1, 57, 82
4, 134445, Note_on_c, 1, 57, 0
4, 134460, Note_on_c, 1, 52, 82
4, 134475, Note_on_c, 1, 52, 0
4, 134490, Note_on_c, 1, 57, 82
4, 134505, Note_on_c, 1, 57, 0
4, 134520, Control_c, 1, 64, 0
4, 134520, Control_c, 1, 64, 127
4, 134520, Note_on_c, 1, 50, 85
4, 134535, Note_on_c, 1, 50, 0
4, 134550, Note_on_c, 1, 59, 82
4, 134565, Note_on_c, 1, 59, 0
4, 134580, Note_on_c, 1, 53, 82
4, 134595, Note_on_c, 1, 53, 0
4, 134610, Note_on_c, 1, 59, 82
4, 134625, Note_on_c, 1, 59, 0
4, 134640, Note_on_c, 1, 50, 82
4, 134655, Note_on_c, 1, 50, 0
4, 134670, Note_on_c, 1, 59, 82
4, 134685, Note_on_c, 1, 59, 0
4, 134700, Note_on_c, 1, 53, 82
4, 134715, Note_on_c, 1, 53, 0
4, 134730, Note_on_c, 1, 59, 82
4, 134745, Note_on_c, 1, 59, 0
4, 134760, Control_c, 1, 64, 0
4, 134760, Control_c, 1, 64, 127
4, 134760, Note_on_c, 1, 51, 85
4, 134775, Note_on_c, 1, 51, 0
4, 134790, Note_on_c, 1, 59, 82
4, 134805, Note_on_c, 1, 59, 0
4, 134820, Note_on_c, 1, 56, 82
4, 134835, Note_on_c, 1, 56, 0
4, 134850, Note_on_c, 1, 59, 82
4, 134865, Note_on_c, 1, 59, 0
4, 134880, Note_on_c, 1, 51, 82
4, 134895, Note_on_c, 1, 51, 0
4, 134910, Note_on_c, 1, 59, 82
4, 134925, Note_on_c, 1, 59, 0
4, 134940, Note_on_c, 1, 56, 82
4, 134955, Note_on_c, 1, 56, 0
4, 134970, Note_on_c, 1, 59, 82
4, 134985, Note_on_c, 1, 59, 0
4, 135000, Control_c, 1, 64, 0
4, 135000, Control_c, 1, 64, 127
4, 135000, Note_on_c, 1, 39, 85
4, 135015, Note_on_c, 1, 39, 0
4, 135030, Note_on_c, 1, 51, 82
4, 135045, Note_on_c, 1, 51, 0
4, 135060, Note_on_c, 1, 50, 82
4, 135075, Note_on_c, 1, 50, 0
4, 135090, Note_on_c, 1, 51, 82
4, 135105, Note_on_c, 1, 51, 0
4, 135120, Note_on_c, 1, 50, 82
4, 135135, Note_on_c, 1, 50, 0
4, 135150, Note_on_c, 1, 51, 82
4, 135178, Note_on_c, 1, 51, 0
4, 135180, Note_on_c, 1, 50, 82
4, 135208, Note_on_c, 1, 50, 0
4, 135210, Note_on_c, 1, 51, 82
4, 135239, Note_on_c, 1, 51, 0
4, 135240, Control_c, 1, 64, 0
4, 135240, Control_c, 1, 64, 0
4, 135240, Note_on_c, 1, 44, 78
4, 135285, Note_on_c, 1, 44, 0
4, 135300, Note_on_c, 1, 56, 45
4, 135315, Note_on_c, 1, 56, 0
4, 135360, Note_on_c, 1, 56, 45
4, 135375, Note_on_c, 1, 56, 0
4, 135420, Note_on_c, 1, 56, 45
4, 135435, Note_on_c, 1, 56, 0
4, 135480, Note_on_c, 1, 56, 45
4, 135495, Note_on_c, 1, 56, 0
4, 135540, Note_on_c, 1, 56, 45
4, 135585, Note_on_c, 1, 56, 0
4, 135600, Note_on_c, 1, 58, 45
4, 135645, Note_on_c, 1, 58, 0
4, 135660, Note_on_c, 1, 59, 45
4, 135705, Note_on_c, 1, 59, 0
4, 135720, Note_on_c, 1, 51, 45
4, 135720, Note_on_c, 1, 61, 45
4, 135765, Note_on_c, 1, 61, 0
4, 135765, Note_on_c, 1, 51, 0
4, 135780, Note_on_c, 1, 61, 63
4, 135780, Note_on_c, 1, 63, 63
4, 135795, Note_on_c, 1, 63, 0
4, 135795, Note_on_c, 1, 61, 0
4, 135840, Note_on_c, 1, 61, 45
4, 135840, Note_on_c, 1, 63, 45
4, 135855, Note_on_c, 1, 63, 0
4, 135855, Note_on_c, 1, 61, 0
4, 135900, Note_on_c, 1, 61, 45
4, 135900, Note_on_c, 1, 63, 45
4, 135915, Note_on_c, 1, 63, 0
4, 135915, Note_on_c, 1, 61, 0
4, 135960, Note_on_c, 1, 61, 45
4, 135960, Note_on_c, 1, 63, 45
4, 135975, Note_on_c, 1, 63, 0
4, 135975, Note_on_c, 1, 61, 0
4, 136020, Note_on_c, 1, 61, 45
4, 136020, Note_on_c, 1, 63, 45
4, 136065, Note_on_c, 1, 63, 0
4, 136065, Note_on_c, 1, 61, 0
4, 136080, Note_on_c, 1, 59, 45
4, 136080, Note_on_c, 1, 63, 45
4, 136125, Note_on_c, 1, 63, 0
4, 136125, Note_on_c, 1, 59, 0
4, 136140, Note_on_c, 1, 58, 45
4, 136140, Note_on_c, 1, 63, 45
4, 136185, Note_on_c, 1, 63, 0
4, 136185, Note_on_c, 1, 58, 0
4, 136200, Note_on_c, 1, 56, 45
4, 136200, Note_on_c, 1, 44, 45
4, 136245, Note_on_c, 1, 44, 0
4, 136245, Note_on_c, 1, 56, 0
4, 136260, Note_on_c, 1, 56, 45
4, 136275, Note_on_c, 1, 56, 0
4, 136320, Note_on_c, 1, 56, 45
4, 136335, Note_on_c, 1, 56, 0
4, 136380, Note_on_c, 1, 56, 45
4, 136395, Note_on_c, 1, 56, 0
4, 136440, Note_on_c, 1, 56, 45
4, 136455, Note_on_c, 1, 56, 0
4, 136500, Note_on_c, 1, 56, 45
4, 136545, Note_on_c, 1, 56, 0
4, 136560, Note_on_c, 1, 58, 45
4, 136605, Note_on_c, 1, 58, 0
4, 136620, Note_on_c, 1, 59, 45
4, 136665, Note_on_c, 1, 59, 0
4, 136680, Note_on_c, 1, 51, 45
4, 136680, Note_on_c, 1, 61, 45
4, 136695, Note_on_c, 1, 61, 0
4, 136695, Note_on_c, 1, 51, 0
4, 136740, Note_on_c, 1, 61, 45
4, 136740, Note_on_c, 1, 63, 45
4, 136755, Note_on_c, 1, 63, 0
4, 136755, Note_on_c, 1, 61, 0
4, 136800, Note_on_c, 1, 61, 45
4, 136800, Note_on_c, 1, 63, 45
4, 136815, Note_on_c, 1, 63, 0
4, 136815, Note_on_c, 1, 61, 0
4, 136860, Note_on_c, 1, 61, 45
4, 136860, Note_on_c, 1, 63, 45
4, 136875, Note_on_c, 1, 63, 0
4, 136875, Note_on_c, 1, 61, 0
4, 136920, Note_on_c, 1, 61, 45
4, 136920, Note_on_c, 1, 63, 45
4, 136935, Note_on_c, 1, 63, 0
4, 136935, Note_on_c, 1, 61, 0
4, 136980, Note_on_c, 1, 61, 50
4, 136980, Note_on_c, 1, 63, 50
4, 137025, Note_on_c, 1, 63, 0
4, 137025, Note_on_c, 1, 61, 0
4, 137040, Note_on_c, 1, 59, 55
4, 137040, Note_on_c, 1, 63, 55
4, 137085, Note_on_c, 1, 63, 0
4, 137085, Note_on_c, 1, 59, 0
4, 137100, Note_on_c, 1, 58, 60
4, 137100, Note_on_c, 1, 63, 60
4, 137145, Note_on_c, 1, 63, 0
4, 137145, Note_on_c, 1, 58, 0
4, 137160, Control_c, 1, 64, 127
4, 137160, Note_on_c, 1, 44, 45
4, 137175, Note_on_c, 1, 44, 0
4, 137220, Note_on_c, 1, 56, 45
4, 137220, Note_on_c, 1, 59, 45
4, 137235, Note_on_c, 1, 59, 0
4, 137235, Note_on_c, 1, 56, 0
4, 137280, Note_on_c, 1, 56, 45
4, 137280, Note_on_c, 1, 59, 45
4, 137340, Note_on_c, 1, 59, 0
4, 137340, Note_on_c, 1, 56, 0
4, 137340, Note_on_c, 1, 59, 35
4, 137340, Note_on_c, 1, 63, 35
4, 137385, Note_on_c, 1, 63, 0
4, 137385, Note_on_c, 1, 59, 0
4, 137400, Control_c, 1, 64, 0
4, 137400, Control_c, 1, 64, 127
4, 137400, Note_on_c, 1, 49, 45
4, 137415, Note_on_c, 1, 49, 0
4, 137460, Note_on_c, 1, 56, 45
4, 137460, Note_on_c, 1, 61, 45
4, 137475, Note_on_c, 1, 61, 0
4, 137475, Note_on_c, 1, 56, 0
4, 137520, Note_on_c, 1, 56, 45
4, 137520, Note_on_c, 1, 61, 45
4, 137580, Note_on_c, 1, 61, 0
4, 137580, Note_on_c, 1, 56, 0
4, 137580, Note_on_c, 1, 61, 35
4, 137580, Note_on_c, 1, 64, 35
4, 137625, Note_on_c, 1, 64, 0
4, 137625, Note_on_c, 1, 61, 0
4, 137640, Control_c, 1, 64, 0
4, 137640, Note_on_c, 1, 51, 63
4, 137655, Note_on_c, 1, 51, 0
4, 137700, Note_on_c, 1, 56, 45
4, 137700, Note_on_c, 1, 59, 45
4, 137715, Note_on_c, 1, 59, 0
4, 137715, Note_on_c, 1, 56, 0
4, 137760, Note_on_c, 1, 56, 45
4, 137760, Note_on_c, 1, 59, 45
4, 137820, Note_on_c, 1, 59, 0
4, 137820, Note_on_c, 1, 56, 0
4, 137820, Note_on_c, 1, 59, 35
4, 137820, Note_on_c, 1, 63, 35
4, 137865, Note_on_c, 1, 63, 0
4, 137865, Note_on_c, 1, 59, 0
4, 137880, Note_on_c, 1, 51, 45
4, 137895, Note_on_c, 1, 51, 0
4, 137940, Note_on_c, 1, 55, 45
4, 137940, Note_on_c, 1, 58, 45
4, 137955, Note_on_c, 1, 58, 0
4, 137955, Note_on_c, 1, 55, 0
4, 138000, Note_on_c, 1, 55, 45
4, 138000, Note_on_c, 1, 58, 45
4, 138060, Note_on_c, 1, 58, 0
4, 138060, Note_on_c, 1, 55, 0
4, 138060, Note_on_c, 1, 58, 35
4, 138060, Note_on_c, 1, 63, 35
4, 138105, Note_on_c, 1, 63, 0
4, 138105, Note_on_c, 1, 58, 0
4, 138120, Note_on_c, 1, 32, 45
4, 138120, Note_on_c, 1, 44, 45
4, 138135, Note_on_c, 1, 44, 0
4, 138135, Note_on_c, 1, 32, 0
4, 138180, Note_on_c, 1, 44, 55
4, 138180, Note_on_c, 1, 51, 55
4, 138195, Note_on_c, 1, 51, 0
4, 138195, Note_on_c, 1, 44, 0
4, 138240, Note_on_c, 1, 44, 60
4, 138240, Note_on_c, 1, 51, 60
4, 138255, Note_on_c, 1, 51, 0
4, 138255, Note_on_c, 1, 44, 0
4, 138300, Note_on_c, 1, 44, 65
4, 138300, Note_on_c, 1, 51, 65
4, 138315, Note_on_c, 1, 51, 0
4, 138315, Note_on_c, 1, 44, 0
4, 138360, Note_on_c, 1, 44, 70
4, 138360, Note_on_c, 1, 51, 70
4, 138375, Note_on_c, 1, 51, 0
4, 138375, Note_on_c, 1, 44, 0
4, 138420, Note_on_c, 1, 44, 75
4, 138420, Note_on_c, 1, 51, 75
4, 138435, Note_on_c, 1, 51, 0
4, 138435, Note_on_c, 1, 44, 0
4, 138480, Note_on_c, 1, 46, 78
4, 138480, Note_on_c, 1, 51, 78
4, 138495, Note_on_c, 1, 51, 0
4, 138495, Note_on_c, 1, 46, 0
4, 138540, Note_on_c, 1, 47, 80
4, 138540, Note_on_c, 1, 51, 80
4, 138555, Note_on_c, 1, 51, 0
4, 138555, Note_on_c, 1, 47, 0
4, 138600, Note_on_c, 1, 39, 80
4, 138600, Note_on_c, 1, 49, 80
4, 138600, Note_on_c, 1, 51, 80
4, 138658, Note_on_c, 1, 51, 0
4, 138658, Note_on_c, 1, 49, 0
4, 138658, Note_on_c, 1, 39, 0
4, 138660, Control_c, 1, 64, 127
4, 138660, Note_on_c, 1, 51, 85
4, 138660, Note_on_c, 1, 61, 85
4, 138719, Note_on_c, 1, 61, 0
4, 138719, Note_on_c, 1, 51, 0
4, 138720, Note_on_c, 1, 51, 78
4, 138720, Note_on_c, 1, 61, 78
4, 138735, Note_on_c, 1, 61, 0
4, 138735, Note_on_c, 1, 51, 0
4, 138780, Note_on_c, 1, 51, 78
4, 138780, Note_on_c, 1, 61, 78
4, 138795, Note_on_c, 1, 61, 0
4, 138795, Note_on_c, 1, 51, 0
4, 138840, Note_on_c, 1, 51, 78
4, 138840, Note_on_c, 1, 61, 78
4, 138855, Note_on_c, 1, 61, 0
4, 138855, Note_on_c, 1, 51, 0
4, 138900, Control_c, 1, 64, 0
4, 138900, Note_on_c, 1, 51, 78
4, 138900, Note_on_c, 1, 61, 78
4, 138915, Note_on_c, 1, 61, 0
4, 138915, Note_on_c, 1, 51, 0
4, 138960, Note_on_c, 1, 51, 78
4, 138960, Note_on_c, 1, 59, 78
4, 138975, Note_on_c, 1, 59, 0
4, 138975, Note_on_c, 1, 51, 0
4, 139020, Note_on_c, 1, 51, 78
4, 139020, Note_on_c, 1, 58, 78
4, 139035, Note_on_c, 1, 58, 0
4, 139035, Note_on_c, 1, 51, 0
4, 139080, Note_on_c, 1, 32, 45
4, 139080, Note_on_c, 1, 44, 45
4, 139095, Note_on_c, 1, 44, 0
4, 139095, Note_on_c, 1, 32, 0
4, 139140, Note_on_c, 1, 44, 50
4, 139140, Note_on_c, 1, 51, 50
4, 139155, Note_on_c, 1, 51, 0
4, 139155, Note_on_c, 1, 44, 0
4, 139200, Note_on_c, 1, 44, 55
4, 139200, Note_on_c, 1, 51, 55
4, 139215, Note_on_c, 1, 51, 0
4, 139215, Note_on_c, 1, 44, 0
4, 139260, Note_on_c, 1, 44, 60
4, 139260, Note_on_c, 1, 51, 60
4, 139275, Note_on_c, 1, 51, 0
4, 139275, Note_on_c, 1, 44, 0
4, 139320, Note_on_c, 1, 44, 65
4, 139320, Note_on_c, 1, 51, 65
4, 139335, Note_on_c, 1, 51, 0
4, 139335, Note_on_c, 1, 44, 0
4, 139380, Note_on_c, 1, 44, 70
4, 139380, Note_on_c, 1, 51, 70
4, 139395, Note_on_c, 1, 51, 0
4, 139395, Note_on_c, 1, 44, 0
4, 139440, Note_on_c, 1, 46, 75
4, 139440, Note_on_c, 1, 51, 75
4, 139455, Note_on_c, 1, 51, 0
4, 139455, Note_on_c, 1, 46, 0
4, 139500, Note_on_c, 1, 47, 80
4, 139500, Note_on_c, 1, 51, 80
4, 139515, Note_on_c, 1, 51, 0
4, 139515, Note_on_c, 1, 47, 0
4, 139560, Note_on_c, 1, 39, 80
4, 139560, Note_on_c, 1, 49, 80
4, 139560, Note_on_c, 1, 51, 80
4, 139618, Note_on_c, 1, 51, 0
4, 139618, Note_on_c, 1, 49, 0
4, 139618, Note_on_c, 1, 39, 0
4, 139620, Control_c, 1, 64, 127
4, 139620, Note_on_c, 1, 51, 85
4, 139620, Note_on_c, 1, 61, 85
4, 139635, Note_on_c, 1, 61, 0
4, 139635, Note_on_c, 1, 51, 0
4, 139680, Note_on_c, 1, 51, 78
4, 139680, Note_on_c, 1, 61, 78
4, 139695, Note_on_c, 1, 61, 0
4, 139695, Note_on_c, 1, 51, 0
4, 139740, Note_on_c, 1, 51, 78
4, 139740, Note_on_c, 1, 61, 78
4, 139755, Note_on_c, 1, 61, 0
4, 139755, Note_on_c, 1, 51, 0
4, 139800, Note_on_c, 1, 51, 78
4, 139800, Note_on_c, 1, 61, 78
4, 139815, Note_on_c, 1, 61, 0
4, 139815, Note_on_c, 1, 51, 0
4, 139860, Control_c, 1, 64, 0
4, 139860, Note_on_c, 1, 51, 78
4, 139860, Note_on_c, 1, 61, 78
4, 139875, Note_on_c, 1, 61, 0
4, 139875, Note_on_c, 1, 51, 0
4, 139920, Note_on_c, 1, 51, 78
4, 139920, Note_on_c, 1, 59, 78
4, 139935, Note_on_c, 1, 59, 0
4, 139935, Note_on_c, 1, 51, 0
4, 139980, Note_on_c, 1, 51, 78
4, 139980, Note_on_c, 1, 58, 78
4, 139995, Note_on_c, 1, 58, 0
4, 139995, Note_on_c, 1, 51, 0
4, 140040, Note_on_c, 1, 44, 78
4, 140040, Note_on_c, 1, 56, 78
4, 140055, Note_on_c, 1, 56, 0
4, 140055, Note_on_c, 1, 44, 0
4, 140100, Note_on_c, 1, 59, 45
4, 140100, Note_on_c, 1, 63, 45
4, 140115, Note_on_c, 1, 63, 0
4, 140115, Note_on_c, 1, 59, 0
4, 140160, Note_on_c, 1, 59, 45
4, 140160, Note_on_c, 1, 63, 45
4, 140220, Note_on_c, 1, 63, 0
4, 140220, Note_on_c, 1, 59, 0
4, 140220, Note_on_c, 1, 56, 35
4, 140220, Note_on_c, 1, 59, 35
4, 140272, Note_on_c, 1, 59, 0
4, 140272, Note_on_c, 1, 56, 0
4, 140280, Note_on_c, 1, 49, 63
4, 140338, Note_on_c, 1, 49, 0
4, 140340, Note_on_c, 1, 61, 45
4, 140340, Note_on_c, 1, 64, 45
4, 140355, Note_on_c, 1, 64, 0
4, 140355, Note_on_c, 1, 61, 0
4, 140400, Note_on_c, 1, 61, 45
4, 140400, Note_on_c, 1, 64, 45
4, 140460, Note_on_c, 1, 64, 0
4, 140460, Note_on_c, 1, 61, 0
4, 140460, Note_on_c, 1, 56, 35
4, 140460, Note_on_c, 1, 61, 35
4, 140512, Note_on_c, 1, 61, 0
4, 140512, Note_on_c, 1, 56, 0
4, 140520, Note_on_c, 1, 51, 63
4, 140535, Note_on_c, 1, 51, 0
4, 140580, Note_on_c, 1, 59, 45
4, 140580, Note_on_c, 1, 63, 45
4, 140595, Note_on_c, 1, 63, 0
4, 140595, Note_on_c, 1, 59, 0
4, 140640, Note_on_c, 1, 59, 45
4, 140640, Note_on_c, 1, 63, 45
4, 140700, Note_on_c, 1, 63, 0
4, 140700, Note_on_c, 1, 59, 0
4, 140700, Note_on_c, 1, 56, 35
4, 140700, Note_on_c, 1, 59, 35
4, 140752, Note_on_c, 1, 59, 0
4, 140752, Note_on_c, 1, 56, 0
4, 140760, Note_on_c, 1, 49, 63
4, 140775, Note_on_c, 1, 49, 0
4, 140820, Note_on_c, 1, 58, 45
4, 140820, Note_on_c, 1, 63, 45
4, 140835, Note_on_c, 1, 63, 0
4, 140835, Note_on_c, 1, 58, 0
4, 140880, Note_on_c, 1, 58, 45
4, 140880, Note_on_c, 1, 63, 45
4, 140940, Note_on_c, 1, 63, 0
4, 140940, Note_on_c, 1, 58, 0
4, 140940, Note_on_c, 1, 55, 35
4, 140940, Note_on_c, 1, 58, 35
4, 140992, Note_on_c, 1, 58, 0
4, 140992, Note_on_c, 1, 55, 0
4, 141000, Note_on_c, 1, 47, 63
4, 141015, Note_on_c, 1, 47, 0
4, 141060, Note_on_c, 1, 63, 45
4, 141060, Note_on_c, 1, 68, 45
4, 141075, Note_on_c, 1, 68, 0
4, 141075, Note_on_c, 1, 63, 0
4, 141120, Note_on_c, 1, 63, 45
4, 141120, Note_on_c, 1, 68, 45
4, 141180, Note_on_c, 1, 68, 0
4, 141180, Note_on_c, 1, 63, 0
4, 141180, Note_on_c, 1, 59, 35
4, 141180, Note_on_c, 1, 63, 35
4, 141232, Note_on_c, 1, 63, 0
4, 141232, Note_on_c, 1, 59, 0
4, 141240, Note_on_c, 1, 49, 63
4, 141255, Note_on_c, 1, 49, 0
4, 141300, Note_on_c, 1, 64, 45
4, 141300, Note_on_c, 1, 69, 45
4, 141315, Note_on_c, 1, 69, 0
4, 141315, Note_on_c, 1, 64, 0
4, 141360, Note_on_c, 1, 64, 45
4, 141360, Note_on_c, 1, 69, 45
4, 141420, Note_on_c, 1, 69, 0
4, 141420, Note_on_c, 1, 64, 0
4, 141420, Note_on_c, 1, 61, 35
4, 141420, Note_on_c, 1, 64, 35
4, 141472, Note_on_c, 1, 64, 0
4, 141472, Note_on_c, 1, 61, 0
4, 141480, Note_on_c, 1, 51, 63
4, 141495, Note_on_c, 1, 51, 0
4, 141540, Note_on_c, 1, 63, 45
4, 141540, Note_on_c, 1, 68, 45
4, 141555, Note_on_c, 1, 68, 0
4, 141555, Note_on_c, 1, 63, 0
4, 141600, Note_on_c, 1, 63, 45
4, 141600, Note_on_c, 1, 68, 45
4, 141660, Note_on_c, 1, 68, 0
4, 141660, Note_on_c, 1, 63, 0
4, 141660, Note_on_c, 1, 59, 35
4, 141660, Note_on_c, 1, 63, 35
4, 141712, Note_on_c, 1, 63, 0
4, 141712, Note_on_c, 1, 59, 0
4, 141720, Note_on_c, 1, 51, 63
4, 141735, Note_on_c, 1, 51, 0
4, 141780, Note_on_c, 1, 61, 45
4, 141780, Note_on_c, 1, 67, 45
4, 141795, Note_on_c, 1, 67, 0
4, 141795, Note_on_c, 1, 61, 0
4, 141840, Note_on_c, 1, 61, 45
4, 141840, Note_on_c, 1, 67, 45
4, 141900, Note_on_c, 1, 67, 0
4, 141900, Note_on_c, 1, 61, 0
4, 141900, Note_on_c, 1, 58, 35
4, 141900, Note_on_c, 1, 61, 35
4, 141952, Note_on_c, 1, 61, 0
4, 141952, Note_on_c, 1, 58, 0
4, 141960, Control_c, 1, 64, 127
4, 141960, Note_on_c, 1, 44, 45
4, 141990, Note_on_c, 1, 44, 0
4, 141990, Note_on_c, 1, 56, 45
4, 142020, Note_on_c, 1, 56, 0
4, 142020, Note_on_c, 1, 51, 45
4, 142050, Note_on_c, 1, 51, 0
4, 142050, Note_on_c, 1, 56, 45
4, 142080, Note_on_c, 1, 56, 0
4, 142080, Note_on_c, 1, 44, 45
4, 142110, Note_on_c, 1, 44, 0
4, 142110, Note_on_c, 1, 56, 45
4, 142140, Note_on_c, 1, 56, 0
4, 142140, Note_on_c, 1, 51, 45
4, 142170, Note_on_c, 1, 51, 0
4, 142170, Note_on_c, 1, 56, 45
4, 142200, Note_on_c, 1, 56, 0
4, 142200, Note_on_c, 1, 44, 45
4, 142230, Note_on_c, 1, 44, 0
4, 142230, Note_on_c, 1, 56, 45
4, 142260, Note_on_c, 1, 56, 0
4, 142260, Note_on_c, 1, 51, 45
4, 142290, Note_on_c, 1, 51, 0
4, 142290, Note_on_c, 1, 56, 45
4, 142319, Note_on_c, 1, 56, 0
4, 142320, Control_c, 1, 64, 0
4, 142320, Note_on_c, 1, 44, 45
4, 142350, Note_on_c, 1, 44, 0
4, 142350, Note_on_c, 1, 56, 45
4, 142380, Note_on_c, 1, 56, 0
4, 142380, Note_on_c, 1, 51, 45
4, 142410, Note_on_c, 1, 51, 0
4, 142410, Note_on_c, 1, 56, 45
4, 142439, Note_on_c, 1, 56, 0
4, 142440, Note_on_c, 1, 44, 45
4, 142470, Note_on_c, 1, 44, 0
4, 142470, Note_on_c, 1, 58, 45
4, 142500, Note_on_c, 1, 58, 0
4, 142500, Note_on_c, 1, 51, 45
4, 142530, Note_on_c, 1, 51, 0
4, 142530, Note_on_c, 1, 58, 45
4, 142559, Note_on_c, 1, 58, 0
4, 142560, Control_c, 1, 64, 127
4, 142560, Note_on_c, 1, 44, 45
4, 142590, Note_on_c, 1, 44, 0
4, 142590, Note_on_c, 1, 58, 45
4, 142620, Note_on_c, 1, 58, 0
4, 142620, Note_on_c, 1, 51, 45
4, 142650, Note_on_c, 1, 51, 0
4, 142650, Note_on_c, 1, 58, 45
4, 142680, Note_on_c, 1, 58, 0
4, 142680, Note_on_c, 1, 44, 45
4, 142710, Note_on_c, 1, 44, 0
4, 142710, Note_on_c, 1, 58, 45
4, 142740, Note_on_c, 1, 58, 0
4, 142740, Note_on_c, 1, 51, 45
4, 142770, Note_on_c, 1, 51, 0
4, 142770, Note_on_c, 1, 58, 45
4, 142800, Note_on_c, 1, 58, 0
4, 142800, Note_on_c, 1, 44, 45
4, 142830, Note_on_c, 1, 44, 0
4, 142830, Note_on_c, 1, 58, 45
4, 142860, Note_on_c, 1, 58, 0
4, 142860, Note_on_c, 1, 51, 45
4, 142890, Note_on_c, 1, 51, 0
4, 142890, Note_on_c, 1, 58, 45
4, 142912, Note_on_c, 1, 58, 0
4, 142920, Control_c, 1, 64, 0
4, 142920, Control_c, 1, 64, 127
4, 142920, Note_on_c, 1, 44, 45
4, 142950, Note_on_c, 1, 44, 0
4, 142950, Note_on_c, 1, 56, 45
4, 142980, Note_on_c, 1, 56, 0
4, 142980, Note_on_c, 1, 51, 45
4, 143010, Note_on_c, 1, 51, 0
4, 143010, Note_on_c, 1, 56, 45
4, 143040, Note_on_c, 1, 56, 0
4, 143040, Note_on_c, 1, 44, 45
4, 143070, Note_on_c, 1, 44, 0
4, 143070, Note_on_c, 1, 56, 45
4, 143100, Note_on_c, 1, 56, 0
4, 143100, Note_on_c, 1, 51, 45
4, 143130, Note_on_c, 1, 51, 0
4, 143130, Note_on_c, 1, 56, 45
4, 143160, Note_on_c, 1, 56, 0
4, 143160, Note_on_c, 1, 44, 45
4, 143190, Note_on_c, 1, 44, 0
4, 143190, Note_on_c, 1, 56, 45
4, 143220, Note_on_c, 1, 56, 0
4, 143220, Note_on_c, 1, 51, 45
4, 143250, Note_on_c, 1, 51, 0
4, 143250, Note_on_c, 1, 56, 45
4, 143280, Note_on_c, 1, 56, 0
4, 143280, Note_on_c, 1, 44, 45
4, 143310, Note_on_c, 1, 44, 0
4, 143310, Note_on_c, 1, 56, 45
4, 143340, Note_on_c, 1, 56, 0
4, 143340, Note_on_c, 1, 51, 45
4, 143370, Note_on_c, 1, 51, 0
4, 143370, Note_on_c, 1, 56, 45
4, 143392, Note_on_c, 1, 56, 0
4, 143400, Control_c, 1, 64, 0
4, 143400, Note_on_c, 1, 44, 45
4, 143415, Note_on_c, 1, 44, 0
4, 143430, Note_on_c, 1, 58, 45
4, 143445, Note_on_c, 1, 58, 0
4, 143460, Note_on_c, 1, 51, 45
4, 143475, Note_on_c, 1, 51, 0
4, 143490, Note_on_c, 1, 58, 45
4, 143505, Note_on_c, 1, 58, 0
4, 143520, Control_c, 1, 64, 127
4, 143520, Note_on_c, 1, 44, 45
4, 143535, Note_on_c, 1, 44, 0
4, 143550, Note_on_c, 1, 58, 45
4, 143565, Note_on_c, 1, 58, 0
4, 143580, Note_on_c, 1, 51, 45
4, 143595, Note_on_c, 1, 51, 0
4, 143610, Note_on_c, 1, 58, 45
4, 143625, Note_on_c, 1, 58, 0
4, 143640, Note_on_c, 1, 44, 45
4, 143655, Note_on_c, 1, 44, 0
4, 143670, Note_on_c, 1, 58, 45
4, 143685, Note_on_c, 1, 58, 0
4, 143700, Note_on_c, 1, 51, 45
4, 143715, Note_on_c, 1, 51, 0
4, 143730, Note_on_c, 1, 58, 45
4, 143745, Note_on_c, 1, 58, 0
4, 143760, Note_on_c, 1, 44, 45
4, 143775, Note_on_c, 1, 44, 0
4, 143790, Note_on_c, 1, 58, 45
4, 143805, Note_on_c, 1, 58, 0
4, 143820, Note_on_c, 1, 51, 45
4, 143835, Note_on_c, 1, 51, 0
4, 143850, Note_on_c, 1, 58, 45
4, 143865, Note_on_c, 1, 58, 0
4, 143880, Control_c, 1, 64, 0
4, 143880, Control_c, 1, 64, 127
4, 143880, Note_on_c, 1, 44, 45
4, 143910, Note_on_c, 1, 44, 0
4, 143910, Note_on_c, 1, 56, 45
4, 143940, Note_on_c, 1, 56, 0
4, 143940, Note_on_c, 1, 51, 45
4, 143970, Note_on_c, 1, 51, 0
4, 143970, Note_on_c, 1, 56, 45
4, 144000, Note_on_c, 1, 56, 0
4, 144000, Note_on_c, 1, 44, 45
4, 144030, Note_on_c, 1, 44, 0
4, 144030, Note_on_c, 1, 56, 45
4, 144060, Note_on_c, 1, 56, 0
4, 144060, Note_on_c, 1, 51, 45
4, 144090, Note_on_c, 1, 51, 0
4, 144090, Note_on_c, 1, 56, 45
4, 144105, Note_on_c, 1, 56, 0
4, 144120, Control_c, 1, 64, 0
4, 144120, Control_c, 1, 64, 127
4, 144120, Note_on_c, 1, 44, 45
4, 144150, Note_on_c, 1, 44, 0
4, 144150, Note_on_c, 1, 58, 45
4, 144180, Note_on_c, 1, 58, 0
4, 144180, Note_on_c, 1, 51, 45
4, 144210, Note_on_c, 1, 51, 0
4, 144210, Note_on_c, 1, 58, 45
4, 144240, Note_on_c, 1, 58, 0
4, 144240, Note_on_c, 1, 44, 45
4, 144270, Note_on_c, 1, 44, 0
4, 144270, Note_on_c, 1, 58, 45
4, 144300, Note_on_c, 1, 58, 0
4, 144300, Note_on_c, 1, 51, 45
4, 144330, Note_on_c, 1, 51, 0
4, 144330, Note_on_c, 1, 58, 45
4, 144345, Note_on_c, 1, 58, 0
4, 144360, Control_c, 1, 64, 0
4, 144360, Control_c, 1, 64, 127
4, 144360, Note_on_c, 1, 44, 45
4, 144390, Note_on_c, 1, 44, 0
4, 144390, Note_on_c, 1, 56, 45
4, 144420, Note_on_c, 1, 56, 0
4, 144420, Note_on_c, 1, 51, 45
4, 144450, Note_on_c, 1, 51, 0
4, 144450, Note_on_c, 1, 56, 45
4, 144480, Note_on_c, 1, 56, 0
4, 144480, Note_on_c, 1, 44, 45
4, 144510, Note_on_c, 1, 44, 0
4, 144510, Note_on_c, 1, 56, 45
4, 144540, Note_on_c, 1, 56, 0
4, 144540, Note_on_c, 1, 51, 45
4, 144570, Note_on_c, 1, 51, 0
4, 144570, Note_on_c, 1, 56, 45
4, 144585, Note_on_c, 1, 56, 0
4, 144600, Control_c, 1, 64, 0
4, 144600, Control_c, 1, 64, 127
4, 144600, Note_on_c, 1, 44, 45
4, 144630, Note_on_c, 1, 44, 0
4, 144630, Note_on_c, 1, 58, 45
4, 144660, Note_on_c, 1, 58, 0
4, 144660, Note_on_c, 1, 51, 45
4, 144690, Note_on_c, 1, 51, 0
4, 144690, Note_on_c, 1, 58, 45
4, 144720, Note_on_c, 1, 58, 0
4, 144720, Note_on_c, 1, 44, 45
4, 144750, Note_on_c, 1, 44, 0
4, 144750, Note_on_c, 1, 58, 45
4, 144780, Note_on_c, 1, 58, 0
4, 144780, Note_on_c, 1, 51, 45
4, 144810, Note_on_c, 1, 51, 0
4, 144810, Note_on_c, 1, 58, 45
4, 144825, Note_on_c, 1, 58, 0
4, 144840, Control_c, 1, 64, 0
4, 144840, Note_on_c, 1, 44, 63
4, 144855, Note_on_c, 1, 44, 0
4, 144870, Note_on_c, 1, 56, 45
4, 144885, Note_on_c, 1, 56, 0
4, 144900, Note_on_c, 1, 51, 45
4, 144915, Note_on_c, 1, 51, 0
4, 144930, Note_on_c, 1, 56, 45
4, 144945, Note_on_c, 1, 56, 0
4, 144960, Note_on_c, 1, 44, 46
4, 144975, Note_on_c, 1, 44, 0
4, 144990, Note_on_c, 1, 56, 47
4, 145005, Note_on_c, 1, 56, 0
4, 145020, Note_on_c, 1, 51, 49
4, 145035, Note_on_c, 1, 51, 0
4, 145050, Note_on_c, 1, 56, 50
4, 145065, Note_on_c, 1, 56, 0
4, 145080, Note_on_c, 1, 44, 52
4, 145095, Note_on_c, 1, 44, 0
4, 145110, Note_on_c, 1, 56, 53
4, 145125, Note_on_c, 1, 56, 0
4, 145140, Note_on_c, 1, 51, 55
4, 145155, Note_on_c, 1, 51, 0
4, 145170, Note_on_c, 1, 56, 56
4, 145185, Note_on_c, 1, 56, 0
4, 145200, Note_on_c, 1, 44, 58
4, 145215, Note_on_c, 1, 44, 0
4, 145230, Note_on_c, 1, 56, 59
4, 145245, Note_on_c, 1, 56, 0
4, 145260, Note_on_c, 1, 51, 61
4, 145275, Note_on_c, 1, 51, 0
4, 145290, Note_on_c, 1, 56, 62
4, 145305, Note_on_c, 1, 56, 0
4, 145320, Control_c, 1, 64, 127
4, 145320, Note_on_c, 1, 44, 64
4, 145335, Note_on_c, 1, 44, 0
4, 145350, Note_on_c, 1, 54, 65
4, 145365, Note_on_c, 1, 54, 0
4, 145380, Note_on_c, 1, 51, 67
4, 145395, Note_on_c, 1, 51, 0
4, 145410, Note_on_c, 1, 54, 68
4, 145425, Note_on_c, 1, 54, 0
4, 145440, Note_on_c, 1, 44, 70
4, 145455, Note_on_c, 1, 44, 0
4, 145470, Note_on_c, 1, 54, 71
4, 145485, Note_on_c, 1, 54, 0
4, 145500, Note_on_c, 1, 51, 73
4, 145515, Note_on_c, 1, 51, 0
4, 145530, Note_on_c, 1, 54, 74
4, 145545, Note_on_c, 1, 54, 0
4, 145560, Note_on_c, 1, 44, 76
4, 145575, Note_on_c, 1, 44, 0
4, 145590, Note_on_c, 1, 54, 77
4, 145605, Note_on_c, 1, 54, 0
4, 145620, Note_on_c, 1, 51, 79
4, 145635, Note_on_c, 1, 51, 0
4, 145650, Note_on_c, 1, 54, 80
4, 145665, Note_on_c, 1, 54, 0
4, 145680, Note_on_c, 1, 44, 81
4, 145695, Note_on_c, 1, 44, 0
4, 145710, Note_on_c, 1, 54, 82
4, 145725, Note_on_c, 1, 54, 0
4, 145740, Note_on_c, 1, 51, 83
4, 145755, Note_on_c, 1, 51, 0
4, 145770, Note_on_c, 1, 54, 84
4, 145785, Note_on_c, 1, 54, 0
4, 145800, Control_c, 1, 64, 0
4, 145800, Note_on_c, 1, 37, 85
4, 145820, Note_on_c, 1, 37, 0
4, 145860, Note_on_c, 1, 44, 45
4, 145880, Note_on_c, 1, 44, 0
4, 145920, Note_on_c, 1, 37, 45
4, 145940, Note_on_c, 1, 37, 0
4, 145980, Note_on_c, 1, 44, 45
4, 146000, Note_on_c, 1, 44, 0
4, 146040, Note_on_c, 1, 37, 45
4, 146060, Note_on_c, 1, 37, 0
4, 146100, Note_on_c, 1, 44, 45
4, 146120, Note_on_c, 1, 44, 0
4, 146160, Note_on_c, 1, 37, 45
4, 146180, Note_on_c, 1, 37, 0
4, 146220, Note_on_c, 1, 44, 45
4, 146240, Note_on_c, 1, 44, 0
4, 146280, Note_on_c, 1, 37, 63
4, 146300, Note_on_c, 1, 37, 0
4, 146340, Note_on_c, 1, 44, 45
4, 146360, Note_on_c, 1, 44, 0
4, 146400, Note_on_c, 1, 37, 45
4, 146420, Note_on_c, 1, 37, 0
4, 146460, Note_on_c, 1, 44, 45
4, 146480, Note_on_c, 1, 44, 0
4, 146520, Note_on_c, 1, 37, 45
4, 146540, Note_on_c, 1, 37, 0
4, 146580, Note_on_c, 1, 44, 45
4, 146600, Note_on_c, 1, 44, 0
4, 146640, Control_c, 1, 64, 127
4, 146640, Note_on_c, 1, 37, 45
4, 146640, Note_on_c, 1, 49, 45
4, 146660, Note_on_c, 1, 49, 0
4, 146660, Note_on_c, 1, 37, 0
4, 146700, Note_on_c, 1, 44, 45
4, 146720, Note_on_c, 1, 44, 0
4, 146760, Control_c, 1, 64, 0
4, 146760, Note_on_c, 1, 35, 63
4, 146780, Note_on_c, 1, 35, 0
4, 146820, Note_on_c, 1, 44, 45
4, 146840, Note_on_c, 1, 44, 0
4, 146880, Note_on_c, 1, 35, 45
4, 146900, Note_on_c, 1, 35, 0
4, 146940, Note_on_c, 1, 44, 45
4, 146960, Note_on_c, 1, 44, 0
4, 147000, Note_on_c, 1, 35, 45
4, 147020, Note_on_c, 1, 35, 0
4, 147060, Note_on_c, 1, 44, 45
4, 147080, Note_on_c, 1, 44, 0
4, 147120, Note_on_c, 1, 35, 45
4, 147140, Note_on_c, 1, 35, 0
4, 147180, Note_on_c, 1, 44, 45
4, 147200, Note_on_c, 1, 44, 0
4, 147240, Note_on_c, 1, 35, 63
4, 147260, Note_on_c, 1, 35, 0
4, 147300, Note_on_c, 1, 44, 45
4, 147320, Note_on_c, 1, 44, 0
4, 147360, Note_on_c, 1, 35, 45
4, 147380, Note_on_c, 1, 35, 0
4, 147420, Note_on_c, 1, 44, 45
4, 147440, Note_on_c, 1, 44, 0
4, 147480, Note_on_c, 1, 35, 45
4, 147500, Note_on_c, 1, 35, 0
4, 147540, Note_on_c, 1, 44, 45
4, 147560, Note_on_c, 1, 44, 0
4, 147600, Control_c, 1, 64, 127
4, 147600, Note_on_c, 1, 35, 63
4, 147600, Note_on_c, 1, 47, 63
4, 147620, Note_on_c, 1, 47, 0
4, 147620, Note_on_c, 1, 35, 0
4, 147660, Note_on_c, 1, 44, 45
4, 147680, Note_on_c, 1, 44, 0
4, 147720, Control_c, 1, 64, 0
4, 147720, Note_on_c, 1, 33, 63
4, 147740, Note_on_c, 1, 33, 0
4, 147780, Note_on_c, 1, 45, 45
4, 147800, Note_on_c, 1, 45, 0
4, 147840, Note_on_c, 1, 33, 45
4, 147860, Note_on_c, 1, 33, 0
4, 147900, Note_on_c, 1, 45, 45
4, 147920, Note_on_c, 1, 45, 0
4, 147960, Note_on_c, 1, 33, 45
4, 147980, Note_on_c, 1, 33, 0
4, 148020, Note_on_c, 1, 45, 45
4, 148040, Note_on_c, 1, 45, 0
4, 148080, Control_c, 1, 64, 127
4, 148080, Note_on_c, 1, 33, 45
4, 148100, Note_on_c, 1, 33, 0
4, 148140, Note_on_c, 1, 45, 45
4, 148160, Note_on_c, 1, 45, 0
4, 148200, Control_c, 1, 64, 0
4, 148200, Note_on_c, 1, 29, 63
4, 148220, Note_on_c, 1, 29, 0
4, 148260, Note_on_c, 1, 41, 45
4, 148280, Note_on_c, 1, 41, 0
4, 148320, Note_on_c, 1, 29, 45
4, 148340, Note_on_c, 1, 29, 0
4, 148380, Note_on_c, 1, 41, 45
4, 148400, Note_on_c, 1, 41, 0
4, 148440, Note_on_c, 1, 29, 45
4, 148460, Note_on_c, 1, 29, 0
4, 148500, Note_on_c, 1, 41, 45
4, 148520, Note_on_c, 1, 41, 0
4, 148560, Control_c, 1, 64, 127
4, 148560, Note_on_c, 1, 29, 45
4, 148580, Note_on_c, 1, 29, 0
4, 148620, Note_on_c, 1, 41, 45
4, 148640, Note_on_c, 1, 41, 0
4, 148680, Control_c, 1, 64, 0
4, 148680, Note_on_c, 1, 30, 45
4, 148680, Note_on_c, 1, 42, 45
4, 148695, Note_on_c, 1, 42, 0
4, 148695, Note_on_c, 1, 30, 0
4, 148710, Note_on_c, 1, 61, 45
4, 148725, Note_on_c, 1, 61, 0
4, 148740, Note_on_c, 1, 57, 45
4, 148755, Note_on_c, 1, 57, 0
4, 148770, Note_on_c, 1, 61, 45
4, 148785, Note_on_c, 1, 61, 0
4, 148800, Note_on_c, 1, 54, 45
4, 148815, Note_on_c, 1, 54, 0
4, 148830, Note_on_c, 1, 61, 45
4, 148845, Note_on_c, 1, 61, 0
4, 148860, Note_on_c, 1, 57, 45
4, 148875, Note_on_c, 1, 57, 0
4, 148890, Note_on_c, 1, 61, 45
4, 148905, Note_on_c, 1, 61, 0
4, 148920, Note_on_c, 1, 54, 45
4, 148935, Note_on_c, 1, 54, 0
4, 148950, Note_on_c, 1, 61, 45
4, 148965, Note_on_c, 1, 61, 0
4, 148980, Note_on_c, 1, 57, 45
4, 148995, Note_on_c, 1, 57, 0
4, 149010, Note_on_c, 1, 61, 45
4, 149025, Note_on_c, 1, 61, 0
4, 149040, Note_on_c, 1, 54, 45
4, 149055, Note_on_c, 1, 54, 0
4, 149070, Note_on_c, 1, 61, 45
4, 149085, Note_on_c, 1, 61, 0
4, 149100, Note_on_c, 1, 57, 45
4, 149115, Note_on_c, 1, 57, 0
4, 149130, Note_on_c, 1, 61, 45
4, 149145, Note_on_c, 1, 61, 0
4, 149160, Note_on_c, 1, 56, 45
4, 149175, Note_on_c, 1, 56, 0
4, 149190, Note_on_c, 1, 61, 45
4, 149205, Note_on_c, 1, 61, 0
4, 149220, Note_on_c, 1, 59, 45
4, 149235, Note_on_c, 1, 59, 0
4, 149250, Note_on_c, 1, 61, 45
4, 149265, Note_on_c, 1, 61, 0
4, 149280, Note_on_c, 1, 56, 45
4, 149295, Note_on_c, 1, 56, 0
4, 149310, Note_on_c, 1, 61, 45
4, 149325, Note_on_c, 1, 61, 0
4, 149340, Note_on_c, 1, 59, 45
4, 149355, Note_on_c, 1, 59, 0
4, 149370, Note_on_c, 1, 61, 45
4, 149385, Note_on_c, 1, 61, 0
4, 149400, Note_on_c, 1, 56, 45
4, 149415, Note_on_c, 1, 56, 0
4, 149430, Note_on_c, 1, 61, 45
4, 149445, Note_on_c, 1, 61, 0
4, 149460, Note_on_c, 1, 59, 45
4, 149475, Note_on_c, 1, 59, 0
4, 149490, Note_on_c, 1, 61, 45
4, 149505, Note_on_c, 1, 61, 0
4, 149520, Note_on_c, 1, 56, 45
4, 149535, Note_on_c, 1, 56, 0
4, 149550, Note_on_c, 1, 61, 45
4, 149565, Note_on_c, 1, 61, 0
4, 149580, Note_on_c, 1, 59, 45
4, 149595, Note_on_c, 1, 59, 0
4, 149610, Note_on_c, 1, 61, 45
4, 149625, Note_on_c, 1, 61, 0
4, 149640, Note_on_c, 1, 57, 45
4, 149655, Note_on_c, 1, 57, 0
4, 149670, Note_on_c, 1, 61, 45
4, 149685, Note_on_c, 1, 61, 0
4, 149700, Note_on_c, 1, 57, 45
4, 149715, Note_on_c, 1, 57, 0
4, 149730, Note_on_c, 1, 61, 45
4, 149745, Note_on_c, 1, 61, 0
4, 149760, Note_on_c, 1, 57, 45
4, 149775, Note_on_c, 1, 57, 0
4, 149790, Note_on_c, 1, 61, 45
4, 149805, Note_on_c, 1, 61, 0
4, 149820, Note_on_c, 1, 57, 45
4, 149835, Note_on_c, 1, 57, 0
4, 149850, Note_on_c, 1, 61, 45
4, 149865, Note_on_c, 1, 61, 0
4, 149880, Note_on_c, 1, 57, 45
4, 149895, Note_on_c, 1, 57, 0
4, 149910, Note_on_c, 1, 61, 45
4, 149925, Note_on_c, 1, 61, 0
4, 149940, Note_on_c, 1, 57, 45
4, 149955, Note_on_c, 1, 57, 0
4, 149970, Note_on_c, 1, 61, 45
4, 149985, Note_on_c, 1, 61, 0
4, 150000, Note_on_c, 1, 57, 45
4, 150015, Note_on_c, 1, 57, 0
4, 150030, Note_on_c, 1, 61, 45
4, 150045, Note_on_c, 1, 61, 0
4, 150060, Note_on_c, 1, 57, 45
4, 150075, Note_on_c, 1, 57, 0
4, 150090, Note_on_c, 1, 61, 45
4, 150105, Note_on_c, 1, 61, 0
4, 150120, Note_on_c, 1, 53, 45
4, 150135, Note_on_c, 1, 53, 0
4, 150150, Note_on_c, 1, 61, 45
4, 150165, Note_on_c, 1, 61, 0
4, 150180, Note_on_c, 1, 53, 45
4, 150195, Note_on_c, 1, 53, 0
4, 150210, Note_on_c, 1, 61, 45
4, 150225, Note_on_c, 1, 61, 0
4, 150240, Note_on_c, 1, 53, 45
4, 150255, Note_on_c, 1, 53, 0
4, 150270, Note_on_c, 1, 61, 45
4, 150285, Note_on_c, 1, 61, 0
4, 150300, Note_on_c, 1, 53, 45
4, 150315, Note_on_c, 1, 53, 0
4, 150330, Note_on_c, 1, 61, 45
4, 150345, Note_on_c, 1, 61, 0
4, 150360, Note_on_c, 1, 53, 45
4, 150375, Note_on_c, 1, 53, 0
4, 150390, Note_on_c, 1, 61, 45
4, 150405, Note_on_c, 1, 61, 0
4, 150420, Note_on_c, 1, 53, 45
4, 150435, Note_on_c, 1, 53, 0
4, 150450, Note_on_c, 1, 61, 45
4, 150465, Note_on_c, 1, 61, 0
4, 150480, Note_on_c, 1, 53, 45
4, 150495, Note_on_c, 1, 53, 0
4, 150510, Note_on_c, 1, 61, 45
4, 150525, Note_on_c, 1, 61, 0
4, 150540, Note_on_c, 1, 53, 45
4, 150555, Note_on_c, 1, 53, 0
4, 150570, Note_on_c, 1, 61, 45
4, 150585, Note_on_c, 1, 61, 0
4, 150600, Note_on_c, 1, 54, 45
4, 150630, Note_on_c, 1, 54, 0
4, 150720, Note_on_c, 1, 61, 65
4, 150960, Note_on_c, 1, 61, 0
4, 150960, Note_on_c, 1, 57, 65
4, 151050, Note_on_c, 1, 57, 0
4, 151050, Note_on_c, 1, 54, 65
4, 151072, Note_on_c, 1, 54, 0
4, 151080, Note_on_c, 1, 54, 75
4, 151200, Note_on_c, 1, 54, 0
4, 151200, Note_on_c, 1, 53, 65
4, 151350, Note_on_c, 1, 53, 0
4, 151380, Note_on_c, 1, 53, 65
4, 151440, Note_on_c, 1, 53, 0
4, 151440, Note_on_c, 1, 61, 75
4, 151530, Note_on_c, 1, 61, 0
4, 151530, Note_on_c, 1, 53, 65
4, 151552, Note_on_c, 1, 53, 0
4, 151560, Note_on_c, 1, 56, 75
4, 151680, Note_on_c, 1, 56, 0
4, 151680, Note_on_c, 1, 54, 75
4, 151830, Note_on_c, 1, 54, 0
4, 151860, Note_on_c, 1, 54, 75
4, 151920, Note_on_c, 1, 54, 0
4, 151920, Note_on_c, 1, 61, 75
4, 152010, Note_on_c, 1, 61, 0
4, 152010, Note_on_c, 1, 54, 65
4, 152032, Note_on_c, 1, 54, 0
4, 152040, Note_on_c, 1, 54, 65
4, 152055, Note_on_c, 1, 54, 0
4, 152100, Note_on_c, 1, 54, 67
4, 152160, Note_on_c, 1, 54, 0
4, 152160, Note_on_c, 1, 62, 69
4, 152250, Note_on_c, 1, 62, 0
4, 152250, Note_on_c, 1, 54, 71
4, 152272, Note_on_c, 1, 54, 0
4, 152280, Note_on_c, 1, 54, 73
4, 152295, Note_on_c, 1, 54, 0
4, 152340, Note_on_c, 1, 54, 75
4, 152400, Note_on_c, 1, 54, 0
4, 152400, Note_on_c, 1, 62, 78
4, 152490, Note_on_c, 1, 62, 0
4, 152490, Note_on_c, 1, 54, 82
4, 152512, Note_on_c, 1, 54, 0
4, 152520, Note_on_c, 1, 55, 85
4, 152550, Note_on_c, 1, 55, 0
4, 152640, Note_on_c, 1, 50, 45
4, 152880, Note_on_c, 1, 50, 0
4, 152880, Note_on_c, 1, 47, 45
4, 152970, Note_on_c, 1, 47, 0
4, 152970, Note_on_c, 1, 43, 45
4, 152992, Note_on_c, 1, 43, 0
4, 153000, Note_on_c, 1, 43, 63
4, 153120, Note_on_c, 1, 43, 0
4, 153120, Note_on_c, 1, 42, 45
4, 153270, Note_on_c, 1, 42, 0
4, 153300, Note_on_c, 1, 42, 45
4, 153360, Note_on_c, 1, 42, 0
4, 153360, Note_on_c, 1, 50, 63
4, 153450, Note_on_c, 1, 50, 0
4, 153450, Note_on_c, 1, 42, 45
4, 153472, Note_on_c, 1, 42, 0
4, 153480, Note_on_c, 1, 45, 60
4, 153600, Note_on_c, 1, 45, 0
4, 153600, Note_on_c, 1, 43, 45
4, 153750, Note_on_c, 1, 43, 0
4, 153780, Note_on_c, 1, 43, 48
4, 153840, Note_on_c, 1, 43, 0
4, 153840, Note_on_c, 1, 50, 60
4, 153930, Note_on_c, 1, 50, 0
4, 153930, Note_on_c, 1, 42, 50
4, 153952, Note_on_c, 1, 42, 0
4, 153960, Note_on_c, 1, 42, 60
4, 154080, Note_on_c, 1, 42, 0
4, 154080, Note_on_c, 1, 41, 53
4, 154230, Note_on_c, 1, 41, 0
4, 154260, Note_on_c, 1, 41, 55
4, 154320, Note_on_c, 1, 41, 0
4, 154320, Note_on_c, 1, 49, 60
4, 154410, Note_on_c, 1, 49, 0
4, 154410, Note_on_c, 1, 41, 58
4, 154440, Note_on_c, 1, 41, 0
4, 154440, Note_on_c, 1, 42, 85
4, 154455, Note_on_c, 1, 42, 0
4, 154500, Note_on_c, 1, 42, 60
4, 154560, Note_on_c, 1, 42, 0
4, 154560, Note_on_c, 1, 45, 63
4, 154620, Note_on_c, 1, 45, 0
4, 154620, Note_on_c, 1, 42, 65
4, 154680, Note_on_c, 1, 42, 0
4, 154680, Note_on_c, 1, 38, 85
4, 154695, Note_on_c, 1, 38, 0
4, 154740, Note_on_c, 1, 38, 68
4, 154800, Note_on_c, 1, 38, 0
4, 154800, Note_on_c, 1, 42, 73
4, 154860, Note_on_c, 1, 42, 0
4, 154860, Note_on_c, 1, 38, 75
4, 154905, Note_on_c, 1, 38, 0
4, 154920, Control_c, 1, 64, 127
4, 154920, Note_on_c, 1, 36, 85
4, 155190, Note_on_c, 1, 36, 0
4, 155220, Note_on_c, 1, 36, 78
4, 155280, Note_on_c, 1, 36, 0
4, 155280, Note_on_c, 1, 39, 78
4, 155340, Note_on_c, 1, 39, 0
4, 155340, Note_on_c, 1, 36, 78
4, 155400, Note_on_c, 1, 36, 0
4, 155400, Control_c, 1, 64, 0
4, 155400, Note_on_c, 1, 37, 85
4, 155415, Note_on_c, 1, 37, 0
4, 155460, Note_on_c, 1, 37, 70
4, 155520, Note_on_c, 1, 37, 0
4, 155520, Note_on_c, 1, 40, 70
4, 155580, Note_on_c, 1, 40, 0
4, 155580, Note_on_c, 1, 37, 70
4, 155640, Note_on_c, 1, 37, 0
4, 155640, Note_on_c, 1, 33, 85
4, 155655, Note_on_c, 1, 33, 0
4, 155700, Note_on_c, 1, 33, 70
4, 155760, Note_on_c, 1, 33, 0
4, 155760, Note_on_c, 1, 37, 70
4, 155820, Note_on_c, 1, 37, 0
4, 155820, Note_on_c, 1, 33, 70
4, 155880, Note_on_c, 1, 33, 0
4, 155880, Note_on_c, 1, 30, 85
4, 155895, Note_on_c, 1, 30, 0
4, 155940, Note_on_c, 1, 30, 70
4, 156000, Note_on_c, 1, 30, 0
4, 156000, Note_on_c, 1, 33, 70
4, 156060, Note_on_c, 1, 33, 0
4, 156060, Note_on_c, 1, 30, 85
4, 156120, Note_on_c, 1, 30, 0
4, 156120, Control_c, 1, 64, 0
4, 156120, Control_c, 1, 64, 127
4, 156120, Note_on_c, 1, 31, 70
4, 156135, Note_on_c, 1, 31, 0
4, 156180, Note_on_c, 1, 31, 70
4, 156240, Note_on_c, 1, 31, 0
4, 156240, Note_on_c, 1, 34, 70
4, 156300, Note_on_c, 1, 34, 0
4, 156300, Note_on_c, 1, 31, 85
4, 156345, Note_on_c, 1, 31, 0
4, 156360, Control_c, 1, 64, 0
4, 156360, Control_c, 1, 64, 127
4, 156360, Note_on_c, 1, 32, 70
4, 156375, Note_on_c, 1, 32, 0
4, 156390, Note_on_c, 1, 44, 45
4, 156405, Note_on_c, 1, 44, 0
4, 156420, Note_on_c, 1, 32, 45
4, 156435, Note_on_c, 1, 32, 0
4, 156450, Note_on_c, 1, 44, 45
4, 156465, Note_on_c, 1, 44, 0
4, 156480, Control_c, 1, 64, 0
4, 156480, Note_on_c, 1, 32, 40
4, 156495, Note_on_c, 1, 32, 0
4, 156510, Note_on_c, 1, 44, 40
4, 156525, Note_on_c, 1, 44, 0
4, 156540, Note_on_c, 1, 32, 40
4, 156555, Note_on_c, 1, 32, 0
4, 156570, Note_on_c, 1, 44, 40
4, 156585, Note_on_c, 1, 44, 0
4, 156600, Note_on_c, 1, 32, 40
4, 156615, Note_on_c, 1, 32, 0
4, 156630, Note_on_c, 1, 44, 40
4, 156645, Note_on_c, 1, 44, 0
4, 156660, Note_on_c, 1, 32, 40
4, 156675, Note_on_c, 1, 32, 0
4, 156690, Note_on_c, 1, 44, 40
4, 156705, Note_on_c, 1, 44, 0
4, 156720, Note_on_c, 1, 32, 40
4, 156735, Note_on_c, 1, 32, 0
4, 156750, Note_on_c, 1, 44, 40
4, 156765, Note_on_c, 1, 44, 0
4, 156780, Note_on_c, 1, 32, 40
4, 156795, Note_on_c, 1, 32, 0
4, 156810, Note_on_c, 1, 44, 40
4, 156825, Note_on_c, 1, 44, 0
4, 156840, Note_on_c, 1, 32, 40
4, 156855, Note_on_c, 1, 32, 0
4, 156870, Note_on_c, 1, 44, 40
4, 156885, Note_on_c, 1, 44, 0
4, 156900, Note_on_c, 1, 32, 40
4, 156915, Note_on_c, 1, 32, 0
4, 156930, Note_on_c, 1, 44, 40
4, 156945, Note_on_c, 1, 44, 0
4, 156960, Note_on_c, 1, 32, 40
4, 156975, Note_on_c, 1, 32, 0
4, 156990, Note_on_c, 1, 44, 40
4, 157005, Note_on_c, 1, 44, 0
4, 157020, Note_on_c, 1, 32, 40
4, 157035, Note_on_c, 1, 32, 0
4, 157050, Note_on_c, 1, 44, 40
4, 157065, Note_on_c, 1, 44, 0
4, 157080, Note_on_c, 1, 32, 40
4, 157095, Note_on_c, 1, 32, 0
4, 157110, Note_on_c, 1, 44, 40
4, 157125, Note_on_c, 1, 44, 0
4, 157140, Note_on_c, 1, 32, 40
4, 157155, Note_on_c, 1, 32, 0
4, 157170, Note_on_c, 1, 44, 40
4, 157185, Note_on_c, 1, 44, 0
4, 157200, Note_on_c, 1, 32, 40
4, 157215, Note_on_c, 1, 32, 0
4, 157230, Note_on_c, 1, 44, 40
4, 157245, Note_on_c, 1, 44, 0
4, 157260, Note_on_c, 1, 32, 40
4, 157275, Note_on_c, 1, 32, 0
4, 157290, Note_on_c, 1, 44, 40
4, 157305, Note_on_c, 1, 44, 0
4, 157320, Note_on_c, 1, 32, 42
4, 157335, Note_on_c, 1, 32, 0
4, 157350, Note_on_c, 1, 44, 44
4, 157365, Note_on_c, 1, 44, 0
4, 157380, Note_on_c, 1, 32, 46
4, 157395, Note_on_c, 1, 32, 0
4, 157410, Note_on_c, 1, 44, 48
4, 157425, Note_on_c, 1, 44, 0
4, 157440, Note_on_c, 1, 32, 50
4, 157455, Note_on_c, 1, 32, 0
4, 157470, Note_on_c, 1, 44, 52
4, 157485, Note_on_c, 1, 44, 0
4, 157500, Note_on_c, 1, 32, 54
4, 157515, Note_on_c, 1, 32, 0
4, 157530, Note_on_c, 1, 44, 56
4, 157545, Note_on_c, 1, 44, 0
4, 157560, Note_on_c, 1, 32, 58
4, 157575, Note_on_c, 1, 32, 0
4, 157590, Note_on_c, 1, 44, 60
4, 157605, Note_on_c, 1, 44, 0
4, 157620, Note_on_c, 1, 32, 62
4, 157635, Note_on_c, 1, 32, 0
4, 157650, Note_on_c, 1, 44, 64
4, 157665, Note_on_c, 1, 44, 0
4, 157680, Note_on_c, 1, 32, 66
4, 157695, Note_on_c, 1, 32, 0
4, 157710, Note_on_c, 1, 44, 68
4, 157725, Note_on_c, 1, 44, 0
4, 157740, Note_on_c, 1, 32, 70
4, 157755, Note_on_c, 1, 32, 0
4, 157770, Note_on_c, 1, 44, 72
4, 157785, Note_on_c, 1, 44, 0
4, 157800, Note_on_c, 1, 32, 72
4, 157815, Note_on_c, 1, 32, 0
4, 157830, Note_on_c, 1, 44, 70
4, 157845, Note_on_c, 1, 44, 0
4, 157860, Note_on_c, 1, 32, 68
4, 157875, Note_on_c, 1, 32, 0
4, 157890, Note_on_c, 1, 44, 66
4, 157905, Note_on_c, 1, 44, 0
4, 157920, Note_on_c, 1, 32, 64
4, 157935, Note_on_c, 1, 32, 0
4, 157950, Note_on_c, 1, 44, 62
4, 157965, Note_on_c, 1, 44, 0
4, 157980, Note_on_c, 1, 32, 60
4, 157995, Note_on_c, 1, 32, 0
4, 158010, Note_on_c, 1, 44, 58
4, 158025, Note_on_c, 1, 44, 0
4, 158040, Note_on_c, 1, 32, 56
4, 158055, Note_on_c, 1, 32, 0
4, 158070, Note_on_c, 1, 44, 54
4, 158085, Note_on_c, 1, 44, 0
4, 158100, Note_on_c, 1, 32, 50
4, 158115, Note_on_c, 1, 32, 0
4, 158130, Note_on_c, 1, 44, 48
4, 158145, Note_on_c, 1, 44, 0
4, 158160, Note_on_c, 1, 32, 46
4, 158175, Note_on_c, 1, 32, 0
4, 158190, Note_on_c, 1, 44, 44
4, 158205, Note_on_c, 1, 44, 0
4, 158220, Note_on_c, 1, 32, 42
4, 158235, Note_on_c, 1, 32, 0
4, 158250, Note_on_c, 1, 44, 40
4, 158265, Note_on_c, 1, 44, 0
4, 158280, Note_on_c, 1, 32, 45
4, 158295, Note_on_c, 1, 32, 0
4, 158310, Note_on_c, 1, 44, 45
4, 158325, Note_on_c, 1, 44, 0
4, 158340, Note_on_c, 1, 32, 45
4, 158355, Note_on_c, 1, 32, 0
4, 158370, Note_on_c, 1, 44, 45
4, 158385, Note_on_c, 1, 44, 0
4, 158400, Note_on_c, 1, 32, 46
4, 158415, Note_on_c, 1, 32, 0
4, 158430, Note_on_c, 1, 44, 47
4, 158445, Note_on_c, 1, 44, 0
4, 158460, Note_on_c, 1, 32, 48
4, 158475, Note_on_c, 1, 32, 0
4, 158490, Note_on_c, 1, 44, 49
4, 158505, Note_on_c, 1, 44, 0
4, 158520, Note_on_c, 1, 32, 50
4, 158535, Note_on_c, 1, 32, 0
4, 158550, Note_on_c, 1, 44, 51
4, 158565, Note_on_c, 1, 44, 0
4, 158580, Note_on_c, 1, 32, 52
4, 158595, Note_on_c, 1, 32, 0
4, 158610, Note_on_c, 1, 44, 53
4, 158625, Note_on_c, 1, 44, 0
4, 158640, Note_on_c, 1, 32, 54
4, 158655, Note_on_c, 1, 32, 0
4, 158670, Note_on_c, 1, 44, 55
4, 158685, Note_on_c, 1, 44, 0
4, 158700, Note_on_c, 1, 32, 56
4, 158715, Note_on_c, 1, 32, 0
4, 158730, Note_on_c, 1, 44, 57
4, 158745, Note_on_c, 1, 44, 0
4, 158760, Note_on_c, 1, 32, 58
4, 158775, Note_on_c, 1, 32, 0
4, 158790, Note_on_c, 1, 44, 59
4, 158805, Note_on_c, 1, 44, 0
4, 158820, Note_on_c, 1, 32, 60
4, 158835, Note_on_c, 1, 32, 0
4, 158850, Note_on_c, 1, 44, 61
4, 158865, Note_on_c, 1, 44, 0
4, 158880, Note_on_c, 1, 32, 62
4, 158895, Note_on_c, 1, 32, 0
4, 158910, Note_on_c, 1, 44, 63
4, 158925, Note_on_c, 1, 44, 0
4, 158940, Note_on_c, 1, 32, 64
4, 158955, Note_on_c, 1, 32, 0
4, 158970, Note_on_c, 1, 44, 65
4, 158985, Note_on_c, 1, 44, 0
4, 159000, Note_on_c, 1, 32, 66
4, 159015, Note_on_c, 1, 32, 0
4, 159030, Note_on_c, 1, 44, 67
4, 159045, Note_on_c, 1, 44, 0
4, 159060, Note_on_c, 1, 32, 68
4, 159075, Note_on_c, 1, 32, 0
4, 159090, Note_on_c, 1, 44, 69
4, 159105, Note_on_c, 1, 44, 0
4, 159120, Note_on_c, 1, 32, 70
4, 159135, Note_on_c, 1, 32, 0
4, 159150, Note_on_c, 1, 44, 71
4, 159165, Note_on_c, 1, 44, 0
4, 159180, Note_on_c, 1, 32, 72
4, 159195, Note_on_c, 1, 32, 0
4, 159210, Note_on_c, 1, 44, 73
4, 159225, Note_on_c, 1, 44, 0
4, 159240, Note_on_c, 1, 32, 71
4, 159255, Note_on_c, 1, 32, 0
4, 159270, Note_on_c, 1, 44, 69
4, 159285, Note_on_c, 1, 44, 0
4, 159300, Note_on_c, 1, 32, 67
4, 159315, Note_on_c, 1, 32, 0
4, 159330, Note_on_c, 1, 44, 65
4, 159345, Note_on_c, 1, 44, 0
4, 159360, Note_on_c, 1, 32, 63
4, 159375, Note_on_c, 1, 32, 0
4, 159390, Note_on_c, 1, 44, 61
4, 159405, Note_on_c, 1, 44, 0
4, 159420, Note_on_c, 1, 32, 59
4, 159435, Note_on_c, 1, 32, 0
4, 159450, Note_on_c, 1, 44, 57
4, 159465, Note_on_c, 1, 44, 0
4, 159480, Note_on_c, 1, 32, 55
4, 159495, Note_on_c, 1, 32, 0
4, 159510, Note_on_c, 1, 44, 53
4, 159525, Note_on_c, 1, 44, 0
4, 159540, Note_on_c, 1, 32, 51
4, 159555, Note_on_c, 1, 32, 0
4, 159570, Note_on_c, 1, 44, 50
4, 159585, Note_on_c, 1, 44, 0
4, 159600, Note_on_c, 1, 32, 48
4, 159615, Note_on_c, 1, 32, 0
4, 159630, Note_on_c, 1, 44, 46
4, 159645, Note_on_c, 1, 44, 0
4, 159660, Note_on_c, 1, 32, 44
4, 159675, Note_on_c, 1, 32, 0
4, 159690, Note_on_c, 1, 44, 42
4, 159705, Note_on_c, 1, 44, 0
4, 159720, Note_on_c, 1, 32, 40
4, 159735, Note_on_c, 1, 32, 0
4, 159750, Note_on_c, 1, 44, 42
4, 159765, Note_on_c, 1, 44, 0
4, 159780, Note_on_c, 1, 32, 44
4, 159795, Note_on_c, 1, 32, 0
4, 159810, Note_on_c, 1, 44, 46
4, 159825, Note_on_c, 1, 44, 0
4, 159840, Note_on_c, 1, 32, 48
4, 159855, Note_on_c, 1, 32, 0
4, 159870, Note_on_c, 1, 44, 50
4, 159885, Note_on_c, 1, 44, 0
4, 159900, Note_on_c, 1, 32, 52
4, 159915, Note_on_c, 1, 32, 0
4, 159930, Note_on_c, 1, 44, 54
4, 159945, Note_on_c, 1, 44, 0
4, 159960, Note_on_c, 1, 32, 56
4, 159975, Note_on_c, 1, 32, 0
4, 159990, Note_on_c, 1, 44, 58
4, 160005, Note_on_c, 1, 44, 0
4, 160020, Note_on_c, 1, 32, 60
4, 160035, Note_on_c, 1, 32, 0
4, 160050, Note_on_c, 1, 44, 62
4, 160065, Note_on_c, 1, 44, 0
4, 160080, Note_on_c, 1, 32, 64
4, 160095, Note_on_c, 1, 32, 0
4, 160110, Note_on_c, 1, 44, 66
4, 160125, Note_on_c, 1, 44, 0
4, 160140, Note_on_c, 1, 32, 68
4, 160155, Note_on_c, 1, 32, 0
4, 160170, Note_on_c, 1, 44, 70
4, 160185, Note_on_c, 1, 44, 0
4, 160200, Control_c, 1, 64, 127
4, 160200, Note_on_c, 1, 32, 70
4, 160215, Note_on_c, 1, 32, 0
4, 160230, Note_on_c, 1, 44, 68
4, 160245, Note_on_c, 1, 44, 0
4, 160260, Note_on_c, 1, 32, 66
4, 160275, Note_on_c, 1, 32, 0
4, 160290, Note_on_c, 1, 44, 64
4, 160305, Note_on_c, 1, 44, 0
4, 160320, Note_on_c, 1, 32, 62
4, 160335, Note_on_c, 1, 32, 0
4, 160350, Note_on_c, 1, 44, 60
4, 160365, Note_on_c, 1, 44, 0
4, 160380, Note_on_c, 1, 32, 58
4, 160395, Note_on_c, 1, 32, 0
4, 160410, Note_on_c, 1, 44, 56
4, 160425, Note_on_c, 1, 44, 0
4, 160440, Control_c, 1, 64, 0
4, 160440, Control_c, 1, 64, 127
4, 160440, Note_on_c, 1, 32, 54
4, 160455, Note_on_c, 1, 32, 0
4, 160470, Note_on_c, 1, 44, 52
4, 160485, Note_on_c, 1, 44, 0
4, 160500, Note_on_c, 1, 32, 50
4, 160515, Note_on_c, 1, 32, 0
4, 160530, Note_on_c, 1, 44, 48
4, 160545, Note_on_c, 1, 44, 0
4, 160560, Note_on_c, 1, 32, 46
4, 160575, Note_on_c, 1, 32, 0
4, 160590, Note_on_c, 1, 44, 44
4, 160605, Note_on_c, 1, 44, 0
4, 160620, Note_on_c, 1, 32, 42
4, 160635, Note_on_c, 1, 32, 0
4, 160650, Note_on_c, 1, 44, 40
4, 160665, Note_on_c, 1, 44, 0
4, 160680, Control_c, 1, 64, 0
4, 160680, Note_on_c, 1, 32, 40
4, 160695, Note_on_c, 1, 32, 0
4, 160710, Note_on_c, 1, 44, 42
4, 160725, Note_on_c, 1, 44, 0
4, 160740, Note_on_c, 1, 32, 44
4, 160755, Note_on_c, 1, 32, 0
4, 160770, Note_on_c, 1, 44, 46
4, 160785, Note_on_c, 1, 44, 0
4, 160800, Note_on_c, 1, 32, 48
4, 160815, Note_on_c, 1, 32, 0
4, 160830, Note_on_c, 1, 44, 50
4, 160845, Note_on_c, 1, 44, 0
4, 160860, Note_on_c, 1, 32, 52
4, 160875, Note_on_c, 1, 32, 0
4, 160890, Note_on_c, 1, 44, 54
4, 160905, Note_on_c, 1, 44, 0
4, 160920, Note_on_c, 1, 32, 56
4, 160935, Note_on_c, 1, 32, 0
4, 160950, Note_on_c, 1, 44, 58
4, 160965, Note_on_c, 1, 44, 0
4, 160980, Note_on_c, 1, 32, 60
4, 160995, Note_on_c, 1, 32, 0
4, 161010, Note_on_c, 1, 44, 62
4, 161025, Note_on_c, 1, 44, 0
4, 161040, Note_on_c, 1, 32, 64
4, 161055, Note_on_c, 1, 32, 0
4, 161070, Note_on_c, 1, 44, 66
4, 161085, Note_on_c, 1, 44, 0
4, 161100, Note_on_c, 1, 32, 68
4, 161115, Note_on_c, 1, 32, 0
4, 161130, Note_on_c, 1, 44, 70
4, 161145, Note_on_c, 1, 44, 0
4, 161160, Control_c, 1, 64, 127
4, 161160, Note_on_c, 1, 32, 70
4, 161175, Note_on_c, 1, 32, 0
4, 161190, Note_on_c, 1, 44, 68
4, 161205, Note_on_c, 1, 44, 0
4, 161220, Note_on_c, 1, 32, 66
4, 161235, Note_on_c, 1, 32, 0
4, 161250, Note_on_c, 1, 44, 64
4, 161265, Note_on_c, 1, 44, 0
4, 161280, Note_on_c, 1, 32, 62
4, 161295, Note_on_c, 1, 32, 0
4, 161310, Note_on_c, 1, 44, 60
4, 161325, Note_on_c, 1, 44, 0
4, 161340, Note_on_c, 1, 32, 58
4, 161355, Note_on_c, 1, 32, 0
4, 161370, Note_on_c, 1, 44, 56
4, 161385, Note_on_c, 1, 44, 0
4, 161400, Control_c, 1, 64, 0
4, 161400, Control_c, 1, 64, 127
4, 161400, Note_on_c, 1, 32, 54
4, 161415, Note_on_c, 1, 32, 0
4, 161430, Note_on_c, 1, 44, 52
4, 161445, Note_on_c, 1, 44, 0
4, 161460, Note_on_c, 1, 32, 50
4, 161475, Note_on_c, 1, 32, 0
4, 161490, Note_on_c, 1, 44, 48
4, 161505, Note_on_c, 1, 44, 0
4, 161520, Note_on_c, 1, 32, 46
4, 161535, Note_on_c, 1, 32, 0
4, 161550, Note_on_c, 1, 44, 44
4, 161565, Note_on_c, 1, 44, 0
4, 161580, Note_on_c, 1, 32, 42
4, 161595, Note_on_c, 1, 32, 0
4, 161610, Note_on_c, 1, 44, 40
4, 161625, Note_on_c, 1, 44, 0
4, 161640, Control_c, 1, 64, 0
4, 161640, Note_on_c, 1, 32, 42
4, 161655, Note_on_c, 1, 32, 0
4, 161670, Note_on_c, 1, 44, 43
4, 161685, Note_on_c, 1, 44, 0
4, 161700, Note_on_c, 1, 32, 45
4, 161715, Note_on_c, 1, 32, 0
4, 161730, Note_on_c, 1, 44, 46
4, 161745, Note_on_c, 1, 44, 0
4, 161760, Note_on_c, 1, 32, 48
4, 161775, Note_on_c, 1, 32, 0
4, 161790, Note_on_c, 1, 44, 49
4, 161805, Note_on_c, 1, 44, 0
4, 161820, Note_on_c, 1, 32, 51
4, 161835, Note_on_c, 1, 32, 0
4, 161850, Note_on_c, 1, 44, 52
4, 161865, Note_on_c, 1, 44, 0
4, 161880, Note_on_c, 1, 32, 54
4, 161895, Note_on_c, 1, 32, 0
4, 161910, Note_on_c, 1, 44, 55
4, 161925, Note_on_c, 1, 44, 0
4, 161940, Note_on_c, 1, 32, 57
4, 161955, Note_on_c, 1, 32, 0
4, 161970, Note_on_c, 1, 44, 58
4, 161985, Note_on_c, 1, 44, 0
4, 162000, Note_on_c, 1, 32, 60
4, 162015, Note_on_c, 1, 32, 0
4, 162030, Note_on_c, 1, 44, 61
4, 162045, Note_on_c, 1, 44, 0
4, 162060, Note_on_c, 1, 32, 63
4, 162075, Note_on_c, 1, 32, 0
4, 162090, Note_on_c, 1, 44, 64
4, 162105, Note_on_c, 1, 44, 0
4, 162120, Control_c, 1, 64, 127
4, 162120, Note_on_c, 1, 32, 65
4, 162135, Note_on_c, 1, 32, 0
4, 162150, Note_on_c, 1, 44, 66
4, 162165, Note_on_c, 1, 44, 0
4, 162180, Note_on_c, 1, 32, 68
4, 162195, Note_on_c, 1, 32, 0
4, 162210, Note_on_c, 1, 44, 69
4, 162225, Note_on_c, 1, 44, 0
4, 162240, Note_on_c, 1, 32, 71
4, 162255, Note_on_c, 1, 32, 0
4, 162270, Note_on_c, 1, 44, 72
4, 162285, Note_on_c, 1, 44, 0
4, 162300, Note_on_c, 1, 32, 74
4, 162315, Note_on_c, 1, 32, 0
4, 162330, Note_on_c, 1, 44, 75
4, 162345, Note_on_c, 1, 44, 0
4, 162360, Control_c, 1, 64, 0
4, 162360, Control_c, 1, 64, 127
4, 162360, Note_on_c, 1, 33, 70
4, 162388, Note_on_c, 1, 33, 0
4, 162390, Note_on_c, 1, 45, 65
4, 162418, Note_on_c, 1, 45, 0
4, 162420, Note_on_c, 1, 33, 60
4, 162448, Note_on_c, 1, 33, 0
4, 162450, Note_on_c, 1, 45, 55
4, 162479, Note_on_c, 1, 45, 0
4, 162480, Note_on_c, 1, 33, 50
4, 162508, Note_on_c, 1, 33, 0
4, 162510, Note_on_c, 1, 45, 45
4, 162538, Note_on_c, 1, 45, 0
4, 162540, Note_on_c, 1, 33, 45
4, 162568, Note_on_c, 1, 33, 0
4, 162570, Note_on_c, 1, 45, 45
4, 162599, Note_on_c, 1, 45, 0
4, 162600, Control_c, 1, 64, 0
4, 162600, Note_on_c, 1, 30, 45
4, 162600, Note_on_c, 1, 42, 45
4, 163065, Note_on_c, 1, 42, 0
4, 163065, Note_on_c, 1, 30, 0
4, 163080, Note_on_c, 1, 32, 35
4, 163080, Note_on_c, 1, 44, 35
4, 163545, Note_on_c, 1, 44, 0
4, 163545, Note_on_c, 1, 32, 0
4, 163560, Note_on_c, 1, 37, 70
4, 163575, Note_on_c, 1, 37, 0
4, 163620, Note_on_c, 1, 44, 45
4, 163635, Note_on_c, 1, 44, 0
4, 163680, Note_on_c, 1, 37, 45
4, 163695, Note_on_c, 1, 37, 0
4, 163740, Note_on_c, 1, 44, 45
4, 163755, Note_on_c, 1, 44, 0
4, 163800, Note_on_c, 1, 37, 45
4, 163815, Note_on_c, 1, 37, 0
4, 163860, Note_on_c, 1, 44, 45
4, 163875, Note_on_c, 1, 44, 0
4, 163920, Note_on_c, 1, 37, 45
4, 163935, Note_on_c, 1, 37, 0
4, 163980, Note_on_c, 1, 44, 45
4, 163995, Note_on_c, 1, 44, 0
4, 164040, Note_on_c, 1, 37, 63
4, 164055, Note_on_c, 1, 37, 0
4, 164100, Note_on_c, 1, 44, 45
4, 164115, Note_on_c, 1, 44, 0
4, 164160, Note_on_c, 1, 37, 45
4, 164175, Note_on_c, 1, 37, 0
4, 164220, Note_on_c, 1, 44, 45
4, 164235, Note_on_c, 1, 44, 0
4, 164280, Note_on_c, 1, 37, 45
4, 164295, Note_on_c, 1, 37, 0
4, 164340, Note_on_c, 1, 44, 45
4, 164355, Note_on_c, 1, 44, 0
4, 164400, Note_on_c, 1, 37, 105
4, 164400, Note_on_c, 1, 49, 105
4, 164445, Note_on_c, 1, 49, 0
4, 164445, Note_on_c, 1, 37, 0
4, 164460, Note_on_c, 1, 44, 45
4, 164475, Note_on_c, 1, 44, 0
4, 164520, Note_on_c, 1, 36, 45
4, 164535, Note_on_c, 1, 36, 0
4, 164580, Note_on_c, 1, 44, 45
4, 164595, Note_on_c, 1, 44, 0
4, 164640, Note_on_c, 1, 36, 45
4, 164655, Note_on_c, 1, 36, 0
4, 164700, Note_on_c, 1, 44, 45
4, 164715, Note_on_c, 1, 44, 0
4, 164760, Note_on_c, 1, 36, 45
4, 164775, Note_on_c, 1, 36, 0
4, 164820, Note_on_c, 1, 44, 45
4, 164835, Note_on_c, 1, 44, 0
4, 164880, Note_on_c, 1, 36, 45
4, 164895, Note_on_c, 1, 36, 0
4, 164940, Note_on_c, 1, 44, 45
4, 164955, Note_on_c, 1, 44, 0
4, 165000, Note_on_c, 1, 36, 45
4, 165015, Note_on_c, 1, 36, 0
4, 165060, Note_on_c, 1, 44, 45
4, 165075, Note_on_c, 1, 44, 0
4, 165120, Note_on_c, 1, 36, 45
4, 165135, Note_on_c, 1, 36, 0
4, 165180, Note_on_c, 1, 44, 45
4, 165195, Note_on_c, 1, 44, 0
4, 165240, Note_on_c, 1, 36, 45
4, 165255, Note_on_c, 1, 36, 0
4, 165300, Note_on_c, 1, 44, 45
4, 165315, Note_on_c, 1, 44, 0
4, 165360, Note_on_c, 1, 36, 70
4, 165360, Note_on_c, 1, 48, 70
4, 165405, Note_on_c, 1, 48, 0
4, 165405, Note_on_c, 1, 36, 0
4, 165420, Note_on_c, 1, 44, 45
4, 165435, Note_on_c, 1, 44, 0
4, 165480, Note_on_c, 1, 35, 45
4, 165495, Note_on_c, 1, 35, 0
4, 165540, Note_on_c, 1, 44, 45
4, 165555, Note_on_c, 1, 44, 0
4, 165600, Note_on_c, 1, 35, 45
4, 165615, Note_on_c, 1, 35, 0
4, 165660, Note_on_c, 1, 44, 45
4, 165675, Note_on_c, 1, 44, 0
4, 165720, Note_on_c, 1, 35, 45
4, 165735, Note_on_c, 1, 35, 0
4, 165780, Note_on_c, 1, 44, 45
4, 165795, Note_on_c, 1, 44, 0
4, 165840, Note_on_c, 1, 35, 45
4, 165855, Note_on_c, 1, 35, 0
4, 165900, Note_on_c, 1, 44, 45
4, 165915, Note_on_c, 1, 44, 0
4, 165960, Note_on_c, 1, 35, 45
4, 165975, Note_on_c, 1, 35, 0
4, 166020, Note_on_c, 1, 44, 45
4, 166035, Note_on_c, 1, 44, 0
4, 166080, Note_on_c, 1, 35, 45
4, 166095, Note_on_c, 1, 35, 0
4, 166140, Note_on_c, 1, 44, 45
4, 166155, Note_on_c, 1, 44, 0
4, 166200, Note_on_c, 1, 35, 45
4, 166215, Note_on_c, 1, 35, 0
4, 166260, Note_on_c, 1, 44, 45
4, 166275, Note_on_c, 1, 44, 0
4, 166320, Control_c, 1, 64, 127
4, 166320, Note_on_c, 1, 35, 70
4, 166320, Note_on_c, 1, 47, 70
4, 166365, Note_on_c, 1, 47, 0
4, 166365, Note_on_c, 1, 35, 0
4, 166380, Note_on_c, 1, 44, 45
4, 166395, Note_on_c, 1, 44, 0
4, 166440, Control_c, 1, 64, 0
4, 166440, Note_on_c, 1, 33, 63
4, 166455, Note_on_c, 1, 33, 0
4, 166500, Note_on_c, 1, 45, 45
4, 166515, Note_on_c, 1, 45, 0
4, 166560, Note_on_c, 1, 33, 45
4, 166575, Note_on_c, 1, 33, 0
4, 166620, Note_on_c, 1, 45, 45
4, 166635, Note_on_c, 1, 45, 0
4, 166680, Note_on_c, 1, 33, 63
4, 166695, Note_on_c, 1, 33, 0
4, 166740, Note_on_c, 1, 45, 45
4, 166755, Note_on_c, 1, 45, 0
4, 166800, Control_c, 1, 64, 127
4, 166800, Note_on_c, 1, 33, 70
4, 166845, Note_on_c, 1, 33, 0
4, 166860, Note_on_c, 1, 45, 45
4, 166875, Note_on_c, 1, 45, 0
4, 166920, Control_c, 1, 64, 0
4, 166920, Note_on_c, 1, 33, 63
4, 166935, Note_on_c, 1, 33, 0
4, 166980, Note_on_c, 1, 45, 45
4, 166995, Note_on_c, 1, 45, 0
4, 167040, Note_on_c, 1, 33, 45
4, 167055, Note_on_c, 1, 33, 0
4, 167100, Note_on_c, 1, 45, 45
4, 167115, Note_on_c, 1, 45, 0
4, 167160, Note_on_c, 1, 33, 45
4, 167175, Note_on_c, 1, 33, 0
4, 167220, Note_on_c, 1, 45, 45
4, 167235, Note_on_c, 1, 45, 0
4, 167280, Control_c, 1, 64, 127
4, 167280, Note_on_c, 1, 33, 70
4, 167325, Note_on_c, 1, 33, 0
4, 167340, Note_on_c, 1, 33, 45
4, 167340, Note_on_c, 1, 45, 45
4, 167355, Note_on_c, 1, 45, 0
4, 167355, Note_on_c, 1, 33, 0
4, 167400, Control_c, 1, 64, 0
4, 167400, Note_on_c, 1, 32, 78
4, 167400, Note_on_c, 1, 44, 78
4, 167415, Note_on_c, 1, 44, 0
4, 167415, Note_on_c, 1, 32, 0
4, 167460, Note_on_c, 1, 56, 78
4, 167460, Note_on_c, 1, 60, 85
4, 167519, Note_on_c, 1, 60, 0
4, 167520, Note_on_c, 1, 60, 78
4, 167580, Note_on_c, 1, 60, 0
4, 167580, Note_on_c, 1, 61, 78
4, 167640, Note_on_c, 1, 61, 0
4, 167640, Note_on_c, 1, 63, 78
4, 167700, Note_on_c, 1, 63, 0
4, 167700, Note_on_c, 1, 64, 78
4, 167760, Note_on_c, 1, 64, 0
4, 167760, Note_on_c, 1, 66, 78
4, 167820, Note_on_c, 1, 66, 0
4, 167820, Note_on_c, 1, 63, 78
4, 167879, Note_on_c, 1, 63, 0
4, 167880, Note_on_c, 1, 66, 78
4, 167938, Note_on_c, 1, 66, 0
4, 167940, Note_on_c, 1, 64, 78
4, 167999, Note_on_c, 1, 64, 0
4, 168000, Note_on_c, 1, 69, 78
4, 168060, Note_on_c, 1, 69, 0
4, 168060, Note_on_c, 1, 68, 78
4, 168120, Note_on_c, 1, 68, 0
4, 168120, Note_on_c, 1, 66, 78
4, 168180, Note_on_c, 1, 66, 0
4, 168180, Note_on_c, 1, 64, 78
4, 168240, Note_on_c, 1, 64, 0
4, 168240, Note_on_c, 1, 63, 78
4, 168300, Note_on_c, 1, 63, 0
4, 168300, Note_on_c, 1, 61, 78
4, 168359, Note_on_c, 1, 61, 0
4, 168359, Note_on_c, 1, 56, 0
4, 168360, Note_on_c, 1, 56, 78
4, 168360, Note_on_c, 1, 60, 85
4, 168418, Note_on_c, 1, 60, 0
4, 168420, Note_on_c, 1, 60, 78
4, 168479, Note_on_c, 1, 60, 0
4, 168480, Note_on_c, 1, 60, 78
4, 168538, Note_on_c, 1, 60, 0
4, 168540, Note_on_c, 1, 61, 78
4, 168599, Note_on_c, 1, 61, 0
4, 168600, Note_on_c, 1, 63, 78
4, 168658, Note_on_c, 1, 63, 0
4, 168660, Note_on_c, 1, 64, 78
4, 168719, Note_on_c, 1, 64, 0
4, 168720, Note_on_c, 1, 66, 78
4, 168778, Note_on_c, 1, 66, 0
4, 168780, Note_on_c, 1, 63, 78
4, 168839, Note_on_c, 1, 63, 0
4, 168840, Note_on_c, 1, 66, 78
4, 168898, Note_on_c, 1, 66, 0
4, 168900, Note_on_c, 1, 64, 78
4, 168959, Note_on_c, 1, 64, 0
4, 168960, Note_on_c, 1, 69, 78
4, 169020, Note_on_c, 1, 69, 0
4, 169020, Note_on_c, 1, 68, 78
4, 169080, Note_on_c, 1, 68, 0
4, 169080, Note_on_c, 1, 66, 72
4, 169140, Note_on_c, 1, 66, 0
4, 169140, Note_on_c, 1, 64, 66
4, 169200, Note_on_c, 1, 64, 0
4, 169200, Note_on_c, 1, 63, 60
4, 169260, Note_on_c, 1, 63, 0
4, 169260, Note_on_c, 1, 61, 54
4, 169290, Note_on_c, 1, 61, 0
4, 169290, Note_on_c, 1, 56, 0
4, 169320, Note_on_c, 1, 56, 54
4, 169320, Note_on_c, 1, 60, 54
4, 169340, Note_on_c, 1, 60, 0
4, 169340, Note_on_c, 1, 56, 0
4, 169380, Note_on_c, 1, 56, 57
4, 169380, Note_on_c, 1, 61, 57
4, 169400, Note_on_c, 1, 61, 0
4, 169400, Note_on_c, 1, 56, 0
4, 169440, Note_on_c, 1, 56, 60
4, 169440, Note_on_c, 1, 60, 60
4, 169460, Note_on_c, 1, 60, 0
4, 169460, Note_on_c, 1, 56, 0
4, 169500, Note_on_c, 1, 56, 63
4, 169500, Note_on_c, 1, 61, 63
4, 169520, Note_on_c, 1, 61, 0
4, 169520, Note_on_c, 1, 56, 0
4, 169560, Note_on_c, 1, 56, 66
4, 169560, Note_on_c, 1, 60, 66
4, 169580, Note_on_c, 1, 60, 0
4, 169580, Note_on_c, 1, 56, 0
4, 169620, Note_on_c, 1, 56, 69
4, 169620, Note_on_c, 1, 61, 69
4, 169640, Note_on_c, 1, 61, 0
4, 169640, Note_on_c, 1, 56, 0
4, 169680, Note_on_c, 1, 56, 72
4, 169680, Note_on_c, 1, 60, 72
4, 169700, Note_on_c, 1, 60, 0
4, 169700, Note_on_c, 1, 56, 0
4, 169740, Note_on_c, 1, 56, 75
4, 169740, Note_on_c, 1, 61, 75
4, 169760, Note_on_c, 1, 61, 0
4, 169760, Note_on_c, 1, 56, 0
4, 169800, Note_on_c, 1, 56, 78
4, 169800, Note_on_c, 1, 60, 78
4, 169830, Note_on_c, 1, 60, 0
4, 169830, Note_on_c, 1, 56, 0
4, 169920, Control_c, 1, 64, 127
4, 169920, Note_on_c, 1, 32, 85
4, 169920, Note_on_c, 1, 44, 85
4, 170279, Note_on_c, 1, 44, 0
4, 170279, Note_on_c, 1, 32, 0
4, 170280, Control_c, 1, 64, 0
4, 170280, Note_on_c, 1, 49, 63
4, 170295, Note_on_c, 1, 49, 0
4, 170310, Note_on_c, 1, 56, 45
4, 170325, Note_on_c, 1, 56, 0
4, 170340, Note_on_c, 1, 52, 45
4, 170355, Note_on_c, 1, 52, 0
4, 170370, Note_on_c, 1, 56, 45
4, 170385, Note_on_c, 1, 56, 0
4, 170400, Note_on_c, 1, 49, 45
4, 170415, Note_on_c, 1, 49, 0
4, 170430, Note_on_c, 1, 56, 45
4, 170445, Note_on_c, 1, 56, 0
4, 170460, Note_on_c, 1, 52, 45
4, 170475, Note_on_c, 1, 52, 0
4, 170490, Note_on_c, 1, 56, 45
4, 170505, Note_on_c, 1, 56, 0
4, 170520, Note_on_c, 1, 49, 45
4, 170535, Note_on_c, 1, 49, 0
4, 170550, Note_on_c, 1, 56, 45
4, 170565, Note_on_c, 1, 56, 0
4, 170580, Note_on_c, 1, 52, 45
4, 170595, Note_on_c, 1, 52, 0
4, 170610, Note_on_c, 1, 56, 45
4, 170625, Note_on_c, 1, 56, 0
4, 170640, Note_on_c, 1, 49, 45
4, 170655, Note_on_c, 1, 49, 0
4, 170670, Note_on_c, 1, 56, 45
4, 170685, Note_on_c, 1, 56, 0
4, 170700, Note_on_c, 1, 52, 45
4, 170715, Note_on_c, 1, 52, 0
4, 170730, Note_on_c, 1, 56, 45
4, 170745, Note_on_c, 1, 56, 0
4, 170760, Note_on_c, 1, 51, 63
4, 170775, Note_on_c, 1, 51, 0
4, 170790, Note_on_c, 1, 56, 45
4, 170805, Note_on_c, 1, 56, 0
4, 170820, Note_on_c, 1, 54, 45
4, 170835, Note_on_c, 1, 54, 0
4, 170850, Note_on_c, 1, 56, 45
4, 170865, Note_on_c, 1, 56, 0
4, 170880, Note_on_c, 1, 51, 45
4, 170895, Note_on_c, 1, 51, 0
4, 170910, Note_on_c, 1, 56, 45
4, 170925, Note_on_c, 1, 56, 0
4, 170940, Note_on_c, 1, 54, 45
4, 170955, Note_on_c, 1, 54, 0
4, 170970, Note_on_c, 1, 56, 45
4, 170985, Note_on_c, 1, 56, 0
4, 171000, Note_on_c, 1, 51, 45
4, 171015, Note_on_c, 1, 51, 0
4, 171030, Note_on_c, 1, 56, 45
4, 171045, Note_on_c, 1, 56, 0
4, 171060, Note_on_c, 1, 54, 45
4, 171075, Note_on_c, 1, 54, 0
4, 171090, Note_on_c, 1, 56, 45
4, 171105, Note_on_c, 1, 56, 0
4, 171120, Note_on_c, 1, 51, 45
4, 171135, Note_on_c, 1, 51, 0
4, 171150, Note_on_c, 1, 56, 45
4, 171165, Note_on_c, 1, 56, 0
4, 171180, Note_on_c, 1, 54, 45
4, 171195, Note_on_c, 1, 54, 0
4, 171210, Note_on_c, 1, 56, 45
4, 171225, Note_on_c, 1, 56, 0
4, 171240, Note_on_c, 1, 52, 63
4, 171255, Note_on_c, 1, 52, 0
4, 171270, Note_on_c, 1, 56, 45
4, 171285, Note_on_c, 1, 56, 0
4, 171300, Note_on_c, 1, 52, 45
4, 171315, Note_on_c, 1, 52, 0
4, 171330, Note_on_c, 1, 56, 45
4, 171345, Note_on_c, 1, 56, 0
4, 171360, Note_on_c, 1, 52, 45
4, 171375, Note_on_c, 1, 52, 0
4, 171390, Note_on_c, 1, 56, 45
4, 171405, Note_on_c, 1, 56, 0
4, 171420, Note_on_c, 1, 52, 45
4, 171435, Note_on_c, 1, 52, 0
4, 171450, Note_on_c, 1, 56, 45
4, 171465, Note_on_c, 1, 56, 0
4, 171480, Note_on_c, 1, 52, 45
4, 171495, Note_on_c, 1, 52, 0
4, 171510, Note_on_c, 1, 56, 45
4, 171525, Note_on_c, 1, 56, 0
4, 171540, Note_on_c, 1, 52, 45
4, 171555, Note_on_c, 1, 52, 0
4, 171570, Note_on_c, 1, 56, 45
4, 171585, Note_on_c, 1, 56, 0
4, 171600, Note_on_c, 1, 52, 45
4, 171615, Note_on_c, 1, 52, 0
4, 171630, Note_on_c, 1, 56, 45
4, 171645, Note_on_c, 1, 56, 0
4, 171660, Note_on_c, 1, 52, 45
4, 171675, Note_on_c, 1, 52, 0
4, 171690, Note_on_c, 1, 56, 45
4, 171705, Note_on_c, 1, 56, 0
4, 171720, Note_on_c, 1, 48, 63
4, 171735, Note_on_c, 1, 48, 0
4, 171750, Note_on_c, 1, 56, 45
4, 171765, Note_on_c, 1, 56, 0
4, 171780, Note_on_c, 1, 48, 45
4, 171795, Note_on_c, 1, 48, 0
4, 171810, Note_on_c, 1, 56, 45
4, 171825, Note_on_c, 1, 56, 0
4, 171840, Note_on_c, 1, 48, 45
4, 171855, Note_on_c, 1, 48, 0
4, 171870, Note_on_c, 1, 56, 45
4, 171885, Note_on_c, 1, 56, 0
4, 171900, Note_on_c, 1, 48, 45
4, 171915, Note_on_c, 1, 48, 0
4, 171930, Note_on_c, 1, 56, 45
4, 171945, Note_on_c, 1, 56, 0
4, 171960, Note_on_c, 1, 48, 45
4, 171975, Note_on_c, 1, 48, 0
4, 171990, Note_on_c, 1, 56, 45
4, 172005, Note_on_c, 1, 56, 0
4, 172020, Note_on_c, 1, 48, 45
4, 172035, Note_on_c, 1, 48, 0
4, 172050, Note_on_c, 1, 56, 45
4, 172065, Note_on_c, 1, 56, 0
4, 172080, Note_on_c, 1, 48, 45
4, 172095, Note_on_c, 1, 48, 0
4, 172110, Note_on_c, 1, 56, 45
4, 172125, Note_on_c, 1, 56, 0
4, 172140, Note_on_c, 1, 48, 45
4, 172155, Note_on_c, 1, 48, 0
4, 172170, Note_on_c, 1, 56, 45
4, 172185, Note_on_c, 1, 56, 0
4, 172200, Note_on_c, 1, 49, 63
4, 172215, Note_on_c, 1, 49, 0
4, 172230, Note_on_c, 1, 56, 45
4, 172245, Note_on_c, 1, 56, 0
4, 172260, Control_c, 1, 64, 127
4, 172260, Note_on_c, 1, 52, 46
4, 172275, Note_on_c, 1, 52, 0
4, 172290, Note_on_c, 1, 56, 46
4, 172305, Note_on_c, 1, 56, 0
4, 172320, Note_on_c, 1, 49, 47
4, 172335, Note_on_c, 1, 49, 0
4, 172350, Note_on_c, 1, 56, 47
4, 172365, Note_on_c, 1, 56, 0
4, 172380, Note_on_c, 1, 52, 48
4, 172395, Note_on_c, 1, 52, 0
4, 172410, Note_on_c, 1, 56, 48
4, 172425, Note_on_c, 1, 56, 0
4, 172440, Note_on_c, 1, 49, 49
4, 172455, Note_on_c, 1, 49, 0
4, 172470, Note_on_c, 1, 56, 49
4, 172485, Note_on_c, 1, 56, 0
4, 172500, Note_on_c, 1, 52, 50
4, 172515, Note_on_c, 1, 52, 0
4, 172530, Note_on_c, 1, 56, 50
4, 172545, Note_on_c, 1, 56, 0
4, 172560, Note_on_c, 1, 49, 51
4, 172575, Note_on_c, 1, 49, 0
4, 172590, Note_on_c, 1, 56, 51
4, 172605, Note_on_c, 1, 56, 0
4, 172620, Note_on_c, 1, 52, 52
4, 172635, Note_on_c, 1, 52, 0
4, 172650, Note_on_c, 1, 56, 52
4, 172665, Note_on_c, 1, 56, 0
4, 172680, Control_c, 1, 64, 0
4, 172680, Note_on_c, 1, 51, 53
4, 172695, Note_on_c, 1, 51, 0
4, 172710, Note_on_c, 1, 56, 53
4, 172725, Note_on_c, 1, 56, 0
4, 172740, Control_c, 1, 64, 127
4, 172740, Note_on_c, 1, 54, 54
4, 172755, Note_on_c, 1, 54, 0
4, 172770, Note_on_c, 1, 56, 54
4, 172785, Note_on_c, 1, 56, 0
4, 172800, Note_on_c, 1, 51, 55
4, 172815, Note_on_c, 1, 51, 0
4, 172830, Note_on_c, 1, 56, 55
4, 172845, Note_on_c, 1, 56, 0
4, 172860, Note_on_c, 1, 54, 56
4, 172875, Note_on_c, 1, 54, 0
4, 172890, Note_on_c, 1, 56, 56
4, 172905, Note_on_c, 1, 56, 0
4, 172920, Note_on_c, 1, 51, 57
4, 172935, Note_on_c, 1, 51, 0
4, 172950, Note_on_c, 1, 56, 57
4, 172965, Note_on_c, 1, 56, 0
4, 172980, Note_on_c, 1, 54, 58
4, 172995, Note_on_c, 1, 54, 0
4, 173010, Note_on_c, 1, 56, 58
4, 173025, Note_on_c, 1, 56, 0
4, 173040, Note_on_c, 1, 51, 59
4, 173055, Note_on_c, 1, 51, 0
4, 173070, Note_on_c, 1, 56, 59
4, 173085, Note_on_c, 1, 56, 0
4, 173100, Note_on_c, 1, 54, 60
4, 173115, Note_on_c, 1, 54, 0
4, 173130, Note_on_c, 1, 56, 60
4, 173145, Note_on_c, 1, 56, 0
4, 173160, Control_c, 1, 64, 0
4, 173160, Note_on_c, 1, 52, 61
4, 173175, Note_on_c, 1, 52, 0
4, 173190, Note_on_c, 1, 56, 61
4, 173205, Note_on_c, 1, 56, 0
4, 173220, Note_on_c, 1, 52, 62
4, 173235, Note_on_c, 1, 52, 0
4, 173250, Note_on_c, 1, 56, 62
4, 173265, Note_on_c, 1, 56, 0
4, 173280, Control_c, 1, 64, 127
4, 173280, Note_on_c, 1, 52, 63
4, 173295, Note_on_c, 1, 52, 0
4, 173310, Note_on_c, 1, 56, 63
4, 173325, Note_on_c, 1, 56, 0
4, 173340, Note_on_c, 1, 52, 64
4, 173355, Note_on_c, 1, 52, 0
4, 173370, Note_on_c, 1, 56, 64
4, 173385, Note_on_c, 1, 56, 0
4, 173400, Note_on_c, 1, 52, 65
4, 173415, Note_on_c, 1, 52, 0
4, 173430, Note_on_c, 1, 56, 65
4, 173445, Note_on_c, 1, 56, 0
4, 173460, Note_on_c, 1, 52, 66
4, 173475, Note_on_c, 1, 52, 0
4, 173490, Note_on_c, 1, 56, 66
4, 173505, Note_on_c, 1, 56, 0
4, 173520, Note_on_c, 1, 52, 67
4, 173535, Note_on_c, 1, 52, 0
4, 173550, Note_on_c, 1, 56, 67
4, 173565, Note_on_c, 1, 56, 0
4, 173580, Note_on_c, 1, 52, 68
4, 173595, Note_on_c, 1, 52, 0
4, 173610, Note_on_c, 1, 56, 68
4, 173625, Note_on_c, 1, 56, 0
4, 173640, Control_c, 1, 64, 0
4, 173640, Note_on_c, 1, 48, 69
4, 173655, Note_on_c, 1, 48, 0
4, 173670, Note_on_c, 1, 56, 69
4, 173685, Note_on_c, 1, 56, 0
4, 173700, Note_on_c, 1, 48, 70
4, 173715, Note_on_c, 1, 48, 0
4, 173730, Note_on_c, 1, 56, 70
4, 173745, Note_on_c, 1, 56, 0
4, 173760, Control_c, 1, 64, 127
4, 173760, Note_on_c, 1, 48, 71
4, 173775, Note_on_c, 1, 48, 0
4, 173790, Note_on_c, 1, 56, 71
4, 173805, Note_on_c, 1, 56, 0
4, 173820, Note_on_c, 1, 48, 72
4, 173835, Note_on_c, 1, 48, 0
4, 173850, Note_on_c, 1, 56, 72
4, 173865, Note_on_c, 1, 56, 0
4, 173880, Note_on_c, 1, 48, 73
4, 173895, Note_on_c, 1, 48, 0
4, 173910, Note_on_c, 1, 56, 73
4, 173925, Note_on_c, 1, 56, 0
4, 173940, Note_on_c, 1, 48, 74
4, 173955, Note_on_c, 1, 48, 0
4, 173970, Note_on_c, 1, 56, 74
4, 173985, Note_on_c, 1, 56, 0
4, 174000, Note_on_c, 1, 48, 75
4, 174015, Note_on_c, 1, 48, 0
4, 174030, Note_on_c, 1, 56, 75
4, 174045, Note_on_c, 1, 56, 0
4, 174060, Note_on_c, 1, 48, 80
4, 174075, Note_on_c, 1, 48, 0
4, 174090, Note_on_c, 1, 56, 80
4, 174105, Note_on_c, 1, 56, 0
4, 174120, Control_c, 1, 64, 0
4, 174120, Control_c, 1, 64, 127
4, 174120, Note_on_c, 1, 47, 85
4, 174135, Note_on_c, 1, 47, 0
4, 174150, Note_on_c, 1, 56, 65
4, 174165, Note_on_c, 1, 56, 0
4, 174180, Note_on_c, 1, 49, 65
4, 174195, Note_on_c, 1, 49, 0
4, 174210, Note_on_c, 1, 56, 65
4, 174225, Note_on_c, 1, 56, 0
4, 174240, Note_on_c, 1, 47, 65
4, 174255, Note_on_c, 1, 47, 0
4, 174270, Note_on_c, 1, 56, 65
4, 174285, Note_on_c, 1, 56, 0
4, 174300, Note_on_c, 1, 49, 65
4, 174315, Note_on_c, 1, 49, 0
4, 174330, Note_on_c, 1, 56, 65
4, 174345, Note_on_c, 1, 56, 0
4, 174360, Control_c, 1, 64, 0
4, 174360, Control_c, 1, 64, 127
4, 174360, Note_on_c, 1, 45, 85
4, 174375, Note_on_c, 1, 45, 0
4, 174390, Note_on_c, 1, 54, 65
4, 174405, Note_on_c, 1, 54, 0
4, 174420, Note_on_c, 1, 49, 65
4, 174435, Note_on_c, 1, 49, 0
4, 174450, Note_on_c, 1, 54, 65
4, 174465, Note_on_c, 1, 54, 0
4, 174480, Note_on_c, 1, 45, 65
4, 174495, Note_on_c, 1, 45, 0
4, 174510, Note_on_c, 1, 54, 65
4, 174525, Note_on_c, 1, 54, 0
4, 174540, Note_on_c, 1, 49, 65
4, 174555, Note_on_c, 1, 49, 0
4, 174570, Note_on_c, 1, 54, 65
4, 174585, Note_on_c, 1, 54, 0
4, 174600, Control_c, 1, 64, 0
4, 174600, Note_on_c, 1, 45, 85
4, 174615, Note_on_c, 1, 45, 0
4, 174630, Note_on_c, 1, 54, 65
4, 174645, Note_on_c, 1, 54, 0
4, 174660, Note_on_c, 1, 47, 65
4, 174675, Note_on_c, 1, 47, 0
4, 174690, Note_on_c, 1, 54, 65
4, 174705, Note_on_c, 1, 54, 0
4, 174720, Note_on_c, 1, 44, 85
4, 174735, Note_on_c, 1, 44, 0
4, 174750, Note_on_c, 1, 52, 65
4, 174765, Note_on_c, 1, 52, 0
4, 174780, Note_on_c, 1, 47, 65
4, 174795, Note_on_c, 1, 47, 0
4, 174810, Note_on_c, 1, 52, 65
4, 174825, Note_on_c, 1, 52, 0
4, 174840, Note_on_c, 1, 44, 65
4, 174855, Note_on_c, 1, 44, 0
4, 174870, Note_on_c, 1, 52, 65
4, 174885, Note_on_c, 1, 52, 0
4, 174900, Note_on_c, 1, 47, 65
4, 174915, Note_on_c, 1, 47, 0
4, 174930, Note_on_c, 1, 52, 65
4, 174945, Note_on_c, 1, 52, 0
4, 174960, Note_on_c, 1, 44, 65
4, 174975, Note_on_c, 1, 44, 0
4, 174990, Note_on_c, 1, 52, 65
4, 175005, Note_on_c, 1, 52, 0
4, 175020, Note_on_c, 1, 47, 65
4, 175035, Note_on_c, 1, 47, 0
4, 175050, Note_on_c, 1, 52, 65
4, 175065, Note_on_c, 1, 52, 0
4, 175080, Control_c, 1, 64, 127
4, 175080, Note_on_c, 1, 43, 85
4, 175095, Note_on_c, 1, 43, 0
4, 175110, Note_on_c, 1, 52, 65
4, 175125, Note_on_c, 1, 52, 0
4, 175140, Note_on_c, 1, 45, 65
4, 175155, Note_on_c, 1, 45, 0
4, 175170, Note_on_c, 1, 52, 65
4, 175185, Note_on_c, 1, 52, 0
4, 175200, Note_on_c, 1, 43, 65
4, 175215, Note_on_c, 1, 43, 0
4, 175230, Note_on_c, 1, 52, 65
4, 175245, Note_on_c, 1, 52, 0
4, 175260, Note_on_c, 1, 45, 65
4, 175275, Note_on_c, 1, 45, 0
4, 175290, Note_on_c, 1, 52, 65
4, 175305, Note_on_c, 1, 52, 0
4, 175320, Control_c, 1, 64, 0
4, 175320, Control_c, 1, 64, 127
4, 175320, Note_on_c, 1, 42, 85
4, 175335, Note_on_c, 1, 42, 0
4, 175350, Note_on_c, 1, 50, 65
4, 175365, Note_on_c, 1, 50, 0
4, 175380, Note_on_c, 1, 45, 65
4, 175395, Note_on_c, 1, 45, 0
4, 175410, Note_on_c, 1, 50, 65
4, 175425, Note_on_c, 1, 50, 0
4, 175440, Note_on_c, 1, 42, 65
4, 175455, Note_on_c, 1, 42, 0
4, 175470, Note_on_c, 1, 50, 65
4, 175485, Note_on_c, 1, 50, 0
4, 175500, Note_on_c, 1, 45, 65
4, 175515, Note_on_c, 1, 45, 0
4, 175530, Note_on_c, 1, 50, 65
4, 175545, Note_on_c, 1, 50, 0
4, 175560, Control_c, 1, 64, 0
4, 175560, Note_on_c, 1, 42, 85
4, 175575, Note_on_c, 1, 42, 0
4, 175590, Note_on_c, 1, 51, 65
4, 175605, Note_on_c, 1, 51, 0
4, 175620, Note_on_c, 1, 44, 65
4, 175635, Note_on_c, 1, 44, 0
4, 175650, Note_on_c, 1, 51, 65
4, 175665, Note_on_c, 1, 51, 0
4, 175680, Note_on_c, 1, 40, 85
4, 175695, Note_on_c, 1, 40, 0
4, 175710, Note_on_c, 1, 49, 65
4, 175725, Note_on_c, 1, 49, 0
4, 175740, Note_on_c, 1, 44, 65
4, 175755, Note_on_c, 1, 44, 0
4, 175770, Note_on_c, 1, 49, 65
4, 175785, Note_on_c, 1, 49, 0
4, 175800, Note_on_c, 1, 40, 65
4, 175815, Note_on_c, 1, 40, 0
4, 175830, Note_on_c, 1, 49, 65
4, 175845, Note_on_c, 1, 49, 0
4, 175860, Note_on_c, 1, 44, 65
4, 175875, Note_on_c, 1, 44, 0
4, 175890, Note_on_c, 1, 49, 65
4, 175905, Note_on_c, 1, 49, 0
4, 175920, Note_on_c, 1, 40, 65
4, 175935, Note_on_c, 1, 40, 0
4, 175950, Note_on_c, 1, 49, 65
4, 175965, Note_on_c, 1, 49, 0
4, 175980, Note_on_c, 1, 44, 65
4, 175995, Note_on_c, 1, 44, 0
4, 176010, Note_on_c, 1, 49, 65
4, 176025, Note_on_c, 1, 49, 0
4, 176040, Control_c, 1, 64, 127
4, 176040, Note_on_c, 1, 42, 85
4, 176040, Note_on_c, 1, 45, 85
4, 176040, Note_on_c, 1, 50, 85
4, 176040, Note_on_c, 1, 54, 85
4, 176399, Note_on_c, 1, 54, 0
4, 176399, Note_on_c, 1, 42, 0
4, 176399, Note_on_c, 1, 45, 0
4, 176399, Note_on_c, 1, 50, 0
4, 176400, Control_c, 1, 64, 0
4, 176520, Note_on_c, 1, 54, 45
4, 176520, Note_on_c, 1, 57, 45
4, 176520, Note_on_c, 1, 62, 45
4, 176550, Note_on_c, 1, 62, 0
4, 176550, Note_on_c, 1, 57, 0
4, 176550, Note_on_c, 1, 54, 0
4, 176760, Note_on_c, 1, 54, 45
4, 176760, Note_on_c, 1, 57, 45
4, 176760, Note_on_c, 1, 62, 45
4, 176790, Note_on_c, 1, 62, 0
4, 176790, Note_on_c, 1, 57, 0
4, 176790, Note_on_c, 1, 54, 0
4, 177000, Note_on_c, 1, 54, 50
4, 177000, Note_on_c, 1, 57, 50
4, 177000, Note_on_c, 1, 62, 50
4, 177030, Note_on_c, 1, 62, 0
4, 177030, Note_on_c, 1, 57, 0
4, 177030, Note_on_c, 1, 54, 0
4, 177120, Note_on_c, 1, 54, 55
4, 177120, Note_on_c, 1, 57, 55
4, 177120, Note_on_c, 1, 62, 55
4, 177150, Note_on_c, 1, 62, 0
4, 177150, Note_on_c, 1, 57, 0
4, 177150, Note_on_c, 1, 54, 0
4, 177240, Note_on_c, 1, 54, 60
4, 177240, Note_on_c, 1, 57, 60
4, 177240, Note_on_c, 1, 62, 60
4, 177270, Note_on_c, 1, 62, 0
4, 177270, Note_on_c, 1, 57, 0
4, 177270, Note_on_c, 1, 54, 0
4, 177360, Note_on_c, 1, 54, 65
4, 177360, Note_on_c, 1, 57, 65
4, 177360, Note_on_c, 1, 62, 65
4, 177390, Note_on_c, 1, 62, 0
4, 177390, Note_on_c, 1, 57, 0
4, 177390, Note_on_c, 1, 54, 0
4, 177480, Note_on_c, 1, 56, 63
4, 177508, Note_on_c, 1, 56, 0
4, 177510, Note_on_c, 1, 64, 45
4, 177538, Note_on_c, 1, 64, 0
4, 177540, Note_on_c, 1, 61, 45
4, 177568, Note_on_c, 1, 61, 0
4, 177570, Note_on_c, 1, 64, 45
4, 177599, Note_on_c, 1, 64, 0
4, 177600, Note_on_c, 1, 56, 45
4, 177628, Note_on_c, 1, 56, 0
4, 177630, Note_on_c, 1, 64, 45
4, 177658, Note_on_c, 1, 64, 0
4, 177660, Note_on_c, 1, 61, 45
4, 177688, Note_on_c, 1, 61, 0
4, 177690, Note_on_c, 1, 64, 45
4, 177719, Note_on_c, 1, 64, 0
4, 177720, Note_on_c, 1, 56, 45
4, 177748, Note_on_c, 1, 56, 0
4, 177750, Note_on_c, 1, 66, 45
4, 177778, Note_on_c, 1, 66, 0
4, 177780, Note_on_c, 1, 60, 45
4, 177808, Note_on_c, 1, 60, 0
4, 177810, Note_on_c, 1, 66, 45
4, 177839, Note_on_c, 1, 66, 0
4, 177840, Note_on_c, 1, 56, 45
4, 177868, Note_on_c, 1, 56, 0
4, 177870, Note_on_c, 1, 66, 45
4, 177898, Note_on_c, 1, 66, 0
4, 177900, Note_on_c, 1, 60, 45
4, 177928, Note_on_c, 1, 60, 0
4, 177930, Note_on_c, 1, 66, 45
4, 177959, Note_on_c, 1, 66, 0
4, 177960, Note_on_c, 1, 57, 45
4, 177960, Note_on_c, 1, 61, 45
4, 177960, Note_on_c, 1, 64, 45
4, 177990, Note_on_c, 1, 64, 0
4, 177990, Note_on_c, 1, 61, 0
4, 177990, Note_on_c, 1, 57, 0
4, 178080, Control_c, 1, 64, 127
4, 178080, Note_on_c, 1, 30, 85
4, 178080, Note_on_c, 1, 33, 85
4, 178080, Note_on_c, 1, 38, 85
4, 178080, Note_on_c, 1, 42, 85
4, 178290, Note_on_c, 1, 42, 0
4, 178290, Note_on_c, 1, 30, 0
4, 178290, Note_on_c, 1, 33, 0
4, 178290, Note_on_c, 1, 38, 0
4, 178320, Control_c, 1, 64, 0
4, 178560, Note_on_c, 1, 42, 50
4, 178560, Note_on_c, 1, 45, 50
4, 178560, Note_on_c, 1, 50, 50
4, 178590, Note_on_c, 1, 50, 0
4, 178590, Note_on_c, 1, 45, 0
4, 178590, Note_on_c, 1, 42, 0
4, 178800, Note_on_c, 1, 42, 55
4, 178800, Note_on_c, 1, 45, 55
4, 178800, Note_on_c, 1, 50, 55
4, 178830, Note_on_c, 1, 50, 0
4, 178830, Note_on_c, 1, 45, 0
4, 178830, Note_on_c, 1, 42, 0
4, 178980, Note_on_c, 1, 42, 60
4, 178980, Note_on_c, 1, 45, 60
4, 178980, Note_on_c, 1, 50, 60
4, 179039, Note_on_c, 1, 50, 0
4, 179039, Note_on_c, 1, 45, 0
4, 179039, Note_on_c, 1, 42, 0
4, 179100, Note_on_c, 1, 42, 65
4, 179100, Note_on_c, 1, 45, 65
4, 179100, Note_on_c, 1, 50, 65
4, 179159, Note_on_c, 1, 50, 0
4, 179159, Note_on_c, 1, 45, 0
4, 179159, Note_on_c, 1, 42, 0
4, 179220, Note_on_c, 1, 42, 70
4, 179220, Note_on_c, 1, 45, 70
4, 179220, Note_on_c, 1, 50, 70
4, 179279, Note_on_c, 1, 50, 0
4, 179279, Note_on_c, 1, 45, 0
4, 179279, Note_on_c, 1, 42, 0
4, 179340, Note_on_c, 1, 42, 75
4, 179340, Note_on_c, 1, 45, 75
4, 179340, Note_on_c, 1, 50, 75
4, 179399, Note_on_c, 1, 50, 0
4, 179399, Note_on_c, 1, 45, 0
4, 179399, Note_on_c, 1, 42, 0
4, 179400, Control_c, 1, 64, 127
4, 179400, Note_on_c, 1, 42, 85
4, 179415, Note_on_c, 1, 42, 0
4, 179430, Note_on_c, 1, 50, 68
4, 179445, Note_on_c, 1, 50, 0
4, 179460, Note_on_c, 1, 45, 68
4, 179475, Note_on_c, 1, 45, 0
4, 179490, Note_on_c, 1, 50, 68
4, 179505, Note_on_c, 1, 50, 0
4, 179520, Note_on_c, 1, 42, 68
4, 179535, Note_on_c, 1, 42, 0
4, 179550, Note_on_c, 1, 50, 68
4, 179565, Note_on_c, 1, 50, 0
4, 179580, Note_on_c, 1, 45, 68
4, 179595, Note_on_c, 1, 45, 0
4, 179610, Note_on_c, 1, 50, 68
4, 179625, Note_on_c, 1, 50, 0
4, 179640, Control_c, 1, 64, 0
4, 179640, Control_c, 1, 64, 127
4, 179640, Note_on_c, 1, 43, 85
4, 179655, Note_on_c, 1, 43, 0
4, 179670, Note_on_c, 1, 52, 68
4, 179685, Note_on_c, 1, 52, 0
4, 179700, Note_on_c, 1, 46, 68
4, 179715, Note_on_c, 1, 46, 0
4, 179730, Note_on_c, 1, 52, 68
4, 179745, Note_on_c, 1, 52, 0
4, 179760, Note_on_c, 1, 43, 68
4, 179775, Note_on_c, 1, 43, 0
4, 179790, Note_on_c, 1, 52, 68
4, 179805, Note_on_c, 1, 52, 0
4, 179820, Note_on_c, 1, 46, 68
4, 179835, Note_on_c, 1, 46, 0
4, 179850, Note_on_c, 1, 52, 68
4, 179865, Note_on_c, 1, 52, 0
4, 179880, Control_c, 1, 64, 0
4, 179880, Control_c, 1, 64, 127
4, 179880, Note_on_c, 1, 44, 85
4, 179895, Note_on_c, 1, 44, 0
4, 179910, Note_on_c, 1, 52, 68
4, 179925, Note_on_c, 1, 52, 0
4, 179940, Note_on_c, 1, 49, 68
4, 179955, Note_on_c, 1, 49, 0
4, 179970, Note_on_c, 1, 52, 68
4, 179985, Note_on_c, 1, 52, 0
4, 180000, Note_on_c, 1, 44, 68
4, 180015, Note_on_c, 1, 44, 0
4, 180030, Note_on_c, 1, 52, 68
4, 180045, Note_on_c, 1, 52, 0
4, 180060, Note_on_c, 1, 49, 68
4, 180075, Note_on_c, 1, 49, 0
4, 180090, Note_on_c, 1, 52, 68
4, 180105, Note_on_c, 1, 52, 0
4, 180120, Control_c, 1, 64, 0
4, 180120, Control_c, 1, 64, 127
4, 180120, Note_on_c, 1, 32, 85
4, 180135, Note_on_c, 1, 32, 0
4, 180150, Note_on_c, 1, 44, 68
4, 180165, Note_on_c, 1, 44, 0
4, 180180, Note_on_c, 1, 43, 68
4, 180195, Note_on_c, 1, 43, 0
4, 180210, Note_on_c, 1, 44, 68
4, 180225, Note_on_c, 1, 44, 0
4, 180240, Note_on_c, 1, 43, 68
4, 180255, Note_on_c, 1, 43, 0
4, 180270, Note_on_c, 1, 44, 68
4, 180285, Note_on_c, 1, 44, 0
4, 180300, Note_on_c, 1, 43, 68
4, 180315, Note_on_c, 1, 43, 0
4, 180330, Note_on_c, 1, 44, 68
4, 180345, Note_on_c, 1, 44, 0
4, 180360, Control_c, 1, 64, 0
4, 180360, Note_on_c, 1, 37, 78
4, 180375, Note_on_c, 1, 37, 0
4, 180420, Note_on_c, 1, 49, 45
4, 180435, Note_on_c, 1, 49, 0
4, 180480, Note_on_c, 1, 49, 45
4, 180495, Note_on_c, 1, 49, 0
4, 180540, Note_on_c, 1, 49, 45
4, 180555, Note_on_c, 1, 49, 0
4, 180600, Note_on_c, 1, 49, 45
4, 180615, Note_on_c, 1, 49, 0
4, 180660, Note_on_c, 1, 49, 50
4, 180705, Note_on_c, 1, 49, 0
4, 180720, Note_on_c, 1, 51, 55
4, 180765, Note_on_c, 1, 51, 0
4, 180780, Note_on_c, 1, 52, 60
4, 180825, Note_on_c, 1, 52, 0
4, 180840, Note_on_c, 1, 44, 45
4, 180840, Note_on_c, 1, 54, 45
4, 180885, Note_on_c, 1, 54, 0
4, 180885, Note_on_c, 1, 44, 0
4, 180900, Note_on_c, 1, 54, 45
4, 180900, Note_on_c, 1, 56, 45
4, 180915, Note_on_c, 1, 56, 0
4, 180915, Note_on_c, 1, 54, 0
4, 180960, Note_on_c, 1, 54, 45
4, 180960, Note_on_c, 1, 56, 45
4, 180975, Note_on_c, 1, 56, 0
4, 180975, Note_on_c, 1, 54, 0
4, 181020, Note_on_c, 1, 54, 45
4, 181020, Note_on_c, 1, 56, 45
4, 181035, Note_on_c, 1, 56, 0
4, 181035, Note_on_c, 1, 54, 0
4, 181080, Note_on_c, 1, 54, 45
4, 181080, Note_on_c, 1, 56, 45
4, 181095, Note_on_c, 1, 56, 0
4, 181095, Note_on_c, 1, 54, 0
4, 181140, Note_on_c, 1, 54, 45
4, 181140, Note_on_c, 1, 56, 45
4, 181185, Note_on_c, 1, 56, 0
4, 181185, Note_on_c, 1, 54, 0
4, 181200, Note_on_c, 1, 52, 45
4, 181200, Note_on_c, 1, 56, 45
4, 181245, Note_on_c, 1, 56, 0
4, 181245, Note_on_c, 1, 52, 0
4, 181260, Note_on_c, 1, 51, 45
4, 181260, Note_on_c, 1, 56, 45
4, 181305, Note_on_c, 1, 56, 0
4, 181305, Note_on_c, 1, 51, 0
4, 181320, Note_on_c, 1, 37, 45
4, 181320, Note_on_c, 1, 49, 45
4, 181365, Note_on_c, 1, 49, 0
4, 181365, Note_on_c, 1, 37, 0
4, 181380, Note_on_c, 1, 49, 45
4, 181395, Note_on_c, 1, 49, 0
4, 181440, Note_on_c, 1, 49, 45
4, 181455, Note_on_c, 1, 49, 0
4, 181500, Note_on_c, 1, 49, 45
4, 181515, Note_on_c, 1, 49, 0
4, 181560, Note_on_c, 1, 49, 45
4, 181575, Note_on_c, 1, 49, 0
4, 181620, Note_on_c, 1, 49, 50
4, 181665, Note_on_c, 1, 49, 0
4, 181680, Note_on_c, 1, 51, 55
4, 181725, Note_on_c, 1, 51, 0
4, 181740, Note_on_c, 1, 52, 60
4, 181785, Note_on_c, 1, 52, 0
4, 181800, Note_on_c, 1, 44, 45
4, 181800, Note_on_c, 1, 54, 45
4, 181845, Note_on_c, 1, 54, 0
4, 181845, Note_on_c, 1, 44, 0
4, 181860, Note_on_c, 1, 54, 45
4, 181860, Note_on_c, 1, 56, 45
4, 181875, Note_on_c, 1, 56, 0
4, 181875, Note_on_c, 1, 54, 0
4, 181920, Note_on_c, 1, 54, 45
4, 181920, Note_on_c, 1, 56, 45
4, 181935, Note_on_c, 1, 56, 0
4, 181935, Note_on_c, 1, 54, 0
4, 181980, Note_on_c, 1, 54, 45
4, 181980, Note_on_c, 1, 56, 45
4, 181995, Note_on_c, 1, 56, 0
4, 181995, Note_on_c, 1, 54, 0
4, 182040, Note_on_c, 1, 54, 45
4, 182040, Note_on_c, 1, 56, 45
4, 182055, Note_on_c, 1, 56, 0
4, 182055, Note_on_c, 1, 54, 0
4, 182100, Note_on_c, 1, 54, 50
4, 182100, Note_on_c, 1, 56, 50
4, 182145, Note_on_c, 1, 56, 0
4, 182145, Note_on_c, 1, 54, 0
4, 182160, Note_on_c, 1, 52, 55
4, 182160, Note_on_c, 1, 56, 55
4, 182205, Note_on_c, 1, 56, 0
4, 182205, Note_on_c, 1, 52, 0
4, 182220, Note_on_c, 1, 51, 60
4, 182220, Note_on_c, 1, 56, 60
4, 182265, Note_on_c, 1, 56, 0
4, 182265, Note_on_c, 1, 51, 0
4, 182280, Note_on_c, 1, 37, 63
4, 182280, Note_on_c, 1, 49, 63
4, 182325, Note_on_c, 1, 49, 0
4, 182325, Note_on_c, 1, 37, 0
4, 182340, Note_on_c, 1, 49, 45
4, 182340, Note_on_c, 1, 52, 45
4, 182355, Note_on_c, 1, 52, 0
4, 182355, Note_on_c, 1, 49, 0
4, 182400, Note_on_c, 1, 49, 45
4, 182400, Note_on_c, 1, 52, 45
4, 182460, Note_on_c, 1, 52, 0
4, 182460, Note_on_c, 1, 49, 0
4, 182460, Note_on_c, 1, 52, 30
4, 182460, Note_on_c, 1, 56, 30
4, 182505, Note_on_c, 1, 56, 0
4, 182505, Note_on_c, 1, 52, 0
4, 182520, Note_on_c, 1, 42, 63
4, 182535, Note_on_c, 1, 42, 0
4, 182580, Note_on_c, 1, 49, 45
4, 182580, Note_on_c, 1, 54, 45
4, 182595, Note_on_c, 1, 54, 0
4, 182595, Note_on_c, 1, 49, 0
4, 182640, Note_on_c, 1, 49, 45
4, 182640, Note_on_c, 1, 54, 45
4, 182700, Note_on_c, 1, 54, 0
4, 182700, Note_on_c, 1, 49, 0
4, 182700, Note_on_c, 1, 54, 35
4, 182700, Note_on_c, 1, 57, 35
4, 182745, Note_on_c, 1, 57, 0
4, 182745, Note_on_c, 1, 54, 0
4, 182760, Note_on_c, 1, 44, 63
4, 182775, Note_on_c, 1, 44, 0
4, 182820, Note_on_c, 1, 49, 45
4, 182820, Note_on_c, 1, 52, 45
4, 182835, Note_on_c, 1, 52, 0
4, 182835, Note_on_c, 1, 49, 0
4, 182880, Note_on_c, 1, 49, 45
4, 182880, Note_on_c, 1, 52, 45
4, 182940, Note_on_c, 1, 52, 0
4, 182940, Note_on_c, 1, 49, 0
4, 182940, Note_on_c, 1, 52, 35
4, 182940, Note_on_c, 1, 56, 35
4, 182985, Note_on_c, 1, 56, 0
4, 182985, Note_on_c, 1, 52, 0
4, 183000, Note_on_c, 1, 44, 63
4, 183015, Note_on_c, 1, 44, 0
4, 183060, Note_on_c, 1, 48, 45
4, 183060, Note_on_c, 1, 51, 45
4, 183075, Note_on_c, 1, 51, 0
4, 183075, Note_on_c, 1, 48, 0
4, 183120, Note_on_c, 1, 48, 45
4, 183120, Note_on_c, 1, 51, 45
4, 183180, Note_on_c, 1, 51, 0
4, 183180, Note_on_c, 1, 48, 0
4, 183180, Note_on_c, 1, 51, 35
4, 183180, Note_on_c, 1, 56, 35
4, 183240, Note_on_c, 1, 56, 0
4, 183240, Note_on_c, 1, 51, 0
4, 183240, Note_on_c, 1, 37, 45
4, 183240, Note_on_c, 1, 49, 45
4, 183255, Note_on_c, 1, 49, 0
4, 183255, Note_on_c, 1, 37, 0
4, 183300, Note_on_c, 1, 49, 50
4, 183300, Note_on_c, 1, 56, 50
4, 183315, Note_on_c, 1, 56, 0
4, 183315, Note_on_c, 1, 49, 0
4, 183360, Note_on_c, 1, 49, 55
4, 183360, Note_on_c, 1, 56, 55
4, 183375, Note_on_c, 1, 56, 0
4, 183375, Note_on_c, 1, 49, 0
4, 183420, Note_on_c, 1, 49, 60
4, 183420, Note_on_c, 1, 56, 60
4, 183435, Note_on_c, 1, 56, 0
4, 183435, Note_on_c, 1, 49, 0
4, 183480, Note_on_c, 1, 49, 65
4, 183480, Note_on_c, 1, 56, 65
4, 183495, Note_on_c, 1, 56, 0
4, 183495, Note_on_c, 1, 49, 0
4, 183540, Note_on_c, 1, 49, 70
4, 183540, Note_on_c, 1, 56, 70
4, 183555, Note_on_c, 1, 56, 0
4, 183555, Note_on_c, 1, 49, 0
4, 183600, Note_on_c, 1, 51, 75
4, 183600, Note_on_c, 1, 56, 75
4, 183615, Note_on_c, 1, 56, 0
4, 183615, Note_on_c, 1, 51, 0
4, 183660, Note_on_c, 1, 52, 80
4, 183660, Note_on_c, 1, 56, 80
4, 183675, Note_on_c, 1, 56, 0
4, 183675, Note_on_c, 1, 52, 0
4, 183720, Note_on_c, 1, 44, 85
4, 183720, Note_on_c, 1, 54, 85
4, 183720, Note_on_c, 1, 56, 85
4, 183735, Note_on_c, 1, 56, 0
4, 183735, Note_on_c, 1, 54, 0
4, 183735, Note_on_c, 1, 44, 0
4, 183780, Control_c, 1, 64, 127
4, 183780, Note_on_c, 1, 56, 90
4, 183780, Note_on_c, 1, 66, 90
4, 183795, Note_on_c, 1, 66, 0
4, 183795, Note_on_c, 1, 56, 0
4, 183840, Note_on_c, 1, 56, 75
4, 183840, Note_on_c, 1, 66, 75
4, 183855, Note_on_c, 1, 66, 0
4, 183855, Note_on_c, 1, 56, 0
4, 183900, Note_on_c, 1, 56, 75
4, 183900, Note_on_c, 1, 66, 75
4, 183915, Note_on_c, 1, 66, 0
4, 183915, Note_on_c, 1, 56, 0
4, 183960, Note_on_c, 1, 56, 75
4, 183960, Note_on_c, 1, 66, 75
4, 183975, Note_on_c, 1, 66, 0
4, 183975, Note_on_c, 1, 56, 0
4, 184020, Control_c, 1, 64, 0
4, 184020, Note_on_c, 1, 56, 75
4, 184020, Note_on_c, 1, 66, 75
4, 184035, Note_on_c, 1, 66, 0
4, 184035, Note_on_c, 1, 56, 0
4, 184080, Note_on_c, 1, 56, 75
4, 184080, Note_on_c, 1, 64, 75
4, 184095, Note_on_c, 1, 64, 0
4, 184095, Note_on_c, 1, 56, 0
4, 184140, Note_on_c, 1, 56, 75
4, 184140, Note_on_c, 1, 63, 75
4, 184155, Note_on_c, 1, 63, 0
4, 184155, Note_on_c, 1, 56, 0
4, 184200, Note_on_c, 1, 37, 85
4, 184200, Note_on_c, 1, 49, 85
4, 184245, Note_on_c, 1, 49, 0
4, 184245, Note_on_c, 1, 37, 0
4, 184260, Note_on_c, 1, 49, 50
4, 184260, Note_on_c, 1, 56, 50
4, 184275, Note_on_c, 1, 56, 0
4, 184275, Note_on_c, 1, 49, 0
4, 184320, Note_on_c, 1, 49, 55
4, 184320, Note_on_c, 1, 56, 55
4, 184335, Note_on_c, 1, 56, 0
4, 184335, Note_on_c, 1, 49, 0
4, 184380, Note_on_c, 1, 49, 60
4, 184380, Note_on_c, 1, 56, 60
4, 184395, Note_on_c, 1, 56, 0
4, 184395, Note_on_c, 1, 49, 0
4, 184440, Note_on_c, 1, 49, 65
4, 184440, Note_on_c, 1, 56, 65
4, 184455, Note_on_c, 1, 56, 0
4, 184455, Note_on_c, 1, 49, 0
4, 184500, Note_on_c, 1, 49, 70
4, 184500, Note_on_c, 1, 56, 70
4, 184515, Note_on_c, 1, 56, 0
4, 184515, Note_on_c, 1, 49, 0
4, 184560, Note_on_c, 1, 51, 75
4, 184560, Note_on_c, 1, 56, 75
4, 184575, Note_on_c, 1, 56, 0
4, 184575, Note_on_c, 1, 51, 0
4, 184620, Note_on_c, 1, 52, 80
4, 184620, Note_on_c, 1, 56, 80
4, 184635, Note_on_c, 1, 56, 0
4, 184635, Note_on_c, 1, 52, 0
4, 184680, Note_on_c, 1, 44, 85
4, 184680, Note_on_c, 1, 54, 85
4, 184680, Note_on_c, 1, 56, 85
4, 184695, Note_on_c, 1, 56, 0
4, 184695, Note_on_c, 1, 54, 0
4, 184695, Note_on_c, 1, 44, 0
4, 184740, Control_c, 1, 64, 127
4, 184740, Note_on_c, 1, 56, 75
4, 184740, Note_on_c, 1, 66, 75
4, 184755, Note_on_c, 1, 66, 0
4, 184755, Note_on_c, 1, 56, 0
4, 184800, Note_on_c, 1, 56, 75
4, 184800, Note_on_c, 1, 66, 75
4, 184815, Note_on_c, 1, 66, 0
4, 184815, Note_on_c, 1, 56, 0
4, 184860, Note_on_c, 1, 56, 75
4, 184860, Note_on_c, 1, 66, 75
4, 184875, Note_on_c, 1, 66, 0
4, 184875, Note_on_c, 1, 56, 0
4, 184920, Note_on_c, 1, 56, 75
4, 184920, Note_on_c, 1, 66, 75
4, 184935, Note_on_c, 1, 66, 0
4, 184935, Note_on_c, 1, 56, 0
4, 184980, Control_c, 1, 64, 0
4, 184980, Note_on_c, 1, 56, 75
4, 184980, Note_on_c, 1, 66, 75
4, 184995, Note_on_c, 1, 66, 0
4, 184995, Note_on_c, 1, 56, 0
4, 185040, Note_on_c, 1, 56, 75
4, 185040, Note_on_c, 1, 64, 75
4, 185055, Note_on_c, 1, 64, 0
4, 185055, Note_on_c, 1, 56, 0
4, 185100, Note_on_c, 1, 56, 75
4, 185100, Note_on_c, 1, 63, 75
4, 185115, Note_on_c, 1, 63, 0
4, 185115, Note_on_c, 1, 56, 0
4, 185160, Note_on_c, 1, 49, 85
4, 185160, Note_on_c, 1, 61, 85
4, 185175, Note_on_c, 1, 61, 0
4, 185175, Note_on_c, 1, 49, 0
4, 185220, Note_on_c, 1, 61, 45
4, 185220, Note_on_c, 1, 64, 45
4, 185235, Note_on_c, 1, 64, 0
4, 185235, Note_on_c, 1, 61, 0
4, 185280, Note_on_c, 1, 61, 45
4, 185280, Note_on_c, 1, 64, 45
4, 185340, Note_on_c, 1, 64, 0
4, 185340, Note_on_c, 1, 61, 0
4, 185340, Note_on_c, 1, 64, 30
4, 185340, Note_on_c, 1, 68, 30
4, 185385, Note_on_c, 1, 68, 0
4, 185385, Note_on_c, 1, 64, 0
4, 185400, Note_on_c, 1, 54, 63
4, 185415, Note_on_c, 1, 54, 0
4, 185460, Note_on_c, 1, 61, 45
4, 185460, Note_on_c, 1, 66, 45
4, 185475, Note_on_c, 1, 66, 0
4, 185475, Note_on_c, 1, 61, 0
4, 185520, Note_on_c, 1, 61, 45
4, 185520, Note_on_c, 1, 66, 45
4, 185580, Note_on_c, 1, 66, 0
4, 185580, Note_on_c, 1, 61, 0
4, 185580, Note_on_c, 1, 66, 30
4, 185580, Note_on_c, 1, 69, 30
4, 185625, Note_on_c, 1, 69, 0
4, 185625, Note_on_c, 1, 66, 0
4, 185640, Note_on_c, 1, 56, 63
4, 185655, Note_on_c, 1, 56, 0
4, 185700, Note_on_c, 1, 61, 45
4, 185700, Note_on_c, 1, 64, 45
4, 185715, Note_on_c, 1, 64, 0
4, 185715, Note_on_c, 1, 61, 0
4, 185760, Note_on_c, 1, 61, 45
4, 185760, Note_on_c, 1, 64, 45
4, 185820, Note_on_c, 1, 64, 0
4, 185820, Note_on_c, 1, 61, 0
4, 185820, Note_on_c, 1, 64, 30
4, 185820, Note_on_c, 1, 68, 30
4, 185865, Note_on_c, 1, 68, 0
4, 185865, Note_on_c, 1, 64, 0
4, 185880, Note_on_c, 1, 54, 63
4, 185895, Note_on_c, 1, 54, 0
4, 185940, Note_on_c, 1, 60, 45
4, 185940, Note_on_c, 1, 63, 45
4, 185955, Note_on_c, 1, 63, 0
4, 185955, Note_on_c, 1, 60, 0
4, 186000, Note_on_c, 1, 60, 45
4, 186000, Note_on_c, 1, 63, 45
4, 186060, Note_on_c, 1, 63, 0
4, 186060, Note_on_c, 1, 60, 0
4, 186060, Note_on_c, 1, 63, 30
4, 186060, Note_on_c, 1, 68, 30
4, 186105, Note_on_c, 1, 68, 0
4, 186105, Note_on_c, 1, 63, 0
4, 186120, Note_on_c, 1, 52, 63
4, 186135, Note_on_c, 1, 52, 0
4, 186180, Note_on_c, 1, 56, 45
4, 186180, Note_on_c, 1, 61, 45
4, 186195, Note_on_c, 1, 61, 0
4, 186195, Note_on_c, 1, 56, 0
4, 186240, Note_on_c, 1, 56, 45
4, 186240, Note_on_c, 1, 61, 45
4, 186300, Note_on_c, 1, 61, 0
4, 186300, Note_on_c, 1, 56, 0
4, 186300, Note_on_c, 1, 61, 30
4, 186300, Note_on_c, 1, 64, 30
4, 186345, Note_on_c, 1, 64, 0
4, 186345, Note_on_c, 1, 61, 0
4, 186360, Note_on_c, 1, 42, 63
4, 186375, Note_on_c, 1, 42, 0
4, 186420, Note_on_c, 1, 54, 45
4, 186420, Note_on_c, 1, 57, 45
4, 186435, Note_on_c, 1, 57, 0
4, 186435, Note_on_c, 1, 54, 0
4, 186480, Note_on_c, 1, 54, 45
4, 186480, Note_on_c, 1, 57, 45
4, 186540, Note_on_c, 1, 57, 0
4, 186540, Note_on_c, 1, 54, 0
4, 186540, Note_on_c, 1, 57, 30
4, 186540, Note_on_c, 1, 62, 30
4, 186585, Note_on_c, 1, 62, 0
4, 186585, Note_on_c, 1, 57, 0
4, 186600, Note_on_c, 1, 44, 63
4, 186615, Note_on_c, 1, 44, 0
4, 186660, Note_on_c, 1, 52, 45
4, 186660, Note_on_c, 1, 56, 45
4, 186675, Note_on_c, 1, 56, 0
4, 186675, Note_on_c, 1, 52, 0
4, 186720, Note_on_c, 1, 52, 45
4, 186720, Note_on_c, 1, 56, 45
4, 186780, Note_on_c, 1, 56, 0
4, 186780, Note_on_c, 1, 52, 0
4, 186780, Note_on_c, 1, 56, 30
4, 186780, Note_on_c, 1, 61, 30
4, 186825, Note_on_c, 1, 61, 0
4, 186825, Note_on_c, 1, 56, 0
4, 186840, Note_on_c, 1, 44, 63
4, 186855, Note_on_c, 1, 44, 0
4, 186900, Note_on_c, 1, 51, 45
4, 186900, Note_on_c, 1, 54, 45
4, 186915, Note_on_c, 1, 54, 0
4, 186915, Note_on_c, 1, 51, 0
4, 186960, Note_on_c, 1, 51, 45
4, 186960, Note_on_c, 1, 54, 45
4, 187020, Note_on_c, 1, 54, 0
4, 187020, Note_on_c, 1, 51, 0
4, 187020, Note_on_c, 1, 54, 30
4, 187020, Note_on_c, 1, 60, 30
4, 187065, Note_on_c, 1, 60, 0
4, 187065, Note_on_c, 1, 54, 0
4, 187080, Control_c, 1, 64, 127
4, 187080, Note_on_c, 1, 37, 63
4, 187110, Note_on_c, 1, 37, 0
4, 187110, Note_on_c, 1, 49, 45
4, 187140, Note_on_c, 1, 49, 0
4, 187140, Note_on_c, 1, 44, 45
4, 187170, Note_on_c, 1, 44, 0
4, 187170, Note_on_c, 1, 49, 45
4, 187200, Note_on_c, 1, 49, 0
4, 187200, Note_on_c, 1, 37, 45
4, 187230, Note_on_c, 1, 37, 0
4, 187230, Note_on_c, 1, 49, 45
4, 187260, Note_on_c, 1, 49, 0
4, 187260, Note_on_c, 1, 44, 45
4, 187290, Note_on_c, 1, 44, 0
4, 187290, Note_on_c, 1, 49, 45
4, 187320, Note_on_c, 1, 49, 0
4, 187320, Note_on_c, 1, 37, 45
4, 187350, Note_on_c, 1, 37, 0
4, 187350, Note_on_c, 1, 49, 45
4, 187380, Note_on_c, 1, 49, 0
4, 187380, Note_on_c, 1, 44, 45
4, 187410, Note_on_c, 1, 44, 0
4, 187410, Note_on_c, 1, 49, 45
4, 187439, Note_on_c, 1, 49, 0
4, 187440, Control_c, 1, 64, 0
4, 187440, Note_on_c, 1, 37, 45
4, 187470, Note_on_c, 1, 37, 0
4, 187470, Note_on_c, 1, 49, 40
4, 187500, Note_on_c, 1, 49, 0
4, 187500, Note_on_c, 1, 44, 35
4, 187530, Note_on_c, 1, 44, 0
4, 187530, Note_on_c, 1, 49, 30
4, 187552, Note_on_c, 1, 49, 0
4, 187560, Note_on_c, 1, 37, 60
4, 187590, Note_on_c, 1, 37, 0
4, 187590, Note_on_c, 1, 51, 45
4, 187620, Note_on_c, 1, 51, 0
4, 187620, Note_on_c, 1, 44, 45
4, 187650, Note_on_c, 1, 44, 0
4, 187650, Note_on_c, 1, 51, 45
4, 187679, Note_on_c, 1, 51, 0
4, 187680, Control_c, 1, 64, 127
4, 187680, Note_on_c, 1, 37, 45
4, 187710, Note_on_c, 1, 37, 0
4, 187710, Note_on_c, 1, 51, 45
4, 187740, Note_on_c, 1, 51, 0
4, 187740, Note_on_c, 1, 44, 45
4, 187770, Note_on_c, 1, 44, 0
4, 187770, Note_on_c, 1, 51, 45
4, 187800, Note_on_c, 1, 51, 0
4, 187800, Note_on_c, 1, 37, 45
4, 187830, Note_on_c, 1, 37, 0
4, 187830, Note_on_c, 1, 51, 45
4, 187860, Note_on_c, 1, 51, 0
4, 187860, Note_on_c, 1, 44, 45
4, 187890, Note_on_c, 1, 44, 0
4, 187890, Note_on_c, 1, 51, 45
4, 187920, Note_on_c, 1, 51, 0
4, 187920, Note_on_c, 1, 37, 45
4, 187950, Note_on_c, 1, 37, 0
4, 187950, Note_on_c, 1, 51, 45
4, 187980, Note_on_c, 1, 51, 0
4, 187980, Note_on_c, 1, 44, 45
4, 188010, Note_on_c, 1, 44, 0
4, 188010, Note_on_c, 1, 51, 45
4, 188032, Note_on_c, 1, 51, 0
4, 188040, Control_c, 1, 64, 0
4, 188040, Control_c, 1, 64, 127
4, 188040, Note_on_c, 1, 37, 60
4, 188070, Note_on_c, 1, 37, 0
4, 188070, Note_on_c, 1, 49, 45
4, 188100, Note_on_c, 1, 49, 0
4, 188100, Note_on_c, 1, 44, 45
4, 188130, Note_on_c, 1, 44, 0
4, 188130, Note_on_c, 1, 49, 45
4, 188159, Note_on_c, 1, 49, 0
4, 188160, Note_on_c, 1, 37, 45
4, 188190, Note_on_c, 1, 37, 0
4, 188190, Note_on_c, 1, 49, 45
4, 188220, Note_on_c, 1, 49, 0
4, 188220, Note_on_c, 1, 44, 45
4, 188250, Note_on_c, 1, 44, 0
4, 188250, Note_on_c, 1, 49, 45
4, 188280, Note_on_c, 1, 49, 0
4, 188280, Note_on_c, 1, 37, 45
4, 188310, Note_on_c, 1, 37, 0
4, 188310, Note_on_c, 1, 49, 45
4, 188340, Note_on_c, 1, 49, 0
4, 188340, Note_on_c, 1, 44, 45
4, 188370, Note_on_c, 1, 44, 0
4, 188370, Note_on_c, 1, 49, 45
4, 188399, Note_on_c, 1, 49, 0
4, 188400, Control_c, 1, 64, 0
4, 188400, Note_on_c, 1, 37, 45
4, 188430, Note_on_c, 1, 37, 0
4, 188430, Note_on_c, 1, 49, 45
4, 188460, Note_on_c, 1, 49, 0
4, 188460, Note_on_c, 1, 44, 45
4, 188490, Note_on_c, 1, 44, 0
4, 188490, Note_on_c, 1, 49, 45
4, 188512, Note_on_c, 1, 49, 0
4, 188520, Note_on_c, 1, 37, 60
4, 188550, Note_on_c, 1, 37, 0
4, 188550, Note_on_c, 1, 51, 45
4, 188580, Note_on_c, 1, 51, 0
4, 188580, Note_on_c, 1, 44, 45
4, 188610, Note_on_c, 1, 44, 0
4, 188610, Note_on_c, 1, 51, 45
4, 188632, Note_on_c, 1, 51, 0
4, 188640, Control_c, 1, 64, 127
4, 188640, Note_on_c, 1, 37, 45
4, 188670, Note_on_c, 1, 37, 0
4, 188670, Note_on_c, 1, 51, 45
4, 188700, Note_on_c, 1, 51, 0
4, 188700, Note_on_c, 1, 44, 45
4, 188730, Note_on_c, 1, 44, 0
4, 188730, Note_on_c, 1, 51, 45
4, 188760, Note_on_c, 1, 51, 0
4, 188760, Note_on_c, 1, 37, 45
4, 188790, Note_on_c, 1, 37, 0
4, 188790, Note_on_c, 1, 51, 45
4, 188820, Note_on_c, 1, 51, 0
4, 188820, Note_on_c, 1, 44, 45
4, 188850, Note_on_c, 1, 44, 0
4, 188850, Note_on_c, 1, 51, 45
4, 188880, Note_on_c, 1, 51, 0
4, 188880, Note_on_c, 1, 37, 45
4, 188910, Note_on_c, 1, 37, 0
4, 188910, Note_on_c, 1, 51, 45
4, 188940, Note_on_c, 1, 51, 0
4, 188940, Note_on_c, 1, 44, 45
4, 188970, Note_on_c, 1, 44, 0
4, 188970, Note_on_c, 1, 51, 45
4, 188992, Note_on_c, 1, 51, 0
4, 189000, Control_c, 1, 64, 0
4, 189000, Control_c, 1, 64, 127
4, 189000, Note_on_c, 1, 37, 63
4, 189030, Note_on_c, 1, 37, 0
4, 189030, Note_on_c, 1, 49, 45
4, 189060, Note_on_c, 1, 49, 0
4, 189060, Note_on_c, 1, 44, 49
4, 189090, Note_on_c, 1, 44, 0
4, 189090, Note_on_c, 1, 49, 53
4, 189120, Note_on_c, 1, 49, 0
4, 189120, Note_on_c, 1, 37, 57
4, 189150, Note_on_c, 1, 37, 0
4, 189150, Note_on_c, 1, 49, 61
4, 189180, Note_on_c, 1, 49, 0
4, 189180, Note_on_c, 1, 44, 65
4, 189210, Note_on_c, 1, 44, 0
4, 189210, Note_on_c, 1, 49, 65
4, 189232, Note_on_c, 1, 49, 0
4, 189240, Control_c, 1, 64, 0
4, 189240, Control_c, 1, 64, 127
4, 189240, Note_on_c, 1, 37, 61
4, 189270, Note_on_c, 1, 37, 0
4, 189270, Note_on_c, 1, 51, 57
4, 189300, Note_on_c, 1, 51, 0
4, 189300, Note_on_c, 1, 44, 53
4, 189330, Note_on_c, 1, 44, 0
4, 189330, Note_on_c, 1, 51, 49
4, 189360, Note_on_c, 1, 51, 0
4, 189360, Note_on_c, 1, 37, 45
4, 189390, Note_on_c, 1, 37, 0
4, 189390, Note_on_c, 1, 51, 41
4, 189420, Note_on_c, 1, 51, 0
4, 189420, Note_on_c, 1, 44, 41
4, 189450, Note_on_c, 1, 44, 0
4, 189450, Note_on_c, 1, 51, 41
4, 189472, Note_on_c, 1, 51, 0
4, 189480, Control_c, 1, 64, 0
4, 189480, Control_c, 1, 64, 127
4, 189480, Note_on_c, 1, 37, 55
4, 189510, Note_on_c, 1, 37, 0
4, 189510, Note_on_c, 1, 49, 45
4, 189540, Note_on_c, 1, 49, 0
4, 189540, Note_on_c, 1, 44, 49
4, 189570, Note_on_c, 1, 44, 0
4, 189570, Note_on_c, 1, 49, 53
4, 189600, Note_on_c, 1, 49, 0
4, 189600, Note_on_c, 1, 37, 57
4, 189630, Note_on_c, 1, 37, 0
4, 189630, Note_on_c, 1, 49, 61
4, 189660, Note_on_c, 1, 49, 0
4, 189660, Note_on_c, 1, 44, 65
4, 189690, Note_on_c, 1, 44, 0
4, 189690, Note_on_c, 1, 49, 69
4, 189712, Note_on_c, 1, 49, 0
4, 189720, Control_c, 1, 64, 0
4, 189720, Control_c, 1, 64, 127
4, 189720, Note_on_c, 1, 37, 65
4, 189750, Note_on_c, 1, 37, 0
4, 189750, Note_on_c, 1, 51, 61
4, 189780, Note_on_c, 1, 51, 0
4, 189780, Note_on_c, 1, 44, 57
4, 189810, Note_on_c, 1, 44, 0
4, 189810, Note_on_c, 1, 51, 53
4, 189840, Note_on_c, 1, 51, 0
4, 189840, Note_on_c, 1, 37, 49
4, 189870, Note_on_c, 1, 37, 0
4, 189870, Note_on_c, 1, 51, 45
4, 189900, Note_on_c, 1, 51, 0
4, 189900, Note_on_c, 1, 44, 43
4, 189930, Note_on_c, 1, 44, 0
4, 189930, Note_on_c, 1, 51, 43
4, 189952, Note_on_c, 1, 51, 0
4, 189960, Control_c, 1, 64, 0
4, 189960, Control_c, 1, 64, 127
4, 189960, Note_on_c, 1, 37, 42
4, 189975, Note_on_c, 1, 37, 0
4, 189990, Note_on_c, 1, 49, 30
4, 190005, Note_on_c, 1, 49, 0
4, 190020, Note_on_c, 1, 44, 32
4, 190035, Note_on_c, 1, 44, 0
4, 190050, Note_on_c, 1, 49, 33
4, 190065, Note_on_c, 1, 49, 0
4, 190080, Note_on_c, 1, 37, 35
4, 190095, Note_on_c, 1, 37, 0
4, 190110, Note_on_c, 1, 49, 36
4, 190125, Note_on_c, 1, 49, 0
4, 190140, Note_on_c, 1, 44, 38
4, 190155, Note_on_c, 1, 44, 0
4, 190170, Note_on_c, 1, 49, 39
4, 190185, Note_on_c, 1, 49, 0
4, 190200, Note_on_c, 1, 37, 41
4, 190215, Note_on_c, 1, 37, 0
4, 190230, Note_on_c, 1, 49, 42
4, 190245, Note_on_c, 1, 49, 0
4, 190260, Note_on_c, 1, 44, 44
4, 190275, Note_on_c, 1, 44, 0
4, 190290, Note_on_c, 1, 49, 45
4, 190305, Note_on_c, 1, 49, 0
4, 190320, Note_on_c, 1, 37, 47
4, 190335, Note_on_c, 1, 37, 0
4, 190350, Note_on_c, 1, 49, 48
4, 190365, Note_on_c, 1, 49, 0
4, 190380, Note_on_c, 1, 44, 50
4, 190395, Note_on_c, 1, 44, 0
4, 190410, Note_on_c, 1, 49, 51
4, 190425, Note_on_c, 1, 49, 0
4, 190440, Control_c, 1, 64, 0
4, 190440, Control_c, 1, 64, 127
4, 190440, Note_on_c, 1, 35, 53
4, 190455, Note_on_c, 1, 35, 0
4, 190470, Note_on_c, 1, 50, 54
4, 190485, Note_on_c, 1, 50, 0
4, 190500, Note_on_c, 1, 37, 56
4, 190515, Note_on_c, 1, 37, 0
4, 190530, Note_on_c, 1, 50, 57
4, 190545, Note_on_c, 1, 50, 0
4, 190560, Note_on_c, 1, 35, 59
4, 190575, Note_on_c, 1, 35, 0
4, 190590, Note_on_c, 1, 50, 60
4, 190605, Note_on_c, 1, 50, 0
4, 190620, Note_on_c, 1, 37, 62
4, 190635, Note_on_c, 1, 37, 0
4, 190650, Note_on_c, 1, 50, 65
4, 190665, Note_on_c, 1, 50, 0
4, 190680, Note_on_c, 1, 35, 67
4, 190695, Note_on_c, 1, 35, 0
4, 190710, Note_on_c, 1, 50, 69
4, 190725, Note_on_c, 1, 50, 0
4, 190740, Note_on_c, 1, 37, 71
4, 190755, Note_on_c, 1, 37, 0
4, 190770, Note_on_c, 1, 50, 73
4, 190785, Note_on_c, 1, 50, 0
4, 190800, Note_on_c, 1, 35, 75
4, 190815, Note_on_c, 1, 35, 0
4, 190830, Note_on_c, 1, 50, 77
4, 190845, Note_on_c, 1, 50, 0
4, 190860, Note_on_c, 1, 37, 79
4, 190875, Note_on_c, 1, 37, 0
4, 190890, Note_on_c, 1, 50, 81
4, 190905, Note_on_c, 1, 50, 0
4, 190920, Control_c, 1, 64, 0
4, 190920, Note_on_c, 1, 33, 85
4, 190920, Note_on_c, 1, 45, 85
4, 190965, Note_on_c, 1, 45, 0
4, 190965, Note_on_c, 1, 33, 0
4, 190980, Note_on_c, 1, 42, 45
4, 190995, Note_on_c, 1, 42, 0
4, 191040, Note_on_c, 1, 33, 45
4, 191055, Note_on_c, 1, 33, 0
4, 191100, Note_on_c, 1, 42, 45
4, 191115, Note_on_c, 1, 42, 0
4, 191160, Note_on_c, 1, 33, 45
4, 191175, Note_on_c, 1, 33, 0
4, 191220, Note_on_c, 1, 42, 45
4, 191235, Note_on_c, 1, 42, 0
4, 191280, Note_on_c, 1, 33, 45
4, 191295, Note_on_c, 1, 33, 0
4, 191340, Note_on_c, 1, 42, 45
4, 191355, Note_on_c, 1, 42, 0
4, 191400, Note_on_c, 1, 33, 63
4, 191415, Note_on_c, 1, 33, 0
4, 191460, Note_on_c, 1, 42, 45
4, 191475, Note_on_c, 1, 42, 0
4, 191520, Note_on_c, 1, 33, 45
4, 191535, Note_on_c, 1, 33, 0
4, 191580, Note_on_c, 1, 42, 45
4, 191595, Note_on_c, 1, 42, 0
4, 191640, Note_on_c, 1, 33, 45
4, 191655, Note_on_c, 1, 33, 0
4, 191700, Note_on_c, 1, 42, 45
4, 191715, Note_on_c, 1, 42, 0
4, 191760, Control_c, 1, 64, 127
4, 191760, Note_on_c, 1, 33, 85
4, 191760, Note_on_c, 1, 45, 85
4, 191767, Note_on_c, 1, 45, 0
4, 191767, Note_on_c, 1, 33, 0
4, 191820, Note_on_c, 1, 42, 60
4, 191828, Note_on_c, 1, 42, 0
4, 191880, Control_c, 1, 64, 0
4, 191880, Note_on_c, 1, 32, 63
4, 191895, Note_on_c, 1, 32, 0
4, 191940, Note_on_c, 1, 40, 45
4, 191955, Note_on_c, 1, 40, 0
4, 192000, Note_on_c, 1, 32, 45
4, 192015, Note_on_c, 1, 32, 0
4, 192060, Note_on_c, 1, 40, 45
4, 192075, Note_on_c, 1, 40, 0
4, 192120, Note_on_c, 1, 32, 45
4, 192135, Note_on_c, 1, 32, 0
4, 192180, Note_on_c, 1, 40, 45
4, 192195, Note_on_c, 1, 40, 0
4, 192240, Note_on_c, 1, 32, 45
4, 192255, Note_on_c, 1, 32, 0
4, 192300, Note_on_c, 1, 40, 45
4, 192315, Note_on_c, 1, 40, 0
4, 192360, Note_on_c, 1, 32, 63
4, 192375, Note_on_c, 1, 32, 0
4, 192420, Note_on_c, 1, 40, 45
4, 192435, Note_on_c, 1, 40, 0
4, 192480, Note_on_c, 1, 32, 45
4, 192495, Note_on_c, 1, 32, 0
4, 192540, Note_on_c, 1, 40, 45
4, 192555, Note_on_c, 1, 40, 0
4, 192600, Note_on_c, 1, 32, 45
4, 192615, Note_on_c, 1, 32, 0
4, 192660, Note_on_c, 1, 40, 45
4, 192675, Note_on_c, 1, 40, 0
4, 192720, Note_on_c, 1, 32, 85
4, 192720, Note_on_c, 1, 44, 85
4, 192727, Note_on_c, 1, 44, 0
4, 192727, Note_on_c, 1, 32, 0
4, 192780, Note_on_c, 1, 40, 60
4, 192788, Note_on_c, 1, 40, 0
4, 192840, Control_c, 1, 64, 127
4, 192840, Note_on_c, 1, 31, 85
4, 192975, Note_on_c, 1, 31, 0
4, 193020, Note_on_c, 1, 31, 60
4, 193035, Note_on_c, 1, 34, 65
4, 193050, Note_on_c, 1, 37, 70
4, 193065, Note_on_c, 1, 40, 75
4, 193080, Note_on_c, 1, 43, 80
4, 193258, Note_on_c, 1, 43, 0
4, 193258, Note_on_c, 1, 37, 0
4, 193258, Note_on_c, 1, 31, 0
4, 193258, Note_on_c, 1, 34, 0
4, 193258, Note_on_c, 1, 40, 0
4, 193260, Note_on_c, 1, 43, 60
4, 193275, Note_on_c, 1, 46, 65
4, 193290, Note_on_c, 1, 49, 70
4, 193305, Note_on_c, 1, 52, 75
4, 193320, Note_on_c, 1, 55, 80
4, 193439, Note_on_c, 1, 55, 0
4, 193439, Note_on_c, 1, 49, 0
4, 193439, Note_on_c, 1, 52, 0
4, 193439, Note_on_c, 1, 46, 0
4, 193440, Note_on_c, 1, 54, 80
4, 193440, Note_on_c, 1, 58, 80
4, 193440, Note_on_c, 1, 61, 80
4, 193440, Note_on_c, 1, 64, 80
4, 193799, Note_on_c, 1, 64, 0
4, 193799, Note_on_c, 1, 58, 0
4, 193799, Note_on_c, 1, 61, 0
4, 193799, Note_on_c, 1, 54, 0
4, 193800, Control_c, 1, 64, 0
4, 193800, Control_c, 1, 64, 127
4, 193800, Note_on_c, 1, 30, 85
4, 193978, Note_on_c, 1, 30, 0
4, 193980, Note_on_c, 1, 30, 60
4, 193995, Note_on_c, 1, 33, 65
4, 194010, Note_on_c, 1, 36, 70
4, 194025, Note_on_c, 1, 39, 75
4, 194040, Note_on_c, 1, 42, 80
4, 194218, Note_on_c, 1, 42, 0
4, 194218, Note_on_c, 1, 30, 0
4, 194218, Note_on_c, 1, 33, 0
4, 194218, Note_on_c, 1, 36, 0
4, 194218, Note_on_c, 1, 39, 0
4, 194220, Note_on_c, 1, 42, 60
4, 194235, Note_on_c, 1, 45, 65
4, 194250, Note_on_c, 1, 48, 70
4, 194265, Note_on_c, 1, 51, 75
4, 194280, Note_on_c, 1, 54, 80
4, 194399, Note_on_c, 1, 54, 0
4, 194399, Note_on_c, 1, 42, 0
4, 194399, Note_on_c, 1, 45, 0
4, 194399, Note_on_c, 1, 48, 0
4, 194399, Note_on_c, 1, 51, 0
4, 194400, Note_on_c, 1, 54, 82
4, 194400, Note_on_c, 1, 57, 82
4, 194400, Note_on_c, 1, 60, 82
4, 194400, Note_on_c, 1, 63, 82
4, 194759, Note_on_c, 1, 63, 0
4, 194759, Note_on_c, 1, 57, 0
4, 194759, Note_on_c, 1, 60, 0
4, 194759, Note_on_c, 1, 54, 0
4, 194760, Control_c, 1, 64, 0
4, 194760, Note_on_c, 1, 49, 45
4, 194790, Note_on_c, 1, 49, 0
4, 194880, Note_on_c, 1, 56, 63
4, 195120, Note_on_c, 1, 56, 0
4, 195120, Note_on_c, 1, 52, 45
4, 195210, Note_on_c, 1, 52, 0
4, 195210, Note_on_c, 1, 49, 45
4, 195232, Note_on_c, 1, 49, 0
4, 195240, Note_on_c, 1, 49, 45
4, 195360, Note_on_c, 1, 49, 0
4, 195360, Note_on_c, 1, 48, 35
4, 195495, Note_on_c, 1, 48, 0
4, 195540, Note_on_c, 1, 48, 45
4, 195600, Note_on_c, 1, 48, 0
4, 195600, Note_on_c, 1, 56, 63
4, 195690, Note_on_c, 1, 56, 0
4, 195690, Note_on_c, 1, 48, 45
4, 195712, Note_on_c, 1, 48, 0
4, 195720, Note_on_c, 1, 51, 45
4, 195840, Note_on_c, 1, 51, 0
4, 195840, Note_on_c, 1, 49, 35
4, 195975, Note_on_c, 1, 49, 0
4, 196020, Note_on_c, 1, 49, 45
4, 196080, Note_on_c, 1, 49, 0
4, 196080, Note_on_c, 1, 56, 63
4, 196170, Note_on_c, 1, 56, 0
4, 196170, Note_on_c, 1, 49, 45
4, 196192, Note_on_c, 1, 49, 0
4, 196200, Note_on_c, 1, 52, 45
4, 196320, Note_on_c, 1, 52, 0
4, 196320, Note_on_c, 1, 51, 35
4, 196455, Note_on_c, 1, 51, 0
4, 196500, Note_on_c, 1, 51, 45
4, 196560, Note_on_c, 1, 51, 0
4, 196560, Note_on_c, 1, 56, 63
4, 196650, Note_on_c, 1, 56, 0
4, 196650, Note_on_c, 1, 51, 45
4, 196672, Note_on_c, 1, 51, 0
4, 196680, Note_on_c, 1, 52, 42
4, 196695, Note_on_c, 1, 52, 0
4, 196710, Note_on_c, 1, 56, 30
4, 196725, Note_on_c, 1, 56, 0
4, 196740, Note_on_c, 1, 52, 30
4, 196755, Note_on_c, 1, 52, 0
4, 196770, Note_on_c, 1, 56, 30
4, 196785, Note_on_c, 1, 56, 0
4, 196800, Note_on_c, 1, 52, 30
4, 196815, Note_on_c, 1, 52, 0
4, 196830, Note_on_c, 1, 56, 30
4, 196845, Note_on_c, 1, 56, 0
4, 196860, Note_on_c, 1, 52, 30
4, 196875, Note_on_c, 1, 52, 0
4, 196890, Note_on_c, 1, 56, 30
4, 196905, Note_on_c, 1, 56, 0
4, 196920, Note_on_c, 1, 52, 30
4, 196935, Note_on_c, 1, 52, 0
4, 196950, Note_on_c, 1, 56, 30
4, 196965, Note_on_c, 1, 56, 0
4, 196980, Note_on_c, 1, 52, 30
4, 196995, Note_on_c, 1, 52, 0
4, 197010, Note_on_c, 1, 56, 30
4, 197025, Note_on_c, 1, 56, 0
4, 197040, Note_on_c, 1, 52, 30
4, 197055, Note_on_c, 1, 52, 0
4, 197070, Note_on_c, 1, 56, 30
4, 197085, Note_on_c, 1, 56, 0
4, 197100, Note_on_c, 1, 52, 30
4, 197115, Note_on_c, 1, 52, 0
4, 197130, Note_on_c, 1, 56, 30
4, 197145, Note_on_c, 1, 56, 0
4, 197160, Note_on_c, 1, 54, 42
4, 197175, Note_on_c, 1, 54, 0
4, 197190, Note_on_c, 1, 56, 30
4, 197205, Note_on_c, 1, 56, 0
4, 197220, Note_on_c, 1, 54, 30
4, 197235, Note_on_c, 1, 54, 0
4, 197250, Note_on_c, 1, 56, 30
4, 197265, Note_on_c, 1, 56, 0
4, 197280, Note_on_c, 1, 54, 30
4, 197295, Note_on_c, 1, 54, 0
4, 197310, Note_on_c, 1, 56, 30
4, 197325, Note_on_c, 1, 56, 0
4, 197340, Note_on_c, 1, 54, 30
4, 197355, Note_on_c, 1, 54, 0
4, 197370, Note_on_c, 1, 56, 30
4, 197385, Note_on_c, 1, 56, 0
4, 197400, Note_on_c, 1, 54, 30
4, 197415, Note_on_c, 1, 54, 0
4, 197430, Note_on_c, 1, 56, 30
4, 197445, Note_on_c, 1, 56, 0
4, 197460, Note_on_c, 1, 54, 30
4, 197475, Note_on_c, 1, 54, 0
4, 197490, Note_on_c, 1, 56, 30
4, 197505, Note_on_c, 1, 56, 0
4, 197520, Note_on_c, 1, 54, 30
4, 197535, Note_on_c, 1, 54, 0
4, 197550, Note_on_c, 1, 56, 30
4, 197565, Note_on_c, 1, 56, 0
4, 197580, Note_on_c, 1, 54, 30
4, 197595, Note_on_c, 1, 54, 0
4, 197610, Note_on_c, 1, 56, 30
4, 197625, Note_on_c, 1, 56, 0
4, 197640, Note_on_c, 1, 52, 42
4, 197655, Note_on_c, 1, 52, 0
4, 197670, Note_on_c, 1, 56, 30
4, 197685, Note_on_c, 1, 56, 0
4, 197700, Note_on_c, 1, 52, 30
4, 197715, Note_on_c, 1, 52, 0
4, 197730, Note_on_c, 1, 56, 30
4, 197745, Note_on_c, 1, 56, 0
4, 197760, Note_on_c, 1, 52, 30
4, 197775, Note_on_c, 1, 52, 0
4, 197790, Note_on_c, 1, 56, 30
4, 197805, Note_on_c, 1, 56, 0
4, 197820, Note_on_c, 1, 52, 30
4, 197835, Note_on_c, 1, 52, 0
4, 197850, Note_on_c, 1, 56, 30
4, 197865, Note_on_c, 1, 56, 0
4, 197880, Note_on_c, 1, 52, 30
4, 197895, Note_on_c, 1, 52, 0
4, 197910, Note_on_c, 1, 56, 30
4, 197925, Note_on_c, 1, 56, 0
4, 197940, Note_on_c, 1, 52, 30
4, 197955, Note_on_c, 1, 52, 0
4, 197970, Note_on_c, 1, 56, 30
4, 197985, Note_on_c, 1, 56, 0
4, 198000, Note_on_c, 1, 52, 30
4, 198015, Note_on_c, 1, 52, 0
4, 198030, Note_on_c, 1, 56, 30
4, 198045, Note_on_c, 1, 56, 0
4, 198060, Note_on_c, 1, 52, 30
4, 198075, Note_on_c, 1, 52, 0
4, 198090, Note_on_c, 1, 56, 30
4, 198105, Note_on_c, 1, 56, 0
4, 198120, Note_on_c, 1, 48, 42
4, 198135, Note_on_c, 1, 48, 0
4, 198150, Note_on_c, 1, 56, 30
4, 198165, Note_on_c, 1, 56, 0
4, 198180, Note_on_c, 1, 48, 30
4, 198195, Note_on_c, 1, 48, 0
4, 198210, Note_on_c, 1, 56, 30
4, 198225, Note_on_c, 1, 56, 0
4, 198240, Note_on_c, 1, 48, 30
4, 198255, Note_on_c, 1, 48, 0
4, 198270, Note_on_c, 1, 56, 30
4, 198285, Note_on_c, 1, 56, 0
4, 198300, Note_on_c, 1, 48, 30
4, 198315, Note_on_c, 1, 48, 0
4, 198330, Note_on_c, 1, 56, 30
4, 198345, Note_on_c, 1, 56, 0
4, 198360, Note_on_c, 1, 48, 30
4, 198375, Note_on_c, 1, 48, 0
4, 198390, Note_on_c, 1, 56, 30
4, 198405, Note_on_c, 1, 56, 0
4, 198420, Note_on_c, 1, 48, 30
4, 198435, Note_on_c, 1, 48, 0
4, 198450, Note_on_c, 1, 56, 30
4, 198465, Note_on_c, 1, 56, 0
4, 198480, Note_on_c, 1, 48, 30
4, 198495, Note_on_c, 1, 48, 0
4, 198510, Note_on_c, 1, 56, 30
4, 198525, Note_on_c, 1, 56, 0
4, 198540, Note_on_c, 1, 48, 30
4, 198555, Note_on_c, 1, 48, 0
4, 198570, Note_on_c, 1, 56, 30
4, 198585, Note_on_c, 1, 56, 0
4, 198600, Note_on_c, 1, 49, 42
4, 198615, Note_on_c, 1, 49, 0
4, 198630, Note_on_c, 1, 56, 30
4, 198645, Note_on_c, 1, 56, 0
4, 198660, Note_on_c, 1, 49, 30
4, 198675, Note_on_c, 1, 49, 0
4, 198690, Note_on_c, 1, 56, 30
4, 198705, Note_on_c, 1, 56, 0
4, 198720, Note_on_c, 1, 49, 30
4, 198735, Note_on_c, 1, 49, 0
4, 198750, Note_on_c, 1, 56, 30
4, 198765, Note_on_c, 1, 56, 0
4, 198780, Note_on_c, 1, 49, 30
4, 198795, Note_on_c, 1, 49, 0
4, 198810, Note_on_c, 1, 56, 30
4, 198825, Note_on_c, 1, 56, 0
4, 198840, Note_on_c, 1, 47, 42
4, 198855, Note_on_c, 1, 47, 0
4, 198870, Note_on_c, 1, 49, 30
4, 198885, Note_on_c, 1, 49, 0
4, 198900, Note_on_c, 1, 47, 30
4, 198915, Note_on_c, 1, 47, 0
4, 198930, Note_on_c, 1, 49, 30
4, 198945, Note_on_c, 1, 49, 0
4, 198960, Note_on_c, 1, 47, 30
4, 198975, Note_on_c, 1, 47, 0
4, 198990, Note_on_c, 1, 49, 30
4, 199005, Note_on_c, 1, 49, 0
4, 199020, Note_on_c, 1, 47, 30
4, 199035, Note_on_c, 1, 47, 0
4, 199050, Note_on_c, 1, 49, 30
4, 199065, Note_on_c, 1, 49, 0
4, 199080, Note_on_c, 1, 45, 42
4, 199095, Note_on_c, 1, 45, 0
4, 199110, Note_on_c, 1, 49, 30
4, 199125, Note_on_c, 1, 49, 0
4, 199140, Note_on_c, 1, 45, 30
4, 199155, Note_on_c, 1, 45, 0
4, 199170, Note_on_c, 1, 49, 30
4, 199185, Note_on_c, 1, 49, 0
4, 199200, Note_on_c, 1, 45, 30
4, 199215, Note_on_c, 1, 45, 0
4, 199230, Note_on_c, 1, 49, 30
4, 199245, Note_on_c, 1, 49, 0
4, 199260, Note_on_c, 1, 45, 30
4, 199275, Note_on_c, 1, 45, 0
4, 199290, Note_on_c, 1, 49, 30
4, 199305, Note_on_c, 1, 49, 0
4, 199320, Note_on_c, 1, 40, 42
4, 199335, Note_on_c, 1, 40, 0
4, 199350, Note_on_c, 1, 49, 30
4, 199365, Note_on_c, 1, 49, 0
4, 199380, Note_on_c, 1, 40, 30
4, 199395, Note_on_c, 1, 40, 0
4, 199410, Note_on_c, 1, 49, 30
4, 199425, Note_on_c, 1, 49, 0
4, 199440, Note_on_c, 1, 40, 30
4, 199455, Note_on_c, 1, 40, 0
4, 199470, Note_on_c, 1, 49, 30
4, 199485, Note_on_c, 1, 49, 0
4, 199500, Note_on_c, 1, 40, 30
4, 199515, Note_on_c, 1, 40, 0
4, 199530, Note_on_c, 1, 49, 30
4, 199545, Note_on_c, 1, 49, 0
4, 199560, Control_c, 1, 64, 127
4, 199560, Note_on_c, 1, 30, 78
4, 199560, Note_on_c, 1, 37, 78
4, 199560, Note_on_c, 1, 42, 78
4, 200400, Note_on_c, 1, 54, 78
4, 200400, Note_on_c, 1, 57, 78
4, 200400, Note_on_c, 1, 61, 78
4, 200430, Note_on_c, 1, 61, 0
4, 200430, Note_on_c, 1, 54, 0
4, 200430, Note_on_c, 1, 30, 0
4, 200430, Note_on_c, 1, 37, 0
4, 200430, Note_on_c, 1, 42, 0
4, 200430, Note_on_c, 1, 57, 0
4, 200520, Control_c, 1, 64, 0
4, 200520, Control_c, 1, 64, 127
4, 200520, Note_on_c, 1, 30, 78
4, 200520, Note_on_c, 1, 38, 78
4, 200520, Note_on_c, 1, 42, 78
4, 201360, Note_on_c, 1, 54, 78
4, 201360, Note_on_c, 1, 57, 78
4, 201360, Note_on_c, 1, 62, 78
4, 201390, Note_on_c, 1, 62, 0
4, 201390, Note_on_c, 1, 54, 0
4, 201390, Note_on_c, 1, 30, 0
4, 201390, Note_on_c, 1, 38, 0
4, 201390, Note_on_c, 1, 42, 0
4, 201390, Note_on_c, 1, 57, 0
4, 201480, Control_c, 1, 64, 127
4, 201480, Note_on_c, 1, 31, 78
4, 201480, Note_on_c, 1, 37, 78
4, 201480, Note_on_c, 1, 43, 78
4, 202320, Note_on_c, 1, 55, 78
4, 202320, Note_on_c, 1, 58, 78
4, 202320, Note_on_c, 1, 61, 78
4, 202320, Note_on_c, 1, 64, 78
4, 202350, Note_on_c, 1, 64, 0
4, 202350, Note_on_c, 1, 61, 0
4, 202350, Note_on_c, 1, 55, 0
4, 202350, Note_on_c, 1, 31, 0
4, 202350, Note_on_c, 1, 37, 0
4, 202350, Note_on_c, 1, 43, 0
4, 202350, Note_on_c, 1, 58, 0
4, 202440, Control_c, 1, 64, 0
4, 202440, Control_c, 1, 64, 127
4, 202440, Note_on_c, 1, 32, 78
4, 202440, Note_on_c, 1, 37, 78
4, 202440, Note_on_c, 1, 44, 78
4, 203370, Note_on_c, 1, 44, 0
4, 203370, Note_on_c, 1, 37, 0
4, 203370, Note_on_c, 1, 32, 0
4, 203400, Note_on_c, 1, 44, 82
4, 203407, Note_on_c, 1, 44, 0
4, 203430, Note_on_c, 1, 45, 82
4, 203460, Note_on_c, 1, 45, 0
4, 203460, Note_on_c, 1, 46, 82
4, 203490, Note_on_c, 1, 46, 0
4, 203490, Note_on_c, 1, 47, 82
4, 203520, Note_on_c, 1, 47, 0
4, 203520, Note_on_c, 1, 48, 82
4, 203550, Note_on_c, 1, 48, 0
4, 203550, Note_on_c, 1, 49, 82
4, 203580, Note_on_c, 1, 49, 0
4, 203580, Note_on_c, 1, 50, 82
4, 203610, Note_on_c, 1, 50, 0
4, 203610, Note_on_c, 1, 51, 82
4, 203640, Note_on_c, 1, 51, 0
4, 203640, Note_on_c, 1, 52, 82
4, 203670, Note_on_c, 1, 52, 0
4, 203670, Note_on_c, 1, 53, 82
4, 203700, Note_on_c, 1, 53, 0
4, 203700, Note_on_c, 1, 54, 82
4, 203730, Note_on_c, 1, 54, 0
4, 203730, Note_on_c, 1, 55, 82
4, 203760, Note_on_c, 1, 55, 0
4, 203760, Note_on_c, 1, 56, 82
4, 203790, Note_on_c, 1, 56, 0
4, 203790, Note_on_c, 1, 57, 82
4, 203820, Note_on_c, 1, 57, 0
4, 203820, Note_on_c, 1, 58, 82
4, 203850, Note_on_c, 1, 58, 0
4, 203850, Note_on_c, 1, 59, 82
4, 203879, Note_on_c, 1, 59, 0
4, 204360, Note_on_c, 1, 56, 85
4, 204360, Note_on_c, 1, 60, 85
4, 204360, Note_on_c, 1, 66, 85
4, 205290, Note_on_c, 1, 66, 0
4, 205290, Note_on_c, 1, 60, 0
4, 205290, Note_on_c, 1, 56, 0
4, 205320, Control_c, 1, 64, 0
4, 206280, Note_on_c, 1, 31, 45
4, 206760, Note_on_c, 1, 31, 0
4, 206760, Note_on_c, 1, 32, 45
4, 207240, Note_on_c, 1, 32, 0
4, 207240, Note_on_c, 1, 37, 63
4, 207270, Note_on_c, 1, 37, 0
4, 207270, Note_on_c, 1, 49, 45
4, 207300, Note_on_c, 1, 49, 0
4, 207300, Note_on_c, 1, 44, 45
4, 207330, Note_on_c, 1, 44, 0
4, 207330, Note_on_c, 1, 49, 45
4, 207360, Note_on_c, 1, 49, 0
4, 207360, Note_on_c, 1, 37, 45
4, 207390, Note_on_c, 1, 37, 0
4, 207390, Note_on_c, 1, 49, 45
4, 207420, Note_on_c, 1, 49, 0
4, 207420, Note_on_c, 1, 44, 45
4, 207450, Note_on_c, 1, 44, 0
4, 207450, Note_on_c, 1, 49, 45
4, 207480, Note_on_c, 1, 49, 0
4, 207480, Note_on_c, 1, 37, 45
4, 207510, Note_on_c, 1, 37, 0
4, 207510, Note_on_c, 1, 49, 45
4, 207540, Note_on_c, 1, 49, 0
4, 207540, Note_on_c, 1, 44, 45
4, 207570, Note_on_c, 1, 44, 0
4, 207570, Note_on_c, 1, 49, 45
4, 207600, Note_on_c, 1, 49, 0
4, 207600, Note_on_c, 1, 37, 45
4, 207630, Note_on_c, 1, 37, 0
4, 207630, Note_on_c, 1, 49, 45
4, 207660, Note_on_c, 1, 49, 0
4, 207660, Note_on_c, 1, 44, 45
4, 207690, Note_on_c, 1, 44, 0
4, 207690, Note_on_c, 1, 49, 45
4, 207712, Note_on_c, 1, 49, 0
4, 207720, Note_on_c, 1, 37, 63
4, 207750, Note_on_c, 1, 37, 0
4, 207750, Note_on_c, 1, 51, 45
4, 207780, Note_on_c, 1, 51, 0
4, 207780, Note_on_c, 1, 44, 45
4, 207810, Note_on_c, 1, 44, 0
4, 207810, Note_on_c, 1, 51, 45
4, 207840, Note_on_c, 1, 51, 0
4, 207840, Note_on_c, 1, 37, 45
4, 207870, Note_on_c, 1, 37, 0
4, 207870, Note_on_c, 1, 51, 45
4, 207900, Note_on_c, 1, 51, 0
4, 207900, Note_on_c, 1, 44, 45
4, 207930, Note_on_c, 1, 44, 0
4, 207930, Note_on_c, 1, 51, 45
4, 207960, Note_on_c, 1, 51, 0
4, 207960, Note_on_c, 1, 37, 45
4, 207990, Note_on_c, 1, 37, 0
4, 207990, Note_on_c, 1, 51, 45
4, 208020, Note_on_c, 1, 51, 0
4, 208020, Note_on_c, 1, 44, 45
4, 208050, Note_on_c, 1, 44, 0
4, 208050, Note_on_c, 1, 51, 45
4, 208080, Note_on_c, 1, 51, 0
4, 208080, Note_on_c, 1, 37, 45
4, 208110, Note_on_c, 1, 37, 0
4, 208110, Note_on_c, 1, 51, 45
4, 208140, Note_on_c, 1, 51, 0
4, 208140, Note_on_c, 1, 44, 45
4, 208170, Note_on_c, 1, 44, 0
4, 208170, Note_on_c, 1, 51, 45
4, 208192, Note_on_c, 1, 51, 0
4, 208200, Note_on_c, 1, 37, 63
4, 208230, Note_on_c, 1, 37, 0
4, 208230, Note_on_c, 1, 49, 45
4, 208260, Note_on_c, 1, 49, 0
4, 208260, Note_on_c, 1, 44, 45
4, 208290, Note_on_c, 1, 44, 0
4, 208290, Note_on_c, 1, 49, 45
4, 208320, Note_on_c, 1, 49, 0
4, 208320, Note_on_c, 1, 37, 45
4, 208350, Note_on_c, 1, 37, 0
4, 208350, Note_on_c, 1, 49, 45
4, 208380, Note_on_c, 1, 49, 0
4, 208380, Note_on_c, 1, 44, 45
4, 208410, Note_on_c, 1, 44, 0
4, 208410, Note_on_c, 1, 49, 45
4, 208440, Note_on_c, 1, 49, 0
4, 208440, Note_on_c, 1, 37, 45
4, 208470, Note_on_c, 1, 37, 0
4, 208470, Note_on_c, 1, 49, 45
4, 208500, Note_on_c, 1, 49, 0
4, 208500, Note_on_c, 1, 44, 45
4, 208530, Note_on_c, 1, 44, 0
4, 208530, Note_on_c, 1, 49, 45
4, 208560, Note_on_c, 1, 49, 0
4, 208560, Note_on_c, 1, 37, 45
4, 208590, Note_on_c, 1, 37, 0
4, 208590, Note_on_c, 1, 49, 45
4, 208620, Note_on_c, 1, 49, 0
4, 208620, Note_on_c, 1, 44, 45
4, 208650, Note_on_c, 1, 44, 0
4, 208650, Note_on_c, 1, 49, 45
4, 208672, Note_on_c, 1, 49, 0
4, 208680, Note_on_c, 1, 37, 63
4, 208710, Note_on_c, 1, 37, 0
4, 208710, Note_on_c, 1, 51, 45
4, 208740, Note_on_c, 1, 51, 0
4, 208740, Note_on_c, 1, 44, 45
4, 208770, Note_on_c, 1, 44, 0
4, 208770, Note_on_c, 1, 51, 45
4, 208800, Note_on_c, 1, 51, 0
4, 208800, Note_on_c, 1, 37, 45
4, 208830, Note_on_c, 1, 37, 0
4, 208830, Note_on_c, 1, 51, 45
4, 208860, Note_on_c, 1, 51, 0
4, 208860, Note_on_c, 1, 44, 45
4, 208890, Note_on_c, 1, 44, 0
4, 208890, Note_on_c, 1, 51, 45
4, 208920, Note_on_c, 1, 51, 0
4, 208920, Note_on_c, 1, 37, 45
4, 208950, Note_on_c, 1, 37, 0
4, 208950, Note_on_c, 1, 51, 45
4, 208980, Note_on_c, 1, 51, 0
4, 208980, Note_on_c, 1, 44, 45
4, 209010, Note_on_c, 1, 44, 0
4, 209010, Note_on_c, 1, 51, 45
4, 209040, Note_on_c, 1, 51, 0
4, 209040, Note_on_c, 1, 37, 45
4, 209070, Note_on_c, 1, 37, 0
4, 209070, Note_on_c, 1, 51, 45
4, 209100, Note_on_c, 1, 51, 0
4, 209100, Note_on_c, 1, 44, 45
4, 209130, Note_on_c, 1, 44, 0
4, 209130, Note_on_c, 1, 51, 45
4, 209152, Note_on_c, 1, 51, 0
4, 209160, Note_on_c, 1, 37, 45
4, 209190, Note_on_c, 1, 37, 0
4, 209190, Note_on_c, 1, 49, 45
4, 209220, Note_on_c, 1, 49, 0
4, 209220, Note_on_c, 1, 44, 45
4, 209250, Note_on_c, 1, 44, 0
4, 209250, Note_on_c, 1, 49, 45
4, 209280, Note_on_c, 1, 49, 0
4, 209280, Note_on_c, 1, 37, 45
4, 209310, Note_on_c, 1, 37, 0
4, 209310, Note_on_c, 1, 49, 45
4, 209340, Note_on_c, 1, 49, 0
4, 209340, Note_on_c, 1, 44, 45
4, 209370, Note_on_c, 1, 44, 0
4, 209370, Note_on_c, 1, 49, 45
4, 209392, Note_on_c, 1, 49, 0
4, 209400, Note_on_c, 1, 37, 45
4, 209430, Note_on_c, 1, 37, 0
4, 209430, Note_on_c, 1, 51, 45
4, 209460, Note_on_c, 1, 51, 0
4, 209460, Note_on_c, 1, 44, 45
4, 209490, Note_on_c, 1, 44, 0
4, 209490, Note_on_c, 1, 51, 45
4, 209520, Note_on_c, 1, 51, 0
4, 209520, Note_on_c, 1, 37, 45
4, 209550, Note_on_c, 1, 37, 0
4, 209550, Note_on_c, 1, 51, 45
4, 209580, Note_on_c, 1, 51, 0
4, 209580, Note_on_c, 1, 44, 45
4, 209610, Note_on_c, 1, 44, 0
4, 209610, Note_on_c, 1, 51, 45
4, 209632, Note_on_c, 1, 51, 0
4, 209640, Note_on_c, 1, 37, 45
4, 209670, Note_on_c, 1, 37, 0
4, 209670, Note_on_c, 1, 49, 45
4, 209700, Note_on_c, 1, 49, 0
4, 209700, Note_on_c, 1, 44, 45
4, 209730, Note_on_c, 1, 44, 0
4, 209730, Note_on_c, 1, 49, 45
4, 209760, Note_on_c, 1, 49, 0
4, 209760, Note_on_c, 1, 37, 45
4, 209790, Note_on_c, 1, 37, 0
4, 209790, Note_on_c, 1, 49, 45
4, 209820, Note_on_c, 1, 49, 0
4, 209820, Note_on_c, 1, 44, 45
4, 209850, Note_on_c, 1, 44, 0
4, 209850, Note_on_c, 1, 49, 45
4, 209872, Note_on_c, 1, 49, 0
4, 209880, Note_on_c, 1, 37, 45
4, 209910, Note_on_c, 1, 37, 0
4, 209910, Note_on_c, 1, 51, 45
4, 209940, Note_on_c, 1, 51, 0
4, 209940, Note_on_c, 1, 44, 45
4, 209970, Note_on_c, 1, 44, 0
4, 209970, Note_on_c, 1, 51, 45
4, 210000, Note_on_c, 1, 51, 0
4, 210000, Note_on_c, 1, 37, 45
4, 210030, Note_on_c, 1, 37, 0
4, 210030, Note_on_c, 1, 51, 45
4, 210060, Note_on_c, 1, 51, 0
4, 210060, Note_on_c, 1, 44, 45
4, 210090, Note_on_c, 1, 44, 0
4, 210090, Note_on_c, 1, 51, 45
4, 210112, Note_on_c, 1, 51, 0
4, 210120, Control_c, 1, 64, 127
4, 210120, Note_on_c, 1, 37, 78
4, 210120, Note_on_c, 1, 44, 78
4, 210120, Note_on_c, 1, 49, 78
4, 210150, Note_on_c, 1, 49, 0
4, 210150, Note_on_c, 1, 44, 0
4, 210150, Note_on_c, 1, 37, 0
4, 210150, Note_on_c, 1, 52, 78
4, 210180, Note_on_c, 1, 52, 0
4, 210180, Note_on_c, 1, 56, 78
4, 210210, Note_on_c, 1, 56, 0
4, 210210, Note_on_c, 1, 61, 78
4, 210240, Note_on_c, 1, 61, 0
4, 210240, Note_on_c, 1, 64, 78
4, 210270, Note_on_c, 1, 64, 0
4, 210270, Note_on_c, 1, 56, 78
4, 210300, Note_on_c, 1, 56, 0
4, 210300, Note_on_c, 1, 61, 78
4, 210330, Note_on_c, 1, 61, 0
4, 210330, Note_on_c, 1, 64, 78
4, 210359, Note_on_c, 1, 64, 0
4, 210360, Note_on_c, 1, 68, 78
4, 210390, Note_on_c, 1, 68, 0
4, 210390, Note_on_c, 1, 61, 78
4, 210420, Note_on_c, 1, 61, 0
4, 210420, Note_on_c, 1, 64, 78
4, 210450, Note_on_c, 1, 64, 0
4, 210450, Note_on_c, 1, 68, 78
4, 210480, Note_on_c, 1, 68, 0
4, 210480, Note_on_c, 1, 73, 78
4, 210510, Note_on_c, 1, 73, 0
4, 210510, Note_on_c, 1, 64, 78
4, 210540, Note_on_c, 1, 64, 0
4, 210540, Note_on_c, 1, 68, 78
4, 210570, Note_on_c, 1, 68, 0
4, 210570, Note_on_c, 1, 73, 78
4, 210592, Note_on_c, 1, 73, 0
4, 210600, Note_on_c, 1, 76, 85
4, 210630, Note_on_c, 1, 76, 0
4, 210630, Note_on_c, 1, 73, 78
4, 210660, Note_on_c, 1, 73, 0
4, 210660, Note_on_c, 1, 68, 78
4, 210690, Note_on_c, 1, 68, 0
4, 210690, Note_on_c, 1, 64, 78
4, 210720, Note_on_c, 1, 64, 0
4, 210720, Note_on_c, 1, 73, 85
4, 210750, Note_on_c, 1, 73, 0
4, 210750, Note_on_c, 1, 68, 78
4, 210780, Note_on_c, 1, 68, 0
4, 210780, Note_on_c, 1, 64, 78
4, 210810, Note_on_c, 1, 64, 0
4, 210810, Note_on_c, 1, 61, 78
4, 210840, Note_on_c, 1, 61, 0
4, 210840, Note_on_c, 1, 68, 85
4, 210870, Note_on_c, 1, 68, 0
4, 210870, Note_on_c, 1, 64, 78
4, 210900, Note_on_c, 1, 64, 0
4, 210900, Note_on_c, 1, 61, 78
4, 210930, Note_on_c, 1, 61, 0
4, 210930, Note_on_c, 1, 56, 78
4, 210959, Note_on_c, 1, 56, 0
4, 210960, Note_on_c, 1, 64, 85
4, 210990, Note_on_c, 1, 64, 0
4, 210990, Note_on_c, 1, 61, 78
4, 211020, Note_on_c, 1, 61, 0
4, 211020, Note_on_c, 1, 56, 78
4, 211050, Note_on_c, 1, 56, 0
4, 211050, Note_on_c, 1, 52, 78
4, 211072, Note_on_c, 1, 52, 0
4, 211080, Note_on_c, 1, 61, 85
4, 211108, Note_on_c, 1, 61, 0
4, 211110, Note_on_c, 1, 56, 78
4, 211138, Note_on_c, 1, 56, 0
4, 211140, Note_on_c, 1, 52, 78
4, 211168, Note_on_c, 1, 52, 0
4, 211170, Note_on_c, 1, 49, 78
4, 211199, Note_on_c, 1, 49, 0
4, 211200, Note_on_c, 1, 56, 85
4, 211228, Note_on_c, 1, 56, 0
4, 211230, Note_on_c, 1, 52, 78
4, 211258, Note_on_c, 1, 52, 0
4, 211260, Note_on_c, 1, 49, 78
4, 211288, Note_on_c, 1, 49, 0
4, 211290, Note_on_c, 1, 44, 78
4, 211319, Note_on_c, 1, 44, 0
4, 211320, Note_on_c, 1, 52, 85
4, 211348, Note_on_c, 1, 52, 0
4, 211350, Note_on_c, 1, 49, 78
4, 211378, Note_on_c, 1, 49, 0
4, 211380, Note_on_c, 1, 44, 78
4, 211408, Note_on_c, 1, 44, 0
4, 211410, Note_on_c, 1, 40, 78
4, 211439, Note_on_c, 1, 40, 0
4, 211440, Note_on_c, 1, 49, 85
4, 211468, Note_on_c, 1, 49, 0
4, 211470, Note_on_c, 1, 44, 78
4, 211498, Note_on_c, 1, 44, 0
4, 211500, Note_on_c, 1, 40, 78
4, 211528, Note_on_c, 1, 40, 0
4, 211530, Note_on_c, 1, 44, 78
4, 211559, Note_on_c, 1, 44, 0
4, 211560, Control_c, 1, 64, 0
4, 211560, Note_on_c, 1, 37, 78
4, 211590, Note_on_c, 1, 37, 0
4, 211800, Control_c, 1, 64, 127
4, 211800, Note_on_c, 1, 37, 82
4, 211800, Note_on_c, 1, 40, 82
4, 211800, Note_on_c, 1, 44, 82
4, 211800, Note_on_c, 1, 49, 82
4, 211810, Note_on_c, 1, 49, 0
4, 211810, Note_on_c, 1, 40, 0
4, 211810, Note_on_c, 1, 44, 0
4, 211810, Note_on_c, 1, 37, 0
4, 212040, Note_on_c, 1, 37, 82
4, 212040, Note_on_c, 1, 40, 82
4, 212040, Note_on_c, 1, 44, 82
4, 212040, Note_on_c, 1, 49, 82
4, 212050, Note_on_c, 1, 49, 0
4, 212050, Note_on_c, 1, 40, 0
4, 212050, Note_on_c, 1, 44, 0
4, 212050, Note_on_c, 1, 37, 0
4, 212520, Control_c, 1, 64, 0
4, 234219, Note_on_c, 1, 43, 0
4, 234219, End_track
0, 0, End_of_file
