0, 0, Header, 1, 18, 120
1, 0, Start_track
1, 0, Sequencer_specific, 3, 0, 0, 65
1, 0, Time_signature, 2, 2, 24, 8
1, 0, Key_signature, 0, "major"
1, 0, Tempo, 379746
1, 0, End_track
2, 0, Start_track
2, 0, MIDI_port, 0
2, 0, Title_t, "Strings49           "
2, 0, Program_c, 0, 50
2, 0, Control_c, 0, 7, 110
2, 0, Control_c, 0, 10, 64
2, 0, Control_c, 0, 121, 0
2, 0, Pitch_bend_c, 0, 8192
2, 0, Control_c, 0, 7, 110
2, 0, Control_c, 0, 91, 30
2, 0, Control_c, 0, 93, 0
2, 0, Note_on_c, 0, 76, 94
2, 20, Note_on_c, 0, 76, 0
2, 60, Note_on_c, 0, 77, 92
2, 80, Note_on_c, 0, 77, 0
2, 120, Note_on_c, 0, 78, 98
2, 140, Note_on_c, 0, 78, 0
2, 180, Note_on_c, 0, 79, 97
2, 200, Note_on_c, 0, 79, 0
2, 240, Note_on_c, 0, 81, 100
2, 300, Note_on_c, 0, 81, 0
2, 300, Note_on_c, 0, 79, 82
2, 320, Note_on_c, 0, 79, 0
2, 360, Note_on_c, 0, 77, 90
2, 380, Note_on_c, 0, 77, 0
2, 420, Note_on_c, 0, 76, 84
2, 436, Note_on_c, 0, 76, 0
2, 480, Note_on_c, 0, 74, 82
2, 525, Note_on_c, 0, 74, 0
2, 525, Note_on_c, 0, 76, 69
2, 540, Note_on_c, 0, 76, 0
2, 540, Note_on_c, 0, 74, 78
2, 570, Note_on_c, 0, 74, 0
2, 570, Note_on_c, 0, 72, 73
2, 595, Note_on_c, 0, 72, 0
2, 600, Note_on_c, 0, 74, 93
2, 615, Note_on_c, 0, 74, 0
2, 660, Note_on_c, 0, 74, 92
2, 670, Note_on_c, 0, 74, 0
2, 720, Note_on_c, 0, 74, 83
2, 837, Note_on_c, 0, 74, 0
2, 840, Note_on_c, 0, 76, 71
2, 900, Note_on_c, 0, 76, 0
2, 900, Note_on_c, 0, 72, 66
2, 920, Note_on_c, 0, 72, 0
2, 960, Note_on_c, 0, 76, 88
2, 980, Note_on_c, 0, 76, 0
2, 1020, Note_on_c, 0, 77, 88
2, 1040, Note_on_c, 0, 77, 0
2, 1080, Note_on_c, 0, 78, 90
2, 1096, Note_on_c, 0, 78, 0
2, 1140, Note_on_c, 0, 79, 90
2, 1157, Note_on_c, 0, 79, 0
2, 1200, Note_on_c, 0, 81, 103
2, 1260, Note_on_c, 0, 81, 0
2, 1260, Note_on_c, 0, 79, 81
2, 1280, Note_on_c, 0, 79, 0
2, 1320, Note_on_c, 0, 77, 90
2, 1340, Note_on_c, 0, 77, 0
2, 1380, Note_on_c, 0, 76, 84
2, 1396, Note_on_c, 0, 76, 0
2, 1440, Note_on_c, 0, 74, 92
2, 1485, Note_on_c, 0, 74, 0
2, 1485, Note_on_c, 0, 76, 87
2, 1500, Note_on_c, 0, 76, 0
2, 1500, Note_on_c, 0, 74, 95
2, 1530, Note_on_c, 0, 74, 0
2, 1530, Note_on_c, 0, 72, 86
2, 1555, Note_on_c, 0, 72, 0
2, 1560, Note_on_c, 0, 74, 90
2, 1577, Note_on_c, 0, 74, 0
2, 1620, Note_on_c, 0, 76, 84
2, 1640, Note_on_c, 0, 76, 0
2, 1680, Note_on_c, 0, 72, 73
2, 1786, Note_on_c, 0, 72, 0
2, 1920, Note_on_c, 0, 76, 99
2, 1955, Note_on_c, 0, 76, 0
2, 1980, Note_on_c, 0, 77, 102
2, 2005, Note_on_c, 0, 77, 0
2, 2040, Note_on_c, 0, 78, 108
2, 2055, Note_on_c, 0, 78, 0
2, 2100, Note_on_c, 0, 79, 101
2, 2116, Note_on_c, 0, 79, 0
2, 2160, Note_on_c, 0, 81, 102
2, 2220, Note_on_c, 0, 79, 102
2, 2225, Note_on_c, 0, 81, 0
2, 2240, Note_on_c, 0, 79, 0
2, 2280, Note_on_c, 0, 77, 110
2, 2300, Note_on_c, 0, 77, 0
2, 2340, Note_on_c, 0, 76, 104
2, 2356, Note_on_c, 0, 76, 0
2, 2400, Note_on_c, 0, 74, 102
2, 2445, Note_on_c, 0, 74, 0
2, 2445, Note_on_c, 0, 76, 89
2, 2460, Note_on_c, 0, 76, 0
2, 2460, Note_on_c, 0, 74, 88
2, 2477, Note_on_c, 0, 74, 0
2, 2490, Note_on_c, 0, 72, 83
2, 2515, Note_on_c, 0, 72, 0
2, 2520, Note_on_c, 0, 74, 103
2, 2535, Note_on_c, 0, 74, 0
2, 2580, Note_on_c, 0, 74, 102
2, 2590, Note_on_c, 0, 74, 0
2, 2640, Note_on_c, 0, 74, 93
2, 2757, Note_on_c, 0, 74, 0
2, 2760, Note_on_c, 0, 76, 95
2, 2780, Note_on_c, 0, 76, 0
2, 2820, Note_on_c, 0, 72, 94
2, 2840, Note_on_c, 0, 72, 0
2, 2880, Note_on_c, 0, 76, 101
2, 2900, Note_on_c, 0, 76, 0
2, 2940, Note_on_c, 0, 77, 98
2, 2960, Note_on_c, 0, 77, 0
2, 3000, Note_on_c, 0, 78, 110
2, 3016, Note_on_c, 0, 78, 0
2, 3060, Note_on_c, 0, 79, 100
2, 3077, Note_on_c, 0, 79, 0
2, 3120, Note_on_c, 0, 81, 103
2, 3180, Note_on_c, 0, 79, 97
2, 3185, Note_on_c, 0, 81, 0
2, 3200, Note_on_c, 0, 79, 0
2, 3240, Note_on_c, 0, 77, 100
2, 3260, Note_on_c, 0, 77, 0
2, 3300, Note_on_c, 0, 76, 94
2, 3316, Note_on_c, 0, 76, 0
2, 3360, Note_on_c, 0, 74, 102
2, 3405, Note_on_c, 0, 74, 0
2, 3405, Note_on_c, 0, 76, 87
2, 3420, Note_on_c, 0, 76, 0
2, 3420, Note_on_c, 0, 74, 95
2, 3450, Note_on_c, 0, 74, 0
2, 3450, Note_on_c, 0, 72, 86
2, 3475, Note_on_c, 0, 72, 0
2, 3480, Note_on_c, 0, 74, 100
2, 3497, Note_on_c, 0, 74, 0
2, 3540, Note_on_c, 0, 76, 105
2, 3560, Note_on_c, 0, 76, 0
2, 3600, Note_on_c, 0, 72, 87
2, 3706, Note_on_c, 0, 72, 0
2, 3840, Note_on_c, 0, 74, 88
2, 3856, Note_on_c, 0, 74, 0
2, 3896, Note_on_c, 0, 75, 77
2, 3916, Note_on_c, 0, 75, 0
2, 3960, Note_on_c, 0, 76, 92
2, 3980, Note_on_c, 0, 76, 0
2, 4020, Note_on_c, 0, 77, 78
2, 4037, Note_on_c, 0, 77, 0
2, 4080, Note_on_c, 0, 79, 88
2, 4140, Note_on_c, 0, 77, 87
2, 4145, Note_on_c, 0, 79, 0
2, 4170, Note_on_c, 0, 77, 0
2, 4200, Note_on_c, 0, 74, 84
2, 4275, Note_on_c, 0, 74, 0
2, 4740, Note_on_c, 0, 74, 80
2, 4762, Note_on_c, 0, 74, 0
2, 4800, Note_on_c, 0, 75, 98
2, 4816, Note_on_c, 0, 75, 0
2, 4860, Note_on_c, 0, 76, 92
2, 4880, Note_on_c, 0, 76, 0
2, 4920, Note_on_c, 0, 77, 103
2, 4940, Note_on_c, 0, 77, 0
2, 4980, Note_on_c, 0, 78, 100
2, 4996, Note_on_c, 0, 78, 0
2, 5040, Note_on_c, 0, 81, 98
2, 5100, Note_on_c, 0, 81, 0
2, 5100, Note_on_c, 0, 79, 95
2, 5135, Note_on_c, 0, 79, 0
2, 5160, Note_on_c, 0, 76, 91
2, 5225, Note_on_c, 0, 76, 0
2, 5700, Note_on_c, 0, 79, 105
2, 5716, Note_on_c, 0, 79, 0
2, 5760, Note_on_c, 0, 84, 123
2, 5775, Note_on_c, 0, 84, 0
2, 5820, Note_on_c, 0, 83, 122
2, 5835, Note_on_c, 0, 83, 0
2, 5880, Note_on_c, 0, 81, 122
2, 5895, Note_on_c, 0, 81, 0
2, 5940, Note_on_c, 0, 80, 123
2, 5955, Note_on_c, 0, 80, 0
2, 6000, Note_on_c, 0, 81, 117
2, 6025, Note_on_c, 0, 81, 0
2, 6060, Note_on_c, 0, 79, 105
2, 6081, Note_on_c, 0, 79, 0
2, 6120, Note_on_c, 0, 77, 117
2, 6136, Note_on_c, 0, 77, 0
2, 6180, Note_on_c, 0, 76, 103
2, 6200, Note_on_c, 0, 76, 0
2, 6240, Note_on_c, 0, 77, 113
2, 6265, Note_on_c, 0, 77, 0
2, 6300, Note_on_c, 0, 76, 110
2, 6320, Note_on_c, 0, 76, 0
2, 6360, Note_on_c, 0, 74, 118
2, 6381, Note_on_c, 0, 74, 0
2, 6420, Note_on_c, 0, 72, 110
2, 6437, Note_on_c, 0, 72, 0
2, 6480, Note_on_c, 0, 71, 108
2, 6480, Note_on_c, 0, 79, 108
2, 6600, Note_on_c, 0, 79, 0
2, 6600, Note_on_c, 0, 71, 0
2, 8401, Note_on_c, 0, 48, 77
2, 8521, Note_on_c, 0, 48, 0
2, 8640, Note_on_c, 0, 84, 112
2, 8760, Note_on_c, 0, 81, 104
2, 8765, Note_on_c, 0, 84, 0
2, 8880, Note_on_c, 0, 81, 0
2, 8880, Note_on_c, 0, 79, 102
2, 9060, Note_on_c, 0, 76, 112
2, 9062, Note_on_c, 0, 79, 0
2, 9090, Note_on_c, 0, 76, 0
2, 9090, Note_on_c, 0, 72, 104
2, 9120, Note_on_c, 0, 72, 0
2, 9120, Note_on_c, 0, 84, 117
2, 9240, Note_on_c, 0, 81, 102
2, 9250, Note_on_c, 0, 84, 0
2, 9360, Note_on_c, 0, 81, 0
2, 9360, Note_on_c, 0, 79, 107
2, 9536, Note_on_c, 0, 79, 0
2, 9540, Note_on_c, 0, 76, 107
2, 9565, Note_on_c, 0, 76, 0
2, 9570, Note_on_c, 0, 72, 108
2, 9600, Note_on_c, 0, 72, 0
2, 9600, Note_on_c, 0, 84, 118
2, 9720, Note_on_c, 0, 81, 100
2, 9725, Note_on_c, 0, 84, 0
2, 9840, Note_on_c, 0, 81, 0
2, 9840, Note_on_c, 0, 79, 118
2, 9885, Note_on_c, 0, 79, 0
2, 9900, Note_on_c, 0, 79, 120
2, 9915, Note_on_c, 0, 79, 0
2, 9960, Note_on_c, 0, 88, 115
2, 10080, Note_on_c, 0, 88, 0
2, 10140, Note_on_c, 0, 77, 108
2, 10155, Note_on_c, 0, 77, 0
2, 10200, Note_on_c, 0, 86, 112
2, 10310, Note_on_c, 0, 86, 0
2, 10380, Note_on_c, 0, 76, 117
2, 10390, Note_on_c, 0, 76, 0
2, 10440, Note_on_c, 0, 84, 107
2, 10555, Note_on_c, 0, 84, 0
2, 10620, Note_on_c, 0, 65, 118
2, 10630, Note_on_c, 0, 65, 0
2, 10680, Note_on_c, 0, 81, 115
2, 10782, Note_on_c, 0, 81, 0
2, 10860, Note_on_c, 0, 64, 112
2, 10870, Note_on_c, 0, 64, 0
2, 10920, Note_on_c, 0, 79, 113
2, 11011, Note_on_c, 0, 79, 0
2, 11100, Note_on_c, 0, 62, 81
2, 11160, Note_on_c, 0, 62, 0
2, 11160, Note_on_c, 0, 77, 93
2, 11220, Note_on_c, 0, 71, 83
2, 11221, Note_on_c, 0, 77, 0
2, 11280, Note_on_c, 0, 71, 0
2, 11280, Note_on_c, 0, 72, 89
2, 11402, Note_on_c, 0, 72, 0
2, 11520, Note_on_c, 0, 72, 47
2, 11640, Note_on_c, 0, 69, 46
2, 11645, Note_on_c, 0, 72, 0
2, 11760, Note_on_c, 0, 67, 46
2, 11770, Note_on_c, 0, 69, 0
2, 11940, Note_on_c, 0, 64, 50
2, 11947, Note_on_c, 0, 67, 0
2, 11965, Note_on_c, 0, 64, 0
2, 12000, Note_on_c, 0, 72, 53
2, 12120, Note_on_c, 0, 69, 46
2, 12127, Note_on_c, 0, 72, 0
2, 12240, Note_on_c, 0, 67, 46
2, 12245, Note_on_c, 0, 69, 0
2, 12420, Note_on_c, 0, 67, 0
2, 12420, Note_on_c, 0, 64, 46
2, 12456, Note_on_c, 0, 64, 0
2, 12480, Note_on_c, 0, 72, 53
2, 12597, Note_on_c, 0, 72, 0
2, 12600, Note_on_c, 0, 69, 62
2, 12720, Note_on_c, 0, 67, 54
2, 12722, Note_on_c, 0, 69, 0
2, 12816, Note_on_c, 0, 67, 0
2, 14160, Note_on_c, 0, 72, 112
2, 14310, Note_on_c, 0, 72, 0
2, 14310, Note_on_c, 0, 74, 112
2, 14340, Note_on_c, 0, 74, 0
2, 14340, Note_on_c, 0, 76, 105
2, 14370, Note_on_c, 0, 76, 0
2, 14370, Note_on_c, 0, 77, 102
2, 14400, Note_on_c, 0, 77, 0
2, 14400, Note_on_c, 0, 79, 113
2, 14580, Note_on_c, 0, 79, 0
2, 14580, Note_on_c, 0, 81, 100
2, 14610, Note_on_c, 0, 83, 107
2, 14616, Note_on_c, 0, 81, 0
2, 14640, Note_on_c, 0, 83, 0
2, 14640, Note_on_c, 0, 84, 110
2, 14820, Note_on_c, 0, 84, 0
2, 14820, Note_on_c, 0, 83, 99
2, 14850, Note_on_c, 0, 83, 0
2, 14850, Note_on_c, 0, 81, 107
2, 14880, Note_on_c, 0, 81, 0
2, 14880, Note_on_c, 0, 79, 110
2, 15030, Note_on_c, 0, 79, 0
2, 15030, Note_on_c, 0, 77, 96
2, 15060, Note_on_c, 0, 77, 0
2, 15060, Note_on_c, 0, 76, 96
2, 15090, Note_on_c, 0, 76, 0
2, 15090, Note_on_c, 0, 74, 104
2, 15120, Note_on_c, 0, 74, 0
2, 15120, Note_on_c, 0, 72, 108
2, 15240, Note_on_c, 0, 72, 0
2, 15240, Note_on_c, 0, 60, 108
2, 15315, Note_on_c, 0, 60, 0
2, 15330, Note_on_c, 0, 60, 110
2, 15345, Note_on_c, 0, 60, 0
2, 15356, Note_on_c, 0, 76, 94
2, 15360, Pitch_bend_c, 0, 8192
2, 15360, Control_c, 0, 64, 0
2, 15360, Control_c, 0, 93, 0
2, 15360, Control_c, 0, 91, 0
2, 15360, Note_on_c, 0, 60, 112
2, 15377, Note_on_c, 0, 76, 0
2, 15485, Note_on_c, 0, 60, 0
2, 19560, Control_c, 0, 121, 0
2, 19560, End_track
3, 0, Start_track
3, 0, MIDI_port, 0
3, 0, Title_t, "Strings49           "
3, 0, Program_c, 0, 50
3, 0, Control_c, 0, 7, 110
3, 0, Control_c, 0, 10, 64
3, 1, Pitch_bend_c, 0, 8192
3, 1, Control_c, 0, 121, 0
3, 1, Control_c, 0, 7, 110
3, 1, Control_c, 0, 91, 30
3, 1, Control_c, 0, 93, 0
3, 1, Note_on_c, 0, 60, 70
3, 19, Note_on_c, 0, 60, 0
3, 60, Note_on_c, 0, 62, 85
3, 81, Note_on_c, 0, 62, 0
3, 121, Note_on_c, 0, 63, 95
3, 136, Note_on_c, 0, 63, 0
3, 176, Note_on_c, 0, 64, 87
3, 191, Note_on_c, 0, 64, 0
3, 240, Note_on_c, 0, 65, 101
3, 306, Note_on_c, 0, 64, 90
3, 310, Note_on_c, 0, 65, 0
3, 321, Note_on_c, 0, 64, 0
3, 365, Note_on_c, 0, 62, 85
3, 385, Note_on_c, 0, 62, 0
3, 420, Note_on_c, 0, 60, 82
3, 435, Note_on_c, 0, 60, 0
3, 480, Note_on_c, 0, 59, 95
3, 525, Note_on_c, 0, 59, 0
3, 525, Note_on_c, 0, 60, 86
3, 540, Note_on_c, 0, 60, 0
3, 540, Note_on_c, 0, 59, 87
3, 570, Note_on_c, 0, 59, 0
3, 570, Note_on_c, 0, 57, 78
3, 600, Note_on_c, 0, 57, 0
3, 600, Note_on_c, 0, 59, 87
3, 615, Note_on_c, 0, 59, 0
3, 660, Note_on_c, 0, 59, 93
3, 675, Note_on_c, 0, 59, 0
3, 720, Note_on_c, 0, 59, 84
3, 835, Note_on_c, 0, 59, 0
3, 840, Note_on_c, 0, 60, 85
3, 875, Note_on_c, 0, 60, 0
3, 965, Note_on_c, 0, 60, 92
3, 985, Note_on_c, 0, 60, 0
3, 1020, Note_on_c, 0, 62, 82
3, 1037, Note_on_c, 0, 62, 0
3, 1080, Note_on_c, 0, 63, 100
3, 1096, Note_on_c, 0, 63, 0
3, 1140, Note_on_c, 0, 64, 89
3, 1155, Note_on_c, 0, 64, 0
3, 1195, Note_on_c, 0, 65, 108
3, 1260, Note_on_c, 0, 65, 0
3, 1260, Note_on_c, 0, 64, 90
3, 1275, Note_on_c, 0, 64, 0
3, 1321, Note_on_c, 0, 62, 85
3, 1342, Note_on_c, 0, 62, 0
3, 1381, Note_on_c, 0, 60, 80
3, 1396, Note_on_c, 0, 60, 0
3, 1440, Note_on_c, 0, 59, 97
3, 1485, Note_on_c, 0, 59, 0
3, 1485, Note_on_c, 0, 60, 92
3, 1500, Note_on_c, 0, 59, 90
3, 1510, Note_on_c, 0, 60, 0
3, 1530, Note_on_c, 0, 59, 0
3, 1530, Note_on_c, 0, 57, 77
3, 1560, Note_on_c, 0, 57, 0
3, 1560, Note_on_c, 0, 59, 95
3, 1590, Note_on_c, 0, 59, 0
3, 1620, Note_on_c, 0, 55, 78
3, 1640, Note_on_c, 0, 55, 0
3, 1681, Note_on_c, 0, 60, 78
3, 1794, Note_on_c, 0, 60, 0
3, 1921, Note_on_c, 0, 60, 80
3, 1939, Note_on_c, 0, 60, 0
3, 1980, Note_on_c, 0, 62, 95
3, 2001, Note_on_c, 0, 62, 0
3, 2041, Note_on_c, 0, 63, 105
3, 2056, Note_on_c, 0, 63, 0
3, 2096, Note_on_c, 0, 64, 97
3, 2111, Note_on_c, 0, 64, 0
3, 2160, Note_on_c, 0, 65, 99
3, 2220, Note_on_c, 0, 65, 0
3, 2220, Note_on_c, 0, 64, 100
3, 2240, Note_on_c, 0, 64, 0
3, 2280, Note_on_c, 0, 62, 95
3, 2300, Note_on_c, 0, 62, 0
3, 2340, Note_on_c, 0, 60, 92
3, 2360, Note_on_c, 0, 60, 0
3, 2400, Note_on_c, 0, 59, 105
3, 2445, Note_on_c, 0, 59, 0
3, 2445, Note_on_c, 0, 60, 96
3, 2460, Note_on_c, 0, 60, 0
3, 2460, Note_on_c, 0, 59, 97
3, 2480, Note_on_c, 0, 59, 0
3, 2490, Note_on_c, 0, 57, 88
3, 2515, Note_on_c, 0, 57, 0
3, 2520, Note_on_c, 0, 59, 97
3, 2540, Note_on_c, 0, 59, 0
3, 2580, Note_on_c, 0, 59, 103
3, 2600, Note_on_c, 0, 59, 0
3, 2642, Note_on_c, 0, 59, 94
3, 2756, Note_on_c, 0, 60, 95
3, 2758, Note_on_c, 0, 59, 0
3, 2786, Note_on_c, 0, 60, 0
3, 2885, Note_on_c, 0, 60, 102
3, 2905, Note_on_c, 0, 60, 0
3, 2940, Note_on_c, 0, 62, 92
3, 2957, Note_on_c, 0, 62, 0
3, 3000, Note_on_c, 0, 63, 110
3, 3016, Note_on_c, 0, 63, 0
3, 3060, Note_on_c, 0, 64, 99
3, 3075, Note_on_c, 0, 64, 0
3, 3115, Note_on_c, 0, 65, 105
3, 3180, Note_on_c, 0, 65, 0
3, 3180, Note_on_c, 0, 64, 100
3, 3210, Note_on_c, 0, 64, 0
3, 3241, Note_on_c, 0, 62, 95
3, 3262, Note_on_c, 0, 62, 0
3, 3300, Note_on_c, 0, 60, 90
3, 3320, Note_on_c, 0, 60, 0
3, 3360, Note_on_c, 0, 59, 87
3, 3405, Note_on_c, 0, 59, 0
3, 3405, Note_on_c, 0, 60, 92
3, 3420, Note_on_c, 0, 59, 90
3, 3430, Note_on_c, 0, 60, 0
3, 3450, Note_on_c, 0, 59, 0
3, 3450, Note_on_c, 0, 57, 87
3, 3480, Note_on_c, 0, 57, 0
3, 3480, Note_on_c, 0, 59, 95
3, 3500, Note_on_c, 0, 59, 0
3, 3540, Note_on_c, 0, 55, 88
3, 3560, Note_on_c, 0, 55, 0
3, 3601, Note_on_c, 0, 60, 88
3, 3714, Note_on_c, 0, 60, 0
3, 3840, Note_on_c, 0, 59, 83
3, 3870, Note_on_c, 0, 59, 0
3, 3900, Note_on_c, 0, 60, 80
3, 3920, Note_on_c, 0, 60, 0
3, 3960, Note_on_c, 0, 61, 103
3, 3975, Note_on_c, 0, 61, 0
3, 4016, Note_on_c, 0, 62, 90
3, 4041, Note_on_c, 0, 62, 0
3, 4080, Note_on_c, 0, 64, 94
3, 4131, Note_on_c, 0, 62, 87
3, 4135, Note_on_c, 0, 64, 0
3, 4161, Note_on_c, 0, 62, 0
3, 4200, Note_on_c, 0, 59, 81
3, 4266, Note_on_c, 0, 59, 0
3, 4740, Note_on_c, 0, 59, 90
3, 4755, Note_on_c, 0, 59, 0
3, 4800, Note_on_c, 0, 60, 105
3, 4815, Note_on_c, 0, 60, 0
3, 4860, Note_on_c, 0, 61, 97
3, 4875, Note_on_c, 0, 61, 0
3, 4920, Note_on_c, 0, 62, 106
3, 4940, Note_on_c, 0, 62, 0
3, 4980, Note_on_c, 0, 63, 97
3, 5000, Note_on_c, 0, 63, 0
3, 5040, Note_on_c, 0, 65, 97
3, 5100, Note_on_c, 0, 64, 90
3, 5110, Note_on_c, 0, 65, 0
3, 5121, Note_on_c, 0, 64, 0
3, 5160, Note_on_c, 0, 60, 94
3, 5196, Note_on_c, 0, 60, 0
3, 5700, Note_on_c, 0, 67, 113
3, 5720, Note_on_c, 0, 67, 0
3, 5760, Note_on_c, 0, 72, 117
3, 5790, Note_on_c, 0, 72, 0
3, 5820, Note_on_c, 0, 71, 115
3, 5845, Note_on_c, 0, 71, 0
3, 5880, Note_on_c, 0, 69, 117
3, 5905, Note_on_c, 0, 69, 0
3, 5940, Note_on_c, 0, 68, 109
3, 5965, Note_on_c, 0, 68, 0
3, 6000, Note_on_c, 0, 69, 117
3, 6026, Note_on_c, 0, 69, 0
3, 6060, Note_on_c, 0, 67, 115
3, 6081, Note_on_c, 0, 67, 0
3, 6120, Note_on_c, 0, 65, 115
3, 6145, Note_on_c, 0, 65, 0
3, 6180, Note_on_c, 0, 64, 107
3, 6207, Note_on_c, 0, 64, 0
3, 6240, Note_on_c, 0, 65, 118
3, 6270, Note_on_c, 0, 65, 0
3, 6300, Note_on_c, 0, 64, 118
3, 6320, Note_on_c, 0, 64, 0
3, 6360, Note_on_c, 0, 62, 122
3, 6385, Note_on_c, 0, 62, 0
3, 6420, Note_on_c, 0, 60, 120
3, 6441, Note_on_c, 0, 60, 0
3, 6480, Note_on_c, 0, 67, 99
3, 6480, Note_on_c, 0, 59, 113
3, 6600, Note_on_c, 0, 59, 0
3, 6600, Note_on_c, 0, 67, 0
3, 6960, Note_on_c, 0, 52, 70
3, 7080, Note_on_c, 0, 52, 0
3, 7205, Note_on_c, 0, 53, 68
3, 7325, Note_on_c, 0, 53, 0
3, 7440, Note_on_c, 0, 53, 67
3, 7560, Note_on_c, 0, 53, 0
3, 7560, Note_on_c, 0, 52, 70
3, 7625, Note_on_c, 0, 52, 0
3, 7920, Note_on_c, 0, 52, 66
3, 8040, Note_on_c, 0, 52, 0
3, 8161, Note_on_c, 0, 53, 68
3, 8281, Note_on_c, 0, 53, 0
3, 8400, Note_on_c, 0, 64, 118
3, 8405, Note_on_c, 0, 64, 0
3, 8430, Note_on_c, 0, 64, 114
3, 8435, Note_on_c, 0, 64, 0
3, 8460, Note_on_c, 0, 64, 114
3, 8465, Note_on_c, 0, 64, 0
3, 8490, Note_on_c, 0, 64, 107
3, 8495, Note_on_c, 0, 64, 0
3, 8520, Note_on_c, 0, 64, 117
3, 8525, Note_on_c, 0, 64, 0
3, 8550, Note_on_c, 0, 64, 118
3, 8555, Note_on_c, 0, 64, 0
3, 8580, Note_on_c, 0, 64, 114
3, 8585, Note_on_c, 0, 64, 0
3, 8610, Note_on_c, 0, 64, 118
3, 8615, Note_on_c, 0, 64, 0
3, 8640, Note_on_c, 0, 65, 117
3, 8645, Note_on_c, 0, 65, 0
3, 8670, Note_on_c, 0, 65, 127
3, 8675, Note_on_c, 0, 65, 0
3, 8700, Note_on_c, 0, 65, 117
3, 8705, Note_on_c, 0, 65, 0
3, 8730, Note_on_c, 0, 65, 123
3, 8735, Note_on_c, 0, 65, 0
3, 8760, Note_on_c, 0, 65, 120
3, 8765, Note_on_c, 0, 65, 0
3, 8790, Note_on_c, 0, 65, 117
3, 8795, Note_on_c, 0, 65, 0
3, 8820, Note_on_c, 0, 65, 114
3, 8825, Note_on_c, 0, 65, 0
3, 8850, Note_on_c, 0, 65, 115
3, 8855, Note_on_c, 0, 65, 0
3, 8880, Note_on_c, 0, 64, 127
3, 8885, Note_on_c, 0, 64, 0
3, 8910, Note_on_c, 0, 64, 114
3, 8915, Note_on_c, 0, 64, 0
3, 8940, Note_on_c, 0, 64, 114
3, 8945, Note_on_c, 0, 64, 0
3, 8970, Note_on_c, 0, 64, 117
3, 8975, Note_on_c, 0, 64, 0
3, 9000, Note_on_c, 0, 64, 117
3, 9005, Note_on_c, 0, 64, 0
3, 9030, Note_on_c, 0, 64, 118
3, 9035, Note_on_c, 0, 64, 0
3, 9060, Note_on_c, 0, 64, 114
3, 9065, Note_on_c, 0, 64, 0
3, 9090, Note_on_c, 0, 64, 118
3, 9095, Note_on_c, 0, 64, 0
3, 9120, Note_on_c, 0, 65, 117
3, 9125, Note_on_c, 0, 65, 0
3, 9150, Note_on_c, 0, 65, 127
3, 9155, Note_on_c, 0, 65, 0
3, 9180, Note_on_c, 0, 65, 117
3, 9185, Note_on_c, 0, 65, 0
3, 9210, Note_on_c, 0, 65, 124
3, 9215, Note_on_c, 0, 65, 0
3, 9240, Note_on_c, 0, 65, 120
3, 9245, Note_on_c, 0, 65, 0
3, 9270, Note_on_c, 0, 65, 107
3, 9275, Note_on_c, 0, 65, 0
3, 9300, Note_on_c, 0, 65, 114
3, 9305, Note_on_c, 0, 65, 0
3, 9330, Note_on_c, 0, 65, 115
3, 9335, Note_on_c, 0, 65, 0
3, 9360, Note_on_c, 0, 64, 127
3, 9365, Note_on_c, 0, 64, 0
3, 9390, Note_on_c, 0, 64, 114
3, 9395, Note_on_c, 0, 64, 0
3, 9420, Note_on_c, 0, 64, 114
3, 9425, Note_on_c, 0, 64, 0
3, 9450, Note_on_c, 0, 64, 107
3, 9455, Note_on_c, 0, 64, 0
3, 9480, Note_on_c, 0, 64, 117
3, 9485, Note_on_c, 0, 64, 0
3, 9510, Note_on_c, 0, 64, 118
3, 9515, Note_on_c, 0, 64, 0
3, 9540, Note_on_c, 0, 64, 114
3, 9545, Note_on_c, 0, 64, 0
3, 9570, Note_on_c, 0, 64, 118
3, 9575, Note_on_c, 0, 64, 0
3, 9600, Note_on_c, 0, 69, 120
3, 9605, Note_on_c, 0, 69, 0
3, 9630, Note_on_c, 0, 69, 118
3, 9635, Note_on_c, 0, 69, 0
3, 9660, Note_on_c, 0, 69, 107
3, 9665, Note_on_c, 0, 69, 0
3, 9690, Note_on_c, 0, 69, 117
3, 9695, Note_on_c, 0, 69, 0
3, 9720, Note_on_c, 0, 69, 116
3, 9725, Note_on_c, 0, 69, 0
3, 9750, Note_on_c, 0, 69, 114
3, 9755, Note_on_c, 0, 69, 0
3, 9780, Note_on_c, 0, 69, 115
3, 9785, Note_on_c, 0, 69, 0
3, 9810, Note_on_c, 0, 69, 114
3, 9815, Note_on_c, 0, 69, 0
3, 9840, Note_on_c, 0, 67, 120
3, 9845, Note_on_c, 0, 67, 0
3, 9870, Note_on_c, 0, 67, 109
3, 9875, Note_on_c, 0, 67, 0
3, 9900, Note_on_c, 0, 67, 114
3, 9905, Note_on_c, 0, 67, 0
3, 9930, Note_on_c, 0, 67, 109
3, 9935, Note_on_c, 0, 67, 0
3, 9960, Note_on_c, 0, 67, 115
3, 9965, Note_on_c, 0, 67, 0
3, 9990, Note_on_c, 0, 67, 116
3, 9995, Note_on_c, 0, 67, 0
3, 10020, Note_on_c, 0, 67, 110
3, 10025, Note_on_c, 0, 67, 0
3, 10050, Note_on_c, 0, 67, 117
3, 10055, Note_on_c, 0, 67, 0
3, 10080, Note_on_c, 0, 71, 123
3, 10085, Note_on_c, 0, 71, 0
3, 10110, Note_on_c, 0, 71, 106
3, 10115, Note_on_c, 0, 71, 0
3, 10140, Note_on_c, 0, 71, 106
3, 10145, Note_on_c, 0, 71, 0
3, 10170, Note_on_c, 0, 71, 110
3, 10175, Note_on_c, 0, 71, 0
3, 10200, Note_on_c, 0, 71, 112
3, 10205, Note_on_c, 0, 71, 0
3, 10230, Note_on_c, 0, 71, 112
3, 10235, Note_on_c, 0, 71, 0
3, 10260, Note_on_c, 0, 71, 110
3, 10265, Note_on_c, 0, 71, 0
3, 10290, Note_on_c, 0, 71, 115
3, 10295, Note_on_c, 0, 71, 0
3, 10320, Note_on_c, 0, 72, 122
3, 10325, Note_on_c, 0, 72, 0
3, 10350, Note_on_c, 0, 72, 110
3, 10355, Note_on_c, 0, 72, 0
3, 10380, Note_on_c, 0, 72, 120
3, 10385, Note_on_c, 0, 72, 0
3, 10410, Note_on_c, 0, 72, 115
3, 10415, Note_on_c, 0, 72, 0
3, 10440, Note_on_c, 0, 72, 107
3, 10445, Note_on_c, 0, 72, 0
3, 10470, Note_on_c, 0, 72, 110
3, 10475, Note_on_c, 0, 72, 0
3, 10500, Note_on_c, 0, 72, 110
3, 10505, Note_on_c, 0, 72, 0
3, 10530, Note_on_c, 0, 72, 112
3, 10535, Note_on_c, 0, 72, 0
3, 10560, Note_on_c, 0, 74, 114
3, 10565, Note_on_c, 0, 74, 0
3, 10590, Note_on_c, 0, 74, 115
3, 10595, Note_on_c, 0, 74, 0
3, 10620, Note_on_c, 0, 74, 110
3, 10625, Note_on_c, 0, 74, 0
3, 10650, Note_on_c, 0, 74, 114
3, 10655, Note_on_c, 0, 74, 0
3, 10680, Note_on_c, 0, 74, 110
3, 10685, Note_on_c, 0, 74, 0
3, 10710, Note_on_c, 0, 74, 114
3, 10715, Note_on_c, 0, 74, 0
3, 10740, Note_on_c, 0, 74, 110
3, 10745, Note_on_c, 0, 74, 0
3, 10770, Note_on_c, 0, 74, 111
3, 10775, Note_on_c, 0, 74, 0
3, 10800, Note_on_c, 0, 72, 112
3, 10805, Note_on_c, 0, 72, 0
3, 10830, Note_on_c, 0, 72, 110
3, 10835, Note_on_c, 0, 72, 0
3, 10860, Note_on_c, 0, 72, 109
3, 10865, Note_on_c, 0, 72, 0
3, 10890, Note_on_c, 0, 72, 110
3, 10895, Note_on_c, 0, 72, 0
3, 10920, Note_on_c, 0, 72, 120
3, 10925, Note_on_c, 0, 72, 0
3, 10950, Note_on_c, 0, 72, 117
3, 10955, Note_on_c, 0, 72, 0
3, 10980, Note_on_c, 0, 72, 114
3, 10985, Note_on_c, 0, 72, 0
3, 11010, Note_on_c, 0, 72, 118
3, 11015, Note_on_c, 0, 72, 0
3, 11040, Note_on_c, 0, 71, 122
3, 11045, Note_on_c, 0, 71, 0
3, 11070, Note_on_c, 0, 71, 111
3, 11075, Note_on_c, 0, 71, 0
3, 11100, Note_on_c, 0, 71, 118
3, 11105, Note_on_c, 0, 71, 0
3, 11130, Note_on_c, 0, 71, 110
3, 11135, Note_on_c, 0, 71, 0
3, 11160, Note_on_c, 0, 65, 117
3, 11165, Note_on_c, 0, 65, 0
3, 11190, Note_on_c, 0, 65, 106
3, 11195, Note_on_c, 0, 65, 0
3, 11220, Note_on_c, 0, 65, 114
3, 11225, Note_on_c, 0, 65, 0
3, 11250, Note_on_c, 0, 65, 110
3, 11255, Note_on_c, 0, 65, 0
3, 11280, Note_on_c, 0, 64, 88
3, 11405, Note_on_c, 0, 64, 0
3, 11520, Note_on_c, 0, 69, 56
3, 11630, Note_on_c, 0, 69, 0
3, 11640, Note_on_c, 0, 65, 46
3, 11760, Note_on_c, 0, 64, 46
3, 11775, Note_on_c, 0, 65, 0
3, 11940, Note_on_c, 0, 60, 50
3, 11946, Note_on_c, 0, 64, 0
3, 11996, Note_on_c, 0, 60, 0
3, 12000, Note_on_c, 0, 69, 57
3, 12116, Note_on_c, 0, 69, 0
3, 12120, Note_on_c, 0, 65, 46
3, 12240, Note_on_c, 0, 64, 52
3, 12250, Note_on_c, 0, 65, 0
3, 12420, Note_on_c, 0, 64, 0
3, 12420, Note_on_c, 0, 60, 46
3, 12470, Note_on_c, 0, 60, 0
3, 12480, Note_on_c, 0, 69, 50
3, 12600, Note_on_c, 0, 65, 46
3, 12607, Note_on_c, 0, 69, 0
3, 12707, Note_on_c, 0, 65, 0
3, 12720, Note_on_c, 0, 64, 46
3, 12821, Note_on_c, 0, 64, 0
3, 14160, Note_on_c, 0, 72, 92
3, 14310, Note_on_c, 0, 72, 0
3, 14310, Note_on_c, 0, 74, 92
3, 14340, Note_on_c, 0, 74, 0
3, 14340, Note_on_c, 0, 76, 95
3, 14370, Note_on_c, 0, 76, 0
3, 14370, Note_on_c, 0, 77, 102
3, 14400, Note_on_c, 0, 77, 0
3, 14400, Note_on_c, 0, 79, 113
3, 14580, Note_on_c, 0, 79, 0
3, 14580, Note_on_c, 0, 81, 100
3, 14610, Note_on_c, 0, 83, 107
3, 14616, Note_on_c, 0, 81, 0
3, 14640, Note_on_c, 0, 83, 0
3, 14640, Note_on_c, 0, 84, 110
3, 14820, Note_on_c, 0, 84, 0
3, 14820, Note_on_c, 0, 83, 99
3, 14850, Note_on_c, 0, 83, 0
3, 14850, Note_on_c, 0, 81, 107
3, 14880, Note_on_c, 0, 81, 0
3, 14880, Note_on_c, 0, 79, 110
3, 15030, Note_on_c, 0, 79, 0
3, 15030, Note_on_c, 0, 77, 96
3, 15060, Note_on_c, 0, 77, 0
3, 15060, Note_on_c, 0, 76, 96
3, 15090, Note_on_c, 0, 76, 0
3, 15090, Note_on_c, 0, 74, 104
3, 15120, Note_on_c, 0, 74, 0
3, 15120, Note_on_c, 0, 72, 108
3, 15240, Note_on_c, 0, 72, 0
3, 15240, Note_on_c, 0, 60, 118
3, 15320, Note_on_c, 0, 60, 0
3, 15330, Note_on_c, 0, 60, 120
3, 15360, Note_on_c, 0, 60, 0
3, 15360, Note_on_c, 0, 60, 112
3, 15485, Note_on_c, 0, 60, 0
3, 15485, End_track
4, 0, Start_track
4, 0, MIDI_port, 0
4, 0, Title_t, "Strings49           "
4, 0, Program_c, 0, 50
4, 0, Control_c, 0, 7, 110
4, 0, Control_c, 0, 10, 64
4, 240, Control_c, 0, 121, 0
4, 240, Pitch_bend_c, 0, 8192
4, 240, Control_c, 0, 7, 110
4, 240, Control_c, 0, 91, 100
4, 240, Control_c, 0, 93, 0
4, 240, Note_on_c, 0, 60, 60
4, 360, Note_on_c, 0, 60, 0
4, 485, Note_on_c, 0, 55, 58
4, 605, Note_on_c, 0, 55, 0
4, 720, Note_on_c, 0, 48, 57
4, 840, Note_on_c, 0, 48, 0
4, 1200, Note_on_c, 0, 60, 76
4, 1320, Note_on_c, 0, 60, 0
4, 1441, Note_on_c, 0, 55, 68
4, 1561, Note_on_c, 0, 55, 0
4, 1681, Note_on_c, 0, 48, 57
4, 1801, Note_on_c, 0, 48, 0
4, 2160, Note_on_c, 0, 60, 60
4, 2280, Note_on_c, 0, 60, 0
4, 2405, Note_on_c, 0, 55, 58
4, 2525, Note_on_c, 0, 55, 0
4, 2640, Note_on_c, 0, 48, 57
4, 2760, Note_on_c, 0, 48, 0
4, 3120, Note_on_c, 0, 60, 76
4, 3240, Note_on_c, 0, 60, 0
4, 3361, Note_on_c, 0, 55, 68
4, 3481, Note_on_c, 0, 55, 0
4, 3601, Note_on_c, 0, 48, 57
4, 3721, Note_on_c, 0, 48, 0
4, 4080, Note_on_c, 0, 55, 72
4, 4200, Note_on_c, 0, 55, 0
4, 5040, Note_on_c, 0, 48, 70
4, 5160, Note_on_c, 0, 48, 0
4, 5760, Note_on_c, 0, 60, 98
4, 5790, Note_on_c, 0, 60, 0
4, 5820, Note_on_c, 0, 59, 93
4, 5846, Note_on_c, 0, 59, 0
4, 5880, Note_on_c, 0, 57, 90
4, 5907, Note_on_c, 0, 57, 0
4, 5940, Note_on_c, 0, 56, 102
4, 5965, Note_on_c, 0, 56, 0
4, 6000, Note_on_c, 0, 57, 103
4, 6031, Note_on_c, 0, 57, 0
4, 6060, Note_on_c, 0, 55, 95
4, 6080, Note_on_c, 0, 55, 0
4, 6120, Note_on_c, 0, 53, 105
4, 6145, Note_on_c, 0, 53, 0
4, 6180, Note_on_c, 0, 52, 92
4, 6205, Note_on_c, 0, 52, 0
4, 6240, Note_on_c, 0, 53, 102
4, 6265, Note_on_c, 0, 53, 0
4, 6300, Note_on_c, 0, 52, 100
4, 6320, Note_on_c, 0, 52, 0
4, 6360, Note_on_c, 0, 50, 110
4, 6377, Note_on_c, 0, 50, 0
4, 6420, Note_on_c, 0, 48, 95
4, 6440, Note_on_c, 0, 48, 0
4, 6480, Note_on_c, 0, 55, 90
4, 6595, Note_on_c, 0, 55, 0
4, 6960, Note_on_c, 0, 60, 66
4, 7080, Note_on_c, 0, 60, 0
4, 7205, Note_on_c, 0, 62, 66
4, 7325, Note_on_c, 0, 62, 0
4, 7440, Note_on_c, 0, 67, 66
4, 7620, Note_on_c, 0, 67, 0
4, 7920, Note_on_c, 0, 60, 66
4, 8040, Note_on_c, 0, 60, 0
4, 8161, Note_on_c, 0, 62, 66
4, 8281, Note_on_c, 0, 62, 0
4, 8400, Note_on_c, 0, 55, 108
4, 8405, Note_on_c, 0, 55, 0
4, 8430, Note_on_c, 0, 55, 104
4, 8435, Note_on_c, 0, 55, 0
4, 8460, Note_on_c, 0, 55, 94
4, 8465, Note_on_c, 0, 55, 0
4, 8490, Note_on_c, 0, 55, 97
4, 8495, Note_on_c, 0, 55, 0
4, 8520, Note_on_c, 0, 55, 107
4, 8525, Note_on_c, 0, 55, 0
4, 8550, Note_on_c, 0, 55, 108
4, 8555, Note_on_c, 0, 55, 0
4, 8580, Note_on_c, 0, 55, 104
4, 8585, Note_on_c, 0, 55, 0
4, 8610, Note_on_c, 0, 55, 108
4, 8615, Note_on_c, 0, 55, 0
4, 8640, Note_on_c, 0, 57, 107
4, 8645, Note_on_c, 0, 57, 0
4, 8670, Note_on_c, 0, 57, 118
4, 8675, Note_on_c, 0, 57, 0
4, 8700, Note_on_c, 0, 57, 107
4, 8705, Note_on_c, 0, 57, 0
4, 8730, Note_on_c, 0, 57, 124
4, 8735, Note_on_c, 0, 57, 0
4, 8760, Note_on_c, 0, 57, 110
4, 8765, Note_on_c, 0, 57, 0
4, 8790, Note_on_c, 0, 57, 97
4, 8795, Note_on_c, 0, 57, 0
4, 8820, Note_on_c, 0, 57, 104
4, 8825, Note_on_c, 0, 57, 0
4, 8850, Note_on_c, 0, 57, 105
4, 8855, Note_on_c, 0, 57, 0
4, 8880, Note_on_c, 0, 55, 118
4, 8885, Note_on_c, 0, 55, 0
4, 8910, Note_on_c, 0, 55, 104
4, 8915, Note_on_c, 0, 55, 0
4, 8940, Note_on_c, 0, 55, 104
4, 8945, Note_on_c, 0, 55, 0
4, 8970, Note_on_c, 0, 55, 97
4, 8975, Note_on_c, 0, 55, 0
4, 9000, Note_on_c, 0, 55, 107
4, 9005, Note_on_c, 0, 55, 0
4, 9030, Note_on_c, 0, 55, 108
4, 9035, Note_on_c, 0, 55, 0
4, 9060, Note_on_c, 0, 55, 104
4, 9065, Note_on_c, 0, 55, 0
4, 9090, Note_on_c, 0, 55, 108
4, 9095, Note_on_c, 0, 55, 0
4, 9120, Note_on_c, 0, 57, 107
4, 9125, Note_on_c, 0, 57, 0
4, 9150, Note_on_c, 0, 57, 118
4, 9155, Note_on_c, 0, 57, 0
4, 9180, Note_on_c, 0, 57, 107
4, 9185, Note_on_c, 0, 57, 0
4, 9210, Note_on_c, 0, 57, 124
4, 9215, Note_on_c, 0, 57, 0
4, 9240, Note_on_c, 0, 57, 110
4, 9245, Note_on_c, 0, 57, 0
4, 9270, Note_on_c, 0, 57, 97
4, 9275, Note_on_c, 0, 57, 0
4, 9300, Note_on_c, 0, 57, 104
4, 9305, Note_on_c, 0, 57, 0
4, 9330, Note_on_c, 0, 57, 105
4, 9335, Note_on_c, 0, 57, 0
4, 9360, Note_on_c, 0, 55, 118
4, 9365, Note_on_c, 0, 55, 0
4, 9390, Note_on_c, 0, 55, 104
4, 9395, Note_on_c, 0, 55, 0
4, 9420, Note_on_c, 0, 55, 104
4, 9425, Note_on_c, 0, 55, 0
4, 9450, Note_on_c, 0, 55, 97
4, 9455, Note_on_c, 0, 55, 0
4, 9480, Note_on_c, 0, 55, 107
4, 9485, Note_on_c, 0, 55, 0
4, 9510, Note_on_c, 0, 55, 98
4, 9515, Note_on_c, 0, 55, 0
4, 9540, Note_on_c, 0, 55, 104
4, 9545, Note_on_c, 0, 55, 0
4, 9570, Note_on_c, 0, 55, 98
4, 9575, Note_on_c, 0, 55, 0
4, 9600, Note_on_c, 0, 65, 107
4, 9605, Note_on_c, 0, 65, 0
4, 9630, Note_on_c, 0, 65, 108
4, 9635, Note_on_c, 0, 65, 0
4, 9660, Note_on_c, 0, 65, 107
4, 9665, Note_on_c, 0, 65, 0
4, 9690, Note_on_c, 0, 65, 114
4, 9695, Note_on_c, 0, 65, 0
4, 9720, Note_on_c, 0, 65, 110
4, 9725, Note_on_c, 0, 65, 0
4, 9750, Note_on_c, 0, 65, 97
4, 9755, Note_on_c, 0, 65, 0
4, 9780, Note_on_c, 0, 65, 104
4, 9785, Note_on_c, 0, 65, 0
4, 9810, Note_on_c, 0, 65, 105
4, 9815, Note_on_c, 0, 65, 0
4, 9840, Note_on_c, 0, 64, 118
4, 9845, Note_on_c, 0, 64, 0
4, 9870, Note_on_c, 0, 64, 104
4, 9875, Note_on_c, 0, 64, 0
4, 9900, Note_on_c, 0, 64, 104
4, 9905, Note_on_c, 0, 64, 0
4, 9930, Note_on_c, 0, 64, 97
4, 9935, Note_on_c, 0, 64, 0
4, 9960, Note_on_c, 0, 64, 107
4, 9965, Note_on_c, 0, 64, 0
4, 9990, Note_on_c, 0, 64, 98
4, 9995, Note_on_c, 0, 64, 0
4, 10020, Note_on_c, 0, 64, 104
4, 10025, Note_on_c, 0, 64, 0
4, 10050, Note_on_c, 0, 64, 98
4, 10055, Note_on_c, 0, 64, 0
4, 10080, Note_on_c, 0, 62, 107
4, 10085, Note_on_c, 0, 62, 0
4, 10110, Note_on_c, 0, 62, 108
4, 10115, Note_on_c, 0, 62, 0
4, 10140, Note_on_c, 0, 62, 107
4, 10145, Note_on_c, 0, 62, 0
4, 10170, Note_on_c, 0, 62, 114
4, 10175, Note_on_c, 0, 62, 0
4, 10200, Note_on_c, 0, 62, 110
4, 10205, Note_on_c, 0, 62, 0
4, 10230, Note_on_c, 0, 62, 97
4, 10235, Note_on_c, 0, 62, 0
4, 10260, Note_on_c, 0, 62, 104
4, 10265, Note_on_c, 0, 62, 0
4, 10290, Note_on_c, 0, 62, 105
4, 10295, Note_on_c, 0, 62, 0
4, 10320, Note_on_c, 0, 60, 108
4, 10325, Note_on_c, 0, 60, 0
4, 10350, Note_on_c, 0, 64, 104
4, 10355, Note_on_c, 0, 64, 0
4, 10380, Note_on_c, 0, 64, 104
4, 10385, Note_on_c, 0, 64, 0
4, 10410, Note_on_c, 0, 64, 97
4, 10415, Note_on_c, 0, 64, 0
4, 10440, Note_on_c, 0, 64, 107
4, 10445, Note_on_c, 0, 64, 0
4, 10470, Note_on_c, 0, 64, 108
4, 10475, Note_on_c, 0, 64, 0
4, 10500, Note_on_c, 0, 64, 104
4, 10505, Note_on_c, 0, 64, 0
4, 10530, Note_on_c, 0, 64, 108
4, 10535, Note_on_c, 0, 64, 0
4, 10560, Note_on_c, 0, 65, 107
4, 10565, Note_on_c, 0, 65, 0
4, 10590, Note_on_c, 0, 65, 108
4, 10595, Note_on_c, 0, 65, 0
4, 10620, Note_on_c, 0, 65, 107
4, 10625, Note_on_c, 0, 65, 0
4, 10650, Note_on_c, 0, 65, 114
4, 10655, Note_on_c, 0, 65, 0
4, 10680, Note_on_c, 0, 65, 110
4, 10685, Note_on_c, 0, 65, 0
4, 10710, Note_on_c, 0, 65, 97
4, 10715, Note_on_c, 0, 65, 0
4, 10740, Note_on_c, 0, 65, 104
4, 10745, Note_on_c, 0, 65, 0
4, 10770, Note_on_c, 0, 65, 105
4, 10775, Note_on_c, 0, 65, 0
4, 10800, Note_on_c, 0, 64, 108
4, 10805, Note_on_c, 0, 64, 0
4, 10830, Note_on_c, 0, 64, 104
4, 10835, Note_on_c, 0, 64, 0
4, 10860, Note_on_c, 0, 64, 104
4, 10865, Note_on_c, 0, 64, 0
4, 10890, Note_on_c, 0, 64, 97
4, 10895, Note_on_c, 0, 64, 0
4, 10920, Note_on_c, 0, 64, 107
4, 10925, Note_on_c, 0, 64, 0
4, 10950, Note_on_c, 0, 64, 108
4, 10955, Note_on_c, 0, 64, 0
4, 10980, Note_on_c, 0, 64, 104
4, 10985, Note_on_c, 0, 64, 0
4, 11010, Note_on_c, 0, 64, 108
4, 11015, Note_on_c, 0, 64, 0
4, 11040, Note_on_c, 0, 62, 107
4, 11045, Note_on_c, 0, 62, 0
4, 11070, Note_on_c, 0, 62, 108
4, 11075, Note_on_c, 0, 62, 0
4, 11100, Note_on_c, 0, 62, 107
4, 11105, Note_on_c, 0, 62, 0
4, 11130, Note_on_c, 0, 62, 114
4, 11135, Note_on_c, 0, 62, 0
4, 11160, Note_on_c, 0, 62, 110
4, 11165, Note_on_c, 0, 62, 0
4, 11190, Note_on_c, 0, 62, 97
4, 11195, Note_on_c, 0, 62, 0
4, 11220, Note_on_c, 0, 62, 104
4, 11225, Note_on_c, 0, 62, 0
4, 11250, Note_on_c, 0, 62, 105
4, 11255, Note_on_c, 0, 62, 0
4, 11280, Note_on_c, 0, 60, 79
4, 11400, Note_on_c, 0, 60, 0
4, 11520, Note_on_c, 0, 53, 46
4, 11640, Note_on_c, 0, 57, 46
4, 11642, Note_on_c, 0, 53, 0
4, 11760, Note_on_c, 0, 57, 0
4, 11760, Note_on_c, 0, 60, 46
4, 11880, Note_on_c, 0, 60, 0
4, 12000, Note_on_c, 0, 53, 46
4, 12120, Note_on_c, 0, 57, 46
4, 12131, Note_on_c, 0, 53, 0
4, 12240, Note_on_c, 0, 57, 0
4, 12240, Note_on_c, 0, 60, 52
4, 12375, Note_on_c, 0, 60, 0
4, 12480, Note_on_c, 0, 53, 46
4, 12600, Note_on_c, 0, 53, 0
4, 12600, Note_on_c, 0, 57, 46
4, 12710, Note_on_c, 0, 57, 0
4, 12720, Note_on_c, 0, 60, 46
4, 12840, Note_on_c, 0, 60, 0
4, 12960, Note_on_c, 0, 67, 62
4, 13080, Note_on_c, 0, 67, 0
4, 13200, Note_on_c, 0, 72, 55
4, 13365, Note_on_c, 0, 72, 0
4, 13440, Note_on_c, 0, 65, 53
4, 13535, Note_on_c, 0, 65, 0
4, 13680, Note_on_c, 0, 67, 77
4, 13810, Note_on_c, 0, 67, 0
4, 13920, Note_on_c, 0, 55, 76
4, 14040, Note_on_c, 0, 55, 0
4, 14160, Note_on_c, 0, 60, 92
4, 14310, Note_on_c, 0, 60, 0
4, 14310, Note_on_c, 0, 62, 92
4, 14340, Note_on_c, 0, 62, 0
4, 14340, Note_on_c, 0, 64, 85
4, 14370, Note_on_c, 0, 64, 0
4, 14370, Note_on_c, 0, 65, 82
4, 14400, Note_on_c, 0, 65, 0
4, 14400, Note_on_c, 0, 67, 93
4, 14580, Note_on_c, 0, 67, 0
4, 14580, Note_on_c, 0, 69, 80
4, 14610, Note_on_c, 0, 71, 87
4, 14616, Note_on_c, 0, 69, 0
4, 14640, Note_on_c, 0, 71, 0
4, 14640, Note_on_c, 0, 72, 90
4, 14820, Note_on_c, 0, 72, 0
4, 14820, Note_on_c, 0, 71, 79
4, 14850, Note_on_c, 0, 71, 0
4, 14850, Note_on_c, 0, 69, 87
4, 14880, Note_on_c, 0, 69, 0
4, 14880, Note_on_c, 0, 67, 90
4, 15030, Note_on_c, 0, 67, 0
4, 15030, Note_on_c, 0, 65, 76
4, 15060, Note_on_c, 0, 65, 0
4, 15060, Note_on_c, 0, 64, 76
4, 15090, Note_on_c, 0, 64, 0
4, 15090, Note_on_c, 0, 62, 84
4, 15120, Note_on_c, 0, 62, 0
4, 15120, Note_on_c, 0, 60, 88
4, 15240, Note_on_c, 0, 60, 0
4, 15240, Note_on_c, 0, 48, 98
4, 15330, Note_on_c, 0, 48, 0
4, 15330, Note_on_c, 0, 48, 100
4, 15345, Note_on_c, 0, 48, 0
4, 15360, Note_on_c, 0, 48, 102
4, 15485, Note_on_c, 0, 48, 0
4, 15485, End_track
5, 0, Start_track
5, 0, MIDI_port, 0
5, 0, Title_t, "Strings49           "
5, 0, Program_c, 0, 50
5, 0, Control_c, 0, 7, 110
5, 0, Control_c, 0, 10, 64
5, 240, Control_c, 0, 121, 0
5, 240, Pitch_bend_c, 0, 8192
5, 240, Control_c, 0, 7, 110
5, 240, Control_c, 0, 91, 100
5, 240, Control_c, 0, 93, 0
5, 240, Note_on_c, 0, 48, 60
5, 360, Note_on_c, 0, 48, 0
5, 485, Note_on_c, 0, 43, 58
5, 605, Note_on_c, 0, 43, 0
5, 720, Note_on_c, 0, 36, 57
5, 840, Note_on_c, 0, 36, 0
5, 1200, Note_on_c, 0, 48, 76
5, 1320, Note_on_c, 0, 48, 0
5, 1441, Note_on_c, 0, 43, 68
5, 1561, Note_on_c, 0, 43, 0
5, 1681, Note_on_c, 0, 36, 57
5, 1801, Note_on_c, 0, 36, 0
5, 2160, Note_on_c, 0, 48, 60
5, 2280, Note_on_c, 0, 48, 0
5, 2405, Note_on_c, 0, 43, 58
5, 2525, Note_on_c, 0, 43, 0
5, 2640, Note_on_c, 0, 36, 57
5, 2760, Note_on_c, 0, 36, 0
5, 3120, Note_on_c, 0, 48, 76
5, 3240, Note_on_c, 0, 48, 0
5, 3361, Note_on_c, 0, 43, 68
5, 3481, Note_on_c, 0, 43, 0
5, 3601, Note_on_c, 0, 36, 57
5, 3721, Note_on_c, 0, 36, 0
5, 4080, Note_on_c, 0, 43, 62
5, 4200, Note_on_c, 0, 43, 0
5, 4320, Note_on_c, 0, 55, 46
5, 4530, Note_on_c, 0, 55, 0
5, 4560, Note_on_c, 0, 55, 46
5, 4776, Note_on_c, 0, 55, 0
5, 5040, Note_on_c, 0, 36, 50
5, 5160, Note_on_c, 0, 36, 0
5, 5280, Note_on_c, 0, 60, 46
5, 5405, Note_on_c, 0, 60, 0
5, 5520, Note_on_c, 0, 60, 46
5, 5655, Note_on_c, 0, 60, 0
5, 5760, Note_on_c, 0, 48, 108
5, 5790, Note_on_c, 0, 48, 0
5, 5820, Note_on_c, 0, 47, 103
5, 5846, Note_on_c, 0, 47, 0
5, 5880, Note_on_c, 0, 45, 100
5, 5907, Note_on_c, 0, 45, 0
5, 5940, Note_on_c, 0, 44, 112
5, 5965, Note_on_c, 0, 44, 0
5, 6000, Note_on_c, 0, 45, 113
5, 6031, Note_on_c, 0, 45, 0
5, 6060, Note_on_c, 0, 43, 105
5, 6080, Note_on_c, 0, 43, 0
5, 6120, Note_on_c, 0, 41, 105
5, 6145, Note_on_c, 0, 41, 0
5, 6180, Note_on_c, 0, 40, 102
5, 6205, Note_on_c, 0, 40, 0
5, 6240, Note_on_c, 0, 41, 112
5, 6265, Note_on_c, 0, 41, 0
5, 6300, Note_on_c, 0, 40, 110
5, 6320, Note_on_c, 0, 40, 0
5, 6360, Note_on_c, 0, 38, 110
5, 6377, Note_on_c, 0, 38, 0
5, 6420, Note_on_c, 0, 36, 105
5, 6440, Note_on_c, 0, 36, 0
5, 6480, Note_on_c, 0, 43, 100
5, 6595, Note_on_c, 0, 43, 0
5, 6960, Note_on_c, 0, 48, 66
5, 7080, Note_on_c, 0, 48, 0
5, 7205, Note_on_c, 0, 43, 66
5, 7325, Note_on_c, 0, 43, 0
5, 7440, Note_on_c, 0, 36, 66
5, 7560, Note_on_c, 0, 36, 0
5, 7920, Note_on_c, 0, 48, 66
5, 8040, Note_on_c, 0, 48, 0
5, 8161, Note_on_c, 0, 43, 66
5, 8281, Note_on_c, 0, 43, 0
5, 8400, Note_on_c, 0, 36, 113
5, 8405, Note_on_c, 0, 36, 0
5, 8430, Note_on_c, 0, 36, 109
5, 8435, Note_on_c, 0, 36, 0
5, 8460, Note_on_c, 0, 36, 109
5, 8465, Note_on_c, 0, 36, 0
5, 8490, Note_on_c, 0, 36, 102
5, 8495, Note_on_c, 0, 36, 0
5, 8520, Note_on_c, 0, 36, 112
5, 8525, Note_on_c, 0, 36, 0
5, 8550, Note_on_c, 0, 36, 103
5, 8555, Note_on_c, 0, 36, 0
5, 8580, Note_on_c, 0, 36, 109
5, 8585, Note_on_c, 0, 36, 0
5, 8610, Note_on_c, 0, 36, 103
5, 8615, Note_on_c, 0, 36, 0
5, 8640, Note_on_c, 0, 36, 113
5, 8645, Note_on_c, 0, 36, 0
5, 8670, Note_on_c, 0, 36, 109
5, 8675, Note_on_c, 0, 36, 0
5, 8700, Note_on_c, 0, 36, 109
5, 8705, Note_on_c, 0, 36, 0
5, 8730, Note_on_c, 0, 36, 102
5, 8735, Note_on_c, 0, 36, 0
5, 8760, Note_on_c, 0, 36, 112
5, 8765, Note_on_c, 0, 36, 0
5, 8790, Note_on_c, 0, 36, 103
5, 8795, Note_on_c, 0, 36, 0
5, 8820, Note_on_c, 0, 36, 109
5, 8825, Note_on_c, 0, 36, 0
5, 8850, Note_on_c, 0, 36, 103
5, 8855, Note_on_c, 0, 36, 0
5, 8880, Note_on_c, 0, 36, 113
5, 8885, Note_on_c, 0, 36, 0
5, 8910, Note_on_c, 0, 36, 109
5, 8915, Note_on_c, 0, 36, 0
5, 8940, Note_on_c, 0, 36, 109
5, 8945, Note_on_c, 0, 36, 0
5, 8970, Note_on_c, 0, 36, 102
5, 8975, Note_on_c, 0, 36, 0
5, 9000, Note_on_c, 0, 36, 112
5, 9005, Note_on_c, 0, 36, 0
5, 9030, Note_on_c, 0, 36, 103
5, 9035, Note_on_c, 0, 36, 0
5, 9060, Note_on_c, 0, 36, 109
5, 9065, Note_on_c, 0, 36, 0
5, 9090, Note_on_c, 0, 36, 103
5, 9095, Note_on_c, 0, 36, 0
5, 9120, Note_on_c, 0, 36, 113
5, 9125, Note_on_c, 0, 36, 0
5, 9150, Note_on_c, 0, 36, 109
5, 9155, Note_on_c, 0, 36, 0
5, 9180, Note_on_c, 0, 36, 109
5, 9185, Note_on_c, 0, 36, 0
5, 9210, Note_on_c, 0, 36, 102
5, 9215, Note_on_c, 0, 36, 0
5, 9240, Note_on_c, 0, 36, 112
5, 9245, Note_on_c, 0, 36, 0
5, 9270, Note_on_c, 0, 36, 103
5, 9275, Note_on_c, 0, 36, 0
5, 9300, Note_on_c, 0, 36, 109
5, 9305, Note_on_c, 0, 36, 0
5, 9330, Note_on_c, 0, 36, 103
5, 9335, Note_on_c, 0, 36, 0
5, 9360, Note_on_c, 0, 36, 113
5, 9365, Note_on_c, 0, 36, 0
5, 9390, Note_on_c, 0, 36, 109
5, 9395, Note_on_c, 0, 36, 0
5, 9420, Note_on_c, 0, 36, 109
5, 9425, Note_on_c, 0, 36, 0
5, 9450, Note_on_c, 0, 36, 102
5, 9455, Note_on_c, 0, 36, 0
5, 9480, Note_on_c, 0, 36, 112
5, 9485, Note_on_c, 0, 36, 0
5, 9510, Note_on_c, 0, 36, 103
5, 9515, Note_on_c, 0, 36, 0
5, 9540, Note_on_c, 0, 36, 109
5, 9545, Note_on_c, 0, 36, 0
5, 9570, Note_on_c, 0, 36, 103
5, 9575, Note_on_c, 0, 36, 0
5, 9600, Note_on_c, 0, 36, 113
5, 9605, Note_on_c, 0, 36, 0
5, 9630, Note_on_c, 0, 36, 109
5, 9635, Note_on_c, 0, 36, 0
5, 9660, Note_on_c, 0, 36, 109
5, 9665, Note_on_c, 0, 36, 0
5, 9690, Note_on_c, 0, 36, 102
5, 9695, Note_on_c, 0, 36, 0
5, 9720, Note_on_c, 0, 36, 112
5, 9725, Note_on_c, 0, 36, 0
5, 9750, Note_on_c, 0, 36, 103
5, 9755, Note_on_c, 0, 36, 0
5, 9780, Note_on_c, 0, 36, 109
5, 9785, Note_on_c, 0, 36, 0
5, 9810, Note_on_c, 0, 36, 103
5, 9815, Note_on_c, 0, 36, 0
5, 9840, Note_on_c, 0, 36, 103
5, 9960, Note_on_c, 0, 36, 0
5, 10020, Note_on_c, 0, 48, 99
5, 10080, Note_on_c, 0, 48, 0
5, 10080, Note_on_c, 0, 43, 89
5, 10200, Note_on_c, 0, 43, 0
5, 10260, Note_on_c, 0, 43, 92
5, 10320, Note_on_c, 0, 43, 0
5, 10320, Note_on_c, 0, 45, 102
5, 10440, Note_on_c, 0, 45, 0
5, 10500, Note_on_c, 0, 45, 103
5, 10560, Note_on_c, 0, 45, 0
5, 10560, Note_on_c, 0, 41, 99
5, 10680, Note_on_c, 0, 41, 0
5, 10740, Note_on_c, 0, 41, 103
5, 10800, Note_on_c, 0, 41, 0
5, 10800, Note_on_c, 0, 43, 102
5, 10920, Note_on_c, 0, 43, 0
5, 10980, Note_on_c, 0, 43, 103
5, 11040, Note_on_c, 0, 43, 0
5, 11040, Note_on_c, 0, 31, 102
5, 11160, Note_on_c, 0, 31, 0
5, 11220, Note_on_c, 0, 31, 103
5, 11280, Note_on_c, 0, 31, 0
5, 11280, Note_on_c, 0, 48, 102
5, 11400, Note_on_c, 0, 48, 0
5, 11760, Note_on_c, 0, 48, 62
5, 11880, Note_on_c, 0, 48, 0
5, 12240, Note_on_c, 0, 48, 62
5, 12360, Note_on_c, 0, 48, 0
5, 12720, Note_on_c, 0, 48, 62
5, 12840, Note_on_c, 0, 48, 0
5, 12960, Note_on_c, 0, 55, 62
5, 13080, Note_on_c, 0, 55, 0
5, 13200, Note_on_c, 0, 60, 62
5, 13320, Note_on_c, 0, 60, 0
5, 13440, Note_on_c, 0, 53, 62
5, 13560, Note_on_c, 0, 53, 0
5, 13680, Note_on_c, 0, 55, 72
5, 13800, Note_on_c, 0, 55, 0
5, 13920, Note_on_c, 0, 43, 72
5, 14040, Note_on_c, 0, 43, 0
5, 14160, Note_on_c, 0, 48, 92
5, 14310, Note_on_c, 0, 48, 0
5, 14310, Note_on_c, 0, 50, 92
5, 14340, Note_on_c, 0, 50, 0
5, 14340, Note_on_c, 0, 52, 85
5, 14370, Note_on_c, 0, 52, 0
5, 14370, Note_on_c, 0, 53, 82
5, 14400, Note_on_c, 0, 53, 0
5, 14400, Note_on_c, 0, 55, 93
5, 14580, Note_on_c, 0, 55, 0
5, 14580, Note_on_c, 0, 57, 80
5, 14610, Note_on_c, 0, 59, 87
5, 14616, Note_on_c, 0, 57, 0
5, 14640, Note_on_c, 0, 59, 0
5, 14640, Note_on_c, 0, 60, 90
5, 14820, Note_on_c, 0, 60, 0
5, 14820, Note_on_c, 0, 59, 89
5, 14850, Note_on_c, 0, 59, 0
5, 14850, Note_on_c, 0, 57, 87
5, 14880, Note_on_c, 0, 57, 0
5, 14880, Note_on_c, 0, 55, 90
5, 15030, Note_on_c, 0, 55, 0
5, 15030, Note_on_c, 0, 53, 76
5, 15060, Note_on_c, 0, 53, 0
5, 15060, Note_on_c, 0, 52, 76
5, 15090, Note_on_c, 0, 52, 0
5, 15090, Note_on_c, 0, 50, 84
5, 15120, Note_on_c, 0, 50, 0
5, 15120, Note_on_c, 0, 48, 88
5, 15240, Note_on_c, 0, 48, 0
5, 15240, Note_on_c, 0, 36, 98
5, 15330, Note_on_c, 0, 36, 0
5, 15330, Note_on_c, 0, 36, 100
5, 15345, Note_on_c, 0, 36, 0
5, 15360, Note_on_c, 0, 36, 102
5, 15485, Note_on_c, 0, 36, 0
5, 15485, End_track
6, 0, Start_track
6, 0, MIDI_port, 0
6, 0, Title_t, "Flute74             "
6, 0, Program_c, 4, 73
6, 0, Control_c, 4, 7, 50
6, 0, Control_c, 4, 10, 120
6, 485, Control_c, 4, 121, 0
6, 485, Control_c, 4, 7, 68
6, 485, Control_c, 4, 91, 100
6, 485, Control_c, 4, 93, 30
6, 485, Note_on_c, 4, 86, 92
6, 555, Note_on_c, 4, 86, 0
6, 605, Note_on_c, 4, 86, 91
6, 615, Note_on_c, 4, 86, 0
6, 660, Note_on_c, 4, 86, 94
6, 670, Note_on_c, 4, 86, 0
6, 725, Note_on_c, 4, 86, 92
6, 865, Note_on_c, 4, 88, 93
6, 866, Note_on_c, 4, 86, 0
6, 890, Note_on_c, 4, 88, 0
6, 1441, Note_on_c, 4, 86, 95
6, 1484, Note_on_c, 4, 86, 0
6, 1556, Note_on_c, 4, 86, 92
6, 1601, Note_on_c, 4, 86, 0
6, 1611, Note_on_c, 4, 88, 93
6, 1669, Note_on_c, 4, 88, 0
6, 1680, Note_on_c, 4, 84, 99
6, 1820, Note_on_c, 4, 84, 0
6, 2405, Note_on_c, 4, 86, 93
6, 2475, Note_on_c, 4, 86, 0
6, 2525, Note_on_c, 4, 86, 81
6, 2535, Note_on_c, 4, 86, 0
6, 2580, Note_on_c, 4, 86, 80
6, 2590, Note_on_c, 4, 86, 0
6, 2640, Note_on_c, 4, 86, 98
6, 2760, Note_on_c, 4, 88, 87
6, 2765, Note_on_c, 4, 86, 0
6, 2785, Note_on_c, 4, 88, 0
6, 3361, Note_on_c, 4, 86, 100
6, 3404, Note_on_c, 4, 86, 0
6, 3476, Note_on_c, 4, 86, 89
6, 3521, Note_on_c, 4, 86, 0
6, 3531, Note_on_c, 4, 88, 92
6, 3589, Note_on_c, 4, 88, 0
6, 3600, Note_on_c, 4, 84, 98
6, 3740, Note_on_c, 4, 84, 0
6, 4140, Note_on_c, 4, 79, 91
6, 4200, Note_on_c, 4, 79, 0
6, 4200, Note_on_c, 4, 78, 87
6, 4260, Note_on_c, 4, 78, 0
6, 4260, Note_on_c, 4, 79, 83
6, 4320, Note_on_c, 4, 79, 0
6, 4380, Note_on_c, 4, 79, 89
6, 4440, Note_on_c, 4, 79, 0
6, 4440, Note_on_c, 4, 78, 84
6, 4500, Note_on_c, 4, 78, 0
6, 4500, Note_on_c, 4, 79, 87
6, 4560, Note_on_c, 4, 79, 0
6, 4620, Note_on_c, 4, 79, 91
6, 4680, Note_on_c, 4, 79, 0
6, 4680, Note_on_c, 4, 78, 88
6, 4740, Note_on_c, 4, 78, 0
6, 4740, Note_on_c, 4, 79, 87
6, 4800, Note_on_c, 4, 79, 0
6, 5100, Note_on_c, 4, 84, 88
6, 5160, Note_on_c, 4, 84, 0
6, 5160, Note_on_c, 4, 83, 82
6, 5220, Note_on_c, 4, 83, 0
6, 5220, Note_on_c, 4, 84, 87
6, 5280, Note_on_c, 4, 84, 0
6, 5340, Note_on_c, 4, 84, 86
6, 5400, Note_on_c, 4, 84, 0
6, 5400, Note_on_c, 4, 83, 86
6, 5460, Note_on_c, 4, 83, 0
6, 5460, Note_on_c, 4, 84, 84
6, 5520, Note_on_c, 4, 84, 0
6, 5580, Note_on_c, 4, 84, 77
6, 5640, Note_on_c, 4, 84, 0
6, 5640, Note_on_c, 4, 83, 70
6, 5700, Note_on_c, 4, 83, 0
6, 5700, Note_on_c, 4, 84, 77
6, 5760, Note_on_c, 4, 84, 0
6, 5760, Note_on_c, 4, 84, 89
6, 5780, Note_on_c, 4, 84, 0
6, 5820, Note_on_c, 4, 83, 83
6, 5837, Note_on_c, 4, 83, 0
6, 5880, Note_on_c, 4, 81, 85
6, 5900, Note_on_c, 4, 81, 0
6, 5940, Note_on_c, 4, 80, 88
6, 5955, Note_on_c, 4, 80, 0
6, 6000, Note_on_c, 4, 81, 96
6, 6020, Note_on_c, 4, 81, 0
6, 6060, Note_on_c, 4, 79, 88
6, 6075, Note_on_c, 4, 79, 0
6, 6120, Note_on_c, 4, 77, 92
6, 6137, Note_on_c, 4, 77, 0
6, 6180, Note_on_c, 4, 76, 90
6, 6211, Note_on_c, 4, 76, 0
6, 6240, Note_on_c, 4, 77, 92
6, 6260, Note_on_c, 4, 77, 0
6, 6300, Note_on_c, 4, 76, 90
6, 6316, Note_on_c, 4, 76, 0
6, 6360, Note_on_c, 4, 74, 93
6, 6375, Note_on_c, 4, 74, 0
6, 6420, Note_on_c, 4, 72, 88
6, 6440, Note_on_c, 4, 72, 0
6, 6480, Note_on_c, 4, 79, 96
6, 6600, Note_on_c, 4, 79, 0
6, 8400, Note_on_c, 4, 84, 116
6, 9816, Note_on_c, 4, 84, 0
6, 9840, Note_on_c, 4, 84, 94
6, 10010, Note_on_c, 4, 84, 0
6, 10015, Control_c, 4, 1, 1
6, 10015, Control_c, 4, 1, 3
6, 10015, Control_c, 4, 1, 4
6, 10020, Note_on_c, 4, 88, 86
6, 10030, Control_c, 4, 1, 1
6, 10030, Control_c, 4, 1, 0
6, 10075, Note_on_c, 4, 88, 0
6, 10080, Note_on_c, 4, 86, 89
6, 10096, Control_c, 4, 1, 1
6, 10097, Control_c, 4, 1, 3
6, 10100, Control_c, 4, 1, 4
6, 10102, Control_c, 4, 1, 5
6, 10105, Control_c, 4, 1, 6
6, 10112, Control_c, 4, 1, 7
6, 10120, Control_c, 4, 1, 8
6, 10127, Control_c, 4, 1, 9
6, 10135, Control_c, 4, 1, 10
6, 10141, Control_c, 4, 1, 11
6, 10145, Control_c, 4, 1, 12
6, 10150, Control_c, 4, 1, 13
6, 10176, Control_c, 4, 1, 11
6, 10180, Control_c, 4, 1, 5
6, 10181, Control_c, 4, 1, 4
6, 10182, Control_c, 4, 1, 1
6, 10185, Control_c, 4, 1, 0
6, 10231, Note_on_c, 4, 86, 0
6, 10255, Control_c, 4, 1, 1
6, 10255, Control_c, 4, 1, 3
6, 10255, Control_c, 4, 1, 4
6, 10257, Control_c, 4, 1, 5
6, 10260, Note_on_c, 4, 86, 90
6, 10260, Control_c, 4, 1, 7
6, 10266, Control_c, 4, 1, 8
6, 10291, Control_c, 4, 1, 6
6, 10292, Control_c, 4, 1, 3
6, 10295, Control_c, 4, 1, 2
6, 10300, Control_c, 4, 1, 1
6, 10301, Control_c, 4, 1, 0
6, 10315, Note_on_c, 4, 86, 0
6, 10320, Note_on_c, 4, 84, 90
6, 10397, Control_c, 4, 1, 2
6, 10400, Control_c, 4, 1, 7
6, 10400, Control_c, 4, 1, 10
6, 10405, Control_c, 4, 1, 11
6, 10426, Control_c, 4, 1, 9
6, 10427, Control_c, 4, 1, 5
6, 10430, Control_c, 4, 1, 3
6, 10431, Control_c, 4, 1, 2
6, 10431, Control_c, 4, 1, 0
6, 10472, Note_on_c, 4, 84, 0
6, 10500, Note_on_c, 4, 84, 88
6, 10505, Control_c, 4, 1, 11
6, 10505, Control_c, 4, 1, 14
6, 10526, Control_c, 4, 1, 13
6, 10526, Control_c, 4, 1, 11
6, 10530, Note_on_c, 4, 84, 0
6, 10530, Control_c, 4, 1, 10
6, 10540, Control_c, 4, 1, 9
6, 10541, Control_c, 4, 1, 7
6, 10541, Control_c, 4, 1, 6
6, 10545, Control_c, 4, 1, 5
6, 10545, Control_c, 4, 1, 3
6, 10546, Control_c, 4, 1, 2
6, 10550, Control_c, 4, 1, 1
6, 10551, Control_c, 4, 1, 0
6, 10560, Note_on_c, 4, 77, 94
6, 10630, Control_c, 4, 1, 1
6, 10631, Control_c, 4, 1, 7
6, 10635, Control_c, 4, 1, 8
6, 10636, Control_c, 4, 1, 9
6, 10665, Control_c, 4, 1, 8
6, 10665, Control_c, 4, 1, 4
6, 10665, Control_c, 4, 1, 3
6, 10670, Control_c, 4, 1, 2
6, 10670, Control_c, 4, 1, 0
6, 10715, Note_on_c, 4, 77, 0
6, 10740, Note_on_c, 4, 77, 85
6, 10740, Control_c, 4, 1, 1
6, 10741, Control_c, 4, 1, 4
6, 10747, Control_c, 4, 1, 7
6, 10750, Control_c, 4, 1, 9
6, 10755, Control_c, 4, 1, 10
6, 10755, Control_c, 4, 1, 11
6, 10760, Control_c, 4, 1, 12
6, 10760, Control_c, 4, 1, 13
6, 10765, Control_c, 4, 1, 14
6, 10770, Control_c, 4, 1, 15
6, 10787, Control_c, 4, 1, 13
6, 10787, Control_c, 4, 1, 10
6, 10790, Control_c, 4, 1, 9
6, 10795, Control_c, 4, 1, 7
6, 10796, Control_c, 4, 1, 3
6, 10797, Control_c, 4, 1, 1
6, 10800, Note_on_c, 4, 76, 90
6, 10801, Note_on_c, 4, 77, 0
6, 10801, Control_c, 4, 1, 0
6, 10892, Control_c, 4, 1, 6
6, 10892, Control_c, 4, 1, 9
6, 10897, Control_c, 4, 1, 10
6, 10901, Control_c, 4, 1, 11
6, 10920, Control_c, 4, 1, 9
6, 10921, Control_c, 4, 1, 1
6, 10925, Control_c, 4, 1, 0
6, 10955, Note_on_c, 4, 76, 0
6, 10980, Note_on_c, 4, 76, 85
6, 11005, Control_c, 4, 1, 1
6, 11006, Control_c, 4, 1, 5
6, 11006, Control_c, 4, 1, 7
6, 11010, Control_c, 4, 1, 8
6, 11017, Control_c, 4, 1, 9
6, 11025, Control_c, 4, 1, 10
6, 11035, Note_on_c, 4, 76, 0
6, 11040, Note_on_c, 4, 81, 95
6, 11040, Control_c, 4, 1, 4
6, 11041, Control_c, 4, 1, 2
6, 11045, Control_c, 4, 1, 1
6, 11047, Control_c, 4, 1, 0
6, 11140, Control_c, 4, 1, 2
6, 11141, Control_c, 4, 1, 6
6, 11141, Control_c, 4, 1, 9
6, 11146, Control_c, 4, 1, 10
6, 11165, Control_c, 4, 1, 8
6, 11167, Control_c, 4, 1, 0
6, 11195, Note_on_c, 4, 81, 0
6, 11220, Note_on_c, 4, 81, 86
6, 11237, Control_c, 4, 1, 3
6, 11240, Control_c, 4, 1, 9
6, 11240, Control_c, 4, 1, 12
6, 11245, Control_c, 4, 1, 13
6, 11256, Control_c, 4, 1, 14
6, 11271, Control_c, 4, 1, 15
6, 11272, Note_on_c, 4, 81, 0
6, 11280, Note_on_c, 4, 79, 92
6, 11290, Control_c, 4, 1, 13
6, 11290, Control_c, 4, 1, 9
6, 11290, Control_c, 4, 1, 7
6, 11292, Control_c, 4, 1, 5
6, 11295, Control_c, 4, 1, 1
6, 11295, Control_c, 4, 1, 0
6, 11386, Note_on_c, 4, 79, 0
6, 11520, Note_on_c, 4, 81, 84
6, 11575, Note_on_c, 4, 81, 0
6, 11580, Note_on_c, 4, 82, 90
6, 11632, Note_on_c, 4, 82, 0
6, 11640, Note_on_c, 4, 83, 86
6, 11700, Note_on_c, 4, 83, 0
6, 11700, Note_on_c, 4, 84, 86
6, 11760, Note_on_c, 4, 84, 0
6, 11760, Note_on_c, 4, 86, 84
6, 11820, Note_on_c, 4, 86, 0
6, 11820, Note_on_c, 4, 84, 80
6, 11880, Note_on_c, 4, 84, 0
6, 12000, Note_on_c, 4, 81, 84
6, 12060, Note_on_c, 4, 81, 0
6, 12060, Note_on_c, 4, 82, 90
6, 12120, Note_on_c, 4, 82, 0
6, 12120, Note_on_c, 4, 83, 80
6, 12176, Note_on_c, 4, 83, 0
6, 12180, Note_on_c, 4, 84, 84
6, 12240, Note_on_c, 4, 84, 0
6, 12240, Note_on_c, 4, 86, 84
6, 12295, Note_on_c, 4, 86, 0
6, 12300, Note_on_c, 4, 84, 74
6, 12360, Note_on_c, 4, 84, 0
6, 12480, Note_on_c, 4, 81, 74
6, 12536, Note_on_c, 4, 81, 0
6, 12540, Note_on_c, 4, 82, 80
6, 12600, Note_on_c, 4, 82, 0
6, 12600, Note_on_c, 4, 83, 70
6, 12660, Note_on_c, 4, 84, 72
6, 12665, Note_on_c, 4, 83, 0
6, 12720, Note_on_c, 4, 84, 0
6, 12720, Note_on_c, 4, 86, 76
6, 12780, Note_on_c, 4, 86, 0
6, 12780, Note_on_c, 4, 84, 76
6, 12840, Note_on_c, 4, 84, 0
6, 13260, Note_on_c, 4, 88, 92
6, 13280, Note_on_c, 4, 88, 0
6, 13320, Note_on_c, 4, 88, 88
6, 13335, Note_on_c, 4, 88, 0
6, 13380, Note_on_c, 4, 88, 92
6, 13396, Note_on_c, 4, 88, 0
6, 13440, Note_on_c, 4, 88, 86
6, 13455, Note_on_c, 4, 88, 0
6, 13455, Note_on_c, 4, 89, 88
6, 13470, Note_on_c, 4, 88, 88
6, 13475, Note_on_c, 4, 89, 0
6, 13490, Note_on_c, 4, 88, 0
6, 13500, Note_on_c, 4, 86, 92
6, 13515, Note_on_c, 4, 86, 0
6, 13560, Note_on_c, 4, 86, 91
6, 13575, Note_on_c, 4, 86, 0
6, 13620, Note_on_c, 4, 86, 99
6, 13631, Note_on_c, 4, 86, 0
6, 13680, Note_on_c, 4, 86, 96
6, 13695, Note_on_c, 4, 86, 0
6, 13695, Note_on_c, 4, 88, 90
6, 13710, Note_on_c, 4, 88, 0
6, 13710, Note_on_c, 4, 86, 88
6, 13740, Note_on_c, 4, 86, 0
6, 13740, Note_on_c, 4, 84, 92
6, 13755, Note_on_c, 4, 84, 0
6, 13800, Note_on_c, 4, 84, 97
6, 13815, Note_on_c, 4, 84, 0
6, 13860, Note_on_c, 4, 84, 93
6, 13876, Note_on_c, 4, 84, 0
6, 13920, Note_on_c, 4, 84, 91
6, 13935, Note_on_c, 4, 84, 0
6, 13935, Note_on_c, 4, 86, 92
6, 13950, Note_on_c, 4, 84, 95
6, 13951, Note_on_c, 4, 86, 0
6, 13980, Note_on_c, 4, 83, 98
6, 13985, Note_on_c, 4, 84, 0
6, 13995, Note_on_c, 4, 83, 0
6, 14040, Note_on_c, 4, 83, 103
6, 14055, Note_on_c, 4, 83, 0
6, 14100, Note_on_c, 4, 83, 95
6, 14115, Note_on_c, 4, 83, 0
6, 14160, Note_on_c, 4, 84, 94
6, 14182, Note_on_c, 4, 84, 0
6, 14220, Note_on_c, 4, 84, 94
6, 14236, Note_on_c, 4, 84, 0
6, 14280, Note_on_c, 4, 84, 104
6, 14295, Note_on_c, 4, 84, 0
6, 14400, Note_on_c, 4, 79, 88
6, 14412, Note_on_c, 4, 79, 0
6, 14460, Note_on_c, 4, 79, 87
6, 14477, Note_on_c, 4, 79, 0
6, 14520, Note_on_c, 4, 79, 95
6, 14561, Note_on_c, 4, 79, 0
6, 14640, Note_on_c, 4, 84, 90
6, 14665, Note_on_c, 4, 84, 0
6, 14700, Note_on_c, 4, 84, 96
6, 14725, Note_on_c, 4, 84, 0
6, 14760, Note_on_c, 4, 84, 102
6, 14811, Note_on_c, 4, 84, 0
6, 14880, Note_on_c, 4, 91, 85
6, 14901, Note_on_c, 4, 91, 0
6, 14940, Note_on_c, 4, 91, 87
6, 14961, Note_on_c, 4, 91, 0
6, 15000, Note_on_c, 4, 91, 91
6, 15020, Note_on_c, 4, 91, 0
6, 15120, Note_on_c, 4, 84, 91
6, 15156, Note_on_c, 4, 84, 0
6, 15240, Note_on_c, 4, 84, 96
6, 15275, Note_on_c, 4, 84, 0
6, 15330, Note_on_c, 4, 84, 98
6, 15340, Note_on_c, 4, 84, 0
6, 15360, Note_on_c, 4, 84, 97
6, 15485, Note_on_c, 4, 84, 0
6, 15485, End_track
7, 0, Start_track
7, 0, MIDI_port, 0
7, 0, Title_t, "Oboe69              "
7, 0, Program_c, 3, 71
7, 0, Control_c, 3, 7, 50
7, 0, Control_c, 3, 10, 20
7, 480, Control_c, 3, 121, 0
7, 480, Control_c, 3, 7, 68
7, 480, Control_c, 3, 91, 60
7, 480, Control_c, 3, 93, 20
7, 480, Note_on_c, 3, 71, 95
7, 480, Note_on_c, 3, 77, 77
7, 600, Note_on_c, 3, 77, 0
7, 600, Note_on_c, 3, 71, 0
7, 600, Note_on_c, 3, 77, 84
7, 600, Note_on_c, 3, 71, 89
7, 660, Note_on_c, 3, 71, 0
7, 660, Note_on_c, 3, 77, 0
7, 660, Note_on_c, 3, 77, 104
7, 660, Note_on_c, 3, 71, 100
7, 720, Note_on_c, 3, 71, 0
7, 720, Note_on_c, 3, 77, 0
7, 720, Note_on_c, 3, 77, 85
7, 720, Note_on_c, 3, 71, 82
7, 832, Note_on_c, 3, 71, 0
7, 840, Note_on_c, 3, 77, 0
7, 840, Note_on_c, 3, 76, 97
7, 840, Note_on_c, 3, 72, 88
7, 900, Note_on_c, 3, 72, 0
7, 900, Note_on_c, 3, 76, 0
7, 1440, Note_on_c, 3, 71, 74
7, 1440, Note_on_c, 3, 77, 89
7, 1560, Note_on_c, 3, 77, 0
7, 1560, Note_on_c, 3, 71, 0
7, 1560, Note_on_c, 3, 77, 93
7, 1560, Note_on_c, 3, 71, 74
7, 1620, Note_on_c, 3, 71, 0
7, 1620, Note_on_c, 3, 77, 0
7, 1620, Note_on_c, 3, 76, 87
7, 1620, Note_on_c, 3, 72, 75
7, 1680, Note_on_c, 3, 72, 0
7, 1680, Note_on_c, 3, 76, 0
7, 1680, Note_on_c, 3, 67, 88
7, 1680, Note_on_c, 3, 72, 94
7, 1790, Note_on_c, 3, 67, 0
7, 1802, Note_on_c, 3, 72, 0
7, 2400, Note_on_c, 3, 71, 95
7, 2400, Note_on_c, 3, 77, 77
7, 2520, Note_on_c, 3, 77, 0
7, 2520, Note_on_c, 3, 71, 0
7, 2520, Note_on_c, 3, 77, 84
7, 2520, Note_on_c, 3, 71, 89
7, 2580, Note_on_c, 3, 71, 0
7, 2580, Note_on_c, 3, 77, 0
7, 2580, Note_on_c, 3, 77, 104
7, 2580, Note_on_c, 3, 71, 100
7, 2640, Note_on_c, 3, 71, 0
7, 2640, Note_on_c, 3, 77, 0
7, 2640, Note_on_c, 3, 77, 85
7, 2640, Note_on_c, 3, 71, 82
7, 2752, Note_on_c, 3, 71, 0
7, 2760, Note_on_c, 3, 77, 0
7, 2760, Note_on_c, 3, 76, 97
7, 2760, Note_on_c, 3, 72, 88
7, 2800, Note_on_c, 3, 72, 0
7, 2820, Note_on_c, 3, 76, 0
7, 3360, Note_on_c, 3, 71, 74
7, 3360, Note_on_c, 3, 77, 89
7, 3480, Note_on_c, 3, 77, 0
7, 3480, Note_on_c, 3, 71, 0
7, 3480, Note_on_c, 3, 77, 93
7, 3480, Note_on_c, 3, 71, 74
7, 3540, Note_on_c, 3, 71, 0
7, 3540, Note_on_c, 3, 77, 0
7, 3540, Note_on_c, 3, 76, 87
7, 3540, Note_on_c, 3, 72, 75
7, 3600, Note_on_c, 3, 72, 0
7, 3600, Note_on_c, 3, 76, 0
7, 3600, Note_on_c, 3, 67, 88
7, 3600, Note_on_c, 3, 72, 94
7, 3720, Note_on_c, 3, 67, 0
7, 3722, Note_on_c, 3, 72, 0
7, 4260, Note_on_c, 3, 74, 74
7, 4260, Note_on_c, 3, 77, 75
7, 4310, Note_on_c, 3, 77, 0
7, 4310, Note_on_c, 3, 74, 0
7, 4320, Note_on_c, 3, 76, 82
7, 4320, Note_on_c, 3, 79, 82
7, 4380, Note_on_c, 3, 79, 0
7, 4380, Note_on_c, 3, 76, 0
7, 4380, Note_on_c, 3, 77, 74
7, 4380, Note_on_c, 3, 74, 71
7, 4430, Note_on_c, 3, 74, 0
7, 4440, Note_on_c, 3, 77, 0
7, 4440, Note_on_c, 3, 71, 73
7, 4440, Note_on_c, 3, 74, 74
7, 4490, Note_on_c, 3, 74, 0
7, 4491, Note_on_c, 3, 71, 0
7, 4500, Note_on_c, 3, 77, 76
7, 4500, Note_on_c, 3, 74, 74
7, 4545, Note_on_c, 3, 74, 0
7, 4550, Note_on_c, 3, 77, 0
7, 4560, Note_on_c, 3, 76, 85
7, 4560, Note_on_c, 3, 79, 85
7, 4610, Note_on_c, 3, 76, 0
7, 4620, Note_on_c, 3, 79, 0
7, 4620, Note_on_c, 3, 77, 71
7, 4620, Note_on_c, 3, 74, 72
7, 4680, Note_on_c, 3, 74, 0
7, 4680, Note_on_c, 3, 77, 0
7, 4680, Note_on_c, 3, 74, 75
7, 4680, Note_on_c, 3, 71, 74
7, 4800, Note_on_c, 3, 71, 0
7, 4800, Note_on_c, 3, 74, 0
7, 5220, Note_on_c, 3, 79, 94
7, 5220, Note_on_c, 3, 76, 88
7, 5280, Note_on_c, 3, 76, 0
7, 5280, Note_on_c, 3, 79, 0
7, 5280, Note_on_c, 3, 81, 95
7, 5280, Note_on_c, 3, 77, 93
7, 5330, Note_on_c, 3, 77, 0
7, 5340, Note_on_c, 3, 81, 0
7, 5340, Note_on_c, 3, 79, 87
7, 5340, Note_on_c, 3, 76, 86
7, 5390, Note_on_c, 3, 76, 0
7, 5395, Note_on_c, 3, 79, 0
7, 5400, Note_on_c, 3, 76, 85
7, 5400, Note_on_c, 3, 72, 87
7, 5460, Note_on_c, 3, 72, 0
7, 5460, Note_on_c, 3, 76, 0
7, 5460, Note_on_c, 3, 79, 86
7, 5460, Note_on_c, 3, 76, 86
7, 5520, Note_on_c, 3, 76, 0
7, 5520, Note_on_c, 3, 79, 0
7, 5520, Note_on_c, 3, 81, 96
7, 5520, Note_on_c, 3, 77, 87
7, 5580, Note_on_c, 3, 77, 0
7, 5580, Note_on_c, 3, 81, 0
7, 5580, Note_on_c, 3, 76, 88
7, 5580, Note_on_c, 3, 79, 86
7, 5630, Note_on_c, 3, 79, 0
7, 5640, Note_on_c, 3, 76, 0
7, 5640, Note_on_c, 3, 76, 85
7, 5640, Note_on_c, 3, 72, 84
7, 5690, Note_on_c, 3, 76, 0
7, 5700, Note_on_c, 3, 79, 89
7, 5700, Note_on_c, 3, 76, 88
7, 5701, Note_on_c, 3, 72, 0
7, 5760, Note_on_c, 3, 76, 0
7, 5760, Note_on_c, 3, 79, 0
7, 5760, Note_on_c, 3, 84, 104
7, 5771, Note_on_c, 3, 84, 0
7, 5820, Note_on_c, 3, 83, 100
7, 5840, Note_on_c, 3, 83, 0
7, 5880, Note_on_c, 3, 81, 104
7, 5902, Note_on_c, 3, 81, 0
7, 5940, Note_on_c, 3, 80, 98
7, 5955, Note_on_c, 3, 80, 0
7, 6000, Note_on_c, 3, 81, 104
7, 6022, Note_on_c, 3, 81, 0
7, 6060, Note_on_c, 3, 79, 99
7, 6075, Note_on_c, 3, 79, 0
7, 6120, Note_on_c, 3, 77, 104
7, 6140, Note_on_c, 3, 77, 0
7, 6180, Note_on_c, 3, 76, 97
7, 6195, Note_on_c, 3, 76, 0
7, 6240, Note_on_c, 3, 77, 101
7, 6260, Note_on_c, 3, 77, 0
7, 6300, Note_on_c, 3, 76, 93
7, 6315, Note_on_c, 3, 76, 0
7, 6360, Note_on_c, 3, 74, 101
7, 6375, Note_on_c, 3, 74, 0
7, 6420, Note_on_c, 3, 72, 96
7, 6450, Note_on_c, 3, 72, 0
7, 6480, Note_on_c, 3, 71, 84
7, 6480, Note_on_c, 3, 74, 95
7, 6600, Note_on_c, 3, 74, 0
7, 6600, Note_on_c, 3, 71, 0
7, 8400, Note_on_c, 3, 79, 119
7, 8640, Note_on_c, 3, 79, 0
7, 8640, Note_on_c, 3, 81, 105
7, 8880, Note_on_c, 3, 81, 0
7, 8880, Note_on_c, 3, 79, 94
7, 9120, Note_on_c, 3, 79, 0
7, 9120, Note_on_c, 3, 81, 109
7, 9360, Note_on_c, 3, 81, 0
7, 9360, Note_on_c, 3, 79, 83
7, 9595, Note_on_c, 3, 79, 0
7, 9600, Note_on_c, 3, 81, 109
7, 9840, Note_on_c, 3, 81, 0
7, 9840, Note_on_c, 3, 79, 123
7, 9960, Note_on_c, 3, 79, 0
7, 10020, Note_on_c, 3, 79, 118
7, 10080, Note_on_c, 3, 79, 0
7, 10080, Note_on_c, 3, 77, 117
7, 10200, Note_on_c, 3, 77, 0
7, 10260, Note_on_c, 3, 77, 123
7, 10320, Note_on_c, 3, 77, 0
7, 10320, Note_on_c, 3, 76, 115
7, 10440, Note_on_c, 3, 76, 0
7, 10500, Note_on_c, 3, 76, 126
7, 10560, Note_on_c, 3, 76, 0
7, 10560, Note_on_c, 3, 77, 120
7, 10680, Note_on_c, 3, 77, 0
7, 10740, Note_on_c, 3, 77, 121
7, 10800, Note_on_c, 3, 77, 0
7, 10800, Note_on_c, 3, 76, 118
7, 10920, Note_on_c, 3, 76, 0
7, 10980, Note_on_c, 3, 76, 124
7, 11040, Note_on_c, 3, 76, 0
7, 11040, Note_on_c, 3, 74, 115
7, 11160, Note_on_c, 3, 74, 0
7, 11220, Note_on_c, 3, 74, 118
7, 11280, Note_on_c, 3, 74, 0
7, 11280, Note_on_c, 3, 72, 100
7, 11400, Note_on_c, 3, 72, 0
7, 11760, Note_on_c, 3, 76, 103
7, 11817, Note_on_c, 3, 76, 0
7, 11820, Note_on_c, 3, 77, 94
7, 11880, Note_on_c, 3, 78, 104
7, 11890, Note_on_c, 3, 77, 0
7, 11940, Note_on_c, 3, 79, 97
7, 11945, Note_on_c, 3, 78, 0
7, 12000, Note_on_c, 3, 79, 0
7, 12000, Note_on_c, 3, 81, 102
7, 12120, Note_on_c, 3, 81, 0
7, 12240, Note_on_c, 3, 76, 104
7, 12300, Note_on_c, 3, 77, 97
7, 12305, Note_on_c, 3, 76, 0
7, 12360, Note_on_c, 3, 78, 108
7, 12371, Note_on_c, 3, 77, 0
7, 12420, Note_on_c, 3, 79, 104
7, 12425, Note_on_c, 3, 78, 0
7, 12480, Note_on_c, 3, 81, 101
7, 12485, Note_on_c, 3, 79, 0
7, 12606, Note_on_c, 3, 81, 0
7, 12780, Note_on_c, 3, 79, 109
7, 12801, Note_on_c, 3, 79, 0
7, 12840, Note_on_c, 3, 79, 103
7, 12856, Note_on_c, 3, 79, 0
7, 12900, Note_on_c, 3, 79, 109
7, 12915, Note_on_c, 3, 79, 0
7, 12960, Note_on_c, 3, 79, 106
7, 12975, Note_on_c, 3, 79, 0
7, 12975, Note_on_c, 3, 81, 96
7, 12990, Note_on_c, 3, 81, 0
7, 12990, Note_on_c, 3, 79, 98
7, 13006, Note_on_c, 3, 79, 0
7, 13020, Note_on_c, 3, 77, 95
7, 13040, Note_on_c, 3, 77, 0
7, 13080, Note_on_c, 3, 77, 109
7, 13096, Note_on_c, 3, 77, 0
7, 13140, Note_on_c, 3, 77, 108
7, 13152, Note_on_c, 3, 77, 0
7, 13200, Note_on_c, 3, 77, 111
7, 13215, Note_on_c, 3, 79, 102
7, 13220, Note_on_c, 3, 77, 0
7, 13230, Note_on_c, 3, 79, 0
7, 13230, Note_on_c, 3, 77, 101
7, 13250, Note_on_c, 3, 77, 0
7, 13260, Note_on_c, 3, 76, 103
7, 13276, Note_on_c, 3, 76, 0
7, 13320, Note_on_c, 3, 79, 108
7, 13340, Note_on_c, 3, 79, 0
7, 13380, Note_on_c, 3, 79, 109
7, 13395, Note_on_c, 3, 79, 0
7, 13440, Note_on_c, 3, 79, 114
7, 13455, Note_on_c, 3, 81, 103
7, 13461, Note_on_c, 3, 79, 0
7, 13470, Note_on_c, 3, 81, 0
7, 13470, Note_on_c, 3, 79, 104
7, 13490, Note_on_c, 3, 79, 0
7, 13500, Note_on_c, 3, 77, 103
7, 13521, Note_on_c, 3, 77, 0
7, 13560, Note_on_c, 3, 77, 108
7, 13575, Note_on_c, 3, 77, 0
7, 13620, Note_on_c, 3, 77, 106
7, 13636, Note_on_c, 3, 77, 0
7, 13680, Note_on_c, 3, 77, 111
7, 13695, Note_on_c, 3, 77, 0
7, 13695, Note_on_c, 3, 79, 113
7, 13710, Note_on_c, 3, 79, 0
7, 13710, Note_on_c, 3, 77, 107
7, 13732, Note_on_c, 3, 77, 0
7, 13740, Note_on_c, 3, 76, 116
7, 13765, Note_on_c, 3, 76, 0
7, 13800, Note_on_c, 3, 76, 114
7, 13815, Note_on_c, 3, 76, 0
7, 13860, Note_on_c, 3, 76, 107
7, 13876, Note_on_c, 3, 76, 0
7, 13920, Note_on_c, 3, 76, 108
7, 13935, Note_on_c, 3, 76, 0
7, 13935, Note_on_c, 3, 77, 104
7, 13950, Note_on_c, 3, 77, 0
7, 13950, Note_on_c, 3, 76, 99
7, 13980, Note_on_c, 3, 76, 0
7, 13980, Note_on_c, 3, 74, 112
7, 14000, Note_on_c, 3, 74, 0
7, 14040, Note_on_c, 3, 74, 124
7, 14055, Note_on_c, 3, 74, 0
7, 14100, Note_on_c, 3, 74, 122
7, 14115, Note_on_c, 3, 74, 0
7, 14160, Note_on_c, 3, 72, 127
7, 14182, Note_on_c, 3, 72, 0
7, 14220, Note_on_c, 3, 72, 121
7, 14236, Note_on_c, 3, 72, 0
7, 14280, Note_on_c, 3, 72, 127
7, 14295, Note_on_c, 3, 72, 0
7, 14400, Note_on_c, 3, 79, 127
7, 14420, Note_on_c, 3, 79, 0
7, 14460, Note_on_c, 3, 79, 127
7, 14477, Note_on_c, 3, 79, 0
7, 14520, Note_on_c, 3, 79, 127
7, 14561, Note_on_c, 3, 79, 0
7, 14640, Note_on_c, 3, 84, 127
7, 14665, Note_on_c, 3, 84, 0
7, 14700, Note_on_c, 3, 84, 127
7, 14725, Note_on_c, 3, 84, 0
7, 14760, Note_on_c, 3, 84, 127
7, 14811, Note_on_c, 3, 84, 0
7, 14880, Note_on_c, 3, 79, 127
7, 14901, Note_on_c, 3, 79, 0
7, 14940, Note_on_c, 3, 79, 127
7, 14961, Note_on_c, 3, 79, 0
7, 15000, Note_on_c, 3, 79, 127
7, 15020, Note_on_c, 3, 79, 0
7, 15120, Note_on_c, 3, 72, 127
7, 15156, Note_on_c, 3, 72, 0
7, 15240, Note_on_c, 3, 72, 127
7, 15275, Note_on_c, 3, 72, 0
7, 15330, Note_on_c, 3, 72, 127
7, 15340, Note_on_c, 3, 72, 0
7, 15360, Note_on_c, 3, 72, 127
7, 15485, Note_on_c, 3, 72, 0
7, 15485, End_track
8, 0, Start_track
8, 0, MIDI_port, 0
8, 0, Title_t, "Trombone58          "
8, 0, Program_c, 5, 57
8, 0, Control_c, 5, 7, 50
8, 0, Control_c, 5, 10, 20
8, 480, Control_c, 5, 121, 0
8, 480, Control_c, 5, 7, 68
8, 480, Control_c, 5, 91, 60
8, 480, Control_c, 5, 93, 20
8, 480, Note_on_c, 5, 43, 110
8, 570, Note_on_c, 5, 43, 0
8, 600, Note_on_c, 5, 43, 114
8, 616, Note_on_c, 5, 43, 0
8, 660, Note_on_c, 5, 43, 116
8, 680, Note_on_c, 5, 43, 0
8, 720, Note_on_c, 5, 48, 108
8, 840, Note_on_c, 5, 48, 0
8, 1440, Note_on_c, 5, 43, 111
8, 1526, Note_on_c, 5, 43, 0
8, 1560, Note_on_c, 5, 43, 111
8, 1580, Note_on_c, 5, 43, 0
8, 1620, Note_on_c, 5, 43, 113
8, 1640, Note_on_c, 5, 43, 0
8, 1680, Note_on_c, 5, 48, 108
8, 1815, Note_on_c, 5, 48, 0
8, 2400, Note_on_c, 5, 43, 110
8, 2415, Note_on_c, 5, 43, 0
8, 2520, Note_on_c, 5, 43, 114
8, 2536, Note_on_c, 5, 43, 0
8, 2580, Note_on_c, 5, 43, 116
8, 2600, Note_on_c, 5, 43, 0
8, 2640, Note_on_c, 5, 48, 108
8, 2760, Note_on_c, 5, 48, 0
8, 3360, Note_on_c, 5, 43, 111
8, 3446, Note_on_c, 5, 43, 0
8, 3480, Note_on_c, 5, 43, 111
8, 3500, Note_on_c, 5, 43, 0
8, 3540, Note_on_c, 5, 43, 113
8, 3560, Note_on_c, 5, 43, 0
8, 3600, Note_on_c, 5, 48, 108
8, 3735, Note_on_c, 5, 48, 0
8, 4320, Note_on_c, 5, 61, 89
8, 4320, Note_on_c, 5, 58, 79
8, 4370, Note_on_c, 5, 58, 0
8, 4370, Note_on_c, 5, 61, 0
8, 4380, Note_on_c, 5, 62, 78
8, 4380, Note_on_c, 5, 59, 70
8, 4430, Note_on_c, 5, 59, 0
8, 4430, Note_on_c, 5, 62, 0
8, 4440, Note_on_c, 5, 65, 83
8, 4440, Note_on_c, 5, 62, 79
8, 4505, Note_on_c, 5, 62, 0
8, 4505, Note_on_c, 5, 65, 0
8, 4560, Note_on_c, 5, 61, 81
8, 4560, Note_on_c, 5, 58, 79
8, 4620, Note_on_c, 5, 58, 0
8, 4620, Note_on_c, 5, 61, 0
8, 4620, Note_on_c, 5, 59, 74
8, 4620, Note_on_c, 5, 62, 76
8, 4670, Note_on_c, 5, 59, 0
8, 4671, Note_on_c, 5, 62, 0
8, 4680, Note_on_c, 5, 62, 75
8, 4680, Note_on_c, 5, 65, 79
8, 4755, Note_on_c, 5, 65, 0
8, 4755, Note_on_c, 5, 62, 0
8, 5280, Note_on_c, 5, 59, 74
8, 5280, Note_on_c, 5, 62, 79
8, 5340, Note_on_c, 5, 62, 0
8, 5340, Note_on_c, 5, 59, 0
8, 5340, Note_on_c, 5, 64, 83
8, 5340, Note_on_c, 5, 60, 75
8, 5400, Note_on_c, 5, 60, 0
8, 5400, Note_on_c, 5, 64, 0
8, 5400, Note_on_c, 5, 64, 76
8, 5400, Note_on_c, 5, 67, 80
8, 5460, Note_on_c, 5, 67, 0
8, 5460, Note_on_c, 5, 64, 0
8, 5520, Note_on_c, 5, 59, 69
8, 5520, Note_on_c, 5, 62, 76
8, 5580, Note_on_c, 5, 62, 0
8, 5580, Note_on_c, 5, 59, 0
8, 5580, Note_on_c, 5, 64, 76
8, 5580, Note_on_c, 5, 60, 79
8, 5640, Note_on_c, 5, 60, 0
8, 5640, Note_on_c, 5, 64, 0
8, 5640, Note_on_c, 5, 64, 76
8, 5640, Note_on_c, 5, 67, 79
8, 5700, Note_on_c, 5, 67, 0
8, 5700, Note_on_c, 5, 64, 0
8, 5760, Note_on_c, 5, 60, 96
8, 5825, Note_on_c, 5, 60, 0
8, 5880, Note_on_c, 5, 60, 94
8, 5905, Note_on_c, 5, 60, 0
8, 5940, Note_on_c, 5, 60, 103
8, 5956, Note_on_c, 5, 60, 0
8, 6000, Note_on_c, 5, 60, 107
8, 6060, Note_on_c, 5, 60, 0
8, 6120, Note_on_c, 5, 60, 104
8, 6146, Note_on_c, 5, 60, 0
8, 6240, Note_on_c, 5, 60, 107
8, 6280, Note_on_c, 5, 60, 0
8, 6360, Note_on_c, 5, 60, 107
8, 6390, Note_on_c, 5, 60, 0
8, 6480, Note_on_c, 5, 55, 106
8, 6600, Note_on_c, 5, 55, 0
8, 8400, Note_on_c, 5, 64, 92
8, 8640, Note_on_c, 5, 64, 0
8, 8640, Note_on_c, 5, 65, 103
8, 8880, Note_on_c, 5, 65, 0
8, 8880, Note_on_c, 5, 64, 94
8, 9120, Note_on_c, 5, 64, 0
8, 9120, Note_on_c, 5, 65, 98
8, 9360, Note_on_c, 5, 65, 0
8, 9360, Note_on_c, 5, 64, 108
8, 9600, Note_on_c, 5, 64, 0
8, 9600, Note_on_c, 5, 65, 117
8, 9840, Note_on_c, 5, 65, 0
8, 9840, Note_on_c, 5, 64, 117
8, 9960, Note_on_c, 5, 64, 0
8, 10020, Note_on_c, 5, 64, 120
8, 10076, Note_on_c, 5, 64, 0
8, 10080, Note_on_c, 5, 62, 117
8, 10205, Note_on_c, 5, 62, 0
8, 10260, Note_on_c, 5, 62, 127
8, 10320, Note_on_c, 5, 62, 0
8, 10320, Note_on_c, 5, 60, 109
8, 10450, Note_on_c, 5, 60, 0
8, 10500, Note_on_c, 5, 60, 117
8, 10560, Note_on_c, 5, 60, 0
8, 10560, Note_on_c, 5, 62, 123
8, 10710, Note_on_c, 5, 62, 0
8, 10740, Note_on_c, 5, 62, 127
8, 10800, Note_on_c, 5, 62, 0
8, 10800, Note_on_c, 5, 60, 114
8, 10927, Note_on_c, 5, 60, 0
8, 10980, Note_on_c, 5, 60, 120
8, 11040, Note_on_c, 5, 60, 0
8, 11040, Note_on_c, 5, 59, 106
8, 11161, Note_on_c, 5, 59, 0
8, 11220, Note_on_c, 5, 59, 126
8, 11280, Note_on_c, 5, 59, 0
8, 11280, Note_on_c, 5, 60, 127
8, 11410, Note_on_c, 5, 60, 0
8, 11760, Note_on_c, 5, 60, 90
8, 11820, Note_on_c, 5, 60, 0
8, 11820, Note_on_c, 5, 62, 107
8, 11880, Note_on_c, 5, 62, 0
8, 11880, Note_on_c, 5, 63, 111
8, 11940, Note_on_c, 5, 64, 88
8, 11941, Note_on_c, 5, 63, 0
8, 12000, Note_on_c, 5, 64, 0
8, 12000, Note_on_c, 5, 65, 90
8, 12135, Note_on_c, 5, 65, 0
8, 12240, Note_on_c, 5, 60, 90
8, 12300, Note_on_c, 5, 60, 0
8, 12300, Note_on_c, 5, 62, 107
8, 12360, Note_on_c, 5, 62, 0
8, 12360, Note_on_c, 5, 63, 111
8, 12420, Note_on_c, 5, 64, 88
8, 12421, Note_on_c, 5, 63, 0
8, 12480, Note_on_c, 5, 64, 0
8, 12480, Note_on_c, 5, 65, 90
8, 12615, Note_on_c, 5, 65, 0
8, 12780, Note_on_c, 5, 64, 110
8, 12797, Note_on_c, 5, 64, 0
8, 12840, Note_on_c, 5, 64, 105
8, 12857, Note_on_c, 5, 64, 0
8, 12900, Note_on_c, 5, 64, 98
8, 12916, Note_on_c, 5, 64, 0
8, 12960, Note_on_c, 5, 64, 104
8, 12975, Note_on_c, 5, 65, 92
8, 12980, Note_on_c, 5, 64, 0
8, 12990, Note_on_c, 5, 64, 82
8, 12995, Note_on_c, 5, 65, 0
8, 13020, Note_on_c, 5, 64, 0
8, 13020, Note_on_c, 5, 62, 101
8, 13040, Note_on_c, 5, 62, 0
8, 13080, Note_on_c, 5, 62, 113
8, 13105, Note_on_c, 5, 62, 0
8, 13140, Note_on_c, 5, 62, 113
8, 13155, Note_on_c, 5, 62, 0
8, 13200, Note_on_c, 5, 62, 116
8, 13215, Note_on_c, 5, 64, 79
8, 13220, Note_on_c, 5, 62, 0
8, 13230, Note_on_c, 5, 64, 0
8, 13230, Note_on_c, 5, 62, 96
8, 13260, Note_on_c, 5, 62, 0
8, 13260, Note_on_c, 5, 60, 113
8, 13280, Note_on_c, 5, 60, 0
8, 13320, Note_on_c, 5, 64, 116
8, 13340, Note_on_c, 5, 64, 0
8, 13380, Note_on_c, 5, 64, 116
8, 13395, Note_on_c, 5, 64, 0
8, 13440, Note_on_c, 5, 64, 119
8, 13455, Note_on_c, 5, 64, 0
8, 13455, Note_on_c, 5, 65, 92
8, 13470, Note_on_c, 5, 64, 98
8, 13476, Note_on_c, 5, 65, 0
8, 13490, Note_on_c, 5, 64, 0
8, 13500, Note_on_c, 5, 62, 108
8, 13520, Note_on_c, 5, 62, 0
8, 13560, Note_on_c, 5, 62, 121
8, 13580, Note_on_c, 5, 62, 0
8, 13620, Note_on_c, 5, 62, 101
8, 13630, Note_on_c, 5, 62, 0
8, 13680, Note_on_c, 5, 62, 124
8, 13695, Note_on_c, 5, 62, 0
8, 13695, Note_on_c, 5, 64, 112
8, 13710, Note_on_c, 5, 64, 0
8, 13710, Note_on_c, 5, 62, 111
8, 13727, Note_on_c, 5, 62, 0
8, 13740, Note_on_c, 5, 60, 117
8, 13756, Note_on_c, 5, 60, 0
8, 13800, Note_on_c, 5, 60, 126
8, 13821, Note_on_c, 5, 60, 0
8, 13860, Note_on_c, 5, 60, 127
8, 13876, Note_on_c, 5, 60, 0
8, 13920, Note_on_c, 5, 60, 127
8, 13935, Note_on_c, 5, 60, 0
8, 13935, Note_on_c, 5, 62, 120
8, 13950, Note_on_c, 5, 62, 0
8, 13950, Note_on_c, 5, 60, 101
8, 13975, Note_on_c, 5, 60, 0
8, 13980, Note_on_c, 5, 59, 114
8, 14005, Note_on_c, 5, 59, 0
8, 14040, Note_on_c, 5, 59, 118
8, 14070, Note_on_c, 5, 59, 0
8, 14100, Note_on_c, 5, 59, 124
8, 14125, Note_on_c, 5, 59, 0
8, 14160, Note_on_c, 5, 60, 127
8, 14285, Note_on_c, 5, 60, 0
8, 14400, Note_on_c, 5, 55, 127
8, 14415, Note_on_c, 5, 55, 0
8, 14460, Note_on_c, 5, 55, 127
8, 14480, Note_on_c, 5, 55, 0
8, 14520, Note_on_c, 5, 55, 127
8, 14580, Note_on_c, 5, 55, 0
8, 14640, Note_on_c, 5, 60, 127
8, 14655, Note_on_c, 5, 60, 0
8, 14700, Note_on_c, 5, 60, 127
8, 14720, Note_on_c, 5, 60, 0
8, 14760, Note_on_c, 5, 60, 127
8, 14820, Note_on_c, 5, 60, 0
8, 14880, Note_on_c, 5, 55, 127
8, 14895, Note_on_c, 5, 55, 0
8, 14940, Note_on_c, 5, 55, 127
8, 14960, Note_on_c, 5, 55, 0
8, 15000, Note_on_c, 5, 55, 127
8, 15060, Note_on_c, 5, 55, 0
8, 15120, Note_on_c, 5, 60, 127
8, 15210, Note_on_c, 5, 60, 0
8, 15240, Note_on_c, 5, 60, 127
8, 15300, Note_on_c, 5, 60, 0
8, 15330, Note_on_c, 5, 60, 127
8, 15350, Note_on_c, 5, 60, 0
8, 15360, Note_on_c, 5, 60, 127
8, 15480, Note_on_c, 5, 60, 0
8, 15480, End_track
9, 0, Start_track
9, 0, MIDI_port, 0
9, 0, Title_t, "PIANO               "
9, 0, Program_c, 1, 0
9, 0, Control_c, 1, 7, 127
9, 0, Control_c, 1, 10, 70
9, 6720, Note_on_c, 1, 76, 98
9, 6725, Note_on_c, 1, 76, 0
9, 6780, Note_on_c, 1, 77, 95
9, 6785, Note_on_c, 1, 77, 0
9, 6840, Note_on_c, 1, 78, 107
9, 6845, Note_on_c, 1, 78, 0
9, 6900, Note_on_c, 1, 79, 104
9, 6905, Note_on_c, 1, 79, 0
9, 6960, Note_on_c, 1, 81, 116
9, 7020, Note_on_c, 1, 79, 111
9, 7025, Note_on_c, 1, 79, 0
9, 7025, Note_on_c, 1, 81, 0
9, 7080, Note_on_c, 1, 77, 109
9, 7085, Note_on_c, 1, 77, 0
9, 7140, Note_on_c, 1, 76, 102
9, 7145, Note_on_c, 1, 76, 0
9, 7200, Note_on_c, 1, 74, 111
9, 7245, Note_on_c, 1, 74, 0
9, 7245, Note_on_c, 1, 76, 108
9, 7260, Note_on_c, 1, 76, 0
9, 7260, Note_on_c, 1, 74, 107
9, 7277, Note_on_c, 1, 74, 0
9, 7290, Note_on_c, 1, 72, 102
9, 7320, Note_on_c, 1, 72, 0
9, 7320, Note_on_c, 1, 74, 112
9, 7335, Note_on_c, 1, 74, 0
9, 7380, Note_on_c, 1, 74, 111
9, 7385, Note_on_c, 1, 74, 0
9, 7440, Note_on_c, 1, 74, 106
9, 7500, Note_on_c, 1, 74, 0
9, 7500, Note_on_c, 1, 75, 105
9, 7560, Note_on_c, 1, 75, 0
9, 7560, Note_on_c, 1, 76, 112
9, 7620, Note_on_c, 1, 76, 0
9, 7620, Note_on_c, 1, 72, 105
9, 7635, Note_on_c, 1, 72, 0
9, 7680, Note_on_c, 1, 76, 107
9, 7685, Note_on_c, 1, 76, 0
9, 7740, Note_on_c, 1, 77, 107
9, 7745, Note_on_c, 1, 77, 0
9, 7800, Note_on_c, 1, 78, 119
9, 7805, Note_on_c, 1, 78, 0
9, 7860, Note_on_c, 1, 79, 113
9, 7865, Note_on_c, 1, 79, 0
9, 7920, Note_on_c, 1, 81, 116
9, 7980, Note_on_c, 1, 79, 108
9, 7985, Note_on_c, 1, 81, 0
9, 7995, Note_on_c, 1, 79, 0
9, 8040, Note_on_c, 1, 77, 109
9, 8055, Note_on_c, 1, 77, 0
9, 8100, Note_on_c, 1, 76, 100
9, 8105, Note_on_c, 1, 76, 0
9, 8160, Note_on_c, 1, 74, 108
9, 8205, Note_on_c, 1, 74, 0
9, 8205, Note_on_c, 1, 76, 106
9, 8220, Note_on_c, 1, 76, 0
9, 8220, Note_on_c, 1, 74, 104
9, 8250, Note_on_c, 1, 74, 0
9, 8250, Note_on_c, 1, 72, 105
9, 8275, Note_on_c, 1, 72, 0
9, 8280, Note_on_c, 1, 74, 103
9, 8340, Note_on_c, 1, 74, 0
9, 8340, Note_on_c, 1, 76, 101
9, 8345, Note_on_c, 1, 76, 0
9, 8400, Note_on_c, 1, 72, 96
9, 8506, Note_on_c, 1, 72, 0
9, 15600, Note_on_c, 1, 60, 98
9, 15630, Note_on_c, 1, 60, 0
9, 15630, Note_on_c, 1, 72, 106
9, 15840, Note_on_c, 1, 72, 0
9, 15840, Note_on_c, 1, 64, 101
9, 15875, Note_on_c, 1, 64, 0
9, 15875, Note_on_c, 1, 76, 111
9, 16080, Note_on_c, 1, 67, 104
9, 16085, Note_on_c, 1, 76, 0
9, 16115, Note_on_c, 1, 67, 0
9, 16115, Note_on_c, 1, 79, 113
9, 16380, Note_on_c, 1, 81, 112
9, 16391, Note_on_c, 1, 79, 0
9, 16410, Note_on_c, 1, 79, 111
9, 16415, Note_on_c, 1, 81, 0
9, 16440, Note_on_c, 1, 79, 0
9, 16440, Note_on_c, 1, 77, 116
9, 16470, Note_on_c, 1, 76, 109
9, 16475, Note_on_c, 1, 77, 0
9, 16500, Note_on_c, 1, 76, 0
9, 16500, Note_on_c, 1, 74, 103
9, 16526, Note_on_c, 1, 74, 0
9, 16530, Note_on_c, 1, 72, 101
9, 16560, Note_on_c, 1, 72, 0
9, 16560, Note_on_c, 1, 71, 105
9, 16590, Note_on_c, 1, 71, 0
9, 16590, Note_on_c, 1, 74, 109
9, 16620, Note_on_c, 1, 74, 0
9, 16620, Note_on_c, 1, 72, 113
9, 16650, Note_on_c, 1, 72, 0
9, 16650, Note_on_c, 1, 76, 119
9, 16680, Note_on_c, 1, 76, 0
9, 16680, Note_on_c, 1, 74, 127
9, 16710, Note_on_c, 1, 77, 119
9, 16721, Note_on_c, 1, 74, 0
9, 16740, Note_on_c, 1, 77, 0
9, 16740, Note_on_c, 1, 76, 123
9, 16770, Note_on_c, 1, 76, 0
9, 16770, Note_on_c, 1, 79, 123
9, 16800, Note_on_c, 1, 79, 0
9, 16800, Note_on_c, 1, 77, 127
9, 16830, Note_on_c, 1, 81, 124
9, 16835, Note_on_c, 1, 77, 0
9, 16860, Note_on_c, 1, 81, 0
9, 16860, Note_on_c, 1, 79, 123
9, 16890, Note_on_c, 1, 83, 124
9, 16896, Note_on_c, 1, 79, 0
9, 16916, Note_on_c, 1, 83, 0
9, 16920, Note_on_c, 1, 81, 126
9, 16950, Note_on_c, 1, 84, 127
9, 16955, Note_on_c, 1, 81, 0
9, 16980, Note_on_c, 1, 84, 0
9, 16980, Note_on_c, 1, 83, 126
9, 17010, Note_on_c, 1, 83, 0
9, 17010, Note_on_c, 1, 86, 127
9, 17040, Note_on_c, 1, 86, 0
9, 17040, Note_on_c, 1, 84, 127
9, 17100, Note_on_c, 1, 79, 114
9, 17105, Note_on_c, 1, 84, 0
9, 17110, Note_on_c, 1, 79, 0
9, 17160, Note_on_c, 1, 79, 103
9, 17340, Note_on_c, 1, 79, 0
9, 17340, Note_on_c, 1, 81, 119
9, 17370, Note_on_c, 1, 79, 115
9, 17375, Note_on_c, 1, 81, 0
9, 17400, Note_on_c, 1, 77, 118
9, 17410, Note_on_c, 1, 79, 0
9, 17426, Note_on_c, 1, 77, 0
9, 17430, Note_on_c, 1, 76, 104
9, 17460, Note_on_c, 1, 76, 0
9, 17460, Note_on_c, 1, 74, 123
9, 17490, Note_on_c, 1, 72, 107
9, 17500, Note_on_c, 1, 74, 0
9, 17515, Note_on_c, 1, 72, 0
9, 17520, Note_on_c, 1, 71, 103
9, 17550, Note_on_c, 1, 71, 0
9, 17550, Note_on_c, 1, 74, 124
9, 17575, Note_on_c, 1, 74, 0
9, 17580, Note_on_c, 1, 72, 112
9, 17605, Note_on_c, 1, 72, 0
9, 17610, Note_on_c, 1, 76, 121
9, 17627, Note_on_c, 1, 76, 0
9, 17640, Note_on_c, 1, 74, 127
9, 17670, Note_on_c, 1, 74, 0
9, 17670, Note_on_c, 1, 77, 127
9, 17697, Note_on_c, 1, 77, 0
9, 17700, Note_on_c, 1, 76, 126
9, 17727, Note_on_c, 1, 76, 0
9, 17730, Note_on_c, 1, 79, 127
9, 17750, Note_on_c, 1, 79, 0
9, 17760, Note_on_c, 1, 77, 127
9, 17790, Note_on_c, 1, 81, 121
9, 17792, Note_on_c, 1, 77, 0
9, 17820, Note_on_c, 1, 79, 123
9, 17830, Note_on_c, 1, 81, 0
9, 17850, Note_on_c, 1, 79, 0
9, 17850, Note_on_c, 1, 83, 121
9, 17880, Note_on_c, 1, 81, 127
9, 17885, Note_on_c, 1, 83, 0
9, 17910, Note_on_c, 1, 84, 123
9, 17915, Note_on_c, 1, 81, 0
9, 17940, Note_on_c, 1, 83, 121
9, 17946, Note_on_c, 1, 84, 0
9, 17970, Note_on_c, 1, 86, 119
9, 17976, Note_on_c, 1, 83, 0
9, 18000, Note_on_c, 1, 86, 0
9, 18000, Note_on_c, 1, 84, 127
9, 18030, Note_on_c, 1, 86, 126
9, 18031, Note_on_c, 1, 84, 0
9, 18060, Note_on_c, 1, 88, 121
9, 18070, Note_on_c, 1, 86, 0
9, 18090, Note_on_c, 1, 86, 126
9, 18106, Note_on_c, 1, 88, 0
9, 18116, Note_on_c, 1, 86, 0
9, 18120, Note_on_c, 1, 84, 124
9, 18150, Note_on_c, 1, 84, 0
9, 18150, Note_on_c, 1, 83, 119
9, 18176, Note_on_c, 1, 83, 0
9, 18180, Note_on_c, 1, 81, 116
9, 18202, Note_on_c, 1, 81, 0
9, 18210, Note_on_c, 1, 80, 127
9, 18235, Note_on_c, 1, 80, 0
9, 18240, Note_on_c, 1, 81, 127
9, 18265, Note_on_c, 1, 81, 0
9, 18270, Note_on_c, 1, 83, 123
9, 18300, Note_on_c, 1, 84, 124
9, 18305, Note_on_c, 1, 83, 0
9, 18330, Note_on_c, 1, 83, 124
9, 18341, Note_on_c, 1, 84, 0
9, 18360, Note_on_c, 1, 83, 0
9, 18360, Note_on_c, 1, 81, 113
9, 18390, Note_on_c, 1, 79, 119
9, 18391, Note_on_c, 1, 81, 0
9, 18420, Note_on_c, 1, 77, 121
9, 18425, Note_on_c, 1, 79, 0
9, 18445, Note_on_c, 1, 77, 0
9, 18450, Note_on_c, 1, 76, 121
9, 18480, Note_on_c, 1, 76, 0
9, 18480, Note_on_c, 1, 77, 127
9, 18510, Note_on_c, 1, 77, 0
9, 18510, Note_on_c, 1, 79, 119
9, 18540, Note_on_c, 1, 79, 0
9, 18540, Note_on_c, 1, 81, 121
9, 18570, Note_on_c, 1, 81, 0
9, 18570, Note_on_c, 1, 79, 124
9, 18600, Note_on_c, 1, 79, 0
9, 18600, Note_on_c, 1, 77, 126
9, 18626, Note_on_c, 1, 77, 0
9, 18630, Note_on_c, 1, 76, 127
9, 18660, Note_on_c, 1, 76, 0
9, 18660, Note_on_c, 1, 74, 126
9, 18687, Note_on_c, 1, 74, 0
9, 18690, Note_on_c, 1, 73, 116
9, 18720, Note_on_c, 1, 73, 0
9, 18720, Note_on_c, 1, 74, 121
9, 18750, Note_on_c, 1, 74, 0
9, 18750, Note_on_c, 1, 76, 119
9, 18780, Note_on_c, 1, 77, 121
9, 18781, Note_on_c, 1, 76, 0
9, 18810, Note_on_c, 1, 76, 118
9, 18816, Note_on_c, 1, 77, 0
9, 18840, Note_on_c, 1, 79, 127
9, 18850, Note_on_c, 1, 76, 0
9, 18870, Note_on_c, 1, 77, 124
9, 18885, Note_on_c, 1, 79, 0
9, 18900, Note_on_c, 1, 76, 118
9, 18907, Note_on_c, 1, 77, 0
9, 18926, Note_on_c, 1, 76, 0
9, 18930, Note_on_c, 1, 74, 118
9, 18960, Note_on_c, 1, 74, 0
9, 18960, Note_on_c, 1, 79, 127
9, 19020, Note_on_c, 1, 79, 0
9, 19020, Note_on_c, 1, 78, 120
9, 19032, Note_on_c, 1, 78, 0
9, 19080, Note_on_c, 1, 77, 109
9, 19096, Note_on_c, 1, 77, 0
9, 19140, Note_on_c, 1, 76, 110
9, 19156, Note_on_c, 1, 76, 0
9, 19200, Note_on_c, 1, 76, 102
9, 19260, Note_on_c, 1, 74, 94
9, 19265, Note_on_c, 1, 76, 0
9, 19275, Note_on_c, 1, 74, 0
9, 19320, Note_on_c, 1, 77, 103
9, 19335, Note_on_c, 1, 77, 0
9, 19380, Note_on_c, 1, 71, 95
9, 19395, Note_on_c, 1, 71, 0
9, 19440, Note_on_c, 1, 72, 94
9, 19440, Control_c, 1, 121, 0
9, 19635, Note_on_c, 1, 72, 0
9, 19635, End_track
10, 0, Start_track
10, 0, MIDI_port, 0
10, 0, Title_t, "PIANO               "
10, 0, Program_c, 2, 0
10, 0, Control_c, 2, 7, 120
10, 0, Control_c, 2, 10, 50
10, 6721, Note_on_c, 2, 60, 89
10, 6727, Note_on_c, 2, 60, 0
10, 6780, Note_on_c, 2, 62, 104
10, 6785, Note_on_c, 2, 62, 0
10, 6841, Note_on_c, 2, 63, 114
10, 6847, Note_on_c, 2, 63, 0
10, 6896, Note_on_c, 2, 64, 106
10, 6902, Note_on_c, 2, 64, 0
10, 6965, Note_on_c, 2, 65, 108
10, 7026, Note_on_c, 2, 64, 109
10, 7035, Note_on_c, 2, 65, 0
10, 7041, Note_on_c, 2, 64, 0
10, 7085, Note_on_c, 2, 62, 104
10, 7105, Note_on_c, 2, 62, 0
10, 7145, Note_on_c, 2, 60, 101
10, 7160, Note_on_c, 2, 60, 0
10, 7200, Note_on_c, 2, 59, 114
10, 7211, Note_on_c, 2, 59, 0
10, 7261, Note_on_c, 2, 60, 105
10, 7280, Note_on_c, 2, 59, 106
10, 7286, Note_on_c, 2, 60, 0
10, 7296, Note_on_c, 2, 59, 0
10, 7300, Note_on_c, 2, 57, 97
10, 7321, Note_on_c, 2, 59, 106
10, 7325, Note_on_c, 2, 57, 0
10, 7332, Note_on_c, 2, 59, 0
10, 7376, Note_on_c, 2, 59, 112
10, 7391, Note_on_c, 2, 59, 0
10, 7442, Note_on_c, 2, 59, 103
10, 7556, Note_on_c, 2, 60, 104
10, 7558, Note_on_c, 2, 59, 0
10, 7571, Note_on_c, 2, 60, 0
10, 7685, Note_on_c, 2, 60, 111
10, 7690, Note_on_c, 2, 60, 0
10, 7740, Note_on_c, 2, 62, 101
10, 7745, Note_on_c, 2, 62, 0
10, 7800, Note_on_c, 2, 63, 119
10, 7805, Note_on_c, 2, 63, 0
10, 7860, Note_on_c, 2, 64, 108
10, 7865, Note_on_c, 2, 64, 0
10, 7915, Note_on_c, 2, 65, 114
10, 7980, Note_on_c, 2, 65, 0
10, 7980, Note_on_c, 2, 64, 109
10, 7995, Note_on_c, 2, 64, 0
10, 8041, Note_on_c, 2, 62, 104
10, 8062, Note_on_c, 2, 62, 0
10, 8101, Note_on_c, 2, 60, 99
10, 8116, Note_on_c, 2, 60, 0
10, 8156, Note_on_c, 2, 59, 116
10, 8167, Note_on_c, 2, 59, 0
10, 8216, Note_on_c, 2, 60, 111
10, 8235, Note_on_c, 2, 59, 109
10, 8241, Note_on_c, 2, 60, 0
10, 8255, Note_on_c, 2, 59, 0
10, 8255, Note_on_c, 2, 57, 96
10, 8272, Note_on_c, 2, 57, 0
10, 8275, Note_on_c, 2, 59, 114
10, 8290, Note_on_c, 2, 59, 0
10, 8331, Note_on_c, 2, 55, 97
10, 8344, Note_on_c, 2, 55, 0
10, 8401, Note_on_c, 2, 60, 97
10, 8514, Note_on_c, 2, 60, 0
10, 16080, Note_on_c, 2, 60, 88
10, 16080, Note_on_c, 2, 64, 87
10, 16140, Note_on_c, 2, 60, 0
10, 16140, Note_on_c, 2, 55, 78
10, 16141, Note_on_c, 2, 64, 0
10, 16200, Note_on_c, 2, 55, 0
10, 16200, Note_on_c, 2, 64, 80
10, 16200, Note_on_c, 2, 60, 84
10, 16251, Note_on_c, 2, 60, 0
10, 16255, Note_on_c, 2, 64, 0
10, 16260, Note_on_c, 2, 55, 81
10, 16320, Note_on_c, 2, 64, 90
10, 16320, Note_on_c, 2, 60, 93
10, 16321, Note_on_c, 2, 55, 0
10, 16377, Note_on_c, 2, 64, 0
10, 16380, Note_on_c, 2, 60, 0
10, 16380, Note_on_c, 2, 55, 93
10, 16437, Note_on_c, 2, 55, 0
10, 16440, Note_on_c, 2, 60, 103
10, 16440, Note_on_c, 2, 64, 96
10, 16490, Note_on_c, 2, 64, 0
10, 16490, Note_on_c, 2, 60, 0
10, 16500, Note_on_c, 2, 55, 94
10, 16560, Note_on_c, 2, 55, 0
10, 16560, Note_on_c, 2, 62, 84
10, 16560, Note_on_c, 2, 65, 83
10, 16610, Note_on_c, 2, 65, 0
10, 16611, Note_on_c, 2, 62, 0
10, 16620, Note_on_c, 2, 55, 86
10, 16665, Note_on_c, 2, 55, 0
10, 16680, Note_on_c, 2, 65, 94
10, 16680, Note_on_c, 2, 62, 90
10, 16735, Note_on_c, 2, 62, 0
10, 16735, Note_on_c, 2, 65, 0
10, 16740, Note_on_c, 2, 55, 94
10, 16800, Note_on_c, 2, 55, 0
10, 16800, Note_on_c, 2, 62, 87
10, 16800, Note_on_c, 2, 65, 91
10, 16850, Note_on_c, 2, 65, 0
10, 16855, Note_on_c, 2, 62, 0
10, 16860, Note_on_c, 2, 55, 90
10, 16920, Note_on_c, 2, 65, 103
10, 16920, Note_on_c, 2, 62, 108
10, 16925, Note_on_c, 2, 55, 0
10, 16970, Note_on_c, 2, 62, 0
10, 16970, Note_on_c, 2, 65, 0
10, 16980, Note_on_c, 2, 55, 102
10, 17040, Note_on_c, 2, 60, 108
10, 17040, Note_on_c, 2, 64, 99
10, 17045, Note_on_c, 2, 55, 0
10, 17095, Note_on_c, 2, 64, 0
10, 17100, Note_on_c, 2, 60, 0
10, 17100, Note_on_c, 2, 55, 92
10, 17160, Note_on_c, 2, 60, 90
10, 17160, Note_on_c, 2, 64, 91
10, 17165, Note_on_c, 2, 55, 0
10, 17220, Note_on_c, 2, 55, 92
10, 17221, Note_on_c, 2, 64, 0
10, 17226, Note_on_c, 2, 60, 0
10, 17280, Note_on_c, 2, 55, 0
10, 17280, Note_on_c, 2, 64, 93
10, 17280, Note_on_c, 2, 60, 93
10, 17340, Note_on_c, 2, 64, 0
10, 17340, Note_on_c, 2, 55, 89
10, 17350, Note_on_c, 2, 60, 0
10, 17400, Note_on_c, 2, 55, 0
10, 17400, Note_on_c, 2, 64, 93
10, 17400, Note_on_c, 2, 60, 103
10, 17456, Note_on_c, 2, 64, 0
10, 17457, Note_on_c, 2, 60, 0
10, 17460, Note_on_c, 2, 55, 105
10, 17520, Note_on_c, 2, 55, 0
10, 17520, Note_on_c, 2, 62, 102
10, 17520, Note_on_c, 2, 65, 97
10, 17577, Note_on_c, 2, 65, 0
10, 17580, Note_on_c, 2, 62, 0
10, 17580, Note_on_c, 2, 55, 101
10, 17640, Note_on_c, 2, 55, 0
10, 17640, Note_on_c, 2, 65, 102
10, 17640, Note_on_c, 2, 62, 93
10, 17700, Note_on_c, 2, 55, 109
10, 17705, Note_on_c, 2, 65, 0
10, 17711, Note_on_c, 2, 62, 0
10, 17760, Note_on_c, 2, 55, 0
10, 17760, Note_on_c, 2, 65, 102
10, 17760, Note_on_c, 2, 62, 111
10, 17820, Note_on_c, 2, 55, 108
10, 17825, Note_on_c, 2, 65, 0
10, 17830, Note_on_c, 2, 62, 0
10, 17880, Note_on_c, 2, 55, 0
10, 17880, Note_on_c, 2, 62, 113
10, 17880, Note_on_c, 2, 65, 97
10, 17940, Note_on_c, 2, 65, 0
10, 17940, Note_on_c, 2, 62, 0
10, 17940, Note_on_c, 2, 55, 114
10, 18000, Note_on_c, 2, 55, 0
10, 18000, Note_on_c, 2, 60, 106
10, 18000, Note_on_c, 2, 64, 105
10, 18116, Note_on_c, 2, 60, 0
10, 18125, Note_on_c, 2, 64, 0
10, 18240, Note_on_c, 2, 53, 86
10, 18240, Note_on_c, 2, 60, 93
10, 18355, Note_on_c, 2, 60, 0
10, 18357, Note_on_c, 2, 53, 0
10, 18480, Note_on_c, 2, 60, 89
10, 18480, Note_on_c, 2, 57, 84
10, 18601, Note_on_c, 2, 57, 0
10, 18605, Note_on_c, 2, 60, 0
10, 18720, Note_on_c, 2, 57, 86
10, 18720, Note_on_c, 2, 53, 80
10, 18855, Note_on_c, 2, 57, 0
10, 18860, Note_on_c, 2, 53, 0
10, 18960, Note_on_c, 2, 64, 94
10, 18960, Note_on_c, 2, 55, 89
10, 19200, Note_on_c, 2, 55, 0
10, 19200, Note_on_c, 2, 64, 0
10, 19200, Note_on_c, 2, 57, 86
10, 19200, Note_on_c, 2, 65, 86
10, 19430, Note_on_c, 2, 65, 0
10, 19430, Note_on_c, 2, 57, 0
10, 19440, Note_on_c, 2, 60, 80
10, 19440, Note_on_c, 2, 64, 80
10, 19595, Note_on_c, 2, 60, 0
10, 19600, Note_on_c, 2, 64, 0
10, 19600, End_track
11, 0, Start_track
11, 0, MIDI_port, 0
11, 0, Title_t, "Timpani48           "
11, 0, Program_c, 6, 47
11, 0, Control_c, 6, 7, 120
11, 0, Control_c, 6, 10, 90
11, 480, Control_c, 6, 121, 0
11, 480, Control_c, 6, 7, 90
11, 480, Control_c, 6, 91, 100
11, 480, Control_c, 6, 93, 10
11, 480, Note_on_c, 6, 43, 84
11, 495, Note_on_c, 6, 43, 0
11, 600, Note_on_c, 6, 43, 88
11, 616, Note_on_c, 6, 43, 0
11, 660, Note_on_c, 6, 43, 90
11, 680, Note_on_c, 6, 43, 0
11, 720, Note_on_c, 6, 48, 90
11, 805, Note_on_c, 6, 48, 0
11, 1440, Note_on_c, 6, 43, 85
11, 1526, Note_on_c, 6, 43, 0
11, 1560, Note_on_c, 6, 43, 91
11, 1580, Note_on_c, 6, 43, 0
11, 1620, Note_on_c, 6, 43, 87
11, 1640, Note_on_c, 6, 43, 0
11, 1680, Note_on_c, 6, 48, 91
11, 1815, Note_on_c, 6, 48, 0
11, 2400, Note_on_c, 6, 43, 84
11, 2415, Note_on_c, 6, 43, 0
11, 2520, Note_on_c, 6, 43, 88
11, 2536, Note_on_c, 6, 43, 0
11, 2580, Note_on_c, 6, 43, 90
11, 2600, Note_on_c, 6, 43, 0
11, 2640, Note_on_c, 6, 48, 90
11, 2725, Note_on_c, 6, 48, 0
11, 3360, Note_on_c, 6, 43, 85
11, 3446, Note_on_c, 6, 43, 0
11, 3480, Note_on_c, 6, 43, 91
11, 3500, Note_on_c, 6, 43, 0
11, 3540, Note_on_c, 6, 43, 87
11, 3560, Note_on_c, 6, 43, 0
11, 3600, Note_on_c, 6, 48, 91
11, 3720, Note_on_c, 6, 48, 0
11, 5760, Note_on_c, 6, 48, 91
11, 5802, Note_on_c, 6, 48, 0
11, 5880, Note_on_c, 6, 48, 97
11, 5905, Note_on_c, 6, 48, 0
11, 5970, Note_on_c, 6, 48, 96
11, 5985, Note_on_c, 6, 48, 0
11, 6000, Note_on_c, 6, 48, 59
11, 6020, Note_on_c, 6, 48, 0
11, 6120, Note_on_c, 6, 48, 97
11, 6145, Note_on_c, 6, 48, 0
11, 6240, Note_on_c, 6, 48, 101
11, 6266, Note_on_c, 6, 48, 0
11, 6360, Note_on_c, 6, 48, 102
11, 6386, Note_on_c, 6, 48, 0
11, 6480, Note_on_c, 6, 43, 104
11, 6540, Note_on_c, 6, 43, 0
11, 8400, Note_on_c, 6, 48, 90
11, 8485, Note_on_c, 6, 48, 0
11, 8880, Note_on_c, 6, 48, 90
11, 8965, Note_on_c, 6, 48, 0
11, 9360, Note_on_c, 6, 48, 90
11, 9445, Note_on_c, 6, 48, 0
11, 9600, Note_on_c, 6, 48, 90
11, 9685, Note_on_c, 6, 48, 0
11, 9720, Note_on_c, 6, 48, 89
11, 9770, Note_on_c, 6, 48, 0
11, 9840, Note_on_c, 6, 48, 90
11, 9925, Note_on_c, 6, 48, 0
11, 10080, Note_on_c, 6, 43, 84
11, 10095, Note_on_c, 6, 43, 0
11, 10320, Note_on_c, 6, 48, 90
11, 10405, Note_on_c, 6, 48, 0
11, 10800, Note_on_c, 6, 43, 84
11, 10815, Note_on_c, 6, 43, 0
11, 11040, Note_on_c, 6, 43, 84
11, 11055, Note_on_c, 6, 43, 0
11, 11280, Note_on_c, 6, 48, 90
11, 11365, Note_on_c, 6, 48, 0
11, 12720, Note_on_c, 6, 48, 90
11, 12805, Note_on_c, 6, 48, 0
11, 12960, Note_on_c, 6, 43, 84
11, 12975, Note_on_c, 6, 43, 0
11, 13200, Note_on_c, 6, 48, 90
11, 13285, Note_on_c, 6, 48, 0
11, 13680, Note_on_c, 6, 43, 84
11, 13695, Note_on_c, 6, 43, 0
11, 13920, Note_on_c, 6, 43, 84
11, 13935, Note_on_c, 6, 43, 0
11, 14160, Note_on_c, 6, 48, 90
11, 14245, Note_on_c, 6, 48, 0
11, 14400, Note_on_c, 6, 43, 84
11, 14415, Note_on_c, 6, 43, 0
11, 14640, Note_on_c, 6, 48, 90
11, 14725, Note_on_c, 6, 48, 0
11, 14880, Note_on_c, 6, 43, 84
11, 14895, Note_on_c, 6, 43, 0
11, 15120, Note_on_c, 6, 48, 90
11, 15205, Note_on_c, 6, 48, 0
11, 15240, Note_on_c, 6, 48, 94
11, 15290, Note_on_c, 6, 48, 0
11, 15360, Note_on_c, 6, 48, 90
11, 15470, Note_on_c, 6, 48, 0
11, 15470, End_track
12, 0, Start_track
12, 0, MIDI_port, 0
12, 0, Title_t, "Creative            "
12, 0, End_track
13, 0, Start_track
13, 0, MIDI_port, 0
13, 0, Title_t, "Labs Inc. (c) 1992  "
13, 0, End_track
14, 0, Start_track
14, 0, MIDI_port, 0
14, 0, Title_t, "Recorded by Dr.Chew"
14, 0, End_track
15, 0, Start_track
15, 0, MIDI_port, 0
15, 0, Title_t, "Mozart              "
15, 0, End_track
16, 0, Start_track
16, 0, MIDI_port, 0
16, 0, Title_t, "Piano Concerto C maj"
16, 0, End_track
17, 0, Start_track
17, 0, MIDI_port, 0
17, 0, Title_t, "Allegro Vivace Assai"
17, 0, End_track
18, 0, Start_track
18, 0, MIDI_port, 0
18, 0, Title_t, "General MIDI        "
18, 0, End_track
0, 0, End_of_file
