0, 0, Header, 1, 12, 120
1, 0, Start_track
1, 0, Time_signature, 4, 2, 24, 8
1, 0, Key_signature, -3, "major"
1, 0, Tempo, 500000
1, 84000, Tempo, 1490683
1, 84240, Tempo, 498960
1, 90236, Tempo, 1500000
1, 90478, Tempo, 500000
1, 161760, Tempo, 1500000
1, 162240, Tempo, 504202
1, 170160, Tempo, 1000000
1, 170400, Tempo, 500000
1, 170880, Tempo, 1500000
1, 171000, Tempo, 495868
1, 172142, Tempo, 1500000
1, 172200, Tempo, 495868
1, 172260, Tempo, 1500000
1, 172316, Tempo, 983607
1, 173278, Tempo, 1538462
1, 173400, Tempo, 1000000
1, 173700, Tempo, 1500000
1, 173760, Tempo, 1000000
1, 174240, Tempo, 500000
1, 182880, Tempo, 1500000
1, 182880, End_track
2, 0, Start_track
2, 0, MIDI_port, 0
2, 0, Title_t, "Oboi"
2, 0, Program_c, 0, 68
2, 0, Note_on_c, 0, 63, 100
2, 480, Note_on_c, 0, 63, 0
2, 480, Note_on_c, 0, 63, 100
2, 720, Note_on_c, 0, 63, 0
2, 720, Note_on_c, 0, 63, 100
2, 900, Note_on_c, 0, 63, 0
2, 900, Note_on_c, 0, 63, 100
2, 960, Note_on_c, 0, 63, 0
2, 960, Note_on_c, 0, 63, 100
2, 1080, Note_on_c, 0, 63, 0
2, 1920, Note_on_c, 0, 82, 100
2, 1920, Note_on_c, 0, 80, 100
2, 2880, Note_on_c, 0, 80, 0
2, 2880, Note_on_c, 0, 82, 0
2, 2880, Note_on_c, 0, 79, 100
2, 2880, Note_on_c, 0, 82, 100
2, 3840, Note_on_c, 0, 82, 0
2, 3840, Note_on_c, 0, 79, 0
2, 3840, Note_on_c, 0, 80, 100
2, 3840, Note_on_c, 0, 82, 100
2, 4920, Note_on_c, 0, 82, 0
2, 4920, Note_on_c, 0, 80, 0
2, 6240, Note_on_c, 0, 74, 100
2, 6240, Note_on_c, 0, 77, 100
2, 6420, Note_on_c, 0, 77, 0
2, 6420, Note_on_c, 0, 74, 0
2, 6420, Note_on_c, 0, 75, 100
2, 6420, Note_on_c, 0, 79, 100
2, 6480, Note_on_c, 0, 79, 0
2, 6480, Note_on_c, 0, 75, 0
2, 6480, Note_on_c, 0, 80, 100
2, 6480, Note_on_c, 0, 77, 100
2, 6600, Note_on_c, 0, 77, 0
2, 6600, Note_on_c, 0, 80, 0
2, 6600, Note_on_c, 0, 77, 100
2, 6600, Note_on_c, 0, 80, 100
2, 6720, Note_on_c, 0, 80, 0
2, 6720, Note_on_c, 0, 77, 0
2, 6720, Note_on_c, 0, 75, 100
2, 6720, Note_on_c, 0, 79, 100
2, 6870, Note_on_c, 0, 79, 0
2, 6870, Note_on_c, 0, 75, 0
2, 6870, Note_on_c, 0, 77, 100
2, 6870, Note_on_c, 0, 80, 100
2, 6900, Note_on_c, 0, 80, 0
2, 6900, Note_on_c, 0, 77, 0
2, 6900, Note_on_c, 0, 75, 100
2, 6900, Note_on_c, 0, 79, 100
2, 6930, Note_on_c, 0, 79, 0
2, 6930, Note_on_c, 0, 75, 0
2, 6930, Note_on_c, 0, 77, 100
2, 6930, Note_on_c, 0, 80, 100
2, 6960, Note_on_c, 0, 80, 0
2, 6960, Note_on_c, 0, 77, 0
2, 6960, Note_on_c, 0, 79, 100
2, 6960, Note_on_c, 0, 82, 100
2, 7080, Note_on_c, 0, 82, 0
2, 7080, Note_on_c, 0, 79, 0
2, 10080, Note_on_c, 0, 74, 100
2, 10080, Note_on_c, 0, 77, 100
2, 10260, Note_on_c, 0, 77, 0
2, 10260, Note_on_c, 0, 74, 0
2, 10260, Note_on_c, 0, 75, 100
2, 10260, Note_on_c, 0, 79, 100
2, 10320, Note_on_c, 0, 79, 0
2, 10320, Note_on_c, 0, 75, 0
2, 10320, Note_on_c, 0, 80, 100
2, 10320, Note_on_c, 0, 77, 100
2, 10440, Note_on_c, 0, 77, 0
2, 10440, Note_on_c, 0, 80, 0
2, 10440, Note_on_c, 0, 77, 100
2, 10440, Note_on_c, 0, 80, 100
2, 10560, Note_on_c, 0, 80, 0
2, 10560, Note_on_c, 0, 77, 0
2, 10560, Note_on_c, 0, 75, 100
2, 10560, Note_on_c, 0, 79, 100
2, 10710, Note_on_c, 0, 79, 0
2, 10710, Note_on_c, 0, 75, 0
2, 10710, Note_on_c, 0, 77, 100
2, 10710, Note_on_c, 0, 80, 100
2, 10740, Note_on_c, 0, 80, 0
2, 10740, Note_on_c, 0, 77, 0
2, 10740, Note_on_c, 0, 75, 100
2, 10740, Note_on_c, 0, 79, 100
2, 10770, Note_on_c, 0, 79, 0
2, 10770, Note_on_c, 0, 75, 0
2, 10770, Note_on_c, 0, 77, 100
2, 10770, Note_on_c, 0, 80, 100
2, 10800, Note_on_c, 0, 80, 0
2, 10800, Note_on_c, 0, 77, 0
2, 10800, Note_on_c, 0, 79, 100
2, 10800, Note_on_c, 0, 82, 100
2, 10920, Note_on_c, 0, 82, 0
2, 10920, Note_on_c, 0, 79, 0
2, 12480, Note_on_c, 0, 63, 100
2, 12600, Note_on_c, 0, 63, 0
2, 12600, Note_on_c, 0, 63, 100
2, 12690, Note_on_c, 0, 63, 0
2, 12690, Note_on_c, 0, 63, 100
2, 12720, Note_on_c, 0, 63, 0
2, 12720, Note_on_c, 0, 63, 100
2, 12840, Note_on_c, 0, 63, 0
2, 12840, Note_on_c, 0, 63, 100
2, 12960, Note_on_c, 0, 63, 0
2, 12960, Note_on_c, 0, 70, 100
2, 13080, Note_on_c, 0, 70, 0
2, 13080, Note_on_c, 0, 70, 100
2, 13170, Note_on_c, 0, 70, 0
2, 13170, Note_on_c, 0, 70, 100
2, 13200, Note_on_c, 0, 70, 0
2, 13200, Note_on_c, 0, 70, 100
2, 13320, Note_on_c, 0, 70, 0
2, 13320, Note_on_c, 0, 70, 100
2, 13440, Note_on_c, 0, 70, 0
2, 13440, Note_on_c, 0, 67, 100
2, 13440, Note_on_c, 0, 75, 100
2, 13560, Note_on_c, 0, 75, 0
2, 13560, Note_on_c, 0, 67, 0
2, 13560, Note_on_c, 0, 75, 100
2, 13560, Note_on_c, 0, 67, 100
2, 13650, Note_on_c, 0, 67, 0
2, 13650, Note_on_c, 0, 75, 0
2, 13650, Note_on_c, 0, 75, 100
2, 13650, Note_on_c, 0, 67, 100
2, 13680, Note_on_c, 0, 67, 0
2, 13680, Note_on_c, 0, 75, 0
2, 13680, Note_on_c, 0, 67, 100
2, 13680, Note_on_c, 0, 75, 100
2, 13800, Note_on_c, 0, 75, 0
2, 13800, Note_on_c, 0, 67, 0
2, 13800, Note_on_c, 0, 75, 100
2, 13800, Note_on_c, 0, 79, 100
2, 13920, Note_on_c, 0, 79, 0
2, 13920, Note_on_c, 0, 75, 0
2, 13920, Note_on_c, 0, 74, 100
2, 13920, Note_on_c, 0, 82, 100
2, 14160, Note_on_c, 0, 82, 0
2, 14160, Note_on_c, 0, 74, 0
2, 14160, Note_on_c, 0, 77, 100
2, 14160, Note_on_c, 0, 80, 100
2, 14400, Note_on_c, 0, 80, 0
2, 14400, Note_on_c, 0, 77, 0
2, 14400, Note_on_c, 0, 75, 100
2, 14400, Note_on_c, 0, 79, 100
2, 14640, Note_on_c, 0, 79, 0
2, 14640, Note_on_c, 0, 75, 0
2, 14640, Note_on_c, 0, 70, 100
2, 14640, Note_on_c, 0, 75, 100
2, 14880, Note_on_c, 0, 75, 0
2, 14880, Note_on_c, 0, 82, 100
2, 15120, Note_on_c, 0, 70, 0
2, 15120, Note_on_c, 0, 80, 100
2, 15360, Note_on_c, 0, 80, 0
2, 15360, Note_on_c, 0, 79, 100
2, 15720, Note_on_c, 0, 79, 0
2, 15720, Note_on_c, 0, 82, 0
2, 15720, Note_on_c, 0, 75, 100
2, 15720, Note_on_c, 0, 79, 100
2, 15810, Note_on_c, 0, 79, 0
2, 15810, Note_on_c, 0, 75, 0
2, 15810, Note_on_c, 0, 75, 100
2, 15810, Note_on_c, 0, 79, 100
2, 15840, Note_on_c, 0, 79, 0
2, 15840, Note_on_c, 0, 75, 0
2, 15840, Note_on_c, 0, 74, 100
2, 15840, Note_on_c, 0, 77, 100
2, 15960, Note_on_c, 0, 77, 0
2, 15960, Note_on_c, 0, 74, 0
2, 15960, Note_on_c, 0, 75, 100
2, 15960, Note_on_c, 0, 79, 100
2, 16050, Note_on_c, 0, 79, 0
2, 16050, Note_on_c, 0, 75, 0
2, 16050, Note_on_c, 0, 75, 100
2, 16050, Note_on_c, 0, 79, 100
2, 16080, Note_on_c, 0, 79, 0
2, 16080, Note_on_c, 0, 75, 0
2, 16080, Note_on_c, 0, 74, 100
2, 16080, Note_on_c, 0, 77, 100
2, 16200, Note_on_c, 0, 77, 0
2, 16200, Note_on_c, 0, 74, 0
2, 16200, Note_on_c, 0, 75, 100
2, 16200, Note_on_c, 0, 79, 100
2, 16290, Note_on_c, 0, 79, 0
2, 16290, Note_on_c, 0, 75, 0
2, 16290, Note_on_c, 0, 75, 100
2, 16290, Note_on_c, 0, 79, 100
2, 16320, Note_on_c, 0, 79, 0
2, 16320, Note_on_c, 0, 75, 0
2, 16320, Note_on_c, 0, 74, 100
2, 16320, Note_on_c, 0, 77, 100
2, 16440, Note_on_c, 0, 77, 0
2, 16440, Note_on_c, 0, 74, 0
2, 17010, Note_on_c, 0, 74, 100
2, 17010, Note_on_c, 0, 80, 100
2, 17040, Note_on_c, 0, 80, 0
2, 17040, Note_on_c, 0, 74, 0
2, 17040, Note_on_c, 0, 74, 100
2, 17040, Note_on_c, 0, 80, 100
2, 17160, Note_on_c, 0, 80, 0
2, 17160, Note_on_c, 0, 74, 0
2, 17160, Note_on_c, 0, 74, 100
2, 17160, Note_on_c, 0, 80, 100
2, 17280, Note_on_c, 0, 80, 0
2, 17280, Note_on_c, 0, 74, 0
2, 17280, Note_on_c, 0, 74, 100
2, 17280, Note_on_c, 0, 80, 100
2, 17400, Note_on_c, 0, 80, 0
2, 17400, Note_on_c, 0, 74, 0
2, 18720, Note_on_c, 0, 74, 100
2, 18720, Note_on_c, 0, 77, 100
2, 18960, Note_on_c, 0, 77, 0
2, 18960, Note_on_c, 0, 74, 0
2, 18960, Note_on_c, 0, 75, 100
2, 18960, Note_on_c, 0, 79, 100
2, 19140, Note_on_c, 0, 79, 0
2, 19140, Note_on_c, 0, 75, 0
2, 19140, Note_on_c, 0, 79, 100
2, 19140, Note_on_c, 0, 82, 100
2, 19200, Note_on_c, 0, 82, 0
2, 19200, Note_on_c, 0, 79, 0
2, 19200, Note_on_c, 0, 79, 100
2, 19200, Note_on_c, 0, 82, 100
2, 19260, Note_on_c, 0, 82, 0
2, 19260, Note_on_c, 0, 79, 0
2, 19260, Note_on_c, 0, 77, 100
2, 19260, Note_on_c, 0, 80, 100
2, 19320, Note_on_c, 0, 80, 0
2, 19320, Note_on_c, 0, 77, 0
2, 19320, Note_on_c, 0, 79, 100
2, 19320, Note_on_c, 0, 75, 100
2, 19380, Note_on_c, 0, 75, 0
2, 19380, Note_on_c, 0, 79, 0
2, 19380, Note_on_c, 0, 74, 100
2, 19380, Note_on_c, 0, 77, 100
2, 19440, Note_on_c, 0, 77, 0
2, 19440, Note_on_c, 0, 74, 0
2, 19440, Note_on_c, 0, 79, 100
2, 19440, Note_on_c, 0, 82, 100
2, 19500, Note_on_c, 0, 82, 0
2, 19500, Note_on_c, 0, 79, 0
2, 19500, Note_on_c, 0, 77, 100
2, 19500, Note_on_c, 0, 80, 100
2, 19560, Note_on_c, 0, 80, 0
2, 19560, Note_on_c, 0, 77, 0
2, 19560, Note_on_c, 0, 75, 100
2, 19560, Note_on_c, 0, 79, 100
2, 19620, Note_on_c, 0, 79, 0
2, 19620, Note_on_c, 0, 75, 0
2, 19620, Note_on_c, 0, 74, 100
2, 19620, Note_on_c, 0, 77, 100
2, 19680, Note_on_c, 0, 77, 0
2, 19680, Note_on_c, 0, 74, 0
2, 19680, Note_on_c, 0, 75, 100
2, 19800, Note_on_c, 0, 75, 0
2, 20640, Note_on_c, 0, 74, 100
2, 20640, Note_on_c, 0, 77, 100
2, 20880, Note_on_c, 0, 77, 0
2, 20880, Note_on_c, 0, 74, 0
2, 20880, Note_on_c, 0, 75, 100
2, 20880, Note_on_c, 0, 79, 100
2, 21060, Note_on_c, 0, 79, 0
2, 21060, Note_on_c, 0, 75, 0
2, 21060, Note_on_c, 0, 79, 100
2, 21060, Note_on_c, 0, 82, 100
2, 21120, Note_on_c, 0, 82, 0
2, 21120, Note_on_c, 0, 79, 0
2, 21120, Note_on_c, 0, 79, 100
2, 21120, Note_on_c, 0, 82, 100
2, 21180, Note_on_c, 0, 82, 0
2, 21180, Note_on_c, 0, 79, 0
2, 21180, Note_on_c, 0, 77, 100
2, 21180, Note_on_c, 0, 80, 100
2, 21240, Note_on_c, 0, 80, 0
2, 21240, Note_on_c, 0, 77, 0
2, 21240, Note_on_c, 0, 75, 100
2, 21240, Note_on_c, 0, 79, 100
2, 21300, Note_on_c, 0, 79, 0
2, 21300, Note_on_c, 0, 75, 0
2, 21300, Note_on_c, 0, 74, 100
2, 21300, Note_on_c, 0, 77, 100
2, 21360, Note_on_c, 0, 77, 0
2, 21360, Note_on_c, 0, 74, 0
2, 21360, Note_on_c, 0, 79, 100
2, 21360, Note_on_c, 0, 82, 100
2, 21420, Note_on_c, 0, 82, 0
2, 21420, Note_on_c, 0, 79, 0
2, 21420, Note_on_c, 0, 77, 100
2, 21420, Note_on_c, 0, 80, 100
2, 21480, Note_on_c, 0, 80, 0
2, 21480, Note_on_c, 0, 77, 0
2, 21480, Note_on_c, 0, 75, 100
2, 21480, Note_on_c, 0, 79, 100
2, 21540, Note_on_c, 0, 79, 0
2, 21540, Note_on_c, 0, 75, 0
2, 21540, Note_on_c, 0, 74, 100
2, 21540, Note_on_c, 0, 77, 100
2, 21600, Note_on_c, 0, 77, 0
2, 21600, Note_on_c, 0, 74, 0
2, 21600, Note_on_c, 0, 75, 100
2, 21720, Note_on_c, 0, 75, 0
2, 24480, Note_on_c, 0, 63, 100
2, 24480, Note_on_c, 0, 67, 100
2, 24720, Note_on_c, 0, 63, 0
2, 24720, Note_on_c, 0, 64, 100
2, 24960, Note_on_c, 0, 64, 0
2, 24960, Note_on_c, 0, 67, 0
2, 24960, Note_on_c, 0, 65, 100
2, 24960, Note_on_c, 0, 68, 100
2, 25200, Note_on_c, 0, 68, 0
2, 25200, Note_on_c, 0, 65, 0
2, 25200, Note_on_c, 0, 66, 100
2, 25200, Note_on_c, 0, 69, 100
2, 25440, Note_on_c, 0, 69, 0
2, 25440, Note_on_c, 0, 66, 0
2, 25440, Note_on_c, 0, 70, 100
2, 25440, Note_on_c, 0, 67, 100
2, 25680, Note_on_c, 0, 70, 0
2, 25680, Note_on_c, 0, 71, 100
2, 25920, Note_on_c, 0, 71, 0
2, 25920, Note_on_c, 0, 67, 0
2, 25920, Note_on_c, 0, 68, 100
2, 25920, Note_on_c, 0, 72, 100
2, 26160, Note_on_c, 0, 68, 0
2, 26160, Note_on_c, 0, 66, 100
2, 26400, Note_on_c, 0, 66, 0
2, 26400, Note_on_c, 0, 72, 0
2, 26400, Note_on_c, 0, 70, 100
2, 26400, Note_on_c, 0, 67, 100
2, 26640, Note_on_c, 0, 70, 0
2, 26640, Note_on_c, 0, 73, 100
2, 26880, Note_on_c, 0, 73, 0
2, 26880, Note_on_c, 0, 67, 0
2, 26880, Note_on_c, 0, 68, 100
2, 26880, Note_on_c, 0, 72, 100
2, 27120, Note_on_c, 0, 72, 0
2, 27120, Note_on_c, 0, 68, 0
2, 27120, Note_on_c, 0, 77, 100
2, 27120, Note_on_c, 0, 80, 100
2, 27360, Note_on_c, 0, 80, 0
2, 27360, Note_on_c, 0, 77, 0
2, 27360, Note_on_c, 0, 75, 100
2, 27360, Note_on_c, 0, 79, 100
2, 27480, Note_on_c, 0, 79, 0
2, 27480, Note_on_c, 0, 75, 0
2, 27480, Note_on_c, 0, 75, 100
2, 27480, Note_on_c, 0, 79, 100
2, 27570, Note_on_c, 0, 79, 0
2, 27570, Note_on_c, 0, 75, 0
2, 27570, Note_on_c, 0, 75, 100
2, 27570, Note_on_c, 0, 79, 100
2, 27600, Note_on_c, 0, 79, 0
2, 27600, Note_on_c, 0, 75, 0
2, 27600, Note_on_c, 0, 75, 100
2, 27600, Note_on_c, 0, 79, 100
2, 27720, Note_on_c, 0, 79, 0
2, 27720, Note_on_c, 0, 75, 0
2, 27720, Note_on_c, 0, 79, 100
2, 27720, Note_on_c, 0, 75, 100
2, 27840, Note_on_c, 0, 75, 0
2, 27840, Note_on_c, 0, 79, 0
2, 27840, Note_on_c, 0, 75, 100
2, 27840, Note_on_c, 0, 79, 100
2, 28440, Note_on_c, 0, 79, 0
2, 28440, Note_on_c, 0, 75, 0
2, 28440, Note_on_c, 0, 75, 100
2, 28440, Note_on_c, 0, 79, 100
2, 28530, Note_on_c, 0, 79, 0
2, 28530, Note_on_c, 0, 75, 0
2, 28530, Note_on_c, 0, 75, 100
2, 28530, Note_on_c, 0, 79, 100
2, 28560, Note_on_c, 0, 79, 0
2, 28560, Note_on_c, 0, 75, 0
2, 28560, Note_on_c, 0, 75, 100
2, 28560, Note_on_c, 0, 79, 100
2, 28680, Note_on_c, 0, 79, 0
2, 28680, Note_on_c, 0, 75, 0
2, 28680, Note_on_c, 0, 75, 100
2, 28680, Note_on_c, 0, 79, 100
2, 28800, Note_on_c, 0, 79, 0
2, 28800, Note_on_c, 0, 75, 0
2, 28800, Note_on_c, 0, 75, 100
2, 28800, Note_on_c, 0, 79, 100
2, 29280, Note_on_c, 0, 79, 0
2, 29280, Note_on_c, 0, 77, 100
2, 30240, Note_on_c, 0, 77, 0
2, 30240, Note_on_c, 0, 79, 100
2, 30480, Note_on_c, 0, 79, 0
2, 30480, Note_on_c, 0, 70, 100
2, 30720, Note_on_c, 0, 75, 0
2, 30720, Note_on_c, 0, 68, 100
2, 30960, Note_on_c, 0, 68, 0
2, 30960, Note_on_c, 0, 67, 100
2, 31080, Note_on_c, 0, 67, 0
2, 31080, Note_on_c, 0, 65, 100
2, 31200, Note_on_c, 0, 65, 0
2, 31200, Note_on_c, 0, 70, 0
2, 31200, Note_on_c, 0, 75, 100
2, 31200, Note_on_c, 0, 67, 100
2, 31320, Note_on_c, 0, 67, 0
2, 31320, Note_on_c, 0, 75, 0
2, 31320, Note_on_c, 0, 70, 100
2, 31320, Note_on_c, 0, 74, 100
2, 31440, Note_on_c, 0, 74, 0
2, 31440, Note_on_c, 0, 70, 0
2, 31440, Note_on_c, 0, 68, 100
2, 31440, Note_on_c, 0, 72, 100
2, 31560, Note_on_c, 0, 72, 0
2, 31560, Note_on_c, 0, 68, 0
2, 31560, Note_on_c, 0, 67, 100
2, 31560, Note_on_c, 0, 70, 100
2, 31680, Note_on_c, 0, 70, 0
2, 31680, Note_on_c, 0, 67, 0
2, 31680, Note_on_c, 0, 65, 100
2, 31680, Note_on_c, 0, 68, 100
2, 31800, Note_on_c, 0, 68, 0
2, 31800, Note_on_c, 0, 65, 0
2, 32130, Note_on_c, 0, 68, 100
2, 32130, Note_on_c, 0, 74, 100
2, 32160, Note_on_c, 0, 74, 0
2, 32160, Note_on_c, 0, 68, 0
2, 32160, Note_on_c, 0, 67, 100
2, 32160, Note_on_c, 0, 75, 100
2, 32280, Note_on_c, 0, 75, 0
2, 32280, Note_on_c, 0, 67, 0
2, 32280, Note_on_c, 0, 70, 100
2, 32280, Note_on_c, 0, 74, 100
2, 32400, Note_on_c, 0, 74, 0
2, 32400, Note_on_c, 0, 70, 0
2, 32400, Note_on_c, 0, 68, 100
2, 32400, Note_on_c, 0, 72, 100
2, 32520, Note_on_c, 0, 72, 0
2, 32520, Note_on_c, 0, 68, 0
2, 32520, Note_on_c, 0, 67, 100
2, 32520, Note_on_c, 0, 70, 100
2, 32640, Note_on_c, 0, 70, 0
2, 32640, Note_on_c, 0, 67, 0
2, 32640, Note_on_c, 0, 68, 100
2, 32640, Note_on_c, 0, 65, 100
2, 32760, Note_on_c, 0, 65, 0
2, 32760, Note_on_c, 0, 68, 0
2, 33240, Note_on_c, 0, 73, 100
2, 33240, Note_on_c, 0, 68, 100
2, 33480, Note_on_c, 0, 68, 0
2, 33480, Note_on_c, 0, 73, 0
2, 33480, Note_on_c, 0, 72, 100
2, 33480, Note_on_c, 0, 68, 100
2, 33600, Note_on_c, 0, 68, 0
2, 33600, Note_on_c, 0, 72, 0
2, 33720, Note_on_c, 0, 74, 100
2, 33720, Note_on_c, 0, 80, 100
2, 33960, Note_on_c, 0, 80, 0
2, 33960, Note_on_c, 0, 74, 0
2, 33960, Note_on_c, 0, 79, 100
2, 33960, Note_on_c, 0, 75, 100
2, 34080, Note_on_c, 0, 75, 0
2, 34080, Note_on_c, 0, 79, 0
2, 34200, Note_on_c, 0, 79, 100
2, 34200, Note_on_c, 0, 85, 100
2, 34440, Note_on_c, 0, 85, 0
2, 34440, Note_on_c, 0, 79, 0
2, 34440, Note_on_c, 0, 84, 100
2, 34440, Note_on_c, 0, 80, 100
2, 34560, Note_on_c, 0, 80, 0
2, 34560, Note_on_c, 0, 84, 0
2, 34680, Note_on_c, 0, 77, 100
2, 34680, Note_on_c, 0, 80, 100
2, 34740, Note_on_c, 0, 80, 0
2, 34740, Note_on_c, 0, 77, 0
2, 34800, Note_on_c, 0, 74, 100
2, 34800, Note_on_c, 0, 77, 100
2, 34860, Note_on_c, 0, 77, 0
2, 34860, Note_on_c, 0, 74, 0
2, 34920, Note_on_c, 0, 68, 100
2, 34920, Note_on_c, 0, 74, 100
2, 34980, Note_on_c, 0, 74, 0
2, 34980, Note_on_c, 0, 68, 0
2, 35040, Note_on_c, 0, 67, 100
2, 35040, Note_on_c, 0, 75, 100
2, 35160, Note_on_c, 0, 75, 0
2, 35160, Note_on_c, 0, 67, 0
2, 37560, Note_on_c, 0, 65, 100
2, 37560, Note_on_c, 0, 62, 100
2, 37680, Note_on_c, 0, 62, 0
2, 37680, Note_on_c, 0, 65, 0
2, 37680, Note_on_c, 0, 63, 100
2, 37680, Note_on_c, 0, 67, 100
2, 37800, Note_on_c, 0, 67, 0
2, 37800, Note_on_c, 0, 63, 0
2, 37800, Note_on_c, 0, 65, 100
2, 37800, Note_on_c, 0, 68, 100
2, 37920, Note_on_c, 0, 68, 0
2, 37920, Note_on_c, 0, 65, 0
2, 37920, Note_on_c, 0, 67, 100
2, 37920, Note_on_c, 0, 63, 100
2, 38040, Note_on_c, 0, 63, 0
2, 38040, Note_on_c, 0, 67, 0
2, 39480, Note_on_c, 0, 74, 100
2, 39480, Note_on_c, 0, 77, 100
2, 39600, Note_on_c, 0, 77, 0
2, 39600, Note_on_c, 0, 74, 0
2, 39600, Note_on_c, 0, 75, 100
2, 39600, Note_on_c, 0, 79, 100
2, 39720, Note_on_c, 0, 79, 0
2, 39720, Note_on_c, 0, 75, 0
2, 39720, Note_on_c, 0, 77, 100
2, 39720, Note_on_c, 0, 80, 100
2, 39840, Note_on_c, 0, 80, 0
2, 39840, Note_on_c, 0, 77, 0
2, 39840, Note_on_c, 0, 75, 100
2, 39840, Note_on_c, 0, 79, 100
2, 39960, Note_on_c, 0, 79, 0
2, 39960, Note_on_c, 0, 75, 0
2, 42840, Note_on_c, 0, 79, 100
2, 42840, Note_on_c, 0, 75, 100
2, 42900, Note_on_c, 0, 75, 0
2, 42900, Note_on_c, 0, 79, 0
2, 42900, Note_on_c, 0, 79, 100
2, 42900, Note_on_c, 0, 82, 100
2, 42960, Note_on_c, 0, 82, 0
2, 42960, Note_on_c, 0, 79, 0
2, 42960, Note_on_c, 0, 75, 100
2, 42960, Note_on_c, 0, 79, 100
2, 43020, Note_on_c, 0, 79, 0
2, 43020, Note_on_c, 0, 75, 0
2, 43020, Note_on_c, 0, 79, 100
2, 43020, Note_on_c, 0, 82, 100
2, 43080, Note_on_c, 0, 82, 0
2, 43080, Note_on_c, 0, 79, 0
2, 43080, Note_on_c, 0, 75, 100
2, 43080, Note_on_c, 0, 79, 100
2, 43140, Note_on_c, 0, 79, 0
2, 43140, Note_on_c, 0, 75, 0
2, 43140, Note_on_c, 0, 79, 100
2, 43140, Note_on_c, 0, 82, 100
2, 43200, Note_on_c, 0, 82, 0
2, 43200, Note_on_c, 0, 79, 0
2, 43200, Note_on_c, 0, 75, 100
2, 43200, Note_on_c, 0, 79, 100
2, 43320, Note_on_c, 0, 79, 0
2, 43320, Note_on_c, 0, 75, 0
2, 43320, Note_on_c, 0, 67, 100
2, 43320, Note_on_c, 0, 75, 100
2, 43380, Note_on_c, 0, 75, 0
2, 43380, Note_on_c, 0, 67, 0
2, 43380, Note_on_c, 0, 70, 100
2, 43380, Note_on_c, 0, 79, 100
2, 43440, Note_on_c, 0, 79, 0
2, 43440, Note_on_c, 0, 70, 0
2, 43440, Note_on_c, 0, 67, 100
2, 43440, Note_on_c, 0, 75, 100
2, 43500, Note_on_c, 0, 75, 0
2, 43500, Note_on_c, 0, 67, 0
2, 43500, Note_on_c, 0, 70, 100
2, 43500, Note_on_c, 0, 79, 100
2, 43560, Note_on_c, 0, 79, 0
2, 43560, Note_on_c, 0, 70, 0
2, 43560, Note_on_c, 0, 67, 100
2, 43560, Note_on_c, 0, 75, 100
2, 43620, Note_on_c, 0, 75, 0
2, 43620, Note_on_c, 0, 67, 0
2, 43620, Note_on_c, 0, 70, 100
2, 43620, Note_on_c, 0, 79, 100
2, 43680, Note_on_c, 0, 79, 0
2, 43680, Note_on_c, 0, 70, 0
2, 43680, Note_on_c, 0, 75, 100
2, 43680, Note_on_c, 0, 67, 100
2, 43800, Note_on_c, 0, 67, 0
2, 43800, Note_on_c, 0, 75, 0
2, 47400, Note_on_c, 0, 74, 100
2, 47400, Note_on_c, 0, 82, 100
2, 47520, Note_on_c, 0, 82, 0
2, 47520, Note_on_c, 0, 74, 0
2, 47520, Note_on_c, 0, 77, 100
2, 47520, Note_on_c, 0, 81, 100
2, 47640, Note_on_c, 0, 81, 0
2, 47640, Note_on_c, 0, 77, 0
2, 47640, Note_on_c, 0, 75, 100
2, 47640, Note_on_c, 0, 79, 100
2, 47760, Note_on_c, 0, 79, 0
2, 47760, Note_on_c, 0, 75, 0
2, 47760, Note_on_c, 0, 74, 100
2, 47760, Note_on_c, 0, 77, 100
2, 47880, Note_on_c, 0, 77, 0
2, 47880, Note_on_c, 0, 74, 0
2, 47880, Note_on_c, 0, 72, 100
2, 47880, Note_on_c, 0, 75, 100
2, 48000, Note_on_c, 0, 75, 0
2, 48000, Note_on_c, 0, 72, 0
2, 48000, Note_on_c, 0, 70, 100
2, 48000, Note_on_c, 0, 74, 100
2, 48120, Note_on_c, 0, 74, 0
2, 48120, Note_on_c, 0, 70, 0
2, 50040, Note_on_c, 0, 65, 100
2, 50100, Note_on_c, 0, 65, 0
2, 50100, Note_on_c, 0, 65, 100
2, 50160, Note_on_c, 0, 65, 0
2, 50160, Note_on_c, 0, 65, 100
2, 50220, Note_on_c, 0, 65, 0
2, 50220, Note_on_c, 0, 65, 100
2, 50280, Note_on_c, 0, 65, 0
2, 50280, Note_on_c, 0, 65, 100
2, 50340, Note_on_c, 0, 65, 0
2, 50340, Note_on_c, 0, 65, 100
2, 50400, Note_on_c, 0, 65, 0
2, 50400, Note_on_c, 0, 65, 100
2, 50520, Note_on_c, 0, 65, 0
2, 50880, Note_on_c, 0, 71, 100
2, 50880, Note_on_c, 0, 79, 100
2, 51000, Note_on_c, 0, 79, 0
2, 51000, Note_on_c, 0, 71, 0
2, 51000, Note_on_c, 0, 74, 100
2, 51000, Note_on_c, 0, 77, 100
2, 51120, Note_on_c, 0, 77, 0
2, 51120, Note_on_c, 0, 74, 0
2, 51120, Note_on_c, 0, 72, 100
2, 51120, Note_on_c, 0, 75, 100
2, 51240, Note_on_c, 0, 75, 0
2, 51240, Note_on_c, 0, 72, 0
2, 51240, Note_on_c, 0, 71, 100
2, 51240, Note_on_c, 0, 74, 100
2, 51360, Note_on_c, 0, 74, 0
2, 51360, Note_on_c, 0, 71, 0
2, 51360, Note_on_c, 0, 72, 100
2, 51360, Note_on_c, 0, 75, 100
2, 51840, Note_on_c, 0, 75, 0
2, 51840, Note_on_c, 0, 72, 0
2, 51840, Note_on_c, 0, 69, 100
2, 51840, Note_on_c, 0, 77, 100
2, 51960, Note_on_c, 0, 77, 0
2, 51960, Note_on_c, 0, 69, 0
2, 51960, Note_on_c, 0, 72, 100
2, 51960, Note_on_c, 0, 75, 100
2, 52080, Note_on_c, 0, 75, 0
2, 52080, Note_on_c, 0, 72, 0
2, 52080, Note_on_c, 0, 70, 100
2, 52080, Note_on_c, 0, 74, 100
2, 52200, Note_on_c, 0, 74, 0
2, 52200, Note_on_c, 0, 70, 0
2, 52200, Note_on_c, 0, 69, 100
2, 52200, Note_on_c, 0, 73, 100
2, 52320, Note_on_c, 0, 73, 0
2, 52320, Note_on_c, 0, 69, 0
2, 52320, Note_on_c, 0, 70, 100
2, 52320, Note_on_c, 0, 74, 100
2, 52800, Note_on_c, 0, 74, 0
2, 52800, Note_on_c, 0, 70, 0
2, 52800, Note_on_c, 0, 67, 100
2, 52800, Note_on_c, 0, 75, 100
2, 52920, Note_on_c, 0, 75, 0
2, 52920, Note_on_c, 0, 67, 0
2, 52920, Note_on_c, 0, 70, 100
2, 52920, Note_on_c, 0, 74, 100
2, 53040, Note_on_c, 0, 74, 0
2, 53040, Note_on_c, 0, 70, 0
2, 53040, Note_on_c, 0, 69, 100
2, 53040, Note_on_c, 0, 72, 100
2, 53160, Note_on_c, 0, 72, 0
2, 53160, Note_on_c, 0, 69, 0
2, 53160, Note_on_c, 0, 67, 100
2, 53160, Note_on_c, 0, 70, 100
2, 53280, Note_on_c, 0, 70, 0
2, 53280, Note_on_c, 0, 67, 0
2, 53280, Note_on_c, 0, 69, 100
2, 53280, Note_on_c, 0, 72, 100
2, 53760, Note_on_c, 0, 72, 0
2, 53760, Note_on_c, 0, 69, 0
2, 53760, Note_on_c, 0, 70, 100
2, 53760, Note_on_c, 0, 74, 100
2, 53880, Note_on_c, 0, 74, 0
2, 53880, Note_on_c, 0, 70, 0
2, 54240, Note_on_c, 0, 74, 100
2, 54240, Note_on_c, 0, 82, 100
2, 54360, Note_on_c, 0, 82, 0
2, 54360, Note_on_c, 0, 74, 0
2, 54360, Note_on_c, 0, 77, 100
2, 54360, Note_on_c, 0, 80, 100
2, 54480, Note_on_c, 0, 80, 0
2, 54480, Note_on_c, 0, 77, 0
2, 54480, Note_on_c, 0, 75, 100
2, 54480, Note_on_c, 0, 79, 100
2, 54600, Note_on_c, 0, 79, 0
2, 54600, Note_on_c, 0, 75, 0
2, 54600, Note_on_c, 0, 73, 100
2, 54600, Note_on_c, 0, 77, 100
2, 54720, Note_on_c, 0, 77, 0
2, 54720, Note_on_c, 0, 73, 0
2, 54720, Note_on_c, 0, 76, 100
2, 54720, Note_on_c, 0, 72, 100
2, 54840, Note_on_c, 0, 72, 0
2, 54840, Note_on_c, 0, 76, 0
2, 55680, Note_on_c, 0, 82, 100
2, 56640, Note_on_c, 0, 80, 100
2, 57600, Note_on_c, 0, 80, 0
2, 57600, Note_on_c, 0, 79, 100
2, 57720, Note_on_c, 0, 79, 0
2, 57720, Note_on_c, 0, 82, 0
2, 59640, Note_on_c, 0, 70, 100
2, 59640, Note_on_c, 0, 74, 100
2, 59670, Note_on_c, 0, 74, 0
2, 59670, Note_on_c, 0, 70, 0
2, 59670, Note_on_c, 0, 72, 100
2, 59670, Note_on_c, 0, 75, 100
2, 59700, Note_on_c, 0, 75, 0
2, 59700, Note_on_c, 0, 72, 0
2, 59700, Note_on_c, 0, 70, 100
2, 59700, Note_on_c, 0, 74, 100
2, 59730, Note_on_c, 0, 74, 0
2, 59730, Note_on_c, 0, 70, 0
2, 59730, Note_on_c, 0, 72, 100
2, 59730, Note_on_c, 0, 75, 100
2, 59760, Note_on_c, 0, 75, 0
2, 59760, Note_on_c, 0, 72, 0
2, 59760, Note_on_c, 0, 74, 100
2, 59760, Note_on_c, 0, 77, 100
2, 59820, Note_on_c, 0, 77, 0
2, 59820, Note_on_c, 0, 74, 0
2, 59820, Note_on_c, 0, 74, 100
2, 59820, Note_on_c, 0, 77, 100
2, 59880, Note_on_c, 0, 77, 0
2, 59880, Note_on_c, 0, 74, 0
2, 59880, Note_on_c, 0, 74, 100
2, 59880, Note_on_c, 0, 77, 100
2, 59940, Note_on_c, 0, 77, 0
2, 59940, Note_on_c, 0, 74, 0
2, 59940, Note_on_c, 0, 74, 100
2, 59940, Note_on_c, 0, 77, 100
2, 60000, Note_on_c, 0, 77, 0
2, 60000, Note_on_c, 0, 74, 0
2, 60000, Note_on_c, 0, 74, 100
2, 60000, Note_on_c, 0, 77, 100
2, 60120, Note_on_c, 0, 77, 0
2, 60120, Note_on_c, 0, 74, 0
2, 61740, Note_on_c, 0, 72, 100
2, 61740, Note_on_c, 0, 75, 100
2, 61800, Note_on_c, 0, 75, 0
2, 61800, Note_on_c, 0, 72, 0
2, 61800, Note_on_c, 0, 70, 100
2, 61800, Note_on_c, 0, 74, 100
2, 61860, Note_on_c, 0, 74, 0
2, 61860, Note_on_c, 0, 70, 0
2, 61860, Note_on_c, 0, 69, 100
2, 61860, Note_on_c, 0, 72, 100
2, 61920, Note_on_c, 0, 72, 0
2, 61920, Note_on_c, 0, 69, 0
2, 61920, Note_on_c, 0, 70, 100
2, 62040, Note_on_c, 0, 70, 0
2, 65820, Note_on_c, 0, 74, 100
2, 65820, Note_on_c, 0, 77, 100
2, 65880, Note_on_c, 0, 77, 0
2, 65880, Note_on_c, 0, 74, 0
2, 65880, Note_on_c, 0, 72, 100
2, 65880, Note_on_c, 0, 75, 100
2, 65940, Note_on_c, 0, 75, 0
2, 65940, Note_on_c, 0, 72, 0
2, 65940, Note_on_c, 0, 70, 100
2, 65940, Note_on_c, 0, 74, 100
2, 66000, Note_on_c, 0, 74, 0
2, 66000, Note_on_c, 0, 70, 0
2, 66000, Note_on_c, 0, 69, 100
2, 66000, Note_on_c, 0, 72, 100
2, 66060, Note_on_c, 0, 72, 0
2, 66060, Note_on_c, 0, 69, 0
2, 66300, Note_on_c, 0, 74, 100
2, 66300, Note_on_c, 0, 77, 100
2, 66360, Note_on_c, 0, 77, 0
2, 66360, Note_on_c, 0, 74, 0
2, 66360, Note_on_c, 0, 72, 100
2, 66360, Note_on_c, 0, 75, 100
2, 66420, Note_on_c, 0, 75, 0
2, 66420, Note_on_c, 0, 72, 0
2, 66420, Note_on_c, 0, 70, 100
2, 66420, Note_on_c, 0, 74, 100
2, 66480, Note_on_c, 0, 74, 0
2, 66480, Note_on_c, 0, 70, 0
2, 66480, Note_on_c, 0, 69, 100
2, 66480, Note_on_c, 0, 72, 100
2, 66540, Note_on_c, 0, 72, 0
2, 66540, Note_on_c, 0, 69, 0
2, 66720, Note_on_c, 0, 77, 100
2, 66720, Note_on_c, 0, 80, 100
2, 67200, Note_on_c, 0, 80, 0
2, 67200, Note_on_c, 0, 77, 0
2, 67200, Note_on_c, 0, 79, 100
2, 67200, Note_on_c, 0, 75, 100
2, 67320, Note_on_c, 0, 75, 0
2, 67320, Note_on_c, 0, 79, 0
2, 71040, Note_on_c, 0, 62, 100
2, 71040, Note_on_c, 0, 70, 100
2, 71280, Note_on_c, 0, 70, 0
2, 71280, Note_on_c, 0, 62, 0
2, 71280, Note_on_c, 0, 62, 100
2, 71280, Note_on_c, 0, 70, 100
2, 71400, Note_on_c, 0, 70, 0
2, 71400, Note_on_c, 0, 62, 0
2, 71400, Note_on_c, 0, 62, 100
2, 71400, Note_on_c, 0, 70, 100
2, 71520, Note_on_c, 0, 70, 0
2, 71520, Note_on_c, 0, 62, 0
2, 71520, Note_on_c, 0, 70, 100
2, 71520, Note_on_c, 0, 74, 100
2, 71760, Note_on_c, 0, 74, 0
2, 71760, Note_on_c, 0, 70, 0
2, 71760, Note_on_c, 0, 70, 100
2, 71760, Note_on_c, 0, 74, 100
2, 71880, Note_on_c, 0, 74, 0
2, 71880, Note_on_c, 0, 70, 0
2, 71880, Note_on_c, 0, 70, 100
2, 71880, Note_on_c, 0, 74, 100
2, 72000, Note_on_c, 0, 74, 0
2, 72000, Note_on_c, 0, 70, 0
2, 72000, Note_on_c, 0, 74, 100
2, 72000, Note_on_c, 0, 77, 100
2, 72240, Note_on_c, 0, 77, 0
2, 72240, Note_on_c, 0, 74, 0
2, 72240, Note_on_c, 0, 70, 100
2, 72240, Note_on_c, 0, 74, 100
2, 72360, Note_on_c, 0, 74, 0
2, 72360, Note_on_c, 0, 70, 0
2, 72360, Note_on_c, 0, 70, 100
2, 72360, Note_on_c, 0, 74, 100
2, 72480, Note_on_c, 0, 74, 0
2, 72480, Note_on_c, 0, 70, 0
2, 72480, Note_on_c, 0, 74, 100
2, 72480, Note_on_c, 0, 80, 100
2, 73020, Note_on_c, 0, 80, 0
2, 73020, Note_on_c, 0, 74, 0
2, 73080, Note_on_c, 0, 74, 100
2, 73080, Note_on_c, 0, 80, 100
2, 73140, Note_on_c, 0, 80, 0
2, 73140, Note_on_c, 0, 74, 0
2, 73200, Note_on_c, 0, 74, 100
2, 73200, Note_on_c, 0, 80, 100
2, 73260, Note_on_c, 0, 80, 0
2, 73260, Note_on_c, 0, 74, 0
2, 73320, Note_on_c, 0, 74, 100
2, 73320, Note_on_c, 0, 80, 100
2, 73380, Note_on_c, 0, 80, 0
2, 73380, Note_on_c, 0, 74, 0
2, 73440, Note_on_c, 0, 75, 100
2, 73440, Note_on_c, 0, 79, 100
2, 73560, Note_on_c, 0, 79, 0
2, 73560, Note_on_c, 0, 75, 0
2, 74400, Note_on_c, 0, 70, 100
2, 74400, Note_on_c, 0, 74, 100
2, 74880, Note_on_c, 0, 74, 0
2, 74880, Note_on_c, 0, 70, 0
2, 74880, Note_on_c, 0, 69, 100
2, 74880, Note_on_c, 0, 75, 100
2, 75120, Note_on_c, 0, 75, 0
2, 75120, Note_on_c, 0, 69, 0
2, 75120, Note_on_c, 0, 75, 100
2, 75120, Note_on_c, 0, 81, 100
2, 75360, Note_on_c, 0, 81, 0
2, 75360, Note_on_c, 0, 75, 0
2, 75360, Note_on_c, 0, 74, 100
2, 75360, Note_on_c, 0, 82, 100
2, 75480, Note_on_c, 0, 82, 0
2, 75480, Note_on_c, 0, 74, 0
2, 75480, Note_on_c, 0, 74, 100
2, 75480, Note_on_c, 0, 82, 100
2, 75570, Note_on_c, 0, 82, 0
2, 75570, Note_on_c, 0, 74, 0
2, 75570, Note_on_c, 0, 74, 100
2, 75570, Note_on_c, 0, 82, 100
2, 75600, Note_on_c, 0, 82, 0
2, 75600, Note_on_c, 0, 74, 0
2, 75600, Note_on_c, 0, 74, 100
2, 75600, Note_on_c, 0, 82, 100
2, 75720, Note_on_c, 0, 82, 0
2, 75720, Note_on_c, 0, 74, 0
2, 75720, Note_on_c, 0, 74, 100
2, 75720, Note_on_c, 0, 82, 100
2, 75840, Note_on_c, 0, 82, 0
2, 75840, Note_on_c, 0, 74, 0
2, 75840, Note_on_c, 0, 74, 100
2, 75840, Note_on_c, 0, 82, 100
2, 76320, Note_on_c, 0, 82, 0
2, 76320, Note_on_c, 0, 74, 0
2, 76440, Note_on_c, 0, 75, 100
2, 76440, Note_on_c, 0, 84, 100
2, 76530, Note_on_c, 0, 84, 0
2, 76530, Note_on_c, 0, 75, 0
2, 76530, Note_on_c, 0, 75, 100
2, 76530, Note_on_c, 0, 84, 100
2, 76560, Note_on_c, 0, 84, 0
2, 76560, Note_on_c, 0, 75, 0
2, 76560, Note_on_c, 0, 75, 100
2, 76560, Note_on_c, 0, 84, 100
2, 76680, Note_on_c, 0, 84, 0
2, 76680, Note_on_c, 0, 75, 0
2, 76680, Note_on_c, 0, 75, 100
2, 76680, Note_on_c, 0, 84, 100
2, 76800, Note_on_c, 0, 84, 0
2, 76800, Note_on_c, 0, 75, 0
2, 76800, Note_on_c, 0, 75, 100
2, 76800, Note_on_c, 0, 84, 100
2, 77280, Note_on_c, 0, 84, 0
2, 77280, Note_on_c, 0, 75, 0
2, 77400, Note_on_c, 0, 86, 100
2, 77400, Note_on_c, 0, 77, 100
2, 77490, Note_on_c, 0, 77, 0
2, 77490, Note_on_c, 0, 86, 0
2, 77490, Note_on_c, 0, 77, 100
2, 77490, Note_on_c, 0, 86, 100
2, 77520, Note_on_c, 0, 86, 0
2, 77520, Note_on_c, 0, 77, 0
2, 77520, Note_on_c, 0, 77, 100
2, 77520, Note_on_c, 0, 86, 100
2, 77640, Note_on_c, 0, 86, 0
2, 77640, Note_on_c, 0, 77, 0
2, 77640, Note_on_c, 0, 77, 100
2, 77640, Note_on_c, 0, 86, 100
2, 77760, Note_on_c, 0, 86, 0
2, 77760, Note_on_c, 0, 77, 0
2, 77760, Note_on_c, 0, 77, 100
2, 77760, Note_on_c, 0, 86, 100
2, 78240, Note_on_c, 0, 86, 0
2, 78240, Note_on_c, 0, 77, 0
2, 78240, Note_on_c, 0, 70, 100
2, 78240, Note_on_c, 0, 72, 100
2, 78360, Note_on_c, 0, 72, 0
2, 78360, Note_on_c, 0, 70, 0
2, 78360, Note_on_c, 0, 70, 100
2, 78360, Note_on_c, 0, 72, 100
2, 78450, Note_on_c, 0, 72, 0
2, 78450, Note_on_c, 0, 70, 0
2, 78450, Note_on_c, 0, 70, 100
2, 78450, Note_on_c, 0, 72, 100
2, 78480, Note_on_c, 0, 72, 0
2, 78480, Note_on_c, 0, 70, 0
2, 78480, Note_on_c, 0, 70, 100
2, 78480, Note_on_c, 0, 72, 100
2, 78600, Note_on_c, 0, 72, 0
2, 78600, Note_on_c, 0, 70, 0
2, 78600, Note_on_c, 0, 70, 100
2, 78600, Note_on_c, 0, 72, 100
2, 78720, Note_on_c, 0, 72, 0
2, 78720, Note_on_c, 0, 70, 0
2, 78720, Note_on_c, 0, 70, 100
2, 78720, Note_on_c, 0, 72, 100
2, 79200, Note_on_c, 0, 72, 0
2, 79200, Note_on_c, 0, 70, 0
2, 79200, Note_on_c, 0, 74, 100
2, 79200, Note_on_c, 0, 70, 100
2, 79440, Note_on_c, 0, 70, 0
2, 79440, Note_on_c, 0, 74, 0
2, 79440, Note_on_c, 0, 74, 100
2, 79440, Note_on_c, 0, 82, 100
2, 79680, Note_on_c, 0, 82, 0
2, 79680, Note_on_c, 0, 74, 0
2, 79680, Note_on_c, 0, 69, 100
2, 79680, Note_on_c, 0, 72, 100
2, 79920, Note_on_c, 0, 72, 0
2, 79920, Note_on_c, 0, 69, 0
2, 79920, Note_on_c, 0, 72, 100
2, 79920, Note_on_c, 0, 81, 100
2, 80160, Note_on_c, 0, 81, 0
2, 80160, Note_on_c, 0, 72, 0
2, 80160, Note_on_c, 0, 74, 100
2, 80160, Note_on_c, 0, 82, 100
2, 80280, Note_on_c, 0, 82, 0
2, 80280, Note_on_c, 0, 74, 0
2, 80280, Note_on_c, 0, 70, 100
2, 80280, Note_on_c, 0, 74, 100
2, 80370, Note_on_c, 0, 74, 0
2, 80370, Note_on_c, 0, 70, 0
2, 80370, Note_on_c, 0, 70, 100
2, 80370, Note_on_c, 0, 74, 100
2, 80400, Note_on_c, 0, 74, 0
2, 80400, Note_on_c, 0, 70, 0
2, 80400, Note_on_c, 0, 70, 100
2, 80400, Note_on_c, 0, 74, 100
2, 80520, Note_on_c, 0, 74, 0
2, 80520, Note_on_c, 0, 70, 0
2, 80520, Note_on_c, 0, 70, 100
2, 80520, Note_on_c, 0, 74, 100
2, 80640, Note_on_c, 0, 74, 0
2, 80640, Note_on_c, 0, 70, 0
2, 80640, Note_on_c, 0, 70, 100
2, 80640, Note_on_c, 0, 74, 100
2, 81240, Note_on_c, 0, 74, 0
2, 81240, Note_on_c, 0, 70, 0
2, 81240, Note_on_c, 0, 74, 100
2, 81240, Note_on_c, 0, 82, 100
2, 81330, Note_on_c, 0, 82, 0
2, 81330, Note_on_c, 0, 74, 0
2, 81330, Note_on_c, 0, 74, 100
2, 81330, Note_on_c, 0, 82, 100
2, 81360, Note_on_c, 0, 82, 0
2, 81360, Note_on_c, 0, 74, 0
2, 81360, Note_on_c, 0, 74, 100
2, 81360, Note_on_c, 0, 82, 100
2, 81480, Note_on_c, 0, 82, 0
2, 81480, Note_on_c, 0, 74, 0
2, 81480, Note_on_c, 0, 74, 100
2, 81480, Note_on_c, 0, 82, 100
2, 81600, Note_on_c, 0, 82, 0
2, 81600, Note_on_c, 0, 74, 0
2, 81600, Note_on_c, 0, 74, 100
2, 81600, Note_on_c, 0, 82, 100
2, 82080, Note_on_c, 0, 82, 0
2, 82200, Note_on_c, 0, 74, 0
2, 82560, Note_on_c, 0, 81, 100
2, 82560, Note_on_c, 0, 84, 100
2, 83160, Note_on_c, 0, 84, 0
2, 83160, Note_on_c, 0, 81, 0
2, 86400, Note_on_c, 0, 70, 100
2, 86400, Note_on_c, 0, 79, 100
2, 86520, Note_on_c, 0, 79, 0
2, 86520, Note_on_c, 0, 70, 0
2, 86520, Note_on_c, 0, 70, 100
2, 86520, Note_on_c, 0, 79, 100
2, 86610, Note_on_c, 0, 79, 0
2, 86610, Note_on_c, 0, 70, 0
2, 86610, Note_on_c, 0, 70, 100
2, 86610, Note_on_c, 0, 79, 100
2, 86640, Note_on_c, 0, 79, 0
2, 86640, Note_on_c, 0, 70, 0
2, 86640, Note_on_c, 0, 70, 100
2, 86640, Note_on_c, 0, 79, 100
2, 86760, Note_on_c, 0, 79, 0
2, 86760, Note_on_c, 0, 70, 0
2, 86760, Note_on_c, 0, 70, 100
2, 86760, Note_on_c, 0, 79, 100
2, 86880, Note_on_c, 0, 79, 0
2, 86880, Note_on_c, 0, 70, 0
2, 86880, Note_on_c, 0, 70, 100
2, 86880, Note_on_c, 0, 79, 100
2, 87360, Note_on_c, 0, 79, 0
2, 87360, Note_on_c, 0, 70, 0
2, 87360, Note_on_c, 0, 70, 100
2, 87360, Note_on_c, 0, 82, 100
2, 87480, Note_on_c, 0, 82, 0
2, 87480, Note_on_c, 0, 70, 0
2, 87480, Note_on_c, 0, 70, 100
2, 87480, Note_on_c, 0, 82, 100
2, 87570, Note_on_c, 0, 82, 0
2, 87570, Note_on_c, 0, 70, 0
2, 87570, Note_on_c, 0, 70, 100
2, 87570, Note_on_c, 0, 82, 100
2, 87600, Note_on_c, 0, 82, 0
2, 87600, Note_on_c, 0, 70, 0
2, 87600, Note_on_c, 0, 70, 100
2, 87600, Note_on_c, 0, 82, 100
2, 87720, Note_on_c, 0, 82, 0
2, 87720, Note_on_c, 0, 70, 0
2, 87720, Note_on_c, 0, 70, 100
2, 87720, Note_on_c, 0, 82, 100
2, 87840, Note_on_c, 0, 82, 0
2, 87840, Note_on_c, 0, 70, 0
2, 87840, Note_on_c, 0, 82, 100
2, 87840, Note_on_c, 0, 70, 100
2, 88320, Note_on_c, 0, 82, 0
2, 88320, Note_on_c, 0, 83, 100
2, 88440, Note_on_c, 0, 83, 0
2, 88440, Note_on_c, 0, 70, 0
2, 88800, Note_on_c, 0, 74, 100
2, 88800, Note_on_c, 0, 77, 100
2, 89280, Note_on_c, 0, 77, 0
2, 89280, Note_on_c, 0, 74, 0
2, 89280, Note_on_c, 0, 72, 100
2, 89280, Note_on_c, 0, 75, 100
2, 89400, Note_on_c, 0, 75, 0
2, 89400, Note_on_c, 0, 72, 0
2, 93120, Note_on_c, 0, 79, 100
2, 93120, Note_on_c, 0, 67, 100
2, 93720, Note_on_c, 0, 67, 0
2, 93720, Note_on_c, 0, 79, 0
2, 94080, Note_on_c, 0, 72, 100
2, 94080, Note_on_c, 0, 84, 100
2, 94680, Note_on_c, 0, 84, 0
2, 94680, Note_on_c, 0, 72, 0
2, 95040, Note_on_c, 0, 65, 100
2, 95040, Note_on_c, 0, 77, 100
2, 95640, Note_on_c, 0, 77, 0
2, 95640, Note_on_c, 0, 65, 0
2, 96000, Note_on_c, 0, 70, 100
2, 96000, Note_on_c, 0, 82, 100
2, 96600, Note_on_c, 0, 82, 0
2, 96600, Note_on_c, 0, 70, 0
2, 99120, Note_on_c, 0, 85, 100
2, 99120, Note_on_c, 0, 82, 100
2, 99360, Note_on_c, 0, 82, 0
2, 99360, Note_on_c, 0, 85, 0
2, 99360, Note_on_c, 0, 80, 100
2, 99360, Note_on_c, 0, 84, 100
2, 99600, Note_on_c, 0, 84, 0
2, 99600, Note_on_c, 0, 80, 0
2, 99600, Note_on_c, 0, 79, 100
2, 99600, Note_on_c, 0, 82, 100
2, 99840, Note_on_c, 0, 82, 0
2, 99840, Note_on_c, 0, 79, 0
2, 99840, Note_on_c, 0, 72, 100
2, 99840, Note_on_c, 0, 80, 100
2, 99960, Note_on_c, 0, 80, 0
2, 99960, Note_on_c, 0, 72, 0
2, 99960, Note_on_c, 0, 70, 100
2, 99960, Note_on_c, 0, 79, 100
2, 100080, Note_on_c, 0, 79, 0
2, 100080, Note_on_c, 0, 70, 0
2, 100080, Note_on_c, 0, 68, 100
2, 100080, Note_on_c, 0, 77, 100
2, 100200, Note_on_c, 0, 77, 0
2, 100200, Note_on_c, 0, 68, 0
2, 100200, Note_on_c, 0, 67, 100
2, 100200, Note_on_c, 0, 75, 100
2, 100320, Note_on_c, 0, 75, 0
2, 100320, Note_on_c, 0, 67, 0
2, 100320, Note_on_c, 0, 65, 100
2, 100320, Note_on_c, 0, 74, 100
2, 100440, Note_on_c, 0, 74, 0
2, 100440, Note_on_c, 0, 65, 0
2, 100440, Note_on_c, 0, 70, 100
2, 100440, Note_on_c, 0, 74, 100
2, 100470, Note_on_c, 0, 74, 0
2, 100470, Note_on_c, 0, 70, 0
2, 100470, Note_on_c, 0, 72, 100
2, 100470, Note_on_c, 0, 75, 100
2, 100500, Note_on_c, 0, 75, 0
2, 100500, Note_on_c, 0, 72, 0
2, 100500, Note_on_c, 0, 70, 100
2, 100500, Note_on_c, 0, 74, 100
2, 100530, Note_on_c, 0, 74, 0
2, 100530, Note_on_c, 0, 70, 0
2, 100530, Note_on_c, 0, 72, 100
2, 100530, Note_on_c, 0, 75, 100
2, 100560, Note_on_c, 0, 75, 0
2, 100560, Note_on_c, 0, 72, 0
2, 100560, Note_on_c, 0, 74, 100
2, 100560, Note_on_c, 0, 77, 100
2, 100620, Note_on_c, 0, 77, 0
2, 100620, Note_on_c, 0, 74, 0
2, 100620, Note_on_c, 0, 74, 100
2, 100620, Note_on_c, 0, 77, 100
2, 100680, Note_on_c, 0, 77, 0
2, 100680, Note_on_c, 0, 74, 0
2, 100680, Note_on_c, 0, 74, 100
2, 100680, Note_on_c, 0, 77, 100
2, 100740, Note_on_c, 0, 77, 0
2, 100740, Note_on_c, 0, 74, 0
2, 100740, Note_on_c, 0, 74, 100
2, 100740, Note_on_c, 0, 77, 100
2, 100800, Note_on_c, 0, 77, 0
2, 100800, Note_on_c, 0, 74, 0
2, 100800, Note_on_c, 0, 74, 100
2, 100800, Note_on_c, 0, 77, 100
2, 100980, Note_on_c, 0, 77, 0
2, 100980, Note_on_c, 0, 74, 0
2, 100980, Note_on_c, 0, 74, 100
2, 100980, Note_on_c, 0, 70, 100
2, 101040, Note_on_c, 0, 70, 0
2, 101040, Note_on_c, 0, 74, 0
2, 101040, Note_on_c, 0, 77, 100
2, 101040, Note_on_c, 0, 80, 100
2, 101160, Note_on_c, 0, 80, 0
2, 101160, Note_on_c, 0, 77, 0
2, 102240, Note_on_c, 0, 74, 100
2, 102240, Note_on_c, 0, 77, 100
2, 102360, Note_on_c, 0, 77, 0
2, 102360, Note_on_c, 0, 74, 0
2, 102360, Note_on_c, 0, 70, 100
2, 102360, Note_on_c, 0, 74, 100
2, 102390, Note_on_c, 0, 74, 0
2, 102390, Note_on_c, 0, 70, 0
2, 102390, Note_on_c, 0, 72, 100
2, 102390, Note_on_c, 0, 75, 100
2, 102420, Note_on_c, 0, 75, 0
2, 102420, Note_on_c, 0, 72, 0
2, 102420, Note_on_c, 0, 70, 100
2, 102420, Note_on_c, 0, 74, 100
2, 102450, Note_on_c, 0, 74, 0
2, 102450, Note_on_c, 0, 70, 0
2, 102450, Note_on_c, 0, 72, 100
2, 102450, Note_on_c, 0, 75, 100
2, 102480, Note_on_c, 0, 75, 0
2, 102480, Note_on_c, 0, 72, 0
2, 102480, Note_on_c, 0, 74, 100
2, 102480, Note_on_c, 0, 77, 100
2, 102540, Note_on_c, 0, 77, 0
2, 102540, Note_on_c, 0, 74, 0
2, 102540, Note_on_c, 0, 74, 100
2, 102540, Note_on_c, 0, 77, 100
2, 102600, Note_on_c, 0, 77, 0
2, 102600, Note_on_c, 0, 74, 0
2, 102600, Note_on_c, 0, 74, 100
2, 102600, Note_on_c, 0, 77, 100
2, 102660, Note_on_c, 0, 77, 0
2, 102660, Note_on_c, 0, 74, 0
2, 102660, Note_on_c, 0, 74, 100
2, 102660, Note_on_c, 0, 77, 100
2, 102720, Note_on_c, 0, 77, 0
2, 102720, Note_on_c, 0, 74, 0
2, 102720, Note_on_c, 0, 74, 100
2, 102720, Note_on_c, 0, 77, 100
2, 102900, Note_on_c, 0, 77, 0
2, 102900, Note_on_c, 0, 74, 0
2, 102900, Note_on_c, 0, 70, 100
2, 102900, Note_on_c, 0, 74, 100
2, 102960, Note_on_c, 0, 74, 0
2, 102960, Note_on_c, 0, 70, 0
2, 102960, Note_on_c, 0, 77, 100
2, 102960, Note_on_c, 0, 80, 100
2, 103080, Note_on_c, 0, 80, 0
2, 103080, Note_on_c, 0, 77, 0
2, 106560, Note_on_c, 0, 63, 100
2, 107040, Note_on_c, 0, 63, 0
2, 107040, Note_on_c, 0, 63, 100
2, 107280, Note_on_c, 0, 63, 0
2, 107280, Note_on_c, 0, 63, 100
2, 107460, Note_on_c, 0, 63, 0
2, 107460, Note_on_c, 0, 63, 100
2, 107520, Note_on_c, 0, 63, 0
2, 107520, Note_on_c, 0, 63, 100
2, 107640, Note_on_c, 0, 63, 0
2, 108480, Note_on_c, 0, 80, 100
2, 108480, Note_on_c, 0, 82, 100
2, 109440, Note_on_c, 0, 80, 0
2, 109440, Note_on_c, 0, 79, 100
2, 109560, Note_on_c, 0, 79, 0
2, 109560, Note_on_c, 0, 82, 0
2, 109560, Note_on_c, 0, 67, 100
2, 109560, Note_on_c, 0, 73, 100
2, 109800, Note_on_c, 0, 73, 0
2, 109800, Note_on_c, 0, 67, 0
2, 109800, Note_on_c, 0, 68, 100
2, 109800, Note_on_c, 0, 72, 100
2, 109920, Note_on_c, 0, 72, 0
2, 109920, Note_on_c, 0, 68, 0
2, 110040, Note_on_c, 0, 74, 100
2, 110040, Note_on_c, 0, 80, 100
2, 110280, Note_on_c, 0, 80, 0
2, 110280, Note_on_c, 0, 74, 0
2, 110280, Note_on_c, 0, 75, 100
2, 110280, Note_on_c, 0, 79, 100
2, 110400, Note_on_c, 0, 79, 0
2, 110400, Note_on_c, 0, 75, 0
2, 110520, Note_on_c, 0, 79, 100
2, 110520, Note_on_c, 0, 85, 100
2, 110760, Note_on_c, 0, 85, 0
2, 110760, Note_on_c, 0, 79, 0
2, 110760, Note_on_c, 0, 80, 100
2, 110760, Note_on_c, 0, 84, 100
2, 110880, Note_on_c, 0, 84, 0
2, 110880, Note_on_c, 0, 80, 0
2, 111000, Note_on_c, 0, 77, 100
2, 111000, Note_on_c, 0, 80, 100
2, 111060, Note_on_c, 0, 80, 0
2, 111060, Note_on_c, 0, 77, 0
2, 111120, Note_on_c, 0, 74, 100
2, 111120, Note_on_c, 0, 77, 100
2, 111180, Note_on_c, 0, 77, 0
2, 111180, Note_on_c, 0, 74, 0
2, 111240, Note_on_c, 0, 68, 100
2, 111240, Note_on_c, 0, 74, 100
2, 111300, Note_on_c, 0, 74, 0
2, 111300, Note_on_c, 0, 68, 0
2, 111360, Note_on_c, 0, 67, 100
2, 111360, Note_on_c, 0, 75, 100
2, 111480, Note_on_c, 0, 75, 0
2, 111480, Note_on_c, 0, 67, 0
2, 113880, Note_on_c, 0, 62, 100
2, 113880, Note_on_c, 0, 65, 100
2, 114000, Note_on_c, 0, 65, 0
2, 114000, Note_on_c, 0, 62, 0
2, 114000, Note_on_c, 0, 63, 100
2, 114000, Note_on_c, 0, 67, 100
2, 114120, Note_on_c, 0, 67, 0
2, 114120, Note_on_c, 0, 63, 0
2, 114120, Note_on_c, 0, 65, 100
2, 114120, Note_on_c, 0, 68, 100
2, 114240, Note_on_c, 0, 68, 0
2, 114240, Note_on_c, 0, 65, 0
2, 114240, Note_on_c, 0, 63, 100
2, 114240, Note_on_c, 0, 67, 100
2, 114360, Note_on_c, 0, 67, 0
2, 114360, Note_on_c, 0, 63, 0
2, 115800, Note_on_c, 0, 74, 100
2, 115800, Note_on_c, 0, 77, 100
2, 115920, Note_on_c, 0, 77, 0
2, 115920, Note_on_c, 0, 74, 0
2, 115920, Note_on_c, 0, 75, 100
2, 115920, Note_on_c, 0, 79, 100
2, 116040, Note_on_c, 0, 79, 0
2, 116040, Note_on_c, 0, 75, 0
2, 116040, Note_on_c, 0, 77, 100
2, 116040, Note_on_c, 0, 80, 100
2, 116160, Note_on_c, 0, 80, 0
2, 116160, Note_on_c, 0, 77, 0
2, 116160, Note_on_c, 0, 75, 100
2, 116160, Note_on_c, 0, 79, 100
2, 116280, Note_on_c, 0, 79, 0
2, 116280, Note_on_c, 0, 75, 0
2, 119160, Note_on_c, 0, 75, 100
2, 119160, Note_on_c, 0, 79, 100
2, 119220, Note_on_c, 0, 79, 0
2, 119220, Note_on_c, 0, 75, 0
2, 119220, Note_on_c, 0, 79, 100
2, 119220, Note_on_c, 0, 82, 100
2, 119280, Note_on_c, 0, 82, 0
2, 119280, Note_on_c, 0, 79, 0
2, 119280, Note_on_c, 0, 75, 100
2, 119280, Note_on_c, 0, 79, 100
2, 119340, Note_on_c, 0, 79, 0
2, 119340, Note_on_c, 0, 75, 0
2, 119340, Note_on_c, 0, 79, 100
2, 119340, Note_on_c, 0, 82, 100
2, 119400, Note_on_c, 0, 82, 0
2, 119400, Note_on_c, 0, 79, 0
2, 119400, Note_on_c, 0, 75, 100
2, 119400, Note_on_c, 0, 79, 100
2, 119460, Note_on_c, 0, 79, 0
2, 119460, Note_on_c, 0, 75, 0
2, 119460, Note_on_c, 0, 79, 100
2, 119460, Note_on_c, 0, 82, 100
2, 119520, Note_on_c, 0, 82, 0
2, 119520, Note_on_c, 0, 79, 0
2, 119520, Note_on_c, 0, 75, 100
2, 119520, Note_on_c, 0, 79, 100
2, 119640, Note_on_c, 0, 79, 0
2, 119640, Note_on_c, 0, 75, 0
2, 119640, Note_on_c, 0, 67, 100
2, 119640, Note_on_c, 0, 75, 100
2, 119700, Note_on_c, 0, 75, 0
2, 119700, Note_on_c, 0, 67, 0
2, 119700, Note_on_c, 0, 70, 100
2, 119700, Note_on_c, 0, 79, 100
2, 119760, Note_on_c, 0, 79, 0
2, 119760, Note_on_c, 0, 70, 0
2, 119760, Note_on_c, 0, 67, 100
2, 119760, Note_on_c, 0, 75, 100
2, 119820, Note_on_c, 0, 75, 0
2, 119820, Note_on_c, 0, 67, 0
2, 119820, Note_on_c, 0, 70, 100
2, 119820, Note_on_c, 0, 79, 100
2, 119880, Note_on_c, 0, 79, 0
2, 119880, Note_on_c, 0, 70, 0
2, 119880, Note_on_c, 0, 67, 100
2, 119880, Note_on_c, 0, 75, 100
2, 119940, Note_on_c, 0, 75, 0
2, 119940, Note_on_c, 0, 67, 0
2, 119940, Note_on_c, 0, 70, 100
2, 119940, Note_on_c, 0, 79, 100
2, 120000, Note_on_c, 0, 79, 0
2, 120000, Note_on_c, 0, 70, 0
2, 120000, Note_on_c, 0, 67, 100
2, 120000, Note_on_c, 0, 75, 100
2, 120120, Note_on_c, 0, 75, 0
2, 120120, Note_on_c, 0, 67, 0
2, 126720, Note_on_c, 0, 74, 100
2, 126720, Note_on_c, 0, 82, 100
2, 126840, Note_on_c, 0, 82, 0
2, 126840, Note_on_c, 0, 74, 0
2, 126840, Note_on_c, 0, 77, 100
2, 126840, Note_on_c, 0, 80, 100
2, 126960, Note_on_c, 0, 80, 0
2, 126960, Note_on_c, 0, 77, 0
2, 126960, Note_on_c, 0, 75, 100
2, 126960, Note_on_c, 0, 79, 100
2, 127080, Note_on_c, 0, 79, 0
2, 127080, Note_on_c, 0, 75, 0
2, 127080, Note_on_c, 0, 73, 100
2, 127080, Note_on_c, 0, 77, 100
2, 127200, Note_on_c, 0, 77, 0
2, 127200, Note_on_c, 0, 73, 0
2, 127200, Note_on_c, 0, 76, 100
2, 127320, Note_on_c, 0, 76, 0
2, 128160, Note_on_c, 0, 82, 100
2, 129120, Note_on_c, 0, 80, 100
2, 130080, Note_on_c, 0, 80, 0
2, 130200, Note_on_c, 0, 82, 0
2, 130200, Note_on_c, 0, 63, 100
2, 130260, Note_on_c, 0, 63, 0
2, 130260, Note_on_c, 0, 63, 100
2, 130320, Note_on_c, 0, 63, 0
2, 130320, Note_on_c, 0, 63, 100
2, 130380, Note_on_c, 0, 63, 0
2, 130380, Note_on_c, 0, 63, 100
2, 130440, Note_on_c, 0, 63, 0
2, 130440, Note_on_c, 0, 63, 100
2, 130500, Note_on_c, 0, 63, 0
2, 130500, Note_on_c, 0, 63, 100
2, 130560, Note_on_c, 0, 63, 0
2, 130560, Note_on_c, 0, 63, 100
2, 130680, Note_on_c, 0, 63, 0
2, 131040, Note_on_c, 0, 69, 100
2, 131040, Note_on_c, 0, 77, 100
2, 131160, Note_on_c, 0, 77, 0
2, 131160, Note_on_c, 0, 69, 0
2, 131160, Note_on_c, 0, 72, 100
2, 131160, Note_on_c, 0, 75, 100
2, 131280, Note_on_c, 0, 75, 0
2, 131280, Note_on_c, 0, 72, 0
2, 131280, Note_on_c, 0, 70, 100
2, 131280, Note_on_c, 0, 73, 100
2, 131400, Note_on_c, 0, 73, 0
2, 131400, Note_on_c, 0, 70, 0
2, 131400, Note_on_c, 0, 68, 100
2, 131400, Note_on_c, 0, 72, 100
2, 131520, Note_on_c, 0, 72, 0
2, 131520, Note_on_c, 0, 68, 0
2, 131520, Note_on_c, 0, 70, 100
2, 131520, Note_on_c, 0, 73, 100
2, 132000, Note_on_c, 0, 73, 0
2, 132000, Note_on_c, 0, 70, 0
2, 132000, Note_on_c, 0, 67, 100
2, 132000, Note_on_c, 0, 75, 100
2, 132120, Note_on_c, 0, 75, 0
2, 132120, Note_on_c, 0, 67, 0
2, 132120, Note_on_c, 0, 70, 100
2, 132120, Note_on_c, 0, 73, 100
2, 132240, Note_on_c, 0, 73, 0
2, 132240, Note_on_c, 0, 70, 0
2, 132240, Note_on_c, 0, 68, 100
2, 132240, Note_on_c, 0, 72, 100
2, 132360, Note_on_c, 0, 72, 0
2, 132360, Note_on_c, 0, 68, 0
2, 132360, Note_on_c, 0, 67, 100
2, 132360, Note_on_c, 0, 71, 100
2, 132480, Note_on_c, 0, 71, 0
2, 132480, Note_on_c, 0, 67, 0
2, 132480, Note_on_c, 0, 68, 100
2, 132480, Note_on_c, 0, 72, 100
2, 132960, Note_on_c, 0, 72, 0
2, 132960, Note_on_c, 0, 68, 0
2, 132960, Note_on_c, 0, 65, 100
2, 132960, Note_on_c, 0, 73, 100
2, 133080, Note_on_c, 0, 73, 0
2, 133080, Note_on_c, 0, 65, 0
2, 133080, Note_on_c, 0, 68, 100
2, 133080, Note_on_c, 0, 72, 100
2, 133200, Note_on_c, 0, 72, 0
2, 133200, Note_on_c, 0, 68, 0
2, 133200, Note_on_c, 0, 67, 100
2, 133200, Note_on_c, 0, 70, 100
2, 133320, Note_on_c, 0, 70, 0
2, 133320, Note_on_c, 0, 67, 0
2, 133320, Note_on_c, 0, 65, 100
2, 133320, Note_on_c, 0, 68, 100
2, 133440, Note_on_c, 0, 68, 0
2, 133440, Note_on_c, 0, 65, 0
2, 133440, Note_on_c, 0, 67, 100
2, 133440, Note_on_c, 0, 70, 100
2, 133920, Note_on_c, 0, 70, 0
2, 133920, Note_on_c, 0, 67, 0
2, 133920, Note_on_c, 0, 68, 100
2, 133920, Note_on_c, 0, 72, 100
2, 134040, Note_on_c, 0, 72, 0
2, 134040, Note_on_c, 0, 68, 0
2, 135960, Note_on_c, 0, 75, 100
2, 135960, Note_on_c, 0, 79, 100
2, 135990, Note_on_c, 0, 79, 0
2, 135990, Note_on_c, 0, 75, 0
2, 135990, Note_on_c, 0, 77, 100
2, 135990, Note_on_c, 0, 80, 100
2, 136020, Note_on_c, 0, 80, 0
2, 136020, Note_on_c, 0, 77, 0
2, 136020, Note_on_c, 0, 75, 100
2, 136020, Note_on_c, 0, 79, 100
2, 136050, Note_on_c, 0, 79, 0
2, 136050, Note_on_c, 0, 75, 0
2, 136050, Note_on_c, 0, 77, 100
2, 136050, Note_on_c, 0, 80, 100
2, 136080, Note_on_c, 0, 80, 0
2, 136080, Note_on_c, 0, 77, 0
2, 136080, Note_on_c, 0, 79, 100
2, 136080, Note_on_c, 0, 82, 100
2, 136140, Note_on_c, 0, 82, 0
2, 136140, Note_on_c, 0, 79, 0
2, 136140, Note_on_c, 0, 79, 100
2, 136140, Note_on_c, 0, 82, 100
2, 136200, Note_on_c, 0, 82, 0
2, 136200, Note_on_c, 0, 79, 0
2, 136200, Note_on_c, 0, 79, 100
2, 136200, Note_on_c, 0, 82, 100
2, 136260, Note_on_c, 0, 82, 0
2, 136260, Note_on_c, 0, 79, 0
2, 136260, Note_on_c, 0, 79, 100
2, 136260, Note_on_c, 0, 82, 100
2, 136320, Note_on_c, 0, 82, 0
2, 136320, Note_on_c, 0, 79, 0
2, 136320, Note_on_c, 0, 79, 100
2, 136320, Note_on_c, 0, 82, 100
2, 136440, Note_on_c, 0, 82, 0
2, 136440, Note_on_c, 0, 79, 0
2, 138060, Note_on_c, 0, 77, 100
2, 138060, Note_on_c, 0, 80, 100
2, 138120, Note_on_c, 0, 80, 0
2, 138120, Note_on_c, 0, 77, 0
2, 138120, Note_on_c, 0, 75, 100
2, 138120, Note_on_c, 0, 79, 100
2, 138180, Note_on_c, 0, 79, 0
2, 138180, Note_on_c, 0, 75, 0
2, 138180, Note_on_c, 0, 74, 100
2, 138180, Note_on_c, 0, 77, 100
2, 138240, Note_on_c, 0, 77, 0
2, 138240, Note_on_c, 0, 74, 0
2, 138240, Note_on_c, 0, 75, 100
2, 138360, Note_on_c, 0, 75, 0
2, 141120, Note_on_c, 0, 74, 100
2, 141120, Note_on_c, 0, 77, 100
2, 141360, Note_on_c, 0, 77, 0
2, 141360, Note_on_c, 0, 74, 0
2, 141360, Note_on_c, 0, 75, 100
2, 141360, Note_on_c, 0, 79, 100
2, 141540, Note_on_c, 0, 79, 0
2, 141540, Note_on_c, 0, 75, 0
2, 141540, Note_on_c, 0, 79, 100
2, 141540, Note_on_c, 0, 82, 100
2, 141600, Note_on_c, 0, 82, 0
2, 141600, Note_on_c, 0, 79, 0
2, 141600, Note_on_c, 0, 79, 100
2, 141600, Note_on_c, 0, 82, 100
2, 141660, Note_on_c, 0, 82, 0
2, 141660, Note_on_c, 0, 79, 0
2, 141660, Note_on_c, 0, 77, 100
2, 141660, Note_on_c, 0, 80, 100
2, 141720, Note_on_c, 0, 80, 0
2, 141720, Note_on_c, 0, 77, 0
2, 141720, Note_on_c, 0, 75, 100
2, 141720, Note_on_c, 0, 79, 100
2, 141780, Note_on_c, 0, 79, 0
2, 141780, Note_on_c, 0, 75, 0
2, 141780, Note_on_c, 0, 74, 100
2, 141780, Note_on_c, 0, 77, 100
2, 141840, Note_on_c, 0, 77, 0
2, 141840, Note_on_c, 0, 74, 0
2, 141840, Note_on_c, 0, 79, 100
2, 141840, Note_on_c, 0, 82, 100
2, 141900, Note_on_c, 0, 82, 0
2, 141900, Note_on_c, 0, 79, 0
2, 141900, Note_on_c, 0, 77, 100
2, 141900, Note_on_c, 0, 80, 100
2, 141960, Note_on_c, 0, 80, 0
2, 141960, Note_on_c, 0, 77, 0
2, 141960, Note_on_c, 0, 75, 100
2, 141960, Note_on_c, 0, 79, 100
2, 142020, Note_on_c, 0, 79, 0
2, 142020, Note_on_c, 0, 75, 0
2, 142020, Note_on_c, 0, 74, 100
2, 142020, Note_on_c, 0, 77, 100
2, 142080, Note_on_c, 0, 77, 0
2, 142080, Note_on_c, 0, 74, 0
2, 142080, Note_on_c, 0, 75, 100
2, 142200, Note_on_c, 0, 75, 0
2, 143040, Note_on_c, 0, 74, 100
2, 143040, Note_on_c, 0, 77, 100
2, 143280, Note_on_c, 0, 77, 0
2, 143280, Note_on_c, 0, 74, 0
2, 143280, Note_on_c, 0, 75, 100
2, 143280, Note_on_c, 0, 79, 100
2, 143460, Note_on_c, 0, 79, 0
2, 143460, Note_on_c, 0, 75, 0
2, 143460, Note_on_c, 0, 79, 100
2, 143460, Note_on_c, 0, 82, 100
2, 143520, Note_on_c, 0, 82, 0
2, 143520, Note_on_c, 0, 79, 0
2, 143520, Note_on_c, 0, 79, 100
2, 143520, Note_on_c, 0, 82, 100
2, 143580, Note_on_c, 0, 82, 0
2, 143580, Note_on_c, 0, 79, 0
2, 143580, Note_on_c, 0, 77, 100
2, 143580, Note_on_c, 0, 80, 100
2, 143640, Note_on_c, 0, 80, 0
2, 143640, Note_on_c, 0, 77, 0
2, 143640, Note_on_c, 0, 75, 100
2, 143640, Note_on_c, 0, 79, 100
2, 143700, Note_on_c, 0, 79, 0
2, 143700, Note_on_c, 0, 75, 0
2, 143700, Note_on_c, 0, 74, 100
2, 143700, Note_on_c, 0, 77, 100
2, 143760, Note_on_c, 0, 77, 0
2, 143760, Note_on_c, 0, 74, 0
2, 143760, Note_on_c, 0, 79, 100
2, 143760, Note_on_c, 0, 82, 100
2, 143820, Note_on_c, 0, 82, 0
2, 143820, Note_on_c, 0, 79, 0
2, 143820, Note_on_c, 0, 77, 100
2, 143820, Note_on_c, 0, 80, 100
2, 143880, Note_on_c, 0, 80, 0
2, 143880, Note_on_c, 0, 77, 0
2, 143880, Note_on_c, 0, 75, 100
2, 143880, Note_on_c, 0, 79, 100
2, 143940, Note_on_c, 0, 79, 0
2, 143940, Note_on_c, 0, 75, 0
2, 143940, Note_on_c, 0, 74, 100
2, 143940, Note_on_c, 0, 77, 100
2, 144000, Note_on_c, 0, 77, 0
2, 144000, Note_on_c, 0, 74, 0
2, 144000, Note_on_c, 0, 75, 100
2, 144120, Note_on_c, 0, 75, 0
2, 146400, Note_on_c, 0, 70, 100
2, 146400, Note_on_c, 0, 82, 100
2, 147480, Note_on_c, 0, 82, 0
2, 147480, Note_on_c, 0, 70, 0
2, 150240, Note_on_c, 0, 63, 100
2, 150480, Note_on_c, 0, 63, 0
2, 150480, Note_on_c, 0, 63, 100
2, 150600, Note_on_c, 0, 63, 0
2, 150600, Note_on_c, 0, 63, 100
2, 150720, Note_on_c, 0, 63, 0
2, 150720, Note_on_c, 0, 67, 100
2, 150720, Note_on_c, 0, 63, 100
2, 150960, Note_on_c, 0, 63, 0
2, 150960, Note_on_c, 0, 67, 0
2, 150960, Note_on_c, 0, 63, 100
2, 150960, Note_on_c, 0, 67, 100
2, 151080, Note_on_c, 0, 67, 0
2, 151080, Note_on_c, 0, 63, 0
2, 151080, Note_on_c, 0, 63, 100
2, 151080, Note_on_c, 0, 67, 100
2, 151200, Note_on_c, 0, 67, 0
2, 151200, Note_on_c, 0, 63, 0
2, 151200, Note_on_c, 0, 70, 100
2, 151200, Note_on_c, 0, 67, 100
2, 151440, Note_on_c, 0, 67, 0
2, 151440, Note_on_c, 0, 70, 0
2, 151440, Note_on_c, 0, 67, 100
2, 151440, Note_on_c, 0, 70, 100
2, 151560, Note_on_c, 0, 70, 0
2, 151560, Note_on_c, 0, 67, 0
2, 151560, Note_on_c, 0, 67, 100
2, 151560, Note_on_c, 0, 70, 100
2, 151680, Note_on_c, 0, 70, 0
2, 151680, Note_on_c, 0, 67, 0
2, 151680, Note_on_c, 0, 64, 100
2, 151680, Note_on_c, 0, 70, 100
2, 152160, Note_on_c, 0, 70, 0
2, 152160, Note_on_c, 0, 64, 0
2, 152160, Note_on_c, 0, 63, 100
2, 152160, Note_on_c, 0, 69, 100
2, 152400, Note_on_c, 0, 69, 0
2, 152400, Note_on_c, 0, 63, 0
2, 152400, Note_on_c, 0, 62, 100
2, 152400, Note_on_c, 0, 68, 100
2, 152640, Note_on_c, 0, 68, 0
2, 152640, Note_on_c, 0, 62, 0
2, 152640, Note_on_c, 0, 63, 100
2, 152640, Note_on_c, 0, 67, 100
2, 152760, Note_on_c, 0, 67, 0
2, 152760, Note_on_c, 0, 63, 0
2, 155520, Note_on_c, 0, 75, 100
2, 155520, Note_on_c, 0, 79, 100
2, 156120, Note_on_c, 0, 79, 0
2, 156120, Note_on_c, 0, 75, 0
2, 156720, Note_on_c, 0, 68, 100
2, 156720, Note_on_c, 0, 74, 100
2, 156960, Note_on_c, 0, 74, 0
2, 156960, Note_on_c, 0, 68, 0
2, 156960, Note_on_c, 0, 67, 100
2, 156960, Note_on_c, 0, 75, 100
2, 157080, Note_on_c, 0, 75, 0
2, 157080, Note_on_c, 0, 67, 0
2, 157080, Note_on_c, 0, 67, 100
2, 157080, Note_on_c, 0, 75, 100
2, 157170, Note_on_c, 0, 75, 0
2, 157170, Note_on_c, 0, 67, 0
2, 157170, Note_on_c, 0, 67, 100
2, 157170, Note_on_c, 0, 75, 100
2, 157200, Note_on_c, 0, 75, 0
2, 157200, Note_on_c, 0, 67, 0
2, 157200, Note_on_c, 0, 67, 100
2, 157200, Note_on_c, 0, 75, 100
2, 157320, Note_on_c, 0, 75, 0
2, 157320, Note_on_c, 0, 67, 0
2, 157320, Note_on_c, 0, 67, 100
2, 157320, Note_on_c, 0, 75, 100
2, 157440, Note_on_c, 0, 75, 0
2, 157440, Note_on_c, 0, 67, 0
2, 157440, Note_on_c, 0, 67, 100
2, 157440, Note_on_c, 0, 75, 100
2, 157920, Note_on_c, 0, 75, 0
2, 157920, Note_on_c, 0, 67, 0
2, 158040, Note_on_c, 0, 68, 100
2, 158040, Note_on_c, 0, 77, 100
2, 158130, Note_on_c, 0, 77, 0
2, 158130, Note_on_c, 0, 68, 0
2, 158130, Note_on_c, 0, 68, 100
2, 158130, Note_on_c, 0, 77, 100
2, 158160, Note_on_c, 0, 77, 0
2, 158160, Note_on_c, 0, 68, 0
2, 158160, Note_on_c, 0, 68, 100
2, 158160, Note_on_c, 0, 77, 100
2, 158280, Note_on_c, 0, 77, 0
2, 158280, Note_on_c, 0, 68, 0
2, 158280, Note_on_c, 0, 68, 100
2, 158280, Note_on_c, 0, 77, 100
2, 158400, Note_on_c, 0, 77, 0
2, 158400, Note_on_c, 0, 68, 0
2, 158400, Note_on_c, 0, 68, 100
2, 158400, Note_on_c, 0, 77, 100
2, 158880, Note_on_c, 0, 77, 0
2, 158880, Note_on_c, 0, 68, 0
2, 159000, Note_on_c, 0, 70, 100
2, 159000, Note_on_c, 0, 79, 100
2, 159090, Note_on_c, 0, 79, 0
2, 159090, Note_on_c, 0, 70, 0
2, 159090, Note_on_c, 0, 70, 100
2, 159090, Note_on_c, 0, 79, 100
2, 159120, Note_on_c, 0, 79, 0
2, 159120, Note_on_c, 0, 70, 0
2, 159120, Note_on_c, 0, 70, 100
2, 159120, Note_on_c, 0, 79, 100
2, 159240, Note_on_c, 0, 79, 0
2, 159240, Note_on_c, 0, 70, 0
2, 159240, Note_on_c, 0, 70, 100
2, 159240, Note_on_c, 0, 79, 100
2, 159360, Note_on_c, 0, 79, 0
2, 159360, Note_on_c, 0, 70, 0
2, 159360, Note_on_c, 0, 70, 100
2, 159360, Note_on_c, 0, 79, 100
2, 159840, Note_on_c, 0, 79, 0
2, 159840, Note_on_c, 0, 70, 0
2, 159840, Note_on_c, 0, 60, 100
2, 159840, Note_on_c, 0, 65, 100
2, 159960, Note_on_c, 0, 65, 0
2, 159960, Note_on_c, 0, 60, 0
2, 159960, Note_on_c, 0, 60, 100
2, 159960, Note_on_c, 0, 65, 100
2, 160050, Note_on_c, 0, 65, 0
2, 160050, Note_on_c, 0, 60, 0
2, 160050, Note_on_c, 0, 60, 100
2, 160050, Note_on_c, 0, 65, 100
2, 160080, Note_on_c, 0, 65, 0
2, 160080, Note_on_c, 0, 60, 0
2, 160080, Note_on_c, 0, 60, 100
2, 160080, Note_on_c, 0, 65, 100
2, 160200, Note_on_c, 0, 65, 0
2, 160200, Note_on_c, 0, 60, 0
2, 160200, Note_on_c, 0, 60, 100
2, 160200, Note_on_c, 0, 65, 100
2, 160320, Note_on_c, 0, 65, 0
2, 160320, Note_on_c, 0, 60, 0
2, 160320, Note_on_c, 0, 60, 100
2, 160320, Note_on_c, 0, 65, 100
2, 160800, Note_on_c, 0, 65, 0
2, 160800, Note_on_c, 0, 60, 0
2, 160800, Note_on_c, 0, 75, 100
2, 160800, Note_on_c, 0, 78, 100
2, 160920, Note_on_c, 0, 78, 0
2, 160920, Note_on_c, 0, 75, 0
2, 160920, Note_on_c, 0, 78, 100
2, 160920, Note_on_c, 0, 75, 100
2, 161010, Note_on_c, 0, 75, 0
2, 161010, Note_on_c, 0, 78, 0
2, 161010, Note_on_c, 0, 78, 100
2, 161010, Note_on_c, 0, 75, 100
2, 161040, Note_on_c, 0, 75, 0
2, 161040, Note_on_c, 0, 78, 0
2, 161040, Note_on_c, 0, 75, 100
2, 161040, Note_on_c, 0, 78, 100
2, 161160, Note_on_c, 0, 78, 0
2, 161160, Note_on_c, 0, 75, 0
2, 161160, Note_on_c, 0, 75, 100
2, 161160, Note_on_c, 0, 78, 100
2, 161280, Note_on_c, 0, 78, 0
2, 161280, Note_on_c, 0, 75, 0
2, 161280, Note_on_c, 0, 78, 100
2, 161280, Note_on_c, 0, 75, 100
2, 161760, Note_on_c, 0, 78, 0
2, 161760, Note_on_c, 0, 79, 100
2, 162000, Note_on_c, 0, 79, 0
2, 162000, Note_on_c, 0, 75, 0
2, 174240, Note_on_c, 0, 79, 100
2, 174240, Note_on_c, 0, 75, 100
2, 174360, Note_on_c, 0, 75, 0
2, 174360, Note_on_c, 0, 79, 0
2, 174360, Note_on_c, 0, 75, 100
2, 174360, Note_on_c, 0, 79, 100
2, 174450, Note_on_c, 0, 79, 0
2, 174450, Note_on_c, 0, 75, 0
2, 174450, Note_on_c, 0, 75, 100
2, 174450, Note_on_c, 0, 79, 100
2, 174480, Note_on_c, 0, 79, 0
2, 174480, Note_on_c, 0, 75, 0
2, 174480, Note_on_c, 0, 79, 100
2, 174480, Note_on_c, 0, 75, 100
2, 174600, Note_on_c, 0, 75, 0
2, 174600, Note_on_c, 0, 79, 0
2, 174600, Note_on_c, 0, 79, 100
2, 174600, Note_on_c, 0, 75, 100
2, 174720, Note_on_c, 0, 75, 0
2, 174720, Note_on_c, 0, 79, 0
2, 174720, Note_on_c, 0, 79, 100
2, 174720, Note_on_c, 0, 75, 100
2, 175320, Note_on_c, 0, 75, 0
2, 175320, Note_on_c, 0, 79, 0
2, 175320, Note_on_c, 0, 75, 100
2, 175320, Note_on_c, 0, 79, 100
2, 175410, Note_on_c, 0, 79, 0
2, 175410, Note_on_c, 0, 75, 0
2, 175410, Note_on_c, 0, 75, 100
2, 175410, Note_on_c, 0, 79, 100
2, 175440, Note_on_c, 0, 79, 0
2, 175440, Note_on_c, 0, 75, 0
2, 175440, Note_on_c, 0, 79, 100
2, 175440, Note_on_c, 0, 75, 100
2, 175560, Note_on_c, 0, 75, 0
2, 175560, Note_on_c, 0, 79, 0
2, 175560, Note_on_c, 0, 79, 100
2, 175560, Note_on_c, 0, 75, 100
2, 175680, Note_on_c, 0, 75, 0
2, 175680, Note_on_c, 0, 79, 0
2, 175680, Note_on_c, 0, 75, 100
2, 175680, Note_on_c, 0, 79, 100
2, 176160, Note_on_c, 0, 79, 0
2, 176160, Note_on_c, 0, 75, 0
2, 176160, Note_on_c, 0, 75, 100
2, 176160, Note_on_c, 0, 77, 100
2, 177120, Note_on_c, 0, 77, 0
2, 177120, Note_on_c, 0, 80, 100
2, 177360, Note_on_c, 0, 80, 0
2, 177360, Note_on_c, 0, 70, 100
2, 177600, Note_on_c, 0, 75, 0
2, 177600, Note_on_c, 0, 68, 100
2, 177840, Note_on_c, 0, 68, 0
2, 177840, Note_on_c, 0, 67, 100
2, 177960, Note_on_c, 0, 67, 0
2, 177960, Note_on_c, 0, 65, 100
2, 178080, Note_on_c, 0, 65, 0
2, 178080, Note_on_c, 0, 70, 0
2, 178080, Note_on_c, 0, 67, 100
2, 178080, Note_on_c, 0, 75, 100
2, 178200, Note_on_c, 0, 75, 0
2, 178200, Note_on_c, 0, 67, 0
2, 178200, Note_on_c, 0, 70, 100
2, 178200, Note_on_c, 0, 74, 100
2, 178320, Note_on_c, 0, 74, 0
2, 178320, Note_on_c, 0, 70, 0
2, 178320, Note_on_c, 0, 68, 100
2, 178320, Note_on_c, 0, 72, 100
2, 178440, Note_on_c, 0, 72, 0
2, 178440, Note_on_c, 0, 68, 0
2, 178440, Note_on_c, 0, 67, 100
2, 178440, Note_on_c, 0, 70, 100
2, 178560, Note_on_c, 0, 70, 0
2, 178560, Note_on_c, 0, 67, 0
2, 178560, Note_on_c, 0, 68, 100
2, 178560, Note_on_c, 0, 65, 100
2, 178680, Note_on_c, 0, 65, 0
2, 178680, Note_on_c, 0, 68, 0
2, 179010, Note_on_c, 0, 74, 100
2, 179010, Note_on_c, 0, 68, 100
2, 179040, Note_on_c, 0, 68, 0
2, 179040, Note_on_c, 0, 74, 0
2, 179040, Note_on_c, 0, 67, 100
2, 179040, Note_on_c, 0, 75, 100
2, 179160, Note_on_c, 0, 75, 0
2, 179160, Note_on_c, 0, 67, 0
2, 179160, Note_on_c, 0, 70, 100
2, 179160, Note_on_c, 0, 74, 100
2, 179280, Note_on_c, 0, 74, 0
2, 179280, Note_on_c, 0, 70, 0
2, 179280, Note_on_c, 0, 68, 100
2, 179280, Note_on_c, 0, 72, 100
2, 179400, Note_on_c, 0, 72, 0
2, 179400, Note_on_c, 0, 68, 0
2, 179400, Note_on_c, 0, 67, 100
2, 179400, Note_on_c, 0, 70, 100
2, 179520, Note_on_c, 0, 70, 0
2, 179520, Note_on_c, 0, 67, 0
2, 179520, Note_on_c, 0, 65, 100
2, 179520, Note_on_c, 0, 68, 100
2, 179640, Note_on_c, 0, 68, 0
2, 179640, Note_on_c, 0, 65, 0
2, 180120, Note_on_c, 0, 75, 100
2, 180120, Note_on_c, 0, 79, 100
2, 180180, Note_on_c, 0, 79, 0
2, 180180, Note_on_c, 0, 75, 0
2, 180180, Note_on_c, 0, 79, 100
2, 180180, Note_on_c, 0, 82, 100
2, 180240, Note_on_c, 0, 82, 0
2, 180240, Note_on_c, 0, 79, 0
2, 180240, Note_on_c, 0, 75, 100
2, 180240, Note_on_c, 0, 79, 100
2, 180300, Note_on_c, 0, 79, 0
2, 180300, Note_on_c, 0, 75, 0
2, 180300, Note_on_c, 0, 79, 100
2, 180300, Note_on_c, 0, 82, 100
2, 180360, Note_on_c, 0, 82, 0
2, 180360, Note_on_c, 0, 79, 0
2, 180360, Note_on_c, 0, 75, 100
2, 180360, Note_on_c, 0, 79, 100
2, 180420, Note_on_c, 0, 79, 0
2, 180420, Note_on_c, 0, 75, 0
2, 180420, Note_on_c, 0, 79, 100
2, 180420, Note_on_c, 0, 82, 100
2, 180480, Note_on_c, 0, 82, 0
2, 180480, Note_on_c, 0, 79, 0
2, 180480, Note_on_c, 0, 79, 100
2, 180480, Note_on_c, 0, 75, 100
2, 180600, Note_on_c, 0, 75, 0
2, 180600, Note_on_c, 0, 79, 0
2, 180600, Note_on_c, 0, 67, 100
2, 180600, Note_on_c, 0, 75, 100
2, 180660, Note_on_c, 0, 75, 0
2, 180660, Note_on_c, 0, 67, 0
2, 180660, Note_on_c, 0, 70, 100
2, 180660, Note_on_c, 0, 79, 100
2, 180720, Note_on_c, 0, 79, 0
2, 180720, Note_on_c, 0, 70, 0
2, 180720, Note_on_c, 0, 67, 100
2, 180720, Note_on_c, 0, 75, 100
2, 180780, Note_on_c, 0, 75, 0
2, 180780, Note_on_c, 0, 67, 0
2, 180780, Note_on_c, 0, 70, 100
2, 180780, Note_on_c, 0, 79, 100
2, 180840, Note_on_c, 0, 79, 0
2, 180840, Note_on_c, 0, 70, 0
2, 180840, Note_on_c, 0, 67, 100
2, 180840, Note_on_c, 0, 75, 100
2, 180900, Note_on_c, 0, 75, 0
2, 180900, Note_on_c, 0, 67, 0
2, 180900, Note_on_c, 0, 70, 100
2, 180900, Note_on_c, 0, 79, 100
2, 180960, Note_on_c, 0, 79, 0
2, 180960, Note_on_c, 0, 70, 0
2, 180960, Note_on_c, 0, 67, 100
2, 180960, Note_on_c, 0, 75, 100
2, 181560, Note_on_c, 0, 75, 0
2, 181560, Note_on_c, 0, 67, 0
2, 181560, Note_on_c, 0, 67, 100
2, 181560, Note_on_c, 0, 75, 100
2, 181680, Note_on_c, 0, 75, 0
2, 181680, Note_on_c, 0, 67, 0
2, 181680, Note_on_c, 0, 67, 100
2, 181680, Note_on_c, 0, 75, 100
2, 181800, Note_on_c, 0, 75, 0
2, 181800, Note_on_c, 0, 67, 0
2, 181800, Note_on_c, 0, 67, 100
2, 181800, Note_on_c, 0, 75, 100
2, 181920, Note_on_c, 0, 75, 0
2, 181920, Note_on_c, 0, 67, 0
2, 181920, Note_on_c, 0, 67, 100
2, 181920, Note_on_c, 0, 75, 100
2, 182040, Note_on_c, 0, 75, 0
2, 182040, Note_on_c, 0, 67, 0
2, 182040, Note_on_c, 0, 75, 100
2, 182040, Note_on_c, 0, 79, 100
2, 182100, Note_on_c, 0, 79, 0
2, 182100, Note_on_c, 0, 75, 0
2, 182100, Note_on_c, 0, 79, 100
2, 182100, Note_on_c, 0, 82, 100
2, 182160, Note_on_c, 0, 82, 0
2, 182160, Note_on_c, 0, 79, 0
2, 182160, Note_on_c, 0, 75, 100
2, 182160, Note_on_c, 0, 79, 100
2, 182220, Note_on_c, 0, 79, 0
2, 182220, Note_on_c, 0, 75, 0
2, 182220, Note_on_c, 0, 79, 100
2, 182220, Note_on_c, 0, 82, 100
2, 182280, Note_on_c, 0, 82, 0
2, 182280, Note_on_c, 0, 79, 0
2, 182280, Note_on_c, 0, 75, 100
2, 182280, Note_on_c, 0, 79, 100
2, 182340, Note_on_c, 0, 79, 0
2, 182340, Note_on_c, 0, 75, 0
2, 182340, Note_on_c, 0, 79, 100
2, 182340, Note_on_c, 0, 82, 100
2, 182400, Note_on_c, 0, 82, 0
2, 182400, Note_on_c, 0, 79, 0
2, 182400, Note_on_c, 0, 75, 100
2, 182400, Note_on_c, 0, 79, 100
2, 182520, Note_on_c, 0, 79, 0
2, 182520, Note_on_c, 0, 75, 0
2, 182610, Note_on_c, 0, 63, 100
2, 182640, Note_on_c, 0, 63, 0
2, 182640, Note_on_c, 0, 63, 100
2, 182760, Note_on_c, 0, 63, 0
2, 182850, Note_on_c, 0, 63, 100
2, 182880, Note_on_c, 0, 63, 0
2, 182880, Note_on_c, 0, 63, 100
2, 183120, Note_on_c, 0, 63, 0
2, 183120, End_track
3, 0, Start_track
3, 0, MIDI_port, 0
3, 0, Title_t, "Corni in Es"
3, 0, Program_c, 1, 60
3, 0, Note_on_c, 1, 63, 100
3, 0, Note_on_c, 1, 51, 100
3, 480, Note_on_c, 1, 51, 0
3, 480, Note_on_c, 1, 63, 0
3, 480, Note_on_c, 1, 51, 100
3, 480, Note_on_c, 1, 63, 100
3, 720, Note_on_c, 1, 63, 0
3, 720, Note_on_c, 1, 51, 0
3, 720, Note_on_c, 1, 51, 100
3, 720, Note_on_c, 1, 63, 100
3, 900, Note_on_c, 1, 63, 0
3, 900, Note_on_c, 1, 51, 0
3, 900, Note_on_c, 1, 51, 100
3, 900, Note_on_c, 1, 63, 100
3, 960, Note_on_c, 1, 63, 0
3, 960, Note_on_c, 1, 51, 0
3, 960, Note_on_c, 1, 51, 100
3, 960, Note_on_c, 1, 63, 100
3, 1920, Note_on_c, 1, 63, 0
3, 1920, Note_on_c, 1, 51, 0
3, 1920, Note_on_c, 1, 46, 100
3, 1920, Note_on_c, 1, 58, 100
3, 2880, Note_on_c, 1, 58, 0
3, 2880, Note_on_c, 1, 46, 0
3, 2880, Note_on_c, 1, 51, 100
3, 2880, Note_on_c, 1, 63, 100
3, 3840, Note_on_c, 1, 63, 0
3, 3840, Note_on_c, 1, 51, 0
3, 3840, Note_on_c, 1, 46, 100
3, 3840, Note_on_c, 1, 58, 100
3, 4920, Note_on_c, 1, 58, 0
3, 4920, Note_on_c, 1, 46, 0
3, 7200, Note_on_c, 1, 51, 100
3, 7200, Note_on_c, 1, 63, 100
3, 8160, Note_on_c, 1, 63, 0
3, 8160, Note_on_c, 1, 51, 0
3, 11040, Note_on_c, 1, 51, 100
3, 11040, Note_on_c, 1, 63, 100
3, 12000, Note_on_c, 1, 63, 0
3, 12000, Note_on_c, 1, 51, 0
3, 12480, Note_on_c, 1, 51, 100
3, 12600, Note_on_c, 1, 51, 0
3, 12600, Note_on_c, 1, 51, 100
3, 12690, Note_on_c, 1, 51, 0
3, 12690, Note_on_c, 1, 51, 100
3, 12720, Note_on_c, 1, 51, 0
3, 12720, Note_on_c, 1, 51, 100
3, 12840, Note_on_c, 1, 51, 0
3, 12840, Note_on_c, 1, 51, 100
3, 12960, Note_on_c, 1, 51, 0
3, 12960, Note_on_c, 1, 58, 100
3, 13080, Note_on_c, 1, 58, 0
3, 13080, Note_on_c, 1, 58, 100
3, 13170, Note_on_c, 1, 58, 0
3, 13170, Note_on_c, 1, 58, 100
3, 13200, Note_on_c, 1, 58, 0
3, 13200, Note_on_c, 1, 58, 100
3, 13320, Note_on_c, 1, 58, 0
3, 13320, Note_on_c, 1, 58, 100
3, 13440, Note_on_c, 1, 58, 0
3, 13440, Note_on_c, 1, 55, 100
3, 13440, Note_on_c, 1, 63, 100
3, 13560, Note_on_c, 1, 63, 0
3, 13560, Note_on_c, 1, 55, 0
3, 13560, Note_on_c, 1, 55, 100
3, 13560, Note_on_c, 1, 63, 100
3, 13650, Note_on_c, 1, 63, 0
3, 13650, Note_on_c, 1, 55, 0
3, 13650, Note_on_c, 1, 55, 100
3, 13650, Note_on_c, 1, 63, 100
3, 13680, Note_on_c, 1, 63, 0
3, 13680, Note_on_c, 1, 55, 0
3, 13680, Note_on_c, 1, 55, 100
3, 13680, Note_on_c, 1, 63, 100
3, 13800, Note_on_c, 1, 63, 0
3, 13800, Note_on_c, 1, 55, 0
3, 13800, Note_on_c, 1, 55, 100
3, 13800, Note_on_c, 1, 63, 100
3, 13920, Note_on_c, 1, 63, 0
3, 13920, Note_on_c, 1, 55, 0
3, 13920, Note_on_c, 1, 58, 100
3, 13920, Note_on_c, 1, 46, 100
3, 14040, Note_on_c, 1, 46, 0
3, 14040, Note_on_c, 1, 58, 0
3, 14100, Note_on_c, 1, 46, 100
3, 14100, Note_on_c, 1, 58, 100
3, 14160, Note_on_c, 1, 58, 0
3, 14160, Note_on_c, 1, 46, 0
3, 14160, Note_on_c, 1, 46, 100
3, 14160, Note_on_c, 1, 58, 100
3, 14280, Note_on_c, 1, 58, 0
3, 14280, Note_on_c, 1, 46, 0
3, 14280, Note_on_c, 1, 46, 100
3, 14280, Note_on_c, 1, 58, 100
3, 14400, Note_on_c, 1, 58, 0
3, 14400, Note_on_c, 1, 46, 0
3, 14400, Note_on_c, 1, 51, 100
3, 14400, Note_on_c, 1, 63, 100
3, 14520, Note_on_c, 1, 63, 0
3, 14520, Note_on_c, 1, 51, 0
3, 14580, Note_on_c, 1, 51, 100
3, 14640, Note_on_c, 1, 51, 0
3, 14640, Note_on_c, 1, 55, 100
3, 14700, Note_on_c, 1, 55, 0
3, 14700, Note_on_c, 1, 51, 100
3, 14760, Note_on_c, 1, 51, 0
3, 14760, Note_on_c, 1, 55, 100
3, 14820, Note_on_c, 1, 55, 0
3, 14820, Note_on_c, 1, 51, 100
3, 14880, Note_on_c, 1, 51, 0
3, 14880, Note_on_c, 1, 58, 100
3, 15000, Note_on_c, 1, 58, 0
3, 15060, Note_on_c, 1, 58, 100
3, 15120, Note_on_c, 1, 58, 0
3, 15120, Note_on_c, 1, 58, 100
3, 15180, Note_on_c, 1, 58, 0
3, 15180, Note_on_c, 1, 58, 100
3, 15240, Note_on_c, 1, 58, 0
3, 15240, Note_on_c, 1, 58, 100
3, 15300, Note_on_c, 1, 58, 0
3, 15300, Note_on_c, 1, 58, 100
3, 15360, Note_on_c, 1, 58, 0
3, 15360, Note_on_c, 1, 63, 100
3, 15420, Note_on_c, 1, 63, 0
3, 15420, Note_on_c, 1, 58, 100
3, 15480, Note_on_c, 1, 58, 0
3, 15480, Note_on_c, 1, 58, 100
3, 15540, Note_on_c, 1, 58, 0
3, 15540, Note_on_c, 1, 58, 100
3, 15600, Note_on_c, 1, 58, 0
3, 15600, Note_on_c, 1, 55, 100
3, 15660, Note_on_c, 1, 55, 0
3, 15660, Note_on_c, 1, 51, 100
3, 15720, Note_on_c, 1, 51, 0
3, 15720, Note_on_c, 1, 51, 100
3, 15780, Note_on_c, 1, 51, 0
3, 15780, Note_on_c, 1, 51, 100
3, 15840, Note_on_c, 1, 51, 0
3, 15840, Note_on_c, 1, 58, 100
3, 15900, Note_on_c, 1, 58, 0
3, 15900, Note_on_c, 1, 58, 100
3, 15960, Note_on_c, 1, 58, 0
3, 15960, Note_on_c, 1, 55, 100
3, 16020, Note_on_c, 1, 55, 0
3, 16020, Note_on_c, 1, 51, 100
3, 16080, Note_on_c, 1, 51, 0
3, 16080, Note_on_c, 1, 58, 100
3, 16140, Note_on_c, 1, 58, 0
3, 16140, Note_on_c, 1, 58, 100
3, 16200, Note_on_c, 1, 58, 0
3, 16200, Note_on_c, 1, 55, 100
3, 16260, Note_on_c, 1, 55, 0
3, 16260, Note_on_c, 1, 51, 100
3, 16320, Note_on_c, 1, 51, 0
3, 16320, Note_on_c, 1, 58, 100
3, 16380, Note_on_c, 1, 58, 0
3, 17010, Note_on_c, 1, 58, 100
3, 17010, Note_on_c, 1, 65, 100
3, 17040, Note_on_c, 1, 65, 0
3, 17040, Note_on_c, 1, 58, 0
3, 17040, Note_on_c, 1, 58, 100
3, 17040, Note_on_c, 1, 65, 100
3, 17160, Note_on_c, 1, 65, 0
3, 17160, Note_on_c, 1, 58, 0
3, 17160, Note_on_c, 1, 58, 100
3, 17160, Note_on_c, 1, 65, 100
3, 17280, Note_on_c, 1, 65, 0
3, 17280, Note_on_c, 1, 58, 0
3, 17280, Note_on_c, 1, 58, 100
3, 17280, Note_on_c, 1, 65, 100
3, 17400, Note_on_c, 1, 65, 0
3, 17400, Note_on_c, 1, 58, 0
3, 17760, Note_on_c, 1, 67, 100
3, 17760, Note_on_c, 1, 63, 100
3, 17940, Note_on_c, 1, 63, 0
3, 17940, Note_on_c, 1, 67, 0
3, 17940, Note_on_c, 1, 65, 100
3, 17940, Note_on_c, 1, 68, 100
3, 18000, Note_on_c, 1, 68, 0
3, 18000, Note_on_c, 1, 65, 0
3, 18000, Note_on_c, 1, 67, 100
3, 18000, Note_on_c, 1, 70, 100
3, 18120, Note_on_c, 1, 70, 0
3, 18120, Note_on_c, 1, 67, 0
3, 18120, Note_on_c, 1, 67, 100
3, 18120, Note_on_c, 1, 70, 100
3, 18240, Note_on_c, 1, 70, 0
3, 18240, Note_on_c, 1, 67, 0
3, 18240, Note_on_c, 1, 67, 100
3, 18240, Note_on_c, 1, 70, 100
3, 18360, Note_on_c, 1, 70, 0
3, 18360, Note_on_c, 1, 67, 0
3, 18360, Note_on_c, 1, 63, 100
3, 18360, Note_on_c, 1, 67, 100
3, 18480, Note_on_c, 1, 67, 0
3, 18480, Note_on_c, 1, 63, 0
3, 18480, Note_on_c, 1, 58, 100
3, 18480, Note_on_c, 1, 63, 100
3, 18600, Note_on_c, 1, 63, 0
3, 18600, Note_on_c, 1, 58, 0
3, 19680, Note_on_c, 1, 63, 100
3, 19680, Note_on_c, 1, 67, 100
3, 19860, Note_on_c, 1, 67, 0
3, 19860, Note_on_c, 1, 63, 0
3, 19860, Note_on_c, 1, 65, 100
3, 19860, Note_on_c, 1, 68, 100
3, 19920, Note_on_c, 1, 68, 0
3, 19920, Note_on_c, 1, 65, 0
3, 19920, Note_on_c, 1, 67, 100
3, 19920, Note_on_c, 1, 70, 100
3, 20040, Note_on_c, 1, 70, 0
3, 20040, Note_on_c, 1, 67, 0
3, 20040, Note_on_c, 1, 67, 100
3, 20040, Note_on_c, 1, 70, 100
3, 20160, Note_on_c, 1, 70, 0
3, 20160, Note_on_c, 1, 67, 0
3, 20160, Note_on_c, 1, 67, 100
3, 20160, Note_on_c, 1, 70, 100
3, 20280, Note_on_c, 1, 70, 0
3, 20280, Note_on_c, 1, 67, 0
3, 20280, Note_on_c, 1, 63, 100
3, 20280, Note_on_c, 1, 67, 100
3, 20400, Note_on_c, 1, 67, 0
3, 20400, Note_on_c, 1, 63, 0
3, 20400, Note_on_c, 1, 58, 100
3, 20400, Note_on_c, 1, 63, 100
3, 20520, Note_on_c, 1, 63, 0
3, 20520, Note_on_c, 1, 58, 0
3, 23520, Note_on_c, 1, 51, 100
3, 23520, Note_on_c, 1, 63, 100
3, 26880, Note_on_c, 1, 63, 0
3, 26880, Note_on_c, 1, 51, 0
3, 26880, Note_on_c, 1, 51, 100
3, 26880, Note_on_c, 1, 63, 100
3, 27000, Note_on_c, 1, 63, 0
3, 27000, Note_on_c, 1, 51, 0
3, 27000, Note_on_c, 1, 51, 100
3, 27000, Note_on_c, 1, 63, 100
3, 27090, Note_on_c, 1, 63, 0
3, 27090, Note_on_c, 1, 51, 0
3, 27090, Note_on_c, 1, 51, 100
3, 27090, Note_on_c, 1, 63, 100
3, 27120, Note_on_c, 1, 63, 0
3, 27120, Note_on_c, 1, 51, 0
3, 27120, Note_on_c, 1, 51, 100
3, 27120, Note_on_c, 1, 63, 100
3, 27240, Note_on_c, 1, 63, 0
3, 27240, Note_on_c, 1, 51, 0
3, 27240, Note_on_c, 1, 51, 100
3, 27240, Note_on_c, 1, 63, 100
3, 27360, Note_on_c, 1, 63, 0
3, 27360, Note_on_c, 1, 51, 0
3, 27360, Note_on_c, 1, 51, 100
3, 27360, Note_on_c, 1, 63, 100
3, 27480, Note_on_c, 1, 63, 0
3, 27480, Note_on_c, 1, 51, 0
3, 27840, Note_on_c, 1, 51, 100
3, 27840, Note_on_c, 1, 63, 100
3, 27960, Note_on_c, 1, 63, 0
3, 27960, Note_on_c, 1, 51, 0
3, 27960, Note_on_c, 1, 51, 100
3, 27960, Note_on_c, 1, 63, 100
3, 28050, Note_on_c, 1, 63, 0
3, 28050, Note_on_c, 1, 51, 0
3, 28050, Note_on_c, 1, 51, 100
3, 28050, Note_on_c, 1, 63, 100
3, 28080, Note_on_c, 1, 63, 0
3, 28080, Note_on_c, 1, 51, 0
3, 28080, Note_on_c, 1, 51, 100
3, 28080, Note_on_c, 1, 63, 100
3, 28200, Note_on_c, 1, 63, 0
3, 28200, Note_on_c, 1, 51, 0
3, 28200, Note_on_c, 1, 51, 100
3, 28200, Note_on_c, 1, 63, 100
3, 28320, Note_on_c, 1, 63, 0
3, 28320, Note_on_c, 1, 51, 0
3, 28320, Note_on_c, 1, 63, 100
3, 28320, Note_on_c, 1, 51, 100
3, 28920, Note_on_c, 1, 51, 0
3, 28920, Note_on_c, 1, 63, 0
3, 28920, Note_on_c, 1, 51, 100
3, 28920, Note_on_c, 1, 63, 100
3, 29010, Note_on_c, 1, 63, 0
3, 29010, Note_on_c, 1, 51, 0
3, 29010, Note_on_c, 1, 51, 100
3, 29010, Note_on_c, 1, 63, 100
3, 29040, Note_on_c, 1, 63, 0
3, 29040, Note_on_c, 1, 51, 0
3, 29040, Note_on_c, 1, 51, 100
3, 29040, Note_on_c, 1, 63, 100
3, 29160, Note_on_c, 1, 63, 0
3, 29160, Note_on_c, 1, 51, 0
3, 29160, Note_on_c, 1, 51, 100
3, 29160, Note_on_c, 1, 63, 100
3, 29280, Note_on_c, 1, 63, 0
3, 29280, Note_on_c, 1, 51, 0
3, 29280, Note_on_c, 1, 51, 100
3, 29280, Note_on_c, 1, 63, 100
3, 30240, Note_on_c, 1, 63, 0
3, 30240, Note_on_c, 1, 51, 0
3, 30240, Note_on_c, 1, 46, 100
3, 30240, Note_on_c, 1, 58, 100
3, 31200, Note_on_c, 1, 58, 0
3, 31200, Note_on_c, 1, 46, 0
3, 31200, Note_on_c, 1, 51, 100
3, 31200, Note_on_c, 1, 63, 100
3, 31740, Note_on_c, 1, 63, 0
3, 31740, Note_on_c, 1, 51, 0
3, 31740, Note_on_c, 1, 51, 100
3, 31740, Note_on_c, 1, 63, 100
3, 31800, Note_on_c, 1, 63, 0
3, 31800, Note_on_c, 1, 51, 0
3, 31800, Note_on_c, 1, 51, 100
3, 31800, Note_on_c, 1, 63, 100
3, 31860, Note_on_c, 1, 63, 0
3, 31860, Note_on_c, 1, 51, 0
3, 31860, Note_on_c, 1, 51, 100
3, 31860, Note_on_c, 1, 63, 100
3, 31920, Note_on_c, 1, 63, 0
3, 31920, Note_on_c, 1, 51, 0
3, 31920, Note_on_c, 1, 51, 100
3, 31920, Note_on_c, 1, 63, 100
3, 31980, Note_on_c, 1, 63, 0
3, 31980, Note_on_c, 1, 51, 0
3, 31980, Note_on_c, 1, 51, 100
3, 31980, Note_on_c, 1, 63, 100
3, 32040, Note_on_c, 1, 63, 0
3, 32040, Note_on_c, 1, 51, 0
3, 32040, Note_on_c, 1, 51, 100
3, 32040, Note_on_c, 1, 63, 100
3, 32100, Note_on_c, 1, 63, 0
3, 32100, Note_on_c, 1, 51, 0
3, 32100, Note_on_c, 1, 51, 100
3, 32100, Note_on_c, 1, 63, 100
3, 32160, Note_on_c, 1, 63, 0
3, 32160, Note_on_c, 1, 51, 0
3, 32160, Note_on_c, 1, 51, 100
3, 32160, Note_on_c, 1, 63, 100
3, 32700, Note_on_c, 1, 63, 0
3, 32700, Note_on_c, 1, 51, 0
3, 32700, Note_on_c, 1, 51, 100
3, 32700, Note_on_c, 1, 63, 100
3, 32760, Note_on_c, 1, 63, 0
3, 32760, Note_on_c, 1, 51, 0
3, 32760, Note_on_c, 1, 51, 100
3, 32760, Note_on_c, 1, 63, 100
3, 32820, Note_on_c, 1, 63, 0
3, 32820, Note_on_c, 1, 51, 0
3, 32820, Note_on_c, 1, 51, 100
3, 32820, Note_on_c, 1, 63, 100
3, 32880, Note_on_c, 1, 63, 0
3, 32880, Note_on_c, 1, 51, 0
3, 32880, Note_on_c, 1, 51, 100
3, 32880, Note_on_c, 1, 63, 100
3, 32940, Note_on_c, 1, 63, 0
3, 32940, Note_on_c, 1, 51, 0
3, 32940, Note_on_c, 1, 51, 100
3, 32940, Note_on_c, 1, 63, 100
3, 33000, Note_on_c, 1, 63, 0
3, 33000, Note_on_c, 1, 51, 0
3, 33000, Note_on_c, 1, 51, 100
3, 33000, Note_on_c, 1, 63, 100
3, 33060, Note_on_c, 1, 63, 0
3, 33060, Note_on_c, 1, 51, 0
3, 33060, Note_on_c, 1, 51, 100
3, 33060, Note_on_c, 1, 63, 100
3, 33120, Note_on_c, 1, 63, 0
3, 33120, Note_on_c, 1, 51, 0
3, 33120, Note_on_c, 1, 51, 100
3, 33120, Note_on_c, 1, 63, 100
3, 35160, Note_on_c, 1, 63, 0
3, 35160, Note_on_c, 1, 51, 0
3, 36960, Note_on_c, 1, 51, 100
3, 36960, Note_on_c, 1, 63, 100
3, 37200, Note_on_c, 1, 63, 0
3, 37200, Note_on_c, 1, 51, 0
3, 37200, Note_on_c, 1, 51, 100
3, 37200, Note_on_c, 1, 63, 100
3, 37380, Note_on_c, 1, 63, 0
3, 37380, Note_on_c, 1, 51, 0
3, 37380, Note_on_c, 1, 51, 100
3, 37380, Note_on_c, 1, 63, 100
3, 37440, Note_on_c, 1, 63, 0
3, 37440, Note_on_c, 1, 51, 0
3, 37440, Note_on_c, 1, 58, 100
3, 37440, Note_on_c, 1, 46, 100
3, 37920, Note_on_c, 1, 46, 0
3, 37920, Note_on_c, 1, 58, 0
3, 38880, Note_on_c, 1, 51, 100
3, 38880, Note_on_c, 1, 63, 100
3, 39120, Note_on_c, 1, 63, 0
3, 39120, Note_on_c, 1, 51, 0
3, 39120, Note_on_c, 1, 51, 100
3, 39120, Note_on_c, 1, 63, 100
3, 39300, Note_on_c, 1, 63, 0
3, 39300, Note_on_c, 1, 51, 0
3, 39300, Note_on_c, 1, 51, 100
3, 39300, Note_on_c, 1, 63, 100
3, 39360, Note_on_c, 1, 63, 0
3, 39360, Note_on_c, 1, 51, 0
3, 39360, Note_on_c, 1, 46, 100
3, 39360, Note_on_c, 1, 58, 100
3, 39840, Note_on_c, 1, 58, 0
3, 39840, Note_on_c, 1, 46, 0
3, 41880, Note_on_c, 1, 51, 100
3, 41880, Note_on_c, 1, 63, 100
3, 42000, Note_on_c, 1, 63, 0
3, 42000, Note_on_c, 1, 51, 0
3, 42000, Note_on_c, 1, 55, 100
3, 42000, Note_on_c, 1, 67, 100
3, 42120, Note_on_c, 1, 67, 0
3, 42120, Note_on_c, 1, 55, 0
3, 42120, Note_on_c, 1, 63, 100
3, 42120, Note_on_c, 1, 51, 100
3, 42240, Note_on_c, 1, 51, 0
3, 42240, Note_on_c, 1, 63, 0
3, 42240, Note_on_c, 1, 58, 100
3, 42240, Note_on_c, 1, 70, 100
3, 42480, Note_on_c, 1, 70, 0
3, 42480, Note_on_c, 1, 58, 0
3, 42480, Note_on_c, 1, 58, 100
3, 42480, Note_on_c, 1, 46, 100
3, 42720, Note_on_c, 1, 46, 0
3, 42720, Note_on_c, 1, 58, 0
3, 42720, Note_on_c, 1, 63, 100
3, 42720, Note_on_c, 1, 51, 100
3, 42840, Note_on_c, 1, 51, 0
3, 42840, Note_on_c, 1, 63, 0
3, 42840, Note_on_c, 1, 63, 100
3, 42900, Note_on_c, 1, 63, 0
3, 42900, Note_on_c, 1, 58, 100
3, 42960, Note_on_c, 1, 58, 0
3, 42960, Note_on_c, 1, 63, 100
3, 43020, Note_on_c, 1, 63, 0
3, 43020, Note_on_c, 1, 58, 100
3, 43080, Note_on_c, 1, 58, 0
3, 43080, Note_on_c, 1, 63, 100
3, 43140, Note_on_c, 1, 63, 0
3, 43140, Note_on_c, 1, 58, 100
3, 43200, Note_on_c, 1, 58, 0
3, 43200, Note_on_c, 1, 63, 100
3, 43320, Note_on_c, 1, 63, 0
3, 43320, Note_on_c, 1, 63, 100
3, 43320, Note_on_c, 1, 67, 100
3, 43380, Note_on_c, 1, 67, 0
3, 43380, Note_on_c, 1, 63, 0
3, 43380, Note_on_c, 1, 67, 100
3, 43380, Note_on_c, 1, 70, 100
3, 43440, Note_on_c, 1, 70, 0
3, 43440, Note_on_c, 1, 67, 0
3, 43440, Note_on_c, 1, 63, 100
3, 43440, Note_on_c, 1, 67, 100
3, 43500, Note_on_c, 1, 67, 0
3, 43500, Note_on_c, 1, 63, 0
3, 43500, Note_on_c, 1, 67, 100
3, 43500, Note_on_c, 1, 70, 100
3, 43560, Note_on_c, 1, 70, 0
3, 43560, Note_on_c, 1, 67, 0
3, 43560, Note_on_c, 1, 63, 100
3, 43560, Note_on_c, 1, 67, 100
3, 43620, Note_on_c, 1, 67, 0
3, 43620, Note_on_c, 1, 63, 0
3, 43620, Note_on_c, 1, 67, 100
3, 43620, Note_on_c, 1, 70, 100
3, 43680, Note_on_c, 1, 70, 0
3, 43680, Note_on_c, 1, 67, 0
3, 43680, Note_on_c, 1, 63, 100
3, 43680, Note_on_c, 1, 67, 100
3, 43800, Note_on_c, 1, 67, 0
3, 43800, Note_on_c, 1, 63, 0
3, 44640, Note_on_c, 1, 55, 100
3, 46200, Note_on_c, 1, 55, 0
3, 50040, Note_on_c, 1, 65, 100
3, 50100, Note_on_c, 1, 65, 0
3, 50100, Note_on_c, 1, 65, 100
3, 50160, Note_on_c, 1, 65, 0
3, 50160, Note_on_c, 1, 65, 100
3, 50220, Note_on_c, 1, 65, 0
3, 50220, Note_on_c, 1, 65, 100
3, 50280, Note_on_c, 1, 65, 0
3, 50280, Note_on_c, 1, 65, 100
3, 50340, Note_on_c, 1, 65, 0
3, 50340, Note_on_c, 1, 65, 100
3, 50400, Note_on_c, 1, 65, 0
3, 50400, Note_on_c, 1, 65, 100
3, 53760, Note_on_c, 1, 65, 0
3, 53880, Note_on_c, 1, 46, 100
3, 53880, Note_on_c, 1, 58, 100
3, 53940, Note_on_c, 1, 58, 0
3, 53940, Note_on_c, 1, 46, 0
3, 53940, Note_on_c, 1, 46, 100
3, 53940, Note_on_c, 1, 58, 100
3, 54000, Note_on_c, 1, 58, 0
3, 54000, Note_on_c, 1, 46, 0
3, 54000, Note_on_c, 1, 46, 100
3, 54000, Note_on_c, 1, 58, 100
3, 54060, Note_on_c, 1, 58, 0
3, 54060, Note_on_c, 1, 46, 0
3, 54060, Note_on_c, 1, 46, 100
3, 54060, Note_on_c, 1, 58, 100
3, 54120, Note_on_c, 1, 58, 0
3, 54120, Note_on_c, 1, 46, 0
3, 54120, Note_on_c, 1, 46, 100
3, 54120, Note_on_c, 1, 58, 100
3, 54180, Note_on_c, 1, 58, 0
3, 54180, Note_on_c, 1, 46, 0
3, 54180, Note_on_c, 1, 46, 100
3, 54180, Note_on_c, 1, 58, 100
3, 54240, Note_on_c, 1, 58, 0
3, 54240, Note_on_c, 1, 46, 0
3, 54240, Note_on_c, 1, 58, 100
3, 54240, Note_on_c, 1, 46, 100
3, 57720, Note_on_c, 1, 46, 0
3, 57720, Note_on_c, 1, 58, 0
3, 59640, Note_on_c, 1, 58, 100
3, 59640, Note_on_c, 1, 65, 100
3, 59760, Note_on_c, 1, 65, 0
3, 59760, Note_on_c, 1, 58, 0
3, 59760, Note_on_c, 1, 58, 100
3, 59760, Note_on_c, 1, 65, 100
3, 59880, Note_on_c, 1, 65, 0
3, 59880, Note_on_c, 1, 58, 0
3, 59880, Note_on_c, 1, 58, 100
3, 59880, Note_on_c, 1, 65, 100
3, 60000, Note_on_c, 1, 65, 0
3, 60000, Note_on_c, 1, 58, 0
3, 60000, Note_on_c, 1, 58, 100
3, 60000, Note_on_c, 1, 65, 100
3, 60120, Note_on_c, 1, 65, 0
3, 60120, Note_on_c, 1, 58, 0
3, 63360, Note_on_c, 1, 65, 100
3, 64320, Note_on_c, 1, 65, 0
3, 65760, Note_on_c, 1, 58, 100
3, 65880, Note_on_c, 1, 58, 0
3, 66000, Note_on_c, 1, 65, 100
3, 66120, Note_on_c, 1, 65, 0
3, 66240, Note_on_c, 1, 70, 100
3, 66360, Note_on_c, 1, 70, 0
3, 66480, Note_on_c, 1, 65, 100
3, 66600, Note_on_c, 1, 65, 0
3, 66720, Note_on_c, 1, 58, 100
3, 67200, Note_on_c, 1, 51, 100
3, 67320, Note_on_c, 1, 51, 0
3, 67320, Note_on_c, 1, 58, 0
3, 71040, Note_on_c, 1, 58, 100
3, 71040, Note_on_c, 1, 65, 100
3, 71280, Note_on_c, 1, 65, 0
3, 71280, Note_on_c, 1, 58, 0
3, 71280, Note_on_c, 1, 58, 100
3, 71280, Note_on_c, 1, 65, 100
3, 71400, Note_on_c, 1, 65, 0
3, 71400, Note_on_c, 1, 58, 0
3, 71400, Note_on_c, 1, 58, 100
3, 71400, Note_on_c, 1, 65, 100
3, 71520, Note_on_c, 1, 65, 0
3, 71520, Note_on_c, 1, 58, 0
3, 71520, Note_on_c, 1, 58, 100
3, 71520, Note_on_c, 1, 65, 100
3, 71760, Note_on_c, 1, 65, 0
3, 71760, Note_on_c, 1, 58, 0
3, 71760, Note_on_c, 1, 58, 100
3, 71760, Note_on_c, 1, 65, 100
3, 71880, Note_on_c, 1, 65, 0
3, 71880, Note_on_c, 1, 58, 0
3, 71880, Note_on_c, 1, 58, 100
3, 71880, Note_on_c, 1, 65, 100
3, 72000, Note_on_c, 1, 65, 0
3, 72000, Note_on_c, 1, 58, 0
3, 72000, Note_on_c, 1, 58, 100
3, 72000, Note_on_c, 1, 65, 100
3, 72240, Note_on_c, 1, 65, 0
3, 72240, Note_on_c, 1, 58, 0
3, 72240, Note_on_c, 1, 58, 100
3, 72240, Note_on_c, 1, 65, 100
3, 72360, Note_on_c, 1, 65, 0
3, 72360, Note_on_c, 1, 58, 0
3, 72360, Note_on_c, 1, 58, 100
3, 72360, Note_on_c, 1, 65, 100
3, 72480, Note_on_c, 1, 65, 0
3, 72480, Note_on_c, 1, 58, 0
3, 72480, Note_on_c, 1, 58, 100
3, 72480, Note_on_c, 1, 65, 100
3, 73020, Note_on_c, 1, 65, 0
3, 73020, Note_on_c, 1, 58, 0
3, 73080, Note_on_c, 1, 58, 100
3, 73080, Note_on_c, 1, 65, 100
3, 73140, Note_on_c, 1, 65, 0
3, 73140, Note_on_c, 1, 58, 0
3, 73200, Note_on_c, 1, 58, 100
3, 73200, Note_on_c, 1, 65, 100
3, 73260, Note_on_c, 1, 65, 0
3, 73260, Note_on_c, 1, 58, 0
3, 73320, Note_on_c, 1, 58, 100
3, 73320, Note_on_c, 1, 65, 100
3, 73380, Note_on_c, 1, 65, 0
3, 73380, Note_on_c, 1, 58, 0
3, 73440, Note_on_c, 1, 63, 100
3, 73440, Note_on_c, 1, 67, 100
3, 73560, Note_on_c, 1, 67, 0
3, 73560, Note_on_c, 1, 63, 0
3, 74400, Note_on_c, 1, 65, 100
3, 74400, Note_on_c, 1, 65, 100
3, 75360, Note_on_c, 1, 65, 0
3, 75360, Note_on_c, 1, 65, 0
3, 75360, Note_on_c, 1, 58, 100
3, 75360, Note_on_c, 1, 65, 100
3, 75480, Note_on_c, 1, 65, 0
3, 75480, Note_on_c, 1, 58, 0
3, 75480, Note_on_c, 1, 46, 100
3, 75480, Note_on_c, 1, 58, 100
3, 75570, Note_on_c, 1, 58, 0
3, 75570, Note_on_c, 1, 46, 0
3, 75570, Note_on_c, 1, 46, 100
3, 75570, Note_on_c, 1, 58, 100
3, 75600, Note_on_c, 1, 58, 0
3, 75600, Note_on_c, 1, 46, 0
3, 75600, Note_on_c, 1, 46, 100
3, 75600, Note_on_c, 1, 58, 100
3, 75720, Note_on_c, 1, 58, 0
3, 75720, Note_on_c, 1, 46, 0
3, 75720, Note_on_c, 1, 46, 100
3, 75720, Note_on_c, 1, 58, 100
3, 75840, Note_on_c, 1, 58, 0
3, 75840, Note_on_c, 1, 46, 0
3, 75840, Note_on_c, 1, 46, 100
3, 75840, Note_on_c, 1, 58, 100
3, 76320, Note_on_c, 1, 58, 0
3, 76320, Note_on_c, 1, 46, 0
3, 76440, Note_on_c, 1, 51, 100
3, 76440, Note_on_c, 1, 63, 100
3, 76530, Note_on_c, 1, 63, 0
3, 76530, Note_on_c, 1, 51, 0
3, 76530, Note_on_c, 1, 51, 100
3, 76530, Note_on_c, 1, 63, 100
3, 76560, Note_on_c, 1, 63, 0
3, 76560, Note_on_c, 1, 51, 0
3, 76560, Note_on_c, 1, 51, 100
3, 76560, Note_on_c, 1, 63, 100
3, 76680, Note_on_c, 1, 63, 0
3, 76680, Note_on_c, 1, 51, 0
3, 76680, Note_on_c, 1, 51, 100
3, 76680, Note_on_c, 1, 63, 100
3, 76800, Note_on_c, 1, 63, 0
3, 76800, Note_on_c, 1, 51, 0
3, 76800, Note_on_c, 1, 51, 100
3, 76800, Note_on_c, 1, 63, 100
3, 77280, Note_on_c, 1, 63, 0
3, 77280, Note_on_c, 1, 51, 0
3, 77400, Note_on_c, 1, 58, 100
3, 77400, Note_on_c, 1, 70, 100
3, 77490, Note_on_c, 1, 70, 0
3, 77490, Note_on_c, 1, 58, 0
3, 77490, Note_on_c, 1, 58, 100
3, 77490, Note_on_c, 1, 70, 100
3, 77520, Note_on_c, 1, 70, 0
3, 77520, Note_on_c, 1, 58, 0
3, 77520, Note_on_c, 1, 58, 100
3, 77520, Note_on_c, 1, 70, 100
3, 77640, Note_on_c, 1, 70, 0
3, 77640, Note_on_c, 1, 58, 0
3, 77640, Note_on_c, 1, 58, 100
3, 77640, Note_on_c, 1, 70, 100
3, 77760, Note_on_c, 1, 70, 0
3, 77760, Note_on_c, 1, 58, 0
3, 77760, Note_on_c, 1, 58, 100
3, 77760, Note_on_c, 1, 70, 100
3, 78240, Note_on_c, 1, 70, 0
3, 78240, Note_on_c, 1, 58, 0
3, 78240, Note_on_c, 1, 63, 100
3, 78240, Note_on_c, 1, 67, 100
3, 78360, Note_on_c, 1, 67, 0
3, 78360, Note_on_c, 1, 63, 0
3, 78360, Note_on_c, 1, 63, 100
3, 78360, Note_on_c, 1, 67, 100
3, 78450, Note_on_c, 1, 67, 0
3, 78450, Note_on_c, 1, 63, 0
3, 78450, Note_on_c, 1, 63, 100
3, 78450, Note_on_c, 1, 67, 100
3, 78480, Note_on_c, 1, 67, 0
3, 78480, Note_on_c, 1, 63, 0
3, 78480, Note_on_c, 1, 63, 100
3, 78480, Note_on_c, 1, 67, 100
3, 78600, Note_on_c, 1, 67, 0
3, 78600, Note_on_c, 1, 63, 0
3, 78600, Note_on_c, 1, 63, 100
3, 78600, Note_on_c, 1, 67, 100
3, 78720, Note_on_c, 1, 67, 0
3, 78720, Note_on_c, 1, 63, 0
3, 78720, Note_on_c, 1, 63, 100
3, 78720, Note_on_c, 1, 67, 100
3, 79200, Note_on_c, 1, 67, 0
3, 79200, Note_on_c, 1, 63, 0
3, 79200, Note_on_c, 1, 65, 100
3, 79200, Note_on_c, 1, 65, 100
3, 80160, Note_on_c, 1, 65, 0
3, 80160, Note_on_c, 1, 65, 0
3, 80160, Note_on_c, 1, 58, 100
3, 80160, Note_on_c, 1, 65, 100
3, 80280, Note_on_c, 1, 65, 0
3, 80280, Note_on_c, 1, 58, 0
3, 80640, Note_on_c, 1, 58, 100
3, 80640, Note_on_c, 1, 65, 100
3, 80760, Note_on_c, 1, 65, 0
3, 80760, Note_on_c, 1, 58, 0
3, 80760, Note_on_c, 1, 58, 100
3, 80760, Note_on_c, 1, 65, 100
3, 80850, Note_on_c, 1, 65, 0
3, 80850, Note_on_c, 1, 58, 0
3, 80850, Note_on_c, 1, 58, 100
3, 80850, Note_on_c, 1, 65, 100
3, 80880, Note_on_c, 1, 65, 0
3, 80880, Note_on_c, 1, 58, 0
3, 80880, Note_on_c, 1, 58, 100
3, 80880, Note_on_c, 1, 65, 100
3, 81000, Note_on_c, 1, 65, 0
3, 81000, Note_on_c, 1, 58, 0
3, 81000, Note_on_c, 1, 58, 100
3, 81000, Note_on_c, 1, 65, 100
3, 81120, Note_on_c, 1, 65, 0
3, 81120, Note_on_c, 1, 58, 0
3, 81120, Note_on_c, 1, 58, 100
3, 81120, Note_on_c, 1, 67, 100
3, 81720, Note_on_c, 1, 67, 0
3, 81720, Note_on_c, 1, 58, 0
3, 81720, Note_on_c, 1, 58, 100
3, 81720, Note_on_c, 1, 67, 100
3, 81810, Note_on_c, 1, 67, 0
3, 81810, Note_on_c, 1, 58, 0
3, 81810, Note_on_c, 1, 58, 100
3, 81810, Note_on_c, 1, 67, 100
3, 81840, Note_on_c, 1, 67, 0
3, 81840, Note_on_c, 1, 58, 0
3, 81840, Note_on_c, 1, 67, 100
3, 81840, Note_on_c, 1, 58, 100
3, 81960, Note_on_c, 1, 58, 0
3, 81960, Note_on_c, 1, 67, 0
3, 81960, Note_on_c, 1, 67, 100
3, 81960, Note_on_c, 1, 58, 100
3, 82080, Note_on_c, 1, 58, 0
3, 82080, Note_on_c, 1, 67, 0
3, 86400, Note_on_c, 1, 67, 100
3, 86400, Note_on_c, 1, 55, 100
3, 87000, Note_on_c, 1, 55, 0
3, 87000, Note_on_c, 1, 67, 0
3, 87000, Note_on_c, 1, 55, 100
3, 87000, Note_on_c, 1, 67, 100
3, 87090, Note_on_c, 1, 67, 0
3, 87090, Note_on_c, 1, 55, 0
3, 87090, Note_on_c, 1, 55, 100
3, 87090, Note_on_c, 1, 67, 100
3, 87120, Note_on_c, 1, 67, 0
3, 87120, Note_on_c, 1, 55, 0
3, 87120, Note_on_c, 1, 55, 100
3, 87120, Note_on_c, 1, 67, 100
3, 87240, Note_on_c, 1, 67, 0
3, 87240, Note_on_c, 1, 55, 0
3, 87240, Note_on_c, 1, 55, 100
3, 87240, Note_on_c, 1, 67, 100
3, 87360, Note_on_c, 1, 67, 0
3, 87360, Note_on_c, 1, 55, 0
3, 87360, Note_on_c, 1, 58, 100
3, 87360, Note_on_c, 1, 65, 100
3, 87960, Note_on_c, 1, 65, 0
3, 87960, Note_on_c, 1, 58, 0
3, 87960, Note_on_c, 1, 58, 100
3, 87960, Note_on_c, 1, 65, 100
3, 88050, Note_on_c, 1, 65, 0
3, 88050, Note_on_c, 1, 58, 0
3, 88050, Note_on_c, 1, 58, 100
3, 88050, Note_on_c, 1, 65, 100
3, 88080, Note_on_c, 1, 65, 0
3, 88080, Note_on_c, 1, 58, 0
3, 88080, Note_on_c, 1, 58, 100
3, 88080, Note_on_c, 1, 65, 100
3, 88200, Note_on_c, 1, 65, 0
3, 88200, Note_on_c, 1, 58, 0
3, 88200, Note_on_c, 1, 58, 100
3, 88200, Note_on_c, 1, 65, 100
3, 88320, Note_on_c, 1, 65, 0
3, 88320, Note_on_c, 1, 58, 0
3, 88320, Note_on_c, 1, 55, 100
3, 88320, Note_on_c, 1, 65, 100
3, 88440, Note_on_c, 1, 65, 0
3, 88440, Note_on_c, 1, 55, 0
3, 94560, Note_on_c, 1, 65, 100
3, 94560, Note_on_c, 1, 65, 100
3, 95160, Note_on_c, 1, 65, 0
3, 95160, Note_on_c, 1, 65, 0
3, 95520, Note_on_c, 1, 46, 100
3, 95520, Note_on_c, 1, 58, 100
3, 96120, Note_on_c, 1, 58, 0
3, 96120, Note_on_c, 1, 46, 0
3, 101280, Note_on_c, 1, 58, 100
3, 101280, Note_on_c, 1, 55, 100
3, 101340, Note_on_c, 1, 55, 0
3, 101340, Note_on_c, 1, 58, 0
3, 101340, Note_on_c, 1, 58, 100
3, 101340, Note_on_c, 1, 63, 100
3, 101400, Note_on_c, 1, 63, 0
3, 101400, Note_on_c, 1, 58, 0
3, 101400, Note_on_c, 1, 58, 100
3, 101400, Note_on_c, 1, 63, 100
3, 101460, Note_on_c, 1, 63, 0
3, 101460, Note_on_c, 1, 58, 0
3, 101460, Note_on_c, 1, 58, 100
3, 101460, Note_on_c, 1, 63, 100
3, 101520, Note_on_c, 1, 63, 0
3, 101520, Note_on_c, 1, 58, 0
3, 101520, Note_on_c, 1, 58, 100
3, 101520, Note_on_c, 1, 63, 100
3, 101580, Note_on_c, 1, 63, 0
3, 101580, Note_on_c, 1, 58, 0
3, 101580, Note_on_c, 1, 67, 100
3, 101580, Note_on_c, 1, 63, 100
3, 101640, Note_on_c, 1, 63, 0
3, 101640, Note_on_c, 1, 67, 0
3, 101640, Note_on_c, 1, 63, 100
3, 101640, Note_on_c, 1, 67, 100
3, 101700, Note_on_c, 1, 67, 0
3, 101700, Note_on_c, 1, 63, 0
3, 101700, Note_on_c, 1, 67, 100
3, 101700, Note_on_c, 1, 63, 100
3, 101760, Note_on_c, 1, 63, 0
3, 101760, Note_on_c, 1, 67, 0
3, 101760, Note_on_c, 1, 63, 100
3, 101760, Note_on_c, 1, 67, 100
3, 101820, Note_on_c, 1, 67, 0
3, 101820, Note_on_c, 1, 63, 0
3, 101820, Note_on_c, 1, 70, 100
3, 101820, Note_on_c, 1, 67, 100
3, 101880, Note_on_c, 1, 67, 0
3, 101880, Note_on_c, 1, 70, 0
3, 101880, Note_on_c, 1, 67, 100
3, 101880, Note_on_c, 1, 70, 100
3, 102060, Note_on_c, 1, 70, 0
3, 102060, Note_on_c, 1, 72, 100
3, 102090, Note_on_c, 1, 72, 0
3, 102090, Note_on_c, 1, 70, 100
3, 102120, Note_on_c, 1, 70, 0
3, 102120, Note_on_c, 1, 67, 0
3, 102120, Note_on_c, 1, 65, 100
3, 102120, Note_on_c, 1, 68, 100
3, 102180, Note_on_c, 1, 68, 0
3, 102180, Note_on_c, 1, 65, 0
3, 102180, Note_on_c, 1, 63, 100
3, 102180, Note_on_c, 1, 67, 100
3, 102240, Note_on_c, 1, 67, 0
3, 102240, Note_on_c, 1, 63, 0
3, 102240, Note_on_c, 1, 58, 100
3, 102240, Note_on_c, 1, 65, 100
3, 102360, Note_on_c, 1, 65, 0
3, 102360, Note_on_c, 1, 58, 0
3, 103200, Note_on_c, 1, 55, 100
3, 103200, Note_on_c, 1, 58, 100
3, 103260, Note_on_c, 1, 58, 0
3, 103260, Note_on_c, 1, 55, 0
3, 103260, Note_on_c, 1, 63, 100
3, 103260, Note_on_c, 1, 58, 100
3, 103320, Note_on_c, 1, 58, 0
3, 103320, Note_on_c, 1, 63, 0
3, 103320, Note_on_c, 1, 63, 100
3, 103320, Note_on_c, 1, 58, 100
3, 103380, Note_on_c, 1, 58, 0
3, 103380, Note_on_c, 1, 63, 0
3, 103380, Note_on_c, 1, 63, 100
3, 103380, Note_on_c, 1, 58, 100
3, 103440, Note_on_c, 1, 58, 0
3, 103440, Note_on_c, 1, 63, 0
3, 103440, Note_on_c, 1, 58, 100
3, 103440, Note_on_c, 1, 63, 100
3, 103500, Note_on_c, 1, 63, 0
3, 103500, Note_on_c, 1, 58, 0
3, 103500, Note_on_c, 1, 63, 100
3, 103500, Note_on_c, 1, 67, 100
3, 103560, Note_on_c, 1, 67, 0
3, 103560, Note_on_c, 1, 63, 0
3, 103560, Note_on_c, 1, 63, 100
3, 103560, Note_on_c, 1, 67, 100
3, 103620, Note_on_c, 1, 67, 0
3, 103620, Note_on_c, 1, 63, 0
3, 103620, Note_on_c, 1, 63, 100
3, 103620, Note_on_c, 1, 67, 100
3, 103680, Note_on_c, 1, 67, 0
3, 103680, Note_on_c, 1, 63, 0
3, 103680, Note_on_c, 1, 63, 100
3, 103680, Note_on_c, 1, 67, 100
3, 103740, Note_on_c, 1, 67, 0
3, 103740, Note_on_c, 1, 63, 0
3, 103740, Note_on_c, 1, 67, 100
3, 103740, Note_on_c, 1, 70, 100
3, 103800, Note_on_c, 1, 70, 0
3, 103800, Note_on_c, 1, 67, 0
3, 103800, Note_on_c, 1, 70, 100
3, 103800, Note_on_c, 1, 67, 100
3, 103980, Note_on_c, 1, 70, 0
3, 103980, Note_on_c, 1, 72, 100
3, 104010, Note_on_c, 1, 72, 0
3, 104010, Note_on_c, 1, 70, 100
3, 104040, Note_on_c, 1, 70, 0
3, 104040, Note_on_c, 1, 67, 0
3, 104040, Note_on_c, 1, 65, 100
3, 104040, Note_on_c, 1, 68, 100
3, 104100, Note_on_c, 1, 68, 0
3, 104100, Note_on_c, 1, 65, 0
3, 104100, Note_on_c, 1, 63, 100
3, 104100, Note_on_c, 1, 67, 100
3, 104160, Note_on_c, 1, 67, 0
3, 104160, Note_on_c, 1, 63, 0
3, 104160, Note_on_c, 1, 58, 100
3, 104160, Note_on_c, 1, 65, 100
3, 104280, Note_on_c, 1, 65, 0
3, 104280, Note_on_c, 1, 58, 0
3, 105600, Note_on_c, 1, 46, 100
3, 105600, Note_on_c, 1, 58, 100
3, 106560, Note_on_c, 1, 58, 0
3, 106560, Note_on_c, 1, 46, 0
3, 106560, Note_on_c, 1, 51, 100
3, 106560, Note_on_c, 1, 63, 100
3, 107040, Note_on_c, 1, 63, 0
3, 107040, Note_on_c, 1, 51, 0
3, 107040, Note_on_c, 1, 51, 100
3, 107040, Note_on_c, 1, 63, 100
3, 107280, Note_on_c, 1, 63, 0
3, 107280, Note_on_c, 1, 51, 0
3, 107280, Note_on_c, 1, 51, 100
3, 107280, Note_on_c, 1, 63, 100
3, 107460, Note_on_c, 1, 63, 0
3, 107460, Note_on_c, 1, 51, 0
3, 107460, Note_on_c, 1, 51, 100
3, 107460, Note_on_c, 1, 63, 100
3, 107520, Note_on_c, 1, 63, 0
3, 107520, Note_on_c, 1, 51, 0
3, 107520, Note_on_c, 1, 51, 100
3, 107520, Note_on_c, 1, 63, 100
3, 108480, Note_on_c, 1, 63, 0
3, 108480, Note_on_c, 1, 51, 0
3, 108480, Note_on_c, 1, 46, 100
3, 108480, Note_on_c, 1, 58, 100
3, 109440, Note_on_c, 1, 58, 0
3, 109440, Note_on_c, 1, 46, 0
3, 109440, Note_on_c, 1, 51, 100
3, 109440, Note_on_c, 1, 63, 100
3, 111480, Note_on_c, 1, 63, 0
3, 111480, Note_on_c, 1, 51, 0
3, 113280, Note_on_c, 1, 51, 100
3, 113280, Note_on_c, 1, 63, 100
3, 113520, Note_on_c, 1, 63, 0
3, 113520, Note_on_c, 1, 51, 0
3, 113520, Note_on_c, 1, 51, 100
3, 113520, Note_on_c, 1, 63, 100
3, 113700, Note_on_c, 1, 63, 0
3, 113700, Note_on_c, 1, 51, 0
3, 113700, Note_on_c, 1, 51, 100
3, 113700, Note_on_c, 1, 63, 100
3, 113760, Note_on_c, 1, 63, 0
3, 113760, Note_on_c, 1, 51, 0
3, 113760, Note_on_c, 1, 46, 100
3, 113760, Note_on_c, 1, 58, 100
3, 114240, Note_on_c, 1, 58, 0
3, 114240, Note_on_c, 1, 46, 0
3, 115200, Note_on_c, 1, 51, 100
3, 115200, Note_on_c, 1, 63, 100
3, 115440, Note_on_c, 1, 63, 0
3, 115440, Note_on_c, 1, 51, 0
3, 115440, Note_on_c, 1, 51, 100
3, 115440, Note_on_c, 1, 63, 100
3, 115620, Note_on_c, 1, 63, 0
3, 115620, Note_on_c, 1, 51, 0
3, 115620, Note_on_c, 1, 51, 100
3, 115620, Note_on_c, 1, 63, 100
3, 115680, Note_on_c, 1, 63, 0
3, 115680, Note_on_c, 1, 51, 0
3, 115680, Note_on_c, 1, 46, 100
3, 115680, Note_on_c, 1, 58, 100
3, 116160, Note_on_c, 1, 58, 0
3, 116160, Note_on_c, 1, 46, 0
3, 118200, Note_on_c, 1, 51, 100
3, 118200, Note_on_c, 1, 63, 100
3, 118320, Note_on_c, 1, 63, 0
3, 118320, Note_on_c, 1, 51, 0
3, 118320, Note_on_c, 1, 55, 100
3, 118320, Note_on_c, 1, 67, 100
3, 118440, Note_on_c, 1, 67, 0
3, 118440, Note_on_c, 1, 55, 0
3, 118440, Note_on_c, 1, 51, 100
3, 118440, Note_on_c, 1, 63, 100
3, 118560, Note_on_c, 1, 63, 0
3, 118560, Note_on_c, 1, 51, 0
3, 118560, Note_on_c, 1, 58, 100
3, 118560, Note_on_c, 1, 70, 100
3, 118800, Note_on_c, 1, 70, 0
3, 118800, Note_on_c, 1, 58, 0
3, 118800, Note_on_c, 1, 46, 100
3, 118800, Note_on_c, 1, 58, 100
3, 119040, Note_on_c, 1, 58, 0
3, 119040, Note_on_c, 1, 46, 0
3, 119040, Note_on_c, 1, 51, 100
3, 119040, Note_on_c, 1, 63, 100
3, 119160, Note_on_c, 1, 63, 0
3, 119160, Note_on_c, 1, 51, 0
3, 119160, Note_on_c, 1, 63, 100
3, 119220, Note_on_c, 1, 63, 0
3, 119220, Note_on_c, 1, 58, 100
3, 119280, Note_on_c, 1, 58, 0
3, 119280, Note_on_c, 1, 63, 100
3, 119340, Note_on_c, 1, 63, 0
3, 119340, Note_on_c, 1, 58, 100
3, 119400, Note_on_c, 1, 58, 0
3, 119400, Note_on_c, 1, 63, 100
3, 119460, Note_on_c, 1, 63, 0
3, 119460, Note_on_c, 1, 58, 100
3, 119520, Note_on_c, 1, 58, 0
3, 119520, Note_on_c, 1, 63, 100
3, 119640, Note_on_c, 1, 63, 0
3, 119640, Note_on_c, 1, 63, 100
3, 119640, Note_on_c, 1, 67, 100
3, 119700, Note_on_c, 1, 67, 0
3, 119700, Note_on_c, 1, 63, 0
3, 119700, Note_on_c, 1, 67, 100
3, 119700, Note_on_c, 1, 70, 100
3, 119760, Note_on_c, 1, 70, 0
3, 119760, Note_on_c, 1, 67, 0
3, 119760, Note_on_c, 1, 63, 100
3, 119760, Note_on_c, 1, 67, 100
3, 119820, Note_on_c, 1, 67, 0
3, 119820, Note_on_c, 1, 63, 0
3, 119820, Note_on_c, 1, 67, 100
3, 119820, Note_on_c, 1, 70, 100
3, 119880, Note_on_c, 1, 70, 0
3, 119880, Note_on_c, 1, 67, 0
3, 119880, Note_on_c, 1, 63, 100
3, 119880, Note_on_c, 1, 67, 100
3, 119940, Note_on_c, 1, 67, 0
3, 119940, Note_on_c, 1, 63, 0
3, 119940, Note_on_c, 1, 67, 100
3, 119940, Note_on_c, 1, 70, 100
3, 120000, Note_on_c, 1, 70, 0
3, 120000, Note_on_c, 1, 67, 0
3, 120000, Note_on_c, 1, 63, 100
3, 120000, Note_on_c, 1, 67, 100
3, 120120, Note_on_c, 1, 67, 0
3, 120120, Note_on_c, 1, 63, 0
3, 122880, Note_on_c, 1, 58, 100
3, 122880, Note_on_c, 1, 46, 100
3, 124320, Note_on_c, 1, 46, 0
3, 124320, Note_on_c, 1, 51, 100
3, 124440, Note_on_c, 1, 51, 0
3, 124440, Note_on_c, 1, 58, 0
3, 126360, Note_on_c, 1, 46, 100
3, 126360, Note_on_c, 1, 58, 100
3, 126420, Note_on_c, 1, 58, 0
3, 126420, Note_on_c, 1, 46, 0
3, 126420, Note_on_c, 1, 46, 100
3, 126420, Note_on_c, 1, 58, 100
3, 126480, Note_on_c, 1, 58, 0
3, 126480, Note_on_c, 1, 46, 0
3, 126480, Note_on_c, 1, 46, 100
3, 126480, Note_on_c, 1, 58, 100
3, 126540, Note_on_c, 1, 58, 0
3, 126540, Note_on_c, 1, 46, 0
3, 126540, Note_on_c, 1, 46, 100
3, 126540, Note_on_c, 1, 58, 100
3, 126600, Note_on_c, 1, 58, 0
3, 126600, Note_on_c, 1, 46, 0
3, 126600, Note_on_c, 1, 46, 100
3, 126600, Note_on_c, 1, 58, 100
3, 126660, Note_on_c, 1, 58, 0
3, 126660, Note_on_c, 1, 46, 0
3, 126660, Note_on_c, 1, 46, 100
3, 126660, Note_on_c, 1, 58, 100
3, 126720, Note_on_c, 1, 58, 0
3, 126720, Note_on_c, 1, 46, 0
3, 126720, Note_on_c, 1, 46, 100
3, 126720, Note_on_c, 1, 58, 100
3, 130080, Note_on_c, 1, 58, 0
3, 130080, Note_on_c, 1, 46, 0
3, 130200, Note_on_c, 1, 51, 100
3, 130200, Note_on_c, 1, 63, 100
3, 130260, Note_on_c, 1, 63, 0
3, 130260, Note_on_c, 1, 51, 0
3, 130260, Note_on_c, 1, 51, 100
3, 130260, Note_on_c, 1, 63, 100
3, 130320, Note_on_c, 1, 63, 0
3, 130320, Note_on_c, 1, 51, 0
3, 130320, Note_on_c, 1, 51, 100
3, 130320, Note_on_c, 1, 63, 100
3, 130380, Note_on_c, 1, 63, 0
3, 130380, Note_on_c, 1, 51, 0
3, 130380, Note_on_c, 1, 51, 100
3, 130380, Note_on_c, 1, 63, 100
3, 130440, Note_on_c, 1, 63, 0
3, 130440, Note_on_c, 1, 51, 0
3, 130440, Note_on_c, 1, 51, 100
3, 130440, Note_on_c, 1, 63, 100
3, 130500, Note_on_c, 1, 63, 0
3, 130500, Note_on_c, 1, 51, 0
3, 130500, Note_on_c, 1, 51, 100
3, 130500, Note_on_c, 1, 63, 100
3, 130560, Note_on_c, 1, 63, 0
3, 130560, Note_on_c, 1, 51, 0
3, 130560, Note_on_c, 1, 51, 100
3, 130560, Note_on_c, 1, 63, 100
3, 134040, Note_on_c, 1, 63, 0
3, 134040, Note_on_c, 1, 51, 0
3, 135960, Note_on_c, 1, 55, 100
3, 135960, Note_on_c, 1, 63, 100
3, 136080, Note_on_c, 1, 63, 0
3, 136080, Note_on_c, 1, 55, 0
3, 136080, Note_on_c, 1, 55, 100
3, 136080, Note_on_c, 1, 63, 100
3, 136200, Note_on_c, 1, 63, 0
3, 136200, Note_on_c, 1, 55, 0
3, 136200, Note_on_c, 1, 55, 100
3, 136200, Note_on_c, 1, 63, 100
3, 136320, Note_on_c, 1, 63, 0
3, 136320, Note_on_c, 1, 55, 0
3, 136320, Note_on_c, 1, 55, 100
3, 136320, Note_on_c, 1, 63, 100
3, 136440, Note_on_c, 1, 63, 0
3, 136440, Note_on_c, 1, 55, 0
3, 138240, Note_on_c, 1, 51, 100
3, 138240, Note_on_c, 1, 63, 100
3, 138480, Note_on_c, 1, 63, 0
3, 138480, Note_on_c, 1, 51, 0
3, 138480, Note_on_c, 1, 55, 100
3, 138480, Note_on_c, 1, 67, 100
3, 138720, Note_on_c, 1, 67, 0
3, 138720, Note_on_c, 1, 55, 0
3, 138720, Note_on_c, 1, 58, 100
3, 138720, Note_on_c, 1, 70, 100
3, 139200, Note_on_c, 1, 70, 0
3, 139200, Note_on_c, 1, 58, 0
3, 140160, Note_on_c, 1, 63, 100
3, 140160, Note_on_c, 1, 67, 100
3, 140340, Note_on_c, 1, 67, 0
3, 140340, Note_on_c, 1, 63, 0
3, 140340, Note_on_c, 1, 65, 100
3, 140340, Note_on_c, 1, 68, 100
3, 140400, Note_on_c, 1, 68, 0
3, 140400, Note_on_c, 1, 65, 0
3, 140400, Note_on_c, 1, 67, 100
3, 140400, Note_on_c, 1, 70, 100
3, 140520, Note_on_c, 1, 70, 0
3, 140520, Note_on_c, 1, 67, 0
3, 140520, Note_on_c, 1, 67, 100
3, 140520, Note_on_c, 1, 70, 100
3, 140640, Note_on_c, 1, 70, 0
3, 140640, Note_on_c, 1, 67, 0
3, 140640, Note_on_c, 1, 67, 100
3, 140640, Note_on_c, 1, 70, 100
3, 140760, Note_on_c, 1, 70, 0
3, 140760, Note_on_c, 1, 67, 0
3, 140760, Note_on_c, 1, 63, 100
3, 140760, Note_on_c, 1, 67, 100
3, 140880, Note_on_c, 1, 67, 0
3, 140880, Note_on_c, 1, 63, 0
3, 140880, Note_on_c, 1, 58, 100
3, 140880, Note_on_c, 1, 63, 100
3, 141000, Note_on_c, 1, 63, 0
3, 141000, Note_on_c, 1, 58, 0
3, 142080, Note_on_c, 1, 63, 100
3, 142080, Note_on_c, 1, 67, 100
3, 142260, Note_on_c, 1, 67, 0
3, 142260, Note_on_c, 1, 63, 0
3, 142260, Note_on_c, 1, 65, 100
3, 142260, Note_on_c, 1, 68, 100
3, 142320, Note_on_c, 1, 68, 0
3, 142320, Note_on_c, 1, 65, 0
3, 142320, Note_on_c, 1, 67, 100
3, 142320, Note_on_c, 1, 70, 100
3, 142440, Note_on_c, 1, 70, 0
3, 142440, Note_on_c, 1, 67, 0
3, 142440, Note_on_c, 1, 67, 100
3, 142440, Note_on_c, 1, 70, 100
3, 142560, Note_on_c, 1, 70, 0
3, 142560, Note_on_c, 1, 67, 0
3, 142560, Note_on_c, 1, 67, 100
3, 142560, Note_on_c, 1, 70, 100
3, 142680, Note_on_c, 1, 70, 0
3, 142680, Note_on_c, 1, 67, 0
3, 142680, Note_on_c, 1, 63, 100
3, 142680, Note_on_c, 1, 67, 100
3, 142800, Note_on_c, 1, 67, 0
3, 142800, Note_on_c, 1, 63, 0
3, 142800, Note_on_c, 1, 58, 100
3, 142800, Note_on_c, 1, 63, 100
3, 142920, Note_on_c, 1, 63, 0
3, 142920, Note_on_c, 1, 58, 0
3, 144000, Note_on_c, 1, 46, 100
3, 144000, Note_on_c, 1, 58, 100
3, 144960, Note_on_c, 1, 58, 0
3, 144960, Note_on_c, 1, 46, 0
3, 144960, Note_on_c, 1, 51, 100
3, 145080, Note_on_c, 1, 51, 0
3, 146400, Note_on_c, 1, 51, 100
3, 146520, Note_on_c, 1, 51, 0
3, 146640, Note_on_c, 1, 58, 100
3, 146760, Note_on_c, 1, 58, 0
3, 146880, Note_on_c, 1, 63, 100
3, 147000, Note_on_c, 1, 63, 0
3, 147120, Note_on_c, 1, 58, 100
3, 147240, Note_on_c, 1, 58, 0
3, 147360, Note_on_c, 1, 55, 100
3, 147360, Note_on_c, 1, 63, 100
3, 147420, Note_on_c, 1, 63, 0
3, 147420, Note_on_c, 1, 55, 0
3, 147480, Note_on_c, 1, 55, 100
3, 147480, Note_on_c, 1, 63, 100
3, 147540, Note_on_c, 1, 63, 0
3, 147540, Note_on_c, 1, 55, 0
3, 147540, Note_on_c, 1, 58, 100
3, 147540, Note_on_c, 1, 65, 100
3, 147600, Note_on_c, 1, 65, 0
3, 147600, Note_on_c, 1, 58, 0
3, 147600, Note_on_c, 1, 63, 100
3, 147600, Note_on_c, 1, 67, 100
3, 147660, Note_on_c, 1, 67, 0
3, 147660, Note_on_c, 1, 63, 0
3, 147720, Note_on_c, 1, 63, 100
3, 147720, Note_on_c, 1, 67, 100
3, 147780, Note_on_c, 1, 67, 0
3, 147780, Note_on_c, 1, 63, 0
3, 147780, Note_on_c, 1, 65, 100
3, 147780, Note_on_c, 1, 68, 100
3, 147840, Note_on_c, 1, 68, 0
3, 147840, Note_on_c, 1, 65, 0
3, 147840, Note_on_c, 1, 67, 100
3, 147840, Note_on_c, 1, 70, 100
3, 147960, Note_on_c, 1, 70, 0
3, 147960, Note_on_c, 1, 67, 0
3, 150240, Note_on_c, 1, 51, 100
3, 150240, Note_on_c, 1, 55, 100
3, 150480, Note_on_c, 1, 55, 0
3, 150480, Note_on_c, 1, 51, 0
3, 150480, Note_on_c, 1, 51, 100
3, 150480, Note_on_c, 1, 55, 100
3, 150600, Note_on_c, 1, 55, 0
3, 150600, Note_on_c, 1, 51, 0
3, 150600, Note_on_c, 1, 51, 100
3, 150600, Note_on_c, 1, 55, 100
3, 150720, Note_on_c, 1, 55, 0
3, 150720, Note_on_c, 1, 51, 0
3, 150720, Note_on_c, 1, 51, 100
3, 150720, Note_on_c, 1, 58, 100
3, 150960, Note_on_c, 1, 58, 0
3, 150960, Note_on_c, 1, 51, 0
3, 150960, Note_on_c, 1, 51, 100
3, 150960, Note_on_c, 1, 58, 100
3, 151080, Note_on_c, 1, 58, 0
3, 151080, Note_on_c, 1, 51, 0
3, 151080, Note_on_c, 1, 51, 100
3, 151080, Note_on_c, 1, 58, 100
3, 151200, Note_on_c, 1, 58, 0
3, 151200, Note_on_c, 1, 51, 0
3, 151200, Note_on_c, 1, 51, 100
3, 151200, Note_on_c, 1, 63, 100
3, 151440, Note_on_c, 1, 63, 0
3, 151440, Note_on_c, 1, 51, 0
3, 151440, Note_on_c, 1, 51, 100
3, 151440, Note_on_c, 1, 63, 100
3, 151560, Note_on_c, 1, 63, 0
3, 151560, Note_on_c, 1, 51, 0
3, 151560, Note_on_c, 1, 51, 100
3, 151560, Note_on_c, 1, 63, 100
3, 151680, Note_on_c, 1, 63, 0
3, 151680, Note_on_c, 1, 51, 0
3, 151680, Note_on_c, 1, 55, 100
3, 151680, Note_on_c, 1, 67, 100
3, 152160, Note_on_c, 1, 67, 0
3, 152160, Note_on_c, 1, 55, 0
3, 152160, Note_on_c, 1, 65, 100
3, 152640, Note_on_c, 1, 65, 0
3, 152640, Note_on_c, 1, 51, 100
3, 152640, Note_on_c, 1, 63, 100
3, 152760, Note_on_c, 1, 63, 0
3, 152760, Note_on_c, 1, 51, 0
3, 153600, Note_on_c, 1, 51, 100
3, 153600, Note_on_c, 1, 63, 100
3, 155520, Note_on_c, 1, 51, 0
3, 155520, Note_on_c, 1, 46, 100
3, 155640, Note_on_c, 1, 46, 0
3, 155640, Note_on_c, 1, 63, 0
3, 155640, Note_on_c, 1, 58, 100
3, 155760, Note_on_c, 1, 58, 0
3, 155760, Note_on_c, 1, 70, 100
3, 155880, Note_on_c, 1, 70, 0
3, 155880, Note_on_c, 1, 67, 100
3, 156000, Note_on_c, 1, 67, 0
3, 156000, Note_on_c, 1, 63, 100
3, 156120, Note_on_c, 1, 63, 0
3, 156120, Note_on_c, 1, 58, 100
3, 156240, Note_on_c, 1, 58, 0
3, 156240, Note_on_c, 1, 55, 100
3, 156360, Note_on_c, 1, 55, 0
3, 156360, Note_on_c, 1, 51, 100
3, 156480, Note_on_c, 1, 51, 0
3, 156480, Note_on_c, 1, 46, 100
3, 156480, Note_on_c, 1, 58, 100
3, 156960, Note_on_c, 1, 58, 0
3, 156960, Note_on_c, 1, 46, 0
3, 156960, Note_on_c, 1, 51, 100
3, 156960, Note_on_c, 1, 63, 100
3, 157080, Note_on_c, 1, 63, 0
3, 157080, Note_on_c, 1, 51, 0
3, 157080, Note_on_c, 1, 51, 100
3, 157080, Note_on_c, 1, 63, 100
3, 157170, Note_on_c, 1, 63, 0
3, 157170, Note_on_c, 1, 51, 0
3, 157170, Note_on_c, 1, 51, 100
3, 157170, Note_on_c, 1, 63, 100
3, 157200, Note_on_c, 1, 63, 0
3, 157200, Note_on_c, 1, 51, 0
3, 157200, Note_on_c, 1, 51, 100
3, 157200, Note_on_c, 1, 63, 100
3, 157320, Note_on_c, 1, 63, 0
3, 157320, Note_on_c, 1, 51, 0
3, 157320, Note_on_c, 1, 51, 100
3, 157320, Note_on_c, 1, 63, 100
3, 157440, Note_on_c, 1, 63, 0
3, 157440, Note_on_c, 1, 51, 0
3, 157440, Note_on_c, 1, 51, 100
3, 157440, Note_on_c, 1, 63, 100
3, 157920, Note_on_c, 1, 63, 0
3, 157920, Note_on_c, 1, 51, 0
3, 158040, Note_on_c, 1, 46, 100
3, 158040, Note_on_c, 1, 58, 100
3, 158130, Note_on_c, 1, 58, 0
3, 158130, Note_on_c, 1, 46, 0
3, 158130, Note_on_c, 1, 46, 100
3, 158130, Note_on_c, 1, 58, 100
3, 158160, Note_on_c, 1, 58, 0
3, 158160, Note_on_c, 1, 46, 0
3, 158160, Note_on_c, 1, 46, 100
3, 158160, Note_on_c, 1, 58, 100
3, 158280, Note_on_c, 1, 58, 0
3, 158280, Note_on_c, 1, 46, 0
3, 158280, Note_on_c, 1, 58, 100
3, 158280, Note_on_c, 1, 46, 100
3, 158400, Note_on_c, 1, 46, 0
3, 158400, Note_on_c, 1, 58, 0
3, 158400, Note_on_c, 1, 46, 100
3, 158400, Note_on_c, 1, 58, 100
3, 158880, Note_on_c, 1, 58, 0
3, 158880, Note_on_c, 1, 46, 0
3, 159000, Note_on_c, 1, 51, 100
3, 159000, Note_on_c, 1, 63, 100
3, 159090, Note_on_c, 1, 63, 0
3, 159090, Note_on_c, 1, 51, 0
3, 159090, Note_on_c, 1, 51, 100
3, 159090, Note_on_c, 1, 63, 100
3, 159120, Note_on_c, 1, 63, 0
3, 159120, Note_on_c, 1, 51, 0
3, 159120, Note_on_c, 1, 51, 100
3, 159120, Note_on_c, 1, 63, 100
3, 159240, Note_on_c, 1, 63, 0
3, 159240, Note_on_c, 1, 51, 0
3, 159240, Note_on_c, 1, 51, 100
3, 159240, Note_on_c, 1, 63, 100
3, 159360, Note_on_c, 1, 63, 0
3, 159360, Note_on_c, 1, 51, 0
3, 159360, Note_on_c, 1, 51, 100
3, 159360, Note_on_c, 1, 63, 100
3, 159840, Note_on_c, 1, 63, 0
3, 159840, Note_on_c, 1, 51, 0
3, 159840, Note_on_c, 1, 51, 100
3, 159840, Note_on_c, 1, 63, 100
3, 159960, Note_on_c, 1, 63, 0
3, 159960, Note_on_c, 1, 51, 0
3, 159960, Note_on_c, 1, 51, 100
3, 159960, Note_on_c, 1, 63, 100
3, 160050, Note_on_c, 1, 63, 0
3, 160050, Note_on_c, 1, 51, 0
3, 160050, Note_on_c, 1, 51, 100
3, 160050, Note_on_c, 1, 63, 100
3, 160080, Note_on_c, 1, 63, 0
3, 160080, Note_on_c, 1, 51, 0
3, 160080, Note_on_c, 1, 51, 100
3, 160080, Note_on_c, 1, 63, 100
3, 160200, Note_on_c, 1, 63, 0
3, 160200, Note_on_c, 1, 51, 0
3, 160200, Note_on_c, 1, 51, 100
3, 160200, Note_on_c, 1, 63, 100
3, 160320, Note_on_c, 1, 63, 0
3, 160320, Note_on_c, 1, 51, 0
3, 160320, Note_on_c, 1, 51, 100
3, 160320, Note_on_c, 1, 63, 100
3, 160920, Note_on_c, 1, 63, 0
3, 160920, Note_on_c, 1, 51, 0
3, 161610, Note_on_c, 1, 51, 100
3, 161610, Note_on_c, 1, 63, 100
3, 161640, Note_on_c, 1, 63, 0
3, 161640, Note_on_c, 1, 51, 0
3, 161640, Note_on_c, 1, 51, 100
3, 161640, Note_on_c, 1, 63, 100
3, 161730, Note_on_c, 1, 63, 0
3, 161730, Note_on_c, 1, 51, 0
3, 161730, Note_on_c, 1, 51, 100
3, 161730, Note_on_c, 1, 63, 100
3, 161760, Note_on_c, 1, 63, 0
3, 161760, Note_on_c, 1, 51, 0
3, 161760, Note_on_c, 1, 46, 100
3, 161760, Note_on_c, 1, 58, 100
3, 162000, Note_on_c, 1, 58, 0
3, 162000, Note_on_c, 1, 46, 0
3, 174240, Note_on_c, 1, 51, 100
3, 174240, Note_on_c, 1, 63, 100
3, 174840, Note_on_c, 1, 63, 0
3, 174840, Note_on_c, 1, 51, 0
3, 174840, Note_on_c, 1, 51, 100
3, 174840, Note_on_c, 1, 63, 100
3, 174930, Note_on_c, 1, 63, 0
3, 174930, Note_on_c, 1, 51, 0
3, 174930, Note_on_c, 1, 51, 100
3, 174930, Note_on_c, 1, 63, 100
3, 174960, Note_on_c, 1, 63, 0
3, 174960, Note_on_c, 1, 51, 0
3, 174960, Note_on_c, 1, 51, 100
3, 174960, Note_on_c, 1, 63, 100
3, 175080, Note_on_c, 1, 63, 0
3, 175080, Note_on_c, 1, 51, 0
3, 175080, Note_on_c, 1, 51, 100
3, 175080, Note_on_c, 1, 63, 100
3, 175200, Note_on_c, 1, 63, 0
3, 175200, Note_on_c, 1, 51, 0
3, 175200, Note_on_c, 1, 51, 100
3, 175200, Note_on_c, 1, 63, 100
3, 175800, Note_on_c, 1, 63, 0
3, 175800, Note_on_c, 1, 51, 0
3, 175800, Note_on_c, 1, 51, 100
3, 175800, Note_on_c, 1, 63, 100
3, 175890, Note_on_c, 1, 63, 0
3, 175890, Note_on_c, 1, 51, 0
3, 175890, Note_on_c, 1, 51, 100
3, 175890, Note_on_c, 1, 63, 100
3, 175920, Note_on_c, 1, 63, 0
3, 175920, Note_on_c, 1, 51, 0
3, 175920, Note_on_c, 1, 51, 100
3, 175920, Note_on_c, 1, 63, 100
3, 176040, Note_on_c, 1, 63, 0
3, 176040, Note_on_c, 1, 51, 0
3, 176040, Note_on_c, 1, 51, 100
3, 176040, Note_on_c, 1, 63, 100
3, 176160, Note_on_c, 1, 63, 0
3, 176160, Note_on_c, 1, 51, 0
3, 176160, Note_on_c, 1, 51, 100
3, 176160, Note_on_c, 1, 63, 100
3, 177120, Note_on_c, 1, 63, 0
3, 177120, Note_on_c, 1, 51, 0
3, 177120, Note_on_c, 1, 46, 100
3, 177120, Note_on_c, 1, 58, 100
3, 178080, Note_on_c, 1, 58, 0
3, 178080, Note_on_c, 1, 46, 0
3, 178080, Note_on_c, 1, 51, 100
3, 178080, Note_on_c, 1, 63, 100
3, 178620, Note_on_c, 1, 63, 0
3, 178620, Note_on_c, 1, 51, 0
3, 178620, Note_on_c, 1, 51, 100
3, 178620, Note_on_c, 1, 63, 100
3, 178680, Note_on_c, 1, 63, 0
3, 178680, Note_on_c, 1, 51, 0
3, 178680, Note_on_c, 1, 51, 100
3, 178680, Note_on_c, 1, 63, 100
3, 178740, Note_on_c, 1, 63, 0
3, 178740, Note_on_c, 1, 51, 0
3, 178740, Note_on_c, 1, 51, 100
3, 178740, Note_on_c, 1, 63, 100
3, 178800, Note_on_c, 1, 63, 0
3, 178800, Note_on_c, 1, 51, 0
3, 178800, Note_on_c, 1, 51, 100
3, 178800, Note_on_c, 1, 63, 100
3, 178860, Note_on_c, 1, 63, 0
3, 178860, Note_on_c, 1, 51, 0
3, 178860, Note_on_c, 1, 51, 100
3, 178860, Note_on_c, 1, 63, 100
3, 178920, Note_on_c, 1, 63, 0
3, 178920, Note_on_c, 1, 51, 0
3, 178920, Note_on_c, 1, 51, 100
3, 178920, Note_on_c, 1, 63, 100
3, 178980, Note_on_c, 1, 63, 0
3, 178980, Note_on_c, 1, 51, 0
3, 178980, Note_on_c, 1, 51, 100
3, 178980, Note_on_c, 1, 63, 100
3, 179040, Note_on_c, 1, 63, 0
3, 179040, Note_on_c, 1, 51, 0
3, 179040, Note_on_c, 1, 51, 100
3, 179040, Note_on_c, 1, 63, 100
3, 179580, Note_on_c, 1, 63, 0
3, 179580, Note_on_c, 1, 51, 0
3, 179580, Note_on_c, 1, 51, 100
3, 179580, Note_on_c, 1, 63, 100
3, 179640, Note_on_c, 1, 63, 0
3, 179640, Note_on_c, 1, 51, 0
3, 179640, Note_on_c, 1, 51, 100
3, 179640, Note_on_c, 1, 63, 100
3, 179700, Note_on_c, 1, 63, 0
3, 179700, Note_on_c, 1, 51, 0
3, 179700, Note_on_c, 1, 51, 100
3, 179700, Note_on_c, 1, 63, 100
3, 179760, Note_on_c, 1, 63, 0
3, 179760, Note_on_c, 1, 51, 0
3, 179760, Note_on_c, 1, 51, 100
3, 179760, Note_on_c, 1, 63, 100
3, 179820, Note_on_c, 1, 63, 0
3, 179820, Note_on_c, 1, 51, 0
3, 179820, Note_on_c, 1, 51, 100
3, 179820, Note_on_c, 1, 63, 100
3, 179880, Note_on_c, 1, 63, 0
3, 179880, Note_on_c, 1, 51, 0
3, 179880, Note_on_c, 1, 51, 100
3, 179880, Note_on_c, 1, 63, 100
3, 179940, Note_on_c, 1, 63, 0
3, 179940, Note_on_c, 1, 51, 0
3, 179940, Note_on_c, 1, 51, 100
3, 179940, Note_on_c, 1, 63, 100
3, 180000, Note_on_c, 1, 63, 0
3, 180000, Note_on_c, 1, 51, 0
3, 180000, Note_on_c, 1, 51, 100
3, 180000, Note_on_c, 1, 63, 100
3, 180120, Note_on_c, 1, 63, 0
3, 180120, Note_on_c, 1, 51, 0
3, 180120, Note_on_c, 1, 63, 100
3, 180180, Note_on_c, 1, 63, 0
3, 180180, Note_on_c, 1, 58, 100
3, 180240, Note_on_c, 1, 58, 0
3, 180240, Note_on_c, 1, 63, 100
3, 180300, Note_on_c, 1, 63, 0
3, 180300, Note_on_c, 1, 58, 100
3, 180360, Note_on_c, 1, 58, 0
3, 180360, Note_on_c, 1, 63, 100
3, 180420, Note_on_c, 1, 63, 0
3, 180420, Note_on_c, 1, 58, 100
3, 180480, Note_on_c, 1, 58, 0
3, 180480, Note_on_c, 1, 63, 100
3, 180600, Note_on_c, 1, 63, 0
3, 180600, Note_on_c, 1, 51, 100
3, 180600, Note_on_c, 1, 55, 100
3, 180660, Note_on_c, 1, 55, 0
3, 180660, Note_on_c, 1, 51, 0
3, 180660, Note_on_c, 1, 55, 100
3, 180660, Note_on_c, 1, 58, 100
3, 180720, Note_on_c, 1, 58, 0
3, 180720, Note_on_c, 1, 55, 0
3, 180720, Note_on_c, 1, 51, 100
3, 180780, Note_on_c, 1, 51, 0
3, 180780, Note_on_c, 1, 55, 100
3, 180780, Note_on_c, 1, 58, 100
3, 180840, Note_on_c, 1, 58, 0
3, 180840, Note_on_c, 1, 55, 0
3, 180840, Note_on_c, 1, 51, 100
3, 180840, Note_on_c, 1, 55, 100
3, 180900, Note_on_c, 1, 55, 0
3, 180900, Note_on_c, 1, 51, 0
3, 180900, Note_on_c, 1, 55, 100
3, 180900, Note_on_c, 1, 58, 100
3, 180960, Note_on_c, 1, 58, 0
3, 180960, Note_on_c, 1, 55, 0
3, 180960, Note_on_c, 1, 51, 100
3, 180960, Note_on_c, 1, 55, 100
3, 181560, Note_on_c, 1, 55, 0
3, 181560, Note_on_c, 1, 51, 0
3, 181560, Note_on_c, 1, 51, 100
3, 181560, Note_on_c, 1, 55, 100
3, 181680, Note_on_c, 1, 55, 0
3, 181680, Note_on_c, 1, 51, 0
3, 181680, Note_on_c, 1, 51, 100
3, 181680, Note_on_c, 1, 55, 100
3, 181800, Note_on_c, 1, 55, 0
3, 181800, Note_on_c, 1, 51, 0
3, 181800, Note_on_c, 1, 51, 100
3, 181800, Note_on_c, 1, 55, 100
3, 181920, Note_on_c, 1, 55, 0
3, 181920, Note_on_c, 1, 51, 0
3, 181920, Note_on_c, 1, 51, 100
3, 181920, Note_on_c, 1, 55, 100
3, 182040, Note_on_c, 1, 55, 0
3, 182040, Note_on_c, 1, 51, 0
3, 182040, Note_on_c, 1, 51, 100
3, 182040, Note_on_c, 1, 63, 100
3, 182100, Note_on_c, 1, 63, 0
3, 182100, Note_on_c, 1, 51, 0
3, 182100, Note_on_c, 1, 46, 100
3, 182100, Note_on_c, 1, 58, 100
3, 182160, Note_on_c, 1, 58, 0
3, 182160, Note_on_c, 1, 46, 0
3, 182160, Note_on_c, 1, 51, 100
3, 182160, Note_on_c, 1, 63, 100
3, 182220, Note_on_c, 1, 63, 0
3, 182220, Note_on_c, 1, 51, 0
3, 182220, Note_on_c, 1, 46, 100
3, 182220, Note_on_c, 1, 58, 100
3, 182280, Note_on_c, 1, 58, 0
3, 182280, Note_on_c, 1, 46, 0
3, 182280, Note_on_c, 1, 51, 100
3, 182280, Note_on_c, 1, 63, 100
3, 182340, Note_on_c, 1, 63, 0
3, 182340, Note_on_c, 1, 51, 0
3, 182340, Note_on_c, 1, 46, 100
3, 182340, Note_on_c, 1, 58, 100
3, 182400, Note_on_c, 1, 58, 0
3, 182400, Note_on_c, 1, 46, 0
3, 182400, Note_on_c, 1, 51, 100
3, 182400, Note_on_c, 1, 63, 100
3, 182520, Note_on_c, 1, 63, 0
3, 182520, Note_on_c, 1, 51, 0
3, 182610, Note_on_c, 1, 51, 100
3, 182640, Note_on_c, 1, 51, 0
3, 182640, Note_on_c, 1, 51, 100
3, 182760, Note_on_c, 1, 51, 0
3, 182850, Note_on_c, 1, 51, 100
3, 182880, Note_on_c, 1, 51, 0
3, 182880, Note_on_c, 1, 51, 100
3, 183120, Note_on_c, 1, 51, 0
3, 183120, End_track
4, 0, Start_track
4, 0, MIDI_port, 0
4, 0, Title_t, "Violino principale"
4, 0, Program_c, 2, 40
4, 0, Note_on_c, 2, 55, 100
4, 0, Note_on_c, 2, 63, 100
4, 480, Note_on_c, 2, 63, 0
4, 480, Note_on_c, 2, 55, 0
4, 480, Note_on_c, 2, 55, 100
4, 480, Note_on_c, 2, 63, 100
4, 720, Note_on_c, 2, 63, 0
4, 720, Note_on_c, 2, 55, 0
4, 720, Note_on_c, 2, 55, 100
4, 720, Note_on_c, 2, 63, 100
4, 900, Note_on_c, 2, 63, 0
4, 900, Note_on_c, 2, 55, 0
4, 900, Note_on_c, 2, 55, 100
4, 900, Note_on_c, 2, 63, 100
4, 960, Note_on_c, 2, 63, 0
4, 960, Note_on_c, 2, 55, 0
4, 960, Note_on_c, 2, 55, 100
4, 960, Note_on_c, 2, 63, 100
4, 1020, Note_on_c, 2, 63, 0
4, 1020, Note_on_c, 2, 55, 0
4, 1080, Note_on_c, 2, 82, 100
4, 1140, Note_on_c, 2, 82, 0
4, 1200, Note_on_c, 2, 79, 100
4, 1260, Note_on_c, 2, 79, 0
4, 1320, Note_on_c, 2, 75, 100
4, 1380, Note_on_c, 2, 75, 0
4, 1440, Note_on_c, 2, 70, 100
4, 1500, Note_on_c, 2, 70, 0
4, 1560, Note_on_c, 2, 67, 100
4, 1620, Note_on_c, 2, 67, 0
4, 1680, Note_on_c, 2, 63, 100
4, 1740, Note_on_c, 2, 63, 0
4, 1800, Note_on_c, 2, 58, 100
4, 1860, Note_on_c, 2, 58, 0
4, 1920, Note_on_c, 2, 56, 100
4, 2040, Note_on_c, 2, 56, 0
4, 2040, Note_on_c, 2, 70, 100
4, 2040, Note_on_c, 2, 80, 100
4, 2280, Note_on_c, 2, 80, 0
4, 2280, Note_on_c, 2, 70, 0
4, 2280, Note_on_c, 2, 70, 100
4, 2280, Note_on_c, 2, 80, 100
4, 2520, Note_on_c, 2, 80, 0
4, 2520, Note_on_c, 2, 70, 0
4, 2520, Note_on_c, 2, 70, 100
4, 2520, Note_on_c, 2, 80, 100
4, 2745, Note_on_c, 2, 82, 100
4, 2760, Note_on_c, 2, 82, 0
4, 2760, Note_on_c, 2, 80, 0
4, 2760, Note_on_c, 2, 70, 0
4, 2760, Note_on_c, 2, 80, 100
4, 2820, Note_on_c, 2, 80, 0
4, 2820, Note_on_c, 2, 79, 100
4, 2850, Note_on_c, 2, 79, 0
4, 2850, Note_on_c, 2, 77, 100
4, 2880, Note_on_c, 2, 77, 0
4, 2880, Note_on_c, 2, 75, 100
4, 2940, Note_on_c, 2, 75, 0
4, 3000, Note_on_c, 2, 82, 100
4, 3060, Note_on_c, 2, 82, 0
4, 3120, Note_on_c, 2, 79, 100
4, 3180, Note_on_c, 2, 79, 0
4, 3240, Note_on_c, 2, 75, 100
4, 3300, Note_on_c, 2, 75, 0
4, 3360, Note_on_c, 2, 70, 100
4, 3420, Note_on_c, 2, 70, 0
4, 3480, Note_on_c, 2, 67, 100
4, 3540, Note_on_c, 2, 67, 0
4, 3600, Note_on_c, 2, 63, 100
4, 3660, Note_on_c, 2, 63, 0
4, 3720, Note_on_c, 2, 58, 100
4, 3780, Note_on_c, 2, 58, 0
4, 3840, Note_on_c, 2, 56, 100
4, 3960, Note_on_c, 2, 56, 0
4, 3960, Note_on_c, 2, 68, 100
4, 3960, Note_on_c, 2, 80, 100
4, 4200, Note_on_c, 2, 80, 0
4, 4200, Note_on_c, 2, 68, 0
4, 4200, Note_on_c, 2, 68, 100
4, 4200, Note_on_c, 2, 80, 100
4, 4440, Note_on_c, 2, 80, 0
4, 4440, Note_on_c, 2, 68, 0
4, 4440, Note_on_c, 2, 68, 100
4, 4440, Note_on_c, 2, 80, 100
4, 4665, Note_on_c, 2, 82, 100
4, 4680, Note_on_c, 2, 82, 0
4, 4680, Note_on_c, 2, 80, 0
4, 4680, Note_on_c, 2, 68, 0
4, 4680, Note_on_c, 2, 80, 100
4, 4740, Note_on_c, 2, 80, 0
4, 4740, Note_on_c, 2, 79, 100
4, 4770, Note_on_c, 2, 79, 0
4, 4770, Note_on_c, 2, 77, 100
4, 4800, Note_on_c, 2, 77, 0
4, 4800, Note_on_c, 2, 75, 100
4, 4920, Note_on_c, 2, 75, 0
4, 5160, Note_on_c, 2, 75, 100
4, 5250, Note_on_c, 2, 75, 0
4, 5250, Note_on_c, 2, 73, 100
4, 5280, Note_on_c, 2, 73, 0
4, 5280, Note_on_c, 2, 73, 100
4, 5505, Note_on_c, 2, 72, 100
4, 5520, Note_on_c, 2, 72, 0
4, 5520, Note_on_c, 2, 73, 0
4, 5520, Note_on_c, 2, 70, 100
4, 5625, Note_on_c, 2, 68, 100
4, 5640, Note_on_c, 2, 68, 0
4, 5640, Note_on_c, 2, 70, 0
4, 5640, Note_on_c, 2, 67, 100
4, 5760, Note_on_c, 2, 67, 0
4, 5760, Note_on_c, 2, 68, 100
4, 5940, Note_on_c, 2, 68, 0
4, 5940, Note_on_c, 2, 70, 100
4, 6000, Note_on_c, 2, 70, 0
4, 6000, Note_on_c, 2, 72, 100
4, 6120, Note_on_c, 2, 72, 0
4, 7200, Note_on_c, 2, 67, 100
4, 7380, Note_on_c, 2, 67, 0
4, 7380, Note_on_c, 2, 68, 100
4, 7440, Note_on_c, 2, 68, 0
4, 7440, Note_on_c, 2, 70, 100
4, 7560, Note_on_c, 2, 70, 0
4, 7560, Note_on_c, 2, 70, 100
4, 7680, Note_on_c, 2, 70, 0
4, 7680, Note_on_c, 2, 70, 100
4, 7800, Note_on_c, 2, 70, 0
4, 7800, Note_on_c, 2, 68, 100
4, 7860, Note_on_c, 2, 68, 0
4, 7920, Note_on_c, 2, 68, 100
4, 8040, Note_on_c, 2, 68, 0
4, 8040, Note_on_c, 2, 67, 100
4, 8100, Note_on_c, 2, 67, 0
4, 8160, Note_on_c, 2, 67, 100
4, 8220, Note_on_c, 2, 67, 0
4, 8220, Note_on_c, 2, 65, 100
4, 8280, Note_on_c, 2, 65, 0
4, 8280, Note_on_c, 2, 68, 100
4, 8340, Note_on_c, 2, 68, 0
4, 8340, Note_on_c, 2, 72, 100
4, 8400, Note_on_c, 2, 72, 0
4, 8400, Note_on_c, 2, 63, 100
4, 8520, Note_on_c, 2, 63, 0
4, 8520, Note_on_c, 2, 62, 100
4, 8640, Note_on_c, 2, 62, 0
4, 8640, Note_on_c, 2, 63, 100
4, 8760, Note_on_c, 2, 63, 0
4, 8760, Note_on_c, 2, 75, 100
4, 8850, Note_on_c, 2, 75, 0
4, 8850, Note_on_c, 2, 73, 100
4, 8880, Note_on_c, 2, 73, 0
4, 8880, Note_on_c, 2, 73, 100
4, 9225, Note_on_c, 2, 75, 100
4, 9240, Note_on_c, 2, 75, 0
4, 9240, Note_on_c, 2, 73, 0
4, 9240, Note_on_c, 2, 73, 100
4, 9345, Note_on_c, 2, 72, 100
4, 9360, Note_on_c, 2, 72, 0
4, 9360, Note_on_c, 2, 73, 0
4, 9360, Note_on_c, 2, 70, 100
4, 9465, Note_on_c, 2, 68, 100
4, 9480, Note_on_c, 2, 68, 0
4, 9480, Note_on_c, 2, 70, 0
4, 9480, Note_on_c, 2, 67, 100
4, 9600, Note_on_c, 2, 67, 0
4, 9600, Note_on_c, 2, 68, 100
4, 9780, Note_on_c, 2, 68, 0
4, 9780, Note_on_c, 2, 70, 100
4, 9840, Note_on_c, 2, 70, 0
4, 9840, Note_on_c, 2, 72, 100
4, 9960, Note_on_c, 2, 72, 0
4, 11040, Note_on_c, 2, 67, 100
4, 11220, Note_on_c, 2, 67, 0
4, 11220, Note_on_c, 2, 68, 100
4, 11280, Note_on_c, 2, 68, 0
4, 11280, Note_on_c, 2, 70, 100
4, 11340, Note_on_c, 2, 70, 0
4, 11340, Note_on_c, 2, 70, 100
4, 11400, Note_on_c, 2, 70, 0
4, 11400, Note_on_c, 2, 70, 100
4, 11460, Note_on_c, 2, 70, 0
4, 11460, Note_on_c, 2, 70, 100
4, 11520, Note_on_c, 2, 70, 0
4, 11520, Note_on_c, 2, 70, 100
4, 11640, Note_on_c, 2, 70, 0
4, 11640, Note_on_c, 2, 68, 100
4, 11700, Note_on_c, 2, 68, 0
4, 11760, Note_on_c, 2, 68, 100
4, 11880, Note_on_c, 2, 68, 0
4, 11880, Note_on_c, 2, 67, 100
4, 11940, Note_on_c, 2, 67, 0
4, 12000, Note_on_c, 2, 67, 100
4, 12060, Note_on_c, 2, 67, 0
4, 12060, Note_on_c, 2, 65, 100
4, 12120, Note_on_c, 2, 65, 0
4, 12120, Note_on_c, 2, 68, 100
4, 12180, Note_on_c, 2, 68, 0
4, 12180, Note_on_c, 2, 72, 100
4, 12240, Note_on_c, 2, 72, 0
4, 12240, Note_on_c, 2, 63, 100
4, 12360, Note_on_c, 2, 63, 0
4, 12360, Note_on_c, 2, 62, 100
4, 12480, Note_on_c, 2, 62, 0
4, 12480, Note_on_c, 2, 55, 100
4, 12480, Note_on_c, 2, 63, 100
4, 12600, Note_on_c, 2, 63, 0
4, 12600, Note_on_c, 2, 55, 0
4, 12660, Note_on_c, 2, 63, 100
4, 12690, Note_on_c, 2, 63, 0
4, 12690, Note_on_c, 2, 65, 100
4, 12705, Note_on_c, 2, 68, 100
4, 12720, Note_on_c, 2, 68, 0
4, 12720, Note_on_c, 2, 65, 0
4, 12720, Note_on_c, 2, 67, 100
4, 12780, Note_on_c, 2, 67, 0
4, 12780, Note_on_c, 2, 65, 100
4, 12810, Note_on_c, 2, 65, 0
4, 12810, Note_on_c, 2, 63, 100
4, 12825, Note_on_c, 2, 68, 100
4, 12840, Note_on_c, 2, 68, 0
4, 12840, Note_on_c, 2, 63, 0
4, 12840, Note_on_c, 2, 67, 100
4, 12900, Note_on_c, 2, 67, 0
4, 12900, Note_on_c, 2, 65, 100
4, 12930, Note_on_c, 2, 65, 0
4, 12930, Note_on_c, 2, 63, 100
4, 12960, Note_on_c, 2, 63, 0
4, 12960, Note_on_c, 2, 70, 100
4, 13080, Note_on_c, 2, 70, 0
4, 13140, Note_on_c, 2, 70, 100
4, 13170, Note_on_c, 2, 70, 0
4, 13170, Note_on_c, 2, 72, 100
4, 13185, Note_on_c, 2, 75, 100
4, 13200, Note_on_c, 2, 75, 0
4, 13200, Note_on_c, 2, 72, 0
4, 13200, Note_on_c, 2, 74, 100
4, 13260, Note_on_c, 2, 74, 0
4, 13260, Note_on_c, 2, 72, 100
4, 13290, Note_on_c, 2, 72, 0
4, 13290, Note_on_c, 2, 70, 100
4, 13305, Note_on_c, 2, 75, 100
4, 13320, Note_on_c, 2, 75, 0
4, 13320, Note_on_c, 2, 70, 0
4, 13320, Note_on_c, 2, 74, 100
4, 13380, Note_on_c, 2, 74, 0
4, 13380, Note_on_c, 2, 72, 100
4, 13410, Note_on_c, 2, 72, 0
4, 13410, Note_on_c, 2, 70, 100
4, 13440, Note_on_c, 2, 70, 0
4, 13440, Note_on_c, 2, 75, 100
4, 13560, Note_on_c, 2, 75, 0
4, 13620, Note_on_c, 2, 75, 100
4, 13650, Note_on_c, 2, 75, 0
4, 13650, Note_on_c, 2, 77, 100
4, 13665, Note_on_c, 2, 80, 100
4, 13680, Note_on_c, 2, 80, 0
4, 13680, Note_on_c, 2, 77, 0
4, 13680, Note_on_c, 2, 79, 100
4, 13740, Note_on_c, 2, 79, 0
4, 13740, Note_on_c, 2, 77, 100
4, 13770, Note_on_c, 2, 77, 0
4, 13770, Note_on_c, 2, 75, 100
4, 13785, Note_on_c, 2, 80, 100
4, 13800, Note_on_c, 2, 80, 0
4, 13800, Note_on_c, 2, 75, 0
4, 13800, Note_on_c, 2, 79, 100
4, 13860, Note_on_c, 2, 79, 0
4, 13860, Note_on_c, 2, 77, 100
4, 13890, Note_on_c, 2, 77, 0
4, 13890, Note_on_c, 2, 75, 100
4, 13920, Note_on_c, 2, 75, 0
4, 13920, Note_on_c, 2, 82, 100
4, 13920, Note_on_c, 2, 70, 100
4, 13980, Note_on_c, 2, 70, 0
4, 13980, Note_on_c, 2, 82, 0
4, 13980, Note_on_c, 2, 70, 100
4, 13980, Note_on_c, 2, 82, 100
4, 14100, Note_on_c, 2, 82, 0
4, 14100, Note_on_c, 2, 70, 0
4, 14100, Note_on_c, 2, 70, 100
4, 14100, Note_on_c, 2, 82, 100
4, 14220, Note_on_c, 2, 82, 0
4, 14220, Note_on_c, 2, 70, 0
4, 14220, Note_on_c, 2, 82, 100
4, 14220, Note_on_c, 2, 70, 100
4, 14340, Note_on_c, 2, 70, 0
4, 14340, Note_on_c, 2, 82, 0
4, 14340, Note_on_c, 2, 70, 100
4, 14340, Note_on_c, 2, 82, 100
4, 14460, Note_on_c, 2, 82, 0
4, 14460, Note_on_c, 2, 70, 0
4, 14460, Note_on_c, 2, 70, 100
4, 14460, Note_on_c, 2, 82, 100
4, 14580, Note_on_c, 2, 82, 0
4, 14580, Note_on_c, 2, 70, 0
4, 14580, Note_on_c, 2, 70, 100
4, 14580, Note_on_c, 2, 82, 100
4, 14700, Note_on_c, 2, 82, 0
4, 14700, Note_on_c, 2, 70, 0
4, 14700, Note_on_c, 2, 70, 100
4, 14700, Note_on_c, 2, 82, 100
4, 14820, Note_on_c, 2, 82, 0
4, 14820, Note_on_c, 2, 70, 0
4, 14820, Note_on_c, 2, 70, 100
4, 14820, Note_on_c, 2, 82, 100
4, 14880, Note_on_c, 2, 82, 0
4, 14880, Note_on_c, 2, 70, 0
4, 14880, Note_on_c, 2, 70, 100
4, 14880, Note_on_c, 2, 82, 100
4, 14910, Note_on_c, 2, 82, 0
4, 14910, Note_on_c, 2, 70, 0
4, 14910, Note_on_c, 2, 70, 100
4, 14910, Note_on_c, 2, 82, 100
4, 14940, Note_on_c, 2, 82, 0
4, 14940, Note_on_c, 2, 70, 0
4, 14940, Note_on_c, 2, 70, 100
4, 14940, Note_on_c, 2, 82, 100
4, 14970, Note_on_c, 2, 82, 0
4, 14970, Note_on_c, 2, 70, 0
4, 14970, Note_on_c, 2, 70, 100
4, 14970, Note_on_c, 2, 82, 100
4, 15000, Note_on_c, 2, 82, 0
4, 15000, Note_on_c, 2, 70, 0
4, 15000, Note_on_c, 2, 70, 100
4, 15000, Note_on_c, 2, 82, 100
4, 15030, Note_on_c, 2, 82, 0
4, 15030, Note_on_c, 2, 70, 0
4, 15030, Note_on_c, 2, 70, 100
4, 15030, Note_on_c, 2, 82, 100
4, 15060, Note_on_c, 2, 82, 0
4, 15060, Note_on_c, 2, 70, 0
4, 15060, Note_on_c, 2, 70, 100
4, 15060, Note_on_c, 2, 82, 100
4, 15090, Note_on_c, 2, 82, 0
4, 15090, Note_on_c, 2, 70, 0
4, 15090, Note_on_c, 2, 70, 100
4, 15090, Note_on_c, 2, 82, 100
4, 15120, Note_on_c, 2, 82, 0
4, 15120, Note_on_c, 2, 70, 0
4, 15120, Note_on_c, 2, 70, 100
4, 15120, Note_on_c, 2, 82, 100
4, 15150, Note_on_c, 2, 82, 0
4, 15150, Note_on_c, 2, 70, 0
4, 15150, Note_on_c, 2, 70, 100
4, 15150, Note_on_c, 2, 82, 100
4, 15180, Note_on_c, 2, 82, 0
4, 15180, Note_on_c, 2, 70, 0
4, 15180, Note_on_c, 2, 70, 100
4, 15180, Note_on_c, 2, 82, 100
4, 15210, Note_on_c, 2, 82, 0
4, 15210, Note_on_c, 2, 70, 0
4, 15210, Note_on_c, 2, 70, 100
4, 15210, Note_on_c, 2, 82, 100
4, 15240, Note_on_c, 2, 82, 0
4, 15240, Note_on_c, 2, 70, 0
4, 15240, Note_on_c, 2, 70, 100
4, 15240, Note_on_c, 2, 82, 100
4, 15270, Note_on_c, 2, 82, 0
4, 15270, Note_on_c, 2, 70, 0
4, 15270, Note_on_c, 2, 70, 100
4, 15270, Note_on_c, 2, 82, 100
4, 15300, Note_on_c, 2, 82, 0
4, 15300, Note_on_c, 2, 70, 0
4, 15300, Note_on_c, 2, 70, 100
4, 15300, Note_on_c, 2, 82, 100
4, 15330, Note_on_c, 2, 82, 0
4, 15330, Note_on_c, 2, 70, 0
4, 15330, Note_on_c, 2, 82, 100
4, 15330, Note_on_c, 2, 70, 100
4, 15360, Note_on_c, 2, 70, 0
4, 15360, Note_on_c, 2, 82, 0
4, 15360, Note_on_c, 2, 82, 100
4, 15360, Note_on_c, 2, 70, 100
4, 15390, Note_on_c, 2, 70, 0
4, 15390, Note_on_c, 2, 82, 0
4, 15390, Note_on_c, 2, 82, 100
4, 15390, Note_on_c, 2, 70, 100
4, 15420, Note_on_c, 2, 70, 0
4, 15420, Note_on_c, 2, 82, 0
4, 15420, Note_on_c, 2, 82, 100
4, 15420, Note_on_c, 2, 70, 100
4, 15450, Note_on_c, 2, 70, 0
4, 15450, Note_on_c, 2, 82, 0
4, 15450, Note_on_c, 2, 82, 100
4, 15450, Note_on_c, 2, 70, 100
4, 15480, Note_on_c, 2, 70, 0
4, 15480, Note_on_c, 2, 82, 0
4, 15480, Note_on_c, 2, 82, 100
4, 15480, Note_on_c, 2, 70, 100
4, 15510, Note_on_c, 2, 70, 0
4, 15510, Note_on_c, 2, 82, 0
4, 15510, Note_on_c, 2, 82, 100
4, 15510, Note_on_c, 2, 70, 100
4, 15540, Note_on_c, 2, 70, 0
4, 15540, Note_on_c, 2, 82, 0
4, 15540, Note_on_c, 2, 82, 100
4, 15540, Note_on_c, 2, 70, 100
4, 15570, Note_on_c, 2, 70, 0
4, 15570, Note_on_c, 2, 82, 0
4, 15570, Note_on_c, 2, 82, 100
4, 15570, Note_on_c, 2, 70, 100
4, 15600, Note_on_c, 2, 70, 0
4, 15600, Note_on_c, 2, 82, 0
4, 15600, Note_on_c, 2, 82, 100
4, 15600, Note_on_c, 2, 70, 100
4, 15630, Note_on_c, 2, 70, 0
4, 15630, Note_on_c, 2, 82, 0
4, 15630, Note_on_c, 2, 82, 100
4, 15630, Note_on_c, 2, 70, 100
4, 15660, Note_on_c, 2, 70, 0
4, 15660, Note_on_c, 2, 82, 0
4, 15660, Note_on_c, 2, 82, 100
4, 15660, Note_on_c, 2, 70, 100
4, 15690, Note_on_c, 2, 70, 0
4, 15690, Note_on_c, 2, 82, 0
4, 15690, Note_on_c, 2, 82, 100
4, 15690, Note_on_c, 2, 70, 100
4, 15720, Note_on_c, 2, 70, 0
4, 15720, Note_on_c, 2, 82, 0
4, 15720, Note_on_c, 2, 82, 100
4, 15720, Note_on_c, 2, 70, 100
4, 15750, Note_on_c, 2, 70, 0
4, 15750, Note_on_c, 2, 82, 0
4, 15750, Note_on_c, 2, 82, 100
4, 15750, Note_on_c, 2, 70, 100
4, 15780, Note_on_c, 2, 70, 0
4, 15780, Note_on_c, 2, 82, 0
4, 15780, Note_on_c, 2, 82, 100
4, 15780, Note_on_c, 2, 70, 100
4, 15810, Note_on_c, 2, 70, 0
4, 15810, Note_on_c, 2, 82, 0
4, 15810, Note_on_c, 2, 82, 100
4, 15810, Note_on_c, 2, 70, 100
4, 15840, Note_on_c, 2, 70, 0
4, 15840, Note_on_c, 2, 82, 0
4, 15840, Note_on_c, 2, 70, 100
4, 15840, Note_on_c, 2, 82, 100
4, 15870, Note_on_c, 2, 82, 0
4, 15870, Note_on_c, 2, 70, 0
4, 15870, Note_on_c, 2, 70, 100
4, 15870, Note_on_c, 2, 82, 100
4, 15900, Note_on_c, 2, 82, 0
4, 15900, Note_on_c, 2, 70, 0
4, 15900, Note_on_c, 2, 70, 100
4, 15900, Note_on_c, 2, 82, 100
4, 15930, Note_on_c, 2, 82, 0
4, 15930, Note_on_c, 2, 70, 0
4, 15930, Note_on_c, 2, 70, 100
4, 15930, Note_on_c, 2, 82, 100
4, 15960, Note_on_c, 2, 82, 0
4, 15960, Note_on_c, 2, 70, 0
4, 15960, Note_on_c, 2, 82, 100
4, 15960, Note_on_c, 2, 70, 100
4, 15990, Note_on_c, 2, 70, 0
4, 15990, Note_on_c, 2, 82, 0
4, 15990, Note_on_c, 2, 82, 100
4, 15990, Note_on_c, 2, 70, 100
4, 16020, Note_on_c, 2, 70, 0
4, 16020, Note_on_c, 2, 82, 0
4, 16020, Note_on_c, 2, 82, 100
4, 16020, Note_on_c, 2, 70, 100
4, 16050, Note_on_c, 2, 70, 0
4, 16050, Note_on_c, 2, 82, 0
4, 16050, Note_on_c, 2, 82, 100
4, 16050, Note_on_c, 2, 70, 100
4, 16080, Note_on_c, 2, 70, 0
4, 16080, Note_on_c, 2, 82, 0
4, 16080, Note_on_c, 2, 82, 100
4, 16080, Note_on_c, 2, 70, 100
4, 16110, Note_on_c, 2, 70, 0
4, 16110, Note_on_c, 2, 82, 0
4, 16110, Note_on_c, 2, 82, 100
4, 16110, Note_on_c, 2, 70, 100
4, 16140, Note_on_c, 2, 70, 0
4, 16140, Note_on_c, 2, 82, 0
4, 16140, Note_on_c, 2, 82, 100
4, 16140, Note_on_c, 2, 70, 100
4, 16170, Note_on_c, 2, 70, 0
4, 16170, Note_on_c, 2, 82, 0
4, 16170, Note_on_c, 2, 82, 100
4, 16170, Note_on_c, 2, 70, 100
4, 16200, Note_on_c, 2, 70, 0
4, 16200, Note_on_c, 2, 82, 0
4, 16200, Note_on_c, 2, 82, 100
4, 16200, Note_on_c, 2, 70, 100
4, 16230, Note_on_c, 2, 70, 0
4, 16230, Note_on_c, 2, 82, 0
4, 16230, Note_on_c, 2, 82, 100
4, 16230, Note_on_c, 2, 70, 100
4, 16260, Note_on_c, 2, 70, 0
4, 16260, Note_on_c, 2, 82, 0
4, 16260, Note_on_c, 2, 82, 100
4, 16260, Note_on_c, 2, 70, 100
4, 16290, Note_on_c, 2, 70, 0
4, 16290, Note_on_c, 2, 82, 0
4, 16290, Note_on_c, 2, 82, 100
4, 16290, Note_on_c, 2, 70, 100
4, 16320, Note_on_c, 2, 70, 0
4, 16320, Note_on_c, 2, 82, 0
4, 16320, Note_on_c, 2, 70, 100
4, 16320, Note_on_c, 2, 82, 100
4, 16440, Note_on_c, 2, 82, 0
4, 16440, Note_on_c, 2, 70, 0
4, 16530, Note_on_c, 2, 58, 100
4, 16560, Note_on_c, 2, 58, 0
4, 16560, Note_on_c, 2, 58, 100
4, 16680, Note_on_c, 2, 58, 0
4, 16680, Note_on_c, 2, 58, 100
4, 16800, Note_on_c, 2, 58, 0
4, 16800, Note_on_c, 2, 58, 100
4, 16920, Note_on_c, 2, 58, 0
4, 17250, Note_on_c, 2, 77, 100
4, 17265, Note_on_c, 2, 77, 0
4, 17265, Note_on_c, 2, 79, 100
4, 17280, Note_on_c, 2, 79, 0
4, 17280, Note_on_c, 2, 80, 100
4, 17340, Note_on_c, 2, 80, 0
4, 17340, Note_on_c, 2, 79, 100
4, 17400, Note_on_c, 2, 79, 0
4, 17400, Note_on_c, 2, 77, 100
4, 17460, Note_on_c, 2, 77, 0
4, 17460, Note_on_c, 2, 75, 100
4, 17520, Note_on_c, 2, 75, 0
4, 17520, Note_on_c, 2, 74, 100
4, 17580, Note_on_c, 2, 74, 0
4, 17580, Note_on_c, 2, 72, 100
4, 17640, Note_on_c, 2, 72, 0
4, 17640, Note_on_c, 2, 70, 100
4, 17700, Note_on_c, 2, 70, 0
4, 17700, Note_on_c, 2, 68, 100
4, 17760, Note_on_c, 2, 68, 0
4, 17760, Note_on_c, 2, 67, 100
4, 17880, Note_on_c, 2, 67, 0
4, 17880, Program_c, 2, 45
4, 18000, Note_on_c, 2, 82, 100
4, 18060, Note_on_c, 2, 82, 0
4, 18120, Note_on_c, 2, 79, 100
4, 18180, Note_on_c, 2, 79, 0
4, 18240, Note_on_c, 2, 75, 100
4, 18300, Note_on_c, 2, 75, 0
4, 18360, Note_on_c, 2, 70, 100
4, 18420, Note_on_c, 2, 70, 0
4, 18480, Note_on_c, 2, 67, 100
4, 18540, Note_on_c, 2, 67, 0
4, 18600, Note_on_c, 2, 63, 100
4, 18660, Note_on_c, 2, 63, 0
4, 18840, Note_on_c, 2, 82, 100
4, 18960, Note_on_c, 2, 82, 0
4, 19080, Note_on_c, 2, 82, 100
4, 19200, Note_on_c, 2, 82, 0
4, 19320, Note_on_c, 2, 82, 100
4, 19440, Note_on_c, 2, 82, 0
4, 19560, Note_on_c, 2, 82, 100
4, 19680, Note_on_c, 2, 82, 0
4, 19680, Note_on_c, 2, 58, 100
4, 19680, Note_on_c, 2, 67, 100
4, 19800, Note_on_c, 2, 67, 0
4, 19800, Note_on_c, 2, 58, 0
4, 19920, Note_on_c, 2, 82, 100
4, 19980, Note_on_c, 2, 82, 0
4, 20040, Note_on_c, 2, 79, 100
4, 20100, Note_on_c, 2, 79, 0
4, 20160, Note_on_c, 2, 75, 100
4, 20220, Note_on_c, 2, 75, 0
4, 20280, Note_on_c, 2, 70, 100
4, 20340, Note_on_c, 2, 70, 0
4, 20400, Note_on_c, 2, 67, 100
4, 20460, Note_on_c, 2, 67, 0
4, 20520, Note_on_c, 2, 63, 100
4, 20580, Note_on_c, 2, 63, 0
4, 20760, Note_on_c, 2, 82, 100
4, 20880, Note_on_c, 2, 82, 0
4, 21000, Note_on_c, 2, 82, 100
4, 21120, Note_on_c, 2, 82, 0
4, 21240, Note_on_c, 2, 82, 100
4, 21360, Note_on_c, 2, 82, 0
4, 21480, Note_on_c, 2, 82, 100
4, 21600, Note_on_c, 2, 82, 0
4, 21600, Program_c, 2, 40
4, 21840, Note_on_c, 2, 63, 100
4, 22020, Note_on_c, 2, 63, 0
4, 22020, Note_on_c, 2, 62, 100
4, 22050, Note_on_c, 2, 62, 0
4, 22050, Note_on_c, 2, 63, 100
4, 22080, Note_on_c, 2, 63, 0
4, 22080, Note_on_c, 2, 65, 100
4, 22200, Note_on_c, 2, 65, 0
4, 22320, Note_on_c, 2, 66, 100
4, 22500, Note_on_c, 2, 66, 0
4, 22500, Note_on_c, 2, 64, 100
4, 22530, Note_on_c, 2, 64, 0
4, 22530, Note_on_c, 2, 66, 100
4, 22560, Note_on_c, 2, 66, 0
4, 22560, Note_on_c, 2, 67, 100
4, 22680, Note_on_c, 2, 67, 0
4, 22800, Note_on_c, 2, 67, 100
4, 22980, Note_on_c, 2, 67, 0
4, 22980, Note_on_c, 2, 65, 100
4, 23010, Note_on_c, 2, 65, 0
4, 23010, Note_on_c, 2, 67, 100
4, 23040, Note_on_c, 2, 67, 0
4, 23040, Note_on_c, 2, 68, 100
4, 23220, Note_on_c, 2, 68, 0
4, 23220, Note_on_c, 2, 67, 100
4, 23250, Note_on_c, 2, 67, 0
4, 23250, Note_on_c, 2, 68, 100
4, 23280, Note_on_c, 2, 68, 0
4, 23280, Note_on_c, 2, 69, 100
4, 23460, Note_on_c, 2, 69, 0
4, 23460, Note_on_c, 2, 67, 100
4, 23490, Note_on_c, 2, 67, 0
4, 23490, Note_on_c, 2, 69, 100
4, 23520, Note_on_c, 2, 69, 0
4, 23520, Note_on_c, 2, 70, 100
4, 23640, Note_on_c, 2, 70, 0
4, 23760, Note_on_c, 2, 71, 100
4, 23940, Note_on_c, 2, 71, 0
4, 23940, Note_on_c, 2, 69, 100
4, 23970, Note_on_c, 2, 69, 0
4, 23970, Note_on_c, 2, 71, 100
4, 24000, Note_on_c, 2, 71, 0
4, 24000, Note_on_c, 2, 72, 100
4, 24180, Note_on_c, 2, 72, 0
4, 24180, Note_on_c, 2, 71, 100
4, 24210, Note_on_c, 2, 71, 0
4, 24210, Note_on_c, 2, 72, 100
4, 24240, Note_on_c, 2, 72, 0
4, 24240, Note_on_c, 2, 74, 100
4, 24420, Note_on_c, 2, 74, 0
4, 24420, Note_on_c, 2, 72, 100
4, 24450, Note_on_c, 2, 72, 0
4, 24450, Note_on_c, 2, 74, 100
4, 24480, Note_on_c, 2, 74, 0
4, 24480, Note_on_c, 2, 75, 100
4, 24600, Note_on_c, 2, 75, 0
4, 24720, Note_on_c, 2, 76, 100
4, 24900, Note_on_c, 2, 76, 0
4, 24900, Note_on_c, 2, 74, 100
4, 24930, Note_on_c, 2, 74, 0
4, 24930, Note_on_c, 2, 76, 100
4, 24960, Note_on_c, 2, 76, 0
4, 24960, Note_on_c, 2, 77, 100
4, 25080, Note_on_c, 2, 77, 0
4, 25200, Note_on_c, 2, 78, 100
4, 25380, Note_on_c, 2, 78, 0
4, 25380, Note_on_c, 2, 76, 100
4, 25410, Note_on_c, 2, 76, 0
4, 25410, Note_on_c, 2, 78, 100
4, 25440, Note_on_c, 2, 78, 0
4, 25440, Note_on_c, 2, 79, 100
4, 25560, Note_on_c, 2, 79, 0
4, 25680, Note_on_c, 2, 79, 100
4, 25860, Note_on_c, 2, 79, 0
4, 25860, Note_on_c, 2, 77, 100
4, 25890, Note_on_c, 2, 77, 0
4, 25890, Note_on_c, 2, 79, 100
4, 25920, Note_on_c, 2, 79, 0
4, 25920, Note_on_c, 2, 80, 100
4, 26100, Note_on_c, 2, 80, 0
4, 26100, Note_on_c, 2, 79, 100
4, 26130, Note_on_c, 2, 79, 0
4, 26130, Note_on_c, 2, 80, 100
4, 26160, Note_on_c, 2, 80, 0
4, 26160, Note_on_c, 2, 81, 100
4, 26340, Note_on_c, 2, 81, 0
4, 26340, Note_on_c, 2, 79, 100
4, 26370, Note_on_c, 2, 79, 0
4, 26370, Note_on_c, 2, 81, 100
4, 26400, Note_on_c, 2, 81, 0
4, 26400, Note_on_c, 2, 82, 100
4, 26580, Note_on_c, 2, 82, 0
4, 26580, Note_on_c, 2, 81, 100
4, 26610, Note_on_c, 2, 81, 0
4, 26610, Note_on_c, 2, 82, 100
4, 26640, Note_on_c, 2, 82, 0
4, 26640, Note_on_c, 2, 83, 100
4, 26820, Note_on_c, 2, 83, 0
4, 26820, Note_on_c, 2, 81, 100
4, 26850, Note_on_c, 2, 81, 0
4, 26850, Note_on_c, 2, 83, 100
4, 26880, Note_on_c, 2, 83, 0
4, 26880, Note_on_c, 2, 84, 100
4, 26910, Note_on_c, 2, 84, 0
4, 26910, Note_on_c, 2, 84, 100
4, 26940, Note_on_c, 2, 84, 0
4, 26940, Note_on_c, 2, 84, 100
4, 26970, Note_on_c, 2, 84, 0
4, 26970, Note_on_c, 2, 84, 100
4, 27000, Note_on_c, 2, 84, 0
4, 27000, Note_on_c, 2, 84, 100
4, 27030, Note_on_c, 2, 84, 0
4, 27030, Note_on_c, 2, 84, 100
4, 27060, Note_on_c, 2, 84, 0
4, 27060, Note_on_c, 2, 84, 100
4, 27090, Note_on_c, 2, 84, 0
4, 27090, Note_on_c, 2, 84, 100
4, 27120, Note_on_c, 2, 84, 0
4, 27120, Note_on_c, 2, 86, 100
4, 27150, Note_on_c, 2, 86, 0
4, 27150, Note_on_c, 2, 86, 100
4, 27180, Note_on_c, 2, 86, 0
4, 27180, Note_on_c, 2, 86, 100
4, 27210, Note_on_c, 2, 86, 0
4, 27210, Note_on_c, 2, 86, 100
4, 27240, Note_on_c, 2, 86, 0
4, 27240, Note_on_c, 2, 86, 100
4, 27270, Note_on_c, 2, 86, 0
4, 27270, Note_on_c, 2, 86, 100
4, 27300, Note_on_c, 2, 86, 0
4, 27300, Note_on_c, 2, 86, 100
4, 27330, Note_on_c, 2, 86, 0
4, 27330, Note_on_c, 2, 86, 100
4, 27360, Note_on_c, 2, 86, 0
4, 27360, Note_on_c, 2, 87, 100
4, 27420, Note_on_c, 2, 87, 0
4, 27420, Note_on_c, 2, 79, 100
4, 27420, Note_on_c, 2, 87, 100
4, 27540, Note_on_c, 2, 87, 0
4, 27540, Note_on_c, 2, 79, 0
4, 27540, Note_on_c, 2, 79, 100
4, 27540, Note_on_c, 2, 87, 100
4, 27660, Note_on_c, 2, 87, 0
4, 27660, Note_on_c, 2, 79, 0
4, 27660, Note_on_c, 2, 79, 100
4, 27660, Note_on_c, 2, 87, 100
4, 27780, Note_on_c, 2, 87, 0
4, 27780, Note_on_c, 2, 79, 0
4, 27780, Note_on_c, 2, 79, 100
4, 27780, Note_on_c, 2, 87, 100
4, 27900, Note_on_c, 2, 87, 0
4, 27900, Note_on_c, 2, 79, 0
4, 27900, Note_on_c, 2, 79, 100
4, 27900, Note_on_c, 2, 87, 100
4, 28020, Note_on_c, 2, 87, 0
4, 28020, Note_on_c, 2, 79, 0
4, 28020, Note_on_c, 2, 79, 100
4, 28020, Note_on_c, 2, 87, 100
4, 28140, Note_on_c, 2, 87, 0
4, 28140, Note_on_c, 2, 79, 0
4, 28140, Note_on_c, 2, 79, 100
4, 28140, Note_on_c, 2, 87, 100
4, 28260, Note_on_c, 2, 87, 0
4, 28260, Note_on_c, 2, 79, 0
4, 28260, Note_on_c, 2, 79, 100
4, 28260, Note_on_c, 2, 87, 100
4, 28380, Note_on_c, 2, 87, 0
4, 28380, Note_on_c, 2, 79, 0
4, 28380, Note_on_c, 2, 79, 100
4, 28380, Note_on_c, 2, 87, 100
4, 28500, Note_on_c, 2, 87, 0
4, 28500, Note_on_c, 2, 79, 0
4, 28500, Note_on_c, 2, 79, 100
4, 28500, Note_on_c, 2, 87, 100
4, 28620, Note_on_c, 2, 87, 0
4, 28620, Note_on_c, 2, 79, 0
4, 28620, Note_on_c, 2, 79, 100
4, 28620, Note_on_c, 2, 87, 100
4, 28740, Note_on_c, 2, 87, 0
4, 28740, Note_on_c, 2, 79, 0
4, 28740, Note_on_c, 2, 79, 100
4, 28740, Note_on_c, 2, 87, 100
4, 28860, Note_on_c, 2, 87, 0
4, 28860, Note_on_c, 2, 79, 0
4, 28860, Note_on_c, 2, 79, 100
4, 28860, Note_on_c, 2, 87, 100
4, 28980, Note_on_c, 2, 87, 0
4, 28980, Note_on_c, 2, 79, 0
4, 28980, Note_on_c, 2, 79, 100
4, 28980, Note_on_c, 2, 87, 100
4, 29100, Note_on_c, 2, 87, 0
4, 29100, Note_on_c, 2, 79, 0
4, 29100, Note_on_c, 2, 79, 100
4, 29100, Note_on_c, 2, 87, 100
4, 29220, Note_on_c, 2, 87, 0
4, 29220, Note_on_c, 2, 79, 0
4, 29220, Note_on_c, 2, 79, 100
4, 29220, Note_on_c, 2, 87, 100
4, 29340, Note_on_c, 2, 87, 0
4, 29340, Note_on_c, 2, 79, 0
4, 29340, Note_on_c, 2, 87, 100
4, 29460, Note_on_c, 2, 87, 0
4, 29460, Note_on_c, 2, 86, 100
4, 29580, Note_on_c, 2, 86, 0
4, 29580, Note_on_c, 2, 84, 100
4, 29700, Note_on_c, 2, 84, 0
4, 29700, Note_on_c, 2, 82, 100
4, 29820, Note_on_c, 2, 82, 0
4, 29820, Note_on_c, 2, 80, 100
4, 29940, Note_on_c, 2, 80, 0
4, 29940, Note_on_c, 2, 79, 100
4, 30060, Note_on_c, 2, 79, 0
4, 30060, Note_on_c, 2, 77, 100
4, 30180, Note_on_c, 2, 77, 0
4, 30180, Note_on_c, 2, 84, 100
4, 30300, Note_on_c, 2, 84, 0
4, 30300, Note_on_c, 2, 82, 100
4, 30420, Note_on_c, 2, 82, 0
4, 30420, Note_on_c, 2, 81, 100
4, 30540, Note_on_c, 2, 81, 0
4, 30540, Note_on_c, 2, 80, 100
4, 30660, Note_on_c, 2, 80, 0
4, 30660, Note_on_c, 2, 79, 100
4, 30780, Note_on_c, 2, 79, 0
4, 30780, Note_on_c, 2, 77, 100
4, 30840, Note_on_c, 2, 77, 0
4, 30840, Note_on_c, 2, 80, 100
4, 30900, Note_on_c, 2, 80, 0
4, 30900, Note_on_c, 2, 77, 100
4, 31020, Note_on_c, 2, 77, 0
4, 31020, Note_on_c, 2, 75, 100
4, 31140, Note_on_c, 2, 75, 0
4, 31140, Note_on_c, 2, 74, 100
4, 31200, Note_on_c, 2, 74, 0
4, 31200, Note_on_c, 2, 75, 100
4, 31320, Note_on_c, 2, 75, 0
4, 31680, Note_on_c, 2, 82, 100
4, 31800, Note_on_c, 2, 82, 0
4, 31800, Note_on_c, 2, 80, 100
4, 31920, Note_on_c, 2, 80, 0
4, 31920, Note_on_c, 2, 79, 100
4, 32040, Note_on_c, 2, 79, 0
4, 32040, Note_on_c, 2, 77, 100
4, 32160, Note_on_c, 2, 77, 0
4, 32160, Note_on_c, 2, 75, 100
4, 32280, Note_on_c, 2, 75, 0
4, 32610, Note_on_c, 2, 70, 100
4, 32640, Note_on_c, 2, 70, 0
4, 32640, Note_on_c, 2, 82, 100
4, 32760, Note_on_c, 2, 82, 0
4, 32760, Note_on_c, 2, 80, 100
4, 32880, Note_on_c, 2, 80, 0
4, 32880, Note_on_c, 2, 79, 100
4, 33000, Note_on_c, 2, 79, 0
4, 33000, Note_on_c, 2, 77, 100
4, 33120, Note_on_c, 2, 77, 0
4, 33120, Note_on_c, 2, 75, 100
4, 33240, Note_on_c, 2, 75, 0
4, 34065, Note_on_c, 2, 75, 100
4, 34080, Note_on_c, 2, 75, 0
4, 34080, Note_on_c, 2, 87, 100
4, 35100, Note_on_c, 2, 87, 0
4, 35100, Note_on_c, 2, 86, 100
4, 35160, Note_on_c, 2, 86, 0
4, 35160, Note_on_c, 2, 84, 100
4, 35220, Note_on_c, 2, 84, 0
4, 35220, Note_on_c, 2, 82, 100
4, 35280, Note_on_c, 2, 82, 0
4, 35280, Note_on_c, 2, 80, 100
4, 35340, Note_on_c, 2, 80, 0
4, 35340, Note_on_c, 2, 79, 100
4, 35400, Note_on_c, 2, 79, 0
4, 35400, Note_on_c, 2, 84, 100
4, 35460, Note_on_c, 2, 84, 0
4, 35460, Note_on_c, 2, 82, 100
4, 35520, Note_on_c, 2, 82, 0
4, 35520, Note_on_c, 2, 82, 100
4, 35700, Note_on_c, 2, 82, 0
4, 35700, Note_on_c, 2, 84, 100
4, 35760, Note_on_c, 2, 84, 0
4, 35760, Note_on_c, 2, 82, 100
4, 35880, Note_on_c, 2, 82, 0
4, 35970, Note_on_c, 2, 82, 100
4, 36000, Note_on_c, 2, 82, 0
4, 36000, Note_on_c, 2, 80, 100
4, 36060, Note_on_c, 2, 80, 0
4, 36060, Note_on_c, 2, 82, 100
4, 36120, Note_on_c, 2, 82, 0
4, 36120, Note_on_c, 2, 84, 100
4, 36180, Note_on_c, 2, 84, 0
4, 36180, Note_on_c, 2, 80, 100
4, 36240, Note_on_c, 2, 80, 0
4, 36240, Note_on_c, 2, 79, 100
4, 36300, Note_on_c, 2, 79, 0
4, 36300, Note_on_c, 2, 80, 100
4, 36360, Note_on_c, 2, 80, 0
4, 36360, Note_on_c, 2, 82, 100
4, 36420, Note_on_c, 2, 82, 0
4, 36420, Note_on_c, 2, 79, 100
4, 36480, Note_on_c, 2, 79, 0
4, 36480, Note_on_c, 2, 77, 100
4, 36660, Note_on_c, 2, 77, 0
4, 36660, Note_on_c, 2, 80, 100
4, 36690, Note_on_c, 2, 80, 0
4, 36690, Note_on_c, 2, 77, 100
4, 36720, Note_on_c, 2, 77, 0
4, 36720, Note_on_c, 2, 75, 100
4, 36840, Note_on_c, 2, 75, 0
4, 37740, Note_on_c, 2, 82, 100
4, 37800, Note_on_c, 2, 82, 0
4, 37800, Note_on_c, 2, 82, 100
4, 37860, Note_on_c, 2, 82, 0
4, 37860, Note_on_c, 2, 82, 100
4, 37920, Note_on_c, 2, 82, 0
4, 37920, Note_on_c, 2, 82, 100
4, 37950, Note_on_c, 2, 82, 0
4, 37950, Note_on_c, 2, 84, 100
4, 37980, Note_on_c, 2, 84, 0
4, 37980, Note_on_c, 2, 82, 100
4, 38010, Note_on_c, 2, 82, 0
4, 38010, Note_on_c, 2, 81, 100
4, 38040, Note_on_c, 2, 81, 0
4, 38040, Note_on_c, 2, 82, 100
4, 38100, Note_on_c, 2, 82, 0
4, 38130, Note_on_c, 2, 79, 100
4, 38160, Note_on_c, 2, 79, 0
4, 38160, Note_on_c, 2, 80, 100
4, 38190, Note_on_c, 2, 80, 0
4, 38190, Note_on_c, 2, 82, 100
4, 38220, Note_on_c, 2, 82, 0
4, 38220, Note_on_c, 2, 80, 100
4, 38250, Note_on_c, 2, 80, 0
4, 38250, Note_on_c, 2, 79, 100
4, 38280, Note_on_c, 2, 79, 0
4, 38280, Note_on_c, 2, 80, 100
4, 38340, Note_on_c, 2, 80, 0
4, 38370, Note_on_c, 2, 77, 100
4, 38400, Note_on_c, 2, 77, 0
4, 38400, Note_on_c, 2, 75, 100
4, 38580, Note_on_c, 2, 75, 0
4, 38580, Note_on_c, 2, 77, 100
4, 38610, Note_on_c, 2, 77, 0
4, 38610, Note_on_c, 2, 79, 100
4, 38640, Note_on_c, 2, 79, 0
4, 38640, Note_on_c, 2, 77, 100
4, 38760, Note_on_c, 2, 77, 0
4, 40140, Note_on_c, 2, 82, 100
4, 40200, Note_on_c, 2, 82, 0
4, 40200, Note_on_c, 2, 82, 100
4, 40260, Note_on_c, 2, 82, 0
4, 40260, Note_on_c, 2, 82, 100
4, 40320, Note_on_c, 2, 82, 0
4, 40320, Note_on_c, 2, 82, 100
4, 40350, Note_on_c, 2, 82, 0
4, 40350, Note_on_c, 2, 84, 100
4, 40380, Note_on_c, 2, 84, 0
4, 40380, Note_on_c, 2, 82, 100
4, 40410, Note_on_c, 2, 82, 0
4, 40410, Note_on_c, 2, 81, 100
4, 40440, Note_on_c, 2, 81, 0
4, 40440, Note_on_c, 2, 82, 100
4, 40500, Note_on_c, 2, 82, 0
4, 40530, Note_on_c, 2, 79, 100
4, 40560, Note_on_c, 2, 79, 0
4, 40560, Note_on_c, 2, 80, 100
4, 40590, Note_on_c, 2, 80, 0
4, 40590, Note_on_c, 2, 82, 100
4, 40620, Note_on_c, 2, 82, 0
4, 40620, Note_on_c, 2, 80, 100
4, 40650, Note_on_c, 2, 80, 0
4, 40650, Note_on_c, 2, 79, 100
4, 40680, Note_on_c, 2, 79, 0
4, 40680, Note_on_c, 2, 80, 100
4, 40740, Note_on_c, 2, 80, 0
4, 40770, Note_on_c, 2, 77, 100
4, 40800, Note_on_c, 2, 77, 0
4, 40800, Note_on_c, 2, 79, 100
4, 40830, Note_on_c, 2, 79, 0
4, 40830, Note_on_c, 2, 80, 100
4, 40860, Note_on_c, 2, 80, 0
4, 40860, Note_on_c, 2, 79, 100
4, 40890, Note_on_c, 2, 79, 0
4, 40890, Note_on_c, 2, 77, 100
4, 40920, Note_on_c, 2, 77, 0
4, 40920, Note_on_c, 2, 79, 100
4, 40950, Note_on_c, 2, 79, 0
4, 40950, Note_on_c, 2, 77, 100
4, 40980, Note_on_c, 2, 77, 0
4, 40980, Note_on_c, 2, 79, 100
4, 41010, Note_on_c, 2, 79, 0
4, 41010, Note_on_c, 2, 75, 100
4, 41040, Note_on_c, 2, 75, 0
4, 41040, Note_on_c, 2, 77, 100
4, 41070, Note_on_c, 2, 77, 0
4, 41070, Note_on_c, 2, 79, 100
4, 41100, Note_on_c, 2, 79, 0
4, 41100, Note_on_c, 2, 77, 100
4, 41130, Note_on_c, 2, 77, 0
4, 41130, Note_on_c, 2, 75, 100
4, 41160, Note_on_c, 2, 75, 0
4, 41160, Note_on_c, 2, 77, 100
4, 41190, Note_on_c, 2, 77, 0
4, 41190, Note_on_c, 2, 75, 100
4, 41220, Note_on_c, 2, 75, 0
4, 41220, Note_on_c, 2, 77, 100
4, 41250, Note_on_c, 2, 77, 0
4, 41250, Note_on_c, 2, 74, 100
4, 41280, Note_on_c, 2, 74, 0
4, 41280, Note_on_c, 2, 82, 100
4, 41310, Note_on_c, 2, 82, 0
4, 41310, Note_on_c, 2, 84, 100
4, 41340, Note_on_c, 2, 84, 0
4, 41340, Note_on_c, 2, 82, 100
4, 41370, Note_on_c, 2, 82, 0
4, 41370, Note_on_c, 2, 81, 100
4, 41400, Note_on_c, 2, 81, 0
4, 41400, Note_on_c, 2, 82, 100
4, 41430, Note_on_c, 2, 82, 0
4, 41430, Note_on_c, 2, 80, 100
4, 41460, Note_on_c, 2, 80, 0
4, 41460, Note_on_c, 2, 82, 100
4, 41490, Note_on_c, 2, 82, 0
4, 41490, Note_on_c, 2, 79, 100
4, 41520, Note_on_c, 2, 79, 0
4, 41520, Note_on_c, 2, 80, 100
4, 41550, Note_on_c, 2, 80, 0
4, 41550, Note_on_c, 2, 82, 100
4, 41580, Note_on_c, 2, 82, 0
4, 41580, Note_on_c, 2, 80, 100
4, 41610, Note_on_c, 2, 80, 0
4, 41610, Note_on_c, 2, 79, 100
4, 41640, Note_on_c, 2, 79, 0
4, 41640, Note_on_c, 2, 80, 100
4, 41670, Note_on_c, 2, 80, 0
4, 41670, Note_on_c, 2, 79, 100
4, 41700, Note_on_c, 2, 79, 0
4, 41700, Note_on_c, 2, 80, 100
4, 41730, Note_on_c, 2, 80, 0
4, 41730, Note_on_c, 2, 77, 100
4, 41760, Note_on_c, 2, 77, 0
4, 41760, Note_on_c, 2, 79, 100
4, 41820, Note_on_c, 2, 79, 0
4, 41820, Note_on_c, 2, 80, 100
4, 41880, Note_on_c, 2, 80, 0
4, 41880, Note_on_c, 2, 82, 100
4, 41940, Note_on_c, 2, 82, 0
4, 41940, Note_on_c, 2, 84, 100
4, 42000, Note_on_c, 2, 84, 0
4, 42000, Note_on_c, 2, 82, 100
4, 42060, Note_on_c, 2, 82, 0
4, 42060, Note_on_c, 2, 84, 100
4, 42120, Note_on_c, 2, 84, 0
4, 42120, Note_on_c, 2, 86, 100
4, 42180, Note_on_c, 2, 86, 0
4, 42180, Note_on_c, 2, 87, 100
4, 42240, Note_on_c, 2, 87, 0
4, 42240, Note_on_c, 2, 87, 100
4, 42300, Note_on_c, 2, 87, 0
4, 42300, Note_on_c, 2, 86, 100
4, 42360, Note_on_c, 2, 86, 0
4, 42360, Note_on_c, 2, 84, 100
4, 42420, Note_on_c, 2, 84, 0
4, 42420, Note_on_c, 2, 82, 100
4, 42480, Note_on_c, 2, 82, 0
4, 42480, Note_on_c, 2, 82, 100
4, 42540, Note_on_c, 2, 82, 0
4, 42540, Note_on_c, 2, 80, 100
4, 42600, Note_on_c, 2, 80, 0
4, 42600, Note_on_c, 2, 79, 100
4, 42660, Note_on_c, 2, 79, 0
4, 42660, Note_on_c, 2, 77, 100
4, 42720, Note_on_c, 2, 77, 0
4, 42720, Note_on_c, 2, 75, 100
4, 42840, Note_on_c, 2, 75, 0
4, 44640, Note_on_c, 2, 79, 100
4, 45000, Note_on_c, 2, 79, 0
4, 45000, Note_on_c, 2, 80, 100
4, 45030, Note_on_c, 2, 80, 0
4, 45030, Note_on_c, 2, 79, 100
4, 45060, Note_on_c, 2, 79, 0
4, 45060, Note_on_c, 2, 78, 100
4, 45090, Note_on_c, 2, 78, 0
4, 45090, Note_on_c, 2, 79, 100
4, 45120, Note_on_c, 2, 79, 0
4, 45120, Note_on_c, 2, 84, 100
4, 45240, Note_on_c, 2, 84, 0
4, 45240, Note_on_c, 2, 79, 100
4, 45480, Note_on_c, 2, 79, 0
4, 45480, Note_on_c, 2, 77, 100
4, 45510, Note_on_c, 2, 77, 0
4, 45510, Note_on_c, 2, 75, 100
4, 45540, Note_on_c, 2, 75, 0
4, 45540, Note_on_c, 2, 74, 100
4, 45570, Note_on_c, 2, 74, 0
4, 45570, Note_on_c, 2, 72, 100
4, 45600, Note_on_c, 2, 72, 0
4, 45600, Note_on_c, 2, 72, 100
4, 45720, Note_on_c, 2, 72, 0
4, 45720, Note_on_c, 2, 71, 100
4, 45900, Note_on_c, 2, 71, 0
4, 45900, Note_on_c, 2, 74, 100
4, 45960, Note_on_c, 2, 74, 0
4, 45960, Note_on_c, 2, 75, 100
4, 46020, Note_on_c, 2, 75, 0
4, 46020, Note_on_c, 2, 77, 100
4, 46080, Note_on_c, 2, 77, 0
4, 46080, Note_on_c, 2, 77, 100
4, 46200, Note_on_c, 2, 77, 0
4, 46200, Note_on_c, 2, 75, 100
4, 46440, Note_on_c, 2, 75, 0
4, 46440, Note_on_c, 2, 76, 100
4, 46560, Note_on_c, 2, 76, 0
4, 46560, Note_on_c, 2, 77, 100
4, 46680, Note_on_c, 2, 77, 0
4, 51000, Note_on_c, 2, 79, 100
4, 51030, Note_on_c, 2, 79, 0
4, 51030, Note_on_c, 2, 78, 100
4, 51060, Note_on_c, 2, 78, 0
4, 51060, Note_on_c, 2, 79, 100
4, 51090, Note_on_c, 2, 79, 0
4, 51090, Note_on_c, 2, 78, 100
4, 51120, Note_on_c, 2, 78, 0
4, 51120, Note_on_c, 2, 79, 100
4, 51150, Note_on_c, 2, 79, 0
4, 51150, Note_on_c, 2, 78, 100
4, 51180, Note_on_c, 2, 78, 0
4, 51180, Note_on_c, 2, 79, 100
4, 51210, Note_on_c, 2, 79, 0
4, 51210, Note_on_c, 2, 78, 100
4, 51240, Note_on_c, 2, 78, 0
4, 51240, Note_on_c, 2, 79, 100
4, 51270, Note_on_c, 2, 79, 0
4, 51270, Note_on_c, 2, 78, 100
4, 51300, Note_on_c, 2, 78, 0
4, 51300, Note_on_c, 2, 79, 100
4, 51330, Note_on_c, 2, 79, 0
4, 51330, Note_on_c, 2, 78, 100
4, 51360, Note_on_c, 2, 78, 0
4, 51360, Note_on_c, 2, 79, 100
4, 51420, Note_on_c, 2, 79, 0
4, 51420, Note_on_c, 2, 81, 100
4, 51450, Note_on_c, 2, 81, 0
4, 51450, Note_on_c, 2, 83, 100
4, 51480, Note_on_c, 2, 83, 0
4, 51480, Note_on_c, 2, 84, 100
4, 51510, Note_on_c, 2, 84, 0
4, 51510, Note_on_c, 2, 83, 100
4, 51540, Note_on_c, 2, 83, 0
4, 51540, Note_on_c, 2, 84, 100
4, 51570, Note_on_c, 2, 84, 0
4, 51570, Note_on_c, 2, 86, 100
4, 51600, Note_on_c, 2, 86, 0
4, 51600, Note_on_c, 2, 87, 100
4, 51630, Note_on_c, 2, 87, 0
4, 51630, Note_on_c, 2, 86, 100
4, 51660, Note_on_c, 2, 86, 0
4, 51660, Note_on_c, 2, 84, 100
4, 51690, Note_on_c, 2, 84, 0
4, 51690, Note_on_c, 2, 86, 100
4, 51720, Note_on_c, 2, 86, 0
4, 51720, Note_on_c, 2, 84, 100
4, 51750, Note_on_c, 2, 84, 0
4, 51750, Note_on_c, 2, 82, 100
4, 51780, Note_on_c, 2, 82, 0
4, 51780, Note_on_c, 2, 81, 100
4, 51810, Note_on_c, 2, 81, 0
4, 51810, Note_on_c, 2, 79, 100
4, 51840, Note_on_c, 2, 79, 0
4, 51840, Note_on_c, 2, 77, 100
4, 51960, Note_on_c, 2, 77, 0
4, 51960, Note_on_c, 2, 77, 100
4, 51990, Note_on_c, 2, 77, 0
4, 51990, Note_on_c, 2, 76, 100
4, 52020, Note_on_c, 2, 76, 0
4, 52020, Note_on_c, 2, 77, 100
4, 52050, Note_on_c, 2, 77, 0
4, 52050, Note_on_c, 2, 76, 100
4, 52080, Note_on_c, 2, 76, 0
4, 52080, Note_on_c, 2, 77, 100
4, 52110, Note_on_c, 2, 77, 0
4, 52110, Note_on_c, 2, 76, 100
4, 52140, Note_on_c, 2, 76, 0
4, 52140, Note_on_c, 2, 77, 100
4, 52170, Note_on_c, 2, 77, 0
4, 52170, Note_on_c, 2, 76, 100
4, 52200, Note_on_c, 2, 76, 0
4, 52200, Note_on_c, 2, 77, 100
4, 52230, Note_on_c, 2, 77, 0
4, 52230, Note_on_c, 2, 76, 100
4, 52260, Note_on_c, 2, 76, 0
4, 52260, Note_on_c, 2, 77, 100
4, 52290, Note_on_c, 2, 77, 0
4, 52290, Note_on_c, 2, 76, 100
4, 52320, Note_on_c, 2, 76, 0
4, 52320, Note_on_c, 2, 77, 100
4, 52380, Note_on_c, 2, 77, 0
4, 52380, Note_on_c, 2, 79, 100
4, 52410, Note_on_c, 2, 79, 0
4, 52410, Note_on_c, 2, 81, 100
4, 52440, Note_on_c, 2, 81, 0
4, 52440, Note_on_c, 2, 82, 100
4, 52470, Note_on_c, 2, 82, 0
4, 52470, Note_on_c, 2, 81, 100
4, 52500, Note_on_c, 2, 81, 0
4, 52500, Note_on_c, 2, 82, 100
4, 52530, Note_on_c, 2, 82, 0
4, 52530, Note_on_c, 2, 84, 100
4, 52560, Note_on_c, 2, 84, 0
4, 52560, Note_on_c, 2, 86, 100
4, 52590, Note_on_c, 2, 86, 0
4, 52590, Note_on_c, 2, 84, 100
4, 52620, Note_on_c, 2, 84, 0
4, 52620, Note_on_c, 2, 82, 100
4, 52650, Note_on_c, 2, 82, 0
4, 52650, Note_on_c, 2, 84, 100
4, 52680, Note_on_c, 2, 84, 0
4, 52680, Note_on_c, 2, 82, 100
4, 52710, Note_on_c, 2, 82, 0
4, 52710, Note_on_c, 2, 81, 100
4, 52740, Note_on_c, 2, 81, 0
4, 52740, Note_on_c, 2, 79, 100
4, 52770, Note_on_c, 2, 79, 0
4, 52770, Note_on_c, 2, 77, 100
4, 52800, Note_on_c, 2, 77, 0
4, 52800, Note_on_c, 2, 75, 100
4, 52920, Note_on_c, 2, 75, 0
4, 52920, Note_on_c, 2, 75, 100
4, 52950, Note_on_c, 2, 75, 0
4, 52950, Note_on_c, 2, 74, 100
4, 52980, Note_on_c, 2, 74, 0
4, 52980, Note_on_c, 2, 75, 100
4, 53010, Note_on_c, 2, 75, 0
4, 53010, Note_on_c, 2, 74, 100
4, 53040, Note_on_c, 2, 74, 0
4, 53040, Note_on_c, 2, 75, 100
4, 53070, Note_on_c, 2, 75, 0
4, 53070, Note_on_c, 2, 74, 100
4, 53100, Note_on_c, 2, 74, 0
4, 53100, Note_on_c, 2, 75, 100
4, 53130, Note_on_c, 2, 75, 0
4, 53130, Note_on_c, 2, 74, 100
4, 53160, Note_on_c, 2, 74, 0
4, 53160, Note_on_c, 2, 75, 100
4, 53190, Note_on_c, 2, 75, 0
4, 53190, Note_on_c, 2, 74, 100
4, 53220, Note_on_c, 2, 74, 0
4, 53220, Note_on_c, 2, 75, 100
4, 53250, Note_on_c, 2, 75, 0
4, 53250, Note_on_c, 2, 74, 100
4, 53280, Note_on_c, 2, 74, 0
4, 53280, Note_on_c, 2, 75, 100
4, 53340, Note_on_c, 2, 75, 0
4, 53340, Note_on_c, 2, 77, 100
4, 53370, Note_on_c, 2, 77, 0
4, 53370, Note_on_c, 2, 79, 100
4, 53400, Note_on_c, 2, 79, 0
4, 53400, Note_on_c, 2, 81, 100
4, 53430, Note_on_c, 2, 81, 0
4, 53430, Note_on_c, 2, 82, 100
4, 53460, Note_on_c, 2, 82, 0
4, 53460, Note_on_c, 2, 84, 100
4, 53490, Note_on_c, 2, 84, 0
4, 53490, Note_on_c, 2, 86, 100
4, 53520, Note_on_c, 2, 86, 0
4, 53520, Note_on_c, 2, 87, 100
4, 53550, Note_on_c, 2, 87, 0
4, 53550, Note_on_c, 2, 86, 100
4, 53580, Note_on_c, 2, 86, 0
4, 53580, Note_on_c, 2, 84, 100
4, 53610, Note_on_c, 2, 84, 0
4, 53610, Note_on_c, 2, 82, 100
4, 53640, Note_on_c, 2, 82, 0
4, 53640, Note_on_c, 2, 81, 100
4, 53670, Note_on_c, 2, 81, 0
4, 53670, Note_on_c, 2, 79, 100
4, 53700, Note_on_c, 2, 79, 0
4, 53700, Note_on_c, 2, 77, 100
4, 53730, Note_on_c, 2, 77, 0
4, 53730, Note_on_c, 2, 75, 100
4, 53760, Note_on_c, 2, 75, 0
4, 53760, Note_on_c, 2, 74, 100
4, 53880, Note_on_c, 2, 74, 0
4, 54360, Note_on_c, 2, 82, 100
4, 54420, Note_on_c, 2, 82, 0
4, 54420, Note_on_c, 2, 82, 100
4, 54480, Note_on_c, 2, 82, 0
4, 54480, Note_on_c, 2, 82, 100
4, 54540, Note_on_c, 2, 82, 0
4, 54540, Note_on_c, 2, 82, 100
4, 54600, Note_on_c, 2, 82, 0
4, 54600, Note_on_c, 2, 82, 100
4, 54660, Note_on_c, 2, 82, 0
4, 54660, Note_on_c, 2, 83, 100
4, 54720, Note_on_c, 2, 83, 0
4, 54720, Note_on_c, 2, 84, 100
4, 54840, Note_on_c, 2, 84, 0
4, 59970, Note_on_c, 2, 77, 100
4, 60000, Note_on_c, 2, 77, 0
4, 60000, Note_on_c, 2, 82, 100
4, 60180, Note_on_c, 2, 82, 0
4, 60210, Note_on_c, 2, 77, 100
4, 60240, Note_on_c, 2, 77, 0
4, 60240, Note_on_c, 2, 86, 100
4, 60420, Note_on_c, 2, 86, 0
4, 60450, Note_on_c, 2, 82, 100
4, 60480, Note_on_c, 2, 82, 0
4, 60480, Note_on_c, 2, 89, 100
4, 60540, Note_on_c, 2, 89, 0
4, 60540, Note_on_c, 2, 88, 100
4, 60600, Note_on_c, 2, 88, 0
4, 60600, Note_on_c, 2, 87, 100
4, 60780, Note_on_c, 2, 87, 0
4, 60780, Note_on_c, 2, 89, 100
4, 60810, Note_on_c, 2, 89, 0
4, 60810, Note_on_c, 2, 87, 100
4, 60840, Note_on_c, 2, 87, 0
4, 60840, Note_on_c, 2, 86, 100
4, 60870, Note_on_c, 2, 86, 0
4, 60870, Note_on_c, 2, 84, 100
4, 60900, Note_on_c, 2, 84, 0
4, 60900, Note_on_c, 2, 82, 100
4, 60930, Note_on_c, 2, 82, 0
4, 60930, Note_on_c, 2, 81, 100
4, 60960, Note_on_c, 2, 81, 0
4, 60960, Note_on_c, 2, 82, 100
4, 61005, Note_on_c, 2, 84, 100
4, 61020, Note_on_c, 2, 84, 0
4, 61020, Note_on_c, 2, 82, 0
4, 61020, Note_on_c, 2, 82, 100
4, 61050, Note_on_c, 2, 82, 0
4, 61050, Note_on_c, 2, 81, 100
4, 61080, Note_on_c, 2, 81, 0
4, 61080, Note_on_c, 2, 82, 100
4, 61140, Note_on_c, 2, 82, 0
4, 61140, Note_on_c, 2, 84, 100
4, 61200, Note_on_c, 2, 84, 0
4, 61200, Note_on_c, 2, 86, 100
4, 61245, Note_on_c, 2, 87, 100
4, 61260, Note_on_c, 2, 87, 0
4, 61260, Note_on_c, 2, 86, 0
4, 61260, Note_on_c, 2, 86, 100
4, 61290, Note_on_c, 2, 86, 0
4, 61290, Note_on_c, 2, 84, 100
4, 61320, Note_on_c, 2, 84, 0
4, 61320, Note_on_c, 2, 86, 100
4, 61380, Note_on_c, 2, 86, 0
4, 61380, Note_on_c, 2, 87, 100
4, 61440, Note_on_c, 2, 87, 0
4, 61440, Note_on_c, 2, 86, 100
4, 61680, Note_on_c, 2, 86, 0
4, 61680, Note_on_c, 2, 84, 100
4, 61800, Note_on_c, 2, 84, 0
4, 63360, Note_on_c, 2, 74, 100
4, 63390, Note_on_c, 2, 74, 0
4, 63390, Note_on_c, 2, 77, 100
4, 63420, Note_on_c, 2, 77, 0
4, 63420, Note_on_c, 2, 82, 100
4, 63450, Note_on_c, 2, 82, 0
4, 63450, Note_on_c, 2, 84, 100
4, 63480, Note_on_c, 2, 84, 0
4, 63480, Note_on_c, 2, 86, 100
4, 63510, Note_on_c, 2, 86, 0
4, 63510, Note_on_c, 2, 82, 100
4, 63540, Note_on_c, 2, 82, 0
4, 63540, Note_on_c, 2, 86, 100
4, 63570, Note_on_c, 2, 86, 0
4, 63570, Note_on_c, 2, 82, 100
4, 63600, Note_on_c, 2, 82, 0
4, 63600, Note_on_c, 2, 87, 100
4, 63630, Note_on_c, 2, 87, 0
4, 63630, Note_on_c, 2, 84, 100
4, 63660, Note_on_c, 2, 84, 0
4, 63660, Note_on_c, 2, 81, 100
4, 63690, Note_on_c, 2, 81, 0
4, 63690, Note_on_c, 2, 77, 100
4, 63720, Note_on_c, 2, 77, 0
4, 63720, Note_on_c, 2, 75, 100
4, 63750, Note_on_c, 2, 75, 0
4, 63750, Note_on_c, 2, 77, 100
4, 63780, Note_on_c, 2, 77, 0
4, 63780, Note_on_c, 2, 75, 100
4, 63810, Note_on_c, 2, 75, 0
4, 63810, Note_on_c, 2, 77, 100
4, 63840, Note_on_c, 2, 77, 0
4, 63840, Note_on_c, 2, 74, 100
4, 63870, Note_on_c, 2, 74, 0
4, 63870, Note_on_c, 2, 77, 100
4, 63900, Note_on_c, 2, 77, 0
4, 63900, Note_on_c, 2, 82, 100
4, 63930, Note_on_c, 2, 82, 0
4, 63930, Note_on_c, 2, 84, 100
4, 63960, Note_on_c, 2, 84, 0
4, 63960, Note_on_c, 2, 86, 100
4, 63990, Note_on_c, 2, 86, 0
4, 63990, Note_on_c, 2, 82, 100
4, 64020, Note_on_c, 2, 82, 0
4, 64020, Note_on_c, 2, 86, 100
4, 64050, Note_on_c, 2, 86, 0
4, 64050, Note_on_c, 2, 82, 100
4, 64080, Note_on_c, 2, 82, 0
4, 64080, Note_on_c, 2, 87, 100
4, 64110, Note_on_c, 2, 87, 0
4, 64110, Note_on_c, 2, 84, 100
4, 64140, Note_on_c, 2, 84, 0
4, 64140, Note_on_c, 2, 81, 100
4, 64170, Note_on_c, 2, 81, 0
4, 64170, Note_on_c, 2, 77, 100
4, 64200, Note_on_c, 2, 77, 0
4, 64200, Note_on_c, 2, 75, 100
4, 64230, Note_on_c, 2, 75, 0
4, 64230, Note_on_c, 2, 77, 100
4, 64260, Note_on_c, 2, 77, 0
4, 64260, Note_on_c, 2, 75, 100
4, 64290, Note_on_c, 2, 75, 0
4, 64290, Note_on_c, 2, 77, 100
4, 64320, Note_on_c, 2, 77, 0
4, 64320, Note_on_c, 2, 74, 100
4, 64350, Note_on_c, 2, 74, 0
4, 64350, Note_on_c, 2, 75, 100
4, 64380, Note_on_c, 2, 75, 0
4, 64380, Note_on_c, 2, 77, 100
4, 64410, Note_on_c, 2, 77, 0
4, 64410, Note_on_c, 2, 79, 100
4, 64440, Note_on_c, 2, 79, 0
4, 64440, Note_on_c, 2, 80, 100
4, 64470, Note_on_c, 2, 80, 0
4, 64470, Note_on_c, 2, 79, 100
4, 64500, Note_on_c, 2, 79, 0
4, 64500, Note_on_c, 2, 80, 100
4, 64530, Note_on_c, 2, 80, 0
4, 64530, Note_on_c, 2, 79, 100
4, 64560, Note_on_c, 2, 79, 0
4, 64560, Note_on_c, 2, 80, 100
4, 64590, Note_on_c, 2, 80, 0
4, 64590, Note_on_c, 2, 79, 100
4, 64620, Note_on_c, 2, 79, 0
4, 64620, Note_on_c, 2, 77, 100
4, 64650, Note_on_c, 2, 77, 0
4, 64650, Note_on_c, 2, 75, 100
4, 64680, Note_on_c, 2, 75, 0
4, 64680, Note_on_c, 2, 74, 100
4, 64710, Note_on_c, 2, 74, 0
4, 64710, Note_on_c, 2, 72, 100
4, 64740, Note_on_c, 2, 72, 0
4, 64740, Note_on_c, 2, 70, 100
4, 64770, Note_on_c, 2, 70, 0
4, 64770, Note_on_c, 2, 68, 100
4, 64800, Note_on_c, 2, 68, 0
4, 64800, Note_on_c, 2, 67, 100
4, 64860, Note_on_c, 2, 67, 0
4, 64860, Note_on_c, 2, 69, 100
4, 64890, Note_on_c, 2, 69, 0
4, 64890, Note_on_c, 2, 70, 100
4, 64920, Note_on_c, 2, 70, 0
4, 64920, Note_on_c, 2, 72, 100
4, 64950, Note_on_c, 2, 72, 0
4, 64950, Note_on_c, 2, 74, 100
4, 64980, Note_on_c, 2, 74, 0
4, 64980, Note_on_c, 2, 75, 100
4, 65010, Note_on_c, 2, 75, 0
4, 65010, Note_on_c, 2, 77, 100
4, 65040, Note_on_c, 2, 77, 0
4, 65040, Note_on_c, 2, 79, 100
4, 65070, Note_on_c, 2, 79, 0
4, 65070, Note_on_c, 2, 81, 100
4, 65100, Note_on_c, 2, 81, 0
4, 65100, Note_on_c, 2, 82, 100
4, 65130, Note_on_c, 2, 82, 0
4, 65130, Note_on_c, 2, 81, 100
4, 65145, Note_on_c, 2, 84, 100
4, 65160, Note_on_c, 2, 84, 0
4, 65160, Note_on_c, 2, 81, 0
4, 65160, Note_on_c, 2, 82, 100
4, 65220, Note_on_c, 2, 82, 0
4, 65220, Note_on_c, 2, 81, 100
4, 65250, Note_on_c, 2, 81, 0
4, 65250, Note_on_c, 2, 79, 100
4, 65265, Note_on_c, 2, 79, 100
4, 65280, Note_on_c, 2, 79, 0
4, 65280, Note_on_c, 2, 79, 0
4, 65280, Note_on_c, 2, 77, 100
4, 65340, Note_on_c, 2, 77, 0
4, 65340, Note_on_c, 2, 76, 100
4, 65370, Note_on_c, 2, 76, 0
4, 65370, Note_on_c, 2, 77, 100
4, 65385, Note_on_c, 2, 81, 100
4, 65400, Note_on_c, 2, 81, 0
4, 65400, Note_on_c, 2, 77, 0
4, 65400, Note_on_c, 2, 79, 100
4, 65460, Note_on_c, 2, 79, 0
4, 65460, Note_on_c, 2, 77, 100
4, 65490, Note_on_c, 2, 77, 0
4, 65490, Note_on_c, 2, 75, 100
4, 65505, Note_on_c, 2, 75, 100
4, 65520, Note_on_c, 2, 75, 0
4, 65520, Note_on_c, 2, 75, 0
4, 65520, Note_on_c, 2, 74, 100
4, 65580, Note_on_c, 2, 74, 0
4, 65580, Note_on_c, 2, 72, 100
4, 65610, Note_on_c, 2, 72, 0
4, 65610, Note_on_c, 2, 74, 100
4, 65625, Note_on_c, 2, 77, 100
4, 65640, Note_on_c, 2, 77, 0
4, 65640, Note_on_c, 2, 74, 0
4, 65640, Note_on_c, 2, 75, 100
4, 65700, Note_on_c, 2, 75, 0
4, 65700, Note_on_c, 2, 74, 100
4, 65730, Note_on_c, 2, 74, 0
4, 65730, Note_on_c, 2, 72, 100
4, 65760, Note_on_c, 2, 72, 0
4, 65760, Note_on_c, 2, 70, 100
4, 65880, Note_on_c, 2, 70, 0
4, 68160, Note_on_c, 2, 77, 100
4, 68340, Note_on_c, 2, 77, 0
4, 68340, Note_on_c, 2, 79, 100
4, 68370, Note_on_c, 2, 79, 0
4, 68370, Note_on_c, 2, 77, 100
4, 68400, Note_on_c, 2, 77, 0
4, 68400, Note_on_c, 2, 75, 100
4, 68460, Note_on_c, 2, 75, 0
4, 68460, Note_on_c, 2, 75, 100
4, 68520, Note_on_c, 2, 75, 0
4, 68520, Note_on_c, 2, 74, 100
4, 68580, Note_on_c, 2, 74, 0
4, 68580, Note_on_c, 2, 74, 100
4, 68640, Note_on_c, 2, 74, 0
4, 68640, Note_on_c, 2, 75, 100
4, 68730, Note_on_c, 2, 75, 0
4, 68730, Note_on_c, 2, 77, 100
4, 68760, Note_on_c, 2, 77, 0
4, 68760, Note_on_c, 2, 79, 100
4, 68850, Note_on_c, 2, 79, 0
4, 68850, Note_on_c, 2, 75, 100
4, 68880, Note_on_c, 2, 75, 0
4, 68880, Note_on_c, 2, 74, 100
4, 69000, Note_on_c, 2, 74, 0
4, 69000, Note_on_c, 2, 72, 100
4, 69120, Note_on_c, 2, 72, 0
4, 69120, Note_on_c, 2, 77, 100
4, 69210, Note_on_c, 2, 77, 0
4, 69210, Note_on_c, 2, 74, 100
4, 69240, Note_on_c, 2, 74, 0
4, 69240, Note_on_c, 2, 79, 100
4, 69270, Note_on_c, 2, 79, 0
4, 69270, Note_on_c, 2, 75, 100
4, 69300, Note_on_c, 2, 75, 0
4, 69300, Note_on_c, 2, 79, 100
4, 69330, Note_on_c, 2, 79, 0
4, 69330, Note_on_c, 2, 75, 100
4, 69360, Note_on_c, 2, 75, 0
4, 69360, Note_on_c, 2, 74, 100
4, 69480, Note_on_c, 2, 74, 0
4, 69480, Note_on_c, 2, 72, 100
4, 69600, Note_on_c, 2, 72, 0
4, 69600, Note_on_c, 2, 89, 100
4, 69780, Note_on_c, 2, 89, 0
4, 69780, Note_on_c, 2, 91, 100
4, 69810, Note_on_c, 2, 91, 0
4, 69810, Note_on_c, 2, 89, 100
4, 69840, Note_on_c, 2, 89, 0
4, 69840, Note_on_c, 2, 87, 100
4, 69900, Note_on_c, 2, 87, 0
4, 69900, Note_on_c, 2, 87, 100
4, 69960, Note_on_c, 2, 87, 0
4, 69960, Note_on_c, 2, 86, 100
4, 70020, Note_on_c, 2, 86, 0
4, 70020, Note_on_c, 2, 86, 100
4, 70080, Note_on_c, 2, 86, 0
4, 70080, Note_on_c, 2, 87, 100
4, 70170, Note_on_c, 2, 87, 0
4, 70170, Note_on_c, 2, 89, 100
4, 70200, Note_on_c, 2, 89, 0
4, 70200, Note_on_c, 2, 91, 100
4, 70290, Note_on_c, 2, 91, 0
4, 70290, Note_on_c, 2, 87, 100
4, 70320, Note_on_c, 2, 87, 0
4, 70320, Note_on_c, 2, 86, 100
4, 70440, Note_on_c, 2, 86, 0
4, 70440, Note_on_c, 2, 84, 100
4, 70560, Note_on_c, 2, 84, 0
4, 70560, Note_on_c, 2, 89, 100
4, 70590, Note_on_c, 2, 89, 0
4, 70590, Note_on_c, 2, 88, 100
4, 70620, Note_on_c, 2, 88, 0
4, 70620, Note_on_c, 2, 89, 100
4, 70650, Note_on_c, 2, 89, 0
4, 70650, Note_on_c, 2, 88, 100
4, 70680, Note_on_c, 2, 88, 0
4, 70680, Note_on_c, 2, 91, 100
4, 70710, Note_on_c, 2, 91, 0
4, 70710, Note_on_c, 2, 89, 100
4, 70740, Note_on_c, 2, 89, 0
4, 70740, Note_on_c, 2, 91, 100
4, 70770, Note_on_c, 2, 91, 0
4, 70770, Note_on_c, 2, 87, 100
4, 70800, Note_on_c, 2, 87, 0
4, 70800, Note_on_c, 2, 86, 100
4, 70920, Note_on_c, 2, 86, 0
4, 70920, Note_on_c, 2, 84, 100
4, 71040, Note_on_c, 2, 84, 0
4, 71040, Note_on_c, 2, 82, 100
4, 71160, Note_on_c, 2, 82, 0
4, 71310, Note_on_c, 2, 70, 100
4, 71340, Note_on_c, 2, 70, 0
4, 71340, Note_on_c, 2, 72, 100
4, 71370, Note_on_c, 2, 72, 0
4, 71370, Note_on_c, 2, 74, 100
4, 71400, Note_on_c, 2, 74, 0
4, 71400, Note_on_c, 2, 75, 100
4, 71430, Note_on_c, 2, 75, 0
4, 71430, Note_on_c, 2, 77, 100
4, 71460, Note_on_c, 2, 77, 0
4, 71460, Note_on_c, 2, 79, 100
4, 71490, Note_on_c, 2, 79, 0
4, 71490, Note_on_c, 2, 81, 100
4, 71520, Note_on_c, 2, 81, 0
4, 71520, Note_on_c, 2, 82, 100
4, 71640, Note_on_c, 2, 82, 0
4, 71790, Note_on_c, 2, 74, 100
4, 71820, Note_on_c, 2, 74, 0
4, 71820, Note_on_c, 2, 75, 100
4, 71850, Note_on_c, 2, 75, 0
4, 71850, Note_on_c, 2, 77, 100
4, 71880, Note_on_c, 2, 77, 0
4, 71880, Note_on_c, 2, 79, 100
4, 71910, Note_on_c, 2, 79, 0
4, 71910, Note_on_c, 2, 81, 100
4, 71940, Note_on_c, 2, 81, 0
4, 71940, Note_on_c, 2, 82, 100
4, 71970, Note_on_c, 2, 82, 0
4, 71970, Note_on_c, 2, 84, 100
4, 72000, Note_on_c, 2, 84, 0
4, 72000, Note_on_c, 2, 86, 100
4, 72120, Note_on_c, 2, 86, 0
4, 72270, Note_on_c, 2, 77, 100
4, 72300, Note_on_c, 2, 77, 0
4, 72300, Note_on_c, 2, 79, 100
4, 72330, Note_on_c, 2, 79, 0
4, 72330, Note_on_c, 2, 81, 100
4, 72360, Note_on_c, 2, 81, 0
4, 72360, Note_on_c, 2, 82, 100
4, 72390, Note_on_c, 2, 82, 0
4, 72390, Note_on_c, 2, 84, 100
4, 72420, Note_on_c, 2, 84, 0
4, 72420, Note_on_c, 2, 86, 100
4, 72450, Note_on_c, 2, 86, 0
4, 72450, Note_on_c, 2, 87, 100
4, 72480, Note_on_c, 2, 87, 0
4, 72480, Note_on_c, 2, 89, 100
4, 72750, Note_on_c, 2, 89, 0
4, 72750, Note_on_c, 2, 81, 100
4, 72780, Note_on_c, 2, 81, 0
4, 72780, Note_on_c, 2, 82, 100
4, 72810, Note_on_c, 2, 82, 0
4, 72810, Note_on_c, 2, 84, 100
4, 72840, Note_on_c, 2, 84, 0
4, 72840, Note_on_c, 2, 86, 100
4, 72870, Note_on_c, 2, 86, 0
4, 72870, Note_on_c, 2, 87, 100
4, 72900, Note_on_c, 2, 87, 0
4, 72900, Note_on_c, 2, 89, 100
4, 72930, Note_on_c, 2, 89, 0
4, 72930, Note_on_c, 2, 91, 100
4, 72960, Note_on_c, 2, 91, 0
4, 72960, Note_on_c, 2, 92, 100
4, 73020, Note_on_c, 2, 92, 0
4, 73020, Note_on_c, 2, 91, 100
4, 73080, Note_on_c, 2, 91, 0
4, 73080, Note_on_c, 2, 89, 100
4, 73140, Note_on_c, 2, 89, 0
4, 73140, Note_on_c, 2, 87, 100
4, 73200, Note_on_c, 2, 87, 0
4, 73200, Note_on_c, 2, 86, 100
4, 73260, Note_on_c, 2, 86, 0
4, 73260, Note_on_c, 2, 84, 100
4, 73320, Note_on_c, 2, 84, 0
4, 73320, Note_on_c, 2, 82, 100
4, 73380, Note_on_c, 2, 82, 0
4, 73380, Note_on_c, 2, 80, 100
4, 73440, Note_on_c, 2, 80, 0
4, 73440, Note_on_c, 2, 79, 100
4, 73500, Note_on_c, 2, 79, 0
4, 73500, Note_on_c, 2, 81, 100
4, 73530, Note_on_c, 2, 81, 0
4, 73530, Note_on_c, 2, 82, 100
4, 73560, Note_on_c, 2, 82, 0
4, 73560, Note_on_c, 2, 84, 100
4, 73590, Note_on_c, 2, 84, 0
4, 73590, Note_on_c, 2, 86, 100
4, 73620, Note_on_c, 2, 86, 0
4, 73620, Note_on_c, 2, 87, 100
4, 73650, Note_on_c, 2, 87, 0
4, 73650, Note_on_c, 2, 89, 100
4, 73680, Note_on_c, 2, 89, 0
4, 73680, Note_on_c, 2, 91, 100
4, 73710, Note_on_c, 2, 91, 0
4, 73710, Note_on_c, 2, 93, 100
4, 73740, Note_on_c, 2, 93, 0
4, 73740, Note_on_c, 2, 94, 100
4, 73770, Note_on_c, 2, 94, 0
4, 73770, Note_on_c, 2, 93, 100
4, 73800, Note_on_c, 2, 93, 0
4, 73800, Note_on_c, 2, 94, 100
4, 73830, Note_on_c, 2, 94, 0
4, 73830, Note_on_c, 2, 93, 100
4, 73860, Note_on_c, 2, 93, 0
4, 73860, Note_on_c, 2, 94, 100
4, 73890, Note_on_c, 2, 94, 0
4, 73890, Note_on_c, 2, 93, 100
4, 73920, Note_on_c, 2, 93, 0
4, 73920, Note_on_c, 2, 94, 100
4, 73980, Note_on_c, 2, 94, 0
4, 73980, Note_on_c, 2, 93, 100
4, 74040, Note_on_c, 2, 93, 0
4, 74040, Note_on_c, 2, 91, 100
4, 74100, Note_on_c, 2, 91, 0
4, 74100, Note_on_c, 2, 89, 100
4, 74160, Note_on_c, 2, 89, 0
4, 74160, Note_on_c, 2, 87, 100
4, 74220, Note_on_c, 2, 87, 0
4, 74220, Note_on_c, 2, 86, 100
4, 74280, Note_on_c, 2, 86, 0
4, 74280, Note_on_c, 2, 84, 100
4, 74340, Note_on_c, 2, 84, 0
4, 74340, Note_on_c, 2, 82, 100
4, 74400, Note_on_c, 2, 82, 0
4, 74400, Note_on_c, 2, 91, 100
4, 74490, Note_on_c, 2, 91, 0
4, 74490, Note_on_c, 2, 89, 100
4, 74520, Note_on_c, 2, 89, 0
4, 74520, Note_on_c, 2, 89, 100
4, 74700, Note_on_c, 2, 89, 0
4, 74700, Note_on_c, 2, 91, 100
4, 74730, Note_on_c, 2, 91, 0
4, 74730, Note_on_c, 2, 89, 100
4, 74760, Note_on_c, 2, 89, 0
4, 74760, Note_on_c, 2, 87, 100
4, 74790, Note_on_c, 2, 87, 0
4, 74790, Note_on_c, 2, 86, 100
4, 74820, Note_on_c, 2, 86, 0
4, 74820, Note_on_c, 2, 84, 100
4, 74850, Note_on_c, 2, 84, 0
4, 74850, Note_on_c, 2, 82, 100
4, 74880, Note_on_c, 2, 82, 0
4, 74880, Note_on_c, 2, 84, 100
4, 75360, Note_on_c, 2, 84, 0
4, 75360, Note_on_c, 2, 82, 100
4, 75480, Note_on_c, 2, 82, 0
4, 75480, Note_on_c, 2, 62, 100
4, 75480, Note_on_c, 2, 70, 100
4, 75480, Note_on_c, 2, 82, 100
4, 75600, Note_on_c, 2, 82, 0
4, 75600, Note_on_c, 2, 70, 0
4, 75600, Note_on_c, 2, 62, 0
4, 75720, Note_on_c, 2, 62, 100
4, 75720, Note_on_c, 2, 70, 100
4, 75720, Note_on_c, 2, 82, 100
4, 75840, Note_on_c, 2, 82, 0
4, 75840, Note_on_c, 2, 70, 0
4, 75840, Note_on_c, 2, 62, 0
4, 75960, Note_on_c, 2, 74, 100
4, 76050, Note_on_c, 2, 74, 0
4, 76050, Note_on_c, 2, 77, 100
4, 76080, Note_on_c, 2, 77, 0
4, 76080, Note_on_c, 2, 82, 100
4, 76140, Note_on_c, 2, 82, 0
4, 76140, Note_on_c, 2, 82, 100
4, 76200, Note_on_c, 2, 82, 0
4, 76200, Note_on_c, 2, 82, 100
4, 76260, Note_on_c, 2, 82, 0
4, 76260, Note_on_c, 2, 82, 100
4, 76320, Note_on_c, 2, 82, 0
4, 76320, Note_on_c, 2, 82, 100
4, 76380, Note_on_c, 2, 82, 0
4, 76380, Note_on_c, 2, 81, 100
4, 76440, Note_on_c, 2, 81, 0
4, 76440, Note_on_c, 2, 81, 100
4, 76560, Note_on_c, 2, 81, 0
4, 76680, Note_on_c, 2, 75, 100
4, 76680, Note_on_c, 2, 84, 100
4, 76800, Note_on_c, 2, 84, 0
4, 76800, Note_on_c, 2, 75, 0
4, 76920, Note_on_c, 2, 75, 100
4, 77010, Note_on_c, 2, 75, 0
4, 77010, Note_on_c, 2, 81, 100
4, 77040, Note_on_c, 2, 81, 0
4, 77040, Note_on_c, 2, 84, 100
4, 77100, Note_on_c, 2, 84, 0
4, 77100, Note_on_c, 2, 84, 100
4, 77160, Note_on_c, 2, 84, 0
4, 77160, Note_on_c, 2, 84, 100
4, 77220, Note_on_c, 2, 84, 0
4, 77220, Note_on_c, 2, 84, 100
4, 77280, Note_on_c, 2, 84, 0
4, 77280, Note_on_c, 2, 84, 100
4, 77340, Note_on_c, 2, 84, 0
4, 77340, Note_on_c, 2, 82, 100
4, 77400, Note_on_c, 2, 82, 0
4, 77400, Note_on_c, 2, 82, 100
4, 77520, Note_on_c, 2, 82, 0
4, 77640, Note_on_c, 2, 77, 100
4, 77640, Note_on_c, 2, 86, 100
4, 77760, Note_on_c, 2, 86, 0
4, 77760, Note_on_c, 2, 77, 0
4, 77880, Note_on_c, 2, 77, 100
4, 77970, Note_on_c, 2, 77, 0
4, 77970, Note_on_c, 2, 82, 100
4, 78000, Note_on_c, 2, 82, 0
4, 78000, Note_on_c, 2, 86, 100
4, 78060, Note_on_c, 2, 86, 0
4, 78060, Note_on_c, 2, 86, 100
4, 78120, Note_on_c, 2, 86, 0
4, 78120, Note_on_c, 2, 86, 100
4, 78180, Note_on_c, 2, 86, 0
4, 78180, Note_on_c, 2, 86, 100
4, 78240, Note_on_c, 2, 86, 0
4, 78240, Note_on_c, 2, 60, 100
4, 78300, Note_on_c, 2, 60, 0
4, 78300, Note_on_c, 2, 62, 100
4, 78330, Note_on_c, 2, 62, 0
4, 78330, Note_on_c, 2, 63, 100
4, 78360, Note_on_c, 2, 63, 0
4, 78360, Note_on_c, 2, 65, 100
4, 78390, Note_on_c, 2, 65, 0
4, 78390, Note_on_c, 2, 67, 100
4, 78420, Note_on_c, 2, 67, 0
4, 78420, Note_on_c, 2, 69, 100
4, 78450, Note_on_c, 2, 69, 0
4, 78450, Note_on_c, 2, 71, 100
4, 78480, Note_on_c, 2, 71, 0
4, 78480, Note_on_c, 2, 72, 100
4, 78510, Note_on_c, 2, 72, 0
4, 78510, Note_on_c, 2, 71, 100
4, 78540, Note_on_c, 2, 71, 0
4, 78540, Note_on_c, 2, 72, 100
4, 78570, Note_on_c, 2, 72, 0
4, 78570, Note_on_c, 2, 74, 100
4, 78600, Note_on_c, 2, 74, 0
4, 78600, Note_on_c, 2, 75, 100
4, 78630, Note_on_c, 2, 75, 0
4, 78630, Note_on_c, 2, 74, 100
4, 78660, Note_on_c, 2, 74, 0
4, 78660, Note_on_c, 2, 75, 100
4, 78690, Note_on_c, 2, 75, 0
4, 78690, Note_on_c, 2, 77, 100
4, 78720, Note_on_c, 2, 77, 0
4, 78720, Note_on_c, 2, 79, 100
4, 78750, Note_on_c, 2, 79, 0
4, 78750, Note_on_c, 2, 78, 100
4, 78780, Note_on_c, 2, 78, 0
4, 78780, Note_on_c, 2, 79, 100
4, 78810, Note_on_c, 2, 79, 0
4, 78810, Note_on_c, 2, 81, 100
4, 78840, Note_on_c, 2, 81, 0
4, 78840, Note_on_c, 2, 82, 100
4, 78870, Note_on_c, 2, 82, 0
4, 78870, Note_on_c, 2, 81, 100
4, 78900, Note_on_c, 2, 81, 0
4, 78900, Note_on_c, 2, 79, 100
4, 78930, Note_on_c, 2, 79, 0
4, 78930, Note_on_c, 2, 77, 100
4, 78960, Note_on_c, 2, 77, 0
4, 78960, Note_on_c, 2, 75, 100
4, 78990, Note_on_c, 2, 75, 0
4, 78990, Note_on_c, 2, 74, 100
4, 79020, Note_on_c, 2, 74, 0
4, 79020, Note_on_c, 2, 72, 100
4, 79050, Note_on_c, 2, 72, 0
4, 79050, Note_on_c, 2, 74, 100
4, 79080, Note_on_c, 2, 74, 0
4, 79080, Note_on_c, 2, 75, 100
4, 79110, Note_on_c, 2, 75, 0
4, 79110, Note_on_c, 2, 77, 100
4, 79140, Note_on_c, 2, 77, 0
4, 79140, Note_on_c, 2, 79, 100
4, 79170, Note_on_c, 2, 79, 0
4, 79170, Note_on_c, 2, 75, 100
4, 79185, Note_on_c, 2, 74, 100
4, 79200, Note_on_c, 2, 74, 0
4, 79200, Note_on_c, 2, 75, 0
4, 79200, Note_on_c, 2, 77, 100
4, 79380, Note_on_c, 2, 77, 0
4, 79380, Note_on_c, 2, 74, 100
4, 79410, Note_on_c, 2, 74, 0
4, 79410, Note_on_c, 2, 70, 100
4, 79440, Note_on_c, 2, 70, 0
4, 79440, Note_on_c, 2, 77, 100
4, 79500, Note_on_c, 2, 77, 0
4, 79500, Note_on_c, 2, 74, 100
4, 79530, Note_on_c, 2, 74, 0
4, 79530, Note_on_c, 2, 70, 100
4, 79560, Note_on_c, 2, 70, 0
4, 79560, Note_on_c, 2, 77, 100
4, 79620, Note_on_c, 2, 77, 0
4, 79620, Note_on_c, 2, 74, 100
4, 79650, Note_on_c, 2, 74, 0
4, 79650, Note_on_c, 2, 70, 100
4, 79680, Note_on_c, 2, 70, 0
4, 79680, Note_on_c, 2, 75, 100
4, 79860, Note_on_c, 2, 75, 0
4, 79860, Note_on_c, 2, 72, 100
4, 79890, Note_on_c, 2, 72, 0
4, 79890, Note_on_c, 2, 69, 100
4, 79920, Note_on_c, 2, 69, 0
4, 79920, Note_on_c, 2, 75, 100
4, 79980, Note_on_c, 2, 75, 0
4, 79980, Note_on_c, 2, 72, 100
4, 80010, Note_on_c, 2, 72, 0
4, 80010, Note_on_c, 2, 69, 100
4, 80040, Note_on_c, 2, 69, 0
4, 80040, Note_on_c, 2, 75, 100
4, 80100, Note_on_c, 2, 75, 0
4, 80100, Note_on_c, 2, 72, 100
4, 80130, Note_on_c, 2, 72, 0
4, 80130, Note_on_c, 2, 69, 100
4, 80160, Note_on_c, 2, 69, 0
4, 80160, Note_on_c, 2, 70, 100
4, 80220, Note_on_c, 2, 70, 0
4, 80220, Note_on_c, 2, 70, 100
4, 80220, Note_on_c, 2, 82, 100
4, 80340, Note_on_c, 2, 82, 0
4, 80340, Note_on_c, 2, 70, 0
4, 80340, Note_on_c, 2, 70, 100
4, 80340, Note_on_c, 2, 82, 100
4, 80460, Note_on_c, 2, 82, 0
4, 80460, Note_on_c, 2, 70, 0
4, 80460, Note_on_c, 2, 70, 100
4, 80460, Note_on_c, 2, 82, 100
4, 80580, Note_on_c, 2, 82, 0
4, 80580, Note_on_c, 2, 70, 0
4, 80580, Note_on_c, 2, 70, 100
4, 80580, Note_on_c, 2, 82, 100
4, 80700, Note_on_c, 2, 82, 0
4, 80700, Note_on_c, 2, 70, 0
4, 80700, Note_on_c, 2, 70, 100
4, 80700, Note_on_c, 2, 82, 100
4, 80820, Note_on_c, 2, 82, 0
4, 80820, Note_on_c, 2, 70, 0
4, 80820, Note_on_c, 2, 70, 100
4, 80820, Note_on_c, 2, 82, 100
4, 80940, Note_on_c, 2, 82, 0
4, 80940, Note_on_c, 2, 70, 0
4, 80940, Note_on_c, 2, 70, 100
4, 80940, Note_on_c, 2, 82, 100
4, 81060, Note_on_c, 2, 82, 0
4, 81060, Note_on_c, 2, 70, 0
4, 81060, Note_on_c, 2, 70, 100
4, 81060, Note_on_c, 2, 82, 100
4, 81180, Note_on_c, 2, 82, 0
4, 81180, Note_on_c, 2, 70, 0
4, 81180, Note_on_c, 2, 70, 100
4, 81180, Note_on_c, 2, 86, 100
4, 81300, Note_on_c, 2, 86, 0
4, 81300, Note_on_c, 2, 70, 0
4, 81300, Note_on_c, 2, 70, 100
4, 81300, Note_on_c, 2, 86, 100
4, 81420, Note_on_c, 2, 86, 0
4, 81420, Note_on_c, 2, 70, 0
4, 81420, Note_on_c, 2, 70, 100
4, 81420, Note_on_c, 2, 86, 100
4, 81540, Note_on_c, 2, 86, 0
4, 81540, Note_on_c, 2, 70, 0
4, 81540, Note_on_c, 2, 70, 100
4, 81540, Note_on_c, 2, 86, 100
4, 81660, Note_on_c, 2, 86, 0
4, 81660, Note_on_c, 2, 70, 0
4, 81660, Note_on_c, 2, 70, 100
4, 81660, Note_on_c, 2, 86, 100
4, 81780, Note_on_c, 2, 86, 0
4, 81780, Note_on_c, 2, 70, 0
4, 81780, Note_on_c, 2, 70, 100
4, 81780, Note_on_c, 2, 86, 100
4, 81900, Note_on_c, 2, 86, 0
4, 81900, Note_on_c, 2, 70, 0
4, 81900, Note_on_c, 2, 70, 100
4, 81900, Note_on_c, 2, 86, 100
4, 82020, Note_on_c, 2, 86, 0
4, 82020, Note_on_c, 2, 70, 0
4, 82020, Note_on_c, 2, 70, 100
4, 82020, Note_on_c, 2, 86, 100
4, 82200, Note_on_c, 2, 86, 0
4, 82200, Note_on_c, 2, 70, 0
4, 83040, Note_on_c, 2, 74, 100
4, 83265, Note_on_c, 2, 77, 100
4, 83280, Note_on_c, 2, 77, 0
4, 83280, Note_on_c, 2, 74, 0
4, 83280, Note_on_c, 2, 75, 100
4, 83400, Note_on_c, 2, 75, 0
4, 83400, Note_on_c, 2, 74, 100
4, 83460, Note_on_c, 2, 74, 0
4, 83460, Note_on_c, 2, 72, 100
4, 83520, Note_on_c, 2, 72, 0
4, 83520, Note_on_c, 2, 74, 100
4, 83700, Note_on_c, 2, 74, 0
4, 83700, Note_on_c, 2, 75, 100
4, 83730, Note_on_c, 2, 75, 0
4, 83730, Note_on_c, 2, 74, 100
4, 83760, Note_on_c, 2, 74, 0
4, 83760, Note_on_c, 2, 79, 100
4, 83880, Note_on_c, 2, 79, 0
4, 83880, Note_on_c, 2, 79, 100
4, 84000, Note_on_c, 2, 79, 0
4, 84000, Note_on_c, 2, 79, 100
4, 84060, Note_on_c, 2, 78, 100
4, 84075, Note_on_c, 2, 78, 0
4, 84075, Note_on_c, 2, 79, 100
4, 84090, Note_on_c, 2, 79, 0
4, 84090, Note_on_c, 2, 81, 100
4, 84105, Note_on_c, 2, 81, 0
4, 84105, Note_on_c, 2, 79, 100
4, 84120, Note_on_c, 2, 79, 0
4, 84120, Note_on_c, 2, 79, 0
4, 84120, Note_on_c, 2, 78, 100
4, 84180, Note_on_c, 2, 78, 0
4, 84300, Note_on_c, 2, 78, 100
4, 84360, Note_on_c, 2, 78, 0
4, 84360, Note_on_c, 2, 79, 100
4, 84420, Note_on_c, 2, 79, 0
4, 84420, Note_on_c, 2, 81, 100
4, 84480, Note_on_c, 2, 81, 0
4, 84480, Note_on_c, 2, 75, 100
4, 84720, Note_on_c, 2, 75, 0
4, 84720, Note_on_c, 2, 74, 100
4, 84780, Note_on_c, 2, 74, 0
4, 84780, Note_on_c, 2, 78, 100
4, 84840, Note_on_c, 2, 78, 0
4, 84840, Note_on_c, 2, 79, 100
4, 84900, Note_on_c, 2, 79, 0
4, 84900, Note_on_c, 2, 81, 100
4, 84960, Note_on_c, 2, 81, 0
4, 84960, Note_on_c, 2, 75, 100
4, 85200, Note_on_c, 2, 75, 0
4, 85200, Note_on_c, 2, 74, 100
4, 85260, Note_on_c, 2, 74, 0
4, 85260, Note_on_c, 2, 78, 100
4, 85320, Note_on_c, 2, 78, 0
4, 85320, Note_on_c, 2, 79, 100
4, 85380, Note_on_c, 2, 79, 0
4, 85380, Note_on_c, 2, 81, 100
4, 85440, Note_on_c, 2, 81, 0
4, 85440, Note_on_c, 2, 63, 100
4, 85560, Note_on_c, 2, 63, 0
4, 85560, Note_on_c, 2, 62, 100
4, 85680, Note_on_c, 2, 62, 0
4, 85680, Note_on_c, 2, 84, 100
4, 85950, Note_on_c, 2, 84, 0
4, 85950, Note_on_c, 2, 86, 100
4, 85980, Note_on_c, 2, 86, 0
4, 85980, Note_on_c, 2, 87, 100
4, 86010, Note_on_c, 2, 87, 0
4, 86010, Note_on_c, 2, 84, 100
4, 86040, Note_on_c, 2, 84, 0
4, 86040, Note_on_c, 2, 81, 100
4, 86070, Note_on_c, 2, 81, 0
4, 86070, Note_on_c, 2, 82, 100
4, 86100, Note_on_c, 2, 82, 0
4, 86100, Note_on_c, 2, 84, 100
4, 86130, Note_on_c, 2, 84, 0
4, 86130, Note_on_c, 2, 81, 100
4, 86160, Note_on_c, 2, 81, 0
4, 86160, Note_on_c, 2, 78, 100
4, 86190, Note_on_c, 2, 78, 0
4, 86190, Note_on_c, 2, 79, 100
4, 86220, Note_on_c, 2, 79, 0
4, 86220, Note_on_c, 2, 81, 100
4, 86250, Note_on_c, 2, 81, 0
4, 86250, Note_on_c, 2, 78, 100
4, 86280, Note_on_c, 2, 78, 0
4, 86280, Note_on_c, 2, 72, 100
4, 86310, Note_on_c, 2, 72, 0
4, 86310, Note_on_c, 2, 74, 100
4, 86340, Note_on_c, 2, 74, 0
4, 86340, Note_on_c, 2, 75, 100
4, 86370, Note_on_c, 2, 75, 0
4, 86370, Note_on_c, 2, 72, 100
4, 86385, Note_on_c, 2, 72, 100
4, 86400, Note_on_c, 2, 72, 0
4, 86400, Note_on_c, 2, 72, 0
4, 86400, Note_on_c, 2, 70, 100
4, 86460, Note_on_c, 2, 70, 0
4, 86460, Note_on_c, 2, 69, 100
4, 86490, Note_on_c, 2, 69, 0
4, 86490, Note_on_c, 2, 67, 100
4, 86520, Note_on_c, 2, 67, 0
4, 86520, Note_on_c, 2, 67, 100
4, 86640, Note_on_c, 2, 67, 0
4, 92670, Note_on_c, 2, 79, 100
4, 92700, Note_on_c, 2, 79, 0
4, 92700, Note_on_c, 2, 78, 100
4, 92730, Note_on_c, 2, 78, 0
4, 92730, Note_on_c, 2, 79, 100
4, 92760, Note_on_c, 2, 79, 0
4, 92760, Note_on_c, 2, 80, 100
4, 92790, Note_on_c, 2, 80, 0
4, 92790, Note_on_c, 2, 79, 100
4, 92820, Note_on_c, 2, 79, 0
4, 92820, Note_on_c, 2, 78, 100
4, 92850, Note_on_c, 2, 78, 0
4, 92850, Note_on_c, 2, 79, 100
4, 92880, Note_on_c, 2, 79, 0
4, 92880, Note_on_c, 2, 75, 100
4, 92910, Note_on_c, 2, 75, 0
4, 92910, Note_on_c, 2, 79, 100
4, 92940, Note_on_c, 2, 79, 0
4, 92940, Note_on_c, 2, 74, 100
4, 92970, Note_on_c, 2, 74, 0
4, 92970, Note_on_c, 2, 79, 100
4, 93000, Note_on_c, 2, 79, 0
4, 93000, Note_on_c, 2, 72, 100
4, 93030, Note_on_c, 2, 72, 0
4, 93030, Note_on_c, 2, 79, 100
4, 93060, Note_on_c, 2, 79, 0
4, 93060, Note_on_c, 2, 71, 100
4, 93090, Note_on_c, 2, 71, 0
4, 93090, Note_on_c, 2, 79, 100
4, 93120, Note_on_c, 2, 79, 0
4, 93120, Note_on_c, 2, 72, 100
4, 93240, Note_on_c, 2, 72, 0
4, 93630, Note_on_c, 2, 84, 100
4, 93660, Note_on_c, 2, 84, 0
4, 93660, Note_on_c, 2, 83, 100
4, 93690, Note_on_c, 2, 83, 0
4, 93690, Note_on_c, 2, 84, 100
4, 93720, Note_on_c, 2, 84, 0
4, 93720, Note_on_c, 2, 85, 100
4, 93750, Note_on_c, 2, 85, 0
4, 93750, Note_on_c, 2, 84, 100
4, 93780, Note_on_c, 2, 84, 0
4, 93780, Note_on_c, 2, 83, 100
4, 93810, Note_on_c, 2, 83, 0
4, 93810, Note_on_c, 2, 84, 100
4, 93840, Note_on_c, 2, 84, 0
4, 93840, Note_on_c, 2, 80, 100
4, 93870, Note_on_c, 2, 80, 0
4, 93870, Note_on_c, 2, 84, 100
4, 93900, Note_on_c, 2, 84, 0
4, 93900, Note_on_c, 2, 79, 100
4, 93930, Note_on_c, 2, 79, 0
4, 93930, Note_on_c, 2, 84, 100
4, 93960, Note_on_c, 2, 84, 0
4, 93960, Note_on_c, 2, 77, 100
4, 93990, Note_on_c, 2, 77, 0
4, 93990, Note_on_c, 2, 84, 100
4, 94020, Note_on_c, 2, 84, 0
4, 94020, Note_on_c, 2, 76, 100
4, 94050, Note_on_c, 2, 76, 0
4, 94050, Note_on_c, 2, 84, 100
4, 94080, Note_on_c, 2, 84, 0
4, 94080, Note_on_c, 2, 77, 100
4, 94200, Note_on_c, 2, 77, 0
4, 94590, Note_on_c, 2, 77, 100
4, 94620, Note_on_c, 2, 77, 0
4, 94620, Note_on_c, 2, 76, 100
4, 94650, Note_on_c, 2, 76, 0
4, 94650, Note_on_c, 2, 77, 100
4, 94680, Note_on_c, 2, 77, 0
4, 94680, Note_on_c, 2, 79, 100
4, 94710, Note_on_c, 2, 79, 0
4, 94710, Note_on_c, 2, 77, 100
4, 94740, Note_on_c, 2, 77, 0
4, 94740, Note_on_c, 2, 76, 100
4, 94770, Note_on_c, 2, 76, 0
4, 94770, Note_on_c, 2, 77, 100
4, 94800, Note_on_c, 2, 77, 0
4, 94800, Note_on_c, 2, 74, 100
4, 94830, Note_on_c, 2, 74, 0
4, 94830, Note_on_c, 2, 77, 100
4, 94860, Note_on_c, 2, 77, 0
4, 94860, Note_on_c, 2, 72, 100
4, 94890, Note_on_c, 2, 72, 0
4, 94890, Note_on_c, 2, 77, 100
4, 94920, Note_on_c, 2, 77, 0
4, 94920, Note_on_c, 2, 70, 100
4, 94950, Note_on_c, 2, 70, 0
4, 94950, Note_on_c, 2, 77, 100
4, 94980, Note_on_c, 2, 77, 0
4, 94980, Note_on_c, 2, 69, 100
4, 95010, Note_on_c, 2, 69, 0
4, 95010, Note_on_c, 2, 77, 100
4, 95040, Note_on_c, 2, 77, 0
4, 95040, Note_on_c, 2, 70, 100
4, 95160, Note_on_c, 2, 70, 0
4, 95550, Note_on_c, 2, 82, 100
4, 95580, Note_on_c, 2, 82, 0
4, 95580, Note_on_c, 2, 81, 100
4, 95610, Note_on_c, 2, 81, 0
4, 95610, Note_on_c, 2, 82, 100
4, 95640, Note_on_c, 2, 82, 0
4, 95640, Note_on_c, 2, 84, 100
4, 95670, Note_on_c, 2, 84, 0
4, 95670, Note_on_c, 2, 82, 100
4, 95700, Note_on_c, 2, 82, 0
4, 95700, Note_on_c, 2, 81, 100
4, 95730, Note_on_c, 2, 81, 0
4, 95730, Note_on_c, 2, 82, 100
4, 95760, Note_on_c, 2, 82, 0
4, 95760, Note_on_c, 2, 79, 100
4, 95790, Note_on_c, 2, 79, 0
4, 95790, Note_on_c, 2, 82, 100
4, 95820, Note_on_c, 2, 82, 0
4, 95820, Note_on_c, 2, 77, 100
4, 95850, Note_on_c, 2, 77, 0
4, 95850, Note_on_c, 2, 82, 100
4, 95880, Note_on_c, 2, 82, 0
4, 95880, Note_on_c, 2, 75, 100
4, 95910, Note_on_c, 2, 75, 0
4, 95910, Note_on_c, 2, 82, 100
4, 95940, Note_on_c, 2, 82, 0
4, 95940, Note_on_c, 2, 74, 100
4, 95970, Note_on_c, 2, 74, 0
4, 95970, Note_on_c, 2, 82, 100
4, 96000, Note_on_c, 2, 82, 0
4, 96000, Note_on_c, 2, 75, 100
4, 96120, Note_on_c, 2, 75, 0
4, 96510, Note_on_c, 2, 75, 100
4, 96540, Note_on_c, 2, 75, 0
4, 96540, Note_on_c, 2, 74, 100
4, 96570, Note_on_c, 2, 74, 0
4, 96570, Note_on_c, 2, 75, 100
4, 96600, Note_on_c, 2, 75, 0
4, 96600, Note_on_c, 2, 77, 100
4, 96630, Note_on_c, 2, 77, 0
4, 96630, Note_on_c, 2, 75, 100
4, 96660, Note_on_c, 2, 75, 0
4, 96660, Note_on_c, 2, 74, 100
4, 96690, Note_on_c, 2, 74, 0
4, 96690, Note_on_c, 2, 75, 100
4, 96720, Note_on_c, 2, 75, 0
4, 96720, Note_on_c, 2, 73, 100
4, 96840, Note_on_c, 2, 73, 0
4, 96990, Note_on_c, 2, 72, 100
4, 97020, Note_on_c, 2, 72, 0
4, 97020, Note_on_c, 2, 71, 100
4, 97050, Note_on_c, 2, 71, 0
4, 97050, Note_on_c, 2, 72, 100
4, 97080, Note_on_c, 2, 72, 0
4, 97080, Note_on_c, 2, 73, 100
4, 97110, Note_on_c, 2, 73, 0
4, 97110, Note_on_c, 2, 72, 100
4, 97140, Note_on_c, 2, 72, 0
4, 97140, Note_on_c, 2, 71, 100
4, 97170, Note_on_c, 2, 71, 0
4, 97170, Note_on_c, 2, 72, 100
4, 97200, Note_on_c, 2, 72, 0
4, 97200, Note_on_c, 2, 70, 100
4, 97320, Note_on_c, 2, 70, 0
4, 97470, Note_on_c, 2, 77, 100
4, 97500, Note_on_c, 2, 77, 0
4, 97500, Note_on_c, 2, 76, 100
4, 97530, Note_on_c, 2, 76, 0
4, 97530, Note_on_c, 2, 77, 100
4, 97560, Note_on_c, 2, 77, 0
4, 97560, Note_on_c, 2, 76, 100
4, 97590, Note_on_c, 2, 76, 0
4, 97590, Note_on_c, 2, 77, 100
4, 97620, Note_on_c, 2, 77, 0
4, 97620, Note_on_c, 2, 79, 100
4, 97650, Note_on_c, 2, 79, 0
4, 97650, Note_on_c, 2, 77, 100
4, 97680, Note_on_c, 2, 77, 0
4, 97680, Note_on_c, 2, 75, 100
4, 97800, Note_on_c, 2, 75, 0
4, 97950, Note_on_c, 2, 74, 100
4, 97980, Note_on_c, 2, 74, 0
4, 97980, Note_on_c, 2, 73, 100
4, 98010, Note_on_c, 2, 73, 0
4, 98010, Note_on_c, 2, 74, 100
4, 98040, Note_on_c, 2, 74, 0
4, 98040, Note_on_c, 2, 73, 100
4, 98070, Note_on_c, 2, 73, 0
4, 98070, Note_on_c, 2, 74, 100
4, 98100, Note_on_c, 2, 74, 0
4, 98100, Note_on_c, 2, 75, 100
4, 98130, Note_on_c, 2, 75, 0
4, 98130, Note_on_c, 2, 74, 100
4, 98160, Note_on_c, 2, 74, 0
4, 98160, Note_on_c, 2, 72, 100
4, 98280, Note_on_c, 2, 72, 0
4, 98430, Note_on_c, 2, 79, 100
4, 98460, Note_on_c, 2, 79, 0
4, 98460, Note_on_c, 2, 78, 100
4, 98490, Note_on_c, 2, 78, 0
4, 98490, Note_on_c, 2, 79, 100
4, 98520, Note_on_c, 2, 79, 0
4, 98520, Note_on_c, 2, 80, 100
4, 98550, Note_on_c, 2, 80, 0
4, 98550, Note_on_c, 2, 79, 100
4, 98580, Note_on_c, 2, 79, 0
4, 98580, Note_on_c, 2, 78, 100
4, 98610, Note_on_c, 2, 78, 0
4, 98610, Note_on_c, 2, 79, 100
4, 98640, Note_on_c, 2, 79, 0
4, 98640, Note_on_c, 2, 77, 100
4, 98760, Note_on_c, 2, 77, 0
4, 98910, Note_on_c, 2, 87, 100
4, 98940, Note_on_c, 2, 87, 0
4, 98940, Note_on_c, 2, 86, 100
4, 98970, Note_on_c, 2, 86, 0
4, 98970, Note_on_c, 2, 87, 100
4, 99000, Note_on_c, 2, 87, 0
4, 99000, Note_on_c, 2, 89, 100
4, 99030, Note_on_c, 2, 89, 0
4, 99030, Note_on_c, 2, 87, 100
4, 99060, Note_on_c, 2, 87, 0
4, 99060, Note_on_c, 2, 86, 100
4, 99090, Note_on_c, 2, 86, 0
4, 99090, Note_on_c, 2, 87, 100
4, 99120, Note_on_c, 2, 87, 0
4, 99120, Note_on_c, 2, 85, 100
4, 99240, Note_on_c, 2, 85, 0
4, 99390, Note_on_c, 2, 84, 100
4, 99420, Note_on_c, 2, 84, 0
4, 99420, Note_on_c, 2, 83, 100
4, 99450, Note_on_c, 2, 83, 0
4, 99450, Note_on_c, 2, 84, 100
4, 99480, Note_on_c, 2, 84, 0
4, 99480, Note_on_c, 2, 83, 100
4, 99510, Note_on_c, 2, 83, 0
4, 99510, Note_on_c, 2, 84, 100
4, 99540, Note_on_c, 2, 84, 0
4, 99540, Note_on_c, 2, 85, 100
4, 99570, Note_on_c, 2, 85, 0
4, 99570, Note_on_c, 2, 84, 100
4, 99600, Note_on_c, 2, 84, 0
4, 99600, Note_on_c, 2, 82, 100
4, 99720, Note_on_c, 2, 82, 0
4, 99870, Note_on_c, 2, 68, 100
4, 99900, Note_on_c, 2, 68, 0
4, 99900, Note_on_c, 2, 70, 100
4, 99930, Note_on_c, 2, 70, 0
4, 99930, Note_on_c, 2, 68, 100
4, 99960, Note_on_c, 2, 68, 0
4, 99960, Note_on_c, 2, 67, 100
4, 100080, Note_on_c, 2, 67, 0
4, 100110, Note_on_c, 2, 65, 100
4, 100140, Note_on_c, 2, 65, 0
4, 100140, Note_on_c, 2, 67, 100
4, 100170, Note_on_c, 2, 67, 0
4, 100170, Note_on_c, 2, 65, 100
4, 100200, Note_on_c, 2, 65, 0
4, 100200, Note_on_c, 2, 63, 100
4, 100320, Note_on_c, 2, 63, 0
4, 100350, Note_on_c, 2, 58, 100
4, 100380, Note_on_c, 2, 58, 0
4, 100380, Note_on_c, 2, 62, 100
4, 100410, Note_on_c, 2, 62, 0
4, 100410, Note_on_c, 2, 65, 100
4, 100440, Note_on_c, 2, 65, 0
4, 100440, Note_on_c, 2, 70, 100
4, 100470, Note_on_c, 2, 70, 0
4, 100470, Note_on_c, 2, 65, 100
4, 100500, Note_on_c, 2, 65, 0
4, 100500, Note_on_c, 2, 74, 100
4, 100530, Note_on_c, 2, 74, 0
4, 100530, Note_on_c, 2, 70, 100
4, 100560, Note_on_c, 2, 70, 0
4, 100560, Note_on_c, 2, 77, 100
4, 100590, Note_on_c, 2, 77, 0
4, 100590, Note_on_c, 2, 74, 100
4, 100620, Note_on_c, 2, 74, 0
4, 100620, Note_on_c, 2, 82, 100
4, 100650, Note_on_c, 2, 82, 0
4, 100650, Note_on_c, 2, 81, 100
4, 100680, Note_on_c, 2, 81, 0
4, 100680, Note_on_c, 2, 82, 100
4, 100710, Note_on_c, 2, 82, 0
4, 100710, Note_on_c, 2, 77, 100
4, 100740, Note_on_c, 2, 77, 0
4, 100740, Note_on_c, 2, 74, 100
4, 100770, Note_on_c, 2, 74, 0
4, 100770, Note_on_c, 2, 70, 100
4, 100800, Note_on_c, 2, 70, 0
4, 100800, Note_on_c, 2, 58, 100
4, 100920, Note_on_c, 2, 58, 0
4, 101310, Note_on_c, 2, 55, 100
4, 101340, Note_on_c, 2, 55, 0
4, 101340, Note_on_c, 2, 58, 100
4, 101370, Note_on_c, 2, 58, 0
4, 101370, Note_on_c, 2, 63, 100
4, 101400, Note_on_c, 2, 63, 0
4, 101400, Note_on_c, 2, 67, 100
4, 101430, Note_on_c, 2, 67, 0
4, 101430, Note_on_c, 2, 63, 100
4, 101460, Note_on_c, 2, 63, 0
4, 101460, Note_on_c, 2, 70, 100
4, 101490, Note_on_c, 2, 70, 0
4, 101490, Note_on_c, 2, 67, 100
4, 101520, Note_on_c, 2, 67, 0
4, 101520, Note_on_c, 2, 75, 100
4, 101550, Note_on_c, 2, 75, 0
4, 101550, Note_on_c, 2, 63, 100
4, 101580, Note_on_c, 2, 63, 0
4, 101580, Note_on_c, 2, 67, 100
4, 101610, Note_on_c, 2, 67, 0
4, 101610, Note_on_c, 2, 70, 100
4, 101640, Note_on_c, 2, 70, 0
4, 101640, Note_on_c, 2, 75, 100
4, 101670, Note_on_c, 2, 75, 0
4, 101670, Note_on_c, 2, 70, 100
4, 101700, Note_on_c, 2, 70, 0
4, 101700, Note_on_c, 2, 79, 100
4, 101730, Note_on_c, 2, 79, 0
4, 101730, Note_on_c, 2, 75, 100
4, 101760, Note_on_c, 2, 75, 0
4, 101760, Note_on_c, 2, 82, 100
4, 101880, Note_on_c, 2, 82, 0
4, 102270, Note_on_c, 2, 58, 100
4, 102300, Note_on_c, 2, 58, 0
4, 102300, Note_on_c, 2, 62, 100
4, 102330, Note_on_c, 2, 62, 0
4, 102330, Note_on_c, 2, 65, 100
4, 102360, Note_on_c, 2, 65, 0
4, 102360, Note_on_c, 2, 70, 100
4, 102390, Note_on_c, 2, 70, 0
4, 102390, Note_on_c, 2, 65, 100
4, 102420, Note_on_c, 2, 65, 0
4, 102420, Note_on_c, 2, 74, 100
4, 102450, Note_on_c, 2, 74, 0
4, 102450, Note_on_c, 2, 70, 100
4, 102480, Note_on_c, 2, 70, 0
4, 102480, Note_on_c, 2, 77, 100
4, 102510, Note_on_c, 2, 77, 0
4, 102510, Note_on_c, 2, 74, 100
4, 102540, Note_on_c, 2, 74, 0
4, 102540, Note_on_c, 2, 82, 100
4, 102570, Note_on_c, 2, 82, 0
4, 102570, Note_on_c, 2, 81, 100
4, 102600, Note_on_c, 2, 81, 0
4, 102600, Note_on_c, 2, 82, 100
4, 102630, Note_on_c, 2, 82, 0
4, 102630, Note_on_c, 2, 77, 100
4, 102660, Note_on_c, 2, 77, 0
4, 102660, Note_on_c, 2, 74, 100
4, 102690, Note_on_c, 2, 74, 0
4, 102690, Note_on_c, 2, 70, 100
4, 102720, Note_on_c, 2, 70, 0
4, 102720, Note_on_c, 2, 58, 100
4, 102840, Note_on_c, 2, 58, 0
4, 103230, Note_on_c, 2, 55, 100
4, 103260, Note_on_c, 2, 55, 0
4, 103260, Note_on_c, 2, 58, 100
4, 103290, Note_on_c, 2, 58, 0
4, 103290, Note_on_c, 2, 63, 100
4, 103320, Note_on_c, 2, 63, 0
4, 103320, Note_on_c, 2, 67, 100
4, 103350, Note_on_c, 2, 67, 0
4, 103350, Note_on_c, 2, 63, 100
4, 103380, Note_on_c, 2, 63, 0
4, 103380, Note_on_c, 2, 70, 100
4, 103410, Note_on_c, 2, 70, 0
4, 103410, Note_on_c, 2, 67, 100
4, 103440, Note_on_c, 2, 67, 0
4, 103440, Note_on_c, 2, 75, 100
4, 103470, Note_on_c, 2, 75, 0
4, 103470, Note_on_c, 2, 63, 100
4, 103500, Note_on_c, 2, 63, 0
4, 103500, Note_on_c, 2, 67, 100
4, 103530, Note_on_c, 2, 67, 0
4, 103530, Note_on_c, 2, 70, 100
4, 103560, Note_on_c, 2, 70, 0
4, 103560, Note_on_c, 2, 75, 100
4, 103590, Note_on_c, 2, 75, 0
4, 103590, Note_on_c, 2, 70, 100
4, 103620, Note_on_c, 2, 70, 0
4, 103620, Note_on_c, 2, 79, 100
4, 103650, Note_on_c, 2, 79, 0
4, 103650, Note_on_c, 2, 75, 100
4, 103680, Note_on_c, 2, 75, 0
4, 103680, Note_on_c, 2, 82, 100
4, 103800, Note_on_c, 2, 82, 0
4, 104220, Note_on_c, 2, 58, 100
4, 104250, Note_on_c, 2, 58, 0
4, 104250, Note_on_c, 2, 60, 100
4, 104280, Note_on_c, 2, 60, 0
4, 104280, Note_on_c, 2, 62, 100
4, 104310, Note_on_c, 2, 62, 0
4, 104310, Note_on_c, 2, 63, 100
4, 104340, Note_on_c, 2, 63, 0
4, 104340, Note_on_c, 2, 65, 100
4, 104370, Note_on_c, 2, 65, 0
4, 104370, Note_on_c, 2, 67, 100
4, 104400, Note_on_c, 2, 67, 0
4, 104400, Note_on_c, 2, 65, 100
4, 104460, Note_on_c, 2, 65, 0
4, 104460, Note_on_c, 2, 62, 100
4, 104490, Note_on_c, 2, 62, 0
4, 104490, Note_on_c, 2, 63, 100
4, 104520, Note_on_c, 2, 63, 0
4, 104520, Note_on_c, 2, 65, 100
4, 104550, Note_on_c, 2, 65, 0
4, 104550, Note_on_c, 2, 67, 100
4, 104580, Note_on_c, 2, 67, 0
4, 104580, Note_on_c, 2, 68, 100
4, 104610, Note_on_c, 2, 68, 0
4, 104610, Note_on_c, 2, 70, 100
4, 104640, Note_on_c, 2, 70, 0
4, 104640, Note_on_c, 2, 68, 100
4, 104670, Note_on_c, 2, 68, 0
4, 104670, Note_on_c, 2, 65, 100
4, 104700, Note_on_c, 2, 65, 0
4, 104700, Note_on_c, 2, 67, 100
4, 104730, Note_on_c, 2, 67, 0
4, 104730, Note_on_c, 2, 68, 100
4, 104760, Note_on_c, 2, 68, 0
4, 104760, Note_on_c, 2, 70, 100
4, 104790, Note_on_c, 2, 70, 0
4, 104790, Note_on_c, 2, 72, 100
4, 104820, Note_on_c, 2, 72, 0
4, 104820, Note_on_c, 2, 74, 100
4, 104850, Note_on_c, 2, 74, 0
4, 104850, Note_on_c, 2, 75, 100
4, 104880, Note_on_c, 2, 75, 0
4, 104880, Note_on_c, 2, 74, 100
4, 104910, Note_on_c, 2, 74, 0
4, 104910, Note_on_c, 2, 69, 100
4, 104940, Note_on_c, 2, 69, 0
4, 104940, Note_on_c, 2, 70, 100
4, 104970, Note_on_c, 2, 70, 0
4, 104970, Note_on_c, 2, 72, 100
4, 105000, Note_on_c, 2, 72, 0
4, 105000, Note_on_c, 2, 74, 100
4, 105030, Note_on_c, 2, 74, 0
4, 105030, Note_on_c, 2, 75, 100
4, 105060, Note_on_c, 2, 75, 0
4, 105060, Note_on_c, 2, 77, 100
4, 105090, Note_on_c, 2, 77, 0
4, 105090, Note_on_c, 2, 79, 100
4, 105120, Note_on_c, 2, 79, 0
4, 105120, Note_on_c, 2, 77, 100
4, 105150, Note_on_c, 2, 77, 0
4, 105150, Note_on_c, 2, 72, 100
4, 105180, Note_on_c, 2, 72, 0
4, 105180, Note_on_c, 2, 74, 100
4, 105210, Note_on_c, 2, 74, 0
4, 105210, Note_on_c, 2, 75, 100
4, 105240, Note_on_c, 2, 75, 0
4, 105240, Note_on_c, 2, 77, 100
4, 105270, Note_on_c, 2, 77, 0
4, 105270, Note_on_c, 2, 79, 100
4, 105300, Note_on_c, 2, 79, 0
4, 105300, Note_on_c, 2, 80, 100
4, 105330, Note_on_c, 2, 80, 0
4, 105330, Note_on_c, 2, 82, 100
4, 105360, Note_on_c, 2, 82, 0
4, 105360, Note_on_c, 2, 80, 100
4, 105630, Note_on_c, 2, 80, 0
4, 105630, Note_on_c, 2, 79, 100
4, 105660, Note_on_c, 2, 79, 0
4, 105660, Note_on_c, 2, 80, 100
4, 105690, Note_on_c, 2, 80, 0
4, 105690, Note_on_c, 2, 82, 100
4, 105720, Note_on_c, 2, 82, 0
4, 105720, Note_on_c, 2, 84, 100
4, 105750, Note_on_c, 2, 84, 0
4, 105750, Note_on_c, 2, 82, 100
4, 105780, Note_on_c, 2, 82, 0
4, 105780, Note_on_c, 2, 80, 100
4, 105810, Note_on_c, 2, 80, 0
4, 105810, Note_on_c, 2, 79, 100
4, 105840, Note_on_c, 2, 79, 0
4, 105840, Note_on_c, 2, 77, 100
4, 105870, Note_on_c, 2, 77, 0
4, 105870, Note_on_c, 2, 76, 100
4, 105900, Note_on_c, 2, 76, 0
4, 105900, Note_on_c, 2, 77, 100
4, 105930, Note_on_c, 2, 77, 0
4, 105930, Note_on_c, 2, 79, 100
4, 105960, Note_on_c, 2, 79, 0
4, 105960, Note_on_c, 2, 80, 100
4, 105990, Note_on_c, 2, 80, 0
4, 105990, Note_on_c, 2, 79, 100
4, 106020, Note_on_c, 2, 79, 0
4, 106020, Note_on_c, 2, 77, 100
4, 106050, Note_on_c, 2, 77, 0
4, 106050, Note_on_c, 2, 75, 100
4, 106080, Note_on_c, 2, 75, 0
4, 106080, Note_on_c, 2, 74, 100
4, 106110, Note_on_c, 2, 74, 0
4, 106110, Note_on_c, 2, 72, 100
4, 106140, Note_on_c, 2, 72, 0
4, 106140, Note_on_c, 2, 74, 100
4, 106170, Note_on_c, 2, 74, 0
4, 106170, Note_on_c, 2, 75, 100
4, 106200, Note_on_c, 2, 75, 0
4, 106200, Note_on_c, 2, 77, 100
4, 106230, Note_on_c, 2, 77, 0
4, 106230, Note_on_c, 2, 75, 100
4, 106260, Note_on_c, 2, 75, 0
4, 106260, Note_on_c, 2, 74, 100
4, 106290, Note_on_c, 2, 74, 0
4, 106290, Note_on_c, 2, 72, 100
4, 106320, Note_on_c, 2, 72, 0
4, 106320, Note_on_c, 2, 70, 100
4, 106350, Note_on_c, 2, 70, 0
4, 106350, Note_on_c, 2, 72, 100
4, 106380, Note_on_c, 2, 72, 0
4, 106380, Note_on_c, 2, 70, 100
4, 106410, Note_on_c, 2, 70, 0
4, 106410, Note_on_c, 2, 67, 100
4, 106440, Note_on_c, 2, 67, 0
4, 106440, Note_on_c, 2, 68, 100
4, 106470, Note_on_c, 2, 68, 0
4, 106470, Note_on_c, 2, 70, 100
4, 106500, Note_on_c, 2, 70, 0
4, 106500, Note_on_c, 2, 68, 100
4, 106530, Note_on_c, 2, 68, 0
4, 106530, Note_on_c, 2, 65, 100
4, 106560, Note_on_c, 2, 65, 0
4, 106560, Note_on_c, 2, 55, 100
4, 106560, Note_on_c, 2, 63, 100
4, 107040, Note_on_c, 2, 63, 0
4, 107040, Note_on_c, 2, 55, 0
4, 107040, Note_on_c, 2, 55, 100
4, 107040, Note_on_c, 2, 63, 100
4, 107280, Note_on_c, 2, 63, 0
4, 107280, Note_on_c, 2, 55, 0
4, 107280, Note_on_c, 2, 55, 100
4, 107280, Note_on_c, 2, 63, 100
4, 107460, Note_on_c, 2, 63, 0
4, 107460, Note_on_c, 2, 55, 0
4, 107460, Note_on_c, 2, 55, 100
4, 107460, Note_on_c, 2, 63, 100
4, 107520, Note_on_c, 2, 63, 0
4, 107520, Note_on_c, 2, 55, 0
4, 107520, Note_on_c, 2, 55, 100
4, 107520, Note_on_c, 2, 63, 100
4, 107580, Note_on_c, 2, 63, 0
4, 107580, Note_on_c, 2, 55, 0
4, 107640, Note_on_c, 2, 82, 100
4, 107700, Note_on_c, 2, 82, 0
4, 107760, Note_on_c, 2, 79, 100
4, 107820, Note_on_c, 2, 79, 0
4, 107880, Note_on_c, 2, 75, 100
4, 107940, Note_on_c, 2, 75, 0
4, 108000, Note_on_c, 2, 70, 100
4, 108060, Note_on_c, 2, 70, 0
4, 108120, Note_on_c, 2, 67, 100
4, 108180, Note_on_c, 2, 67, 0
4, 108240, Note_on_c, 2, 63, 100
4, 108300, Note_on_c, 2, 63, 0
4, 108360, Note_on_c, 2, 58, 100
4, 108420, Note_on_c, 2, 58, 0
4, 108480, Note_on_c, 2, 56, 100
4, 108600, Note_on_c, 2, 56, 0
4, 108600, Note_on_c, 2, 70, 100
4, 108600, Note_on_c, 2, 80, 100
4, 108840, Note_on_c, 2, 80, 0
4, 108840, Note_on_c, 2, 70, 0
4, 108840, Note_on_c, 2, 70, 100
4, 108840, Note_on_c, 2, 80, 100
4, 109080, Note_on_c, 2, 80, 0
4, 109080, Note_on_c, 2, 70, 0
4, 109080, Note_on_c, 2, 70, 100
4, 109080, Note_on_c, 2, 80, 100
4, 109305, Note_on_c, 2, 82, 100
4, 109320, Note_on_c, 2, 82, 0
4, 109320, Note_on_c, 2, 80, 0
4, 109320, Note_on_c, 2, 70, 0
4, 109320, Note_on_c, 2, 80, 100
4, 109380, Note_on_c, 2, 80, 0
4, 109380, Note_on_c, 2, 79, 100
4, 109410, Note_on_c, 2, 79, 0
4, 109410, Note_on_c, 2, 77, 100
4, 109440, Note_on_c, 2, 77, 0
4, 109440, Note_on_c, 2, 75, 100
4, 109560, Note_on_c, 2, 75, 0
4, 110385, Note_on_c, 2, 75, 100
4, 110400, Note_on_c, 2, 75, 0
4, 110400, Note_on_c, 2, 87, 100
4, 111420, Note_on_c, 2, 87, 0
4, 111420, Note_on_c, 2, 86, 100
4, 111480, Note_on_c, 2, 86, 0
4, 111480, Note_on_c, 2, 84, 100
4, 111540, Note_on_c, 2, 84, 0
4, 111540, Note_on_c, 2, 82, 100
4, 111600, Note_on_c, 2, 82, 0
4, 111600, Note_on_c, 2, 80, 100
4, 111660, Note_on_c, 2, 80, 0
4, 111660, Note_on_c, 2, 79, 100
4, 111720, Note_on_c, 2, 79, 0
4, 111720, Note_on_c, 2, 84, 100
4, 111780, Note_on_c, 2, 84, 0
4, 111780, Note_on_c, 2, 82, 100
4, 111840, Note_on_c, 2, 82, 0
4, 111840, Note_on_c, 2, 82, 100
4, 112020, Note_on_c, 2, 82, 0
4, 112020, Note_on_c, 2, 84, 100
4, 112080, Note_on_c, 2, 84, 0
4, 112080, Note_on_c, 2, 82, 100
4, 112200, Note_on_c, 2, 82, 0
4, 112290, Note_on_c, 2, 82, 100
4, 112320, Note_on_c, 2, 82, 0
4, 112320, Note_on_c, 2, 80, 100
4, 112380, Note_on_c, 2, 80, 0
4, 112380, Note_on_c, 2, 82, 100
4, 112440, Note_on_c, 2, 82, 0
4, 112440, Note_on_c, 2, 84, 100
4, 112500, Note_on_c, 2, 84, 0
4, 112500, Note_on_c, 2, 80, 100
4, 112560, Note_on_c, 2, 80, 0
4, 112560, Note_on_c, 2, 79, 100
4, 112620, Note_on_c, 2, 79, 0
4, 112620, Note_on_c, 2, 80, 100
4, 112680, Note_on_c, 2, 80, 0
4, 112680, Note_on_c, 2, 82, 100
4, 112740, Note_on_c, 2, 82, 0
4, 112740, Note_on_c, 2, 79, 100
4, 112800, Note_on_c, 2, 79, 0
4, 112800, Note_on_c, 2, 77, 100
4, 112980, Note_on_c, 2, 77, 0
4, 112980, Note_on_c, 2, 80, 100
4, 113010, Note_on_c, 2, 80, 0
4, 113010, Note_on_c, 2, 77, 100
4, 113040, Note_on_c, 2, 77, 0
4, 113040, Note_on_c, 2, 75, 100
4, 113160, Note_on_c, 2, 75, 0
4, 115980, Note_on_c, 2, 82, 100
4, 116040, Note_on_c, 2, 82, 0
4, 116040, Note_on_c, 2, 82, 100
4, 116100, Note_on_c, 2, 82, 0
4, 116100, Note_on_c, 2, 82, 100
4, 116160, Note_on_c, 2, 82, 0
4, 116160, Note_on_c, 2, 82, 100
4, 116190, Note_on_c, 2, 82, 0
4, 116190, Note_on_c, 2, 84, 100
4, 116220, Note_on_c, 2, 84, 0
4, 116220, Note_on_c, 2, 82, 100
4, 116250, Note_on_c, 2, 82, 0
4, 116250, Note_on_c, 2, 81, 100
4, 116280, Note_on_c, 2, 81, 0
4, 116280, Note_on_c, 2, 82, 100
4, 116340, Note_on_c, 2, 82, 0
4, 116370, Note_on_c, 2, 79, 100
4, 116400, Note_on_c, 2, 79, 0
4, 116400, Note_on_c, 2, 80, 100
4, 116430, Note_on_c, 2, 80, 0
4, 116430, Note_on_c, 2, 82, 100
4, 116460, Note_on_c, 2, 82, 0
4, 116460, Note_on_c, 2, 80, 100
4, 116490, Note_on_c, 2, 80, 0
4, 116490, Note_on_c, 2, 79, 100
4, 116520, Note_on_c, 2, 79, 0
4, 116520, Note_on_c, 2, 80, 100
4, 116580, Note_on_c, 2, 80, 0
4, 116610, Note_on_c, 2, 77, 100
4, 116640, Note_on_c, 2, 77, 0
4, 116640, Note_on_c, 2, 79, 100
4, 116670, Note_on_c, 2, 79, 0
4, 116670, Note_on_c, 2, 80, 100
4, 116700, Note_on_c, 2, 80, 0
4, 116700, Note_on_c, 2, 79, 100
4, 116730, Note_on_c, 2, 79, 0
4, 116730, Note_on_c, 2, 77, 100
4, 116760, Note_on_c, 2, 77, 0
4, 116760, Note_on_c, 2, 79, 100
4, 116820, Note_on_c, 2, 79, 0
4, 116850, Note_on_c, 2, 75, 100
4, 116880, Note_on_c, 2, 75, 0
4, 116880, Note_on_c, 2, 77, 100
4, 116910, Note_on_c, 2, 77, 0
4, 116910, Note_on_c, 2, 79, 100
4, 116940, Note_on_c, 2, 79, 0
4, 116940, Note_on_c, 2, 77, 100
4, 116970, Note_on_c, 2, 77, 0
4, 116970, Note_on_c, 2, 75, 100
4, 117000, Note_on_c, 2, 75, 0
4, 117000, Note_on_c, 2, 77, 100
4, 117060, Note_on_c, 2, 77, 0
4, 117090, Note_on_c, 2, 74, 100
4, 117120, Note_on_c, 2, 74, 0
4, 117120, Note_on_c, 2, 82, 100
4, 117150, Note_on_c, 2, 82, 0
4, 117150, Note_on_c, 2, 84, 100
4, 117180, Note_on_c, 2, 84, 0
4, 117180, Note_on_c, 2, 82, 100
4, 117210, Note_on_c, 2, 82, 0
4, 117210, Note_on_c, 2, 81, 100
4, 117240, Note_on_c, 2, 81, 0
4, 117240, Note_on_c, 2, 82, 100
4, 117270, Note_on_c, 2, 82, 0
4, 117270, Note_on_c, 2, 81, 100
4, 117300, Note_on_c, 2, 81, 0
4, 117300, Note_on_c, 2, 82, 100
4, 117330, Note_on_c, 2, 82, 0
4, 117330, Note_on_c, 2, 79, 100
4, 117360, Note_on_c, 2, 79, 0
4, 117360, Note_on_c, 2, 80, 100
4, 117390, Note_on_c, 2, 80, 0
4, 117390, Note_on_c, 2, 82, 100
4, 117420, Note_on_c, 2, 82, 0
4, 117420, Note_on_c, 2, 80, 100
4, 117450, Note_on_c, 2, 80, 0
4, 117450, Note_on_c, 2, 79, 100
4, 117480, Note_on_c, 2, 79, 0
4, 117480, Note_on_c, 2, 80, 100
4, 117510, Note_on_c, 2, 80, 0
4, 117510, Note_on_c, 2, 79, 100
4, 117540, Note_on_c, 2, 79, 0
4, 117540, Note_on_c, 2, 80, 100
4, 117570, Note_on_c, 2, 80, 0
4, 117570, Note_on_c, 2, 77, 100
4, 117600, Note_on_c, 2, 77, 0
4, 117600, Note_on_c, 2, 79, 100
4, 117630, Note_on_c, 2, 79, 0
4, 117630, Note_on_c, 2, 80, 100
4, 117660, Note_on_c, 2, 80, 0
4, 117660, Note_on_c, 2, 79, 100
4, 117690, Note_on_c, 2, 79, 0
4, 117690, Note_on_c, 2, 77, 100
4, 117720, Note_on_c, 2, 77, 0
4, 117720, Note_on_c, 2, 79, 100
4, 117750, Note_on_c, 2, 79, 0
4, 117750, Note_on_c, 2, 77, 100
4, 117780, Note_on_c, 2, 77, 0
4, 117780, Note_on_c, 2, 79, 100
4, 117810, Note_on_c, 2, 79, 0
4, 117810, Note_on_c, 2, 75, 100
4, 117840, Note_on_c, 2, 75, 0
4, 117840, Note_on_c, 2, 77, 100
4, 117870, Note_on_c, 2, 77, 0
4, 117870, Note_on_c, 2, 79, 100
4, 117900, Note_on_c, 2, 79, 0
4, 117900, Note_on_c, 2, 77, 100
4, 117930, Note_on_c, 2, 77, 0
4, 117930, Note_on_c, 2, 75, 100
4, 117960, Note_on_c, 2, 75, 0
4, 117960, Note_on_c, 2, 77, 100
4, 117990, Note_on_c, 2, 77, 0
4, 117990, Note_on_c, 2, 75, 100
4, 118020, Note_on_c, 2, 75, 0
4, 118020, Note_on_c, 2, 77, 100
4, 118050, Note_on_c, 2, 77, 0
4, 118050, Note_on_c, 2, 74, 100
4, 118080, Note_on_c, 2, 74, 0
4, 118080, Note_on_c, 2, 75, 100
4, 118140, Note_on_c, 2, 75, 0
4, 118140, Note_on_c, 2, 77, 100
4, 118200, Note_on_c, 2, 77, 0
4, 118200, Note_on_c, 2, 79, 100
4, 118260, Note_on_c, 2, 79, 0
4, 118260, Note_on_c, 2, 80, 100
4, 118320, Note_on_c, 2, 80, 0
4, 118320, Note_on_c, 2, 82, 100
4, 118380, Note_on_c, 2, 82, 0
4, 118380, Note_on_c, 2, 84, 100
4, 118440, Note_on_c, 2, 84, 0
4, 118440, Note_on_c, 2, 86, 100
4, 118500, Note_on_c, 2, 86, 0
4, 118500, Note_on_c, 2, 87, 100
4, 118560, Note_on_c, 2, 87, 0
4, 118560, Note_on_c, 2, 87, 100
4, 118620, Note_on_c, 2, 87, 0
4, 118620, Note_on_c, 2, 86, 100
4, 118680, Note_on_c, 2, 86, 0
4, 118680, Note_on_c, 2, 84, 100
4, 118740, Note_on_c, 2, 84, 0
4, 118740, Note_on_c, 2, 82, 100
4, 118800, Note_on_c, 2, 82, 0
4, 118800, Note_on_c, 2, 82, 100
4, 118860, Note_on_c, 2, 82, 0
4, 118860, Note_on_c, 2, 80, 100
4, 118920, Note_on_c, 2, 80, 0
4, 118920, Note_on_c, 2, 79, 100
4, 118980, Note_on_c, 2, 79, 0
4, 118980, Note_on_c, 2, 77, 100
4, 119040, Note_on_c, 2, 77, 0
4, 119040, Note_on_c, 2, 75, 100
4, 119160, Note_on_c, 2, 75, 0
4, 122880, Note_on_c, 2, 82, 100
4, 123240, Note_on_c, 2, 82, 0
4, 123240, Note_on_c, 2, 84, 100
4, 123270, Note_on_c, 2, 84, 0
4, 123270, Note_on_c, 2, 82, 100
4, 123300, Note_on_c, 2, 82, 0
4, 123300, Note_on_c, 2, 81, 100
4, 123330, Note_on_c, 2, 81, 0
4, 123330, Note_on_c, 2, 82, 100
4, 123360, Note_on_c, 2, 82, 0
4, 123360, Note_on_c, 2, 87, 100
4, 123480, Note_on_c, 2, 87, 0
4, 123480, Note_on_c, 2, 82, 100
4, 123720, Note_on_c, 2, 82, 0
4, 123720, Note_on_c, 2, 80, 100
4, 123750, Note_on_c, 2, 80, 0
4, 123750, Note_on_c, 2, 79, 100
4, 123780, Note_on_c, 2, 79, 0
4, 123780, Note_on_c, 2, 77, 100
4, 123810, Note_on_c, 2, 77, 0
4, 123810, Note_on_c, 2, 75, 100
4, 123840, Note_on_c, 2, 75, 0
4, 123840, Note_on_c, 2, 74, 100
4, 123960, Note_on_c, 2, 74, 0
4, 123960, Note_on_c, 2, 72, 100
4, 124080, Note_on_c, 2, 72, 0
4, 124080, Note_on_c, 2, 70, 100
4, 124200, Note_on_c, 2, 70, 0
4, 124200, Note_on_c, 2, 68, 100
4, 124320, Note_on_c, 2, 68, 0
4, 124320, Note_on_c, 2, 67, 100
4, 124440, Note_on_c, 2, 67, 0
4, 124440, Note_on_c, 2, 82, 100
4, 124620, Note_on_c, 2, 82, 0
4, 124620, Note_on_c, 2, 81, 100
4, 124650, Note_on_c, 2, 81, 0
4, 124650, Note_on_c, 2, 82, 100
4, 124665, Note_on_c, 2, 84, 100
4, 124680, Note_on_c, 2, 84, 0
4, 124680, Note_on_c, 2, 82, 0
4, 124680, Note_on_c, 2, 82, 100
4, 124740, Note_on_c, 2, 82, 0
4, 124740, Note_on_c, 2, 80, 100
4, 124770, Note_on_c, 2, 80, 0
4, 124770, Note_on_c, 2, 79, 100
4, 124800, Note_on_c, 2, 79, 0
4, 124800, Note_on_c, 2, 77, 100
4, 124830, Note_on_c, 2, 77, 0
4, 124830, Note_on_c, 2, 79, 100
4, 124860, Note_on_c, 2, 79, 0
4, 124860, Note_on_c, 2, 77, 100
4, 124890, Note_on_c, 2, 77, 0
4, 124890, Note_on_c, 2, 76, 100
4, 124920, Note_on_c, 2, 76, 0
4, 124920, Note_on_c, 2, 77, 100
4, 124950, Note_on_c, 2, 77, 0
4, 124950, Note_on_c, 2, 79, 100
4, 124980, Note_on_c, 2, 79, 0
4, 124980, Note_on_c, 2, 77, 100
4, 125010, Note_on_c, 2, 77, 0
4, 125010, Note_on_c, 2, 79, 100
4, 125040, Note_on_c, 2, 79, 0
4, 125040, Note_on_c, 2, 80, 100
4, 125070, Note_on_c, 2, 80, 0
4, 125070, Note_on_c, 2, 82, 100
4, 125100, Note_on_c, 2, 82, 0
4, 125100, Note_on_c, 2, 80, 100
4, 125130, Note_on_c, 2, 80, 0
4, 125130, Note_on_c, 2, 79, 100
4, 125160, Note_on_c, 2, 79, 0
4, 125160, Note_on_c, 2, 80, 100
4, 125190, Note_on_c, 2, 80, 0
4, 125190, Note_on_c, 2, 82, 100
4, 125220, Note_on_c, 2, 82, 0
4, 125220, Note_on_c, 2, 80, 100
4, 125250, Note_on_c, 2, 80, 0
4, 125250, Note_on_c, 2, 82, 100
4, 125280, Note_on_c, 2, 82, 0
4, 125280, Note_on_c, 2, 84, 100
4, 125310, Note_on_c, 2, 84, 0
4, 125310, Note_on_c, 2, 86, 100
4, 125340, Note_on_c, 2, 86, 0
4, 125340, Note_on_c, 2, 84, 100
4, 125370, Note_on_c, 2, 84, 0
4, 125370, Note_on_c, 2, 83, 100
4, 125400, Note_on_c, 2, 83, 0
4, 125400, Note_on_c, 2, 84, 100
4, 125430, Note_on_c, 2, 84, 0
4, 125430, Note_on_c, 2, 86, 100
4, 125460, Note_on_c, 2, 86, 0
4, 125460, Note_on_c, 2, 84, 100
4, 125490, Note_on_c, 2, 84, 0
4, 125490, Note_on_c, 2, 86, 100
4, 125520, Note_on_c, 2, 86, 0
4, 125520, Note_on_c, 2, 87, 100
4, 125580, Note_on_c, 2, 87, 0
4, 125580, Note_on_c, 2, 89, 100
4, 125640, Note_on_c, 2, 89, 0
4, 125640, Note_on_c, 2, 91, 100
4, 125700, Note_on_c, 2, 91, 0
4, 125700, Note_on_c, 2, 79, 100
4, 125760, Note_on_c, 2, 79, 0
4, 125760, Note_on_c, 2, 82, 100
4, 126060, Note_on_c, 2, 82, 0
4, 126060, Note_on_c, 2, 81, 100
4, 126090, Note_on_c, 2, 81, 0
4, 126090, Note_on_c, 2, 82, 100
4, 126120, Note_on_c, 2, 82, 0
4, 126120, Note_on_c, 2, 84, 100
4, 126150, Note_on_c, 2, 84, 0
4, 126150, Note_on_c, 2, 82, 100
4, 126180, Note_on_c, 2, 82, 0
4, 126180, Note_on_c, 2, 80, 100
4, 126210, Note_on_c, 2, 80, 0
4, 126210, Note_on_c, 2, 79, 100
4, 126240, Note_on_c, 2, 79, 0
4, 126240, Note_on_c, 2, 77, 100
4, 126360, Note_on_c, 2, 77, 0
4, 126840, Note_on_c, 2, 82, 100
4, 126900, Note_on_c, 2, 82, 0
4, 126900, Note_on_c, 2, 82, 100
4, 126960, Note_on_c, 2, 82, 0
4, 126960, Note_on_c, 2, 82, 100
4, 127020, Note_on_c, 2, 82, 0
4, 127020, Note_on_c, 2, 82, 100
4, 127080, Note_on_c, 2, 82, 0
4, 127080, Note_on_c, 2, 82, 100
4, 127140, Note_on_c, 2, 82, 0
4, 127140, Note_on_c, 2, 83, 100
4, 127200, Note_on_c, 2, 83, 0
4, 127200, Note_on_c, 2, 84, 100
4, 127320, Note_on_c, 2, 84, 0
4, 131160, Note_on_c, 2, 77, 100
4, 131190, Note_on_c, 2, 77, 0
4, 131190, Note_on_c, 2, 76, 100
4, 131220, Note_on_c, 2, 76, 0
4, 131220, Note_on_c, 2, 77, 100
4, 131250, Note_on_c, 2, 77, 0
4, 131250, Note_on_c, 2, 76, 100
4, 131280, Note_on_c, 2, 76, 0
4, 131280, Note_on_c, 2, 77, 100
4, 131310, Note_on_c, 2, 77, 0
4, 131310, Note_on_c, 2, 76, 100
4, 131340, Note_on_c, 2, 76, 0
4, 131340, Note_on_c, 2, 77, 100
4, 131370, Note_on_c, 2, 77, 0
4, 131370, Note_on_c, 2, 76, 100
4, 131400, Note_on_c, 2, 76, 0
4, 131400, Note_on_c, 2, 77, 100
4, 131430, Note_on_c, 2, 77, 0
4, 131430, Note_on_c, 2, 76, 100
4, 131460, Note_on_c, 2, 76, 0
4, 131460, Note_on_c, 2, 77, 100
4, 131490, Note_on_c, 2, 77, 0
4, 131490, Note_on_c, 2, 76, 100
4, 131520, Note_on_c, 2, 76, 0
4, 131520, Note_on_c, 2, 77, 100
4, 131580, Note_on_c, 2, 77, 0
4, 131580, Note_on_c, 2, 79, 100
4, 131610, Note_on_c, 2, 79, 0
4, 131610, Note_on_c, 2, 81, 100
4, 131640, Note_on_c, 2, 81, 0
4, 131640, Note_on_c, 2, 82, 100
4, 131670, Note_on_c, 2, 82, 0
4, 131670, Note_on_c, 2, 81, 100
4, 131700, Note_on_c, 2, 81, 0
4, 131700, Note_on_c, 2, 82, 100
4, 131730, Note_on_c, 2, 82, 0
4, 131730, Note_on_c, 2, 84, 100
4, 131760, Note_on_c, 2, 84, 0
4, 131760, Note_on_c, 2, 85, 100
4, 131790, Note_on_c, 2, 85, 0
4, 131790, Note_on_c, 2, 84, 100
4, 131820, Note_on_c, 2, 84, 0
4, 131820, Note_on_c, 2, 82, 100
4, 131850, Note_on_c, 2, 82, 0
4, 131850, Note_on_c, 2, 84, 100
4, 131880, Note_on_c, 2, 84, 0
4, 131880, Note_on_c, 2, 82, 100
4, 131910, Note_on_c, 2, 82, 0
4, 131910, Note_on_c, 2, 80, 100
4, 131940, Note_on_c, 2, 80, 0
4, 131940, Note_on_c, 2, 79, 100
4, 131970, Note_on_c, 2, 79, 0
4, 131970, Note_on_c, 2, 77, 100
4, 132000, Note_on_c, 2, 77, 0
4, 132000, Note_on_c, 2, 75, 100
4, 132120, Note_on_c, 2, 75, 0
4, 132120, Note_on_c, 2, 75, 100
4, 132150, Note_on_c, 2, 75, 0
4, 132150, Note_on_c, 2, 74, 100
4, 132180, Note_on_c, 2, 74, 0
4, 132180, Note_on_c, 2, 75, 100
4, 132210, Note_on_c, 2, 75, 0
4, 132210, Note_on_c, 2, 74, 100
4, 132240, Note_on_c, 2, 74, 0
4, 132240, Note_on_c, 2, 75, 100
4, 132270, Note_on_c, 2, 75, 0
4, 132270, Note_on_c, 2, 74, 100
4, 132300, Note_on_c, 2, 74, 0
4, 132300, Note_on_c, 2, 75, 100
4, 132330, Note_on_c, 2, 75, 0
4, 132330, Note_on_c, 2, 74, 100
4, 132360, Note_on_c, 2, 74, 0
4, 132360, Note_on_c, 2, 75, 100
4, 132390, Note_on_c, 2, 75, 0
4, 132390, Note_on_c, 2, 74, 100
4, 132420, Note_on_c, 2, 74, 0
4, 132420, Note_on_c, 2, 75, 100
4, 132450, Note_on_c, 2, 75, 0
4, 132450, Note_on_c, 2, 74, 100
4, 132480, Note_on_c, 2, 74, 0
4, 132480, Note_on_c, 2, 75, 100
4, 132540, Note_on_c, 2, 75, 0
4, 132540, Note_on_c, 2, 77, 100
4, 132570, Note_on_c, 2, 77, 0
4, 132570, Note_on_c, 2, 79, 100
4, 132600, Note_on_c, 2, 79, 0
4, 132600, Note_on_c, 2, 80, 100
4, 132630, Note_on_c, 2, 80, 0
4, 132630, Note_on_c, 2, 79, 100
4, 132660, Note_on_c, 2, 79, 0
4, 132660, Note_on_c, 2, 80, 100
4, 132690, Note_on_c, 2, 80, 0
4, 132690, Note_on_c, 2, 82, 100
4, 132720, Note_on_c, 2, 82, 0
4, 132720, Note_on_c, 2, 84, 100
4, 132750, Note_on_c, 2, 84, 0
4, 132750, Note_on_c, 2, 82, 100
4, 132780, Note_on_c, 2, 82, 0
4, 132780, Note_on_c, 2, 80, 100
4, 132810, Note_on_c, 2, 80, 0
4, 132810, Note_on_c, 2, 82, 100
4, 132840, Note_on_c, 2, 82, 0
4, 132840, Note_on_c, 2, 80, 100
4, 132870, Note_on_c, 2, 80, 0
4, 132870, Note_on_c, 2, 79, 100
4, 132900, Note_on_c, 2, 79, 0
4, 132900, Note_on_c, 2, 77, 100
4, 132930, Note_on_c, 2, 77, 0
4, 132930, Note_on_c, 2, 75, 100
4, 132960, Note_on_c, 2, 75, 0
4, 132960, Note_on_c, 2, 73, 100
4, 133080, Note_on_c, 2, 73, 0
4, 133080, Note_on_c, 2, 73, 100
4, 133110, Note_on_c, 2, 73, 0
4, 133110, Note_on_c, 2, 72, 100
4, 133140, Note_on_c, 2, 72, 0
4, 133140, Note_on_c, 2, 73, 100
4, 133170, Note_on_c, 2, 73, 0
4, 133170, Note_on_c, 2, 72, 100
4, 133200, Note_on_c, 2, 72, 0
4, 133200, Note_on_c, 2, 73, 100
4, 133230, Note_on_c, 2, 73, 0
4, 133230, Note_on_c, 2, 72, 100
4, 133260, Note_on_c, 2, 72, 0
4, 133260, Note_on_c, 2, 73, 100
4, 133290, Note_on_c, 2, 73, 0
4, 133290, Note_on_c, 2, 72, 100
4, 133320, Note_on_c, 2, 72, 0
4, 133320, Note_on_c, 2, 73, 100
4, 133350, Note_on_c, 2, 73, 0
4, 133350, Note_on_c, 2, 72, 100
4, 133380, Note_on_c, 2, 72, 0
4, 133380, Note_on_c, 2, 73, 100
4, 133410, Note_on_c, 2, 73, 0
4, 133410, Note_on_c, 2, 72, 100
4, 133440, Note_on_c, 2, 72, 0
4, 133440, Note_on_c, 2, 73, 100
4, 133500, Note_on_c, 2, 73, 0
4, 133500, Note_on_c, 2, 75, 100
4, 133530, Note_on_c, 2, 75, 0
4, 133530, Note_on_c, 2, 77, 100
4, 133560, Note_on_c, 2, 77, 0
4, 133560, Note_on_c, 2, 79, 100
4, 133590, Note_on_c, 2, 79, 0
4, 133590, Note_on_c, 2, 80, 100
4, 133620, Note_on_c, 2, 80, 0
4, 133620, Note_on_c, 2, 82, 100
4, 133650, Note_on_c, 2, 82, 0
4, 133650, Note_on_c, 2, 84, 100
4, 133680, Note_on_c, 2, 84, 0
4, 133680, Note_on_c, 2, 85, 100
4, 133710, Note_on_c, 2, 85, 0
4, 133710, Note_on_c, 2, 84, 100
4, 133740, Note_on_c, 2, 84, 0
4, 133740, Note_on_c, 2, 82, 100
4, 133770, Note_on_c, 2, 82, 0
4, 133770, Note_on_c, 2, 80, 100
4, 133800, Note_on_c, 2, 80, 0
4, 133800, Note_on_c, 2, 79, 100
4, 133830, Note_on_c, 2, 79, 0
4, 133830, Note_on_c, 2, 77, 100
4, 133860, Note_on_c, 2, 77, 0
4, 133860, Note_on_c, 2, 75, 100
4, 133890, Note_on_c, 2, 75, 0
4, 133890, Note_on_c, 2, 73, 100
4, 133920, Note_on_c, 2, 73, 0
4, 133920, Note_on_c, 2, 72, 100
4, 133950, Note_on_c, 2, 72, 0
4, 133950, Note_on_c, 2, 73, 100
4, 133980, Note_on_c, 2, 73, 0
4, 133980, Note_on_c, 2, 72, 100
4, 134010, Note_on_c, 2, 72, 0
4, 134010, Note_on_c, 2, 70, 100
4, 134040, Note_on_c, 2, 70, 0
4, 134040, Note_on_c, 2, 72, 100
4, 134070, Note_on_c, 2, 72, 0
4, 134070, Note_on_c, 2, 68, 100
4, 134100, Note_on_c, 2, 68, 0
4, 134100, Note_on_c, 2, 75, 100
4, 134130, Note_on_c, 2, 75, 0
4, 134130, Note_on_c, 2, 72, 100
4, 134160, Note_on_c, 2, 72, 0
4, 134160, Note_on_c, 2, 74, 100
4, 134190, Note_on_c, 2, 74, 0
4, 134190, Note_on_c, 2, 75, 100
4, 134220, Note_on_c, 2, 75, 0
4, 134220, Note_on_c, 2, 74, 100
4, 134250, Note_on_c, 2, 74, 0
4, 134250, Note_on_c, 2, 72, 100
4, 134280, Note_on_c, 2, 72, 0
4, 134280, Note_on_c, 2, 74, 100
4, 134310, Note_on_c, 2, 74, 0
4, 134310, Note_on_c, 2, 70, 100
4, 134340, Note_on_c, 2, 70, 0
4, 134340, Note_on_c, 2, 77, 100
4, 134370, Note_on_c, 2, 77, 0
4, 134370, Note_on_c, 2, 74, 100
4, 134400, Note_on_c, 2, 74, 0
4, 134400, Note_on_c, 2, 75, 100
4, 134430, Note_on_c, 2, 75, 0
4, 134430, Note_on_c, 2, 77, 100
4, 134460, Note_on_c, 2, 77, 0
4, 134460, Note_on_c, 2, 75, 100
4, 134490, Note_on_c, 2, 75, 0
4, 134490, Note_on_c, 2, 74, 100
4, 134520, Note_on_c, 2, 74, 0
4, 134520, Note_on_c, 2, 75, 100
4, 134550, Note_on_c, 2, 75, 0
4, 134550, Note_on_c, 2, 70, 100
4, 134580, Note_on_c, 2, 70, 0
4, 134580, Note_on_c, 2, 79, 100
4, 134610, Note_on_c, 2, 79, 0
4, 134610, Note_on_c, 2, 75, 100
4, 134640, Note_on_c, 2, 75, 0
4, 134640, Note_on_c, 2, 77, 100
4, 134670, Note_on_c, 2, 77, 0
4, 134670, Note_on_c, 2, 79, 100
4, 134700, Note_on_c, 2, 79, 0
4, 134700, Note_on_c, 2, 77, 100
4, 134730, Note_on_c, 2, 77, 0
4, 134730, Note_on_c, 2, 75, 100
4, 134760, Note_on_c, 2, 75, 0
4, 134760, Note_on_c, 2, 77, 100
4, 134790, Note_on_c, 2, 77, 0
4, 134790, Note_on_c, 2, 70, 100
4, 134820, Note_on_c, 2, 70, 0
4, 134820, Note_on_c, 2, 80, 100
4, 134850, Note_on_c, 2, 80, 0
4, 134850, Note_on_c, 2, 77, 100
4, 134880, Note_on_c, 2, 77, 0
4, 134880, Note_on_c, 2, 80, 100
4, 134940, Note_on_c, 2, 80, 0
4, 134940, Note_on_c, 2, 79, 100
4, 135000, Note_on_c, 2, 79, 0
4, 135000, Note_on_c, 2, 77, 100
4, 135060, Note_on_c, 2, 77, 0
4, 135060, Note_on_c, 2, 75, 100
4, 135120, Note_on_c, 2, 75, 0
4, 135120, Note_on_c, 2, 74, 100
4, 135180, Note_on_c, 2, 74, 0
4, 135180, Note_on_c, 2, 72, 100
4, 135240, Note_on_c, 2, 72, 0
4, 135240, Note_on_c, 2, 70, 100
4, 135300, Note_on_c, 2, 70, 0
4, 135300, Note_on_c, 2, 68, 100
4, 135360, Note_on_c, 2, 68, 0
4, 135360, Note_on_c, 2, 67, 100
4, 135390, Note_on_c, 2, 67, 0
4, 135390, Note_on_c, 2, 70, 100
4, 135420, Note_on_c, 2, 70, 0
4, 135420, Note_on_c, 2, 75, 100
4, 135450, Note_on_c, 2, 75, 0
4, 135450, Note_on_c, 2, 79, 100
4, 135480, Note_on_c, 2, 79, 0
4, 135480, Note_on_c, 2, 82, 100
4, 135540, Note_on_c, 2, 82, 0
4, 135570, Note_on_c, 2, 75, 100
4, 135600, Note_on_c, 2, 75, 0
4, 135600, Note_on_c, 2, 77, 100
4, 135780, Note_on_c, 2, 77, 0
4, 135780, Note_on_c, 2, 75, 100
4, 135810, Note_on_c, 2, 75, 0
4, 135810, Note_on_c, 2, 77, 100
4, 135840, Note_on_c, 2, 77, 0
4, 135840, Note_on_c, 2, 75, 100
4, 135960, Note_on_c, 2, 75, 0
4, 138210, Note_on_c, 2, 70, 100
4, 138240, Note_on_c, 2, 70, 0
4, 138240, Note_on_c, 2, 75, 100
4, 138420, Note_on_c, 2, 75, 0
4, 138450, Note_on_c, 2, 70, 100
4, 138480, Note_on_c, 2, 70, 0
4, 138480, Note_on_c, 2, 79, 100
4, 138660, Note_on_c, 2, 79, 0
4, 138690, Note_on_c, 2, 75, 100
4, 138720, Note_on_c, 2, 75, 0
4, 138720, Note_on_c, 2, 82, 100
4, 138780, Note_on_c, 2, 82, 0
4, 138780, Note_on_c, 2, 81, 100
4, 138840, Note_on_c, 2, 81, 0
4, 138840, Note_on_c, 2, 80, 100
4, 139020, Note_on_c, 2, 80, 0
4, 139020, Note_on_c, 2, 82, 100
4, 139050, Note_on_c, 2, 82, 0
4, 139050, Note_on_c, 2, 80, 100
4, 139080, Note_on_c, 2, 80, 0
4, 139080, Note_on_c, 2, 79, 100
4, 139110, Note_on_c, 2, 79, 0
4, 139110, Note_on_c, 2, 77, 100
4, 139140, Note_on_c, 2, 77, 0
4, 139140, Note_on_c, 2, 75, 100
4, 139170, Note_on_c, 2, 75, 0
4, 139170, Note_on_c, 2, 74, 100
4, 139200, Note_on_c, 2, 74, 0
4, 139200, Note_on_c, 2, 75, 100
4, 139260, Note_on_c, 2, 75, 0
4, 139260, Note_on_c, 2, 87, 100
4, 139320, Note_on_c, 2, 87, 0
4, 139320, Note_on_c, 2, 86, 100
4, 139380, Note_on_c, 2, 86, 0
4, 139380, Note_on_c, 2, 84, 100
4, 139440, Note_on_c, 2, 84, 0
4, 139440, Note_on_c, 2, 84, 100
4, 139500, Note_on_c, 2, 84, 0
4, 139500, Note_on_c, 2, 82, 100
4, 139560, Note_on_c, 2, 82, 0
4, 139560, Note_on_c, 2, 82, 100
4, 139620, Note_on_c, 2, 82, 0
4, 139620, Note_on_c, 2, 81, 100
4, 139635, Note_on_c, 2, 81, 100
4, 139650, Note_on_c, 2, 81, 0
4, 139650, Note_on_c, 2, 82, 100
4, 139665, Note_on_c, 2, 82, 0
4, 139665, Note_on_c, 2, 84, 100
4, 139680, Note_on_c, 2, 84, 0
4, 139680, Note_on_c, 2, 81, 0
4, 139680, Note_on_c, 2, 82, 100
4, 139800, Note_on_c, 2, 82, 0
4, 142080, Note_on_c, 2, 82, 100
4, 142995, Note_on_c, 2, 81, 100
4, 143010, Note_on_c, 2, 81, 0
4, 143010, Note_on_c, 2, 82, 100
4, 143025, Note_on_c, 2, 82, 0
4, 143025, Note_on_c, 2, 84, 100
4, 143040, Note_on_c, 2, 84, 0
4, 143040, Note_on_c, 2, 82, 0
4, 143040, Note_on_c, 2, 82, 100
4, 143820, Note_on_c, 2, 82, 0
4, 143820, Note_on_c, 2, 84, 100
4, 143850, Note_on_c, 2, 84, 0
4, 143850, Note_on_c, 2, 86, 100
4, 143880, Note_on_c, 2, 86, 0
4, 143880, Note_on_c, 2, 87, 100
4, 143910, Note_on_c, 2, 87, 0
4, 143910, Note_on_c, 2, 89, 100
4, 143940, Note_on_c, 2, 89, 0
4, 143940, Note_on_c, 2, 91, 100
4, 143970, Note_on_c, 2, 91, 0
4, 143970, Note_on_c, 2, 92, 100
4, 144000, Note_on_c, 2, 92, 0
4, 144000, Note_on_c, 2, 94, 100
4, 144120, Note_on_c, 2, 94, 0
4, 146400, Note_on_c, 2, 67, 100
4, 146430, Note_on_c, 2, 67, 0
4, 146430, Note_on_c, 2, 70, 100
4, 146460, Note_on_c, 2, 70, 0
4, 146460, Note_on_c, 2, 75, 100
4, 146490, Note_on_c, 2, 75, 0
4, 146490, Note_on_c, 2, 79, 100
4, 146520, Note_on_c, 2, 79, 0
4, 146520, Note_on_c, 2, 82, 100
4, 146550, Note_on_c, 2, 82, 0
4, 146550, Note_on_c, 2, 79, 100
4, 146580, Note_on_c, 2, 79, 0
4, 146580, Note_on_c, 2, 82, 100
4, 146610, Note_on_c, 2, 82, 0
4, 146610, Note_on_c, 2, 79, 100
4, 146640, Note_on_c, 2, 79, 0
4, 146640, Note_on_c, 2, 80, 100
4, 146670, Note_on_c, 2, 80, 0
4, 146670, Note_on_c, 2, 77, 100
4, 146700, Note_on_c, 2, 77, 0
4, 146700, Note_on_c, 2, 74, 100
4, 146730, Note_on_c, 2, 74, 0
4, 146730, Note_on_c, 2, 70, 100
4, 146760, Note_on_c, 2, 70, 0
4, 146760, Note_on_c, 2, 68, 100
4, 146790, Note_on_c, 2, 68, 0
4, 146790, Note_on_c, 2, 70, 100
4, 146820, Note_on_c, 2, 70, 0
4, 146820, Note_on_c, 2, 68, 100
4, 146850, Note_on_c, 2, 68, 0
4, 146850, Note_on_c, 2, 70, 100
4, 146880, Note_on_c, 2, 70, 0
4, 146880, Note_on_c, 2, 67, 100
4, 146910, Note_on_c, 2, 67, 0
4, 146910, Note_on_c, 2, 70, 100
4, 146940, Note_on_c, 2, 70, 0
4, 146940, Note_on_c, 2, 75, 100
4, 146970, Note_on_c, 2, 75, 0
4, 146970, Note_on_c, 2, 79, 100
4, 147000, Note_on_c, 2, 79, 0
4, 147000, Note_on_c, 2, 82, 100
4, 147030, Note_on_c, 2, 82, 0
4, 147030, Note_on_c, 2, 79, 100
4, 147060, Note_on_c, 2, 79, 0
4, 147060, Note_on_c, 2, 82, 100
4, 147090, Note_on_c, 2, 82, 0
4, 147090, Note_on_c, 2, 79, 100
4, 147120, Note_on_c, 2, 79, 0
4, 147120, Note_on_c, 2, 80, 100
4, 147150, Note_on_c, 2, 80, 0
4, 147150, Note_on_c, 2, 77, 100
4, 147180, Note_on_c, 2, 77, 0
4, 147180, Note_on_c, 2, 74, 100
4, 147210, Note_on_c, 2, 74, 0
4, 147210, Note_on_c, 2, 70, 100
4, 147240, Note_on_c, 2, 70, 0
4, 147240, Note_on_c, 2, 68, 100
4, 147270, Note_on_c, 2, 68, 0
4, 147270, Note_on_c, 2, 70, 100
4, 147300, Note_on_c, 2, 70, 0
4, 147300, Note_on_c, 2, 68, 100
4, 147330, Note_on_c, 2, 68, 0
4, 147330, Note_on_c, 2, 70, 100
4, 147360, Note_on_c, 2, 70, 0
4, 147360, Note_on_c, 2, 67, 100
4, 147390, Note_on_c, 2, 67, 0
4, 147390, Note_on_c, 2, 63, 100
4, 147420, Note_on_c, 2, 63, 0
4, 147420, Note_on_c, 2, 67, 100
4, 147450, Note_on_c, 2, 67, 0
4, 147450, Note_on_c, 2, 70, 100
4, 147480, Note_on_c, 2, 70, 0
4, 147480, Note_on_c, 2, 75, 100
4, 147510, Note_on_c, 2, 75, 0
4, 147510, Note_on_c, 2, 70, 100
4, 147540, Note_on_c, 2, 70, 0
4, 147540, Note_on_c, 2, 77, 100
4, 147570, Note_on_c, 2, 77, 0
4, 147570, Note_on_c, 2, 70, 100
4, 147600, Note_on_c, 2, 70, 0
4, 147600, Note_on_c, 2, 79, 100
4, 147630, Note_on_c, 2, 79, 0
4, 147630, Note_on_c, 2, 67, 100
4, 147660, Note_on_c, 2, 67, 0
4, 147660, Note_on_c, 2, 70, 100
4, 147690, Note_on_c, 2, 70, 0
4, 147690, Note_on_c, 2, 75, 100
4, 147720, Note_on_c, 2, 75, 0
4, 147720, Note_on_c, 2, 79, 100
4, 147750, Note_on_c, 2, 79, 0
4, 147750, Note_on_c, 2, 70, 100
4, 147780, Note_on_c, 2, 70, 0
4, 147780, Note_on_c, 2, 80, 100
4, 147810, Note_on_c, 2, 80, 0
4, 147810, Note_on_c, 2, 70, 100
4, 147840, Note_on_c, 2, 70, 0
4, 147840, Note_on_c, 2, 82, 100
4, 147870, Note_on_c, 2, 82, 0
4, 147870, Note_on_c, 2, 70, 100
4, 147900, Note_on_c, 2, 70, 0
4, 147900, Note_on_c, 2, 75, 100
4, 147930, Note_on_c, 2, 75, 0
4, 147930, Note_on_c, 2, 79, 100
4, 147960, Note_on_c, 2, 79, 0
4, 147960, Note_on_c, 2, 82, 100
4, 147990, Note_on_c, 2, 82, 0
4, 147990, Note_on_c, 2, 79, 100
4, 148020, Note_on_c, 2, 79, 0
4, 148020, Note_on_c, 2, 84, 100
4, 148050, Note_on_c, 2, 84, 0
4, 148050, Note_on_c, 2, 80, 100
4, 148080, Note_on_c, 2, 80, 0
4, 148080, Note_on_c, 2, 85, 100
4, 148200, Note_on_c, 2, 85, 0
4, 148200, Note_on_c, 2, 61, 100
4, 148290, Note_on_c, 2, 61, 0
4, 148290, Note_on_c, 2, 60, 100
4, 148305, Note_on_c, 2, 60, 0
4, 148305, Note_on_c, 2, 61, 100
4, 148320, Note_on_c, 2, 61, 0
4, 148320, Note_on_c, 2, 60, 100
4, 148380, Note_on_c, 2, 60, 0
4, 148380, Note_on_c, 2, 62, 100
4, 148410, Note_on_c, 2, 62, 0
4, 148410, Note_on_c, 2, 63, 100
4, 148440, Note_on_c, 2, 63, 0
4, 148440, Note_on_c, 2, 65, 100
4, 148470, Note_on_c, 2, 65, 0
4, 148470, Note_on_c, 2, 67, 100
4, 148500, Note_on_c, 2, 67, 0
4, 148500, Note_on_c, 2, 68, 100
4, 148530, Note_on_c, 2, 68, 0
4, 148530, Note_on_c, 2, 70, 100
4, 148560, Note_on_c, 2, 70, 0
4, 148560, Note_on_c, 2, 72, 100
4, 148620, Note_on_c, 2, 72, 0
4, 148620, Note_on_c, 2, 74, 100
4, 148650, Note_on_c, 2, 74, 0
4, 148650, Note_on_c, 2, 75, 100
4, 148680, Note_on_c, 2, 75, 0
4, 148680, Note_on_c, 2, 77, 100
4, 148710, Note_on_c, 2, 77, 0
4, 148710, Note_on_c, 2, 79, 100
4, 148740, Note_on_c, 2, 79, 0
4, 148740, Note_on_c, 2, 80, 100
4, 148770, Note_on_c, 2, 80, 0
4, 148770, Note_on_c, 2, 82, 100
4, 148800, Note_on_c, 2, 82, 0
4, 148800, Note_on_c, 2, 84, 100
4, 148860, Note_on_c, 2, 84, 0
4, 148860, Note_on_c, 2, 86, 100
4, 148920, Note_on_c, 2, 86, 0
4, 148920, Note_on_c, 2, 87, 100
4, 148980, Note_on_c, 2, 87, 0
4, 148980, Note_on_c, 2, 86, 100
4, 149040, Note_on_c, 2, 86, 0
4, 149040, Note_on_c, 2, 89, 100
4, 149100, Note_on_c, 2, 89, 0
4, 149100, Note_on_c, 2, 87, 100
4, 149160, Note_on_c, 2, 87, 0
4, 149160, Note_on_c, 2, 86, 100
4, 149220, Note_on_c, 2, 86, 0
4, 149220, Note_on_c, 2, 84, 100
4, 149280, Note_on_c, 2, 84, 0
4, 149280, Note_on_c, 2, 81, 100
4, 149400, Note_on_c, 2, 81, 0
4, 149400, Note_on_c, 2, 82, 100
4, 149580, Note_on_c, 2, 82, 0
4, 149580, Note_on_c, 2, 84, 100
4, 149610, Note_on_c, 2, 84, 0
4, 149610, Note_on_c, 2, 82, 100
4, 149640, Note_on_c, 2, 82, 0
4, 149640, Note_on_c, 2, 80, 100
4, 149700, Note_on_c, 2, 80, 0
4, 149700, Note_on_c, 2, 79, 100
4, 149760, Note_on_c, 2, 79, 0
4, 149760, Note_on_c, 2, 79, 100
4, 149790, Note_on_c, 2, 79, 0
4, 149790, Note_on_c, 2, 77, 100
4, 149820, Note_on_c, 2, 77, 0
4, 149820, Note_on_c, 2, 80, 100
4, 149850, Note_on_c, 2, 80, 0
4, 149850, Note_on_c, 2, 77, 100
4, 149880, Note_on_c, 2, 77, 0
4, 149880, Note_on_c, 2, 75, 100
4, 150120, Note_on_c, 2, 75, 0
4, 150120, Note_on_c, 2, 74, 100
4, 150240, Note_on_c, 2, 74, 0
4, 150240, Note_on_c, 2, 75, 100
4, 150360, Note_on_c, 2, 75, 0
4, 150510, Note_on_c, 2, 63, 100
4, 150540, Note_on_c, 2, 63, 0
4, 150540, Note_on_c, 2, 65, 100
4, 150570, Note_on_c, 2, 65, 0
4, 150570, Note_on_c, 2, 67, 100
4, 150600, Note_on_c, 2, 67, 0
4, 150600, Note_on_c, 2, 68, 100
4, 150630, Note_on_c, 2, 68, 0
4, 150630, Note_on_c, 2, 70, 100
4, 150660, Note_on_c, 2, 70, 0
4, 150660, Note_on_c, 2, 72, 100
4, 150690, Note_on_c, 2, 72, 0
4, 150690, Note_on_c, 2, 74, 100
4, 150720, Note_on_c, 2, 74, 0
4, 150720, Note_on_c, 2, 75, 100
4, 150840, Note_on_c, 2, 75, 0
4, 150990, Note_on_c, 2, 67, 100
4, 151020, Note_on_c, 2, 67, 0
4, 151020, Note_on_c, 2, 68, 100
4, 151050, Note_on_c, 2, 68, 0
4, 151050, Note_on_c, 2, 70, 100
4, 151080, Note_on_c, 2, 70, 0
4, 151080, Note_on_c, 2, 72, 100
4, 151110, Note_on_c, 2, 72, 0
4, 151110, Note_on_c, 2, 74, 100
4, 151140, Note_on_c, 2, 74, 0
4, 151140, Note_on_c, 2, 75, 100
4, 151170, Note_on_c, 2, 75, 0
4, 151170, Note_on_c, 2, 77, 100
4, 151200, Note_on_c, 2, 77, 0
4, 151200, Note_on_c, 2, 79, 100
4, 151320, Note_on_c, 2, 79, 0
4, 151470, Note_on_c, 2, 70, 100
4, 151500, Note_on_c, 2, 70, 0
4, 151500, Note_on_c, 2, 72, 100
4, 151530, Note_on_c, 2, 72, 0
4, 151530, Note_on_c, 2, 74, 100
4, 151560, Note_on_c, 2, 74, 0
4, 151560, Note_on_c, 2, 75, 100
4, 151590, Note_on_c, 2, 75, 0
4, 151590, Note_on_c, 2, 77, 100
4, 151620, Note_on_c, 2, 77, 0
4, 151620, Note_on_c, 2, 79, 100
4, 151650, Note_on_c, 2, 79, 0
4, 151650, Note_on_c, 2, 80, 100
4, 151680, Note_on_c, 2, 80, 0
4, 151680, Note_on_c, 2, 82, 100
4, 151740, Note_on_c, 2, 82, 0
4, 151740, Note_on_c, 2, 80, 100
4, 151800, Note_on_c, 2, 80, 0
4, 151800, Note_on_c, 2, 79, 100
4, 151860, Note_on_c, 2, 79, 0
4, 151860, Note_on_c, 2, 77, 100
4, 151920, Note_on_c, 2, 77, 0
4, 151920, Note_on_c, 2, 76, 100
4, 151980, Note_on_c, 2, 76, 0
4, 151980, Note_on_c, 2, 85, 100
4, 152040, Note_on_c, 2, 85, 0
4, 152040, Note_on_c, 2, 84, 100
4, 152100, Note_on_c, 2, 84, 0
4, 152100, Note_on_c, 2, 82, 100
4, 152145, Note_on_c, 2, 82, 100
4, 152160, Note_on_c, 2, 82, 0
4, 152160, Note_on_c, 2, 82, 0
4, 152160, Note_on_c, 2, 81, 100
4, 152400, Note_on_c, 2, 81, 0
4, 152400, Note_on_c, 2, 80, 100
4, 152580, Note_on_c, 2, 80, 0
4, 152580, Note_on_c, 2, 79, 100
4, 152610, Note_on_c, 2, 79, 0
4, 152610, Note_on_c, 2, 80, 100
4, 152640, Note_on_c, 2, 80, 0
4, 152640, Note_on_c, 2, 79, 100
4, 152670, Note_on_c, 2, 79, 0
4, 152670, Note_on_c, 2, 80, 100
4, 152700, Note_on_c, 2, 80, 0
4, 152700, Note_on_c, 2, 79, 100
4, 152730, Note_on_c, 2, 79, 0
4, 152730, Note_on_c, 2, 77, 100
4, 152760, Note_on_c, 2, 77, 0
4, 152760, Note_on_c, 2, 79, 100
4, 152790, Note_on_c, 2, 79, 0
4, 152790, Note_on_c, 2, 75, 100
4, 152820, Note_on_c, 2, 75, 0
4, 152820, Note_on_c, 2, 77, 100
4, 152850, Note_on_c, 2, 77, 0
4, 152850, Note_on_c, 2, 79, 100
4, 152880, Note_on_c, 2, 79, 0
4, 152880, Note_on_c, 2, 80, 100
4, 152910, Note_on_c, 2, 80, 0
4, 152910, Note_on_c, 2, 82, 100
4, 152940, Note_on_c, 2, 82, 0
4, 152940, Note_on_c, 2, 80, 100
4, 152970, Note_on_c, 2, 80, 0
4, 152970, Note_on_c, 2, 79, 100
4, 153000, Note_on_c, 2, 79, 0
4, 153000, Note_on_c, 2, 80, 100
4, 153030, Note_on_c, 2, 80, 0
4, 153030, Note_on_c, 2, 77, 100
4, 153060, Note_on_c, 2, 77, 0
4, 153060, Note_on_c, 2, 79, 100
4, 153090, Note_on_c, 2, 79, 0
4, 153090, Note_on_c, 2, 80, 100
4, 153120, Note_on_c, 2, 80, 0
4, 153120, Note_on_c, 2, 82, 100
4, 153150, Note_on_c, 2, 82, 0
4, 153150, Note_on_c, 2, 84, 100
4, 153180, Note_on_c, 2, 84, 0
4, 153180, Note_on_c, 2, 82, 100
4, 153210, Note_on_c, 2, 82, 0
4, 153210, Note_on_c, 2, 80, 100
4, 153240, Note_on_c, 2, 80, 0
4, 153240, Note_on_c, 2, 82, 100
4, 153270, Note_on_c, 2, 82, 0
4, 153270, Note_on_c, 2, 79, 100
4, 153300, Note_on_c, 2, 79, 0
4, 153300, Note_on_c, 2, 80, 100
4, 153330, Note_on_c, 2, 80, 0
4, 153330, Note_on_c, 2, 82, 100
4, 153360, Note_on_c, 2, 82, 0
4, 153360, Note_on_c, 2, 84, 100
4, 153420, Note_on_c, 2, 84, 0
4, 153420, Note_on_c, 2, 84, 100
4, 153480, Note_on_c, 2, 84, 0
4, 153480, Note_on_c, 2, 86, 100
4, 153540, Note_on_c, 2, 86, 0
4, 153540, Note_on_c, 2, 86, 100
4, 153600, Note_on_c, 2, 86, 0
4, 153600, Note_on_c, 2, 87, 100
4, 154320, Note_on_c, 2, 87, 0
4, 154320, Note_on_c, 2, 87, 100
4, 154380, Note_on_c, 2, 87, 0
4, 154380, Note_on_c, 2, 87, 100
4, 154440, Note_on_c, 2, 87, 0
4, 154440, Note_on_c, 2, 89, 100
4, 154500, Note_on_c, 2, 89, 0
4, 154500, Note_on_c, 2, 89, 100
4, 154560, Note_on_c, 2, 89, 0
4, 154560, Note_on_c, 2, 90, 100
4, 155160, Note_on_c, 2, 90, 0
4, 155160, Note_on_c, 2, 90, 100
4, 155280, Note_on_c, 2, 90, 0
4, 155280, Note_on_c, 2, 90, 100
4, 155400, Note_on_c, 2, 90, 0
4, 155400, Note_on_c, 2, 90, 100
4, 155520, Note_on_c, 2, 90, 0
4, 155520, Note_on_c, 2, 91, 100
4, 155580, Note_on_c, 2, 91, 0
4, 155580, Note_on_c, 2, 94, 100
4, 155640, Note_on_c, 2, 94, 0
4, 155640, Note_on_c, 2, 87, 100
4, 155700, Note_on_c, 2, 87, 0
4, 155700, Note_on_c, 2, 91, 100
4, 155760, Note_on_c, 2, 91, 0
4, 155760, Note_on_c, 2, 82, 100
4, 155820, Note_on_c, 2, 82, 0
4, 155820, Note_on_c, 2, 87, 100
4, 155880, Note_on_c, 2, 87, 0
4, 155880, Note_on_c, 2, 79, 100
4, 155940, Note_on_c, 2, 79, 0
4, 155940, Note_on_c, 2, 82, 100
4, 156000, Note_on_c, 2, 82, 0
4, 156000, Note_on_c, 2, 58, 100
4, 156060, Note_on_c, 2, 58, 0
4, 156120, Note_on_c, 2, 82, 100
4, 156300, Note_on_c, 2, 82, 0
4, 156300, Note_on_c, 2, 84, 100
4, 156330, Note_on_c, 2, 84, 0
4, 156330, Note_on_c, 2, 86, 100
4, 156360, Note_on_c, 2, 86, 0
4, 156360, Note_on_c, 2, 87, 100
4, 156390, Note_on_c, 2, 87, 0
4, 156390, Note_on_c, 2, 82, 100
4, 156420, Note_on_c, 2, 82, 0
4, 156420, Note_on_c, 2, 79, 100
4, 156450, Note_on_c, 2, 79, 0
4, 156450, Note_on_c, 2, 75, 100
4, 156480, Note_on_c, 2, 75, 0
4, 156480, Note_on_c, 2, 77, 100
4, 156930, Note_on_c, 2, 75, 100
4, 156945, Note_on_c, 2, 75, 0
4, 156945, Note_on_c, 2, 77, 100
4, 156960, Note_on_c, 2, 77, 0
4, 156960, Note_on_c, 2, 77, 0
4, 156960, Note_on_c, 2, 75, 100
4, 157080, Note_on_c, 2, 75, 0
4, 157080, Note_on_c, 2, 55, 100
4, 157080, Note_on_c, 2, 63, 100
4, 157080, Note_on_c, 2, 75, 100
4, 157200, Note_on_c, 2, 75, 0
4, 157200, Note_on_c, 2, 63, 0
4, 157200, Note_on_c, 2, 55, 0
4, 157320, Note_on_c, 2, 55, 100
4, 157320, Note_on_c, 2, 63, 100
4, 157320, Note_on_c, 2, 75, 100
4, 157440, Note_on_c, 2, 75, 0
4, 157440, Note_on_c, 2, 63, 0
4, 157440, Note_on_c, 2, 55, 0
4, 157560, Note_on_c, 2, 67, 100
4, 157650, Note_on_c, 2, 67, 0
4, 157650, Note_on_c, 2, 70, 100
4, 157680, Note_on_c, 2, 70, 0
4, 157680, Note_on_c, 2, 75, 100
4, 157740, Note_on_c, 2, 75, 0
4, 157740, Note_on_c, 2, 75, 100
4, 157800, Note_on_c, 2, 75, 0
4, 157800, Note_on_c, 2, 75, 100
4, 157860, Note_on_c, 2, 75, 0
4, 157860, Note_on_c, 2, 75, 100
4, 157920, Note_on_c, 2, 75, 0
4, 157920, Note_on_c, 2, 75, 100
4, 157980, Note_on_c, 2, 75, 0
4, 157980, Note_on_c, 2, 74, 100
4, 158040, Note_on_c, 2, 74, 0
4, 158040, Note_on_c, 2, 74, 100
4, 158160, Note_on_c, 2, 74, 0
4, 158280, Note_on_c, 2, 68, 100
4, 158280, Note_on_c, 2, 77, 100
4, 158400, Note_on_c, 2, 77, 0
4, 158400, Note_on_c, 2, 68, 0
4, 158520, Note_on_c, 2, 68, 100
4, 158610, Note_on_c, 2, 68, 0
4, 158610, Note_on_c, 2, 74, 100
4, 158640, Note_on_c, 2, 74, 0
4, 158640, Note_on_c, 2, 77, 100
4, 158700, Note_on_c, 2, 77, 0
4, 158700, Note_on_c, 2, 77, 100
4, 158760, Note_on_c, 2, 77, 0
4, 158760, Note_on_c, 2, 77, 100
4, 158820, Note_on_c, 2, 77, 0
4, 158820, Note_on_c, 2, 77, 100
4, 158880, Note_on_c, 2, 77, 0
4, 158880, Note_on_c, 2, 77, 100
4, 158940, Note_on_c, 2, 77, 0
4, 158940, Note_on_c, 2, 75, 100
4, 159000, Note_on_c, 2, 75, 0
4, 159000, Note_on_c, 2, 75, 100
4, 159120, Note_on_c, 2, 75, 0
4, 159240, Note_on_c, 2, 63, 100
4, 159240, Note_on_c, 2, 70, 100
4, 159240, Note_on_c, 2, 79, 100
4, 159360, Note_on_c, 2, 79, 0
4, 159360, Note_on_c, 2, 70, 0
4, 159360, Note_on_c, 2, 63, 0
4, 159480, Note_on_c, 2, 70, 100
4, 159570, Note_on_c, 2, 70, 0
4, 159570, Note_on_c, 2, 75, 100
4, 159600, Note_on_c, 2, 75, 0
4, 159600, Note_on_c, 2, 79, 100
4, 159660, Note_on_c, 2, 79, 0
4, 159660, Note_on_c, 2, 79, 100
4, 159720, Note_on_c, 2, 79, 0
4, 159720, Note_on_c, 2, 79, 100
4, 159780, Note_on_c, 2, 79, 0
4, 159780, Note_on_c, 2, 79, 100
4, 159840, Note_on_c, 2, 79, 0
4, 159840, Note_on_c, 2, 65, 100
4, 159900, Note_on_c, 2, 65, 0
4, 159900, Note_on_c, 2, 67, 100
4, 159930, Note_on_c, 2, 67, 0
4, 159930, Note_on_c, 2, 68, 100
4, 159960, Note_on_c, 2, 68, 0
4, 159960, Note_on_c, 2, 70, 100
4, 159990, Note_on_c, 2, 70, 0
4, 159990, Note_on_c, 2, 72, 100
4, 160020, Note_on_c, 2, 72, 0
4, 160020, Note_on_c, 2, 74, 100
4, 160050, Note_on_c, 2, 74, 0
4, 160050, Note_on_c, 2, 76, 100
4, 160080, Note_on_c, 2, 76, 0
4, 160080, Note_on_c, 2, 77, 100
4, 160110, Note_on_c, 2, 77, 0
4, 160110, Note_on_c, 2, 72, 100
4, 160140, Note_on_c, 2, 72, 0
4, 160140, Note_on_c, 2, 74, 100
4, 160170, Note_on_c, 2, 74, 0
4, 160170, Note_on_c, 2, 76, 100
4, 160200, Note_on_c, 2, 76, 0
4, 160200, Note_on_c, 2, 77, 100
4, 160230, Note_on_c, 2, 77, 0
4, 160230, Note_on_c, 2, 76, 100
4, 160260, Note_on_c, 2, 76, 0
4, 160260, Note_on_c, 2, 77, 100
4, 160290, Note_on_c, 2, 77, 0
4, 160290, Note_on_c, 2, 79, 100
4, 160320, Note_on_c, 2, 79, 0
4, 160320, Note_on_c, 2, 80, 100
4, 160350, Note_on_c, 2, 80, 0
4, 160350, Note_on_c, 2, 76, 100
4, 160380, Note_on_c, 2, 76, 0
4, 160380, Note_on_c, 2, 77, 100
4, 160410, Note_on_c, 2, 77, 0
4, 160410, Note_on_c, 2, 79, 100
4, 160440, Note_on_c, 2, 79, 0
4, 160440, Note_on_c, 2, 80, 100
4, 160470, Note_on_c, 2, 80, 0
4, 160470, Note_on_c, 2, 79, 100
4, 160500, Note_on_c, 2, 79, 0
4, 160500, Note_on_c, 2, 80, 100
4, 160530, Note_on_c, 2, 80, 0
4, 160530, Note_on_c, 2, 82, 100
4, 160560, Note_on_c, 2, 82, 0
4, 160560, Note_on_c, 2, 84, 100
4, 160590, Note_on_c, 2, 84, 0
4, 160590, Note_on_c, 2, 79, 100
4, 160620, Note_on_c, 2, 79, 0
4, 160620, Note_on_c, 2, 80, 100
4, 160650, Note_on_c, 2, 80, 0
4, 160650, Note_on_c, 2, 82, 100
4, 160680, Note_on_c, 2, 82, 0
4, 160680, Note_on_c, 2, 84, 100
4, 160710, Note_on_c, 2, 84, 0
4, 160710, Note_on_c, 2, 83, 100
4, 160740, Note_on_c, 2, 83, 0
4, 160740, Note_on_c, 2, 84, 100
4, 160770, Note_on_c, 2, 84, 0
4, 160770, Note_on_c, 2, 86, 100
4, 160800, Note_on_c, 2, 86, 0
4, 160800, Note_on_c, 2, 87, 100
4, 160890, Note_on_c, 2, 87, 0
4, 160890, Note_on_c, 2, 84, 100
4, 160920, Note_on_c, 2, 84, 0
4, 160920, Note_on_c, 2, 84, 100
4, 161010, Note_on_c, 2, 84, 0
4, 161010, Note_on_c, 2, 81, 100
4, 161040, Note_on_c, 2, 81, 0
4, 161040, Note_on_c, 2, 81, 100
4, 161130, Note_on_c, 2, 81, 0
4, 161130, Note_on_c, 2, 78, 100
4, 161160, Note_on_c, 2, 78, 0
4, 161160, Note_on_c, 2, 78, 100
4, 161250, Note_on_c, 2, 78, 0
4, 161250, Note_on_c, 2, 75, 100
4, 161280, Note_on_c, 2, 75, 0
4, 161280, Note_on_c, 2, 75, 100
4, 161370, Note_on_c, 2, 75, 0
4, 161370, Note_on_c, 2, 72, 100
4, 161400, Note_on_c, 2, 72, 0
4, 161400, Note_on_c, 2, 72, 100
4, 161490, Note_on_c, 2, 72, 0
4, 161490, Note_on_c, 2, 69, 100
4, 161520, Note_on_c, 2, 69, 0
4, 161520, Note_on_c, 2, 69, 100
4, 161610, Note_on_c, 2, 69, 0
4, 161610, Note_on_c, 2, 84, 100
4, 161640, Note_on_c, 2, 84, 0
4, 161640, Note_on_c, 2, 84, 100
4, 161730, Note_on_c, 2, 84, 0
4, 161730, Note_on_c, 2, 84, 100
4, 161760, Note_on_c, 2, 84, 0
4, 161760, Note_on_c, 2, 87, 100
4, 162240, Note_on_c, 2, 87, 0
4, 162240, Note_on_c, 2, 55, 100
4, 162270, Note_on_c, 2, 55, 0
4, 162270, Note_on_c, 2, 63, 100
4, 162300, Note_on_c, 2, 63, 0
4, 162300, Note_on_c, 2, 58, 100
4, 162330, Note_on_c, 2, 58, 0
4, 162330, Note_on_c, 2, 67, 100
4, 162360, Note_on_c, 2, 67, 0
4, 162360, Note_on_c, 2, 63, 100
4, 162390, Note_on_c, 2, 63, 0
4, 162390, Note_on_c, 2, 70, 100
4, 162420, Note_on_c, 2, 70, 0
4, 162420, Note_on_c, 2, 67, 100
4, 162450, Note_on_c, 2, 67, 0
4, 162450, Note_on_c, 2, 75, 100
4, 162480, Note_on_c, 2, 75, 0
4, 162480, Note_on_c, 2, 70, 100
4, 162510, Note_on_c, 2, 70, 0
4, 162510, Note_on_c, 2, 79, 100
4, 162540, Note_on_c, 2, 79, 0
4, 162540, Note_on_c, 2, 75, 100
4, 162570, Note_on_c, 2, 75, 0
4, 162570, Note_on_c, 2, 82, 100
4, 162600, Note_on_c, 2, 82, 0
4, 162600, Note_on_c, 2, 80, 100
4, 162630, Note_on_c, 2, 80, 0
4, 162630, Note_on_c, 2, 79, 100
4, 162660, Note_on_c, 2, 79, 0
4, 162660, Note_on_c, 2, 77, 100
4, 162690, Note_on_c, 2, 77, 0
4, 162690, Note_on_c, 2, 75, 100
4, 162720, Note_on_c, 2, 75, 0
4, 162720, Note_on_c, 2, 80, 100
4, 162810, Note_on_c, 2, 80, 0
4, 162810, Note_on_c, 2, 77, 100
4, 162840, Note_on_c, 2, 77, 0
4, 162840, Note_on_c, 2, 74, 100
4, 162960, Note_on_c, 2, 74, 0
4, 163200, Note_on_c, 2, 55, 100
4, 163230, Note_on_c, 2, 55, 0
4, 163230, Note_on_c, 2, 63, 100
4, 163260, Note_on_c, 2, 63, 0
4, 163260, Note_on_c, 2, 58, 100
4, 163290, Note_on_c, 2, 58, 0
4, 163290, Note_on_c, 2, 67, 100
4, 163320, Note_on_c, 2, 67, 0
4, 163320, Note_on_c, 2, 63, 100
4, 163350, Note_on_c, 2, 63, 0
4, 163350, Note_on_c, 2, 70, 100
4, 163380, Note_on_c, 2, 70, 0
4, 163380, Note_on_c, 2, 67, 100
4, 163410, Note_on_c, 2, 67, 0
4, 163410, Note_on_c, 2, 75, 100
4, 163440, Note_on_c, 2, 75, 0
4, 163440, Note_on_c, 2, 70, 100
4, 163470, Note_on_c, 2, 70, 0
4, 163470, Note_on_c, 2, 79, 100
4, 163500, Note_on_c, 2, 79, 0
4, 163500, Note_on_c, 2, 75, 100
4, 163530, Note_on_c, 2, 75, 0
4, 163530, Note_on_c, 2, 82, 100
4, 163560, Note_on_c, 2, 82, 0
4, 163560, Note_on_c, 2, 80, 100
4, 163590, Note_on_c, 2, 80, 0
4, 163590, Note_on_c, 2, 79, 100
4, 163620, Note_on_c, 2, 79, 0
4, 163620, Note_on_c, 2, 77, 100
4, 163650, Note_on_c, 2, 77, 0
4, 163650, Note_on_c, 2, 75, 100
4, 163680, Note_on_c, 2, 75, 0
4, 163680, Note_on_c, 2, 80, 100
4, 163770, Note_on_c, 2, 80, 0
4, 163770, Note_on_c, 2, 77, 100
4, 163800, Note_on_c, 2, 77, 0
4, 163800, Note_on_c, 2, 74, 100
4, 163920, Note_on_c, 2, 74, 0
4, 164190, Note_on_c, 2, 75, 100
4, 164220, Note_on_c, 2, 75, 0
4, 164220, Note_on_c, 2, 74, 100
4, 164250, Note_on_c, 2, 74, 0
4, 164250, Note_on_c, 2, 75, 100
4, 164280, Note_on_c, 2, 75, 0
4, 164280, Note_on_c, 2, 77, 100
4, 164310, Note_on_c, 2, 77, 0
4, 164310, Note_on_c, 2, 75, 100
4, 164340, Note_on_c, 2, 75, 0
4, 164340, Note_on_c, 2, 74, 100
4, 164370, Note_on_c, 2, 74, 0
4, 164370, Note_on_c, 2, 75, 100
4, 164400, Note_on_c, 2, 75, 0
4, 164400, Note_on_c, 2, 73, 100
4, 164430, Note_on_c, 2, 73, 0
4, 164430, Note_on_c, 2, 73, 100
4, 164460, Note_on_c, 2, 73, 0
4, 164460, Note_on_c, 2, 72, 100
4, 164490, Note_on_c, 2, 72, 0
4, 164490, Note_on_c, 2, 73, 100
4, 164520, Note_on_c, 2, 73, 0
4, 164520, Note_on_c, 2, 75, 100
4, 164550, Note_on_c, 2, 75, 0
4, 164550, Note_on_c, 2, 73, 100
4, 164580, Note_on_c, 2, 73, 0
4, 164580, Note_on_c, 2, 72, 100
4, 164610, Note_on_c, 2, 72, 0
4, 164610, Note_on_c, 2, 73, 100
4, 164640, Note_on_c, 2, 73, 0
4, 164640, Note_on_c, 2, 72, 100
4, 164760, Note_on_c, 2, 72, 0
4, 164880, Note_on_c, 2, 76, 100
4, 164880, Note_on_c, 2, 66, 100
4, 165000, Note_on_c, 2, 66, 0
4, 165000, Note_on_c, 2, 76, 0
4, 165120, Note_on_c, 2, 65, 100
4, 165150, Note_on_c, 2, 65, 0
4, 165150, Note_on_c, 2, 77, 100
4, 165180, Note_on_c, 2, 77, 0
4, 165180, Note_on_c, 2, 76, 100
4, 165210, Note_on_c, 2, 76, 0
4, 165210, Note_on_c, 2, 77, 100
4, 165240, Note_on_c, 2, 77, 0
4, 165240, Note_on_c, 2, 76, 100
4, 165270, Note_on_c, 2, 76, 0
4, 165270, Note_on_c, 2, 77, 100
4, 165300, Note_on_c, 2, 77, 0
4, 165300, Note_on_c, 2, 79, 100
4, 165330, Note_on_c, 2, 79, 0
4, 165330, Note_on_c, 2, 77, 100
4, 165360, Note_on_c, 2, 77, 0
4, 165360, Note_on_c, 2, 75, 100
4, 165390, Note_on_c, 2, 75, 0
4, 165390, Note_on_c, 2, 75, 100
4, 165420, Note_on_c, 2, 75, 0
4, 165420, Note_on_c, 2, 74, 100
4, 165450, Note_on_c, 2, 74, 0
4, 165450, Note_on_c, 2, 75, 100
4, 165480, Note_on_c, 2, 75, 0
4, 165480, Note_on_c, 2, 74, 100
4, 165510, Note_on_c, 2, 74, 0
4, 165510, Note_on_c, 2, 75, 100
4, 165540, Note_on_c, 2, 75, 0
4, 165540, Note_on_c, 2, 77, 100
4, 165570, Note_on_c, 2, 77, 0
4, 165570, Note_on_c, 2, 75, 100
4, 165600, Note_on_c, 2, 75, 0
4, 165600, Note_on_c, 2, 74, 100
4, 165720, Note_on_c, 2, 74, 0
4, 165840, Note_on_c, 2, 68, 100
4, 165840, Note_on_c, 2, 78, 100
4, 165960, Note_on_c, 2, 78, 0
4, 165960, Note_on_c, 2, 68, 0
4, 166080, Note_on_c, 2, 67, 100
4, 166110, Note_on_c, 2, 67, 0
4, 166110, Note_on_c, 2, 79, 100
4, 166140, Note_on_c, 2, 79, 0
4, 166140, Note_on_c, 2, 78, 100
4, 166170, Note_on_c, 2, 78, 0
4, 166170, Note_on_c, 2, 79, 100
4, 166200, Note_on_c, 2, 79, 0
4, 166200, Note_on_c, 2, 80, 100
4, 166230, Note_on_c, 2, 80, 0
4, 166230, Note_on_c, 2, 79, 100
4, 166260, Note_on_c, 2, 79, 0
4, 166260, Note_on_c, 2, 78, 100
4, 166290, Note_on_c, 2, 78, 0
4, 166290, Note_on_c, 2, 79, 100
4, 166320, Note_on_c, 2, 79, 0
4, 166320, Note_on_c, 2, 77, 100
4, 166350, Note_on_c, 2, 77, 0
4, 166350, Note_on_c, 2, 77, 100
4, 166380, Note_on_c, 2, 77, 0
4, 166380, Note_on_c, 2, 76, 100
4, 166410, Note_on_c, 2, 76, 0
4, 166410, Note_on_c, 2, 77, 100
4, 166440, Note_on_c, 2, 77, 0
4, 166440, Note_on_c, 2, 79, 100
4, 166470, Note_on_c, 2, 79, 0
4, 166470, Note_on_c, 2, 77, 100
4, 166500, Note_on_c, 2, 77, 0
4, 166500, Note_on_c, 2, 76, 100
4, 166530, Note_on_c, 2, 76, 0
4, 166530, Note_on_c, 2, 77, 100
4, 166560, Note_on_c, 2, 77, 0
4, 166560, Note_on_c, 2, 75, 100
4, 166590, Note_on_c, 2, 75, 0
4, 166590, Note_on_c, 2, 87, 100
4, 166620, Note_on_c, 2, 87, 0
4, 166620, Note_on_c, 2, 86, 100
4, 166650, Note_on_c, 2, 86, 0
4, 166650, Note_on_c, 2, 87, 100
4, 166680, Note_on_c, 2, 87, 0
4, 166680, Note_on_c, 2, 89, 100
4, 166710, Note_on_c, 2, 89, 0
4, 166710, Note_on_c, 2, 87, 100
4, 166740, Note_on_c, 2, 87, 0
4, 166740, Note_on_c, 2, 86, 100
4, 166770, Note_on_c, 2, 86, 0
4, 166770, Note_on_c, 2, 87, 100
4, 166800, Note_on_c, 2, 87, 0
4, 166800, Note_on_c, 2, 85, 100
4, 166830, Note_on_c, 2, 85, 0
4, 166830, Note_on_c, 2, 85, 100
4, 166860, Note_on_c, 2, 85, 0
4, 166860, Note_on_c, 2, 84, 100
4, 166890, Note_on_c, 2, 84, 0
4, 166890, Note_on_c, 2, 85, 100
4, 166920, Note_on_c, 2, 85, 0
4, 166920, Note_on_c, 2, 87, 100
4, 166950, Note_on_c, 2, 87, 0
4, 166950, Note_on_c, 2, 85, 100
4, 166980, Note_on_c, 2, 85, 0
4, 166980, Note_on_c, 2, 84, 100
4, 167010, Note_on_c, 2, 84, 0
4, 167010, Note_on_c, 2, 85, 100
4, 167040, Note_on_c, 2, 85, 0
4, 167040, Note_on_c, 2, 85, 100
4, 167070, Note_on_c, 2, 85, 0
4, 167070, Note_on_c, 2, 84, 100
4, 167100, Note_on_c, 2, 84, 0
4, 167100, Note_on_c, 2, 83, 100
4, 167130, Note_on_c, 2, 83, 0
4, 167130, Note_on_c, 2, 84, 100
4, 167160, Note_on_c, 2, 84, 0
4, 167160, Note_on_c, 2, 84, 100
4, 167190, Note_on_c, 2, 84, 0
4, 167190, Note_on_c, 2, 82, 100
4, 167220, Note_on_c, 2, 82, 0
4, 167220, Note_on_c, 2, 81, 100
4, 167250, Note_on_c, 2, 81, 0
4, 167250, Note_on_c, 2, 82, 100
4, 167280, Note_on_c, 2, 82, 0
4, 167280, Note_on_c, 2, 82, 100
4, 167310, Note_on_c, 2, 82, 0
4, 167310, Note_on_c, 2, 80, 100
4, 167340, Note_on_c, 2, 80, 0
4, 167340, Note_on_c, 2, 79, 100
4, 167370, Note_on_c, 2, 79, 0
4, 167370, Note_on_c, 2, 80, 100
4, 167400, Note_on_c, 2, 80, 0
4, 167400, Note_on_c, 2, 80, 100
4, 167430, Note_on_c, 2, 80, 0
4, 167430, Note_on_c, 2, 79, 100
4, 167460, Note_on_c, 2, 79, 0
4, 167460, Note_on_c, 2, 78, 100
4, 167490, Note_on_c, 2, 78, 0
4, 167490, Note_on_c, 2, 79, 100
4, 167520, Note_on_c, 2, 79, 0
4, 167520, Note_on_c, 2, 79, 100
4, 167550, Note_on_c, 2, 79, 0
4, 167550, Note_on_c, 2, 77, 100
4, 167580, Note_on_c, 2, 77, 0
4, 167580, Note_on_c, 2, 80, 100
4, 167610, Note_on_c, 2, 80, 0
4, 167610, Note_on_c, 2, 79, 100
4, 167640, Note_on_c, 2, 79, 0
4, 167640, Note_on_c, 2, 82, 100
4, 167670, Note_on_c, 2, 82, 0
4, 167670, Note_on_c, 2, 80, 100
4, 167700, Note_on_c, 2, 80, 0
4, 167700, Note_on_c, 2, 84, 100
4, 167730, Note_on_c, 2, 84, 0
4, 167730, Note_on_c, 2, 82, 100
4, 167760, Note_on_c, 2, 82, 0
4, 167760, Note_on_c, 2, 86, 100
4, 167790, Note_on_c, 2, 86, 0
4, 167790, Note_on_c, 2, 84, 100
4, 167820, Note_on_c, 2, 84, 0
4, 167820, Note_on_c, 2, 82, 100
4, 167850, Note_on_c, 2, 82, 0
4, 167850, Note_on_c, 2, 80, 100
4, 167880, Note_on_c, 2, 80, 0
4, 167880, Note_on_c, 2, 80, 100
4, 167910, Note_on_c, 2, 80, 0
4, 167910, Note_on_c, 2, 79, 100
4, 167940, Note_on_c, 2, 79, 0
4, 167940, Note_on_c, 2, 77, 100
4, 167970, Note_on_c, 2, 77, 0
4, 167970, Note_on_c, 2, 75, 100
4, 168000, Note_on_c, 2, 75, 0
4, 168000, Note_on_c, 2, 75, 100
4, 168030, Note_on_c, 2, 75, 0
4, 168030, Note_on_c, 2, 74, 100
4, 168060, Note_on_c, 2, 74, 0
4, 168060, Note_on_c, 2, 77, 100
4, 168090, Note_on_c, 2, 77, 0
4, 168090, Note_on_c, 2, 75, 100
4, 168120, Note_on_c, 2, 75, 0
4, 168120, Note_on_c, 2, 79, 100
4, 168150, Note_on_c, 2, 79, 0
4, 168150, Note_on_c, 2, 77, 100
4, 168180, Note_on_c, 2, 77, 0
4, 168180, Note_on_c, 2, 80, 100
4, 168210, Note_on_c, 2, 80, 0
4, 168210, Note_on_c, 2, 79, 100
4, 168240, Note_on_c, 2, 79, 0
4, 168240, Note_on_c, 2, 82, 100
4, 168270, Note_on_c, 2, 82, 0
4, 168270, Note_on_c, 2, 80, 100
4, 168300, Note_on_c, 2, 80, 0
4, 168300, Note_on_c, 2, 79, 100
4, 168330, Note_on_c, 2, 79, 0
4, 168330, Note_on_c, 2, 77, 100
4, 168360, Note_on_c, 2, 77, 0
4, 168360, Note_on_c, 2, 77, 100
4, 168390, Note_on_c, 2, 77, 0
4, 168390, Note_on_c, 2, 75, 100
4, 168420, Note_on_c, 2, 75, 0
4, 168420, Note_on_c, 2, 74, 100
4, 168450, Note_on_c, 2, 74, 0
4, 168450, Note_on_c, 2, 72, 100
4, 168480, Note_on_c, 2, 72, 0
4, 168480, Note_on_c, 2, 72, 100
4, 168510, Note_on_c, 2, 72, 0
4, 168510, Note_on_c, 2, 70, 100
4, 168540, Note_on_c, 2, 70, 0
4, 168540, Note_on_c, 2, 74, 100
4, 168570, Note_on_c, 2, 74, 0
4, 168570, Note_on_c, 2, 72, 100
4, 168600, Note_on_c, 2, 72, 0
4, 168600, Note_on_c, 2, 75, 100
4, 168630, Note_on_c, 2, 75, 0
4, 168630, Note_on_c, 2, 74, 100
4, 168660, Note_on_c, 2, 74, 0
4, 168660, Note_on_c, 2, 77, 100
4, 168690, Note_on_c, 2, 77, 0
4, 168690, Note_on_c, 2, 75, 100
4, 168720, Note_on_c, 2, 75, 0
4, 168720, Note_on_c, 2, 79, 100
4, 168750, Note_on_c, 2, 79, 0
4, 168750, Note_on_c, 2, 77, 100
4, 168780, Note_on_c, 2, 77, 0
4, 168780, Note_on_c, 2, 75, 100
4, 168810, Note_on_c, 2, 75, 0
4, 168810, Note_on_c, 2, 74, 100
4, 168840, Note_on_c, 2, 74, 0
4, 168840, Note_on_c, 2, 75, 100
4, 168870, Note_on_c, 2, 75, 0
4, 168870, Note_on_c, 2, 74, 100
4, 168900, Note_on_c, 2, 74, 0
4, 168900, Note_on_c, 2, 72, 100
4, 168930, Note_on_c, 2, 72, 0
4, 168930, Note_on_c, 2, 70, 100
4, 168960, Note_on_c, 2, 70, 0
4, 168960, Note_on_c, 2, 69, 100
4, 169000, Note_on_c, 2, 69, 0
4, 169000, Note_on_c, 2, 72, 100
4, 169040, Note_on_c, 2, 72, 0
4, 169040, Note_on_c, 2, 75, 100
4, 169080, Note_on_c, 2, 75, 0
4, 169080, Note_on_c, 2, 78, 100
4, 169120, Note_on_c, 2, 78, 0
4, 169120, Note_on_c, 2, 81, 100
4, 169160, Note_on_c, 2, 81, 0
4, 169160, Note_on_c, 2, 84, 100
4, 169200, Note_on_c, 2, 84, 0
4, 169200, Note_on_c, 2, 87, 100
4, 169230, Note_on_c, 2, 87, 0
4, 169230, Note_on_c, 2, 84, 100
4, 169260, Note_on_c, 2, 84, 0
4, 169260, Note_on_c, 2, 81, 100
4, 169290, Note_on_c, 2, 81, 0
4, 169290, Note_on_c, 2, 78, 100
4, 169320, Note_on_c, 2, 78, 0
4, 169320, Note_on_c, 2, 75, 100
4, 169350, Note_on_c, 2, 75, 0
4, 169350, Note_on_c, 2, 72, 100
4, 169380, Note_on_c, 2, 72, 0
4, 169380, Note_on_c, 2, 69, 100
4, 169410, Note_on_c, 2, 69, 0
4, 169410, Note_on_c, 2, 63, 100
4, 169440, Note_on_c, 2, 63, 0
4, 169440, Note_on_c, 2, 62, 100
4, 169480, Note_on_c, 2, 62, 0
4, 169480, Note_on_c, 2, 65, 100
4, 169520, Note_on_c, 2, 65, 0
4, 169520, Note_on_c, 2, 70, 100
4, 169560, Note_on_c, 2, 70, 0
4, 169560, Note_on_c, 2, 74, 100
4, 169590, Note_on_c, 2, 74, 0
4, 169590, Note_on_c, 2, 77, 100
4, 169620, Note_on_c, 2, 77, 0
4, 169620, Note_on_c, 2, 82, 100
4, 169650, Note_on_c, 2, 82, 0
4, 169650, Note_on_c, 2, 86, 100
4, 169680, Note_on_c, 2, 86, 0
4, 169680, Note_on_c, 2, 89, 100
4, 169800, Note_on_c, 2, 89, 0
4, 169920, Note_on_c, 2, 91, 100
4, 170040, Note_on_c, 2, 91, 0
4, 170160, Note_on_c, 2, 92, 100
4, 170440, Note_on_c, 2, 92, 0
4, 170440, Note_on_c, 2, 91, 100
4, 170480, Note_on_c, 2, 91, 0
4, 170480, Note_on_c, 2, 89, 100
4, 170520, Note_on_c, 2, 89, 0
4, 170520, Note_on_c, 2, 87, 100
4, 170560, Note_on_c, 2, 87, 0
4, 170560, Note_on_c, 2, 86, 100
4, 170600, Note_on_c, 2, 86, 0
4, 170600, Note_on_c, 2, 84, 100
4, 170640, Note_on_c, 2, 84, 0
4, 170640, Note_on_c, 2, 82, 100
4, 170700, Note_on_c, 2, 82, 0
4, 170760, Note_on_c, 2, 81, 100
4, 170820, Note_on_c, 2, 81, 0
4, 170880, Note_on_c, 2, 80, 100
4, 171000, Note_on_c, 2, 80, 0
4, 171060, Note_on_c, 2, 77, 100
4, 171120, Note_on_c, 2, 77, 0
4, 171120, Note_on_c, 2, 79, 100
4, 171180, Note_on_c, 2, 79, 0
4, 171180, Note_on_c, 2, 80, 100
4, 171240, Note_on_c, 2, 80, 0
4, 171240, Note_on_c, 2, 81, 100
4, 171300, Note_on_c, 2, 81, 0
4, 171300, Note_on_c, 2, 82, 100
4, 171360, Note_on_c, 2, 82, 0
4, 171360, Note_on_c, 2, 84, 100
4, 171420, Note_on_c, 2, 84, 0
4, 171420, Note_on_c, 2, 76, 100
4, 171480, Note_on_c, 2, 76, 0
4, 171480, Note_on_c, 2, 77, 100
4, 171540, Note_on_c, 2, 77, 0
4, 171540, Note_on_c, 2, 79, 100
4, 171600, Note_on_c, 2, 79, 0
4, 171600, Note_on_c, 2, 80, 100
4, 171660, Note_on_c, 2, 80, 0
4, 171660, Note_on_c, 2, 81, 100
4, 171720, Note_on_c, 2, 81, 0
4, 171720, Note_on_c, 2, 82, 100
4, 171780, Note_on_c, 2, 82, 0
4, 171780, Note_on_c, 2, 74, 100
4, 171840, Note_on_c, 2, 74, 0
4, 171840, Note_on_c, 2, 75, 100
4, 171900, Note_on_c, 2, 75, 0
4, 171900, Note_on_c, 2, 77, 100
4, 171960, Note_on_c, 2, 77, 0
4, 171960, Note_on_c, 2, 78, 100
4, 172020, Note_on_c, 2, 78, 0
4, 172020, Note_on_c, 2, 79, 100
4, 172080, Note_on_c, 2, 79, 0
4, 172080, Note_on_c, 2, 80, 100
4, 172140, Note_on_c, 2, 80, 0
4, 172200, Note_on_c, 2, 77, 100
4, 172260, Note_on_c, 2, 77, 0
4, 172320, Note_on_c, 2, 79, 100
4, 172560, Note_on_c, 2, 79, 0
4, 172560, Note_on_c, 2, 78, 100
4, 172920, Note_on_c, 2, 78, 0
4, 172920, Note_on_c, 2, 77, 100
4, 173100, Note_on_c, 2, 77, 0
4, 173100, Note_on_c, 2, 80, 100
4, 173130, Note_on_c, 2, 80, 0
4, 173130, Note_on_c, 2, 84, 100
4, 173160, Note_on_c, 2, 84, 0
4, 173160, Note_on_c, 2, 82, 100
4, 173190, Note_on_c, 2, 82, 0
4, 173190, Note_on_c, 2, 80, 100
4, 173220, Note_on_c, 2, 80, 0
4, 173220, Note_on_c, 2, 79, 100
4, 173250, Note_on_c, 2, 79, 0
4, 173250, Note_on_c, 2, 77, 100
4, 173280, Note_on_c, 2, 77, 0
4, 173280, Note_on_c, 2, 82, 100
4, 173430, Note_on_c, 2, 82, 0
4, 173430, Note_on_c, 2, 84, 100
4, 173445, Note_on_c, 2, 84, 0
4, 173445, Note_on_c, 2, 86, 100
4, 173460, Note_on_c, 2, 86, 0
4, 173460, Note_on_c, 2, 87, 100
4, 173475, Note_on_c, 2, 87, 0
4, 173475, Note_on_c, 2, 89, 100
4, 173490, Note_on_c, 2, 89, 0
4, 173490, Note_on_c, 2, 91, 100
4, 173505, Note_on_c, 2, 91, 0
4, 173505, Note_on_c, 2, 92, 100
4, 173520, Note_on_c, 2, 92, 0
4, 173520, Note_on_c, 2, 94, 100
4, 173580, Note_on_c, 2, 94, 0
4, 173580, Note_on_c, 2, 91, 100
4, 173640, Note_on_c, 2, 91, 0
4, 173640, Note_on_c, 2, 87, 100
4, 173700, Note_on_c, 2, 87, 0
4, 173760, Note_on_c, 2, 89, 100
4, 174210, Note_on_c, 2, 87, 100
4, 174225, Note_on_c, 2, 87, 0
4, 174225, Note_on_c, 2, 89, 100
4, 174240, Note_on_c, 2, 89, 0
4, 174240, Note_on_c, 2, 89, 0
4, 174240, Note_on_c, 2, 87, 100
4, 174300, Note_on_c, 2, 87, 0
4, 174300, Note_on_c, 2, 79, 100
4, 174300, Note_on_c, 2, 87, 100
4, 174420, Note_on_c, 2, 87, 0
4, 174420, Note_on_c, 2, 79, 0
4, 174420, Note_on_c, 2, 79, 100
4, 174420, Note_on_c, 2, 87, 100
4, 174540, Note_on_c, 2, 87, 0
4, 174540, Note_on_c, 2, 79, 0
4, 174540, Note_on_c, 2, 79, 100
4, 174540, Note_on_c, 2, 87, 100
4, 174660, Note_on_c, 2, 87, 0
4, 174660, Note_on_c, 2, 79, 0
4, 174660, Note_on_c, 2, 79, 100
4, 174660, Note_on_c, 2, 87, 100
4, 174780, Note_on_c, 2, 87, 0
4, 174780, Note_on_c, 2, 79, 0
4, 174780, Note_on_c, 2, 79, 100
4, 174780, Note_on_c, 2, 87, 100
4, 174900, Note_on_c, 2, 87, 0
4, 174900, Note_on_c, 2, 79, 0
4, 174900, Note_on_c, 2, 79, 100
4, 174900, Note_on_c, 2, 87, 100
4, 175020, Note_on_c, 2, 87, 0
4, 175020, Note_on_c, 2, 79, 0
4, 175020, Note_on_c, 2, 79, 100
4, 175020, Note_on_c, 2, 87, 100
4, 175140, Note_on_c, 2, 87, 0
4, 175140, Note_on_c, 2, 79, 0
4, 175140, Note_on_c, 2, 79, 100
4, 175140, Note_on_c, 2, 87, 100
4, 175260, Note_on_c, 2, 87, 0
4, 175260, Note_on_c, 2, 79, 0
4, 175260, Note_on_c, 2, 79, 100
4, 175260, Note_on_c, 2, 87, 100
4, 175380, Note_on_c, 2, 87, 0
4, 175380, Note_on_c, 2, 79, 0
4, 175380, Note_on_c, 2, 79, 100
4, 175380, Note_on_c, 2, 87, 100
4, 175500, Note_on_c, 2, 87, 0
4, 175500, Note_on_c, 2, 79, 0
4, 175500, Note_on_c, 2, 79, 100
4, 175500, Note_on_c, 2, 87, 100
4, 175620, Note_on_c, 2, 87, 0
4, 175620, Note_on_c, 2, 79, 0
4, 175620, Note_on_c, 2, 79, 100
4, 175620, Note_on_c, 2, 87, 100
4, 175740, Note_on_c, 2, 87, 0
4, 175740, Note_on_c, 2, 79, 0
4, 175740, Note_on_c, 2, 79, 100
4, 175740, Note_on_c, 2, 87, 100
4, 175860, Note_on_c, 2, 87, 0
4, 175860, Note_on_c, 2, 79, 0
4, 175860, Note_on_c, 2, 79, 100
4, 175860, Note_on_c, 2, 87, 100
4, 175980, Note_on_c, 2, 87, 0
4, 175980, Note_on_c, 2, 79, 0
4, 175980, Note_on_c, 2, 79, 100
4, 175980, Note_on_c, 2, 87, 100
4, 176100, Note_on_c, 2, 87, 0
4, 176100, Note_on_c, 2, 79, 0
4, 176100, Note_on_c, 2, 79, 100
4, 176100, Note_on_c, 2, 87, 100
4, 176160, Note_on_c, 2, 79, 0
4, 176160, Note_on_c, 2, 77, 100
4, 176220, Note_on_c, 2, 77, 0
4, 176220, Note_on_c, 2, 87, 0
4, 176220, Note_on_c, 2, 87, 100
4, 176340, Note_on_c, 2, 87, 0
4, 176340, Note_on_c, 2, 86, 100
4, 176460, Note_on_c, 2, 86, 0
4, 176460, Note_on_c, 2, 84, 100
4, 176580, Note_on_c, 2, 84, 0
4, 176580, Note_on_c, 2, 82, 100
4, 176700, Note_on_c, 2, 82, 0
4, 176700, Note_on_c, 2, 80, 100
4, 176820, Note_on_c, 2, 80, 0
4, 176820, Note_on_c, 2, 79, 100
4, 176940, Note_on_c, 2, 79, 0
4, 176940, Note_on_c, 2, 77, 100
4, 177060, Note_on_c, 2, 77, 0
4, 177060, Note_on_c, 2, 84, 100
4, 177180, Note_on_c, 2, 84, 0
4, 177180, Note_on_c, 2, 82, 100
4, 177300, Note_on_c, 2, 82, 0
4, 177300, Note_on_c, 2, 81, 100
4, 177420, Note_on_c, 2, 81, 0
4, 177420, Note_on_c, 2, 80, 100
4, 177540, Note_on_c, 2, 80, 0
4, 177540, Note_on_c, 2, 79, 100
4, 177660, Note_on_c, 2, 79, 0
4, 177660, Note_on_c, 2, 77, 100
4, 177720, Note_on_c, 2, 77, 0
4, 177720, Note_on_c, 2, 80, 100
4, 177780, Note_on_c, 2, 80, 0
4, 177780, Note_on_c, 2, 77, 100
4, 177900, Note_on_c, 2, 77, 0
4, 177900, Note_on_c, 2, 75, 100
4, 178020, Note_on_c, 2, 75, 0
4, 178020, Note_on_c, 2, 74, 100
4, 178080, Note_on_c, 2, 74, 0
4, 178080, Note_on_c, 2, 75, 100
4, 178200, Note_on_c, 2, 75, 0
4, 178560, Note_on_c, 2, 82, 100
4, 178680, Note_on_c, 2, 82, 0
4, 178680, Note_on_c, 2, 80, 100
4, 178800, Note_on_c, 2, 80, 0
4, 178800, Note_on_c, 2, 79, 100
4, 178920, Note_on_c, 2, 79, 0
4, 178920, Note_on_c, 2, 77, 100
4, 179040, Note_on_c, 2, 77, 0
4, 179040, Note_on_c, 2, 75, 100
4, 179160, Note_on_c, 2, 75, 0
4, 179490, Note_on_c, 2, 70, 100
4, 179520, Note_on_c, 2, 70, 0
4, 179520, Note_on_c, 2, 82, 100
4, 179640, Note_on_c, 2, 82, 0
4, 179640, Note_on_c, 2, 80, 100
4, 179760, Note_on_c, 2, 80, 0
4, 179760, Note_on_c, 2, 79, 100
4, 179880, Note_on_c, 2, 79, 0
4, 179880, Note_on_c, 2, 77, 100
4, 180000, Note_on_c, 2, 77, 0
4, 180000, Note_on_c, 2, 75, 100
4, 180120, Note_on_c, 2, 75, 0
4, 180120, Note_on_c, 2, 70, 100
4, 180120, Note_on_c, 2, 79, 100
4, 180150, Note_on_c, 2, 79, 0
4, 180150, Note_on_c, 2, 70, 0
4, 180150, Note_on_c, 2, 70, 100
4, 180150, Note_on_c, 2, 79, 100
4, 180180, Note_on_c, 2, 79, 0
4, 180180, Note_on_c, 2, 70, 0
4, 180180, Note_on_c, 2, 70, 100
4, 180180, Note_on_c, 2, 82, 100
4, 180210, Note_on_c, 2, 82, 0
4, 180210, Note_on_c, 2, 70, 0
4, 180210, Note_on_c, 2, 70, 100
4, 180210, Note_on_c, 2, 82, 100
4, 180240, Note_on_c, 2, 82, 0
4, 180240, Note_on_c, 2, 70, 0
4, 180240, Note_on_c, 2, 70, 100
4, 180240, Note_on_c, 2, 79, 100
4, 180270, Note_on_c, 2, 79, 0
4, 180270, Note_on_c, 2, 70, 0
4, 180270, Note_on_c, 2, 70, 100
4, 180270, Note_on_c, 2, 79, 100
4, 180300, Note_on_c, 2, 79, 0
4, 180300, Note_on_c, 2, 70, 0
4, 180300, Note_on_c, 2, 70, 100
4, 180300, Note_on_c, 2, 82, 100
4, 180330, Note_on_c, 2, 82, 0
4, 180330, Note_on_c, 2, 70, 0
4, 180330, Note_on_c, 2, 70, 100
4, 180330, Note_on_c, 2, 82, 100
4, 180360, Note_on_c, 2, 82, 0
4, 180360, Note_on_c, 2, 70, 0
4, 180360, Note_on_c, 2, 70, 100
4, 180360, Note_on_c, 2, 79, 100
4, 180390, Note_on_c, 2, 79, 0
4, 180390, Note_on_c, 2, 70, 0
4, 180390, Note_on_c, 2, 70, 100
4, 180390, Note_on_c, 2, 79, 100
4, 180420, Note_on_c, 2, 79, 0
4, 180420, Note_on_c, 2, 70, 0
4, 180420, Note_on_c, 2, 70, 100
4, 180420, Note_on_c, 2, 82, 100
4, 180450, Note_on_c, 2, 82, 0
4, 180450, Note_on_c, 2, 70, 0
4, 180450, Note_on_c, 2, 70, 100
4, 180450, Note_on_c, 2, 82, 100
4, 180480, Note_on_c, 2, 82, 0
4, 180480, Note_on_c, 2, 70, 0
4, 180480, Note_on_c, 2, 70, 100
4, 180480, Note_on_c, 2, 79, 100
4, 180600, Note_on_c, 2, 79, 0
4, 180600, Note_on_c, 2, 70, 0
4, 180600, Note_on_c, 2, 55, 100
4, 180600, Note_on_c, 2, 63, 100
4, 180630, Note_on_c, 2, 63, 0
4, 180630, Note_on_c, 2, 55, 0
4, 180630, Note_on_c, 2, 55, 100
4, 180630, Note_on_c, 2, 63, 100
4, 180660, Note_on_c, 2, 63, 0
4, 180660, Note_on_c, 2, 55, 0
4, 180660, Note_on_c, 2, 58, 100
4, 180660, Note_on_c, 2, 67, 100
4, 180690, Note_on_c, 2, 67, 0
4, 180690, Note_on_c, 2, 58, 0
4, 180690, Note_on_c, 2, 58, 100
4, 180690, Note_on_c, 2, 67, 100
4, 180720, Note_on_c, 2, 67, 0
4, 180720, Note_on_c, 2, 58, 0
4, 180720, Note_on_c, 2, 55, 100
4, 180720, Note_on_c, 2, 63, 100
4, 180750, Note_on_c, 2, 63, 0
4, 180750, Note_on_c, 2, 55, 0
4, 180750, Note_on_c, 2, 55, 100
4, 180750, Note_on_c, 2, 63, 100
4, 180780, Note_on_c, 2, 63, 0
4, 180780, Note_on_c, 2, 55, 0
4, 180780, Note_on_c, 2, 58, 100
4, 180780, Note_on_c, 2, 67, 100
4, 180810, Note_on_c, 2, 67, 0
4, 180810, Note_on_c, 2, 58, 0
4, 180810, Note_on_c, 2, 58, 100
4, 180810, Note_on_c, 2, 67, 100
4, 180840, Note_on_c, 2, 67, 0
4, 180840, Note_on_c, 2, 58, 0
4, 180840, Note_on_c, 2, 55, 100
4, 180840, Note_on_c, 2, 63, 100
4, 180870, Note_on_c, 2, 63, 0
4, 180870, Note_on_c, 2, 55, 0
4, 180870, Note_on_c, 2, 55, 100
4, 180870, Note_on_c, 2, 63, 100
4, 180900, Note_on_c, 2, 63, 0
4, 180900, Note_on_c, 2, 55, 0
4, 180900, Note_on_c, 2, 58, 100
4, 180900, Note_on_c, 2, 67, 100
4, 180930, Note_on_c, 2, 67, 0
4, 180930, Note_on_c, 2, 58, 0
4, 180930, Note_on_c, 2, 58, 100
4, 180930, Note_on_c, 2, 67, 100
4, 180960, Note_on_c, 2, 67, 0
4, 180960, Note_on_c, 2, 58, 0
4, 180960, Note_on_c, 2, 55, 100
4, 180960, Note_on_c, 2, 63, 100
4, 181140, Note_on_c, 2, 63, 0
4, 181140, Note_on_c, 2, 55, 0
4, 181140, Note_on_c, 2, 63, 100
4, 181170, Note_on_c, 2, 63, 0
4, 181170, Note_on_c, 2, 65, 100
4, 181200, Note_on_c, 2, 65, 0
4, 181200, Note_on_c, 2, 67, 100
4, 181260, Note_on_c, 2, 67, 0
4, 181290, Note_on_c, 2, 67, 100
4, 181305, Note_on_c, 2, 67, 0
4, 181305, Note_on_c, 2, 68, 100
4, 181320, Note_on_c, 2, 68, 0
4, 181320, Note_on_c, 2, 70, 100
4, 181380, Note_on_c, 2, 70, 0
4, 181410, Note_on_c, 2, 70, 100
4, 181420, Note_on_c, 2, 70, 0
4, 181420, Note_on_c, 2, 72, 100
4, 181430, Note_on_c, 2, 72, 0
4, 181430, Note_on_c, 2, 74, 100
4, 181440, Note_on_c, 2, 74, 0
4, 181440, Note_on_c, 2, 75, 100
4, 181470, Note_on_c, 2, 75, 0
4, 181470, Note_on_c, 2, 75, 100
4, 181500, Note_on_c, 2, 75, 0
4, 181500, Note_on_c, 2, 75, 100
4, 181530, Note_on_c, 2, 75, 0
4, 181530, Note_on_c, 2, 75, 100
4, 181560, Note_on_c, 2, 75, 0
4, 181560, Note_on_c, 2, 79, 100
4, 181590, Note_on_c, 2, 79, 0
4, 181590, Note_on_c, 2, 79, 100
4, 181620, Note_on_c, 2, 79, 0
4, 181620, Note_on_c, 2, 79, 100
4, 181650, Note_on_c, 2, 79, 0
4, 181650, Note_on_c, 2, 79, 100
4, 181680, Note_on_c, 2, 79, 0
4, 181680, Note_on_c, 2, 82, 100
4, 181710, Note_on_c, 2, 82, 0
4, 181710, Note_on_c, 2, 82, 100
4, 181740, Note_on_c, 2, 82, 0
4, 181740, Note_on_c, 2, 82, 100
4, 181770, Note_on_c, 2, 82, 0
4, 181770, Note_on_c, 2, 82, 100
4, 181800, Note_on_c, 2, 82, 0
4, 181800, Note_on_c, 2, 79, 100
4, 181830, Note_on_c, 2, 79, 0
4, 181830, Note_on_c, 2, 79, 100
4, 181860, Note_on_c, 2, 79, 0
4, 181860, Note_on_c, 2, 79, 100
4, 181890, Note_on_c, 2, 79, 0
4, 181890, Note_on_c, 2, 79, 100
4, 181920, Note_on_c, 2, 79, 0
4, 181920, Note_on_c, 2, 75, 100
4, 182040, Note_on_c, 2, 75, 0
4, 182040, Note_on_c, 2, 63, 100
4, 182040, Note_on_c, 2, 70, 100
4, 182040, Note_on_c, 2, 79, 100
4, 182160, Note_on_c, 2, 79, 0
4, 182160, Note_on_c, 2, 70, 0
4, 182160, Note_on_c, 2, 63, 0
4, 182160, Note_on_c, 2, 63, 100
4, 182160, Note_on_c, 2, 70, 100
4, 182160, Note_on_c, 2, 79, 100
4, 182280, Note_on_c, 2, 79, 0
4, 182280, Note_on_c, 2, 70, 0
4, 182280, Note_on_c, 2, 63, 0
4, 182280, Note_on_c, 2, 63, 100
4, 182280, Note_on_c, 2, 70, 100
4, 182280, Note_on_c, 2, 79, 100
4, 182400, Note_on_c, 2, 79, 0
4, 182400, Note_on_c, 2, 70, 0
4, 182400, Note_on_c, 2, 63, 0
4, 182400, Note_on_c, 2, 63, 100
4, 182400, Note_on_c, 2, 70, 100
4, 182400, Note_on_c, 2, 79, 100
4, 182520, Note_on_c, 2, 79, 0
4, 182520, Note_on_c, 2, 70, 0
4, 182520, Note_on_c, 2, 63, 0
4, 182610, Note_on_c, 2, 55, 100
4, 182610, Note_on_c, 2, 63, 100
4, 182640, Note_on_c, 2, 63, 0
4, 182640, Note_on_c, 2, 55, 0
4, 182640, Note_on_c, 2, 55, 100
4, 182640, Note_on_c, 2, 63, 100
4, 182760, Note_on_c, 2, 63, 0
4, 182760, Note_on_c, 2, 55, 0
4, 182850, Note_on_c, 2, 55, 100
4, 182850, Note_on_c, 2, 63, 100
4, 182880, Note_on_c, 2, 63, 0
4, 182880, Note_on_c, 2, 55, 0
4, 182880, Note_on_c, 2, 55, 100
4, 182880, Note_on_c, 2, 63, 100
4, 183120, Note_on_c, 2, 63, 0
4, 183120, Note_on_c, 2, 55, 0
4, 183120, End_track
5, 0, Start_track
5, 0, MIDI_port, 0
5, 0, Title_t, "Viola principale"
5, 0, Program_c, 3, 41
5, 0, Note_on_c, 3, 63, 100
5, 0, Note_on_c, 3, 58, 100
5, 480, Note_on_c, 3, 58, 0
5, 480, Note_on_c, 3, 63, 0
5, 480, Note_on_c, 3, 58, 100
5, 480, Note_on_c, 3, 63, 100
5, 720, Note_on_c, 3, 63, 0
5, 720, Note_on_c, 3, 58, 0
5, 720, Note_on_c, 3, 58, 100
5, 720, Note_on_c, 3, 63, 100
5, 900, Note_on_c, 3, 63, 0
5, 900, Note_on_c, 3, 58, 0
5, 900, Note_on_c, 3, 58, 100
5, 900, Note_on_c, 3, 63, 100
5, 960, Note_on_c, 3, 63, 0
5, 960, Note_on_c, 3, 58, 0
5, 960, Note_on_c, 3, 58, 100
5, 960, Note_on_c, 3, 63, 100
5, 1080, Note_on_c, 3, 63, 0
5, 1080, Note_on_c, 3, 58, 0
5, 2040, Note_on_c, 3, 65, 100
5, 2280, Note_on_c, 3, 65, 0
5, 2280, Note_on_c, 3, 65, 100
5, 2520, Note_on_c, 3, 65, 0
5, 2520, Note_on_c, 3, 65, 100
5, 2760, Note_on_c, 3, 65, 0
5, 2760, Note_on_c, 3, 65, 100
5, 2880, Note_on_c, 3, 65, 0
5, 2880, Note_on_c, 3, 67, 100
5, 3000, Note_on_c, 3, 67, 0
5, 3960, Note_on_c, 3, 65, 100
5, 4200, Note_on_c, 3, 65, 0
5, 4200, Note_on_c, 3, 65, 100
5, 4440, Note_on_c, 3, 65, 0
5, 4440, Note_on_c, 3, 65, 100
5, 4680, Note_on_c, 3, 65, 0
5, 4680, Note_on_c, 3, 65, 100
5, 4800, Note_on_c, 3, 65, 0
5, 4800, Note_on_c, 3, 67, 100
5, 4920, Note_on_c, 3, 67, 0
5, 6240, Note_on_c, 3, 68, 100
5, 6420, Note_on_c, 3, 68, 0
5, 6420, Note_on_c, 3, 67, 100
5, 6480, Note_on_c, 3, 67, 0
5, 6480, Note_on_c, 3, 65, 100
5, 6600, Note_on_c, 3, 65, 0
5, 6600, Note_on_c, 3, 65, 100
5, 6720, Note_on_c, 3, 65, 0
5, 6720, Note_on_c, 3, 70, 100
5, 6900, Note_on_c, 3, 70, 0
5, 6900, Note_on_c, 3, 68, 100
5, 6960, Note_on_c, 3, 68, 0
5, 6960, Note_on_c, 3, 67, 100
5, 7080, Note_on_c, 3, 67, 0
5, 7200, Note_on_c, 3, 63, 100
5, 7440, Note_on_c, 3, 63, 0
5, 7440, Note_on_c, 3, 61, 100
5, 7680, Note_on_c, 3, 61, 0
5, 7680, Note_on_c, 3, 60, 100
5, 7920, Note_on_c, 3, 60, 0
5, 7920, Note_on_c, 3, 58, 100
5, 8160, Note_on_c, 3, 58, 0
5, 8160, Note_on_c, 3, 56, 100
5, 8400, Note_on_c, 3, 56, 0
5, 8400, Note_on_c, 3, 55, 100
5, 8520, Note_on_c, 3, 55, 0
5, 8520, Note_on_c, 3, 53, 100
5, 8640, Note_on_c, 3, 53, 0
5, 8640, Note_on_c, 3, 51, 100
5, 8760, Note_on_c, 3, 51, 0
5, 10080, Note_on_c, 3, 68, 100
5, 10260, Note_on_c, 3, 68, 0
5, 10260, Note_on_c, 3, 67, 100
5, 10320, Note_on_c, 3, 67, 0
5, 10320, Note_on_c, 3, 65, 100
5, 10440, Note_on_c, 3, 65, 0
5, 10440, Note_on_c, 3, 65, 100
5, 10560, Note_on_c, 3, 65, 0
5, 10560, Note_on_c, 3, 70, 100
5, 10740, Note_on_c, 3, 70, 0
5, 10740, Note_on_c, 3, 68, 100
5, 10800, Note_on_c, 3, 68, 0
5, 10800, Note_on_c, 3, 67, 100
5, 10920, Note_on_c, 3, 67, 0
5, 11040, Note_on_c, 3, 63, 100
5, 11280, Note_on_c, 3, 63, 0
5, 11280, Note_on_c, 3, 61, 100
5, 11520, Note_on_c, 3, 61, 0
5, 11520, Note_on_c, 3, 60, 100
5, 11760, Note_on_c, 3, 60, 0
5, 11760, Note_on_c, 3, 58, 100
5, 12000, Note_on_c, 3, 58, 0
5, 12000, Note_on_c, 3, 56, 100
5, 12240, Note_on_c, 3, 56, 0
5, 12240, Note_on_c, 3, 55, 100
5, 12360, Note_on_c, 3, 55, 0
5, 12360, Note_on_c, 3, 53, 100
5, 12480, Note_on_c, 3, 53, 0
5, 12480, Note_on_c, 3, 51, 100
5, 12540, Note_on_c, 3, 51, 0
5, 12540, Note_on_c, 3, 55, 100
5, 12600, Note_on_c, 3, 55, 0
5, 12600, Note_on_c, 3, 58, 100
5, 12660, Note_on_c, 3, 58, 0
5, 12660, Note_on_c, 3, 55, 100
5, 12720, Note_on_c, 3, 55, 0
5, 12720, Note_on_c, 3, 51, 100
5, 12780, Note_on_c, 3, 51, 0
5, 12780, Note_on_c, 3, 51, 100
5, 12840, Note_on_c, 3, 51, 0
5, 12840, Note_on_c, 3, 51, 100
5, 12900, Note_on_c, 3, 51, 0
5, 12900, Note_on_c, 3, 51, 100
5, 12960, Note_on_c, 3, 51, 0
5, 12960, Note_on_c, 3, 50, 100
5, 13020, Note_on_c, 3, 50, 0
5, 13020, Note_on_c, 3, 53, 100
5, 13080, Note_on_c, 3, 53, 0
5, 13080, Note_on_c, 3, 58, 100
5, 13140, Note_on_c, 3, 58, 0
5, 13140, Note_on_c, 3, 53, 100
5, 13200, Note_on_c, 3, 53, 0
5, 13200, Note_on_c, 3, 50, 100
5, 13260, Note_on_c, 3, 50, 0
5, 13260, Note_on_c, 3, 50, 100
5, 13320, Note_on_c, 3, 50, 0
5, 13320, Note_on_c, 3, 50, 100
5, 13380, Note_on_c, 3, 50, 0
5, 13380, Note_on_c, 3, 50, 100
5, 13440, Note_on_c, 3, 50, 0
5, 13440, Note_on_c, 3, 60, 100
5, 13500, Note_on_c, 3, 60, 0
5, 13500, Note_on_c, 3, 63, 100
5, 13560, Note_on_c, 3, 63, 0
5, 13560, Note_on_c, 3, 67, 100
5, 13620, Note_on_c, 3, 67, 0
5, 13620, Note_on_c, 3, 63, 100
5, 13680, Note_on_c, 3, 63, 0
5, 13680, Note_on_c, 3, 60, 100
5, 13740, Note_on_c, 3, 60, 0
5, 13740, Note_on_c, 3, 60, 100
5, 13800, Note_on_c, 3, 60, 0
5, 13800, Note_on_c, 3, 60, 100
5, 13860, Note_on_c, 3, 60, 0
5, 13860, Note_on_c, 3, 60, 100
5, 13920, Note_on_c, 3, 60, 0
5, 13920, Note_on_c, 3, 58, 100
5, 13980, Note_on_c, 3, 58, 0
5, 13980, Note_on_c, 3, 58, 100
5, 14100, Note_on_c, 3, 58, 0
5, 14100, Note_on_c, 3, 58, 100
5, 14160, Note_on_c, 3, 58, 0
5, 14160, Note_on_c, 3, 68, 100
5, 14220, Note_on_c, 3, 68, 0
5, 14220, Note_on_c, 3, 68, 100
5, 14340, Note_on_c, 3, 68, 0
5, 14340, Note_on_c, 3, 68, 100
5, 14400, Note_on_c, 3, 68, 0
5, 14400, Note_on_c, 3, 67, 100
5, 14460, Note_on_c, 3, 67, 0
5, 14460, Note_on_c, 3, 67, 100
5, 14580, Note_on_c, 3, 67, 0
5, 14580, Note_on_c, 3, 67, 100
5, 14700, Note_on_c, 3, 67, 0
5, 14700, Note_on_c, 3, 67, 100
5, 14820, Note_on_c, 3, 67, 0
5, 14820, Note_on_c, 3, 67, 100
5, 14880, Note_on_c, 3, 67, 0
5, 14880, Note_on_c, 3, 65, 100
5, 14910, Note_on_c, 3, 65, 0
5, 14910, Note_on_c, 3, 65, 100
5, 14940, Note_on_c, 3, 65, 0
5, 14940, Note_on_c, 3, 65, 100
5, 14970, Note_on_c, 3, 65, 0
5, 14970, Note_on_c, 3, 65, 100
5, 15000, Note_on_c, 3, 65, 0
5, 15000, Note_on_c, 3, 65, 100
5, 15030, Note_on_c, 3, 65, 0
5, 15030, Note_on_c, 3, 65, 100
5, 15060, Note_on_c, 3, 65, 0
5, 15060, Note_on_c, 3, 65, 100
5, 15090, Note_on_c, 3, 65, 0
5, 15090, Note_on_c, 3, 65, 100
5, 15120, Note_on_c, 3, 65, 0
5, 15120, Note_on_c, 3, 68, 100
5, 15150, Note_on_c, 3, 68, 0
5, 15150, Note_on_c, 3, 68, 100
5, 15180, Note_on_c, 3, 68, 0
5, 15180, Note_on_c, 3, 68, 100
5, 15210, Note_on_c, 3, 68, 0
5, 15210, Note_on_c, 3, 68, 100
5, 15240, Note_on_c, 3, 68, 0
5, 15240, Note_on_c, 3, 68, 100
5, 15270, Note_on_c, 3, 68, 0
5, 15270, Note_on_c, 3, 68, 100
5, 15300, Note_on_c, 3, 68, 0
5, 15300, Note_on_c, 3, 68, 100
5, 15330, Note_on_c, 3, 68, 0
5, 15330, Note_on_c, 3, 68, 100
5, 15360, Note_on_c, 3, 68, 0
5, 15360, Note_on_c, 3, 67, 100
5, 15390, Note_on_c, 3, 67, 0
5, 15390, Note_on_c, 3, 67, 100
5, 15420, Note_on_c, 3, 67, 0
5, 15420, Note_on_c, 3, 67, 100
5, 15450, Note_on_c, 3, 67, 0
5, 15450, Note_on_c, 3, 67, 100
5, 15480, Note_on_c, 3, 67, 0
5, 15480, Note_on_c, 3, 67, 100
5, 15510, Note_on_c, 3, 67, 0
5, 15510, Note_on_c, 3, 67, 100
5, 15540, Note_on_c, 3, 67, 0
5, 15540, Note_on_c, 3, 67, 100
5, 15570, Note_on_c, 3, 67, 0
5, 15570, Note_on_c, 3, 67, 100
5, 15600, Note_on_c, 3, 67, 0
5, 15600, Note_on_c, 3, 67, 100
5, 15630, Note_on_c, 3, 67, 0
5, 15630, Note_on_c, 3, 67, 100
5, 15660, Note_on_c, 3, 67, 0
5, 15660, Note_on_c, 3, 67, 100
5, 15690, Note_on_c, 3, 67, 0
5, 15690, Note_on_c, 3, 67, 100
5, 15720, Note_on_c, 3, 67, 0
5, 15720, Note_on_c, 3, 67, 100
5, 15750, Note_on_c, 3, 67, 0
5, 15750, Note_on_c, 3, 67, 100
5, 15780, Note_on_c, 3, 67, 0
5, 15780, Note_on_c, 3, 67, 100
5, 15810, Note_on_c, 3, 67, 0
5, 15810, Note_on_c, 3, 67, 100
5, 15840, Note_on_c, 3, 67, 0
5, 15840, Note_on_c, 3, 65, 100
5, 15960, Note_on_c, 3, 65, 0
5, 15960, Note_on_c, 3, 67, 100
5, 16050, Note_on_c, 3, 67, 0
5, 16050, Note_on_c, 3, 67, 100
5, 16080, Note_on_c, 3, 67, 0
5, 16080, Note_on_c, 3, 65, 100
5, 16200, Note_on_c, 3, 65, 0
5, 16200, Note_on_c, 3, 67, 100
5, 16290, Note_on_c, 3, 67, 0
5, 16290, Note_on_c, 3, 67, 100
5, 16320, Note_on_c, 3, 67, 0
5, 16320, Note_on_c, 3, 65, 100
5, 16440, Note_on_c, 3, 65, 0
5, 16530, Note_on_c, 3, 58, 100
5, 16560, Note_on_c, 3, 58, 0
5, 16560, Note_on_c, 3, 58, 100
5, 16680, Note_on_c, 3, 58, 0
5, 16680, Note_on_c, 3, 58, 100
5, 16800, Note_on_c, 3, 58, 0
5, 16800, Note_on_c, 3, 58, 100
5, 16920, Note_on_c, 3, 58, 0
5, 17760, Note_on_c, 3, 63, 100
5, 17820, Note_on_c, 3, 63, 0
5, 17820, Note_on_c, 3, 67, 100
5, 17880, Note_on_c, 3, 67, 0
5, 17880, Note_on_c, 3, 63, 100
5, 17940, Note_on_c, 3, 63, 0
5, 17940, Note_on_c, 3, 67, 100
5, 18000, Note_on_c, 3, 67, 0
5, 18000, Note_on_c, 3, 63, 100
5, 18060, Note_on_c, 3, 63, 0
5, 18060, Note_on_c, 3, 67, 100
5, 18120, Note_on_c, 3, 67, 0
5, 18120, Note_on_c, 3, 63, 100
5, 18180, Note_on_c, 3, 63, 0
5, 18180, Note_on_c, 3, 67, 100
5, 18240, Note_on_c, 3, 67, 0
5, 18240, Note_on_c, 3, 63, 100
5, 18300, Note_on_c, 3, 63, 0
5, 18300, Note_on_c, 3, 67, 100
5, 18360, Note_on_c, 3, 67, 0
5, 18360, Note_on_c, 3, 63, 100
5, 18420, Note_on_c, 3, 63, 0
5, 18420, Note_on_c, 3, 67, 100
5, 18480, Note_on_c, 3, 67, 0
5, 18480, Note_on_c, 3, 63, 100
5, 18540, Note_on_c, 3, 63, 0
5, 18540, Note_on_c, 3, 67, 100
5, 18600, Note_on_c, 3, 67, 0
5, 18600, Note_on_c, 3, 63, 100
5, 18660, Note_on_c, 3, 63, 0
5, 18660, Note_on_c, 3, 67, 100
5, 18720, Note_on_c, 3, 67, 0
5, 18720, Note_on_c, 3, 62, 100
5, 18780, Note_on_c, 3, 62, 0
5, 18780, Note_on_c, 3, 65, 100
5, 18840, Note_on_c, 3, 65, 0
5, 18840, Note_on_c, 3, 62, 100
5, 18900, Note_on_c, 3, 62, 0
5, 18900, Note_on_c, 3, 65, 100
5, 18960, Note_on_c, 3, 65, 0
5, 18960, Note_on_c, 3, 63, 100
5, 19020, Note_on_c, 3, 63, 0
5, 19020, Note_on_c, 3, 67, 100
5, 19080, Note_on_c, 3, 67, 0
5, 19080, Note_on_c, 3, 63, 100
5, 19140, Note_on_c, 3, 63, 0
5, 19140, Note_on_c, 3, 67, 100
5, 19200, Note_on_c, 3, 67, 0
5, 19200, Note_on_c, 3, 62, 100
5, 19260, Note_on_c, 3, 62, 0
5, 19260, Note_on_c, 3, 68, 100
5, 19320, Note_on_c, 3, 68, 0
5, 19320, Note_on_c, 3, 62, 100
5, 19380, Note_on_c, 3, 62, 0
5, 19380, Note_on_c, 3, 68, 100
5, 19440, Note_on_c, 3, 68, 0
5, 19440, Note_on_c, 3, 62, 100
5, 19500, Note_on_c, 3, 62, 0
5, 19500, Note_on_c, 3, 68, 100
5, 19560, Note_on_c, 3, 68, 0
5, 19560, Note_on_c, 3, 62, 100
5, 19620, Note_on_c, 3, 62, 0
5, 19620, Note_on_c, 3, 68, 100
5, 19680, Note_on_c, 3, 68, 0
5, 19680, Note_on_c, 3, 63, 100
5, 19740, Note_on_c, 3, 63, 0
5, 19740, Note_on_c, 3, 67, 100
5, 19800, Note_on_c, 3, 67, 0
5, 19800, Note_on_c, 3, 63, 100
5, 19860, Note_on_c, 3, 63, 0
5, 19860, Note_on_c, 3, 67, 100
5, 19920, Note_on_c, 3, 67, 0
5, 19920, Note_on_c, 3, 63, 100
5, 19980, Note_on_c, 3, 63, 0
5, 19980, Note_on_c, 3, 67, 100
5, 20040, Note_on_c, 3, 67, 0
5, 20040, Note_on_c, 3, 63, 100
5, 20100, Note_on_c, 3, 63, 0
5, 20100, Note_on_c, 3, 67, 100
5, 20160, Note_on_c, 3, 67, 0
5, 20160, Note_on_c, 3, 63, 100
5, 20220, Note_on_c, 3, 63, 0
5, 20220, Note_on_c, 3, 67, 100
5, 20280, Note_on_c, 3, 67, 0
5, 20280, Note_on_c, 3, 63, 100
5, 20340, Note_on_c, 3, 63, 0
5, 20340, Note_on_c, 3, 67, 100
5, 20400, Note_on_c, 3, 67, 0
5, 20400, Note_on_c, 3, 63, 100
5, 20460, Note_on_c, 3, 63, 0
5, 20460, Note_on_c, 3, 67, 100
5, 20520, Note_on_c, 3, 67, 0
5, 20520, Note_on_c, 3, 63, 100
5, 20580, Note_on_c, 3, 63, 0
5, 20580, Note_on_c, 3, 67, 100
5, 20640, Note_on_c, 3, 67, 0
5, 20640, Note_on_c, 3, 62, 100
5, 20700, Note_on_c, 3, 62, 0
5, 20700, Note_on_c, 3, 65, 100
5, 20760, Note_on_c, 3, 65, 0
5, 20760, Note_on_c, 3, 62, 100
5, 20820, Note_on_c, 3, 62, 0
5, 20820, Note_on_c, 3, 65, 100
5, 20880, Note_on_c, 3, 65, 0
5, 20880, Note_on_c, 3, 63, 100
5, 20940, Note_on_c, 3, 63, 0
5, 20940, Note_on_c, 3, 67, 100
5, 21000, Note_on_c, 3, 67, 0
5, 21000, Note_on_c, 3, 63, 100
5, 21060, Note_on_c, 3, 63, 0
5, 21060, Note_on_c, 3, 67, 100
5, 21120, Note_on_c, 3, 67, 0
5, 21120, Note_on_c, 3, 62, 100
5, 21180, Note_on_c, 3, 62, 0
5, 21180, Note_on_c, 3, 68, 100
5, 21240, Note_on_c, 3, 68, 0
5, 21240, Note_on_c, 3, 62, 100
5, 21300, Note_on_c, 3, 62, 0
5, 21300, Note_on_c, 3, 68, 100
5, 21360, Note_on_c, 3, 68, 0
5, 21360, Note_on_c, 3, 62, 100
5, 21420, Note_on_c, 3, 62, 0
5, 21420, Note_on_c, 3, 68, 100
5, 21480, Note_on_c, 3, 68, 0
5, 21480, Note_on_c, 3, 62, 100
5, 21540, Note_on_c, 3, 62, 0
5, 21540, Note_on_c, 3, 68, 100
5, 21600, Note_on_c, 3, 68, 0
5, 21600, Note_on_c, 3, 63, 100
5, 21630, Note_on_c, 3, 63, 0
5, 21630, Note_on_c, 3, 63, 100
5, 21660, Note_on_c, 3, 63, 0
5, 21660, Note_on_c, 3, 63, 100
5, 21690, Note_on_c, 3, 63, 0
5, 21690, Note_on_c, 3, 63, 100
5, 21720, Note_on_c, 3, 63, 0
5, 21720, Note_on_c, 3, 63, 100
5, 21750, Note_on_c, 3, 63, 0
5, 21750, Note_on_c, 3, 63, 100
5, 21780, Note_on_c, 3, 63, 0
5, 21780, Note_on_c, 3, 63, 100
5, 21810, Note_on_c, 3, 63, 0
5, 21810, Note_on_c, 3, 63, 100
5, 21840, Note_on_c, 3, 63, 0
5, 21840, Note_on_c, 3, 63, 100
5, 21870, Note_on_c, 3, 63, 0
5, 21870, Note_on_c, 3, 63, 100
5, 21900, Note_on_c, 3, 63, 0
5, 21900, Note_on_c, 3, 63, 100
5, 21930, Note_on_c, 3, 63, 0
5, 21930, Note_on_c, 3, 63, 100
5, 21960, Note_on_c, 3, 63, 0
5, 21960, Note_on_c, 3, 63, 100
5, 21990, Note_on_c, 3, 63, 0
5, 21990, Note_on_c, 3, 63, 100
5, 22020, Note_on_c, 3, 63, 0
5, 22020, Note_on_c, 3, 63, 100
5, 22050, Note_on_c, 3, 63, 0
5, 22050, Note_on_c, 3, 63, 100
5, 22080, Note_on_c, 3, 63, 0
5, 22080, Note_on_c, 3, 63, 100
5, 22110, Note_on_c, 3, 63, 0
5, 22110, Note_on_c, 3, 63, 100
5, 22140, Note_on_c, 3, 63, 0
5, 22140, Note_on_c, 3, 63, 100
5, 22170, Note_on_c, 3, 63, 0
5, 22170, Note_on_c, 3, 63, 100
5, 22200, Note_on_c, 3, 63, 0
5, 22200, Note_on_c, 3, 63, 100
5, 22230, Note_on_c, 3, 63, 0
5, 22230, Note_on_c, 3, 63, 100
5, 22260, Note_on_c, 3, 63, 0
5, 22260, Note_on_c, 3, 63, 100
5, 22290, Note_on_c, 3, 63, 0
5, 22290, Note_on_c, 3, 63, 100
5, 22320, Note_on_c, 3, 63, 0
5, 22320, Note_on_c, 3, 63, 100
5, 22350, Note_on_c, 3, 63, 0
5, 22350, Note_on_c, 3, 63, 100
5, 22380, Note_on_c, 3, 63, 0
5, 22380, Note_on_c, 3, 63, 100
5, 22410, Note_on_c, 3, 63, 0
5, 22410, Note_on_c, 3, 63, 100
5, 22440, Note_on_c, 3, 63, 0
5, 22440, Note_on_c, 3, 63, 100
5, 22470, Note_on_c, 3, 63, 0
5, 22470, Note_on_c, 3, 63, 100
5, 22500, Note_on_c, 3, 63, 0
5, 22500, Note_on_c, 3, 63, 100
5, 22530, Note_on_c, 3, 63, 0
5, 22530, Note_on_c, 3, 63, 100
5, 22560, Note_on_c, 3, 63, 0
5, 22560, Note_on_c, 3, 63, 100
5, 22590, Note_on_c, 3, 63, 0
5, 22590, Note_on_c, 3, 63, 100
5, 22620, Note_on_c, 3, 63, 0
5, 22620, Note_on_c, 3, 63, 100
5, 22650, Note_on_c, 3, 63, 0
5, 22650, Note_on_c, 3, 63, 100
5, 22680, Note_on_c, 3, 63, 0
5, 22680, Note_on_c, 3, 63, 100
5, 22710, Note_on_c, 3, 63, 0
5, 22710, Note_on_c, 3, 63, 100
5, 22740, Note_on_c, 3, 63, 0
5, 22740, Note_on_c, 3, 63, 100
5, 22770, Note_on_c, 3, 63, 0
5, 22770, Note_on_c, 3, 63, 100
5, 22800, Note_on_c, 3, 63, 0
5, 22800, Note_on_c, 3, 63, 100
5, 22830, Note_on_c, 3, 63, 0
5, 22830, Note_on_c, 3, 63, 100
5, 22860, Note_on_c, 3, 63, 0
5, 22860, Note_on_c, 3, 63, 100
5, 22890, Note_on_c, 3, 63, 0
5, 22890, Note_on_c, 3, 63, 100
5, 22920, Note_on_c, 3, 63, 0
5, 22920, Note_on_c, 3, 63, 100
5, 22950, Note_on_c, 3, 63, 0
5, 22950, Note_on_c, 3, 63, 100
5, 22980, Note_on_c, 3, 63, 0
5, 22980, Note_on_c, 3, 63, 100
5, 23010, Note_on_c, 3, 63, 0
5, 23010, Note_on_c, 3, 63, 100
5, 23040, Note_on_c, 3, 63, 0
5, 23040, Note_on_c, 3, 63, 100
5, 23070, Note_on_c, 3, 63, 0
5, 23070, Note_on_c, 3, 63, 100
5, 23100, Note_on_c, 3, 63, 0
5, 23100, Note_on_c, 3, 63, 100
5, 23130, Note_on_c, 3, 63, 0
5, 23130, Note_on_c, 3, 63, 100
5, 23160, Note_on_c, 3, 63, 0
5, 23160, Note_on_c, 3, 63, 100
5, 23190, Note_on_c, 3, 63, 0
5, 23190, Note_on_c, 3, 63, 100
5, 23220, Note_on_c, 3, 63, 0
5, 23220, Note_on_c, 3, 63, 100
5, 23250, Note_on_c, 3, 63, 0
5, 23250, Note_on_c, 3, 63, 100
5, 23280, Note_on_c, 3, 63, 0
5, 23280, Note_on_c, 3, 63, 100
5, 23310, Note_on_c, 3, 63, 0
5, 23310, Note_on_c, 3, 63, 100
5, 23340, Note_on_c, 3, 63, 0
5, 23340, Note_on_c, 3, 63, 100
5, 23370, Note_on_c, 3, 63, 0
5, 23370, Note_on_c, 3, 63, 100
5, 23400, Note_on_c, 3, 63, 0
5, 23400, Note_on_c, 3, 63, 100
5, 23430, Note_on_c, 3, 63, 0
5, 23430, Note_on_c, 3, 63, 100
5, 23460, Note_on_c, 3, 63, 0
5, 23460, Note_on_c, 3, 63, 100
5, 23490, Note_on_c, 3, 63, 0
5, 23490, Note_on_c, 3, 63, 100
5, 23520, Note_on_c, 3, 63, 0
5, 23520, Note_on_c, 3, 63, 100
5, 23550, Note_on_c, 3, 63, 0
5, 23550, Note_on_c, 3, 63, 100
5, 23580, Note_on_c, 3, 63, 0
5, 23580, Note_on_c, 3, 63, 100
5, 23610, Note_on_c, 3, 63, 0
5, 23610, Note_on_c, 3, 63, 100
5, 23640, Note_on_c, 3, 63, 0
5, 23640, Note_on_c, 3, 63, 100
5, 23670, Note_on_c, 3, 63, 0
5, 23670, Note_on_c, 3, 63, 100
5, 23700, Note_on_c, 3, 63, 0
5, 23700, Note_on_c, 3, 63, 100
5, 23730, Note_on_c, 3, 63, 0
5, 23730, Note_on_c, 3, 63, 100
5, 23760, Note_on_c, 3, 63, 0
5, 23760, Note_on_c, 3, 61, 100
5, 23790, Note_on_c, 3, 61, 0
5, 23790, Note_on_c, 3, 61, 100
5, 23820, Note_on_c, 3, 61, 0
5, 23820, Note_on_c, 3, 61, 100
5, 23850, Note_on_c, 3, 61, 0
5, 23850, Note_on_c, 3, 61, 100
5, 23880, Note_on_c, 3, 61, 0
5, 23880, Note_on_c, 3, 61, 100
5, 23910, Note_on_c, 3, 61, 0
5, 23910, Note_on_c, 3, 61, 100
5, 23940, Note_on_c, 3, 61, 0
5, 23940, Note_on_c, 3, 61, 100
5, 23970, Note_on_c, 3, 61, 0
5, 23970, Note_on_c, 3, 61, 100
5, 24000, Note_on_c, 3, 61, 0
5, 24000, Note_on_c, 3, 60, 100
5, 24030, Note_on_c, 3, 60, 0
5, 24030, Note_on_c, 3, 60, 100
5, 24060, Note_on_c, 3, 60, 0
5, 24060, Note_on_c, 3, 60, 100
5, 24090, Note_on_c, 3, 60, 0
5, 24090, Note_on_c, 3, 60, 100
5, 24120, Note_on_c, 3, 60, 0
5, 24120, Note_on_c, 3, 60, 100
5, 24150, Note_on_c, 3, 60, 0
5, 24150, Note_on_c, 3, 60, 100
5, 24180, Note_on_c, 3, 60, 0
5, 24180, Note_on_c, 3, 60, 100
5, 24210, Note_on_c, 3, 60, 0
5, 24210, Note_on_c, 3, 60, 100
5, 24240, Note_on_c, 3, 60, 0
5, 24240, Note_on_c, 3, 56, 100
5, 24270, Note_on_c, 3, 56, 0
5, 24270, Note_on_c, 3, 56, 100
5, 24300, Note_on_c, 3, 56, 0
5, 24300, Note_on_c, 3, 56, 100
5, 24330, Note_on_c, 3, 56, 0
5, 24330, Note_on_c, 3, 56, 100
5, 24360, Note_on_c, 3, 56, 0
5, 24360, Note_on_c, 3, 56, 100
5, 24390, Note_on_c, 3, 56, 0
5, 24390, Note_on_c, 3, 56, 100
5, 24420, Note_on_c, 3, 56, 0
5, 24420, Note_on_c, 3, 56, 100
5, 24450, Note_on_c, 3, 56, 0
5, 24450, Note_on_c, 3, 56, 100
5, 24480, Note_on_c, 3, 56, 0
5, 24480, Note_on_c, 3, 55, 100
5, 24510, Note_on_c, 3, 55, 0
5, 24510, Note_on_c, 3, 55, 100
5, 24540, Note_on_c, 3, 55, 0
5, 24540, Note_on_c, 3, 55, 100
5, 24570, Note_on_c, 3, 55, 0
5, 24570, Note_on_c, 3, 55, 100
5, 24600, Note_on_c, 3, 55, 0
5, 24600, Note_on_c, 3, 55, 100
5, 24630, Note_on_c, 3, 55, 0
5, 24630, Note_on_c, 3, 55, 100
5, 24660, Note_on_c, 3, 55, 0
5, 24660, Note_on_c, 3, 55, 100
5, 24690, Note_on_c, 3, 55, 0
5, 24690, Note_on_c, 3, 55, 100
5, 24720, Note_on_c, 3, 55, 0
5, 24720, Note_on_c, 3, 58, 100
5, 24750, Note_on_c, 3, 58, 0
5, 24750, Note_on_c, 3, 58, 100
5, 24780, Note_on_c, 3, 58, 0
5, 24780, Note_on_c, 3, 58, 100
5, 24810, Note_on_c, 3, 58, 0
5, 24810, Note_on_c, 3, 58, 100
5, 24840, Note_on_c, 3, 58, 0
5, 24840, Note_on_c, 3, 58, 100
5, 24870, Note_on_c, 3, 58, 0
5, 24870, Note_on_c, 3, 58, 100
5, 24900, Note_on_c, 3, 58, 0
5, 24900, Note_on_c, 3, 58, 100
5, 24930, Note_on_c, 3, 58, 0
5, 24930, Note_on_c, 3, 58, 100
5, 24960, Note_on_c, 3, 58, 0
5, 24960, Note_on_c, 3, 56, 100
5, 24990, Note_on_c, 3, 56, 0
5, 24990, Note_on_c, 3, 56, 100
5, 25020, Note_on_c, 3, 56, 0
5, 25020, Note_on_c, 3, 56, 100
5, 25050, Note_on_c, 3, 56, 0
5, 25050, Note_on_c, 3, 56, 100
5, 25080, Note_on_c, 3, 56, 0
5, 25080, Note_on_c, 3, 56, 100
5, 25110, Note_on_c, 3, 56, 0
5, 25110, Note_on_c, 3, 56, 100
5, 25140, Note_on_c, 3, 56, 0
5, 25140, Note_on_c, 3, 56, 100
5, 25170, Note_on_c, 3, 56, 0
5, 25170, Note_on_c, 3, 56, 100
5, 25200, Note_on_c, 3, 56, 0
5, 25200, Note_on_c, 3, 60, 100
5, 25230, Note_on_c, 3, 60, 0
5, 25230, Note_on_c, 3, 60, 100
5, 25260, Note_on_c, 3, 60, 0
5, 25260, Note_on_c, 3, 60, 100
5, 25290, Note_on_c, 3, 60, 0
5, 25290, Note_on_c, 3, 60, 100
5, 25320, Note_on_c, 3, 60, 0
5, 25320, Note_on_c, 3, 60, 100
5, 25350, Note_on_c, 3, 60, 0
5, 25350, Note_on_c, 3, 60, 100
5, 25380, Note_on_c, 3, 60, 0
5, 25380, Note_on_c, 3, 60, 100
5, 25410, Note_on_c, 3, 60, 0
5, 25410, Note_on_c, 3, 60, 100
5, 25440, Note_on_c, 3, 60, 0
5, 25440, Note_on_c, 3, 58, 100
5, 25470, Note_on_c, 3, 58, 0
5, 25470, Note_on_c, 3, 58, 100
5, 25500, Note_on_c, 3, 58, 0
5, 25500, Note_on_c, 3, 58, 100
5, 25530, Note_on_c, 3, 58, 0
5, 25530, Note_on_c, 3, 58, 100
5, 25560, Note_on_c, 3, 58, 0
5, 25560, Note_on_c, 3, 58, 100
5, 25590, Note_on_c, 3, 58, 0
5, 25590, Note_on_c, 3, 58, 100
5, 25620, Note_on_c, 3, 58, 0
5, 25620, Note_on_c, 3, 58, 100
5, 25650, Note_on_c, 3, 58, 0
5, 25650, Note_on_c, 3, 58, 100
5, 25680, Note_on_c, 3, 58, 0
5, 25680, Note_on_c, 3, 61, 100
5, 25710, Note_on_c, 3, 61, 0
5, 25710, Note_on_c, 3, 61, 100
5, 25740, Note_on_c, 3, 61, 0
5, 25740, Note_on_c, 3, 61, 100
5, 25770, Note_on_c, 3, 61, 0
5, 25770, Note_on_c, 3, 61, 100
5, 25800, Note_on_c, 3, 61, 0
5, 25800, Note_on_c, 3, 61, 100
5, 25830, Note_on_c, 3, 61, 0
5, 25830, Note_on_c, 3, 61, 100
5, 25860, Note_on_c, 3, 61, 0
5, 25860, Note_on_c, 3, 61, 100
5, 25890, Note_on_c, 3, 61, 0
5, 25890, Note_on_c, 3, 61, 100
5, 25920, Note_on_c, 3, 61, 0
5, 25920, Note_on_c, 3, 60, 100
5, 25950, Note_on_c, 3, 60, 0
5, 25950, Note_on_c, 3, 60, 100
5, 25980, Note_on_c, 3, 60, 0
5, 25980, Note_on_c, 3, 60, 100
5, 26010, Note_on_c, 3, 60, 0
5, 26010, Note_on_c, 3, 60, 100
5, 26040, Note_on_c, 3, 60, 0
5, 26040, Note_on_c, 3, 60, 100
5, 26070, Note_on_c, 3, 60, 0
5, 26070, Note_on_c, 3, 60, 100
5, 26100, Note_on_c, 3, 60, 0
5, 26100, Note_on_c, 3, 60, 100
5, 26130, Note_on_c, 3, 60, 0
5, 26130, Note_on_c, 3, 60, 100
5, 26160, Note_on_c, 3, 60, 0
5, 26160, Note_on_c, 3, 66, 100
5, 26190, Note_on_c, 3, 66, 0
5, 26190, Note_on_c, 3, 66, 100
5, 26220, Note_on_c, 3, 66, 0
5, 26220, Note_on_c, 3, 66, 100
5, 26250, Note_on_c, 3, 66, 0
5, 26250, Note_on_c, 3, 66, 100
5, 26280, Note_on_c, 3, 66, 0
5, 26280, Note_on_c, 3, 66, 100
5, 26310, Note_on_c, 3, 66, 0
5, 26310, Note_on_c, 3, 66, 100
5, 26340, Note_on_c, 3, 66, 0
5, 26340, Note_on_c, 3, 66, 100
5, 26370, Note_on_c, 3, 66, 0
5, 26370, Note_on_c, 3, 66, 100
5, 26400, Note_on_c, 3, 66, 0
5, 26400, Note_on_c, 3, 67, 100
5, 26430, Note_on_c, 3, 67, 0
5, 26430, Note_on_c, 3, 67, 100
5, 26460, Note_on_c, 3, 67, 0
5, 26460, Note_on_c, 3, 67, 100
5, 26490, Note_on_c, 3, 67, 0
5, 26490, Note_on_c, 3, 67, 100
5, 26520, Note_on_c, 3, 67, 0
5, 26520, Note_on_c, 3, 67, 100
5, 26550, Note_on_c, 3, 67, 0
5, 26550, Note_on_c, 3, 67, 100
5, 26580, Note_on_c, 3, 67, 0
5, 26580, Note_on_c, 3, 67, 100
5, 26610, Note_on_c, 3, 67, 0
5, 26610, Note_on_c, 3, 67, 100
5, 26640, Note_on_c, 3, 67, 0
5, 26640, Note_on_c, 3, 67, 100
5, 26670, Note_on_c, 3, 67, 0
5, 26670, Note_on_c, 3, 67, 100
5, 26700, Note_on_c, 3, 67, 0
5, 26700, Note_on_c, 3, 67, 100
5, 26730, Note_on_c, 3, 67, 0
5, 26730, Note_on_c, 3, 67, 100
5, 26760, Note_on_c, 3, 67, 0
5, 26760, Note_on_c, 3, 67, 100
5, 26790, Note_on_c, 3, 67, 0
5, 26790, Note_on_c, 3, 67, 100
5, 26820, Note_on_c, 3, 67, 0
5, 26820, Note_on_c, 3, 67, 100
5, 26850, Note_on_c, 3, 67, 0
5, 26850, Note_on_c, 3, 67, 100
5, 26880, Note_on_c, 3, 67, 0
5, 26880, Note_on_c, 3, 68, 100
5, 26910, Note_on_c, 3, 68, 0
5, 26910, Note_on_c, 3, 68, 100
5, 26940, Note_on_c, 3, 68, 0
5, 26940, Note_on_c, 3, 68, 100
5, 26970, Note_on_c, 3, 68, 0
5, 26970, Note_on_c, 3, 68, 100
5, 27000, Note_on_c, 3, 68, 0
5, 27000, Note_on_c, 3, 68, 100
5, 27030, Note_on_c, 3, 68, 0
5, 27030, Note_on_c, 3, 68, 100
5, 27060, Note_on_c, 3, 68, 0
5, 27060, Note_on_c, 3, 68, 100
5, 27090, Note_on_c, 3, 68, 0
5, 27090, Note_on_c, 3, 68, 100
5, 27120, Note_on_c, 3, 68, 0
5, 27120, Note_on_c, 3, 70, 100
5, 27150, Note_on_c, 3, 70, 0
5, 27150, Note_on_c, 3, 70, 100
5, 27180, Note_on_c, 3, 70, 0
5, 27180, Note_on_c, 3, 70, 100
5, 27210, Note_on_c, 3, 70, 0
5, 27210, Note_on_c, 3, 70, 100
5, 27240, Note_on_c, 3, 70, 0
5, 27240, Note_on_c, 3, 70, 100
5, 27270, Note_on_c, 3, 70, 0
5, 27270, Note_on_c, 3, 70, 100
5, 27300, Note_on_c, 3, 70, 0
5, 27300, Note_on_c, 3, 70, 100
5, 27330, Note_on_c, 3, 70, 0
5, 27330, Note_on_c, 3, 70, 100
5, 27360, Note_on_c, 3, 70, 0
5, 27360, Note_on_c, 3, 70, 100
5, 27600, Note_on_c, 3, 70, 0
5, 27600, Note_on_c, 3, 63, 100
5, 27780, Note_on_c, 3, 63, 0
5, 27780, Note_on_c, 3, 62, 100
5, 27810, Note_on_c, 3, 62, 0
5, 27810, Note_on_c, 3, 63, 100
5, 27840, Note_on_c, 3, 63, 0
5, 27840, Note_on_c, 3, 67, 100
5, 28080, Note_on_c, 3, 67, 0
5, 28080, Note_on_c, 3, 70, 100
5, 28320, Note_on_c, 3, 70, 0
5, 28320, Note_on_c, 3, 75, 100
5, 28560, Note_on_c, 3, 75, 0
5, 28560, Note_on_c, 3, 60, 100
5, 28740, Note_on_c, 3, 60, 0
5, 28740, Note_on_c, 3, 59, 100
5, 28770, Note_on_c, 3, 59, 0
5, 28770, Note_on_c, 3, 60, 100
5, 28800, Note_on_c, 3, 60, 0
5, 28800, Note_on_c, 3, 63, 100
5, 29040, Note_on_c, 3, 63, 0
5, 29040, Note_on_c, 3, 67, 100
5, 29280, Note_on_c, 3, 67, 0
5, 29280, Note_on_c, 3, 72, 100
5, 30240, Note_on_c, 3, 72, 0
5, 30240, Note_on_c, 3, 70, 100
5, 30480, Note_on_c, 3, 70, 0
5, 30480, Note_on_c, 3, 58, 100
5, 31320, Note_on_c, 3, 58, 0
5, 31680, Note_on_c, 3, 58, 100
5, 31680, Note_on_c, 3, 62, 100
5, 32160, Note_on_c, 3, 62, 0
5, 32160, Note_on_c, 3, 63, 100
5, 32280, Note_on_c, 3, 63, 0
5, 32280, Note_on_c, 3, 58, 0
5, 32640, Note_on_c, 3, 58, 100
5, 32640, Note_on_c, 3, 62, 100
5, 33120, Note_on_c, 3, 62, 0
5, 33120, Note_on_c, 3, 63, 100
5, 33240, Note_on_c, 3, 63, 0
5, 33240, Note_on_c, 3, 58, 0
5, 34065, Note_on_c, 3, 63, 100
5, 34080, Note_on_c, 3, 63, 0
5, 34080, Note_on_c, 3, 75, 100
5, 35100, Note_on_c, 3, 75, 0
5, 35100, Note_on_c, 3, 74, 100
5, 35160, Note_on_c, 3, 74, 0
5, 35160, Note_on_c, 3, 72, 100
5, 35220, Note_on_c, 3, 72, 0
5, 35220, Note_on_c, 3, 70, 100
5, 35280, Note_on_c, 3, 70, 0
5, 35280, Note_on_c, 3, 68, 100
5, 35340, Note_on_c, 3, 68, 0
5, 35340, Note_on_c, 3, 67, 100
5, 35400, Note_on_c, 3, 67, 0
5, 35400, Note_on_c, 3, 72, 100
5, 35460, Note_on_c, 3, 72, 0
5, 35460, Note_on_c, 3, 70, 100
5, 35520, Note_on_c, 3, 70, 0
5, 35520, Note_on_c, 3, 70, 100
5, 35700, Note_on_c, 3, 70, 0
5, 35700, Note_on_c, 3, 72, 100
5, 35760, Note_on_c, 3, 72, 0
5, 35760, Note_on_c, 3, 70, 100
5, 35880, Note_on_c, 3, 70, 0
5, 35970, Note_on_c, 3, 70, 100
5, 36000, Note_on_c, 3, 70, 0
5, 36000, Note_on_c, 3, 68, 100
5, 36060, Note_on_c, 3, 68, 0
5, 36060, Note_on_c, 3, 70, 100
5, 36120, Note_on_c, 3, 70, 0
5, 36120, Note_on_c, 3, 72, 100
5, 36180, Note_on_c, 3, 72, 0
5, 36180, Note_on_c, 3, 68, 100
5, 36240, Note_on_c, 3, 68, 0
5, 36240, Note_on_c, 3, 67, 100
5, 36300, Note_on_c, 3, 67, 0
5, 36300, Note_on_c, 3, 68, 100
5, 36360, Note_on_c, 3, 68, 0
5, 36360, Note_on_c, 3, 70, 100
5, 36420, Note_on_c, 3, 70, 0
5, 36420, Note_on_c, 3, 67, 100
5, 36480, Note_on_c, 3, 67, 0
5, 36480, Note_on_c, 3, 65, 100
5, 36660, Note_on_c, 3, 65, 0
5, 36660, Note_on_c, 3, 68, 100
5, 36690, Note_on_c, 3, 68, 0
5, 36690, Note_on_c, 3, 65, 100
5, 36720, Note_on_c, 3, 65, 0
5, 36720, Note_on_c, 3, 63, 100
5, 36840, Note_on_c, 3, 63, 0
5, 39660, Note_on_c, 3, 70, 100
5, 39720, Note_on_c, 3, 70, 0
5, 39720, Note_on_c, 3, 70, 100
5, 39780, Note_on_c, 3, 70, 0
5, 39780, Note_on_c, 3, 70, 100
5, 39840, Note_on_c, 3, 70, 0
5, 39840, Note_on_c, 3, 70, 100
5, 39870, Note_on_c, 3, 70, 0
5, 39870, Note_on_c, 3, 72, 100
5, 39900, Note_on_c, 3, 72, 0
5, 39900, Note_on_c, 3, 70, 100
5, 39930, Note_on_c, 3, 70, 0
5, 39930, Note_on_c, 3, 69, 100
5, 39960, Note_on_c, 3, 69, 0
5, 39960, Note_on_c, 3, 70, 100
5, 40020, Note_on_c, 3, 70, 0
5, 40050, Note_on_c, 3, 67, 100
5, 40080, Note_on_c, 3, 67, 0
5, 40080, Note_on_c, 3, 68, 100
5, 40110, Note_on_c, 3, 68, 0
5, 40110, Note_on_c, 3, 70, 100
5, 40140, Note_on_c, 3, 70, 0
5, 40140, Note_on_c, 3, 68, 100
5, 40170, Note_on_c, 3, 68, 0
5, 40170, Note_on_c, 3, 67, 100
5, 40200, Note_on_c, 3, 67, 0
5, 40200, Note_on_c, 3, 68, 100
5, 40260, Note_on_c, 3, 68, 0
5, 40290, Note_on_c, 3, 65, 100
5, 40320, Note_on_c, 3, 65, 0
5, 40320, Note_on_c, 3, 67, 100
5, 40350, Note_on_c, 3, 67, 0
5, 40350, Note_on_c, 3, 68, 100
5, 40380, Note_on_c, 3, 68, 0
5, 40380, Note_on_c, 3, 67, 100
5, 40410, Note_on_c, 3, 67, 0
5, 40410, Note_on_c, 3, 65, 100
5, 40440, Note_on_c, 3, 65, 0
5, 40440, Note_on_c, 3, 67, 100
5, 40500, Note_on_c, 3, 67, 0
5, 40530, Note_on_c, 3, 63, 100
5, 40560, Note_on_c, 3, 63, 0
5, 40560, Note_on_c, 3, 65, 100
5, 40590, Note_on_c, 3, 65, 0
5, 40590, Note_on_c, 3, 67, 100
5, 40620, Note_on_c, 3, 67, 0
5, 40620, Note_on_c, 3, 65, 100
5, 40650, Note_on_c, 3, 65, 0
5, 40650, Note_on_c, 3, 63, 100
5, 40680, Note_on_c, 3, 63, 0
5, 40680, Note_on_c, 3, 65, 100
5, 40740, Note_on_c, 3, 65, 0
5, 40770, Note_on_c, 3, 62, 100
5, 40800, Note_on_c, 3, 62, 0
5, 40800, Note_on_c, 3, 70, 100
5, 40830, Note_on_c, 3, 70, 0
5, 40830, Note_on_c, 3, 72, 100
5, 40860, Note_on_c, 3, 72, 0
5, 40860, Note_on_c, 3, 70, 100
5, 40890, Note_on_c, 3, 70, 0
5, 40890, Note_on_c, 3, 69, 100
5, 40920, Note_on_c, 3, 69, 0
5, 40920, Note_on_c, 3, 70, 100
5, 40950, Note_on_c, 3, 70, 0
5, 40950, Note_on_c, 3, 69, 100
5, 40980, Note_on_c, 3, 69, 0
5, 40980, Note_on_c, 3, 70, 100
5, 41010, Note_on_c, 3, 70, 0
5, 41010, Note_on_c, 3, 67, 100
5, 41040, Note_on_c, 3, 67, 0
5, 41040, Note_on_c, 3, 68, 100
5, 41070, Note_on_c, 3, 68, 0
5, 41070, Note_on_c, 3, 70, 100
5, 41100, Note_on_c, 3, 70, 0
5, 41100, Note_on_c, 3, 68, 100
5, 41130, Note_on_c, 3, 68, 0
5, 41130, Note_on_c, 3, 67, 100
5, 41160, Note_on_c, 3, 67, 0
5, 41160, Note_on_c, 3, 68, 100
5, 41190, Note_on_c, 3, 68, 0
5, 41190, Note_on_c, 3, 67, 100
5, 41220, Note_on_c, 3, 67, 0
5, 41220, Note_on_c, 3, 68, 100
5, 41250, Note_on_c, 3, 68, 0
5, 41250, Note_on_c, 3, 65, 100
5, 41280, Note_on_c, 3, 65, 0
5, 41280, Note_on_c, 3, 67, 100
5, 41310, Note_on_c, 3, 67, 0
5, 41310, Note_on_c, 3, 68, 100
5, 41340, Note_on_c, 3, 68, 0
5, 41340, Note_on_c, 3, 67, 100
5, 41370, Note_on_c, 3, 67, 0
5, 41370, Note_on_c, 3, 65, 100
5, 41400, Note_on_c, 3, 65, 0
5, 41400, Note_on_c, 3, 67, 100
5, 41430, Note_on_c, 3, 67, 0
5, 41430, Note_on_c, 3, 65, 100
5, 41460, Note_on_c, 3, 65, 0
5, 41460, Note_on_c, 3, 67, 100
5, 41490, Note_on_c, 3, 67, 0
5, 41490, Note_on_c, 3, 63, 100
5, 41520, Note_on_c, 3, 63, 0
5, 41520, Note_on_c, 3, 65, 100
5, 41550, Note_on_c, 3, 65, 0
5, 41550, Note_on_c, 3, 67, 100
5, 41580, Note_on_c, 3, 67, 0
5, 41580, Note_on_c, 3, 65, 100
5, 41610, Note_on_c, 3, 65, 0
5, 41610, Note_on_c, 3, 63, 100
5, 41640, Note_on_c, 3, 63, 0
5, 41640, Note_on_c, 3, 65, 100
5, 41670, Note_on_c, 3, 65, 0
5, 41670, Note_on_c, 3, 63, 100
5, 41700, Note_on_c, 3, 63, 0
5, 41700, Note_on_c, 3, 65, 100
5, 41730, Note_on_c, 3, 65, 0
5, 41730, Note_on_c, 3, 62, 100
5, 41760, Note_on_c, 3, 62, 0
5, 41760, Note_on_c, 3, 63, 100
5, 41820, Note_on_c, 3, 63, 0
5, 41820, Note_on_c, 3, 65, 100
5, 41880, Note_on_c, 3, 65, 0
5, 41880, Note_on_c, 3, 67, 100
5, 41940, Note_on_c, 3, 67, 0
5, 41940, Note_on_c, 3, 68, 100
5, 42000, Note_on_c, 3, 68, 0
5, 42000, Note_on_c, 3, 67, 100
5, 42060, Note_on_c, 3, 67, 0
5, 42060, Note_on_c, 3, 68, 100
5, 42120, Note_on_c, 3, 68, 0
5, 42120, Note_on_c, 3, 65, 100
5, 42180, Note_on_c, 3, 65, 0
5, 42180, Note_on_c, 3, 67, 100
5, 42240, Note_on_c, 3, 67, 0
5, 42240, Note_on_c, 3, 67, 100
5, 42300, Note_on_c, 3, 67, 0
5, 42300, Note_on_c, 3, 65, 100
5, 42360, Note_on_c, 3, 65, 0
5, 42360, Note_on_c, 3, 68, 100
5, 42420, Note_on_c, 3, 68, 0
5, 42420, Note_on_c, 3, 67, 100
5, 42480, Note_on_c, 3, 67, 0
5, 42480, Note_on_c, 3, 67, 100
5, 42540, Note_on_c, 3, 67, 0
5, 42540, Note_on_c, 3, 65, 100
5, 42600, Note_on_c, 3, 65, 0
5, 42600, Note_on_c, 3, 63, 100
5, 42660, Note_on_c, 3, 63, 0
5, 42660, Note_on_c, 3, 62, 100
5, 42720, Note_on_c, 3, 62, 0
5, 42720, Note_on_c, 3, 63, 100
5, 42840, Note_on_c, 3, 63, 0
5, 46560, Note_on_c, 3, 65, 100
5, 46920, Note_on_c, 3, 65, 0
5, 46920, Note_on_c, 3, 67, 100
5, 46950, Note_on_c, 3, 67, 0
5, 46950, Note_on_c, 3, 65, 100
5, 46980, Note_on_c, 3, 65, 0
5, 46980, Note_on_c, 3, 64, 100
5, 47010, Note_on_c, 3, 64, 0
5, 47010, Note_on_c, 3, 65, 100
5, 47040, Note_on_c, 3, 65, 0
5, 47040, Note_on_c, 3, 70, 100
5, 47160, Note_on_c, 3, 70, 0
5, 47160, Note_on_c, 3, 65, 100
5, 47400, Note_on_c, 3, 65, 0
5, 47400, Note_on_c, 3, 63, 100
5, 47430, Note_on_c, 3, 63, 0
5, 47430, Note_on_c, 3, 62, 100
5, 47460, Note_on_c, 3, 62, 0
5, 47460, Note_on_c, 3, 60, 100
5, 47490, Note_on_c, 3, 60, 0
5, 47490, Note_on_c, 3, 58, 100
5, 47520, Note_on_c, 3, 58, 0
5, 47520, Note_on_c, 3, 57, 100
5, 47640, Note_on_c, 3, 57, 0
5, 47640, Note_on_c, 3, 55, 100
5, 47760, Note_on_c, 3, 55, 0
5, 47760, Note_on_c, 3, 53, 100
5, 47880, Note_on_c, 3, 53, 0
5, 47880, Note_on_c, 3, 51, 100
5, 48000, Note_on_c, 3, 51, 0
5, 48000, Note_on_c, 3, 50, 100
5, 48120, Note_on_c, 3, 50, 0
5, 48120, Note_on_c, 3, 65, 100
5, 48345, Note_on_c, 3, 67, 100
5, 48360, Note_on_c, 3, 67, 0
5, 48360, Note_on_c, 3, 65, 0
5, 48360, Note_on_c, 3, 65, 100
5, 48420, Note_on_c, 3, 65, 0
5, 48420, Note_on_c, 3, 63, 100
5, 48450, Note_on_c, 3, 63, 0
5, 48450, Note_on_c, 3, 62, 100
5, 48480, Note_on_c, 3, 62, 0
5, 48480, Note_on_c, 3, 60, 100
5, 48510, Note_on_c, 3, 60, 0
5, 48510, Note_on_c, 3, 62, 100
5, 48540, Note_on_c, 3, 62, 0
5, 48540, Note_on_c, 3, 60, 100
5, 48570, Note_on_c, 3, 60, 0
5, 48570, Note_on_c, 3, 59, 100
5, 48600, Note_on_c, 3, 59, 0
5, 48600, Note_on_c, 3, 60, 100
5, 48630, Note_on_c, 3, 60, 0
5, 48630, Note_on_c, 3, 62, 100
5, 48660, Note_on_c, 3, 62, 0
5, 48660, Note_on_c, 3, 60, 100
5, 48690, Note_on_c, 3, 60, 0
5, 48690, Note_on_c, 3, 62, 100
5, 48720, Note_on_c, 3, 62, 0
5, 48720, Note_on_c, 3, 63, 100
5, 48750, Note_on_c, 3, 63, 0
5, 48750, Note_on_c, 3, 65, 100
5, 48780, Note_on_c, 3, 65, 0
5, 48780, Note_on_c, 3, 63, 100
5, 48810, Note_on_c, 3, 63, 0
5, 48810, Note_on_c, 3, 62, 100
5, 48840, Note_on_c, 3, 62, 0
5, 48840, Note_on_c, 3, 63, 100
5, 48870, Note_on_c, 3, 63, 0
5, 48870, Note_on_c, 3, 65, 100
5, 48900, Note_on_c, 3, 65, 0
5, 48900, Note_on_c, 3, 63, 100
5, 48930, Note_on_c, 3, 63, 0
5, 48930, Note_on_c, 3, 65, 100
5, 48960, Note_on_c, 3, 65, 0
5, 48960, Note_on_c, 3, 67, 100
5, 48990, Note_on_c, 3, 67, 0
5, 48990, Note_on_c, 3, 69, 100
5, 49020, Note_on_c, 3, 69, 0
5, 49020, Note_on_c, 3, 67, 100
5, 49050, Note_on_c, 3, 67, 0
5, 49050, Note_on_c, 3, 66, 100
5, 49080, Note_on_c, 3, 66, 0
5, 49080, Note_on_c, 3, 67, 100
5, 49110, Note_on_c, 3, 67, 0
5, 49110, Note_on_c, 3, 69, 100
5, 49140, Note_on_c, 3, 69, 0
5, 49140, Note_on_c, 3, 67, 100
5, 49170, Note_on_c, 3, 67, 0
5, 49170, Note_on_c, 3, 69, 100
5, 49200, Note_on_c, 3, 69, 0
5, 49200, Note_on_c, 3, 70, 100
5, 49260, Note_on_c, 3, 70, 0
5, 49260, Note_on_c, 3, 72, 100
5, 49320, Note_on_c, 3, 72, 0
5, 49320, Note_on_c, 3, 74, 100
5, 49380, Note_on_c, 3, 74, 0
5, 49380, Note_on_c, 3, 62, 100
5, 49440, Note_on_c, 3, 62, 0
5, 49440, Note_on_c, 3, 65, 100
5, 49740, Note_on_c, 3, 65, 0
5, 49740, Note_on_c, 3, 64, 100
5, 49770, Note_on_c, 3, 64, 0
5, 49770, Note_on_c, 3, 65, 100
5, 49800, Note_on_c, 3, 65, 0
5, 49800, Note_on_c, 3, 67, 100
5, 49830, Note_on_c, 3, 67, 0
5, 49830, Note_on_c, 3, 65, 100
5, 49860, Note_on_c, 3, 65, 0
5, 49860, Note_on_c, 3, 63, 100
5, 49890, Note_on_c, 3, 63, 0
5, 49890, Note_on_c, 3, 62, 100
5, 49920, Note_on_c, 3, 62, 0
5, 49920, Note_on_c, 3, 60, 100
5, 50040, Note_on_c, 3, 60, 0
5, 50520, Note_on_c, 3, 65, 100
5, 50580, Note_on_c, 3, 65, 0
5, 50580, Note_on_c, 3, 65, 100
5, 50640, Note_on_c, 3, 65, 0
5, 50640, Note_on_c, 3, 65, 100
5, 50700, Note_on_c, 3, 65, 0
5, 50700, Note_on_c, 3, 65, 100
5, 50760, Note_on_c, 3, 65, 0
5, 50760, Note_on_c, 3, 65, 100
5, 50820, Note_on_c, 3, 65, 0
5, 50820, Note_on_c, 3, 66, 100
5, 50880, Note_on_c, 3, 66, 0
5, 50880, Note_on_c, 3, 67, 100
5, 51000, Note_on_c, 3, 67, 0
5, 54840, Note_on_c, 3, 72, 100
5, 54870, Note_on_c, 3, 72, 0
5, 54870, Note_on_c, 3, 71, 100
5, 54900, Note_on_c, 3, 71, 0
5, 54900, Note_on_c, 3, 72, 100
5, 54930, Note_on_c, 3, 72, 0
5, 54930, Note_on_c, 3, 71, 100
5, 54960, Note_on_c, 3, 71, 0
5, 54960, Note_on_c, 3, 72, 100
5, 54990, Note_on_c, 3, 72, 0
5, 54990, Note_on_c, 3, 71, 100
5, 55020, Note_on_c, 3, 71, 0
5, 55020, Note_on_c, 3, 72, 100
5, 55050, Note_on_c, 3, 72, 0
5, 55050, Note_on_c, 3, 71, 100
5, 55080, Note_on_c, 3, 71, 0
5, 55080, Note_on_c, 3, 72, 100
5, 55110, Note_on_c, 3, 72, 0
5, 55110, Note_on_c, 3, 71, 100
5, 55140, Note_on_c, 3, 71, 0
5, 55140, Note_on_c, 3, 72, 100
5, 55170, Note_on_c, 3, 72, 0
5, 55170, Note_on_c, 3, 71, 100
5, 55200, Note_on_c, 3, 71, 0
5, 55200, Note_on_c, 3, 72, 100
5, 55260, Note_on_c, 3, 72, 0
5, 55260, Note_on_c, 3, 74, 100
5, 55290, Note_on_c, 3, 74, 0
5, 55290, Note_on_c, 3, 76, 100
5, 55320, Note_on_c, 3, 76, 0
5, 55320, Note_on_c, 3, 77, 100
5, 55350, Note_on_c, 3, 77, 0
5, 55350, Note_on_c, 3, 76, 100
5, 55380, Note_on_c, 3, 76, 0
5, 55380, Note_on_c, 3, 77, 100
5, 55410, Note_on_c, 3, 77, 0
5, 55410, Note_on_c, 3, 79, 100
5, 55440, Note_on_c, 3, 79, 0
5, 55440, Note_on_c, 3, 80, 100
5, 55470, Note_on_c, 3, 80, 0
5, 55470, Note_on_c, 3, 79, 100
5, 55500, Note_on_c, 3, 79, 0
5, 55500, Note_on_c, 3, 77, 100
5, 55530, Note_on_c, 3, 77, 0
5, 55530, Note_on_c, 3, 79, 100
5, 55560, Note_on_c, 3, 79, 0
5, 55560, Note_on_c, 3, 77, 100
5, 55590, Note_on_c, 3, 77, 0
5, 55590, Note_on_c, 3, 75, 100
5, 55620, Note_on_c, 3, 75, 0
5, 55620, Note_on_c, 3, 74, 100
5, 55650, Note_on_c, 3, 74, 0
5, 55650, Note_on_c, 3, 72, 100
5, 55680, Note_on_c, 3, 72, 0
5, 55680, Note_on_c, 3, 70, 100
5, 55800, Note_on_c, 3, 70, 0
5, 55800, Note_on_c, 3, 70, 100
5, 55830, Note_on_c, 3, 70, 0
5, 55830, Note_on_c, 3, 69, 100
5, 55860, Note_on_c, 3, 69, 0
5, 55860, Note_on_c, 3, 70, 100
5, 55890, Note_on_c, 3, 70, 0
5, 55890, Note_on_c, 3, 69, 100
5, 55920, Note_on_c, 3, 69, 0
5, 55920, Note_on_c, 3, 70, 100
5, 55950, Note_on_c, 3, 70, 0
5, 55950, Note_on_c, 3, 69, 100
5, 55980, Note_on_c, 3, 69, 0
5, 55980, Note_on_c, 3, 70, 100
5, 56010, Note_on_c, 3, 70, 0
5, 56010, Note_on_c, 3, 69, 100
5, 56040, Note_on_c, 3, 69, 0
5, 56040, Note_on_c, 3, 70, 100
5, 56070, Note_on_c, 3, 70, 0
5, 56070, Note_on_c, 3, 69, 100
5, 56100, Note_on_c, 3, 69, 0
5, 56100, Note_on_c, 3, 70, 100
5, 56130, Note_on_c, 3, 70, 0
5, 56130, Note_on_c, 3, 69, 100
5, 56160, Note_on_c, 3, 69, 0
5, 56160, Note_on_c, 3, 70, 100
5, 56220, Note_on_c, 3, 70, 0
5, 56220, Note_on_c, 3, 72, 100
5, 56250, Note_on_c, 3, 72, 0
5, 56250, Note_on_c, 3, 74, 100
5, 56280, Note_on_c, 3, 74, 0
5, 56280, Note_on_c, 3, 75, 100
5, 56310, Note_on_c, 3, 75, 0
5, 56310, Note_on_c, 3, 74, 100
5, 56340, Note_on_c, 3, 74, 0
5, 56340, Note_on_c, 3, 75, 100
5, 56370, Note_on_c, 3, 75, 0
5, 56370, Note_on_c, 3, 77, 100
5, 56400, Note_on_c, 3, 77, 0
5, 56400, Note_on_c, 3, 79, 100
5, 56430, Note_on_c, 3, 79, 0
5, 56430, Note_on_c, 3, 77, 100
5, 56460, Note_on_c, 3, 77, 0
5, 56460, Note_on_c, 3, 75, 100
5, 56490, Note_on_c, 3, 75, 0
5, 56490, Note_on_c, 3, 77, 100
5, 56520, Note_on_c, 3, 77, 0
5, 56520, Note_on_c, 3, 75, 100
5, 56550, Note_on_c, 3, 75, 0
5, 56550, Note_on_c, 3, 74, 100
5, 56580, Note_on_c, 3, 74, 0
5, 56580, Note_on_c, 3, 72, 100
5, 56610, Note_on_c, 3, 72, 0
5, 56610, Note_on_c, 3, 70, 100
5, 56640, Note_on_c, 3, 70, 0
5, 56640, Note_on_c, 3, 68, 100
5, 56760, Note_on_c, 3, 68, 0
5, 56760, Note_on_c, 3, 68, 100
5, 56790, Note_on_c, 3, 68, 0
5, 56790, Note_on_c, 3, 67, 100
5, 56820, Note_on_c, 3, 67, 0
5, 56820, Note_on_c, 3, 68, 100
5, 56850, Note_on_c, 3, 68, 0
5, 56850, Note_on_c, 3, 67, 100
5, 56880, Note_on_c, 3, 67, 0
5, 56880, Note_on_c, 3, 68, 100
5, 56910, Note_on_c, 3, 68, 0
5, 56910, Note_on_c, 3, 67, 100
5, 56940, Note_on_c, 3, 67, 0
5, 56940, Note_on_c, 3, 68, 100
5, 56970, Note_on_c, 3, 68, 0
5, 56970, Note_on_c, 3, 67, 100
5, 57000, Note_on_c, 3, 67, 0
5, 57000, Note_on_c, 3, 68, 100
5, 57030, Note_on_c, 3, 68, 0
5, 57030, Note_on_c, 3, 67, 100
5, 57060, Note_on_c, 3, 67, 0
5, 57060, Note_on_c, 3, 68, 100
5, 57090, Note_on_c, 3, 68, 0
5, 57090, Note_on_c, 3, 67, 100
5, 57120, Note_on_c, 3, 67, 0
5, 57120, Note_on_c, 3, 68, 100
5, 57180, Note_on_c, 3, 68, 0
5, 57180, Note_on_c, 3, 70, 100
5, 57210, Note_on_c, 3, 70, 0
5, 57210, Note_on_c, 3, 72, 100
5, 57240, Note_on_c, 3, 72, 0
5, 57240, Note_on_c, 3, 74, 100
5, 57270, Note_on_c, 3, 74, 0
5, 57270, Note_on_c, 3, 75, 100
5, 57300, Note_on_c, 3, 75, 0
5, 57300, Note_on_c, 3, 77, 100
5, 57330, Note_on_c, 3, 77, 0
5, 57330, Note_on_c, 3, 79, 100
5, 57360, Note_on_c, 3, 79, 0
5, 57360, Note_on_c, 3, 80, 100
5, 57390, Note_on_c, 3, 80, 0
5, 57390, Note_on_c, 3, 79, 100
5, 57420, Note_on_c, 3, 79, 0
5, 57420, Note_on_c, 3, 77, 100
5, 57450, Note_on_c, 3, 77, 0
5, 57450, Note_on_c, 3, 75, 100
5, 57480, Note_on_c, 3, 75, 0
5, 57480, Note_on_c, 3, 74, 100
5, 57510, Note_on_c, 3, 74, 0
5, 57510, Note_on_c, 3, 72, 100
5, 57540, Note_on_c, 3, 72, 0
5, 57540, Note_on_c, 3, 70, 100
5, 57570, Note_on_c, 3, 70, 0
5, 57570, Note_on_c, 3, 68, 100
5, 57600, Note_on_c, 3, 68, 0
5, 57600, Note_on_c, 3, 67, 100
5, 57630, Note_on_c, 3, 67, 0
5, 57630, Note_on_c, 3, 68, 100
5, 57660, Note_on_c, 3, 68, 0
5, 57660, Note_on_c, 3, 67, 100
5, 57690, Note_on_c, 3, 67, 0
5, 57690, Note_on_c, 3, 65, 100
5, 57720, Note_on_c, 3, 65, 0
5, 57720, Note_on_c, 3, 67, 100
5, 57750, Note_on_c, 3, 67, 0
5, 57750, Note_on_c, 3, 63, 100
5, 57780, Note_on_c, 3, 63, 0
5, 57780, Note_on_c, 3, 70, 100
5, 57810, Note_on_c, 3, 70, 0
5, 57810, Note_on_c, 3, 67, 100
5, 57840, Note_on_c, 3, 67, 0
5, 57840, Note_on_c, 3, 69, 100
5, 57870, Note_on_c, 3, 69, 0
5, 57870, Note_on_c, 3, 70, 100
5, 57900, Note_on_c, 3, 70, 0
5, 57900, Note_on_c, 3, 69, 100
5, 57930, Note_on_c, 3, 69, 0
5, 57930, Note_on_c, 3, 67, 100
5, 57960, Note_on_c, 3, 67, 0
5, 57960, Note_on_c, 3, 69, 100
5, 57990, Note_on_c, 3, 69, 0
5, 57990, Note_on_c, 3, 65, 100
5, 58020, Note_on_c, 3, 65, 0
5, 58020, Note_on_c, 3, 72, 100
5, 58050, Note_on_c, 3, 72, 0
5, 58050, Note_on_c, 3, 69, 100
5, 58080, Note_on_c, 3, 69, 0
5, 58080, Note_on_c, 3, 70, 100
5, 58110, Note_on_c, 3, 70, 0
5, 58110, Note_on_c, 3, 72, 100
5, 58140, Note_on_c, 3, 72, 0
5, 58140, Note_on_c, 3, 70, 100
5, 58170, Note_on_c, 3, 70, 0
5, 58170, Note_on_c, 3, 69, 100
5, 58200, Note_on_c, 3, 69, 0
5, 58200, Note_on_c, 3, 70, 100
5, 58230, Note_on_c, 3, 70, 0
5, 58230, Note_on_c, 3, 65, 100
5, 58260, Note_on_c, 3, 65, 0
5, 58260, Note_on_c, 3, 74, 100
5, 58290, Note_on_c, 3, 74, 0
5, 58290, Note_on_c, 3, 70, 100
5, 58320, Note_on_c, 3, 70, 0
5, 58320, Note_on_c, 3, 72, 100
5, 58350, Note_on_c, 3, 72, 0
5, 58350, Note_on_c, 3, 74, 100
5, 58380, Note_on_c, 3, 74, 0
5, 58380, Note_on_c, 3, 72, 100
5, 58410, Note_on_c, 3, 72, 0
5, 58410, Note_on_c, 3, 70, 100
5, 58440, Note_on_c, 3, 70, 0
5, 58440, Note_on_c, 3, 72, 100
5, 58470, Note_on_c, 3, 72, 0
5, 58470, Note_on_c, 3, 65, 100
5, 58500, Note_on_c, 3, 65, 0
5, 58500, Note_on_c, 3, 75, 100
5, 58530, Note_on_c, 3, 75, 0
5, 58530, Note_on_c, 3, 72, 100
5, 58560, Note_on_c, 3, 72, 0
5, 58560, Note_on_c, 3, 75, 100
5, 58620, Note_on_c, 3, 75, 0
5, 58620, Note_on_c, 3, 74, 100
5, 58680, Note_on_c, 3, 74, 0
5, 58680, Note_on_c, 3, 72, 100
5, 58740, Note_on_c, 3, 72, 0
5, 58740, Note_on_c, 3, 70, 100
5, 58800, Note_on_c, 3, 70, 0
5, 58800, Note_on_c, 3, 69, 100
5, 58860, Note_on_c, 3, 69, 0
5, 58860, Note_on_c, 3, 67, 100
5, 58920, Note_on_c, 3, 67, 0
5, 58920, Note_on_c, 3, 65, 100
5, 58980, Note_on_c, 3, 65, 0
5, 58980, Note_on_c, 3, 63, 100
5, 59040, Note_on_c, 3, 63, 0
5, 59040, Note_on_c, 3, 62, 100
5, 59070, Note_on_c, 3, 62, 0
5, 59070, Note_on_c, 3, 65, 100
5, 59100, Note_on_c, 3, 65, 0
5, 59100, Note_on_c, 3, 67, 100
5, 59130, Note_on_c, 3, 67, 0
5, 59130, Note_on_c, 3, 65, 100
5, 59160, Note_on_c, 3, 65, 0
5, 59160, Note_on_c, 3, 63, 100
5, 59190, Note_on_c, 3, 63, 0
5, 59190, Note_on_c, 3, 62, 100
5, 59220, Note_on_c, 3, 62, 0
5, 59220, Note_on_c, 3, 60, 100
5, 59250, Note_on_c, 3, 60, 0
5, 59250, Note_on_c, 3, 58, 100
5, 59280, Note_on_c, 3, 58, 0
5, 59280, Note_on_c, 3, 60, 100
5, 59460, Note_on_c, 3, 60, 0
5, 59460, Note_on_c, 3, 58, 100
5, 59490, Note_on_c, 3, 58, 0
5, 59490, Note_on_c, 3, 60, 100
5, 59520, Note_on_c, 3, 60, 0
5, 59520, Note_on_c, 3, 58, 100
5, 59640, Note_on_c, 3, 58, 0
5, 61890, Note_on_c, 3, 65, 100
5, 61920, Note_on_c, 3, 65, 0
5, 61920, Note_on_c, 3, 70, 100
5, 62100, Note_on_c, 3, 70, 0
5, 62130, Note_on_c, 3, 65, 100
5, 62160, Note_on_c, 3, 65, 0
5, 62160, Note_on_c, 3, 74, 100
5, 62340, Note_on_c, 3, 74, 0
5, 62370, Note_on_c, 3, 70, 100
5, 62400, Note_on_c, 3, 70, 0
5, 62400, Note_on_c, 3, 77, 100
5, 62460, Note_on_c, 3, 77, 0
5, 62460, Note_on_c, 3, 76, 100
5, 62520, Note_on_c, 3, 76, 0
5, 62520, Note_on_c, 3, 75, 100
5, 62700, Note_on_c, 3, 75, 0
5, 62700, Note_on_c, 3, 77, 100
5, 62730, Note_on_c, 3, 77, 0
5, 62730, Note_on_c, 3, 75, 100
5, 62760, Note_on_c, 3, 75, 0
5, 62760, Note_on_c, 3, 74, 100
5, 62790, Note_on_c, 3, 74, 0
5, 62790, Note_on_c, 3, 72, 100
5, 62820, Note_on_c, 3, 72, 0
5, 62820, Note_on_c, 3, 70, 100
5, 62850, Note_on_c, 3, 70, 0
5, 62850, Note_on_c, 3, 69, 100
5, 62880, Note_on_c, 3, 69, 0
5, 62880, Note_on_c, 3, 70, 100
5, 62970, Note_on_c, 3, 70, 0
5, 62970, Note_on_c, 3, 74, 100
5, 63000, Note_on_c, 3, 74, 0
5, 63000, Note_on_c, 3, 67, 100
5, 63090, Note_on_c, 3, 67, 0
5, 63090, Note_on_c, 3, 72, 100
5, 63120, Note_on_c, 3, 72, 0
5, 63120, Note_on_c, 3, 70, 100
5, 63240, Note_on_c, 3, 70, 0
5, 63240, Note_on_c, 3, 69, 100
5, 63360, Note_on_c, 3, 69, 0
5, 63360, Note_on_c, 3, 70, 100
5, 63480, Note_on_c, 3, 70, 0
5, 65760, Note_on_c, 3, 62, 100
5, 65790, Note_on_c, 3, 62, 0
5, 65790, Note_on_c, 3, 65, 100
5, 65820, Note_on_c, 3, 65, 0
5, 65820, Note_on_c, 3, 70, 100
5, 65850, Note_on_c, 3, 70, 0
5, 65850, Note_on_c, 3, 72, 100
5, 65880, Note_on_c, 3, 72, 0
5, 65880, Note_on_c, 3, 74, 100
5, 65910, Note_on_c, 3, 74, 0
5, 65910, Note_on_c, 3, 70, 100
5, 65940, Note_on_c, 3, 70, 0
5, 65940, Note_on_c, 3, 74, 100
5, 65970, Note_on_c, 3, 74, 0
5, 65970, Note_on_c, 3, 70, 100
5, 66000, Note_on_c, 3, 70, 0
5, 66000, Note_on_c, 3, 75, 100
5, 66030, Note_on_c, 3, 75, 0
5, 66030, Note_on_c, 3, 72, 100
5, 66060, Note_on_c, 3, 72, 0
5, 66060, Note_on_c, 3, 69, 100
5, 66090, Note_on_c, 3, 69, 0
5, 66090, Note_on_c, 3, 65, 100
5, 66120, Note_on_c, 3, 65, 0
5, 66120, Note_on_c, 3, 63, 100
5, 66150, Note_on_c, 3, 63, 0
5, 66150, Note_on_c, 3, 67, 100
5, 66180, Note_on_c, 3, 67, 0
5, 66180, Note_on_c, 3, 63, 100
5, 66210, Note_on_c, 3, 63, 0
5, 66210, Note_on_c, 3, 65, 100
5, 66240, Note_on_c, 3, 65, 0
5, 66240, Note_on_c, 3, 62, 100
5, 66270, Note_on_c, 3, 62, 0
5, 66270, Note_on_c, 3, 65, 100
5, 66300, Note_on_c, 3, 65, 0
5, 66300, Note_on_c, 3, 70, 100
5, 66330, Note_on_c, 3, 70, 0
5, 66330, Note_on_c, 3, 72, 100
5, 66360, Note_on_c, 3, 72, 0
5, 66360, Note_on_c, 3, 74, 100
5, 66390, Note_on_c, 3, 74, 0
5, 66390, Note_on_c, 3, 70, 100
5, 66420, Note_on_c, 3, 70, 0
5, 66420, Note_on_c, 3, 74, 100
5, 66450, Note_on_c, 3, 74, 0
5, 66450, Note_on_c, 3, 70, 100
5, 66480, Note_on_c, 3, 70, 0
5, 66480, Note_on_c, 3, 75, 100
5, 66510, Note_on_c, 3, 75, 0
5, 66510, Note_on_c, 3, 72, 100
5, 66540, Note_on_c, 3, 72, 0
5, 66540, Note_on_c, 3, 69, 100
5, 66570, Note_on_c, 3, 69, 0
5, 66570, Note_on_c, 3, 65, 100
5, 66600, Note_on_c, 3, 65, 0
5, 66600, Note_on_c, 3, 63, 100
5, 66630, Note_on_c, 3, 63, 0
5, 66630, Note_on_c, 3, 65, 100
5, 66660, Note_on_c, 3, 65, 0
5, 66660, Note_on_c, 3, 63, 100
5, 66690, Note_on_c, 3, 63, 0
5, 66690, Note_on_c, 3, 65, 100
5, 66720, Note_on_c, 3, 65, 0
5, 66720, Note_on_c, 3, 62, 100
5, 66750, Note_on_c, 3, 62, 0
5, 66750, Note_on_c, 3, 63, 100
5, 66780, Note_on_c, 3, 63, 0
5, 66780, Note_on_c, 3, 65, 100
5, 66810, Note_on_c, 3, 65, 0
5, 66810, Note_on_c, 3, 67, 100
5, 66840, Note_on_c, 3, 67, 0
5, 66840, Note_on_c, 3, 68, 100
5, 66870, Note_on_c, 3, 68, 0
5, 66870, Note_on_c, 3, 67, 100
5, 66900, Note_on_c, 3, 67, 0
5, 66900, Note_on_c, 3, 68, 100
5, 66930, Note_on_c, 3, 68, 0
5, 66930, Note_on_c, 3, 67, 100
5, 66960, Note_on_c, 3, 67, 0
5, 66960, Note_on_c, 3, 68, 100
5, 66990, Note_on_c, 3, 68, 0
5, 66990, Note_on_c, 3, 67, 100
5, 67020, Note_on_c, 3, 67, 0
5, 67020, Note_on_c, 3, 65, 100
5, 67050, Note_on_c, 3, 65, 0
5, 67050, Note_on_c, 3, 63, 100
5, 67080, Note_on_c, 3, 63, 0
5, 67080, Note_on_c, 3, 62, 100
5, 67110, Note_on_c, 3, 62, 0
5, 67110, Note_on_c, 3, 60, 100
5, 67140, Note_on_c, 3, 60, 0
5, 67140, Note_on_c, 3, 58, 100
5, 67170, Note_on_c, 3, 58, 0
5, 67170, Note_on_c, 3, 56, 100
5, 67200, Note_on_c, 3, 56, 0
5, 67200, Note_on_c, 3, 55, 100
5, 67260, Note_on_c, 3, 55, 0
5, 67260, Note_on_c, 3, 57, 100
5, 67290, Note_on_c, 3, 57, 0
5, 67290, Note_on_c, 3, 58, 100
5, 67320, Note_on_c, 3, 58, 0
5, 67320, Note_on_c, 3, 60, 100
5, 67350, Note_on_c, 3, 60, 0
5, 67350, Note_on_c, 3, 62, 100
5, 67380, Note_on_c, 3, 62, 0
5, 67380, Note_on_c, 3, 63, 100
5, 67410, Note_on_c, 3, 63, 0
5, 67410, Note_on_c, 3, 65, 100
5, 67440, Note_on_c, 3, 65, 0
5, 67440, Note_on_c, 3, 67, 100
5, 67470, Note_on_c, 3, 67, 0
5, 67470, Note_on_c, 3, 69, 100
5, 67500, Note_on_c, 3, 69, 0
5, 67500, Note_on_c, 3, 70, 100
5, 67530, Note_on_c, 3, 70, 0
5, 67530, Note_on_c, 3, 69, 100
5, 67545, Note_on_c, 3, 72, 100
5, 67560, Note_on_c, 3, 72, 0
5, 67560, Note_on_c, 3, 69, 0
5, 67560, Note_on_c, 3, 70, 100
5, 67620, Note_on_c, 3, 70, 0
5, 67620, Note_on_c, 3, 69, 100
5, 67650, Note_on_c, 3, 69, 0
5, 67650, Note_on_c, 3, 67, 100
5, 67665, Note_on_c, 3, 67, 100
5, 67680, Note_on_c, 3, 67, 0
5, 67680, Note_on_c, 3, 67, 0
5, 67680, Note_on_c, 3, 65, 100
5, 67740, Note_on_c, 3, 65, 0
5, 67740, Note_on_c, 3, 64, 100
5, 67770, Note_on_c, 3, 64, 0
5, 67770, Note_on_c, 3, 65, 100
5, 67785, Note_on_c, 3, 69, 100
5, 67800, Note_on_c, 3, 69, 0
5, 67800, Note_on_c, 3, 65, 0
5, 67800, Note_on_c, 3, 67, 100
5, 67860, Note_on_c, 3, 67, 0
5, 67860, Note_on_c, 3, 65, 100
5, 67890, Note_on_c, 3, 65, 0
5, 67890, Note_on_c, 3, 63, 100
5, 67905, Note_on_c, 3, 63, 100
5, 67920, Note_on_c, 3, 63, 0
5, 67920, Note_on_c, 3, 63, 0
5, 67920, Note_on_c, 3, 62, 100
5, 67980, Note_on_c, 3, 62, 0
5, 67980, Note_on_c, 3, 60, 100
5, 68010, Note_on_c, 3, 60, 0
5, 68010, Note_on_c, 3, 62, 100
5, 68025, Note_on_c, 3, 65, 100
5, 68040, Note_on_c, 3, 65, 0
5, 68040, Note_on_c, 3, 62, 0
5, 68040, Note_on_c, 3, 63, 100
5, 68100, Note_on_c, 3, 63, 0
5, 68100, Note_on_c, 3, 62, 100
5, 68130, Note_on_c, 3, 62, 0
5, 68130, Note_on_c, 3, 60, 100
5, 68160, Note_on_c, 3, 60, 0
5, 68160, Note_on_c, 3, 62, 100
5, 68340, Note_on_c, 3, 62, 0
5, 68340, Note_on_c, 3, 63, 100
5, 68370, Note_on_c, 3, 63, 0
5, 68370, Note_on_c, 3, 62, 100
5, 68400, Note_on_c, 3, 62, 0
5, 68400, Note_on_c, 3, 60, 100
5, 68460, Note_on_c, 3, 60, 0
5, 68460, Note_on_c, 3, 60, 100
5, 68520, Note_on_c, 3, 60, 0
5, 68520, Note_on_c, 3, 59, 100
5, 68580, Note_on_c, 3, 59, 0
5, 68580, Note_on_c, 3, 59, 100
5, 68640, Note_on_c, 3, 59, 0
5, 68640, Note_on_c, 3, 60, 100
5, 68730, Note_on_c, 3, 60, 0
5, 68730, Note_on_c, 3, 62, 100
5, 68760, Note_on_c, 3, 62, 0
5, 68760, Note_on_c, 3, 63, 100
5, 68850, Note_on_c, 3, 63, 0
5, 68850, Note_on_c, 3, 60, 100
5, 68880, Note_on_c, 3, 60, 0
5, 68880, Note_on_c, 3, 58, 100
5, 69000, Note_on_c, 3, 58, 0
5, 69000, Note_on_c, 3, 57, 100
5, 69120, Note_on_c, 3, 57, 0
5, 69120, Note_on_c, 3, 62, 100
5, 69210, Note_on_c, 3, 62, 0
5, 69210, Note_on_c, 3, 58, 100
5, 69240, Note_on_c, 3, 58, 0
5, 69240, Note_on_c, 3, 63, 100
5, 69270, Note_on_c, 3, 63, 0
5, 69270, Note_on_c, 3, 60, 100
5, 69300, Note_on_c, 3, 60, 0
5, 69300, Note_on_c, 3, 63, 100
5, 69330, Note_on_c, 3, 63, 0
5, 69330, Note_on_c, 3, 60, 100
5, 69360, Note_on_c, 3, 60, 0
5, 69360, Note_on_c, 3, 58, 100
5, 69480, Note_on_c, 3, 58, 0
5, 69480, Note_on_c, 3, 57, 100
5, 69600, Note_on_c, 3, 57, 0
5, 69600, Note_on_c, 3, 74, 100
5, 69780, Note_on_c, 3, 74, 0
5, 69780, Note_on_c, 3, 75, 100
5, 69810, Note_on_c, 3, 75, 0
5, 69810, Note_on_c, 3, 74, 100
5, 69840, Note_on_c, 3, 74, 0
5, 69840, Note_on_c, 3, 72, 100
5, 69900, Note_on_c, 3, 72, 0
5, 69900, Note_on_c, 3, 72, 100
5, 69960, Note_on_c, 3, 72, 0
5, 69960, Note_on_c, 3, 71, 100
5, 70020, Note_on_c, 3, 71, 0
5, 70020, Note_on_c, 3, 71, 100
5, 70080, Note_on_c, 3, 71, 0
5, 70080, Note_on_c, 3, 72, 100
5, 70170, Note_on_c, 3, 72, 0
5, 70170, Note_on_c, 3, 74, 100
5, 70200, Note_on_c, 3, 74, 0
5, 70200, Note_on_c, 3, 75, 100
5, 70290, Note_on_c, 3, 75, 0
5, 70290, Note_on_c, 3, 72, 100
5, 70320, Note_on_c, 3, 72, 0
5, 70320, Note_on_c, 3, 70, 100
5, 70440, Note_on_c, 3, 70, 0
5, 70440, Note_on_c, 3, 69, 100
5, 70560, Note_on_c, 3, 69, 0
5, 70560, Note_on_c, 3, 74, 100
5, 70590, Note_on_c, 3, 74, 0
5, 70590, Note_on_c, 3, 72, 100
5, 70620, Note_on_c, 3, 72, 0
5, 70620, Note_on_c, 3, 74, 100
5, 70650, Note_on_c, 3, 74, 0
5, 70650, Note_on_c, 3, 70, 100
5, 70680, Note_on_c, 3, 70, 0
5, 70680, Note_on_c, 3, 75, 100
5, 70710, Note_on_c, 3, 75, 0
5, 70710, Note_on_c, 3, 74, 100
5, 70740, Note_on_c, 3, 74, 0
5, 70740, Note_on_c, 3, 75, 100
5, 70770, Note_on_c, 3, 75, 0
5, 70770, Note_on_c, 3, 72, 100
5, 70800, Note_on_c, 3, 72, 0
5, 70800, Note_on_c, 3, 70, 100
5, 70920, Note_on_c, 3, 70, 0
5, 70920, Note_on_c, 3, 69, 100
5, 71040, Note_on_c, 3, 69, 0
5, 71040, Note_on_c, 3, 70, 100
5, 71070, Note_on_c, 3, 70, 0
5, 71070, Note_on_c, 3, 58, 100
5, 71100, Note_on_c, 3, 58, 0
5, 71100, Note_on_c, 3, 60, 100
5, 71130, Note_on_c, 3, 60, 0
5, 71130, Note_on_c, 3, 62, 100
5, 71160, Note_on_c, 3, 62, 0
5, 71160, Note_on_c, 3, 63, 100
5, 71190, Note_on_c, 3, 63, 0
5, 71190, Note_on_c, 3, 65, 100
5, 71220, Note_on_c, 3, 65, 0
5, 71220, Note_on_c, 3, 67, 100
5, 71250, Note_on_c, 3, 67, 0
5, 71250, Note_on_c, 3, 69, 100
5, 71280, Note_on_c, 3, 69, 0
5, 71280, Note_on_c, 3, 70, 100
5, 71400, Note_on_c, 3, 70, 0
5, 71550, Note_on_c, 3, 62, 100
5, 71580, Note_on_c, 3, 62, 0
5, 71580, Note_on_c, 3, 63, 100
5, 71610, Note_on_c, 3, 63, 0
5, 71610, Note_on_c, 3, 65, 100
5, 71640, Note_on_c, 3, 65, 0
5, 71640, Note_on_c, 3, 67, 100
5, 71670, Note_on_c, 3, 67, 0
5, 71670, Note_on_c, 3, 69, 100
5, 71700, Note_on_c, 3, 69, 0
5, 71700, Note_on_c, 3, 70, 100
5, 71730, Note_on_c, 3, 70, 0
5, 71730, Note_on_c, 3, 72, 100
5, 71760, Note_on_c, 3, 72, 0
5, 71760, Note_on_c, 3, 74, 100
5, 71880, Note_on_c, 3, 74, 0
5, 72030, Note_on_c, 3, 65, 100
5, 72060, Note_on_c, 3, 65, 0
5, 72060, Note_on_c, 3, 67, 100
5, 72090, Note_on_c, 3, 67, 0
5, 72090, Note_on_c, 3, 69, 100
5, 72120, Note_on_c, 3, 69, 0
5, 72120, Note_on_c, 3, 70, 100
5, 72150, Note_on_c, 3, 70, 0
5, 72150, Note_on_c, 3, 72, 100
5, 72180, Note_on_c, 3, 72, 0
5, 72180, Note_on_c, 3, 74, 100
5, 72210, Note_on_c, 3, 74, 0
5, 72210, Note_on_c, 3, 75, 100
5, 72240, Note_on_c, 3, 75, 0
5, 72240, Note_on_c, 3, 77, 100
5, 72360, Note_on_c, 3, 77, 0
5, 72510, Note_on_c, 3, 69, 100
5, 72540, Note_on_c, 3, 69, 0
5, 72540, Note_on_c, 3, 70, 100
5, 72570, Note_on_c, 3, 70, 0
5, 72570, Note_on_c, 3, 72, 100
5, 72600, Note_on_c, 3, 72, 0
5, 72600, Note_on_c, 3, 74, 100
5, 72630, Note_on_c, 3, 74, 0
5, 72630, Note_on_c, 3, 75, 100
5, 72660, Note_on_c, 3, 75, 0
5, 72660, Note_on_c, 3, 77, 100
5, 72690, Note_on_c, 3, 77, 0
5, 72690, Note_on_c, 3, 79, 100
5, 72720, Note_on_c, 3, 79, 0
5, 72720, Note_on_c, 3, 80, 100
5, 72900, Note_on_c, 3, 80, 0
5, 72900, Note_on_c, 3, 79, 100
5, 72960, Note_on_c, 3, 79, 0
5, 72960, Note_on_c, 3, 77, 100
5, 73020, Note_on_c, 3, 77, 0
5, 73020, Note_on_c, 3, 75, 100
5, 73080, Note_on_c, 3, 75, 0
5, 73080, Note_on_c, 3, 74, 100
5, 73140, Note_on_c, 3, 74, 0
5, 73140, Note_on_c, 3, 72, 100
5, 73200, Note_on_c, 3, 72, 0
5, 73200, Note_on_c, 3, 70, 100
5, 73260, Note_on_c, 3, 70, 0
5, 73260, Note_on_c, 3, 68, 100
5, 73320, Note_on_c, 3, 68, 0
5, 73320, Note_on_c, 3, 67, 100
5, 73380, Note_on_c, 3, 67, 0
5, 73380, Note_on_c, 3, 65, 100
5, 73440, Note_on_c, 3, 65, 0
5, 73440, Note_on_c, 3, 63, 100
5, 73500, Note_on_c, 3, 63, 0
5, 73500, Note_on_c, 3, 65, 100
5, 73530, Note_on_c, 3, 65, 0
5, 73530, Note_on_c, 3, 67, 100
5, 73560, Note_on_c, 3, 67, 0
5, 73560, Note_on_c, 3, 69, 100
5, 73590, Note_on_c, 3, 69, 0
5, 73590, Note_on_c, 3, 70, 100
5, 73620, Note_on_c, 3, 70, 0
5, 73620, Note_on_c, 3, 72, 100
5, 73650, Note_on_c, 3, 72, 0
5, 73650, Note_on_c, 3, 74, 100
5, 73680, Note_on_c, 3, 74, 0
5, 73680, Note_on_c, 3, 75, 100
5, 73710, Note_on_c, 3, 75, 0
5, 73710, Note_on_c, 3, 77, 100
5, 73740, Note_on_c, 3, 77, 0
5, 73740, Note_on_c, 3, 79, 100
5, 73770, Note_on_c, 3, 79, 0
5, 73770, Note_on_c, 3, 77, 100
5, 73800, Note_on_c, 3, 77, 0
5, 73800, Note_on_c, 3, 79, 100
5, 73830, Note_on_c, 3, 79, 0
5, 73830, Note_on_c, 3, 77, 100
5, 73860, Note_on_c, 3, 77, 0
5, 73860, Note_on_c, 3, 79, 100
5, 73890, Note_on_c, 3, 79, 0
5, 73890, Note_on_c, 3, 77, 100
5, 73920, Note_on_c, 3, 77, 0
5, 73920, Note_on_c, 3, 79, 100
5, 73980, Note_on_c, 3, 79, 0
5, 73980, Note_on_c, 3, 77, 100
5, 74040, Note_on_c, 3, 77, 0
5, 74040, Note_on_c, 3, 75, 100
5, 74100, Note_on_c, 3, 75, 0
5, 74100, Note_on_c, 3, 74, 100
5, 74160, Note_on_c, 3, 74, 0
5, 74160, Note_on_c, 3, 72, 100
5, 74220, Note_on_c, 3, 72, 0
5, 74220, Note_on_c, 3, 70, 100
5, 74280, Note_on_c, 3, 70, 0
5, 74280, Note_on_c, 3, 69, 100
5, 74340, Note_on_c, 3, 69, 0
5, 74340, Note_on_c, 3, 67, 100
5, 74400, Note_on_c, 3, 67, 0
5, 74400, Note_on_c, 3, 62, 100
5, 74430, Note_on_c, 3, 62, 0
5, 74430, Note_on_c, 3, 65, 100
5, 74460, Note_on_c, 3, 65, 0
5, 74460, Note_on_c, 3, 70, 100
5, 74490, Note_on_c, 3, 70, 0
5, 74490, Note_on_c, 3, 65, 100
5, 74520, Note_on_c, 3, 65, 0
5, 74520, Note_on_c, 3, 70, 100
5, 74550, Note_on_c, 3, 70, 0
5, 74550, Note_on_c, 3, 65, 100
5, 74580, Note_on_c, 3, 65, 0
5, 74580, Note_on_c, 3, 70, 100
5, 74610, Note_on_c, 3, 70, 0
5, 74610, Note_on_c, 3, 65, 100
5, 74640, Note_on_c, 3, 65, 0
5, 74640, Note_on_c, 3, 62, 100
5, 74670, Note_on_c, 3, 62, 0
5, 74670, Note_on_c, 3, 65, 100
5, 74700, Note_on_c, 3, 65, 0
5, 74700, Note_on_c, 3, 70, 100
5, 74730, Note_on_c, 3, 70, 0
5, 74730, Note_on_c, 3, 65, 100
5, 74760, Note_on_c, 3, 65, 0
5, 74760, Note_on_c, 3, 70, 100
5, 74790, Note_on_c, 3, 70, 0
5, 74790, Note_on_c, 3, 65, 100
5, 74820, Note_on_c, 3, 65, 0
5, 74820, Note_on_c, 3, 70, 100
5, 74850, Note_on_c, 3, 70, 0
5, 74850, Note_on_c, 3, 65, 100
5, 74880, Note_on_c, 3, 65, 0
5, 74880, Note_on_c, 3, 63, 100
5, 74910, Note_on_c, 3, 63, 0
5, 74910, Note_on_c, 3, 65, 100
5, 74940, Note_on_c, 3, 65, 0
5, 74940, Note_on_c, 3, 69, 100
5, 74970, Note_on_c, 3, 69, 0
5, 74970, Note_on_c, 3, 65, 100
5, 75000, Note_on_c, 3, 65, 0
5, 75000, Note_on_c, 3, 69, 100
5, 75030, Note_on_c, 3, 69, 0
5, 75030, Note_on_c, 3, 65, 100
5, 75060, Note_on_c, 3, 65, 0
5, 75060, Note_on_c, 3, 69, 100
5, 75090, Note_on_c, 3, 69, 0
5, 75090, Note_on_c, 3, 65, 100
5, 75120, Note_on_c, 3, 65, 0
5, 75120, Note_on_c, 3, 63, 100
5, 75150, Note_on_c, 3, 63, 0
5, 75150, Note_on_c, 3, 65, 100
5, 75180, Note_on_c, 3, 65, 0
5, 75180, Note_on_c, 3, 69, 100
5, 75210, Note_on_c, 3, 69, 0
5, 75210, Note_on_c, 3, 65, 100
5, 75240, Note_on_c, 3, 65, 0
5, 75240, Note_on_c, 3, 69, 100
5, 75270, Note_on_c, 3, 69, 0
5, 75270, Note_on_c, 3, 65, 100
5, 75300, Note_on_c, 3, 65, 0
5, 75300, Note_on_c, 3, 69, 100
5, 75330, Note_on_c, 3, 69, 0
5, 75330, Note_on_c, 3, 65, 100
5, 75360, Note_on_c, 3, 65, 0
5, 75360, Note_on_c, 3, 62, 100
5, 75360, Note_on_c, 3, 65, 100
5, 75360, Note_on_c, 3, 70, 100
5, 75480, Note_on_c, 3, 70, 0
5, 75480, Note_on_c, 3, 65, 0
5, 75480, Note_on_c, 3, 62, 0
5, 75480, Note_on_c, 3, 58, 100
5, 75480, Note_on_c, 3, 65, 100
5, 75480, Note_on_c, 3, 70, 100
5, 75600, Note_on_c, 3, 70, 0
5, 75600, Note_on_c, 3, 65, 0
5, 75600, Note_on_c, 3, 58, 0
5, 75720, Note_on_c, 3, 58, 100
5, 75720, Note_on_c, 3, 65, 100
5, 75720, Note_on_c, 3, 70, 100
5, 75840, Note_on_c, 3, 70, 0
5, 75840, Note_on_c, 3, 65, 0
5, 75840, Note_on_c, 3, 58, 0
5, 75960, Note_on_c, 3, 62, 100
5, 76050, Note_on_c, 3, 62, 0
5, 76050, Note_on_c, 3, 65, 100
5, 76080, Note_on_c, 3, 65, 0
5, 76080, Note_on_c, 3, 70, 100
5, 76140, Note_on_c, 3, 70, 0
5, 76140, Note_on_c, 3, 70, 100
5, 76200, Note_on_c, 3, 70, 0
5, 76200, Note_on_c, 3, 70, 100
5, 76260, Note_on_c, 3, 70, 0
5, 76260, Note_on_c, 3, 70, 100
5, 76320, Note_on_c, 3, 70, 0
5, 76320, Note_on_c, 3, 70, 100
5, 76380, Note_on_c, 3, 70, 0
5, 76380, Note_on_c, 3, 69, 100
5, 76440, Note_on_c, 3, 69, 0
5, 76440, Note_on_c, 3, 69, 100
5, 76560, Note_on_c, 3, 69, 0
5, 76680, Note_on_c, 3, 63, 100
5, 76680, Note_on_c, 3, 72, 100
5, 76800, Note_on_c, 3, 72, 0
5, 76800, Note_on_c, 3, 63, 0
5, 76920, Note_on_c, 3, 63, 100
5, 77010, Note_on_c, 3, 63, 0
5, 77010, Note_on_c, 3, 69, 100
5, 77040, Note_on_c, 3, 69, 0
5, 77040, Note_on_c, 3, 72, 100
5, 77100, Note_on_c, 3, 72, 0
5, 77100, Note_on_c, 3, 72, 100
5, 77160, Note_on_c, 3, 72, 0
5, 77160, Note_on_c, 3, 72, 100
5, 77220, Note_on_c, 3, 72, 0
5, 77220, Note_on_c, 3, 72, 100
5, 77280, Note_on_c, 3, 72, 0
5, 77280, Note_on_c, 3, 72, 100
5, 77340, Note_on_c, 3, 72, 0
5, 77340, Note_on_c, 3, 70, 100
5, 77400, Note_on_c, 3, 70, 0
5, 77400, Note_on_c, 3, 70, 100
5, 77520, Note_on_c, 3, 70, 0
5, 77640, Note_on_c, 3, 58, 100
5, 77640, Note_on_c, 3, 65, 100
5, 77640, Note_on_c, 3, 74, 100
5, 77760, Note_on_c, 3, 74, 0
5, 77760, Note_on_c, 3, 65, 0
5, 77760, Note_on_c, 3, 58, 0
5, 77880, Note_on_c, 3, 65, 100
5, 77970, Note_on_c, 3, 65, 0
5, 77970, Note_on_c, 3, 70, 100
5, 78000, Note_on_c, 3, 70, 0
5, 78000, Note_on_c, 3, 74, 100
5, 78060, Note_on_c, 3, 74, 0
5, 78060, Note_on_c, 3, 74, 100
5, 78120, Note_on_c, 3, 74, 0
5, 78120, Note_on_c, 3, 74, 100
5, 78180, Note_on_c, 3, 74, 0
5, 78180, Note_on_c, 3, 74, 100
5, 78240, Note_on_c, 3, 74, 0
5, 78240, Note_on_c, 3, 60, 100
5, 78240, Note_on_c, 3, 51, 100
5, 78300, Note_on_c, 3, 51, 0
5, 78300, Note_on_c, 3, 60, 0
5, 78300, Note_on_c, 3, 60, 100
5, 78300, Note_on_c, 3, 51, 100
5, 78420, Note_on_c, 3, 51, 0
5, 78420, Note_on_c, 3, 60, 0
5, 78420, Note_on_c, 3, 60, 100
5, 78420, Note_on_c, 3, 51, 100
5, 78540, Note_on_c, 3, 51, 0
5, 78540, Note_on_c, 3, 60, 0
5, 78540, Note_on_c, 3, 60, 100
5, 78540, Note_on_c, 3, 51, 100
5, 78660, Note_on_c, 3, 51, 0
5, 78660, Note_on_c, 3, 60, 0
5, 78660, Note_on_c, 3, 60, 100
5, 78660, Note_on_c, 3, 51, 100
5, 78780, Note_on_c, 3, 51, 0
5, 78780, Note_on_c, 3, 60, 0
5, 78780, Note_on_c, 3, 60, 100
5, 78780, Note_on_c, 3, 51, 100
5, 78900, Note_on_c, 3, 51, 0
5, 78900, Note_on_c, 3, 60, 0
5, 78900, Note_on_c, 3, 60, 100
5, 78900, Note_on_c, 3, 51, 100
5, 79020, Note_on_c, 3, 51, 0
5, 79020, Note_on_c, 3, 60, 0
5, 79020, Note_on_c, 3, 60, 100
5, 79020, Note_on_c, 3, 51, 100
5, 79140, Note_on_c, 3, 51, 0
5, 79140, Note_on_c, 3, 60, 0
5, 79140, Note_on_c, 3, 60, 100
5, 79140, Note_on_c, 3, 51, 100
5, 79200, Note_on_c, 3, 51, 0
5, 79200, Note_on_c, 3, 60, 0
5, 79200, Note_on_c, 3, 50, 100
5, 79200, Note_on_c, 3, 58, 100
5, 79320, Note_on_c, 3, 58, 0
5, 79320, Note_on_c, 3, 50, 0
5, 79320, Note_on_c, 3, 62, 100
5, 79350, Note_on_c, 3, 62, 0
5, 79350, Note_on_c, 3, 62, 100
5, 79380, Note_on_c, 3, 62, 0
5, 79380, Note_on_c, 3, 62, 100
5, 79410, Note_on_c, 3, 62, 0
5, 79410, Note_on_c, 3, 62, 100
5, 79440, Note_on_c, 3, 62, 0
5, 79440, Note_on_c, 3, 65, 100
5, 79470, Note_on_c, 3, 65, 0
5, 79470, Note_on_c, 3, 65, 100
5, 79500, Note_on_c, 3, 65, 0
5, 79500, Note_on_c, 3, 65, 100
5, 79530, Note_on_c, 3, 65, 0
5, 79530, Note_on_c, 3, 65, 100
5, 79560, Note_on_c, 3, 65, 0
5, 79560, Note_on_c, 3, 62, 100
5, 79590, Note_on_c, 3, 62, 0
5, 79590, Note_on_c, 3, 62, 100
5, 79620, Note_on_c, 3, 62, 0
5, 79620, Note_on_c, 3, 62, 100
5, 79650, Note_on_c, 3, 62, 0
5, 79650, Note_on_c, 3, 62, 100
5, 79680, Note_on_c, 3, 62, 0
5, 79680, Note_on_c, 3, 63, 100
5, 79710, Note_on_c, 3, 63, 0
5, 79710, Note_on_c, 3, 63, 100
5, 79740, Note_on_c, 3, 63, 0
5, 79740, Note_on_c, 3, 63, 100
5, 79770, Note_on_c, 3, 63, 0
5, 79770, Note_on_c, 3, 63, 100
5, 79800, Note_on_c, 3, 63, 0
5, 79800, Note_on_c, 3, 60, 100
5, 79830, Note_on_c, 3, 60, 0
5, 79830, Note_on_c, 3, 60, 100
5, 79860, Note_on_c, 3, 60, 0
5, 79860, Note_on_c, 3, 60, 100
5, 79890, Note_on_c, 3, 60, 0
5, 79890, Note_on_c, 3, 60, 100
5, 79920, Note_on_c, 3, 60, 0
5, 79920, Note_on_c, 3, 63, 100
5, 79950, Note_on_c, 3, 63, 0
5, 79950, Note_on_c, 3, 63, 100
5, 79980, Note_on_c, 3, 63, 0
5, 79980, Note_on_c, 3, 63, 100
5, 80010, Note_on_c, 3, 63, 0
5, 80010, Note_on_c, 3, 63, 100
5, 80040, Note_on_c, 3, 63, 0
5, 80040, Note_on_c, 3, 60, 100
5, 80070, Note_on_c, 3, 60, 0
5, 80070, Note_on_c, 3, 60, 100
5, 80100, Note_on_c, 3, 60, 0
5, 80100, Note_on_c, 3, 60, 100
5, 80130, Note_on_c, 3, 60, 0
5, 80130, Note_on_c, 3, 60, 100
5, 80160, Note_on_c, 3, 60, 0
5, 80160, Note_on_c, 3, 58, 100
5, 80400, Note_on_c, 3, 58, 0
5, 80400, Note_on_c, 3, 58, 100
5, 80580, Note_on_c, 3, 58, 0
5, 80580, Note_on_c, 3, 57, 100
5, 80610, Note_on_c, 3, 57, 0
5, 80610, Note_on_c, 3, 58, 100
5, 80640, Note_on_c, 3, 58, 0
5, 80640, Note_on_c, 3, 62, 100
5, 80880, Note_on_c, 3, 62, 0
5, 80880, Note_on_c, 3, 65, 100
5, 81120, Note_on_c, 3, 65, 0
5, 81120, Note_on_c, 3, 70, 100
5, 81360, Note_on_c, 3, 70, 0
5, 81360, Note_on_c, 3, 55, 100
5, 81540, Note_on_c, 3, 55, 0
5, 81540, Note_on_c, 3, 54, 100
5, 81570, Note_on_c, 3, 54, 0
5, 81570, Note_on_c, 3, 55, 100
5, 81600, Note_on_c, 3, 55, 0
5, 81600, Note_on_c, 3, 58, 100
5, 81840, Note_on_c, 3, 58, 0
5, 81840, Note_on_c, 3, 62, 100
5, 82080, Note_on_c, 3, 62, 0
5, 82080, Note_on_c, 3, 66, 100
5, 82320, Note_on_c, 3, 66, 0
5, 89280, Note_on_c, 3, 67, 100
5, 89505, Note_on_c, 3, 70, 100
5, 89520, Note_on_c, 3, 70, 0
5, 89520, Note_on_c, 3, 67, 0
5, 89520, Note_on_c, 3, 68, 100
5, 89640, Note_on_c, 3, 68, 0
5, 89640, Note_on_c, 3, 67, 100
5, 89700, Note_on_c, 3, 67, 0
5, 89700, Note_on_c, 3, 65, 100
5, 89760, Note_on_c, 3, 65, 0
5, 89760, Note_on_c, 3, 67, 100
5, 89940, Note_on_c, 3, 67, 0
5, 89940, Note_on_c, 3, 68, 100
5, 89970, Note_on_c, 3, 68, 0
5, 89970, Note_on_c, 3, 67, 100
5, 90000, Note_on_c, 3, 67, 0
5, 90000, Note_on_c, 3, 72, 100
5, 90120, Note_on_c, 3, 72, 0
5, 90120, Note_on_c, 3, 72, 100
5, 90240, Note_on_c, 3, 72, 0
5, 90240, Note_on_c, 3, 72, 100
5, 90300, Note_on_c, 3, 71, 100
5, 90315, Note_on_c, 3, 71, 0
5, 90315, Note_on_c, 3, 72, 100
5, 90330, Note_on_c, 3, 72, 0
5, 90330, Note_on_c, 3, 74, 100
5, 90345, Note_on_c, 3, 74, 0
5, 90345, Note_on_c, 3, 72, 100
5, 90360, Note_on_c, 3, 72, 0
5, 90360, Note_on_c, 3, 72, 0
5, 90360, Note_on_c, 3, 71, 100
5, 90420, Note_on_c, 3, 71, 0
5, 90540, Note_on_c, 3, 71, 100
5, 90600, Note_on_c, 3, 71, 0
5, 90600, Note_on_c, 3, 72, 100
5, 90660, Note_on_c, 3, 72, 0
5, 90660, Note_on_c, 3, 74, 100
5, 90720, Note_on_c, 3, 74, 0
5, 90720, Note_on_c, 3, 68, 100
5, 90960, Note_on_c, 3, 68, 0
5, 90960, Note_on_c, 3, 67, 100
5, 91020, Note_on_c, 3, 67, 0
5, 91020, Note_on_c, 3, 71, 100
5, 91080, Note_on_c, 3, 71, 0
5, 91080, Note_on_c, 3, 72, 100
5, 91140, Note_on_c, 3, 72, 0
5, 91140, Note_on_c, 3, 74, 100
5, 91200, Note_on_c, 3, 74, 0
5, 91200, Note_on_c, 3, 68, 100
5, 91440, Note_on_c, 3, 68, 0
5, 91440, Note_on_c, 3, 67, 100
5, 91500, Note_on_c, 3, 67, 0
5, 91500, Note_on_c, 3, 71, 100
5, 91560, Note_on_c, 3, 71, 0
5, 91560, Note_on_c, 3, 72, 100
5, 91620, Note_on_c, 3, 72, 0
5, 91620, Note_on_c, 3, 74, 100
5, 91680, Note_on_c, 3, 74, 0
5, 91680, Note_on_c, 3, 56, 100
5, 91800, Note_on_c, 3, 56, 0
5, 91800, Note_on_c, 3, 55, 100
5, 91920, Note_on_c, 3, 55, 0
5, 91920, Note_on_c, 3, 77, 100
5, 92190, Note_on_c, 3, 77, 0
5, 92190, Note_on_c, 3, 79, 100
5, 92220, Note_on_c, 3, 79, 0
5, 92220, Note_on_c, 3, 80, 100
5, 92250, Note_on_c, 3, 80, 0
5, 92250, Note_on_c, 3, 77, 100
5, 92280, Note_on_c, 3, 77, 0
5, 92280, Note_on_c, 3, 74, 100
5, 92310, Note_on_c, 3, 74, 0
5, 92310, Note_on_c, 3, 75, 100
5, 92340, Note_on_c, 3, 75, 0
5, 92340, Note_on_c, 3, 77, 100
5, 92370, Note_on_c, 3, 77, 0
5, 92370, Note_on_c, 3, 74, 100
5, 92400, Note_on_c, 3, 74, 0
5, 92400, Note_on_c, 3, 71, 100
5, 92430, Note_on_c, 3, 71, 0
5, 92430, Note_on_c, 3, 72, 100
5, 92460, Note_on_c, 3, 72, 0
5, 92460, Note_on_c, 3, 74, 100
5, 92490, Note_on_c, 3, 74, 0
5, 92490, Note_on_c, 3, 71, 100
5, 92520, Note_on_c, 3, 71, 0
5, 92520, Note_on_c, 3, 65, 100
5, 92550, Note_on_c, 3, 65, 0
5, 92550, Note_on_c, 3, 67, 100
5, 92580, Note_on_c, 3, 67, 0
5, 92580, Note_on_c, 3, 68, 100
5, 92610, Note_on_c, 3, 68, 0
5, 92610, Note_on_c, 3, 65, 100
5, 92625, Note_on_c, 3, 65, 100
5, 92640, Note_on_c, 3, 65, 0
5, 92640, Note_on_c, 3, 65, 0
5, 92640, Note_on_c, 3, 63, 100
5, 92700, Note_on_c, 3, 63, 0
5, 92700, Note_on_c, 3, 62, 100
5, 92730, Note_on_c, 3, 62, 0
5, 92730, Note_on_c, 3, 60, 100
5, 92760, Note_on_c, 3, 60, 0
5, 92760, Note_on_c, 3, 60, 100
5, 92880, Note_on_c, 3, 60, 0
5, 93150, Note_on_c, 3, 67, 100
5, 93180, Note_on_c, 3, 67, 0
5, 93180, Note_on_c, 3, 66, 100
5, 93210, Note_on_c, 3, 66, 0
5, 93210, Note_on_c, 3, 67, 100
5, 93240, Note_on_c, 3, 67, 0
5, 93240, Note_on_c, 3, 68, 100
5, 93270, Note_on_c, 3, 68, 0
5, 93270, Note_on_c, 3, 67, 100
5, 93300, Note_on_c, 3, 67, 0
5, 93300, Note_on_c, 3, 66, 100
5, 93330, Note_on_c, 3, 66, 0
5, 93330, Note_on_c, 3, 67, 100
5, 93360, Note_on_c, 3, 67, 0
5, 93360, Note_on_c, 3, 63, 100
5, 93390, Note_on_c, 3, 63, 0
5, 93390, Note_on_c, 3, 67, 100
5, 93420, Note_on_c, 3, 67, 0
5, 93420, Note_on_c, 3, 62, 100
5, 93450, Note_on_c, 3, 62, 0
5, 93450, Note_on_c, 3, 67, 100
5, 93480, Note_on_c, 3, 67, 0
5, 93480, Note_on_c, 3, 60, 100
5, 93510, Note_on_c, 3, 60, 0
5, 93510, Note_on_c, 3, 67, 100
5, 93540, Note_on_c, 3, 67, 0
5, 93540, Note_on_c, 3, 59, 100
5, 93570, Note_on_c, 3, 59, 0
5, 93570, Note_on_c, 3, 67, 100
5, 93600, Note_on_c, 3, 67, 0
5, 93600, Note_on_c, 3, 60, 100
5, 93720, Note_on_c, 3, 60, 0
5, 94110, Note_on_c, 3, 72, 100
5, 94140, Note_on_c, 3, 72, 0
5, 94140, Note_on_c, 3, 71, 100
5, 94170, Note_on_c, 3, 71, 0
5, 94170, Note_on_c, 3, 72, 100
5, 94200, Note_on_c, 3, 72, 0
5, 94200, Note_on_c, 3, 73, 100
5, 94230, Note_on_c, 3, 73, 0
5, 94230, Note_on_c, 3, 72, 100
5, 94260, Note_on_c, 3, 72, 0
5, 94260, Note_on_c, 3, 71, 100
5, 94290, Note_on_c, 3, 71, 0
5, 94290, Note_on_c, 3, 72, 100
5, 94320, Note_on_c, 3, 72, 0
5, 94320, Note_on_c, 3, 68, 100
5, 94350, Note_on_c, 3, 68, 0
5, 94350, Note_on_c, 3, 72, 100
5, 94380, Note_on_c, 3, 72, 0
5, 94380, Note_on_c, 3, 67, 100
5, 94410, Note_on_c, 3, 67, 0
5, 94410, Note_on_c, 3, 72, 100
5, 94440, Note_on_c, 3, 72, 0
5, 94440, Note_on_c, 3, 65, 100
5, 94470, Note_on_c, 3, 65, 0
5, 94470, Note_on_c, 3, 72, 100
5, 94500, Note_on_c, 3, 72, 0
5, 94500, Note_on_c, 3, 64, 100
5, 94530, Note_on_c, 3, 64, 0
5, 94530, Note_on_c, 3, 72, 100
5, 94560, Note_on_c, 3, 72, 0
5, 94560, Note_on_c, 3, 65, 100
5, 94680, Note_on_c, 3, 65, 0
5, 95070, Note_on_c, 3, 65, 100
5, 95100, Note_on_c, 3, 65, 0
5, 95100, Note_on_c, 3, 64, 100
5, 95130, Note_on_c, 3, 64, 0
5, 95130, Note_on_c, 3, 65, 100
5, 95160, Note_on_c, 3, 65, 0
5, 95160, Note_on_c, 3, 67, 100
5, 95190, Note_on_c, 3, 67, 0
5, 95190, Note_on_c, 3, 65, 100
5, 95220, Note_on_c, 3, 65, 0
5, 95220, Note_on_c, 3, 64, 100
5, 95250, Note_on_c, 3, 64, 0
5, 95250, Note_on_c, 3, 65, 100
5, 95280, Note_on_c, 3, 65, 0
5, 95280, Note_on_c, 3, 62, 100
5, 95310, Note_on_c, 3, 62, 0
5, 95310, Note_on_c, 3, 65, 100
5, 95340, Note_on_c, 3, 65, 0
5, 95340, Note_on_c, 3, 60, 100
5, 95370, Note_on_c, 3, 60, 0
5, 95370, Note_on_c, 3, 65, 100
5, 95400, Note_on_c, 3, 65, 0
5, 95400, Note_on_c, 3, 58, 100
5, 95430, Note_on_c, 3, 58, 0
5, 95430, Note_on_c, 3, 65, 100
5, 95460, Note_on_c, 3, 65, 0
5, 95460, Note_on_c, 3, 57, 100
5, 95490, Note_on_c, 3, 57, 0
5, 95490, Note_on_c, 3, 65, 100
5, 95520, Note_on_c, 3, 65, 0
5, 95520, Note_on_c, 3, 58, 100
5, 95640, Note_on_c, 3, 58, 0
5, 96030, Note_on_c, 3, 70, 100
5, 96060, Note_on_c, 3, 70, 0
5, 96060, Note_on_c, 3, 69, 100
5, 96090, Note_on_c, 3, 69, 0
5, 96090, Note_on_c, 3, 70, 100
5, 96120, Note_on_c, 3, 70, 0
5, 96120, Note_on_c, 3, 72, 100
5, 96150, Note_on_c, 3, 72, 0
5, 96150, Note_on_c, 3, 70, 100
5, 96180, Note_on_c, 3, 70, 0
5, 96180, Note_on_c, 3, 69, 100
5, 96210, Note_on_c, 3, 69, 0
5, 96210, Note_on_c, 3, 70, 100
5, 96240, Note_on_c, 3, 70, 0
5, 96240, Note_on_c, 3, 67, 100
5, 96270, Note_on_c, 3, 67, 0
5, 96270, Note_on_c, 3, 70, 100
5, 96300, Note_on_c, 3, 70, 0
5, 96300, Note_on_c, 3, 65, 100
5, 96330, Note_on_c, 3, 65, 0
5, 96330, Note_on_c, 3, 70, 100
5, 96360, Note_on_c, 3, 70, 0
5, 96360, Note_on_c, 3, 63, 100
5, 96390, Note_on_c, 3, 63, 0
5, 96390, Note_on_c, 3, 70, 100
5, 96420, Note_on_c, 3, 70, 0
5, 96420, Note_on_c, 3, 62, 100
5, 96450, Note_on_c, 3, 62, 0
5, 96450, Note_on_c, 3, 70, 100
5, 96480, Note_on_c, 3, 70, 0
5, 96480, Note_on_c, 3, 63, 100
5, 96600, Note_on_c, 3, 63, 0
5, 96750, Note_on_c, 3, 73, 100
5, 96780, Note_on_c, 3, 73, 0
5, 96780, Note_on_c, 3, 72, 100
5, 96810, Note_on_c, 3, 72, 0
5, 96810, Note_on_c, 3, 73, 100
5, 96840, Note_on_c, 3, 73, 0
5, 96840, Note_on_c, 3, 75, 100
5, 96870, Note_on_c, 3, 75, 0
5, 96870, Note_on_c, 3, 73, 100
5, 96900, Note_on_c, 3, 73, 0
5, 96900, Note_on_c, 3, 72, 100
5, 96930, Note_on_c, 3, 72, 0
5, 96930, Note_on_c, 3, 73, 100
5, 96960, Note_on_c, 3, 73, 0
5, 96960, Note_on_c, 3, 72, 100
5, 97080, Note_on_c, 3, 72, 0
5, 97230, Note_on_c, 3, 70, 100
5, 97260, Note_on_c, 3, 70, 0
5, 97260, Note_on_c, 3, 69, 100
5, 97290, Note_on_c, 3, 69, 0
5, 97290, Note_on_c, 3, 70, 100
5, 97320, Note_on_c, 3, 70, 0
5, 97320, Note_on_c, 3, 72, 100
5, 97350, Note_on_c, 3, 72, 0
5, 97350, Note_on_c, 3, 70, 100
5, 97380, Note_on_c, 3, 70, 0
5, 97380, Note_on_c, 3, 69, 100
5, 97410, Note_on_c, 3, 69, 0
5, 97410, Note_on_c, 3, 70, 100
5, 97440, Note_on_c, 3, 70, 0
5, 97440, Note_on_c, 3, 69, 100
5, 97560, Note_on_c, 3, 69, 0
5, 97710, Note_on_c, 3, 75, 100
5, 97740, Note_on_c, 3, 75, 0
5, 97740, Note_on_c, 3, 74, 100
5, 97770, Note_on_c, 3, 74, 0
5, 97770, Note_on_c, 3, 75, 100
5, 97800, Note_on_c, 3, 75, 0
5, 97800, Note_on_c, 3, 74, 100
5, 97830, Note_on_c, 3, 74, 0
5, 97830, Note_on_c, 3, 75, 100
5, 97860, Note_on_c, 3, 75, 0
5, 97860, Note_on_c, 3, 77, 100
5, 97890, Note_on_c, 3, 77, 0
5, 97890, Note_on_c, 3, 75, 100
5, 97920, Note_on_c, 3, 75, 0
5, 97920, Note_on_c, 3, 74, 100
5, 98040, Note_on_c, 3, 74, 0
5, 98190, Note_on_c, 3, 72, 100
5, 98220, Note_on_c, 3, 72, 0
5, 98220, Note_on_c, 3, 71, 100
5, 98250, Note_on_c, 3, 71, 0
5, 98250, Note_on_c, 3, 72, 100
5, 98280, Note_on_c, 3, 72, 0
5, 98280, Note_on_c, 3, 71, 100
5, 98310, Note_on_c, 3, 71, 0
5, 98310, Note_on_c, 3, 72, 100
5, 98340, Note_on_c, 3, 72, 0
5, 98340, Note_on_c, 3, 74, 100
5, 98370, Note_on_c, 3, 74, 0
5, 98370, Note_on_c, 3, 72, 100
5, 98400, Note_on_c, 3, 72, 0
5, 98400, Note_on_c, 3, 71, 100
5, 98520, Note_on_c, 3, 71, 0
5, 98670, Note_on_c, 3, 65, 100
5, 98700, Note_on_c, 3, 65, 0
5, 98700, Note_on_c, 3, 64, 100
5, 98730, Note_on_c, 3, 64, 0
5, 98730, Note_on_c, 3, 65, 100
5, 98760, Note_on_c, 3, 65, 0
5, 98760, Note_on_c, 3, 67, 100
5, 98790, Note_on_c, 3, 67, 0
5, 98790, Note_on_c, 3, 65, 100
5, 98820, Note_on_c, 3, 65, 0
5, 98820, Note_on_c, 3, 64, 100
5, 98850, Note_on_c, 3, 64, 0
5, 98850, Note_on_c, 3, 65, 100
5, 98880, Note_on_c, 3, 65, 0
5, 98880, Note_on_c, 3, 63, 100
5, 99000, Note_on_c, 3, 63, 0
5, 99150, Note_on_c, 3, 73, 100
5, 99180, Note_on_c, 3, 73, 0
5, 99180, Note_on_c, 3, 72, 100
5, 99210, Note_on_c, 3, 72, 0
5, 99210, Note_on_c, 3, 73, 100
5, 99240, Note_on_c, 3, 73, 0
5, 99240, Note_on_c, 3, 75, 100
5, 99270, Note_on_c, 3, 75, 0
5, 99270, Note_on_c, 3, 73, 100
5, 99300, Note_on_c, 3, 73, 0
5, 99300, Note_on_c, 3, 72, 100
5, 99330, Note_on_c, 3, 72, 0
5, 99330, Note_on_c, 3, 73, 100
5, 99360, Note_on_c, 3, 73, 0
5, 99360, Note_on_c, 3, 72, 100
5, 99480, Note_on_c, 3, 72, 0
5, 99630, Note_on_c, 3, 70, 100
5, 99660, Note_on_c, 3, 70, 0
5, 99660, Note_on_c, 3, 69, 100
5, 99690, Note_on_c, 3, 69, 0
5, 99690, Note_on_c, 3, 70, 100
5, 99720, Note_on_c, 3, 70, 0
5, 99720, Note_on_c, 3, 69, 100
5, 99750, Note_on_c, 3, 69, 0
5, 99750, Note_on_c, 3, 70, 100
5, 99780, Note_on_c, 3, 70, 0
5, 99780, Note_on_c, 3, 72, 100
5, 99810, Note_on_c, 3, 72, 0
5, 99810, Note_on_c, 3, 70, 100
5, 99840, Note_on_c, 3, 70, 0
5, 99840, Note_on_c, 3, 68, 100
5, 99960, Note_on_c, 3, 68, 0
5, 99990, Note_on_c, 3, 67, 100
5, 100020, Note_on_c, 3, 67, 0
5, 100020, Note_on_c, 3, 68, 100
5, 100050, Note_on_c, 3, 68, 0
5, 100050, Note_on_c, 3, 67, 100
5, 100080, Note_on_c, 3, 67, 0
5, 100080, Note_on_c, 3, 65, 100
5, 100200, Note_on_c, 3, 65, 0
5, 100230, Note_on_c, 3, 63, 100
5, 100260, Note_on_c, 3, 63, 0
5, 100260, Note_on_c, 3, 65, 100
5, 100290, Note_on_c, 3, 65, 0
5, 100290, Note_on_c, 3, 63, 100
5, 100320, Note_on_c, 3, 63, 0
5, 100320, Note_on_c, 3, 62, 100
5, 100440, Note_on_c, 3, 62, 0
5, 100830, Note_on_c, 3, 58, 100
5, 100860, Note_on_c, 3, 58, 0
5, 100860, Note_on_c, 3, 62, 100
5, 100890, Note_on_c, 3, 62, 0
5, 100890, Note_on_c, 3, 58, 100
5, 100920, Note_on_c, 3, 58, 0
5, 100920, Note_on_c, 3, 65, 100
5, 100950, Note_on_c, 3, 65, 0
5, 100950, Note_on_c, 3, 62, 100
5, 100980, Note_on_c, 3, 62, 0
5, 100980, Note_on_c, 3, 70, 100
5, 101010, Note_on_c, 3, 70, 0
5, 101010, Note_on_c, 3, 65, 100
5, 101040, Note_on_c, 3, 65, 0
5, 101040, Note_on_c, 3, 74, 100
5, 101070, Note_on_c, 3, 74, 0
5, 101070, Note_on_c, 3, 70, 100
5, 101100, Note_on_c, 3, 70, 0
5, 101100, Note_on_c, 3, 77, 100
5, 101130, Note_on_c, 3, 77, 0
5, 101130, Note_on_c, 3, 75, 100
5, 101160, Note_on_c, 3, 75, 0
5, 101160, Note_on_c, 3, 74, 100
5, 101190, Note_on_c, 3, 74, 0
5, 101190, Note_on_c, 3, 72, 100
5, 101220, Note_on_c, 3, 72, 0
5, 101220, Note_on_c, 3, 70, 100
5, 101250, Note_on_c, 3, 70, 0
5, 101250, Note_on_c, 3, 68, 100
5, 101280, Note_on_c, 3, 68, 0
5, 101280, Note_on_c, 3, 67, 100
5, 101400, Note_on_c, 3, 67, 0
5, 101790, Note_on_c, 3, 51, 100
5, 101820, Note_on_c, 3, 51, 0
5, 101820, Note_on_c, 3, 55, 100
5, 101850, Note_on_c, 3, 55, 0
5, 101850, Note_on_c, 3, 58, 100
5, 101880, Note_on_c, 3, 58, 0
5, 101880, Note_on_c, 3, 63, 100
5, 101910, Note_on_c, 3, 63, 0
5, 101910, Note_on_c, 3, 67, 100
5, 101940, Note_on_c, 3, 67, 0
5, 101940, Note_on_c, 3, 70, 100
5, 101970, Note_on_c, 3, 70, 0
5, 101970, Note_on_c, 3, 67, 100
5, 102000, Note_on_c, 3, 67, 0
5, 102000, Note_on_c, 3, 63, 100
5, 102030, Note_on_c, 3, 63, 0
5, 102030, Note_on_c, 3, 67, 100
5, 102060, Note_on_c, 3, 67, 0
5, 102060, Note_on_c, 3, 58, 100
5, 102090, Note_on_c, 3, 58, 0
5, 102090, Note_on_c, 3, 63, 100
5, 102120, Note_on_c, 3, 63, 0
5, 102120, Note_on_c, 3, 55, 100
5, 102150, Note_on_c, 3, 55, 0
5, 102150, Note_on_c, 3, 58, 100
5, 102180, Note_on_c, 3, 58, 0
5, 102180, Note_on_c, 3, 51, 100
5, 102210, Note_on_c, 3, 51, 0
5, 102210, Note_on_c, 3, 55, 100
5, 102240, Note_on_c, 3, 55, 0
5, 102240, Note_on_c, 3, 58, 100
5, 102360, Note_on_c, 3, 58, 0
5, 102750, Note_on_c, 3, 58, 100
5, 102780, Note_on_c, 3, 58, 0
5, 102780, Note_on_c, 3, 62, 100
5, 102810, Note_on_c, 3, 62, 0
5, 102810, Note_on_c, 3, 58, 100
5, 102840, Note_on_c, 3, 58, 0
5, 102840, Note_on_c, 3, 65, 100
5, 102870, Note_on_c, 3, 65, 0
5, 102870, Note_on_c, 3, 62, 100
5, 102900, Note_on_c, 3, 62, 0
5, 102900, Note_on_c, 3, 70, 100
5, 102930, Note_on_c, 3, 70, 0
5, 102930, Note_on_c, 3, 65, 100
5, 102960, Note_on_c, 3, 65, 0
5, 102960, Note_on_c, 3, 74, 100
5, 102990, Note_on_c, 3, 74, 0
5, 102990, Note_on_c, 3, 70, 100
5, 103020, Note_on_c, 3, 70, 0
5, 103020, Note_on_c, 3, 77, 100
5, 103050, Note_on_c, 3, 77, 0
5, 103050, Note_on_c, 3, 75, 100
5, 103080, Note_on_c, 3, 75, 0
5, 103080, Note_on_c, 3, 74, 100
5, 103110, Note_on_c, 3, 74, 0
5, 103110, Note_on_c, 3, 72, 100
5, 103140, Note_on_c, 3, 72, 0
5, 103140, Note_on_c, 3, 70, 100
5, 103170, Note_on_c, 3, 70, 0
5, 103170, Note_on_c, 3, 68, 100
5, 103200, Note_on_c, 3, 68, 0
5, 103200, Note_on_c, 3, 67, 100
5, 103320, Note_on_c, 3, 67, 0
5, 103710, Note_on_c, 3, 51, 100
5, 103740, Note_on_c, 3, 51, 0
5, 103740, Note_on_c, 3, 55, 100
5, 103770, Note_on_c, 3, 55, 0
5, 103770, Note_on_c, 3, 58, 100
5, 103800, Note_on_c, 3, 58, 0
5, 103800, Note_on_c, 3, 63, 100
5, 103830, Note_on_c, 3, 63, 0
5, 103830, Note_on_c, 3, 67, 100
5, 103860, Note_on_c, 3, 67, 0
5, 103860, Note_on_c, 3, 70, 100
5, 103890, Note_on_c, 3, 70, 0
5, 103890, Note_on_c, 3, 67, 100
5, 103920, Note_on_c, 3, 67, 0
5, 103920, Note_on_c, 3, 63, 100
5, 103950, Note_on_c, 3, 63, 0
5, 103950, Note_on_c, 3, 67, 100
5, 103980, Note_on_c, 3, 67, 0
5, 103980, Note_on_c, 3, 58, 100
5, 104010, Note_on_c, 3, 58, 0
5, 104010, Note_on_c, 3, 63, 100
5, 104040, Note_on_c, 3, 63, 0
5, 104040, Note_on_c, 3, 55, 100
5, 104070, Note_on_c, 3, 55, 0
5, 104070, Note_on_c, 3, 58, 100
5, 104100, Note_on_c, 3, 58, 0
5, 104100, Note_on_c, 3, 51, 100
5, 104130, Note_on_c, 3, 51, 0
5, 104130, Note_on_c, 3, 55, 100
5, 104160, Note_on_c, 3, 55, 0
5, 104160, Note_on_c, 3, 58, 100
5, 104280, Note_on_c, 3, 58, 0
5, 104460, Note_on_c, 3, 58, 100
5, 104490, Note_on_c, 3, 58, 0
5, 104490, Note_on_c, 3, 60, 100
5, 104520, Note_on_c, 3, 60, 0
5, 104520, Note_on_c, 3, 62, 100
5, 104550, Note_on_c, 3, 62, 0
5, 104550, Note_on_c, 3, 63, 100
5, 104580, Note_on_c, 3, 63, 0
5, 104580, Note_on_c, 3, 65, 100
5, 104610, Note_on_c, 3, 65, 0
5, 104610, Note_on_c, 3, 67, 100
5, 104640, Note_on_c, 3, 67, 0
5, 104640, Note_on_c, 3, 65, 100
5, 104670, Note_on_c, 3, 65, 0
5, 104670, Note_on_c, 3, 62, 100
5, 104700, Note_on_c, 3, 62, 0
5, 104700, Note_on_c, 3, 63, 100
5, 104730, Note_on_c, 3, 63, 0
5, 104730, Note_on_c, 3, 65, 100
5, 104760, Note_on_c, 3, 65, 0
5, 104760, Note_on_c, 3, 67, 100
5, 104790, Note_on_c, 3, 67, 0
5, 104790, Note_on_c, 3, 68, 100
5, 104820, Note_on_c, 3, 68, 0
5, 104820, Note_on_c, 3, 70, 100
5, 104850, Note_on_c, 3, 70, 0
5, 104850, Note_on_c, 3, 69, 100
5, 104880, Note_on_c, 3, 69, 0
5, 104880, Note_on_c, 3, 70, 100
5, 104910, Note_on_c, 3, 70, 0
5, 104910, Note_on_c, 3, 65, 100
5, 104940, Note_on_c, 3, 65, 0
5, 104940, Note_on_c, 3, 67, 100
5, 104970, Note_on_c, 3, 67, 0
5, 104970, Note_on_c, 3, 69, 100
5, 105000, Note_on_c, 3, 69, 0
5, 105000, Note_on_c, 3, 70, 100
5, 105030, Note_on_c, 3, 70, 0
5, 105030, Note_on_c, 3, 72, 100
5, 105060, Note_on_c, 3, 72, 0
5, 105060, Note_on_c, 3, 74, 100
5, 105090, Note_on_c, 3, 74, 0
5, 105090, Note_on_c, 3, 75, 100
5, 105120, Note_on_c, 3, 75, 0
5, 105120, Note_on_c, 3, 74, 100
5, 105150, Note_on_c, 3, 74, 0
5, 105150, Note_on_c, 3, 69, 100
5, 105180, Note_on_c, 3, 69, 0
5, 105180, Note_on_c, 3, 70, 100
5, 105210, Note_on_c, 3, 70, 0
5, 105210, Note_on_c, 3, 72, 100
5, 105240, Note_on_c, 3, 72, 0
5, 105240, Note_on_c, 3, 74, 100
5, 105270, Note_on_c, 3, 74, 0
5, 105270, Note_on_c, 3, 75, 100
5, 105300, Note_on_c, 3, 75, 0
5, 105300, Note_on_c, 3, 77, 100
5, 105330, Note_on_c, 3, 77, 0
5, 105330, Note_on_c, 3, 79, 100
5, 105360, Note_on_c, 3, 79, 0
5, 105360, Note_on_c, 3, 77, 100
5, 105630, Note_on_c, 3, 77, 0
5, 105630, Note_on_c, 3, 76, 100
5, 105660, Note_on_c, 3, 76, 0
5, 105660, Note_on_c, 3, 77, 100
5, 105690, Note_on_c, 3, 77, 0
5, 105690, Note_on_c, 3, 79, 100
5, 105720, Note_on_c, 3, 79, 0
5, 105720, Note_on_c, 3, 80, 100
5, 105750, Note_on_c, 3, 80, 0
5, 105750, Note_on_c, 3, 79, 100
5, 105780, Note_on_c, 3, 79, 0
5, 105780, Note_on_c, 3, 77, 100
5, 105810, Note_on_c, 3, 77, 0
5, 105810, Note_on_c, 3, 75, 100
5, 105840, Note_on_c, 3, 75, 0
5, 105840, Note_on_c, 3, 74, 100
5, 105870, Note_on_c, 3, 74, 0
5, 105870, Note_on_c, 3, 72, 100
5, 105900, Note_on_c, 3, 72, 0
5, 105900, Note_on_c, 3, 74, 100
5, 105930, Note_on_c, 3, 74, 0
5, 105930, Note_on_c, 3, 75, 100
5, 105960, Note_on_c, 3, 75, 0
5, 105960, Note_on_c, 3, 77, 100
5, 105990, Note_on_c, 3, 77, 0
5, 105990, Note_on_c, 3, 75, 100
5, 106020, Note_on_c, 3, 75, 0
5, 106020, Note_on_c, 3, 74, 100
5, 106050, Note_on_c, 3, 74, 0
5, 106050, Note_on_c, 3, 72, 100
5, 106080, Note_on_c, 3, 72, 0
5, 106080, Note_on_c, 3, 70, 100
5, 106110, Note_on_c, 3, 70, 0
5, 106110, Note_on_c, 3, 69, 100
5, 106140, Note_on_c, 3, 69, 0
5, 106140, Note_on_c, 3, 70, 100
5, 106170, Note_on_c, 3, 70, 0
5, 106170, Note_on_c, 3, 72, 100
5, 106200, Note_on_c, 3, 72, 0
5, 106200, Note_on_c, 3, 74, 100
5, 106230, Note_on_c, 3, 74, 0
5, 106230, Note_on_c, 3, 72, 100
5, 106260, Note_on_c, 3, 72, 0
5, 106260, Note_on_c, 3, 70, 100
5, 106290, Note_on_c, 3, 70, 0
5, 106290, Note_on_c, 3, 68, 100
5, 106320, Note_on_c, 3, 68, 0
5, 106320, Note_on_c, 3, 67, 100
5, 106350, Note_on_c, 3, 67, 0
5, 106350, Note_on_c, 3, 68, 100
5, 106380, Note_on_c, 3, 68, 0
5, 106380, Note_on_c, 3, 67, 100
5, 106410, Note_on_c, 3, 67, 0
5, 106410, Note_on_c, 3, 63, 100
5, 106440, Note_on_c, 3, 63, 0
5, 106440, Note_on_c, 3, 65, 100
5, 106470, Note_on_c, 3, 65, 0
5, 106470, Note_on_c, 3, 67, 100
5, 106500, Note_on_c, 3, 67, 0
5, 106500, Note_on_c, 3, 65, 100
5, 106530, Note_on_c, 3, 65, 0
5, 106530, Note_on_c, 3, 62, 100
5, 106560, Note_on_c, 3, 62, 0
5, 106560, Note_on_c, 3, 58, 100
5, 106560, Note_on_c, 3, 63, 100
5, 107040, Note_on_c, 3, 63, 0
5, 107040, Note_on_c, 3, 58, 0
5, 107040, Note_on_c, 3, 58, 100
5, 107040, Note_on_c, 3, 63, 100
5, 107280, Note_on_c, 3, 63, 0
5, 107280, Note_on_c, 3, 58, 0
5, 107280, Note_on_c, 3, 58, 100
5, 107280, Note_on_c, 3, 63, 100
5, 107460, Note_on_c, 3, 63, 0
5, 107460, Note_on_c, 3, 58, 0
5, 107460, Note_on_c, 3, 58, 100
5, 107460, Note_on_c, 3, 63, 100
5, 107520, Note_on_c, 3, 63, 0
5, 107520, Note_on_c, 3, 58, 0
5, 107520, Note_on_c, 3, 58, 100
5, 107520, Note_on_c, 3, 63, 100
5, 107640, Note_on_c, 3, 63, 0
5, 107640, Note_on_c, 3, 58, 0
5, 108600, Note_on_c, 3, 62, 100
5, 108600, Note_on_c, 3, 65, 100
5, 108840, Note_on_c, 3, 65, 0
5, 108840, Note_on_c, 3, 62, 0
5, 108840, Note_on_c, 3, 62, 100
5, 108840, Note_on_c, 3, 65, 100
5, 109080, Note_on_c, 3, 65, 0
5, 109080, Note_on_c, 3, 62, 0
5, 109080, Note_on_c, 3, 62, 100
5, 109080, Note_on_c, 3, 65, 100
5, 109320, Note_on_c, 3, 65, 0
5, 109320, Note_on_c, 3, 62, 0
5, 109320, Note_on_c, 3, 62, 100
5, 109320, Note_on_c, 3, 65, 100
5, 109440, Note_on_c, 3, 65, 0
5, 109440, Note_on_c, 3, 62, 0
5, 109440, Note_on_c, 3, 63, 100
5, 109560, Note_on_c, 3, 63, 0
5, 110385, Note_on_c, 3, 63, 100
5, 110400, Note_on_c, 3, 63, 0
5, 110400, Note_on_c, 3, 75, 100
5, 111420, Note_on_c, 3, 75, 0
5, 111420, Note_on_c, 3, 74, 100
5, 111480, Note_on_c, 3, 74, 0
5, 111480, Note_on_c, 3, 72, 100
5, 111540, Note_on_c, 3, 72, 0
5, 111540, Note_on_c, 3, 70, 100
5, 111600, Note_on_c, 3, 70, 0
5, 111600, Note_on_c, 3, 68, 100
5, 111660, Note_on_c, 3, 68, 0
5, 111660, Note_on_c, 3, 67, 100
5, 111720, Note_on_c, 3, 67, 0
5, 111720, Note_on_c, 3, 72, 100
5, 111780, Note_on_c, 3, 72, 0
5, 111780, Note_on_c, 3, 70, 100
5, 111840, Note_on_c, 3, 70, 0
5, 111840, Note_on_c, 3, 70, 100
5, 112020, Note_on_c, 3, 70, 0
5, 112020, Note_on_c, 3, 72, 100
5, 112080, Note_on_c, 3, 72, 0
5, 112080, Note_on_c, 3, 70, 100
5, 112200, Note_on_c, 3, 70, 0
5, 112290, Note_on_c, 3, 70, 100
5, 112320, Note_on_c, 3, 70, 0
5, 112320, Note_on_c, 3, 68, 100
5, 112380, Note_on_c, 3, 68, 0
5, 112380, Note_on_c, 3, 70, 100
5, 112440, Note_on_c, 3, 70, 0
5, 112440, Note_on_c, 3, 72, 100
5, 112500, Note_on_c, 3, 72, 0
5, 112500, Note_on_c, 3, 68, 100
5, 112560, Note_on_c, 3, 68, 0
5, 112560, Note_on_c, 3, 67, 100
5, 112620, Note_on_c, 3, 67, 0
5, 112620, Note_on_c, 3, 68, 100
5, 112680, Note_on_c, 3, 68, 0
5, 112680, Note_on_c, 3, 70, 100
5, 112740, Note_on_c, 3, 70, 0
5, 112740, Note_on_c, 3, 67, 100
5, 112800, Note_on_c, 3, 67, 0
5, 112800, Note_on_c, 3, 65, 100
5, 112980, Note_on_c, 3, 65, 0
5, 112980, Note_on_c, 3, 68, 100
5, 113010, Note_on_c, 3, 68, 0
5, 113010, Note_on_c, 3, 65, 100
5, 113040, Note_on_c, 3, 65, 0
5, 113040, Note_on_c, 3, 63, 100
5, 113160, Note_on_c, 3, 63, 0
5, 114060, Note_on_c, 3, 70, 100
5, 114120, Note_on_c, 3, 70, 0
5, 114120, Note_on_c, 3, 70, 100
5, 114180, Note_on_c, 3, 70, 0
5, 114180, Note_on_c, 3, 70, 100
5, 114240, Note_on_c, 3, 70, 0
5, 114240, Note_on_c, 3, 70, 100
5, 114270, Note_on_c, 3, 70, 0
5, 114270, Note_on_c, 3, 72, 100
5, 114300, Note_on_c, 3, 72, 0
5, 114300, Note_on_c, 3, 70, 100
5, 114330, Note_on_c, 3, 70, 0
5, 114330, Note_on_c, 3, 69, 100
5, 114360, Note_on_c, 3, 69, 0
5, 114360, Note_on_c, 3, 70, 100
5, 114420, Note_on_c, 3, 70, 0
5, 114450, Note_on_c, 3, 67, 100
5, 114480, Note_on_c, 3, 67, 0
5, 114480, Note_on_c, 3, 68, 100
5, 114510, Note_on_c, 3, 68, 0
5, 114510, Note_on_c, 3, 70, 100
5, 114540, Note_on_c, 3, 70, 0
5, 114540, Note_on_c, 3, 68, 100
5, 114570, Note_on_c, 3, 68, 0
5, 114570, Note_on_c, 3, 67, 100
5, 114600, Note_on_c, 3, 67, 0
5, 114600, Note_on_c, 3, 68, 100
5, 114660, Note_on_c, 3, 68, 0
5, 114690, Note_on_c, 3, 65, 100
5, 114720, Note_on_c, 3, 65, 0
5, 114720, Note_on_c, 3, 63, 100
5, 114900, Note_on_c, 3, 63, 0
5, 114900, Note_on_c, 3, 65, 100
5, 114930, Note_on_c, 3, 65, 0
5, 114930, Note_on_c, 3, 67, 100
5, 114960, Note_on_c, 3, 67, 0
5, 114960, Note_on_c, 3, 65, 100
5, 115080, Note_on_c, 3, 65, 0
5, 116460, Note_on_c, 3, 70, 100
5, 116520, Note_on_c, 3, 70, 0
5, 116520, Note_on_c, 3, 70, 100
5, 116580, Note_on_c, 3, 70, 0
5, 116580, Note_on_c, 3, 70, 100
5, 116640, Note_on_c, 3, 70, 0
5, 116640, Note_on_c, 3, 70, 100
5, 116670, Note_on_c, 3, 70, 0
5, 116670, Note_on_c, 3, 72, 100
5, 116700, Note_on_c, 3, 72, 0
5, 116700, Note_on_c, 3, 70, 100
5, 116730, Note_on_c, 3, 70, 0
5, 116730, Note_on_c, 3, 69, 100
5, 116760, Note_on_c, 3, 69, 0
5, 116760, Note_on_c, 3, 70, 100
5, 116820, Note_on_c, 3, 70, 0
5, 116850, Note_on_c, 3, 67, 100
5, 116880, Note_on_c, 3, 67, 0
5, 116880, Note_on_c, 3, 68, 100
5, 116910, Note_on_c, 3, 68, 0
5, 116910, Note_on_c, 3, 70, 100
5, 116940, Note_on_c, 3, 70, 0
5, 116940, Note_on_c, 3, 68, 100
5, 116970, Note_on_c, 3, 68, 0
5, 116970, Note_on_c, 3, 67, 100
5, 117000, Note_on_c, 3, 67, 0
5, 117000, Note_on_c, 3, 68, 100
5, 117060, Note_on_c, 3, 68, 0
5, 117090, Note_on_c, 3, 65, 100
5, 117120, Note_on_c, 3, 65, 0
5, 117120, Note_on_c, 3, 67, 100
5, 117150, Note_on_c, 3, 67, 0
5, 117150, Note_on_c, 3, 68, 100
5, 117180, Note_on_c, 3, 68, 0
5, 117180, Note_on_c, 3, 67, 100
5, 117210, Note_on_c, 3, 67, 0
5, 117210, Note_on_c, 3, 65, 100
5, 117240, Note_on_c, 3, 65, 0
5, 117240, Note_on_c, 3, 67, 100
5, 117270, Note_on_c, 3, 67, 0
5, 117270, Note_on_c, 3, 65, 100
5, 117300, Note_on_c, 3, 65, 0
5, 117300, Note_on_c, 3, 67, 100
5, 117330, Note_on_c, 3, 67, 0
5, 117330, Note_on_c, 3, 63, 100
5, 117360, Note_on_c, 3, 63, 0
5, 117360, Note_on_c, 3, 65, 100
5, 117390, Note_on_c, 3, 65, 0
5, 117390, Note_on_c, 3, 67, 100
5, 117420, Note_on_c, 3, 67, 0
5, 117420, Note_on_c, 3, 65, 100
5, 117450, Note_on_c, 3, 65, 0
5, 117450, Note_on_c, 3, 63, 100
5, 117480, Note_on_c, 3, 63, 0
5, 117480, Note_on_c, 3, 65, 100
5, 117510, Note_on_c, 3, 65, 0
5, 117510, Note_on_c, 3, 63, 100
5, 117540, Note_on_c, 3, 63, 0
5, 117540, Note_on_c, 3, 65, 100
5, 117570, Note_on_c, 3, 65, 0
5, 117570, Note_on_c, 3, 62, 100
5, 117600, Note_on_c, 3, 62, 0
5, 117600, Note_on_c, 3, 70, 100
5, 117630, Note_on_c, 3, 70, 0
5, 117630, Note_on_c, 3, 72, 100
5, 117660, Note_on_c, 3, 72, 0
5, 117660, Note_on_c, 3, 70, 100
5, 117690, Note_on_c, 3, 70, 0
5, 117690, Note_on_c, 3, 69, 100
5, 117720, Note_on_c, 3, 69, 0
5, 117720, Note_on_c, 3, 70, 100
5, 117750, Note_on_c, 3, 70, 0
5, 117750, Note_on_c, 3, 69, 100
5, 117780, Note_on_c, 3, 69, 0
5, 117780, Note_on_c, 3, 70, 100
5, 117810, Note_on_c, 3, 70, 0
5, 117810, Note_on_c, 3, 67, 100
5, 117840, Note_on_c, 3, 67, 0
5, 117840, Note_on_c, 3, 68, 100
5, 117870, Note_on_c, 3, 68, 0
5, 117870, Note_on_c, 3, 70, 100
5, 117900, Note_on_c, 3, 70, 0
5, 117900, Note_on_c, 3, 68, 100
5, 117930, Note_on_c, 3, 68, 0
5, 117930, Note_on_c, 3, 67, 100
5, 117960, Note_on_c, 3, 67, 0
5, 117960, Note_on_c, 3, 68, 100
5, 117990, Note_on_c, 3, 68, 0
5, 117990, Note_on_c, 3, 67, 100
5, 118020, Note_on_c, 3, 67, 0
5, 118020, Note_on_c, 3, 68, 100
5, 118050, Note_on_c, 3, 68, 0
5, 118050, Note_on_c, 3, 65, 100
5, 118080, Note_on_c, 3, 65, 0
5, 118080, Note_on_c, 3, 67, 100
5, 118140, Note_on_c, 3, 67, 0
5, 118140, Note_on_c, 3, 62, 100
5, 118200, Note_on_c, 3, 62, 0
5, 118200, Note_on_c, 3, 63, 100
5, 118260, Note_on_c, 3, 63, 0
5, 118260, Note_on_c, 3, 65, 100
5, 118320, Note_on_c, 3, 65, 0
5, 118320, Note_on_c, 3, 67, 100
5, 118380, Note_on_c, 3, 67, 0
5, 118380, Note_on_c, 3, 68, 100
5, 118440, Note_on_c, 3, 68, 0
5, 118440, Note_on_c, 3, 65, 100
5, 118500, Note_on_c, 3, 65, 0
5, 118500, Note_on_c, 3, 67, 100
5, 118560, Note_on_c, 3, 67, 0
5, 118560, Note_on_c, 3, 67, 100
5, 118620, Note_on_c, 3, 67, 0
5, 118620, Note_on_c, 3, 65, 100
5, 118680, Note_on_c, 3, 65, 0
5, 118680, Note_on_c, 3, 68, 100
5, 118740, Note_on_c, 3, 68, 0
5, 118740, Note_on_c, 3, 67, 100
5, 118800, Note_on_c, 3, 67, 0
5, 118800, Note_on_c, 3, 67, 100
5, 118860, Note_on_c, 3, 67, 0
5, 118860, Note_on_c, 3, 65, 100
5, 118920, Note_on_c, 3, 65, 0
5, 118920, Note_on_c, 3, 63, 100
5, 118980, Note_on_c, 3, 63, 0
5, 118980, Note_on_c, 3, 62, 100
5, 119040, Note_on_c, 3, 62, 0
5, 119040, Note_on_c, 3, 63, 100
5, 119160, Note_on_c, 3, 63, 0
5, 120960, Note_on_c, 3, 72, 100
5, 121320, Note_on_c, 3, 72, 0
5, 121320, Note_on_c, 3, 73, 100
5, 121350, Note_on_c, 3, 73, 0
5, 121350, Note_on_c, 3, 72, 100
5, 121380, Note_on_c, 3, 72, 0
5, 121380, Note_on_c, 3, 71, 100
5, 121410, Note_on_c, 3, 71, 0
5, 121410, Note_on_c, 3, 72, 100
5, 121440, Note_on_c, 3, 72, 0
5, 121440, Note_on_c, 3, 77, 100
5, 121560, Note_on_c, 3, 77, 0
5, 121560, Note_on_c, 3, 72, 100
5, 121800, Note_on_c, 3, 72, 0
5, 121800, Note_on_c, 3, 70, 100
5, 121830, Note_on_c, 3, 70, 0
5, 121830, Note_on_c, 3, 68, 100
5, 121860, Note_on_c, 3, 68, 0
5, 121860, Note_on_c, 3, 67, 100
5, 121890, Note_on_c, 3, 67, 0
5, 121890, Note_on_c, 3, 65, 100
5, 121920, Note_on_c, 3, 65, 0
5, 121920, Note_on_c, 3, 65, 100
5, 122040, Note_on_c, 3, 65, 0
5, 122040, Note_on_c, 3, 64, 100
5, 122220, Note_on_c, 3, 64, 0
5, 122220, Note_on_c, 3, 67, 100
5, 122280, Note_on_c, 3, 67, 0
5, 122280, Note_on_c, 3, 68, 100
5, 122340, Note_on_c, 3, 68, 0
5, 122340, Note_on_c, 3, 70, 100
5, 122385, Note_on_c, 3, 72, 100
5, 122400, Note_on_c, 3, 72, 0
5, 122400, Note_on_c, 3, 70, 0
5, 122400, Note_on_c, 3, 70, 100
5, 122520, Note_on_c, 3, 70, 0
5, 122520, Note_on_c, 3, 68, 100
5, 122760, Note_on_c, 3, 68, 0
5, 122760, Note_on_c, 3, 69, 100
5, 122880, Note_on_c, 3, 69, 0
5, 122880, Note_on_c, 3, 70, 100
5, 123000, Note_on_c, 3, 70, 0
5, 127320, Note_on_c, 3, 72, 100
5, 127350, Note_on_c, 3, 72, 0
5, 127350, Note_on_c, 3, 71, 100
5, 127380, Note_on_c, 3, 71, 0
5, 127380, Note_on_c, 3, 72, 100
5, 127410, Note_on_c, 3, 72, 0
5, 127410, Note_on_c, 3, 71, 100
5, 127440, Note_on_c, 3, 71, 0
5, 127440, Note_on_c, 3, 72, 100
5, 127470, Note_on_c, 3, 72, 0
5, 127470, Note_on_c, 3, 71, 100
5, 127500, Note_on_c, 3, 71, 0
5, 127500, Note_on_c, 3, 72, 100
5, 127530, Note_on_c, 3, 72, 0
5, 127530, Note_on_c, 3, 71, 100
5, 127560, Note_on_c, 3, 71, 0
5, 127560, Note_on_c, 3, 72, 100
5, 127590, Note_on_c, 3, 72, 0
5, 127590, Note_on_c, 3, 71, 100
5, 127620, Note_on_c, 3, 71, 0
5, 127620, Note_on_c, 3, 72, 100
5, 127650, Note_on_c, 3, 72, 0
5, 127650, Note_on_c, 3, 71, 100
5, 127680, Note_on_c, 3, 71, 0
5, 127680, Note_on_c, 3, 72, 100
5, 127740, Note_on_c, 3, 72, 0
5, 127740, Note_on_c, 3, 74, 100
5, 127770, Note_on_c, 3, 74, 0
5, 127770, Note_on_c, 3, 76, 100
5, 127800, Note_on_c, 3, 76, 0
5, 127800, Note_on_c, 3, 77, 100
5, 127830, Note_on_c, 3, 77, 0
5, 127830, Note_on_c, 3, 76, 100
5, 127860, Note_on_c, 3, 76, 0
5, 127860, Note_on_c, 3, 77, 100
5, 127890, Note_on_c, 3, 77, 0
5, 127890, Note_on_c, 3, 79, 100
5, 127920, Note_on_c, 3, 79, 0
5, 127920, Note_on_c, 3, 80, 100
5, 127950, Note_on_c, 3, 80, 0
5, 127950, Note_on_c, 3, 79, 100
5, 127980, Note_on_c, 3, 79, 0
5, 127980, Note_on_c, 3, 77, 100
5, 128010, Note_on_c, 3, 77, 0
5, 128010, Note_on_c, 3, 79, 100
5, 128040, Note_on_c, 3, 79, 0
5, 128040, Note_on_c, 3, 77, 100
5, 128070, Note_on_c, 3, 77, 0
5, 128070, Note_on_c, 3, 75, 100
5, 128100, Note_on_c, 3, 75, 0
5, 128100, Note_on_c, 3, 74, 100
5, 128130, Note_on_c, 3, 74, 0
5, 128130, Note_on_c, 3, 72, 100
5, 128160, Note_on_c, 3, 72, 0
5, 128160, Note_on_c, 3, 70, 100
5, 128280, Note_on_c, 3, 70, 0
5, 128280, Note_on_c, 3, 70, 100
5, 128310, Note_on_c, 3, 70, 0
5, 128310, Note_on_c, 3, 69, 100
5, 128340, Note_on_c, 3, 69, 0
5, 128340, Note_on_c, 3, 70, 100
5, 128370, Note_on_c, 3, 70, 0
5, 128370, Note_on_c, 3, 69, 100
5, 128400, Note_on_c, 3, 69, 0
5, 128400, Note_on_c, 3, 70, 100
5, 128430, Note_on_c, 3, 70, 0
5, 128430, Note_on_c, 3, 69, 100
5, 128460, Note_on_c, 3, 69, 0
5, 128460, Note_on_c, 3, 70, 100
5, 128490, Note_on_c, 3, 70, 0
5, 128490, Note_on_c, 3, 69, 100
5, 128520, Note_on_c, 3, 69, 0
5, 128520, Note_on_c, 3, 70, 100
5, 128550, Note_on_c, 3, 70, 0
5, 128550, Note_on_c, 3, 69, 100
5, 128580, Note_on_c, 3, 69, 0
5, 128580, Note_on_c, 3, 70, 100
5, 128610, Note_on_c, 3, 70, 0
5, 128610, Note_on_c, 3, 69, 100
5, 128640, Note_on_c, 3, 69, 0
5, 128640, Note_on_c, 3, 70, 100
5, 128700, Note_on_c, 3, 70, 0
5, 128700, Note_on_c, 3, 72, 100
5, 128730, Note_on_c, 3, 72, 0
5, 128730, Note_on_c, 3, 74, 100
5, 128760, Note_on_c, 3, 74, 0
5, 128760, Note_on_c, 3, 75, 100
5, 128790, Note_on_c, 3, 75, 0
5, 128790, Note_on_c, 3, 74, 100
5, 128820, Note_on_c, 3, 74, 0
5, 128820, Note_on_c, 3, 75, 100
5, 128850, Note_on_c, 3, 75, 0
5, 128850, Note_on_c, 3, 77, 100
5, 128880, Note_on_c, 3, 77, 0
5, 128880, Note_on_c, 3, 79, 100
5, 128910, Note_on_c, 3, 79, 0
5, 128910, Note_on_c, 3, 77, 100
5, 128940, Note_on_c, 3, 77, 0
5, 128940, Note_on_c, 3, 75, 100
5, 128970, Note_on_c, 3, 75, 0
5, 128970, Note_on_c, 3, 77, 100
5, 129000, Note_on_c, 3, 77, 0
5, 129000, Note_on_c, 3, 75, 100
5, 129030, Note_on_c, 3, 75, 0
5, 129030, Note_on_c, 3, 74, 100
5, 129060, Note_on_c, 3, 74, 0
5, 129060, Note_on_c, 3, 72, 100
5, 129090, Note_on_c, 3, 72, 0
5, 129090, Note_on_c, 3, 70, 100
5, 129120, Note_on_c, 3, 70, 0
5, 129120, Note_on_c, 3, 68, 100
5, 129240, Note_on_c, 3, 68, 0
5, 129240, Note_on_c, 3, 68, 100
5, 129270, Note_on_c, 3, 68, 0
5, 129270, Note_on_c, 3, 67, 100
5, 129300, Note_on_c, 3, 67, 0
5, 129300, Note_on_c, 3, 68, 100
5, 129330, Note_on_c, 3, 68, 0
5, 129330, Note_on_c, 3, 67, 100
5, 129360, Note_on_c, 3, 67, 0
5, 129360, Note_on_c, 3, 68, 100
5, 129390, Note_on_c, 3, 68, 0
5, 129390, Note_on_c, 3, 67, 100
5, 129420, Note_on_c, 3, 67, 0
5, 129420, Note_on_c, 3, 68, 100
5, 129450, Note_on_c, 3, 68, 0
5, 129450, Note_on_c, 3, 67, 100
5, 129480, Note_on_c, 3, 67, 0
5, 129480, Note_on_c, 3, 68, 100
5, 129510, Note_on_c, 3, 68, 0
5, 129510, Note_on_c, 3, 67, 100
5, 129540, Note_on_c, 3, 67, 0
5, 129540, Note_on_c, 3, 68, 100
5, 129570, Note_on_c, 3, 68, 0
5, 129570, Note_on_c, 3, 67, 100
5, 129600, Note_on_c, 3, 67, 0
5, 129600, Note_on_c, 3, 68, 100
5, 129660, Note_on_c, 3, 68, 0
5, 129660, Note_on_c, 3, 70, 100
5, 129690, Note_on_c, 3, 70, 0
5, 129690, Note_on_c, 3, 72, 100
5, 129720, Note_on_c, 3, 72, 0
5, 129720, Note_on_c, 3, 74, 100
5, 129750, Note_on_c, 3, 74, 0
5, 129750, Note_on_c, 3, 75, 100
5, 129780, Note_on_c, 3, 75, 0
5, 129780, Note_on_c, 3, 77, 100
5, 129810, Note_on_c, 3, 77, 0
5, 129810, Note_on_c, 3, 79, 100
5, 129840, Note_on_c, 3, 79, 0
5, 129840, Note_on_c, 3, 80, 100
5, 129870, Note_on_c, 3, 80, 0
5, 129870, Note_on_c, 3, 79, 100
5, 129900, Note_on_c, 3, 79, 0
5, 129900, Note_on_c, 3, 77, 100
5, 129930, Note_on_c, 3, 77, 0
5, 129930, Note_on_c, 3, 75, 100
5, 129960, Note_on_c, 3, 75, 0
5, 129960, Note_on_c, 3, 74, 100
5, 129990, Note_on_c, 3, 74, 0
5, 129990, Note_on_c, 3, 72, 100
5, 130020, Note_on_c, 3, 72, 0
5, 130020, Note_on_c, 3, 70, 100
5, 130050, Note_on_c, 3, 70, 0
5, 130050, Note_on_c, 3, 68, 100
5, 130080, Note_on_c, 3, 68, 0
5, 130080, Note_on_c, 3, 67, 100
5, 130200, Note_on_c, 3, 67, 0
5, 130680, Note_on_c, 3, 63, 100
5, 130740, Note_on_c, 3, 63, 0
5, 130740, Note_on_c, 3, 63, 100
5, 130800, Note_on_c, 3, 63, 0
5, 130800, Note_on_c, 3, 63, 100
5, 130860, Note_on_c, 3, 63, 0
5, 130860, Note_on_c, 3, 63, 100
5, 130920, Note_on_c, 3, 63, 0
5, 130920, Note_on_c, 3, 63, 100
5, 130980, Note_on_c, 3, 63, 0
5, 130980, Note_on_c, 3, 64, 100
5, 131040, Note_on_c, 3, 64, 0
5, 131040, Note_on_c, 3, 65, 100
5, 131160, Note_on_c, 3, 65, 0
5, 136290, Note_on_c, 3, 58, 100
5, 136320, Note_on_c, 3, 58, 0
5, 136320, Note_on_c, 3, 63, 100
5, 136500, Note_on_c, 3, 63, 0
5, 136530, Note_on_c, 3, 58, 100
5, 136560, Note_on_c, 3, 58, 0
5, 136560, Note_on_c, 3, 67, 100
5, 136740, Note_on_c, 3, 67, 0
5, 136770, Note_on_c, 3, 63, 100
5, 136800, Note_on_c, 3, 63, 0
5, 136800, Note_on_c, 3, 70, 100
5, 136860, Note_on_c, 3, 70, 0
5, 136860, Note_on_c, 3, 69, 100
5, 136920, Note_on_c, 3, 69, 0
5, 136920, Note_on_c, 3, 68, 100
5, 137100, Note_on_c, 3, 68, 0
5, 137100, Note_on_c, 3, 70, 100
5, 137130, Note_on_c, 3, 70, 0
5, 137130, Note_on_c, 3, 68, 100
5, 137160, Note_on_c, 3, 68, 0
5, 137160, Note_on_c, 3, 67, 100
5, 137190, Note_on_c, 3, 67, 0
5, 137190, Note_on_c, 3, 65, 100
5, 137220, Note_on_c, 3, 65, 0
5, 137220, Note_on_c, 3, 63, 100
5, 137250, Note_on_c, 3, 63, 0
5, 137250, Note_on_c, 3, 62, 100
5, 137280, Note_on_c, 3, 62, 0
5, 137280, Note_on_c, 3, 63, 100
5, 137325, Note_on_c, 3, 65, 100
5, 137340, Note_on_c, 3, 65, 0
5, 137340, Note_on_c, 3, 63, 0
5, 137340, Note_on_c, 3, 63, 100
5, 137370, Note_on_c, 3, 63, 0
5, 137370, Note_on_c, 3, 62, 100
5, 137400, Note_on_c, 3, 62, 0
5, 137400, Note_on_c, 3, 63, 100
5, 137460, Note_on_c, 3, 63, 0
5, 137460, Note_on_c, 3, 65, 100
5, 137520, Note_on_c, 3, 65, 0
5, 137520, Note_on_c, 3, 67, 100
5, 137565, Note_on_c, 3, 68, 100
5, 137580, Note_on_c, 3, 68, 0
5, 137580, Note_on_c, 3, 67, 0
5, 137580, Note_on_c, 3, 67, 100
5, 137610, Note_on_c, 3, 67, 0
5, 137610, Note_on_c, 3, 65, 100
5, 137640, Note_on_c, 3, 65, 0
5, 137640, Note_on_c, 3, 67, 100
5, 137700, Note_on_c, 3, 67, 0
5, 137700, Note_on_c, 3, 68, 100
5, 137760, Note_on_c, 3, 68, 0
5, 137760, Note_on_c, 3, 67, 100
5, 138000, Note_on_c, 3, 67, 0
5, 138000, Note_on_c, 3, 65, 100
5, 138120, Note_on_c, 3, 65, 0
5, 139740, Note_on_c, 3, 58, 100
5, 139770, Note_on_c, 3, 58, 0
5, 139770, Note_on_c, 3, 62, 100
5, 139800, Note_on_c, 3, 62, 0
5, 139800, Note_on_c, 3, 60, 100
5, 139830, Note_on_c, 3, 60, 0
5, 139830, Note_on_c, 3, 63, 100
5, 139860, Note_on_c, 3, 63, 0
5, 139860, Note_on_c, 3, 62, 100
5, 139890, Note_on_c, 3, 62, 0
5, 139890, Note_on_c, 3, 65, 100
5, 139920, Note_on_c, 3, 65, 0
5, 139920, Note_on_c, 3, 63, 100
5, 139950, Note_on_c, 3, 63, 0
5, 139950, Note_on_c, 3, 67, 100
5, 139980, Note_on_c, 3, 67, 0
5, 139980, Note_on_c, 3, 65, 100
5, 140010, Note_on_c, 3, 65, 0
5, 140010, Note_on_c, 3, 68, 100
5, 140040, Note_on_c, 3, 68, 0
5, 140040, Note_on_c, 3, 67, 100
5, 140070, Note_on_c, 3, 67, 0
5, 140070, Note_on_c, 3, 70, 100
5, 140100, Note_on_c, 3, 70, 0
5, 140100, Note_on_c, 3, 68, 100
5, 140130, Note_on_c, 3, 68, 0
5, 140130, Note_on_c, 3, 72, 100
5, 140160, Note_on_c, 3, 72, 0
5, 140160, Note_on_c, 3, 70, 100
5, 141075, Note_on_c, 3, 69, 100
5, 141090, Note_on_c, 3, 69, 0
5, 141090, Note_on_c, 3, 70, 100
5, 141105, Note_on_c, 3, 70, 0
5, 141105, Note_on_c, 3, 72, 100
5, 141120, Note_on_c, 3, 72, 0
5, 141120, Note_on_c, 3, 70, 0
5, 141120, Note_on_c, 3, 70, 100
5, 141900, Note_on_c, 3, 70, 0
5, 141900, Note_on_c, 3, 72, 100
5, 141930, Note_on_c, 3, 72, 0
5, 141930, Note_on_c, 3, 74, 100
5, 141960, Note_on_c, 3, 74, 0
5, 141960, Note_on_c, 3, 75, 100
5, 141990, Note_on_c, 3, 75, 0
5, 141990, Note_on_c, 3, 77, 100
5, 142020, Note_on_c, 3, 77, 0
5, 142020, Note_on_c, 3, 79, 100
5, 142050, Note_on_c, 3, 79, 0
5, 142050, Note_on_c, 3, 80, 100
5, 142080, Note_on_c, 3, 80, 0
5, 142080, Note_on_c, 3, 82, 100
5, 142200, Note_on_c, 3, 82, 0
5, 144000, Note_on_c, 3, 55, 100
5, 144030, Note_on_c, 3, 55, 0
5, 144030, Note_on_c, 3, 58, 100
5, 144060, Note_on_c, 3, 58, 0
5, 144060, Note_on_c, 3, 63, 100
5, 144090, Note_on_c, 3, 63, 0
5, 144090, Note_on_c, 3, 67, 100
5, 144120, Note_on_c, 3, 67, 0
5, 144120, Note_on_c, 3, 70, 100
5, 144150, Note_on_c, 3, 70, 0
5, 144150, Note_on_c, 3, 67, 100
5, 144180, Note_on_c, 3, 67, 0
5, 144180, Note_on_c, 3, 70, 100
5, 144210, Note_on_c, 3, 70, 0
5, 144210, Note_on_c, 3, 67, 100
5, 144240, Note_on_c, 3, 67, 0
5, 144240, Note_on_c, 3, 68, 100
5, 144270, Note_on_c, 3, 68, 0
5, 144270, Note_on_c, 3, 65, 100
5, 144300, Note_on_c, 3, 65, 0
5, 144300, Note_on_c, 3, 62, 100
5, 144330, Note_on_c, 3, 62, 0
5, 144330, Note_on_c, 3, 58, 100
5, 144360, Note_on_c, 3, 58, 0
5, 144360, Note_on_c, 3, 56, 100
5, 144390, Note_on_c, 3, 56, 0
5, 144390, Note_on_c, 3, 58, 100
5, 144420, Note_on_c, 3, 58, 0
5, 144420, Note_on_c, 3, 56, 100
5, 144450, Note_on_c, 3, 56, 0
5, 144450, Note_on_c, 3, 58, 100
5, 144480, Note_on_c, 3, 58, 0
5, 144480, Note_on_c, 3, 55, 100
5, 144510, Note_on_c, 3, 55, 0
5, 144510, Note_on_c, 3, 58, 100
5, 144540, Note_on_c, 3, 58, 0
5, 144540, Note_on_c, 3, 63, 100
5, 144570, Note_on_c, 3, 63, 0
5, 144570, Note_on_c, 3, 67, 100
5, 144600, Note_on_c, 3, 67, 0
5, 144600, Note_on_c, 3, 70, 100
5, 144630, Note_on_c, 3, 70, 0
5, 144630, Note_on_c, 3, 67, 100
5, 144660, Note_on_c, 3, 67, 0
5, 144660, Note_on_c, 3, 70, 100
5, 144690, Note_on_c, 3, 70, 0
5, 144690, Note_on_c, 3, 67, 100
5, 144720, Note_on_c, 3, 67, 0
5, 144720, Note_on_c, 3, 68, 100
5, 144750, Note_on_c, 3, 68, 0
5, 144750, Note_on_c, 3, 65, 100
5, 144780, Note_on_c, 3, 65, 0
5, 144780, Note_on_c, 3, 62, 100
5, 144810, Note_on_c, 3, 62, 0
5, 144810, Note_on_c, 3, 58, 100
5, 144840, Note_on_c, 3, 58, 0
5, 144840, Note_on_c, 3, 56, 100
5, 144870, Note_on_c, 3, 56, 0
5, 144870, Note_on_c, 3, 58, 100
5, 144900, Note_on_c, 3, 58, 0
5, 144900, Note_on_c, 3, 56, 100
5, 144930, Note_on_c, 3, 56, 0
5, 144930, Note_on_c, 3, 58, 100
5, 144960, Note_on_c, 3, 58, 0
5, 144960, Note_on_c, 3, 55, 100
5, 144990, Note_on_c, 3, 55, 0
5, 144990, Note_on_c, 3, 58, 100
5, 145020, Note_on_c, 3, 58, 0
5, 145020, Note_on_c, 3, 63, 100
5, 145050, Note_on_c, 3, 63, 0
5, 145050, Note_on_c, 3, 67, 100
5, 145080, Note_on_c, 3, 67, 0
5, 145080, Note_on_c, 3, 70, 100
5, 145110, Note_on_c, 3, 70, 0
5, 145110, Note_on_c, 3, 67, 100
5, 145140, Note_on_c, 3, 67, 0
5, 145140, Note_on_c, 3, 72, 100
5, 145170, Note_on_c, 3, 72, 0
5, 145170, Note_on_c, 3, 68, 100
5, 145200, Note_on_c, 3, 68, 0
5, 145200, Note_on_c, 3, 73, 100
5, 145230, Note_on_c, 3, 73, 0
5, 145230, Note_on_c, 3, 72, 100
5, 145260, Note_on_c, 3, 72, 0
5, 145260, Note_on_c, 3, 70, 100
5, 145290, Note_on_c, 3, 70, 0
5, 145290, Note_on_c, 3, 68, 100
5, 145320, Note_on_c, 3, 68, 0
5, 145320, Note_on_c, 3, 67, 100
5, 145350, Note_on_c, 3, 67, 0
5, 145350, Note_on_c, 3, 65, 100
5, 145380, Note_on_c, 3, 65, 0
5, 145380, Note_on_c, 3, 63, 100
5, 145410, Note_on_c, 3, 63, 0
5, 145410, Note_on_c, 3, 61, 100
5, 145440, Note_on_c, 3, 61, 0
5, 145440, Note_on_c, 3, 60, 100
5, 145500, Note_on_c, 3, 60, 0
5, 145500, Note_on_c, 3, 62, 100
5, 145530, Note_on_c, 3, 62, 0
5, 145530, Note_on_c, 3, 63, 100
5, 145560, Note_on_c, 3, 63, 0
5, 145560, Note_on_c, 3, 65, 100
5, 145590, Note_on_c, 3, 65, 0
5, 145590, Note_on_c, 3, 67, 100
5, 145620, Note_on_c, 3, 67, 0
5, 145620, Note_on_c, 3, 68, 100
5, 145650, Note_on_c, 3, 68, 0
5, 145650, Note_on_c, 3, 70, 100
5, 145680, Note_on_c, 3, 70, 0
5, 145680, Note_on_c, 3, 72, 100
5, 145710, Note_on_c, 3, 72, 0
5, 145710, Note_on_c, 3, 74, 100
5, 145740, Note_on_c, 3, 74, 0
5, 145740, Note_on_c, 3, 75, 100
5, 145770, Note_on_c, 3, 75, 0
5, 145770, Note_on_c, 3, 74, 100
5, 145785, Note_on_c, 3, 77, 100
5, 145800, Note_on_c, 3, 77, 0
5, 145800, Note_on_c, 3, 74, 0
5, 145800, Note_on_c, 3, 75, 100
5, 145860, Note_on_c, 3, 75, 0
5, 145860, Note_on_c, 3, 74, 100
5, 145890, Note_on_c, 3, 74, 0
5, 145890, Note_on_c, 3, 72, 100
5, 145905, Note_on_c, 3, 72, 100
5, 145920, Note_on_c, 3, 72, 0
5, 145920, Note_on_c, 3, 72, 0
5, 145920, Note_on_c, 3, 70, 100
5, 145980, Note_on_c, 3, 70, 0
5, 145980, Note_on_c, 3, 69, 100
5, 146010, Note_on_c, 3, 69, 0
5, 146010, Note_on_c, 3, 70, 100
5, 146025, Note_on_c, 3, 74, 100
5, 146040, Note_on_c, 3, 74, 0
5, 146040, Note_on_c, 3, 70, 0
5, 146040, Note_on_c, 3, 72, 100
5, 146100, Note_on_c, 3, 72, 0
5, 146100, Note_on_c, 3, 70, 100
5, 146130, Note_on_c, 3, 70, 0
5, 146130, Note_on_c, 3, 68, 100
5, 146145, Note_on_c, 3, 68, 100
5, 146160, Note_on_c, 3, 68, 0
5, 146160, Note_on_c, 3, 68, 0
5, 146160, Note_on_c, 3, 67, 100
5, 146220, Note_on_c, 3, 67, 0
5, 146220, Note_on_c, 3, 65, 100
5, 146250, Note_on_c, 3, 65, 0
5, 146250, Note_on_c, 3, 67, 100
5, 146265, Note_on_c, 3, 70, 100
5, 146280, Note_on_c, 3, 70, 0
5, 146280, Note_on_c, 3, 67, 0
5, 146280, Note_on_c, 3, 68, 100
5, 146340, Note_on_c, 3, 68, 0
5, 146340, Note_on_c, 3, 67, 100
5, 146370, Note_on_c, 3, 67, 0
5, 146370, Note_on_c, 3, 65, 100
5, 146400, Note_on_c, 3, 65, 0
5, 146400, Note_on_c, 3, 63, 100
5, 146520, Note_on_c, 3, 63, 0
5, 150270, Note_on_c, 3, 51, 100
5, 150300, Note_on_c, 3, 51, 0
5, 150300, Note_on_c, 3, 53, 100
5, 150330, Note_on_c, 3, 53, 0
5, 150330, Note_on_c, 3, 55, 100
5, 150360, Note_on_c, 3, 55, 0
5, 150360, Note_on_c, 3, 56, 100
5, 150390, Note_on_c, 3, 56, 0
5, 150390, Note_on_c, 3, 58, 100
5, 150420, Note_on_c, 3, 58, 0
5, 150420, Note_on_c, 3, 60, 100
5, 150450, Note_on_c, 3, 60, 0
5, 150450, Note_on_c, 3, 62, 100
5, 150480, Note_on_c, 3, 62, 0
5, 150480, Note_on_c, 3, 63, 100
5, 150600, Note_on_c, 3, 63, 0
5, 150750, Note_on_c, 3, 55, 100
5, 150780, Note_on_c, 3, 55, 0
5, 150780, Note_on_c, 3, 56, 100
5, 150810, Note_on_c, 3, 56, 0
5, 150810, Note_on_c, 3, 58, 100
5, 150840, Note_on_c, 3, 58, 0
5, 150840, Note_on_c, 3, 60, 100
5, 150870, Note_on_c, 3, 60, 0
5, 150870, Note_on_c, 3, 62, 100
5, 150900, Note_on_c, 3, 62, 0
5, 150900, Note_on_c, 3, 63, 100
5, 150930, Note_on_c, 3, 63, 0
5, 150930, Note_on_c, 3, 65, 100
5, 150960, Note_on_c, 3, 65, 0
5, 150960, Note_on_c, 3, 67, 100
5, 151080, Note_on_c, 3, 67, 0
5, 151230, Note_on_c, 3, 58, 100
5, 151260, Note_on_c, 3, 58, 0
5, 151260, Note_on_c, 3, 60, 100
5, 151290, Note_on_c, 3, 60, 0
5, 151290, Note_on_c, 3, 62, 100
5, 151320, Note_on_c, 3, 62, 0
5, 151320, Note_on_c, 3, 63, 100
5, 151350, Note_on_c, 3, 63, 0
5, 151350, Note_on_c, 3, 65, 100
5, 151380, Note_on_c, 3, 65, 0
5, 151380, Note_on_c, 3, 67, 100
5, 151410, Note_on_c, 3, 67, 0
5, 151410, Note_on_c, 3, 68, 100
5, 151440, Note_on_c, 3, 68, 0
5, 151440, Note_on_c, 3, 70, 100
5, 151500, Note_on_c, 3, 70, 0
5, 151500, Note_on_c, 3, 68, 100
5, 151560, Note_on_c, 3, 68, 0
5, 151560, Note_on_c, 3, 67, 100
5, 151620, Note_on_c, 3, 67, 0
5, 151620, Note_on_c, 3, 65, 100
5, 151680, Note_on_c, 3, 65, 0
5, 151680, Note_on_c, 3, 64, 100
5, 151740, Note_on_c, 3, 64, 0
5, 151740, Note_on_c, 3, 65, 100
5, 151800, Note_on_c, 3, 65, 0
5, 151800, Note_on_c, 3, 64, 100
5, 151860, Note_on_c, 3, 64, 0
5, 151860, Note_on_c, 3, 61, 100
5, 151920, Note_on_c, 3, 61, 0
5, 151920, Note_on_c, 3, 60, 100
5, 151980, Note_on_c, 3, 60, 0
5, 151980, Note_on_c, 3, 58, 100
5, 152040, Note_on_c, 3, 58, 0
5, 152040, Note_on_c, 3, 56, 100
5, 152100, Note_on_c, 3, 56, 0
5, 152100, Note_on_c, 3, 55, 100
5, 152160, Note_on_c, 3, 55, 0
5, 152160, Note_on_c, 3, 53, 100
5, 152190, Note_on_c, 3, 53, 0
5, 152190, Note_on_c, 3, 55, 100
5, 152220, Note_on_c, 3, 55, 0
5, 152220, Note_on_c, 3, 57, 100
5, 152250, Note_on_c, 3, 57, 0
5, 152250, Note_on_c, 3, 58, 100
5, 152280, Note_on_c, 3, 58, 0
5, 152280, Note_on_c, 3, 60, 100
5, 152310, Note_on_c, 3, 60, 0
5, 152310, Note_on_c, 3, 62, 100
5, 152340, Note_on_c, 3, 62, 0
5, 152340, Note_on_c, 3, 63, 100
5, 152370, Note_on_c, 3, 63, 0
5, 152370, Note_on_c, 3, 65, 100
5, 152400, Note_on_c, 3, 65, 0
5, 152400, Note_on_c, 3, 50, 100
5, 152430, Note_on_c, 3, 50, 0
5, 152430, Note_on_c, 3, 51, 100
5, 152460, Note_on_c, 3, 51, 0
5, 152460, Note_on_c, 3, 53, 100
5, 152490, Note_on_c, 3, 53, 0
5, 152490, Note_on_c, 3, 55, 100
5, 152520, Note_on_c, 3, 55, 0
5, 152520, Note_on_c, 3, 56, 100
5, 152550, Note_on_c, 3, 56, 0
5, 152550, Note_on_c, 3, 58, 100
5, 152580, Note_on_c, 3, 58, 0
5, 152580, Note_on_c, 3, 60, 100
5, 152610, Note_on_c, 3, 60, 0
5, 152610, Note_on_c, 3, 62, 100
5, 152640, Note_on_c, 3, 62, 0
5, 152640, Note_on_c, 3, 63, 100
5, 152760, Note_on_c, 3, 63, 0
5, 153600, Note_on_c, 3, 67, 100
5, 153630, Note_on_c, 3, 67, 0
5, 153630, Note_on_c, 3, 68, 100
5, 153660, Note_on_c, 3, 68, 0
5, 153660, Note_on_c, 3, 67, 100
5, 153690, Note_on_c, 3, 67, 0
5, 153690, Note_on_c, 3, 65, 100
5, 153720, Note_on_c, 3, 65, 0
5, 153720, Note_on_c, 3, 67, 100
5, 153750, Note_on_c, 3, 67, 0
5, 153750, Note_on_c, 3, 63, 100
5, 153780, Note_on_c, 3, 63, 0
5, 153780, Note_on_c, 3, 65, 100
5, 153810, Note_on_c, 3, 65, 0
5, 153810, Note_on_c, 3, 67, 100
5, 153840, Note_on_c, 3, 67, 0
5, 153840, Note_on_c, 3, 68, 100
5, 153870, Note_on_c, 3, 68, 0
5, 153870, Note_on_c, 3, 70, 100
5, 153900, Note_on_c, 3, 70, 0
5, 153900, Note_on_c, 3, 68, 100
5, 153930, Note_on_c, 3, 68, 0
5, 153930, Note_on_c, 3, 67, 100
5, 153960, Note_on_c, 3, 67, 0
5, 153960, Note_on_c, 3, 68, 100
5, 153990, Note_on_c, 3, 68, 0
5, 153990, Note_on_c, 3, 65, 100
5, 154020, Note_on_c, 3, 65, 0
5, 154020, Note_on_c, 3, 67, 100
5, 154050, Note_on_c, 3, 67, 0
5, 154050, Note_on_c, 3, 68, 100
5, 154080, Note_on_c, 3, 68, 0
5, 154080, Note_on_c, 3, 70, 100
5, 154110, Note_on_c, 3, 70, 0
5, 154110, Note_on_c, 3, 72, 100
5, 154140, Note_on_c, 3, 72, 0
5, 154140, Note_on_c, 3, 70, 100
5, 154170, Note_on_c, 3, 70, 0
5, 154170, Note_on_c, 3, 68, 100
5, 154200, Note_on_c, 3, 68, 0
5, 154200, Note_on_c, 3, 70, 100
5, 154230, Note_on_c, 3, 70, 0
5, 154230, Note_on_c, 3, 67, 100
5, 154260, Note_on_c, 3, 67, 0
5, 154260, Note_on_c, 3, 68, 100
5, 154290, Note_on_c, 3, 68, 0
5, 154290, Note_on_c, 3, 70, 100
5, 154320, Note_on_c, 3, 70, 0
5, 154320, Note_on_c, 3, 72, 100
5, 154380, Note_on_c, 3, 72, 0
5, 154380, Note_on_c, 3, 72, 100
5, 154440, Note_on_c, 3, 72, 0
5, 154440, Note_on_c, 3, 74, 100
5, 154500, Note_on_c, 3, 74, 0
5, 154500, Note_on_c, 3, 74, 100
5, 154560, Note_on_c, 3, 74, 0
5, 154560, Note_on_c, 3, 75, 100
5, 155160, Note_on_c, 3, 75, 0
5, 155160, Note_on_c, 3, 75, 100
5, 155280, Note_on_c, 3, 75, 0
5, 155280, Note_on_c, 3, 75, 100
5, 155400, Note_on_c, 3, 75, 0
5, 155400, Note_on_c, 3, 75, 100
5, 155520, Note_on_c, 3, 75, 0
5, 155520, Note_on_c, 3, 75, 100
5, 155580, Note_on_c, 3, 75, 0
5, 155580, Note_on_c, 3, 79, 100
5, 155640, Note_on_c, 3, 79, 0
5, 155640, Note_on_c, 3, 70, 100
5, 155700, Note_on_c, 3, 70, 0
5, 155700, Note_on_c, 3, 75, 100
5, 155760, Note_on_c, 3, 75, 0
5, 155760, Note_on_c, 3, 67, 100
5, 155820, Note_on_c, 3, 67, 0
5, 155820, Note_on_c, 3, 70, 100
5, 155880, Note_on_c, 3, 70, 0
5, 155880, Note_on_c, 3, 63, 100
5, 155940, Note_on_c, 3, 63, 0
5, 155940, Note_on_c, 3, 67, 100
5, 156000, Note_on_c, 3, 67, 0
5, 156000, Note_on_c, 3, 58, 100
5, 156030, Note_on_c, 3, 58, 0
5, 156030, Note_on_c, 3, 67, 100
5, 156060, Note_on_c, 3, 67, 0
5, 156060, Note_on_c, 3, 75, 100
5, 156090, Note_on_c, 3, 75, 0
5, 156090, Note_on_c, 3, 67, 100
5, 156120, Note_on_c, 3, 67, 0
5, 156120, Note_on_c, 3, 75, 100
5, 156150, Note_on_c, 3, 75, 0
5, 156150, Note_on_c, 3, 67, 100
5, 156180, Note_on_c, 3, 67, 0
5, 156180, Note_on_c, 3, 75, 100
5, 156210, Note_on_c, 3, 75, 0
5, 156210, Note_on_c, 3, 67, 100
5, 156240, Note_on_c, 3, 67, 0
5, 156240, Note_on_c, 3, 75, 100
5, 156270, Note_on_c, 3, 75, 0
5, 156270, Note_on_c, 3, 67, 100
5, 156300, Note_on_c, 3, 67, 0
5, 156300, Note_on_c, 3, 75, 100
5, 156330, Note_on_c, 3, 75, 0
5, 156330, Note_on_c, 3, 67, 100
5, 156360, Note_on_c, 3, 67, 0
5, 156360, Note_on_c, 3, 75, 100
5, 156390, Note_on_c, 3, 75, 0
5, 156390, Note_on_c, 3, 67, 100
5, 156420, Note_on_c, 3, 67, 0
5, 156420, Note_on_c, 3, 75, 100
5, 156450, Note_on_c, 3, 75, 0
5, 156450, Note_on_c, 3, 67, 100
5, 156480, Note_on_c, 3, 67, 0
5, 156480, Note_on_c, 3, 58, 100
5, 156510, Note_on_c, 3, 58, 0
5, 156510, Note_on_c, 3, 68, 100
5, 156540, Note_on_c, 3, 68, 0
5, 156540, Note_on_c, 3, 74, 100
5, 156570, Note_on_c, 3, 74, 0
5, 156570, Note_on_c, 3, 68, 100
5, 156600, Note_on_c, 3, 68, 0
5, 156600, Note_on_c, 3, 74, 100
5, 156630, Note_on_c, 3, 74, 0
5, 156630, Note_on_c, 3, 68, 100
5, 156660, Note_on_c, 3, 68, 0
5, 156660, Note_on_c, 3, 74, 100
5, 156690, Note_on_c, 3, 74, 0
5, 156690, Note_on_c, 3, 68, 100
5, 156720, Note_on_c, 3, 68, 0
5, 156720, Note_on_c, 3, 58, 100
5, 156750, Note_on_c, 3, 58, 0
5, 156750, Note_on_c, 3, 68, 100
5, 156780, Note_on_c, 3, 68, 0
5, 156780, Note_on_c, 3, 74, 100
5, 156810, Note_on_c, 3, 74, 0
5, 156810, Note_on_c, 3, 68, 100
5, 156840, Note_on_c, 3, 68, 0
5, 156840, Note_on_c, 3, 74, 100
5, 156870, Note_on_c, 3, 74, 0
5, 156870, Note_on_c, 3, 68, 100
5, 156900, Note_on_c, 3, 68, 0
5, 156900, Note_on_c, 3, 74, 100
5, 156930, Note_on_c, 3, 74, 0
5, 156930, Note_on_c, 3, 68, 100
5, 156960, Note_on_c, 3, 68, 0
5, 156960, Note_on_c, 3, 67, 100
5, 156960, Note_on_c, 3, 75, 100
5, 157080, Note_on_c, 3, 75, 0
5, 157080, Note_on_c, 3, 67, 0
5, 157080, Note_on_c, 3, 55, 100
5, 157080, Note_on_c, 3, 58, 100
5, 157080, Note_on_c, 3, 63, 100
5, 157200, Note_on_c, 3, 63, 0
5, 157200, Note_on_c, 3, 58, 0
5, 157200, Note_on_c, 3, 55, 0
5, 157320, Note_on_c, 3, 55, 100
5, 157320, Note_on_c, 3, 58, 100
5, 157320, Note_on_c, 3, 63, 100
5, 157440, Note_on_c, 3, 63, 0
5, 157440, Note_on_c, 3, 58, 0
5, 157440, Note_on_c, 3, 55, 0
5, 157560, Note_on_c, 3, 55, 100
5, 157650, Note_on_c, 3, 55, 0
5, 157650, Note_on_c, 3, 58, 100
5, 157680, Note_on_c, 3, 58, 0
5, 157680, Note_on_c, 3, 63, 100
5, 157740, Note_on_c, 3, 63, 0
5, 157740, Note_on_c, 3, 63, 100
5, 157800, Note_on_c, 3, 63, 0
5, 157800, Note_on_c, 3, 63, 100
5, 157860, Note_on_c, 3, 63, 0
5, 157860, Note_on_c, 3, 63, 100
5, 157920, Note_on_c, 3, 63, 0
5, 157920, Note_on_c, 3, 63, 100
5, 157980, Note_on_c, 3, 63, 0
5, 157980, Note_on_c, 3, 62, 100
5, 158040, Note_on_c, 3, 62, 0
5, 158040, Note_on_c, 3, 62, 100
5, 158160, Note_on_c, 3, 62, 0
5, 158280, Note_on_c, 3, 56, 100
5, 158280, Note_on_c, 3, 65, 100
5, 158400, Note_on_c, 3, 65, 0
5, 158400, Note_on_c, 3, 56, 0
5, 158520, Note_on_c, 3, 56, 100
5, 158610, Note_on_c, 3, 56, 0
5, 158610, Note_on_c, 3, 62, 100
5, 158640, Note_on_c, 3, 62, 0
5, 158640, Note_on_c, 3, 65, 100
5, 158700, Note_on_c, 3, 65, 0
5, 158700, Note_on_c, 3, 65, 100
5, 158760, Note_on_c, 3, 65, 0
5, 158760, Note_on_c, 3, 65, 100
5, 158820, Note_on_c, 3, 65, 0
5, 158820, Note_on_c, 3, 65, 100
5, 158880, Note_on_c, 3, 65, 0
5, 158880, Note_on_c, 3, 65, 100
5, 158940, Note_on_c, 3, 65, 0
5, 158940, Note_on_c, 3, 63, 100
5, 159000, Note_on_c, 3, 63, 0
5, 159000, Note_on_c, 3, 63, 100
5, 159120, Note_on_c, 3, 63, 0
5, 159240, Note_on_c, 3, 51, 100
5, 159240, Note_on_c, 3, 58, 100
5, 159240, Note_on_c, 3, 67, 100
5, 159360, Note_on_c, 3, 67, 0
5, 159360, Note_on_c, 3, 58, 0
5, 159360, Note_on_c, 3, 51, 0
5, 159480, Note_on_c, 3, 58, 100
5, 159570, Note_on_c, 3, 58, 0
5, 159570, Note_on_c, 3, 63, 100
5, 159600, Note_on_c, 3, 63, 0
5, 159600, Note_on_c, 3, 67, 100
5, 159660, Note_on_c, 3, 67, 0
5, 159660, Note_on_c, 3, 67, 100
5, 159720, Note_on_c, 3, 67, 0
5, 159720, Note_on_c, 3, 67, 100
5, 159780, Note_on_c, 3, 67, 0
5, 159780, Note_on_c, 3, 67, 100
5, 159840, Note_on_c, 3, 67, 0
5, 159840, Note_on_c, 3, 65, 100
5, 159900, Note_on_c, 3, 65, 0
5, 159900, Note_on_c, 3, 53, 100
5, 159900, Note_on_c, 3, 60, 100
5, 160020, Note_on_c, 3, 60, 0
5, 160020, Note_on_c, 3, 53, 0
5, 160020, Note_on_c, 3, 53, 100
5, 160020, Note_on_c, 3, 60, 100
5, 160140, Note_on_c, 3, 60, 0
5, 160140, Note_on_c, 3, 53, 0
5, 160140, Note_on_c, 3, 53, 100
5, 160140, Note_on_c, 3, 60, 100
5, 160260, Note_on_c, 3, 60, 0
5, 160260, Note_on_c, 3, 53, 0
5, 160260, Note_on_c, 3, 53, 100
5, 160260, Note_on_c, 3, 60, 100
5, 160380, Note_on_c, 3, 60, 0
5, 160380, Note_on_c, 3, 53, 0
5, 160380, Note_on_c, 3, 53, 100
5, 160380, Note_on_c, 3, 60, 100
5, 160500, Note_on_c, 3, 60, 0
5, 160500, Note_on_c, 3, 53, 0
5, 160500, Note_on_c, 3, 53, 100
5, 160500, Note_on_c, 3, 60, 100
5, 160620, Note_on_c, 3, 60, 0
5, 160620, Note_on_c, 3, 53, 0
5, 160620, Note_on_c, 3, 53, 100
5, 160620, Note_on_c, 3, 60, 100
5, 160740, Note_on_c, 3, 60, 0
5, 160740, Note_on_c, 3, 53, 0
5, 160740, Note_on_c, 3, 53, 100
5, 160740, Note_on_c, 3, 60, 100
5, 160800, Note_on_c, 3, 53, 0
5, 160800, Note_on_c, 3, 51, 100
5, 160860, Note_on_c, 3, 51, 0
5, 160860, Note_on_c, 3, 60, 0
5, 160860, Note_on_c, 3, 72, 100
5, 160980, Note_on_c, 3, 72, 0
5, 160980, Note_on_c, 3, 72, 100
5, 161100, Note_on_c, 3, 72, 0
5, 161100, Note_on_c, 3, 72, 100
5, 161220, Note_on_c, 3, 72, 0
5, 161220, Note_on_c, 3, 72, 100
5, 161340, Note_on_c, 3, 72, 0
5, 161340, Note_on_c, 3, 72, 100
5, 161460, Note_on_c, 3, 72, 0
5, 161460, Note_on_c, 3, 72, 100
5, 161580, Note_on_c, 3, 72, 0
5, 161580, Note_on_c, 3, 72, 100
5, 161700, Note_on_c, 3, 72, 0
5, 161700, Note_on_c, 3, 72, 100
5, 161760, Note_on_c, 3, 72, 0
5, 161760, Note_on_c, 3, 67, 100
5, 161760, Note_on_c, 3, 51, 100
5, 161760, Note_on_c, 3, 58, 100
5, 161880, Note_on_c, 3, 58, 0
5, 161880, Note_on_c, 3, 51, 0
5, 162240, Note_on_c, 3, 67, 0
5, 162720, Note_on_c, 3, 50, 100
5, 162750, Note_on_c, 3, 50, 0
5, 162750, Note_on_c, 3, 58, 100
5, 162780, Note_on_c, 3, 58, 0
5, 162780, Note_on_c, 3, 53, 100
5, 162810, Note_on_c, 3, 53, 0
5, 162810, Note_on_c, 3, 62, 100
5, 162840, Note_on_c, 3, 62, 0
5, 162840, Note_on_c, 3, 58, 100
5, 162870, Note_on_c, 3, 58, 0
5, 162870, Note_on_c, 3, 65, 100
5, 162900, Note_on_c, 3, 65, 0
5, 162900, Note_on_c, 3, 62, 100
5, 162930, Note_on_c, 3, 62, 0
5, 162930, Note_on_c, 3, 70, 100
5, 162960, Note_on_c, 3, 70, 0
5, 162960, Note_on_c, 3, 65, 100
5, 162990, Note_on_c, 3, 65, 0
5, 162990, Note_on_c, 3, 74, 100
5, 163020, Note_on_c, 3, 74, 0
5, 163020, Note_on_c, 3, 70, 100
5, 163050, Note_on_c, 3, 70, 0
5, 163050, Note_on_c, 3, 77, 100
5, 163080, Note_on_c, 3, 77, 0
5, 163080, Note_on_c, 3, 75, 100
5, 163110, Note_on_c, 3, 75, 0
5, 163110, Note_on_c, 3, 74, 100
5, 163140, Note_on_c, 3, 74, 0
5, 163140, Note_on_c, 3, 72, 100
5, 163170, Note_on_c, 3, 72, 0
5, 163170, Note_on_c, 3, 70, 100
5, 163200, Note_on_c, 3, 70, 0
5, 163200, Note_on_c, 3, 75, 100
5, 163290, Note_on_c, 3, 75, 0
5, 163290, Note_on_c, 3, 70, 100
5, 163320, Note_on_c, 3, 70, 0
5, 163320, Note_on_c, 3, 67, 100
5, 163440, Note_on_c, 3, 67, 0
5, 163680, Note_on_c, 3, 50, 100
5, 163710, Note_on_c, 3, 50, 0
5, 163710, Note_on_c, 3, 58, 100
5, 163740, Note_on_c, 3, 58, 0
5, 163740, Note_on_c, 3, 53, 100
5, 163770, Note_on_c, 3, 53, 0
5, 163770, Note_on_c, 3, 62, 100
5, 163800, Note_on_c, 3, 62, 0
5, 163800, Note_on_c, 3, 58, 100
5, 163830, Note_on_c, 3, 58, 0
5, 163830, Note_on_c, 3, 65, 100
5, 163860, Note_on_c, 3, 65, 0
5, 163860, Note_on_c, 3, 62, 100
5, 163890, Note_on_c, 3, 62, 0
5, 163890, Note_on_c, 3, 70, 100
5, 163920, Note_on_c, 3, 70, 0
5, 163920, Note_on_c, 3, 65, 100
5, 163950, Note_on_c, 3, 65, 0
5, 163950, Note_on_c, 3, 74, 100
5, 163980, Note_on_c, 3, 74, 0
5, 163980, Note_on_c, 3, 70, 100
5, 164010, Note_on_c, 3, 70, 0
5, 164010, Note_on_c, 3, 77, 100
5, 164040, Note_on_c, 3, 77, 0
5, 164040, Note_on_c, 3, 75, 100
5, 164070, Note_on_c, 3, 75, 0
5, 164070, Note_on_c, 3, 74, 100
5, 164100, Note_on_c, 3, 74, 0
5, 164100, Note_on_c, 3, 72, 100
5, 164130, Note_on_c, 3, 72, 0
5, 164130, Note_on_c, 3, 70, 100
5, 164160, Note_on_c, 3, 70, 0
5, 164160, Note_on_c, 3, 75, 100
5, 164280, Note_on_c, 3, 75, 0
5, 164400, Note_on_c, 3, 67, 100
5, 164400, Note_on_c, 3, 70, 100
5, 164520, Note_on_c, 3, 70, 0
5, 164520, Note_on_c, 3, 67, 0
5, 164640, Note_on_c, 3, 68, 100
5, 164670, Note_on_c, 3, 68, 0
5, 164670, Note_on_c, 3, 72, 100
5, 164700, Note_on_c, 3, 72, 0
5, 164700, Note_on_c, 3, 71, 100
5, 164730, Note_on_c, 3, 71, 0
5, 164730, Note_on_c, 3, 72, 100
5, 164760, Note_on_c, 3, 72, 0
5, 164760, Note_on_c, 3, 73, 100
5, 164790, Note_on_c, 3, 73, 0
5, 164790, Note_on_c, 3, 72, 100
5, 164820, Note_on_c, 3, 72, 0
5, 164820, Note_on_c, 3, 71, 100
5, 164850, Note_on_c, 3, 71, 0
5, 164850, Note_on_c, 3, 72, 100
5, 164880, Note_on_c, 3, 72, 0
5, 164880, Note_on_c, 3, 70, 100
5, 164910, Note_on_c, 3, 70, 0
5, 164910, Note_on_c, 3, 70, 100
5, 164940, Note_on_c, 3, 70, 0
5, 164940, Note_on_c, 3, 69, 100
5, 164970, Note_on_c, 3, 69, 0
5, 164970, Note_on_c, 3, 70, 100
5, 165000, Note_on_c, 3, 70, 0
5, 165000, Note_on_c, 3, 72, 100
5, 165030, Note_on_c, 3, 72, 0
5, 165030, Note_on_c, 3, 70, 100
5, 165060, Note_on_c, 3, 70, 0
5, 165060, Note_on_c, 3, 69, 100
5, 165090, Note_on_c, 3, 69, 0
5, 165090, Note_on_c, 3, 70, 100
5, 165120, Note_on_c, 3, 70, 0
5, 165120, Note_on_c, 3, 69, 100
5, 165240, Note_on_c, 3, 69, 0
5, 165360, Note_on_c, 3, 69, 100
5, 165360, Note_on_c, 3, 72, 100
5, 165480, Note_on_c, 3, 72, 0
5, 165480, Note_on_c, 3, 69, 0
5, 165600, Note_on_c, 3, 70, 100
5, 165630, Note_on_c, 3, 70, 0
5, 165630, Note_on_c, 3, 74, 100
5, 165660, Note_on_c, 3, 74, 0
5, 165660, Note_on_c, 3, 73, 100
5, 165690, Note_on_c, 3, 73, 0
5, 165690, Note_on_c, 3, 74, 100
5, 165720, Note_on_c, 3, 74, 0
5, 165720, Note_on_c, 3, 73, 100
5, 165750, Note_on_c, 3, 73, 0
5, 165750, Note_on_c, 3, 74, 100
5, 165780, Note_on_c, 3, 74, 0
5, 165780, Note_on_c, 3, 75, 100
5, 165810, Note_on_c, 3, 75, 0
5, 165810, Note_on_c, 3, 74, 100
5, 165840, Note_on_c, 3, 74, 0
5, 165840, Note_on_c, 3, 72, 100
5, 165870, Note_on_c, 3, 72, 0
5, 165870, Note_on_c, 3, 72, 100
5, 165900, Note_on_c, 3, 72, 0
5, 165900, Note_on_c, 3, 71, 100
5, 165930, Note_on_c, 3, 71, 0
5, 165930, Note_on_c, 3, 72, 100
5, 165960, Note_on_c, 3, 72, 0
5, 165960, Note_on_c, 3, 71, 100
5, 165990, Note_on_c, 3, 71, 0
5, 165990, Note_on_c, 3, 72, 100
5, 166020, Note_on_c, 3, 72, 0
5, 166020, Note_on_c, 3, 74, 100
5, 166050, Note_on_c, 3, 74, 0
5, 166050, Note_on_c, 3, 72, 100
5, 166080, Note_on_c, 3, 72, 0
5, 166080, Note_on_c, 3, 71, 100
5, 166200, Note_on_c, 3, 71, 0
5, 166320, Note_on_c, 3, 67, 100
5, 166320, Note_on_c, 3, 59, 100
5, 166560, Note_on_c, 3, 59, 0
5, 166560, Note_on_c, 3, 60, 100
5, 166800, Note_on_c, 3, 60, 0
5, 166800, Note_on_c, 3, 58, 100
5, 167040, Note_on_c, 3, 58, 0
5, 167040, Note_on_c, 3, 67, 0
5, 167040, Note_on_c, 3, 56, 100
5, 167040, Note_on_c, 3, 63, 100
5, 167160, Note_on_c, 3, 56, 0
5, 167160, Note_on_c, 3, 58, 100
5, 167280, Note_on_c, 3, 58, 0
5, 167280, Note_on_c, 3, 60, 100
5, 167400, Note_on_c, 3, 60, 0
5, 167400, Note_on_c, 3, 58, 100
5, 167520, Note_on_c, 3, 58, 0
5, 167520, Note_on_c, 3, 63, 0
5, 167520, Note_on_c, 3, 56, 100
5, 167520, Note_on_c, 3, 72, 100
5, 167640, Note_on_c, 3, 72, 0
5, 167640, Note_on_c, 3, 56, 0
5, 168000, Note_on_c, 3, 67, 100
5, 168030, Note_on_c, 3, 67, 0
5, 168030, Note_on_c, 3, 65, 100
5, 168060, Note_on_c, 3, 65, 0
5, 168060, Note_on_c, 3, 68, 100
5, 168090, Note_on_c, 3, 68, 0
5, 168090, Note_on_c, 3, 67, 100
5, 168120, Note_on_c, 3, 67, 0
5, 168120, Note_on_c, 3, 70, 100
5, 168150, Note_on_c, 3, 70, 0
5, 168150, Note_on_c, 3, 68, 100
5, 168180, Note_on_c, 3, 68, 0
5, 168180, Note_on_c, 3, 72, 100
5, 168210, Note_on_c, 3, 72, 0
5, 168210, Note_on_c, 3, 70, 100
5, 168240, Note_on_c, 3, 70, 0
5, 168240, Note_on_c, 3, 74, 100
5, 168270, Note_on_c, 3, 74, 0
5, 168270, Note_on_c, 3, 72, 100
5, 168300, Note_on_c, 3, 72, 0
5, 168300, Note_on_c, 3, 70, 100
5, 168330, Note_on_c, 3, 70, 0
5, 168330, Note_on_c, 3, 68, 100
5, 168360, Note_on_c, 3, 68, 0
5, 168360, Note_on_c, 3, 68, 100
5, 168390, Note_on_c, 3, 68, 0
5, 168390, Note_on_c, 3, 67, 100
5, 168420, Note_on_c, 3, 67, 0
5, 168420, Note_on_c, 3, 65, 100
5, 168450, Note_on_c, 3, 65, 0
5, 168450, Note_on_c, 3, 63, 100
5, 168480, Note_on_c, 3, 63, 0
5, 168480, Note_on_c, 3, 63, 100
5, 168510, Note_on_c, 3, 63, 0
5, 168510, Note_on_c, 3, 62, 100
5, 168540, Note_on_c, 3, 62, 0
5, 168540, Note_on_c, 3, 65, 100
5, 168570, Note_on_c, 3, 65, 0
5, 168570, Note_on_c, 3, 63, 100
5, 168600, Note_on_c, 3, 63, 0
5, 168600, Note_on_c, 3, 67, 100
5, 168630, Note_on_c, 3, 67, 0
5, 168630, Note_on_c, 3, 65, 100
5, 168660, Note_on_c, 3, 65, 0
5, 168660, Note_on_c, 3, 68, 100
5, 168690, Note_on_c, 3, 68, 0
5, 168690, Note_on_c, 3, 67, 100
5, 168720, Note_on_c, 3, 67, 0
5, 168720, Note_on_c, 3, 70, 100
5, 168750, Note_on_c, 3, 70, 0
5, 168750, Note_on_c, 3, 68, 100
5, 168780, Note_on_c, 3, 68, 0
5, 168780, Note_on_c, 3, 67, 100
5, 168810, Note_on_c, 3, 67, 0
5, 168810, Note_on_c, 3, 65, 100
5, 168840, Note_on_c, 3, 65, 0
5, 168840, Note_on_c, 3, 67, 100
5, 168870, Note_on_c, 3, 67, 0
5, 168870, Note_on_c, 3, 65, 100
5, 168900, Note_on_c, 3, 65, 0
5, 168900, Note_on_c, 3, 63, 100
5, 168930, Note_on_c, 3, 63, 0
5, 168930, Note_on_c, 3, 62, 100
5, 168960, Note_on_c, 3, 62, 0
5, 168960, Note_on_c, 3, 60, 100
5, 168960, Note_on_c, 3, 63, 100
5, 169200, Note_on_c, 3, 63, 0
5, 169200, Note_on_c, 3, 60, 0
5, 169200, Note_on_c, 3, 57, 100
5, 169200, Note_on_c, 3, 60, 100
5, 169440, Note_on_c, 3, 60, 0
5, 169440, Note_on_c, 3, 57, 0
5, 169440, Note_on_c, 3, 58, 100
5, 169440, Note_on_c, 3, 65, 100
5, 169680, Note_on_c, 3, 65, 0
5, 169680, Note_on_c, 3, 58, 0
5, 169680, Note_on_c, 3, 56, 100
5, 169680, Note_on_c, 3, 62, 100
5, 169800, Note_on_c, 3, 62, 0
5, 169800, Note_on_c, 3, 56, 0
5, 169920, Note_on_c, 3, 55, 100
5, 169920, Note_on_c, 3, 63, 100
5, 170040, Note_on_c, 3, 63, 0
5, 170040, Note_on_c, 3, 55, 0
5, 170160, Note_on_c, 3, 77, 100
5, 170160, Note_on_c, 3, 62, 100
5, 170160, Note_on_c, 3, 70, 100
5, 170280, Note_on_c, 3, 70, 0
5, 170280, Note_on_c, 3, 62, 0
5, 170440, Note_on_c, 3, 77, 0
5, 170440, Note_on_c, 3, 75, 100
5, 170480, Note_on_c, 3, 75, 0
5, 170480, Note_on_c, 3, 74, 100
5, 170520, Note_on_c, 3, 74, 0
5, 170520, Note_on_c, 3, 72, 100
5, 170560, Note_on_c, 3, 72, 0
5, 170560, Note_on_c, 3, 70, 100
5, 170600, Note_on_c, 3, 70, 0
5, 170600, Note_on_c, 3, 68, 100
5, 170640, Note_on_c, 3, 68, 0
5, 170640, Note_on_c, 3, 67, 100
5, 170700, Note_on_c, 3, 67, 0
5, 170760, Note_on_c, 3, 66, 100
5, 170820, Note_on_c, 3, 66, 0
5, 170880, Note_on_c, 3, 65, 100
5, 171000, Note_on_c, 3, 65, 0
5, 171060, Note_on_c, 3, 62, 100
5, 171120, Note_on_c, 3, 62, 0
5, 171120, Note_on_c, 3, 63, 100
5, 171180, Note_on_c, 3, 63, 0
5, 171180, Note_on_c, 3, 65, 100
5, 171240, Note_on_c, 3, 65, 0
5, 171240, Note_on_c, 3, 66, 100
5, 171300, Note_on_c, 3, 66, 0
5, 171300, Note_on_c, 3, 67, 100
5, 171360, Note_on_c, 3, 67, 0
5, 171360, Note_on_c, 3, 68, 100
5, 171420, Note_on_c, 3, 68, 0
5, 171420, Note_on_c, 3, 60, 100
5, 171480, Note_on_c, 3, 60, 0
5, 171480, Note_on_c, 3, 62, 100
5, 171540, Note_on_c, 3, 62, 0
5, 171540, Note_on_c, 3, 64, 100
5, 171600, Note_on_c, 3, 64, 0
5, 171600, Note_on_c, 3, 65, 100
5, 171660, Note_on_c, 3, 65, 0
5, 171660, Note_on_c, 3, 66, 100
5, 171720, Note_on_c, 3, 66, 0
5, 171720, Note_on_c, 3, 67, 100
5, 171780, Note_on_c, 3, 67, 0
5, 171780, Note_on_c, 3, 58, 100
5, 171840, Note_on_c, 3, 58, 0
5, 171840, Note_on_c, 3, 60, 100
5, 171900, Note_on_c, 3, 60, 0
5, 171900, Note_on_c, 3, 62, 100
5, 171960, Note_on_c, 3, 62, 0
5, 171960, Note_on_c, 3, 63, 100
5, 172020, Note_on_c, 3, 63, 0
5, 172020, Note_on_c, 3, 64, 100
5, 172080, Note_on_c, 3, 64, 0
5, 172080, Note_on_c, 3, 65, 100
5, 172140, Note_on_c, 3, 65, 0
5, 172200, Note_on_c, 3, 62, 100
5, 172260, Note_on_c, 3, 62, 0
5, 172305, Note_on_c, 3, 63, 100
5, 172320, Note_on_c, 3, 63, 0
5, 172320, Note_on_c, 3, 75, 100
5, 172590, Note_on_c, 3, 75, 0
5, 172590, Note_on_c, 3, 77, 100
5, 172620, Note_on_c, 3, 77, 0
5, 172620, Note_on_c, 3, 78, 100
5, 172650, Note_on_c, 3, 78, 0
5, 172650, Note_on_c, 3, 77, 100
5, 172680, Note_on_c, 3, 77, 0
5, 172680, Note_on_c, 3, 75, 100
5, 172710, Note_on_c, 3, 75, 0
5, 172710, Note_on_c, 3, 73, 100
5, 172740, Note_on_c, 3, 73, 0
5, 172740, Note_on_c, 3, 71, 100
5, 172770, Note_on_c, 3, 71, 0
5, 172770, Note_on_c, 3, 70, 100
5, 172800, Note_on_c, 3, 70, 0
5, 172800, Note_on_c, 3, 69, 100
5, 173040, Note_on_c, 3, 69, 0
5, 173040, Note_on_c, 3, 68, 100
5, 173280, Note_on_c, 3, 68, 0
5, 173280, Note_on_c, 3, 67, 100
5, 173430, Note_on_c, 3, 67, 0
5, 173430, Note_on_c, 3, 68, 100
5, 173445, Note_on_c, 3, 68, 0
5, 173445, Note_on_c, 3, 70, 100
5, 173460, Note_on_c, 3, 70, 0
5, 173460, Note_on_c, 3, 72, 100
5, 173475, Note_on_c, 3, 72, 0
5, 173475, Note_on_c, 3, 74, 100
5, 173490, Note_on_c, 3, 74, 0
5, 173490, Note_on_c, 3, 75, 100
5, 173505, Note_on_c, 3, 75, 0
5, 173505, Note_on_c, 3, 77, 100
5, 173520, Note_on_c, 3, 77, 0
5, 173520, Note_on_c, 3, 79, 100
5, 173580, Note_on_c, 3, 79, 0
5, 173580, Note_on_c, 3, 70, 100
5, 173640, Note_on_c, 3, 70, 0
5, 173640, Note_on_c, 3, 67, 100
5, 173700, Note_on_c, 3, 67, 0
5, 173760, Note_on_c, 3, 74, 100
5, 174210, Note_on_c, 3, 72, 100
5, 174225, Note_on_c, 3, 72, 0
5, 174225, Note_on_c, 3, 74, 100
5, 174240, Note_on_c, 3, 74, 0
5, 174240, Note_on_c, 3, 74, 0
5, 174240, Note_on_c, 3, 75, 100
5, 174480, Note_on_c, 3, 75, 0
5, 174480, Note_on_c, 3, 63, 100
5, 174660, Note_on_c, 3, 63, 0
5, 174660, Note_on_c, 3, 62, 100
5, 174690, Note_on_c, 3, 62, 0
5, 174690, Note_on_c, 3, 63, 100
5, 174720, Note_on_c, 3, 63, 0
5, 174720, Note_on_c, 3, 67, 100
5, 174960, Note_on_c, 3, 67, 0
5, 174960, Note_on_c, 3, 70, 100
5, 175200, Note_on_c, 3, 70, 0
5, 175200, Note_on_c, 3, 75, 100
5, 175440, Note_on_c, 3, 75, 0
5, 175440, Note_on_c, 3, 60, 100
5, 175620, Note_on_c, 3, 60, 0
5, 175620, Note_on_c, 3, 59, 100
5, 175650, Note_on_c, 3, 59, 0
5, 175650, Note_on_c, 3, 60, 100
5, 175680, Note_on_c, 3, 60, 0
5, 175680, Note_on_c, 3, 63, 100
5, 175920, Note_on_c, 3, 63, 0
5, 175920, Note_on_c, 3, 67, 100
5, 176160, Note_on_c, 3, 67, 0
5, 176160, Note_on_c, 3, 72, 100
5, 177120, Note_on_c, 3, 72, 0
5, 177120, Note_on_c, 3, 70, 100
5, 177360, Note_on_c, 3, 70, 0
5, 177360, Note_on_c, 3, 58, 100
5, 178200, Note_on_c, 3, 58, 0
5, 178560, Note_on_c, 3, 58, 100
5, 178560, Note_on_c, 3, 62, 100
5, 179040, Note_on_c, 3, 62, 0
5, 179040, Note_on_c, 3, 63, 100
5, 179160, Note_on_c, 3, 63, 0
5, 179160, Note_on_c, 3, 58, 0
5, 179520, Note_on_c, 3, 62, 100
5, 179520, Note_on_c, 3, 58, 100
5, 180000, Note_on_c, 3, 62, 0
5, 180000, Note_on_c, 3, 63, 100
5, 180120, Note_on_c, 3, 63, 0
5, 180120, Note_on_c, 3, 58, 0
5, 180120, Note_on_c, 3, 67, 100
5, 180180, Note_on_c, 3, 67, 0
5, 180180, Note_on_c, 3, 70, 100
5, 180240, Note_on_c, 3, 70, 0
5, 180240, Note_on_c, 3, 67, 100
5, 180300, Note_on_c, 3, 67, 0
5, 180300, Note_on_c, 3, 70, 100
5, 180360, Note_on_c, 3, 70, 0
5, 180360, Note_on_c, 3, 67, 100
5, 180420, Note_on_c, 3, 67, 0
5, 180420, Note_on_c, 3, 70, 100
5, 180480, Note_on_c, 3, 70, 0
5, 180480, Note_on_c, 3, 67, 100
5, 180600, Note_on_c, 3, 67, 0
5, 180600, Note_on_c, 3, 63, 100
5, 180660, Note_on_c, 3, 63, 0
5, 180660, Note_on_c, 3, 58, 100
5, 180720, Note_on_c, 3, 58, 0
5, 180720, Note_on_c, 3, 63, 100
5, 180780, Note_on_c, 3, 63, 0
5, 180780, Note_on_c, 3, 58, 100
5, 180840, Note_on_c, 3, 58, 0
5, 180840, Note_on_c, 3, 63, 100
5, 180900, Note_on_c, 3, 63, 0
5, 180900, Note_on_c, 3, 58, 100
5, 180960, Note_on_c, 3, 58, 0
5, 180960, Note_on_c, 3, 63, 100
5, 181200, Note_on_c, 3, 63, 0
5, 181200, Note_on_c, 3, 55, 100
5, 181320, Note_on_c, 3, 55, 0
5, 181320, Note_on_c, 3, 58, 100
5, 181440, Note_on_c, 3, 58, 0
5, 181440, Note_on_c, 3, 63, 100
5, 181560, Note_on_c, 3, 63, 0
5, 181560, Note_on_c, 3, 67, 100
5, 181680, Note_on_c, 3, 67, 0
5, 181680, Note_on_c, 3, 70, 100
5, 181800, Note_on_c, 3, 70, 0
5, 181800, Note_on_c, 3, 67, 100
5, 181920, Note_on_c, 3, 67, 0
5, 181920, Note_on_c, 3, 63, 100
5, 182040, Note_on_c, 3, 63, 0
5, 182040, Note_on_c, 3, 63, 100
5, 182160, Note_on_c, 3, 63, 0
5, 182160, Note_on_c, 3, 63, 100
5, 182280, Note_on_c, 3, 63, 0
5, 182280, Note_on_c, 3, 63, 100
5, 182400, Note_on_c, 3, 63, 0
5, 182400, Note_on_c, 3, 63, 100
5, 182520, Note_on_c, 3, 63, 0
5, 182610, Note_on_c, 3, 63, 100
5, 182640, Note_on_c, 3, 63, 0
5, 182640, Note_on_c, 3, 63, 100
5, 182760, Note_on_c, 3, 63, 0
5, 182850, Note_on_c, 3, 63, 100
5, 182880, Note_on_c, 3, 63, 0
5, 182880, Note_on_c, 3, 63, 100
5, 183120, Note_on_c, 3, 63, 0
5, 183120, End_track
6, 0, Start_track
6, 0, MIDI_port, 0
6, 0, Title_t, "Violino I"
6, 0, Program_c, 4, 40
6, 0, Note_on_c, 4, 63, 100
6, 0, Note_on_c, 4, 58, 100
6, 480, Note_on_c, 4, 58, 0
6, 480, Note_on_c, 4, 63, 0
6, 480, Note_on_c, 4, 58, 100
6, 480, Note_on_c, 4, 63, 100
6, 720, Note_on_c, 4, 63, 0
6, 720, Note_on_c, 4, 58, 0
6, 720, Note_on_c, 4, 58, 100
6, 720, Note_on_c, 4, 63, 100
6, 900, Note_on_c, 4, 63, 0
6, 900, Note_on_c, 4, 58, 0
6, 900, Note_on_c, 4, 58, 100
6, 900, Note_on_c, 4, 63, 100
6, 960, Note_on_c, 4, 63, 0
6, 960, Note_on_c, 4, 58, 0
6, 960, Note_on_c, 4, 58, 100
6, 960, Note_on_c, 4, 63, 100
6, 1020, Note_on_c, 4, 63, 0
6, 1020, Note_on_c, 4, 58, 0
6, 1080, Note_on_c, 4, 82, 100
6, 1140, Note_on_c, 4, 82, 0
6, 1200, Note_on_c, 4, 79, 100
6, 1260, Note_on_c, 4, 79, 0
6, 1320, Note_on_c, 4, 75, 100
6, 1380, Note_on_c, 4, 75, 0
6, 1440, Note_on_c, 4, 70, 100
6, 1500, Note_on_c, 4, 70, 0
6, 1560, Note_on_c, 4, 67, 100
6, 1620, Note_on_c, 4, 67, 0
6, 1680, Note_on_c, 4, 63, 100
6, 1740, Note_on_c, 4, 63, 0
6, 1800, Note_on_c, 4, 58, 100
6, 1860, Note_on_c, 4, 58, 0
6, 1920, Note_on_c, 4, 56, 100
6, 2040, Note_on_c, 4, 56, 0
6, 2040, Note_on_c, 4, 70, 100
6, 2040, Note_on_c, 4, 80, 100
6, 2280, Note_on_c, 4, 80, 0
6, 2280, Note_on_c, 4, 70, 0
6, 2280, Note_on_c, 4, 70, 100
6, 2280, Note_on_c, 4, 80, 100
6, 2520, Note_on_c, 4, 80, 0
6, 2520, Note_on_c, 4, 70, 0
6, 2520, Note_on_c, 4, 70, 100
6, 2520, Note_on_c, 4, 80, 100
6, 2745, Note_on_c, 4, 82, 100
6, 2760, Note_on_c, 4, 82, 0
6, 2760, Note_on_c, 4, 80, 0
6, 2760, Note_on_c, 4, 70, 0
6, 2760, Note_on_c, 4, 80, 100
6, 2820, Note_on_c, 4, 80, 0
6, 2820, Note_on_c, 4, 79, 100
6, 2850, Note_on_c, 4, 79, 0
6, 2850, Note_on_c, 4, 77, 100
6, 2880, Note_on_c, 4, 77, 0
6, 2880, Note_on_c, 4, 75, 100
6, 2940, Note_on_c, 4, 75, 0
6, 3000, Note_on_c, 4, 82, 100
6, 3060, Note_on_c, 4, 82, 0
6, 3120, Note_on_c, 4, 79, 100
6, 3180, Note_on_c, 4, 79, 0
6, 3240, Note_on_c, 4, 75, 100
6, 3300, Note_on_c, 4, 75, 0
6, 3360, Note_on_c, 4, 70, 100
6, 3420, Note_on_c, 4, 70, 0
6, 3480, Note_on_c, 4, 67, 100
6, 3540, Note_on_c, 4, 67, 0
6, 3600, Note_on_c, 4, 63, 100
6, 3660, Note_on_c, 4, 63, 0
6, 3720, Note_on_c, 4, 58, 100
6, 3780, Note_on_c, 4, 58, 0
6, 3840, Note_on_c, 4, 56, 100
6, 3960, Note_on_c, 4, 56, 0
6, 3960, Note_on_c, 4, 68, 100
6, 3960, Note_on_c, 4, 80, 100
6, 4200, Note_on_c, 4, 80, 0
6, 4200, Note_on_c, 4, 68, 0
6, 4200, Note_on_c, 4, 68, 100
6, 4200, Note_on_c, 4, 80, 100
6, 4440, Note_on_c, 4, 80, 0
6, 4440, Note_on_c, 4, 68, 0
6, 4440, Note_on_c, 4, 68, 100
6, 4440, Note_on_c, 4, 80, 100
6, 4665, Note_on_c, 4, 82, 100
6, 4680, Note_on_c, 4, 82, 0
6, 4680, Note_on_c, 4, 80, 0
6, 4680, Note_on_c, 4, 68, 0
6, 4680, Note_on_c, 4, 80, 100
6, 4740, Note_on_c, 4, 80, 0
6, 4740, Note_on_c, 4, 79, 100
6, 4770, Note_on_c, 4, 79, 0
6, 4770, Note_on_c, 4, 77, 100
6, 4800, Note_on_c, 4, 77, 0
6, 4800, Note_on_c, 4, 75, 100
6, 4920, Note_on_c, 4, 75, 0
6, 5160, Note_on_c, 4, 75, 100
6, 5250, Note_on_c, 4, 75, 0
6, 5250, Note_on_c, 4, 73, 100
6, 5280, Note_on_c, 4, 73, 0
6, 5280, Note_on_c, 4, 73, 100
6, 5505, Note_on_c, 4, 72, 100
6, 5520, Note_on_c, 4, 72, 0
6, 5520, Note_on_c, 4, 73, 0
6, 5520, Note_on_c, 4, 70, 100
6, 5625, Note_on_c, 4, 68, 100
6, 5640, Note_on_c, 4, 68, 0
6, 5640, Note_on_c, 4, 70, 0
6, 5640, Note_on_c, 4, 67, 100
6, 5760, Note_on_c, 4, 67, 0
6, 5760, Note_on_c, 4, 68, 100
6, 5940, Note_on_c, 4, 68, 0
6, 5940, Note_on_c, 4, 70, 100
6, 6000, Note_on_c, 4, 70, 0
6, 6000, Note_on_c, 4, 72, 100
6, 6120, Note_on_c, 4, 72, 0
6, 7200, Note_on_c, 4, 67, 100
6, 7380, Note_on_c, 4, 67, 0
6, 7380, Note_on_c, 4, 68, 100
6, 7440, Note_on_c, 4, 68, 0
6, 7440, Note_on_c, 4, 70, 100
6, 7560, Note_on_c, 4, 70, 0
6, 7560, Note_on_c, 4, 70, 100
6, 7680, Note_on_c, 4, 70, 0
6, 7680, Note_on_c, 4, 70, 100
6, 7800, Note_on_c, 4, 70, 0
6, 7800, Note_on_c, 4, 68, 100
6, 7860, Note_on_c, 4, 68, 0
6, 7920, Note_on_c, 4, 68, 100
6, 8040, Note_on_c, 4, 68, 0
6, 8040, Note_on_c, 4, 67, 100
6, 8100, Note_on_c, 4, 67, 0
6, 8160, Note_on_c, 4, 67, 100
6, 8220, Note_on_c, 4, 67, 0
6, 8220, Note_on_c, 4, 65, 100
6, 8280, Note_on_c, 4, 65, 0
6, 8280, Note_on_c, 4, 68, 100
6, 8340, Note_on_c, 4, 68, 0
6, 8340, Note_on_c, 4, 72, 100
6, 8400, Note_on_c, 4, 72, 0
6, 8400, Note_on_c, 4, 63, 100
6, 8520, Note_on_c, 4, 63, 0
6, 8520, Note_on_c, 4, 62, 100
6, 8640, Note_on_c, 4, 62, 0
6, 8640, Note_on_c, 4, 63, 100
6, 8760, Note_on_c, 4, 63, 0
6, 8760, Note_on_c, 4, 75, 100
6, 8850, Note_on_c, 4, 75, 0
6, 8850, Note_on_c, 4, 73, 100
6, 8880, Note_on_c, 4, 73, 0
6, 8880, Note_on_c, 4, 73, 100
6, 9225, Note_on_c, 4, 75, 100
6, 9240, Note_on_c, 4, 75, 0
6, 9240, Note_on_c, 4, 73, 0
6, 9240, Note_on_c, 4, 73, 100
6, 9345, Note_on_c, 4, 72, 100
6, 9360, Note_on_c, 4, 72, 0
6, 9360, Note_on_c, 4, 73, 0
6, 9360, Note_on_c, 4, 70, 100
6, 9465, Note_on_c, 4, 68, 100
6, 9480, Note_on_c, 4, 68, 0
6, 9480, Note_on_c, 4, 70, 0
6, 9480, Note_on_c, 4, 67, 100
6, 9600, Note_on_c, 4, 67, 0
6, 9600, Note_on_c, 4, 68, 100
6, 9780, Note_on_c, 4, 68, 0
6, 9780, Note_on_c, 4, 70, 100
6, 9840, Note_on_c, 4, 70, 0
6, 9840, Note_on_c, 4, 72, 100
6, 9960, Note_on_c, 4, 72, 0
6, 11040, Note_on_c, 4, 67, 100
6, 11220, Note_on_c, 4, 67, 0
6, 11220, Note_on_c, 4, 68, 100
6, 11280, Note_on_c, 4, 68, 0
6, 11280, Note_on_c, 4, 70, 100
6, 11340, Note_on_c, 4, 70, 0
6, 11340, Note_on_c, 4, 70, 100
6, 11400, Note_on_c, 4, 70, 0
6, 11400, Note_on_c, 4, 70, 100
6, 11460, Note_on_c, 4, 70, 0
6, 11460, Note_on_c, 4, 70, 100
6, 11520, Note_on_c, 4, 70, 0
6, 11520, Note_on_c, 4, 70, 100
6, 11640, Note_on_c, 4, 70, 0
6, 11640, Note_on_c, 4, 68, 100
6, 11700, Note_on_c, 4, 68, 0
6, 11760, Note_on_c, 4, 68, 100
6, 11880, Note_on_c, 4, 68, 0
6, 11880, Note_on_c, 4, 67, 100
6, 11940, Note_on_c, 4, 67, 0
6, 12000, Note_on_c, 4, 67, 100
6, 12060, Note_on_c, 4, 67, 0
6, 12060, Note_on_c, 4, 65, 100
6, 12120, Note_on_c, 4, 65, 0
6, 12120, Note_on_c, 4, 68, 100
6, 12180, Note_on_c, 4, 68, 0
6, 12180, Note_on_c, 4, 72, 100
6, 12240, Note_on_c, 4, 72, 0
6, 12240, Note_on_c, 4, 63, 100
6, 12360, Note_on_c, 4, 63, 0
6, 12360, Note_on_c, 4, 62, 100
6, 12480, Note_on_c, 4, 62, 0
6, 12480, Note_on_c, 4, 55, 100
6, 12480, Note_on_c, 4, 63, 100
6, 12600, Note_on_c, 4, 63, 0
6, 12600, Note_on_c, 4, 55, 0
6, 12660, Note_on_c, 4, 63, 100
6, 12690, Note_on_c, 4, 63, 0
6, 12690, Note_on_c, 4, 65, 100
6, 12705, Note_on_c, 4, 68, 100
6, 12720, Note_on_c, 4, 68, 0
6, 12720, Note_on_c, 4, 65, 0
6, 12720, Note_on_c, 4, 67, 100
6, 12780, Note_on_c, 4, 67, 0
6, 12780, Note_on_c, 4, 65, 100
6, 12810, Note_on_c, 4, 65, 0
6, 12810, Note_on_c, 4, 63, 100
6, 12825, Note_on_c, 4, 68, 100
6, 12840, Note_on_c, 4, 68, 0
6, 12840, Note_on_c, 4, 63, 0
6, 12840, Note_on_c, 4, 67, 100
6, 12900, Note_on_c, 4, 67, 0
6, 12900, Note_on_c, 4, 65, 100
6, 12930, Note_on_c, 4, 65, 0
6, 12930, Note_on_c, 4, 63, 100
6, 12960, Note_on_c, 4, 63, 0
6, 12960, Note_on_c, 4, 70, 100
6, 13080, Note_on_c, 4, 70, 0
6, 13140, Note_on_c, 4, 70, 100
6, 13170, Note_on_c, 4, 70, 0
6, 13170, Note_on_c, 4, 72, 100
6, 13185, Note_on_c, 4, 75, 100
6, 13200, Note_on_c, 4, 75, 0
6, 13200, Note_on_c, 4, 72, 0
6, 13200, Note_on_c, 4, 74, 100
6, 13260, Note_on_c, 4, 74, 0
6, 13260, Note_on_c, 4, 72, 100
6, 13290, Note_on_c, 4, 72, 0
6, 13290, Note_on_c, 4, 70, 100
6, 13305, Note_on_c, 4, 75, 100
6, 13320, Note_on_c, 4, 75, 0
6, 13320, Note_on_c, 4, 70, 0
6, 13320, Note_on_c, 4, 74, 100
6, 13380, Note_on_c, 4, 74, 0
6, 13380, Note_on_c, 4, 72, 100
6, 13410, Note_on_c, 4, 72, 0
6, 13410, Note_on_c, 4, 70, 100
6, 13440, Note_on_c, 4, 70, 0
6, 13440, Note_on_c, 4, 75, 100
6, 13560, Note_on_c, 4, 75, 0
6, 13620, Note_on_c, 4, 75, 100
6, 13650, Note_on_c, 4, 75, 0
6, 13650, Note_on_c, 4, 77, 100
6, 13665, Note_on_c, 4, 80, 100
6, 13680, Note_on_c, 4, 80, 0
6, 13680, Note_on_c, 4, 77, 0
6, 13680, Note_on_c, 4, 79, 100
6, 13740, Note_on_c, 4, 79, 0
6, 13740, Note_on_c, 4, 77, 100
6, 13770, Note_on_c, 4, 77, 0
6, 13770, Note_on_c, 4, 75, 100
6, 13785, Note_on_c, 4, 80, 100
6, 13800, Note_on_c, 4, 80, 0
6, 13800, Note_on_c, 4, 75, 0
6, 13800, Note_on_c, 4, 79, 100
6, 13860, Note_on_c, 4, 79, 0
6, 13860, Note_on_c, 4, 77, 100
6, 13890, Note_on_c, 4, 77, 0
6, 13890, Note_on_c, 4, 75, 100
6, 13920, Note_on_c, 4, 75, 0
6, 13920, Note_on_c, 4, 82, 100
6, 13920, Note_on_c, 4, 70, 100
6, 13980, Note_on_c, 4, 70, 0
6, 13980, Note_on_c, 4, 82, 0
6, 13980, Note_on_c, 4, 70, 100
6, 13980, Note_on_c, 4, 82, 100
6, 14100, Note_on_c, 4, 82, 0
6, 14100, Note_on_c, 4, 70, 0
6, 14100, Note_on_c, 4, 70, 100
6, 14100, Note_on_c, 4, 82, 100
6, 14220, Note_on_c, 4, 82, 0
6, 14220, Note_on_c, 4, 70, 0
6, 14220, Note_on_c, 4, 82, 100
6, 14220, Note_on_c, 4, 70, 100
6, 14340, Note_on_c, 4, 70, 0
6, 14340, Note_on_c, 4, 82, 0
6, 14340, Note_on_c, 4, 70, 100
6, 14340, Note_on_c, 4, 82, 100
6, 14460, Note_on_c, 4, 82, 0
6, 14460, Note_on_c, 4, 70, 0
6, 14460, Note_on_c, 4, 70, 100
6, 14460, Note_on_c, 4, 82, 100
6, 14580, Note_on_c, 4, 82, 0
6, 14580, Note_on_c, 4, 70, 0
6, 14580, Note_on_c, 4, 70, 100
6, 14580, Note_on_c, 4, 82, 100
6, 14700, Note_on_c, 4, 82, 0
6, 14700, Note_on_c, 4, 70, 0
6, 14700, Note_on_c, 4, 70, 100
6, 14700, Note_on_c, 4, 82, 100
6, 14820, Note_on_c, 4, 82, 0
6, 14820, Note_on_c, 4, 70, 0
6, 14820, Note_on_c, 4, 70, 100
6, 14820, Note_on_c, 4, 82, 100
6, 14880, Note_on_c, 4, 82, 0
6, 14880, Note_on_c, 4, 70, 0
6, 14880, Note_on_c, 4, 70, 100
6, 14880, Note_on_c, 4, 82, 100
6, 14910, Note_on_c, 4, 82, 0
6, 14910, Note_on_c, 4, 70, 0
6, 14910, Note_on_c, 4, 70, 100
6, 14910, Note_on_c, 4, 82, 100
6, 14940, Note_on_c, 4, 82, 0
6, 14940, Note_on_c, 4, 70, 0
6, 14940, Note_on_c, 4, 70, 100
6, 14940, Note_on_c, 4, 82, 100
6, 14970, Note_on_c, 4, 82, 0
6, 14970, Note_on_c, 4, 70, 0
6, 14970, Note_on_c, 4, 70, 100
6, 14970, Note_on_c, 4, 82, 100
6, 15000, Note_on_c, 4, 82, 0
6, 15000, Note_on_c, 4, 70, 0
6, 15000, Note_on_c, 4, 70, 100
6, 15000, Note_on_c, 4, 82, 100
6, 15030, Note_on_c, 4, 82, 0
6, 15030, Note_on_c, 4, 70, 0
6, 15030, Note_on_c, 4, 70, 100
6, 15030, Note_on_c, 4, 82, 100
6, 15060, Note_on_c, 4, 82, 0
6, 15060, Note_on_c, 4, 70, 0
6, 15060, Note_on_c, 4, 70, 100
6, 15060, Note_on_c, 4, 82, 100
6, 15090, Note_on_c, 4, 82, 0
6, 15090, Note_on_c, 4, 70, 0
6, 15090, Note_on_c, 4, 70, 100
6, 15090, Note_on_c, 4, 82, 100
6, 15120, Note_on_c, 4, 82, 0
6, 15120, Note_on_c, 4, 70, 0
6, 15120, Note_on_c, 4, 70, 100
6, 15120, Note_on_c, 4, 82, 100
6, 15150, Note_on_c, 4, 82, 0
6, 15150, Note_on_c, 4, 70, 0
6, 15150, Note_on_c, 4, 70, 100
6, 15150, Note_on_c, 4, 82, 100
6, 15180, Note_on_c, 4, 82, 0
6, 15180, Note_on_c, 4, 70, 0
6, 15180, Note_on_c, 4, 70, 100
6, 15180, Note_on_c, 4, 82, 100
6, 15210, Note_on_c, 4, 82, 0
6, 15210, Note_on_c, 4, 70, 0
6, 15210, Note_on_c, 4, 70, 100
6, 15210, Note_on_c, 4, 82, 100
6, 15240, Note_on_c, 4, 82, 0
6, 15240, Note_on_c, 4, 70, 0
6, 15240, Note_on_c, 4, 70, 100
6, 15240, Note_on_c, 4, 82, 100
6, 15270, Note_on_c, 4, 82, 0
6, 15270, Note_on_c, 4, 70, 0
6, 15270, Note_on_c, 4, 70, 100
6, 15270, Note_on_c, 4, 82, 100
6, 15300, Note_on_c, 4, 82, 0
6, 15300, Note_on_c, 4, 70, 0
6, 15300, Note_on_c, 4, 70, 100
6, 15300, Note_on_c, 4, 82, 100
6, 15330, Note_on_c, 4, 82, 0
6, 15330, Note_on_c, 4, 70, 0
6, 15330, Note_on_c, 4, 82, 100
6, 15330, Note_on_c, 4, 70, 100
6, 15360, Note_on_c, 4, 70, 0
6, 15360, Note_on_c, 4, 82, 0
6, 15360, Note_on_c, 4, 82, 100
6, 15360, Note_on_c, 4, 70, 100
6, 15390, Note_on_c, 4, 70, 0
6, 15390, Note_on_c, 4, 82, 0
6, 15390, Note_on_c, 4, 82, 100
6, 15390, Note_on_c, 4, 70, 100
6, 15420, Note_on_c, 4, 70, 0
6, 15420, Note_on_c, 4, 82, 0
6, 15420, Note_on_c, 4, 82, 100
6, 15420, Note_on_c, 4, 70, 100
6, 15450, Note_on_c, 4, 70, 0
6, 15450, Note_on_c, 4, 82, 0
6, 15450, Note_on_c, 4, 82, 100
6, 15450, Note_on_c, 4, 70, 100
6, 15480, Note_on_c, 4, 70, 0
6, 15480, Note_on_c, 4, 82, 0
6, 15480, Note_on_c, 4, 82, 100
6, 15480, Note_on_c, 4, 70, 100
6, 15510, Note_on_c, 4, 70, 0
6, 15510, Note_on_c, 4, 82, 0
6, 15510, Note_on_c, 4, 82, 100
6, 15510, Note_on_c, 4, 70, 100
6, 15540, Note_on_c, 4, 70, 0
6, 15540, Note_on_c, 4, 82, 0
6, 15540, Note_on_c, 4, 82, 100
6, 15540, Note_on_c, 4, 70, 100
6, 15570, Note_on_c, 4, 70, 0
6, 15570, Note_on_c, 4, 82, 0
6, 15570, Note_on_c, 4, 82, 100
6, 15570, Note_on_c, 4, 70, 100
6, 15600, Note_on_c, 4, 70, 0
6, 15600, Note_on_c, 4, 82, 0
6, 15600, Note_on_c, 4, 82, 100
6, 15600, Note_on_c, 4, 70, 100
6, 15630, Note_on_c, 4, 70, 0
6, 15630, Note_on_c, 4, 82, 0
6, 15630, Note_on_c, 4, 82, 100
6, 15630, Note_on_c, 4, 70, 100
6, 15660, Note_on_c, 4, 70, 0
6, 15660, Note_on_c, 4, 82, 0
6, 15660, Note_on_c, 4, 82, 100
6, 15660, Note_on_c, 4, 70, 100
6, 15690, Note_on_c, 4, 70, 0
6, 15690, Note_on_c, 4, 82, 0
6, 15690, Note_on_c, 4, 82, 100
6, 15690, Note_on_c, 4, 70, 100
6, 15720, Note_on_c, 4, 70, 0
6, 15720, Note_on_c, 4, 82, 0
6, 15720, Note_on_c, 4, 82, 100
6, 15720, Note_on_c, 4, 70, 100
6, 15750, Note_on_c, 4, 70, 0
6, 15750, Note_on_c, 4, 82, 0
6, 15750, Note_on_c, 4, 82, 100
6, 15750, Note_on_c, 4, 70, 100
6, 15780, Note_on_c, 4, 70, 0
6, 15780, Note_on_c, 4, 82, 0
6, 15780, Note_on_c, 4, 82, 100
6, 15780, Note_on_c, 4, 70, 100
6, 15810, Note_on_c, 4, 70, 0
6, 15810, Note_on_c, 4, 82, 0
6, 15810, Note_on_c, 4, 82, 100
6, 15810, Note_on_c, 4, 70, 100
6, 15840, Note_on_c, 4, 70, 0
6, 15840, Note_on_c, 4, 82, 0
6, 15840, Note_on_c, 4, 70, 100
6, 15840, Note_on_c, 4, 82, 100
6, 15870, Note_on_c, 4, 82, 0
6, 15870, Note_on_c, 4, 70, 0
6, 15870, Note_on_c, 4, 70, 100
6, 15870, Note_on_c, 4, 82, 100
6, 15900, Note_on_c, 4, 82, 0
6, 15900, Note_on_c, 4, 70, 0
6, 15900, Note_on_c, 4, 70, 100
6, 15900, Note_on_c, 4, 82, 100
6, 15930, Note_on_c, 4, 82, 0
6, 15930, Note_on_c, 4, 70, 0
6, 15930, Note_on_c, 4, 70, 100
6, 15930, Note_on_c, 4, 82, 100
6, 15960, Note_on_c, 4, 82, 0
6, 15960, Note_on_c, 4, 70, 0
6, 15960, Note_on_c, 4, 82, 100
6, 15960, Note_on_c, 4, 70, 100
6, 15990, Note_on_c, 4, 70, 0
6, 15990, Note_on_c, 4, 82, 0
6, 15990, Note_on_c, 4, 82, 100
6, 15990, Note_on_c, 4, 70, 100
6, 16020, Note_on_c, 4, 70, 0
6, 16020, Note_on_c, 4, 82, 0
6, 16020, Note_on_c, 4, 82, 100
6, 16020, Note_on_c, 4, 70, 100
6, 16050, Note_on_c, 4, 70, 0
6, 16050, Note_on_c, 4, 82, 0
6, 16050, Note_on_c, 4, 82, 100
6, 16050, Note_on_c, 4, 70, 100
6, 16080, Note_on_c, 4, 70, 0
6, 16080, Note_on_c, 4, 82, 0
6, 16080, Note_on_c, 4, 82, 100
6, 16080, Note_on_c, 4, 70, 100
6, 16110, Note_on_c, 4, 70, 0
6, 16110, Note_on_c, 4, 82, 0
6, 16110, Note_on_c, 4, 82, 100
6, 16110, Note_on_c, 4, 70, 100
6, 16140, Note_on_c, 4, 70, 0
6, 16140, Note_on_c, 4, 82, 0
6, 16140, Note_on_c, 4, 82, 100
6, 16140, Note_on_c, 4, 70, 100
6, 16170, Note_on_c, 4, 70, 0
6, 16170, Note_on_c, 4, 82, 0
6, 16170, Note_on_c, 4, 82, 100
6, 16170, Note_on_c, 4, 70, 100
6, 16200, Note_on_c, 4, 70, 0
6, 16200, Note_on_c, 4, 82, 0
6, 16200, Note_on_c, 4, 82, 100
6, 16200, Note_on_c, 4, 70, 100
6, 16230, Note_on_c, 4, 70, 0
6, 16230, Note_on_c, 4, 82, 0
6, 16230, Note_on_c, 4, 82, 100
6, 16230, Note_on_c, 4, 70, 100
6, 16260, Note_on_c, 4, 70, 0
6, 16260, Note_on_c, 4, 82, 0
6, 16260, Note_on_c, 4, 82, 100
6, 16260, Note_on_c, 4, 70, 100
6, 16290, Note_on_c, 4, 70, 0
6, 16290, Note_on_c, 4, 82, 0
6, 16290, Note_on_c, 4, 82, 100
6, 16290, Note_on_c, 4, 70, 100
6, 16320, Note_on_c, 4, 70, 0
6, 16320, Note_on_c, 4, 82, 0
6, 16320, Note_on_c, 4, 70, 100
6, 16320, Note_on_c, 4, 82, 100
6, 16440, Note_on_c, 4, 82, 0
6, 16440, Note_on_c, 4, 70, 0
6, 16530, Note_on_c, 4, 58, 100
6, 16560, Note_on_c, 4, 58, 0
6, 16560, Note_on_c, 4, 58, 100
6, 16680, Note_on_c, 4, 58, 0
6, 16680, Note_on_c, 4, 58, 100
6, 16800, Note_on_c, 4, 58, 0
6, 16800, Note_on_c, 4, 58, 100
6, 16920, Note_on_c, 4, 58, 0
6, 17250, Note_on_c, 4, 77, 100
6, 17265, Note_on_c, 4, 77, 0
6, 17265, Note_on_c, 4, 79, 100
6, 17280, Note_on_c, 4, 79, 0
6, 17280, Note_on_c, 4, 80, 100
6, 17340, Note_on_c, 4, 80, 0
6, 17340, Note_on_c, 4, 79, 100
6, 17400, Note_on_c, 4, 79, 0
6, 17400, Note_on_c, 4, 77, 100
6, 17460, Note_on_c, 4, 77, 0
6, 17460, Note_on_c, 4, 75, 100
6, 17520, Note_on_c, 4, 75, 0
6, 17520, Note_on_c, 4, 74, 100
6, 17580, Note_on_c, 4, 74, 0
6, 17580, Note_on_c, 4, 72, 100
6, 17640, Note_on_c, 4, 72, 0
6, 17640, Note_on_c, 4, 70, 100
6, 17700, Note_on_c, 4, 70, 0
6, 17700, Note_on_c, 4, 68, 100
6, 17760, Note_on_c, 4, 68, 0
6, 17760, Note_on_c, 4, 67, 100
6, 17880, Note_on_c, 4, 67, 0
6, 17880, Program_c, 4, 45
6, 18000, Note_on_c, 4, 82, 100
6, 18060, Note_on_c, 4, 82, 0
6, 18120, Note_on_c, 4, 79, 100
6, 18180, Note_on_c, 4, 79, 0
6, 18240, Note_on_c, 4, 75, 100
6, 18300, Note_on_c, 4, 75, 0
6, 18360, Note_on_c, 4, 70, 100
6, 18420, Note_on_c, 4, 70, 0
6, 18480, Note_on_c, 4, 67, 100
6, 18540, Note_on_c, 4, 67, 0
6, 18600, Note_on_c, 4, 63, 100
6, 18660, Note_on_c, 4, 63, 0
6, 18840, Note_on_c, 4, 82, 100
6, 18960, Note_on_c, 4, 82, 0
6, 19080, Note_on_c, 4, 82, 100
6, 19200, Note_on_c, 4, 82, 0
6, 19320, Note_on_c, 4, 82, 100
6, 19440, Note_on_c, 4, 82, 0
6, 19560, Note_on_c, 4, 82, 100
6, 19680, Note_on_c, 4, 82, 0
6, 19680, Note_on_c, 4, 58, 100
6, 19680, Note_on_c, 4, 67, 100
6, 19800, Note_on_c, 4, 67, 0
6, 19800, Note_on_c, 4, 58, 0
6, 19920, Note_on_c, 4, 82, 100
6, 19980, Note_on_c, 4, 82, 0
6, 20040, Note_on_c, 4, 79, 100
6, 20100, Note_on_c, 4, 79, 0
6, 20160, Note_on_c, 4, 75, 100
6, 20220, Note_on_c, 4, 75, 0
6, 20280, Note_on_c, 4, 70, 100
6, 20340, Note_on_c, 4, 70, 0
6, 20400, Note_on_c, 4, 67, 100
6, 20460, Note_on_c, 4, 67, 0
6, 20520, Note_on_c, 4, 63, 100
6, 20580, Note_on_c, 4, 63, 0
6, 20760, Note_on_c, 4, 82, 100
6, 20880, Note_on_c, 4, 82, 0
6, 21000, Note_on_c, 4, 82, 100
6, 21120, Note_on_c, 4, 82, 0
6, 21240, Note_on_c, 4, 82, 100
6, 21360, Note_on_c, 4, 82, 0
6, 21480, Note_on_c, 4, 82, 100
6, 21600, Note_on_c, 4, 82, 0
6, 21600, Program_c, 4, 40
6, 21840, Note_on_c, 4, 63, 100
6, 22020, Note_on_c, 4, 63, 0
6, 22020, Note_on_c, 4, 62, 100
6, 22050, Note_on_c, 4, 62, 0
6, 22050, Note_on_c, 4, 63, 100
6, 22080, Note_on_c, 4, 63, 0
6, 22080, Note_on_c, 4, 65, 100
6, 22200, Note_on_c, 4, 65, 0
6, 22320, Note_on_c, 4, 66, 100
6, 22500, Note_on_c, 4, 66, 0
6, 22500, Note_on_c, 4, 64, 100
6, 22530, Note_on_c, 4, 64, 0
6, 22530, Note_on_c, 4, 66, 100
6, 22560, Note_on_c, 4, 66, 0
6, 22560, Note_on_c, 4, 67, 100
6, 22680, Note_on_c, 4, 67, 0
6, 22800, Note_on_c, 4, 67, 100
6, 22980, Note_on_c, 4, 67, 0
6, 22980, Note_on_c, 4, 65, 100
6, 23010, Note_on_c, 4, 65, 0
6, 23010, Note_on_c, 4, 67, 100
6, 23040, Note_on_c, 4, 67, 0
6, 23040, Note_on_c, 4, 68, 100
6, 23220, Note_on_c, 4, 68, 0
6, 23220, Note_on_c, 4, 67, 100
6, 23250, Note_on_c, 4, 67, 0
6, 23250, Note_on_c, 4, 68, 100
6, 23280, Note_on_c, 4, 68, 0
6, 23280, Note_on_c, 4, 69, 100
6, 23460, Note_on_c, 4, 69, 0
6, 23460, Note_on_c, 4, 67, 100
6, 23490, Note_on_c, 4, 67, 0
6, 23490, Note_on_c, 4, 69, 100
6, 23520, Note_on_c, 4, 69, 0
6, 23520, Note_on_c, 4, 70, 100
6, 23640, Note_on_c, 4, 70, 0
6, 23760, Note_on_c, 4, 71, 100
6, 23940, Note_on_c, 4, 71, 0
6, 23940, Note_on_c, 4, 69, 100
6, 23970, Note_on_c, 4, 69, 0
6, 23970, Note_on_c, 4, 71, 100
6, 24000, Note_on_c, 4, 71, 0
6, 24000, Note_on_c, 4, 72, 100
6, 24180, Note_on_c, 4, 72, 0
6, 24180, Note_on_c, 4, 71, 100
6, 24210, Note_on_c, 4, 71, 0
6, 24210, Note_on_c, 4, 72, 100
6, 24240, Note_on_c, 4, 72, 0
6, 24240, Note_on_c, 4, 74, 100
6, 24420, Note_on_c, 4, 74, 0
6, 24420, Note_on_c, 4, 72, 100
6, 24450, Note_on_c, 4, 72, 0
6, 24450, Note_on_c, 4, 74, 100
6, 24480, Note_on_c, 4, 74, 0
6, 24480, Note_on_c, 4, 75, 100
6, 24600, Note_on_c, 4, 75, 0
6, 24720, Note_on_c, 4, 76, 100
6, 24900, Note_on_c, 4, 76, 0
6, 24900, Note_on_c, 4, 74, 100
6, 24930, Note_on_c, 4, 74, 0
6, 24930, Note_on_c, 4, 76, 100
6, 24960, Note_on_c, 4, 76, 0
6, 24960, Note_on_c, 4, 77, 100
6, 25080, Note_on_c, 4, 77, 0
6, 25200, Note_on_c, 4, 78, 100
6, 25380, Note_on_c, 4, 78, 0
6, 25380, Note_on_c, 4, 76, 100
6, 25410, Note_on_c, 4, 76, 0
6, 25410, Note_on_c, 4, 78, 100
6, 25440, Note_on_c, 4, 78, 0
6, 25440, Note_on_c, 4, 79, 100
6, 25560, Note_on_c, 4, 79, 0
6, 25680, Note_on_c, 4, 79, 100
6, 25860, Note_on_c, 4, 79, 0
6, 25860, Note_on_c, 4, 77, 100
6, 25890, Note_on_c, 4, 77, 0
6, 25890, Note_on_c, 4, 79, 100
6, 25920, Note_on_c, 4, 79, 0
6, 25920, Note_on_c, 4, 80, 100
6, 26100, Note_on_c, 4, 80, 0
6, 26100, Note_on_c, 4, 79, 100
6, 26130, Note_on_c, 4, 79, 0
6, 26130, Note_on_c, 4, 80, 100
6, 26160, Note_on_c, 4, 80, 0
6, 26160, Note_on_c, 4, 81, 100
6, 26340, Note_on_c, 4, 81, 0
6, 26340, Note_on_c, 4, 79, 100
6, 26370, Note_on_c, 4, 79, 0
6, 26370, Note_on_c, 4, 81, 100
6, 26400, Note_on_c, 4, 81, 0
6, 26400, Note_on_c, 4, 82, 100
6, 26580, Note_on_c, 4, 82, 0
6, 26580, Note_on_c, 4, 81, 100
6, 26610, Note_on_c, 4, 81, 0
6, 26610, Note_on_c, 4, 82, 100
6, 26640, Note_on_c, 4, 82, 0
6, 26640, Note_on_c, 4, 83, 100
6, 26820, Note_on_c, 4, 83, 0
6, 26820, Note_on_c, 4, 81, 100
6, 26850, Note_on_c, 4, 81, 0
6, 26850, Note_on_c, 4, 83, 100
6, 26880, Note_on_c, 4, 83, 0
6, 26880, Note_on_c, 4, 84, 100
6, 26910, Note_on_c, 4, 84, 0
6, 26910, Note_on_c, 4, 84, 100
6, 26940, Note_on_c, 4, 84, 0
6, 26940, Note_on_c, 4, 84, 100
6, 26970, Note_on_c, 4, 84, 0
6, 26970, Note_on_c, 4, 84, 100
6, 27000, Note_on_c, 4, 84, 0
6, 27000, Note_on_c, 4, 84, 100
6, 27030, Note_on_c, 4, 84, 0
6, 27030, Note_on_c, 4, 84, 100
6, 27060, Note_on_c, 4, 84, 0
6, 27060, Note_on_c, 4, 84, 100
6, 27090, Note_on_c, 4, 84, 0
6, 27090, Note_on_c, 4, 84, 100
6, 27120, Note_on_c, 4, 84, 0
6, 27120, Note_on_c, 4, 86, 100
6, 27150, Note_on_c, 4, 86, 0
6, 27150, Note_on_c, 4, 86, 100
6, 27180, Note_on_c, 4, 86, 0
6, 27180, Note_on_c, 4, 86, 100
6, 27210, Note_on_c, 4, 86, 0
6, 27210, Note_on_c, 4, 86, 100
6, 27240, Note_on_c, 4, 86, 0
6, 27240, Note_on_c, 4, 86, 100
6, 27270, Note_on_c, 4, 86, 0
6, 27270, Note_on_c, 4, 86, 100
6, 27300, Note_on_c, 4, 86, 0
6, 27300, Note_on_c, 4, 86, 100
6, 27330, Note_on_c, 4, 86, 0
6, 27330, Note_on_c, 4, 86, 100
6, 27360, Note_on_c, 4, 86, 0
6, 27360, Note_on_c, 4, 87, 100
6, 27420, Note_on_c, 4, 87, 0
6, 27420, Note_on_c, 4, 79, 100
6, 27420, Note_on_c, 4, 87, 100
6, 27540, Note_on_c, 4, 87, 0
6, 27540, Note_on_c, 4, 79, 0
6, 27540, Note_on_c, 4, 79, 100
6, 27540, Note_on_c, 4, 87, 100
6, 27660, Note_on_c, 4, 87, 0
6, 27660, Note_on_c, 4, 79, 0
6, 27660, Note_on_c, 4, 79, 100
6, 27660, Note_on_c, 4, 87, 100
6, 27780, Note_on_c, 4, 87, 0
6, 27780, Note_on_c, 4, 79, 0
6, 27780, Note_on_c, 4, 79, 100
6, 27780, Note_on_c, 4, 87, 100
6, 27900, Note_on_c, 4, 87, 0
6, 27900, Note_on_c, 4, 79, 0
6, 27900, Note_on_c, 4, 79, 100
6, 27900, Note_on_c, 4, 87, 100
6, 28020, Note_on_c, 4, 87, 0
6, 28020, Note_on_c, 4, 79, 0
6, 28020, Note_on_c, 4, 79, 100
6, 28020, Note_on_c, 4, 87, 100
6, 28140, Note_on_c, 4, 87, 0
6, 28140, Note_on_c, 4, 79, 0
6, 28140, Note_on_c, 4, 79, 100
6, 28140, Note_on_c, 4, 87, 100
6, 28260, Note_on_c, 4, 87, 0
6, 28260, Note_on_c, 4, 79, 0
6, 28260, Note_on_c, 4, 79, 100
6, 28260, Note_on_c, 4, 87, 100
6, 28380, Note_on_c, 4, 87, 0
6, 28380, Note_on_c, 4, 79, 0
6, 28380, Note_on_c, 4, 79, 100
6, 28380, Note_on_c, 4, 87, 100
6, 28500, Note_on_c, 4, 87, 0
6, 28500, Note_on_c, 4, 79, 0
6, 28500, Note_on_c, 4, 79, 100
6, 28500, Note_on_c, 4, 87, 100
6, 28620, Note_on_c, 4, 87, 0
6, 28620, Note_on_c, 4, 79, 0
6, 28620, Note_on_c, 4, 79, 100
6, 28620, Note_on_c, 4, 87, 100
6, 28740, Note_on_c, 4, 87, 0
6, 28740, Note_on_c, 4, 79, 0
6, 28740, Note_on_c, 4, 79, 100
6, 28740, Note_on_c, 4, 87, 100
6, 28860, Note_on_c, 4, 87, 0
6, 28860, Note_on_c, 4, 79, 0
6, 28860, Note_on_c, 4, 79, 100
6, 28860, Note_on_c, 4, 87, 100
6, 28980, Note_on_c, 4, 87, 0
6, 28980, Note_on_c, 4, 79, 0
6, 28980, Note_on_c, 4, 79, 100
6, 28980, Note_on_c, 4, 87, 100
6, 29100, Note_on_c, 4, 87, 0
6, 29100, Note_on_c, 4, 79, 0
6, 29100, Note_on_c, 4, 79, 100
6, 29100, Note_on_c, 4, 87, 100
6, 29220, Note_on_c, 4, 87, 0
6, 29220, Note_on_c, 4, 79, 0
6, 29220, Note_on_c, 4, 79, 100
6, 29220, Note_on_c, 4, 87, 100
6, 29340, Note_on_c, 4, 87, 0
6, 29340, Note_on_c, 4, 79, 0
6, 29340, Note_on_c, 4, 87, 100
6, 29460, Note_on_c, 4, 87, 0
6, 29460, Note_on_c, 4, 86, 100
6, 29580, Note_on_c, 4, 86, 0
6, 29580, Note_on_c, 4, 84, 100
6, 29700, Note_on_c, 4, 84, 0
6, 29700, Note_on_c, 4, 82, 100
6, 29820, Note_on_c, 4, 82, 0
6, 29820, Note_on_c, 4, 80, 100
6, 29940, Note_on_c, 4, 80, 0
6, 29940, Note_on_c, 4, 79, 100
6, 30060, Note_on_c, 4, 79, 0
6, 30060, Note_on_c, 4, 77, 100
6, 30180, Note_on_c, 4, 77, 0
6, 30180, Note_on_c, 4, 84, 100
6, 30300, Note_on_c, 4, 84, 0
6, 30300, Note_on_c, 4, 82, 100
6, 30420, Note_on_c, 4, 82, 0
6, 30420, Note_on_c, 4, 81, 100
6, 30540, Note_on_c, 4, 81, 0
6, 30540, Note_on_c, 4, 80, 100
6, 30660, Note_on_c, 4, 80, 0
6, 30660, Note_on_c, 4, 79, 100
6, 30780, Note_on_c, 4, 79, 0
6, 30780, Note_on_c, 4, 77, 100
6, 30840, Note_on_c, 4, 77, 0
6, 30840, Note_on_c, 4, 80, 100
6, 30900, Note_on_c, 4, 80, 0
6, 30900, Note_on_c, 4, 77, 100
6, 31020, Note_on_c, 4, 77, 0
6, 31020, Note_on_c, 4, 75, 100
6, 31140, Note_on_c, 4, 75, 0
6, 31140, Note_on_c, 4, 74, 100
6, 31200, Note_on_c, 4, 74, 0
6, 31200, Note_on_c, 4, 75, 100
6, 31320, Note_on_c, 4, 75, 0
6, 31680, Note_on_c, 4, 82, 100
6, 31800, Note_on_c, 4, 82, 0
6, 31800, Note_on_c, 4, 80, 100
6, 31920, Note_on_c, 4, 80, 0
6, 31920, Note_on_c, 4, 79, 100
6, 32040, Note_on_c, 4, 79, 0
6, 32040, Note_on_c, 4, 77, 100
6, 32160, Note_on_c, 4, 77, 0
6, 32160, Note_on_c, 4, 75, 100
6, 32280, Note_on_c, 4, 75, 0
6, 32610, Note_on_c, 4, 70, 100
6, 32640, Note_on_c, 4, 70, 0
6, 32640, Note_on_c, 4, 82, 100
6, 32760, Note_on_c, 4, 82, 0
6, 32760, Note_on_c, 4, 80, 100
6, 32880, Note_on_c, 4, 80, 0
6, 32880, Note_on_c, 4, 79, 100
6, 33000, Note_on_c, 4, 79, 0
6, 33000, Note_on_c, 4, 77, 100
6, 33120, Note_on_c, 4, 77, 0
6, 33120, Note_on_c, 4, 75, 100
6, 33240, Note_on_c, 4, 75, 0
6, 33480, Note_on_c, 4, 72, 100
6, 33720, Note_on_c, 4, 72, 0
6, 33720, Note_on_c, 4, 74, 100
6, 33840, Note_on_c, 4, 74, 0
6, 33960, Note_on_c, 4, 79, 100
6, 34200, Note_on_c, 4, 79, 0
6, 34200, Note_on_c, 4, 80, 100
6, 34320, Note_on_c, 4, 80, 0
6, 34440, Note_on_c, 4, 84, 100
6, 34500, Note_on_c, 4, 84, 0
6, 34560, Note_on_c, 4, 80, 100
6, 34620, Note_on_c, 4, 80, 0
6, 34680, Note_on_c, 4, 72, 100
6, 34740, Note_on_c, 4, 72, 0
6, 34800, Note_on_c, 4, 68, 100
6, 34860, Note_on_c, 4, 68, 0
6, 34920, Note_on_c, 4, 65, 100
6, 34980, Note_on_c, 4, 65, 0
6, 35040, Note_on_c, 4, 63, 100
6, 35100, Note_on_c, 4, 63, 0
6, 35100, Note_on_c, 4, 67, 100
6, 35160, Note_on_c, 4, 67, 0
6, 35160, Note_on_c, 4, 63, 100
6, 35220, Note_on_c, 4, 63, 0
6, 35220, Note_on_c, 4, 67, 100
6, 35280, Note_on_c, 4, 67, 0
6, 35280, Note_on_c, 4, 63, 100
6, 35340, Note_on_c, 4, 63, 0
6, 35340, Note_on_c, 4, 67, 100
6, 35400, Note_on_c, 4, 67, 0
6, 35400, Note_on_c, 4, 63, 100
6, 35460, Note_on_c, 4, 63, 0
6, 35460, Note_on_c, 4, 67, 100
6, 35520, Note_on_c, 4, 67, 0
6, 35520, Note_on_c, 4, 62, 100
6, 35580, Note_on_c, 4, 62, 0
6, 35580, Note_on_c, 4, 65, 100
6, 35640, Note_on_c, 4, 65, 0
6, 35640, Note_on_c, 4, 62, 100
6, 35700, Note_on_c, 4, 62, 0
6, 35700, Note_on_c, 4, 65, 100
6, 35760, Note_on_c, 4, 65, 0
6, 35760, Note_on_c, 4, 62, 100
6, 35820, Note_on_c, 4, 62, 0
6, 35820, Note_on_c, 4, 65, 100
6, 35880, Note_on_c, 4, 65, 0
6, 35880, Note_on_c, 4, 62, 100
6, 35940, Note_on_c, 4, 62, 0
6, 35940, Note_on_c, 4, 65, 100
6, 36000, Note_on_c, 4, 65, 0
6, 36000, Note_on_c, 4, 60, 100
6, 36060, Note_on_c, 4, 60, 0
6, 36060, Note_on_c, 4, 63, 100
6, 36120, Note_on_c, 4, 63, 0
6, 36120, Note_on_c, 4, 60, 100
6, 36180, Note_on_c, 4, 60, 0
6, 36180, Note_on_c, 4, 63, 100
6, 36240, Note_on_c, 4, 63, 0
6, 36240, Note_on_c, 4, 58, 100
6, 36300, Note_on_c, 4, 58, 0
6, 36300, Note_on_c, 4, 62, 100
6, 36360, Note_on_c, 4, 62, 0
6, 36360, Note_on_c, 4, 58, 100
6, 36420, Note_on_c, 4, 58, 0
6, 36420, Note_on_c, 4, 62, 100
6, 36480, Note_on_c, 4, 62, 0
6, 36480, Note_on_c, 4, 56, 100
6, 36540, Note_on_c, 4, 56, 0
6, 36540, Note_on_c, 4, 60, 100
6, 36600, Note_on_c, 4, 60, 0
6, 36600, Note_on_c, 4, 56, 100
6, 36660, Note_on_c, 4, 56, 0
6, 36660, Note_on_c, 4, 60, 100
6, 36720, Note_on_c, 4, 60, 0
6, 36720, Note_on_c, 4, 58, 100
6, 36780, Note_on_c, 4, 58, 0
6, 36960, Note_on_c, 4, 55, 100
6, 36960, Note_on_c, 4, 63, 100
6, 37200, Note_on_c, 4, 63, 0
6, 37200, Note_on_c, 4, 55, 0
6, 37200, Note_on_c, 4, 55, 100
6, 37200, Note_on_c, 4, 63, 100
6, 37380, Note_on_c, 4, 63, 0
6, 37380, Note_on_c, 4, 55, 0
6, 37380, Note_on_c, 4, 63, 100
6, 37440, Note_on_c, 4, 63, 0
6, 37440, Note_on_c, 4, 58, 100
6, 37920, Note_on_c, 4, 58, 0
6, 38040, Note_on_c, 4, 75, 100
6, 38280, Note_on_c, 4, 75, 0
6, 38280, Note_on_c, 4, 74, 100
6, 38400, Note_on_c, 4, 74, 0
6, 38400, Note_on_c, 4, 70, 100
6, 38520, Note_on_c, 4, 70, 0
6, 38520, Note_on_c, 4, 75, 100
6, 38640, Note_on_c, 4, 75, 0
6, 38640, Note_on_c, 4, 74, 100
6, 38760, Note_on_c, 4, 74, 0
6, 38880, Note_on_c, 4, 55, 100
6, 38880, Note_on_c, 4, 63, 100
6, 39120, Note_on_c, 4, 63, 0
6, 39120, Note_on_c, 4, 55, 0
6, 39120, Note_on_c, 4, 55, 100
6, 39120, Note_on_c, 4, 63, 100
6, 39300, Note_on_c, 4, 63, 0
6, 39300, Note_on_c, 4, 55, 0
6, 39300, Note_on_c, 4, 63, 100
6, 39360, Note_on_c, 4, 63, 0
6, 39360, Note_on_c, 4, 58, 100
6, 39840, Note_on_c, 4, 58, 0
6, 40800, Note_on_c, 4, 82, 100
6, 40860, Note_on_c, 4, 82, 0
6, 40920, Note_on_c, 4, 79, 100
6, 40980, Note_on_c, 4, 79, 0
6, 41040, Note_on_c, 4, 80, 100
6, 41100, Note_on_c, 4, 80, 0
6, 41160, Note_on_c, 4, 77, 100
6, 41220, Note_on_c, 4, 77, 0
6, 41280, Note_on_c, 4, 79, 100
6, 41340, Note_on_c, 4, 79, 0
6, 41400, Note_on_c, 4, 75, 100
6, 41460, Note_on_c, 4, 75, 0
6, 41520, Note_on_c, 4, 77, 100
6, 41580, Note_on_c, 4, 77, 0
6, 41640, Note_on_c, 4, 74, 100
6, 41700, Note_on_c, 4, 74, 0
6, 41760, Note_on_c, 4, 75, 100
6, 41880, Note_on_c, 4, 75, 0
6, 42840, Note_on_c, 4, 70, 100
6, 42840, Note_on_c, 4, 79, 100
6, 42870, Note_on_c, 4, 79, 0
6, 42870, Note_on_c, 4, 70, 0
6, 42870, Note_on_c, 4, 70, 100
6, 42870, Note_on_c, 4, 79, 100
6, 42900, Note_on_c, 4, 79, 0
6, 42900, Note_on_c, 4, 70, 0
6, 42900, Note_on_c, 4, 70, 100
6, 42900, Note_on_c, 4, 82, 100
6, 42930, Note_on_c, 4, 82, 0
6, 42930, Note_on_c, 4, 70, 0
6, 42930, Note_on_c, 4, 70, 100
6, 42930, Note_on_c, 4, 82, 100
6, 42960, Note_on_c, 4, 82, 0
6, 42960, Note_on_c, 4, 70, 0
6, 42960, Note_on_c, 4, 70, 100
6, 42960, Note_on_c, 4, 79, 100
6, 42990, Note_on_c, 4, 79, 0
6, 42990, Note_on_c, 4, 70, 0
6, 42990, Note_on_c, 4, 70, 100
6, 42990, Note_on_c, 4, 79, 100
6, 43020, Note_on_c, 4, 79, 0
6, 43020, Note_on_c, 4, 70, 0
6, 43020, Note_on_c, 4, 70, 100
6, 43020, Note_on_c, 4, 82, 100
6, 43050, Note_on_c, 4, 82, 0
6, 43050, Note_on_c, 4, 70, 0
6, 43050, Note_on_c, 4, 70, 100
6, 43050, Note_on_c, 4, 82, 100
6, 43080, Note_on_c, 4, 82, 0
6, 43080, Note_on_c, 4, 70, 0
6, 43080, Note_on_c, 4, 70, 100
6, 43080, Note_on_c, 4, 79, 100
6, 43110, Note_on_c, 4, 79, 0
6, 43110, Note_on_c, 4, 70, 0
6, 43110, Note_on_c, 4, 70, 100
6, 43110, Note_on_c, 4, 79, 100
6, 43140, Note_on_c, 4, 79, 0
6, 43140, Note_on_c, 4, 70, 0
6, 43140, Note_on_c, 4, 70, 100
6, 43140, Note_on_c, 4, 82, 100
6, 43170, Note_on_c, 4, 82, 0
6, 43170, Note_on_c, 4, 70, 0
6, 43170, Note_on_c, 4, 70, 100
6, 43170, Note_on_c, 4, 82, 100
6, 43200, Note_on_c, 4, 82, 0
6, 43200, Note_on_c, 4, 70, 0
6, 43200, Note_on_c, 4, 70, 100
6, 43200, Note_on_c, 4, 79, 100
6, 43320, Note_on_c, 4, 79, 0
6, 43320, Note_on_c, 4, 70, 0
6, 43320, Note_on_c, 4, 55, 100
6, 43320, Note_on_c, 4, 63, 100
6, 43350, Note_on_c, 4, 63, 0
6, 43350, Note_on_c, 4, 55, 0
6, 43350, Note_on_c, 4, 55, 100
6, 43350, Note_on_c, 4, 63, 100
6, 43380, Note_on_c, 4, 63, 0
6, 43380, Note_on_c, 4, 55, 0
6, 43380, Note_on_c, 4, 58, 100
6, 43380, Note_on_c, 4, 67, 100
6, 43410, Note_on_c, 4, 67, 0
6, 43410, Note_on_c, 4, 58, 0
6, 43410, Note_on_c, 4, 58, 100
6, 43410, Note_on_c, 4, 67, 100
6, 43440, Note_on_c, 4, 67, 0
6, 43440, Note_on_c, 4, 58, 0
6, 43440, Note_on_c, 4, 55, 100
6, 43440, Note_on_c, 4, 63, 100
6, 43470, Note_on_c, 4, 63, 0
6, 43470, Note_on_c, 4, 55, 0
6, 43470, Note_on_c, 4, 55, 100
6, 43470, Note_on_c, 4, 63, 100
6, 43500, Note_on_c, 4, 63, 0
6, 43500, Note_on_c, 4, 55, 0
6, 43500, Note_on_c, 4, 58, 100
6, 43500, Note_on_c, 4, 67, 100
6, 43530, Note_on_c, 4, 67, 0
6, 43530, Note_on_c, 4, 58, 0
6, 43530, Note_on_c, 4, 58, 100
6, 43530, Note_on_c, 4, 67, 100
6, 43560, Note_on_c, 4, 67, 0
6, 43560, Note_on_c, 4, 58, 0
6, 43560, Note_on_c, 4, 55, 100
6, 43560, Note_on_c, 4, 63, 100
6, 43590, Note_on_c, 4, 63, 0
6, 43590, Note_on_c, 4, 55, 0
6, 43590, Note_on_c, 4, 55, 100
6, 43590, Note_on_c, 4, 63, 100
6, 43620, Note_on_c, 4, 63, 0
6, 43620, Note_on_c, 4, 55, 0
6, 43620, Note_on_c, 4, 58, 100
6, 43620, Note_on_c, 4, 67, 100
6, 43650, Note_on_c, 4, 67, 0
6, 43650, Note_on_c, 4, 58, 0
6, 43650, Note_on_c, 4, 58, 100
6, 43650, Note_on_c, 4, 67, 100
6, 43680, Note_on_c, 4, 67, 0
6, 43680, Note_on_c, 4, 58, 0
6, 43680, Note_on_c, 4, 55, 100
6, 43680, Note_on_c, 4, 63, 100
6, 43800, Note_on_c, 4, 63, 0
6, 43800, Note_on_c, 4, 55, 0
6, 43920, Note_on_c, 4, 63, 100
6, 44160, Note_on_c, 4, 63, 0
6, 44160, Note_on_c, 4, 59, 100
6, 44400, Note_on_c, 4, 59, 0
6, 44400, Note_on_c, 4, 60, 100
6, 44640, Note_on_c, 4, 60, 0
6, 44640, Note_on_c, 4, 55, 100
6, 44760, Note_on_c, 4, 55, 0
6, 44760, Note_on_c, 4, 62, 100
6, 44880, Note_on_c, 4, 62, 0
6, 44880, Note_on_c, 4, 63, 100
6, 45000, Note_on_c, 4, 63, 0
6, 45000, Note_on_c, 4, 65, 100
6, 45120, Note_on_c, 4, 65, 0
6, 45240, Note_on_c, 4, 63, 100
6, 45360, Note_on_c, 4, 63, 0
6, 45360, Note_on_c, 4, 65, 100
6, 45480, Note_on_c, 4, 65, 0
6, 45480, Note_on_c, 4, 67, 100
6, 45600, Note_on_c, 4, 67, 0
6, 45600, Note_on_c, 4, 68, 100
6, 45660, Note_on_c, 4, 68, 0
6, 45660, Note_on_c, 4, 67, 100
6, 45720, Note_on_c, 4, 67, 0
6, 45720, Note_on_c, 4, 65, 100
6, 45780, Note_on_c, 4, 65, 0
6, 45780, Note_on_c, 4, 63, 100
6, 45840, Note_on_c, 4, 63, 0
6, 45840, Note_on_c, 4, 62, 100
6, 46080, Note_on_c, 4, 62, 0
6, 46080, Note_on_c, 4, 55, 100
6, 46200, Note_on_c, 4, 55, 0
6, 46680, Note_on_c, 4, 72, 100
6, 46800, Note_on_c, 4, 72, 0
6, 46800, Note_on_c, 4, 74, 100
6, 46920, Note_on_c, 4, 74, 0
6, 46920, Note_on_c, 4, 75, 100
6, 47040, Note_on_c, 4, 75, 0
6, 47160, Note_on_c, 4, 74, 100
6, 47280, Note_on_c, 4, 74, 0
6, 47280, Note_on_c, 4, 75, 100
6, 47400, Note_on_c, 4, 75, 0
6, 47400, Note_on_c, 4, 77, 100
6, 47520, Note_on_c, 4, 77, 0
6, 48060, Note_on_c, 4, 74, 100
6, 48120, Note_on_c, 4, 74, 0
6, 48120, Note_on_c, 4, 74, 100
6, 48180, Note_on_c, 4, 74, 0
6, 48180, Note_on_c, 4, 74, 100
6, 48240, Note_on_c, 4, 74, 0
6, 48240, Note_on_c, 4, 77, 100
6, 48300, Note_on_c, 4, 77, 0
6, 48300, Note_on_c, 4, 77, 100
6, 48360, Note_on_c, 4, 77, 0
6, 48360, Note_on_c, 4, 77, 100
6, 48420, Note_on_c, 4, 77, 0
6, 48420, Note_on_c, 4, 77, 100
6, 48480, Note_on_c, 4, 77, 0
6, 48480, Note_on_c, 4, 79, 100
6, 48600, Note_on_c, 4, 79, 0
6, 48720, Note_on_c, 4, 74, 100
6, 48840, Note_on_c, 4, 74, 0
6, 48960, Note_on_c, 4, 70, 100
6, 49440, Note_on_c, 4, 70, 0
6, 49560, Note_on_c, 4, 62, 100
6, 49680, Note_on_c, 4, 62, 0
6, 49680, Note_on_c, 4, 62, 100
6, 49800, Note_on_c, 4, 62, 0
6, 49800, Note_on_c, 4, 62, 100
6, 49920, Note_on_c, 4, 62, 0
6, 49920, Note_on_c, 4, 60, 100
6, 50040, Note_on_c, 4, 60, 0
6, 50040, Note_on_c, 4, 65, 100
6, 50100, Note_on_c, 4, 65, 0
6, 50100, Note_on_c, 4, 65, 100
6, 50160, Note_on_c, 4, 65, 0
6, 50160, Note_on_c, 4, 65, 100
6, 50220, Note_on_c, 4, 65, 0
6, 50220, Note_on_c, 4, 65, 100
6, 50280, Note_on_c, 4, 65, 0
6, 50280, Note_on_c, 4, 65, 100
6, 50340, Note_on_c, 4, 65, 0
6, 50340, Note_on_c, 4, 65, 100
6, 50400, Note_on_c, 4, 65, 0
6, 50400, Note_on_c, 4, 65, 100
6, 50520, Note_on_c, 4, 65, 0
6, 51360, Note_on_c, 4, 72, 100
6, 51480, Note_on_c, 4, 72, 0
6, 51480, Note_on_c, 4, 70, 100
6, 51600, Note_on_c, 4, 70, 0
6, 51600, Note_on_c, 4, 69, 100
6, 51720, Note_on_c, 4, 69, 0
6, 51720, Note_on_c, 4, 67, 100
6, 51840, Note_on_c, 4, 67, 0
6, 51840, Note_on_c, 4, 65, 100
6, 52320, Note_on_c, 4, 65, 0
6, 52320, Note_on_c, 4, 70, 100
6, 52440, Note_on_c, 4, 70, 0
6, 52440, Note_on_c, 4, 69, 100
6, 52560, Note_on_c, 4, 69, 0
6, 52560, Note_on_c, 4, 67, 100
6, 52680, Note_on_c, 4, 67, 0
6, 52680, Note_on_c, 4, 65, 100
6, 52800, Note_on_c, 4, 65, 0
6, 52800, Note_on_c, 4, 63, 100
6, 53280, Note_on_c, 4, 63, 0
6, 53280, Note_on_c, 4, 69, 100
6, 53400, Note_on_c, 4, 69, 0
6, 53400, Note_on_c, 4, 67, 100
6, 53520, Note_on_c, 4, 67, 0
6, 53520, Note_on_c, 4, 65, 100
6, 53640, Note_on_c, 4, 65, 0
6, 53640, Note_on_c, 4, 63, 100
6, 53760, Note_on_c, 4, 63, 0
6, 53760, Note_on_c, 4, 62, 100
6, 53880, Note_on_c, 4, 62, 0
6, 53880, Note_on_c, 4, 58, 100
6, 53940, Note_on_c, 4, 58, 0
6, 53940, Note_on_c, 4, 58, 100
6, 54000, Note_on_c, 4, 58, 0
6, 54000, Note_on_c, 4, 58, 100
6, 54060, Note_on_c, 4, 58, 0
6, 54060, Note_on_c, 4, 58, 100
6, 54120, Note_on_c, 4, 58, 0
6, 54120, Note_on_c, 4, 58, 100
6, 54180, Note_on_c, 4, 58, 0
6, 54180, Note_on_c, 4, 58, 100
6, 54240, Note_on_c, 4, 58, 0
6, 54240, Note_on_c, 4, 58, 100
6, 54360, Note_on_c, 4, 58, 0
6, 54720, Note_on_c, 4, 72, 100
6, 54840, Note_on_c, 4, 72, 0
6, 54840, Note_on_c, 4, 70, 100
6, 54960, Note_on_c, 4, 70, 0
6, 54960, Note_on_c, 4, 68, 100
6, 55080, Note_on_c, 4, 68, 0
6, 55080, Note_on_c, 4, 67, 100
6, 55200, Note_on_c, 4, 67, 0
6, 55200, Note_on_c, 4, 68, 100
6, 55680, Note_on_c, 4, 68, 0
6, 55680, Note_on_c, 4, 70, 100
6, 55800, Note_on_c, 4, 70, 0
6, 55800, Note_on_c, 4, 68, 100
6, 55920, Note_on_c, 4, 68, 0
6, 55920, Note_on_c, 4, 67, 100
6, 56040, Note_on_c, 4, 67, 0
6, 56040, Note_on_c, 4, 66, 100
6, 56160, Note_on_c, 4, 66, 0
6, 56160, Note_on_c, 4, 67, 100
6, 56640, Note_on_c, 4, 67, 0
6, 56640, Note_on_c, 4, 68, 100
6, 56760, Note_on_c, 4, 68, 0
6, 56760, Note_on_c, 4, 67, 100
6, 56880, Note_on_c, 4, 67, 0
6, 56880, Note_on_c, 4, 65, 100
6, 57000, Note_on_c, 4, 65, 0
6, 57000, Note_on_c, 4, 63, 100
6, 57120, Note_on_c, 4, 63, 0
6, 57120, Note_on_c, 4, 65, 100
6, 57600, Note_on_c, 4, 65, 0
6, 57600, Note_on_c, 4, 67, 100
6, 57720, Note_on_c, 4, 67, 0
6, 57780, Note_on_c, 4, 58, 100
6, 57840, Note_on_c, 4, 58, 0
6, 57840, Note_on_c, 4, 60, 100
6, 57960, Note_on_c, 4, 60, 0
6, 58020, Note_on_c, 4, 60, 100
6, 58080, Note_on_c, 4, 60, 0
6, 58080, Note_on_c, 4, 62, 100
6, 58200, Note_on_c, 4, 62, 0
6, 58260, Note_on_c, 4, 62, 100
6, 58320, Note_on_c, 4, 62, 0
6, 58320, Note_on_c, 4, 63, 100
6, 58440, Note_on_c, 4, 63, 0
6, 58500, Note_on_c, 4, 63, 100
6, 58560, Note_on_c, 4, 63, 0
6, 58560, Note_on_c, 4, 62, 100
6, 58620, Note_on_c, 4, 62, 0
6, 58620, Note_on_c, 4, 65, 100
6, 58680, Note_on_c, 4, 65, 0
6, 58740, Note_on_c, 4, 70, 100
6, 58800, Note_on_c, 4, 70, 0
6, 58860, Note_on_c, 4, 70, 100
6, 58920, Note_on_c, 4, 70, 0
6, 58980, Note_on_c, 4, 70, 100
6, 59040, Note_on_c, 4, 70, 0
6, 59040, Note_on_c, 4, 70, 100
6, 59100, Note_on_c, 4, 70, 0
6, 59100, Note_on_c, 4, 70, 100
6, 59160, Note_on_c, 4, 70, 0
6, 59160, Note_on_c, 4, 70, 100
6, 59220, Note_on_c, 4, 70, 0
6, 59220, Note_on_c, 4, 70, 100
6, 59280, Note_on_c, 4, 70, 0
6, 59280, Note_on_c, 4, 69, 100
6, 59340, Note_on_c, 4, 69, 0
6, 59340, Note_on_c, 4, 69, 100
6, 59400, Note_on_c, 4, 69, 0
6, 59400, Note_on_c, 4, 69, 100
6, 59460, Note_on_c, 4, 69, 0
6, 59460, Note_on_c, 4, 69, 100
6, 59520, Note_on_c, 4, 69, 0
6, 59520, Note_on_c, 4, 70, 100
6, 59640, Note_on_c, 4, 70, 0
6, 60060, Note_on_c, 4, 65, 100
6, 60120, Note_on_c, 4, 65, 0
6, 60120, Note_on_c, 4, 65, 100
6, 60180, Note_on_c, 4, 65, 0
6, 60180, Note_on_c, 4, 65, 100
6, 60240, Note_on_c, 4, 65, 0
6, 60300, Note_on_c, 4, 65, 100
6, 60360, Note_on_c, 4, 65, 0
6, 60360, Note_on_c, 4, 65, 100
6, 60420, Note_on_c, 4, 65, 0
6, 60420, Note_on_c, 4, 65, 100
6, 60480, Note_on_c, 4, 65, 0
6, 60540, Note_on_c, 4, 65, 100
6, 60600, Note_on_c, 4, 65, 0
6, 60600, Note_on_c, 4, 65, 100
6, 60660, Note_on_c, 4, 65, 0
6, 60660, Note_on_c, 4, 65, 100
6, 60720, Note_on_c, 4, 65, 0
6, 60780, Note_on_c, 4, 69, 100
6, 60840, Note_on_c, 4, 69, 0
6, 60840, Note_on_c, 4, 69, 100
6, 60900, Note_on_c, 4, 69, 0
6, 60900, Note_on_c, 4, 72, 100
6, 60960, Note_on_c, 4, 72, 0
6, 60960, Note_on_c, 4, 70, 100
6, 61140, Note_on_c, 4, 70, 0
6, 61140, Note_on_c, 4, 72, 100
6, 61200, Note_on_c, 4, 72, 0
6, 61200, Note_on_c, 4, 74, 100
6, 61380, Note_on_c, 4, 74, 0
6, 61380, Note_on_c, 4, 75, 100
6, 61440, Note_on_c, 4, 75, 0
6, 61440, Note_on_c, 4, 74, 100
6, 61680, Note_on_c, 4, 74, 0
6, 61680, Note_on_c, 4, 72, 100
6, 61800, Note_on_c, 4, 72, 0
6, 61980, Note_on_c, 4, 62, 100
6, 62040, Note_on_c, 4, 62, 0
6, 62040, Note_on_c, 4, 62, 100
6, 62100, Note_on_c, 4, 62, 0
6, 62100, Note_on_c, 4, 62, 100
6, 62160, Note_on_c, 4, 62, 0
6, 62220, Note_on_c, 4, 62, 100
6, 62280, Note_on_c, 4, 62, 0
6, 62280, Note_on_c, 4, 62, 100
6, 62340, Note_on_c, 4, 62, 0
6, 62340, Note_on_c, 4, 62, 100
6, 62400, Note_on_c, 4, 62, 0
6, 62460, Note_on_c, 4, 60, 100
6, 62520, Note_on_c, 4, 60, 0
6, 62520, Note_on_c, 4, 60, 100
6, 62580, Note_on_c, 4, 60, 0
6, 62580, Note_on_c, 4, 60, 100
6, 62640, Note_on_c, 4, 60, 0
6, 62700, Note_on_c, 4, 60, 100
6, 62760, Note_on_c, 4, 60, 0
6, 62760, Note_on_c, 4, 60, 100
6, 62820, Note_on_c, 4, 60, 0
6, 62820, Note_on_c, 4, 60, 100
6, 62880, Note_on_c, 4, 60, 0
6, 62880, Note_on_c, 4, 65, 100
6, 63000, Note_on_c, 4, 65, 0
6, 63000, Note_on_c, 4, 63, 100
6, 63120, Note_on_c, 4, 63, 0
6, 63120, Note_on_c, 4, 62, 100
6, 63240, Note_on_c, 4, 62, 0
6, 63240, Note_on_c, 4, 60, 100
6, 63360, Note_on_c, 4, 60, 0
6, 63360, Note_on_c, 4, 58, 100
6, 63420, Note_on_c, 4, 58, 0
6, 63420, Note_on_c, 4, 65, 100
6, 63480, Note_on_c, 4, 65, 0
6, 63480, Note_on_c, 4, 63, 100
6, 63540, Note_on_c, 4, 63, 0
6, 63540, Note_on_c, 4, 62, 100
6, 63600, Note_on_c, 4, 62, 0
6, 63600, Note_on_c, 4, 60, 100
6, 63660, Note_on_c, 4, 60, 0
6, 63900, Note_on_c, 4, 65, 100
6, 63960, Note_on_c, 4, 65, 0
6, 63960, Note_on_c, 4, 63, 100
6, 64020, Note_on_c, 4, 63, 0
6, 64020, Note_on_c, 4, 62, 100
6, 64080, Note_on_c, 4, 62, 0
6, 64080, Note_on_c, 4, 60, 100
6, 64140, Note_on_c, 4, 60, 0
6, 64380, Note_on_c, 4, 58, 100
6, 64380, Note_on_c, 4, 68, 100
6, 64500, Note_on_c, 4, 68, 0
6, 64500, Note_on_c, 4, 58, 0
6, 64500, Note_on_c, 4, 58, 100
6, 64500, Note_on_c, 4, 68, 100
6, 64620, Note_on_c, 4, 68, 0
6, 64620, Note_on_c, 4, 58, 0
6, 64620, Note_on_c, 4, 58, 100
6, 64620, Note_on_c, 4, 68, 100
6, 64740, Note_on_c, 4, 68, 0
6, 64740, Note_on_c, 4, 58, 0
6, 64740, Note_on_c, 4, 58, 100
6, 64740, Note_on_c, 4, 68, 100
6, 64800, Note_on_c, 4, 68, 0
6, 64800, Note_on_c, 4, 67, 100
6, 64920, Note_on_c, 4, 67, 0
6, 64920, Note_on_c, 4, 58, 0
6, 65160, Note_on_c, 4, 67, 100
6, 65250, Note_on_c, 4, 67, 0
6, 65250, Note_on_c, 4, 69, 100
6, 65280, Note_on_c, 4, 69, 0
6, 65280, Note_on_c, 4, 70, 100
6, 65340, Note_on_c, 4, 70, 0
6, 65400, Note_on_c, 4, 70, 100
6, 65460, Note_on_c, 4, 70, 0
6, 65520, Note_on_c, 4, 70, 100
6, 65580, Note_on_c, 4, 70, 0
6, 65640, Note_on_c, 4, 69, 100
6, 65700, Note_on_c, 4, 69, 0
6, 65760, Note_on_c, 4, 70, 100
6, 65880, Note_on_c, 4, 70, 0
6, 66060, Note_on_c, 4, 69, 100
6, 66120, Note_on_c, 4, 69, 0
6, 66120, Note_on_c, 4, 70, 100
6, 66180, Note_on_c, 4, 70, 0
6, 66180, Note_on_c, 4, 72, 100
6, 66240, Note_on_c, 4, 72, 0
6, 66240, Note_on_c, 4, 74, 100
6, 66300, Note_on_c, 4, 74, 0
6, 66540, Note_on_c, 4, 69, 100
6, 66600, Note_on_c, 4, 69, 0
6, 66600, Note_on_c, 4, 70, 100
6, 66660, Note_on_c, 4, 70, 0
6, 66660, Note_on_c, 4, 72, 100
6, 66720, Note_on_c, 4, 72, 0
6, 66720, Note_on_c, 4, 74, 100
6, 66840, Note_on_c, 4, 74, 0
6, 67560, Note_on_c, 4, 79, 100
6, 67680, Note_on_c, 4, 79, 0
6, 67680, Note_on_c, 4, 77, 100
6, 67740, Note_on_c, 4, 77, 0
6, 67800, Note_on_c, 4, 75, 100
6, 67860, Note_on_c, 4, 75, 0
6, 67920, Note_on_c, 4, 74, 100
6, 67980, Note_on_c, 4, 74, 0
6, 68040, Note_on_c, 4, 72, 100
6, 68100, Note_on_c, 4, 72, 0
6, 69720, Note_on_c, 4, 62, 100
6, 69840, Note_on_c, 4, 62, 0
6, 69840, Note_on_c, 4, 67, 100
6, 69960, Note_on_c, 4, 67, 0
6, 69960, Note_on_c, 4, 65, 100
6, 70080, Note_on_c, 4, 65, 0
6, 70080, Note_on_c, 4, 63, 100
6, 70320, Note_on_c, 4, 63, 0
6, 70320, Note_on_c, 4, 65, 100
6, 70440, Note_on_c, 4, 65, 0
6, 70440, Note_on_c, 4, 63, 100
6, 70560, Note_on_c, 4, 63, 0
6, 70560, Note_on_c, 4, 62, 100
6, 70620, Note_on_c, 4, 62, 0
6, 70680, Note_on_c, 4, 63, 100
6, 70740, Note_on_c, 4, 63, 0
6, 70800, Note_on_c, 4, 65, 100
6, 70860, Note_on_c, 4, 65, 0
6, 70920, Note_on_c, 4, 65, 100
6, 70980, Note_on_c, 4, 65, 0
6, 73440, Note_on_c, 4, 67, 100
6, 73980, Note_on_c, 4, 67, 0
6, 74040, Note_on_c, 4, 67, 100
6, 74100, Note_on_c, 4, 67, 0
6, 74160, Note_on_c, 4, 70, 100
6, 74220, Note_on_c, 4, 70, 0
6, 74280, Note_on_c, 4, 70, 100
6, 74340, Note_on_c, 4, 70, 0
6, 74400, Note_on_c, 4, 70, 100
6, 74460, Note_on_c, 4, 70, 0
6, 74460, Note_on_c, 4, 70, 100
6, 74520, Note_on_c, 4, 70, 0
6, 74520, Note_on_c, 4, 70, 100
6, 74580, Note_on_c, 4, 70, 0
6, 74580, Note_on_c, 4, 70, 100
6, 74640, Note_on_c, 4, 70, 0
6, 74640, Note_on_c, 4, 62, 100
6, 74700, Note_on_c, 4, 62, 0
6, 74700, Note_on_c, 4, 62, 100
6, 74760, Note_on_c, 4, 62, 0
6, 74760, Note_on_c, 4, 62, 100
6, 74820, Note_on_c, 4, 62, 0
6, 74820, Note_on_c, 4, 62, 100
6, 74880, Note_on_c, 4, 62, 0
6, 74880, Note_on_c, 4, 60, 100
6, 74910, Note_on_c, 4, 60, 0
6, 74910, Note_on_c, 4, 60, 100
6, 74940, Note_on_c, 4, 60, 0
6, 74940, Note_on_c, 4, 60, 100
6, 74970, Note_on_c, 4, 60, 0
6, 74970, Note_on_c, 4, 60, 100
6, 75000, Note_on_c, 4, 60, 0
6, 75000, Note_on_c, 4, 60, 100
6, 75030, Note_on_c, 4, 60, 0
6, 75030, Note_on_c, 4, 60, 100
6, 75060, Note_on_c, 4, 60, 0
6, 75060, Note_on_c, 4, 60, 100
6, 75090, Note_on_c, 4, 60, 0
6, 75090, Note_on_c, 4, 60, 100
6, 75120, Note_on_c, 4, 60, 0
6, 75120, Note_on_c, 4, 69, 100
6, 75120, Note_on_c, 4, 63, 100
6, 75150, Note_on_c, 4, 63, 0
6, 75150, Note_on_c, 4, 69, 0
6, 75150, Note_on_c, 4, 69, 100
6, 75150, Note_on_c, 4, 63, 100
6, 75180, Note_on_c, 4, 63, 0
6, 75180, Note_on_c, 4, 69, 0
6, 75180, Note_on_c, 4, 69, 100
6, 75180, Note_on_c, 4, 63, 100
6, 75210, Note_on_c, 4, 63, 0
6, 75210, Note_on_c, 4, 69, 0
6, 75210, Note_on_c, 4, 69, 100
6, 75210, Note_on_c, 4, 63, 100
6, 75240, Note_on_c, 4, 63, 0
6, 75240, Note_on_c, 4, 69, 0
6, 75240, Note_on_c, 4, 69, 100
6, 75240, Note_on_c, 4, 63, 100
6, 75270, Note_on_c, 4, 63, 0
6, 75270, Note_on_c, 4, 69, 0
6, 75270, Note_on_c, 4, 69, 100
6, 75270, Note_on_c, 4, 63, 100
6, 75300, Note_on_c, 4, 63, 0
6, 75300, Note_on_c, 4, 69, 0
6, 75300, Note_on_c, 4, 69, 100
6, 75300, Note_on_c, 4, 63, 100
6, 75330, Note_on_c, 4, 63, 0
6, 75330, Note_on_c, 4, 69, 0
6, 75330, Note_on_c, 4, 69, 100
6, 75330, Note_on_c, 4, 63, 100
6, 75360, Note_on_c, 4, 63, 0
6, 75360, Note_on_c, 4, 69, 0
6, 75360, Note_on_c, 4, 62, 100
6, 75360, Note_on_c, 4, 70, 100
6, 75480, Note_on_c, 4, 70, 0
6, 75480, Note_on_c, 4, 62, 0
6, 75480, Note_on_c, 4, 62, 100
6, 75480, Note_on_c, 4, 70, 100
6, 75480, Note_on_c, 4, 82, 100
6, 75600, Note_on_c, 4, 82, 0
6, 75600, Note_on_c, 4, 70, 0
6, 75600, Note_on_c, 4, 62, 0
6, 75720, Note_on_c, 4, 62, 100
6, 75720, Note_on_c, 4, 70, 100
6, 75720, Note_on_c, 4, 82, 100
6, 75840, Note_on_c, 4, 82, 0
6, 75840, Note_on_c, 4, 70, 0
6, 75840, Note_on_c, 4, 62, 0
6, 75960, Note_on_c, 4, 74, 100
6, 76050, Note_on_c, 4, 74, 0
6, 76050, Note_on_c, 4, 77, 100
6, 76080, Note_on_c, 4, 77, 0
6, 76080, Note_on_c, 4, 82, 100
6, 76140, Note_on_c, 4, 82, 0
6, 76140, Note_on_c, 4, 82, 100
6, 76200, Note_on_c, 4, 82, 0
6, 76200, Note_on_c, 4, 82, 100
6, 76260, Note_on_c, 4, 82, 0
6, 76260, Note_on_c, 4, 82, 100
6, 76320, Note_on_c, 4, 82, 0
6, 76320, Note_on_c, 4, 82, 100
6, 76380, Note_on_c, 4, 82, 0
6, 76380, Note_on_c, 4, 81, 100
6, 76440, Note_on_c, 4, 81, 0
6, 76440, Note_on_c, 4, 81, 100
6, 76560, Note_on_c, 4, 81, 0
6, 76680, Note_on_c, 4, 75, 100
6, 76680, Note_on_c, 4, 84, 100
6, 76800, Note_on_c, 4, 84, 0
6, 76800, Note_on_c, 4, 75, 0
6, 76920, Note_on_c, 4, 75, 100
6, 77010, Note_on_c, 4, 75, 0
6, 77010, Note_on_c, 4, 81, 100
6, 77040, Note_on_c, 4, 81, 0
6, 77040, Note_on_c, 4, 84, 100
6, 77100, Note_on_c, 4, 84, 0
6, 77100, Note_on_c, 4, 84, 100
6, 77160, Note_on_c, 4, 84, 0
6, 77160, Note_on_c, 4, 84, 100
6, 77220, Note_on_c, 4, 84, 0
6, 77220, Note_on_c, 4, 84, 100
6, 77280, Note_on_c, 4, 84, 0
6, 77280, Note_on_c, 4, 84, 100
6, 77340, Note_on_c, 4, 84, 0
6, 77340, Note_on_c, 4, 82, 100
6, 77400, Note_on_c, 4, 82, 0
6, 77400, Note_on_c, 4, 82, 100
6, 77520, Note_on_c, 4, 82, 0
6, 77640, Note_on_c, 4, 77, 100
6, 77640, Note_on_c, 4, 86, 100
6, 77760, Note_on_c, 4, 86, 0
6, 77760, Note_on_c, 4, 77, 0
6, 77880, Note_on_c, 4, 77, 100
6, 77970, Note_on_c, 4, 77, 0
6, 77970, Note_on_c, 4, 82, 100
6, 78000, Note_on_c, 4, 82, 0
6, 78000, Note_on_c, 4, 86, 100
6, 78060, Note_on_c, 4, 86, 0
6, 78060, Note_on_c, 4, 86, 100
6, 78120, Note_on_c, 4, 86, 0
6, 78120, Note_on_c, 4, 86, 100
6, 78180, Note_on_c, 4, 86, 0
6, 78180, Note_on_c, 4, 86, 100
6, 78240, Note_on_c, 4, 86, 0
6, 78240, Note_on_c, 4, 60, 100
6, 78300, Note_on_c, 4, 60, 0
6, 78300, Note_on_c, 4, 62, 100
6, 78330, Note_on_c, 4, 62, 0
6, 78330, Note_on_c, 4, 63, 100
6, 78360, Note_on_c, 4, 63, 0
6, 78360, Note_on_c, 4, 65, 100
6, 78390, Note_on_c, 4, 65, 0
6, 78390, Note_on_c, 4, 67, 100
6, 78420, Note_on_c, 4, 67, 0
6, 78420, Note_on_c, 4, 69, 100
6, 78450, Note_on_c, 4, 69, 0
6, 78450, Note_on_c, 4, 71, 100
6, 78480, Note_on_c, 4, 71, 0
6, 78480, Note_on_c, 4, 72, 100
6, 78510, Note_on_c, 4, 72, 0
6, 78510, Note_on_c, 4, 71, 100
6, 78540, Note_on_c, 4, 71, 0
6, 78540, Note_on_c, 4, 72, 100
6, 78570, Note_on_c, 4, 72, 0
6, 78570, Note_on_c, 4, 74, 100
6, 78600, Note_on_c, 4, 74, 0
6, 78600, Note_on_c, 4, 75, 100
6, 78630, Note_on_c, 4, 75, 0
6, 78630, Note_on_c, 4, 74, 100
6, 78660, Note_on_c, 4, 74, 0
6, 78660, Note_on_c, 4, 75, 100
6, 78690, Note_on_c, 4, 75, 0
6, 78690, Note_on_c, 4, 77, 100
6, 78720, Note_on_c, 4, 77, 0
6, 78720, Note_on_c, 4, 79, 100
6, 78750, Note_on_c, 4, 79, 0
6, 78750, Note_on_c, 4, 78, 100
6, 78780, Note_on_c, 4, 78, 0
6, 78780, Note_on_c, 4, 79, 100
6, 78810, Note_on_c, 4, 79, 0
6, 78810, Note_on_c, 4, 81, 100
6, 78840, Note_on_c, 4, 81, 0
6, 78840, Note_on_c, 4, 82, 100
6, 78870, Note_on_c, 4, 82, 0
6, 78870, Note_on_c, 4, 81, 100
6, 78900, Note_on_c, 4, 81, 0
6, 78900, Note_on_c, 4, 79, 100
6, 78930, Note_on_c, 4, 79, 0
6, 78930, Note_on_c, 4, 77, 100
6, 78960, Note_on_c, 4, 77, 0
6, 78960, Note_on_c, 4, 75, 100
6, 78990, Note_on_c, 4, 75, 0
6, 78990, Note_on_c, 4, 74, 100
6, 79020, Note_on_c, 4, 74, 0
6, 79020, Note_on_c, 4, 72, 100
6, 79050, Note_on_c, 4, 72, 0
6, 79050, Note_on_c, 4, 74, 100
6, 79080, Note_on_c, 4, 74, 0
6, 79080, Note_on_c, 4, 75, 100
6, 79110, Note_on_c, 4, 75, 0
6, 79110, Note_on_c, 4, 77, 100
6, 79140, Note_on_c, 4, 77, 0
6, 79140, Note_on_c, 4, 79, 100
6, 79170, Note_on_c, 4, 79, 0
6, 79170, Note_on_c, 4, 75, 100
6, 79185, Note_on_c, 4, 74, 100
6, 79200, Note_on_c, 4, 74, 0
6, 79200, Note_on_c, 4, 75, 0
6, 79200, Note_on_c, 4, 77, 100
6, 79380, Note_on_c, 4, 77, 0
6, 79380, Note_on_c, 4, 74, 100
6, 79410, Note_on_c, 4, 74, 0
6, 79410, Note_on_c, 4, 70, 100
6, 79440, Note_on_c, 4, 70, 0
6, 79440, Note_on_c, 4, 77, 100
6, 79500, Note_on_c, 4, 77, 0
6, 79500, Note_on_c, 4, 74, 100
6, 79530, Note_on_c, 4, 74, 0
6, 79530, Note_on_c, 4, 70, 100
6, 79560, Note_on_c, 4, 70, 0
6, 79560, Note_on_c, 4, 77, 100
6, 79620, Note_on_c, 4, 77, 0
6, 79620, Note_on_c, 4, 74, 100
6, 79650, Note_on_c, 4, 74, 0
6, 79650, Note_on_c, 4, 70, 100
6, 79680, Note_on_c, 4, 70, 0
6, 79680, Note_on_c, 4, 75, 100
6, 79860, Note_on_c, 4, 75, 0
6, 79860, Note_on_c, 4, 72, 100
6, 79890, Note_on_c, 4, 72, 0
6, 79890, Note_on_c, 4, 69, 100
6, 79920, Note_on_c, 4, 69, 0
6, 79920, Note_on_c, 4, 75, 100
6, 79980, Note_on_c, 4, 75, 0
6, 79980, Note_on_c, 4, 72, 100
6, 80010, Note_on_c, 4, 72, 0
6, 80010, Note_on_c, 4, 69, 100
6, 80040, Note_on_c, 4, 69, 0
6, 80040, Note_on_c, 4, 75, 100
6, 80100, Note_on_c, 4, 75, 0
6, 80100, Note_on_c, 4, 72, 100
6, 80130, Note_on_c, 4, 72, 0
6, 80130, Note_on_c, 4, 69, 100
6, 80160, Note_on_c, 4, 69, 0
6, 80160, Note_on_c, 4, 70, 100
6, 80220, Note_on_c, 4, 70, 0
6, 80220, Note_on_c, 4, 70, 100
6, 80220, Note_on_c, 4, 82, 100
6, 80340, Note_on_c, 4, 82, 0
6, 80340, Note_on_c, 4, 70, 0
6, 80340, Note_on_c, 4, 70, 100
6, 80340, Note_on_c, 4, 82, 100
6, 80460, Note_on_c, 4, 82, 0
6, 80460, Note_on_c, 4, 70, 0
6, 80460, Note_on_c, 4, 70, 100
6, 80460, Note_on_c, 4, 82, 100
6, 80580, Note_on_c, 4, 82, 0
6, 80580, Note_on_c, 4, 70, 0
6, 80580, Note_on_c, 4, 70, 100
6, 80580, Note_on_c, 4, 82, 100
6, 80700, Note_on_c, 4, 82, 0
6, 80700, Note_on_c, 4, 70, 0
6, 80700, Note_on_c, 4, 70, 100
6, 80700, Note_on_c, 4, 82, 100
6, 80820, Note_on_c, 4, 82, 0
6, 80820, Note_on_c, 4, 70, 0
6, 80820, Note_on_c, 4, 70, 100
6, 80820, Note_on_c, 4, 82, 100
6, 80940, Note_on_c, 4, 82, 0
6, 80940, Note_on_c, 4, 70, 0
6, 80940, Note_on_c, 4, 70, 100
6, 80940, Note_on_c, 4, 82, 100
6, 81060, Note_on_c, 4, 82, 0
6, 81060, Note_on_c, 4, 70, 0
6, 81060, Note_on_c, 4, 70, 100
6, 81060, Note_on_c, 4, 82, 100
6, 81180, Note_on_c, 4, 82, 0
6, 81180, Note_on_c, 4, 70, 0
6, 81180, Note_on_c, 4, 70, 100
6, 81180, Note_on_c, 4, 86, 100
6, 81300, Note_on_c, 4, 86, 0
6, 81300, Note_on_c, 4, 70, 0
6, 81300, Note_on_c, 4, 70, 100
6, 81300, Note_on_c, 4, 86, 100
6, 81420, Note_on_c, 4, 86, 0
6, 81420, Note_on_c, 4, 70, 0
6, 81420, Note_on_c, 4, 70, 100
6, 81420, Note_on_c, 4, 86, 100
6, 81540, Note_on_c, 4, 86, 0
6, 81540, Note_on_c, 4, 70, 0
6, 81540, Note_on_c, 4, 70, 100
6, 81540, Note_on_c, 4, 86, 100
6, 81660, Note_on_c, 4, 86, 0
6, 81660, Note_on_c, 4, 70, 0
6, 81660, Note_on_c, 4, 70, 100
6, 81660, Note_on_c, 4, 86, 100
6, 81780, Note_on_c, 4, 86, 0
6, 81780, Note_on_c, 4, 70, 0
6, 81780, Note_on_c, 4, 70, 100
6, 81780, Note_on_c, 4, 86, 100
6, 81900, Note_on_c, 4, 86, 0
6, 81900, Note_on_c, 4, 70, 0
6, 81900, Note_on_c, 4, 70, 100
6, 81900, Note_on_c, 4, 86, 100
6, 82020, Note_on_c, 4, 86, 0
6, 82020, Note_on_c, 4, 70, 0
6, 82020, Note_on_c, 4, 70, 100
6, 82020, Note_on_c, 4, 86, 100
6, 82140, Note_on_c, 4, 86, 0
6, 82140, Note_on_c, 4, 70, 0
6, 82140, Note_on_c, 4, 70, 100
6, 82260, Note_on_c, 4, 70, 0
6, 82260, Note_on_c, 4, 70, 100
6, 82380, Note_on_c, 4, 70, 0
6, 82380, Note_on_c, 4, 70, 100
6, 82500, Note_on_c, 4, 70, 0
6, 82500, Note_on_c, 4, 70, 100
6, 82620, Note_on_c, 4, 70, 0
6, 82620, Note_on_c, 4, 62, 100
6, 82620, Note_on_c, 4, 60, 100
6, 82740, Note_on_c, 4, 60, 0
6, 82740, Note_on_c, 4, 62, 0
6, 82740, Note_on_c, 4, 62, 100
6, 82740, Note_on_c, 4, 60, 100
6, 82860, Note_on_c, 4, 60, 0
6, 82860, Note_on_c, 4, 62, 0
6, 82860, Note_on_c, 4, 62, 100
6, 82860, Note_on_c, 4, 60, 100
6, 82980, Note_on_c, 4, 60, 0
6, 82980, Note_on_c, 4, 62, 0
6, 82980, Note_on_c, 4, 60, 100
6, 82980, Note_on_c, 4, 62, 100
6, 83040, Note_on_c, 4, 62, 0
6, 83040, Note_on_c, 4, 60, 0
6, 83040, Note_on_c, 4, 58, 100
6, 83040, Note_on_c, 4, 62, 100
6, 83100, Note_on_c, 4, 62, 0
6, 83100, Note_on_c, 4, 58, 0
6, 83100, Note_on_c, 4, 58, 100
6, 83160, Note_on_c, 4, 58, 0
6, 83160, Note_on_c, 4, 60, 100
6, 83220, Note_on_c, 4, 60, 0
6, 83220, Note_on_c, 4, 62, 100
6, 83280, Note_on_c, 4, 62, 0
6, 83340, Note_on_c, 4, 63, 100
6, 83400, Note_on_c, 4, 63, 0
6, 83400, Note_on_c, 4, 62, 100
6, 83460, Note_on_c, 4, 62, 0
6, 83460, Note_on_c, 4, 60, 100
6, 83520, Note_on_c, 4, 60, 0
6, 83580, Note_on_c, 4, 58, 100
6, 83640, Note_on_c, 4, 58, 0
6, 83640, Note_on_c, 4, 62, 100
6, 83700, Note_on_c, 4, 62, 0
6, 83700, Note_on_c, 4, 58, 100
6, 83760, Note_on_c, 4, 58, 0
6, 83820, Note_on_c, 4, 62, 100
6, 83880, Note_on_c, 4, 62, 0
6, 83880, Note_on_c, 4, 67, 100
6, 83940, Note_on_c, 4, 67, 0
6, 83940, Note_on_c, 4, 62, 100
6, 84000, Note_on_c, 4, 62, 0
6, 84600, Note_on_c, 4, 70, 100
6, 84720, Note_on_c, 4, 70, 0
6, 84720, Note_on_c, 4, 69, 100
6, 84840, Note_on_c, 4, 69, 0
6, 85080, Note_on_c, 4, 70, 100
6, 85200, Note_on_c, 4, 70, 0
6, 85200, Note_on_c, 4, 69, 100
6, 85320, Note_on_c, 4, 69, 0
6, 85800, Note_on_c, 4, 67, 100
6, 85920, Note_on_c, 4, 67, 0
6, 85920, Note_on_c, 4, 66, 100
6, 85980, Note_on_c, 4, 66, 0
6, 86040, Note_on_c, 4, 66, 100
6, 86100, Note_on_c, 4, 66, 0
6, 86160, Note_on_c, 4, 66, 100
6, 86220, Note_on_c, 4, 66, 0
6, 86280, Note_on_c, 4, 66, 100
6, 86340, Note_on_c, 4, 66, 0
6, 86400, Note_on_c, 4, 67, 100
6, 86460, Note_on_c, 4, 67, 0
6, 86460, Note_on_c, 4, 74, 100
6, 86460, Note_on_c, 4, 82, 100
6, 86580, Note_on_c, 4, 82, 0
6, 86580, Note_on_c, 4, 74, 0
6, 86580, Note_on_c, 4, 74, 100
6, 86580, Note_on_c, 4, 82, 100
6, 86700, Note_on_c, 4, 82, 0
6, 86700, Note_on_c, 4, 74, 0
6, 86700, Note_on_c, 4, 74, 100
6, 86700, Note_on_c, 4, 82, 100
6, 86820, Note_on_c, 4, 82, 0
6, 86820, Note_on_c, 4, 74, 0
6, 86820, Note_on_c, 4, 74, 100
6, 86820, Note_on_c, 4, 82, 100
6, 86940, Note_on_c, 4, 82, 0
6, 86940, Note_on_c, 4, 74, 0
6, 86940, Note_on_c, 4, 74, 100
6, 86940, Note_on_c, 4, 82, 100
6, 87060, Note_on_c, 4, 82, 0
6, 87060, Note_on_c, 4, 74, 0
6, 87060, Note_on_c, 4, 74, 100
6, 87060, Note_on_c, 4, 82, 100
6, 87180, Note_on_c, 4, 82, 0
6, 87180, Note_on_c, 4, 74, 0
6, 87180, Note_on_c, 4, 74, 100
6, 87180, Note_on_c, 4, 82, 100
6, 87300, Note_on_c, 4, 82, 0
6, 87300, Note_on_c, 4, 74, 0
6, 87300, Note_on_c, 4, 82, 100
6, 87300, Note_on_c, 4, 74, 100
6, 87420, Note_on_c, 4, 74, 0
6, 87420, Note_on_c, 4, 82, 0
6, 87420, Note_on_c, 4, 77, 100
6, 87420, Note_on_c, 4, 86, 100
6, 87540, Note_on_c, 4, 86, 0
6, 87540, Note_on_c, 4, 77, 0
6, 87540, Note_on_c, 4, 77, 100
6, 87540, Note_on_c, 4, 86, 100
6, 87660, Note_on_c, 4, 86, 0
6, 87660, Note_on_c, 4, 77, 0
6, 87660, Note_on_c, 4, 77, 100
6, 87660, Note_on_c, 4, 86, 100
6, 87780, Note_on_c, 4, 86, 0
6, 87780, Note_on_c, 4, 77, 0
6, 87780, Note_on_c, 4, 77, 100
6, 87780, Note_on_c, 4, 86, 100
6, 87900, Note_on_c, 4, 86, 0
6, 87900, Note_on_c, 4, 77, 0
6, 87900, Note_on_c, 4, 77, 100
6, 87900, Note_on_c, 4, 86, 100
6, 88020, Note_on_c, 4, 86, 0
6, 88020, Note_on_c, 4, 77, 0
6, 88020, Note_on_c, 4, 77, 100
6, 88020, Note_on_c, 4, 86, 100
6, 88140, Note_on_c, 4, 86, 0
6, 88140, Note_on_c, 4, 77, 0
6, 88140, Note_on_c, 4, 77, 100
6, 88140, Note_on_c, 4, 86, 100
6, 88260, Note_on_c, 4, 86, 0
6, 88260, Note_on_c, 4, 77, 0
6, 88260, Note_on_c, 4, 77, 100
6, 88260, Note_on_c, 4, 86, 100
6, 88380, Note_on_c, 4, 86, 0
6, 88380, Note_on_c, 4, 77, 0
6, 88380, Note_on_c, 4, 55, 100
6, 88380, Note_on_c, 4, 65, 100
6, 88500, Note_on_c, 4, 65, 0
6, 88500, Note_on_c, 4, 55, 0
6, 88500, Note_on_c, 4, 55, 100
6, 88500, Note_on_c, 4, 65, 100
6, 88620, Note_on_c, 4, 65, 0
6, 88620, Note_on_c, 4, 55, 0
6, 88620, Note_on_c, 4, 55, 100
6, 88620, Note_on_c, 4, 65, 100
6, 88740, Note_on_c, 4, 65, 0
6, 88740, Note_on_c, 4, 55, 0
6, 88740, Note_on_c, 4, 55, 100
6, 88740, Note_on_c, 4, 65, 100
6, 88860, Note_on_c, 4, 65, 0
6, 88860, Note_on_c, 4, 55, 0
6, 88860, Note_on_c, 4, 55, 100
6, 88860, Note_on_c, 4, 65, 100
6, 88980, Note_on_c, 4, 65, 0
6, 88980, Note_on_c, 4, 55, 0
6, 88980, Note_on_c, 4, 55, 100
6, 88980, Note_on_c, 4, 65, 100
6, 89100, Note_on_c, 4, 65, 0
6, 89100, Note_on_c, 4, 55, 0
6, 89100, Note_on_c, 4, 55, 100
6, 89100, Note_on_c, 4, 65, 100
6, 89220, Note_on_c, 4, 65, 0
6, 89220, Note_on_c, 4, 55, 0
6, 89220, Note_on_c, 4, 55, 100
6, 89220, Note_on_c, 4, 65, 100
6, 89280, Note_on_c, 4, 65, 0
6, 89280, Note_on_c, 4, 63, 100
6, 89400, Note_on_c, 4, 63, 0
6, 89400, Note_on_c, 4, 55, 0
6, 90240, Note_on_c, 4, 65, 100
6, 90480, Note_on_c, 4, 65, 0
6, 91800, Note_on_c, 4, 75, 100
6, 91920, Note_on_c, 4, 75, 0
6, 91920, Note_on_c, 4, 74, 100
6, 92040, Note_on_c, 4, 74, 0
6, 92040, Note_on_c, 4, 72, 100
6, 92160, Note_on_c, 4, 72, 0
6, 92160, Note_on_c, 4, 71, 100
6, 92220, Note_on_c, 4, 71, 0
6, 92280, Note_on_c, 4, 71, 100
6, 92340, Note_on_c, 4, 71, 0
6, 92400, Note_on_c, 4, 71, 100
6, 92460, Note_on_c, 4, 71, 0
6, 92520, Note_on_c, 4, 71, 100
6, 92580, Note_on_c, 4, 71, 0
6, 92640, Note_on_c, 4, 72, 100
6, 92760, Note_on_c, 4, 72, 0
6, 93360, Note_on_c, 4, 79, 100
6, 93420, Note_on_c, 4, 79, 0
6, 93420, Note_on_c, 4, 77, 100
6, 93480, Note_on_c, 4, 77, 0
6, 93480, Note_on_c, 4, 75, 100
6, 93540, Note_on_c, 4, 75, 0
6, 93540, Note_on_c, 4, 74, 100
6, 93600, Note_on_c, 4, 74, 0
6, 93600, Note_on_c, 4, 72, 100
6, 93720, Note_on_c, 4, 72, 0
6, 94320, Note_on_c, 4, 84, 100
6, 94380, Note_on_c, 4, 84, 0
6, 94380, Note_on_c, 4, 82, 100
6, 94440, Note_on_c, 4, 82, 0
6, 94440, Note_on_c, 4, 80, 100
6, 94500, Note_on_c, 4, 80, 0
6, 94500, Note_on_c, 4, 79, 100
6, 94560, Note_on_c, 4, 79, 0
6, 94560, Note_on_c, 4, 77, 100
6, 94680, Note_on_c, 4, 77, 0
6, 95280, Note_on_c, 4, 77, 100
6, 95340, Note_on_c, 4, 77, 0
6, 95340, Note_on_c, 4, 75, 100
6, 95400, Note_on_c, 4, 75, 0
6, 95400, Note_on_c, 4, 74, 100
6, 95460, Note_on_c, 4, 74, 0
6, 95460, Note_on_c, 4, 72, 100
6, 95520, Note_on_c, 4, 72, 0
6, 95520, Note_on_c, 4, 70, 100
6, 95640, Note_on_c, 4, 70, 0
6, 96240, Note_on_c, 4, 82, 100
6, 96300, Note_on_c, 4, 82, 0
6, 96300, Note_on_c, 4, 80, 100
6, 96360, Note_on_c, 4, 80, 0
6, 96360, Note_on_c, 4, 79, 100
6, 96420, Note_on_c, 4, 79, 0
6, 96420, Note_on_c, 4, 77, 100
6, 96480, Note_on_c, 4, 77, 0
6, 96480, Note_on_c, 4, 75, 100
6, 96600, Note_on_c, 4, 75, 0
6, 96600, Note_on_c, 4, 63, 100
6, 96840, Note_on_c, 4, 63, 0
6, 96840, Note_on_c, 4, 63, 100
6, 97080, Note_on_c, 4, 63, 0
6, 97080, Note_on_c, 4, 63, 100
6, 97320, Note_on_c, 4, 63, 0
6, 97320, Note_on_c, 4, 64, 100
6, 97440, Note_on_c, 4, 64, 0
6, 97440, Note_on_c, 4, 65, 100
6, 97560, Note_on_c, 4, 65, 0
6, 97560, Note_on_c, 4, 65, 100
6, 97800, Note_on_c, 4, 65, 0
6, 97800, Note_on_c, 4, 65, 100
6, 98040, Note_on_c, 4, 65, 0
6, 98040, Note_on_c, 4, 65, 100
6, 98280, Note_on_c, 4, 65, 0
6, 98280, Note_on_c, 4, 66, 100
6, 98400, Note_on_c, 4, 66, 0
6, 98400, Note_on_c, 4, 67, 100
6, 98520, Note_on_c, 4, 67, 0
6, 98520, Note_on_c, 4, 67, 100
6, 98760, Note_on_c, 4, 67, 0
6, 98760, Note_on_c, 4, 67, 100
6, 99000, Note_on_c, 4, 67, 0
6, 99000, Note_on_c, 4, 63, 100
6, 99240, Note_on_c, 4, 63, 0
6, 99240, Note_on_c, 4, 63, 100
6, 99480, Note_on_c, 4, 63, 0
6, 99480, Note_on_c, 4, 60, 100
6, 99720, Note_on_c, 4, 60, 0
6, 99720, Note_on_c, 4, 60, 100
6, 99960, Note_on_c, 4, 60, 0
6, 99960, Note_on_c, 4, 64, 100
6, 100080, Note_on_c, 4, 64, 0
6, 100080, Note_on_c, 4, 65, 100
6, 100440, Note_on_c, 4, 65, 0
6, 105360, Note_on_c, 4, 58, 100
6, 105390, Note_on_c, 4, 58, 0
6, 105390, Note_on_c, 4, 57, 100
6, 105420, Note_on_c, 4, 57, 0
6, 105420, Note_on_c, 4, 58, 100
6, 105450, Note_on_c, 4, 58, 0
6, 105450, Note_on_c, 4, 57, 100
6, 105480, Note_on_c, 4, 57, 0
6, 105480, Note_on_c, 4, 58, 100
6, 105510, Note_on_c, 4, 58, 0
6, 105510, Note_on_c, 4, 57, 100
6, 105540, Note_on_c, 4, 57, 0
6, 105540, Note_on_c, 4, 58, 100
6, 105570, Note_on_c, 4, 58, 0
6, 105570, Note_on_c, 4, 57, 100
6, 105600, Note_on_c, 4, 57, 0
6, 105600, Note_on_c, 4, 58, 100
6, 106140, Note_on_c, 4, 58, 0
6, 106200, Note_on_c, 4, 58, 100
6, 106260, Note_on_c, 4, 58, 0
6, 106320, Note_on_c, 4, 58, 100
6, 106380, Note_on_c, 4, 58, 0
6, 106440, Note_on_c, 4, 58, 100
6, 106500, Note_on_c, 4, 58, 0
6, 106560, Note_on_c, 4, 55, 100
6, 106560, Note_on_c, 4, 63, 100
6, 107040, Note_on_c, 4, 63, 0
6, 107040, Note_on_c, 4, 55, 0
6, 107040, Note_on_c, 4, 55, 100
6, 107040, Note_on_c, 4, 63, 100
6, 107280, Note_on_c, 4, 63, 0
6, 107280, Note_on_c, 4, 55, 0
6, 107280, Note_on_c, 4, 55, 100
6, 107280, Note_on_c, 4, 63, 100
6, 107460, Note_on_c, 4, 63, 0
6, 107460, Note_on_c, 4, 55, 0
6, 107460, Note_on_c, 4, 55, 100
6, 107460, Note_on_c, 4, 63, 100
6, 107520, Note_on_c, 4, 63, 0
6, 107520, Note_on_c, 4, 55, 0
6, 107520, Note_on_c, 4, 55, 100
6, 107520, Note_on_c, 4, 63, 100
6, 107580, Note_on_c, 4, 63, 0
6, 107580, Note_on_c, 4, 55, 0
6, 107640, Note_on_c, 4, 82, 100
6, 107700, Note_on_c, 4, 82, 0
6, 107760, Note_on_c, 4, 79, 100
6, 107820, Note_on_c, 4, 79, 0
6, 107880, Note_on_c, 4, 75, 100
6, 107940, Note_on_c, 4, 75, 0
6, 108000, Note_on_c, 4, 70, 100
6, 108060, Note_on_c, 4, 70, 0
6, 108120, Note_on_c, 4, 67, 100
6, 108180, Note_on_c, 4, 67, 0
6, 108240, Note_on_c, 4, 63, 100
6, 108300, Note_on_c, 4, 63, 0
6, 108360, Note_on_c, 4, 58, 100
6, 108420, Note_on_c, 4, 58, 0
6, 108480, Note_on_c, 4, 56, 100
6, 108600, Note_on_c, 4, 56, 0
6, 108600, Note_on_c, 4, 70, 100
6, 108600, Note_on_c, 4, 80, 100
6, 108840, Note_on_c, 4, 80, 0
6, 108840, Note_on_c, 4, 70, 0
6, 108840, Note_on_c, 4, 70, 100
6, 108840, Note_on_c, 4, 80, 100
6, 109080, Note_on_c, 4, 80, 0
6, 109080, Note_on_c, 4, 70, 0
6, 109080, Note_on_c, 4, 70, 100
6, 109080, Note_on_c, 4, 80, 100
6, 109305, Note_on_c, 4, 82, 100
6, 109320, Note_on_c, 4, 82, 0
6, 109320, Note_on_c, 4, 80, 0
6, 109320, Note_on_c, 4, 70, 0
6, 109320, Note_on_c, 4, 80, 100
6, 109380, Note_on_c, 4, 80, 0
6, 109380, Note_on_c, 4, 79, 100
6, 109410, Note_on_c, 4, 79, 0
6, 109410, Note_on_c, 4, 77, 100
6, 109440, Note_on_c, 4, 77, 0
6, 109440, Note_on_c, 4, 75, 100
6, 109560, Note_on_c, 4, 75, 0
6, 109800, Note_on_c, 4, 72, 100
6, 110040, Note_on_c, 4, 72, 0
6, 110040, Note_on_c, 4, 74, 100
6, 110160, Note_on_c, 4, 74, 0
6, 110280, Note_on_c, 4, 79, 100
6, 110520, Note_on_c, 4, 79, 0
6, 110520, Note_on_c, 4, 82, 100
6, 110640, Note_on_c, 4, 82, 0
6, 110760, Note_on_c, 4, 84, 100
6, 110820, Note_on_c, 4, 84, 0
6, 110880, Note_on_c, 4, 80, 100
6, 110940, Note_on_c, 4, 80, 0
6, 111000, Note_on_c, 4, 72, 100
6, 111060, Note_on_c, 4, 72, 0
6, 111120, Note_on_c, 4, 68, 100
6, 111180, Note_on_c, 4, 68, 0
6, 111240, Note_on_c, 4, 65, 100
6, 111300, Note_on_c, 4, 65, 0
6, 111360, Note_on_c, 4, 63, 100
6, 111420, Note_on_c, 4, 63, 0
6, 111420, Note_on_c, 4, 67, 100
6, 111480, Note_on_c, 4, 67, 0
6, 111480, Note_on_c, 4, 63, 100
6, 111540, Note_on_c, 4, 63, 0
6, 111540, Note_on_c, 4, 67, 100
6, 111600, Note_on_c, 4, 67, 0
6, 111600, Note_on_c, 4, 63, 100
6, 111660, Note_on_c, 4, 63, 0
6, 111660, Note_on_c, 4, 67, 100
6, 111720, Note_on_c, 4, 67, 0
6, 111720, Note_on_c, 4, 63, 100
6, 111780, Note_on_c, 4, 63, 0
6, 111780, Note_on_c, 4, 67, 100
6, 111840, Note_on_c, 4, 67, 0
6, 111840, Note_on_c, 4, 62, 100
6, 111900, Note_on_c, 4, 62, 0
6, 111900, Note_on_c, 4, 65, 100
6, 111960, Note_on_c, 4, 65, 0
6, 111960, Note_on_c, 4, 62, 100
6, 112020, Note_on_c, 4, 62, 0
6, 112020, Note_on_c, 4, 65, 100
6, 112080, Note_on_c, 4, 65, 0
6, 112080, Note_on_c, 4, 62, 100
6, 112140, Note_on_c, 4, 62, 0
6, 112140, Note_on_c, 4, 65, 100
6, 112200, Note_on_c, 4, 65, 0
6, 112200, Note_on_c, 4, 62, 100
6, 112260, Note_on_c, 4, 62, 0
6, 112260, Note_on_c, 4, 65, 100
6, 112320, Note_on_c, 4, 65, 0
6, 112320, Note_on_c, 4, 60, 100
6, 112380, Note_on_c, 4, 60, 0
6, 112380, Note_on_c, 4, 63, 100
6, 112440, Note_on_c, 4, 63, 0
6, 112440, Note_on_c, 4, 60, 100
6, 112500, Note_on_c, 4, 60, 0
6, 112500, Note_on_c, 4, 63, 100
6, 112560, Note_on_c, 4, 63, 0
6, 112560, Note_on_c, 4, 58, 100
6, 112620, Note_on_c, 4, 58, 0
6, 112620, Note_on_c, 4, 62, 100
6, 112680, Note_on_c, 4, 62, 0
6, 112680, Note_on_c, 4, 58, 100
6, 112740, Note_on_c, 4, 58, 0
6, 112740, Note_on_c, 4, 62, 100
6, 112800, Note_on_c, 4, 62, 0
6, 112800, Note_on_c, 4, 56, 100
6, 112860, Note_on_c, 4, 56, 0
6, 112860, Note_on_c, 4, 60, 100
6, 112920, Note_on_c, 4, 60, 0
6, 112920, Note_on_c, 4, 56, 100
6, 112980, Note_on_c, 4, 56, 0
6, 112980, Note_on_c, 4, 60, 100
6, 113040, Note_on_c, 4, 60, 0
6, 113040, Note_on_c, 4, 58, 100
6, 113160, Note_on_c, 4, 58, 0
6, 113280, Note_on_c, 4, 55, 100
6, 113280, Note_on_c, 4, 63, 100
6, 113520, Note_on_c, 4, 63, 0
6, 113520, Note_on_c, 4, 55, 0
6, 113520, Note_on_c, 4, 55, 100
6, 113520, Note_on_c, 4, 63, 100
6, 113700, Note_on_c, 4, 63, 0
6, 113700, Note_on_c, 4, 55, 0
6, 113700, Note_on_c, 4, 63, 100
6, 113760, Note_on_c, 4, 63, 0
6, 113760, Note_on_c, 4, 58, 100
6, 114240, Note_on_c, 4, 58, 0
6, 115200, Note_on_c, 4, 55, 100
6, 115200, Note_on_c, 4, 63, 100
6, 115440, Note_on_c, 4, 63, 0
6, 115440, Note_on_c, 4, 55, 0
6, 115440, Note_on_c, 4, 63, 100
6, 115440, Note_on_c, 4, 55, 100
6, 115620, Note_on_c, 4, 55, 0
6, 115620, Note_on_c, 4, 63, 0
6, 115620, Note_on_c, 4, 63, 100
6, 115680, Note_on_c, 4, 63, 0
6, 115680, Note_on_c, 4, 58, 100
6, 116160, Note_on_c, 4, 58, 0
6, 117120, Note_on_c, 4, 79, 100
6, 117180, Note_on_c, 4, 79, 0
6, 117240, Note_on_c, 4, 75, 100
6, 117300, Note_on_c, 4, 75, 0
6, 117360, Note_on_c, 4, 77, 100
6, 117420, Note_on_c, 4, 77, 0
6, 117480, Note_on_c, 4, 74, 100
6, 117540, Note_on_c, 4, 74, 0
6, 117600, Note_on_c, 4, 82, 100
6, 117660, Note_on_c, 4, 82, 0
6, 117720, Note_on_c, 4, 79, 100
6, 117780, Note_on_c, 4, 79, 0
6, 117840, Note_on_c, 4, 80, 100
6, 117900, Note_on_c, 4, 80, 0
6, 117960, Note_on_c, 4, 77, 100
6, 118020, Note_on_c, 4, 77, 0
6, 118080, Note_on_c, 4, 79, 100
6, 118200, Note_on_c, 4, 79, 0
6, 119160, Note_on_c, 4, 70, 100
6, 119160, Note_on_c, 4, 79, 100
6, 119190, Note_on_c, 4, 79, 0
6, 119190, Note_on_c, 4, 70, 0
6, 119190, Note_on_c, 4, 70, 100
6, 119190, Note_on_c, 4, 79, 100
6, 119220, Note_on_c, 4, 79, 0
6, 119220, Note_on_c, 4, 70, 0
6, 119220, Note_on_c, 4, 70, 100
6, 119220, Note_on_c, 4, 82, 100
6, 119250, Note_on_c, 4, 82, 0
6, 119250, Note_on_c, 4, 70, 0
6, 119250, Note_on_c, 4, 70, 100
6, 119250, Note_on_c, 4, 82, 100
6, 119280, Note_on_c, 4, 82, 0
6, 119280, Note_on_c, 4, 70, 0
6, 119280, Note_on_c, 4, 70, 100
6, 119280, Note_on_c, 4, 79, 100
6, 119310, Note_on_c, 4, 79, 0
6, 119310, Note_on_c, 4, 70, 0
6, 119310, Note_on_c, 4, 70, 100
6, 119310, Note_on_c, 4, 79, 100
6, 119340, Note_on_c, 4, 79, 0
6, 119340, Note_on_c, 4, 70, 0
6, 119340, Note_on_c, 4, 70, 100
6, 119340, Note_on_c, 4, 82, 100
6, 119370, Note_on_c, 4, 82, 0
6, 119370, Note_on_c, 4, 70, 0
6, 119370, Note_on_c, 4, 70, 100
6, 119370, Note_on_c, 4, 82, 100
6, 119400, Note_on_c, 4, 82, 0
6, 119400, Note_on_c, 4, 70, 0
6, 119400, Note_on_c, 4, 70, 100
6, 119400, Note_on_c, 4, 79, 100
6, 119430, Note_on_c, 4, 79, 0
6, 119430, Note_on_c, 4, 70, 0
6, 119430, Note_on_c, 4, 70, 100
6, 119430, Note_on_c, 4, 79, 100
6, 119460, Note_on_c, 4, 79, 0
6, 119460, Note_on_c, 4, 70, 0
6, 119460, Note_on_c, 4, 70, 100
6, 119460, Note_on_c, 4, 82, 100
6, 119490, Note_on_c, 4, 82, 0
6, 119490, Note_on_c, 4, 70, 0
6, 119490, Note_on_c, 4, 70, 100
6, 119490, Note_on_c, 4, 82, 100
6, 119520, Note_on_c, 4, 82, 0
6, 119520, Note_on_c, 4, 70, 0
6, 119520, Note_on_c, 4, 70, 100
6, 119520, Note_on_c, 4, 79, 100
6, 119640, Note_on_c, 4, 79, 0
6, 119640, Note_on_c, 4, 70, 0
6, 119640, Note_on_c, 4, 55, 100
6, 119640, Note_on_c, 4, 63, 100
6, 119670, Note_on_c, 4, 63, 0
6, 119670, Note_on_c, 4, 55, 0
6, 119670, Note_on_c, 4, 55, 100
6, 119670, Note_on_c, 4, 63, 100
6, 119700, Note_on_c, 4, 63, 0
6, 119700, Note_on_c, 4, 55, 0
6, 119700, Note_on_c, 4, 58, 100
6, 119700, Note_on_c, 4, 67, 100
6, 119730, Note_on_c, 4, 67, 0
6, 119730, Note_on_c, 4, 58, 0
6, 119730, Note_on_c, 4, 58, 100
6, 119730, Note_on_c, 4, 67, 100
6, 119760, Note_on_c, 4, 67, 0
6, 119760, Note_on_c, 4, 58, 0
6, 119760, Note_on_c, 4, 55, 100
6, 119760, Note_on_c, 4, 63, 100
6, 119790, Note_on_c, 4, 63, 0
6, 119790, Note_on_c, 4, 55, 0
6, 119790, Note_on_c, 4, 55, 100
6, 119790, Note_on_c, 4, 63, 100
6, 119820, Note_on_c, 4, 63, 0
6, 119820, Note_on_c, 4, 55, 0
6, 119820, Note_on_c, 4, 58, 100
6, 119820, Note_on_c, 4, 67, 100
6, 119850, Note_on_c, 4, 67, 0
6, 119850, Note_on_c, 4, 58, 0
6, 119850, Note_on_c, 4, 58, 100
6, 119850, Note_on_c, 4, 67, 100
6, 119880, Note_on_c, 4, 67, 0
6, 119880, Note_on_c, 4, 58, 0
6, 119880, Note_on_c, 4, 55, 100
6, 119880, Note_on_c, 4, 63, 100
6, 119910, Note_on_c, 4, 63, 0
6, 119910, Note_on_c, 4, 55, 0
6, 119910, Note_on_c, 4, 55, 100
6, 119910, Note_on_c, 4, 63, 100
6, 119940, Note_on_c, 4, 63, 0
6, 119940, Note_on_c, 4, 55, 0
6, 119940, Note_on_c, 4, 58, 100
6, 119940, Note_on_c, 4, 67, 100
6, 119970, Note_on_c, 4, 67, 0
6, 119970, Note_on_c, 4, 58, 0
6, 119970, Note_on_c, 4, 58, 100
6, 119970, Note_on_c, 4, 67, 100
6, 120000, Note_on_c, 4, 67, 0
6, 120000, Note_on_c, 4, 58, 0
6, 120000, Note_on_c, 4, 55, 100
6, 120000, Note_on_c, 4, 63, 100
6, 120120, Note_on_c, 4, 63, 0
6, 120120, Note_on_c, 4, 55, 0
6, 120240, Note_on_c, 4, 63, 100
6, 120480, Note_on_c, 4, 63, 0
6, 120480, Note_on_c, 4, 62, 100
6, 120720, Note_on_c, 4, 62, 0
6, 120720, Note_on_c, 4, 61, 100
6, 120960, Note_on_c, 4, 61, 0
6, 120960, Note_on_c, 4, 60, 100
6, 121080, Note_on_c, 4, 60, 0
6, 121080, Note_on_c, 4, 64, 100
6, 121200, Note_on_c, 4, 64, 0
6, 121200, Note_on_c, 4, 65, 100
6, 121320, Note_on_c, 4, 65, 0
6, 121320, Note_on_c, 4, 67, 100
6, 121440, Note_on_c, 4, 67, 0
6, 121560, Note_on_c, 4, 65, 100
6, 121680, Note_on_c, 4, 65, 0
6, 121680, Note_on_c, 4, 67, 100
6, 121800, Note_on_c, 4, 67, 0
6, 121800, Note_on_c, 4, 68, 100
6, 121920, Note_on_c, 4, 68, 0
6, 121920, Note_on_c, 4, 70, 100
6, 121980, Note_on_c, 4, 70, 0
6, 121980, Note_on_c, 4, 68, 100
6, 122040, Note_on_c, 4, 68, 0
6, 122040, Note_on_c, 4, 67, 100
6, 122100, Note_on_c, 4, 67, 0
6, 122100, Note_on_c, 4, 65, 100
6, 122160, Note_on_c, 4, 65, 0
6, 122160, Note_on_c, 4, 64, 100
6, 122400, Note_on_c, 4, 64, 0
6, 122400, Note_on_c, 4, 65, 100
6, 122520, Note_on_c, 4, 65, 0
6, 123000, Note_on_c, 4, 65, 100
6, 123120, Note_on_c, 4, 65, 0
6, 123120, Note_on_c, 4, 67, 100
6, 123240, Note_on_c, 4, 67, 0
6, 123240, Note_on_c, 4, 68, 100
6, 123360, Note_on_c, 4, 68, 0
6, 123480, Note_on_c, 4, 67, 100
6, 123600, Note_on_c, 4, 67, 0
6, 123600, Note_on_c, 4, 68, 100
6, 123720, Note_on_c, 4, 68, 0
6, 123720, Note_on_c, 4, 70, 100
6, 123840, Note_on_c, 4, 70, 0
6, 124380, Note_on_c, 4, 67, 100
6, 124440, Note_on_c, 4, 67, 0
6, 124440, Note_on_c, 4, 67, 100
6, 124500, Note_on_c, 4, 67, 0
6, 124500, Note_on_c, 4, 67, 100
6, 124560, Note_on_c, 4, 67, 0
6, 124560, Note_on_c, 4, 70, 100
6, 124620, Note_on_c, 4, 70, 0
6, 124620, Note_on_c, 4, 70, 100
6, 124680, Note_on_c, 4, 70, 0
6, 124680, Note_on_c, 4, 70, 100
6, 124740, Note_on_c, 4, 70, 0
6, 124740, Note_on_c, 4, 70, 100
6, 124800, Note_on_c, 4, 70, 0
6, 124800, Note_on_c, 4, 72, 100
6, 124920, Note_on_c, 4, 72, 0
6, 125040, Note_on_c, 4, 72, 100
6, 125160, Note_on_c, 4, 72, 0
6, 125280, Note_on_c, 4, 75, 100
6, 125760, Note_on_c, 4, 75, 0
6, 125880, Note_on_c, 4, 67, 100
6, 126000, Note_on_c, 4, 67, 0
6, 126000, Note_on_c, 4, 67, 100
6, 126120, Note_on_c, 4, 67, 0
6, 126120, Note_on_c, 4, 67, 100
6, 126240, Note_on_c, 4, 67, 0
6, 126240, Note_on_c, 4, 65, 100
6, 126360, Note_on_c, 4, 65, 0
6, 126360, Note_on_c, 4, 58, 100
6, 126420, Note_on_c, 4, 58, 0
6, 126420, Note_on_c, 4, 58, 100
6, 126480, Note_on_c, 4, 58, 0
6, 126480, Note_on_c, 4, 58, 100
6, 126540, Note_on_c, 4, 58, 0
6, 126540, Note_on_c, 4, 58, 100
6, 126600, Note_on_c, 4, 58, 0
6, 126600, Note_on_c, 4, 58, 100
6, 126660, Note_on_c, 4, 58, 0
6, 126660, Note_on_c, 4, 58, 100
6, 126720, Note_on_c, 4, 58, 0
6, 126720, Note_on_c, 4, 58, 100
6, 126840, Note_on_c, 4, 58, 0
6, 127200, Note_on_c, 4, 72, 100
6, 127320, Note_on_c, 4, 72, 0
6, 127320, Note_on_c, 4, 70, 100
6, 127440, Note_on_c, 4, 70, 0
6, 127440, Note_on_c, 4, 68, 100
6, 127560, Note_on_c, 4, 68, 0
6, 127560, Note_on_c, 4, 67, 100
6, 127680, Note_on_c, 4, 67, 0
6, 127680, Note_on_c, 4, 68, 100
6, 128160, Note_on_c, 4, 68, 0
6, 128160, Note_on_c, 4, 70, 100
6, 128280, Note_on_c, 4, 70, 0
6, 128280, Note_on_c, 4, 68, 100
6, 128400, Note_on_c, 4, 68, 0
6, 128400, Note_on_c, 4, 67, 100
6, 128520, Note_on_c, 4, 67, 0
6, 128520, Note_on_c, 4, 66, 100
6, 128640, Note_on_c, 4, 66, 0
6, 128640, Note_on_c, 4, 67, 100
6, 129120, Note_on_c, 4, 67, 0
6, 129120, Note_on_c, 4, 68, 100
6, 129240, Note_on_c, 4, 68, 0
6, 129240, Note_on_c, 4, 67, 100
6, 129360, Note_on_c, 4, 67, 0
6, 129360, Note_on_c, 4, 65, 100
6, 129480, Note_on_c, 4, 65, 0
6, 129480, Note_on_c, 4, 63, 100
6, 129600, Note_on_c, 4, 63, 0
6, 129600, Note_on_c, 4, 65, 100
6, 130080, Note_on_c, 4, 65, 0
6, 130080, Note_on_c, 4, 67, 100
6, 130200, Note_on_c, 4, 67, 0
6, 130200, Note_on_c, 4, 55, 100
6, 130200, Note_on_c, 4, 63, 100
6, 130260, Note_on_c, 4, 63, 0
6, 130260, Note_on_c, 4, 55, 0
6, 130260, Note_on_c, 4, 63, 100
6, 130260, Note_on_c, 4, 55, 100
6, 130320, Note_on_c, 4, 55, 0
6, 130320, Note_on_c, 4, 63, 0
6, 130320, Note_on_c, 4, 63, 100
6, 130320, Note_on_c, 4, 55, 100
6, 130380, Note_on_c, 4, 55, 0
6, 130380, Note_on_c, 4, 63, 0
6, 130380, Note_on_c, 4, 63, 100
6, 130380, Note_on_c, 4, 55, 100
6, 130440, Note_on_c, 4, 55, 0
6, 130440, Note_on_c, 4, 63, 0
6, 130440, Note_on_c, 4, 63, 100
6, 130440, Note_on_c, 4, 55, 100
6, 130500, Note_on_c, 4, 55, 0
6, 130500, Note_on_c, 4, 63, 0
6, 130500, Note_on_c, 4, 63, 100
6, 130500, Note_on_c, 4, 55, 100
6, 130560, Note_on_c, 4, 55, 0
6, 130560, Note_on_c, 4, 63, 0
6, 130560, Note_on_c, 4, 55, 100
6, 130560, Note_on_c, 4, 63, 100
6, 130680, Note_on_c, 4, 63, 0
6, 130680, Note_on_c, 4, 55, 0
6, 131520, Note_on_c, 4, 70, 100
6, 131640, Note_on_c, 4, 70, 0
6, 131640, Note_on_c, 4, 68, 100
6, 131760, Note_on_c, 4, 68, 0
6, 131760, Note_on_c, 4, 67, 100
6, 131880, Note_on_c, 4, 67, 0
6, 131880, Note_on_c, 4, 65, 100
6, 132000, Note_on_c, 4, 65, 0
6, 132000, Note_on_c, 4, 63, 100
6, 132480, Note_on_c, 4, 63, 0
6, 132480, Note_on_c, 4, 68, 100
6, 132600, Note_on_c, 4, 68, 0
6, 132600, Note_on_c, 4, 67, 100
6, 132720, Note_on_c, 4, 67, 0
6, 132720, Note_on_c, 4, 65, 100
6, 132840, Note_on_c, 4, 65, 0
6, 132840, Note_on_c, 4, 63, 100
6, 132960, Note_on_c, 4, 63, 0
6, 132960, Note_on_c, 4, 61, 100
6, 133440, Note_on_c, 4, 61, 0
6, 133440, Note_on_c, 4, 67, 100
6, 133560, Note_on_c, 4, 67, 0
6, 133560, Note_on_c, 4, 65, 100
6, 133680, Note_on_c, 4, 65, 0
6, 133680, Note_on_c, 4, 63, 100
6, 133800, Note_on_c, 4, 63, 0
6, 133800, Note_on_c, 4, 61, 100
6, 133920, Note_on_c, 4, 61, 0
6, 133920, Note_on_c, 4, 60, 100
6, 134040, Note_on_c, 4, 60, 0
6, 134100, Note_on_c, 4, 60, 100
6, 134160, Note_on_c, 4, 60, 0
6, 134160, Note_on_c, 4, 62, 100
6, 134280, Note_on_c, 4, 62, 0
6, 134340, Note_on_c, 4, 62, 100
6, 134400, Note_on_c, 4, 62, 0
6, 134400, Note_on_c, 4, 63, 100
6, 134520, Note_on_c, 4, 63, 0
6, 134580, Note_on_c, 4, 63, 100
6, 134640, Note_on_c, 4, 63, 0
6, 134640, Note_on_c, 4, 65, 100
6, 134760, Note_on_c, 4, 65, 0
6, 134820, Note_on_c, 4, 65, 100
6, 134880, Note_on_c, 4, 65, 0
6, 134880, Note_on_c, 4, 63, 100
6, 134940, Note_on_c, 4, 63, 0
6, 134940, Note_on_c, 4, 67, 100
6, 135000, Note_on_c, 4, 67, 0
6, 135060, Note_on_c, 4, 70, 100
6, 135120, Note_on_c, 4, 70, 0
6, 135180, Note_on_c, 4, 72, 100
6, 135240, Note_on_c, 4, 72, 0
6, 135300, Note_on_c, 4, 68, 100
6, 135360, Note_on_c, 4, 68, 0
6, 135360, Note_on_c, 4, 67, 100
6, 135420, Note_on_c, 4, 67, 0
6, 135420, Note_on_c, 4, 67, 100
6, 135480, Note_on_c, 4, 67, 0
6, 135480, Note_on_c, 4, 67, 100
6, 135540, Note_on_c, 4, 67, 0
6, 135540, Note_on_c, 4, 67, 100
6, 135600, Note_on_c, 4, 67, 0
6, 135600, Note_on_c, 4, 65, 100
6, 135660, Note_on_c, 4, 65, 0
6, 135660, Note_on_c, 4, 65, 100
6, 135720, Note_on_c, 4, 65, 0
6, 135720, Note_on_c, 4, 65, 100
6, 135780, Note_on_c, 4, 65, 0
6, 135780, Note_on_c, 4, 65, 100
6, 135840, Note_on_c, 4, 65, 0
6, 135840, Note_on_c, 4, 63, 100
6, 135960, Note_on_c, 4, 63, 0
6, 136380, Note_on_c, 4, 58, 100
6, 136440, Note_on_c, 4, 58, 0
6, 136440, Note_on_c, 4, 58, 100
6, 136500, Note_on_c, 4, 58, 0
6, 136500, Note_on_c, 4, 58, 100
6, 136560, Note_on_c, 4, 58, 0
6, 136620, Note_on_c, 4, 58, 100
6, 136680, Note_on_c, 4, 58, 0
6, 136680, Note_on_c, 4, 58, 100
6, 136740, Note_on_c, 4, 58, 0
6, 136740, Note_on_c, 4, 58, 100
6, 136800, Note_on_c, 4, 58, 0
6, 136860, Note_on_c, 4, 58, 100
6, 136920, Note_on_c, 4, 58, 0
6, 136920, Note_on_c, 4, 58, 100
6, 136980, Note_on_c, 4, 58, 0
6, 136980, Note_on_c, 4, 58, 100
6, 137040, Note_on_c, 4, 58, 0
6, 137100, Note_on_c, 4, 58, 100
6, 137160, Note_on_c, 4, 58, 0
6, 137160, Note_on_c, 4, 58, 100
6, 137220, Note_on_c, 4, 58, 0
6, 137220, Note_on_c, 4, 58, 100
6, 137280, Note_on_c, 4, 58, 0
6, 137280, Note_on_c, 4, 58, 100
6, 137700, Note_on_c, 4, 58, 0
6, 137700, Note_on_c, 4, 65, 100
6, 137760, Note_on_c, 4, 65, 0
6, 137760, Note_on_c, 4, 63, 100
6, 138000, Note_on_c, 4, 63, 0
6, 138000, Note_on_c, 4, 62, 100
6, 138120, Note_on_c, 4, 62, 0
6, 138300, Note_on_c, 4, 70, 100
6, 138360, Note_on_c, 4, 70, 0
6, 138360, Note_on_c, 4, 70, 100
6, 138420, Note_on_c, 4, 70, 0
6, 138420, Note_on_c, 4, 70, 100
6, 138480, Note_on_c, 4, 70, 0
6, 138540, Note_on_c, 4, 70, 100
6, 138600, Note_on_c, 4, 70, 0
6, 138600, Note_on_c, 4, 70, 100
6, 138660, Note_on_c, 4, 70, 0
6, 138660, Note_on_c, 4, 70, 100
6, 138720, Note_on_c, 4, 70, 0
6, 138780, Note_on_c, 4, 70, 100
6, 138840, Note_on_c, 4, 70, 0
6, 138840, Note_on_c, 4, 70, 100
6, 138900, Note_on_c, 4, 70, 0
6, 138900, Note_on_c, 4, 70, 100
6, 138960, Note_on_c, 4, 70, 0
6, 139020, Note_on_c, 4, 70, 100
6, 139080, Note_on_c, 4, 70, 0
6, 139080, Note_on_c, 4, 70, 100
6, 139140, Note_on_c, 4, 70, 0
6, 139140, Note_on_c, 4, 70, 100
6, 139200, Note_on_c, 4, 70, 0
6, 139200, Note_on_c, 4, 70, 100
6, 139260, Note_on_c, 4, 70, 0
6, 139260, Note_on_c, 4, 75, 100
6, 139320, Note_on_c, 4, 75, 0
6, 139320, Note_on_c, 4, 74, 100
6, 139380, Note_on_c, 4, 74, 0
6, 139380, Note_on_c, 4, 72, 100
6, 139440, Note_on_c, 4, 72, 0
6, 139440, Note_on_c, 4, 72, 100
6, 139500, Note_on_c, 4, 72, 0
6, 139500, Note_on_c, 4, 70, 100
6, 139560, Note_on_c, 4, 70, 0
6, 139560, Note_on_c, 4, 70, 100
6, 139620, Note_on_c, 4, 70, 0
6, 139620, Note_on_c, 4, 69, 100
6, 139680, Note_on_c, 4, 69, 0
6, 139680, Note_on_c, 4, 70, 100
6, 139800, Note_on_c, 4, 70, 0
6, 140160, Program_c, 4, 45
6, 140400, Note_on_c, 4, 82, 100
6, 140460, Note_on_c, 4, 82, 0
6, 140520, Note_on_c, 4, 79, 100
6, 140580, Note_on_c, 4, 79, 0
6, 140640, Note_on_c, 4, 75, 100
6, 140700, Note_on_c, 4, 75, 0
6, 140760, Note_on_c, 4, 70, 100
6, 140820, Note_on_c, 4, 70, 0
6, 140880, Note_on_c, 4, 67, 100
6, 140940, Note_on_c, 4, 67, 0
6, 141000, Note_on_c, 4, 63, 100
6, 141060, Note_on_c, 4, 63, 0
6, 141240, Note_on_c, 4, 82, 100
6, 141360, Note_on_c, 4, 82, 0
6, 141480, Note_on_c, 4, 82, 100
6, 141600, Note_on_c, 4, 82, 0
6, 141720, Note_on_c, 4, 82, 100
6, 141840, Note_on_c, 4, 82, 0
6, 141960, Note_on_c, 4, 82, 100
6, 142080, Note_on_c, 4, 82, 0
6, 142080, Note_on_c, 4, 58, 100
6, 142080, Note_on_c, 4, 67, 100
6, 142200, Note_on_c, 4, 67, 0
6, 142200, Note_on_c, 4, 58, 0
6, 142320, Note_on_c, 4, 82, 100
6, 142380, Note_on_c, 4, 82, 0
6, 142440, Note_on_c, 4, 79, 100
6, 142500, Note_on_c, 4, 79, 0
6, 142560, Note_on_c, 4, 75, 100
6, 142620, Note_on_c, 4, 75, 0
6, 142680, Note_on_c, 4, 70, 100
6, 142740, Note_on_c, 4, 70, 0
6, 142800, Note_on_c, 4, 67, 100
6, 142860, Note_on_c, 4, 67, 0
6, 142920, Note_on_c, 4, 63, 100
6, 142980, Note_on_c, 4, 63, 0
6, 143160, Note_on_c, 4, 70, 100
6, 143280, Note_on_c, 4, 70, 0
6, 143400, Note_on_c, 4, 70, 100
6, 143520, Note_on_c, 4, 70, 0
6, 143640, Note_on_c, 4, 70, 100
6, 143760, Note_on_c, 4, 70, 0
6, 143880, Note_on_c, 4, 70, 100
6, 144000, Note_on_c, 4, 70, 0
6, 144000, Program_c, 4, 40
6, 144060, Note_on_c, 4, 70, 100
6, 144120, Note_on_c, 4, 70, 0
6, 144120, Note_on_c, 4, 68, 100
6, 144180, Note_on_c, 4, 68, 0
6, 144180, Note_on_c, 4, 67, 100
6, 144240, Note_on_c, 4, 67, 0
6, 144240, Note_on_c, 4, 65, 100
6, 144300, Note_on_c, 4, 65, 0
6, 144540, Note_on_c, 4, 70, 100
6, 144600, Note_on_c, 4, 70, 0
6, 144600, Note_on_c, 4, 68, 100
6, 144660, Note_on_c, 4, 68, 0
6, 144660, Note_on_c, 4, 67, 100
6, 144720, Note_on_c, 4, 67, 0
6, 144720, Note_on_c, 4, 65, 100
6, 144780, Note_on_c, 4, 65, 0
6, 145020, Note_on_c, 4, 58, 100
6, 145140, Note_on_c, 4, 58, 0
6, 145140, Note_on_c, 4, 60, 100
6, 145200, Note_on_c, 4, 60, 0
6, 145200, Note_on_c, 4, 61, 100
6, 145440, Note_on_c, 4, 61, 0
6, 145440, Note_on_c, 4, 60, 100
6, 145560, Note_on_c, 4, 60, 0
6, 145800, Note_on_c, 4, 68, 100
6, 145890, Note_on_c, 4, 68, 0
6, 145890, Note_on_c, 4, 65, 100
6, 145920, Note_on_c, 4, 65, 0
6, 145920, Note_on_c, 4, 70, 100
6, 145980, Note_on_c, 4, 70, 0
6, 146040, Note_on_c, 4, 68, 100
6, 146100, Note_on_c, 4, 68, 0
6, 146160, Note_on_c, 4, 67, 100
6, 146220, Note_on_c, 4, 67, 0
6, 146280, Note_on_c, 4, 65, 100
6, 146340, Note_on_c, 4, 65, 0
6, 146400, Note_on_c, 4, 63, 100
6, 146460, Note_on_c, 4, 63, 0
6, 146460, Note_on_c, 4, 70, 100
6, 146520, Note_on_c, 4, 70, 0
6, 146520, Note_on_c, 4, 68, 100
6, 146580, Note_on_c, 4, 68, 0
6, 146580, Note_on_c, 4, 67, 100
6, 146640, Note_on_c, 4, 67, 0
6, 146640, Note_on_c, 4, 65, 100
6, 146700, Note_on_c, 4, 65, 0
6, 146940, Note_on_c, 4, 70, 100
6, 147000, Note_on_c, 4, 70, 0
6, 147000, Note_on_c, 4, 68, 100
6, 147060, Note_on_c, 4, 68, 0
6, 147060, Note_on_c, 4, 67, 100
6, 147120, Note_on_c, 4, 67, 0
6, 147120, Note_on_c, 4, 65, 100
6, 147180, Note_on_c, 4, 65, 0
6, 147960, Note_on_c, 4, 70, 100
6, 148020, Note_on_c, 4, 70, 0
6, 148020, Note_on_c, 4, 72, 100
6, 148080, Note_on_c, 4, 72, 0
6, 148080, Note_on_c, 4, 73, 100
6, 148320, Note_on_c, 4, 73, 0
6, 148320, Note_on_c, 4, 72, 100
6, 148380, Note_on_c, 4, 72, 0
6, 148440, Note_on_c, 4, 72, 100
6, 148500, Note_on_c, 4, 72, 0
6, 148560, Note_on_c, 4, 72, 100
6, 148620, Note_on_c, 4, 72, 0
6, 148680, Note_on_c, 4, 72, 100
6, 148740, Note_on_c, 4, 72, 0
6, 148800, Note_on_c, 4, 72, 100
6, 148920, Note_on_c, 4, 72, 0
6, 149340, Note_on_c, 4, 58, 100
6, 149400, Note_on_c, 4, 58, 0
6, 149400, Note_on_c, 4, 63, 100
6, 149460, Note_on_c, 4, 63, 0
6, 149460, Note_on_c, 4, 67, 100
6, 149520, Note_on_c, 4, 67, 0
6, 149520, Note_on_c, 4, 70, 100
6, 149580, Note_on_c, 4, 70, 0
6, 149580, Note_on_c, 4, 70, 100
6, 149640, Note_on_c, 4, 70, 0
6, 149640, Note_on_c, 4, 70, 100
6, 149700, Note_on_c, 4, 70, 0
6, 149700, Note_on_c, 4, 70, 100
6, 149760, Note_on_c, 4, 70, 0
6, 149760, Note_on_c, 4, 70, 100
6, 150120, Note_on_c, 4, 70, 0
6, 150120, Note_on_c, 4, 68, 100
6, 150240, Note_on_c, 4, 68, 0
6, 150240, Note_on_c, 4, 67, 100
6, 150360, Note_on_c, 4, 67, 0
6, 152700, Note_on_c, 4, 67, 100
6, 152760, Note_on_c, 4, 67, 0
6, 152760, Note_on_c, 4, 67, 100
6, 152820, Note_on_c, 4, 67, 0
6, 152820, Note_on_c, 4, 67, 100
6, 152880, Note_on_c, 4, 67, 0
6, 152940, Note_on_c, 4, 68, 100
6, 153000, Note_on_c, 4, 68, 0
6, 153000, Note_on_c, 4, 68, 100
6, 153060, Note_on_c, 4, 68, 0
6, 153060, Note_on_c, 4, 68, 100
6, 153120, Note_on_c, 4, 68, 0
6, 153180, Note_on_c, 4, 70, 100
6, 153240, Note_on_c, 4, 70, 0
6, 153240, Note_on_c, 4, 70, 100
6, 153300, Note_on_c, 4, 70, 0
6, 153300, Note_on_c, 4, 70, 100
6, 153360, Note_on_c, 4, 70, 0
6, 153360, Note_on_c, 4, 72, 100
6, 153420, Note_on_c, 4, 72, 0
6, 153420, Note_on_c, 4, 72, 100
6, 153480, Note_on_c, 4, 72, 0
6, 153480, Note_on_c, 4, 74, 100
6, 153540, Note_on_c, 4, 74, 0
6, 153540, Note_on_c, 4, 74, 100
6, 153600, Note_on_c, 4, 74, 0
6, 153600, Note_on_c, 4, 75, 100
6, 154620, Note_on_c, 4, 75, 0
6, 154620, Note_on_c, 4, 63, 100
6, 154680, Note_on_c, 4, 63, 0
6, 154680, Note_on_c, 4, 66, 100
6, 154740, Note_on_c, 4, 66, 0
6, 154740, Note_on_c, 4, 63, 100
6, 154800, Note_on_c, 4, 63, 0
6, 154800, Note_on_c, 4, 59, 100
6, 154860, Note_on_c, 4, 59, 0
6, 154860, Note_on_c, 4, 63, 100
6, 154920, Note_on_c, 4, 63, 0
6, 154920, Note_on_c, 4, 66, 100
6, 154980, Note_on_c, 4, 66, 0
6, 154980, Note_on_c, 4, 63, 100
6, 155040, Note_on_c, 4, 63, 0
6, 155040, Note_on_c, 4, 58, 100
6, 155100, Note_on_c, 4, 58, 0
6, 155100, Note_on_c, 4, 63, 100
6, 155160, Note_on_c, 4, 63, 0
6, 155160, Note_on_c, 4, 66, 100
6, 155220, Note_on_c, 4, 66, 0
6, 155220, Note_on_c, 4, 63, 100
6, 155280, Note_on_c, 4, 63, 0
6, 155280, Note_on_c, 4, 57, 100
6, 155340, Note_on_c, 4, 57, 0
6, 155340, Note_on_c, 4, 63, 100
6, 155400, Note_on_c, 4, 63, 0
6, 155400, Note_on_c, 4, 66, 100
6, 155460, Note_on_c, 4, 66, 0
6, 155460, Note_on_c, 4, 63, 100
6, 155520, Note_on_c, 4, 63, 0
6, 155520, Note_on_c, 4, 58, 100
6, 155640, Note_on_c, 4, 58, 0
6, 156060, Note_on_c, 4, 67, 100
6, 156120, Note_on_c, 4, 67, 0
6, 156120, Note_on_c, 4, 67, 100
6, 156180, Note_on_c, 4, 67, 0
6, 156180, Note_on_c, 4, 67, 100
6, 156240, Note_on_c, 4, 67, 0
6, 156240, Note_on_c, 4, 67, 100
6, 156300, Note_on_c, 4, 67, 0
6, 156300, Note_on_c, 4, 67, 100
6, 156360, Note_on_c, 4, 67, 0
6, 156360, Note_on_c, 4, 67, 100
6, 156420, Note_on_c, 4, 67, 0
6, 156420, Note_on_c, 4, 67, 100
6, 156480, Note_on_c, 4, 67, 0
6, 156480, Note_on_c, 4, 68, 100
6, 156510, Note_on_c, 4, 68, 0
6, 156510, Note_on_c, 4, 68, 100
6, 156540, Note_on_c, 4, 68, 0
6, 156540, Note_on_c, 4, 68, 100
6, 156570, Note_on_c, 4, 68, 0
6, 156570, Note_on_c, 4, 68, 100
6, 156600, Note_on_c, 4, 68, 0
6, 156600, Note_on_c, 4, 68, 100
6, 156630, Note_on_c, 4, 68, 0
6, 156630, Note_on_c, 4, 68, 100
6, 156660, Note_on_c, 4, 68, 0
6, 156660, Note_on_c, 4, 68, 100
6, 156690, Note_on_c, 4, 68, 0
6, 156690, Note_on_c, 4, 68, 100
6, 156720, Note_on_c, 4, 68, 0
6, 156720, Note_on_c, 4, 62, 100
6, 156750, Note_on_c, 4, 62, 0
6, 156750, Note_on_c, 4, 62, 100
6, 156780, Note_on_c, 4, 62, 0
6, 156780, Note_on_c, 4, 62, 100
6, 156810, Note_on_c, 4, 62, 0
6, 156810, Note_on_c, 4, 62, 100
6, 156840, Note_on_c, 4, 62, 0
6, 156840, Note_on_c, 4, 62, 100
6, 156870, Note_on_c, 4, 62, 0
6, 156870, Note_on_c, 4, 62, 100
6, 156900, Note_on_c, 4, 62, 0
6, 156900, Note_on_c, 4, 62, 100
6, 156930, Note_on_c, 4, 62, 0
6, 156930, Note_on_c, 4, 62, 100
6, 156960, Note_on_c, 4, 62, 0
6, 156960, Note_on_c, 4, 63, 100
6, 157080, Note_on_c, 4, 63, 0
6, 157080, Note_on_c, 4, 55, 100
6, 157080, Note_on_c, 4, 63, 100
6, 157080, Note_on_c, 4, 75, 100
6, 157200, Note_on_c, 4, 75, 0
6, 157200, Note_on_c, 4, 63, 0
6, 157200, Note_on_c, 4, 55, 0
6, 157320, Note_on_c, 4, 55, 100
6, 157320, Note_on_c, 4, 63, 100
6, 157320, Note_on_c, 4, 75, 100
6, 157440, Note_on_c, 4, 75, 0
6, 157440, Note_on_c, 4, 63, 0
6, 157440, Note_on_c, 4, 55, 0
6, 157560, Note_on_c, 4, 67, 100
6, 157650, Note_on_c, 4, 67, 0
6, 157650, Note_on_c, 4, 70, 100
6, 157680, Note_on_c, 4, 70, 0
6, 157680, Note_on_c, 4, 75, 100
6, 157740, Note_on_c, 4, 75, 0
6, 157740, Note_on_c, 4, 75, 100
6, 157800, Note_on_c, 4, 75, 0
6, 157800, Note_on_c, 4, 75, 100
6, 157860, Note_on_c, 4, 75, 0
6, 157860, Note_on_c, 4, 75, 100
6, 157920, Note_on_c, 4, 75, 0
6, 157920, Note_on_c, 4, 75, 100
6, 157980, Note_on_c, 4, 75, 0
6, 157980, Note_on_c, 4, 74, 100
6, 158040, Note_on_c, 4, 74, 0
6, 158040, Note_on_c, 4, 74, 100
6, 158160, Note_on_c, 4, 74, 0
6, 158280, Note_on_c, 4, 68, 100
6, 158280, Note_on_c, 4, 77, 100
6, 158400, Note_on_c, 4, 77, 0
6, 158400, Note_on_c, 4, 68, 0
6, 158520, Note_on_c, 4, 68, 100
6, 158610, Note_on_c, 4, 68, 0
6, 158610, Note_on_c, 4, 74, 100
6, 158640, Note_on_c, 4, 74, 0
6, 158640, Note_on_c, 4, 77, 100
6, 158700, Note_on_c, 4, 77, 0
6, 158700, Note_on_c, 4, 77, 100
6, 158760, Note_on_c, 4, 77, 0
6, 158760, Note_on_c, 4, 77, 100
6, 158820, Note_on_c, 4, 77, 0
6, 158820, Note_on_c, 4, 77, 100
6, 158880, Note_on_c, 4, 77, 0
6, 158880, Note_on_c, 4, 77, 100
6, 158940, Note_on_c, 4, 77, 0
6, 158940, Note_on_c, 4, 75, 100
6, 159000, Note_on_c, 4, 75, 0
6, 159000, Note_on_c, 4, 75, 100
6, 159120, Note_on_c, 4, 75, 0
6, 159240, Note_on_c, 4, 63, 100
6, 159240, Note_on_c, 4, 70, 100
6, 159240, Note_on_c, 4, 79, 100
6, 159360, Note_on_c, 4, 79, 0
6, 159360, Note_on_c, 4, 70, 0
6, 159360, Note_on_c, 4, 63, 0
6, 159480, Note_on_c, 4, 70, 100
6, 159570, Note_on_c, 4, 70, 0
6, 159570, Note_on_c, 4, 75, 100
6, 159600, Note_on_c, 4, 75, 0
6, 159600, Note_on_c, 4, 79, 100
6, 159660, Note_on_c, 4, 79, 0
6, 159660, Note_on_c, 4, 79, 100
6, 159720, Note_on_c, 4, 79, 0
6, 159720, Note_on_c, 4, 79, 100
6, 159780, Note_on_c, 4, 79, 0
6, 159780, Note_on_c, 4, 79, 100
6, 159840, Note_on_c, 4, 79, 0
6, 159840, Note_on_c, 4, 65, 100
6, 159900, Note_on_c, 4, 65, 0
6, 159900, Note_on_c, 4, 67, 100
6, 159930, Note_on_c, 4, 67, 0
6, 159930, Note_on_c, 4, 68, 100
6, 159960, Note_on_c, 4, 68, 0
6, 159960, Note_on_c, 4, 70, 100
6, 159990, Note_on_c, 4, 70, 0
6, 159990, Note_on_c, 4, 72, 100
6, 160020, Note_on_c, 4, 72, 0
6, 160020, Note_on_c, 4, 74, 100
6, 160050, Note_on_c, 4, 74, 0
6, 160050, Note_on_c, 4, 76, 100
6, 160080, Note_on_c, 4, 76, 0
6, 160080, Note_on_c, 4, 77, 100
6, 160110, Note_on_c, 4, 77, 0
6, 160110, Note_on_c, 4, 72, 100
6, 160140, Note_on_c, 4, 72, 0
6, 160140, Note_on_c, 4, 74, 100
6, 160170, Note_on_c, 4, 74, 0
6, 160170, Note_on_c, 4, 76, 100
6, 160200, Note_on_c, 4, 76, 0
6, 160200, Note_on_c, 4, 77, 100
6, 160230, Note_on_c, 4, 77, 0
6, 160230, Note_on_c, 4, 76, 100
6, 160260, Note_on_c, 4, 76, 0
6, 160260, Note_on_c, 4, 77, 100
6, 160290, Note_on_c, 4, 77, 0
6, 160290, Note_on_c, 4, 79, 100
6, 160320, Note_on_c, 4, 79, 0
6, 160320, Note_on_c, 4, 80, 100
6, 160350, Note_on_c, 4, 80, 0
6, 160350, Note_on_c, 4, 76, 100
6, 160380, Note_on_c, 4, 76, 0
6, 160380, Note_on_c, 4, 77, 100
6, 160410, Note_on_c, 4, 77, 0
6, 160410, Note_on_c, 4, 79, 100
6, 160440, Note_on_c, 4, 79, 0
6, 160440, Note_on_c, 4, 80, 100
6, 160470, Note_on_c, 4, 80, 0
6, 160470, Note_on_c, 4, 79, 100
6, 160500, Note_on_c, 4, 79, 0
6, 160500, Note_on_c, 4, 80, 100
6, 160530, Note_on_c, 4, 80, 0
6, 160530, Note_on_c, 4, 82, 100
6, 160560, Note_on_c, 4, 82, 0
6, 160560, Note_on_c, 4, 84, 100
6, 160590, Note_on_c, 4, 84, 0
6, 160590, Note_on_c, 4, 79, 100
6, 160620, Note_on_c, 4, 79, 0
6, 160620, Note_on_c, 4, 80, 100
6, 160650, Note_on_c, 4, 80, 0
6, 160650, Note_on_c, 4, 82, 100
6, 160680, Note_on_c, 4, 82, 0
6, 160680, Note_on_c, 4, 84, 100
6, 160710, Note_on_c, 4, 84, 0
6, 160710, Note_on_c, 4, 83, 100
6, 160740, Note_on_c, 4, 83, 0
6, 160740, Note_on_c, 4, 84, 100
6, 160770, Note_on_c, 4, 84, 0
6, 160770, Note_on_c, 4, 86, 100
6, 160800, Note_on_c, 4, 86, 0
6, 160800, Note_on_c, 4, 87, 100
6, 160890, Note_on_c, 4, 87, 0
6, 160890, Note_on_c, 4, 84, 100
6, 160920, Note_on_c, 4, 84, 0
6, 160920, Note_on_c, 4, 84, 100
6, 161010, Note_on_c, 4, 84, 0
6, 161010, Note_on_c, 4, 81, 100
6, 161040, Note_on_c, 4, 81, 0
6, 161040, Note_on_c, 4, 81, 100
6, 161130, Note_on_c, 4, 81, 0
6, 161130, Note_on_c, 4, 78, 100
6, 161160, Note_on_c, 4, 78, 0
6, 161160, Note_on_c, 4, 78, 100
6, 161250, Note_on_c, 4, 78, 0
6, 161250, Note_on_c, 4, 75, 100
6, 161280, Note_on_c, 4, 75, 0
6, 161280, Note_on_c, 4, 75, 100
6, 161370, Note_on_c, 4, 75, 0
6, 161370, Note_on_c, 4, 72, 100
6, 161400, Note_on_c, 4, 72, 0
6, 161400, Note_on_c, 4, 72, 100
6, 161490, Note_on_c, 4, 72, 0
6, 161490, Note_on_c, 4, 69, 100
6, 161520, Note_on_c, 4, 69, 0
6, 161520, Note_on_c, 4, 69, 100
6, 161610, Note_on_c, 4, 69, 0
6, 161610, Note_on_c, 4, 84, 100
6, 161640, Note_on_c, 4, 84, 0
6, 161640, Note_on_c, 4, 84, 100
6, 161730, Note_on_c, 4, 84, 0
6, 161730, Note_on_c, 4, 84, 100
6, 161760, Note_on_c, 4, 84, 0
6, 161760, Note_on_c, 4, 58, 100
6, 162000, Note_on_c, 4, 58, 0
6, 174240, Note_on_c, 4, 79, 100
6, 174240, Note_on_c, 4, 87, 100
6, 174300, Note_on_c, 4, 87, 0
6, 174300, Note_on_c, 4, 79, 0
6, 174300, Note_on_c, 4, 79, 100
6, 174300, Note_on_c, 4, 87, 100
6, 174420, Note_on_c, 4, 87, 0
6, 174420, Note_on_c, 4, 79, 0
6, 174420, Note_on_c, 4, 79, 100
6, 174420, Note_on_c, 4, 87, 100
6, 174540, Note_on_c, 4, 87, 0
6, 174540, Note_on_c, 4, 79, 0
6, 174540, Note_on_c, 4, 79, 100
6, 174540, Note_on_c, 4, 87, 100
6, 174660, Note_on_c, 4, 87, 0
6, 174660, Note_on_c, 4, 79, 0
6, 174660, Note_on_c, 4, 79, 100
6, 174660, Note_on_c, 4, 87, 100
6, 174780, Note_on_c, 4, 87, 0
6, 174780, Note_on_c, 4, 79, 0
6, 174780, Note_on_c, 4, 79, 100
6, 174780, Note_on_c, 4, 87, 100
6, 174900, Note_on_c, 4, 87, 0
6, 174900, Note_on_c, 4, 79, 0
6, 174900, Note_on_c, 4, 79, 100
6, 174900, Note_on_c, 4, 87, 100
6, 175020, Note_on_c, 4, 87, 0
6, 175020, Note_on_c, 4, 79, 0
6, 175020, Note_on_c, 4, 79, 100
6, 175020, Note_on_c, 4, 87, 100
6, 175140, Note_on_c, 4, 87, 0
6, 175140, Note_on_c, 4, 79, 0
6, 175140, Note_on_c, 4, 79, 100
6, 175140, Note_on_c, 4, 87, 100
6, 175260, Note_on_c, 4, 87, 0
6, 175260, Note_on_c, 4, 79, 0
6, 175260, Note_on_c, 4, 79, 100
6, 175260, Note_on_c, 4, 87, 100
6, 175380, Note_on_c, 4, 87, 0
6, 175380, Note_on_c, 4, 79, 0
6, 175380, Note_on_c, 4, 79, 100
6, 175380, Note_on_c, 4, 87, 100
6, 175500, Note_on_c, 4, 87, 0
6, 175500, Note_on_c, 4, 79, 0
6, 175500, Note_on_c, 4, 79, 100
6, 175500, Note_on_c, 4, 87, 100
6, 175620, Note_on_c, 4, 87, 0
6, 175620, Note_on_c, 4, 79, 0
6, 175620, Note_on_c, 4, 79, 100
6, 175620, Note_on_c, 4, 87, 100
6, 175740, Note_on_c, 4, 87, 0
6, 175740, Note_on_c, 4, 79, 0
6, 175740, Note_on_c, 4, 79, 100
6, 175740, Note_on_c, 4, 87, 100
6, 175860, Note_on_c, 4, 87, 0
6, 175860, Note_on_c, 4, 79, 0
6, 175860, Note_on_c, 4, 79, 100
6, 175860, Note_on_c, 4, 87, 100
6, 175980, Note_on_c, 4, 87, 0
6, 175980, Note_on_c, 4, 79, 0
6, 175980, Note_on_c, 4, 79, 100
6, 175980, Note_on_c, 4, 87, 100
6, 176100, Note_on_c, 4, 87, 0
6, 176100, Note_on_c, 4, 79, 0
6, 176100, Note_on_c, 4, 79, 100
6, 176100, Note_on_c, 4, 87, 100
6, 176160, Note_on_c, 4, 79, 0
6, 176160, Note_on_c, 4, 77, 100
6, 176220, Note_on_c, 4, 77, 0
6, 176220, Note_on_c, 4, 87, 0
6, 176220, Note_on_c, 4, 87, 100
6, 176340, Note_on_c, 4, 87, 0
6, 176340, Note_on_c, 4, 86, 100
6, 176460, Note_on_c, 4, 86, 0
6, 176460, Note_on_c, 4, 84, 100
6, 176580, Note_on_c, 4, 84, 0
6, 176580, Note_on_c, 4, 82, 100
6, 176700, Note_on_c, 4, 82, 0
6, 176700, Note_on_c, 4, 80, 100
6, 176820, Note_on_c, 4, 80, 0
6, 176820, Note_on_c, 4, 79, 100
6, 176940, Note_on_c, 4, 79, 0
6, 176940, Note_on_c, 4, 77, 100
6, 177060, Note_on_c, 4, 77, 0
6, 177060, Note_on_c, 4, 84, 100
6, 177180, Note_on_c, 4, 84, 0
6, 177180, Note_on_c, 4, 82, 100
6, 177300, Note_on_c, 4, 82, 0
6, 177300, Note_on_c, 4, 81, 100
6, 177420, Note_on_c, 4, 81, 0
6, 177420, Note_on_c, 4, 80, 100
6, 177540, Note_on_c, 4, 80, 0
6, 177540, Note_on_c, 4, 79, 100
6, 177660, Note_on_c, 4, 79, 0
6, 177660, Note_on_c, 4, 77, 100
6, 177720, Note_on_c, 4, 77, 0
6, 177720, Note_on_c, 4, 80, 100
6, 177780, Note_on_c, 4, 80, 0
6, 177780, Note_on_c, 4, 77, 100
6, 177900, Note_on_c, 4, 77, 0
6, 177900, Note_on_c, 4, 75, 100
6, 178020, Note_on_c, 4, 75, 0
6, 178020, Note_on_c, 4, 74, 100
6, 178080, Note_on_c, 4, 74, 0
6, 178080, Note_on_c, 4, 75, 100
6, 178200, Note_on_c, 4, 75, 0
6, 178560, Note_on_c, 4, 82, 100
6, 178680, Note_on_c, 4, 82, 0
6, 178680, Note_on_c, 4, 80, 100
6, 178800, Note_on_c, 4, 80, 0
6, 178800, Note_on_c, 4, 79, 100
6, 178920, Note_on_c, 4, 79, 0
6, 178920, Note_on_c, 4, 77, 100
6, 179040, Note_on_c, 4, 77, 0
6, 179040, Note_on_c, 4, 75, 100
6, 179160, Note_on_c, 4, 75, 0
6, 179490, Note_on_c, 4, 70, 100
6, 179520, Note_on_c, 4, 70, 0
6, 179520, Note_on_c, 4, 82, 100
6, 179640, Note_on_c, 4, 82, 0
6, 179640, Note_on_c, 4, 80, 100
6, 179760, Note_on_c, 4, 80, 0
6, 179760, Note_on_c, 4, 79, 100
6, 179880, Note_on_c, 4, 79, 0
6, 179880, Note_on_c, 4, 77, 100
6, 180000, Note_on_c, 4, 77, 0
6, 180000, Note_on_c, 4, 75, 100
6, 180120, Note_on_c, 4, 75, 0
6, 180120, Note_on_c, 4, 70, 100
6, 180120, Note_on_c, 4, 79, 100
6, 180150, Note_on_c, 4, 79, 0
6, 180150, Note_on_c, 4, 70, 0
6, 180150, Note_on_c, 4, 70, 100
6, 180150, Note_on_c, 4, 79, 100
6, 180180, Note_on_c, 4, 79, 0
6, 180180, Note_on_c, 4, 70, 0
6, 180180, Note_on_c, 4, 70, 100
6, 180180, Note_on_c, 4, 82, 100
6, 180210, Note_on_c, 4, 82, 0
6, 180210, Note_on_c, 4, 70, 0
6, 180210, Note_on_c, 4, 70, 100
6, 180210, Note_on_c, 4, 82, 100
6, 180240, Note_on_c, 4, 82, 0
6, 180240, Note_on_c, 4, 70, 0
6, 180240, Note_on_c, 4, 70, 100
6, 180240, Note_on_c, 4, 79, 100
6, 180270, Note_on_c, 4, 79, 0
6, 180270, Note_on_c, 4, 70, 0
6, 180270, Note_on_c, 4, 70, 100
6, 180270, Note_on_c, 4, 79, 100
6, 180300, Note_on_c, 4, 79, 0
6, 180300, Note_on_c, 4, 70, 0
6, 180300, Note_on_c, 4, 70, 100
6, 180300, Note_on_c, 4, 82, 100
6, 180330, Note_on_c, 4, 82, 0
6, 180330, Note_on_c, 4, 70, 0
6, 180330, Note_on_c, 4, 70, 100
6, 180330, Note_on_c, 4, 82, 100
6, 180360, Note_on_c, 4, 82, 0
6, 180360, Note_on_c, 4, 70, 0
6, 180360, Note_on_c, 4, 70, 100
6, 180360, Note_on_c, 4, 79, 100
6, 180390, Note_on_c, 4, 79, 0
6, 180390, Note_on_c, 4, 70, 0
6, 180390, Note_on_c, 4, 70, 100
6, 180390, Note_on_c, 4, 79, 100
6, 180420, Note_on_c, 4, 79, 0
6, 180420, Note_on_c, 4, 70, 0
6, 180420, Note_on_c, 4, 70, 100
6, 180420, Note_on_c, 4, 82, 100
6, 180450, Note_on_c, 4, 82, 0
6, 180450, Note_on_c, 4, 70, 0
6, 180450, Note_on_c, 4, 70, 100
6, 180450, Note_on_c, 4, 82, 100
6, 180480, Note_on_c, 4, 82, 0
6, 180480, Note_on_c, 4, 70, 0
6, 180480, Note_on_c, 4, 70, 100
6, 180480, Note_on_c, 4, 79, 100
6, 180600, Note_on_c, 4, 79, 0
6, 180600, Note_on_c, 4, 70, 0
6, 180600, Note_on_c, 4, 55, 100
6, 180600, Note_on_c, 4, 63, 100
6, 180630, Note_on_c, 4, 63, 0
6, 180630, Note_on_c, 4, 55, 0
6, 180630, Note_on_c, 4, 55, 100
6, 180630, Note_on_c, 4, 63, 100
6, 180660, Note_on_c, 4, 63, 0
6, 180660, Note_on_c, 4, 55, 0
6, 180660, Note_on_c, 4, 58, 100
6, 180660, Note_on_c, 4, 67, 100
6, 180690, Note_on_c, 4, 67, 0
6, 180690, Note_on_c, 4, 58, 0
6, 180690, Note_on_c, 4, 58, 100
6, 180690, Note_on_c, 4, 67, 100
6, 180720, Note_on_c, 4, 67, 0
6, 180720, Note_on_c, 4, 58, 0
6, 180720, Note_on_c, 4, 55, 100
6, 180720, Note_on_c, 4, 63, 100
6, 180750, Note_on_c, 4, 63, 0
6, 180750, Note_on_c, 4, 55, 0
6, 180750, Note_on_c, 4, 55, 100
6, 180750, Note_on_c, 4, 63, 100
6, 180780, Note_on_c, 4, 63, 0
6, 180780, Note_on_c, 4, 55, 0
6, 180780, Note_on_c, 4, 58, 100
6, 180780, Note_on_c, 4, 67, 100
6, 180810, Note_on_c, 4, 67, 0
6, 180810, Note_on_c, 4, 58, 0
6, 180810, Note_on_c, 4, 58, 100
6, 180810, Note_on_c, 4, 67, 100
6, 180840, Note_on_c, 4, 67, 0
6, 180840, Note_on_c, 4, 58, 0
6, 180840, Note_on_c, 4, 55, 100
6, 180840, Note_on_c, 4, 63, 100
6, 180870, Note_on_c, 4, 63, 0
6, 180870, Note_on_c, 4, 55, 0
6, 180870, Note_on_c, 4, 55, 100
6, 180870, Note_on_c, 4, 63, 100
6, 180900, Note_on_c, 4, 63, 0
6, 180900, Note_on_c, 4, 55, 0
6, 180900, Note_on_c, 4, 58, 100
6, 180900, Note_on_c, 4, 67, 100
6, 180930, Note_on_c, 4, 67, 0
6, 180930, Note_on_c, 4, 58, 0
6, 180930, Note_on_c, 4, 58, 100
6, 180930, Note_on_c, 4, 67, 100
6, 180960, Note_on_c, 4, 67, 0
6, 180960, Note_on_c, 4, 58, 0
6, 180960, Note_on_c, 4, 55, 100
6, 180960, Note_on_c, 4, 63, 100
6, 181140, Note_on_c, 4, 63, 0
6, 181140, Note_on_c, 4, 55, 0
6, 181140, Note_on_c, 4, 63, 100
6, 181170, Note_on_c, 4, 63, 0
6, 181170, Note_on_c, 4, 65, 100
6, 181200, Note_on_c, 4, 65, 0
6, 181200, Note_on_c, 4, 67, 100
6, 181260, Note_on_c, 4, 67, 0
6, 181290, Note_on_c, 4, 67, 100
6, 181305, Note_on_c, 4, 67, 0
6, 181305, Note_on_c, 4, 68, 100
6, 181320, Note_on_c, 4, 68, 0
6, 181320, Note_on_c, 4, 70, 100
6, 181380, Note_on_c, 4, 70, 0
6, 181410, Note_on_c, 4, 70, 100
6, 181420, Note_on_c, 4, 70, 0
6, 181420, Note_on_c, 4, 72, 100
6, 181430, Note_on_c, 4, 72, 0
6, 181430, Note_on_c, 4, 74, 100
6, 181440, Note_on_c, 4, 74, 0
6, 181440, Note_on_c, 4, 75, 100
6, 181470, Note_on_c, 4, 75, 0
6, 181470, Note_on_c, 4, 75, 100
6, 181500, Note_on_c, 4, 75, 0
6, 181500, Note_on_c, 4, 75, 100
6, 181530, Note_on_c, 4, 75, 0
6, 181530, Note_on_c, 4, 75, 100
6, 181560, Note_on_c, 4, 75, 0
6, 181560, Note_on_c, 4, 79, 100
6, 181590, Note_on_c, 4, 79, 0
6, 181590, Note_on_c, 4, 79, 100
6, 181620, Note_on_c, 4, 79, 0
6, 181620, Note_on_c, 4, 79, 100
6, 181650, Note_on_c, 4, 79, 0
6, 181650, Note_on_c, 4, 79, 100
6, 181680, Note_on_c, 4, 79, 0
6, 181680, Note_on_c, 4, 82, 100
6, 181710, Note_on_c, 4, 82, 0
6, 181710, Note_on_c, 4, 82, 100
6, 181740, Note_on_c, 4, 82, 0
6, 181740, Note_on_c, 4, 82, 100
6, 181770, Note_on_c, 4, 82, 0
6, 181770, Note_on_c, 4, 82, 100
6, 181800, Note_on_c, 4, 82, 0
6, 181800, Note_on_c, 4, 79, 100
6, 181830, Note_on_c, 4, 79, 0
6, 181830, Note_on_c, 4, 79, 100
6, 181860, Note_on_c, 4, 79, 0
6, 181860, Note_on_c, 4, 79, 100
6, 181890, Note_on_c, 4, 79, 0
6, 181890, Note_on_c, 4, 79, 100
6, 181920, Note_on_c, 4, 79, 0
6, 181920, Note_on_c, 4, 75, 100
6, 182040, Note_on_c, 4, 75, 0
6, 182040, Note_on_c, 4, 63, 100
6, 182040, Note_on_c, 4, 70, 100
6, 182040, Note_on_c, 4, 79, 100
6, 182160, Note_on_c, 4, 79, 0
6, 182160, Note_on_c, 4, 70, 0
6, 182160, Note_on_c, 4, 63, 0
6, 182160, Note_on_c, 4, 63, 100
6, 182160, Note_on_c, 4, 70, 100
6, 182160, Note_on_c, 4, 79, 100
6, 182280, Note_on_c, 4, 79, 0
6, 182280, Note_on_c, 4, 70, 0
6, 182280, Note_on_c, 4, 63, 0
6, 182280, Note_on_c, 4, 63, 100
6, 182280, Note_on_c, 4, 70, 100
6, 182280, Note_on_c, 4, 79, 100
6, 182400, Note_on_c, 4, 79, 0
6, 182400, Note_on_c, 4, 70, 0
6, 182400, Note_on_c, 4, 63, 0
6, 182400, Note_on_c, 4, 63, 100
6, 182400, Note_on_c, 4, 70, 100
6, 182400, Note_on_c, 4, 79, 100
6, 182520, Note_on_c, 4, 79, 0
6, 182520, Note_on_c, 4, 70, 0
6, 182520, Note_on_c, 4, 63, 0
6, 182610, Note_on_c, 4, 55, 100
6, 182610, Note_on_c, 4, 63, 100
6, 182640, Note_on_c, 4, 63, 0
6, 182640, Note_on_c, 4, 55, 0
6, 182640, Note_on_c, 4, 55, 100
6, 182640, Note_on_c, 4, 63, 100
6, 182760, Note_on_c, 4, 63, 0
6, 182760, Note_on_c, 4, 55, 0
6, 182850, Note_on_c, 4, 55, 100
6, 182850, Note_on_c, 4, 63, 100
6, 182880, Note_on_c, 4, 63, 0
6, 182880, Note_on_c, 4, 55, 0
6, 182880, Note_on_c, 4, 55, 100
6, 182880, Note_on_c, 4, 63, 100
6, 183120, Note_on_c, 4, 63, 0
6, 183120, Note_on_c, 4, 55, 0
6, 183120, End_track
7, 0, Start_track
7, 0, MIDI_port, 0
7, 0, Title_t, "Violino II"
7, 0, Program_c, 5, 40
7, 0, Note_on_c, 5, 58, 100
7, 0, Note_on_c, 5, 63, 100
7, 480, Note_on_c, 5, 63, 0
7, 480, Note_on_c, 5, 58, 0
7, 480, Note_on_c, 5, 58, 100
7, 480, Note_on_c, 5, 63, 100
7, 720, Note_on_c, 5, 63, 0
7, 720, Note_on_c, 5, 58, 0
7, 720, Note_on_c, 5, 58, 100
7, 720, Note_on_c, 5, 63, 100
7, 900, Note_on_c, 5, 63, 0
7, 900, Note_on_c, 5, 58, 0
7, 900, Note_on_c, 5, 58, 100
7, 900, Note_on_c, 5, 63, 100
7, 960, Note_on_c, 5, 63, 0
7, 960, Note_on_c, 5, 58, 0
7, 960, Note_on_c, 5, 55, 100
7, 990, Note_on_c, 5, 55, 0
7, 990, Note_on_c, 5, 58, 100
7, 1020, Note_on_c, 5, 58, 0
7, 1020, Note_on_c, 5, 63, 100
7, 1050, Note_on_c, 5, 63, 0
7, 1050, Note_on_c, 5, 58, 100
7, 1080, Note_on_c, 5, 58, 0
7, 1080, Note_on_c, 5, 63, 100
7, 1110, Note_on_c, 5, 63, 0
7, 1110, Note_on_c, 5, 58, 100
7, 1140, Note_on_c, 5, 58, 0
7, 1140, Note_on_c, 5, 63, 100
7, 1170, Note_on_c, 5, 63, 0
7, 1170, Note_on_c, 5, 58, 100
7, 1200, Note_on_c, 5, 58, 0
7, 1200, Note_on_c, 5, 55, 100
7, 1230, Note_on_c, 5, 55, 0
7, 1230, Note_on_c, 5, 58, 100
7, 1260, Note_on_c, 5, 58, 0
7, 1260, Note_on_c, 5, 63, 100
7, 1290, Note_on_c, 5, 63, 0
7, 1290, Note_on_c, 5, 58, 100
7, 1320, Note_on_c, 5, 58, 0
7, 1320, Note_on_c, 5, 63, 100
7, 1350, Note_on_c, 5, 63, 0
7, 1350, Note_on_c, 5, 58, 100
7, 1380, Note_on_c, 5, 58, 0
7, 1380, Note_on_c, 5, 63, 100
7, 1410, Note_on_c, 5, 63, 0
7, 1410, Note_on_c, 5, 58, 100
7, 1440, Note_on_c, 5, 58, 0
7, 1440, Note_on_c, 5, 55, 100
7, 1470, Note_on_c, 5, 55, 0
7, 1470, Note_on_c, 5, 58, 100
7, 1500, Note_on_c, 5, 58, 0
7, 1500, Note_on_c, 5, 63, 100
7, 1530, Note_on_c, 5, 63, 0
7, 1530, Note_on_c, 5, 58, 100
7, 1560, Note_on_c, 5, 58, 0
7, 1560, Note_on_c, 5, 63, 100
7, 1590, Note_on_c, 5, 63, 0
7, 1590, Note_on_c, 5, 58, 100
7, 1620, Note_on_c, 5, 58, 0
7, 1620, Note_on_c, 5, 63, 100
7, 1650, Note_on_c, 5, 63, 0
7, 1650, Note_on_c, 5, 58, 100
7, 1680, Note_on_c, 5, 58, 0
7, 1680, Note_on_c, 5, 55, 100
7, 1710, Note_on_c, 5, 55, 0
7, 1710, Note_on_c, 5, 58, 100
7, 1740, Note_on_c, 5, 58, 0
7, 1740, Note_on_c, 5, 63, 100
7, 1770, Note_on_c, 5, 63, 0
7, 1770, Note_on_c, 5, 58, 100
7, 1800, Note_on_c, 5, 58, 0
7, 1800, Note_on_c, 5, 63, 100
7, 1830, Note_on_c, 5, 63, 0
7, 1830, Note_on_c, 5, 58, 100
7, 1860, Note_on_c, 5, 58, 0
7, 1860, Note_on_c, 5, 63, 100
7, 1890, Note_on_c, 5, 63, 0
7, 1890, Note_on_c, 5, 58, 100
7, 1920, Note_on_c, 5, 58, 0
7, 1920, Note_on_c, 5, 56, 100
7, 1950, Note_on_c, 5, 56, 0
7, 1950, Note_on_c, 5, 58, 100
7, 1980, Note_on_c, 5, 58, 0
7, 1980, Note_on_c, 5, 62, 100
7, 2010, Note_on_c, 5, 62, 0
7, 2010, Note_on_c, 5, 58, 100
7, 2040, Note_on_c, 5, 58, 0
7, 2040, Note_on_c, 5, 62, 100
7, 2070, Note_on_c, 5, 62, 0
7, 2070, Note_on_c, 5, 58, 100
7, 2100, Note_on_c, 5, 58, 0
7, 2100, Note_on_c, 5, 62, 100
7, 2130, Note_on_c, 5, 62, 0
7, 2130, Note_on_c, 5, 58, 100
7, 2160, Note_on_c, 5, 58, 0
7, 2160, Note_on_c, 5, 56, 100
7, 2190, Note_on_c, 5, 56, 0
7, 2190, Note_on_c, 5, 58, 100
7, 2220, Note_on_c, 5, 58, 0
7, 2220, Note_on_c, 5, 62, 100
7, 2250, Note_on_c, 5, 62, 0
7, 2250, Note_on_c, 5, 58, 100
7, 2280, Note_on_c, 5, 58, 0
7, 2280, Note_on_c, 5, 62, 100
7, 2310, Note_on_c, 5, 62, 0
7, 2310, Note_on_c, 5, 58, 100
7, 2340, Note_on_c, 5, 58, 0
7, 2340, Note_on_c, 5, 62, 100
7, 2370, Note_on_c, 5, 62, 0
7, 2370, Note_on_c, 5, 58, 100
7, 2400, Note_on_c, 5, 58, 0
7, 2400, Note_on_c, 5, 56, 100
7, 2430, Note_on_c, 5, 56, 0
7, 2430, Note_on_c, 5, 58, 100
7, 2460, Note_on_c, 5, 58, 0
7, 2460, Note_on_c, 5, 62, 100
7, 2490, Note_on_c, 5, 62, 0
7, 2490, Note_on_c, 5, 58, 100
7, 2520, Note_on_c, 5, 58, 0
7, 2520, Note_on_c, 5, 62, 100
7, 2550, Note_on_c, 5, 62, 0
7, 2550, Note_on_c, 5, 58, 100
7, 2580, Note_on_c, 5, 58, 0
7, 2580, Note_on_c, 5, 62, 100
7, 2610, Note_on_c, 5, 62, 0
7, 2610, Note_on_c, 5, 58, 100
7, 2640, Note_on_c, 5, 58, 0
7, 2640, Note_on_c, 5, 56, 100
7, 2670, Note_on_c, 5, 56, 0
7, 2670, Note_on_c, 5, 58, 100
7, 2700, Note_on_c, 5, 58, 0
7, 2700, Note_on_c, 5, 62, 100
7, 2730, Note_on_c, 5, 62, 0
7, 2730, Note_on_c, 5, 58, 100
7, 2760, Note_on_c, 5, 58, 0
7, 2760, Note_on_c, 5, 62, 100
7, 2790, Note_on_c, 5, 62, 0
7, 2790, Note_on_c, 5, 58, 100
7, 2820, Note_on_c, 5, 58, 0
7, 2820, Note_on_c, 5, 62, 100
7, 2850, Note_on_c, 5, 62, 0
7, 2850, Note_on_c, 5, 58, 100
7, 2880, Note_on_c, 5, 58, 0
7, 2880, Note_on_c, 5, 55, 100
7, 2910, Note_on_c, 5, 55, 0
7, 2910, Note_on_c, 5, 58, 100
7, 2940, Note_on_c, 5, 58, 0
7, 2940, Note_on_c, 5, 63, 100
7, 2970, Note_on_c, 5, 63, 0
7, 2970, Note_on_c, 5, 58, 100
7, 3000, Note_on_c, 5, 58, 0
7, 3000, Note_on_c, 5, 63, 100
7, 3030, Note_on_c, 5, 63, 0
7, 3030, Note_on_c, 5, 58, 100
7, 3060, Note_on_c, 5, 58, 0
7, 3060, Note_on_c, 5, 63, 100
7, 3090, Note_on_c, 5, 63, 0
7, 3090, Note_on_c, 5, 58, 100
7, 3120, Note_on_c, 5, 58, 0
7, 3120, Note_on_c, 5, 55, 100
7, 3150, Note_on_c, 5, 55, 0
7, 3150, Note_on_c, 5, 58, 100
7, 3180, Note_on_c, 5, 58, 0
7, 3180, Note_on_c, 5, 63, 100
7, 3210, Note_on_c, 5, 63, 0
7, 3210, Note_on_c, 5, 58, 100
7, 3240, Note_on_c, 5, 58, 0
7, 3240, Note_on_c, 5, 63, 100
7, 3270, Note_on_c, 5, 63, 0
7, 3270, Note_on_c, 5, 58, 100
7, 3300, Note_on_c, 5, 58, 0
7, 3300, Note_on_c, 5, 63, 100
7, 3330, Note_on_c, 5, 63, 0
7, 3330, Note_on_c, 5, 58, 100
7, 3360, Note_on_c, 5, 58, 0
7, 3360, Note_on_c, 5, 55, 100
7, 3390, Note_on_c, 5, 55, 0
7, 3390, Note_on_c, 5, 58, 100
7, 3420, Note_on_c, 5, 58, 0
7, 3420, Note_on_c, 5, 63, 100
7, 3450, Note_on_c, 5, 63, 0
7, 3450, Note_on_c, 5, 58, 100
7, 3480, Note_on_c, 5, 58, 0
7, 3480, Note_on_c, 5, 63, 100
7, 3510, Note_on_c, 5, 63, 0
7, 3510, Note_on_c, 5, 58, 100
7, 3540, Note_on_c, 5, 58, 0
7, 3540, Note_on_c, 5, 63, 100
7, 3570, Note_on_c, 5, 63, 0
7, 3570, Note_on_c, 5, 58, 100
7, 3600, Note_on_c, 5, 58, 0
7, 3600, Note_on_c, 5, 55, 100
7, 3630, Note_on_c, 5, 55, 0
7, 3630, Note_on_c, 5, 58, 100
7, 3660, Note_on_c, 5, 58, 0
7, 3660, Note_on_c, 5, 63, 100
7, 3690, Note_on_c, 5, 63, 0
7, 3690, Note_on_c, 5, 58, 100
7, 3720, Note_on_c, 5, 58, 0
7, 3720, Note_on_c, 5, 63, 100
7, 3750, Note_on_c, 5, 63, 0
7, 3750, Note_on_c, 5, 58, 100
7, 3780, Note_on_c, 5, 58, 0
7, 3780, Note_on_c, 5, 63, 100
7, 3810, Note_on_c, 5, 63, 0
7, 3810, Note_on_c, 5, 58, 100
7, 3840, Note_on_c, 5, 58, 0
7, 3840, Note_on_c, 5, 56, 100
7, 3870, Note_on_c, 5, 56, 0
7, 3870, Note_on_c, 5, 58, 100
7, 3900, Note_on_c, 5, 58, 0
7, 3900, Note_on_c, 5, 62, 100
7, 3930, Note_on_c, 5, 62, 0
7, 3930, Note_on_c, 5, 58, 100
7, 3960, Note_on_c, 5, 58, 0
7, 3960, Note_on_c, 5, 62, 100
7, 3990, Note_on_c, 5, 62, 0
7, 3990, Note_on_c, 5, 58, 100
7, 4020, Note_on_c, 5, 58, 0
7, 4020, Note_on_c, 5, 62, 100
7, 4050, Note_on_c, 5, 62, 0
7, 4050, Note_on_c, 5, 58, 100
7, 4080, Note_on_c, 5, 58, 0
7, 4080, Note_on_c, 5, 56, 100
7, 4110, Note_on_c, 5, 56, 0
7, 4110, Note_on_c, 5, 58, 100
7, 4140, Note_on_c, 5, 58, 0
7, 4140, Note_on_c, 5, 62, 100
7, 4170, Note_on_c, 5, 62, 0
7, 4170, Note_on_c, 5, 58, 100
7, 4200, Note_on_c, 5, 58, 0
7, 4200, Note_on_c, 5, 62, 100
7, 4230, Note_on_c, 5, 62, 0
7, 4230, Note_on_c, 5, 58, 100
7, 4260, Note_on_c, 5, 58, 0
7, 4260, Note_on_c, 5, 62, 100
7, 4290, Note_on_c, 5, 62, 0
7, 4290, Note_on_c, 5, 58, 100
7, 4320, Note_on_c, 5, 58, 0
7, 4320, Note_on_c, 5, 56, 100
7, 4350, Note_on_c, 5, 56, 0
7, 4350, Note_on_c, 5, 58, 100
7, 4380, Note_on_c, 5, 58, 0
7, 4380, Note_on_c, 5, 62, 100
7, 4410, Note_on_c, 5, 62, 0
7, 4410, Note_on_c, 5, 58, 100
7, 4440, Note_on_c, 5, 58, 0
7, 4440, Note_on_c, 5, 62, 100
7, 4470, Note_on_c, 5, 62, 0
7, 4470, Note_on_c, 5, 58, 100
7, 4500, Note_on_c, 5, 58, 0
7, 4500, Note_on_c, 5, 62, 100
7, 4530, Note_on_c, 5, 62, 0
7, 4530, Note_on_c, 5, 58, 100
7, 4560, Note_on_c, 5, 58, 0
7, 4560, Note_on_c, 5, 56, 100
7, 4590, Note_on_c, 5, 56, 0
7, 4590, Note_on_c, 5, 58, 100
7, 4620, Note_on_c, 5, 58, 0
7, 4620, Note_on_c, 5, 62, 100
7, 4650, Note_on_c, 5, 62, 0
7, 4650, Note_on_c, 5, 58, 100
7, 4680, Note_on_c, 5, 58, 0
7, 4680, Note_on_c, 5, 62, 100
7, 4710, Note_on_c, 5, 62, 0
7, 4710, Note_on_c, 5, 58, 100
7, 4740, Note_on_c, 5, 58, 0
7, 4740, Note_on_c, 5, 62, 100
7, 4770, Note_on_c, 5, 62, 0
7, 4770, Note_on_c, 5, 58, 100
7, 4800, Note_on_c, 5, 58, 0
7, 4800, Note_on_c, 5, 63, 100
7, 4800, Note_on_c, 5, 55, 100
7, 4920, Note_on_c, 5, 55, 0
7, 4920, Note_on_c, 5, 63, 0
7, 4920, Note_on_c, 5, 63, 100
7, 5010, Note_on_c, 5, 63, 0
7, 5010, Note_on_c, 5, 61, 100
7, 5040, Note_on_c, 5, 61, 0
7, 5040, Note_on_c, 5, 61, 100
7, 5400, Note_on_c, 5, 61, 0
7, 5400, Note_on_c, 5, 58, 100
7, 5520, Note_on_c, 5, 58, 0
7, 5520, Note_on_c, 5, 63, 100
7, 5640, Note_on_c, 5, 63, 0
7, 5640, Note_on_c, 5, 61, 100
7, 5760, Note_on_c, 5, 61, 0
7, 5760, Note_on_c, 5, 60, 100
7, 5940, Note_on_c, 5, 60, 0
7, 5940, Note_on_c, 5, 58, 100
7, 6000, Note_on_c, 5, 58, 0
7, 6000, Note_on_c, 5, 56, 100
7, 6120, Note_on_c, 5, 56, 0
7, 7200, Note_on_c, 5, 63, 100
7, 7380, Note_on_c, 5, 63, 0
7, 7380, Note_on_c, 5, 65, 100
7, 7440, Note_on_c, 5, 65, 0
7, 7440, Note_on_c, 5, 67, 100
7, 7560, Note_on_c, 5, 67, 0
7, 7560, Note_on_c, 5, 67, 100
7, 7680, Note_on_c, 5, 67, 0
7, 7680, Note_on_c, 5, 63, 100
7, 8160, Note_on_c, 5, 63, 0
7, 8160, Note_on_c, 5, 60, 100
7, 8400, Note_on_c, 5, 60, 0
7, 8400, Note_on_c, 5, 58, 100
7, 8520, Note_on_c, 5, 58, 0
7, 8520, Note_on_c, 5, 56, 100
7, 8640, Note_on_c, 5, 56, 0
7, 8640, Note_on_c, 5, 55, 100
7, 8760, Note_on_c, 5, 55, 0
7, 9000, Note_on_c, 5, 63, 100
7, 9090, Note_on_c, 5, 63, 0
7, 9090, Note_on_c, 5, 61, 100
7, 9120, Note_on_c, 5, 61, 0
7, 9120, Note_on_c, 5, 61, 100
7, 9600, Note_on_c, 5, 61, 0
7, 9600, Note_on_c, 5, 60, 100
7, 9780, Note_on_c, 5, 60, 0
7, 9780, Note_on_c, 5, 58, 100
7, 9840, Note_on_c, 5, 58, 0
7, 9840, Note_on_c, 5, 56, 100
7, 9960, Note_on_c, 5, 56, 0
7, 11040, Note_on_c, 5, 63, 100
7, 11220, Note_on_c, 5, 63, 0
7, 11220, Note_on_c, 5, 65, 100
7, 11280, Note_on_c, 5, 65, 0
7, 11280, Note_on_c, 5, 67, 100
7, 11400, Note_on_c, 5, 67, 0
7, 11400, Note_on_c, 5, 67, 100
7, 11520, Note_on_c, 5, 67, 0
7, 11520, Note_on_c, 5, 63, 100
7, 12000, Note_on_c, 5, 63, 0
7, 12000, Note_on_c, 5, 60, 100
7, 12240, Note_on_c, 5, 60, 0
7, 12240, Note_on_c, 5, 58, 100
7, 12360, Note_on_c, 5, 58, 0
7, 12360, Note_on_c, 5, 56, 100
7, 12480, Note_on_c, 5, 56, 0
7, 12480, Note_on_c, 5, 55, 100
7, 12510, Note_on_c, 5, 55, 0
7, 12510, Note_on_c, 5, 55, 100
7, 12540, Note_on_c, 5, 55, 0
7, 12540, Note_on_c, 5, 58, 100
7, 12570, Note_on_c, 5, 58, 0
7, 12570, Note_on_c, 5, 58, 100
7, 12600, Note_on_c, 5, 58, 0
7, 12600, Note_on_c, 5, 63, 100
7, 12630, Note_on_c, 5, 63, 0
7, 12630, Note_on_c, 5, 63, 100
7, 12660, Note_on_c, 5, 63, 0
7, 12660, Note_on_c, 5, 58, 100
7, 12690, Note_on_c, 5, 58, 0
7, 12690, Note_on_c, 5, 58, 100
7, 12720, Note_on_c, 5, 58, 0
7, 12720, Note_on_c, 5, 55, 100
7, 12750, Note_on_c, 5, 55, 0
7, 12750, Note_on_c, 5, 55, 100
7, 12780, Note_on_c, 5, 55, 0
7, 12780, Note_on_c, 5, 58, 100
7, 12810, Note_on_c, 5, 58, 0
7, 12810, Note_on_c, 5, 58, 100
7, 12840, Note_on_c, 5, 58, 0
7, 12840, Note_on_c, 5, 63, 100
7, 12870, Note_on_c, 5, 63, 0
7, 12870, Note_on_c, 5, 63, 100
7, 12900, Note_on_c, 5, 63, 0
7, 12900, Note_on_c, 5, 67, 100
7, 12930, Note_on_c, 5, 67, 0
7, 12930, Note_on_c, 5, 67, 100
7, 12960, Note_on_c, 5, 67, 0
7, 12960, Note_on_c, 5, 58, 100
7, 12990, Note_on_c, 5, 58, 0
7, 12990, Note_on_c, 5, 58, 100
7, 13020, Note_on_c, 5, 58, 0
7, 13020, Note_on_c, 5, 62, 100
7, 13050, Note_on_c, 5, 62, 0
7, 13050, Note_on_c, 5, 62, 100
7, 13080, Note_on_c, 5, 62, 0
7, 13080, Note_on_c, 5, 65, 100
7, 13110, Note_on_c, 5, 65, 0
7, 13110, Note_on_c, 5, 65, 100
7, 13140, Note_on_c, 5, 65, 0
7, 13140, Note_on_c, 5, 62, 100
7, 13170, Note_on_c, 5, 62, 0
7, 13170, Note_on_c, 5, 62, 100
7, 13200, Note_on_c, 5, 62, 0
7, 13200, Note_on_c, 5, 58, 100
7, 13230, Note_on_c, 5, 58, 0
7, 13230, Note_on_c, 5, 58, 100
7, 13260, Note_on_c, 5, 58, 0
7, 13260, Note_on_c, 5, 62, 100
7, 13290, Note_on_c, 5, 62, 0
7, 13290, Note_on_c, 5, 62, 100
7, 13320, Note_on_c, 5, 62, 0
7, 13320, Note_on_c, 5, 65, 100
7, 13350, Note_on_c, 5, 65, 0
7, 13350, Note_on_c, 5, 65, 100
7, 13380, Note_on_c, 5, 65, 0
7, 13380, Note_on_c, 5, 70, 100
7, 13410, Note_on_c, 5, 70, 0
7, 13410, Note_on_c, 5, 70, 100
7, 13440, Note_on_c, 5, 70, 0
7, 13440, Note_on_c, 5, 63, 100
7, 13470, Note_on_c, 5, 63, 0
7, 13470, Note_on_c, 5, 63, 100
7, 13500, Note_on_c, 5, 63, 0
7, 13500, Note_on_c, 5, 67, 100
7, 13530, Note_on_c, 5, 67, 0
7, 13530, Note_on_c, 5, 67, 100
7, 13560, Note_on_c, 5, 67, 0
7, 13560, Note_on_c, 5, 72, 100
7, 13590, Note_on_c, 5, 72, 0
7, 13590, Note_on_c, 5, 72, 100
7, 13620, Note_on_c, 5, 72, 0
7, 13620, Note_on_c, 5, 67, 100
7, 13650, Note_on_c, 5, 67, 0
7, 13650, Note_on_c, 5, 67, 100
7, 13680, Note_on_c, 5, 67, 0
7, 13680, Note_on_c, 5, 63, 100
7, 13710, Note_on_c, 5, 63, 0
7, 13710, Note_on_c, 5, 63, 100
7, 13740, Note_on_c, 5, 63, 0
7, 13740, Note_on_c, 5, 67, 100
7, 13770, Note_on_c, 5, 67, 0
7, 13770, Note_on_c, 5, 67, 100
7, 13800, Note_on_c, 5, 67, 0
7, 13800, Note_on_c, 5, 72, 100
7, 13830, Note_on_c, 5, 72, 0
7, 13830, Note_on_c, 5, 72, 100
7, 13860, Note_on_c, 5, 72, 0
7, 13860, Note_on_c, 5, 75, 100
7, 13890, Note_on_c, 5, 75, 0
7, 13890, Note_on_c, 5, 75, 100
7, 13920, Note_on_c, 5, 75, 0
7, 13920, Note_on_c, 5, 74, 100
7, 13920, Note_on_c, 5, 65, 100
7, 13980, Note_on_c, 5, 65, 0
7, 13980, Note_on_c, 5, 74, 0
7, 13980, Note_on_c, 5, 74, 100
7, 13980, Note_on_c, 5, 65, 100
7, 14100, Note_on_c, 5, 65, 0
7, 14100, Note_on_c, 5, 74, 0
7, 14100, Note_on_c, 5, 65, 100
7, 14100, Note_on_c, 5, 74, 100
7, 14220, Note_on_c, 5, 74, 0
7, 14220, Note_on_c, 5, 65, 0
7, 14220, Note_on_c, 5, 65, 100
7, 14220, Note_on_c, 5, 74, 100
7, 14340, Note_on_c, 5, 74, 0
7, 14340, Note_on_c, 5, 65, 0
7, 14340, Note_on_c, 5, 65, 100
7, 14340, Note_on_c, 5, 74, 100
7, 14400, Note_on_c, 5, 74, 0
7, 14400, Note_on_c, 5, 65, 0
7, 14400, Note_on_c, 5, 67, 100
7, 14400, Note_on_c, 5, 75, 100
7, 14460, Note_on_c, 5, 75, 0
7, 14460, Note_on_c, 5, 67, 0
7, 14460, Note_on_c, 5, 67, 100
7, 14460, Note_on_c, 5, 75, 100
7, 14580, Note_on_c, 5, 75, 0
7, 14580, Note_on_c, 5, 67, 0
7, 14580, Note_on_c, 5, 67, 100
7, 14580, Note_on_c, 5, 75, 100
7, 14700, Note_on_c, 5, 75, 0
7, 14700, Note_on_c, 5, 67, 0
7, 14700, Note_on_c, 5, 67, 100
7, 14700, Note_on_c, 5, 75, 100
7, 14820, Note_on_c, 5, 75, 0
7, 14820, Note_on_c, 5, 67, 0
7, 14820, Note_on_c, 5, 67, 100
7, 14820, Note_on_c, 5, 75, 100
7, 14880, Note_on_c, 5, 75, 0
7, 14880, Note_on_c, 5, 67, 0
7, 14880, Note_on_c, 5, 65, 100
7, 14880, Note_on_c, 5, 74, 100
7, 14910, Note_on_c, 5, 74, 0
7, 14910, Note_on_c, 5, 65, 0
7, 14910, Note_on_c, 5, 65, 100
7, 14910, Note_on_c, 5, 74, 100
7, 14940, Note_on_c, 5, 74, 0
7, 14940, Note_on_c, 5, 65, 0
7, 14940, Note_on_c, 5, 74, 100
7, 14940, Note_on_c, 5, 65, 100
7, 14970, Note_on_c, 5, 65, 0
7, 14970, Note_on_c, 5, 74, 0
7, 14970, Note_on_c, 5, 74, 100
7, 14970, Note_on_c, 5, 65, 100
7, 15000, Note_on_c, 5, 65, 0
7, 15000, Note_on_c, 5, 74, 0
7, 15000, Note_on_c, 5, 74, 100
7, 15000, Note_on_c, 5, 65, 100
7, 15030, Note_on_c, 5, 65, 0
7, 15030, Note_on_c, 5, 74, 0
7, 15030, Note_on_c, 5, 74, 100
7, 15030, Note_on_c, 5, 65, 100
7, 15060, Note_on_c, 5, 65, 0
7, 15060, Note_on_c, 5, 74, 0
7, 15060, Note_on_c, 5, 74, 100
7, 15060, Note_on_c, 5, 65, 100
7, 15090, Note_on_c, 5, 65, 0
7, 15090, Note_on_c, 5, 74, 0
7, 15090, Note_on_c, 5, 74, 100
7, 15090, Note_on_c, 5, 65, 100
7, 15120, Note_on_c, 5, 65, 0
7, 15120, Note_on_c, 5, 74, 0
7, 15120, Note_on_c, 5, 77, 100
7, 15120, Note_on_c, 5, 74, 100
7, 15150, Note_on_c, 5, 74, 0
7, 15150, Note_on_c, 5, 77, 0
7, 15150, Note_on_c, 5, 77, 100
7, 15150, Note_on_c, 5, 74, 100
7, 15180, Note_on_c, 5, 74, 0
7, 15180, Note_on_c, 5, 77, 0
7, 15180, Note_on_c, 5, 77, 100
7, 15180, Note_on_c, 5, 74, 100
7, 15210, Note_on_c, 5, 74, 0
7, 15210, Note_on_c, 5, 77, 0
7, 15210, Note_on_c, 5, 77, 100
7, 15210, Note_on_c, 5, 74, 100
7, 15240, Note_on_c, 5, 74, 0
7, 15240, Note_on_c, 5, 77, 0
7, 15240, Note_on_c, 5, 77, 100
7, 15240, Note_on_c, 5, 74, 100
7, 15270, Note_on_c, 5, 74, 0
7, 15270, Note_on_c, 5, 77, 0
7, 15270, Note_on_c, 5, 77, 100
7, 15270, Note_on_c, 5, 74, 100
7, 15300, Note_on_c, 5, 74, 0
7, 15300, Note_on_c, 5, 77, 0
7, 15300, Note_on_c, 5, 77, 100
7, 15300, Note_on_c, 5, 74, 100
7, 15330, Note_on_c, 5, 74, 0
7, 15330, Note_on_c, 5, 77, 0
7, 15330, Note_on_c, 5, 77, 100
7, 15330, Note_on_c, 5, 74, 100
7, 15360, Note_on_c, 5, 74, 0
7, 15360, Note_on_c, 5, 77, 0
7, 15360, Note_on_c, 5, 75, 100
7, 15360, Note_on_c, 5, 79, 100
7, 15390, Note_on_c, 5, 79, 0
7, 15390, Note_on_c, 5, 75, 0
7, 15390, Note_on_c, 5, 79, 100
7, 15390, Note_on_c, 5, 75, 100
7, 15420, Note_on_c, 5, 75, 0
7, 15420, Note_on_c, 5, 79, 0
7, 15420, Note_on_c, 5, 79, 100
7, 15420, Note_on_c, 5, 75, 100
7, 15450, Note_on_c, 5, 75, 0
7, 15450, Note_on_c, 5, 79, 0
7, 15450, Note_on_c, 5, 79, 100
7, 15450, Note_on_c, 5, 75, 100
7, 15480, Note_on_c, 5, 75, 0
7, 15480, Note_on_c, 5, 79, 0
7, 15480, Note_on_c, 5, 79, 100
7, 15480, Note_on_c, 5, 75, 100
7, 15510, Note_on_c, 5, 75, 0
7, 15510, Note_on_c, 5, 79, 0
7, 15510, Note_on_c, 5, 79, 100
7, 15510, Note_on_c, 5, 75, 100
7, 15540, Note_on_c, 5, 75, 0
7, 15540, Note_on_c, 5, 79, 0
7, 15540, Note_on_c, 5, 79, 100
7, 15540, Note_on_c, 5, 75, 100
7, 15570, Note_on_c, 5, 75, 0
7, 15570, Note_on_c, 5, 79, 0
7, 15570, Note_on_c, 5, 79, 100
7, 15570, Note_on_c, 5, 75, 100
7, 15600, Note_on_c, 5, 75, 0
7, 15600, Note_on_c, 5, 79, 0
7, 15600, Note_on_c, 5, 79, 100
7, 15600, Note_on_c, 5, 75, 100
7, 15630, Note_on_c, 5, 75, 0
7, 15630, Note_on_c, 5, 79, 0
7, 15630, Note_on_c, 5, 79, 100
7, 15630, Note_on_c, 5, 75, 100
7, 15660, Note_on_c, 5, 75, 0
7, 15660, Note_on_c, 5, 79, 0
7, 15660, Note_on_c, 5, 79, 100
7, 15660, Note_on_c, 5, 75, 100
7, 15690, Note_on_c, 5, 75, 0
7, 15690, Note_on_c, 5, 79, 0
7, 15690, Note_on_c, 5, 79, 100
7, 15690, Note_on_c, 5, 75, 100
7, 15720, Note_on_c, 5, 75, 0
7, 15720, Note_on_c, 5, 79, 0
7, 15720, Note_on_c, 5, 79, 100
7, 15720, Note_on_c, 5, 75, 100
7, 15750, Note_on_c, 5, 75, 0
7, 15750, Note_on_c, 5, 79, 0
7, 15750, Note_on_c, 5, 79, 100
7, 15750, Note_on_c, 5, 75, 100
7, 15780, Note_on_c, 5, 75, 0
7, 15780, Note_on_c, 5, 79, 0
7, 15780, Note_on_c, 5, 79, 100
7, 15780, Note_on_c, 5, 75, 100
7, 15810, Note_on_c, 5, 75, 0
7, 15810, Note_on_c, 5, 79, 0
7, 15810, Note_on_c, 5, 79, 100
7, 15810, Note_on_c, 5, 75, 100
7, 15840, Note_on_c, 5, 75, 0
7, 15840, Note_on_c, 5, 79, 0
7, 15840, Note_on_c, 5, 74, 100
7, 15840, Note_on_c, 5, 77, 100
7, 15870, Note_on_c, 5, 77, 0
7, 15870, Note_on_c, 5, 74, 0
7, 15870, Note_on_c, 5, 74, 100
7, 15870, Note_on_c, 5, 77, 100
7, 15900, Note_on_c, 5, 77, 0
7, 15900, Note_on_c, 5, 74, 0
7, 15900, Note_on_c, 5, 77, 100
7, 15900, Note_on_c, 5, 74, 100
7, 15930, Note_on_c, 5, 74, 0
7, 15930, Note_on_c, 5, 77, 0
7, 15930, Note_on_c, 5, 77, 100
7, 15930, Note_on_c, 5, 74, 100
7, 15960, Note_on_c, 5, 74, 0
7, 15960, Note_on_c, 5, 77, 0
7, 15960, Note_on_c, 5, 79, 100
7, 15960, Note_on_c, 5, 75, 100
7, 15990, Note_on_c, 5, 75, 0
7, 15990, Note_on_c, 5, 79, 0
7, 15990, Note_on_c, 5, 79, 100
7, 15990, Note_on_c, 5, 75, 100
7, 16020, Note_on_c, 5, 75, 0
7, 16020, Note_on_c, 5, 79, 0
7, 16020, Note_on_c, 5, 79, 100
7, 16020, Note_on_c, 5, 75, 100
7, 16050, Note_on_c, 5, 75, 0
7, 16050, Note_on_c, 5, 79, 0
7, 16050, Note_on_c, 5, 79, 100
7, 16050, Note_on_c, 5, 75, 100
7, 16080, Note_on_c, 5, 75, 0
7, 16080, Note_on_c, 5, 79, 0
7, 16080, Note_on_c, 5, 77, 100
7, 16080, Note_on_c, 5, 74, 100
7, 16110, Note_on_c, 5, 74, 0
7, 16110, Note_on_c, 5, 77, 0
7, 16110, Note_on_c, 5, 77, 100
7, 16110, Note_on_c, 5, 74, 100
7, 16140, Note_on_c, 5, 74, 0
7, 16140, Note_on_c, 5, 77, 0
7, 16140, Note_on_c, 5, 77, 100
7, 16140, Note_on_c, 5, 74, 100
7, 16170, Note_on_c, 5, 74, 0
7, 16170, Note_on_c, 5, 77, 0
7, 16170, Note_on_c, 5, 77, 100
7, 16170, Note_on_c, 5, 74, 100
7, 16200, Note_on_c, 5, 74, 0
7, 16200, Note_on_c, 5, 77, 0
7, 16200, Note_on_c, 5, 79, 100
7, 16200, Note_on_c, 5, 75, 100
7, 16230, Note_on_c, 5, 75, 0
7, 16230, Note_on_c, 5, 79, 0
7, 16230, Note_on_c, 5, 79, 100
7, 16230, Note_on_c, 5, 75, 100
7, 16260, Note_on_c, 5, 75, 0
7, 16260, Note_on_c, 5, 79, 0
7, 16260, Note_on_c, 5, 79, 100
7, 16260, Note_on_c, 5, 75, 100
7, 16290, Note_on_c, 5, 75, 0
7, 16290, Note_on_c, 5, 79, 0
7, 16290, Note_on_c, 5, 79, 100
7, 16290, Note_on_c, 5, 75, 100
7, 16320, Note_on_c, 5, 75, 0
7, 16320, Note_on_c, 5, 79, 0
7, 16320, Note_on_c, 5, 74, 100
7, 16320, Note_on_c, 5, 77, 100
7, 16440, Note_on_c, 5, 77, 0
7, 16440, Note_on_c, 5, 74, 0
7, 16530, Note_on_c, 5, 58, 100
7, 16560, Note_on_c, 5, 58, 0
7, 16560, Note_on_c, 5, 58, 100
7, 16680, Note_on_c, 5, 58, 0
7, 16680, Note_on_c, 5, 58, 100
7, 16800, Note_on_c, 5, 58, 0
7, 16800, Note_on_c, 5, 58, 100
7, 16920, Note_on_c, 5, 58, 0
7, 17250, Note_on_c, 5, 74, 100
7, 17265, Note_on_c, 5, 74, 0
7, 17265, Note_on_c, 5, 75, 100
7, 17280, Note_on_c, 5, 75, 0
7, 17280, Note_on_c, 5, 77, 100
7, 17340, Note_on_c, 5, 77, 0
7, 17340, Note_on_c, 5, 75, 100
7, 17400, Note_on_c, 5, 75, 0
7, 17400, Note_on_c, 5, 74, 100
7, 17460, Note_on_c, 5, 74, 0
7, 17460, Note_on_c, 5, 72, 100
7, 17520, Note_on_c, 5, 72, 0
7, 17520, Note_on_c, 5, 70, 100
7, 17580, Note_on_c, 5, 70, 0
7, 17580, Note_on_c, 5, 68, 100
7, 17640, Note_on_c, 5, 68, 0
7, 17640, Note_on_c, 5, 67, 100
7, 17700, Note_on_c, 5, 67, 0
7, 17700, Note_on_c, 5, 65, 100
7, 17760, Note_on_c, 5, 65, 0
7, 17760, Note_on_c, 5, 63, 100
7, 17880, Note_on_c, 5, 63, 0
7, 17880, Program_c, 5, 45
7, 18000, Note_on_c, 5, 79, 100
7, 18060, Note_on_c, 5, 79, 0
7, 18120, Note_on_c, 5, 75, 100
7, 18180, Note_on_c, 5, 75, 0
7, 18240, Note_on_c, 5, 70, 100
7, 18300, Note_on_c, 5, 70, 0
7, 18360, Note_on_c, 5, 67, 100
7, 18420, Note_on_c, 5, 67, 0
7, 18480, Note_on_c, 5, 63, 100
7, 18540, Note_on_c, 5, 63, 0
7, 18600, Note_on_c, 5, 58, 100
7, 18660, Note_on_c, 5, 58, 0
7, 18840, Note_on_c, 5, 70, 100
7, 18960, Note_on_c, 5, 70, 0
7, 19080, Note_on_c, 5, 70, 100
7, 19200, Note_on_c, 5, 70, 0
7, 19320, Note_on_c, 5, 70, 100
7, 19440, Note_on_c, 5, 70, 0
7, 19560, Note_on_c, 5, 70, 100
7, 19680, Note_on_c, 5, 70, 0
7, 19680, Note_on_c, 5, 55, 100
7, 19680, Note_on_c, 5, 63, 100
7, 19800, Note_on_c, 5, 63, 0
7, 19800, Note_on_c, 5, 55, 0
7, 19920, Note_on_c, 5, 79, 100
7, 19980, Note_on_c, 5, 79, 0
7, 20040, Note_on_c, 5, 75, 100
7, 20100, Note_on_c, 5, 75, 0
7, 20160, Note_on_c, 5, 70, 100
7, 20220, Note_on_c, 5, 70, 0
7, 20280, Note_on_c, 5, 67, 100
7, 20340, Note_on_c, 5, 67, 0
7, 20400, Note_on_c, 5, 63, 100
7, 20460, Note_on_c, 5, 63, 0
7, 20520, Note_on_c, 5, 58, 100
7, 20580, Note_on_c, 5, 58, 0
7, 20760, Note_on_c, 5, 70, 100
7, 20880, Note_on_c, 5, 70, 0
7, 21000, Note_on_c, 5, 70, 100
7, 21120, Note_on_c, 5, 70, 0
7, 21240, Note_on_c, 5, 70, 100
7, 21360, Note_on_c, 5, 70, 0
7, 21480, Note_on_c, 5, 70, 100
7, 21600, Note_on_c, 5, 70, 0
7, 21600, Program_c, 5, 40
7, 23760, Note_on_c, 5, 58, 100
7, 23940, Note_on_c, 5, 58, 0
7, 23940, Note_on_c, 5, 57, 100
7, 23970, Note_on_c, 5, 57, 0
7, 23970, Note_on_c, 5, 58, 100
7, 24000, Note_on_c, 5, 58, 0
7, 24000, Note_on_c, 5, 60, 100
7, 24180, Note_on_c, 5, 60, 0
7, 24180, Note_on_c, 5, 59, 100
7, 24210, Note_on_c, 5, 59, 0
7, 24210, Note_on_c, 5, 60, 100
7, 24240, Note_on_c, 5, 60, 0
7, 24240, Note_on_c, 5, 62, 100
7, 24420, Note_on_c, 5, 62, 0
7, 24420, Note_on_c, 5, 60, 100
7, 24450, Note_on_c, 5, 60, 0
7, 24450, Note_on_c, 5, 62, 100
7, 24480, Note_on_c, 5, 62, 0
7, 24480, Note_on_c, 5, 63, 100
7, 24600, Note_on_c, 5, 63, 0
7, 24720, Note_on_c, 5, 64, 100
7, 24900, Note_on_c, 5, 64, 0
7, 24900, Note_on_c, 5, 62, 100
7, 24930, Note_on_c, 5, 62, 0
7, 24930, Note_on_c, 5, 63, 100
7, 24960, Note_on_c, 5, 63, 0
7, 24960, Note_on_c, 5, 65, 100
7, 25080, Note_on_c, 5, 65, 0
7, 25200, Note_on_c, 5, 66, 100
7, 25380, Note_on_c, 5, 66, 0
7, 25380, Note_on_c, 5, 64, 100
7, 25410, Note_on_c, 5, 64, 0
7, 25410, Note_on_c, 5, 66, 100
7, 25440, Note_on_c, 5, 66, 0
7, 25440, Note_on_c, 5, 67, 100
7, 25560, Note_on_c, 5, 67, 0
7, 25680, Note_on_c, 5, 67, 100
7, 25860, Note_on_c, 5, 67, 0
7, 25860, Note_on_c, 5, 65, 100
7, 25890, Note_on_c, 5, 65, 0
7, 25890, Note_on_c, 5, 67, 100
7, 25920, Note_on_c, 5, 67, 0
7, 25920, Note_on_c, 5, 68, 100
7, 26100, Note_on_c, 5, 68, 0
7, 26100, Note_on_c, 5, 67, 100
7, 26130, Note_on_c, 5, 67, 0
7, 26130, Note_on_c, 5, 68, 100
7, 26160, Note_on_c, 5, 68, 0
7, 26160, Note_on_c, 5, 69, 100
7, 26340, Note_on_c, 5, 69, 0
7, 26340, Note_on_c, 5, 67, 100
7, 26370, Note_on_c, 5, 67, 0
7, 26370, Note_on_c, 5, 69, 100
7, 26400, Note_on_c, 5, 69, 0
7, 26400, Note_on_c, 5, 70, 100
7, 26580, Note_on_c, 5, 70, 0
7, 26580, Note_on_c, 5, 69, 100
7, 26610, Note_on_c, 5, 69, 0
7, 26610, Note_on_c, 5, 70, 100
7, 26640, Note_on_c, 5, 70, 0
7, 26640, Note_on_c, 5, 71, 100
7, 26820, Note_on_c, 5, 71, 0
7, 26820, Note_on_c, 5, 69, 100
7, 26850, Note_on_c, 5, 69, 0
7, 26850, Note_on_c, 5, 71, 100
7, 26880, Note_on_c, 5, 71, 0
7, 26880, Note_on_c, 5, 72, 100
7, 26910, Note_on_c, 5, 72, 0
7, 26910, Note_on_c, 5, 72, 100
7, 26940, Note_on_c, 5, 72, 0
7, 26940, Note_on_c, 5, 72, 100
7, 26970, Note_on_c, 5, 72, 0
7, 26970, Note_on_c, 5, 72, 100
7, 27000, Note_on_c, 5, 72, 0
7, 27000, Note_on_c, 5, 72, 100
7, 27030, Note_on_c, 5, 72, 0
7, 27030, Note_on_c, 5, 72, 100
7, 27060, Note_on_c, 5, 72, 0
7, 27060, Note_on_c, 5, 72, 100
7, 27090, Note_on_c, 5, 72, 0
7, 27090, Note_on_c, 5, 72, 100
7, 27120, Note_on_c, 5, 72, 0
7, 27120, Note_on_c, 5, 74, 100
7, 27150, Note_on_c, 5, 74, 0
7, 27150, Note_on_c, 5, 74, 100
7, 27180, Note_on_c, 5, 74, 0
7, 27180, Note_on_c, 5, 74, 100
7, 27210, Note_on_c, 5, 74, 0
7, 27210, Note_on_c, 5, 74, 100
7, 27240, Note_on_c, 5, 74, 0
7, 27240, Note_on_c, 5, 74, 100
7, 27270, Note_on_c, 5, 74, 0
7, 27270, Note_on_c, 5, 74, 100
7, 27300, Note_on_c, 5, 74, 0
7, 27300, Note_on_c, 5, 74, 100
7, 27330, Note_on_c, 5, 74, 0
7, 27330, Note_on_c, 5, 74, 100
7, 27360, Note_on_c, 5, 74, 0
7, 27360, Note_on_c, 5, 75, 100
7, 27420, Note_on_c, 5, 75, 0
7, 27420, Note_on_c, 5, 82, 100
7, 27420, Note_on_c, 5, 75, 100
7, 27540, Note_on_c, 5, 75, 0
7, 27540, Note_on_c, 5, 82, 0
7, 27540, Note_on_c, 5, 75, 100
7, 27540, Note_on_c, 5, 82, 100
7, 27660, Note_on_c, 5, 82, 0
7, 27660, Note_on_c, 5, 75, 0
7, 27660, Note_on_c, 5, 75, 100
7, 27660, Note_on_c, 5, 82, 100
7, 27780, Note_on_c, 5, 82, 0
7, 27780, Note_on_c, 5, 75, 0
7, 27780, Note_on_c, 5, 75, 100
7, 27780, Note_on_c, 5, 82, 100
7, 27900, Note_on_c, 5, 82, 0
7, 27900, Note_on_c, 5, 75, 0
7, 27900, Note_on_c, 5, 75, 100
7, 27900, Note_on_c, 5, 82, 100
7, 28020, Note_on_c, 5, 82, 0
7, 28020, Note_on_c, 5, 75, 0
7, 28020, Note_on_c, 5, 75, 100
7, 28020, Note_on_c, 5, 82, 100
7, 28140, Note_on_c, 5, 82, 0
7, 28140, Note_on_c, 5, 75, 0
7, 28140, Note_on_c, 5, 75, 100
7, 28140, Note_on_c, 5, 82, 100
7, 28260, Note_on_c, 5, 82, 0
7, 28260, Note_on_c, 5, 75, 0
7, 28260, Note_on_c, 5, 75, 100
7, 28260, Note_on_c, 5, 82, 100
7, 28320, Note_on_c, 5, 82, 0
7, 28320, Note_on_c, 5, 75, 0
7, 28320, Note_on_c, 5, 75, 100
7, 28320, Note_on_c, 5, 84, 100
7, 28380, Note_on_c, 5, 84, 0
7, 28380, Note_on_c, 5, 75, 0
7, 28380, Note_on_c, 5, 75, 100
7, 28380, Note_on_c, 5, 84, 100
7, 28500, Note_on_c, 5, 84, 0
7, 28500, Note_on_c, 5, 75, 0
7, 28500, Note_on_c, 5, 75, 100
7, 28500, Note_on_c, 5, 84, 100
7, 28620, Note_on_c, 5, 84, 0
7, 28620, Note_on_c, 5, 75, 0
7, 28620, Note_on_c, 5, 75, 100
7, 28620, Note_on_c, 5, 84, 100
7, 28740, Note_on_c, 5, 84, 0
7, 28740, Note_on_c, 5, 75, 0
7, 28740, Note_on_c, 5, 75, 100
7, 28740, Note_on_c, 5, 84, 100
7, 28860, Note_on_c, 5, 84, 0
7, 28860, Note_on_c, 5, 75, 0
7, 28860, Note_on_c, 5, 75, 100
7, 28860, Note_on_c, 5, 84, 100
7, 28980, Note_on_c, 5, 84, 0
7, 28980, Note_on_c, 5, 75, 0
7, 28980, Note_on_c, 5, 75, 100
7, 28980, Note_on_c, 5, 84, 100
7, 29100, Note_on_c, 5, 84, 0
7, 29100, Note_on_c, 5, 75, 0
7, 29100, Note_on_c, 5, 75, 100
7, 29100, Note_on_c, 5, 84, 100
7, 29220, Note_on_c, 5, 84, 0
7, 29220, Note_on_c, 5, 75, 0
7, 29220, Note_on_c, 5, 75, 100
7, 29220, Note_on_c, 5, 84, 100
7, 29340, Note_on_c, 5, 84, 0
7, 29340, Note_on_c, 5, 75, 0
7, 29340, Note_on_c, 5, 75, 100
7, 29460, Note_on_c, 5, 75, 0
7, 29460, Note_on_c, 5, 74, 100
7, 29580, Note_on_c, 5, 74, 0
7, 29580, Note_on_c, 5, 72, 100
7, 29700, Note_on_c, 5, 72, 0
7, 29700, Note_on_c, 5, 70, 100
7, 29820, Note_on_c, 5, 70, 0
7, 29820, Note_on_c, 5, 68, 100
7, 29940, Note_on_c, 5, 68, 0
7, 29940, Note_on_c, 5, 67, 100
7, 30060, Note_on_c, 5, 67, 0
7, 30060, Note_on_c, 5, 65, 100
7, 30180, Note_on_c, 5, 65, 0
7, 30180, Note_on_c, 5, 72, 100
7, 30300, Note_on_c, 5, 72, 0
7, 30300, Note_on_c, 5, 70, 100
7, 30420, Note_on_c, 5, 70, 0
7, 30420, Note_on_c, 5, 69, 100
7, 30540, Note_on_c, 5, 69, 0
7, 30540, Note_on_c, 5, 68, 100
7, 30660, Note_on_c, 5, 68, 0
7, 30660, Note_on_c, 5, 67, 100
7, 30780, Note_on_c, 5, 67, 0
7, 30780, Note_on_c, 5, 65, 100
7, 30840, Note_on_c, 5, 65, 0
7, 30840, Note_on_c, 5, 68, 100
7, 30900, Note_on_c, 5, 68, 0
7, 30900, Note_on_c, 5, 65, 100
7, 31020, Note_on_c, 5, 65, 0
7, 31020, Note_on_c, 5, 63, 100
7, 31140, Note_on_c, 5, 63, 0
7, 31140, Note_on_c, 5, 62, 100
7, 31200, Note_on_c, 5, 62, 0
7, 31200, Note_on_c, 5, 63, 100
7, 31320, Note_on_c, 5, 63, 0
7, 31680, Note_on_c, 5, 70, 100
7, 31800, Note_on_c, 5, 70, 0
7, 31800, Note_on_c, 5, 68, 100
7, 31920, Note_on_c, 5, 68, 0
7, 31920, Note_on_c, 5, 67, 100
7, 32040, Note_on_c, 5, 67, 0
7, 32040, Note_on_c, 5, 65, 100
7, 32160, Note_on_c, 5, 65, 0
7, 32160, Note_on_c, 5, 63, 100
7, 32280, Note_on_c, 5, 63, 0
7, 32610, Note_on_c, 5, 58, 100
7, 32640, Note_on_c, 5, 58, 0
7, 32640, Note_on_c, 5, 70, 100
7, 32760, Note_on_c, 5, 70, 0
7, 32760, Note_on_c, 5, 68, 100
7, 32880, Note_on_c, 5, 68, 0
7, 32880, Note_on_c, 5, 67, 100
7, 33000, Note_on_c, 5, 67, 0
7, 33000, Note_on_c, 5, 65, 100
7, 33120, Note_on_c, 5, 65, 0
7, 33120, Note_on_c, 5, 63, 100
7, 33240, Note_on_c, 5, 63, 0
7, 33480, Note_on_c, 5, 68, 100
7, 33720, Note_on_c, 5, 68, 0
7, 33720, Note_on_c, 5, 65, 100
7, 33840, Note_on_c, 5, 65, 0
7, 33960, Note_on_c, 5, 75, 100
7, 34200, Note_on_c, 5, 75, 0
7, 34200, Note_on_c, 5, 73, 100
7, 34320, Note_on_c, 5, 73, 0
7, 34440, Note_on_c, 5, 80, 100
7, 34500, Note_on_c, 5, 80, 0
7, 34560, Note_on_c, 5, 77, 100
7, 34620, Note_on_c, 5, 77, 0
7, 34680, Note_on_c, 5, 68, 100
7, 34740, Note_on_c, 5, 68, 0
7, 34800, Note_on_c, 5, 65, 100
7, 34860, Note_on_c, 5, 65, 0
7, 34920, Note_on_c, 5, 62, 100
7, 34980, Note_on_c, 5, 62, 0
7, 35040, Note_on_c, 5, 63, 100
7, 35100, Note_on_c, 5, 63, 0
7, 35100, Note_on_c, 5, 67, 100
7, 35160, Note_on_c, 5, 67, 0
7, 35160, Note_on_c, 5, 63, 100
7, 35220, Note_on_c, 5, 63, 0
7, 35220, Note_on_c, 5, 67, 100
7, 35280, Note_on_c, 5, 67, 0
7, 35280, Note_on_c, 5, 63, 100
7, 35340, Note_on_c, 5, 63, 0
7, 35340, Note_on_c, 5, 67, 100
7, 35400, Note_on_c, 5, 67, 0
7, 35400, Note_on_c, 5, 63, 100
7, 35460, Note_on_c, 5, 63, 0
7, 35460, Note_on_c, 5, 67, 100
7, 35520, Note_on_c, 5, 67, 0
7, 35520, Note_on_c, 5, 62, 100
7, 35580, Note_on_c, 5, 62, 0
7, 35580, Note_on_c, 5, 65, 100
7, 35640, Note_on_c, 5, 65, 0
7, 35640, Note_on_c, 5, 62, 100
7, 35700, Note_on_c, 5, 62, 0
7, 35700, Note_on_c, 5, 65, 100
7, 35760, Note_on_c, 5, 65, 0
7, 35760, Note_on_c, 5, 62, 100
7, 35820, Note_on_c, 5, 62, 0
7, 35820, Note_on_c, 5, 65, 100
7, 35880, Note_on_c, 5, 65, 0
7, 35880, Note_on_c, 5, 62, 100
7, 35940, Note_on_c, 5, 62, 0
7, 35940, Note_on_c, 5, 65, 100
7, 36000, Note_on_c, 5, 65, 0
7, 36000, Note_on_c, 5, 60, 100
7, 36060, Note_on_c, 5, 60, 0
7, 36060, Note_on_c, 5, 63, 100
7, 36120, Note_on_c, 5, 63, 0
7, 36120, Note_on_c, 5, 60, 100
7, 36180, Note_on_c, 5, 60, 0
7, 36180, Note_on_c, 5, 63, 100
7, 36240, Note_on_c, 5, 63, 0
7, 36240, Note_on_c, 5, 58, 100
7, 36300, Note_on_c, 5, 58, 0
7, 36300, Note_on_c, 5, 62, 100
7, 36360, Note_on_c, 5, 62, 0
7, 36360, Note_on_c, 5, 58, 100
7, 36420, Note_on_c, 5, 58, 0
7, 36420, Note_on_c, 5, 62, 100
7, 36480, Note_on_c, 5, 62, 0
7, 36480, Note_on_c, 5, 56, 100
7, 36540, Note_on_c, 5, 56, 0
7, 36540, Note_on_c, 5, 60, 100
7, 36600, Note_on_c, 5, 60, 0
7, 36600, Note_on_c, 5, 56, 100
7, 36660, Note_on_c, 5, 56, 0
7, 36660, Note_on_c, 5, 60, 100
7, 36720, Note_on_c, 5, 60, 0
7, 36720, Note_on_c, 5, 55, 100
7, 36780, Note_on_c, 5, 55, 0
7, 36960, Note_on_c, 5, 55, 100
7, 36960, Note_on_c, 5, 63, 100
7, 37200, Note_on_c, 5, 63, 0
7, 37200, Note_on_c, 5, 55, 0
7, 37200, Note_on_c, 5, 55, 100
7, 37200, Note_on_c, 5, 63, 100
7, 37380, Note_on_c, 5, 63, 0
7, 37380, Note_on_c, 5, 55, 0
7, 37380, Note_on_c, 5, 63, 100
7, 37440, Note_on_c, 5, 63, 0
7, 37440, Note_on_c, 5, 58, 100
7, 37920, Note_on_c, 5, 58, 0
7, 38040, Note_on_c, 5, 67, 100
7, 38160, Note_on_c, 5, 67, 0
7, 38160, Note_on_c, 5, 65, 100
7, 38280, Note_on_c, 5, 65, 0
7, 38280, Note_on_c, 5, 70, 100
7, 38400, Note_on_c, 5, 70, 0
7, 38400, Note_on_c, 5, 67, 100
7, 38520, Note_on_c, 5, 67, 0
7, 38520, Note_on_c, 5, 63, 100
7, 38640, Note_on_c, 5, 63, 0
7, 38640, Note_on_c, 5, 70, 100
7, 38760, Note_on_c, 5, 70, 0
7, 38880, Note_on_c, 5, 55, 100
7, 38880, Note_on_c, 5, 63, 100
7, 39120, Note_on_c, 5, 63, 0
7, 39120, Note_on_c, 5, 55, 0
7, 39120, Note_on_c, 5, 55, 100
7, 39120, Note_on_c, 5, 63, 100
7, 39300, Note_on_c, 5, 63, 0
7, 39300, Note_on_c, 5, 55, 0
7, 39300, Note_on_c, 5, 63, 100
7, 39360, Note_on_c, 5, 63, 0
7, 39360, Note_on_c, 5, 58, 100
7, 39840, Note_on_c, 5, 58, 0
7, 40800, Note_on_c, 5, 79, 100
7, 40860, Note_on_c, 5, 79, 0
7, 40920, Note_on_c, 5, 75, 100
7, 40980, Note_on_c, 5, 75, 0
7, 41040, Note_on_c, 5, 77, 100
7, 41100, Note_on_c, 5, 77, 0
7, 41160, Note_on_c, 5, 74, 100
7, 41220, Note_on_c, 5, 74, 0
7, 41280, Note_on_c, 5, 70, 100
7, 41340, Note_on_c, 5, 70, 0
7, 41400, Note_on_c, 5, 67, 100
7, 41460, Note_on_c, 5, 67, 0
7, 41520, Note_on_c, 5, 68, 100
7, 41580, Note_on_c, 5, 68, 0
7, 41640, Note_on_c, 5, 65, 100
7, 41700, Note_on_c, 5, 65, 0
7, 41760, Note_on_c, 5, 67, 100
7, 41880, Note_on_c, 5, 67, 0
7, 42840, Note_on_c, 5, 75, 100
7, 42870, Note_on_c, 5, 75, 0
7, 42870, Note_on_c, 5, 75, 100
7, 42900, Note_on_c, 5, 75, 0
7, 42900, Note_on_c, 5, 79, 100
7, 42930, Note_on_c, 5, 79, 0
7, 42930, Note_on_c, 5, 79, 100
7, 42960, Note_on_c, 5, 79, 0
7, 42960, Note_on_c, 5, 75, 100
7, 42990, Note_on_c, 5, 75, 0
7, 42990, Note_on_c, 5, 75, 100
7, 43020, Note_on_c, 5, 75, 0
7, 43020, Note_on_c, 5, 79, 100
7, 43050, Note_on_c, 5, 79, 0
7, 43050, Note_on_c, 5, 79, 100
7, 43080, Note_on_c, 5, 79, 0
7, 43080, Note_on_c, 5, 75, 100
7, 43110, Note_on_c, 5, 75, 0
7, 43110, Note_on_c, 5, 75, 100
7, 43140, Note_on_c, 5, 75, 0
7, 43140, Note_on_c, 5, 79, 100
7, 43170, Note_on_c, 5, 79, 0
7, 43170, Note_on_c, 5, 79, 100
7, 43200, Note_on_c, 5, 79, 0
7, 43320, Note_on_c, 5, 63, 100
7, 43320, Note_on_c, 5, 55, 100
7, 43350, Note_on_c, 5, 55, 0
7, 43350, Note_on_c, 5, 63, 0
7, 43350, Note_on_c, 5, 55, 100
7, 43350, Note_on_c, 5, 63, 100
7, 43380, Note_on_c, 5, 63, 0
7, 43380, Note_on_c, 5, 55, 0
7, 43380, Note_on_c, 5, 58, 100
7, 43380, Note_on_c, 5, 67, 100
7, 43410, Note_on_c, 5, 67, 0
7, 43410, Note_on_c, 5, 58, 0
7, 43410, Note_on_c, 5, 58, 100
7, 43410, Note_on_c, 5, 67, 100
7, 43440, Note_on_c, 5, 67, 0
7, 43440, Note_on_c, 5, 58, 0
7, 43440, Note_on_c, 5, 55, 100
7, 43440, Note_on_c, 5, 63, 100
7, 43470, Note_on_c, 5, 63, 0
7, 43470, Note_on_c, 5, 55, 0
7, 43470, Note_on_c, 5, 55, 100
7, 43470, Note_on_c, 5, 63, 100
7, 43500, Note_on_c, 5, 63, 0
7, 43500, Note_on_c, 5, 55, 0
7, 43500, Note_on_c, 5, 58, 100
7, 43500, Note_on_c, 5, 67, 100
7, 43530, Note_on_c, 5, 67, 0
7, 43530, Note_on_c, 5, 58, 0
7, 43530, Note_on_c, 5, 58, 100
7, 43530, Note_on_c, 5, 67, 100
7, 43560, Note_on_c, 5, 67, 0
7, 43560, Note_on_c, 5, 58, 0
7, 43560, Note_on_c, 5, 55, 100
7, 43560, Note_on_c, 5, 63, 100
7, 43590, Note_on_c, 5, 63, 0
7, 43590, Note_on_c, 5, 55, 0
7, 43590, Note_on_c, 5, 55, 100
7, 43590, Note_on_c, 5, 63, 100
7, 43620, Note_on_c, 5, 63, 0
7, 43620, Note_on_c, 5, 55, 0
7, 43620, Note_on_c, 5, 58, 100
7, 43620, Note_on_c, 5, 67, 100
7, 43650, Note_on_c, 5, 67, 0
7, 43650, Note_on_c, 5, 58, 0
7, 43650, Note_on_c, 5, 58, 100
7, 43650, Note_on_c, 5, 67, 100
7, 43680, Note_on_c, 5, 67, 0
7, 43680, Note_on_c, 5, 58, 0
7, 43680, Note_on_c, 5, 55, 100
7, 43680, Note_on_c, 5, 63, 100
7, 43800, Note_on_c, 5, 63, 0
7, 43800, Note_on_c, 5, 55, 0
7, 43920, Note_on_c, 5, 63, 100
7, 44160, Note_on_c, 5, 63, 0
7, 44160, Note_on_c, 5, 59, 100
7, 44400, Note_on_c, 5, 59, 0
7, 44400, Note_on_c, 5, 60, 100
7, 44640, Note_on_c, 5, 60, 0
7, 44640, Note_on_c, 5, 55, 100
7, 44760, Note_on_c, 5, 55, 0
7, 44760, Note_on_c, 5, 59, 100
7, 44880, Note_on_c, 5, 59, 0
7, 44880, Note_on_c, 5, 60, 100
7, 45000, Note_on_c, 5, 60, 0
7, 45000, Note_on_c, 5, 62, 100
7, 45120, Note_on_c, 5, 62, 0
7, 45240, Note_on_c, 5, 60, 100
7, 45360, Note_on_c, 5, 60, 0
7, 45360, Note_on_c, 5, 62, 100
7, 45480, Note_on_c, 5, 62, 0
7, 45480, Note_on_c, 5, 63, 100
7, 45600, Note_on_c, 5, 63, 0
7, 45600, Note_on_c, 5, 65, 100
7, 45660, Note_on_c, 5, 65, 0
7, 45660, Note_on_c, 5, 63, 100
7, 45720, Note_on_c, 5, 63, 0
7, 45720, Note_on_c, 5, 62, 100
7, 45780, Note_on_c, 5, 62, 0
7, 45780, Note_on_c, 5, 60, 100
7, 45840, Note_on_c, 5, 60, 0
7, 45840, Note_on_c, 5, 59, 100
7, 46080, Note_on_c, 5, 59, 0
7, 46080, Note_on_c, 5, 60, 100
7, 46200, Note_on_c, 5, 60, 0
7, 46680, Note_on_c, 5, 69, 100
7, 46800, Note_on_c, 5, 69, 0
7, 46800, Note_on_c, 5, 70, 100
7, 46920, Note_on_c, 5, 70, 0
7, 46920, Note_on_c, 5, 72, 100
7, 47040, Note_on_c, 5, 72, 0
7, 47160, Note_on_c, 5, 70, 100
7, 47280, Note_on_c, 5, 70, 0
7, 47280, Note_on_c, 5, 72, 100
7, 47400, Note_on_c, 5, 72, 0
7, 47400, Note_on_c, 5, 74, 100
7, 47520, Note_on_c, 5, 74, 0
7, 48060, Note_on_c, 5, 70, 100
7, 48120, Note_on_c, 5, 70, 0
7, 48120, Note_on_c, 5, 70, 100
7, 48180, Note_on_c, 5, 70, 0
7, 48180, Note_on_c, 5, 70, 100
7, 48240, Note_on_c, 5, 70, 0
7, 48240, Note_on_c, 5, 70, 100
7, 48300, Note_on_c, 5, 70, 0
7, 48300, Note_on_c, 5, 70, 100
7, 48360, Note_on_c, 5, 70, 0
7, 48360, Note_on_c, 5, 70, 100
7, 48420, Note_on_c, 5, 70, 0
7, 48420, Note_on_c, 5, 70, 100
7, 48480, Note_on_c, 5, 70, 0
7, 48480, Note_on_c, 5, 70, 100
7, 48600, Note_on_c, 5, 70, 0
7, 48720, Note_on_c, 5, 67, 100
7, 48840, Note_on_c, 5, 67, 0
7, 48960, Note_on_c, 5, 62, 100
7, 49440, Note_on_c, 5, 62, 0
7, 49560, Note_on_c, 5, 58, 100
7, 49680, Note_on_c, 5, 58, 0
7, 49680, Note_on_c, 5, 58, 100
7, 49800, Note_on_c, 5, 58, 0
7, 49800, Note_on_c, 5, 58, 100
7, 49920, Note_on_c, 5, 58, 0
7, 49920, Note_on_c, 5, 57, 100
7, 50040, Note_on_c, 5, 57, 0
7, 50040, Note_on_c, 5, 65, 100
7, 50100, Note_on_c, 5, 65, 0
7, 50100, Note_on_c, 5, 65, 100
7, 50160, Note_on_c, 5, 65, 0
7, 50160, Note_on_c, 5, 65, 100
7, 50220, Note_on_c, 5, 65, 0
7, 50220, Note_on_c, 5, 65, 100
7, 50280, Note_on_c, 5, 65, 0
7, 50280, Note_on_c, 5, 65, 100
7, 50340, Note_on_c, 5, 65, 0
7, 50340, Note_on_c, 5, 65, 100
7, 50400, Note_on_c, 5, 65, 0
7, 50400, Note_on_c, 5, 65, 100
7, 50520, Note_on_c, 5, 65, 0
7, 51360, Note_on_c, 5, 63, 100
7, 51480, Note_on_c, 5, 63, 0
7, 51480, Note_on_c, 5, 67, 100
7, 51600, Note_on_c, 5, 67, 0
7, 51600, Note_on_c, 5, 65, 100
7, 51720, Note_on_c, 5, 65, 0
7, 51720, Note_on_c, 5, 63, 100
7, 51840, Note_on_c, 5, 63, 0
7, 51840, Note_on_c, 5, 63, 100
7, 52320, Note_on_c, 5, 63, 0
7, 52320, Note_on_c, 5, 62, 100
7, 52440, Note_on_c, 5, 62, 0
7, 52440, Note_on_c, 5, 65, 100
7, 52560, Note_on_c, 5, 65, 0
7, 52560, Note_on_c, 5, 63, 100
7, 52680, Note_on_c, 5, 63, 0
7, 52680, Note_on_c, 5, 62, 100
7, 52800, Note_on_c, 5, 62, 0
7, 52800, Note_on_c, 5, 62, 100
7, 53280, Note_on_c, 5, 62, 0
7, 53280, Note_on_c, 5, 60, 100
7, 53400, Note_on_c, 5, 60, 0
7, 53400, Note_on_c, 5, 63, 100
7, 53520, Note_on_c, 5, 63, 0
7, 53520, Note_on_c, 5, 62, 100
7, 53640, Note_on_c, 5, 62, 0
7, 53640, Note_on_c, 5, 60, 100
7, 53760, Note_on_c, 5, 60, 0
7, 53760, Note_on_c, 5, 58, 100
7, 53880, Note_on_c, 5, 58, 0
7, 53880, Note_on_c, 5, 58, 100
7, 53940, Note_on_c, 5, 58, 0
7, 53940, Note_on_c, 5, 58, 100
7, 54000, Note_on_c, 5, 58, 0
7, 54000, Note_on_c, 5, 58, 100
7, 54060, Note_on_c, 5, 58, 0
7, 54060, Note_on_c, 5, 58, 100
7, 54120, Note_on_c, 5, 58, 0
7, 54120, Note_on_c, 5, 58, 100
7, 54180, Note_on_c, 5, 58, 0
7, 54180, Note_on_c, 5, 58, 100
7, 54240, Note_on_c, 5, 58, 0
7, 54240, Note_on_c, 5, 58, 100
7, 54360, Note_on_c, 5, 58, 0
7, 54720, Note_on_c, 5, 64, 100
7, 54840, Note_on_c, 5, 64, 0
7, 54840, Note_on_c, 5, 67, 100
7, 54960, Note_on_c, 5, 67, 0
7, 54960, Note_on_c, 5, 65, 100
7, 55080, Note_on_c, 5, 65, 0
7, 55080, Note_on_c, 5, 64, 100
7, 55200, Note_on_c, 5, 64, 0
7, 55200, Note_on_c, 5, 65, 100
7, 55680, Note_on_c, 5, 65, 0
7, 55680, Note_on_c, 5, 62, 100
7, 55800, Note_on_c, 5, 62, 0
7, 55800, Note_on_c, 5, 65, 100
7, 55920, Note_on_c, 5, 65, 0
7, 55920, Note_on_c, 5, 63, 100
7, 56040, Note_on_c, 5, 63, 0
7, 56040, Note_on_c, 5, 62, 100
7, 56160, Note_on_c, 5, 62, 0
7, 56160, Note_on_c, 5, 63, 100
7, 56640, Note_on_c, 5, 63, 0
7, 56640, Note_on_c, 5, 60, 100
7, 56760, Note_on_c, 5, 60, 0
7, 56760, Note_on_c, 5, 63, 100
7, 56880, Note_on_c, 5, 63, 0
7, 56880, Note_on_c, 5, 62, 100
7, 57000, Note_on_c, 5, 62, 0
7, 57000, Note_on_c, 5, 60, 100
7, 57120, Note_on_c, 5, 60, 0
7, 57120, Note_on_c, 5, 62, 100
7, 57600, Note_on_c, 5, 62, 0
7, 57600, Note_on_c, 5, 63, 100
7, 57720, Note_on_c, 5, 63, 0
7, 57780, Note_on_c, 5, 55, 100
7, 57840, Note_on_c, 5, 55, 0
7, 57840, Note_on_c, 5, 57, 100
7, 57960, Note_on_c, 5, 57, 0
7, 58020, Note_on_c, 5, 56, 100
7, 58080, Note_on_c, 5, 56, 0
7, 58080, Note_on_c, 5, 58, 100
7, 58200, Note_on_c, 5, 58, 0
7, 58260, Note_on_c, 5, 58, 100
7, 58320, Note_on_c, 5, 58, 0
7, 58320, Note_on_c, 5, 60, 100
7, 58440, Note_on_c, 5, 60, 0
7, 58500, Note_on_c, 5, 60, 100
7, 58560, Note_on_c, 5, 60, 0
7, 58560, Note_on_c, 5, 58, 100
7, 58620, Note_on_c, 5, 58, 0
7, 58620, Note_on_c, 5, 62, 100
7, 58680, Note_on_c, 5, 62, 0
7, 58740, Note_on_c, 5, 65, 100
7, 58800, Note_on_c, 5, 65, 0
7, 58860, Note_on_c, 5, 67, 100
7, 58920, Note_on_c, 5, 67, 0
7, 58980, Note_on_c, 5, 63, 100
7, 59040, Note_on_c, 5, 63, 0
7, 59040, Note_on_c, 5, 62, 100
7, 59100, Note_on_c, 5, 62, 0
7, 59100, Note_on_c, 5, 62, 100
7, 59160, Note_on_c, 5, 62, 0
7, 59160, Note_on_c, 5, 62, 100
7, 59220, Note_on_c, 5, 62, 0
7, 59220, Note_on_c, 5, 62, 100
7, 59280, Note_on_c, 5, 62, 0
7, 59280, Note_on_c, 5, 63, 100
7, 59340, Note_on_c, 5, 63, 0
7, 59340, Note_on_c, 5, 63, 100
7, 59400, Note_on_c, 5, 63, 0
7, 59400, Note_on_c, 5, 63, 100
7, 59460, Note_on_c, 5, 63, 0
7, 59460, Note_on_c, 5, 63, 100
7, 59520, Note_on_c, 5, 63, 0
7, 59520, Note_on_c, 5, 62, 100
7, 59640, Note_on_c, 5, 62, 0
7, 60060, Note_on_c, 5, 62, 100
7, 60120, Note_on_c, 5, 62, 0
7, 60120, Note_on_c, 5, 62, 100
7, 60180, Note_on_c, 5, 62, 0
7, 60180, Note_on_c, 5, 62, 100
7, 60240, Note_on_c, 5, 62, 0
7, 60300, Note_on_c, 5, 62, 100
7, 60360, Note_on_c, 5, 62, 0
7, 60360, Note_on_c, 5, 62, 100
7, 60420, Note_on_c, 5, 62, 0
7, 60420, Note_on_c, 5, 62, 100
7, 60480, Note_on_c, 5, 62, 0
7, 60540, Note_on_c, 5, 60, 100
7, 60600, Note_on_c, 5, 60, 0
7, 60600, Note_on_c, 5, 60, 100
7, 60660, Note_on_c, 5, 60, 0
7, 60660, Note_on_c, 5, 60, 100
7, 60720, Note_on_c, 5, 60, 0
7, 60780, Note_on_c, 5, 65, 100
7, 60840, Note_on_c, 5, 65, 0
7, 60840, Note_on_c, 5, 65, 100
7, 60900, Note_on_c, 5, 65, 0
7, 60900, Note_on_c, 5, 65, 100
7, 60960, Note_on_c, 5, 65, 0
7, 60960, Note_on_c, 5, 65, 100
7, 61380, Note_on_c, 5, 65, 0
7, 61380, Note_on_c, 5, 72, 100
7, 61440, Note_on_c, 5, 72, 0
7, 61440, Note_on_c, 5, 70, 100
7, 61680, Note_on_c, 5, 70, 0
7, 61680, Note_on_c, 5, 69, 100
7, 61800, Note_on_c, 5, 69, 0
7, 61980, Note_on_c, 5, 58, 100
7, 62040, Note_on_c, 5, 58, 0
7, 62040, Note_on_c, 5, 58, 100
7, 62100, Note_on_c, 5, 58, 0
7, 62100, Note_on_c, 5, 58, 100
7, 62160, Note_on_c, 5, 58, 0
7, 62220, Note_on_c, 5, 58, 100
7, 62280, Note_on_c, 5, 58, 0
7, 62280, Note_on_c, 5, 58, 100
7, 62340, Note_on_c, 5, 58, 0
7, 62340, Note_on_c, 5, 58, 100
7, 62400, Note_on_c, 5, 58, 0
7, 62460, Note_on_c, 5, 60, 100
7, 62520, Note_on_c, 5, 60, 0
7, 62520, Note_on_c, 5, 60, 100
7, 62580, Note_on_c, 5, 60, 0
7, 62580, Note_on_c, 5, 60, 100
7, 62640, Note_on_c, 5, 60, 0
7, 62700, Note_on_c, 5, 57, 100
7, 62760, Note_on_c, 5, 57, 0
7, 62760, Note_on_c, 5, 57, 100
7, 62820, Note_on_c, 5, 57, 0
7, 62820, Note_on_c, 5, 57, 100
7, 62880, Note_on_c, 5, 57, 0
7, 62880, Note_on_c, 5, 58, 100
7, 63000, Note_on_c, 5, 58, 0
7, 63000, Note_on_c, 5, 60, 100
7, 63120, Note_on_c, 5, 60, 0
7, 63120, Note_on_c, 5, 58, 100
7, 63240, Note_on_c, 5, 58, 0
7, 63240, Note_on_c, 5, 57, 100
7, 63360, Note_on_c, 5, 57, 0
7, 63360, Note_on_c, 5, 58, 100
7, 63420, Note_on_c, 5, 58, 0
7, 63420, Note_on_c, 5, 62, 100
7, 63480, Note_on_c, 5, 62, 0
7, 63480, Note_on_c, 5, 60, 100
7, 63540, Note_on_c, 5, 60, 0
7, 63540, Note_on_c, 5, 58, 100
7, 63600, Note_on_c, 5, 58, 0
7, 63600, Note_on_c, 5, 57, 100
7, 63660, Note_on_c, 5, 57, 0
7, 63900, Note_on_c, 5, 62, 100
7, 63960, Note_on_c, 5, 62, 0
7, 63960, Note_on_c, 5, 60, 100
7, 64020, Note_on_c, 5, 60, 0
7, 64020, Note_on_c, 5, 58, 100
7, 64080, Note_on_c, 5, 58, 0
7, 64080, Note_on_c, 5, 57, 100
7, 64140, Note_on_c, 5, 57, 0
7, 64380, Note_on_c, 5, 62, 100
7, 64380, Note_on_c, 5, 65, 100
7, 64500, Note_on_c, 5, 65, 0
7, 64500, Note_on_c, 5, 62, 0
7, 64500, Note_on_c, 5, 62, 100
7, 64500, Note_on_c, 5, 65, 100
7, 64620, Note_on_c, 5, 65, 0
7, 64620, Note_on_c, 5, 62, 0
7, 64620, Note_on_c, 5, 62, 100
7, 64620, Note_on_c, 5, 65, 100
7, 64740, Note_on_c, 5, 65, 0
7, 64740, Note_on_c, 5, 62, 0
7, 64740, Note_on_c, 5, 62, 100
7, 64740, Note_on_c, 5, 65, 100
7, 64800, Note_on_c, 5, 65, 0
7, 64800, Note_on_c, 5, 62, 0
7, 64800, Note_on_c, 5, 63, 100
7, 64920, Note_on_c, 5, 63, 0
7, 65160, Note_on_c, 5, 63, 100
7, 65280, Note_on_c, 5, 63, 0
7, 65280, Note_on_c, 5, 62, 100
7, 65340, Note_on_c, 5, 62, 0
7, 65400, Note_on_c, 5, 63, 100
7, 65460, Note_on_c, 5, 63, 0
7, 65520, Note_on_c, 5, 65, 100
7, 65580, Note_on_c, 5, 65, 0
7, 65640, Note_on_c, 5, 65, 100
7, 65700, Note_on_c, 5, 65, 0
7, 65760, Note_on_c, 5, 58, 100
7, 65880, Note_on_c, 5, 58, 0
7, 66060, Note_on_c, 5, 65, 100
7, 66120, Note_on_c, 5, 65, 0
7, 66120, Note_on_c, 5, 67, 100
7, 66180, Note_on_c, 5, 67, 0
7, 66180, Note_on_c, 5, 69, 100
7, 66240, Note_on_c, 5, 69, 0
7, 66240, Note_on_c, 5, 70, 100
7, 66300, Note_on_c, 5, 70, 0
7, 66540, Note_on_c, 5, 65, 100
7, 66600, Note_on_c, 5, 65, 0
7, 66600, Note_on_c, 5, 67, 100
7, 66660, Note_on_c, 5, 67, 0
7, 66660, Note_on_c, 5, 69, 100
7, 66720, Note_on_c, 5, 69, 0
7, 66720, Note_on_c, 5, 70, 100
7, 66840, Note_on_c, 5, 70, 0
7, 67560, Note_on_c, 5, 67, 100
7, 67650, Note_on_c, 5, 67, 0
7, 67650, Note_on_c, 5, 69, 100
7, 67680, Note_on_c, 5, 69, 0
7, 67680, Note_on_c, 5, 70, 100
7, 67740, Note_on_c, 5, 70, 0
7, 67800, Note_on_c, 5, 72, 100
7, 67860, Note_on_c, 5, 72, 0
7, 67920, Note_on_c, 5, 70, 100
7, 67980, Note_on_c, 5, 70, 0
7, 68040, Note_on_c, 5, 69, 100
7, 68100, Note_on_c, 5, 69, 0
7, 69720, Note_on_c, 5, 62, 100
7, 69840, Note_on_c, 5, 62, 0
7, 69840, Note_on_c, 5, 67, 100
7, 69960, Note_on_c, 5, 67, 0
7, 69960, Note_on_c, 5, 65, 100
7, 70080, Note_on_c, 5, 65, 0
7, 70080, Note_on_c, 5, 63, 100
7, 70320, Note_on_c, 5, 63, 0
7, 70320, Note_on_c, 5, 65, 100
7, 70440, Note_on_c, 5, 65, 0
7, 70440, Note_on_c, 5, 63, 100
7, 70560, Note_on_c, 5, 63, 0
7, 70560, Note_on_c, 5, 62, 100
7, 70620, Note_on_c, 5, 62, 0
7, 70680, Note_on_c, 5, 63, 100
7, 70740, Note_on_c, 5, 63, 0
7, 70800, Note_on_c, 5, 65, 100
7, 70860, Note_on_c, 5, 65, 0
7, 70920, Note_on_c, 5, 65, 100
7, 70980, Note_on_c, 5, 65, 0
7, 73440, Note_on_c, 5, 58, 100
7, 73980, Note_on_c, 5, 58, 0
7, 74040, Note_on_c, 5, 58, 100
7, 74100, Note_on_c, 5, 58, 0
7, 74160, Note_on_c, 5, 60, 100
7, 74220, Note_on_c, 5, 60, 0
7, 74280, Note_on_c, 5, 60, 100
7, 74340, Note_on_c, 5, 60, 0
7, 74400, Note_on_c, 5, 62, 100
7, 74460, Note_on_c, 5, 62, 0
7, 74460, Note_on_c, 5, 62, 100
7, 74520, Note_on_c, 5, 62, 0
7, 74520, Note_on_c, 5, 62, 100
7, 74580, Note_on_c, 5, 62, 0
7, 74580, Note_on_c, 5, 62, 100
7, 74640, Note_on_c, 5, 62, 0
7, 74640, Note_on_c, 5, 58, 100
7, 74700, Note_on_c, 5, 58, 0
7, 74700, Note_on_c, 5, 58, 100
7, 74760, Note_on_c, 5, 58, 0
7, 74760, Note_on_c, 5, 58, 100
7, 74820, Note_on_c, 5, 58, 0
7, 74820, Note_on_c, 5, 58, 100
7, 74880, Note_on_c, 5, 58, 0
7, 74880, Note_on_c, 5, 60, 100
7, 74910, Note_on_c, 5, 60, 0
7, 74910, Note_on_c, 5, 60, 100
7, 74940, Note_on_c, 5, 60, 0
7, 74940, Note_on_c, 5, 60, 100
7, 74970, Note_on_c, 5, 60, 0
7, 74970, Note_on_c, 5, 60, 100
7, 75000, Note_on_c, 5, 60, 0
7, 75000, Note_on_c, 5, 57, 100
7, 75030, Note_on_c, 5, 57, 0
7, 75030, Note_on_c, 5, 57, 100
7, 75060, Note_on_c, 5, 57, 0
7, 75060, Note_on_c, 5, 57, 100
7, 75090, Note_on_c, 5, 57, 0
7, 75090, Note_on_c, 5, 57, 100
7, 75120, Note_on_c, 5, 57, 0
7, 75120, Note_on_c, 5, 60, 100
7, 75150, Note_on_c, 5, 60, 0
7, 75150, Note_on_c, 5, 60, 100
7, 75180, Note_on_c, 5, 60, 0
7, 75180, Note_on_c, 5, 60, 100
7, 75210, Note_on_c, 5, 60, 0
7, 75210, Note_on_c, 5, 60, 100
7, 75240, Note_on_c, 5, 60, 0
7, 75240, Note_on_c, 5, 60, 100
7, 75270, Note_on_c, 5, 60, 0
7, 75270, Note_on_c, 5, 60, 100
7, 75300, Note_on_c, 5, 60, 0
7, 75300, Note_on_c, 5, 60, 100
7, 75330, Note_on_c, 5, 60, 0
7, 75330, Note_on_c, 5, 60, 100
7, 75360, Note_on_c, 5, 60, 0
7, 75360, Note_on_c, 5, 58, 100
7, 75390, Note_on_c, 5, 58, 0
7, 75390, Note_on_c, 5, 62, 100
7, 75420, Note_on_c, 5, 62, 0
7, 75420, Note_on_c, 5, 63, 100
7, 75450, Note_on_c, 5, 63, 0
7, 75450, Note_on_c, 5, 65, 100
7, 75480, Note_on_c, 5, 65, 0
7, 75480, Note_on_c, 5, 67, 100
7, 75510, Note_on_c, 5, 67, 0
7, 75510, Note_on_c, 5, 69, 100
7, 75540, Note_on_c, 5, 69, 0
7, 75540, Note_on_c, 5, 70, 100
7, 75570, Note_on_c, 5, 70, 0
7, 75570, Note_on_c, 5, 72, 100
7, 75600, Note_on_c, 5, 72, 0
7, 75600, Note_on_c, 5, 74, 100
7, 75630, Note_on_c, 5, 74, 0
7, 75630, Note_on_c, 5, 72, 100
7, 75660, Note_on_c, 5, 72, 0
7, 75660, Note_on_c, 5, 74, 100
7, 75690, Note_on_c, 5, 74, 0
7, 75690, Note_on_c, 5, 75, 100
7, 75720, Note_on_c, 5, 75, 0
7, 75720, Note_on_c, 5, 77, 100
7, 75750, Note_on_c, 5, 77, 0
7, 75750, Note_on_c, 5, 75, 100
7, 75780, Note_on_c, 5, 75, 0
7, 75780, Note_on_c, 5, 74, 100
7, 75810, Note_on_c, 5, 74, 0
7, 75810, Note_on_c, 5, 72, 100
7, 75840, Note_on_c, 5, 72, 0
7, 75840, Note_on_c, 5, 70, 100
7, 75870, Note_on_c, 5, 70, 0
7, 75870, Note_on_c, 5, 69, 100
7, 75900, Note_on_c, 5, 69, 0
7, 75900, Note_on_c, 5, 70, 100
7, 75930, Note_on_c, 5, 70, 0
7, 75930, Note_on_c, 5, 72, 100
7, 75960, Note_on_c, 5, 72, 0
7, 75960, Note_on_c, 5, 74, 100
7, 75990, Note_on_c, 5, 74, 0
7, 75990, Note_on_c, 5, 72, 100
7, 76020, Note_on_c, 5, 72, 0
7, 76020, Note_on_c, 5, 70, 100
7, 76050, Note_on_c, 5, 70, 0
7, 76050, Note_on_c, 5, 69, 100
7, 76080, Note_on_c, 5, 69, 0
7, 76080, Note_on_c, 5, 67, 100
7, 76110, Note_on_c, 5, 67, 0
7, 76110, Note_on_c, 5, 65, 100
7, 76140, Note_on_c, 5, 65, 0
7, 76140, Note_on_c, 5, 67, 100
7, 76170, Note_on_c, 5, 67, 0
7, 76170, Note_on_c, 5, 69, 100
7, 76200, Note_on_c, 5, 69, 0
7, 76200, Note_on_c, 5, 70, 100
7, 76230, Note_on_c, 5, 70, 0
7, 76230, Note_on_c, 5, 69, 100
7, 76260, Note_on_c, 5, 69, 0
7, 76260, Note_on_c, 5, 67, 100
7, 76290, Note_on_c, 5, 67, 0
7, 76290, Note_on_c, 5, 65, 100
7, 76320, Note_on_c, 5, 65, 0
7, 76320, Note_on_c, 5, 63, 100
7, 76380, Note_on_c, 5, 63, 0
7, 76380, Note_on_c, 5, 65, 100
7, 76410, Note_on_c, 5, 65, 0
7, 76410, Note_on_c, 5, 67, 100
7, 76440, Note_on_c, 5, 67, 0
7, 76440, Note_on_c, 5, 69, 100
7, 76470, Note_on_c, 5, 69, 0
7, 76470, Note_on_c, 5, 70, 100
7, 76500, Note_on_c, 5, 70, 0
7, 76500, Note_on_c, 5, 72, 100
7, 76530, Note_on_c, 5, 72, 0
7, 76530, Note_on_c, 5, 74, 100
7, 76560, Note_on_c, 5, 74, 0
7, 76560, Note_on_c, 5, 75, 100
7, 76590, Note_on_c, 5, 75, 0
7, 76590, Note_on_c, 5, 74, 100
7, 76620, Note_on_c, 5, 74, 0
7, 76620, Note_on_c, 5, 75, 100
7, 76650, Note_on_c, 5, 75, 0
7, 76650, Note_on_c, 5, 77, 100
7, 76680, Note_on_c, 5, 77, 0
7, 76680, Note_on_c, 5, 79, 100
7, 76710, Note_on_c, 5, 79, 0
7, 76710, Note_on_c, 5, 77, 100
7, 76740, Note_on_c, 5, 77, 0
7, 76740, Note_on_c, 5, 75, 100
7, 76770, Note_on_c, 5, 75, 0
7, 76770, Note_on_c, 5, 74, 100
7, 76800, Note_on_c, 5, 74, 0
7, 76800, Note_on_c, 5, 72, 100
7, 76830, Note_on_c, 5, 72, 0
7, 76830, Note_on_c, 5, 70, 100
7, 76860, Note_on_c, 5, 70, 0
7, 76860, Note_on_c, 5, 72, 100
7, 76890, Note_on_c, 5, 72, 0
7, 76890, Note_on_c, 5, 74, 100
7, 76920, Note_on_c, 5, 74, 0
7, 76920, Note_on_c, 5, 75, 100
7, 76950, Note_on_c, 5, 75, 0
7, 76950, Note_on_c, 5, 74, 100
7, 76980, Note_on_c, 5, 74, 0
7, 76980, Note_on_c, 5, 72, 100
7, 77010, Note_on_c, 5, 72, 0
7, 77010, Note_on_c, 5, 70, 100
7, 77040, Note_on_c, 5, 70, 0
7, 77040, Note_on_c, 5, 69, 100
7, 77070, Note_on_c, 5, 69, 0
7, 77070, Note_on_c, 5, 67, 100
7, 77100, Note_on_c, 5, 67, 0
7, 77100, Note_on_c, 5, 69, 100
7, 77130, Note_on_c, 5, 69, 0
7, 77130, Note_on_c, 5, 70, 100
7, 77160, Note_on_c, 5, 70, 0
7, 77160, Note_on_c, 5, 72, 100
7, 77190, Note_on_c, 5, 72, 0
7, 77190, Note_on_c, 5, 70, 100
7, 77220, Note_on_c, 5, 70, 0
7, 77220, Note_on_c, 5, 69, 100
7, 77250, Note_on_c, 5, 69, 0
7, 77250, Note_on_c, 5, 67, 100
7, 77280, Note_on_c, 5, 67, 0
7, 77280, Note_on_c, 5, 65, 100
7, 77340, Note_on_c, 5, 65, 0
7, 77340, Note_on_c, 5, 67, 100
7, 77370, Note_on_c, 5, 67, 0
7, 77370, Note_on_c, 5, 69, 100
7, 77400, Note_on_c, 5, 69, 0
7, 77400, Note_on_c, 5, 70, 100
7, 77430, Note_on_c, 5, 70, 0
7, 77430, Note_on_c, 5, 72, 100
7, 77460, Note_on_c, 5, 72, 0
7, 77460, Note_on_c, 5, 74, 100
7, 77490, Note_on_c, 5, 74, 0
7, 77490, Note_on_c, 5, 75, 100
7, 77520, Note_on_c, 5, 75, 0
7, 77520, Note_on_c, 5, 77, 100
7, 77550, Note_on_c, 5, 77, 0
7, 77550, Note_on_c, 5, 75, 100
7, 77580, Note_on_c, 5, 75, 0
7, 77580, Note_on_c, 5, 74, 100
7, 77610, Note_on_c, 5, 74, 0
7, 77610, Note_on_c, 5, 72, 100
7, 77640, Note_on_c, 5, 72, 0
7, 77640, Note_on_c, 5, 70, 100
7, 77670, Note_on_c, 5, 70, 0
7, 77670, Note_on_c, 5, 69, 100
7, 77700, Note_on_c, 5, 69, 0
7, 77700, Note_on_c, 5, 70, 100
7, 77730, Note_on_c, 5, 70, 0
7, 77730, Note_on_c, 5, 72, 100
7, 77760, Note_on_c, 5, 72, 0
7, 77760, Note_on_c, 5, 74, 100
7, 77790, Note_on_c, 5, 74, 0
7, 77790, Note_on_c, 5, 72, 100
7, 77820, Note_on_c, 5, 72, 0
7, 77820, Note_on_c, 5, 74, 100
7, 77850, Note_on_c, 5, 74, 0
7, 77850, Note_on_c, 5, 75, 100
7, 77880, Note_on_c, 5, 75, 0
7, 77880, Note_on_c, 5, 77, 100
7, 77910, Note_on_c, 5, 77, 0
7, 77910, Note_on_c, 5, 75, 100
7, 77940, Note_on_c, 5, 75, 0
7, 77940, Note_on_c, 5, 74, 100
7, 77970, Note_on_c, 5, 74, 0
7, 77970, Note_on_c, 5, 72, 100
7, 78000, Note_on_c, 5, 72, 0
7, 78000, Note_on_c, 5, 70, 100
7, 78030, Note_on_c, 5, 70, 0
7, 78030, Note_on_c, 5, 69, 100
7, 78060, Note_on_c, 5, 69, 0
7, 78060, Note_on_c, 5, 70, 100
7, 78090, Note_on_c, 5, 70, 0
7, 78090, Note_on_c, 5, 72, 100
7, 78120, Note_on_c, 5, 72, 0
7, 78120, Note_on_c, 5, 74, 100
7, 78150, Note_on_c, 5, 74, 0
7, 78150, Note_on_c, 5, 72, 100
7, 78180, Note_on_c, 5, 72, 0
7, 78180, Note_on_c, 5, 70, 100
7, 78210, Note_on_c, 5, 70, 0
7, 78210, Note_on_c, 5, 69, 100
7, 78240, Note_on_c, 5, 69, 0
7, 78240, Note_on_c, 5, 55, 100
7, 78240, Note_on_c, 5, 67, 100
7, 78480, Note_on_c, 5, 67, 0
7, 78480, Note_on_c, 5, 55, 0
7, 78480, Note_on_c, 5, 60, 100
7, 78510, Note_on_c, 5, 60, 0
7, 78510, Note_on_c, 5, 59, 100
7, 78540, Note_on_c, 5, 59, 0
7, 78540, Note_on_c, 5, 60, 100
7, 78570, Note_on_c, 5, 60, 0
7, 78570, Note_on_c, 5, 62, 100
7, 78600, Note_on_c, 5, 62, 0
7, 78600, Note_on_c, 5, 63, 100
7, 78630, Note_on_c, 5, 63, 0
7, 78630, Note_on_c, 5, 62, 100
7, 78660, Note_on_c, 5, 62, 0
7, 78660, Note_on_c, 5, 63, 100
7, 78690, Note_on_c, 5, 63, 0
7, 78690, Note_on_c, 5, 65, 100
7, 78720, Note_on_c, 5, 65, 0
7, 78720, Note_on_c, 5, 67, 100
7, 78750, Note_on_c, 5, 67, 0
7, 78750, Note_on_c, 5, 66, 100
7, 78780, Note_on_c, 5, 66, 0
7, 78780, Note_on_c, 5, 67, 100
7, 78810, Note_on_c, 5, 67, 0
7, 78810, Note_on_c, 5, 69, 100
7, 78840, Note_on_c, 5, 69, 0
7, 78840, Note_on_c, 5, 70, 100
7, 78870, Note_on_c, 5, 70, 0
7, 78870, Note_on_c, 5, 69, 100
7, 78900, Note_on_c, 5, 69, 0
7, 78900, Note_on_c, 5, 67, 100
7, 78930, Note_on_c, 5, 67, 0
7, 78930, Note_on_c, 5, 65, 100
7, 78960, Note_on_c, 5, 65, 0
7, 78960, Note_on_c, 5, 63, 100
7, 78990, Note_on_c, 5, 63, 0
7, 78990, Note_on_c, 5, 62, 100
7, 79020, Note_on_c, 5, 62, 0
7, 79020, Note_on_c, 5, 60, 100
7, 79050, Note_on_c, 5, 60, 0
7, 79050, Note_on_c, 5, 62, 100
7, 79080, Note_on_c, 5, 62, 0
7, 79080, Note_on_c, 5, 63, 100
7, 79110, Note_on_c, 5, 63, 0
7, 79110, Note_on_c, 5, 65, 100
7, 79140, Note_on_c, 5, 65, 0
7, 79140, Note_on_c, 5, 67, 100
7, 79170, Note_on_c, 5, 67, 0
7, 79170, Note_on_c, 5, 63, 100
7, 79200, Note_on_c, 5, 63, 0
7, 79200, Note_on_c, 5, 62, 100
7, 79200, Note_on_c, 5, 70, 100
7, 79230, Note_on_c, 5, 70, 0
7, 79230, Note_on_c, 5, 62, 0
7, 79230, Note_on_c, 5, 62, 100
7, 79230, Note_on_c, 5, 70, 100
7, 79260, Note_on_c, 5, 70, 0
7, 79260, Note_on_c, 5, 62, 0
7, 79260, Note_on_c, 5, 62, 100
7, 79260, Note_on_c, 5, 70, 100
7, 79290, Note_on_c, 5, 70, 0
7, 79290, Note_on_c, 5, 62, 0
7, 79290, Note_on_c, 5, 62, 100
7, 79290, Note_on_c, 5, 70, 100
7, 79320, Note_on_c, 5, 70, 0
7, 79320, Note_on_c, 5, 62, 0
7, 79320, Note_on_c, 5, 65, 100
7, 79320, Note_on_c, 5, 74, 100
7, 79350, Note_on_c, 5, 74, 0
7, 79350, Note_on_c, 5, 65, 0
7, 79350, Note_on_c, 5, 65, 100
7, 79350, Note_on_c, 5, 74, 100
7, 79380, Note_on_c, 5, 74, 0
7, 79380, Note_on_c, 5, 65, 0
7, 79380, Note_on_c, 5, 65, 100
7, 79380, Note_on_c, 5, 74, 100
7, 79410, Note_on_c, 5, 74, 0
7, 79410, Note_on_c, 5, 65, 0
7, 79410, Note_on_c, 5, 65, 100
7, 79410, Note_on_c, 5, 74, 100
7, 79440, Note_on_c, 5, 74, 0
7, 79440, Note_on_c, 5, 65, 0
7, 79440, Note_on_c, 5, 70, 100
7, 79440, Note_on_c, 5, 62, 100
7, 79470, Note_on_c, 5, 62, 0
7, 79470, Note_on_c, 5, 70, 0
7, 79470, Note_on_c, 5, 70, 100
7, 79470, Note_on_c, 5, 62, 100
7, 79500, Note_on_c, 5, 62, 0
7, 79500, Note_on_c, 5, 70, 0
7, 79500, Note_on_c, 5, 70, 100
7, 79500, Note_on_c, 5, 62, 100
7, 79530, Note_on_c, 5, 62, 0
7, 79530, Note_on_c, 5, 70, 0
7, 79530, Note_on_c, 5, 70, 100
7, 79530, Note_on_c, 5, 62, 100
7, 79560, Note_on_c, 5, 62, 0
7, 79560, Note_on_c, 5, 70, 0
7, 79560, Note_on_c, 5, 65, 100
7, 79560, Note_on_c, 5, 74, 100
7, 79590, Note_on_c, 5, 74, 0
7, 79590, Note_on_c, 5, 65, 0
7, 79590, Note_on_c, 5, 65, 100
7, 79590, Note_on_c, 5, 74, 100
7, 79620, Note_on_c, 5, 74, 0
7, 79620, Note_on_c, 5, 65, 0
7, 79620, Note_on_c, 5, 65, 100
7, 79620, Note_on_c, 5, 74, 100
7, 79650, Note_on_c, 5, 74, 0
7, 79650, Note_on_c, 5, 65, 0
7, 79650, Note_on_c, 5, 65, 100
7, 79650, Note_on_c, 5, 74, 100
7, 79680, Note_on_c, 5, 74, 0
7, 79680, Note_on_c, 5, 65, 0
7, 79680, Note_on_c, 5, 69, 100
7, 79680, Note_on_c, 5, 60, 100
7, 79710, Note_on_c, 5, 60, 0
7, 79710, Note_on_c, 5, 69, 0
7, 79710, Note_on_c, 5, 69, 100
7, 79710, Note_on_c, 5, 60, 100
7, 79740, Note_on_c, 5, 60, 0
7, 79740, Note_on_c, 5, 69, 0
7, 79740, Note_on_c, 5, 69, 100
7, 79740, Note_on_c, 5, 60, 100
7, 79770, Note_on_c, 5, 60, 0
7, 79770, Note_on_c, 5, 69, 0
7, 79770, Note_on_c, 5, 69, 100
7, 79770, Note_on_c, 5, 60, 100
7, 79800, Note_on_c, 5, 60, 0
7, 79800, Note_on_c, 5, 69, 0
7, 79800, Note_on_c, 5, 63, 100
7, 79800, Note_on_c, 5, 72, 100
7, 79830, Note_on_c, 5, 72, 0
7, 79830, Note_on_c, 5, 63, 0
7, 79830, Note_on_c, 5, 63, 100
7, 79830, Note_on_c, 5, 72, 100
7, 79860, Note_on_c, 5, 72, 0
7, 79860, Note_on_c, 5, 63, 0
7, 79860, Note_on_c, 5, 63, 100
7, 79860, Note_on_c, 5, 72, 100
7, 79890, Note_on_c, 5, 72, 0
7, 79890, Note_on_c, 5, 63, 0
7, 79890, Note_on_c, 5, 63, 100
7, 79890, Note_on_c, 5, 72, 100
7, 79920, Note_on_c, 5, 72, 0
7, 79920, Note_on_c, 5, 63, 0
7, 79920, Note_on_c, 5, 69, 100
7, 79920, Note_on_c, 5, 60, 100
7, 79950, Note_on_c, 5, 60, 0
7, 79950, Note_on_c, 5, 69, 0
7, 79950, Note_on_c, 5, 69, 100
7, 79950, Note_on_c, 5, 60, 100
7, 79980, Note_on_c, 5, 60, 0
7, 79980, Note_on_c, 5, 69, 0
7, 79980, Note_on_c, 5, 69, 100
7, 79980, Note_on_c, 5, 60, 100
7, 80010, Note_on_c, 5, 60, 0
7, 80010, Note_on_c, 5, 69, 0
7, 80010, Note_on_c, 5, 69, 100
7, 80010, Note_on_c, 5, 60, 100
7, 80040, Note_on_c, 5, 60, 0
7, 80040, Note_on_c, 5, 69, 0
7, 80040, Note_on_c, 5, 63, 100
7, 80040, Note_on_c, 5, 72, 100
7, 80070, Note_on_c, 5, 72, 0
7, 80070, Note_on_c, 5, 63, 0
7, 80070, Note_on_c, 5, 63, 100
7, 80070, Note_on_c, 5, 72, 100
7, 80100, Note_on_c, 5, 72, 0
7, 80100, Note_on_c, 5, 63, 0
7, 80100, Note_on_c, 5, 63, 100
7, 80100, Note_on_c, 5, 72, 100
7, 80130, Note_on_c, 5, 72, 0
7, 80130, Note_on_c, 5, 63, 0
7, 80130, Note_on_c, 5, 63, 100
7, 80130, Note_on_c, 5, 72, 100
7, 80160, Note_on_c, 5, 72, 0
7, 80160, Note_on_c, 5, 63, 0
7, 80160, Note_on_c, 5, 62, 100
7, 80160, Note_on_c, 5, 70, 100
7, 80220, Note_on_c, 5, 70, 0
7, 80220, Note_on_c, 5, 62, 0
7, 80220, Note_on_c, 5, 70, 100
7, 80220, Note_on_c, 5, 77, 100
7, 80340, Note_on_c, 5, 77, 0
7, 80340, Note_on_c, 5, 70, 0
7, 80340, Note_on_c, 5, 70, 100
7, 80340, Note_on_c, 5, 77, 100
7, 80460, Note_on_c, 5, 77, 0
7, 80460, Note_on_c, 5, 70, 0
7, 80460, Note_on_c, 5, 70, 100
7, 80460, Note_on_c, 5, 77, 100
7, 80580, Note_on_c, 5, 77, 0
7, 80580, Note_on_c, 5, 70, 0
7, 80580, Note_on_c, 5, 70, 100
7, 80580, Note_on_c, 5, 77, 100
7, 80700, Note_on_c, 5, 77, 0
7, 80700, Note_on_c, 5, 70, 0
7, 80700, Note_on_c, 5, 70, 100
7, 80700, Note_on_c, 5, 77, 100
7, 80820, Note_on_c, 5, 77, 0
7, 80820, Note_on_c, 5, 70, 0
7, 80820, Note_on_c, 5, 70, 100
7, 80820, Note_on_c, 5, 77, 100
7, 80940, Note_on_c, 5, 77, 0
7, 80940, Note_on_c, 5, 70, 0
7, 80940, Note_on_c, 5, 70, 100
7, 80940, Note_on_c, 5, 77, 100
7, 81060, Note_on_c, 5, 77, 0
7, 81060, Note_on_c, 5, 70, 0
7, 81060, Note_on_c, 5, 77, 100
7, 81060, Note_on_c, 5, 70, 100
7, 81120, Note_on_c, 5, 77, 0
7, 81120, Note_on_c, 5, 79, 100
7, 81180, Note_on_c, 5, 79, 0
7, 81180, Note_on_c, 5, 70, 0
7, 81180, Note_on_c, 5, 79, 100
7, 81180, Note_on_c, 5, 82, 100
7, 81300, Note_on_c, 5, 82, 0
7, 81300, Note_on_c, 5, 79, 0
7, 81300, Note_on_c, 5, 79, 100
7, 81300, Note_on_c, 5, 82, 100
7, 81420, Note_on_c, 5, 82, 0
7, 81420, Note_on_c, 5, 79, 0
7, 81420, Note_on_c, 5, 79, 100
7, 81420, Note_on_c, 5, 82, 100
7, 81540, Note_on_c, 5, 82, 0
7, 81540, Note_on_c, 5, 79, 0
7, 81540, Note_on_c, 5, 79, 100
7, 81540, Note_on_c, 5, 82, 100
7, 81660, Note_on_c, 5, 82, 0
7, 81660, Note_on_c, 5, 79, 0
7, 81660, Note_on_c, 5, 79, 100
7, 81660, Note_on_c, 5, 82, 100
7, 81780, Note_on_c, 5, 82, 0
7, 81780, Note_on_c, 5, 79, 0
7, 81780, Note_on_c, 5, 79, 100
7, 81780, Note_on_c, 5, 82, 100
7, 81900, Note_on_c, 5, 82, 0
7, 81900, Note_on_c, 5, 79, 0
7, 81900, Note_on_c, 5, 79, 100
7, 81900, Note_on_c, 5, 82, 100
7, 82020, Note_on_c, 5, 82, 0
7, 82020, Note_on_c, 5, 79, 0
7, 82020, Note_on_c, 5, 79, 100
7, 82020, Note_on_c, 5, 82, 100
7, 82080, Note_on_c, 5, 82, 0
7, 82080, Note_on_c, 5, 79, 0
7, 82080, Note_on_c, 5, 81, 100
7, 82140, Note_on_c, 5, 81, 0
7, 82140, Note_on_c, 5, 69, 100
7, 82140, Note_on_c, 5, 72, 100
7, 82260, Note_on_c, 5, 72, 0
7, 82260, Note_on_c, 5, 69, 0
7, 82260, Note_on_c, 5, 69, 100
7, 82260, Note_on_c, 5, 72, 100
7, 82380, Note_on_c, 5, 72, 0
7, 82380, Note_on_c, 5, 69, 0
7, 82380, Note_on_c, 5, 69, 100
7, 82380, Note_on_c, 5, 72, 100
7, 82500, Note_on_c, 5, 72, 0
7, 82500, Note_on_c, 5, 69, 0
7, 82500, Note_on_c, 5, 69, 100
7, 82500, Note_on_c, 5, 72, 100
7, 82620, Note_on_c, 5, 72, 0
7, 82620, Note_on_c, 5, 69, 0
7, 82620, Note_on_c, 5, 57, 100
7, 82740, Note_on_c, 5, 57, 0
7, 82740, Note_on_c, 5, 57, 100
7, 82860, Note_on_c, 5, 57, 0
7, 82860, Note_on_c, 5, 57, 100
7, 82980, Note_on_c, 5, 57, 0
7, 82980, Note_on_c, 5, 57, 100
7, 83040, Note_on_c, 5, 57, 0
7, 83040, Note_on_c, 5, 55, 100
7, 83100, Note_on_c, 5, 55, 0
7, 83100, Note_on_c, 5, 55, 100
7, 83160, Note_on_c, 5, 55, 0
7, 83160, Note_on_c, 5, 57, 100
7, 83220, Note_on_c, 5, 57, 0
7, 83220, Note_on_c, 5, 58, 100
7, 83280, Note_on_c, 5, 58, 0
7, 83340, Note_on_c, 5, 60, 100
7, 83400, Note_on_c, 5, 60, 0
7, 83400, Note_on_c, 5, 58, 100
7, 83460, Note_on_c, 5, 58, 0
7, 83460, Note_on_c, 5, 57, 100
7, 83520, Note_on_c, 5, 57, 0
7, 83580, Note_on_c, 5, 55, 100
7, 83640, Note_on_c, 5, 55, 0
7, 83640, Note_on_c, 5, 58, 100
7, 83700, Note_on_c, 5, 58, 0
7, 83700, Note_on_c, 5, 55, 100
7, 83760, Note_on_c, 5, 55, 0
7, 83820, Note_on_c, 5, 58, 100
7, 83880, Note_on_c, 5, 58, 0
7, 83880, Note_on_c, 5, 62, 100
7, 83940, Note_on_c, 5, 62, 0
7, 83940, Note_on_c, 5, 58, 100
7, 84000, Note_on_c, 5, 58, 0
7, 84000, Note_on_c, 5, 63, 100
7, 84240, Note_on_c, 5, 63, 0
7, 84600, Note_on_c, 5, 67, 100
7, 84720, Note_on_c, 5, 67, 0
7, 84720, Note_on_c, 5, 66, 100
7, 84840, Note_on_c, 5, 66, 0
7, 85080, Note_on_c, 5, 67, 100
7, 85200, Note_on_c, 5, 67, 0
7, 85200, Note_on_c, 5, 66, 100
7, 85320, Note_on_c, 5, 66, 0
7, 85800, Note_on_c, 5, 55, 100
7, 85920, Note_on_c, 5, 55, 0
7, 85920, Note_on_c, 5, 57, 100
7, 85980, Note_on_c, 5, 57, 0
7, 86040, Note_on_c, 5, 57, 100
7, 86100, Note_on_c, 5, 57, 0
7, 86160, Note_on_c, 5, 57, 100
7, 86220, Note_on_c, 5, 57, 0
7, 86280, Note_on_c, 5, 57, 100
7, 86340, Note_on_c, 5, 57, 0
7, 86400, Note_on_c, 5, 55, 100
7, 86460, Note_on_c, 5, 55, 0
7, 86460, Note_on_c, 5, 70, 100
7, 86460, Note_on_c, 5, 79, 100
7, 86580, Note_on_c, 5, 79, 0
7, 86580, Note_on_c, 5, 70, 0
7, 86580, Note_on_c, 5, 70, 100
7, 86580, Note_on_c, 5, 79, 100
7, 86700, Note_on_c, 5, 79, 0
7, 86700, Note_on_c, 5, 70, 0
7, 86700, Note_on_c, 5, 70, 100
7, 86700, Note_on_c, 5, 79, 100
7, 86820, Note_on_c, 5, 79, 0
7, 86820, Note_on_c, 5, 70, 0
7, 86820, Note_on_c, 5, 70, 100
7, 86820, Note_on_c, 5, 79, 100
7, 86940, Note_on_c, 5, 79, 0
7, 86940, Note_on_c, 5, 70, 0
7, 86940, Note_on_c, 5, 70, 100
7, 86940, Note_on_c, 5, 79, 100
7, 87060, Note_on_c, 5, 79, 0
7, 87060, Note_on_c, 5, 70, 0
7, 87060, Note_on_c, 5, 70, 100
7, 87060, Note_on_c, 5, 79, 100
7, 87180, Note_on_c, 5, 79, 0
7, 87180, Note_on_c, 5, 70, 0
7, 87180, Note_on_c, 5, 70, 100
7, 87180, Note_on_c, 5, 79, 100
7, 87300, Note_on_c, 5, 79, 0
7, 87300, Note_on_c, 5, 70, 0
7, 87300, Note_on_c, 5, 79, 100
7, 87300, Note_on_c, 5, 70, 100
7, 87360, Note_on_c, 5, 79, 0
7, 87360, Note_on_c, 5, 77, 100
7, 87420, Note_on_c, 5, 77, 0
7, 87420, Note_on_c, 5, 70, 0
7, 87420, Note_on_c, 5, 74, 100
7, 87420, Note_on_c, 5, 82, 100
7, 87540, Note_on_c, 5, 82, 0
7, 87540, Note_on_c, 5, 74, 0
7, 87540, Note_on_c, 5, 74, 100
7, 87540, Note_on_c, 5, 82, 100
7, 87660, Note_on_c, 5, 82, 0
7, 87660, Note_on_c, 5, 74, 0
7, 87660, Note_on_c, 5, 74, 100
7, 87660, Note_on_c, 5, 82, 100
7, 87780, Note_on_c, 5, 82, 0
7, 87780, Note_on_c, 5, 74, 0
7, 87780, Note_on_c, 5, 74, 100
7, 87780, Note_on_c, 5, 82, 100
7, 87900, Note_on_c, 5, 82, 0
7, 87900, Note_on_c, 5, 74, 0
7, 87900, Note_on_c, 5, 74, 100
7, 87900, Note_on_c, 5, 82, 100
7, 88020, Note_on_c, 5, 82, 0
7, 88020, Note_on_c, 5, 74, 0
7, 88020, Note_on_c, 5, 74, 100
7, 88020, Note_on_c, 5, 82, 100
7, 88140, Note_on_c, 5, 82, 0
7, 88140, Note_on_c, 5, 74, 0
7, 88140, Note_on_c, 5, 74, 100
7, 88140, Note_on_c, 5, 82, 100
7, 88260, Note_on_c, 5, 82, 0
7, 88260, Note_on_c, 5, 74, 0
7, 88260, Note_on_c, 5, 82, 100
7, 88260, Note_on_c, 5, 74, 100
7, 88320, Note_on_c, 5, 82, 0
7, 88320, Note_on_c, 5, 83, 100
7, 88380, Note_on_c, 5, 83, 0
7, 88380, Note_on_c, 5, 74, 0
7, 88380, Note_on_c, 5, 59, 100
7, 88380, Note_on_c, 5, 62, 100
7, 88500, Note_on_c, 5, 62, 0
7, 88500, Note_on_c, 5, 59, 0
7, 88500, Note_on_c, 5, 59, 100
7, 88500, Note_on_c, 5, 62, 100
7, 88620, Note_on_c, 5, 62, 0
7, 88620, Note_on_c, 5, 59, 0
7, 88620, Note_on_c, 5, 59, 100
7, 88620, Note_on_c, 5, 62, 100
7, 88740, Note_on_c, 5, 62, 0
7, 88740, Note_on_c, 5, 59, 0
7, 88740, Note_on_c, 5, 59, 100
7, 88740, Note_on_c, 5, 62, 100
7, 88860, Note_on_c, 5, 62, 0
7, 88860, Note_on_c, 5, 59, 0
7, 88860, Note_on_c, 5, 59, 100
7, 88860, Note_on_c, 5, 62, 100
7, 88980, Note_on_c, 5, 62, 0
7, 88980, Note_on_c, 5, 59, 0
7, 88980, Note_on_c, 5, 59, 100
7, 88980, Note_on_c, 5, 62, 100
7, 89100, Note_on_c, 5, 62, 0
7, 89100, Note_on_c, 5, 59, 0
7, 89100, Note_on_c, 5, 59, 100
7, 89100, Note_on_c, 5, 62, 100
7, 89220, Note_on_c, 5, 62, 0
7, 89220, Note_on_c, 5, 59, 0
7, 89220, Note_on_c, 5, 59, 100
7, 89220, Note_on_c, 5, 62, 100
7, 89280, Note_on_c, 5, 62, 0
7, 89280, Note_on_c, 5, 59, 0
7, 89280, Note_on_c, 5, 60, 100
7, 89400, Note_on_c, 5, 60, 0
7, 90240, Note_on_c, 5, 56, 100
7, 90480, Note_on_c, 5, 56, 0
7, 91800, Note_on_c, 5, 63, 100
7, 91920, Note_on_c, 5, 63, 0
7, 91920, Note_on_c, 5, 62, 100
7, 92040, Note_on_c, 5, 62, 0
7, 92040, Note_on_c, 5, 60, 100
7, 92160, Note_on_c, 5, 60, 0
7, 92160, Note_on_c, 5, 59, 100
7, 92220, Note_on_c, 5, 59, 0
7, 92280, Note_on_c, 5, 59, 100
7, 92340, Note_on_c, 5, 59, 0
7, 92400, Note_on_c, 5, 59, 100
7, 92460, Note_on_c, 5, 59, 0
7, 92520, Note_on_c, 5, 59, 100
7, 92580, Note_on_c, 5, 59, 0
7, 92640, Note_on_c, 5, 60, 100
7, 92760, Note_on_c, 5, 60, 0
7, 93360, Note_on_c, 5, 75, 100
7, 93420, Note_on_c, 5, 75, 0
7, 93420, Note_on_c, 5, 74, 100
7, 93480, Note_on_c, 5, 74, 0
7, 93480, Note_on_c, 5, 72, 100
7, 93540, Note_on_c, 5, 72, 0
7, 93540, Note_on_c, 5, 71, 100
7, 93600, Note_on_c, 5, 71, 0
7, 93600, Note_on_c, 5, 72, 100
7, 93720, Note_on_c, 5, 72, 0
7, 94320, Note_on_c, 5, 80, 100
7, 94380, Note_on_c, 5, 80, 0
7, 94380, Note_on_c, 5, 79, 100
7, 94440, Note_on_c, 5, 79, 0
7, 94440, Note_on_c, 5, 77, 100
7, 94500, Note_on_c, 5, 77, 0
7, 94500, Note_on_c, 5, 76, 100
7, 94560, Note_on_c, 5, 76, 0
7, 94560, Note_on_c, 5, 77, 100
7, 94680, Note_on_c, 5, 77, 0
7, 95280, Note_on_c, 5, 74, 100
7, 95340, Note_on_c, 5, 74, 0
7, 95340, Note_on_c, 5, 72, 100
7, 95400, Note_on_c, 5, 72, 0
7, 95400, Note_on_c, 5, 70, 100
7, 95460, Note_on_c, 5, 70, 0
7, 95460, Note_on_c, 5, 69, 100
7, 95520, Note_on_c, 5, 69, 0
7, 95520, Note_on_c, 5, 70, 100
7, 95640, Note_on_c, 5, 70, 0
7, 96240, Note_on_c, 5, 79, 100
7, 96300, Note_on_c, 5, 79, 0
7, 96300, Note_on_c, 5, 77, 100
7, 96360, Note_on_c, 5, 77, 0
7, 96360, Note_on_c, 5, 75, 100
7, 96420, Note_on_c, 5, 75, 0
7, 96420, Note_on_c, 5, 74, 100
7, 96480, Note_on_c, 5, 74, 0
7, 96480, Note_on_c, 5, 75, 100
7, 96600, Note_on_c, 5, 75, 0
7, 96720, Note_on_c, 5, 61, 100
7, 96960, Note_on_c, 5, 61, 0
7, 96960, Note_on_c, 5, 60, 100
7, 97200, Note_on_c, 5, 60, 0
7, 97200, Note_on_c, 5, 58, 100
7, 97440, Note_on_c, 5, 58, 0
7, 97440, Note_on_c, 5, 57, 100
7, 97680, Note_on_c, 5, 57, 0
7, 97680, Note_on_c, 5, 63, 100
7, 97920, Note_on_c, 5, 63, 0
7, 97920, Note_on_c, 5, 62, 100
7, 98160, Note_on_c, 5, 62, 0
7, 98160, Note_on_c, 5, 60, 100
7, 98400, Note_on_c, 5, 60, 0
7, 98400, Note_on_c, 5, 59, 100
7, 98640, Note_on_c, 5, 59, 0
7, 98640, Note_on_c, 5, 65, 100
7, 98880, Note_on_c, 5, 65, 0
7, 98880, Note_on_c, 5, 63, 100
7, 99120, Note_on_c, 5, 63, 0
7, 99120, Note_on_c, 5, 61, 100
7, 99360, Note_on_c, 5, 61, 0
7, 99360, Note_on_c, 5, 60, 100
7, 99600, Note_on_c, 5, 60, 0
7, 99600, Note_on_c, 5, 58, 100
7, 99840, Note_on_c, 5, 58, 0
7, 99840, Note_on_c, 5, 56, 100
7, 99960, Note_on_c, 5, 56, 0
7, 99960, Note_on_c, 5, 58, 100
7, 100080, Note_on_c, 5, 58, 0
7, 100080, Note_on_c, 5, 60, 100
7, 100200, Note_on_c, 5, 60, 0
7, 100200, Note_on_c, 5, 63, 100
7, 100320, Note_on_c, 5, 63, 0
7, 100320, Note_on_c, 5, 62, 100
7, 100440, Note_on_c, 5, 62, 0
7, 105360, Note_on_c, 5, 58, 100
7, 105390, Note_on_c, 5, 58, 0
7, 105390, Note_on_c, 5, 57, 100
7, 105420, Note_on_c, 5, 57, 0
7, 105420, Note_on_c, 5, 58, 100
7, 105450, Note_on_c, 5, 58, 0
7, 105450, Note_on_c, 5, 57, 100
7, 105480, Note_on_c, 5, 57, 0
7, 105480, Note_on_c, 5, 58, 100
7, 105510, Note_on_c, 5, 58, 0
7, 105510, Note_on_c, 5, 57, 100
7, 105540, Note_on_c, 5, 57, 0
7, 105540, Note_on_c, 5, 58, 100
7, 105570, Note_on_c, 5, 58, 0
7, 105570, Note_on_c, 5, 57, 100
7, 105600, Note_on_c, 5, 57, 0
7, 105600, Note_on_c, 5, 58, 100
7, 106140, Note_on_c, 5, 58, 0
7, 106200, Note_on_c, 5, 58, 100
7, 106260, Note_on_c, 5, 58, 0
7, 106320, Note_on_c, 5, 58, 100
7, 106380, Note_on_c, 5, 58, 0
7, 106440, Note_on_c, 5, 58, 100
7, 106500, Note_on_c, 5, 58, 0
7, 106560, Note_on_c, 5, 55, 100
7, 106560, Note_on_c, 5, 63, 100
7, 107040, Note_on_c, 5, 63, 0
7, 107040, Note_on_c, 5, 55, 0
7, 107040, Note_on_c, 5, 55, 100
7, 107040, Note_on_c, 5, 63, 100
7, 107280, Note_on_c, 5, 63, 0
7, 107280, Note_on_c, 5, 55, 0
7, 107280, Note_on_c, 5, 55, 100
7, 107280, Note_on_c, 5, 63, 100
7, 107460, Note_on_c, 5, 63, 0
7, 107460, Note_on_c, 5, 55, 0
7, 107460, Note_on_c, 5, 55, 100
7, 107460, Note_on_c, 5, 63, 100
7, 107520, Note_on_c, 5, 63, 0
7, 107520, Note_on_c, 5, 55, 0
7, 107520, Note_on_c, 5, 55, 100
7, 107550, Note_on_c, 5, 55, 0
7, 107550, Note_on_c, 5, 58, 100
7, 107580, Note_on_c, 5, 58, 0
7, 107580, Note_on_c, 5, 63, 100
7, 107610, Note_on_c, 5, 63, 0
7, 107610, Note_on_c, 5, 58, 100
7, 107640, Note_on_c, 5, 58, 0
7, 107640, Note_on_c, 5, 63, 100
7, 107670, Note_on_c, 5, 63, 0
7, 107670, Note_on_c, 5, 58, 100
7, 107700, Note_on_c, 5, 58, 0
7, 107700, Note_on_c, 5, 63, 100
7, 107730, Note_on_c, 5, 63, 0
7, 107730, Note_on_c, 5, 58, 100
7, 107760, Note_on_c, 5, 58, 0
7, 107760, Note_on_c, 5, 55, 100
7, 107790, Note_on_c, 5, 55, 0
7, 107790, Note_on_c, 5, 58, 100
7, 107820, Note_on_c, 5, 58, 0
7, 107820, Note_on_c, 5, 63, 100
7, 107850, Note_on_c, 5, 63, 0
7, 107850, Note_on_c, 5, 58, 100
7, 107880, Note_on_c, 5, 58, 0
7, 107880, Note_on_c, 5, 63, 100
7, 107910, Note_on_c, 5, 63, 0
7, 107910, Note_on_c, 5, 58, 100
7, 107940, Note_on_c, 5, 58, 0
7, 107940, Note_on_c, 5, 63, 100
7, 107970, Note_on_c, 5, 63, 0
7, 107970, Note_on_c, 5, 58, 100
7, 108000, Note_on_c, 5, 58, 0
7, 108000, Note_on_c, 5, 55, 100
7, 108030, Note_on_c, 5, 55, 0
7, 108030, Note_on_c, 5, 58, 100
7, 108060, Note_on_c, 5, 58, 0
7, 108060, Note_on_c, 5, 63, 100
7, 108090, Note_on_c, 5, 63, 0
7, 108090, Note_on_c, 5, 58, 100
7, 108120, Note_on_c, 5, 58, 0
7, 108120, Note_on_c, 5, 63, 100
7, 108150, Note_on_c, 5, 63, 0
7, 108150, Note_on_c, 5, 58, 100
7, 108180, Note_on_c, 5, 58, 0
7, 108180, Note_on_c, 5, 63, 100
7, 108210, Note_on_c, 5, 63, 0
7, 108210, Note_on_c, 5, 58, 100
7, 108240, Note_on_c, 5, 58, 0
7, 108240, Note_on_c, 5, 55, 100
7, 108270, Note_on_c, 5, 55, 0
7, 108270, Note_on_c, 5, 58, 100
7, 108300, Note_on_c, 5, 58, 0
7, 108300, Note_on_c, 5, 63, 100
7, 108330, Note_on_c, 5, 63, 0
7, 108330, Note_on_c, 5, 58, 100
7, 108360, Note_on_c, 5, 58, 0
7, 108360, Note_on_c, 5, 63, 100
7, 108390, Note_on_c, 5, 63, 0
7, 108390, Note_on_c, 5, 58, 100
7, 108420, Note_on_c, 5, 58, 0
7, 108420, Note_on_c, 5, 63, 100
7, 108450, Note_on_c, 5, 63, 0
7, 108450, Note_on_c, 5, 58, 100
7, 108480, Note_on_c, 5, 58, 0
7, 108480, Note_on_c, 5, 56, 100
7, 108510, Note_on_c, 5, 56, 0
7, 108510, Note_on_c, 5, 58, 100
7, 108540, Note_on_c, 5, 58, 0
7, 108540, Note_on_c, 5, 62, 100
7, 108570, Note_on_c, 5, 62, 0
7, 108570, Note_on_c, 5, 58, 100
7, 108600, Note_on_c, 5, 58, 0
7, 108600, Note_on_c, 5, 62, 100
7, 108630, Note_on_c, 5, 62, 0
7, 108630, Note_on_c, 5, 58, 100
7, 108660, Note_on_c, 5, 58, 0
7, 108660, Note_on_c, 5, 62, 100
7, 108690, Note_on_c, 5, 62, 0
7, 108690, Note_on_c, 5, 58, 100
7, 108720, Note_on_c, 5, 58, 0
7, 108720, Note_on_c, 5, 56, 100
7, 108750, Note_on_c, 5, 56, 0
7, 108750, Note_on_c, 5, 58, 100
7, 108780, Note_on_c, 5, 58, 0
7, 108780, Note_on_c, 5, 62, 100
7, 108810, Note_on_c, 5, 62, 0
7, 108810, Note_on_c, 5, 58, 100
7, 108840, Note_on_c, 5, 58, 0
7, 108840, Note_on_c, 5, 62, 100
7, 108870, Note_on_c, 5, 62, 0
7, 108870, Note_on_c, 5, 58, 100
7, 108900, Note_on_c, 5, 58, 0
7, 108900, Note_on_c, 5, 62, 100
7, 108930, Note_on_c, 5, 62, 0
7, 108930, Note_on_c, 5, 58, 100
7, 108960, Note_on_c, 5, 58, 0
7, 108960, Note_on_c, 5, 56, 100
7, 108990, Note_on_c, 5, 56, 0
7, 108990, Note_on_c, 5, 58, 100
7, 109020, Note_on_c, 5, 58, 0
7, 109020, Note_on_c, 5, 62, 100
7, 109050, Note_on_c, 5, 62, 0
7, 109050, Note_on_c, 5, 58, 100
7, 109080, Note_on_c, 5, 58, 0
7, 109080, Note_on_c, 5, 62, 100
7, 109110, Note_on_c, 5, 62, 0
7, 109110, Note_on_c, 5, 58, 100
7, 109140, Note_on_c, 5, 58, 0
7, 109140, Note_on_c, 5, 62, 100
7, 109170, Note_on_c, 5, 62, 0
7, 109170, Note_on_c, 5, 58, 100
7, 109200, Note_on_c, 5, 58, 0
7, 109200, Note_on_c, 5, 56, 100
7, 109230, Note_on_c, 5, 56, 0
7, 109230, Note_on_c, 5, 58, 100
7, 109260, Note_on_c, 5, 58, 0
7, 109260, Note_on_c, 5, 62, 100
7, 109290, Note_on_c, 5, 62, 0
7, 109290, Note_on_c, 5, 58, 100
7, 109320, Note_on_c, 5, 58, 0
7, 109320, Note_on_c, 5, 62, 100
7, 109350, Note_on_c, 5, 62, 0
7, 109350, Note_on_c, 5, 58, 100
7, 109380, Note_on_c, 5, 58, 0
7, 109380, Note_on_c, 5, 62, 100
7, 109410, Note_on_c, 5, 62, 0
7, 109410, Note_on_c, 5, 58, 100
7, 109440, Note_on_c, 5, 58, 0
7, 109440, Note_on_c, 5, 55, 100
7, 109440, Note_on_c, 5, 63, 100
7, 109560, Note_on_c, 5, 63, 0
7, 109560, Note_on_c, 5, 55, 0
7, 109800, Note_on_c, 5, 68, 100
7, 110040, Note_on_c, 5, 68, 0
7, 110040, Note_on_c, 5, 65, 100
7, 110160, Note_on_c, 5, 65, 0
7, 110280, Note_on_c, 5, 75, 100
7, 110520, Note_on_c, 5, 75, 0
7, 110520, Note_on_c, 5, 73, 100
7, 110640, Note_on_c, 5, 73, 0
7, 110760, Note_on_c, 5, 80, 100
7, 110820, Note_on_c, 5, 80, 0
7, 110880, Note_on_c, 5, 77, 100
7, 110940, Note_on_c, 5, 77, 0
7, 111000, Note_on_c, 5, 68, 100
7, 111060, Note_on_c, 5, 68, 0
7, 111120, Note_on_c, 5, 65, 100
7, 111180, Note_on_c, 5, 65, 0
7, 111240, Note_on_c, 5, 62, 100
7, 111300, Note_on_c, 5, 62, 0
7, 111360, Note_on_c, 5, 63, 100
7, 111420, Note_on_c, 5, 63, 0
7, 111420, Note_on_c, 5, 67, 100
7, 111480, Note_on_c, 5, 67, 0
7, 111480, Note_on_c, 5, 63, 100
7, 111540, Note_on_c, 5, 63, 0
7, 111540, Note_on_c, 5, 67, 100
7, 111600, Note_on_c, 5, 67, 0
7, 111600, Note_on_c, 5, 63, 100
7, 111660, Note_on_c, 5, 63, 0
7, 111660, Note_on_c, 5, 67, 100
7, 111720, Note_on_c, 5, 67, 0
7, 111720, Note_on_c, 5, 63, 100
7, 111780, Note_on_c, 5, 63, 0
7, 111780, Note_on_c, 5, 67, 100
7, 111840, Note_on_c, 5, 67, 0
7, 111840, Note_on_c, 5, 62, 100
7, 111900, Note_on_c, 5, 62, 0
7, 111900, Note_on_c, 5, 65, 100
7, 111960, Note_on_c, 5, 65, 0
7, 111960, Note_on_c, 5, 62, 100
7, 112020, Note_on_c, 5, 62, 0
7, 112020, Note_on_c, 5, 65, 100
7, 112080, Note_on_c, 5, 65, 0
7, 112080, Note_on_c, 5, 62, 100
7, 112140, Note_on_c, 5, 62, 0
7, 112140, Note_on_c, 5, 65, 100
7, 112200, Note_on_c, 5, 65, 0
7, 112200, Note_on_c, 5, 62, 100
7, 112260, Note_on_c, 5, 62, 0
7, 112260, Note_on_c, 5, 65, 100
7, 112320, Note_on_c, 5, 65, 0
7, 112320, Note_on_c, 5, 60, 100
7, 112380, Note_on_c, 5, 60, 0
7, 112380, Note_on_c, 5, 63, 100
7, 112440, Note_on_c, 5, 63, 0
7, 112440, Note_on_c, 5, 60, 100
7, 112500, Note_on_c, 5, 60, 0
7, 112500, Note_on_c, 5, 63, 100
7, 112560, Note_on_c, 5, 63, 0
7, 112560, Note_on_c, 5, 58, 100
7, 112620, Note_on_c, 5, 58, 0
7, 112620, Note_on_c, 5, 62, 100
7, 112680, Note_on_c, 5, 62, 0
7, 112680, Note_on_c, 5, 58, 100
7, 112740, Note_on_c, 5, 58, 0
7, 112740, Note_on_c, 5, 62, 100
7, 112800, Note_on_c, 5, 62, 0
7, 112800, Note_on_c, 5, 56, 100
7, 112860, Note_on_c, 5, 56, 0
7, 112860, Note_on_c, 5, 60, 100
7, 112920, Note_on_c, 5, 60, 0
7, 112920, Note_on_c, 5, 56, 100
7, 112980, Note_on_c, 5, 56, 0
7, 112980, Note_on_c, 5, 60, 100
7, 113040, Note_on_c, 5, 60, 0
7, 113040, Note_on_c, 5, 55, 100
7, 113160, Note_on_c, 5, 55, 0
7, 113280, Note_on_c, 5, 55, 100
7, 113280, Note_on_c, 5, 63, 100
7, 113520, Note_on_c, 5, 63, 0
7, 113520, Note_on_c, 5, 55, 0
7, 113520, Note_on_c, 5, 55, 100
7, 113520, Note_on_c, 5, 63, 100
7, 113700, Note_on_c, 5, 63, 0
7, 113700, Note_on_c, 5, 55, 0
7, 113700, Note_on_c, 5, 63, 100
7, 113760, Note_on_c, 5, 63, 0
7, 113760, Note_on_c, 5, 58, 100
7, 114240, Note_on_c, 5, 58, 0
7, 115200, Note_on_c, 5, 55, 100
7, 115200, Note_on_c, 5, 63, 100
7, 115440, Note_on_c, 5, 63, 0
7, 115440, Note_on_c, 5, 55, 0
7, 115440, Note_on_c, 5, 55, 100
7, 115440, Note_on_c, 5, 63, 100
7, 115620, Note_on_c, 5, 63, 0
7, 115620, Note_on_c, 5, 55, 0
7, 115620, Note_on_c, 5, 63, 100
7, 115680, Note_on_c, 5, 63, 0
7, 115680, Note_on_c, 5, 58, 100
7, 116160, Note_on_c, 5, 58, 0
7, 117120, Note_on_c, 5, 70, 100
7, 117180, Note_on_c, 5, 70, 0
7, 117240, Note_on_c, 5, 67, 100
7, 117300, Note_on_c, 5, 67, 0
7, 117360, Note_on_c, 5, 68, 100
7, 117420, Note_on_c, 5, 68, 0
7, 117480, Note_on_c, 5, 65, 100
7, 117540, Note_on_c, 5, 65, 0
7, 117600, Note_on_c, 5, 79, 100
7, 117660, Note_on_c, 5, 79, 0
7, 117720, Note_on_c, 5, 75, 100
7, 117780, Note_on_c, 5, 75, 0
7, 117840, Note_on_c, 5, 77, 100
7, 117900, Note_on_c, 5, 77, 0
7, 117960, Note_on_c, 5, 74, 100
7, 118020, Note_on_c, 5, 74, 0
7, 118080, Note_on_c, 5, 75, 100
7, 118200, Note_on_c, 5, 75, 0
7, 119160, Note_on_c, 5, 75, 100
7, 119190, Note_on_c, 5, 75, 0
7, 119190, Note_on_c, 5, 75, 100
7, 119220, Note_on_c, 5, 75, 0
7, 119220, Note_on_c, 5, 79, 100
7, 119250, Note_on_c, 5, 79, 0
7, 119250, Note_on_c, 5, 79, 100
7, 119280, Note_on_c, 5, 79, 0
7, 119280, Note_on_c, 5, 75, 100
7, 119310, Note_on_c, 5, 75, 0
7, 119310, Note_on_c, 5, 75, 100
7, 119340, Note_on_c, 5, 75, 0
7, 119340, Note_on_c, 5, 79, 100
7, 119370, Note_on_c, 5, 79, 0
7, 119370, Note_on_c, 5, 79, 100
7, 119400, Note_on_c, 5, 79, 0
7, 119400, Note_on_c, 5, 75, 100
7, 119430, Note_on_c, 5, 75, 0
7, 119430, Note_on_c, 5, 75, 100
7, 119460, Note_on_c, 5, 75, 0
7, 119460, Note_on_c, 5, 79, 100
7, 119490, Note_on_c, 5, 79, 0
7, 119490, Note_on_c, 5, 79, 100
7, 119520, Note_on_c, 5, 79, 0
7, 119520, Note_on_c, 5, 75, 100
7, 119640, Note_on_c, 5, 75, 0
7, 119640, Note_on_c, 5, 55, 100
7, 119640, Note_on_c, 5, 63, 100
7, 119670, Note_on_c, 5, 63, 0
7, 119670, Note_on_c, 5, 55, 0
7, 119670, Note_on_c, 5, 55, 100
7, 119670, Note_on_c, 5, 63, 100
7, 119700, Note_on_c, 5, 63, 0
7, 119700, Note_on_c, 5, 55, 0
7, 119700, Note_on_c, 5, 58, 100
7, 119700, Note_on_c, 5, 67, 100
7, 119730, Note_on_c, 5, 67, 0
7, 119730, Note_on_c, 5, 58, 0
7, 119730, Note_on_c, 5, 58, 100
7, 119730, Note_on_c, 5, 67, 100
7, 119760, Note_on_c, 5, 67, 0
7, 119760, Note_on_c, 5, 58, 0
7, 119760, Note_on_c, 5, 55, 100
7, 119760, Note_on_c, 5, 63, 100
7, 119790, Note_on_c, 5, 63, 0
7, 119790, Note_on_c, 5, 55, 0
7, 119790, Note_on_c, 5, 55, 100
7, 119790, Note_on_c, 5, 63, 100
7, 119820, Note_on_c, 5, 63, 0
7, 119820, Note_on_c, 5, 55, 0
7, 119820, Note_on_c, 5, 58, 100
7, 119820, Note_on_c, 5, 67, 100
7, 119850, Note_on_c, 5, 67, 0
7, 119850, Note_on_c, 5, 58, 0
7, 119850, Note_on_c, 5, 58, 100
7, 119850, Note_on_c, 5, 67, 100
7, 119880, Note_on_c, 5, 67, 0
7, 119880, Note_on_c, 5, 58, 0
7, 119880, Note_on_c, 5, 55, 100
7, 119880, Note_on_c, 5, 63, 100
7, 119910, Note_on_c, 5, 63, 0
7, 119910, Note_on_c, 5, 55, 0
7, 119910, Note_on_c, 5, 55, 100
7, 119910, Note_on_c, 5, 63, 100
7, 119940, Note_on_c, 5, 63, 0
7, 119940, Note_on_c, 5, 55, 0
7, 119940, Note_on_c, 5, 58, 100
7, 119940, Note_on_c, 5, 67, 100
7, 119970, Note_on_c, 5, 67, 0
7, 119970, Note_on_c, 5, 58, 0
7, 119970, Note_on_c, 5, 58, 100
7, 119970, Note_on_c, 5, 67, 100
7, 120000, Note_on_c, 5, 67, 0
7, 120000, Note_on_c, 5, 58, 0
7, 120000, Note_on_c, 5, 55, 100
7, 120000, Note_on_c, 5, 63, 100
7, 120120, Note_on_c, 5, 63, 0
7, 120120, Note_on_c, 5, 55, 0
7, 120240, Note_on_c, 5, 63, 100
7, 120480, Note_on_c, 5, 63, 0
7, 120480, Note_on_c, 5, 62, 100
7, 120720, Note_on_c, 5, 62, 0
7, 120720, Note_on_c, 5, 61, 100
7, 120960, Note_on_c, 5, 61, 0
7, 120960, Note_on_c, 5, 60, 100
7, 121080, Note_on_c, 5, 60, 0
7, 121080, Note_on_c, 5, 55, 100
7, 121200, Note_on_c, 5, 55, 0
7, 121200, Note_on_c, 5, 56, 100
7, 121320, Note_on_c, 5, 56, 0
7, 121320, Note_on_c, 5, 58, 100
7, 121440, Note_on_c, 5, 58, 0
7, 121560, Note_on_c, 5, 56, 100
7, 121680, Note_on_c, 5, 56, 0
7, 121680, Note_on_c, 5, 58, 100
7, 121800, Note_on_c, 5, 58, 0
7, 121800, Note_on_c, 5, 60, 100
7, 121920, Note_on_c, 5, 60, 0
7, 121920, Note_on_c, 5, 61, 100
7, 121980, Note_on_c, 5, 61, 0
7, 121980, Note_on_c, 5, 60, 100
7, 122040, Note_on_c, 5, 60, 0
7, 122040, Note_on_c, 5, 58, 100
7, 122100, Note_on_c, 5, 58, 0
7, 122100, Note_on_c, 5, 56, 100
7, 122160, Note_on_c, 5, 56, 0
7, 122160, Note_on_c, 5, 55, 100
7, 122400, Note_on_c, 5, 55, 0
7, 122400, Note_on_c, 5, 56, 100
7, 122520, Note_on_c, 5, 56, 0
7, 123000, Note_on_c, 5, 62, 100
7, 123120, Note_on_c, 5, 62, 0
7, 123120, Note_on_c, 5, 63, 100
7, 123240, Note_on_c, 5, 63, 0
7, 123240, Note_on_c, 5, 65, 100
7, 123360, Note_on_c, 5, 65, 0
7, 123480, Note_on_c, 5, 63, 100
7, 123600, Note_on_c, 5, 63, 0
7, 123600, Note_on_c, 5, 65, 100
7, 123720, Note_on_c, 5, 65, 0
7, 123720, Note_on_c, 5, 67, 100
7, 123840, Note_on_c, 5, 67, 0
7, 124380, Note_on_c, 5, 63, 100
7, 124440, Note_on_c, 5, 63, 0
7, 124440, Note_on_c, 5, 63, 100
7, 124500, Note_on_c, 5, 63, 0
7, 124500, Note_on_c, 5, 63, 100
7, 124560, Note_on_c, 5, 63, 0
7, 124560, Note_on_c, 5, 63, 100
7, 124620, Note_on_c, 5, 63, 0
7, 124620, Note_on_c, 5, 63, 100
7, 124680, Note_on_c, 5, 63, 0
7, 124680, Note_on_c, 5, 63, 100
7, 124740, Note_on_c, 5, 63, 0
7, 124740, Note_on_c, 5, 63, 100
7, 124800, Note_on_c, 5, 63, 0
7, 124800, Note_on_c, 5, 63, 100
7, 124920, Note_on_c, 5, 63, 0
7, 125040, Note_on_c, 5, 63, 100
7, 125160, Note_on_c, 5, 63, 0
7, 125280, Note_on_c, 5, 72, 100
7, 125760, Note_on_c, 5, 72, 0
7, 125880, Note_on_c, 5, 63, 100
7, 126000, Note_on_c, 5, 63, 0
7, 126000, Note_on_c, 5, 63, 100
7, 126120, Note_on_c, 5, 63, 0
7, 126120, Note_on_c, 5, 63, 100
7, 126240, Note_on_c, 5, 63, 0
7, 126240, Note_on_c, 5, 62, 100
7, 126360, Note_on_c, 5, 62, 0
7, 126360, Note_on_c, 5, 58, 100
7, 126420, Note_on_c, 5, 58, 0
7, 126420, Note_on_c, 5, 58, 100
7, 126480, Note_on_c, 5, 58, 0
7, 126480, Note_on_c, 5, 58, 100
7, 126540, Note_on_c, 5, 58, 0
7, 126540, Note_on_c, 5, 58, 100
7, 126600, Note_on_c, 5, 58, 0
7, 126600, Note_on_c, 5, 58, 100
7, 126660, Note_on_c, 5, 58, 0
7, 126660, Note_on_c, 5, 58, 100
7, 126720, Note_on_c, 5, 58, 0
7, 126720, Note_on_c, 5, 58, 100
7, 126840, Note_on_c, 5, 58, 0
7, 127200, Note_on_c, 5, 64, 100
7, 127320, Note_on_c, 5, 64, 0
7, 127320, Note_on_c, 5, 67, 100
7, 127440, Note_on_c, 5, 67, 0
7, 127440, Note_on_c, 5, 65, 100
7, 127560, Note_on_c, 5, 65, 0
7, 127560, Note_on_c, 5, 64, 100
7, 127680, Note_on_c, 5, 64, 0
7, 127680, Note_on_c, 5, 65, 100
7, 128160, Note_on_c, 5, 65, 0
7, 128160, Note_on_c, 5, 62, 100
7, 128280, Note_on_c, 5, 62, 0
7, 128280, Note_on_c, 5, 65, 100
7, 128400, Note_on_c, 5, 65, 0
7, 128400, Note_on_c, 5, 63, 100
7, 128520, Note_on_c, 5, 63, 0
7, 128520, Note_on_c, 5, 62, 100
7, 128640, Note_on_c, 5, 62, 0
7, 128640, Note_on_c, 5, 63, 100
7, 129120, Note_on_c, 5, 63, 0
7, 129120, Note_on_c, 5, 60, 100
7, 129240, Note_on_c, 5, 60, 0
7, 129240, Note_on_c, 5, 63, 100
7, 129360, Note_on_c, 5, 63, 0
7, 129360, Note_on_c, 5, 62, 100
7, 129480, Note_on_c, 5, 62, 0
7, 129480, Note_on_c, 5, 60, 100
7, 129600, Note_on_c, 5, 60, 0
7, 129600, Note_on_c, 5, 62, 100
7, 130080, Note_on_c, 5, 62, 0
7, 130080, Note_on_c, 5, 63, 100
7, 130200, Note_on_c, 5, 63, 0
7, 130200, Note_on_c, 5, 63, 100
7, 130200, Note_on_c, 5, 55, 100
7, 130260, Note_on_c, 5, 55, 0
7, 130260, Note_on_c, 5, 63, 0
7, 130260, Note_on_c, 5, 63, 100
7, 130260, Note_on_c, 5, 55, 100
7, 130320, Note_on_c, 5, 55, 0
7, 130320, Note_on_c, 5, 63, 0
7, 130320, Note_on_c, 5, 63, 100
7, 130320, Note_on_c, 5, 55, 100
7, 130380, Note_on_c, 5, 55, 0
7, 130380, Note_on_c, 5, 63, 0
7, 130380, Note_on_c, 5, 63, 100
7, 130380, Note_on_c, 5, 55, 100
7, 130440, Note_on_c, 5, 55, 0
7, 130440, Note_on_c, 5, 63, 0
7, 130440, Note_on_c, 5, 63, 100
7, 130440, Note_on_c, 5, 55, 100
7, 130500, Note_on_c, 5, 55, 0
7, 130500, Note_on_c, 5, 63, 0
7, 130500, Note_on_c, 5, 63, 100
7, 130500, Note_on_c, 5, 55, 100
7, 130560, Note_on_c, 5, 55, 0
7, 130560, Note_on_c, 5, 63, 0
7, 130560, Note_on_c, 5, 55, 100
7, 130560, Note_on_c, 5, 63, 100
7, 130680, Note_on_c, 5, 63, 0
7, 130680, Note_on_c, 5, 55, 0
7, 131520, Note_on_c, 5, 61, 100
7, 131640, Note_on_c, 5, 61, 0
7, 131640, Note_on_c, 5, 65, 100
7, 131760, Note_on_c, 5, 65, 0
7, 131760, Note_on_c, 5, 63, 100
7, 131880, Note_on_c, 5, 63, 0
7, 131880, Note_on_c, 5, 61, 100
7, 132000, Note_on_c, 5, 61, 0
7, 132000, Note_on_c, 5, 61, 100
7, 132480, Note_on_c, 5, 61, 0
7, 132480, Note_on_c, 5, 60, 100
7, 132600, Note_on_c, 5, 60, 0
7, 132600, Note_on_c, 5, 63, 100
7, 132720, Note_on_c, 5, 63, 0
7, 132720, Note_on_c, 5, 61, 100
7, 132840, Note_on_c, 5, 61, 0
7, 132840, Note_on_c, 5, 60, 100
7, 132960, Note_on_c, 5, 60, 0
7, 132960, Note_on_c, 5, 60, 100
7, 133440, Note_on_c, 5, 60, 0
7, 133440, Note_on_c, 5, 58, 100
7, 133560, Note_on_c, 5, 58, 0
7, 133560, Note_on_c, 5, 61, 100
7, 133680, Note_on_c, 5, 61, 0
7, 133680, Note_on_c, 5, 60, 100
7, 133800, Note_on_c, 5, 60, 0
7, 133800, Note_on_c, 5, 58, 100
7, 133920, Note_on_c, 5, 58, 0
7, 133920, Note_on_c, 5, 56, 100
7, 134040, Note_on_c, 5, 56, 0
7, 134100, Note_on_c, 5, 56, 100
7, 134160, Note_on_c, 5, 56, 0
7, 134160, Note_on_c, 5, 58, 100
7, 134280, Note_on_c, 5, 58, 0
7, 134340, Note_on_c, 5, 58, 100
7, 134400, Note_on_c, 5, 58, 0
7, 134400, Note_on_c, 5, 58, 100
7, 134520, Note_on_c, 5, 58, 0
7, 134580, Note_on_c, 5, 58, 100
7, 134640, Note_on_c, 5, 58, 0
7, 134640, Note_on_c, 5, 56, 100
7, 134760, Note_on_c, 5, 56, 0
7, 134820, Note_on_c, 5, 56, 100
7, 134880, Note_on_c, 5, 56, 0
7, 134880, Note_on_c, 5, 55, 100
7, 134940, Note_on_c, 5, 55, 0
7, 134940, Note_on_c, 5, 58, 100
7, 135000, Note_on_c, 5, 58, 0
7, 135060, Note_on_c, 5, 63, 100
7, 135120, Note_on_c, 5, 63, 0
7, 135180, Note_on_c, 5, 63, 100
7, 135240, Note_on_c, 5, 63, 0
7, 135300, Note_on_c, 5, 63, 100
7, 135360, Note_on_c, 5, 63, 0
7, 135360, Note_on_c, 5, 63, 100
7, 135420, Note_on_c, 5, 63, 0
7, 135420, Note_on_c, 5, 63, 100
7, 135480, Note_on_c, 5, 63, 0
7, 135480, Note_on_c, 5, 63, 100
7, 135540, Note_on_c, 5, 63, 0
7, 135540, Note_on_c, 5, 63, 100
7, 135600, Note_on_c, 5, 63, 0
7, 135600, Note_on_c, 5, 56, 100
7, 135600, Note_on_c, 5, 62, 100
7, 135660, Note_on_c, 5, 62, 0
7, 135660, Note_on_c, 5, 56, 0
7, 135660, Note_on_c, 5, 56, 100
7, 135660, Note_on_c, 5, 62, 100
7, 135720, Note_on_c, 5, 62, 0
7, 135720, Note_on_c, 5, 56, 0
7, 135720, Note_on_c, 5, 56, 100
7, 135720, Note_on_c, 5, 62, 100
7, 135780, Note_on_c, 5, 62, 0
7, 135780, Note_on_c, 5, 56, 0
7, 135780, Note_on_c, 5, 56, 100
7, 135780, Note_on_c, 5, 62, 100
7, 135840, Note_on_c, 5, 62, 0
7, 135840, Note_on_c, 5, 56, 0
7, 135840, Note_on_c, 5, 55, 100
7, 135840, Note_on_c, 5, 63, 100
7, 135960, Note_on_c, 5, 63, 0
7, 135960, Note_on_c, 5, 55, 0
7, 136380, Note_on_c, 5, 55, 100
7, 136440, Note_on_c, 5, 55, 0
7, 136440, Note_on_c, 5, 55, 100
7, 136500, Note_on_c, 5, 55, 0
7, 136500, Note_on_c, 5, 55, 100
7, 136560, Note_on_c, 5, 55, 0
7, 136620, Note_on_c, 5, 55, 100
7, 136680, Note_on_c, 5, 55, 0
7, 136680, Note_on_c, 5, 55, 100
7, 136740, Note_on_c, 5, 55, 0
7, 136740, Note_on_c, 5, 55, 100
7, 136800, Note_on_c, 5, 55, 0
7, 136860, Note_on_c, 5, 58, 100
7, 136920, Note_on_c, 5, 58, 0
7, 136920, Note_on_c, 5, 58, 100
7, 136980, Note_on_c, 5, 58, 0
7, 136980, Note_on_c, 5, 58, 100
7, 137040, Note_on_c, 5, 58, 0
7, 137100, Note_on_c, 5, 58, 100
7, 137160, Note_on_c, 5, 58, 0
7, 137160, Note_on_c, 5, 58, 100
7, 137220, Note_on_c, 5, 58, 0
7, 137220, Note_on_c, 5, 58, 100
7, 137280, Note_on_c, 5, 58, 0
7, 137280, Note_on_c, 5, 58, 100
7, 137460, Note_on_c, 5, 58, 0
7, 137460, Note_on_c, 5, 56, 100
7, 137520, Note_on_c, 5, 56, 0
7, 137520, Note_on_c, 5, 55, 100
7, 137700, Note_on_c, 5, 55, 0
7, 137700, Note_on_c, 5, 60, 100
7, 137760, Note_on_c, 5, 60, 0
7, 137760, Note_on_c, 5, 58, 100
7, 138120, Note_on_c, 5, 58, 0
7, 138300, Note_on_c, 5, 67, 100
7, 138360, Note_on_c, 5, 67, 0
7, 138360, Note_on_c, 5, 67, 100
7, 138420, Note_on_c, 5, 67, 0
7, 138420, Note_on_c, 5, 67, 100
7, 138480, Note_on_c, 5, 67, 0
7, 138540, Note_on_c, 5, 67, 100
7, 138600, Note_on_c, 5, 67, 0
7, 138600, Note_on_c, 5, 67, 100
7, 138660, Note_on_c, 5, 67, 0
7, 138660, Note_on_c, 5, 67, 100
7, 138720, Note_on_c, 5, 67, 0
7, 138780, Note_on_c, 5, 65, 100
7, 138840, Note_on_c, 5, 65, 0
7, 138840, Note_on_c, 5, 65, 100
7, 138900, Note_on_c, 5, 65, 0
7, 138900, Note_on_c, 5, 65, 100
7, 138960, Note_on_c, 5, 65, 0
7, 139020, Note_on_c, 5, 62, 100
7, 139080, Note_on_c, 5, 62, 0
7, 139080, Note_on_c, 5, 62, 100
7, 139140, Note_on_c, 5, 62, 0
7, 139140, Note_on_c, 5, 65, 100
7, 139200, Note_on_c, 5, 65, 0
7, 139200, Note_on_c, 5, 63, 100
7, 139260, Note_on_c, 5, 63, 0
7, 139260, Note_on_c, 5, 70, 100
7, 139320, Note_on_c, 5, 70, 0
7, 139320, Note_on_c, 5, 69, 100
7, 139380, Note_on_c, 5, 69, 0
7, 139380, Note_on_c, 5, 67, 100
7, 139440, Note_on_c, 5, 67, 0
7, 139440, Note_on_c, 5, 67, 100
7, 139500, Note_on_c, 5, 67, 0
7, 139500, Note_on_c, 5, 65, 100
7, 139560, Note_on_c, 5, 65, 0
7, 139560, Note_on_c, 5, 65, 100
7, 139620, Note_on_c, 5, 65, 0
7, 139620, Note_on_c, 5, 63, 100
7, 139680, Note_on_c, 5, 63, 0
7, 139680, Note_on_c, 5, 62, 100
7, 139800, Note_on_c, 5, 62, 0
7, 140160, Program_c, 5, 45
7, 140400, Note_on_c, 5, 79, 100
7, 140460, Note_on_c, 5, 79, 0
7, 140520, Note_on_c, 5, 75, 100
7, 140580, Note_on_c, 5, 75, 0
7, 140640, Note_on_c, 5, 70, 100
7, 140700, Note_on_c, 5, 70, 0
7, 140760, Note_on_c, 5, 67, 100
7, 140820, Note_on_c, 5, 67, 0
7, 140880, Note_on_c, 5, 63, 100
7, 140940, Note_on_c, 5, 63, 0
7, 141000, Note_on_c, 5, 58, 100
7, 141060, Note_on_c, 5, 58, 0
7, 141240, Note_on_c, 5, 70, 100
7, 141360, Note_on_c, 5, 70, 0
7, 141480, Note_on_c, 5, 70, 100
7, 141600, Note_on_c, 5, 70, 0
7, 141720, Note_on_c, 5, 70, 100
7, 141840, Note_on_c, 5, 70, 0
7, 141960, Note_on_c, 5, 70, 100
7, 142080, Note_on_c, 5, 70, 0
7, 142080, Note_on_c, 5, 55, 100
7, 142080, Note_on_c, 5, 63, 100
7, 142200, Note_on_c, 5, 63, 0
7, 142200, Note_on_c, 5, 55, 0
7, 142320, Note_on_c, 5, 79, 100
7, 142380, Note_on_c, 5, 79, 0
7, 142440, Note_on_c, 5, 75, 100
7, 142500, Note_on_c, 5, 75, 0
7, 142560, Note_on_c, 5, 70, 100
7, 142620, Note_on_c, 5, 70, 0
7, 142680, Note_on_c, 5, 67, 100
7, 142740, Note_on_c, 5, 67, 0
7, 142800, Note_on_c, 5, 63, 100
7, 142860, Note_on_c, 5, 63, 0
7, 142920, Note_on_c, 5, 58, 100
7, 142980, Note_on_c, 5, 58, 0
7, 143160, Note_on_c, 5, 58, 100
7, 143280, Note_on_c, 5, 58, 0
7, 143400, Note_on_c, 5, 58, 100
7, 143520, Note_on_c, 5, 58, 0
7, 143640, Note_on_c, 5, 58, 100
7, 143760, Note_on_c, 5, 58, 0
7, 143880, Note_on_c, 5, 58, 100
7, 144000, Note_on_c, 5, 58, 0
7, 144000, Program_c, 5, 40
7, 144060, Note_on_c, 5, 67, 100
7, 144120, Note_on_c, 5, 67, 0
7, 144120, Note_on_c, 5, 65, 100
7, 144180, Note_on_c, 5, 65, 0
7, 144180, Note_on_c, 5, 63, 100
7, 144240, Note_on_c, 5, 63, 0
7, 144240, Note_on_c, 5, 62, 100
7, 144300, Note_on_c, 5, 62, 0
7, 144540, Note_on_c, 5, 67, 100
7, 144600, Note_on_c, 5, 67, 0
7, 144600, Note_on_c, 5, 65, 100
7, 144660, Note_on_c, 5, 65, 0
7, 144660, Note_on_c, 5, 63, 100
7, 144720, Note_on_c, 5, 63, 0
7, 144720, Note_on_c, 5, 62, 100
7, 144780, Note_on_c, 5, 62, 0
7, 145020, Note_on_c, 5, 55, 100
7, 145140, Note_on_c, 5, 55, 0
7, 145140, Note_on_c, 5, 56, 100
7, 145200, Note_on_c, 5, 56, 0
7, 145200, Note_on_c, 5, 58, 100
7, 145440, Note_on_c, 5, 58, 0
7, 145440, Note_on_c, 5, 56, 100
7, 145560, Note_on_c, 5, 56, 0
7, 145800, Note_on_c, 5, 60, 100
7, 145890, Note_on_c, 5, 60, 0
7, 145890, Note_on_c, 5, 62, 100
7, 145920, Note_on_c, 5, 62, 0
7, 145920, Note_on_c, 5, 63, 100
7, 145980, Note_on_c, 5, 63, 0
7, 146040, Note_on_c, 5, 65, 100
7, 146100, Note_on_c, 5, 65, 0
7, 146160, Note_on_c, 5, 63, 100
7, 146220, Note_on_c, 5, 63, 0
7, 146280, Note_on_c, 5, 62, 100
7, 146340, Note_on_c, 5, 62, 0
7, 146400, Note_on_c, 5, 63, 100
7, 146460, Note_on_c, 5, 63, 0
7, 146460, Note_on_c, 5, 67, 100
7, 146520, Note_on_c, 5, 67, 0
7, 146520, Note_on_c, 5, 65, 100
7, 146580, Note_on_c, 5, 65, 0
7, 146580, Note_on_c, 5, 63, 100
7, 146640, Note_on_c, 5, 63, 0
7, 146640, Note_on_c, 5, 62, 100
7, 146700, Note_on_c, 5, 62, 0
7, 146940, Note_on_c, 5, 67, 100
7, 147000, Note_on_c, 5, 67, 0
7, 147000, Note_on_c, 5, 65, 100
7, 147060, Note_on_c, 5, 65, 0
7, 147060, Note_on_c, 5, 63, 100
7, 147120, Note_on_c, 5, 63, 0
7, 147120, Note_on_c, 5, 62, 100
7, 147180, Note_on_c, 5, 62, 0
7, 147960, Note_on_c, 5, 67, 100
7, 148020, Note_on_c, 5, 67, 0
7, 148020, Note_on_c, 5, 68, 100
7, 148080, Note_on_c, 5, 68, 0
7, 148080, Note_on_c, 5, 70, 100
7, 148320, Note_on_c, 5, 70, 0
7, 148320, Note_on_c, 5, 68, 100
7, 148380, Note_on_c, 5, 68, 0
7, 148440, Note_on_c, 5, 68, 100
7, 148500, Note_on_c, 5, 68, 0
7, 148560, Note_on_c, 5, 68, 100
7, 148620, Note_on_c, 5, 68, 0
7, 148680, Note_on_c, 5, 68, 100
7, 148740, Note_on_c, 5, 68, 0
7, 148800, Note_on_c, 5, 68, 100
7, 148920, Note_on_c, 5, 68, 0
7, 149580, Note_on_c, 5, 58, 100
7, 149640, Note_on_c, 5, 58, 0
7, 149640, Note_on_c, 5, 63, 100
7, 149700, Note_on_c, 5, 63, 0
7, 149700, Note_on_c, 5, 67, 100
7, 149760, Note_on_c, 5, 67, 0
7, 149760, Note_on_c, 5, 68, 100
7, 149880, Note_on_c, 5, 68, 0
7, 149880, Note_on_c, 5, 67, 100
7, 150120, Note_on_c, 5, 67, 0
7, 150120, Note_on_c, 5, 65, 100
7, 150240, Note_on_c, 5, 65, 0
7, 150240, Note_on_c, 5, 63, 100
7, 150360, Note_on_c, 5, 63, 0
7, 152700, Note_on_c, 5, 63, 100
7, 152760, Note_on_c, 5, 63, 0
7, 152760, Note_on_c, 5, 63, 100
7, 152820, Note_on_c, 5, 63, 0
7, 152820, Note_on_c, 5, 63, 100
7, 152880, Note_on_c, 5, 63, 0
7, 152940, Note_on_c, 5, 65, 100
7, 153000, Note_on_c, 5, 65, 0
7, 153000, Note_on_c, 5, 65, 100
7, 153060, Note_on_c, 5, 65, 0
7, 153060, Note_on_c, 5, 65, 100
7, 153120, Note_on_c, 5, 65, 0
7, 153180, Note_on_c, 5, 67, 100
7, 153240, Note_on_c, 5, 67, 0
7, 153240, Note_on_c, 5, 67, 100
7, 153300, Note_on_c, 5, 67, 0
7, 153300, Note_on_c, 5, 67, 100
7, 153360, Note_on_c, 5, 67, 0
7, 153360, Note_on_c, 5, 68, 100
7, 153420, Note_on_c, 5, 68, 0
7, 153420, Note_on_c, 5, 68, 100
7, 153480, Note_on_c, 5, 68, 0
7, 153480, Note_on_c, 5, 65, 100
7, 153540, Note_on_c, 5, 65, 0
7, 153540, Note_on_c, 5, 65, 100
7, 153600, Note_on_c, 5, 65, 0
7, 153600, Note_on_c, 5, 63, 100
7, 154620, Note_on_c, 5, 63, 0
7, 154620, Note_on_c, 5, 63, 100
7, 154680, Note_on_c, 5, 63, 0
7, 154680, Note_on_c, 5, 66, 100
7, 154740, Note_on_c, 5, 66, 0
7, 154740, Note_on_c, 5, 63, 100
7, 154800, Note_on_c, 5, 63, 0
7, 154800, Note_on_c, 5, 59, 100
7, 154860, Note_on_c, 5, 59, 0
7, 154860, Note_on_c, 5, 63, 100
7, 154920, Note_on_c, 5, 63, 0
7, 154920, Note_on_c, 5, 66, 100
7, 154980, Note_on_c, 5, 66, 0
7, 154980, Note_on_c, 5, 63, 100
7, 155040, Note_on_c, 5, 63, 0
7, 155040, Note_on_c, 5, 58, 100
7, 155100, Note_on_c, 5, 58, 0
7, 155100, Note_on_c, 5, 63, 100
7, 155160, Note_on_c, 5, 63, 0
7, 155160, Note_on_c, 5, 66, 100
7, 155220, Note_on_c, 5, 66, 0
7, 155220, Note_on_c, 5, 63, 100
7, 155280, Note_on_c, 5, 63, 0
7, 155280, Note_on_c, 5, 57, 100
7, 155340, Note_on_c, 5, 57, 0
7, 155340, Note_on_c, 5, 63, 100
7, 155400, Note_on_c, 5, 63, 0
7, 155400, Note_on_c, 5, 66, 100
7, 155460, Note_on_c, 5, 66, 0
7, 155460, Note_on_c, 5, 63, 100
7, 155520, Note_on_c, 5, 63, 0
7, 155520, Note_on_c, 5, 58, 100
7, 155640, Note_on_c, 5, 58, 0
7, 156060, Note_on_c, 5, 63, 100
7, 156120, Note_on_c, 5, 63, 0
7, 156120, Note_on_c, 5, 63, 100
7, 156180, Note_on_c, 5, 63, 0
7, 156180, Note_on_c, 5, 63, 100
7, 156240, Note_on_c, 5, 63, 0
7, 156240, Note_on_c, 5, 63, 100
7, 156300, Note_on_c, 5, 63, 0
7, 156300, Note_on_c, 5, 63, 100
7, 156360, Note_on_c, 5, 63, 0
7, 156360, Note_on_c, 5, 63, 100
7, 156420, Note_on_c, 5, 63, 0
7, 156420, Note_on_c, 5, 63, 100
7, 156480, Note_on_c, 5, 63, 0
7, 156480, Note_on_c, 5, 62, 100
7, 156510, Note_on_c, 5, 62, 0
7, 156510, Note_on_c, 5, 62, 100
7, 156540, Note_on_c, 5, 62, 0
7, 156540, Note_on_c, 5, 62, 100
7, 156570, Note_on_c, 5, 62, 0
7, 156570, Note_on_c, 5, 62, 100
7, 156600, Note_on_c, 5, 62, 0
7, 156600, Note_on_c, 5, 62, 100
7, 156630, Note_on_c, 5, 62, 0
7, 156630, Note_on_c, 5, 62, 100
7, 156660, Note_on_c, 5, 62, 0
7, 156660, Note_on_c, 5, 62, 100
7, 156690, Note_on_c, 5, 62, 0
7, 156690, Note_on_c, 5, 62, 100
7, 156720, Note_on_c, 5, 62, 0
7, 156720, Note_on_c, 5, 56, 100
7, 156750, Note_on_c, 5, 56, 0
7, 156750, Note_on_c, 5, 56, 100
7, 156780, Note_on_c, 5, 56, 0
7, 156780, Note_on_c, 5, 56, 100
7, 156810, Note_on_c, 5, 56, 0
7, 156810, Note_on_c, 5, 56, 100
7, 156840, Note_on_c, 5, 56, 0
7, 156840, Note_on_c, 5, 56, 100
7, 156870, Note_on_c, 5, 56, 0
7, 156870, Note_on_c, 5, 56, 100
7, 156900, Note_on_c, 5, 56, 0
7, 156900, Note_on_c, 5, 56, 100
7, 156930, Note_on_c, 5, 56, 0
7, 156930, Note_on_c, 5, 56, 100
7, 156960, Note_on_c, 5, 56, 0
7, 156960, Note_on_c, 5, 55, 100
7, 157020, Note_on_c, 5, 55, 0
7, 157020, Note_on_c, 5, 56, 100
7, 157050, Note_on_c, 5, 56, 0
7, 157050, Note_on_c, 5, 58, 100
7, 157080, Note_on_c, 5, 58, 0
7, 157080, Note_on_c, 5, 60, 100
7, 157110, Note_on_c, 5, 60, 0
7, 157110, Note_on_c, 5, 62, 100
7, 157140, Note_on_c, 5, 62, 0
7, 157140, Note_on_c, 5, 63, 100
7, 157170, Note_on_c, 5, 63, 0
7, 157170, Note_on_c, 5, 65, 100
7, 157200, Note_on_c, 5, 65, 0
7, 157200, Note_on_c, 5, 67, 100
7, 157230, Note_on_c, 5, 67, 0
7, 157230, Note_on_c, 5, 65, 100
7, 157260, Note_on_c, 5, 65, 0
7, 157260, Note_on_c, 5, 67, 100
7, 157290, Note_on_c, 5, 67, 0
7, 157290, Note_on_c, 5, 68, 100
7, 157320, Note_on_c, 5, 68, 0
7, 157320, Note_on_c, 5, 70, 100
7, 157350, Note_on_c, 5, 70, 0
7, 157350, Note_on_c, 5, 68, 100
7, 157380, Note_on_c, 5, 68, 0
7, 157380, Note_on_c, 5, 67, 100
7, 157410, Note_on_c, 5, 67, 0
7, 157410, Note_on_c, 5, 65, 100
7, 157440, Note_on_c, 5, 65, 0
7, 157440, Note_on_c, 5, 63, 100
7, 157470, Note_on_c, 5, 63, 0
7, 157470, Note_on_c, 5, 62, 100
7, 157500, Note_on_c, 5, 62, 0
7, 157500, Note_on_c, 5, 63, 100
7, 157530, Note_on_c, 5, 63, 0
7, 157530, Note_on_c, 5, 65, 100
7, 157560, Note_on_c, 5, 65, 0
7, 157560, Note_on_c, 5, 67, 100
7, 157590, Note_on_c, 5, 67, 0
7, 157590, Note_on_c, 5, 65, 100
7, 157620, Note_on_c, 5, 65, 0
7, 157620, Note_on_c, 5, 63, 100
7, 157650, Note_on_c, 5, 63, 0
7, 157650, Note_on_c, 5, 62, 100
7, 157680, Note_on_c, 5, 62, 0
7, 157680, Note_on_c, 5, 60, 100
7, 157710, Note_on_c, 5, 60, 0
7, 157710, Note_on_c, 5, 58, 100
7, 157740, Note_on_c, 5, 58, 0
7, 157740, Note_on_c, 5, 60, 100
7, 157770, Note_on_c, 5, 60, 0
7, 157770, Note_on_c, 5, 62, 100
7, 157800, Note_on_c, 5, 62, 0
7, 157800, Note_on_c, 5, 63, 100
7, 157830, Note_on_c, 5, 63, 0
7, 157830, Note_on_c, 5, 62, 100
7, 157860, Note_on_c, 5, 62, 0
7, 157860, Note_on_c, 5, 60, 100
7, 157890, Note_on_c, 5, 60, 0
7, 157890, Note_on_c, 5, 58, 100
7, 157920, Note_on_c, 5, 58, 0
7, 157920, Note_on_c, 5, 56, 100
7, 157980, Note_on_c, 5, 56, 0
7, 157980, Note_on_c, 5, 58, 100
7, 158010, Note_on_c, 5, 58, 0
7, 158010, Note_on_c, 5, 60, 100
7, 158040, Note_on_c, 5, 60, 0
7, 158040, Note_on_c, 5, 62, 100
7, 158070, Note_on_c, 5, 62, 0
7, 158070, Note_on_c, 5, 63, 100
7, 158100, Note_on_c, 5, 63, 0
7, 158100, Note_on_c, 5, 65, 100
7, 158130, Note_on_c, 5, 65, 0
7, 158130, Note_on_c, 5, 67, 100
7, 158160, Note_on_c, 5, 67, 0
7, 158160, Note_on_c, 5, 68, 100
7, 158190, Note_on_c, 5, 68, 0
7, 158190, Note_on_c, 5, 67, 100
7, 158220, Note_on_c, 5, 67, 0
7, 158220, Note_on_c, 5, 68, 100
7, 158250, Note_on_c, 5, 68, 0
7, 158250, Note_on_c, 5, 70, 100
7, 158280, Note_on_c, 5, 70, 0
7, 158280, Note_on_c, 5, 72, 100
7, 158310, Note_on_c, 5, 72, 0
7, 158310, Note_on_c, 5, 70, 100
7, 158340, Note_on_c, 5, 70, 0
7, 158340, Note_on_c, 5, 68, 100
7, 158370, Note_on_c, 5, 68, 0
7, 158370, Note_on_c, 5, 67, 100
7, 158400, Note_on_c, 5, 67, 0
7, 158400, Note_on_c, 5, 65, 100
7, 158430, Note_on_c, 5, 65, 0
7, 158430, Note_on_c, 5, 63, 100
7, 158460, Note_on_c, 5, 63, 0
7, 158460, Note_on_c, 5, 65, 100
7, 158490, Note_on_c, 5, 65, 0
7, 158490, Note_on_c, 5, 67, 100
7, 158520, Note_on_c, 5, 67, 0
7, 158520, Note_on_c, 5, 68, 100
7, 158550, Note_on_c, 5, 68, 0
7, 158550, Note_on_c, 5, 67, 100
7, 158580, Note_on_c, 5, 67, 0
7, 158580, Note_on_c, 5, 65, 100
7, 158610, Note_on_c, 5, 65, 0
7, 158610, Note_on_c, 5, 63, 100
7, 158640, Note_on_c, 5, 63, 0
7, 158640, Note_on_c, 5, 62, 100
7, 158670, Note_on_c, 5, 62, 0
7, 158670, Note_on_c, 5, 60, 100
7, 158700, Note_on_c, 5, 60, 0
7, 158700, Note_on_c, 5, 62, 100
7, 158730, Note_on_c, 5, 62, 0
7, 158730, Note_on_c, 5, 63, 100
7, 158760, Note_on_c, 5, 63, 0
7, 158760, Note_on_c, 5, 65, 100
7, 158790, Note_on_c, 5, 65, 0
7, 158790, Note_on_c, 5, 63, 100
7, 158820, Note_on_c, 5, 63, 0
7, 158820, Note_on_c, 5, 62, 100
7, 158850, Note_on_c, 5, 62, 0
7, 158850, Note_on_c, 5, 60, 100
7, 158880, Note_on_c, 5, 60, 0
7, 158880, Note_on_c, 5, 58, 100
7, 158940, Note_on_c, 5, 58, 0
7, 158940, Note_on_c, 5, 60, 100
7, 158970, Note_on_c, 5, 60, 0
7, 158970, Note_on_c, 5, 62, 100
7, 159000, Note_on_c, 5, 62, 0
7, 159000, Note_on_c, 5, 63, 100
7, 159030, Note_on_c, 5, 63, 0
7, 159030, Note_on_c, 5, 65, 100
7, 159060, Note_on_c, 5, 65, 0
7, 159060, Note_on_c, 5, 67, 100
7, 159090, Note_on_c, 5, 67, 0
7, 159090, Note_on_c, 5, 68, 100
7, 159120, Note_on_c, 5, 68, 0
7, 159120, Note_on_c, 5, 70, 100
7, 159150, Note_on_c, 5, 70, 0
7, 159150, Note_on_c, 5, 68, 100
7, 159180, Note_on_c, 5, 68, 0
7, 159180, Note_on_c, 5, 67, 100
7, 159210, Note_on_c, 5, 67, 0
7, 159210, Note_on_c, 5, 65, 100
7, 159240, Note_on_c, 5, 65, 0
7, 159240, Note_on_c, 5, 63, 100
7, 159270, Note_on_c, 5, 63, 0
7, 159270, Note_on_c, 5, 62, 100
7, 159300, Note_on_c, 5, 62, 0
7, 159300, Note_on_c, 5, 63, 100
7, 159330, Note_on_c, 5, 63, 0
7, 159330, Note_on_c, 5, 65, 100
7, 159360, Note_on_c, 5, 65, 0
7, 159360, Note_on_c, 5, 67, 100
7, 159390, Note_on_c, 5, 67, 0
7, 159390, Note_on_c, 5, 65, 100
7, 159420, Note_on_c, 5, 65, 0
7, 159420, Note_on_c, 5, 67, 100
7, 159450, Note_on_c, 5, 67, 0
7, 159450, Note_on_c, 5, 68, 100
7, 159480, Note_on_c, 5, 68, 0
7, 159480, Note_on_c, 5, 70, 100
7, 159510, Note_on_c, 5, 70, 0
7, 159510, Note_on_c, 5, 68, 100
7, 159540, Note_on_c, 5, 68, 0
7, 159540, Note_on_c, 5, 67, 100
7, 159570, Note_on_c, 5, 67, 0
7, 159570, Note_on_c, 5, 65, 100
7, 159600, Note_on_c, 5, 65, 0
7, 159600, Note_on_c, 5, 63, 100
7, 159630, Note_on_c, 5, 63, 0
7, 159630, Note_on_c, 5, 62, 100
7, 159660, Note_on_c, 5, 62, 0
7, 159660, Note_on_c, 5, 63, 100
7, 159690, Note_on_c, 5, 63, 0
7, 159690, Note_on_c, 5, 65, 100
7, 159720, Note_on_c, 5, 65, 0
7, 159720, Note_on_c, 5, 67, 100
7, 159750, Note_on_c, 5, 67, 0
7, 159750, Note_on_c, 5, 65, 100
7, 159780, Note_on_c, 5, 65, 0
7, 159780, Note_on_c, 5, 63, 100
7, 159810, Note_on_c, 5, 63, 0
7, 159810, Note_on_c, 5, 62, 100
7, 159840, Note_on_c, 5, 62, 0
7, 159840, Note_on_c, 5, 60, 100
7, 160140, Note_on_c, 5, 60, 0
7, 160140, Note_on_c, 5, 62, 100
7, 160170, Note_on_c, 5, 62, 0
7, 160170, Note_on_c, 5, 64, 100
7, 160200, Note_on_c, 5, 64, 0
7, 160200, Note_on_c, 5, 65, 100
7, 160230, Note_on_c, 5, 65, 0
7, 160230, Note_on_c, 5, 64, 100
7, 160260, Note_on_c, 5, 64, 0
7, 160260, Note_on_c, 5, 65, 100
7, 160290, Note_on_c, 5, 65, 0
7, 160290, Note_on_c, 5, 67, 100
7, 160320, Note_on_c, 5, 67, 0
7, 160320, Note_on_c, 5, 68, 100
7, 160350, Note_on_c, 5, 68, 0
7, 160350, Note_on_c, 5, 64, 100
7, 160380, Note_on_c, 5, 64, 0
7, 160380, Note_on_c, 5, 65, 100
7, 160410, Note_on_c, 5, 65, 0
7, 160410, Note_on_c, 5, 67, 100
7, 160440, Note_on_c, 5, 67, 0
7, 160440, Note_on_c, 5, 68, 100
7, 160470, Note_on_c, 5, 68, 0
7, 160470, Note_on_c, 5, 67, 100
7, 160500, Note_on_c, 5, 67, 0
7, 160500, Note_on_c, 5, 68, 100
7, 160530, Note_on_c, 5, 68, 0
7, 160530, Note_on_c, 5, 70, 100
7, 160560, Note_on_c, 5, 70, 0
7, 160560, Note_on_c, 5, 72, 100
7, 160590, Note_on_c, 5, 72, 0
7, 160590, Note_on_c, 5, 67, 100
7, 160620, Note_on_c, 5, 67, 0
7, 160620, Note_on_c, 5, 68, 100
7, 160650, Note_on_c, 5, 68, 0
7, 160650, Note_on_c, 5, 70, 100
7, 160680, Note_on_c, 5, 70, 0
7, 160680, Note_on_c, 5, 72, 100
7, 160710, Note_on_c, 5, 72, 0
7, 160710, Note_on_c, 5, 71, 100
7, 160740, Note_on_c, 5, 71, 0
7, 160740, Note_on_c, 5, 72, 100
7, 160770, Note_on_c, 5, 72, 0
7, 160770, Note_on_c, 5, 74, 100
7, 160800, Note_on_c, 5, 74, 0
7, 160800, Note_on_c, 5, 75, 100
7, 160830, Note_on_c, 5, 75, 0
7, 160830, Note_on_c, 5, 66, 100
7, 160860, Note_on_c, 5, 66, 0
7, 160860, Note_on_c, 5, 75, 100
7, 160890, Note_on_c, 5, 75, 0
7, 160890, Note_on_c, 5, 66, 100
7, 160920, Note_on_c, 5, 66, 0
7, 160920, Note_on_c, 5, 75, 100
7, 160950, Note_on_c, 5, 75, 0
7, 160950, Note_on_c, 5, 66, 100
7, 160980, Note_on_c, 5, 66, 0
7, 160980, Note_on_c, 5, 75, 100
7, 161010, Note_on_c, 5, 75, 0
7, 161010, Note_on_c, 5, 66, 100
7, 161040, Note_on_c, 5, 66, 0
7, 161040, Note_on_c, 5, 57, 100
7, 161070, Note_on_c, 5, 57, 0
7, 161070, Note_on_c, 5, 66, 100
7, 161100, Note_on_c, 5, 66, 0
7, 161100, Note_on_c, 5, 75, 100
7, 161130, Note_on_c, 5, 75, 0
7, 161130, Note_on_c, 5, 66, 100
7, 161160, Note_on_c, 5, 66, 0
7, 161160, Note_on_c, 5, 75, 100
7, 161190, Note_on_c, 5, 75, 0
7, 161190, Note_on_c, 5, 66, 100
7, 161220, Note_on_c, 5, 66, 0
7, 161220, Note_on_c, 5, 75, 100
7, 161250, Note_on_c, 5, 75, 0
7, 161250, Note_on_c, 5, 66, 100
7, 161280, Note_on_c, 5, 66, 0
7, 161280, Note_on_c, 5, 57, 100
7, 161310, Note_on_c, 5, 57, 0
7, 161310, Note_on_c, 5, 66, 100
7, 161340, Note_on_c, 5, 66, 0
7, 161340, Note_on_c, 5, 75, 100
7, 161370, Note_on_c, 5, 75, 0
7, 161370, Note_on_c, 5, 66, 100
7, 161400, Note_on_c, 5, 66, 0
7, 161400, Note_on_c, 5, 75, 100
7, 161430, Note_on_c, 5, 75, 0
7, 161430, Note_on_c, 5, 66, 100
7, 161460, Note_on_c, 5, 66, 0
7, 161460, Note_on_c, 5, 75, 100
7, 161490, Note_on_c, 5, 75, 0
7, 161490, Note_on_c, 5, 66, 100
7, 161520, Note_on_c, 5, 66, 0
7, 161520, Note_on_c, 5, 57, 100
7, 161550, Note_on_c, 5, 57, 0
7, 161550, Note_on_c, 5, 66, 100
7, 161580, Note_on_c, 5, 66, 0
7, 161580, Note_on_c, 5, 75, 100
7, 161610, Note_on_c, 5, 75, 0
7, 161610, Note_on_c, 5, 66, 100
7, 161640, Note_on_c, 5, 66, 0
7, 161640, Note_on_c, 5, 57, 100
7, 161670, Note_on_c, 5, 57, 0
7, 161670, Note_on_c, 5, 66, 100
7, 161700, Note_on_c, 5, 66, 0
7, 161700, Note_on_c, 5, 75, 100
7, 161730, Note_on_c, 5, 75, 0
7, 161730, Note_on_c, 5, 66, 100
7, 161760, Note_on_c, 5, 66, 0
7, 161760, Note_on_c, 5, 58, 100
7, 162000, Note_on_c, 5, 58, 0
7, 174240, Note_on_c, 5, 75, 100
7, 174240, Note_on_c, 5, 82, 100
7, 174300, Note_on_c, 5, 82, 0
7, 174300, Note_on_c, 5, 75, 0
7, 174300, Note_on_c, 5, 75, 100
7, 174300, Note_on_c, 5, 82, 100
7, 174420, Note_on_c, 5, 82, 0
7, 174420, Note_on_c, 5, 75, 0
7, 174420, Note_on_c, 5, 75, 100
7, 174420, Note_on_c, 5, 82, 100
7, 174540, Note_on_c, 5, 82, 0
7, 174540, Note_on_c, 5, 75, 0
7, 174540, Note_on_c, 5, 75, 100
7, 174540, Note_on_c, 5, 82, 100
7, 174660, Note_on_c, 5, 82, 0
7, 174660, Note_on_c, 5, 75, 0
7, 174660, Note_on_c, 5, 75, 100
7, 174660, Note_on_c, 5, 82, 100
7, 174780, Note_on_c, 5, 82, 0
7, 174780, Note_on_c, 5, 75, 0
7, 174780, Note_on_c, 5, 75, 100
7, 174780, Note_on_c, 5, 82, 100
7, 174900, Note_on_c, 5, 82, 0
7, 174900, Note_on_c, 5, 75, 0
7, 174900, Note_on_c, 5, 75, 100
7, 174900, Note_on_c, 5, 82, 100
7, 175020, Note_on_c, 5, 82, 0
7, 175020, Note_on_c, 5, 75, 0
7, 175020, Note_on_c, 5, 75, 100
7, 175020, Note_on_c, 5, 82, 100
7, 175140, Note_on_c, 5, 82, 0
7, 175140, Note_on_c, 5, 75, 0
7, 175140, Note_on_c, 5, 82, 100
7, 175140, Note_on_c, 5, 75, 100
7, 175200, Note_on_c, 5, 82, 0
7, 175200, Note_on_c, 5, 84, 100
7, 175260, Note_on_c, 5, 84, 0
7, 175260, Note_on_c, 5, 75, 0
7, 175260, Note_on_c, 5, 75, 100
7, 175260, Note_on_c, 5, 84, 100
7, 175380, Note_on_c, 5, 84, 0
7, 175380, Note_on_c, 5, 75, 0
7, 175380, Note_on_c, 5, 75, 100
7, 175380, Note_on_c, 5, 84, 100
7, 175500, Note_on_c, 5, 84, 0
7, 175500, Note_on_c, 5, 75, 0
7, 175500, Note_on_c, 5, 75, 100
7, 175500, Note_on_c, 5, 84, 100
7, 175620, Note_on_c, 5, 84, 0
7, 175620, Note_on_c, 5, 75, 0
7, 175620, Note_on_c, 5, 75, 100
7, 175620, Note_on_c, 5, 84, 100
7, 175740, Note_on_c, 5, 84, 0
7, 175740, Note_on_c, 5, 75, 0
7, 175740, Note_on_c, 5, 75, 100
7, 175740, Note_on_c, 5, 84, 100
7, 175860, Note_on_c, 5, 84, 0
7, 175860, Note_on_c, 5, 75, 0
7, 175860, Note_on_c, 5, 75, 100
7, 175860, Note_on_c, 5, 84, 100
7, 175980, Note_on_c, 5, 84, 0
7, 175980, Note_on_c, 5, 75, 0
7, 175980, Note_on_c, 5, 75, 100
7, 175980, Note_on_c, 5, 84, 100
7, 176100, Note_on_c, 5, 84, 0
7, 176100, Note_on_c, 5, 75, 0
7, 176100, Note_on_c, 5, 75, 100
7, 176100, Note_on_c, 5, 84, 100
7, 176220, Note_on_c, 5, 84, 0
7, 176220, Note_on_c, 5, 75, 0
7, 176220, Note_on_c, 5, 75, 100
7, 176340, Note_on_c, 5, 75, 0
7, 176340, Note_on_c, 5, 74, 100
7, 176460, Note_on_c, 5, 74, 0
7, 176460, Note_on_c, 5, 72, 100
7, 176580, Note_on_c, 5, 72, 0
7, 176580, Note_on_c, 5, 70, 100
7, 176700, Note_on_c, 5, 70, 0
7, 176700, Note_on_c, 5, 68, 100
7, 176820, Note_on_c, 5, 68, 0
7, 176820, Note_on_c, 5, 67, 100
7, 176940, Note_on_c, 5, 67, 0
7, 176940, Note_on_c, 5, 65, 100
7, 177060, Note_on_c, 5, 65, 0
7, 177060, Note_on_c, 5, 72, 100
7, 177180, Note_on_c, 5, 72, 0
7, 177180, Note_on_c, 5, 70, 100
7, 177300, Note_on_c, 5, 70, 0
7, 177300, Note_on_c, 5, 69, 100
7, 177420, Note_on_c, 5, 69, 0
7, 177420, Note_on_c, 5, 68, 100
7, 177540, Note_on_c, 5, 68, 0
7, 177540, Note_on_c, 5, 67, 100
7, 177660, Note_on_c, 5, 67, 0
7, 177660, Note_on_c, 5, 65, 100
7, 177720, Note_on_c, 5, 65, 0
7, 177720, Note_on_c, 5, 68, 100
7, 177780, Note_on_c, 5, 68, 0
7, 177780, Note_on_c, 5, 65, 100
7, 177900, Note_on_c, 5, 65, 0
7, 177900, Note_on_c, 5, 63, 100
7, 178020, Note_on_c, 5, 63, 0
7, 178020, Note_on_c, 5, 62, 100
7, 178080, Note_on_c, 5, 62, 0
7, 178080, Note_on_c, 5, 63, 100
7, 178200, Note_on_c, 5, 63, 0
7, 178560, Note_on_c, 5, 70, 100
7, 178680, Note_on_c, 5, 70, 0
7, 178680, Note_on_c, 5, 68, 100
7, 178800, Note_on_c, 5, 68, 0
7, 178800, Note_on_c, 5, 67, 100
7, 178920, Note_on_c, 5, 67, 0
7, 178920, Note_on_c, 5, 65, 100
7, 179040, Note_on_c, 5, 65, 0
7, 179040, Note_on_c, 5, 63, 100
7, 179160, Note_on_c, 5, 63, 0
7, 179490, Note_on_c, 5, 58, 100
7, 179520, Note_on_c, 5, 58, 0
7, 179520, Note_on_c, 5, 70, 100
7, 179640, Note_on_c, 5, 70, 0
7, 179640, Note_on_c, 5, 68, 100
7, 179760, Note_on_c, 5, 68, 0
7, 179760, Note_on_c, 5, 67, 100
7, 179880, Note_on_c, 5, 67, 0
7, 179880, Note_on_c, 5, 65, 100
7, 180000, Note_on_c, 5, 65, 0
7, 180000, Note_on_c, 5, 63, 100
7, 180120, Note_on_c, 5, 63, 0
7, 180120, Note_on_c, 5, 75, 100
7, 180150, Note_on_c, 5, 75, 0
7, 180150, Note_on_c, 5, 75, 100
7, 180180, Note_on_c, 5, 75, 0
7, 180180, Note_on_c, 5, 79, 100
7, 180210, Note_on_c, 5, 79, 0
7, 180210, Note_on_c, 5, 79, 100
7, 180240, Note_on_c, 5, 79, 0
7, 180240, Note_on_c, 5, 75, 100
7, 180270, Note_on_c, 5, 75, 0
7, 180270, Note_on_c, 5, 75, 100
7, 180300, Note_on_c, 5, 75, 0
7, 180300, Note_on_c, 5, 79, 100
7, 180330, Note_on_c, 5, 79, 0
7, 180330, Note_on_c, 5, 79, 100
7, 180360, Note_on_c, 5, 79, 0
7, 180360, Note_on_c, 5, 75, 100
7, 180390, Note_on_c, 5, 75, 0
7, 180390, Note_on_c, 5, 75, 100
7, 180420, Note_on_c, 5, 75, 0
7, 180420, Note_on_c, 5, 79, 100
7, 180450, Note_on_c, 5, 79, 0
7, 180450, Note_on_c, 5, 79, 100
7, 180480, Note_on_c, 5, 79, 0
7, 180480, Note_on_c, 5, 75, 100
7, 180600, Note_on_c, 5, 75, 0
7, 180600, Note_on_c, 5, 55, 100
7, 180600, Note_on_c, 5, 63, 100
7, 180630, Note_on_c, 5, 63, 0
7, 180630, Note_on_c, 5, 55, 0
7, 180630, Note_on_c, 5, 55, 100
7, 180630, Note_on_c, 5, 63, 100
7, 180660, Note_on_c, 5, 63, 0
7, 180660, Note_on_c, 5, 55, 0
7, 180660, Note_on_c, 5, 58, 100
7, 180660, Note_on_c, 5, 67, 100
7, 180690, Note_on_c, 5, 67, 0
7, 180690, Note_on_c, 5, 58, 0
7, 180690, Note_on_c, 5, 58, 100
7, 180690, Note_on_c, 5, 67, 100
7, 180720, Note_on_c, 5, 67, 0
7, 180720, Note_on_c, 5, 58, 0
7, 180720, Note_on_c, 5, 55, 100
7, 180720, Note_on_c, 5, 63, 100
7, 180750, Note_on_c, 5, 63, 0
7, 180750, Note_on_c, 5, 55, 0
7, 180750, Note_on_c, 5, 55, 100
7, 180750, Note_on_c, 5, 63, 100
7, 180780, Note_on_c, 5, 63, 0
7, 180780, Note_on_c, 5, 55, 0
7, 180780, Note_on_c, 5, 58, 100
7, 180780, Note_on_c, 5, 67, 100
7, 180810, Note_on_c, 5, 67, 0
7, 180810, Note_on_c, 5, 58, 0
7, 180810, Note_on_c, 5, 58, 100
7, 180810, Note_on_c, 5, 67, 100
7, 180840, Note_on_c, 5, 67, 0
7, 180840, Note_on_c, 5, 58, 0
7, 180840, Note_on_c, 5, 55, 100
7, 180840, Note_on_c, 5, 63, 100
7, 180870, Note_on_c, 5, 63, 0
7, 180870, Note_on_c, 5, 55, 0
7, 180870, Note_on_c, 5, 55, 100
7, 180870, Note_on_c, 5, 63, 100
7, 180900, Note_on_c, 5, 63, 0
7, 180900, Note_on_c, 5, 55, 0
7, 180900, Note_on_c, 5, 58, 100
7, 180900, Note_on_c, 5, 67, 100
7, 180930, Note_on_c, 5, 67, 0
7, 180930, Note_on_c, 5, 58, 0
7, 180930, Note_on_c, 5, 58, 100
7, 180930, Note_on_c, 5, 67, 100
7, 180960, Note_on_c, 5, 67, 0
7, 180960, Note_on_c, 5, 58, 0
7, 180960, Note_on_c, 5, 55, 100
7, 180960, Note_on_c, 5, 63, 100
7, 181140, Note_on_c, 5, 63, 0
7, 181140, Note_on_c, 5, 55, 0
7, 181140, Note_on_c, 5, 63, 100
7, 181170, Note_on_c, 5, 63, 0
7, 181170, Note_on_c, 5, 65, 100
7, 181200, Note_on_c, 5, 65, 0
7, 181200, Note_on_c, 5, 67, 100
7, 181260, Note_on_c, 5, 67, 0
7, 181290, Note_on_c, 5, 67, 100
7, 181305, Note_on_c, 5, 67, 0
7, 181305, Note_on_c, 5, 68, 100
7, 181320, Note_on_c, 5, 68, 0
7, 181320, Note_on_c, 5, 70, 100
7, 181380, Note_on_c, 5, 70, 0
7, 181410, Note_on_c, 5, 70, 100
7, 181420, Note_on_c, 5, 70, 0
7, 181420, Note_on_c, 5, 72, 100
7, 181430, Note_on_c, 5, 72, 0
7, 181430, Note_on_c, 5, 74, 100
7, 181440, Note_on_c, 5, 74, 0
7, 181440, Note_on_c, 5, 75, 100
7, 181470, Note_on_c, 5, 75, 0
7, 181470, Note_on_c, 5, 75, 100
7, 181500, Note_on_c, 5, 75, 0
7, 181500, Note_on_c, 5, 75, 100
7, 181530, Note_on_c, 5, 75, 0
7, 181530, Note_on_c, 5, 75, 100
7, 181560, Note_on_c, 5, 75, 0
7, 181560, Note_on_c, 5, 79, 100
7, 181590, Note_on_c, 5, 79, 0
7, 181590, Note_on_c, 5, 79, 100
7, 181620, Note_on_c, 5, 79, 0
7, 181620, Note_on_c, 5, 79, 100
7, 181650, Note_on_c, 5, 79, 0
7, 181650, Note_on_c, 5, 79, 100
7, 181680, Note_on_c, 5, 79, 0
7, 181680, Note_on_c, 5, 82, 100
7, 181710, Note_on_c, 5, 82, 0
7, 181710, Note_on_c, 5, 82, 100
7, 181740, Note_on_c, 5, 82, 0
7, 181740, Note_on_c, 5, 82, 100
7, 181770, Note_on_c, 5, 82, 0
7, 181770, Note_on_c, 5, 82, 100
7, 181800, Note_on_c, 5, 82, 0
7, 181800, Note_on_c, 5, 79, 100
7, 181830, Note_on_c, 5, 79, 0
7, 181830, Note_on_c, 5, 79, 100
7, 181860, Note_on_c, 5, 79, 0
7, 181860, Note_on_c, 5, 79, 100
7, 181890, Note_on_c, 5, 79, 0
7, 181890, Note_on_c, 5, 79, 100
7, 181920, Note_on_c, 5, 79, 0
7, 181920, Note_on_c, 5, 75, 100
7, 182040, Note_on_c, 5, 75, 0
7, 182040, Note_on_c, 5, 58, 100
7, 182040, Note_on_c, 5, 67, 100
7, 182040, Note_on_c, 5, 75, 100
7, 182160, Note_on_c, 5, 75, 0
7, 182160, Note_on_c, 5, 67, 0
7, 182160, Note_on_c, 5, 58, 0
7, 182160, Note_on_c, 5, 58, 100
7, 182160, Note_on_c, 5, 67, 100
7, 182160, Note_on_c, 5, 75, 100
7, 182280, Note_on_c, 5, 75, 0
7, 182280, Note_on_c, 5, 67, 0
7, 182280, Note_on_c, 5, 58, 0
7, 182280, Note_on_c, 5, 58, 100
7, 182280, Note_on_c, 5, 67, 100
7, 182280, Note_on_c, 5, 75, 100
7, 182400, Note_on_c, 5, 75, 0
7, 182400, Note_on_c, 5, 67, 0
7, 182400, Note_on_c, 5, 58, 0
7, 182400, Note_on_c, 5, 58, 100
7, 182400, Note_on_c, 5, 67, 100
7, 182400, Note_on_c, 5, 75, 100
7, 182520, Note_on_c, 5, 75, 0
7, 182520, Note_on_c, 5, 67, 0
7, 182520, Note_on_c, 5, 58, 0
7, 182610, Note_on_c, 5, 55, 100
7, 182610, Note_on_c, 5, 63, 100
7, 182640, Note_on_c, 5, 63, 0
7, 182640, Note_on_c, 5, 55, 0
7, 182640, Note_on_c, 5, 55, 100
7, 182640, Note_on_c, 5, 63, 100
7, 182760, Note_on_c, 5, 63, 0
7, 182760, Note_on_c, 5, 55, 0
7, 182850, Note_on_c, 5, 55, 100
7, 182850, Note_on_c, 5, 63, 100
7, 182880, Note_on_c, 5, 63, 0
7, 182880, Note_on_c, 5, 55, 0
7, 182880, Note_on_c, 5, 55, 100
7, 182880, Note_on_c, 5, 63, 100
7, 183120, Note_on_c, 5, 63, 0
7, 183120, Note_on_c, 5, 55, 0
7, 183120, End_track
8, 0, Start_track
8, 0, MIDI_port, 0
8, 0, Title_t, "Viola I"
8, 0, Program_c, 6, 41
8, 0, Note_on_c, 6, 63, 100
8, 0, Note_on_c, 6, 58, 100
8, 480, Note_on_c, 6, 58, 0
8, 480, Note_on_c, 6, 63, 0
8, 480, Note_on_c, 6, 58, 100
8, 480, Note_on_c, 6, 63, 100
8, 720, Note_on_c, 6, 63, 0
8, 720, Note_on_c, 6, 58, 0
8, 720, Note_on_c, 6, 58, 100
8, 720, Note_on_c, 6, 63, 100
8, 900, Note_on_c, 6, 63, 0
8, 900, Note_on_c, 6, 58, 0
8, 900, Note_on_c, 6, 58, 100
8, 900, Note_on_c, 6, 63, 100
8, 960, Note_on_c, 6, 63, 0
8, 960, Note_on_c, 6, 58, 0
8, 960, Note_on_c, 6, 58, 100
8, 960, Note_on_c, 6, 63, 100
8, 1080, Note_on_c, 6, 63, 0
8, 1080, Note_on_c, 6, 58, 0
8, 2040, Note_on_c, 6, 65, 100
8, 2280, Note_on_c, 6, 65, 0
8, 2280, Note_on_c, 6, 65, 100
8, 2520, Note_on_c, 6, 65, 0
8, 2520, Note_on_c, 6, 65, 100
8, 2760, Note_on_c, 6, 65, 0
8, 2760, Note_on_c, 6, 65, 100
8, 2880, Note_on_c, 6, 65, 0
8, 2880, Note_on_c, 6, 67, 100
8, 3000, Note_on_c, 6, 67, 0
8, 3960, Note_on_c, 6, 65, 100
8, 4200, Note_on_c, 6, 65, 0
8, 4200, Note_on_c, 6, 65, 100
8, 4440, Note_on_c, 6, 65, 0
8, 4440, Note_on_c, 6, 65, 100
8, 4680, Note_on_c, 6, 65, 0
8, 4680, Note_on_c, 6, 65, 100
8, 4800, Note_on_c, 6, 65, 0
8, 4800, Note_on_c, 6, 67, 100
8, 4920, Note_on_c, 6, 67, 0
8, 6240, Note_on_c, 6, 68, 100
8, 6420, Note_on_c, 6, 68, 0
8, 6420, Note_on_c, 6, 67, 100
8, 6480, Note_on_c, 6, 67, 0
8, 6480, Note_on_c, 6, 65, 100
8, 6600, Note_on_c, 6, 65, 0
8, 6600, Note_on_c, 6, 65, 100
8, 6720, Note_on_c, 6, 65, 0
8, 6720, Note_on_c, 6, 70, 100
8, 6900, Note_on_c, 6, 70, 0
8, 6900, Note_on_c, 6, 68, 100
8, 6960, Note_on_c, 6, 68, 0
8, 6960, Note_on_c, 6, 67, 100
8, 7080, Note_on_c, 6, 67, 0
8, 7200, Note_on_c, 6, 63, 100
8, 7440, Note_on_c, 6, 63, 0
8, 7440, Note_on_c, 6, 61, 100
8, 7680, Note_on_c, 6, 61, 0
8, 7680, Note_on_c, 6, 60, 100
8, 7920, Note_on_c, 6, 60, 0
8, 7920, Note_on_c, 6, 58, 100
8, 8160, Note_on_c, 6, 58, 0
8, 8160, Note_on_c, 6, 56, 100
8, 8400, Note_on_c, 6, 56, 0
8, 8400, Note_on_c, 6, 55, 100
8, 8520, Note_on_c, 6, 55, 0
8, 8520, Note_on_c, 6, 53, 100
8, 8640, Note_on_c, 6, 53, 0
8, 8640, Note_on_c, 6, 51, 100
8, 8760, Note_on_c, 6, 51, 0
8, 10080, Note_on_c, 6, 68, 100
8, 10260, Note_on_c, 6, 68, 0
8, 10260, Note_on_c, 6, 67, 100
8, 10320, Note_on_c, 6, 67, 0
8, 10320, Note_on_c, 6, 65, 100
8, 10440, Note_on_c, 6, 65, 0
8, 10440, Note_on_c, 6, 65, 100
8, 10560, Note_on_c, 6, 65, 0
8, 10560, Note_on_c, 6, 70, 100
8, 10740, Note_on_c, 6, 70, 0
8, 10740, Note_on_c, 6, 68, 100
8, 10800, Note_on_c, 6, 68, 0
8, 10800, Note_on_c, 6, 67, 100
8, 10920, Note_on_c, 6, 67, 0
8, 11040, Note_on_c, 6, 63, 100
8, 11280, Note_on_c, 6, 63, 0
8, 11280, Note_on_c, 6, 61, 100
8, 11520, Note_on_c, 6, 61, 0
8, 11520, Note_on_c, 6, 60, 100
8, 11760, Note_on_c, 6, 60, 0
8, 11760, Note_on_c, 6, 58, 100
8, 12000, Note_on_c, 6, 58, 0
8, 12000, Note_on_c, 6, 56, 100
8, 12240, Note_on_c, 6, 56, 0
8, 12240, Note_on_c, 6, 55, 100
8, 12360, Note_on_c, 6, 55, 0
8, 12360, Note_on_c, 6, 53, 100
8, 12480, Note_on_c, 6, 53, 0
8, 12480, Note_on_c, 6, 51, 100
8, 12540, Note_on_c, 6, 51, 0
8, 12540, Note_on_c, 6, 55, 100
8, 12600, Note_on_c, 6, 55, 0
8, 12600, Note_on_c, 6, 58, 100
8, 12660, Note_on_c, 6, 58, 0
8, 12660, Note_on_c, 6, 55, 100
8, 12720, Note_on_c, 6, 55, 0
8, 12720, Note_on_c, 6, 51, 100
8, 12780, Note_on_c, 6, 51, 0
8, 12780, Note_on_c, 6, 51, 100
8, 12840, Note_on_c, 6, 51, 0
8, 12840, Note_on_c, 6, 51, 100
8, 12900, Note_on_c, 6, 51, 0
8, 12900, Note_on_c, 6, 51, 100
8, 12960, Note_on_c, 6, 51, 0
8, 12960, Note_on_c, 6, 50, 100
8, 13020, Note_on_c, 6, 50, 0
8, 13020, Note_on_c, 6, 53, 100
8, 13080, Note_on_c, 6, 53, 0
8, 13080, Note_on_c, 6, 58, 100
8, 13140, Note_on_c, 6, 58, 0
8, 13140, Note_on_c, 6, 53, 100
8, 13200, Note_on_c, 6, 53, 0
8, 13200, Note_on_c, 6, 50, 100
8, 13260, Note_on_c, 6, 50, 0
8, 13260, Note_on_c, 6, 50, 100
8, 13320, Note_on_c, 6, 50, 0
8, 13320, Note_on_c, 6, 50, 100
8, 13380, Note_on_c, 6, 50, 0
8, 13380, Note_on_c, 6, 50, 100
8, 13440, Note_on_c, 6, 50, 0
8, 13440, Note_on_c, 6, 48, 100
8, 13500, Note_on_c, 6, 48, 0
8, 13500, Note_on_c, 6, 51, 100
8, 13560, Note_on_c, 6, 51, 0
8, 13560, Note_on_c, 6, 55, 100
8, 13620, Note_on_c, 6, 55, 0
8, 13620, Note_on_c, 6, 51, 100
8, 13680, Note_on_c, 6, 51, 0
8, 13680, Note_on_c, 6, 48, 100
8, 13740, Note_on_c, 6, 48, 0
8, 13740, Note_on_c, 6, 48, 100
8, 13800, Note_on_c, 6, 48, 0
8, 13800, Note_on_c, 6, 60, 100
8, 13860, Note_on_c, 6, 60, 0
8, 13860, Note_on_c, 6, 60, 100
8, 13920, Note_on_c, 6, 60, 0
8, 13920, Note_on_c, 6, 58, 100
8, 13980, Note_on_c, 6, 58, 0
8, 13980, Note_on_c, 6, 58, 100
8, 14100, Note_on_c, 6, 58, 0
8, 14100, Note_on_c, 6, 58, 100
8, 14160, Note_on_c, 6, 58, 0
8, 14160, Note_on_c, 6, 68, 100
8, 14220, Note_on_c, 6, 68, 0
8, 14220, Note_on_c, 6, 68, 100
8, 14340, Note_on_c, 6, 68, 0
8, 14340, Note_on_c, 6, 68, 100
8, 14400, Note_on_c, 6, 68, 0
8, 14400, Note_on_c, 6, 67, 100
8, 14460, Note_on_c, 6, 67, 0
8, 14460, Note_on_c, 6, 67, 100
8, 14580, Note_on_c, 6, 67, 0
8, 14580, Note_on_c, 6, 67, 100
8, 14700, Note_on_c, 6, 67, 0
8, 14700, Note_on_c, 6, 67, 100
8, 14820, Note_on_c, 6, 67, 0
8, 14820, Note_on_c, 6, 67, 100
8, 14880, Note_on_c, 6, 67, 0
8, 14880, Note_on_c, 6, 65, 100
8, 14910, Note_on_c, 6, 65, 0
8, 14910, Note_on_c, 6, 65, 100
8, 14940, Note_on_c, 6, 65, 0
8, 14940, Note_on_c, 6, 65, 100
8, 14970, Note_on_c, 6, 65, 0
8, 14970, Note_on_c, 6, 65, 100
8, 15000, Note_on_c, 6, 65, 0
8, 15000, Note_on_c, 6, 65, 100
8, 15030, Note_on_c, 6, 65, 0
8, 15030, Note_on_c, 6, 65, 100
8, 15060, Note_on_c, 6, 65, 0
8, 15060, Note_on_c, 6, 65, 100
8, 15090, Note_on_c, 6, 65, 0
8, 15090, Note_on_c, 6, 65, 100
8, 15120, Note_on_c, 6, 65, 0
8, 15120, Note_on_c, 6, 68, 100
8, 15150, Note_on_c, 6, 68, 0
8, 15150, Note_on_c, 6, 68, 100
8, 15180, Note_on_c, 6, 68, 0
8, 15180, Note_on_c, 6, 68, 100
8, 15210, Note_on_c, 6, 68, 0
8, 15210, Note_on_c, 6, 68, 100
8, 15240, Note_on_c, 6, 68, 0
8, 15240, Note_on_c, 6, 68, 100
8, 15270, Note_on_c, 6, 68, 0
8, 15270, Note_on_c, 6, 68, 100
8, 15300, Note_on_c, 6, 68, 0
8, 15300, Note_on_c, 6, 68, 100
8, 15330, Note_on_c, 6, 68, 0
8, 15330, Note_on_c, 6, 68, 100
8, 15360, Note_on_c, 6, 68, 0
8, 15360, Note_on_c, 6, 67, 100
8, 15390, Note_on_c, 6, 67, 0
8, 15390, Note_on_c, 6, 67, 100
8, 15420, Note_on_c, 6, 67, 0
8, 15420, Note_on_c, 6, 67, 100
8, 15450, Note_on_c, 6, 67, 0
8, 15450, Note_on_c, 6, 67, 100
8, 15480, Note_on_c, 6, 67, 0
8, 15480, Note_on_c, 6, 67, 100
8, 15510, Note_on_c, 6, 67, 0
8, 15510, Note_on_c, 6, 67, 100
8, 15540, Note_on_c, 6, 67, 0
8, 15540, Note_on_c, 6, 67, 100
8, 15570, Note_on_c, 6, 67, 0
8, 15570, Note_on_c, 6, 67, 100
8, 15600, Note_on_c, 6, 67, 0
8, 15600, Note_on_c, 6, 67, 100
8, 15630, Note_on_c, 6, 67, 0
8, 15630, Note_on_c, 6, 67, 100
8, 15660, Note_on_c, 6, 67, 0
8, 15660, Note_on_c, 6, 67, 100
8, 15690, Note_on_c, 6, 67, 0
8, 15690, Note_on_c, 6, 67, 100
8, 15720, Note_on_c, 6, 67, 0
8, 15720, Note_on_c, 6, 67, 100
8, 15750, Note_on_c, 6, 67, 0
8, 15750, Note_on_c, 6, 67, 100
8, 15780, Note_on_c, 6, 67, 0
8, 15780, Note_on_c, 6, 67, 100
8, 15810, Note_on_c, 6, 67, 0
8, 15810, Note_on_c, 6, 67, 100
8, 15840, Note_on_c, 6, 67, 0
8, 15840, Note_on_c, 6, 65, 100
8, 15960, Note_on_c, 6, 65, 0
8, 15960, Note_on_c, 6, 67, 100
8, 16050, Note_on_c, 6, 67, 0
8, 16050, Note_on_c, 6, 67, 100
8, 16080, Note_on_c, 6, 67, 0
8, 16080, Note_on_c, 6, 65, 100
8, 16200, Note_on_c, 6, 65, 0
8, 16200, Note_on_c, 6, 67, 100
8, 16290, Note_on_c, 6, 67, 0
8, 16290, Note_on_c, 6, 67, 100
8, 16320, Note_on_c, 6, 67, 0
8, 16320, Note_on_c, 6, 65, 100
8, 16440, Note_on_c, 6, 65, 0
8, 16530, Note_on_c, 6, 58, 100
8, 16560, Note_on_c, 6, 58, 0
8, 16560, Note_on_c, 6, 58, 100
8, 16680, Note_on_c, 6, 58, 0
8, 16680, Note_on_c, 6, 58, 100
8, 16800, Note_on_c, 6, 58, 0
8, 16800, Note_on_c, 6, 58, 100
8, 16920, Note_on_c, 6, 58, 0
8, 17760, Note_on_c, 6, 63, 100
8, 17820, Note_on_c, 6, 63, 0
8, 17820, Note_on_c, 6, 67, 100
8, 17880, Note_on_c, 6, 67, 0
8, 17880, Note_on_c, 6, 63, 100
8, 17940, Note_on_c, 6, 63, 0
8, 17940, Note_on_c, 6, 67, 100
8, 18000, Note_on_c, 6, 67, 0
8, 18000, Note_on_c, 6, 63, 100
8, 18060, Note_on_c, 6, 63, 0
8, 18060, Note_on_c, 6, 67, 100
8, 18120, Note_on_c, 6, 67, 0
8, 18120, Note_on_c, 6, 63, 100
8, 18180, Note_on_c, 6, 63, 0
8, 18180, Note_on_c, 6, 67, 100
8, 18240, Note_on_c, 6, 67, 0
8, 18240, Note_on_c, 6, 63, 100
8, 18300, Note_on_c, 6, 63, 0
8, 18300, Note_on_c, 6, 67, 100
8, 18360, Note_on_c, 6, 67, 0
8, 18360, Note_on_c, 6, 63, 100
8, 18420, Note_on_c, 6, 63, 0
8, 18420, Note_on_c, 6, 67, 100
8, 18480, Note_on_c, 6, 67, 0
8, 18480, Note_on_c, 6, 63, 100
8, 18540, Note_on_c, 6, 63, 0
8, 18540, Note_on_c, 6, 67, 100
8, 18600, Note_on_c, 6, 67, 0
8, 18600, Note_on_c, 6, 63, 100
8, 18660, Note_on_c, 6, 63, 0
8, 18660, Note_on_c, 6, 67, 100
8, 18720, Note_on_c, 6, 67, 0
8, 18720, Note_on_c, 6, 62, 100
8, 18780, Note_on_c, 6, 62, 0
8, 18780, Note_on_c, 6, 65, 100
8, 18840, Note_on_c, 6, 65, 0
8, 18840, Note_on_c, 6, 62, 100
8, 18900, Note_on_c, 6, 62, 0
8, 18900, Note_on_c, 6, 65, 100
8, 18960, Note_on_c, 6, 65, 0
8, 18960, Note_on_c, 6, 63, 100
8, 19020, Note_on_c, 6, 63, 0
8, 19020, Note_on_c, 6, 67, 100
8, 19080, Note_on_c, 6, 67, 0
8, 19080, Note_on_c, 6, 63, 100
8, 19140, Note_on_c, 6, 63, 0
8, 19140, Note_on_c, 6, 67, 100
8, 19200, Note_on_c, 6, 67, 0
8, 19200, Note_on_c, 6, 62, 100
8, 19260, Note_on_c, 6, 62, 0
8, 19260, Note_on_c, 6, 68, 100
8, 19320, Note_on_c, 6, 68, 0
8, 19320, Note_on_c, 6, 62, 100
8, 19380, Note_on_c, 6, 62, 0
8, 19380, Note_on_c, 6, 68, 100
8, 19440, Note_on_c, 6, 68, 0
8, 19440, Note_on_c, 6, 62, 100
8, 19500, Note_on_c, 6, 62, 0
8, 19500, Note_on_c, 6, 68, 100
8, 19560, Note_on_c, 6, 68, 0
8, 19560, Note_on_c, 6, 62, 100
8, 19620, Note_on_c, 6, 62, 0
8, 19620, Note_on_c, 6, 68, 100
8, 19680, Note_on_c, 6, 68, 0
8, 19680, Note_on_c, 6, 63, 100
8, 19740, Note_on_c, 6, 63, 0
8, 19740, Note_on_c, 6, 67, 100
8, 19800, Note_on_c, 6, 67, 0
8, 19800, Note_on_c, 6, 63, 100
8, 19860, Note_on_c, 6, 63, 0
8, 19860, Note_on_c, 6, 67, 100
8, 19920, Note_on_c, 6, 67, 0
8, 19920, Note_on_c, 6, 63, 100
8, 19980, Note_on_c, 6, 63, 0
8, 19980, Note_on_c, 6, 67, 100
8, 20040, Note_on_c, 6, 67, 0
8, 20040, Note_on_c, 6, 63, 100
8, 20100, Note_on_c, 6, 63, 0
8, 20100, Note_on_c, 6, 67, 100
8, 20160, Note_on_c, 6, 67, 0
8, 20160, Note_on_c, 6, 63, 100
8, 20220, Note_on_c, 6, 63, 0
8, 20220, Note_on_c, 6, 67, 100
8, 20280, Note_on_c, 6, 67, 0
8, 20280, Note_on_c, 6, 63, 100
8, 20340, Note_on_c, 6, 63, 0
8, 20340, Note_on_c, 6, 67, 100
8, 20400, Note_on_c, 6, 67, 0
8, 20400, Note_on_c, 6, 63, 100
8, 20460, Note_on_c, 6, 63, 0
8, 20460, Note_on_c, 6, 67, 100
8, 20520, Note_on_c, 6, 67, 0
8, 20520, Note_on_c, 6, 63, 100
8, 20580, Note_on_c, 6, 63, 0
8, 20580, Note_on_c, 6, 67, 100
8, 20640, Note_on_c, 6, 67, 0
8, 20640, Note_on_c, 6, 62, 100
8, 20700, Note_on_c, 6, 62, 0
8, 20700, Note_on_c, 6, 65, 100
8, 20760, Note_on_c, 6, 65, 0
8, 20760, Note_on_c, 6, 62, 100
8, 20820, Note_on_c, 6, 62, 0
8, 20820, Note_on_c, 6, 65, 100
8, 20880, Note_on_c, 6, 65, 0
8, 20880, Note_on_c, 6, 63, 100
8, 20940, Note_on_c, 6, 63, 0
8, 20940, Note_on_c, 6, 67, 100
8, 21000, Note_on_c, 6, 67, 0
8, 21000, Note_on_c, 6, 63, 100
8, 21060, Note_on_c, 6, 63, 0
8, 21060, Note_on_c, 6, 67, 100
8, 21120, Note_on_c, 6, 67, 0
8, 21120, Note_on_c, 6, 62, 100
8, 21180, Note_on_c, 6, 62, 0
8, 21180, Note_on_c, 6, 68, 100
8, 21240, Note_on_c, 6, 68, 0
8, 21240, Note_on_c, 6, 62, 100
8, 21300, Note_on_c, 6, 62, 0
8, 21300, Note_on_c, 6, 68, 100
8, 21360, Note_on_c, 6, 68, 0
8, 21360, Note_on_c, 6, 62, 100
8, 21420, Note_on_c, 6, 62, 0
8, 21420, Note_on_c, 6, 68, 100
8, 21480, Note_on_c, 6, 68, 0
8, 21480, Note_on_c, 6, 62, 100
8, 21540, Note_on_c, 6, 62, 0
8, 21540, Note_on_c, 6, 68, 100
8, 21600, Note_on_c, 6, 68, 0
8, 21600, Note_on_c, 6, 63, 100
8, 21630, Note_on_c, 6, 63, 0
8, 21630, Note_on_c, 6, 63, 100
8, 21660, Note_on_c, 6, 63, 0
8, 21660, Note_on_c, 6, 63, 100
8, 21690, Note_on_c, 6, 63, 0
8, 21690, Note_on_c, 6, 63, 100
8, 21720, Note_on_c, 6, 63, 0
8, 21720, Note_on_c, 6, 63, 100
8, 21750, Note_on_c, 6, 63, 0
8, 21750, Note_on_c, 6, 63, 100
8, 21780, Note_on_c, 6, 63, 0
8, 21780, Note_on_c, 6, 63, 100
8, 21810, Note_on_c, 6, 63, 0
8, 21810, Note_on_c, 6, 63, 100
8, 21840, Note_on_c, 6, 63, 0
8, 21840, Note_on_c, 6, 63, 100
8, 21870, Note_on_c, 6, 63, 0
8, 21870, Note_on_c, 6, 63, 100
8, 21900, Note_on_c, 6, 63, 0
8, 21900, Note_on_c, 6, 63, 100
8, 21930, Note_on_c, 6, 63, 0
8, 21930, Note_on_c, 6, 63, 100
8, 21960, Note_on_c, 6, 63, 0
8, 21960, Note_on_c, 6, 63, 100
8, 21990, Note_on_c, 6, 63, 0
8, 21990, Note_on_c, 6, 63, 100
8, 22020, Note_on_c, 6, 63, 0
8, 22020, Note_on_c, 6, 63, 100
8, 22050, Note_on_c, 6, 63, 0
8, 22050, Note_on_c, 6, 63, 100
8, 22080, Note_on_c, 6, 63, 0
8, 22080, Note_on_c, 6, 63, 100
8, 22110, Note_on_c, 6, 63, 0
8, 22110, Note_on_c, 6, 63, 100
8, 22140, Note_on_c, 6, 63, 0
8, 22140, Note_on_c, 6, 63, 100
8, 22170, Note_on_c, 6, 63, 0
8, 22170, Note_on_c, 6, 63, 100
8, 22200, Note_on_c, 6, 63, 0
8, 22200, Note_on_c, 6, 63, 100
8, 22230, Note_on_c, 6, 63, 0
8, 22230, Note_on_c, 6, 63, 100
8, 22260, Note_on_c, 6, 63, 0
8, 22260, Note_on_c, 6, 63, 100
8, 22290, Note_on_c, 6, 63, 0
8, 22290, Note_on_c, 6, 63, 100
8, 22320, Note_on_c, 6, 63, 0
8, 22320, Note_on_c, 6, 63, 100
8, 22350, Note_on_c, 6, 63, 0
8, 22350, Note_on_c, 6, 63, 100
8, 22380, Note_on_c, 6, 63, 0
8, 22380, Note_on_c, 6, 63, 100
8, 22410, Note_on_c, 6, 63, 0
8, 22410, Note_on_c, 6, 63, 100
8, 22440, Note_on_c, 6, 63, 0
8, 22440, Note_on_c, 6, 63, 100
8, 22470, Note_on_c, 6, 63, 0
8, 22470, Note_on_c, 6, 63, 100
8, 22500, Note_on_c, 6, 63, 0
8, 22500, Note_on_c, 6, 63, 100
8, 22530, Note_on_c, 6, 63, 0
8, 22530, Note_on_c, 6, 63, 100
8, 22560, Note_on_c, 6, 63, 0
8, 22560, Note_on_c, 6, 63, 100
8, 22590, Note_on_c, 6, 63, 0
8, 22590, Note_on_c, 6, 63, 100
8, 22620, Note_on_c, 6, 63, 0
8, 22620, Note_on_c, 6, 63, 100
8, 22650, Note_on_c, 6, 63, 0
8, 22650, Note_on_c, 6, 63, 100
8, 22680, Note_on_c, 6, 63, 0
8, 22680, Note_on_c, 6, 63, 100
8, 22710, Note_on_c, 6, 63, 0
8, 22710, Note_on_c, 6, 63, 100
8, 22740, Note_on_c, 6, 63, 0
8, 22740, Note_on_c, 6, 63, 100
8, 22770, Note_on_c, 6, 63, 0
8, 22770, Note_on_c, 6, 63, 100
8, 22800, Note_on_c, 6, 63, 0
8, 22800, Note_on_c, 6, 63, 100
8, 22830, Note_on_c, 6, 63, 0
8, 22830, Note_on_c, 6, 63, 100
8, 22860, Note_on_c, 6, 63, 0
8, 22860, Note_on_c, 6, 63, 100
8, 22890, Note_on_c, 6, 63, 0
8, 22890, Note_on_c, 6, 63, 100
8, 22920, Note_on_c, 6, 63, 0
8, 22920, Note_on_c, 6, 63, 100
8, 22950, Note_on_c, 6, 63, 0
8, 22950, Note_on_c, 6, 63, 100
8, 22980, Note_on_c, 6, 63, 0
8, 22980, Note_on_c, 6, 63, 100
8, 23010, Note_on_c, 6, 63, 0
8, 23010, Note_on_c, 6, 63, 100
8, 23040, Note_on_c, 6, 63, 0
8, 23040, Note_on_c, 6, 63, 100
8, 23070, Note_on_c, 6, 63, 0
8, 23070, Note_on_c, 6, 63, 100
8, 23100, Note_on_c, 6, 63, 0
8, 23100, Note_on_c, 6, 63, 100
8, 23130, Note_on_c, 6, 63, 0
8, 23130, Note_on_c, 6, 63, 100
8, 23160, Note_on_c, 6, 63, 0
8, 23160, Note_on_c, 6, 63, 100
8, 23190, Note_on_c, 6, 63, 0
8, 23190, Note_on_c, 6, 63, 100
8, 23220, Note_on_c, 6, 63, 0
8, 23220, Note_on_c, 6, 63, 100
8, 23250, Note_on_c, 6, 63, 0
8, 23250, Note_on_c, 6, 63, 100
8, 23280, Note_on_c, 6, 63, 0
8, 23280, Note_on_c, 6, 63, 100
8, 23310, Note_on_c, 6, 63, 0
8, 23310, Note_on_c, 6, 63, 100
8, 23340, Note_on_c, 6, 63, 0
8, 23340, Note_on_c, 6, 63, 100
8, 23370, Note_on_c, 6, 63, 0
8, 23370, Note_on_c, 6, 63, 100
8, 23400, Note_on_c, 6, 63, 0
8, 23400, Note_on_c, 6, 63, 100
8, 23430, Note_on_c, 6, 63, 0
8, 23430, Note_on_c, 6, 63, 100
8, 23460, Note_on_c, 6, 63, 0
8, 23460, Note_on_c, 6, 63, 100
8, 23490, Note_on_c, 6, 63, 0
8, 23490, Note_on_c, 6, 63, 100
8, 23520, Note_on_c, 6, 63, 0
8, 23520, Note_on_c, 6, 63, 100
8, 23550, Note_on_c, 6, 63, 0
8, 23550, Note_on_c, 6, 63, 100
8, 23580, Note_on_c, 6, 63, 0
8, 23580, Note_on_c, 6, 63, 100
8, 23610, Note_on_c, 6, 63, 0
8, 23610, Note_on_c, 6, 63, 100
8, 23640, Note_on_c, 6, 63, 0
8, 23640, Note_on_c, 6, 63, 100
8, 23670, Note_on_c, 6, 63, 0
8, 23670, Note_on_c, 6, 63, 100
8, 23700, Note_on_c, 6, 63, 0
8, 23700, Note_on_c, 6, 63, 100
8, 23730, Note_on_c, 6, 63, 0
8, 23730, Note_on_c, 6, 63, 100
8, 23760, Note_on_c, 6, 63, 0
8, 23760, Note_on_c, 6, 61, 100
8, 23790, Note_on_c, 6, 61, 0
8, 23790, Note_on_c, 6, 61, 100
8, 23820, Note_on_c, 6, 61, 0
8, 23820, Note_on_c, 6, 61, 100
8, 23850, Note_on_c, 6, 61, 0
8, 23850, Note_on_c, 6, 61, 100
8, 23880, Note_on_c, 6, 61, 0
8, 23880, Note_on_c, 6, 61, 100
8, 23910, Note_on_c, 6, 61, 0
8, 23910, Note_on_c, 6, 61, 100
8, 23940, Note_on_c, 6, 61, 0
8, 23940, Note_on_c, 6, 61, 100
8, 23970, Note_on_c, 6, 61, 0
8, 23970, Note_on_c, 6, 61, 100
8, 24000, Note_on_c, 6, 61, 0
8, 24000, Note_on_c, 6, 60, 100
8, 24030, Note_on_c, 6, 60, 0
8, 24030, Note_on_c, 6, 60, 100
8, 24060, Note_on_c, 6, 60, 0
8, 24060, Note_on_c, 6, 60, 100
8, 24090, Note_on_c, 6, 60, 0
8, 24090, Note_on_c, 6, 60, 100
8, 24120, Note_on_c, 6, 60, 0
8, 24120, Note_on_c, 6, 60, 100
8, 24150, Note_on_c, 6, 60, 0
8, 24150, Note_on_c, 6, 60, 100
8, 24180, Note_on_c, 6, 60, 0
8, 24180, Note_on_c, 6, 60, 100
8, 24210, Note_on_c, 6, 60, 0
8, 24210, Note_on_c, 6, 60, 100
8, 24240, Note_on_c, 6, 60, 0
8, 24240, Note_on_c, 6, 56, 100
8, 24270, Note_on_c, 6, 56, 0
8, 24270, Note_on_c, 6, 56, 100
8, 24300, Note_on_c, 6, 56, 0
8, 24300, Note_on_c, 6, 56, 100
8, 24330, Note_on_c, 6, 56, 0
8, 24330, Note_on_c, 6, 56, 100
8, 24360, Note_on_c, 6, 56, 0
8, 24360, Note_on_c, 6, 56, 100
8, 24390, Note_on_c, 6, 56, 0
8, 24390, Note_on_c, 6, 56, 100
8, 24420, Note_on_c, 6, 56, 0
8, 24420, Note_on_c, 6, 56, 100
8, 24450, Note_on_c, 6, 56, 0
8, 24450, Note_on_c, 6, 56, 100
8, 24480, Note_on_c, 6, 56, 0
8, 24480, Note_on_c, 6, 55, 100
8, 24510, Note_on_c, 6, 55, 0
8, 24510, Note_on_c, 6, 55, 100
8, 24540, Note_on_c, 6, 55, 0
8, 24540, Note_on_c, 6, 55, 100
8, 24570, Note_on_c, 6, 55, 0
8, 24570, Note_on_c, 6, 55, 100
8, 24600, Note_on_c, 6, 55, 0
8, 24600, Note_on_c, 6, 55, 100
8, 24630, Note_on_c, 6, 55, 0
8, 24630, Note_on_c, 6, 55, 100
8, 24660, Note_on_c, 6, 55, 0
8, 24660, Note_on_c, 6, 55, 100
8, 24690, Note_on_c, 6, 55, 0
8, 24690, Note_on_c, 6, 55, 100
8, 24720, Note_on_c, 6, 55, 0
8, 24720, Note_on_c, 6, 58, 100
8, 24750, Note_on_c, 6, 58, 0
8, 24750, Note_on_c, 6, 58, 100
8, 24780, Note_on_c, 6, 58, 0
8, 24780, Note_on_c, 6, 58, 100
8, 24810, Note_on_c, 6, 58, 0
8, 24810, Note_on_c, 6, 58, 100
8, 24840, Note_on_c, 6, 58, 0
8, 24840, Note_on_c, 6, 58, 100
8, 24870, Note_on_c, 6, 58, 0
8, 24870, Note_on_c, 6, 58, 100
8, 24900, Note_on_c, 6, 58, 0
8, 24900, Note_on_c, 6, 58, 100
8, 24930, Note_on_c, 6, 58, 0
8, 24930, Note_on_c, 6, 58, 100
8, 24960, Note_on_c, 6, 58, 0
8, 24960, Note_on_c, 6, 56, 100
8, 24990, Note_on_c, 6, 56, 0
8, 24990, Note_on_c, 6, 56, 100
8, 25020, Note_on_c, 6, 56, 0
8, 25020, Note_on_c, 6, 56, 100
8, 25050, Note_on_c, 6, 56, 0
8, 25050, Note_on_c, 6, 56, 100
8, 25080, Note_on_c, 6, 56, 0
8, 25080, Note_on_c, 6, 56, 100
8, 25110, Note_on_c, 6, 56, 0
8, 25110, Note_on_c, 6, 56, 100
8, 25140, Note_on_c, 6, 56, 0
8, 25140, Note_on_c, 6, 56, 100
8, 25170, Note_on_c, 6, 56, 0
8, 25170, Note_on_c, 6, 56, 100
8, 25200, Note_on_c, 6, 56, 0
8, 25200, Note_on_c, 6, 60, 100
8, 25230, Note_on_c, 6, 60, 0
8, 25230, Note_on_c, 6, 60, 100
8, 25260, Note_on_c, 6, 60, 0
8, 25260, Note_on_c, 6, 60, 100
8, 25290, Note_on_c, 6, 60, 0
8, 25290, Note_on_c, 6, 60, 100
8, 25320, Note_on_c, 6, 60, 0
8, 25320, Note_on_c, 6, 60, 100
8, 25350, Note_on_c, 6, 60, 0
8, 25350, Note_on_c, 6, 60, 100
8, 25380, Note_on_c, 6, 60, 0
8, 25380, Note_on_c, 6, 60, 100
8, 25410, Note_on_c, 6, 60, 0
8, 25410, Note_on_c, 6, 60, 100
8, 25440, Note_on_c, 6, 60, 0
8, 25440, Note_on_c, 6, 58, 100
8, 25470, Note_on_c, 6, 58, 0
8, 25470, Note_on_c, 6, 58, 100
8, 25500, Note_on_c, 6, 58, 0
8, 25500, Note_on_c, 6, 58, 100
8, 25530, Note_on_c, 6, 58, 0
8, 25530, Note_on_c, 6, 58, 100
8, 25560, Note_on_c, 6, 58, 0
8, 25560, Note_on_c, 6, 58, 100
8, 25590, Note_on_c, 6, 58, 0
8, 25590, Note_on_c, 6, 58, 100
8, 25620, Note_on_c, 6, 58, 0
8, 25620, Note_on_c, 6, 58, 100
8, 25650, Note_on_c, 6, 58, 0
8, 25650, Note_on_c, 6, 58, 100
8, 25680, Note_on_c, 6, 58, 0
8, 25680, Note_on_c, 6, 61, 100
8, 25710, Note_on_c, 6, 61, 0
8, 25710, Note_on_c, 6, 61, 100
8, 25740, Note_on_c, 6, 61, 0
8, 25740, Note_on_c, 6, 61, 100
8, 25770, Note_on_c, 6, 61, 0
8, 25770, Note_on_c, 6, 61, 100
8, 25800, Note_on_c, 6, 61, 0
8, 25800, Note_on_c, 6, 61, 100
8, 25830, Note_on_c, 6, 61, 0
8, 25830, Note_on_c, 6, 61, 100
8, 25860, Note_on_c, 6, 61, 0
8, 25860, Note_on_c, 6, 61, 100
8, 25890, Note_on_c, 6, 61, 0
8, 25890, Note_on_c, 6, 61, 100
8, 25920, Note_on_c, 6, 61, 0
8, 25920, Note_on_c, 6, 60, 100
8, 25950, Note_on_c, 6, 60, 0
8, 25950, Note_on_c, 6, 60, 100
8, 25980, Note_on_c, 6, 60, 0
8, 25980, Note_on_c, 6, 60, 100
8, 26010, Note_on_c, 6, 60, 0
8, 26010, Note_on_c, 6, 60, 100
8, 26040, Note_on_c, 6, 60, 0
8, 26040, Note_on_c, 6, 60, 100
8, 26070, Note_on_c, 6, 60, 0
8, 26070, Note_on_c, 6, 60, 100
8, 26100, Note_on_c, 6, 60, 0
8, 26100, Note_on_c, 6, 60, 100
8, 26130, Note_on_c, 6, 60, 0
8, 26130, Note_on_c, 6, 60, 100
8, 26160, Note_on_c, 6, 60, 0
8, 26160, Note_on_c, 6, 66, 100
8, 26190, Note_on_c, 6, 66, 0
8, 26190, Note_on_c, 6, 66, 100
8, 26220, Note_on_c, 6, 66, 0
8, 26220, Note_on_c, 6, 66, 100
8, 26250, Note_on_c, 6, 66, 0
8, 26250, Note_on_c, 6, 66, 100
8, 26280, Note_on_c, 6, 66, 0
8, 26280, Note_on_c, 6, 66, 100
8, 26310, Note_on_c, 6, 66, 0
8, 26310, Note_on_c, 6, 66, 100
8, 26340, Note_on_c, 6, 66, 0
8, 26340, Note_on_c, 6, 66, 100
8, 26370, Note_on_c, 6, 66, 0
8, 26370, Note_on_c, 6, 66, 100
8, 26400, Note_on_c, 6, 66, 0
8, 26400, Note_on_c, 6, 67, 100
8, 26430, Note_on_c, 6, 67, 0
8, 26430, Note_on_c, 6, 67, 100
8, 26460, Note_on_c, 6, 67, 0
8, 26460, Note_on_c, 6, 67, 100
8, 26490, Note_on_c, 6, 67, 0
8, 26490, Note_on_c, 6, 67, 100
8, 26520, Note_on_c, 6, 67, 0
8, 26520, Note_on_c, 6, 67, 100
8, 26550, Note_on_c, 6, 67, 0
8, 26550, Note_on_c, 6, 67, 100
8, 26580, Note_on_c, 6, 67, 0
8, 26580, Note_on_c, 6, 67, 100
8, 26610, Note_on_c, 6, 67, 0
8, 26610, Note_on_c, 6, 67, 100
8, 26640, Note_on_c, 6, 67, 0
8, 26640, Note_on_c, 6, 67, 100
8, 26670, Note_on_c, 6, 67, 0
8, 26670, Note_on_c, 6, 67, 100
8, 26700, Note_on_c, 6, 67, 0
8, 26700, Note_on_c, 6, 67, 100
8, 26730, Note_on_c, 6, 67, 0
8, 26730, Note_on_c, 6, 67, 100
8, 26760, Note_on_c, 6, 67, 0
8, 26760, Note_on_c, 6, 67, 100
8, 26790, Note_on_c, 6, 67, 0
8, 26790, Note_on_c, 6, 67, 100
8, 26820, Note_on_c, 6, 67, 0
8, 26820, Note_on_c, 6, 67, 100
8, 26850, Note_on_c, 6, 67, 0
8, 26850, Note_on_c, 6, 67, 100
8, 26880, Note_on_c, 6, 67, 0
8, 26880, Note_on_c, 6, 68, 100
8, 26910, Note_on_c, 6, 68, 0
8, 26910, Note_on_c, 6, 68, 100
8, 26940, Note_on_c, 6, 68, 0
8, 26940, Note_on_c, 6, 68, 100
8, 26970, Note_on_c, 6, 68, 0
8, 26970, Note_on_c, 6, 68, 100
8, 27000, Note_on_c, 6, 68, 0
8, 27000, Note_on_c, 6, 68, 100
8, 27030, Note_on_c, 6, 68, 0
8, 27030, Note_on_c, 6, 68, 100
8, 27060, Note_on_c, 6, 68, 0
8, 27060, Note_on_c, 6, 68, 100
8, 27090, Note_on_c, 6, 68, 0
8, 27090, Note_on_c, 6, 68, 100
8, 27120, Note_on_c, 6, 68, 0
8, 27120, Note_on_c, 6, 70, 100
8, 27150, Note_on_c, 6, 70, 0
8, 27150, Note_on_c, 6, 70, 100
8, 27180, Note_on_c, 6, 70, 0
8, 27180, Note_on_c, 6, 70, 100
8, 27210, Note_on_c, 6, 70, 0
8, 27210, Note_on_c, 6, 70, 100
8, 27240, Note_on_c, 6, 70, 0
8, 27240, Note_on_c, 6, 70, 100
8, 27270, Note_on_c, 6, 70, 0
8, 27270, Note_on_c, 6, 70, 100
8, 27300, Note_on_c, 6, 70, 0
8, 27300, Note_on_c, 6, 70, 100
8, 27330, Note_on_c, 6, 70, 0
8, 27330, Note_on_c, 6, 70, 100
8, 27360, Note_on_c, 6, 70, 0
8, 27360, Note_on_c, 6, 70, 100
8, 27600, Note_on_c, 6, 70, 0
8, 27600, Note_on_c, 6, 63, 100
8, 27780, Note_on_c, 6, 63, 0
8, 27780, Note_on_c, 6, 62, 100
8, 27810, Note_on_c, 6, 62, 0
8, 27810, Note_on_c, 6, 63, 100
8, 27840, Note_on_c, 6, 63, 0
8, 27840, Note_on_c, 6, 67, 100
8, 28080, Note_on_c, 6, 67, 0
8, 28080, Note_on_c, 6, 70, 100
8, 28320, Note_on_c, 6, 70, 0
8, 28320, Note_on_c, 6, 75, 100
8, 28560, Note_on_c, 6, 75, 0
8, 28560, Note_on_c, 6, 60, 100
8, 28740, Note_on_c, 6, 60, 0
8, 28740, Note_on_c, 6, 59, 100
8, 28770, Note_on_c, 6, 59, 0
8, 28770, Note_on_c, 6, 60, 100
8, 28800, Note_on_c, 6, 60, 0
8, 28800, Note_on_c, 6, 63, 100
8, 29040, Note_on_c, 6, 63, 0
8, 29040, Note_on_c, 6, 67, 100
8, 29280, Note_on_c, 6, 67, 0
8, 29280, Note_on_c, 6, 72, 100
8, 30240, Note_on_c, 6, 72, 0
8, 30240, Note_on_c, 6, 70, 100
8, 30480, Note_on_c, 6, 70, 0
8, 30480, Note_on_c, 6, 58, 100
8, 31320, Note_on_c, 6, 58, 0
8, 31680, Note_on_c, 6, 62, 100
8, 31680, Note_on_c, 6, 58, 100
8, 32160, Note_on_c, 6, 62, 0
8, 32160, Note_on_c, 6, 63, 100
8, 32280, Note_on_c, 6, 63, 0
8, 32280, Note_on_c, 6, 58, 0
8, 32640, Note_on_c, 6, 58, 100
8, 32640, Note_on_c, 6, 62, 100
8, 33120, Note_on_c, 6, 62, 0
8, 33120, Note_on_c, 6, 63, 100
8, 33180, Note_on_c, 6, 63, 0
8, 33180, Note_on_c, 6, 58, 0
8, 33180, Note_on_c, 6, 63, 100
8, 33240, Note_on_c, 6, 63, 0
8, 33240, Note_on_c, 6, 63, 100
8, 33300, Note_on_c, 6, 63, 0
8, 33300, Note_on_c, 6, 63, 100
8, 33360, Note_on_c, 6, 63, 0
8, 33360, Note_on_c, 6, 63, 100
8, 33420, Note_on_c, 6, 63, 0
8, 33420, Note_on_c, 6, 63, 100
8, 33480, Note_on_c, 6, 63, 0
8, 33480, Note_on_c, 6, 63, 100
8, 33540, Note_on_c, 6, 63, 0
8, 33540, Note_on_c, 6, 63, 100
8, 33600, Note_on_c, 6, 63, 0
8, 33600, Note_on_c, 6, 63, 100
8, 33660, Note_on_c, 6, 63, 0
8, 33660, Note_on_c, 6, 63, 100
8, 33720, Note_on_c, 6, 63, 0
8, 33720, Note_on_c, 6, 63, 100
8, 33780, Note_on_c, 6, 63, 0
8, 33780, Note_on_c, 6, 63, 100
8, 33840, Note_on_c, 6, 63, 0
8, 33840, Note_on_c, 6, 63, 100
8, 33900, Note_on_c, 6, 63, 0
8, 33900, Note_on_c, 6, 63, 100
8, 33960, Note_on_c, 6, 63, 0
8, 33960, Note_on_c, 6, 63, 100
8, 34020, Note_on_c, 6, 63, 0
8, 34020, Note_on_c, 6, 63, 100
8, 34080, Note_on_c, 6, 63, 0
8, 34080, Note_on_c, 6, 63, 100
8, 34140, Note_on_c, 6, 63, 0
8, 34140, Note_on_c, 6, 63, 100
8, 34200, Note_on_c, 6, 63, 0
8, 34200, Note_on_c, 6, 63, 100
8, 34260, Note_on_c, 6, 63, 0
8, 34260, Note_on_c, 6, 63, 100
8, 34320, Note_on_c, 6, 63, 0
8, 34320, Note_on_c, 6, 63, 100
8, 34380, Note_on_c, 6, 63, 0
8, 34380, Note_on_c, 6, 63, 100
8, 34440, Note_on_c, 6, 63, 0
8, 34440, Note_on_c, 6, 63, 100
8, 34500, Note_on_c, 6, 63, 0
8, 34500, Note_on_c, 6, 63, 100
8, 34560, Note_on_c, 6, 63, 0
8, 34560, Note_on_c, 6, 63, 100
8, 34620, Note_on_c, 6, 63, 0
8, 34620, Note_on_c, 6, 63, 100
8, 34680, Note_on_c, 6, 63, 0
8, 34680, Note_on_c, 6, 63, 100
8, 34740, Note_on_c, 6, 63, 0
8, 34740, Note_on_c, 6, 63, 100
8, 34800, Note_on_c, 6, 63, 0
8, 34800, Note_on_c, 6, 63, 100
8, 34860, Note_on_c, 6, 63, 0
8, 34860, Note_on_c, 6, 63, 100
8, 34920, Note_on_c, 6, 63, 0
8, 34920, Note_on_c, 6, 63, 100
8, 34980, Note_on_c, 6, 63, 0
8, 34980, Note_on_c, 6, 63, 100
8, 35040, Note_on_c, 6, 63, 0
8, 35040, Note_on_c, 6, 63, 100
8, 35160, Note_on_c, 6, 63, 0
8, 36960, Note_on_c, 6, 63, 100
8, 37200, Note_on_c, 6, 63, 0
8, 37200, Note_on_c, 6, 63, 100
8, 37380, Note_on_c, 6, 63, 0
8, 37380, Note_on_c, 6, 63, 100
8, 37440, Note_on_c, 6, 63, 0
8, 37440, Note_on_c, 6, 58, 100
8, 37920, Note_on_c, 6, 58, 0
8, 38880, Note_on_c, 6, 63, 100
8, 39120, Note_on_c, 6, 63, 0
8, 39120, Note_on_c, 6, 63, 100
8, 39300, Note_on_c, 6, 63, 0
8, 39300, Note_on_c, 6, 63, 100
8, 39360, Note_on_c, 6, 63, 0
8, 39360, Note_on_c, 6, 58, 100
8, 39840, Note_on_c, 6, 58, 0
8, 39840, Note_on_c, 6, 70, 100
8, 41880, Note_on_c, 6, 70, 0
8, 42840, Note_on_c, 6, 67, 100
8, 42900, Note_on_c, 6, 67, 0
8, 42900, Note_on_c, 6, 70, 100
8, 42960, Note_on_c, 6, 70, 0
8, 42960, Note_on_c, 6, 67, 100
8, 43020, Note_on_c, 6, 67, 0
8, 43020, Note_on_c, 6, 70, 100
8, 43080, Note_on_c, 6, 70, 0
8, 43080, Note_on_c, 6, 67, 100
8, 43140, Note_on_c, 6, 67, 0
8, 43140, Note_on_c, 6, 70, 100
8, 43200, Note_on_c, 6, 70, 0
8, 43200, Note_on_c, 6, 67, 100
8, 43320, Note_on_c, 6, 67, 0
8, 43320, Note_on_c, 6, 63, 100
8, 43380, Note_on_c, 6, 63, 0
8, 43380, Note_on_c, 6, 58, 100
8, 43440, Note_on_c, 6, 58, 0
8, 43440, Note_on_c, 6, 63, 100
8, 43500, Note_on_c, 6, 63, 0
8, 43500, Note_on_c, 6, 58, 100
8, 43560, Note_on_c, 6, 58, 0
8, 43560, Note_on_c, 6, 63, 100
8, 43620, Note_on_c, 6, 63, 0
8, 43620, Note_on_c, 6, 58, 100
8, 43680, Note_on_c, 6, 58, 0
8, 43680, Note_on_c, 6, 63, 100
8, 43800, Note_on_c, 6, 63, 0
8, 43920, Note_on_c, 6, 63, 100
8, 44160, Note_on_c, 6, 63, 0
8, 44160, Note_on_c, 6, 59, 100
8, 44400, Note_on_c, 6, 59, 0
8, 44400, Note_on_c, 6, 60, 100
8, 44640, Note_on_c, 6, 60, 0
8, 44640, Note_on_c, 6, 55, 100
8, 44760, Note_on_c, 6, 55, 0
8, 46140, Note_on_c, 6, 63, 100
8, 46200, Note_on_c, 6, 63, 0
8, 46200, Note_on_c, 6, 67, 100
8, 46260, Note_on_c, 6, 67, 0
8, 46260, Note_on_c, 6, 65, 100
8, 46320, Note_on_c, 6, 65, 0
8, 46320, Note_on_c, 6, 63, 100
8, 46380, Note_on_c, 6, 63, 0
8, 46380, Note_on_c, 6, 62, 100
8, 46440, Note_on_c, 6, 62, 0
8, 46440, Note_on_c, 6, 60, 100
8, 46500, Note_on_c, 6, 60, 0
8, 46500, Note_on_c, 6, 58, 100
8, 46560, Note_on_c, 6, 58, 0
8, 46560, Note_on_c, 6, 57, 100
8, 46680, Note_on_c, 6, 57, 0
8, 46680, Note_on_c, 6, 53, 100
8, 48120, Note_on_c, 6, 53, 0
8, 48480, Note_on_c, 6, 55, 100
8, 48600, Note_on_c, 6, 55, 0
8, 48720, Note_on_c, 6, 55, 100
8, 48840, Note_on_c, 6, 55, 0
8, 48960, Note_on_c, 6, 55, 100
8, 49440, Note_on_c, 6, 55, 0
8, 49560, Note_on_c, 6, 53, 100
8, 49680, Note_on_c, 6, 53, 0
8, 49680, Note_on_c, 6, 53, 100
8, 49800, Note_on_c, 6, 53, 0
8, 49800, Note_on_c, 6, 53, 100
8, 49920, Note_on_c, 6, 53, 0
8, 49920, Note_on_c, 6, 53, 100
8, 50040, Note_on_c, 6, 53, 0
8, 50040, Note_on_c, 6, 65, 100
8, 50100, Note_on_c, 6, 65, 0
8, 50100, Note_on_c, 6, 65, 100
8, 50160, Note_on_c, 6, 65, 0
8, 50160, Note_on_c, 6, 65, 100
8, 50220, Note_on_c, 6, 65, 0
8, 50220, Note_on_c, 6, 65, 100
8, 50280, Note_on_c, 6, 65, 0
8, 50280, Note_on_c, 6, 65, 100
8, 50340, Note_on_c, 6, 65, 0
8, 50340, Note_on_c, 6, 65, 100
8, 50400, Note_on_c, 6, 65, 0
8, 50400, Note_on_c, 6, 65, 100
8, 50520, Note_on_c, 6, 65, 0
8, 50520, Note_on_c, 6, 63, 100
8, 50640, Note_on_c, 6, 63, 0
8, 50640, Note_on_c, 6, 62, 100
8, 50760, Note_on_c, 6, 62, 0
8, 50760, Note_on_c, 6, 60, 100
8, 50880, Note_on_c, 6, 60, 0
8, 50880, Note_on_c, 6, 59, 100
8, 51000, Note_on_c, 6, 59, 0
8, 51360, Note_on_c, 6, 63, 100
8, 51960, Note_on_c, 6, 63, 0
8, 52320, Note_on_c, 6, 62, 100
8, 52920, Note_on_c, 6, 62, 0
8, 53280, Note_on_c, 6, 60, 100
8, 53760, Note_on_c, 6, 60, 0
8, 53760, Note_on_c, 6, 62, 100
8, 53880, Note_on_c, 6, 62, 0
8, 53880, Note_on_c, 6, 58, 100
8, 53940, Note_on_c, 6, 58, 0
8, 53940, Note_on_c, 6, 58, 100
8, 54000, Note_on_c, 6, 58, 0
8, 54000, Note_on_c, 6, 58, 100
8, 54060, Note_on_c, 6, 58, 0
8, 54060, Note_on_c, 6, 58, 100
8, 54120, Note_on_c, 6, 58, 0
8, 54120, Note_on_c, 6, 58, 100
8, 54180, Note_on_c, 6, 58, 0
8, 54180, Note_on_c, 6, 58, 100
8, 54240, Note_on_c, 6, 58, 0
8, 54240, Note_on_c, 6, 58, 100
8, 54360, Note_on_c, 6, 58, 0
8, 55200, Note_on_c, 6, 65, 100
8, 55320, Note_on_c, 6, 65, 0
8, 55320, Note_on_c, 6, 63, 100
8, 55440, Note_on_c, 6, 63, 0
8, 55440, Note_on_c, 6, 62, 100
8, 55560, Note_on_c, 6, 62, 0
8, 55560, Note_on_c, 6, 60, 100
8, 55680, Note_on_c, 6, 60, 0
8, 55680, Note_on_c, 6, 58, 100
8, 56160, Note_on_c, 6, 58, 0
8, 56160, Note_on_c, 6, 63, 100
8, 56280, Note_on_c, 6, 63, 0
8, 56280, Note_on_c, 6, 62, 100
8, 56400, Note_on_c, 6, 62, 0
8, 56400, Note_on_c, 6, 60, 100
8, 56520, Note_on_c, 6, 60, 0
8, 56520, Note_on_c, 6, 58, 100
8, 56640, Note_on_c, 6, 58, 0
8, 56640, Note_on_c, 6, 56, 100
8, 57120, Note_on_c, 6, 56, 0
8, 57120, Note_on_c, 6, 62, 100
8, 57240, Note_on_c, 6, 62, 0
8, 57240, Note_on_c, 6, 60, 100
8, 57360, Note_on_c, 6, 60, 0
8, 57360, Note_on_c, 6, 58, 100
8, 57480, Note_on_c, 6, 58, 0
8, 57480, Note_on_c, 6, 56, 100
8, 57600, Note_on_c, 6, 56, 0
8, 57600, Note_on_c, 6, 55, 100
8, 57720, Note_on_c, 6, 55, 0
8, 57840, Note_on_c, 6, 65, 100
8, 58680, Note_on_c, 6, 65, 0
8, 59640, Note_on_c, 6, 62, 100
8, 59670, Note_on_c, 6, 62, 0
8, 59670, Note_on_c, 6, 63, 100
8, 59700, Note_on_c, 6, 63, 0
8, 59700, Note_on_c, 6, 62, 100
8, 59730, Note_on_c, 6, 62, 0
8, 59730, Note_on_c, 6, 63, 100
8, 59760, Note_on_c, 6, 63, 0
8, 59760, Note_on_c, 6, 65, 100
8, 59820, Note_on_c, 6, 65, 0
8, 59820, Note_on_c, 6, 65, 100
8, 59880, Note_on_c, 6, 65, 0
8, 59880, Note_on_c, 6, 65, 100
8, 59940, Note_on_c, 6, 65, 0
8, 59940, Note_on_c, 6, 65, 100
8, 60000, Note_on_c, 6, 65, 0
8, 60000, Note_on_c, 6, 65, 100
8, 60060, Note_on_c, 6, 65, 0
8, 60060, Note_on_c, 6, 62, 100
8, 60120, Note_on_c, 6, 62, 0
8, 60120, Note_on_c, 6, 62, 100
8, 60180, Note_on_c, 6, 62, 0
8, 60180, Note_on_c, 6, 62, 100
8, 60240, Note_on_c, 6, 62, 0
8, 60300, Note_on_c, 6, 62, 100
8, 60360, Note_on_c, 6, 62, 0
8, 60360, Note_on_c, 6, 62, 100
8, 60420, Note_on_c, 6, 62, 0
8, 60420, Note_on_c, 6, 62, 100
8, 60480, Note_on_c, 6, 62, 0
8, 60540, Note_on_c, 6, 57, 100
8, 60600, Note_on_c, 6, 57, 0
8, 60600, Note_on_c, 6, 57, 100
8, 60660, Note_on_c, 6, 57, 0
8, 60660, Note_on_c, 6, 57, 100
8, 60720, Note_on_c, 6, 57, 0
8, 60780, Note_on_c, 6, 63, 100
8, 60840, Note_on_c, 6, 63, 0
8, 60840, Note_on_c, 6, 63, 100
8, 60900, Note_on_c, 6, 63, 0
8, 60900, Note_on_c, 6, 63, 100
8, 60960, Note_on_c, 6, 63, 0
8, 60960, Note_on_c, 6, 62, 100
8, 61140, Note_on_c, 6, 62, 0
8, 61140, Note_on_c, 6, 63, 100
8, 61200, Note_on_c, 6, 63, 0
8, 61200, Note_on_c, 6, 62, 100
8, 61380, Note_on_c, 6, 62, 0
8, 61380, Note_on_c, 6, 67, 100
8, 61440, Note_on_c, 6, 67, 0
8, 61440, Note_on_c, 6, 65, 100
8, 61800, Note_on_c, 6, 65, 0
8, 61980, Note_on_c, 6, 53, 100
8, 62040, Note_on_c, 6, 53, 0
8, 62040, Note_on_c, 6, 53, 100
8, 62100, Note_on_c, 6, 53, 0
8, 62100, Note_on_c, 6, 53, 100
8, 62160, Note_on_c, 6, 53, 0
8, 62220, Note_on_c, 6, 53, 100
8, 62280, Note_on_c, 6, 53, 0
8, 62280, Note_on_c, 6, 53, 100
8, 62340, Note_on_c, 6, 53, 0
8, 62340, Note_on_c, 6, 53, 100
8, 62400, Note_on_c, 6, 53, 0
8, 62460, Note_on_c, 6, 53, 100
8, 62520, Note_on_c, 6, 53, 0
8, 62520, Note_on_c, 6, 53, 100
8, 62580, Note_on_c, 6, 53, 0
8, 62580, Note_on_c, 6, 53, 100
8, 62640, Note_on_c, 6, 53, 0
8, 62700, Note_on_c, 6, 53, 100
8, 62760, Note_on_c, 6, 53, 0
8, 62760, Note_on_c, 6, 53, 100
8, 62820, Note_on_c, 6, 53, 0
8, 62820, Note_on_c, 6, 53, 100
8, 62880, Note_on_c, 6, 53, 0
8, 62880, Note_on_c, 6, 53, 100
8, 63000, Note_on_c, 6, 53, 0
8, 63000, Note_on_c, 6, 55, 100
8, 63120, Note_on_c, 6, 55, 0
8, 63120, Note_on_c, 6, 53, 100
8, 63360, Note_on_c, 6, 53, 0
8, 63360, Note_on_c, 6, 53, 100
8, 63480, Note_on_c, 6, 53, 0
8, 63660, Note_on_c, 6, 57, 100
8, 63720, Note_on_c, 6, 57, 0
8, 63720, Note_on_c, 6, 58, 100
8, 63780, Note_on_c, 6, 58, 0
8, 63780, Note_on_c, 6, 60, 100
8, 63840, Note_on_c, 6, 60, 0
8, 63840, Note_on_c, 6, 62, 100
8, 63900, Note_on_c, 6, 62, 0
8, 64140, Note_on_c, 6, 57, 100
8, 64200, Note_on_c, 6, 57, 0
8, 64200, Note_on_c, 6, 58, 100
8, 64260, Note_on_c, 6, 58, 0
8, 64260, Note_on_c, 6, 60, 100
8, 64320, Note_on_c, 6, 60, 0
8, 64320, Note_on_c, 6, 62, 100
8, 64440, Note_on_c, 6, 62, 0
8, 65760, Note_on_c, 6, 58, 100
8, 65880, Note_on_c, 6, 58, 0
8, 66000, Note_on_c, 6, 65, 100
8, 66120, Note_on_c, 6, 65, 0
8, 66240, Note_on_c, 6, 70, 100
8, 66360, Note_on_c, 6, 70, 0
8, 66480, Note_on_c, 6, 65, 100
8, 66600, Note_on_c, 6, 65, 0
8, 66720, Note_on_c, 6, 53, 100
8, 66720, Note_on_c, 6, 56, 100
8, 67200, Note_on_c, 6, 56, 0
8, 67200, Note_on_c, 6, 53, 0
8, 67200, Note_on_c, 6, 55, 100
8, 67320, Note_on_c, 6, 55, 0
8, 67560, Note_on_c, 6, 63, 100
8, 67680, Note_on_c, 6, 63, 0
8, 67680, Note_on_c, 6, 62, 100
8, 67740, Note_on_c, 6, 62, 0
8, 67800, Note_on_c, 6, 63, 100
8, 67860, Note_on_c, 6, 63, 0
8, 67920, Note_on_c, 6, 65, 100
8, 67980, Note_on_c, 6, 65, 0
8, 68040, Note_on_c, 6, 65, 100
8, 68100, Note_on_c, 6, 65, 0
8, 73440, Note_on_c, 6, 63, 100
8, 73980, Note_on_c, 6, 63, 0
8, 74040, Note_on_c, 6, 63, 100
8, 74100, Note_on_c, 6, 63, 0
8, 74160, Note_on_c, 6, 67, 100
8, 74220, Note_on_c, 6, 67, 0
8, 74280, Note_on_c, 6, 67, 100
8, 74340, Note_on_c, 6, 67, 0
8, 74400, Note_on_c, 6, 65, 100
8, 74460, Note_on_c, 6, 65, 0
8, 74460, Note_on_c, 6, 65, 100
8, 74520, Note_on_c, 6, 65, 0
8, 74520, Note_on_c, 6, 65, 100
8, 74580, Note_on_c, 6, 65, 0
8, 74580, Note_on_c, 6, 65, 100
8, 74640, Note_on_c, 6, 65, 0
8, 74640, Note_on_c, 6, 65, 100
8, 74700, Note_on_c, 6, 65, 0
8, 74700, Note_on_c, 6, 65, 100
8, 74760, Note_on_c, 6, 65, 0
8, 74760, Note_on_c, 6, 65, 100
8, 74820, Note_on_c, 6, 65, 0
8, 74820, Note_on_c, 6, 65, 100
8, 74880, Note_on_c, 6, 65, 0
8, 74880, Note_on_c, 6, 65, 100
8, 74940, Note_on_c, 6, 65, 0
8, 74940, Note_on_c, 6, 65, 100
8, 75000, Note_on_c, 6, 65, 0
8, 75000, Note_on_c, 6, 65, 100
8, 75060, Note_on_c, 6, 65, 0
8, 75060, Note_on_c, 6, 65, 100
8, 75120, Note_on_c, 6, 65, 0
8, 75120, Note_on_c, 6, 65, 100
8, 75180, Note_on_c, 6, 65, 0
8, 75180, Note_on_c, 6, 65, 100
8, 75240, Note_on_c, 6, 65, 0
8, 75240, Note_on_c, 6, 65, 100
8, 75300, Note_on_c, 6, 65, 0
8, 75300, Note_on_c, 6, 65, 100
8, 75360, Note_on_c, 6, 65, 0
8, 75360, Note_on_c, 6, 58, 100
8, 75480, Note_on_c, 6, 58, 0
8, 75480, Note_on_c, 6, 58, 100
8, 75480, Note_on_c, 6, 65, 100
8, 75480, Note_on_c, 6, 70, 100
8, 75600, Note_on_c, 6, 70, 0
8, 75600, Note_on_c, 6, 65, 0
8, 75600, Note_on_c, 6, 58, 0
8, 75720, Note_on_c, 6, 70, 100
8, 75720, Note_on_c, 6, 65, 100
8, 75720, Note_on_c, 6, 58, 100
8, 75840, Note_on_c, 6, 58, 0
8, 75840, Note_on_c, 6, 65, 0
8, 75840, Note_on_c, 6, 70, 0
8, 75960, Note_on_c, 6, 62, 100
8, 76050, Note_on_c, 6, 62, 0
8, 76050, Note_on_c, 6, 65, 100
8, 76080, Note_on_c, 6, 65, 0
8, 76080, Note_on_c, 6, 70, 100
8, 76140, Note_on_c, 6, 70, 0
8, 76140, Note_on_c, 6, 70, 100
8, 76200, Note_on_c, 6, 70, 0
8, 76200, Note_on_c, 6, 70, 100
8, 76260, Note_on_c, 6, 70, 0
8, 76260, Note_on_c, 6, 70, 100
8, 76320, Note_on_c, 6, 70, 0
8, 76320, Note_on_c, 6, 70, 100
8, 76380, Note_on_c, 6, 70, 0
8, 76380, Note_on_c, 6, 69, 100
8, 76440, Note_on_c, 6, 69, 0
8, 76680, Note_on_c, 6, 63, 100
8, 76680, Note_on_c, 6, 72, 100
8, 76800, Note_on_c, 6, 72, 0
8, 76800, Note_on_c, 6, 63, 0
8, 76920, Note_on_c, 6, 63, 100
8, 77010, Note_on_c, 6, 63, 0
8, 77010, Note_on_c, 6, 69, 100
8, 77040, Note_on_c, 6, 69, 0
8, 77040, Note_on_c, 6, 72, 100
8, 77100, Note_on_c, 6, 72, 0
8, 77100, Note_on_c, 6, 72, 100
8, 77160, Note_on_c, 6, 72, 0
8, 77160, Note_on_c, 6, 72, 100
8, 77220, Note_on_c, 6, 72, 0
8, 77220, Note_on_c, 6, 72, 100
8, 77280, Note_on_c, 6, 72, 0
8, 77280, Note_on_c, 6, 72, 100
8, 77340, Note_on_c, 6, 72, 0
8, 77340, Note_on_c, 6, 70, 100
8, 77400, Note_on_c, 6, 70, 0
8, 77400, Note_on_c, 6, 70, 100
8, 77520, Note_on_c, 6, 70, 0
8, 77640, Note_on_c, 6, 58, 100
8, 77640, Note_on_c, 6, 65, 100
8, 77640, Note_on_c, 6, 74, 100
8, 77760, Note_on_c, 6, 74, 0
8, 77760, Note_on_c, 6, 65, 0
8, 77760, Note_on_c, 6, 58, 0
8, 77880, Note_on_c, 6, 65, 100
8, 77970, Note_on_c, 6, 65, 0
8, 77970, Note_on_c, 6, 70, 100
8, 78000, Note_on_c, 6, 70, 0
8, 78000, Note_on_c, 6, 74, 100
8, 78060, Note_on_c, 6, 74, 0
8, 78060, Note_on_c, 6, 74, 100
8, 78120, Note_on_c, 6, 74, 0
8, 78120, Note_on_c, 6, 74, 100
8, 78180, Note_on_c, 6, 74, 0
8, 78180, Note_on_c, 6, 74, 100
8, 78240, Note_on_c, 6, 74, 0
8, 78240, Note_on_c, 6, 60, 100
8, 78240, Note_on_c, 6, 51, 100
8, 78300, Note_on_c, 6, 51, 0
8, 78300, Note_on_c, 6, 60, 0
8, 78300, Note_on_c, 6, 60, 100
8, 78300, Note_on_c, 6, 51, 100
8, 78420, Note_on_c, 6, 51, 0
8, 78420, Note_on_c, 6, 60, 0
8, 78420, Note_on_c, 6, 60, 100
8, 78420, Note_on_c, 6, 51, 100
8, 78540, Note_on_c, 6, 51, 0
8, 78540, Note_on_c, 6, 60, 0
8, 78540, Note_on_c, 6, 60, 100
8, 78540, Note_on_c, 6, 51, 100
8, 78660, Note_on_c, 6, 51, 0
8, 78660, Note_on_c, 6, 60, 0
8, 78660, Note_on_c, 6, 60, 100
8, 78660, Note_on_c, 6, 51, 100
8, 78780, Note_on_c, 6, 51, 0
8, 78780, Note_on_c, 6, 60, 0
8, 78780, Note_on_c, 6, 60, 100
8, 78780, Note_on_c, 6, 51, 100
8, 78900, Note_on_c, 6, 51, 0
8, 78900, Note_on_c, 6, 60, 0
8, 78900, Note_on_c, 6, 60, 100
8, 78900, Note_on_c, 6, 51, 100
8, 79020, Note_on_c, 6, 51, 0
8, 79020, Note_on_c, 6, 60, 0
8, 79020, Note_on_c, 6, 60, 100
8, 79020, Note_on_c, 6, 51, 100
8, 79140, Note_on_c, 6, 51, 0
8, 79140, Note_on_c, 6, 60, 0
8, 79140, Note_on_c, 6, 60, 100
8, 79140, Note_on_c, 6, 51, 100
8, 79200, Note_on_c, 6, 51, 0
8, 79200, Note_on_c, 6, 60, 0
8, 79200, Note_on_c, 6, 50, 100
8, 79200, Note_on_c, 6, 58, 100
8, 79320, Note_on_c, 6, 58, 0
8, 79320, Note_on_c, 6, 50, 0
8, 79320, Note_on_c, 6, 62, 100
8, 79350, Note_on_c, 6, 62, 0
8, 79350, Note_on_c, 6, 62, 100
8, 79380, Note_on_c, 6, 62, 0
8, 79380, Note_on_c, 6, 62, 100
8, 79410, Note_on_c, 6, 62, 0
8, 79410, Note_on_c, 6, 62, 100
8, 79440, Note_on_c, 6, 62, 0
8, 79440, Note_on_c, 6, 65, 100
8, 79470, Note_on_c, 6, 65, 0
8, 79470, Note_on_c, 6, 65, 100
8, 79500, Note_on_c, 6, 65, 0
8, 79500, Note_on_c, 6, 65, 100
8, 79530, Note_on_c, 6, 65, 0
8, 79530, Note_on_c, 6, 65, 100
8, 79560, Note_on_c, 6, 65, 0
8, 79560, Note_on_c, 6, 62, 100
8, 79590, Note_on_c, 6, 62, 0
8, 79590, Note_on_c, 6, 62, 100
8, 79620, Note_on_c, 6, 62, 0
8, 79620, Note_on_c, 6, 62, 100
8, 79650, Note_on_c, 6, 62, 0
8, 79650, Note_on_c, 6, 62, 100
8, 79680, Note_on_c, 6, 62, 0
8, 79680, Note_on_c, 6, 63, 100
8, 79710, Note_on_c, 6, 63, 0
8, 79710, Note_on_c, 6, 63, 100
8, 79740, Note_on_c, 6, 63, 0
8, 79740, Note_on_c, 6, 63, 100
8, 79770, Note_on_c, 6, 63, 0
8, 79770, Note_on_c, 6, 63, 100
8, 79800, Note_on_c, 6, 63, 0
8, 79800, Note_on_c, 6, 60, 100
8, 79830, Note_on_c, 6, 60, 0
8, 79830, Note_on_c, 6, 60, 100
8, 79860, Note_on_c, 6, 60, 0
8, 79860, Note_on_c, 6, 60, 100
8, 79890, Note_on_c, 6, 60, 0
8, 79890, Note_on_c, 6, 60, 100
8, 79920, Note_on_c, 6, 60, 0
8, 79920, Note_on_c, 6, 63, 100
8, 79950, Note_on_c, 6, 63, 0
8, 79950, Note_on_c, 6, 63, 100
8, 79980, Note_on_c, 6, 63, 0
8, 79980, Note_on_c, 6, 63, 100
8, 80010, Note_on_c, 6, 63, 0
8, 80010, Note_on_c, 6, 63, 100
8, 80040, Note_on_c, 6, 63, 0
8, 80040, Note_on_c, 6, 60, 100
8, 80070, Note_on_c, 6, 60, 0
8, 80070, Note_on_c, 6, 60, 100
8, 80100, Note_on_c, 6, 60, 0
8, 80100, Note_on_c, 6, 60, 100
8, 80130, Note_on_c, 6, 60, 0
8, 80130, Note_on_c, 6, 60, 100
8, 80160, Note_on_c, 6, 60, 0
8, 80160, Note_on_c, 6, 58, 100
8, 80400, Note_on_c, 6, 58, 0
8, 80400, Note_on_c, 6, 58, 100
8, 80580, Note_on_c, 6, 58, 0
8, 80580, Note_on_c, 6, 57, 100
8, 80610, Note_on_c, 6, 57, 0
8, 80610, Note_on_c, 6, 58, 100
8, 80640, Note_on_c, 6, 58, 0
8, 80640, Note_on_c, 6, 62, 100
8, 80880, Note_on_c, 6, 62, 0
8, 80880, Note_on_c, 6, 65, 100
8, 81120, Note_on_c, 6, 65, 0
8, 81120, Note_on_c, 6, 70, 100
8, 81360, Note_on_c, 6, 70, 0
8, 81360, Note_on_c, 6, 55, 100
8, 81540, Note_on_c, 6, 55, 0
8, 81540, Note_on_c, 6, 54, 100
8, 81570, Note_on_c, 6, 54, 0
8, 81570, Note_on_c, 6, 55, 100
8, 81600, Note_on_c, 6, 55, 0
8, 81600, Note_on_c, 6, 58, 100
8, 81840, Note_on_c, 6, 58, 0
8, 81840, Note_on_c, 6, 62, 100
8, 82080, Note_on_c, 6, 62, 0
8, 82080, Note_on_c, 6, 66, 100
8, 82320, Note_on_c, 6, 66, 0
8, 82320, Note_on_c, 6, 54, 100
8, 82500, Note_on_c, 6, 54, 0
8, 82500, Note_on_c, 6, 52, 100
8, 82530, Note_on_c, 6, 52, 0
8, 82530, Note_on_c, 6, 54, 100
8, 82560, Note_on_c, 6, 54, 0
8, 82560, Note_on_c, 6, 57, 100
8, 82800, Note_on_c, 6, 57, 0
8, 82800, Note_on_c, 6, 54, 100
8, 82980, Note_on_c, 6, 54, 0
8, 82980, Note_on_c, 6, 52, 100
8, 83010, Note_on_c, 6, 52, 0
8, 83010, Note_on_c, 6, 54, 100
8, 83040, Note_on_c, 6, 54, 0
8, 83040, Note_on_c, 6, 55, 100
8, 83160, Note_on_c, 6, 55, 0
8, 84000, Note_on_c, 6, 50, 100
8, 84240, Note_on_c, 6, 50, 0
8, 85560, Note_on_c, 6, 58, 100
8, 85680, Note_on_c, 6, 58, 0
8, 85680, Note_on_c, 6, 57, 100
8, 85800, Note_on_c, 6, 57, 0
8, 85800, Note_on_c, 6, 55, 100
8, 85920, Note_on_c, 6, 55, 0
8, 85920, Note_on_c, 6, 60, 100
8, 85980, Note_on_c, 6, 60, 0
8, 86040, Note_on_c, 6, 60, 100
8, 86100, Note_on_c, 6, 60, 0
8, 86160, Note_on_c, 6, 60, 100
8, 86220, Note_on_c, 6, 60, 0
8, 86280, Note_on_c, 6, 60, 100
8, 86340, Note_on_c, 6, 60, 0
8, 86400, Note_on_c, 6, 58, 100
8, 86640, Note_on_c, 6, 58, 0
8, 86640, Note_on_c, 6, 55, 100
8, 86820, Note_on_c, 6, 55, 0
8, 86820, Note_on_c, 6, 54, 100
8, 86850, Note_on_c, 6, 54, 0
8, 86850, Note_on_c, 6, 55, 100
8, 86880, Note_on_c, 6, 55, 0
8, 86880, Note_on_c, 6, 58, 100
8, 87120, Note_on_c, 6, 58, 0
8, 87120, Note_on_c, 6, 62, 100
8, 87360, Note_on_c, 6, 62, 0
8, 87360, Note_on_c, 6, 65, 100
8, 87600, Note_on_c, 6, 65, 0
8, 87600, Note_on_c, 6, 62, 100
8, 87780, Note_on_c, 6, 62, 0
8, 87780, Note_on_c, 6, 60, 100
8, 87810, Note_on_c, 6, 60, 0
8, 87810, Note_on_c, 6, 62, 100
8, 87840, Note_on_c, 6, 62, 0
8, 87840, Note_on_c, 6, 65, 100
8, 88080, Note_on_c, 6, 65, 0
8, 88080, Note_on_c, 6, 70, 100
8, 88320, Note_on_c, 6, 70, 0
8, 88320, Note_on_c, 6, 71, 100
8, 88560, Note_on_c, 6, 71, 0
8, 88560, Note_on_c, 6, 59, 100
8, 88740, Note_on_c, 6, 59, 0
8, 88740, Note_on_c, 6, 57, 100
8, 88770, Note_on_c, 6, 57, 0
8, 88770, Note_on_c, 6, 59, 100
8, 88800, Note_on_c, 6, 59, 0
8, 88800, Note_on_c, 6, 62, 100
8, 89040, Note_on_c, 6, 62, 0
8, 89040, Note_on_c, 6, 55, 100
8, 89280, Note_on_c, 6, 55, 0
8, 89280, Note_on_c, 6, 55, 100
8, 89340, Note_on_c, 6, 55, 0
8, 89340, Note_on_c, 6, 51, 100
8, 89400, Note_on_c, 6, 51, 0
8, 89400, Note_on_c, 6, 53, 100
8, 89460, Note_on_c, 6, 53, 0
8, 89460, Note_on_c, 6, 55, 100
8, 89520, Note_on_c, 6, 55, 0
8, 89580, Note_on_c, 6, 56, 100
8, 89640, Note_on_c, 6, 56, 0
8, 89640, Note_on_c, 6, 55, 100
8, 89700, Note_on_c, 6, 55, 0
8, 89700, Note_on_c, 6, 53, 100
8, 89760, Note_on_c, 6, 53, 0
8, 89820, Note_on_c, 6, 51, 100
8, 89880, Note_on_c, 6, 51, 0
8, 89880, Note_on_c, 6, 55, 100
8, 89940, Note_on_c, 6, 55, 0
8, 89940, Note_on_c, 6, 51, 100
8, 90000, Note_on_c, 6, 51, 0
8, 90060, Note_on_c, 6, 55, 100
8, 90120, Note_on_c, 6, 55, 0
8, 90120, Note_on_c, 6, 58, 100
8, 90180, Note_on_c, 6, 58, 0
8, 90180, Note_on_c, 6, 55, 100
8, 90240, Note_on_c, 6, 55, 0
8, 90240, Note_on_c, 6, 56, 100
8, 90480, Note_on_c, 6, 56, 0
8, 90840, Note_on_c, 6, 63, 100
8, 90960, Note_on_c, 6, 63, 0
8, 90960, Note_on_c, 6, 62, 100
8, 91080, Note_on_c, 6, 62, 0
8, 91320, Note_on_c, 6, 63, 100
8, 91440, Note_on_c, 6, 63, 0
8, 91440, Note_on_c, 6, 62, 100
8, 91560, Note_on_c, 6, 62, 0
8, 92160, Note_on_c, 6, 59, 100
8, 92160, Note_on_c, 6, 65, 100
8, 92640, Note_on_c, 6, 65, 0
8, 92640, Note_on_c, 6, 59, 0
8, 92640, Note_on_c, 6, 60, 100
8, 92640, Note_on_c, 6, 63, 100
8, 92760, Note_on_c, 6, 63, 0
8, 92760, Note_on_c, 6, 60, 0
8, 92880, Note_on_c, 6, 67, 100
8, 92940, Note_on_c, 6, 67, 0
8, 92940, Note_on_c, 6, 65, 100
8, 93000, Note_on_c, 6, 65, 0
8, 93000, Note_on_c, 6, 63, 100
8, 93060, Note_on_c, 6, 63, 0
8, 93060, Note_on_c, 6, 62, 100
8, 93120, Note_on_c, 6, 62, 0
8, 93120, Note_on_c, 6, 63, 100
8, 93240, Note_on_c, 6, 63, 0
8, 93360, Note_on_c, 6, 60, 100
8, 93420, Note_on_c, 6, 60, 0
8, 93420, Note_on_c, 6, 62, 100
8, 93480, Note_on_c, 6, 62, 0
8, 93480, Note_on_c, 6, 63, 100
8, 93540, Note_on_c, 6, 63, 0
8, 93540, Note_on_c, 6, 65, 100
8, 93600, Note_on_c, 6, 65, 0
8, 93600, Note_on_c, 6, 64, 100
8, 93720, Note_on_c, 6, 64, 0
8, 93840, Note_on_c, 6, 72, 100
8, 93900, Note_on_c, 6, 72, 0
8, 93900, Note_on_c, 6, 70, 100
8, 93960, Note_on_c, 6, 70, 0
8, 93960, Note_on_c, 6, 68, 100
8, 94020, Note_on_c, 6, 68, 0
8, 94020, Note_on_c, 6, 67, 100
8, 94080, Note_on_c, 6, 67, 0
8, 94080, Note_on_c, 6, 65, 100
8, 94200, Note_on_c, 6, 65, 0
8, 94320, Note_on_c, 6, 53, 100
8, 94380, Note_on_c, 6, 53, 0
8, 94380, Note_on_c, 6, 55, 100
8, 94440, Note_on_c, 6, 55, 0
8, 94440, Note_on_c, 6, 56, 100
8, 94500, Note_on_c, 6, 56, 0
8, 94500, Note_on_c, 6, 58, 100
8, 94560, Note_on_c, 6, 58, 0
8, 94560, Note_on_c, 6, 57, 100
8, 94680, Note_on_c, 6, 57, 0
8, 94800, Note_on_c, 6, 65, 100
8, 94860, Note_on_c, 6, 65, 0
8, 94860, Note_on_c, 6, 63, 100
8, 94920, Note_on_c, 6, 63, 0
8, 94920, Note_on_c, 6, 62, 100
8, 94980, Note_on_c, 6, 62, 0
8, 94980, Note_on_c, 6, 60, 100
8, 95040, Note_on_c, 6, 60, 0
8, 95040, Note_on_c, 6, 58, 100
8, 95160, Note_on_c, 6, 58, 0
8, 95280, Note_on_c, 6, 58, 100
8, 95340, Note_on_c, 6, 58, 0
8, 95340, Note_on_c, 6, 60, 100
8, 95400, Note_on_c, 6, 60, 0
8, 95400, Note_on_c, 6, 62, 100
8, 95460, Note_on_c, 6, 62, 0
8, 95460, Note_on_c, 6, 63, 100
8, 95520, Note_on_c, 6, 63, 0
8, 95520, Note_on_c, 6, 62, 100
8, 95640, Note_on_c, 6, 62, 0
8, 95760, Note_on_c, 6, 70, 100
8, 95820, Note_on_c, 6, 70, 0
8, 95820, Note_on_c, 6, 68, 100
8, 95880, Note_on_c, 6, 68, 0
8, 95880, Note_on_c, 6, 67, 100
8, 95940, Note_on_c, 6, 67, 0
8, 95940, Note_on_c, 6, 65, 100
8, 96000, Note_on_c, 6, 65, 0
8, 96000, Note_on_c, 6, 63, 100
8, 96120, Note_on_c, 6, 63, 0
8, 96240, Note_on_c, 6, 51, 100
8, 96300, Note_on_c, 6, 51, 0
8, 96300, Note_on_c, 6, 53, 100
8, 96360, Note_on_c, 6, 53, 0
8, 96360, Note_on_c, 6, 55, 100
8, 96420, Note_on_c, 6, 55, 0
8, 96420, Note_on_c, 6, 56, 100
8, 96480, Note_on_c, 6, 56, 0
8, 96480, Note_on_c, 6, 55, 100
8, 96600, Note_on_c, 6, 55, 0
8, 96720, Note_on_c, 6, 58, 100
8, 96960, Note_on_c, 6, 58, 0
8, 96960, Note_on_c, 6, 56, 100
8, 97200, Note_on_c, 6, 56, 0
8, 97200, Note_on_c, 6, 58, 100
8, 97440, Note_on_c, 6, 58, 0
8, 97440, Note_on_c, 6, 60, 100
8, 97920, Note_on_c, 6, 60, 0
8, 97920, Note_on_c, 6, 58, 100
8, 98160, Note_on_c, 6, 58, 0
8, 98160, Note_on_c, 6, 60, 100
8, 98400, Note_on_c, 6, 60, 0
8, 98400, Note_on_c, 6, 62, 100
8, 98880, Note_on_c, 6, 62, 0
8, 98880, Note_on_c, 6, 60, 100
8, 99120, Note_on_c, 6, 60, 0
8, 99120, Note_on_c, 6, 58, 100
8, 99360, Note_on_c, 6, 58, 0
8, 99360, Note_on_c, 6, 56, 100
8, 99600, Note_on_c, 6, 56, 0
8, 99600, Note_on_c, 6, 55, 100
8, 99840, Note_on_c, 6, 55, 0
8, 99840, Note_on_c, 6, 56, 100
8, 99960, Note_on_c, 6, 56, 0
8, 99960, Note_on_c, 6, 60, 100
8, 100200, Note_on_c, 6, 60, 0
8, 100200, Note_on_c, 6, 60, 100
8, 100320, Note_on_c, 6, 60, 0
8, 100320, Note_on_c, 6, 58, 100
8, 100440, Note_on_c, 6, 58, 0
8, 101280, Program_c, 6, 45
8, 101400, Note_on_c, 6, 63, 100
8, 101460, Note_on_c, 6, 63, 0
8, 101520, Note_on_c, 6, 70, 100
8, 101580, Note_on_c, 6, 70, 0
8, 101640, Note_on_c, 6, 67, 100
8, 101700, Note_on_c, 6, 67, 0
8, 101760, Note_on_c, 6, 63, 100
8, 101820, Note_on_c, 6, 63, 0
8, 101880, Note_on_c, 6, 58, 100
8, 101940, Note_on_c, 6, 58, 0
8, 102000, Note_on_c, 6, 55, 100
8, 102060, Note_on_c, 6, 55, 0
8, 102120, Note_on_c, 6, 51, 100
8, 102180, Note_on_c, 6, 51, 0
8, 102240, Note_on_c, 6, 56, 100
8, 102360, Note_on_c, 6, 56, 0
8, 103320, Note_on_c, 6, 63, 100
8, 103380, Note_on_c, 6, 63, 0
8, 103440, Note_on_c, 6, 70, 100
8, 103500, Note_on_c, 6, 70, 0
8, 103560, Note_on_c, 6, 67, 100
8, 103620, Note_on_c, 6, 67, 0
8, 103680, Note_on_c, 6, 63, 100
8, 103740, Note_on_c, 6, 63, 0
8, 103800, Note_on_c, 6, 58, 100
8, 103860, Note_on_c, 6, 58, 0
8, 103920, Note_on_c, 6, 55, 100
8, 103980, Note_on_c, 6, 55, 0
8, 104040, Note_on_c, 6, 51, 100
8, 104100, Note_on_c, 6, 51, 0
8, 104160, Note_on_c, 6, 58, 100
8, 104280, Note_on_c, 6, 58, 0
8, 105360, Program_c, 6, 41
8, 105360, Note_on_c, 6, 58, 100
8, 105390, Note_on_c, 6, 58, 0
8, 105390, Note_on_c, 6, 57, 100
8, 105420, Note_on_c, 6, 57, 0
8, 105420, Note_on_c, 6, 58, 100
8, 105450, Note_on_c, 6, 58, 0
8, 105450, Note_on_c, 6, 57, 100
8, 105480, Note_on_c, 6, 57, 0
8, 105480, Note_on_c, 6, 58, 100
8, 105510, Note_on_c, 6, 58, 0
8, 105510, Note_on_c, 6, 57, 100
8, 105540, Note_on_c, 6, 57, 0
8, 105540, Note_on_c, 6, 58, 100
8, 105570, Note_on_c, 6, 58, 0
8, 105570, Note_on_c, 6, 57, 100
8, 105600, Note_on_c, 6, 57, 0
8, 105600, Note_on_c, 6, 58, 100
8, 106140, Note_on_c, 6, 58, 0
8, 106200, Note_on_c, 6, 58, 100
8, 106260, Note_on_c, 6, 58, 0
8, 106320, Note_on_c, 6, 58, 100
8, 106380, Note_on_c, 6, 58, 0
8, 106440, Note_on_c, 6, 58, 100
8, 106500, Note_on_c, 6, 58, 0
8, 106560, Note_on_c, 6, 58, 100
8, 106560, Note_on_c, 6, 63, 100
8, 107040, Note_on_c, 6, 63, 0
8, 107040, Note_on_c, 6, 58, 0
8, 107040, Note_on_c, 6, 58, 100
8, 107040, Note_on_c, 6, 63, 100
8, 107280, Note_on_c, 6, 63, 0
8, 107280, Note_on_c, 6, 58, 0
8, 107280, Note_on_c, 6, 58, 100
8, 107280, Note_on_c, 6, 63, 100
8, 107460, Note_on_c, 6, 63, 0
8, 107460, Note_on_c, 6, 58, 0
8, 107460, Note_on_c, 6, 58, 100
8, 107460, Note_on_c, 6, 63, 100
8, 107520, Note_on_c, 6, 63, 0
8, 107520, Note_on_c, 6, 58, 0
8, 107520, Note_on_c, 6, 58, 100
8, 107520, Note_on_c, 6, 63, 100
8, 107640, Note_on_c, 6, 63, 0
8, 107640, Note_on_c, 6, 58, 0
8, 108600, Note_on_c, 6, 65, 100
8, 108840, Note_on_c, 6, 65, 0
8, 108840, Note_on_c, 6, 65, 100
8, 109080, Note_on_c, 6, 65, 0
8, 109080, Note_on_c, 6, 65, 100
8, 109320, Note_on_c, 6, 65, 0
8, 109320, Note_on_c, 6, 65, 100
8, 109440, Note_on_c, 6, 65, 0
8, 109440, Note_on_c, 6, 67, 100
8, 109500, Note_on_c, 6, 67, 0
8, 109500, Note_on_c, 6, 63, 100
8, 109560, Note_on_c, 6, 63, 0
8, 109560, Note_on_c, 6, 63, 100
8, 109620, Note_on_c, 6, 63, 0
8, 109620, Note_on_c, 6, 63, 100
8, 109680, Note_on_c, 6, 63, 0
8, 109680, Note_on_c, 6, 63, 100
8, 109740, Note_on_c, 6, 63, 0
8, 109740, Note_on_c, 6, 63, 100
8, 109800, Note_on_c, 6, 63, 0
8, 109800, Note_on_c, 6, 63, 100
8, 109860, Note_on_c, 6, 63, 0
8, 109860, Note_on_c, 6, 63, 100
8, 109920, Note_on_c, 6, 63, 0
8, 109920, Note_on_c, 6, 63, 100
8, 109980, Note_on_c, 6, 63, 0
8, 109980, Note_on_c, 6, 63, 100
8, 110040, Note_on_c, 6, 63, 0
8, 110040, Note_on_c, 6, 63, 100
8, 110100, Note_on_c, 6, 63, 0
8, 110100, Note_on_c, 6, 63, 100
8, 110160, Note_on_c, 6, 63, 0
8, 110160, Note_on_c, 6, 63, 100
8, 110220, Note_on_c, 6, 63, 0
8, 110220, Note_on_c, 6, 63, 100
8, 110280, Note_on_c, 6, 63, 0
8, 110280, Note_on_c, 6, 63, 100
8, 110340, Note_on_c, 6, 63, 0
8, 110340, Note_on_c, 6, 63, 100
8, 110400, Note_on_c, 6, 63, 0
8, 110400, Note_on_c, 6, 63, 100
8, 110460, Note_on_c, 6, 63, 0
8, 110460, Note_on_c, 6, 63, 100
8, 110520, Note_on_c, 6, 63, 0
8, 110520, Note_on_c, 6, 63, 100
8, 110580, Note_on_c, 6, 63, 0
8, 110580, Note_on_c, 6, 63, 100
8, 110640, Note_on_c, 6, 63, 0
8, 110640, Note_on_c, 6, 63, 100
8, 110700, Note_on_c, 6, 63, 0
8, 110700, Note_on_c, 6, 63, 100
8, 110760, Note_on_c, 6, 63, 0
8, 110760, Note_on_c, 6, 63, 100
8, 110820, Note_on_c, 6, 63, 0
8, 110820, Note_on_c, 6, 63, 100
8, 110880, Note_on_c, 6, 63, 0
8, 110880, Note_on_c, 6, 63, 100
8, 110940, Note_on_c, 6, 63, 0
8, 110940, Note_on_c, 6, 63, 100
8, 111000, Note_on_c, 6, 63, 0
8, 111000, Note_on_c, 6, 63, 100
8, 111060, Note_on_c, 6, 63, 0
8, 111060, Note_on_c, 6, 63, 100
8, 111120, Note_on_c, 6, 63, 0
8, 111120, Note_on_c, 6, 63, 100
8, 111180, Note_on_c, 6, 63, 0
8, 111180, Note_on_c, 6, 63, 100
8, 111240, Note_on_c, 6, 63, 0
8, 111240, Note_on_c, 6, 63, 100
8, 111300, Note_on_c, 6, 63, 0
8, 111300, Note_on_c, 6, 63, 100
8, 111360, Note_on_c, 6, 63, 0
8, 111360, Note_on_c, 6, 63, 100
8, 111480, Note_on_c, 6, 63, 0
8, 113280, Note_on_c, 6, 63, 100
8, 113520, Note_on_c, 6, 63, 0
8, 113520, Note_on_c, 6, 63, 100
8, 113700, Note_on_c, 6, 63, 0
8, 113700, Note_on_c, 6, 63, 100
8, 113760, Note_on_c, 6, 63, 0
8, 113760, Note_on_c, 6, 58, 100
8, 114240, Note_on_c, 6, 58, 0
8, 114360, Note_on_c, 6, 63, 100
8, 114600, Note_on_c, 6, 63, 0
8, 114600, Note_on_c, 6, 62, 100
8, 114720, Note_on_c, 6, 62, 0
8, 114720, Note_on_c, 6, 58, 100
8, 114840, Note_on_c, 6, 58, 0
8, 114840, Note_on_c, 6, 63, 100
8, 114960, Note_on_c, 6, 63, 0
8, 114960, Note_on_c, 6, 62, 100
8, 115080, Note_on_c, 6, 62, 0
8, 115200, Note_on_c, 6, 63, 100
8, 115440, Note_on_c, 6, 63, 0
8, 115440, Note_on_c, 6, 63, 100
8, 115620, Note_on_c, 6, 63, 0
8, 115620, Note_on_c, 6, 63, 100
8, 115680, Note_on_c, 6, 63, 0
8, 115680, Note_on_c, 6, 58, 100
8, 116160, Note_on_c, 6, 58, 0
8, 116160, Note_on_c, 6, 70, 100
8, 118200, Note_on_c, 6, 70, 0
8, 119160, Note_on_c, 6, 67, 100
8, 119220, Note_on_c, 6, 67, 0
8, 119220, Note_on_c, 6, 70, 100
8, 119280, Note_on_c, 6, 70, 0
8, 119280, Note_on_c, 6, 67, 100
8, 119340, Note_on_c, 6, 67, 0
8, 119340, Note_on_c, 6, 70, 100
8, 119400, Note_on_c, 6, 70, 0
8, 119400, Note_on_c, 6, 67, 100
8, 119460, Note_on_c, 6, 67, 0
8, 119460, Note_on_c, 6, 70, 100
8, 119520, Note_on_c, 6, 70, 0
8, 119520, Note_on_c, 6, 67, 100
8, 119640, Note_on_c, 6, 67, 0
8, 119640, Note_on_c, 6, 63, 100
8, 119700, Note_on_c, 6, 63, 0
8, 119700, Note_on_c, 6, 58, 100
8, 119760, Note_on_c, 6, 58, 0
8, 119760, Note_on_c, 6, 63, 100
8, 119820, Note_on_c, 6, 63, 0
8, 119820, Note_on_c, 6, 58, 100
8, 119880, Note_on_c, 6, 58, 0
8, 119880, Note_on_c, 6, 63, 100
8, 119940, Note_on_c, 6, 63, 0
8, 119940, Note_on_c, 6, 58, 100
8, 120000, Note_on_c, 6, 58, 0
8, 120000, Note_on_c, 6, 63, 100
8, 120120, Note_on_c, 6, 63, 0
8, 120240, Note_on_c, 6, 51, 100
8, 120480, Note_on_c, 6, 51, 0
8, 120480, Note_on_c, 6, 50, 100
8, 120720, Note_on_c, 6, 50, 0
8, 120720, Note_on_c, 6, 49, 100
8, 120960, Note_on_c, 6, 49, 0
8, 120960, Note_on_c, 6, 48, 100
8, 122400, Note_on_c, 6, 48, 0
8, 122460, Note_on_c, 6, 67, 100
8, 122520, Note_on_c, 6, 67, 0
8, 122520, Note_on_c, 6, 68, 100
8, 122580, Note_on_c, 6, 68, 0
8, 122580, Note_on_c, 6, 67, 100
8, 122640, Note_on_c, 6, 67, 0
8, 122640, Note_on_c, 6, 68, 100
8, 122700, Note_on_c, 6, 68, 0
8, 122700, Note_on_c, 6, 67, 100
8, 122760, Note_on_c, 6, 67, 0
8, 122760, Note_on_c, 6, 65, 100
8, 122820, Note_on_c, 6, 65, 0
8, 122820, Note_on_c, 6, 63, 100
8, 122880, Note_on_c, 6, 63, 0
8, 122880, Note_on_c, 6, 62, 100
8, 123000, Note_on_c, 6, 62, 0
8, 123720, Note_on_c, 6, 70, 100
8, 123840, Note_on_c, 6, 70, 0
8, 123840, Note_on_c, 6, 68, 100
8, 123960, Note_on_c, 6, 68, 0
8, 123960, Note_on_c, 6, 67, 100
8, 124080, Note_on_c, 6, 67, 0
8, 124080, Note_on_c, 6, 65, 100
8, 124200, Note_on_c, 6, 65, 0
8, 124200, Note_on_c, 6, 62, 100
8, 124320, Note_on_c, 6, 62, 0
8, 124320, Note_on_c, 6, 63, 100
8, 124440, Note_on_c, 6, 63, 0
8, 124800, Note_on_c, 6, 60, 100
8, 124920, Note_on_c, 6, 60, 0
8, 125040, Note_on_c, 6, 60, 100
8, 125160, Note_on_c, 6, 60, 0
8, 125280, Note_on_c, 6, 57, 100
8, 125280, Note_on_c, 6, 67, 100
8, 125760, Note_on_c, 6, 67, 0
8, 125760, Note_on_c, 6, 57, 0
8, 125880, Note_on_c, 6, 58, 100
8, 126000, Note_on_c, 6, 58, 0
8, 126000, Note_on_c, 6, 58, 100
8, 126120, Note_on_c, 6, 58, 0
8, 126120, Note_on_c, 6, 58, 100
8, 126240, Note_on_c, 6, 58, 0
8, 126240, Note_on_c, 6, 58, 100
8, 126360, Note_on_c, 6, 58, 0
8, 126360, Note_on_c, 6, 58, 100
8, 126420, Note_on_c, 6, 58, 0
8, 126420, Note_on_c, 6, 58, 100
8, 126480, Note_on_c, 6, 58, 0
8, 126480, Note_on_c, 6, 58, 100
8, 126540, Note_on_c, 6, 58, 0
8, 126540, Note_on_c, 6, 58, 100
8, 126600, Note_on_c, 6, 58, 0
8, 126600, Note_on_c, 6, 58, 100
8, 126660, Note_on_c, 6, 58, 0
8, 126660, Note_on_c, 6, 58, 100
8, 126720, Note_on_c, 6, 58, 0
8, 126720, Note_on_c, 6, 58, 100
8, 126840, Note_on_c, 6, 58, 0
8, 127680, Note_on_c, 6, 65, 100
8, 127800, Note_on_c, 6, 65, 0
8, 127800, Note_on_c, 6, 63, 100
8, 127920, Note_on_c, 6, 63, 0
8, 127920, Note_on_c, 6, 62, 100
8, 128040, Note_on_c, 6, 62, 0
8, 128040, Note_on_c, 6, 60, 100
8, 128160, Note_on_c, 6, 60, 0
8, 128160, Note_on_c, 6, 58, 100
8, 128640, Note_on_c, 6, 58, 0
8, 128640, Note_on_c, 6, 63, 100
8, 128760, Note_on_c, 6, 63, 0
8, 128760, Note_on_c, 6, 62, 100
8, 128880, Note_on_c, 6, 62, 0
8, 128880, Note_on_c, 6, 60, 100
8, 129000, Note_on_c, 6, 60, 0
8, 129000, Note_on_c, 6, 58, 100
8, 129120, Note_on_c, 6, 58, 0
8, 129120, Note_on_c, 6, 56, 100
8, 129600, Note_on_c, 6, 56, 0
8, 129600, Note_on_c, 6, 62, 100
8, 129720, Note_on_c, 6, 62, 0
8, 129720, Note_on_c, 6, 60, 100
8, 129840, Note_on_c, 6, 60, 0
8, 129840, Note_on_c, 6, 58, 100
8, 129960, Note_on_c, 6, 58, 0
8, 129960, Note_on_c, 6, 56, 100
8, 130080, Note_on_c, 6, 56, 0
8, 130080, Note_on_c, 6, 55, 100
8, 130200, Note_on_c, 6, 55, 0
8, 130200, Note_on_c, 6, 63, 100
8, 130260, Note_on_c, 6, 63, 0
8, 130260, Note_on_c, 6, 63, 100
8, 130320, Note_on_c, 6, 63, 0
8, 130320, Note_on_c, 6, 63, 100
8, 130380, Note_on_c, 6, 63, 0
8, 130380, Note_on_c, 6, 63, 100
8, 130440, Note_on_c, 6, 63, 0
8, 130440, Note_on_c, 6, 63, 100
8, 130500, Note_on_c, 6, 63, 0
8, 130500, Note_on_c, 6, 63, 100
8, 130560, Note_on_c, 6, 63, 0
8, 130560, Note_on_c, 6, 63, 100
8, 130680, Note_on_c, 6, 63, 0
8, 130680, Note_on_c, 6, 61, 100
8, 130800, Note_on_c, 6, 61, 0
8, 130800, Note_on_c, 6, 60, 100
8, 130920, Note_on_c, 6, 60, 0
8, 130920, Note_on_c, 6, 58, 100
8, 131040, Note_on_c, 6, 58, 0
8, 131040, Note_on_c, 6, 57, 100
8, 131160, Note_on_c, 6, 57, 0
8, 131520, Note_on_c, 6, 61, 100
8, 132120, Note_on_c, 6, 61, 0
8, 132480, Note_on_c, 6, 60, 100
8, 133080, Note_on_c, 6, 60, 0
8, 133440, Note_on_c, 6, 58, 100
8, 133920, Note_on_c, 6, 58, 0
8, 133920, Note_on_c, 6, 56, 100
8, 134040, Note_on_c, 6, 56, 0
8, 134160, Note_on_c, 6, 53, 100
8, 134400, Note_on_c, 6, 53, 0
8, 134400, Note_on_c, 6, 55, 100
8, 134640, Note_on_c, 6, 55, 0
8, 134640, Note_on_c, 6, 56, 100
8, 134880, Note_on_c, 6, 56, 0
8, 134880, Note_on_c, 6, 58, 100
8, 135000, Note_on_c, 6, 58, 0
8, 135960, Note_on_c, 6, 67, 100
8, 135990, Note_on_c, 6, 67, 0
8, 135990, Note_on_c, 6, 68, 100
8, 136020, Note_on_c, 6, 68, 0
8, 136020, Note_on_c, 6, 67, 100
8, 136050, Note_on_c, 6, 67, 0
8, 136050, Note_on_c, 6, 68, 100
8, 136080, Note_on_c, 6, 68, 0
8, 136080, Note_on_c, 6, 70, 100
8, 136140, Note_on_c, 6, 70, 0
8, 136140, Note_on_c, 6, 70, 100
8, 136200, Note_on_c, 6, 70, 0
8, 136200, Note_on_c, 6, 70, 100
8, 136260, Note_on_c, 6, 70, 0
8, 136260, Note_on_c, 6, 70, 100
8, 136320, Note_on_c, 6, 70, 0
8, 136320, Note_on_c, 6, 70, 100
8, 136380, Note_on_c, 6, 70, 0
8, 136380, Note_on_c, 6, 55, 100
8, 136440, Note_on_c, 6, 55, 0
8, 136440, Note_on_c, 6, 55, 100
8, 136500, Note_on_c, 6, 55, 0
8, 136500, Note_on_c, 6, 55, 100
8, 136560, Note_on_c, 6, 55, 0
8, 136620, Note_on_c, 6, 55, 100
8, 136680, Note_on_c, 6, 55, 0
8, 136680, Note_on_c, 6, 55, 100
8, 136740, Note_on_c, 6, 55, 0
8, 136740, Note_on_c, 6, 55, 100
8, 136800, Note_on_c, 6, 55, 0
8, 136860, Note_on_c, 6, 53, 100
8, 136920, Note_on_c, 6, 53, 0
8, 136920, Note_on_c, 6, 53, 100
8, 136980, Note_on_c, 6, 53, 0
8, 136980, Note_on_c, 6, 53, 100
8, 137040, Note_on_c, 6, 53, 0
8, 137100, Note_on_c, 6, 56, 100
8, 137160, Note_on_c, 6, 56, 0
8, 137160, Note_on_c, 6, 56, 100
8, 137220, Note_on_c, 6, 56, 0
8, 137220, Note_on_c, 6, 56, 100
8, 137280, Note_on_c, 6, 56, 0
8, 137280, Note_on_c, 6, 55, 100
8, 137460, Note_on_c, 6, 55, 0
8, 137460, Note_on_c, 6, 53, 100
8, 137520, Note_on_c, 6, 53, 0
8, 137520, Note_on_c, 6, 51, 100
8, 137700, Note_on_c, 6, 51, 0
8, 137700, Note_on_c, 6, 56, 100
8, 137760, Note_on_c, 6, 56, 0
8, 137760, Note_on_c, 6, 58, 100
8, 138120, Note_on_c, 6, 58, 0
8, 138300, Note_on_c, 6, 63, 100
8, 138360, Note_on_c, 6, 63, 0
8, 138360, Note_on_c, 6, 63, 100
8, 138420, Note_on_c, 6, 63, 0
8, 138420, Note_on_c, 6, 63, 100
8, 138480, Note_on_c, 6, 63, 0
8, 138540, Note_on_c, 6, 63, 100
8, 138600, Note_on_c, 6, 63, 0
8, 138600, Note_on_c, 6, 63, 100
8, 138660, Note_on_c, 6, 63, 0
8, 138660, Note_on_c, 6, 63, 100
8, 138720, Note_on_c, 6, 63, 0
8, 138780, Note_on_c, 6, 62, 100
8, 138840, Note_on_c, 6, 62, 0
8, 138840, Note_on_c, 6, 62, 100
8, 138900, Note_on_c, 6, 62, 0
8, 138900, Note_on_c, 6, 62, 100
8, 138960, Note_on_c, 6, 62, 0
8, 139020, Note_on_c, 6, 68, 100
8, 139080, Note_on_c, 6, 68, 0
8, 139080, Note_on_c, 6, 68, 100
8, 139140, Note_on_c, 6, 68, 0
8, 139140, Note_on_c, 6, 68, 100
8, 139200, Note_on_c, 6, 68, 0
8, 139200, Note_on_c, 6, 67, 100
8, 139320, Note_on_c, 6, 67, 0
8, 139320, Note_on_c, 6, 65, 100
8, 139380, Note_on_c, 6, 65, 0
8, 139380, Note_on_c, 6, 63, 100
8, 139440, Note_on_c, 6, 63, 0
8, 139440, Note_on_c, 6, 63, 100
8, 139500, Note_on_c, 6, 63, 0
8, 139500, Note_on_c, 6, 62, 100
8, 139560, Note_on_c, 6, 62, 0
8, 139560, Note_on_c, 6, 62, 100
8, 139620, Note_on_c, 6, 62, 0
8, 139620, Note_on_c, 6, 60, 100
8, 139680, Note_on_c, 6, 60, 0
8, 139680, Note_on_c, 6, 58, 100
8, 139800, Note_on_c, 6, 58, 0
8, 140160, Note_on_c, 6, 63, 100
8, 140220, Note_on_c, 6, 63, 0
8, 140220, Note_on_c, 6, 67, 100
8, 140280, Note_on_c, 6, 67, 0
8, 140280, Note_on_c, 6, 63, 100
8, 140340, Note_on_c, 6, 63, 0
8, 140340, Note_on_c, 6, 67, 100
8, 140400, Note_on_c, 6, 67, 0
8, 140400, Note_on_c, 6, 63, 100
8, 140460, Note_on_c, 6, 63, 0
8, 140460, Note_on_c, 6, 67, 100
8, 140520, Note_on_c, 6, 67, 0
8, 140520, Note_on_c, 6, 63, 100
8, 140580, Note_on_c, 6, 63, 0
8, 140580, Note_on_c, 6, 67, 100
8, 140640, Note_on_c, 6, 67, 0
8, 140640, Note_on_c, 6, 63, 100
8, 140700, Note_on_c, 6, 63, 0
8, 140700, Note_on_c, 6, 67, 100
8, 140760, Note_on_c, 6, 67, 0
8, 140760, Note_on_c, 6, 63, 100
8, 140820, Note_on_c, 6, 63, 0
8, 140820, Note_on_c, 6, 67, 100
8, 140880, Note_on_c, 6, 67, 0
8, 140880, Note_on_c, 6, 63, 100
8, 140940, Note_on_c, 6, 63, 0
8, 140940, Note_on_c, 6, 67, 100
8, 141000, Note_on_c, 6, 67, 0
8, 141000, Note_on_c, 6, 63, 100
8, 141060, Note_on_c, 6, 63, 0
8, 141060, Note_on_c, 6, 67, 100
8, 141120, Note_on_c, 6, 67, 0
8, 141120, Note_on_c, 6, 62, 100
8, 141180, Note_on_c, 6, 62, 0
8, 141180, Note_on_c, 6, 65, 100
8, 141240, Note_on_c, 6, 65, 0
8, 141240, Note_on_c, 6, 62, 100
8, 141300, Note_on_c, 6, 62, 0
8, 141300, Note_on_c, 6, 65, 100
8, 141360, Note_on_c, 6, 65, 0
8, 141360, Note_on_c, 6, 63, 100
8, 141420, Note_on_c, 6, 63, 0
8, 141420, Note_on_c, 6, 67, 100
8, 141480, Note_on_c, 6, 67, 0
8, 141480, Note_on_c, 6, 63, 100
8, 141540, Note_on_c, 6, 63, 0
8, 141540, Note_on_c, 6, 67, 100
8, 141600, Note_on_c, 6, 67, 0
8, 141600, Note_on_c, 6, 62, 100
8, 141660, Note_on_c, 6, 62, 0
8, 141660, Note_on_c, 6, 68, 100
8, 141720, Note_on_c, 6, 68, 0
8, 141720, Note_on_c, 6, 62, 100
8, 141780, Note_on_c, 6, 62, 0
8, 141780, Note_on_c, 6, 68, 100
8, 141840, Note_on_c, 6, 68, 0
8, 141840, Note_on_c, 6, 62, 100
8, 141900, Note_on_c, 6, 62, 0
8, 141900, Note_on_c, 6, 68, 100
8, 141960, Note_on_c, 6, 68, 0
8, 141960, Note_on_c, 6, 62, 100
8, 142020, Note_on_c, 6, 62, 0
8, 142020, Note_on_c, 6, 68, 100
8, 142080, Note_on_c, 6, 68, 0
8, 142080, Note_on_c, 6, 63, 100
8, 142140, Note_on_c, 6, 63, 0
8, 142140, Note_on_c, 6, 67, 100
8, 142200, Note_on_c, 6, 67, 0
8, 142200, Note_on_c, 6, 63, 100
8, 142260, Note_on_c, 6, 63, 0
8, 142260, Note_on_c, 6, 67, 100
8, 142320, Note_on_c, 6, 67, 0
8, 142320, Note_on_c, 6, 63, 100
8, 142380, Note_on_c, 6, 63, 0
8, 142380, Note_on_c, 6, 67, 100
8, 142440, Note_on_c, 6, 67, 0
8, 142440, Note_on_c, 6, 63, 100
8, 142500, Note_on_c, 6, 63, 0
8, 142500, Note_on_c, 6, 67, 100
8, 142560, Note_on_c, 6, 67, 0
8, 142560, Note_on_c, 6, 63, 100
8, 142620, Note_on_c, 6, 63, 0
8, 142620, Note_on_c, 6, 67, 100
8, 142680, Note_on_c, 6, 67, 0
8, 142680, Note_on_c, 6, 63, 100
8, 142740, Note_on_c, 6, 63, 0
8, 142740, Note_on_c, 6, 67, 100
8, 142800, Note_on_c, 6, 67, 0
8, 142800, Note_on_c, 6, 63, 100
8, 142860, Note_on_c, 6, 63, 0
8, 142860, Note_on_c, 6, 67, 100
8, 142920, Note_on_c, 6, 67, 0
8, 142920, Note_on_c, 6, 63, 100
8, 142980, Note_on_c, 6, 63, 0
8, 142980, Note_on_c, 6, 67, 100
8, 143040, Note_on_c, 6, 67, 0
8, 143040, Note_on_c, 6, 62, 100
8, 143100, Note_on_c, 6, 62, 0
8, 143100, Note_on_c, 6, 65, 100
8, 143160, Note_on_c, 6, 65, 0
8, 143160, Note_on_c, 6, 62, 100
8, 143220, Note_on_c, 6, 62, 0
8, 143220, Note_on_c, 6, 65, 100
8, 143280, Note_on_c, 6, 65, 0
8, 143280, Note_on_c, 6, 63, 100
8, 143340, Note_on_c, 6, 63, 0
8, 143340, Note_on_c, 6, 67, 100
8, 143400, Note_on_c, 6, 67, 0
8, 143400, Note_on_c, 6, 63, 100
8, 143460, Note_on_c, 6, 63, 0
8, 143460, Note_on_c, 6, 67, 100
8, 143520, Note_on_c, 6, 67, 0
8, 143520, Note_on_c, 6, 62, 100
8, 143580, Note_on_c, 6, 62, 0
8, 143580, Note_on_c, 6, 68, 100
8, 143640, Note_on_c, 6, 68, 0
8, 143640, Note_on_c, 6, 62, 100
8, 143700, Note_on_c, 6, 62, 0
8, 143700, Note_on_c, 6, 68, 100
8, 143760, Note_on_c, 6, 68, 0
8, 143760, Note_on_c, 6, 62, 100
8, 143820, Note_on_c, 6, 62, 0
8, 143820, Note_on_c, 6, 68, 100
8, 143880, Note_on_c, 6, 68, 0
8, 143880, Note_on_c, 6, 62, 100
8, 143940, Note_on_c, 6, 62, 0
8, 143940, Note_on_c, 6, 68, 100
8, 144000, Note_on_c, 6, 68, 0
8, 144000, Note_on_c, 6, 67, 100
8, 144060, Note_on_c, 6, 67, 0
8, 144300, Note_on_c, 6, 62, 100
8, 144360, Note_on_c, 6, 62, 0
8, 144360, Note_on_c, 6, 63, 100
8, 144420, Note_on_c, 6, 63, 0
8, 144420, Note_on_c, 6, 65, 100
8, 144480, Note_on_c, 6, 65, 0
8, 144480, Note_on_c, 6, 67, 100
8, 144540, Note_on_c, 6, 67, 0
8, 144780, Note_on_c, 6, 62, 100
8, 144840, Note_on_c, 6, 62, 0
8, 144840, Note_on_c, 6, 63, 100
8, 144900, Note_on_c, 6, 63, 0
8, 144900, Note_on_c, 6, 65, 100
8, 144960, Note_on_c, 6, 65, 0
8, 144960, Note_on_c, 6, 67, 100
8, 145080, Note_on_c, 6, 67, 0
8, 145260, Note_on_c, 6, 55, 100
8, 145320, Note_on_c, 6, 55, 0
8, 145320, Note_on_c, 6, 56, 100
8, 145380, Note_on_c, 6, 56, 0
8, 145380, Note_on_c, 6, 58, 100
8, 145440, Note_on_c, 6, 58, 0
8, 145440, Note_on_c, 6, 56, 100
8, 145560, Note_on_c, 6, 56, 0
8, 145800, Note_on_c, 6, 56, 100
8, 145920, Note_on_c, 6, 56, 0
8, 145920, Note_on_c, 6, 58, 100
8, 145980, Note_on_c, 6, 58, 0
8, 146040, Note_on_c, 6, 60, 100
8, 146100, Note_on_c, 6, 60, 0
8, 146160, Note_on_c, 6, 58, 100
8, 146220, Note_on_c, 6, 58, 0
8, 146280, Note_on_c, 6, 58, 100
8, 146340, Note_on_c, 6, 58, 0
8, 146400, Note_on_c, 6, 58, 100
8, 146520, Note_on_c, 6, 58, 0
8, 146700, Note_on_c, 6, 62, 100
8, 146760, Note_on_c, 6, 62, 0
8, 146760, Note_on_c, 6, 63, 100
8, 146820, Note_on_c, 6, 63, 0
8, 146820, Note_on_c, 6, 65, 100
8, 146880, Note_on_c, 6, 65, 0
8, 146880, Note_on_c, 6, 67, 100
8, 146940, Note_on_c, 6, 67, 0
8, 147180, Note_on_c, 6, 62, 100
8, 147240, Note_on_c, 6, 62, 0
8, 147240, Note_on_c, 6, 63, 100
8, 147300, Note_on_c, 6, 63, 0
8, 147300, Note_on_c, 6, 65, 100
8, 147360, Note_on_c, 6, 65, 0
8, 147360, Note_on_c, 6, 67, 100
8, 147480, Note_on_c, 6, 67, 0
8, 148140, Note_on_c, 6, 63, 100
8, 148260, Note_on_c, 6, 63, 0
8, 148260, Note_on_c, 6, 63, 100
8, 148320, Note_on_c, 6, 63, 0
8, 148320, Note_on_c, 6, 63, 100
8, 148380, Note_on_c, 6, 63, 0
8, 148440, Note_on_c, 6, 63, 100
8, 148500, Note_on_c, 6, 63, 0
8, 148560, Note_on_c, 6, 63, 100
8, 148620, Note_on_c, 6, 63, 0
8, 148680, Note_on_c, 6, 63, 100
8, 148740, Note_on_c, 6, 63, 0
8, 148800, Note_on_c, 6, 63, 100
8, 148920, Note_on_c, 6, 63, 0
8, 149280, Note_on_c, 6, 58, 100
8, 149760, Note_on_c, 6, 58, 0
8, 149820, Note_on_c, 6, 58, 100
8, 149880, Note_on_c, 6, 58, 0
8, 149880, Note_on_c, 6, 63, 100
8, 149940, Note_on_c, 6, 63, 0
8, 149940, Note_on_c, 6, 67, 100
8, 150000, Note_on_c, 6, 67, 0
8, 150000, Note_on_c, 6, 70, 100
8, 150060, Note_on_c, 6, 70, 0
8, 150060, Note_on_c, 6, 70, 100
8, 150120, Note_on_c, 6, 70, 0
8, 150120, Note_on_c, 6, 70, 100
8, 150180, Note_on_c, 6, 70, 0
8, 150180, Note_on_c, 6, 70, 100
8, 150240, Note_on_c, 6, 70, 0
8, 150240, Note_on_c, 6, 70, 100
8, 150360, Note_on_c, 6, 70, 0
8, 151200, Note_on_c, 6, 61, 100
8, 151440, Note_on_c, 6, 61, 0
8, 151440, Note_on_c, 6, 61, 100
8, 151560, Note_on_c, 6, 61, 0
8, 151560, Note_on_c, 6, 61, 100
8, 151680, Note_on_c, 6, 61, 0
8, 151680, Note_on_c, 6, 60, 100
8, 152160, Note_on_c, 6, 60, 0
8, 152160, Note_on_c, 6, 60, 100
8, 152400, Note_on_c, 6, 60, 0
8, 152400, Note_on_c, 6, 58, 100
8, 152640, Note_on_c, 6, 58, 0
8, 152640, Note_on_c, 6, 58, 100
8, 152760, Note_on_c, 6, 58, 0
8, 153660, Note_on_c, 6, 55, 100
8, 153720, Note_on_c, 6, 55, 0
8, 153720, Note_on_c, 6, 55, 100
8, 153780, Note_on_c, 6, 55, 0
8, 153780, Note_on_c, 6, 55, 100
8, 153840, Note_on_c, 6, 55, 0
8, 153900, Note_on_c, 6, 56, 100
8, 153960, Note_on_c, 6, 56, 0
8, 153960, Note_on_c, 6, 56, 100
8, 154020, Note_on_c, 6, 56, 0
8, 154020, Note_on_c, 6, 56, 100
8, 154080, Note_on_c, 6, 56, 0
8, 154140, Note_on_c, 6, 58, 100
8, 154200, Note_on_c, 6, 58, 0
8, 154200, Note_on_c, 6, 58, 100
8, 154260, Note_on_c, 6, 58, 0
8, 154260, Note_on_c, 6, 58, 100
8, 154320, Note_on_c, 6, 58, 0
8, 154320, Note_on_c, 6, 60, 100
8, 154380, Note_on_c, 6, 60, 0
8, 154380, Note_on_c, 6, 60, 100
8, 154440, Note_on_c, 6, 60, 0
8, 154440, Note_on_c, 6, 62, 100
8, 154500, Note_on_c, 6, 62, 0
8, 154500, Note_on_c, 6, 62, 100
8, 154560, Note_on_c, 6, 62, 0
8, 154560, Note_on_c, 6, 63, 100
8, 154680, Note_on_c, 6, 63, 0
8, 155520, Note_on_c, 6, 58, 100
8, 156060, Note_on_c, 6, 58, 0
8, 156060, Note_on_c, 6, 58, 100
8, 156120, Note_on_c, 6, 58, 0
8, 156120, Note_on_c, 6, 58, 100
8, 156180, Note_on_c, 6, 58, 0
8, 156180, Note_on_c, 6, 58, 100
8, 156240, Note_on_c, 6, 58, 0
8, 156240, Note_on_c, 6, 58, 100
8, 156300, Note_on_c, 6, 58, 0
8, 156300, Note_on_c, 6, 58, 100
8, 156360, Note_on_c, 6, 58, 0
8, 156360, Note_on_c, 6, 58, 100
8, 156420, Note_on_c, 6, 58, 0
8, 156420, Note_on_c, 6, 58, 100
8, 156480, Note_on_c, 6, 58, 0
8, 156480, Note_on_c, 6, 58, 100
8, 156540, Note_on_c, 6, 58, 0
8, 156540, Note_on_c, 6, 58, 100
8, 156600, Note_on_c, 6, 58, 0
8, 156600, Note_on_c, 6, 58, 100
8, 156660, Note_on_c, 6, 58, 0
8, 156660, Note_on_c, 6, 58, 100
8, 156720, Note_on_c, 6, 58, 0
8, 156720, Note_on_c, 6, 58, 100
8, 156780, Note_on_c, 6, 58, 0
8, 156780, Note_on_c, 6, 58, 100
8, 156840, Note_on_c, 6, 58, 0
8, 156840, Note_on_c, 6, 58, 100
8, 156900, Note_on_c, 6, 58, 0
8, 156900, Note_on_c, 6, 58, 100
8, 156960, Note_on_c, 6, 58, 0
8, 156960, Note_on_c, 6, 58, 100
8, 157080, Note_on_c, 6, 58, 0
8, 157080, Note_on_c, 6, 55, 100
8, 157080, Note_on_c, 6, 63, 100
8, 157200, Note_on_c, 6, 63, 0
8, 157200, Note_on_c, 6, 55, 0
8, 157320, Note_on_c, 6, 55, 100
8, 157320, Note_on_c, 6, 63, 100
8, 157440, Note_on_c, 6, 63, 0
8, 157440, Note_on_c, 6, 55, 0
8, 157560, Note_on_c, 6, 55, 100
8, 157650, Note_on_c, 6, 55, 0
8, 157650, Note_on_c, 6, 58, 100
8, 157680, Note_on_c, 6, 58, 0
8, 157680, Note_on_c, 6, 63, 100
8, 157740, Note_on_c, 6, 63, 0
8, 157740, Note_on_c, 6, 63, 100
8, 157800, Note_on_c, 6, 63, 0
8, 157800, Note_on_c, 6, 63, 100
8, 157860, Note_on_c, 6, 63, 0
8, 157860, Note_on_c, 6, 63, 100
8, 157920, Note_on_c, 6, 63, 0
8, 157920, Note_on_c, 6, 63, 100
8, 157980, Note_on_c, 6, 63, 0
8, 157980, Note_on_c, 6, 62, 100
8, 158040, Note_on_c, 6, 62, 0
8, 158040, Note_on_c, 6, 62, 100
8, 158160, Note_on_c, 6, 62, 0
8, 158280, Note_on_c, 6, 56, 100
8, 158280, Note_on_c, 6, 65, 100
8, 158400, Note_on_c, 6, 65, 0
8, 158400, Note_on_c, 6, 56, 0
8, 158520, Note_on_c, 6, 56, 100
8, 158610, Note_on_c, 6, 56, 0
8, 158610, Note_on_c, 6, 62, 100
8, 158640, Note_on_c, 6, 62, 0
8, 158640, Note_on_c, 6, 65, 100
8, 158700, Note_on_c, 6, 65, 0
8, 158700, Note_on_c, 6, 65, 100
8, 158760, Note_on_c, 6, 65, 0
8, 158760, Note_on_c, 6, 65, 100
8, 158820, Note_on_c, 6, 65, 0
8, 158820, Note_on_c, 6, 65, 100
8, 158880, Note_on_c, 6, 65, 0
8, 158880, Note_on_c, 6, 65, 100
8, 158940, Note_on_c, 6, 65, 0
8, 158940, Note_on_c, 6, 63, 100
8, 159000, Note_on_c, 6, 63, 0
8, 159000, Note_on_c, 6, 63, 100
8, 159120, Note_on_c, 6, 63, 0
8, 159240, Note_on_c, 6, 51, 100
8, 159240, Note_on_c, 6, 58, 100
8, 159240, Note_on_c, 6, 67, 100
8, 159360, Note_on_c, 6, 67, 0
8, 159360, Note_on_c, 6, 58, 0
8, 159360, Note_on_c, 6, 51, 0
8, 159480, Note_on_c, 6, 58, 100
8, 159570, Note_on_c, 6, 58, 0
8, 159570, Note_on_c, 6, 63, 100
8, 159600, Note_on_c, 6, 63, 0
8, 159600, Note_on_c, 6, 67, 100
8, 159660, Note_on_c, 6, 67, 0
8, 159660, Note_on_c, 6, 67, 100
8, 159720, Note_on_c, 6, 67, 0
8, 159720, Note_on_c, 6, 67, 100
8, 159780, Note_on_c, 6, 67, 0
8, 159780, Note_on_c, 6, 67, 100
8, 159840, Note_on_c, 6, 67, 0
8, 159840, Note_on_c, 6, 65, 100
8, 159900, Note_on_c, 6, 65, 0
8, 159900, Note_on_c, 6, 53, 100
8, 159900, Note_on_c, 6, 60, 100
8, 160020, Note_on_c, 6, 60, 0
8, 160020, Note_on_c, 6, 53, 0
8, 160020, Note_on_c, 6, 53, 100
8, 160020, Note_on_c, 6, 60, 100
8, 160140, Note_on_c, 6, 60, 0
8, 160140, Note_on_c, 6, 53, 0
8, 160140, Note_on_c, 6, 53, 100
8, 160140, Note_on_c, 6, 60, 100
8, 160260, Note_on_c, 6, 60, 0
8, 160260, Note_on_c, 6, 53, 0
8, 160260, Note_on_c, 6, 53, 100
8, 160260, Note_on_c, 6, 60, 100
8, 160380, Note_on_c, 6, 60, 0
8, 160380, Note_on_c, 6, 53, 0
8, 160380, Note_on_c, 6, 53, 100
8, 160380, Note_on_c, 6, 60, 100
8, 160500, Note_on_c, 6, 60, 0
8, 160500, Note_on_c, 6, 53, 0
8, 160500, Note_on_c, 6, 53, 100
8, 160500, Note_on_c, 6, 60, 100
8, 160620, Note_on_c, 6, 60, 0
8, 160620, Note_on_c, 6, 53, 0
8, 160620, Note_on_c, 6, 53, 100
8, 160620, Note_on_c, 6, 60, 100
8, 160740, Note_on_c, 6, 60, 0
8, 160740, Note_on_c, 6, 53, 0
8, 160740, Note_on_c, 6, 53, 100
8, 160740, Note_on_c, 6, 60, 100
8, 160800, Note_on_c, 6, 53, 0
8, 160800, Note_on_c, 6, 51, 100
8, 160860, Note_on_c, 6, 51, 0
8, 160860, Note_on_c, 6, 60, 0
8, 160860, Note_on_c, 6, 72, 100
8, 160980, Note_on_c, 6, 72, 0
8, 160980, Note_on_c, 6, 72, 100
8, 161100, Note_on_c, 6, 72, 0
8, 161100, Note_on_c, 6, 72, 100
8, 161220, Note_on_c, 6, 72, 0
8, 161220, Note_on_c, 6, 72, 100
8, 161340, Note_on_c, 6, 72, 0
8, 161340, Note_on_c, 6, 72, 100
8, 161460, Note_on_c, 6, 72, 0
8, 161460, Note_on_c, 6, 72, 100
8, 161580, Note_on_c, 6, 72, 0
8, 161580, Note_on_c, 6, 72, 100
8, 161700, Note_on_c, 6, 72, 0
8, 161700, Note_on_c, 6, 72, 100
8, 161760, Note_on_c, 6, 72, 0
8, 161760, Note_on_c, 6, 70, 100
8, 162000, Note_on_c, 6, 70, 0
8, 174240, Note_on_c, 6, 51, 100
8, 174480, Note_on_c, 6, 51, 0
8, 174480, Note_on_c, 6, 63, 100
8, 174660, Note_on_c, 6, 63, 0
8, 174660, Note_on_c, 6, 62, 100
8, 174690, Note_on_c, 6, 62, 0
8, 174690, Note_on_c, 6, 63, 100
8, 174720, Note_on_c, 6, 63, 0
8, 174720, Note_on_c, 6, 67, 100
8, 174960, Note_on_c, 6, 67, 0
8, 174960, Note_on_c, 6, 70, 100
8, 175200, Note_on_c, 6, 70, 0
8, 175200, Note_on_c, 6, 75, 100
8, 175440, Note_on_c, 6, 75, 0
8, 175440, Note_on_c, 6, 60, 100
8, 175620, Note_on_c, 6, 60, 0
8, 175620, Note_on_c, 6, 59, 100
8, 175650, Note_on_c, 6, 59, 0
8, 175650, Note_on_c, 6, 60, 100
8, 175680, Note_on_c, 6, 60, 0
8, 175680, Note_on_c, 6, 63, 100
8, 175920, Note_on_c, 6, 63, 0
8, 175920, Note_on_c, 6, 67, 100
8, 176160, Note_on_c, 6, 67, 0
8, 176160, Note_on_c, 6, 72, 100
8, 177120, Note_on_c, 6, 72, 0
8, 177120, Note_on_c, 6, 70, 100
8, 177360, Note_on_c, 6, 70, 0
8, 177360, Note_on_c, 6, 58, 100
8, 178200, Note_on_c, 6, 58, 0
8, 178560, Note_on_c, 6, 58, 100
8, 178560, Note_on_c, 6, 62, 100
8, 179040, Note_on_c, 6, 62, 0
8, 179040, Note_on_c, 6, 63, 100
8, 179160, Note_on_c, 6, 63, 0
8, 179160, Note_on_c, 6, 58, 0
8, 179520, Note_on_c, 6, 62, 100
8, 179520, Note_on_c, 6, 58, 100
8, 180000, Note_on_c, 6, 62, 0
8, 180000, Note_on_c, 6, 63, 100
8, 180120, Note_on_c, 6, 63, 0
8, 180120, Note_on_c, 6, 58, 0
8, 180120, Note_on_c, 6, 67, 100
8, 180180, Note_on_c, 6, 67, 0
8, 180180, Note_on_c, 6, 70, 100
8, 180240, Note_on_c, 6, 70, 0
8, 180240, Note_on_c, 6, 67, 100
8, 180300, Note_on_c, 6, 67, 0
8, 180300, Note_on_c, 6, 70, 100
8, 180360, Note_on_c, 6, 70, 0
8, 180360, Note_on_c, 6, 67, 100
8, 180420, Note_on_c, 6, 67, 0
8, 180420, Note_on_c, 6, 70, 100
8, 180480, Note_on_c, 6, 70, 0
8, 180480, Note_on_c, 6, 67, 100
8, 180600, Note_on_c, 6, 67, 0
8, 180600, Note_on_c, 6, 63, 100
8, 180660, Note_on_c, 6, 63, 0
8, 180660, Note_on_c, 6, 58, 100
8, 180720, Note_on_c, 6, 58, 0
8, 180720, Note_on_c, 6, 63, 100
8, 180780, Note_on_c, 6, 63, 0
8, 180780, Note_on_c, 6, 58, 100
8, 180840, Note_on_c, 6, 58, 0
8, 180840, Note_on_c, 6, 63, 100
8, 180900, Note_on_c, 6, 63, 0
8, 180900, Note_on_c, 6, 58, 100
8, 180960, Note_on_c, 6, 58, 0
8, 180960, Note_on_c, 6, 63, 100
8, 181200, Note_on_c, 6, 63, 0
8, 181200, Note_on_c, 6, 55, 100
8, 181320, Note_on_c, 6, 55, 0
8, 181320, Note_on_c, 6, 58, 100
8, 181440, Note_on_c, 6, 58, 0
8, 181440, Note_on_c, 6, 63, 100
8, 181560, Note_on_c, 6, 63, 0
8, 181560, Note_on_c, 6, 67, 100
8, 181680, Note_on_c, 6, 67, 0
8, 181680, Note_on_c, 6, 70, 100
8, 181800, Note_on_c, 6, 70, 0
8, 181800, Note_on_c, 6, 67, 100
8, 181920, Note_on_c, 6, 67, 0
8, 181920, Note_on_c, 6, 63, 100
8, 182040, Note_on_c, 6, 63, 0
8, 182040, Note_on_c, 6, 63, 100
8, 182160, Note_on_c, 6, 63, 0
8, 182160, Note_on_c, 6, 63, 100
8, 182280, Note_on_c, 6, 63, 0
8, 182280, Note_on_c, 6, 63, 100
8, 182400, Note_on_c, 6, 63, 0
8, 182400, Note_on_c, 6, 63, 100
8, 182520, Note_on_c, 6, 63, 0
8, 182610, Note_on_c, 6, 51, 100
8, 182640, Note_on_c, 6, 51, 0
8, 182640, Note_on_c, 6, 51, 100
8, 182760, Note_on_c, 6, 51, 0
8, 182850, Note_on_c, 6, 51, 100
8, 182880, Note_on_c, 6, 51, 0
8, 182880, Note_on_c, 6, 51, 100
8, 183120, Note_on_c, 6, 51, 0
8, 183120, End_track
9, 0, Start_track
9, 0, MIDI_port, 0
9, 0, Title_t, "Viola II"
9, 0, Program_c, 7, 41
9, 0, Note_on_c, 7, 51, 100
9, 0, Note_on_c, 7, 55, 100
9, 480, Note_on_c, 7, 55, 0
9, 480, Note_on_c, 7, 51, 0
9, 480, Note_on_c, 7, 51, 100
9, 480, Note_on_c, 7, 55, 100
9, 720, Note_on_c, 7, 55, 0
9, 720, Note_on_c, 7, 51, 0
9, 720, Note_on_c, 7, 51, 100
9, 720, Note_on_c, 7, 55, 100
9, 900, Note_on_c, 7, 55, 0
9, 900, Note_on_c, 7, 51, 0
9, 900, Note_on_c, 7, 51, 100
9, 900, Note_on_c, 7, 55, 100
9, 960, Note_on_c, 7, 55, 0
9, 960, Note_on_c, 7, 51, 0
9, 960, Note_on_c, 7, 51, 100
9, 960, Note_on_c, 7, 55, 100
9, 1080, Note_on_c, 7, 55, 0
9, 1080, Note_on_c, 7, 51, 0
9, 2040, Note_on_c, 7, 62, 100
9, 2280, Note_on_c, 7, 62, 0
9, 2280, Note_on_c, 7, 62, 100
9, 2520, Note_on_c, 7, 62, 0
9, 2520, Note_on_c, 7, 62, 100
9, 2760, Note_on_c, 7, 62, 0
9, 2760, Note_on_c, 7, 62, 100
9, 2880, Note_on_c, 7, 62, 0
9, 2880, Note_on_c, 7, 63, 100
9, 3000, Note_on_c, 7, 63, 0
9, 3960, Note_on_c, 7, 65, 100
9, 4200, Note_on_c, 7, 65, 0
9, 4200, Note_on_c, 7, 65, 100
9, 4440, Note_on_c, 7, 65, 0
9, 4440, Note_on_c, 7, 65, 100
9, 4680, Note_on_c, 7, 65, 0
9, 4680, Note_on_c, 7, 65, 100
9, 4800, Note_on_c, 7, 65, 0
9, 4800, Note_on_c, 7, 63, 100
9, 4920, Note_on_c, 7, 63, 0
9, 6240, Note_on_c, 7, 65, 100
9, 6420, Note_on_c, 7, 65, 0
9, 6420, Note_on_c, 7, 63, 100
9, 6480, Note_on_c, 7, 63, 0
9, 6480, Note_on_c, 7, 62, 100
9, 6600, Note_on_c, 7, 62, 0
9, 6600, Note_on_c, 7, 62, 100
9, 6720, Note_on_c, 7, 62, 0
9, 6720, Note_on_c, 7, 67, 100
9, 6900, Note_on_c, 7, 67, 0
9, 6900, Note_on_c, 7, 65, 100
9, 6960, Note_on_c, 7, 65, 0
9, 6960, Note_on_c, 7, 63, 100
9, 7080, Note_on_c, 7, 63, 0
9, 7200, Note_on_c, 7, 63, 100
9, 7440, Note_on_c, 7, 63, 0
9, 7440, Note_on_c, 7, 61, 100
9, 7680, Note_on_c, 7, 61, 0
9, 7680, Note_on_c, 7, 60, 100
9, 7920, Note_on_c, 7, 60, 0
9, 7920, Note_on_c, 7, 58, 100
9, 8160, Note_on_c, 7, 58, 0
9, 8160, Note_on_c, 7, 56, 100
9, 8400, Note_on_c, 7, 56, 0
9, 8400, Note_on_c, 7, 55, 100
9, 8520, Note_on_c, 7, 55, 0
9, 8520, Note_on_c, 7, 53, 100
9, 8640, Note_on_c, 7, 53, 0
9, 8640, Note_on_c, 7, 51, 100
9, 8760, Note_on_c, 7, 51, 0
9, 10080, Note_on_c, 7, 65, 100
9, 10260, Note_on_c, 7, 65, 0
9, 10260, Note_on_c, 7, 63, 100
9, 10320, Note_on_c, 7, 63, 0
9, 10320, Note_on_c, 7, 62, 100
9, 10440, Note_on_c, 7, 62, 0
9, 10440, Note_on_c, 7, 62, 100
9, 10560, Note_on_c, 7, 62, 0
9, 10560, Note_on_c, 7, 67, 100
9, 10740, Note_on_c, 7, 67, 0
9, 10740, Note_on_c, 7, 65, 100
9, 10800, Note_on_c, 7, 65, 0
9, 10800, Note_on_c, 7, 63, 100
9, 10920, Note_on_c, 7, 63, 0
9, 11040, Note_on_c, 7, 63, 100
9, 11280, Note_on_c, 7, 63, 0
9, 11280, Note_on_c, 7, 61, 100
9, 11520, Note_on_c, 7, 61, 0
9, 11520, Note_on_c, 7, 60, 100
9, 11760, Note_on_c, 7, 60, 0
9, 11760, Note_on_c, 7, 58, 100
9, 12000, Note_on_c, 7, 58, 0
9, 12000, Note_on_c, 7, 56, 100
9, 12240, Note_on_c, 7, 56, 0
9, 12240, Note_on_c, 7, 55, 100
9, 12360, Note_on_c, 7, 55, 0
9, 12360, Note_on_c, 7, 53, 100
9, 12480, Note_on_c, 7, 53, 0
9, 12480, Note_on_c, 7, 51, 100
9, 12540, Note_on_c, 7, 51, 0
9, 12540, Note_on_c, 7, 55, 100
9, 12600, Note_on_c, 7, 55, 0
9, 12600, Note_on_c, 7, 58, 100
9, 12660, Note_on_c, 7, 58, 0
9, 12660, Note_on_c, 7, 55, 100
9, 12720, Note_on_c, 7, 55, 0
9, 12720, Note_on_c, 7, 51, 100
9, 12780, Note_on_c, 7, 51, 0
9, 12780, Note_on_c, 7, 51, 100
9, 12840, Note_on_c, 7, 51, 0
9, 12840, Note_on_c, 7, 51, 100
9, 12900, Note_on_c, 7, 51, 0
9, 12900, Note_on_c, 7, 51, 100
9, 12960, Note_on_c, 7, 51, 0
9, 12960, Note_on_c, 7, 50, 100
9, 13020, Note_on_c, 7, 50, 0
9, 13020, Note_on_c, 7, 53, 100
9, 13080, Note_on_c, 7, 53, 0
9, 13080, Note_on_c, 7, 58, 100
9, 13140, Note_on_c, 7, 58, 0
9, 13140, Note_on_c, 7, 53, 100
9, 13200, Note_on_c, 7, 53, 0
9, 13200, Note_on_c, 7, 50, 100
9, 13260, Note_on_c, 7, 50, 0
9, 13260, Note_on_c, 7, 51, 100
9, 13320, Note_on_c, 7, 51, 0
9, 13320, Note_on_c, 7, 50, 100
9, 13380, Note_on_c, 7, 50, 0
9, 13380, Note_on_c, 7, 50, 100
9, 13440, Note_on_c, 7, 50, 0
9, 13440, Note_on_c, 7, 48, 100
9, 13500, Note_on_c, 7, 48, 0
9, 13500, Note_on_c, 7, 51, 100
9, 13560, Note_on_c, 7, 51, 0
9, 13560, Note_on_c, 7, 55, 100
9, 13620, Note_on_c, 7, 55, 0
9, 13620, Note_on_c, 7, 51, 100
9, 13680, Note_on_c, 7, 51, 0
9, 13680, Note_on_c, 7, 48, 100
9, 13740, Note_on_c, 7, 48, 0
9, 13740, Note_on_c, 7, 48, 100
9, 13800, Note_on_c, 7, 48, 0
9, 13800, Note_on_c, 7, 60, 100
9, 13860, Note_on_c, 7, 60, 0
9, 13860, Note_on_c, 7, 62, 100
9, 13920, Note_on_c, 7, 62, 0
9, 13920, Note_on_c, 7, 58, 100
9, 13980, Note_on_c, 7, 58, 0
9, 13980, Note_on_c, 7, 58, 100
9, 14100, Note_on_c, 7, 58, 0
9, 14100, Note_on_c, 7, 58, 100
9, 14160, Note_on_c, 7, 58, 0
9, 14160, Note_on_c, 7, 68, 100
9, 14220, Note_on_c, 7, 68, 0
9, 14220, Note_on_c, 7, 68, 100
9, 14340, Note_on_c, 7, 68, 0
9, 14340, Note_on_c, 7, 68, 100
9, 14400, Note_on_c, 7, 68, 0
9, 14400, Note_on_c, 7, 67, 100
9, 14460, Note_on_c, 7, 67, 0
9, 14460, Note_on_c, 7, 67, 100
9, 14580, Note_on_c, 7, 67, 0
9, 14580, Note_on_c, 7, 67, 100
9, 14700, Note_on_c, 7, 67, 0
9, 14700, Note_on_c, 7, 67, 100
9, 14820, Note_on_c, 7, 67, 0
9, 14820, Note_on_c, 7, 67, 100
9, 14880, Note_on_c, 7, 67, 0
9, 14880, Note_on_c, 7, 62, 100
9, 14910, Note_on_c, 7, 62, 0
9, 14910, Note_on_c, 7, 62, 100
9, 14940, Note_on_c, 7, 62, 0
9, 14940, Note_on_c, 7, 62, 100
9, 14970, Note_on_c, 7, 62, 0
9, 14970, Note_on_c, 7, 62, 100
9, 15000, Note_on_c, 7, 62, 0
9, 15000, Note_on_c, 7, 62, 100
9, 15030, Note_on_c, 7, 62, 0
9, 15030, Note_on_c, 7, 62, 100
9, 15060, Note_on_c, 7, 62, 0
9, 15060, Note_on_c, 7, 62, 100
9, 15090, Note_on_c, 7, 62, 0
9, 15090, Note_on_c, 7, 62, 100
9, 15120, Note_on_c, 7, 62, 0
9, 15120, Note_on_c, 7, 65, 100
9, 15150, Note_on_c, 7, 65, 0
9, 15150, Note_on_c, 7, 65, 100
9, 15180, Note_on_c, 7, 65, 0
9, 15180, Note_on_c, 7, 65, 100
9, 15210, Note_on_c, 7, 65, 0
9, 15210, Note_on_c, 7, 65, 100
9, 15240, Note_on_c, 7, 65, 0
9, 15240, Note_on_c, 7, 65, 100
9, 15270, Note_on_c, 7, 65, 0
9, 15270, Note_on_c, 7, 65, 100
9, 15300, Note_on_c, 7, 65, 0
9, 15300, Note_on_c, 7, 65, 100
9, 15330, Note_on_c, 7, 65, 0
9, 15330, Note_on_c, 7, 65, 100
9, 15360, Note_on_c, 7, 65, 0
9, 15360, Note_on_c, 7, 63, 100
9, 15390, Note_on_c, 7, 63, 0
9, 15390, Note_on_c, 7, 63, 100
9, 15420, Note_on_c, 7, 63, 0
9, 15420, Note_on_c, 7, 63, 100
9, 15450, Note_on_c, 7, 63, 0
9, 15450, Note_on_c, 7, 63, 100
9, 15480, Note_on_c, 7, 63, 0
9, 15480, Note_on_c, 7, 63, 100
9, 15510, Note_on_c, 7, 63, 0
9, 15510, Note_on_c, 7, 63, 100
9, 15540, Note_on_c, 7, 63, 0
9, 15540, Note_on_c, 7, 63, 100
9, 15570, Note_on_c, 7, 63, 0
9, 15570, Note_on_c, 7, 63, 100
9, 15600, Note_on_c, 7, 63, 0
9, 15600, Note_on_c, 7, 63, 100
9, 15630, Note_on_c, 7, 63, 0
9, 15630, Note_on_c, 7, 63, 100
9, 15660, Note_on_c, 7, 63, 0
9, 15660, Note_on_c, 7, 63, 100
9, 15690, Note_on_c, 7, 63, 0
9, 15690, Note_on_c, 7, 63, 100
9, 15720, Note_on_c, 7, 63, 0
9, 15720, Note_on_c, 7, 63, 100
9, 15750, Note_on_c, 7, 63, 0
9, 15750, Note_on_c, 7, 63, 100
9, 15780, Note_on_c, 7, 63, 0
9, 15780, Note_on_c, 7, 63, 100
9, 15810, Note_on_c, 7, 63, 0
9, 15810, Note_on_c, 7, 63, 100
9, 15840, Note_on_c, 7, 63, 0
9, 15840, Note_on_c, 7, 62, 100
9, 15960, Note_on_c, 7, 62, 0
9, 15960, Note_on_c, 7, 63, 100
9, 16050, Note_on_c, 7, 63, 0
9, 16050, Note_on_c, 7, 63, 100
9, 16080, Note_on_c, 7, 63, 0
9, 16080, Note_on_c, 7, 62, 100
9, 16200, Note_on_c, 7, 62, 0
9, 16200, Note_on_c, 7, 63, 100
9, 16290, Note_on_c, 7, 63, 0
9, 16290, Note_on_c, 7, 63, 100
9, 16320, Note_on_c, 7, 63, 0
9, 16320, Note_on_c, 7, 62, 100
9, 16440, Note_on_c, 7, 62, 0
9, 16530, Note_on_c, 7, 58, 100
9, 16560, Note_on_c, 7, 58, 0
9, 16560, Note_on_c, 7, 58, 100
9, 16680, Note_on_c, 7, 58, 0
9, 16680, Note_on_c, 7, 58, 100
9, 16800, Note_on_c, 7, 58, 0
9, 16800, Note_on_c, 7, 58, 100
9, 16920, Note_on_c, 7, 58, 0
9, 17760, Note_on_c, 7, 55, 100
9, 17820, Note_on_c, 7, 55, 0
9, 17820, Note_on_c, 7, 58, 100
9, 17880, Note_on_c, 7, 58, 0
9, 17880, Note_on_c, 7, 55, 100
9, 17940, Note_on_c, 7, 55, 0
9, 17940, Note_on_c, 7, 58, 100
9, 18000, Note_on_c, 7, 58, 0
9, 18000, Note_on_c, 7, 55, 100
9, 18060, Note_on_c, 7, 55, 0
9, 18060, Note_on_c, 7, 58, 100
9, 18120, Note_on_c, 7, 58, 0
9, 18120, Note_on_c, 7, 55, 100
9, 18180, Note_on_c, 7, 55, 0
9, 18180, Note_on_c, 7, 58, 100
9, 18240, Note_on_c, 7, 58, 0
9, 18240, Note_on_c, 7, 55, 100
9, 18300, Note_on_c, 7, 55, 0
9, 18300, Note_on_c, 7, 58, 100
9, 18360, Note_on_c, 7, 58, 0
9, 18360, Note_on_c, 7, 55, 100
9, 18420, Note_on_c, 7, 55, 0
9, 18420, Note_on_c, 7, 58, 100
9, 18480, Note_on_c, 7, 58, 0
9, 18480, Note_on_c, 7, 55, 100
9, 18540, Note_on_c, 7, 55, 0
9, 18540, Note_on_c, 7, 58, 100
9, 18600, Note_on_c, 7, 58, 0
9, 18600, Note_on_c, 7, 55, 100
9, 18660, Note_on_c, 7, 55, 0
9, 18660, Note_on_c, 7, 58, 100
9, 18720, Note_on_c, 7, 58, 0
9, 18720, Note_on_c, 7, 56, 100
9, 18780, Note_on_c, 7, 56, 0
9, 18780, Note_on_c, 7, 58, 100
9, 18840, Note_on_c, 7, 58, 0
9, 18840, Note_on_c, 7, 56, 100
9, 18900, Note_on_c, 7, 56, 0
9, 18900, Note_on_c, 7, 58, 100
9, 18960, Note_on_c, 7, 58, 0
9, 18960, Note_on_c, 7, 55, 100
9, 19020, Note_on_c, 7, 55, 0
9, 19020, Note_on_c, 7, 58, 100
9, 19080, Note_on_c, 7, 58, 0
9, 19080, Note_on_c, 7, 55, 100
9, 19140, Note_on_c, 7, 55, 0
9, 19140, Note_on_c, 7, 58, 100
9, 19200, Note_on_c, 7, 58, 0
9, 19200, Note_on_c, 7, 53, 100
9, 19260, Note_on_c, 7, 53, 0
9, 19260, Note_on_c, 7, 58, 100
9, 19320, Note_on_c, 7, 58, 0
9, 19320, Note_on_c, 7, 53, 100
9, 19380, Note_on_c, 7, 53, 0
9, 19380, Note_on_c, 7, 58, 100
9, 19440, Note_on_c, 7, 58, 0
9, 19440, Note_on_c, 7, 53, 100
9, 19500, Note_on_c, 7, 53, 0
9, 19500, Note_on_c, 7, 58, 100
9, 19560, Note_on_c, 7, 58, 0
9, 19560, Note_on_c, 7, 53, 100
9, 19620, Note_on_c, 7, 53, 0
9, 19620, Note_on_c, 7, 58, 100
9, 19680, Note_on_c, 7, 58, 0
9, 19680, Note_on_c, 7, 55, 100
9, 19740, Note_on_c, 7, 55, 0
9, 19740, Note_on_c, 7, 58, 100
9, 19800, Note_on_c, 7, 58, 0
9, 19800, Note_on_c, 7, 55, 100
9, 19860, Note_on_c, 7, 55, 0
9, 19860, Note_on_c, 7, 58, 100
9, 19920, Note_on_c, 7, 58, 0
9, 19920, Note_on_c, 7, 55, 100
9, 19980, Note_on_c, 7, 55, 0
9, 19980, Note_on_c, 7, 58, 100
9, 20040, Note_on_c, 7, 58, 0
9, 20040, Note_on_c, 7, 55, 100
9, 20100, Note_on_c, 7, 55, 0
9, 20100, Note_on_c, 7, 58, 100
9, 20160, Note_on_c, 7, 58, 0
9, 20160, Note_on_c, 7, 55, 100
9, 20220, Note_on_c, 7, 55, 0
9, 20220, Note_on_c, 7, 58, 100
9, 20280, Note_on_c, 7, 58, 0
9, 20280, Note_on_c, 7, 55, 100
9, 20340, Note_on_c, 7, 55, 0
9, 20340, Note_on_c, 7, 58, 100
9, 20400, Note_on_c, 7, 58, 0
9, 20400, Note_on_c, 7, 55, 100
9, 20460, Note_on_c, 7, 55, 0
9, 20460, Note_on_c, 7, 58, 100
9, 20520, Note_on_c, 7, 58, 0
9, 20520, Note_on_c, 7, 55, 100
9, 20580, Note_on_c, 7, 55, 0
9, 20580, Note_on_c, 7, 58, 100
9, 20640, Note_on_c, 7, 58, 0
9, 20640, Note_on_c, 7, 56, 100
9, 20700, Note_on_c, 7, 56, 0
9, 20700, Note_on_c, 7, 58, 100
9, 20760, Note_on_c, 7, 58, 0
9, 20760, Note_on_c, 7, 56, 100
9, 20820, Note_on_c, 7, 56, 0
9, 20820, Note_on_c, 7, 58, 100
9, 20880, Note_on_c, 7, 58, 0
9, 20880, Note_on_c, 7, 55, 100
9, 20940, Note_on_c, 7, 55, 0
9, 20940, Note_on_c, 7, 58, 100
9, 21000, Note_on_c, 7, 58, 0
9, 21000, Note_on_c, 7, 55, 100
9, 21060, Note_on_c, 7, 55, 0
9, 21060, Note_on_c, 7, 58, 100
9, 21120, Note_on_c, 7, 58, 0
9, 21120, Note_on_c, 7, 53, 100
9, 21180, Note_on_c, 7, 53, 0
9, 21180, Note_on_c, 7, 58, 100
9, 21240, Note_on_c, 7, 58, 0
9, 21240, Note_on_c, 7, 53, 100
9, 21300, Note_on_c, 7, 53, 0
9, 21300, Note_on_c, 7, 58, 100
9, 21360, Note_on_c, 7, 58, 0
9, 21360, Note_on_c, 7, 53, 100
9, 21420, Note_on_c, 7, 53, 0
9, 21420, Note_on_c, 7, 58, 100
9, 21480, Note_on_c, 7, 58, 0
9, 21480, Note_on_c, 7, 53, 100
9, 21540, Note_on_c, 7, 53, 0
9, 21540, Note_on_c, 7, 58, 100
9, 21600, Note_on_c, 7, 58, 0
9, 21600, Note_on_c, 7, 55, 100
9, 21630, Note_on_c, 7, 55, 0
9, 21630, Note_on_c, 7, 55, 100
9, 21660, Note_on_c, 7, 55, 0
9, 21660, Note_on_c, 7, 55, 100
9, 21690, Note_on_c, 7, 55, 0
9, 21690, Note_on_c, 7, 55, 100
9, 21720, Note_on_c, 7, 55, 0
9, 21720, Note_on_c, 7, 55, 100
9, 21750, Note_on_c, 7, 55, 0
9, 21750, Note_on_c, 7, 55, 100
9, 21780, Note_on_c, 7, 55, 0
9, 21780, Note_on_c, 7, 55, 100
9, 21810, Note_on_c, 7, 55, 0
9, 21810, Note_on_c, 7, 55, 100
9, 21840, Note_on_c, 7, 55, 0
9, 21840, Note_on_c, 7, 55, 100
9, 21870, Note_on_c, 7, 55, 0
9, 21870, Note_on_c, 7, 55, 100
9, 21900, Note_on_c, 7, 55, 0
9, 21900, Note_on_c, 7, 55, 100
9, 21930, Note_on_c, 7, 55, 0
9, 21930, Note_on_c, 7, 55, 100
9, 21960, Note_on_c, 7, 55, 0
9, 21960, Note_on_c, 7, 55, 100
9, 21990, Note_on_c, 7, 55, 0
9, 21990, Note_on_c, 7, 55, 100
9, 22020, Note_on_c, 7, 55, 0
9, 22020, Note_on_c, 7, 55, 100
9, 22050, Note_on_c, 7, 55, 0
9, 22050, Note_on_c, 7, 55, 100
9, 22080, Note_on_c, 7, 55, 0
9, 22080, Note_on_c, 7, 56, 100
9, 22110, Note_on_c, 7, 56, 0
9, 22110, Note_on_c, 7, 56, 100
9, 22140, Note_on_c, 7, 56, 0
9, 22140, Note_on_c, 7, 56, 100
9, 22170, Note_on_c, 7, 56, 0
9, 22170, Note_on_c, 7, 56, 100
9, 22200, Note_on_c, 7, 56, 0
9, 22200, Note_on_c, 7, 56, 100
9, 22230, Note_on_c, 7, 56, 0
9, 22230, Note_on_c, 7, 56, 100
9, 22260, Note_on_c, 7, 56, 0
9, 22260, Note_on_c, 7, 56, 100
9, 22290, Note_on_c, 7, 56, 0
9, 22290, Note_on_c, 7, 56, 100
9, 22320, Note_on_c, 7, 56, 0
9, 22320, Note_on_c, 7, 57, 100
9, 22350, Note_on_c, 7, 57, 0
9, 22350, Note_on_c, 7, 57, 100
9, 22380, Note_on_c, 7, 57, 0
9, 22380, Note_on_c, 7, 57, 100
9, 22410, Note_on_c, 7, 57, 0
9, 22410, Note_on_c, 7, 57, 100
9, 22440, Note_on_c, 7, 57, 0
9, 22440, Note_on_c, 7, 57, 100
9, 22470, Note_on_c, 7, 57, 0
9, 22470, Note_on_c, 7, 57, 100
9, 22500, Note_on_c, 7, 57, 0
9, 22500, Note_on_c, 7, 57, 100
9, 22530, Note_on_c, 7, 57, 0
9, 22530, Note_on_c, 7, 57, 100
9, 22560, Note_on_c, 7, 57, 0
9, 22560, Note_on_c, 7, 58, 100
9, 22590, Note_on_c, 7, 58, 0
9, 22590, Note_on_c, 7, 58, 100
9, 22620, Note_on_c, 7, 58, 0
9, 22620, Note_on_c, 7, 58, 100
9, 22650, Note_on_c, 7, 58, 0
9, 22650, Note_on_c, 7, 58, 100
9, 22680, Note_on_c, 7, 58, 0
9, 22680, Note_on_c, 7, 58, 100
9, 22710, Note_on_c, 7, 58, 0
9, 22710, Note_on_c, 7, 58, 100
9, 22740, Note_on_c, 7, 58, 0
9, 22740, Note_on_c, 7, 58, 100
9, 22770, Note_on_c, 7, 58, 0
9, 22770, Note_on_c, 7, 58, 100
9, 22800, Note_on_c, 7, 58, 0
9, 22800, Note_on_c, 7, 59, 100
9, 22830, Note_on_c, 7, 59, 0
9, 22830, Note_on_c, 7, 59, 100
9, 22860, Note_on_c, 7, 59, 0
9, 22860, Note_on_c, 7, 59, 100
9, 22890, Note_on_c, 7, 59, 0
9, 22890, Note_on_c, 7, 59, 100
9, 22920, Note_on_c, 7, 59, 0
9, 22920, Note_on_c, 7, 59, 100
9, 22950, Note_on_c, 7, 59, 0
9, 22950, Note_on_c, 7, 59, 100
9, 22980, Note_on_c, 7, 59, 0
9, 22980, Note_on_c, 7, 59, 100
9, 23010, Note_on_c, 7, 59, 0
9, 23010, Note_on_c, 7, 59, 100
9, 23040, Note_on_c, 7, 59, 0
9, 23040, Note_on_c, 7, 60, 100
9, 23070, Note_on_c, 7, 60, 0
9, 23070, Note_on_c, 7, 60, 100
9, 23100, Note_on_c, 7, 60, 0
9, 23100, Note_on_c, 7, 60, 100
9, 23130, Note_on_c, 7, 60, 0
9, 23130, Note_on_c, 7, 60, 100
9, 23160, Note_on_c, 7, 60, 0
9, 23160, Note_on_c, 7, 60, 100
9, 23190, Note_on_c, 7, 60, 0
9, 23190, Note_on_c, 7, 60, 100
9, 23220, Note_on_c, 7, 60, 0
9, 23220, Note_on_c, 7, 60, 100
9, 23250, Note_on_c, 7, 60, 0
9, 23250, Note_on_c, 7, 60, 100
9, 23280, Note_on_c, 7, 60, 0
9, 23280, Note_on_c, 7, 54, 100
9, 23310, Note_on_c, 7, 54, 0
9, 23310, Note_on_c, 7, 54, 100
9, 23340, Note_on_c, 7, 54, 0
9, 23340, Note_on_c, 7, 54, 100
9, 23370, Note_on_c, 7, 54, 0
9, 23370, Note_on_c, 7, 54, 100
9, 23400, Note_on_c, 7, 54, 0
9, 23400, Note_on_c, 7, 54, 100
9, 23430, Note_on_c, 7, 54, 0
9, 23430, Note_on_c, 7, 54, 100
9, 23460, Note_on_c, 7, 54, 0
9, 23460, Note_on_c, 7, 54, 100
9, 23490, Note_on_c, 7, 54, 0
9, 23490, Note_on_c, 7, 54, 100
9, 23520, Note_on_c, 7, 54, 0
9, 23520, Note_on_c, 7, 55, 100
9, 23550, Note_on_c, 7, 55, 0
9, 23550, Note_on_c, 7, 55, 100
9, 23580, Note_on_c, 7, 55, 0
9, 23580, Note_on_c, 7, 55, 100
9, 23610, Note_on_c, 7, 55, 0
9, 23610, Note_on_c, 7, 55, 100
9, 23640, Note_on_c, 7, 55, 0
9, 23640, Note_on_c, 7, 55, 100
9, 23670, Note_on_c, 7, 55, 0
9, 23670, Note_on_c, 7, 55, 100
9, 23700, Note_on_c, 7, 55, 0
9, 23700, Note_on_c, 7, 55, 100
9, 23730, Note_on_c, 7, 55, 0
9, 23730, Note_on_c, 7, 55, 100
9, 23760, Note_on_c, 7, 55, 0
9, 23760, Note_on_c, 7, 55, 100
9, 23790, Note_on_c, 7, 55, 0
9, 23790, Note_on_c, 7, 55, 100
9, 23820, Note_on_c, 7, 55, 0
9, 23820, Note_on_c, 7, 55, 100
9, 23850, Note_on_c, 7, 55, 0
9, 23850, Note_on_c, 7, 55, 100
9, 23880, Note_on_c, 7, 55, 0
9, 23880, Note_on_c, 7, 55, 100
9, 23910, Note_on_c, 7, 55, 0
9, 23910, Note_on_c, 7, 55, 100
9, 23940, Note_on_c, 7, 55, 0
9, 23940, Note_on_c, 7, 55, 100
9, 23970, Note_on_c, 7, 55, 0
9, 23970, Note_on_c, 7, 55, 100
9, 24000, Note_on_c, 7, 55, 0
9, 24000, Note_on_c, 7, 56, 100
9, 24030, Note_on_c, 7, 56, 0
9, 24030, Note_on_c, 7, 56, 100
9, 24060, Note_on_c, 7, 56, 0
9, 24060, Note_on_c, 7, 56, 100
9, 24090, Note_on_c, 7, 56, 0
9, 24090, Note_on_c, 7, 56, 100
9, 24120, Note_on_c, 7, 56, 0
9, 24120, Note_on_c, 7, 56, 100
9, 24150, Note_on_c, 7, 56, 0
9, 24150, Note_on_c, 7, 56, 100
9, 24180, Note_on_c, 7, 56, 0
9, 24180, Note_on_c, 7, 56, 100
9, 24210, Note_on_c, 7, 56, 0
9, 24210, Note_on_c, 7, 56, 100
9, 24240, Note_on_c, 7, 56, 0
9, 24240, Note_on_c, 7, 53, 100
9, 24270, Note_on_c, 7, 53, 0
9, 24270, Note_on_c, 7, 53, 100
9, 24300, Note_on_c, 7, 53, 0
9, 24300, Note_on_c, 7, 53, 100
9, 24330, Note_on_c, 7, 53, 0
9, 24330, Note_on_c, 7, 53, 100
9, 24360, Note_on_c, 7, 53, 0
9, 24360, Note_on_c, 7, 53, 100
9, 24390, Note_on_c, 7, 53, 0
9, 24390, Note_on_c, 7, 53, 100
9, 24420, Note_on_c, 7, 53, 0
9, 24420, Note_on_c, 7, 53, 100
9, 24450, Note_on_c, 7, 53, 0
9, 24450, Note_on_c, 7, 53, 100
9, 24480, Note_on_c, 7, 53, 0
9, 24480, Note_on_c, 7, 51, 100
9, 24510, Note_on_c, 7, 51, 0
9, 24510, Note_on_c, 7, 51, 100
9, 24540, Note_on_c, 7, 51, 0
9, 24540, Note_on_c, 7, 51, 100
9, 24570, Note_on_c, 7, 51, 0
9, 24570, Note_on_c, 7, 51, 100
9, 24600, Note_on_c, 7, 51, 0
9, 24600, Note_on_c, 7, 51, 100
9, 24630, Note_on_c, 7, 51, 0
9, 24630, Note_on_c, 7, 51, 100
9, 24660, Note_on_c, 7, 51, 0
9, 24660, Note_on_c, 7, 51, 100
9, 24690, Note_on_c, 7, 51, 0
9, 24690, Note_on_c, 7, 51, 100
9, 24720, Note_on_c, 7, 51, 0
9, 24720, Note_on_c, 7, 55, 100
9, 24750, Note_on_c, 7, 55, 0
9, 24750, Note_on_c, 7, 55, 100
9, 24780, Note_on_c, 7, 55, 0
9, 24780, Note_on_c, 7, 55, 100
9, 24810, Note_on_c, 7, 55, 0
9, 24810, Note_on_c, 7, 55, 100
9, 24840, Note_on_c, 7, 55, 0
9, 24840, Note_on_c, 7, 55, 100
9, 24870, Note_on_c, 7, 55, 0
9, 24870, Note_on_c, 7, 55, 100
9, 24900, Note_on_c, 7, 55, 0
9, 24900, Note_on_c, 7, 55, 100
9, 24930, Note_on_c, 7, 55, 0
9, 24930, Note_on_c, 7, 55, 100
9, 24960, Note_on_c, 7, 55, 0
9, 24960, Note_on_c, 7, 53, 100
9, 24990, Note_on_c, 7, 53, 0
9, 24990, Note_on_c, 7, 53, 100
9, 25020, Note_on_c, 7, 53, 0
9, 25020, Note_on_c, 7, 53, 100
9, 25050, Note_on_c, 7, 53, 0
9, 25050, Note_on_c, 7, 53, 100
9, 25080, Note_on_c, 7, 53, 0
9, 25080, Note_on_c, 7, 53, 100
9, 25110, Note_on_c, 7, 53, 0
9, 25110, Note_on_c, 7, 53, 100
9, 25140, Note_on_c, 7, 53, 0
9, 25140, Note_on_c, 7, 53, 100
9, 25170, Note_on_c, 7, 53, 0
9, 25170, Note_on_c, 7, 53, 100
9, 25200, Note_on_c, 7, 53, 0
9, 25200, Note_on_c, 7, 57, 100
9, 25230, Note_on_c, 7, 57, 0
9, 25230, Note_on_c, 7, 57, 100
9, 25260, Note_on_c, 7, 57, 0
9, 25260, Note_on_c, 7, 57, 100
9, 25290, Note_on_c, 7, 57, 0
9, 25290, Note_on_c, 7, 57, 100
9, 25320, Note_on_c, 7, 57, 0
9, 25320, Note_on_c, 7, 57, 100
9, 25350, Note_on_c, 7, 57, 0
9, 25350, Note_on_c, 7, 57, 100
9, 25380, Note_on_c, 7, 57, 0
9, 25380, Note_on_c, 7, 57, 100
9, 25410, Note_on_c, 7, 57, 0
9, 25410, Note_on_c, 7, 57, 100
9, 25440, Note_on_c, 7, 57, 0
9, 25440, Note_on_c, 7, 55, 100
9, 25470, Note_on_c, 7, 55, 0
9, 25470, Note_on_c, 7, 55, 100
9, 25500, Note_on_c, 7, 55, 0
9, 25500, Note_on_c, 7, 55, 100
9, 25530, Note_on_c, 7, 55, 0
9, 25530, Note_on_c, 7, 55, 100
9, 25560, Note_on_c, 7, 55, 0
9, 25560, Note_on_c, 7, 55, 100
9, 25590, Note_on_c, 7, 55, 0
9, 25590, Note_on_c, 7, 55, 100
9, 25620, Note_on_c, 7, 55, 0
9, 25620, Note_on_c, 7, 55, 100
9, 25650, Note_on_c, 7, 55, 0
9, 25650, Note_on_c, 7, 55, 100
9, 25680, Note_on_c, 7, 55, 0
9, 25680, Note_on_c, 7, 55, 100
9, 25710, Note_on_c, 7, 55, 0
9, 25710, Note_on_c, 7, 55, 100
9, 25740, Note_on_c, 7, 55, 0
9, 25740, Note_on_c, 7, 55, 100
9, 25770, Note_on_c, 7, 55, 0
9, 25770, Note_on_c, 7, 55, 100
9, 25800, Note_on_c, 7, 55, 0
9, 25800, Note_on_c, 7, 55, 100
9, 25830, Note_on_c, 7, 55, 0
9, 25830, Note_on_c, 7, 55, 100
9, 25860, Note_on_c, 7, 55, 0
9, 25860, Note_on_c, 7, 55, 100
9, 25890, Note_on_c, 7, 55, 0
9, 25890, Note_on_c, 7, 55, 100
9, 25920, Note_on_c, 7, 55, 0
9, 25920, Note_on_c, 7, 56, 100
9, 25950, Note_on_c, 7, 56, 0
9, 25950, Note_on_c, 7, 56, 100
9, 25980, Note_on_c, 7, 56, 0
9, 25980, Note_on_c, 7, 56, 100
9, 26010, Note_on_c, 7, 56, 0
9, 26010, Note_on_c, 7, 56, 100
9, 26040, Note_on_c, 7, 56, 0
9, 26040, Note_on_c, 7, 56, 100
9, 26070, Note_on_c, 7, 56, 0
9, 26070, Note_on_c, 7, 56, 100
9, 26100, Note_on_c, 7, 56, 0
9, 26100, Note_on_c, 7, 56, 100
9, 26130, Note_on_c, 7, 56, 0
9, 26130, Note_on_c, 7, 56, 100
9, 26160, Note_on_c, 7, 56, 0
9, 26160, Note_on_c, 7, 57, 100
9, 26190, Note_on_c, 7, 57, 0
9, 26190, Note_on_c, 7, 57, 100
9, 26220, Note_on_c, 7, 57, 0
9, 26220, Note_on_c, 7, 57, 100
9, 26250, Note_on_c, 7, 57, 0
9, 26250, Note_on_c, 7, 57, 100
9, 26280, Note_on_c, 7, 57, 0
9, 26280, Note_on_c, 7, 57, 100
9, 26310, Note_on_c, 7, 57, 0
9, 26310, Note_on_c, 7, 57, 100
9, 26340, Note_on_c, 7, 57, 0
9, 26340, Note_on_c, 7, 57, 100
9, 26370, Note_on_c, 7, 57, 0
9, 26370, Note_on_c, 7, 57, 100
9, 26400, Note_on_c, 7, 57, 0
9, 26400, Note_on_c, 7, 58, 100
9, 26430, Note_on_c, 7, 58, 0
9, 26430, Note_on_c, 7, 58, 100
9, 26460, Note_on_c, 7, 58, 0
9, 26460, Note_on_c, 7, 58, 100
9, 26490, Note_on_c, 7, 58, 0
9, 26490, Note_on_c, 7, 58, 100
9, 26520, Note_on_c, 7, 58, 0
9, 26520, Note_on_c, 7, 58, 100
9, 26550, Note_on_c, 7, 58, 0
9, 26550, Note_on_c, 7, 58, 100
9, 26580, Note_on_c, 7, 58, 0
9, 26580, Note_on_c, 7, 58, 100
9, 26610, Note_on_c, 7, 58, 0
9, 26610, Note_on_c, 7, 58, 100
9, 26640, Note_on_c, 7, 58, 0
9, 26640, Note_on_c, 7, 59, 100
9, 26670, Note_on_c, 7, 59, 0
9, 26670, Note_on_c, 7, 59, 100
9, 26700, Note_on_c, 7, 59, 0
9, 26700, Note_on_c, 7, 59, 100
9, 26730, Note_on_c, 7, 59, 0
9, 26730, Note_on_c, 7, 59, 100
9, 26760, Note_on_c, 7, 59, 0
9, 26760, Note_on_c, 7, 59, 100
9, 26790, Note_on_c, 7, 59, 0
9, 26790, Note_on_c, 7, 59, 100
9, 26820, Note_on_c, 7, 59, 0
9, 26820, Note_on_c, 7, 59, 100
9, 26850, Note_on_c, 7, 59, 0
9, 26850, Note_on_c, 7, 59, 100
9, 26880, Note_on_c, 7, 59, 0
9, 26880, Note_on_c, 7, 60, 100
9, 26910, Note_on_c, 7, 60, 0
9, 26910, Note_on_c, 7, 60, 100
9, 26940, Note_on_c, 7, 60, 0
9, 26940, Note_on_c, 7, 60, 100
9, 26970, Note_on_c, 7, 60, 0
9, 26970, Note_on_c, 7, 60, 100
9, 27000, Note_on_c, 7, 60, 0
9, 27000, Note_on_c, 7, 60, 100
9, 27030, Note_on_c, 7, 60, 0
9, 27030, Note_on_c, 7, 60, 100
9, 27060, Note_on_c, 7, 60, 0
9, 27060, Note_on_c, 7, 60, 100
9, 27090, Note_on_c, 7, 60, 0
9, 27090, Note_on_c, 7, 60, 100
9, 27120, Note_on_c, 7, 60, 0
9, 27120, Note_on_c, 7, 68, 100
9, 27150, Note_on_c, 7, 68, 0
9, 27150, Note_on_c, 7, 68, 100
9, 27180, Note_on_c, 7, 68, 0
9, 27180, Note_on_c, 7, 68, 100
9, 27210, Note_on_c, 7, 68, 0
9, 27210, Note_on_c, 7, 68, 100
9, 27240, Note_on_c, 7, 68, 0
9, 27240, Note_on_c, 7, 68, 100
9, 27270, Note_on_c, 7, 68, 0
9, 27270, Note_on_c, 7, 68, 100
9, 27300, Note_on_c, 7, 68, 0
9, 27300, Note_on_c, 7, 68, 100
9, 27330, Note_on_c, 7, 68, 0
9, 27330, Note_on_c, 7, 68, 100
9, 27360, Note_on_c, 7, 68, 0
9, 27360, Note_on_c, 7, 67, 100
9, 27600, Note_on_c, 7, 67, 0
9, 27600, Note_on_c, 7, 63, 100
9, 27780, Note_on_c, 7, 63, 0
9, 27780, Note_on_c, 7, 62, 100
9, 27810, Note_on_c, 7, 62, 0
9, 27810, Note_on_c, 7, 63, 100
9, 27840, Note_on_c, 7, 63, 0
9, 27840, Note_on_c, 7, 67, 100
9, 28080, Note_on_c, 7, 67, 0
9, 28080, Note_on_c, 7, 70, 100
9, 28320, Note_on_c, 7, 70, 0
9, 28320, Note_on_c, 7, 75, 100
9, 28560, Note_on_c, 7, 75, 0
9, 28560, Note_on_c, 7, 60, 100
9, 28740, Note_on_c, 7, 60, 0
9, 28740, Note_on_c, 7, 59, 100
9, 28770, Note_on_c, 7, 59, 0
9, 28770, Note_on_c, 7, 60, 100
9, 28800, Note_on_c, 7, 60, 0
9, 28800, Note_on_c, 7, 63, 100
9, 29040, Note_on_c, 7, 63, 0
9, 29040, Note_on_c, 7, 67, 100
9, 29280, Note_on_c, 7, 67, 0
9, 29280, Note_on_c, 7, 72, 100
9, 30000, Note_on_c, 7, 72, 0
9, 30000, Note_on_c, 7, 57, 100
9, 30240, Note_on_c, 7, 57, 0
9, 30240, Note_on_c, 7, 62, 100
9, 30480, Note_on_c, 7, 62, 0
9, 30480, Note_on_c, 7, 51, 100
9, 30720, Note_on_c, 7, 51, 0
9, 30720, Note_on_c, 7, 53, 100
9, 30960, Note_on_c, 7, 53, 0
9, 30960, Note_on_c, 7, 55, 100
9, 31080, Note_on_c, 7, 55, 0
9, 31080, Note_on_c, 7, 56, 100
9, 31200, Note_on_c, 7, 56, 0
9, 31200, Note_on_c, 7, 55, 100
9, 31320, Note_on_c, 7, 55, 0
9, 31680, Note_on_c, 7, 53, 100
9, 31680, Note_on_c, 7, 56, 100
9, 32160, Note_on_c, 7, 56, 0
9, 32160, Note_on_c, 7, 53, 0
9, 32160, Note_on_c, 7, 51, 100
9, 32160, Note_on_c, 7, 55, 100
9, 32280, Note_on_c, 7, 55, 0
9, 32280, Note_on_c, 7, 51, 0
9, 32640, Note_on_c, 7, 56, 100
9, 32640, Note_on_c, 7, 53, 100
9, 33120, Note_on_c, 7, 53, 0
9, 33120, Note_on_c, 7, 56, 0
9, 33120, Note_on_c, 7, 55, 100
9, 33180, Note_on_c, 7, 55, 0
9, 33180, Note_on_c, 7, 51, 100
9, 33240, Note_on_c, 7, 51, 0
9, 33240, Note_on_c, 7, 51, 100
9, 33300, Note_on_c, 7, 51, 0
9, 33300, Note_on_c, 7, 51, 100
9, 33360, Note_on_c, 7, 51, 0
9, 33360, Note_on_c, 7, 51, 100
9, 33420, Note_on_c, 7, 51, 0
9, 33420, Note_on_c, 7, 51, 100
9, 33480, Note_on_c, 7, 51, 0
9, 33480, Note_on_c, 7, 51, 100
9, 33540, Note_on_c, 7, 51, 0
9, 33540, Note_on_c, 7, 51, 100
9, 33600, Note_on_c, 7, 51, 0
9, 33600, Note_on_c, 7, 51, 100
9, 33660, Note_on_c, 7, 51, 0
9, 33660, Note_on_c, 7, 51, 100
9, 33720, Note_on_c, 7, 51, 0
9, 33720, Note_on_c, 7, 51, 100
9, 33780, Note_on_c, 7, 51, 0
9, 33780, Note_on_c, 7, 51, 100
9, 33840, Note_on_c, 7, 51, 0
9, 33840, Note_on_c, 7, 51, 100
9, 33900, Note_on_c, 7, 51, 0
9, 33900, Note_on_c, 7, 51, 100
9, 33960, Note_on_c, 7, 51, 0
9, 33960, Note_on_c, 7, 51, 100
9, 34020, Note_on_c, 7, 51, 0
9, 34020, Note_on_c, 7, 51, 100
9, 34080, Note_on_c, 7, 51, 0
9, 34080, Note_on_c, 7, 51, 100
9, 34140, Note_on_c, 7, 51, 0
9, 34140, Note_on_c, 7, 51, 100
9, 34200, Note_on_c, 7, 51, 0
9, 34200, Note_on_c, 7, 51, 100
9, 34260, Note_on_c, 7, 51, 0
9, 34260, Note_on_c, 7, 51, 100
9, 34320, Note_on_c, 7, 51, 0
9, 34320, Note_on_c, 7, 51, 100
9, 34380, Note_on_c, 7, 51, 0
9, 34380, Note_on_c, 7, 51, 100
9, 34440, Note_on_c, 7, 51, 0
9, 34440, Note_on_c, 7, 51, 100
9, 34500, Note_on_c, 7, 51, 0
9, 34500, Note_on_c, 7, 51, 100
9, 34560, Note_on_c, 7, 51, 0
9, 34560, Note_on_c, 7, 51, 100
9, 34620, Note_on_c, 7, 51, 0
9, 34620, Note_on_c, 7, 51, 100
9, 34680, Note_on_c, 7, 51, 0
9, 34680, Note_on_c, 7, 51, 100
9, 34740, Note_on_c, 7, 51, 0
9, 34740, Note_on_c, 7, 51, 100
9, 34800, Note_on_c, 7, 51, 0
9, 34800, Note_on_c, 7, 51, 100
9, 34860, Note_on_c, 7, 51, 0
9, 34860, Note_on_c, 7, 51, 100
9, 34920, Note_on_c, 7, 51, 0
9, 34920, Note_on_c, 7, 51, 100
9, 34980, Note_on_c, 7, 51, 0
9, 34980, Note_on_c, 7, 51, 100
9, 35040, Note_on_c, 7, 51, 0
9, 35040, Note_on_c, 7, 51, 100
9, 35160, Note_on_c, 7, 51, 0
9, 36960, Note_on_c, 7, 63, 100
9, 37200, Note_on_c, 7, 63, 0
9, 37200, Note_on_c, 7, 63, 100
9, 37380, Note_on_c, 7, 63, 0
9, 37380, Note_on_c, 7, 63, 100
9, 37440, Note_on_c, 7, 63, 0
9, 37440, Note_on_c, 7, 58, 100
9, 37920, Note_on_c, 7, 58, 0
9, 38880, Note_on_c, 7, 63, 100
9, 39120, Note_on_c, 7, 63, 0
9, 39120, Note_on_c, 7, 63, 100
9, 39300, Note_on_c, 7, 63, 0
9, 39300, Note_on_c, 7, 63, 100
9, 39360, Note_on_c, 7, 63, 0
9, 39360, Note_on_c, 7, 58, 100
9, 41880, Note_on_c, 7, 58, 0
9, 42840, Note_on_c, 7, 63, 100
9, 42900, Note_on_c, 7, 63, 0
9, 42900, Note_on_c, 7, 67, 100
9, 42960, Note_on_c, 7, 67, 0
9, 42960, Note_on_c, 7, 63, 100
9, 43020, Note_on_c, 7, 63, 0
9, 43020, Note_on_c, 7, 67, 100
9, 43080, Note_on_c, 7, 67, 0
9, 43080, Note_on_c, 7, 63, 100
9, 43140, Note_on_c, 7, 63, 0
9, 43140, Note_on_c, 7, 67, 100
9, 43200, Note_on_c, 7, 67, 0
9, 43200, Note_on_c, 7, 63, 100
9, 43320, Note_on_c, 7, 63, 0
9, 43320, Note_on_c, 7, 63, 100
9, 43380, Note_on_c, 7, 63, 0
9, 43380, Note_on_c, 7, 58, 100
9, 43440, Note_on_c, 7, 58, 0
9, 43440, Note_on_c, 7, 63, 100
9, 43500, Note_on_c, 7, 63, 0
9, 43500, Note_on_c, 7, 58, 100
9, 43560, Note_on_c, 7, 58, 0
9, 43560, Note_on_c, 7, 63, 100
9, 43620, Note_on_c, 7, 63, 0
9, 43620, Note_on_c, 7, 58, 100
9, 43680, Note_on_c, 7, 58, 0
9, 43680, Note_on_c, 7, 63, 100
9, 43800, Note_on_c, 7, 63, 0
9, 43920, Note_on_c, 7, 63, 100
9, 44160, Note_on_c, 7, 63, 0
9, 44160, Note_on_c, 7, 59, 100
9, 44400, Note_on_c, 7, 59, 0
9, 44400, Note_on_c, 7, 60, 100
9, 44640, Note_on_c, 7, 60, 0
9, 44640, Note_on_c, 7, 55, 100
9, 44760, Note_on_c, 7, 55, 0
9, 46140, Note_on_c, 7, 60, 100
9, 46200, Note_on_c, 7, 60, 0
9, 46200, Note_on_c, 7, 63, 100
9, 46260, Note_on_c, 7, 63, 0
9, 46260, Note_on_c, 7, 62, 100
9, 46320, Note_on_c, 7, 62, 0
9, 46320, Note_on_c, 7, 60, 100
9, 46380, Note_on_c, 7, 60, 0
9, 46380, Note_on_c, 7, 58, 100
9, 46440, Note_on_c, 7, 58, 0
9, 46440, Note_on_c, 7, 57, 100
9, 46500, Note_on_c, 7, 57, 0
9, 46500, Note_on_c, 7, 55, 100
9, 46560, Note_on_c, 7, 55, 0
9, 46560, Note_on_c, 7, 53, 100
9, 48120, Note_on_c, 7, 53, 0
9, 48480, Note_on_c, 7, 51, 100
9, 48600, Note_on_c, 7, 51, 0
9, 48720, Note_on_c, 7, 51, 100
9, 48840, Note_on_c, 7, 51, 0
9, 48960, Note_on_c, 7, 52, 100
9, 49440, Note_on_c, 7, 52, 0
9, 49560, Note_on_c, 7, 53, 100
9, 49680, Note_on_c, 7, 53, 0
9, 49680, Note_on_c, 7, 53, 100
9, 49800, Note_on_c, 7, 53, 0
9, 49800, Note_on_c, 7, 53, 100
9, 49920, Note_on_c, 7, 53, 0
9, 49920, Note_on_c, 7, 53, 100
9, 50040, Note_on_c, 7, 53, 0
9, 50040, Note_on_c, 7, 53, 100
9, 50100, Note_on_c, 7, 53, 0
9, 50100, Note_on_c, 7, 53, 100
9, 50160, Note_on_c, 7, 53, 0
9, 50160, Note_on_c, 7, 53, 100
9, 50220, Note_on_c, 7, 53, 0
9, 50220, Note_on_c, 7, 53, 100
9, 50280, Note_on_c, 7, 53, 0
9, 50280, Note_on_c, 7, 53, 100
9, 50340, Note_on_c, 7, 53, 0
9, 50340, Note_on_c, 7, 53, 100
9, 50400, Note_on_c, 7, 53, 0
9, 50400, Note_on_c, 7, 53, 100
9, 50520, Note_on_c, 7, 53, 0
9, 50520, Note_on_c, 7, 60, 100
9, 50640, Note_on_c, 7, 60, 0
9, 50640, Note_on_c, 7, 58, 100
9, 50760, Note_on_c, 7, 58, 0
9, 50760, Note_on_c, 7, 56, 100
9, 50880, Note_on_c, 7, 56, 0
9, 50880, Note_on_c, 7, 55, 100
9, 51000, Note_on_c, 7, 55, 0
9, 51360, Note_on_c, 7, 60, 100
9, 51960, Note_on_c, 7, 60, 0
9, 52320, Note_on_c, 7, 58, 100
9, 52920, Note_on_c, 7, 58, 0
9, 53280, Note_on_c, 7, 57, 100
9, 53760, Note_on_c, 7, 57, 0
9, 53760, Note_on_c, 7, 58, 100
9, 53880, Note_on_c, 7, 58, 0
9, 53880, Note_on_c, 7, 58, 100
9, 53940, Note_on_c, 7, 58, 0
9, 53940, Note_on_c, 7, 58, 100
9, 54000, Note_on_c, 7, 58, 0
9, 54000, Note_on_c, 7, 58, 100
9, 54060, Note_on_c, 7, 58, 0
9, 54060, Note_on_c, 7, 58, 100
9, 54120, Note_on_c, 7, 58, 0
9, 54120, Note_on_c, 7, 58, 100
9, 54180, Note_on_c, 7, 58, 0
9, 54180, Note_on_c, 7, 58, 100
9, 54240, Note_on_c, 7, 58, 0
9, 54240, Note_on_c, 7, 58, 100
9, 54360, Note_on_c, 7, 58, 0
9, 55200, Note_on_c, 7, 56, 100
9, 55320, Note_on_c, 7, 56, 0
9, 55320, Note_on_c, 7, 60, 100
9, 55440, Note_on_c, 7, 60, 0
9, 55440, Note_on_c, 7, 58, 100
9, 55560, Note_on_c, 7, 58, 0
9, 55560, Note_on_c, 7, 56, 100
9, 55680, Note_on_c, 7, 56, 0
9, 55680, Note_on_c, 7, 56, 100
9, 56160, Note_on_c, 7, 56, 0
9, 56160, Note_on_c, 7, 55, 100
9, 56280, Note_on_c, 7, 55, 0
9, 56280, Note_on_c, 7, 58, 100
9, 56400, Note_on_c, 7, 58, 0
9, 56400, Note_on_c, 7, 56, 100
9, 56520, Note_on_c, 7, 56, 0
9, 56520, Note_on_c, 7, 55, 100
9, 56640, Note_on_c, 7, 55, 0
9, 56640, Note_on_c, 7, 55, 100
9, 57120, Note_on_c, 7, 55, 0
9, 57120, Note_on_c, 7, 53, 100
9, 57240, Note_on_c, 7, 53, 0
9, 57240, Note_on_c, 7, 56, 100
9, 57360, Note_on_c, 7, 56, 0
9, 57360, Note_on_c, 7, 55, 100
9, 57480, Note_on_c, 7, 55, 0
9, 57480, Note_on_c, 7, 53, 100
9, 57600, Note_on_c, 7, 53, 0
9, 57600, Note_on_c, 7, 51, 100
9, 57720, Note_on_c, 7, 51, 0
9, 57840, Note_on_c, 7, 53, 100
9, 58680, Note_on_c, 7, 53, 0
9, 59640, Note_on_c, 7, 58, 100
9, 59670, Note_on_c, 7, 58, 0
9, 59670, Note_on_c, 7, 60, 100
9, 59700, Note_on_c, 7, 60, 0
9, 59700, Note_on_c, 7, 58, 100
9, 59730, Note_on_c, 7, 58, 0
9, 59730, Note_on_c, 7, 60, 100
9, 59760, Note_on_c, 7, 60, 0
9, 59760, Note_on_c, 7, 62, 100
9, 59820, Note_on_c, 7, 62, 0
9, 59820, Note_on_c, 7, 62, 100
9, 59880, Note_on_c, 7, 62, 0
9, 59880, Note_on_c, 7, 62, 100
9, 59940, Note_on_c, 7, 62, 0
9, 59940, Note_on_c, 7, 62, 100
9, 60000, Note_on_c, 7, 62, 0
9, 60000, Note_on_c, 7, 62, 100
9, 60120, Note_on_c, 7, 62, 0
9, 60240, Note_on_c, 7, 58, 100
9, 60360, Note_on_c, 7, 58, 0
9, 60480, Note_on_c, 7, 57, 100
9, 60600, Note_on_c, 7, 57, 0
9, 60720, Note_on_c, 7, 63, 100
9, 60840, Note_on_c, 7, 63, 0
9, 60960, Note_on_c, 7, 62, 100
9, 61140, Note_on_c, 7, 62, 0
9, 61140, Note_on_c, 7, 57, 100
9, 61200, Note_on_c, 7, 57, 0
9, 61200, Note_on_c, 7, 58, 100
9, 61380, Note_on_c, 7, 58, 0
9, 61380, Note_on_c, 7, 51, 100
9, 61440, Note_on_c, 7, 51, 0
9, 61440, Note_on_c, 7, 53, 100
9, 61500, Note_on_c, 7, 53, 0
9, 61500, Note_on_c, 7, 52, 100
9, 61560, Note_on_c, 7, 52, 0
9, 61560, Note_on_c, 7, 53, 100
9, 61620, Note_on_c, 7, 53, 0
9, 61620, Note_on_c, 7, 52, 100
9, 61680, Note_on_c, 7, 52, 0
9, 61680, Note_on_c, 7, 53, 100
9, 61800, Note_on_c, 7, 53, 0
9, 61980, Note_on_c, 7, 50, 100
9, 62040, Note_on_c, 7, 50, 0
9, 62040, Note_on_c, 7, 50, 100
9, 62100, Note_on_c, 7, 50, 0
9, 62100, Note_on_c, 7, 50, 100
9, 62160, Note_on_c, 7, 50, 0
9, 62220, Note_on_c, 7, 50, 100
9, 62280, Note_on_c, 7, 50, 0
9, 62280, Note_on_c, 7, 50, 100
9, 62340, Note_on_c, 7, 50, 0
9, 62340, Note_on_c, 7, 50, 100
9, 62400, Note_on_c, 7, 50, 0
9, 62460, Note_on_c, 7, 48, 100
9, 62520, Note_on_c, 7, 48, 0
9, 62520, Note_on_c, 7, 48, 100
9, 62580, Note_on_c, 7, 48, 0
9, 62580, Note_on_c, 7, 48, 100
9, 62640, Note_on_c, 7, 48, 0
9, 62700, Note_on_c, 7, 51, 100
9, 62760, Note_on_c, 7, 51, 0
9, 62760, Note_on_c, 7, 51, 100
9, 62820, Note_on_c, 7, 51, 0
9, 62820, Note_on_c, 7, 51, 100
9, 62880, Note_on_c, 7, 51, 0
9, 62880, Note_on_c, 7, 50, 100
9, 63000, Note_on_c, 7, 50, 0
9, 63000, Note_on_c, 7, 51, 100
9, 63120, Note_on_c, 7, 51, 0
9, 63120, Note_on_c, 7, 53, 100
9, 63240, Note_on_c, 7, 53, 0
9, 63240, Note_on_c, 7, 51, 100
9, 63360, Note_on_c, 7, 51, 0
9, 63360, Note_on_c, 7, 50, 100
9, 63480, Note_on_c, 7, 50, 0
9, 63660, Note_on_c, 7, 53, 100
9, 63720, Note_on_c, 7, 53, 0
9, 63720, Note_on_c, 7, 55, 100
9, 63780, Note_on_c, 7, 55, 0
9, 63780, Note_on_c, 7, 57, 100
9, 63840, Note_on_c, 7, 57, 0
9, 63840, Note_on_c, 7, 58, 100
9, 63900, Note_on_c, 7, 58, 0
9, 64140, Note_on_c, 7, 53, 100
9, 64200, Note_on_c, 7, 53, 0
9, 64200, Note_on_c, 7, 55, 100
9, 64260, Note_on_c, 7, 55, 0
9, 64260, Note_on_c, 7, 57, 100
9, 64320, Note_on_c, 7, 57, 0
9, 64320, Note_on_c, 7, 58, 100
9, 64440, Note_on_c, 7, 58, 0
9, 65760, Note_on_c, 7, 58, 100
9, 65880, Note_on_c, 7, 58, 0
9, 66000, Note_on_c, 7, 65, 100
9, 66120, Note_on_c, 7, 65, 0
9, 66240, Note_on_c, 7, 70, 100
9, 66360, Note_on_c, 7, 70, 0
9, 66480, Note_on_c, 7, 65, 100
9, 66600, Note_on_c, 7, 65, 0
9, 66720, Note_on_c, 7, 50, 100
9, 67200, Note_on_c, 7, 50, 0
9, 67200, Note_on_c, 7, 51, 100
9, 67320, Note_on_c, 7, 51, 0
9, 67560, Note_on_c, 7, 51, 100
9, 67680, Note_on_c, 7, 51, 0
9, 67680, Note_on_c, 7, 50, 100
9, 67740, Note_on_c, 7, 50, 0
9, 67800, Note_on_c, 7, 51, 100
9, 67860, Note_on_c, 7, 51, 0
9, 67920, Note_on_c, 7, 53, 100
9, 67980, Note_on_c, 7, 53, 0
9, 68040, Note_on_c, 7, 53, 100
9, 68100, Note_on_c, 7, 53, 0
9, 73440, Note_on_c, 7, 55, 100
9, 73980, Note_on_c, 7, 55, 0
9, 74040, Note_on_c, 7, 55, 100
9, 74100, Note_on_c, 7, 55, 0
9, 74160, Note_on_c, 7, 58, 100
9, 74220, Note_on_c, 7, 58, 0
9, 74280, Note_on_c, 7, 58, 100
9, 74340, Note_on_c, 7, 58, 0
9, 74400, Note_on_c, 7, 53, 100
9, 74460, Note_on_c, 7, 53, 0
9, 74460, Note_on_c, 7, 53, 100
9, 74520, Note_on_c, 7, 53, 0
9, 74520, Note_on_c, 7, 53, 100
9, 74580, Note_on_c, 7, 53, 0
9, 74580, Note_on_c, 7, 53, 100
9, 74640, Note_on_c, 7, 53, 0
9, 74640, Note_on_c, 7, 53, 100
9, 74700, Note_on_c, 7, 53, 0
9, 74700, Note_on_c, 7, 53, 100
9, 74760, Note_on_c, 7, 53, 0
9, 74760, Note_on_c, 7, 53, 100
9, 74820, Note_on_c, 7, 53, 0
9, 74820, Note_on_c, 7, 53, 100
9, 74880, Note_on_c, 7, 53, 0
9, 74880, Note_on_c, 7, 53, 100
9, 74940, Note_on_c, 7, 53, 0
9, 74940, Note_on_c, 7, 53, 100
9, 75000, Note_on_c, 7, 53, 0
9, 75000, Note_on_c, 7, 53, 100
9, 75060, Note_on_c, 7, 53, 0
9, 75060, Note_on_c, 7, 53, 100
9, 75120, Note_on_c, 7, 53, 0
9, 75120, Note_on_c, 7, 53, 100
9, 75180, Note_on_c, 7, 53, 0
9, 75180, Note_on_c, 7, 53, 100
9, 75240, Note_on_c, 7, 53, 0
9, 75240, Note_on_c, 7, 53, 100
9, 75300, Note_on_c, 7, 53, 0
9, 75300, Note_on_c, 7, 53, 100
9, 75360, Note_on_c, 7, 53, 0
9, 75360, Note_on_c, 7, 58, 100
9, 75420, Note_on_c, 7, 58, 0
9, 75420, Note_on_c, 7, 60, 100
9, 75450, Note_on_c, 7, 60, 0
9, 75450, Note_on_c, 7, 62, 100
9, 75480, Note_on_c, 7, 62, 0
9, 75480, Note_on_c, 7, 63, 100
9, 75510, Note_on_c, 7, 63, 0
9, 75510, Note_on_c, 7, 65, 100
9, 75540, Note_on_c, 7, 65, 0
9, 75540, Note_on_c, 7, 67, 100
9, 75570, Note_on_c, 7, 67, 0
9, 75570, Note_on_c, 7, 69, 100
9, 75600, Note_on_c, 7, 69, 0
9, 75600, Note_on_c, 7, 70, 100
9, 75630, Note_on_c, 7, 70, 0
9, 75630, Note_on_c, 7, 69, 100
9, 75660, Note_on_c, 7, 69, 0
9, 75660, Note_on_c, 7, 70, 100
9, 75690, Note_on_c, 7, 70, 0
9, 75690, Note_on_c, 7, 72, 100
9, 75720, Note_on_c, 7, 72, 0
9, 75720, Note_on_c, 7, 74, 100
9, 75750, Note_on_c, 7, 74, 0
9, 75750, Note_on_c, 7, 72, 100
9, 75780, Note_on_c, 7, 72, 0
9, 75780, Note_on_c, 7, 70, 100
9, 75810, Note_on_c, 7, 70, 0
9, 75810, Note_on_c, 7, 69, 100
9, 75840, Note_on_c, 7, 69, 0
9, 75840, Note_on_c, 7, 67, 100
9, 75870, Note_on_c, 7, 67, 0
9, 75870, Note_on_c, 7, 66, 100
9, 75900, Note_on_c, 7, 66, 0
9, 75900, Note_on_c, 7, 67, 100
9, 75930, Note_on_c, 7, 67, 0
9, 75930, Note_on_c, 7, 69, 100
9, 75960, Note_on_c, 7, 69, 0
9, 75960, Note_on_c, 7, 70, 100
9, 75990, Note_on_c, 7, 70, 0
9, 75990, Note_on_c, 7, 69, 100
9, 76020, Note_on_c, 7, 69, 0
9, 76020, Note_on_c, 7, 67, 100
9, 76050, Note_on_c, 7, 67, 0
9, 76050, Note_on_c, 7, 65, 100
9, 76080, Note_on_c, 7, 65, 0
9, 76080, Note_on_c, 7, 63, 100
9, 76110, Note_on_c, 7, 63, 0
9, 76110, Note_on_c, 7, 62, 100
9, 76140, Note_on_c, 7, 62, 0
9, 76140, Note_on_c, 7, 63, 100
9, 76170, Note_on_c, 7, 63, 0
9, 76170, Note_on_c, 7, 65, 100
9, 76200, Note_on_c, 7, 65, 0
9, 76200, Note_on_c, 7, 67, 100
9, 76230, Note_on_c, 7, 67, 0
9, 76230, Note_on_c, 7, 65, 100
9, 76260, Note_on_c, 7, 65, 0
9, 76260, Note_on_c, 7, 63, 100
9, 76290, Note_on_c, 7, 63, 0
9, 76290, Note_on_c, 7, 62, 100
9, 76320, Note_on_c, 7, 62, 0
9, 76320, Note_on_c, 7, 63, 100
9, 76350, Note_on_c, 7, 63, 0
9, 76350, Note_on_c, 7, 48, 100
9, 76380, Note_on_c, 7, 48, 0
9, 76380, Note_on_c, 7, 50, 100
9, 76410, Note_on_c, 7, 50, 0
9, 76410, Note_on_c, 7, 51, 100
9, 76440, Note_on_c, 7, 51, 0
9, 76440, Note_on_c, 7, 53, 100
9, 76470, Note_on_c, 7, 53, 0
9, 76470, Note_on_c, 7, 55, 100
9, 76500, Note_on_c, 7, 55, 0
9, 76500, Note_on_c, 7, 57, 100
9, 76530, Note_on_c, 7, 57, 0
9, 76530, Note_on_c, 7, 58, 100
9, 76560, Note_on_c, 7, 58, 0
9, 76560, Note_on_c, 7, 60, 100
9, 76590, Note_on_c, 7, 60, 0
9, 76590, Note_on_c, 7, 58, 100
9, 76620, Note_on_c, 7, 58, 0
9, 76620, Note_on_c, 7, 60, 100
9, 76650, Note_on_c, 7, 60, 0
9, 76650, Note_on_c, 7, 62, 100
9, 76680, Note_on_c, 7, 62, 0
9, 76680, Note_on_c, 7, 63, 100
9, 76710, Note_on_c, 7, 63, 0
9, 76710, Note_on_c, 7, 62, 100
9, 76740, Note_on_c, 7, 62, 0
9, 76740, Note_on_c, 7, 60, 100
9, 76770, Note_on_c, 7, 60, 0
9, 76770, Note_on_c, 7, 58, 100
9, 76800, Note_on_c, 7, 58, 0
9, 76800, Note_on_c, 7, 57, 100
9, 76830, Note_on_c, 7, 57, 0
9, 76830, Note_on_c, 7, 55, 100
9, 76860, Note_on_c, 7, 55, 0
9, 76860, Note_on_c, 7, 57, 100
9, 76890, Note_on_c, 7, 57, 0
9, 76890, Note_on_c, 7, 58, 100
9, 76920, Note_on_c, 7, 58, 0
9, 76920, Note_on_c, 7, 60, 100
9, 76950, Note_on_c, 7, 60, 0
9, 76950, Note_on_c, 7, 58, 100
9, 76980, Note_on_c, 7, 58, 0
9, 76980, Note_on_c, 7, 57, 100
9, 77010, Note_on_c, 7, 57, 0
9, 77010, Note_on_c, 7, 55, 100
9, 77040, Note_on_c, 7, 55, 0
9, 77040, Note_on_c, 7, 53, 100
9, 77070, Note_on_c, 7, 53, 0
9, 77070, Note_on_c, 7, 52, 100
9, 77100, Note_on_c, 7, 52, 0
9, 77100, Note_on_c, 7, 53, 100
9, 77130, Note_on_c, 7, 53, 0
9, 77130, Note_on_c, 7, 55, 100
9, 77160, Note_on_c, 7, 55, 0
9, 77160, Note_on_c, 7, 57, 100
9, 77190, Note_on_c, 7, 57, 0
9, 77190, Note_on_c, 7, 55, 100
9, 77220, Note_on_c, 7, 55, 0
9, 77220, Note_on_c, 7, 53, 100
9, 77250, Note_on_c, 7, 53, 0
9, 77250, Note_on_c, 7, 51, 100
9, 77280, Note_on_c, 7, 51, 0
9, 77280, Note_on_c, 7, 50, 100
9, 77340, Note_on_c, 7, 50, 0
9, 77340, Note_on_c, 7, 51, 100
9, 77370, Note_on_c, 7, 51, 0
9, 77370, Note_on_c, 7, 53, 100
9, 77400, Note_on_c, 7, 53, 0
9, 77400, Note_on_c, 7, 55, 100
9, 77430, Note_on_c, 7, 55, 0
9, 77430, Note_on_c, 7, 57, 100
9, 77460, Note_on_c, 7, 57, 0
9, 77460, Note_on_c, 7, 58, 100
9, 77490, Note_on_c, 7, 58, 0
9, 77490, Note_on_c, 7, 60, 100
9, 77520, Note_on_c, 7, 60, 0
9, 77520, Note_on_c, 7, 62, 100
9, 77550, Note_on_c, 7, 62, 0
9, 77550, Note_on_c, 7, 60, 100
9, 77580, Note_on_c, 7, 60, 0
9, 77580, Note_on_c, 7, 62, 100
9, 77610, Note_on_c, 7, 62, 0
9, 77610, Note_on_c, 7, 63, 100
9, 77640, Note_on_c, 7, 63, 0
9, 77640, Note_on_c, 7, 65, 100
9, 77670, Note_on_c, 7, 65, 0
9, 77670, Note_on_c, 7, 63, 100
9, 77700, Note_on_c, 7, 63, 0
9, 77700, Note_on_c, 7, 62, 100
9, 77730, Note_on_c, 7, 62, 0
9, 77730, Note_on_c, 7, 60, 100
9, 77760, Note_on_c, 7, 60, 0
9, 77760, Note_on_c, 7, 58, 100
9, 77790, Note_on_c, 7, 58, 0
9, 77790, Note_on_c, 7, 57, 100
9, 77820, Note_on_c, 7, 57, 0
9, 77820, Note_on_c, 7, 58, 100
9, 77850, Note_on_c, 7, 58, 0
9, 77850, Note_on_c, 7, 60, 100
9, 77880, Note_on_c, 7, 60, 0
9, 77880, Note_on_c, 7, 62, 100
9, 77910, Note_on_c, 7, 62, 0
9, 77910, Note_on_c, 7, 60, 100
9, 77940, Note_on_c, 7, 60, 0
9, 77940, Note_on_c, 7, 58, 100
9, 77970, Note_on_c, 7, 58, 0
9, 77970, Note_on_c, 7, 57, 100
9, 78000, Note_on_c, 7, 57, 0
9, 78000, Note_on_c, 7, 55, 100
9, 78030, Note_on_c, 7, 55, 0
9, 78030, Note_on_c, 7, 54, 100
9, 78060, Note_on_c, 7, 54, 0
9, 78060, Note_on_c, 7, 55, 100
9, 78090, Note_on_c, 7, 55, 0
9, 78090, Note_on_c, 7, 56, 100
9, 78120, Note_on_c, 7, 56, 0
9, 78120, Note_on_c, 7, 58, 100
9, 78150, Note_on_c, 7, 58, 0
9, 78150, Note_on_c, 7, 56, 100
9, 78180, Note_on_c, 7, 56, 0
9, 78180, Note_on_c, 7, 55, 100
9, 78210, Note_on_c, 7, 55, 0
9, 78210, Note_on_c, 7, 53, 100
9, 78240, Note_on_c, 7, 53, 0
9, 78240, Note_on_c, 7, 51, 100
9, 78300, Note_on_c, 7, 51, 0
9, 78300, Note_on_c, 7, 55, 100
9, 78300, Note_on_c, 7, 58, 100
9, 78420, Note_on_c, 7, 58, 0
9, 78420, Note_on_c, 7, 55, 0
9, 78420, Note_on_c, 7, 55, 100
9, 78420, Note_on_c, 7, 58, 100
9, 78540, Note_on_c, 7, 58, 0
9, 78540, Note_on_c, 7, 55, 0
9, 78540, Note_on_c, 7, 55, 100
9, 78540, Note_on_c, 7, 58, 100
9, 78660, Note_on_c, 7, 58, 0
9, 78660, Note_on_c, 7, 55, 0
9, 78660, Note_on_c, 7, 55, 100
9, 78660, Note_on_c, 7, 58, 100
9, 78780, Note_on_c, 7, 58, 0
9, 78780, Note_on_c, 7, 55, 0
9, 78780, Note_on_c, 7, 55, 100
9, 78780, Note_on_c, 7, 58, 100
9, 78900, Note_on_c, 7, 58, 0
9, 78900, Note_on_c, 7, 55, 0
9, 78900, Note_on_c, 7, 55, 100
9, 78900, Note_on_c, 7, 58, 100
9, 79020, Note_on_c, 7, 58, 0
9, 79020, Note_on_c, 7, 55, 0
9, 79020, Note_on_c, 7, 55, 100
9, 79020, Note_on_c, 7, 58, 100
9, 79140, Note_on_c, 7, 58, 0
9, 79140, Note_on_c, 7, 55, 0
9, 79140, Note_on_c, 7, 58, 100
9, 79140, Note_on_c, 7, 55, 100
9, 79200, Note_on_c, 7, 55, 0
9, 79200, Note_on_c, 7, 58, 0
9, 79200, Note_on_c, 7, 58, 100
9, 79200, Note_on_c, 7, 53, 100
9, 79320, Note_on_c, 7, 53, 0
9, 79320, Note_on_c, 7, 58, 0
9, 79320, Note_on_c, 7, 58, 100
9, 79350, Note_on_c, 7, 58, 0
9, 79350, Note_on_c, 7, 58, 100
9, 79380, Note_on_c, 7, 58, 0
9, 79380, Note_on_c, 7, 58, 100
9, 79410, Note_on_c, 7, 58, 0
9, 79410, Note_on_c, 7, 58, 100
9, 79440, Note_on_c, 7, 58, 0
9, 79440, Note_on_c, 7, 62, 100
9, 79470, Note_on_c, 7, 62, 0
9, 79470, Note_on_c, 7, 62, 100
9, 79500, Note_on_c, 7, 62, 0
9, 79500, Note_on_c, 7, 62, 100
9, 79530, Note_on_c, 7, 62, 0
9, 79530, Note_on_c, 7, 62, 100
9, 79560, Note_on_c, 7, 62, 0
9, 79560, Note_on_c, 7, 58, 100
9, 79590, Note_on_c, 7, 58, 0
9, 79590, Note_on_c, 7, 58, 100
9, 79620, Note_on_c, 7, 58, 0
9, 79620, Note_on_c, 7, 58, 100
9, 79650, Note_on_c, 7, 58, 0
9, 79650, Note_on_c, 7, 58, 100
9, 79680, Note_on_c, 7, 58, 0
9, 79680, Note_on_c, 7, 60, 100
9, 79710, Note_on_c, 7, 60, 0
9, 79710, Note_on_c, 7, 60, 100
9, 79740, Note_on_c, 7, 60, 0
9, 79740, Note_on_c, 7, 60, 100
9, 79770, Note_on_c, 7, 60, 0
9, 79770, Note_on_c, 7, 60, 100
9, 79800, Note_on_c, 7, 60, 0
9, 79800, Note_on_c, 7, 57, 100
9, 79830, Note_on_c, 7, 57, 0
9, 79830, Note_on_c, 7, 57, 100
9, 79860, Note_on_c, 7, 57, 0
9, 79860, Note_on_c, 7, 57, 100
9, 79890, Note_on_c, 7, 57, 0
9, 79890, Note_on_c, 7, 57, 100
9, 79920, Note_on_c, 7, 57, 0
9, 79920, Note_on_c, 7, 60, 100
9, 79950, Note_on_c, 7, 60, 0
9, 79950, Note_on_c, 7, 60, 100
9, 79980, Note_on_c, 7, 60, 0
9, 79980, Note_on_c, 7, 60, 100
9, 80010, Note_on_c, 7, 60, 0
9, 80010, Note_on_c, 7, 60, 100
9, 80040, Note_on_c, 7, 60, 0
9, 80040, Note_on_c, 7, 57, 100
9, 80070, Note_on_c, 7, 57, 0
9, 80070, Note_on_c, 7, 57, 100
9, 80100, Note_on_c, 7, 57, 0
9, 80100, Note_on_c, 7, 57, 100
9, 80130, Note_on_c, 7, 57, 0
9, 80130, Note_on_c, 7, 57, 100
9, 80160, Note_on_c, 7, 57, 0
9, 80160, Note_on_c, 7, 58, 100
9, 80400, Note_on_c, 7, 58, 0
9, 80400, Note_on_c, 7, 58, 100
9, 80580, Note_on_c, 7, 58, 0
9, 80580, Note_on_c, 7, 57, 100
9, 80610, Note_on_c, 7, 57, 0
9, 80610, Note_on_c, 7, 58, 100
9, 80640, Note_on_c, 7, 58, 0
9, 80640, Note_on_c, 7, 62, 100
9, 80880, Note_on_c, 7, 62, 0
9, 80880, Note_on_c, 7, 65, 100
9, 81120, Note_on_c, 7, 65, 0
9, 81120, Note_on_c, 7, 70, 100
9, 81360, Note_on_c, 7, 70, 0
9, 81360, Note_on_c, 7, 55, 100
9, 81540, Note_on_c, 7, 55, 0
9, 81540, Note_on_c, 7, 54, 100
9, 81570, Note_on_c, 7, 54, 0
9, 81570, Note_on_c, 7, 55, 100
9, 81600, Note_on_c, 7, 55, 0
9, 81600, Note_on_c, 7, 58, 100
9, 81840, Note_on_c, 7, 58, 0
9, 81840, Note_on_c, 7, 62, 100
9, 82080, Note_on_c, 7, 62, 0
9, 82080, Note_on_c, 7, 66, 100
9, 82320, Note_on_c, 7, 66, 0
9, 82320, Note_on_c, 7, 54, 100
9, 82500, Note_on_c, 7, 54, 0
9, 82500, Note_on_c, 7, 52, 100
9, 82530, Note_on_c, 7, 52, 0
9, 82530, Note_on_c, 7, 54, 100
9, 82560, Note_on_c, 7, 54, 0
9, 82560, Note_on_c, 7, 57, 100
9, 82800, Note_on_c, 7, 57, 0
9, 82800, Note_on_c, 7, 54, 100
9, 82980, Note_on_c, 7, 54, 0
9, 82980, Note_on_c, 7, 52, 100
9, 83010, Note_on_c, 7, 52, 0
9, 83010, Note_on_c, 7, 54, 100
9, 83040, Note_on_c, 7, 54, 0
9, 83040, Note_on_c, 7, 55, 100
9, 83160, Note_on_c, 7, 55, 0
9, 84000, Note_on_c, 7, 63, 100
9, 84000, Note_on_c, 7, 60, 100
9, 84240, Note_on_c, 7, 60, 0
9, 84240, Note_on_c, 7, 63, 0
9, 85560, Note_on_c, 7, 58, 100
9, 85680, Note_on_c, 7, 58, 0
9, 85680, Note_on_c, 7, 57, 100
9, 85800, Note_on_c, 7, 57, 0
9, 85800, Note_on_c, 7, 55, 100
9, 85920, Note_on_c, 7, 55, 0
9, 85920, Note_on_c, 7, 50, 100
9, 85980, Note_on_c, 7, 50, 0
9, 86040, Note_on_c, 7, 50, 100
9, 86100, Note_on_c, 7, 50, 0
9, 86160, Note_on_c, 7, 50, 100
9, 86220, Note_on_c, 7, 50, 0
9, 86280, Note_on_c, 7, 50, 100
9, 86340, Note_on_c, 7, 50, 0
9, 86400, Note_on_c, 7, 50, 100
9, 86640, Note_on_c, 7, 50, 0
9, 86640, Note_on_c, 7, 55, 100
9, 86820, Note_on_c, 7, 55, 0
9, 86820, Note_on_c, 7, 54, 100
9, 86850, Note_on_c, 7, 54, 0
9, 86850, Note_on_c, 7, 55, 100
9, 86880, Note_on_c, 7, 55, 0
9, 86880, Note_on_c, 7, 58, 100
9, 87120, Note_on_c, 7, 58, 0
9, 87120, Note_on_c, 7, 62, 100
9, 87360, Note_on_c, 7, 62, 0
9, 87360, Note_on_c, 7, 65, 100
9, 87600, Note_on_c, 7, 65, 0
9, 87600, Note_on_c, 7, 62, 100
9, 87780, Note_on_c, 7, 62, 0
9, 87780, Note_on_c, 7, 60, 100
9, 87810, Note_on_c, 7, 60, 0
9, 87810, Note_on_c, 7, 62, 100
9, 87840, Note_on_c, 7, 62, 0
9, 87840, Note_on_c, 7, 65, 100
9, 88080, Note_on_c, 7, 65, 0
9, 88080, Note_on_c, 7, 70, 100
9, 88320, Note_on_c, 7, 70, 0
9, 88320, Note_on_c, 7, 71, 100
9, 88560, Note_on_c, 7, 71, 0
9, 88560, Note_on_c, 7, 59, 100
9, 88740, Note_on_c, 7, 59, 0
9, 88740, Note_on_c, 7, 57, 100
9, 88770, Note_on_c, 7, 57, 0
9, 88770, Note_on_c, 7, 59, 100
9, 88800, Note_on_c, 7, 59, 0
9, 88800, Note_on_c, 7, 62, 100
9, 89040, Note_on_c, 7, 62, 0
9, 89040, Note_on_c, 7, 55, 100
9, 89280, Note_on_c, 7, 55, 0
9, 89280, Note_on_c, 7, 55, 100
9, 89340, Note_on_c, 7, 55, 0
9, 89340, Note_on_c, 7, 48, 100
9, 89400, Note_on_c, 7, 48, 0
9, 89400, Note_on_c, 7, 50, 100
9, 89460, Note_on_c, 7, 50, 0
9, 89460, Note_on_c, 7, 51, 100
9, 89520, Note_on_c, 7, 51, 0
9, 89580, Note_on_c, 7, 53, 100
9, 89640, Note_on_c, 7, 53, 0
9, 89640, Note_on_c, 7, 51, 100
9, 89700, Note_on_c, 7, 51, 0
9, 89700, Note_on_c, 7, 50, 100
9, 89760, Note_on_c, 7, 50, 0
9, 89820, Note_on_c, 7, 48, 100
9, 89880, Note_on_c, 7, 48, 0
9, 89880, Note_on_c, 7, 51, 100
9, 89940, Note_on_c, 7, 51, 0
9, 89940, Note_on_c, 7, 48, 100
9, 90000, Note_on_c, 7, 48, 0
9, 90060, Note_on_c, 7, 51, 100
9, 90120, Note_on_c, 7, 51, 0
9, 90120, Note_on_c, 7, 55, 100
9, 90180, Note_on_c, 7, 55, 0
9, 90180, Note_on_c, 7, 51, 100
9, 90240, Note_on_c, 7, 51, 0
9, 90240, Note_on_c, 7, 53, 100
9, 90480, Note_on_c, 7, 53, 0
9, 90840, Note_on_c, 7, 60, 100
9, 90960, Note_on_c, 7, 60, 0
9, 90960, Note_on_c, 7, 59, 100
9, 91080, Note_on_c, 7, 59, 0
9, 91320, Note_on_c, 7, 60, 100
9, 91440, Note_on_c, 7, 60, 0
9, 91440, Note_on_c, 7, 59, 100
9, 91560, Note_on_c, 7, 59, 0
9, 92160, Note_on_c, 7, 55, 100
9, 92160, Note_on_c, 7, 62, 100
9, 92640, Note_on_c, 7, 62, 0
9, 92640, Note_on_c, 7, 60, 100
9, 92760, Note_on_c, 7, 60, 0
9, 92760, Note_on_c, 7, 55, 0
9, 92880, Note_on_c, 7, 63, 100
9, 92940, Note_on_c, 7, 63, 0
9, 92940, Note_on_c, 7, 62, 100
9, 93000, Note_on_c, 7, 62, 0
9, 93000, Note_on_c, 7, 60, 100
9, 93060, Note_on_c, 7, 60, 0
9, 93060, Note_on_c, 7, 59, 100
9, 93120, Note_on_c, 7, 59, 0
9, 93120, Note_on_c, 7, 60, 100
9, 93240, Note_on_c, 7, 60, 0
9, 93360, Note_on_c, 7, 60, 100
9, 93420, Note_on_c, 7, 60, 0
9, 93420, Note_on_c, 7, 62, 100
9, 93480, Note_on_c, 7, 62, 0
9, 93480, Note_on_c, 7, 63, 100
9, 93540, Note_on_c, 7, 63, 0
9, 93540, Note_on_c, 7, 65, 100
9, 93600, Note_on_c, 7, 65, 0
9, 93600, Note_on_c, 7, 64, 100
9, 93720, Note_on_c, 7, 64, 0
9, 93840, Note_on_c, 7, 68, 100
9, 93900, Note_on_c, 7, 68, 0
9, 93900, Note_on_c, 7, 67, 100
9, 93960, Note_on_c, 7, 67, 0
9, 93960, Note_on_c, 7, 65, 100
9, 94020, Note_on_c, 7, 65, 0
9, 94020, Note_on_c, 7, 64, 100
9, 94080, Note_on_c, 7, 64, 0
9, 94080, Note_on_c, 7, 65, 100
9, 94200, Note_on_c, 7, 65, 0
9, 94320, Note_on_c, 7, 53, 100
9, 94380, Note_on_c, 7, 53, 0
9, 94380, Note_on_c, 7, 55, 100
9, 94440, Note_on_c, 7, 55, 0
9, 94440, Note_on_c, 7, 56, 100
9, 94500, Note_on_c, 7, 56, 0
9, 94500, Note_on_c, 7, 58, 100
9, 94560, Note_on_c, 7, 58, 0
9, 94560, Note_on_c, 7, 57, 100
9, 94680, Note_on_c, 7, 57, 0
9, 94800, Note_on_c, 7, 62, 100
9, 94860, Note_on_c, 7, 62, 0
9, 94860, Note_on_c, 7, 60, 100
9, 94920, Note_on_c, 7, 60, 0
9, 94920, Note_on_c, 7, 58, 100
9, 94980, Note_on_c, 7, 58, 0
9, 94980, Note_on_c, 7, 57, 100
9, 95040, Note_on_c, 7, 57, 0
9, 95040, Note_on_c, 7, 58, 100
9, 95160, Note_on_c, 7, 58, 0
9, 95280, Note_on_c, 7, 58, 100
9, 95340, Note_on_c, 7, 58, 0
9, 95340, Note_on_c, 7, 60, 100
9, 95400, Note_on_c, 7, 60, 0
9, 95400, Note_on_c, 7, 62, 100
9, 95460, Note_on_c, 7, 62, 0
9, 95460, Note_on_c, 7, 63, 100
9, 95520, Note_on_c, 7, 63, 0
9, 95520, Note_on_c, 7, 62, 100
9, 95640, Note_on_c, 7, 62, 0
9, 95760, Note_on_c, 7, 67, 100
9, 95820, Note_on_c, 7, 67, 0
9, 95820, Note_on_c, 7, 65, 100
9, 95880, Note_on_c, 7, 65, 0
9, 95880, Note_on_c, 7, 63, 100
9, 95940, Note_on_c, 7, 63, 0
9, 95940, Note_on_c, 7, 62, 100
9, 96000, Note_on_c, 7, 62, 0
9, 96000, Note_on_c, 7, 63, 100
9, 96120, Note_on_c, 7, 63, 0
9, 96240, Note_on_c, 7, 51, 100
9, 96300, Note_on_c, 7, 51, 0
9, 96300, Note_on_c, 7, 53, 100
9, 96360, Note_on_c, 7, 53, 0
9, 96360, Note_on_c, 7, 55, 100
9, 96420, Note_on_c, 7, 55, 0
9, 96420, Note_on_c, 7, 56, 100
9, 96480, Note_on_c, 7, 56, 0
9, 96480, Note_on_c, 7, 55, 100
9, 96600, Note_on_c, 7, 55, 0
9, 96720, Note_on_c, 7, 55, 100
9, 96960, Note_on_c, 7, 55, 0
9, 96960, Note_on_c, 7, 56, 100
9, 97200, Note_on_c, 7, 56, 0
9, 97200, Note_on_c, 7, 58, 100
9, 97440, Note_on_c, 7, 58, 0
9, 97440, Note_on_c, 7, 53, 100
9, 97680, Note_on_c, 7, 53, 0
9, 97680, Note_on_c, 7, 57, 100
9, 97920, Note_on_c, 7, 57, 0
9, 97920, Note_on_c, 7, 58, 100
9, 98160, Note_on_c, 7, 58, 0
9, 98160, Note_on_c, 7, 56, 100
9, 98400, Note_on_c, 7, 56, 0
9, 98400, Note_on_c, 7, 55, 100
9, 98640, Note_on_c, 7, 55, 0
9, 98640, Note_on_c, 7, 59, 100
9, 98880, Note_on_c, 7, 59, 0
9, 98880, Note_on_c, 7, 60, 100
9, 99120, Note_on_c, 7, 60, 0
9, 99120, Note_on_c, 7, 55, 100
9, 99360, Note_on_c, 7, 55, 0
9, 99360, Note_on_c, 7, 56, 100
9, 99600, Note_on_c, 7, 56, 0
9, 99600, Note_on_c, 7, 52, 100
9, 99840, Note_on_c, 7, 52, 0
9, 99840, Note_on_c, 7, 53, 100
9, 99960, Note_on_c, 7, 53, 0
9, 99960, Note_on_c, 7, 55, 100
9, 100080, Note_on_c, 7, 55, 0
9, 100080, Note_on_c, 7, 56, 100
9, 100200, Note_on_c, 7, 56, 0
9, 100200, Note_on_c, 7, 57, 100
9, 100320, Note_on_c, 7, 57, 0
9, 100320, Note_on_c, 7, 58, 100
9, 100440, Note_on_c, 7, 58, 0
9, 101280, Program_c, 7, 45
9, 101400, Note_on_c, 7, 63, 100
9, 101460, Note_on_c, 7, 63, 0
9, 101520, Note_on_c, 7, 70, 100
9, 101580, Note_on_c, 7, 70, 0
9, 101640, Note_on_c, 7, 67, 100
9, 101700, Note_on_c, 7, 67, 0
9, 101760, Note_on_c, 7, 63, 100
9, 101820, Note_on_c, 7, 63, 0
9, 101880, Note_on_c, 7, 58, 100
9, 101940, Note_on_c, 7, 58, 0
9, 102000, Note_on_c, 7, 55, 100
9, 102060, Note_on_c, 7, 55, 0
9, 102120, Note_on_c, 7, 51, 100
9, 102180, Note_on_c, 7, 51, 0
9, 102240, Note_on_c, 7, 56, 100
9, 102360, Note_on_c, 7, 56, 0
9, 103320, Note_on_c, 7, 63, 100
9, 103380, Note_on_c, 7, 63, 0
9, 103440, Note_on_c, 7, 70, 100
9, 103500, Note_on_c, 7, 70, 0
9, 103560, Note_on_c, 7, 67, 100
9, 103620, Note_on_c, 7, 67, 0
9, 103680, Note_on_c, 7, 63, 100
9, 103740, Note_on_c, 7, 63, 0
9, 103800, Note_on_c, 7, 58, 100
9, 103860, Note_on_c, 7, 58, 0
9, 103920, Note_on_c, 7, 55, 100
9, 103980, Note_on_c, 7, 55, 0
9, 104040, Note_on_c, 7, 51, 100
9, 104100, Note_on_c, 7, 51, 0
9, 104160, Note_on_c, 7, 58, 100
9, 104280, Note_on_c, 7, 58, 0
9, 105360, Program_c, 7, 41
9, 105360, Note_on_c, 7, 58, 100
9, 105390, Note_on_c, 7, 58, 0
9, 105390, Note_on_c, 7, 57, 100
9, 105420, Note_on_c, 7, 57, 0
9, 105420, Note_on_c, 7, 58, 100
9, 105450, Note_on_c, 7, 58, 0
9, 105450, Note_on_c, 7, 57, 100
9, 105480, Note_on_c, 7, 57, 0
9, 105480, Note_on_c, 7, 58, 100
9, 105510, Note_on_c, 7, 58, 0
9, 105510, Note_on_c, 7, 57, 100
9, 105540, Note_on_c, 7, 57, 0
9, 105540, Note_on_c, 7, 58, 100
9, 105570, Note_on_c, 7, 58, 0
9, 105570, Note_on_c, 7, 57, 100
9, 105600, Note_on_c, 7, 57, 0
9, 105600, Note_on_c, 7, 58, 100
9, 106140, Note_on_c, 7, 58, 0
9, 106200, Note_on_c, 7, 58, 100
9, 106260, Note_on_c, 7, 58, 0
9, 106320, Note_on_c, 7, 58, 100
9, 106380, Note_on_c, 7, 58, 0
9, 106440, Note_on_c, 7, 58, 100
9, 106500, Note_on_c, 7, 58, 0
9, 106560, Note_on_c, 7, 51, 100
9, 106560, Note_on_c, 7, 55, 100
9, 107040, Note_on_c, 7, 55, 0
9, 107040, Note_on_c, 7, 51, 0
9, 107040, Note_on_c, 7, 51, 100
9, 107040, Note_on_c, 7, 55, 100
9, 107280, Note_on_c, 7, 55, 0
9, 107280, Note_on_c, 7, 51, 0
9, 107280, Note_on_c, 7, 51, 100
9, 107280, Note_on_c, 7, 55, 100
9, 107460, Note_on_c, 7, 55, 0
9, 107460, Note_on_c, 7, 51, 0
9, 107460, Note_on_c, 7, 51, 100
9, 107460, Note_on_c, 7, 55, 100
9, 107520, Note_on_c, 7, 55, 0
9, 107520, Note_on_c, 7, 51, 0
9, 107520, Note_on_c, 7, 51, 100
9, 107520, Note_on_c, 7, 55, 100
9, 107640, Note_on_c, 7, 55, 0
9, 107640, Note_on_c, 7, 51, 0
9, 108600, Note_on_c, 7, 62, 100
9, 108840, Note_on_c, 7, 62, 0
9, 108840, Note_on_c, 7, 62, 100
9, 109080, Note_on_c, 7, 62, 0
9, 109080, Note_on_c, 7, 62, 100
9, 109320, Note_on_c, 7, 62, 0
9, 109320, Note_on_c, 7, 62, 100
9, 109440, Note_on_c, 7, 62, 0
9, 109440, Note_on_c, 7, 63, 100
9, 109500, Note_on_c, 7, 63, 0
9, 109500, Note_on_c, 7, 51, 100
9, 109560, Note_on_c, 7, 51, 0
9, 109560, Note_on_c, 7, 51, 100
9, 109620, Note_on_c, 7, 51, 0
9, 109620, Note_on_c, 7, 51, 100
9, 109680, Note_on_c, 7, 51, 0
9, 109680, Note_on_c, 7, 51, 100
9, 109740, Note_on_c, 7, 51, 0
9, 109740, Note_on_c, 7, 51, 100
9, 109800, Note_on_c, 7, 51, 0
9, 109800, Note_on_c, 7, 51, 100
9, 109860, Note_on_c, 7, 51, 0
9, 109860, Note_on_c, 7, 51, 100
9, 109920, Note_on_c, 7, 51, 0
9, 109920, Note_on_c, 7, 51, 100
9, 109980, Note_on_c, 7, 51, 0
9, 109980, Note_on_c, 7, 51, 100
9, 110040, Note_on_c, 7, 51, 0
9, 110040, Note_on_c, 7, 51, 100
9, 110100, Note_on_c, 7, 51, 0
9, 110100, Note_on_c, 7, 51, 100
9, 110160, Note_on_c, 7, 51, 0
9, 110160, Note_on_c, 7, 51, 100
9, 110220, Note_on_c, 7, 51, 0
9, 110220, Note_on_c, 7, 51, 100
9, 110280, Note_on_c, 7, 51, 0
9, 110280, Note_on_c, 7, 51, 100
9, 110340, Note_on_c, 7, 51, 0
9, 110340, Note_on_c, 7, 51, 100
9, 110400, Note_on_c, 7, 51, 0
9, 110400, Note_on_c, 7, 51, 100
9, 110460, Note_on_c, 7, 51, 0
9, 110460, Note_on_c, 7, 51, 100
9, 110520, Note_on_c, 7, 51, 0
9, 110520, Note_on_c, 7, 51, 100
9, 110580, Note_on_c, 7, 51, 0
9, 110580, Note_on_c, 7, 51, 100
9, 110640, Note_on_c, 7, 51, 0
9, 110640, Note_on_c, 7, 51, 100
9, 110700, Note_on_c, 7, 51, 0
9, 110700, Note_on_c, 7, 51, 100
9, 110760, Note_on_c, 7, 51, 0
9, 110760, Note_on_c, 7, 51, 100
9, 110820, Note_on_c, 7, 51, 0
9, 110820, Note_on_c, 7, 51, 100
9, 110880, Note_on_c, 7, 51, 0
9, 110880, Note_on_c, 7, 51, 100
9, 110940, Note_on_c, 7, 51, 0
9, 110940, Note_on_c, 7, 51, 100
9, 111000, Note_on_c, 7, 51, 0
9, 111000, Note_on_c, 7, 51, 100
9, 111060, Note_on_c, 7, 51, 0
9, 111060, Note_on_c, 7, 51, 100
9, 111120, Note_on_c, 7, 51, 0
9, 111120, Note_on_c, 7, 51, 100
9, 111180, Note_on_c, 7, 51, 0
9, 111180, Note_on_c, 7, 51, 100
9, 111240, Note_on_c, 7, 51, 0
9, 111240, Note_on_c, 7, 51, 100
9, 111300, Note_on_c, 7, 51, 0
9, 111300, Note_on_c, 7, 51, 100
9, 111360, Note_on_c, 7, 51, 0
9, 111360, Note_on_c, 7, 51, 100
9, 111480, Note_on_c, 7, 51, 0
9, 113280, Note_on_c, 7, 63, 100
9, 113520, Note_on_c, 7, 63, 0
9, 113520, Note_on_c, 7, 63, 100
9, 113700, Note_on_c, 7, 63, 0
9, 113700, Note_on_c, 7, 63, 100
9, 113760, Note_on_c, 7, 63, 0
9, 113760, Note_on_c, 7, 58, 100
9, 114240, Note_on_c, 7, 58, 0
9, 114360, Note_on_c, 7, 55, 100
9, 114480, Note_on_c, 7, 55, 0
9, 114480, Note_on_c, 7, 53, 100
9, 114600, Note_on_c, 7, 53, 0
9, 114600, Note_on_c, 7, 58, 100
9, 114720, Note_on_c, 7, 58, 0
9, 114720, Note_on_c, 7, 55, 100
9, 114840, Note_on_c, 7, 55, 0
9, 114840, Note_on_c, 7, 51, 100
9, 114960, Note_on_c, 7, 51, 0
9, 114960, Note_on_c, 7, 58, 100
9, 115080, Note_on_c, 7, 58, 0
9, 115200, Note_on_c, 7, 63, 100
9, 115440, Note_on_c, 7, 63, 0
9, 115440, Note_on_c, 7, 63, 100
9, 115620, Note_on_c, 7, 63, 0
9, 115620, Note_on_c, 7, 63, 100
9, 115680, Note_on_c, 7, 63, 0
9, 115680, Note_on_c, 7, 58, 100
9, 118200, Note_on_c, 7, 58, 0
9, 119160, Note_on_c, 7, 63, 100
9, 119220, Note_on_c, 7, 63, 0
9, 119220, Note_on_c, 7, 67, 100
9, 119280, Note_on_c, 7, 67, 0
9, 119280, Note_on_c, 7, 63, 100
9, 119340, Note_on_c, 7, 63, 0
9, 119340, Note_on_c, 7, 67, 100
9, 119400, Note_on_c, 7, 67, 0
9, 119400, Note_on_c, 7, 63, 100
9, 119460, Note_on_c, 7, 63, 0
9, 119460, Note_on_c, 7, 67, 100
9, 119520, Note_on_c, 7, 67, 0
9, 119520, Note_on_c, 7, 63, 100
9, 119640, Note_on_c, 7, 63, 0
9, 119640, Note_on_c, 7, 63, 100
9, 119700, Note_on_c, 7, 63, 0
9, 119700, Note_on_c, 7, 58, 100
9, 119760, Note_on_c, 7, 58, 0
9, 119760, Note_on_c, 7, 63, 100
9, 119820, Note_on_c, 7, 63, 0
9, 119820, Note_on_c, 7, 58, 100
9, 119880, Note_on_c, 7, 58, 0
9, 119880, Note_on_c, 7, 63, 100
9, 119940, Note_on_c, 7, 63, 0
9, 119940, Note_on_c, 7, 58, 100
9, 120000, Note_on_c, 7, 58, 0
9, 120000, Note_on_c, 7, 63, 100
9, 120120, Note_on_c, 7, 63, 0
9, 120240, Note_on_c, 7, 51, 100
9, 120480, Note_on_c, 7, 51, 0
9, 120480, Note_on_c, 7, 50, 100
9, 120720, Note_on_c, 7, 50, 0
9, 120720, Note_on_c, 7, 49, 100
9, 120960, Note_on_c, 7, 49, 0
9, 120960, Note_on_c, 7, 48, 100
9, 122400, Note_on_c, 7, 48, 0
9, 122460, Note_on_c, 7, 64, 100
9, 122520, Note_on_c, 7, 64, 0
9, 122520, Note_on_c, 7, 65, 100
9, 122580, Note_on_c, 7, 65, 0
9, 122580, Note_on_c, 7, 64, 100
9, 122640, Note_on_c, 7, 64, 0
9, 122640, Note_on_c, 7, 65, 100
9, 122700, Note_on_c, 7, 65, 0
9, 122700, Note_on_c, 7, 63, 100
9, 122760, Note_on_c, 7, 63, 0
9, 122760, Note_on_c, 7, 62, 100
9, 122820, Note_on_c, 7, 62, 0
9, 122820, Note_on_c, 7, 60, 100
9, 122880, Note_on_c, 7, 60, 0
9, 122880, Note_on_c, 7, 58, 100
9, 123000, Note_on_c, 7, 58, 0
9, 123720, Note_on_c, 7, 67, 100
9, 123840, Note_on_c, 7, 67, 0
9, 123840, Note_on_c, 7, 65, 100
9, 123960, Note_on_c, 7, 65, 0
9, 123960, Note_on_c, 7, 63, 100
9, 124080, Note_on_c, 7, 63, 0
9, 124080, Note_on_c, 7, 62, 100
9, 124200, Note_on_c, 7, 62, 0
9, 124200, Note_on_c, 7, 58, 100
9, 124320, Note_on_c, 7, 58, 0
9, 124320, Note_on_c, 7, 58, 100
9, 124440, Note_on_c, 7, 58, 0
9, 124800, Note_on_c, 7, 56, 100
9, 124920, Note_on_c, 7, 56, 0
9, 125040, Note_on_c, 7, 56, 100
9, 125160, Note_on_c, 7, 56, 0
9, 125280, Note_on_c, 7, 63, 100
9, 125280, Note_on_c, 7, 60, 100
9, 125760, Note_on_c, 7, 60, 0
9, 125760, Note_on_c, 7, 63, 0
9, 125880, Note_on_c, 7, 58, 100
9, 126000, Note_on_c, 7, 58, 0
9, 126000, Note_on_c, 7, 58, 100
9, 126120, Note_on_c, 7, 58, 0
9, 126120, Note_on_c, 7, 58, 100
9, 126240, Note_on_c, 7, 58, 0
9, 126240, Note_on_c, 7, 58, 100
9, 126360, Note_on_c, 7, 58, 0
9, 126360, Note_on_c, 7, 58, 100
9, 126420, Note_on_c, 7, 58, 0
9, 126420, Note_on_c, 7, 58, 100
9, 126480, Note_on_c, 7, 58, 0
9, 126480, Note_on_c, 7, 58, 100
9, 126540, Note_on_c, 7, 58, 0
9, 126540, Note_on_c, 7, 58, 100
9, 126600, Note_on_c, 7, 58, 0
9, 126600, Note_on_c, 7, 58, 100
9, 126660, Note_on_c, 7, 58, 0
9, 126660, Note_on_c, 7, 58, 100
9, 126720, Note_on_c, 7, 58, 0
9, 126720, Note_on_c, 7, 58, 100
9, 126840, Note_on_c, 7, 58, 0
9, 127680, Note_on_c, 7, 56, 100
9, 127800, Note_on_c, 7, 56, 0
9, 127800, Note_on_c, 7, 60, 100
9, 127920, Note_on_c, 7, 60, 0
9, 127920, Note_on_c, 7, 58, 100
9, 128040, Note_on_c, 7, 58, 0
9, 128040, Note_on_c, 7, 56, 100
9, 128160, Note_on_c, 7, 56, 0
9, 128160, Note_on_c, 7, 56, 100
9, 128640, Note_on_c, 7, 56, 0
9, 128640, Note_on_c, 7, 55, 100
9, 128760, Note_on_c, 7, 55, 0
9, 128760, Note_on_c, 7, 58, 100
9, 128880, Note_on_c, 7, 58, 0
9, 128880, Note_on_c, 7, 56, 100
9, 129000, Note_on_c, 7, 56, 0
9, 129000, Note_on_c, 7, 55, 100
9, 129120, Note_on_c, 7, 55, 0
9, 129120, Note_on_c, 7, 55, 100
9, 129600, Note_on_c, 7, 55, 0
9, 129600, Note_on_c, 7, 53, 100
9, 129720, Note_on_c, 7, 53, 0
9, 129720, Note_on_c, 7, 56, 100
9, 129840, Note_on_c, 7, 56, 0
9, 129840, Note_on_c, 7, 55, 100
9, 129960, Note_on_c, 7, 55, 0
9, 129960, Note_on_c, 7, 53, 100
9, 130080, Note_on_c, 7, 53, 0
9, 130080, Note_on_c, 7, 51, 100
9, 130200, Note_on_c, 7, 51, 0
9, 130200, Note_on_c, 7, 51, 100
9, 130260, Note_on_c, 7, 51, 0
9, 130260, Note_on_c, 7, 51, 100
9, 130320, Note_on_c, 7, 51, 0
9, 130320, Note_on_c, 7, 51, 100
9, 130380, Note_on_c, 7, 51, 0
9, 130380, Note_on_c, 7, 51, 100
9, 130440, Note_on_c, 7, 51, 0
9, 130440, Note_on_c, 7, 51, 100
9, 130500, Note_on_c, 7, 51, 0
9, 130500, Note_on_c, 7, 51, 100
9, 130560, Note_on_c, 7, 51, 0
9, 130560, Note_on_c, 7, 51, 100
9, 130680, Note_on_c, 7, 51, 0
9, 130680, Note_on_c, 7, 58, 100
9, 130800, Note_on_c, 7, 58, 0
9, 130800, Note_on_c, 7, 56, 100
9, 130920, Note_on_c, 7, 56, 0
9, 130920, Note_on_c, 7, 54, 100
9, 131040, Note_on_c, 7, 54, 0
9, 131040, Note_on_c, 7, 53, 100
9, 131160, Note_on_c, 7, 53, 0
9, 131520, Note_on_c, 7, 58, 100
9, 132120, Note_on_c, 7, 58, 0
9, 132480, Note_on_c, 7, 56, 100
9, 133080, Note_on_c, 7, 56, 0
9, 133440, Note_on_c, 7, 55, 100
9, 133920, Note_on_c, 7, 55, 0
9, 133920, Note_on_c, 7, 56, 100
9, 134040, Note_on_c, 7, 56, 0
9, 134160, Note_on_c, 7, 53, 100
9, 134400, Note_on_c, 7, 53, 0
9, 134400, Note_on_c, 7, 55, 100
9, 134640, Note_on_c, 7, 55, 0
9, 134640, Note_on_c, 7, 56, 100
9, 134880, Note_on_c, 7, 56, 0
9, 134880, Note_on_c, 7, 58, 100
9, 135000, Note_on_c, 7, 58, 0
9, 135960, Note_on_c, 7, 63, 100
9, 135990, Note_on_c, 7, 63, 0
9, 135990, Note_on_c, 7, 65, 100
9, 136020, Note_on_c, 7, 65, 0
9, 136020, Note_on_c, 7, 63, 100
9, 136050, Note_on_c, 7, 63, 0
9, 136050, Note_on_c, 7, 65, 100
9, 136080, Note_on_c, 7, 65, 0
9, 136080, Note_on_c, 7, 67, 100
9, 136140, Note_on_c, 7, 67, 0
9, 136140, Note_on_c, 7, 67, 100
9, 136200, Note_on_c, 7, 67, 0
9, 136200, Note_on_c, 7, 67, 100
9, 136260, Note_on_c, 7, 67, 0
9, 136260, Note_on_c, 7, 67, 100
9, 136320, Note_on_c, 7, 67, 0
9, 136320, Note_on_c, 7, 67, 100
9, 136380, Note_on_c, 7, 67, 0
9, 136380, Note_on_c, 7, 51, 100
9, 136440, Note_on_c, 7, 51, 0
9, 136440, Note_on_c, 7, 51, 100
9, 136500, Note_on_c, 7, 51, 0
9, 136500, Note_on_c, 7, 51, 100
9, 136560, Note_on_c, 7, 51, 0
9, 136620, Note_on_c, 7, 51, 100
9, 136680, Note_on_c, 7, 51, 0
9, 136680, Note_on_c, 7, 51, 100
9, 136740, Note_on_c, 7, 51, 0
9, 136740, Note_on_c, 7, 51, 100
9, 136800, Note_on_c, 7, 51, 0
9, 136860, Note_on_c, 7, 50, 100
9, 136920, Note_on_c, 7, 50, 0
9, 136920, Note_on_c, 7, 50, 100
9, 136980, Note_on_c, 7, 50, 0
9, 136980, Note_on_c, 7, 50, 100
9, 137040, Note_on_c, 7, 50, 0
9, 137100, Note_on_c, 7, 53, 100
9, 137160, Note_on_c, 7, 53, 0
9, 137160, Note_on_c, 7, 53, 100
9, 137220, Note_on_c, 7, 53, 0
9, 137220, Note_on_c, 7, 53, 100
9, 137280, Note_on_c, 7, 53, 0
9, 137280, Note_on_c, 7, 55, 100
9, 137460, Note_on_c, 7, 55, 0
9, 137460, Note_on_c, 7, 50, 100
9, 137520, Note_on_c, 7, 50, 0
9, 137520, Note_on_c, 7, 51, 100
9, 137700, Note_on_c, 7, 51, 0
9, 137700, Note_on_c, 7, 56, 100
9, 137760, Note_on_c, 7, 56, 0
9, 137760, Note_on_c, 7, 55, 100
9, 138000, Note_on_c, 7, 55, 0
9, 138000, Note_on_c, 7, 53, 100
9, 138120, Note_on_c, 7, 53, 0
9, 138240, Note_on_c, 7, 51, 100
9, 138360, Note_on_c, 7, 51, 0
9, 138480, Note_on_c, 7, 51, 100
9, 138600, Note_on_c, 7, 51, 0
9, 138720, Note_on_c, 7, 50, 100
9, 138840, Note_on_c, 7, 50, 0
9, 138960, Note_on_c, 7, 56, 100
9, 139080, Note_on_c, 7, 56, 0
9, 139200, Note_on_c, 7, 55, 100
9, 139260, Note_on_c, 7, 55, 0
9, 139260, Note_on_c, 7, 67, 100
9, 139320, Note_on_c, 7, 67, 0
9, 139320, Note_on_c, 7, 65, 100
9, 139380, Note_on_c, 7, 65, 0
9, 139380, Note_on_c, 7, 63, 100
9, 139440, Note_on_c, 7, 63, 0
9, 139440, Note_on_c, 7, 63, 100
9, 139500, Note_on_c, 7, 63, 0
9, 139500, Note_on_c, 7, 62, 100
9, 139560, Note_on_c, 7, 62, 0
9, 139560, Note_on_c, 7, 62, 100
9, 139620, Note_on_c, 7, 62, 0
9, 139620, Note_on_c, 7, 60, 100
9, 139680, Note_on_c, 7, 60, 0
9, 139680, Note_on_c, 7, 58, 100
9, 139800, Note_on_c, 7, 58, 0
9, 140160, Note_on_c, 7, 55, 100
9, 140220, Note_on_c, 7, 55, 0
9, 140220, Note_on_c, 7, 58, 100
9, 140280, Note_on_c, 7, 58, 0
9, 140280, Note_on_c, 7, 55, 100
9, 140340, Note_on_c, 7, 55, 0
9, 140340, Note_on_c, 7, 58, 100
9, 140400, Note_on_c, 7, 58, 0
9, 140400, Note_on_c, 7, 55, 100
9, 140460, Note_on_c, 7, 55, 0
9, 140460, Note_on_c, 7, 58, 100
9, 140520, Note_on_c, 7, 58, 0
9, 140520, Note_on_c, 7, 55, 100
9, 140580, Note_on_c, 7, 55, 0
9, 140580, Note_on_c, 7, 58, 100
9, 140640, Note_on_c, 7, 58, 0
9, 140640, Note_on_c, 7, 55, 100
9, 140700, Note_on_c, 7, 55, 0
9, 140700, Note_on_c, 7, 58, 100
9, 140760, Note_on_c, 7, 58, 0
9, 140760, Note_on_c, 7, 55, 100
9, 140820, Note_on_c, 7, 55, 0
9, 140820, Note_on_c, 7, 58, 100
9, 140880, Note_on_c, 7, 58, 0
9, 140880, Note_on_c, 7, 55, 100
9, 140940, Note_on_c, 7, 55, 0
9, 140940, Note_on_c, 7, 58, 100
9, 141000, Note_on_c, 7, 58, 0
9, 141000, Note_on_c, 7, 55, 100
9, 141060, Note_on_c, 7, 55, 0
9, 141060, Note_on_c, 7, 58, 100
9, 141120, Note_on_c, 7, 58, 0
9, 141120, Note_on_c, 7, 56, 100
9, 141180, Note_on_c, 7, 56, 0
9, 141180, Note_on_c, 7, 58, 100
9, 141240, Note_on_c, 7, 58, 0
9, 141240, Note_on_c, 7, 56, 100
9, 141300, Note_on_c, 7, 56, 0
9, 141300, Note_on_c, 7, 58, 100
9, 141360, Note_on_c, 7, 58, 0
9, 141360, Note_on_c, 7, 55, 100
9, 141420, Note_on_c, 7, 55, 0
9, 141420, Note_on_c, 7, 58, 100
9, 141480, Note_on_c, 7, 58, 0
9, 141480, Note_on_c, 7, 55, 100
9, 141540, Note_on_c, 7, 55, 0
9, 141540, Note_on_c, 7, 58, 100
9, 141600, Note_on_c, 7, 58, 0
9, 141600, Note_on_c, 7, 53, 100
9, 141660, Note_on_c, 7, 53, 0
9, 141660, Note_on_c, 7, 58, 100
9, 141720, Note_on_c, 7, 58, 0
9, 141720, Note_on_c, 7, 53, 100
9, 141780, Note_on_c, 7, 53, 0
9, 141780, Note_on_c, 7, 58, 100
9, 141840, Note_on_c, 7, 58, 0
9, 141840, Note_on_c, 7, 53, 100
9, 141900, Note_on_c, 7, 53, 0
9, 141900, Note_on_c, 7, 58, 100
9, 141960, Note_on_c, 7, 58, 0
9, 141960, Note_on_c, 7, 53, 100
9, 142020, Note_on_c, 7, 53, 0
9, 142020, Note_on_c, 7, 58, 100
9, 142080, Note_on_c, 7, 58, 0
9, 142080, Note_on_c, 7, 55, 100
9, 142140, Note_on_c, 7, 55, 0
9, 142140, Note_on_c, 7, 58, 100
9, 142200, Note_on_c, 7, 58, 0
9, 142200, Note_on_c, 7, 55, 100
9, 142260, Note_on_c, 7, 55, 0
9, 142260, Note_on_c, 7, 58, 100
9, 142320, Note_on_c, 7, 58, 0
9, 142320, Note_on_c, 7, 55, 100
9, 142380, Note_on_c, 7, 55, 0
9, 142380, Note_on_c, 7, 58, 100
9, 142440, Note_on_c, 7, 58, 0
9, 142440, Note_on_c, 7, 55, 100
9, 142500, Note_on_c, 7, 55, 0
9, 142500, Note_on_c, 7, 58, 100
9, 142560, Note_on_c, 7, 58, 0
9, 142560, Note_on_c, 7, 55, 100
9, 142620, Note_on_c, 7, 55, 0
9, 142620, Note_on_c, 7, 58, 100
9, 142680, Note_on_c, 7, 58, 0
9, 142680, Note_on_c, 7, 55, 100
9, 142740, Note_on_c, 7, 55, 0
9, 142740, Note_on_c, 7, 58, 100
9, 142800, Note_on_c, 7, 58, 0
9, 142800, Note_on_c, 7, 55, 100
9, 142860, Note_on_c, 7, 55, 0
9, 142860, Note_on_c, 7, 58, 100
9, 142920, Note_on_c, 7, 58, 0
9, 142920, Note_on_c, 7, 55, 100
9, 142980, Note_on_c, 7, 55, 0
9, 142980, Note_on_c, 7, 58, 100
9, 143040, Note_on_c, 7, 58, 0
9, 143040, Note_on_c, 7, 56, 100
9, 143100, Note_on_c, 7, 56, 0
9, 143100, Note_on_c, 7, 58, 100
9, 143160, Note_on_c, 7, 58, 0
9, 143160, Note_on_c, 7, 56, 100
9, 143220, Note_on_c, 7, 56, 0
9, 143220, Note_on_c, 7, 58, 100
9, 143280, Note_on_c, 7, 58, 0
9, 143280, Note_on_c, 7, 55, 100
9, 143340, Note_on_c, 7, 55, 0
9, 143340, Note_on_c, 7, 58, 100
9, 143400, Note_on_c, 7, 58, 0
9, 143400, Note_on_c, 7, 55, 100
9, 143460, Note_on_c, 7, 55, 0
9, 143460, Note_on_c, 7, 58, 100
9, 143520, Note_on_c, 7, 58, 0
9, 143520, Note_on_c, 7, 53, 100
9, 143580, Note_on_c, 7, 53, 0
9, 143580, Note_on_c, 7, 58, 100
9, 143640, Note_on_c, 7, 58, 0
9, 143640, Note_on_c, 7, 53, 100
9, 143700, Note_on_c, 7, 53, 0
9, 143700, Note_on_c, 7, 58, 100
9, 143760, Note_on_c, 7, 58, 0
9, 143760, Note_on_c, 7, 53, 100
9, 143820, Note_on_c, 7, 53, 0
9, 143820, Note_on_c, 7, 58, 100
9, 143880, Note_on_c, 7, 58, 0
9, 143880, Note_on_c, 7, 53, 100
9, 143940, Note_on_c, 7, 53, 0
9, 143940, Note_on_c, 7, 58, 100
9, 144000, Note_on_c, 7, 58, 0
9, 144000, Note_on_c, 7, 63, 100
9, 144060, Note_on_c, 7, 63, 0
9, 144300, Note_on_c, 7, 58, 100
9, 144360, Note_on_c, 7, 58, 0
9, 144360, Note_on_c, 7, 60, 100
9, 144420, Note_on_c, 7, 60, 0
9, 144420, Note_on_c, 7, 62, 100
9, 144480, Note_on_c, 7, 62, 0
9, 144480, Note_on_c, 7, 63, 100
9, 144540, Note_on_c, 7, 63, 0
9, 144780, Note_on_c, 7, 58, 100
9, 144840, Note_on_c, 7, 58, 0
9, 144840, Note_on_c, 7, 60, 100
9, 144900, Note_on_c, 7, 60, 0
9, 144900, Note_on_c, 7, 62, 100
9, 144960, Note_on_c, 7, 62, 0
9, 144960, Note_on_c, 7, 63, 100
9, 145080, Note_on_c, 7, 63, 0
9, 145260, Note_on_c, 7, 51, 100
9, 145320, Note_on_c, 7, 51, 0
9, 145320, Note_on_c, 7, 53, 100
9, 145380, Note_on_c, 7, 53, 0
9, 145380, Note_on_c, 7, 55, 100
9, 145440, Note_on_c, 7, 55, 0
9, 145440, Note_on_c, 7, 56, 100
9, 145560, Note_on_c, 7, 56, 0
9, 145800, Note_on_c, 7, 53, 100
9, 145920, Note_on_c, 7, 53, 0
9, 145920, Note_on_c, 7, 55, 100
9, 145980, Note_on_c, 7, 55, 0
9, 146040, Note_on_c, 7, 56, 100
9, 146100, Note_on_c, 7, 56, 0
9, 146160, Note_on_c, 7, 58, 100
9, 146220, Note_on_c, 7, 58, 0
9, 146280, Note_on_c, 7, 56, 100
9, 146340, Note_on_c, 7, 56, 0
9, 146400, Note_on_c, 7, 55, 100
9, 146520, Note_on_c, 7, 55, 0
9, 146700, Note_on_c, 7, 58, 100
9, 146760, Note_on_c, 7, 58, 0
9, 146760, Note_on_c, 7, 60, 100
9, 146820, Note_on_c, 7, 60, 0
9, 146820, Note_on_c, 7, 62, 100
9, 146880, Note_on_c, 7, 62, 0
9, 146880, Note_on_c, 7, 63, 100
9, 146940, Note_on_c, 7, 63, 0
9, 147180, Note_on_c, 7, 58, 100
9, 147240, Note_on_c, 7, 58, 0
9, 147240, Note_on_c, 7, 60, 100
9, 147300, Note_on_c, 7, 60, 0
9, 147300, Note_on_c, 7, 62, 100
9, 147360, Note_on_c, 7, 62, 0
9, 147360, Note_on_c, 7, 63, 100
9, 147480, Note_on_c, 7, 63, 0
9, 148140, Note_on_c, 7, 55, 100
9, 148200, Note_on_c, 7, 55, 0
9, 148200, Note_on_c, 7, 56, 100
9, 148260, Note_on_c, 7, 56, 0
9, 148260, Note_on_c, 7, 58, 100
9, 148320, Note_on_c, 7, 58, 0
9, 148320, Note_on_c, 7, 60, 100
9, 148380, Note_on_c, 7, 60, 0
9, 148440, Note_on_c, 7, 60, 100
9, 148500, Note_on_c, 7, 60, 0
9, 148560, Note_on_c, 7, 60, 100
9, 148620, Note_on_c, 7, 60, 0
9, 148680, Note_on_c, 7, 60, 100
9, 148740, Note_on_c, 7, 60, 0
9, 148800, Note_on_c, 7, 60, 100
9, 148920, Note_on_c, 7, 60, 0
9, 149280, Note_on_c, 7, 58, 100
9, 150360, Note_on_c, 7, 58, 0
9, 151200, Note_on_c, 7, 49, 100
9, 151440, Note_on_c, 7, 49, 0
9, 151440, Note_on_c, 7, 49, 100
9, 151560, Note_on_c, 7, 49, 0
9, 151560, Note_on_c, 7, 49, 100
9, 151680, Note_on_c, 7, 49, 0
9, 151680, Note_on_c, 7, 48, 100
9, 152160, Note_on_c, 7, 48, 0
9, 152160, Note_on_c, 7, 55, 100
9, 152400, Note_on_c, 7, 55, 0
9, 152400, Note_on_c, 7, 58, 100
9, 152640, Note_on_c, 7, 58, 0
9, 152640, Note_on_c, 7, 51, 100
9, 152760, Note_on_c, 7, 51, 0
9, 153660, Note_on_c, 7, 51, 100
9, 153720, Note_on_c, 7, 51, 0
9, 153720, Note_on_c, 7, 51, 100
9, 153780, Note_on_c, 7, 51, 0
9, 153780, Note_on_c, 7, 51, 100
9, 153840, Note_on_c, 7, 51, 0
9, 153900, Note_on_c, 7, 53, 100
9, 153960, Note_on_c, 7, 53, 0
9, 153960, Note_on_c, 7, 53, 100
9, 154020, Note_on_c, 7, 53, 0
9, 154020, Note_on_c, 7, 53, 100
9, 154080, Note_on_c, 7, 53, 0
9, 154140, Note_on_c, 7, 55, 100
9, 154200, Note_on_c, 7, 55, 0
9, 154200, Note_on_c, 7, 55, 100
9, 154260, Note_on_c, 7, 55, 0
9, 154260, Note_on_c, 7, 55, 100
9, 154320, Note_on_c, 7, 55, 0
9, 154320, Note_on_c, 7, 56, 100
9, 154380, Note_on_c, 7, 56, 0
9, 154380, Note_on_c, 7, 56, 100
9, 154440, Note_on_c, 7, 56, 0
9, 154440, Note_on_c, 7, 53, 100
9, 154500, Note_on_c, 7, 53, 0
9, 154500, Note_on_c, 7, 53, 100
9, 154560, Note_on_c, 7, 53, 0
9, 154560, Note_on_c, 7, 51, 100
9, 154680, Note_on_c, 7, 51, 0
9, 155520, Note_on_c, 7, 58, 100
9, 156060, Note_on_c, 7, 58, 0
9, 156060, Note_on_c, 7, 58, 100
9, 156120, Note_on_c, 7, 58, 0
9, 156120, Note_on_c, 7, 58, 100
9, 156180, Note_on_c, 7, 58, 0
9, 156180, Note_on_c, 7, 58, 100
9, 156240, Note_on_c, 7, 58, 0
9, 156240, Note_on_c, 7, 58, 100
9, 156300, Note_on_c, 7, 58, 0
9, 156300, Note_on_c, 7, 58, 100
9, 156360, Note_on_c, 7, 58, 0
9, 156360, Note_on_c, 7, 58, 100
9, 156420, Note_on_c, 7, 58, 0
9, 156420, Note_on_c, 7, 58, 100
9, 156480, Note_on_c, 7, 58, 0
9, 156480, Note_on_c, 7, 58, 100
9, 156540, Note_on_c, 7, 58, 0
9, 156540, Note_on_c, 7, 58, 100
9, 156600, Note_on_c, 7, 58, 0
9, 156600, Note_on_c, 7, 58, 100
9, 156660, Note_on_c, 7, 58, 0
9, 156660, Note_on_c, 7, 58, 100
9, 156720, Note_on_c, 7, 58, 0
9, 156720, Note_on_c, 7, 58, 100
9, 156780, Note_on_c, 7, 58, 0
9, 156780, Note_on_c, 7, 58, 100
9, 156840, Note_on_c, 7, 58, 0
9, 156840, Note_on_c, 7, 58, 100
9, 156900, Note_on_c, 7, 58, 0
9, 156900, Note_on_c, 7, 58, 100
9, 156960, Note_on_c, 7, 58, 0
9, 156960, Note_on_c, 7, 51, 100
9, 157020, Note_on_c, 7, 51, 0
9, 157020, Note_on_c, 7, 53, 100
9, 157050, Note_on_c, 7, 53, 0
9, 157050, Note_on_c, 7, 55, 100
9, 157080, Note_on_c, 7, 55, 0
9, 157080, Note_on_c, 7, 56, 100
9, 157110, Note_on_c, 7, 56, 0
9, 157110, Note_on_c, 7, 58, 100
9, 157140, Note_on_c, 7, 58, 0
9, 157140, Note_on_c, 7, 60, 100
9, 157170, Note_on_c, 7, 60, 0
9, 157170, Note_on_c, 7, 62, 100
9, 157200, Note_on_c, 7, 62, 0
9, 157200, Note_on_c, 7, 63, 100
9, 157230, Note_on_c, 7, 63, 0
9, 157230, Note_on_c, 7, 62, 100
9, 157260, Note_on_c, 7, 62, 0
9, 157260, Note_on_c, 7, 63, 100
9, 157290, Note_on_c, 7, 63, 0
9, 157290, Note_on_c, 7, 65, 100
9, 157320, Note_on_c, 7, 65, 0
9, 157320, Note_on_c, 7, 67, 100
9, 157350, Note_on_c, 7, 67, 0
9, 157350, Note_on_c, 7, 65, 100
9, 157380, Note_on_c, 7, 65, 0
9, 157380, Note_on_c, 7, 63, 100
9, 157410, Note_on_c, 7, 63, 0
9, 157410, Note_on_c, 7, 62, 100
9, 157440, Note_on_c, 7, 62, 0
9, 157440, Note_on_c, 7, 60, 100
9, 157470, Note_on_c, 7, 60, 0
9, 157470, Note_on_c, 7, 59, 100
9, 157500, Note_on_c, 7, 59, 0
9, 157500, Note_on_c, 7, 60, 100
9, 157530, Note_on_c, 7, 60, 0
9, 157530, Note_on_c, 7, 62, 100
9, 157560, Note_on_c, 7, 62, 0
9, 157560, Note_on_c, 7, 63, 100
9, 157590, Note_on_c, 7, 63, 0
9, 157590, Note_on_c, 7, 62, 100
9, 157620, Note_on_c, 7, 62, 0
9, 157620, Note_on_c, 7, 60, 100
9, 157650, Note_on_c, 7, 60, 0
9, 157650, Note_on_c, 7, 58, 100
9, 157680, Note_on_c, 7, 58, 0
9, 157680, Note_on_c, 7, 56, 100
9, 157710, Note_on_c, 7, 56, 0
9, 157710, Note_on_c, 7, 55, 100
9, 157740, Note_on_c, 7, 55, 0
9, 157740, Note_on_c, 7, 56, 100
9, 157770, Note_on_c, 7, 56, 0
9, 157770, Note_on_c, 7, 58, 100
9, 157800, Note_on_c, 7, 58, 0
9, 157800, Note_on_c, 7, 60, 100
9, 157830, Note_on_c, 7, 60, 0
9, 157830, Note_on_c, 7, 58, 100
9, 157860, Note_on_c, 7, 58, 0
9, 157860, Note_on_c, 7, 56, 100
9, 157890, Note_on_c, 7, 56, 0
9, 157890, Note_on_c, 7, 55, 100
9, 157920, Note_on_c, 7, 55, 0
9, 157920, Note_on_c, 7, 53, 100
9, 157980, Note_on_c, 7, 53, 0
9, 157980, Note_on_c, 7, 55, 100
9, 158010, Note_on_c, 7, 55, 0
9, 158010, Note_on_c, 7, 56, 100
9, 158040, Note_on_c, 7, 56, 0
9, 158040, Note_on_c, 7, 58, 100
9, 158070, Note_on_c, 7, 58, 0
9, 158070, Note_on_c, 7, 60, 100
9, 158100, Note_on_c, 7, 60, 0
9, 158100, Note_on_c, 7, 62, 100
9, 158130, Note_on_c, 7, 62, 0
9, 158130, Note_on_c, 7, 63, 100
9, 158160, Note_on_c, 7, 63, 0
9, 158160, Note_on_c, 7, 65, 100
9, 158190, Note_on_c, 7, 65, 0
9, 158190, Note_on_c, 7, 63, 100
9, 158220, Note_on_c, 7, 63, 0
9, 158220, Note_on_c, 7, 65, 100
9, 158250, Note_on_c, 7, 65, 0
9, 158250, Note_on_c, 7, 67, 100
9, 158280, Note_on_c, 7, 67, 0
9, 158280, Note_on_c, 7, 68, 100
9, 158310, Note_on_c, 7, 68, 0
9, 158310, Note_on_c, 7, 67, 100
9, 158340, Note_on_c, 7, 67, 0
9, 158340, Note_on_c, 7, 65, 100
9, 158370, Note_on_c, 7, 65, 0
9, 158370, Note_on_c, 7, 63, 100
9, 158400, Note_on_c, 7, 63, 0
9, 158400, Note_on_c, 7, 62, 100
9, 158430, Note_on_c, 7, 62, 0
9, 158430, Note_on_c, 7, 60, 100
9, 158460, Note_on_c, 7, 60, 0
9, 158460, Note_on_c, 7, 62, 100
9, 158490, Note_on_c, 7, 62, 0
9, 158490, Note_on_c, 7, 63, 100
9, 158520, Note_on_c, 7, 63, 0
9, 158520, Note_on_c, 7, 65, 100
9, 158550, Note_on_c, 7, 65, 0
9, 158550, Note_on_c, 7, 63, 100
9, 158580, Note_on_c, 7, 63, 0
9, 158580, Note_on_c, 7, 62, 100
9, 158610, Note_on_c, 7, 62, 0
9, 158610, Note_on_c, 7, 60, 100
9, 158640, Note_on_c, 7, 60, 0
9, 158640, Note_on_c, 7, 58, 100
9, 158670, Note_on_c, 7, 58, 0
9, 158670, Note_on_c, 7, 57, 100
9, 158700, Note_on_c, 7, 57, 0
9, 158700, Note_on_c, 7, 58, 100
9, 158730, Note_on_c, 7, 58, 0
9, 158730, Note_on_c, 7, 60, 100
9, 158760, Note_on_c, 7, 60, 0
9, 158760, Note_on_c, 7, 62, 100
9, 158790, Note_on_c, 7, 62, 0
9, 158790, Note_on_c, 7, 60, 100
9, 158820, Note_on_c, 7, 60, 0
9, 158820, Note_on_c, 7, 58, 100
9, 158850, Note_on_c, 7, 58, 0
9, 158850, Note_on_c, 7, 56, 100
9, 158880, Note_on_c, 7, 56, 0
9, 158880, Note_on_c, 7, 55, 100
9, 158940, Note_on_c, 7, 55, 0
9, 158940, Note_on_c, 7, 56, 100
9, 158970, Note_on_c, 7, 56, 0
9, 158970, Note_on_c, 7, 58, 100
9, 159000, Note_on_c, 7, 58, 0
9, 159000, Note_on_c, 7, 60, 100
9, 159030, Note_on_c, 7, 60, 0
9, 159030, Note_on_c, 7, 62, 100
9, 159060, Note_on_c, 7, 62, 0
9, 159060, Note_on_c, 7, 63, 100
9, 159090, Note_on_c, 7, 63, 0
9, 159090, Note_on_c, 7, 65, 100
9, 159120, Note_on_c, 7, 65, 0
9, 159120, Note_on_c, 7, 67, 100
9, 159150, Note_on_c, 7, 67, 0
9, 159150, Note_on_c, 7, 65, 100
9, 159180, Note_on_c, 7, 65, 0
9, 159180, Note_on_c, 7, 67, 100
9, 159210, Note_on_c, 7, 67, 0
9, 159210, Note_on_c, 7, 68, 100
9, 159240, Note_on_c, 7, 68, 0
9, 159240, Note_on_c, 7, 70, 100
9, 159270, Note_on_c, 7, 70, 0
9, 159270, Note_on_c, 7, 68, 100
9, 159300, Note_on_c, 7, 68, 0
9, 159300, Note_on_c, 7, 67, 100
9, 159330, Note_on_c, 7, 67, 0
9, 159330, Note_on_c, 7, 65, 100
9, 159360, Note_on_c, 7, 65, 0
9, 159360, Note_on_c, 7, 63, 100
9, 159390, Note_on_c, 7, 63, 0
9, 159390, Note_on_c, 7, 62, 100
9, 159420, Note_on_c, 7, 62, 0
9, 159420, Note_on_c, 7, 63, 100
9, 159450, Note_on_c, 7, 63, 0
9, 159450, Note_on_c, 7, 65, 100
9, 159480, Note_on_c, 7, 65, 0
9, 159480, Note_on_c, 7, 67, 100
9, 159510, Note_on_c, 7, 67, 0
9, 159510, Note_on_c, 7, 65, 100
9, 159540, Note_on_c, 7, 65, 0
9, 159540, Note_on_c, 7, 63, 100
9, 159570, Note_on_c, 7, 63, 0
9, 159570, Note_on_c, 7, 62, 100
9, 159600, Note_on_c, 7, 62, 0
9, 159600, Note_on_c, 7, 60, 100
9, 159630, Note_on_c, 7, 60, 0
9, 159630, Note_on_c, 7, 59, 100
9, 159660, Note_on_c, 7, 59, 0
9, 159660, Note_on_c, 7, 60, 100
9, 159690, Note_on_c, 7, 60, 0
9, 159690, Note_on_c, 7, 62, 100
9, 159720, Note_on_c, 7, 62, 0
9, 159720, Note_on_c, 7, 63, 100
9, 159750, Note_on_c, 7, 63, 0
9, 159750, Note_on_c, 7, 62, 100
9, 159780, Note_on_c, 7, 62, 0
9, 159780, Note_on_c, 7, 60, 100
9, 159810, Note_on_c, 7, 60, 0
9, 159810, Note_on_c, 7, 58, 100
9, 159840, Note_on_c, 7, 58, 0
9, 159840, Note_on_c, 7, 56, 100
9, 159900, Note_on_c, 7, 56, 0
9, 159900, Note_on_c, 7, 48, 100
9, 160020, Note_on_c, 7, 48, 0
9, 160020, Note_on_c, 7, 48, 100
9, 160140, Note_on_c, 7, 48, 0
9, 160140, Note_on_c, 7, 48, 100
9, 160260, Note_on_c, 7, 48, 0
9, 160260, Note_on_c, 7, 48, 100
9, 160380, Note_on_c, 7, 48, 0
9, 160380, Note_on_c, 7, 48, 100
9, 160500, Note_on_c, 7, 48, 0
9, 160500, Note_on_c, 7, 48, 100
9, 160620, Note_on_c, 7, 48, 0
9, 160620, Note_on_c, 7, 48, 100
9, 160740, Note_on_c, 7, 48, 0
9, 160740, Note_on_c, 7, 48, 100
9, 160860, Note_on_c, 7, 48, 0
9, 160860, Note_on_c, 7, 69, 100
9, 160980, Note_on_c, 7, 69, 0
9, 160980, Note_on_c, 7, 69, 100
9, 161100, Note_on_c, 7, 69, 0
9, 161100, Note_on_c, 7, 69, 100
9, 161220, Note_on_c, 7, 69, 0
9, 161220, Note_on_c, 7, 69, 100
9, 161340, Note_on_c, 7, 69, 0
9, 161340, Note_on_c, 7, 69, 100
9, 161460, Note_on_c, 7, 69, 0
9, 161460, Note_on_c, 7, 69, 100
9, 161580, Note_on_c, 7, 69, 0
9, 161580, Note_on_c, 7, 69, 100
9, 161700, Note_on_c, 7, 69, 0
9, 161700, Note_on_c, 7, 69, 100
9, 161760, Note_on_c, 7, 69, 0
9, 161760, Note_on_c, 7, 70, 100
9, 162000, Note_on_c, 7, 70, 0
9, 174240, Note_on_c, 7, 51, 100
9, 174480, Note_on_c, 7, 51, 0
9, 174480, Note_on_c, 7, 63, 100
9, 174660, Note_on_c, 7, 63, 0
9, 174660, Note_on_c, 7, 62, 100
9, 174690, Note_on_c, 7, 62, 0
9, 174690, Note_on_c, 7, 63, 100
9, 174720, Note_on_c, 7, 63, 0
9, 174720, Note_on_c, 7, 67, 100
9, 174960, Note_on_c, 7, 67, 0
9, 174960, Note_on_c, 7, 70, 100
9, 175200, Note_on_c, 7, 70, 0
9, 175200, Note_on_c, 7, 75, 100
9, 175440, Note_on_c, 7, 75, 0
9, 175440, Note_on_c, 7, 60, 100
9, 175620, Note_on_c, 7, 60, 0
9, 175620, Note_on_c, 7, 59, 100
9, 175650, Note_on_c, 7, 59, 0
9, 175650, Note_on_c, 7, 60, 100
9, 175680, Note_on_c, 7, 60, 0
9, 175680, Note_on_c, 7, 63, 100
9, 175920, Note_on_c, 7, 63, 0
9, 175920, Note_on_c, 7, 67, 100
9, 176160, Note_on_c, 7, 67, 0
9, 176160, Note_on_c, 7, 72, 100
9, 176880, Note_on_c, 7, 72, 0
9, 176880, Note_on_c, 7, 57, 100
9, 177120, Note_on_c, 7, 57, 0
9, 177120, Note_on_c, 7, 58, 100
9, 177360, Note_on_c, 7, 58, 0
9, 177360, Note_on_c, 7, 51, 100
9, 177600, Note_on_c, 7, 51, 0
9, 177600, Note_on_c, 7, 53, 100
9, 177840, Note_on_c, 7, 53, 0
9, 177840, Note_on_c, 7, 55, 100
9, 177960, Note_on_c, 7, 55, 0
9, 177960, Note_on_c, 7, 56, 100
9, 178080, Note_on_c, 7, 56, 0
9, 178080, Note_on_c, 7, 55, 100
9, 178200, Note_on_c, 7, 55, 0
9, 178560, Note_on_c, 7, 56, 100
9, 178560, Note_on_c, 7, 53, 100
9, 179040, Note_on_c, 7, 53, 0
9, 179040, Note_on_c, 7, 56, 0
9, 179040, Note_on_c, 7, 55, 100
9, 179040, Note_on_c, 7, 51, 100
9, 179160, Note_on_c, 7, 51, 0
9, 179160, Note_on_c, 7, 55, 0
9, 179520, Note_on_c, 7, 53, 100
9, 179520, Note_on_c, 7, 56, 100
9, 180000, Note_on_c, 7, 56, 0
9, 180000, Note_on_c, 7, 53, 0
9, 180000, Note_on_c, 7, 51, 100
9, 180000, Note_on_c, 7, 55, 100
9, 180120, Note_on_c, 7, 55, 0
9, 180120, Note_on_c, 7, 51, 0
9, 180120, Note_on_c, 7, 63, 100
9, 180180, Note_on_c, 7, 63, 0
9, 180180, Note_on_c, 7, 67, 100
9, 180240, Note_on_c, 7, 67, 0
9, 180240, Note_on_c, 7, 63, 100
9, 180300, Note_on_c, 7, 63, 0
9, 180300, Note_on_c, 7, 67, 100
9, 180360, Note_on_c, 7, 67, 0
9, 180360, Note_on_c, 7, 63, 100
9, 180420, Note_on_c, 7, 63, 0
9, 180420, Note_on_c, 7, 67, 100
9, 180480, Note_on_c, 7, 67, 0
9, 180480, Note_on_c, 7, 63, 100
9, 180600, Note_on_c, 7, 63, 0
9, 180600, Note_on_c, 7, 63, 100
9, 180660, Note_on_c, 7, 63, 0
9, 180660, Note_on_c, 7, 58, 100
9, 180720, Note_on_c, 7, 58, 0
9, 180720, Note_on_c, 7, 63, 100
9, 180780, Note_on_c, 7, 63, 0
9, 180780, Note_on_c, 7, 58, 100
9, 180840, Note_on_c, 7, 58, 0
9, 180840, Note_on_c, 7, 63, 100
9, 180900, Note_on_c, 7, 63, 0
9, 180900, Note_on_c, 7, 58, 100
9, 180960, Note_on_c, 7, 58, 0
9, 180960, Note_on_c, 7, 63, 100
9, 181200, Note_on_c, 7, 63, 0
9, 181200, Note_on_c, 7, 55, 100
9, 181320, Note_on_c, 7, 55, 0
9, 181320, Note_on_c, 7, 58, 100
9, 181440, Note_on_c, 7, 58, 0
9, 181440, Note_on_c, 7, 63, 100
9, 181560, Note_on_c, 7, 63, 0
9, 181560, Note_on_c, 7, 67, 100
9, 181680, Note_on_c, 7, 67, 0
9, 181680, Note_on_c, 7, 70, 100
9, 181800, Note_on_c, 7, 70, 0
9, 181800, Note_on_c, 7, 67, 100
9, 181920, Note_on_c, 7, 67, 0
9, 181920, Note_on_c, 7, 63, 100
9, 182040, Note_on_c, 7, 63, 0
9, 182040, Note_on_c, 7, 63, 100
9, 182160, Note_on_c, 7, 63, 0
9, 182160, Note_on_c, 7, 63, 100
9, 182280, Note_on_c, 7, 63, 0
9, 182280, Note_on_c, 7, 63, 100
9, 182400, Note_on_c, 7, 63, 0
9, 182400, Note_on_c, 7, 63, 100
9, 182520, Note_on_c, 7, 63, 0
9, 182610, Note_on_c, 7, 51, 100
9, 182640, Note_on_c, 7, 51, 0
9, 182640, Note_on_c, 7, 51, 100
9, 182760, Note_on_c, 7, 51, 0
9, 182850, Note_on_c, 7, 51, 100
9, 182880, Note_on_c, 7, 51, 0
9, 182880, Note_on_c, 7, 51, 100
9, 183120, Note_on_c, 7, 51, 0
9, 183120, End_track
10, 0, Start_track
10, 0, MIDI_port, 0
10, 0, Title_t, "Violoncello"
10, 0, Program_c, 8, 42
10, 0, Note_on_c, 8, 51, 100
10, 480, Note_on_c, 8, 51, 0
10, 480, Note_on_c, 8, 51, 100
10, 720, Note_on_c, 8, 51, 0
10, 720, Note_on_c, 8, 51, 100
10, 900, Note_on_c, 8, 51, 0
10, 900, Note_on_c, 8, 51, 100
10, 960, Note_on_c, 8, 51, 0
10, 960, Note_on_c, 8, 51, 100
10, 1080, Note_on_c, 8, 51, 0
10, 2040, Note_on_c, 8, 65, 100
10, 2100, Note_on_c, 8, 65, 0
10, 2160, Note_on_c, 8, 62, 100
10, 2220, Note_on_c, 8, 62, 0
10, 2280, Note_on_c, 8, 58, 100
10, 2340, Note_on_c, 8, 58, 0
10, 2400, Note_on_c, 8, 56, 100
10, 2460, Note_on_c, 8, 56, 0
10, 2520, Note_on_c, 8, 53, 100
10, 2580, Note_on_c, 8, 53, 0
10, 2640, Note_on_c, 8, 50, 100
10, 2700, Note_on_c, 8, 50, 0
10, 2760, Note_on_c, 8, 46, 100
10, 2820, Note_on_c, 8, 46, 0
10, 2880, Note_on_c, 8, 51, 100
10, 3000, Note_on_c, 8, 51, 0
10, 3960, Note_on_c, 8, 65, 100
10, 4020, Note_on_c, 8, 65, 0
10, 4080, Note_on_c, 8, 62, 100
10, 4140, Note_on_c, 8, 62, 0
10, 4200, Note_on_c, 8, 58, 100
10, 4260, Note_on_c, 8, 58, 0
10, 4320, Note_on_c, 8, 56, 100
10, 4380, Note_on_c, 8, 56, 0
10, 4440, Note_on_c, 8, 53, 100
10, 4500, Note_on_c, 8, 53, 0
10, 4560, Note_on_c, 8, 50, 100
10, 4620, Note_on_c, 8, 50, 0
10, 4680, Note_on_c, 8, 46, 100
10, 4740, Note_on_c, 8, 46, 0
10, 4800, Note_on_c, 8, 51, 100
10, 4860, Note_on_c, 8, 51, 0
10, 4860, Note_on_c, 8, 51, 100
10, 4920, Note_on_c, 8, 51, 0
10, 4920, Note_on_c, 8, 51, 100
10, 4980, Note_on_c, 8, 51, 0
10, 4980, Note_on_c, 8, 51, 100
10, 5040, Note_on_c, 8, 51, 0
10, 5040, Note_on_c, 8, 51, 100
10, 5100, Note_on_c, 8, 51, 0
10, 5100, Note_on_c, 8, 51, 100
10, 5160, Note_on_c, 8, 51, 0
10, 5160, Note_on_c, 8, 51, 100
10, 5220, Note_on_c, 8, 51, 0
10, 5220, Note_on_c, 8, 51, 100
10, 5280, Note_on_c, 8, 51, 0
10, 5280, Note_on_c, 8, 51, 100
10, 5340, Note_on_c, 8, 51, 0
10, 5340, Note_on_c, 8, 51, 100
10, 5400, Note_on_c, 8, 51, 0
10, 5400, Note_on_c, 8, 51, 100
10, 5460, Note_on_c, 8, 51, 0
10, 5460, Note_on_c, 8, 51, 100
10, 5520, Note_on_c, 8, 51, 0
10, 5520, Note_on_c, 8, 51, 100
10, 5580, Note_on_c, 8, 51, 0
10, 5580, Note_on_c, 8, 51, 100
10, 5640, Note_on_c, 8, 51, 0
10, 5640, Note_on_c, 8, 51, 100
10, 5700, Note_on_c, 8, 51, 0
10, 5700, Note_on_c, 8, 51, 100
10, 5760, Note_on_c, 8, 51, 0
10, 5760, Note_on_c, 8, 51, 100
10, 5820, Note_on_c, 8, 51, 0
10, 5820, Note_on_c, 8, 51, 100
10, 5880, Note_on_c, 8, 51, 0
10, 5880, Note_on_c, 8, 51, 100
10, 5940, Note_on_c, 8, 51, 0
10, 5940, Note_on_c, 8, 51, 100
10, 6000, Note_on_c, 8, 51, 0
10, 6000, Note_on_c, 8, 51, 100
10, 6060, Note_on_c, 8, 51, 0
10, 6060, Note_on_c, 8, 51, 100
10, 6120, Note_on_c, 8, 51, 0
10, 6120, Note_on_c, 8, 51, 100
10, 6180, Note_on_c, 8, 51, 0
10, 6180, Note_on_c, 8, 51, 100
10, 6240, Note_on_c, 8, 51, 0
10, 6240, Note_on_c, 8, 51, 100
10, 6300, Note_on_c, 8, 51, 0
10, 6300, Note_on_c, 8, 51, 100
10, 6360, Note_on_c, 8, 51, 0
10, 6360, Note_on_c, 8, 51, 100
10, 6420, Note_on_c, 8, 51, 0
10, 6420, Note_on_c, 8, 51, 100
10, 6480, Note_on_c, 8, 51, 0
10, 6480, Note_on_c, 8, 51, 100
10, 6540, Note_on_c, 8, 51, 0
10, 6540, Note_on_c, 8, 51, 100
10, 6600, Note_on_c, 8, 51, 0
10, 6600, Note_on_c, 8, 51, 100
10, 6660, Note_on_c, 8, 51, 0
10, 6660, Note_on_c, 8, 51, 100
10, 6720, Note_on_c, 8, 51, 0
10, 6720, Note_on_c, 8, 51, 100
10, 6780, Note_on_c, 8, 51, 0
10, 6780, Note_on_c, 8, 51, 100
10, 6840, Note_on_c, 8, 51, 0
10, 6840, Note_on_c, 8, 51, 100
10, 6900, Note_on_c, 8, 51, 0
10, 6900, Note_on_c, 8, 51, 100
10, 6960, Note_on_c, 8, 51, 0
10, 6960, Note_on_c, 8, 51, 100
10, 7020, Note_on_c, 8, 51, 0
10, 7020, Note_on_c, 8, 51, 100
10, 7080, Note_on_c, 8, 51, 0
10, 7080, Note_on_c, 8, 51, 100
10, 7140, Note_on_c, 8, 51, 0
10, 7140, Note_on_c, 8, 51, 100
10, 7200, Note_on_c, 8, 51, 0
10, 7200, Note_on_c, 8, 51, 100
10, 7260, Note_on_c, 8, 51, 0
10, 7260, Note_on_c, 8, 51, 100
10, 7320, Note_on_c, 8, 51, 0
10, 7320, Note_on_c, 8, 51, 100
10, 7380, Note_on_c, 8, 51, 0
10, 7380, Note_on_c, 8, 51, 100
10, 7440, Note_on_c, 8, 51, 0
10, 7440, Note_on_c, 8, 51, 100
10, 7500, Note_on_c, 8, 51, 0
10, 7500, Note_on_c, 8, 51, 100
10, 7560, Note_on_c, 8, 51, 0
10, 7560, Note_on_c, 8, 51, 100
10, 7620, Note_on_c, 8, 51, 0
10, 7620, Note_on_c, 8, 51, 100
10, 7680, Note_on_c, 8, 51, 0
10, 7680, Note_on_c, 8, 51, 100
10, 7740, Note_on_c, 8, 51, 0
10, 7740, Note_on_c, 8, 51, 100
10, 7800, Note_on_c, 8, 51, 0
10, 7800, Note_on_c, 8, 51, 100
10, 7860, Note_on_c, 8, 51, 0
10, 7860, Note_on_c, 8, 51, 100
10, 7920, Note_on_c, 8, 51, 0
10, 7920, Note_on_c, 8, 51, 100
10, 7980, Note_on_c, 8, 51, 0
10, 7980, Note_on_c, 8, 51, 100
10, 8040, Note_on_c, 8, 51, 0
10, 8040, Note_on_c, 8, 51, 100
10, 8100, Note_on_c, 8, 51, 0
10, 8100, Note_on_c, 8, 51, 100
10, 8160, Note_on_c, 8, 51, 0
10, 8160, Note_on_c, 8, 44, 100
10, 8220, Note_on_c, 8, 44, 0
10, 8220, Note_on_c, 8, 44, 100
10, 8280, Note_on_c, 8, 44, 0
10, 8280, Note_on_c, 8, 44, 100
10, 8340, Note_on_c, 8, 44, 0
10, 8340, Note_on_c, 8, 44, 100
10, 8400, Note_on_c, 8, 44, 0
10, 8400, Note_on_c, 8, 46, 100
10, 8460, Note_on_c, 8, 46, 0
10, 8460, Note_on_c, 8, 46, 100
10, 8520, Note_on_c, 8, 46, 0
10, 8520, Note_on_c, 8, 46, 100
10, 8580, Note_on_c, 8, 46, 0
10, 8580, Note_on_c, 8, 46, 100
10, 8640, Note_on_c, 8, 46, 0
10, 8640, Note_on_c, 8, 51, 100
10, 8700, Note_on_c, 8, 51, 0
10, 8700, Note_on_c, 8, 51, 100
10, 8760, Note_on_c, 8, 51, 0
10, 8760, Note_on_c, 8, 51, 100
10, 8820, Note_on_c, 8, 51, 0
10, 8820, Note_on_c, 8, 51, 100
10, 8880, Note_on_c, 8, 51, 0
10, 8880, Note_on_c, 8, 51, 100
10, 8940, Note_on_c, 8, 51, 0
10, 8940, Note_on_c, 8, 51, 100
10, 9000, Note_on_c, 8, 51, 0
10, 9000, Note_on_c, 8, 51, 100
10, 9060, Note_on_c, 8, 51, 0
10, 9060, Note_on_c, 8, 51, 100
10, 9120, Note_on_c, 8, 51, 0
10, 9120, Note_on_c, 8, 51, 100
10, 9180, Note_on_c, 8, 51, 0
10, 9180, Note_on_c, 8, 51, 100
10, 9240, Note_on_c, 8, 51, 0
10, 9240, Note_on_c, 8, 51, 100
10, 9300, Note_on_c, 8, 51, 0
10, 9300, Note_on_c, 8, 51, 100
10, 9360, Note_on_c, 8, 51, 0
10, 9360, Note_on_c, 8, 51, 100
10, 9420, Note_on_c, 8, 51, 0
10, 9420, Note_on_c, 8, 51, 100
10, 9480, Note_on_c, 8, 51, 0
10, 9480, Note_on_c, 8, 51, 100
10, 9540, Note_on_c, 8, 51, 0
10, 9540, Note_on_c, 8, 51, 100
10, 9600, Note_on_c, 8, 51, 0
10, 9600, Note_on_c, 8, 51, 100
10, 9660, Note_on_c, 8, 51, 0
10, 9660, Note_on_c, 8, 51, 100
10, 9720, Note_on_c, 8, 51, 0
10, 9720, Note_on_c, 8, 51, 100
10, 9780, Note_on_c, 8, 51, 0
10, 9780, Note_on_c, 8, 51, 100
10, 9840, Note_on_c, 8, 51, 0
10, 9840, Note_on_c, 8, 51, 100
10, 9900, Note_on_c, 8, 51, 0
10, 9900, Note_on_c, 8, 51, 100
10, 9960, Note_on_c, 8, 51, 0
10, 9960, Note_on_c, 8, 51, 100
10, 10020, Note_on_c, 8, 51, 0
10, 10020, Note_on_c, 8, 51, 100
10, 10080, Note_on_c, 8, 51, 0
10, 10080, Note_on_c, 8, 51, 100
10, 10140, Note_on_c, 8, 51, 0
10, 10140, Note_on_c, 8, 51, 100
10, 10200, Note_on_c, 8, 51, 0
10, 10200, Note_on_c, 8, 51, 100
10, 10260, Note_on_c, 8, 51, 0
10, 10260, Note_on_c, 8, 51, 100
10, 10320, Note_on_c, 8, 51, 0
10, 10320, Note_on_c, 8, 51, 100
10, 10380, Note_on_c, 8, 51, 0
10, 10380, Note_on_c, 8, 51, 100
10, 10440, Note_on_c, 8, 51, 0
10, 10440, Note_on_c, 8, 51, 100
10, 10500, Note_on_c, 8, 51, 0
10, 10500, Note_on_c, 8, 51, 100
10, 10560, Note_on_c, 8, 51, 0
10, 10560, Note_on_c, 8, 51, 100
10, 10620, Note_on_c, 8, 51, 0
10, 10620, Note_on_c, 8, 51, 100
10, 10680, Note_on_c, 8, 51, 0
10, 10680, Note_on_c, 8, 51, 100
10, 10740, Note_on_c, 8, 51, 0
10, 10740, Note_on_c, 8, 51, 100
10, 10800, Note_on_c, 8, 51, 0
10, 10800, Note_on_c, 8, 51, 100
10, 10860, Note_on_c, 8, 51, 0
10, 10860, Note_on_c, 8, 51, 100
10, 10920, Note_on_c, 8, 51, 0
10, 10920, Note_on_c, 8, 51, 100
10, 10980, Note_on_c, 8, 51, 0
10, 10980, Note_on_c, 8, 51, 100
10, 11040, Note_on_c, 8, 51, 0
10, 11040, Note_on_c, 8, 51, 100
10, 11100, Note_on_c, 8, 51, 0
10, 11100, Note_on_c, 8, 51, 100
10, 11160, Note_on_c, 8, 51, 0
10, 11160, Note_on_c, 8, 51, 100
10, 11220, Note_on_c, 8, 51, 0
10, 11220, Note_on_c, 8, 51, 100
10, 11280, Note_on_c, 8, 51, 0
10, 11280, Note_on_c, 8, 51, 100
10, 11340, Note_on_c, 8, 51, 0
10, 11340, Note_on_c, 8, 51, 100
10, 11400, Note_on_c, 8, 51, 0
10, 11400, Note_on_c, 8, 51, 100
10, 11460, Note_on_c, 8, 51, 0
10, 11460, Note_on_c, 8, 51, 100
10, 11520, Note_on_c, 8, 51, 0
10, 11520, Note_on_c, 8, 51, 100
10, 11580, Note_on_c, 8, 51, 0
10, 11580, Note_on_c, 8, 51, 100
10, 11640, Note_on_c, 8, 51, 0
10, 11640, Note_on_c, 8, 51, 100
10, 11700, Note_on_c, 8, 51, 0
10, 11700, Note_on_c, 8, 51, 100
10, 11760, Note_on_c, 8, 51, 0
10, 11760, Note_on_c, 8, 51, 100
10, 11820, Note_on_c, 8, 51, 0
10, 11820, Note_on_c, 8, 51, 100
10, 11880, Note_on_c, 8, 51, 0
10, 11880, Note_on_c, 8, 51, 100
10, 11940, Note_on_c, 8, 51, 0
10, 11940, Note_on_c, 8, 51, 100
10, 12000, Note_on_c, 8, 51, 0
10, 12000, Note_on_c, 8, 44, 100
10, 12060, Note_on_c, 8, 44, 0
10, 12060, Note_on_c, 8, 44, 100
10, 12120, Note_on_c, 8, 44, 0
10, 12120, Note_on_c, 8, 44, 100
10, 12180, Note_on_c, 8, 44, 0
10, 12180, Note_on_c, 8, 44, 100
10, 12240, Note_on_c, 8, 44, 0
10, 12240, Note_on_c, 8, 46, 100
10, 12300, Note_on_c, 8, 46, 0
10, 12300, Note_on_c, 8, 46, 100
10, 12360, Note_on_c, 8, 46, 0
10, 12360, Note_on_c, 8, 46, 100
10, 12420, Note_on_c, 8, 46, 0
10, 12420, Note_on_c, 8, 46, 100
10, 12480, Note_on_c, 8, 46, 0
10, 12480, Note_on_c, 8, 51, 100
10, 12540, Note_on_c, 8, 51, 0
10, 12540, Note_on_c, 8, 55, 100
10, 12600, Note_on_c, 8, 55, 0
10, 12600, Note_on_c, 8, 58, 100
10, 12660, Note_on_c, 8, 58, 0
10, 12660, Note_on_c, 8, 55, 100
10, 12720, Note_on_c, 8, 55, 0
10, 12720, Note_on_c, 8, 51, 100
10, 12780, Note_on_c, 8, 51, 0
10, 12780, Note_on_c, 8, 51, 100
10, 12840, Note_on_c, 8, 51, 0
10, 12840, Note_on_c, 8, 51, 100
10, 12900, Note_on_c, 8, 51, 0
10, 12900, Note_on_c, 8, 51, 100
10, 12960, Note_on_c, 8, 51, 0
10, 12960, Note_on_c, 8, 50, 100
10, 13020, Note_on_c, 8, 50, 0
10, 13020, Note_on_c, 8, 53, 100
10, 13080, Note_on_c, 8, 53, 0
10, 13080, Note_on_c, 8, 58, 100
10, 13140, Note_on_c, 8, 58, 0
10, 13140, Note_on_c, 8, 53, 100
10, 13200, Note_on_c, 8, 53, 0
10, 13200, Note_on_c, 8, 50, 100
10, 13260, Note_on_c, 8, 50, 0
10, 13260, Note_on_c, 8, 50, 100
10, 13320, Note_on_c, 8, 50, 0
10, 13320, Note_on_c, 8, 50, 100
10, 13380, Note_on_c, 8, 50, 0
10, 13380, Note_on_c, 8, 50, 100
10, 13440, Note_on_c, 8, 50, 0
10, 13440, Note_on_c, 8, 48, 100
10, 13500, Note_on_c, 8, 48, 0
10, 13500, Note_on_c, 8, 51, 100
10, 13560, Note_on_c, 8, 51, 0
10, 13560, Note_on_c, 8, 55, 100
10, 13620, Note_on_c, 8, 55, 0
10, 13620, Note_on_c, 8, 51, 100
10, 13680, Note_on_c, 8, 51, 0
10, 13680, Note_on_c, 8, 48, 100
10, 13740, Note_on_c, 8, 48, 0
10, 13740, Note_on_c, 8, 48, 100
10, 13800, Note_on_c, 8, 48, 0
10, 13800, Note_on_c, 8, 48, 100
10, 13860, Note_on_c, 8, 48, 0
10, 13860, Note_on_c, 8, 48, 100
10, 13920, Note_on_c, 8, 48, 0
10, 13920, Note_on_c, 8, 46, 100
10, 14040, Note_on_c, 8, 46, 0
10, 14100, Note_on_c, 8, 46, 100
10, 14130, Note_on_c, 8, 46, 0
10, 14130, Note_on_c, 8, 48, 100
10, 14145, Note_on_c, 8, 51, 100
10, 14160, Note_on_c, 8, 51, 0
10, 14160, Note_on_c, 8, 48, 0
10, 14160, Note_on_c, 8, 50, 100
10, 14220, Note_on_c, 8, 50, 0
10, 14220, Note_on_c, 8, 48, 100
10, 14250, Note_on_c, 8, 48, 0
10, 14250, Note_on_c, 8, 46, 100
10, 14265, Note_on_c, 8, 51, 100
10, 14280, Note_on_c, 8, 51, 0
10, 14280, Note_on_c, 8, 46, 0
10, 14280, Note_on_c, 8, 50, 100
10, 14340, Note_on_c, 8, 50, 0
10, 14340, Note_on_c, 8, 48, 100
10, 14370, Note_on_c, 8, 48, 0
10, 14370, Note_on_c, 8, 46, 100
10, 14400, Note_on_c, 8, 46, 0
10, 14400, Note_on_c, 8, 51, 100
10, 14520, Note_on_c, 8, 51, 0
10, 14580, Note_on_c, 8, 51, 100
10, 14610, Note_on_c, 8, 51, 0
10, 14610, Note_on_c, 8, 53, 100
10, 14625, Note_on_c, 8, 56, 100
10, 14640, Note_on_c, 8, 56, 0
10, 14640, Note_on_c, 8, 53, 0
10, 14640, Note_on_c, 8, 55, 100
10, 14700, Note_on_c, 8, 55, 0
10, 14700, Note_on_c, 8, 53, 100
10, 14730, Note_on_c, 8, 53, 0
10, 14730, Note_on_c, 8, 51, 100
10, 14745, Note_on_c, 8, 56, 100
10, 14760, Note_on_c, 8, 56, 0
10, 14760, Note_on_c, 8, 51, 0
10, 14760, Note_on_c, 8, 55, 100
10, 14820, Note_on_c, 8, 55, 0
10, 14820, Note_on_c, 8, 53, 100
10, 14850, Note_on_c, 8, 53, 0
10, 14850, Note_on_c, 8, 51, 100
10, 14880, Note_on_c, 8, 51, 0
10, 14880, Note_on_c, 8, 58, 100
10, 15000, Note_on_c, 8, 58, 0
10, 15060, Note_on_c, 8, 58, 100
10, 15090, Note_on_c, 8, 58, 0
10, 15090, Note_on_c, 8, 60, 100
10, 15105, Note_on_c, 8, 63, 100
10, 15120, Note_on_c, 8, 63, 0
10, 15120, Note_on_c, 8, 60, 0
10, 15120, Note_on_c, 8, 62, 100
10, 15180, Note_on_c, 8, 62, 0
10, 15180, Note_on_c, 8, 60, 100
10, 15210, Note_on_c, 8, 60, 0
10, 15210, Note_on_c, 8, 58, 100
10, 15225, Note_on_c, 8, 63, 100
10, 15240, Note_on_c, 8, 63, 0
10, 15240, Note_on_c, 8, 58, 0
10, 15240, Note_on_c, 8, 62, 100
10, 15300, Note_on_c, 8, 62, 0
10, 15300, Note_on_c, 8, 60, 100
10, 15330, Note_on_c, 8, 60, 0
10, 15330, Note_on_c, 8, 58, 100
10, 15360, Note_on_c, 8, 58, 0
10, 15360, Note_on_c, 8, 63, 100
10, 15420, Note_on_c, 8, 63, 0
10, 15420, Note_on_c, 8, 58, 100
10, 15480, Note_on_c, 8, 58, 0
10, 15480, Note_on_c, 8, 58, 100
10, 15540, Note_on_c, 8, 58, 0
10, 15540, Note_on_c, 8, 58, 100
10, 15600, Note_on_c, 8, 58, 0
10, 15600, Note_on_c, 8, 55, 100
10, 15660, Note_on_c, 8, 55, 0
10, 15660, Note_on_c, 8, 51, 100
10, 15720, Note_on_c, 8, 51, 0
10, 15720, Note_on_c, 8, 51, 100
10, 15780, Note_on_c, 8, 51, 0
10, 15780, Note_on_c, 8, 51, 100
10, 15840, Note_on_c, 8, 51, 0
10, 15840, Note_on_c, 8, 58, 100
10, 15900, Note_on_c, 8, 58, 0
10, 15900, Note_on_c, 8, 58, 100
10, 15960, Note_on_c, 8, 58, 0
10, 15960, Note_on_c, 8, 55, 100
10, 16020, Note_on_c, 8, 55, 0
10, 16020, Note_on_c, 8, 51, 100
10, 16080, Note_on_c, 8, 51, 0
10, 16080, Note_on_c, 8, 58, 100
10, 16140, Note_on_c, 8, 58, 0
10, 16140, Note_on_c, 8, 58, 100
10, 16200, Note_on_c, 8, 58, 0
10, 16200, Note_on_c, 8, 55, 100
10, 16260, Note_on_c, 8, 55, 0
10, 16260, Note_on_c, 8, 51, 100
10, 16320, Note_on_c, 8, 51, 0
10, 16320, Note_on_c, 8, 58, 100
10, 16440, Note_on_c, 8, 58, 0
10, 16530, Note_on_c, 8, 46, 100
10, 16560, Note_on_c, 8, 46, 0
10, 16560, Note_on_c, 8, 46, 100
10, 16680, Note_on_c, 8, 46, 0
10, 16680, Note_on_c, 8, 46, 100
10, 16800, Note_on_c, 8, 46, 0
10, 16800, Note_on_c, 8, 46, 100
10, 16920, Note_on_c, 8, 46, 0
10, 17759, Program_c, 8, 45
10, 17760, Note_on_c, 8, 51, 100
10, 17880, Note_on_c, 8, 51, 0
10, 18720, Note_on_c, 8, 46, 100
10, 18840, Note_on_c, 8, 46, 0
10, 18960, Note_on_c, 8, 46, 100
10, 19080, Note_on_c, 8, 46, 0
10, 19200, Note_on_c, 8, 46, 100
10, 19320, Note_on_c, 8, 46, 0
10, 19440, Note_on_c, 8, 46, 100
10, 19560, Note_on_c, 8, 46, 0
10, 19680, Note_on_c, 8, 51, 100
10, 19800, Note_on_c, 8, 51, 0
10, 20640, Note_on_c, 8, 46, 100
10, 20760, Note_on_c, 8, 46, 0
10, 20880, Note_on_c, 8, 46, 100
10, 21000, Note_on_c, 8, 46, 0
10, 21120, Note_on_c, 8, 46, 100
10, 21240, Note_on_c, 8, 46, 0
10, 21360, Note_on_c, 8, 46, 100
10, 21480, Note_on_c, 8, 46, 0
10, 21599, Program_c, 8, 42
10, 21600, Note_on_c, 8, 51, 100
10, 21660, Note_on_c, 8, 51, 0
10, 21660, Note_on_c, 8, 51, 100
10, 21720, Note_on_c, 8, 51, 0
10, 21720, Note_on_c, 8, 51, 100
10, 21780, Note_on_c, 8, 51, 0
10, 21780, Note_on_c, 8, 51, 100
10, 21840, Note_on_c, 8, 51, 0
10, 21840, Note_on_c, 8, 51, 100
10, 21900, Note_on_c, 8, 51, 0
10, 21900, Note_on_c, 8, 51, 100
10, 21960, Note_on_c, 8, 51, 0
10, 21960, Note_on_c, 8, 51, 100
10, 22020, Note_on_c, 8, 51, 0
10, 22020, Note_on_c, 8, 51, 100
10, 22080, Note_on_c, 8, 51, 0
10, 22080, Note_on_c, 8, 51, 100
10, 22140, Note_on_c, 8, 51, 0
10, 22140, Note_on_c, 8, 51, 100
10, 22200, Note_on_c, 8, 51, 0
10, 22200, Note_on_c, 8, 51, 100
10, 22260, Note_on_c, 8, 51, 0
10, 22260, Note_on_c, 8, 51, 100
10, 22320, Note_on_c, 8, 51, 0
10, 22320, Note_on_c, 8, 51, 100
10, 22380, Note_on_c, 8, 51, 0
10, 22380, Note_on_c, 8, 51, 100
10, 22440, Note_on_c, 8, 51, 0
10, 22440, Note_on_c, 8, 51, 100
10, 22500, Note_on_c, 8, 51, 0
10, 22500, Note_on_c, 8, 51, 100
10, 22560, Note_on_c, 8, 51, 0
10, 22560, Note_on_c, 8, 51, 100
10, 22620, Note_on_c, 8, 51, 0
10, 22620, Note_on_c, 8, 51, 100
10, 22680, Note_on_c, 8, 51, 0
10, 22680, Note_on_c, 8, 51, 100
10, 22740, Note_on_c, 8, 51, 0
10, 22740, Note_on_c, 8, 51, 100
10, 22800, Note_on_c, 8, 51, 0
10, 22800, Note_on_c, 8, 51, 100
10, 22860, Note_on_c, 8, 51, 0
10, 22860, Note_on_c, 8, 51, 100
10, 22920, Note_on_c, 8, 51, 0
10, 22920, Note_on_c, 8, 51, 100
10, 22980, Note_on_c, 8, 51, 0
10, 22980, Note_on_c, 8, 51, 100
10, 23040, Note_on_c, 8, 51, 0
10, 23040, Note_on_c, 8, 51, 100
10, 23100, Note_on_c, 8, 51, 0
10, 23100, Note_on_c, 8, 51, 100
10, 23160, Note_on_c, 8, 51, 0
10, 23160, Note_on_c, 8, 51, 100
10, 23220, Note_on_c, 8, 51, 0
10, 23220, Note_on_c, 8, 51, 100
10, 23280, Note_on_c, 8, 51, 0
10, 23280, Note_on_c, 8, 51, 100
10, 23340, Note_on_c, 8, 51, 0
10, 23340, Note_on_c, 8, 51, 100
10, 23400, Note_on_c, 8, 51, 0
10, 23400, Note_on_c, 8, 51, 100
10, 23460, Note_on_c, 8, 51, 0
10, 23460, Note_on_c, 8, 51, 100
10, 23520, Note_on_c, 8, 51, 0
10, 23520, Note_on_c, 8, 51, 100
10, 23580, Note_on_c, 8, 51, 0
10, 23580, Note_on_c, 8, 51, 100
10, 23640, Note_on_c, 8, 51, 0
10, 23640, Note_on_c, 8, 51, 100
10, 23700, Note_on_c, 8, 51, 0
10, 23700, Note_on_c, 8, 51, 100
10, 23760, Note_on_c, 8, 51, 0
10, 23760, Note_on_c, 8, 51, 100
10, 23820, Note_on_c, 8, 51, 0
10, 23820, Note_on_c, 8, 51, 100
10, 23880, Note_on_c, 8, 51, 0
10, 23880, Note_on_c, 8, 51, 100
10, 23940, Note_on_c, 8, 51, 0
10, 23940, Note_on_c, 8, 51, 100
10, 24000, Note_on_c, 8, 51, 0
10, 24000, Note_on_c, 8, 51, 100
10, 24060, Note_on_c, 8, 51, 0
10, 24060, Note_on_c, 8, 51, 100
10, 24120, Note_on_c, 8, 51, 0
10, 24120, Note_on_c, 8, 51, 100
10, 24180, Note_on_c, 8, 51, 0
10, 24180, Note_on_c, 8, 51, 100
10, 24240, Note_on_c, 8, 51, 0
10, 24240, Note_on_c, 8, 51, 100
10, 24300, Note_on_c, 8, 51, 0
10, 24300, Note_on_c, 8, 51, 100
10, 24360, Note_on_c, 8, 51, 0
10, 24360, Note_on_c, 8, 51, 100
10, 24420, Note_on_c, 8, 51, 0
10, 24420, Note_on_c, 8, 51, 100
10, 24480, Note_on_c, 8, 51, 0
10, 24480, Note_on_c, 8, 51, 100
10, 24540, Note_on_c, 8, 51, 0
10, 24540, Note_on_c, 8, 51, 100
10, 24600, Note_on_c, 8, 51, 0
10, 24600, Note_on_c, 8, 51, 100
10, 24660, Note_on_c, 8, 51, 0
10, 24660, Note_on_c, 8, 51, 100
10, 24720, Note_on_c, 8, 51, 0
10, 24720, Note_on_c, 8, 51, 100
10, 24780, Note_on_c, 8, 51, 0
10, 24780, Note_on_c, 8, 51, 100
10, 24840, Note_on_c, 8, 51, 0
10, 24840, Note_on_c, 8, 51, 100
10, 24900, Note_on_c, 8, 51, 0
10, 24900, Note_on_c, 8, 51, 100
10, 24960, Note_on_c, 8, 51, 0
10, 24960, Note_on_c, 8, 51, 100
10, 25020, Note_on_c, 8, 51, 0
10, 25020, Note_on_c, 8, 51, 100
10, 25080, Note_on_c, 8, 51, 0
10, 25080, Note_on_c, 8, 51, 100
10, 25140, Note_on_c, 8, 51, 0
10, 25140, Note_on_c, 8, 51, 100
10, 25200, Note_on_c, 8, 51, 0
10, 25200, Note_on_c, 8, 51, 100
10, 25260, Note_on_c, 8, 51, 0
10, 25260, Note_on_c, 8, 51, 100
10, 25320, Note_on_c, 8, 51, 0
10, 25320, Note_on_c, 8, 51, 100
10, 25380, Note_on_c, 8, 51, 0
10, 25380, Note_on_c, 8, 51, 100
10, 25440, Note_on_c, 8, 51, 0
10, 25440, Note_on_c, 8, 51, 100
10, 25500, Note_on_c, 8, 51, 0
10, 25500, Note_on_c, 8, 51, 100
10, 25560, Note_on_c, 8, 51, 0
10, 25560, Note_on_c, 8, 51, 100
10, 25620, Note_on_c, 8, 51, 0
10, 25620, Note_on_c, 8, 51, 100
10, 25680, Note_on_c, 8, 51, 0
10, 25680, Note_on_c, 8, 51, 100
10, 25740, Note_on_c, 8, 51, 0
10, 25740, Note_on_c, 8, 51, 100
10, 25800, Note_on_c, 8, 51, 0
10, 25800, Note_on_c, 8, 51, 100
10, 25860, Note_on_c, 8, 51, 0
10, 25860, Note_on_c, 8, 51, 100
10, 25920, Note_on_c, 8, 51, 0
10, 25920, Note_on_c, 8, 51, 100
10, 25980, Note_on_c, 8, 51, 0
10, 25980, Note_on_c, 8, 51, 100
10, 26040, Note_on_c, 8, 51, 0
10, 26040, Note_on_c, 8, 51, 100
10, 26100, Note_on_c, 8, 51, 0
10, 26100, Note_on_c, 8, 51, 100
10, 26160, Note_on_c, 8, 51, 0
10, 26160, Note_on_c, 8, 51, 100
10, 26220, Note_on_c, 8, 51, 0
10, 26220, Note_on_c, 8, 51, 100
10, 26280, Note_on_c, 8, 51, 0
10, 26280, Note_on_c, 8, 51, 100
10, 26340, Note_on_c, 8, 51, 0
10, 26340, Note_on_c, 8, 51, 100
10, 26400, Note_on_c, 8, 51, 0
10, 26400, Note_on_c, 8, 51, 100
10, 26460, Note_on_c, 8, 51, 0
10, 26460, Note_on_c, 8, 51, 100
10, 26520, Note_on_c, 8, 51, 0
10, 26520, Note_on_c, 8, 51, 100
10, 26580, Note_on_c, 8, 51, 0
10, 26580, Note_on_c, 8, 51, 100
10, 26640, Note_on_c, 8, 51, 0
10, 26640, Note_on_c, 8, 51, 100
10, 26700, Note_on_c, 8, 51, 0
10, 26700, Note_on_c, 8, 51, 100
10, 26760, Note_on_c, 8, 51, 0
10, 26760, Note_on_c, 8, 51, 100
10, 26820, Note_on_c, 8, 51, 0
10, 26820, Note_on_c, 8, 51, 100
10, 26880, Note_on_c, 8, 51, 0
10, 26880, Note_on_c, 8, 51, 100
10, 26940, Note_on_c, 8, 51, 0
10, 26940, Note_on_c, 8, 51, 100
10, 27000, Note_on_c, 8, 51, 0
10, 27000, Note_on_c, 8, 51, 100
10, 27060, Note_on_c, 8, 51, 0
10, 27060, Note_on_c, 8, 51, 100
10, 27120, Note_on_c, 8, 51, 0
10, 27120, Note_on_c, 8, 51, 100
10, 27180, Note_on_c, 8, 51, 0
10, 27180, Note_on_c, 8, 51, 100
10, 27240, Note_on_c, 8, 51, 0
10, 27240, Note_on_c, 8, 51, 100
10, 27300, Note_on_c, 8, 51, 0
10, 27300, Note_on_c, 8, 51, 100
10, 27360, Note_on_c, 8, 51, 0
10, 27360, Note_on_c, 8, 51, 100
10, 27600, Note_on_c, 8, 51, 0
10, 27600, Note_on_c, 8, 63, 100
10, 27780, Note_on_c, 8, 63, 0
10, 27780, Note_on_c, 8, 62, 100
10, 27810, Note_on_c, 8, 62, 0
10, 27810, Note_on_c, 8, 63, 100
10, 27840, Note_on_c, 8, 63, 0
10, 27840, Note_on_c, 8, 67, 100
10, 28080, Note_on_c, 8, 67, 0
10, 28080, Note_on_c, 8, 51, 100
10, 28260, Note_on_c, 8, 51, 0
10, 28260, Note_on_c, 8, 50, 100
10, 28290, Note_on_c, 8, 50, 0
10, 28290, Note_on_c, 8, 51, 100
10, 28320, Note_on_c, 8, 51, 0
10, 28320, Note_on_c, 8, 48, 100
10, 28560, Note_on_c, 8, 48, 0
10, 28560, Note_on_c, 8, 60, 100
10, 28740, Note_on_c, 8, 60, 0
10, 28740, Note_on_c, 8, 59, 100
10, 28770, Note_on_c, 8, 59, 0
10, 28770, Note_on_c, 8, 60, 100
10, 28800, Note_on_c, 8, 60, 0
10, 28800, Note_on_c, 8, 67, 100
10, 29040, Note_on_c, 8, 67, 0
10, 29040, Note_on_c, 8, 48, 100
10, 29220, Note_on_c, 8, 48, 0
10, 29220, Note_on_c, 8, 47, 100
10, 29250, Note_on_c, 8, 47, 0
10, 29250, Note_on_c, 8, 48, 100
10, 29280, Note_on_c, 8, 48, 0
10, 29280, Note_on_c, 8, 44, 100
10, 30000, Note_on_c, 8, 44, 0
10, 30000, Note_on_c, 8, 45, 100
10, 30240, Note_on_c, 8, 45, 0
10, 30240, Note_on_c, 8, 46, 100
10, 31200, Note_on_c, 8, 46, 0
10, 31200, Note_on_c, 8, 51, 100
10, 31260, Note_on_c, 8, 51, 0
10, 31260, Note_on_c, 8, 51, 100
10, 31320, Note_on_c, 8, 51, 0
10, 31320, Note_on_c, 8, 51, 100
10, 31380, Note_on_c, 8, 51, 0
10, 31380, Note_on_c, 8, 51, 100
10, 31440, Note_on_c, 8, 51, 0
10, 31440, Note_on_c, 8, 51, 100
10, 31500, Note_on_c, 8, 51, 0
10, 31500, Note_on_c, 8, 51, 100
10, 31560, Note_on_c, 8, 51, 0
10, 31560, Note_on_c, 8, 51, 100
10, 31620, Note_on_c, 8, 51, 0
10, 31620, Note_on_c, 8, 51, 100
10, 31680, Note_on_c, 8, 51, 0
10, 31680, Note_on_c, 8, 51, 100
10, 32220, Note_on_c, 8, 51, 0
10, 32220, Note_on_c, 8, 51, 100
10, 32280, Note_on_c, 8, 51, 0
10, 32280, Note_on_c, 8, 51, 100
10, 32340, Note_on_c, 8, 51, 0
10, 32340, Note_on_c, 8, 51, 100
10, 32400, Note_on_c, 8, 51, 0
10, 32400, Note_on_c, 8, 51, 100
10, 32460, Note_on_c, 8, 51, 0
10, 32460, Note_on_c, 8, 51, 100
10, 32520, Note_on_c, 8, 51, 0
10, 32520, Note_on_c, 8, 51, 100
10, 32580, Note_on_c, 8, 51, 0
10, 32580, Note_on_c, 8, 51, 100
10, 32640, Note_on_c, 8, 51, 0
10, 32640, Note_on_c, 8, 51, 100
10, 33240, Note_on_c, 8, 51, 0
10, 36960, Note_on_c, 8, 51, 100
10, 37200, Note_on_c, 8, 51, 0
10, 37200, Note_on_c, 8, 51, 100
10, 37380, Note_on_c, 8, 51, 0
10, 37380, Note_on_c, 8, 51, 100
10, 37440, Note_on_c, 8, 51, 0
10, 37440, Note_on_c, 8, 46, 100
10, 37920, Note_on_c, 8, 46, 0
10, 38880, Note_on_c, 8, 51, 100
10, 39120, Note_on_c, 8, 51, 0
10, 39120, Note_on_c, 8, 51, 100
10, 39300, Note_on_c, 8, 51, 0
10, 39300, Note_on_c, 8, 51, 100
10, 39360, Note_on_c, 8, 51, 0
10, 39360, Note_on_c, 8, 46, 100
10, 39840, Note_on_c, 8, 46, 0
10, 43320, Note_on_c, 8, 51, 100
10, 43380, Note_on_c, 8, 51, 0
10, 43380, Note_on_c, 8, 46, 100
10, 43440, Note_on_c, 8, 46, 0
10, 43440, Note_on_c, 8, 51, 100
10, 43500, Note_on_c, 8, 51, 0
10, 43500, Note_on_c, 8, 46, 100
10, 43560, Note_on_c, 8, 46, 0
10, 43560, Note_on_c, 8, 51, 100
10, 43620, Note_on_c, 8, 51, 0
10, 43620, Note_on_c, 8, 46, 100
10, 43680, Note_on_c, 8, 46, 0
10, 43680, Note_on_c, 8, 51, 100
10, 43800, Note_on_c, 8, 51, 0
10, 43920, Note_on_c, 8, 51, 100
10, 44160, Note_on_c, 8, 51, 0
10, 44160, Note_on_c, 8, 47, 100
10, 44400, Note_on_c, 8, 47, 0
10, 44400, Note_on_c, 8, 48, 100
10, 44640, Note_on_c, 8, 48, 0
10, 44640, Note_on_c, 8, 43, 100
10, 44760, Note_on_c, 8, 43, 0
10, 45120, Note_on_c, 8, 43, 100
10, 45240, Note_on_c, 8, 43, 0
10, 45600, Note_on_c, 8, 43, 100
10, 45720, Note_on_c, 8, 43, 0
10, 46080, Note_on_c, 8, 48, 100
10, 46200, Note_on_c, 8, 48, 0
10, 46560, Note_on_c, 8, 41, 100
10, 46680, Note_on_c, 8, 41, 0
10, 47040, Note_on_c, 8, 41, 100
10, 47160, Note_on_c, 8, 41, 0
10, 47520, Note_on_c, 8, 41, 100
10, 47640, Note_on_c, 8, 41, 0
10, 48060, Note_on_c, 8, 46, 100
10, 48120, Note_on_c, 8, 46, 0
10, 48120, Note_on_c, 8, 46, 100
10, 48180, Note_on_c, 8, 46, 0
10, 48180, Note_on_c, 8, 46, 100
10, 48240, Note_on_c, 8, 46, 0
10, 48240, Note_on_c, 8, 50, 100
10, 48300, Note_on_c, 8, 50, 0
10, 48300, Note_on_c, 8, 50, 100
10, 48360, Note_on_c, 8, 50, 0
10, 48360, Note_on_c, 8, 50, 100
10, 48420, Note_on_c, 8, 50, 0
10, 48420, Note_on_c, 8, 50, 100
10, 48480, Note_on_c, 8, 50, 0
10, 48480, Note_on_c, 8, 51, 100
10, 48600, Note_on_c, 8, 51, 0
10, 48720, Note_on_c, 8, 51, 100
10, 48840, Note_on_c, 8, 51, 0
10, 48960, Note_on_c, 8, 52, 100
10, 49440, Note_on_c, 8, 52, 0
10, 49560, Note_on_c, 8, 53, 100
10, 49680, Note_on_c, 8, 53, 0
10, 49680, Note_on_c, 8, 53, 100
10, 49800, Note_on_c, 8, 53, 0
10, 49800, Note_on_c, 8, 53, 100
10, 49920, Note_on_c, 8, 53, 0
10, 49920, Note_on_c, 8, 53, 100
10, 50040, Note_on_c, 8, 53, 0
10, 50040, Note_on_c, 8, 53, 100
10, 50100, Note_on_c, 8, 53, 0
10, 50100, Note_on_c, 8, 53, 100
10, 50160, Note_on_c, 8, 53, 0
10, 50160, Note_on_c, 8, 53, 100
10, 50220, Note_on_c, 8, 53, 0
10, 50220, Note_on_c, 8, 53, 100
10, 50280, Note_on_c, 8, 53, 0
10, 50280, Note_on_c, 8, 53, 100
10, 50340, Note_on_c, 8, 53, 0
10, 50340, Note_on_c, 8, 53, 100
10, 50400, Note_on_c, 8, 53, 0
10, 50400, Note_on_c, 8, 53, 100
10, 51000, Note_on_c, 8, 53, 0
10, 51360, Note_on_c, 8, 53, 100
10, 51480, Note_on_c, 8, 53, 0
10, 51840, Note_on_c, 8, 53, 100
10, 51960, Note_on_c, 8, 53, 0
10, 52320, Note_on_c, 8, 53, 100
10, 52440, Note_on_c, 8, 53, 0
10, 52800, Note_on_c, 8, 53, 100
10, 52920, Note_on_c, 8, 53, 0
10, 53280, Note_on_c, 8, 53, 100
10, 53400, Note_on_c, 8, 53, 0
10, 53760, Note_on_c, 8, 58, 100
10, 53880, Note_on_c, 8, 58, 0
10, 54240, Note_on_c, 8, 46, 100
10, 54840, Note_on_c, 8, 46, 0
10, 55200, Note_on_c, 8, 46, 100
10, 55320, Note_on_c, 8, 46, 0
10, 55680, Note_on_c, 8, 46, 100
10, 55800, Note_on_c, 8, 46, 0
10, 56160, Note_on_c, 8, 46, 100
10, 56280, Note_on_c, 8, 46, 0
10, 56640, Note_on_c, 8, 46, 100
10, 56760, Note_on_c, 8, 46, 0
10, 57120, Note_on_c, 8, 46, 100
10, 57240, Note_on_c, 8, 46, 0
10, 57600, Note_on_c, 8, 51, 100
10, 57720, Note_on_c, 8, 51, 0
10, 57840, Note_on_c, 8, 51, 100
10, 57960, Note_on_c, 8, 51, 0
10, 58080, Note_on_c, 8, 50, 100
10, 58200, Note_on_c, 8, 50, 0
10, 58320, Note_on_c, 8, 45, 100
10, 58440, Note_on_c, 8, 45, 0
10, 58560, Note_on_c, 8, 46, 100
10, 58680, Note_on_c, 8, 46, 0
10, 58680, Note_on_c, 8, 50, 100
10, 58800, Note_on_c, 8, 50, 0
10, 58800, Note_on_c, 8, 51, 100
10, 58920, Note_on_c, 8, 51, 0
10, 58920, Note_on_c, 8, 55, 100
10, 59040, Note_on_c, 8, 55, 0
10, 59040, Note_on_c, 8, 53, 100
10, 59100, Note_on_c, 8, 53, 0
10, 59100, Note_on_c, 8, 53, 100
10, 59160, Note_on_c, 8, 53, 0
10, 59160, Note_on_c, 8, 53, 100
10, 59220, Note_on_c, 8, 53, 0
10, 59220, Note_on_c, 8, 53, 100
10, 59280, Note_on_c, 8, 53, 0
10, 59280, Note_on_c, 8, 53, 100
10, 59340, Note_on_c, 8, 53, 0
10, 59340, Note_on_c, 8, 53, 100
10, 59400, Note_on_c, 8, 53, 0
10, 59400, Note_on_c, 8, 53, 100
10, 59460, Note_on_c, 8, 53, 0
10, 59460, Note_on_c, 8, 53, 100
10, 59520, Note_on_c, 8, 53, 0
10, 59520, Note_on_c, 8, 46, 100
10, 59640, Note_on_c, 8, 46, 0
10, 59640, Note_on_c, 8, 58, 100
10, 59760, Note_on_c, 8, 58, 0
10, 59760, Note_on_c, 8, 53, 100
10, 59880, Note_on_c, 8, 53, 0
10, 59880, Note_on_c, 8, 50, 100
10, 60000, Note_on_c, 8, 50, 0
10, 60000, Note_on_c, 8, 46, 100
10, 60120, Note_on_c, 8, 46, 0
10, 61920, Note_on_c, 8, 46, 100
10, 62040, Note_on_c, 8, 46, 0
10, 62160, Note_on_c, 8, 46, 100
10, 62280, Note_on_c, 8, 46, 0
10, 62400, Note_on_c, 8, 45, 100
10, 62520, Note_on_c, 8, 45, 0
10, 62640, Note_on_c, 8, 51, 100
10, 62760, Note_on_c, 8, 51, 0
10, 62880, Note_on_c, 8, 50, 100
10, 63000, Note_on_c, 8, 50, 0
10, 63000, Note_on_c, 8, 51, 100
10, 63120, Note_on_c, 8, 51, 0
10, 63120, Note_on_c, 8, 53, 100
10, 63240, Note_on_c, 8, 53, 0
10, 63240, Note_on_c, 8, 41, 100
10, 63360, Note_on_c, 8, 41, 0
10, 63360, Note_on_c, 8, 46, 100
10, 63480, Note_on_c, 8, 46, 0
10, 63600, Note_on_c, 8, 53, 100
10, 63720, Note_on_c, 8, 53, 0
10, 63840, Note_on_c, 8, 58, 100
10, 63960, Note_on_c, 8, 58, 0
10, 64080, Note_on_c, 8, 53, 100
10, 64200, Note_on_c, 8, 53, 0
10, 64320, Note_on_c, 8, 58, 100
10, 64380, Note_on_c, 8, 58, 0
10, 64440, Note_on_c, 8, 53, 100
10, 64500, Note_on_c, 8, 53, 0
10, 64560, Note_on_c, 8, 50, 100
10, 64620, Note_on_c, 8, 50, 0
10, 64680, Note_on_c, 8, 46, 100
10, 64740, Note_on_c, 8, 46, 0
10, 64800, Note_on_c, 8, 51, 100
10, 64920, Note_on_c, 8, 51, 0
10, 66720, Note_on_c, 8, 58, 100
10, 66780, Note_on_c, 8, 58, 0
10, 66840, Note_on_c, 8, 53, 100
10, 66900, Note_on_c, 8, 53, 0
10, 66960, Note_on_c, 8, 50, 100
10, 67020, Note_on_c, 8, 50, 0
10, 67080, Note_on_c, 8, 46, 100
10, 67140, Note_on_c, 8, 46, 0
10, 67200, Note_on_c, 8, 51, 100
10, 67320, Note_on_c, 8, 51, 0
10, 68280, Note_on_c, 8, 50, 100
10, 68400, Note_on_c, 8, 50, 0
10, 68400, Note_on_c, 8, 55, 100
10, 68520, Note_on_c, 8, 55, 0
10, 68520, Note_on_c, 8, 53, 100
10, 68640, Note_on_c, 8, 53, 0
10, 68640, Note_on_c, 8, 51, 100
10, 68880, Note_on_c, 8, 51, 0
10, 68880, Note_on_c, 8, 53, 100
10, 69000, Note_on_c, 8, 53, 0
10, 69000, Note_on_c, 8, 51, 100
10, 69120, Note_on_c, 8, 51, 0
10, 69120, Note_on_c, 8, 50, 100
10, 69180, Note_on_c, 8, 50, 0
10, 69240, Note_on_c, 8, 51, 100
10, 69300, Note_on_c, 8, 51, 0
10, 69360, Note_on_c, 8, 53, 100
10, 69420, Note_on_c, 8, 53, 0
10, 69480, Note_on_c, 8, 53, 100
10, 69540, Note_on_c, 8, 53, 0
10, 73440, Note_on_c, 8, 51, 100
10, 73980, Note_on_c, 8, 51, 0
10, 74040, Note_on_c, 8, 51, 100
10, 74100, Note_on_c, 8, 51, 0
10, 74160, Note_on_c, 8, 51, 100
10, 74220, Note_on_c, 8, 51, 0
10, 74280, Note_on_c, 8, 52, 100
10, 74340, Note_on_c, 8, 52, 0
10, 74400, Note_on_c, 8, 53, 100
10, 74460, Note_on_c, 8, 53, 0
10, 74460, Note_on_c, 8, 53, 100
10, 74520, Note_on_c, 8, 53, 0
10, 74520, Note_on_c, 8, 53, 100
10, 74580, Note_on_c, 8, 53, 0
10, 74580, Note_on_c, 8, 53, 100
10, 74640, Note_on_c, 8, 53, 0
10, 74640, Note_on_c, 8, 53, 100
10, 74700, Note_on_c, 8, 53, 0
10, 74700, Note_on_c, 8, 53, 100
10, 74760, Note_on_c, 8, 53, 0
10, 74760, Note_on_c, 8, 53, 100
10, 74820, Note_on_c, 8, 53, 0
10, 74820, Note_on_c, 8, 53, 100
10, 74880, Note_on_c, 8, 53, 0
10, 74880, Note_on_c, 8, 53, 100
10, 74940, Note_on_c, 8, 53, 0
10, 74940, Note_on_c, 8, 53, 100
10, 75000, Note_on_c, 8, 53, 0
10, 75000, Note_on_c, 8, 53, 100
10, 75060, Note_on_c, 8, 53, 0
10, 75060, Note_on_c, 8, 53, 100
10, 75120, Note_on_c, 8, 53, 0
10, 75120, Note_on_c, 8, 53, 100
10, 75180, Note_on_c, 8, 53, 0
10, 75180, Note_on_c, 8, 53, 100
10, 75240, Note_on_c, 8, 53, 0
10, 75240, Note_on_c, 8, 53, 100
10, 75300, Note_on_c, 8, 53, 0
10, 75300, Note_on_c, 8, 53, 100
10, 75360, Note_on_c, 8, 53, 0
10, 75360, Note_on_c, 8, 46, 100
10, 75420, Note_on_c, 8, 46, 0
10, 75420, Note_on_c, 8, 48, 100
10, 75450, Note_on_c, 8, 48, 0
10, 75450, Note_on_c, 8, 50, 100
10, 75480, Note_on_c, 8, 50, 0
10, 75480, Note_on_c, 8, 51, 100
10, 75510, Note_on_c, 8, 51, 0
10, 75510, Note_on_c, 8, 53, 100
10, 75540, Note_on_c, 8, 53, 0
10, 75540, Note_on_c, 8, 55, 100
10, 75570, Note_on_c, 8, 55, 0
10, 75570, Note_on_c, 8, 57, 100
10, 75600, Note_on_c, 8, 57, 0
10, 75600, Note_on_c, 8, 58, 100
10, 75630, Note_on_c, 8, 58, 0
10, 75630, Note_on_c, 8, 57, 100
10, 75660, Note_on_c, 8, 57, 0
10, 75660, Note_on_c, 8, 58, 100
10, 75690, Note_on_c, 8, 58, 0
10, 75690, Note_on_c, 8, 60, 100
10, 75720, Note_on_c, 8, 60, 0
10, 75720, Note_on_c, 8, 62, 100
10, 75750, Note_on_c, 8, 62, 0
10, 75750, Note_on_c, 8, 60, 100
10, 75780, Note_on_c, 8, 60, 0
10, 75780, Note_on_c, 8, 58, 100
10, 75810, Note_on_c, 8, 58, 0
10, 75810, Note_on_c, 8, 57, 100
10, 75840, Note_on_c, 8, 57, 0
10, 75840, Note_on_c, 8, 55, 100
10, 75870, Note_on_c, 8, 55, 0
10, 75870, Note_on_c, 8, 54, 100
10, 75900, Note_on_c, 8, 54, 0
10, 75900, Note_on_c, 8, 55, 100
10, 75930, Note_on_c, 8, 55, 0
10, 75930, Note_on_c, 8, 57, 100
10, 75960, Note_on_c, 8, 57, 0
10, 75960, Note_on_c, 8, 58, 100
10, 75990, Note_on_c, 8, 58, 0
10, 75990, Note_on_c, 8, 57, 100
10, 76020, Note_on_c, 8, 57, 0
10, 76020, Note_on_c, 8, 55, 100
10, 76050, Note_on_c, 8, 55, 0
10, 76050, Note_on_c, 8, 53, 100
10, 76080, Note_on_c, 8, 53, 0
10, 76080, Note_on_c, 8, 51, 100
10, 76110, Note_on_c, 8, 51, 0
10, 76110, Note_on_c, 8, 50, 100
10, 76140, Note_on_c, 8, 50, 0
10, 76140, Note_on_c, 8, 51, 100
10, 76170, Note_on_c, 8, 51, 0
10, 76170, Note_on_c, 8, 53, 100
10, 76200, Note_on_c, 8, 53, 0
10, 76200, Note_on_c, 8, 55, 100
10, 76230, Note_on_c, 8, 55, 0
10, 76230, Note_on_c, 8, 53, 100
10, 76260, Note_on_c, 8, 53, 0
10, 76260, Note_on_c, 8, 51, 100
10, 76290, Note_on_c, 8, 51, 0
10, 76290, Note_on_c, 8, 50, 100
10, 76320, Note_on_c, 8, 50, 0
10, 76320, Note_on_c, 8, 48, 100
10, 76380, Note_on_c, 8, 48, 0
10, 76380, Note_on_c, 8, 50, 100
10, 76410, Note_on_c, 8, 50, 0
10, 76410, Note_on_c, 8, 51, 100
10, 76440, Note_on_c, 8, 51, 0
10, 76440, Note_on_c, 8, 53, 100
10, 76470, Note_on_c, 8, 53, 0
10, 76470, Note_on_c, 8, 55, 100
10, 76500, Note_on_c, 8, 55, 0
10, 76500, Note_on_c, 8, 57, 100
10, 76530, Note_on_c, 8, 57, 0
10, 76530, Note_on_c, 8, 58, 100
10, 76560, Note_on_c, 8, 58, 0
10, 76560, Note_on_c, 8, 60, 100
10, 76590, Note_on_c, 8, 60, 0
10, 76590, Note_on_c, 8, 58, 100
10, 76620, Note_on_c, 8, 58, 0
10, 76620, Note_on_c, 8, 60, 100
10, 76650, Note_on_c, 8, 60, 0
10, 76650, Note_on_c, 8, 62, 100
10, 76680, Note_on_c, 8, 62, 0
10, 76680, Note_on_c, 8, 63, 100
10, 76710, Note_on_c, 8, 63, 0
10, 76710, Note_on_c, 8, 62, 100
10, 76740, Note_on_c, 8, 62, 0
10, 76740, Note_on_c, 8, 60, 100
10, 76770, Note_on_c, 8, 60, 0
10, 76770, Note_on_c, 8, 58, 100
10, 76800, Note_on_c, 8, 58, 0
10, 76800, Note_on_c, 8, 57, 100
10, 76830, Note_on_c, 8, 57, 0
10, 76830, Note_on_c, 8, 55, 100
10, 76860, Note_on_c, 8, 55, 0
10, 76860, Note_on_c, 8, 57, 100
10, 76890, Note_on_c, 8, 57, 0
10, 76890, Note_on_c, 8, 58, 100
10, 76920, Note_on_c, 8, 58, 0
10, 76920, Note_on_c, 8, 60, 100
10, 76950, Note_on_c, 8, 60, 0
10, 76950, Note_on_c, 8, 58, 100
10, 76980, Note_on_c, 8, 58, 0
10, 76980, Note_on_c, 8, 57, 100
10, 77010, Note_on_c, 8, 57, 0
10, 77010, Note_on_c, 8, 55, 100
10, 77040, Note_on_c, 8, 55, 0
10, 77040, Note_on_c, 8, 53, 100
10, 77070, Note_on_c, 8, 53, 0
10, 77070, Note_on_c, 8, 52, 100
10, 77100, Note_on_c, 8, 52, 0
10, 77100, Note_on_c, 8, 53, 100
10, 77130, Note_on_c, 8, 53, 0
10, 77130, Note_on_c, 8, 55, 100
10, 77160, Note_on_c, 8, 55, 0
10, 77160, Note_on_c, 8, 57, 100
10, 77190, Note_on_c, 8, 57, 0
10, 77190, Note_on_c, 8, 55, 100
10, 77220, Note_on_c, 8, 55, 0
10, 77220, Note_on_c, 8, 53, 100
10, 77250, Note_on_c, 8, 53, 0
10, 77250, Note_on_c, 8, 51, 100
10, 77280, Note_on_c, 8, 51, 0
10, 77280, Note_on_c, 8, 50, 100
10, 77340, Note_on_c, 8, 50, 0
10, 77340, Note_on_c, 8, 51, 100
10, 77370, Note_on_c, 8, 51, 0
10, 77370, Note_on_c, 8, 53, 100
10, 77400, Note_on_c, 8, 53, 0
10, 77400, Note_on_c, 8, 55, 100
10, 77430, Note_on_c, 8, 55, 0
10, 77430, Note_on_c, 8, 57, 100
10, 77460, Note_on_c, 8, 57, 0
10, 77460, Note_on_c, 8, 58, 100
10, 77490, Note_on_c, 8, 58, 0
10, 77490, Note_on_c, 8, 60, 100
10, 77520, Note_on_c, 8, 60, 0
10, 77520, Note_on_c, 8, 62, 100
10, 77550, Note_on_c, 8, 62, 0
10, 77550, Note_on_c, 8, 60, 100
10, 77580, Note_on_c, 8, 60, 0
10, 77580, Note_on_c, 8, 62, 100
10, 77610, Note_on_c, 8, 62, 0
10, 77610, Note_on_c, 8, 63, 100
10, 77640, Note_on_c, 8, 63, 0
10, 77640, Note_on_c, 8, 65, 100
10, 77670, Note_on_c, 8, 65, 0
10, 77670, Note_on_c, 8, 63, 100
10, 77700, Note_on_c, 8, 63, 0
10, 77700, Note_on_c, 8, 62, 100
10, 77730, Note_on_c, 8, 62, 0
10, 77730, Note_on_c, 8, 60, 100
10, 77760, Note_on_c, 8, 60, 0
10, 77760, Note_on_c, 8, 58, 100
10, 77790, Note_on_c, 8, 58, 0
10, 77790, Note_on_c, 8, 57, 100
10, 77820, Note_on_c, 8, 57, 0
10, 77820, Note_on_c, 8, 58, 100
10, 77850, Note_on_c, 8, 58, 0
10, 77850, Note_on_c, 8, 60, 100
10, 77880, Note_on_c, 8, 60, 0
10, 77880, Note_on_c, 8, 62, 100
10, 77910, Note_on_c, 8, 62, 0
10, 77910, Note_on_c, 8, 60, 100
10, 77940, Note_on_c, 8, 60, 0
10, 77940, Note_on_c, 8, 58, 100
10, 77970, Note_on_c, 8, 58, 0
10, 77970, Note_on_c, 8, 57, 100
10, 78000, Note_on_c, 8, 57, 0
10, 78000, Note_on_c, 8, 55, 100
10, 78030, Note_on_c, 8, 55, 0
10, 78030, Note_on_c, 8, 54, 100
10, 78060, Note_on_c, 8, 54, 0
10, 78060, Note_on_c, 8, 55, 100
10, 78090, Note_on_c, 8, 55, 0
10, 78090, Note_on_c, 8, 57, 100
10, 78120, Note_on_c, 8, 57, 0
10, 78120, Note_on_c, 8, 58, 100
10, 78150, Note_on_c, 8, 58, 0
10, 78150, Note_on_c, 8, 57, 100
10, 78180, Note_on_c, 8, 57, 0
10, 78180, Note_on_c, 8, 55, 100
10, 78210, Note_on_c, 8, 55, 0
10, 78210, Note_on_c, 8, 53, 100
10, 78240, Note_on_c, 8, 53, 0
10, 78240, Note_on_c, 8, 51, 100
10, 78300, Note_on_c, 8, 51, 0
10, 78300, Note_on_c, 8, 51, 100
10, 78360, Note_on_c, 8, 51, 0
10, 78360, Note_on_c, 8, 51, 100
10, 78420, Note_on_c, 8, 51, 0
10, 78420, Note_on_c, 8, 51, 100
10, 78480, Note_on_c, 8, 51, 0
10, 78480, Note_on_c, 8, 51, 100
10, 78540, Note_on_c, 8, 51, 0
10, 78540, Note_on_c, 8, 51, 100
10, 78600, Note_on_c, 8, 51, 0
10, 78600, Note_on_c, 8, 51, 100
10, 78660, Note_on_c, 8, 51, 0
10, 78660, Note_on_c, 8, 51, 100
10, 78720, Note_on_c, 8, 51, 0
10, 78720, Note_on_c, 8, 51, 100
10, 78780, Note_on_c, 8, 51, 0
10, 78780, Note_on_c, 8, 51, 100
10, 78840, Note_on_c, 8, 51, 0
10, 78840, Note_on_c, 8, 51, 100
10, 78900, Note_on_c, 8, 51, 0
10, 78900, Note_on_c, 8, 51, 100
10, 78960, Note_on_c, 8, 51, 0
10, 78960, Note_on_c, 8, 51, 100
10, 79020, Note_on_c, 8, 51, 0
10, 79020, Note_on_c, 8, 51, 100
10, 79080, Note_on_c, 8, 51, 0
10, 79080, Note_on_c, 8, 51, 100
10, 79140, Note_on_c, 8, 51, 0
10, 79140, Note_on_c, 8, 51, 100
10, 79200, Note_on_c, 8, 51, 0
10, 79200, Note_on_c, 8, 53, 100
10, 79260, Note_on_c, 8, 53, 0
10, 79260, Note_on_c, 8, 53, 100
10, 79320, Note_on_c, 8, 53, 0
10, 79320, Note_on_c, 8, 53, 100
10, 79380, Note_on_c, 8, 53, 0
10, 79380, Note_on_c, 8, 53, 100
10, 79440, Note_on_c, 8, 53, 0
10, 79440, Note_on_c, 8, 53, 100
10, 79500, Note_on_c, 8, 53, 0
10, 79500, Note_on_c, 8, 53, 100
10, 79560, Note_on_c, 8, 53, 0
10, 79560, Note_on_c, 8, 53, 100
10, 79620, Note_on_c, 8, 53, 0
10, 79620, Note_on_c, 8, 53, 100
10, 79680, Note_on_c, 8, 53, 0
10, 79680, Note_on_c, 8, 53, 100
10, 79740, Note_on_c, 8, 53, 0
10, 79740, Note_on_c, 8, 53, 100
10, 79800, Note_on_c, 8, 53, 0
10, 79800, Note_on_c, 8, 53, 100
10, 79860, Note_on_c, 8, 53, 0
10, 79860, Note_on_c, 8, 53, 100
10, 79920, Note_on_c, 8, 53, 0
10, 79920, Note_on_c, 8, 53, 100
10, 79980, Note_on_c, 8, 53, 0
10, 79980, Note_on_c, 8, 53, 100
10, 80040, Note_on_c, 8, 53, 0
10, 80040, Note_on_c, 8, 53, 100
10, 80100, Note_on_c, 8, 53, 0
10, 80100, Note_on_c, 8, 53, 100
10, 80160, Note_on_c, 8, 53, 0
10, 80160, Note_on_c, 8, 46, 100
10, 80400, Note_on_c, 8, 46, 0
10, 80400, Note_on_c, 8, 58, 100
10, 80580, Note_on_c, 8, 58, 0
10, 80580, Note_on_c, 8, 57, 100
10, 80610, Note_on_c, 8, 57, 0
10, 80610, Note_on_c, 8, 58, 100
10, 80640, Note_on_c, 8, 58, 0
10, 80640, Note_on_c, 8, 62, 100
10, 80880, Note_on_c, 8, 62, 0
10, 80880, Note_on_c, 8, 46, 100
10, 81060, Note_on_c, 8, 46, 0
10, 81060, Note_on_c, 8, 45, 100
10, 81090, Note_on_c, 8, 45, 0
10, 81090, Note_on_c, 8, 46, 100
10, 81120, Note_on_c, 8, 46, 0
10, 81120, Note_on_c, 8, 43, 100
10, 81360, Note_on_c, 8, 43, 0
10, 81360, Note_on_c, 8, 55, 100
10, 81540, Note_on_c, 8, 55, 0
10, 81540, Note_on_c, 8, 54, 100
10, 81570, Note_on_c, 8, 54, 0
10, 81570, Note_on_c, 8, 55, 100
10, 81600, Note_on_c, 8, 55, 0
10, 81600, Note_on_c, 8, 58, 100
10, 81840, Note_on_c, 8, 58, 0
10, 81840, Note_on_c, 8, 43, 100
10, 82020, Note_on_c, 8, 43, 0
10, 82020, Note_on_c, 8, 42, 100
10, 82050, Note_on_c, 8, 42, 0
10, 82050, Note_on_c, 8, 43, 100
10, 82080, Note_on_c, 8, 43, 0
10, 82080, Note_on_c, 8, 42, 100
10, 82320, Note_on_c, 8, 42, 0
10, 82320, Note_on_c, 8, 54, 100
10, 82500, Note_on_c, 8, 54, 0
10, 82500, Note_on_c, 8, 52, 100
10, 82530, Note_on_c, 8, 52, 0
10, 82530, Note_on_c, 8, 54, 100
10, 82560, Note_on_c, 8, 54, 0
10, 82560, Note_on_c, 8, 57, 100
10, 82800, Note_on_c, 8, 57, 0
10, 82800, Note_on_c, 8, 50, 100
10, 82980, Note_on_c, 8, 50, 0
10, 82980, Note_on_c, 8, 49, 100
10, 83010, Note_on_c, 8, 49, 0
10, 83010, Note_on_c, 8, 50, 100
10, 83040, Note_on_c, 8, 50, 0
10, 83040, Note_on_c, 8, 55, 100
10, 83160, Note_on_c, 8, 55, 0
10, 83280, Note_on_c, 8, 43, 100
10, 83400, Note_on_c, 8, 43, 0
10, 83520, Note_on_c, 8, 55, 100
10, 83640, Note_on_c, 8, 55, 0
10, 83760, Note_on_c, 8, 58, 100
10, 83880, Note_on_c, 8, 58, 0
10, 84000, Note_on_c, 8, 57, 100
10, 84240, Note_on_c, 8, 57, 0
10, 85560, Note_on_c, 8, 55, 100
10, 85680, Note_on_c, 8, 55, 0
10, 85680, Note_on_c, 8, 54, 100
10, 85800, Note_on_c, 8, 54, 0
10, 85800, Note_on_c, 8, 51, 100
10, 85920, Note_on_c, 8, 51, 0
10, 85920, Note_on_c, 8, 50, 100
10, 85980, Note_on_c, 8, 50, 0
10, 86040, Note_on_c, 8, 50, 100
10, 86100, Note_on_c, 8, 50, 0
10, 86160, Note_on_c, 8, 50, 100
10, 86220, Note_on_c, 8, 50, 0
10, 86280, Note_on_c, 8, 50, 100
10, 86340, Note_on_c, 8, 50, 0
10, 86400, Note_on_c, 8, 43, 100
10, 86640, Note_on_c, 8, 43, 0
10, 86640, Note_on_c, 8, 55, 100
10, 86820, Note_on_c, 8, 55, 0
10, 86820, Note_on_c, 8, 54, 100
10, 86850, Note_on_c, 8, 54, 0
10, 86850, Note_on_c, 8, 55, 100
10, 86880, Note_on_c, 8, 55, 0
10, 86880, Note_on_c, 8, 58, 100
10, 87120, Note_on_c, 8, 58, 0
10, 87120, Note_on_c, 8, 43, 100
10, 87300, Note_on_c, 8, 43, 0
10, 87300, Note_on_c, 8, 42, 100
10, 87330, Note_on_c, 8, 42, 0
10, 87330, Note_on_c, 8, 43, 100
10, 87360, Note_on_c, 8, 43, 0
10, 87360, Note_on_c, 8, 44, 100
10, 87600, Note_on_c, 8, 44, 0
10, 87600, Note_on_c, 8, 62, 100
10, 87780, Note_on_c, 8, 62, 0
10, 87780, Note_on_c, 8, 60, 100
10, 87810, Note_on_c, 8, 60, 0
10, 87810, Note_on_c, 8, 62, 100
10, 87840, Note_on_c, 8, 62, 0
10, 87840, Note_on_c, 8, 65, 100
10, 88080, Note_on_c, 8, 65, 0
10, 88080, Note_on_c, 8, 44, 100
10, 88260, Note_on_c, 8, 44, 0
10, 88260, Note_on_c, 8, 43, 100
10, 88290, Note_on_c, 8, 43, 0
10, 88290, Note_on_c, 8, 44, 100
10, 88320, Note_on_c, 8, 44, 0
10, 88320, Note_on_c, 8, 43, 100
10, 88560, Note_on_c, 8, 43, 0
10, 88560, Note_on_c, 8, 59, 100
10, 88740, Note_on_c, 8, 59, 0
10, 88740, Note_on_c, 8, 57, 100
10, 88770, Note_on_c, 8, 57, 0
10, 88770, Note_on_c, 8, 59, 100
10, 88800, Note_on_c, 8, 59, 0
10, 88800, Note_on_c, 8, 62, 100
10, 89040, Note_on_c, 8, 62, 0
10, 89040, Note_on_c, 8, 55, 100
10, 89220, Note_on_c, 8, 55, 0
10, 89220, Note_on_c, 8, 54, 100
10, 89250, Note_on_c, 8, 54, 0
10, 89250, Note_on_c, 8, 55, 100
10, 89280, Note_on_c, 8, 55, 0
10, 89280, Note_on_c, 8, 60, 100
10, 89400, Note_on_c, 8, 60, 0
10, 89520, Note_on_c, 8, 48, 100
10, 89640, Note_on_c, 8, 48, 0
10, 89760, Note_on_c, 8, 48, 100
10, 89880, Note_on_c, 8, 48, 0
10, 90000, Note_on_c, 8, 51, 100
10, 90120, Note_on_c, 8, 51, 0
10, 90240, Note_on_c, 8, 50, 100
10, 90480, Note_on_c, 8, 50, 0
10, 91800, Note_on_c, 8, 48, 100
10, 91920, Note_on_c, 8, 48, 0
10, 91920, Note_on_c, 8, 47, 100
10, 92040, Note_on_c, 8, 47, 0
10, 92040, Note_on_c, 8, 44, 100
10, 92160, Note_on_c, 8, 44, 0
10, 92160, Note_on_c, 8, 43, 100
10, 92220, Note_on_c, 8, 43, 0
10, 92280, Note_on_c, 8, 43, 100
10, 92340, Note_on_c, 8, 43, 0
10, 92400, Note_on_c, 8, 43, 100
10, 92460, Note_on_c, 8, 43, 0
10, 92520, Note_on_c, 8, 43, 100
10, 92580, Note_on_c, 8, 43, 0
10, 92640, Note_on_c, 8, 48, 100
10, 92760, Note_on_c, 8, 48, 0
10, 92880, Note_on_c, 8, 48, 100
10, 92940, Note_on_c, 8, 48, 0
10, 92940, Note_on_c, 8, 50, 100
10, 93000, Note_on_c, 8, 50, 0
10, 93000, Note_on_c, 8, 51, 100
10, 93060, Note_on_c, 8, 51, 0
10, 93060, Note_on_c, 8, 53, 100
10, 93120, Note_on_c, 8, 53, 0
10, 93120, Note_on_c, 8, 51, 100
10, 93240, Note_on_c, 8, 51, 0
10, 93600, Note_on_c, 8, 52, 100
10, 93840, Note_on_c, 8, 52, 0
10, 93840, Note_on_c, 8, 53, 100
10, 93900, Note_on_c, 8, 53, 0
10, 93900, Note_on_c, 8, 55, 100
10, 93960, Note_on_c, 8, 55, 0
10, 93960, Note_on_c, 8, 56, 100
10, 94020, Note_on_c, 8, 56, 0
10, 94020, Note_on_c, 8, 58, 100
10, 94080, Note_on_c, 8, 58, 0
10, 94080, Note_on_c, 8, 56, 100
10, 94200, Note_on_c, 8, 56, 0
10, 94560, Note_on_c, 8, 45, 100
10, 94800, Note_on_c, 8, 45, 0
10, 94800, Note_on_c, 8, 46, 100
10, 94860, Note_on_c, 8, 46, 0
10, 94860, Note_on_c, 8, 48, 100
10, 94920, Note_on_c, 8, 48, 0
10, 94920, Note_on_c, 8, 50, 100
10, 94980, Note_on_c, 8, 50, 0
10, 94980, Note_on_c, 8, 51, 100
10, 95040, Note_on_c, 8, 51, 0
10, 95040, Note_on_c, 8, 50, 100
10, 95160, Note_on_c, 8, 50, 0
10, 95520, Note_on_c, 8, 50, 100
10, 95760, Note_on_c, 8, 50, 0
10, 95760, Note_on_c, 8, 51, 100
10, 95820, Note_on_c, 8, 51, 0
10, 95820, Note_on_c, 8, 53, 100
10, 95880, Note_on_c, 8, 53, 0
10, 95880, Note_on_c, 8, 55, 100
10, 95940, Note_on_c, 8, 55, 0
10, 95940, Note_on_c, 8, 56, 100
10, 96000, Note_on_c, 8, 56, 0
10, 96000, Note_on_c, 8, 55, 100
10, 96120, Note_on_c, 8, 55, 0
10, 98640, Note_on_c, 8, 59, 100
10, 98880, Note_on_c, 8, 59, 0
10, 98880, Note_on_c, 8, 60, 100
10, 99120, Note_on_c, 8, 60, 0
10, 99120, Note_on_c, 8, 55, 100
10, 99360, Note_on_c, 8, 55, 0
10, 99360, Note_on_c, 8, 56, 100
10, 99600, Note_on_c, 8, 56, 0
10, 99600, Note_on_c, 8, 52, 100
10, 99840, Note_on_c, 8, 52, 0
10, 99840, Note_on_c, 8, 53, 100
10, 99960, Note_on_c, 8, 53, 0
10, 99960, Note_on_c, 8, 55, 100
10, 100080, Note_on_c, 8, 55, 0
10, 100080, Note_on_c, 8, 56, 100
10, 100200, Note_on_c, 8, 56, 0
10, 100200, Note_on_c, 8, 57, 100
10, 100320, Note_on_c, 8, 57, 0
10, 100320, Note_on_c, 8, 58, 100
10, 100440, Note_on_c, 8, 58, 0
10, 100440, Program_c, 8, 45
10, 100440, Note_on_c, 8, 58, 100
10, 100500, Note_on_c, 8, 58, 0
10, 100560, Note_on_c, 8, 65, 100
10, 100620, Note_on_c, 8, 65, 0
10, 100680, Note_on_c, 8, 62, 100
10, 100740, Note_on_c, 8, 62, 0
10, 100800, Note_on_c, 8, 58, 100
10, 100860, Note_on_c, 8, 58, 0
10, 100920, Note_on_c, 8, 53, 100
10, 100980, Note_on_c, 8, 53, 0
10, 101040, Note_on_c, 8, 50, 100
10, 101100, Note_on_c, 8, 50, 0
10, 101160, Note_on_c, 8, 46, 100
10, 101220, Note_on_c, 8, 46, 0
10, 102360, Note_on_c, 8, 58, 100
10, 102420, Note_on_c, 8, 58, 0
10, 102480, Note_on_c, 8, 65, 100
10, 102540, Note_on_c, 8, 65, 0
10, 102600, Note_on_c, 8, 62, 100
10, 102660, Note_on_c, 8, 62, 0
10, 102720, Note_on_c, 8, 58, 100
10, 102780, Note_on_c, 8, 58, 0
10, 102840, Note_on_c, 8, 53, 100
10, 102900, Note_on_c, 8, 53, 0
10, 102960, Note_on_c, 8, 50, 100
10, 103020, Note_on_c, 8, 50, 0
10, 103080, Note_on_c, 8, 46, 100
10, 103140, Note_on_c, 8, 46, 0
10, 103200, Note_on_c, 8, 51, 100
10, 103320, Note_on_c, 8, 51, 0
10, 104160, Note_on_c, 8, 46, 100
10, 104280, Note_on_c, 8, 46, 0
10, 105360, Program_c, 8, 42
10, 105360, Note_on_c, 8, 46, 100
10, 105390, Note_on_c, 8, 46, 0
10, 105390, Note_on_c, 8, 45, 100
10, 105420, Note_on_c, 8, 45, 0
10, 105420, Note_on_c, 8, 46, 100
10, 105450, Note_on_c, 8, 46, 0
10, 105450, Note_on_c, 8, 45, 100
10, 105480, Note_on_c, 8, 45, 0
10, 105480, Note_on_c, 8, 46, 100
10, 105510, Note_on_c, 8, 46, 0
10, 105510, Note_on_c, 8, 45, 100
10, 105540, Note_on_c, 8, 45, 0
10, 105540, Note_on_c, 8, 46, 100
10, 105570, Note_on_c, 8, 46, 0
10, 105570, Note_on_c, 8, 45, 100
10, 105600, Note_on_c, 8, 45, 0
10, 105600, Note_on_c, 8, 46, 100
10, 106140, Note_on_c, 8, 46, 0
10, 106200, Note_on_c, 8, 46, 100
10, 106260, Note_on_c, 8, 46, 0
10, 106320, Note_on_c, 8, 46, 100
10, 106380, Note_on_c, 8, 46, 0
10, 106440, Note_on_c, 8, 46, 100
10, 106500, Note_on_c, 8, 46, 0
10, 106560, Note_on_c, 8, 51, 100
10, 107040, Note_on_c, 8, 51, 0
10, 107040, Note_on_c, 8, 51, 100
10, 107280, Note_on_c, 8, 51, 0
10, 107280, Note_on_c, 8, 51, 100
10, 107460, Note_on_c, 8, 51, 0
10, 107460, Note_on_c, 8, 51, 100
10, 107520, Note_on_c, 8, 51, 0
10, 107520, Note_on_c, 8, 51, 100
10, 107640, Note_on_c, 8, 51, 0
10, 108600, Note_on_c, 8, 65, 100
10, 108660, Note_on_c, 8, 65, 0
10, 108720, Note_on_c, 8, 62, 100
10, 108780, Note_on_c, 8, 62, 0
10, 108840, Note_on_c, 8, 58, 100
10, 108900, Note_on_c, 8, 58, 0
10, 108960, Note_on_c, 8, 56, 100
10, 109020, Note_on_c, 8, 56, 0
10, 109080, Note_on_c, 8, 53, 100
10, 109140, Note_on_c, 8, 53, 0
10, 109200, Note_on_c, 8, 50, 100
10, 109260, Note_on_c, 8, 50, 0
10, 109320, Note_on_c, 8, 46, 100
10, 109380, Note_on_c, 8, 46, 0
10, 109440, Note_on_c, 8, 51, 100
10, 109560, Note_on_c, 8, 51, 0
10, 113280, Note_on_c, 8, 51, 100
10, 113520, Note_on_c, 8, 51, 0
10, 113520, Note_on_c, 8, 51, 100
10, 113700, Note_on_c, 8, 51, 0
10, 113700, Note_on_c, 8, 51, 100
10, 113760, Note_on_c, 8, 51, 0
10, 113760, Note_on_c, 8, 46, 100
10, 114240, Note_on_c, 8, 46, 0
10, 115200, Note_on_c, 8, 51, 100
10, 115440, Note_on_c, 8, 51, 0
10, 115440, Note_on_c, 8, 51, 100
10, 115620, Note_on_c, 8, 51, 0
10, 115620, Note_on_c, 8, 51, 100
10, 115680, Note_on_c, 8, 51, 0
10, 115680, Note_on_c, 8, 46, 100
10, 116160, Note_on_c, 8, 46, 0
10, 119640, Note_on_c, 8, 51, 100
10, 119700, Note_on_c, 8, 51, 0
10, 119700, Note_on_c, 8, 46, 100
10, 119760, Note_on_c, 8, 46, 0
10, 119760, Note_on_c, 8, 51, 100
10, 119820, Note_on_c, 8, 51, 0
10, 119820, Note_on_c, 8, 46, 100
10, 119880, Note_on_c, 8, 46, 0
10, 119880, Note_on_c, 8, 51, 100
10, 119940, Note_on_c, 8, 51, 0
10, 119940, Note_on_c, 8, 46, 100
10, 120000, Note_on_c, 8, 46, 0
10, 120000, Note_on_c, 8, 51, 100
10, 120120, Note_on_c, 8, 51, 0
10, 120240, Note_on_c, 8, 51, 100
10, 120480, Note_on_c, 8, 51, 0
10, 120480, Note_on_c, 8, 50, 100
10, 120720, Note_on_c, 8, 50, 0
10, 120720, Note_on_c, 8, 49, 100
10, 120960, Note_on_c, 8, 49, 0
10, 120960, Note_on_c, 8, 48, 100
10, 121080, Note_on_c, 8, 48, 0
10, 121440, Note_on_c, 8, 48, 100
10, 121560, Note_on_c, 8, 48, 0
10, 121920, Note_on_c, 8, 48, 100
10, 122040, Note_on_c, 8, 48, 0
10, 122400, Note_on_c, 8, 53, 100
10, 122520, Note_on_c, 8, 53, 0
10, 122880, Note_on_c, 8, 46, 100
10, 123000, Note_on_c, 8, 46, 0
10, 123360, Note_on_c, 8, 46, 100
10, 123480, Note_on_c, 8, 46, 0
10, 123840, Note_on_c, 8, 46, 100
10, 123960, Note_on_c, 8, 46, 0
10, 124380, Note_on_c, 8, 51, 100
10, 124440, Note_on_c, 8, 51, 0
10, 124440, Note_on_c, 8, 51, 100
10, 124500, Note_on_c, 8, 51, 0
10, 124500, Note_on_c, 8, 51, 100
10, 124560, Note_on_c, 8, 51, 0
10, 124560, Note_on_c, 8, 55, 100
10, 124620, Note_on_c, 8, 55, 0
10, 124620, Note_on_c, 8, 55, 100
10, 124680, Note_on_c, 8, 55, 0
10, 124680, Note_on_c, 8, 55, 100
10, 124740, Note_on_c, 8, 55, 0
10, 124740, Note_on_c, 8, 55, 100
10, 124800, Note_on_c, 8, 55, 0
10, 124800, Note_on_c, 8, 56, 100
10, 124920, Note_on_c, 8, 56, 0
10, 125040, Note_on_c, 8, 56, 100
10, 125160, Note_on_c, 8, 56, 0
10, 125280, Note_on_c, 8, 57, 100
10, 125760, Note_on_c, 8, 57, 0
10, 125880, Note_on_c, 8, 58, 100
10, 126000, Note_on_c, 8, 58, 0
10, 126000, Note_on_c, 8, 58, 100
10, 126120, Note_on_c, 8, 58, 0
10, 126120, Note_on_c, 8, 58, 100
10, 126240, Note_on_c, 8, 58, 0
10, 126240, Note_on_c, 8, 58, 100
10, 126360, Note_on_c, 8, 58, 0
10, 126360, Note_on_c, 8, 46, 100
10, 126420, Note_on_c, 8, 46, 0
10, 126420, Note_on_c, 8, 46, 100
10, 126480, Note_on_c, 8, 46, 0
10, 126480, Note_on_c, 8, 46, 100
10, 126540, Note_on_c, 8, 46, 0
10, 126540, Note_on_c, 8, 46, 100
10, 126600, Note_on_c, 8, 46, 0
10, 126600, Note_on_c, 8, 46, 100
10, 126660, Note_on_c, 8, 46, 0
10, 126660, Note_on_c, 8, 46, 100
10, 126720, Note_on_c, 8, 46, 0
10, 126720, Note_on_c, 8, 46, 100
10, 127320, Note_on_c, 8, 46, 0
10, 127680, Note_on_c, 8, 46, 100
10, 127800, Note_on_c, 8, 46, 0
10, 128160, Note_on_c, 8, 46, 100
10, 128280, Note_on_c, 8, 46, 0
10, 128640, Note_on_c, 8, 46, 100
10, 128760, Note_on_c, 8, 46, 0
10, 129120, Note_on_c, 8, 46, 100
10, 129240, Note_on_c, 8, 46, 0
10, 129600, Note_on_c, 8, 46, 100
10, 129720, Note_on_c, 8, 46, 0
10, 130080, Note_on_c, 8, 51, 100
10, 130200, Note_on_c, 8, 51, 0
10, 130200, Note_on_c, 8, 51, 100
10, 130260, Note_on_c, 8, 51, 0
10, 130260, Note_on_c, 8, 51, 100
10, 130320, Note_on_c, 8, 51, 0
10, 130320, Note_on_c, 8, 51, 100
10, 130380, Note_on_c, 8, 51, 0
10, 130380, Note_on_c, 8, 51, 100
10, 130440, Note_on_c, 8, 51, 0
10, 130440, Note_on_c, 8, 51, 100
10, 130500, Note_on_c, 8, 51, 0
10, 130500, Note_on_c, 8, 51, 100
10, 130560, Note_on_c, 8, 51, 0
10, 130560, Note_on_c, 8, 51, 100
10, 131160, Note_on_c, 8, 51, 0
10, 131520, Note_on_c, 8, 51, 100
10, 131640, Note_on_c, 8, 51, 0
10, 132000, Note_on_c, 8, 51, 100
10, 132120, Note_on_c, 8, 51, 0
10, 132480, Note_on_c, 8, 51, 100
10, 132600, Note_on_c, 8, 51, 0
10, 132960, Note_on_c, 8, 51, 100
10, 133080, Note_on_c, 8, 51, 0
10, 133440, Note_on_c, 8, 51, 100
10, 133560, Note_on_c, 8, 51, 0
10, 133920, Note_on_c, 8, 44, 100
10, 134040, Note_on_c, 8, 44, 0
10, 134160, Note_on_c, 8, 56, 100
10, 134280, Note_on_c, 8, 56, 0
10, 134400, Note_on_c, 8, 55, 100
10, 134520, Note_on_c, 8, 55, 0
10, 134640, Note_on_c, 8, 50, 100
10, 134760, Note_on_c, 8, 50, 0
10, 134880, Note_on_c, 8, 51, 100
10, 135000, Note_on_c, 8, 51, 0
10, 135000, Note_on_c, 8, 55, 100
10, 135120, Note_on_c, 8, 55, 0
10, 135120, Note_on_c, 8, 56, 100
10, 135240, Note_on_c, 8, 56, 0
10, 135240, Note_on_c, 8, 60, 100
10, 135360, Note_on_c, 8, 60, 0
10, 135360, Note_on_c, 8, 58, 100
10, 135420, Note_on_c, 8, 58, 0
10, 135420, Note_on_c, 8, 58, 100
10, 135480, Note_on_c, 8, 58, 0
10, 135480, Note_on_c, 8, 58, 100
10, 135540, Note_on_c, 8, 58, 0
10, 135540, Note_on_c, 8, 58, 100
10, 135600, Note_on_c, 8, 58, 0
10, 135600, Note_on_c, 8, 46, 100
10, 135660, Note_on_c, 8, 46, 0
10, 135660, Note_on_c, 8, 46, 100
10, 135720, Note_on_c, 8, 46, 0
10, 135720, Note_on_c, 8, 46, 100
10, 135780, Note_on_c, 8, 46, 0
10, 135780, Note_on_c, 8, 46, 100
10, 135840, Note_on_c, 8, 46, 0
10, 135840, Note_on_c, 8, 51, 100
10, 135960, Note_on_c, 8, 51, 0
10, 135960, Note_on_c, 8, 63, 100
10, 136080, Note_on_c, 8, 63, 0
10, 136080, Note_on_c, 8, 58, 100
10, 136200, Note_on_c, 8, 58, 0
10, 136200, Note_on_c, 8, 55, 100
10, 136320, Note_on_c, 8, 55, 0
10, 136320, Note_on_c, 8, 51, 100
10, 136440, Note_on_c, 8, 51, 0
10, 136560, Note_on_c, 8, 51, 100
10, 136680, Note_on_c, 8, 51, 0
10, 136800, Note_on_c, 8, 50, 100
10, 136920, Note_on_c, 8, 50, 0
10, 137040, Note_on_c, 8, 56, 100
10, 137160, Note_on_c, 8, 56, 0
10, 137280, Note_on_c, 8, 55, 100
10, 137460, Note_on_c, 8, 55, 0
10, 137460, Note_on_c, 8, 50, 100
10, 137520, Note_on_c, 8, 50, 0
10, 137520, Note_on_c, 8, 51, 100
10, 137700, Note_on_c, 8, 51, 0
10, 137700, Note_on_c, 8, 44, 100
10, 137760, Note_on_c, 8, 44, 0
10, 137760, Note_on_c, 8, 46, 100
10, 137820, Note_on_c, 8, 46, 0
10, 137820, Note_on_c, 8, 45, 100
10, 137880, Note_on_c, 8, 45, 0
10, 137880, Note_on_c, 8, 46, 100
10, 137940, Note_on_c, 8, 46, 0
10, 137940, Note_on_c, 8, 45, 100
10, 138000, Note_on_c, 8, 45, 0
10, 138000, Note_on_c, 8, 46, 100
10, 138120, Note_on_c, 8, 46, 0
10, 140160, Program_c, 8, 45
10, 140160, Note_on_c, 8, 51, 100
10, 140280, Note_on_c, 8, 51, 0
10, 141120, Note_on_c, 8, 46, 100
10, 141240, Note_on_c, 8, 46, 0
10, 141360, Note_on_c, 8, 46, 100
10, 141480, Note_on_c, 8, 46, 0
10, 141600, Note_on_c, 8, 46, 100
10, 141720, Note_on_c, 8, 46, 0
10, 141840, Note_on_c, 8, 46, 100
10, 141960, Note_on_c, 8, 46, 0
10, 142080, Note_on_c, 8, 51, 100
10, 142200, Note_on_c, 8, 51, 0
10, 143040, Note_on_c, 8, 46, 100
10, 143160, Note_on_c, 8, 46, 0
10, 143280, Note_on_c, 8, 46, 100
10, 143400, Note_on_c, 8, 46, 0
10, 143520, Note_on_c, 8, 46, 100
10, 143640, Note_on_c, 8, 46, 0
10, 143760, Note_on_c, 8, 46, 100
10, 143880, Note_on_c, 8, 46, 0
10, 144000, Note_on_c, 8, 51, 100
10, 144000, Program_c, 8, 42
10, 144120, Note_on_c, 8, 51, 0
10, 144240, Note_on_c, 8, 58, 100
10, 144360, Note_on_c, 8, 58, 0
10, 144480, Note_on_c, 8, 63, 100
10, 144600, Note_on_c, 8, 63, 0
10, 144720, Note_on_c, 8, 58, 100
10, 144840, Note_on_c, 8, 58, 0
10, 144960, Note_on_c, 8, 51, 100
10, 145080, Note_on_c, 8, 51, 0
10, 145260, Note_on_c, 8, 51, 100
10, 145320, Note_on_c, 8, 51, 0
10, 145320, Note_on_c, 8, 53, 100
10, 145380, Note_on_c, 8, 53, 0
10, 145380, Note_on_c, 8, 55, 100
10, 145440, Note_on_c, 8, 55, 0
10, 145440, Note_on_c, 8, 56, 100
10, 145560, Note_on_c, 8, 56, 0
10, 145800, Note_on_c, 8, 56, 100
10, 145920, Note_on_c, 8, 56, 0
10, 145920, Note_on_c, 8, 55, 100
10, 145980, Note_on_c, 8, 55, 0
10, 146040, Note_on_c, 8, 56, 100
10, 146100, Note_on_c, 8, 56, 0
10, 146160, Note_on_c, 8, 58, 100
10, 146220, Note_on_c, 8, 58, 0
10, 146280, Note_on_c, 8, 46, 100
10, 146340, Note_on_c, 8, 46, 0
10, 146400, Note_on_c, 8, 51, 100
10, 146520, Note_on_c, 8, 51, 0
10, 147360, Note_on_c, 8, 51, 100
10, 147480, Note_on_c, 8, 51, 0
10, 148140, Note_on_c, 8, 51, 100
10, 148200, Note_on_c, 8, 51, 0
10, 148200, Note_on_c, 8, 53, 100
10, 148260, Note_on_c, 8, 53, 0
10, 148260, Note_on_c, 8, 55, 100
10, 148320, Note_on_c, 8, 55, 0
10, 148320, Note_on_c, 8, 56, 100
10, 148380, Note_on_c, 8, 56, 0
10, 148440, Note_on_c, 8, 56, 100
10, 148500, Note_on_c, 8, 56, 0
10, 148560, Note_on_c, 8, 56, 100
10, 148620, Note_on_c, 8, 56, 0
10, 148680, Note_on_c, 8, 56, 100
10, 148740, Note_on_c, 8, 56, 0
10, 148800, Note_on_c, 8, 56, 100
10, 148920, Note_on_c, 8, 56, 0
10, 149280, Note_on_c, 8, 46, 100
10, 149400, Note_on_c, 8, 46, 0
10, 149520, Note_on_c, 8, 46, 100
10, 149640, Note_on_c, 8, 46, 0
10, 149760, Note_on_c, 8, 46, 100
10, 149880, Note_on_c, 8, 46, 0
10, 150000, Note_on_c, 8, 46, 100
10, 150120, Note_on_c, 8, 46, 0
10, 150240, Note_on_c, 8, 51, 100
10, 150360, Note_on_c, 8, 51, 0
10, 152640, Note_on_c, 8, 51, 100
10, 152760, Note_on_c, 8, 51, 0
10, 152880, Note_on_c, 8, 51, 100
10, 153000, Note_on_c, 8, 51, 0
10, 153120, Note_on_c, 8, 51, 100
10, 153240, Note_on_c, 8, 51, 0
10, 153360, Note_on_c, 8, 51, 100
10, 153480, Note_on_c, 8, 51, 0
10, 153600, Note_on_c, 8, 51, 100
10, 153720, Note_on_c, 8, 51, 0
10, 153840, Note_on_c, 8, 51, 100
10, 153960, Note_on_c, 8, 51, 0
10, 154080, Note_on_c, 8, 51, 100
10, 154200, Note_on_c, 8, 51, 0
10, 154320, Note_on_c, 8, 51, 100
10, 154440, Note_on_c, 8, 51, 0
10, 154620, Note_on_c, 8, 51, 100
10, 154680, Note_on_c, 8, 51, 0
10, 154680, Note_on_c, 8, 54, 100
10, 154740, Note_on_c, 8, 54, 0
10, 154740, Note_on_c, 8, 51, 100
10, 154800, Note_on_c, 8, 51, 0
10, 154800, Note_on_c, 8, 47, 100
10, 154860, Note_on_c, 8, 47, 0
10, 154860, Note_on_c, 8, 51, 100
10, 154920, Note_on_c, 8, 51, 0
10, 154920, Note_on_c, 8, 54, 100
10, 154980, Note_on_c, 8, 54, 0
10, 154980, Note_on_c, 8, 51, 100
10, 155040, Note_on_c, 8, 51, 0
10, 155040, Note_on_c, 8, 46, 100
10, 155100, Note_on_c, 8, 46, 0
10, 155100, Note_on_c, 8, 51, 100
10, 155160, Note_on_c, 8, 51, 0
10, 155160, Note_on_c, 8, 54, 100
10, 155220, Note_on_c, 8, 54, 0
10, 155220, Note_on_c, 8, 51, 100
10, 155280, Note_on_c, 8, 51, 0
10, 155280, Note_on_c, 8, 45, 100
10, 155340, Note_on_c, 8, 45, 0
10, 155340, Note_on_c, 8, 51, 100
10, 155400, Note_on_c, 8, 51, 0
10, 155400, Note_on_c, 8, 54, 100
10, 155460, Note_on_c, 8, 54, 0
10, 155460, Note_on_c, 8, 51, 100
10, 155520, Note_on_c, 8, 51, 0
10, 155520, Note_on_c, 8, 46, 100
10, 155640, Note_on_c, 8, 46, 0
10, 156060, Note_on_c, 8, 46, 100
10, 156120, Note_on_c, 8, 46, 0
10, 156120, Note_on_c, 8, 46, 100
10, 156180, Note_on_c, 8, 46, 0
10, 156180, Note_on_c, 8, 46, 100
10, 156240, Note_on_c, 8, 46, 0
10, 156240, Note_on_c, 8, 46, 100
10, 156300, Note_on_c, 8, 46, 0
10, 156300, Note_on_c, 8, 46, 100
10, 156360, Note_on_c, 8, 46, 0
10, 156360, Note_on_c, 8, 46, 100
10, 156420, Note_on_c, 8, 46, 0
10, 156420, Note_on_c, 8, 46, 100
10, 156480, Note_on_c, 8, 46, 0
10, 156480, Note_on_c, 8, 46, 100
10, 156540, Note_on_c, 8, 46, 0
10, 156540, Note_on_c, 8, 46, 100
10, 156600, Note_on_c, 8, 46, 0
10, 156600, Note_on_c, 8, 46, 100
10, 156660, Note_on_c, 8, 46, 0
10, 156660, Note_on_c, 8, 46, 100
10, 156720, Note_on_c, 8, 46, 0
10, 156720, Note_on_c, 8, 46, 100
10, 156780, Note_on_c, 8, 46, 0
10, 156780, Note_on_c, 8, 46, 100
10, 156840, Note_on_c, 8, 46, 0
10, 156840, Note_on_c, 8, 46, 100
10, 156900, Note_on_c, 8, 46, 0
10, 156900, Note_on_c, 8, 46, 100
10, 156960, Note_on_c, 8, 46, 0
10, 156960, Note_on_c, 8, 51, 100
10, 157020, Note_on_c, 8, 51, 0
10, 157020, Note_on_c, 8, 53, 100
10, 157050, Note_on_c, 8, 53, 0
10, 157050, Note_on_c, 8, 55, 100
10, 157080, Note_on_c, 8, 55, 0
10, 157080, Note_on_c, 8, 56, 100
10, 157110, Note_on_c, 8, 56, 0
10, 157110, Note_on_c, 8, 58, 100
10, 157140, Note_on_c, 8, 58, 0
10, 157140, Note_on_c, 8, 60, 100
10, 157170, Note_on_c, 8, 60, 0
10, 157170, Note_on_c, 8, 62, 100
10, 157200, Note_on_c, 8, 62, 0
10, 157200, Note_on_c, 8, 63, 100
10, 157230, Note_on_c, 8, 63, 0
10, 157230, Note_on_c, 8, 62, 100
10, 157260, Note_on_c, 8, 62, 0
10, 157260, Note_on_c, 8, 63, 100
10, 157290, Note_on_c, 8, 63, 0
10, 157290, Note_on_c, 8, 65, 100
10, 157320, Note_on_c, 8, 65, 0
10, 157320, Note_on_c, 8, 67, 100
10, 157350, Note_on_c, 8, 67, 0
10, 157350, Note_on_c, 8, 65, 100
10, 157380, Note_on_c, 8, 65, 0
10, 157380, Note_on_c, 8, 63, 100
10, 157410, Note_on_c, 8, 63, 0
10, 157410, Note_on_c, 8, 62, 100
10, 157440, Note_on_c, 8, 62, 0
10, 157440, Note_on_c, 8, 60, 100
10, 157470, Note_on_c, 8, 60, 0
10, 157470, Note_on_c, 8, 59, 100
10, 157500, Note_on_c, 8, 59, 0
10, 157500, Note_on_c, 8, 60, 100
10, 157530, Note_on_c, 8, 60, 0
10, 157530, Note_on_c, 8, 62, 100
10, 157560, Note_on_c, 8, 62, 0
10, 157560, Note_on_c, 8, 63, 100
10, 157590, Note_on_c, 8, 63, 0
10, 157590, Note_on_c, 8, 62, 100
10, 157620, Note_on_c, 8, 62, 0
10, 157620, Note_on_c, 8, 60, 100
10, 157650, Note_on_c, 8, 60, 0
10, 157650, Note_on_c, 8, 58, 100
10, 157680, Note_on_c, 8, 58, 0
10, 157680, Note_on_c, 8, 56, 100
10, 157710, Note_on_c, 8, 56, 0
10, 157710, Note_on_c, 8, 55, 100
10, 157740, Note_on_c, 8, 55, 0
10, 157740, Note_on_c, 8, 56, 100
10, 157770, Note_on_c, 8, 56, 0
10, 157770, Note_on_c, 8, 58, 100
10, 157800, Note_on_c, 8, 58, 0
10, 157800, Note_on_c, 8, 60, 100
10, 157830, Note_on_c, 8, 60, 0
10, 157830, Note_on_c, 8, 58, 100
10, 157860, Note_on_c, 8, 58, 0
10, 157860, Note_on_c, 8, 56, 100
10, 157890, Note_on_c, 8, 56, 0
10, 157890, Note_on_c, 8, 55, 100
10, 157920, Note_on_c, 8, 55, 0
10, 157920, Note_on_c, 8, 53, 100
10, 157950, Note_on_c, 8, 53, 0
10, 157950, Note_on_c, 8, 41, 100
10, 157980, Note_on_c, 8, 41, 0
10, 157980, Note_on_c, 8, 43, 100
10, 158010, Note_on_c, 8, 43, 0
10, 158010, Note_on_c, 8, 44, 100
10, 158040, Note_on_c, 8, 44, 0
10, 158040, Note_on_c, 8, 46, 100
10, 158070, Note_on_c, 8, 46, 0
10, 158070, Note_on_c, 8, 48, 100
10, 158100, Note_on_c, 8, 48, 0
10, 158100, Note_on_c, 8, 50, 100
10, 158130, Note_on_c, 8, 50, 0
10, 158130, Note_on_c, 8, 51, 100
10, 158160, Note_on_c, 8, 51, 0
10, 158160, Note_on_c, 8, 53, 100
10, 158190, Note_on_c, 8, 53, 0
10, 158190, Note_on_c, 8, 51, 100
10, 158220, Note_on_c, 8, 51, 0
10, 158220, Note_on_c, 8, 53, 100
10, 158250, Note_on_c, 8, 53, 0
10, 158250, Note_on_c, 8, 55, 100
10, 158280, Note_on_c, 8, 55, 0
10, 158280, Note_on_c, 8, 56, 100
10, 158310, Note_on_c, 8, 56, 0
10, 158310, Note_on_c, 8, 55, 100
10, 158340, Note_on_c, 8, 55, 0
10, 158340, Note_on_c, 8, 53, 100
10, 158370, Note_on_c, 8, 53, 0
10, 158370, Note_on_c, 8, 51, 100
10, 158400, Note_on_c, 8, 51, 0
10, 158400, Note_on_c, 8, 50, 100
10, 158430, Note_on_c, 8, 50, 0
10, 158430, Note_on_c, 8, 48, 100
10, 158460, Note_on_c, 8, 48, 0
10, 158460, Note_on_c, 8, 50, 100
10, 158490, Note_on_c, 8, 50, 0
10, 158490, Note_on_c, 8, 51, 100
10, 158520, Note_on_c, 8, 51, 0
10, 158520, Note_on_c, 8, 53, 100
10, 158550, Note_on_c, 8, 53, 0
10, 158550, Note_on_c, 8, 51, 100
10, 158580, Note_on_c, 8, 51, 0
10, 158580, Note_on_c, 8, 50, 100
10, 158610, Note_on_c, 8, 50, 0
10, 158610, Note_on_c, 8, 48, 100
10, 158640, Note_on_c, 8, 48, 0
10, 158640, Note_on_c, 8, 46, 100
10, 158670, Note_on_c, 8, 46, 0
10, 158670, Note_on_c, 8, 45, 100
10, 158700, Note_on_c, 8, 45, 0
10, 158700, Note_on_c, 8, 46, 100
10, 158730, Note_on_c, 8, 46, 0
10, 158730, Note_on_c, 8, 48, 100
10, 158760, Note_on_c, 8, 48, 0
10, 158760, Note_on_c, 8, 50, 100
10, 158790, Note_on_c, 8, 50, 0
10, 158790, Note_on_c, 8, 48, 100
10, 158820, Note_on_c, 8, 48, 0
10, 158820, Note_on_c, 8, 46, 100
10, 158850, Note_on_c, 8, 46, 0
10, 158850, Note_on_c, 8, 44, 100
10, 158880, Note_on_c, 8, 44, 0
10, 158880, Note_on_c, 8, 43, 100
10, 158940, Note_on_c, 8, 43, 0
10, 158940, Note_on_c, 8, 44, 100
10, 158970, Note_on_c, 8, 44, 0
10, 158970, Note_on_c, 8, 46, 100
10, 159000, Note_on_c, 8, 46, 0
10, 159000, Note_on_c, 8, 48, 100
10, 159030, Note_on_c, 8, 48, 0
10, 159030, Note_on_c, 8, 50, 100
10, 159060, Note_on_c, 8, 50, 0
10, 159060, Note_on_c, 8, 51, 100
10, 159090, Note_on_c, 8, 51, 0
10, 159090, Note_on_c, 8, 53, 100
10, 159120, Note_on_c, 8, 53, 0
10, 159120, Note_on_c, 8, 55, 100
10, 159150, Note_on_c, 8, 55, 0
10, 159150, Note_on_c, 8, 53, 100
10, 159180, Note_on_c, 8, 53, 0
10, 159180, Note_on_c, 8, 55, 100
10, 159210, Note_on_c, 8, 55, 0
10, 159210, Note_on_c, 8, 56, 100
10, 159240, Note_on_c, 8, 56, 0
10, 159240, Note_on_c, 8, 58, 100
10, 159270, Note_on_c, 8, 58, 0
10, 159270, Note_on_c, 8, 56, 100
10, 159300, Note_on_c, 8, 56, 0
10, 159300, Note_on_c, 8, 55, 100
10, 159330, Note_on_c, 8, 55, 0
10, 159330, Note_on_c, 8, 53, 100
10, 159360, Note_on_c, 8, 53, 0
10, 159360, Note_on_c, 8, 51, 100
10, 159390, Note_on_c, 8, 51, 0
10, 159390, Note_on_c, 8, 50, 100
10, 159420, Note_on_c, 8, 50, 0
10, 159420, Note_on_c, 8, 51, 100
10, 159450, Note_on_c, 8, 51, 0
10, 159450, Note_on_c, 8, 53, 100
10, 159480, Note_on_c, 8, 53, 0
10, 159480, Note_on_c, 8, 55, 100
10, 159510, Note_on_c, 8, 55, 0
10, 159510, Note_on_c, 8, 53, 100
10, 159540, Note_on_c, 8, 53, 0
10, 159540, Note_on_c, 8, 51, 100
10, 159570, Note_on_c, 8, 51, 0
10, 159570, Note_on_c, 8, 50, 100
10, 159600, Note_on_c, 8, 50, 0
10, 159600, Note_on_c, 8, 48, 100
10, 159630, Note_on_c, 8, 48, 0
10, 159630, Note_on_c, 8, 47, 100
10, 159660, Note_on_c, 8, 47, 0
10, 159660, Note_on_c, 8, 48, 100
10, 159690, Note_on_c, 8, 48, 0
10, 159690, Note_on_c, 8, 50, 100
10, 159720, Note_on_c, 8, 50, 0
10, 159720, Note_on_c, 8, 51, 100
10, 159750, Note_on_c, 8, 51, 0
10, 159750, Note_on_c, 8, 50, 100
10, 159780, Note_on_c, 8, 50, 0
10, 159780, Note_on_c, 8, 48, 100
10, 159810, Note_on_c, 8, 48, 0
10, 159810, Note_on_c, 8, 46, 100
10, 159840, Note_on_c, 8, 46, 0
10, 159840, Note_on_c, 8, 44, 100
10, 159900, Note_on_c, 8, 44, 0
10, 159900, Note_on_c, 8, 44, 100
10, 159960, Note_on_c, 8, 44, 0
10, 159960, Note_on_c, 8, 44, 100
10, 160020, Note_on_c, 8, 44, 0
10, 160020, Note_on_c, 8, 44, 100
10, 160080, Note_on_c, 8, 44, 0
10, 160080, Note_on_c, 8, 44, 100
10, 160140, Note_on_c, 8, 44, 0
10, 160140, Note_on_c, 8, 44, 100
10, 160200, Note_on_c, 8, 44, 0
10, 160200, Note_on_c, 8, 44, 100
10, 160260, Note_on_c, 8, 44, 0
10, 160260, Note_on_c, 8, 44, 100
10, 160320, Note_on_c, 8, 44, 0
10, 160320, Note_on_c, 8, 44, 100
10, 160380, Note_on_c, 8, 44, 0
10, 160380, Note_on_c, 8, 44, 100
10, 160440, Note_on_c, 8, 44, 0
10, 160440, Note_on_c, 8, 44, 100
10, 160500, Note_on_c, 8, 44, 0
10, 160500, Note_on_c, 8, 44, 100
10, 160560, Note_on_c, 8, 44, 0
10, 160560, Note_on_c, 8, 44, 100
10, 160620, Note_on_c, 8, 44, 0
10, 160620, Note_on_c, 8, 44, 100
10, 160680, Note_on_c, 8, 44, 0
10, 160680, Note_on_c, 8, 44, 100
10, 160740, Note_on_c, 8, 44, 0
10, 160740, Note_on_c, 8, 44, 100
10, 160800, Note_on_c, 8, 44, 0
10, 160800, Note_on_c, 8, 45, 100
10, 160920, Note_on_c, 8, 45, 0
10, 161610, Note_on_c, 8, 45, 100
10, 161640, Note_on_c, 8, 45, 0
10, 161640, Note_on_c, 8, 45, 100
10, 161730, Note_on_c, 8, 45, 0
10, 161730, Note_on_c, 8, 45, 100
10, 161760, Note_on_c, 8, 45, 0
10, 161760, Note_on_c, 8, 46, 100
10, 162000, Note_on_c, 8, 46, 0
10, 174240, Note_on_c, 8, 51, 100
10, 174480, Note_on_c, 8, 51, 0
10, 174480, Note_on_c, 8, 63, 100
10, 174660, Note_on_c, 8, 63, 0
10, 174660, Note_on_c, 8, 62, 100
10, 174690, Note_on_c, 8, 62, 0
10, 174690, Note_on_c, 8, 63, 100
10, 174720, Note_on_c, 8, 63, 0
10, 174720, Note_on_c, 8, 67, 100
10, 174960, Note_on_c, 8, 67, 0
10, 174960, Note_on_c, 8, 51, 100
10, 175140, Note_on_c, 8, 51, 0
10, 175140, Note_on_c, 8, 50, 100
10, 175170, Note_on_c, 8, 50, 0
10, 175170, Note_on_c, 8, 51, 100
10, 175200, Note_on_c, 8, 51, 0
10, 175200, Note_on_c, 8, 48, 100
10, 175440, Note_on_c, 8, 48, 0
10, 175440, Note_on_c, 8, 60, 100
10, 175620, Note_on_c, 8, 60, 0
10, 175620, Note_on_c, 8, 59, 100
10, 175650, Note_on_c, 8, 59, 0
10, 175650, Note_on_c, 8, 60, 100
10, 175680, Note_on_c, 8, 60, 0
10, 175680, Note_on_c, 8, 63, 100
10, 175920, Note_on_c, 8, 63, 0
10, 175920, Note_on_c, 8, 48, 100
10, 176100, Note_on_c, 8, 48, 0
10, 176100, Note_on_c, 8, 47, 100
10, 176130, Note_on_c, 8, 47, 0
10, 176130, Note_on_c, 8, 48, 100
10, 176160, Note_on_c, 8, 48, 0
10, 176160, Note_on_c, 8, 44, 100
10, 176880, Note_on_c, 8, 44, 0
10, 176880, Note_on_c, 8, 45, 100
10, 177120, Note_on_c, 8, 45, 0
10, 177120, Note_on_c, 8, 46, 100
10, 178080, Note_on_c, 8, 46, 0
10, 178080, Note_on_c, 8, 51, 100
10, 178140, Note_on_c, 8, 51, 0
10, 178140, Note_on_c, 8, 51, 100
10, 178200, Note_on_c, 8, 51, 0
10, 178200, Note_on_c, 8, 51, 100
10, 178260, Note_on_c, 8, 51, 0
10, 178260, Note_on_c, 8, 51, 100
10, 178320, Note_on_c, 8, 51, 0
10, 178320, Note_on_c, 8, 51, 100
10, 178380, Note_on_c, 8, 51, 0
10, 178380, Note_on_c, 8, 51, 100
10, 178440, Note_on_c, 8, 51, 0
10, 178440, Note_on_c, 8, 51, 100
10, 178500, Note_on_c, 8, 51, 0
10, 178500, Note_on_c, 8, 51, 100
10, 178560, Note_on_c, 8, 51, 0
10, 178560, Note_on_c, 8, 51, 100
10, 179100, Note_on_c, 8, 51, 0
10, 179100, Note_on_c, 8, 51, 100
10, 179160, Note_on_c, 8, 51, 0
10, 179160, Note_on_c, 8, 51, 100
10, 179220, Note_on_c, 8, 51, 0
10, 179220, Note_on_c, 8, 51, 100
10, 179280, Note_on_c, 8, 51, 0
10, 179280, Note_on_c, 8, 51, 100
10, 179340, Note_on_c, 8, 51, 0
10, 179340, Note_on_c, 8, 51, 100
10, 179400, Note_on_c, 8, 51, 0
10, 179400, Note_on_c, 8, 51, 100
10, 179460, Note_on_c, 8, 51, 0
10, 179460, Note_on_c, 8, 51, 100
10, 179520, Note_on_c, 8, 51, 0
10, 179520, Note_on_c, 8, 51, 100
10, 180120, Note_on_c, 8, 51, 0
10, 180600, Note_on_c, 8, 51, 100
10, 180660, Note_on_c, 8, 51, 0
10, 180660, Note_on_c, 8, 46, 100
10, 180720, Note_on_c, 8, 46, 0
10, 180720, Note_on_c, 8, 51, 100
10, 180780, Note_on_c, 8, 51, 0
10, 180780, Note_on_c, 8, 46, 100
10, 180840, Note_on_c, 8, 46, 0
10, 180840, Note_on_c, 8, 51, 100
10, 180900, Note_on_c, 8, 51, 0
10, 180900, Note_on_c, 8, 46, 100
10, 180960, Note_on_c, 8, 46, 0
10, 180960, Note_on_c, 8, 51, 100
10, 181200, Note_on_c, 8, 51, 0
10, 181200, Note_on_c, 8, 43, 100
10, 181320, Note_on_c, 8, 43, 0
10, 181320, Note_on_c, 8, 46, 100
10, 181440, Note_on_c, 8, 46, 0
10, 181440, Note_on_c, 8, 51, 100
10, 181560, Note_on_c, 8, 51, 0
10, 181560, Note_on_c, 8, 55, 100
10, 181680, Note_on_c, 8, 55, 0
10, 181680, Note_on_c, 8, 58, 100
10, 181800, Note_on_c, 8, 58, 0
10, 181800, Note_on_c, 8, 55, 100
10, 181920, Note_on_c, 8, 55, 0
10, 181920, Note_on_c, 8, 51, 100
10, 182040, Note_on_c, 8, 51, 0
10, 182040, Note_on_c, 8, 51, 100
10, 182160, Note_on_c, 8, 51, 0
10, 182160, Note_on_c, 8, 51, 100
10, 182280, Note_on_c, 8, 51, 0
10, 182280, Note_on_c, 8, 51, 100
10, 182400, Note_on_c, 8, 51, 0
10, 182400, Note_on_c, 8, 51, 100
10, 182520, Note_on_c, 8, 51, 0
10, 182610, Note_on_c, 8, 51, 100
10, 182640, Note_on_c, 8, 51, 0
10, 182640, Note_on_c, 8, 51, 100
10, 182760, Note_on_c, 8, 51, 0
10, 182850, Note_on_c, 8, 51, 100
10, 182880, Note_on_c, 8, 51, 0
10, 182880, Note_on_c, 8, 51, 100
10, 183120, Note_on_c, 8, 51, 0
10, 183120, End_track
11, 0, Start_track
11, 0, MIDI_port, 0
11, 0, Title_t, "Contrabasso"
11, 0, Program_c, 10, 43
11, 0, Note_on_c, 10, 39, 100
11, 480, Note_on_c, 10, 39, 0
11, 480, Note_on_c, 10, 39, 100
11, 720, Note_on_c, 10, 39, 0
11, 720, Note_on_c, 10, 39, 100
11, 900, Note_on_c, 10, 39, 0
11, 900, Note_on_c, 10, 39, 100
11, 960, Note_on_c, 10, 39, 0
11, 960, Note_on_c, 10, 39, 100
11, 1080, Note_on_c, 10, 39, 0
11, 2040, Note_on_c, 10, 53, 100
11, 2100, Note_on_c, 10, 53, 0
11, 2160, Note_on_c, 10, 50, 100
11, 2220, Note_on_c, 10, 50, 0
11, 2280, Note_on_c, 10, 46, 100
11, 2340, Note_on_c, 10, 46, 0
11, 2400, Note_on_c, 10, 44, 100
11, 2460, Note_on_c, 10, 44, 0
11, 2520, Note_on_c, 10, 41, 100
11, 2580, Note_on_c, 10, 41, 0
11, 2640, Note_on_c, 10, 38, 100
11, 2700, Note_on_c, 10, 38, 0
11, 2760, Note_on_c, 10, 34, 100
11, 2820, Note_on_c, 10, 34, 0
11, 2880, Note_on_c, 10, 39, 100
11, 3000, Note_on_c, 10, 39, 0
11, 3960, Note_on_c, 10, 53, 100
11, 4020, Note_on_c, 10, 53, 0
11, 4080, Note_on_c, 10, 50, 100
11, 4140, Note_on_c, 10, 50, 0
11, 4200, Note_on_c, 10, 46, 100
11, 4260, Note_on_c, 10, 46, 0
11, 4320, Note_on_c, 10, 44, 100
11, 4380, Note_on_c, 10, 44, 0
11, 4440, Note_on_c, 10, 41, 100
11, 4500, Note_on_c, 10, 41, 0
11, 4560, Note_on_c, 10, 38, 100
11, 4620, Note_on_c, 10, 38, 0
11, 4680, Note_on_c, 10, 34, 100
11, 4740, Note_on_c, 10, 34, 0
11, 4800, Note_on_c, 10, 39, 100
11, 4860, Note_on_c, 10, 39, 0
11, 4860, Note_on_c, 10, 39, 100
11, 4920, Note_on_c, 10, 39, 0
11, 4920, Note_on_c, 10, 39, 100
11, 4980, Note_on_c, 10, 39, 0
11, 4980, Note_on_c, 10, 39, 100
11, 5040, Note_on_c, 10, 39, 0
11, 5040, Note_on_c, 10, 39, 100
11, 5100, Note_on_c, 10, 39, 0
11, 5100, Note_on_c, 10, 39, 100
11, 5160, Note_on_c, 10, 39, 0
11, 5160, Note_on_c, 10, 39, 100
11, 5220, Note_on_c, 10, 39, 0
11, 5220, Note_on_c, 10, 39, 100
11, 5280, Note_on_c, 10, 39, 0
11, 5280, Note_on_c, 10, 39, 100
11, 5340, Note_on_c, 10, 39, 0
11, 5340, Note_on_c, 10, 39, 100
11, 5400, Note_on_c, 10, 39, 0
11, 5400, Note_on_c, 10, 39, 100
11, 5460, Note_on_c, 10, 39, 0
11, 5460, Note_on_c, 10, 39, 100
11, 5520, Note_on_c, 10, 39, 0
11, 5520, Note_on_c, 10, 39, 100
11, 5580, Note_on_c, 10, 39, 0
11, 5580, Note_on_c, 10, 39, 100
11, 5640, Note_on_c, 10, 39, 0
11, 5640, Note_on_c, 10, 39, 100
11, 5700, Note_on_c, 10, 39, 0
11, 5700, Note_on_c, 10, 39, 100
11, 5760, Note_on_c, 10, 39, 0
11, 5760, Note_on_c, 10, 39, 100
11, 5820, Note_on_c, 10, 39, 0
11, 5820, Note_on_c, 10, 39, 100
11, 5880, Note_on_c, 10, 39, 0
11, 5880, Note_on_c, 10, 39, 100
11, 5940, Note_on_c, 10, 39, 0
11, 5940, Note_on_c, 10, 39, 100
11, 6000, Note_on_c, 10, 39, 0
11, 6000, Note_on_c, 10, 39, 100
11, 6060, Note_on_c, 10, 39, 0
11, 6060, Note_on_c, 10, 39, 100
11, 6120, Note_on_c, 10, 39, 0
11, 6120, Note_on_c, 10, 39, 100
11, 6180, Note_on_c, 10, 39, 0
11, 6180, Note_on_c, 10, 39, 100
11, 6240, Note_on_c, 10, 39, 0
11, 6240, Note_on_c, 10, 39, 100
11, 6300, Note_on_c, 10, 39, 0
11, 6300, Note_on_c, 10, 39, 100
11, 6360, Note_on_c, 10, 39, 0
11, 6360, Note_on_c, 10, 39, 100
11, 6420, Note_on_c, 10, 39, 0
11, 6420, Note_on_c, 10, 39, 100
11, 6480, Note_on_c, 10, 39, 0
11, 6480, Note_on_c, 10, 39, 100
11, 6540, Note_on_c, 10, 39, 0
11, 6540, Note_on_c, 10, 39, 100
11, 6600, Note_on_c, 10, 39, 0
11, 6600, Note_on_c, 10, 39, 100
11, 6660, Note_on_c, 10, 39, 0
11, 6660, Note_on_c, 10, 39, 100
11, 6720, Note_on_c, 10, 39, 0
11, 6720, Note_on_c, 10, 39, 100
11, 6780, Note_on_c, 10, 39, 0
11, 6780, Note_on_c, 10, 39, 100
11, 6840, Note_on_c, 10, 39, 0
11, 6840, Note_on_c, 10, 39, 100
11, 6900, Note_on_c, 10, 39, 0
11, 6900, Note_on_c, 10, 39, 100
11, 6960, Note_on_c, 10, 39, 0
11, 6960, Note_on_c, 10, 39, 100
11, 7020, Note_on_c, 10, 39, 0
11, 7020, Note_on_c, 10, 39, 100
11, 7080, Note_on_c, 10, 39, 0
11, 7080, Note_on_c, 10, 39, 100
11, 7140, Note_on_c, 10, 39, 0
11, 7140, Note_on_c, 10, 39, 100
11, 7200, Note_on_c, 10, 39, 0
11, 7200, Note_on_c, 10, 39, 100
11, 7260, Note_on_c, 10, 39, 0
11, 7260, Note_on_c, 10, 39, 100
11, 7320, Note_on_c, 10, 39, 0
11, 7320, Note_on_c, 10, 39, 100
11, 7380, Note_on_c, 10, 39, 0
11, 7380, Note_on_c, 10, 39, 100
11, 7440, Note_on_c, 10, 39, 0
11, 7440, Note_on_c, 10, 39, 100
11, 7500, Note_on_c, 10, 39, 0
11, 7500, Note_on_c, 10, 39, 100
11, 7560, Note_on_c, 10, 39, 0
11, 7560, Note_on_c, 10, 39, 100
11, 7620, Note_on_c, 10, 39, 0
11, 7620, Note_on_c, 10, 39, 100
11, 7680, Note_on_c, 10, 39, 0
11, 7680, Note_on_c, 10, 39, 100
11, 7740, Note_on_c, 10, 39, 0
11, 7740, Note_on_c, 10, 39, 100
11, 7800, Note_on_c, 10, 39, 0
11, 7800, Note_on_c, 10, 39, 100
11, 7860, Note_on_c, 10, 39, 0
11, 7860, Note_on_c, 10, 39, 100
11, 7920, Note_on_c, 10, 39, 0
11, 7920, Note_on_c, 10, 39, 100
11, 7980, Note_on_c, 10, 39, 0
11, 7980, Note_on_c, 10, 39, 100
11, 8040, Note_on_c, 10, 39, 0
11, 8040, Note_on_c, 10, 39, 100
11, 8100, Note_on_c, 10, 39, 0
11, 8100, Note_on_c, 10, 39, 100
11, 8160, Note_on_c, 10, 39, 0
11, 8160, Note_on_c, 10, 32, 100
11, 8220, Note_on_c, 10, 32, 0
11, 8220, Note_on_c, 10, 32, 100
11, 8280, Note_on_c, 10, 32, 0
11, 8280, Note_on_c, 10, 32, 100
11, 8340, Note_on_c, 10, 32, 0
11, 8340, Note_on_c, 10, 32, 100
11, 8400, Note_on_c, 10, 32, 0
11, 8400, Note_on_c, 10, 34, 100
11, 8460, Note_on_c, 10, 34, 0
11, 8460, Note_on_c, 10, 34, 100
11, 8520, Note_on_c, 10, 34, 0
11, 8520, Note_on_c, 10, 34, 100
11, 8580, Note_on_c, 10, 34, 0
11, 8580, Note_on_c, 10, 34, 100
11, 8640, Note_on_c, 10, 34, 0
11, 8640, Note_on_c, 10, 39, 100
11, 8700, Note_on_c, 10, 39, 0
11, 8700, Note_on_c, 10, 39, 100
11, 8760, Note_on_c, 10, 39, 0
11, 8760, Note_on_c, 10, 39, 100
11, 8820, Note_on_c, 10, 39, 0
11, 8820, Note_on_c, 10, 39, 100
11, 8880, Note_on_c, 10, 39, 0
11, 8880, Note_on_c, 10, 39, 100
11, 8940, Note_on_c, 10, 39, 0
11, 8940, Note_on_c, 10, 39, 100
11, 9000, Note_on_c, 10, 39, 0
11, 9000, Note_on_c, 10, 39, 100
11, 9060, Note_on_c, 10, 39, 0
11, 9060, Note_on_c, 10, 39, 100
11, 9120, Note_on_c, 10, 39, 0
11, 9120, Note_on_c, 10, 39, 100
11, 9180, Note_on_c, 10, 39, 0
11, 9180, Note_on_c, 10, 39, 100
11, 9240, Note_on_c, 10, 39, 0
11, 9240, Note_on_c, 10, 39, 100
11, 9300, Note_on_c, 10, 39, 0
11, 9300, Note_on_c, 10, 39, 100
11, 9360, Note_on_c, 10, 39, 0
11, 9360, Note_on_c, 10, 39, 100
11, 9420, Note_on_c, 10, 39, 0
11, 9420, Note_on_c, 10, 39, 100
11, 9480, Note_on_c, 10, 39, 0
11, 9480, Note_on_c, 10, 39, 100
11, 9540, Note_on_c, 10, 39, 0
11, 9540, Note_on_c, 10, 39, 100
11, 9600, Note_on_c, 10, 39, 0
11, 9600, Note_on_c, 10, 39, 100
11, 9660, Note_on_c, 10, 39, 0
11, 9660, Note_on_c, 10, 39, 100
11, 9720, Note_on_c, 10, 39, 0
11, 9720, Note_on_c, 10, 39, 100
11, 9780, Note_on_c, 10, 39, 0
11, 9780, Note_on_c, 10, 39, 100
11, 9840, Note_on_c, 10, 39, 0
11, 9840, Note_on_c, 10, 39, 100
11, 9900, Note_on_c, 10, 39, 0
11, 9900, Note_on_c, 10, 39, 100
11, 9960, Note_on_c, 10, 39, 0
11, 9960, Note_on_c, 10, 39, 100
11, 10020, Note_on_c, 10, 39, 0
11, 10020, Note_on_c, 10, 39, 100
11, 10080, Note_on_c, 10, 39, 0
11, 10080, Note_on_c, 10, 39, 100
11, 10140, Note_on_c, 10, 39, 0
11, 10140, Note_on_c, 10, 39, 100
11, 10200, Note_on_c, 10, 39, 0
11, 10200, Note_on_c, 10, 39, 100
11, 10260, Note_on_c, 10, 39, 0
11, 10260, Note_on_c, 10, 39, 100
11, 10320, Note_on_c, 10, 39, 0
11, 10320, Note_on_c, 10, 39, 100
11, 10380, Note_on_c, 10, 39, 0
11, 10380, Note_on_c, 10, 39, 100
11, 10440, Note_on_c, 10, 39, 0
11, 10440, Note_on_c, 10, 39, 100
11, 10500, Note_on_c, 10, 39, 0
11, 10500, Note_on_c, 10, 39, 100
11, 10560, Note_on_c, 10, 39, 0
11, 10560, Note_on_c, 10, 39, 100
11, 10620, Note_on_c, 10, 39, 0
11, 10620, Note_on_c, 10, 39, 100
11, 10680, Note_on_c, 10, 39, 0
11, 10680, Note_on_c, 10, 39, 100
11, 10740, Note_on_c, 10, 39, 0
11, 10740, Note_on_c, 10, 39, 100
11, 10800, Note_on_c, 10, 39, 0
11, 10800, Note_on_c, 10, 39, 100
11, 10860, Note_on_c, 10, 39, 0
11, 10860, Note_on_c, 10, 39, 100
11, 10920, Note_on_c, 10, 39, 0
11, 10920, Note_on_c, 10, 39, 100
11, 10980, Note_on_c, 10, 39, 0
11, 10980, Note_on_c, 10, 39, 100
11, 11040, Note_on_c, 10, 39, 0
11, 11040, Note_on_c, 10, 39, 100
11, 11100, Note_on_c, 10, 39, 0
11, 11100, Note_on_c, 10, 39, 100
11, 11160, Note_on_c, 10, 39, 0
11, 11160, Note_on_c, 10, 39, 100
11, 11220, Note_on_c, 10, 39, 0
11, 11220, Note_on_c, 10, 39, 100
11, 11280, Note_on_c, 10, 39, 0
11, 11280, Note_on_c, 10, 39, 100
11, 11340, Note_on_c, 10, 39, 0
11, 11340, Note_on_c, 10, 39, 100
11, 11400, Note_on_c, 10, 39, 0
11, 11400, Note_on_c, 10, 39, 100
11, 11460, Note_on_c, 10, 39, 0
11, 11460, Note_on_c, 10, 39, 100
11, 11520, Note_on_c, 10, 39, 0
11, 11520, Note_on_c, 10, 39, 100
11, 11580, Note_on_c, 10, 39, 0
11, 11580, Note_on_c, 10, 39, 100
11, 11640, Note_on_c, 10, 39, 0
11, 11640, Note_on_c, 10, 39, 100
11, 11700, Note_on_c, 10, 39, 0
11, 11700, Note_on_c, 10, 39, 100
11, 11760, Note_on_c, 10, 39, 0
11, 11760, Note_on_c, 10, 39, 100
11, 11820, Note_on_c, 10, 39, 0
11, 11820, Note_on_c, 10, 39, 100
11, 11880, Note_on_c, 10, 39, 0
11, 11880, Note_on_c, 10, 39, 100
11, 11940, Note_on_c, 10, 39, 0
11, 11940, Note_on_c, 10, 39, 100
11, 12000, Note_on_c, 10, 39, 0
11, 12000, Note_on_c, 10, 32, 100
11, 12060, Note_on_c, 10, 32, 0
11, 12060, Note_on_c, 10, 32, 100
11, 12120, Note_on_c, 10, 32, 0
11, 12120, Note_on_c, 10, 32, 100
11, 12180, Note_on_c, 10, 32, 0
11, 12180, Note_on_c, 10, 32, 100
11, 12240, Note_on_c, 10, 32, 0
11, 12240, Note_on_c, 10, 34, 100
11, 12300, Note_on_c, 10, 34, 0
11, 12300, Note_on_c, 10, 34, 100
11, 12360, Note_on_c, 10, 34, 0
11, 12360, Note_on_c, 10, 34, 100
11, 12420, Note_on_c, 10, 34, 0
11, 12420, Note_on_c, 10, 34, 100
11, 12480, Note_on_c, 10, 34, 0
11, 12480, Note_on_c, 10, 39, 100
11, 12540, Note_on_c, 10, 39, 0
11, 12540, Note_on_c, 10, 43, 100
11, 12600, Note_on_c, 10, 43, 0
11, 12600, Note_on_c, 10, 46, 100
11, 12660, Note_on_c, 10, 46, 0
11, 12660, Note_on_c, 10, 43, 100
11, 12720, Note_on_c, 10, 43, 0
11, 12720, Note_on_c, 10, 39, 100
11, 12780, Note_on_c, 10, 39, 0
11, 12780, Note_on_c, 10, 39, 100
11, 12840, Note_on_c, 10, 39, 0
11, 12840, Note_on_c, 10, 39, 100
11, 12900, Note_on_c, 10, 39, 0
11, 12900, Note_on_c, 10, 39, 100
11, 12960, Note_on_c, 10, 39, 0
11, 12960, Note_on_c, 10, 39, 100
11, 13020, Note_on_c, 10, 39, 0
11, 13020, Note_on_c, 10, 41, 100
11, 13080, Note_on_c, 10, 41, 0
11, 13080, Note_on_c, 10, 46, 100
11, 13140, Note_on_c, 10, 46, 0
11, 13140, Note_on_c, 10, 41, 100
11, 13200, Note_on_c, 10, 41, 0
11, 13200, Note_on_c, 10, 38, 100
11, 13260, Note_on_c, 10, 38, 0
11, 13260, Note_on_c, 10, 38, 100
11, 13320, Note_on_c, 10, 38, 0
11, 13320, Note_on_c, 10, 38, 100
11, 13380, Note_on_c, 10, 38, 0
11, 13380, Note_on_c, 10, 38, 100
11, 13440, Note_on_c, 10, 38, 0
11, 13440, Note_on_c, 10, 36, 100
11, 13500, Note_on_c, 10, 36, 0
11, 13500, Note_on_c, 10, 39, 100
11, 13560, Note_on_c, 10, 39, 0
11, 13560, Note_on_c, 10, 43, 100
11, 13620, Note_on_c, 10, 43, 0
11, 13620, Note_on_c, 10, 39, 100
11, 13680, Note_on_c, 10, 39, 0
11, 13680, Note_on_c, 10, 36, 100
11, 13740, Note_on_c, 10, 36, 0
11, 13740, Note_on_c, 10, 36, 100
11, 13800, Note_on_c, 10, 36, 0
11, 13800, Note_on_c, 10, 36, 100
11, 13860, Note_on_c, 10, 36, 0
11, 13860, Note_on_c, 10, 36, 100
11, 13920, Note_on_c, 10, 36, 0
11, 13920, Note_on_c, 10, 34, 100
11, 14040, Note_on_c, 10, 34, 0
11, 14100, Note_on_c, 10, 34, 100
11, 14130, Note_on_c, 10, 34, 0
11, 14130, Note_on_c, 10, 36, 100
11, 14145, Note_on_c, 10, 39, 100
11, 14160, Note_on_c, 10, 39, 0
11, 14160, Note_on_c, 10, 36, 0
11, 14160, Note_on_c, 10, 38, 100
11, 14220, Note_on_c, 10, 38, 0
11, 14220, Note_on_c, 10, 36, 100
11, 14250, Note_on_c, 10, 36, 0
11, 14250, Note_on_c, 10, 34, 100
11, 14265, Note_on_c, 10, 39, 100
11, 14280, Note_on_c, 10, 39, 0
11, 14280, Note_on_c, 10, 34, 0
11, 14280, Note_on_c, 10, 38, 100
11, 14340, Note_on_c, 10, 38, 0
11, 14340, Note_on_c, 10, 36, 100
11, 14370, Note_on_c, 10, 36, 0
11, 14370, Note_on_c, 10, 34, 100
11, 14400, Note_on_c, 10, 34, 0
11, 14400, Note_on_c, 10, 39, 100
11, 14520, Note_on_c, 10, 39, 0
11, 14580, Note_on_c, 10, 39, 100
11, 14610, Note_on_c, 10, 39, 0
11, 14610, Note_on_c, 10, 41, 100
11, 14625, Note_on_c, 10, 44, 100
11, 14640, Note_on_c, 10, 44, 0
11, 14640, Note_on_c, 10, 41, 0
11, 14640, Note_on_c, 10, 43, 100
11, 14700, Note_on_c, 10, 43, 0
11, 14700, Note_on_c, 10, 41, 100
11, 14730, Note_on_c, 10, 41, 0
11, 14730, Note_on_c, 10, 39, 100
11, 14745, Note_on_c, 10, 44, 100
11, 14760, Note_on_c, 10, 44, 0
11, 14760, Note_on_c, 10, 39, 0
11, 14760, Note_on_c, 10, 43, 100
11, 14820, Note_on_c, 10, 43, 0
11, 14820, Note_on_c, 10, 41, 100
11, 14850, Note_on_c, 10, 41, 0
11, 14850, Note_on_c, 10, 39, 100
11, 14880, Note_on_c, 10, 39, 0
11, 14880, Note_on_c, 10, 46, 100
11, 15000, Note_on_c, 10, 46, 0
11, 15060, Note_on_c, 10, 46, 100
11, 15090, Note_on_c, 10, 46, 0
11, 15090, Note_on_c, 10, 48, 100
11, 15105, Note_on_c, 10, 51, 100
11, 15120, Note_on_c, 10, 51, 0
11, 15120, Note_on_c, 10, 48, 0
11, 15120, Note_on_c, 10, 50, 100
11, 15180, Note_on_c, 10, 50, 0
11, 15180, Note_on_c, 10, 48, 100
11, 15210, Note_on_c, 10, 48, 0
11, 15210, Note_on_c, 10, 46, 100
11, 15225, Note_on_c, 10, 51, 100
11, 15240, Note_on_c, 10, 51, 0
11, 15240, Note_on_c, 10, 46, 0
11, 15240, Note_on_c, 10, 50, 100
11, 15300, Note_on_c, 10, 50, 0
11, 15300, Note_on_c, 10, 48, 100
11, 15330, Note_on_c, 10, 48, 0
11, 15330, Note_on_c, 10, 46, 100
11, 15360, Note_on_c, 10, 46, 0
11, 15360, Note_on_c, 10, 51, 100
11, 15420, Note_on_c, 10, 51, 0
11, 15420, Note_on_c, 10, 46, 100
11, 15480, Note_on_c, 10, 46, 0
11, 15480, Note_on_c, 10, 46, 100
11, 15540, Note_on_c, 10, 46, 0
11, 15540, Note_on_c, 10, 46, 100
11, 15600, Note_on_c, 10, 46, 0
11, 15600, Note_on_c, 10, 43, 100
11, 15660, Note_on_c, 10, 43, 0
11, 15660, Note_on_c, 10, 39, 100
11, 15720, Note_on_c, 10, 39, 0
11, 15720, Note_on_c, 10, 39, 100
11, 15780, Note_on_c, 10, 39, 0
11, 15780, Note_on_c, 10, 39, 100
11, 15840, Note_on_c, 10, 39, 0
11, 15840, Note_on_c, 10, 46, 100
11, 15900, Note_on_c, 10, 46, 0
11, 15900, Note_on_c, 10, 46, 100
11, 15960, Note_on_c, 10, 46, 0
11, 15960, Note_on_c, 10, 43, 100
11, 16020, Note_on_c, 10, 43, 0
11, 16020, Note_on_c, 10, 39, 100
11, 16080, Note_on_c, 10, 39, 0
11, 16080, Note_on_c, 10, 46, 100
11, 16140, Note_on_c, 10, 46, 0
11, 16140, Note_on_c, 10, 46, 100
11, 16200, Note_on_c, 10, 46, 0
11, 16200, Note_on_c, 10, 43, 100
11, 16260, Note_on_c, 10, 43, 0
11, 16260, Note_on_c, 10, 39, 100
11, 16320, Note_on_c, 10, 39, 0
11, 16320, Note_on_c, 10, 46, 100
11, 16440, Note_on_c, 10, 46, 0
11, 16530, Note_on_c, 10, 34, 100
11, 16560, Note_on_c, 10, 34, 0
11, 16560, Note_on_c, 10, 34, 100
11, 16680, Note_on_c, 10, 34, 0
11, 16680, Note_on_c, 10, 34, 100
11, 16800, Note_on_c, 10, 34, 0
11, 16800, Note_on_c, 10, 34, 100
11, 16920, Note_on_c, 10, 34, 0
11, 17759, Program_c, 10, 45
11, 17760, Note_on_c, 10, 39, 100
11, 17880, Note_on_c, 10, 39, 0
11, 18720, Note_on_c, 10, 34, 100
11, 18840, Note_on_c, 10, 34, 0
11, 18960, Note_on_c, 10, 34, 100
11, 19080, Note_on_c, 10, 34, 0
11, 19200, Note_on_c, 10, 34, 100
11, 19320, Note_on_c, 10, 34, 0
11, 19440, Note_on_c, 10, 34, 100
11, 19560, Note_on_c, 10, 34, 0
11, 19680, Note_on_c, 10, 39, 100
11, 19800, Note_on_c, 10, 39, 0
11, 20640, Note_on_c, 10, 34, 100
11, 20760, Note_on_c, 10, 34, 0
11, 20880, Note_on_c, 10, 34, 100
11, 21000, Note_on_c, 10, 34, 0
11, 21120, Note_on_c, 10, 34, 100
11, 21240, Note_on_c, 10, 34, 0
11, 21360, Note_on_c, 10, 36, 100
11, 21480, Note_on_c, 10, 36, 0
11, 21599, Program_c, 10, 43
11, 21600, Note_on_c, 10, 39, 100
11, 21660, Note_on_c, 10, 39, 0
11, 21660, Note_on_c, 10, 39, 100
11, 21720, Note_on_c, 10, 39, 0
11, 21720, Note_on_c, 10, 39, 100
11, 21780, Note_on_c, 10, 39, 0
11, 21780, Note_on_c, 10, 39, 100
11, 21840, Note_on_c, 10, 39, 0
11, 21840, Note_on_c, 10, 39, 100
11, 21900, Note_on_c, 10, 39, 0
11, 21900, Note_on_c, 10, 39, 100
11, 21960, Note_on_c, 10, 39, 0
11, 21960, Note_on_c, 10, 39, 100
11, 22020, Note_on_c, 10, 39, 0
11, 22020, Note_on_c, 10, 39, 100
11, 22080, Note_on_c, 10, 39, 0
11, 22080, Note_on_c, 10, 39, 100
11, 22140, Note_on_c, 10, 39, 0
11, 22140, Note_on_c, 10, 39, 100
11, 22200, Note_on_c, 10, 39, 0
11, 22200, Note_on_c, 10, 39, 100
11, 22260, Note_on_c, 10, 39, 0
11, 22260, Note_on_c, 10, 39, 100
11, 22320, Note_on_c, 10, 39, 0
11, 22320, Note_on_c, 10, 39, 100
11, 22380, Note_on_c, 10, 39, 0
11, 22380, Note_on_c, 10, 39, 100
11, 22440, Note_on_c, 10, 39, 0
11, 22440, Note_on_c, 10, 39, 100
11, 22500, Note_on_c, 10, 39, 0
11, 22500, Note_on_c, 10, 39, 100
11, 22560, Note_on_c, 10, 39, 0
11, 22560, Note_on_c, 10, 39, 100
11, 22620, Note_on_c, 10, 39, 0
11, 22620, Note_on_c, 10, 39, 100
11, 22680, Note_on_c, 10, 39, 0
11, 22680, Note_on_c, 10, 39, 100
11, 22740, Note_on_c, 10, 39, 0
11, 22740, Note_on_c, 10, 39, 100
11, 22800, Note_on_c, 10, 39, 0
11, 22800, Note_on_c, 10, 39, 100
11, 22860, Note_on_c, 10, 39, 0
11, 22860, Note_on_c, 10, 39, 100
11, 22920, Note_on_c, 10, 39, 0
11, 22920, Note_on_c, 10, 39, 100
11, 22980, Note_on_c, 10, 39, 0
11, 22980, Note_on_c, 10, 39, 100
11, 23040, Note_on_c, 10, 39, 0
11, 23040, Note_on_c, 10, 39, 100
11, 23100, Note_on_c, 10, 39, 0
11, 23100, Note_on_c, 10, 39, 100
11, 23160, Note_on_c, 10, 39, 0
11, 23160, Note_on_c, 10, 39, 100
11, 23220, Note_on_c, 10, 39, 0
11, 23220, Note_on_c, 10, 39, 100
11, 23280, Note_on_c, 10, 39, 0
11, 23280, Note_on_c, 10, 39, 100
11, 23340, Note_on_c, 10, 39, 0
11, 23340, Note_on_c, 10, 39, 100
11, 23400, Note_on_c, 10, 39, 0
11, 23400, Note_on_c, 10, 39, 100
11, 23460, Note_on_c, 10, 39, 0
11, 23460, Note_on_c, 10, 39, 100
11, 23520, Note_on_c, 10, 39, 0
11, 23520, Note_on_c, 10, 39, 100
11, 23580, Note_on_c, 10, 39, 0
11, 23580, Note_on_c, 10, 39, 100
11, 23640, Note_on_c, 10, 39, 0
11, 23640, Note_on_c, 10, 39, 100
11, 23700, Note_on_c, 10, 39, 0
11, 23700, Note_on_c, 10, 39, 100
11, 23760, Note_on_c, 10, 39, 0
11, 23760, Note_on_c, 10, 39, 100
11, 23820, Note_on_c, 10, 39, 0
11, 23820, Note_on_c, 10, 39, 100
11, 23880, Note_on_c, 10, 39, 0
11, 23880, Note_on_c, 10, 39, 100
11, 23940, Note_on_c, 10, 39, 0
11, 23940, Note_on_c, 10, 39, 100
11, 24000, Note_on_c, 10, 39, 0
11, 24000, Note_on_c, 10, 39, 100
11, 24060, Note_on_c, 10, 39, 0
11, 24060, Note_on_c, 10, 39, 100
11, 24120, Note_on_c, 10, 39, 0
11, 24120, Note_on_c, 10, 39, 100
11, 24180, Note_on_c, 10, 39, 0
11, 24180, Note_on_c, 10, 39, 100
11, 24240, Note_on_c, 10, 39, 0
11, 24240, Note_on_c, 10, 39, 100
11, 24300, Note_on_c, 10, 39, 0
11, 24300, Note_on_c, 10, 39, 100
11, 24360, Note_on_c, 10, 39, 0
11, 24360, Note_on_c, 10, 39, 100
11, 24420, Note_on_c, 10, 39, 0
11, 24420, Note_on_c, 10, 39, 100
11, 24480, Note_on_c, 10, 39, 0
11, 24480, Note_on_c, 10, 39, 100
11, 24540, Note_on_c, 10, 39, 0
11, 24540, Note_on_c, 10, 39, 100
11, 24600, Note_on_c, 10, 39, 0
11, 24600, Note_on_c, 10, 39, 100
11, 24660, Note_on_c, 10, 39, 0
11, 24660, Note_on_c, 10, 39, 100
11, 24720, Note_on_c, 10, 39, 0
11, 24720, Note_on_c, 10, 39, 100
11, 24780, Note_on_c, 10, 39, 0
11, 24780, Note_on_c, 10, 39, 100
11, 24840, Note_on_c, 10, 39, 0
11, 24840, Note_on_c, 10, 39, 100
11, 24900, Note_on_c, 10, 39, 0
11, 24900, Note_on_c, 10, 39, 100
11, 24960, Note_on_c, 10, 39, 0
11, 24960, Note_on_c, 10, 39, 100
11, 25020, Note_on_c, 10, 39, 0
11, 25020, Note_on_c, 10, 39, 100
11, 25080, Note_on_c, 10, 39, 0
11, 25080, Note_on_c, 10, 39, 100
11, 25140, Note_on_c, 10, 39, 0
11, 25140, Note_on_c, 10, 39, 100
11, 25200, Note_on_c, 10, 39, 0
11, 25200, Note_on_c, 10, 39, 100
11, 25260, Note_on_c, 10, 39, 0
11, 25260, Note_on_c, 10, 39, 100
11, 25320, Note_on_c, 10, 39, 0
11, 25320, Note_on_c, 10, 39, 100
11, 25380, Note_on_c, 10, 39, 0
11, 25380, Note_on_c, 10, 39, 100
11, 25440, Note_on_c, 10, 39, 0
11, 25440, Note_on_c, 10, 39, 100
11, 25500, Note_on_c, 10, 39, 0
11, 25500, Note_on_c, 10, 39, 100
11, 25560, Note_on_c, 10, 39, 0
11, 25560, Note_on_c, 10, 39, 100
11, 25620, Note_on_c, 10, 39, 0
11, 25620, Note_on_c, 10, 39, 100
11, 25680, Note_on_c, 10, 39, 0
11, 25680, Note_on_c, 10, 39, 100
11, 25740, Note_on_c, 10, 39, 0
11, 25740, Note_on_c, 10, 39, 100
11, 25800, Note_on_c, 10, 39, 0
11, 25800, Note_on_c, 10, 39, 100
11, 25860, Note_on_c, 10, 39, 0
11, 25860, Note_on_c, 10, 39, 100
11, 25920, Note_on_c, 10, 39, 0
11, 25920, Note_on_c, 10, 39, 100
11, 25980, Note_on_c, 10, 39, 0
11, 25980, Note_on_c, 10, 39, 100
11, 26040, Note_on_c, 10, 39, 0
11, 26040, Note_on_c, 10, 39, 100
11, 26100, Note_on_c, 10, 39, 0
11, 26100, Note_on_c, 10, 39, 100
11, 26160, Note_on_c, 10, 39, 0
11, 26160, Note_on_c, 10, 39, 100
11, 26220, Note_on_c, 10, 39, 0
11, 26220, Note_on_c, 10, 39, 100
11, 26280, Note_on_c, 10, 39, 0
11, 26280, Note_on_c, 10, 39, 100
11, 26340, Note_on_c, 10, 39, 0
11, 26340, Note_on_c, 10, 39, 100
11, 26400, Note_on_c, 10, 39, 0
11, 26400, Note_on_c, 10, 39, 100
11, 26460, Note_on_c, 10, 39, 0
11, 26460, Note_on_c, 10, 39, 100
11, 26520, Note_on_c, 10, 39, 0
11, 26520, Note_on_c, 10, 39, 100
11, 26580, Note_on_c, 10, 39, 0
11, 26580, Note_on_c, 10, 39, 100
11, 26640, Note_on_c, 10, 39, 0
11, 26640, Note_on_c, 10, 39, 100
11, 26700, Note_on_c, 10, 39, 0
11, 26700, Note_on_c, 10, 39, 100
11, 26760, Note_on_c, 10, 39, 0
11, 26760, Note_on_c, 10, 39, 100
11, 26820, Note_on_c, 10, 39, 0
11, 26820, Note_on_c, 10, 39, 100
11, 26880, Note_on_c, 10, 39, 0
11, 26880, Note_on_c, 10, 39, 100
11, 26940, Note_on_c, 10, 39, 0
11, 26940, Note_on_c, 10, 39, 100
11, 27000, Note_on_c, 10, 39, 0
11, 27000, Note_on_c, 10, 39, 100
11, 27060, Note_on_c, 10, 39, 0
11, 27060, Note_on_c, 10, 39, 100
11, 27120, Note_on_c, 10, 39, 0
11, 27120, Note_on_c, 10, 39, 100
11, 27180, Note_on_c, 10, 39, 0
11, 27180, Note_on_c, 10, 39, 100
11, 27240, Note_on_c, 10, 39, 0
11, 27240, Note_on_c, 10, 39, 100
11, 27300, Note_on_c, 10, 39, 0
11, 27300, Note_on_c, 10, 39, 100
11, 27360, Note_on_c, 10, 39, 0
11, 27360, Note_on_c, 10, 39, 100
11, 27600, Note_on_c, 10, 39, 0
11, 28080, Note_on_c, 10, 39, 100
11, 28260, Note_on_c, 10, 39, 0
11, 28260, Note_on_c, 10, 38, 100
11, 28290, Note_on_c, 10, 38, 0
11, 28290, Note_on_c, 10, 39, 100
11, 28320, Note_on_c, 10, 39, 0
11, 28320, Note_on_c, 10, 36, 100
11, 28560, Note_on_c, 10, 36, 0
11, 29040, Note_on_c, 10, 36, 100
11, 29220, Note_on_c, 10, 36, 0
11, 29220, Note_on_c, 10, 35, 100
11, 29250, Note_on_c, 10, 35, 0
11, 29250, Note_on_c, 10, 36, 100
11, 29280, Note_on_c, 10, 36, 0
11, 29280, Note_on_c, 10, 32, 100
11, 30000, Note_on_c, 10, 32, 0
11, 30000, Note_on_c, 10, 33, 100
11, 30240, Note_on_c, 10, 33, 0
11, 30240, Note_on_c, 10, 34, 100
11, 31200, Note_on_c, 10, 34, 0
11, 31200, Note_on_c, 10, 39, 100
11, 31260, Note_on_c, 10, 39, 0
11, 31260, Note_on_c, 10, 39, 100
11, 31320, Note_on_c, 10, 39, 0
11, 31320, Note_on_c, 10, 39, 100
11, 31380, Note_on_c, 10, 39, 0
11, 31380, Note_on_c, 10, 39, 100
11, 31440, Note_on_c, 10, 39, 0
11, 31440, Note_on_c, 10, 39, 100
11, 31500, Note_on_c, 10, 39, 0
11, 31500, Note_on_c, 10, 39, 100
11, 31560, Note_on_c, 10, 39, 0
11, 31560, Note_on_c, 10, 39, 100
11, 31620, Note_on_c, 10, 39, 0
11, 31620, Note_on_c, 10, 39, 100
11, 31680, Note_on_c, 10, 39, 0
11, 31680, Note_on_c, 10, 39, 100
11, 32220, Note_on_c, 10, 39, 0
11, 32220, Note_on_c, 10, 39, 100
11, 32280, Note_on_c, 10, 39, 0
11, 32280, Note_on_c, 10, 39, 100
11, 32340, Note_on_c, 10, 39, 0
11, 32340, Note_on_c, 10, 39, 100
11, 32400, Note_on_c, 10, 39, 0
11, 32400, Note_on_c, 10, 39, 100
11, 32460, Note_on_c, 10, 39, 0
11, 32460, Note_on_c, 10, 39, 100
11, 32520, Note_on_c, 10, 39, 0
11, 32520, Note_on_c, 10, 39, 100
11, 32580, Note_on_c, 10, 39, 0
11, 32580, Note_on_c, 10, 39, 100
11, 32640, Note_on_c, 10, 39, 0
11, 32640, Note_on_c, 10, 39, 100
11, 33240, Note_on_c, 10, 39, 0
11, 36960, Note_on_c, 10, 39, 100
11, 37200, Note_on_c, 10, 39, 0
11, 37200, Note_on_c, 10, 39, 100
11, 37380, Note_on_c, 10, 39, 0
11, 37380, Note_on_c, 10, 39, 100
11, 37440, Note_on_c, 10, 39, 0
11, 37440, Note_on_c, 10, 34, 100
11, 37920, Note_on_c, 10, 34, 0
11, 38880, Note_on_c, 10, 39, 100
11, 39120, Note_on_c, 10, 39, 0
11, 39120, Note_on_c, 10, 39, 100
11, 39300, Note_on_c, 10, 39, 0
11, 39300, Note_on_c, 10, 39, 100
11, 39360, Note_on_c, 10, 39, 0
11, 39360, Note_on_c, 10, 34, 100
11, 39840, Note_on_c, 10, 34, 0
11, 43320, Note_on_c, 10, 39, 100
11, 43380, Note_on_c, 10, 39, 0
11, 43380, Note_on_c, 10, 34, 100
11, 43440, Note_on_c, 10, 34, 0
11, 43440, Note_on_c, 10, 39, 100
11, 43500, Note_on_c, 10, 39, 0
11, 43500, Note_on_c, 10, 34, 100
11, 43560, Note_on_c, 10, 34, 0
11, 43560, Note_on_c, 10, 39, 100
11, 43620, Note_on_c, 10, 39, 0
11, 43620, Note_on_c, 10, 34, 100
11, 43680, Note_on_c, 10, 34, 0
11, 43680, Note_on_c, 10, 39, 100
11, 43800, Note_on_c, 10, 39, 0
11, 43920, Note_on_c, 10, 39, 100
11, 44160, Note_on_c, 10, 39, 0
11, 44160, Note_on_c, 10, 35, 100
11, 44400, Note_on_c, 10, 35, 0
11, 44400, Note_on_c, 10, 36, 100
11, 44640, Note_on_c, 10, 36, 0
11, 44640, Note_on_c, 10, 31, 100
11, 44760, Note_on_c, 10, 31, 0
11, 45120, Note_on_c, 10, 31, 100
11, 45240, Note_on_c, 10, 31, 0
11, 45600, Note_on_c, 10, 31, 100
11, 45720, Note_on_c, 10, 31, 0
11, 46080, Note_on_c, 10, 36, 100
11, 46200, Note_on_c, 10, 36, 0
11, 46560, Note_on_c, 10, 29, 100
11, 46680, Note_on_c, 10, 29, 0
11, 47040, Note_on_c, 10, 29, 100
11, 47160, Note_on_c, 10, 29, 0
11, 47520, Note_on_c, 10, 29, 100
11, 47640, Note_on_c, 10, 29, 0
11, 48060, Note_on_c, 10, 34, 100
11, 48120, Note_on_c, 10, 34, 0
11, 48120, Note_on_c, 10, 34, 100
11, 48180, Note_on_c, 10, 34, 0
11, 48180, Note_on_c, 10, 34, 100
11, 48240, Note_on_c, 10, 34, 0
11, 48240, Note_on_c, 10, 38, 100
11, 48300, Note_on_c, 10, 38, 0
11, 48300, Note_on_c, 10, 38, 100
11, 48360, Note_on_c, 10, 38, 0
11, 48360, Note_on_c, 10, 38, 100
11, 48420, Note_on_c, 10, 38, 0
11, 48420, Note_on_c, 10, 38, 100
11, 48480, Note_on_c, 10, 38, 0
11, 48480, Note_on_c, 10, 39, 100
11, 48600, Note_on_c, 10, 39, 0
11, 48720, Note_on_c, 10, 39, 100
11, 48840, Note_on_c, 10, 39, 0
11, 48960, Note_on_c, 10, 40, 100
11, 49440, Note_on_c, 10, 40, 0
11, 49560, Note_on_c, 10, 41, 100
11, 49680, Note_on_c, 10, 41, 0
11, 49680, Note_on_c, 10, 41, 100
11, 49800, Note_on_c, 10, 41, 0
11, 49800, Note_on_c, 10, 41, 100
11, 49920, Note_on_c, 10, 41, 0
11, 49920, Note_on_c, 10, 41, 100
11, 50040, Note_on_c, 10, 41, 0
11, 50040, Note_on_c, 10, 41, 100
11, 50100, Note_on_c, 10, 41, 0
11, 50100, Note_on_c, 10, 41, 100
11, 50160, Note_on_c, 10, 41, 0
11, 50160, Note_on_c, 10, 41, 100
11, 50220, Note_on_c, 10, 41, 0
11, 50220, Note_on_c, 10, 41, 100
11, 50280, Note_on_c, 10, 41, 0
11, 50280, Note_on_c, 10, 41, 100
11, 50340, Note_on_c, 10, 41, 0
11, 50340, Note_on_c, 10, 41, 100
11, 50400, Note_on_c, 10, 41, 0
11, 50400, Note_on_c, 10, 41, 100
11, 51000, Note_on_c, 10, 41, 0
11, 51360, Note_on_c, 10, 41, 100
11, 51480, Note_on_c, 10, 41, 0
11, 51840, Note_on_c, 10, 41, 100
11, 51960, Note_on_c, 10, 41, 0
11, 52320, Note_on_c, 10, 41, 100
11, 52440, Note_on_c, 10, 41, 0
11, 52800, Note_on_c, 10, 41, 100
11, 52920, Note_on_c, 10, 41, 0
11, 53280, Note_on_c, 10, 41, 100
11, 53400, Note_on_c, 10, 41, 0
11, 53760, Note_on_c, 10, 46, 100
11, 53880, Note_on_c, 10, 46, 0
11, 54240, Note_on_c, 10, 34, 100
11, 54840, Note_on_c, 10, 34, 0
11, 55200, Note_on_c, 10, 34, 100
11, 55320, Note_on_c, 10, 34, 0
11, 55680, Note_on_c, 10, 34, 100
11, 55800, Note_on_c, 10, 34, 0
11, 56160, Note_on_c, 10, 34, 100
11, 56280, Note_on_c, 10, 34, 0
11, 56640, Note_on_c, 10, 34, 100
11, 56760, Note_on_c, 10, 34, 0
11, 57120, Note_on_c, 10, 34, 100
11, 57240, Note_on_c, 10, 34, 0
11, 57600, Note_on_c, 10, 39, 100
11, 57720, Note_on_c, 10, 39, 0
11, 57840, Note_on_c, 10, 39, 100
11, 57960, Note_on_c, 10, 39, 0
11, 58080, Note_on_c, 10, 38, 100
11, 58200, Note_on_c, 10, 38, 0
11, 58320, Note_on_c, 10, 33, 100
11, 58440, Note_on_c, 10, 33, 0
11, 58560, Note_on_c, 10, 34, 100
11, 58680, Note_on_c, 10, 34, 0
11, 58680, Note_on_c, 10, 38, 100
11, 58800, Note_on_c, 10, 38, 0
11, 58800, Note_on_c, 10, 39, 100
11, 58920, Note_on_c, 10, 39, 0
11, 58920, Note_on_c, 10, 43, 100
11, 59040, Note_on_c, 10, 43, 0
11, 59040, Note_on_c, 10, 41, 100
11, 59100, Note_on_c, 10, 41, 0
11, 59100, Note_on_c, 10, 41, 100
11, 59160, Note_on_c, 10, 41, 0
11, 59160, Note_on_c, 10, 41, 100
11, 59220, Note_on_c, 10, 41, 0
11, 59220, Note_on_c, 10, 41, 100
11, 59280, Note_on_c, 10, 41, 0
11, 59280, Note_on_c, 10, 41, 100
11, 59340, Note_on_c, 10, 41, 0
11, 59340, Note_on_c, 10, 41, 100
11, 59400, Note_on_c, 10, 41, 0
11, 59400, Note_on_c, 10, 41, 100
11, 59460, Note_on_c, 10, 41, 0
11, 59460, Note_on_c, 10, 41, 100
11, 59520, Note_on_c, 10, 41, 0
11, 59520, Note_on_c, 10, 34, 100
11, 59640, Note_on_c, 10, 34, 0
11, 59640, Note_on_c, 10, 46, 100
11, 59760, Note_on_c, 10, 46, 0
11, 59760, Note_on_c, 10, 41, 100
11, 59880, Note_on_c, 10, 41, 0
11, 59880, Note_on_c, 10, 38, 100
11, 60000, Note_on_c, 10, 38, 0
11, 60000, Note_on_c, 10, 34, 100
11, 60120, Note_on_c, 10, 34, 0
11, 61920, Note_on_c, 10, 34, 100
11, 62040, Note_on_c, 10, 34, 0
11, 62160, Note_on_c, 10, 34, 100
11, 62280, Note_on_c, 10, 34, 0
11, 62400, Note_on_c, 10, 33, 100
11, 62520, Note_on_c, 10, 33, 0
11, 62640, Note_on_c, 10, 39, 100
11, 62760, Note_on_c, 10, 39, 0
11, 62880, Note_on_c, 10, 38, 100
11, 63000, Note_on_c, 10, 38, 0
11, 63000, Note_on_c, 10, 39, 100
11, 63120, Note_on_c, 10, 39, 0
11, 63120, Note_on_c, 10, 41, 100
11, 63240, Note_on_c, 10, 41, 0
11, 63240, Note_on_c, 10, 29, 100
11, 63360, Note_on_c, 10, 29, 0
11, 63360, Note_on_c, 10, 34, 100
11, 63480, Note_on_c, 10, 34, 0
11, 63600, Note_on_c, 10, 41, 100
11, 63720, Note_on_c, 10, 41, 0
11, 63840, Note_on_c, 10, 46, 100
11, 63960, Note_on_c, 10, 46, 0
11, 64080, Note_on_c, 10, 41, 100
11, 64200, Note_on_c, 10, 41, 0
11, 64320, Note_on_c, 10, 46, 100
11, 64380, Note_on_c, 10, 46, 0
11, 64440, Note_on_c, 10, 41, 100
11, 64500, Note_on_c, 10, 41, 0
11, 64560, Note_on_c, 10, 38, 100
11, 64620, Note_on_c, 10, 38, 0
11, 64680, Note_on_c, 10, 34, 100
11, 64740, Note_on_c, 10, 34, 0
11, 64800, Note_on_c, 10, 39, 100
11, 64920, Note_on_c, 10, 39, 0
11, 66720, Note_on_c, 10, 46, 100
11, 66780, Note_on_c, 10, 46, 0
11, 66840, Note_on_c, 10, 41, 100
11, 66900, Note_on_c, 10, 41, 0
11, 66960, Note_on_c, 10, 38, 100
11, 67020, Note_on_c, 10, 38, 0
11, 67080, Note_on_c, 10, 34, 100
11, 67140, Note_on_c, 10, 34, 0
11, 67200, Note_on_c, 10, 39, 100
11, 67320, Note_on_c, 10, 39, 0
11, 68280, Note_on_c, 10, 38, 100
11, 68400, Note_on_c, 10, 38, 0
11, 68400, Note_on_c, 10, 43, 100
11, 68520, Note_on_c, 10, 43, 0
11, 68520, Note_on_c, 10, 41, 100
11, 68640, Note_on_c, 10, 41, 0
11, 68640, Note_on_c, 10, 39, 100
11, 68880, Note_on_c, 10, 39, 0
11, 68880, Note_on_c, 10, 41, 100
11, 69000, Note_on_c, 10, 41, 0
11, 69000, Note_on_c, 10, 39, 100
11, 69120, Note_on_c, 10, 39, 0
11, 69120, Note_on_c, 10, 38, 100
11, 69180, Note_on_c, 10, 38, 0
11, 69240, Note_on_c, 10, 39, 100
11, 69300, Note_on_c, 10, 39, 0
11, 69360, Note_on_c, 10, 41, 100
11, 69420, Note_on_c, 10, 41, 0
11, 69480, Note_on_c, 10, 41, 100
11, 69540, Note_on_c, 10, 41, 0
11, 73440, Note_on_c, 10, 39, 100
11, 73980, Note_on_c, 10, 39, 0
11, 74040, Note_on_c, 10, 39, 100
11, 74100, Note_on_c, 10, 39, 0
11, 74160, Note_on_c, 10, 39, 100
11, 74220, Note_on_c, 10, 39, 0
11, 74280, Note_on_c, 10, 40, 100
11, 74340, Note_on_c, 10, 40, 0
11, 74400, Note_on_c, 10, 41, 100
11, 74460, Note_on_c, 10, 41, 0
11, 74460, Note_on_c, 10, 41, 100
11, 74520, Note_on_c, 10, 41, 0
11, 74520, Note_on_c, 10, 41, 100
11, 74580, Note_on_c, 10, 41, 0
11, 74580, Note_on_c, 10, 41, 100
11, 74640, Note_on_c, 10, 41, 0
11, 74640, Note_on_c, 10, 41, 100
11, 74700, Note_on_c, 10, 41, 0
11, 74700, Note_on_c, 10, 41, 100
11, 74760, Note_on_c, 10, 41, 0
11, 74760, Note_on_c, 10, 41, 100
11, 74820, Note_on_c, 10, 41, 0
11, 74820, Note_on_c, 10, 41, 100
11, 74880, Note_on_c, 10, 41, 0
11, 74880, Note_on_c, 10, 41, 100
11, 74940, Note_on_c, 10, 41, 0
11, 74940, Note_on_c, 10, 41, 100
11, 75000, Note_on_c, 10, 41, 0
11, 75000, Note_on_c, 10, 41, 100
11, 75060, Note_on_c, 10, 41, 0
11, 75060, Note_on_c, 10, 41, 100
11, 75120, Note_on_c, 10, 41, 0
11, 75120, Note_on_c, 10, 41, 100
11, 75180, Note_on_c, 10, 41, 0
11, 75180, Note_on_c, 10, 41, 100
11, 75240, Note_on_c, 10, 41, 0
11, 75240, Note_on_c, 10, 41, 100
11, 75300, Note_on_c, 10, 41, 0
11, 75300, Note_on_c, 10, 41, 100
11, 75360, Note_on_c, 10, 41, 0
11, 75360, Note_on_c, 10, 34, 100
11, 75420, Note_on_c, 10, 34, 0
11, 75420, Note_on_c, 10, 36, 100
11, 75450, Note_on_c, 10, 36, 0
11, 75450, Note_on_c, 10, 38, 100
11, 75480, Note_on_c, 10, 38, 0
11, 75480, Note_on_c, 10, 39, 100
11, 75510, Note_on_c, 10, 39, 0
11, 75510, Note_on_c, 10, 41, 100
11, 75540, Note_on_c, 10, 41, 0
11, 75540, Note_on_c, 10, 43, 100
11, 75570, Note_on_c, 10, 43, 0
11, 75570, Note_on_c, 10, 45, 100
11, 75600, Note_on_c, 10, 45, 0
11, 75600, Note_on_c, 10, 46, 100
11, 75630, Note_on_c, 10, 46, 0
11, 75630, Note_on_c, 10, 45, 100
11, 75660, Note_on_c, 10, 45, 0
11, 75660, Note_on_c, 10, 46, 100
11, 75690, Note_on_c, 10, 46, 0
11, 75690, Note_on_c, 10, 48, 100
11, 75720, Note_on_c, 10, 48, 0
11, 75720, Note_on_c, 10, 50, 100
11, 75750, Note_on_c, 10, 50, 0
11, 75750, Note_on_c, 10, 48, 100
11, 75780, Note_on_c, 10, 48, 0
11, 75780, Note_on_c, 10, 46, 100
11, 75810, Note_on_c, 10, 46, 0
11, 75810, Note_on_c, 10, 45, 100
11, 75840, Note_on_c, 10, 45, 0
11, 75840, Note_on_c, 10, 43, 100
11, 75870, Note_on_c, 10, 43, 0
11, 75870, Note_on_c, 10, 42, 100
11, 75900, Note_on_c, 10, 42, 0
11, 75900, Note_on_c, 10, 43, 100
11, 75930, Note_on_c, 10, 43, 0
11, 75930, Note_on_c, 10, 45, 100
11, 75960, Note_on_c, 10, 45, 0
11, 75960, Note_on_c, 10, 46, 100
11, 75990, Note_on_c, 10, 46, 0
11, 75990, Note_on_c, 10, 45, 100
11, 76020, Note_on_c, 10, 45, 0
11, 76020, Note_on_c, 10, 43, 100
11, 76050, Note_on_c, 10, 43, 0
11, 76050, Note_on_c, 10, 41, 100
11, 76080, Note_on_c, 10, 41, 0
11, 76080, Note_on_c, 10, 39, 100
11, 76110, Note_on_c, 10, 39, 0
11, 76110, Note_on_c, 10, 38, 100
11, 76140, Note_on_c, 10, 38, 0
11, 76140, Note_on_c, 10, 39, 100
11, 76170, Note_on_c, 10, 39, 0
11, 76170, Note_on_c, 10, 41, 100
11, 76200, Note_on_c, 10, 41, 0
11, 76200, Note_on_c, 10, 43, 100
11, 76230, Note_on_c, 10, 43, 0
11, 76230, Note_on_c, 10, 41, 100
11, 76260, Note_on_c, 10, 41, 0
11, 76260, Note_on_c, 10, 39, 100
11, 76290, Note_on_c, 10, 39, 0
11, 76290, Note_on_c, 10, 38, 100
11, 76320, Note_on_c, 10, 38, 0
11, 76320, Note_on_c, 10, 36, 100
11, 76380, Note_on_c, 10, 36, 0
11, 76380, Note_on_c, 10, 38, 100
11, 76410, Note_on_c, 10, 38, 0
11, 76410, Note_on_c, 10, 39, 100
11, 76440, Note_on_c, 10, 39, 0
11, 76440, Note_on_c, 10, 41, 100
11, 76470, Note_on_c, 10, 41, 0
11, 76470, Note_on_c, 10, 43, 100
11, 76500, Note_on_c, 10, 43, 0
11, 76500, Note_on_c, 10, 45, 100
11, 76530, Note_on_c, 10, 45, 0
11, 76530, Note_on_c, 10, 46, 100
11, 76560, Note_on_c, 10, 46, 0
11, 76560, Note_on_c, 10, 48, 100
11, 76590, Note_on_c, 10, 48, 0
11, 76590, Note_on_c, 10, 46, 100
11, 76620, Note_on_c, 10, 46, 0
11, 76620, Note_on_c, 10, 48, 100
11, 76650, Note_on_c, 10, 48, 0
11, 76650, Note_on_c, 10, 50, 100
11, 76680, Note_on_c, 10, 50, 0
11, 76680, Note_on_c, 10, 51, 100
11, 76710, Note_on_c, 10, 51, 0
11, 76710, Note_on_c, 10, 50, 100
11, 76740, Note_on_c, 10, 50, 0
11, 76740, Note_on_c, 10, 48, 100
11, 76770, Note_on_c, 10, 48, 0
11, 76770, Note_on_c, 10, 46, 100
11, 76800, Note_on_c, 10, 46, 0
11, 76800, Note_on_c, 10, 45, 100
11, 76830, Note_on_c, 10, 45, 0
11, 76830, Note_on_c, 10, 43, 100
11, 76860, Note_on_c, 10, 43, 0
11, 76860, Note_on_c, 10, 45, 100
11, 76890, Note_on_c, 10, 45, 0
11, 76890, Note_on_c, 10, 46, 100
11, 76920, Note_on_c, 10, 46, 0
11, 76920, Note_on_c, 10, 48, 100
11, 76950, Note_on_c, 10, 48, 0
11, 76950, Note_on_c, 10, 46, 100
11, 76980, Note_on_c, 10, 46, 0
11, 76980, Note_on_c, 10, 45, 100
11, 77010, Note_on_c, 10, 45, 0
11, 77010, Note_on_c, 10, 43, 100
11, 77040, Note_on_c, 10, 43, 0
11, 77040, Note_on_c, 10, 41, 100
11, 77070, Note_on_c, 10, 41, 0
11, 77070, Note_on_c, 10, 40, 100
11, 77100, Note_on_c, 10, 40, 0
11, 77100, Note_on_c, 10, 41, 100
11, 77130, Note_on_c, 10, 41, 0
11, 77130, Note_on_c, 10, 43, 100
11, 77160, Note_on_c, 10, 43, 0
11, 77160, Note_on_c, 10, 45, 100
11, 77190, Note_on_c, 10, 45, 0
11, 77190, Note_on_c, 10, 43, 100
11, 77220, Note_on_c, 10, 43, 0
11, 77220, Note_on_c, 10, 41, 100
11, 77250, Note_on_c, 10, 41, 0
11, 77250, Note_on_c, 10, 39, 100
11, 77280, Note_on_c, 10, 39, 0
11, 77280, Note_on_c, 10, 38, 100
11, 77340, Note_on_c, 10, 38, 0
11, 77340, Note_on_c, 10, 39, 100
11, 77370, Note_on_c, 10, 39, 0
11, 77370, Note_on_c, 10, 41, 100
11, 77400, Note_on_c, 10, 41, 0
11, 77400, Note_on_c, 10, 43, 100
11, 77430, Note_on_c, 10, 43, 0
11, 77430, Note_on_c, 10, 45, 100
11, 77460, Note_on_c, 10, 45, 0
11, 77460, Note_on_c, 10, 46, 100
11, 77490, Note_on_c, 10, 46, 0
11, 77490, Note_on_c, 10, 48, 100
11, 77520, Note_on_c, 10, 48, 0
11, 77520, Note_on_c, 10, 50, 100
11, 77550, Note_on_c, 10, 50, 0
11, 77550, Note_on_c, 10, 48, 100
11, 77580, Note_on_c, 10, 48, 0
11, 77580, Note_on_c, 10, 50, 100
11, 77610, Note_on_c, 10, 50, 0
11, 77610, Note_on_c, 10, 51, 100
11, 77640, Note_on_c, 10, 51, 0
11, 77640, Note_on_c, 10, 53, 100
11, 77670, Note_on_c, 10, 53, 0
11, 77670, Note_on_c, 10, 51, 100
11, 77700, Note_on_c, 10, 51, 0
11, 77700, Note_on_c, 10, 50, 100
11, 77730, Note_on_c, 10, 50, 0
11, 77730, Note_on_c, 10, 48, 100
11, 77760, Note_on_c, 10, 48, 0
11, 77760, Note_on_c, 10, 46, 100
11, 77790, Note_on_c, 10, 46, 0
11, 77790, Note_on_c, 10, 45, 100
11, 77820, Note_on_c, 10, 45, 0
11, 77820, Note_on_c, 10, 46, 100
11, 77850, Note_on_c, 10, 46, 0
11, 77850, Note_on_c, 10, 48, 100
11, 77880, Note_on_c, 10, 48, 0
11, 77880, Note_on_c, 10, 50, 100
11, 77910, Note_on_c, 10, 50, 0
11, 77910, Note_on_c, 10, 48, 100
11, 77940, Note_on_c, 10, 48, 0
11, 77940, Note_on_c, 10, 46, 100
11, 77970, Note_on_c, 10, 46, 0
11, 77970, Note_on_c, 10, 45, 100
11, 78000, Note_on_c, 10, 45, 0
11, 78000, Note_on_c, 10, 43, 100
11, 78030, Note_on_c, 10, 43, 0
11, 78030, Note_on_c, 10, 42, 100
11, 78060, Note_on_c, 10, 42, 0
11, 78060, Note_on_c, 10, 43, 100
11, 78090, Note_on_c, 10, 43, 0
11, 78090, Note_on_c, 10, 45, 100
11, 78120, Note_on_c, 10, 45, 0
11, 78120, Note_on_c, 10, 46, 100
11, 78150, Note_on_c, 10, 46, 0
11, 78150, Note_on_c, 10, 45, 100
11, 78180, Note_on_c, 10, 45, 0
11, 78180, Note_on_c, 10, 43, 100
11, 78210, Note_on_c, 10, 43, 0
11, 78210, Note_on_c, 10, 41, 100
11, 78240, Note_on_c, 10, 41, 0
11, 78240, Note_on_c, 10, 39, 100
11, 78300, Note_on_c, 10, 39, 0
11, 78300, Note_on_c, 10, 39, 100
11, 78360, Note_on_c, 10, 39, 0
11, 78360, Note_on_c, 10, 39, 100
11, 78420, Note_on_c, 10, 39, 0
11, 78420, Note_on_c, 10, 39, 100
11, 78480, Note_on_c, 10, 39, 0
11, 78480, Note_on_c, 10, 39, 100
11, 78540, Note_on_c, 10, 39, 0
11, 78540, Note_on_c, 10, 39, 100
11, 78600, Note_on_c, 10, 39, 0
11, 78600, Note_on_c, 10, 39, 100
11, 78660, Note_on_c, 10, 39, 0
11, 78660, Note_on_c, 10, 39, 100
11, 78720, Note_on_c, 10, 39, 0
11, 78720, Note_on_c, 10, 39, 100
11, 78780, Note_on_c, 10, 39, 0
11, 78780, Note_on_c, 10, 39, 100
11, 78840, Note_on_c, 10, 39, 0
11, 78840, Note_on_c, 10, 39, 100
11, 78900, Note_on_c, 10, 39, 0
11, 78900, Note_on_c, 10, 39, 100
11, 78960, Note_on_c, 10, 39, 0
11, 78960, Note_on_c, 10, 39, 100
11, 79020, Note_on_c, 10, 39, 0
11, 79020, Note_on_c, 10, 39, 100
11, 79080, Note_on_c, 10, 39, 0
11, 79080, Note_on_c, 10, 39, 100
11, 79140, Note_on_c, 10, 39, 0
11, 79140, Note_on_c, 10, 39, 100
11, 79200, Note_on_c, 10, 39, 0
11, 79200, Note_on_c, 10, 41, 100
11, 79260, Note_on_c, 10, 41, 0
11, 79260, Note_on_c, 10, 41, 100
11, 79320, Note_on_c, 10, 41, 0
11, 79320, Note_on_c, 10, 41, 100
11, 79380, Note_on_c, 10, 41, 0
11, 79380, Note_on_c, 10, 41, 100
11, 79440, Note_on_c, 10, 41, 0
11, 79440, Note_on_c, 10, 41, 100
11, 79500, Note_on_c, 10, 41, 0
11, 79500, Note_on_c, 10, 41, 100
11, 79560, Note_on_c, 10, 41, 0
11, 79560, Note_on_c, 10, 41, 100
11, 79620, Note_on_c, 10, 41, 0
11, 79620, Note_on_c, 10, 41, 100
11, 79680, Note_on_c, 10, 41, 0
11, 79680, Note_on_c, 10, 41, 100
11, 79740, Note_on_c, 10, 41, 0
11, 79740, Note_on_c, 10, 41, 100
11, 79800, Note_on_c, 10, 41, 0
11, 79800, Note_on_c, 10, 41, 100
11, 79860, Note_on_c, 10, 41, 0
11, 79860, Note_on_c, 10, 41, 100
11, 79920, Note_on_c, 10, 41, 0
11, 79920, Note_on_c, 10, 41, 100
11, 79980, Note_on_c, 10, 41, 0
11, 79980, Note_on_c, 10, 41, 100
11, 80040, Note_on_c, 10, 41, 0
11, 80040, Note_on_c, 10, 41, 100
11, 80100, Note_on_c, 10, 41, 0
11, 80100, Note_on_c, 10, 41, 100
11, 80160, Note_on_c, 10, 41, 0
11, 80160, Note_on_c, 10, 34, 100
11, 80400, Note_on_c, 10, 34, 0
11, 80880, Note_on_c, 10, 34, 100
11, 81060, Note_on_c, 10, 34, 0
11, 81060, Note_on_c, 10, 33, 100
11, 81090, Note_on_c, 10, 33, 0
11, 81090, Note_on_c, 10, 34, 100
11, 81120, Note_on_c, 10, 34, 0
11, 81120, Note_on_c, 10, 31, 100
11, 81360, Note_on_c, 10, 31, 0
11, 81840, Note_on_c, 10, 31, 100
11, 82020, Note_on_c, 10, 31, 0
11, 82020, Note_on_c, 10, 30, 100
11, 82050, Note_on_c, 10, 30, 0
11, 82050, Note_on_c, 10, 31, 100
11, 82080, Note_on_c, 10, 31, 0
11, 82080, Note_on_c, 10, 30, 100
11, 82320, Note_on_c, 10, 30, 0
11, 82800, Note_on_c, 10, 38, 100
11, 82980, Note_on_c, 10, 38, 0
11, 82980, Note_on_c, 10, 37, 100
11, 83010, Note_on_c, 10, 37, 0
11, 83010, Note_on_c, 10, 38, 100
11, 83040, Note_on_c, 10, 38, 0
11, 83040, Note_on_c, 10, 43, 100
11, 83160, Note_on_c, 10, 43, 0
11, 83280, Note_on_c, 10, 31, 100
11, 83400, Note_on_c, 10, 31, 0
11, 83520, Note_on_c, 10, 43, 100
11, 83640, Note_on_c, 10, 43, 0
11, 83760, Note_on_c, 10, 46, 100
11, 83880, Note_on_c, 10, 46, 0
11, 84000, Note_on_c, 10, 45, 100
11, 84240, Note_on_c, 10, 45, 0
11, 85560, Note_on_c, 10, 43, 100
11, 85680, Note_on_c, 10, 43, 0
11, 85680, Note_on_c, 10, 42, 100
11, 85800, Note_on_c, 10, 42, 0
11, 85800, Note_on_c, 10, 39, 100
11, 85920, Note_on_c, 10, 39, 0
11, 85920, Note_on_c, 10, 38, 100
11, 85980, Note_on_c, 10, 38, 0
11, 86040, Note_on_c, 10, 38, 100
11, 86100, Note_on_c, 10, 38, 0
11, 86160, Note_on_c, 10, 38, 100
11, 86220, Note_on_c, 10, 38, 0
11, 86280, Note_on_c, 10, 38, 100
11, 86340, Note_on_c, 10, 38, 0
11, 86400, Note_on_c, 10, 31, 100
11, 86640, Note_on_c, 10, 31, 0
11, 87120, Note_on_c, 10, 31, 100
11, 87300, Note_on_c, 10, 31, 0
11, 87300, Note_on_c, 10, 30, 100
11, 87330, Note_on_c, 10, 30, 0
11, 87330, Note_on_c, 10, 31, 100
11, 87360, Note_on_c, 10, 31, 0
11, 87360, Note_on_c, 10, 32, 100
11, 87600, Note_on_c, 10, 32, 0
11, 88080, Note_on_c, 10, 32, 100
11, 88260, Note_on_c, 10, 32, 0
11, 88260, Note_on_c, 10, 31, 100
11, 88290, Note_on_c, 10, 31, 0
11, 88290, Note_on_c, 10, 32, 100
11, 88320, Note_on_c, 10, 32, 0
11, 88320, Note_on_c, 10, 31, 100
11, 88560, Note_on_c, 10, 31, 0
11, 89040, Note_on_c, 10, 43, 100
11, 89220, Note_on_c, 10, 43, 0
11, 89220, Note_on_c, 10, 42, 100
11, 89250, Note_on_c, 10, 42, 0
11, 89250, Note_on_c, 10, 43, 100
11, 89280, Note_on_c, 10, 43, 0
11, 89280, Note_on_c, 10, 48, 100
11, 89400, Note_on_c, 10, 48, 0
11, 89520, Note_on_c, 10, 36, 100
11, 89640, Note_on_c, 10, 36, 0
11, 89760, Note_on_c, 10, 36, 100
11, 89880, Note_on_c, 10, 36, 0
11, 90000, Note_on_c, 10, 39, 100
11, 90120, Note_on_c, 10, 39, 0
11, 90240, Note_on_c, 10, 38, 100
11, 90480, Note_on_c, 10, 38, 0
11, 91800, Note_on_c, 10, 36, 100
11, 91920, Note_on_c, 10, 36, 0
11, 91920, Note_on_c, 10, 35, 100
11, 92040, Note_on_c, 10, 35, 0
11, 92040, Note_on_c, 10, 32, 100
11, 92160, Note_on_c, 10, 32, 0
11, 92160, Note_on_c, 10, 31, 100
11, 92220, Note_on_c, 10, 31, 0
11, 92280, Note_on_c, 10, 31, 100
11, 92340, Note_on_c, 10, 31, 0
11, 92400, Note_on_c, 10, 31, 100
11, 92460, Note_on_c, 10, 31, 0
11, 92520, Note_on_c, 10, 31, 100
11, 92580, Note_on_c, 10, 31, 0
11, 92640, Note_on_c, 10, 36, 100
11, 92760, Note_on_c, 10, 36, 0
11, 92880, Note_on_c, 10, 36, 100
11, 92940, Note_on_c, 10, 36, 0
11, 92940, Note_on_c, 10, 38, 100
11, 93000, Note_on_c, 10, 38, 0
11, 93000, Note_on_c, 10, 39, 100
11, 93060, Note_on_c, 10, 39, 0
11, 93060, Note_on_c, 10, 41, 100
11, 93120, Note_on_c, 10, 41, 0
11, 93120, Note_on_c, 10, 39, 100
11, 93240, Note_on_c, 10, 39, 0
11, 93600, Note_on_c, 10, 40, 100
11, 93840, Note_on_c, 10, 40, 0
11, 93840, Note_on_c, 10, 41, 100
11, 93900, Note_on_c, 10, 41, 0
11, 93900, Note_on_c, 10, 43, 100
11, 93960, Note_on_c, 10, 43, 0
11, 93960, Note_on_c, 10, 44, 100
11, 94020, Note_on_c, 10, 44, 0
11, 94020, Note_on_c, 10, 46, 100
11, 94080, Note_on_c, 10, 46, 0
11, 94080, Note_on_c, 10, 44, 100
11, 94200, Note_on_c, 10, 44, 0
11, 94560, Note_on_c, 10, 33, 100
11, 94800, Note_on_c, 10, 33, 0
11, 94800, Note_on_c, 10, 34, 100
11, 94860, Note_on_c, 10, 34, 0
11, 94860, Note_on_c, 10, 36, 100
11, 94920, Note_on_c, 10, 36, 0
11, 94920, Note_on_c, 10, 38, 100
11, 94980, Note_on_c, 10, 38, 0
11, 94980, Note_on_c, 10, 39, 100
11, 95040, Note_on_c, 10, 39, 0
11, 95040, Note_on_c, 10, 38, 100
11, 95160, Note_on_c, 10, 38, 0
11, 95520, Note_on_c, 10, 38, 100
11, 95760, Note_on_c, 10, 38, 0
11, 95760, Note_on_c, 10, 39, 100
11, 95820, Note_on_c, 10, 39, 0
11, 95820, Note_on_c, 10, 41, 100
11, 95880, Note_on_c, 10, 41, 0
11, 95880, Note_on_c, 10, 43, 100
11, 95940, Note_on_c, 10, 43, 0
11, 95940, Note_on_c, 10, 44, 100
11, 96000, Note_on_c, 10, 44, 0
11, 96000, Note_on_c, 10, 43, 100
11, 96120, Note_on_c, 10, 43, 0
11, 98640, Note_on_c, 10, 47, 100
11, 98880, Note_on_c, 10, 47, 0
11, 98880, Note_on_c, 10, 48, 100
11, 99120, Note_on_c, 10, 48, 0
11, 99120, Note_on_c, 10, 43, 100
11, 99360, Note_on_c, 10, 43, 0
11, 99360, Note_on_c, 10, 44, 100
11, 99600, Note_on_c, 10, 44, 0
11, 99600, Note_on_c, 10, 40, 100
11, 99840, Note_on_c, 10, 40, 0
11, 99840, Note_on_c, 10, 41, 100
11, 99960, Note_on_c, 10, 41, 0
11, 99960, Note_on_c, 10, 43, 100
11, 100080, Note_on_c, 10, 43, 0
11, 100080, Note_on_c, 10, 44, 100
11, 100200, Note_on_c, 10, 44, 0
11, 100200, Note_on_c, 10, 45, 100
11, 100320, Note_on_c, 10, 45, 0
11, 100320, Note_on_c, 10, 46, 100
11, 100440, Note_on_c, 10, 46, 0
11, 100440, Program_c, 10, 45
11, 100440, Note_on_c, 10, 46, 100
11, 100500, Note_on_c, 10, 46, 0
11, 100560, Note_on_c, 10, 53, 100
11, 100620, Note_on_c, 10, 53, 0
11, 100680, Note_on_c, 10, 50, 100
11, 100740, Note_on_c, 10, 50, 0
11, 100800, Note_on_c, 10, 46, 100
11, 100860, Note_on_c, 10, 46, 0
11, 100920, Note_on_c, 10, 41, 100
11, 100980, Note_on_c, 10, 41, 0
11, 101040, Note_on_c, 10, 38, 100
11, 101100, Note_on_c, 10, 38, 0
11, 101160, Note_on_c, 10, 34, 100
11, 101220, Note_on_c, 10, 34, 0
11, 102360, Note_on_c, 10, 46, 100
11, 102420, Note_on_c, 10, 46, 0
11, 102480, Note_on_c, 10, 53, 100
11, 102540, Note_on_c, 10, 53, 0
11, 102600, Note_on_c, 10, 50, 100
11, 102660, Note_on_c, 10, 50, 0
11, 102720, Note_on_c, 10, 46, 100
11, 102780, Note_on_c, 10, 46, 0
11, 102840, Note_on_c, 10, 41, 100
11, 102900, Note_on_c, 10, 41, 0
11, 102960, Note_on_c, 10, 38, 100
11, 103020, Note_on_c, 10, 38, 0
11, 103080, Note_on_c, 10, 34, 100
11, 103140, Note_on_c, 10, 34, 0
11, 103200, Note_on_c, 10, 39, 100
11, 103320, Note_on_c, 10, 39, 0
11, 104160, Note_on_c, 10, 34, 100
11, 104280, Note_on_c, 10, 34, 0
11, 105360, Program_c, 10, 43
11, 105360, Note_on_c, 10, 34, 100
11, 105390, Note_on_c, 10, 34, 0
11, 105390, Note_on_c, 10, 33, 100
11, 105420, Note_on_c, 10, 33, 0
11, 105420, Note_on_c, 10, 34, 100
11, 105450, Note_on_c, 10, 34, 0
11, 105450, Note_on_c, 10, 33, 100
11, 105480, Note_on_c, 10, 33, 0
11, 105480, Note_on_c, 10, 34, 100
11, 105510, Note_on_c, 10, 34, 0
11, 105510, Note_on_c, 10, 33, 100
11, 105540, Note_on_c, 10, 33, 0
11, 105540, Note_on_c, 10, 34, 100
11, 105570, Note_on_c, 10, 34, 0
11, 105570, Note_on_c, 10, 33, 100
11, 105600, Note_on_c, 10, 33, 0
11, 105600, Note_on_c, 10, 34, 100
11, 106140, Note_on_c, 10, 34, 0
11, 106200, Note_on_c, 10, 34, 100
11, 106260, Note_on_c, 10, 34, 0
11, 106320, Note_on_c, 10, 34, 100
11, 106380, Note_on_c, 10, 34, 0
11, 106440, Note_on_c, 10, 34, 100
11, 106500, Note_on_c, 10, 34, 0
11, 106560, Note_on_c, 10, 39, 100
11, 107040, Note_on_c, 10, 39, 0
11, 107040, Note_on_c, 10, 39, 100
11, 107280, Note_on_c, 10, 39, 0
11, 107280, Note_on_c, 10, 39, 100
11, 107460, Note_on_c, 10, 39, 0
11, 107460, Note_on_c, 10, 39, 100
11, 107520, Note_on_c, 10, 39, 0
11, 107520, Note_on_c, 10, 39, 100
11, 107640, Note_on_c, 10, 39, 0
11, 108600, Note_on_c, 10, 53, 100
11, 108660, Note_on_c, 10, 53, 0
11, 108720, Note_on_c, 10, 50, 100
11, 108780, Note_on_c, 10, 50, 0
11, 108840, Note_on_c, 10, 46, 100
11, 108900, Note_on_c, 10, 46, 0
11, 108960, Note_on_c, 10, 44, 100
11, 109020, Note_on_c, 10, 44, 0
11, 109080, Note_on_c, 10, 41, 100
11, 109140, Note_on_c, 10, 41, 0
11, 109200, Note_on_c, 10, 38, 100
11, 109260, Note_on_c, 10, 38, 0
11, 109320, Note_on_c, 10, 34, 100
11, 109380, Note_on_c, 10, 34, 0
11, 109440, Note_on_c, 10, 39, 100
11, 109560, Note_on_c, 10, 39, 0
11, 113280, Note_on_c, 10, 39, 100
11, 113520, Note_on_c, 10, 39, 0
11, 113520, Note_on_c, 10, 39, 100
11, 113700, Note_on_c, 10, 39, 0
11, 113700, Note_on_c, 10, 39, 100
11, 113760, Note_on_c, 10, 39, 0
11, 113760, Note_on_c, 10, 34, 100
11, 114240, Note_on_c, 10, 34, 0
11, 115200, Note_on_c, 10, 39, 100
11, 115440, Note_on_c, 10, 39, 0
11, 115440, Note_on_c, 10, 39, 100
11, 115620, Note_on_c, 10, 39, 0
11, 115620, Note_on_c, 10, 39, 100
11, 115680, Note_on_c, 10, 39, 0
11, 115680, Note_on_c, 10, 34, 100
11, 116160, Note_on_c, 10, 34, 0
11, 119640, Note_on_c, 10, 39, 100
11, 119700, Note_on_c, 10, 39, 0
11, 119700, Note_on_c, 10, 34, 100
11, 119760, Note_on_c, 10, 34, 0
11, 119760, Note_on_c, 10, 39, 100
11, 119820, Note_on_c, 10, 39, 0
11, 119820, Note_on_c, 10, 34, 100
11, 119880, Note_on_c, 10, 34, 0
11, 119880, Note_on_c, 10, 39, 100
11, 119940, Note_on_c, 10, 39, 0
11, 119940, Note_on_c, 10, 34, 100
11, 120000, Note_on_c, 10, 34, 0
11, 120000, Note_on_c, 10, 39, 100
11, 120120, Note_on_c, 10, 39, 0
11, 120240, Note_on_c, 10, 39, 100
11, 120480, Note_on_c, 10, 39, 0
11, 120480, Note_on_c, 10, 38, 100
11, 120720, Note_on_c, 10, 38, 0
11, 120720, Note_on_c, 10, 37, 100
11, 120960, Note_on_c, 10, 37, 0
11, 120960, Note_on_c, 10, 36, 100
11, 121080, Note_on_c, 10, 36, 0
11, 121440, Note_on_c, 10, 36, 100
11, 121560, Note_on_c, 10, 36, 0
11, 121920, Note_on_c, 10, 36, 100
11, 122040, Note_on_c, 10, 36, 0
11, 122400, Note_on_c, 10, 41, 100
11, 122520, Note_on_c, 10, 41, 0
11, 122880, Note_on_c, 10, 34, 100
11, 123000, Note_on_c, 10, 34, 0
11, 123360, Note_on_c, 10, 34, 100
11, 123480, Note_on_c, 10, 34, 0
11, 123840, Note_on_c, 10, 34, 100
11, 123960, Note_on_c, 10, 34, 0
11, 124380, Note_on_c, 10, 39, 100
11, 124440, Note_on_c, 10, 39, 0
11, 124440, Note_on_c, 10, 39, 100
11, 124500, Note_on_c, 10, 39, 0
11, 124500, Note_on_c, 10, 39, 100
11, 124560, Note_on_c, 10, 39, 0
11, 124560, Note_on_c, 10, 43, 100
11, 124620, Note_on_c, 10, 43, 0
11, 124620, Note_on_c, 10, 43, 100
11, 124680, Note_on_c, 10, 43, 0
11, 124680, Note_on_c, 10, 43, 100
11, 124740, Note_on_c, 10, 43, 0
11, 124740, Note_on_c, 10, 43, 100
11, 124800, Note_on_c, 10, 43, 0
11, 124800, Note_on_c, 10, 44, 100
11, 124920, Note_on_c, 10, 44, 0
11, 125040, Note_on_c, 10, 44, 100
11, 125160, Note_on_c, 10, 44, 0
11, 125280, Note_on_c, 10, 45, 100
11, 125760, Note_on_c, 10, 45, 0
11, 125880, Note_on_c, 10, 46, 100
11, 126000, Note_on_c, 10, 46, 0
11, 126000, Note_on_c, 10, 46, 100
11, 126120, Note_on_c, 10, 46, 0
11, 126120, Note_on_c, 10, 46, 100
11, 126240, Note_on_c, 10, 46, 0
11, 126240, Note_on_c, 10, 46, 100
11, 126360, Note_on_c, 10, 46, 0
11, 126360, Note_on_c, 10, 34, 100
11, 126420, Note_on_c, 10, 34, 0
11, 126420, Note_on_c, 10, 34, 100
11, 126480, Note_on_c, 10, 34, 0
11, 126480, Note_on_c, 10, 34, 100
11, 126540, Note_on_c, 10, 34, 0
11, 126540, Note_on_c, 10, 34, 100
11, 126600, Note_on_c, 10, 34, 0
11, 126600, Note_on_c, 10, 34, 100
11, 126660, Note_on_c, 10, 34, 0
11, 126660, Note_on_c, 10, 34, 100
11, 126720, Note_on_c, 10, 34, 0
11, 126720, Note_on_c, 10, 34, 100
11, 127320, Note_on_c, 10, 34, 0
11, 127680, Note_on_c, 10, 34, 100
11, 127800, Note_on_c, 10, 34, 0
11, 128160, Note_on_c, 10, 34, 100
11, 128280, Note_on_c, 10, 34, 0
11, 128640, Note_on_c, 10, 34, 100
11, 128760, Note_on_c, 10, 34, 0
11, 129120, Note_on_c, 10, 34, 100
11, 129240, Note_on_c, 10, 34, 0
11, 129600, Note_on_c, 10, 34, 100
11, 129720, Note_on_c, 10, 34, 0
11, 130080, Note_on_c, 10, 39, 100
11, 130200, Note_on_c, 10, 39, 0
11, 130200, Note_on_c, 10, 39, 100
11, 130260, Note_on_c, 10, 39, 0
11, 130260, Note_on_c, 10, 39, 100
11, 130320, Note_on_c, 10, 39, 0
11, 130320, Note_on_c, 10, 39, 100
11, 130380, Note_on_c, 10, 39, 0
11, 130380, Note_on_c, 10, 39, 100
11, 130440, Note_on_c, 10, 39, 0
11, 130440, Note_on_c, 10, 39, 100
11, 130500, Note_on_c, 10, 39, 0
11, 130500, Note_on_c, 10, 39, 100
11, 130560, Note_on_c, 10, 39, 0
11, 130560, Note_on_c, 10, 39, 100
11, 131160, Note_on_c, 10, 39, 0
11, 131520, Note_on_c, 10, 39, 100
11, 131640, Note_on_c, 10, 39, 0
11, 132000, Note_on_c, 10, 39, 100
11, 132120, Note_on_c, 10, 39, 0
11, 132480, Note_on_c, 10, 39, 100
11, 132600, Note_on_c, 10, 39, 0
11, 132960, Note_on_c, 10, 39, 100
11, 133080, Note_on_c, 10, 39, 0
11, 133440, Note_on_c, 10, 39, 100
11, 133560, Note_on_c, 10, 39, 0
11, 133920, Note_on_c, 10, 32, 100
11, 134040, Note_on_c, 10, 32, 0
11, 134160, Note_on_c, 10, 44, 100
11, 134280, Note_on_c, 10, 44, 0
11, 134400, Note_on_c, 10, 43, 100
11, 134520, Note_on_c, 10, 43, 0
11, 134640, Note_on_c, 10, 38, 100
11, 134760, Note_on_c, 10, 38, 0
11, 134880, Note_on_c, 10, 39, 100
11, 135000, Note_on_c, 10, 39, 0
11, 135000, Note_on_c, 10, 43, 100
11, 135120, Note_on_c, 10, 43, 0
11, 135120, Note_on_c, 10, 44, 100
11, 135240, Note_on_c, 10, 44, 0
11, 135240, Note_on_c, 10, 48, 100
11, 135360, Note_on_c, 10, 48, 0
11, 135360, Note_on_c, 10, 46, 100
11, 135420, Note_on_c, 10, 46, 0
11, 135420, Note_on_c, 10, 46, 100
11, 135480, Note_on_c, 10, 46, 0
11, 135480, Note_on_c, 10, 46, 100
11, 135540, Note_on_c, 10, 46, 0
11, 135540, Note_on_c, 10, 46, 100
11, 135600, Note_on_c, 10, 46, 0
11, 135600, Note_on_c, 10, 34, 100
11, 135660, Note_on_c, 10, 34, 0
11, 135660, Note_on_c, 10, 34, 100
11, 135720, Note_on_c, 10, 34, 0
11, 135720, Note_on_c, 10, 34, 100
11, 135780, Note_on_c, 10, 34, 0
11, 135780, Note_on_c, 10, 34, 100
11, 135840, Note_on_c, 10, 34, 0
11, 135840, Note_on_c, 10, 39, 100
11, 135960, Note_on_c, 10, 39, 0
11, 135960, Note_on_c, 10, 51, 100
11, 136080, Note_on_c, 10, 51, 0
11, 136080, Note_on_c, 10, 46, 100
11, 136200, Note_on_c, 10, 46, 0
11, 136200, Note_on_c, 10, 43, 100
11, 136320, Note_on_c, 10, 43, 0
11, 136320, Note_on_c, 10, 39, 100
11, 136440, Note_on_c, 10, 39, 0
11, 136560, Note_on_c, 10, 39, 100
11, 136680, Note_on_c, 10, 39, 0
11, 136800, Note_on_c, 10, 41, 100
11, 136920, Note_on_c, 10, 41, 0
11, 137040, Note_on_c, 10, 44, 100
11, 137160, Note_on_c, 10, 44, 0
11, 137280, Note_on_c, 10, 43, 100
11, 137460, Note_on_c, 10, 43, 0
11, 137460, Note_on_c, 10, 38, 100
11, 137520, Note_on_c, 10, 38, 0
11, 137520, Note_on_c, 10, 39, 100
11, 137700, Note_on_c, 10, 39, 0
11, 137700, Note_on_c, 10, 32, 100
11, 137760, Note_on_c, 10, 32, 0
11, 137760, Note_on_c, 10, 34, 100
11, 137820, Note_on_c, 10, 34, 0
11, 137820, Note_on_c, 10, 33, 100
11, 137880, Note_on_c, 10, 33, 0
11, 137880, Note_on_c, 10, 34, 100
11, 137940, Note_on_c, 10, 34, 0
11, 137940, Note_on_c, 10, 33, 100
11, 138000, Note_on_c, 10, 33, 0
11, 138000, Note_on_c, 10, 34, 100
11, 138120, Note_on_c, 10, 34, 0
11, 140160, Program_c, 10, 45
11, 140160, Note_on_c, 10, 39, 100
11, 140280, Note_on_c, 10, 39, 0
11, 141120, Note_on_c, 10, 34, 100
11, 141240, Note_on_c, 10, 34, 0
11, 141360, Note_on_c, 10, 34, 100
11, 141480, Note_on_c, 10, 34, 0
11, 141600, Note_on_c, 10, 34, 100
11, 141720, Note_on_c, 10, 34, 0
11, 141840, Note_on_c, 10, 34, 100
11, 141960, Note_on_c, 10, 34, 0
11, 142080, Note_on_c, 10, 39, 100
11, 142200, Note_on_c, 10, 39, 0
11, 143040, Note_on_c, 10, 34, 100
11, 143160, Note_on_c, 10, 34, 0
11, 143280, Note_on_c, 10, 34, 100
11, 143400, Note_on_c, 10, 34, 0
11, 143520, Note_on_c, 10, 34, 100
11, 143640, Note_on_c, 10, 34, 0
11, 143760, Note_on_c, 10, 34, 100
11, 143880, Note_on_c, 10, 34, 0
11, 144000, Note_on_c, 10, 39, 100
11, 144000, Program_c, 10, 43
11, 144120, Note_on_c, 10, 39, 0
11, 144240, Note_on_c, 10, 46, 100
11, 144360, Note_on_c, 10, 46, 0
11, 144480, Note_on_c, 10, 51, 100
11, 144600, Note_on_c, 10, 51, 0
11, 144720, Note_on_c, 10, 46, 100
11, 144840, Note_on_c, 10, 46, 0
11, 144960, Note_on_c, 10, 39, 100
11, 145080, Note_on_c, 10, 39, 0
11, 145260, Note_on_c, 10, 39, 100
11, 145320, Note_on_c, 10, 39, 0
11, 145320, Note_on_c, 10, 41, 100
11, 145380, Note_on_c, 10, 41, 0
11, 145380, Note_on_c, 10, 43, 100
11, 145440, Note_on_c, 10, 43, 0
11, 145440, Note_on_c, 10, 44, 100
11, 145560, Note_on_c, 10, 44, 0
11, 145800, Note_on_c, 10, 44, 100
11, 145920, Note_on_c, 10, 44, 0
11, 145920, Note_on_c, 10, 43, 100
11, 145980, Note_on_c, 10, 43, 0
11, 146040, Note_on_c, 10, 44, 100
11, 146100, Note_on_c, 10, 44, 0
11, 146160, Note_on_c, 10, 46, 100
11, 146220, Note_on_c, 10, 46, 0
11, 146280, Note_on_c, 10, 34, 100
11, 146340, Note_on_c, 10, 34, 0
11, 146400, Note_on_c, 10, 39, 100
11, 146520, Note_on_c, 10, 39, 0
11, 147360, Note_on_c, 10, 39, 100
11, 147480, Note_on_c, 10, 39, 0
11, 148140, Note_on_c, 10, 39, 100
11, 148200, Note_on_c, 10, 39, 0
11, 148200, Note_on_c, 10, 41, 100
11, 148260, Note_on_c, 10, 41, 0
11, 148260, Note_on_c, 10, 43, 100
11, 148320, Note_on_c, 10, 43, 0
11, 148320, Note_on_c, 10, 44, 100
11, 148380, Note_on_c, 10, 44, 0
11, 148440, Note_on_c, 10, 44, 100
11, 148500, Note_on_c, 10, 44, 0
11, 148560, Note_on_c, 10, 44, 100
11, 148620, Note_on_c, 10, 44, 0
11, 148680, Note_on_c, 10, 44, 100
11, 148740, Note_on_c, 10, 44, 0
11, 148800, Note_on_c, 10, 44, 100
11, 148920, Note_on_c, 10, 44, 0
11, 149280, Note_on_c, 10, 34, 100
11, 149400, Note_on_c, 10, 34, 0
11, 149520, Note_on_c, 10, 34, 100
11, 149640, Note_on_c, 10, 34, 0
11, 149760, Note_on_c, 10, 36, 100
11, 149880, Note_on_c, 10, 36, 0
11, 150000, Note_on_c, 10, 34, 100
11, 150120, Note_on_c, 10, 34, 0
11, 150240, Note_on_c, 10, 39, 100
11, 150360, Note_on_c, 10, 39, 0
11, 152640, Note_on_c, 10, 39, 100
11, 152760, Note_on_c, 10, 39, 0
11, 152880, Note_on_c, 10, 39, 100
11, 153000, Note_on_c, 10, 39, 0
11, 153120, Note_on_c, 10, 39, 100
11, 153240, Note_on_c, 10, 39, 0
11, 153360, Note_on_c, 10, 39, 100
11, 153480, Note_on_c, 10, 39, 0
11, 153600, Note_on_c, 10, 39, 100
11, 153720, Note_on_c, 10, 39, 0
11, 153840, Note_on_c, 10, 39, 100
11, 153960, Note_on_c, 10, 39, 0
11, 154080, Note_on_c, 10, 39, 100
11, 154200, Note_on_c, 10, 39, 0
11, 154320, Note_on_c, 10, 39, 100
11, 154440, Note_on_c, 10, 39, 0
11, 154620, Note_on_c, 10, 39, 100
11, 154680, Note_on_c, 10, 39, 0
11, 154680, Note_on_c, 10, 42, 100
11, 154740, Note_on_c, 10, 42, 0
11, 154740, Note_on_c, 10, 39, 100
11, 154800, Note_on_c, 10, 39, 0
11, 154800, Note_on_c, 10, 35, 100
11, 154860, Note_on_c, 10, 35, 0
11, 154860, Note_on_c, 10, 39, 100
11, 154920, Note_on_c, 10, 39, 0
11, 154920, Note_on_c, 10, 42, 100
11, 154980, Note_on_c, 10, 42, 0
11, 154980, Note_on_c, 10, 39, 100
11, 155040, Note_on_c, 10, 39, 0
11, 155040, Note_on_c, 10, 34, 100
11, 155100, Note_on_c, 10, 34, 0
11, 155100, Note_on_c, 10, 39, 100
11, 155160, Note_on_c, 10, 39, 0
11, 155160, Note_on_c, 10, 42, 100
11, 155220, Note_on_c, 10, 42, 0
11, 155220, Note_on_c, 10, 39, 100
11, 155280, Note_on_c, 10, 39, 0
11, 155280, Note_on_c, 10, 33, 100
11, 155340, Note_on_c, 10, 33, 0
11, 155340, Note_on_c, 10, 39, 100
11, 155400, Note_on_c, 10, 39, 0
11, 155400, Note_on_c, 10, 42, 100
11, 155460, Note_on_c, 10, 42, 0
11, 155460, Note_on_c, 10, 39, 100
11, 155520, Note_on_c, 10, 39, 0
11, 155520, Note_on_c, 10, 34, 100
11, 155640, Note_on_c, 10, 34, 0
11, 156060, Note_on_c, 10, 34, 100
11, 156120, Note_on_c, 10, 34, 0
11, 156120, Note_on_c, 10, 34, 100
11, 156180, Note_on_c, 10, 34, 0
11, 156180, Note_on_c, 10, 34, 100
11, 156240, Note_on_c, 10, 34, 0
11, 156240, Note_on_c, 10, 34, 100
11, 156300, Note_on_c, 10, 34, 0
11, 156300, Note_on_c, 10, 34, 100
11, 156360, Note_on_c, 10, 34, 0
11, 156360, Note_on_c, 10, 34, 100
11, 156420, Note_on_c, 10, 34, 0
11, 156420, Note_on_c, 10, 34, 100
11, 156480, Note_on_c, 10, 34, 0
11, 156480, Note_on_c, 10, 34, 100
11, 156540, Note_on_c, 10, 34, 0
11, 156540, Note_on_c, 10, 34, 100
11, 156600, Note_on_c, 10, 34, 0
11, 156600, Note_on_c, 10, 34, 100
11, 156660, Note_on_c, 10, 34, 0
11, 156660, Note_on_c, 10, 34, 100
11, 156720, Note_on_c, 10, 34, 0
11, 156720, Note_on_c, 10, 34, 100
11, 156780, Note_on_c, 10, 34, 0
11, 156780, Note_on_c, 10, 34, 100
11, 156840, Note_on_c, 10, 34, 0
11, 156840, Note_on_c, 10, 34, 100
11, 156900, Note_on_c, 10, 34, 0
11, 156900, Note_on_c, 10, 34, 100
11, 156960, Note_on_c, 10, 34, 0
11, 156960, Note_on_c, 10, 39, 100
11, 157020, Note_on_c, 10, 39, 0
11, 157020, Note_on_c, 10, 41, 100
11, 157050, Note_on_c, 10, 41, 0
11, 157050, Note_on_c, 10, 43, 100
11, 157080, Note_on_c, 10, 43, 0
11, 157080, Note_on_c, 10, 44, 100
11, 157110, Note_on_c, 10, 44, 0
11, 157110, Note_on_c, 10, 46, 100
11, 157140, Note_on_c, 10, 46, 0
11, 157140, Note_on_c, 10, 48, 100
11, 157170, Note_on_c, 10, 48, 0
11, 157170, Note_on_c, 10, 50, 100
11, 157200, Note_on_c, 10, 50, 0
11, 157200, Note_on_c, 10, 51, 100
11, 157230, Note_on_c, 10, 51, 0
11, 157230, Note_on_c, 10, 50, 100
11, 157260, Note_on_c, 10, 50, 0
11, 157260, Note_on_c, 10, 51, 100
11, 157290, Note_on_c, 10, 51, 0
11, 157290, Note_on_c, 10, 53, 100
11, 157320, Note_on_c, 10, 53, 0
11, 157320, Note_on_c, 10, 55, 100
11, 157350, Note_on_c, 10, 55, 0
11, 157350, Note_on_c, 10, 53, 100
11, 157380, Note_on_c, 10, 53, 0
11, 157380, Note_on_c, 10, 51, 100
11, 157410, Note_on_c, 10, 51, 0
11, 157410, Note_on_c, 10, 50, 100
11, 157440, Note_on_c, 10, 50, 0
11, 157440, Note_on_c, 10, 48, 100
11, 157470, Note_on_c, 10, 48, 0
11, 157470, Note_on_c, 10, 47, 100
11, 157500, Note_on_c, 10, 47, 0
11, 157500, Note_on_c, 10, 48, 100
11, 157530, Note_on_c, 10, 48, 0
11, 157530, Note_on_c, 10, 50, 100
11, 157560, Note_on_c, 10, 50, 0
11, 157560, Note_on_c, 10, 51, 100
11, 157590, Note_on_c, 10, 51, 0
11, 157590, Note_on_c, 10, 50, 100
11, 157620, Note_on_c, 10, 50, 0
11, 157620, Note_on_c, 10, 48, 100
11, 157650, Note_on_c, 10, 48, 0
11, 157650, Note_on_c, 10, 46, 100
11, 157680, Note_on_c, 10, 46, 0
11, 157680, Note_on_c, 10, 44, 100
11, 157710, Note_on_c, 10, 44, 0
11, 157710, Note_on_c, 10, 43, 100
11, 157740, Note_on_c, 10, 43, 0
11, 157740, Note_on_c, 10, 44, 100
11, 157770, Note_on_c, 10, 44, 0
11, 157770, Note_on_c, 10, 46, 100
11, 157800, Note_on_c, 10, 46, 0
11, 157800, Note_on_c, 10, 48, 100
11, 157830, Note_on_c, 10, 48, 0
11, 157830, Note_on_c, 10, 46, 100
11, 157860, Note_on_c, 10, 46, 0
11, 157860, Note_on_c, 10, 44, 100
11, 157890, Note_on_c, 10, 44, 0
11, 157890, Note_on_c, 10, 43, 100
11, 157920, Note_on_c, 10, 43, 0
11, 157920, Note_on_c, 10, 41, 100
11, 157950, Note_on_c, 10, 41, 0
11, 157950, Note_on_c, 10, 29, 100
11, 157980, Note_on_c, 10, 29, 0
11, 157980, Note_on_c, 10, 31, 100
11, 158010, Note_on_c, 10, 31, 0
11, 158010, Note_on_c, 10, 32, 100
11, 158040, Note_on_c, 10, 32, 0
11, 158040, Note_on_c, 10, 34, 100
11, 158070, Note_on_c, 10, 34, 0
11, 158070, Note_on_c, 10, 36, 100
11, 158100, Note_on_c, 10, 36, 0
11, 158100, Note_on_c, 10, 38, 100
11, 158130, Note_on_c, 10, 38, 0
11, 158130, Note_on_c, 10, 39, 100
11, 158160, Note_on_c, 10, 39, 0
11, 158160, Note_on_c, 10, 41, 100
11, 158190, Note_on_c, 10, 41, 0
11, 158190, Note_on_c, 10, 39, 100
11, 158220, Note_on_c, 10, 39, 0
11, 158220, Note_on_c, 10, 41, 100
11, 158250, Note_on_c, 10, 41, 0
11, 158250, Note_on_c, 10, 43, 100
11, 158280, Note_on_c, 10, 43, 0
11, 158280, Note_on_c, 10, 44, 100
11, 158310, Note_on_c, 10, 44, 0
11, 158310, Note_on_c, 10, 43, 100
11, 158340, Note_on_c, 10, 43, 0
11, 158340, Note_on_c, 10, 41, 100
11, 158370, Note_on_c, 10, 41, 0
11, 158370, Note_on_c, 10, 39, 100
11, 158400, Note_on_c, 10, 39, 0
11, 158400, Note_on_c, 10, 38, 100
11, 158430, Note_on_c, 10, 38, 0
11, 158430, Note_on_c, 10, 36, 100
11, 158460, Note_on_c, 10, 36, 0
11, 158460, Note_on_c, 10, 38, 100
11, 158490, Note_on_c, 10, 38, 0
11, 158490, Note_on_c, 10, 39, 100
11, 158520, Note_on_c, 10, 39, 0
11, 158520, Note_on_c, 10, 41, 100
11, 158550, Note_on_c, 10, 41, 0
11, 158550, Note_on_c, 10, 39, 100
11, 158580, Note_on_c, 10, 39, 0
11, 158580, Note_on_c, 10, 38, 100
11, 158610, Note_on_c, 10, 38, 0
11, 158610, Note_on_c, 10, 36, 100
11, 158640, Note_on_c, 10, 36, 0
11, 158640, Note_on_c, 10, 34, 100
11, 158670, Note_on_c, 10, 34, 0
11, 158670, Note_on_c, 10, 33, 100
11, 158700, Note_on_c, 10, 33, 0
11, 158700, Note_on_c, 10, 34, 100
11, 158730, Note_on_c, 10, 34, 0
11, 158730, Note_on_c, 10, 36, 100
11, 158760, Note_on_c, 10, 36, 0
11, 158760, Note_on_c, 10, 38, 100
11, 158790, Note_on_c, 10, 38, 0
11, 158790, Note_on_c, 10, 36, 100
11, 158820, Note_on_c, 10, 36, 0
11, 158820, Note_on_c, 10, 34, 100
11, 158850, Note_on_c, 10, 34, 0
11, 158850, Note_on_c, 10, 32, 100
11, 158880, Note_on_c, 10, 32, 0
11, 158880, Note_on_c, 10, 31, 100
11, 158940, Note_on_c, 10, 31, 0
11, 158940, Note_on_c, 10, 32, 100
11, 158970, Note_on_c, 10, 32, 0
11, 158970, Note_on_c, 10, 34, 100
11, 159000, Note_on_c, 10, 34, 0
11, 159000, Note_on_c, 10, 36, 100
11, 159030, Note_on_c, 10, 36, 0
11, 159030, Note_on_c, 10, 38, 100
11, 159060, Note_on_c, 10, 38, 0
11, 159060, Note_on_c, 10, 39, 100
11, 159090, Note_on_c, 10, 39, 0
11, 159090, Note_on_c, 10, 41, 100
11, 159120, Note_on_c, 10, 41, 0
11, 159120, Note_on_c, 10, 43, 100
11, 159150, Note_on_c, 10, 43, 0
11, 159150, Note_on_c, 10, 41, 100
11, 159180, Note_on_c, 10, 41, 0
11, 159180, Note_on_c, 10, 43, 100
11, 159210, Note_on_c, 10, 43, 0
11, 159210, Note_on_c, 10, 44, 100
11, 159240, Note_on_c, 10, 44, 0
11, 159240, Note_on_c, 10, 46, 100
11, 159270, Note_on_c, 10, 46, 0
11, 159270, Note_on_c, 10, 44, 100
11, 159300, Note_on_c, 10, 44, 0
11, 159300, Note_on_c, 10, 43, 100
11, 159330, Note_on_c, 10, 43, 0
11, 159330, Note_on_c, 10, 41, 100
11, 159360, Note_on_c, 10, 41, 0
11, 159360, Note_on_c, 10, 39, 100
11, 159390, Note_on_c, 10, 39, 0
11, 159390, Note_on_c, 10, 38, 100
11, 159420, Note_on_c, 10, 38, 0
11, 159420, Note_on_c, 10, 39, 100
11, 159450, Note_on_c, 10, 39, 0
11, 159450, Note_on_c, 10, 41, 100
11, 159480, Note_on_c, 10, 41, 0
11, 159480, Note_on_c, 10, 43, 100
11, 159510, Note_on_c, 10, 43, 0
11, 159510, Note_on_c, 10, 41, 100
11, 159540, Note_on_c, 10, 41, 0
11, 159540, Note_on_c, 10, 39, 100
11, 159570, Note_on_c, 10, 39, 0
11, 159570, Note_on_c, 10, 38, 100
11, 159600, Note_on_c, 10, 38, 0
11, 159600, Note_on_c, 10, 36, 100
11, 159630, Note_on_c, 10, 36, 0
11, 159630, Note_on_c, 10, 35, 100
11, 159660, Note_on_c, 10, 35, 0
11, 159660, Note_on_c, 10, 36, 100
11, 159690, Note_on_c, 10, 36, 0
11, 159690, Note_on_c, 10, 38, 100
11, 159720, Note_on_c, 10, 38, 0
11, 159720, Note_on_c, 10, 39, 100
11, 159750, Note_on_c, 10, 39, 0
11, 159750, Note_on_c, 10, 38, 100
11, 159780, Note_on_c, 10, 38, 0
11, 159780, Note_on_c, 10, 36, 100
11, 159810, Note_on_c, 10, 36, 0
11, 159810, Note_on_c, 10, 34, 100
11, 159840, Note_on_c, 10, 34, 0
11, 159840, Note_on_c, 10, 32, 100
11, 159900, Note_on_c, 10, 32, 0
11, 159900, Note_on_c, 10, 32, 100
11, 159960, Note_on_c, 10, 32, 0
11, 159960, Note_on_c, 10, 32, 100
11, 160020, Note_on_c, 10, 32, 0
11, 160020, Note_on_c, 10, 32, 100
11, 160080, Note_on_c, 10, 32, 0
11, 160080, Note_on_c, 10, 32, 100
11, 160140, Note_on_c, 10, 32, 0
11, 160140, Note_on_c, 10, 32, 100
11, 160200, Note_on_c, 10, 32, 0
11, 160200, Note_on_c, 10, 32, 100
11, 160260, Note_on_c, 10, 32, 0
11, 160260, Note_on_c, 10, 32, 100
11, 160320, Note_on_c, 10, 32, 0
11, 160320, Note_on_c, 10, 32, 100
11, 160380, Note_on_c, 10, 32, 0
11, 160380, Note_on_c, 10, 32, 100
11, 160440, Note_on_c, 10, 32, 0
11, 160440, Note_on_c, 10, 32, 100
11, 160500, Note_on_c, 10, 32, 0
11, 160500, Note_on_c, 10, 32, 100
11, 160560, Note_on_c, 10, 32, 0
11, 160560, Note_on_c, 10, 32, 100
11, 160620, Note_on_c, 10, 32, 0
11, 160620, Note_on_c, 10, 32, 100
11, 160680, Note_on_c, 10, 32, 0
11, 160680, Note_on_c, 10, 32, 100
11, 160740, Note_on_c, 10, 32, 0
11, 160740, Note_on_c, 10, 32, 100
11, 160800, Note_on_c, 10, 32, 0
11, 160800, Note_on_c, 10, 33, 100
11, 160920, Note_on_c, 10, 33, 0
11, 161610, Note_on_c, 10, 33, 100
11, 161640, Note_on_c, 10, 33, 0
11, 161640, Note_on_c, 10, 33, 100
11, 161730, Note_on_c, 10, 33, 0
11, 161730, Note_on_c, 10, 33, 100
11, 161760, Note_on_c, 10, 33, 0
11, 161760, Note_on_c, 10, 34, 100
11, 162000, Note_on_c, 10, 34, 0
11, 174240, Note_on_c, 10, 39, 100
11, 174480, Note_on_c, 10, 39, 0
11, 174480, Note_on_c, 10, 51, 100
11, 174660, Note_on_c, 10, 51, 0
11, 174660, Note_on_c, 10, 50, 100
11, 174690, Note_on_c, 10, 50, 0
11, 174690, Note_on_c, 10, 51, 100
11, 174720, Note_on_c, 10, 51, 0
11, 174720, Note_on_c, 10, 55, 100
11, 174960, Note_on_c, 10, 55, 0
11, 174960, Note_on_c, 10, 39, 100
11, 175140, Note_on_c, 10, 39, 0
11, 175140, Note_on_c, 10, 38, 100
11, 175170, Note_on_c, 10, 38, 0
11, 175170, Note_on_c, 10, 39, 100
11, 175200, Note_on_c, 10, 39, 0
11, 175200, Note_on_c, 10, 36, 100
11, 175440, Note_on_c, 10, 36, 0
11, 175440, Note_on_c, 10, 48, 100
11, 175620, Note_on_c, 10, 48, 0
11, 175620, Note_on_c, 10, 47, 100
11, 175650, Note_on_c, 10, 47, 0
11, 175650, Note_on_c, 10, 48, 100
11, 175680, Note_on_c, 10, 48, 0
11, 175680, Note_on_c, 10, 51, 100
11, 175920, Note_on_c, 10, 51, 0
11, 175920, Note_on_c, 10, 36, 100
11, 176100, Note_on_c, 10, 36, 0
11, 176100, Note_on_c, 10, 35, 100
11, 176130, Note_on_c, 10, 35, 0
11, 176130, Note_on_c, 10, 36, 100
11, 176160, Note_on_c, 10, 36, 0
11, 176160, Note_on_c, 10, 32, 100
11, 176880, Note_on_c, 10, 32, 0
11, 176880, Note_on_c, 10, 33, 100
11, 177120, Note_on_c, 10, 33, 0
11, 177120, Note_on_c, 10, 34, 100
11, 178080, Note_on_c, 10, 34, 0
11, 178080, Note_on_c, 10, 39, 100
11, 178140, Note_on_c, 10, 39, 0
11, 178140, Note_on_c, 10, 39, 100
11, 178200, Note_on_c, 10, 39, 0
11, 178200, Note_on_c, 10, 39, 100
11, 178260, Note_on_c, 10, 39, 0
11, 178260, Note_on_c, 10, 39, 100
11, 178320, Note_on_c, 10, 39, 0
11, 178320, Note_on_c, 10, 39, 100
11, 178380, Note_on_c, 10, 39, 0
11, 178380, Note_on_c, 10, 39, 100
11, 178440, Note_on_c, 10, 39, 0
11, 178440, Note_on_c, 10, 39, 100
11, 178500, Note_on_c, 10, 39, 0
11, 178500, Note_on_c, 10, 39, 100
11, 178560, Note_on_c, 10, 39, 0
11, 178560, Note_on_c, 10, 39, 100
11, 179100, Note_on_c, 10, 39, 0
11, 179100, Note_on_c, 10, 39, 100
11, 179160, Note_on_c, 10, 39, 0
11, 179160, Note_on_c, 10, 39, 100
11, 179220, Note_on_c, 10, 39, 0
11, 179220, Note_on_c, 10, 39, 100
11, 179280, Note_on_c, 10, 39, 0
11, 179280, Note_on_c, 10, 39, 100
11, 179340, Note_on_c, 10, 39, 0
11, 179340, Note_on_c, 10, 39, 100
11, 179400, Note_on_c, 10, 39, 0
11, 179400, Note_on_c, 10, 39, 100
11, 179460, Note_on_c, 10, 39, 0
11, 179460, Note_on_c, 10, 39, 100
11, 179520, Note_on_c, 10, 39, 0
11, 179520, Note_on_c, 10, 39, 100
11, 180120, Note_on_c, 10, 39, 0
11, 180600, Note_on_c, 10, 39, 100
11, 180660, Note_on_c, 10, 39, 0
11, 180660, Note_on_c, 10, 34, 100
11, 180720, Note_on_c, 10, 34, 0
11, 180720, Note_on_c, 10, 39, 100
11, 180780, Note_on_c, 10, 39, 0
11, 180780, Note_on_c, 10, 34, 100
11, 180840, Note_on_c, 10, 34, 0
11, 180840, Note_on_c, 10, 39, 100
11, 180900, Note_on_c, 10, 39, 0
11, 180900, Note_on_c, 10, 34, 100
11, 180960, Note_on_c, 10, 34, 0
11, 180960, Note_on_c, 10, 39, 100
11, 181200, Note_on_c, 10, 39, 0
11, 181200, Note_on_c, 10, 31, 100
11, 181320, Note_on_c, 10, 31, 0
11, 181320, Note_on_c, 10, 34, 100
11, 181440, Note_on_c, 10, 34, 0
11, 181440, Note_on_c, 10, 39, 100
11, 181560, Note_on_c, 10, 39, 0
11, 181560, Note_on_c, 10, 43, 100
11, 181680, Note_on_c, 10, 43, 0
11, 181680, Note_on_c, 10, 46, 100
11, 181800, Note_on_c, 10, 46, 0
11, 181800, Note_on_c, 10, 43, 100
11, 181920, Note_on_c, 10, 43, 0
11, 181920, Note_on_c, 10, 39, 100
11, 182040, Note_on_c, 10, 39, 0
11, 182040, Note_on_c, 10, 39, 100
11, 182160, Note_on_c, 10, 39, 0
11, 182160, Note_on_c, 10, 39, 100
11, 182280, Note_on_c, 10, 39, 0
11, 182280, Note_on_c, 10, 39, 100
11, 182400, Note_on_c, 10, 39, 0
11, 182400, Note_on_c, 10, 39, 100
11, 182520, Note_on_c, 10, 39, 0
11, 182610, Note_on_c, 10, 39, 100
11, 182640, Note_on_c, 10, 39, 0
11, 182640, Note_on_c, 10, 39, 100
11, 182760, Note_on_c, 10, 39, 0
11, 182850, Note_on_c, 10, 39, 100
11, 182880, Note_on_c, 10, 39, 0
11, 182880, Note_on_c, 10, 39, 100
11, 183120, Note_on_c, 10, 39, 0
11, 183120, End_track
12, 0, Start_track
12, 0, MIDI_port, 0
12, 0, Program_c, 9, 16
12, 0, End_track
0, 0, End_of_file
