0, 0, Header, 1, 17, 480
1, 0, Start_track
1, 0, Time_signature, 2, 2, 24, 8
1, 0, Key_signature, 0, "major"
1, 0, Tempo, 909091
1, 0, Marker_t, "Performance (c) 1995, Solstice Productions; Non-commercial copying permitted"
1, 2, Tempo, 821918
1, 968, Tempo, 967742
1, 1208, Tempo, 952381
1, 1448, Tempo, 937500
1, 1688, Tempo, 923077
1, 1920, Tempo, 909091
1, 2160, Tempo, 895522
1, 2400, Tempo, 882353
1, 2640, Tempo, 869565
1, 2872, Tempo, 857143
1, 9120, Tempo, 869565
1, 9360, Tempo, 857143
1, 9600, Tempo, 845070
1, 11528, Tempo, 821918
1, 12484, Tempo, 845070
1, 13428, Tempo, 845070
1, 13436, Tempo, 821918
1, 14408, Tempo, 845070
1, 16332, Tempo, 845070
1, 16516, Tempo, 857143
1, 16700, Tempo, 869565
1, 16884, Tempo, 882353
1, 17068, Tempo, 895522
1, 17244, Tempo, 909091
1, 17276, Tempo, 833333
1, 19204, Tempo, 833333
1, 19412, Tempo, 845070
1, 19620, Tempo, 857143
1, 19820, Tempo, 869565
1, 20028, Tempo, 882353
1, 20228, Tempo, 895522
1, 20436, Tempo, 909091
1, 20636, Tempo, 923077
1, 21120, Time_signature, 6, 3, 12, 8
1, 21174, Tempo, 458015
1, 26632, Tempo, 480000
1, 33592, Tempo, 491803
1, 33728, Tempo, 495868
1, 33864, Tempo, 500000
1, 34000, Tempo, 504202
1, 34136, Tempo, 508475
1, 34272, Tempo, 512821
1, 34408, Tempo, 517241
1, 34544, Tempo, 521739
1, 34680, Tempo, 526316
1, 34808, Tempo, 465116
1, 36964, Tempo, 468750
1, 37068, Tempo, 472441
1, 37172, Tempo, 476190
1, 37276, Tempo, 480000
1, 37372, Tempo, 483871
1, 37476, Tempo, 487805
1, 37580, Tempo, 491803
1, 37676, Tempo, 451128
1, 38392, Tempo, 487805
1, 38552, Tempo, 483871
1, 38712, Tempo, 480000
1, 38872, Tempo, 476190
1, 39032, Tempo, 472441
1, 39192, Tempo, 468750
1, 39352, Tempo, 465116
1, 39512, Tempo, 461538
1, 39672, Tempo, 458015
1, 39824, Tempo, 454545
1, 39832, Tempo, 495868
1, 39944, Tempo, 491803
1, 40056, Tempo, 487805
1, 40168, Tempo, 483871
1, 40280, Tempo, 480000
1, 40392, Tempo, 476190
1, 40504, Tempo, 472441
1, 40608, Tempo, 468750
1, 40720, Tempo, 465116
1, 40832, Tempo, 461538
1, 40944, Tempo, 458015
1, 41056, Tempo, 454545
1, 41168, Tempo, 451128
1, 41260, Tempo, 465116
1, 41500, Tempo, 461538
1, 41740, Tempo, 458015
1, 41980, Tempo, 454545
1, 42220, Tempo, 451128
1, 42460, Tempo, 447761
1, 42700, Tempo, 444444
1, 42716, Tempo, 483871
1, 42836, Tempo, 480000
1, 42956, Tempo, 476190
1, 43076, Tempo, 472441
1, 43196, Tempo, 468750
1, 43316, Tempo, 465116
1, 43436, Tempo, 461538
1, 43556, Tempo, 458015
1, 43676, Tempo, 454545
1, 43796, Tempo, 451128
1, 43908, Tempo, 447761
1, 44160, Tempo, 504202
1, 44878, Tempo, 487805
1, 45608, Tempo, 441176
1, 45616, Tempo, 487805
1, 45888, Tempo, 483871
1, 46152, Tempo, 480000
1, 46424, Tempo, 476190
1, 46688, Tempo, 472441
1, 46960, Tempo, 468750
1, 47224, Tempo, 465116
1, 47496, Tempo, 461538
1, 47760, Tempo, 458015
1, 49912, Tempo, 472441
1, 50064, Tempo, 468750
1, 50208, Tempo, 465116
1, 50352, Tempo, 461538
1, 50504, Tempo, 458015
1, 50648, Tempo, 454545
1, 50792, Tempo, 451128
1, 50944, Tempo, 447761
1, 51088, Tempo, 444444
1, 51232, Tempo, 441176
1, 51336, Tempo, 476190
1, 51488, Tempo, 480000
1, 51632, Tempo, 483871
1, 51776, Tempo, 487805
1, 51920, Tempo, 491803
1, 52064, Tempo, 495868
1, 52216, Tempo, 500000
1, 52360, Tempo, 504202
1, 52504, Tempo, 508475
1, 52648, Tempo, 512821
1, 52792, Tempo, 517241
1, 52798, Tempo, 521739
1, 52878, Tempo, 517241
1, 52950, Tempo, 512821
1, 53022, Tempo, 508475
1, 53094, Tempo, 504202
1, 53166, Tempo, 500000
1, 53246, Tempo, 495868
1, 53318, Tempo, 491803
1, 53390, Tempo, 487805
1, 53462, Tempo, 483871
1, 53534, Tempo, 480000
1, 54240, Time_signature, 2, 2, 24, 8
1, 54700, Tempo, 800000
1, 74400, Time_signature, 6, 3, 12, 8
1, 74445, Tempo, 468750
1, 81586, Tempo, 495868
1, 81794, Tempo, 491803
1, 82002, Tempo, 487805
1, 82202, Tempo, 483871
1, 82410, Tempo, 480000
1, 82610, Tempo, 476190
1, 82818, Tempo, 472441
1, 83018, Tempo, 468750
1, 83130, Tempo, 472441
1, 83234, Tempo, 476190
1, 83338, Tempo, 480000
1, 83442, Tempo, 483871
1, 83546, Tempo, 487805
1, 83650, Tempo, 491803
1, 83754, Tempo, 495868
1, 83866, Tempo, 500000
1, 83970, Tempo, 504202
1, 84074, Tempo, 508475
1, 84178, Tempo, 512821
1, 84282, Tempo, 517241
1, 84386, Tempo, 521739
1, 84482, Tempo, 517241
1, 84594, Tempo, 512821
1, 84698, Tempo, 508475
1, 84810, Tempo, 504202
1, 84914, Tempo, 500000
1, 85026, Tempo, 495868
1, 85130, Tempo, 491803
1, 85242, Tempo, 487805
1, 85346, Tempo, 483871
1, 85458, Tempo, 480000
1, 85562, Tempo, 476190
1, 85666, Tempo, 472441
1, 85674, Tempo, 566038
1, 85754, Tempo, 560748
1, 85834, Tempo, 555556
1, 85906, Tempo, 550459
1, 85986, Tempo, 545455
1, 86066, Tempo, 540541
1, 86138, Tempo, 535714
1, 86148, Tempo, 535714
1, 86252, Tempo, 530973
1, 86348, Tempo, 526316
1, 86444, Tempo, 521739
1, 86540, Tempo, 517241
1, 86636, Tempo, 512821
1, 86740, Tempo, 508475
1, 86836, Tempo, 504202
1, 86932, Tempo, 500000
1, 87028, Tempo, 495868
1, 87124, Tempo, 491803
1, 87154, Tempo, 540541
1, 87186, Tempo, 535714
1, 87252, Tempo, 535714
1, 87348, Tempo, 540541
1, 87356, Tempo, 483871
1, 87460, Tempo, 480000
1, 87564, Tempo, 476190
1, 87668, Tempo, 472441
1, 87772, Tempo, 468750
1, 87876, Tempo, 465116
1, 87980, Tempo, 461538
1, 88076, Tempo, 458015
1, 88220, Tempo, 461538
1, 88364, Tempo, 465116
1, 88500, Tempo, 468750
1, 88644, Tempo, 472441
1, 88780, Tempo, 476190
1, 88782, Tempo, 480000
1, 88878, Tempo, 483871
1, 88974, Tempo, 487805
1, 89070, Tempo, 491803
1, 89166, Tempo, 495868
1, 89262, Tempo, 500000
1, 89358, Tempo, 504202
1, 89454, Tempo, 508475
1, 89550, Tempo, 512821
1, 89646, Tempo, 517241
1, 89742, Tempo, 521739
1, 89838, Tempo, 526316
1, 89934, Tempo, 530973
1, 90030, Tempo, 535714
1, 90126, Tempo, 540541
1, 90222, Tempo, 545455
1, 90230, Tempo, 491803
1, 90238, Tempo, 461538
1, 90242, Tempo, 461538
1, 90362, Tempo, 465116
1, 90482, Tempo, 468750
1, 90602, Tempo, 472441
1, 90722, Tempo, 476190
1, 90842, Tempo, 480000
1, 90954, Tempo, 483871
1, 91074, Tempo, 487805
1, 91194, Tempo, 491803
1, 91314, Tempo, 495868
1, 91434, Tempo, 500000
1, 91554, Tempo, 504202
1, 91666, Tempo, 508475
1, 91670, Tempo, 465116
1, 92878, Tempo, 495868
1, 93038, Tempo, 491803
1, 93198, Tempo, 487805
1, 93358, Tempo, 483871
1, 93518, Tempo, 480000
1, 93670, Tempo, 476190
1, 93830, Tempo, 472441
1, 93990, Tempo, 468750
1, 94150, Tempo, 465116
1, 94302, Tempo, 461538
1, 94310, Tempo, 495868
1, 94446, Tempo, 491803
1, 94574, Tempo, 487805
1, 94710, Tempo, 483871
1, 94838, Tempo, 480000
1, 94966, Tempo, 476190
1, 95102, Tempo, 472441
1, 95230, Tempo, 468750
1, 95358, Tempo, 465116
1, 95494, Tempo, 461538
1, 95622, Tempo, 458015
1, 95748, Tempo, 487805
1, 95932, Tempo, 491803
1, 96108, Tempo, 495868
1, 96292, Tempo, 500000
1, 96468, Tempo, 504202
1, 96652, Tempo, 508475
1, 96654, Tempo, 508475
1, 96742, Tempo, 512821
1, 96830, Tempo, 517241
1, 96918, Tempo, 521739
1, 97006, Tempo, 526316
1, 97094, Tempo, 530973
1, 97182, Tempo, 535714
1, 97270, Tempo, 540541
1, 97358, Tempo, 545455
1, 97438, Tempo, 550459
1, 98380, Tempo, 468750
1, 98620, Tempo, 472441
1, 98860, Tempo, 476190
1, 99100, Tempo, 480000
1, 99340, Tempo, 483871
1, 99580, Tempo, 487805
1, 99820, Tempo, 491803
1, 100060, Tempo, 495868
1, 100300, Tempo, 500000
1, 100308, Tempo, 465116
1, 100516, Tempo, 468750
1, 100724, Tempo, 472441
1, 100924, Tempo, 476190
1, 101132, Tempo, 480000
1, 101332, Tempo, 483871
1, 101540, Tempo, 487805
1, 101740, Tempo, 491803
1, 104616, Tempo, 483871
1, 105358, Tempo, 480000
1, 105430, Tempo, 483871
1, 105502, Tempo, 487805
1, 105574, Tempo, 491803
1, 105646, Tempo, 495868
1, 105718, Tempo, 500000
1, 105790, Tempo, 504202
1, 105862, Tempo, 508475
1, 105934, Tempo, 512821
1, 106006, Tempo, 517241
1, 106078, Tempo, 521739
1, 106088, Tempo, 483871
1, 106384, Tempo, 512821
1, 106448, Tempo, 517241
1, 106504, Tempo, 521739
1, 106568, Tempo, 526316
1, 106624, Tempo, 530973
1, 106680, Tempo, 535714
1, 106744, Tempo, 540541
1, 106800, Tempo, 545455
1, 106864, Tempo, 550459
1, 106920, Tempo, 555556
1, 106976, Tempo, 560748
1, 107040, Tempo, 566038
1, 107096, Tempo, 571429
1, 107160, Tempo, 576923
1, 107216, Tempo, 582524
1, 107272, Tempo, 588235
1, 107278, Tempo, 833333
1, 107414, Tempo, 821918
1, 107520, Time_signature, 2, 2, 24, 8
1, 107550, Tempo, 810811
1, 107678, Tempo, 800000
1, 107814, Tempo, 789474
1, 107950, Tempo, 779221
1, 108078, Tempo, 769231
1, 108214, Tempo, 759494
1, 108350, Tempo, 750000
1, 108478, Tempo, 869565
1, 108558, Tempo, 857143
1, 108638, Tempo, 845070
1, 108718, Tempo, 833333
1, 108798, Tempo, 821918
1, 108878, Tempo, 810811
1, 108958, Tempo, 800000
1, 109038, Tempo, 789474
1, 109118, Tempo, 779221
1, 109198, Tempo, 769231
1, 109278, Tempo, 759494
1, 109358, Tempo, 750000
1, 109438, Tempo, 833333
1, 109542, Tempo, 821918
1, 109646, Tempo, 810811
1, 109750, Tempo, 800000
1, 109854, Tempo, 789474
1, 109958, Tempo, 779221
1, 110062, Tempo, 769231
1, 110166, Tempo, 759494
1, 110270, Tempo, 750000
1, 110366, Tempo, 740741
1, 110398, Tempo, 833333
1, 110494, Tempo, 821918
1, 110590, Tempo, 810811
1, 110686, Tempo, 800000
1, 110782, Tempo, 789474
1, 110878, Tempo, 779221
1, 110974, Tempo, 769231
1, 111070, Tempo, 759494
1, 111166, Tempo, 750000
1, 111262, Tempo, 740741
1, 111350, Tempo, 833333
1, 111366, Tempo, 833333
1, 112414, Tempo, 833333
1, 112630, Tempo, 821918
1, 112846, Tempo, 810811
1, 113062, Tempo, 800000
1, 113270, Tempo, 845070
1, 113438, Tempo, 833333
1, 113598, Tempo, 821918
1, 113758, Tempo, 810811
1, 113918, Tempo, 800000
1, 114078, Tempo, 789474
1, 114230, Tempo, 895522
1, 114326, Tempo, 882353
1, 114422, Tempo, 869565
1, 114518, Tempo, 857143
1, 114614, Tempo, 845070
1, 114710, Tempo, 833333
1, 114806, Tempo, 821918
1, 114902, Tempo, 810811
1, 114998, Tempo, 800000
1, 115094, Tempo, 789474
1, 115190, Tempo, 857143
1, 115326, Tempo, 845070
1, 115462, Tempo, 833333
1, 115598, Tempo, 821918
1, 115726, Tempo, 810811
1, 115862, Tempo, 800000
1, 115998, Tempo, 789474
1, 116126, Tempo, 779221
1, 116164, Tempo, 845070
1, 123846, Tempo, 833333
1, 123926, Tempo, 845070
1, 123998, Tempo, 857143
1, 124070, Tempo, 869565
1, 124142, Tempo, 882353
1, 124214, Tempo, 895522
1, 124286, Tempo, 909091
1, 124366, Tempo, 923077
1, 124438, Tempo, 937500
1, 124510, Tempo, 952381
1, 124582, Tempo, 967742
1, 124654, Tempo, 983607
1, 124726, Tempo, 1000000
1, 124790, Tempo, 1016949
1, 124838, Tempo, 1000000
1, 124886, Tempo, 983607
1, 124934, Tempo, 967742
1, 124982, Tempo, 952381
1, 125030, Tempo, 937500
1, 125078, Tempo, 923077
1, 125126, Tempo, 909091
1, 125174, Tempo, 895522
1, 125222, Tempo, 882353
1, 125270, Tempo, 869565
1, 125276, Tempo, 1333333
1, 125282, Tempo, 1132075
1, 125394, Tempo, 1111111
1, 125498, Tempo, 1090909
1, 125602, Tempo, 1071429
1, 125706, Tempo, 1052632
1, 125818, Tempo, 1034483
1, 125922, Tempo, 1016949
1, 126026, Tempo, 1000000
1, 126130, Tempo, 983607
1, 126234, Tempo, 967742
1, 126306, Tempo, 983607
1, 126378, Tempo, 1000000
1, 126442, Tempo, 1016949
1, 126514, Tempo, 1034483
1, 126586, Tempo, 1052632
1, 126650, Tempo, 1071429
1, 126722, Tempo, 1090909
1, 126794, Tempo, 1111111
1, 126858, Tempo, 1132075
1, 126930, Tempo, 1153846
1, 127002, Tempo, 1176471
1, 127066, Tempo, 1200000
1, 127464, Tempo, 714286
1, 127680, Time_signature, 6, 3, 12, 8
1, 127714, Tempo, 530973
1, 127720, Tempo, 495868
1, 138942, Tempo, 491803
1, 139046, Tempo, 495868
1, 139150, Tempo, 500000
1, 139254, Tempo, 504202
1, 139350, Tempo, 508475
1, 139454, Tempo, 512821
1, 139558, Tempo, 517241
1, 139662, Tempo, 521739
1, 139758, Tempo, 526316
1, 139862, Tempo, 530973
1, 139966, Tempo, 535714
1, 140070, Tempo, 540541
1, 140166, Tempo, 545455
1, 140270, Tempo, 550459
1, 140374, Tempo, 555556
1, 140478, Tempo, 560748
1, 140574, Tempo, 566038
1, 140678, Tempo, 571429
1, 140782, Tempo, 576923
1, 140878, Tempo, 582524
1, 140886, Tempo, 508475
1, 141830, Tempo, 495868
1, 142046, Tempo, 491803
1, 142262, Tempo, 487805
1, 142470, Tempo, 483871
1, 142686, Tempo, 480000
1, 142902, Tempo, 476190
1, 143110, Tempo, 472441
1, 143326, Tempo, 468750
1, 143542, Tempo, 465116
1, 143750, Tempo, 461538
1, 143766, Tempo, 508475
1, 149018, Tempo, 508475
1, 149170, Tempo, 512821
1, 149322, Tempo, 517241
1, 149474, Tempo, 521739
1, 149618, Tempo, 526316
1, 149770, Tempo, 530973
1, 149922, Tempo, 535714
1, 150066, Tempo, 540541
1, 150218, Tempo, 545455
1, 150370, Tempo, 550459
1, 150514, Tempo, 555556
1, 150666, Tempo, 560748
1, 150818, Tempo, 566038
1, 150952, Tempo, 571429
1, 151674, Tempo, 487805
1, 151914, Tempo, 483871
1, 152154, Tempo, 480000
1, 152394, Tempo, 476190
1, 157422, Tempo, 476190
1, 157526, Tempo, 480000
1, 157622, Tempo, 483871
1, 157726, Tempo, 487805
1, 157822, Tempo, 491803
1, 157918, Tempo, 495868
1, 158022, Tempo, 500000
1, 158118, Tempo, 504202
1, 158222, Tempo, 508475
1, 158318, Tempo, 512821
1, 158414, Tempo, 517241
1, 158518, Tempo, 521739
1, 158614, Tempo, 526316
1, 158718, Tempo, 530973
1, 158814, Tempo, 535714
1, 158910, Tempo, 540541
1, 159014, Tempo, 545455
1, 159110, Tempo, 550459
1, 159214, Tempo, 555556
1, 159310, Tempo, 560748
1, 159646, Tempo, 476190
1, 159686, Tempo, 480000
1, 159734, Tempo, 483871
1, 159774, Tempo, 487805
1, 159822, Tempo, 491803
1, 159862, Tempo, 495868
1, 159910, Tempo, 500000
1, 159950, Tempo, 504202
1, 159998, Tempo, 508475
1, 160038, Tempo, 512821
1, 160078, Tempo, 517241
1, 160094, Tempo, 461538
1, 160150, Tempo, 465116
1, 160206, Tempo, 468750
1, 160254, Tempo, 472441
1, 160310, Tempo, 476190
1, 160358, Tempo, 480000
1, 160414, Tempo, 483871
1, 160462, Tempo, 487805
1, 160518, Tempo, 491803
1, 160566, Tempo, 495868
1, 160622, Tempo, 500000
1, 160670, Tempo, 504202
1, 160786, Tempo, 454545
1, 160842, Tempo, 458015
1, 160898, Tempo, 461538
1, 160946, Tempo, 465116
1, 161002, Tempo, 468750
1, 161050, Tempo, 472441
1, 161106, Tempo, 476190
1, 161154, Tempo, 480000
1, 161210, Tempo, 483871
1, 161266, Tempo, 487805
1, 161314, Tempo, 491803
1, 161370, Tempo, 495868
1, 161418, Tempo, 500000
1, 161474, Tempo, 504202
1, 161522, Tempo, 447761
1, 161578, Tempo, 451128
1, 161626, Tempo, 454545
1, 161674, Tempo, 458015
1, 161722, Tempo, 461538
1, 161770, Tempo, 465116
1, 161818, Tempo, 468750
1, 161866, Tempo, 472441
1, 161922, Tempo, 476190
1, 161970, Tempo, 480000
1, 162018, Tempo, 483871
1, 162066, Tempo, 487805
1, 162114, Tempo, 491803
1, 162162, Tempo, 495868
1, 162210, Tempo, 500000
1, 162228, Tempo, 524109
1, 162240, Tempo, 483754
1, 165105, Tempo, 506286
1, 165114, Tempo, 567376
1, 165116, Tempo, 514183
1, 165172, Tempo, 518269
1, 165228, Tempo, 522375
1, 165284, Tempo, 526547
1, 165340, Tempo, 530786
1, 165388, Tempo, 535093
1, 165444, Tempo, 539520
1, 165500, Tempo, 543922
1, 165556, Tempo, 548496
1, 165604, Tempo, 553097
1, 165608, Tempo, 518448
1, 165614, Tempo, 482005
1, 165662, Tempo, 485791
1, 165702, Tempo, 489676
1, 165742, Tempo, 493583
1, 165782, Tempo, 497554
1, 165822, Tempo, 501630
1, 165870, Tempo, 505689
1, 165910, Tempo, 509901
1, 165950, Tempo, 514139
1, 165990, Tempo, 518448
1, 166030, Tempo, 522876
1, 166070, Tempo, 527333
1, 166118, Tempo, 531868
1, 166158, Tempo, 536481
1, 166198, Tempo, 541174
1, 166238, Tempo, 546001
1, 166278, Tempo, 550863
1, 166318, Tempo, 555864
1, 166334, Tempo, 474608
1, 166382, Tempo, 478278
1, 166422, Tempo, 482005
1, 166470, Tempo, 485791
1, 166510, Tempo, 489676
1, 166558, Tempo, 493583
1, 166569, Tempo, 503229
1, 166598, Tempo, 507314
1, 166646, Tempo, 511422
1, 166686, Tempo, 515597
1, 166734, Tempo, 519841
1, 166774, Tempo, 524246
1, 166822, Tempo, 528634
1, 166862, Tempo, 533144
1, 166910, Tempo, 537683
1, 166950, Tempo, 542299
1, 166998, Tempo, 546996
1, 167038, Tempo, 491441
1, 167094, Tempo, 495295
1, 167142, Tempo, 499251
1, 167190, Tempo, 503229
1, 167246, Tempo, 507314
1, 167294, Tempo, 511422
1, 167342, Tempo, 515597
1, 167398, Tempo, 519841
1, 167446, Tempo, 524246
1, 167494, Tempo, 528634
1, 167550, Tempo, 533144
1, 167598, Tempo, 537683
1, 167646, Tempo, 542299
1, 167702, Tempo, 546996
1, 167750, Tempo, 551826
1, 167798, Tempo, 556690
1, 167806, Tempo, 473000
1, 167846, Tempo, 476569
1, 167878, Tempo, 480231
1, 167918, Tempo, 483910
1, 167950, Tempo, 487607
1, 167990, Tempo, 491441
1, 167991, Tempo, 474009
1, 167996, Tempo, 451909
1, 168022, Tempo, 455512
1, 168062, Tempo, 459102
1, 168094, Tempo, 462784
1, 168134, Tempo, 466527
1, 168166, Tempo, 470330
1, 168206, Tempo, 474158
1, 168238, Tempo, 478088
1, 168243, Tempo, 510031
1, 168270, Tempo, 514271
1, 168284, Tempo, 514271
1, 168356, Tempo, 518627
1, 168428, Tempo, 523013
1, 168492, Tempo, 527473
1, 168564, Tempo, 532009
1, 168636, Tempo, 536625
1, 168700, Tempo, 497678
1, 168756, Tempo, 501714
1, 168812, Tempo, 505860
1, 168860, Tempo, 510031
1, 168916, Tempo, 514271
1, 168964, Tempo, 518627
1, 169020, Tempo, 523013
1, 169068, Tempo, 527473
1, 169124, Tempo, 532009
1, 169180, Tempo, 536625
1, 169228, Tempo, 541321
1, 169284, Tempo, 546100
1, 169332, Tempo, 551015
1, 169388, Tempo, 555967
1, 169436, Tempo, 505860
1, 169492, Tempo, 510031
1, 169548, Tempo, 514271
1, 169604, Tempo, 518627
1, 169660, Tempo, 523013
1, 169708, Tempo, 527473
1, 169764, Tempo, 532009
1, 169820, Tempo, 536625
1, 169876, Tempo, 541321
1, 169924, Tempo, 546100
1, 169980, Tempo, 551015
1, 170036, Tempo, 555967
1, 170092, Tempo, 561062
1, 170148, Tempo, 566198
1, 170196, Tempo, 571429
1, 170252, Tempo, 576757
1, 170308, Tempo, 582242
1, 170364, Tempo, 587774
1, 170412, Tempo, 593413
1, 170468, Tempo, 599161
1, 170524, Tempo, 605022
1, 170580, Tempo, 610998
1, 170628, Tempo, 617093
1, 170646, Tempo, 587774
1, 170694, Tempo, 593413
1, 170742, Tempo, 599161
1, 170790, Tempo, 605022
1, 170838, Tempo, 610998
1, 170865, Tempo, 599281
1, 170876, Tempo, 747291
1, 170880, Tempo, 1025992
1, 172317, Tempo, 1016949
1, 172317, End_track
2, 0, Start_track
2, 0, MIDI_port, 0
2, 0, Title_t, "Sequenced by David Stifel"
2, 0, End_track
3, 0, Start_track
3, 0, MIDI_port, 0
3, 0, Title_t, "dstifel@netcom.com"
3, 0, End_track
4, 0, Start_track
4, 0, MIDI_port, 0
4, 0, Title_t, "Violins 1"
4, 0, Program_c, 1, 48
4, 0, Control_c, 1, 7, 120
4, 0, Control_c, 1, 10, 16
4, 35, Control_c, 1, 91, 40
4, 40, Control_c, 1, 93, 0
4, 1920, Note_on_c, 1, 65, 74
4, 2151, Note_on_c, 1, 65, 0
4, 2400, Note_on_c, 1, 67, 80
4, 2631, Note_on_c, 1, 67, 0
4, 2880, Note_on_c, 1, 69, 85
4, 3335, Note_on_c, 1, 69, 0
4, 3840, Note_on_c, 1, 70, 96
4, 4064, Note_on_c, 1, 70, 0
4, 4320, Note_on_c, 1, 69, 92
4, 4544, Note_on_c, 1, 69, 0
4, 4800, Note_on_c, 1, 67, 88
4, 5246, Note_on_c, 1, 67, 0
4, 5760, Note_on_c, 1, 70, 80
4, 5980, Note_on_c, 1, 70, 0
4, 6240, Note_on_c, 1, 67, 81
4, 6460, Note_on_c, 1, 67, 0
4, 6720, Note_on_c, 1, 72, 84
4, 7158, Note_on_c, 1, 72, 0
4, 7680, Note_on_c, 1, 67, 73
4, 7898, Note_on_c, 1, 67, 0
4, 8160, Note_on_c, 1, 64, 69
4, 8378, Note_on_c, 1, 64, 0
4, 8640, Note_on_c, 1, 65, 65
4, 9078, Note_on_c, 1, 65, 0
4, 9360, Note_on_c, 1, 72, 60
4, 9578, Note_on_c, 1, 72, 0
4, 9600, Note_on_c, 1, 77, 65
4, 9755, Note_on_c, 1, 77, 0
4, 9840, Note_on_c, 1, 77, 65
4, 9995, Note_on_c, 1, 77, 0
4, 10080, Note_on_c, 1, 79, 65
4, 10235, Note_on_c, 1, 79, 0
4, 10320, Note_on_c, 1, 79, 65
4, 10475, Note_on_c, 1, 79, 0
4, 10560, Note_on_c, 1, 81, 66
4, 10738, Note_on_c, 1, 81, 0
4, 10740, Note_on_c, 1, 82, 66
4, 10800, Note_on_c, 1, 81, 67
4, 10810, Note_on_c, 1, 82, 0
4, 10980, Note_on_c, 1, 79, 67
4, 11014, Note_on_c, 1, 81, 0
4, 11038, Note_on_c, 1, 79, 0
4, 11040, Note_on_c, 1, 77, 67
4, 11195, Note_on_c, 1, 77, 0
4, 11280, Note_on_c, 1, 77, 67
4, 11435, Note_on_c, 1, 77, 0
4, 11520, Note_on_c, 1, 82, 68
4, 11675, Note_on_c, 1, 82, 0
4, 11760, Note_on_c, 1, 82, 68
4, 11915, Note_on_c, 1, 82, 0
4, 12000, Note_on_c, 1, 81, 68
4, 12178, Note_on_c, 1, 81, 0
4, 12180, Note_on_c, 1, 79, 68
4, 12240, Note_on_c, 1, 81, 68
4, 12250, Note_on_c, 1, 79, 0
4, 12420, Note_on_c, 1, 82, 68
4, 12454, Note_on_c, 1, 81, 0
4, 12478, Note_on_c, 1, 82, 0
4, 12480, Note_on_c, 1, 79, 68
4, 12958, Note_on_c, 1, 79, 0
4, 13200, Note_on_c, 1, 72, 68
4, 13438, Note_on_c, 1, 72, 0
4, 13440, Note_on_c, 1, 82, 72
4, 13619, Note_on_c, 1, 82, 0
4, 13680, Note_on_c, 1, 82, 74
4, 13859, Note_on_c, 1, 82, 0
4, 13920, Note_on_c, 1, 79, 76
4, 14099, Note_on_c, 1, 79, 0
4, 14160, Note_on_c, 1, 79, 77
4, 14339, Note_on_c, 1, 79, 0
4, 14400, Note_on_c, 1, 84, 75
4, 14699, Note_on_c, 1, 84, 0
4, 14760, Note_on_c, 1, 83, 73
4, 14820, Note_on_c, 1, 84, 72
4, 14830, Note_on_c, 1, 83, 0
4, 14880, Note_on_c, 1, 86, 72
4, 14890, Note_on_c, 1, 84, 0
4, 15000, Note_on_c, 1, 84, 71
4, 15022, Note_on_c, 1, 86, 0
4, 15120, Note_on_c, 1, 82, 70
4, 15142, Note_on_c, 1, 84, 0
4, 15240, Note_on_c, 1, 81, 70
4, 15262, Note_on_c, 1, 82, 0
4, 15320, Note_on_c, 1, 81, 0
4, 15360, Note_on_c, 1, 79, 72
4, 15539, Note_on_c, 1, 79, 0
4, 15600, Note_on_c, 1, 79, 71
4, 15779, Note_on_c, 1, 79, 0
4, 15840, Note_on_c, 1, 79, 70
4, 16018, Note_on_c, 1, 79, 0
4, 16020, Note_on_c, 1, 77, 69
4, 16078, Note_on_c, 1, 77, 0
4, 16080, Note_on_c, 1, 79, 69
4, 16258, Note_on_c, 1, 79, 0
4, 16260, Note_on_c, 1, 81, 68
4, 16318, Note_on_c, 1, 81, 0
4, 16320, Note_on_c, 1, 77, 68
4, 16798, Note_on_c, 1, 77, 0
4, 17040, Note_on_c, 1, 79, 65
4, 17280, Note_on_c, 1, 81, 64
4, 17307, Note_on_c, 1, 79, 0
4, 17638, Note_on_c, 1, 81, 0
4, 17640, Note_on_c, 1, 84, 64
4, 17722, Note_on_c, 1, 84, 0
4, 17760, Note_on_c, 1, 84, 65
4, 17880, Note_on_c, 1, 82, 61
4, 17899, Note_on_c, 1, 84, 0
4, 18000, Note_on_c, 1, 81, 62
4, 18019, Note_on_c, 1, 82, 0
4, 18120, Note_on_c, 1, 79, 59
4, 18139, Note_on_c, 1, 81, 0
4, 18240, Note_on_c, 1, 77, 56
4, 18259, Note_on_c, 1, 79, 0
4, 18804, Note_on_c, 1, 77, 0
4, 18960, Note_on_c, 1, 79, 69
4, 19198, Note_on_c, 1, 79, 0
4, 19200, Note_on_c, 1, 81, 64
4, 19318, Note_on_c, 1, 81, 0
4, 19320, Note_on_c, 1, 77, 64
4, 19438, Note_on_c, 1, 77, 0
4, 19440, Note_on_c, 1, 81, 63
4, 19558, Note_on_c, 1, 81, 0
4, 19560, Note_on_c, 1, 84, 62
4, 19657, Note_on_c, 1, 84, 0
4, 19680, Note_on_c, 1, 84, 62
4, 19800, Note_on_c, 1, 82, 61
4, 19810, Note_on_c, 1, 84, 0
4, 19920, Note_on_c, 1, 81, 60
4, 19930, Note_on_c, 1, 82, 0
4, 20040, Note_on_c, 1, 79, 60
4, 20050, Note_on_c, 1, 81, 0
4, 20160, Note_on_c, 1, 77, 59
4, 20170, Note_on_c, 1, 79, 0
4, 20686, Note_on_c, 1, 77, 0
4, 26640, Note_on_c, 1, 81, 64
4, 26878, Note_on_c, 1, 81, 0
4, 26880, Note_on_c, 1, 79, 64
4, 27118, Note_on_c, 1, 79, 0
4, 27120, Note_on_c, 1, 76, 64
4, 27358, Note_on_c, 1, 76, 0
4, 27360, Note_on_c, 1, 81, 64
4, 27598, Note_on_c, 1, 81, 0
4, 27600, Note_on_c, 1, 79, 64
4, 27838, Note_on_c, 1, 79, 0
4, 27840, Note_on_c, 1, 76, 64
4, 28078, Note_on_c, 1, 76, 0
4, 28080, Note_on_c, 1, 81, 64
4, 28318, Note_on_c, 1, 81, 0
4, 28320, Note_on_c, 1, 79, 64
4, 29038, Note_on_c, 1, 79, 0
4, 29040, Note_on_c, 1, 84, 64
4, 29278, Note_on_c, 1, 84, 0
4, 29520, Note_on_c, 1, 81, 64
4, 29758, Note_on_c, 1, 81, 0
4, 29760, Note_on_c, 1, 79, 64
4, 29998, Note_on_c, 1, 79, 0
4, 30000, Note_on_c, 1, 76, 64
4, 30238, Note_on_c, 1, 76, 0
4, 30240, Note_on_c, 1, 72, 64
4, 30478, Note_on_c, 1, 72, 0
4, 30480, Note_on_c, 1, 77, 64
4, 30718, Note_on_c, 1, 77, 0
4, 30720, Note_on_c, 1, 74, 64
4, 30958, Note_on_c, 1, 74, 0
4, 30960, Note_on_c, 1, 71, 64
4, 31198, Note_on_c, 1, 71, 0
4, 31200, Note_on_c, 1, 74, 64
4, 31918, Note_on_c, 1, 74, 0
4, 31920, Note_on_c, 1, 72, 64
4, 32158, Note_on_c, 1, 72, 0
4, 32400, Note_on_c, 1, 72, 64
4, 32638, Note_on_c, 1, 72, 0
4, 32640, Note_on_c, 1, 72, 64
4, 32878, Note_on_c, 1, 72, 0
4, 32880, Note_on_c, 1, 74, 64
4, 33118, Note_on_c, 1, 74, 0
4, 33120, Note_on_c, 1, 76, 64
4, 33358, Note_on_c, 1, 76, 0
4, 33360, Note_on_c, 1, 77, 64
4, 33598, Note_on_c, 1, 77, 0
4, 33600, Note_on_c, 1, 79, 64
4, 33838, Note_on_c, 1, 79, 0
4, 33840, Note_on_c, 1, 81, 64
4, 34078, Note_on_c, 1, 81, 0
4, 34080, Note_on_c, 1, 82, 64
4, 35038, Note_on_c, 1, 82, 0
4, 35280, Note_on_c, 1, 81, 64
4, 35518, Note_on_c, 1, 81, 0
4, 35520, Note_on_c, 1, 81, 64
4, 35758, Note_on_c, 1, 81, 0
4, 35760, Note_on_c, 1, 79, 64
4, 35998, Note_on_c, 1, 79, 0
4, 36000, Note_on_c, 1, 77, 64
4, 36238, Note_on_c, 1, 77, 0
4, 36240, Note_on_c, 1, 77, 64
4, 36478, Note_on_c, 1, 77, 0
4, 36480, Note_on_c, 1, 79, 64
4, 36718, Note_on_c, 1, 79, 0
4, 36720, Note_on_c, 1, 76, 64
4, 36958, Note_on_c, 1, 76, 0
4, 36960, Note_on_c, 1, 77, 64
4, 37438, Note_on_c, 1, 77, 0
4, 38160, Note_on_c, 1, 79, 64
4, 38398, Note_on_c, 1, 79, 0
4, 38400, Note_on_c, 1, 81, 64
4, 38638, Note_on_c, 1, 81, 0
4, 38640, Note_on_c, 1, 84, 64
4, 39598, Note_on_c, 1, 84, 0
4, 39600, Note_on_c, 1, 79, 64
4, 39838, Note_on_c, 1, 79, 0
4, 39840, Note_on_c, 1, 81, 64
4, 40078, Note_on_c, 1, 81, 0
4, 40080, Note_on_c, 1, 84, 64
4, 41038, Note_on_c, 1, 84, 0
4, 41040, Note_on_c, 1, 79, 64
4, 41278, Note_on_c, 1, 79, 0
4, 41280, Note_on_c, 1, 81, 64
4, 41998, Note_on_c, 1, 81, 0
4, 42000, Note_on_c, 1, 84, 64
4, 42238, Note_on_c, 1, 84, 0
4, 42480, Note_on_c, 1, 81, 64
4, 42718, Note_on_c, 1, 81, 0
4, 42720, Note_on_c, 1, 81, 64
4, 42958, Note_on_c, 1, 81, 0
4, 42960, Note_on_c, 1, 81, 64
4, 43198, Note_on_c, 1, 81, 0
4, 43200, Note_on_c, 1, 81, 64
4, 43438, Note_on_c, 1, 81, 0
4, 43440, Note_on_c, 1, 81, 64
4, 43678, Note_on_c, 1, 81, 0
4, 43680, Note_on_c, 1, 82, 64
4, 43918, Note_on_c, 1, 82, 0
4, 43920, Note_on_c, 1, 84, 64
4, 44158, Note_on_c, 1, 84, 0
4, 44160, Note_on_c, 1, 86, 64
4, 45118, Note_on_c, 1, 86, 0
4, 45120, Note_on_c, 1, 82, 64
4, 45358, Note_on_c, 1, 82, 0
4, 45360, Note_on_c, 1, 79, 64
4, 45598, Note_on_c, 1, 79, 0
4, 45600, Note_on_c, 1, 84, 64
4, 45838, Note_on_c, 1, 84, 0
4, 45840, Note_on_c, 1, 81, 64
4, 46078, Note_on_c, 1, 81, 0
4, 46080, Note_on_c, 1, 77, 64
4, 46318, Note_on_c, 1, 77, 0
4, 46320, Note_on_c, 1, 72, 64
4, 46558, Note_on_c, 1, 72, 0
4, 46560, Note_on_c, 1, 74, 64
4, 46798, Note_on_c, 1, 74, 0
4, 46800, Note_on_c, 1, 76, 64
4, 47038, Note_on_c, 1, 76, 0
4, 47040, Note_on_c, 1, 77, 64
4, 47518, Note_on_c, 1, 77, 0
4, 48720, Note_on_c, 1, 81, 64
4, 48958, Note_on_c, 1, 81, 0
4, 48960, Note_on_c, 1, 81, 64
4, 49198, Note_on_c, 1, 81, 0
4, 49200, Note_on_c, 1, 81, 64
4, 49438, Note_on_c, 1, 81, 0
4, 49440, Note_on_c, 1, 82, 64
4, 49678, Note_on_c, 1, 82, 0
4, 49680, Note_on_c, 1, 79, 64
4, 49918, Note_on_c, 1, 79, 0
4, 49920, Note_on_c, 1, 77, 64
4, 50398, Note_on_c, 1, 77, 0
4, 51600, Note_on_c, 1, 81, 64
4, 51838, Note_on_c, 1, 81, 0
4, 51840, Note_on_c, 1, 81, 64
4, 52078, Note_on_c, 1, 81, 0
4, 52080, Note_on_c, 1, 81, 64
4, 52318, Note_on_c, 1, 81, 0
4, 52320, Note_on_c, 1, 82, 64
4, 52558, Note_on_c, 1, 82, 0
4, 52560, Note_on_c, 1, 79, 64
4, 52798, Note_on_c, 1, 79, 0
4, 52800, Note_on_c, 1, 77, 64
4, 53038, Note_on_c, 1, 77, 0
4, 53040, Note_on_c, 1, 65, 64
4, 53278, Note_on_c, 1, 65, 0
4, 53280, Note_on_c, 1, 65, 64
4, 53518, Note_on_c, 1, 65, 0
4, 53520, Note_on_c, 1, 65, 64
4, 53758, Note_on_c, 1, 65, 0
4, 55200, Note_on_c, 1, 65, 74
4, 55431, Note_on_c, 1, 65, 0
4, 55680, Note_on_c, 1, 67, 80
4, 55911, Note_on_c, 1, 67, 0
4, 56160, Note_on_c, 1, 69, 85
4, 56615, Note_on_c, 1, 69, 0
4, 57120, Note_on_c, 1, 70, 96
4, 57344, Note_on_c, 1, 70, 0
4, 57600, Note_on_c, 1, 69, 92
4, 57824, Note_on_c, 1, 69, 0
4, 58080, Note_on_c, 1, 67, 88
4, 58526, Note_on_c, 1, 67, 0
4, 59040, Note_on_c, 1, 70, 80
4, 59260, Note_on_c, 1, 70, 0
4, 59520, Note_on_c, 1, 67, 81
4, 59740, Note_on_c, 1, 67, 0
4, 60000, Note_on_c, 1, 72, 84
4, 60438, Note_on_c, 1, 72, 0
4, 60960, Note_on_c, 1, 67, 73
4, 61178, Note_on_c, 1, 67, 0
4, 61440, Note_on_c, 1, 64, 69
4, 61658, Note_on_c, 1, 64, 0
4, 61920, Note_on_c, 1, 65, 65
4, 62336, Note_on_c, 1, 65, 0
4, 62640, Note_on_c, 1, 72, 60
4, 62847, Note_on_c, 1, 72, 0
4, 62880, Note_on_c, 1, 77, 65
4, 63106, Note_on_c, 1, 77, 0
4, 63120, Note_on_c, 1, 77, 65
4, 63346, Note_on_c, 1, 77, 0
4, 63360, Note_on_c, 1, 79, 65
4, 63586, Note_on_c, 1, 79, 0
4, 63600, Note_on_c, 1, 79, 65
4, 63826, Note_on_c, 1, 79, 0
4, 63840, Note_on_c, 1, 81, 66
4, 64009, Note_on_c, 1, 81, 0
4, 64020, Note_on_c, 1, 82, 66
4, 64075, Note_on_c, 1, 82, 0
4, 64080, Note_on_c, 1, 81, 67
4, 64249, Note_on_c, 1, 81, 0
4, 64260, Note_on_c, 1, 79, 67
4, 64315, Note_on_c, 1, 79, 0
4, 64320, Note_on_c, 1, 77, 67
4, 64546, Note_on_c, 1, 77, 0
4, 64560, Note_on_c, 1, 77, 67
4, 64786, Note_on_c, 1, 77, 0
4, 64800, Note_on_c, 1, 82, 68
4, 65026, Note_on_c, 1, 82, 0
4, 65040, Note_on_c, 1, 82, 68
4, 65266, Note_on_c, 1, 82, 0
4, 65280, Note_on_c, 1, 81, 68
4, 65449, Note_on_c, 1, 81, 0
4, 65460, Note_on_c, 1, 79, 68
4, 65515, Note_on_c, 1, 79, 0
4, 65520, Note_on_c, 1, 81, 68
4, 65689, Note_on_c, 1, 81, 0
4, 65700, Note_on_c, 1, 82, 68
4, 65755, Note_on_c, 1, 82, 0
4, 65760, Note_on_c, 1, 79, 68
4, 66214, Note_on_c, 1, 79, 0
4, 66480, Note_on_c, 1, 72, 68
4, 66706, Note_on_c, 1, 72, 0
4, 66720, Note_on_c, 1, 82, 72
4, 66946, Note_on_c, 1, 82, 0
4, 66960, Note_on_c, 1, 82, 74
4, 67186, Note_on_c, 1, 82, 0
4, 67200, Note_on_c, 1, 79, 76
4, 67426, Note_on_c, 1, 79, 0
4, 67440, Note_on_c, 1, 79, 77
4, 67666, Note_on_c, 1, 79, 0
4, 67680, Note_on_c, 1, 84, 75
4, 68020, Note_on_c, 1, 84, 0
4, 68040, Note_on_c, 1, 83, 73
4, 68095, Note_on_c, 1, 83, 0
4, 68100, Note_on_c, 1, 84, 72
4, 68155, Note_on_c, 1, 84, 0
4, 68160, Note_on_c, 1, 86, 72
4, 68272, Note_on_c, 1, 86, 0
4, 68280, Note_on_c, 1, 84, 71
4, 68392, Note_on_c, 1, 84, 0
4, 68400, Note_on_c, 1, 82, 70
4, 68512, Note_on_c, 1, 82, 0
4, 68520, Note_on_c, 1, 81, 70
4, 68632, Note_on_c, 1, 81, 0
4, 68640, Note_on_c, 1, 79, 72
4, 68866, Note_on_c, 1, 79, 0
4, 68880, Note_on_c, 1, 79, 71
4, 69106, Note_on_c, 1, 79, 0
4, 69120, Note_on_c, 1, 79, 70
4, 69289, Note_on_c, 1, 79, 0
4, 69300, Note_on_c, 1, 77, 69
4, 69355, Note_on_c, 1, 77, 0
4, 69360, Note_on_c, 1, 79, 69
4, 69529, Note_on_c, 1, 79, 0
4, 69540, Note_on_c, 1, 81, 68
4, 69595, Note_on_c, 1, 81, 0
4, 69600, Note_on_c, 1, 77, 68
4, 70054, Note_on_c, 1, 77, 0
4, 70320, Note_on_c, 1, 79, 65
4, 70546, Note_on_c, 1, 79, 0
4, 70560, Note_on_c, 1, 81, 64
4, 70900, Note_on_c, 1, 81, 0
4, 70920, Note_on_c, 1, 84, 64
4, 71032, Note_on_c, 1, 84, 0
4, 71040, Note_on_c, 1, 84, 65
4, 71152, Note_on_c, 1, 84, 0
4, 71160, Note_on_c, 1, 82, 65
4, 71272, Note_on_c, 1, 82, 0
4, 71280, Note_on_c, 1, 81, 65
4, 71392, Note_on_c, 1, 81, 0
4, 71400, Note_on_c, 1, 79, 66
4, 71512, Note_on_c, 1, 79, 0
4, 71520, Note_on_c, 1, 77, 67
4, 71974, Note_on_c, 1, 77, 0
4, 72240, Note_on_c, 1, 79, 69
4, 72466, Note_on_c, 1, 79, 0
4, 72480, Note_on_c, 1, 81, 64
4, 72592, Note_on_c, 1, 81, 0
4, 72600, Note_on_c, 1, 77, 64
4, 72712, Note_on_c, 1, 77, 0
4, 72720, Note_on_c, 1, 81, 63
4, 72832, Note_on_c, 1, 81, 0
4, 72840, Note_on_c, 1, 84, 62
4, 72952, Note_on_c, 1, 84, 0
4, 72960, Note_on_c, 1, 84, 62
4, 73072, Note_on_c, 1, 84, 0
4, 73080, Note_on_c, 1, 82, 61
4, 73192, Note_on_c, 1, 82, 0
4, 73200, Note_on_c, 1, 81, 60
4, 73312, Note_on_c, 1, 81, 0
4, 73320, Note_on_c, 1, 79, 60
4, 73432, Note_on_c, 1, 79, 0
4, 73440, Note_on_c, 1, 77, 59
4, 73894, Note_on_c, 1, 77, 0
4, 79920, Note_on_c, 1, 81, 64
4, 80158, Note_on_c, 1, 81, 0
4, 80160, Note_on_c, 1, 79, 64
4, 80398, Note_on_c, 1, 79, 0
4, 80400, Note_on_c, 1, 76, 64
4, 80638, Note_on_c, 1, 76, 0
4, 80640, Note_on_c, 1, 81, 64
4, 80878, Note_on_c, 1, 81, 0
4, 80880, Note_on_c, 1, 79, 64
4, 81118, Note_on_c, 1, 79, 0
4, 81120, Note_on_c, 1, 76, 64
4, 81358, Note_on_c, 1, 76, 0
4, 81360, Note_on_c, 1, 81, 64
4, 81598, Note_on_c, 1, 81, 0
4, 81600, Note_on_c, 1, 79, 64
4, 82318, Note_on_c, 1, 79, 0
4, 82320, Note_on_c, 1, 84, 64
4, 82558, Note_on_c, 1, 84, 0
4, 82800, Note_on_c, 1, 81, 64
4, 83038, Note_on_c, 1, 81, 0
4, 83040, Note_on_c, 1, 79, 64
4, 83278, Note_on_c, 1, 79, 0
4, 83280, Note_on_c, 1, 76, 64
4, 83518, Note_on_c, 1, 76, 0
4, 83520, Note_on_c, 1, 72, 64
4, 83758, Note_on_c, 1, 72, 0
4, 83760, Note_on_c, 1, 77, 64
4, 83998, Note_on_c, 1, 77, 0
4, 84000, Note_on_c, 1, 74, 64
4, 84238, Note_on_c, 1, 74, 0
4, 84240, Note_on_c, 1, 71, 64
4, 84478, Note_on_c, 1, 71, 0
4, 84480, Note_on_c, 1, 74, 64
4, 85198, Note_on_c, 1, 74, 0
4, 85200, Note_on_c, 1, 72, 64
4, 85438, Note_on_c, 1, 72, 0
4, 85680, Note_on_c, 1, 72, 64
4, 85918, Note_on_c, 1, 72, 0
4, 85920, Note_on_c, 1, 72, 64
4, 86158, Note_on_c, 1, 72, 0
4, 86160, Note_on_c, 1, 74, 64
4, 86398, Note_on_c, 1, 74, 0
4, 86400, Note_on_c, 1, 76, 64
4, 86638, Note_on_c, 1, 76, 0
4, 86640, Note_on_c, 1, 77, 64
4, 86878, Note_on_c, 1, 77, 0
4, 86880, Note_on_c, 1, 79, 64
4, 87118, Note_on_c, 1, 79, 0
4, 87120, Note_on_c, 1, 81, 64
4, 87358, Note_on_c, 1, 81, 0
4, 87360, Note_on_c, 1, 82, 64
4, 88318, Note_on_c, 1, 82, 0
4, 88560, Note_on_c, 1, 81, 64
4, 88798, Note_on_c, 1, 81, 0
4, 88800, Note_on_c, 1, 81, 64
4, 89038, Note_on_c, 1, 81, 0
4, 89040, Note_on_c, 1, 79, 64
4, 89278, Note_on_c, 1, 79, 0
4, 89280, Note_on_c, 1, 77, 64
4, 89518, Note_on_c, 1, 77, 0
4, 89520, Note_on_c, 1, 77, 64
4, 89758, Note_on_c, 1, 77, 0
4, 89760, Note_on_c, 1, 79, 64
4, 89998, Note_on_c, 1, 79, 0
4, 90000, Note_on_c, 1, 76, 64
4, 90238, Note_on_c, 1, 76, 0
4, 90240, Note_on_c, 1, 77, 64
4, 90718, Note_on_c, 1, 77, 0
4, 91440, Note_on_c, 1, 79, 64
4, 91678, Note_on_c, 1, 79, 0
4, 91680, Note_on_c, 1, 81, 64
4, 91918, Note_on_c, 1, 81, 0
4, 91920, Note_on_c, 1, 84, 64
4, 92878, Note_on_c, 1, 84, 0
4, 92880, Note_on_c, 1, 79, 64
4, 93118, Note_on_c, 1, 79, 0
4, 93120, Note_on_c, 1, 81, 64
4, 93358, Note_on_c, 1, 81, 0
4, 93360, Note_on_c, 1, 84, 64
4, 94318, Note_on_c, 1, 84, 0
4, 94320, Note_on_c, 1, 79, 64
4, 94558, Note_on_c, 1, 79, 0
4, 94560, Note_on_c, 1, 81, 64
4, 95278, Note_on_c, 1, 81, 0
4, 95280, Note_on_c, 1, 84, 64
4, 95518, Note_on_c, 1, 84, 0
4, 95760, Note_on_c, 1, 81, 64
4, 95998, Note_on_c, 1, 81, 0
4, 96000, Note_on_c, 1, 81, 64
4, 96238, Note_on_c, 1, 81, 0
4, 96240, Note_on_c, 1, 81, 64
4, 96478, Note_on_c, 1, 81, 0
4, 96480, Note_on_c, 1, 81, 64
4, 96718, Note_on_c, 1, 81, 0
4, 96720, Note_on_c, 1, 81, 64
4, 96958, Note_on_c, 1, 81, 0
4, 96960, Note_on_c, 1, 82, 64
4, 97198, Note_on_c, 1, 82, 0
4, 97200, Note_on_c, 1, 84, 64
4, 97438, Note_on_c, 1, 84, 0
4, 97440, Note_on_c, 1, 86, 64
4, 98398, Note_on_c, 1, 86, 0
4, 98400, Note_on_c, 1, 82, 64
4, 98638, Note_on_c, 1, 82, 0
4, 98640, Note_on_c, 1, 79, 64
4, 98878, Note_on_c, 1, 79, 0
4, 98880, Note_on_c, 1, 84, 64
4, 99118, Note_on_c, 1, 84, 0
4, 99120, Note_on_c, 1, 81, 64
4, 99358, Note_on_c, 1, 81, 0
4, 99360, Note_on_c, 1, 77, 64
4, 99598, Note_on_c, 1, 77, 0
4, 99600, Note_on_c, 1, 72, 64
4, 99838, Note_on_c, 1, 72, 0
4, 99840, Note_on_c, 1, 74, 64
4, 100078, Note_on_c, 1, 74, 0
4, 100080, Note_on_c, 1, 76, 64
4, 100318, Note_on_c, 1, 76, 0
4, 100320, Note_on_c, 1, 77, 64
4, 100798, Note_on_c, 1, 77, 0
4, 102000, Note_on_c, 1, 81, 64
4, 102238, Note_on_c, 1, 81, 0
4, 102240, Note_on_c, 1, 81, 64
4, 102478, Note_on_c, 1, 81, 0
4, 102480, Note_on_c, 1, 81, 64
4, 102718, Note_on_c, 1, 81, 0
4, 102720, Note_on_c, 1, 82, 64
4, 102958, Note_on_c, 1, 82, 0
4, 102960, Note_on_c, 1, 79, 64
4, 103198, Note_on_c, 1, 79, 0
4, 103200, Note_on_c, 1, 77, 64
4, 103678, Note_on_c, 1, 77, 0
4, 104880, Note_on_c, 1, 81, 64
4, 105118, Note_on_c, 1, 81, 0
4, 105120, Note_on_c, 1, 81, 64
4, 105358, Note_on_c, 1, 81, 0
4, 105360, Note_on_c, 1, 81, 64
4, 105598, Note_on_c, 1, 81, 0
4, 105600, Note_on_c, 1, 82, 64
4, 105838, Note_on_c, 1, 82, 0
4, 105840, Note_on_c, 1, 79, 64
4, 106078, Note_on_c, 1, 79, 0
4, 106080, Note_on_c, 1, 77, 64
4, 106318, Note_on_c, 1, 77, 0
4, 106320, Note_on_c, 1, 65, 64
4, 106558, Note_on_c, 1, 65, 0
4, 106560, Note_on_c, 1, 65, 64
4, 106798, Note_on_c, 1, 65, 0
4, 106800, Note_on_c, 1, 65, 64
4, 107038, Note_on_c, 1, 65, 0
4, 108480, Note_on_c, 1, 65, 74
4, 108711, Note_on_c, 1, 65, 0
4, 108960, Note_on_c, 1, 67, 80
4, 109191, Note_on_c, 1, 67, 0
4, 109440, Note_on_c, 1, 69, 85
4, 109895, Note_on_c, 1, 69, 0
4, 110400, Note_on_c, 1, 70, 96
4, 110624, Note_on_c, 1, 70, 0
4, 110880, Note_on_c, 1, 69, 92
4, 111104, Note_on_c, 1, 69, 0
4, 111360, Note_on_c, 1, 67, 88
4, 111806, Note_on_c, 1, 67, 0
4, 112320, Note_on_c, 1, 70, 80
4, 112540, Note_on_c, 1, 70, 0
4, 112800, Note_on_c, 1, 67, 81
4, 113020, Note_on_c, 1, 67, 0
4, 113280, Note_on_c, 1, 72, 84
4, 113718, Note_on_c, 1, 72, 0
4, 114240, Note_on_c, 1, 67, 73
4, 114458, Note_on_c, 1, 67, 0
4, 114720, Note_on_c, 1, 64, 69
4, 114938, Note_on_c, 1, 64, 0
4, 115200, Note_on_c, 1, 65, 65
4, 115638, Note_on_c, 1, 65, 0
4, 115920, Note_on_c, 1, 72, 60
4, 116138, Note_on_c, 1, 72, 0
4, 116160, Note_on_c, 1, 77, 65
4, 116315, Note_on_c, 1, 77, 0
4, 116400, Note_on_c, 1, 77, 65
4, 116555, Note_on_c, 1, 77, 0
4, 116640, Note_on_c, 1, 79, 65
4, 116795, Note_on_c, 1, 79, 0
4, 116880, Note_on_c, 1, 79, 65
4, 117035, Note_on_c, 1, 79, 0
4, 117120, Note_on_c, 1, 81, 66
4, 117298, Note_on_c, 1, 81, 0
4, 117300, Note_on_c, 1, 82, 66
4, 117360, Note_on_c, 1, 81, 67
4, 117370, Note_on_c, 1, 82, 0
4, 117540, Note_on_c, 1, 79, 67
4, 117574, Note_on_c, 1, 81, 0
4, 117598, Note_on_c, 1, 79, 0
4, 117600, Note_on_c, 1, 77, 67
4, 117755, Note_on_c, 1, 77, 0
4, 117840, Note_on_c, 1, 77, 67
4, 117995, Note_on_c, 1, 77, 0
4, 118080, Note_on_c, 1, 82, 68
4, 118235, Note_on_c, 1, 82, 0
4, 118320, Note_on_c, 1, 82, 68
4, 118475, Note_on_c, 1, 82, 0
4, 118560, Note_on_c, 1, 81, 68
4, 118738, Note_on_c, 1, 81, 0
4, 118740, Note_on_c, 1, 79, 68
4, 118800, Note_on_c, 1, 81, 68
4, 118810, Note_on_c, 1, 79, 0
4, 118980, Note_on_c, 1, 82, 68
4, 119014, Note_on_c, 1, 81, 0
4, 119038, Note_on_c, 1, 82, 0
4, 119040, Note_on_c, 1, 79, 68
4, 119518, Note_on_c, 1, 79, 0
4, 119760, Note_on_c, 1, 72, 68
4, 119998, Note_on_c, 1, 72, 0
4, 120000, Note_on_c, 1, 82, 72
4, 120179, Note_on_c, 1, 82, 0
4, 120240, Note_on_c, 1, 82, 74
4, 120419, Note_on_c, 1, 82, 0
4, 120480, Note_on_c, 1, 79, 76
4, 120659, Note_on_c, 1, 79, 0
4, 120720, Note_on_c, 1, 79, 77
4, 120899, Note_on_c, 1, 79, 0
4, 120960, Note_on_c, 1, 84, 75
4, 121259, Note_on_c, 1, 84, 0
4, 121320, Note_on_c, 1, 83, 73
4, 121380, Note_on_c, 1, 84, 72
4, 121390, Note_on_c, 1, 83, 0
4, 121440, Note_on_c, 1, 86, 72
4, 121450, Note_on_c, 1, 84, 0
4, 121560, Note_on_c, 1, 84, 71
4, 121582, Note_on_c, 1, 86, 0
4, 121680, Note_on_c, 1, 82, 70
4, 121702, Note_on_c, 1, 84, 0
4, 121800, Note_on_c, 1, 81, 70
4, 121822, Note_on_c, 1, 82, 0
4, 121880, Note_on_c, 1, 81, 0
4, 121920, Note_on_c, 1, 79, 72
4, 122099, Note_on_c, 1, 79, 0
4, 122160, Note_on_c, 1, 79, 71
4, 122339, Note_on_c, 1, 79, 0
4, 122400, Note_on_c, 1, 79, 70
4, 122578, Note_on_c, 1, 79, 0
4, 122580, Note_on_c, 1, 77, 69
4, 122638, Note_on_c, 1, 77, 0
4, 122640, Note_on_c, 1, 79, 69
4, 122818, Note_on_c, 1, 79, 0
4, 122820, Note_on_c, 1, 81, 68
4, 122878, Note_on_c, 1, 81, 0
4, 122880, Note_on_c, 1, 77, 68
4, 123358, Note_on_c, 1, 77, 0
4, 123600, Note_on_c, 1, 79, 65
4, 123840, Note_on_c, 1, 81, 64
4, 123867, Note_on_c, 1, 79, 0
4, 124198, Note_on_c, 1, 81, 0
4, 124200, Note_on_c, 1, 84, 64
4, 124282, Note_on_c, 1, 84, 0
4, 124320, Note_on_c, 1, 84, 65
4, 124440, Note_on_c, 1, 82, 61
4, 124459, Note_on_c, 1, 84, 0
4, 124560, Note_on_c, 1, 81, 62
4, 124579, Note_on_c, 1, 82, 0
4, 124680, Note_on_c, 1, 79, 59
4, 124699, Note_on_c, 1, 81, 0
4, 124800, Note_on_c, 1, 77, 56
4, 124819, Note_on_c, 1, 79, 0
4, 125364, Note_on_c, 1, 77, 0
4, 125520, Note_on_c, 1, 79, 69
4, 125758, Note_on_c, 1, 79, 0
4, 125760, Note_on_c, 1, 81, 64
4, 125878, Note_on_c, 1, 81, 0
4, 125880, Note_on_c, 1, 77, 64
4, 125998, Note_on_c, 1, 77, 0
4, 126000, Note_on_c, 1, 81, 63
4, 126118, Note_on_c, 1, 81, 0
4, 126120, Note_on_c, 1, 84, 62
4, 126217, Note_on_c, 1, 84, 0
4, 126240, Note_on_c, 1, 84, 62
4, 126360, Note_on_c, 1, 82, 61
4, 126370, Note_on_c, 1, 84, 0
4, 126480, Note_on_c, 1, 81, 60
4, 126490, Note_on_c, 1, 82, 0
4, 126600, Note_on_c, 1, 79, 60
4, 126610, Note_on_c, 1, 81, 0
4, 126720, Note_on_c, 1, 77, 59
4, 126730, Note_on_c, 1, 79, 0
4, 127246, Note_on_c, 1, 77, 0
4, 133200, Note_on_c, 1, 81, 64
4, 133438, Note_on_c, 1, 81, 0
4, 133440, Note_on_c, 1, 79, 64
4, 133678, Note_on_c, 1, 79, 0
4, 133680, Note_on_c, 1, 76, 64
4, 133918, Note_on_c, 1, 76, 0
4, 133920, Note_on_c, 1, 81, 64
4, 134158, Note_on_c, 1, 81, 0
4, 134160, Note_on_c, 1, 79, 64
4, 134398, Note_on_c, 1, 79, 0
4, 134400, Note_on_c, 1, 76, 64
4, 134638, Note_on_c, 1, 76, 0
4, 134640, Note_on_c, 1, 81, 64
4, 134878, Note_on_c, 1, 81, 0
4, 134880, Note_on_c, 1, 79, 64
4, 135598, Note_on_c, 1, 79, 0
4, 135600, Note_on_c, 1, 84, 64
4, 135838, Note_on_c, 1, 84, 0
4, 136080, Note_on_c, 1, 81, 64
4, 136318, Note_on_c, 1, 81, 0
4, 136320, Note_on_c, 1, 79, 64
4, 136558, Note_on_c, 1, 79, 0
4, 136560, Note_on_c, 1, 76, 64
4, 136798, Note_on_c, 1, 76, 0
4, 136800, Note_on_c, 1, 72, 64
4, 137038, Note_on_c, 1, 72, 0
4, 137040, Note_on_c, 1, 77, 64
4, 137278, Note_on_c, 1, 77, 0
4, 137280, Note_on_c, 1, 74, 64
4, 137518, Note_on_c, 1, 74, 0
4, 137520, Note_on_c, 1, 71, 64
4, 137758, Note_on_c, 1, 71, 0
4, 137760, Note_on_c, 1, 74, 64
4, 138478, Note_on_c, 1, 74, 0
4, 138480, Note_on_c, 1, 72, 64
4, 138718, Note_on_c, 1, 72, 0
4, 138960, Note_on_c, 1, 72, 64
4, 139198, Note_on_c, 1, 72, 0
4, 139200, Note_on_c, 1, 72, 64
4, 139438, Note_on_c, 1, 72, 0
4, 139440, Note_on_c, 1, 74, 64
4, 139678, Note_on_c, 1, 74, 0
4, 139680, Note_on_c, 1, 76, 64
4, 139918, Note_on_c, 1, 76, 0
4, 139920, Note_on_c, 1, 77, 64
4, 140158, Note_on_c, 1, 77, 0
4, 140160, Note_on_c, 1, 79, 64
4, 140398, Note_on_c, 1, 79, 0
4, 140400, Note_on_c, 1, 81, 64
4, 140638, Note_on_c, 1, 81, 0
4, 140640, Note_on_c, 1, 82, 64
4, 141598, Note_on_c, 1, 82, 0
4, 141840, Note_on_c, 1, 81, 64
4, 142078, Note_on_c, 1, 81, 0
4, 142080, Note_on_c, 1, 81, 64
4, 142318, Note_on_c, 1, 81, 0
4, 142320, Note_on_c, 1, 79, 64
4, 142558, Note_on_c, 1, 79, 0
4, 142560, Note_on_c, 1, 77, 64
4, 142798, Note_on_c, 1, 77, 0
4, 142800, Note_on_c, 1, 77, 64
4, 143038, Note_on_c, 1, 77, 0
4, 143040, Note_on_c, 1, 79, 64
4, 143278, Note_on_c, 1, 79, 0
4, 143280, Note_on_c, 1, 76, 64
4, 143518, Note_on_c, 1, 76, 0
4, 143520, Note_on_c, 1, 77, 64
4, 143998, Note_on_c, 1, 77, 0
4, 144720, Note_on_c, 1, 79, 64
4, 144958, Note_on_c, 1, 79, 0
4, 144960, Note_on_c, 1, 81, 64
4, 145198, Note_on_c, 1, 81, 0
4, 145200, Note_on_c, 1, 84, 64
4, 146158, Note_on_c, 1, 84, 0
4, 146160, Note_on_c, 1, 79, 64
4, 146398, Note_on_c, 1, 79, 0
4, 146400, Note_on_c, 1, 81, 64
4, 146638, Note_on_c, 1, 81, 0
4, 146640, Note_on_c, 1, 84, 64
4, 147598, Note_on_c, 1, 84, 0
4, 147600, Note_on_c, 1, 79, 64
4, 147838, Note_on_c, 1, 79, 0
4, 147840, Note_on_c, 1, 81, 64
4, 148558, Note_on_c, 1, 81, 0
4, 148560, Note_on_c, 1, 84, 64
4, 148798, Note_on_c, 1, 84, 0
4, 149040, Note_on_c, 1, 81, 64
4, 149278, Note_on_c, 1, 81, 0
4, 149280, Note_on_c, 1, 81, 64
4, 149518, Note_on_c, 1, 81, 0
4, 149520, Note_on_c, 1, 81, 64
4, 149758, Note_on_c, 1, 81, 0
4, 149760, Note_on_c, 1, 81, 64
4, 149998, Note_on_c, 1, 81, 0
4, 150000, Note_on_c, 1, 81, 64
4, 150238, Note_on_c, 1, 81, 0
4, 150240, Note_on_c, 1, 82, 64
4, 150478, Note_on_c, 1, 82, 0
4, 150480, Note_on_c, 1, 84, 64
4, 150718, Note_on_c, 1, 84, 0
4, 150720, Note_on_c, 1, 86, 64
4, 151678, Note_on_c, 1, 86, 0
4, 151680, Note_on_c, 1, 82, 64
4, 151918, Note_on_c, 1, 82, 0
4, 151920, Note_on_c, 1, 79, 64
4, 152158, Note_on_c, 1, 79, 0
4, 152160, Note_on_c, 1, 84, 64
4, 152398, Note_on_c, 1, 84, 0
4, 152400, Note_on_c, 1, 81, 64
4, 152638, Note_on_c, 1, 81, 0
4, 152640, Note_on_c, 1, 77, 64
4, 152878, Note_on_c, 1, 77, 0
4, 152880, Note_on_c, 1, 72, 64
4, 153118, Note_on_c, 1, 72, 0
4, 153120, Note_on_c, 1, 74, 64
4, 153358, Note_on_c, 1, 74, 0
4, 153360, Note_on_c, 1, 76, 64
4, 153598, Note_on_c, 1, 76, 0
4, 153600, Note_on_c, 1, 77, 64
4, 154078, Note_on_c, 1, 77, 0
4, 155280, Note_on_c, 1, 81, 64
4, 155518, Note_on_c, 1, 81, 0
4, 155520, Note_on_c, 1, 81, 64
4, 155758, Note_on_c, 1, 81, 0
4, 155760, Note_on_c, 1, 81, 64
4, 155998, Note_on_c, 1, 81, 0
4, 156000, Note_on_c, 1, 82, 64
4, 156238, Note_on_c, 1, 82, 0
4, 156240, Note_on_c, 1, 79, 64
4, 156478, Note_on_c, 1, 79, 0
4, 156480, Note_on_c, 1, 77, 64
4, 156958, Note_on_c, 1, 77, 0
4, 158160, Note_on_c, 1, 81, 64
4, 158398, Note_on_c, 1, 81, 0
4, 158400, Note_on_c, 1, 81, 64
4, 158638, Note_on_c, 1, 81, 0
4, 158640, Note_on_c, 1, 81, 64
4, 158878, Note_on_c, 1, 81, 0
4, 158880, Note_on_c, 1, 82, 64
4, 159118, Note_on_c, 1, 82, 0
4, 159120, Note_on_c, 1, 79, 64
4, 159358, Note_on_c, 1, 79, 0
4, 159360, Note_on_c, 1, 77, 64
4, 159838, Note_on_c, 1, 77, 0
4, 165600, Note_on_c, 1, 84, 75
4, 165838, Note_on_c, 1, 84, 0
4, 165840, Note_on_c, 1, 81, 74
4, 166078, Note_on_c, 1, 81, 0
4, 166080, Note_on_c, 1, 77, 74
4, 166318, Note_on_c, 1, 77, 0
4, 166320, Note_on_c, 1, 84, 73
4, 166558, Note_on_c, 1, 84, 0
4, 166560, Note_on_c, 1, 81, 72
4, 166798, Note_on_c, 1, 81, 0
4, 166800, Note_on_c, 1, 77, 72
4, 167038, Note_on_c, 1, 77, 0
4, 167040, Note_on_c, 1, 84, 71
4, 167278, Note_on_c, 1, 84, 0
4, 167280, Note_on_c, 1, 82, 70
4, 167518, Note_on_c, 1, 82, 0
4, 167520, Note_on_c, 1, 79, 69
4, 167758, Note_on_c, 1, 79, 0
4, 167760, Note_on_c, 1, 82, 69
4, 167998, Note_on_c, 1, 82, 0
4, 168000, Note_on_c, 1, 81, 68
4, 168238, Note_on_c, 1, 81, 0
4, 168480, Note_on_c, 1, 84, 67
4, 168718, Note_on_c, 1, 84, 0
4, 168720, Note_on_c, 1, 81, 66
4, 168958, Note_on_c, 1, 81, 0
4, 168960, Note_on_c, 1, 77, 65
4, 169198, Note_on_c, 1, 77, 0
4, 169200, Note_on_c, 1, 84, 65
4, 169438, Note_on_c, 1, 84, 0
4, 169440, Note_on_c, 1, 81, 64
4, 169678, Note_on_c, 1, 81, 0
4, 169680, Note_on_c, 1, 77, 64
4, 169918, Note_on_c, 1, 77, 0
4, 169920, Note_on_c, 1, 84, 64
4, 170158, Note_on_c, 1, 84, 0
4, 170160, Note_on_c, 1, 82, 64
4, 170398, Note_on_c, 1, 82, 0
4, 170400, Note_on_c, 1, 79, 64
4, 170638, Note_on_c, 1, 79, 0
4, 170640, Note_on_c, 1, 76, 64
4, 170878, Note_on_c, 1, 76, 0
4, 170880, Note_on_c, 1, 77, 64
4, 171358, Note_on_c, 1, 77, 0
4, 171358, End_track
5, 0, Start_track
5, 0, MIDI_port, 0
5, 0, Title_t, "Violins 2"
5, 0, Program_c, 2, 48
5, 0, Control_c, 2, 7, 120
5, 0, Control_c, 2, 10, 48
5, 70, Control_c, 2, 91, 40
5, 75, Control_c, 2, 93, 0
5, 1920, Note_on_c, 2, 57, 74
5, 2151, Note_on_c, 2, 57, 0
5, 2400, Note_on_c, 2, 64, 80
5, 2631, Note_on_c, 2, 64, 0
5, 2880, Note_on_c, 2, 65, 85
5, 3335, Note_on_c, 2, 65, 0
5, 3840, Note_on_c, 2, 67, 96
5, 4064, Note_on_c, 2, 67, 0
5, 4320, Note_on_c, 2, 65, 92
5, 4544, Note_on_c, 2, 65, 0
5, 4800, Note_on_c, 2, 64, 88
5, 5246, Note_on_c, 2, 64, 0
5, 5760, Note_on_c, 2, 67, 80
5, 5980, Note_on_c, 2, 67, 0
5, 6240, Note_on_c, 2, 64, 81
5, 6460, Note_on_c, 2, 64, 0
5, 6720, Note_on_c, 2, 65, 84
5, 7158, Note_on_c, 2, 65, 0
5, 7680, Note_on_c, 2, 62, 73
5, 7898, Note_on_c, 2, 62, 0
5, 8160, Note_on_c, 2, 58, 69
5, 8378, Note_on_c, 2, 58, 0
5, 8640, Note_on_c, 2, 57, 69
5, 9078, Note_on_c, 2, 57, 0
5, 9360, Note_on_c, 2, 60, 70
5, 9457, Note_on_c, 2, 60, 0
5, 9480, Note_on_c, 2, 58, 78
5, 9573, Note_on_c, 2, 58, 0
5, 9600, Note_on_c, 2, 57, 69
5, 9720, Note_on_c, 2, 60, 73
5, 9732, Note_on_c, 2, 57, 0
5, 9840, Note_on_c, 2, 65, 77
5, 9850, Note_on_c, 2, 60, 0
5, 9960, Note_on_c, 2, 60, 69
5, 9966, Note_on_c, 2, 65, 0
5, 10067, Note_on_c, 2, 60, 0
5, 10080, Note_on_c, 2, 58, 69
5, 10200, Note_on_c, 2, 60, 73
5, 10206, Note_on_c, 2, 58, 0
5, 10320, Note_on_c, 2, 64, 79
5, 10333, Note_on_c, 2, 60, 0
5, 10440, Note_on_c, 2, 60, 77
5, 10449, Note_on_c, 2, 64, 0
5, 10547, Note_on_c, 2, 60, 0
5, 10560, Note_on_c, 2, 57, 70
5, 10680, Note_on_c, 2, 60, 76
5, 10686, Note_on_c, 2, 57, 0
5, 10800, Note_on_c, 2, 65, 84
5, 10807, Note_on_c, 2, 60, 0
5, 10920, Note_on_c, 2, 60, 77
5, 10928, Note_on_c, 2, 65, 0
5, 11024, Note_on_c, 2, 60, 0
5, 11040, Note_on_c, 2, 57, 77
5, 11160, Note_on_c, 2, 60, 78
5, 11164, Note_on_c, 2, 57, 0
5, 11280, Note_on_c, 2, 65, 86
5, 11284, Note_on_c, 2, 60, 0
5, 11400, Note_on_c, 2, 60, 79
5, 11406, Note_on_c, 2, 65, 0
5, 11512, Note_on_c, 2, 60, 0
5, 11520, Note_on_c, 2, 55, 73
5, 11638, Note_on_c, 2, 55, 0
5, 11640, Note_on_c, 2, 60, 76
5, 11758, Note_on_c, 2, 60, 0
5, 11760, Note_on_c, 2, 67, 76
5, 11878, Note_on_c, 2, 67, 0
5, 11880, Note_on_c, 2, 60, 77
5, 11998, Note_on_c, 2, 60, 0
5, 12000, Note_on_c, 2, 65, 78
5, 12118, Note_on_c, 2, 65, 0
5, 12120, Note_on_c, 2, 60, 78
5, 12238, Note_on_c, 2, 60, 0
5, 12240, Note_on_c, 2, 65, 79
5, 12358, Note_on_c, 2, 65, 0
5, 12360, Note_on_c, 2, 60, 81
5, 12478, Note_on_c, 2, 60, 0
5, 12480, Note_on_c, 2, 64, 81
5, 12598, Note_on_c, 2, 64, 0
5, 12600, Note_on_c, 2, 60, 86
5, 12720, Note_on_c, 2, 64, 90
5, 12730, Note_on_c, 2, 60, 0
5, 12840, Note_on_c, 2, 67, 96
5, 12850, Note_on_c, 2, 64, 0
5, 12960, Note_on_c, 2, 72, 101
5, 12970, Note_on_c, 2, 67, 0
5, 13080, Note_on_c, 2, 67, 106
5, 13090, Note_on_c, 2, 72, 0
5, 13200, Note_on_c, 2, 64, 96
5, 13210, Note_on_c, 2, 67, 0
5, 13320, Note_on_c, 2, 67, 91
5, 13330, Note_on_c, 2, 64, 0
5, 13440, Note_on_c, 2, 64, 78
5, 13450, Note_on_c, 2, 67, 0
5, 13560, Note_on_c, 2, 55, 79
5, 13570, Note_on_c, 2, 64, 0
5, 13680, Note_on_c, 2, 60, 80
5, 13690, Note_on_c, 2, 55, 0
5, 13800, Note_on_c, 2, 67, 80
5, 13810, Note_on_c, 2, 60, 0
5, 13920, Note_on_c, 2, 64, 83
5, 13930, Note_on_c, 2, 67, 0
5, 14040, Note_on_c, 2, 60, 83
5, 14050, Note_on_c, 2, 64, 0
5, 14160, Note_on_c, 2, 64, 85
5, 14170, Note_on_c, 2, 60, 0
5, 14280, Note_on_c, 2, 67, 87
5, 14290, Note_on_c, 2, 64, 0
5, 14400, Note_on_c, 2, 65, 84
5, 14410, Note_on_c, 2, 67, 0
5, 14520, Note_on_c, 2, 60, 87
5, 14530, Note_on_c, 2, 65, 0
5, 14640, Note_on_c, 2, 57, 90
5, 14650, Note_on_c, 2, 60, 0
5, 14760, Note_on_c, 2, 60, 92
5, 14770, Note_on_c, 2, 57, 0
5, 14880, Note_on_c, 2, 57, 94
5, 14890, Note_on_c, 2, 60, 0
5, 15000, Note_on_c, 2, 60, 95
5, 15010, Note_on_c, 2, 57, 0
5, 15120, Note_on_c, 2, 65, 96
5, 15130, Note_on_c, 2, 60, 0
5, 15240, Note_on_c, 2, 60, 99
5, 15250, Note_on_c, 2, 65, 0
5, 15360, Note_on_c, 2, 62, 92
5, 15370, Note_on_c, 2, 60, 0
5, 15480, Note_on_c, 2, 65, 97
5, 15490, Note_on_c, 2, 62, 0
5, 15600, Note_on_c, 2, 67, 97
5, 15610, Note_on_c, 2, 65, 0
5, 15720, Note_on_c, 2, 65, 100
5, 15730, Note_on_c, 2, 67, 0
5, 15840, Note_on_c, 2, 64, 100
5, 15850, Note_on_c, 2, 65, 0
5, 15960, Note_on_c, 2, 60, 82
5, 15970, Note_on_c, 2, 64, 0
5, 16080, Note_on_c, 2, 58, 79
5, 16089, Note_on_c, 2, 60, 0
5, 16200, Note_on_c, 2, 60, 79
5, 16211, Note_on_c, 2, 58, 0
5, 16320, Note_on_c, 2, 57, 95
5, 16338, Note_on_c, 2, 60, 0
5, 16422, Note_on_c, 2, 57, 0
5, 16440, Note_on_c, 2, 60, 99
5, 16560, Note_on_c, 2, 65, 105
5, 16576, Note_on_c, 2, 60, 0
5, 16680, Note_on_c, 2, 69, 112
5, 16696, Note_on_c, 2, 65, 0
5, 16800, Note_on_c, 2, 70, 117
5, 16816, Note_on_c, 2, 69, 0
5, 16920, Note_on_c, 2, 67, 92
5, 16936, Note_on_c, 2, 70, 0
5, 17040, Note_on_c, 2, 64, 94
5, 17056, Note_on_c, 2, 67, 0
5, 17160, Note_on_c, 2, 58, 95
5, 17176, Note_on_c, 2, 64, 0
5, 17276, Note_on_c, 2, 58, 0
5, 17280, Note_on_c, 2, 57, 94
5, 17398, Note_on_c, 2, 57, 0
5, 17400, Note_on_c, 2, 60, 96
5, 17518, Note_on_c, 2, 60, 0
5, 17520, Note_on_c, 2, 65, 97
5, 17638, Note_on_c, 2, 65, 0
5, 17640, Note_on_c, 2, 69, 98
5, 17732, Note_on_c, 2, 69, 0
5, 17760, Note_on_c, 2, 69, 103
5, 17878, Note_on_c, 2, 69, 0
5, 17880, Note_on_c, 2, 67, 86
5, 17998, Note_on_c, 2, 67, 0
5, 18000, Note_on_c, 2, 65, 85
5, 18118, Note_on_c, 2, 65, 0
5, 18120, Note_on_c, 2, 64, 87
5, 18238, Note_on_c, 2, 64, 0
5, 18240, Note_on_c, 2, 65, 76
5, 18358, Note_on_c, 2, 65, 0
5, 18360, Note_on_c, 2, 60, 75
5, 18480, Note_on_c, 2, 65, 92
5, 18490, Note_on_c, 2, 60, 0
5, 18600, Note_on_c, 2, 69, 114
5, 18610, Note_on_c, 2, 65, 0
5, 18720, Note_on_c, 2, 70, 125
5, 18730, Note_on_c, 2, 69, 0
5, 18840, Note_on_c, 2, 67, 97
5, 18850, Note_on_c, 2, 70, 0
5, 18960, Note_on_c, 2, 64, 85
5, 18970, Note_on_c, 2, 67, 0
5, 19080, Note_on_c, 2, 58, 77
5, 19090, Note_on_c, 2, 64, 0
5, 19200, Note_on_c, 2, 57, 71
5, 19210, Note_on_c, 2, 58, 0
5, 19318, Note_on_c, 2, 57, 0
5, 19320, Note_on_c, 2, 60, 76
5, 19438, Note_on_c, 2, 60, 0
5, 19440, Note_on_c, 2, 65, 80
5, 19558, Note_on_c, 2, 65, 0
5, 19560, Note_on_c, 2, 69, 84
5, 19651, Note_on_c, 2, 69, 0
5, 19680, Note_on_c, 2, 69, 89
5, 19800, Note_on_c, 2, 67, 84
5, 19810, Note_on_c, 2, 69, 0
5, 19920, Note_on_c, 2, 65, 77
5, 19930, Note_on_c, 2, 67, 0
5, 20040, Note_on_c, 2, 64, 71
5, 20050, Note_on_c, 2, 65, 0
5, 20160, Note_on_c, 2, 65, 66
5, 20187, Note_on_c, 2, 64, 0
5, 20686, Note_on_c, 2, 65, 0
5, 26640, Note_on_c, 2, 65, 64
5, 26878, Note_on_c, 2, 65, 0
5, 26880, Note_on_c, 2, 64, 64
5, 27118, Note_on_c, 2, 64, 0
5, 27120, Note_on_c, 2, 60, 64
5, 27358, Note_on_c, 2, 60, 0
5, 27360, Note_on_c, 2, 65, 64
5, 27598, Note_on_c, 2, 65, 0
5, 27600, Note_on_c, 2, 64, 64
5, 27838, Note_on_c, 2, 64, 0
5, 27840, Note_on_c, 2, 60, 64
5, 28078, Note_on_c, 2, 60, 0
5, 28080, Note_on_c, 2, 65, 64
5, 28318, Note_on_c, 2, 65, 0
5, 28320, Note_on_c, 2, 64, 64
5, 28558, Note_on_c, 2, 64, 0
5, 28560, Note_on_c, 2, 64, 64
5, 28798, Note_on_c, 2, 64, 0
5, 28800, Note_on_c, 2, 64, 64
5, 29038, Note_on_c, 2, 64, 0
5, 29040, Note_on_c, 2, 64, 64
5, 29278, Note_on_c, 2, 64, 0
5, 29520, Note_on_c, 2, 65, 64
5, 29758, Note_on_c, 2, 65, 0
5, 29760, Note_on_c, 2, 64, 64
5, 29998, Note_on_c, 2, 64, 0
5, 30000, Note_on_c, 2, 60, 64
5, 30238, Note_on_c, 2, 60, 0
5, 30240, Note_on_c, 2, 64, 64
5, 30478, Note_on_c, 2, 64, 0
5, 30480, Note_on_c, 2, 62, 64
5, 30718, Note_on_c, 2, 62, 0
5, 30720, Note_on_c, 2, 59, 64
5, 30958, Note_on_c, 2, 59, 0
5, 30960, Note_on_c, 2, 62, 64
5, 31198, Note_on_c, 2, 62, 0
5, 31200, Note_on_c, 2, 65, 64
5, 31918, Note_on_c, 2, 65, 0
5, 31920, Note_on_c, 2, 64, 64
5, 32158, Note_on_c, 2, 64, 0
5, 32400, Note_on_c, 2, 60, 64
5, 32638, Note_on_c, 2, 60, 0
5, 32640, Note_on_c, 2, 60, 64
5, 32878, Note_on_c, 2, 60, 0
5, 32880, Note_on_c, 2, 62, 64
5, 33118, Note_on_c, 2, 62, 0
5, 33120, Note_on_c, 2, 64, 64
5, 33358, Note_on_c, 2, 64, 0
5, 33360, Note_on_c, 2, 65, 64
5, 33598, Note_on_c, 2, 65, 0
5, 33600, Note_on_c, 2, 67, 64
5, 33838, Note_on_c, 2, 67, 0
5, 33840, Note_on_c, 2, 69, 64
5, 34078, Note_on_c, 2, 69, 0
5, 34080, Note_on_c, 2, 70, 64
5, 35038, Note_on_c, 2, 70, 0
5, 35280, Note_on_c, 2, 69, 64
5, 35518, Note_on_c, 2, 69, 0
5, 35520, Note_on_c, 2, 69, 64
5, 35758, Note_on_c, 2, 69, 0
5, 35760, Note_on_c, 2, 67, 64
5, 35998, Note_on_c, 2, 67, 0
5, 36000, Note_on_c, 2, 65, 64
5, 36238, Note_on_c, 2, 65, 0
5, 36240, Note_on_c, 2, 65, 64
5, 36478, Note_on_c, 2, 65, 0
5, 36480, Note_on_c, 2, 67, 64
5, 36718, Note_on_c, 2, 67, 0
5, 36720, Note_on_c, 2, 64, 64
5, 36958, Note_on_c, 2, 64, 0
5, 36960, Note_on_c, 2, 65, 64
5, 37438, Note_on_c, 2, 65, 0
5, 38160, Note_on_c, 2, 67, 64
5, 38398, Note_on_c, 2, 67, 0
5, 38400, Note_on_c, 2, 69, 64
5, 38638, Note_on_c, 2, 69, 0
5, 38640, Note_on_c, 2, 72, 64
5, 39598, Note_on_c, 2, 72, 0
5, 39600, Note_on_c, 2, 67, 64
5, 39838, Note_on_c, 2, 67, 0
5, 39840, Note_on_c, 2, 69, 64
5, 40078, Note_on_c, 2, 69, 0
5, 40080, Note_on_c, 2, 72, 64
5, 41038, Note_on_c, 2, 72, 0
5, 41040, Note_on_c, 2, 67, 64
5, 41278, Note_on_c, 2, 67, 0
5, 41280, Note_on_c, 2, 69, 64
5, 41998, Note_on_c, 2, 69, 0
5, 42000, Note_on_c, 2, 72, 64
5, 42238, Note_on_c, 2, 72, 0
5, 42480, Note_on_c, 2, 69, 64
5, 42718, Note_on_c, 2, 69, 0
5, 42720, Note_on_c, 2, 69, 64
5, 42958, Note_on_c, 2, 69, 0
5, 42960, Note_on_c, 2, 69, 64
5, 43198, Note_on_c, 2, 69, 0
5, 43200, Note_on_c, 2, 69, 64
5, 43438, Note_on_c, 2, 69, 0
5, 43440, Note_on_c, 2, 69, 64
5, 43678, Note_on_c, 2, 69, 0
5, 43680, Note_on_c, 2, 70, 64
5, 43918, Note_on_c, 2, 70, 0
5, 43920, Note_on_c, 2, 72, 64
5, 44158, Note_on_c, 2, 72, 0
5, 44160, Note_on_c, 2, 74, 64
5, 45118, Note_on_c, 2, 74, 0
5, 45120, Note_on_c, 2, 70, 64
5, 45358, Note_on_c, 2, 70, 0
5, 45360, Note_on_c, 2, 67, 64
5, 45598, Note_on_c, 2, 67, 0
5, 45600, Note_on_c, 2, 72, 64
5, 45838, Note_on_c, 2, 72, 0
5, 45840, Note_on_c, 2, 69, 64
5, 46078, Note_on_c, 2, 69, 0
5, 46080, Note_on_c, 2, 65, 64
5, 46318, Note_on_c, 2, 65, 0
5, 46320, Note_on_c, 2, 60, 64
5, 46558, Note_on_c, 2, 60, 0
5, 46560, Note_on_c, 2, 62, 64
5, 46798, Note_on_c, 2, 62, 0
5, 46800, Note_on_c, 2, 64, 64
5, 47038, Note_on_c, 2, 64, 0
5, 47040, Note_on_c, 2, 65, 64
5, 47518, Note_on_c, 2, 65, 0
5, 48720, Note_on_c, 2, 69, 64
5, 48958, Note_on_c, 2, 69, 0
5, 48960, Note_on_c, 2, 69, 64
5, 49198, Note_on_c, 2, 69, 0
5, 49200, Note_on_c, 2, 69, 64
5, 49438, Note_on_c, 2, 69, 0
5, 49440, Note_on_c, 2, 70, 64
5, 49678, Note_on_c, 2, 70, 0
5, 49680, Note_on_c, 2, 67, 64
5, 49918, Note_on_c, 2, 67, 0
5, 49920, Note_on_c, 2, 65, 64
5, 50398, Note_on_c, 2, 65, 0
5, 51600, Note_on_c, 2, 69, 64
5, 51838, Note_on_c, 2, 69, 0
5, 51840, Note_on_c, 2, 69, 64
5, 52078, Note_on_c, 2, 69, 0
5, 52080, Note_on_c, 2, 69, 64
5, 52318, Note_on_c, 2, 69, 0
5, 52320, Note_on_c, 2, 70, 64
5, 52558, Note_on_c, 2, 70, 0
5, 52560, Note_on_c, 2, 67, 64
5, 52798, Note_on_c, 2, 67, 0
5, 52800, Note_on_c, 2, 65, 64
5, 53038, Note_on_c, 2, 65, 0
5, 53040, Note_on_c, 2, 53, 64
5, 53278, Note_on_c, 2, 53, 0
5, 53280, Note_on_c, 2, 53, 64
5, 53518, Note_on_c, 2, 53, 0
5, 53520, Note_on_c, 2, 53, 64
5, 53758, Note_on_c, 2, 53, 0
5, 55200, Note_on_c, 2, 57, 64
5, 55438, Note_on_c, 2, 57, 0
5, 55680, Note_on_c, 2, 64, 64
5, 55918, Note_on_c, 2, 64, 0
5, 56160, Note_on_c, 2, 65, 64
5, 56638, Note_on_c, 2, 65, 0
5, 57120, Note_on_c, 2, 67, 64
5, 57358, Note_on_c, 2, 67, 0
5, 57600, Note_on_c, 2, 65, 64
5, 57838, Note_on_c, 2, 65, 0
5, 58080, Note_on_c, 2, 64, 64
5, 58558, Note_on_c, 2, 64, 0
5, 59040, Note_on_c, 2, 67, 64
5, 59278, Note_on_c, 2, 67, 0
5, 59520, Note_on_c, 2, 64, 64
5, 59758, Note_on_c, 2, 64, 0
5, 60000, Note_on_c, 2, 65, 64
5, 60478, Note_on_c, 2, 65, 0
5, 60960, Note_on_c, 2, 62, 64
5, 61198, Note_on_c, 2, 62, 0
5, 61440, Note_on_c, 2, 58, 64
5, 61678, Note_on_c, 2, 58, 0
5, 61920, Note_on_c, 2, 57, 64
5, 62398, Note_on_c, 2, 57, 0
5, 62640, Note_on_c, 2, 60, 64
5, 62758, Note_on_c, 2, 60, 0
5, 62760, Note_on_c, 2, 58, 64
5, 62878, Note_on_c, 2, 58, 0
5, 62880, Note_on_c, 2, 57, 64
5, 62998, Note_on_c, 2, 57, 0
5, 63000, Note_on_c, 2, 60, 64
5, 63118, Note_on_c, 2, 60, 0
5, 63120, Note_on_c, 2, 65, 64
5, 63238, Note_on_c, 2, 65, 0
5, 63240, Note_on_c, 2, 60, 64
5, 63358, Note_on_c, 2, 60, 0
5, 63360, Note_on_c, 2, 58, 64
5, 63478, Note_on_c, 2, 58, 0
5, 63480, Note_on_c, 2, 60, 64
5, 63598, Note_on_c, 2, 60, 0
5, 63600, Note_on_c, 2, 64, 64
5, 63718, Note_on_c, 2, 64, 0
5, 63720, Note_on_c, 2, 60, 64
5, 63838, Note_on_c, 2, 60, 0
5, 63840, Note_on_c, 2, 57, 64
5, 63958, Note_on_c, 2, 57, 0
5, 63960, Note_on_c, 2, 60, 64
5, 64078, Note_on_c, 2, 60, 0
5, 64080, Note_on_c, 2, 65, 64
5, 64198, Note_on_c, 2, 65, 0
5, 64200, Note_on_c, 2, 60, 64
5, 64318, Note_on_c, 2, 60, 0
5, 64320, Note_on_c, 2, 57, 64
5, 64438, Note_on_c, 2, 57, 0
5, 64440, Note_on_c, 2, 60, 64
5, 64558, Note_on_c, 2, 60, 0
5, 64560, Note_on_c, 2, 65, 64
5, 64678, Note_on_c, 2, 65, 0
5, 64680, Note_on_c, 2, 60, 64
5, 64798, Note_on_c, 2, 60, 0
5, 64800, Note_on_c, 2, 55, 64
5, 64918, Note_on_c, 2, 55, 0
5, 64920, Note_on_c, 2, 60, 64
5, 65038, Note_on_c, 2, 60, 0
5, 65040, Note_on_c, 2, 67, 64
5, 65158, Note_on_c, 2, 67, 0
5, 65160, Note_on_c, 2, 60, 64
5, 65278, Note_on_c, 2, 60, 0
5, 65280, Note_on_c, 2, 65, 64
5, 65398, Note_on_c, 2, 65, 0
5, 65400, Note_on_c, 2, 60, 64
5, 65518, Note_on_c, 2, 60, 0
5, 65520, Note_on_c, 2, 65, 64
5, 65638, Note_on_c, 2, 65, 0
5, 65640, Note_on_c, 2, 60, 64
5, 65758, Note_on_c, 2, 60, 0
5, 65760, Note_on_c, 2, 64, 64
5, 65878, Note_on_c, 2, 64, 0
5, 65880, Note_on_c, 2, 60, 64
5, 65998, Note_on_c, 2, 60, 0
5, 66000, Note_on_c, 2, 64, 64
5, 66118, Note_on_c, 2, 64, 0
5, 66120, Note_on_c, 2, 67, 64
5, 66238, Note_on_c, 2, 67, 0
5, 66240, Note_on_c, 2, 72, 64
5, 66358, Note_on_c, 2, 72, 0
5, 66360, Note_on_c, 2, 67, 64
5, 66478, Note_on_c, 2, 67, 0
5, 66480, Note_on_c, 2, 64, 64
5, 66598, Note_on_c, 2, 64, 0
5, 66600, Note_on_c, 2, 67, 64
5, 66718, Note_on_c, 2, 67, 0
5, 66720, Note_on_c, 2, 64, 64
5, 66838, Note_on_c, 2, 64, 0
5, 66840, Note_on_c, 2, 55, 64
5, 66958, Note_on_c, 2, 55, 0
5, 66960, Note_on_c, 2, 60, 64
5, 67078, Note_on_c, 2, 60, 0
5, 67080, Note_on_c, 2, 67, 64
5, 67198, Note_on_c, 2, 67, 0
5, 67200, Note_on_c, 2, 64, 64
5, 67318, Note_on_c, 2, 64, 0
5, 67320, Note_on_c, 2, 60, 64
5, 67438, Note_on_c, 2, 60, 0
5, 67440, Note_on_c, 2, 64, 64
5, 67558, Note_on_c, 2, 64, 0
5, 67560, Note_on_c, 2, 67, 64
5, 67678, Note_on_c, 2, 67, 0
5, 67680, Note_on_c, 2, 65, 64
5, 67798, Note_on_c, 2, 65, 0
5, 67800, Note_on_c, 2, 60, 64
5, 67918, Note_on_c, 2, 60, 0
5, 67920, Note_on_c, 2, 57, 64
5, 68038, Note_on_c, 2, 57, 0
5, 68040, Note_on_c, 2, 60, 64
5, 68158, Note_on_c, 2, 60, 0
5, 68160, Note_on_c, 2, 57, 64
5, 68278, Note_on_c, 2, 57, 0
5, 68280, Note_on_c, 2, 60, 64
5, 68398, Note_on_c, 2, 60, 0
5, 68400, Note_on_c, 2, 65, 64
5, 68518, Note_on_c, 2, 65, 0
5, 68520, Note_on_c, 2, 60, 64
5, 68638, Note_on_c, 2, 60, 0
5, 68640, Note_on_c, 2, 62, 64
5, 68758, Note_on_c, 2, 62, 0
5, 68760, Note_on_c, 2, 65, 64
5, 68878, Note_on_c, 2, 65, 0
5, 68880, Note_on_c, 2, 67, 64
5, 68998, Note_on_c, 2, 67, 0
5, 69000, Note_on_c, 2, 65, 64
5, 69118, Note_on_c, 2, 65, 0
5, 69120, Note_on_c, 2, 64, 64
5, 69238, Note_on_c, 2, 64, 0
5, 69240, Note_on_c, 2, 60, 64
5, 69358, Note_on_c, 2, 60, 0
5, 69360, Note_on_c, 2, 58, 64
5, 69478, Note_on_c, 2, 58, 0
5, 69480, Note_on_c, 2, 60, 64
5, 69598, Note_on_c, 2, 60, 0
5, 69600, Note_on_c, 2, 57, 64
5, 69718, Note_on_c, 2, 57, 0
5, 69720, Note_on_c, 2, 60, 64
5, 69838, Note_on_c, 2, 60, 0
5, 69840, Note_on_c, 2, 65, 64
5, 69958, Note_on_c, 2, 65, 0
5, 69960, Note_on_c, 2, 69, 64
5, 70078, Note_on_c, 2, 69, 0
5, 70080, Note_on_c, 2, 70, 64
5, 70198, Note_on_c, 2, 70, 0
5, 70200, Note_on_c, 2, 67, 64
5, 70318, Note_on_c, 2, 67, 0
5, 70320, Note_on_c, 2, 64, 64
5, 70438, Note_on_c, 2, 64, 0
5, 70440, Note_on_c, 2, 58, 64
5, 70558, Note_on_c, 2, 58, 0
5, 70560, Note_on_c, 2, 57, 64
5, 70678, Note_on_c, 2, 57, 0
5, 70680, Note_on_c, 2, 60, 64
5, 70798, Note_on_c, 2, 60, 0
5, 70800, Note_on_c, 2, 65, 64
5, 70918, Note_on_c, 2, 65, 0
5, 70920, Note_on_c, 2, 69, 64
5, 71038, Note_on_c, 2, 69, 0
5, 71040, Note_on_c, 2, 69, 64
5, 71158, Note_on_c, 2, 69, 0
5, 71160, Note_on_c, 2, 67, 64
5, 71278, Note_on_c, 2, 67, 0
5, 71280, Note_on_c, 2, 65, 64
5, 71398, Note_on_c, 2, 65, 0
5, 71400, Note_on_c, 2, 64, 64
5, 71518, Note_on_c, 2, 64, 0
5, 71520, Note_on_c, 2, 65, 64
5, 71638, Note_on_c, 2, 65, 0
5, 71640, Note_on_c, 2, 60, 64
5, 71758, Note_on_c, 2, 60, 0
5, 71760, Note_on_c, 2, 65, 64
5, 71878, Note_on_c, 2, 65, 0
5, 71880, Note_on_c, 2, 69, 64
5, 71998, Note_on_c, 2, 69, 0
5, 72000, Note_on_c, 2, 70, 64
5, 72118, Note_on_c, 2, 70, 0
5, 72120, Note_on_c, 2, 67, 64
5, 72238, Note_on_c, 2, 67, 0
5, 72240, Note_on_c, 2, 64, 64
5, 72358, Note_on_c, 2, 64, 0
5, 72360, Note_on_c, 2, 58, 64
5, 72478, Note_on_c, 2, 58, 0
5, 72480, Note_on_c, 2, 57, 64
5, 72598, Note_on_c, 2, 57, 0
5, 72600, Note_on_c, 2, 60, 64
5, 72718, Note_on_c, 2, 60, 0
5, 72720, Note_on_c, 2, 65, 64
5, 72838, Note_on_c, 2, 65, 0
5, 72840, Note_on_c, 2, 69, 64
5, 72958, Note_on_c, 2, 69, 0
5, 72960, Note_on_c, 2, 69, 64
5, 73078, Note_on_c, 2, 69, 0
5, 73080, Note_on_c, 2, 67, 64
5, 73198, Note_on_c, 2, 67, 0
5, 73200, Note_on_c, 2, 65, 64
5, 73318, Note_on_c, 2, 65, 0
5, 73320, Note_on_c, 2, 64, 64
5, 73438, Note_on_c, 2, 64, 0
5, 73440, Note_on_c, 2, 65, 64
5, 73918, Note_on_c, 2, 65, 0
5, 79920, Note_on_c, 2, 65, 64
5, 80158, Note_on_c, 2, 65, 0
5, 80160, Note_on_c, 2, 64, 64
5, 80398, Note_on_c, 2, 64, 0
5, 80400, Note_on_c, 2, 60, 64
5, 80638, Note_on_c, 2, 60, 0
5, 80640, Note_on_c, 2, 65, 64
5, 80878, Note_on_c, 2, 65, 0
5, 80880, Note_on_c, 2, 64, 64
5, 81118, Note_on_c, 2, 64, 0
5, 81120, Note_on_c, 2, 60, 64
5, 81358, Note_on_c, 2, 60, 0
5, 81360, Note_on_c, 2, 65, 64
5, 81598, Note_on_c, 2, 65, 0
5, 81600, Note_on_c, 2, 64, 64
5, 81838, Note_on_c, 2, 64, 0
5, 81840, Note_on_c, 2, 64, 64
5, 82078, Note_on_c, 2, 64, 0
5, 82080, Note_on_c, 2, 64, 64
5, 82318, Note_on_c, 2, 64, 0
5, 82320, Note_on_c, 2, 64, 64
5, 82558, Note_on_c, 2, 64, 0
5, 82800, Note_on_c, 2, 65, 64
5, 83038, Note_on_c, 2, 65, 0
5, 83040, Note_on_c, 2, 64, 64
5, 83278, Note_on_c, 2, 64, 0
5, 83280, Note_on_c, 2, 60, 64
5, 83518, Note_on_c, 2, 60, 0
5, 83520, Note_on_c, 2, 64, 64
5, 83758, Note_on_c, 2, 64, 0
5, 83760, Note_on_c, 2, 62, 64
5, 83998, Note_on_c, 2, 62, 0
5, 84000, Note_on_c, 2, 59, 64
5, 84238, Note_on_c, 2, 59, 0
5, 84240, Note_on_c, 2, 62, 64
5, 84478, Note_on_c, 2, 62, 0
5, 84480, Note_on_c, 2, 65, 64
5, 85198, Note_on_c, 2, 65, 0
5, 85200, Note_on_c, 2, 64, 64
5, 85438, Note_on_c, 2, 64, 0
5, 85680, Note_on_c, 2, 60, 64
5, 85918, Note_on_c, 2, 60, 0
5, 85920, Note_on_c, 2, 60, 64
5, 86158, Note_on_c, 2, 60, 0
5, 86160, Note_on_c, 2, 62, 64
5, 86398, Note_on_c, 2, 62, 0
5, 86400, Note_on_c, 2, 64, 64
5, 86638, Note_on_c, 2, 64, 0
5, 86640, Note_on_c, 2, 65, 64
5, 86878, Note_on_c, 2, 65, 0
5, 86880, Note_on_c, 2, 67, 64
5, 87118, Note_on_c, 2, 67, 0
5, 87120, Note_on_c, 2, 69, 64
5, 87358, Note_on_c, 2, 69, 0
5, 87360, Note_on_c, 2, 70, 64
5, 88318, Note_on_c, 2, 70, 0
5, 88560, Note_on_c, 2, 69, 64
5, 88798, Note_on_c, 2, 69, 0
5, 88800, Note_on_c, 2, 69, 64
5, 89038, Note_on_c, 2, 69, 0
5, 89040, Note_on_c, 2, 67, 64
5, 89278, Note_on_c, 2, 67, 0
5, 89280, Note_on_c, 2, 65, 64
5, 89518, Note_on_c, 2, 65, 0
5, 89520, Note_on_c, 2, 65, 64
5, 89758, Note_on_c, 2, 65, 0
5, 89760, Note_on_c, 2, 67, 64
5, 89998, Note_on_c, 2, 67, 0
5, 90000, Note_on_c, 2, 64, 64
5, 90238, Note_on_c, 2, 64, 0
5, 90240, Note_on_c, 2, 65, 64
5, 90718, Note_on_c, 2, 65, 0
5, 91440, Note_on_c, 2, 67, 64
5, 91678, Note_on_c, 2, 67, 0
5, 91680, Note_on_c, 2, 69, 64
5, 91918, Note_on_c, 2, 69, 0
5, 91920, Note_on_c, 2, 72, 64
5, 92878, Note_on_c, 2, 72, 0
5, 92880, Note_on_c, 2, 67, 64
5, 93118, Note_on_c, 2, 67, 0
5, 93120, Note_on_c, 2, 69, 64
5, 93358, Note_on_c, 2, 69, 0
5, 93360, Note_on_c, 2, 72, 64
5, 94318, Note_on_c, 2, 72, 0
5, 94320, Note_on_c, 2, 67, 64
5, 94558, Note_on_c, 2, 67, 0
5, 94560, Note_on_c, 2, 69, 64
5, 95278, Note_on_c, 2, 69, 0
5, 95280, Note_on_c, 2, 72, 64
5, 95518, Note_on_c, 2, 72, 0
5, 95760, Note_on_c, 2, 69, 64
5, 95998, Note_on_c, 2, 69, 0
5, 96000, Note_on_c, 2, 69, 64
5, 96238, Note_on_c, 2, 69, 0
5, 96240, Note_on_c, 2, 69, 64
5, 96478, Note_on_c, 2, 69, 0
5, 96480, Note_on_c, 2, 69, 64
5, 96718, Note_on_c, 2, 69, 0
5, 96720, Note_on_c, 2, 69, 64
5, 96958, Note_on_c, 2, 69, 0
5, 96960, Note_on_c, 2, 70, 64
5, 97198, Note_on_c, 2, 70, 0
5, 97200, Note_on_c, 2, 72, 64
5, 97438, Note_on_c, 2, 72, 0
5, 97440, Note_on_c, 2, 74, 64
5, 98398, Note_on_c, 2, 74, 0
5, 98400, Note_on_c, 2, 70, 64
5, 98638, Note_on_c, 2, 70, 0
5, 98640, Note_on_c, 2, 67, 64
5, 98878, Note_on_c, 2, 67, 0
5, 98880, Note_on_c, 2, 72, 64
5, 99118, Note_on_c, 2, 72, 0
5, 99120, Note_on_c, 2, 69, 64
5, 99358, Note_on_c, 2, 69, 0
5, 99360, Note_on_c, 2, 65, 64
5, 99598, Note_on_c, 2, 65, 0
5, 99600, Note_on_c, 2, 60, 64
5, 99838, Note_on_c, 2, 60, 0
5, 99840, Note_on_c, 2, 62, 64
5, 100078, Note_on_c, 2, 62, 0
5, 100080, Note_on_c, 2, 64, 64
5, 100318, Note_on_c, 2, 64, 0
5, 100320, Note_on_c, 2, 65, 64
5, 100798, Note_on_c, 2, 65, 0
5, 102000, Note_on_c, 2, 69, 64
5, 102238, Note_on_c, 2, 69, 0
5, 102240, Note_on_c, 2, 69, 64
5, 102478, Note_on_c, 2, 69, 0
5, 102480, Note_on_c, 2, 69, 64
5, 102718, Note_on_c, 2, 69, 0
5, 102720, Note_on_c, 2, 70, 64
5, 102958, Note_on_c, 2, 70, 0
5, 102960, Note_on_c, 2, 67, 64
5, 103198, Note_on_c, 2, 67, 0
5, 103200, Note_on_c, 2, 65, 64
5, 103678, Note_on_c, 2, 65, 0
5, 104880, Note_on_c, 2, 69, 64
5, 105118, Note_on_c, 2, 69, 0
5, 105120, Note_on_c, 2, 69, 64
5, 105358, Note_on_c, 2, 69, 0
5, 105360, Note_on_c, 2, 69, 64
5, 105598, Note_on_c, 2, 69, 0
5, 105600, Note_on_c, 2, 70, 64
5, 105838, Note_on_c, 2, 70, 0
5, 105840, Note_on_c, 2, 67, 64
5, 106078, Note_on_c, 2, 67, 0
5, 106080, Note_on_c, 2, 65, 64
5, 106318, Note_on_c, 2, 65, 0
5, 106320, Note_on_c, 2, 53, 64
5, 106558, Note_on_c, 2, 53, 0
5, 106560, Note_on_c, 2, 53, 64
5, 106798, Note_on_c, 2, 53, 0
5, 106800, Note_on_c, 2, 53, 64
5, 107038, Note_on_c, 2, 53, 0
5, 108480, Note_on_c, 2, 57, 74
5, 108711, Note_on_c, 2, 57, 0
5, 108960, Note_on_c, 2, 64, 80
5, 109191, Note_on_c, 2, 64, 0
5, 109440, Note_on_c, 2, 65, 85
5, 109895, Note_on_c, 2, 65, 0
5, 110400, Note_on_c, 2, 67, 96
5, 110624, Note_on_c, 2, 67, 0
5, 110880, Note_on_c, 2, 65, 92
5, 111104, Note_on_c, 2, 65, 0
5, 111360, Note_on_c, 2, 64, 88
5, 111806, Note_on_c, 2, 64, 0
5, 112320, Note_on_c, 2, 67, 80
5, 112540, Note_on_c, 2, 67, 0
5, 112800, Note_on_c, 2, 64, 81
5, 113020, Note_on_c, 2, 64, 0
5, 113280, Note_on_c, 2, 65, 84
5, 113718, Note_on_c, 2, 65, 0
5, 114240, Note_on_c, 2, 62, 73
5, 114458, Note_on_c, 2, 62, 0
5, 114720, Note_on_c, 2, 58, 69
5, 114938, Note_on_c, 2, 58, 0
5, 115200, Note_on_c, 2, 57, 69
5, 115638, Note_on_c, 2, 57, 0
5, 115920, Note_on_c, 2, 60, 70
5, 116017, Note_on_c, 2, 60, 0
5, 116040, Note_on_c, 2, 58, 78
5, 116133, Note_on_c, 2, 58, 0
5, 116160, Note_on_c, 2, 57, 69
5, 116280, Note_on_c, 2, 60, 73
5, 116292, Note_on_c, 2, 57, 0
5, 116400, Note_on_c, 2, 65, 77
5, 116410, Note_on_c, 2, 60, 0
5, 116520, Note_on_c, 2, 60, 69
5, 116526, Note_on_c, 2, 65, 0
5, 116627, Note_on_c, 2, 60, 0
5, 116640, Note_on_c, 2, 58, 69
5, 116760, Note_on_c, 2, 60, 73
5, 116766, Note_on_c, 2, 58, 0
5, 116880, Note_on_c, 2, 64, 79
5, 116893, Note_on_c, 2, 60, 0
5, 117000, Note_on_c, 2, 60, 77
5, 117009, Note_on_c, 2, 64, 0
5, 117107, Note_on_c, 2, 60, 0
5, 117120, Note_on_c, 2, 57, 70
5, 117240, Note_on_c, 2, 60, 76
5, 117246, Note_on_c, 2, 57, 0
5, 117360, Note_on_c, 2, 65, 84
5, 117367, Note_on_c, 2, 60, 0
5, 117480, Note_on_c, 2, 60, 77
5, 117488, Note_on_c, 2, 65, 0
5, 117584, Note_on_c, 2, 60, 0
5, 117600, Note_on_c, 2, 57, 77
5, 117720, Note_on_c, 2, 60, 78
5, 117724, Note_on_c, 2, 57, 0
5, 117840, Note_on_c, 2, 65, 86
5, 117844, Note_on_c, 2, 60, 0
5, 117960, Note_on_c, 2, 60, 79
5, 117966, Note_on_c, 2, 65, 0
5, 118072, Note_on_c, 2, 60, 0
5, 118080, Note_on_c, 2, 55, 73
5, 118198, Note_on_c, 2, 55, 0
5, 118200, Note_on_c, 2, 60, 76
5, 118318, Note_on_c, 2, 60, 0
5, 118320, Note_on_c, 2, 67, 76
5, 118438, Note_on_c, 2, 67, 0
5, 118440, Note_on_c, 2, 60, 77
5, 118558, Note_on_c, 2, 60, 0
5, 118560, Note_on_c, 2, 65, 78
5, 118678, Note_on_c, 2, 65, 0
5, 118680, Note_on_c, 2, 60, 78
5, 118798, Note_on_c, 2, 60, 0
5, 118800, Note_on_c, 2, 65, 79
5, 118918, Note_on_c, 2, 65, 0
5, 118920, Note_on_c, 2, 60, 81
5, 119038, Note_on_c, 2, 60, 0
5, 119040, Note_on_c, 2, 64, 81
5, 119158, Note_on_c, 2, 64, 0
5, 119160, Note_on_c, 2, 60, 86
5, 119280, Note_on_c, 2, 64, 90
5, 119290, Note_on_c, 2, 60, 0
5, 119400, Note_on_c, 2, 67, 96
5, 119410, Note_on_c, 2, 64, 0
5, 119520, Note_on_c, 2, 72, 101
5, 119530, Note_on_c, 2, 67, 0
5, 119640, Note_on_c, 2, 67, 106
5, 119650, Note_on_c, 2, 72, 0
5, 119760, Note_on_c, 2, 64, 96
5, 119770, Note_on_c, 2, 67, 0
5, 119880, Note_on_c, 2, 67, 91
5, 119890, Note_on_c, 2, 64, 0
5, 120000, Note_on_c, 2, 64, 78
5, 120010, Note_on_c, 2, 67, 0
5, 120120, Note_on_c, 2, 55, 79
5, 120130, Note_on_c, 2, 64, 0
5, 120240, Note_on_c, 2, 60, 80
5, 120250, Note_on_c, 2, 55, 0
5, 120360, Note_on_c, 2, 67, 80
5, 120370, Note_on_c, 2, 60, 0
5, 120480, Note_on_c, 2, 64, 83
5, 120490, Note_on_c, 2, 67, 0
5, 120600, Note_on_c, 2, 60, 83
5, 120610, Note_on_c, 2, 64, 0
5, 120720, Note_on_c, 2, 64, 85
5, 120730, Note_on_c, 2, 60, 0
5, 120840, Note_on_c, 2, 67, 87
5, 120850, Note_on_c, 2, 64, 0
5, 120960, Note_on_c, 2, 65, 84
5, 120970, Note_on_c, 2, 67, 0
5, 121080, Note_on_c, 2, 60, 87
5, 121090, Note_on_c, 2, 65, 0
5, 121200, Note_on_c, 2, 57, 90
5, 121210, Note_on_c, 2, 60, 0
5, 121320, Note_on_c, 2, 60, 92
5, 121330, Note_on_c, 2, 57, 0
5, 121440, Note_on_c, 2, 57, 94
5, 121450, Note_on_c, 2, 60, 0
5, 121560, Note_on_c, 2, 60, 95
5, 121570, Note_on_c, 2, 57, 0
5, 121680, Note_on_c, 2, 65, 96
5, 121690, Note_on_c, 2, 60, 0
5, 121800, Note_on_c, 2, 60, 99
5, 121810, Note_on_c, 2, 65, 0
5, 121920, Note_on_c, 2, 62, 92
5, 121930, Note_on_c, 2, 60, 0
5, 122040, Note_on_c, 2, 65, 97
5, 122050, Note_on_c, 2, 62, 0
5, 122160, Note_on_c, 2, 67, 97
5, 122170, Note_on_c, 2, 65, 0
5, 122280, Note_on_c, 2, 65, 100
5, 122290, Note_on_c, 2, 67, 0
5, 122400, Note_on_c, 2, 64, 100
5, 122410, Note_on_c, 2, 65, 0
5, 122520, Note_on_c, 2, 60, 82
5, 122530, Note_on_c, 2, 64, 0
5, 122640, Note_on_c, 2, 58, 79
5, 122649, Note_on_c, 2, 60, 0
5, 122760, Note_on_c, 2, 60, 79
5, 122771, Note_on_c, 2, 58, 0
5, 122880, Note_on_c, 2, 57, 95
5, 122898, Note_on_c, 2, 60, 0
5, 122982, Note_on_c, 2, 57, 0
5, 123000, Note_on_c, 2, 60, 99
5, 123120, Note_on_c, 2, 65, 105
5, 123136, Note_on_c, 2, 60, 0
5, 123240, Note_on_c, 2, 69, 112
5, 123256, Note_on_c, 2, 65, 0
5, 123360, Note_on_c, 2, 70, 117
5, 123376, Note_on_c, 2, 69, 0
5, 123480, Note_on_c, 2, 67, 92
5, 123496, Note_on_c, 2, 70, 0
5, 123600, Note_on_c, 2, 64, 94
5, 123616, Note_on_c, 2, 67, 0
5, 123720, Note_on_c, 2, 58, 95
5, 123736, Note_on_c, 2, 64, 0
5, 123836, Note_on_c, 2, 58, 0
5, 123840, Note_on_c, 2, 57, 94
5, 123958, Note_on_c, 2, 57, 0
5, 123960, Note_on_c, 2, 60, 96
5, 124078, Note_on_c, 2, 60, 0
5, 124080, Note_on_c, 2, 65, 97
5, 124198, Note_on_c, 2, 65, 0
5, 124200, Note_on_c, 2, 69, 98
5, 124292, Note_on_c, 2, 69, 0
5, 124320, Note_on_c, 2, 69, 103
5, 124438, Note_on_c, 2, 69, 0
5, 124440, Note_on_c, 2, 67, 86
5, 124558, Note_on_c, 2, 67, 0
5, 124560, Note_on_c, 2, 65, 85
5, 124678, Note_on_c, 2, 65, 0
5, 124680, Note_on_c, 2, 64, 87
5, 124798, Note_on_c, 2, 64, 0
5, 124800, Note_on_c, 2, 65, 76
5, 124918, Note_on_c, 2, 65, 0
5, 124920, Note_on_c, 2, 60, 75
5, 125040, Note_on_c, 2, 65, 92
5, 125050, Note_on_c, 2, 60, 0
5, 125160, Note_on_c, 2, 69, 114
5, 125170, Note_on_c, 2, 65, 0
5, 125280, Note_on_c, 2, 70, 125
5, 125290, Note_on_c, 2, 69, 0
5, 125400, Note_on_c, 2, 67, 97
5, 125410, Note_on_c, 2, 70, 0
5, 125520, Note_on_c, 2, 64, 85
5, 125530, Note_on_c, 2, 67, 0
5, 125640, Note_on_c, 2, 58, 77
5, 125650, Note_on_c, 2, 64, 0
5, 125760, Note_on_c, 2, 57, 71
5, 125770, Note_on_c, 2, 58, 0
5, 125878, Note_on_c, 2, 57, 0
5, 125880, Note_on_c, 2, 60, 76
5, 125998, Note_on_c, 2, 60, 0
5, 126000, Note_on_c, 2, 65, 80
5, 126118, Note_on_c, 2, 65, 0
5, 126120, Note_on_c, 2, 69, 84
5, 126211, Note_on_c, 2, 69, 0
5, 126240, Note_on_c, 2, 69, 89
5, 126360, Note_on_c, 2, 67, 84
5, 126370, Note_on_c, 2, 69, 0
5, 126480, Note_on_c, 2, 65, 77
5, 126490, Note_on_c, 2, 67, 0
5, 126600, Note_on_c, 2, 64, 71
5, 126610, Note_on_c, 2, 65, 0
5, 126720, Note_on_c, 2, 65, 66
5, 126747, Note_on_c, 2, 64, 0
5, 127246, Note_on_c, 2, 65, 0
5, 133200, Note_on_c, 2, 65, 64
5, 133438, Note_on_c, 2, 65, 0
5, 133440, Note_on_c, 2, 64, 64
5, 133678, Note_on_c, 2, 64, 0
5, 133680, Note_on_c, 2, 60, 64
5, 133918, Note_on_c, 2, 60, 0
5, 133920, Note_on_c, 2, 65, 64
5, 134158, Note_on_c, 2, 65, 0
5, 134160, Note_on_c, 2, 64, 64
5, 134398, Note_on_c, 2, 64, 0
5, 134400, Note_on_c, 2, 60, 64
5, 134638, Note_on_c, 2, 60, 0
5, 134640, Note_on_c, 2, 65, 64
5, 134878, Note_on_c, 2, 65, 0
5, 134880, Note_on_c, 2, 64, 64
5, 135118, Note_on_c, 2, 64, 0
5, 135120, Note_on_c, 2, 64, 64
5, 135358, Note_on_c, 2, 64, 0
5, 135360, Note_on_c, 2, 64, 64
5, 135598, Note_on_c, 2, 64, 0
5, 135600, Note_on_c, 2, 64, 64
5, 135838, Note_on_c, 2, 64, 0
5, 136080, Note_on_c, 2, 65, 64
5, 136318, Note_on_c, 2, 65, 0
5, 136320, Note_on_c, 2, 64, 64
5, 136558, Note_on_c, 2, 64, 0
5, 136560, Note_on_c, 2, 60, 64
5, 136798, Note_on_c, 2, 60, 0
5, 136800, Note_on_c, 2, 64, 64
5, 137038, Note_on_c, 2, 64, 0
5, 137040, Note_on_c, 2, 62, 64
5, 137278, Note_on_c, 2, 62, 0
5, 137280, Note_on_c, 2, 59, 64
5, 137518, Note_on_c, 2, 59, 0
5, 137520, Note_on_c, 2, 62, 64
5, 137758, Note_on_c, 2, 62, 0
5, 137760, Note_on_c, 2, 65, 64
5, 138478, Note_on_c, 2, 65, 0
5, 138480, Note_on_c, 2, 64, 64
5, 138718, Note_on_c, 2, 64, 0
5, 138960, Note_on_c, 2, 60, 64
5, 139198, Note_on_c, 2, 60, 0
5, 139200, Note_on_c, 2, 60, 64
5, 139438, Note_on_c, 2, 60, 0
5, 139440, Note_on_c, 2, 62, 64
5, 139678, Note_on_c, 2, 62, 0
5, 139680, Note_on_c, 2, 64, 64
5, 139918, Note_on_c, 2, 64, 0
5, 139920, Note_on_c, 2, 65, 64
5, 140158, Note_on_c, 2, 65, 0
5, 140160, Note_on_c, 2, 67, 64
5, 140398, Note_on_c, 2, 67, 0
5, 140400, Note_on_c, 2, 69, 64
5, 140638, Note_on_c, 2, 69, 0
5, 140640, Note_on_c, 2, 70, 64
5, 141598, Note_on_c, 2, 70, 0
5, 141840, Note_on_c, 2, 69, 64
5, 142078, Note_on_c, 2, 69, 0
5, 142080, Note_on_c, 2, 69, 64
5, 142318, Note_on_c, 2, 69, 0
5, 142320, Note_on_c, 2, 67, 64
5, 142558, Note_on_c, 2, 67, 0
5, 142560, Note_on_c, 2, 65, 64
5, 142798, Note_on_c, 2, 65, 0
5, 142800, Note_on_c, 2, 65, 64
5, 143038, Note_on_c, 2, 65, 0
5, 143040, Note_on_c, 2, 67, 64
5, 143278, Note_on_c, 2, 67, 0
5, 143280, Note_on_c, 2, 64, 64
5, 143518, Note_on_c, 2, 64, 0
5, 143520, Note_on_c, 2, 65, 64
5, 143998, Note_on_c, 2, 65, 0
5, 144720, Note_on_c, 2, 67, 64
5, 144958, Note_on_c, 2, 67, 0
5, 144960, Note_on_c, 2, 69, 64
5, 145198, Note_on_c, 2, 69, 0
5, 145200, Note_on_c, 2, 72, 64
5, 146158, Note_on_c, 2, 72, 0
5, 146160, Note_on_c, 2, 67, 64
5, 146398, Note_on_c, 2, 67, 0
5, 146400, Note_on_c, 2, 69, 64
5, 146638, Note_on_c, 2, 69, 0
5, 146640, Note_on_c, 2, 72, 64
5, 147598, Note_on_c, 2, 72, 0
5, 147600, Note_on_c, 2, 67, 64
5, 147838, Note_on_c, 2, 67, 0
5, 147840, Note_on_c, 2, 69, 64
5, 148558, Note_on_c, 2, 69, 0
5, 148560, Note_on_c, 2, 72, 64
5, 148798, Note_on_c, 2, 72, 0
5, 149040, Note_on_c, 2, 69, 64
5, 149278, Note_on_c, 2, 69, 0
5, 149280, Note_on_c, 2, 69, 64
5, 149518, Note_on_c, 2, 69, 0
5, 149520, Note_on_c, 2, 69, 64
5, 149758, Note_on_c, 2, 69, 0
5, 149760, Note_on_c, 2, 69, 64
5, 149998, Note_on_c, 2, 69, 0
5, 150000, Note_on_c, 2, 69, 64
5, 150238, Note_on_c, 2, 69, 0
5, 150240, Note_on_c, 2, 70, 64
5, 150478, Note_on_c, 2, 70, 0
5, 150480, Note_on_c, 2, 72, 64
5, 150718, Note_on_c, 2, 72, 0
5, 150720, Note_on_c, 2, 74, 64
5, 151678, Note_on_c, 2, 74, 0
5, 151680, Note_on_c, 2, 70, 64
5, 151918, Note_on_c, 2, 70, 0
5, 151920, Note_on_c, 2, 67, 64
5, 152158, Note_on_c, 2, 67, 0
5, 152160, Note_on_c, 2, 72, 64
5, 152398, Note_on_c, 2, 72, 0
5, 152400, Note_on_c, 2, 69, 64
5, 152638, Note_on_c, 2, 69, 0
5, 152640, Note_on_c, 2, 65, 64
5, 152878, Note_on_c, 2, 65, 0
5, 152880, Note_on_c, 2, 60, 64
5, 153118, Note_on_c, 2, 60, 0
5, 153120, Note_on_c, 2, 62, 64
5, 153358, Note_on_c, 2, 62, 0
5, 153360, Note_on_c, 2, 64, 64
5, 153598, Note_on_c, 2, 64, 0
5, 153600, Note_on_c, 2, 65, 64
5, 154078, Note_on_c, 2, 65, 0
5, 155280, Note_on_c, 2, 69, 64
5, 155518, Note_on_c, 2, 69, 0
5, 155520, Note_on_c, 2, 69, 64
5, 155758, Note_on_c, 2, 69, 0
5, 155760, Note_on_c, 2, 69, 64
5, 155998, Note_on_c, 2, 69, 0
5, 156000, Note_on_c, 2, 70, 64
5, 156238, Note_on_c, 2, 70, 0
5, 156240, Note_on_c, 2, 67, 64
5, 156478, Note_on_c, 2, 67, 0
5, 156480, Note_on_c, 2, 65, 64
5, 156958, Note_on_c, 2, 65, 0
5, 158160, Note_on_c, 2, 69, 64
5, 158398, Note_on_c, 2, 69, 0
5, 158400, Note_on_c, 2, 69, 64
5, 158638, Note_on_c, 2, 69, 0
5, 158640, Note_on_c, 2, 69, 64
5, 158878, Note_on_c, 2, 69, 0
5, 158880, Note_on_c, 2, 70, 64
5, 159118, Note_on_c, 2, 70, 0
5, 159120, Note_on_c, 2, 67, 64
5, 159358, Note_on_c, 2, 67, 0
5, 159360, Note_on_c, 2, 65, 64
5, 159838, Note_on_c, 2, 65, 0
5, 165600, Note_on_c, 2, 57, 75
5, 165718, Note_on_c, 2, 57, 0
5, 165720, Note_on_c, 2, 60, 75
5, 165838, Note_on_c, 2, 60, 0
5, 165840, Note_on_c, 2, 65, 74
5, 165958, Note_on_c, 2, 65, 0
5, 165960, Note_on_c, 2, 60, 74
5, 166078, Note_on_c, 2, 60, 0
5, 166080, Note_on_c, 2, 57, 74
5, 166198, Note_on_c, 2, 57, 0
5, 166200, Note_on_c, 2, 60, 73
5, 166318, Note_on_c, 2, 60, 0
5, 166320, Note_on_c, 2, 57, 73
5, 166438, Note_on_c, 2, 57, 0
5, 166440, Note_on_c, 2, 60, 72
5, 166558, Note_on_c, 2, 60, 0
5, 166560, Note_on_c, 2, 65, 72
5, 166678, Note_on_c, 2, 65, 0
5, 166680, Note_on_c, 2, 60, 72
5, 166798, Note_on_c, 2, 60, 0
5, 166800, Note_on_c, 2, 57, 72
5, 166918, Note_on_c, 2, 57, 0
5, 166920, Note_on_c, 2, 60, 71
5, 167038, Note_on_c, 2, 60, 0
5, 167040, Note_on_c, 2, 57, 71
5, 167158, Note_on_c, 2, 57, 0
5, 167160, Note_on_c, 2, 60, 71
5, 167278, Note_on_c, 2, 60, 0
5, 167280, Note_on_c, 2, 64, 70
5, 167398, Note_on_c, 2, 64, 0
5, 167400, Note_on_c, 2, 60, 70
5, 167518, Note_on_c, 2, 60, 0
5, 167520, Note_on_c, 2, 58, 69
5, 167638, Note_on_c, 2, 58, 0
5, 167640, Note_on_c, 2, 60, 69
5, 167758, Note_on_c, 2, 60, 0
5, 167760, Note_on_c, 2, 58, 69
5, 167878, Note_on_c, 2, 58, 0
5, 167880, Note_on_c, 2, 60, 69
5, 167998, Note_on_c, 2, 60, 0
5, 168000, Note_on_c, 2, 65, 68
5, 168118, Note_on_c, 2, 65, 0
5, 168120, Note_on_c, 2, 60, 68
5, 168238, Note_on_c, 2, 60, 0
5, 168240, Note_on_c, 2, 57, 67
5, 168358, Note_on_c, 2, 57, 0
5, 168360, Note_on_c, 2, 60, 67
5, 168478, Note_on_c, 2, 60, 0
5, 168480, Note_on_c, 2, 57, 67
5, 168598, Note_on_c, 2, 57, 0
5, 168600, Note_on_c, 2, 60, 66
5, 168718, Note_on_c, 2, 60, 0
5, 168720, Note_on_c, 2, 65, 66
5, 168838, Note_on_c, 2, 65, 0
5, 168840, Note_on_c, 2, 60, 65
5, 168958, Note_on_c, 2, 60, 0
5, 168960, Note_on_c, 2, 57, 65
5, 169078, Note_on_c, 2, 57, 0
5, 169080, Note_on_c, 2, 60, 65
5, 169198, Note_on_c, 2, 60, 0
5, 169200, Note_on_c, 2, 57, 65
5, 169318, Note_on_c, 2, 57, 0
5, 169320, Note_on_c, 2, 60, 64
5, 169438, Note_on_c, 2, 60, 0
5, 169440, Note_on_c, 2, 65, 64
5, 169558, Note_on_c, 2, 65, 0
5, 169560, Note_on_c, 2, 60, 64
5, 169678, Note_on_c, 2, 60, 0
5, 169680, Note_on_c, 2, 57, 64
5, 169798, Note_on_c, 2, 57, 0
5, 169800, Note_on_c, 2, 60, 64
5, 169918, Note_on_c, 2, 60, 0
5, 169920, Note_on_c, 2, 57, 64
5, 170038, Note_on_c, 2, 57, 0
5, 170040, Note_on_c, 2, 60, 64
5, 170158, Note_on_c, 2, 60, 0
5, 170160, Note_on_c, 2, 64, 64
5, 170278, Note_on_c, 2, 64, 0
5, 170280, Note_on_c, 2, 60, 64
5, 170398, Note_on_c, 2, 60, 0
5, 170400, Note_on_c, 2, 58, 64
5, 170518, Note_on_c, 2, 58, 0
5, 170520, Note_on_c, 2, 60, 64
5, 170638, Note_on_c, 2, 60, 0
5, 170640, Note_on_c, 2, 58, 64
5, 170758, Note_on_c, 2, 58, 0
5, 170760, Note_on_c, 2, 60, 64
5, 170878, Note_on_c, 2, 60, 0
5, 170880, Note_on_c, 2, 57, 64
5, 171358, Note_on_c, 2, 57, 0
5, 171358, End_track
6, 0, Start_track
6, 0, MIDI_port, 0
6, 0, Title_t, "Violas"
6, 0, Program_c, 3, 48
6, 0, Control_c, 3, 7, 120
6, 0, Control_c, 3, 10, 80
6, 105, Control_c, 3, 91, 40
6, 110, Control_c, 3, 93, 0
6, 1920, Note_on_c, 3, 60, 74
6, 2151, Note_on_c, 3, 60, 0
6, 2400, Note_on_c, 3, 60, 80
6, 2631, Note_on_c, 3, 60, 0
6, 2880, Note_on_c, 3, 60, 85
6, 3335, Note_on_c, 3, 60, 0
6, 3840, Note_on_c, 3, 60, 96
6, 4064, Note_on_c, 3, 60, 0
6, 4320, Note_on_c, 3, 60, 92
6, 4544, Note_on_c, 3, 60, 0
6, 4800, Note_on_c, 3, 60, 88
6, 5246, Note_on_c, 3, 60, 0
6, 5760, Note_on_c, 3, 60, 80
6, 5980, Note_on_c, 3, 60, 0
6, 6240, Note_on_c, 3, 60, 81
6, 6460, Note_on_c, 3, 60, 0
6, 6720, Note_on_c, 3, 60, 84
6, 7158, Note_on_c, 3, 60, 0
6, 7680, Note_on_c, 3, 58, 73
6, 7898, Note_on_c, 3, 58, 0
6, 8160, Note_on_c, 3, 55, 69
6, 8378, Note_on_c, 3, 55, 0
6, 8640, Note_on_c, 3, 53, 65
6, 9078, Note_on_c, 3, 53, 0
6, 9600, Note_on_c, 3, 60, 65
6, 9838, Note_on_c, 3, 60, 0
6, 10080, Note_on_c, 3, 64, 65
6, 10318, Note_on_c, 3, 64, 0
6, 10560, Note_on_c, 3, 65, 66
6, 11038, Note_on_c, 3, 65, 0
6, 11520, Note_on_c, 3, 60, 68
6, 11758, Note_on_c, 3, 60, 0
6, 12000, Note_on_c, 3, 60, 68
6, 12238, Note_on_c, 3, 60, 0
6, 12480, Note_on_c, 3, 60, 68
6, 12958, Note_on_c, 3, 60, 0
6, 13440, Note_on_c, 3, 60, 72
6, 13678, Note_on_c, 3, 60, 0
6, 13920, Note_on_c, 3, 60, 76
6, 14158, Note_on_c, 3, 60, 0
6, 14400, Note_on_c, 3, 60, 75
6, 14878, Note_on_c, 3, 60, 0
6, 15360, Note_on_c, 3, 55, 72
6, 15598, Note_on_c, 3, 55, 0
6, 15840, Note_on_c, 3, 60, 70
6, 16078, Note_on_c, 3, 60, 0
6, 16320, Note_on_c, 3, 60, 68
6, 20158, Note_on_c, 3, 60, 0
6, 20160, Note_on_c, 3, 60, 59
6, 20638, Note_on_c, 3, 60, 0
6, 26880, Note_on_c, 3, 60, 64
6, 27358, Note_on_c, 3, 60, 0
6, 27600, Note_on_c, 3, 60, 64
6, 28078, Note_on_c, 3, 60, 0
6, 28320, Note_on_c, 3, 60, 64
6, 28558, Note_on_c, 3, 60, 0
6, 28560, Note_on_c, 3, 60, 64
6, 28798, Note_on_c, 3, 60, 0
6, 28800, Note_on_c, 3, 60, 64
6, 29038, Note_on_c, 3, 60, 0
6, 29040, Note_on_c, 3, 60, 64
6, 29278, Note_on_c, 3, 60, 0
6, 29760, Note_on_c, 3, 60, 64
6, 30238, Note_on_c, 3, 60, 0
6, 30480, Note_on_c, 3, 55, 64
6, 30958, Note_on_c, 3, 55, 0
6, 31200, Note_on_c, 3, 59, 64
6, 31438, Note_on_c, 3, 59, 0
6, 31440, Note_on_c, 3, 59, 64
6, 31678, Note_on_c, 3, 59, 0
6, 31680, Note_on_c, 3, 59, 64
6, 31918, Note_on_c, 3, 59, 0
6, 31920, Note_on_c, 3, 60, 64
6, 32158, Note_on_c, 3, 60, 0
6, 32400, Note_on_c, 3, 60, 64
6, 32638, Note_on_c, 3, 60, 0
6, 32640, Note_on_c, 3, 60, 64
6, 32878, Note_on_c, 3, 60, 0
6, 32880, Note_on_c, 3, 59, 64
6, 33118, Note_on_c, 3, 59, 0
6, 33120, Note_on_c, 3, 58, 64
6, 33358, Note_on_c, 3, 58, 0
6, 33360, Note_on_c, 3, 57, 64
6, 33598, Note_on_c, 3, 57, 0
6, 33600, Note_on_c, 3, 55, 64
6, 33838, Note_on_c, 3, 55, 0
6, 33840, Note_on_c, 3, 53, 64
6, 34078, Note_on_c, 3, 53, 0
6, 34080, Note_on_c, 3, 52, 64
6, 35038, Note_on_c, 3, 52, 0
6, 35280, Note_on_c, 3, 53, 64
6, 35518, Note_on_c, 3, 53, 0
6, 35520, Note_on_c, 3, 62, 64
6, 35758, Note_on_c, 3, 62, 0
6, 36000, Note_on_c, 3, 57, 64
6, 36238, Note_on_c, 3, 57, 0
6, 36240, Note_on_c, 3, 57, 64
6, 36478, Note_on_c, 3, 57, 0
6, 36480, Note_on_c, 3, 58, 64
6, 36718, Note_on_c, 3, 58, 0
6, 36720, Note_on_c, 3, 55, 64
6, 36958, Note_on_c, 3, 55, 0
6, 36960, Note_on_c, 3, 57, 64
6, 37438, Note_on_c, 3, 57, 0
6, 38160, Note_on_c, 3, 64, 64
6, 38398, Note_on_c, 3, 64, 0
6, 38400, Note_on_c, 3, 65, 64
6, 38878, Note_on_c, 3, 65, 0
6, 39600, Note_on_c, 3, 64, 64
6, 39838, Note_on_c, 3, 64, 0
6, 39840, Note_on_c, 3, 65, 64
6, 40318, Note_on_c, 3, 65, 0
6, 41040, Note_on_c, 3, 64, 64
6, 41278, Note_on_c, 3, 64, 0
6, 41280, Note_on_c, 3, 65, 64
6, 41998, Note_on_c, 3, 65, 0
6, 42000, Note_on_c, 3, 69, 64
6, 42238, Note_on_c, 3, 69, 0
6, 42480, Note_on_c, 3, 65, 64
6, 42718, Note_on_c, 3, 65, 0
6, 42720, Note_on_c, 3, 65, 64
6, 42958, Note_on_c, 3, 65, 0
6, 42960, Note_on_c, 3, 65, 64
6, 43198, Note_on_c, 3, 65, 0
6, 43200, Note_on_c, 3, 65, 64
6, 43438, Note_on_c, 3, 65, 0
6, 43440, Note_on_c, 3, 65, 64
6, 43678, Note_on_c, 3, 65, 0
6, 43680, Note_on_c, 3, 67, 64
6, 43918, Note_on_c, 3, 67, 0
6, 43920, Note_on_c, 3, 69, 64
6, 44158, Note_on_c, 3, 69, 0
6, 44160, Note_on_c, 3, 70, 64
6, 44878, Note_on_c, 3, 70, 0
6, 45600, Note_on_c, 3, 60, 64
6, 46558, Note_on_c, 3, 60, 0
6, 46560, Note_on_c, 3, 59, 64
6, 46798, Note_on_c, 3, 59, 0
6, 46800, Note_on_c, 3, 58, 64
6, 47038, Note_on_c, 3, 58, 0
6, 47040, Note_on_c, 3, 57, 64
6, 47518, Note_on_c, 3, 57, 0
6, 48720, Note_on_c, 3, 65, 64
6, 48958, Note_on_c, 3, 65, 0
6, 48960, Note_on_c, 3, 65, 64
6, 49198, Note_on_c, 3, 65, 0
6, 49200, Note_on_c, 3, 65, 64
6, 49438, Note_on_c, 3, 65, 0
6, 49440, Note_on_c, 3, 67, 64
6, 49678, Note_on_c, 3, 67, 0
6, 49680, Note_on_c, 3, 64, 64
6, 49918, Note_on_c, 3, 64, 0
6, 49920, Note_on_c, 3, 65, 64
6, 50398, Note_on_c, 3, 65, 0
6, 51600, Note_on_c, 3, 65, 64
6, 51838, Note_on_c, 3, 65, 0
6, 51840, Note_on_c, 3, 65, 64
6, 52078, Note_on_c, 3, 65, 0
6, 52080, Note_on_c, 3, 65, 64
6, 52318, Note_on_c, 3, 65, 0
6, 52320, Note_on_c, 3, 67, 64
6, 52558, Note_on_c, 3, 67, 0
6, 52560, Note_on_c, 3, 64, 64
6, 52798, Note_on_c, 3, 64, 0
6, 52800, Note_on_c, 3, 65, 64
6, 53038, Note_on_c, 3, 65, 0
6, 53040, Note_on_c, 3, 60, 64
6, 53278, Note_on_c, 3, 60, 0
6, 53280, Note_on_c, 3, 60, 64
6, 53518, Note_on_c, 3, 60, 0
6, 53520, Note_on_c, 3, 60, 64
6, 53758, Note_on_c, 3, 60, 0
6, 55200, Note_on_c, 3, 60, 64
6, 55438, Note_on_c, 3, 60, 0
6, 55680, Note_on_c, 3, 60, 64
6, 55918, Note_on_c, 3, 60, 0
6, 56160, Note_on_c, 3, 60, 64
6, 56638, Note_on_c, 3, 60, 0
6, 57120, Note_on_c, 3, 60, 64
6, 57358, Note_on_c, 3, 60, 0
6, 57600, Note_on_c, 3, 60, 64
6, 57838, Note_on_c, 3, 60, 0
6, 58080, Note_on_c, 3, 60, 64
6, 58558, Note_on_c, 3, 60, 0
6, 59040, Note_on_c, 3, 60, 64
6, 59278, Note_on_c, 3, 60, 0
6, 59520, Note_on_c, 3, 60, 64
6, 59758, Note_on_c, 3, 60, 0
6, 60000, Note_on_c, 3, 60, 64
6, 60478, Note_on_c, 3, 60, 0
6, 60960, Note_on_c, 3, 58, 64
6, 61198, Note_on_c, 3, 58, 0
6, 61440, Note_on_c, 3, 55, 64
6, 61678, Note_on_c, 3, 55, 0
6, 61920, Note_on_c, 3, 53, 64
6, 62398, Note_on_c, 3, 53, 0
6, 62880, Note_on_c, 3, 60, 64
6, 63118, Note_on_c, 3, 60, 0
6, 63360, Note_on_c, 3, 64, 64
6, 63598, Note_on_c, 3, 64, 0
6, 63840, Note_on_c, 3, 65, 64
6, 64318, Note_on_c, 3, 65, 0
6, 64800, Note_on_c, 3, 60, 64
6, 65038, Note_on_c, 3, 60, 0
6, 65280, Note_on_c, 3, 60, 64
6, 65518, Note_on_c, 3, 60, 0
6, 65760, Note_on_c, 3, 60, 64
6, 66238, Note_on_c, 3, 60, 0
6, 66720, Note_on_c, 3, 60, 64
6, 66958, Note_on_c, 3, 60, 0
6, 67200, Note_on_c, 3, 60, 64
6, 67438, Note_on_c, 3, 60, 0
6, 67680, Note_on_c, 3, 60, 64
6, 68158, Note_on_c, 3, 60, 0
6, 68640, Note_on_c, 3, 55, 64
6, 68878, Note_on_c, 3, 55, 0
6, 69120, Note_on_c, 3, 60, 64
6, 69358, Note_on_c, 3, 60, 0
6, 69600, Note_on_c, 3, 60, 64
6, 73438, Note_on_c, 3, 60, 0
6, 73440, Note_on_c, 3, 60, 64
6, 73918, Note_on_c, 3, 60, 0
6, 80160, Note_on_c, 3, 60, 64
6, 80638, Note_on_c, 3, 60, 0
6, 80880, Note_on_c, 3, 60, 64
6, 81358, Note_on_c, 3, 60, 0
6, 81600, Note_on_c, 3, 60, 64
6, 81838, Note_on_c, 3, 60, 0
6, 81840, Note_on_c, 3, 60, 64
6, 82078, Note_on_c, 3, 60, 0
6, 82080, Note_on_c, 3, 60, 64
6, 82318, Note_on_c, 3, 60, 0
6, 82320, Note_on_c, 3, 60, 64
6, 82558, Note_on_c, 3, 60, 0
6, 83040, Note_on_c, 3, 60, 64
6, 83518, Note_on_c, 3, 60, 0
6, 83760, Note_on_c, 3, 55, 64
6, 84238, Note_on_c, 3, 55, 0
6, 84480, Note_on_c, 3, 59, 64
6, 84718, Note_on_c, 3, 59, 0
6, 84720, Note_on_c, 3, 59, 64
6, 84958, Note_on_c, 3, 59, 0
6, 84960, Note_on_c, 3, 59, 64
6, 85198, Note_on_c, 3, 59, 0
6, 85200, Note_on_c, 3, 60, 64
6, 85438, Note_on_c, 3, 60, 0
6, 85680, Note_on_c, 3, 60, 64
6, 85918, Note_on_c, 3, 60, 0
6, 85920, Note_on_c, 3, 60, 64
6, 86158, Note_on_c, 3, 60, 0
6, 86160, Note_on_c, 3, 59, 64
6, 86398, Note_on_c, 3, 59, 0
6, 86400, Note_on_c, 3, 58, 64
6, 86638, Note_on_c, 3, 58, 0
6, 86640, Note_on_c, 3, 57, 64
6, 86878, Note_on_c, 3, 57, 0
6, 86880, Note_on_c, 3, 55, 64
6, 87118, Note_on_c, 3, 55, 0
6, 87120, Note_on_c, 3, 53, 64
6, 87358, Note_on_c, 3, 53, 0
6, 87360, Note_on_c, 3, 52, 64
6, 88318, Note_on_c, 3, 52, 0
6, 88560, Note_on_c, 3, 53, 64
6, 88798, Note_on_c, 3, 53, 0
6, 88800, Note_on_c, 3, 62, 64
6, 89038, Note_on_c, 3, 62, 0
6, 89280, Note_on_c, 3, 57, 64
6, 89518, Note_on_c, 3, 57, 0
6, 89520, Note_on_c, 3, 57, 64
6, 89758, Note_on_c, 3, 57, 0
6, 89760, Note_on_c, 3, 58, 64
6, 89998, Note_on_c, 3, 58, 0
6, 90000, Note_on_c, 3, 55, 64
6, 90238, Note_on_c, 3, 55, 0
6, 90240, Note_on_c, 3, 57, 64
6, 90718, Note_on_c, 3, 57, 0
6, 91440, Note_on_c, 3, 64, 64
6, 91678, Note_on_c, 3, 64, 0
6, 91680, Note_on_c, 3, 65, 64
6, 92158, Note_on_c, 3, 65, 0
6, 92880, Note_on_c, 3, 64, 64
6, 93118, Note_on_c, 3, 64, 0
6, 93120, Note_on_c, 3, 65, 64
6, 93598, Note_on_c, 3, 65, 0
6, 94320, Note_on_c, 3, 64, 64
6, 94558, Note_on_c, 3, 64, 0
6, 94560, Note_on_c, 3, 65, 64
6, 95278, Note_on_c, 3, 65, 0
6, 95280, Note_on_c, 3, 69, 64
6, 95518, Note_on_c, 3, 69, 0
6, 95760, Note_on_c, 3, 65, 64
6, 95998, Note_on_c, 3, 65, 0
6, 96000, Note_on_c, 3, 65, 64
6, 96238, Note_on_c, 3, 65, 0
6, 96240, Note_on_c, 3, 65, 64
6, 96478, Note_on_c, 3, 65, 0
6, 96480, Note_on_c, 3, 65, 64
6, 96718, Note_on_c, 3, 65, 0
6, 96720, Note_on_c, 3, 65, 64
6, 96958, Note_on_c, 3, 65, 0
6, 96960, Note_on_c, 3, 67, 64
6, 97198, Note_on_c, 3, 67, 0
6, 97200, Note_on_c, 3, 69, 64
6, 97438, Note_on_c, 3, 69, 0
6, 97440, Note_on_c, 3, 70, 64
6, 98158, Note_on_c, 3, 70, 0
6, 98880, Note_on_c, 3, 60, 64
6, 99838, Note_on_c, 3, 60, 0
6, 99840, Note_on_c, 3, 59, 64
6, 100078, Note_on_c, 3, 59, 0
6, 100080, Note_on_c, 3, 58, 64
6, 100318, Note_on_c, 3, 58, 0
6, 100320, Note_on_c, 3, 57, 64
6, 100798, Note_on_c, 3, 57, 0
6, 102000, Note_on_c, 3, 65, 64
6, 102238, Note_on_c, 3, 65, 0
6, 102240, Note_on_c, 3, 65, 64
6, 102478, Note_on_c, 3, 65, 0
6, 102480, Note_on_c, 3, 65, 64
6, 102718, Note_on_c, 3, 65, 0
6, 102720, Note_on_c, 3, 67, 64
6, 102958, Note_on_c, 3, 67, 0
6, 102960, Note_on_c, 3, 64, 64
6, 103198, Note_on_c, 3, 64, 0
6, 103200, Note_on_c, 3, 65, 64
6, 103678, Note_on_c, 3, 65, 0
6, 104880, Note_on_c, 3, 65, 64
6, 105118, Note_on_c, 3, 65, 0
6, 105120, Note_on_c, 3, 65, 64
6, 105358, Note_on_c, 3, 65, 0
6, 105360, Note_on_c, 3, 65, 64
6, 105598, Note_on_c, 3, 65, 0
6, 105600, Note_on_c, 3, 67, 64
6, 105838, Note_on_c, 3, 67, 0
6, 105840, Note_on_c, 3, 64, 64
6, 106078, Note_on_c, 3, 64, 0
6, 106080, Note_on_c, 3, 65, 64
6, 106318, Note_on_c, 3, 65, 0
6, 106320, Note_on_c, 3, 60, 64
6, 106558, Note_on_c, 3, 60, 0
6, 106560, Note_on_c, 3, 60, 64
6, 106798, Note_on_c, 3, 60, 0
6, 106800, Note_on_c, 3, 60, 64
6, 107038, Note_on_c, 3, 60, 0
6, 108480, Note_on_c, 3, 60, 64
6, 108718, Note_on_c, 3, 60, 0
6, 108960, Note_on_c, 3, 60, 64
6, 109198, Note_on_c, 3, 60, 0
6, 109440, Note_on_c, 3, 60, 64
6, 109918, Note_on_c, 3, 60, 0
6, 110400, Note_on_c, 3, 60, 64
6, 110638, Note_on_c, 3, 60, 0
6, 110880, Note_on_c, 3, 60, 64
6, 111118, Note_on_c, 3, 60, 0
6, 111360, Note_on_c, 3, 60, 64
6, 111838, Note_on_c, 3, 60, 0
6, 112320, Note_on_c, 3, 60, 64
6, 112558, Note_on_c, 3, 60, 0
6, 112800, Note_on_c, 3, 60, 64
6, 113038, Note_on_c, 3, 60, 0
6, 113280, Note_on_c, 3, 60, 64
6, 113758, Note_on_c, 3, 60, 0
6, 114240, Note_on_c, 3, 58, 64
6, 114478, Note_on_c, 3, 58, 0
6, 114720, Note_on_c, 3, 55, 64
6, 114958, Note_on_c, 3, 55, 0
6, 115200, Note_on_c, 3, 53, 64
6, 115678, Note_on_c, 3, 53, 0
6, 116160, Note_on_c, 3, 60, 64
6, 116398, Note_on_c, 3, 60, 0
6, 116640, Note_on_c, 3, 64, 64
6, 116878, Note_on_c, 3, 64, 0
6, 117120, Note_on_c, 3, 65, 64
6, 117598, Note_on_c, 3, 65, 0
6, 118080, Note_on_c, 3, 60, 64
6, 118318, Note_on_c, 3, 60, 0
6, 118560, Note_on_c, 3, 60, 64
6, 118798, Note_on_c, 3, 60, 0
6, 119040, Note_on_c, 3, 60, 64
6, 119518, Note_on_c, 3, 60, 0
6, 120000, Note_on_c, 3, 60, 64
6, 120238, Note_on_c, 3, 60, 0
6, 120480, Note_on_c, 3, 60, 64
6, 120718, Note_on_c, 3, 60, 0
6, 120960, Note_on_c, 3, 60, 64
6, 121438, Note_on_c, 3, 60, 0
6, 121920, Note_on_c, 3, 55, 64
6, 122158, Note_on_c, 3, 55, 0
6, 122400, Note_on_c, 3, 60, 64
6, 122638, Note_on_c, 3, 60, 0
6, 122880, Note_on_c, 3, 60, 64
6, 126718, Note_on_c, 3, 60, 0
6, 126720, Note_on_c, 3, 60, 64
6, 127198, Note_on_c, 3, 60, 0
6, 133440, Note_on_c, 3, 60, 64
6, 133918, Note_on_c, 3, 60, 0
6, 134160, Note_on_c, 3, 60, 64
6, 134638, Note_on_c, 3, 60, 0
6, 134880, Note_on_c, 3, 60, 64
6, 135118, Note_on_c, 3, 60, 0
6, 135120, Note_on_c, 3, 60, 64
6, 135358, Note_on_c, 3, 60, 0
6, 135360, Note_on_c, 3, 60, 64
6, 135598, Note_on_c, 3, 60, 0
6, 135600, Note_on_c, 3, 60, 64
6, 135838, Note_on_c, 3, 60, 0
6, 136320, Note_on_c, 3, 60, 64
6, 136798, Note_on_c, 3, 60, 0
6, 137040, Note_on_c, 3, 55, 64
6, 137518, Note_on_c, 3, 55, 0
6, 137760, Note_on_c, 3, 59, 64
6, 137998, Note_on_c, 3, 59, 0
6, 138000, Note_on_c, 3, 59, 64
6, 138238, Note_on_c, 3, 59, 0
6, 138240, Note_on_c, 3, 59, 64
6, 138478, Note_on_c, 3, 59, 0
6, 138480, Note_on_c, 3, 60, 64
6, 138718, Note_on_c, 3, 60, 0
6, 138960, Note_on_c, 3, 60, 64
6, 139198, Note_on_c, 3, 60, 0
6, 139200, Note_on_c, 3, 60, 64
6, 139438, Note_on_c, 3, 60, 0
6, 139440, Note_on_c, 3, 59, 64
6, 139678, Note_on_c, 3, 59, 0
6, 139680, Note_on_c, 3, 58, 64
6, 139918, Note_on_c, 3, 58, 0
6, 139920, Note_on_c, 3, 57, 64
6, 140158, Note_on_c, 3, 57, 0
6, 140160, Note_on_c, 3, 55, 64
6, 140398, Note_on_c, 3, 55, 0
6, 140400, Note_on_c, 3, 53, 64
6, 140638, Note_on_c, 3, 53, 0
6, 140640, Note_on_c, 3, 52, 64
6, 141598, Note_on_c, 3, 52, 0
6, 141840, Note_on_c, 3, 53, 64
6, 142078, Note_on_c, 3, 53, 0
6, 142080, Note_on_c, 3, 62, 64
6, 142318, Note_on_c, 3, 62, 0
6, 142560, Note_on_c, 3, 57, 64
6, 142798, Note_on_c, 3, 57, 0
6, 142800, Note_on_c, 3, 57, 64
6, 143038, Note_on_c, 3, 57, 0
6, 143040, Note_on_c, 3, 58, 64
6, 143278, Note_on_c, 3, 58, 0
6, 143280, Note_on_c, 3, 55, 64
6, 143518, Note_on_c, 3, 55, 0
6, 143520, Note_on_c, 3, 57, 64
6, 143998, Note_on_c, 3, 57, 0
6, 144720, Note_on_c, 3, 64, 64
6, 144958, Note_on_c, 3, 64, 0
6, 144960, Note_on_c, 3, 65, 64
6, 145438, Note_on_c, 3, 65, 0
6, 146160, Note_on_c, 3, 64, 64
6, 146398, Note_on_c, 3, 64, 0
6, 146400, Note_on_c, 3, 65, 64
6, 146878, Note_on_c, 3, 65, 0
6, 147600, Note_on_c, 3, 64, 64
6, 147838, Note_on_c, 3, 64, 0
6, 147840, Note_on_c, 3, 65, 64
6, 148558, Note_on_c, 3, 65, 0
6, 148560, Note_on_c, 3, 69, 64
6, 148798, Note_on_c, 3, 69, 0
6, 149040, Note_on_c, 3, 65, 64
6, 149278, Note_on_c, 3, 65, 0
6, 149280, Note_on_c, 3, 65, 64
6, 149518, Note_on_c, 3, 65, 0
6, 149520, Note_on_c, 3, 65, 64
6, 149758, Note_on_c, 3, 65, 0
6, 149760, Note_on_c, 3, 65, 64
6, 149998, Note_on_c, 3, 65, 0
6, 150000, Note_on_c, 3, 65, 64
6, 150238, Note_on_c, 3, 65, 0
6, 150240, Note_on_c, 3, 67, 64
6, 150478, Note_on_c, 3, 67, 0
6, 150480, Note_on_c, 3, 69, 64
6, 150718, Note_on_c, 3, 69, 0
6, 150720, Note_on_c, 3, 70, 64
6, 151438, Note_on_c, 3, 70, 0
6, 152160, Note_on_c, 3, 60, 64
6, 153118, Note_on_c, 3, 60, 0
6, 153120, Note_on_c, 3, 59, 64
6, 153358, Note_on_c, 3, 59, 0
6, 153360, Note_on_c, 3, 58, 64
6, 153598, Note_on_c, 3, 58, 0
6, 153600, Note_on_c, 3, 57, 64
6, 154078, Note_on_c, 3, 57, 0
6, 155280, Note_on_c, 3, 65, 64
6, 155518, Note_on_c, 3, 65, 0
6, 155520, Note_on_c, 3, 65, 64
6, 155758, Note_on_c, 3, 65, 0
6, 155760, Note_on_c, 3, 65, 64
6, 155998, Note_on_c, 3, 65, 0
6, 156000, Note_on_c, 3, 67, 64
6, 156238, Note_on_c, 3, 67, 0
6, 156240, Note_on_c, 3, 64, 64
6, 156478, Note_on_c, 3, 64, 0
6, 156480, Note_on_c, 3, 65, 64
6, 156958, Note_on_c, 3, 65, 0
6, 158160, Note_on_c, 3, 65, 64
6, 158398, Note_on_c, 3, 65, 0
6, 158400, Note_on_c, 3, 65, 64
6, 158638, Note_on_c, 3, 65, 0
6, 158640, Note_on_c, 3, 65, 64
6, 158878, Note_on_c, 3, 65, 0
6, 158880, Note_on_c, 3, 67, 64
6, 159118, Note_on_c, 3, 67, 0
6, 159120, Note_on_c, 3, 64, 64
6, 159358, Note_on_c, 3, 64, 0
6, 159360, Note_on_c, 3, 65, 64
6, 159838, Note_on_c, 3, 65, 0
6, 165600, Note_on_c, 3, 57, 75
6, 165718, Note_on_c, 3, 57, 0
6, 165720, Note_on_c, 3, 60, 75
6, 165838, Note_on_c, 3, 60, 0
6, 165840, Note_on_c, 3, 65, 74
6, 165958, Note_on_c, 3, 65, 0
6, 165960, Note_on_c, 3, 60, 74
6, 166078, Note_on_c, 3, 60, 0
6, 166080, Note_on_c, 3, 57, 74
6, 166198, Note_on_c, 3, 57, 0
6, 166200, Note_on_c, 3, 60, 73
6, 166318, Note_on_c, 3, 60, 0
6, 166320, Note_on_c, 3, 57, 73
6, 166438, Note_on_c, 3, 57, 0
6, 166440, Note_on_c, 3, 60, 72
6, 166558, Note_on_c, 3, 60, 0
6, 166560, Note_on_c, 3, 65, 72
6, 166678, Note_on_c, 3, 65, 0
6, 166680, Note_on_c, 3, 60, 72
6, 166798, Note_on_c, 3, 60, 0
6, 166800, Note_on_c, 3, 57, 72
6, 166918, Note_on_c, 3, 57, 0
6, 166920, Note_on_c, 3, 60, 71
6, 167038, Note_on_c, 3, 60, 0
6, 167040, Note_on_c, 3, 57, 71
6, 167158, Note_on_c, 3, 57, 0
6, 167160, Note_on_c, 3, 60, 71
6, 167278, Note_on_c, 3, 60, 0
6, 167280, Note_on_c, 3, 64, 70
6, 167398, Note_on_c, 3, 64, 0
6, 167400, Note_on_c, 3, 60, 70
6, 167518, Note_on_c, 3, 60, 0
6, 167520, Note_on_c, 3, 58, 69
6, 167638, Note_on_c, 3, 58, 0
6, 167640, Note_on_c, 3, 60, 69
6, 167758, Note_on_c, 3, 60, 0
6, 167760, Note_on_c, 3, 58, 69
6, 167878, Note_on_c, 3, 58, 0
6, 167880, Note_on_c, 3, 60, 69
6, 167998, Note_on_c, 3, 60, 0
6, 168000, Note_on_c, 3, 65, 68
6, 168118, Note_on_c, 3, 65, 0
6, 168120, Note_on_c, 3, 60, 68
6, 168238, Note_on_c, 3, 60, 0
6, 168240, Note_on_c, 3, 57, 67
6, 168358, Note_on_c, 3, 57, 0
6, 168360, Note_on_c, 3, 60, 67
6, 168478, Note_on_c, 3, 60, 0
6, 168480, Note_on_c, 3, 57, 67
6, 168598, Note_on_c, 3, 57, 0
6, 168600, Note_on_c, 3, 60, 66
6, 168718, Note_on_c, 3, 60, 0
6, 168720, Note_on_c, 3, 65, 66
6, 168838, Note_on_c, 3, 65, 0
6, 168840, Note_on_c, 3, 60, 65
6, 168958, Note_on_c, 3, 60, 0
6, 168960, Note_on_c, 3, 57, 65
6, 169078, Note_on_c, 3, 57, 0
6, 169080, Note_on_c, 3, 60, 65
6, 169198, Note_on_c, 3, 60, 0
6, 169200, Note_on_c, 3, 57, 65
6, 169318, Note_on_c, 3, 57, 0
6, 169320, Note_on_c, 3, 60, 64
6, 169438, Note_on_c, 3, 60, 0
6, 169440, Note_on_c, 3, 65, 64
6, 169558, Note_on_c, 3, 65, 0
6, 169560, Note_on_c, 3, 60, 64
6, 169678, Note_on_c, 3, 60, 0
6, 169680, Note_on_c, 3, 57, 64
6, 169798, Note_on_c, 3, 57, 0
6, 169800, Note_on_c, 3, 60, 64
6, 169918, Note_on_c, 3, 60, 0
6, 169920, Note_on_c, 3, 57, 64
6, 170038, Note_on_c, 3, 57, 0
6, 170040, Note_on_c, 3, 60, 64
6, 170158, Note_on_c, 3, 60, 0
6, 170160, Note_on_c, 3, 64, 64
6, 170278, Note_on_c, 3, 64, 0
6, 170280, Note_on_c, 3, 60, 64
6, 170398, Note_on_c, 3, 60, 0
6, 170400, Note_on_c, 3, 58, 64
6, 170518, Note_on_c, 3, 58, 0
6, 170520, Note_on_c, 3, 60, 64
6, 170638, Note_on_c, 3, 60, 0
6, 170640, Note_on_c, 3, 58, 64
6, 170758, Note_on_c, 3, 58, 0
6, 170760, Note_on_c, 3, 60, 64
6, 170878, Note_on_c, 3, 60, 0
6, 170880, Note_on_c, 3, 57, 64
6, 171358, Note_on_c, 3, 57, 0
6, 171358, End_track
7, 0, Start_track
7, 0, MIDI_port, 0
7, 0, Title_t, "Cellos"
7, 0, Program_c, 4, 48
7, 0, Control_c, 4, 7, 120
7, 0, Control_c, 4, 10, 112
7, 140, Control_c, 4, 91, 40
7, 145, Control_c, 4, 93, 0
7, 1920, Note_on_c, 4, 53, 74
7, 2151, Note_on_c, 4, 53, 0
7, 2400, Note_on_c, 4, 48, 80
7, 2631, Note_on_c, 4, 48, 0
7, 2880, Note_on_c, 4, 53, 85
7, 3335, Note_on_c, 4, 53, 0
7, 3840, Note_on_c, 4, 52, 96
7, 4064, Note_on_c, 4, 52, 0
7, 4320, Note_on_c, 4, 53, 92
7, 4544, Note_on_c, 4, 53, 0
7, 4800, Note_on_c, 4, 48, 88
7, 5246, Note_on_c, 4, 48, 0
7, 5760, Note_on_c, 4, 48, 80
7, 5980, Note_on_c, 4, 48, 0
7, 6240, Note_on_c, 4, 46, 81
7, 6460, Note_on_c, 4, 46, 0
7, 6720, Note_on_c, 4, 45, 84
7, 7158, Note_on_c, 4, 45, 0
7, 7680, Note_on_c, 4, 46, 73
7, 7898, Note_on_c, 4, 46, 0
7, 8160, Note_on_c, 4, 48, 69
7, 8378, Note_on_c, 4, 48, 0
7, 8640, Note_on_c, 4, 41, 65
7, 9078, Note_on_c, 4, 41, 0
7, 9600, Note_on_c, 4, 53, 65
7, 9838, Note_on_c, 4, 53, 0
7, 10080, Note_on_c, 4, 48, 65
7, 10318, Note_on_c, 4, 48, 0
7, 10560, Note_on_c, 4, 53, 66
7, 11038, Note_on_c, 4, 53, 0
7, 11520, Note_on_c, 4, 52, 68
7, 11758, Note_on_c, 4, 52, 0
7, 12000, Note_on_c, 4, 53, 68
7, 12238, Note_on_c, 4, 53, 0
7, 12480, Note_on_c, 4, 48, 68
7, 12958, Note_on_c, 4, 48, 0
7, 13440, Note_on_c, 4, 48, 72
7, 13678, Note_on_c, 4, 48, 0
7, 13920, Note_on_c, 4, 46, 76
7, 14158, Note_on_c, 4, 46, 0
7, 14400, Note_on_c, 4, 45, 75
7, 14878, Note_on_c, 4, 45, 0
7, 15360, Note_on_c, 4, 46, 72
7, 15598, Note_on_c, 4, 46, 0
7, 15840, Note_on_c, 4, 48, 70
7, 16078, Note_on_c, 4, 48, 0
7, 16320, Note_on_c, 4, 41, 68
7, 16798, Note_on_c, 4, 41, 0
7, 16800, Note_on_c, 4, 52, 66
7, 17038, Note_on_c, 4, 52, 0
7, 17280, Note_on_c, 4, 53, 64
7, 17758, Note_on_c, 4, 53, 0
7, 17760, Note_on_c, 4, 48, 65
7, 18238, Note_on_c, 4, 48, 0
7, 18240, Note_on_c, 4, 41, 67
7, 18718, Note_on_c, 4, 41, 0
7, 18960, Note_on_c, 4, 52, 69
7, 19198, Note_on_c, 4, 52, 0
7, 19200, Note_on_c, 4, 53, 64
7, 19678, Note_on_c, 4, 53, 0
7, 19680, Note_on_c, 4, 48, 62
7, 20158, Note_on_c, 4, 48, 0
7, 20160, Note_on_c, 4, 41, 59
7, 20638, Note_on_c, 4, 41, 0
7, 26880, Note_on_c, 4, 48, 64
7, 27358, Note_on_c, 4, 48, 0
7, 27600, Note_on_c, 4, 48, 64
7, 28078, Note_on_c, 4, 48, 0
7, 28320, Note_on_c, 4, 48, 64
7, 28558, Note_on_c, 4, 48, 0
7, 28560, Note_on_c, 4, 48, 64
7, 28798, Note_on_c, 4, 48, 0
7, 28800, Note_on_c, 4, 48, 64
7, 29038, Note_on_c, 4, 48, 0
7, 29040, Note_on_c, 4, 48, 64
7, 29518, Note_on_c, 4, 48, 0
7, 29760, Note_on_c, 4, 48, 64
7, 30238, Note_on_c, 4, 48, 0
7, 30480, Note_on_c, 4, 43, 64
7, 30958, Note_on_c, 4, 43, 0
7, 31200, Note_on_c, 4, 43, 64
7, 31438, Note_on_c, 4, 43, 0
7, 31440, Note_on_c, 4, 43, 64
7, 31678, Note_on_c, 4, 43, 0
7, 31680, Note_on_c, 4, 43, 64
7, 31918, Note_on_c, 4, 43, 0
7, 31920, Note_on_c, 4, 48, 64
7, 32398, Note_on_c, 4, 48, 0
7, 32640, Note_on_c, 4, 60, 64
7, 32878, Note_on_c, 4, 60, 0
7, 32880, Note_on_c, 4, 59, 64
7, 33118, Note_on_c, 4, 59, 0
7, 33120, Note_on_c, 4, 58, 64
7, 33358, Note_on_c, 4, 58, 0
7, 33360, Note_on_c, 4, 57, 64
7, 33598, Note_on_c, 4, 57, 0
7, 33600, Note_on_c, 4, 55, 64
7, 33838, Note_on_c, 4, 55, 0
7, 33840, Note_on_c, 4, 53, 64
7, 34078, Note_on_c, 4, 53, 0
7, 42960, Note_on_c, 4, 65, 64
7, 43198, Note_on_c, 4, 65, 0
7, 43200, Note_on_c, 4, 65, 64
7, 43438, Note_on_c, 4, 65, 0
7, 43440, Note_on_c, 4, 65, 64
7, 43678, Note_on_c, 4, 65, 0
7, 43680, Note_on_c, 4, 64, 64
7, 43918, Note_on_c, 4, 64, 0
7, 43920, Note_on_c, 4, 63, 64
7, 44158, Note_on_c, 4, 63, 0
7, 44160, Note_on_c, 4, 62, 64
7, 44878, Note_on_c, 4, 62, 0
7, 55200, Note_on_c, 4, 53, 64
7, 55438, Note_on_c, 4, 53, 0
7, 55680, Note_on_c, 4, 48, 64
7, 55918, Note_on_c, 4, 48, 0
7, 56160, Note_on_c, 4, 53, 64
7, 56638, Note_on_c, 4, 53, 0
7, 57120, Note_on_c, 4, 52, 64
7, 57358, Note_on_c, 4, 52, 0
7, 57600, Note_on_c, 4, 53, 64
7, 57838, Note_on_c, 4, 53, 0
7, 58080, Note_on_c, 4, 48, 64
7, 58558, Note_on_c, 4, 48, 0
7, 59040, Note_on_c, 4, 48, 64
7, 59278, Note_on_c, 4, 48, 0
7, 59520, Note_on_c, 4, 46, 64
7, 59758, Note_on_c, 4, 46, 0
7, 60000, Note_on_c, 4, 45, 64
7, 60478, Note_on_c, 4, 45, 0
7, 60960, Note_on_c, 4, 46, 64
7, 61198, Note_on_c, 4, 46, 0
7, 61440, Note_on_c, 4, 48, 64
7, 61678, Note_on_c, 4, 48, 0
7, 61920, Note_on_c, 4, 41, 64
7, 62398, Note_on_c, 4, 41, 0
7, 62880, Note_on_c, 4, 53, 64
7, 63118, Note_on_c, 4, 53, 0
7, 63360, Note_on_c, 4, 48, 64
7, 63598, Note_on_c, 4, 48, 0
7, 63840, Note_on_c, 4, 53, 64
7, 64318, Note_on_c, 4, 53, 0
7, 64800, Note_on_c, 4, 52, 64
7, 65038, Note_on_c, 4, 52, 0
7, 65280, Note_on_c, 4, 53, 64
7, 65518, Note_on_c, 4, 53, 0
7, 65760, Note_on_c, 4, 48, 64
7, 66238, Note_on_c, 4, 48, 0
7, 66720, Note_on_c, 4, 48, 64
7, 66958, Note_on_c, 4, 48, 0
7, 67200, Note_on_c, 4, 46, 64
7, 67438, Note_on_c, 4, 46, 0
7, 67680, Note_on_c, 4, 45, 64
7, 68158, Note_on_c, 4, 45, 0
7, 68640, Note_on_c, 4, 46, 64
7, 68878, Note_on_c, 4, 46, 0
7, 69120, Note_on_c, 4, 48, 64
7, 69358, Note_on_c, 4, 48, 0
7, 69600, Note_on_c, 4, 41, 64
7, 70078, Note_on_c, 4, 41, 0
7, 70080, Note_on_c, 4, 52, 64
7, 70318, Note_on_c, 4, 52, 0
7, 70560, Note_on_c, 4, 53, 64
7, 71038, Note_on_c, 4, 53, 0
7, 71040, Note_on_c, 4, 48, 64
7, 71518, Note_on_c, 4, 48, 0
7, 71520, Note_on_c, 4, 41, 64
7, 71998, Note_on_c, 4, 41, 0
7, 72240, Note_on_c, 4, 52, 64
7, 72478, Note_on_c, 4, 52, 0
7, 72480, Note_on_c, 4, 53, 64
7, 72958, Note_on_c, 4, 53, 0
7, 72960, Note_on_c, 4, 48, 64
7, 73438, Note_on_c, 4, 48, 0
7, 73440, Note_on_c, 4, 41, 64
7, 73918, Note_on_c, 4, 41, 0
7, 80160, Note_on_c, 4, 48, 64
7, 80638, Note_on_c, 4, 48, 0
7, 80880, Note_on_c, 4, 48, 64
7, 81358, Note_on_c, 4, 48, 0
7, 81600, Note_on_c, 4, 48, 64
7, 81838, Note_on_c, 4, 48, 0
7, 81840, Note_on_c, 4, 48, 64
7, 82078, Note_on_c, 4, 48, 0
7, 82080, Note_on_c, 4, 48, 64
7, 82318, Note_on_c, 4, 48, 0
7, 82320, Note_on_c, 4, 48, 64
7, 82798, Note_on_c, 4, 48, 0
7, 83040, Note_on_c, 4, 48, 64
7, 83518, Note_on_c, 4, 48, 0
7, 83760, Note_on_c, 4, 43, 64
7, 84238, Note_on_c, 4, 43, 0
7, 84480, Note_on_c, 4, 43, 64
7, 84718, Note_on_c, 4, 43, 0
7, 84720, Note_on_c, 4, 43, 64
7, 84958, Note_on_c, 4, 43, 0
7, 84960, Note_on_c, 4, 43, 64
7, 85198, Note_on_c, 4, 43, 0
7, 85200, Note_on_c, 4, 48, 64
7, 85678, Note_on_c, 4, 48, 0
7, 85920, Note_on_c, 4, 60, 64
7, 86158, Note_on_c, 4, 60, 0
7, 86160, Note_on_c, 4, 59, 64
7, 86398, Note_on_c, 4, 59, 0
7, 86400, Note_on_c, 4, 58, 64
7, 86638, Note_on_c, 4, 58, 0
7, 86640, Note_on_c, 4, 57, 64
7, 86878, Note_on_c, 4, 57, 0
7, 86880, Note_on_c, 4, 55, 64
7, 87118, Note_on_c, 4, 55, 0
7, 87120, Note_on_c, 4, 53, 64
7, 87358, Note_on_c, 4, 53, 0
7, 96240, Note_on_c, 4, 65, 64
7, 96478, Note_on_c, 4, 65, 0
7, 96480, Note_on_c, 4, 65, 64
7, 96718, Note_on_c, 4, 65, 0
7, 96720, Note_on_c, 4, 65, 64
7, 96958, Note_on_c, 4, 65, 0
7, 96960, Note_on_c, 4, 64, 64
7, 97198, Note_on_c, 4, 64, 0
7, 97200, Note_on_c, 4, 63, 64
7, 97438, Note_on_c, 4, 63, 0
7, 97440, Note_on_c, 4, 62, 64
7, 98158, Note_on_c, 4, 62, 0
7, 108480, Note_on_c, 4, 53, 64
7, 108718, Note_on_c, 4, 53, 0
7, 108960, Note_on_c, 4, 48, 64
7, 109198, Note_on_c, 4, 48, 0
7, 109440, Note_on_c, 4, 53, 64
7, 109918, Note_on_c, 4, 53, 0
7, 110400, Note_on_c, 4, 52, 64
7, 110638, Note_on_c, 4, 52, 0
7, 110880, Note_on_c, 4, 53, 64
7, 111118, Note_on_c, 4, 53, 0
7, 111360, Note_on_c, 4, 48, 64
7, 111838, Note_on_c, 4, 48, 0
7, 112320, Note_on_c, 4, 48, 64
7, 112558, Note_on_c, 4, 48, 0
7, 112800, Note_on_c, 4, 46, 64
7, 113038, Note_on_c, 4, 46, 0
7, 113280, Note_on_c, 4, 45, 64
7, 113758, Note_on_c, 4, 45, 0
7, 114240, Note_on_c, 4, 46, 64
7, 114478, Note_on_c, 4, 46, 0
7, 114720, Note_on_c, 4, 48, 64
7, 114958, Note_on_c, 4, 48, 0
7, 115200, Note_on_c, 4, 41, 64
7, 115678, Note_on_c, 4, 41, 0
7, 116160, Note_on_c, 4, 53, 64
7, 116398, Note_on_c, 4, 53, 0
7, 116640, Note_on_c, 4, 48, 64
7, 116878, Note_on_c, 4, 48, 0
7, 117120, Note_on_c, 4, 53, 64
7, 117598, Note_on_c, 4, 53, 0
7, 118080, Note_on_c, 4, 52, 64
7, 118318, Note_on_c, 4, 52, 0
7, 118560, Note_on_c, 4, 53, 64
7, 118798, Note_on_c, 4, 53, 0
7, 119040, Note_on_c, 4, 48, 64
7, 119518, Note_on_c, 4, 48, 0
7, 120000, Note_on_c, 4, 48, 64
7, 120238, Note_on_c, 4, 48, 0
7, 120480, Note_on_c, 4, 46, 64
7, 120718, Note_on_c, 4, 46, 0
7, 120960, Note_on_c, 4, 45, 64
7, 121438, Note_on_c, 4, 45, 0
7, 121920, Note_on_c, 4, 46, 64
7, 122158, Note_on_c, 4, 46, 0
7, 122400, Note_on_c, 4, 48, 64
7, 122638, Note_on_c, 4, 48, 0
7, 122880, Note_on_c, 4, 41, 64
7, 123358, Note_on_c, 4, 41, 0
7, 123360, Note_on_c, 4, 52, 64
7, 123598, Note_on_c, 4, 52, 0
7, 123840, Note_on_c, 4, 53, 64
7, 124318, Note_on_c, 4, 53, 0
7, 124320, Note_on_c, 4, 48, 64
7, 124798, Note_on_c, 4, 48, 0
7, 124800, Note_on_c, 4, 41, 64
7, 125278, Note_on_c, 4, 41, 0
7, 125520, Note_on_c, 4, 52, 64
7, 125758, Note_on_c, 4, 52, 0
7, 125760, Note_on_c, 4, 53, 64
7, 126238, Note_on_c, 4, 53, 0
7, 126240, Note_on_c, 4, 48, 64
7, 126718, Note_on_c, 4, 48, 0
7, 126720, Note_on_c, 4, 41, 64
7, 127198, Note_on_c, 4, 41, 0
7, 133440, Note_on_c, 4, 48, 64
7, 133918, Note_on_c, 4, 48, 0
7, 134160, Note_on_c, 4, 48, 64
7, 134638, Note_on_c, 4, 48, 0
7, 134880, Note_on_c, 4, 48, 64
7, 135118, Note_on_c, 4, 48, 0
7, 135120, Note_on_c, 4, 48, 64
7, 135358, Note_on_c, 4, 48, 0
7, 135360, Note_on_c, 4, 48, 64
7, 135598, Note_on_c, 4, 48, 0
7, 135600, Note_on_c, 4, 48, 64
7, 136078, Note_on_c, 4, 48, 0
7, 136320, Note_on_c, 4, 48, 64
7, 136798, Note_on_c, 4, 48, 0
7, 137040, Note_on_c, 4, 43, 64
7, 137518, Note_on_c, 4, 43, 0
7, 137760, Note_on_c, 4, 43, 64
7, 137998, Note_on_c, 4, 43, 0
7, 138000, Note_on_c, 4, 43, 64
7, 138238, Note_on_c, 4, 43, 0
7, 138240, Note_on_c, 4, 43, 64
7, 138478, Note_on_c, 4, 43, 0
7, 138480, Note_on_c, 4, 48, 64
7, 138958, Note_on_c, 4, 48, 0
7, 139200, Note_on_c, 4, 60, 64
7, 139438, Note_on_c, 4, 60, 0
7, 139440, Note_on_c, 4, 59, 64
7, 139678, Note_on_c, 4, 59, 0
7, 139680, Note_on_c, 4, 58, 64
7, 139918, Note_on_c, 4, 58, 0
7, 139920, Note_on_c, 4, 57, 64
7, 140158, Note_on_c, 4, 57, 0
7, 140160, Note_on_c, 4, 55, 64
7, 140398, Note_on_c, 4, 55, 0
7, 140400, Note_on_c, 4, 53, 64
7, 140638, Note_on_c, 4, 53, 0
7, 149520, Note_on_c, 4, 65, 64
7, 149758, Note_on_c, 4, 65, 0
7, 149760, Note_on_c, 4, 65, 64
7, 149998, Note_on_c, 4, 65, 0
7, 150000, Note_on_c, 4, 65, 64
7, 150238, Note_on_c, 4, 65, 0
7, 150240, Note_on_c, 4, 64, 64
7, 150478, Note_on_c, 4, 64, 0
7, 150480, Note_on_c, 4, 63, 64
7, 150718, Note_on_c, 4, 63, 0
7, 150720, Note_on_c, 4, 62, 64
7, 151438, Note_on_c, 4, 62, 0
7, 165600, Note_on_c, 4, 53, 75
7, 165838, Note_on_c, 4, 53, 0
7, 165840, Note_on_c, 4, 53, 74
7, 166078, Note_on_c, 4, 53, 0
7, 166080, Note_on_c, 4, 53, 74
7, 166318, Note_on_c, 4, 53, 0
7, 166320, Note_on_c, 4, 53, 73
7, 166558, Note_on_c, 4, 53, 0
7, 166560, Note_on_c, 4, 53, 72
7, 166798, Note_on_c, 4, 53, 0
7, 166800, Note_on_c, 4, 53, 72
7, 167038, Note_on_c, 4, 53, 0
7, 167040, Note_on_c, 4, 53, 71
7, 167278, Note_on_c, 4, 53, 0
7, 167280, Note_on_c, 4, 48, 70
7, 167518, Note_on_c, 4, 48, 0
7, 167520, Note_on_c, 4, 48, 69
7, 167758, Note_on_c, 4, 48, 0
7, 167760, Note_on_c, 4, 48, 69
7, 167998, Note_on_c, 4, 48, 0
7, 168000, Note_on_c, 4, 53, 68
7, 168238, Note_on_c, 4, 53, 0
7, 168480, Note_on_c, 4, 53, 67
7, 168718, Note_on_c, 4, 53, 0
7, 168720, Note_on_c, 4, 53, 66
7, 168958, Note_on_c, 4, 53, 0
7, 168960, Note_on_c, 4, 53, 65
7, 169198, Note_on_c, 4, 53, 0
7, 169200, Note_on_c, 4, 53, 65
7, 169438, Note_on_c, 4, 53, 0
7, 169440, Note_on_c, 4, 53, 64
7, 169678, Note_on_c, 4, 53, 0
7, 169680, Note_on_c, 4, 53, 64
7, 169918, Note_on_c, 4, 53, 0
7, 169920, Note_on_c, 4, 53, 64
7, 170158, Note_on_c, 4, 53, 0
7, 170160, Note_on_c, 4, 48, 64
7, 170398, Note_on_c, 4, 48, 0
7, 170400, Note_on_c, 4, 48, 64
7, 170638, Note_on_c, 4, 48, 0
7, 170640, Note_on_c, 4, 48, 64
7, 170878, Note_on_c, 4, 48, 0
7, 170880, Note_on_c, 4, 41, 64
7, 171358, Note_on_c, 4, 41, 0
7, 171358, End_track
8, 0, Start_track
8, 0, MIDI_port, 0
8, 0, Title_t, "Contabasses"
8, 0, Program_c, 5, 48
8, 0, Control_c, 5, 7, 120
8, 0, Control_c, 5, 10, 95
8, 175, Control_c, 5, 91, 40
8, 180, Control_c, 5, 93, 0
8, 1920, Note_on_c, 5, 41, 74
8, 2151, Note_on_c, 5, 41, 0
8, 2400, Note_on_c, 5, 36, 80
8, 2631, Note_on_c, 5, 36, 0
8, 2880, Note_on_c, 5, 41, 85
8, 3335, Note_on_c, 5, 41, 0
8, 3840, Note_on_c, 5, 40, 96
8, 4064, Note_on_c, 5, 40, 0
8, 4320, Note_on_c, 5, 41, 92
8, 4544, Note_on_c, 5, 41, 0
8, 4800, Note_on_c, 5, 36, 88
8, 5246, Note_on_c, 5, 36, 0
8, 5760, Note_on_c, 5, 36, 80
8, 5980, Note_on_c, 5, 36, 0
8, 6240, Note_on_c, 5, 34, 81
8, 6460, Note_on_c, 5, 34, 0
8, 6720, Note_on_c, 5, 33, 84
8, 7158, Note_on_c, 5, 33, 0
8, 7680, Note_on_c, 5, 34, 73
8, 7898, Note_on_c, 5, 34, 0
8, 8160, Note_on_c, 5, 36, 69
8, 8378, Note_on_c, 5, 36, 0
8, 8640, Note_on_c, 5, 29, 65
8, 9078, Note_on_c, 5, 29, 0
8, 9600, Note_on_c, 5, 41, 65
8, 9838, Note_on_c, 5, 41, 0
8, 10080, Note_on_c, 5, 36, 65
8, 10318, Note_on_c, 5, 36, 0
8, 10560, Note_on_c, 5, 41, 66
8, 11038, Note_on_c, 5, 41, 0
8, 11520, Note_on_c, 5, 40, 68
8, 11758, Note_on_c, 5, 40, 0
8, 12000, Note_on_c, 5, 41, 68
8, 12238, Note_on_c, 5, 41, 0
8, 12480, Note_on_c, 5, 36, 68
8, 12958, Note_on_c, 5, 36, 0
8, 13440, Note_on_c, 5, 36, 72
8, 13678, Note_on_c, 5, 36, 0
8, 13920, Note_on_c, 5, 34, 76
8, 14158, Note_on_c, 5, 34, 0
8, 14400, Note_on_c, 5, 33, 75
8, 14878, Note_on_c, 5, 33, 0
8, 15360, Note_on_c, 5, 34, 72
8, 15598, Note_on_c, 5, 34, 0
8, 15840, Note_on_c, 5, 36, 70
8, 16078, Note_on_c, 5, 36, 0
8, 16320, Note_on_c, 5, 29, 68
8, 16798, Note_on_c, 5, 29, 0
8, 16800, Note_on_c, 5, 40, 66
8, 17038, Note_on_c, 5, 40, 0
8, 17280, Note_on_c, 5, 41, 64
8, 17758, Note_on_c, 5, 41, 0
8, 17760, Note_on_c, 5, 36, 65
8, 18238, Note_on_c, 5, 36, 0
8, 18240, Note_on_c, 5, 29, 67
8, 18718, Note_on_c, 5, 29, 0
8, 18960, Note_on_c, 5, 40, 69
8, 19198, Note_on_c, 5, 40, 0
8, 19200, Note_on_c, 5, 41, 64
8, 19678, Note_on_c, 5, 41, 0
8, 19680, Note_on_c, 5, 36, 62
8, 20158, Note_on_c, 5, 36, 0
8, 20160, Note_on_c, 5, 29, 59
8, 20638, Note_on_c, 5, 29, 0
8, 26880, Note_on_c, 5, 36, 64
8, 27358, Note_on_c, 5, 36, 0
8, 27600, Note_on_c, 5, 36, 64
8, 28078, Note_on_c, 5, 36, 0
8, 28320, Note_on_c, 5, 36, 64
8, 28558, Note_on_c, 5, 36, 0
8, 28560, Note_on_c, 5, 36, 64
8, 28798, Note_on_c, 5, 36, 0
8, 28800, Note_on_c, 5, 36, 64
8, 29038, Note_on_c, 5, 36, 0
8, 29040, Note_on_c, 5, 36, 64
8, 29518, Note_on_c, 5, 36, 0
8, 29760, Note_on_c, 5, 36, 64
8, 30238, Note_on_c, 5, 36, 0
8, 30480, Note_on_c, 5, 31, 64
8, 30958, Note_on_c, 5, 31, 0
8, 31200, Note_on_c, 5, 31, 64
8, 31438, Note_on_c, 5, 31, 0
8, 31440, Note_on_c, 5, 31, 64
8, 31678, Note_on_c, 5, 31, 0
8, 31680, Note_on_c, 5, 31, 64
8, 31918, Note_on_c, 5, 31, 0
8, 31920, Note_on_c, 5, 36, 64
8, 32398, Note_on_c, 5, 36, 0
8, 34080, Note_on_c, 5, 36, 64
8, 34080, Note_on_c, 5, 40, 64
8, 35038, Note_on_c, 5, 40, 0
8, 35038, Note_on_c, 5, 36, 0
8, 35280, Note_on_c, 5, 38, 64
8, 35518, Note_on_c, 5, 38, 0
8, 35520, Note_on_c, 5, 34, 64
8, 35758, Note_on_c, 5, 34, 0
8, 36240, Note_on_c, 5, 36, 64
8, 36478, Note_on_c, 5, 36, 0
8, 36960, Note_on_c, 5, 29, 64
8, 37438, Note_on_c, 5, 29, 0
8, 38160, Note_on_c, 5, 36, 64
8, 38398, Note_on_c, 5, 36, 0
8, 38400, Note_on_c, 5, 41, 64
8, 38878, Note_on_c, 5, 41, 0
8, 39600, Note_on_c, 5, 36, 64
8, 39838, Note_on_c, 5, 36, 0
8, 39840, Note_on_c, 5, 41, 64
8, 40318, Note_on_c, 5, 41, 0
8, 41040, Note_on_c, 5, 36, 64
8, 41278, Note_on_c, 5, 36, 0
8, 41280, Note_on_c, 5, 41, 64
8, 41998, Note_on_c, 5, 41, 0
8, 42480, Note_on_c, 5, 41, 64
8, 42718, Note_on_c, 5, 41, 0
8, 42720, Note_on_c, 5, 41, 64
8, 42958, Note_on_c, 5, 41, 0
8, 42960, Note_on_c, 5, 41, 64
8, 43198, Note_on_c, 5, 41, 0
8, 43200, Note_on_c, 5, 41, 64
8, 43438, Note_on_c, 5, 41, 0
8, 43440, Note_on_c, 5, 41, 64
8, 43678, Note_on_c, 5, 41, 0
8, 43680, Note_on_c, 5, 41, 64
8, 43918, Note_on_c, 5, 41, 0
8, 43920, Note_on_c, 5, 41, 64
8, 44158, Note_on_c, 5, 41, 0
8, 44160, Note_on_c, 5, 34, 64
8, 44878, Note_on_c, 5, 34, 0
8, 45600, Note_on_c, 5, 36, 64
8, 46078, Note_on_c, 5, 36, 0
8, 46320, Note_on_c, 5, 36, 64
8, 46798, Note_on_c, 5, 36, 0
8, 47040, Note_on_c, 5, 41, 64
8, 47518, Note_on_c, 5, 41, 0
8, 49200, Note_on_c, 5, 36, 64
8, 49438, Note_on_c, 5, 36, 0
8, 49440, Note_on_c, 5, 36, 64
8, 49678, Note_on_c, 5, 36, 0
8, 49680, Note_on_c, 5, 36, 64
8, 49918, Note_on_c, 5, 36, 0
8, 49920, Note_on_c, 5, 41, 64
8, 50398, Note_on_c, 5, 41, 0
8, 52080, Note_on_c, 5, 36, 64
8, 52318, Note_on_c, 5, 36, 0
8, 52320, Note_on_c, 5, 36, 64
8, 52558, Note_on_c, 5, 36, 0
8, 52560, Note_on_c, 5, 36, 64
8, 52798, Note_on_c, 5, 36, 0
8, 52800, Note_on_c, 5, 41, 64
8, 53038, Note_on_c, 5, 41, 0
8, 53040, Note_on_c, 5, 29, 64
8, 53278, Note_on_c, 5, 29, 0
8, 53280, Note_on_c, 5, 29, 64
8, 53518, Note_on_c, 5, 29, 0
8, 53520, Note_on_c, 5, 29, 64
8, 53758, Note_on_c, 5, 29, 0
8, 55200, Note_on_c, 5, 41, 64
8, 55438, Note_on_c, 5, 41, 0
8, 55680, Note_on_c, 5, 36, 64
8, 55918, Note_on_c, 5, 36, 0
8, 56160, Note_on_c, 5, 41, 64
8, 56638, Note_on_c, 5, 41, 0
8, 57120, Note_on_c, 5, 40, 64
8, 57358, Note_on_c, 5, 40, 0
8, 57600, Note_on_c, 5, 41, 64
8, 57838, Note_on_c, 5, 41, 0
8, 58080, Note_on_c, 5, 36, 64
8, 58558, Note_on_c, 5, 36, 0
8, 59040, Note_on_c, 5, 36, 64
8, 59278, Note_on_c, 5, 36, 0
8, 59520, Note_on_c, 5, 34, 64
8, 59758, Note_on_c, 5, 34, 0
8, 60000, Note_on_c, 5, 33, 64
8, 60478, Note_on_c, 5, 33, 0
8, 60960, Note_on_c, 5, 34, 64
8, 61198, Note_on_c, 5, 34, 0
8, 61440, Note_on_c, 5, 36, 64
8, 61678, Note_on_c, 5, 36, 0
8, 61920, Note_on_c, 5, 29, 64
8, 62398, Note_on_c, 5, 29, 0
8, 62880, Note_on_c, 5, 41, 64
8, 63118, Note_on_c, 5, 41, 0
8, 63360, Note_on_c, 5, 36, 64
8, 63598, Note_on_c, 5, 36, 0
8, 63840, Note_on_c, 5, 41, 64
8, 64318, Note_on_c, 5, 41, 0
8, 64800, Note_on_c, 5, 40, 64
8, 65038, Note_on_c, 5, 40, 0
8, 65280, Note_on_c, 5, 41, 64
8, 65518, Note_on_c, 5, 41, 0
8, 65760, Note_on_c, 5, 36, 64
8, 66238, Note_on_c, 5, 36, 0
8, 66720, Note_on_c, 5, 36, 64
8, 66958, Note_on_c, 5, 36, 0
8, 67200, Note_on_c, 5, 34, 64
8, 67438, Note_on_c, 5, 34, 0
8, 67680, Note_on_c, 5, 33, 64
8, 68158, Note_on_c, 5, 33, 0
8, 68640, Note_on_c, 5, 34, 64
8, 68878, Note_on_c, 5, 34, 0
8, 69120, Note_on_c, 5, 36, 64
8, 69358, Note_on_c, 5, 36, 0
8, 69600, Note_on_c, 5, 29, 64
8, 70078, Note_on_c, 5, 29, 0
8, 70080, Note_on_c, 5, 40, 64
8, 70318, Note_on_c, 5, 40, 0
8, 70560, Note_on_c, 5, 41, 64
8, 71038, Note_on_c, 5, 41, 0
8, 71040, Note_on_c, 5, 36, 64
8, 71518, Note_on_c, 5, 36, 0
8, 71520, Note_on_c, 5, 29, 64
8, 71998, Note_on_c, 5, 29, 0
8, 72240, Note_on_c, 5, 40, 64
8, 72478, Note_on_c, 5, 40, 0
8, 72480, Note_on_c, 5, 41, 64
8, 72958, Note_on_c, 5, 41, 0
8, 72960, Note_on_c, 5, 36, 64
8, 73438, Note_on_c, 5, 36, 0
8, 73440, Note_on_c, 5, 29, 64
8, 73918, Note_on_c, 5, 29, 0
8, 80160, Note_on_c, 5, 36, 64
8, 80638, Note_on_c, 5, 36, 0
8, 80880, Note_on_c, 5, 36, 64
8, 81358, Note_on_c, 5, 36, 0
8, 81600, Note_on_c, 5, 36, 64
8, 81838, Note_on_c, 5, 36, 0
8, 81840, Note_on_c, 5, 36, 64
8, 82078, Note_on_c, 5, 36, 0
8, 82080, Note_on_c, 5, 36, 64
8, 82318, Note_on_c, 5, 36, 0
8, 82320, Note_on_c, 5, 36, 64
8, 82798, Note_on_c, 5, 36, 0
8, 83040, Note_on_c, 5, 36, 64
8, 83518, Note_on_c, 5, 36, 0
8, 83760, Note_on_c, 5, 31, 64
8, 84238, Note_on_c, 5, 31, 0
8, 84480, Note_on_c, 5, 31, 64
8, 84718, Note_on_c, 5, 31, 0
8, 84720, Note_on_c, 5, 31, 64
8, 84958, Note_on_c, 5, 31, 0
8, 84960, Note_on_c, 5, 31, 64
8, 85198, Note_on_c, 5, 31, 0
8, 85200, Note_on_c, 5, 36, 64
8, 85678, Note_on_c, 5, 36, 0
8, 87360, Note_on_c, 5, 40, 64
8, 87360, Note_on_c, 5, 36, 64
8, 88318, Note_on_c, 5, 36, 0
8, 88318, Note_on_c, 5, 40, 0
8, 88560, Note_on_c, 5, 38, 64
8, 88798, Note_on_c, 5, 38, 0
8, 88800, Note_on_c, 5, 34, 64
8, 89038, Note_on_c, 5, 34, 0
8, 89520, Note_on_c, 5, 36, 64
8, 89758, Note_on_c, 5, 36, 0
8, 90240, Note_on_c, 5, 29, 64
8, 90718, Note_on_c, 5, 29, 0
8, 91440, Note_on_c, 5, 36, 64
8, 91678, Note_on_c, 5, 36, 0
8, 91680, Note_on_c, 5, 41, 64
8, 92158, Note_on_c, 5, 41, 0
8, 92880, Note_on_c, 5, 36, 64
8, 93118, Note_on_c, 5, 36, 0
8, 93120, Note_on_c, 5, 41, 64
8, 93598, Note_on_c, 5, 41, 0
8, 94320, Note_on_c, 5, 36, 64
8, 94558, Note_on_c, 5, 36, 0
8, 94560, Note_on_c, 5, 41, 64
8, 95278, Note_on_c, 5, 41, 0
8, 95760, Note_on_c, 5, 41, 64
8, 95998, Note_on_c, 5, 41, 0
8, 96000, Note_on_c, 5, 41, 64
8, 96238, Note_on_c, 5, 41, 0
8, 96240, Note_on_c, 5, 41, 64
8, 96478, Note_on_c, 5, 41, 0
8, 96480, Note_on_c, 5, 41, 64
8, 96718, Note_on_c, 5, 41, 0
8, 96720, Note_on_c, 5, 41, 64
8, 96958, Note_on_c, 5, 41, 0
8, 96960, Note_on_c, 5, 41, 64
8, 97198, Note_on_c, 5, 41, 0
8, 97200, Note_on_c, 5, 41, 64
8, 97438, Note_on_c, 5, 41, 0
8, 97440, Note_on_c, 5, 34, 64
8, 98158, Note_on_c, 5, 34, 0
8, 98880, Note_on_c, 5, 36, 64
8, 99358, Note_on_c, 5, 36, 0
8, 99600, Note_on_c, 5, 36, 64
8, 100078, Note_on_c, 5, 36, 0
8, 100320, Note_on_c, 5, 41, 64
8, 100798, Note_on_c, 5, 41, 0
8, 102480, Note_on_c, 5, 36, 64
8, 102718, Note_on_c, 5, 36, 0
8, 102720, Note_on_c, 5, 36, 64
8, 102958, Note_on_c, 5, 36, 0
8, 102960, Note_on_c, 5, 36, 64
8, 103198, Note_on_c, 5, 36, 0
8, 103200, Note_on_c, 5, 41, 64
8, 103678, Note_on_c, 5, 41, 0
8, 105360, Note_on_c, 5, 36, 64
8, 105598, Note_on_c, 5, 36, 0
8, 105600, Note_on_c, 5, 36, 64
8, 105838, Note_on_c, 5, 36, 0
8, 105840, Note_on_c, 5, 36, 64
8, 106078, Note_on_c, 5, 36, 0
8, 106080, Note_on_c, 5, 41, 64
8, 106318, Note_on_c, 5, 41, 0
8, 106320, Note_on_c, 5, 29, 64
8, 106558, Note_on_c, 5, 29, 0
8, 106560, Note_on_c, 5, 29, 64
8, 106798, Note_on_c, 5, 29, 0
8, 106800, Note_on_c, 5, 29, 64
8, 107038, Note_on_c, 5, 29, 0
8, 108480, Note_on_c, 5, 41, 64
8, 108718, Note_on_c, 5, 41, 0
8, 108960, Note_on_c, 5, 36, 64
8, 109198, Note_on_c, 5, 36, 0
8, 109440, Note_on_c, 5, 41, 64
8, 109918, Note_on_c, 5, 41, 0
8, 110400, Note_on_c, 5, 40, 64
8, 110638, Note_on_c, 5, 40, 0
8, 110880, Note_on_c, 5, 41, 64
8, 111118, Note_on_c, 5, 41, 0
8, 111360, Note_on_c, 5, 36, 64
8, 111838, Note_on_c, 5, 36, 0
8, 112320, Note_on_c, 5, 36, 64
8, 112558, Note_on_c, 5, 36, 0
8, 112800, Note_on_c, 5, 34, 64
8, 113038, Note_on_c, 5, 34, 0
8, 113280, Note_on_c, 5, 33, 64
8, 113758, Note_on_c, 5, 33, 0
8, 114240, Note_on_c, 5, 34, 64
8, 114478, Note_on_c, 5, 34, 0
8, 114720, Note_on_c, 5, 36, 64
8, 114958, Note_on_c, 5, 36, 0
8, 115200, Note_on_c, 5, 29, 64
8, 115678, Note_on_c, 5, 29, 0
8, 116160, Note_on_c, 5, 41, 64
8, 116398, Note_on_c, 5, 41, 0
8, 116640, Note_on_c, 5, 36, 64
8, 116878, Note_on_c, 5, 36, 0
8, 117120, Note_on_c, 5, 41, 64
8, 117598, Note_on_c, 5, 41, 0
8, 118080, Note_on_c, 5, 40, 64
8, 118318, Note_on_c, 5, 40, 0
8, 118560, Note_on_c, 5, 41, 64
8, 118798, Note_on_c, 5, 41, 0
8, 119040, Note_on_c, 5, 36, 64
8, 119518, Note_on_c, 5, 36, 0
8, 120000, Note_on_c, 5, 36, 64
8, 120238, Note_on_c, 5, 36, 0
8, 120480, Note_on_c, 5, 34, 64
8, 120718, Note_on_c, 5, 34, 0
8, 120960, Note_on_c, 5, 33, 64
8, 121438, Note_on_c, 5, 33, 0
8, 121920, Note_on_c, 5, 34, 64
8, 122158, Note_on_c, 5, 34, 0
8, 122400, Note_on_c, 5, 36, 64
8, 122638, Note_on_c, 5, 36, 0
8, 122880, Note_on_c, 5, 29, 64
8, 123358, Note_on_c, 5, 29, 0
8, 123360, Note_on_c, 5, 40, 64
8, 123598, Note_on_c, 5, 40, 0
8, 123840, Note_on_c, 5, 41, 64
8, 124318, Note_on_c, 5, 41, 0
8, 124320, Note_on_c, 5, 36, 64
8, 124798, Note_on_c, 5, 36, 0
8, 124800, Note_on_c, 5, 29, 64
8, 125278, Note_on_c, 5, 29, 0
8, 125520, Note_on_c, 5, 40, 64
8, 125758, Note_on_c, 5, 40, 0
8, 125760, Note_on_c, 5, 41, 64
8, 126238, Note_on_c, 5, 41, 0
8, 126240, Note_on_c, 5, 36, 64
8, 126718, Note_on_c, 5, 36, 0
8, 126720, Note_on_c, 5, 29, 64
8, 127198, Note_on_c, 5, 29, 0
8, 133440, Note_on_c, 5, 36, 64
8, 133918, Note_on_c, 5, 36, 0
8, 134160, Note_on_c, 5, 36, 64
8, 134638, Note_on_c, 5, 36, 0
8, 134880, Note_on_c, 5, 36, 64
8, 135118, Note_on_c, 5, 36, 0
8, 135120, Note_on_c, 5, 36, 64
8, 135358, Note_on_c, 5, 36, 0
8, 135360, Note_on_c, 5, 36, 64
8, 135598, Note_on_c, 5, 36, 0
8, 135600, Note_on_c, 5, 36, 64
8, 136078, Note_on_c, 5, 36, 0
8, 136320, Note_on_c, 5, 36, 64
8, 136798, Note_on_c, 5, 36, 0
8, 137040, Note_on_c, 5, 31, 64
8, 137518, Note_on_c, 5, 31, 0
8, 137760, Note_on_c, 5, 31, 64
8, 137998, Note_on_c, 5, 31, 0
8, 138000, Note_on_c, 5, 31, 64
8, 138238, Note_on_c, 5, 31, 0
8, 138240, Note_on_c, 5, 31, 64
8, 138478, Note_on_c, 5, 31, 0
8, 138480, Note_on_c, 5, 36, 64
8, 138958, Note_on_c, 5, 36, 0
8, 140640, Note_on_c, 5, 40, 64
8, 140640, Note_on_c, 5, 36, 64
8, 141598, Note_on_c, 5, 36, 0
8, 141598, Note_on_c, 5, 40, 0
8, 141840, Note_on_c, 5, 38, 64
8, 142078, Note_on_c, 5, 38, 0
8, 142080, Note_on_c, 5, 34, 64
8, 142318, Note_on_c, 5, 34, 0
8, 142800, Note_on_c, 5, 36, 64
8, 143038, Note_on_c, 5, 36, 0
8, 143520, Note_on_c, 5, 29, 64
8, 143998, Note_on_c, 5, 29, 0
8, 144720, Note_on_c, 5, 36, 64
8, 144958, Note_on_c, 5, 36, 0
8, 144960, Note_on_c, 5, 41, 64
8, 145438, Note_on_c, 5, 41, 0
8, 146160, Note_on_c, 5, 36, 64
8, 146398, Note_on_c, 5, 36, 0
8, 146400, Note_on_c, 5, 41, 64
8, 146878, Note_on_c, 5, 41, 0
8, 147600, Note_on_c, 5, 36, 64
8, 147838, Note_on_c, 5, 36, 0
8, 147840, Note_on_c, 5, 41, 64
8, 148558, Note_on_c, 5, 41, 0
8, 149040, Note_on_c, 5, 41, 64
8, 149278, Note_on_c, 5, 41, 0
8, 149280, Note_on_c, 5, 41, 64
8, 149518, Note_on_c, 5, 41, 0
8, 149520, Note_on_c, 5, 41, 64
8, 149758, Note_on_c, 5, 41, 0
8, 149760, Note_on_c, 5, 41, 64
8, 149998, Note_on_c, 5, 41, 0
8, 150000, Note_on_c, 5, 41, 64
8, 150238, Note_on_c, 5, 41, 0
8, 150240, Note_on_c, 5, 41, 64
8, 150478, Note_on_c, 5, 41, 0
8, 150480, Note_on_c, 5, 41, 64
8, 150718, Note_on_c, 5, 41, 0
8, 150720, Note_on_c, 5, 34, 64
8, 151438, Note_on_c, 5, 34, 0
8, 152160, Note_on_c, 5, 36, 64
8, 152638, Note_on_c, 5, 36, 0
8, 152880, Note_on_c, 5, 36, 64
8, 153358, Note_on_c, 5, 36, 0
8, 153600, Note_on_c, 5, 41, 64
8, 154078, Note_on_c, 5, 41, 0
8, 155760, Note_on_c, 5, 36, 64
8, 155998, Note_on_c, 5, 36, 0
8, 156000, Note_on_c, 5, 36, 64
8, 156238, Note_on_c, 5, 36, 0
8, 156240, Note_on_c, 5, 36, 64
8, 156478, Note_on_c, 5, 36, 0
8, 156480, Note_on_c, 5, 41, 64
8, 156958, Note_on_c, 5, 41, 0
8, 158640, Note_on_c, 5, 36, 64
8, 158878, Note_on_c, 5, 36, 0
8, 158880, Note_on_c, 5, 36, 64
8, 159118, Note_on_c, 5, 36, 0
8, 159120, Note_on_c, 5, 36, 64
8, 159358, Note_on_c, 5, 36, 0
8, 159360, Note_on_c, 5, 41, 64
8, 159838, Note_on_c, 5, 41, 0
8, 165600, Note_on_c, 5, 41, 75
8, 165838, Note_on_c, 5, 41, 0
8, 165840, Note_on_c, 5, 41, 74
8, 166078, Note_on_c, 5, 41, 0
8, 166080, Note_on_c, 5, 41, 74
8, 166318, Note_on_c, 5, 41, 0
8, 166320, Note_on_c, 5, 41, 73
8, 166558, Note_on_c, 5, 41, 0
8, 166560, Note_on_c, 5, 41, 72
8, 166798, Note_on_c, 5, 41, 0
8, 166800, Note_on_c, 5, 41, 72
8, 167038, Note_on_c, 5, 41, 0
8, 167040, Note_on_c, 5, 41, 71
8, 167278, Note_on_c, 5, 41, 0
8, 167280, Note_on_c, 5, 36, 70
8, 167518, Note_on_c, 5, 36, 0
8, 167520, Note_on_c, 5, 36, 69
8, 167758, Note_on_c, 5, 36, 0
8, 167760, Note_on_c, 5, 36, 69
8, 167998, Note_on_c, 5, 36, 0
8, 168000, Note_on_c, 5, 41, 68
8, 168238, Note_on_c, 5, 41, 0
8, 168480, Note_on_c, 5, 41, 67
8, 168718, Note_on_c, 5, 41, 0
8, 168720, Note_on_c, 5, 41, 66
8, 168958, Note_on_c, 5, 41, 0
8, 168960, Note_on_c, 5, 41, 65
8, 169198, Note_on_c, 5, 41, 0
8, 169200, Note_on_c, 5, 41, 65
8, 169438, Note_on_c, 5, 41, 0
8, 169440, Note_on_c, 5, 41, 64
8, 169678, Note_on_c, 5, 41, 0
8, 169680, Note_on_c, 5, 41, 64
8, 169918, Note_on_c, 5, 41, 0
8, 169920, Note_on_c, 5, 41, 64
8, 170158, Note_on_c, 5, 41, 0
8, 170160, Note_on_c, 5, 36, 64
8, 170398, Note_on_c, 5, 36, 0
8, 170400, Note_on_c, 5, 36, 64
8, 170638, Note_on_c, 5, 36, 0
8, 170640, Note_on_c, 5, 36, 64
8, 170878, Note_on_c, 5, 36, 0
8, 170880, Note_on_c, 5, 29, 64
8, 171358, Note_on_c, 5, 29, 0
8, 171358, End_track
9, 0, Start_track
9, 0, MIDI_port, 0
9, 0, Title_t, "Flutes"
9, 0, Program_c, 6, 73
9, 0, Control_c, 6, 7, 110
9, 0, Control_c, 6, 10, 8
9, 7620, Note_on_c, 6, 89, 64
9, 7678, Note_on_c, 6, 89, 0
9, 7680, Note_on_c, 6, 91, 64
9, 7918, Note_on_c, 6, 91, 0
9, 7920, Note_on_c, 6, 91, 64
9, 8158, Note_on_c, 6, 91, 0
9, 8160, Note_on_c, 6, 84, 64
9, 8338, Note_on_c, 6, 84, 0
9, 8340, Note_on_c, 6, 86, 64
9, 8398, Note_on_c, 6, 86, 0
9, 8400, Note_on_c, 6, 88, 64
9, 8578, Note_on_c, 6, 88, 0
9, 8580, Note_on_c, 6, 84, 64
9, 8638, Note_on_c, 6, 84, 0
9, 8640, Note_on_c, 6, 89, 64
9, 8878, Note_on_c, 6, 89, 0
9, 8880, Note_on_c, 6, 84, 64
9, 9118, Note_on_c, 6, 84, 0
9, 9120, Note_on_c, 6, 81, 64
9, 9358, Note_on_c, 6, 81, 0
9, 24480, Note_on_c, 6, 88, 64
9, 24718, Note_on_c, 6, 88, 0
9, 24720, Note_on_c, 6, 89, 64
9, 24958, Note_on_c, 6, 89, 0
9, 24960, Note_on_c, 6, 86, 64
9, 25198, Note_on_c, 6, 86, 0
9, 25200, Note_on_c, 6, 83, 64
9, 25438, Note_on_c, 6, 83, 0
9, 25440, Note_on_c, 6, 86, 64
9, 26158, Note_on_c, 6, 86, 0
9, 26160, Note_on_c, 6, 84, 64
9, 26398, Note_on_c, 6, 84, 0
9, 50400, Note_on_c, 6, 84, 64
9, 50638, Note_on_c, 6, 84, 0
9, 50640, Note_on_c, 6, 84, 64
9, 50878, Note_on_c, 6, 84, 0
9, 50880, Note_on_c, 6, 84, 64
9, 51118, Note_on_c, 6, 84, 0
9, 51120, Note_on_c, 6, 84, 64
9, 51358, Note_on_c, 6, 84, 0
9, 51360, Note_on_c, 6, 89, 64
9, 51598, Note_on_c, 6, 89, 0
9, 60900, Note_on_c, 6, 89, 64
9, 60958, Note_on_c, 6, 89, 0
9, 60960, Note_on_c, 6, 91, 64
9, 61198, Note_on_c, 6, 91, 0
9, 61200, Note_on_c, 6, 91, 64
9, 61438, Note_on_c, 6, 91, 0
9, 61440, Note_on_c, 6, 84, 64
9, 61618, Note_on_c, 6, 84, 0
9, 61620, Note_on_c, 6, 86, 64
9, 61678, Note_on_c, 6, 86, 0
9, 61680, Note_on_c, 6, 88, 64
9, 61858, Note_on_c, 6, 88, 0
9, 61860, Note_on_c, 6, 84, 64
9, 61918, Note_on_c, 6, 84, 0
9, 61920, Note_on_c, 6, 89, 64
9, 62158, Note_on_c, 6, 89, 0
9, 62160, Note_on_c, 6, 84, 64
9, 62398, Note_on_c, 6, 84, 0
9, 62400, Note_on_c, 6, 81, 64
9, 62638, Note_on_c, 6, 81, 0
9, 77760, Note_on_c, 6, 88, 64
9, 77998, Note_on_c, 6, 88, 0
9, 78000, Note_on_c, 6, 89, 64
9, 78238, Note_on_c, 6, 89, 0
9, 78240, Note_on_c, 6, 86, 64
9, 78478, Note_on_c, 6, 86, 0
9, 78480, Note_on_c, 6, 83, 64
9, 78718, Note_on_c, 6, 83, 0
9, 78720, Note_on_c, 6, 86, 64
9, 79438, Note_on_c, 6, 86, 0
9, 79440, Note_on_c, 6, 84, 64
9, 79678, Note_on_c, 6, 84, 0
9, 103680, Note_on_c, 6, 84, 64
9, 103918, Note_on_c, 6, 84, 0
9, 103920, Note_on_c, 6, 84, 64
9, 104158, Note_on_c, 6, 84, 0
9, 104160, Note_on_c, 6, 84, 64
9, 104398, Note_on_c, 6, 84, 0
9, 104400, Note_on_c, 6, 84, 64
9, 104638, Note_on_c, 6, 84, 0
9, 104640, Note_on_c, 6, 89, 64
9, 104878, Note_on_c, 6, 89, 0
9, 114180, Note_on_c, 6, 89, 64
9, 114238, Note_on_c, 6, 89, 0
9, 114240, Note_on_c, 6, 91, 64
9, 114478, Note_on_c, 6, 91, 0
9, 114480, Note_on_c, 6, 91, 64
9, 114718, Note_on_c, 6, 91, 0
9, 114720, Note_on_c, 6, 84, 64
9, 114898, Note_on_c, 6, 84, 0
9, 114900, Note_on_c, 6, 86, 64
9, 114958, Note_on_c, 6, 86, 0
9, 114960, Note_on_c, 6, 88, 64
9, 115138, Note_on_c, 6, 88, 0
9, 115140, Note_on_c, 6, 84, 64
9, 115198, Note_on_c, 6, 84, 0
9, 115200, Note_on_c, 6, 89, 64
9, 115438, Note_on_c, 6, 89, 0
9, 115440, Note_on_c, 6, 84, 64
9, 115678, Note_on_c, 6, 84, 0
9, 115680, Note_on_c, 6, 81, 64
9, 115918, Note_on_c, 6, 81, 0
9, 131040, Note_on_c, 6, 88, 64
9, 131278, Note_on_c, 6, 88, 0
9, 131280, Note_on_c, 6, 89, 64
9, 131518, Note_on_c, 6, 89, 0
9, 131520, Note_on_c, 6, 86, 64
9, 131758, Note_on_c, 6, 86, 0
9, 131760, Note_on_c, 6, 83, 64
9, 131998, Note_on_c, 6, 83, 0
9, 132000, Note_on_c, 6, 86, 64
9, 132718, Note_on_c, 6, 86, 0
9, 132720, Note_on_c, 6, 84, 64
9, 132958, Note_on_c, 6, 84, 0
9, 156960, Note_on_c, 6, 84, 64
9, 157198, Note_on_c, 6, 84, 0
9, 157200, Note_on_c, 6, 84, 64
9, 157438, Note_on_c, 6, 84, 0
9, 157440, Note_on_c, 6, 84, 64
9, 157678, Note_on_c, 6, 84, 0
9, 157680, Note_on_c, 6, 84, 64
9, 157918, Note_on_c, 6, 84, 0
9, 157920, Note_on_c, 6, 89, 64
9, 158158, Note_on_c, 6, 89, 0
9, 159840, Note_on_c, 6, 84, 64
9, 160078, Note_on_c, 6, 84, 0
9, 160080, Note_on_c, 6, 81, 64
9, 160318, Note_on_c, 6, 81, 0
9, 160320, Note_on_c, 6, 77, 64
9, 160558, Note_on_c, 6, 77, 0
9, 160560, Note_on_c, 6, 84, 64
9, 160798, Note_on_c, 6, 84, 0
9, 160800, Note_on_c, 6, 81, 64
9, 161038, Note_on_c, 6, 81, 0
9, 161040, Note_on_c, 6, 77, 64
9, 161278, Note_on_c, 6, 77, 0
9, 161280, Note_on_c, 6, 84, 64
9, 161518, Note_on_c, 6, 84, 0
9, 161520, Note_on_c, 6, 82, 64
9, 161758, Note_on_c, 6, 82, 0
9, 161760, Note_on_c, 6, 79, 64
9, 161998, Note_on_c, 6, 79, 0
9, 162000, Note_on_c, 6, 82, 64
9, 162238, Note_on_c, 6, 82, 0
9, 162240, Note_on_c, 6, 81, 64
9, 162478, Note_on_c, 6, 81, 0
9, 162720, Note_on_c, 6, 84, 64
9, 162958, Note_on_c, 6, 84, 0
9, 162960, Note_on_c, 6, 89, 64
9, 163438, Note_on_c, 6, 89, 0
9, 163440, Note_on_c, 6, 84, 64
9, 163678, Note_on_c, 6, 84, 0
9, 163680, Note_on_c, 6, 89, 64
9, 164158, Note_on_c, 6, 89, 0
9, 164160, Note_on_c, 6, 84, 64
9, 164398, Note_on_c, 6, 84, 0
9, 164400, Note_on_c, 6, 82, 64
9, 164638, Note_on_c, 6, 82, 0
9, 164640, Note_on_c, 6, 79, 64
9, 164878, Note_on_c, 6, 79, 0
9, 164880, Note_on_c, 6, 84, 64
9, 165118, Note_on_c, 6, 84, 0
9, 165120, Note_on_c, 6, 77, 64
9, 165358, Note_on_c, 6, 77, 0
9, 165600, Note_on_c, 6, 84, 64
9, 165838, Note_on_c, 6, 84, 0
9, 165840, Note_on_c, 6, 84, 64
9, 166078, Note_on_c, 6, 84, 0
9, 166080, Note_on_c, 6, 84, 64
9, 166318, Note_on_c, 6, 84, 0
9, 166320, Note_on_c, 6, 84, 64
9, 166558, Note_on_c, 6, 84, 0
9, 166560, Note_on_c, 6, 84, 64
9, 166798, Note_on_c, 6, 84, 0
9, 166800, Note_on_c, 6, 84, 64
9, 167038, Note_on_c, 6, 84, 0
9, 167040, Note_on_c, 6, 84, 64
9, 167278, Note_on_c, 6, 84, 0
9, 167280, Note_on_c, 6, 82, 64
9, 167518, Note_on_c, 6, 82, 0
9, 167520, Note_on_c, 6, 82, 64
9, 167758, Note_on_c, 6, 82, 0
9, 167760, Note_on_c, 6, 82, 64
9, 167878, Note_on_c, 6, 82, 0
9, 167880, Note_on_c, 6, 84, 64
9, 167998, Note_on_c, 6, 84, 0
9, 168000, Note_on_c, 6, 81, 64
9, 168238, Note_on_c, 6, 81, 0
9, 168480, Note_on_c, 6, 84, 64
9, 168718, Note_on_c, 6, 84, 0
9, 168720, Note_on_c, 6, 89, 64
9, 169198, Note_on_c, 6, 89, 0
9, 169200, Note_on_c, 6, 84, 64
9, 169438, Note_on_c, 6, 84, 0
9, 169440, Note_on_c, 6, 89, 64
9, 169918, Note_on_c, 6, 89, 0
9, 169920, Note_on_c, 6, 84, 64
9, 170158, Note_on_c, 6, 84, 0
9, 170160, Note_on_c, 6, 82, 64
9, 170398, Note_on_c, 6, 82, 0
9, 170400, Note_on_c, 6, 79, 64
9, 170638, Note_on_c, 6, 79, 0
9, 170640, Note_on_c, 6, 84, 64
9, 170878, Note_on_c, 6, 84, 0
9, 170880, Note_on_c, 6, 77, 64
9, 171358, Note_on_c, 6, 77, 0
9, 171358, End_track
10, 0, Start_track
10, 0, MIDI_port, 0
10, 0, Title_t, "Oboes 2"
10, 0, Program_c, 7, 68
10, 0, Control_c, 7, 7, 100
10, 0, Control_c, 7, 10, 56
10, 1680, Note_on_c, 7, 72, 64
10, 1918, Note_on_c, 7, 72, 0
10, 1920, Note_on_c, 7, 72, 64
10, 2158, Note_on_c, 7, 72, 0
10, 2160, Note_on_c, 7, 72, 64
10, 2398, Note_on_c, 7, 72, 0
10, 2400, Note_on_c, 7, 76, 64
10, 2638, Note_on_c, 7, 76, 0
10, 2640, Note_on_c, 7, 76, 64
10, 2878, Note_on_c, 7, 76, 0
10, 2880, Note_on_c, 7, 77, 64
10, 3358, Note_on_c, 7, 77, 0
10, 3600, Note_on_c, 7, 72, 64
10, 3838, Note_on_c, 7, 72, 0
10, 3840, Note_on_c, 7, 79, 64
10, 4078, Note_on_c, 7, 79, 0
10, 4080, Note_on_c, 7, 79, 64
10, 4318, Note_on_c, 7, 79, 0
10, 4320, Note_on_c, 7, 77, 64
10, 4498, Note_on_c, 7, 77, 0
10, 4500, Note_on_c, 7, 76, 64
10, 4558, Note_on_c, 7, 76, 0
10, 4560, Note_on_c, 7, 77, 64
10, 4738, Note_on_c, 7, 77, 0
10, 4740, Note_on_c, 7, 79, 64
10, 4798, Note_on_c, 7, 79, 0
10, 4800, Note_on_c, 7, 76, 64
10, 5278, Note_on_c, 7, 76, 0
10, 5520, Note_on_c, 7, 72, 64
10, 5758, Note_on_c, 7, 72, 0
10, 5760, Note_on_c, 7, 79, 64
10, 5998, Note_on_c, 7, 79, 0
10, 6000, Note_on_c, 7, 79, 64
10, 6238, Note_on_c, 7, 79, 0
10, 6240, Note_on_c, 7, 76, 64
10, 6478, Note_on_c, 7, 76, 0
10, 6480, Note_on_c, 7, 76, 64
10, 6718, Note_on_c, 7, 76, 0
10, 6720, Note_on_c, 7, 77, 64
10, 7198, Note_on_c, 7, 77, 0
10, 7680, Note_on_c, 7, 74, 64
10, 7918, Note_on_c, 7, 74, 0
10, 8160, Note_on_c, 7, 70, 64
10, 8398, Note_on_c, 7, 70, 0
10, 8640, Note_on_c, 7, 69, 64
10, 8878, Note_on_c, 7, 69, 0
10, 8880, Note_on_c, 7, 72, 64
10, 9118, Note_on_c, 7, 72, 0
10, 9120, Note_on_c, 7, 69, 64
10, 9358, Note_on_c, 7, 69, 0
10, 20880, Note_on_c, 7, 77, 64
10, 21118, Note_on_c, 7, 77, 0
10, 21120, Note_on_c, 7, 76, 64
10, 21358, Note_on_c, 7, 76, 0
10, 21360, Note_on_c, 7, 72, 64
10, 21598, Note_on_c, 7, 72, 0
10, 21600, Note_on_c, 7, 77, 64
10, 21838, Note_on_c, 7, 77, 0
10, 21840, Note_on_c, 7, 76, 64
10, 22078, Note_on_c, 7, 76, 0
10, 22080, Note_on_c, 7, 72, 64
10, 22318, Note_on_c, 7, 72, 0
10, 22320, Note_on_c, 7, 77, 64
10, 22558, Note_on_c, 7, 77, 0
10, 22560, Note_on_c, 7, 76, 64
10, 23038, Note_on_c, 7, 76, 0
10, 23040, Note_on_c, 7, 79, 64
10, 23278, Note_on_c, 7, 79, 0
10, 23280, Note_on_c, 7, 76, 64
10, 23518, Note_on_c, 7, 76, 0
10, 23760, Note_on_c, 7, 77, 64
10, 23998, Note_on_c, 7, 77, 0
10, 24000, Note_on_c, 7, 76, 64
10, 24238, Note_on_c, 7, 76, 0
10, 24240, Note_on_c, 7, 72, 64
10, 24478, Note_on_c, 7, 72, 0
10, 24480, Note_on_c, 7, 76, 64
10, 24718, Note_on_c, 7, 76, 0
10, 24720, Note_on_c, 7, 74, 64
10, 24958, Note_on_c, 7, 74, 0
10, 24960, Note_on_c, 7, 71, 64
10, 25198, Note_on_c, 7, 71, 0
10, 25200, Note_on_c, 7, 74, 64
10, 25438, Note_on_c, 7, 74, 0
10, 25440, Note_on_c, 7, 77, 64
10, 26158, Note_on_c, 7, 77, 0
10, 26160, Note_on_c, 7, 76, 64
10, 26398, Note_on_c, 7, 76, 0
10, 47520, Note_on_c, 7, 77, 64
10, 47758, Note_on_c, 7, 77, 0
10, 47760, Note_on_c, 7, 79, 64
10, 47998, Note_on_c, 7, 79, 0
10, 48000, Note_on_c, 7, 76, 64
10, 48238, Note_on_c, 7, 76, 0
10, 48240, Note_on_c, 7, 72, 64
10, 48478, Note_on_c, 7, 72, 0
10, 48480, Note_on_c, 7, 81, 64
10, 48958, Note_on_c, 7, 81, 0
10, 50400, Note_on_c, 7, 77, 64
10, 50638, Note_on_c, 7, 77, 0
10, 50640, Note_on_c, 7, 79, 64
10, 50878, Note_on_c, 7, 79, 0
10, 50880, Note_on_c, 7, 76, 64
10, 51118, Note_on_c, 7, 76, 0
10, 51120, Note_on_c, 7, 72, 64
10, 51358, Note_on_c, 7, 72, 0
10, 51360, Note_on_c, 7, 81, 64
10, 51598, Note_on_c, 7, 81, 0
10, 54960, Note_on_c, 7, 72, 64
10, 55198, Note_on_c, 7, 72, 0
10, 55200, Note_on_c, 7, 72, 64
10, 55438, Note_on_c, 7, 72, 0
10, 55440, Note_on_c, 7, 72, 64
10, 55678, Note_on_c, 7, 72, 0
10, 55680, Note_on_c, 7, 76, 64
10, 55918, Note_on_c, 7, 76, 0
10, 55920, Note_on_c, 7, 76, 64
10, 56158, Note_on_c, 7, 76, 0
10, 56160, Note_on_c, 7, 77, 64
10, 56638, Note_on_c, 7, 77, 0
10, 56880, Note_on_c, 7, 72, 64
10, 57118, Note_on_c, 7, 72, 0
10, 57120, Note_on_c, 7, 79, 64
10, 57358, Note_on_c, 7, 79, 0
10, 57360, Note_on_c, 7, 79, 64
10, 57598, Note_on_c, 7, 79, 0
10, 57600, Note_on_c, 7, 77, 64
10, 57778, Note_on_c, 7, 77, 0
10, 57780, Note_on_c, 7, 76, 64
10, 57838, Note_on_c, 7, 76, 0
10, 57840, Note_on_c, 7, 77, 64
10, 58018, Note_on_c, 7, 77, 0
10, 58020, Note_on_c, 7, 79, 64
10, 58078, Note_on_c, 7, 79, 0
10, 58080, Note_on_c, 7, 76, 64
10, 58558, Note_on_c, 7, 76, 0
10, 58800, Note_on_c, 7, 72, 64
10, 59038, Note_on_c, 7, 72, 0
10, 59040, Note_on_c, 7, 79, 64
10, 59278, Note_on_c, 7, 79, 0
10, 59280, Note_on_c, 7, 79, 64
10, 59518, Note_on_c, 7, 79, 0
10, 59520, Note_on_c, 7, 76, 64
10, 59758, Note_on_c, 7, 76, 0
10, 59760, Note_on_c, 7, 76, 64
10, 59998, Note_on_c, 7, 76, 0
10, 60000, Note_on_c, 7, 77, 64
10, 60478, Note_on_c, 7, 77, 0
10, 60960, Note_on_c, 7, 74, 64
10, 61198, Note_on_c, 7, 74, 0
10, 61440, Note_on_c, 7, 70, 64
10, 61678, Note_on_c, 7, 70, 0
10, 61920, Note_on_c, 7, 69, 64
10, 62158, Note_on_c, 7, 69, 0
10, 62160, Note_on_c, 7, 72, 64
10, 62398, Note_on_c, 7, 72, 0
10, 62400, Note_on_c, 7, 69, 64
10, 62638, Note_on_c, 7, 69, 0
10, 74160, Note_on_c, 7, 77, 64
10, 74398, Note_on_c, 7, 77, 0
10, 74400, Note_on_c, 7, 76, 64
10, 74638, Note_on_c, 7, 76, 0
10, 74640, Note_on_c, 7, 72, 64
10, 74878, Note_on_c, 7, 72, 0
10, 74880, Note_on_c, 7, 77, 64
10, 75118, Note_on_c, 7, 77, 0
10, 75120, Note_on_c, 7, 76, 64
10, 75358, Note_on_c, 7, 76, 0
10, 75360, Note_on_c, 7, 72, 64
10, 75598, Note_on_c, 7, 72, 0
10, 75600, Note_on_c, 7, 77, 64
10, 75838, Note_on_c, 7, 77, 0
10, 75840, Note_on_c, 7, 76, 64
10, 76318, Note_on_c, 7, 76, 0
10, 76320, Note_on_c, 7, 79, 64
10, 76558, Note_on_c, 7, 79, 0
10, 76560, Note_on_c, 7, 76, 64
10, 76798, Note_on_c, 7, 76, 0
10, 77040, Note_on_c, 7, 77, 64
10, 77278, Note_on_c, 7, 77, 0
10, 77280, Note_on_c, 7, 76, 64
10, 77518, Note_on_c, 7, 76, 0
10, 77520, Note_on_c, 7, 72, 64
10, 77758, Note_on_c, 7, 72, 0
10, 77760, Note_on_c, 7, 76, 64
10, 77998, Note_on_c, 7, 76, 0
10, 78000, Note_on_c, 7, 74, 64
10, 78238, Note_on_c, 7, 74, 0
10, 78240, Note_on_c, 7, 71, 64
10, 78478, Note_on_c, 7, 71, 0
10, 78480, Note_on_c, 7, 74, 64
10, 78718, Note_on_c, 7, 74, 0
10, 78720, Note_on_c, 7, 77, 64
10, 79438, Note_on_c, 7, 77, 0
10, 79440, Note_on_c, 7, 76, 64
10, 79678, Note_on_c, 7, 76, 0
10, 100800, Note_on_c, 7, 77, 64
10, 101038, Note_on_c, 7, 77, 0
10, 101040, Note_on_c, 7, 79, 64
10, 101278, Note_on_c, 7, 79, 0
10, 101280, Note_on_c, 7, 76, 64
10, 101518, Note_on_c, 7, 76, 0
10, 101520, Note_on_c, 7, 72, 64
10, 101758, Note_on_c, 7, 72, 0
10, 101760, Note_on_c, 7, 81, 64
10, 102238, Note_on_c, 7, 81, 0
10, 103680, Note_on_c, 7, 77, 64
10, 103918, Note_on_c, 7, 77, 0
10, 103920, Note_on_c, 7, 79, 64
10, 104158, Note_on_c, 7, 79, 0
10, 104160, Note_on_c, 7, 76, 64
10, 104398, Note_on_c, 7, 76, 0
10, 104400, Note_on_c, 7, 72, 64
10, 104638, Note_on_c, 7, 72, 0
10, 104640, Note_on_c, 7, 81, 64
10, 104878, Note_on_c, 7, 81, 0
10, 108240, Note_on_c, 7, 72, 64
10, 108478, Note_on_c, 7, 72, 0
10, 108480, Note_on_c, 7, 72, 64
10, 108718, Note_on_c, 7, 72, 0
10, 108720, Note_on_c, 7, 72, 64
10, 108958, Note_on_c, 7, 72, 0
10, 108960, Note_on_c, 7, 76, 64
10, 109198, Note_on_c, 7, 76, 0
10, 109200, Note_on_c, 7, 76, 64
10, 109438, Note_on_c, 7, 76, 0
10, 109440, Note_on_c, 7, 77, 64
10, 109918, Note_on_c, 7, 77, 0
10, 110160, Note_on_c, 7, 72, 64
10, 110398, Note_on_c, 7, 72, 0
10, 110400, Note_on_c, 7, 79, 64
10, 110638, Note_on_c, 7, 79, 0
10, 110640, Note_on_c, 7, 79, 64
10, 110878, Note_on_c, 7, 79, 0
10, 110880, Note_on_c, 7, 77, 64
10, 111058, Note_on_c, 7, 77, 0
10, 111060, Note_on_c, 7, 76, 64
10, 111118, Note_on_c, 7, 76, 0
10, 111120, Note_on_c, 7, 77, 64
10, 111298, Note_on_c, 7, 77, 0
10, 111300, Note_on_c, 7, 79, 64
10, 111358, Note_on_c, 7, 79, 0
10, 111360, Note_on_c, 7, 76, 64
10, 111838, Note_on_c, 7, 76, 0
10, 112080, Note_on_c, 7, 72, 64
10, 112318, Note_on_c, 7, 72, 0
10, 112320, Note_on_c, 7, 79, 64
10, 112558, Note_on_c, 7, 79, 0
10, 112560, Note_on_c, 7, 79, 64
10, 112798, Note_on_c, 7, 79, 0
10, 112800, Note_on_c, 7, 76, 64
10, 113038, Note_on_c, 7, 76, 0
10, 113040, Note_on_c, 7, 76, 64
10, 113278, Note_on_c, 7, 76, 0
10, 113280, Note_on_c, 7, 77, 64
10, 113758, Note_on_c, 7, 77, 0
10, 114240, Note_on_c, 7, 74, 64
10, 114478, Note_on_c, 7, 74, 0
10, 114720, Note_on_c, 7, 70, 64
10, 114958, Note_on_c, 7, 70, 0
10, 115200, Note_on_c, 7, 69, 64
10, 115438, Note_on_c, 7, 69, 0
10, 115440, Note_on_c, 7, 72, 64
10, 115678, Note_on_c, 7, 72, 0
10, 115680, Note_on_c, 7, 69, 64
10, 115918, Note_on_c, 7, 69, 0
10, 127440, Note_on_c, 7, 77, 64
10, 127678, Note_on_c, 7, 77, 0
10, 127680, Note_on_c, 7, 76, 64
10, 127918, Note_on_c, 7, 76, 0
10, 127920, Note_on_c, 7, 72, 64
10, 128158, Note_on_c, 7, 72, 0
10, 128160, Note_on_c, 7, 77, 64
10, 128398, Note_on_c, 7, 77, 0
10, 128400, Note_on_c, 7, 76, 64
10, 128638, Note_on_c, 7, 76, 0
10, 128640, Note_on_c, 7, 72, 64
10, 128878, Note_on_c, 7, 72, 0
10, 128880, Note_on_c, 7, 77, 64
10, 129118, Note_on_c, 7, 77, 0
10, 129120, Note_on_c, 7, 76, 64
10, 129598, Note_on_c, 7, 76, 0
10, 129600, Note_on_c, 7, 79, 64
10, 129838, Note_on_c, 7, 79, 0
10, 129840, Note_on_c, 7, 76, 64
10, 130078, Note_on_c, 7, 76, 0
10, 130320, Note_on_c, 7, 77, 64
10, 130558, Note_on_c, 7, 77, 0
10, 130560, Note_on_c, 7, 76, 64
10, 130798, Note_on_c, 7, 76, 0
10, 130800, Note_on_c, 7, 72, 64
10, 131038, Note_on_c, 7, 72, 0
10, 131040, Note_on_c, 7, 76, 64
10, 131278, Note_on_c, 7, 76, 0
10, 131280, Note_on_c, 7, 74, 64
10, 131518, Note_on_c, 7, 74, 0
10, 131520, Note_on_c, 7, 71, 64
10, 131758, Note_on_c, 7, 71, 0
10, 131760, Note_on_c, 7, 74, 64
10, 131998, Note_on_c, 7, 74, 0
10, 132000, Note_on_c, 7, 77, 64
10, 132718, Note_on_c, 7, 77, 0
10, 132720, Note_on_c, 7, 76, 64
10, 132958, Note_on_c, 7, 76, 0
10, 154080, Note_on_c, 7, 77, 64
10, 154318, Note_on_c, 7, 77, 0
10, 154320, Note_on_c, 7, 79, 64
10, 154558, Note_on_c, 7, 79, 0
10, 154560, Note_on_c, 7, 76, 64
10, 154798, Note_on_c, 7, 76, 0
10, 154800, Note_on_c, 7, 72, 64
10, 155038, Note_on_c, 7, 72, 0
10, 155040, Note_on_c, 7, 81, 64
10, 155518, Note_on_c, 7, 81, 0
10, 156960, Note_on_c, 7, 77, 64
10, 157198, Note_on_c, 7, 77, 0
10, 157200, Note_on_c, 7, 79, 64
10, 157438, Note_on_c, 7, 79, 0
10, 157440, Note_on_c, 7, 76, 64
10, 157678, Note_on_c, 7, 76, 0
10, 157680, Note_on_c, 7, 72, 64
10, 157918, Note_on_c, 7, 72, 0
10, 157920, Note_on_c, 7, 81, 64
10, 158158, Note_on_c, 7, 81, 0
10, 160080, Note_on_c, 7, 72, 64
10, 160318, Note_on_c, 7, 72, 0
10, 160320, Note_on_c, 7, 72, 64
10, 160558, Note_on_c, 7, 72, 0
10, 160800, Note_on_c, 7, 72, 64
10, 161038, Note_on_c, 7, 72, 0
10, 161040, Note_on_c, 7, 72, 64
10, 161278, Note_on_c, 7, 72, 0
10, 161520, Note_on_c, 7, 70, 64
10, 161758, Note_on_c, 7, 70, 0
10, 161760, Note_on_c, 7, 70, 64
10, 161998, Note_on_c, 7, 70, 0
10, 162000, Note_on_c, 7, 70, 64
10, 162238, Note_on_c, 7, 70, 0
10, 162240, Note_on_c, 7, 69, 64
10, 162478, Note_on_c, 7, 69, 0
10, 162480, Note_on_c, 7, 69, 64
10, 162718, Note_on_c, 7, 69, 0
10, 162720, Note_on_c, 7, 81, 64
10, 162958, Note_on_c, 7, 81, 0
10, 162960, Note_on_c, 7, 77, 64
10, 163198, Note_on_c, 7, 77, 0
10, 163440, Note_on_c, 7, 81, 64
10, 163678, Note_on_c, 7, 81, 0
10, 163680, Note_on_c, 7, 77, 64
10, 163918, Note_on_c, 7, 77, 0
10, 164160, Note_on_c, 7, 81, 64
10, 164398, Note_on_c, 7, 81, 0
10, 164400, Note_on_c, 7, 79, 64
10, 164638, Note_on_c, 7, 79, 0
10, 164640, Note_on_c, 7, 76, 64
10, 164878, Note_on_c, 7, 76, 0
10, 164880, Note_on_c, 7, 70, 64
10, 165118, Note_on_c, 7, 70, 0
10, 165120, Note_on_c, 7, 69, 64
10, 165358, Note_on_c, 7, 69, 0
10, 165600, Note_on_c, 7, 77, 64
10, 165838, Note_on_c, 7, 77, 0
10, 165840, Note_on_c, 7, 77, 64
10, 166078, Note_on_c, 7, 77, 0
10, 166080, Note_on_c, 7, 77, 64
10, 166318, Note_on_c, 7, 77, 0
10, 166320, Note_on_c, 7, 77, 64
10, 166558, Note_on_c, 7, 77, 0
10, 166560, Note_on_c, 7, 77, 64
10, 166798, Note_on_c, 7, 77, 0
10, 166800, Note_on_c, 7, 77, 64
10, 167038, Note_on_c, 7, 77, 0
10, 167040, Note_on_c, 7, 77, 64
10, 167278, Note_on_c, 7, 77, 0
10, 167280, Note_on_c, 7, 76, 64
10, 167518, Note_on_c, 7, 76, 0
10, 167520, Note_on_c, 7, 76, 64
10, 167758, Note_on_c, 7, 76, 0
10, 167760, Note_on_c, 7, 76, 64
10, 167998, Note_on_c, 7, 76, 0
10, 168000, Note_on_c, 7, 77, 64
10, 168238, Note_on_c, 7, 77, 0
10, 168480, Note_on_c, 7, 81, 64
10, 168718, Note_on_c, 7, 81, 0
10, 168720, Note_on_c, 7, 81, 64
10, 168958, Note_on_c, 7, 81, 0
10, 168960, Note_on_c, 7, 81, 64
10, 169198, Note_on_c, 7, 81, 0
10, 169200, Note_on_c, 7, 81, 64
10, 169438, Note_on_c, 7, 81, 0
10, 169440, Note_on_c, 7, 81, 64
10, 169678, Note_on_c, 7, 81, 0
10, 169680, Note_on_c, 7, 81, 64
10, 169918, Note_on_c, 7, 81, 0
10, 169920, Note_on_c, 7, 81, 64
10, 170158, Note_on_c, 7, 81, 0
10, 170160, Note_on_c, 7, 79, 64
10, 170398, Note_on_c, 7, 79, 0
10, 170400, Note_on_c, 7, 79, 64
10, 170638, Note_on_c, 7, 79, 0
10, 170640, Note_on_c, 7, 76, 64
10, 170878, Note_on_c, 7, 76, 0
10, 170880, Note_on_c, 7, 77, 64
10, 171358, Note_on_c, 7, 77, 0
10, 171358, End_track
11, 0, Start_track
11, 0, MIDI_port, 0
11, 0, Title_t, "Papageno"
11, 0, Program_c, 8, 69
11, 0, Control_c, 8, 7, 120
11, 0, Control_c, 8, 10, 64
11, 80, Control_c, 8, 91, 40
11, 85, Control_c, 8, 93, 0
11, 90, Control_c, 8, 101, 0
11, 95, Control_c, 8, 100, 0
11, 100, Control_c, 8, 6, 2
11, 9360, Note_on_c, 8, 48, 64
11, 9586, Note_on_c, 8, 48, 0
11, 9600, Note_on_c, 8, 53, 64
11, 9826, Note_on_c, 8, 53, 0
11, 9840, Note_on_c, 8, 53, 64
11, 10066, Note_on_c, 8, 53, 0
11, 10080, Note_on_c, 8, 55, 64
11, 10306, Note_on_c, 8, 55, 0
11, 10320, Note_on_c, 8, 55, 64
11, 10546, Note_on_c, 8, 55, 0
11, 10560, Note_on_c, 8, 57, 64
11, 10729, Note_on_c, 8, 57, 0
11, 10740, Note_on_c, 8, 58, 64
11, 10795, Note_on_c, 8, 58, 0
11, 10800, Note_on_c, 8, 57, 64
11, 10969, Note_on_c, 8, 57, 0
11, 10980, Note_on_c, 8, 55, 64
11, 11035, Note_on_c, 8, 55, 0
11, 11040, Note_on_c, 8, 53, 64
11, 11266, Note_on_c, 8, 53, 0
11, 11280, Note_on_c, 8, 53, 64
11, 11506, Note_on_c, 8, 53, 0
11, 11520, Note_on_c, 8, 58, 64
11, 11746, Note_on_c, 8, 58, 0
11, 11760, Note_on_c, 8, 58, 64
11, 11986, Note_on_c, 8, 58, 0
11, 12000, Note_on_c, 8, 57, 64
11, 12169, Note_on_c, 8, 57, 0
11, 12180, Note_on_c, 8, 55, 64
11, 12235, Note_on_c, 8, 55, 0
11, 12240, Note_on_c, 8, 57, 64
11, 12409, Note_on_c, 8, 57, 0
11, 12420, Note_on_c, 8, 58, 64
11, 12475, Note_on_c, 8, 58, 0
11, 12480, Note_on_c, 8, 55, 64
11, 12934, Note_on_c, 8, 55, 0
11, 13200, Note_on_c, 8, 48, 64
11, 13426, Note_on_c, 8, 48, 0
11, 13440, Note_on_c, 8, 58, 64
11, 13666, Note_on_c, 8, 58, 0
11, 13680, Note_on_c, 8, 58, 64
11, 13906, Note_on_c, 8, 58, 0
11, 13920, Note_on_c, 8, 55, 64
11, 14146, Note_on_c, 8, 55, 0
11, 14160, Note_on_c, 8, 55, 64
11, 14386, Note_on_c, 8, 55, 0
11, 14400, Note_on_c, 8, 60, 64
11, 14740, Note_on_c, 8, 60, 0
11, 14760, Note_on_c, 8, 59, 64
11, 14815, Note_on_c, 8, 59, 0
11, 14820, Note_on_c, 8, 60, 64
11, 14875, Note_on_c, 8, 60, 0
11, 14880, Note_on_c, 8, 62, 64
11, 14992, Note_on_c, 8, 62, 0
11, 15000, Note_on_c, 8, 60, 64
11, 15112, Note_on_c, 8, 60, 0
11, 15120, Note_on_c, 8, 58, 64
11, 15232, Note_on_c, 8, 58, 0
11, 15240, Note_on_c, 8, 57, 64
11, 15352, Note_on_c, 8, 57, 0
11, 15360, Note_on_c, 8, 55, 64
11, 15586, Note_on_c, 8, 55, 0
11, 15600, Note_on_c, 8, 55, 64
11, 15826, Note_on_c, 8, 55, 0
11, 15840, Note_on_c, 8, 55, 64
11, 16009, Note_on_c, 8, 55, 0
11, 16020, Note_on_c, 8, 53, 64
11, 16075, Note_on_c, 8, 53, 0
11, 16080, Note_on_c, 8, 55, 64
11, 16249, Note_on_c, 8, 55, 0
11, 16260, Note_on_c, 8, 57, 64
11, 16315, Note_on_c, 8, 57, 0
11, 16320, Note_on_c, 8, 53, 64
11, 16774, Note_on_c, 8, 53, 0
11, 17040, Note_on_c, 8, 55, 64
11, 17266, Note_on_c, 8, 55, 0
11, 17280, Note_on_c, 8, 57, 64
11, 17620, Note_on_c, 8, 57, 0
11, 17640, Note_on_c, 8, 60, 64
11, 17752, Note_on_c, 8, 60, 0
11, 17760, Note_on_c, 8, 60, 64
11, 17872, Note_on_c, 8, 60, 0
11, 17880, Note_on_c, 8, 58, 64
11, 17992, Note_on_c, 8, 58, 0
11, 18000, Note_on_c, 8, 57, 64
11, 18112, Note_on_c, 8, 57, 0
11, 18120, Note_on_c, 8, 55, 64
11, 18232, Note_on_c, 8, 55, 0
11, 18240, Note_on_c, 8, 53, 64
11, 18694, Note_on_c, 8, 53, 0
11, 18960, Note_on_c, 8, 55, 64
11, 19186, Note_on_c, 8, 55, 0
11, 19200, Note_on_c, 8, 57, 64
11, 19312, Note_on_c, 8, 57, 0
11, 19320, Note_on_c, 8, 53, 64
11, 19432, Note_on_c, 8, 53, 0
11, 19440, Note_on_c, 8, 57, 64
11, 19552, Note_on_c, 8, 57, 0
11, 19560, Note_on_c, 8, 60, 64
11, 19672, Note_on_c, 8, 60, 0
11, 19680, Note_on_c, 8, 60, 64
11, 19792, Note_on_c, 8, 60, 0
11, 19800, Note_on_c, 8, 58, 64
11, 19912, Note_on_c, 8, 58, 0
11, 19920, Note_on_c, 8, 57, 64
11, 20032, Note_on_c, 8, 57, 0
11, 20040, Note_on_c, 8, 55, 64
11, 20152, Note_on_c, 8, 55, 0
11, 20160, Note_on_c, 8, 53, 64
11, 20614, Note_on_c, 8, 53, 0
11, 26640, Note_on_c, 8, 57, 64
11, 26866, Note_on_c, 8, 57, 0
11, 26880, Note_on_c, 8, 55, 64
11, 27106, Note_on_c, 8, 55, 0
11, 27120, Note_on_c, 8, 52, 64
11, 27346, Note_on_c, 8, 52, 0
11, 27360, Note_on_c, 8, 57, 64
11, 27586, Note_on_c, 8, 57, 0
11, 27600, Note_on_c, 8, 55, 64
11, 27826, Note_on_c, 8, 55, 0
11, 27840, Note_on_c, 8, 52, 64
11, 28066, Note_on_c, 8, 52, 0
11, 28080, Note_on_c, 8, 57, 64
11, 28306, Note_on_c, 8, 57, 0
11, 28320, Note_on_c, 8, 55, 64
11, 29002, Note_on_c, 8, 55, 0
11, 29040, Note_on_c, 8, 60, 64
11, 29266, Note_on_c, 8, 60, 0
11, 29520, Note_on_c, 8, 57, 64
11, 29746, Note_on_c, 8, 57, 0
11, 29760, Note_on_c, 8, 55, 64
11, 29986, Note_on_c, 8, 55, 0
11, 30000, Note_on_c, 8, 52, 64
11, 30226, Note_on_c, 8, 52, 0
11, 30240, Note_on_c, 8, 48, 64
11, 30466, Note_on_c, 8, 48, 0
11, 30480, Note_on_c, 8, 53, 64
11, 30706, Note_on_c, 8, 53, 0
11, 30720, Note_on_c, 8, 50, 64
11, 30946, Note_on_c, 8, 50, 0
11, 30960, Note_on_c, 8, 47, 64
11, 31186, Note_on_c, 8, 47, 0
11, 31200, Note_on_c, 8, 50, 64
11, 31882, Note_on_c, 8, 50, 0
11, 31920, Note_on_c, 8, 48, 64
11, 32146, Note_on_c, 8, 48, 0
11, 32400, Note_on_c, 8, 48, 64
11, 32626, Note_on_c, 8, 48, 0
11, 32640, Note_on_c, 8, 48, 64
11, 32866, Note_on_c, 8, 48, 0
11, 32880, Note_on_c, 8, 50, 64
11, 33106, Note_on_c, 8, 50, 0
11, 33120, Note_on_c, 8, 52, 64
11, 33346, Note_on_c, 8, 52, 0
11, 33360, Note_on_c, 8, 53, 64
11, 33586, Note_on_c, 8, 53, 0
11, 33600, Note_on_c, 8, 55, 64
11, 33826, Note_on_c, 8, 55, 0
11, 33840, Note_on_c, 8, 57, 64
11, 34066, Note_on_c, 8, 57, 0
11, 34080, Note_on_c, 8, 58, 64
11, 34990, Note_on_c, 8, 58, 0
11, 35280, Note_on_c, 8, 57, 64
11, 35506, Note_on_c, 8, 57, 0
11, 35520, Note_on_c, 8, 57, 64
11, 35746, Note_on_c, 8, 57, 0
11, 35760, Note_on_c, 8, 55, 64
11, 35986, Note_on_c, 8, 55, 0
11, 36000, Note_on_c, 8, 53, 64
11, 36226, Note_on_c, 8, 53, 0
11, 36240, Note_on_c, 8, 53, 64
11, 36466, Note_on_c, 8, 53, 0
11, 36480, Note_on_c, 8, 55, 64
11, 36706, Note_on_c, 8, 55, 0
11, 36720, Note_on_c, 8, 52, 64
11, 36946, Note_on_c, 8, 52, 0
11, 36960, Note_on_c, 8, 53, 64
11, 37414, Note_on_c, 8, 53, 0
11, 38160, Note_on_c, 8, 55, 64
11, 38386, Note_on_c, 8, 55, 0
11, 38400, Note_on_c, 8, 57, 64
11, 38626, Note_on_c, 8, 57, 0
11, 38640, Note_on_c, 8, 60, 64
11, 38866, Note_on_c, 8, 60, 0
11, 39600, Note_on_c, 8, 55, 64
11, 39826, Note_on_c, 8, 55, 0
11, 39840, Note_on_c, 8, 57, 64
11, 40066, Note_on_c, 8, 57, 0
11, 40080, Note_on_c, 8, 60, 64
11, 40306, Note_on_c, 8, 60, 0
11, 41040, Note_on_c, 8, 55, 64
11, 41266, Note_on_c, 8, 55, 0
11, 41280, Note_on_c, 8, 57, 64
11, 41962, Note_on_c, 8, 57, 0
11, 42000, Note_on_c, 8, 60, 64
11, 42226, Note_on_c, 8, 60, 0
11, 42480, Note_on_c, 8, 57, 64
11, 42706, Note_on_c, 8, 57, 0
11, 42720, Note_on_c, 8, 57, 64
11, 42946, Note_on_c, 8, 57, 0
11, 42960, Note_on_c, 8, 57, 64
11, 43186, Note_on_c, 8, 57, 0
11, 43200, Note_on_c, 8, 57, 64
11, 43426, Note_on_c, 8, 57, 0
11, 43440, Note_on_c, 8, 57, 64
11, 43666, Note_on_c, 8, 57, 0
11, 43680, Note_on_c, 8, 58, 64
11, 43906, Note_on_c, 8, 58, 0
11, 43920, Note_on_c, 8, 60, 64
11, 44146, Note_on_c, 8, 60, 0
11, 44160, Note_on_c, 8, 62, 64
11, 45070, Note_on_c, 8, 62, 0
11, 45120, Note_on_c, 8, 58, 64
11, 45346, Note_on_c, 8, 58, 0
11, 45360, Note_on_c, 8, 55, 64
11, 45586, Note_on_c, 8, 55, 0
11, 45600, Note_on_c, 8, 60, 64
11, 45826, Note_on_c, 8, 60, 0
11, 45840, Note_on_c, 8, 57, 64
11, 46066, Note_on_c, 8, 57, 0
11, 46080, Note_on_c, 8, 53, 64
11, 46306, Note_on_c, 8, 53, 0
11, 46320, Note_on_c, 8, 48, 64
11, 46546, Note_on_c, 8, 48, 0
11, 46560, Note_on_c, 8, 50, 64
11, 46786, Note_on_c, 8, 50, 0
11, 46800, Note_on_c, 8, 52, 64
11, 47026, Note_on_c, 8, 52, 0
11, 47040, Note_on_c, 8, 53, 64
11, 47494, Note_on_c, 8, 53, 0
11, 48720, Note_on_c, 8, 57, 64
11, 48946, Note_on_c, 8, 57, 0
11, 48960, Note_on_c, 8, 57, 64
11, 49186, Note_on_c, 8, 57, 0
11, 49200, Note_on_c, 8, 57, 64
11, 49426, Note_on_c, 8, 57, 0
11, 49440, Note_on_c, 8, 58, 64
11, 49666, Note_on_c, 8, 58, 0
11, 49680, Note_on_c, 8, 55, 64
11, 49906, Note_on_c, 8, 55, 0
11, 49920, Note_on_c, 8, 53, 64
11, 50374, Note_on_c, 8, 53, 0
11, 51600, Note_on_c, 8, 57, 64
11, 51826, Note_on_c, 8, 57, 0
11, 51840, Note_on_c, 8, 57, 64
11, 52066, Note_on_c, 8, 57, 0
11, 52080, Note_on_c, 8, 57, 64
11, 52306, Note_on_c, 8, 57, 0
11, 52320, Note_on_c, 8, 58, 64
11, 52546, Note_on_c, 8, 58, 0
11, 52560, Note_on_c, 8, 55, 64
11, 52786, Note_on_c, 8, 55, 0
11, 52800, Note_on_c, 8, 53, 64
11, 53254, Note_on_c, 8, 53, 0
11, 62640, Note_on_c, 8, 48, 64
11, 62866, Note_on_c, 8, 48, 0
11, 62880, Note_on_c, 8, 53, 64
11, 63106, Note_on_c, 8, 53, 0
11, 63120, Note_on_c, 8, 53, 64
11, 63346, Note_on_c, 8, 53, 0
11, 63360, Note_on_c, 8, 55, 64
11, 63586, Note_on_c, 8, 55, 0
11, 63600, Note_on_c, 8, 55, 64
11, 63826, Note_on_c, 8, 55, 0
11, 63840, Note_on_c, 8, 57, 64
11, 64009, Note_on_c, 8, 57, 0
11, 64020, Note_on_c, 8, 58, 64
11, 64075, Note_on_c, 8, 58, 0
11, 64080, Note_on_c, 8, 57, 64
11, 64249, Note_on_c, 8, 57, 0
11, 64260, Note_on_c, 8, 55, 64
11, 64315, Note_on_c, 8, 55, 0
11, 64320, Note_on_c, 8, 53, 64
11, 64546, Note_on_c, 8, 53, 0
11, 64560, Note_on_c, 8, 53, 64
11, 64786, Note_on_c, 8, 53, 0
11, 64800, Note_on_c, 8, 58, 64
11, 65026, Note_on_c, 8, 58, 0
11, 65040, Note_on_c, 8, 58, 64
11, 65266, Note_on_c, 8, 58, 0
11, 65280, Note_on_c, 8, 57, 64
11, 65449, Note_on_c, 8, 57, 0
11, 65460, Note_on_c, 8, 55, 64
11, 65515, Note_on_c, 8, 55, 0
11, 65520, Note_on_c, 8, 57, 64
11, 65689, Note_on_c, 8, 57, 0
11, 65700, Note_on_c, 8, 58, 64
11, 65755, Note_on_c, 8, 58, 0
11, 65760, Note_on_c, 8, 55, 64
11, 66214, Note_on_c, 8, 55, 0
11, 66480, Note_on_c, 8, 48, 64
11, 66706, Note_on_c, 8, 48, 0
11, 66720, Note_on_c, 8, 58, 64
11, 66946, Note_on_c, 8, 58, 0
11, 66960, Note_on_c, 8, 58, 64
11, 67186, Note_on_c, 8, 58, 0
11, 67200, Note_on_c, 8, 55, 64
11, 67426, Note_on_c, 8, 55, 0
11, 67440, Note_on_c, 8, 55, 64
11, 67666, Note_on_c, 8, 55, 0
11, 67680, Note_on_c, 8, 60, 64
11, 68020, Note_on_c, 8, 60, 0
11, 68040, Note_on_c, 8, 59, 64
11, 68095, Note_on_c, 8, 59, 0
11, 68100, Note_on_c, 8, 60, 64
11, 68155, Note_on_c, 8, 60, 0
11, 68160, Note_on_c, 8, 62, 64
11, 68272, Note_on_c, 8, 62, 0
11, 68280, Note_on_c, 8, 60, 64
11, 68392, Note_on_c, 8, 60, 0
11, 68400, Note_on_c, 8, 58, 64
11, 68512, Note_on_c, 8, 58, 0
11, 68520, Note_on_c, 8, 57, 64
11, 68632, Note_on_c, 8, 57, 0
11, 68640, Note_on_c, 8, 55, 64
11, 68866, Note_on_c, 8, 55, 0
11, 68880, Note_on_c, 8, 55, 64
11, 69106, Note_on_c, 8, 55, 0
11, 69120, Note_on_c, 8, 55, 64
11, 69289, Note_on_c, 8, 55, 0
11, 69300, Note_on_c, 8, 53, 64
11, 69355, Note_on_c, 8, 53, 0
11, 69360, Note_on_c, 8, 55, 64
11, 69529, Note_on_c, 8, 55, 0
11, 69540, Note_on_c, 8, 57, 64
11, 69595, Note_on_c, 8, 57, 0
11, 69600, Note_on_c, 8, 53, 64
11, 70054, Note_on_c, 8, 53, 0
11, 70320, Note_on_c, 8, 55, 64
11, 70546, Note_on_c, 8, 55, 0
11, 70560, Note_on_c, 8, 57, 64
11, 70900, Note_on_c, 8, 57, 0
11, 70920, Note_on_c, 8, 60, 64
11, 71032, Note_on_c, 8, 60, 0
11, 71040, Note_on_c, 8, 60, 64
11, 71152, Note_on_c, 8, 60, 0
11, 71160, Note_on_c, 8, 58, 64
11, 71272, Note_on_c, 8, 58, 0
11, 71280, Note_on_c, 8, 57, 64
11, 71392, Note_on_c, 8, 57, 0
11, 71400, Note_on_c, 8, 55, 64
11, 71512, Note_on_c, 8, 55, 0
11, 71520, Note_on_c, 8, 53, 64
11, 71974, Note_on_c, 8, 53, 0
11, 72240, Note_on_c, 8, 55, 64
11, 72466, Note_on_c, 8, 55, 0
11, 72480, Note_on_c, 8, 57, 64
11, 72592, Note_on_c, 8, 57, 0
11, 72600, Note_on_c, 8, 53, 64
11, 72712, Note_on_c, 8, 53, 0
11, 72720, Note_on_c, 8, 57, 64
11, 72832, Note_on_c, 8, 57, 0
11, 72840, Note_on_c, 8, 60, 64
11, 72952, Note_on_c, 8, 60, 0
11, 72960, Note_on_c, 8, 60, 64
11, 73072, Note_on_c, 8, 60, 0
11, 73080, Note_on_c, 8, 58, 64
11, 73192, Note_on_c, 8, 58, 0
11, 73200, Note_on_c, 8, 57, 64
11, 73312, Note_on_c, 8, 57, 0
11, 73320, Note_on_c, 8, 55, 64
11, 73432, Note_on_c, 8, 55, 0
11, 73440, Note_on_c, 8, 53, 64
11, 73894, Note_on_c, 8, 53, 0
11, 79920, Note_on_c, 8, 57, 64
11, 80146, Note_on_c, 8, 57, 0
11, 80160, Note_on_c, 8, 55, 64
11, 80386, Note_on_c, 8, 55, 0
11, 80400, Note_on_c, 8, 52, 64
11, 80626, Note_on_c, 8, 52, 0
11, 80640, Note_on_c, 8, 57, 64
11, 80866, Note_on_c, 8, 57, 0
11, 80880, Note_on_c, 8, 55, 64
11, 81106, Note_on_c, 8, 55, 0
11, 81120, Note_on_c, 8, 52, 64
11, 81346, Note_on_c, 8, 52, 0
11, 81360, Note_on_c, 8, 57, 64
11, 81586, Note_on_c, 8, 57, 0
11, 81600, Note_on_c, 8, 55, 64
11, 82282, Note_on_c, 8, 55, 0
11, 82320, Note_on_c, 8, 60, 64
11, 82546, Note_on_c, 8, 60, 0
11, 82800, Note_on_c, 8, 57, 64
11, 83026, Note_on_c, 8, 57, 0
11, 83040, Note_on_c, 8, 55, 64
11, 83266, Note_on_c, 8, 55, 0
11, 83280, Note_on_c, 8, 52, 64
11, 83506, Note_on_c, 8, 52, 0
11, 83520, Note_on_c, 8, 48, 64
11, 83746, Note_on_c, 8, 48, 0
11, 83760, Note_on_c, 8, 53, 64
11, 83986, Note_on_c, 8, 53, 0
11, 84000, Note_on_c, 8, 50, 64
11, 84226, Note_on_c, 8, 50, 0
11, 84240, Note_on_c, 8, 47, 64
11, 84466, Note_on_c, 8, 47, 0
11, 84480, Note_on_c, 8, 50, 64
11, 85162, Note_on_c, 8, 50, 0
11, 85200, Note_on_c, 8, 48, 64
11, 85426, Note_on_c, 8, 48, 0
11, 85680, Note_on_c, 8, 48, 64
11, 85906, Note_on_c, 8, 48, 0
11, 85920, Note_on_c, 8, 48, 64
11, 86146, Note_on_c, 8, 48, 0
11, 86160, Note_on_c, 8, 50, 64
11, 86386, Note_on_c, 8, 50, 0
11, 86400, Note_on_c, 8, 52, 64
11, 86626, Note_on_c, 8, 52, 0
11, 86640, Note_on_c, 8, 53, 64
11, 86866, Note_on_c, 8, 53, 0
11, 86880, Note_on_c, 8, 55, 64
11, 87106, Note_on_c, 8, 55, 0
11, 87120, Note_on_c, 8, 57, 64
11, 87346, Note_on_c, 8, 57, 0
11, 87360, Note_on_c, 8, 58, 64
11, 88270, Note_on_c, 8, 58, 0
11, 88560, Note_on_c, 8, 57, 64
11, 88786, Note_on_c, 8, 57, 0
11, 88800, Note_on_c, 8, 57, 64
11, 89026, Note_on_c, 8, 57, 0
11, 89040, Note_on_c, 8, 55, 64
11, 89266, Note_on_c, 8, 55, 0
11, 89280, Note_on_c, 8, 53, 64
11, 89506, Note_on_c, 8, 53, 0
11, 89520, Note_on_c, 8, 53, 64
11, 89746, Note_on_c, 8, 53, 0
11, 89760, Note_on_c, 8, 55, 64
11, 89986, Note_on_c, 8, 55, 0
11, 90000, Note_on_c, 8, 52, 64
11, 90226, Note_on_c, 8, 52, 0
11, 90240, Note_on_c, 8, 53, 64
11, 90694, Note_on_c, 8, 53, 0
11, 91440, Note_on_c, 8, 55, 64
11, 91666, Note_on_c, 8, 55, 0
11, 91680, Note_on_c, 8, 57, 64
11, 91906, Note_on_c, 8, 57, 0
11, 91920, Note_on_c, 8, 60, 64
11, 92146, Note_on_c, 8, 60, 0
11, 92880, Note_on_c, 8, 55, 64
11, 93106, Note_on_c, 8, 55, 0
11, 93120, Note_on_c, 8, 57, 64
11, 93346, Note_on_c, 8, 57, 0
11, 93360, Note_on_c, 8, 60, 64
11, 93586, Note_on_c, 8, 60, 0
11, 94320, Note_on_c, 8, 55, 64
11, 94546, Note_on_c, 8, 55, 0
11, 94560, Note_on_c, 8, 57, 64
11, 95242, Note_on_c, 8, 57, 0
11, 95280, Note_on_c, 8, 60, 64
11, 95506, Note_on_c, 8, 60, 0
11, 95760, Note_on_c, 8, 57, 64
11, 95986, Note_on_c, 8, 57, 0
11, 96000, Note_on_c, 8, 57, 64
11, 96226, Note_on_c, 8, 57, 0
11, 96240, Note_on_c, 8, 57, 64
11, 96466, Note_on_c, 8, 57, 0
11, 96480, Note_on_c, 8, 57, 64
11, 96706, Note_on_c, 8, 57, 0
11, 96720, Note_on_c, 8, 57, 64
11, 96946, Note_on_c, 8, 57, 0
11, 96960, Note_on_c, 8, 58, 64
11, 97186, Note_on_c, 8, 58, 0
11, 97200, Note_on_c, 8, 60, 64
11, 97426, Note_on_c, 8, 60, 0
11, 97440, Note_on_c, 8, 62, 64
11, 98350, Note_on_c, 8, 62, 0
11, 98400, Note_on_c, 8, 58, 64
11, 98626, Note_on_c, 8, 58, 0
11, 98640, Note_on_c, 8, 55, 64
11, 98866, Note_on_c, 8, 55, 0
11, 98880, Note_on_c, 8, 60, 64
11, 99106, Note_on_c, 8, 60, 0
11, 99120, Note_on_c, 8, 57, 64
11, 99346, Note_on_c, 8, 57, 0
11, 99360, Note_on_c, 8, 53, 64
11, 99586, Note_on_c, 8, 53, 0
11, 99600, Note_on_c, 8, 48, 64
11, 99826, Note_on_c, 8, 48, 0
11, 99840, Note_on_c, 8, 50, 64
11, 100066, Note_on_c, 8, 50, 0
11, 100080, Note_on_c, 8, 52, 64
11, 100306, Note_on_c, 8, 52, 0
11, 100320, Note_on_c, 8, 53, 64
11, 100774, Note_on_c, 8, 53, 0
11, 102000, Note_on_c, 8, 57, 64
11, 102226, Note_on_c, 8, 57, 0
11, 102240, Note_on_c, 8, 57, 64
11, 102466, Note_on_c, 8, 57, 0
11, 102480, Note_on_c, 8, 57, 64
11, 102706, Note_on_c, 8, 57, 0
11, 102720, Note_on_c, 8, 58, 64
11, 102946, Note_on_c, 8, 58, 0
11, 102960, Note_on_c, 8, 55, 64
11, 103186, Note_on_c, 8, 55, 0
11, 103200, Note_on_c, 8, 53, 64
11, 103654, Note_on_c, 8, 53, 0
11, 104880, Note_on_c, 8, 57, 64
11, 105106, Note_on_c, 8, 57, 0
11, 105120, Note_on_c, 8, 57, 64
11, 105346, Note_on_c, 8, 57, 0
11, 105360, Note_on_c, 8, 57, 64
11, 105586, Note_on_c, 8, 57, 0
11, 105600, Note_on_c, 8, 58, 64
11, 105826, Note_on_c, 8, 58, 0
11, 105840, Note_on_c, 8, 55, 64
11, 106066, Note_on_c, 8, 55, 0
11, 106080, Note_on_c, 8, 53, 64
11, 106534, Note_on_c, 8, 53, 0
11, 115920, Note_on_c, 8, 48, 64
11, 116146, Note_on_c, 8, 48, 0
11, 116160, Note_on_c, 8, 53, 64
11, 116386, Note_on_c, 8, 53, 0
11, 116400, Note_on_c, 8, 53, 64
11, 116626, Note_on_c, 8, 53, 0
11, 116640, Note_on_c, 8, 55, 64
11, 116866, Note_on_c, 8, 55, 0
11, 116880, Note_on_c, 8, 55, 64
11, 117106, Note_on_c, 8, 55, 0
11, 117120, Note_on_c, 8, 57, 64
11, 117289, Note_on_c, 8, 57, 0
11, 117300, Note_on_c, 8, 58, 64
11, 117355, Note_on_c, 8, 58, 0
11, 117360, Note_on_c, 8, 57, 64
11, 117529, Note_on_c, 8, 57, 0
11, 117540, Note_on_c, 8, 55, 64
11, 117595, Note_on_c, 8, 55, 0
11, 117600, Note_on_c, 8, 53, 64
11, 117826, Note_on_c, 8, 53, 0
11, 117840, Note_on_c, 8, 53, 64
11, 118066, Note_on_c, 8, 53, 0
11, 118080, Note_on_c, 8, 58, 64
11, 118306, Note_on_c, 8, 58, 0
11, 118320, Note_on_c, 8, 58, 64
11, 118546, Note_on_c, 8, 58, 0
11, 118560, Note_on_c, 8, 57, 64
11, 118729, Note_on_c, 8, 57, 0
11, 118740, Note_on_c, 8, 55, 64
11, 118795, Note_on_c, 8, 55, 0
11, 118800, Note_on_c, 8, 57, 64
11, 118969, Note_on_c, 8, 57, 0
11, 118980, Note_on_c, 8, 58, 64
11, 119035, Note_on_c, 8, 58, 0
11, 119040, Note_on_c, 8, 55, 64
11, 119494, Note_on_c, 8, 55, 0
11, 119760, Note_on_c, 8, 48, 64
11, 119986, Note_on_c, 8, 48, 0
11, 120000, Note_on_c, 8, 58, 64
11, 120226, Note_on_c, 8, 58, 0
11, 120240, Note_on_c, 8, 58, 64
11, 120466, Note_on_c, 8, 58, 0
11, 120480, Note_on_c, 8, 55, 64
11, 120706, Note_on_c, 8, 55, 0
11, 120720, Note_on_c, 8, 55, 64
11, 120946, Note_on_c, 8, 55, 0
11, 120960, Note_on_c, 8, 60, 64
11, 121300, Note_on_c, 8, 60, 0
11, 121320, Note_on_c, 8, 59, 64
11, 121375, Note_on_c, 8, 59, 0
11, 121380, Note_on_c, 8, 60, 64
11, 121435, Note_on_c, 8, 60, 0
11, 121440, Note_on_c, 8, 62, 64
11, 121552, Note_on_c, 8, 62, 0
11, 121560, Note_on_c, 8, 60, 64
11, 121672, Note_on_c, 8, 60, 0
11, 121680, Note_on_c, 8, 58, 64
11, 121792, Note_on_c, 8, 58, 0
11, 121800, Note_on_c, 8, 57, 64
11, 121912, Note_on_c, 8, 57, 0
11, 121920, Note_on_c, 8, 55, 64
11, 122146, Note_on_c, 8, 55, 0
11, 122160, Note_on_c, 8, 55, 64
11, 122386, Note_on_c, 8, 55, 0
11, 122400, Note_on_c, 8, 55, 64
11, 122569, Note_on_c, 8, 55, 0
11, 122580, Note_on_c, 8, 53, 64
11, 122635, Note_on_c, 8, 53, 0
11, 122640, Note_on_c, 8, 55, 64
11, 122809, Note_on_c, 8, 55, 0
11, 122820, Note_on_c, 8, 57, 64
11, 122875, Note_on_c, 8, 57, 0
11, 122880, Note_on_c, 8, 53, 64
11, 123334, Note_on_c, 8, 53, 0
11, 123600, Note_on_c, 8, 55, 64
11, 123826, Note_on_c, 8, 55, 0
11, 123840, Note_on_c, 8, 57, 64
11, 124180, Note_on_c, 8, 57, 0
11, 124200, Note_on_c, 8, 60, 64
11, 124312, Note_on_c, 8, 60, 0
11, 124320, Note_on_c, 8, 60, 64
11, 124432, Note_on_c, 8, 60, 0
11, 124440, Note_on_c, 8, 58, 64
11, 124552, Note_on_c, 8, 58, 0
11, 124560, Note_on_c, 8, 57, 64
11, 124672, Note_on_c, 8, 57, 0
11, 124680, Note_on_c, 8, 55, 64
11, 124792, Note_on_c, 8, 55, 0
11, 124800, Note_on_c, 8, 53, 64
11, 125254, Note_on_c, 8, 53, 0
11, 125520, Note_on_c, 8, 55, 64
11, 125746, Note_on_c, 8, 55, 0
11, 125760, Note_on_c, 8, 57, 64
11, 125872, Note_on_c, 8, 57, 0
11, 125880, Note_on_c, 8, 53, 64
11, 125992, Note_on_c, 8, 53, 0
11, 126000, Note_on_c, 8, 57, 64
11, 126112, Note_on_c, 8, 57, 0
11, 126120, Note_on_c, 8, 60, 64
11, 126232, Note_on_c, 8, 60, 0
11, 126240, Note_on_c, 8, 60, 64
11, 126352, Note_on_c, 8, 60, 0
11, 126360, Note_on_c, 8, 58, 64
11, 126472, Note_on_c, 8, 58, 0
11, 126480, Note_on_c, 8, 57, 64
11, 126592, Note_on_c, 8, 57, 0
11, 126600, Note_on_c, 8, 55, 64
11, 126712, Note_on_c, 8, 55, 0
11, 126720, Note_on_c, 8, 53, 64
11, 127174, Note_on_c, 8, 53, 0
11, 133200, Note_on_c, 8, 57, 64
11, 133426, Note_on_c, 8, 57, 0
11, 133440, Note_on_c, 8, 55, 64
11, 133666, Note_on_c, 8, 55, 0
11, 133680, Note_on_c, 8, 52, 64
11, 133906, Note_on_c, 8, 52, 0
11, 133920, Note_on_c, 8, 57, 64
11, 134146, Note_on_c, 8, 57, 0
11, 134160, Note_on_c, 8, 55, 64
11, 134386, Note_on_c, 8, 55, 0
11, 134400, Note_on_c, 8, 52, 64
11, 134626, Note_on_c, 8, 52, 0
11, 134640, Note_on_c, 8, 57, 64
11, 134866, Note_on_c, 8, 57, 0
11, 134880, Note_on_c, 8, 55, 64
11, 135562, Note_on_c, 8, 55, 0
11, 135600, Note_on_c, 8, 60, 64
11, 135826, Note_on_c, 8, 60, 0
11, 136080, Note_on_c, 8, 57, 64
11, 136306, Note_on_c, 8, 57, 0
11, 136320, Note_on_c, 8, 55, 64
11, 136546, Note_on_c, 8, 55, 0
11, 136560, Note_on_c, 8, 52, 64
11, 136786, Note_on_c, 8, 52, 0
11, 136800, Note_on_c, 8, 48, 64
11, 137026, Note_on_c, 8, 48, 0
11, 137040, Note_on_c, 8, 53, 64
11, 137266, Note_on_c, 8, 53, 0
11, 137280, Note_on_c, 8, 50, 64
11, 137506, Note_on_c, 8, 50, 0
11, 137520, Note_on_c, 8, 47, 64
11, 137746, Note_on_c, 8, 47, 0
11, 137760, Note_on_c, 8, 50, 64
11, 138442, Note_on_c, 8, 50, 0
11, 138480, Note_on_c, 8, 48, 64
11, 138706, Note_on_c, 8, 48, 0
11, 138960, Note_on_c, 8, 48, 64
11, 139186, Note_on_c, 8, 48, 0
11, 139200, Note_on_c, 8, 48, 64
11, 139426, Note_on_c, 8, 48, 0
11, 139440, Note_on_c, 8, 50, 64
11, 139666, Note_on_c, 8, 50, 0
11, 139680, Note_on_c, 8, 52, 64
11, 139906, Note_on_c, 8, 52, 0
11, 139920, Note_on_c, 8, 53, 64
11, 140146, Note_on_c, 8, 53, 0
11, 140160, Note_on_c, 8, 55, 64
11, 140386, Note_on_c, 8, 55, 0
11, 140400, Note_on_c, 8, 57, 64
11, 140626, Note_on_c, 8, 57, 0
11, 140640, Note_on_c, 8, 58, 64
11, 141550, Note_on_c, 8, 58, 0
11, 141840, Note_on_c, 8, 57, 64
11, 142066, Note_on_c, 8, 57, 0
11, 142080, Note_on_c, 8, 57, 64
11, 142306, Note_on_c, 8, 57, 0
11, 142320, Note_on_c, 8, 55, 64
11, 142546, Note_on_c, 8, 55, 0
11, 142560, Note_on_c, 8, 53, 64
11, 142786, Note_on_c, 8, 53, 0
11, 142800, Note_on_c, 8, 53, 64
11, 143026, Note_on_c, 8, 53, 0
11, 143040, Note_on_c, 8, 55, 64
11, 143266, Note_on_c, 8, 55, 0
11, 143280, Note_on_c, 8, 52, 64
11, 143506, Note_on_c, 8, 52, 0
11, 143520, Note_on_c, 8, 53, 64
11, 143974, Note_on_c, 8, 53, 0
11, 144720, Note_on_c, 8, 55, 64
11, 144946, Note_on_c, 8, 55, 0
11, 144960, Note_on_c, 8, 57, 64
11, 145186, Note_on_c, 8, 57, 0
11, 145200, Note_on_c, 8, 60, 64
11, 145426, Note_on_c, 8, 60, 0
11, 146160, Note_on_c, 8, 55, 64
11, 146386, Note_on_c, 8, 55, 0
11, 146400, Note_on_c, 8, 57, 64
11, 146626, Note_on_c, 8, 57, 0
11, 146640, Note_on_c, 8, 60, 64
11, 146866, Note_on_c, 8, 60, 0
11, 147600, Note_on_c, 8, 55, 64
11, 147826, Note_on_c, 8, 55, 0
11, 147840, Note_on_c, 8, 57, 64
11, 148522, Note_on_c, 8, 57, 0
11, 148560, Note_on_c, 8, 60, 64
11, 148786, Note_on_c, 8, 60, 0
11, 149040, Note_on_c, 8, 57, 64
11, 149266, Note_on_c, 8, 57, 0
11, 149280, Note_on_c, 8, 57, 64
11, 149506, Note_on_c, 8, 57, 0
11, 149520, Note_on_c, 8, 57, 64
11, 149746, Note_on_c, 8, 57, 0
11, 149760, Note_on_c, 8, 57, 64
11, 149986, Note_on_c, 8, 57, 0
11, 150000, Note_on_c, 8, 57, 64
11, 150226, Note_on_c, 8, 57, 0
11, 150240, Note_on_c, 8, 58, 64
11, 150466, Note_on_c, 8, 58, 0
11, 150480, Note_on_c, 8, 60, 64
11, 150706, Note_on_c, 8, 60, 0
11, 150720, Note_on_c, 8, 62, 64
11, 151630, Note_on_c, 8, 62, 0
11, 151680, Note_on_c, 8, 58, 64
11, 151906, Note_on_c, 8, 58, 0
11, 151920, Note_on_c, 8, 55, 64
11, 152146, Note_on_c, 8, 55, 0
11, 152160, Note_on_c, 8, 60, 64
11, 152386, Note_on_c, 8, 60, 0
11, 152400, Note_on_c, 8, 57, 64
11, 152626, Note_on_c, 8, 57, 0
11, 152640, Note_on_c, 8, 53, 64
11, 152866, Note_on_c, 8, 53, 0
11, 152880, Note_on_c, 8, 48, 64
11, 153106, Note_on_c, 8, 48, 0
11, 153120, Note_on_c, 8, 50, 64
11, 153346, Note_on_c, 8, 50, 0
11, 153360, Note_on_c, 8, 52, 64
11, 153586, Note_on_c, 8, 52, 0
11, 153600, Note_on_c, 8, 53, 64
11, 154054, Note_on_c, 8, 53, 0
11, 155280, Note_on_c, 8, 57, 64
11, 155506, Note_on_c, 8, 57, 0
11, 155520, Note_on_c, 8, 57, 64
11, 155746, Note_on_c, 8, 57, 0
11, 155760, Note_on_c, 8, 57, 64
11, 155986, Note_on_c, 8, 57, 0
11, 156000, Note_on_c, 8, 58, 64
11, 156226, Note_on_c, 8, 58, 0
11, 156240, Note_on_c, 8, 55, 64
11, 156466, Note_on_c, 8, 55, 0
11, 156480, Note_on_c, 8, 53, 64
11, 156934, Note_on_c, 8, 53, 0
11, 158160, Note_on_c, 8, 57, 64
11, 158386, Note_on_c, 8, 57, 0
11, 158400, Note_on_c, 8, 57, 64
11, 158626, Note_on_c, 8, 57, 0
11, 158640, Note_on_c, 8, 57, 64
11, 158866, Note_on_c, 8, 57, 0
11, 158880, Note_on_c, 8, 58, 64
11, 159106, Note_on_c, 8, 58, 0
11, 159120, Note_on_c, 8, 55, 64
11, 159346, Note_on_c, 8, 55, 0
11, 159360, Note_on_c, 8, 53, 64
11, 159814, Note_on_c, 8, 53, 0
11, 159814, End_track
12, 0, Start_track
12, 0, MIDI_port, 0
12, 0, Title_t, "Glockenspiel 1"
12, 0, Program_c, 10, 9
12, 0, Control_c, 10, 7, 117
12, 0, Control_c, 10, 10, 64
12, 315, Control_c, 10, 91, 40
12, 320, Control_c, 10, 93, 0
12, 1680, Note_on_c, 10, 60, 64
12, 1680, Note_on_c, 10, 72, 64
12, 1918, Note_on_c, 10, 72, 0
12, 1918, Note_on_c, 10, 60, 0
12, 1920, Note_on_c, 10, 57, 64
12, 1920, Note_on_c, 10, 65, 64
12, 1920, Note_on_c, 10, 72, 64
12, 1920, Note_on_c, 10, 77, 64
12, 2158, Note_on_c, 10, 77, 0
12, 2158, Note_on_c, 10, 57, 0
12, 2158, Note_on_c, 10, 65, 0
12, 2158, Note_on_c, 10, 72, 0
12, 2160, Note_on_c, 10, 57, 64
12, 2160, Note_on_c, 10, 65, 64
12, 2160, Note_on_c, 10, 72, 64
12, 2160, Note_on_c, 10, 77, 64
12, 2398, Note_on_c, 10, 77, 0
12, 2398, Note_on_c, 10, 57, 0
12, 2398, Note_on_c, 10, 65, 0
12, 2398, Note_on_c, 10, 72, 0
12, 2400, Note_on_c, 10, 60, 64
12, 2400, Note_on_c, 10, 67, 64
12, 2400, Note_on_c, 10, 76, 64
12, 2400, Note_on_c, 10, 79, 64
12, 2638, Note_on_c, 10, 79, 0
12, 2638, Note_on_c, 10, 60, 0
12, 2638, Note_on_c, 10, 67, 0
12, 2638, Note_on_c, 10, 76, 0
12, 2640, Note_on_c, 10, 60, 64
12, 2640, Note_on_c, 10, 67, 64
12, 2640, Note_on_c, 10, 76, 64
12, 2640, Note_on_c, 10, 79, 64
12, 2878, Note_on_c, 10, 79, 0
12, 2878, Note_on_c, 10, 60, 0
12, 2878, Note_on_c, 10, 67, 0
12, 2878, Note_on_c, 10, 76, 0
12, 2880, Note_on_c, 10, 65, 64
12, 2880, Note_on_c, 10, 69, 64
12, 2880, Note_on_c, 10, 81, 64
12, 2880, Note_on_c, 10, 77, 64
12, 3058, Note_on_c, 10, 81, 0
12, 3060, Note_on_c, 10, 82, 64
12, 3118, Note_on_c, 10, 82, 0
12, 3118, Note_on_c, 10, 65, 0
12, 3118, Note_on_c, 10, 69, 0
12, 3120, Note_on_c, 10, 81, 64
12, 3298, Note_on_c, 10, 81, 0
12, 3300, Note_on_c, 10, 79, 64
12, 3358, Note_on_c, 10, 79, 0
12, 3358, Note_on_c, 10, 77, 0
12, 3360, Note_on_c, 10, 77, 64
12, 3598, Note_on_c, 10, 77, 0
12, 3600, Note_on_c, 10, 65, 64
12, 3600, Note_on_c, 10, 69, 64
12, 3600, Note_on_c, 10, 72, 64
12, 3600, Note_on_c, 10, 77, 64
12, 3838, Note_on_c, 10, 77, 0
12, 3838, Note_on_c, 10, 65, 0
12, 3838, Note_on_c, 10, 69, 0
12, 3838, Note_on_c, 10, 72, 0
12, 3840, Note_on_c, 10, 64, 64
12, 3840, Note_on_c, 10, 67, 64
12, 3840, Note_on_c, 10, 72, 64
12, 4078, Note_on_c, 10, 72, 0
12, 4078, Note_on_c, 10, 67, 0
12, 4078, Note_on_c, 10, 64, 0
12, 4080, Note_on_c, 10, 64, 64
12, 4080, Note_on_c, 10, 67, 64
12, 4080, Note_on_c, 10, 72, 64
12, 4318, Note_on_c, 10, 72, 0
12, 4318, Note_on_c, 10, 67, 0
12, 4318, Note_on_c, 10, 64, 0
12, 4320, Note_on_c, 10, 65, 64
12, 4320, Note_on_c, 10, 69, 64
12, 4320, Note_on_c, 10, 72, 64
12, 4320, Note_on_c, 10, 81, 64
12, 4498, Note_on_c, 10, 81, 0
12, 4500, Note_on_c, 10, 79, 64
12, 4558, Note_on_c, 10, 79, 0
12, 4558, Note_on_c, 10, 72, 0
12, 4558, Note_on_c, 10, 69, 0
12, 4558, Note_on_c, 10, 65, 0
12, 4560, Note_on_c, 10, 65, 64
12, 4560, Note_on_c, 10, 69, 64
12, 4560, Note_on_c, 10, 72, 64
12, 4560, Note_on_c, 10, 81, 64
12, 4738, Note_on_c, 10, 81, 0
12, 4740, Note_on_c, 10, 82, 64
12, 4798, Note_on_c, 10, 82, 0
12, 4798, Note_on_c, 10, 72, 0
12, 4798, Note_on_c, 10, 69, 0
12, 4798, Note_on_c, 10, 65, 0
12, 4800, Note_on_c, 10, 60, 64
12, 4800, Note_on_c, 10, 64, 64
12, 4800, Note_on_c, 10, 67, 64
12, 4800, Note_on_c, 10, 72, 64
12, 4800, Note_on_c, 10, 79, 64
12, 5278, Note_on_c, 10, 79, 0
12, 5278, Note_on_c, 10, 67, 0
12, 5278, Note_on_c, 10, 60, 0
12, 5278, Note_on_c, 10, 64, 0
12, 5278, Note_on_c, 10, 72, 0
12, 5520, Note_on_c, 10, 72, 64
12, 5758, Note_on_c, 10, 72, 0
12, 5760, Note_on_c, 10, 60, 64
12, 5760, Note_on_c, 10, 67, 64
12, 5760, Note_on_c, 10, 64, 64
12, 5760, Note_on_c, 10, 79, 64
12, 5760, Note_on_c, 10, 82, 64
12, 5998, Note_on_c, 10, 82, 0
12, 5998, Note_on_c, 10, 64, 0
12, 5998, Note_on_c, 10, 60, 0
12, 5998, Note_on_c, 10, 67, 0
12, 5998, Note_on_c, 10, 79, 0
12, 6000, Note_on_c, 10, 60, 64
12, 6000, Note_on_c, 10, 64, 64
12, 6000, Note_on_c, 10, 67, 64
12, 6000, Note_on_c, 10, 82, 64
12, 6000, Note_on_c, 10, 79, 64
12, 6238, Note_on_c, 10, 79, 0
12, 6238, Note_on_c, 10, 67, 0
12, 6238, Note_on_c, 10, 60, 0
12, 6238, Note_on_c, 10, 64, 0
12, 6238, Note_on_c, 10, 82, 0
12, 6240, Note_on_c, 10, 58, 64
12, 6240, Note_on_c, 10, 67, 64
12, 6240, Note_on_c, 10, 64, 64
12, 6240, Note_on_c, 10, 72, 64
12, 6240, Note_on_c, 10, 76, 64
12, 6240, Note_on_c, 10, 79, 64
12, 6478, Note_on_c, 10, 79, 0
12, 6478, Note_on_c, 10, 67, 0
12, 6478, Note_on_c, 10, 64, 0
12, 6478, Note_on_c, 10, 58, 0
12, 6478, Note_on_c, 10, 76, 0
12, 6478, Note_on_c, 10, 72, 0
12, 6480, Note_on_c, 10, 58, 64
12, 6480, Note_on_c, 10, 67, 64
12, 6480, Note_on_c, 10, 64, 64
12, 6480, Note_on_c, 10, 72, 64
12, 6480, Note_on_c, 10, 76, 64
12, 6480, Note_on_c, 10, 79, 64
12, 6718, Note_on_c, 10, 79, 0
12, 6718, Note_on_c, 10, 67, 0
12, 6718, Note_on_c, 10, 64, 0
12, 6718, Note_on_c, 10, 58, 0
12, 6718, Note_on_c, 10, 76, 0
12, 6718, Note_on_c, 10, 72, 0
12, 6720, Note_on_c, 10, 60, 64
12, 6720, Note_on_c, 10, 65, 64
12, 6720, Note_on_c, 10, 69, 64
12, 6720, Note_on_c, 10, 57, 64
12, 6720, Note_on_c, 10, 72, 64
12, 6720, Note_on_c, 10, 77, 64
12, 6720, Note_on_c, 10, 81, 64
12, 6720, Note_on_c, 10, 84, 64
12, 6958, Note_on_c, 10, 84, 0
12, 6958, Note_on_c, 10, 60, 0
12, 6958, Note_on_c, 10, 72, 0
12, 6958, Note_on_c, 10, 65, 0
12, 6958, Note_on_c, 10, 69, 0
12, 6958, Note_on_c, 10, 57, 0
12, 6958, Note_on_c, 10, 77, 0
12, 6958, Note_on_c, 10, 81, 0
12, 7080, Note_on_c, 10, 84, 64
12, 7108, Note_on_c, 10, 84, 0
12, 7110, Note_on_c, 10, 82, 64
12, 7138, Note_on_c, 10, 82, 0
12, 7140, Note_on_c, 10, 81, 64
12, 7168, Note_on_c, 10, 81, 0
12, 7170, Note_on_c, 10, 79, 64
12, 7198, Note_on_c, 10, 79, 0
12, 7200, Note_on_c, 10, 77, 64
12, 7378, Note_on_c, 10, 77, 0
12, 7380, Note_on_c, 10, 79, 64
12, 7438, Note_on_c, 10, 79, 0
12, 7440, Note_on_c, 10, 81, 64
12, 7618, Note_on_c, 10, 81, 0
12, 7620, Note_on_c, 10, 77, 64
12, 7678, Note_on_c, 10, 77, 0
12, 7680, Note_on_c, 10, 58, 64
12, 7680, Note_on_c, 10, 62, 64
12, 7680, Note_on_c, 10, 67, 64
12, 7680, Note_on_c, 10, 79, 64
12, 7918, Note_on_c, 10, 79, 0
12, 7918, Note_on_c, 10, 58, 0
12, 7918, Note_on_c, 10, 62, 0
12, 7918, Note_on_c, 10, 67, 0
12, 7920, Note_on_c, 10, 79, 64
12, 8158, Note_on_c, 10, 79, 0
12, 8160, Note_on_c, 10, 60, 64
12, 8160, Note_on_c, 10, 67, 64
12, 8160, Note_on_c, 10, 70, 64
12, 8160, Note_on_c, 10, 72, 64
12, 8338, Note_on_c, 10, 72, 0
12, 8340, Note_on_c, 10, 74, 64
12, 8398, Note_on_c, 10, 74, 0
12, 8398, Note_on_c, 10, 70, 0
12, 8398, Note_on_c, 10, 67, 0
12, 8398, Note_on_c, 10, 60, 0
12, 8400, Note_on_c, 10, 76, 64
12, 8578, Note_on_c, 10, 76, 0
12, 8580, Note_on_c, 10, 72, 64
12, 8638, Note_on_c, 10, 72, 0
12, 8640, Note_on_c, 10, 69, 64
12, 8640, Note_on_c, 10, 65, 64
12, 8640, Note_on_c, 10, 77, 64
12, 8878, Note_on_c, 10, 77, 0
12, 8878, Note_on_c, 10, 65, 0
12, 8878, Note_on_c, 10, 69, 0
12, 8880, Note_on_c, 10, 65, 64
12, 8880, Note_on_c, 10, 72, 64
12, 8880, Note_on_c, 10, 81, 64
12, 9118, Note_on_c, 10, 81, 0
12, 9118, Note_on_c, 10, 72, 0
12, 9118, Note_on_c, 10, 65, 0
12, 9120, Note_on_c, 10, 53, 64
12, 9120, Note_on_c, 10, 69, 64
12, 9120, Note_on_c, 10, 77, 64
12, 9358, Note_on_c, 10, 77, 0
12, 9358, Note_on_c, 10, 69, 0
12, 9358, Note_on_c, 10, 53, 0
12, 12720, Note_on_c, 10, 60, 64
12, 12720, Note_on_c, 10, 64, 64
12, 12720, Note_on_c, 10, 67, 64
12, 12720, Note_on_c, 10, 72, 64
12, 12778, Note_on_c, 10, 72, 0
12, 12780, Note_on_c, 10, 76, 64
12, 12838, Note_on_c, 10, 76, 0
12, 12840, Note_on_c, 10, 79, 64
12, 12898, Note_on_c, 10, 79, 0
12, 12900, Note_on_c, 10, 84, 64
12, 12958, Note_on_c, 10, 84, 0
12, 12958, Note_on_c, 10, 67, 0
12, 12958, Note_on_c, 10, 64, 0
12, 12958, Note_on_c, 10, 60, 0
12, 12960, Note_on_c, 10, 60, 64
12, 12960, Note_on_c, 10, 64, 64
12, 12960, Note_on_c, 10, 67, 64
12, 12960, Note_on_c, 10, 72, 64
12, 13198, Note_on_c, 10, 72, 0
12, 13198, Note_on_c, 10, 60, 0
12, 13198, Note_on_c, 10, 64, 0
12, 13198, Note_on_c, 10, 67, 0
12, 16560, Note_on_c, 10, 65, 64
12, 16560, Note_on_c, 10, 69, 64
12, 16560, Note_on_c, 10, 77, 64
12, 16618, Note_on_c, 10, 77, 0
12, 16620, Note_on_c, 10, 72, 64
12, 16678, Note_on_c, 10, 72, 0
12, 16680, Note_on_c, 10, 77, 64
12, 16738, Note_on_c, 10, 77, 0
12, 16740, Note_on_c, 10, 81, 64
12, 16798, Note_on_c, 10, 81, 0
12, 16798, Note_on_c, 10, 69, 0
12, 16798, Note_on_c, 10, 65, 0
12, 16800, Note_on_c, 10, 64, 64
12, 16800, Note_on_c, 10, 67, 64
12, 16800, Note_on_c, 10, 72, 64
12, 16800, Note_on_c, 10, 84, 64
12, 17038, Note_on_c, 10, 84, 0
12, 17038, Note_on_c, 10, 64, 0
12, 17038, Note_on_c, 10, 67, 0
12, 17038, Note_on_c, 10, 72, 0
12, 18480, Note_on_c, 10, 77, 64
12, 18480, Note_on_c, 10, 65, 64
12, 18480, Note_on_c, 10, 69, 64
12, 18538, Note_on_c, 10, 77, 0
12, 18540, Note_on_c, 10, 76, 64
12, 18598, Note_on_c, 10, 76, 0
12, 18600, Note_on_c, 10, 77, 64
12, 18658, Note_on_c, 10, 77, 0
12, 18660, Note_on_c, 10, 81, 64
12, 18718, Note_on_c, 10, 81, 0
12, 18718, Note_on_c, 10, 69, 0
12, 18718, Note_on_c, 10, 65, 0
12, 18720, Note_on_c, 10, 84, 64
12, 18720, Note_on_c, 10, 72, 64
12, 18720, Note_on_c, 10, 67, 64
12, 18720, Note_on_c, 10, 64, 64
12, 18958, Note_on_c, 10, 64, 0
12, 18958, Note_on_c, 10, 84, 0
12, 18958, Note_on_c, 10, 72, 0
12, 18958, Note_on_c, 10, 67, 0
12, 20880, Note_on_c, 10, 65, 64
12, 20880, Note_on_c, 10, 69, 64
12, 20880, Note_on_c, 10, 77, 64
12, 20880, Note_on_c, 10, 81, 64
12, 21118, Note_on_c, 10, 81, 0
12, 21118, Note_on_c, 10, 65, 0
12, 21118, Note_on_c, 10, 69, 0
12, 21118, Note_on_c, 10, 77, 0
12, 21120, Note_on_c, 10, 60, 64
12, 21120, Note_on_c, 10, 64, 64
12, 21120, Note_on_c, 10, 67, 64
12, 21120, Note_on_c, 10, 76, 64
12, 21120, Note_on_c, 10, 79, 64
12, 21358, Note_on_c, 10, 79, 0
12, 21358, Note_on_c, 10, 67, 0
12, 21358, Note_on_c, 10, 60, 0
12, 21358, Note_on_c, 10, 64, 0
12, 21358, Note_on_c, 10, 76, 0
12, 21360, Note_on_c, 10, 72, 64
12, 21360, Note_on_c, 10, 76, 64
12, 21598, Note_on_c, 10, 76, 0
12, 21598, Note_on_c, 10, 72, 0
12, 21600, Note_on_c, 10, 65, 64
12, 21600, Note_on_c, 10, 69, 64
12, 21600, Note_on_c, 10, 81, 64
12, 21600, Note_on_c, 10, 77, 64
12, 21838, Note_on_c, 10, 77, 0
12, 21838, Note_on_c, 10, 65, 0
12, 21838, Note_on_c, 10, 69, 0
12, 21838, Note_on_c, 10, 81, 0
12, 21840, Note_on_c, 10, 60, 64
12, 21840, Note_on_c, 10, 64, 64
12, 21840, Note_on_c, 10, 67, 64
12, 21840, Note_on_c, 10, 76, 64
12, 21840, Note_on_c, 10, 79, 64
12, 22078, Note_on_c, 10, 79, 0
12, 22078, Note_on_c, 10, 67, 0
12, 22078, Note_on_c, 10, 60, 0
12, 22078, Note_on_c, 10, 64, 0
12, 22078, Note_on_c, 10, 76, 0
12, 22080, Note_on_c, 10, 72, 64
12, 22080, Note_on_c, 10, 76, 64
12, 22318, Note_on_c, 10, 76, 0
12, 22318, Note_on_c, 10, 72, 0
12, 22320, Note_on_c, 10, 65, 64
12, 22320, Note_on_c, 10, 69, 64
12, 22320, Note_on_c, 10, 81, 64
12, 22320, Note_on_c, 10, 77, 64
12, 22558, Note_on_c, 10, 77, 0
12, 22558, Note_on_c, 10, 65, 0
12, 22558, Note_on_c, 10, 69, 0
12, 22558, Note_on_c, 10, 81, 0
12, 22560, Note_on_c, 10, 60, 64
12, 22560, Note_on_c, 10, 64, 64
12, 22560, Note_on_c, 10, 67, 64
12, 22560, Note_on_c, 10, 76, 64
12, 22560, Note_on_c, 10, 79, 64
12, 22798, Note_on_c, 10, 79, 0
12, 22798, Note_on_c, 10, 67, 0
12, 22798, Note_on_c, 10, 60, 0
12, 22798, Note_on_c, 10, 64, 0
12, 22798, Note_on_c, 10, 76, 0
12, 22800, Note_on_c, 10, 60, 64
12, 22800, Note_on_c, 10, 64, 64
12, 22800, Note_on_c, 10, 67, 64
12, 22800, Note_on_c, 10, 84, 64
12, 22800, Note_on_c, 10, 79, 64
12, 22800, Note_on_c, 10, 76, 64
12, 23038, Note_on_c, 10, 76, 0
12, 23038, Note_on_c, 10, 64, 0
12, 23038, Note_on_c, 10, 67, 0
12, 23038, Note_on_c, 10, 60, 0
12, 23038, Note_on_c, 10, 79, 0
12, 23038, Note_on_c, 10, 84, 0
12, 23040, Note_on_c, 10, 60, 64
12, 23040, Note_on_c, 10, 64, 64
12, 23040, Note_on_c, 10, 67, 64
12, 23040, Note_on_c, 10, 84, 64
12, 23040, Note_on_c, 10, 79, 64
12, 23040, Note_on_c, 10, 76, 64
12, 23278, Note_on_c, 10, 76, 0
12, 23278, Note_on_c, 10, 64, 0
12, 23278, Note_on_c, 10, 67, 0
12, 23278, Note_on_c, 10, 60, 0
12, 23278, Note_on_c, 10, 79, 0
12, 23278, Note_on_c, 10, 84, 0
12, 23280, Note_on_c, 10, 60, 64
12, 23280, Note_on_c, 10, 64, 64
12, 23280, Note_on_c, 10, 67, 64
12, 23280, Note_on_c, 10, 84, 64
12, 23280, Note_on_c, 10, 79, 64
12, 23280, Note_on_c, 10, 76, 64
12, 23518, Note_on_c, 10, 76, 0
12, 23518, Note_on_c, 10, 64, 0
12, 23518, Note_on_c, 10, 67, 0
12, 23518, Note_on_c, 10, 60, 0
12, 23518, Note_on_c, 10, 79, 0
12, 23518, Note_on_c, 10, 84, 0
12, 23760, Note_on_c, 10, 65, 64
12, 23760, Note_on_c, 10, 69, 64
12, 23760, Note_on_c, 10, 81, 64
12, 23760, Note_on_c, 10, 77, 64
12, 23998, Note_on_c, 10, 77, 0
12, 23998, Note_on_c, 10, 65, 0
12, 23998, Note_on_c, 10, 69, 0
12, 23998, Note_on_c, 10, 81, 0
12, 24000, Note_on_c, 10, 60, 64
12, 24000, Note_on_c, 10, 64, 64
12, 24000, Note_on_c, 10, 67, 64
12, 24000, Note_on_c, 10, 76, 64
12, 24000, Note_on_c, 10, 79, 64
12, 24238, Note_on_c, 10, 79, 0
12, 24238, Note_on_c, 10, 67, 0
12, 24238, Note_on_c, 10, 60, 0
12, 24238, Note_on_c, 10, 64, 0
12, 24238, Note_on_c, 10, 76, 0
12, 24240, Note_on_c, 10, 72, 64
12, 24240, Note_on_c, 10, 76, 64
12, 24478, Note_on_c, 10, 76, 0
12, 24478, Note_on_c, 10, 72, 0
12, 24480, Note_on_c, 10, 60, 64
12, 24480, Note_on_c, 10, 64, 64
12, 24480, Note_on_c, 10, 67, 64
12, 24480, Note_on_c, 10, 79, 64
12, 24480, Note_on_c, 10, 76, 64
12, 24718, Note_on_c, 10, 76, 0
12, 24718, Note_on_c, 10, 67, 0
12, 24718, Note_on_c, 10, 60, 0
12, 24718, Note_on_c, 10, 64, 0
12, 24718, Note_on_c, 10, 79, 0
12, 24720, Note_on_c, 10, 55, 64
12, 24720, Note_on_c, 10, 62, 64
12, 24720, Note_on_c, 10, 67, 64
12, 24720, Note_on_c, 10, 74, 64
12, 24720, Note_on_c, 10, 77, 64
12, 24958, Note_on_c, 10, 77, 0
12, 24958, Note_on_c, 10, 67, 0
12, 24958, Note_on_c, 10, 55, 0
12, 24958, Note_on_c, 10, 62, 0
12, 24958, Note_on_c, 10, 74, 0
12, 24960, Note_on_c, 10, 71, 64
12, 24960, Note_on_c, 10, 74, 64
12, 25198, Note_on_c, 10, 74, 0
12, 25198, Note_on_c, 10, 71, 0
12, 25200, Note_on_c, 10, 74, 64
12, 25200, Note_on_c, 10, 83, 64
12, 25438, Note_on_c, 10, 83, 0
12, 25438, Note_on_c, 10, 74, 0
12, 25440, Note_on_c, 10, 67, 64
12, 25440, Note_on_c, 10, 71, 64
12, 25440, Note_on_c, 10, 74, 64
12, 25440, Note_on_c, 10, 86, 64
12, 25440, Note_on_c, 10, 83, 64
12, 25440, Note_on_c, 10, 79, 64
12, 25440, Note_on_c, 10, 77, 64
12, 25678, Note_on_c, 10, 77, 0
12, 25678, Note_on_c, 10, 83, 0
12, 25678, Note_on_c, 10, 71, 0
12, 25678, Note_on_c, 10, 74, 0
12, 25678, Note_on_c, 10, 67, 0
12, 25678, Note_on_c, 10, 79, 0
12, 25678, Note_on_c, 10, 86, 0
12, 25680, Note_on_c, 10, 67, 64
12, 25680, Note_on_c, 10, 71, 64
12, 25680, Note_on_c, 10, 74, 64
12, 25680, Note_on_c, 10, 86, 64
12, 25680, Note_on_c, 10, 83, 64
12, 25680, Note_on_c, 10, 79, 64
12, 25680, Note_on_c, 10, 77, 64
12, 25918, Note_on_c, 10, 77, 0
12, 25918, Note_on_c, 10, 83, 0
12, 25918, Note_on_c, 10, 71, 0
12, 25918, Note_on_c, 10, 74, 0
12, 25918, Note_on_c, 10, 67, 0
12, 25918, Note_on_c, 10, 79, 0
12, 25918, Note_on_c, 10, 86, 0
12, 25920, Note_on_c, 10, 67, 64
12, 25920, Note_on_c, 10, 71, 64
12, 25920, Note_on_c, 10, 74, 64
12, 25920, Note_on_c, 10, 86, 64
12, 25920, Note_on_c, 10, 83, 64
12, 25920, Note_on_c, 10, 79, 64
12, 25920, Note_on_c, 10, 77, 64
12, 26158, Note_on_c, 10, 77, 0
12, 26158, Note_on_c, 10, 83, 0
12, 26158, Note_on_c, 10, 71, 0
12, 26158, Note_on_c, 10, 74, 0
12, 26158, Note_on_c, 10, 67, 0
12, 26158, Note_on_c, 10, 79, 0
12, 26158, Note_on_c, 10, 86, 0
12, 26160, Note_on_c, 10, 60, 64
12, 26160, Note_on_c, 10, 67, 64
12, 26160, Note_on_c, 10, 72, 64
12, 26160, Note_on_c, 10, 76, 64
12, 26160, Note_on_c, 10, 79, 64
12, 26160, Note_on_c, 10, 84, 64
12, 26398, Note_on_c, 10, 84, 0
12, 26398, Note_on_c, 10, 67, 0
12, 26398, Note_on_c, 10, 72, 0
12, 26398, Note_on_c, 10, 60, 0
12, 26398, Note_on_c, 10, 79, 0
12, 26398, Note_on_c, 10, 76, 0
12, 37440, Note_on_c, 10, 60, 64
12, 37440, Note_on_c, 10, 67, 64
12, 37440, Note_on_c, 10, 76, 64
12, 37440, Note_on_c, 10, 84, 64
12, 37678, Note_on_c, 10, 84, 0
12, 37678, Note_on_c, 10, 60, 0
12, 37678, Note_on_c, 10, 67, 0
12, 37678, Note_on_c, 10, 76, 0
12, 37680, Note_on_c, 10, 65, 64
12, 37680, Note_on_c, 10, 69, 64
12, 37680, Note_on_c, 10, 81, 64
12, 37680, Note_on_c, 10, 77, 64
12, 37918, Note_on_c, 10, 77, 0
12, 37918, Note_on_c, 10, 65, 0
12, 37918, Note_on_c, 10, 69, 0
12, 37918, Note_on_c, 10, 81, 0
12, 37920, Note_on_c, 10, 69, 64
12, 37920, Note_on_c, 10, 65, 64
12, 37920, Note_on_c, 10, 77, 64
12, 38158, Note_on_c, 10, 77, 0
12, 38158, Note_on_c, 10, 65, 0
12, 38158, Note_on_c, 10, 69, 0
12, 38880, Note_on_c, 10, 84, 64
12, 38880, Note_on_c, 10, 76, 64
12, 38880, Note_on_c, 10, 67, 64
12, 38880, Note_on_c, 10, 60, 64
12, 39118, Note_on_c, 10, 60, 0
12, 39118, Note_on_c, 10, 84, 0
12, 39118, Note_on_c, 10, 76, 0
12, 39118, Note_on_c, 10, 67, 0
12, 39120, Note_on_c, 10, 77, 64
12, 39120, Note_on_c, 10, 81, 64
12, 39120, Note_on_c, 10, 69, 64
12, 39120, Note_on_c, 10, 65, 64
12, 39358, Note_on_c, 10, 65, 0
12, 39358, Note_on_c, 10, 77, 0
12, 39358, Note_on_c, 10, 81, 0
12, 39358, Note_on_c, 10, 69, 0
12, 39360, Note_on_c, 10, 77, 64
12, 39360, Note_on_c, 10, 65, 64
12, 39360, Note_on_c, 10, 69, 64
12, 39598, Note_on_c, 10, 69, 0
12, 39598, Note_on_c, 10, 65, 0
12, 39598, Note_on_c, 10, 77, 0
12, 40320, Note_on_c, 10, 60, 64
12, 40320, Note_on_c, 10, 67, 64
12, 40320, Note_on_c, 10, 76, 64
12, 40320, Note_on_c, 10, 84, 64
12, 40558, Note_on_c, 10, 84, 0
12, 40558, Note_on_c, 10, 60, 0
12, 40558, Note_on_c, 10, 67, 0
12, 40558, Note_on_c, 10, 76, 0
12, 40560, Note_on_c, 10, 65, 64
12, 40560, Note_on_c, 10, 69, 64
12, 40560, Note_on_c, 10, 81, 64
12, 40560, Note_on_c, 10, 77, 64
12, 40798, Note_on_c, 10, 77, 0
12, 40798, Note_on_c, 10, 65, 0
12, 40798, Note_on_c, 10, 69, 0
12, 40798, Note_on_c, 10, 81, 0
12, 40800, Note_on_c, 10, 69, 64
12, 40800, Note_on_c, 10, 65, 64
12, 40800, Note_on_c, 10, 77, 64
12, 41038, Note_on_c, 10, 77, 0
12, 41038, Note_on_c, 10, 65, 0
12, 41038, Note_on_c, 10, 69, 0
12, 47520, Note_on_c, 10, 65, 64
12, 47520, Note_on_c, 10, 81, 64
12, 47638, Note_on_c, 10, 81, 0
12, 47638, Note_on_c, 10, 65, 0
12, 47640, Note_on_c, 10, 69, 64
12, 47640, Note_on_c, 10, 77, 64
12, 47758, Note_on_c, 10, 77, 0
12, 47758, Note_on_c, 10, 69, 0
12, 47760, Note_on_c, 10, 60, 64
12, 47760, Note_on_c, 10, 82, 64
12, 47878, Note_on_c, 10, 82, 0
12, 47878, Note_on_c, 10, 60, 0
12, 47880, Note_on_c, 10, 64, 64
12, 47880, Note_on_c, 10, 79, 64
12, 47998, Note_on_c, 10, 79, 0
12, 47998, Note_on_c, 10, 64, 0
12, 48000, Note_on_c, 10, 67, 64
12, 48000, Note_on_c, 10, 76, 64
12, 48118, Note_on_c, 10, 76, 0
12, 48118, Note_on_c, 10, 67, 0
12, 48120, Note_on_c, 10, 70, 64
12, 48120, Note_on_c, 10, 72, 64
12, 48238, Note_on_c, 10, 72, 0
12, 48238, Note_on_c, 10, 70, 0
12, 48240, Note_on_c, 10, 60, 64
12, 48240, Note_on_c, 10, 82, 64
12, 48358, Note_on_c, 10, 82, 0
12, 48358, Note_on_c, 10, 60, 0
12, 48360, Note_on_c, 10, 64, 64
12, 48360, Note_on_c, 10, 79, 64
12, 48478, Note_on_c, 10, 79, 0
12, 48478, Note_on_c, 10, 64, 0
12, 48480, Note_on_c, 10, 57, 64
12, 48480, Note_on_c, 10, 60, 64
12, 48480, Note_on_c, 10, 65, 64
12, 48480, Note_on_c, 10, 81, 64
12, 48480, Note_on_c, 10, 84, 64
12, 48480, Note_on_c, 10, 88, 64
12, 48958, Note_on_c, 10, 88, 0
12, 48958, Note_on_c, 10, 60, 0
12, 48958, Note_on_c, 10, 65, 0
12, 48958, Note_on_c, 10, 57, 0
12, 48958, Note_on_c, 10, 84, 0
12, 48958, Note_on_c, 10, 81, 0
12, 50400, Note_on_c, 10, 81, 64
12, 50400, Note_on_c, 10, 65, 64
12, 50518, Note_on_c, 10, 65, 0
12, 50518, Note_on_c, 10, 81, 0
12, 50520, Note_on_c, 10, 77, 64
12, 50520, Note_on_c, 10, 69, 64
12, 50638, Note_on_c, 10, 69, 0
12, 50638, Note_on_c, 10, 77, 0
12, 50640, Note_on_c, 10, 82, 64
12, 50640, Note_on_c, 10, 60, 64
12, 50758, Note_on_c, 10, 60, 0
12, 50758, Note_on_c, 10, 82, 0
12, 50760, Note_on_c, 10, 79, 64
12, 50760, Note_on_c, 10, 64, 64
12, 50878, Note_on_c, 10, 64, 0
12, 50878, Note_on_c, 10, 79, 0
12, 50880, Note_on_c, 10, 76, 64
12, 50880, Note_on_c, 10, 67, 64
12, 50998, Note_on_c, 10, 67, 0
12, 50998, Note_on_c, 10, 76, 0
12, 51000, Note_on_c, 10, 72, 64
12, 51000, Note_on_c, 10, 70, 64
12, 51118, Note_on_c, 10, 70, 0
12, 51118, Note_on_c, 10, 72, 0
12, 51120, Note_on_c, 10, 82, 64
12, 51120, Note_on_c, 10, 60, 64
12, 51238, Note_on_c, 10, 60, 0
12, 51238, Note_on_c, 10, 82, 0
12, 51240, Note_on_c, 10, 79, 64
12, 51240, Note_on_c, 10, 64, 64
12, 51358, Note_on_c, 10, 64, 0
12, 51358, Note_on_c, 10, 79, 0
12, 51360, Note_on_c, 10, 88, 64
12, 51360, Note_on_c, 10, 84, 64
12, 51360, Note_on_c, 10, 81, 64
12, 51360, Note_on_c, 10, 65, 64
12, 51360, Note_on_c, 10, 60, 64
12, 51360, Note_on_c, 10, 57, 64
12, 51838, Note_on_c, 10, 57, 0
12, 51838, Note_on_c, 10, 84, 0
12, 51838, Note_on_c, 10, 81, 0
12, 51838, Note_on_c, 10, 88, 0
12, 51838, Note_on_c, 10, 60, 0
12, 51838, Note_on_c, 10, 65, 0
12, 54960, Note_on_c, 10, 60, 64
12, 54960, Note_on_c, 10, 72, 64
12, 55198, Note_on_c, 10, 72, 0
12, 55198, Note_on_c, 10, 60, 0
12, 55200, Note_on_c, 10, 57, 64
12, 55200, Note_on_c, 10, 65, 64
12, 55200, Note_on_c, 10, 72, 64
12, 55200, Note_on_c, 10, 77, 64
12, 55438, Note_on_c, 10, 77, 0
12, 55438, Note_on_c, 10, 57, 0
12, 55438, Note_on_c, 10, 65, 0
12, 55438, Note_on_c, 10, 72, 0
12, 55440, Note_on_c, 10, 57, 64
12, 55440, Note_on_c, 10, 65, 64
12, 55440, Note_on_c, 10, 72, 64
12, 55440, Note_on_c, 10, 77, 64
12, 55678, Note_on_c, 10, 77, 0
12, 55678, Note_on_c, 10, 57, 0
12, 55678, Note_on_c, 10, 65, 0
12, 55678, Note_on_c, 10, 72, 0
12, 55680, Note_on_c, 10, 60, 64
12, 55680, Note_on_c, 10, 67, 64
12, 55680, Note_on_c, 10, 76, 64
12, 55680, Note_on_c, 10, 79, 64
12, 55918, Note_on_c, 10, 79, 0
12, 55918, Note_on_c, 10, 60, 0
12, 55918, Note_on_c, 10, 67, 0
12, 55918, Note_on_c, 10, 76, 0
12, 55920, Note_on_c, 10, 60, 64
12, 55920, Note_on_c, 10, 67, 64
12, 55920, Note_on_c, 10, 76, 64
12, 55920, Note_on_c, 10, 79, 64
12, 56158, Note_on_c, 10, 79, 0
12, 56158, Note_on_c, 10, 60, 0
12, 56158, Note_on_c, 10, 67, 0
12, 56158, Note_on_c, 10, 76, 0
12, 56160, Note_on_c, 10, 81, 64
12, 56160, Note_on_c, 10, 77, 64
12, 56160, Note_on_c, 10, 69, 64
12, 56160, Note_on_c, 10, 65, 64
12, 56338, Note_on_c, 10, 81, 0
12, 56340, Note_on_c, 10, 82, 64
12, 56398, Note_on_c, 10, 82, 0
12, 56400, Note_on_c, 10, 81, 64
12, 56578, Note_on_c, 10, 81, 0
12, 56580, Note_on_c, 10, 79, 64
12, 56638, Note_on_c, 10, 79, 0
12, 56638, Note_on_c, 10, 65, 0
12, 56638, Note_on_c, 10, 69, 0
12, 56638, Note_on_c, 10, 77, 0
12, 56640, Note_on_c, 10, 77, 64
12, 56878, Note_on_c, 10, 77, 0
12, 56880, Note_on_c, 10, 65, 64
12, 56880, Note_on_c, 10, 69, 64
12, 56880, Note_on_c, 10, 72, 64
12, 56880, Note_on_c, 10, 77, 64
12, 57118, Note_on_c, 10, 77, 0
12, 57118, Note_on_c, 10, 65, 0
12, 57118, Note_on_c, 10, 69, 0
12, 57118, Note_on_c, 10, 72, 0
12, 57120, Note_on_c, 10, 64, 64
12, 57120, Note_on_c, 10, 67, 64
12, 57120, Note_on_c, 10, 72, 64
12, 57358, Note_on_c, 10, 72, 0
12, 57358, Note_on_c, 10, 67, 0
12, 57358, Note_on_c, 10, 64, 0
12, 57360, Note_on_c, 10, 64, 64
12, 57360, Note_on_c, 10, 67, 64
12, 57360, Note_on_c, 10, 72, 64
12, 57598, Note_on_c, 10, 72, 0
12, 57598, Note_on_c, 10, 67, 0
12, 57598, Note_on_c, 10, 64, 0
12, 57600, Note_on_c, 10, 65, 64
12, 57600, Note_on_c, 10, 69, 64
12, 57600, Note_on_c, 10, 72, 64
12, 57600, Note_on_c, 10, 81, 64
12, 57778, Note_on_c, 10, 81, 0
12, 57780, Note_on_c, 10, 79, 64
12, 57838, Note_on_c, 10, 79, 0
12, 57838, Note_on_c, 10, 72, 0
12, 57838, Note_on_c, 10, 69, 0
12, 57838, Note_on_c, 10, 65, 0
12, 57840, Note_on_c, 10, 65, 64
12, 57840, Note_on_c, 10, 69, 64
12, 57840, Note_on_c, 10, 72, 64
12, 57840, Note_on_c, 10, 81, 64
12, 58018, Note_on_c, 10, 81, 0
12, 58020, Note_on_c, 10, 82, 64
12, 58078, Note_on_c, 10, 82, 0
12, 58078, Note_on_c, 10, 72, 0
12, 58078, Note_on_c, 10, 69, 0
12, 58078, Note_on_c, 10, 65, 0
12, 58080, Note_on_c, 10, 60, 64
12, 58080, Note_on_c, 10, 64, 64
12, 58080, Note_on_c, 10, 67, 64
12, 58080, Note_on_c, 10, 72, 64
12, 58080, Note_on_c, 10, 79, 64
12, 58558, Note_on_c, 10, 79, 0
12, 58558, Note_on_c, 10, 67, 0
12, 58558, Note_on_c, 10, 60, 0
12, 58558, Note_on_c, 10, 64, 0
12, 58558, Note_on_c, 10, 72, 0
12, 58680, Note_on_c, 10, 72, 64
12, 58738, Note_on_c, 10, 72, 0
12, 58740, Note_on_c, 10, 74, 64
12, 58798, Note_on_c, 10, 74, 0
12, 58800, Note_on_c, 10, 76, 64
12, 58858, Note_on_c, 10, 76, 0
12, 58860, Note_on_c, 10, 77, 64
12, 58918, Note_on_c, 10, 77, 0
12, 58920, Note_on_c, 10, 79, 64
12, 58978, Note_on_c, 10, 79, 0
12, 58980, Note_on_c, 10, 81, 64
12, 59038, Note_on_c, 10, 81, 0
12, 59040, Note_on_c, 10, 60, 64
12, 59040, Note_on_c, 10, 67, 64
12, 59040, Note_on_c, 10, 64, 64
12, 59040, Note_on_c, 10, 79, 64
12, 59040, Note_on_c, 10, 82, 64
12, 59278, Note_on_c, 10, 82, 0
12, 59278, Note_on_c, 10, 64, 0
12, 59278, Note_on_c, 10, 60, 0
12, 59278, Note_on_c, 10, 67, 0
12, 59278, Note_on_c, 10, 79, 0
12, 59280, Note_on_c, 10, 60, 64
12, 59280, Note_on_c, 10, 64, 64
12, 59280, Note_on_c, 10, 67, 64
12, 59280, Note_on_c, 10, 82, 64
12, 59280, Note_on_c, 10, 79, 64
12, 59518, Note_on_c, 10, 79, 0
12, 59518, Note_on_c, 10, 67, 0
12, 59518, Note_on_c, 10, 60, 0
12, 59518, Note_on_c, 10, 64, 0
12, 59518, Note_on_c, 10, 82, 0
12, 59520, Note_on_c, 10, 58, 64
12, 59520, Note_on_c, 10, 67, 64
12, 59520, Note_on_c, 10, 64, 64
12, 59520, Note_on_c, 10, 72, 64
12, 59520, Note_on_c, 10, 76, 64
12, 59520, Note_on_c, 10, 79, 64
12, 59758, Note_on_c, 10, 79, 0
12, 59758, Note_on_c, 10, 67, 0
12, 59758, Note_on_c, 10, 64, 0
12, 59758, Note_on_c, 10, 58, 0
12, 59758, Note_on_c, 10, 76, 0
12, 59758, Note_on_c, 10, 72, 0
12, 59760, Note_on_c, 10, 58, 64
12, 59760, Note_on_c, 10, 67, 64
12, 59760, Note_on_c, 10, 64, 64
12, 59760, Note_on_c, 10, 72, 64
12, 59760, Note_on_c, 10, 76, 64
12, 59760, Note_on_c, 10, 79, 64
12, 59998, Note_on_c, 10, 79, 0
12, 59998, Note_on_c, 10, 67, 0
12, 59998, Note_on_c, 10, 64, 0
12, 59998, Note_on_c, 10, 58, 0
12, 59998, Note_on_c, 10, 76, 0
12, 59998, Note_on_c, 10, 72, 0
12, 60000, Note_on_c, 10, 60, 64
12, 60000, Note_on_c, 10, 65, 64
12, 60000, Note_on_c, 10, 69, 64
12, 60000, Note_on_c, 10, 57, 64
12, 60000, Note_on_c, 10, 72, 64
12, 60000, Note_on_c, 10, 77, 64
12, 60000, Note_on_c, 10, 81, 64
12, 60000, Note_on_c, 10, 84, 64
12, 60238, Note_on_c, 10, 84, 0
12, 60238, Note_on_c, 10, 60, 0
12, 60238, Note_on_c, 10, 72, 0
12, 60238, Note_on_c, 10, 65, 0
12, 60238, Note_on_c, 10, 69, 0
12, 60238, Note_on_c, 10, 57, 0
12, 60238, Note_on_c, 10, 77, 0
12, 60238, Note_on_c, 10, 81, 0
12, 60240, Note_on_c, 10, 84, 64
12, 60298, Note_on_c, 10, 84, 0
12, 60300, Note_on_c, 10, 82, 64
12, 60358, Note_on_c, 10, 82, 0
12, 60360, Note_on_c, 10, 81, 64
12, 60418, Note_on_c, 10, 81, 0
12, 60420, Note_on_c, 10, 79, 64
12, 60478, Note_on_c, 10, 79, 0
12, 60480, Note_on_c, 10, 77, 64
12, 60538, Note_on_c, 10, 77, 0
12, 60540, Note_on_c, 10, 76, 64
12, 60598, Note_on_c, 10, 76, 0
12, 60600, Note_on_c, 10, 74, 64
12, 60658, Note_on_c, 10, 74, 0
12, 60660, Note_on_c, 10, 72, 64
12, 60718, Note_on_c, 10, 72, 0
12, 60720, Note_on_c, 10, 70, 64
12, 60778, Note_on_c, 10, 70, 0
12, 60780, Note_on_c, 10, 69, 64
12, 60838, Note_on_c, 10, 69, 0
12, 60840, Note_on_c, 10, 67, 64
12, 60898, Note_on_c, 10, 67, 0
12, 60900, Note_on_c, 10, 65, 64
12, 60958, Note_on_c, 10, 65, 0
12, 60960, Note_on_c, 10, 58, 64
12, 60960, Note_on_c, 10, 62, 64
12, 60960, Note_on_c, 10, 67, 64
12, 60960, Note_on_c, 10, 86, 64
12, 61198, Note_on_c, 10, 86, 0
12, 61198, Note_on_c, 10, 58, 0
12, 61198, Note_on_c, 10, 62, 0
12, 61198, Note_on_c, 10, 67, 0
12, 61200, Note_on_c, 10, 86, 64
12, 61438, Note_on_c, 10, 86, 0
12, 61440, Note_on_c, 10, 60, 64
12, 61440, Note_on_c, 10, 67, 64
12, 61440, Note_on_c, 10, 70, 64
12, 61440, Note_on_c, 10, 76, 64
12, 61618, Note_on_c, 10, 76, 0
12, 61620, Note_on_c, 10, 77, 64
12, 61678, Note_on_c, 10, 77, 0
12, 61678, Note_on_c, 10, 70, 0
12, 61678, Note_on_c, 10, 67, 0
12, 61678, Note_on_c, 10, 60, 0
12, 61680, Note_on_c, 10, 79, 64
12, 61858, Note_on_c, 10, 79, 0
12, 61860, Note_on_c, 10, 76, 64
12, 61918, Note_on_c, 10, 76, 0
12, 61920, Note_on_c, 10, 69, 64
12, 61920, Note_on_c, 10, 65, 64
12, 61920, Note_on_c, 10, 77, 64
12, 62158, Note_on_c, 10, 77, 0
12, 62158, Note_on_c, 10, 65, 0
12, 62158, Note_on_c, 10, 69, 0
12, 62160, Note_on_c, 10, 65, 64
12, 62160, Note_on_c, 10, 72, 64
12, 62160, Note_on_c, 10, 81, 64
12, 62398, Note_on_c, 10, 81, 0
12, 62398, Note_on_c, 10, 72, 0
12, 62398, Note_on_c, 10, 65, 0
12, 62400, Note_on_c, 10, 53, 64
12, 62400, Note_on_c, 10, 69, 64
12, 62400, Note_on_c, 10, 77, 64
12, 62400, Note_on_c, 10, 72, 64
12, 62638, Note_on_c, 10, 72, 0
12, 62638, Note_on_c, 10, 53, 0
12, 62638, Note_on_c, 10, 69, 0
12, 62638, Note_on_c, 10, 77, 0
12, 66000, Note_on_c, 10, 60, 64
12, 66000, Note_on_c, 10, 64, 64
12, 66000, Note_on_c, 10, 67, 64
12, 66000, Note_on_c, 10, 72, 64
12, 66058, Note_on_c, 10, 72, 0
12, 66060, Note_on_c, 10, 76, 64
12, 66118, Note_on_c, 10, 76, 0
12, 66120, Note_on_c, 10, 79, 64
12, 66178, Note_on_c, 10, 79, 0
12, 66180, Note_on_c, 10, 84, 64
12, 66238, Note_on_c, 10, 84, 0
12, 66238, Note_on_c, 10, 67, 0
12, 66238, Note_on_c, 10, 64, 0
12, 66238, Note_on_c, 10, 60, 0
12, 66240, Note_on_c, 10, 60, 64
12, 66240, Note_on_c, 10, 64, 64
12, 66240, Note_on_c, 10, 67, 64
12, 66240, Note_on_c, 10, 72, 64
12, 66478, Note_on_c, 10, 72, 0
12, 66478, Note_on_c, 10, 60, 0
12, 66478, Note_on_c, 10, 64, 0
12, 66478, Note_on_c, 10, 67, 0
12, 69840, Note_on_c, 10, 65, 64
12, 69840, Note_on_c, 10, 69, 64
12, 69840, Note_on_c, 10, 77, 64
12, 69898, Note_on_c, 10, 77, 0
12, 69900, Note_on_c, 10, 72, 64
12, 69958, Note_on_c, 10, 72, 0
12, 69960, Note_on_c, 10, 77, 64
12, 70018, Note_on_c, 10, 77, 0
12, 70020, Note_on_c, 10, 81, 64
12, 70078, Note_on_c, 10, 81, 0
12, 70078, Note_on_c, 10, 69, 0
12, 70078, Note_on_c, 10, 65, 0
12, 70080, Note_on_c, 10, 64, 64
12, 70080, Note_on_c, 10, 67, 64
12, 70080, Note_on_c, 10, 72, 64
12, 70080, Note_on_c, 10, 84, 64
12, 70318, Note_on_c, 10, 84, 0
12, 70318, Note_on_c, 10, 64, 0
12, 70318, Note_on_c, 10, 67, 0
12, 70318, Note_on_c, 10, 72, 0
12, 71760, Note_on_c, 10, 77, 64
12, 71760, Note_on_c, 10, 65, 64
12, 71760, Note_on_c, 10, 69, 64
12, 71818, Note_on_c, 10, 77, 0
12, 71820, Note_on_c, 10, 76, 64
12, 71878, Note_on_c, 10, 76, 0
12, 71880, Note_on_c, 10, 77, 64
12, 71938, Note_on_c, 10, 77, 0
12, 71940, Note_on_c, 10, 81, 64
12, 71998, Note_on_c, 10, 81, 0
12, 71998, Note_on_c, 10, 69, 0
12, 71998, Note_on_c, 10, 65, 0
12, 72000, Note_on_c, 10, 84, 64
12, 72000, Note_on_c, 10, 72, 64
12, 72000, Note_on_c, 10, 67, 64
12, 72000, Note_on_c, 10, 64, 64
12, 72238, Note_on_c, 10, 64, 0
12, 72238, Note_on_c, 10, 84, 0
12, 72238, Note_on_c, 10, 72, 0
12, 72238, Note_on_c, 10, 67, 0
12, 74160, Note_on_c, 10, 65, 64
12, 74160, Note_on_c, 10, 69, 64
12, 74160, Note_on_c, 10, 77, 64
12, 74160, Note_on_c, 10, 81, 64
12, 74398, Note_on_c, 10, 81, 0
12, 74398, Note_on_c, 10, 65, 0
12, 74398, Note_on_c, 10, 69, 0
12, 74398, Note_on_c, 10, 77, 0
12, 74400, Note_on_c, 10, 60, 64
12, 74400, Note_on_c, 10, 64, 64
12, 74400, Note_on_c, 10, 67, 64
12, 74400, Note_on_c, 10, 76, 64
12, 74400, Note_on_c, 10, 79, 64
12, 74638, Note_on_c, 10, 79, 0
12, 74638, Note_on_c, 10, 67, 0
12, 74638, Note_on_c, 10, 60, 0
12, 74638, Note_on_c, 10, 64, 0
12, 74638, Note_on_c, 10, 76, 0
12, 74640, Note_on_c, 10, 72, 64
12, 74640, Note_on_c, 10, 76, 64
12, 74878, Note_on_c, 10, 76, 0
12, 74878, Note_on_c, 10, 72, 0
12, 74880, Note_on_c, 10, 65, 64
12, 74880, Note_on_c, 10, 69, 64
12, 74880, Note_on_c, 10, 81, 64
12, 74880, Note_on_c, 10, 77, 64
12, 75118, Note_on_c, 10, 77, 0
12, 75118, Note_on_c, 10, 65, 0
12, 75118, Note_on_c, 10, 69, 0
12, 75118, Note_on_c, 10, 81, 0
12, 75120, Note_on_c, 10, 60, 64
12, 75120, Note_on_c, 10, 64, 64
12, 75120, Note_on_c, 10, 67, 64
12, 75120, Note_on_c, 10, 76, 64
12, 75120, Note_on_c, 10, 79, 64
12, 75358, Note_on_c, 10, 79, 0
12, 75358, Note_on_c, 10, 67, 0
12, 75358, Note_on_c, 10, 60, 0
12, 75358, Note_on_c, 10, 64, 0
12, 75358, Note_on_c, 10, 76, 0
12, 75360, Note_on_c, 10, 72, 64
12, 75360, Note_on_c, 10, 76, 64
12, 75598, Note_on_c, 10, 76, 0
12, 75598, Note_on_c, 10, 72, 0
12, 75600, Note_on_c, 10, 65, 64
12, 75600, Note_on_c, 10, 69, 64
12, 75600, Note_on_c, 10, 81, 64
12, 75600, Note_on_c, 10, 77, 64
12, 75838, Note_on_c, 10, 77, 0
12, 75838, Note_on_c, 10, 65, 0
12, 75838, Note_on_c, 10, 69, 0
12, 75838, Note_on_c, 10, 81, 0
12, 75840, Note_on_c, 10, 60, 64
12, 75840, Note_on_c, 10, 64, 64
12, 75840, Note_on_c, 10, 67, 64
12, 75840, Note_on_c, 10, 76, 64
12, 75840, Note_on_c, 10, 79, 64
12, 76078, Note_on_c, 10, 79, 0
12, 76078, Note_on_c, 10, 67, 0
12, 76078, Note_on_c, 10, 60, 0
12, 76078, Note_on_c, 10, 64, 0
12, 76078, Note_on_c, 10, 76, 0
12, 76080, Note_on_c, 10, 60, 64
12, 76080, Note_on_c, 10, 64, 64
12, 76080, Note_on_c, 10, 67, 64
12, 76080, Note_on_c, 10, 84, 64
12, 76198, Note_on_c, 10, 84, 0
12, 76200, Note_on_c, 10, 83, 64
12, 76318, Note_on_c, 10, 83, 0
12, 76318, Note_on_c, 10, 67, 0
12, 76318, Note_on_c, 10, 64, 0
12, 76318, Note_on_c, 10, 60, 0
12, 76320, Note_on_c, 10, 60, 64
12, 76320, Note_on_c, 10, 64, 64
12, 76320, Note_on_c, 10, 67, 64
12, 76320, Note_on_c, 10, 84, 64
12, 76438, Note_on_c, 10, 84, 0
12, 76440, Note_on_c, 10, 83, 64
12, 76558, Note_on_c, 10, 83, 0
12, 76558, Note_on_c, 10, 67, 0
12, 76558, Note_on_c, 10, 64, 0
12, 76558, Note_on_c, 10, 60, 0
12, 76560, Note_on_c, 10, 60, 64
12, 76560, Note_on_c, 10, 64, 64
12, 76560, Note_on_c, 10, 67, 64
12, 76560, Note_on_c, 10, 84, 64
12, 76798, Note_on_c, 10, 84, 0
12, 76798, Note_on_c, 10, 60, 0
12, 76798, Note_on_c, 10, 64, 0
12, 76798, Note_on_c, 10, 67, 0
12, 77040, Note_on_c, 10, 65, 64
12, 77040, Note_on_c, 10, 69, 64
12, 77040, Note_on_c, 10, 81, 64
12, 77040, Note_on_c, 10, 77, 64
12, 77278, Note_on_c, 10, 77, 0
12, 77278, Note_on_c, 10, 65, 0
12, 77278, Note_on_c, 10, 69, 0
12, 77278, Note_on_c, 10, 81, 0
12, 77280, Note_on_c, 10, 60, 64
12, 77280, Note_on_c, 10, 64, 64
12, 77280, Note_on_c, 10, 67, 64
12, 77280, Note_on_c, 10, 76, 64
12, 77280, Note_on_c, 10, 79, 64
12, 77518, Note_on_c, 10, 79, 0
12, 77518, Note_on_c, 10, 67, 0
12, 77518, Note_on_c, 10, 60, 0
12, 77518, Note_on_c, 10, 64, 0
12, 77518, Note_on_c, 10, 76, 0
12, 77520, Note_on_c, 10, 84, 64
12, 77638, Note_on_c, 10, 84, 0
12, 77640, Note_on_c, 10, 79, 64
12, 77758, Note_on_c, 10, 79, 0
12, 77760, Note_on_c, 10, 76, 64
12, 77878, Note_on_c, 10, 76, 0
12, 77880, Note_on_c, 10, 72, 64
12, 77998, Note_on_c, 10, 72, 0
12, 78000, Note_on_c, 10, 55, 64
12, 78000, Note_on_c, 10, 62, 64
12, 78000, Note_on_c, 10, 67, 64
12, 78000, Note_on_c, 10, 77, 64
12, 78238, Note_on_c, 10, 77, 0
12, 78238, Note_on_c, 10, 55, 0
12, 78238, Note_on_c, 10, 62, 0
12, 78238, Note_on_c, 10, 67, 0
12, 78240, Note_on_c, 10, 81, 64
12, 78358, Note_on_c, 10, 81, 0
12, 78360, Note_on_c, 10, 77, 64
12, 78478, Note_on_c, 10, 77, 0
12, 78480, Note_on_c, 10, 74, 64
12, 78598, Note_on_c, 10, 74, 0
12, 78600, Note_on_c, 10, 71, 64
12, 78718, Note_on_c, 10, 71, 0
12, 78720, Note_on_c, 10, 67, 64
12, 78720, Note_on_c, 10, 71, 64
12, 78720, Note_on_c, 10, 74, 64
12, 78720, Note_on_c, 10, 83, 64
12, 78958, Note_on_c, 10, 83, 0
12, 78958, Note_on_c, 10, 67, 0
12, 78958, Note_on_c, 10, 71, 0
12, 78958, Note_on_c, 10, 74, 0
12, 78960, Note_on_c, 10, 67, 64
12, 78960, Note_on_c, 10, 71, 64
12, 78960, Note_on_c, 10, 74, 64
12, 78960, Note_on_c, 10, 86, 64
12, 79078, Note_on_c, 10, 86, 0
12, 79080, Note_on_c, 10, 83, 64
12, 79198, Note_on_c, 10, 83, 0
12, 79198, Note_on_c, 10, 74, 0
12, 79198, Note_on_c, 10, 71, 0
12, 79198, Note_on_c, 10, 67, 0
12, 79200, Note_on_c, 10, 67, 64
12, 79200, Note_on_c, 10, 71, 64
12, 79200, Note_on_c, 10, 74, 64
12, 79200, Note_on_c, 10, 79, 64
12, 79318, Note_on_c, 10, 79, 0
12, 79320, Note_on_c, 10, 83, 64
12, 79438, Note_on_c, 10, 83, 0
12, 79438, Note_on_c, 10, 74, 0
12, 79438, Note_on_c, 10, 71, 0
12, 79438, Note_on_c, 10, 67, 0
12, 79440, Note_on_c, 10, 60, 64
12, 79440, Note_on_c, 10, 67, 64
12, 79440, Note_on_c, 10, 72, 64
12, 79440, Note_on_c, 10, 84, 64
12, 79678, Note_on_c, 10, 84, 0
12, 79678, Note_on_c, 10, 60, 0
12, 79678, Note_on_c, 10, 67, 0
12, 79678, Note_on_c, 10, 72, 0
12, 90720, Note_on_c, 10, 60, 64
12, 90720, Note_on_c, 10, 67, 64
12, 90720, Note_on_c, 10, 76, 64
12, 90720, Note_on_c, 10, 84, 64
12, 90958, Note_on_c, 10, 84, 0
12, 90958, Note_on_c, 10, 60, 0
12, 90958, Note_on_c, 10, 67, 0
12, 90958, Note_on_c, 10, 76, 0
12, 90960, Note_on_c, 10, 65, 64
12, 90960, Note_on_c, 10, 69, 64
12, 90960, Note_on_c, 10, 81, 64
12, 90960, Note_on_c, 10, 77, 64
12, 91198, Note_on_c, 10, 77, 0
12, 91198, Note_on_c, 10, 65, 0
12, 91198, Note_on_c, 10, 69, 0
12, 91198, Note_on_c, 10, 81, 0
12, 91200, Note_on_c, 10, 69, 64
12, 91200, Note_on_c, 10, 65, 64
12, 91200, Note_on_c, 10, 77, 64
12, 91438, Note_on_c, 10, 77, 0
12, 91438, Note_on_c, 10, 65, 0
12, 91438, Note_on_c, 10, 69, 0
12, 92160, Note_on_c, 10, 84, 64
12, 92160, Note_on_c, 10, 76, 64
12, 92160, Note_on_c, 10, 67, 64
12, 92160, Note_on_c, 10, 60, 64
12, 92398, Note_on_c, 10, 60, 0
12, 92398, Note_on_c, 10, 84, 0
12, 92398, Note_on_c, 10, 76, 0
12, 92398, Note_on_c, 10, 67, 0
12, 92400, Note_on_c, 10, 77, 64
12, 92400, Note_on_c, 10, 81, 64
12, 92400, Note_on_c, 10, 69, 64
12, 92400, Note_on_c, 10, 65, 64
12, 92638, Note_on_c, 10, 65, 0
12, 92638, Note_on_c, 10, 77, 0
12, 92638, Note_on_c, 10, 81, 0
12, 92638, Note_on_c, 10, 69, 0
12, 92640, Note_on_c, 10, 77, 64
12, 92640, Note_on_c, 10, 65, 64
12, 92640, Note_on_c, 10, 69, 64
12, 92878, Note_on_c, 10, 69, 0
12, 92878, Note_on_c, 10, 65, 0
12, 92878, Note_on_c, 10, 77, 0
12, 93600, Note_on_c, 10, 60, 64
12, 93600, Note_on_c, 10, 67, 64
12, 93600, Note_on_c, 10, 76, 64
12, 93600, Note_on_c, 10, 84, 64
12, 93838, Note_on_c, 10, 84, 0
12, 93838, Note_on_c, 10, 60, 0
12, 93838, Note_on_c, 10, 67, 0
12, 93838, Note_on_c, 10, 76, 0
12, 93840, Note_on_c, 10, 65, 64
12, 93840, Note_on_c, 10, 69, 64
12, 93840, Note_on_c, 10, 81, 64
12, 93840, Note_on_c, 10, 77, 64
12, 94078, Note_on_c, 10, 77, 0
12, 94078, Note_on_c, 10, 65, 0
12, 94078, Note_on_c, 10, 69, 0
12, 94078, Note_on_c, 10, 81, 0
12, 94080, Note_on_c, 10, 69, 64
12, 94080, Note_on_c, 10, 65, 64
12, 94080, Note_on_c, 10, 77, 64
12, 94318, Note_on_c, 10, 77, 0
12, 94318, Note_on_c, 10, 65, 0
12, 94318, Note_on_c, 10, 69, 0
12, 100800, Note_on_c, 10, 65, 64
12, 100800, Note_on_c, 10, 81, 64
12, 100918, Note_on_c, 10, 81, 0
12, 100918, Note_on_c, 10, 65, 0
12, 100920, Note_on_c, 10, 69, 64
12, 100920, Note_on_c, 10, 77, 64
12, 101038, Note_on_c, 10, 77, 0
12, 101038, Note_on_c, 10, 69, 0
12, 101040, Note_on_c, 10, 60, 64
12, 101040, Note_on_c, 10, 82, 64
12, 101158, Note_on_c, 10, 82, 0
12, 101158, Note_on_c, 10, 60, 0
12, 101160, Note_on_c, 10, 64, 64
12, 101160, Note_on_c, 10, 79, 64
12, 101278, Note_on_c, 10, 79, 0
12, 101278, Note_on_c, 10, 64, 0
12, 101280, Note_on_c, 10, 67, 64
12, 101280, Note_on_c, 10, 76, 64
12, 101398, Note_on_c, 10, 76, 0
12, 101398, Note_on_c, 10, 67, 0
12, 101400, Note_on_c, 10, 70, 64
12, 101400, Note_on_c, 10, 72, 64
12, 101518, Note_on_c, 10, 72, 0
12, 101518, Note_on_c, 10, 70, 0
12, 101520, Note_on_c, 10, 60, 64
12, 101520, Note_on_c, 10, 82, 64
12, 101638, Note_on_c, 10, 82, 0
12, 101638, Note_on_c, 10, 60, 0
12, 101640, Note_on_c, 10, 64, 64
12, 101640, Note_on_c, 10, 79, 64
12, 101758, Note_on_c, 10, 79, 0
12, 101758, Note_on_c, 10, 64, 0
12, 101760, Note_on_c, 10, 57, 64
12, 101760, Note_on_c, 10, 60, 64
12, 101760, Note_on_c, 10, 65, 64
12, 101760, Note_on_c, 10, 81, 64
12, 101760, Note_on_c, 10, 84, 64
12, 101760, Note_on_c, 10, 88, 64
12, 102238, Note_on_c, 10, 88, 0
12, 102238, Note_on_c, 10, 60, 0
12, 102238, Note_on_c, 10, 65, 0
12, 102238, Note_on_c, 10, 57, 0
12, 102238, Note_on_c, 10, 84, 0
12, 102238, Note_on_c, 10, 81, 0
12, 103680, Note_on_c, 10, 81, 64
12, 103680, Note_on_c, 10, 65, 64
12, 103798, Note_on_c, 10, 65, 0
12, 103798, Note_on_c, 10, 81, 0
12, 103800, Note_on_c, 10, 77, 64
12, 103800, Note_on_c, 10, 69, 64
12, 103918, Note_on_c, 10, 69, 0
12, 103918, Note_on_c, 10, 77, 0
12, 103920, Note_on_c, 10, 82, 64
12, 103920, Note_on_c, 10, 60, 64
12, 104038, Note_on_c, 10, 60, 0
12, 104038, Note_on_c, 10, 82, 0
12, 104040, Note_on_c, 10, 79, 64
12, 104040, Note_on_c, 10, 64, 64
12, 104158, Note_on_c, 10, 64, 0
12, 104158, Note_on_c, 10, 79, 0
12, 104160, Note_on_c, 10, 76, 64
12, 104160, Note_on_c, 10, 67, 64
12, 104278, Note_on_c, 10, 67, 0
12, 104278, Note_on_c, 10, 76, 0
12, 104280, Note_on_c, 10, 72, 64
12, 104280, Note_on_c, 10, 70, 64
12, 104398, Note_on_c, 10, 70, 0
12, 104398, Note_on_c, 10, 72, 0
12, 104400, Note_on_c, 10, 82, 64
12, 104400, Note_on_c, 10, 60, 64
12, 104518, Note_on_c, 10, 60, 0
12, 104518, Note_on_c, 10, 82, 0
12, 104520, Note_on_c, 10, 79, 64
12, 104520, Note_on_c, 10, 64, 64
12, 104638, Note_on_c, 10, 64, 0
12, 104638, Note_on_c, 10, 79, 0
12, 104640, Note_on_c, 10, 88, 64
12, 104640, Note_on_c, 10, 84, 64
12, 104640, Note_on_c, 10, 81, 64
12, 104640, Note_on_c, 10, 65, 64
12, 104640, Note_on_c, 10, 60, 64
12, 104640, Note_on_c, 10, 57, 64
12, 105118, Note_on_c, 10, 57, 0
12, 105118, Note_on_c, 10, 84, 0
12, 105118, Note_on_c, 10, 81, 0
12, 105118, Note_on_c, 10, 88, 0
12, 105118, Note_on_c, 10, 60, 0
12, 105118, Note_on_c, 10, 65, 0
12, 108480, Note_on_c, 10, 53, 64
12, 108558, Note_on_c, 10, 53, 0
12, 108560, Note_on_c, 10, 57, 64
12, 108638, Note_on_c, 10, 57, 0
12, 108640, Note_on_c, 10, 60, 64
12, 108718, Note_on_c, 10, 60, 0
12, 108720, Note_on_c, 10, 69, 64
12, 108798, Note_on_c, 10, 69, 0
12, 108800, Note_on_c, 10, 72, 64
12, 108878, Note_on_c, 10, 72, 0
12, 108880, Note_on_c, 10, 77, 64
12, 108958, Note_on_c, 10, 77, 0
12, 108960, Note_on_c, 10, 48, 64
12, 109038, Note_on_c, 10, 48, 0
12, 109040, Note_on_c, 10, 55, 64
12, 109118, Note_on_c, 10, 55, 0
12, 109120, Note_on_c, 10, 60, 64
12, 109198, Note_on_c, 10, 60, 0
12, 109200, Note_on_c, 10, 72, 64
12, 109278, Note_on_c, 10, 72, 0
12, 109280, Note_on_c, 10, 76, 64
12, 109358, Note_on_c, 10, 76, 0
12, 109360, Note_on_c, 10, 79, 64
12, 109438, Note_on_c, 10, 79, 0
12, 109440, Note_on_c, 10, 53, 64
12, 109518, Note_on_c, 10, 53, 0
12, 109520, Note_on_c, 10, 57, 64
12, 109598, Note_on_c, 10, 57, 0
12, 109600, Note_on_c, 10, 60, 64
12, 109678, Note_on_c, 10, 60, 0
12, 109680, Note_on_c, 10, 72, 64
12, 109758, Note_on_c, 10, 72, 0
12, 109760, Note_on_c, 10, 77, 64
12, 109838, Note_on_c, 10, 77, 0
12, 109840, Note_on_c, 10, 81, 64
12, 109918, Note_on_c, 10, 81, 0
12, 109920, Note_on_c, 10, 84, 64
12, 109998, Note_on_c, 10, 84, 0
12, 110000, Note_on_c, 10, 81, 64
12, 110078, Note_on_c, 10, 81, 0
12, 110080, Note_on_c, 10, 77, 64
12, 110158, Note_on_c, 10, 77, 0
12, 110160, Note_on_c, 10, 81, 64
12, 110238, Note_on_c, 10, 81, 0
12, 110240, Note_on_c, 10, 77, 64
12, 110318, Note_on_c, 10, 77, 0
12, 110320, Note_on_c, 10, 72, 64
12, 110398, Note_on_c, 10, 72, 0
12, 110400, Note_on_c, 10, 52, 64
12, 110478, Note_on_c, 10, 52, 0
12, 110480, Note_on_c, 10, 55, 64
12, 110558, Note_on_c, 10, 55, 0
12, 110560, Note_on_c, 10, 60, 64
12, 110638, Note_on_c, 10, 60, 0
12, 110640, Note_on_c, 10, 72, 64
12, 110718, Note_on_c, 10, 72, 0
12, 110720, Note_on_c, 10, 79, 64
12, 110798, Note_on_c, 10, 79, 0
12, 110800, Note_on_c, 10, 82, 64
12, 110878, Note_on_c, 10, 82, 0
12, 110880, Note_on_c, 10, 53, 64
12, 110958, Note_on_c, 10, 53, 0
12, 110960, Note_on_c, 10, 57, 64
12, 111038, Note_on_c, 10, 57, 0
12, 111040, Note_on_c, 10, 60, 64
12, 111118, Note_on_c, 10, 60, 0
12, 111120, Note_on_c, 10, 72, 64
12, 111198, Note_on_c, 10, 72, 0
12, 111200, Note_on_c, 10, 77, 64
12, 111278, Note_on_c, 10, 77, 0
12, 111280, Note_on_c, 10, 81, 64
12, 111358, Note_on_c, 10, 81, 0
12, 111360, Note_on_c, 10, 48, 64
12, 111418, Note_on_c, 10, 48, 0
12, 111420, Note_on_c, 10, 52, 64
12, 111478, Note_on_c, 10, 52, 0
12, 111480, Note_on_c, 10, 55, 64
12, 111538, Note_on_c, 10, 55, 0
12, 111540, Note_on_c, 10, 60, 64
12, 111598, Note_on_c, 10, 60, 0
12, 111600, Note_on_c, 10, 72, 64
12, 111628, Note_on_c, 10, 72, 0
12, 111630, Note_on_c, 10, 76, 64
12, 111658, Note_on_c, 10, 76, 0
12, 111660, Note_on_c, 10, 79, 64
12, 111688, Note_on_c, 10, 79, 0
12, 111690, Note_on_c, 10, 82, 64
12, 111718, Note_on_c, 10, 82, 0
12, 111720, Note_on_c, 10, 79, 64
12, 111748, Note_on_c, 10, 79, 0
12, 111750, Note_on_c, 10, 76, 64
12, 111778, Note_on_c, 10, 76, 0
12, 111780, Note_on_c, 10, 72, 64
12, 111808, Note_on_c, 10, 72, 0
12, 111810, Note_on_c, 10, 64, 64
12, 111838, Note_on_c, 10, 64, 0
12, 111840, Note_on_c, 10, 60, 64
12, 112078, Note_on_c, 10, 60, 0
12, 112320, Note_on_c, 10, 60, 64
12, 112398, Note_on_c, 10, 60, 0
12, 112400, Note_on_c, 10, 64, 64
12, 112478, Note_on_c, 10, 64, 0
12, 112480, Note_on_c, 10, 67, 64
12, 112558, Note_on_c, 10, 67, 0
12, 112560, Note_on_c, 10, 72, 64
12, 112638, Note_on_c, 10, 72, 0
12, 112640, Note_on_c, 10, 79, 64
12, 112718, Note_on_c, 10, 79, 0
12, 112720, Note_on_c, 10, 82, 64
12, 112798, Note_on_c, 10, 82, 0
12, 112800, Note_on_c, 10, 58, 64
12, 112878, Note_on_c, 10, 58, 0
12, 112880, Note_on_c, 10, 60, 64
12, 112958, Note_on_c, 10, 60, 0
12, 112960, Note_on_c, 10, 64, 64
12, 113038, Note_on_c, 10, 64, 0
12, 113040, Note_on_c, 10, 72, 64
12, 113118, Note_on_c, 10, 72, 0
12, 113120, Note_on_c, 10, 76, 64
12, 113198, Note_on_c, 10, 76, 0
12, 113200, Note_on_c, 10, 79, 64
12, 113278, Note_on_c, 10, 79, 0
12, 113280, Note_on_c, 10, 58, 64
12, 113358, Note_on_c, 10, 58, 0
12, 113360, Note_on_c, 10, 60, 64
12, 113438, Note_on_c, 10, 60, 0
12, 113440, Note_on_c, 10, 65, 64
12, 113518, Note_on_c, 10, 65, 0
12, 113520, Note_on_c, 10, 72, 64
12, 113598, Note_on_c, 10, 72, 0
12, 113600, Note_on_c, 10, 77, 64
12, 113678, Note_on_c, 10, 77, 0
12, 113680, Note_on_c, 10, 81, 64
12, 113758, Note_on_c, 10, 81, 0
12, 113760, Note_on_c, 10, 84, 64
12, 113838, Note_on_c, 10, 84, 0
12, 113840, Note_on_c, 10, 81, 64
12, 113918, Note_on_c, 10, 81, 0
12, 113920, Note_on_c, 10, 77, 64
12, 113998, Note_on_c, 10, 77, 0
12, 114000, Note_on_c, 10, 81, 64
12, 114078, Note_on_c, 10, 81, 0
12, 114080, Note_on_c, 10, 77, 64
12, 114158, Note_on_c, 10, 77, 0
12, 114160, Note_on_c, 10, 74, 64
12, 114238, Note_on_c, 10, 74, 0
12, 114240, Note_on_c, 10, 58, 64
12, 114318, Note_on_c, 10, 58, 0
12, 114320, Note_on_c, 10, 62, 64
12, 114398, Note_on_c, 10, 62, 0
12, 114400, Note_on_c, 10, 67, 64
12, 114478, Note_on_c, 10, 67, 0
12, 114480, Note_on_c, 10, 74, 64
12, 114558, Note_on_c, 10, 74, 0
12, 114560, Note_on_c, 10, 79, 64
12, 114638, Note_on_c, 10, 79, 0
12, 114640, Note_on_c, 10, 86, 64
12, 114718, Note_on_c, 10, 86, 0
12, 114720, Note_on_c, 10, 48, 64
12, 114798, Note_on_c, 10, 48, 0
12, 114800, Note_on_c, 10, 55, 64
12, 114878, Note_on_c, 10, 55, 0
12, 114880, Note_on_c, 10, 58, 64
12, 114958, Note_on_c, 10, 58, 0
12, 114960, Note_on_c, 10, 67, 64
12, 115038, Note_on_c, 10, 67, 0
12, 115040, Note_on_c, 10, 72, 64
12, 115118, Note_on_c, 10, 72, 0
12, 115120, Note_on_c, 10, 76, 64
12, 115198, Note_on_c, 10, 76, 0
12, 115200, Note_on_c, 10, 53, 64
12, 115258, Note_on_c, 10, 53, 0
12, 115260, Note_on_c, 10, 57, 64
12, 115318, Note_on_c, 10, 57, 0
12, 115320, Note_on_c, 10, 60, 64
12, 115378, Note_on_c, 10, 60, 0
12, 115380, Note_on_c, 10, 65, 64
12, 115438, Note_on_c, 10, 65, 0
12, 115440, Note_on_c, 10, 69, 64
12, 115468, Note_on_c, 10, 69, 0
12, 115470, Note_on_c, 10, 72, 64
12, 115498, Note_on_c, 10, 72, 0
12, 115500, Note_on_c, 10, 77, 64
12, 115528, Note_on_c, 10, 77, 0
12, 115530, Note_on_c, 10, 81, 64
12, 115558, Note_on_c, 10, 81, 0
12, 115560, Note_on_c, 10, 84, 64
12, 115588, Note_on_c, 10, 84, 0
12, 115590, Note_on_c, 10, 81, 64
12, 115618, Note_on_c, 10, 81, 0
12, 115620, Note_on_c, 10, 77, 64
12, 115648, Note_on_c, 10, 77, 0
12, 115650, Note_on_c, 10, 69, 64
12, 115678, Note_on_c, 10, 69, 0
12, 115680, Note_on_c, 10, 65, 64
12, 115918, Note_on_c, 10, 65, 0
12, 119280, Note_on_c, 10, 72, 64
12, 119280, Note_on_c, 10, 67, 64
12, 119280, Note_on_c, 10, 64, 64
12, 119280, Note_on_c, 10, 60, 64
12, 119338, Note_on_c, 10, 72, 0
12, 119340, Note_on_c, 10, 76, 64
12, 119398, Note_on_c, 10, 76, 0
12, 119400, Note_on_c, 10, 79, 64
12, 119458, Note_on_c, 10, 79, 0
12, 119460, Note_on_c, 10, 84, 64
12, 119518, Note_on_c, 10, 84, 0
12, 119518, Note_on_c, 10, 60, 0
12, 119518, Note_on_c, 10, 64, 0
12, 119518, Note_on_c, 10, 67, 0
12, 119520, Note_on_c, 10, 72, 64
12, 119520, Note_on_c, 10, 67, 64
12, 119520, Note_on_c, 10, 64, 64
12, 119520, Note_on_c, 10, 60, 64
12, 119758, Note_on_c, 10, 60, 0
12, 119758, Note_on_c, 10, 72, 0
12, 119758, Note_on_c, 10, 67, 0
12, 119758, Note_on_c, 10, 64, 0
12, 123120, Note_on_c, 10, 77, 64
12, 123120, Note_on_c, 10, 69, 64
12, 123120, Note_on_c, 10, 65, 64
12, 123178, Note_on_c, 10, 77, 0
12, 123180, Note_on_c, 10, 72, 64
12, 123238, Note_on_c, 10, 72, 0
12, 123240, Note_on_c, 10, 77, 64
12, 123298, Note_on_c, 10, 77, 0
12, 123300, Note_on_c, 10, 81, 64
12, 123358, Note_on_c, 10, 81, 0
12, 123358, Note_on_c, 10, 65, 0
12, 123358, Note_on_c, 10, 69, 0
12, 123360, Note_on_c, 10, 84, 64
12, 123360, Note_on_c, 10, 72, 64
12, 123360, Note_on_c, 10, 67, 64
12, 123360, Note_on_c, 10, 64, 64
12, 123598, Note_on_c, 10, 64, 0
12, 123598, Note_on_c, 10, 84, 0
12, 123598, Note_on_c, 10, 72, 0
12, 123598, Note_on_c, 10, 67, 0
12, 125040, Note_on_c, 10, 69, 64
12, 125040, Note_on_c, 10, 65, 64
12, 125040, Note_on_c, 10, 77, 64
12, 125098, Note_on_c, 10, 77, 0
12, 125100, Note_on_c, 10, 76, 64
12, 125158, Note_on_c, 10, 76, 0
12, 125160, Note_on_c, 10, 77, 64
12, 125218, Note_on_c, 10, 77, 0
12, 125220, Note_on_c, 10, 81, 64
12, 125278, Note_on_c, 10, 81, 0
12, 125278, Note_on_c, 10, 65, 0
12, 125278, Note_on_c, 10, 69, 0
12, 125280, Note_on_c, 10, 64, 64
12, 125280, Note_on_c, 10, 67, 64
12, 125280, Note_on_c, 10, 72, 64
12, 125280, Note_on_c, 10, 84, 64
12, 125518, Note_on_c, 10, 84, 0
12, 125518, Note_on_c, 10, 64, 0
12, 125518, Note_on_c, 10, 67, 0
12, 125518, Note_on_c, 10, 72, 0
12, 127440, Note_on_c, 10, 81, 64
12, 127440, Note_on_c, 10, 53, 64
12, 127558, Note_on_c, 10, 53, 0
12, 127558, Note_on_c, 10, 81, 0
12, 127560, Note_on_c, 10, 77, 64
12, 127560, Note_on_c, 10, 57, 64
12, 127678, Note_on_c, 10, 57, 0
12, 127678, Note_on_c, 10, 77, 0
12, 127680, Note_on_c, 10, 79, 64
12, 127680, Note_on_c, 10, 48, 64
12, 127798, Note_on_c, 10, 48, 0
12, 127798, Note_on_c, 10, 79, 0
12, 127800, Note_on_c, 10, 76, 64
12, 127800, Note_on_c, 10, 52, 64
12, 127918, Note_on_c, 10, 52, 0
12, 127918, Note_on_c, 10, 76, 0
12, 127920, Note_on_c, 10, 72, 64
12, 127920, Note_on_c, 10, 55, 64
12, 128038, Note_on_c, 10, 55, 0
12, 128038, Note_on_c, 10, 72, 0
12, 128040, Note_on_c, 10, 84, 64
12, 128040, Note_on_c, 10, 60, 64
12, 128158, Note_on_c, 10, 60, 0
12, 128158, Note_on_c, 10, 84, 0
12, 128160, Note_on_c, 10, 81, 64
12, 128160, Note_on_c, 10, 53, 64
12, 128278, Note_on_c, 10, 53, 0
12, 128278, Note_on_c, 10, 81, 0
12, 128280, Note_on_c, 10, 77, 64
12, 128280, Note_on_c, 10, 57, 64
12, 128398, Note_on_c, 10, 57, 0
12, 128398, Note_on_c, 10, 77, 0
12, 128400, Note_on_c, 10, 79, 64
12, 128400, Note_on_c, 10, 48, 64
12, 128518, Note_on_c, 10, 48, 0
12, 128518, Note_on_c, 10, 79, 0
12, 128520, Note_on_c, 10, 76, 64
12, 128520, Note_on_c, 10, 52, 64
12, 128638, Note_on_c, 10, 52, 0
12, 128638, Note_on_c, 10, 76, 0
12, 128640, Note_on_c, 10, 72, 64
12, 128640, Note_on_c, 10, 55, 64
12, 128758, Note_on_c, 10, 55, 0
12, 128758, Note_on_c, 10, 72, 0
12, 128760, Note_on_c, 10, 84, 64
12, 128760, Note_on_c, 10, 60, 64
12, 128878, Note_on_c, 10, 60, 0
12, 128878, Note_on_c, 10, 84, 0
12, 128880, Note_on_c, 10, 81, 64
12, 128880, Note_on_c, 10, 53, 64
12, 128998, Note_on_c, 10, 53, 0
12, 128998, Note_on_c, 10, 81, 0
12, 129000, Note_on_c, 10, 77, 64
12, 129000, Note_on_c, 10, 57, 64
12, 129118, Note_on_c, 10, 57, 0
12, 129118, Note_on_c, 10, 77, 0
12, 129120, Note_on_c, 10, 79, 64
12, 129120, Note_on_c, 10, 48, 64
12, 129238, Note_on_c, 10, 48, 0
12, 129238, Note_on_c, 10, 79, 0
12, 129240, Note_on_c, 10, 76, 64
12, 129240, Note_on_c, 10, 52, 64
12, 129358, Note_on_c, 10, 52, 0
12, 129358, Note_on_c, 10, 76, 0
12, 129360, Note_on_c, 10, 72, 64
12, 129360, Note_on_c, 10, 55, 64
12, 129478, Note_on_c, 10, 55, 0
12, 129478, Note_on_c, 10, 72, 0
12, 129480, Note_on_c, 10, 76, 64
12, 129480, Note_on_c, 10, 60, 64
12, 129598, Note_on_c, 10, 60, 0
12, 129598, Note_on_c, 10, 76, 0
12, 129600, Note_on_c, 10, 79, 64
12, 129600, Note_on_c, 10, 55, 64
12, 129718, Note_on_c, 10, 55, 0
12, 129718, Note_on_c, 10, 79, 0
12, 129720, Note_on_c, 10, 84, 64
12, 129720, Note_on_c, 10, 52, 64
12, 129838, Note_on_c, 10, 52, 0
12, 129838, Note_on_c, 10, 84, 0
12, 129840, Note_on_c, 10, 79, 64
12, 129840, Note_on_c, 10, 48, 64
12, 130078, Note_on_c, 10, 48, 0
12, 130078, Note_on_c, 10, 79, 0
12, 130320, Note_on_c, 10, 81, 64
12, 130320, Note_on_c, 10, 53, 64
12, 130438, Note_on_c, 10, 53, 0
12, 130438, Note_on_c, 10, 81, 0
12, 130440, Note_on_c, 10, 77, 64
12, 130440, Note_on_c, 10, 57, 64
12, 130558, Note_on_c, 10, 57, 0
12, 130558, Note_on_c, 10, 77, 0
12, 130560, Note_on_c, 10, 79, 64
12, 130560, Note_on_c, 10, 52, 64
12, 130678, Note_on_c, 10, 52, 0
12, 130678, Note_on_c, 10, 79, 0
12, 130680, Note_on_c, 10, 76, 64
12, 130680, Note_on_c, 10, 55, 64
12, 130798, Note_on_c, 10, 55, 0
12, 130798, Note_on_c, 10, 76, 0
12, 130800, Note_on_c, 10, 84, 64
12, 130800, Note_on_c, 10, 48, 64
12, 130918, Note_on_c, 10, 48, 0
12, 130918, Note_on_c, 10, 84, 0
12, 130920, Note_on_c, 10, 79, 64
12, 130920, Note_on_c, 10, 52, 64
12, 131038, Note_on_c, 10, 52, 0
12, 131038, Note_on_c, 10, 79, 0
12, 131040, Note_on_c, 10, 76, 64
12, 131040, Note_on_c, 10, 55, 64
12, 131158, Note_on_c, 10, 55, 0
12, 131158, Note_on_c, 10, 76, 0
12, 131160, Note_on_c, 10, 72, 64
12, 131160, Note_on_c, 10, 60, 64
12, 131278, Note_on_c, 10, 60, 0
12, 131278, Note_on_c, 10, 72, 0
12, 131280, Note_on_c, 10, 77, 64
12, 131280, Note_on_c, 10, 59, 64
12, 131398, Note_on_c, 10, 59, 0
12, 131398, Note_on_c, 10, 77, 0
12, 131400, Note_on_c, 10, 74, 64
12, 131400, Note_on_c, 10, 62, 64
12, 131518, Note_on_c, 10, 62, 0
12, 131518, Note_on_c, 10, 74, 0
12, 131520, Note_on_c, 10, 81, 64
12, 131520, Note_on_c, 10, 55, 64
12, 131638, Note_on_c, 10, 55, 0
12, 131638, Note_on_c, 10, 81, 0
12, 131640, Note_on_c, 10, 77, 64
12, 131640, Note_on_c, 10, 59, 64
12, 131758, Note_on_c, 10, 59, 0
12, 131758, Note_on_c, 10, 77, 0
12, 131760, Note_on_c, 10, 74, 64
12, 131760, Note_on_c, 10, 62, 64
12, 131878, Note_on_c, 10, 62, 0
12, 131878, Note_on_c, 10, 74, 0
12, 131880, Note_on_c, 10, 71, 64
12, 131880, Note_on_c, 10, 65, 64
12, 131998, Note_on_c, 10, 65, 0
12, 131998, Note_on_c, 10, 71, 0
12, 132000, Note_on_c, 10, 79, 64
12, 132000, Note_on_c, 10, 74, 64
12, 132000, Note_on_c, 10, 71, 64
12, 132000, Note_on_c, 10, 67, 64
12, 132118, Note_on_c, 10, 79, 0
12, 132120, Note_on_c, 10, 81, 64
12, 132238, Note_on_c, 10, 81, 0
12, 132238, Note_on_c, 10, 67, 0
12, 132238, Note_on_c, 10, 71, 0
12, 132238, Note_on_c, 10, 74, 0
12, 132240, Note_on_c, 10, 83, 64
12, 132240, Note_on_c, 10, 67, 64
12, 132240, Note_on_c, 10, 71, 64
12, 132240, Note_on_c, 10, 74, 64
12, 132358, Note_on_c, 10, 83, 0
12, 132360, Note_on_c, 10, 84, 64
12, 132478, Note_on_c, 10, 84, 0
12, 132478, Note_on_c, 10, 74, 0
12, 132478, Note_on_c, 10, 71, 0
12, 132478, Note_on_c, 10, 67, 0
12, 132480, Note_on_c, 10, 86, 64
12, 132480, Note_on_c, 10, 67, 64
12, 132480, Note_on_c, 10, 71, 64
12, 132480, Note_on_c, 10, 74, 64
12, 132598, Note_on_c, 10, 86, 0
12, 132600, Note_on_c, 10, 83, 64
12, 132718, Note_on_c, 10, 83, 0
12, 132718, Note_on_c, 10, 74, 0
12, 132718, Note_on_c, 10, 71, 0
12, 132718, Note_on_c, 10, 67, 0
12, 132720, Note_on_c, 10, 84, 64
12, 132720, Note_on_c, 10, 72, 64
12, 132720, Note_on_c, 10, 67, 64
12, 132720, Note_on_c, 10, 60, 64
12, 132958, Note_on_c, 10, 60, 0
12, 132958, Note_on_c, 10, 84, 0
12, 132958, Note_on_c, 10, 72, 0
12, 132958, Note_on_c, 10, 67, 0
12, 144000, Note_on_c, 10, 84, 64
12, 144000, Note_on_c, 10, 76, 64
12, 144000, Note_on_c, 10, 67, 64
12, 144000, Note_on_c, 10, 60, 64
12, 144238, Note_on_c, 10, 60, 0
12, 144238, Note_on_c, 10, 84, 0
12, 144238, Note_on_c, 10, 76, 0
12, 144238, Note_on_c, 10, 67, 0
12, 144240, Note_on_c, 10, 77, 64
12, 144240, Note_on_c, 10, 81, 64
12, 144240, Note_on_c, 10, 69, 64
12, 144240, Note_on_c, 10, 65, 64
12, 144478, Note_on_c, 10, 65, 0
12, 144478, Note_on_c, 10, 77, 0
12, 144478, Note_on_c, 10, 81, 0
12, 144478, Note_on_c, 10, 69, 0
12, 144480, Note_on_c, 10, 77, 64
12, 144480, Note_on_c, 10, 65, 64
12, 144480, Note_on_c, 10, 69, 64
12, 144718, Note_on_c, 10, 69, 0
12, 144718, Note_on_c, 10, 65, 0
12, 144718, Note_on_c, 10, 77, 0
12, 145440, Note_on_c, 10, 60, 64
12, 145440, Note_on_c, 10, 67, 64
12, 145440, Note_on_c, 10, 76, 64
12, 145440, Note_on_c, 10, 84, 64
12, 145678, Note_on_c, 10, 84, 0
12, 145678, Note_on_c, 10, 60, 0
12, 145678, Note_on_c, 10, 67, 0
12, 145678, Note_on_c, 10, 76, 0
12, 145680, Note_on_c, 10, 65, 64
12, 145680, Note_on_c, 10, 69, 64
12, 145680, Note_on_c, 10, 81, 64
12, 145680, Note_on_c, 10, 77, 64
12, 145918, Note_on_c, 10, 77, 0
12, 145918, Note_on_c, 10, 65, 0
12, 145918, Note_on_c, 10, 69, 0
12, 145918, Note_on_c, 10, 81, 0
12, 145920, Note_on_c, 10, 69, 64
12, 145920, Note_on_c, 10, 65, 64
12, 145920, Note_on_c, 10, 77, 64
12, 146158, Note_on_c, 10, 77, 0
12, 146158, Note_on_c, 10, 65, 0
12, 146158, Note_on_c, 10, 69, 0
12, 146880, Note_on_c, 10, 84, 64
12, 146880, Note_on_c, 10, 76, 64
12, 146880, Note_on_c, 10, 67, 64
12, 146880, Note_on_c, 10, 60, 64
12, 147118, Note_on_c, 10, 60, 0
12, 147118, Note_on_c, 10, 84, 0
12, 147118, Note_on_c, 10, 76, 0
12, 147118, Note_on_c, 10, 67, 0
12, 147120, Note_on_c, 10, 77, 64
12, 147120, Note_on_c, 10, 81, 64
12, 147120, Note_on_c, 10, 69, 64
12, 147120, Note_on_c, 10, 65, 64
12, 147358, Note_on_c, 10, 65, 0
12, 147358, Note_on_c, 10, 77, 0
12, 147358, Note_on_c, 10, 81, 0
12, 147358, Note_on_c, 10, 69, 0
12, 147360, Note_on_c, 10, 77, 64
12, 147360, Note_on_c, 10, 65, 64
12, 147360, Note_on_c, 10, 69, 64
12, 147598, Note_on_c, 10, 69, 0
12, 147598, Note_on_c, 10, 65, 0
12, 147598, Note_on_c, 10, 77, 0
12, 154080, Note_on_c, 10, 81, 64
12, 154080, Note_on_c, 10, 65, 64
12, 154198, Note_on_c, 10, 65, 0
12, 154198, Note_on_c, 10, 81, 0
12, 154200, Note_on_c, 10, 77, 64
12, 154200, Note_on_c, 10, 69, 64
12, 154318, Note_on_c, 10, 69, 0
12, 154318, Note_on_c, 10, 77, 0
12, 154320, Note_on_c, 10, 82, 64
12, 154320, Note_on_c, 10, 60, 64
12, 154438, Note_on_c, 10, 60, 0
12, 154438, Note_on_c, 10, 82, 0
12, 154440, Note_on_c, 10, 79, 64
12, 154440, Note_on_c, 10, 64, 64
12, 154558, Note_on_c, 10, 64, 0
12, 154558, Note_on_c, 10, 79, 0
12, 154560, Note_on_c, 10, 76, 64
12, 154560, Note_on_c, 10, 67, 64
12, 154678, Note_on_c, 10, 67, 0
12, 154678, Note_on_c, 10, 76, 0
12, 154680, Note_on_c, 10, 72, 64
12, 154680, Note_on_c, 10, 70, 64
12, 154798, Note_on_c, 10, 70, 0
12, 154798, Note_on_c, 10, 72, 0
12, 154800, Note_on_c, 10, 82, 64
12, 154800, Note_on_c, 10, 60, 64
12, 154918, Note_on_c, 10, 60, 0
12, 154918, Note_on_c, 10, 82, 0
12, 154920, Note_on_c, 10, 79, 64
12, 154920, Note_on_c, 10, 64, 64
12, 155038, Note_on_c, 10, 64, 0
12, 155038, Note_on_c, 10, 79, 0
12, 155040, Note_on_c, 10, 88, 64
12, 155040, Note_on_c, 10, 84, 64
12, 155040, Note_on_c, 10, 81, 64
12, 155040, Note_on_c, 10, 65, 64
12, 155040, Note_on_c, 10, 60, 64
12, 155040, Note_on_c, 10, 57, 64
12, 155518, Note_on_c, 10, 57, 0
12, 155518, Note_on_c, 10, 84, 0
12, 155518, Note_on_c, 10, 81, 0
12, 155518, Note_on_c, 10, 88, 0
12, 155518, Note_on_c, 10, 60, 0
12, 155518, Note_on_c, 10, 65, 0
12, 156960, Note_on_c, 10, 65, 64
12, 156960, Note_on_c, 10, 81, 64
12, 157078, Note_on_c, 10, 81, 0
12, 157078, Note_on_c, 10, 65, 0
12, 157080, Note_on_c, 10, 69, 64
12, 157080, Note_on_c, 10, 77, 64
12, 157198, Note_on_c, 10, 77, 0
12, 157198, Note_on_c, 10, 69, 0
12, 157200, Note_on_c, 10, 60, 64
12, 157200, Note_on_c, 10, 82, 64
12, 157318, Note_on_c, 10, 82, 0
12, 157318, Note_on_c, 10, 60, 0
12, 157320, Note_on_c, 10, 64, 64
12, 157320, Note_on_c, 10, 79, 64
12, 157438, Note_on_c, 10, 79, 0
12, 157438, Note_on_c, 10, 64, 0
12, 157440, Note_on_c, 10, 67, 64
12, 157440, Note_on_c, 10, 76, 64
12, 157558, Note_on_c, 10, 76, 0
12, 157558, Note_on_c, 10, 67, 0
12, 157560, Note_on_c, 10, 70, 64
12, 157560, Note_on_c, 10, 72, 64
12, 157678, Note_on_c, 10, 72, 0
12, 157678, Note_on_c, 10, 70, 0
12, 157680, Note_on_c, 10, 60, 64
12, 157680, Note_on_c, 10, 82, 64
12, 157798, Note_on_c, 10, 82, 0
12, 157798, Note_on_c, 10, 60, 0
12, 157800, Note_on_c, 10, 64, 64
12, 157800, Note_on_c, 10, 79, 64
12, 157918, Note_on_c, 10, 79, 0
12, 157918, Note_on_c, 10, 64, 0
12, 157920, Note_on_c, 10, 57, 64
12, 157920, Note_on_c, 10, 60, 64
12, 157920, Note_on_c, 10, 65, 64
12, 157920, Note_on_c, 10, 81, 64
12, 157920, Note_on_c, 10, 84, 64
12, 157920, Note_on_c, 10, 88, 64
12, 158398, Note_on_c, 10, 88, 0
12, 158398, Note_on_c, 10, 60, 0
12, 158398, Note_on_c, 10, 65, 0
12, 158398, Note_on_c, 10, 57, 0
12, 158398, Note_on_c, 10, 84, 0
12, 158398, Note_on_c, 10, 81, 0
12, 159840, Note_on_c, 10, 65, 64
12, 159840, Note_on_c, 10, 69, 64
12, 159840, Note_on_c, 10, 81, 64
12, 159840, Note_on_c, 10, 84, 64
12, 160078, Note_on_c, 10, 84, 0
12, 160078, Note_on_c, 10, 65, 0
12, 160078, Note_on_c, 10, 69, 0
12, 160078, Note_on_c, 10, 81, 0
12, 160080, Note_on_c, 10, 65, 64
12, 160080, Note_on_c, 10, 69, 64
12, 160080, Note_on_c, 10, 81, 64
12, 160080, Note_on_c, 10, 77, 64
12, 160318, Note_on_c, 10, 77, 0
12, 160318, Note_on_c, 10, 65, 0
12, 160318, Note_on_c, 10, 69, 0
12, 160318, Note_on_c, 10, 81, 0
12, 160320, Note_on_c, 10, 77, 64
12, 160320, Note_on_c, 10, 72, 64
12, 160558, Note_on_c, 10, 72, 0
12, 160558, Note_on_c, 10, 77, 0
12, 160560, Note_on_c, 10, 65, 64
12, 160560, Note_on_c, 10, 69, 64
12, 160560, Note_on_c, 10, 81, 64
12, 160560, Note_on_c, 10, 84, 64
12, 160798, Note_on_c, 10, 84, 0
12, 160798, Note_on_c, 10, 65, 0
12, 160798, Note_on_c, 10, 69, 0
12, 160798, Note_on_c, 10, 81, 0
12, 160800, Note_on_c, 10, 65, 64
12, 160800, Note_on_c, 10, 69, 64
12, 160800, Note_on_c, 10, 77, 64
12, 160800, Note_on_c, 10, 81, 64
12, 161038, Note_on_c, 10, 81, 0
12, 161038, Note_on_c, 10, 65, 0
12, 161038, Note_on_c, 10, 69, 0
12, 161038, Note_on_c, 10, 77, 0
12, 161040, Note_on_c, 10, 72, 64
12, 161040, Note_on_c, 10, 77, 64
12, 161278, Note_on_c, 10, 77, 0
12, 161278, Note_on_c, 10, 72, 0
12, 161280, Note_on_c, 10, 65, 64
12, 161280, Note_on_c, 10, 69, 64
12, 161280, Note_on_c, 10, 81, 64
12, 161280, Note_on_c, 10, 84, 64
12, 161518, Note_on_c, 10, 84, 0
12, 161518, Note_on_c, 10, 65, 0
12, 161518, Note_on_c, 10, 69, 0
12, 161518, Note_on_c, 10, 81, 0
12, 161520, Note_on_c, 10, 60, 64
12, 161520, Note_on_c, 10, 64, 64
12, 161520, Note_on_c, 10, 67, 64
12, 161520, Note_on_c, 10, 79, 64
12, 161520, Note_on_c, 10, 82, 64
12, 161758, Note_on_c, 10, 82, 0
12, 161758, Note_on_c, 10, 67, 0
12, 161758, Note_on_c, 10, 60, 0
12, 161758, Note_on_c, 10, 64, 0
12, 161758, Note_on_c, 10, 79, 0
12, 161760, Note_on_c, 10, 67, 64
12, 161760, Note_on_c, 10, 64, 64
12, 161760, Note_on_c, 10, 60, 64
12, 161760, Note_on_c, 10, 76, 64
12, 161760, Note_on_c, 10, 79, 64
12, 161998, Note_on_c, 10, 79, 0
12, 161998, Note_on_c, 10, 60, 0
12, 161998, Note_on_c, 10, 67, 0
12, 161998, Note_on_c, 10, 64, 0
12, 161998, Note_on_c, 10, 76, 0
12, 162000, Note_on_c, 10, 60, 64
12, 162000, Note_on_c, 10, 64, 64
12, 162000, Note_on_c, 10, 67, 64
12, 162000, Note_on_c, 10, 82, 64
12, 162000, Note_on_c, 10, 79, 64
12, 162238, Note_on_c, 10, 79, 0
12, 162238, Note_on_c, 10, 67, 0
12, 162238, Note_on_c, 10, 60, 0
12, 162238, Note_on_c, 10, 64, 0
12, 162238, Note_on_c, 10, 82, 0
12, 162240, Note_on_c, 10, 65, 64
12, 162240, Note_on_c, 10, 69, 64
12, 162240, Note_on_c, 10, 81, 64
12, 162240, Note_on_c, 10, 77, 64
12, 162478, Note_on_c, 10, 77, 0
12, 162478, Note_on_c, 10, 65, 0
12, 162478, Note_on_c, 10, 69, 0
12, 162478, Note_on_c, 10, 81, 0
12, 162720, Note_on_c, 10, 69, 64
12, 162720, Note_on_c, 10, 65, 64
12, 162720, Note_on_c, 10, 84, 64
12, 162838, Note_on_c, 10, 84, 0
12, 162840, Note_on_c, 10, 81, 64
12, 162958, Note_on_c, 10, 81, 0
12, 162958, Note_on_c, 10, 65, 0
12, 162958, Note_on_c, 10, 69, 0
12, 162960, Note_on_c, 10, 65, 64
12, 162960, Note_on_c, 10, 69, 64
12, 162960, Note_on_c, 10, 77, 64
12, 163078, Note_on_c, 10, 77, 0
12, 163080, Note_on_c, 10, 81, 64
12, 163198, Note_on_c, 10, 81, 0
12, 163198, Note_on_c, 10, 69, 0
12, 163198, Note_on_c, 10, 65, 0
12, 163200, Note_on_c, 10, 69, 64
12, 163200, Note_on_c, 10, 65, 64
12, 163200, Note_on_c, 10, 72, 64
12, 163318, Note_on_c, 10, 72, 0
12, 163320, Note_on_c, 10, 77, 64
12, 163438, Note_on_c, 10, 77, 0
12, 163438, Note_on_c, 10, 65, 0
12, 163438, Note_on_c, 10, 69, 0
12, 163440, Note_on_c, 10, 65, 64
12, 163440, Note_on_c, 10, 69, 64
12, 163440, Note_on_c, 10, 81, 64
12, 163558, Note_on_c, 10, 81, 0
12, 163560, Note_on_c, 10, 84, 64
12, 163678, Note_on_c, 10, 84, 0
12, 163678, Note_on_c, 10, 69, 0
12, 163678, Note_on_c, 10, 65, 0
12, 163680, Note_on_c, 10, 69, 64
12, 163680, Note_on_c, 10, 65, 64
12, 163680, Note_on_c, 10, 77, 64
12, 163798, Note_on_c, 10, 77, 0
12, 163800, Note_on_c, 10, 81, 64
12, 163918, Note_on_c, 10, 81, 0
12, 163918, Note_on_c, 10, 65, 0
12, 163918, Note_on_c, 10, 69, 0
12, 163920, Note_on_c, 10, 69, 64
12, 163920, Note_on_c, 10, 65, 64
12, 163920, Note_on_c, 10, 72, 64
12, 164038, Note_on_c, 10, 72, 0
12, 164040, Note_on_c, 10, 77, 64
12, 164158, Note_on_c, 10, 77, 0
12, 164158, Note_on_c, 10, 65, 0
12, 164158, Note_on_c, 10, 69, 0
12, 164160, Note_on_c, 10, 69, 64
12, 164160, Note_on_c, 10, 65, 64
12, 164160, Note_on_c, 10, 81, 64
12, 164278, Note_on_c, 10, 81, 0
12, 164280, Note_on_c, 10, 84, 64
12, 164398, Note_on_c, 10, 84, 0
12, 164398, Note_on_c, 10, 65, 0
12, 164398, Note_on_c, 10, 69, 0
12, 164400, Note_on_c, 10, 60, 64
12, 164400, Note_on_c, 10, 64, 64
12, 164400, Note_on_c, 10, 67, 64
12, 164400, Note_on_c, 10, 82, 64
12, 164518, Note_on_c, 10, 82, 0
12, 164520, Note_on_c, 10, 86, 64
12, 164638, Note_on_c, 10, 86, 0
12, 164638, Note_on_c, 10, 67, 0
12, 164638, Note_on_c, 10, 64, 0
12, 164638, Note_on_c, 10, 60, 0
12, 164640, Note_on_c, 10, 67, 64
12, 164640, Note_on_c, 10, 64, 64
12, 164640, Note_on_c, 10, 60, 64
12, 164640, Note_on_c, 10, 82, 64
12, 164758, Note_on_c, 10, 82, 0
12, 164760, Note_on_c, 10, 79, 64
12, 164878, Note_on_c, 10, 79, 0
12, 164878, Note_on_c, 10, 60, 0
12, 164878, Note_on_c, 10, 64, 0
12, 164878, Note_on_c, 10, 67, 0
12, 164880, Note_on_c, 10, 60, 64
12, 164880, Note_on_c, 10, 64, 64
12, 164880, Note_on_c, 10, 67, 64
12, 164880, Note_on_c, 10, 76, 64
12, 164998, Note_on_c, 10, 76, 0
12, 165000, Note_on_c, 10, 79, 64
12, 165118, Note_on_c, 10, 79, 0
12, 165118, Note_on_c, 10, 67, 0
12, 165118, Note_on_c, 10, 64, 0
12, 165118, Note_on_c, 10, 60, 0
12, 165120, Note_on_c, 10, 65, 64
12, 165120, Note_on_c, 10, 69, 64
12, 165120, Note_on_c, 10, 77, 64
12, 165598, Note_on_c, 10, 77, 0
12, 165598, Note_on_c, 10, 69, 0
12, 165598, Note_on_c, 10, 65, 0
12, 165598, End_track
13, 0, Start_track
13, 0, MIDI_port, 0
13, 0, Title_t, "Horns 1 in F"
13, 0, Program_c, 11, 60
13, 0, Control_c, 11, 7, 110
13, 0, Control_c, 11, 10, 96
13, 245, Control_c, 11, 91, 40
13, 250, Control_c, 11, 93, 0
13, 1680, Note_on_c, 11, 60, 64
13, 1918, Note_on_c, 11, 60, 0
13, 1920, Note_on_c, 11, 65, 64
13, 2158, Note_on_c, 11, 65, 0
13, 2160, Note_on_c, 11, 65, 64
13, 2398, Note_on_c, 11, 65, 0
13, 2400, Note_on_c, 11, 67, 64
13, 2638, Note_on_c, 11, 67, 0
13, 2640, Note_on_c, 11, 67, 64
13, 2878, Note_on_c, 11, 67, 0
13, 2880, Note_on_c, 11, 69, 64
13, 3358, Note_on_c, 11, 69, 0
13, 3600, Note_on_c, 11, 69, 64
13, 3838, Note_on_c, 11, 69, 0
13, 3840, Note_on_c, 11, 70, 64
13, 4078, Note_on_c, 11, 70, 0
13, 4080, Note_on_c, 11, 70, 64
13, 4318, Note_on_c, 11, 70, 0
13, 4320, Note_on_c, 11, 69, 64
13, 4558, Note_on_c, 11, 69, 0
13, 4560, Note_on_c, 11, 69, 64
13, 4798, Note_on_c, 11, 69, 0
13, 4800, Note_on_c, 11, 67, 64
13, 5278, Note_on_c, 11, 67, 0
13, 5520, Note_on_c, 11, 60, 64
13, 5758, Note_on_c, 11, 60, 0
13, 5760, Note_on_c, 11, 70, 64
13, 5998, Note_on_c, 11, 70, 0
13, 6000, Note_on_c, 11, 70, 64
13, 6238, Note_on_c, 11, 70, 0
13, 6240, Note_on_c, 11, 67, 64
13, 6478, Note_on_c, 11, 67, 0
13, 6480, Note_on_c, 11, 67, 64
13, 6718, Note_on_c, 11, 67, 0
13, 6720, Note_on_c, 11, 72, 64
13, 7198, Note_on_c, 11, 72, 0
13, 7680, Note_on_c, 11, 70, 64
13, 7918, Note_on_c, 11, 70, 0
13, 8160, Note_on_c, 11, 67, 64
13, 8398, Note_on_c, 11, 67, 0
13, 8640, Note_on_c, 11, 65, 64
13, 8878, Note_on_c, 11, 65, 0
13, 8880, Note_on_c, 11, 69, 64
13, 9118, Note_on_c, 11, 69, 0
13, 9120, Note_on_c, 11, 65, 64
13, 9358, Note_on_c, 11, 65, 0
13, 17040, Note_on_c, 11, 67, 64
13, 17278, Note_on_c, 11, 67, 0
13, 17280, Note_on_c, 11, 69, 64
13, 17638, Note_on_c, 11, 69, 0
13, 17640, Note_on_c, 11, 72, 64
13, 17758, Note_on_c, 11, 72, 0
13, 17760, Note_on_c, 11, 72, 64
13, 17878, Note_on_c, 11, 72, 0
13, 17880, Note_on_c, 11, 70, 64
13, 17998, Note_on_c, 11, 70, 0
13, 18000, Note_on_c, 11, 69, 64
13, 18118, Note_on_c, 11, 69, 0
13, 18120, Note_on_c, 11, 67, 64
13, 18238, Note_on_c, 11, 67, 0
13, 18240, Note_on_c, 11, 65, 64
13, 18718, Note_on_c, 11, 65, 0
13, 18960, Note_on_c, 11, 67, 64
13, 19198, Note_on_c, 11, 67, 0
13, 19200, Note_on_c, 11, 69, 64
13, 19558, Note_on_c, 11, 69, 0
13, 19560, Note_on_c, 11, 72, 64
13, 19678, Note_on_c, 11, 72, 0
13, 19680, Note_on_c, 11, 72, 64
13, 19798, Note_on_c, 11, 72, 0
13, 19800, Note_on_c, 11, 70, 64
13, 19918, Note_on_c, 11, 70, 0
13, 19920, Note_on_c, 11, 69, 64
13, 20038, Note_on_c, 11, 69, 0
13, 20040, Note_on_c, 11, 67, 64
13, 20158, Note_on_c, 11, 67, 0
13, 20160, Note_on_c, 11, 65, 64
13, 20638, Note_on_c, 11, 65, 0
13, 21120, Note_on_c, 11, 67, 64
13, 21358, Note_on_c, 11, 67, 0
13, 21600, Note_on_c, 11, 69, 64
13, 21838, Note_on_c, 11, 69, 0
13, 21840, Note_on_c, 11, 67, 64
13, 22078, Note_on_c, 11, 67, 0
13, 22320, Note_on_c, 11, 69, 64
13, 22558, Note_on_c, 11, 69, 0
13, 22560, Note_on_c, 11, 67, 64
13, 22798, Note_on_c, 11, 67, 0
13, 22800, Note_on_c, 11, 67, 64
13, 23038, Note_on_c, 11, 67, 0
13, 23040, Note_on_c, 11, 67, 64
13, 23278, Note_on_c, 11, 67, 0
13, 23280, Note_on_c, 11, 67, 64
13, 23518, Note_on_c, 11, 67, 0
13, 23760, Note_on_c, 11, 69, 64
13, 23998, Note_on_c, 11, 69, 0
13, 24000, Note_on_c, 11, 67, 64
13, 24238, Note_on_c, 11, 67, 0
13, 24480, Note_on_c, 11, 67, 64
13, 24718, Note_on_c, 11, 67, 0
13, 24720, Note_on_c, 11, 67, 64
13, 24958, Note_on_c, 11, 67, 0
13, 25200, Note_on_c, 11, 67, 64
13, 25438, Note_on_c, 11, 67, 0
13, 25440, Note_on_c, 11, 67, 64
13, 25678, Note_on_c, 11, 67, 0
13, 25680, Note_on_c, 11, 67, 64
13, 25918, Note_on_c, 11, 67, 0
13, 25920, Note_on_c, 11, 67, 64
13, 26158, Note_on_c, 11, 67, 0
13, 26160, Note_on_c, 11, 67, 64
13, 26398, Note_on_c, 11, 67, 0
13, 34080, Note_on_c, 11, 60, 64
13, 35038, Note_on_c, 11, 60, 0
13, 42480, Note_on_c, 11, 65, 64
13, 42718, Note_on_c, 11, 65, 0
13, 42720, Note_on_c, 11, 65, 64
13, 42958, Note_on_c, 11, 65, 0
13, 42960, Note_on_c, 11, 65, 64
13, 43198, Note_on_c, 11, 65, 0
13, 43200, Note_on_c, 11, 65, 64
13, 43438, Note_on_c, 11, 65, 0
13, 43440, Note_on_c, 11, 65, 64
13, 43678, Note_on_c, 11, 65, 0
13, 43680, Note_on_c, 11, 65, 64
13, 43918, Note_on_c, 11, 65, 0
13, 43920, Note_on_c, 11, 65, 64
13, 44158, Note_on_c, 11, 65, 0
13, 44160, Note_on_c, 11, 65, 64
13, 44878, Note_on_c, 11, 65, 0
13, 47520, Note_on_c, 11, 69, 64
13, 47758, Note_on_c, 11, 69, 0
13, 47760, Note_on_c, 11, 67, 64
13, 47998, Note_on_c, 11, 67, 0
13, 48000, Note_on_c, 11, 67, 64
13, 48238, Note_on_c, 11, 67, 0
13, 48240, Note_on_c, 11, 67, 64
13, 48478, Note_on_c, 11, 67, 0
13, 48480, Note_on_c, 11, 65, 64
13, 48958, Note_on_c, 11, 65, 0
13, 50400, Note_on_c, 11, 69, 64
13, 50638, Note_on_c, 11, 69, 0
13, 50640, Note_on_c, 11, 67, 64
13, 50878, Note_on_c, 11, 67, 0
13, 50880, Note_on_c, 11, 67, 64
13, 51118, Note_on_c, 11, 67, 0
13, 51120, Note_on_c, 11, 67, 64
13, 51358, Note_on_c, 11, 67, 0
13, 51360, Note_on_c, 11, 65, 64
13, 51838, Note_on_c, 11, 65, 0
13, 54960, Note_on_c, 11, 60, 64
13, 55198, Note_on_c, 11, 60, 0
13, 55200, Note_on_c, 11, 65, 64
13, 55438, Note_on_c, 11, 65, 0
13, 55440, Note_on_c, 11, 65, 64
13, 55678, Note_on_c, 11, 65, 0
13, 55680, Note_on_c, 11, 67, 64
13, 55918, Note_on_c, 11, 67, 0
13, 55920, Note_on_c, 11, 67, 64
13, 56158, Note_on_c, 11, 67, 0
13, 56160, Note_on_c, 11, 69, 64
13, 56638, Note_on_c, 11, 69, 0
13, 56880, Note_on_c, 11, 69, 64
13, 57118, Note_on_c, 11, 69, 0
13, 57120, Note_on_c, 11, 70, 64
13, 57358, Note_on_c, 11, 70, 0
13, 57360, Note_on_c, 11, 70, 64
13, 57598, Note_on_c, 11, 70, 0
13, 57600, Note_on_c, 11, 69, 64
13, 57838, Note_on_c, 11, 69, 0
13, 57840, Note_on_c, 11, 69, 64
13, 58078, Note_on_c, 11, 69, 0
13, 58080, Note_on_c, 11, 67, 64
13, 58558, Note_on_c, 11, 67, 0
13, 58800, Note_on_c, 11, 60, 64
13, 59038, Note_on_c, 11, 60, 0
13, 59040, Note_on_c, 11, 70, 64
13, 59278, Note_on_c, 11, 70, 0
13, 59280, Note_on_c, 11, 70, 64
13, 59518, Note_on_c, 11, 70, 0
13, 59520, Note_on_c, 11, 67, 64
13, 59758, Note_on_c, 11, 67, 0
13, 59760, Note_on_c, 11, 67, 64
13, 59998, Note_on_c, 11, 67, 0
13, 60000, Note_on_c, 11, 72, 64
13, 60478, Note_on_c, 11, 72, 0
13, 60960, Note_on_c, 11, 70, 64
13, 61198, Note_on_c, 11, 70, 0
13, 61440, Note_on_c, 11, 67, 64
13, 61678, Note_on_c, 11, 67, 0
13, 61920, Note_on_c, 11, 65, 64
13, 62158, Note_on_c, 11, 65, 0
13, 62160, Note_on_c, 11, 69, 64
13, 62398, Note_on_c, 11, 69, 0
13, 62400, Note_on_c, 11, 65, 64
13, 62638, Note_on_c, 11, 65, 0
13, 70320, Note_on_c, 11, 67, 64
13, 70558, Note_on_c, 11, 67, 0
13, 70560, Note_on_c, 11, 69, 64
13, 70918, Note_on_c, 11, 69, 0
13, 70920, Note_on_c, 11, 72, 64
13, 71038, Note_on_c, 11, 72, 0
13, 71040, Note_on_c, 11, 72, 64
13, 71158, Note_on_c, 11, 72, 0
13, 71160, Note_on_c, 11, 70, 64
13, 71278, Note_on_c, 11, 70, 0
13, 71280, Note_on_c, 11, 69, 64
13, 71398, Note_on_c, 11, 69, 0
13, 71400, Note_on_c, 11, 67, 64
13, 71518, Note_on_c, 11, 67, 0
13, 71520, Note_on_c, 11, 65, 64
13, 71998, Note_on_c, 11, 65, 0
13, 72240, Note_on_c, 11, 67, 64
13, 72478, Note_on_c, 11, 67, 0
13, 72480, Note_on_c, 11, 69, 64
13, 72838, Note_on_c, 11, 69, 0
13, 72840, Note_on_c, 11, 72, 64
13, 72958, Note_on_c, 11, 72, 0
13, 72960, Note_on_c, 11, 72, 64
13, 73078, Note_on_c, 11, 72, 0
13, 73080, Note_on_c, 11, 70, 64
13, 73198, Note_on_c, 11, 70, 0
13, 73200, Note_on_c, 11, 69, 64
13, 73318, Note_on_c, 11, 69, 0
13, 73320, Note_on_c, 11, 67, 64
13, 73438, Note_on_c, 11, 67, 0
13, 73440, Note_on_c, 11, 65, 64
13, 73918, Note_on_c, 11, 65, 0
13, 74400, Note_on_c, 11, 67, 64
13, 74638, Note_on_c, 11, 67, 0
13, 74880, Note_on_c, 11, 69, 64
13, 75118, Note_on_c, 11, 69, 0
13, 75120, Note_on_c, 11, 67, 64
13, 75358, Note_on_c, 11, 67, 0
13, 75600, Note_on_c, 11, 69, 64
13, 75838, Note_on_c, 11, 69, 0
13, 75840, Note_on_c, 11, 67, 64
13, 76078, Note_on_c, 11, 67, 0
13, 76080, Note_on_c, 11, 67, 64
13, 76318, Note_on_c, 11, 67, 0
13, 76320, Note_on_c, 11, 67, 64
13, 76558, Note_on_c, 11, 67, 0
13, 76560, Note_on_c, 11, 67, 64
13, 76798, Note_on_c, 11, 67, 0
13, 77040, Note_on_c, 11, 69, 64
13, 77278, Note_on_c, 11, 69, 0
13, 77280, Note_on_c, 11, 67, 64
13, 77518, Note_on_c, 11, 67, 0
13, 77760, Note_on_c, 11, 67, 64
13, 77998, Note_on_c, 11, 67, 0
13, 78000, Note_on_c, 11, 67, 64
13, 78238, Note_on_c, 11, 67, 0
13, 78480, Note_on_c, 11, 67, 64
13, 78718, Note_on_c, 11, 67, 0
13, 78720, Note_on_c, 11, 67, 64
13, 78958, Note_on_c, 11, 67, 0
13, 78960, Note_on_c, 11, 67, 64
13, 79198, Note_on_c, 11, 67, 0
13, 79200, Note_on_c, 11, 67, 64
13, 79438, Note_on_c, 11, 67, 0
13, 79440, Note_on_c, 11, 67, 64
13, 79678, Note_on_c, 11, 67, 0
13, 87360, Note_on_c, 11, 60, 64
13, 88318, Note_on_c, 11, 60, 0
13, 95760, Note_on_c, 11, 65, 64
13, 95998, Note_on_c, 11, 65, 0
13, 96000, Note_on_c, 11, 65, 64
13, 96238, Note_on_c, 11, 65, 0
13, 96240, Note_on_c, 11, 65, 64
13, 96478, Note_on_c, 11, 65, 0
13, 96480, Note_on_c, 11, 65, 64
13, 96718, Note_on_c, 11, 65, 0
13, 96720, Note_on_c, 11, 65, 64
13, 96958, Note_on_c, 11, 65, 0
13, 96960, Note_on_c, 11, 65, 64
13, 97198, Note_on_c, 11, 65, 0
13, 97200, Note_on_c, 11, 65, 64
13, 97438, Note_on_c, 11, 65, 0
13, 97440, Note_on_c, 11, 65, 64
13, 98158, Note_on_c, 11, 65, 0
13, 100800, Note_on_c, 11, 69, 64
13, 101038, Note_on_c, 11, 69, 0
13, 101040, Note_on_c, 11, 67, 64
13, 101278, Note_on_c, 11, 67, 0
13, 101280, Note_on_c, 11, 67, 64
13, 101518, Note_on_c, 11, 67, 0
13, 101520, Note_on_c, 11, 67, 64
13, 101758, Note_on_c, 11, 67, 0
13, 101760, Note_on_c, 11, 65, 64
13, 102238, Note_on_c, 11, 65, 0
13, 103680, Note_on_c, 11, 69, 64
13, 103918, Note_on_c, 11, 69, 0
13, 103920, Note_on_c, 11, 67, 64
13, 104158, Note_on_c, 11, 67, 0
13, 104160, Note_on_c, 11, 67, 64
13, 104398, Note_on_c, 11, 67, 0
13, 104400, Note_on_c, 11, 67, 64
13, 104638, Note_on_c, 11, 67, 0
13, 104640, Note_on_c, 11, 65, 64
13, 105118, Note_on_c, 11, 65, 0
13, 108240, Note_on_c, 11, 60, 64
13, 108478, Note_on_c, 11, 60, 0
13, 108480, Note_on_c, 11, 65, 64
13, 108718, Note_on_c, 11, 65, 0
13, 108720, Note_on_c, 11, 65, 64
13, 108958, Note_on_c, 11, 65, 0
13, 108960, Note_on_c, 11, 67, 64
13, 109198, Note_on_c, 11, 67, 0
13, 109200, Note_on_c, 11, 67, 64
13, 109438, Note_on_c, 11, 67, 0
13, 109440, Note_on_c, 11, 69, 64
13, 109918, Note_on_c, 11, 69, 0
13, 110160, Note_on_c, 11, 69, 64
13, 110398, Note_on_c, 11, 69, 0
13, 110400, Note_on_c, 11, 70, 64
13, 110638, Note_on_c, 11, 70, 0
13, 110640, Note_on_c, 11, 70, 64
13, 110878, Note_on_c, 11, 70, 0
13, 110880, Note_on_c, 11, 69, 64
13, 111118, Note_on_c, 11, 69, 0
13, 111120, Note_on_c, 11, 69, 64
13, 111358, Note_on_c, 11, 69, 0
13, 111360, Note_on_c, 11, 67, 64
13, 111838, Note_on_c, 11, 67, 0
13, 112080, Note_on_c, 11, 60, 64
13, 112318, Note_on_c, 11, 60, 0
13, 112320, Note_on_c, 11, 70, 64
13, 112558, Note_on_c, 11, 70, 0
13, 112560, Note_on_c, 11, 70, 64
13, 112798, Note_on_c, 11, 70, 0
13, 112800, Note_on_c, 11, 67, 64
13, 113038, Note_on_c, 11, 67, 0
13, 113040, Note_on_c, 11, 67, 64
13, 113278, Note_on_c, 11, 67, 0
13, 113280, Note_on_c, 11, 72, 64
13, 113758, Note_on_c, 11, 72, 0
13, 114240, Note_on_c, 11, 70, 64
13, 114478, Note_on_c, 11, 70, 0
13, 114720, Note_on_c, 11, 67, 64
13, 114958, Note_on_c, 11, 67, 0
13, 115200, Note_on_c, 11, 65, 64
13, 115438, Note_on_c, 11, 65, 0
13, 115440, Note_on_c, 11, 69, 64
13, 115678, Note_on_c, 11, 69, 0
13, 115680, Note_on_c, 11, 65, 64
13, 115918, Note_on_c, 11, 65, 0
13, 123600, Note_on_c, 11, 67, 64
13, 123838, Note_on_c, 11, 67, 0
13, 123840, Note_on_c, 11, 69, 64
13, 124198, Note_on_c, 11, 69, 0
13, 124200, Note_on_c, 11, 72, 64
13, 124318, Note_on_c, 11, 72, 0
13, 124320, Note_on_c, 11, 72, 64
13, 124438, Note_on_c, 11, 72, 0
13, 124440, Note_on_c, 11, 70, 64
13, 124558, Note_on_c, 11, 70, 0
13, 124560, Note_on_c, 11, 69, 64
13, 124678, Note_on_c, 11, 69, 0
13, 124680, Note_on_c, 11, 67, 64
13, 124798, Note_on_c, 11, 67, 0
13, 124800, Note_on_c, 11, 65, 64
13, 125278, Note_on_c, 11, 65, 0
13, 125520, Note_on_c, 11, 67, 64
13, 125758, Note_on_c, 11, 67, 0
13, 125760, Note_on_c, 11, 69, 64
13, 126118, Note_on_c, 11, 69, 0
13, 126120, Note_on_c, 11, 72, 64
13, 126238, Note_on_c, 11, 72, 0
13, 126240, Note_on_c, 11, 72, 64
13, 126358, Note_on_c, 11, 72, 0
13, 126360, Note_on_c, 11, 70, 64
13, 126478, Note_on_c, 11, 70, 0
13, 126480, Note_on_c, 11, 69, 64
13, 126598, Note_on_c, 11, 69, 0
13, 126600, Note_on_c, 11, 67, 64
13, 126718, Note_on_c, 11, 67, 0
13, 126720, Note_on_c, 11, 65, 64
13, 127198, Note_on_c, 11, 65, 0
13, 127680, Note_on_c, 11, 67, 64
13, 127918, Note_on_c, 11, 67, 0
13, 128160, Note_on_c, 11, 69, 64
13, 128398, Note_on_c, 11, 69, 0
13, 128400, Note_on_c, 11, 67, 64
13, 128638, Note_on_c, 11, 67, 0
13, 128880, Note_on_c, 11, 69, 64
13, 129118, Note_on_c, 11, 69, 0
13, 129120, Note_on_c, 11, 67, 64
13, 129358, Note_on_c, 11, 67, 0
13, 129360, Note_on_c, 11, 67, 64
13, 129598, Note_on_c, 11, 67, 0
13, 129600, Note_on_c, 11, 67, 64
13, 129838, Note_on_c, 11, 67, 0
13, 129840, Note_on_c, 11, 67, 64
13, 130078, Note_on_c, 11, 67, 0
13, 130320, Note_on_c, 11, 69, 64
13, 130558, Note_on_c, 11, 69, 0
13, 130560, Note_on_c, 11, 67, 64
13, 130798, Note_on_c, 11, 67, 0
13, 131040, Note_on_c, 11, 67, 64
13, 131278, Note_on_c, 11, 67, 0
13, 131280, Note_on_c, 11, 67, 64
13, 131518, Note_on_c, 11, 67, 0
13, 131760, Note_on_c, 11, 67, 64
13, 131998, Note_on_c, 11, 67, 0
13, 132000, Note_on_c, 11, 67, 64
13, 132238, Note_on_c, 11, 67, 0
13, 132240, Note_on_c, 11, 67, 64
13, 132478, Note_on_c, 11, 67, 0
13, 132480, Note_on_c, 11, 67, 64
13, 132718, Note_on_c, 11, 67, 0
13, 132720, Note_on_c, 11, 67, 64
13, 132958, Note_on_c, 11, 67, 0
13, 140640, Note_on_c, 11, 60, 64
13, 141598, Note_on_c, 11, 60, 0
13, 149040, Note_on_c, 11, 65, 64
13, 149278, Note_on_c, 11, 65, 0
13, 149280, Note_on_c, 11, 65, 64
13, 149518, Note_on_c, 11, 65, 0
13, 149520, Note_on_c, 11, 65, 64
13, 149758, Note_on_c, 11, 65, 0
13, 149760, Note_on_c, 11, 65, 64
13, 149998, Note_on_c, 11, 65, 0
13, 150000, Note_on_c, 11, 65, 64
13, 150238, Note_on_c, 11, 65, 0
13, 150240, Note_on_c, 11, 65, 64
13, 150478, Note_on_c, 11, 65, 0
13, 150480, Note_on_c, 11, 65, 64
13, 150718, Note_on_c, 11, 65, 0
13, 150720, Note_on_c, 11, 65, 64
13, 151438, Note_on_c, 11, 65, 0
13, 154080, Note_on_c, 11, 69, 64
13, 154318, Note_on_c, 11, 69, 0
13, 154320, Note_on_c, 11, 67, 64
13, 154558, Note_on_c, 11, 67, 0
13, 154560, Note_on_c, 11, 67, 64
13, 154798, Note_on_c, 11, 67, 0
13, 154800, Note_on_c, 11, 67, 64
13, 155038, Note_on_c, 11, 67, 0
13, 155040, Note_on_c, 11, 65, 64
13, 155518, Note_on_c, 11, 65, 0
13, 156960, Note_on_c, 11, 69, 64
13, 157198, Note_on_c, 11, 69, 0
13, 157200, Note_on_c, 11, 67, 64
13, 157438, Note_on_c, 11, 67, 0
13, 157440, Note_on_c, 11, 67, 64
13, 157678, Note_on_c, 11, 67, 0
13, 157680, Note_on_c, 11, 67, 64
13, 157918, Note_on_c, 11, 67, 0
13, 157920, Note_on_c, 11, 65, 64
13, 158398, Note_on_c, 11, 65, 0
13, 160080, Note_on_c, 11, 69, 64
13, 160318, Note_on_c, 11, 69, 0
13, 160320, Note_on_c, 11, 69, 64
13, 160558, Note_on_c, 11, 69, 0
13, 160800, Note_on_c, 11, 69, 64
13, 161038, Note_on_c, 11, 69, 0
13, 161040, Note_on_c, 11, 69, 64
13, 161278, Note_on_c, 11, 69, 0
13, 161520, Note_on_c, 11, 67, 64
13, 161758, Note_on_c, 11, 67, 0
13, 161760, Note_on_c, 11, 67, 64
13, 161998, Note_on_c, 11, 67, 0
13, 162000, Note_on_c, 11, 67, 64
13, 162238, Note_on_c, 11, 67, 0
13, 162240, Note_on_c, 11, 65, 64
13, 162478, Note_on_c, 11, 65, 0
13, 162480, Note_on_c, 11, 65, 64
13, 162718, Note_on_c, 11, 65, 0
13, 162960, Note_on_c, 11, 65, 64
13, 163198, Note_on_c, 11, 65, 0
13, 163200, Note_on_c, 11, 65, 64
13, 163438, Note_on_c, 11, 65, 0
13, 163680, Note_on_c, 11, 65, 64
13, 163918, Note_on_c, 11, 65, 0
13, 163920, Note_on_c, 11, 65, 64
13, 164158, Note_on_c, 11, 65, 0
13, 164400, Note_on_c, 11, 67, 64
13, 164638, Note_on_c, 11, 67, 0
13, 164640, Note_on_c, 11, 67, 64
13, 164878, Note_on_c, 11, 67, 0
13, 164880, Note_on_c, 11, 67, 64
13, 165118, Note_on_c, 11, 67, 0
13, 165120, Note_on_c, 11, 65, 64
13, 165358, Note_on_c, 11, 65, 0
13, 165600, Note_on_c, 11, 72, 64
13, 165838, Note_on_c, 11, 72, 0
13, 165840, Note_on_c, 11, 69, 64
13, 166078, Note_on_c, 11, 69, 0
13, 166080, Note_on_c, 11, 65, 64
13, 166318, Note_on_c, 11, 65, 0
13, 166320, Note_on_c, 11, 72, 64
13, 166558, Note_on_c, 11, 72, 0
13, 166560, Note_on_c, 11, 69, 64
13, 166798, Note_on_c, 11, 69, 0
13, 166800, Note_on_c, 11, 65, 64
13, 167038, Note_on_c, 11, 65, 0
13, 167040, Note_on_c, 11, 72, 64
13, 167278, Note_on_c, 11, 72, 0
13, 167280, Note_on_c, 11, 70, 64
13, 167518, Note_on_c, 11, 70, 0
13, 167520, Note_on_c, 11, 67, 64
13, 167758, Note_on_c, 11, 67, 0
13, 167760, Note_on_c, 11, 70, 64
13, 167998, Note_on_c, 11, 70, 0
13, 168000, Note_on_c, 11, 69, 64
13, 168238, Note_on_c, 11, 69, 0
13, 168480, Note_on_c, 11, 72, 64
13, 168718, Note_on_c, 11, 72, 0
13, 168720, Note_on_c, 11, 69, 64
13, 168958, Note_on_c, 11, 69, 0
13, 168960, Note_on_c, 11, 65, 64
13, 169198, Note_on_c, 11, 65, 0
13, 169200, Note_on_c, 11, 72, 64
13, 169438, Note_on_c, 11, 72, 0
13, 169440, Note_on_c, 11, 69, 64
13, 169678, Note_on_c, 11, 69, 0
13, 169680, Note_on_c, 11, 65, 64
13, 169918, Note_on_c, 11, 65, 0
13, 169920, Note_on_c, 11, 72, 64
13, 170158, Note_on_c, 11, 72, 0
13, 170160, Note_on_c, 11, 70, 64
13, 170398, Note_on_c, 11, 70, 0
13, 170400, Note_on_c, 11, 67, 64
13, 170638, Note_on_c, 11, 67, 0
13, 170640, Note_on_c, 11, 67, 64
13, 170878, Note_on_c, 11, 67, 0
13, 170880, Note_on_c, 11, 65, 64
13, 171358, Note_on_c, 11, 65, 0
13, 171358, End_track
14, 0, Start_track
14, 0, MIDI_port, 0
14, 0, Title_t, "Oboes 1"
14, 0, Program_c, 12, 68
14, 0, Control_c, 12, 7, 105
14, 0, Control_c, 12, 10, 48
14, 1680, Note_on_c, 12, 72, 64
14, 1918, Note_on_c, 12, 72, 0
14, 1920, Note_on_c, 12, 77, 64
14, 2158, Note_on_c, 12, 77, 0
14, 2160, Note_on_c, 12, 77, 64
14, 2398, Note_on_c, 12, 77, 0
14, 2400, Note_on_c, 12, 79, 64
14, 2638, Note_on_c, 12, 79, 0
14, 2640, Note_on_c, 12, 79, 64
14, 2878, Note_on_c, 12, 79, 0
14, 2880, Note_on_c, 12, 81, 64
14, 3058, Note_on_c, 12, 81, 0
14, 3060, Note_on_c, 12, 82, 64
14, 3118, Note_on_c, 12, 82, 0
14, 3120, Note_on_c, 12, 81, 64
14, 3298, Note_on_c, 12, 81, 0
14, 3300, Note_on_c, 12, 79, 64
14, 3358, Note_on_c, 12, 79, 0
14, 3360, Note_on_c, 12, 77, 64
14, 3598, Note_on_c, 12, 77, 0
14, 3600, Note_on_c, 12, 77, 64
14, 3838, Note_on_c, 12, 77, 0
14, 3840, Note_on_c, 12, 82, 64
14, 4078, Note_on_c, 12, 82, 0
14, 4080, Note_on_c, 12, 82, 64
14, 4318, Note_on_c, 12, 82, 0
14, 4320, Note_on_c, 12, 81, 64
14, 4498, Note_on_c, 12, 81, 0
14, 4500, Note_on_c, 12, 79, 64
14, 4558, Note_on_c, 12, 79, 0
14, 4560, Note_on_c, 12, 81, 64
14, 4738, Note_on_c, 12, 81, 0
14, 4740, Note_on_c, 12, 82, 64
14, 4798, Note_on_c, 12, 82, 0
14, 4800, Note_on_c, 12, 79, 64
14, 5278, Note_on_c, 12, 79, 0
14, 5520, Note_on_c, 12, 72, 64
14, 5758, Note_on_c, 12, 72, 0
14, 5760, Note_on_c, 12, 82, 64
14, 5998, Note_on_c, 12, 82, 0
14, 6000, Note_on_c, 12, 82, 64
14, 6238, Note_on_c, 12, 82, 0
14, 6240, Note_on_c, 12, 79, 64
14, 6478, Note_on_c, 12, 79, 0
14, 6480, Note_on_c, 12, 79, 64
14, 6718, Note_on_c, 12, 79, 0
14, 6720, Note_on_c, 12, 84, 64
14, 6960, Note_on_c, 12, 82, 64
14, 7038, Note_on_c, 12, 82, 0
14, 7040, Note_on_c, 12, 81, 64
14, 7078, Note_on_c, 12, 84, 0
14, 7118, Note_on_c, 12, 81, 0
14, 7120, Note_on_c, 12, 79, 64
14, 7198, Note_on_c, 12, 79, 0
14, 7200, Note_on_c, 12, 77, 64
14, 7378, Note_on_c, 12, 77, 0
14, 7380, Note_on_c, 12, 79, 64
14, 7438, Note_on_c, 12, 79, 0
14, 7440, Note_on_c, 12, 81, 64
14, 7560, Note_on_c, 12, 77, 64
14, 7618, Note_on_c, 12, 77, 0
14, 7618, Note_on_c, 12, 81, 0
14, 8160, Note_on_c, 12, 72, 64
14, 8338, Note_on_c, 12, 72, 0
14, 8340, Note_on_c, 12, 74, 64
14, 8398, Note_on_c, 12, 74, 0
14, 8400, Note_on_c, 12, 76, 64
14, 8578, Note_on_c, 12, 76, 0
14, 8580, Note_on_c, 12, 72, 64
14, 8638, Note_on_c, 12, 72, 0
14, 8640, Note_on_c, 12, 77, 64
14, 8878, Note_on_c, 12, 77, 0
14, 8880, Note_on_c, 12, 81, 64
14, 9118, Note_on_c, 12, 81, 0
14, 9120, Note_on_c, 12, 77, 64
14, 9358, Note_on_c, 12, 77, 0
14, 20880, Note_on_c, 12, 81, 64
14, 21118, Note_on_c, 12, 81, 0
14, 21120, Note_on_c, 12, 79, 64
14, 21358, Note_on_c, 12, 79, 0
14, 21360, Note_on_c, 12, 76, 64
14, 21598, Note_on_c, 12, 76, 0
14, 21600, Note_on_c, 12, 81, 64
14, 21838, Note_on_c, 12, 81, 0
14, 21840, Note_on_c, 12, 79, 64
14, 22078, Note_on_c, 12, 79, 0
14, 22080, Note_on_c, 12, 76, 64
14, 22318, Note_on_c, 12, 76, 0
14, 22320, Note_on_c, 12, 81, 64
14, 22558, Note_on_c, 12, 81, 0
14, 22560, Note_on_c, 12, 79, 64
14, 23278, Note_on_c, 12, 79, 0
14, 23280, Note_on_c, 12, 84, 64
14, 23518, Note_on_c, 12, 84, 0
14, 23760, Note_on_c, 12, 81, 64
14, 23998, Note_on_c, 12, 81, 0
14, 24000, Note_on_c, 12, 79, 64
14, 24238, Note_on_c, 12, 79, 0
14, 24240, Note_on_c, 12, 76, 64
14, 24478, Note_on_c, 12, 76, 0
14, 24480, Note_on_c, 12, 79, 64
14, 24718, Note_on_c, 12, 79, 0
14, 24720, Note_on_c, 12, 77, 64
14, 24958, Note_on_c, 12, 77, 0
14, 24960, Note_on_c, 12, 74, 64
14, 25198, Note_on_c, 12, 74, 0
14, 25200, Note_on_c, 12, 77, 64
14, 25438, Note_on_c, 12, 77, 0
14, 25440, Note_on_c, 12, 83, 64
14, 25920, Note_on_c, 12, 84, 64
14, 26158, Note_on_c, 12, 84, 0
14, 26158, Note_on_c, 12, 83, 0
14, 47520, Note_on_c, 12, 81, 64
14, 47758, Note_on_c, 12, 81, 0
14, 47760, Note_on_c, 12, 82, 64
14, 47998, Note_on_c, 12, 82, 0
14, 48000, Note_on_c, 12, 79, 64
14, 48238, Note_on_c, 12, 79, 0
14, 48240, Note_on_c, 12, 76, 64
14, 48478, Note_on_c, 12, 76, 0
14, 48480, Note_on_c, 12, 84, 64
14, 48958, Note_on_c, 12, 84, 0
14, 50400, Note_on_c, 12, 81, 64
14, 50638, Note_on_c, 12, 81, 0
14, 50640, Note_on_c, 12, 82, 64
14, 50878, Note_on_c, 12, 82, 0
14, 50880, Note_on_c, 12, 79, 64
14, 51118, Note_on_c, 12, 79, 0
14, 51120, Note_on_c, 12, 76, 64
14, 51358, Note_on_c, 12, 76, 0
14, 51360, Note_on_c, 12, 84, 64
14, 51598, Note_on_c, 12, 84, 0
14, 54960, Note_on_c, 12, 72, 64
14, 55198, Note_on_c, 12, 72, 0
14, 55200, Note_on_c, 12, 77, 64
14, 55438, Note_on_c, 12, 77, 0
14, 55440, Note_on_c, 12, 77, 64
14, 55678, Note_on_c, 12, 77, 0
14, 55680, Note_on_c, 12, 79, 64
14, 55918, Note_on_c, 12, 79, 0
14, 55920, Note_on_c, 12, 79, 64
14, 56158, Note_on_c, 12, 79, 0
14, 56160, Note_on_c, 12, 81, 64
14, 56338, Note_on_c, 12, 81, 0
14, 56340, Note_on_c, 12, 82, 64
14, 56398, Note_on_c, 12, 82, 0
14, 56400, Note_on_c, 12, 81, 64
14, 56578, Note_on_c, 12, 81, 0
14, 56580, Note_on_c, 12, 79, 64
14, 56638, Note_on_c, 12, 79, 0
14, 56640, Note_on_c, 12, 77, 64
14, 56878, Note_on_c, 12, 77, 0
14, 56880, Note_on_c, 12, 77, 64
14, 57118, Note_on_c, 12, 77, 0
14, 57120, Note_on_c, 12, 82, 64
14, 57358, Note_on_c, 12, 82, 0
14, 57360, Note_on_c, 12, 82, 64
14, 57598, Note_on_c, 12, 82, 0
14, 57600, Note_on_c, 12, 81, 64
14, 57778, Note_on_c, 12, 81, 0
14, 57780, Note_on_c, 12, 79, 64
14, 57838, Note_on_c, 12, 79, 0
14, 57840, Note_on_c, 12, 81, 64
14, 58018, Note_on_c, 12, 81, 0
14, 58020, Note_on_c, 12, 82, 64
14, 58078, Note_on_c, 12, 82, 0
14, 58080, Note_on_c, 12, 79, 64
14, 58558, Note_on_c, 12, 79, 0
14, 58800, Note_on_c, 12, 72, 64
14, 59038, Note_on_c, 12, 72, 0
14, 59040, Note_on_c, 12, 82, 64
14, 59278, Note_on_c, 12, 82, 0
14, 59280, Note_on_c, 12, 82, 64
14, 59518, Note_on_c, 12, 82, 0
14, 59520, Note_on_c, 12, 79, 64
14, 59758, Note_on_c, 12, 79, 0
14, 59760, Note_on_c, 12, 79, 64
14, 59998, Note_on_c, 12, 79, 0
14, 60000, Note_on_c, 12, 84, 64
14, 60240, Note_on_c, 12, 82, 64
14, 60318, Note_on_c, 12, 82, 0
14, 60320, Note_on_c, 12, 81, 64
14, 60358, Note_on_c, 12, 84, 0
14, 60398, Note_on_c, 12, 81, 0
14, 60400, Note_on_c, 12, 79, 64
14, 60478, Note_on_c, 12, 79, 0
14, 60480, Note_on_c, 12, 77, 64
14, 60658, Note_on_c, 12, 77, 0
14, 60660, Note_on_c, 12, 79, 64
14, 60718, Note_on_c, 12, 79, 0
14, 60720, Note_on_c, 12, 81, 64
14, 60840, Note_on_c, 12, 77, 64
14, 60898, Note_on_c, 12, 77, 0
14, 60898, Note_on_c, 12, 81, 0
14, 61440, Note_on_c, 12, 72, 64
14, 61618, Note_on_c, 12, 72, 0
14, 61620, Note_on_c, 12, 74, 64
14, 61678, Note_on_c, 12, 74, 0
14, 61680, Note_on_c, 12, 76, 64
14, 61858, Note_on_c, 12, 76, 0
14, 61860, Note_on_c, 12, 72, 64
14, 61918, Note_on_c, 12, 72, 0
14, 61920, Note_on_c, 12, 77, 64
14, 62158, Note_on_c, 12, 77, 0
14, 62160, Note_on_c, 12, 81, 64
14, 62398, Note_on_c, 12, 81, 0
14, 62400, Note_on_c, 12, 77, 64
14, 62638, Note_on_c, 12, 77, 0
14, 74160, Note_on_c, 12, 81, 64
14, 74398, Note_on_c, 12, 81, 0
14, 74400, Note_on_c, 12, 79, 64
14, 74638, Note_on_c, 12, 79, 0
14, 74640, Note_on_c, 12, 76, 64
14, 74878, Note_on_c, 12, 76, 0
14, 74880, Note_on_c, 12, 81, 64
14, 75118, Note_on_c, 12, 81, 0
14, 75120, Note_on_c, 12, 79, 64
14, 75358, Note_on_c, 12, 79, 0
14, 75360, Note_on_c, 12, 76, 64
14, 75598, Note_on_c, 12, 76, 0
14, 75600, Note_on_c, 12, 81, 64
14, 75838, Note_on_c, 12, 81, 0
14, 75840, Note_on_c, 12, 79, 64
14, 76558, Note_on_c, 12, 79, 0
14, 76560, Note_on_c, 12, 84, 64
14, 76798, Note_on_c, 12, 84, 0
14, 77040, Note_on_c, 12, 81, 64
14, 77278, Note_on_c, 12, 81, 0
14, 77280, Note_on_c, 12, 79, 64
14, 77518, Note_on_c, 12, 79, 0
14, 77520, Note_on_c, 12, 76, 64
14, 77758, Note_on_c, 12, 76, 0
14, 77760, Note_on_c, 12, 79, 64
14, 77998, Note_on_c, 12, 79, 0
14, 78000, Note_on_c, 12, 77, 64
14, 78238, Note_on_c, 12, 77, 0
14, 78240, Note_on_c, 12, 74, 64
14, 78478, Note_on_c, 12, 74, 0
14, 78480, Note_on_c, 12, 77, 64
14, 78718, Note_on_c, 12, 77, 0
14, 78720, Note_on_c, 12, 83, 64
14, 79200, Note_on_c, 12, 84, 64
14, 79438, Note_on_c, 12, 84, 0
14, 79438, Note_on_c, 12, 83, 0
14, 100800, Note_on_c, 12, 81, 64
14, 101038, Note_on_c, 12, 81, 0
14, 101040, Note_on_c, 12, 82, 64
14, 101278, Note_on_c, 12, 82, 0
14, 101280, Note_on_c, 12, 79, 64
14, 101518, Note_on_c, 12, 79, 0
14, 101520, Note_on_c, 12, 76, 64
14, 101758, Note_on_c, 12, 76, 0
14, 101760, Note_on_c, 12, 84, 64
14, 102238, Note_on_c, 12, 84, 0
14, 103680, Note_on_c, 12, 81, 64
14, 103918, Note_on_c, 12, 81, 0
14, 103920, Note_on_c, 12, 82, 64
14, 104158, Note_on_c, 12, 82, 0
14, 104160, Note_on_c, 12, 79, 64
14, 104398, Note_on_c, 12, 79, 0
14, 104400, Note_on_c, 12, 76, 64
14, 104638, Note_on_c, 12, 76, 0
14, 104640, Note_on_c, 12, 84, 64
14, 104878, Note_on_c, 12, 84, 0
14, 108240, Note_on_c, 12, 72, 64
14, 108478, Note_on_c, 12, 72, 0
14, 108480, Note_on_c, 12, 77, 64
14, 108718, Note_on_c, 12, 77, 0
14, 108720, Note_on_c, 12, 77, 64
14, 108958, Note_on_c, 12, 77, 0
14, 108960, Note_on_c, 12, 79, 64
14, 109198, Note_on_c, 12, 79, 0
14, 109200, Note_on_c, 12, 79, 64
14, 109438, Note_on_c, 12, 79, 0
14, 109440, Note_on_c, 12, 81, 64
14, 109618, Note_on_c, 12, 81, 0
14, 109620, Note_on_c, 12, 82, 64
14, 109678, Note_on_c, 12, 82, 0
14, 109680, Note_on_c, 12, 81, 64
14, 109858, Note_on_c, 12, 81, 0
14, 109860, Note_on_c, 12, 79, 64
14, 109918, Note_on_c, 12, 79, 0
14, 109920, Note_on_c, 12, 77, 64
14, 110158, Note_on_c, 12, 77, 0
14, 110160, Note_on_c, 12, 77, 64
14, 110398, Note_on_c, 12, 77, 0
14, 110400, Note_on_c, 12, 82, 64
14, 110638, Note_on_c, 12, 82, 0
14, 110640, Note_on_c, 12, 82, 64
14, 110878, Note_on_c, 12, 82, 0
14, 110880, Note_on_c, 12, 81, 64
14, 111058, Note_on_c, 12, 81, 0
14, 111060, Note_on_c, 12, 79, 64
14, 111118, Note_on_c, 12, 79, 0
14, 111120, Note_on_c, 12, 81, 64
14, 111298, Note_on_c, 12, 81, 0
14, 111300, Note_on_c, 12, 82, 64
14, 111358, Note_on_c, 12, 82, 0
14, 111360, Note_on_c, 12, 79, 64
14, 111838, Note_on_c, 12, 79, 0
14, 112080, Note_on_c, 12, 72, 64
14, 112318, Note_on_c, 12, 72, 0
14, 112320, Note_on_c, 12, 82, 64
14, 112558, Note_on_c, 12, 82, 0
14, 112560, Note_on_c, 12, 82, 64
14, 112798, Note_on_c, 12, 82, 0
14, 112800, Note_on_c, 12, 79, 64
14, 113038, Note_on_c, 12, 79, 0
14, 113040, Note_on_c, 12, 79, 64
14, 113278, Note_on_c, 12, 79, 0
14, 113280, Note_on_c, 12, 84, 64
14, 113520, Note_on_c, 12, 82, 64
14, 113598, Note_on_c, 12, 82, 0
14, 113600, Note_on_c, 12, 81, 64
14, 113638, Note_on_c, 12, 84, 0
14, 113678, Note_on_c, 12, 81, 0
14, 113680, Note_on_c, 12, 79, 64
14, 113758, Note_on_c, 12, 79, 0
14, 113760, Note_on_c, 12, 77, 64
14, 113938, Note_on_c, 12, 77, 0
14, 113940, Note_on_c, 12, 79, 64
14, 113998, Note_on_c, 12, 79, 0
14, 114000, Note_on_c, 12, 81, 64
14, 114120, Note_on_c, 12, 77, 64
14, 114178, Note_on_c, 12, 77, 0
14, 114178, Note_on_c, 12, 81, 0
14, 114720, Note_on_c, 12, 72, 64
14, 114898, Note_on_c, 12, 72, 0
14, 114900, Note_on_c, 12, 74, 64
14, 114958, Note_on_c, 12, 74, 0
14, 114960, Note_on_c, 12, 76, 64
14, 115138, Note_on_c, 12, 76, 0
14, 115140, Note_on_c, 12, 72, 64
14, 115198, Note_on_c, 12, 72, 0
14, 115200, Note_on_c, 12, 77, 64
14, 115438, Note_on_c, 12, 77, 0
14, 115440, Note_on_c, 12, 81, 64
14, 115678, Note_on_c, 12, 81, 0
14, 115680, Note_on_c, 12, 77, 64
14, 115918, Note_on_c, 12, 77, 0
14, 127440, Note_on_c, 12, 81, 64
14, 127678, Note_on_c, 12, 81, 0
14, 127680, Note_on_c, 12, 79, 64
14, 127918, Note_on_c, 12, 79, 0
14, 127920, Note_on_c, 12, 76, 64
14, 128158, Note_on_c, 12, 76, 0
14, 128160, Note_on_c, 12, 81, 64
14, 128398, Note_on_c, 12, 81, 0
14, 128400, Note_on_c, 12, 79, 64
14, 128638, Note_on_c, 12, 79, 0
14, 128640, Note_on_c, 12, 76, 64
14, 128878, Note_on_c, 12, 76, 0
14, 128880, Note_on_c, 12, 81, 64
14, 129118, Note_on_c, 12, 81, 0
14, 129120, Note_on_c, 12, 79, 64
14, 129838, Note_on_c, 12, 79, 0
14, 129840, Note_on_c, 12, 84, 64
14, 130078, Note_on_c, 12, 84, 0
14, 130320, Note_on_c, 12, 81, 64
14, 130558, Note_on_c, 12, 81, 0
14, 130560, Note_on_c, 12, 79, 64
14, 130798, Note_on_c, 12, 79, 0
14, 130800, Note_on_c, 12, 76, 64
14, 131038, Note_on_c, 12, 76, 0
14, 131040, Note_on_c, 12, 79, 64
14, 131278, Note_on_c, 12, 79, 0
14, 131280, Note_on_c, 12, 77, 64
14, 131518, Note_on_c, 12, 77, 0
14, 131520, Note_on_c, 12, 74, 64
14, 131758, Note_on_c, 12, 74, 0
14, 131760, Note_on_c, 12, 77, 64
14, 131998, Note_on_c, 12, 77, 0
14, 132000, Note_on_c, 12, 83, 64
14, 132480, Note_on_c, 12, 84, 64
14, 132718, Note_on_c, 12, 84, 0
14, 132718, Note_on_c, 12, 83, 0
14, 154080, Note_on_c, 12, 81, 64
14, 154318, Note_on_c, 12, 81, 0
14, 154320, Note_on_c, 12, 82, 64
14, 154558, Note_on_c, 12, 82, 0
14, 154560, Note_on_c, 12, 79, 64
14, 154798, Note_on_c, 12, 79, 0
14, 154800, Note_on_c, 12, 76, 64
14, 155038, Note_on_c, 12, 76, 0
14, 155040, Note_on_c, 12, 84, 64
14, 155518, Note_on_c, 12, 84, 0
14, 156960, Note_on_c, 12, 81, 64
14, 157198, Note_on_c, 12, 81, 0
14, 157200, Note_on_c, 12, 82, 64
14, 157438, Note_on_c, 12, 82, 0
14, 157440, Note_on_c, 12, 79, 64
14, 157678, Note_on_c, 12, 79, 0
14, 157680, Note_on_c, 12, 76, 64
14, 157918, Note_on_c, 12, 76, 0
14, 157920, Note_on_c, 12, 84, 64
14, 158158, Note_on_c, 12, 84, 0
14, 160080, Note_on_c, 12, 77, 64
14, 160318, Note_on_c, 12, 77, 0
14, 160320, Note_on_c, 12, 77, 64
14, 160558, Note_on_c, 12, 77, 0
14, 160800, Note_on_c, 12, 77, 64
14, 161038, Note_on_c, 12, 77, 0
14, 161040, Note_on_c, 12, 77, 64
14, 161278, Note_on_c, 12, 77, 0
14, 161520, Note_on_c, 12, 76, 64
14, 161758, Note_on_c, 12, 76, 0
14, 161760, Note_on_c, 12, 76, 64
14, 161998, Note_on_c, 12, 76, 0
14, 162000, Note_on_c, 12, 76, 64
14, 162238, Note_on_c, 12, 76, 0
14, 162240, Note_on_c, 12, 77, 64
14, 162478, Note_on_c, 12, 77, 0
14, 162480, Note_on_c, 12, 77, 64
14, 162718, Note_on_c, 12, 77, 0
14, 162720, Note_on_c, 12, 84, 64
14, 162958, Note_on_c, 12, 84, 0
14, 162960, Note_on_c, 12, 81, 64
14, 163198, Note_on_c, 12, 81, 0
14, 163200, Note_on_c, 12, 77, 64
14, 163438, Note_on_c, 12, 77, 0
14, 163440, Note_on_c, 12, 84, 64
14, 163678, Note_on_c, 12, 84, 0
14, 163680, Note_on_c, 12, 81, 64
14, 163918, Note_on_c, 12, 81, 0
14, 163920, Note_on_c, 12, 77, 64
14, 164158, Note_on_c, 12, 77, 0
14, 164160, Note_on_c, 12, 84, 64
14, 164398, Note_on_c, 12, 84, 0
14, 164400, Note_on_c, 12, 82, 64
14, 164638, Note_on_c, 12, 82, 0
14, 164640, Note_on_c, 12, 79, 64
14, 164878, Note_on_c, 12, 79, 0
14, 164880, Note_on_c, 12, 76, 64
14, 165118, Note_on_c, 12, 76, 0
14, 165120, Note_on_c, 12, 77, 64
14, 165358, Note_on_c, 12, 77, 0
14, 165600, Note_on_c, 12, 81, 64
14, 165838, Note_on_c, 12, 81, 0
14, 165840, Note_on_c, 12, 81, 64
14, 166078, Note_on_c, 12, 81, 0
14, 166080, Note_on_c, 12, 81, 64
14, 166318, Note_on_c, 12, 81, 0
14, 166320, Note_on_c, 12, 81, 64
14, 166558, Note_on_c, 12, 81, 0
14, 166560, Note_on_c, 12, 81, 64
14, 166798, Note_on_c, 12, 81, 0
14, 166800, Note_on_c, 12, 81, 64
14, 167038, Note_on_c, 12, 81, 0
14, 167040, Note_on_c, 12, 81, 64
14, 167278, Note_on_c, 12, 81, 0
14, 167280, Note_on_c, 12, 79, 64
14, 167518, Note_on_c, 12, 79, 0
14, 167520, Note_on_c, 12, 79, 64
14, 167758, Note_on_c, 12, 79, 0
14, 167760, Note_on_c, 12, 79, 64
14, 167998, Note_on_c, 12, 79, 0
14, 168000, Note_on_c, 12, 81, 64
14, 168238, Note_on_c, 12, 81, 0
14, 168480, Note_on_c, 12, 84, 64
14, 168718, Note_on_c, 12, 84, 0
14, 168720, Note_on_c, 12, 84, 64
14, 168958, Note_on_c, 12, 84, 0
14, 168960, Note_on_c, 12, 84, 64
14, 169198, Note_on_c, 12, 84, 0
14, 169200, Note_on_c, 12, 84, 64
14, 169438, Note_on_c, 12, 84, 0
14, 169440, Note_on_c, 12, 84, 64
14, 169678, Note_on_c, 12, 84, 0
14, 169680, Note_on_c, 12, 84, 64
14, 169918, Note_on_c, 12, 84, 0
14, 169920, Note_on_c, 12, 84, 64
14, 170158, Note_on_c, 12, 84, 0
14, 170160, Note_on_c, 12, 82, 64
14, 170398, Note_on_c, 12, 82, 0
14, 170400, Note_on_c, 12, 82, 64
14, 170638, Note_on_c, 12, 82, 0
14, 170640, Note_on_c, 12, 79, 64
14, 170878, Note_on_c, 12, 79, 0
14, 170880, Note_on_c, 12, 77, 64
14, 171358, Note_on_c, 12, 77, 0
14, 171358, End_track
15, 0, Start_track
15, 0, MIDI_port, 0
15, 0, Title_t, "Bassoon 1"
15, 0, Program_c, 13, 70
15, 0, Control_c, 13, 7, 110
15, 0, Control_c, 13, 10, 112
15, 1920, Note_on_c, 13, 60, 64
15, 2158, Note_on_c, 13, 60, 0
15, 2400, Note_on_c, 13, 60, 64
15, 2638, Note_on_c, 13, 60, 0
15, 2880, Note_on_c, 13, 60, 64
15, 3358, Note_on_c, 13, 60, 0
15, 3600, Note_on_c, 13, 60, 64
15, 3838, Note_on_c, 13, 60, 0
15, 3840, Note_on_c, 13, 60, 64
15, 4078, Note_on_c, 13, 60, 0
15, 4320, Note_on_c, 13, 60, 64
15, 4558, Note_on_c, 13, 60, 0
15, 4800, Note_on_c, 13, 60, 64
15, 5278, Note_on_c, 13, 60, 0
15, 5760, Note_on_c, 13, 60, 64
15, 5998, Note_on_c, 13, 60, 0
15, 6240, Note_on_c, 13, 58, 64
15, 6478, Note_on_c, 13, 58, 0
15, 6720, Note_on_c, 13, 57, 64
15, 7198, Note_on_c, 13, 57, 0
15, 7680, Note_on_c, 13, 58, 64
15, 7918, Note_on_c, 13, 58, 0
15, 8160, Note_on_c, 13, 60, 64
15, 8398, Note_on_c, 13, 60, 0
15, 8640, Note_on_c, 13, 53, 64
15, 8878, Note_on_c, 13, 53, 0
15, 8880, Note_on_c, 13, 53, 64
15, 9118, Note_on_c, 13, 53, 0
15, 9120, Note_on_c, 13, 53, 64
15, 9358, Note_on_c, 13, 53, 0
15, 21120, Note_on_c, 13, 60, 64
15, 21598, Note_on_c, 13, 60, 0
15, 21840, Note_on_c, 13, 60, 64
15, 22318, Note_on_c, 13, 60, 0
15, 22560, Note_on_c, 13, 60, 64
15, 22798, Note_on_c, 13, 60, 0
15, 22800, Note_on_c, 13, 60, 64
15, 23038, Note_on_c, 13, 60, 0
15, 23040, Note_on_c, 13, 60, 64
15, 23278, Note_on_c, 13, 60, 0
15, 23280, Note_on_c, 13, 60, 64
15, 23518, Note_on_c, 13, 60, 0
15, 24000, Note_on_c, 13, 60, 64
15, 24478, Note_on_c, 13, 60, 0
15, 24720, Note_on_c, 13, 55, 64
15, 25198, Note_on_c, 13, 55, 0
15, 25440, Note_on_c, 13, 55, 64
15, 25678, Note_on_c, 13, 55, 0
15, 25680, Note_on_c, 13, 55, 64
15, 25918, Note_on_c, 13, 55, 0
15, 25920, Note_on_c, 13, 55, 64
15, 26158, Note_on_c, 13, 55, 0
15, 26160, Note_on_c, 13, 48, 64
15, 26398, Note_on_c, 13, 48, 0
15, 32400, Note_on_c, 13, 60, 64
15, 32638, Note_on_c, 13, 60, 0
15, 32640, Note_on_c, 13, 60, 64
15, 32878, Note_on_c, 13, 60, 0
15, 32880, Note_on_c, 13, 59, 64
15, 33118, Note_on_c, 13, 59, 0
15, 33120, Note_on_c, 13, 58, 64
15, 33358, Note_on_c, 13, 58, 0
15, 33360, Note_on_c, 13, 57, 64
15, 33598, Note_on_c, 13, 57, 0
15, 33600, Note_on_c, 13, 55, 64
15, 33838, Note_on_c, 13, 55, 0
15, 33840, Note_on_c, 13, 53, 64
15, 34078, Note_on_c, 13, 53, 0
15, 34080, Note_on_c, 13, 52, 64
15, 35038, Note_on_c, 13, 52, 0
15, 42960, Note_on_c, 13, 65, 64
15, 43198, Note_on_c, 13, 65, 0
15, 43200, Note_on_c, 13, 65, 64
15, 43438, Note_on_c, 13, 65, 0
15, 43440, Note_on_c, 13, 65, 64
15, 43678, Note_on_c, 13, 65, 0
15, 43680, Note_on_c, 13, 64, 64
15, 43918, Note_on_c, 13, 64, 0
15, 43920, Note_on_c, 13, 63, 64
15, 44158, Note_on_c, 13, 63, 0
15, 44160, Note_on_c, 13, 62, 64
15, 44878, Note_on_c, 13, 62, 0
15, 55200, Note_on_c, 13, 60, 64
15, 55438, Note_on_c, 13, 60, 0
15, 55680, Note_on_c, 13, 60, 64
15, 55918, Note_on_c, 13, 60, 0
15, 56160, Note_on_c, 13, 60, 64
15, 56638, Note_on_c, 13, 60, 0
15, 56880, Note_on_c, 13, 60, 64
15, 57118, Note_on_c, 13, 60, 0
15, 57120, Note_on_c, 13, 60, 64
15, 57358, Note_on_c, 13, 60, 0
15, 57600, Note_on_c, 13, 60, 64
15, 57838, Note_on_c, 13, 60, 0
15, 58080, Note_on_c, 13, 60, 64
15, 58558, Note_on_c, 13, 60, 0
15, 59040, Note_on_c, 13, 60, 64
15, 59278, Note_on_c, 13, 60, 0
15, 59520, Note_on_c, 13, 58, 64
15, 59758, Note_on_c, 13, 58, 0
15, 60000, Note_on_c, 13, 57, 64
15, 60478, Note_on_c, 13, 57, 0
15, 60960, Note_on_c, 13, 58, 64
15, 61198, Note_on_c, 13, 58, 0
15, 61440, Note_on_c, 13, 60, 64
15, 61678, Note_on_c, 13, 60, 0
15, 61920, Note_on_c, 13, 53, 64
15, 62158, Note_on_c, 13, 53, 0
15, 62160, Note_on_c, 13, 53, 64
15, 62398, Note_on_c, 13, 53, 0
15, 62400, Note_on_c, 13, 53, 64
15, 62638, Note_on_c, 13, 53, 0
15, 74400, Note_on_c, 13, 60, 64
15, 74878, Note_on_c, 13, 60, 0
15, 75120, Note_on_c, 13, 60, 64
15, 75598, Note_on_c, 13, 60, 0
15, 75840, Note_on_c, 13, 60, 64
15, 76078, Note_on_c, 13, 60, 0
15, 76080, Note_on_c, 13, 60, 64
15, 76318, Note_on_c, 13, 60, 0
15, 76320, Note_on_c, 13, 60, 64
15, 76558, Note_on_c, 13, 60, 0
15, 76560, Note_on_c, 13, 60, 64
15, 76798, Note_on_c, 13, 60, 0
15, 77280, Note_on_c, 13, 60, 64
15, 77758, Note_on_c, 13, 60, 0
15, 78000, Note_on_c, 13, 55, 64
15, 78478, Note_on_c, 13, 55, 0
15, 78720, Note_on_c, 13, 55, 64
15, 78958, Note_on_c, 13, 55, 0
15, 78960, Note_on_c, 13, 55, 64
15, 79198, Note_on_c, 13, 55, 0
15, 79200, Note_on_c, 13, 55, 64
15, 79438, Note_on_c, 13, 55, 0
15, 79440, Note_on_c, 13, 48, 64
15, 79678, Note_on_c, 13, 48, 0
15, 85680, Note_on_c, 13, 60, 64
15, 85918, Note_on_c, 13, 60, 0
15, 85920, Note_on_c, 13, 60, 64
15, 86158, Note_on_c, 13, 60, 0
15, 86160, Note_on_c, 13, 59, 64
15, 86398, Note_on_c, 13, 59, 0
15, 86400, Note_on_c, 13, 58, 64
15, 86638, Note_on_c, 13, 58, 0
15, 86640, Note_on_c, 13, 57, 64
15, 86878, Note_on_c, 13, 57, 0
15, 86880, Note_on_c, 13, 55, 64
15, 87118, Note_on_c, 13, 55, 0
15, 87120, Note_on_c, 13, 53, 64
15, 87358, Note_on_c, 13, 53, 0
15, 87360, Note_on_c, 13, 52, 64
15, 88318, Note_on_c, 13, 52, 0
15, 96240, Note_on_c, 13, 65, 64
15, 96478, Note_on_c, 13, 65, 0
15, 96480, Note_on_c, 13, 65, 64
15, 96718, Note_on_c, 13, 65, 0
15, 96720, Note_on_c, 13, 65, 64
15, 96958, Note_on_c, 13, 65, 0
15, 96960, Note_on_c, 13, 64, 64
15, 97198, Note_on_c, 13, 64, 0
15, 97200, Note_on_c, 13, 63, 64
15, 97438, Note_on_c, 13, 63, 0
15, 97440, Note_on_c, 13, 62, 64
15, 98158, Note_on_c, 13, 62, 0
15, 108480, Note_on_c, 13, 60, 64
15, 108718, Note_on_c, 13, 60, 0
15, 108960, Note_on_c, 13, 60, 64
15, 109198, Note_on_c, 13, 60, 0
15, 109440, Note_on_c, 13, 60, 64
15, 109918, Note_on_c, 13, 60, 0
15, 110160, Note_on_c, 13, 60, 64
15, 110398, Note_on_c, 13, 60, 0
15, 110400, Note_on_c, 13, 60, 64
15, 110638, Note_on_c, 13, 60, 0
15, 110880, Note_on_c, 13, 60, 64
15, 111118, Note_on_c, 13, 60, 0
15, 111360, Note_on_c, 13, 60, 64
15, 111838, Note_on_c, 13, 60, 0
15, 112320, Note_on_c, 13, 60, 64
15, 112558, Note_on_c, 13, 60, 0
15, 112800, Note_on_c, 13, 58, 64
15, 113038, Note_on_c, 13, 58, 0
15, 113280, Note_on_c, 13, 57, 64
15, 113758, Note_on_c, 13, 57, 0
15, 114240, Note_on_c, 13, 58, 64
15, 114478, Note_on_c, 13, 58, 0
15, 114720, Note_on_c, 13, 60, 64
15, 114958, Note_on_c, 13, 60, 0
15, 115200, Note_on_c, 13, 53, 64
15, 115438, Note_on_c, 13, 53, 0
15, 115440, Note_on_c, 13, 53, 64
15, 115678, Note_on_c, 13, 53, 0
15, 115680, Note_on_c, 13, 53, 64
15, 115918, Note_on_c, 13, 53, 0
15, 127680, Note_on_c, 13, 60, 64
15, 128158, Note_on_c, 13, 60, 0
15, 128400, Note_on_c, 13, 60, 64
15, 128878, Note_on_c, 13, 60, 0
15, 129120, Note_on_c, 13, 60, 64
15, 129358, Note_on_c, 13, 60, 0
15, 129360, Note_on_c, 13, 60, 64
15, 129598, Note_on_c, 13, 60, 0
15, 129600, Note_on_c, 13, 60, 64
15, 129838, Note_on_c, 13, 60, 0
15, 129840, Note_on_c, 13, 60, 64
15, 130078, Note_on_c, 13, 60, 0
15, 130560, Note_on_c, 13, 60, 64
15, 131038, Note_on_c, 13, 60, 0
15, 131280, Note_on_c, 13, 55, 64
15, 131758, Note_on_c, 13, 55, 0
15, 132000, Note_on_c, 13, 55, 64
15, 132238, Note_on_c, 13, 55, 0
15, 132240, Note_on_c, 13, 55, 64
15, 132478, Note_on_c, 13, 55, 0
15, 132480, Note_on_c, 13, 55, 64
15, 132718, Note_on_c, 13, 55, 0
15, 132720, Note_on_c, 13, 48, 64
15, 132958, Note_on_c, 13, 48, 0
15, 138960, Note_on_c, 13, 60, 64
15, 139198, Note_on_c, 13, 60, 0
15, 139200, Note_on_c, 13, 60, 64
15, 139438, Note_on_c, 13, 60, 0
15, 139440, Note_on_c, 13, 59, 64
15, 139678, Note_on_c, 13, 59, 0
15, 139680, Note_on_c, 13, 58, 64
15, 139918, Note_on_c, 13, 58, 0
15, 139920, Note_on_c, 13, 57, 64
15, 140158, Note_on_c, 13, 57, 0
15, 140160, Note_on_c, 13, 55, 64
15, 140398, Note_on_c, 13, 55, 0
15, 140400, Note_on_c, 13, 53, 64
15, 140638, Note_on_c, 13, 53, 0
15, 140640, Note_on_c, 13, 52, 64
15, 141598, Note_on_c, 13, 52, 0
15, 149520, Note_on_c, 13, 65, 64
15, 149758, Note_on_c, 13, 65, 0
15, 149760, Note_on_c, 13, 65, 64
15, 149998, Note_on_c, 13, 65, 0
15, 150000, Note_on_c, 13, 65, 64
15, 150238, Note_on_c, 13, 65, 0
15, 150240, Note_on_c, 13, 64, 64
15, 150478, Note_on_c, 13, 64, 0
15, 150480, Note_on_c, 13, 63, 64
15, 150718, Note_on_c, 13, 63, 0
15, 150720, Note_on_c, 13, 62, 64
15, 151438, Note_on_c, 13, 62, 0
15, 160080, Note_on_c, 13, 65, 64
15, 160318, Note_on_c, 13, 65, 0
15, 160320, Note_on_c, 13, 65, 64
15, 160558, Note_on_c, 13, 65, 0
15, 160800, Note_on_c, 13, 65, 64
15, 161038, Note_on_c, 13, 65, 0
15, 161040, Note_on_c, 13, 65, 64
15, 161278, Note_on_c, 13, 65, 0
15, 161520, Note_on_c, 13, 60, 64
15, 161758, Note_on_c, 13, 60, 0
15, 161760, Note_on_c, 13, 60, 64
15, 161998, Note_on_c, 13, 60, 0
15, 162000, Note_on_c, 13, 60, 64
15, 162238, Note_on_c, 13, 60, 0
15, 162240, Note_on_c, 13, 60, 64
15, 162478, Note_on_c, 13, 60, 0
15, 162480, Note_on_c, 13, 60, 64
15, 162718, Note_on_c, 13, 60, 0
15, 162960, Note_on_c, 13, 60, 64
15, 163198, Note_on_c, 13, 60, 0
15, 163200, Note_on_c, 13, 60, 64
15, 163438, Note_on_c, 13, 60, 0
15, 163680, Note_on_c, 13, 60, 64
15, 163918, Note_on_c, 13, 60, 0
15, 163920, Note_on_c, 13, 60, 64
15, 164158, Note_on_c, 13, 60, 0
15, 164400, Note_on_c, 13, 60, 64
15, 164638, Note_on_c, 13, 60, 0
15, 164640, Note_on_c, 13, 60, 64
15, 164878, Note_on_c, 13, 60, 0
15, 164880, Note_on_c, 13, 60, 64
15, 165118, Note_on_c, 13, 60, 0
15, 165120, Note_on_c, 13, 60, 64
15, 165358, Note_on_c, 13, 60, 0
15, 165358, End_track
16, 0, Start_track
16, 0, MIDI_port, 0
16, 0, Title_t, "Bassoon 2"
16, 0, Program_c, 14, 70
16, 0, Control_c, 14, 7, 110
16, 0, Control_c, 14, 10, 104
16, 30, Control_c, 14, 91, 40
16, 35, Control_c, 14, 93, 0
16, 40, Control_c, 14, 101, 0
16, 45, Control_c, 14, 100, 0
16, 50, Control_c, 14, 6, 2
16, 1920, Note_on_c, 14, 53, 64
16, 2158, Note_on_c, 14, 53, 0
16, 2400, Note_on_c, 14, 48, 64
16, 2638, Note_on_c, 14, 48, 0
16, 2880, Note_on_c, 14, 53, 64
16, 3358, Note_on_c, 14, 53, 0
16, 3600, Note_on_c, 14, 53, 64
16, 3838, Note_on_c, 14, 53, 0
16, 3840, Note_on_c, 14, 52, 64
16, 4078, Note_on_c, 14, 52, 0
16, 4320, Note_on_c, 14, 53, 64
16, 4558, Note_on_c, 14, 53, 0
16, 4800, Note_on_c, 14, 48, 64
16, 5278, Note_on_c, 14, 48, 0
16, 5760, Note_on_c, 14, 48, 64
16, 5998, Note_on_c, 14, 48, 0
16, 6240, Note_on_c, 14, 46, 64
16, 6478, Note_on_c, 14, 46, 0
16, 6720, Note_on_c, 14, 45, 64
16, 7198, Note_on_c, 14, 45, 0
16, 7680, Note_on_c, 14, 46, 64
16, 7918, Note_on_c, 14, 46, 0
16, 8160, Note_on_c, 14, 48, 64
16, 8398, Note_on_c, 14, 48, 0
16, 8640, Note_on_c, 14, 41, 64
16, 8878, Note_on_c, 14, 41, 0
16, 8880, Note_on_c, 14, 41, 64
16, 9118, Note_on_c, 14, 41, 0
16, 9120, Note_on_c, 14, 41, 64
16, 9358, Note_on_c, 14, 41, 0
16, 21120, Note_on_c, 14, 48, 64
16, 21598, Note_on_c, 14, 48, 0
16, 21840, Note_on_c, 14, 48, 64
16, 22318, Note_on_c, 14, 48, 0
16, 22560, Note_on_c, 14, 48, 64
16, 22798, Note_on_c, 14, 48, 0
16, 22800, Note_on_c, 14, 48, 64
16, 23038, Note_on_c, 14, 48, 0
16, 23040, Note_on_c, 14, 48, 64
16, 23278, Note_on_c, 14, 48, 0
16, 23280, Note_on_c, 14, 48, 64
16, 23518, Note_on_c, 14, 48, 0
16, 24000, Note_on_c, 14, 48, 64
16, 24478, Note_on_c, 14, 48, 0
16, 24720, Note_on_c, 14, 43, 64
16, 25198, Note_on_c, 14, 43, 0
16, 25440, Note_on_c, 14, 55, 64
16, 25678, Note_on_c, 14, 55, 0
16, 25680, Note_on_c, 14, 55, 64
16, 25918, Note_on_c, 14, 55, 0
16, 25920, Note_on_c, 14, 55, 64
16, 26158, Note_on_c, 14, 55, 0
16, 26160, Note_on_c, 14, 48, 64
16, 26398, Note_on_c, 14, 48, 0
16, 42960, Note_on_c, 14, 65, 64
16, 43198, Note_on_c, 14, 65, 0
16, 43200, Note_on_c, 14, 65, 64
16, 43438, Note_on_c, 14, 65, 0
16, 43440, Note_on_c, 14, 65, 64
16, 43678, Note_on_c, 14, 65, 0
16, 43680, Note_on_c, 14, 64, 64
16, 43918, Note_on_c, 14, 64, 0
16, 43920, Note_on_c, 14, 63, 64
16, 44158, Note_on_c, 14, 63, 0
16, 44160, Note_on_c, 14, 62, 64
16, 44878, Note_on_c, 14, 62, 0
16, 55200, Note_on_c, 14, 53, 64
16, 55438, Note_on_c, 14, 53, 0
16, 55680, Note_on_c, 14, 48, 64
16, 55918, Note_on_c, 14, 48, 0
16, 56160, Note_on_c, 14, 53, 64
16, 56638, Note_on_c, 14, 53, 0
16, 56880, Note_on_c, 14, 53, 64
16, 57118, Note_on_c, 14, 53, 0
16, 57120, Note_on_c, 14, 52, 64
16, 57358, Note_on_c, 14, 52, 0
16, 57600, Note_on_c, 14, 53, 64
16, 57838, Note_on_c, 14, 53, 0
16, 58080, Note_on_c, 14, 48, 64
16, 58558, Note_on_c, 14, 48, 0
16, 59040, Note_on_c, 14, 48, 64
16, 59278, Note_on_c, 14, 48, 0
16, 59520, Note_on_c, 14, 46, 64
16, 59758, Note_on_c, 14, 46, 0
16, 60000, Note_on_c, 14, 45, 64
16, 60478, Note_on_c, 14, 45, 0
16, 60960, Note_on_c, 14, 46, 64
16, 61198, Note_on_c, 14, 46, 0
16, 61440, Note_on_c, 14, 48, 64
16, 61678, Note_on_c, 14, 48, 0
16, 61920, Note_on_c, 14, 41, 64
16, 62158, Note_on_c, 14, 41, 0
16, 62160, Note_on_c, 14, 41, 64
16, 62398, Note_on_c, 14, 41, 0
16, 62400, Note_on_c, 14, 41, 64
16, 62638, Note_on_c, 14, 41, 0
16, 74400, Note_on_c, 14, 48, 64
16, 74878, Note_on_c, 14, 48, 0
16, 75120, Note_on_c, 14, 48, 64
16, 75598, Note_on_c, 14, 48, 0
16, 75840, Note_on_c, 14, 48, 64
16, 76078, Note_on_c, 14, 48, 0
16, 76080, Note_on_c, 14, 48, 64
16, 76318, Note_on_c, 14, 48, 0
16, 76320, Note_on_c, 14, 48, 64
16, 76558, Note_on_c, 14, 48, 0
16, 76560, Note_on_c, 14, 48, 64
16, 76798, Note_on_c, 14, 48, 0
16, 77280, Note_on_c, 14, 48, 64
16, 77758, Note_on_c, 14, 48, 0
16, 78000, Note_on_c, 14, 43, 64
16, 78478, Note_on_c, 14, 43, 0
16, 78720, Note_on_c, 14, 55, 64
16, 78958, Note_on_c, 14, 55, 0
16, 78960, Note_on_c, 14, 55, 64
16, 79198, Note_on_c, 14, 55, 0
16, 79200, Note_on_c, 14, 55, 64
16, 79438, Note_on_c, 14, 55, 0
16, 79440, Note_on_c, 14, 48, 64
16, 79678, Note_on_c, 14, 48, 0
16, 96240, Note_on_c, 14, 65, 64
16, 96478, Note_on_c, 14, 65, 0
16, 96480, Note_on_c, 14, 65, 64
16, 96718, Note_on_c, 14, 65, 0
16, 96720, Note_on_c, 14, 65, 64
16, 96958, Note_on_c, 14, 65, 0
16, 96960, Note_on_c, 14, 64, 64
16, 97198, Note_on_c, 14, 64, 0
16, 97200, Note_on_c, 14, 63, 64
16, 97438, Note_on_c, 14, 63, 0
16, 97440, Note_on_c, 14, 62, 64
16, 98158, Note_on_c, 14, 62, 0
16, 108480, Note_on_c, 14, 53, 64
16, 108718, Note_on_c, 14, 53, 0
16, 108960, Note_on_c, 14, 48, 64
16, 109198, Note_on_c, 14, 48, 0
16, 109440, Note_on_c, 14, 53, 64
16, 109918, Note_on_c, 14, 53, 0
16, 110160, Note_on_c, 14, 53, 64
16, 110398, Note_on_c, 14, 53, 0
16, 110400, Note_on_c, 14, 52, 64
16, 110638, Note_on_c, 14, 52, 0
16, 110880, Note_on_c, 14, 53, 64
16, 111118, Note_on_c, 14, 53, 0
16, 111360, Note_on_c, 14, 48, 64
16, 111838, Note_on_c, 14, 48, 0
16, 112320, Note_on_c, 14, 48, 64
16, 112558, Note_on_c, 14, 48, 0
16, 112800, Note_on_c, 14, 46, 64
16, 113038, Note_on_c, 14, 46, 0
16, 113280, Note_on_c, 14, 45, 64
16, 113758, Note_on_c, 14, 45, 0
16, 114240, Note_on_c, 14, 46, 64
16, 114478, Note_on_c, 14, 46, 0
16, 114720, Note_on_c, 14, 48, 64
16, 114958, Note_on_c, 14, 48, 0
16, 115200, Note_on_c, 14, 41, 64
16, 115438, Note_on_c, 14, 41, 0
16, 115440, Note_on_c, 14, 41, 64
16, 115678, Note_on_c, 14, 41, 0
16, 115680, Note_on_c, 14, 41, 64
16, 115918, Note_on_c, 14, 41, 0
16, 127680, Note_on_c, 14, 48, 64
16, 128158, Note_on_c, 14, 48, 0
16, 128400, Note_on_c, 14, 48, 64
16, 128878, Note_on_c, 14, 48, 0
16, 129120, Note_on_c, 14, 48, 64
16, 129358, Note_on_c, 14, 48, 0
16, 129360, Note_on_c, 14, 48, 64
16, 129598, Note_on_c, 14, 48, 0
16, 129600, Note_on_c, 14, 48, 64
16, 129838, Note_on_c, 14, 48, 0
16, 129840, Note_on_c, 14, 48, 64
16, 130078, Note_on_c, 14, 48, 0
16, 130560, Note_on_c, 14, 48, 64
16, 131038, Note_on_c, 14, 48, 0
16, 131280, Note_on_c, 14, 43, 64
16, 131758, Note_on_c, 14, 43, 0
16, 132000, Note_on_c, 14, 55, 64
16, 132238, Note_on_c, 14, 55, 0
16, 132240, Note_on_c, 14, 55, 64
16, 132478, Note_on_c, 14, 55, 0
16, 132480, Note_on_c, 14, 55, 64
16, 132718, Note_on_c, 14, 55, 0
16, 132720, Note_on_c, 14, 48, 64
16, 132958, Note_on_c, 14, 48, 0
16, 149520, Note_on_c, 14, 65, 64
16, 149758, Note_on_c, 14, 65, 0
16, 149760, Note_on_c, 14, 65, 64
16, 149998, Note_on_c, 14, 65, 0
16, 150000, Note_on_c, 14, 65, 64
16, 150238, Note_on_c, 14, 65, 0
16, 150240, Note_on_c, 14, 64, 64
16, 150478, Note_on_c, 14, 64, 0
16, 150480, Note_on_c, 14, 63, 64
16, 150718, Note_on_c, 14, 63, 0
16, 150720, Note_on_c, 14, 62, 64
16, 151438, Note_on_c, 14, 62, 0
16, 160080, Note_on_c, 14, 53, 64
16, 160318, Note_on_c, 14, 53, 0
16, 160320, Note_on_c, 14, 53, 64
16, 160558, Note_on_c, 14, 53, 0
16, 160800, Note_on_c, 14, 53, 64
16, 161038, Note_on_c, 14, 53, 0
16, 161040, Note_on_c, 14, 53, 64
16, 161278, Note_on_c, 14, 53, 0
16, 161520, Note_on_c, 14, 48, 64
16, 161758, Note_on_c, 14, 48, 0
16, 161760, Note_on_c, 14, 48, 64
16, 161998, Note_on_c, 14, 48, 0
16, 162000, Note_on_c, 14, 48, 64
16, 162238, Note_on_c, 14, 48, 0
16, 162240, Note_on_c, 14, 53, 64
16, 162478, Note_on_c, 14, 53, 0
16, 162480, Note_on_c, 14, 53, 64
16, 162718, Note_on_c, 14, 53, 0
16, 162960, Note_on_c, 14, 53, 64
16, 163198, Note_on_c, 14, 53, 0
16, 163200, Note_on_c, 14, 53, 64
16, 163438, Note_on_c, 14, 53, 0
16, 163680, Note_on_c, 14, 53, 64
16, 163918, Note_on_c, 14, 53, 0
16, 163920, Note_on_c, 14, 53, 64
16, 164158, Note_on_c, 14, 53, 0
16, 164400, Note_on_c, 14, 48, 64
16, 164638, Note_on_c, 14, 48, 0
16, 164640, Note_on_c, 14, 48, 64
16, 164878, Note_on_c, 14, 48, 0
16, 164880, Note_on_c, 14, 48, 64
16, 165118, Note_on_c, 14, 48, 0
16, 165120, Note_on_c, 14, 53, 64
16, 165358, Note_on_c, 14, 53, 0
16, 165600, Note_on_c, 14, 53, 64
16, 165838, Note_on_c, 14, 53, 0
16, 165840, Note_on_c, 14, 53, 64
16, 166078, Note_on_c, 14, 53, 0
16, 166080, Note_on_c, 14, 53, 64
16, 166318, Note_on_c, 14, 53, 0
16, 166320, Note_on_c, 14, 53, 64
16, 166558, Note_on_c, 14, 53, 0
16, 166560, Note_on_c, 14, 53, 64
16, 166798, Note_on_c, 14, 53, 0
16, 166800, Note_on_c, 14, 53, 64
16, 167038, Note_on_c, 14, 53, 0
16, 167040, Note_on_c, 14, 53, 64
16, 167278, Note_on_c, 14, 53, 0
16, 167280, Note_on_c, 14, 48, 64
16, 167518, Note_on_c, 14, 48, 0
16, 167520, Note_on_c, 14, 48, 64
16, 167758, Note_on_c, 14, 48, 0
16, 167760, Note_on_c, 14, 48, 64
16, 167998, Note_on_c, 14, 48, 0
16, 168000, Note_on_c, 14, 53, 64
16, 168238, Note_on_c, 14, 53, 0
16, 168480, Note_on_c, 14, 53, 64
16, 168718, Note_on_c, 14, 53, 0
16, 168720, Note_on_c, 14, 53, 64
16, 168958, Note_on_c, 14, 53, 0
16, 168960, Note_on_c, 14, 53, 64
16, 169198, Note_on_c, 14, 53, 0
16, 169200, Note_on_c, 14, 53, 64
16, 169438, Note_on_c, 14, 53, 0
16, 169440, Note_on_c, 14, 53, 64
16, 169678, Note_on_c, 14, 53, 0
16, 169680, Note_on_c, 14, 53, 64
16, 169918, Note_on_c, 14, 53, 0
16, 169920, Note_on_c, 14, 53, 64
16, 170158, Note_on_c, 14, 53, 0
16, 170160, Note_on_c, 14, 48, 64
16, 170398, Note_on_c, 14, 48, 0
16, 170400, Note_on_c, 14, 48, 64
16, 170638, Note_on_c, 14, 48, 0
16, 170640, Note_on_c, 14, 48, 64
16, 170878, Note_on_c, 14, 48, 0
16, 170880, Note_on_c, 14, 41, 64
16, 171358, Note_on_c, 14, 41, 0
16, 171358, End_track
17, 0, Start_track
17, 0, MIDI_port, 0
17, 0, Title_t, "Horns 2 in F"
17, 0, Program_c, 15, 60
17, 0, Control_c, 15, 7, 110
17, 0, Control_c, 15, 10, 32
17, 280, Control_c, 15, 91, 40
17, 285, Control_c, 15, 93, 0
17, 1680, Note_on_c, 15, 60, 64
17, 1918, Note_on_c, 15, 60, 0
17, 1920, Note_on_c, 15, 57, 64
17, 2158, Note_on_c, 15, 57, 0
17, 2160, Note_on_c, 15, 57, 64
17, 2398, Note_on_c, 15, 57, 0
17, 2400, Note_on_c, 15, 60, 64
17, 2638, Note_on_c, 15, 60, 0
17, 2640, Note_on_c, 15, 60, 64
17, 2878, Note_on_c, 15, 60, 0
17, 2880, Note_on_c, 15, 65, 64
17, 3358, Note_on_c, 15, 65, 0
17, 3600, Note_on_c, 15, 65, 64
17, 3838, Note_on_c, 15, 65, 0
17, 3840, Note_on_c, 15, 67, 64
17, 4078, Note_on_c, 15, 67, 0
17, 4080, Note_on_c, 15, 67, 64
17, 4318, Note_on_c, 15, 67, 0
17, 4320, Note_on_c, 15, 65, 64
17, 4558, Note_on_c, 15, 65, 0
17, 4560, Note_on_c, 15, 65, 64
17, 4798, Note_on_c, 15, 65, 0
17, 4800, Note_on_c, 15, 60, 64
17, 5278, Note_on_c, 15, 60, 0
17, 5520, Note_on_c, 15, 60, 64
17, 5758, Note_on_c, 15, 60, 0
17, 5760, Note_on_c, 15, 67, 64
17, 5998, Note_on_c, 15, 67, 0
17, 6000, Note_on_c, 15, 67, 64
17, 6238, Note_on_c, 15, 67, 0
17, 6240, Note_on_c, 15, 60, 64
17, 6478, Note_on_c, 15, 60, 0
17, 6480, Note_on_c, 15, 60, 64
17, 6718, Note_on_c, 15, 60, 0
17, 6720, Note_on_c, 15, 69, 64
17, 7198, Note_on_c, 15, 69, 0
17, 7680, Note_on_c, 15, 67, 64
17, 7918, Note_on_c, 15, 67, 0
17, 8160, Note_on_c, 15, 60, 64
17, 8398, Note_on_c, 15, 60, 0
17, 8640, Note_on_c, 15, 57, 64
17, 8878, Note_on_c, 15, 57, 0
17, 8880, Note_on_c, 15, 60, 64
17, 9118, Note_on_c, 15, 60, 0
17, 9120, Note_on_c, 15, 57, 64
17, 9358, Note_on_c, 15, 57, 0
17, 17040, Note_on_c, 15, 60, 64
17, 17278, Note_on_c, 15, 60, 0
17, 17280, Note_on_c, 15, 65, 64
17, 17638, Note_on_c, 15, 65, 0
17, 17640, Note_on_c, 15, 69, 64
17, 17758, Note_on_c, 15, 69, 0
17, 17760, Note_on_c, 15, 69, 64
17, 17878, Note_on_c, 15, 69, 0
17, 17880, Note_on_c, 15, 67, 64
17, 17998, Note_on_c, 15, 67, 0
17, 18000, Note_on_c, 15, 65, 64
17, 18118, Note_on_c, 15, 65, 0
17, 18120, Note_on_c, 15, 60, 64
17, 18238, Note_on_c, 15, 60, 0
17, 18240, Note_on_c, 15, 57, 64
17, 18718, Note_on_c, 15, 57, 0
17, 18960, Note_on_c, 15, 60, 64
17, 19198, Note_on_c, 15, 60, 0
17, 19200, Note_on_c, 15, 65, 64
17, 19558, Note_on_c, 15, 65, 0
17, 19560, Note_on_c, 15, 69, 64
17, 19678, Note_on_c, 15, 69, 0
17, 19680, Note_on_c, 15, 69, 64
17, 19798, Note_on_c, 15, 69, 0
17, 19800, Note_on_c, 15, 67, 64
17, 19918, Note_on_c, 15, 67, 0
17, 19920, Note_on_c, 15, 65, 64
17, 20038, Note_on_c, 15, 65, 0
17, 20040, Note_on_c, 15, 60, 64
17, 20158, Note_on_c, 15, 60, 0
17, 20160, Note_on_c, 15, 57, 64
17, 20638, Note_on_c, 15, 57, 0
17, 21120, Note_on_c, 15, 60, 64
17, 21358, Note_on_c, 15, 60, 0
17, 21600, Note_on_c, 15, 65, 64
17, 21838, Note_on_c, 15, 65, 0
17, 21840, Note_on_c, 15, 60, 64
17, 22078, Note_on_c, 15, 60, 0
17, 22320, Note_on_c, 15, 65, 64
17, 22558, Note_on_c, 15, 65, 0
17, 22560, Note_on_c, 15, 60, 64
17, 22798, Note_on_c, 15, 60, 0
17, 22800, Note_on_c, 15, 60, 64
17, 23038, Note_on_c, 15, 60, 0
17, 23040, Note_on_c, 15, 60, 64
17, 23278, Note_on_c, 15, 60, 0
17, 23280, Note_on_c, 15, 60, 64
17, 23518, Note_on_c, 15, 60, 0
17, 23760, Note_on_c, 15, 65, 64
17, 23998, Note_on_c, 15, 65, 0
17, 24000, Note_on_c, 15, 60, 64
17, 24238, Note_on_c, 15, 60, 0
17, 24480, Note_on_c, 15, 60, 64
17, 24718, Note_on_c, 15, 60, 0
17, 24720, Note_on_c, 15, 67, 64
17, 24958, Note_on_c, 15, 67, 0
17, 25200, Note_on_c, 15, 67, 64
17, 25438, Note_on_c, 15, 67, 0
17, 25440, Note_on_c, 15, 67, 64
17, 25678, Note_on_c, 15, 67, 0
17, 25680, Note_on_c, 15, 67, 64
17, 25918, Note_on_c, 15, 67, 0
17, 25920, Note_on_c, 15, 67, 64
17, 26158, Note_on_c, 15, 67, 0
17, 26160, Note_on_c, 15, 60, 64
17, 26398, Note_on_c, 15, 60, 0
17, 34080, Note_on_c, 15, 48, 64
17, 35038, Note_on_c, 15, 48, 0
17, 42480, Note_on_c, 15, 53, 64
17, 42718, Note_on_c, 15, 53, 0
17, 42720, Note_on_c, 15, 53, 64
17, 42958, Note_on_c, 15, 53, 0
17, 42960, Note_on_c, 15, 53, 64
17, 43198, Note_on_c, 15, 53, 0
17, 43200, Note_on_c, 15, 53, 64
17, 43438, Note_on_c, 15, 53, 0
17, 43440, Note_on_c, 15, 53, 64
17, 43678, Note_on_c, 15, 53, 0
17, 43680, Note_on_c, 15, 53, 64
17, 43918, Note_on_c, 15, 53, 0
17, 43920, Note_on_c, 15, 53, 64
17, 44158, Note_on_c, 15, 53, 0
17, 44160, Note_on_c, 15, 53, 64
17, 44878, Note_on_c, 15, 53, 0
17, 47520, Note_on_c, 15, 65, 64
17, 47758, Note_on_c, 15, 65, 0
17, 47760, Note_on_c, 15, 60, 64
17, 47998, Note_on_c, 15, 60, 0
17, 48000, Note_on_c, 15, 60, 64
17, 48238, Note_on_c, 15, 60, 0
17, 48240, Note_on_c, 15, 60, 64
17, 48478, Note_on_c, 15, 60, 0
17, 48480, Note_on_c, 15, 57, 64
17, 48958, Note_on_c, 15, 57, 0
17, 50400, Note_on_c, 15, 65, 64
17, 50638, Note_on_c, 15, 65, 0
17, 50640, Note_on_c, 15, 60, 64
17, 50878, Note_on_c, 15, 60, 0
17, 50880, Note_on_c, 15, 60, 64
17, 51118, Note_on_c, 15, 60, 0
17, 51120, Note_on_c, 15, 60, 64
17, 51358, Note_on_c, 15, 60, 0
17, 51360, Note_on_c, 15, 57, 64
17, 51838, Note_on_c, 15, 57, 0
17, 54960, Note_on_c, 15, 60, 64
17, 55198, Note_on_c, 15, 60, 0
17, 55200, Note_on_c, 15, 57, 64
17, 55438, Note_on_c, 15, 57, 0
17, 55440, Note_on_c, 15, 57, 64
17, 55678, Note_on_c, 15, 57, 0
17, 55680, Note_on_c, 15, 60, 64
17, 55918, Note_on_c, 15, 60, 0
17, 55920, Note_on_c, 15, 60, 64
17, 56158, Note_on_c, 15, 60, 0
17, 56160, Note_on_c, 15, 65, 64
17, 56638, Note_on_c, 15, 65, 0
17, 56880, Note_on_c, 15, 65, 64
17, 57118, Note_on_c, 15, 65, 0
17, 57120, Note_on_c, 15, 67, 64
17, 57358, Note_on_c, 15, 67, 0
17, 57360, Note_on_c, 15, 67, 64
17, 57598, Note_on_c, 15, 67, 0
17, 57600, Note_on_c, 15, 65, 64
17, 57838, Note_on_c, 15, 65, 0
17, 57840, Note_on_c, 15, 65, 64
17, 58078, Note_on_c, 15, 65, 0
17, 58080, Note_on_c, 15, 60, 64
17, 58558, Note_on_c, 15, 60, 0
17, 58800, Note_on_c, 15, 60, 64
17, 59038, Note_on_c, 15, 60, 0
17, 59040, Note_on_c, 15, 67, 64
17, 59278, Note_on_c, 15, 67, 0
17, 59280, Note_on_c, 15, 67, 64
17, 59518, Note_on_c, 15, 67, 0
17, 59520, Note_on_c, 15, 60, 64
17, 59758, Note_on_c, 15, 60, 0
17, 59760, Note_on_c, 15, 60, 64
17, 59998, Note_on_c, 15, 60, 0
17, 60000, Note_on_c, 15, 69, 64
17, 60478, Note_on_c, 15, 69, 0
17, 60960, Note_on_c, 15, 67, 64
17, 61198, Note_on_c, 15, 67, 0
17, 61440, Note_on_c, 15, 60, 64
17, 61678, Note_on_c, 15, 60, 0
17, 61920, Note_on_c, 15, 57, 64
17, 62158, Note_on_c, 15, 57, 0
17, 62160, Note_on_c, 15, 60, 64
17, 62398, Note_on_c, 15, 60, 0
17, 62400, Note_on_c, 15, 57, 64
17, 62638, Note_on_c, 15, 57, 0
17, 70320, Note_on_c, 15, 60, 64
17, 70558, Note_on_c, 15, 60, 0
17, 70560, Note_on_c, 15, 65, 64
17, 70918, Note_on_c, 15, 65, 0
17, 70920, Note_on_c, 15, 69, 64
17, 71038, Note_on_c, 15, 69, 0
17, 71040, Note_on_c, 15, 69, 64
17, 71158, Note_on_c, 15, 69, 0
17, 71160, Note_on_c, 15, 67, 64
17, 71278, Note_on_c, 15, 67, 0
17, 71280, Note_on_c, 15, 65, 64
17, 71398, Note_on_c, 15, 65, 0
17, 71400, Note_on_c, 15, 60, 64
17, 71518, Note_on_c, 15, 60, 0
17, 71520, Note_on_c, 15, 57, 64
17, 71998, Note_on_c, 15, 57, 0
17, 72240, Note_on_c, 15, 60, 64
17, 72478, Note_on_c, 15, 60, 0
17, 72480, Note_on_c, 15, 65, 64
17, 72838, Note_on_c, 15, 65, 0
17, 72840, Note_on_c, 15, 69, 64
17, 72958, Note_on_c, 15, 69, 0
17, 72960, Note_on_c, 15, 69, 64
17, 73078, Note_on_c, 15, 69, 0
17, 73080, Note_on_c, 15, 67, 64
17, 73198, Note_on_c, 15, 67, 0
17, 73200, Note_on_c, 15, 65, 64
17, 73318, Note_on_c, 15, 65, 0
17, 73320, Note_on_c, 15, 60, 64
17, 73438, Note_on_c, 15, 60, 0
17, 73440, Note_on_c, 15, 57, 64
17, 73918, Note_on_c, 15, 57, 0
17, 74400, Note_on_c, 15, 60, 64
17, 74638, Note_on_c, 15, 60, 0
17, 74880, Note_on_c, 15, 65, 64
17, 75118, Note_on_c, 15, 65, 0
17, 75120, Note_on_c, 15, 60, 64
17, 75358, Note_on_c, 15, 60, 0
17, 75600, Note_on_c, 15, 65, 64
17, 75838, Note_on_c, 15, 65, 0
17, 75840, Note_on_c, 15, 60, 64
17, 76078, Note_on_c, 15, 60, 0
17, 76080, Note_on_c, 15, 60, 64
17, 76318, Note_on_c, 15, 60, 0
17, 76320, Note_on_c, 15, 60, 64
17, 76558, Note_on_c, 15, 60, 0
17, 76560, Note_on_c, 15, 60, 64
17, 76798, Note_on_c, 15, 60, 0
17, 77040, Note_on_c, 15, 65, 64
17, 77278, Note_on_c, 15, 65, 0
17, 77280, Note_on_c, 15, 60, 64
17, 77518, Note_on_c, 15, 60, 0
17, 77760, Note_on_c, 15, 60, 64
17, 77998, Note_on_c, 15, 60, 0
17, 78000, Note_on_c, 15, 67, 64
17, 78238, Note_on_c, 15, 67, 0
17, 78480, Note_on_c, 15, 67, 64
17, 78718, Note_on_c, 15, 67, 0
17, 78720, Note_on_c, 15, 67, 64
17, 78958, Note_on_c, 15, 67, 0
17, 78960, Note_on_c, 15, 67, 64
17, 79198, Note_on_c, 15, 67, 0
17, 79200, Note_on_c, 15, 67, 64
17, 79438, Note_on_c, 15, 67, 0
17, 79440, Note_on_c, 15, 60, 64
17, 79678, Note_on_c, 15, 60, 0
17, 87360, Note_on_c, 15, 48, 64
17, 88318, Note_on_c, 15, 48, 0
17, 95760, Note_on_c, 15, 53, 64
17, 95998, Note_on_c, 15, 53, 0
17, 96000, Note_on_c, 15, 53, 64
17, 96238, Note_on_c, 15, 53, 0
17, 96240, Note_on_c, 15, 53, 64
17, 96478, Note_on_c, 15, 53, 0
17, 96480, Note_on_c, 15, 53, 64
17, 96718, Note_on_c, 15, 53, 0
17, 96720, Note_on_c, 15, 53, 64
17, 96958, Note_on_c, 15, 53, 0
17, 96960, Note_on_c, 15, 53, 64
17, 97198, Note_on_c, 15, 53, 0
17, 97200, Note_on_c, 15, 53, 64
17, 97438, Note_on_c, 15, 53, 0
17, 97440, Note_on_c, 15, 53, 64
17, 98158, Note_on_c, 15, 53, 0
17, 100800, Note_on_c, 15, 65, 64
17, 101038, Note_on_c, 15, 65, 0
17, 101040, Note_on_c, 15, 60, 64
17, 101278, Note_on_c, 15, 60, 0
17, 101280, Note_on_c, 15, 60, 64
17, 101518, Note_on_c, 15, 60, 0
17, 101520, Note_on_c, 15, 60, 64
17, 101758, Note_on_c, 15, 60, 0
17, 101760, Note_on_c, 15, 57, 64
17, 102238, Note_on_c, 15, 57, 0
17, 103680, Note_on_c, 15, 65, 64
17, 103918, Note_on_c, 15, 65, 0
17, 103920, Note_on_c, 15, 60, 64
17, 104158, Note_on_c, 15, 60, 0
17, 104160, Note_on_c, 15, 60, 64
17, 104398, Note_on_c, 15, 60, 0
17, 104400, Note_on_c, 15, 60, 64
17, 104638, Note_on_c, 15, 60, 0
17, 104640, Note_on_c, 15, 57, 64
17, 105118, Note_on_c, 15, 57, 0
17, 108240, Note_on_c, 15, 60, 64
17, 108478, Note_on_c, 15, 60, 0
17, 108480, Note_on_c, 15, 57, 64
17, 108718, Note_on_c, 15, 57, 0
17, 108720, Note_on_c, 15, 57, 64
17, 108958, Note_on_c, 15, 57, 0
17, 108960, Note_on_c, 15, 60, 64
17, 109198, Note_on_c, 15, 60, 0
17, 109200, Note_on_c, 15, 60, 64
17, 109438, Note_on_c, 15, 60, 0
17, 109440, Note_on_c, 15, 65, 64
17, 109918, Note_on_c, 15, 65, 0
17, 110160, Note_on_c, 15, 65, 64
17, 110398, Note_on_c, 15, 65, 0
17, 110400, Note_on_c, 15, 67, 64
17, 110638, Note_on_c, 15, 67, 0
17, 110640, Note_on_c, 15, 67, 64
17, 110878, Note_on_c, 15, 67, 0
17, 110880, Note_on_c, 15, 65, 64
17, 111118, Note_on_c, 15, 65, 0
17, 111120, Note_on_c, 15, 65, 64
17, 111358, Note_on_c, 15, 65, 0
17, 111360, Note_on_c, 15, 60, 64
17, 111838, Note_on_c, 15, 60, 0
17, 112080, Note_on_c, 15, 60, 64
17, 112318, Note_on_c, 15, 60, 0
17, 112320, Note_on_c, 15, 67, 64
17, 112558, Note_on_c, 15, 67, 0
17, 112560, Note_on_c, 15, 67, 64
17, 112798, Note_on_c, 15, 67, 0
17, 112800, Note_on_c, 15, 60, 64
17, 113038, Note_on_c, 15, 60, 0
17, 113040, Note_on_c, 15, 60, 64
17, 113278, Note_on_c, 15, 60, 0
17, 113280, Note_on_c, 15, 69, 64
17, 113758, Note_on_c, 15, 69, 0
17, 114240, Note_on_c, 15, 67, 64
17, 114478, Note_on_c, 15, 67, 0
17, 114720, Note_on_c, 15, 60, 64
17, 114958, Note_on_c, 15, 60, 0
17, 115200, Note_on_c, 15, 57, 64
17, 115438, Note_on_c, 15, 57, 0
17, 115440, Note_on_c, 15, 60, 64
17, 115678, Note_on_c, 15, 60, 0
17, 115680, Note_on_c, 15, 57, 64
17, 115918, Note_on_c, 15, 57, 0
17, 123600, Note_on_c, 15, 60, 64
17, 123838, Note_on_c, 15, 60, 0
17, 123840, Note_on_c, 15, 65, 64
17, 124198, Note_on_c, 15, 65, 0
17, 124200, Note_on_c, 15, 69, 64
17, 124318, Note_on_c, 15, 69, 0
17, 124320, Note_on_c, 15, 69, 64
17, 124438, Note_on_c, 15, 69, 0
17, 124440, Note_on_c, 15, 67, 64
17, 124558, Note_on_c, 15, 67, 0
17, 124560, Note_on_c, 15, 65, 64
17, 124678, Note_on_c, 15, 65, 0
17, 124680, Note_on_c, 15, 60, 64
17, 124798, Note_on_c, 15, 60, 0
17, 124800, Note_on_c, 15, 57, 64
17, 125278, Note_on_c, 15, 57, 0
17, 125520, Note_on_c, 15, 60, 64
17, 125758, Note_on_c, 15, 60, 0
17, 125760, Note_on_c, 15, 65, 64
17, 126118, Note_on_c, 15, 65, 0
17, 126120, Note_on_c, 15, 69, 64
17, 126238, Note_on_c, 15, 69, 0
17, 126240, Note_on_c, 15, 69, 64
17, 126358, Note_on_c, 15, 69, 0
17, 126360, Note_on_c, 15, 67, 64
17, 126478, Note_on_c, 15, 67, 0
17, 126480, Note_on_c, 15, 65, 64
17, 126598, Note_on_c, 15, 65, 0
17, 126600, Note_on_c, 15, 60, 64
17, 126718, Note_on_c, 15, 60, 0
17, 126720, Note_on_c, 15, 57, 64
17, 127198, Note_on_c, 15, 57, 0
17, 127680, Note_on_c, 15, 60, 64
17, 127918, Note_on_c, 15, 60, 0
17, 128160, Note_on_c, 15, 65, 64
17, 128398, Note_on_c, 15, 65, 0
17, 128400, Note_on_c, 15, 60, 64
17, 128638, Note_on_c, 15, 60, 0
17, 128880, Note_on_c, 15, 65, 64
17, 129118, Note_on_c, 15, 65, 0
17, 129120, Note_on_c, 15, 60, 64
17, 129358, Note_on_c, 15, 60, 0
17, 129360, Note_on_c, 15, 60, 64
17, 129598, Note_on_c, 15, 60, 0
17, 129600, Note_on_c, 15, 60, 64
17, 129838, Note_on_c, 15, 60, 0
17, 129840, Note_on_c, 15, 60, 64
17, 130078, Note_on_c, 15, 60, 0
17, 130320, Note_on_c, 15, 65, 64
17, 130558, Note_on_c, 15, 65, 0
17, 130560, Note_on_c, 15, 60, 64
17, 130798, Note_on_c, 15, 60, 0
17, 131040, Note_on_c, 15, 60, 64
17, 131278, Note_on_c, 15, 60, 0
17, 131280, Note_on_c, 15, 67, 64
17, 131518, Note_on_c, 15, 67, 0
17, 131760, Note_on_c, 15, 67, 64
17, 131998, Note_on_c, 15, 67, 0
17, 132000, Note_on_c, 15, 67, 64
17, 132238, Note_on_c, 15, 67, 0
17, 132240, Note_on_c, 15, 67, 64
17, 132478, Note_on_c, 15, 67, 0
17, 132480, Note_on_c, 15, 67, 64
17, 132718, Note_on_c, 15, 67, 0
17, 132720, Note_on_c, 15, 60, 64
17, 132958, Note_on_c, 15, 60, 0
17, 140640, Note_on_c, 15, 48, 64
17, 141598, Note_on_c, 15, 48, 0
17, 149040, Note_on_c, 15, 53, 64
17, 149278, Note_on_c, 15, 53, 0
17, 149280, Note_on_c, 15, 53, 64
17, 149518, Note_on_c, 15, 53, 0
17, 149520, Note_on_c, 15, 53, 64
17, 149758, Note_on_c, 15, 53, 0
17, 149760, Note_on_c, 15, 53, 64
17, 149998, Note_on_c, 15, 53, 0
17, 150000, Note_on_c, 15, 53, 64
17, 150238, Note_on_c, 15, 53, 0
17, 150240, Note_on_c, 15, 53, 64
17, 150478, Note_on_c, 15, 53, 0
17, 150480, Note_on_c, 15, 53, 64
17, 150718, Note_on_c, 15, 53, 0
17, 150720, Note_on_c, 15, 53, 64
17, 151438, Note_on_c, 15, 53, 0
17, 154080, Note_on_c, 15, 65, 64
17, 154318, Note_on_c, 15, 65, 0
17, 154320, Note_on_c, 15, 60, 64
17, 154558, Note_on_c, 15, 60, 0
17, 154560, Note_on_c, 15, 60, 64
17, 154798, Note_on_c, 15, 60, 0
17, 154800, Note_on_c, 15, 60, 64
17, 155038, Note_on_c, 15, 60, 0
17, 155040, Note_on_c, 15, 57, 64
17, 155518, Note_on_c, 15, 57, 0
17, 156960, Note_on_c, 15, 65, 64
17, 157198, Note_on_c, 15, 65, 0
17, 157200, Note_on_c, 15, 60, 64
17, 157438, Note_on_c, 15, 60, 0
17, 157440, Note_on_c, 15, 60, 64
17, 157678, Note_on_c, 15, 60, 0
17, 157680, Note_on_c, 15, 60, 64
17, 157918, Note_on_c, 15, 60, 0
17, 157920, Note_on_c, 15, 57, 64
17, 158398, Note_on_c, 15, 57, 0
17, 160080, Note_on_c, 15, 65, 64
17, 160318, Note_on_c, 15, 65, 0
17, 160320, Note_on_c, 15, 65, 64
17, 160558, Note_on_c, 15, 65, 0
17, 160800, Note_on_c, 15, 65, 64
17, 161038, Note_on_c, 15, 65, 0
17, 161040, Note_on_c, 15, 65, 64
17, 161278, Note_on_c, 15, 65, 0
17, 161520, Note_on_c, 15, 60, 64
17, 161758, Note_on_c, 15, 60, 0
17, 161760, Note_on_c, 15, 60, 64
17, 161998, Note_on_c, 15, 60, 0
17, 162000, Note_on_c, 15, 60, 64
17, 162238, Note_on_c, 15, 60, 0
17, 162240, Note_on_c, 15, 53, 64
17, 162478, Note_on_c, 15, 53, 0
17, 162480, Note_on_c, 15, 53, 64
17, 162718, Note_on_c, 15, 53, 0
17, 162960, Note_on_c, 15, 53, 64
17, 163198, Note_on_c, 15, 53, 0
17, 163200, Note_on_c, 15, 53, 64
17, 163438, Note_on_c, 15, 53, 0
17, 163680, Note_on_c, 15, 57, 64
17, 163918, Note_on_c, 15, 57, 0
17, 163920, Note_on_c, 15, 57, 64
17, 164158, Note_on_c, 15, 57, 0
17, 164400, Note_on_c, 15, 60, 64
17, 164638, Note_on_c, 15, 60, 0
17, 164640, Note_on_c, 15, 60, 64
17, 164878, Note_on_c, 15, 60, 0
17, 164880, Note_on_c, 15, 60, 64
17, 165118, Note_on_c, 15, 60, 0
17, 165120, Note_on_c, 15, 53, 64
17, 165358, Note_on_c, 15, 53, 0
17, 165600, Note_on_c, 15, 53, 64
17, 165838, Note_on_c, 15, 53, 0
17, 165840, Note_on_c, 15, 57, 64
17, 166078, Note_on_c, 15, 57, 0
17, 166080, Note_on_c, 15, 60, 64
17, 166318, Note_on_c, 15, 60, 0
17, 166320, Note_on_c, 15, 53, 64
17, 166558, Note_on_c, 15, 53, 0
17, 166560, Note_on_c, 15, 57, 64
17, 166798, Note_on_c, 15, 57, 0
17, 166800, Note_on_c, 15, 60, 64
17, 167038, Note_on_c, 15, 60, 0
17, 167040, Note_on_c, 15, 53, 64
17, 167278, Note_on_c, 15, 53, 0
17, 167280, Note_on_c, 15, 60, 64
17, 167518, Note_on_c, 15, 60, 0
17, 167520, Note_on_c, 15, 48, 64
17, 167758, Note_on_c, 15, 48, 0
17, 167760, Note_on_c, 15, 48, 64
17, 167998, Note_on_c, 15, 48, 0
17, 168000, Note_on_c, 15, 53, 64
17, 168238, Note_on_c, 15, 53, 0
17, 168480, Note_on_c, 15, 53, 64
17, 168718, Note_on_c, 15, 53, 0
17, 168720, Note_on_c, 15, 57, 64
17, 168958, Note_on_c, 15, 57, 0
17, 168960, Note_on_c, 15, 60, 64
17, 169198, Note_on_c, 15, 60, 0
17, 169200, Note_on_c, 15, 53, 64
17, 169438, Note_on_c, 15, 53, 0
17, 169440, Note_on_c, 15, 57, 64
17, 169678, Note_on_c, 15, 57, 0
17, 169680, Note_on_c, 15, 60, 64
17, 169918, Note_on_c, 15, 60, 0
17, 169920, Note_on_c, 15, 53, 64
17, 170158, Note_on_c, 15, 53, 0
17, 170160, Note_on_c, 15, 60, 64
17, 170398, Note_on_c, 15, 60, 0
17, 170400, Note_on_c, 15, 48, 64
17, 170638, Note_on_c, 15, 48, 0
17, 170640, Note_on_c, 15, 48, 64
17, 170878, Note_on_c, 15, 48, 0
17, 170880, Note_on_c, 15, 53, 64
17, 171358, Note_on_c, 15, 53, 0
17, 171358, End_track
0, 0, End_of_file
