0, 0, Header, 1, 14, 384
1, 0, Start_track
1, 0, Sequencer_specific, 3, 0, 0, 65
1, 0, Time_signature, 4, 2, 24, 8
1, 0, Key_signature, 0, "major"
1, 0, Tempo, 375000
1, 26112, Tempo, 413793
1, 41856, Tempo, 419580
1, 42240, Tempo, 428571
1, 42624, Tempo, 428571
1, 43008, Tempo, 437956
1, 44544, Tempo, 375000
1, 152064, Tempo, 428571
1, 170496, Tempo, 375000
1, 274944, Tempo, 413793
1, 281088, Tempo, 375000
1, 284160, Tempo, 413793
1, 290294, Tempo, 375000
1, 290300, Tempo, 413793
1, 290301, Tempo, 375000
1, 294467, Tempo, 372671
1, 305664, Tempo, 375000
1, 330240, Tempo, 413793
1, 345984, Tempo, 419580
1, 346368, Tempo, 428571
1, 346752, Tempo, 428571
1, 347136, Tempo, 413793
1, 348672, Tempo, 375000
1, 348672, End_track
2, 0, Start_track
2, 0, MIDI_port, 0
2, 0, Title_t, "Oboi."
2, 0, Control_c, 0, 0, 0
2, 0, Program_c, 0, 68
2, 0, Control_c, 0, 10, 56
2, 0, Control_c, 0, 91, 127
2, 1536, Note_on_c, 0, 79, 80
2, 3072, Note_on_c, 0, 79, 0
2, 3072, Note_on_c, 0, 74, 80
2, 4608, Note_on_c, 0, 74, 0
2, 4608, Note_on_c, 0, 75, 80
2, 6144, Note_on_c, 0, 75, 0
2, 6144, Note_on_c, 0, 66, 80
2, 7680, Note_on_c, 0, 66, 0
2, 7680, Note_on_c, 0, 67, 80
2, 7984, Note_on_c, 0, 67, 0
2, 8448, Note_on_c, 0, 82, 80
2, 8544, Note_on_c, 0, 82, 0
2, 8544, Note_on_c, 0, 81, 80
2, 8640, Note_on_c, 0, 81, 0
2, 8640, Note_on_c, 0, 79, 80
2, 8736, Note_on_c, 0, 79, 0
2, 8736, Note_on_c, 0, 78, 80
2, 8832, Note_on_c, 0, 78, 0
2, 8832, Note_on_c, 0, 79, 80
2, 9136, Note_on_c, 0, 79, 0
2, 9984, Note_on_c, 0, 82, 80
2, 10080, Note_on_c, 0, 82, 0
2, 10080, Note_on_c, 0, 81, 80
2, 10176, Note_on_c, 0, 81, 0
2, 10176, Note_on_c, 0, 79, 80
2, 10272, Note_on_c, 0, 79, 0
2, 10272, Note_on_c, 0, 78, 80
2, 10368, Note_on_c, 0, 78, 0
2, 10368, Note_on_c, 0, 79, 80
2, 10672, Note_on_c, 0, 79, 0
2, 11520, Note_on_c, 0, 84, 80
2, 11616, Note_on_c, 0, 84, 0
2, 11616, Note_on_c, 0, 82, 80
2, 11712, Note_on_c, 0, 82, 0
2, 11712, Note_on_c, 0, 81, 80
2, 11808, Note_on_c, 0, 81, 0
2, 11808, Note_on_c, 0, 79, 80
2, 11884, Note_on_c, 0, 79, 0
2, 11904, Note_on_c, 0, 81, 80
2, 12208, Note_on_c, 0, 81, 0
2, 13056, Note_on_c, 0, 84, 80
2, 13152, Note_on_c, 0, 84, 0
2, 13152, Note_on_c, 0, 82, 80
2, 13248, Note_on_c, 0, 82, 0
2, 13248, Note_on_c, 0, 81, 80
2, 13344, Note_on_c, 0, 81, 0
2, 13344, Note_on_c, 0, 79, 80
2, 13420, Note_on_c, 0, 79, 0
2, 13440, Note_on_c, 0, 81, 80
2, 13744, Note_on_c, 0, 81, 0
2, 14592, Note_on_c, 0, 86, 80
2, 14688, Note_on_c, 0, 86, 0
2, 14688, Note_on_c, 0, 84, 80
2, 14784, Note_on_c, 0, 84, 0
2, 14784, Note_on_c, 0, 82, 80
2, 14880, Note_on_c, 0, 82, 0
2, 14880, Note_on_c, 0, 81, 80
2, 14976, Note_on_c, 0, 81, 0
2, 14976, Note_on_c, 0, 82, 80
2, 15280, Note_on_c, 0, 82, 0
2, 15360, Note_on_c, 0, 82, 80
2, 15456, Note_on_c, 0, 82, 0
2, 15456, Note_on_c, 0, 81, 80
2, 15552, Note_on_c, 0, 81, 0
2, 15552, Note_on_c, 0, 79, 80
2, 15648, Note_on_c, 0, 79, 0
2, 15648, Note_on_c, 0, 78, 80
2, 15744, Note_on_c, 0, 78, 0
2, 15744, Note_on_c, 0, 79, 80
2, 16048, Note_on_c, 0, 79, 0
2, 16128, Note_on_c, 0, 79, 80
2, 16224, Note_on_c, 0, 79, 0
2, 16224, Note_on_c, 0, 77, 80
2, 16320, Note_on_c, 0, 77, 0
2, 16320, Note_on_c, 0, 75, 80
2, 16416, Note_on_c, 0, 75, 0
2, 16416, Note_on_c, 0, 74, 80
2, 16512, Note_on_c, 0, 74, 0
2, 16512, Note_on_c, 0, 75, 80
2, 16608, Note_on_c, 0, 75, 0
2, 16608, Note_on_c, 0, 74, 80
2, 16704, Note_on_c, 0, 74, 0
2, 16704, Note_on_c, 0, 72, 80
2, 16800, Note_on_c, 0, 72, 0
2, 16800, Note_on_c, 0, 70, 80
2, 16896, Note_on_c, 0, 70, 0
2, 16896, Note_on_c, 0, 72, 80
2, 17124, Note_on_c, 0, 72, 0
2, 17184, Note_on_c, 0, 72, 80
2, 17260, Note_on_c, 0, 72, 0
2, 17280, Note_on_c, 0, 70, 80
2, 17508, Note_on_c, 0, 70, 0
2, 17568, Note_on_c, 0, 70, 80
2, 17644, Note_on_c, 0, 70, 0
2, 17664, Note_on_c, 0, 69, 80
2, 17892, Note_on_c, 0, 69, 0
2, 17952, Note_on_c, 0, 69, 80
2, 18028, Note_on_c, 0, 69, 0
2, 18048, Note_on_c, 0, 67, 80
2, 18276, Note_on_c, 0, 67, 0
2, 18336, Note_on_c, 0, 67, 80
2, 18412, Note_on_c, 0, 67, 0
2, 18432, Note_on_c, 0, 66, 80
2, 18736, Note_on_c, 0, 66, 0
2, 18816, Note_on_c, 0, 74, 64
2, 19120, Note_on_c, 0, 74, 0
2, 19968, Note_on_c, 0, 79, 80
2, 21504, Note_on_c, 0, 79, 0
2, 21504, Note_on_c, 0, 74, 80
2, 23040, Note_on_c, 0, 74, 0
2, 23040, Note_on_c, 0, 75, 80
2, 24576, Note_on_c, 0, 75, 0
2, 24576, Note_on_c, 0, 66, 80
2, 26112, Note_on_c, 0, 66, 0
2, 26112, Note_on_c, 0, 67, 80
2, 26112, Note_on_c, 0, 79, 80
2, 26416, Note_on_c, 0, 67, 0
2, 27648, Note_on_c, 0, 79, 0
2, 27648, Note_on_c, 0, 74, 80
2, 29184, Note_on_c, 0, 74, 0
2, 29184, Note_on_c, 0, 75, 80
2, 30720, Note_on_c, 0, 75, 0
2, 30720, Note_on_c, 0, 66, 80
2, 32256, Note_on_c, 0, 66, 0
2, 32256, Note_on_c, 0, 67, 80
2, 33792, Note_on_c, 0, 67, 0
2, 33792, Note_on_c, 0, 79, 80
2, 35328, Note_on_c, 0, 79, 0
2, 35328, Note_on_c, 0, 82, 80
2, 36864, Note_on_c, 0, 82, 0
2, 36864, Note_on_c, 0, 73, 80
2, 38400, Note_on_c, 0, 73, 0
2, 38400, Note_on_c, 0, 74, 80
2, 38976, Note_on_c, 0, 74, 0
2, 38976, Note_on_c, 0, 73, 76
2, 39168, Note_on_c, 0, 73, 0
2, 39168, Note_on_c, 0, 74, 75
2, 39360, Note_on_c, 0, 74, 0
2, 39360, Note_on_c, 0, 73, 74
2, 39552, Note_on_c, 0, 73, 0
2, 39552, Note_on_c, 0, 74, 72
2, 39744, Note_on_c, 0, 74, 0
2, 39744, Note_on_c, 0, 73, 71
2, 39936, Note_on_c, 0, 73, 0
2, 39936, Note_on_c, 0, 74, 70
2, 40512, Note_on_c, 0, 74, 0
2, 40512, Note_on_c, 0, 73, 66
2, 40704, Note_on_c, 0, 73, 0
2, 40704, Note_on_c, 0, 74, 65
2, 40896, Note_on_c, 0, 74, 0
2, 40896, Note_on_c, 0, 73, 64
2, 41088, Note_on_c, 0, 73, 0
2, 41088, Note_on_c, 0, 74, 62
2, 41280, Note_on_c, 0, 74, 0
2, 41280, Note_on_c, 0, 73, 61
2, 41472, Note_on_c, 0, 73, 0
2, 41472, Note_on_c, 0, 74, 60
2, 41776, Note_on_c, 0, 74, 0
2, 42240, Note_on_c, 0, 74, 52
2, 42544, Note_on_c, 0, 74, 0
2, 43008, Note_on_c, 0, 74, 40
2, 43312, Note_on_c, 0, 74, 0
2, 44544, Note_on_c, 0, 70, 80
2, 46080, Note_on_c, 0, 70, 0
2, 46080, Note_on_c, 0, 82, 80
2, 47616, Note_on_c, 0, 82, 0
2, 47616, Note_on_c, 0, 81, 80
2, 48000, Note_on_c, 0, 81, 0
2, 50688, Note_on_c, 0, 70, 80
2, 52224, Note_on_c, 0, 70, 0
2, 52224, Note_on_c, 0, 82, 80
2, 53760, Note_on_c, 0, 82, 0
2, 53760, Note_on_c, 0, 81, 80
2, 54144, Note_on_c, 0, 81, 0
2, 57600, Note_on_c, 0, 74, 64
2, 57600, Note_on_c, 0, 82, 64
2, 58212, Note_on_c, 0, 82, 0
2, 58212, Note_on_c, 0, 74, 0
2, 59136, Note_on_c, 0, 74, 64
2, 59136, Note_on_c, 0, 82, 64
2, 59748, Note_on_c, 0, 82, 0
2, 59748, Note_on_c, 0, 74, 0
2, 60672, Note_on_c, 0, 70, 64
2, 60672, Note_on_c, 0, 79, 64
2, 61284, Note_on_c, 0, 79, 0
2, 61284, Note_on_c, 0, 70, 0
2, 62208, Note_on_c, 0, 70, 64
2, 62208, Note_on_c, 0, 79, 64
2, 62820, Note_on_c, 0, 79, 0
2, 62820, Note_on_c, 0, 70, 0
2, 63744, Note_on_c, 0, 75, 64
2, 63744, Note_on_c, 0, 84, 64
2, 64356, Note_on_c, 0, 84, 0
2, 64356, Note_on_c, 0, 75, 0
2, 65280, Note_on_c, 0, 75, 64
2, 65280, Note_on_c, 0, 84, 64
2, 65892, Note_on_c, 0, 84, 0
2, 65892, Note_on_c, 0, 75, 0
2, 66816, Note_on_c, 0, 69, 64
2, 66816, Note_on_c, 0, 77, 64
2, 67428, Note_on_c, 0, 77, 0
2, 67428, Note_on_c, 0, 69, 0
2, 68352, Note_on_c, 0, 69, 64
2, 68352, Note_on_c, 0, 77, 64
2, 68964, Note_on_c, 0, 77, 0
2, 68964, Note_on_c, 0, 69, 0
2, 69888, Note_on_c, 0, 74, 64
2, 69888, Note_on_c, 0, 82, 64
2, 70500, Note_on_c, 0, 82, 0
2, 70500, Note_on_c, 0, 74, 0
2, 71424, Note_on_c, 0, 74, 64
2, 71424, Note_on_c, 0, 82, 64
2, 72036, Note_on_c, 0, 82, 0
2, 72036, Note_on_c, 0, 74, 0
2, 72960, Note_on_c, 0, 67, 64
2, 72960, Note_on_c, 0, 75, 64
2, 73572, Note_on_c, 0, 75, 0
2, 73572, Note_on_c, 0, 67, 0
2, 74496, Note_on_c, 0, 67, 64
2, 74496, Note_on_c, 0, 75, 64
2, 75108, Note_on_c, 0, 75, 0
2, 75108, Note_on_c, 0, 67, 0
2, 76800, Note_on_c, 0, 75, 64
2, 77104, Note_on_c, 0, 75, 0
2, 77184, Note_on_c, 0, 72, 64
2, 77488, Note_on_c, 0, 72, 0
2, 77568, Note_on_c, 0, 69, 64
2, 77872, Note_on_c, 0, 69, 0
2, 77952, Note_on_c, 0, 65, 64
2, 78256, Note_on_c, 0, 65, 0
2, 79872, Note_on_c, 0, 82, 64
2, 80176, Note_on_c, 0, 82, 0
2, 80256, Note_on_c, 0, 77, 64
2, 80560, Note_on_c, 0, 77, 0
2, 80640, Note_on_c, 0, 74, 64
2, 80944, Note_on_c, 0, 74, 0
2, 81024, Note_on_c, 0, 70, 64
2, 81328, Note_on_c, 0, 70, 0
2, 82944, Note_on_c, 0, 82, 64
2, 83248, Note_on_c, 0, 82, 0
2, 83328, Note_on_c, 0, 77, 64
2, 83632, Note_on_c, 0, 77, 0
2, 83712, Note_on_c, 0, 73, 64
2, 84016, Note_on_c, 0, 73, 0
2, 84096, Note_on_c, 0, 70, 64
2, 84400, Note_on_c, 0, 70, 0
2, 86016, Note_on_c, 0, 73, 64
2, 86320, Note_on_c, 0, 73, 0
2, 86400, Note_on_c, 0, 70, 64
2, 86704, Note_on_c, 0, 70, 0
2, 86784, Note_on_c, 0, 67, 64
2, 87088, Note_on_c, 0, 67, 0
2, 87168, Note_on_c, 0, 64, 64
2, 87472, Note_on_c, 0, 64, 0
2, 87552, Note_on_c, 0, 65, 80
2, 87936, Note_on_c, 0, 65, 0
2, 87936, Note_on_c, 0, 66, 80
2, 88320, Note_on_c, 0, 66, 0
2, 88320, Note_on_c, 0, 65, 80
2, 88704, Note_on_c, 0, 65, 0
2, 88704, Note_on_c, 0, 64, 80
2, 89088, Note_on_c, 0, 64, 0
2, 89088, Note_on_c, 0, 65, 80
2, 89392, Note_on_c, 0, 65, 0
2, 89472, Note_on_c, 0, 77, 80
2, 89776, Note_on_c, 0, 77, 0
2, 89856, Note_on_c, 0, 65, 80
2, 90160, Note_on_c, 0, 65, 0
2, 102144, Note_on_c, 0, 72, 80
2, 102336, Note_on_c, 0, 72, 0
2, 102336, Note_on_c, 0, 70, 80
2, 102488, Note_on_c, 0, 70, 0
2, 102528, Note_on_c, 0, 69, 80
2, 102680, Note_on_c, 0, 69, 0
2, 102720, Note_on_c, 0, 69, 80
2, 102872, Note_on_c, 0, 69, 0
2, 102912, Note_on_c, 0, 74, 80
2, 103104, Note_on_c, 0, 74, 0
2, 103104, Note_on_c, 0, 72, 80
2, 103256, Note_on_c, 0, 72, 0
2, 103296, Note_on_c, 0, 70, 80
2, 103448, Note_on_c, 0, 70, 0
2, 103488, Note_on_c, 0, 72, 80
2, 103640, Note_on_c, 0, 72, 0
2, 103680, Note_on_c, 0, 75, 80
2, 103872, Note_on_c, 0, 75, 0
2, 103872, Note_on_c, 0, 74, 80
2, 104024, Note_on_c, 0, 74, 0
2, 104064, Note_on_c, 0, 72, 80
2, 104216, Note_on_c, 0, 72, 0
2, 104256, Note_on_c, 0, 74, 80
2, 104408, Note_on_c, 0, 74, 0
2, 104448, Note_on_c, 0, 77, 80
2, 104640, Note_on_c, 0, 77, 0
2, 104640, Note_on_c, 0, 75, 80
2, 104792, Note_on_c, 0, 75, 0
2, 104832, Note_on_c, 0, 74, 80
2, 104984, Note_on_c, 0, 74, 0
2, 105024, Note_on_c, 0, 72, 80
2, 105176, Note_on_c, 0, 72, 0
2, 105216, Note_on_c, 0, 70, 80
2, 105520, Note_on_c, 0, 70, 0
2, 105600, Note_on_c, 0, 77, 80
2, 105904, Note_on_c, 0, 77, 0
2, 105984, Note_on_c, 0, 65, 80
2, 105984, Note_on_c, 0, 77, 80
2, 108288, Note_on_c, 0, 77, 0
2, 108288, Note_on_c, 0, 65, 0
2, 108288, Note_on_c, 0, 70, 80
2, 108480, Note_on_c, 0, 70, 0
2, 108480, Note_on_c, 0, 82, 80
2, 108632, Note_on_c, 0, 82, 0
2, 108672, Note_on_c, 0, 82, 80
2, 108824, Note_on_c, 0, 82, 0
2, 108864, Note_on_c, 0, 82, 80
2, 109016, Note_on_c, 0, 82, 0
2, 109056, Note_on_c, 0, 82, 80
2, 109248, Note_on_c, 0, 82, 0
2, 109248, Note_on_c, 0, 81, 80
2, 109400, Note_on_c, 0, 81, 0
2, 109440, Note_on_c, 0, 79, 80
2, 109592, Note_on_c, 0, 79, 0
2, 109632, Note_on_c, 0, 77, 80
2, 109784, Note_on_c, 0, 77, 0
2, 109824, Note_on_c, 0, 75, 80
2, 110016, Note_on_c, 0, 75, 0
2, 110016, Note_on_c, 0, 79, 80
2, 110168, Note_on_c, 0, 79, 0
2, 110208, Note_on_c, 0, 79, 80
2, 110360, Note_on_c, 0, 79, 0
2, 110400, Note_on_c, 0, 79, 80
2, 110552, Note_on_c, 0, 79, 0
2, 110592, Note_on_c, 0, 79, 80
2, 110784, Note_on_c, 0, 79, 0
2, 110784, Note_on_c, 0, 77, 80
2, 110936, Note_on_c, 0, 77, 0
2, 110976, Note_on_c, 0, 75, 80
2, 111128, Note_on_c, 0, 75, 0
2, 111168, Note_on_c, 0, 74, 80
2, 111320, Note_on_c, 0, 74, 0
2, 111360, Note_on_c, 0, 72, 80
2, 111552, Note_on_c, 0, 72, 0
2, 111552, Note_on_c, 0, 75, 80
2, 111704, Note_on_c, 0, 75, 0
2, 111744, Note_on_c, 0, 75, 80
2, 111896, Note_on_c, 0, 75, 0
2, 111936, Note_on_c, 0, 75, 80
2, 112088, Note_on_c, 0, 75, 0
2, 112128, Note_on_c, 0, 75, 80
2, 112320, Note_on_c, 0, 75, 0
2, 112320, Note_on_c, 0, 74, 80
2, 112472, Note_on_c, 0, 74, 0
2, 112512, Note_on_c, 0, 77, 80
2, 112664, Note_on_c, 0, 77, 0
2, 112704, Note_on_c, 0, 70, 80
2, 112856, Note_on_c, 0, 70, 0
2, 112896, Note_on_c, 0, 74, 80
2, 113088, Note_on_c, 0, 74, 0
2, 113088, Note_on_c, 0, 72, 80
2, 113240, Note_on_c, 0, 72, 0
2, 113280, Note_on_c, 0, 70, 80
2, 113432, Note_on_c, 0, 70, 0
2, 113472, Note_on_c, 0, 69, 80
2, 113624, Note_on_c, 0, 69, 0
2, 113664, Note_on_c, 0, 70, 64
2, 113968, Note_on_c, 0, 70, 0
2, 114432, Note_on_c, 0, 74, 64
2, 114432, Note_on_c, 0, 82, 64
2, 115200, Note_on_c, 0, 82, 0
2, 115200, Note_on_c, 0, 74, 0
2, 115200, Note_on_c, 0, 70, 64
2, 115200, Note_on_c, 0, 79, 64
2, 115504, Note_on_c, 0, 79, 0
2, 115504, Note_on_c, 0, 70, 0
2, 115968, Note_on_c, 0, 70, 64
2, 115968, Note_on_c, 0, 79, 64
2, 116736, Note_on_c, 0, 79, 0
2, 116736, Note_on_c, 0, 70, 0
2, 116736, Note_on_c, 0, 70, 64
2, 116736, Note_on_c, 0, 77, 64
2, 117040, Note_on_c, 0, 77, 0
2, 117040, Note_on_c, 0, 70, 0
2, 117120, Note_on_c, 0, 74, 64
2, 117120, Note_on_c, 0, 82, 64
2, 117424, Note_on_c, 0, 82, 0
2, 117424, Note_on_c, 0, 74, 0
2, 117504, Note_on_c, 0, 72, 64
2, 117808, Note_on_c, 0, 72, 0
2, 117888, Note_on_c, 0, 75, 64
2, 117888, Note_on_c, 0, 81, 64
2, 118192, Note_on_c, 0, 81, 0
2, 118192, Note_on_c, 0, 75, 0
2, 118272, Note_on_c, 0, 74, 80
2, 118272, Note_on_c, 0, 82, 80
2, 119040, Note_on_c, 0, 82, 0
2, 119040, Note_on_c, 0, 77, 80
2, 119808, Note_on_c, 0, 77, 0
2, 119808, Note_on_c, 0, 74, 0
2, 119808, Note_on_c, 0, 72, 80
2, 119808, Note_on_c, 0, 75, 80
2, 120576, Note_on_c, 0, 75, 0
2, 120576, Note_on_c, 0, 72, 0
2, 120576, Note_on_c, 0, 69, 80
2, 120576, Note_on_c, 0, 72, 80
2, 121344, Note_on_c, 0, 72, 0
2, 121344, Note_on_c, 0, 69, 0
2, 121344, Note_on_c, 0, 70, 80
2, 121344, Note_on_c, 0, 74, 80
2, 122112, Note_on_c, 0, 74, 0
2, 122112, Note_on_c, 0, 70, 0
2, 122112, Note_on_c, 0, 74, 80
2, 122112, Note_on_c, 0, 77, 80
2, 122880, Note_on_c, 0, 77, 0
2, 122880, Note_on_c, 0, 74, 0
2, 122880, Note_on_c, 0, 72, 80
2, 122880, Note_on_c, 0, 75, 80
2, 123648, Note_on_c, 0, 75, 0
2, 123648, Note_on_c, 0, 72, 0
2, 123648, Note_on_c, 0, 69, 80
2, 123648, Note_on_c, 0, 72, 80
2, 124416, Note_on_c, 0, 72, 0
2, 124416, Note_on_c, 0, 69, 0
2, 124416, Note_on_c, 0, 70, 80
2, 124720, Note_on_c, 0, 70, 0
2, 124800, Note_on_c, 0, 70, 80
2, 125184, Note_on_c, 0, 70, 0
2, 125184, Note_on_c, 0, 72, 80
2, 125568, Note_on_c, 0, 72, 0
2, 125568, Note_on_c, 0, 74, 80
2, 125952, Note_on_c, 0, 74, 0
2, 125952, Note_on_c, 0, 75, 80
2, 126336, Note_on_c, 0, 75, 0
2, 126336, Note_on_c, 0, 72, 80
2, 126720, Note_on_c, 0, 72, 0
2, 126720, Note_on_c, 0, 69, 80
2, 127104, Note_on_c, 0, 69, 0
2, 127104, Note_on_c, 0, 78, 80
2, 127488, Note_on_c, 0, 78, 0
2, 127488, Note_on_c, 0, 79, 80
2, 129024, Note_on_c, 0, 79, 0
2, 129024, Note_on_c, 0, 74, 80
2, 130560, Note_on_c, 0, 74, 0
2, 130560, Note_on_c, 0, 75, 80
2, 132096, Note_on_c, 0, 75, 0
2, 132096, Note_on_c, 0, 66, 80
2, 133632, Note_on_c, 0, 66, 0
2, 133632, Note_on_c, 0, 67, 80
2, 133936, Note_on_c, 0, 67, 0
2, 134400, Note_on_c, 0, 82, 80
2, 134496, Note_on_c, 0, 82, 0
2, 134496, Note_on_c, 0, 81, 80
2, 134592, Note_on_c, 0, 81, 0
2, 134592, Note_on_c, 0, 79, 80
2, 134688, Note_on_c, 0, 79, 0
2, 134688, Note_on_c, 0, 78, 80
2, 134784, Note_on_c, 0, 78, 0
2, 134784, Note_on_c, 0, 79, 80
2, 135088, Note_on_c, 0, 79, 0
2, 135936, Note_on_c, 0, 82, 80
2, 136032, Note_on_c, 0, 82, 0
2, 136032, Note_on_c, 0, 81, 80
2, 136128, Note_on_c, 0, 81, 0
2, 136128, Note_on_c, 0, 79, 80
2, 136224, Note_on_c, 0, 79, 0
2, 136224, Note_on_c, 0, 78, 80
2, 136320, Note_on_c, 0, 78, 0
2, 136320, Note_on_c, 0, 79, 80
2, 136624, Note_on_c, 0, 79, 0
2, 137472, Note_on_c, 0, 84, 80
2, 137568, Note_on_c, 0, 84, 0
2, 137568, Note_on_c, 0, 82, 80
2, 137664, Note_on_c, 0, 82, 0
2, 137664, Note_on_c, 0, 81, 80
2, 137760, Note_on_c, 0, 81, 0
2, 137760, Note_on_c, 0, 79, 80
2, 137836, Note_on_c, 0, 79, 0
2, 137856, Note_on_c, 0, 81, 80
2, 138160, Note_on_c, 0, 81, 0
2, 139008, Note_on_c, 0, 84, 80
2, 139104, Note_on_c, 0, 84, 0
2, 139104, Note_on_c, 0, 82, 80
2, 139200, Note_on_c, 0, 82, 0
2, 139200, Note_on_c, 0, 81, 80
2, 139296, Note_on_c, 0, 81, 0
2, 139296, Note_on_c, 0, 79, 80
2, 139372, Note_on_c, 0, 79, 0
2, 139392, Note_on_c, 0, 81, 80
2, 139696, Note_on_c, 0, 81, 0
2, 140544, Note_on_c, 0, 86, 80
2, 140640, Note_on_c, 0, 86, 0
2, 140640, Note_on_c, 0, 84, 80
2, 140736, Note_on_c, 0, 84, 0
2, 140736, Note_on_c, 0, 82, 80
2, 140832, Note_on_c, 0, 82, 0
2, 140832, Note_on_c, 0, 81, 80
2, 140928, Note_on_c, 0, 81, 0
2, 140928, Note_on_c, 0, 82, 80
2, 141232, Note_on_c, 0, 82, 0
2, 141312, Note_on_c, 0, 82, 80
2, 141408, Note_on_c, 0, 82, 0
2, 141408, Note_on_c, 0, 81, 80
2, 141504, Note_on_c, 0, 81, 0
2, 141504, Note_on_c, 0, 79, 80
2, 141600, Note_on_c, 0, 79, 0
2, 141600, Note_on_c, 0, 78, 80
2, 141696, Note_on_c, 0, 78, 0
2, 141696, Note_on_c, 0, 79, 80
2, 142000, Note_on_c, 0, 79, 0
2, 142080, Note_on_c, 0, 79, 80
2, 142176, Note_on_c, 0, 79, 0
2, 142176, Note_on_c, 0, 77, 80
2, 142272, Note_on_c, 0, 77, 0
2, 142272, Note_on_c, 0, 75, 80
2, 142368, Note_on_c, 0, 75, 0
2, 142368, Note_on_c, 0, 74, 80
2, 142464, Note_on_c, 0, 74, 0
2, 142464, Note_on_c, 0, 75, 80
2, 142560, Note_on_c, 0, 75, 0
2, 142560, Note_on_c, 0, 74, 80
2, 142656, Note_on_c, 0, 74, 0
2, 142656, Note_on_c, 0, 72, 80
2, 142752, Note_on_c, 0, 72, 0
2, 142752, Note_on_c, 0, 70, 80
2, 142848, Note_on_c, 0, 70, 0
2, 142848, Note_on_c, 0, 72, 80
2, 143076, Note_on_c, 0, 72, 0
2, 143136, Note_on_c, 0, 72, 80
2, 143212, Note_on_c, 0, 72, 0
2, 143232, Note_on_c, 0, 70, 80
2, 143460, Note_on_c, 0, 70, 0
2, 143520, Note_on_c, 0, 70, 80
2, 143596, Note_on_c, 0, 70, 0
2, 143616, Note_on_c, 0, 69, 80
2, 143844, Note_on_c, 0, 69, 0
2, 143904, Note_on_c, 0, 69, 80
2, 143980, Note_on_c, 0, 69, 0
2, 144000, Note_on_c, 0, 67, 80
2, 144228, Note_on_c, 0, 67, 0
2, 144288, Note_on_c, 0, 67, 80
2, 144364, Note_on_c, 0, 67, 0
2, 144384, Note_on_c, 0, 66, 80
2, 144688, Note_on_c, 0, 66, 0
2, 144768, Note_on_c, 0, 74, 64
2, 145072, Note_on_c, 0, 74, 0
2, 145920, Note_on_c, 0, 79, 80
2, 147456, Note_on_c, 0, 79, 0
2, 147456, Note_on_c, 0, 74, 80
2, 148992, Note_on_c, 0, 74, 0
2, 148992, Note_on_c, 0, 75, 80
2, 150528, Note_on_c, 0, 75, 0
2, 150528, Note_on_c, 0, 66, 80
2, 152064, Note_on_c, 0, 66, 0
2, 152064, Note_on_c, 0, 79, 80
2, 152064, Note_on_c, 0, 67, 80
2, 152368, Note_on_c, 0, 67, 0
2, 153600, Note_on_c, 0, 79, 0
2, 153600, Note_on_c, 0, 74, 80
2, 155136, Note_on_c, 0, 74, 0
2, 155136, Note_on_c, 0, 75, 80
2, 156672, Note_on_c, 0, 75, 0
2, 156672, Note_on_c, 0, 66, 80
2, 158208, Note_on_c, 0, 66, 0
2, 158208, Note_on_c, 0, 67, 80
2, 159744, Note_on_c, 0, 67, 0
2, 159744, Note_on_c, 0, 79, 80
2, 161280, Note_on_c, 0, 79, 0
2, 161280, Note_on_c, 0, 82, 80
2, 162816, Note_on_c, 0, 82, 0
2, 162816, Note_on_c, 0, 73, 80
2, 164352, Note_on_c, 0, 73, 0
2, 164352, Note_on_c, 0, 74, 80
2, 164928, Note_on_c, 0, 74, 0
2, 164928, Note_on_c, 0, 73, 76
2, 165120, Note_on_c, 0, 73, 0
2, 165120, Note_on_c, 0, 74, 75
2, 165312, Note_on_c, 0, 74, 0
2, 165312, Note_on_c, 0, 73, 74
2, 165504, Note_on_c, 0, 73, 0
2, 165504, Note_on_c, 0, 74, 72
2, 165696, Note_on_c, 0, 74, 0
2, 165696, Note_on_c, 0, 73, 71
2, 165888, Note_on_c, 0, 73, 0
2, 165888, Note_on_c, 0, 74, 70
2, 166464, Note_on_c, 0, 74, 0
2, 166464, Note_on_c, 0, 73, 66
2, 166656, Note_on_c, 0, 73, 0
2, 166656, Note_on_c, 0, 74, 65
2, 166848, Note_on_c, 0, 74, 0
2, 166848, Note_on_c, 0, 73, 64
2, 167040, Note_on_c, 0, 73, 0
2, 167040, Note_on_c, 0, 74, 62
2, 167232, Note_on_c, 0, 74, 0
2, 167232, Note_on_c, 0, 73, 61
2, 167424, Note_on_c, 0, 73, 0
2, 167424, Note_on_c, 0, 74, 60
2, 167728, Note_on_c, 0, 74, 0
2, 168192, Note_on_c, 0, 74, 52
2, 168496, Note_on_c, 0, 74, 0
2, 168960, Note_on_c, 0, 74, 40
2, 169264, Note_on_c, 0, 74, 0
2, 170496, Note_on_c, 0, 70, 80
2, 172032, Note_on_c, 0, 70, 0
2, 172032, Note_on_c, 0, 82, 80
2, 173568, Note_on_c, 0, 82, 0
2, 173568, Note_on_c, 0, 81, 80
2, 173952, Note_on_c, 0, 81, 0
2, 176640, Note_on_c, 0, 70, 80
2, 178176, Note_on_c, 0, 70, 0
2, 178176, Note_on_c, 0, 82, 80
2, 179712, Note_on_c, 0, 82, 0
2, 179712, Note_on_c, 0, 81, 80
2, 180096, Note_on_c, 0, 81, 0
2, 183552, Note_on_c, 0, 82, 64
2, 183552, Note_on_c, 0, 74, 64
2, 184164, Note_on_c, 0, 74, 0
2, 184164, Note_on_c, 0, 82, 0
2, 185088, Note_on_c, 0, 82, 64
2, 185088, Note_on_c, 0, 74, 64
2, 185700, Note_on_c, 0, 74, 0
2, 185700, Note_on_c, 0, 82, 0
2, 186624, Note_on_c, 0, 79, 64
2, 186624, Note_on_c, 0, 70, 64
2, 187236, Note_on_c, 0, 70, 0
2, 187236, Note_on_c, 0, 79, 0
2, 188160, Note_on_c, 0, 79, 64
2, 188160, Note_on_c, 0, 70, 64
2, 188772, Note_on_c, 0, 70, 0
2, 188772, Note_on_c, 0, 79, 0
2, 189696, Note_on_c, 0, 84, 64
2, 189696, Note_on_c, 0, 75, 64
2, 190308, Note_on_c, 0, 75, 0
2, 190308, Note_on_c, 0, 84, 0
2, 191232, Note_on_c, 0, 84, 64
2, 191232, Note_on_c, 0, 75, 64
2, 191844, Note_on_c, 0, 75, 0
2, 191844, Note_on_c, 0, 84, 0
2, 192768, Note_on_c, 0, 77, 64
2, 192768, Note_on_c, 0, 69, 64
2, 193380, Note_on_c, 0, 69, 0
2, 193380, Note_on_c, 0, 77, 0
2, 194304, Note_on_c, 0, 77, 64
2, 194304, Note_on_c, 0, 69, 64
2, 194916, Note_on_c, 0, 69, 0
2, 194916, Note_on_c, 0, 77, 0
2, 195840, Note_on_c, 0, 82, 64
2, 195840, Note_on_c, 0, 74, 64
2, 196452, Note_on_c, 0, 74, 0
2, 196452, Note_on_c, 0, 82, 0
2, 197376, Note_on_c, 0, 82, 64
2, 197376, Note_on_c, 0, 74, 64
2, 197988, Note_on_c, 0, 74, 0
2, 197988, Note_on_c, 0, 82, 0
2, 198912, Note_on_c, 0, 75, 64
2, 198912, Note_on_c, 0, 67, 64
2, 199524, Note_on_c, 0, 67, 0
2, 199524, Note_on_c, 0, 75, 0
2, 200448, Note_on_c, 0, 75, 64
2, 200448, Note_on_c, 0, 67, 64
2, 201060, Note_on_c, 0, 67, 0
2, 201060, Note_on_c, 0, 75, 0
2, 202752, Note_on_c, 0, 75, 64
2, 203056, Note_on_c, 0, 75, 0
2, 203136, Note_on_c, 0, 72, 64
2, 203440, Note_on_c, 0, 72, 0
2, 203520, Note_on_c, 0, 69, 64
2, 203824, Note_on_c, 0, 69, 0
2, 203904, Note_on_c, 0, 65, 64
2, 204208, Note_on_c, 0, 65, 0
2, 205824, Note_on_c, 0, 82, 64
2, 206128, Note_on_c, 0, 82, 0
2, 206208, Note_on_c, 0, 77, 64
2, 206512, Note_on_c, 0, 77, 0
2, 206592, Note_on_c, 0, 74, 64
2, 206896, Note_on_c, 0, 74, 0
2, 206976, Note_on_c, 0, 70, 64
2, 207280, Note_on_c, 0, 70, 0
2, 208896, Note_on_c, 0, 82, 64
2, 209200, Note_on_c, 0, 82, 0
2, 209280, Note_on_c, 0, 77, 64
2, 209584, Note_on_c, 0, 77, 0
2, 209664, Note_on_c, 0, 73, 64
2, 209968, Note_on_c, 0, 73, 0
2, 210048, Note_on_c, 0, 70, 64
2, 210352, Note_on_c, 0, 70, 0
2, 211968, Note_on_c, 0, 73, 64
2, 212272, Note_on_c, 0, 73, 0
2, 212352, Note_on_c, 0, 70, 64
2, 212656, Note_on_c, 0, 70, 0
2, 212736, Note_on_c, 0, 67, 64
2, 213040, Note_on_c, 0, 67, 0
2, 213120, Note_on_c, 0, 64, 64
2, 213424, Note_on_c, 0, 64, 0
2, 213504, Note_on_c, 0, 65, 80
2, 213888, Note_on_c, 0, 65, 0
2, 213888, Note_on_c, 0, 66, 80
2, 214272, Note_on_c, 0, 66, 0
2, 214272, Note_on_c, 0, 65, 80
2, 214656, Note_on_c, 0, 65, 0
2, 214656, Note_on_c, 0, 64, 80
2, 215040, Note_on_c, 0, 64, 0
2, 215040, Note_on_c, 0, 65, 80
2, 215344, Note_on_c, 0, 65, 0
2, 215424, Note_on_c, 0, 77, 80
2, 215728, Note_on_c, 0, 77, 0
2, 215808, Note_on_c, 0, 65, 80
2, 216112, Note_on_c, 0, 65, 0
2, 228096, Note_on_c, 0, 72, 80
2, 228288, Note_on_c, 0, 72, 0
2, 228288, Note_on_c, 0, 70, 80
2, 228440, Note_on_c, 0, 70, 0
2, 228480, Note_on_c, 0, 69, 80
2, 228632, Note_on_c, 0, 69, 0
2, 228672, Note_on_c, 0, 69, 80
2, 228824, Note_on_c, 0, 69, 0
2, 228864, Note_on_c, 0, 74, 80
2, 229056, Note_on_c, 0, 74, 0
2, 229056, Note_on_c, 0, 72, 80
2, 229208, Note_on_c, 0, 72, 0
2, 229248, Note_on_c, 0, 70, 80
2, 229400, Note_on_c, 0, 70, 0
2, 229440, Note_on_c, 0, 72, 80
2, 229592, Note_on_c, 0, 72, 0
2, 229632, Note_on_c, 0, 75, 80
2, 229824, Note_on_c, 0, 75, 0
2, 229824, Note_on_c, 0, 74, 80
2, 229976, Note_on_c, 0, 74, 0
2, 230016, Note_on_c, 0, 72, 80
2, 230168, Note_on_c, 0, 72, 0
2, 230208, Note_on_c, 0, 74, 80
2, 230360, Note_on_c, 0, 74, 0
2, 230400, Note_on_c, 0, 77, 80
2, 230592, Note_on_c, 0, 77, 0
2, 230592, Note_on_c, 0, 75, 80
2, 230744, Note_on_c, 0, 75, 0
2, 230784, Note_on_c, 0, 74, 80
2, 230936, Note_on_c, 0, 74, 0
2, 230976, Note_on_c, 0, 72, 80
2, 231128, Note_on_c, 0, 72, 0
2, 231168, Note_on_c, 0, 70, 80
2, 231472, Note_on_c, 0, 70, 0
2, 231552, Note_on_c, 0, 77, 80
2, 231856, Note_on_c, 0, 77, 0
2, 231936, Note_on_c, 0, 77, 80
2, 231936, Note_on_c, 0, 65, 80
2, 234240, Note_on_c, 0, 65, 0
2, 234240, Note_on_c, 0, 77, 0
2, 234240, Note_on_c, 0, 70, 80
2, 234432, Note_on_c, 0, 70, 0
2, 234432, Note_on_c, 0, 82, 80
2, 234584, Note_on_c, 0, 82, 0
2, 234624, Note_on_c, 0, 82, 80
2, 234776, Note_on_c, 0, 82, 0
2, 234816, Note_on_c, 0, 82, 80
2, 234968, Note_on_c, 0, 82, 0
2, 235008, Note_on_c, 0, 82, 80
2, 235200, Note_on_c, 0, 82, 0
2, 235200, Note_on_c, 0, 81, 80
2, 235352, Note_on_c, 0, 81, 0
2, 235392, Note_on_c, 0, 79, 80
2, 235544, Note_on_c, 0, 79, 0
2, 235584, Note_on_c, 0, 77, 80
2, 235736, Note_on_c, 0, 77, 0
2, 235776, Note_on_c, 0, 75, 80
2, 235968, Note_on_c, 0, 75, 0
2, 235968, Note_on_c, 0, 79, 80
2, 236120, Note_on_c, 0, 79, 0
2, 236160, Note_on_c, 0, 79, 80
2, 236312, Note_on_c, 0, 79, 0
2, 236352, Note_on_c, 0, 79, 80
2, 236504, Note_on_c, 0, 79, 0
2, 236544, Note_on_c, 0, 79, 80
2, 236736, Note_on_c, 0, 79, 0
2, 236736, Note_on_c, 0, 77, 80
2, 236888, Note_on_c, 0, 77, 0
2, 236928, Note_on_c, 0, 75, 80
2, 237080, Note_on_c, 0, 75, 0
2, 237120, Note_on_c, 0, 74, 80
2, 237272, Note_on_c, 0, 74, 0
2, 237312, Note_on_c, 0, 72, 80
2, 237504, Note_on_c, 0, 72, 0
2, 237504, Note_on_c, 0, 75, 80
2, 237656, Note_on_c, 0, 75, 0
2, 237696, Note_on_c, 0, 75, 80
2, 237848, Note_on_c, 0, 75, 0
2, 237888, Note_on_c, 0, 75, 80
2, 238040, Note_on_c, 0, 75, 0
2, 238080, Note_on_c, 0, 75, 80
2, 238272, Note_on_c, 0, 75, 0
2, 238272, Note_on_c, 0, 74, 80
2, 238424, Note_on_c, 0, 74, 0
2, 238464, Note_on_c, 0, 77, 80
2, 238616, Note_on_c, 0, 77, 0
2, 238656, Note_on_c, 0, 70, 80
2, 238808, Note_on_c, 0, 70, 0
2, 238848, Note_on_c, 0, 74, 80
2, 239040, Note_on_c, 0, 74, 0
2, 239040, Note_on_c, 0, 72, 80
2, 239192, Note_on_c, 0, 72, 0
2, 239232, Note_on_c, 0, 70, 80
2, 239384, Note_on_c, 0, 70, 0
2, 239424, Note_on_c, 0, 69, 80
2, 239576, Note_on_c, 0, 69, 0
2, 239616, Note_on_c, 0, 70, 64
2, 239920, Note_on_c, 0, 70, 0
2, 240384, Note_on_c, 0, 82, 64
2, 240384, Note_on_c, 0, 74, 64
2, 241152, Note_on_c, 0, 74, 0
2, 241152, Note_on_c, 0, 82, 0
2, 241152, Note_on_c, 0, 79, 64
2, 241152, Note_on_c, 0, 70, 64
2, 241456, Note_on_c, 0, 70, 0
2, 241456, Note_on_c, 0, 79, 0
2, 241920, Note_on_c, 0, 79, 64
2, 241920, Note_on_c, 0, 70, 64
2, 242688, Note_on_c, 0, 70, 0
2, 242688, Note_on_c, 0, 79, 0
2, 242688, Note_on_c, 0, 77, 64
2, 242688, Note_on_c, 0, 70, 64
2, 242992, Note_on_c, 0, 70, 0
2, 242992, Note_on_c, 0, 77, 0
2, 243072, Note_on_c, 0, 82, 64
2, 243072, Note_on_c, 0, 74, 64
2, 243376, Note_on_c, 0, 74, 0
2, 243376, Note_on_c, 0, 82, 0
2, 243456, Note_on_c, 0, 72, 64
2, 243760, Note_on_c, 0, 72, 0
2, 243840, Note_on_c, 0, 81, 64
2, 243840, Note_on_c, 0, 75, 64
2, 244144, Note_on_c, 0, 75, 0
2, 244144, Note_on_c, 0, 81, 0
2, 244224, Note_on_c, 0, 82, 80
2, 244224, Note_on_c, 0, 74, 80
2, 244992, Note_on_c, 0, 82, 0
2, 244992, Note_on_c, 0, 77, 80
2, 245760, Note_on_c, 0, 77, 0
2, 245760, Note_on_c, 0, 74, 0
2, 245760, Note_on_c, 0, 75, 80
2, 245760, Note_on_c, 0, 72, 80
2, 246528, Note_on_c, 0, 72, 0
2, 246528, Note_on_c, 0, 75, 0
2, 246528, Note_on_c, 0, 72, 80
2, 246528, Note_on_c, 0, 69, 80
2, 247296, Note_on_c, 0, 69, 0
2, 247296, Note_on_c, 0, 72, 0
2, 247296, Note_on_c, 0, 74, 80
2, 247296, Note_on_c, 0, 70, 80
2, 248064, Note_on_c, 0, 70, 0
2, 248064, Note_on_c, 0, 74, 0
2, 248064, Note_on_c, 0, 77, 80
2, 248064, Note_on_c, 0, 74, 80
2, 248832, Note_on_c, 0, 74, 0
2, 248832, Note_on_c, 0, 77, 0
2, 248832, Note_on_c, 0, 75, 80
2, 248832, Note_on_c, 0, 72, 80
2, 249600, Note_on_c, 0, 72, 0
2, 249600, Note_on_c, 0, 75, 0
2, 249600, Note_on_c, 0, 72, 80
2, 249600, Note_on_c, 0, 69, 80
2, 250368, Note_on_c, 0, 69, 0
2, 250368, Note_on_c, 0, 72, 0
2, 250368, Note_on_c, 0, 70, 80
2, 250672, Note_on_c, 0, 70, 0
2, 250752, Note_on_c, 0, 70, 80
2, 251136, Note_on_c, 0, 70, 0
2, 251136, Note_on_c, 0, 72, 80
2, 251520, Note_on_c, 0, 72, 0
2, 251520, Note_on_c, 0, 74, 80
2, 251904, Note_on_c, 0, 74, 0
2, 251904, Note_on_c, 0, 75, 80
2, 252288, Note_on_c, 0, 75, 0
2, 252288, Note_on_c, 0, 72, 80
2, 252672, Note_on_c, 0, 72, 0
2, 252672, Note_on_c, 0, 69, 80
2, 253056, Note_on_c, 0, 69, 0
2, 253056, Note_on_c, 0, 78, 80
2, 253440, Note_on_c, 0, 78, 0
2, 253440, Note_on_c, 0, 79, 80
2, 253728, Note_on_c, 0, 79, 0
2, 253824, Note_on_c, 0, 67, 80
2, 254208, Note_on_c, 0, 67, 0
2, 254208, Note_on_c, 0, 68, 80
2, 254592, Note_on_c, 0, 68, 0
2, 254592, Note_on_c, 0, 70, 80
2, 254976, Note_on_c, 0, 70, 0
2, 254976, Note_on_c, 0, 72, 80
2, 255360, Note_on_c, 0, 72, 0
2, 255360, Note_on_c, 0, 68, 80
2, 255744, Note_on_c, 0, 68, 0
2, 255744, Note_on_c, 0, 65, 80
2, 256128, Note_on_c, 0, 65, 0
2, 256128, Note_on_c, 0, 74, 80
2, 256512, Note_on_c, 0, 74, 0
2, 256512, Note_on_c, 0, 75, 80
2, 256800, Note_on_c, 0, 75, 0
2, 256896, Note_on_c, 0, 63, 80
2, 257280, Note_on_c, 0, 63, 0
2, 257280, Note_on_c, 0, 65, 80
2, 257664, Note_on_c, 0, 65, 0
2, 257664, Note_on_c, 0, 67, 80
2, 258048, Note_on_c, 0, 67, 0
2, 258048, Note_on_c, 0, 68, 80
2, 258432, Note_on_c, 0, 68, 0
2, 258432, Note_on_c, 0, 65, 80
2, 258816, Note_on_c, 0, 65, 0
2, 258816, Note_on_c, 0, 62, 80
2, 259200, Note_on_c, 0, 62, 0
2, 259200, Note_on_c, 0, 71, 80
2, 259584, Note_on_c, 0, 71, 0
2, 259584, Note_on_c, 0, 72, 80
2, 261120, Note_on_c, 0, 72, 0
2, 261120, Note_on_c, 0, 67, 80
2, 261120, Note_on_c, 0, 75, 80
2, 262656, Note_on_c, 0, 75, 0
2, 262656, Note_on_c, 0, 67, 0
2, 262656, Note_on_c, 0, 66, 80
2, 262656, Note_on_c, 0, 74, 80
2, 264192, Note_on_c, 0, 74, 0
2, 264192, Note_on_c, 0, 66, 0
2, 264192, Note_on_c, 0, 69, 80
2, 264192, Note_on_c, 0, 78, 80
2, 265728, Note_on_c, 0, 78, 0
2, 265728, Note_on_c, 0, 69, 0
2, 265728, Note_on_c, 0, 74, 80
2, 265728, Note_on_c, 0, 79, 80
2, 267264, Note_on_c, 0, 74, 0
2, 267264, Note_on_c, 0, 70, 80
2, 268800, Note_on_c, 0, 70, 0
2, 268800, Note_on_c, 0, 79, 0
2, 268800, Note_on_c, 0, 73, 80
2, 268800, Note_on_c, 0, 76, 80
2, 270336, Note_on_c, 0, 76, 0
2, 270336, Note_on_c, 0, 73, 0
2, 270336, Note_on_c, 0, 73, 80
2, 270336, Note_on_c, 0, 79, 80
2, 271104, Note_on_c, 0, 73, 0
2, 271104, Note_on_c, 0, 76, 80
2, 271488, Note_on_c, 0, 76, 0
2, 271488, Note_on_c, 0, 73, 80
2, 271872, Note_on_c, 0, 73, 0
2, 271872, Note_on_c, 0, 79, 0
2, 271872, Note_on_c, 0, 74, 80
2, 271872, Note_on_c, 0, 77, 80
2, 273408, Note_on_c, 0, 77, 0
2, 273408, Note_on_c, 0, 80, 80
2, 274944, Note_on_c, 0, 80, 0
2, 274944, Note_on_c, 0, 74, 0
2, 274944, Note_on_c, 0, 73, 80
2, 274944, Note_on_c, 0, 81, 80
2, 275328, Note_on_c, 0, 73, 0
2, 276480, Note_on_c, 0, 81, 0
2, 276480, Note_on_c, 0, 73, 80
2, 278016, Note_on_c, 0, 73, 0
2, 278016, Note_on_c, 0, 74, 80
2, 279552, Note_on_c, 0, 74, 0
2, 279552, Note_on_c, 0, 68, 80
2, 281088, Note_on_c, 0, 68, 0
2, 281088, Note_on_c, 0, 69, 80
2, 281472, Note_on_c, 0, 69, 0
2, 281472, Note_on_c, 0, 81, 80
2, 281856, Note_on_c, 0, 81, 0
2, 281856, Note_on_c, 0, 82, 80
2, 282240, Note_on_c, 0, 82, 0
2, 282240, Note_on_c, 0, 80, 80
2, 282624, Note_on_c, 0, 80, 0
2, 282624, Note_on_c, 0, 81, 80
2, 283008, Note_on_c, 0, 81, 0
2, 283008, Note_on_c, 0, 79, 80
2, 283392, Note_on_c, 0, 79, 0
2, 283392, Note_on_c, 0, 77, 80
2, 283776, Note_on_c, 0, 77, 0
2, 283776, Note_on_c, 0, 76, 80
2, 284160, Note_on_c, 0, 76, 0
2, 284160, Note_on_c, 0, 86, 80
2, 284160, Note_on_c, 0, 74, 80
2, 284544, Note_on_c, 0, 74, 0
2, 285696, Note_on_c, 0, 86, 0
2, 285696, Note_on_c, 0, 78, 80
2, 287232, Note_on_c, 0, 78, 0
2, 287232, Note_on_c, 0, 79, 80
2, 288768, Note_on_c, 0, 79, 0
2, 288768, Note_on_c, 0, 73, 80
2, 290304, Note_on_c, 0, 73, 0
2, 290304, Note_on_c, 0, 74, 80
2, 290608, Note_on_c, 0, 74, 0
2, 290688, Note_on_c, 0, 74, 80
2, 291072, Note_on_c, 0, 74, 0
2, 291072, Note_on_c, 0, 75, 80
2, 291456, Note_on_c, 0, 75, 0
2, 291456, Note_on_c, 0, 73, 80
2, 291840, Note_on_c, 0, 73, 0
2, 291840, Note_on_c, 0, 74, 80
2, 292224, Note_on_c, 0, 74, 0
2, 292224, Note_on_c, 0, 72, 80
2, 292608, Note_on_c, 0, 72, 0
2, 292608, Note_on_c, 0, 70, 80
2, 292992, Note_on_c, 0, 70, 0
2, 292992, Note_on_c, 0, 69, 80
2, 293376, Note_on_c, 0, 69, 0
2, 293376, Note_on_c, 0, 67, 80
2, 293760, Note_on_c, 0, 67, 0
2, 302592, Note_on_c, 0, 66, 80
2, 302592, Control_c, 0, 7, 69
2, 302662, Control_c, 0, 7, 70
2, 302732, Control_c, 0, 7, 71
2, 302803, Control_c, 0, 7, 72
2, 302867, Control_c, 0, 7, 73
2, 302937, Control_c, 0, 7, 74
2, 303008, Control_c, 0, 7, 75
2, 303072, Control_c, 0, 7, 76
2, 303142, Control_c, 0, 7, 77
2, 303212, Control_c, 0, 7, 78
2, 303276, Control_c, 0, 7, 79
2, 303347, Control_c, 0, 7, 80
2, 303417, Control_c, 0, 7, 81
2, 303481, Control_c, 0, 7, 82
2, 303552, Control_c, 0, 7, 83
2, 303622, Control_c, 0, 7, 84
2, 303692, Control_c, 0, 7, 85
2, 303756, Control_c, 0, 7, 86
2, 303827, Control_c, 0, 7, 87
2, 303897, Control_c, 0, 7, 88
2, 303961, Control_c, 0, 7, 89
2, 304032, Control_c, 0, 7, 90
2, 304102, Control_c, 0, 7, 91
2, 304125, Control_c, 0, 7, 65
2, 304128, Note_on_c, 0, 66, 0
2, 304128, Note_on_c, 0, 78, 77
2, 304176, Control_c, 0, 7, 66
2, 304227, Control_c, 0, 7, 67
2, 304278, Control_c, 0, 7, 68
2, 304323, Control_c, 0, 7, 69
2, 304374, Control_c, 0, 7, 70
2, 304426, Control_c, 0, 7, 71
2, 304477, Control_c, 0, 7, 72
2, 304522, Control_c, 0, 7, 73
2, 304573, Control_c, 0, 7, 74
2, 304624, Control_c, 0, 7, 75
2, 304675, Control_c, 0, 7, 76
2, 304720, Control_c, 0, 7, 77
2, 304771, Control_c, 0, 7, 78
2, 304822, Control_c, 0, 7, 79
2, 304874, Control_c, 0, 7, 80
2, 304918, Control_c, 0, 7, 81
2, 304970, Control_c, 0, 7, 82
2, 305021, Control_c, 0, 7, 83
2, 305072, Control_c, 0, 7, 84
2, 305117, Control_c, 0, 7, 85
2, 305168, Control_c, 0, 7, 86
2, 305219, Control_c, 0, 7, 87
2, 305270, Control_c, 0, 7, 88
2, 305315, Control_c, 0, 7, 89
2, 305366, Control_c, 0, 7, 90
2, 305418, Control_c, 0, 7, 91
2, 305469, Control_c, 0, 7, 92
2, 305514, Control_c, 0, 7, 93
2, 305565, Control_c, 0, 7, 94
2, 305616, Control_c, 0, 7, 95
2, 305661, Control_c, 0, 7, 96
2, 305664, Note_on_c, 0, 78, 0
2, 305664, Note_on_c, 0, 79, 80
2, 307200, Note_on_c, 0, 79, 0
2, 307200, Note_on_c, 0, 74, 80
2, 308736, Note_on_c, 0, 74, 0
2, 308736, Note_on_c, 0, 75, 80
2, 310272, Note_on_c, 0, 75, 0
2, 310272, Note_on_c, 0, 66, 80
2, 311808, Note_on_c, 0, 66, 0
2, 311808, Note_on_c, 0, 67, 80
2, 312112, Note_on_c, 0, 67, 0
2, 312576, Note_on_c, 0, 82, 80
2, 312672, Note_on_c, 0, 82, 0
2, 312672, Note_on_c, 0, 81, 80
2, 312768, Note_on_c, 0, 81, 0
2, 312768, Note_on_c, 0, 79, 80
2, 312864, Note_on_c, 0, 79, 0
2, 312864, Note_on_c, 0, 78, 80
2, 312960, Note_on_c, 0, 78, 0
2, 312960, Note_on_c, 0, 79, 80
2, 313264, Note_on_c, 0, 79, 0
2, 314112, Note_on_c, 0, 82, 80
2, 314208, Note_on_c, 0, 82, 0
2, 314208, Note_on_c, 0, 81, 80
2, 314304, Note_on_c, 0, 81, 0
2, 314304, Note_on_c, 0, 79, 80
2, 314400, Note_on_c, 0, 79, 0
2, 314400, Note_on_c, 0, 78, 80
2, 314496, Note_on_c, 0, 78, 0
2, 314496, Note_on_c, 0, 79, 80
2, 314800, Note_on_c, 0, 79, 0
2, 315648, Note_on_c, 0, 84, 80
2, 315744, Note_on_c, 0, 84, 0
2, 315744, Note_on_c, 0, 82, 80
2, 315840, Note_on_c, 0, 82, 0
2, 315840, Note_on_c, 0, 81, 80
2, 315936, Note_on_c, 0, 81, 0
2, 315936, Note_on_c, 0, 79, 80
2, 316012, Note_on_c, 0, 79, 0
2, 316032, Note_on_c, 0, 81, 80
2, 316336, Note_on_c, 0, 81, 0
2, 317184, Note_on_c, 0, 84, 80
2, 317280, Note_on_c, 0, 84, 0
2, 317280, Note_on_c, 0, 82, 80
2, 317376, Note_on_c, 0, 82, 0
2, 317376, Note_on_c, 0, 81, 80
2, 317472, Note_on_c, 0, 81, 0
2, 317472, Note_on_c, 0, 79, 80
2, 317548, Note_on_c, 0, 79, 0
2, 317568, Note_on_c, 0, 81, 80
2, 317872, Note_on_c, 0, 81, 0
2, 318720, Note_on_c, 0, 86, 80
2, 318816, Note_on_c, 0, 86, 0
2, 318816, Note_on_c, 0, 84, 80
2, 318912, Note_on_c, 0, 84, 0
2, 318912, Note_on_c, 0, 82, 80
2, 319008, Note_on_c, 0, 82, 0
2, 319008, Note_on_c, 0, 81, 80
2, 319104, Note_on_c, 0, 81, 0
2, 319104, Note_on_c, 0, 82, 80
2, 319408, Note_on_c, 0, 82, 0
2, 319488, Note_on_c, 0, 82, 80
2, 319584, Note_on_c, 0, 82, 0
2, 319584, Note_on_c, 0, 81, 80
2, 319680, Note_on_c, 0, 81, 0
2, 319680, Note_on_c, 0, 79, 80
2, 319776, Note_on_c, 0, 79, 0
2, 319776, Note_on_c, 0, 78, 80
2, 319872, Note_on_c, 0, 78, 0
2, 319872, Note_on_c, 0, 79, 80
2, 320176, Note_on_c, 0, 79, 0
2, 320256, Note_on_c, 0, 79, 80
2, 320352, Note_on_c, 0, 79, 0
2, 320352, Note_on_c, 0, 77, 80
2, 320448, Note_on_c, 0, 77, 0
2, 320448, Note_on_c, 0, 75, 80
2, 320544, Note_on_c, 0, 75, 0
2, 320544, Note_on_c, 0, 74, 80
2, 320640, Note_on_c, 0, 74, 0
2, 320640, Note_on_c, 0, 75, 80
2, 320736, Note_on_c, 0, 75, 0
2, 320736, Note_on_c, 0, 74, 80
2, 320832, Note_on_c, 0, 74, 0
2, 320832, Note_on_c, 0, 72, 80
2, 320928, Note_on_c, 0, 72, 0
2, 320928, Note_on_c, 0, 70, 80
2, 321024, Note_on_c, 0, 70, 0
2, 321024, Note_on_c, 0, 72, 80
2, 321252, Note_on_c, 0, 72, 0
2, 321312, Note_on_c, 0, 72, 80
2, 321388, Note_on_c, 0, 72, 0
2, 321408, Note_on_c, 0, 70, 80
2, 321636, Note_on_c, 0, 70, 0
2, 321696, Note_on_c, 0, 70, 80
2, 321772, Note_on_c, 0, 70, 0
2, 321792, Note_on_c, 0, 69, 80
2, 322020, Note_on_c, 0, 69, 0
2, 322080, Note_on_c, 0, 69, 80
2, 322156, Note_on_c, 0, 69, 0
2, 322176, Note_on_c, 0, 67, 80
2, 322404, Note_on_c, 0, 67, 0
2, 322464, Note_on_c, 0, 67, 80
2, 322540, Note_on_c, 0, 67, 0
2, 322560, Note_on_c, 0, 66, 80
2, 322864, Note_on_c, 0, 66, 0
2, 322944, Note_on_c, 0, 74, 64
2, 323248, Note_on_c, 0, 74, 0
2, 324096, Note_on_c, 0, 79, 80
2, 325632, Note_on_c, 0, 79, 0
2, 325632, Note_on_c, 0, 74, 80
2, 327168, Note_on_c, 0, 74, 0
2, 327168, Note_on_c, 0, 75, 80
2, 328704, Note_on_c, 0, 75, 0
2, 328704, Note_on_c, 0, 66, 80
2, 330240, Note_on_c, 0, 66, 0
2, 330240, Note_on_c, 0, 79, 80
2, 330240, Note_on_c, 0, 67, 80
2, 330544, Note_on_c, 0, 67, 0
2, 331776, Note_on_c, 0, 79, 0
2, 331776, Note_on_c, 0, 74, 80
2, 333312, Note_on_c, 0, 74, 0
2, 333312, Note_on_c, 0, 75, 80
2, 334848, Note_on_c, 0, 75, 0
2, 334848, Note_on_c, 0, 66, 80
2, 336384, Note_on_c, 0, 66, 0
2, 336384, Note_on_c, 0, 67, 80
2, 337920, Note_on_c, 0, 67, 0
2, 337920, Note_on_c, 0, 79, 80
2, 339456, Note_on_c, 0, 79, 0
2, 339456, Note_on_c, 0, 82, 80
2, 340992, Note_on_c, 0, 82, 0
2, 340992, Note_on_c, 0, 73, 80
2, 342528, Note_on_c, 0, 73, 0
2, 342528, Note_on_c, 0, 74, 80
2, 343104, Note_on_c, 0, 74, 0
2, 343104, Note_on_c, 0, 73, 76
2, 343296, Note_on_c, 0, 73, 0
2, 343296, Note_on_c, 0, 74, 75
2, 343488, Note_on_c, 0, 74, 0
2, 343488, Note_on_c, 0, 73, 74
2, 343680, Note_on_c, 0, 73, 0
2, 343680, Note_on_c, 0, 74, 72
2, 343872, Note_on_c, 0, 74, 0
2, 343872, Note_on_c, 0, 73, 71
2, 344064, Note_on_c, 0, 73, 0
2, 344064, Note_on_c, 0, 74, 70
2, 344640, Note_on_c, 0, 74, 0
2, 344640, Note_on_c, 0, 73, 66
2, 344832, Note_on_c, 0, 73, 0
2, 344832, Note_on_c, 0, 74, 65
2, 345024, Note_on_c, 0, 74, 0
2, 345024, Note_on_c, 0, 73, 64
2, 345216, Note_on_c, 0, 73, 0
2, 345216, Note_on_c, 0, 74, 62
2, 345408, Note_on_c, 0, 74, 0
2, 345408, Note_on_c, 0, 73, 61
2, 345600, Note_on_c, 0, 73, 0
2, 345600, Note_on_c, 0, 74, 60
2, 345904, Note_on_c, 0, 74, 0
2, 346368, Note_on_c, 0, 74, 52
2, 346672, Note_on_c, 0, 74, 0
2, 347136, Note_on_c, 0, 74, 40
2, 347440, Note_on_c, 0, 74, 0
2, 348672, Note_on_c, 0, 67, 80
2, 349900, Note_on_c, 0, 67, 0
2, 350208, Note_on_c, 0, 79, 80
2, 351436, Note_on_c, 0, 79, 0
2, 351744, Note_on_c, 0, 78, 80
2, 352048, Note_on_c, 0, 78, 0
2, 354816, Note_on_c, 0, 67, 80
2, 356044, Note_on_c, 0, 67, 0
2, 356352, Note_on_c, 0, 79, 80
2, 357580, Note_on_c, 0, 79, 0
2, 357888, Note_on_c, 0, 78, 80
2, 358192, Note_on_c, 0, 78, 0
2, 361728, Note_on_c, 0, 74, 64
2, 361728, Note_on_c, 0, 82, 64
2, 362340, Note_on_c, 0, 82, 0
2, 362340, Note_on_c, 0, 74, 0
2, 363264, Note_on_c, 0, 74, 64
2, 363264, Note_on_c, 0, 82, 64
2, 363876, Note_on_c, 0, 82, 0
2, 363876, Note_on_c, 0, 74, 0
2, 364800, Note_on_c, 0, 67, 64
2, 364800, Note_on_c, 0, 75, 64
2, 365412, Note_on_c, 0, 75, 0
2, 365412, Note_on_c, 0, 67, 0
2, 366336, Note_on_c, 0, 67, 64
2, 366336, Note_on_c, 0, 75, 64
2, 366948, Note_on_c, 0, 75, 0
2, 366948, Note_on_c, 0, 67, 0
2, 367872, Note_on_c, 0, 72, 64
2, 367872, Note_on_c, 0, 81, 64
2, 368484, Note_on_c, 0, 81, 0
2, 368484, Note_on_c, 0, 72, 0
2, 369408, Note_on_c, 0, 72, 64
2, 369408, Note_on_c, 0, 81, 64
2, 370020, Note_on_c, 0, 81, 0
2, 370020, Note_on_c, 0, 72, 0
2, 370944, Note_on_c, 0, 65, 64
2, 370944, Note_on_c, 0, 74, 64
2, 371556, Note_on_c, 0, 74, 0
2, 371556, Note_on_c, 0, 65, 0
2, 372480, Note_on_c, 0, 74, 64
2, 372480, Note_on_c, 0, 65, 64
2, 373092, Note_on_c, 0, 65, 0
2, 373092, Note_on_c, 0, 74, 0
2, 374016, Note_on_c, 0, 70, 64
2, 374016, Note_on_c, 0, 79, 64
2, 374628, Note_on_c, 0, 79, 0
2, 374628, Note_on_c, 0, 70, 0
2, 375552, Note_on_c, 0, 79, 64
2, 375552, Note_on_c, 0, 70, 64
2, 376164, Note_on_c, 0, 70, 0
2, 376164, Note_on_c, 0, 79, 0
2, 377088, Note_on_c, 0, 63, 64
2, 377088, Note_on_c, 0, 72, 64
2, 377700, Note_on_c, 0, 72, 0
2, 377700, Note_on_c, 0, 63, 0
2, 378624, Note_on_c, 0, 63, 64
2, 378624, Note_on_c, 0, 72, 64
2, 379236, Note_on_c, 0, 72, 0
2, 379236, Note_on_c, 0, 63, 0
2, 380928, Note_on_c, 0, 84, 80
2, 381196, Note_on_c, 0, 84, 0
2, 381312, Note_on_c, 0, 81, 80
2, 381580, Note_on_c, 0, 81, 0
2, 381696, Note_on_c, 0, 78, 80
2, 381964, Note_on_c, 0, 78, 0
2, 382080, Note_on_c, 0, 74, 80
2, 382348, Note_on_c, 0, 74, 0
2, 384000, Note_on_c, 0, 79, 80
2, 384268, Note_on_c, 0, 79, 0
2, 384384, Note_on_c, 0, 74, 80
2, 384652, Note_on_c, 0, 74, 0
2, 384768, Note_on_c, 0, 70, 80
2, 385036, Note_on_c, 0, 70, 0
2, 385152, Note_on_c, 0, 67, 80
2, 385420, Note_on_c, 0, 67, 0
2, 387072, Note_on_c, 0, 80, 80
2, 387340, Note_on_c, 0, 80, 0
2, 387456, Note_on_c, 0, 77, 80
2, 387724, Note_on_c, 0, 77, 0
2, 387840, Note_on_c, 0, 74, 80
2, 388108, Note_on_c, 0, 74, 0
2, 388224, Note_on_c, 0, 71, 80
2, 388492, Note_on_c, 0, 71, 0
2, 390144, Note_on_c, 0, 84, 80
2, 390412, Note_on_c, 0, 84, 0
2, 390528, Note_on_c, 0, 79, 80
2, 390796, Note_on_c, 0, 79, 0
2, 390912, Note_on_c, 0, 75, 80
2, 391180, Note_on_c, 0, 75, 0
2, 391296, Note_on_c, 0, 72, 80
2, 391564, Note_on_c, 0, 72, 0
2, 393216, Note_on_c, 0, 82, 80
2, 393484, Note_on_c, 0, 82, 0
2, 393600, Note_on_c, 0, 79, 80
2, 393868, Note_on_c, 0, 79, 0
2, 393984, Note_on_c, 0, 76, 80
2, 394252, Note_on_c, 0, 76, 0
2, 394368, Note_on_c, 0, 73, 80
2, 394636, Note_on_c, 0, 73, 0
2, 394752, Note_on_c, 0, 74, 80
2, 395136, Note_on_c, 0, 74, 0
2, 395136, Note_on_c, 0, 75, 80
2, 395520, Note_on_c, 0, 75, 0
2, 395520, Note_on_c, 0, 74, 80
2, 395904, Note_on_c, 0, 74, 0
2, 395904, Note_on_c, 0, 73, 80
2, 396288, Note_on_c, 0, 73, 0
2, 396288, Note_on_c, 0, 74, 80
2, 396516, Note_on_c, 0, 74, 0
2, 396672, Note_on_c, 0, 86, 80
2, 396900, Note_on_c, 0, 86, 0
2, 397056, Note_on_c, 0, 74, 80
2, 397284, Note_on_c, 0, 74, 0
2, 409344, Note_on_c, 0, 81, 75
2, 409536, Note_on_c, 0, 81, 0
2, 409536, Note_on_c, 0, 79, 75
2, 409688, Note_on_c, 0, 79, 0
2, 409728, Note_on_c, 0, 78, 75
2, 409880, Note_on_c, 0, 78, 0
2, 409920, Note_on_c, 0, 79, 75
2, 410072, Note_on_c, 0, 79, 0
2, 410112, Note_on_c, 0, 82, 75
2, 410304, Note_on_c, 0, 82, 0
2, 410304, Note_on_c, 0, 81, 75
2, 410456, Note_on_c, 0, 81, 0
2, 410496, Note_on_c, 0, 79, 75
2, 410648, Note_on_c, 0, 79, 0
2, 410688, Note_on_c, 0, 81, 75
2, 410840, Note_on_c, 0, 81, 0
2, 410880, Note_on_c, 0, 84, 75
2, 411072, Note_on_c, 0, 84, 0
2, 411072, Note_on_c, 0, 82, 75
2, 411224, Note_on_c, 0, 82, 0
2, 411264, Note_on_c, 0, 81, 75
2, 411416, Note_on_c, 0, 81, 0
2, 411456, Note_on_c, 0, 82, 75
2, 411608, Note_on_c, 0, 82, 0
2, 411648, Note_on_c, 0, 86, 75
2, 411840, Note_on_c, 0, 86, 0
2, 411840, Note_on_c, 0, 84, 75
2, 411992, Note_on_c, 0, 84, 0
2, 412032, Note_on_c, 0, 82, 75
2, 412184, Note_on_c, 0, 82, 0
2, 412224, Note_on_c, 0, 81, 75
2, 412376, Note_on_c, 0, 81, 0
2, 412416, Note_on_c, 0, 81, 75
2, 412608, Note_on_c, 0, 81, 0
2, 412608, Note_on_c, 0, 79, 75
2, 412760, Note_on_c, 0, 79, 0
2, 412800, Note_on_c, 0, 78, 75
2, 412952, Note_on_c, 0, 78, 0
2, 412992, Note_on_c, 0, 79, 75
2, 413144, Note_on_c, 0, 79, 0
2, 413184, Note_on_c, 0, 82, 75
2, 413376, Note_on_c, 0, 82, 0
2, 413376, Note_on_c, 0, 81, 75
2, 413528, Note_on_c, 0, 81, 0
2, 413568, Note_on_c, 0, 79, 75
2, 413720, Note_on_c, 0, 79, 0
2, 413760, Note_on_c, 0, 81, 75
2, 413912, Note_on_c, 0, 81, 0
2, 413952, Note_on_c, 0, 84, 75
2, 414144, Note_on_c, 0, 84, 0
2, 414144, Note_on_c, 0, 82, 75
2, 414296, Note_on_c, 0, 82, 0
2, 414336, Note_on_c, 0, 81, 75
2, 414488, Note_on_c, 0, 81, 0
2, 414528, Note_on_c, 0, 82, 75
2, 414680, Note_on_c, 0, 82, 0
2, 414720, Note_on_c, 0, 86, 75
2, 414912, Note_on_c, 0, 86, 0
2, 414912, Note_on_c, 0, 84, 75
2, 415064, Note_on_c, 0, 84, 0
2, 415104, Note_on_c, 0, 82, 75
2, 415256, Note_on_c, 0, 82, 0
2, 415296, Note_on_c, 0, 81, 75
2, 415448, Note_on_c, 0, 81, 0
2, 415488, Note_on_c, 0, 79, 75
2, 415680, Note_on_c, 0, 79, 0
2, 415680, Note_on_c, 0, 79, 75
2, 415832, Note_on_c, 0, 79, 0
2, 415872, Note_on_c, 0, 79, 75
2, 416024, Note_on_c, 0, 79, 0
2, 416064, Note_on_c, 0, 79, 75
2, 416216, Note_on_c, 0, 79, 0
2, 416256, Note_on_c, 0, 79, 75
2, 416448, Note_on_c, 0, 79, 0
2, 416448, Note_on_c, 0, 78, 75
2, 416600, Note_on_c, 0, 78, 0
2, 416640, Note_on_c, 0, 75, 75
2, 416792, Note_on_c, 0, 75, 0
2, 416832, Note_on_c, 0, 74, 75
2, 416984, Note_on_c, 0, 74, 0
2, 417024, Note_on_c, 0, 72, 75
2, 417216, Note_on_c, 0, 72, 0
2, 417216, Note_on_c, 0, 75, 75
2, 417368, Note_on_c, 0, 75, 0
2, 417408, Note_on_c, 0, 75, 75
2, 417560, Note_on_c, 0, 75, 0
2, 417600, Note_on_c, 0, 75, 75
2, 417752, Note_on_c, 0, 75, 0
2, 417792, Note_on_c, 0, 75, 75
2, 417984, Note_on_c, 0, 75, 0
2, 417984, Note_on_c, 0, 74, 75
2, 418136, Note_on_c, 0, 74, 0
2, 418176, Note_on_c, 0, 72, 75
2, 418328, Note_on_c, 0, 72, 0
2, 418368, Note_on_c, 0, 70, 75
2, 418520, Note_on_c, 0, 70, 0
2, 418560, Note_on_c, 0, 69, 75
2, 418752, Note_on_c, 0, 69, 0
2, 418752, Note_on_c, 0, 84, 75
2, 418904, Note_on_c, 0, 84, 0
2, 418944, Note_on_c, 0, 84, 75
2, 419096, Note_on_c, 0, 84, 0
2, 419136, Note_on_c, 0, 84, 75
2, 419288, Note_on_c, 0, 84, 0
2, 419328, Note_on_c, 0, 84, 75
2, 419520, Note_on_c, 0, 84, 0
2, 419520, Note_on_c, 0, 82, 75
2, 419672, Note_on_c, 0, 82, 0
2, 419712, Note_on_c, 0, 86, 75
2, 419864, Note_on_c, 0, 86, 0
2, 419904, Note_on_c, 0, 79, 75
2, 420056, Note_on_c, 0, 79, 0
2, 420096, Note_on_c, 0, 82, 75
2, 420288, Note_on_c, 0, 82, 0
2, 420288, Note_on_c, 0, 81, 75
2, 420440, Note_on_c, 0, 81, 0
2, 420480, Note_on_c, 0, 79, 75
2, 420632, Note_on_c, 0, 79, 0
2, 420672, Note_on_c, 0, 78, 75
2, 420824, Note_on_c, 0, 78, 0
2, 420864, Note_on_c, 0, 79, 80
2, 421248, Note_on_c, 0, 79, 0
2, 421632, Note_on_c, 0, 70, 80
2, 421632, Note_on_c, 0, 74, 80
2, 422400, Note_on_c, 0, 74, 0
2, 422400, Note_on_c, 0, 70, 0
2, 422400, Note_on_c, 0, 72, 80
2, 422784, Note_on_c, 0, 72, 0
2, 423168, Note_on_c, 0, 72, 80
2, 423168, Note_on_c, 0, 79, 80
2, 423936, Note_on_c, 0, 72, 0
2, 423936, Note_on_c, 0, 70, 80
2, 424320, Note_on_c, 0, 70, 0
2, 424320, Note_on_c, 0, 79, 0
2, 424320, Note_on_c, 0, 79, 80
2, 424320, Note_on_c, 0, 82, 80
2, 424704, Note_on_c, 0, 82, 0
2, 424704, Note_on_c, 0, 81, 80
2, 425088, Note_on_c, 0, 79, 0
2, 425088, Note_on_c, 0, 78, 80
2, 425472, Note_on_c, 0, 78, 0
2, 425472, Note_on_c, 0, 81, 0
2, 425472, Note_on_c, 0, 79, 80
2, 426240, Note_on_c, 0, 79, 0
2, 426240, Note_on_c, 0, 70, 80
2, 426240, Note_on_c, 0, 74, 80
2, 427008, Note_on_c, 0, 74, 0
2, 427008, Note_on_c, 0, 70, 0
2, 427008, Note_on_c, 0, 69, 80
2, 427008, Note_on_c, 0, 72, 80
2, 427776, Note_on_c, 0, 72, 0
2, 427776, Note_on_c, 0, 69, 0
2, 427776, Note_on_c, 0, 66, 80
2, 427776, Note_on_c, 0, 69, 80
2, 428544, Note_on_c, 0, 69, 0
2, 428544, Note_on_c, 0, 66, 0
2, 428544, Note_on_c, 0, 67, 80
2, 428544, Note_on_c, 0, 70, 80
2, 429312, Note_on_c, 0, 70, 0
2, 429312, Note_on_c, 0, 67, 0
2, 429312, Note_on_c, 0, 70, 80
2, 429312, Note_on_c, 0, 74, 80
2, 430080, Note_on_c, 0, 74, 0
2, 430080, Note_on_c, 0, 70, 0
2, 430080, Note_on_c, 0, 69, 80
2, 430080, Note_on_c, 0, 72, 80
2, 430848, Note_on_c, 0, 72, 0
2, 430848, Note_on_c, 0, 69, 0
2, 430848, Note_on_c, 0, 66, 80
2, 430848, Note_on_c, 0, 69, 80
2, 431616, Note_on_c, 0, 69, 0
2, 431616, Note_on_c, 0, 66, 0
2, 431616, Note_on_c, 0, 67, 80
2, 431920, Note_on_c, 0, 67, 0
2, 432000, Note_on_c, 0, 70, 80
2, 432384, Note_on_c, 0, 70, 0
2, 432384, Note_on_c, 0, 72, 80
2, 432768, Note_on_c, 0, 72, 0
2, 432768, Note_on_c, 0, 74, 80
2, 433152, Note_on_c, 0, 74, 0
2, 433152, Note_on_c, 0, 75, 80
2, 433536, Note_on_c, 0, 75, 0
2, 433536, Note_on_c, 0, 72, 80
2, 433920, Note_on_c, 0, 72, 0
2, 433920, Note_on_c, 0, 69, 80
2, 434304, Note_on_c, 0, 69, 0
2, 434304, Note_on_c, 0, 78, 80
2, 434688, Note_on_c, 0, 78, 0
2, 434688, Note_on_c, 0, 79, 80
2, 434992, Note_on_c, 0, 79, 0
2, 440832, Note_on_c, 0, 79, 80
2, 442368, Note_on_c, 0, 79, 0
2, 442368, Note_on_c, 0, 74, 80
2, 443904, Note_on_c, 0, 74, 0
2, 443904, Note_on_c, 0, 75, 80
2, 444672, Note_on_c, 0, 75, 0
2, 444672, Note_on_c, 0, 84, 80
2, 445440, Note_on_c, 0, 84, 0
2, 445440, Note_on_c, 0, 82, 80
2, 446208, Note_on_c, 0, 82, 0
2, 446208, Note_on_c, 0, 79, 80
2, 446976, Note_on_c, 0, 79, 0
2, 446976, Note_on_c, 0, 69, 80
2, 447744, Note_on_c, 0, 69, 0
2, 447744, Note_on_c, 0, 78, 80
2, 448512, Note_on_c, 0, 78, 0
2, 448512, Note_on_c, 0, 79, 80
2, 448816, Note_on_c, 0, 79, 0
2, 450048, Note_on_c, 0, 79, 80
2, 455040, Note_on_c, 0, 79, 0
2, 455040, End_track
3, 0, Start_track
3, 0, MIDI_port, 0
3, 0, Title_t, "Corni in B."
3, 0, Control_c, 1, 0, 0
3, 0, Program_c, 1, 60
3, 0, Control_c, 1, 10, 75
3, 0, Control_c, 1, 91, 127
3, 8448, Note_on_c, 1, 62, 80
3, 8448, Note_on_c, 1, 70, 80
3, 9060, Note_on_c, 1, 70, 0
3, 9060, Note_on_c, 1, 62, 0
3, 9984, Note_on_c, 1, 70, 80
3, 9984, Note_on_c, 1, 62, 80
3, 10596, Note_on_c, 1, 62, 0
3, 10596, Note_on_c, 1, 70, 0
3, 11520, Note_on_c, 1, 62, 80
3, 11520, Note_on_c, 1, 72, 80
3, 12132, Note_on_c, 1, 72, 0
3, 12132, Note_on_c, 1, 62, 0
3, 13056, Note_on_c, 1, 72, 80
3, 13056, Note_on_c, 1, 62, 80
3, 13668, Note_on_c, 1, 62, 0
3, 13668, Note_on_c, 1, 72, 0
3, 14592, Note_on_c, 1, 62, 80
3, 14592, Note_on_c, 1, 74, 80
3, 14896, Note_on_c, 1, 74, 0
3, 14896, Note_on_c, 1, 62, 0
3, 14976, Note_on_c, 1, 58, 80
3, 14976, Note_on_c, 1, 70, 80
3, 15280, Note_on_c, 1, 70, 0
3, 15280, Note_on_c, 1, 58, 0
3, 15360, Note_on_c, 1, 58, 80
3, 15360, Note_on_c, 1, 70, 80
3, 15664, Note_on_c, 1, 70, 0
3, 15664, Note_on_c, 1, 58, 0
3, 16896, Note_on_c, 1, 72, 80
3, 17200, Note_on_c, 1, 72, 0
3, 17280, Note_on_c, 1, 70, 80
3, 17584, Note_on_c, 1, 70, 0
3, 18432, Note_on_c, 1, 62, 80
3, 18736, Note_on_c, 1, 62, 0
3, 18816, Note_on_c, 1, 62, 64
3, 19120, Note_on_c, 1, 62, 0
3, 19968, Note_on_c, 1, 62, 80
3, 19968, Note_on_c, 1, 70, 80
3, 23040, Note_on_c, 1, 70, 0
3, 23040, Note_on_c, 1, 62, 0
3, 23040, Note_on_c, 1, 72, 80
3, 24576, Note_on_c, 1, 72, 0
3, 24576, Note_on_c, 1, 62, 80
3, 24576, Note_on_c, 1, 74, 80
3, 26112, Note_on_c, 1, 74, 0
3, 26112, Note_on_c, 1, 62, 0
3, 26112, Note_on_c, 1, 62, 80
3, 26416, Note_on_c, 1, 62, 0
3, 44544, Note_on_c, 1, 65, 80
3, 44544, Note_on_c, 1, 70, 80
3, 44928, Note_on_c, 1, 70, 0
3, 44928, Note_on_c, 1, 65, 0
3, 47616, Note_on_c, 1, 65, 80
3, 49152, Note_on_c, 1, 65, 0
3, 49152, Note_on_c, 1, 75, 80
3, 50688, Note_on_c, 1, 75, 0
3, 50688, Note_on_c, 1, 74, 80
3, 50992, Note_on_c, 1, 74, 0
3, 51072, Note_on_c, 1, 70, 80
3, 51072, Note_on_c, 1, 70, 80
3, 51224, Note_on_c, 1, 70, 0
3, 51264, Note_on_c, 1, 70, 80
3, 51376, Note_on_c, 1, 70, 0
3, 51416, Note_on_c, 1, 70, 0
3, 51456, Note_on_c, 1, 58, 80
3, 51456, Note_on_c, 1, 70, 80
3, 51760, Note_on_c, 1, 70, 0
3, 51760, Note_on_c, 1, 58, 0
3, 52224, Note_on_c, 1, 62, 80
3, 52224, Note_on_c, 1, 74, 80
3, 52528, Note_on_c, 1, 74, 0
3, 52528, Note_on_c, 1, 62, 0
3, 52608, Note_on_c, 1, 58, 80
3, 52608, Note_on_c, 1, 70, 80
3, 52760, Note_on_c, 1, 70, 0
3, 52760, Note_on_c, 1, 58, 0
3, 52800, Note_on_c, 1, 58, 80
3, 52800, Note_on_c, 1, 70, 80
3, 52952, Note_on_c, 1, 70, 0
3, 52952, Note_on_c, 1, 58, 0
3, 52992, Note_on_c, 1, 58, 80
3, 52992, Note_on_c, 1, 70, 80
3, 53296, Note_on_c, 1, 70, 0
3, 53296, Note_on_c, 1, 58, 0
3, 53760, Note_on_c, 1, 65, 80
3, 55296, Note_on_c, 1, 65, 0
3, 55296, Note_on_c, 1, 75, 80
3, 56832, Note_on_c, 1, 75, 0
3, 56832, Note_on_c, 1, 74, 80
3, 57136, Note_on_c, 1, 74, 0
3, 57216, Note_on_c, 1, 70, 80
3, 57216, Note_on_c, 1, 70, 80
3, 57368, Note_on_c, 1, 70, 0
3, 57408, Note_on_c, 1, 70, 80
3, 57520, Note_on_c, 1, 70, 0
3, 57560, Note_on_c, 1, 70, 0
3, 57600, Note_on_c, 1, 70, 80
3, 57600, Note_on_c, 1, 58, 80
3, 57904, Note_on_c, 1, 58, 0
3, 57904, Note_on_c, 1, 70, 0
3, 58368, Note_on_c, 1, 62, 80
3, 58368, Note_on_c, 1, 74, 80
3, 58672, Note_on_c, 1, 74, 0
3, 58672, Note_on_c, 1, 62, 0
3, 58752, Note_on_c, 1, 58, 80
3, 58752, Note_on_c, 1, 70, 80
3, 58904, Note_on_c, 1, 70, 0
3, 58904, Note_on_c, 1, 58, 0
3, 58944, Note_on_c, 1, 58, 80
3, 58944, Note_on_c, 1, 70, 80
3, 59096, Note_on_c, 1, 70, 0
3, 59096, Note_on_c, 1, 58, 0
3, 59136, Note_on_c, 1, 58, 80
3, 59136, Note_on_c, 1, 70, 80
3, 59440, Note_on_c, 1, 70, 0
3, 59440, Note_on_c, 1, 58, 0
3, 59904, Note_on_c, 1, 58, 80
3, 59904, Note_on_c, 1, 70, 80
3, 60208, Note_on_c, 1, 70, 0
3, 60208, Note_on_c, 1, 58, 0
3, 61440, Note_on_c, 1, 58, 80
3, 61440, Note_on_c, 1, 70, 80
3, 61744, Note_on_c, 1, 70, 0
3, 61744, Note_on_c, 1, 58, 0
3, 62976, Note_on_c, 1, 72, 80
3, 63280, Note_on_c, 1, 72, 0
3, 63360, Note_on_c, 1, 72, 80
3, 63512, Note_on_c, 1, 72, 0
3, 63552, Note_on_c, 1, 72, 80
3, 63704, Note_on_c, 1, 72, 0
3, 63744, Note_on_c, 1, 72, 80
3, 64048, Note_on_c, 1, 72, 0
3, 64512, Note_on_c, 1, 72, 80
3, 64816, Note_on_c, 1, 72, 0
3, 64896, Note_on_c, 1, 72, 80
3, 65048, Note_on_c, 1, 72, 0
3, 65088, Note_on_c, 1, 72, 80
3, 65240, Note_on_c, 1, 72, 0
3, 65280, Note_on_c, 1, 72, 80
3, 65584, Note_on_c, 1, 72, 0
3, 66048, Note_on_c, 1, 65, 80
3, 66048, Note_on_c, 1, 74, 80
3, 66352, Note_on_c, 1, 74, 0
3, 66352, Note_on_c, 1, 65, 0
3, 66432, Note_on_c, 1, 65, 80
3, 66432, Note_on_c, 1, 74, 80
3, 66584, Note_on_c, 1, 74, 0
3, 66584, Note_on_c, 1, 65, 0
3, 66624, Note_on_c, 1, 65, 80
3, 66624, Note_on_c, 1, 74, 80
3, 66776, Note_on_c, 1, 74, 0
3, 66776, Note_on_c, 1, 65, 0
3, 66816, Note_on_c, 1, 65, 80
3, 66816, Note_on_c, 1, 74, 80
3, 67120, Note_on_c, 1, 74, 0
3, 67120, Note_on_c, 1, 65, 0
3, 67584, Note_on_c, 1, 74, 80
3, 67584, Note_on_c, 1, 65, 80
3, 67888, Note_on_c, 1, 65, 0
3, 67888, Note_on_c, 1, 74, 0
3, 67968, Note_on_c, 1, 74, 80
3, 67968, Note_on_c, 1, 65, 80
3, 68120, Note_on_c, 1, 65, 0
3, 68120, Note_on_c, 1, 74, 0
3, 68160, Note_on_c, 1, 74, 80
3, 68160, Note_on_c, 1, 65, 80
3, 68312, Note_on_c, 1, 65, 0
3, 68312, Note_on_c, 1, 74, 0
3, 68352, Note_on_c, 1, 74, 80
3, 68352, Note_on_c, 1, 65, 80
3, 68656, Note_on_c, 1, 65, 0
3, 68656, Note_on_c, 1, 74, 0
3, 69120, Note_on_c, 1, 62, 80
3, 69120, Note_on_c, 1, 70, 80
3, 69424, Note_on_c, 1, 70, 0
3, 69424, Note_on_c, 1, 62, 0
3, 69504, Note_on_c, 1, 62, 80
3, 69504, Note_on_c, 1, 70, 80
3, 69656, Note_on_c, 1, 70, 0
3, 69656, Note_on_c, 1, 62, 0
3, 69696, Note_on_c, 1, 62, 80
3, 69696, Note_on_c, 1, 70, 80
3, 69848, Note_on_c, 1, 70, 0
3, 69848, Note_on_c, 1, 62, 0
3, 69888, Note_on_c, 1, 62, 80
3, 69888, Note_on_c, 1, 70, 80
3, 70192, Note_on_c, 1, 70, 0
3, 70192, Note_on_c, 1, 62, 0
3, 70656, Note_on_c, 1, 70, 80
3, 70656, Note_on_c, 1, 62, 80
3, 70960, Note_on_c, 1, 62, 0
3, 70960, Note_on_c, 1, 70, 0
3, 71040, Note_on_c, 1, 70, 80
3, 71040, Note_on_c, 1, 62, 80
3, 71192, Note_on_c, 1, 62, 0
3, 71192, Note_on_c, 1, 70, 0
3, 71232, Note_on_c, 1, 70, 80
3, 71232, Note_on_c, 1, 62, 80
3, 71384, Note_on_c, 1, 62, 0
3, 71384, Note_on_c, 1, 70, 0
3, 71424, Note_on_c, 1, 70, 80
3, 71424, Note_on_c, 1, 62, 80
3, 71728, Note_on_c, 1, 62, 0
3, 71728, Note_on_c, 1, 70, 0
3, 72192, Note_on_c, 1, 72, 80
3, 72496, Note_on_c, 1, 72, 0
3, 72576, Note_on_c, 1, 72, 80
3, 72728, Note_on_c, 1, 72, 0
3, 72768, Note_on_c, 1, 72, 80
3, 72920, Note_on_c, 1, 72, 0
3, 72960, Note_on_c, 1, 72, 80
3, 73264, Note_on_c, 1, 72, 0
3, 73728, Note_on_c, 1, 72, 80
3, 74032, Note_on_c, 1, 72, 0
3, 74112, Note_on_c, 1, 72, 80
3, 74264, Note_on_c, 1, 72, 0
3, 74304, Note_on_c, 1, 72, 80
3, 74456, Note_on_c, 1, 72, 0
3, 74496, Note_on_c, 1, 72, 80
3, 74800, Note_on_c, 1, 72, 0
3, 76800, Note_on_c, 1, 75, 80
3, 77104, Note_on_c, 1, 75, 0
3, 77184, Note_on_c, 1, 72, 80
3, 77488, Note_on_c, 1, 72, 0
3, 77568, Note_on_c, 1, 65, 80
3, 78180, Note_on_c, 1, 65, 0
3, 79872, Note_on_c, 1, 70, 80
3, 80176, Note_on_c, 1, 70, 0
3, 80256, Note_on_c, 1, 65, 80
3, 80560, Note_on_c, 1, 65, 0
3, 80640, Note_on_c, 1, 62, 80
3, 80944, Note_on_c, 1, 62, 0
3, 81024, Note_on_c, 1, 58, 80
3, 81328, Note_on_c, 1, 58, 0
3, 82944, Note_on_c, 1, 70, 80
3, 83248, Note_on_c, 1, 70, 0
3, 83328, Note_on_c, 1, 65, 80
3, 83632, Note_on_c, 1, 65, 0
3, 83712, Note_on_c, 1, 58, 80
3, 84324, Note_on_c, 1, 58, 0
3, 86016, Note_on_c, 1, 58, 80
3, 87552, Note_on_c, 1, 58, 0
3, 87552, Note_on_c, 1, 65, 80
3, 87856, Note_on_c, 1, 65, 0
3, 102912, Note_on_c, 1, 65, 88
3, 105216, Note_on_c, 1, 65, 0
3, 105216, Note_on_c, 1, 62, 88
3, 105216, Note_on_c, 1, 70, 88
3, 105520, Note_on_c, 1, 70, 0
3, 105520, Note_on_c, 1, 62, 0
3, 105792, Note_on_c, 1, 62, 88
3, 105792, Note_on_c, 1, 70, 88
3, 105944, Note_on_c, 1, 70, 0
3, 105944, Note_on_c, 1, 62, 0
3, 105984, Note_on_c, 1, 65, 88
3, 105984, Note_on_c, 1, 72, 88
3, 106288, Note_on_c, 1, 72, 0
3, 106288, Note_on_c, 1, 65, 0
3, 106560, Note_on_c, 1, 65, 88
3, 106560, Note_on_c, 1, 72, 88
3, 106712, Note_on_c, 1, 72, 0
3, 106712, Note_on_c, 1, 65, 0
3, 106752, Note_on_c, 1, 70, 88
3, 106752, Note_on_c, 1, 74, 88
3, 107056, Note_on_c, 1, 74, 0
3, 107056, Note_on_c, 1, 70, 0
3, 107328, Note_on_c, 1, 70, 88
3, 107328, Note_on_c, 1, 74, 88
3, 107480, Note_on_c, 1, 74, 0
3, 107480, Note_on_c, 1, 70, 0
3, 107520, Note_on_c, 1, 74, 88
3, 107520, Note_on_c, 1, 77, 88
3, 107712, Note_on_c, 1, 77, 0
3, 107712, Note_on_c, 1, 74, 0
3, 107712, Note_on_c, 1, 72, 88
3, 107712, Note_on_c, 1, 75, 88
3, 107864, Note_on_c, 1, 75, 0
3, 107864, Note_on_c, 1, 72, 0
3, 107904, Note_on_c, 1, 70, 88
3, 107904, Note_on_c, 1, 74, 88
3, 108056, Note_on_c, 1, 74, 0
3, 108056, Note_on_c, 1, 70, 0
3, 108096, Note_on_c, 1, 65, 88
3, 108096, Note_on_c, 1, 72, 88
3, 108248, Note_on_c, 1, 72, 0
3, 108248, Note_on_c, 1, 65, 0
3, 108288, Note_on_c, 1, 58, 88
3, 108288, Note_on_c, 1, 70, 88
3, 108592, Note_on_c, 1, 70, 0
3, 108592, Note_on_c, 1, 58, 0
3, 113664, Note_on_c, 1, 62, 80
3, 113664, Note_on_c, 1, 70, 80
3, 113968, Note_on_c, 1, 70, 0
3, 113968, Note_on_c, 1, 62, 0
3, 114432, Note_on_c, 1, 58, 80
3, 114432, Note_on_c, 1, 70, 80
3, 115200, Note_on_c, 1, 70, 0
3, 115200, Note_on_c, 1, 58, 0
3, 115200, Note_on_c, 1, 58, 80
3, 115200, Note_on_c, 1, 70, 80
3, 115504, Note_on_c, 1, 70, 0
3, 115504, Note_on_c, 1, 58, 0
3, 115968, Note_on_c, 1, 58, 80
3, 115968, Note_on_c, 1, 70, 80
3, 116580, Note_on_c, 1, 70, 0
3, 116580, Note_on_c, 1, 58, 0
3, 116736, Note_on_c, 1, 58, 100
3, 116736, Note_on_c, 1, 70, 100
3, 117040, Note_on_c, 1, 70, 0
3, 117040, Note_on_c, 1, 58, 0
3, 117120, Note_on_c, 1, 70, 100
3, 117120, Note_on_c, 1, 74, 100
3, 117424, Note_on_c, 1, 74, 0
3, 117424, Note_on_c, 1, 70, 0
3, 117504, Note_on_c, 1, 70, 100
3, 117504, Note_on_c, 1, 72, 100
3, 117808, Note_on_c, 1, 72, 0
3, 117808, Note_on_c, 1, 70, 0
3, 117888, Note_on_c, 1, 65, 100
3, 117888, Note_on_c, 1, 72, 100
3, 118192, Note_on_c, 1, 72, 0
3, 118192, Note_on_c, 1, 65, 0
3, 118272, Note_on_c, 1, 62, 100
3, 118272, Note_on_c, 1, 70, 100
3, 118576, Note_on_c, 1, 70, 0
3, 118576, Note_on_c, 1, 62, 0
3, 119424, Note_on_c, 1, 58, 100
3, 119728, Note_on_c, 1, 58, 0
3, 119808, Note_on_c, 1, 65, 100
3, 120112, Note_on_c, 1, 65, 0
3, 120960, Note_on_c, 1, 65, 100
3, 121264, Note_on_c, 1, 65, 0
3, 121344, Note_on_c, 1, 58, 100
3, 121648, Note_on_c, 1, 58, 0
3, 122496, Note_on_c, 1, 58, 100
3, 122800, Note_on_c, 1, 58, 0
3, 122880, Note_on_c, 1, 65, 100
3, 123184, Note_on_c, 1, 65, 0
3, 124032, Note_on_c, 1, 65, 100
3, 124336, Note_on_c, 1, 65, 0
3, 124416, Note_on_c, 1, 58, 100
3, 124720, Note_on_c, 1, 58, 0
3, 134400, Note_on_c, 1, 70, 80
3, 134400, Note_on_c, 1, 62, 80
3, 135012, Note_on_c, 1, 62, 0
3, 135012, Note_on_c, 1, 70, 0
3, 135936, Note_on_c, 1, 62, 80
3, 135936, Note_on_c, 1, 70, 80
3, 136548, Note_on_c, 1, 70, 0
3, 136548, Note_on_c, 1, 62, 0
3, 137472, Note_on_c, 1, 72, 80
3, 137472, Note_on_c, 1, 62, 80
3, 138084, Note_on_c, 1, 62, 0
3, 138084, Note_on_c, 1, 72, 0
3, 139008, Note_on_c, 1, 62, 80
3, 139008, Note_on_c, 1, 72, 80
3, 139620, Note_on_c, 1, 72, 0
3, 139620, Note_on_c, 1, 62, 0
3, 140544, Note_on_c, 1, 74, 80
3, 140544, Note_on_c, 1, 62, 80
3, 140848, Note_on_c, 1, 62, 0
3, 140848, Note_on_c, 1, 74, 0
3, 140928, Note_on_c, 1, 70, 80
3, 140928, Note_on_c, 1, 58, 80
3, 141232, Note_on_c, 1, 58, 0
3, 141232, Note_on_c, 1, 70, 0
3, 141312, Note_on_c, 1, 70, 80
3, 141312, Note_on_c, 1, 58, 80
3, 141616, Note_on_c, 1, 58, 0
3, 141616, Note_on_c, 1, 70, 0
3, 142848, Note_on_c, 1, 72, 80
3, 143152, Note_on_c, 1, 72, 0
3, 143232, Note_on_c, 1, 70, 80
3, 143536, Note_on_c, 1, 70, 0
3, 144384, Note_on_c, 1, 62, 80
3, 144688, Note_on_c, 1, 62, 0
3, 144768, Note_on_c, 1, 62, 64
3, 145072, Note_on_c, 1, 62, 0
3, 145920, Note_on_c, 1, 70, 80
3, 145920, Note_on_c, 1, 62, 80
3, 148992, Note_on_c, 1, 62, 0
3, 148992, Note_on_c, 1, 70, 0
3, 148992, Note_on_c, 1, 72, 80
3, 150528, Note_on_c, 1, 72, 0
3, 150528, Note_on_c, 1, 74, 80
3, 150528, Note_on_c, 1, 62, 80
3, 152064, Note_on_c, 1, 62, 0
3, 152064, Note_on_c, 1, 74, 0
3, 152064, Note_on_c, 1, 62, 80
3, 152368, Note_on_c, 1, 62, 0
3, 170496, Note_on_c, 1, 70, 80
3, 170496, Note_on_c, 1, 65, 80
3, 170880, Note_on_c, 1, 65, 0
3, 170880, Note_on_c, 1, 70, 0
3, 173568, Note_on_c, 1, 65, 80
3, 175104, Note_on_c, 1, 65, 0
3, 175104, Note_on_c, 1, 75, 80
3, 176640, Note_on_c, 1, 75, 0
3, 176640, Note_on_c, 1, 74, 80
3, 176944, Note_on_c, 1, 74, 0
3, 177024, Note_on_c, 1, 70, 80
3, 177024, Note_on_c, 1, 70, 80
3, 177176, Note_on_c, 1, 70, 0
3, 177216, Note_on_c, 1, 70, 80
3, 177328, Note_on_c, 1, 70, 0
3, 177368, Note_on_c, 1, 70, 0
3, 177408, Note_on_c, 1, 70, 80
3, 177408, Note_on_c, 1, 58, 80
3, 177712, Note_on_c, 1, 58, 0
3, 177712, Note_on_c, 1, 70, 0
3, 178176, Note_on_c, 1, 74, 80
3, 178176, Note_on_c, 1, 62, 80
3, 178480, Note_on_c, 1, 62, 0
3, 178480, Note_on_c, 1, 74, 0
3, 178560, Note_on_c, 1, 70, 80
3, 178560, Note_on_c, 1, 58, 80
3, 178712, Note_on_c, 1, 58, 0
3, 178712, Note_on_c, 1, 70, 0
3, 178752, Note_on_c, 1, 70, 80
3, 178752, Note_on_c, 1, 58, 80
3, 178904, Note_on_c, 1, 58, 0
3, 178904, Note_on_c, 1, 70, 0
3, 178944, Note_on_c, 1, 70, 80
3, 178944, Note_on_c, 1, 58, 80
3, 179248, Note_on_c, 1, 58, 0
3, 179248, Note_on_c, 1, 70, 0
3, 179712, Note_on_c, 1, 65, 80
3, 181248, Note_on_c, 1, 65, 0
3, 181248, Note_on_c, 1, 75, 80
3, 182784, Note_on_c, 1, 75, 0
3, 182784, Note_on_c, 1, 74, 80
3, 183088, Note_on_c, 1, 74, 0
3, 183168, Note_on_c, 1, 70, 80
3, 183168, Note_on_c, 1, 70, 80
3, 183320, Note_on_c, 1, 70, 0
3, 183360, Note_on_c, 1, 70, 80
3, 183472, Note_on_c, 1, 70, 0
3, 183512, Note_on_c, 1, 70, 0
3, 183552, Note_on_c, 1, 58, 80
3, 183552, Note_on_c, 1, 70, 80
3, 183856, Note_on_c, 1, 70, 0
3, 183856, Note_on_c, 1, 58, 0
3, 184320, Note_on_c, 1, 74, 80
3, 184320, Note_on_c, 1, 62, 80
3, 184624, Note_on_c, 1, 62, 0
3, 184624, Note_on_c, 1, 74, 0
3, 184704, Note_on_c, 1, 70, 80
3, 184704, Note_on_c, 1, 58, 80
3, 184856, Note_on_c, 1, 58, 0
3, 184856, Note_on_c, 1, 70, 0
3, 184896, Note_on_c, 1, 70, 80
3, 184896, Note_on_c, 1, 58, 80
3, 185048, Note_on_c, 1, 58, 0
3, 185048, Note_on_c, 1, 70, 0
3, 185088, Note_on_c, 1, 70, 80
3, 185088, Note_on_c, 1, 58, 80
3, 185392, Note_on_c, 1, 58, 0
3, 185392, Note_on_c, 1, 70, 0
3, 185856, Note_on_c, 1, 70, 80
3, 185856, Note_on_c, 1, 58, 80
3, 186160, Note_on_c, 1, 58, 0
3, 186160, Note_on_c, 1, 70, 0
3, 187392, Note_on_c, 1, 70, 80
3, 187392, Note_on_c, 1, 58, 80
3, 187696, Note_on_c, 1, 58, 0
3, 187696, Note_on_c, 1, 70, 0
3, 188928, Note_on_c, 1, 72, 80
3, 189232, Note_on_c, 1, 72, 0
3, 189312, Note_on_c, 1, 72, 80
3, 189464, Note_on_c, 1, 72, 0
3, 189504, Note_on_c, 1, 72, 80
3, 189656, Note_on_c, 1, 72, 0
3, 189696, Note_on_c, 1, 72, 80
3, 190000, Note_on_c, 1, 72, 0
3, 190464, Note_on_c, 1, 72, 80
3, 190768, Note_on_c, 1, 72, 0
3, 190848, Note_on_c, 1, 72, 80
3, 191000, Note_on_c, 1, 72, 0
3, 191040, Note_on_c, 1, 72, 80
3, 191192, Note_on_c, 1, 72, 0
3, 191232, Note_on_c, 1, 72, 80
3, 191536, Note_on_c, 1, 72, 0
3, 192000, Note_on_c, 1, 74, 80
3, 192000, Note_on_c, 1, 65, 80
3, 192304, Note_on_c, 1, 65, 0
3, 192304, Note_on_c, 1, 74, 0
3, 192384, Note_on_c, 1, 74, 80
3, 192384, Note_on_c, 1, 65, 80
3, 192536, Note_on_c, 1, 65, 0
3, 192536, Note_on_c, 1, 74, 0
3, 192576, Note_on_c, 1, 74, 80
3, 192576, Note_on_c, 1, 65, 80
3, 192728, Note_on_c, 1, 65, 0
3, 192728, Note_on_c, 1, 74, 0
3, 192768, Note_on_c, 1, 74, 80
3, 192768, Note_on_c, 1, 65, 80
3, 193072, Note_on_c, 1, 65, 0
3, 193072, Note_on_c, 1, 74, 0
3, 193536, Note_on_c, 1, 65, 80
3, 193536, Note_on_c, 1, 74, 80
3, 193840, Note_on_c, 1, 74, 0
3, 193840, Note_on_c, 1, 65, 0
3, 193920, Note_on_c, 1, 65, 80
3, 193920, Note_on_c, 1, 74, 80
3, 194072, Note_on_c, 1, 74, 0
3, 194072, Note_on_c, 1, 65, 0
3, 194112, Note_on_c, 1, 65, 80
3, 194112, Note_on_c, 1, 74, 80
3, 194264, Note_on_c, 1, 74, 0
3, 194264, Note_on_c, 1, 65, 0
3, 194304, Note_on_c, 1, 65, 80
3, 194304, Note_on_c, 1, 74, 80
3, 194608, Note_on_c, 1, 74, 0
3, 194608, Note_on_c, 1, 65, 0
3, 195072, Note_on_c, 1, 70, 80
3, 195072, Note_on_c, 1, 62, 80
3, 195376, Note_on_c, 1, 62, 0
3, 195376, Note_on_c, 1, 70, 0
3, 195456, Note_on_c, 1, 70, 80
3, 195456, Note_on_c, 1, 62, 80
3, 195608, Note_on_c, 1, 62, 0
3, 195608, Note_on_c, 1, 70, 0
3, 195648, Note_on_c, 1, 70, 80
3, 195648, Note_on_c, 1, 62, 80
3, 195800, Note_on_c, 1, 62, 0
3, 195800, Note_on_c, 1, 70, 0
3, 195840, Note_on_c, 1, 70, 80
3, 195840, Note_on_c, 1, 62, 80
3, 196144, Note_on_c, 1, 62, 0
3, 196144, Note_on_c, 1, 70, 0
3, 196608, Note_on_c, 1, 62, 80
3, 196608, Note_on_c, 1, 70, 80
3, 196912, Note_on_c, 1, 70, 0
3, 196912, Note_on_c, 1, 62, 0
3, 196992, Note_on_c, 1, 62, 80
3, 196992, Note_on_c, 1, 70, 80
3, 197144, Note_on_c, 1, 70, 0
3, 197144, Note_on_c, 1, 62, 0
3, 197184, Note_on_c, 1, 62, 80
3, 197184, Note_on_c, 1, 70, 80
3, 197336, Note_on_c, 1, 70, 0
3, 197336, Note_on_c, 1, 62, 0
3, 197376, Note_on_c, 1, 62, 80
3, 197376, Note_on_c, 1, 70, 80
3, 197680, Note_on_c, 1, 70, 0
3, 197680, Note_on_c, 1, 62, 0
3, 198144, Note_on_c, 1, 72, 80
3, 198448, Note_on_c, 1, 72, 0
3, 198528, Note_on_c, 1, 72, 80
3, 198680, Note_on_c, 1, 72, 0
3, 198720, Note_on_c, 1, 72, 80
3, 198872, Note_on_c, 1, 72, 0
3, 198912, Note_on_c, 1, 72, 80
3, 199216, Note_on_c, 1, 72, 0
3, 199680, Note_on_c, 1, 72, 80
3, 199984, Note_on_c, 1, 72, 0
3, 200064, Note_on_c, 1, 72, 80
3, 200216, Note_on_c, 1, 72, 0
3, 200256, Note_on_c, 1, 72, 80
3, 200408, Note_on_c, 1, 72, 0
3, 200448, Note_on_c, 1, 72, 80
3, 200752, Note_on_c, 1, 72, 0
3, 202752, Note_on_c, 1, 75, 80
3, 203056, Note_on_c, 1, 75, 0
3, 203136, Note_on_c, 1, 72, 80
3, 203440, Note_on_c, 1, 72, 0
3, 203520, Note_on_c, 1, 65, 80
3, 204132, Note_on_c, 1, 65, 0
3, 205824, Note_on_c, 1, 70, 80
3, 206128, Note_on_c, 1, 70, 0
3, 206208, Note_on_c, 1, 65, 80
3, 206512, Note_on_c, 1, 65, 0
3, 206592, Note_on_c, 1, 62, 80
3, 206896, Note_on_c, 1, 62, 0
3, 206976, Note_on_c, 1, 58, 80
3, 207280, Note_on_c, 1, 58, 0
3, 208896, Note_on_c, 1, 70, 80
3, 209200, Note_on_c, 1, 70, 0
3, 209280, Note_on_c, 1, 65, 80
3, 209584, Note_on_c, 1, 65, 0
3, 209664, Note_on_c, 1, 58, 80
3, 210276, Note_on_c, 1, 58, 0
3, 211968, Note_on_c, 1, 58, 80
3, 213504, Note_on_c, 1, 58, 0
3, 213504, Note_on_c, 1, 65, 80
3, 213808, Note_on_c, 1, 65, 0
3, 228864, Note_on_c, 1, 65, 88
3, 231168, Note_on_c, 1, 65, 0
3, 231168, Note_on_c, 1, 70, 88
3, 231168, Note_on_c, 1, 62, 88
3, 231472, Note_on_c, 1, 62, 0
3, 231472, Note_on_c, 1, 70, 0
3, 231744, Note_on_c, 1, 70, 88
3, 231744, Note_on_c, 1, 62, 88
3, 231896, Note_on_c, 1, 62, 0
3, 231896, Note_on_c, 1, 70, 0
3, 231936, Note_on_c, 1, 72, 88
3, 231936, Note_on_c, 1, 65, 88
3, 232240, Note_on_c, 1, 65, 0
3, 232240, Note_on_c, 1, 72, 0
3, 232512, Note_on_c, 1, 72, 88
3, 232512, Note_on_c, 1, 65, 88
3, 232664, Note_on_c, 1, 65, 0
3, 232664, Note_on_c, 1, 72, 0
3, 232704, Note_on_c, 1, 74, 88
3, 232704, Note_on_c, 1, 70, 88
3, 233008, Note_on_c, 1, 70, 0
3, 233008, Note_on_c, 1, 74, 0
3, 233280, Note_on_c, 1, 74, 88
3, 233280, Note_on_c, 1, 70, 88
3, 233432, Note_on_c, 1, 70, 0
3, 233432, Note_on_c, 1, 74, 0
3, 233472, Note_on_c, 1, 77, 88
3, 233472, Note_on_c, 1, 74, 88
3, 233664, Note_on_c, 1, 74, 0
3, 233664, Note_on_c, 1, 77, 0
3, 233664, Note_on_c, 1, 75, 88
3, 233664, Note_on_c, 1, 72, 88
3, 233816, Note_on_c, 1, 72, 0
3, 233816, Note_on_c, 1, 75, 0
3, 233856, Note_on_c, 1, 74, 88
3, 233856, Note_on_c, 1, 70, 88
3, 234008, Note_on_c, 1, 70, 0
3, 234008, Note_on_c, 1, 74, 0
3, 234048, Note_on_c, 1, 72, 88
3, 234048, Note_on_c, 1, 65, 88
3, 234200, Note_on_c, 1, 65, 0
3, 234200, Note_on_c, 1, 72, 0
3, 234240, Note_on_c, 1, 70, 88
3, 234240, Note_on_c, 1, 58, 88
3, 234544, Note_on_c, 1, 58, 0
3, 234544, Note_on_c, 1, 70, 0
3, 239616, Note_on_c, 1, 70, 80
3, 239616, Note_on_c, 1, 62, 80
3, 239920, Note_on_c, 1, 62, 0
3, 239920, Note_on_c, 1, 70, 0
3, 240384, Note_on_c, 1, 70, 80
3, 240384, Note_on_c, 1, 58, 80
3, 241152, Note_on_c, 1, 58, 0
3, 241152, Note_on_c, 1, 70, 0
3, 241152, Note_on_c, 1, 70, 80
3, 241152, Note_on_c, 1, 58, 80
3, 241456, Note_on_c, 1, 58, 0
3, 241456, Note_on_c, 1, 70, 0
3, 241920, Note_on_c, 1, 70, 80
3, 241920, Note_on_c, 1, 58, 80
3, 242532, Note_on_c, 1, 58, 0
3, 242532, Note_on_c, 1, 70, 0
3, 242688, Note_on_c, 1, 70, 100
3, 242688, Note_on_c, 1, 58, 100
3, 242992, Note_on_c, 1, 58, 0
3, 242992, Note_on_c, 1, 70, 0
3, 243072, Note_on_c, 1, 74, 100
3, 243072, Note_on_c, 1, 70, 100
3, 243376, Note_on_c, 1, 70, 0
3, 243376, Note_on_c, 1, 74, 0
3, 243456, Note_on_c, 1, 72, 100
3, 243456, Note_on_c, 1, 70, 100
3, 243760, Note_on_c, 1, 70, 0
3, 243760, Note_on_c, 1, 72, 0
3, 243840, Note_on_c, 1, 72, 100
3, 243840, Note_on_c, 1, 65, 100
3, 244144, Note_on_c, 1, 65, 0
3, 244144, Note_on_c, 1, 72, 0
3, 244224, Note_on_c, 1, 70, 100
3, 244224, Note_on_c, 1, 62, 100
3, 244528, Note_on_c, 1, 62, 0
3, 244528, Note_on_c, 1, 70, 0
3, 245376, Note_on_c, 1, 58, 100
3, 245680, Note_on_c, 1, 58, 0
3, 245760, Note_on_c, 1, 65, 100
3, 246064, Note_on_c, 1, 65, 0
3, 246912, Note_on_c, 1, 65, 100
3, 247216, Note_on_c, 1, 65, 0
3, 247296, Note_on_c, 1, 58, 100
3, 247600, Note_on_c, 1, 58, 0
3, 248448, Note_on_c, 1, 58, 100
3, 248752, Note_on_c, 1, 58, 0
3, 248832, Note_on_c, 1, 65, 100
3, 249136, Note_on_c, 1, 65, 0
3, 249984, Note_on_c, 1, 65, 100
3, 250288, Note_on_c, 1, 65, 0
3, 250368, Note_on_c, 1, 58, 100
3, 250672, Note_on_c, 1, 58, 0
3, 256512, Note_on_c, 1, 58, 80
3, 256816, Note_on_c, 1, 58, 0
3, 265728, Note_on_c, 1, 62, 80
3, 265728, Note_on_c, 1, 70, 80
3, 266032, Note_on_c, 1, 70, 0
3, 266032, Note_on_c, 1, 62, 0
3, 267264, Note_on_c, 1, 62, 80
3, 267264, Note_on_c, 1, 70, 80
3, 267568, Note_on_c, 1, 70, 0
3, 267568, Note_on_c, 1, 62, 0
3, 268800, Note_on_c, 1, 58, 80
3, 269104, Note_on_c, 1, 58, 0
3, 271872, Note_on_c, 1, 65, 80
3, 271872, Note_on_c, 1, 74, 80
3, 272176, Note_on_c, 1, 74, 0
3, 272176, Note_on_c, 1, 65, 0
3, 273408, Note_on_c, 1, 65, 80
3, 273408, Note_on_c, 1, 74, 80
3, 273712, Note_on_c, 1, 74, 0
3, 273712, Note_on_c, 1, 65, 0
3, 302588, Control_c, 1, 7, 77
3, 302592, Note_on_c, 1, 62, 80
3, 302592, Note_on_c, 1, 72, 80
3, 302652, Control_c, 1, 7, 78
3, 302716, Control_c, 1, 7, 79
3, 302774, Control_c, 1, 7, 80
3, 302838, Control_c, 1, 7, 81
3, 302895, Control_c, 1, 7, 82
3, 302959, Control_c, 1, 7, 83
3, 303023, Control_c, 1, 7, 84
3, 303081, Control_c, 1, 7, 85
3, 303145, Control_c, 1, 7, 86
3, 303202, Control_c, 1, 7, 87
3, 303266, Control_c, 1, 7, 88
3, 303330, Control_c, 1, 7, 89
3, 303388, Control_c, 1, 7, 90
3, 303452, Control_c, 1, 7, 91
3, 303510, Control_c, 1, 7, 92
3, 303574, Control_c, 1, 7, 93
3, 303638, Control_c, 1, 7, 94
3, 303695, Control_c, 1, 7, 95
3, 303759, Control_c, 1, 7, 96
3, 303817, Control_c, 1, 7, 97
3, 303881, Control_c, 1, 7, 98
3, 303945, Control_c, 1, 7, 99
3, 304002, Control_c, 1, 7, 100
3, 304066, Control_c, 1, 7, 101
3, 304124, Control_c, 1, 7, 102
3, 304188, Control_c, 1, 7, 103
3, 304252, Control_c, 1, 7, 104
3, 304310, Control_c, 1, 7, 105
3, 304374, Control_c, 1, 7, 106
3, 304431, Control_c, 1, 7, 107
3, 304495, Control_c, 1, 7, 108
3, 304559, Control_c, 1, 7, 109
3, 304617, Control_c, 1, 7, 110
3, 304681, Control_c, 1, 7, 111
3, 304738, Control_c, 1, 7, 112
3, 304802, Control_c, 1, 7, 113
3, 304866, Control_c, 1, 7, 114
3, 304924, Control_c, 1, 7, 115
3, 304988, Control_c, 1, 7, 116
3, 305046, Control_c, 1, 7, 117
3, 305110, Control_c, 1, 7, 118
3, 305174, Control_c, 1, 7, 119
3, 305231, Control_c, 1, 7, 120
3, 305295, Control_c, 1, 7, 121
3, 305353, Control_c, 1, 7, 122
3, 305417, Control_c, 1, 7, 123
3, 305481, Control_c, 1, 7, 124
3, 305538, Control_c, 1, 7, 125
3, 305602, Control_c, 1, 7, 126
3, 305660, Control_c, 1, 7, 127
3, 305664, Note_on_c, 1, 72, 0
3, 305664, Note_on_c, 1, 62, 0
3, 305664, Note_on_c, 1, 62, 96
3, 305664, Note_on_c, 1, 70, 96
3, 305968, Note_on_c, 1, 70, 0
3, 305968, Note_on_c, 1, 62, 0
3, 312576, Note_on_c, 1, 70, 80
3, 312576, Note_on_c, 1, 62, 80
3, 313188, Note_on_c, 1, 62, 0
3, 313188, Note_on_c, 1, 70, 0
3, 314112, Note_on_c, 1, 62, 80
3, 314112, Note_on_c, 1, 70, 80
3, 314724, Note_on_c, 1, 70, 0
3, 314724, Note_on_c, 1, 62, 0
3, 315648, Note_on_c, 1, 72, 80
3, 315648, Note_on_c, 1, 62, 80
3, 316260, Note_on_c, 1, 62, 0
3, 316260, Note_on_c, 1, 72, 0
3, 317184, Note_on_c, 1, 62, 80
3, 317184, Note_on_c, 1, 72, 80
3, 317796, Note_on_c, 1, 72, 0
3, 317796, Note_on_c, 1, 62, 0
3, 318720, Note_on_c, 1, 74, 80
3, 318720, Note_on_c, 1, 62, 80
3, 319024, Note_on_c, 1, 62, 0
3, 319024, Note_on_c, 1, 74, 0
3, 319104, Note_on_c, 1, 70, 80
3, 319104, Note_on_c, 1, 58, 80
3, 319408, Note_on_c, 1, 58, 0
3, 319408, Note_on_c, 1, 70, 0
3, 319488, Note_on_c, 1, 70, 80
3, 319488, Note_on_c, 1, 58, 80
3, 319792, Note_on_c, 1, 58, 0
3, 319792, Note_on_c, 1, 70, 0
3, 321024, Note_on_c, 1, 72, 80
3, 321328, Note_on_c, 1, 72, 0
3, 321408, Note_on_c, 1, 70, 80
3, 321712, Note_on_c, 1, 70, 0
3, 322560, Note_on_c, 1, 62, 80
3, 322864, Note_on_c, 1, 62, 0
3, 322944, Note_on_c, 1, 62, 64
3, 323248, Note_on_c, 1, 62, 0
3, 324096, Note_on_c, 1, 70, 80
3, 324096, Note_on_c, 1, 62, 80
3, 327168, Note_on_c, 1, 62, 0
3, 327168, Note_on_c, 1, 70, 0
3, 327168, Note_on_c, 1, 72, 80
3, 328704, Note_on_c, 1, 72, 0
3, 328704, Note_on_c, 1, 74, 80
3, 328704, Note_on_c, 1, 62, 80
3, 330240, Note_on_c, 1, 62, 0
3, 330240, Note_on_c, 1, 74, 0
3, 330240, Note_on_c, 1, 62, 80
3, 330544, Note_on_c, 1, 62, 0
3, 348672, Note_on_c, 1, 58, 80
3, 348672, Note_on_c, 1, 62, 80
3, 348976, Note_on_c, 1, 62, 0
3, 348976, Note_on_c, 1, 58, 0
3, 351744, Note_on_c, 1, 62, 80
3, 353124, Note_on_c, 1, 62, 0
3, 353280, Note_on_c, 1, 72, 80
3, 354660, Note_on_c, 1, 72, 0
3, 354816, Note_on_c, 1, 70, 80
3, 355120, Note_on_c, 1, 70, 0
3, 356352, Note_on_c, 1, 58, 80
3, 356352, Note_on_c, 1, 70, 80
3, 356656, Note_on_c, 1, 70, 0
3, 356656, Note_on_c, 1, 58, 0
3, 357888, Note_on_c, 1, 62, 80
3, 359268, Note_on_c, 1, 62, 0
3, 359424, Note_on_c, 1, 72, 80
3, 360804, Note_on_c, 1, 72, 0
3, 360960, Note_on_c, 1, 70, 80
3, 361264, Note_on_c, 1, 70, 0
3, 362496, Note_on_c, 1, 70, 80
3, 362496, Note_on_c, 1, 58, 80
3, 362800, Note_on_c, 1, 58, 0
3, 362800, Note_on_c, 1, 70, 0
3, 364032, Note_on_c, 1, 72, 80
3, 364336, Note_on_c, 1, 72, 0
3, 365568, Note_on_c, 1, 72, 80
3, 365872, Note_on_c, 1, 72, 0
3, 367104, Note_on_c, 1, 65, 80
3, 367104, Note_on_c, 1, 72, 80
3, 367408, Note_on_c, 1, 72, 0
3, 367408, Note_on_c, 1, 65, 0
3, 367488, Note_on_c, 1, 65, 80
3, 367488, Note_on_c, 1, 72, 80
3, 367640, Note_on_c, 1, 72, 0
3, 367640, Note_on_c, 1, 65, 0
3, 367680, Note_on_c, 1, 65, 80
3, 367680, Note_on_c, 1, 72, 80
3, 367832, Note_on_c, 1, 72, 0
3, 367832, Note_on_c, 1, 65, 0
3, 367872, Note_on_c, 1, 65, 80
3, 367872, Note_on_c, 1, 72, 80
3, 368176, Note_on_c, 1, 72, 0
3, 368176, Note_on_c, 1, 65, 0
3, 368640, Note_on_c, 1, 72, 80
3, 368640, Note_on_c, 1, 65, 80
3, 368944, Note_on_c, 1, 65, 0
3, 368944, Note_on_c, 1, 72, 0
3, 369024, Note_on_c, 1, 72, 80
3, 369024, Note_on_c, 1, 65, 80
3, 369176, Note_on_c, 1, 65, 0
3, 369176, Note_on_c, 1, 72, 0
3, 369216, Note_on_c, 1, 72, 80
3, 369216, Note_on_c, 1, 65, 80
3, 369368, Note_on_c, 1, 65, 0
3, 369368, Note_on_c, 1, 72, 0
3, 369408, Note_on_c, 1, 72, 80
3, 369408, Note_on_c, 1, 65, 80
3, 369712, Note_on_c, 1, 65, 0
3, 369712, Note_on_c, 1, 72, 0
3, 370176, Note_on_c, 1, 65, 80
3, 370176, Note_on_c, 1, 70, 80
3, 370480, Note_on_c, 1, 70, 0
3, 370480, Note_on_c, 1, 65, 0
3, 370560, Note_on_c, 1, 65, 80
3, 370560, Note_on_c, 1, 70, 80
3, 370712, Note_on_c, 1, 70, 0
3, 370712, Note_on_c, 1, 65, 0
3, 370752, Note_on_c, 1, 65, 80
3, 370752, Note_on_c, 1, 70, 80
3, 370904, Note_on_c, 1, 70, 0
3, 370904, Note_on_c, 1, 65, 0
3, 370944, Note_on_c, 1, 65, 80
3, 370944, Note_on_c, 1, 70, 80
3, 371248, Note_on_c, 1, 70, 0
3, 371248, Note_on_c, 1, 65, 0
3, 371712, Note_on_c, 1, 70, 80
3, 371712, Note_on_c, 1, 65, 80
3, 372016, Note_on_c, 1, 65, 0
3, 372016, Note_on_c, 1, 70, 0
3, 372096, Note_on_c, 1, 70, 80
3, 372096, Note_on_c, 1, 65, 80
3, 372248, Note_on_c, 1, 65, 0
3, 372248, Note_on_c, 1, 70, 0
3, 372288, Note_on_c, 1, 70, 80
3, 372288, Note_on_c, 1, 65, 80
3, 372440, Note_on_c, 1, 65, 0
3, 372440, Note_on_c, 1, 70, 0
3, 372480, Note_on_c, 1, 70, 80
3, 372480, Note_on_c, 1, 65, 80
3, 372784, Note_on_c, 1, 65, 0
3, 372784, Note_on_c, 1, 70, 0
3, 373248, Note_on_c, 1, 58, 80
3, 373248, Note_on_c, 1, 70, 80
3, 373552, Note_on_c, 1, 70, 0
3, 373552, Note_on_c, 1, 58, 0
3, 373632, Note_on_c, 1, 58, 80
3, 373632, Note_on_c, 1, 70, 80
3, 373784, Note_on_c, 1, 70, 0
3, 373784, Note_on_c, 1, 58, 0
3, 373824, Note_on_c, 1, 58, 80
3, 373824, Note_on_c, 1, 70, 80
3, 373976, Note_on_c, 1, 70, 0
3, 373976, Note_on_c, 1, 58, 0
3, 374016, Note_on_c, 1, 58, 80
3, 374016, Note_on_c, 1, 70, 80
3, 374320, Note_on_c, 1, 70, 0
3, 374320, Note_on_c, 1, 58, 0
3, 374784, Note_on_c, 1, 70, 80
3, 374784, Note_on_c, 1, 58, 80
3, 375088, Note_on_c, 1, 58, 0
3, 375088, Note_on_c, 1, 70, 0
3, 375168, Note_on_c, 1, 70, 80
3, 375168, Note_on_c, 1, 58, 80
3, 375320, Note_on_c, 1, 58, 0
3, 375320, Note_on_c, 1, 70, 0
3, 375360, Note_on_c, 1, 70, 80
3, 375360, Note_on_c, 1, 58, 80
3, 375512, Note_on_c, 1, 58, 0
3, 375512, Note_on_c, 1, 70, 0
3, 375552, Note_on_c, 1, 70, 80
3, 375552, Note_on_c, 1, 58, 80
3, 375856, Note_on_c, 1, 58, 0
3, 375856, Note_on_c, 1, 70, 0
3, 376320, Note_on_c, 1, 72, 80
3, 376624, Note_on_c, 1, 72, 0
3, 376704, Note_on_c, 1, 72, 80
3, 376856, Note_on_c, 1, 72, 0
3, 376896, Note_on_c, 1, 72, 80
3, 377048, Note_on_c, 1, 72, 0
3, 377088, Note_on_c, 1, 72, 80
3, 377392, Note_on_c, 1, 72, 0
3, 377856, Note_on_c, 1, 72, 80
3, 378160, Note_on_c, 1, 72, 0
3, 378240, Note_on_c, 1, 72, 80
3, 378392, Note_on_c, 1, 72, 0
3, 378432, Note_on_c, 1, 72, 80
3, 378584, Note_on_c, 1, 72, 0
3, 378624, Note_on_c, 1, 72, 80
3, 378928, Note_on_c, 1, 72, 0
3, 380928, Note_on_c, 1, 72, 80
3, 381196, Note_on_c, 1, 72, 0
3, 381312, Note_on_c, 1, 72, 80
3, 381580, Note_on_c, 1, 72, 0
3, 381696, Note_on_c, 1, 62, 80
3, 382232, Note_on_c, 1, 62, 0
3, 384384, Note_on_c, 1, 62, 80
3, 384652, Note_on_c, 1, 62, 0
3, 384768, Note_on_c, 1, 58, 80
3, 385304, Note_on_c, 1, 58, 0
3, 387072, Note_on_c, 1, 65, 80
3, 387340, Note_on_c, 1, 65, 0
3, 387456, Note_on_c, 1, 65, 80
3, 387724, Note_on_c, 1, 65, 0
3, 387840, Note_on_c, 1, 65, 80
3, 388376, Note_on_c, 1, 65, 0
3, 393216, Note_on_c, 1, 58, 80
3, 393216, Note_on_c, 1, 70, 80
3, 394444, Note_on_c, 1, 70, 0
3, 394444, Note_on_c, 1, 58, 0
3, 394752, Note_on_c, 1, 62, 80
3, 394752, Note_on_c, 1, 74, 80
3, 395136, Note_on_c, 1, 74, 0
3, 395136, Note_on_c, 1, 62, 0
3, 396288, Note_on_c, 1, 62, 80
3, 396288, Note_on_c, 1, 74, 80
3, 396516, Note_on_c, 1, 74, 0
3, 396516, Note_on_c, 1, 62, 0
3, 396672, Note_on_c, 1, 62, 80
3, 396672, Note_on_c, 1, 74, 80
3, 396900, Note_on_c, 1, 74, 0
3, 396900, Note_on_c, 1, 62, 0
3, 397056, Note_on_c, 1, 62, 80
3, 397056, Note_on_c, 1, 74, 80
3, 397284, Note_on_c, 1, 74, 0
3, 397284, Note_on_c, 1, 62, 0
3, 409344, Note_on_c, 1, 62, 64
3, 409344, Note_on_c, 1, 70, 64
3, 409728, Note_on_c, 1, 70, 0
3, 410112, Note_on_c, 1, 72, 64
3, 410496, Note_on_c, 1, 72, 0
3, 410880, Note_on_c, 1, 74, 64
3, 411264, Note_on_c, 1, 74, 0
3, 411648, Note_on_c, 1, 72, 64
3, 412032, Note_on_c, 1, 72, 0
3, 412416, Note_on_c, 1, 70, 64
3, 412800, Note_on_c, 1, 70, 0
3, 412992, Note_on_c, 1, 70, 64
3, 413184, Note_on_c, 1, 70, 0
3, 413184, Note_on_c, 1, 62, 0
3, 413184, Note_on_c, 1, 62, 64
3, 413184, Note_on_c, 1, 72, 64
3, 413568, Note_on_c, 1, 72, 0
3, 413760, Note_on_c, 1, 72, 64
3, 413952, Note_on_c, 1, 72, 0
3, 413952, Note_on_c, 1, 74, 64
3, 414336, Note_on_c, 1, 74, 0
3, 414528, Note_on_c, 1, 74, 64
3, 414720, Note_on_c, 1, 74, 0
3, 414720, Note_on_c, 1, 72, 64
3, 415104, Note_on_c, 1, 72, 0
3, 415296, Note_on_c, 1, 72, 64
3, 415488, Note_on_c, 1, 72, 0
3, 415488, Note_on_c, 1, 62, 0
3, 415488, Note_on_c, 1, 70, 64
3, 415872, Note_on_c, 1, 70, 0
3, 420864, Note_on_c, 1, 62, 80
3, 420864, Note_on_c, 1, 70, 80
3, 421248, Note_on_c, 1, 70, 0
3, 421248, Note_on_c, 1, 62, 0
3, 421632, Note_on_c, 1, 70, 80
3, 421632, Note_on_c, 1, 74, 80
3, 422400, Note_on_c, 1, 74, 0
3, 422400, Note_on_c, 1, 70, 0
3, 422400, Note_on_c, 1, 72, 80
3, 422784, Note_on_c, 1, 72, 0
3, 423168, Note_on_c, 1, 72, 80
3, 423936, Note_on_c, 1, 72, 0
3, 423936, Note_on_c, 1, 70, 80
3, 424164, Note_on_c, 1, 70, 0
3, 425088, Note_on_c, 1, 62, 80
3, 425088, Note_on_c, 1, 74, 80
3, 425316, Note_on_c, 1, 74, 0
3, 425316, Note_on_c, 1, 62, 0
3, 425472, Note_on_c, 1, 62, 80
3, 425472, Note_on_c, 1, 70, 80
3, 425776, Note_on_c, 1, 70, 0
3, 425776, Note_on_c, 1, 62, 0
3, 426624, Note_on_c, 1, 62, 80
3, 426624, Note_on_c, 1, 70, 80
3, 426928, Note_on_c, 1, 70, 0
3, 426928, Note_on_c, 1, 62, 0
3, 427008, Note_on_c, 1, 62, 80
3, 427008, Note_on_c, 1, 72, 80
3, 427312, Note_on_c, 1, 72, 0
3, 427312, Note_on_c, 1, 62, 0
3, 428160, Note_on_c, 1, 62, 80
3, 428160, Note_on_c, 1, 72, 80
3, 428464, Note_on_c, 1, 72, 0
3, 428464, Note_on_c, 1, 62, 0
3, 428544, Note_on_c, 1, 62, 80
3, 428544, Note_on_c, 1, 70, 80
3, 428848, Note_on_c, 1, 70, 0
3, 428848, Note_on_c, 1, 62, 0
3, 429696, Note_on_c, 1, 62, 80
3, 429696, Note_on_c, 1, 70, 80
3, 430000, Note_on_c, 1, 70, 0
3, 430000, Note_on_c, 1, 62, 0
3, 430080, Note_on_c, 1, 62, 80
3, 430080, Note_on_c, 1, 72, 80
3, 430384, Note_on_c, 1, 72, 0
3, 430384, Note_on_c, 1, 62, 0
3, 431232, Note_on_c, 1, 62, 80
3, 431232, Note_on_c, 1, 72, 80
3, 431536, Note_on_c, 1, 72, 0
3, 431536, Note_on_c, 1, 62, 0
3, 431616, Note_on_c, 1, 62, 80
3, 431616, Note_on_c, 1, 70, 80
3, 431920, Note_on_c, 1, 70, 0
3, 431920, Note_on_c, 1, 62, 0
3, 434688, Note_on_c, 1, 58, 80
3, 434688, Note_on_c, 1, 62, 80
3, 434992, Note_on_c, 1, 62, 0
3, 434992, Note_on_c, 1, 58, 0
3, 443904, Note_on_c, 1, 72, 96
3, 444672, Note_on_c, 1, 72, 0
3, 444672, Note_on_c, 1, 72, 96
3, 444672, Note_on_c, 1, 74, 96
3, 445440, Note_on_c, 1, 74, 0
3, 445440, Note_on_c, 1, 72, 0
3, 445440, Note_on_c, 1, 70, 96
3, 445440, Note_on_c, 1, 74, 96
3, 446208, Note_on_c, 1, 74, 0
3, 446208, Note_on_c, 1, 70, 0
3, 446208, Note_on_c, 1, 70, 96
3, 446976, Note_on_c, 1, 70, 0
3, 446976, Note_on_c, 1, 72, 96
3, 447744, Note_on_c, 1, 72, 0
3, 447744, Note_on_c, 1, 74, 96
3, 448512, Note_on_c, 1, 74, 0
3, 448512, Note_on_c, 1, 70, 96
3, 448512, Note_on_c, 1, 74, 96
3, 448816, Note_on_c, 1, 74, 0
3, 448816, Note_on_c, 1, 70, 0
3, 451584, Note_on_c, 1, 74, 115
3, 452196, Note_on_c, 1, 74, 0
3, 452352, Note_on_c, 1, 70, 115
3, 452656, Note_on_c, 1, 70, 0
3, 453120, Note_on_c, 1, 62, 115
3, 453424, Note_on_c, 1, 62, 0
3, 453888, Note_on_c, 1, 58, 115
3, 454192, Note_on_c, 1, 58, 0
3, 454192, End_track
4, 0, Start_track
4, 0, MIDI_port, 0
4, 0, Title_t, "Corni in G."
4, 0, Control_c, 2, 0, 0
4, 0, Program_c, 2, 60
4, 0, Control_c, 2, 10, 81
4, 0, Control_c, 2, 91, 127
4, 8448, Note_on_c, 2, 55, 80
4, 8448, Note_on_c, 2, 67, 80
4, 9060, Note_on_c, 2, 67, 0
4, 9060, Note_on_c, 2, 55, 0
4, 9984, Note_on_c, 2, 55, 80
4, 9984, Note_on_c, 2, 67, 80
4, 10596, Note_on_c, 2, 67, 0
4, 10596, Note_on_c, 2, 55, 0
4, 11520, Note_on_c, 2, 62, 80
4, 11520, Note_on_c, 2, 69, 80
4, 12132, Note_on_c, 2, 69, 0
4, 12132, Note_on_c, 2, 62, 0
4, 13056, Note_on_c, 2, 62, 80
4, 13056, Note_on_c, 2, 69, 80
4, 13668, Note_on_c, 2, 69, 0
4, 13668, Note_on_c, 2, 62, 0
4, 14592, Note_on_c, 2, 62, 80
4, 14896, Note_on_c, 2, 62, 0
4, 15744, Note_on_c, 2, 55, 80
4, 15744, Note_on_c, 2, 67, 80
4, 16048, Note_on_c, 2, 67, 0
4, 16048, Note_on_c, 2, 55, 0
4, 16128, Note_on_c, 2, 55, 80
4, 16128, Note_on_c, 2, 67, 80
4, 16432, Note_on_c, 2, 67, 0
4, 16432, Note_on_c, 2, 55, 0
4, 17664, Note_on_c, 2, 69, 80
4, 17968, Note_on_c, 2, 69, 0
4, 18048, Note_on_c, 2, 67, 80
4, 18352, Note_on_c, 2, 67, 0
4, 18432, Note_on_c, 2, 62, 80
4, 18736, Note_on_c, 2, 62, 0
4, 18816, Note_on_c, 2, 62, 64
4, 19120, Note_on_c, 2, 62, 0
4, 26112, Note_on_c, 2, 55, 41
4, 38400, Note_on_c, 2, 55, 0
4, 38400, Note_on_c, 2, 50, 41
4, 41776, Note_on_c, 2, 50, 0
4, 42240, Note_on_c, 2, 50, 41
4, 42544, Note_on_c, 2, 50, 0
4, 43008, Note_on_c, 2, 50, 33
4, 43312, Note_on_c, 2, 50, 0
4, 44544, Note_on_c, 2, 62, 80
4, 44928, Note_on_c, 2, 62, 0
4, 50688, Note_on_c, 2, 62, 80
4, 50992, Note_on_c, 2, 62, 0
4, 52224, Note_on_c, 2, 62, 80
4, 52528, Note_on_c, 2, 62, 0
4, 56832, Note_on_c, 2, 62, 80
4, 57136, Note_on_c, 2, 62, 0
4, 58368, Note_on_c, 2, 62, 80
4, 58672, Note_on_c, 2, 62, 0
4, 59904, Note_on_c, 2, 67, 80
4, 59904, Note_on_c, 2, 55, 80
4, 60208, Note_on_c, 2, 55, 0
4, 60208, Note_on_c, 2, 67, 0
4, 60288, Note_on_c, 2, 67, 80
4, 60288, Note_on_c, 2, 55, 80
4, 60440, Note_on_c, 2, 55, 0
4, 60440, Note_on_c, 2, 67, 0
4, 60480, Note_on_c, 2, 67, 80
4, 60480, Note_on_c, 2, 55, 80
4, 60632, Note_on_c, 2, 55, 0
4, 60632, Note_on_c, 2, 67, 0
4, 60672, Note_on_c, 2, 67, 80
4, 60672, Note_on_c, 2, 55, 80
4, 60976, Note_on_c, 2, 55, 0
4, 60976, Note_on_c, 2, 67, 0
4, 61440, Note_on_c, 2, 55, 80
4, 61440, Note_on_c, 2, 67, 80
4, 61744, Note_on_c, 2, 67, 0
4, 61744, Note_on_c, 2, 55, 0
4, 61824, Note_on_c, 2, 55, 80
4, 61824, Note_on_c, 2, 67, 80
4, 61976, Note_on_c, 2, 67, 0
4, 61976, Note_on_c, 2, 55, 0
4, 62016, Note_on_c, 2, 55, 80
4, 62016, Note_on_c, 2, 67, 80
4, 62168, Note_on_c, 2, 67, 0
4, 62168, Note_on_c, 2, 55, 0
4, 62208, Note_on_c, 2, 55, 80
4, 62208, Note_on_c, 2, 67, 80
4, 62512, Note_on_c, 2, 67, 0
4, 62512, Note_on_c, 2, 55, 0
4, 62976, Note_on_c, 2, 69, 80
4, 63280, Note_on_c, 2, 69, 0
4, 63360, Note_on_c, 2, 69, 80
4, 63512, Note_on_c, 2, 69, 0
4, 63552, Note_on_c, 2, 69, 80
4, 63704, Note_on_c, 2, 69, 0
4, 63744, Note_on_c, 2, 69, 80
4, 64048, Note_on_c, 2, 69, 0
4, 64512, Note_on_c, 2, 69, 80
4, 64816, Note_on_c, 2, 69, 0
4, 64896, Note_on_c, 2, 69, 80
4, 65048, Note_on_c, 2, 69, 0
4, 65088, Note_on_c, 2, 69, 80
4, 65240, Note_on_c, 2, 69, 0
4, 65280, Note_on_c, 2, 69, 80
4, 65584, Note_on_c, 2, 69, 0
4, 66048, Note_on_c, 2, 62, 80
4, 66048, Note_on_c, 2, 69, 80
4, 66352, Note_on_c, 2, 69, 0
4, 66352, Note_on_c, 2, 62, 0
4, 66432, Note_on_c, 2, 62, 80
4, 66432, Note_on_c, 2, 69, 80
4, 66584, Note_on_c, 2, 69, 0
4, 66584, Note_on_c, 2, 62, 0
4, 66624, Note_on_c, 2, 62, 80
4, 66624, Note_on_c, 2, 69, 80
4, 66776, Note_on_c, 2, 69, 0
4, 66776, Note_on_c, 2, 62, 0
4, 66816, Note_on_c, 2, 62, 80
4, 66816, Note_on_c, 2, 69, 80
4, 67120, Note_on_c, 2, 69, 0
4, 67120, Note_on_c, 2, 62, 0
4, 67584, Note_on_c, 2, 69, 80
4, 67584, Note_on_c, 2, 62, 80
4, 67888, Note_on_c, 2, 62, 0
4, 67888, Note_on_c, 2, 69, 0
4, 67968, Note_on_c, 2, 69, 80
4, 67968, Note_on_c, 2, 62, 80
4, 68120, Note_on_c, 2, 62, 0
4, 68120, Note_on_c, 2, 69, 0
4, 68160, Note_on_c, 2, 69, 80
4, 68160, Note_on_c, 2, 62, 80
4, 68312, Note_on_c, 2, 62, 0
4, 68312, Note_on_c, 2, 69, 0
4, 68352, Note_on_c, 2, 69, 80
4, 68352, Note_on_c, 2, 62, 80
4, 68656, Note_on_c, 2, 62, 0
4, 68656, Note_on_c, 2, 69, 0
4, 69120, Note_on_c, 2, 55, 80
4, 69120, Note_on_c, 2, 67, 80
4, 69424, Note_on_c, 2, 67, 0
4, 69424, Note_on_c, 2, 55, 0
4, 69504, Note_on_c, 2, 55, 80
4, 69504, Note_on_c, 2, 67, 80
4, 69656, Note_on_c, 2, 67, 0
4, 69656, Note_on_c, 2, 55, 0
4, 69696, Note_on_c, 2, 55, 80
4, 69696, Note_on_c, 2, 67, 80
4, 69848, Note_on_c, 2, 67, 0
4, 69848, Note_on_c, 2, 55, 0
4, 69888, Note_on_c, 2, 55, 80
4, 69888, Note_on_c, 2, 67, 80
4, 70192, Note_on_c, 2, 67, 0
4, 70192, Note_on_c, 2, 55, 0
4, 70656, Note_on_c, 2, 67, 80
4, 70656, Note_on_c, 2, 55, 80
4, 70960, Note_on_c, 2, 55, 0
4, 70960, Note_on_c, 2, 67, 0
4, 71040, Note_on_c, 2, 67, 80
4, 71040, Note_on_c, 2, 55, 80
4, 71192, Note_on_c, 2, 55, 0
4, 71192, Note_on_c, 2, 67, 0
4, 71232, Note_on_c, 2, 67, 80
4, 71232, Note_on_c, 2, 55, 80
4, 71384, Note_on_c, 2, 55, 0
4, 71384, Note_on_c, 2, 67, 0
4, 71424, Note_on_c, 2, 67, 80
4, 71424, Note_on_c, 2, 55, 80
4, 71728, Note_on_c, 2, 55, 0
4, 71728, Note_on_c, 2, 67, 0
4, 72192, Note_on_c, 2, 67, 80
4, 72496, Note_on_c, 2, 67, 0
4, 72576, Note_on_c, 2, 67, 80
4, 72728, Note_on_c, 2, 67, 0
4, 72768, Note_on_c, 2, 67, 80
4, 72920, Note_on_c, 2, 67, 0
4, 72960, Note_on_c, 2, 67, 80
4, 73264, Note_on_c, 2, 67, 0
4, 73728, Note_on_c, 2, 67, 80
4, 74032, Note_on_c, 2, 67, 0
4, 74112, Note_on_c, 2, 67, 80
4, 74264, Note_on_c, 2, 67, 0
4, 74304, Note_on_c, 2, 67, 80
4, 74456, Note_on_c, 2, 67, 0
4, 74496, Note_on_c, 2, 67, 80
4, 74800, Note_on_c, 2, 67, 0
4, 134400, Note_on_c, 2, 67, 80
4, 134400, Note_on_c, 2, 55, 80
4, 135012, Note_on_c, 2, 55, 0
4, 135012, Note_on_c, 2, 67, 0
4, 135936, Note_on_c, 2, 67, 80
4, 135936, Note_on_c, 2, 55, 80
4, 136548, Note_on_c, 2, 55, 0
4, 136548, Note_on_c, 2, 67, 0
4, 137472, Note_on_c, 2, 69, 80
4, 137472, Note_on_c, 2, 62, 80
4, 138084, Note_on_c, 2, 62, 0
4, 138084, Note_on_c, 2, 69, 0
4, 139008, Note_on_c, 2, 69, 80
4, 139008, Note_on_c, 2, 62, 80
4, 139620, Note_on_c, 2, 62, 0
4, 139620, Note_on_c, 2, 69, 0
4, 140544, Note_on_c, 2, 62, 80
4, 140848, Note_on_c, 2, 62, 0
4, 141696, Note_on_c, 2, 67, 80
4, 141696, Note_on_c, 2, 55, 80
4, 142000, Note_on_c, 2, 55, 0
4, 142000, Note_on_c, 2, 67, 0
4, 142080, Note_on_c, 2, 67, 80
4, 142080, Note_on_c, 2, 55, 80
4, 142384, Note_on_c, 2, 55, 0
4, 142384, Note_on_c, 2, 67, 0
4, 143616, Note_on_c, 2, 69, 80
4, 143920, Note_on_c, 2, 69, 0
4, 144000, Note_on_c, 2, 67, 80
4, 144304, Note_on_c, 2, 67, 0
4, 144384, Note_on_c, 2, 62, 80
4, 144688, Note_on_c, 2, 62, 0
4, 144768, Note_on_c, 2, 62, 64
4, 145072, Note_on_c, 2, 62, 0
4, 152064, Note_on_c, 2, 55, 41
4, 164352, Note_on_c, 2, 55, 0
4, 164352, Note_on_c, 2, 50, 41
4, 167728, Note_on_c, 2, 50, 0
4, 168192, Note_on_c, 2, 50, 41
4, 168496, Note_on_c, 2, 50, 0
4, 168960, Note_on_c, 2, 50, 33
4, 169264, Note_on_c, 2, 50, 0
4, 170496, Note_on_c, 2, 62, 80
4, 170880, Note_on_c, 2, 62, 0
4, 176640, Note_on_c, 2, 62, 80
4, 176944, Note_on_c, 2, 62, 0
4, 178176, Note_on_c, 2, 62, 80
4, 178480, Note_on_c, 2, 62, 0
4, 182784, Note_on_c, 2, 62, 80
4, 183088, Note_on_c, 2, 62, 0
4, 184320, Note_on_c, 2, 62, 80
4, 184624, Note_on_c, 2, 62, 0
4, 185856, Note_on_c, 2, 55, 80
4, 185856, Note_on_c, 2, 67, 80
4, 186160, Note_on_c, 2, 67, 0
4, 186160, Note_on_c, 2, 55, 0
4, 186240, Note_on_c, 2, 55, 80
4, 186240, Note_on_c, 2, 67, 80
4, 186392, Note_on_c, 2, 67, 0
4, 186392, Note_on_c, 2, 55, 0
4, 186432, Note_on_c, 2, 55, 80
4, 186432, Note_on_c, 2, 67, 80
4, 186584, Note_on_c, 2, 67, 0
4, 186584, Note_on_c, 2, 55, 0
4, 186624, Note_on_c, 2, 55, 80
4, 186624, Note_on_c, 2, 67, 80
4, 186928, Note_on_c, 2, 67, 0
4, 186928, Note_on_c, 2, 55, 0
4, 187392, Note_on_c, 2, 67, 80
4, 187392, Note_on_c, 2, 55, 80
4, 187696, Note_on_c, 2, 55, 0
4, 187696, Note_on_c, 2, 67, 0
4, 187776, Note_on_c, 2, 67, 80
4, 187776, Note_on_c, 2, 55, 80
4, 187928, Note_on_c, 2, 55, 0
4, 187928, Note_on_c, 2, 67, 0
4, 187968, Note_on_c, 2, 67, 80
4, 187968, Note_on_c, 2, 55, 80
4, 188120, Note_on_c, 2, 55, 0
4, 188120, Note_on_c, 2, 67, 0
4, 188160, Note_on_c, 2, 67, 80
4, 188160, Note_on_c, 2, 55, 80
4, 188464, Note_on_c, 2, 55, 0
4, 188464, Note_on_c, 2, 67, 0
4, 188928, Note_on_c, 2, 69, 80
4, 189232, Note_on_c, 2, 69, 0
4, 189312, Note_on_c, 2, 69, 80
4, 189464, Note_on_c, 2, 69, 0
4, 189504, Note_on_c, 2, 69, 80
4, 189656, Note_on_c, 2, 69, 0
4, 189696, Note_on_c, 2, 69, 80
4, 190000, Note_on_c, 2, 69, 0
4, 190464, Note_on_c, 2, 69, 80
4, 190768, Note_on_c, 2, 69, 0
4, 190848, Note_on_c, 2, 69, 80
4, 191000, Note_on_c, 2, 69, 0
4, 191040, Note_on_c, 2, 69, 80
4, 191192, Note_on_c, 2, 69, 0
4, 191232, Note_on_c, 2, 69, 80
4, 191536, Note_on_c, 2, 69, 0
4, 192000, Note_on_c, 2, 69, 80
4, 192000, Note_on_c, 2, 62, 80
4, 192304, Note_on_c, 2, 62, 0
4, 192304, Note_on_c, 2, 69, 0
4, 192384, Note_on_c, 2, 69, 80
4, 192384, Note_on_c, 2, 62, 80
4, 192536, Note_on_c, 2, 62, 0
4, 192536, Note_on_c, 2, 69, 0
4, 192576, Note_on_c, 2, 69, 80
4, 192576, Note_on_c, 2, 62, 80
4, 192728, Note_on_c, 2, 62, 0
4, 192728, Note_on_c, 2, 69, 0
4, 192768, Note_on_c, 2, 69, 80
4, 192768, Note_on_c, 2, 62, 80
4, 193072, Note_on_c, 2, 62, 0
4, 193072, Note_on_c, 2, 69, 0
4, 193536, Note_on_c, 2, 62, 80
4, 193536, Note_on_c, 2, 69, 80
4, 193840, Note_on_c, 2, 69, 0
4, 193840, Note_on_c, 2, 62, 0
4, 193920, Note_on_c, 2, 62, 80
4, 193920, Note_on_c, 2, 69, 80
4, 194072, Note_on_c, 2, 69, 0
4, 194072, Note_on_c, 2, 62, 0
4, 194112, Note_on_c, 2, 62, 80
4, 194112, Note_on_c, 2, 69, 80
4, 194264, Note_on_c, 2, 69, 0
4, 194264, Note_on_c, 2, 62, 0
4, 194304, Note_on_c, 2, 62, 80
4, 194304, Note_on_c, 2, 69, 80
4, 194608, Note_on_c, 2, 69, 0
4, 194608, Note_on_c, 2, 62, 0
4, 195072, Note_on_c, 2, 67, 80
4, 195072, Note_on_c, 2, 55, 80
4, 195376, Note_on_c, 2, 55, 0
4, 195376, Note_on_c, 2, 67, 0
4, 195456, Note_on_c, 2, 67, 80
4, 195456, Note_on_c, 2, 55, 80
4, 195608, Note_on_c, 2, 55, 0
4, 195608, Note_on_c, 2, 67, 0
4, 195648, Note_on_c, 2, 67, 80
4, 195648, Note_on_c, 2, 55, 80
4, 195800, Note_on_c, 2, 55, 0
4, 195800, Note_on_c, 2, 67, 0
4, 195840, Note_on_c, 2, 67, 80
4, 195840, Note_on_c, 2, 55, 80
4, 196144, Note_on_c, 2, 55, 0
4, 196144, Note_on_c, 2, 67, 0
4, 196608, Note_on_c, 2, 55, 80
4, 196608, Note_on_c, 2, 67, 80
4, 196912, Note_on_c, 2, 67, 0
4, 196912, Note_on_c, 2, 55, 0
4, 196992, Note_on_c, 2, 55, 80
4, 196992, Note_on_c, 2, 67, 80
4, 197144, Note_on_c, 2, 67, 0
4, 197144, Note_on_c, 2, 55, 0
4, 197184, Note_on_c, 2, 55, 80
4, 197184, Note_on_c, 2, 67, 80
4, 197336, Note_on_c, 2, 67, 0
4, 197336, Note_on_c, 2, 55, 0
4, 197376, Note_on_c, 2, 55, 80
4, 197376, Note_on_c, 2, 67, 80
4, 197680, Note_on_c, 2, 67, 0
4, 197680, Note_on_c, 2, 55, 0
4, 198144, Note_on_c, 2, 67, 80
4, 198448, Note_on_c, 2, 67, 0
4, 198528, Note_on_c, 2, 67, 80
4, 198680, Note_on_c, 2, 67, 0
4, 198720, Note_on_c, 2, 67, 80
4, 198872, Note_on_c, 2, 67, 0
4, 198912, Note_on_c, 2, 67, 80
4, 199216, Note_on_c, 2, 67, 0
4, 199680, Note_on_c, 2, 67, 80
4, 199984, Note_on_c, 2, 67, 0
4, 200064, Note_on_c, 2, 67, 80
4, 200216, Note_on_c, 2, 67, 0
4, 200256, Note_on_c, 2, 67, 80
4, 200408, Note_on_c, 2, 67, 0
4, 200448, Note_on_c, 2, 67, 80
4, 200752, Note_on_c, 2, 67, 0
4, 253440, Note_on_c, 2, 55, 80
4, 253440, Note_on_c, 2, 67, 80
4, 253744, Note_on_c, 2, 67, 0
4, 253744, Note_on_c, 2, 55, 0
4, 256512, Note_on_c, 2, 55, 80
4, 256816, Note_on_c, 2, 55, 0
4, 259584, Note_on_c, 2, 55, 80
4, 259584, Note_on_c, 2, 67, 80
4, 259888, Note_on_c, 2, 67, 0
4, 259888, Note_on_c, 2, 55, 0
4, 261120, Note_on_c, 2, 55, 80
4, 261120, Note_on_c, 2, 67, 80
4, 261424, Note_on_c, 2, 67, 0
4, 261424, Note_on_c, 2, 55, 0
4, 262656, Note_on_c, 2, 62, 80
4, 262656, Note_on_c, 2, 69, 80
4, 262960, Note_on_c, 2, 69, 0
4, 262960, Note_on_c, 2, 62, 0
4, 264192, Note_on_c, 2, 62, 80
4, 264192, Note_on_c, 2, 69, 80
4, 264496, Note_on_c, 2, 69, 0
4, 264496, Note_on_c, 2, 62, 0
4, 265728, Note_on_c, 2, 55, 80
4, 265728, Note_on_c, 2, 67, 80
4, 266032, Note_on_c, 2, 67, 0
4, 266032, Note_on_c, 2, 55, 0
4, 267264, Note_on_c, 2, 55, 80
4, 267264, Note_on_c, 2, 67, 80
4, 267568, Note_on_c, 2, 67, 0
4, 267568, Note_on_c, 2, 55, 0
4, 268800, Note_on_c, 2, 55, 80
4, 268800, Note_on_c, 2, 67, 80
4, 269104, Note_on_c, 2, 67, 0
4, 269104, Note_on_c, 2, 55, 0
4, 270336, Note_on_c, 2, 67, 80
4, 270336, Note_on_c, 2, 69, 80
4, 270640, Note_on_c, 2, 69, 0
4, 270640, Note_on_c, 2, 67, 0
4, 271872, Note_on_c, 2, 62, 80
4, 271872, Note_on_c, 2, 69, 80
4, 272176, Note_on_c, 2, 69, 0
4, 272176, Note_on_c, 2, 62, 0
4, 273408, Note_on_c, 2, 62, 80
4, 273712, Note_on_c, 2, 62, 0
4, 302586, Control_c, 2, 7, 79
4, 302592, Note_on_c, 2, 62, 80
4, 302650, Control_c, 2, 7, 80
4, 302714, Control_c, 2, 7, 81
4, 302778, Control_c, 2, 7, 82
4, 302842, Control_c, 2, 7, 83
4, 302906, Control_c, 2, 7, 84
4, 302970, Control_c, 2, 7, 85
4, 303034, Control_c, 2, 7, 86
4, 303098, Control_c, 2, 7, 87
4, 303162, Control_c, 2, 7, 88
4, 303226, Control_c, 2, 7, 89
4, 303290, Control_c, 2, 7, 90
4, 303354, Control_c, 2, 7, 91
4, 303418, Control_c, 2, 7, 92
4, 303482, Control_c, 2, 7, 93
4, 303546, Control_c, 2, 7, 94
4, 303610, Control_c, 2, 7, 95
4, 303674, Control_c, 2, 7, 96
4, 303738, Control_c, 2, 7, 97
4, 303802, Control_c, 2, 7, 98
4, 303866, Control_c, 2, 7, 99
4, 303930, Control_c, 2, 7, 100
4, 303994, Control_c, 2, 7, 101
4, 304058, Control_c, 2, 7, 102
4, 304122, Control_c, 2, 7, 103
4, 304186, Control_c, 2, 7, 104
4, 304250, Control_c, 2, 7, 105
4, 304314, Control_c, 2, 7, 106
4, 304378, Control_c, 2, 7, 107
4, 304442, Control_c, 2, 7, 108
4, 304506, Control_c, 2, 7, 109
4, 304570, Control_c, 2, 7, 110
4, 304634, Control_c, 2, 7, 111
4, 304698, Control_c, 2, 7, 112
4, 304762, Control_c, 2, 7, 113
4, 304826, Control_c, 2, 7, 114
4, 304890, Control_c, 2, 7, 115
4, 304954, Control_c, 2, 7, 116
4, 305018, Control_c, 2, 7, 117
4, 305082, Control_c, 2, 7, 118
4, 305146, Control_c, 2, 7, 119
4, 305210, Control_c, 2, 7, 120
4, 305274, Control_c, 2, 7, 121
4, 305338, Control_c, 2, 7, 122
4, 305402, Control_c, 2, 7, 123
4, 305466, Control_c, 2, 7, 124
4, 305530, Control_c, 2, 7, 125
4, 305594, Control_c, 2, 7, 126
4, 305658, Control_c, 2, 7, 127
4, 305664, Note_on_c, 2, 62, 0
4, 305664, Note_on_c, 2, 55, 96
4, 305664, Note_on_c, 2, 67, 96
4, 305968, Note_on_c, 2, 67, 0
4, 305968, Note_on_c, 2, 55, 0
4, 312576, Note_on_c, 2, 67, 80
4, 312576, Note_on_c, 2, 55, 80
4, 313188, Note_on_c, 2, 55, 0
4, 313188, Note_on_c, 2, 67, 0
4, 314112, Note_on_c, 2, 67, 80
4, 314112, Note_on_c, 2, 55, 80
4, 314724, Note_on_c, 2, 55, 0
4, 314724, Note_on_c, 2, 67, 0
4, 315648, Note_on_c, 2, 69, 80
4, 315648, Note_on_c, 2, 62, 80
4, 316260, Note_on_c, 2, 62, 0
4, 316260, Note_on_c, 2, 69, 0
4, 317184, Note_on_c, 2, 69, 80
4, 317184, Note_on_c, 2, 62, 80
4, 317796, Note_on_c, 2, 62, 0
4, 317796, Note_on_c, 2, 69, 0
4, 318720, Note_on_c, 2, 62, 80
4, 319024, Note_on_c, 2, 62, 0
4, 319872, Note_on_c, 2, 67, 80
4, 319872, Note_on_c, 2, 55, 80
4, 320176, Note_on_c, 2, 55, 0
4, 320176, Note_on_c, 2, 67, 0
4, 320256, Note_on_c, 2, 67, 80
4, 320256, Note_on_c, 2, 55, 80
4, 320560, Note_on_c, 2, 55, 0
4, 320560, Note_on_c, 2, 67, 0
4, 321792, Note_on_c, 2, 69, 80
4, 322096, Note_on_c, 2, 69, 0
4, 322176, Note_on_c, 2, 67, 80
4, 322480, Note_on_c, 2, 67, 0
4, 322560, Note_on_c, 2, 62, 80
4, 322864, Note_on_c, 2, 62, 0
4, 322944, Note_on_c, 2, 62, 64
4, 323248, Note_on_c, 2, 62, 0
4, 330240, Note_on_c, 2, 55, 41
4, 342528, Note_on_c, 2, 55, 0
4, 342528, Note_on_c, 2, 50, 41
4, 345904, Note_on_c, 2, 50, 0
4, 346368, Note_on_c, 2, 50, 41
4, 346672, Note_on_c, 2, 50, 0
4, 347136, Note_on_c, 2, 50, 33
4, 347440, Note_on_c, 2, 50, 0
4, 348672, Note_on_c, 2, 55, 80
4, 348672, Note_on_c, 2, 67, 80
4, 348976, Note_on_c, 2, 67, 0
4, 348976, Note_on_c, 2, 55, 0
4, 351744, Note_on_c, 2, 62, 80
4, 353124, Note_on_c, 2, 62, 0
4, 353280, Note_on_c, 2, 72, 80
4, 354660, Note_on_c, 2, 72, 0
4, 355200, Note_on_c, 2, 67, 80
4, 355352, Note_on_c, 2, 67, 0
4, 355392, Note_on_c, 2, 67, 80
4, 355544, Note_on_c, 2, 67, 0
4, 355584, Note_on_c, 2, 67, 80
4, 355888, Note_on_c, 2, 67, 0
4, 356736, Note_on_c, 2, 55, 80
4, 356736, Note_on_c, 2, 67, 80
4, 356888, Note_on_c, 2, 67, 0
4, 356888, Note_on_c, 2, 55, 0
4, 356928, Note_on_c, 2, 55, 80
4, 356928, Note_on_c, 2, 67, 80
4, 357080, Note_on_c, 2, 67, 0
4, 357080, Note_on_c, 2, 55, 0
4, 357120, Note_on_c, 2, 55, 80
4, 357120, Note_on_c, 2, 67, 80
4, 357424, Note_on_c, 2, 67, 0
4, 357424, Note_on_c, 2, 55, 0
4, 357888, Note_on_c, 2, 62, 80
4, 359268, Note_on_c, 2, 62, 0
4, 359424, Note_on_c, 2, 72, 80
4, 360804, Note_on_c, 2, 72, 0
4, 361344, Note_on_c, 2, 67, 80
4, 361496, Note_on_c, 2, 67, 0
4, 361536, Note_on_c, 2, 67, 80
4, 361688, Note_on_c, 2, 67, 0
4, 361728, Note_on_c, 2, 67, 80
4, 362032, Note_on_c, 2, 67, 0
4, 362880, Note_on_c, 2, 67, 80
4, 362880, Note_on_c, 2, 55, 80
4, 363032, Note_on_c, 2, 55, 0
4, 363032, Note_on_c, 2, 67, 0
4, 363072, Note_on_c, 2, 67, 80
4, 363072, Note_on_c, 2, 55, 80
4, 363224, Note_on_c, 2, 55, 0
4, 363224, Note_on_c, 2, 67, 0
4, 363264, Note_on_c, 2, 67, 80
4, 363264, Note_on_c, 2, 55, 80
4, 363568, Note_on_c, 2, 55, 0
4, 363568, Note_on_c, 2, 67, 0
4, 364032, Note_on_c, 2, 55, 80
4, 364032, Note_on_c, 2, 67, 80
4, 364336, Note_on_c, 2, 67, 0
4, 364336, Note_on_c, 2, 55, 0
4, 364416, Note_on_c, 2, 55, 80
4, 364416, Note_on_c, 2, 67, 80
4, 364568, Note_on_c, 2, 67, 0
4, 364568, Note_on_c, 2, 55, 0
4, 364608, Note_on_c, 2, 55, 80
4, 364608, Note_on_c, 2, 67, 80
4, 364760, Note_on_c, 2, 67, 0
4, 364760, Note_on_c, 2, 55, 0
4, 364800, Note_on_c, 2, 55, 80
4, 364800, Note_on_c, 2, 67, 80
4, 365104, Note_on_c, 2, 67, 0
4, 365104, Note_on_c, 2, 55, 0
4, 365568, Note_on_c, 2, 67, 80
4, 365568, Note_on_c, 2, 55, 80
4, 365872, Note_on_c, 2, 55, 0
4, 365872, Note_on_c, 2, 67, 0
4, 365952, Note_on_c, 2, 67, 80
4, 365952, Note_on_c, 2, 55, 80
4, 366104, Note_on_c, 2, 55, 0
4, 366104, Note_on_c, 2, 67, 0
4, 366144, Note_on_c, 2, 67, 80
4, 366144, Note_on_c, 2, 55, 80
4, 366296, Note_on_c, 2, 55, 0
4, 366296, Note_on_c, 2, 67, 0
4, 366336, Note_on_c, 2, 67, 80
4, 366336, Note_on_c, 2, 55, 80
4, 366640, Note_on_c, 2, 55, 0
4, 366640, Note_on_c, 2, 67, 0
4, 367104, Note_on_c, 2, 69, 80
4, 367408, Note_on_c, 2, 69, 0
4, 368640, Note_on_c, 2, 69, 80
4, 368944, Note_on_c, 2, 69, 0
4, 370176, Note_on_c, 2, 62, 80
4, 370480, Note_on_c, 2, 62, 0
4, 370560, Note_on_c, 2, 62, 80
4, 370712, Note_on_c, 2, 62, 0
4, 370752, Note_on_c, 2, 62, 80
4, 370904, Note_on_c, 2, 62, 0
4, 370944, Note_on_c, 2, 62, 80
4, 371248, Note_on_c, 2, 62, 0
4, 371712, Note_on_c, 2, 62, 80
4, 372016, Note_on_c, 2, 62, 0
4, 372096, Note_on_c, 2, 62, 80
4, 372248, Note_on_c, 2, 62, 0
4, 372288, Note_on_c, 2, 62, 80
4, 372440, Note_on_c, 2, 62, 0
4, 372480, Note_on_c, 2, 62, 80
4, 372784, Note_on_c, 2, 62, 0
4, 373248, Note_on_c, 2, 67, 80
4, 373248, Note_on_c, 2, 55, 80
4, 373552, Note_on_c, 2, 55, 0
4, 373552, Note_on_c, 2, 67, 0
4, 373632, Note_on_c, 2, 67, 80
4, 373632, Note_on_c, 2, 55, 80
4, 373784, Note_on_c, 2, 55, 0
4, 373784, Note_on_c, 2, 67, 0
4, 373824, Note_on_c, 2, 67, 80
4, 373824, Note_on_c, 2, 55, 80
4, 373976, Note_on_c, 2, 55, 0
4, 373976, Note_on_c, 2, 67, 0
4, 374016, Note_on_c, 2, 67, 80
4, 374016, Note_on_c, 2, 55, 80
4, 374320, Note_on_c, 2, 55, 0
4, 374320, Note_on_c, 2, 67, 0
4, 374784, Note_on_c, 2, 55, 80
4, 374784, Note_on_c, 2, 67, 80
4, 375088, Note_on_c, 2, 67, 0
4, 375088, Note_on_c, 2, 55, 0
4, 375168, Note_on_c, 2, 55, 80
4, 375168, Note_on_c, 2, 67, 80
4, 375320, Note_on_c, 2, 67, 0
4, 375320, Note_on_c, 2, 55, 0
4, 375360, Note_on_c, 2, 55, 80
4, 375360, Note_on_c, 2, 67, 80
4, 375512, Note_on_c, 2, 67, 0
4, 375512, Note_on_c, 2, 55, 0
4, 375552, Note_on_c, 2, 55, 80
4, 375552, Note_on_c, 2, 67, 80
4, 375856, Note_on_c, 2, 67, 0
4, 375856, Note_on_c, 2, 55, 0
4, 376320, Note_on_c, 2, 69, 80
4, 376624, Note_on_c, 2, 69, 0
4, 376704, Note_on_c, 2, 69, 80
4, 376856, Note_on_c, 2, 69, 0
4, 376896, Note_on_c, 2, 69, 80
4, 377048, Note_on_c, 2, 69, 0
4, 377088, Note_on_c, 2, 69, 80
4, 377392, Note_on_c, 2, 69, 0
4, 377856, Note_on_c, 2, 69, 80
4, 378160, Note_on_c, 2, 69, 0
4, 378240, Note_on_c, 2, 69, 80
4, 378392, Note_on_c, 2, 69, 0
4, 378432, Note_on_c, 2, 69, 80
4, 378584, Note_on_c, 2, 69, 0
4, 378624, Note_on_c, 2, 69, 80
4, 378928, Note_on_c, 2, 69, 0
4, 380928, Note_on_c, 2, 72, 80
4, 381196, Note_on_c, 2, 72, 0
4, 381312, Note_on_c, 2, 69, 80
4, 381580, Note_on_c, 2, 69, 0
4, 381696, Note_on_c, 2, 62, 80
4, 382232, Note_on_c, 2, 62, 0
4, 384000, Note_on_c, 2, 67, 80
4, 384268, Note_on_c, 2, 67, 0
4, 384384, Note_on_c, 2, 62, 80
4, 384652, Note_on_c, 2, 62, 0
4, 384768, Note_on_c, 2, 55, 80
4, 385304, Note_on_c, 2, 55, 0
4, 387072, Note_on_c, 2, 62, 80
4, 387340, Note_on_c, 2, 62, 0
4, 387456, Note_on_c, 2, 62, 80
4, 387724, Note_on_c, 2, 62, 0
4, 387840, Note_on_c, 2, 62, 80
4, 388376, Note_on_c, 2, 62, 0
4, 390144, Note_on_c, 2, 55, 80
4, 390144, Note_on_c, 2, 67, 80
4, 391372, Note_on_c, 2, 67, 0
4, 391372, Note_on_c, 2, 55, 0
4, 393216, Note_on_c, 2, 55, 80
4, 393216, Note_on_c, 2, 67, 80
4, 394444, Note_on_c, 2, 67, 0
4, 394444, Note_on_c, 2, 55, 0
4, 394752, Note_on_c, 2, 50, 80
4, 394752, Note_on_c, 2, 62, 80
4, 395136, Note_on_c, 2, 62, 0
4, 395136, Note_on_c, 2, 50, 0
4, 396288, Note_on_c, 2, 50, 80
4, 396288, Note_on_c, 2, 62, 80
4, 396516, Note_on_c, 2, 62, 0
4, 396516, Note_on_c, 2, 50, 0
4, 396672, Note_on_c, 2, 50, 80
4, 396672, Note_on_c, 2, 62, 80
4, 396900, Note_on_c, 2, 62, 0
4, 396900, Note_on_c, 2, 50, 0
4, 397056, Note_on_c, 2, 50, 80
4, 397056, Note_on_c, 2, 62, 80
4, 397284, Note_on_c, 2, 62, 0
4, 397284, Note_on_c, 2, 50, 0
4, 409344, Note_on_c, 2, 62, 64
4, 409344, Note_on_c, 2, 67, 64
4, 409728, Note_on_c, 2, 67, 0
4, 410112, Note_on_c, 2, 69, 64
4, 410496, Note_on_c, 2, 69, 0
4, 410880, Note_on_c, 2, 67, 64
4, 411264, Note_on_c, 2, 67, 0
4, 411648, Note_on_c, 2, 69, 64
4, 412032, Note_on_c, 2, 69, 0
4, 412032, Note_on_c, 2, 74, 64
4, 412416, Note_on_c, 2, 74, 0
4, 412416, Note_on_c, 2, 74, 64
4, 412800, Note_on_c, 2, 74, 0
4, 412992, Note_on_c, 2, 67, 64
4, 413184, Note_on_c, 2, 67, 0
4, 413184, Note_on_c, 2, 62, 0
4, 413184, Note_on_c, 2, 62, 64
4, 413184, Note_on_c, 2, 69, 64
4, 413568, Note_on_c, 2, 69, 0
4, 413760, Note_on_c, 2, 69, 64
4, 413952, Note_on_c, 2, 69, 0
4, 413952, Note_on_c, 2, 67, 64
4, 414336, Note_on_c, 2, 67, 0
4, 414528, Note_on_c, 2, 67, 64
4, 414720, Note_on_c, 2, 67, 0
4, 414720, Note_on_c, 2, 69, 64
4, 415104, Note_on_c, 2, 69, 0
4, 415104, Note_on_c, 2, 74, 64
4, 415488, Note_on_c, 2, 74, 0
4, 415488, Note_on_c, 2, 62, 0
4, 415488, Note_on_c, 2, 74, 64
4, 415872, Note_on_c, 2, 74, 0
4, 420864, Note_on_c, 2, 55, 80
4, 420864, Note_on_c, 2, 67, 80
4, 421248, Note_on_c, 2, 67, 0
4, 421248, Note_on_c, 2, 55, 0
4, 421632, Note_on_c, 2, 55, 80
4, 421632, Note_on_c, 2, 67, 80
4, 422400, Note_on_c, 2, 67, 0
4, 422400, Note_on_c, 2, 55, 0
4, 422400, Note_on_c, 2, 55, 80
4, 422400, Note_on_c, 2, 67, 80
4, 422784, Note_on_c, 2, 67, 0
4, 422784, Note_on_c, 2, 55, 0
4, 423168, Note_on_c, 2, 55, 80
4, 423168, Note_on_c, 2, 67, 80
4, 423936, Note_on_c, 2, 67, 0
4, 423936, Note_on_c, 2, 55, 0
4, 423936, Note_on_c, 2, 55, 80
4, 423936, Note_on_c, 2, 67, 80
4, 424164, Note_on_c, 2, 67, 0
4, 424164, Note_on_c, 2, 55, 0
4, 425088, Note_on_c, 2, 62, 80
4, 425088, Note_on_c, 2, 69, 80
4, 425316, Note_on_c, 2, 69, 0
4, 425316, Note_on_c, 2, 62, 0
4, 425472, Note_on_c, 2, 55, 80
4, 425472, Note_on_c, 2, 67, 80
4, 425776, Note_on_c, 2, 67, 0
4, 425776, Note_on_c, 2, 55, 0
4, 426624, Note_on_c, 2, 55, 80
4, 426928, Note_on_c, 2, 55, 0
4, 427008, Note_on_c, 2, 62, 80
4, 427312, Note_on_c, 2, 62, 0
4, 428160, Note_on_c, 2, 62, 80
4, 428464, Note_on_c, 2, 62, 0
4, 428544, Note_on_c, 2, 55, 80
4, 428848, Note_on_c, 2, 55, 0
4, 429696, Note_on_c, 2, 55, 80
4, 430000, Note_on_c, 2, 55, 0
4, 430080, Note_on_c, 2, 62, 80
4, 430384, Note_on_c, 2, 62, 0
4, 431232, Note_on_c, 2, 62, 80
4, 431536, Note_on_c, 2, 62, 0
4, 431616, Note_on_c, 2, 55, 80
4, 431616, Note_on_c, 2, 67, 80
4, 431920, Note_on_c, 2, 67, 0
4, 431920, Note_on_c, 2, 55, 0
4, 434688, Note_on_c, 2, 55, 80
4, 434688, Note_on_c, 2, 67, 80
4, 434992, Note_on_c, 2, 67, 0
4, 434992, Note_on_c, 2, 55, 0
4, 440832, Note_on_c, 2, 67, 96
4, 442368, Note_on_c, 2, 67, 0
4, 442368, Note_on_c, 2, 62, 96
4, 443904, Note_on_c, 2, 62, 0
4, 443904, Note_on_c, 2, 55, 96
4, 443904, Note_on_c, 2, 67, 96
4, 444672, Note_on_c, 2, 67, 0
4, 444672, Note_on_c, 2, 55, 0
4, 444672, Note_on_c, 2, 62, 96
4, 444672, Note_on_c, 2, 69, 96
4, 445440, Note_on_c, 2, 69, 0
4, 445440, Note_on_c, 2, 62, 0
4, 445440, Note_on_c, 2, 55, 96
4, 445440, Note_on_c, 2, 67, 96
4, 446208, Note_on_c, 2, 67, 0
4, 446208, Note_on_c, 2, 55, 0
4, 446208, Note_on_c, 2, 55, 96
4, 446208, Note_on_c, 2, 67, 96
4, 446976, Note_on_c, 2, 67, 0
4, 446976, Note_on_c, 2, 55, 0
4, 446976, Note_on_c, 2, 67, 96
4, 446976, Note_on_c, 2, 69, 96
4, 447744, Note_on_c, 2, 69, 0
4, 447744, Note_on_c, 2, 67, 0
4, 447744, Note_on_c, 2, 62, 96
4, 447744, Note_on_c, 2, 69, 96
4, 448512, Note_on_c, 2, 69, 0
4, 448512, Note_on_c, 2, 62, 0
4, 448512, Note_on_c, 2, 55, 96
4, 448512, Note_on_c, 2, 67, 96
4, 448816, Note_on_c, 2, 67, 0
4, 448816, Note_on_c, 2, 55, 0
4, 450048, Note_on_c, 2, 67, 115
4, 450352, Note_on_c, 2, 67, 0
4, 450432, Note_on_c, 2, 67, 115
4, 450660, Note_on_c, 2, 67, 0
4, 450720, Note_on_c, 2, 67, 115
4, 450796, Note_on_c, 2, 67, 0
4, 450816, Note_on_c, 2, 67, 115
4, 451120, Note_on_c, 2, 67, 0
4, 451200, Note_on_c, 2, 67, 115
4, 451504, Note_on_c, 2, 67, 0
4, 451584, Note_on_c, 2, 74, 115
4, 452196, Note_on_c, 2, 74, 0
4, 452736, Note_on_c, 2, 67, 115
4, 453040, Note_on_c, 2, 67, 0
4, 453120, Note_on_c, 2, 62, 115
4, 453424, Note_on_c, 2, 62, 0
4, 453504, Note_on_c, 2, 67, 115
4, 453808, Note_on_c, 2, 67, 0
4, 454272, Note_on_c, 2, 62, 115
4, 454576, Note_on_c, 2, 62, 0
4, 454656, Note_on_c, 2, 55, 115
4, 455040, Note_on_c, 2, 55, 0
4, 455040, End_track
5, 0, Start_track
5, 0, MIDI_port, 0
5, 0, Title_t, "Violino I."
5, 0, Control_c, 3, 0, 0
5, 0, Program_c, 3, 48
5, 0, Control_c, 3, 10, 127
5, 0, Control_c, 3, 91, 127
5, 1536, Note_on_c, 3, 79, 120
5, 1688, Note_on_c, 3, 79, 0
5, 1728, Note_on_c, 3, 79, 120
5, 2032, Note_on_c, 3, 79, 0
5, 2112, Note_on_c, 3, 79, 120
5, 2416, Note_on_c, 3, 79, 0
5, 2496, Note_on_c, 3, 79, 120
5, 2800, Note_on_c, 3, 79, 0
5, 2880, Note_on_c, 3, 79, 120
5, 3032, Note_on_c, 3, 79, 0
5, 3072, Note_on_c, 3, 74, 120
5, 3224, Note_on_c, 3, 74, 0
5, 3264, Note_on_c, 3, 74, 120
5, 3568, Note_on_c, 3, 74, 0
5, 3648, Note_on_c, 3, 74, 120
5, 3952, Note_on_c, 3, 74, 0
5, 4032, Note_on_c, 3, 74, 120
5, 4336, Note_on_c, 3, 74, 0
5, 4416, Note_on_c, 3, 74, 120
5, 4568, Note_on_c, 3, 74, 0
5, 4608, Note_on_c, 3, 75, 120
5, 4760, Note_on_c, 3, 75, 0
5, 4800, Note_on_c, 3, 75, 120
5, 5104, Note_on_c, 3, 75, 0
5, 5184, Note_on_c, 3, 75, 120
5, 5488, Note_on_c, 3, 75, 0
5, 5568, Note_on_c, 3, 75, 120
5, 5872, Note_on_c, 3, 75, 0
5, 5952, Note_on_c, 3, 75, 120
5, 6104, Note_on_c, 3, 75, 0
5, 6144, Note_on_c, 3, 66, 120
5, 6296, Note_on_c, 3, 66, 0
5, 6336, Note_on_c, 3, 66, 120
5, 6640, Note_on_c, 3, 66, 0
5, 6720, Note_on_c, 3, 66, 120
5, 7024, Note_on_c, 3, 66, 0
5, 7104, Note_on_c, 3, 66, 120
5, 7408, Note_on_c, 3, 66, 0
5, 7488, Note_on_c, 3, 66, 120
5, 7640, Note_on_c, 3, 66, 0
5, 7680, Note_on_c, 3, 67, 120
5, 7832, Note_on_c, 3, 67, 0
5, 7872, Note_on_c, 3, 70, 120
5, 8024, Note_on_c, 3, 70, 0
5, 8064, Note_on_c, 3, 74, 120
5, 8216, Note_on_c, 3, 74, 0
5, 8256, Note_on_c, 3, 79, 120
5, 8408, Note_on_c, 3, 79, 0
5, 8448, Note_on_c, 3, 82, 120
5, 8544, Note_on_c, 3, 82, 0
5, 8544, Note_on_c, 3, 81, 120
5, 8640, Note_on_c, 3, 81, 0
5, 8640, Note_on_c, 3, 79, 120
5, 8736, Note_on_c, 3, 79, 0
5, 8736, Note_on_c, 3, 78, 120
5, 8832, Note_on_c, 3, 78, 0
5, 8832, Note_on_c, 3, 79, 120
5, 9024, Note_on_c, 3, 79, 0
5, 9216, Note_on_c, 3, 67, 120
5, 9368, Note_on_c, 3, 67, 0
5, 9408, Note_on_c, 3, 70, 120
5, 9560, Note_on_c, 3, 70, 0
5, 9600, Note_on_c, 3, 74, 120
5, 9752, Note_on_c, 3, 74, 0
5, 9792, Note_on_c, 3, 79, 120
5, 9944, Note_on_c, 3, 79, 0
5, 9984, Note_on_c, 3, 82, 120
5, 10080, Note_on_c, 3, 82, 0
5, 10080, Note_on_c, 3, 81, 120
5, 10176, Note_on_c, 3, 81, 0
5, 10176, Note_on_c, 3, 79, 120
5, 10272, Note_on_c, 3, 79, 0
5, 10272, Note_on_c, 3, 78, 120
5, 10368, Note_on_c, 3, 78, 0
5, 10368, Note_on_c, 3, 79, 120
5, 10560, Note_on_c, 3, 79, 0
5, 10752, Note_on_c, 3, 69, 120
5, 10904, Note_on_c, 3, 69, 0
5, 10944, Note_on_c, 3, 72, 120
5, 11096, Note_on_c, 3, 72, 0
5, 11136, Note_on_c, 3, 78, 120
5, 11288, Note_on_c, 3, 78, 0
5, 11328, Note_on_c, 3, 81, 120
5, 11480, Note_on_c, 3, 81, 0
5, 11520, Note_on_c, 3, 84, 120
5, 11616, Note_on_c, 3, 84, 0
5, 11616, Note_on_c, 3, 82, 120
5, 11712, Note_on_c, 3, 82, 0
5, 11712, Note_on_c, 3, 81, 120
5, 11808, Note_on_c, 3, 81, 0
5, 11808, Note_on_c, 3, 79, 120
5, 11904, Note_on_c, 3, 79, 0
5, 11904, Note_on_c, 3, 81, 120
5, 12096, Note_on_c, 3, 81, 0
5, 12288, Note_on_c, 3, 69, 120
5, 12440, Note_on_c, 3, 69, 0
5, 12480, Note_on_c, 3, 72, 120
5, 12632, Note_on_c, 3, 72, 0
5, 12672, Note_on_c, 3, 78, 120
5, 12824, Note_on_c, 3, 78, 0
5, 12864, Note_on_c, 3, 81, 120
5, 13016, Note_on_c, 3, 81, 0
5, 13056, Note_on_c, 3, 84, 120
5, 13152, Note_on_c, 3, 84, 0
5, 13152, Note_on_c, 3, 82, 120
5, 13248, Note_on_c, 3, 82, 0
5, 13248, Note_on_c, 3, 81, 120
5, 13344, Note_on_c, 3, 81, 0
5, 13344, Note_on_c, 3, 79, 120
5, 13440, Note_on_c, 3, 79, 0
5, 13440, Note_on_c, 3, 81, 120
5, 13632, Note_on_c, 3, 81, 0
5, 13824, Note_on_c, 3, 70, 120
5, 13976, Note_on_c, 3, 70, 0
5, 14016, Note_on_c, 3, 74, 120
5, 14168, Note_on_c, 3, 74, 0
5, 14208, Note_on_c, 3, 79, 120
5, 14360, Note_on_c, 3, 79, 0
5, 14400, Note_on_c, 3, 82, 120
5, 14552, Note_on_c, 3, 82, 0
5, 14592, Note_on_c, 3, 86, 120
5, 14688, Note_on_c, 3, 86, 0
5, 14688, Note_on_c, 3, 84, 120
5, 14784, Note_on_c, 3, 84, 0
5, 14784, Note_on_c, 3, 82, 120
5, 14880, Note_on_c, 3, 82, 0
5, 14880, Note_on_c, 3, 81, 120
5, 14976, Note_on_c, 3, 81, 0
5, 14976, Note_on_c, 3, 82, 120
5, 15168, Note_on_c, 3, 82, 0
5, 15360, Note_on_c, 3, 82, 120
5, 15456, Note_on_c, 3, 82, 0
5, 15456, Note_on_c, 3, 81, 120
5, 15552, Note_on_c, 3, 81, 0
5, 15552, Note_on_c, 3, 79, 120
5, 15648, Note_on_c, 3, 79, 0
5, 15648, Note_on_c, 3, 78, 120
5, 15744, Note_on_c, 3, 78, 0
5, 15744, Note_on_c, 3, 79, 120
5, 15936, Note_on_c, 3, 79, 0
5, 16128, Note_on_c, 3, 79, 120
5, 16224, Note_on_c, 3, 79, 0
5, 16224, Note_on_c, 3, 77, 120
5, 16320, Note_on_c, 3, 77, 0
5, 16320, Note_on_c, 3, 75, 120
5, 16416, Note_on_c, 3, 75, 0
5, 16416, Note_on_c, 3, 74, 120
5, 16512, Note_on_c, 3, 74, 0
5, 16512, Note_on_c, 3, 75, 120
5, 16608, Note_on_c, 3, 75, 0
5, 16608, Note_on_c, 3, 74, 120
5, 16704, Note_on_c, 3, 74, 0
5, 16704, Note_on_c, 3, 72, 120
5, 16800, Note_on_c, 3, 72, 0
5, 16800, Note_on_c, 3, 70, 120
5, 16896, Note_on_c, 3, 70, 0
5, 16896, Note_on_c, 3, 72, 120
5, 17096, Note_on_c, 3, 72, 0
5, 17184, Note_on_c, 3, 72, 120
5, 17260, Note_on_c, 3, 72, 0
5, 17280, Note_on_c, 3, 70, 120
5, 17480, Note_on_c, 3, 70, 0
5, 17568, Note_on_c, 3, 70, 120
5, 17644, Note_on_c, 3, 70, 0
5, 17664, Note_on_c, 3, 69, 120
5, 17864, Note_on_c, 3, 69, 0
5, 17952, Note_on_c, 3, 69, 120
5, 18028, Note_on_c, 3, 69, 0
5, 18048, Note_on_c, 3, 67, 120
5, 18248, Note_on_c, 3, 67, 0
5, 18336, Note_on_c, 3, 67, 120
5, 18412, Note_on_c, 3, 67, 0
5, 18432, Note_on_c, 3, 66, 120
5, 18624, Note_on_c, 3, 66, 0
5, 18816, Note_on_c, 3, 74, 96
5, 19008, Note_on_c, 3, 74, 0
5, 19968, Note_on_c, 3, 79, 120
5, 20120, Note_on_c, 3, 79, 0
5, 20160, Note_on_c, 3, 79, 120
5, 20464, Note_on_c, 3, 79, 0
5, 20544, Note_on_c, 3, 79, 120
5, 20848, Note_on_c, 3, 79, 0
5, 20928, Note_on_c, 3, 79, 120
5, 21232, Note_on_c, 3, 79, 0
5, 21312, Note_on_c, 3, 79, 120
5, 21464, Note_on_c, 3, 79, 0
5, 21504, Note_on_c, 3, 74, 120
5, 21656, Note_on_c, 3, 74, 0
5, 21696, Note_on_c, 3, 74, 120
5, 22000, Note_on_c, 3, 74, 0
5, 22080, Note_on_c, 3, 74, 120
5, 22384, Note_on_c, 3, 74, 0
5, 22464, Note_on_c, 3, 74, 120
5, 22768, Note_on_c, 3, 74, 0
5, 22848, Note_on_c, 3, 74, 120
5, 23000, Note_on_c, 3, 74, 0
5, 23040, Note_on_c, 3, 75, 120
5, 23192, Note_on_c, 3, 75, 0
5, 23232, Note_on_c, 3, 75, 120
5, 23536, Note_on_c, 3, 75, 0
5, 23616, Note_on_c, 3, 75, 120
5, 23920, Note_on_c, 3, 75, 0
5, 24000, Note_on_c, 3, 75, 120
5, 24304, Note_on_c, 3, 75, 0
5, 24384, Note_on_c, 3, 75, 120
5, 24536, Note_on_c, 3, 75, 0
5, 24576, Note_on_c, 3, 66, 120
5, 24728, Note_on_c, 3, 66, 0
5, 24768, Note_on_c, 3, 66, 120
5, 25072, Note_on_c, 3, 66, 0
5, 25152, Note_on_c, 3, 66, 120
5, 25456, Note_on_c, 3, 66, 0
5, 25536, Note_on_c, 3, 66, 120
5, 25840, Note_on_c, 3, 66, 0
5, 25920, Note_on_c, 3, 66, 120
5, 26072, Note_on_c, 3, 66, 0
5, 26112, Note_on_c, 3, 67, 120
5, 26380, Note_on_c, 3, 67, 0
5, 26496, Note_on_c, 3, 62, 64
5, 26800, Note_on_c, 3, 62, 0
5, 26880, Note_on_c, 3, 62, 64
5, 27184, Note_on_c, 3, 62, 0
5, 27264, Note_on_c, 3, 62, 64
5, 27568, Note_on_c, 3, 62, 0
5, 28032, Note_on_c, 3, 62, 64
5, 28336, Note_on_c, 3, 62, 0
5, 28416, Note_on_c, 3, 62, 64
5, 28720, Note_on_c, 3, 62, 0
5, 28800, Note_on_c, 3, 62, 64
5, 29104, Note_on_c, 3, 62, 0
5, 29568, Note_on_c, 3, 63, 64
5, 29872, Note_on_c, 3, 63, 0
5, 29952, Note_on_c, 3, 63, 64
5, 30256, Note_on_c, 3, 63, 0
5, 30336, Note_on_c, 3, 63, 64
5, 30640, Note_on_c, 3, 63, 0
5, 31104, Note_on_c, 3, 60, 64
5, 31408, Note_on_c, 3, 60, 0
5, 31488, Note_on_c, 3, 60, 64
5, 31792, Note_on_c, 3, 60, 0
5, 31872, Note_on_c, 3, 60, 64
5, 32176, Note_on_c, 3, 60, 0
5, 32640, Note_on_c, 3, 58, 64
5, 32944, Note_on_c, 3, 58, 0
5, 33024, Note_on_c, 3, 58, 64
5, 33328, Note_on_c, 3, 58, 0
5, 33408, Note_on_c, 3, 58, 64
5, 33712, Note_on_c, 3, 58, 0
5, 34176, Note_on_c, 3, 62, 64
5, 34480, Note_on_c, 3, 62, 0
5, 34560, Note_on_c, 3, 62, 64
5, 34864, Note_on_c, 3, 62, 0
5, 34944, Note_on_c, 3, 62, 64
5, 35248, Note_on_c, 3, 62, 0
5, 35712, Note_on_c, 3, 67, 64
5, 36016, Note_on_c, 3, 67, 0
5, 36096, Note_on_c, 3, 67, 64
5, 36400, Note_on_c, 3, 67, 0
5, 36480, Note_on_c, 3, 67, 64
5, 36784, Note_on_c, 3, 67, 0
5, 37248, Note_on_c, 3, 70, 64
5, 37552, Note_on_c, 3, 70, 0
5, 37632, Note_on_c, 3, 70, 64
5, 37936, Note_on_c, 3, 70, 0
5, 38016, Note_on_c, 3, 67, 64
5, 38320, Note_on_c, 3, 67, 0
5, 38400, Note_on_c, 3, 66, 80
5, 38976, Note_on_c, 3, 66, 0
5, 38976, Note_on_c, 3, 67, 76
5, 39168, Note_on_c, 3, 67, 0
5, 39168, Note_on_c, 3, 66, 75
5, 39360, Note_on_c, 3, 66, 0
5, 39360, Note_on_c, 3, 67, 74
5, 39552, Note_on_c, 3, 67, 0
5, 39552, Note_on_c, 3, 66, 72
5, 39744, Note_on_c, 3, 66, 0
5, 39744, Note_on_c, 3, 67, 71
5, 39936, Note_on_c, 3, 67, 0
5, 39936, Note_on_c, 3, 66, 70
5, 40512, Note_on_c, 3, 66, 0
5, 40512, Note_on_c, 3, 67, 66
5, 40704, Note_on_c, 3, 67, 0
5, 40704, Note_on_c, 3, 66, 65
5, 40896, Note_on_c, 3, 66, 0
5, 40896, Note_on_c, 3, 67, 64
5, 41088, Note_on_c, 3, 67, 0
5, 41088, Note_on_c, 3, 66, 62
5, 41280, Note_on_c, 3, 66, 0
5, 41280, Note_on_c, 3, 67, 61
5, 41472, Note_on_c, 3, 67, 0
5, 41472, Note_on_c, 3, 66, 60
5, 41776, Note_on_c, 3, 66, 0
5, 42240, Note_on_c, 3, 66, 52
5, 42544, Note_on_c, 3, 66, 0
5, 43008, Note_on_c, 3, 66, 40
5, 43312, Note_on_c, 3, 66, 0
5, 44544, Note_on_c, 3, 70, 120
5, 45924, Note_on_c, 3, 70, 0
5, 46080, Note_on_c, 3, 82, 120
5, 47460, Note_on_c, 3, 82, 0
5, 47616, Note_on_c, 3, 81, 120
5, 47680, Note_on_c, 3, 81, 0
5, 47680, Note_on_c, 3, 79, 120
5, 47744, Note_on_c, 3, 79, 0
5, 47744, Note_on_c, 3, 77, 120
5, 47940, Note_on_c, 3, 77, 0
5, 48000, Note_on_c, 3, 77, 120
5, 48132, Note_on_c, 3, 77, 0
5, 48192, Note_on_c, 3, 77, 120
5, 48324, Note_on_c, 3, 77, 0
5, 48384, Note_on_c, 3, 77, 120
5, 48652, Note_on_c, 3, 77, 0
5, 49152, Note_on_c, 3, 81, 120
5, 49216, Note_on_c, 3, 81, 0
5, 49216, Note_on_c, 3, 79, 120
5, 49280, Note_on_c, 3, 79, 0
5, 49280, Note_on_c, 3, 77, 120
5, 49476, Note_on_c, 3, 77, 0
5, 49536, Note_on_c, 3, 77, 120
5, 49668, Note_on_c, 3, 77, 0
5, 49728, Note_on_c, 3, 77, 120
5, 49860, Note_on_c, 3, 77, 0
5, 49920, Note_on_c, 3, 77, 120
5, 50188, Note_on_c, 3, 77, 0
5, 50688, Note_on_c, 3, 70, 120
5, 52068, Note_on_c, 3, 70, 0
5, 52224, Note_on_c, 3, 82, 120
5, 53604, Note_on_c, 3, 82, 0
5, 53760, Note_on_c, 3, 81, 127
5, 53824, Note_on_c, 3, 81, 0
5, 53824, Note_on_c, 3, 79, 127
5, 53888, Note_on_c, 3, 79, 0
5, 53888, Note_on_c, 3, 77, 127
5, 54084, Note_on_c, 3, 77, 0
5, 54144, Note_on_c, 3, 77, 120
5, 54276, Note_on_c, 3, 77, 0
5, 54336, Note_on_c, 3, 77, 120
5, 54468, Note_on_c, 3, 77, 0
5, 54528, Note_on_c, 3, 77, 120
5, 54796, Note_on_c, 3, 77, 0
5, 55296, Note_on_c, 3, 81, 127
5, 55360, Note_on_c, 3, 81, 0
5, 55360, Note_on_c, 3, 79, 127
5, 55424, Note_on_c, 3, 79, 0
5, 55424, Note_on_c, 3, 77, 127
5, 55620, Note_on_c, 3, 77, 0
5, 55680, Note_on_c, 3, 77, 120
5, 55812, Note_on_c, 3, 77, 0
5, 55872, Note_on_c, 3, 77, 120
5, 56004, Note_on_c, 3, 77, 0
5, 56064, Note_on_c, 3, 77, 120
5, 56332, Note_on_c, 3, 77, 0
5, 56832, Note_on_c, 3, 70, 120
5, 56928, Note_on_c, 3, 70, 0
5, 56928, Note_on_c, 3, 70, 120
5, 57024, Note_on_c, 3, 70, 0
5, 57024, Note_on_c, 3, 70, 120
5, 57120, Note_on_c, 3, 70, 0
5, 57120, Note_on_c, 3, 70, 120
5, 57216, Note_on_c, 3, 70, 0
5, 57216, Note_on_c, 3, 74, 120
5, 57312, Note_on_c, 3, 74, 0
5, 57312, Note_on_c, 3, 74, 120
5, 57408, Note_on_c, 3, 74, 0
5, 57408, Note_on_c, 3, 74, 120
5, 57504, Note_on_c, 3, 74, 0
5, 57504, Note_on_c, 3, 74, 120
5, 57600, Note_on_c, 3, 74, 0
5, 57600, Note_on_c, 3, 77, 120
5, 57696, Note_on_c, 3, 77, 0
5, 57696, Note_on_c, 3, 77, 120
5, 57792, Note_on_c, 3, 77, 0
5, 57792, Note_on_c, 3, 77, 120
5, 57888, Note_on_c, 3, 77, 0
5, 57888, Note_on_c, 3, 77, 120
5, 57984, Note_on_c, 3, 77, 0
5, 57984, Note_on_c, 3, 82, 120
5, 58080, Note_on_c, 3, 82, 0
5, 58080, Note_on_c, 3, 82, 120
5, 58176, Note_on_c, 3, 82, 0
5, 58176, Note_on_c, 3, 82, 120
5, 58272, Note_on_c, 3, 82, 0
5, 58272, Note_on_c, 3, 82, 120
5, 58368, Note_on_c, 3, 82, 0
5, 58368, Note_on_c, 3, 86, 120
5, 58464, Note_on_c, 3, 86, 0
5, 58464, Note_on_c, 3, 86, 120
5, 58560, Note_on_c, 3, 86, 0
5, 58560, Note_on_c, 3, 86, 120
5, 58656, Note_on_c, 3, 86, 0
5, 58656, Note_on_c, 3, 86, 120
5, 58752, Note_on_c, 3, 86, 0
5, 58752, Note_on_c, 3, 82, 120
5, 58848, Note_on_c, 3, 82, 0
5, 58848, Note_on_c, 3, 82, 120
5, 58944, Note_on_c, 3, 82, 0
5, 58944, Note_on_c, 3, 82, 120
5, 59040, Note_on_c, 3, 82, 0
5, 59040, Note_on_c, 3, 82, 120
5, 59136, Note_on_c, 3, 82, 0
5, 59136, Note_on_c, 3, 77, 120
5, 59232, Note_on_c, 3, 77, 0
5, 59232, Note_on_c, 3, 77, 120
5, 59328, Note_on_c, 3, 77, 0
5, 59328, Note_on_c, 3, 77, 120
5, 59424, Note_on_c, 3, 77, 0
5, 59424, Note_on_c, 3, 77, 120
5, 59520, Note_on_c, 3, 77, 0
5, 59520, Note_on_c, 3, 74, 120
5, 59616, Note_on_c, 3, 74, 0
5, 59616, Note_on_c, 3, 74, 120
5, 59712, Note_on_c, 3, 74, 0
5, 59712, Note_on_c, 3, 74, 120
5, 59808, Note_on_c, 3, 74, 0
5, 59808, Note_on_c, 3, 74, 120
5, 59904, Note_on_c, 3, 74, 0
5, 59904, Note_on_c, 3, 79, 120
5, 60056, Note_on_c, 3, 79, 0
5, 60096, Note_on_c, 3, 79, 120
5, 60400, Note_on_c, 3, 79, 0
5, 60480, Note_on_c, 3, 79, 120
5, 60784, Note_on_c, 3, 79, 0
5, 60864, Note_on_c, 3, 79, 120
5, 61168, Note_on_c, 3, 79, 0
5, 61248, Note_on_c, 3, 79, 120
5, 61592, Note_on_c, 3, 79, 0
5, 61632, Note_on_c, 3, 79, 120
5, 61936, Note_on_c, 3, 79, 0
5, 62016, Note_on_c, 3, 79, 120
5, 62320, Note_on_c, 3, 79, 0
5, 62400, Note_on_c, 3, 79, 120
5, 62704, Note_on_c, 3, 79, 0
5, 62784, Note_on_c, 3, 79, 120
5, 62936, Note_on_c, 3, 79, 0
5, 62976, Note_on_c, 3, 69, 120
5, 63072, Note_on_c, 3, 69, 0
5, 63072, Note_on_c, 3, 69, 120
5, 63168, Note_on_c, 3, 69, 0
5, 63168, Note_on_c, 3, 69, 120
5, 63264, Note_on_c, 3, 69, 0
5, 63264, Note_on_c, 3, 69, 120
5, 63360, Note_on_c, 3, 69, 0
5, 63360, Note_on_c, 3, 72, 120
5, 63456, Note_on_c, 3, 72, 0
5, 63456, Note_on_c, 3, 72, 120
5, 63552, Note_on_c, 3, 72, 0
5, 63552, Note_on_c, 3, 72, 120
5, 63648, Note_on_c, 3, 72, 0
5, 63648, Note_on_c, 3, 72, 120
5, 63744, Note_on_c, 3, 72, 0
5, 63744, Note_on_c, 3, 75, 120
5, 63840, Note_on_c, 3, 75, 0
5, 63840, Note_on_c, 3, 75, 120
5, 63936, Note_on_c, 3, 75, 0
5, 63936, Note_on_c, 3, 75, 120
5, 64032, Note_on_c, 3, 75, 0
5, 64032, Note_on_c, 3, 75, 120
5, 64128, Note_on_c, 3, 75, 0
5, 64128, Note_on_c, 3, 81, 120
5, 64224, Note_on_c, 3, 81, 0
5, 64224, Note_on_c, 3, 81, 120
5, 64320, Note_on_c, 3, 81, 0
5, 64320, Note_on_c, 3, 81, 120
5, 64416, Note_on_c, 3, 81, 0
5, 64416, Note_on_c, 3, 81, 120
5, 64512, Note_on_c, 3, 81, 0
5, 64512, Note_on_c, 3, 84, 120
5, 64512, Note_on_c, 3, 84, 120
5, 64608, Note_on_c, 3, 84, 0
5, 64608, Note_on_c, 3, 84, 0
5, 64608, Note_on_c, 3, 84, 120
5, 64704, Note_on_c, 3, 84, 0
5, 64704, Note_on_c, 3, 84, 120
5, 64800, Note_on_c, 3, 84, 0
5, 64800, Note_on_c, 3, 84, 120
5, 64896, Note_on_c, 3, 84, 0
5, 64896, Note_on_c, 3, 81, 120
5, 64992, Note_on_c, 3, 81, 0
5, 64992, Note_on_c, 3, 81, 120
5, 65088, Note_on_c, 3, 81, 0
5, 65088, Note_on_c, 3, 81, 120
5, 65184, Note_on_c, 3, 81, 0
5, 65184, Note_on_c, 3, 81, 120
5, 65280, Note_on_c, 3, 81, 0
5, 65280, Note_on_c, 3, 75, 120
5, 65376, Note_on_c, 3, 75, 0
5, 65376, Note_on_c, 3, 75, 120
5, 65472, Note_on_c, 3, 75, 0
5, 65472, Note_on_c, 3, 75, 120
5, 65568, Note_on_c, 3, 75, 0
5, 65568, Note_on_c, 3, 75, 120
5, 65664, Note_on_c, 3, 75, 0
5, 65664, Note_on_c, 3, 72, 120
5, 65760, Note_on_c, 3, 72, 0
5, 65760, Note_on_c, 3, 72, 120
5, 65856, Note_on_c, 3, 72, 0
5, 65856, Note_on_c, 3, 72, 120
5, 65952, Note_on_c, 3, 72, 0
5, 65952, Note_on_c, 3, 72, 120
5, 66048, Note_on_c, 3, 72, 0
5, 66048, Note_on_c, 3, 77, 120
5, 66200, Note_on_c, 3, 77, 0
5, 66240, Note_on_c, 3, 77, 120
5, 66544, Note_on_c, 3, 77, 0
5, 66624, Note_on_c, 3, 77, 120
5, 66928, Note_on_c, 3, 77, 0
5, 67008, Note_on_c, 3, 77, 120
5, 67312, Note_on_c, 3, 77, 0
5, 67392, Note_on_c, 3, 77, 120
5, 67736, Note_on_c, 3, 77, 0
5, 67776, Note_on_c, 3, 77, 120
5, 68080, Note_on_c, 3, 77, 0
5, 68160, Note_on_c, 3, 77, 120
5, 68464, Note_on_c, 3, 77, 0
5, 68544, Note_on_c, 3, 77, 120
5, 68848, Note_on_c, 3, 77, 0
5, 68928, Note_on_c, 3, 77, 120
5, 69080, Note_on_c, 3, 77, 0
5, 69120, Note_on_c, 3, 67, 120
5, 69216, Note_on_c, 3, 67, 0
5, 69216, Note_on_c, 3, 67, 120
5, 69312, Note_on_c, 3, 67, 0
5, 69312, Note_on_c, 3, 67, 120
5, 69408, Note_on_c, 3, 67, 0
5, 69408, Note_on_c, 3, 67, 120
5, 69504, Note_on_c, 3, 67, 0
5, 69504, Note_on_c, 3, 70, 120
5, 69600, Note_on_c, 3, 70, 0
5, 69600, Note_on_c, 3, 70, 120
5, 69696, Note_on_c, 3, 70, 0
5, 69696, Note_on_c, 3, 70, 120
5, 69792, Note_on_c, 3, 70, 0
5, 69792, Note_on_c, 3, 70, 120
5, 69888, Note_on_c, 3, 70, 0
5, 69888, Note_on_c, 3, 74, 120
5, 69984, Note_on_c, 3, 74, 0
5, 69984, Note_on_c, 3, 74, 120
5, 70080, Note_on_c, 3, 74, 0
5, 70080, Note_on_c, 3, 74, 120
5, 70176, Note_on_c, 3, 74, 0
5, 70176, Note_on_c, 3, 74, 120
5, 70272, Note_on_c, 3, 74, 0
5, 70272, Note_on_c, 3, 79, 120
5, 70368, Note_on_c, 3, 79, 0
5, 70368, Note_on_c, 3, 79, 120
5, 70464, Note_on_c, 3, 79, 0
5, 70464, Note_on_c, 3, 79, 120
5, 70560, Note_on_c, 3, 79, 0
5, 70560, Note_on_c, 3, 79, 120
5, 70656, Note_on_c, 3, 79, 0
5, 70656, Note_on_c, 3, 82, 120
5, 70752, Note_on_c, 3, 82, 0
5, 70752, Note_on_c, 3, 82, 120
5, 70848, Note_on_c, 3, 82, 0
5, 70848, Note_on_c, 3, 82, 120
5, 70944, Note_on_c, 3, 82, 0
5, 70944, Note_on_c, 3, 82, 120
5, 71040, Note_on_c, 3, 82, 0
5, 71040, Note_on_c, 3, 79, 120
5, 71136, Note_on_c, 3, 79, 0
5, 71136, Note_on_c, 3, 79, 120
5, 71232, Note_on_c, 3, 79, 0
5, 71232, Note_on_c, 3, 79, 120
5, 71328, Note_on_c, 3, 79, 0
5, 71328, Note_on_c, 3, 79, 120
5, 71424, Note_on_c, 3, 79, 0
5, 71424, Note_on_c, 3, 74, 120
5, 71520, Note_on_c, 3, 74, 0
5, 71520, Note_on_c, 3, 74, 120
5, 71616, Note_on_c, 3, 74, 0
5, 71616, Note_on_c, 3, 74, 120
5, 71712, Note_on_c, 3, 74, 0
5, 71712, Note_on_c, 3, 74, 120
5, 71808, Note_on_c, 3, 74, 0
5, 71808, Note_on_c, 3, 70, 120
5, 71904, Note_on_c, 3, 70, 0
5, 71904, Note_on_c, 3, 70, 120
5, 72000, Note_on_c, 3, 70, 0
5, 72000, Note_on_c, 3, 70, 120
5, 72096, Note_on_c, 3, 70, 0
5, 72096, Note_on_c, 3, 70, 120
5, 72192, Note_on_c, 3, 70, 0
5, 72192, Note_on_c, 3, 75, 120
5, 72344, Note_on_c, 3, 75, 0
5, 72384, Note_on_c, 3, 75, 120
5, 72688, Note_on_c, 3, 75, 0
5, 72768, Note_on_c, 3, 75, 120
5, 73072, Note_on_c, 3, 75, 0
5, 73152, Note_on_c, 3, 75, 120
5, 73456, Note_on_c, 3, 75, 0
5, 73536, Note_on_c, 3, 75, 120
5, 73880, Note_on_c, 3, 75, 0
5, 73920, Note_on_c, 3, 75, 120
5, 74224, Note_on_c, 3, 75, 0
5, 74304, Note_on_c, 3, 75, 120
5, 74608, Note_on_c, 3, 75, 0
5, 74688, Note_on_c, 3, 75, 120
5, 74992, Note_on_c, 3, 75, 0
5, 75072, Note_on_c, 3, 75, 120
5, 75224, Note_on_c, 3, 75, 0
5, 75264, Note_on_c, 3, 87, 120
5, 75360, Note_on_c, 3, 87, 0
5, 75360, Note_on_c, 3, 87, 120
5, 75456, Note_on_c, 3, 87, 0
5, 75456, Note_on_c, 3, 87, 120
5, 75552, Note_on_c, 3, 87, 0
5, 75552, Note_on_c, 3, 87, 120
5, 75648, Note_on_c, 3, 87, 0
5, 75648, Note_on_c, 3, 84, 120
5, 75744, Note_on_c, 3, 84, 0
5, 75744, Note_on_c, 3, 84, 120
5, 75840, Note_on_c, 3, 84, 0
5, 75840, Note_on_c, 3, 84, 120
5, 75936, Note_on_c, 3, 84, 0
5, 75936, Note_on_c, 3, 84, 120
5, 76032, Note_on_c, 3, 84, 0
5, 76032, Note_on_c, 3, 81, 120
5, 76128, Note_on_c, 3, 81, 0
5, 76128, Note_on_c, 3, 81, 120
5, 76224, Note_on_c, 3, 81, 0
5, 76224, Note_on_c, 3, 81, 120
5, 76320, Note_on_c, 3, 81, 0
5, 76320, Note_on_c, 3, 81, 120
5, 76416, Note_on_c, 3, 81, 0
5, 76416, Note_on_c, 3, 77, 120
5, 76512, Note_on_c, 3, 77, 0
5, 76512, Note_on_c, 3, 77, 120
5, 76608, Note_on_c, 3, 77, 0
5, 76608, Note_on_c, 3, 77, 120
5, 76704, Note_on_c, 3, 77, 0
5, 76704, Note_on_c, 3, 77, 120
5, 76800, Note_on_c, 3, 77, 0
5, 76800, Note_on_c, 3, 75, 120
5, 76800, Note_on_c, 3, 75, 120
5, 76896, Note_on_c, 3, 75, 0
5, 76896, Note_on_c, 3, 75, 0
5, 76896, Note_on_c, 3, 75, 120
5, 76992, Note_on_c, 3, 75, 0
5, 76992, Note_on_c, 3, 75, 120
5, 77088, Note_on_c, 3, 75, 0
5, 77088, Note_on_c, 3, 75, 120
5, 77184, Note_on_c, 3, 75, 0
5, 77184, Note_on_c, 3, 72, 120
5, 77280, Note_on_c, 3, 72, 0
5, 77280, Note_on_c, 3, 72, 120
5, 77376, Note_on_c, 3, 72, 0
5, 77376, Note_on_c, 3, 72, 120
5, 77472, Note_on_c, 3, 72, 0
5, 77472, Note_on_c, 3, 72, 120
5, 77568, Note_on_c, 3, 72, 0
5, 77568, Note_on_c, 3, 69, 120
5, 77664, Note_on_c, 3, 69, 0
5, 77664, Note_on_c, 3, 69, 120
5, 77760, Note_on_c, 3, 69, 0
5, 77760, Note_on_c, 3, 69, 120
5, 77856, Note_on_c, 3, 69, 0
5, 77856, Note_on_c, 3, 69, 120
5, 77952, Note_on_c, 3, 69, 0
5, 77952, Note_on_c, 3, 65, 120
5, 78048, Note_on_c, 3, 65, 0
5, 78048, Note_on_c, 3, 65, 120
5, 78144, Note_on_c, 3, 65, 0
5, 78144, Note_on_c, 3, 65, 120
5, 78240, Note_on_c, 3, 65, 0
5, 78240, Note_on_c, 3, 65, 120
5, 78336, Note_on_c, 3, 65, 0
5, 78336, Note_on_c, 3, 86, 120
5, 78432, Note_on_c, 3, 86, 0
5, 78432, Note_on_c, 3, 86, 120
5, 78528, Note_on_c, 3, 86, 0
5, 78528, Note_on_c, 3, 86, 120
5, 78624, Note_on_c, 3, 86, 0
5, 78624, Note_on_c, 3, 86, 120
5, 78720, Note_on_c, 3, 86, 0
5, 78720, Note_on_c, 3, 82, 120
5, 78816, Note_on_c, 3, 82, 0
5, 78816, Note_on_c, 3, 82, 120
5, 78912, Note_on_c, 3, 82, 0
5, 78912, Note_on_c, 3, 82, 120
5, 79008, Note_on_c, 3, 82, 0
5, 79008, Note_on_c, 3, 82, 120
5, 79104, Note_on_c, 3, 82, 0
5, 79104, Note_on_c, 3, 77, 120
5, 79200, Note_on_c, 3, 77, 0
5, 79200, Note_on_c, 3, 77, 120
5, 79296, Note_on_c, 3, 77, 0
5, 79296, Note_on_c, 3, 77, 120
5, 79392, Note_on_c, 3, 77, 0
5, 79392, Note_on_c, 3, 77, 120
5, 79488, Note_on_c, 3, 77, 0
5, 79488, Note_on_c, 3, 74, 120
5, 79584, Note_on_c, 3, 74, 0
5, 79584, Note_on_c, 3, 74, 120
5, 79680, Note_on_c, 3, 74, 0
5, 79680, Note_on_c, 3, 74, 120
5, 79776, Note_on_c, 3, 74, 0
5, 79776, Note_on_c, 3, 74, 120
5, 79872, Note_on_c, 3, 74, 0
5, 79872, Note_on_c, 3, 70, 120
5, 79968, Note_on_c, 3, 70, 0
5, 79968, Note_on_c, 3, 70, 120
5, 80064, Note_on_c, 3, 70, 0
5, 80064, Note_on_c, 3, 70, 120
5, 80160, Note_on_c, 3, 70, 0
5, 80160, Note_on_c, 3, 70, 120
5, 80256, Note_on_c, 3, 70, 0
5, 80256, Note_on_c, 3, 65, 120
5, 80352, Note_on_c, 3, 65, 0
5, 80352, Note_on_c, 3, 65, 120
5, 80448, Note_on_c, 3, 65, 0
5, 80448, Note_on_c, 3, 65, 120
5, 80544, Note_on_c, 3, 65, 0
5, 80544, Note_on_c, 3, 65, 120
5, 80640, Note_on_c, 3, 65, 0
5, 80640, Note_on_c, 3, 62, 120
5, 80736, Note_on_c, 3, 62, 0
5, 80736, Note_on_c, 3, 62, 120
5, 80832, Note_on_c, 3, 62, 0
5, 80832, Note_on_c, 3, 62, 120
5, 80928, Note_on_c, 3, 62, 0
5, 80928, Note_on_c, 3, 62, 120
5, 81024, Note_on_c, 3, 62, 0
5, 81024, Note_on_c, 3, 58, 120
5, 81120, Note_on_c, 3, 58, 0
5, 81120, Note_on_c, 3, 58, 120
5, 81216, Note_on_c, 3, 58, 0
5, 81216, Note_on_c, 3, 58, 120
5, 81312, Note_on_c, 3, 58, 0
5, 81312, Note_on_c, 3, 58, 120
5, 81408, Note_on_c, 3, 58, 0
5, 81408, Note_on_c, 3, 85, 120
5, 81504, Note_on_c, 3, 85, 0
5, 81504, Note_on_c, 3, 85, 120
5, 81600, Note_on_c, 3, 85, 0
5, 81600, Note_on_c, 3, 85, 120
5, 81696, Note_on_c, 3, 85, 0
5, 81696, Note_on_c, 3, 85, 120
5, 81792, Note_on_c, 3, 85, 0
5, 81792, Note_on_c, 3, 82, 120
5, 81888, Note_on_c, 3, 82, 0
5, 81888, Note_on_c, 3, 82, 120
5, 81984, Note_on_c, 3, 82, 0
5, 81984, Note_on_c, 3, 82, 120
5, 82080, Note_on_c, 3, 82, 0
5, 82080, Note_on_c, 3, 82, 120
5, 82176, Note_on_c, 3, 82, 0
5, 82176, Note_on_c, 3, 77, 120
5, 82272, Note_on_c, 3, 77, 0
5, 82272, Note_on_c, 3, 77, 120
5, 82368, Note_on_c, 3, 77, 0
5, 82368, Note_on_c, 3, 77, 120
5, 82464, Note_on_c, 3, 77, 0
5, 82464, Note_on_c, 3, 77, 120
5, 82560, Note_on_c, 3, 77, 0
5, 82560, Note_on_c, 3, 73, 120
5, 82656, Note_on_c, 3, 73, 0
5, 82656, Note_on_c, 3, 73, 120
5, 82752, Note_on_c, 3, 73, 0
5, 82752, Note_on_c, 3, 73, 120
5, 82848, Note_on_c, 3, 73, 0
5, 82848, Note_on_c, 3, 73, 120
5, 82944, Note_on_c, 3, 73, 0
5, 82944, Note_on_c, 3, 70, 120
5, 83040, Note_on_c, 3, 70, 0
5, 83040, Note_on_c, 3, 70, 120
5, 83136, Note_on_c, 3, 70, 0
5, 83136, Note_on_c, 3, 70, 120
5, 83232, Note_on_c, 3, 70, 0
5, 83232, Note_on_c, 3, 70, 120
5, 83328, Note_on_c, 3, 70, 0
5, 83328, Note_on_c, 3, 65, 120
5, 83424, Note_on_c, 3, 65, 0
5, 83424, Note_on_c, 3, 65, 120
5, 83520, Note_on_c, 3, 65, 0
5, 83520, Note_on_c, 3, 65, 120
5, 83616, Note_on_c, 3, 65, 0
5, 83616, Note_on_c, 3, 65, 120
5, 83712, Note_on_c, 3, 65, 0
5, 83712, Note_on_c, 3, 61, 120
5, 83808, Note_on_c, 3, 61, 0
5, 83808, Note_on_c, 3, 61, 120
5, 83904, Note_on_c, 3, 61, 0
5, 83904, Note_on_c, 3, 61, 120
5, 84000, Note_on_c, 3, 61, 0
5, 84000, Note_on_c, 3, 61, 120
5, 84096, Note_on_c, 3, 61, 0
5, 84096, Note_on_c, 3, 58, 120
5, 84192, Note_on_c, 3, 58, 0
5, 84192, Note_on_c, 3, 58, 120
5, 84288, Note_on_c, 3, 58, 0
5, 84288, Note_on_c, 3, 58, 120
5, 84384, Note_on_c, 3, 58, 0
5, 84384, Note_on_c, 3, 58, 120
5, 84480, Note_on_c, 3, 58, 0
5, 84480, Note_on_c, 3, 85, 120
5, 84576, Note_on_c, 3, 85, 0
5, 84576, Note_on_c, 3, 85, 120
5, 84672, Note_on_c, 3, 85, 0
5, 84672, Note_on_c, 3, 85, 120
5, 84768, Note_on_c, 3, 85, 0
5, 84768, Note_on_c, 3, 85, 120
5, 84864, Note_on_c, 3, 85, 0
5, 84864, Note_on_c, 3, 82, 120
5, 84960, Note_on_c, 3, 82, 0
5, 84960, Note_on_c, 3, 82, 120
5, 85056, Note_on_c, 3, 82, 0
5, 85056, Note_on_c, 3, 82, 120
5, 85152, Note_on_c, 3, 82, 0
5, 85152, Note_on_c, 3, 82, 120
5, 85248, Note_on_c, 3, 82, 0
5, 85248, Note_on_c, 3, 79, 120
5, 85344, Note_on_c, 3, 79, 0
5, 85344, Note_on_c, 3, 79, 120
5, 85440, Note_on_c, 3, 79, 0
5, 85440, Note_on_c, 3, 79, 120
5, 85536, Note_on_c, 3, 79, 0
5, 85536, Note_on_c, 3, 79, 120
5, 85632, Note_on_c, 3, 79, 0
5, 85632, Note_on_c, 3, 76, 120
5, 85728, Note_on_c, 3, 76, 0
5, 85728, Note_on_c, 3, 76, 120
5, 85824, Note_on_c, 3, 76, 0
5, 85824, Note_on_c, 3, 76, 120
5, 85920, Note_on_c, 3, 76, 0
5, 85920, Note_on_c, 3, 76, 120
5, 86016, Note_on_c, 3, 76, 0
5, 86016, Note_on_c, 3, 73, 120
5, 86112, Note_on_c, 3, 73, 0
5, 86112, Note_on_c, 3, 73, 120
5, 86208, Note_on_c, 3, 73, 0
5, 86208, Note_on_c, 3, 73, 120
5, 86304, Note_on_c, 3, 73, 0
5, 86304, Note_on_c, 3, 73, 120
5, 86400, Note_on_c, 3, 73, 0
5, 86400, Note_on_c, 3, 70, 120
5, 86496, Note_on_c, 3, 70, 0
5, 86496, Note_on_c, 3, 70, 120
5, 86592, Note_on_c, 3, 70, 0
5, 86592, Note_on_c, 3, 70, 120
5, 86688, Note_on_c, 3, 70, 0
5, 86688, Note_on_c, 3, 70, 120
5, 86784, Note_on_c, 3, 70, 0
5, 86784, Note_on_c, 3, 67, 120
5, 86880, Note_on_c, 3, 67, 0
5, 86880, Note_on_c, 3, 67, 120
5, 86976, Note_on_c, 3, 67, 0
5, 86976, Note_on_c, 3, 67, 120
5, 87072, Note_on_c, 3, 67, 0
5, 87072, Note_on_c, 3, 67, 120
5, 87168, Note_on_c, 3, 67, 0
5, 87168, Note_on_c, 3, 64, 120
5, 87264, Note_on_c, 3, 64, 0
5, 87264, Note_on_c, 3, 64, 120
5, 87360, Note_on_c, 3, 64, 0
5, 87360, Note_on_c, 3, 64, 120
5, 87456, Note_on_c, 3, 64, 0
5, 87456, Note_on_c, 3, 64, 120
5, 87552, Note_on_c, 3, 64, 0
5, 87552, Note_on_c, 3, 65, 120
5, 87648, Note_on_c, 3, 65, 0
5, 87648, Note_on_c, 3, 65, 122
5, 87744, Note_on_c, 3, 65, 0
5, 87744, Note_on_c, 3, 65, 124
5, 87840, Note_on_c, 3, 65, 0
5, 87840, Note_on_c, 3, 65, 127
5, 87936, Note_on_c, 3, 65, 0
5, 87936, Note_on_c, 3, 66, 127
5, 88032, Note_on_c, 3, 66, 0
5, 88032, Note_on_c, 3, 66, 126
5, 88128, Note_on_c, 3, 66, 0
5, 88128, Note_on_c, 3, 66, 125
5, 88224, Note_on_c, 3, 66, 0
5, 88224, Note_on_c, 3, 66, 124
5, 88320, Note_on_c, 3, 66, 0
5, 88320, Note_on_c, 3, 65, 123
5, 88416, Note_on_c, 3, 65, 0
5, 88416, Note_on_c, 3, 65, 122
5, 88512, Note_on_c, 3, 65, 0
5, 88512, Note_on_c, 3, 65, 121
5, 88608, Note_on_c, 3, 65, 0
5, 88608, Note_on_c, 3, 65, 120
5, 88704, Note_on_c, 3, 65, 0
5, 88704, Note_on_c, 3, 64, 119
5, 88800, Note_on_c, 3, 64, 0
5, 88800, Note_on_c, 3, 64, 118
5, 88896, Note_on_c, 3, 64, 0
5, 88896, Note_on_c, 3, 64, 117
5, 88992, Note_on_c, 3, 64, 0
5, 88992, Note_on_c, 3, 64, 116
5, 89088, Note_on_c, 3, 64, 0
5, 89088, Note_on_c, 3, 65, 115
5, 89316, Note_on_c, 3, 65, 0
5, 89472, Note_on_c, 3, 77, 92
5, 89664, Note_on_c, 3, 77, 0
5, 89856, Note_on_c, 3, 65, 92
5, 90104, Note_on_c, 3, 65, 0
5, 90624, Note_on_c, 3, 72, 100
5, 90816, Note_on_c, 3, 72, 0
5, 90816, Note_on_c, 3, 70, 100
5, 90968, Note_on_c, 3, 70, 0
5, 91008, Note_on_c, 3, 69, 100
5, 91160, Note_on_c, 3, 69, 0
5, 91200, Note_on_c, 3, 70, 100
5, 91352, Note_on_c, 3, 70, 0
5, 91392, Note_on_c, 3, 74, 100
5, 91584, Note_on_c, 3, 74, 0
5, 91584, Note_on_c, 3, 72, 100
5, 91736, Note_on_c, 3, 72, 0
5, 91776, Note_on_c, 3, 70, 100
5, 91928, Note_on_c, 3, 70, 0
5, 91968, Note_on_c, 3, 72, 100
5, 92120, Note_on_c, 3, 72, 0
5, 92160, Note_on_c, 3, 75, 100
5, 92352, Note_on_c, 3, 75, 0
5, 92352, Note_on_c, 3, 74, 100
5, 92504, Note_on_c, 3, 74, 0
5, 92544, Note_on_c, 3, 72, 100
5, 92696, Note_on_c, 3, 72, 0
5, 92736, Note_on_c, 3, 74, 100
5, 92888, Note_on_c, 3, 74, 0
5, 92928, Note_on_c, 3, 77, 100
5, 93120, Note_on_c, 3, 77, 0
5, 93120, Note_on_c, 3, 75, 100
5, 93272, Note_on_c, 3, 75, 0
5, 93312, Note_on_c, 3, 74, 100
5, 93464, Note_on_c, 3, 74, 0
5, 93504, Note_on_c, 3, 72, 100
5, 93656, Note_on_c, 3, 72, 0
5, 93696, Note_on_c, 3, 72, 100
5, 93888, Note_on_c, 3, 72, 0
5, 93888, Note_on_c, 3, 70, 100
5, 94040, Note_on_c, 3, 70, 0
5, 94080, Note_on_c, 3, 69, 100
5, 94232, Note_on_c, 3, 69, 0
5, 94272, Note_on_c, 3, 70, 100
5, 94424, Note_on_c, 3, 70, 0
5, 94464, Note_on_c, 3, 74, 100
5, 94656, Note_on_c, 3, 74, 0
5, 94656, Note_on_c, 3, 72, 100
5, 94808, Note_on_c, 3, 72, 0
5, 94848, Note_on_c, 3, 70, 100
5, 95000, Note_on_c, 3, 70, 0
5, 95040, Note_on_c, 3, 72, 100
5, 95192, Note_on_c, 3, 72, 0
5, 95232, Note_on_c, 3, 75, 100
5, 95424, Note_on_c, 3, 75, 0
5, 95424, Note_on_c, 3, 74, 100
5, 95576, Note_on_c, 3, 74, 0
5, 95616, Note_on_c, 3, 72, 100
5, 95768, Note_on_c, 3, 72, 0
5, 95808, Note_on_c, 3, 74, 100
5, 95960, Note_on_c, 3, 74, 0
5, 96000, Note_on_c, 3, 77, 100
5, 96192, Note_on_c, 3, 77, 0
5, 96192, Note_on_c, 3, 75, 100
5, 96344, Note_on_c, 3, 75, 0
5, 96384, Note_on_c, 3, 74, 100
5, 96536, Note_on_c, 3, 74, 0
5, 96576, Note_on_c, 3, 72, 100
5, 96728, Note_on_c, 3, 72, 0
5, 96768, Note_on_c, 3, 70, 100
5, 96960, Note_on_c, 3, 70, 0
5, 96960, Note_on_c, 3, 82, 100
5, 97112, Note_on_c, 3, 82, 0
5, 97152, Note_on_c, 3, 82, 100
5, 97304, Note_on_c, 3, 82, 0
5, 97344, Note_on_c, 3, 82, 100
5, 97496, Note_on_c, 3, 82, 0
5, 97536, Note_on_c, 3, 82, 100
5, 97728, Note_on_c, 3, 82, 0
5, 97728, Note_on_c, 3, 81, 100
5, 97880, Note_on_c, 3, 81, 0
5, 97920, Note_on_c, 3, 79, 100
5, 98072, Note_on_c, 3, 79, 0
5, 98112, Note_on_c, 3, 77, 100
5, 98264, Note_on_c, 3, 77, 0
5, 98304, Note_on_c, 3, 75, 100
5, 98496, Note_on_c, 3, 75, 0
5, 98496, Note_on_c, 3, 79, 100
5, 98648, Note_on_c, 3, 79, 0
5, 98688, Note_on_c, 3, 79, 100
5, 98840, Note_on_c, 3, 79, 0
5, 98880, Note_on_c, 3, 79, 100
5, 99032, Note_on_c, 3, 79, 0
5, 99072, Note_on_c, 3, 79, 100
5, 99264, Note_on_c, 3, 79, 0
5, 99264, Note_on_c, 3, 77, 100
5, 99416, Note_on_c, 3, 77, 0
5, 99456, Note_on_c, 3, 75, 100
5, 99608, Note_on_c, 3, 75, 0
5, 99648, Note_on_c, 3, 74, 100
5, 99800, Note_on_c, 3, 74, 0
5, 99840, Note_on_c, 3, 72, 100
5, 100032, Note_on_c, 3, 72, 0
5, 100032, Note_on_c, 3, 75, 100
5, 100184, Note_on_c, 3, 75, 0
5, 100224, Note_on_c, 3, 75, 100
5, 100376, Note_on_c, 3, 75, 0
5, 100416, Note_on_c, 3, 75, 100
5, 100568, Note_on_c, 3, 75, 0
5, 100608, Note_on_c, 3, 75, 100
5, 100800, Note_on_c, 3, 75, 0
5, 100800, Note_on_c, 3, 74, 100
5, 100952, Note_on_c, 3, 74, 0
5, 100992, Note_on_c, 3, 77, 100
5, 101144, Note_on_c, 3, 77, 0
5, 101184, Note_on_c, 3, 70, 100
5, 101336, Note_on_c, 3, 70, 0
5, 101376, Note_on_c, 3, 74, 100
5, 101568, Note_on_c, 3, 74, 0
5, 101568, Note_on_c, 3, 72, 100
5, 101720, Note_on_c, 3, 72, 0
5, 101760, Note_on_c, 3, 70, 100
5, 101912, Note_on_c, 3, 70, 0
5, 101952, Note_on_c, 3, 69, 100
5, 102104, Note_on_c, 3, 69, 0
5, 102144, Note_on_c, 3, 72, 120
5, 102336, Note_on_c, 3, 72, 0
5, 102336, Note_on_c, 3, 70, 120
5, 102488, Note_on_c, 3, 70, 0
5, 102528, Note_on_c, 3, 69, 120
5, 102680, Note_on_c, 3, 69, 0
5, 102720, Note_on_c, 3, 70, 120
5, 102872, Note_on_c, 3, 70, 0
5, 102912, Note_on_c, 3, 74, 120
5, 103104, Note_on_c, 3, 74, 0
5, 103104, Note_on_c, 3, 72, 120
5, 103256, Note_on_c, 3, 72, 0
5, 103296, Note_on_c, 3, 70, 120
5, 103448, Note_on_c, 3, 70, 0
5, 103488, Note_on_c, 3, 72, 120
5, 103640, Note_on_c, 3, 72, 0
5, 103680, Note_on_c, 3, 75, 120
5, 103872, Note_on_c, 3, 75, 0
5, 103872, Note_on_c, 3, 74, 120
5, 104024, Note_on_c, 3, 74, 0
5, 104064, Note_on_c, 3, 72, 120
5, 104216, Note_on_c, 3, 72, 0
5, 104256, Note_on_c, 3, 74, 120
5, 104408, Note_on_c, 3, 74, 0
5, 104448, Note_on_c, 3, 77, 120
5, 104640, Note_on_c, 3, 77, 0
5, 104640, Note_on_c, 3, 75, 120
5, 104792, Note_on_c, 3, 75, 0
5, 104832, Note_on_c, 3, 74, 120
5, 104984, Note_on_c, 3, 74, 0
5, 105024, Note_on_c, 3, 72, 120
5, 105176, Note_on_c, 3, 72, 0
5, 105216, Note_on_c, 3, 72, 120
5, 105408, Note_on_c, 3, 72, 0
5, 105408, Note_on_c, 3, 70, 120
5, 105560, Note_on_c, 3, 70, 0
5, 105600, Note_on_c, 3, 69, 120
5, 105752, Note_on_c, 3, 69, 0
5, 105792, Note_on_c, 3, 70, 120
5, 105944, Note_on_c, 3, 70, 0
5, 105984, Note_on_c, 3, 74, 120
5, 106176, Note_on_c, 3, 74, 0
5, 106176, Note_on_c, 3, 72, 120
5, 106328, Note_on_c, 3, 72, 0
5, 106368, Note_on_c, 3, 70, 120
5, 106520, Note_on_c, 3, 70, 0
5, 106560, Note_on_c, 3, 72, 120
5, 106712, Note_on_c, 3, 72, 0
5, 106752, Note_on_c, 3, 75, 120
5, 106944, Note_on_c, 3, 75, 0
5, 106944, Note_on_c, 3, 74, 120
5, 107096, Note_on_c, 3, 74, 0
5, 107136, Note_on_c, 3, 72, 120
5, 107288, Note_on_c, 3, 72, 0
5, 107328, Note_on_c, 3, 74, 120
5, 107480, Note_on_c, 3, 74, 0
5, 107520, Note_on_c, 3, 77, 120
5, 107712, Note_on_c, 3, 77, 0
5, 107712, Note_on_c, 3, 75, 120
5, 107864, Note_on_c, 3, 75, 0
5, 107904, Note_on_c, 3, 74, 120
5, 108056, Note_on_c, 3, 74, 0
5, 108096, Note_on_c, 3, 72, 120
5, 108248, Note_on_c, 3, 72, 0
5, 108288, Note_on_c, 3, 70, 120
5, 108480, Note_on_c, 3, 70, 0
5, 108480, Note_on_c, 3, 82, 120
5, 108632, Note_on_c, 3, 82, 0
5, 108672, Note_on_c, 3, 82, 120
5, 108824, Note_on_c, 3, 82, 0
5, 108864, Note_on_c, 3, 82, 120
5, 109016, Note_on_c, 3, 82, 0
5, 109056, Note_on_c, 3, 82, 120
5, 109248, Note_on_c, 3, 82, 0
5, 109248, Note_on_c, 3, 81, 120
5, 109400, Note_on_c, 3, 81, 0
5, 109440, Note_on_c, 3, 79, 120
5, 109592, Note_on_c, 3, 79, 0
5, 109632, Note_on_c, 3, 77, 120
5, 109784, Note_on_c, 3, 77, 0
5, 109824, Note_on_c, 3, 75, 120
5, 110016, Note_on_c, 3, 75, 0
5, 110016, Note_on_c, 3, 79, 120
5, 110168, Note_on_c, 3, 79, 0
5, 110208, Note_on_c, 3, 79, 120
5, 110360, Note_on_c, 3, 79, 0
5, 110400, Note_on_c, 3, 79, 120
5, 110552, Note_on_c, 3, 79, 0
5, 110592, Note_on_c, 3, 79, 120
5, 110784, Note_on_c, 3, 79, 0
5, 110784, Note_on_c, 3, 77, 120
5, 110936, Note_on_c, 3, 77, 0
5, 110976, Note_on_c, 3, 75, 120
5, 111128, Note_on_c, 3, 75, 0
5, 111168, Note_on_c, 3, 74, 120
5, 111320, Note_on_c, 3, 74, 0
5, 111360, Note_on_c, 3, 72, 120
5, 111552, Note_on_c, 3, 72, 0
5, 111552, Note_on_c, 3, 75, 120
5, 111704, Note_on_c, 3, 75, 0
5, 111744, Note_on_c, 3, 75, 120
5, 111896, Note_on_c, 3, 75, 0
5, 111936, Note_on_c, 3, 75, 120
5, 112088, Note_on_c, 3, 75, 0
5, 112128, Note_on_c, 3, 75, 120
5, 112320, Note_on_c, 3, 75, 0
5, 112320, Note_on_c, 3, 74, 120
5, 112472, Note_on_c, 3, 74, 0
5, 112512, Note_on_c, 3, 77, 120
5, 112664, Note_on_c, 3, 77, 0
5, 112704, Note_on_c, 3, 70, 120
5, 112856, Note_on_c, 3, 70, 0
5, 112896, Note_on_c, 3, 74, 120
5, 113088, Note_on_c, 3, 74, 0
5, 113088, Note_on_c, 3, 72, 120
5, 113240, Note_on_c, 3, 72, 0
5, 113280, Note_on_c, 3, 70, 120
5, 113432, Note_on_c, 3, 70, 0
5, 113472, Note_on_c, 3, 69, 120
5, 113624, Note_on_c, 3, 69, 0
5, 113664, Note_on_c, 3, 70, 120
5, 113856, Note_on_c, 3, 70, 0
5, 113856, Note_on_c, 3, 72, 120
5, 113952, Note_on_c, 3, 72, 0
5, 113952, Note_on_c, 3, 74, 120
5, 114048, Note_on_c, 3, 74, 0
5, 114048, Note_on_c, 3, 75, 120
5, 114144, Note_on_c, 3, 75, 0
5, 114144, Note_on_c, 3, 77, 120
5, 114240, Note_on_c, 3, 77, 0
5, 114240, Note_on_c, 3, 79, 120
5, 114336, Note_on_c, 3, 79, 0
5, 114336, Note_on_c, 3, 81, 120
5, 114432, Note_on_c, 3, 81, 0
5, 114432, Note_on_c, 3, 82, 120
5, 114736, Note_on_c, 3, 82, 0
5, 115200, Note_on_c, 3, 67, 120
5, 115392, Note_on_c, 3, 67, 0
5, 115392, Note_on_c, 3, 69, 120
5, 115488, Note_on_c, 3, 69, 0
5, 115488, Note_on_c, 3, 70, 120
5, 115584, Note_on_c, 3, 70, 0
5, 115584, Note_on_c, 3, 72, 120
5, 115680, Note_on_c, 3, 72, 0
5, 115680, Note_on_c, 3, 74, 120
5, 115776, Note_on_c, 3, 74, 0
5, 115776, Note_on_c, 3, 75, 120
5, 115872, Note_on_c, 3, 75, 0
5, 115872, Note_on_c, 3, 77, 120
5, 115968, Note_on_c, 3, 77, 0
5, 115968, Note_on_c, 3, 79, 120
5, 116272, Note_on_c, 3, 79, 0
5, 116736, Note_on_c, 3, 77, 120
5, 117004, Note_on_c, 3, 77, 0
5, 117120, Note_on_c, 3, 74, 120
5, 117120, Note_on_c, 3, 82, 120
5, 117388, Note_on_c, 3, 82, 0
5, 117388, Note_on_c, 3, 74, 0
5, 117504, Note_on_c, 3, 72, 120
5, 117772, Note_on_c, 3, 72, 0
5, 117888, Note_on_c, 3, 72, 120
5, 117888, Note_on_c, 3, 81, 120
5, 118156, Note_on_c, 3, 81, 0
5, 118156, Note_on_c, 3, 72, 0
5, 118272, Note_on_c, 3, 82, 127
5, 118368, Note_on_c, 3, 82, 0
5, 118368, Note_on_c, 3, 82, 127
5, 118464, Note_on_c, 3, 82, 0
5, 118464, Note_on_c, 3, 82, 127
5, 118560, Note_on_c, 3, 82, 0
5, 118560, Note_on_c, 3, 82, 127
5, 118656, Note_on_c, 3, 82, 0
5, 118656, Note_on_c, 3, 77, 127
5, 118752, Note_on_c, 3, 77, 0
5, 118752, Note_on_c, 3, 77, 127
5, 118848, Note_on_c, 3, 77, 0
5, 118848, Note_on_c, 3, 77, 127
5, 118944, Note_on_c, 3, 77, 0
5, 118944, Note_on_c, 3, 77, 127
5, 119040, Note_on_c, 3, 77, 0
5, 119040, Note_on_c, 3, 74, 127
5, 119136, Note_on_c, 3, 74, 0
5, 119136, Note_on_c, 3, 74, 127
5, 119232, Note_on_c, 3, 74, 0
5, 119232, Note_on_c, 3, 74, 127
5, 119328, Note_on_c, 3, 74, 0
5, 119328, Note_on_c, 3, 74, 127
5, 119424, Note_on_c, 3, 74, 0
5, 119424, Note_on_c, 3, 70, 127
5, 119520, Note_on_c, 3, 70, 0
5, 119520, Note_on_c, 3, 70, 127
5, 119616, Note_on_c, 3, 70, 0
5, 119616, Note_on_c, 3, 70, 127
5, 119712, Note_on_c, 3, 70, 0
5, 119712, Note_on_c, 3, 70, 127
5, 119808, Note_on_c, 3, 70, 0
5, 119808, Note_on_c, 3, 69, 127
5, 119904, Note_on_c, 3, 69, 0
5, 119904, Note_on_c, 3, 69, 127
5, 120000, Note_on_c, 3, 69, 0
5, 120000, Note_on_c, 3, 69, 127
5, 120096, Note_on_c, 3, 69, 0
5, 120096, Note_on_c, 3, 69, 127
5, 120192, Note_on_c, 3, 69, 0
5, 120192, Note_on_c, 3, 72, 127
5, 120288, Note_on_c, 3, 72, 0
5, 120288, Note_on_c, 3, 72, 127
5, 120384, Note_on_c, 3, 72, 0
5, 120384, Note_on_c, 3, 72, 127
5, 120480, Note_on_c, 3, 72, 0
5, 120480, Note_on_c, 3, 72, 127
5, 120576, Note_on_c, 3, 72, 0
5, 120576, Note_on_c, 3, 77, 127
5, 120672, Note_on_c, 3, 77, 0
5, 120672, Note_on_c, 3, 77, 127
5, 120768, Note_on_c, 3, 77, 0
5, 120768, Note_on_c, 3, 77, 127
5, 120864, Note_on_c, 3, 77, 0
5, 120864, Note_on_c, 3, 77, 127
5, 120960, Note_on_c, 3, 77, 0
5, 120960, Note_on_c, 3, 81, 127
5, 121056, Note_on_c, 3, 81, 0
5, 121056, Note_on_c, 3, 81, 127
5, 121152, Note_on_c, 3, 81, 0
5, 121152, Note_on_c, 3, 81, 127
5, 121248, Note_on_c, 3, 81, 0
5, 121248, Note_on_c, 3, 81, 127
5, 121344, Note_on_c, 3, 81, 0
5, 121344, Note_on_c, 3, 82, 127
5, 121440, Note_on_c, 3, 82, 0
5, 121440, Note_on_c, 3, 82, 127
5, 121536, Note_on_c, 3, 82, 0
5, 121536, Note_on_c, 3, 82, 127
5, 121632, Note_on_c, 3, 82, 0
5, 121632, Note_on_c, 3, 82, 127
5, 121728, Note_on_c, 3, 82, 0
5, 121728, Note_on_c, 3, 77, 127
5, 121824, Note_on_c, 3, 77, 0
5, 121824, Note_on_c, 3, 77, 127
5, 121920, Note_on_c, 3, 77, 0
5, 121920, Note_on_c, 3, 77, 127
5, 122016, Note_on_c, 3, 77, 0
5, 122016, Note_on_c, 3, 77, 127
5, 122112, Note_on_c, 3, 77, 0
5, 122112, Note_on_c, 3, 74, 127
5, 122208, Note_on_c, 3, 74, 0
5, 122208, Note_on_c, 3, 74, 127
5, 122304, Note_on_c, 3, 74, 0
5, 122304, Note_on_c, 3, 74, 127
5, 122400, Note_on_c, 3, 74, 0
5, 122400, Note_on_c, 3, 74, 127
5, 122496, Note_on_c, 3, 74, 0
5, 122496, Note_on_c, 3, 70, 127
5, 122592, Note_on_c, 3, 70, 0
5, 122592, Note_on_c, 3, 70, 127
5, 122688, Note_on_c, 3, 70, 0
5, 122688, Note_on_c, 3, 70, 127
5, 122784, Note_on_c, 3, 70, 0
5, 122784, Note_on_c, 3, 70, 127
5, 122880, Note_on_c, 3, 70, 0
5, 122880, Note_on_c, 3, 69, 127
5, 122976, Note_on_c, 3, 69, 0
5, 122976, Note_on_c, 3, 69, 127
5, 123072, Note_on_c, 3, 69, 0
5, 123072, Note_on_c, 3, 69, 127
5, 123168, Note_on_c, 3, 69, 0
5, 123168, Note_on_c, 3, 69, 127
5, 123264, Note_on_c, 3, 69, 0
5, 123264, Note_on_c, 3, 72, 127
5, 123360, Note_on_c, 3, 72, 0
5, 123360, Note_on_c, 3, 72, 127
5, 123456, Note_on_c, 3, 72, 0
5, 123456, Note_on_c, 3, 72, 127
5, 123552, Note_on_c, 3, 72, 0
5, 123552, Note_on_c, 3, 72, 127
5, 123648, Note_on_c, 3, 72, 0
5, 123648, Note_on_c, 3, 77, 127
5, 123744, Note_on_c, 3, 77, 0
5, 123744, Note_on_c, 3, 77, 127
5, 123840, Note_on_c, 3, 77, 0
5, 123840, Note_on_c, 3, 77, 127
5, 123936, Note_on_c, 3, 77, 0
5, 123936, Note_on_c, 3, 77, 127
5, 124032, Note_on_c, 3, 77, 0
5, 124032, Note_on_c, 3, 81, 127
5, 124128, Note_on_c, 3, 81, 0
5, 124128, Note_on_c, 3, 81, 127
5, 124224, Note_on_c, 3, 81, 0
5, 124224, Note_on_c, 3, 81, 127
5, 124320, Note_on_c, 3, 81, 0
5, 124320, Note_on_c, 3, 81, 127
5, 124416, Note_on_c, 3, 81, 0
5, 124416, Note_on_c, 3, 82, 127
5, 124512, Note_on_c, 3, 82, 0
5, 124512, Note_on_c, 3, 82, 127
5, 124608, Note_on_c, 3, 82, 0
5, 124608, Note_on_c, 3, 82, 127
5, 124704, Note_on_c, 3, 82, 0
5, 124704, Note_on_c, 3, 82, 127
5, 124800, Note_on_c, 3, 82, 0
5, 124800, Note_on_c, 3, 70, 127
5, 124896, Note_on_c, 3, 70, 0
5, 124896, Note_on_c, 3, 70, 127
5, 124992, Note_on_c, 3, 70, 0
5, 124992, Note_on_c, 3, 70, 127
5, 125088, Note_on_c, 3, 70, 0
5, 125088, Note_on_c, 3, 70, 127
5, 125184, Note_on_c, 3, 70, 0
5, 125184, Note_on_c, 3, 72, 127
5, 125280, Note_on_c, 3, 72, 0
5, 125280, Note_on_c, 3, 72, 127
5, 125376, Note_on_c, 3, 72, 0
5, 125376, Note_on_c, 3, 72, 127
5, 125472, Note_on_c, 3, 72, 0
5, 125472, Note_on_c, 3, 72, 127
5, 125568, Note_on_c, 3, 72, 0
5, 125568, Note_on_c, 3, 74, 127
5, 125664, Note_on_c, 3, 74, 0
5, 125664, Note_on_c, 3, 74, 127
5, 125760, Note_on_c, 3, 74, 0
5, 125760, Note_on_c, 3, 74, 127
5, 125856, Note_on_c, 3, 74, 0
5, 125856, Note_on_c, 3, 74, 127
5, 125952, Note_on_c, 3, 74, 0
5, 125952, Note_on_c, 3, 75, 127
5, 126048, Note_on_c, 3, 75, 0
5, 126048, Note_on_c, 3, 75, 127
5, 126144, Note_on_c, 3, 75, 0
5, 126144, Note_on_c, 3, 75, 126
5, 126240, Note_on_c, 3, 75, 0
5, 126240, Note_on_c, 3, 75, 126
5, 126336, Note_on_c, 3, 75, 0
5, 126336, Note_on_c, 3, 72, 125
5, 126432, Note_on_c, 3, 72, 0
5, 126432, Note_on_c, 3, 72, 125
5, 126528, Note_on_c, 3, 72, 0
5, 126528, Note_on_c, 3, 72, 124
5, 126624, Note_on_c, 3, 72, 0
5, 126624, Note_on_c, 3, 72, 124
5, 126720, Note_on_c, 3, 72, 0
5, 126720, Note_on_c, 3, 69, 123
5, 126816, Note_on_c, 3, 69, 0
5, 126816, Note_on_c, 3, 69, 123
5, 126912, Note_on_c, 3, 69, 0
5, 126912, Note_on_c, 3, 69, 123
5, 127008, Note_on_c, 3, 69, 0
5, 127008, Note_on_c, 3, 69, 122
5, 127104, Note_on_c, 3, 69, 0
5, 127104, Note_on_c, 3, 78, 122
5, 127200, Note_on_c, 3, 78, 0
5, 127200, Note_on_c, 3, 78, 121
5, 127296, Note_on_c, 3, 78, 0
5, 127296, Note_on_c, 3, 78, 121
5, 127392, Note_on_c, 3, 78, 0
5, 127392, Note_on_c, 3, 78, 120
5, 127488, Note_on_c, 3, 78, 0
5, 127488, Note_on_c, 3, 79, 120
5, 127640, Note_on_c, 3, 79, 0
5, 127680, Note_on_c, 3, 79, 120
5, 127984, Note_on_c, 3, 79, 0
5, 128064, Note_on_c, 3, 79, 120
5, 128368, Note_on_c, 3, 79, 0
5, 128448, Note_on_c, 3, 79, 120
5, 128752, Note_on_c, 3, 79, 0
5, 128832, Note_on_c, 3, 79, 120
5, 128984, Note_on_c, 3, 79, 0
5, 129024, Note_on_c, 3, 74, 120
5, 129176, Note_on_c, 3, 74, 0
5, 129216, Note_on_c, 3, 74, 120
5, 129520, Note_on_c, 3, 74, 0
5, 129600, Note_on_c, 3, 74, 120
5, 129904, Note_on_c, 3, 74, 0
5, 129984, Note_on_c, 3, 74, 120
5, 130288, Note_on_c, 3, 74, 0
5, 130368, Note_on_c, 3, 74, 120
5, 130520, Note_on_c, 3, 74, 0
5, 130560, Note_on_c, 3, 75, 120
5, 130712, Note_on_c, 3, 75, 0
5, 130752, Note_on_c, 3, 75, 120
5, 131056, Note_on_c, 3, 75, 0
5, 131136, Note_on_c, 3, 75, 120
5, 131440, Note_on_c, 3, 75, 0
5, 131520, Note_on_c, 3, 75, 120
5, 131824, Note_on_c, 3, 75, 0
5, 131904, Note_on_c, 3, 75, 120
5, 132056, Note_on_c, 3, 75, 0
5, 132096, Note_on_c, 3, 66, 120
5, 132248, Note_on_c, 3, 66, 0
5, 132288, Note_on_c, 3, 66, 120
5, 132592, Note_on_c, 3, 66, 0
5, 132672, Note_on_c, 3, 66, 120
5, 132976, Note_on_c, 3, 66, 0
5, 133056, Note_on_c, 3, 66, 120
5, 133360, Note_on_c, 3, 66, 0
5, 133440, Note_on_c, 3, 66, 120
5, 133592, Note_on_c, 3, 66, 0
5, 133632, Note_on_c, 3, 67, 120
5, 133784, Note_on_c, 3, 67, 0
5, 133824, Note_on_c, 3, 70, 120
5, 133976, Note_on_c, 3, 70, 0
5, 134016, Note_on_c, 3, 74, 120
5, 134168, Note_on_c, 3, 74, 0
5, 134208, Note_on_c, 3, 79, 120
5, 134360, Note_on_c, 3, 79, 0
5, 134400, Note_on_c, 3, 82, 120
5, 134496, Note_on_c, 3, 82, 0
5, 134496, Note_on_c, 3, 81, 120
5, 134592, Note_on_c, 3, 81, 0
5, 134592, Note_on_c, 3, 79, 120
5, 134688, Note_on_c, 3, 79, 0
5, 134688, Note_on_c, 3, 78, 120
5, 134784, Note_on_c, 3, 78, 0
5, 134784, Note_on_c, 3, 79, 120
5, 134976, Note_on_c, 3, 79, 0
5, 135168, Note_on_c, 3, 67, 120
5, 135320, Note_on_c, 3, 67, 0
5, 135360, Note_on_c, 3, 70, 120
5, 135512, Note_on_c, 3, 70, 0
5, 135552, Note_on_c, 3, 74, 120
5, 135704, Note_on_c, 3, 74, 0
5, 135744, Note_on_c, 3, 79, 120
5, 135896, Note_on_c, 3, 79, 0
5, 135936, Note_on_c, 3, 82, 120
5, 136032, Note_on_c, 3, 82, 0
5, 136032, Note_on_c, 3, 81, 120
5, 136128, Note_on_c, 3, 81, 0
5, 136128, Note_on_c, 3, 79, 120
5, 136224, Note_on_c, 3, 79, 0
5, 136224, Note_on_c, 3, 78, 120
5, 136320, Note_on_c, 3, 78, 0
5, 136320, Note_on_c, 3, 79, 120
5, 136512, Note_on_c, 3, 79, 0
5, 136704, Note_on_c, 3, 69, 120
5, 136856, Note_on_c, 3, 69, 0
5, 136896, Note_on_c, 3, 72, 120
5, 137048, Note_on_c, 3, 72, 0
5, 137088, Note_on_c, 3, 78, 120
5, 137240, Note_on_c, 3, 78, 0
5, 137280, Note_on_c, 3, 81, 120
5, 137432, Note_on_c, 3, 81, 0
5, 137472, Note_on_c, 3, 84, 120
5, 137568, Note_on_c, 3, 84, 0
5, 137568, Note_on_c, 3, 82, 120
5, 137664, Note_on_c, 3, 82, 0
5, 137664, Note_on_c, 3, 81, 120
5, 137760, Note_on_c, 3, 81, 0
5, 137760, Note_on_c, 3, 79, 120
5, 137856, Note_on_c, 3, 79, 0
5, 137856, Note_on_c, 3, 81, 120
5, 138048, Note_on_c, 3, 81, 0
5, 138240, Note_on_c, 3, 69, 120
5, 138392, Note_on_c, 3, 69, 0
5, 138432, Note_on_c, 3, 72, 120
5, 138584, Note_on_c, 3, 72, 0
5, 138624, Note_on_c, 3, 78, 120
5, 138776, Note_on_c, 3, 78, 0
5, 138816, Note_on_c, 3, 81, 120
5, 138968, Note_on_c, 3, 81, 0
5, 139008, Note_on_c, 3, 84, 120
5, 139104, Note_on_c, 3, 84, 0
5, 139104, Note_on_c, 3, 82, 120
5, 139200, Note_on_c, 3, 82, 0
5, 139200, Note_on_c, 3, 81, 120
5, 139296, Note_on_c, 3, 81, 0
5, 139296, Note_on_c, 3, 79, 120
5, 139392, Note_on_c, 3, 79, 0
5, 139392, Note_on_c, 3, 81, 120
5, 139584, Note_on_c, 3, 81, 0
5, 139776, Note_on_c, 3, 70, 120
5, 139928, Note_on_c, 3, 70, 0
5, 139968, Note_on_c, 3, 74, 120
5, 140120, Note_on_c, 3, 74, 0
5, 140160, Note_on_c, 3, 79, 120
5, 140312, Note_on_c, 3, 79, 0
5, 140352, Note_on_c, 3, 82, 120
5, 140504, Note_on_c, 3, 82, 0
5, 140544, Note_on_c, 3, 86, 120
5, 140640, Note_on_c, 3, 86, 0
5, 140640, Note_on_c, 3, 84, 120
5, 140736, Note_on_c, 3, 84, 0
5, 140736, Note_on_c, 3, 82, 120
5, 140832, Note_on_c, 3, 82, 0
5, 140832, Note_on_c, 3, 81, 120
5, 140928, Note_on_c, 3, 81, 0
5, 140928, Note_on_c, 3, 82, 120
5, 141120, Note_on_c, 3, 82, 0
5, 141312, Note_on_c, 3, 82, 120
5, 141408, Note_on_c, 3, 82, 0
5, 141408, Note_on_c, 3, 81, 120
5, 141504, Note_on_c, 3, 81, 0
5, 141504, Note_on_c, 3, 79, 120
5, 141600, Note_on_c, 3, 79, 0
5, 141600, Note_on_c, 3, 78, 120
5, 141696, Note_on_c, 3, 78, 0
5, 141696, Note_on_c, 3, 79, 120
5, 141888, Note_on_c, 3, 79, 0
5, 142080, Note_on_c, 3, 79, 120
5, 142176, Note_on_c, 3, 79, 0
5, 142176, Note_on_c, 3, 77, 120
5, 142272, Note_on_c, 3, 77, 0
5, 142272, Note_on_c, 3, 75, 120
5, 142368, Note_on_c, 3, 75, 0
5, 142368, Note_on_c, 3, 74, 120
5, 142464, Note_on_c, 3, 74, 0
5, 142464, Note_on_c, 3, 75, 120
5, 142560, Note_on_c, 3, 75, 0
5, 142560, Note_on_c, 3, 74, 120
5, 142656, Note_on_c, 3, 74, 0
5, 142656, Note_on_c, 3, 72, 120
5, 142752, Note_on_c, 3, 72, 0
5, 142752, Note_on_c, 3, 70, 120
5, 142848, Note_on_c, 3, 70, 0
5, 142848, Note_on_c, 3, 72, 120
5, 143048, Note_on_c, 3, 72, 0
5, 143136, Note_on_c, 3, 72, 120
5, 143212, Note_on_c, 3, 72, 0
5, 143232, Note_on_c, 3, 70, 120
5, 143432, Note_on_c, 3, 70, 0
5, 143520, Note_on_c, 3, 70, 120
5, 143596, Note_on_c, 3, 70, 0
5, 143616, Note_on_c, 3, 69, 120
5, 143816, Note_on_c, 3, 69, 0
5, 143904, Note_on_c, 3, 69, 120
5, 143980, Note_on_c, 3, 69, 0
5, 144000, Note_on_c, 3, 67, 120
5, 144200, Note_on_c, 3, 67, 0
5, 144288, Note_on_c, 3, 67, 120
5, 144364, Note_on_c, 3, 67, 0
5, 144384, Note_on_c, 3, 66, 120
5, 144576, Note_on_c, 3, 66, 0
5, 144768, Note_on_c, 3, 74, 96
5, 144960, Note_on_c, 3, 74, 0
5, 145920, Note_on_c, 3, 79, 120
5, 146072, Note_on_c, 3, 79, 0
5, 146112, Note_on_c, 3, 79, 120
5, 146416, Note_on_c, 3, 79, 0
5, 146496, Note_on_c, 3, 79, 120
5, 146800, Note_on_c, 3, 79, 0
5, 146880, Note_on_c, 3, 79, 120
5, 147184, Note_on_c, 3, 79, 0
5, 147264, Note_on_c, 3, 79, 120
5, 147416, Note_on_c, 3, 79, 0
5, 147456, Note_on_c, 3, 74, 120
5, 147608, Note_on_c, 3, 74, 0
5, 147648, Note_on_c, 3, 74, 120
5, 147952, Note_on_c, 3, 74, 0
5, 148032, Note_on_c, 3, 74, 120
5, 148336, Note_on_c, 3, 74, 0
5, 148416, Note_on_c, 3, 74, 120
5, 148720, Note_on_c, 3, 74, 0
5, 148800, Note_on_c, 3, 74, 120
5, 148952, Note_on_c, 3, 74, 0
5, 148992, Note_on_c, 3, 75, 120
5, 149144, Note_on_c, 3, 75, 0
5, 149184, Note_on_c, 3, 75, 120
5, 149488, Note_on_c, 3, 75, 0
5, 149568, Note_on_c, 3, 75, 120
5, 149872, Note_on_c, 3, 75, 0
5, 149952, Note_on_c, 3, 75, 120
5, 150256, Note_on_c, 3, 75, 0
5, 150336, Note_on_c, 3, 75, 120
5, 150488, Note_on_c, 3, 75, 0
5, 150528, Note_on_c, 3, 66, 120
5, 150680, Note_on_c, 3, 66, 0
5, 150720, Note_on_c, 3, 66, 120
5, 151024, Note_on_c, 3, 66, 0
5, 151104, Note_on_c, 3, 66, 120
5, 151408, Note_on_c, 3, 66, 0
5, 151488, Note_on_c, 3, 66, 120
5, 151792, Note_on_c, 3, 66, 0
5, 151872, Note_on_c, 3, 66, 120
5, 152024, Note_on_c, 3, 66, 0
5, 152064, Note_on_c, 3, 67, 120
5, 152332, Note_on_c, 3, 67, 0
5, 152448, Note_on_c, 3, 62, 64
5, 152752, Note_on_c, 3, 62, 0
5, 152832, Note_on_c, 3, 62, 64
5, 153136, Note_on_c, 3, 62, 0
5, 153216, Note_on_c, 3, 62, 64
5, 153520, Note_on_c, 3, 62, 0
5, 153984, Note_on_c, 3, 62, 64
5, 154288, Note_on_c, 3, 62, 0
5, 154368, Note_on_c, 3, 62, 64
5, 154672, Note_on_c, 3, 62, 0
5, 154752, Note_on_c, 3, 62, 64
5, 155056, Note_on_c, 3, 62, 0
5, 155520, Note_on_c, 3, 63, 64
5, 155824, Note_on_c, 3, 63, 0
5, 155904, Note_on_c, 3, 63, 64
5, 156208, Note_on_c, 3, 63, 0
5, 156288, Note_on_c, 3, 63, 64
5, 156592, Note_on_c, 3, 63, 0
5, 157056, Note_on_c, 3, 60, 64
5, 157360, Note_on_c, 3, 60, 0
5, 157440, Note_on_c, 3, 60, 64
5, 157744, Note_on_c, 3, 60, 0
5, 157824, Note_on_c, 3, 60, 64
5, 158128, Note_on_c, 3, 60, 0
5, 158592, Note_on_c, 3, 58, 64
5, 158896, Note_on_c, 3, 58, 0
5, 158976, Note_on_c, 3, 58, 64
5, 159280, Note_on_c, 3, 58, 0
5, 159360, Note_on_c, 3, 58, 64
5, 159664, Note_on_c, 3, 58, 0
5, 160128, Note_on_c, 3, 62, 64
5, 160432, Note_on_c, 3, 62, 0
5, 160512, Note_on_c, 3, 62, 64
5, 160816, Note_on_c, 3, 62, 0
5, 160896, Note_on_c, 3, 62, 64
5, 161200, Note_on_c, 3, 62, 0
5, 161664, Note_on_c, 3, 67, 64
5, 161968, Note_on_c, 3, 67, 0
5, 162048, Note_on_c, 3, 67, 64
5, 162352, Note_on_c, 3, 67, 0
5, 162432, Note_on_c, 3, 67, 64
5, 162736, Note_on_c, 3, 67, 0
5, 163200, Note_on_c, 3, 70, 64
5, 163504, Note_on_c, 3, 70, 0
5, 163584, Note_on_c, 3, 70, 64
5, 163888, Note_on_c, 3, 70, 0
5, 163968, Note_on_c, 3, 67, 64
5, 164272, Note_on_c, 3, 67, 0
5, 164352, Note_on_c, 3, 66, 80
5, 164928, Note_on_c, 3, 66, 0
5, 164928, Note_on_c, 3, 67, 76
5, 165120, Note_on_c, 3, 67, 0
5, 165120, Note_on_c, 3, 66, 75
5, 165312, Note_on_c, 3, 66, 0
5, 165312, Note_on_c, 3, 67, 74
5, 165504, Note_on_c, 3, 67, 0
5, 165504, Note_on_c, 3, 66, 72
5, 165696, Note_on_c, 3, 66, 0
5, 165696, Note_on_c, 3, 67, 71
5, 165888, Note_on_c, 3, 67, 0
5, 165888, Note_on_c, 3, 66, 70
5, 166464, Note_on_c, 3, 66, 0
5, 166464, Note_on_c, 3, 67, 66
5, 166656, Note_on_c, 3, 67, 0
5, 166656, Note_on_c, 3, 66, 65
5, 166848, Note_on_c, 3, 66, 0
5, 166848, Note_on_c, 3, 67, 64
5, 167040, Note_on_c, 3, 67, 0
5, 167040, Note_on_c, 3, 66, 62
5, 167232, Note_on_c, 3, 66, 0
5, 167232, Note_on_c, 3, 67, 61
5, 167424, Note_on_c, 3, 67, 0
5, 167424, Note_on_c, 3, 66, 60
5, 167728, Note_on_c, 3, 66, 0
5, 168192, Note_on_c, 3, 66, 52
5, 168496, Note_on_c, 3, 66, 0
5, 168960, Note_on_c, 3, 66, 40
5, 169264, Note_on_c, 3, 66, 0
5, 170496, Note_on_c, 3, 70, 120
5, 171876, Note_on_c, 3, 70, 0
5, 172032, Note_on_c, 3, 82, 120
5, 173412, Note_on_c, 3, 82, 0
5, 173568, Note_on_c, 3, 81, 127
5, 173632, Note_on_c, 3, 81, 0
5, 173632, Note_on_c, 3, 79, 127
5, 173696, Note_on_c, 3, 79, 0
5, 173696, Note_on_c, 3, 77, 127
5, 173892, Note_on_c, 3, 77, 0
5, 173952, Note_on_c, 3, 77, 120
5, 174084, Note_on_c, 3, 77, 0
5, 174144, Note_on_c, 3, 77, 120
5, 174276, Note_on_c, 3, 77, 0
5, 174336, Note_on_c, 3, 77, 120
5, 174604, Note_on_c, 3, 77, 0
5, 175104, Note_on_c, 3, 81, 120
5, 175168, Note_on_c, 3, 81, 0
5, 175168, Note_on_c, 3, 79, 120
5, 175232, Note_on_c, 3, 79, 0
5, 175232, Note_on_c, 3, 77, 120
5, 175428, Note_on_c, 3, 77, 0
5, 175488, Note_on_c, 3, 77, 120
5, 175620, Note_on_c, 3, 77, 0
5, 175680, Note_on_c, 3, 77, 120
5, 175812, Note_on_c, 3, 77, 0
5, 175872, Note_on_c, 3, 77, 120
5, 176140, Note_on_c, 3, 77, 0
5, 176640, Note_on_c, 3, 70, 120
5, 178020, Note_on_c, 3, 70, 0
5, 178176, Note_on_c, 3, 82, 120
5, 179556, Note_on_c, 3, 82, 0
5, 179712, Note_on_c, 3, 81, 127
5, 179776, Note_on_c, 3, 81, 0
5, 179776, Note_on_c, 3, 79, 127
5, 179840, Note_on_c, 3, 79, 0
5, 179840, Note_on_c, 3, 77, 127
5, 180036, Note_on_c, 3, 77, 0
5, 180096, Note_on_c, 3, 77, 120
5, 180228, Note_on_c, 3, 77, 0
5, 180288, Note_on_c, 3, 77, 120
5, 180420, Note_on_c, 3, 77, 0
5, 180480, Note_on_c, 3, 77, 120
5, 180748, Note_on_c, 3, 77, 0
5, 181248, Note_on_c, 3, 81, 127
5, 181312, Note_on_c, 3, 81, 0
5, 181312, Note_on_c, 3, 79, 127
5, 181376, Note_on_c, 3, 79, 0
5, 181376, Note_on_c, 3, 77, 127
5, 181572, Note_on_c, 3, 77, 0
5, 181632, Note_on_c, 3, 77, 120
5, 181764, Note_on_c, 3, 77, 0
5, 181824, Note_on_c, 3, 77, 120
5, 181956, Note_on_c, 3, 77, 0
5, 182016, Note_on_c, 3, 77, 120
5, 182284, Note_on_c, 3, 77, 0
5, 182784, Note_on_c, 3, 70, 120
5, 182880, Note_on_c, 3, 70, 0
5, 182880, Note_on_c, 3, 70, 120
5, 182976, Note_on_c, 3, 70, 0
5, 182976, Note_on_c, 3, 70, 120
5, 183072, Note_on_c, 3, 70, 0
5, 183072, Note_on_c, 3, 70, 120
5, 183168, Note_on_c, 3, 70, 0
5, 183168, Note_on_c, 3, 74, 120
5, 183264, Note_on_c, 3, 74, 0
5, 183264, Note_on_c, 3, 74, 120
5, 183360, Note_on_c, 3, 74, 0
5, 183360, Note_on_c, 3, 74, 120
5, 183456, Note_on_c, 3, 74, 0
5, 183456, Note_on_c, 3, 74, 120
5, 183552, Note_on_c, 3, 74, 0
5, 183552, Note_on_c, 3, 77, 120
5, 183648, Note_on_c, 3, 77, 0
5, 183648, Note_on_c, 3, 77, 120
5, 183744, Note_on_c, 3, 77, 0
5, 183744, Note_on_c, 3, 77, 120
5, 183840, Note_on_c, 3, 77, 0
5, 183840, Note_on_c, 3, 77, 120
5, 183936, Note_on_c, 3, 77, 0
5, 183936, Note_on_c, 3, 82, 120
5, 184032, Note_on_c, 3, 82, 0
5, 184032, Note_on_c, 3, 82, 120
5, 184128, Note_on_c, 3, 82, 0
5, 184128, Note_on_c, 3, 82, 120
5, 184224, Note_on_c, 3, 82, 0
5, 184224, Note_on_c, 3, 82, 120
5, 184320, Note_on_c, 3, 82, 0
5, 184320, Note_on_c, 3, 86, 120
5, 184416, Note_on_c, 3, 86, 0
5, 184416, Note_on_c, 3, 86, 120
5, 184512, Note_on_c, 3, 86, 0
5, 184512, Note_on_c, 3, 86, 120
5, 184608, Note_on_c, 3, 86, 0
5, 184608, Note_on_c, 3, 86, 120
5, 184704, Note_on_c, 3, 86, 0
5, 184704, Note_on_c, 3, 82, 120
5, 184800, Note_on_c, 3, 82, 0
5, 184800, Note_on_c, 3, 82, 120
5, 184896, Note_on_c, 3, 82, 0
5, 184896, Note_on_c, 3, 82, 120
5, 184992, Note_on_c, 3, 82, 0
5, 184992, Note_on_c, 3, 82, 120
5, 185088, Note_on_c, 3, 82, 0
5, 185088, Note_on_c, 3, 77, 120
5, 185184, Note_on_c, 3, 77, 0
5, 185184, Note_on_c, 3, 77, 120
5, 185280, Note_on_c, 3, 77, 0
5, 185280, Note_on_c, 3, 77, 120
5, 185376, Note_on_c, 3, 77, 0
5, 185376, Note_on_c, 3, 77, 120
5, 185472, Note_on_c, 3, 77, 0
5, 185472, Note_on_c, 3, 74, 120
5, 185568, Note_on_c, 3, 74, 0
5, 185568, Note_on_c, 3, 74, 120
5, 185664, Note_on_c, 3, 74, 0
5, 185664, Note_on_c, 3, 74, 120
5, 185760, Note_on_c, 3, 74, 0
5, 185760, Note_on_c, 3, 74, 120
5, 185856, Note_on_c, 3, 74, 0
5, 185856, Note_on_c, 3, 79, 120
5, 186008, Note_on_c, 3, 79, 0
5, 186048, Note_on_c, 3, 79, 120
5, 186352, Note_on_c, 3, 79, 0
5, 186432, Note_on_c, 3, 79, 120
5, 186736, Note_on_c, 3, 79, 0
5, 186816, Note_on_c, 3, 79, 120
5, 187120, Note_on_c, 3, 79, 0
5, 187200, Note_on_c, 3, 79, 120
5, 187544, Note_on_c, 3, 79, 0
5, 187584, Note_on_c, 3, 79, 120
5, 187888, Note_on_c, 3, 79, 0
5, 187968, Note_on_c, 3, 79, 120
5, 188272, Note_on_c, 3, 79, 0
5, 188352, Note_on_c, 3, 79, 120
5, 188656, Note_on_c, 3, 79, 0
5, 188736, Note_on_c, 3, 79, 120
5, 188888, Note_on_c, 3, 79, 0
5, 188928, Note_on_c, 3, 69, 120
5, 189024, Note_on_c, 3, 69, 0
5, 189024, Note_on_c, 3, 69, 120
5, 189120, Note_on_c, 3, 69, 0
5, 189120, Note_on_c, 3, 69, 120
5, 189216, Note_on_c, 3, 69, 0
5, 189216, Note_on_c, 3, 69, 120
5, 189312, Note_on_c, 3, 69, 0
5, 189312, Note_on_c, 3, 72, 120
5, 189408, Note_on_c, 3, 72, 0
5, 189408, Note_on_c, 3, 72, 120
5, 189504, Note_on_c, 3, 72, 0
5, 189504, Note_on_c, 3, 72, 120
5, 189600, Note_on_c, 3, 72, 0
5, 189600, Note_on_c, 3, 72, 120
5, 189696, Note_on_c, 3, 72, 0
5, 189696, Note_on_c, 3, 75, 120
5, 189792, Note_on_c, 3, 75, 0
5, 189792, Note_on_c, 3, 75, 120
5, 189888, Note_on_c, 3, 75, 0
5, 189888, Note_on_c, 3, 75, 120
5, 189984, Note_on_c, 3, 75, 0
5, 189984, Note_on_c, 3, 75, 120
5, 190080, Note_on_c, 3, 75, 0
5, 190080, Note_on_c, 3, 81, 120
5, 190176, Note_on_c, 3, 81, 0
5, 190176, Note_on_c, 3, 81, 120
5, 190272, Note_on_c, 3, 81, 0
5, 190272, Note_on_c, 3, 81, 120
5, 190368, Note_on_c, 3, 81, 0
5, 190368, Note_on_c, 3, 81, 120
5, 190464, Note_on_c, 3, 81, 0
5, 190464, Note_on_c, 3, 84, 120
5, 190464, Note_on_c, 3, 84, 120
5, 190560, Note_on_c, 3, 84, 0
5, 190560, Note_on_c, 3, 84, 0
5, 190560, Note_on_c, 3, 84, 120
5, 190656, Note_on_c, 3, 84, 0
5, 190656, Note_on_c, 3, 84, 120
5, 190752, Note_on_c, 3, 84, 0
5, 190752, Note_on_c, 3, 84, 120
5, 190848, Note_on_c, 3, 84, 0
5, 190848, Note_on_c, 3, 81, 120
5, 190944, Note_on_c, 3, 81, 0
5, 190944, Note_on_c, 3, 81, 120
5, 191040, Note_on_c, 3, 81, 0
5, 191040, Note_on_c, 3, 81, 120
5, 191136, Note_on_c, 3, 81, 0
5, 191136, Note_on_c, 3, 81, 120
5, 191232, Note_on_c, 3, 81, 0
5, 191232, Note_on_c, 3, 75, 120
5, 191328, Note_on_c, 3, 75, 0
5, 191328, Note_on_c, 3, 75, 120
5, 191424, Note_on_c, 3, 75, 0
5, 191424, Note_on_c, 3, 75, 120
5, 191520, Note_on_c, 3, 75, 0
5, 191520, Note_on_c, 3, 75, 120
5, 191616, Note_on_c, 3, 75, 0
5, 191616, Note_on_c, 3, 72, 120
5, 191712, Note_on_c, 3, 72, 0
5, 191712, Note_on_c, 3, 72, 120
5, 191808, Note_on_c, 3, 72, 0
5, 191808, Note_on_c, 3, 72, 120
5, 191904, Note_on_c, 3, 72, 0
5, 191904, Note_on_c, 3, 72, 120
5, 192000, Note_on_c, 3, 72, 0
5, 192000, Note_on_c, 3, 77, 120
5, 192152, Note_on_c, 3, 77, 0
5, 192192, Note_on_c, 3, 77, 120
5, 192496, Note_on_c, 3, 77, 0
5, 192576, Note_on_c, 3, 77, 120
5, 192880, Note_on_c, 3, 77, 0
5, 192960, Note_on_c, 3, 77, 120
5, 193264, Note_on_c, 3, 77, 0
5, 193344, Note_on_c, 3, 77, 120
5, 193688, Note_on_c, 3, 77, 0
5, 193728, Note_on_c, 3, 77, 120
5, 194032, Note_on_c, 3, 77, 0
5, 194112, Note_on_c, 3, 77, 120
5, 194416, Note_on_c, 3, 77, 0
5, 194496, Note_on_c, 3, 77, 120
5, 194800, Note_on_c, 3, 77, 0
5, 194880, Note_on_c, 3, 77, 120
5, 195032, Note_on_c, 3, 77, 0
5, 195072, Note_on_c, 3, 67, 120
5, 195168, Note_on_c, 3, 67, 0
5, 195168, Note_on_c, 3, 67, 120
5, 195264, Note_on_c, 3, 67, 0
5, 195264, Note_on_c, 3, 67, 120
5, 195360, Note_on_c, 3, 67, 0
5, 195360, Note_on_c, 3, 67, 120
5, 195456, Note_on_c, 3, 67, 0
5, 195456, Note_on_c, 3, 70, 120
5, 195552, Note_on_c, 3, 70, 0
5, 195552, Note_on_c, 3, 70, 120
5, 195648, Note_on_c, 3, 70, 0
5, 195648, Note_on_c, 3, 70, 120
5, 195744, Note_on_c, 3, 70, 0
5, 195744, Note_on_c, 3, 70, 120
5, 195840, Note_on_c, 3, 70, 0
5, 195840, Note_on_c, 3, 74, 120
5, 195936, Note_on_c, 3, 74, 0
5, 195936, Note_on_c, 3, 74, 120
5, 196032, Note_on_c, 3, 74, 0
5, 196032, Note_on_c, 3, 74, 120
5, 196128, Note_on_c, 3, 74, 0
5, 196128, Note_on_c, 3, 74, 120
5, 196224, Note_on_c, 3, 74, 0
5, 196224, Note_on_c, 3, 79, 120
5, 196320, Note_on_c, 3, 79, 0
5, 196320, Note_on_c, 3, 79, 120
5, 196416, Note_on_c, 3, 79, 0
5, 196416, Note_on_c, 3, 79, 120
5, 196512, Note_on_c, 3, 79, 0
5, 196512, Note_on_c, 3, 79, 120
5, 196608, Note_on_c, 3, 79, 0
5, 196608, Note_on_c, 3, 82, 120
5, 196704, Note_on_c, 3, 82, 0
5, 196704, Note_on_c, 3, 82, 120
5, 196800, Note_on_c, 3, 82, 0
5, 196800, Note_on_c, 3, 82, 120
5, 196896, Note_on_c, 3, 82, 0
5, 196896, Note_on_c, 3, 82, 120
5, 196992, Note_on_c, 3, 82, 0
5, 196992, Note_on_c, 3, 79, 120
5, 197088, Note_on_c, 3, 79, 0
5, 197088, Note_on_c, 3, 79, 120
5, 197184, Note_on_c, 3, 79, 0
5, 197184, Note_on_c, 3, 79, 120
5, 197280, Note_on_c, 3, 79, 0
5, 197280, Note_on_c, 3, 79, 120
5, 197376, Note_on_c, 3, 79, 0
5, 197376, Note_on_c, 3, 74, 120
5, 197472, Note_on_c, 3, 74, 0
5, 197472, Note_on_c, 3, 74, 120
5, 197568, Note_on_c, 3, 74, 0
5, 197568, Note_on_c, 3, 74, 120
5, 197664, Note_on_c, 3, 74, 0
5, 197664, Note_on_c, 3, 74, 120
5, 197760, Note_on_c, 3, 74, 0
5, 197760, Note_on_c, 3, 70, 120
5, 197856, Note_on_c, 3, 70, 0
5, 197856, Note_on_c, 3, 70, 120
5, 197952, Note_on_c, 3, 70, 0
5, 197952, Note_on_c, 3, 70, 120
5, 198048, Note_on_c, 3, 70, 0
5, 198048, Note_on_c, 3, 70, 120
5, 198144, Note_on_c, 3, 70, 0
5, 198144, Note_on_c, 3, 75, 120
5, 198296, Note_on_c, 3, 75, 0
5, 198336, Note_on_c, 3, 75, 120
5, 198640, Note_on_c, 3, 75, 0
5, 198720, Note_on_c, 3, 75, 120
5, 199024, Note_on_c, 3, 75, 0
5, 199104, Note_on_c, 3, 75, 120
5, 199408, Note_on_c, 3, 75, 0
5, 199488, Note_on_c, 3, 75, 120
5, 199832, Note_on_c, 3, 75, 0
5, 199872, Note_on_c, 3, 75, 120
5, 200176, Note_on_c, 3, 75, 0
5, 200256, Note_on_c, 3, 75, 120
5, 200560, Note_on_c, 3, 75, 0
5, 200640, Note_on_c, 3, 75, 120
5, 200944, Note_on_c, 3, 75, 0
5, 201024, Note_on_c, 3, 75, 120
5, 201176, Note_on_c, 3, 75, 0
5, 201216, Note_on_c, 3, 87, 120
5, 201312, Note_on_c, 3, 87, 0
5, 201312, Note_on_c, 3, 87, 120
5, 201408, Note_on_c, 3, 87, 0
5, 201408, Note_on_c, 3, 87, 120
5, 201504, Note_on_c, 3, 87, 0
5, 201504, Note_on_c, 3, 87, 120
5, 201600, Note_on_c, 3, 87, 0
5, 201600, Note_on_c, 3, 84, 120
5, 201696, Note_on_c, 3, 84, 0
5, 201696, Note_on_c, 3, 84, 120
5, 201792, Note_on_c, 3, 84, 0
5, 201792, Note_on_c, 3, 84, 120
5, 201888, Note_on_c, 3, 84, 0
5, 201888, Note_on_c, 3, 84, 120
5, 201984, Note_on_c, 3, 84, 0
5, 201984, Note_on_c, 3, 81, 120
5, 202080, Note_on_c, 3, 81, 0
5, 202080, Note_on_c, 3, 81, 120
5, 202176, Note_on_c, 3, 81, 0
5, 202176, Note_on_c, 3, 81, 120
5, 202272, Note_on_c, 3, 81, 0
5, 202272, Note_on_c, 3, 81, 120
5, 202368, Note_on_c, 3, 81, 0
5, 202368, Note_on_c, 3, 77, 120
5, 202464, Note_on_c, 3, 77, 0
5, 202464, Note_on_c, 3, 77, 120
5, 202560, Note_on_c, 3, 77, 0
5, 202560, Note_on_c, 3, 77, 120
5, 202656, Note_on_c, 3, 77, 0
5, 202656, Note_on_c, 3, 77, 120
5, 202752, Note_on_c, 3, 77, 0
5, 202752, Note_on_c, 3, 75, 120
5, 202752, Note_on_c, 3, 75, 120
5, 202848, Note_on_c, 3, 75, 0
5, 202848, Note_on_c, 3, 75, 0
5, 202848, Note_on_c, 3, 75, 120
5, 202944, Note_on_c, 3, 75, 0
5, 202944, Note_on_c, 3, 75, 120
5, 203040, Note_on_c, 3, 75, 0
5, 203040, Note_on_c, 3, 75, 120
5, 203136, Note_on_c, 3, 75, 0
5, 203136, Note_on_c, 3, 72, 120
5, 203232, Note_on_c, 3, 72, 0
5, 203232, Note_on_c, 3, 72, 120
5, 203328, Note_on_c, 3, 72, 0
5, 203328, Note_on_c, 3, 72, 120
5, 203424, Note_on_c, 3, 72, 0
5, 203424, Note_on_c, 3, 72, 120
5, 203520, Note_on_c, 3, 72, 0
5, 203520, Note_on_c, 3, 69, 120
5, 203616, Note_on_c, 3, 69, 0
5, 203616, Note_on_c, 3, 69, 120
5, 203712, Note_on_c, 3, 69, 0
5, 203712, Note_on_c, 3, 69, 120
5, 203808, Note_on_c, 3, 69, 0
5, 203808, Note_on_c, 3, 69, 120
5, 203904, Note_on_c, 3, 69, 0
5, 203904, Note_on_c, 3, 65, 120
5, 204000, Note_on_c, 3, 65, 0
5, 204000, Note_on_c, 3, 65, 120
5, 204096, Note_on_c, 3, 65, 0
5, 204096, Note_on_c, 3, 65, 120
5, 204192, Note_on_c, 3, 65, 0
5, 204192, Note_on_c, 3, 65, 120
5, 204288, Note_on_c, 3, 65, 0
5, 204288, Note_on_c, 3, 86, 120
5, 204384, Note_on_c, 3, 86, 0
5, 204384, Note_on_c, 3, 86, 120
5, 204480, Note_on_c, 3, 86, 0
5, 204480, Note_on_c, 3, 86, 120
5, 204576, Note_on_c, 3, 86, 0
5, 204576, Note_on_c, 3, 86, 120
5, 204672, Note_on_c, 3, 86, 0
5, 204672, Note_on_c, 3, 82, 120
5, 204768, Note_on_c, 3, 82, 0
5, 204768, Note_on_c, 3, 82, 120
5, 204864, Note_on_c, 3, 82, 0
5, 204864, Note_on_c, 3, 82, 120
5, 204960, Note_on_c, 3, 82, 0
5, 204960, Note_on_c, 3, 82, 120
5, 205056, Note_on_c, 3, 82, 0
5, 205056, Note_on_c, 3, 77, 120
5, 205152, Note_on_c, 3, 77, 0
5, 205152, Note_on_c, 3, 77, 120
5, 205248, Note_on_c, 3, 77, 0
5, 205248, Note_on_c, 3, 77, 120
5, 205344, Note_on_c, 3, 77, 0
5, 205344, Note_on_c, 3, 77, 120
5, 205440, Note_on_c, 3, 77, 0
5, 205440, Note_on_c, 3, 74, 120
5, 205536, Note_on_c, 3, 74, 0
5, 205536, Note_on_c, 3, 74, 120
5, 205632, Note_on_c, 3, 74, 0
5, 205632, Note_on_c, 3, 74, 120
5, 205728, Note_on_c, 3, 74, 0
5, 205728, Note_on_c, 3, 74, 120
5, 205824, Note_on_c, 3, 74, 0
5, 205824, Note_on_c, 3, 70, 120
5, 205920, Note_on_c, 3, 70, 0
5, 205920, Note_on_c, 3, 70, 120
5, 206016, Note_on_c, 3, 70, 0
5, 206016, Note_on_c, 3, 70, 120
5, 206112, Note_on_c, 3, 70, 0
5, 206112, Note_on_c, 3, 70, 120
5, 206208, Note_on_c, 3, 70, 0
5, 206208, Note_on_c, 3, 65, 120
5, 206304, Note_on_c, 3, 65, 0
5, 206304, Note_on_c, 3, 65, 120
5, 206400, Note_on_c, 3, 65, 0
5, 206400, Note_on_c, 3, 65, 120
5, 206496, Note_on_c, 3, 65, 0
5, 206496, Note_on_c, 3, 65, 120
5, 206592, Note_on_c, 3, 65, 0
5, 206592, Note_on_c, 3, 62, 120
5, 206688, Note_on_c, 3, 62, 0
5, 206688, Note_on_c, 3, 62, 120
5, 206784, Note_on_c, 3, 62, 0
5, 206784, Note_on_c, 3, 62, 120
5, 206880, Note_on_c, 3, 62, 0
5, 206880, Note_on_c, 3, 62, 120
5, 206976, Note_on_c, 3, 62, 0
5, 206976, Note_on_c, 3, 58, 120
5, 207072, Note_on_c, 3, 58, 0
5, 207072, Note_on_c, 3, 58, 120
5, 207168, Note_on_c, 3, 58, 0
5, 207168, Note_on_c, 3, 58, 120
5, 207264, Note_on_c, 3, 58, 0
5, 207264, Note_on_c, 3, 58, 120
5, 207360, Note_on_c, 3, 58, 0
5, 207360, Note_on_c, 3, 85, 120
5, 207456, Note_on_c, 3, 85, 0
5, 207456, Note_on_c, 3, 85, 120
5, 207552, Note_on_c, 3, 85, 0
5, 207552, Note_on_c, 3, 85, 120
5, 207648, Note_on_c, 3, 85, 0
5, 207648, Note_on_c, 3, 85, 120
5, 207744, Note_on_c, 3, 85, 0
5, 207744, Note_on_c, 3, 82, 120
5, 207840, Note_on_c, 3, 82, 0
5, 207840, Note_on_c, 3, 82, 120
5, 207936, Note_on_c, 3, 82, 0
5, 207936, Note_on_c, 3, 82, 120
5, 208032, Note_on_c, 3, 82, 0
5, 208032, Note_on_c, 3, 82, 120
5, 208128, Note_on_c, 3, 82, 0
5, 208128, Note_on_c, 3, 77, 120
5, 208224, Note_on_c, 3, 77, 0
5, 208224, Note_on_c, 3, 77, 120
5, 208320, Note_on_c, 3, 77, 0
5, 208320, Note_on_c, 3, 77, 120
5, 208416, Note_on_c, 3, 77, 0
5, 208416, Note_on_c, 3, 77, 120
5, 208512, Note_on_c, 3, 77, 0
5, 208512, Note_on_c, 3, 73, 120
5, 208608, Note_on_c, 3, 73, 0
5, 208608, Note_on_c, 3, 73, 120
5, 208704, Note_on_c, 3, 73, 0
5, 208704, Note_on_c, 3, 73, 120
5, 208800, Note_on_c, 3, 73, 0
5, 208800, Note_on_c, 3, 73, 120
5, 208896, Note_on_c, 3, 73, 0
5, 208896, Note_on_c, 3, 70, 120
5, 208992, Note_on_c, 3, 70, 0
5, 208992, Note_on_c, 3, 70, 120
5, 209088, Note_on_c, 3, 70, 0
5, 209088, Note_on_c, 3, 70, 120
5, 209184, Note_on_c, 3, 70, 0
5, 209184, Note_on_c, 3, 70, 120
5, 209280, Note_on_c, 3, 70, 0
5, 209280, Note_on_c, 3, 65, 120
5, 209376, Note_on_c, 3, 65, 0
5, 209376, Note_on_c, 3, 65, 120
5, 209472, Note_on_c, 3, 65, 0
5, 209472, Note_on_c, 3, 65, 120
5, 209568, Note_on_c, 3, 65, 0
5, 209568, Note_on_c, 3, 65, 120
5, 209664, Note_on_c, 3, 65, 0
5, 209664, Note_on_c, 3, 61, 120
5, 209760, Note_on_c, 3, 61, 0
5, 209760, Note_on_c, 3, 61, 120
5, 209856, Note_on_c, 3, 61, 0
5, 209856, Note_on_c, 3, 61, 120
5, 209952, Note_on_c, 3, 61, 0
5, 209952, Note_on_c, 3, 61, 120
5, 210048, Note_on_c, 3, 61, 0
5, 210048, Note_on_c, 3, 58, 120
5, 210144, Note_on_c, 3, 58, 0
5, 210144, Note_on_c, 3, 58, 120
5, 210240, Note_on_c, 3, 58, 0
5, 210240, Note_on_c, 3, 58, 120
5, 210336, Note_on_c, 3, 58, 0
5, 210336, Note_on_c, 3, 58, 120
5, 210432, Note_on_c, 3, 58, 0
5, 210432, Note_on_c, 3, 85, 120
5, 210528, Note_on_c, 3, 85, 0
5, 210528, Note_on_c, 3, 85, 120
5, 210624, Note_on_c, 3, 85, 0
5, 210624, Note_on_c, 3, 85, 120
5, 210720, Note_on_c, 3, 85, 0
5, 210720, Note_on_c, 3, 85, 120
5, 210816, Note_on_c, 3, 85, 0
5, 210816, Note_on_c, 3, 82, 120
5, 210912, Note_on_c, 3, 82, 0
5, 210912, Note_on_c, 3, 82, 120
5, 211008, Note_on_c, 3, 82, 0
5, 211008, Note_on_c, 3, 82, 120
5, 211104, Note_on_c, 3, 82, 0
5, 211104, Note_on_c, 3, 82, 120
5, 211200, Note_on_c, 3, 82, 0
5, 211200, Note_on_c, 3, 79, 120
5, 211296, Note_on_c, 3, 79, 0
5, 211296, Note_on_c, 3, 79, 120
5, 211392, Note_on_c, 3, 79, 0
5, 211392, Note_on_c, 3, 79, 120
5, 211488, Note_on_c, 3, 79, 0
5, 211488, Note_on_c, 3, 79, 120
5, 211584, Note_on_c, 3, 79, 0
5, 211584, Note_on_c, 3, 76, 120
5, 211680, Note_on_c, 3, 76, 0
5, 211680, Note_on_c, 3, 76, 120
5, 211776, Note_on_c, 3, 76, 0
5, 211776, Note_on_c, 3, 76, 120
5, 211872, Note_on_c, 3, 76, 0
5, 211872, Note_on_c, 3, 76, 120
5, 211968, Note_on_c, 3, 76, 0
5, 211968, Note_on_c, 3, 73, 120
5, 212064, Note_on_c, 3, 73, 0
5, 212064, Note_on_c, 3, 73, 120
5, 212160, Note_on_c, 3, 73, 0
5, 212160, Note_on_c, 3, 73, 120
5, 212256, Note_on_c, 3, 73, 0
5, 212256, Note_on_c, 3, 73, 120
5, 212352, Note_on_c, 3, 73, 0
5, 212352, Note_on_c, 3, 70, 120
5, 212448, Note_on_c, 3, 70, 0
5, 212448, Note_on_c, 3, 70, 120
5, 212544, Note_on_c, 3, 70, 0
5, 212544, Note_on_c, 3, 70, 120
5, 212640, Note_on_c, 3, 70, 0
5, 212640, Note_on_c, 3, 70, 120
5, 212736, Note_on_c, 3, 70, 0
5, 212736, Note_on_c, 3, 67, 120
5, 212832, Note_on_c, 3, 67, 0
5, 212832, Note_on_c, 3, 67, 120
5, 212928, Note_on_c, 3, 67, 0
5, 212928, Note_on_c, 3, 67, 120
5, 213024, Note_on_c, 3, 67, 0
5, 213024, Note_on_c, 3, 67, 120
5, 213120, Note_on_c, 3, 67, 0
5, 213120, Note_on_c, 3, 64, 120
5, 213216, Note_on_c, 3, 64, 0
5, 213216, Note_on_c, 3, 64, 120
5, 213312, Note_on_c, 3, 64, 0
5, 213312, Note_on_c, 3, 64, 120
5, 213408, Note_on_c, 3, 64, 0
5, 213408, Note_on_c, 3, 64, 120
5, 213504, Note_on_c, 3, 64, 0
5, 213504, Note_on_c, 3, 65, 120
5, 213600, Note_on_c, 3, 65, 0
5, 213600, Note_on_c, 3, 65, 122
5, 213696, Note_on_c, 3, 65, 0
5, 213696, Note_on_c, 3, 65, 124
5, 213792, Note_on_c, 3, 65, 0
5, 213792, Note_on_c, 3, 65, 127
5, 213888, Note_on_c, 3, 65, 0
5, 213888, Note_on_c, 3, 66, 127
5, 213984, Note_on_c, 3, 66, 0
5, 213984, Note_on_c, 3, 66, 126
5, 214080, Note_on_c, 3, 66, 0
5, 214080, Note_on_c, 3, 66, 125
5, 214176, Note_on_c, 3, 66, 0
5, 214176, Note_on_c, 3, 66, 124
5, 214272, Note_on_c, 3, 66, 0
5, 214272, Note_on_c, 3, 65, 123
5, 214368, Note_on_c, 3, 65, 0
5, 214368, Note_on_c, 3, 65, 122
5, 214464, Note_on_c, 3, 65, 0
5, 214464, Note_on_c, 3, 65, 121
5, 214560, Note_on_c, 3, 65, 0
5, 214560, Note_on_c, 3, 65, 120
5, 214656, Note_on_c, 3, 65, 0
5, 214656, Note_on_c, 3, 64, 119
5, 214752, Note_on_c, 3, 64, 0
5, 214752, Note_on_c, 3, 64, 118
5, 214848, Note_on_c, 3, 64, 0
5, 214848, Note_on_c, 3, 64, 117
5, 214944, Note_on_c, 3, 64, 0
5, 214944, Note_on_c, 3, 64, 116
5, 215040, Note_on_c, 3, 64, 0
5, 215040, Note_on_c, 3, 65, 115
5, 215268, Note_on_c, 3, 65, 0
5, 215424, Note_on_c, 3, 77, 92
5, 215616, Note_on_c, 3, 77, 0
5, 215808, Note_on_c, 3, 65, 92
5, 216056, Note_on_c, 3, 65, 0
5, 216576, Note_on_c, 3, 72, 100
5, 216768, Note_on_c, 3, 72, 0
5, 216768, Note_on_c, 3, 70, 100
5, 216920, Note_on_c, 3, 70, 0
5, 216960, Note_on_c, 3, 69, 100
5, 217112, Note_on_c, 3, 69, 0
5, 217152, Note_on_c, 3, 70, 100
5, 217304, Note_on_c, 3, 70, 0
5, 217344, Note_on_c, 3, 74, 100
5, 217536, Note_on_c, 3, 74, 0
5, 217536, Note_on_c, 3, 72, 100
5, 217688, Note_on_c, 3, 72, 0
5, 217728, Note_on_c, 3, 70, 100
5, 217880, Note_on_c, 3, 70, 0
5, 217920, Note_on_c, 3, 72, 100
5, 218072, Note_on_c, 3, 72, 0
5, 218112, Note_on_c, 3, 75, 100
5, 218304, Note_on_c, 3, 75, 0
5, 218304, Note_on_c, 3, 74, 100
5, 218456, Note_on_c, 3, 74, 0
5, 218496, Note_on_c, 3, 72, 100
5, 218648, Note_on_c, 3, 72, 0
5, 218688, Note_on_c, 3, 74, 100
5, 218840, Note_on_c, 3, 74, 0
5, 218880, Note_on_c, 3, 77, 100
5, 219072, Note_on_c, 3, 77, 0
5, 219072, Note_on_c, 3, 75, 100
5, 219224, Note_on_c, 3, 75, 0
5, 219264, Note_on_c, 3, 74, 100
5, 219416, Note_on_c, 3, 74, 0
5, 219456, Note_on_c, 3, 72, 100
5, 219608, Note_on_c, 3, 72, 0
5, 219648, Note_on_c, 3, 72, 100
5, 219840, Note_on_c, 3, 72, 0
5, 219840, Note_on_c, 3, 70, 100
5, 219992, Note_on_c, 3, 70, 0
5, 220032, Note_on_c, 3, 69, 100
5, 220184, Note_on_c, 3, 69, 0
5, 220224, Note_on_c, 3, 70, 100
5, 220376, Note_on_c, 3, 70, 0
5, 220416, Note_on_c, 3, 74, 100
5, 220608, Note_on_c, 3, 74, 0
5, 220608, Note_on_c, 3, 72, 100
5, 220760, Note_on_c, 3, 72, 0
5, 220800, Note_on_c, 3, 70, 100
5, 220952, Note_on_c, 3, 70, 0
5, 220992, Note_on_c, 3, 72, 100
5, 221144, Note_on_c, 3, 72, 0
5, 221184, Note_on_c, 3, 75, 100
5, 221376, Note_on_c, 3, 75, 0
5, 221376, Note_on_c, 3, 74, 100
5, 221528, Note_on_c, 3, 74, 0
5, 221568, Note_on_c, 3, 72, 100
5, 221720, Note_on_c, 3, 72, 0
5, 221760, Note_on_c, 3, 74, 100
5, 221912, Note_on_c, 3, 74, 0
5, 221952, Note_on_c, 3, 77, 100
5, 222144, Note_on_c, 3, 77, 0
5, 222144, Note_on_c, 3, 75, 100
5, 222296, Note_on_c, 3, 75, 0
5, 222336, Note_on_c, 3, 74, 100
5, 222488, Note_on_c, 3, 74, 0
5, 222528, Note_on_c, 3, 72, 100
5, 222680, Note_on_c, 3, 72, 0
5, 222720, Note_on_c, 3, 70, 100
5, 222912, Note_on_c, 3, 70, 0
5, 222912, Note_on_c, 3, 82, 100
5, 223064, Note_on_c, 3, 82, 0
5, 223104, Note_on_c, 3, 82, 100
5, 223256, Note_on_c, 3, 82, 0
5, 223296, Note_on_c, 3, 82, 100
5, 223448, Note_on_c, 3, 82, 0
5, 223488, Note_on_c, 3, 82, 100
5, 223680, Note_on_c, 3, 82, 0
5, 223680, Note_on_c, 3, 81, 100
5, 223832, Note_on_c, 3, 81, 0
5, 223872, Note_on_c, 3, 79, 100
5, 224024, Note_on_c, 3, 79, 0
5, 224064, Note_on_c, 3, 77, 100
5, 224216, Note_on_c, 3, 77, 0
5, 224256, Note_on_c, 3, 75, 100
5, 224448, Note_on_c, 3, 75, 0
5, 224448, Note_on_c, 3, 79, 100
5, 224600, Note_on_c, 3, 79, 0
5, 224640, Note_on_c, 3, 79, 100
5, 224792, Note_on_c, 3, 79, 0
5, 224832, Note_on_c, 3, 79, 100
5, 224984, Note_on_c, 3, 79, 0
5, 225024, Note_on_c, 3, 79, 100
5, 225216, Note_on_c, 3, 79, 0
5, 225216, Note_on_c, 3, 77, 100
5, 225368, Note_on_c, 3, 77, 0
5, 225408, Note_on_c, 3, 75, 100
5, 225560, Note_on_c, 3, 75, 0
5, 225600, Note_on_c, 3, 74, 100
5, 225752, Note_on_c, 3, 74, 0
5, 225792, Note_on_c, 3, 72, 100
5, 225984, Note_on_c, 3, 72, 0
5, 225984, Note_on_c, 3, 75, 100
5, 226136, Note_on_c, 3, 75, 0
5, 226176, Note_on_c, 3, 75, 100
5, 226328, Note_on_c, 3, 75, 0
5, 226368, Note_on_c, 3, 75, 100
5, 226520, Note_on_c, 3, 75, 0
5, 226560, Note_on_c, 3, 75, 100
5, 226752, Note_on_c, 3, 75, 0
5, 226752, Note_on_c, 3, 74, 100
5, 226904, Note_on_c, 3, 74, 0
5, 226944, Note_on_c, 3, 77, 100
5, 227096, Note_on_c, 3, 77, 0
5, 227136, Note_on_c, 3, 70, 100
5, 227288, Note_on_c, 3, 70, 0
5, 227328, Note_on_c, 3, 74, 100
5, 227520, Note_on_c, 3, 74, 0
5, 227520, Note_on_c, 3, 72, 100
5, 227672, Note_on_c, 3, 72, 0
5, 227712, Note_on_c, 3, 70, 100
5, 227864, Note_on_c, 3, 70, 0
5, 227904, Note_on_c, 3, 69, 100
5, 228056, Note_on_c, 3, 69, 0
5, 228096, Note_on_c, 3, 72, 120
5, 228288, Note_on_c, 3, 72, 0
5, 228288, Note_on_c, 3, 70, 120
5, 228440, Note_on_c, 3, 70, 0
5, 228480, Note_on_c, 3, 69, 120
5, 228632, Note_on_c, 3, 69, 0
5, 228672, Note_on_c, 3, 70, 120
5, 228824, Note_on_c, 3, 70, 0
5, 228864, Note_on_c, 3, 74, 120
5, 229056, Note_on_c, 3, 74, 0
5, 229056, Note_on_c, 3, 72, 120
5, 229208, Note_on_c, 3, 72, 0
5, 229248, Note_on_c, 3, 70, 120
5, 229400, Note_on_c, 3, 70, 0
5, 229440, Note_on_c, 3, 72, 120
5, 229592, Note_on_c, 3, 72, 0
5, 229632, Note_on_c, 3, 75, 120
5, 229824, Note_on_c, 3, 75, 0
5, 229824, Note_on_c, 3, 74, 120
5, 229976, Note_on_c, 3, 74, 0
5, 230016, Note_on_c, 3, 72, 120
5, 230168, Note_on_c, 3, 72, 0
5, 230208, Note_on_c, 3, 74, 120
5, 230360, Note_on_c, 3, 74, 0
5, 230400, Note_on_c, 3, 77, 120
5, 230592, Note_on_c, 3, 77, 0
5, 230592, Note_on_c, 3, 75, 120
5, 230744, Note_on_c, 3, 75, 0
5, 230784, Note_on_c, 3, 74, 120
5, 230936, Note_on_c, 3, 74, 0
5, 230976, Note_on_c, 3, 72, 120
5, 231128, Note_on_c, 3, 72, 0
5, 231168, Note_on_c, 3, 72, 120
5, 231360, Note_on_c, 3, 72, 0
5, 231360, Note_on_c, 3, 70, 120
5, 231512, Note_on_c, 3, 70, 0
5, 231552, Note_on_c, 3, 69, 120
5, 231704, Note_on_c, 3, 69, 0
5, 231744, Note_on_c, 3, 70, 120
5, 231896, Note_on_c, 3, 70, 0
5, 231936, Note_on_c, 3, 74, 120
5, 232128, Note_on_c, 3, 74, 0
5, 232128, Note_on_c, 3, 72, 120
5, 232280, Note_on_c, 3, 72, 0
5, 232320, Note_on_c, 3, 70, 120
5, 232472, Note_on_c, 3, 70, 0
5, 232512, Note_on_c, 3, 72, 120
5, 232664, Note_on_c, 3, 72, 0
5, 232704, Note_on_c, 3, 75, 120
5, 232896, Note_on_c, 3, 75, 0
5, 232896, Note_on_c, 3, 74, 120
5, 233048, Note_on_c, 3, 74, 0
5, 233088, Note_on_c, 3, 72, 120
5, 233240, Note_on_c, 3, 72, 0
5, 233280, Note_on_c, 3, 74, 120
5, 233432, Note_on_c, 3, 74, 0
5, 233472, Note_on_c, 3, 77, 120
5, 233664, Note_on_c, 3, 77, 0
5, 233664, Note_on_c, 3, 75, 120
5, 233816, Note_on_c, 3, 75, 0
5, 233856, Note_on_c, 3, 74, 120
5, 234008, Note_on_c, 3, 74, 0
5, 234048, Note_on_c, 3, 72, 120
5, 234200, Note_on_c, 3, 72, 0
5, 234240, Note_on_c, 3, 70, 120
5, 234432, Note_on_c, 3, 70, 0
5, 234432, Note_on_c, 3, 82, 120
5, 234584, Note_on_c, 3, 82, 0
5, 234624, Note_on_c, 3, 82, 120
5, 234776, Note_on_c, 3, 82, 0
5, 234816, Note_on_c, 3, 82, 120
5, 234968, Note_on_c, 3, 82, 0
5, 235008, Note_on_c, 3, 82, 120
5, 235200, Note_on_c, 3, 82, 0
5, 235200, Note_on_c, 3, 81, 120
5, 235352, Note_on_c, 3, 81, 0
5, 235392, Note_on_c, 3, 79, 120
5, 235544, Note_on_c, 3, 79, 0
5, 235584, Note_on_c, 3, 77, 120
5, 235736, Note_on_c, 3, 77, 0
5, 235776, Note_on_c, 3, 75, 120
5, 235968, Note_on_c, 3, 75, 0
5, 235968, Note_on_c, 3, 79, 120
5, 236120, Note_on_c, 3, 79, 0
5, 236160, Note_on_c, 3, 79, 120
5, 236312, Note_on_c, 3, 79, 0
5, 236352, Note_on_c, 3, 79, 120
5, 236504, Note_on_c, 3, 79, 0
5, 236544, Note_on_c, 3, 79, 120
5, 236736, Note_on_c, 3, 79, 0
5, 236736, Note_on_c, 3, 77, 120
5, 236888, Note_on_c, 3, 77, 0
5, 236928, Note_on_c, 3, 75, 120
5, 237080, Note_on_c, 3, 75, 0
5, 237120, Note_on_c, 3, 74, 120
5, 237272, Note_on_c, 3, 74, 0
5, 237312, Note_on_c, 3, 72, 120
5, 237504, Note_on_c, 3, 72, 0
5, 237504, Note_on_c, 3, 75, 120
5, 237656, Note_on_c, 3, 75, 0
5, 237696, Note_on_c, 3, 75, 120
5, 237848, Note_on_c, 3, 75, 0
5, 237888, Note_on_c, 3, 75, 120
5, 238040, Note_on_c, 3, 75, 0
5, 238080, Note_on_c, 3, 75, 120
5, 238272, Note_on_c, 3, 75, 0
5, 238272, Note_on_c, 3, 74, 120
5, 238424, Note_on_c, 3, 74, 0
5, 238464, Note_on_c, 3, 77, 120
5, 238616, Note_on_c, 3, 77, 0
5, 238656, Note_on_c, 3, 70, 120
5, 238808, Note_on_c, 3, 70, 0
5, 238848, Note_on_c, 3, 74, 120
5, 239040, Note_on_c, 3, 74, 0
5, 239040, Note_on_c, 3, 72, 120
5, 239192, Note_on_c, 3, 72, 0
5, 239232, Note_on_c, 3, 70, 120
5, 239384, Note_on_c, 3, 70, 0
5, 239424, Note_on_c, 3, 69, 120
5, 239576, Note_on_c, 3, 69, 0
5, 239616, Note_on_c, 3, 70, 120
5, 239808, Note_on_c, 3, 70, 0
5, 239808, Note_on_c, 3, 72, 120
5, 239904, Note_on_c, 3, 72, 0
5, 239904, Note_on_c, 3, 74, 120
5, 240000, Note_on_c, 3, 74, 0
5, 240000, Note_on_c, 3, 75, 120
5, 240096, Note_on_c, 3, 75, 0
5, 240096, Note_on_c, 3, 77, 120
5, 240192, Note_on_c, 3, 77, 0
5, 240192, Note_on_c, 3, 79, 120
5, 240288, Note_on_c, 3, 79, 0
5, 240288, Note_on_c, 3, 81, 120
5, 240384, Note_on_c, 3, 81, 0
5, 240384, Note_on_c, 3, 82, 120
5, 240688, Note_on_c, 3, 82, 0
5, 241152, Note_on_c, 3, 67, 120
5, 241344, Note_on_c, 3, 67, 0
5, 241344, Note_on_c, 3, 69, 120
5, 241440, Note_on_c, 3, 69, 0
5, 241440, Note_on_c, 3, 70, 120
5, 241536, Note_on_c, 3, 70, 0
5, 241536, Note_on_c, 3, 72, 120
5, 241632, Note_on_c, 3, 72, 0
5, 241632, Note_on_c, 3, 74, 120
5, 241728, Note_on_c, 3, 74, 0
5, 241728, Note_on_c, 3, 75, 120
5, 241824, Note_on_c, 3, 75, 0
5, 241824, Note_on_c, 3, 77, 120
5, 241920, Note_on_c, 3, 77, 0
5, 241920, Note_on_c, 3, 79, 120
5, 242224, Note_on_c, 3, 79, 0
5, 242688, Note_on_c, 3, 77, 120
5, 242956, Note_on_c, 3, 77, 0
5, 243072, Note_on_c, 3, 82, 120
5, 243072, Note_on_c, 3, 74, 120
5, 243340, Note_on_c, 3, 74, 0
5, 243340, Note_on_c, 3, 82, 0
5, 243456, Note_on_c, 3, 72, 120
5, 243724, Note_on_c, 3, 72, 0
5, 243840, Note_on_c, 3, 81, 120
5, 243840, Note_on_c, 3, 72, 120
5, 244108, Note_on_c, 3, 72, 0
5, 244108, Note_on_c, 3, 81, 0
5, 244224, Note_on_c, 3, 82, 127
5, 244320, Note_on_c, 3, 82, 0
5, 244320, Note_on_c, 3, 82, 127
5, 244416, Note_on_c, 3, 82, 0
5, 244416, Note_on_c, 3, 82, 127
5, 244512, Note_on_c, 3, 82, 0
5, 244512, Note_on_c, 3, 82, 127
5, 244608, Note_on_c, 3, 82, 0
5, 244608, Note_on_c, 3, 77, 127
5, 244704, Note_on_c, 3, 77, 0
5, 244704, Note_on_c, 3, 77, 127
5, 244800, Note_on_c, 3, 77, 0
5, 244800, Note_on_c, 3, 77, 127
5, 244896, Note_on_c, 3, 77, 0
5, 244896, Note_on_c, 3, 77, 127
5, 244992, Note_on_c, 3, 77, 0
5, 244992, Note_on_c, 3, 74, 127
5, 245088, Note_on_c, 3, 74, 0
5, 245088, Note_on_c, 3, 74, 127
5, 245184, Note_on_c, 3, 74, 0
5, 245184, Note_on_c, 3, 74, 127
5, 245280, Note_on_c, 3, 74, 0
5, 245280, Note_on_c, 3, 74, 127
5, 245376, Note_on_c, 3, 74, 0
5, 245376, Note_on_c, 3, 70, 127
5, 245472, Note_on_c, 3, 70, 0
5, 245472, Note_on_c, 3, 70, 127
5, 245568, Note_on_c, 3, 70, 0
5, 245568, Note_on_c, 3, 70, 127
5, 245664, Note_on_c, 3, 70, 0
5, 245664, Note_on_c, 3, 70, 127
5, 245760, Note_on_c, 3, 70, 0
5, 245760, Note_on_c, 3, 69, 127
5, 245856, Note_on_c, 3, 69, 0
5, 245856, Note_on_c, 3, 69, 127
5, 245952, Note_on_c, 3, 69, 0
5, 245952, Note_on_c, 3, 69, 127
5, 246048, Note_on_c, 3, 69, 0
5, 246048, Note_on_c, 3, 69, 127
5, 246144, Note_on_c, 3, 69, 0
5, 246144, Note_on_c, 3, 72, 127
5, 246240, Note_on_c, 3, 72, 0
5, 246240, Note_on_c, 3, 72, 127
5, 246336, Note_on_c, 3, 72, 0
5, 246336, Note_on_c, 3, 72, 127
5, 246432, Note_on_c, 3, 72, 0
5, 246432, Note_on_c, 3, 72, 127
5, 246528, Note_on_c, 3, 72, 0
5, 246528, Note_on_c, 3, 77, 127
5, 246624, Note_on_c, 3, 77, 0
5, 246624, Note_on_c, 3, 77, 127
5, 246720, Note_on_c, 3, 77, 0
5, 246720, Note_on_c, 3, 77, 127
5, 246816, Note_on_c, 3, 77, 0
5, 246816, Note_on_c, 3, 77, 127
5, 246912, Note_on_c, 3, 77, 0
5, 246912, Note_on_c, 3, 81, 127
5, 247008, Note_on_c, 3, 81, 0
5, 247008, Note_on_c, 3, 81, 127
5, 247104, Note_on_c, 3, 81, 0
5, 247104, Note_on_c, 3, 81, 127
5, 247200, Note_on_c, 3, 81, 0
5, 247200, Note_on_c, 3, 81, 127
5, 247296, Note_on_c, 3, 81, 0
5, 247296, Note_on_c, 3, 82, 127
5, 247392, Note_on_c, 3, 82, 0
5, 247392, Note_on_c, 3, 82, 127
5, 247488, Note_on_c, 3, 82, 0
5, 247488, Note_on_c, 3, 82, 127
5, 247584, Note_on_c, 3, 82, 0
5, 247584, Note_on_c, 3, 82, 127
5, 247680, Note_on_c, 3, 82, 0
5, 247680, Note_on_c, 3, 77, 127
5, 247776, Note_on_c, 3, 77, 0
5, 247776, Note_on_c, 3, 77, 127
5, 247872, Note_on_c, 3, 77, 0
5, 247872, Note_on_c, 3, 77, 127
5, 247968, Note_on_c, 3, 77, 0
5, 247968, Note_on_c, 3, 77, 127
5, 248064, Note_on_c, 3, 77, 0
5, 248064, Note_on_c, 3, 74, 127
5, 248160, Note_on_c, 3, 74, 0
5, 248160, Note_on_c, 3, 74, 127
5, 248256, Note_on_c, 3, 74, 0
5, 248256, Note_on_c, 3, 74, 127
5, 248352, Note_on_c, 3, 74, 0
5, 248352, Note_on_c, 3, 74, 127
5, 248448, Note_on_c, 3, 74, 0
5, 248448, Note_on_c, 3, 70, 127
5, 248544, Note_on_c, 3, 70, 0
5, 248544, Note_on_c, 3, 70, 127
5, 248640, Note_on_c, 3, 70, 0
5, 248640, Note_on_c, 3, 70, 127
5, 248736, Note_on_c, 3, 70, 0
5, 248736, Note_on_c, 3, 70, 127
5, 248832, Note_on_c, 3, 70, 0
5, 248832, Note_on_c, 3, 69, 127
5, 248928, Note_on_c, 3, 69, 0
5, 248928, Note_on_c, 3, 69, 127
5, 249024, Note_on_c, 3, 69, 0
5, 249024, Note_on_c, 3, 69, 127
5, 249120, Note_on_c, 3, 69, 0
5, 249120, Note_on_c, 3, 69, 127
5, 249216, Note_on_c, 3, 69, 0
5, 249216, Note_on_c, 3, 72, 127
5, 249312, Note_on_c, 3, 72, 0
5, 249312, Note_on_c, 3, 72, 127
5, 249408, Note_on_c, 3, 72, 0
5, 249408, Note_on_c, 3, 72, 127
5, 249504, Note_on_c, 3, 72, 0
5, 249504, Note_on_c, 3, 72, 127
5, 249600, Note_on_c, 3, 72, 0
5, 249600, Note_on_c, 3, 77, 127
5, 249696, Note_on_c, 3, 77, 0
5, 249696, Note_on_c, 3, 77, 127
5, 249792, Note_on_c, 3, 77, 0
5, 249792, Note_on_c, 3, 77, 127
5, 249888, Note_on_c, 3, 77, 0
5, 249888, Note_on_c, 3, 77, 127
5, 249984, Note_on_c, 3, 77, 0
5, 249984, Note_on_c, 3, 81, 127
5, 250080, Note_on_c, 3, 81, 0
5, 250080, Note_on_c, 3, 81, 127
5, 250176, Note_on_c, 3, 81, 0
5, 250176, Note_on_c, 3, 81, 127
5, 250272, Note_on_c, 3, 81, 0
5, 250272, Note_on_c, 3, 81, 127
5, 250368, Note_on_c, 3, 81, 0
5, 250368, Note_on_c, 3, 82, 127
5, 250464, Note_on_c, 3, 82, 0
5, 250464, Note_on_c, 3, 82, 127
5, 250560, Note_on_c, 3, 82, 0
5, 250560, Note_on_c, 3, 82, 127
5, 250656, Note_on_c, 3, 82, 0
5, 250656, Note_on_c, 3, 82, 127
5, 250752, Note_on_c, 3, 82, 0
5, 250752, Note_on_c, 3, 70, 127
5, 250848, Note_on_c, 3, 70, 0
5, 250848, Note_on_c, 3, 70, 127
5, 250944, Note_on_c, 3, 70, 0
5, 250944, Note_on_c, 3, 70, 127
5, 251040, Note_on_c, 3, 70, 0
5, 251040, Note_on_c, 3, 70, 127
5, 251136, Note_on_c, 3, 70, 0
5, 251136, Note_on_c, 3, 72, 127
5, 251232, Note_on_c, 3, 72, 0
5, 251232, Note_on_c, 3, 72, 127
5, 251328, Note_on_c, 3, 72, 0
5, 251328, Note_on_c, 3, 72, 127
5, 251424, Note_on_c, 3, 72, 0
5, 251424, Note_on_c, 3, 72, 127
5, 251520, Note_on_c, 3, 72, 0
5, 251520, Note_on_c, 3, 74, 127
5, 251616, Note_on_c, 3, 74, 0
5, 251616, Note_on_c, 3, 74, 127
5, 251712, Note_on_c, 3, 74, 0
5, 251712, Note_on_c, 3, 74, 127
5, 251808, Note_on_c, 3, 74, 0
5, 251808, Note_on_c, 3, 74, 127
5, 251904, Note_on_c, 3, 74, 0
5, 251904, Note_on_c, 3, 75, 127
5, 252000, Note_on_c, 3, 75, 0
5, 252000, Note_on_c, 3, 75, 127
5, 252096, Note_on_c, 3, 75, 0
5, 252096, Note_on_c, 3, 75, 126
5, 252192, Note_on_c, 3, 75, 0
5, 252192, Note_on_c, 3, 75, 126
5, 252288, Note_on_c, 3, 75, 0
5, 252288, Note_on_c, 3, 72, 125
5, 252384, Note_on_c, 3, 72, 0
5, 252384, Note_on_c, 3, 72, 125
5, 252480, Note_on_c, 3, 72, 0
5, 252480, Note_on_c, 3, 72, 124
5, 252576, Note_on_c, 3, 72, 0
5, 252576, Note_on_c, 3, 72, 124
5, 252672, Note_on_c, 3, 72, 0
5, 252672, Note_on_c, 3, 69, 123
5, 252768, Note_on_c, 3, 69, 0
5, 252768, Note_on_c, 3, 69, 123
5, 252864, Note_on_c, 3, 69, 0
5, 252864, Note_on_c, 3, 69, 123
5, 252960, Note_on_c, 3, 69, 0
5, 252960, Note_on_c, 3, 69, 122
5, 253056, Note_on_c, 3, 69, 0
5, 253056, Note_on_c, 3, 78, 122
5, 253152, Note_on_c, 3, 78, 0
5, 253152, Note_on_c, 3, 78, 121
5, 253248, Note_on_c, 3, 78, 0
5, 253248, Note_on_c, 3, 78, 121
5, 253344, Note_on_c, 3, 78, 0
5, 253344, Note_on_c, 3, 78, 120
5, 253440, Note_on_c, 3, 78, 0
5, 253440, Note_on_c, 3, 79, 96
5, 253728, Note_on_c, 3, 79, 0
5, 253824, Note_on_c, 3, 67, 120
5, 253920, Note_on_c, 3, 67, 0
5, 253920, Note_on_c, 3, 67, 120
5, 254016, Note_on_c, 3, 67, 0
5, 254016, Note_on_c, 3, 67, 120
5, 254112, Note_on_c, 3, 67, 0
5, 254112, Note_on_c, 3, 67, 120
5, 254208, Note_on_c, 3, 67, 0
5, 254208, Note_on_c, 3, 68, 120
5, 254304, Note_on_c, 3, 68, 0
5, 254304, Note_on_c, 3, 68, 120
5, 254400, Note_on_c, 3, 68, 0
5, 254400, Note_on_c, 3, 68, 120
5, 254496, Note_on_c, 3, 68, 0
5, 254496, Note_on_c, 3, 68, 120
5, 254592, Note_on_c, 3, 68, 0
5, 254592, Note_on_c, 3, 70, 120
5, 254688, Note_on_c, 3, 70, 0
5, 254688, Note_on_c, 3, 70, 120
5, 254784, Note_on_c, 3, 70, 0
5, 254784, Note_on_c, 3, 70, 120
5, 254880, Note_on_c, 3, 70, 0
5, 254880, Note_on_c, 3, 70, 120
5, 254976, Note_on_c, 3, 70, 0
5, 254976, Note_on_c, 3, 72, 120
5, 255072, Note_on_c, 3, 72, 0
5, 255072, Note_on_c, 3, 72, 120
5, 255168, Note_on_c, 3, 72, 0
5, 255168, Note_on_c, 3, 72, 120
5, 255264, Note_on_c, 3, 72, 0
5, 255264, Note_on_c, 3, 72, 120
5, 255360, Note_on_c, 3, 72, 0
5, 255360, Note_on_c, 3, 68, 120
5, 255456, Note_on_c, 3, 68, 0
5, 255456, Note_on_c, 3, 68, 120
5, 255552, Note_on_c, 3, 68, 0
5, 255552, Note_on_c, 3, 68, 120
5, 255648, Note_on_c, 3, 68, 0
5, 255648, Note_on_c, 3, 68, 120
5, 255744, Note_on_c, 3, 68, 0
5, 255744, Note_on_c, 3, 65, 120
5, 255840, Note_on_c, 3, 65, 0
5, 255840, Note_on_c, 3, 65, 120
5, 255936, Note_on_c, 3, 65, 0
5, 255936, Note_on_c, 3, 65, 120
5, 256032, Note_on_c, 3, 65, 0
5, 256032, Note_on_c, 3, 65, 120
5, 256128, Note_on_c, 3, 65, 0
5, 256128, Note_on_c, 3, 74, 120
5, 256224, Note_on_c, 3, 74, 0
5, 256224, Note_on_c, 3, 74, 120
5, 256320, Note_on_c, 3, 74, 0
5, 256320, Note_on_c, 3, 74, 120
5, 256416, Note_on_c, 3, 74, 0
5, 256416, Note_on_c, 3, 74, 120
5, 256512, Note_on_c, 3, 74, 0
5, 256512, Note_on_c, 3, 75, 96
5, 256800, Note_on_c, 3, 75, 0
5, 256896, Note_on_c, 3, 63, 120
5, 256992, Note_on_c, 3, 63, 0
5, 256992, Note_on_c, 3, 63, 120
5, 257088, Note_on_c, 3, 63, 0
5, 257088, Note_on_c, 3, 63, 120
5, 257184, Note_on_c, 3, 63, 0
5, 257184, Note_on_c, 3, 63, 120
5, 257280, Note_on_c, 3, 63, 0
5, 257280, Note_on_c, 3, 65, 120
5, 257376, Note_on_c, 3, 65, 0
5, 257376, Note_on_c, 3, 65, 120
5, 257472, Note_on_c, 3, 65, 0
5, 257472, Note_on_c, 3, 65, 120
5, 257568, Note_on_c, 3, 65, 0
5, 257568, Note_on_c, 3, 65, 120
5, 257664, Note_on_c, 3, 65, 0
5, 257664, Note_on_c, 3, 67, 120
5, 257760, Note_on_c, 3, 67, 0
5, 257760, Note_on_c, 3, 67, 120
5, 257856, Note_on_c, 3, 67, 0
5, 257856, Note_on_c, 3, 67, 120
5, 257952, Note_on_c, 3, 67, 0
5, 257952, Note_on_c, 3, 67, 120
5, 258048, Note_on_c, 3, 67, 0
5, 258048, Note_on_c, 3, 68, 120
5, 258144, Note_on_c, 3, 68, 0
5, 258144, Note_on_c, 3, 68, 120
5, 258240, Note_on_c, 3, 68, 0
5, 258240, Note_on_c, 3, 68, 120
5, 258336, Note_on_c, 3, 68, 0
5, 258336, Note_on_c, 3, 68, 120
5, 258432, Note_on_c, 3, 68, 0
5, 258432, Note_on_c, 3, 65, 120
5, 258528, Note_on_c, 3, 65, 0
5, 258528, Note_on_c, 3, 65, 120
5, 258624, Note_on_c, 3, 65, 0
5, 258624, Note_on_c, 3, 65, 120
5, 258720, Note_on_c, 3, 65, 0
5, 258720, Note_on_c, 3, 65, 120
5, 258816, Note_on_c, 3, 65, 0
5, 258816, Note_on_c, 3, 62, 120
5, 258912, Note_on_c, 3, 62, 0
5, 258912, Note_on_c, 3, 62, 120
5, 259008, Note_on_c, 3, 62, 0
5, 259008, Note_on_c, 3, 62, 120
5, 259104, Note_on_c, 3, 62, 0
5, 259104, Note_on_c, 3, 62, 120
5, 259200, Note_on_c, 3, 62, 0
5, 259200, Note_on_c, 3, 71, 120
5, 259296, Note_on_c, 3, 71, 0
5, 259296, Note_on_c, 3, 71, 120
5, 259392, Note_on_c, 3, 71, 0
5, 259392, Note_on_c, 3, 71, 120
5, 259488, Note_on_c, 3, 71, 0
5, 259488, Note_on_c, 3, 71, 120
5, 259584, Note_on_c, 3, 71, 0
5, 259584, Note_on_c, 3, 72, 127
5, 259888, Note_on_c, 3, 72, 0
5, 259968, Note_on_c, 3, 67, 127
5, 260272, Note_on_c, 3, 67, 0
5, 260352, Note_on_c, 3, 75, 127
5, 260656, Note_on_c, 3, 75, 0
5, 260928, Note_on_c, 3, 67, 127
5, 261080, Note_on_c, 3, 67, 0
5, 261120, Note_on_c, 3, 72, 127
5, 261424, Note_on_c, 3, 72, 0
5, 261504, Note_on_c, 3, 67, 127
5, 261808, Note_on_c, 3, 67, 0
5, 261888, Note_on_c, 3, 75, 127
5, 262192, Note_on_c, 3, 75, 0
5, 262464, Note_on_c, 3, 72, 127
5, 262616, Note_on_c, 3, 72, 0
5, 262656, Note_on_c, 3, 74, 127
5, 262960, Note_on_c, 3, 74, 0
5, 263040, Note_on_c, 3, 69, 127
5, 263344, Note_on_c, 3, 69, 0
5, 263424, Note_on_c, 3, 78, 127
5, 263728, Note_on_c, 3, 78, 0
5, 264000, Note_on_c, 3, 69, 127
5, 264152, Note_on_c, 3, 69, 0
5, 264192, Note_on_c, 3, 74, 127
5, 264496, Note_on_c, 3, 74, 0
5, 264576, Note_on_c, 3, 69, 127
5, 264880, Note_on_c, 3, 69, 0
5, 264960, Note_on_c, 3, 78, 127
5, 265264, Note_on_c, 3, 78, 0
5, 265536, Note_on_c, 3, 74, 127
5, 265688, Note_on_c, 3, 74, 0
5, 265728, Note_on_c, 3, 79, 127
5, 266032, Note_on_c, 3, 79, 0
5, 266112, Note_on_c, 3, 74, 127
5, 266416, Note_on_c, 3, 74, 0
5, 266496, Note_on_c, 3, 82, 127
5, 266800, Note_on_c, 3, 82, 0
5, 267072, Note_on_c, 3, 74, 127
5, 267224, Note_on_c, 3, 74, 0
5, 267264, Note_on_c, 3, 79, 127
5, 267568, Note_on_c, 3, 79, 0
5, 267648, Note_on_c, 3, 74, 127
5, 267952, Note_on_c, 3, 74, 0
5, 268032, Note_on_c, 3, 82, 127
5, 268336, Note_on_c, 3, 82, 0
5, 268608, Note_on_c, 3, 74, 127
5, 268760, Note_on_c, 3, 74, 0
5, 268800, Note_on_c, 3, 73, 127
5, 269104, Note_on_c, 3, 73, 0
5, 269184, Note_on_c, 3, 67, 127
5, 269488, Note_on_c, 3, 67, 0
5, 269568, Note_on_c, 3, 76, 127
5, 269872, Note_on_c, 3, 76, 0
5, 270144, Note_on_c, 3, 76, 127
5, 270296, Note_on_c, 3, 76, 0
5, 270336, Note_on_c, 3, 79, 127
5, 270640, Note_on_c, 3, 79, 0
5, 270720, Note_on_c, 3, 69, 127
5, 271024, Note_on_c, 3, 69, 0
5, 271104, Note_on_c, 3, 88, 127
5, 271408, Note_on_c, 3, 88, 0
5, 271680, Note_on_c, 3, 79, 127
5, 271832, Note_on_c, 3, 79, 0
5, 271872, Note_on_c, 3, 77, 127
5, 272176, Note_on_c, 3, 77, 0
5, 272256, Note_on_c, 3, 69, 127
5, 272560, Note_on_c, 3, 69, 0
5, 272640, Note_on_c, 3, 86, 127
5, 272944, Note_on_c, 3, 86, 0
5, 273216, Note_on_c, 3, 74, 127
5, 273368, Note_on_c, 3, 74, 0
5, 273408, Note_on_c, 3, 77, 127
5, 273712, Note_on_c, 3, 77, 0
5, 273792, Note_on_c, 3, 62, 127
5, 274096, Note_on_c, 3, 62, 0
5, 274176, Note_on_c, 3, 86, 127
5, 274480, Note_on_c, 3, 86, 0
5, 274752, Note_on_c, 3, 80, 127
5, 274904, Note_on_c, 3, 80, 0
5, 274944, Note_on_c, 3, 81, 127
5, 275248, Note_on_c, 3, 81, 0
5, 275328, Note_on_c, 3, 64, 64
5, 275632, Note_on_c, 3, 64, 0
5, 275712, Note_on_c, 3, 64, 64
5, 276016, Note_on_c, 3, 64, 0
5, 276096, Note_on_c, 3, 64, 64
5, 276400, Note_on_c, 3, 64, 0
5, 276864, Note_on_c, 3, 67, 64
5, 277168, Note_on_c, 3, 67, 0
5, 277248, Note_on_c, 3, 67, 64
5, 277552, Note_on_c, 3, 67, 0
5, 277632, Note_on_c, 3, 67, 64
5, 277936, Note_on_c, 3, 67, 0
5, 278400, Note_on_c, 3, 65, 64
5, 278704, Note_on_c, 3, 65, 0
5, 278784, Note_on_c, 3, 65, 64
5, 279088, Note_on_c, 3, 65, 0
5, 279168, Note_on_c, 3, 65, 64
5, 279472, Note_on_c, 3, 65, 0
5, 279936, Note_on_c, 3, 65, 64
5, 280240, Note_on_c, 3, 65, 0
5, 280320, Note_on_c, 3, 65, 64
5, 280624, Note_on_c, 3, 65, 0
5, 280704, Note_on_c, 3, 65, 64
5, 281008, Note_on_c, 3, 65, 0
5, 281088, Note_on_c, 3, 64, 64
5, 281392, Note_on_c, 3, 64, 0
5, 281472, Note_on_c, 3, 69, 120
5, 281568, Note_on_c, 3, 69, 0
5, 281568, Note_on_c, 3, 69, 120
5, 281664, Note_on_c, 3, 69, 0
5, 281664, Note_on_c, 3, 69, 120
5, 281760, Note_on_c, 3, 69, 0
5, 281760, Note_on_c, 3, 69, 120
5, 281856, Note_on_c, 3, 69, 0
5, 281856, Note_on_c, 3, 70, 120
5, 281952, Note_on_c, 3, 70, 0
5, 281952, Note_on_c, 3, 70, 120
5, 282048, Note_on_c, 3, 70, 0
5, 282048, Note_on_c, 3, 70, 120
5, 282144, Note_on_c, 3, 70, 0
5, 282144, Note_on_c, 3, 70, 120
5, 282240, Note_on_c, 3, 70, 0
5, 282240, Note_on_c, 3, 68, 120
5, 282336, Note_on_c, 3, 68, 0
5, 282336, Note_on_c, 3, 68, 120
5, 282432, Note_on_c, 3, 68, 0
5, 282432, Note_on_c, 3, 68, 120
5, 282528, Note_on_c, 3, 68, 0
5, 282528, Note_on_c, 3, 68, 120
5, 282624, Note_on_c, 3, 68, 0
5, 282624, Note_on_c, 3, 69, 120
5, 282720, Note_on_c, 3, 69, 0
5, 282720, Note_on_c, 3, 69, 119
5, 282816, Note_on_c, 3, 69, 0
5, 282816, Note_on_c, 3, 69, 117
5, 282912, Note_on_c, 3, 69, 0
5, 282912, Note_on_c, 3, 69, 116
5, 283008, Note_on_c, 3, 69, 0
5, 283008, Note_on_c, 3, 67, 115
5, 283104, Note_on_c, 3, 67, 0
5, 283104, Note_on_c, 3, 67, 114
5, 283200, Note_on_c, 3, 67, 0
5, 283200, Note_on_c, 3, 67, 112
5, 283296, Note_on_c, 3, 67, 0
5, 283296, Note_on_c, 3, 67, 111
5, 283392, Note_on_c, 3, 67, 0
5, 283392, Note_on_c, 3, 65, 110
5, 283488, Note_on_c, 3, 65, 0
5, 283488, Note_on_c, 3, 65, 109
5, 283584, Note_on_c, 3, 65, 0
5, 283584, Note_on_c, 3, 65, 107
5, 283680, Note_on_c, 3, 65, 0
5, 283680, Note_on_c, 3, 65, 106
5, 283776, Note_on_c, 3, 65, 0
5, 283776, Note_on_c, 3, 64, 105
5, 283872, Note_on_c, 3, 64, 0
5, 283872, Note_on_c, 3, 64, 104
5, 283968, Note_on_c, 3, 64, 0
5, 283968, Note_on_c, 3, 64, 102
5, 284064, Note_on_c, 3, 64, 0
5, 284064, Note_on_c, 3, 64, 101
5, 284160, Note_on_c, 3, 64, 0
5, 284160, Note_on_c, 3, 62, 100
5, 284464, Note_on_c, 3, 62, 0
5, 284544, Note_on_c, 3, 69, 64
5, 284848, Note_on_c, 3, 69, 0
5, 284928, Note_on_c, 3, 69, 64
5, 285232, Note_on_c, 3, 69, 0
5, 285312, Note_on_c, 3, 69, 64
5, 285616, Note_on_c, 3, 69, 0
5, 286080, Note_on_c, 3, 72, 64
5, 286384, Note_on_c, 3, 72, 0
5, 286464, Note_on_c, 3, 72, 64
5, 286768, Note_on_c, 3, 72, 0
5, 286848, Note_on_c, 3, 72, 64
5, 287152, Note_on_c, 3, 72, 0
5, 287616, Note_on_c, 3, 70, 64
5, 287920, Note_on_c, 3, 70, 0
5, 288000, Note_on_c, 3, 70, 64
5, 288304, Note_on_c, 3, 70, 0
5, 288384, Note_on_c, 3, 70, 64
5, 288688, Note_on_c, 3, 70, 0
5, 289152, Note_on_c, 3, 70, 64
5, 289456, Note_on_c, 3, 70, 0
5, 289536, Note_on_c, 3, 70, 64
5, 289840, Note_on_c, 3, 70, 0
5, 289920, Note_on_c, 3, 70, 64
5, 290224, Note_on_c, 3, 70, 0
5, 290304, Note_on_c, 3, 69, 120
5, 290608, Note_on_c, 3, 69, 0
5, 290688, Note_on_c, 3, 62, 120
5, 290784, Note_on_c, 3, 62, 0
5, 290784, Note_on_c, 3, 62, 120
5, 290880, Note_on_c, 3, 62, 0
5, 290880, Note_on_c, 3, 62, 120
5, 290976, Note_on_c, 3, 62, 0
5, 290976, Note_on_c, 3, 62, 120
5, 291072, Note_on_c, 3, 62, 0
5, 291072, Note_on_c, 3, 63, 120
5, 291168, Note_on_c, 3, 63, 0
5, 291168, Note_on_c, 3, 63, 120
5, 291264, Note_on_c, 3, 63, 0
5, 291264, Note_on_c, 3, 63, 120
5, 291360, Note_on_c, 3, 63, 0
5, 291360, Note_on_c, 3, 63, 120
5, 291456, Note_on_c, 3, 63, 0
5, 291456, Note_on_c, 3, 61, 120
5, 291552, Note_on_c, 3, 61, 0
5, 291552, Note_on_c, 3, 61, 120
5, 291648, Note_on_c, 3, 61, 0
5, 291648, Note_on_c, 3, 61, 120
5, 291744, Note_on_c, 3, 61, 0
5, 291744, Note_on_c, 3, 61, 120
5, 291840, Note_on_c, 3, 61, 0
5, 291840, Note_on_c, 3, 62, 120
5, 291936, Note_on_c, 3, 62, 0
5, 291936, Note_on_c, 3, 62, 120
5, 292032, Note_on_c, 3, 62, 0
5, 292032, Note_on_c, 3, 62, 120
5, 292128, Note_on_c, 3, 62, 0
5, 292128, Note_on_c, 3, 62, 120
5, 292224, Note_on_c, 3, 62, 0
5, 292224, Note_on_c, 3, 60, 120
5, 292320, Note_on_c, 3, 60, 0
5, 292320, Note_on_c, 3, 60, 120
5, 292416, Note_on_c, 3, 60, 0
5, 292416, Note_on_c, 3, 60, 120
5, 292512, Note_on_c, 3, 60, 0
5, 292512, Note_on_c, 3, 60, 120
5, 292608, Note_on_c, 3, 60, 0
5, 292608, Note_on_c, 3, 58, 120
5, 292704, Note_on_c, 3, 58, 0
5, 292704, Note_on_c, 3, 58, 120
5, 292800, Note_on_c, 3, 58, 0
5, 292800, Note_on_c, 3, 58, 120
5, 292896, Note_on_c, 3, 58, 0
5, 292896, Note_on_c, 3, 58, 120
5, 292992, Note_on_c, 3, 58, 0
5, 292992, Note_on_c, 3, 57, 120
5, 293088, Note_on_c, 3, 57, 0
5, 293088, Note_on_c, 3, 57, 120
5, 293184, Note_on_c, 3, 57, 0
5, 293184, Note_on_c, 3, 57, 120
5, 293280, Note_on_c, 3, 57, 0
5, 293280, Note_on_c, 3, 57, 120
5, 293376, Note_on_c, 3, 57, 0
5, 293376, Note_on_c, 3, 55, 120
5, 293528, Note_on_c, 3, 55, 0
5, 293568, Note_on_c, 3, 74, 120
5, 293720, Note_on_c, 3, 74, 0
5, 293760, Note_on_c, 3, 74, 120
5, 293952, Note_on_c, 3, 74, 0
5, 293952, Note_on_c, 3, 75, 120
5, 294144, Note_on_c, 3, 75, 0
5, 294144, Note_on_c, 3, 75, 120
5, 294912, Note_on_c, 3, 75, 0
5, 295104, Note_on_c, 3, 73, 120
5, 295256, Note_on_c, 3, 73, 0
5, 295296, Note_on_c, 3, 73, 120
5, 295488, Note_on_c, 3, 73, 0
5, 295488, Note_on_c, 3, 74, 120
5, 295680, Note_on_c, 3, 74, 0
5, 295680, Note_on_c, 3, 74, 120
5, 296448, Note_on_c, 3, 74, 0
5, 296640, Note_on_c, 3, 71, 120
5, 296792, Note_on_c, 3, 71, 0
5, 296832, Note_on_c, 3, 71, 120
5, 297024, Note_on_c, 3, 71, 0
5, 297024, Note_on_c, 3, 72, 120
5, 297216, Note_on_c, 3, 72, 0
5, 297216, Note_on_c, 3, 72, 120
5, 297984, Note_on_c, 3, 72, 0
5, 298176, Note_on_c, 3, 71, 120
5, 298328, Note_on_c, 3, 71, 0
5, 298368, Note_on_c, 3, 71, 120
5, 298560, Note_on_c, 3, 71, 0
5, 298560, Note_on_c, 3, 72, 120
5, 298752, Note_on_c, 3, 72, 0
5, 298752, Note_on_c, 3, 72, 120
5, 299520, Note_on_c, 3, 72, 0
5, 299712, Note_on_c, 3, 79, 120
5, 299864, Note_on_c, 3, 79, 0
5, 299904, Note_on_c, 3, 79, 120
5, 300096, Note_on_c, 3, 79, 0
5, 300096, Note_on_c, 3, 78, 120
5, 300288, Note_on_c, 3, 78, 0
5, 300288, Note_on_c, 3, 78, 120
5, 301056, Note_on_c, 3, 78, 0
5, 301248, Note_on_c, 3, 79, 120
5, 301400, Note_on_c, 3, 79, 0
5, 301440, Note_on_c, 3, 79, 120
5, 301632, Note_on_c, 3, 79, 0
5, 301632, Note_on_c, 3, 78, 120
5, 301824, Note_on_c, 3, 78, 0
5, 301824, Note_on_c, 3, 78, 120
5, 302592, Note_on_c, 3, 78, 0
5, 305664, Note_on_c, 3, 79, 120
5, 305816, Note_on_c, 3, 79, 0
5, 305856, Note_on_c, 3, 79, 120
5, 306160, Note_on_c, 3, 79, 0
5, 306240, Note_on_c, 3, 79, 120
5, 306544, Note_on_c, 3, 79, 0
5, 306624, Note_on_c, 3, 79, 120
5, 306928, Note_on_c, 3, 79, 0
5, 307008, Note_on_c, 3, 79, 120
5, 307160, Note_on_c, 3, 79, 0
5, 307200, Note_on_c, 3, 74, 120
5, 307352, Note_on_c, 3, 74, 0
5, 307392, Note_on_c, 3, 74, 120
5, 307696, Note_on_c, 3, 74, 0
5, 307776, Note_on_c, 3, 74, 120
5, 308080, Note_on_c, 3, 74, 0
5, 308160, Note_on_c, 3, 74, 120
5, 308464, Note_on_c, 3, 74, 0
5, 308544, Note_on_c, 3, 74, 120
5, 308696, Note_on_c, 3, 74, 0
5, 308736, Note_on_c, 3, 75, 120
5, 308888, Note_on_c, 3, 75, 0
5, 308928, Note_on_c, 3, 75, 120
5, 309232, Note_on_c, 3, 75, 0
5, 309312, Note_on_c, 3, 75, 120
5, 309616, Note_on_c, 3, 75, 0
5, 309696, Note_on_c, 3, 75, 120
5, 310000, Note_on_c, 3, 75, 0
5, 310080, Note_on_c, 3, 75, 120
5, 310232, Note_on_c, 3, 75, 0
5, 310272, Note_on_c, 3, 66, 120
5, 310424, Note_on_c, 3, 66, 0
5, 310464, Note_on_c, 3, 66, 120
5, 310768, Note_on_c, 3, 66, 0
5, 310848, Note_on_c, 3, 66, 120
5, 311152, Note_on_c, 3, 66, 0
5, 311232, Note_on_c, 3, 66, 120
5, 311536, Note_on_c, 3, 66, 0
5, 311616, Note_on_c, 3, 66, 120
5, 311768, Note_on_c, 3, 66, 0
5, 311808, Note_on_c, 3, 67, 120
5, 311960, Note_on_c, 3, 67, 0
5, 312000, Note_on_c, 3, 70, 120
5, 312152, Note_on_c, 3, 70, 0
5, 312192, Note_on_c, 3, 74, 120
5, 312344, Note_on_c, 3, 74, 0
5, 312384, Note_on_c, 3, 79, 120
5, 312536, Note_on_c, 3, 79, 0
5, 312576, Note_on_c, 3, 82, 120
5, 312672, Note_on_c, 3, 82, 0
5, 312672, Note_on_c, 3, 81, 120
5, 312768, Note_on_c, 3, 81, 0
5, 312768, Note_on_c, 3, 79, 120
5, 312864, Note_on_c, 3, 79, 0
5, 312864, Note_on_c, 3, 78, 120
5, 312960, Note_on_c, 3, 78, 0
5, 312960, Note_on_c, 3, 79, 120
5, 313152, Note_on_c, 3, 79, 0
5, 313344, Note_on_c, 3, 67, 120
5, 313496, Note_on_c, 3, 67, 0
5, 313536, Note_on_c, 3, 70, 120
5, 313688, Note_on_c, 3, 70, 0
5, 313728, Note_on_c, 3, 74, 120
5, 313880, Note_on_c, 3, 74, 0
5, 313920, Note_on_c, 3, 79, 120
5, 314072, Note_on_c, 3, 79, 0
5, 314112, Note_on_c, 3, 82, 120
5, 314208, Note_on_c, 3, 82, 0
5, 314208, Note_on_c, 3, 81, 120
5, 314304, Note_on_c, 3, 81, 0
5, 314304, Note_on_c, 3, 79, 120
5, 314400, Note_on_c, 3, 79, 0
5, 314400, Note_on_c, 3, 78, 120
5, 314496, Note_on_c, 3, 78, 0
5, 314496, Note_on_c, 3, 79, 120
5, 314688, Note_on_c, 3, 79, 0
5, 314880, Note_on_c, 3, 69, 120
5, 315032, Note_on_c, 3, 69, 0
5, 315072, Note_on_c, 3, 72, 120
5, 315224, Note_on_c, 3, 72, 0
5, 315264, Note_on_c, 3, 78, 120
5, 315416, Note_on_c, 3, 78, 0
5, 315456, Note_on_c, 3, 81, 120
5, 315608, Note_on_c, 3, 81, 0
5, 315648, Note_on_c, 3, 84, 120
5, 315744, Note_on_c, 3, 84, 0
5, 315744, Note_on_c, 3, 82, 120
5, 315840, Note_on_c, 3, 82, 0
5, 315840, Note_on_c, 3, 81, 120
5, 315936, Note_on_c, 3, 81, 0
5, 315936, Note_on_c, 3, 79, 120
5, 316032, Note_on_c, 3, 79, 0
5, 316032, Note_on_c, 3, 81, 120
5, 316224, Note_on_c, 3, 81, 0
5, 316416, Note_on_c, 3, 69, 120
5, 316568, Note_on_c, 3, 69, 0
5, 316608, Note_on_c, 3, 72, 120
5, 316760, Note_on_c, 3, 72, 0
5, 316800, Note_on_c, 3, 78, 120
5, 316952, Note_on_c, 3, 78, 0
5, 316992, Note_on_c, 3, 81, 120
5, 317144, Note_on_c, 3, 81, 0
5, 317184, Note_on_c, 3, 84, 120
5, 317280, Note_on_c, 3, 84, 0
5, 317280, Note_on_c, 3, 82, 120
5, 317376, Note_on_c, 3, 82, 0
5, 317376, Note_on_c, 3, 81, 120
5, 317472, Note_on_c, 3, 81, 0
5, 317472, Note_on_c, 3, 79, 120
5, 317568, Note_on_c, 3, 79, 0
5, 317568, Note_on_c, 3, 81, 120
5, 317760, Note_on_c, 3, 81, 0
5, 317952, Note_on_c, 3, 70, 120
5, 318104, Note_on_c, 3, 70, 0
5, 318144, Note_on_c, 3, 74, 120
5, 318296, Note_on_c, 3, 74, 0
5, 318336, Note_on_c, 3, 79, 120
5, 318488, Note_on_c, 3, 79, 0
5, 318528, Note_on_c, 3, 82, 120
5, 318680, Note_on_c, 3, 82, 0
5, 318720, Note_on_c, 3, 86, 120
5, 318816, Note_on_c, 3, 86, 0
5, 318816, Note_on_c, 3, 84, 120
5, 318912, Note_on_c, 3, 84, 0
5, 318912, Note_on_c, 3, 82, 120
5, 319008, Note_on_c, 3, 82, 0
5, 319008, Note_on_c, 3, 81, 120
5, 319104, Note_on_c, 3, 81, 0
5, 319104, Note_on_c, 3, 82, 120
5, 319296, Note_on_c, 3, 82, 0
5, 319488, Note_on_c, 3, 82, 120
5, 319584, Note_on_c, 3, 82, 0
5, 319584, Note_on_c, 3, 81, 120
5, 319680, Note_on_c, 3, 81, 0
5, 319680, Note_on_c, 3, 79, 120
5, 319776, Note_on_c, 3, 79, 0
5, 319776, Note_on_c, 3, 78, 120
5, 319872, Note_on_c, 3, 78, 0
5, 319872, Note_on_c, 3, 79, 120
5, 320064, Note_on_c, 3, 79, 0
5, 320256, Note_on_c, 3, 79, 120
5, 320352, Note_on_c, 3, 79, 0
5, 320352, Note_on_c, 3, 77, 120
5, 320448, Note_on_c, 3, 77, 0
5, 320448, Note_on_c, 3, 75, 120
5, 320544, Note_on_c, 3, 75, 0
5, 320544, Note_on_c, 3, 74, 120
5, 320640, Note_on_c, 3, 74, 0
5, 320640, Note_on_c, 3, 75, 120
5, 320736, Note_on_c, 3, 75, 0
5, 320736, Note_on_c, 3, 74, 120
5, 320832, Note_on_c, 3, 74, 0
5, 320832, Note_on_c, 3, 72, 120
5, 320928, Note_on_c, 3, 72, 0
5, 320928, Note_on_c, 3, 70, 120
5, 321024, Note_on_c, 3, 70, 0
5, 321024, Note_on_c, 3, 72, 120
5, 321224, Note_on_c, 3, 72, 0
5, 321312, Note_on_c, 3, 72, 120
5, 321388, Note_on_c, 3, 72, 0
5, 321408, Note_on_c, 3, 70, 120
5, 321608, Note_on_c, 3, 70, 0
5, 321696, Note_on_c, 3, 70, 120
5, 321772, Note_on_c, 3, 70, 0
5, 321792, Note_on_c, 3, 69, 120
5, 321992, Note_on_c, 3, 69, 0
5, 322080, Note_on_c, 3, 69, 120
5, 322156, Note_on_c, 3, 69, 0
5, 322176, Note_on_c, 3, 67, 120
5, 322376, Note_on_c, 3, 67, 0
5, 322464, Note_on_c, 3, 67, 120
5, 322540, Note_on_c, 3, 67, 0
5, 322560, Note_on_c, 3, 66, 120
5, 322752, Note_on_c, 3, 66, 0
5, 322944, Note_on_c, 3, 74, 96
5, 323136, Note_on_c, 3, 74, 0
5, 324096, Note_on_c, 3, 79, 120
5, 324248, Note_on_c, 3, 79, 0
5, 324288, Note_on_c, 3, 79, 120
5, 324592, Note_on_c, 3, 79, 0
5, 324672, Note_on_c, 3, 79, 120
5, 324976, Note_on_c, 3, 79, 0
5, 325056, Note_on_c, 3, 79, 120
5, 325360, Note_on_c, 3, 79, 0
5, 325440, Note_on_c, 3, 79, 120
5, 325592, Note_on_c, 3, 79, 0
5, 325632, Note_on_c, 3, 74, 120
5, 325784, Note_on_c, 3, 74, 0
5, 325824, Note_on_c, 3, 74, 120
5, 326128, Note_on_c, 3, 74, 0
5, 326208, Note_on_c, 3, 74, 120
5, 326512, Note_on_c, 3, 74, 0
5, 326592, Note_on_c, 3, 74, 120
5, 326896, Note_on_c, 3, 74, 0
5, 326976, Note_on_c, 3, 74, 120
5, 327128, Note_on_c, 3, 74, 0
5, 327168, Note_on_c, 3, 75, 120
5, 327320, Note_on_c, 3, 75, 0
5, 327360, Note_on_c, 3, 75, 120
5, 327664, Note_on_c, 3, 75, 0
5, 327744, Note_on_c, 3, 75, 120
5, 328048, Note_on_c, 3, 75, 0
5, 328128, Note_on_c, 3, 75, 120
5, 328432, Note_on_c, 3, 75, 0
5, 328512, Note_on_c, 3, 75, 120
5, 328664, Note_on_c, 3, 75, 0
5, 328704, Note_on_c, 3, 66, 120
5, 328856, Note_on_c, 3, 66, 0
5, 328896, Note_on_c, 3, 66, 120
5, 329200, Note_on_c, 3, 66, 0
5, 329280, Note_on_c, 3, 66, 120
5, 329584, Note_on_c, 3, 66, 0
5, 329664, Note_on_c, 3, 66, 120
5, 329968, Note_on_c, 3, 66, 0
5, 330048, Note_on_c, 3, 66, 120
5, 330200, Note_on_c, 3, 66, 0
5, 330240, Note_on_c, 3, 67, 120
5, 330508, Note_on_c, 3, 67, 0
5, 330624, Note_on_c, 3, 62, 64
5, 330928, Note_on_c, 3, 62, 0
5, 331008, Note_on_c, 3, 62, 64
5, 331312, Note_on_c, 3, 62, 0
5, 331392, Note_on_c, 3, 62, 64
5, 331696, Note_on_c, 3, 62, 0
5, 332160, Note_on_c, 3, 62, 64
5, 332464, Note_on_c, 3, 62, 0
5, 332544, Note_on_c, 3, 62, 64
5, 332848, Note_on_c, 3, 62, 0
5, 332928, Note_on_c, 3, 62, 64
5, 333232, Note_on_c, 3, 62, 0
5, 333696, Note_on_c, 3, 63, 64
5, 334000, Note_on_c, 3, 63, 0
5, 334080, Note_on_c, 3, 63, 64
5, 334384, Note_on_c, 3, 63, 0
5, 334464, Note_on_c, 3, 63, 64
5, 334768, Note_on_c, 3, 63, 0
5, 335232, Note_on_c, 3, 60, 64
5, 335536, Note_on_c, 3, 60, 0
5, 335616, Note_on_c, 3, 60, 64
5, 335920, Note_on_c, 3, 60, 0
5, 336000, Note_on_c, 3, 60, 64
5, 336304, Note_on_c, 3, 60, 0
5, 336768, Note_on_c, 3, 58, 64
5, 337072, Note_on_c, 3, 58, 0
5, 337152, Note_on_c, 3, 58, 64
5, 337456, Note_on_c, 3, 58, 0
5, 337536, Note_on_c, 3, 58, 64
5, 337840, Note_on_c, 3, 58, 0
5, 338304, Note_on_c, 3, 62, 64
5, 338608, Note_on_c, 3, 62, 0
5, 338688, Note_on_c, 3, 62, 64
5, 338992, Note_on_c, 3, 62, 0
5, 339072, Note_on_c, 3, 62, 64
5, 339376, Note_on_c, 3, 62, 0
5, 339840, Note_on_c, 3, 67, 64
5, 340144, Note_on_c, 3, 67, 0
5, 340224, Note_on_c, 3, 67, 64
5, 340528, Note_on_c, 3, 67, 0
5, 340608, Note_on_c, 3, 67, 64
5, 340912, Note_on_c, 3, 67, 0
5, 341376, Note_on_c, 3, 70, 64
5, 341680, Note_on_c, 3, 70, 0
5, 341760, Note_on_c, 3, 70, 64
5, 342064, Note_on_c, 3, 70, 0
5, 342144, Note_on_c, 3, 67, 64
5, 342448, Note_on_c, 3, 67, 0
5, 342528, Note_on_c, 3, 66, 80
5, 343104, Note_on_c, 3, 66, 0
5, 343104, Note_on_c, 3, 67, 76
5, 343296, Note_on_c, 3, 67, 0
5, 343296, Note_on_c, 3, 66, 75
5, 343488, Note_on_c, 3, 66, 0
5, 343488, Note_on_c, 3, 67, 74
5, 343680, Note_on_c, 3, 67, 0
5, 343680, Note_on_c, 3, 66, 72
5, 343872, Note_on_c, 3, 66, 0
5, 343872, Note_on_c, 3, 67, 71
5, 344064, Note_on_c, 3, 67, 0
5, 344064, Note_on_c, 3, 66, 70
5, 344640, Note_on_c, 3, 66, 0
5, 344640, Note_on_c, 3, 67, 66
5, 344832, Note_on_c, 3, 67, 0
5, 344832, Note_on_c, 3, 66, 65
5, 345024, Note_on_c, 3, 66, 0
5, 345024, Note_on_c, 3, 67, 64
5, 345216, Note_on_c, 3, 67, 0
5, 345216, Note_on_c, 3, 66, 62
5, 345408, Note_on_c, 3, 66, 0
5, 345408, Note_on_c, 3, 67, 61
5, 345600, Note_on_c, 3, 67, 0
5, 345600, Note_on_c, 3, 66, 60
5, 345904, Note_on_c, 3, 66, 0
5, 346368, Note_on_c, 3, 66, 52
5, 346672, Note_on_c, 3, 66, 0
5, 347136, Note_on_c, 3, 66, 40
5, 347440, Note_on_c, 3, 66, 0
5, 348672, Note_on_c, 3, 67, 127
5, 350052, Note_on_c, 3, 67, 0
5, 350208, Note_on_c, 3, 79, 127
5, 351588, Note_on_c, 3, 79, 0
5, 351744, Note_on_c, 3, 78, 127
5, 351808, Note_on_c, 3, 78, 0
5, 351808, Note_on_c, 3, 75, 127
5, 351872, Note_on_c, 3, 75, 0
5, 351872, Note_on_c, 3, 74, 127
5, 352128, Note_on_c, 3, 74, 0
5, 352128, Note_on_c, 3, 74, 127
5, 352252, Note_on_c, 3, 74, 0
5, 352320, Note_on_c, 3, 74, 127
5, 352444, Note_on_c, 3, 74, 0
5, 352512, Note_on_c, 3, 74, 127
5, 352760, Note_on_c, 3, 74, 0
5, 353280, Note_on_c, 3, 78, 127
5, 353344, Note_on_c, 3, 78, 0
5, 353344, Note_on_c, 3, 75, 127
5, 353408, Note_on_c, 3, 75, 0
5, 353408, Note_on_c, 3, 74, 127
5, 353664, Note_on_c, 3, 74, 0
5, 353664, Note_on_c, 3, 74, 127
5, 353788, Note_on_c, 3, 74, 0
5, 353856, Note_on_c, 3, 74, 127
5, 353980, Note_on_c, 3, 74, 0
5, 354048, Note_on_c, 3, 74, 127
5, 354296, Note_on_c, 3, 74, 0
5, 354816, Note_on_c, 3, 67, 127
5, 356196, Note_on_c, 3, 67, 0
5, 356352, Note_on_c, 3, 79, 127
5, 357732, Note_on_c, 3, 79, 0
5, 357888, Note_on_c, 3, 78, 127
5, 357952, Note_on_c, 3, 78, 0
5, 357952, Note_on_c, 3, 75, 127
5, 358016, Note_on_c, 3, 75, 0
5, 358016, Note_on_c, 3, 74, 127
5, 358272, Note_on_c, 3, 74, 0
5, 358272, Note_on_c, 3, 74, 127
5, 358396, Note_on_c, 3, 74, 0
5, 358464, Note_on_c, 3, 74, 127
5, 358588, Note_on_c, 3, 74, 0
5, 358656, Note_on_c, 3, 74, 127
5, 358904, Note_on_c, 3, 74, 0
5, 359424, Note_on_c, 3, 78, 127
5, 359488, Note_on_c, 3, 78, 0
5, 359488, Note_on_c, 3, 75, 127
5, 359552, Note_on_c, 3, 75, 0
5, 359552, Note_on_c, 3, 74, 127
5, 359808, Note_on_c, 3, 74, 0
5, 359808, Note_on_c, 3, 74, 127
5, 359932, Note_on_c, 3, 74, 0
5, 360000, Note_on_c, 3, 74, 127
5, 360124, Note_on_c, 3, 74, 0
5, 360192, Note_on_c, 3, 74, 127
5, 360440, Note_on_c, 3, 74, 0
5, 360960, Note_on_c, 3, 67, 120
5, 361056, Note_on_c, 3, 67, 0
5, 361056, Note_on_c, 3, 67, 120
5, 361152, Note_on_c, 3, 67, 0
5, 361152, Note_on_c, 3, 67, 120
5, 361248, Note_on_c, 3, 67, 0
5, 361248, Note_on_c, 3, 67, 120
5, 361344, Note_on_c, 3, 67, 0
5, 361344, Note_on_c, 3, 70, 120
5, 361440, Note_on_c, 3, 70, 0
5, 361440, Note_on_c, 3, 70, 120
5, 361536, Note_on_c, 3, 70, 0
5, 361536, Note_on_c, 3, 70, 120
5, 361632, Note_on_c, 3, 70, 0
5, 361632, Note_on_c, 3, 70, 120
5, 361728, Note_on_c, 3, 70, 0
5, 361728, Note_on_c, 3, 74, 120
5, 361824, Note_on_c, 3, 74, 0
5, 361824, Note_on_c, 3, 74, 120
5, 361920, Note_on_c, 3, 74, 0
5, 361920, Note_on_c, 3, 74, 120
5, 362016, Note_on_c, 3, 74, 0
5, 362016, Note_on_c, 3, 74, 120
5, 362112, Note_on_c, 3, 74, 0
5, 362112, Note_on_c, 3, 79, 120
5, 362208, Note_on_c, 3, 79, 0
5, 362208, Note_on_c, 3, 79, 120
5, 362304, Note_on_c, 3, 79, 0
5, 362304, Note_on_c, 3, 79, 120
5, 362400, Note_on_c, 3, 79, 0
5, 362400, Note_on_c, 3, 79, 120
5, 362496, Note_on_c, 3, 79, 0
5, 362496, Note_on_c, 3, 82, 120
5, 362592, Note_on_c, 3, 82, 0
5, 362592, Note_on_c, 3, 82, 120
5, 362688, Note_on_c, 3, 82, 0
5, 362688, Note_on_c, 3, 82, 120
5, 362688, Note_on_c, 3, 82, 120
5, 362784, Note_on_c, 3, 82, 0
5, 362784, Note_on_c, 3, 82, 0
5, 362784, Note_on_c, 3, 82, 120
5, 362880, Note_on_c, 3, 82, 0
5, 362880, Note_on_c, 3, 79, 120
5, 362976, Note_on_c, 3, 79, 0
5, 362976, Note_on_c, 3, 79, 120
5, 363072, Note_on_c, 3, 79, 0
5, 363072, Note_on_c, 3, 79, 120
5, 363168, Note_on_c, 3, 79, 0
5, 363168, Note_on_c, 3, 79, 120
5, 363264, Note_on_c, 3, 79, 0
5, 363264, Note_on_c, 3, 74, 120
5, 363360, Note_on_c, 3, 74, 0
5, 363360, Note_on_c, 3, 74, 120
5, 363456, Note_on_c, 3, 74, 0
5, 363456, Note_on_c, 3, 74, 120
5, 363552, Note_on_c, 3, 74, 0
5, 363552, Note_on_c, 3, 74, 120
5, 363648, Note_on_c, 3, 74, 0
5, 363648, Note_on_c, 3, 70, 120
5, 363744, Note_on_c, 3, 70, 0
5, 363744, Note_on_c, 3, 70, 120
5, 363840, Note_on_c, 3, 70, 0
5, 363840, Note_on_c, 3, 70, 120
5, 363936, Note_on_c, 3, 70, 0
5, 363936, Note_on_c, 3, 70, 120
5, 364032, Note_on_c, 3, 70, 0
5, 364032, Note_on_c, 3, 75, 120
5, 364184, Note_on_c, 3, 75, 0
5, 364224, Note_on_c, 3, 75, 120
5, 364528, Note_on_c, 3, 75, 0
5, 364608, Note_on_c, 3, 75, 120
5, 364912, Note_on_c, 3, 75, 0
5, 364992, Note_on_c, 3, 75, 120
5, 365296, Note_on_c, 3, 75, 0
5, 365376, Note_on_c, 3, 75, 120
5, 365720, Note_on_c, 3, 75, 0
5, 365760, Note_on_c, 3, 75, 120
5, 366064, Note_on_c, 3, 75, 0
5, 366144, Note_on_c, 3, 75, 120
5, 366448, Note_on_c, 3, 75, 0
5, 366528, Note_on_c, 3, 75, 120
5, 366832, Note_on_c, 3, 75, 0
5, 366912, Note_on_c, 3, 75, 120
5, 367064, Note_on_c, 3, 75, 0
5, 367104, Note_on_c, 3, 65, 120
5, 367200, Note_on_c, 3, 65, 0
5, 367200, Note_on_c, 3, 65, 120
5, 367296, Note_on_c, 3, 65, 0
5, 367296, Note_on_c, 3, 65, 120
5, 367392, Note_on_c, 3, 65, 0
5, 367392, Note_on_c, 3, 65, 120
5, 367488, Note_on_c, 3, 65, 0
5, 367488, Note_on_c, 3, 69, 120
5, 367584, Note_on_c, 3, 69, 0
5, 367584, Note_on_c, 3, 69, 120
5, 367680, Note_on_c, 3, 69, 0
5, 367680, Note_on_c, 3, 69, 120
5, 367776, Note_on_c, 3, 69, 0
5, 367776, Note_on_c, 3, 69, 120
5, 367872, Note_on_c, 3, 69, 0
5, 367872, Note_on_c, 3, 72, 120
5, 367968, Note_on_c, 3, 72, 0
5, 367968, Note_on_c, 3, 72, 120
5, 368064, Note_on_c, 3, 72, 0
5, 368064, Note_on_c, 3, 72, 120
5, 368160, Note_on_c, 3, 72, 0
5, 368160, Note_on_c, 3, 72, 120
5, 368256, Note_on_c, 3, 72, 0
5, 368256, Note_on_c, 3, 77, 120
5, 368352, Note_on_c, 3, 77, 0
5, 368352, Note_on_c, 3, 77, 120
5, 368448, Note_on_c, 3, 77, 0
5, 368448, Note_on_c, 3, 77, 120
5, 368544, Note_on_c, 3, 77, 0
5, 368544, Note_on_c, 3, 77, 120
5, 368640, Note_on_c, 3, 77, 0
5, 368640, Note_on_c, 3, 81, 120
5, 368736, Note_on_c, 3, 81, 0
5, 368736, Note_on_c, 3, 81, 120
5, 368832, Note_on_c, 3, 81, 0
5, 368832, Note_on_c, 3, 81, 120
5, 368928, Note_on_c, 3, 81, 0
5, 368928, Note_on_c, 3, 81, 120
5, 369024, Note_on_c, 3, 81, 0
5, 369024, Note_on_c, 3, 77, 120
5, 369120, Note_on_c, 3, 77, 0
5, 369120, Note_on_c, 3, 77, 120
5, 369216, Note_on_c, 3, 77, 0
5, 369216, Note_on_c, 3, 77, 120
5, 369312, Note_on_c, 3, 77, 0
5, 369312, Note_on_c, 3, 77, 120
5, 369408, Note_on_c, 3, 77, 0
5, 369408, Note_on_c, 3, 72, 120
5, 369504, Note_on_c, 3, 72, 0
5, 369504, Note_on_c, 3, 72, 120
5, 369600, Note_on_c, 3, 72, 0
5, 369600, Note_on_c, 3, 72, 120
5, 369696, Note_on_c, 3, 72, 0
5, 369696, Note_on_c, 3, 72, 120
5, 369792, Note_on_c, 3, 72, 0
5, 369792, Note_on_c, 3, 69, 120
5, 369888, Note_on_c, 3, 69, 0
5, 369888, Note_on_c, 3, 69, 120
5, 369984, Note_on_c, 3, 69, 0
5, 369984, Note_on_c, 3, 69, 120
5, 370080, Note_on_c, 3, 69, 0
5, 370080, Note_on_c, 3, 69, 120
5, 370176, Note_on_c, 3, 69, 0
5, 370176, Note_on_c, 3, 74, 120
5, 370328, Note_on_c, 3, 74, 0
5, 370368, Note_on_c, 3, 74, 120
5, 370672, Note_on_c, 3, 74, 0
5, 370752, Note_on_c, 3, 74, 120
5, 371056, Note_on_c, 3, 74, 0
5, 371136, Note_on_c, 3, 74, 120
5, 371440, Note_on_c, 3, 74, 0
5, 371520, Note_on_c, 3, 74, 120
5, 371864, Note_on_c, 3, 74, 0
5, 371904, Note_on_c, 3, 74, 120
5, 372208, Note_on_c, 3, 74, 0
5, 372288, Note_on_c, 3, 74, 120
5, 372592, Note_on_c, 3, 74, 0
5, 372672, Note_on_c, 3, 74, 120
5, 372976, Note_on_c, 3, 74, 0
5, 373056, Note_on_c, 3, 74, 120
5, 373208, Note_on_c, 3, 74, 0
5, 373248, Note_on_c, 3, 63, 120
5, 373344, Note_on_c, 3, 63, 0
5, 373344, Note_on_c, 3, 63, 120
5, 373440, Note_on_c, 3, 63, 0
5, 373440, Note_on_c, 3, 63, 120
5, 373536, Note_on_c, 3, 63, 0
5, 373536, Note_on_c, 3, 63, 120
5, 373632, Note_on_c, 3, 63, 0
5, 373632, Note_on_c, 3, 67, 120
5, 373728, Note_on_c, 3, 67, 0
5, 373728, Note_on_c, 3, 67, 120
5, 373824, Note_on_c, 3, 67, 0
5, 373824, Note_on_c, 3, 67, 120
5, 373920, Note_on_c, 3, 67, 0
5, 373920, Note_on_c, 3, 67, 120
5, 374016, Note_on_c, 3, 67, 0
5, 374016, Note_on_c, 3, 70, 120
5, 374112, Note_on_c, 3, 70, 0
5, 374112, Note_on_c, 3, 70, 120
5, 374208, Note_on_c, 3, 70, 0
5, 374208, Note_on_c, 3, 70, 120
5, 374304, Note_on_c, 3, 70, 0
5, 374304, Note_on_c, 3, 70, 120
5, 374400, Note_on_c, 3, 70, 0
5, 374400, Note_on_c, 3, 75, 120
5, 374496, Note_on_c, 3, 75, 0
5, 374496, Note_on_c, 3, 75, 120
5, 374592, Note_on_c, 3, 75, 0
5, 374592, Note_on_c, 3, 75, 120
5, 374688, Note_on_c, 3, 75, 0
5, 374688, Note_on_c, 3, 75, 120
5, 374784, Note_on_c, 3, 75, 0
5, 374784, Note_on_c, 3, 79, 120
5, 374880, Note_on_c, 3, 79, 0
5, 374880, Note_on_c, 3, 79, 120
5, 374976, Note_on_c, 3, 79, 0
5, 374976, Note_on_c, 3, 79, 120
5, 375072, Note_on_c, 3, 79, 0
5, 375072, Note_on_c, 3, 79, 120
5, 375168, Note_on_c, 3, 79, 0
5, 375168, Note_on_c, 3, 75, 120
5, 375264, Note_on_c, 3, 75, 0
5, 375264, Note_on_c, 3, 75, 120
5, 375360, Note_on_c, 3, 75, 0
5, 375360, Note_on_c, 3, 75, 120
5, 375456, Note_on_c, 3, 75, 0
5, 375456, Note_on_c, 3, 75, 120
5, 375552, Note_on_c, 3, 75, 0
5, 375552, Note_on_c, 3, 70, 120
5, 375648, Note_on_c, 3, 70, 0
5, 375648, Note_on_c, 3, 70, 120
5, 375744, Note_on_c, 3, 70, 0
5, 375744, Note_on_c, 3, 70, 120
5, 375840, Note_on_c, 3, 70, 0
5, 375840, Note_on_c, 3, 70, 120
5, 375936, Note_on_c, 3, 70, 0
5, 375936, Note_on_c, 3, 67, 120
5, 376032, Note_on_c, 3, 67, 0
5, 376032, Note_on_c, 3, 67, 120
5, 376128, Note_on_c, 3, 67, 0
5, 376128, Note_on_c, 3, 67, 120
5, 376224, Note_on_c, 3, 67, 0
5, 376224, Note_on_c, 3, 67, 120
5, 376320, Note_on_c, 3, 67, 0
5, 376320, Note_on_c, 3, 72, 120
5, 376472, Note_on_c, 3, 72, 0
5, 376512, Note_on_c, 3, 72, 120
5, 376816, Note_on_c, 3, 72, 0
5, 376896, Note_on_c, 3, 72, 120
5, 377200, Note_on_c, 3, 72, 0
5, 377280, Note_on_c, 3, 72, 120
5, 377584, Note_on_c, 3, 72, 0
5, 377664, Note_on_c, 3, 72, 120
5, 378008, Note_on_c, 3, 72, 0
5, 378048, Note_on_c, 3, 72, 120
5, 378352, Note_on_c, 3, 72, 0
5, 378432, Note_on_c, 3, 72, 120
5, 378736, Note_on_c, 3, 72, 0
5, 378816, Note_on_c, 3, 72, 120
5, 379120, Note_on_c, 3, 72, 0
5, 379200, Note_on_c, 3, 72, 120
5, 379352, Note_on_c, 3, 72, 0
5, 379392, Note_on_c, 3, 84, 120
5, 379488, Note_on_c, 3, 84, 0
5, 379488, Note_on_c, 3, 84, 120
5, 379584, Note_on_c, 3, 84, 0
5, 379584, Note_on_c, 3, 84, 120
5, 379680, Note_on_c, 3, 84, 0
5, 379680, Note_on_c, 3, 84, 120
5, 379776, Note_on_c, 3, 84, 0
5, 379776, Note_on_c, 3, 81, 120
5, 379872, Note_on_c, 3, 81, 0
5, 379872, Note_on_c, 3, 81, 120
5, 379968, Note_on_c, 3, 81, 0
5, 379968, Note_on_c, 3, 81, 120
5, 380064, Note_on_c, 3, 81, 0
5, 380064, Note_on_c, 3, 81, 120
5, 380160, Note_on_c, 3, 81, 0
5, 380160, Note_on_c, 3, 78, 120
5, 380256, Note_on_c, 3, 78, 0
5, 380256, Note_on_c, 3, 78, 120
5, 380352, Note_on_c, 3, 78, 0
5, 380352, Note_on_c, 3, 78, 120
5, 380448, Note_on_c, 3, 78, 0
5, 380448, Note_on_c, 3, 78, 120
5, 380544, Note_on_c, 3, 78, 0
5, 380544, Note_on_c, 3, 74, 120
5, 380640, Note_on_c, 3, 74, 0
5, 380640, Note_on_c, 3, 74, 120
5, 380736, Note_on_c, 3, 74, 0
5, 380736, Note_on_c, 3, 74, 120
5, 380832, Note_on_c, 3, 74, 0
5, 380832, Note_on_c, 3, 74, 120
5, 380928, Note_on_c, 3, 74, 0
5, 380928, Note_on_c, 3, 72, 120
5, 381024, Note_on_c, 3, 72, 0
5, 381024, Note_on_c, 3, 72, 120
5, 381120, Note_on_c, 3, 72, 0
5, 381120, Note_on_c, 3, 72, 120
5, 381216, Note_on_c, 3, 72, 0
5, 381216, Note_on_c, 3, 72, 120
5, 381312, Note_on_c, 3, 72, 0
5, 381312, Note_on_c, 3, 69, 120
5, 381408, Note_on_c, 3, 69, 0
5, 381408, Note_on_c, 3, 69, 120
5, 381504, Note_on_c, 3, 69, 0
5, 381504, Note_on_c, 3, 69, 120
5, 381600, Note_on_c, 3, 69, 0
5, 381600, Note_on_c, 3, 69, 120
5, 381696, Note_on_c, 3, 69, 0
5, 381696, Note_on_c, 3, 66, 120
5, 381792, Note_on_c, 3, 66, 0
5, 381792, Note_on_c, 3, 66, 120
5, 381888, Note_on_c, 3, 66, 0
5, 381888, Note_on_c, 3, 66, 120
5, 381984, Note_on_c, 3, 66, 0
5, 381984, Note_on_c, 3, 66, 120
5, 382080, Note_on_c, 3, 66, 0
5, 382080, Note_on_c, 3, 62, 120
5, 382176, Note_on_c, 3, 62, 0
5, 382176, Note_on_c, 3, 62, 120
5, 382272, Note_on_c, 3, 62, 0
5, 382272, Note_on_c, 3, 62, 120
5, 382368, Note_on_c, 3, 62, 0
5, 382368, Note_on_c, 3, 62, 120
5, 382464, Note_on_c, 3, 62, 0
5, 382464, Note_on_c, 3, 82, 120
5, 382560, Note_on_c, 3, 82, 0
5, 382560, Note_on_c, 3, 82, 120
5, 382656, Note_on_c, 3, 82, 0
5, 382656, Note_on_c, 3, 82, 120
5, 382752, Note_on_c, 3, 82, 0
5, 382752, Note_on_c, 3, 82, 120
5, 382848, Note_on_c, 3, 82, 0
5, 382848, Note_on_c, 3, 79, 120
5, 382944, Note_on_c, 3, 79, 0
5, 382944, Note_on_c, 3, 79, 120
5, 383040, Note_on_c, 3, 79, 0
5, 383040, Note_on_c, 3, 79, 120
5, 383136, Note_on_c, 3, 79, 0
5, 383136, Note_on_c, 3, 79, 120
5, 383232, Note_on_c, 3, 79, 0
5, 383232, Note_on_c, 3, 74, 120
5, 383328, Note_on_c, 3, 74, 0
5, 383328, Note_on_c, 3, 74, 120
5, 383424, Note_on_c, 3, 74, 0
5, 383424, Note_on_c, 3, 74, 120
5, 383520, Note_on_c, 3, 74, 0
5, 383520, Note_on_c, 3, 74, 120
5, 383616, Note_on_c, 3, 74, 0
5, 383616, Note_on_c, 3, 70, 120
5, 383712, Note_on_c, 3, 70, 0
5, 383712, Note_on_c, 3, 70, 120
5, 383808, Note_on_c, 3, 70, 0
5, 383808, Note_on_c, 3, 70, 120
5, 383904, Note_on_c, 3, 70, 0
5, 383904, Note_on_c, 3, 70, 120
5, 384000, Note_on_c, 3, 70, 0
5, 384000, Note_on_c, 3, 67, 120
5, 384096, Note_on_c, 3, 67, 0
5, 384096, Note_on_c, 3, 67, 120
5, 384192, Note_on_c, 3, 67, 0
5, 384192, Note_on_c, 3, 67, 120
5, 384288, Note_on_c, 3, 67, 0
5, 384288, Note_on_c, 3, 67, 120
5, 384384, Note_on_c, 3, 67, 0
5, 384384, Note_on_c, 3, 62, 120
5, 384480, Note_on_c, 3, 62, 0
5, 384480, Note_on_c, 3, 62, 120
5, 384576, Note_on_c, 3, 62, 0
5, 384576, Note_on_c, 3, 62, 120
5, 384672, Note_on_c, 3, 62, 0
5, 384672, Note_on_c, 3, 62, 120
5, 384768, Note_on_c, 3, 62, 0
5, 384768, Note_on_c, 3, 58, 120
5, 384864, Note_on_c, 3, 58, 0
5, 384864, Note_on_c, 3, 58, 120
5, 384960, Note_on_c, 3, 58, 0
5, 384960, Note_on_c, 3, 58, 120
5, 385056, Note_on_c, 3, 58, 0
5, 385056, Note_on_c, 3, 58, 120
5, 385152, Note_on_c, 3, 58, 0
5, 385152, Note_on_c, 3, 55, 120
5, 385248, Note_on_c, 3, 55, 0
5, 385248, Note_on_c, 3, 55, 120
5, 385344, Note_on_c, 3, 55, 0
5, 385344, Note_on_c, 3, 55, 120
5, 385440, Note_on_c, 3, 55, 0
5, 385440, Note_on_c, 3, 55, 120
5, 385536, Note_on_c, 3, 55, 0
5, 385536, Note_on_c, 3, 80, 120
5, 385632, Note_on_c, 3, 80, 0
5, 385632, Note_on_c, 3, 80, 120
5, 385728, Note_on_c, 3, 80, 0
5, 385728, Note_on_c, 3, 80, 120
5, 385824, Note_on_c, 3, 80, 0
5, 385824, Note_on_c, 3, 80, 120
5, 385920, Note_on_c, 3, 80, 0
5, 385920, Note_on_c, 3, 77, 120
5, 386016, Note_on_c, 3, 77, 0
5, 386016, Note_on_c, 3, 77, 120
5, 386112, Note_on_c, 3, 77, 0
5, 386112, Note_on_c, 3, 77, 120
5, 386208, Note_on_c, 3, 77, 0
5, 386208, Note_on_c, 3, 77, 120
5, 386304, Note_on_c, 3, 77, 0
5, 386304, Note_on_c, 3, 74, 120
5, 386400, Note_on_c, 3, 74, 0
5, 386400, Note_on_c, 3, 74, 120
5, 386496, Note_on_c, 3, 74, 0
5, 386496, Note_on_c, 3, 74, 120
5, 386592, Note_on_c, 3, 74, 0
5, 386592, Note_on_c, 3, 74, 120
5, 386688, Note_on_c, 3, 74, 0
5, 386688, Note_on_c, 3, 71, 120
5, 386784, Note_on_c, 3, 71, 0
5, 386784, Note_on_c, 3, 71, 120
5, 386880, Note_on_c, 3, 71, 0
5, 386880, Note_on_c, 3, 71, 120
5, 386976, Note_on_c, 3, 71, 0
5, 386976, Note_on_c, 3, 71, 120
5, 387072, Note_on_c, 3, 71, 0
5, 387072, Note_on_c, 3, 68, 120
5, 387168, Note_on_c, 3, 68, 0
5, 387168, Note_on_c, 3, 68, 120
5, 387264, Note_on_c, 3, 68, 0
5, 387264, Note_on_c, 3, 68, 120
5, 387360, Note_on_c, 3, 68, 0
5, 387360, Note_on_c, 3, 68, 120
5, 387456, Note_on_c, 3, 68, 0
5, 387456, Note_on_c, 3, 65, 120
5, 387552, Note_on_c, 3, 65, 0
5, 387552, Note_on_c, 3, 65, 120
5, 387648, Note_on_c, 3, 65, 0
5, 387648, Note_on_c, 3, 65, 120
5, 387744, Note_on_c, 3, 65, 0
5, 387744, Note_on_c, 3, 65, 120
5, 387840, Note_on_c, 3, 65, 0
5, 387840, Note_on_c, 3, 62, 120
5, 387936, Note_on_c, 3, 62, 0
5, 387936, Note_on_c, 3, 62, 120
5, 388032, Note_on_c, 3, 62, 0
5, 388032, Note_on_c, 3, 62, 120
5, 388128, Note_on_c, 3, 62, 0
5, 388128, Note_on_c, 3, 62, 120
5, 388224, Note_on_c, 3, 62, 0
5, 388224, Note_on_c, 3, 59, 120
5, 388320, Note_on_c, 3, 59, 0
5, 388320, Note_on_c, 3, 59, 120
5, 388416, Note_on_c, 3, 59, 0
5, 388416, Note_on_c, 3, 59, 120
5, 388512, Note_on_c, 3, 59, 0
5, 388512, Note_on_c, 3, 59, 120
5, 388608, Note_on_c, 3, 59, 0
5, 388608, Note_on_c, 3, 84, 120
5, 388704, Note_on_c, 3, 84, 0
5, 388704, Note_on_c, 3, 84, 120
5, 388800, Note_on_c, 3, 84, 0
5, 388800, Note_on_c, 3, 84, 120
5, 388896, Note_on_c, 3, 84, 0
5, 388896, Note_on_c, 3, 84, 120
5, 388992, Note_on_c, 3, 84, 0
5, 388992, Note_on_c, 3, 79, 120
5, 389088, Note_on_c, 3, 79, 0
5, 389088, Note_on_c, 3, 79, 120
5, 389184, Note_on_c, 3, 79, 0
5, 389184, Note_on_c, 3, 79, 120
5, 389280, Note_on_c, 3, 79, 0
5, 389280, Note_on_c, 3, 79, 120
5, 389376, Note_on_c, 3, 79, 0
5, 389376, Note_on_c, 3, 75, 120
5, 389472, Note_on_c, 3, 75, 0
5, 389472, Note_on_c, 3, 75, 120
5, 389568, Note_on_c, 3, 75, 0
5, 389568, Note_on_c, 3, 75, 120
5, 389664, Note_on_c, 3, 75, 0
5, 389664, Note_on_c, 3, 75, 120
5, 389760, Note_on_c, 3, 75, 0
5, 389760, Note_on_c, 3, 71, 120
5, 389856, Note_on_c, 3, 71, 0
5, 389856, Note_on_c, 3, 71, 120
5, 389952, Note_on_c, 3, 71, 0
5, 389952, Note_on_c, 3, 71, 120
5, 390048, Note_on_c, 3, 71, 0
5, 390048, Note_on_c, 3, 71, 120
5, 390144, Note_on_c, 3, 71, 0
5, 390144, Note_on_c, 3, 72, 120
5, 390240, Note_on_c, 3, 72, 0
5, 390240, Note_on_c, 3, 72, 120
5, 390336, Note_on_c, 3, 72, 0
5, 390336, Note_on_c, 3, 72, 120
5, 390432, Note_on_c, 3, 72, 0
5, 390432, Note_on_c, 3, 72, 120
5, 390528, Note_on_c, 3, 72, 0
5, 390528, Note_on_c, 3, 67, 120
5, 390624, Note_on_c, 3, 67, 0
5, 390624, Note_on_c, 3, 67, 120
5, 390720, Note_on_c, 3, 67, 0
5, 390720, Note_on_c, 3, 67, 120
5, 390816, Note_on_c, 3, 67, 0
5, 390816, Note_on_c, 3, 67, 120
5, 390912, Note_on_c, 3, 67, 0
5, 390912, Note_on_c, 3, 63, 120
5, 391008, Note_on_c, 3, 63, 0
5, 391008, Note_on_c, 3, 63, 120
5, 391104, Note_on_c, 3, 63, 0
5, 391104, Note_on_c, 3, 63, 120
5, 391200, Note_on_c, 3, 63, 0
5, 391200, Note_on_c, 3, 63, 120
5, 391296, Note_on_c, 3, 63, 0
5, 391296, Note_on_c, 3, 60, 120
5, 391392, Note_on_c, 3, 60, 0
5, 391392, Note_on_c, 3, 60, 120
5, 391488, Note_on_c, 3, 60, 0
5, 391488, Note_on_c, 3, 60, 120
5, 391584, Note_on_c, 3, 60, 0
5, 391584, Note_on_c, 3, 60, 120
5, 391680, Note_on_c, 3, 60, 0
5, 391680, Note_on_c, 3, 82, 120
5, 391776, Note_on_c, 3, 82, 0
5, 391776, Note_on_c, 3, 82, 120
5, 391872, Note_on_c, 3, 82, 0
5, 391872, Note_on_c, 3, 82, 120
5, 391968, Note_on_c, 3, 82, 0
5, 391968, Note_on_c, 3, 82, 120
5, 392064, Note_on_c, 3, 82, 0
5, 392064, Note_on_c, 3, 79, 120
5, 392160, Note_on_c, 3, 79, 0
5, 392160, Note_on_c, 3, 79, 120
5, 392256, Note_on_c, 3, 79, 0
5, 392256, Note_on_c, 3, 79, 120
5, 392352, Note_on_c, 3, 79, 0
5, 392352, Note_on_c, 3, 79, 120
5, 392448, Note_on_c, 3, 79, 0
5, 392448, Note_on_c, 3, 76, 120
5, 392544, Note_on_c, 3, 76, 0
5, 392544, Note_on_c, 3, 76, 120
5, 392640, Note_on_c, 3, 76, 0
5, 392640, Note_on_c, 3, 76, 120
5, 392736, Note_on_c, 3, 76, 0
5, 392736, Note_on_c, 3, 76, 120
5, 392832, Note_on_c, 3, 76, 0
5, 392832, Note_on_c, 3, 73, 120
5, 392928, Note_on_c, 3, 73, 0
5, 392928, Note_on_c, 3, 73, 120
5, 393024, Note_on_c, 3, 73, 0
5, 393024, Note_on_c, 3, 73, 120
5, 393120, Note_on_c, 3, 73, 0
5, 393120, Note_on_c, 3, 73, 120
5, 393216, Note_on_c, 3, 73, 0
5, 393216, Note_on_c, 3, 70, 120
5, 393312, Note_on_c, 3, 70, 0
5, 393312, Note_on_c, 3, 70, 120
5, 393408, Note_on_c, 3, 70, 0
5, 393408, Note_on_c, 3, 70, 120
5, 393504, Note_on_c, 3, 70, 0
5, 393504, Note_on_c, 3, 70, 120
5, 393600, Note_on_c, 3, 70, 0
5, 393600, Note_on_c, 3, 67, 120
5, 393696, Note_on_c, 3, 67, 0
5, 393696, Note_on_c, 3, 67, 120
5, 393792, Note_on_c, 3, 67, 0
5, 393792, Note_on_c, 3, 67, 120
5, 393888, Note_on_c, 3, 67, 0
5, 393888, Note_on_c, 3, 67, 120
5, 393984, Note_on_c, 3, 67, 0
5, 393984, Note_on_c, 3, 64, 120
5, 394080, Note_on_c, 3, 64, 0
5, 394080, Note_on_c, 3, 64, 120
5, 394176, Note_on_c, 3, 64, 0
5, 394176, Note_on_c, 3, 64, 120
5, 394272, Note_on_c, 3, 64, 0
5, 394272, Note_on_c, 3, 64, 120
5, 394368, Note_on_c, 3, 64, 0
5, 394368, Note_on_c, 3, 61, 120
5, 394464, Note_on_c, 3, 61, 0
5, 394464, Note_on_c, 3, 61, 120
5, 394560, Note_on_c, 3, 61, 0
5, 394560, Note_on_c, 3, 61, 120
5, 394656, Note_on_c, 3, 61, 0
5, 394656, Note_on_c, 3, 61, 120
5, 394752, Note_on_c, 3, 61, 0
5, 394752, Note_on_c, 3, 62, 120
5, 394848, Note_on_c, 3, 62, 0
5, 394848, Note_on_c, 3, 62, 120
5, 394944, Note_on_c, 3, 62, 0
5, 394944, Note_on_c, 3, 62, 120
5, 395040, Note_on_c, 3, 62, 0
5, 395040, Note_on_c, 3, 62, 120
5, 395136, Note_on_c, 3, 62, 0
5, 395136, Note_on_c, 3, 63, 120
5, 395232, Note_on_c, 3, 63, 0
5, 395232, Note_on_c, 3, 63, 120
5, 395328, Note_on_c, 3, 63, 0
5, 395328, Note_on_c, 3, 63, 120
5, 395424, Note_on_c, 3, 63, 0
5, 395424, Note_on_c, 3, 63, 120
5, 395520, Note_on_c, 3, 63, 0
5, 395520, Note_on_c, 3, 62, 120
5, 395616, Note_on_c, 3, 62, 0
5, 395616, Note_on_c, 3, 62, 120
5, 395712, Note_on_c, 3, 62, 0
5, 395712, Note_on_c, 3, 62, 120
5, 395808, Note_on_c, 3, 62, 0
5, 395808, Note_on_c, 3, 62, 120
5, 395904, Note_on_c, 3, 62, 0
5, 395904, Note_on_c, 3, 61, 120
5, 396000, Note_on_c, 3, 61, 0
5, 396000, Note_on_c, 3, 61, 120
5, 396096, Note_on_c, 3, 61, 0
5, 396096, Note_on_c, 3, 61, 120
5, 396192, Note_on_c, 3, 61, 0
5, 396192, Note_on_c, 3, 61, 120
5, 396288, Note_on_c, 3, 61, 0
5, 396288, Note_on_c, 3, 62, 120
5, 396516, Note_on_c, 3, 62, 0
5, 396672, Note_on_c, 3, 74, 77
5, 396900, Note_on_c, 3, 74, 0
5, 397056, Note_on_c, 3, 62, 77
5, 397284, Note_on_c, 3, 62, 0
5, 397824, Note_on_c, 3, 69, 80
5, 398016, Note_on_c, 3, 69, 0
5, 398016, Note_on_c, 3, 67, 80
5, 398168, Note_on_c, 3, 67, 0
5, 398208, Note_on_c, 3, 66, 80
5, 398360, Note_on_c, 3, 66, 0
5, 398400, Note_on_c, 3, 67, 80
5, 398552, Note_on_c, 3, 67, 0
5, 398592, Note_on_c, 3, 70, 80
5, 398784, Note_on_c, 3, 70, 0
5, 398784, Note_on_c, 3, 69, 80
5, 398936, Note_on_c, 3, 69, 0
5, 398976, Note_on_c, 3, 67, 80
5, 399128, Note_on_c, 3, 67, 0
5, 399168, Note_on_c, 3, 69, 80
5, 399320, Note_on_c, 3, 69, 0
5, 399360, Note_on_c, 3, 72, 80
5, 399552, Note_on_c, 3, 72, 0
5, 399552, Note_on_c, 3, 70, 80
5, 399704, Note_on_c, 3, 70, 0
5, 399744, Note_on_c, 3, 69, 80
5, 399896, Note_on_c, 3, 69, 0
5, 399936, Note_on_c, 3, 70, 80
5, 400088, Note_on_c, 3, 70, 0
5, 400128, Note_on_c, 3, 74, 80
5, 400320, Note_on_c, 3, 74, 0
5, 400320, Note_on_c, 3, 72, 80
5, 400472, Note_on_c, 3, 72, 0
5, 400512, Note_on_c, 3, 70, 80
5, 400664, Note_on_c, 3, 70, 0
5, 400704, Note_on_c, 3, 69, 80
5, 400856, Note_on_c, 3, 69, 0
5, 400896, Note_on_c, 3, 69, 80
5, 401088, Note_on_c, 3, 69, 0
5, 401088, Note_on_c, 3, 67, 80
5, 401240, Note_on_c, 3, 67, 0
5, 401280, Note_on_c, 3, 66, 80
5, 401432, Note_on_c, 3, 66, 0
5, 401472, Note_on_c, 3, 67, 80
5, 401624, Note_on_c, 3, 67, 0
5, 401664, Note_on_c, 3, 70, 80
5, 401856, Note_on_c, 3, 70, 0
5, 401856, Note_on_c, 3, 69, 80
5, 402008, Note_on_c, 3, 69, 0
5, 402048, Note_on_c, 3, 67, 80
5, 402200, Note_on_c, 3, 67, 0
5, 402240, Note_on_c, 3, 69, 80
5, 402392, Note_on_c, 3, 69, 0
5, 402432, Note_on_c, 3, 72, 80
5, 402624, Note_on_c, 3, 72, 0
5, 402624, Note_on_c, 3, 70, 80
5, 402776, Note_on_c, 3, 70, 0
5, 402816, Note_on_c, 3, 69, 80
5, 402968, Note_on_c, 3, 69, 0
5, 403008, Note_on_c, 3, 70, 80
5, 403160, Note_on_c, 3, 70, 0
5, 403200, Note_on_c, 3, 74, 80
5, 403392, Note_on_c, 3, 74, 0
5, 403392, Note_on_c, 3, 72, 80
5, 403544, Note_on_c, 3, 72, 0
5, 403584, Note_on_c, 3, 70, 80
5, 403736, Note_on_c, 3, 70, 0
5, 403776, Note_on_c, 3, 69, 80
5, 403928, Note_on_c, 3, 69, 0
5, 403968, Note_on_c, 3, 67, 80
5, 404160, Note_on_c, 3, 67, 0
5, 404160, Note_on_c, 3, 79, 80
5, 404312, Note_on_c, 3, 79, 0
5, 404352, Note_on_c, 3, 79, 80
5, 404504, Note_on_c, 3, 79, 0
5, 404544, Note_on_c, 3, 79, 80
5, 404696, Note_on_c, 3, 79, 0
5, 404736, Note_on_c, 3, 79, 80
5, 404928, Note_on_c, 3, 79, 0
5, 404928, Note_on_c, 3, 78, 80
5, 405080, Note_on_c, 3, 78, 0
5, 405120, Note_on_c, 3, 75, 80
5, 405272, Note_on_c, 3, 75, 0
5, 405312, Note_on_c, 3, 74, 80
5, 405464, Note_on_c, 3, 74, 0
5, 405504, Note_on_c, 3, 72, 80
5, 405696, Note_on_c, 3, 72, 0
5, 405696, Note_on_c, 3, 75, 80
5, 405848, Note_on_c, 3, 75, 0
5, 405888, Note_on_c, 3, 75, 80
5, 406040, Note_on_c, 3, 75, 0
5, 406080, Note_on_c, 3, 75, 80
5, 406232, Note_on_c, 3, 75, 0
5, 406272, Note_on_c, 3, 75, 80
5, 406464, Note_on_c, 3, 75, 0
5, 406464, Note_on_c, 3, 74, 80
5, 406616, Note_on_c, 3, 74, 0
5, 406656, Note_on_c, 3, 72, 80
5, 406808, Note_on_c, 3, 72, 0
5, 406848, Note_on_c, 3, 70, 80
5, 407000, Note_on_c, 3, 70, 0
5, 407040, Note_on_c, 3, 69, 80
5, 407232, Note_on_c, 3, 69, 0
5, 407232, Note_on_c, 3, 72, 80
5, 407384, Note_on_c, 3, 72, 0
5, 407424, Note_on_c, 3, 72, 80
5, 407576, Note_on_c, 3, 72, 0
5, 407616, Note_on_c, 3, 72, 80
5, 407768, Note_on_c, 3, 72, 0
5, 407808, Note_on_c, 3, 70, 80
5, 408000, Note_on_c, 3, 70, 0
5, 408000, Note_on_c, 3, 74, 80
5, 408152, Note_on_c, 3, 74, 0
5, 408192, Note_on_c, 3, 79, 80
5, 408344, Note_on_c, 3, 79, 0
5, 408384, Note_on_c, 3, 82, 80
5, 408536, Note_on_c, 3, 82, 0
5, 408576, Note_on_c, 3, 82, 80
5, 408768, Note_on_c, 3, 82, 0
5, 408768, Note_on_c, 3, 81, 80
5, 408920, Note_on_c, 3, 81, 0
5, 408960, Note_on_c, 3, 79, 80
5, 409112, Note_on_c, 3, 79, 0
5, 409152, Note_on_c, 3, 78, 80
5, 409304, Note_on_c, 3, 78, 0
5, 409344, Note_on_c, 3, 81, 100
5, 409536, Note_on_c, 3, 81, 0
5, 409536, Note_on_c, 3, 79, 100
5, 409688, Note_on_c, 3, 79, 0
5, 409728, Note_on_c, 3, 78, 100
5, 409880, Note_on_c, 3, 78, 0
5, 409920, Note_on_c, 3, 79, 100
5, 410072, Note_on_c, 3, 79, 0
5, 410112, Note_on_c, 3, 82, 100
5, 410304, Note_on_c, 3, 82, 0
5, 410304, Note_on_c, 3, 81, 100
5, 410456, Note_on_c, 3, 81, 0
5, 410496, Note_on_c, 3, 79, 100
5, 410648, Note_on_c, 3, 79, 0
5, 410688, Note_on_c, 3, 81, 100
5, 410840, Note_on_c, 3, 81, 0
5, 410880, Note_on_c, 3, 84, 100
5, 411072, Note_on_c, 3, 84, 0
5, 411072, Note_on_c, 3, 82, 100
5, 411224, Note_on_c, 3, 82, 0
5, 411264, Note_on_c, 3, 81, 100
5, 411416, Note_on_c, 3, 81, 0
5, 411456, Note_on_c, 3, 82, 100
5, 411608, Note_on_c, 3, 82, 0
5, 411648, Note_on_c, 3, 86, 100
5, 411840, Note_on_c, 3, 86, 0
5, 411840, Note_on_c, 3, 84, 100
5, 411992, Note_on_c, 3, 84, 0
5, 412032, Note_on_c, 3, 82, 100
5, 412184, Note_on_c, 3, 82, 0
5, 412224, Note_on_c, 3, 81, 100
5, 412376, Note_on_c, 3, 81, 0
5, 412416, Note_on_c, 3, 81, 100
5, 412608, Note_on_c, 3, 81, 0
5, 412608, Note_on_c, 3, 79, 100
5, 412760, Note_on_c, 3, 79, 0
5, 412800, Note_on_c, 3, 78, 100
5, 412952, Note_on_c, 3, 78, 0
5, 412992, Note_on_c, 3, 79, 100
5, 413144, Note_on_c, 3, 79, 0
5, 413184, Note_on_c, 3, 82, 100
5, 413376, Note_on_c, 3, 82, 0
5, 413376, Note_on_c, 3, 81, 100
5, 413528, Note_on_c, 3, 81, 0
5, 413568, Note_on_c, 3, 79, 100
5, 413720, Note_on_c, 3, 79, 0
5, 413760, Note_on_c, 3, 81, 100
5, 413912, Note_on_c, 3, 81, 0
5, 413952, Note_on_c, 3, 84, 100
5, 414144, Note_on_c, 3, 84, 0
5, 414144, Note_on_c, 3, 82, 100
5, 414296, Note_on_c, 3, 82, 0
5, 414336, Note_on_c, 3, 81, 100
5, 414488, Note_on_c, 3, 81, 0
5, 414528, Note_on_c, 3, 82, 100
5, 414680, Note_on_c, 3, 82, 0
5, 414720, Note_on_c, 3, 86, 100
5, 414912, Note_on_c, 3, 86, 0
5, 414912, Note_on_c, 3, 84, 103
5, 415064, Note_on_c, 3, 84, 0
5, 415104, Note_on_c, 3, 82, 105
5, 415256, Note_on_c, 3, 82, 0
5, 415296, Note_on_c, 3, 81, 108
5, 415448, Note_on_c, 3, 81, 0
5, 415488, Note_on_c, 3, 79, 110
5, 415680, Note_on_c, 3, 79, 0
5, 415680, Note_on_c, 3, 79, 113
5, 415832, Note_on_c, 3, 79, 0
5, 415872, Note_on_c, 3, 79, 115
5, 416024, Note_on_c, 3, 79, 0
5, 416064, Note_on_c, 3, 79, 118
5, 416216, Note_on_c, 3, 79, 0
5, 416256, Note_on_c, 3, 79, 120
5, 416448, Note_on_c, 3, 79, 0
5, 416448, Note_on_c, 3, 78, 120
5, 416600, Note_on_c, 3, 78, 0
5, 416640, Note_on_c, 3, 75, 120
5, 416792, Note_on_c, 3, 75, 0
5, 416832, Note_on_c, 3, 74, 120
5, 416984, Note_on_c, 3, 74, 0
5, 417024, Note_on_c, 3, 72, 120
5, 417216, Note_on_c, 3, 72, 0
5, 417216, Note_on_c, 3, 75, 120
5, 417368, Note_on_c, 3, 75, 0
5, 417408, Note_on_c, 3, 75, 120
5, 417560, Note_on_c, 3, 75, 0
5, 417600, Note_on_c, 3, 75, 120
5, 417752, Note_on_c, 3, 75, 0
5, 417792, Note_on_c, 3, 75, 120
5, 417984, Note_on_c, 3, 75, 0
5, 417984, Note_on_c, 3, 74, 120
5, 418136, Note_on_c, 3, 74, 0
5, 418176, Note_on_c, 3, 72, 120
5, 418328, Note_on_c, 3, 72, 0
5, 418368, Note_on_c, 3, 70, 120
5, 418520, Note_on_c, 3, 70, 0
5, 418560, Note_on_c, 3, 69, 120
5, 418752, Note_on_c, 3, 69, 0
5, 418752, Note_on_c, 3, 84, 120
5, 418904, Note_on_c, 3, 84, 0
5, 418944, Note_on_c, 3, 84, 120
5, 419096, Note_on_c, 3, 84, 0
5, 419136, Note_on_c, 3, 84, 120
5, 419288, Note_on_c, 3, 84, 0
5, 419328, Note_on_c, 3, 84, 120
5, 419520, Note_on_c, 3, 84, 0
5, 419520, Note_on_c, 3, 82, 120
5, 419672, Note_on_c, 3, 82, 0
5, 419712, Note_on_c, 3, 86, 120
5, 419864, Note_on_c, 3, 86, 0
5, 419904, Note_on_c, 3, 79, 120
5, 420056, Note_on_c, 3, 79, 0
5, 420096, Note_on_c, 3, 82, 120
5, 420288, Note_on_c, 3, 82, 0
5, 420288, Note_on_c, 3, 81, 120
5, 420440, Note_on_c, 3, 81, 0
5, 420480, Note_on_c, 3, 79, 120
5, 420632, Note_on_c, 3, 79, 0
5, 420672, Note_on_c, 3, 78, 120
5, 420824, Note_on_c, 3, 78, 0
5, 420864, Note_on_c, 3, 79, 120
5, 420960, Note_on_c, 3, 79, 0
5, 420960, Note_on_c, 3, 81, 120
5, 421056, Note_on_c, 3, 81, 0
5, 421056, Note_on_c, 3, 82, 120
5, 421152, Note_on_c, 3, 82, 0
5, 421152, Note_on_c, 3, 81, 120
5, 421248, Note_on_c, 3, 81, 0
5, 421248, Note_on_c, 3, 79, 120
5, 421344, Note_on_c, 3, 79, 0
5, 421344, Note_on_c, 3, 81, 120
5, 421440, Note_on_c, 3, 81, 0
5, 421440, Note_on_c, 3, 82, 120
5, 421536, Note_on_c, 3, 82, 0
5, 421536, Note_on_c, 3, 81, 120
5, 421632, Note_on_c, 3, 81, 0
5, 421632, Note_on_c, 3, 79, 120
5, 421936, Note_on_c, 3, 79, 0
5, 422400, Note_on_c, 3, 72, 120
5, 422496, Note_on_c, 3, 72, 0
5, 422496, Note_on_c, 3, 74, 120
5, 422592, Note_on_c, 3, 74, 0
5, 422592, Note_on_c, 3, 75, 120
5, 422688, Note_on_c, 3, 75, 0
5, 422688, Note_on_c, 3, 74, 120
5, 422784, Note_on_c, 3, 74, 0
5, 422784, Note_on_c, 3, 72, 120
5, 422880, Note_on_c, 3, 72, 0
5, 422880, Note_on_c, 3, 74, 120
5, 422976, Note_on_c, 3, 74, 0
5, 422976, Note_on_c, 3, 75, 120
5, 423072, Note_on_c, 3, 75, 0
5, 423072, Note_on_c, 3, 74, 120
5, 423168, Note_on_c, 3, 74, 0
5, 423168, Note_on_c, 3, 72, 120
5, 423472, Note_on_c, 3, 72, 0
5, 423936, Note_on_c, 3, 70, 120
5, 424164, Note_on_c, 3, 70, 0
5, 424320, Note_on_c, 3, 70, 120
5, 424320, Note_on_c, 3, 79, 120
5, 424548, Note_on_c, 3, 79, 0
5, 424548, Note_on_c, 3, 70, 0
5, 424704, Note_on_c, 3, 69, 120
5, 424932, Note_on_c, 3, 69, 0
5, 425088, Note_on_c, 3, 62, 120
5, 425088, Note_on_c, 3, 69, 120
5, 425088, Note_on_c, 3, 78, 120
5, 425316, Note_on_c, 3, 78, 0
5, 425316, Note_on_c, 3, 69, 0
5, 425316, Note_on_c, 3, 62, 0
5, 425472, Note_on_c, 3, 79, 127
5, 425568, Note_on_c, 3, 79, 0
5, 425568, Note_on_c, 3, 79, 127
5, 425664, Note_on_c, 3, 79, 0
5, 425664, Note_on_c, 3, 79, 127
5, 425760, Note_on_c, 3, 79, 0
5, 425760, Note_on_c, 3, 79, 127
5, 425856, Note_on_c, 3, 79, 0
5, 425856, Note_on_c, 3, 74, 127
5, 425952, Note_on_c, 3, 74, 0
5, 425952, Note_on_c, 3, 74, 127
5, 426048, Note_on_c, 3, 74, 0
5, 426048, Note_on_c, 3, 74, 127
5, 426144, Note_on_c, 3, 74, 0
5, 426144, Note_on_c, 3, 74, 127
5, 426240, Note_on_c, 3, 74, 0
5, 426240, Note_on_c, 3, 70, 127
5, 426336, Note_on_c, 3, 70, 0
5, 426336, Note_on_c, 3, 70, 127
5, 426432, Note_on_c, 3, 70, 0
5, 426432, Note_on_c, 3, 70, 127
5, 426528, Note_on_c, 3, 70, 0
5, 426528, Note_on_c, 3, 70, 127
5, 426624, Note_on_c, 3, 70, 0
5, 426624, Note_on_c, 3, 67, 127
5, 426720, Note_on_c, 3, 67, 0
5, 426720, Note_on_c, 3, 67, 127
5, 426816, Note_on_c, 3, 67, 0
5, 426816, Note_on_c, 3, 67, 127
5, 426912, Note_on_c, 3, 67, 0
5, 426912, Note_on_c, 3, 67, 127
5, 427008, Note_on_c, 3, 67, 0
5, 427008, Note_on_c, 3, 66, 127
5, 427104, Note_on_c, 3, 66, 0
5, 427104, Note_on_c, 3, 66, 127
5, 427200, Note_on_c, 3, 66, 0
5, 427200, Note_on_c, 3, 66, 127
5, 427296, Note_on_c, 3, 66, 0
5, 427296, Note_on_c, 3, 66, 127
5, 427392, Note_on_c, 3, 66, 0
5, 427392, Note_on_c, 3, 69, 127
5, 427488, Note_on_c, 3, 69, 0
5, 427488, Note_on_c, 3, 69, 127
5, 427584, Note_on_c, 3, 69, 0
5, 427584, Note_on_c, 3, 69, 127
5, 427680, Note_on_c, 3, 69, 0
5, 427680, Note_on_c, 3, 69, 127
5, 427776, Note_on_c, 3, 69, 0
5, 427776, Note_on_c, 3, 74, 127
5, 427872, Note_on_c, 3, 74, 0
5, 427872, Note_on_c, 3, 74, 127
5, 427968, Note_on_c, 3, 74, 0
5, 427968, Note_on_c, 3, 74, 127
5, 428064, Note_on_c, 3, 74, 0
5, 428064, Note_on_c, 3, 74, 127
5, 428160, Note_on_c, 3, 74, 0
5, 428160, Note_on_c, 3, 78, 127
5, 428256, Note_on_c, 3, 78, 0
5, 428256, Note_on_c, 3, 78, 127
5, 428352, Note_on_c, 3, 78, 0
5, 428352, Note_on_c, 3, 78, 127
5, 428448, Note_on_c, 3, 78, 0
5, 428448, Note_on_c, 3, 78, 127
5, 428544, Note_on_c, 3, 78, 0
5, 428544, Note_on_c, 3, 79, 127
5, 428640, Note_on_c, 3, 79, 0
5, 428640, Note_on_c, 3, 79, 127
5, 428736, Note_on_c, 3, 79, 0
5, 428736, Note_on_c, 3, 79, 127
5, 428832, Note_on_c, 3, 79, 0
5, 428832, Note_on_c, 3, 79, 127
5, 428928, Note_on_c, 3, 79, 0
5, 428928, Note_on_c, 3, 74, 127
5, 429024, Note_on_c, 3, 74, 0
5, 429024, Note_on_c, 3, 74, 127
5, 429120, Note_on_c, 3, 74, 0
5, 429120, Note_on_c, 3, 74, 127
5, 429216, Note_on_c, 3, 74, 0
5, 429216, Note_on_c, 3, 74, 127
5, 429312, Note_on_c, 3, 74, 0
5, 429312, Note_on_c, 3, 70, 127
5, 429408, Note_on_c, 3, 70, 0
5, 429408, Note_on_c, 3, 70, 127
5, 429504, Note_on_c, 3, 70, 0
5, 429504, Note_on_c, 3, 70, 127
5, 429600, Note_on_c, 3, 70, 0
5, 429600, Note_on_c, 3, 70, 127
5, 429696, Note_on_c, 3, 70, 0
5, 429696, Note_on_c, 3, 67, 127
5, 429792, Note_on_c, 3, 67, 0
5, 429792, Note_on_c, 3, 67, 127
5, 429888, Note_on_c, 3, 67, 0
5, 429888, Note_on_c, 3, 67, 127
5, 429984, Note_on_c, 3, 67, 0
5, 429984, Note_on_c, 3, 67, 127
5, 430080, Note_on_c, 3, 67, 0
5, 430080, Note_on_c, 3, 66, 127
5, 430176, Note_on_c, 3, 66, 0
5, 430176, Note_on_c, 3, 66, 127
5, 430272, Note_on_c, 3, 66, 0
5, 430272, Note_on_c, 3, 66, 127
5, 430368, Note_on_c, 3, 66, 0
5, 430368, Note_on_c, 3, 66, 127
5, 430464, Note_on_c, 3, 66, 0
5, 430464, Note_on_c, 3, 69, 127
5, 430560, Note_on_c, 3, 69, 0
5, 430560, Note_on_c, 3, 69, 127
5, 430656, Note_on_c, 3, 69, 0
5, 430656, Note_on_c, 3, 69, 127
5, 430752, Note_on_c, 3, 69, 0
5, 430752, Note_on_c, 3, 69, 127
5, 430848, Note_on_c, 3, 69, 0
5, 430848, Note_on_c, 3, 74, 127
5, 430944, Note_on_c, 3, 74, 0
5, 430944, Note_on_c, 3, 74, 127
5, 431040, Note_on_c, 3, 74, 0
5, 431040, Note_on_c, 3, 74, 127
5, 431136, Note_on_c, 3, 74, 0
5, 431136, Note_on_c, 3, 74, 127
5, 431232, Note_on_c, 3, 74, 0
5, 431232, Note_on_c, 3, 78, 127
5, 431328, Note_on_c, 3, 78, 0
5, 431328, Note_on_c, 3, 78, 127
5, 431424, Note_on_c, 3, 78, 0
5, 431424, Note_on_c, 3, 78, 127
5, 431520, Note_on_c, 3, 78, 0
5, 431520, Note_on_c, 3, 78, 127
5, 431616, Note_on_c, 3, 78, 0
5, 431616, Note_on_c, 3, 79, 120
5, 431712, Note_on_c, 3, 79, 0
5, 431712, Note_on_c, 3, 79, 120
5, 431808, Note_on_c, 3, 79, 0
5, 431808, Note_on_c, 3, 79, 120
5, 431904, Note_on_c, 3, 79, 0
5, 431904, Note_on_c, 3, 79, 120
5, 432000, Note_on_c, 3, 79, 0
5, 432000, Note_on_c, 3, 70, 120
5, 432096, Note_on_c, 3, 70, 0
5, 432096, Note_on_c, 3, 70, 120
5, 432192, Note_on_c, 3, 70, 0
5, 432192, Note_on_c, 3, 70, 120
5, 432288, Note_on_c, 3, 70, 0
5, 432288, Note_on_c, 3, 70, 120
5, 432384, Note_on_c, 3, 70, 0
5, 432384, Note_on_c, 3, 72, 120
5, 432480, Note_on_c, 3, 72, 0
5, 432480, Note_on_c, 3, 72, 120
5, 432576, Note_on_c, 3, 72, 0
5, 432576, Note_on_c, 3, 72, 120
5, 432672, Note_on_c, 3, 72, 0
5, 432672, Note_on_c, 3, 72, 120
5, 432768, Note_on_c, 3, 72, 0
5, 432768, Note_on_c, 3, 74, 120
5, 432864, Note_on_c, 3, 74, 0
5, 432864, Note_on_c, 3, 74, 120
5, 432960, Note_on_c, 3, 74, 0
5, 432960, Note_on_c, 3, 74, 120
5, 433056, Note_on_c, 3, 74, 0
5, 433056, Note_on_c, 3, 74, 120
5, 433152, Note_on_c, 3, 74, 0
5, 433152, Note_on_c, 3, 75, 120
5, 433248, Note_on_c, 3, 75, 0
5, 433248, Note_on_c, 3, 75, 120
5, 433344, Note_on_c, 3, 75, 0
5, 433344, Note_on_c, 3, 75, 120
5, 433440, Note_on_c, 3, 75, 0
5, 433440, Note_on_c, 3, 75, 120
5, 433536, Note_on_c, 3, 75, 0
5, 433536, Note_on_c, 3, 72, 120
5, 433632, Note_on_c, 3, 72, 0
5, 433632, Note_on_c, 3, 72, 120
5, 433728, Note_on_c, 3, 72, 0
5, 433728, Note_on_c, 3, 72, 120
5, 433824, Note_on_c, 3, 72, 0
5, 433824, Note_on_c, 3, 72, 120
5, 433920, Note_on_c, 3, 72, 0
5, 433920, Note_on_c, 3, 69, 120
5, 434016, Note_on_c, 3, 69, 0
5, 434016, Note_on_c, 3, 69, 120
5, 434112, Note_on_c, 3, 69, 0
5, 434112, Note_on_c, 3, 69, 120
5, 434208, Note_on_c, 3, 69, 0
5, 434208, Note_on_c, 3, 69, 120
5, 434304, Note_on_c, 3, 69, 0
5, 434304, Note_on_c, 3, 78, 120
5, 434400, Note_on_c, 3, 78, 0
5, 434400, Note_on_c, 3, 78, 120
5, 434496, Note_on_c, 3, 78, 0
5, 434496, Note_on_c, 3, 78, 120
5, 434592, Note_on_c, 3, 78, 0
5, 434592, Note_on_c, 3, 78, 120
5, 434688, Note_on_c, 3, 78, 0
5, 434688, Note_on_c, 3, 79, 120
5, 434840, Note_on_c, 3, 79, 0
5, 434880, Note_on_c, 3, 79, 120
5, 435184, Note_on_c, 3, 79, 0
5, 435264, Note_on_c, 3, 79, 120
5, 435568, Note_on_c, 3, 79, 0
5, 435648, Note_on_c, 3, 79, 120
5, 435952, Note_on_c, 3, 79, 0
5, 436032, Note_on_c, 3, 79, 120
5, 436224, Note_on_c, 3, 79, 0
5, 436224, Note_on_c, 3, 74, 120
5, 436376, Note_on_c, 3, 74, 0
5, 436416, Note_on_c, 3, 74, 120
5, 436720, Note_on_c, 3, 74, 0
5, 436800, Note_on_c, 3, 74, 120
5, 437104, Note_on_c, 3, 74, 0
5, 437184, Note_on_c, 3, 74, 120
5, 437488, Note_on_c, 3, 74, 0
5, 437568, Note_on_c, 3, 74, 120
5, 437760, Note_on_c, 3, 74, 0
5, 437760, Note_on_c, 3, 75, 120
5, 437912, Note_on_c, 3, 75, 0
5, 437952, Note_on_c, 3, 75, 120
5, 438256, Note_on_c, 3, 75, 0
5, 438336, Note_on_c, 3, 75, 120
5, 438640, Note_on_c, 3, 75, 0
5, 438720, Note_on_c, 3, 75, 120
5, 439024, Note_on_c, 3, 75, 0
5, 439104, Note_on_c, 3, 75, 120
5, 439256, Note_on_c, 3, 75, 0
5, 439296, Note_on_c, 3, 71, 120
5, 439448, Note_on_c, 3, 71, 0
5, 439488, Note_on_c, 3, 71, 120
5, 439792, Note_on_c, 3, 71, 0
5, 439872, Note_on_c, 3, 71, 120
5, 440176, Note_on_c, 3, 71, 0
5, 440256, Note_on_c, 3, 71, 120
5, 440560, Note_on_c, 3, 71, 0
5, 440640, Note_on_c, 3, 71, 120
5, 440792, Note_on_c, 3, 71, 0
5, 440832, Note_on_c, 3, 72, 120
5, 440984, Note_on_c, 3, 72, 0
5, 441024, Note_on_c, 3, 72, 120
5, 441328, Note_on_c, 3, 72, 0
5, 441408, Note_on_c, 3, 72, 120
5, 441712, Note_on_c, 3, 72, 0
5, 441792, Note_on_c, 3, 72, 120
5, 442096, Note_on_c, 3, 72, 0
5, 442176, Note_on_c, 3, 72, 120
5, 442328, Note_on_c, 3, 72, 0
5, 442368, Note_on_c, 3, 77, 115
5, 442368, Note_on_c, 3, 77, 115
5, 442368, Note_on_c, 3, 77, 115
5, 442368, Note_on_c, 3, 77, 115
5, 442520, Note_on_c, 3, 77, 0
5, 442520, Note_on_c, 3, 77, 0
5, 442520, Note_on_c, 3, 77, 0
5, 442520, Note_on_c, 3, 77, 0
5, 442560, Note_on_c, 3, 77, 120
5, 442864, Note_on_c, 3, 77, 0
5, 442944, Note_on_c, 3, 77, 120
5, 443248, Note_on_c, 3, 77, 0
5, 443328, Note_on_c, 3, 77, 120
5, 443632, Note_on_c, 3, 77, 0
5, 443712, Note_on_c, 3, 77, 120
5, 443864, Note_on_c, 3, 77, 0
5, 443904, Note_on_c, 3, 75, 120
5, 444056, Note_on_c, 3, 75, 0
5, 444096, Note_on_c, 3, 75, 120
5, 444400, Note_on_c, 3, 75, 0
5, 444480, Note_on_c, 3, 75, 120
5, 444632, Note_on_c, 3, 75, 0
5, 444672, Note_on_c, 3, 84, 120
5, 444824, Note_on_c, 3, 84, 0
5, 444864, Note_on_c, 3, 84, 120
5, 445168, Note_on_c, 3, 84, 0
5, 445248, Note_on_c, 3, 84, 120
5, 445400, Note_on_c, 3, 84, 0
5, 445440, Note_on_c, 3, 82, 120
5, 445592, Note_on_c, 3, 82, 0
5, 445632, Note_on_c, 3, 82, 120
5, 445936, Note_on_c, 3, 82, 0
5, 446016, Note_on_c, 3, 82, 120
5, 446168, Note_on_c, 3, 82, 0
5, 446208, Note_on_c, 3, 79, 120
5, 446360, Note_on_c, 3, 79, 0
5, 446400, Note_on_c, 3, 79, 120
5, 446704, Note_on_c, 3, 79, 0
5, 446784, Note_on_c, 3, 79, 120
5, 446936, Note_on_c, 3, 79, 0
5, 446976, Note_on_c, 3, 69, 120
5, 447128, Note_on_c, 3, 69, 0
5, 447168, Note_on_c, 3, 69, 120
5, 447472, Note_on_c, 3, 69, 0
5, 447552, Note_on_c, 3, 69, 120
5, 447704, Note_on_c, 3, 69, 0
5, 447744, Note_on_c, 3, 78, 120
5, 447896, Note_on_c, 3, 78, 0
5, 447936, Note_on_c, 3, 78, 120
5, 448240, Note_on_c, 3, 78, 0
5, 448320, Note_on_c, 3, 78, 120
5, 448472, Note_on_c, 3, 78, 0
5, 448512, Note_on_c, 3, 79, 120
5, 448896, Note_on_c, 3, 79, 0
5, 448896, Note_on_c, 3, 55, 120
5, 449040, Note_on_c, 3, 55, 0
5, 449184, Note_on_c, 3, 55, 120
5, 449232, Note_on_c, 3, 55, 0
5, 449280, Note_on_c, 3, 55, 120
5, 449548, Note_on_c, 3, 55, 0
5, 449664, Note_on_c, 3, 55, 120
5, 449932, Note_on_c, 3, 55, 0
5, 450048, Note_on_c, 3, 55, 96
5, 450144, Note_on_c, 3, 55, 0
5, 450144, Note_on_c, 3, 57, 96
5, 450240, Note_on_c, 3, 57, 0
5, 450240, Note_on_c, 3, 58, 96
5, 450336, Note_on_c, 3, 58, 0
5, 450336, Note_on_c, 3, 57, 96
5, 450432, Note_on_c, 3, 57, 0
5, 450432, Note_on_c, 3, 55, 96
5, 450528, Note_on_c, 3, 55, 0
5, 450528, Note_on_c, 3, 57, 96
5, 450624, Note_on_c, 3, 57, 0
5, 450624, Note_on_c, 3, 58, 96
5, 450720, Note_on_c, 3, 58, 0
5, 450720, Note_on_c, 3, 57, 96
5, 450816, Note_on_c, 3, 57, 0
5, 450816, Note_on_c, 3, 55, 96
5, 450912, Note_on_c, 3, 55, 0
5, 450912, Note_on_c, 3, 57, 96
5, 451008, Note_on_c, 3, 57, 0
5, 451008, Note_on_c, 3, 58, 96
5, 451104, Note_on_c, 3, 58, 0
5, 451104, Note_on_c, 3, 57, 96
5, 451200, Note_on_c, 3, 57, 0
5, 451200, Note_on_c, 3, 55, 96
5, 451296, Note_on_c, 3, 55, 0
5, 451296, Note_on_c, 3, 57, 96
5, 451392, Note_on_c, 3, 57, 0
5, 451392, Note_on_c, 3, 58, 96
5, 451488, Note_on_c, 3, 58, 0
5, 451488, Note_on_c, 3, 57, 96
5, 451584, Note_on_c, 3, 57, 0
5, 451584, Note_on_c, 3, 55, 96
5, 451680, Note_on_c, 3, 55, 0
5, 451680, Note_on_c, 3, 57, 96
5, 451776, Note_on_c, 3, 57, 0
5, 451776, Note_on_c, 3, 58, 96
5, 451872, Note_on_c, 3, 58, 0
5, 451872, Note_on_c, 3, 57, 96
5, 451968, Note_on_c, 3, 57, 0
5, 451968, Note_on_c, 3, 55, 96
5, 452064, Note_on_c, 3, 55, 0
5, 452064, Note_on_c, 3, 57, 96
5, 452160, Note_on_c, 3, 57, 0
5, 452160, Note_on_c, 3, 58, 96
5, 452256, Note_on_c, 3, 58, 0
5, 452256, Note_on_c, 3, 57, 96
5, 452352, Note_on_c, 3, 57, 0
5, 452352, Note_on_c, 3, 55, 96
5, 452448, Note_on_c, 3, 55, 0
5, 452448, Note_on_c, 3, 57, 96
5, 452544, Note_on_c, 3, 57, 0
5, 452544, Note_on_c, 3, 58, 96
5, 452640, Note_on_c, 3, 58, 0
5, 452640, Note_on_c, 3, 57, 96
5, 452736, Note_on_c, 3, 57, 0
5, 452736, Note_on_c, 3, 55, 96
5, 452832, Note_on_c, 3, 55, 0
5, 452832, Note_on_c, 3, 57, 96
5, 452928, Note_on_c, 3, 57, 0
5, 452928, Note_on_c, 3, 58, 96
5, 453024, Note_on_c, 3, 58, 0
5, 453024, Note_on_c, 3, 57, 96
5, 453120, Note_on_c, 3, 57, 0
5, 453120, Note_on_c, 3, 55, 96
5, 453216, Note_on_c, 3, 55, 0
5, 453216, Note_on_c, 3, 57, 96
5, 453312, Note_on_c, 3, 57, 0
5, 453312, Note_on_c, 3, 58, 96
5, 453408, Note_on_c, 3, 58, 0
5, 453408, Note_on_c, 3, 57, 96
5, 453504, Note_on_c, 3, 57, 0
5, 453504, Note_on_c, 3, 55, 96
5, 453600, Note_on_c, 3, 55, 0
5, 453600, Note_on_c, 3, 57, 96
5, 453696, Note_on_c, 3, 57, 0
5, 453696, Note_on_c, 3, 58, 96
5, 453792, Note_on_c, 3, 58, 0
5, 453792, Note_on_c, 3, 57, 96
5, 453888, Note_on_c, 3, 57, 0
5, 453888, Note_on_c, 3, 55, 96
5, 453984, Note_on_c, 3, 55, 0
5, 453984, Note_on_c, 3, 57, 96
5, 454080, Note_on_c, 3, 57, 0
5, 454080, Note_on_c, 3, 58, 96
5, 454176, Note_on_c, 3, 58, 0
5, 454176, Note_on_c, 3, 57, 96
5, 454272, Note_on_c, 3, 57, 0
5, 454272, Note_on_c, 3, 55, 96
5, 454368, Note_on_c, 3, 55, 0
5, 454368, Note_on_c, 3, 57, 96
5, 454464, Note_on_c, 3, 57, 0
5, 454464, Note_on_c, 3, 58, 96
5, 454560, Note_on_c, 3, 58, 0
5, 454560, Note_on_c, 3, 57, 96
5, 454656, Note_on_c, 3, 57, 0
5, 454656, Note_on_c, 3, 55, 96
5, 455040, Note_on_c, 3, 55, 0
5, 455040, End_track
6, 0, Start_track
6, 0, MIDI_port, 0
6, 0, Title_t, "Violino II."
6, 0, Control_c, 4, 0, 0
6, 0, Program_c, 4, 48
6, 0, Control_c, 4, 10, 0
6, 0, Control_c, 4, 91, 127
6, 1536, Note_on_c, 4, 79, 120
6, 1688, Note_on_c, 4, 79, 0
6, 1728, Note_on_c, 4, 79, 120
6, 2032, Note_on_c, 4, 79, 0
6, 2112, Note_on_c, 4, 79, 120
6, 2416, Note_on_c, 4, 79, 0
6, 2496, Note_on_c, 4, 79, 120
6, 2800, Note_on_c, 4, 79, 0
6, 2880, Note_on_c, 4, 79, 120
6, 3032, Note_on_c, 4, 79, 0
6, 3072, Note_on_c, 4, 74, 120
6, 3224, Note_on_c, 4, 74, 0
6, 3264, Note_on_c, 4, 74, 120
6, 3568, Note_on_c, 4, 74, 0
6, 3648, Note_on_c, 4, 74, 120
6, 3952, Note_on_c, 4, 74, 0
6, 4032, Note_on_c, 4, 74, 120
6, 4336, Note_on_c, 4, 74, 0
6, 4416, Note_on_c, 4, 74, 120
6, 4568, Note_on_c, 4, 74, 0
6, 4608, Note_on_c, 4, 75, 120
6, 4760, Note_on_c, 4, 75, 0
6, 4800, Note_on_c, 4, 75, 120
6, 5104, Note_on_c, 4, 75, 0
6, 5184, Note_on_c, 4, 75, 120
6, 5488, Note_on_c, 4, 75, 0
6, 5568, Note_on_c, 4, 75, 120
6, 5872, Note_on_c, 4, 75, 0
6, 5952, Note_on_c, 4, 75, 120
6, 6104, Note_on_c, 4, 75, 0
6, 6144, Note_on_c, 4, 66, 120
6, 6296, Note_on_c, 4, 66, 0
6, 6336, Note_on_c, 4, 66, 120
6, 6640, Note_on_c, 4, 66, 0
6, 6720, Note_on_c, 4, 66, 120
6, 7024, Note_on_c, 4, 66, 0
6, 7104, Note_on_c, 4, 66, 120
6, 7408, Note_on_c, 4, 66, 0
6, 7488, Note_on_c, 4, 66, 120
6, 7640, Note_on_c, 4, 66, 0
6, 7680, Note_on_c, 4, 67, 120
6, 7832, Note_on_c, 4, 67, 0
6, 7872, Note_on_c, 4, 70, 120
6, 8024, Note_on_c, 4, 70, 0
6, 8064, Note_on_c, 4, 74, 120
6, 8216, Note_on_c, 4, 74, 0
6, 8256, Note_on_c, 4, 79, 120
6, 8408, Note_on_c, 4, 79, 0
6, 8448, Note_on_c, 4, 82, 120
6, 8544, Note_on_c, 4, 82, 0
6, 8544, Note_on_c, 4, 81, 120
6, 8640, Note_on_c, 4, 81, 0
6, 8640, Note_on_c, 4, 79, 120
6, 8736, Note_on_c, 4, 79, 0
6, 8736, Note_on_c, 4, 78, 120
6, 8832, Note_on_c, 4, 78, 0
6, 8832, Note_on_c, 4, 79, 120
6, 9024, Note_on_c, 4, 79, 0
6, 9216, Note_on_c, 4, 67, 120
6, 9368, Note_on_c, 4, 67, 0
6, 9408, Note_on_c, 4, 70, 120
6, 9560, Note_on_c, 4, 70, 0
6, 9600, Note_on_c, 4, 74, 120
6, 9752, Note_on_c, 4, 74, 0
6, 9792, Note_on_c, 4, 79, 120
6, 9944, Note_on_c, 4, 79, 0
6, 9984, Note_on_c, 4, 82, 120
6, 10080, Note_on_c, 4, 82, 0
6, 10080, Note_on_c, 4, 81, 120
6, 10176, Note_on_c, 4, 81, 0
6, 10176, Note_on_c, 4, 79, 120
6, 10272, Note_on_c, 4, 79, 0
6, 10272, Note_on_c, 4, 78, 120
6, 10368, Note_on_c, 4, 78, 0
6, 10368, Note_on_c, 4, 79, 120
6, 10560, Note_on_c, 4, 79, 0
6, 10752, Note_on_c, 4, 69, 120
6, 10904, Note_on_c, 4, 69, 0
6, 10944, Note_on_c, 4, 72, 120
6, 11096, Note_on_c, 4, 72, 0
6, 11136, Note_on_c, 4, 78, 120
6, 11288, Note_on_c, 4, 78, 0
6, 11328, Note_on_c, 4, 81, 120
6, 11480, Note_on_c, 4, 81, 0
6, 11520, Note_on_c, 4, 84, 120
6, 11616, Note_on_c, 4, 84, 0
6, 11616, Note_on_c, 4, 82, 120
6, 11712, Note_on_c, 4, 82, 0
6, 11712, Note_on_c, 4, 81, 120
6, 11808, Note_on_c, 4, 81, 0
6, 11808, Note_on_c, 4, 79, 120
6, 11904, Note_on_c, 4, 79, 0
6, 11904, Note_on_c, 4, 81, 120
6, 12096, Note_on_c, 4, 81, 0
6, 12288, Note_on_c, 4, 69, 120
6, 12440, Note_on_c, 4, 69, 0
6, 12480, Note_on_c, 4, 72, 120
6, 12632, Note_on_c, 4, 72, 0
6, 12672, Note_on_c, 4, 78, 120
6, 12824, Note_on_c, 4, 78, 0
6, 12864, Note_on_c, 4, 81, 120
6, 13016, Note_on_c, 4, 81, 0
6, 13056, Note_on_c, 4, 84, 120
6, 13152, Note_on_c, 4, 84, 0
6, 13152, Note_on_c, 4, 82, 120
6, 13248, Note_on_c, 4, 82, 0
6, 13248, Note_on_c, 4, 81, 120
6, 13344, Note_on_c, 4, 81, 0
6, 13344, Note_on_c, 4, 79, 120
6, 13440, Note_on_c, 4, 79, 0
6, 13440, Note_on_c, 4, 81, 120
6, 13632, Note_on_c, 4, 81, 0
6, 13824, Note_on_c, 4, 70, 120
6, 13976, Note_on_c, 4, 70, 0
6, 14016, Note_on_c, 4, 74, 120
6, 14168, Note_on_c, 4, 74, 0
6, 14208, Note_on_c, 4, 79, 120
6, 14360, Note_on_c, 4, 79, 0
6, 14400, Note_on_c, 4, 82, 120
6, 14552, Note_on_c, 4, 82, 0
6, 14592, Note_on_c, 4, 86, 120
6, 14688, Note_on_c, 4, 86, 0
6, 14688, Note_on_c, 4, 84, 120
6, 14784, Note_on_c, 4, 84, 0
6, 14784, Note_on_c, 4, 82, 120
6, 14880, Note_on_c, 4, 82, 0
6, 14880, Note_on_c, 4, 81, 120
6, 14976, Note_on_c, 4, 81, 0
6, 14976, Note_on_c, 4, 82, 120
6, 15168, Note_on_c, 4, 82, 0
6, 15360, Note_on_c, 4, 82, 120
6, 15456, Note_on_c, 4, 82, 0
6, 15456, Note_on_c, 4, 81, 120
6, 15552, Note_on_c, 4, 81, 0
6, 15552, Note_on_c, 4, 79, 120
6, 15648, Note_on_c, 4, 79, 0
6, 15648, Note_on_c, 4, 78, 120
6, 15744, Note_on_c, 4, 78, 0
6, 15744, Note_on_c, 4, 79, 120
6, 15936, Note_on_c, 4, 79, 0
6, 16128, Note_on_c, 4, 79, 120
6, 16224, Note_on_c, 4, 79, 0
6, 16224, Note_on_c, 4, 77, 120
6, 16320, Note_on_c, 4, 77, 0
6, 16320, Note_on_c, 4, 75, 120
6, 16416, Note_on_c, 4, 75, 0
6, 16416, Note_on_c, 4, 74, 120
6, 16512, Note_on_c, 4, 74, 0
6, 16512, Note_on_c, 4, 75, 120
6, 16608, Note_on_c, 4, 75, 0
6, 16608, Note_on_c, 4, 74, 120
6, 16704, Note_on_c, 4, 74, 0
6, 16704, Note_on_c, 4, 72, 120
6, 16800, Note_on_c, 4, 72, 0
6, 16800, Note_on_c, 4, 70, 120
6, 16896, Note_on_c, 4, 70, 0
6, 16896, Note_on_c, 4, 72, 120
6, 17096, Note_on_c, 4, 72, 0
6, 17184, Note_on_c, 4, 72, 120
6, 17260, Note_on_c, 4, 72, 0
6, 17280, Note_on_c, 4, 70, 120
6, 17480, Note_on_c, 4, 70, 0
6, 17568, Note_on_c, 4, 70, 120
6, 17644, Note_on_c, 4, 70, 0
6, 17664, Note_on_c, 4, 69, 120
6, 17864, Note_on_c, 4, 69, 0
6, 17952, Note_on_c, 4, 69, 120
6, 18028, Note_on_c, 4, 69, 0
6, 18048, Note_on_c, 4, 67, 120
6, 18248, Note_on_c, 4, 67, 0
6, 18336, Note_on_c, 4, 67, 120
6, 18412, Note_on_c, 4, 67, 0
6, 18432, Note_on_c, 4, 66, 120
6, 18624, Note_on_c, 4, 66, 0
6, 18816, Note_on_c, 4, 74, 96
6, 19008, Note_on_c, 4, 74, 0
6, 19968, Note_on_c, 4, 79, 120
6, 20120, Note_on_c, 4, 79, 0
6, 20160, Note_on_c, 4, 79, 120
6, 20464, Note_on_c, 4, 79, 0
6, 20544, Note_on_c, 4, 79, 120
6, 20848, Note_on_c, 4, 79, 0
6, 20928, Note_on_c, 4, 79, 120
6, 21232, Note_on_c, 4, 79, 0
6, 21312, Note_on_c, 4, 79, 120
6, 21464, Note_on_c, 4, 79, 0
6, 21504, Note_on_c, 4, 74, 120
6, 21656, Note_on_c, 4, 74, 0
6, 21696, Note_on_c, 4, 74, 120
6, 22000, Note_on_c, 4, 74, 0
6, 22080, Note_on_c, 4, 74, 120
6, 22384, Note_on_c, 4, 74, 0
6, 22464, Note_on_c, 4, 74, 120
6, 22768, Note_on_c, 4, 74, 0
6, 22848, Note_on_c, 4, 74, 120
6, 23000, Note_on_c, 4, 74, 0
6, 23040, Note_on_c, 4, 75, 120
6, 23192, Note_on_c, 4, 75, 0
6, 23232, Note_on_c, 4, 75, 120
6, 23536, Note_on_c, 4, 75, 0
6, 23616, Note_on_c, 4, 75, 120
6, 23920, Note_on_c, 4, 75, 0
6, 24000, Note_on_c, 4, 75, 120
6, 24304, Note_on_c, 4, 75, 0
6, 24384, Note_on_c, 4, 75, 120
6, 24536, Note_on_c, 4, 75, 0
6, 24576, Note_on_c, 4, 66, 120
6, 24728, Note_on_c, 4, 66, 0
6, 24768, Note_on_c, 4, 66, 120
6, 25072, Note_on_c, 4, 66, 0
6, 25152, Note_on_c, 4, 66, 120
6, 25456, Note_on_c, 4, 66, 0
6, 25536, Note_on_c, 4, 66, 120
6, 25840, Note_on_c, 4, 66, 0
6, 25920, Note_on_c, 4, 66, 120
6, 26072, Note_on_c, 4, 66, 0
6, 26112, Note_on_c, 4, 67, 120
6, 26380, Note_on_c, 4, 67, 0
6, 26496, Note_on_c, 4, 58, 64
6, 26800, Note_on_c, 4, 58, 0
6, 26880, Note_on_c, 4, 58, 64
6, 27184, Note_on_c, 4, 58, 0
6, 27264, Note_on_c, 4, 58, 64
6, 27568, Note_on_c, 4, 58, 0
6, 28032, Note_on_c, 4, 58, 64
6, 28336, Note_on_c, 4, 58, 0
6, 28416, Note_on_c, 4, 58, 64
6, 28720, Note_on_c, 4, 58, 0
6, 28800, Note_on_c, 4, 58, 64
6, 29104, Note_on_c, 4, 58, 0
6, 29568, Note_on_c, 4, 60, 64
6, 29872, Note_on_c, 4, 60, 0
6, 29952, Note_on_c, 4, 60, 64
6, 30256, Note_on_c, 4, 60, 0
6, 30336, Note_on_c, 4, 60, 64
6, 30640, Note_on_c, 4, 60, 0
6, 31104, Note_on_c, 4, 57, 64
6, 31408, Note_on_c, 4, 57, 0
6, 31488, Note_on_c, 4, 57, 64
6, 31792, Note_on_c, 4, 57, 0
6, 31872, Note_on_c, 4, 57, 64
6, 32176, Note_on_c, 4, 57, 0
6, 32640, Note_on_c, 4, 55, 64
6, 32944, Note_on_c, 4, 55, 0
6, 33024, Note_on_c, 4, 55, 64
6, 33328, Note_on_c, 4, 55, 0
6, 33408, Note_on_c, 4, 55, 64
6, 33712, Note_on_c, 4, 55, 0
6, 34176, Note_on_c, 4, 58, 64
6, 34480, Note_on_c, 4, 58, 0
6, 34560, Note_on_c, 4, 58, 64
6, 34864, Note_on_c, 4, 58, 0
6, 34944, Note_on_c, 4, 58, 64
6, 35248, Note_on_c, 4, 58, 0
6, 35712, Note_on_c, 4, 61, 64
6, 36016, Note_on_c, 4, 61, 0
6, 36096, Note_on_c, 4, 61, 64
6, 36400, Note_on_c, 4, 61, 0
6, 36480, Note_on_c, 4, 61, 64
6, 36784, Note_on_c, 4, 61, 0
6, 37248, Note_on_c, 4, 67, 64
6, 37552, Note_on_c, 4, 67, 0
6, 37632, Note_on_c, 4, 67, 64
6, 37936, Note_on_c, 4, 67, 0
6, 38016, Note_on_c, 4, 55, 64
6, 38320, Note_on_c, 4, 55, 0
6, 38400, Note_on_c, 4, 57, 64
6, 38976, Note_on_c, 4, 57, 0
6, 38976, Note_on_c, 4, 58, 61
6, 39168, Note_on_c, 4, 58, 0
6, 39168, Note_on_c, 4, 57, 60
6, 39360, Note_on_c, 4, 57, 0
6, 39360, Note_on_c, 4, 58, 59
6, 39552, Note_on_c, 4, 58, 0
6, 39552, Note_on_c, 4, 57, 58
6, 39744, Note_on_c, 4, 57, 0
6, 39744, Note_on_c, 4, 58, 57
6, 39936, Note_on_c, 4, 58, 0
6, 39936, Note_on_c, 4, 57, 56
6, 40512, Note_on_c, 4, 57, 0
6, 40512, Note_on_c, 4, 58, 53
6, 40704, Note_on_c, 4, 58, 0
6, 40704, Note_on_c, 4, 57, 52
6, 40896, Note_on_c, 4, 57, 0
6, 40896, Note_on_c, 4, 58, 51
6, 41088, Note_on_c, 4, 58, 0
6, 41088, Note_on_c, 4, 57, 50
6, 41280, Note_on_c, 4, 57, 0
6, 41280, Note_on_c, 4, 58, 49
6, 41472, Note_on_c, 4, 58, 0
6, 41472, Note_on_c, 4, 57, 48
6, 41776, Note_on_c, 4, 57, 0
6, 42240, Note_on_c, 4, 57, 42
6, 42544, Note_on_c, 4, 57, 0
6, 43008, Note_on_c, 4, 57, 32
6, 43312, Note_on_c, 4, 57, 0
6, 44544, Note_on_c, 4, 62, 100
6, 44544, Note_on_c, 4, 65, 100
6, 44640, Note_on_c, 4, 65, 0
6, 44640, Note_on_c, 4, 62, 0
6, 44640, Note_on_c, 4, 62, 100
6, 44640, Note_on_c, 4, 65, 100
6, 44736, Note_on_c, 4, 65, 0
6, 44736, Note_on_c, 4, 62, 0
6, 44736, Note_on_c, 4, 62, 100
6, 44736, Note_on_c, 4, 65, 100
6, 44832, Note_on_c, 4, 65, 0
6, 44832, Note_on_c, 4, 62, 0
6, 44832, Note_on_c, 4, 62, 100
6, 44832, Note_on_c, 4, 65, 100
6, 44928, Note_on_c, 4, 65, 0
6, 44928, Note_on_c, 4, 62, 0
6, 44928, Note_on_c, 4, 62, 100
6, 44928, Note_on_c, 4, 65, 100
6, 45024, Note_on_c, 4, 65, 0
6, 45024, Note_on_c, 4, 62, 0
6, 45024, Note_on_c, 4, 62, 100
6, 45024, Note_on_c, 4, 65, 100
6, 45120, Note_on_c, 4, 65, 0
6, 45120, Note_on_c, 4, 62, 0
6, 45120, Note_on_c, 4, 62, 100
6, 45120, Note_on_c, 4, 65, 100
6, 45216, Note_on_c, 4, 65, 0
6, 45216, Note_on_c, 4, 62, 0
6, 45216, Note_on_c, 4, 62, 100
6, 45216, Note_on_c, 4, 65, 100
6, 45312, Note_on_c, 4, 65, 0
6, 45312, Note_on_c, 4, 62, 0
6, 45312, Note_on_c, 4, 62, 100
6, 45312, Note_on_c, 4, 65, 100
6, 45408, Note_on_c, 4, 65, 0
6, 45408, Note_on_c, 4, 62, 0
6, 45408, Note_on_c, 4, 62, 100
6, 45408, Note_on_c, 4, 65, 100
6, 45504, Note_on_c, 4, 65, 0
6, 45504, Note_on_c, 4, 62, 0
6, 45504, Note_on_c, 4, 62, 100
6, 45504, Note_on_c, 4, 65, 100
6, 45600, Note_on_c, 4, 65, 0
6, 45600, Note_on_c, 4, 62, 0
6, 45600, Note_on_c, 4, 62, 100
6, 45600, Note_on_c, 4, 65, 100
6, 45696, Note_on_c, 4, 65, 0
6, 45696, Note_on_c, 4, 62, 0
6, 45696, Note_on_c, 4, 62, 100
6, 45696, Note_on_c, 4, 65, 100
6, 45792, Note_on_c, 4, 65, 0
6, 45792, Note_on_c, 4, 62, 0
6, 45792, Note_on_c, 4, 62, 100
6, 45792, Note_on_c, 4, 65, 100
6, 45888, Note_on_c, 4, 65, 0
6, 45888, Note_on_c, 4, 62, 0
6, 45888, Note_on_c, 4, 62, 100
6, 45888, Note_on_c, 4, 65, 100
6, 45984, Note_on_c, 4, 65, 0
6, 45984, Note_on_c, 4, 62, 0
6, 45984, Note_on_c, 4, 62, 100
6, 45984, Note_on_c, 4, 65, 100
6, 46080, Note_on_c, 4, 65, 0
6, 46080, Note_on_c, 4, 62, 0
6, 46080, Note_on_c, 4, 65, 100
6, 46080, Note_on_c, 4, 62, 100
6, 46176, Note_on_c, 4, 62, 0
6, 46176, Note_on_c, 4, 65, 0
6, 46176, Note_on_c, 4, 65, 100
6, 46176, Note_on_c, 4, 62, 100
6, 46272, Note_on_c, 4, 62, 0
6, 46272, Note_on_c, 4, 65, 0
6, 46272, Note_on_c, 4, 65, 100
6, 46272, Note_on_c, 4, 62, 100
6, 46368, Note_on_c, 4, 62, 0
6, 46368, Note_on_c, 4, 65, 0
6, 46368, Note_on_c, 4, 65, 100
6, 46368, Note_on_c, 4, 62, 100
6, 46464, Note_on_c, 4, 62, 0
6, 46464, Note_on_c, 4, 65, 0
6, 46464, Note_on_c, 4, 65, 100
6, 46464, Note_on_c, 4, 62, 100
6, 46560, Note_on_c, 4, 62, 0
6, 46560, Note_on_c, 4, 65, 0
6, 46560, Note_on_c, 4, 65, 100
6, 46560, Note_on_c, 4, 62, 100
6, 46656, Note_on_c, 4, 62, 0
6, 46656, Note_on_c, 4, 65, 0
6, 46656, Note_on_c, 4, 65, 100
6, 46656, Note_on_c, 4, 62, 100
6, 46752, Note_on_c, 4, 62, 0
6, 46752, Note_on_c, 4, 65, 0
6, 46752, Note_on_c, 4, 65, 100
6, 46752, Note_on_c, 4, 62, 100
6, 46848, Note_on_c, 4, 62, 0
6, 46848, Note_on_c, 4, 65, 0
6, 46848, Note_on_c, 4, 65, 100
6, 46848, Note_on_c, 4, 62, 100
6, 46944, Note_on_c, 4, 62, 0
6, 46944, Note_on_c, 4, 65, 0
6, 46944, Note_on_c, 4, 65, 100
6, 46944, Note_on_c, 4, 62, 100
6, 47040, Note_on_c, 4, 62, 0
6, 47040, Note_on_c, 4, 65, 0
6, 47040, Note_on_c, 4, 65, 100
6, 47040, Note_on_c, 4, 62, 100
6, 47136, Note_on_c, 4, 62, 0
6, 47136, Note_on_c, 4, 65, 0
6, 47136, Note_on_c, 4, 65, 100
6, 47136, Note_on_c, 4, 62, 100
6, 47232, Note_on_c, 4, 62, 0
6, 47232, Note_on_c, 4, 65, 0
6, 47232, Note_on_c, 4, 65, 100
6, 47232, Note_on_c, 4, 62, 100
6, 47328, Note_on_c, 4, 62, 0
6, 47328, Note_on_c, 4, 65, 0
6, 47328, Note_on_c, 4, 65, 100
6, 47328, Note_on_c, 4, 62, 100
6, 47424, Note_on_c, 4, 62, 0
6, 47424, Note_on_c, 4, 65, 0
6, 47424, Note_on_c, 4, 65, 100
6, 47424, Note_on_c, 4, 62, 100
6, 47520, Note_on_c, 4, 62, 0
6, 47520, Note_on_c, 4, 65, 0
6, 47520, Note_on_c, 4, 65, 100
6, 47520, Note_on_c, 4, 62, 100
6, 47616, Note_on_c, 4, 62, 0
6, 47616, Note_on_c, 4, 65, 0
6, 47616, Note_on_c, 4, 57, 100
6, 47616, Note_on_c, 4, 65, 100
6, 47712, Note_on_c, 4, 65, 0
6, 47712, Note_on_c, 4, 57, 0
6, 47712, Note_on_c, 4, 57, 100
6, 47712, Note_on_c, 4, 65, 100
6, 47808, Note_on_c, 4, 65, 0
6, 47808, Note_on_c, 4, 57, 0
6, 47808, Note_on_c, 4, 57, 100
6, 47808, Note_on_c, 4, 65, 100
6, 47904, Note_on_c, 4, 65, 0
6, 47904, Note_on_c, 4, 57, 0
6, 47904, Note_on_c, 4, 57, 100
6, 47904, Note_on_c, 4, 65, 100
6, 48000, Note_on_c, 4, 65, 0
6, 48000, Note_on_c, 4, 57, 0
6, 48000, Note_on_c, 4, 57, 100
6, 48000, Note_on_c, 4, 65, 100
6, 48096, Note_on_c, 4, 65, 0
6, 48096, Note_on_c, 4, 57, 0
6, 48096, Note_on_c, 4, 57, 100
6, 48096, Note_on_c, 4, 65, 100
6, 48192, Note_on_c, 4, 65, 0
6, 48192, Note_on_c, 4, 57, 0
6, 48192, Note_on_c, 4, 57, 100
6, 48192, Note_on_c, 4, 65, 100
6, 48288, Note_on_c, 4, 65, 0
6, 48288, Note_on_c, 4, 57, 0
6, 48288, Note_on_c, 4, 57, 100
6, 48288, Note_on_c, 4, 65, 100
6, 48384, Note_on_c, 4, 65, 0
6, 48384, Note_on_c, 4, 57, 0
6, 48384, Note_on_c, 4, 57, 100
6, 48384, Note_on_c, 4, 65, 100
6, 48480, Note_on_c, 4, 65, 0
6, 48480, Note_on_c, 4, 57, 0
6, 48480, Note_on_c, 4, 57, 100
6, 48480, Note_on_c, 4, 65, 100
6, 48576, Note_on_c, 4, 65, 0
6, 48576, Note_on_c, 4, 57, 0
6, 48576, Note_on_c, 4, 57, 100
6, 48576, Note_on_c, 4, 65, 100
6, 48672, Note_on_c, 4, 65, 0
6, 48672, Note_on_c, 4, 57, 0
6, 48672, Note_on_c, 4, 57, 100
6, 48672, Note_on_c, 4, 65, 100
6, 48768, Note_on_c, 4, 65, 0
6, 48768, Note_on_c, 4, 57, 0
6, 48768, Note_on_c, 4, 57, 100
6, 48768, Note_on_c, 4, 65, 100
6, 48864, Note_on_c, 4, 65, 0
6, 48864, Note_on_c, 4, 57, 0
6, 48864, Note_on_c, 4, 57, 100
6, 48864, Note_on_c, 4, 65, 100
6, 48960, Note_on_c, 4, 65, 0
6, 48960, Note_on_c, 4, 57, 0
6, 48960, Note_on_c, 4, 57, 100
6, 48960, Note_on_c, 4, 65, 100
6, 49056, Note_on_c, 4, 65, 0
6, 49056, Note_on_c, 4, 57, 0
6, 49056, Note_on_c, 4, 57, 100
6, 49056, Note_on_c, 4, 65, 100
6, 49152, Note_on_c, 4, 65, 0
6, 49152, Note_on_c, 4, 57, 0
6, 49152, Note_on_c, 4, 65, 100
6, 49152, Note_on_c, 4, 57, 100
6, 49248, Note_on_c, 4, 57, 0
6, 49248, Note_on_c, 4, 65, 0
6, 49248, Note_on_c, 4, 65, 100
6, 49248, Note_on_c, 4, 57, 100
6, 49344, Note_on_c, 4, 57, 0
6, 49344, Note_on_c, 4, 65, 0
6, 49344, Note_on_c, 4, 65, 100
6, 49344, Note_on_c, 4, 57, 100
6, 49440, Note_on_c, 4, 57, 0
6, 49440, Note_on_c, 4, 65, 0
6, 49440, Note_on_c, 4, 65, 100
6, 49440, Note_on_c, 4, 57, 100
6, 49536, Note_on_c, 4, 57, 0
6, 49536, Note_on_c, 4, 65, 0
6, 49536, Note_on_c, 4, 65, 100
6, 49536, Note_on_c, 4, 57, 100
6, 49632, Note_on_c, 4, 57, 0
6, 49632, Note_on_c, 4, 65, 0
6, 49632, Note_on_c, 4, 65, 100
6, 49632, Note_on_c, 4, 57, 100
6, 49728, Note_on_c, 4, 57, 0
6, 49728, Note_on_c, 4, 65, 0
6, 49728, Note_on_c, 4, 65, 100
6, 49728, Note_on_c, 4, 57, 100
6, 49824, Note_on_c, 4, 57, 0
6, 49824, Note_on_c, 4, 65, 0
6, 49824, Note_on_c, 4, 65, 100
6, 49824, Note_on_c, 4, 57, 100
6, 49920, Note_on_c, 4, 57, 0
6, 49920, Note_on_c, 4, 65, 0
6, 49920, Note_on_c, 4, 65, 100
6, 49920, Note_on_c, 4, 57, 100
6, 50016, Note_on_c, 4, 57, 0
6, 50016, Note_on_c, 4, 65, 0
6, 50016, Note_on_c, 4, 65, 100
6, 50016, Note_on_c, 4, 57, 100
6, 50112, Note_on_c, 4, 57, 0
6, 50112, Note_on_c, 4, 65, 0
6, 50112, Note_on_c, 4, 65, 100
6, 50112, Note_on_c, 4, 57, 100
6, 50208, Note_on_c, 4, 57, 0
6, 50208, Note_on_c, 4, 65, 0
6, 50208, Note_on_c, 4, 65, 100
6, 50208, Note_on_c, 4, 57, 100
6, 50304, Note_on_c, 4, 57, 0
6, 50304, Note_on_c, 4, 65, 0
6, 50304, Note_on_c, 4, 65, 100
6, 50304, Note_on_c, 4, 57, 100
6, 50400, Note_on_c, 4, 57, 0
6, 50400, Note_on_c, 4, 65, 0
6, 50400, Note_on_c, 4, 65, 100
6, 50400, Note_on_c, 4, 57, 100
6, 50496, Note_on_c, 4, 57, 0
6, 50496, Note_on_c, 4, 65, 0
6, 50496, Note_on_c, 4, 65, 100
6, 50496, Note_on_c, 4, 57, 100
6, 50592, Note_on_c, 4, 57, 0
6, 50592, Note_on_c, 4, 65, 0
6, 50592, Note_on_c, 4, 65, 100
6, 50592, Note_on_c, 4, 57, 100
6, 50688, Note_on_c, 4, 57, 0
6, 50688, Note_on_c, 4, 65, 0
6, 50688, Note_on_c, 4, 65, 100
6, 50688, Note_on_c, 4, 62, 100
6, 50784, Note_on_c, 4, 62, 0
6, 50784, Note_on_c, 4, 65, 0
6, 50784, Note_on_c, 4, 65, 100
6, 50784, Note_on_c, 4, 62, 100
6, 50880, Note_on_c, 4, 62, 0
6, 50880, Note_on_c, 4, 65, 0
6, 50880, Note_on_c, 4, 65, 100
6, 50880, Note_on_c, 4, 62, 100
6, 50976, Note_on_c, 4, 62, 0
6, 50976, Note_on_c, 4, 65, 0
6, 50976, Note_on_c, 4, 65, 100
6, 50976, Note_on_c, 4, 62, 100
6, 51072, Note_on_c, 4, 62, 0
6, 51072, Note_on_c, 4, 65, 0
6, 51072, Note_on_c, 4, 65, 100
6, 51072, Note_on_c, 4, 62, 100
6, 51168, Note_on_c, 4, 62, 0
6, 51168, Note_on_c, 4, 65, 0
6, 51168, Note_on_c, 4, 65, 100
6, 51168, Note_on_c, 4, 62, 100
6, 51264, Note_on_c, 4, 62, 0
6, 51264, Note_on_c, 4, 65, 0
6, 51264, Note_on_c, 4, 65, 100
6, 51264, Note_on_c, 4, 62, 100
6, 51360, Note_on_c, 4, 62, 0
6, 51360, Note_on_c, 4, 65, 0
6, 51360, Note_on_c, 4, 65, 100
6, 51360, Note_on_c, 4, 62, 100
6, 51456, Note_on_c, 4, 62, 0
6, 51456, Note_on_c, 4, 65, 0
6, 51456, Note_on_c, 4, 65, 100
6, 51456, Note_on_c, 4, 62, 100
6, 51552, Note_on_c, 4, 62, 0
6, 51552, Note_on_c, 4, 65, 0
6, 51552, Note_on_c, 4, 65, 100
6, 51552, Note_on_c, 4, 62, 100
6, 51648, Note_on_c, 4, 62, 0
6, 51648, Note_on_c, 4, 65, 0
6, 51648, Note_on_c, 4, 65, 100
6, 51648, Note_on_c, 4, 62, 100
6, 51744, Note_on_c, 4, 62, 0
6, 51744, Note_on_c, 4, 65, 0
6, 51744, Note_on_c, 4, 65, 100
6, 51744, Note_on_c, 4, 62, 100
6, 51840, Note_on_c, 4, 62, 0
6, 51840, Note_on_c, 4, 65, 0
6, 51840, Note_on_c, 4, 65, 100
6, 51840, Note_on_c, 4, 62, 100
6, 51936, Note_on_c, 4, 62, 0
6, 51936, Note_on_c, 4, 65, 0
6, 51936, Note_on_c, 4, 65, 100
6, 51936, Note_on_c, 4, 62, 100
6, 52032, Note_on_c, 4, 62, 0
6, 52032, Note_on_c, 4, 65, 0
6, 52032, Note_on_c, 4, 65, 100
6, 52032, Note_on_c, 4, 62, 100
6, 52128, Note_on_c, 4, 62, 0
6, 52128, Note_on_c, 4, 65, 0
6, 52128, Note_on_c, 4, 65, 100
6, 52128, Note_on_c, 4, 62, 100
6, 52224, Note_on_c, 4, 62, 0
6, 52224, Note_on_c, 4, 65, 0
6, 52224, Note_on_c, 4, 62, 100
6, 52224, Note_on_c, 4, 65, 100
6, 52320, Note_on_c, 4, 65, 0
6, 52320, Note_on_c, 4, 62, 0
6, 52320, Note_on_c, 4, 62, 100
6, 52320, Note_on_c, 4, 65, 100
6, 52416, Note_on_c, 4, 65, 0
6, 52416, Note_on_c, 4, 62, 0
6, 52416, Note_on_c, 4, 62, 100
6, 52416, Note_on_c, 4, 65, 100
6, 52512, Note_on_c, 4, 65, 0
6, 52512, Note_on_c, 4, 62, 0
6, 52512, Note_on_c, 4, 62, 100
6, 52512, Note_on_c, 4, 65, 100
6, 52608, Note_on_c, 4, 65, 0
6, 52608, Note_on_c, 4, 62, 0
6, 52608, Note_on_c, 4, 62, 100
6, 52608, Note_on_c, 4, 65, 100
6, 52704, Note_on_c, 4, 65, 0
6, 52704, Note_on_c, 4, 62, 0
6, 52704, Note_on_c, 4, 62, 100
6, 52704, Note_on_c, 4, 65, 100
6, 52800, Note_on_c, 4, 65, 0
6, 52800, Note_on_c, 4, 62, 0
6, 52800, Note_on_c, 4, 62, 100
6, 52800, Note_on_c, 4, 65, 100
6, 52896, Note_on_c, 4, 65, 0
6, 52896, Note_on_c, 4, 62, 0
6, 52896, Note_on_c, 4, 62, 100
6, 52896, Note_on_c, 4, 65, 100
6, 52992, Note_on_c, 4, 65, 0
6, 52992, Note_on_c, 4, 62, 0
6, 52992, Note_on_c, 4, 62, 100
6, 52992, Note_on_c, 4, 65, 100
6, 53088, Note_on_c, 4, 65, 0
6, 53088, Note_on_c, 4, 62, 0
6, 53088, Note_on_c, 4, 62, 100
6, 53088, Note_on_c, 4, 65, 100
6, 53184, Note_on_c, 4, 65, 0
6, 53184, Note_on_c, 4, 62, 0
6, 53184, Note_on_c, 4, 62, 100
6, 53184, Note_on_c, 4, 65, 100
6, 53280, Note_on_c, 4, 65, 0
6, 53280, Note_on_c, 4, 62, 0
6, 53280, Note_on_c, 4, 62, 100
6, 53280, Note_on_c, 4, 65, 100
6, 53376, Note_on_c, 4, 65, 0
6, 53376, Note_on_c, 4, 62, 0
6, 53376, Note_on_c, 4, 62, 100
6, 53376, Note_on_c, 4, 65, 100
6, 53472, Note_on_c, 4, 65, 0
6, 53472, Note_on_c, 4, 62, 0
6, 53472, Note_on_c, 4, 62, 100
6, 53472, Note_on_c, 4, 65, 100
6, 53568, Note_on_c, 4, 65, 0
6, 53568, Note_on_c, 4, 62, 0
6, 53568, Note_on_c, 4, 62, 100
6, 53568, Note_on_c, 4, 65, 100
6, 53664, Note_on_c, 4, 65, 0
6, 53664, Note_on_c, 4, 62, 0
6, 53664, Note_on_c, 4, 62, 100
6, 53664, Note_on_c, 4, 65, 100
6, 53760, Note_on_c, 4, 65, 0
6, 53760, Note_on_c, 4, 62, 0
6, 53760, Note_on_c, 4, 65, 100
6, 53760, Note_on_c, 4, 57, 100
6, 53856, Note_on_c, 4, 57, 0
6, 53856, Note_on_c, 4, 65, 0
6, 53856, Note_on_c, 4, 65, 100
6, 53856, Note_on_c, 4, 57, 100
6, 53952, Note_on_c, 4, 57, 0
6, 53952, Note_on_c, 4, 65, 0
6, 53952, Note_on_c, 4, 65, 100
6, 53952, Note_on_c, 4, 57, 100
6, 54048, Note_on_c, 4, 57, 0
6, 54048, Note_on_c, 4, 65, 0
6, 54048, Note_on_c, 4, 65, 100
6, 54048, Note_on_c, 4, 57, 100
6, 54144, Note_on_c, 4, 57, 0
6, 54144, Note_on_c, 4, 65, 0
6, 54144, Note_on_c, 4, 65, 100
6, 54144, Note_on_c, 4, 57, 100
6, 54240, Note_on_c, 4, 57, 0
6, 54240, Note_on_c, 4, 65, 0
6, 54240, Note_on_c, 4, 65, 100
6, 54240, Note_on_c, 4, 57, 100
6, 54336, Note_on_c, 4, 57, 0
6, 54336, Note_on_c, 4, 65, 0
6, 54336, Note_on_c, 4, 65, 100
6, 54336, Note_on_c, 4, 57, 100
6, 54432, Note_on_c, 4, 57, 0
6, 54432, Note_on_c, 4, 65, 0
6, 54432, Note_on_c, 4, 65, 100
6, 54432, Note_on_c, 4, 57, 100
6, 54528, Note_on_c, 4, 57, 0
6, 54528, Note_on_c, 4, 65, 0
6, 54528, Note_on_c, 4, 65, 100
6, 54528, Note_on_c, 4, 57, 100
6, 54624, Note_on_c, 4, 57, 0
6, 54624, Note_on_c, 4, 65, 0
6, 54624, Note_on_c, 4, 65, 100
6, 54624, Note_on_c, 4, 57, 100
6, 54720, Note_on_c, 4, 57, 0
6, 54720, Note_on_c, 4, 65, 0
6, 54720, Note_on_c, 4, 65, 100
6, 54720, Note_on_c, 4, 57, 100
6, 54816, Note_on_c, 4, 57, 0
6, 54816, Note_on_c, 4, 65, 0
6, 54816, Note_on_c, 4, 65, 100
6, 54816, Note_on_c, 4, 57, 100
6, 54912, Note_on_c, 4, 57, 0
6, 54912, Note_on_c, 4, 65, 0
6, 54912, Note_on_c, 4, 65, 100
6, 54912, Note_on_c, 4, 57, 100
6, 55008, Note_on_c, 4, 57, 0
6, 55008, Note_on_c, 4, 65, 0
6, 55008, Note_on_c, 4, 65, 100
6, 55008, Note_on_c, 4, 57, 100
6, 55104, Note_on_c, 4, 57, 0
6, 55104, Note_on_c, 4, 65, 0
6, 55104, Note_on_c, 4, 65, 100
6, 55104, Note_on_c, 4, 57, 100
6, 55200, Note_on_c, 4, 57, 0
6, 55200, Note_on_c, 4, 65, 0
6, 55200, Note_on_c, 4, 65, 100
6, 55200, Note_on_c, 4, 57, 100
6, 55296, Note_on_c, 4, 57, 0
6, 55296, Note_on_c, 4, 65, 0
6, 55296, Note_on_c, 4, 57, 100
6, 55296, Note_on_c, 4, 65, 100
6, 55392, Note_on_c, 4, 65, 0
6, 55392, Note_on_c, 4, 57, 0
6, 55392, Note_on_c, 4, 57, 100
6, 55392, Note_on_c, 4, 65, 100
6, 55488, Note_on_c, 4, 65, 0
6, 55488, Note_on_c, 4, 57, 0
6, 55488, Note_on_c, 4, 57, 100
6, 55488, Note_on_c, 4, 65, 100
6, 55584, Note_on_c, 4, 65, 0
6, 55584, Note_on_c, 4, 57, 0
6, 55584, Note_on_c, 4, 57, 100
6, 55584, Note_on_c, 4, 65, 100
6, 55680, Note_on_c, 4, 65, 0
6, 55680, Note_on_c, 4, 57, 0
6, 55680, Note_on_c, 4, 57, 100
6, 55680, Note_on_c, 4, 65, 100
6, 55776, Note_on_c, 4, 65, 0
6, 55776, Note_on_c, 4, 57, 0
6, 55776, Note_on_c, 4, 57, 100
6, 55776, Note_on_c, 4, 65, 100
6, 55872, Note_on_c, 4, 65, 0
6, 55872, Note_on_c, 4, 57, 0
6, 55872, Note_on_c, 4, 57, 100
6, 55872, Note_on_c, 4, 65, 100
6, 55968, Note_on_c, 4, 65, 0
6, 55968, Note_on_c, 4, 57, 0
6, 55968, Note_on_c, 4, 57, 100
6, 55968, Note_on_c, 4, 65, 100
6, 56064, Note_on_c, 4, 65, 0
6, 56064, Note_on_c, 4, 57, 0
6, 56064, Note_on_c, 4, 57, 100
6, 56064, Note_on_c, 4, 65, 100
6, 56160, Note_on_c, 4, 65, 0
6, 56160, Note_on_c, 4, 57, 0
6, 56160, Note_on_c, 4, 57, 100
6, 56160, Note_on_c, 4, 65, 100
6, 56256, Note_on_c, 4, 65, 0
6, 56256, Note_on_c, 4, 57, 0
6, 56256, Note_on_c, 4, 57, 100
6, 56256, Note_on_c, 4, 65, 100
6, 56352, Note_on_c, 4, 65, 0
6, 56352, Note_on_c, 4, 57, 0
6, 56352, Note_on_c, 4, 57, 100
6, 56352, Note_on_c, 4, 65, 100
6, 56448, Note_on_c, 4, 65, 0
6, 56448, Note_on_c, 4, 57, 0
6, 56448, Note_on_c, 4, 57, 100
6, 56448, Note_on_c, 4, 65, 100
6, 56544, Note_on_c, 4, 65, 0
6, 56544, Note_on_c, 4, 57, 0
6, 56544, Note_on_c, 4, 57, 100
6, 56544, Note_on_c, 4, 65, 100
6, 56640, Note_on_c, 4, 65, 0
6, 56640, Note_on_c, 4, 57, 0
6, 56640, Note_on_c, 4, 57, 100
6, 56640, Note_on_c, 4, 65, 100
6, 56736, Note_on_c, 4, 65, 0
6, 56736, Note_on_c, 4, 57, 0
6, 56736, Note_on_c, 4, 57, 100
6, 56736, Note_on_c, 4, 65, 100
6, 56832, Note_on_c, 4, 65, 0
6, 56832, Note_on_c, 4, 57, 0
6, 56832, Note_on_c, 4, 58, 100
6, 56832, Note_on_c, 4, 65, 100
6, 56832, Note_on_c, 4, 70, 100
6, 57216, Note_on_c, 4, 70, 0
6, 57216, Note_on_c, 4, 65, 0
6, 57216, Note_on_c, 4, 58, 0
6, 59904, Note_on_c, 4, 63, 120
6, 60000, Note_on_c, 4, 63, 0
6, 60000, Note_on_c, 4, 63, 120
6, 60096, Note_on_c, 4, 63, 0
6, 60096, Note_on_c, 4, 63, 120
6, 60192, Note_on_c, 4, 63, 0
6, 60192, Note_on_c, 4, 63, 120
6, 60288, Note_on_c, 4, 63, 0
6, 60288, Note_on_c, 4, 67, 120
6, 60384, Note_on_c, 4, 67, 0
6, 60384, Note_on_c, 4, 67, 120
6, 60480, Note_on_c, 4, 67, 0
6, 60480, Note_on_c, 4, 67, 120
6, 60576, Note_on_c, 4, 67, 0
6, 60576, Note_on_c, 4, 67, 120
6, 60672, Note_on_c, 4, 67, 0
6, 60672, Note_on_c, 4, 70, 120
6, 60768, Note_on_c, 4, 70, 0
6, 60768, Note_on_c, 4, 70, 120
6, 60864, Note_on_c, 4, 70, 0
6, 60864, Note_on_c, 4, 70, 120
6, 60960, Note_on_c, 4, 70, 0
6, 60960, Note_on_c, 4, 70, 120
6, 61056, Note_on_c, 4, 70, 0
6, 61056, Note_on_c, 4, 75, 120
6, 61152, Note_on_c, 4, 75, 0
6, 61152, Note_on_c, 4, 75, 120
6, 61248, Note_on_c, 4, 75, 0
6, 61248, Note_on_c, 4, 75, 120
6, 61344, Note_on_c, 4, 75, 0
6, 61344, Note_on_c, 4, 75, 120
6, 61440, Note_on_c, 4, 75, 0
6, 61440, Note_on_c, 4, 79, 120
6, 61536, Note_on_c, 4, 79, 0
6, 61536, Note_on_c, 4, 79, 120
6, 61632, Note_on_c, 4, 79, 0
6, 61632, Note_on_c, 4, 79, 120
6, 61728, Note_on_c, 4, 79, 0
6, 61728, Note_on_c, 4, 79, 120
6, 61824, Note_on_c, 4, 79, 0
6, 61824, Note_on_c, 4, 75, 120
6, 61920, Note_on_c, 4, 75, 0
6, 61920, Note_on_c, 4, 75, 120
6, 62016, Note_on_c, 4, 75, 0
6, 62016, Note_on_c, 4, 75, 120
6, 62112, Note_on_c, 4, 75, 0
6, 62112, Note_on_c, 4, 75, 120
6, 62208, Note_on_c, 4, 75, 0
6, 62208, Note_on_c, 4, 70, 120
6, 62304, Note_on_c, 4, 70, 0
6, 62304, Note_on_c, 4, 70, 120
6, 62400, Note_on_c, 4, 70, 0
6, 62400, Note_on_c, 4, 70, 120
6, 62496, Note_on_c, 4, 70, 0
6, 62496, Note_on_c, 4, 70, 120
6, 62592, Note_on_c, 4, 70, 0
6, 62592, Note_on_c, 4, 67, 120
6, 62688, Note_on_c, 4, 67, 0
6, 62688, Note_on_c, 4, 67, 120
6, 62784, Note_on_c, 4, 67, 0
6, 62784, Note_on_c, 4, 67, 120
6, 62880, Note_on_c, 4, 67, 0
6, 62880, Note_on_c, 4, 67, 120
6, 62976, Note_on_c, 4, 67, 0
6, 62976, Note_on_c, 4, 60, 120
6, 63128, Note_on_c, 4, 60, 0
6, 63168, Note_on_c, 4, 60, 120
6, 63472, Note_on_c, 4, 60, 0
6, 63552, Note_on_c, 4, 60, 120
6, 63856, Note_on_c, 4, 60, 0
6, 63936, Note_on_c, 4, 60, 120
6, 64240, Note_on_c, 4, 60, 0
6, 64320, Note_on_c, 4, 60, 120
6, 64664, Note_on_c, 4, 60, 0
6, 64704, Note_on_c, 4, 60, 120
6, 65008, Note_on_c, 4, 60, 0
6, 65088, Note_on_c, 4, 60, 120
6, 65392, Note_on_c, 4, 60, 0
6, 65472, Note_on_c, 4, 60, 120
6, 65776, Note_on_c, 4, 60, 0
6, 65856, Note_on_c, 4, 60, 120
6, 66008, Note_on_c, 4, 60, 0
6, 66048, Note_on_c, 4, 62, 120
6, 66144, Note_on_c, 4, 62, 0
6, 66144, Note_on_c, 4, 62, 120
6, 66240, Note_on_c, 4, 62, 0
6, 66240, Note_on_c, 4, 62, 120
6, 66336, Note_on_c, 4, 62, 0
6, 66336, Note_on_c, 4, 62, 120
6, 66432, Note_on_c, 4, 62, 0
6, 66432, Note_on_c, 4, 65, 120
6, 66528, Note_on_c, 4, 65, 0
6, 66528, Note_on_c, 4, 65, 120
6, 66624, Note_on_c, 4, 65, 0
6, 66624, Note_on_c, 4, 65, 120
6, 66720, Note_on_c, 4, 65, 0
6, 66720, Note_on_c, 4, 65, 120
6, 66816, Note_on_c, 4, 65, 0
6, 66816, Note_on_c, 4, 69, 120
6, 66912, Note_on_c, 4, 69, 0
6, 66912, Note_on_c, 4, 69, 120
6, 67008, Note_on_c, 4, 69, 0
6, 67008, Note_on_c, 4, 69, 120
6, 67104, Note_on_c, 4, 69, 0
6, 67104, Note_on_c, 4, 69, 120
6, 67200, Note_on_c, 4, 69, 0
6, 67200, Note_on_c, 4, 74, 120
6, 67296, Note_on_c, 4, 74, 0
6, 67296, Note_on_c, 4, 74, 120
6, 67392, Note_on_c, 4, 74, 0
6, 67392, Note_on_c, 4, 74, 120
6, 67488, Note_on_c, 4, 74, 0
6, 67488, Note_on_c, 4, 74, 120
6, 67584, Note_on_c, 4, 74, 0
6, 67584, Note_on_c, 4, 77, 120
6, 67680, Note_on_c, 4, 77, 0
6, 67680, Note_on_c, 4, 77, 120
6, 67776, Note_on_c, 4, 77, 0
6, 67776, Note_on_c, 4, 77, 120
6, 67872, Note_on_c, 4, 77, 0
6, 67872, Note_on_c, 4, 77, 120
6, 67968, Note_on_c, 4, 77, 0
6, 67968, Note_on_c, 4, 74, 120
6, 68064, Note_on_c, 4, 74, 0
6, 68064, Note_on_c, 4, 74, 120
6, 68160, Note_on_c, 4, 74, 0
6, 68160, Note_on_c, 4, 74, 120
6, 68256, Note_on_c, 4, 74, 0
6, 68256, Note_on_c, 4, 74, 120
6, 68352, Note_on_c, 4, 74, 0
6, 68352, Note_on_c, 4, 69, 120
6, 68448, Note_on_c, 4, 69, 0
6, 68448, Note_on_c, 4, 69, 120
6, 68544, Note_on_c, 4, 69, 0
6, 68544, Note_on_c, 4, 69, 120
6, 68640, Note_on_c, 4, 69, 0
6, 68640, Note_on_c, 4, 69, 120
6, 68736, Note_on_c, 4, 69, 0
6, 68736, Note_on_c, 4, 65, 120
6, 68832, Note_on_c, 4, 65, 0
6, 68832, Note_on_c, 4, 65, 120
6, 68928, Note_on_c, 4, 65, 0
6, 68928, Note_on_c, 4, 65, 120
6, 69024, Note_on_c, 4, 65, 0
6, 69024, Note_on_c, 4, 65, 120
6, 69120, Note_on_c, 4, 65, 0
6, 69120, Note_on_c, 4, 58, 120
6, 69272, Note_on_c, 4, 58, 0
6, 69312, Note_on_c, 4, 58, 120
6, 69616, Note_on_c, 4, 58, 0
6, 69696, Note_on_c, 4, 58, 120
6, 70000, Note_on_c, 4, 58, 0
6, 70080, Note_on_c, 4, 58, 120
6, 70384, Note_on_c, 4, 58, 0
6, 70464, Note_on_c, 4, 58, 120
6, 70808, Note_on_c, 4, 58, 0
6, 70848, Note_on_c, 4, 58, 120
6, 71152, Note_on_c, 4, 58, 0
6, 71232, Note_on_c, 4, 58, 120
6, 71536, Note_on_c, 4, 58, 0
6, 71616, Note_on_c, 4, 58, 120
6, 71920, Note_on_c, 4, 58, 0
6, 72000, Note_on_c, 4, 58, 120
6, 72152, Note_on_c, 4, 58, 0
6, 72192, Note_on_c, 4, 60, 120
6, 72288, Note_on_c, 4, 60, 0
6, 72288, Note_on_c, 4, 60, 120
6, 72384, Note_on_c, 4, 60, 0
6, 72384, Note_on_c, 4, 60, 120
6, 72480, Note_on_c, 4, 60, 0
6, 72480, Note_on_c, 4, 60, 120
6, 72576, Note_on_c, 4, 60, 0
6, 72576, Note_on_c, 4, 63, 120
6, 72672, Note_on_c, 4, 63, 0
6, 72672, Note_on_c, 4, 63, 120
6, 72768, Note_on_c, 4, 63, 0
6, 72768, Note_on_c, 4, 63, 120
6, 72864, Note_on_c, 4, 63, 0
6, 72864, Note_on_c, 4, 63, 120
6, 72960, Note_on_c, 4, 63, 0
6, 72960, Note_on_c, 4, 67, 120
6, 73056, Note_on_c, 4, 67, 0
6, 73056, Note_on_c, 4, 67, 120
6, 73152, Note_on_c, 4, 67, 0
6, 73152, Note_on_c, 4, 67, 120
6, 73248, Note_on_c, 4, 67, 0
6, 73248, Note_on_c, 4, 67, 120
6, 73344, Note_on_c, 4, 67, 0
6, 73344, Note_on_c, 4, 72, 120
6, 73440, Note_on_c, 4, 72, 0
6, 73440, Note_on_c, 4, 72, 120
6, 73536, Note_on_c, 4, 72, 0
6, 73536, Note_on_c, 4, 72, 120
6, 73632, Note_on_c, 4, 72, 0
6, 73632, Note_on_c, 4, 72, 120
6, 73728, Note_on_c, 4, 72, 0
6, 73728, Note_on_c, 4, 75, 120
6, 73824, Note_on_c, 4, 75, 0
6, 73824, Note_on_c, 4, 75, 120
6, 73920, Note_on_c, 4, 75, 0
6, 73920, Note_on_c, 4, 75, 120
6, 74016, Note_on_c, 4, 75, 0
6, 74016, Note_on_c, 4, 75, 120
6, 74112, Note_on_c, 4, 75, 0
6, 74112, Note_on_c, 4, 72, 120
6, 74208, Note_on_c, 4, 72, 0
6, 74208, Note_on_c, 4, 72, 120
6, 74304, Note_on_c, 4, 72, 0
6, 74304, Note_on_c, 4, 72, 120
6, 74400, Note_on_c, 4, 72, 0
6, 74400, Note_on_c, 4, 72, 120
6, 74496, Note_on_c, 4, 72, 0
6, 74496, Note_on_c, 4, 67, 120
6, 74592, Note_on_c, 4, 67, 0
6, 74592, Note_on_c, 4, 67, 120
6, 74688, Note_on_c, 4, 67, 0
6, 74688, Note_on_c, 4, 67, 120
6, 74784, Note_on_c, 4, 67, 0
6, 74784, Note_on_c, 4, 67, 120
6, 74880, Note_on_c, 4, 67, 0
6, 74880, Note_on_c, 4, 63, 120
6, 74976, Note_on_c, 4, 63, 0
6, 74976, Note_on_c, 4, 63, 120
6, 75072, Note_on_c, 4, 63, 0
6, 75072, Note_on_c, 4, 63, 120
6, 75168, Note_on_c, 4, 63, 0
6, 75168, Note_on_c, 4, 63, 120
6, 75264, Note_on_c, 4, 63, 0
6, 75264, Note_on_c, 4, 87, 120
6, 75360, Note_on_c, 4, 87, 0
6, 75360, Note_on_c, 4, 87, 120
6, 75456, Note_on_c, 4, 87, 0
6, 75456, Note_on_c, 4, 87, 120
6, 75552, Note_on_c, 4, 87, 0
6, 75552, Note_on_c, 4, 87, 120
6, 75648, Note_on_c, 4, 87, 0
6, 75648, Note_on_c, 4, 84, 120
6, 75744, Note_on_c, 4, 84, 0
6, 75744, Note_on_c, 4, 84, 120
6, 75840, Note_on_c, 4, 84, 0
6, 75840, Note_on_c, 4, 84, 120
6, 75936, Note_on_c, 4, 84, 0
6, 75936, Note_on_c, 4, 84, 120
6, 76032, Note_on_c, 4, 84, 0
6, 76032, Note_on_c, 4, 81, 120
6, 76128, Note_on_c, 4, 81, 0
6, 76128, Note_on_c, 4, 81, 120
6, 76224, Note_on_c, 4, 81, 0
6, 76224, Note_on_c, 4, 81, 120
6, 76320, Note_on_c, 4, 81, 0
6, 76320, Note_on_c, 4, 81, 120
6, 76416, Note_on_c, 4, 81, 0
6, 76416, Note_on_c, 4, 77, 120
6, 76512, Note_on_c, 4, 77, 0
6, 76512, Note_on_c, 4, 77, 120
6, 76608, Note_on_c, 4, 77, 0
6, 76608, Note_on_c, 4, 77, 120
6, 76704, Note_on_c, 4, 77, 0
6, 76704, Note_on_c, 4, 77, 120
6, 76800, Note_on_c, 4, 77, 0
6, 76800, Note_on_c, 4, 75, 120
6, 76800, Note_on_c, 4, 75, 120
6, 76896, Note_on_c, 4, 75, 0
6, 76896, Note_on_c, 4, 75, 0
6, 76896, Note_on_c, 4, 75, 120
6, 76992, Note_on_c, 4, 75, 0
6, 76992, Note_on_c, 4, 75, 120
6, 77088, Note_on_c, 4, 75, 0
6, 77088, Note_on_c, 4, 75, 120
6, 77184, Note_on_c, 4, 75, 0
6, 77184, Note_on_c, 4, 72, 120
6, 77280, Note_on_c, 4, 72, 0
6, 77280, Note_on_c, 4, 72, 120
6, 77376, Note_on_c, 4, 72, 0
6, 77376, Note_on_c, 4, 72, 120
6, 77472, Note_on_c, 4, 72, 0
6, 77472, Note_on_c, 4, 72, 120
6, 77568, Note_on_c, 4, 72, 0
6, 77568, Note_on_c, 4, 69, 120
6, 77664, Note_on_c, 4, 69, 0
6, 77664, Note_on_c, 4, 69, 120
6, 77760, Note_on_c, 4, 69, 0
6, 77760, Note_on_c, 4, 69, 120
6, 77856, Note_on_c, 4, 69, 0
6, 77856, Note_on_c, 4, 69, 120
6, 77952, Note_on_c, 4, 69, 0
6, 77952, Note_on_c, 4, 65, 120
6, 78048, Note_on_c, 4, 65, 0
6, 78048, Note_on_c, 4, 65, 120
6, 78144, Note_on_c, 4, 65, 0
6, 78144, Note_on_c, 4, 65, 120
6, 78240, Note_on_c, 4, 65, 0
6, 78240, Note_on_c, 4, 65, 120
6, 78336, Note_on_c, 4, 65, 0
6, 78336, Note_on_c, 4, 86, 120
6, 78432, Note_on_c, 4, 86, 0
6, 78432, Note_on_c, 4, 86, 120
6, 78528, Note_on_c, 4, 86, 0
6, 78528, Note_on_c, 4, 86, 120
6, 78624, Note_on_c, 4, 86, 0
6, 78624, Note_on_c, 4, 86, 120
6, 78720, Note_on_c, 4, 86, 0
6, 78720, Note_on_c, 4, 82, 120
6, 78816, Note_on_c, 4, 82, 0
6, 78816, Note_on_c, 4, 82, 120
6, 78912, Note_on_c, 4, 82, 0
6, 78912, Note_on_c, 4, 82, 120
6, 79008, Note_on_c, 4, 82, 0
6, 79008, Note_on_c, 4, 82, 120
6, 79104, Note_on_c, 4, 82, 0
6, 79104, Note_on_c, 4, 77, 120
6, 79200, Note_on_c, 4, 77, 0
6, 79200, Note_on_c, 4, 77, 120
6, 79296, Note_on_c, 4, 77, 0
6, 79296, Note_on_c, 4, 77, 120
6, 79392, Note_on_c, 4, 77, 0
6, 79392, Note_on_c, 4, 77, 120
6, 79488, Note_on_c, 4, 77, 0
6, 79488, Note_on_c, 4, 74, 120
6, 79584, Note_on_c, 4, 74, 0
6, 79584, Note_on_c, 4, 74, 120
6, 79680, Note_on_c, 4, 74, 0
6, 79680, Note_on_c, 4, 74, 120
6, 79776, Note_on_c, 4, 74, 0
6, 79776, Note_on_c, 4, 74, 120
6, 79872, Note_on_c, 4, 74, 0
6, 79872, Note_on_c, 4, 70, 120
6, 79968, Note_on_c, 4, 70, 0
6, 79968, Note_on_c, 4, 70, 120
6, 80064, Note_on_c, 4, 70, 0
6, 80064, Note_on_c, 4, 70, 120
6, 80160, Note_on_c, 4, 70, 0
6, 80160, Note_on_c, 4, 70, 120
6, 80256, Note_on_c, 4, 70, 0
6, 80256, Note_on_c, 4, 65, 120
6, 80352, Note_on_c, 4, 65, 0
6, 80352, Note_on_c, 4, 65, 120
6, 80448, Note_on_c, 4, 65, 0
6, 80448, Note_on_c, 4, 65, 120
6, 80544, Note_on_c, 4, 65, 0
6, 80544, Note_on_c, 4, 65, 120
6, 80640, Note_on_c, 4, 65, 0
6, 80640, Note_on_c, 4, 62, 120
6, 80736, Note_on_c, 4, 62, 0
6, 80736, Note_on_c, 4, 62, 120
6, 80832, Note_on_c, 4, 62, 0
6, 80832, Note_on_c, 4, 62, 120
6, 80928, Note_on_c, 4, 62, 0
6, 80928, Note_on_c, 4, 62, 120
6, 81024, Note_on_c, 4, 62, 0
6, 81024, Note_on_c, 4, 58, 120
6, 81120, Note_on_c, 4, 58, 0
6, 81120, Note_on_c, 4, 58, 120
6, 81216, Note_on_c, 4, 58, 0
6, 81216, Note_on_c, 4, 58, 120
6, 81312, Note_on_c, 4, 58, 0
6, 81312, Note_on_c, 4, 58, 120
6, 81408, Note_on_c, 4, 58, 0
6, 81408, Note_on_c, 4, 85, 120
6, 81504, Note_on_c, 4, 85, 0
6, 81504, Note_on_c, 4, 85, 120
6, 81600, Note_on_c, 4, 85, 0
6, 81600, Note_on_c, 4, 85, 120
6, 81696, Note_on_c, 4, 85, 0
6, 81696, Note_on_c, 4, 85, 120
6, 81792, Note_on_c, 4, 85, 0
6, 81792, Note_on_c, 4, 82, 120
6, 81888, Note_on_c, 4, 82, 0
6, 81888, Note_on_c, 4, 82, 120
6, 81984, Note_on_c, 4, 82, 0
6, 81984, Note_on_c, 4, 82, 120
6, 82080, Note_on_c, 4, 82, 0
6, 82080, Note_on_c, 4, 82, 120
6, 82176, Note_on_c, 4, 82, 0
6, 82176, Note_on_c, 4, 77, 120
6, 82272, Note_on_c, 4, 77, 0
6, 82272, Note_on_c, 4, 77, 120
6, 82368, Note_on_c, 4, 77, 0
6, 82368, Note_on_c, 4, 77, 120
6, 82464, Note_on_c, 4, 77, 0
6, 82464, Note_on_c, 4, 77, 120
6, 82560, Note_on_c, 4, 77, 0
6, 82560, Note_on_c, 4, 73, 120
6, 82656, Note_on_c, 4, 73, 0
6, 82656, Note_on_c, 4, 73, 120
6, 82752, Note_on_c, 4, 73, 0
6, 82752, Note_on_c, 4, 73, 120
6, 82848, Note_on_c, 4, 73, 0
6, 82848, Note_on_c, 4, 73, 120
6, 82944, Note_on_c, 4, 73, 0
6, 82944, Note_on_c, 4, 70, 120
6, 83040, Note_on_c, 4, 70, 0
6, 83040, Note_on_c, 4, 70, 120
6, 83136, Note_on_c, 4, 70, 0
6, 83136, Note_on_c, 4, 70, 120
6, 83232, Note_on_c, 4, 70, 0
6, 83232, Note_on_c, 4, 70, 120
6, 83328, Note_on_c, 4, 70, 0
6, 83328, Note_on_c, 4, 65, 120
6, 83424, Note_on_c, 4, 65, 0
6, 83424, Note_on_c, 4, 65, 120
6, 83520, Note_on_c, 4, 65, 0
6, 83520, Note_on_c, 4, 65, 120
6, 83616, Note_on_c, 4, 65, 0
6, 83616, Note_on_c, 4, 65, 120
6, 83712, Note_on_c, 4, 65, 0
6, 83712, Note_on_c, 4, 61, 120
6, 83808, Note_on_c, 4, 61, 0
6, 83808, Note_on_c, 4, 61, 120
6, 83904, Note_on_c, 4, 61, 0
6, 83904, Note_on_c, 4, 61, 120
6, 84000, Note_on_c, 4, 61, 0
6, 84000, Note_on_c, 4, 61, 120
6, 84096, Note_on_c, 4, 61, 0
6, 84096, Note_on_c, 4, 58, 120
6, 84192, Note_on_c, 4, 58, 0
6, 84192, Note_on_c, 4, 58, 120
6, 84288, Note_on_c, 4, 58, 0
6, 84288, Note_on_c, 4, 58, 120
6, 84384, Note_on_c, 4, 58, 0
6, 84384, Note_on_c, 4, 58, 120
6, 84480, Note_on_c, 4, 58, 0
6, 84480, Note_on_c, 4, 85, 120
6, 84576, Note_on_c, 4, 85, 0
6, 84576, Note_on_c, 4, 85, 120
6, 84672, Note_on_c, 4, 85, 0
6, 84672, Note_on_c, 4, 85, 120
6, 84768, Note_on_c, 4, 85, 0
6, 84768, Note_on_c, 4, 85, 120
6, 84864, Note_on_c, 4, 85, 0
6, 84864, Note_on_c, 4, 82, 120
6, 84960, Note_on_c, 4, 82, 0
6, 84960, Note_on_c, 4, 82, 120
6, 85056, Note_on_c, 4, 82, 0
6, 85056, Note_on_c, 4, 82, 120
6, 85152, Note_on_c, 4, 82, 0
6, 85152, Note_on_c, 4, 82, 120
6, 85248, Note_on_c, 4, 82, 0
6, 85248, Note_on_c, 4, 79, 120
6, 85344, Note_on_c, 4, 79, 0
6, 85344, Note_on_c, 4, 79, 120
6, 85440, Note_on_c, 4, 79, 0
6, 85440, Note_on_c, 4, 79, 120
6, 85536, Note_on_c, 4, 79, 0
6, 85536, Note_on_c, 4, 79, 120
6, 85632, Note_on_c, 4, 79, 0
6, 85632, Note_on_c, 4, 76, 120
6, 85728, Note_on_c, 4, 76, 0
6, 85728, Note_on_c, 4, 76, 120
6, 85824, Note_on_c, 4, 76, 0
6, 85824, Note_on_c, 4, 76, 120
6, 85920, Note_on_c, 4, 76, 0
6, 85920, Note_on_c, 4, 76, 120
6, 86016, Note_on_c, 4, 76, 0
6, 86016, Note_on_c, 4, 73, 120
6, 86112, Note_on_c, 4, 73, 0
6, 86112, Note_on_c, 4, 73, 120
6, 86208, Note_on_c, 4, 73, 0
6, 86208, Note_on_c, 4, 73, 120
6, 86304, Note_on_c, 4, 73, 0
6, 86304, Note_on_c, 4, 73, 120
6, 86400, Note_on_c, 4, 73, 0
6, 86400, Note_on_c, 4, 70, 120
6, 86496, Note_on_c, 4, 70, 0
6, 86496, Note_on_c, 4, 70, 120
6, 86592, Note_on_c, 4, 70, 0
6, 86592, Note_on_c, 4, 70, 120
6, 86688, Note_on_c, 4, 70, 0
6, 86688, Note_on_c, 4, 70, 120
6, 86784, Note_on_c, 4, 70, 0
6, 86784, Note_on_c, 4, 67, 120
6, 86880, Note_on_c, 4, 67, 0
6, 86880, Note_on_c, 4, 67, 120
6, 86976, Note_on_c, 4, 67, 0
6, 86976, Note_on_c, 4, 67, 120
6, 87072, Note_on_c, 4, 67, 0
6, 87072, Note_on_c, 4, 67, 120
6, 87168, Note_on_c, 4, 67, 0
6, 87168, Note_on_c, 4, 64, 120
6, 87264, Note_on_c, 4, 64, 0
6, 87264, Note_on_c, 4, 64, 120
6, 87360, Note_on_c, 4, 64, 0
6, 87360, Note_on_c, 4, 64, 120
6, 87456, Note_on_c, 4, 64, 0
6, 87456, Note_on_c, 4, 64, 120
6, 87552, Note_on_c, 4, 64, 0
6, 87552, Note_on_c, 4, 65, 120
6, 87648, Note_on_c, 4, 65, 0
6, 87648, Note_on_c, 4, 65, 122
6, 87744, Note_on_c, 4, 65, 0
6, 87744, Note_on_c, 4, 65, 124
6, 87840, Note_on_c, 4, 65, 0
6, 87840, Note_on_c, 4, 65, 127
6, 87936, Note_on_c, 4, 65, 0
6, 87936, Note_on_c, 4, 66, 127
6, 88032, Note_on_c, 4, 66, 0
6, 88032, Note_on_c, 4, 66, 126
6, 88128, Note_on_c, 4, 66, 0
6, 88128, Note_on_c, 4, 66, 125
6, 88224, Note_on_c, 4, 66, 0
6, 88224, Note_on_c, 4, 66, 124
6, 88320, Note_on_c, 4, 66, 0
6, 88320, Note_on_c, 4, 65, 123
6, 88416, Note_on_c, 4, 65, 0
6, 88416, Note_on_c, 4, 65, 122
6, 88512, Note_on_c, 4, 65, 0
6, 88512, Note_on_c, 4, 65, 121
6, 88608, Note_on_c, 4, 65, 0
6, 88608, Note_on_c, 4, 65, 120
6, 88704, Note_on_c, 4, 65, 0
6, 88704, Note_on_c, 4, 64, 119
6, 88800, Note_on_c, 4, 64, 0
6, 88800, Note_on_c, 4, 64, 118
6, 88896, Note_on_c, 4, 64, 0
6, 88896, Note_on_c, 4, 64, 117
6, 88992, Note_on_c, 4, 64, 0
6, 88992, Note_on_c, 4, 64, 116
6, 89088, Note_on_c, 4, 64, 0
6, 89088, Note_on_c, 4, 65, 115
6, 89316, Note_on_c, 4, 65, 0
6, 89472, Note_on_c, 4, 77, 92
6, 89664, Note_on_c, 4, 77, 0
6, 89856, Note_on_c, 4, 65, 92
6, 90104, Note_on_c, 4, 65, 0
6, 90624, Note_on_c, 4, 58, 80
6, 90928, Note_on_c, 4, 58, 0
6, 91008, Note_on_c, 4, 58, 80
6, 91620, Note_on_c, 4, 58, 0
6, 91776, Note_on_c, 4, 58, 80
6, 92464, Note_on_c, 4, 58, 0
6, 92544, Note_on_c, 4, 58, 80
6, 93156, Note_on_c, 4, 58, 0
6, 93312, Note_on_c, 4, 58, 80
6, 94000, Note_on_c, 4, 58, 0
6, 94080, Note_on_c, 4, 58, 80
6, 94692, Note_on_c, 4, 58, 0
6, 94848, Note_on_c, 4, 58, 80
6, 95536, Note_on_c, 4, 58, 0
6, 95616, Note_on_c, 4, 58, 80
6, 96228, Note_on_c, 4, 58, 0
6, 96384, Note_on_c, 4, 58, 80
6, 96960, Note_on_c, 4, 58, 0
6, 96960, Note_on_c, 4, 70, 100
6, 97112, Note_on_c, 4, 70, 0
6, 97152, Note_on_c, 4, 70, 100
6, 97304, Note_on_c, 4, 70, 0
6, 97344, Note_on_c, 4, 70, 100
6, 97496, Note_on_c, 4, 70, 0
6, 97536, Note_on_c, 4, 70, 100
6, 97728, Note_on_c, 4, 70, 0
6, 97728, Note_on_c, 4, 69, 100
6, 97880, Note_on_c, 4, 69, 0
6, 97920, Note_on_c, 4, 67, 100
6, 98072, Note_on_c, 4, 67, 0
6, 98112, Note_on_c, 4, 65, 100
6, 98264, Note_on_c, 4, 65, 0
6, 98304, Note_on_c, 4, 63, 100
6, 98496, Note_on_c, 4, 63, 0
6, 98496, Note_on_c, 4, 67, 100
6, 98648, Note_on_c, 4, 67, 0
6, 98688, Note_on_c, 4, 67, 100
6, 98840, Note_on_c, 4, 67, 0
6, 98880, Note_on_c, 4, 67, 100
6, 99032, Note_on_c, 4, 67, 0
6, 99072, Note_on_c, 4, 67, 100
6, 99264, Note_on_c, 4, 67, 0
6, 99264, Note_on_c, 4, 65, 100
6, 99416, Note_on_c, 4, 65, 0
6, 99456, Note_on_c, 4, 63, 100
6, 99608, Note_on_c, 4, 63, 0
6, 99648, Note_on_c, 4, 62, 100
6, 99800, Note_on_c, 4, 62, 0
6, 99840, Note_on_c, 4, 60, 100
6, 100032, Note_on_c, 4, 60, 0
6, 100032, Note_on_c, 4, 63, 100
6, 100184, Note_on_c, 4, 63, 0
6, 100224, Note_on_c, 4, 63, 100
6, 100376, Note_on_c, 4, 63, 0
6, 100416, Note_on_c, 4, 63, 100
6, 100568, Note_on_c, 4, 63, 0
6, 100608, Note_on_c, 4, 63, 100
6, 100800, Note_on_c, 4, 63, 0
6, 100800, Note_on_c, 4, 62, 100
6, 100952, Note_on_c, 4, 62, 0
6, 100992, Note_on_c, 4, 65, 100
6, 101144, Note_on_c, 4, 65, 0
6, 101184, Note_on_c, 4, 58, 100
6, 101336, Note_on_c, 4, 58, 0
6, 101376, Note_on_c, 4, 62, 100
6, 101568, Note_on_c, 4, 62, 0
6, 101568, Note_on_c, 4, 60, 100
6, 101720, Note_on_c, 4, 60, 0
6, 101760, Note_on_c, 4, 58, 100
6, 101912, Note_on_c, 4, 58, 0
6, 101952, Note_on_c, 4, 57, 100
6, 102104, Note_on_c, 4, 57, 0
6, 102144, Note_on_c, 4, 60, 120
6, 102336, Note_on_c, 4, 60, 0
6, 102336, Note_on_c, 4, 58, 120
6, 102488, Note_on_c, 4, 58, 0
6, 102528, Note_on_c, 4, 57, 120
6, 102680, Note_on_c, 4, 57, 0
6, 102720, Note_on_c, 4, 58, 120
6, 102872, Note_on_c, 4, 58, 0
6, 102912, Note_on_c, 4, 62, 120
6, 103104, Note_on_c, 4, 62, 0
6, 103104, Note_on_c, 4, 60, 120
6, 103256, Note_on_c, 4, 60, 0
6, 103296, Note_on_c, 4, 58, 120
6, 103448, Note_on_c, 4, 58, 0
6, 103488, Note_on_c, 4, 60, 120
6, 103640, Note_on_c, 4, 60, 0
6, 103680, Note_on_c, 4, 63, 120
6, 103872, Note_on_c, 4, 63, 0
6, 103872, Note_on_c, 4, 62, 120
6, 104024, Note_on_c, 4, 62, 0
6, 104064, Note_on_c, 4, 60, 120
6, 104216, Note_on_c, 4, 60, 0
6, 104256, Note_on_c, 4, 62, 120
6, 104408, Note_on_c, 4, 62, 0
6, 104448, Note_on_c, 4, 65, 120
6, 104640, Note_on_c, 4, 65, 0
6, 104640, Note_on_c, 4, 63, 120
6, 104792, Note_on_c, 4, 63, 0
6, 104832, Note_on_c, 4, 62, 120
6, 104984, Note_on_c, 4, 62, 0
6, 105024, Note_on_c, 4, 60, 120
6, 105176, Note_on_c, 4, 60, 0
6, 105216, Note_on_c, 4, 60, 120
6, 105408, Note_on_c, 4, 60, 0
6, 105408, Note_on_c, 4, 58, 120
6, 105560, Note_on_c, 4, 58, 0
6, 105600, Note_on_c, 4, 57, 120
6, 105752, Note_on_c, 4, 57, 0
6, 105792, Note_on_c, 4, 58, 120
6, 105944, Note_on_c, 4, 58, 0
6, 105984, Note_on_c, 4, 62, 120
6, 106176, Note_on_c, 4, 62, 0
6, 106176, Note_on_c, 4, 60, 120
6, 106328, Note_on_c, 4, 60, 0
6, 106368, Note_on_c, 4, 58, 120
6, 106520, Note_on_c, 4, 58, 0
6, 106560, Note_on_c, 4, 60, 120
6, 106712, Note_on_c, 4, 60, 0
6, 106752, Note_on_c, 4, 63, 120
6, 106944, Note_on_c, 4, 63, 0
6, 106944, Note_on_c, 4, 62, 120
6, 107096, Note_on_c, 4, 62, 0
6, 107136, Note_on_c, 4, 60, 120
6, 107288, Note_on_c, 4, 60, 0
6, 107328, Note_on_c, 4, 62, 120
6, 107480, Note_on_c, 4, 62, 0
6, 107520, Note_on_c, 4, 65, 120
6, 107712, Note_on_c, 4, 65, 0
6, 107712, Note_on_c, 4, 63, 120
6, 107864, Note_on_c, 4, 63, 0
6, 107904, Note_on_c, 4, 62, 120
6, 108056, Note_on_c, 4, 62, 0
6, 108096, Note_on_c, 4, 60, 120
6, 108248, Note_on_c, 4, 60, 0
6, 108288, Note_on_c, 4, 58, 120
6, 108480, Note_on_c, 4, 58, 0
6, 108480, Note_on_c, 4, 70, 120
6, 108632, Note_on_c, 4, 70, 0
6, 108672, Note_on_c, 4, 70, 120
6, 108824, Note_on_c, 4, 70, 0
6, 108864, Note_on_c, 4, 70, 120
6, 109016, Note_on_c, 4, 70, 0
6, 109056, Note_on_c, 4, 70, 120
6, 109248, Note_on_c, 4, 70, 0
6, 109248, Note_on_c, 4, 69, 120
6, 109400, Note_on_c, 4, 69, 0
6, 109440, Note_on_c, 4, 67, 120
6, 109592, Note_on_c, 4, 67, 0
6, 109632, Note_on_c, 4, 65, 120
6, 109784, Note_on_c, 4, 65, 0
6, 109824, Note_on_c, 4, 63, 120
6, 110016, Note_on_c, 4, 63, 0
6, 110016, Note_on_c, 4, 67, 120
6, 110168, Note_on_c, 4, 67, 0
6, 110208, Note_on_c, 4, 67, 120
6, 110360, Note_on_c, 4, 67, 0
6, 110400, Note_on_c, 4, 67, 120
6, 110552, Note_on_c, 4, 67, 0
6, 110592, Note_on_c, 4, 67, 120
6, 110784, Note_on_c, 4, 67, 0
6, 110784, Note_on_c, 4, 65, 120
6, 110936, Note_on_c, 4, 65, 0
6, 110976, Note_on_c, 4, 63, 120
6, 111128, Note_on_c, 4, 63, 0
6, 111168, Note_on_c, 4, 62, 120
6, 111320, Note_on_c, 4, 62, 0
6, 111360, Note_on_c, 4, 60, 120
6, 111552, Note_on_c, 4, 60, 0
6, 111552, Note_on_c, 4, 63, 120
6, 111704, Note_on_c, 4, 63, 0
6, 111744, Note_on_c, 4, 63, 120
6, 111896, Note_on_c, 4, 63, 0
6, 111936, Note_on_c, 4, 63, 120
6, 112088, Note_on_c, 4, 63, 0
6, 112128, Note_on_c, 4, 63, 120
6, 112320, Note_on_c, 4, 63, 0
6, 112320, Note_on_c, 4, 62, 120
6, 112472, Note_on_c, 4, 62, 0
6, 112512, Note_on_c, 4, 65, 120
6, 112664, Note_on_c, 4, 65, 0
6, 112704, Note_on_c, 4, 58, 120
6, 112856, Note_on_c, 4, 58, 0
6, 112896, Note_on_c, 4, 62, 120
6, 113088, Note_on_c, 4, 62, 0
6, 113088, Note_on_c, 4, 60, 120
6, 113240, Note_on_c, 4, 60, 0
6, 113280, Note_on_c, 4, 58, 120
6, 113432, Note_on_c, 4, 58, 0
6, 113472, Note_on_c, 4, 57, 120
6, 113624, Note_on_c, 4, 57, 0
6, 113664, Note_on_c, 4, 58, 120
6, 113856, Note_on_c, 4, 58, 0
6, 113856, Note_on_c, 4, 60, 120
6, 113952, Note_on_c, 4, 60, 0
6, 113952, Note_on_c, 4, 62, 120
6, 114048, Note_on_c, 4, 62, 0
6, 114048, Note_on_c, 4, 63, 120
6, 114144, Note_on_c, 4, 63, 0
6, 114144, Note_on_c, 4, 65, 120
6, 114240, Note_on_c, 4, 65, 0
6, 114240, Note_on_c, 4, 67, 120
6, 114336, Note_on_c, 4, 67, 0
6, 114336, Note_on_c, 4, 69, 120
6, 114432, Note_on_c, 4, 69, 0
6, 114432, Note_on_c, 4, 70, 120
6, 114736, Note_on_c, 4, 70, 0
6, 115200, Note_on_c, 4, 55, 120
6, 115392, Note_on_c, 4, 55, 0
6, 115392, Note_on_c, 4, 57, 120
6, 115488, Note_on_c, 4, 57, 0
6, 115488, Note_on_c, 4, 58, 120
6, 115584, Note_on_c, 4, 58, 0
6, 115584, Note_on_c, 4, 60, 120
6, 115680, Note_on_c, 4, 60, 0
6, 115680, Note_on_c, 4, 62, 120
6, 115776, Note_on_c, 4, 62, 0
6, 115776, Note_on_c, 4, 63, 120
6, 115872, Note_on_c, 4, 63, 0
6, 115872, Note_on_c, 4, 65, 120
6, 115968, Note_on_c, 4, 65, 0
6, 115968, Note_on_c, 4, 67, 120
6, 116272, Note_on_c, 4, 67, 0
6, 116736, Note_on_c, 4, 65, 120
6, 117004, Note_on_c, 4, 65, 0
6, 117120, Note_on_c, 4, 62, 120
6, 117120, Note_on_c, 4, 70, 120
6, 117388, Note_on_c, 4, 70, 0
6, 117388, Note_on_c, 4, 62, 0
6, 117504, Note_on_c, 4, 67, 120
6, 117772, Note_on_c, 4, 67, 0
6, 117888, Note_on_c, 4, 65, 120
6, 117888, Note_on_c, 4, 75, 120
6, 118156, Note_on_c, 4, 75, 0
6, 118156, Note_on_c, 4, 65, 0
6, 118272, Note_on_c, 4, 65, 120
6, 118272, Note_on_c, 4, 74, 120
6, 118424, Note_on_c, 4, 74, 0
6, 118424, Note_on_c, 4, 65, 0
6, 118464, Note_on_c, 4, 65, 120
6, 118464, Note_on_c, 4, 74, 120
6, 118768, Note_on_c, 4, 74, 0
6, 118768, Note_on_c, 4, 65, 0
6, 118848, Note_on_c, 4, 65, 120
6, 118848, Note_on_c, 4, 74, 120
6, 119152, Note_on_c, 4, 74, 0
6, 119152, Note_on_c, 4, 65, 0
6, 119232, Note_on_c, 4, 65, 120
6, 119232, Note_on_c, 4, 74, 120
6, 119536, Note_on_c, 4, 74, 0
6, 119536, Note_on_c, 4, 65, 0
6, 119616, Note_on_c, 4, 65, 120
6, 119616, Note_on_c, 4, 74, 120
6, 119808, Note_on_c, 4, 74, 0
6, 119808, Note_on_c, 4, 65, 0
6, 119808, Note_on_c, 4, 65, 120
6, 119808, Note_on_c, 4, 75, 120
6, 119960, Note_on_c, 4, 75, 0
6, 119960, Note_on_c, 4, 65, 0
6, 120000, Note_on_c, 4, 65, 120
6, 120000, Note_on_c, 4, 75, 120
6, 120304, Note_on_c, 4, 75, 0
6, 120304, Note_on_c, 4, 65, 0
6, 120384, Note_on_c, 4, 65, 120
6, 120384, Note_on_c, 4, 75, 120
6, 120688, Note_on_c, 4, 75, 0
6, 120688, Note_on_c, 4, 65, 0
6, 120768, Note_on_c, 4, 65, 120
6, 120768, Note_on_c, 4, 75, 120
6, 121072, Note_on_c, 4, 75, 0
6, 121072, Note_on_c, 4, 65, 0
6, 121152, Note_on_c, 4, 65, 120
6, 121152, Note_on_c, 4, 75, 120
6, 121304, Note_on_c, 4, 75, 0
6, 121304, Note_on_c, 4, 65, 0
6, 121344, Note_on_c, 4, 74, 120
6, 121344, Note_on_c, 4, 65, 120
6, 121496, Note_on_c, 4, 65, 0
6, 121496, Note_on_c, 4, 74, 0
6, 121536, Note_on_c, 4, 74, 120
6, 121536, Note_on_c, 4, 65, 120
6, 121840, Note_on_c, 4, 65, 0
6, 121840, Note_on_c, 4, 74, 0
6, 121920, Note_on_c, 4, 74, 120
6, 121920, Note_on_c, 4, 65, 120
6, 122224, Note_on_c, 4, 65, 0
6, 122224, Note_on_c, 4, 74, 0
6, 122304, Note_on_c, 4, 74, 120
6, 122304, Note_on_c, 4, 65, 120
6, 122608, Note_on_c, 4, 65, 0
6, 122608, Note_on_c, 4, 74, 0
6, 122688, Note_on_c, 4, 74, 120
6, 122688, Note_on_c, 4, 65, 120
6, 122880, Note_on_c, 4, 65, 0
6, 122880, Note_on_c, 4, 74, 0
6, 122880, Note_on_c, 4, 75, 120
6, 122880, Note_on_c, 4, 65, 120
6, 123032, Note_on_c, 4, 65, 0
6, 123032, Note_on_c, 4, 75, 0
6, 123072, Note_on_c, 4, 75, 120
6, 123072, Note_on_c, 4, 65, 120
6, 123376, Note_on_c, 4, 65, 0
6, 123376, Note_on_c, 4, 75, 0
6, 123456, Note_on_c, 4, 75, 120
6, 123456, Note_on_c, 4, 65, 120
6, 123760, Note_on_c, 4, 65, 0
6, 123760, Note_on_c, 4, 75, 0
6, 123840, Note_on_c, 4, 75, 120
6, 123840, Note_on_c, 4, 65, 120
6, 124144, Note_on_c, 4, 65, 0
6, 124144, Note_on_c, 4, 75, 0
6, 124224, Note_on_c, 4, 75, 120
6, 124224, Note_on_c, 4, 65, 120
6, 124376, Note_on_c, 4, 65, 0
6, 124376, Note_on_c, 4, 75, 0
6, 124416, Note_on_c, 4, 65, 120
6, 124416, Note_on_c, 4, 74, 120
6, 124720, Note_on_c, 4, 74, 0
6, 124720, Note_on_c, 4, 65, 0
6, 124800, Note_on_c, 4, 70, 127
6, 124896, Note_on_c, 4, 70, 0
6, 124896, Note_on_c, 4, 70, 127
6, 124992, Note_on_c, 4, 70, 0
6, 124992, Note_on_c, 4, 70, 127
6, 125088, Note_on_c, 4, 70, 0
6, 125088, Note_on_c, 4, 70, 127
6, 125184, Note_on_c, 4, 70, 0
6, 125184, Note_on_c, 4, 72, 127
6, 125280, Note_on_c, 4, 72, 0
6, 125280, Note_on_c, 4, 72, 127
6, 125376, Note_on_c, 4, 72, 0
6, 125376, Note_on_c, 4, 72, 127
6, 125472, Note_on_c, 4, 72, 0
6, 125472, Note_on_c, 4, 72, 127
6, 125568, Note_on_c, 4, 72, 0
6, 125568, Note_on_c, 4, 74, 127
6, 125664, Note_on_c, 4, 74, 0
6, 125664, Note_on_c, 4, 74, 127
6, 125760, Note_on_c, 4, 74, 0
6, 125760, Note_on_c, 4, 74, 127
6, 125856, Note_on_c, 4, 74, 0
6, 125856, Note_on_c, 4, 74, 127
6, 125952, Note_on_c, 4, 74, 0
6, 125952, Note_on_c, 4, 75, 127
6, 126048, Note_on_c, 4, 75, 0
6, 126048, Note_on_c, 4, 75, 127
6, 126144, Note_on_c, 4, 75, 0
6, 126144, Note_on_c, 4, 75, 126
6, 126240, Note_on_c, 4, 75, 0
6, 126240, Note_on_c, 4, 75, 126
6, 126336, Note_on_c, 4, 75, 0
6, 126336, Note_on_c, 4, 72, 125
6, 126432, Note_on_c, 4, 72, 0
6, 126432, Note_on_c, 4, 72, 125
6, 126528, Note_on_c, 4, 72, 0
6, 126528, Note_on_c, 4, 72, 124
6, 126624, Note_on_c, 4, 72, 0
6, 126624, Note_on_c, 4, 72, 124
6, 126720, Note_on_c, 4, 72, 0
6, 126720, Note_on_c, 4, 69, 123
6, 126816, Note_on_c, 4, 69, 0
6, 126816, Note_on_c, 4, 69, 123
6, 126912, Note_on_c, 4, 69, 0
6, 126912, Note_on_c, 4, 69, 123
6, 127008, Note_on_c, 4, 69, 0
6, 127008, Note_on_c, 4, 69, 122
6, 127104, Note_on_c, 4, 69, 0
6, 127104, Note_on_c, 4, 78, 122
6, 127200, Note_on_c, 4, 78, 0
6, 127200, Note_on_c, 4, 78, 121
6, 127296, Note_on_c, 4, 78, 0
6, 127296, Note_on_c, 4, 78, 121
6, 127392, Note_on_c, 4, 78, 0
6, 127392, Note_on_c, 4, 78, 120
6, 127488, Note_on_c, 4, 78, 0
6, 127488, Note_on_c, 4, 79, 120
6, 127640, Note_on_c, 4, 79, 0
6, 127680, Note_on_c, 4, 79, 120
6, 127984, Note_on_c, 4, 79, 0
6, 128064, Note_on_c, 4, 79, 120
6, 128368, Note_on_c, 4, 79, 0
6, 128448, Note_on_c, 4, 79, 120
6, 128752, Note_on_c, 4, 79, 0
6, 128832, Note_on_c, 4, 79, 120
6, 128984, Note_on_c, 4, 79, 0
6, 129024, Note_on_c, 4, 74, 120
6, 129176, Note_on_c, 4, 74, 0
6, 129216, Note_on_c, 4, 74, 120
6, 129520, Note_on_c, 4, 74, 0
6, 129600, Note_on_c, 4, 74, 120
6, 129904, Note_on_c, 4, 74, 0
6, 129984, Note_on_c, 4, 74, 120
6, 130288, Note_on_c, 4, 74, 0
6, 130368, Note_on_c, 4, 74, 120
6, 130520, Note_on_c, 4, 74, 0
6, 130560, Note_on_c, 4, 75, 120
6, 130712, Note_on_c, 4, 75, 0
6, 130752, Note_on_c, 4, 75, 120
6, 131056, Note_on_c, 4, 75, 0
6, 131136, Note_on_c, 4, 75, 120
6, 131440, Note_on_c, 4, 75, 0
6, 131520, Note_on_c, 4, 75, 120
6, 131824, Note_on_c, 4, 75, 0
6, 131904, Note_on_c, 4, 75, 120
6, 132056, Note_on_c, 4, 75, 0
6, 132096, Note_on_c, 4, 66, 120
6, 132248, Note_on_c, 4, 66, 0
6, 132288, Note_on_c, 4, 66, 120
6, 132592, Note_on_c, 4, 66, 0
6, 132672, Note_on_c, 4, 66, 120
6, 132976, Note_on_c, 4, 66, 0
6, 133056, Note_on_c, 4, 66, 120
6, 133360, Note_on_c, 4, 66, 0
6, 133440, Note_on_c, 4, 66, 120
6, 133592, Note_on_c, 4, 66, 0
6, 133632, Note_on_c, 4, 67, 120
6, 133784, Note_on_c, 4, 67, 0
6, 133824, Note_on_c, 4, 70, 120
6, 133976, Note_on_c, 4, 70, 0
6, 134016, Note_on_c, 4, 74, 120
6, 134168, Note_on_c, 4, 74, 0
6, 134208, Note_on_c, 4, 79, 120
6, 134360, Note_on_c, 4, 79, 0
6, 134400, Note_on_c, 4, 82, 120
6, 134496, Note_on_c, 4, 82, 0
6, 134496, Note_on_c, 4, 81, 120
6, 134592, Note_on_c, 4, 81, 0
6, 134592, Note_on_c, 4, 79, 120
6, 134688, Note_on_c, 4, 79, 0
6, 134688, Note_on_c, 4, 78, 120
6, 134784, Note_on_c, 4, 78, 0
6, 134784, Note_on_c, 4, 79, 120
6, 134976, Note_on_c, 4, 79, 0
6, 135168, Note_on_c, 4, 67, 120
6, 135320, Note_on_c, 4, 67, 0
6, 135360, Note_on_c, 4, 70, 120
6, 135512, Note_on_c, 4, 70, 0
6, 135552, Note_on_c, 4, 74, 120
6, 135704, Note_on_c, 4, 74, 0
6, 135744, Note_on_c, 4, 79, 120
6, 135896, Note_on_c, 4, 79, 0
6, 135936, Note_on_c, 4, 82, 120
6, 136032, Note_on_c, 4, 82, 0
6, 136032, Note_on_c, 4, 81, 120
6, 136128, Note_on_c, 4, 81, 0
6, 136128, Note_on_c, 4, 79, 120
6, 136224, Note_on_c, 4, 79, 0
6, 136224, Note_on_c, 4, 78, 120
6, 136320, Note_on_c, 4, 78, 0
6, 136320, Note_on_c, 4, 79, 120
6, 136512, Note_on_c, 4, 79, 0
6, 136704, Note_on_c, 4, 69, 120
6, 136856, Note_on_c, 4, 69, 0
6, 136896, Note_on_c, 4, 72, 120
6, 137048, Note_on_c, 4, 72, 0
6, 137088, Note_on_c, 4, 78, 120
6, 137240, Note_on_c, 4, 78, 0
6, 137280, Note_on_c, 4, 81, 120
6, 137432, Note_on_c, 4, 81, 0
6, 137472, Note_on_c, 4, 84, 120
6, 137568, Note_on_c, 4, 84, 0
6, 137568, Note_on_c, 4, 82, 120
6, 137664, Note_on_c, 4, 82, 0
6, 137664, Note_on_c, 4, 81, 120
6, 137760, Note_on_c, 4, 81, 0
6, 137760, Note_on_c, 4, 79, 120
6, 137856, Note_on_c, 4, 79, 0
6, 137856, Note_on_c, 4, 81, 120
6, 138048, Note_on_c, 4, 81, 0
6, 138240, Note_on_c, 4, 69, 120
6, 138392, Note_on_c, 4, 69, 0
6, 138432, Note_on_c, 4, 72, 120
6, 138584, Note_on_c, 4, 72, 0
6, 138624, Note_on_c, 4, 78, 120
6, 138776, Note_on_c, 4, 78, 0
6, 138816, Note_on_c, 4, 81, 120
6, 138968, Note_on_c, 4, 81, 0
6, 139008, Note_on_c, 4, 84, 120
6, 139104, Note_on_c, 4, 84, 0
6, 139104, Note_on_c, 4, 82, 120
6, 139200, Note_on_c, 4, 82, 0
6, 139200, Note_on_c, 4, 81, 120
6, 139296, Note_on_c, 4, 81, 0
6, 139296, Note_on_c, 4, 79, 120
6, 139392, Note_on_c, 4, 79, 0
6, 139392, Note_on_c, 4, 81, 120
6, 139584, Note_on_c, 4, 81, 0
6, 139776, Note_on_c, 4, 70, 120
6, 139928, Note_on_c, 4, 70, 0
6, 139968, Note_on_c, 4, 74, 120
6, 140120, Note_on_c, 4, 74, 0
6, 140160, Note_on_c, 4, 79, 120
6, 140312, Note_on_c, 4, 79, 0
6, 140352, Note_on_c, 4, 82, 120
6, 140504, Note_on_c, 4, 82, 0
6, 140544, Note_on_c, 4, 86, 120
6, 140640, Note_on_c, 4, 86, 0
6, 140640, Note_on_c, 4, 84, 120
6, 140736, Note_on_c, 4, 84, 0
6, 140736, Note_on_c, 4, 82, 120
6, 140832, Note_on_c, 4, 82, 0
6, 140832, Note_on_c, 4, 81, 120
6, 140928, Note_on_c, 4, 81, 0
6, 140928, Note_on_c, 4, 82, 120
6, 141120, Note_on_c, 4, 82, 0
6, 141312, Note_on_c, 4, 82, 120
6, 141408, Note_on_c, 4, 82, 0
6, 141408, Note_on_c, 4, 81, 120
6, 141504, Note_on_c, 4, 81, 0
6, 141504, Note_on_c, 4, 79, 120
6, 141600, Note_on_c, 4, 79, 0
6, 141600, Note_on_c, 4, 78, 120
6, 141696, Note_on_c, 4, 78, 0
6, 141696, Note_on_c, 4, 79, 120
6, 141888, Note_on_c, 4, 79, 0
6, 142080, Note_on_c, 4, 79, 120
6, 142176, Note_on_c, 4, 79, 0
6, 142176, Note_on_c, 4, 77, 120
6, 142272, Note_on_c, 4, 77, 0
6, 142272, Note_on_c, 4, 75, 120
6, 142368, Note_on_c, 4, 75, 0
6, 142368, Note_on_c, 4, 74, 120
6, 142464, Note_on_c, 4, 74, 0
6, 142464, Note_on_c, 4, 75, 120
6, 142560, Note_on_c, 4, 75, 0
6, 142560, Note_on_c, 4, 74, 120
6, 142656, Note_on_c, 4, 74, 0
6, 142656, Note_on_c, 4, 72, 120
6, 142752, Note_on_c, 4, 72, 0
6, 142752, Note_on_c, 4, 70, 120
6, 142848, Note_on_c, 4, 70, 0
6, 142848, Note_on_c, 4, 72, 120
6, 143048, Note_on_c, 4, 72, 0
6, 143136, Note_on_c, 4, 72, 120
6, 143212, Note_on_c, 4, 72, 0
6, 143232, Note_on_c, 4, 70, 120
6, 143432, Note_on_c, 4, 70, 0
6, 143520, Note_on_c, 4, 70, 120
6, 143596, Note_on_c, 4, 70, 0
6, 143616, Note_on_c, 4, 69, 120
6, 143816, Note_on_c, 4, 69, 0
6, 143904, Note_on_c, 4, 69, 120
6, 143980, Note_on_c, 4, 69, 0
6, 144000, Note_on_c, 4, 67, 120
6, 144200, Note_on_c, 4, 67, 0
6, 144288, Note_on_c, 4, 67, 120
6, 144364, Note_on_c, 4, 67, 0
6, 144384, Note_on_c, 4, 66, 120
6, 144576, Note_on_c, 4, 66, 0
6, 144768, Note_on_c, 4, 74, 96
6, 144960, Note_on_c, 4, 74, 0
6, 145920, Note_on_c, 4, 79, 120
6, 146072, Note_on_c, 4, 79, 0
6, 146112, Note_on_c, 4, 79, 120
6, 146416, Note_on_c, 4, 79, 0
6, 146496, Note_on_c, 4, 79, 120
6, 146800, Note_on_c, 4, 79, 0
6, 146880, Note_on_c, 4, 79, 120
6, 147184, Note_on_c, 4, 79, 0
6, 147264, Note_on_c, 4, 79, 120
6, 147416, Note_on_c, 4, 79, 0
6, 147456, Note_on_c, 4, 74, 120
6, 147608, Note_on_c, 4, 74, 0
6, 147648, Note_on_c, 4, 74, 120
6, 147952, Note_on_c, 4, 74, 0
6, 148032, Note_on_c, 4, 74, 120
6, 148336, Note_on_c, 4, 74, 0
6, 148416, Note_on_c, 4, 74, 120
6, 148720, Note_on_c, 4, 74, 0
6, 148800, Note_on_c, 4, 74, 120
6, 148952, Note_on_c, 4, 74, 0
6, 148992, Note_on_c, 4, 75, 120
6, 149144, Note_on_c, 4, 75, 0
6, 149184, Note_on_c, 4, 75, 120
6, 149488, Note_on_c, 4, 75, 0
6, 149568, Note_on_c, 4, 75, 120
6, 149872, Note_on_c, 4, 75, 0
6, 149952, Note_on_c, 4, 75, 120
6, 150256, Note_on_c, 4, 75, 0
6, 150336, Note_on_c, 4, 75, 120
6, 150488, Note_on_c, 4, 75, 0
6, 150528, Note_on_c, 4, 66, 120
6, 150680, Note_on_c, 4, 66, 0
6, 150720, Note_on_c, 4, 66, 120
6, 151024, Note_on_c, 4, 66, 0
6, 151104, Note_on_c, 4, 66, 120
6, 151408, Note_on_c, 4, 66, 0
6, 151488, Note_on_c, 4, 66, 120
6, 151792, Note_on_c, 4, 66, 0
6, 151872, Note_on_c, 4, 66, 120
6, 152024, Note_on_c, 4, 66, 0
6, 152064, Note_on_c, 4, 67, 120
6, 152332, Note_on_c, 4, 67, 0
6, 152448, Note_on_c, 4, 58, 64
6, 152752, Note_on_c, 4, 58, 0
6, 152832, Note_on_c, 4, 58, 64
6, 153136, Note_on_c, 4, 58, 0
6, 153216, Note_on_c, 4, 58, 64
6, 153520, Note_on_c, 4, 58, 0
6, 153984, Note_on_c, 4, 58, 64
6, 154288, Note_on_c, 4, 58, 0
6, 154368, Note_on_c, 4, 58, 64
6, 154672, Note_on_c, 4, 58, 0
6, 154752, Note_on_c, 4, 58, 64
6, 155056, Note_on_c, 4, 58, 0
6, 155520, Note_on_c, 4, 60, 64
6, 155824, Note_on_c, 4, 60, 0
6, 155904, Note_on_c, 4, 60, 64
6, 156208, Note_on_c, 4, 60, 0
6, 156288, Note_on_c, 4, 60, 64
6, 156592, Note_on_c, 4, 60, 0
6, 157056, Note_on_c, 4, 57, 64
6, 157360, Note_on_c, 4, 57, 0
6, 157440, Note_on_c, 4, 57, 64
6, 157744, Note_on_c, 4, 57, 0
6, 157824, Note_on_c, 4, 57, 64
6, 158128, Note_on_c, 4, 57, 0
6, 158592, Note_on_c, 4, 55, 64
6, 158896, Note_on_c, 4, 55, 0
6, 158976, Note_on_c, 4, 55, 64
6, 159280, Note_on_c, 4, 55, 0
6, 159360, Note_on_c, 4, 55, 64
6, 159664, Note_on_c, 4, 55, 0
6, 160128, Note_on_c, 4, 58, 64
6, 160432, Note_on_c, 4, 58, 0
6, 160512, Note_on_c, 4, 58, 64
6, 160816, Note_on_c, 4, 58, 0
6, 160896, Note_on_c, 4, 58, 64
6, 161200, Note_on_c, 4, 58, 0
6, 161664, Note_on_c, 4, 61, 64
6, 161968, Note_on_c, 4, 61, 0
6, 162048, Note_on_c, 4, 61, 64
6, 162352, Note_on_c, 4, 61, 0
6, 162432, Note_on_c, 4, 61, 64
6, 162736, Note_on_c, 4, 61, 0
6, 163200, Note_on_c, 4, 67, 64
6, 163504, Note_on_c, 4, 67, 0
6, 163584, Note_on_c, 4, 67, 64
6, 163888, Note_on_c, 4, 67, 0
6, 163968, Note_on_c, 4, 55, 64
6, 164272, Note_on_c, 4, 55, 0
6, 164352, Note_on_c, 4, 57, 64
6, 164928, Note_on_c, 4, 57, 0
6, 164928, Note_on_c, 4, 58, 61
6, 165120, Note_on_c, 4, 58, 0
6, 165120, Note_on_c, 4, 57, 60
6, 165312, Note_on_c, 4, 57, 0
6, 165312, Note_on_c, 4, 58, 59
6, 165504, Note_on_c, 4, 58, 0
6, 165504, Note_on_c, 4, 57, 58
6, 165696, Note_on_c, 4, 57, 0
6, 165696, Note_on_c, 4, 58, 57
6, 165888, Note_on_c, 4, 58, 0
6, 165888, Note_on_c, 4, 57, 56
6, 166464, Note_on_c, 4, 57, 0
6, 166464, Note_on_c, 4, 58, 53
6, 166656, Note_on_c, 4, 58, 0
6, 166656, Note_on_c, 4, 57, 52
6, 166848, Note_on_c, 4, 57, 0
6, 166848, Note_on_c, 4, 58, 51
6, 167040, Note_on_c, 4, 58, 0
6, 167040, Note_on_c, 4, 57, 50
6, 167232, Note_on_c, 4, 57, 0
6, 167232, Note_on_c, 4, 58, 49
6, 167424, Note_on_c, 4, 58, 0
6, 167424, Note_on_c, 4, 57, 48
6, 167728, Note_on_c, 4, 57, 0
6, 168192, Note_on_c, 4, 57, 42
6, 168496, Note_on_c, 4, 57, 0
6, 168960, Note_on_c, 4, 57, 32
6, 169264, Note_on_c, 4, 57, 0
6, 170496, Note_on_c, 4, 65, 100
6, 170496, Note_on_c, 4, 62, 100
6, 170592, Note_on_c, 4, 62, 0
6, 170592, Note_on_c, 4, 65, 0
6, 170592, Note_on_c, 4, 65, 100
6, 170592, Note_on_c, 4, 62, 100
6, 170688, Note_on_c, 4, 62, 0
6, 170688, Note_on_c, 4, 65, 0
6, 170688, Note_on_c, 4, 65, 100
6, 170688, Note_on_c, 4, 62, 100
6, 170784, Note_on_c, 4, 62, 0
6, 170784, Note_on_c, 4, 65, 0
6, 170784, Note_on_c, 4, 65, 100
6, 170784, Note_on_c, 4, 62, 100
6, 170880, Note_on_c, 4, 62, 0
6, 170880, Note_on_c, 4, 65, 0
6, 170880, Note_on_c, 4, 65, 100
6, 170880, Note_on_c, 4, 62, 100
6, 170976, Note_on_c, 4, 62, 0
6, 170976, Note_on_c, 4, 65, 0
6, 170976, Note_on_c, 4, 65, 100
6, 170976, Note_on_c, 4, 62, 100
6, 171072, Note_on_c, 4, 62, 0
6, 171072, Note_on_c, 4, 65, 0
6, 171072, Note_on_c, 4, 65, 100
6, 171072, Note_on_c, 4, 62, 100
6, 171168, Note_on_c, 4, 62, 0
6, 171168, Note_on_c, 4, 65, 0
6, 171168, Note_on_c, 4, 65, 100
6, 171168, Note_on_c, 4, 62, 100
6, 171264, Note_on_c, 4, 62, 0
6, 171264, Note_on_c, 4, 65, 0
6, 171264, Note_on_c, 4, 65, 100
6, 171264, Note_on_c, 4, 62, 100
6, 171360, Note_on_c, 4, 62, 0
6, 171360, Note_on_c, 4, 65, 0
6, 171360, Note_on_c, 4, 65, 100
6, 171360, Note_on_c, 4, 62, 100
6, 171456, Note_on_c, 4, 62, 0
6, 171456, Note_on_c, 4, 65, 0
6, 171456, Note_on_c, 4, 65, 100
6, 171456, Note_on_c, 4, 62, 100
6, 171552, Note_on_c, 4, 62, 0
6, 171552, Note_on_c, 4, 65, 0
6, 171552, Note_on_c, 4, 65, 100
6, 171552, Note_on_c, 4, 62, 100
6, 171648, Note_on_c, 4, 62, 0
6, 171648, Note_on_c, 4, 65, 0
6, 171648, Note_on_c, 4, 65, 100
6, 171648, Note_on_c, 4, 62, 100
6, 171744, Note_on_c, 4, 62, 0
6, 171744, Note_on_c, 4, 65, 0
6, 171744, Note_on_c, 4, 65, 100
6, 171744, Note_on_c, 4, 62, 100
6, 171840, Note_on_c, 4, 62, 0
6, 171840, Note_on_c, 4, 65, 0
6, 171840, Note_on_c, 4, 65, 100
6, 171840, Note_on_c, 4, 62, 100
6, 171936, Note_on_c, 4, 62, 0
6, 171936, Note_on_c, 4, 65, 0
6, 171936, Note_on_c, 4, 65, 100
6, 171936, Note_on_c, 4, 62, 100
6, 172032, Note_on_c, 4, 62, 0
6, 172032, Note_on_c, 4, 65, 0
6, 172032, Note_on_c, 4, 62, 100
6, 172032, Note_on_c, 4, 65, 100
6, 172128, Note_on_c, 4, 65, 0
6, 172128, Note_on_c, 4, 62, 0
6, 172128, Note_on_c, 4, 62, 100
6, 172128, Note_on_c, 4, 65, 100
6, 172224, Note_on_c, 4, 65, 0
6, 172224, Note_on_c, 4, 62, 0
6, 172224, Note_on_c, 4, 62, 100
6, 172224, Note_on_c, 4, 65, 100
6, 172320, Note_on_c, 4, 65, 0
6, 172320, Note_on_c, 4, 62, 0
6, 172320, Note_on_c, 4, 62, 100
6, 172320, Note_on_c, 4, 65, 100
6, 172416, Note_on_c, 4, 65, 0
6, 172416, Note_on_c, 4, 62, 0
6, 172416, Note_on_c, 4, 62, 100
6, 172416, Note_on_c, 4, 65, 100
6, 172512, Note_on_c, 4, 65, 0
6, 172512, Note_on_c, 4, 62, 0
6, 172512, Note_on_c, 4, 62, 100
6, 172512, Note_on_c, 4, 65, 100
6, 172608, Note_on_c, 4, 65, 0
6, 172608, Note_on_c, 4, 62, 0
6, 172608, Note_on_c, 4, 62, 100
6, 172608, Note_on_c, 4, 65, 100
6, 172704, Note_on_c, 4, 65, 0
6, 172704, Note_on_c, 4, 62, 0
6, 172704, Note_on_c, 4, 62, 100
6, 172704, Note_on_c, 4, 65, 100
6, 172800, Note_on_c, 4, 65, 0
6, 172800, Note_on_c, 4, 62, 0
6, 172800, Note_on_c, 4, 62, 100
6, 172800, Note_on_c, 4, 65, 100
6, 172896, Note_on_c, 4, 65, 0
6, 172896, Note_on_c, 4, 62, 0
6, 172896, Note_on_c, 4, 62, 100
6, 172896, Note_on_c, 4, 65, 100
6, 172992, Note_on_c, 4, 65, 0
6, 172992, Note_on_c, 4, 62, 0
6, 172992, Note_on_c, 4, 62, 100
6, 172992, Note_on_c, 4, 65, 100
6, 173088, Note_on_c, 4, 65, 0
6, 173088, Note_on_c, 4, 62, 0
6, 173088, Note_on_c, 4, 62, 100
6, 173088, Note_on_c, 4, 65, 100
6, 173184, Note_on_c, 4, 65, 0
6, 173184, Note_on_c, 4, 62, 0
6, 173184, Note_on_c, 4, 62, 100
6, 173184, Note_on_c, 4, 65, 100
6, 173280, Note_on_c, 4, 65, 0
6, 173280, Note_on_c, 4, 62, 0
6, 173280, Note_on_c, 4, 62, 100
6, 173280, Note_on_c, 4, 65, 100
6, 173376, Note_on_c, 4, 65, 0
6, 173376, Note_on_c, 4, 62, 0
6, 173376, Note_on_c, 4, 62, 100
6, 173376, Note_on_c, 4, 65, 100
6, 173472, Note_on_c, 4, 65, 0
6, 173472, Note_on_c, 4, 62, 0
6, 173472, Note_on_c, 4, 62, 100
6, 173472, Note_on_c, 4, 65, 100
6, 173568, Note_on_c, 4, 65, 0
6, 173568, Note_on_c, 4, 62, 0
6, 173568, Note_on_c, 4, 65, 100
6, 173568, Note_on_c, 4, 57, 100
6, 173664, Note_on_c, 4, 57, 0
6, 173664, Note_on_c, 4, 65, 0
6, 173664, Note_on_c, 4, 65, 100
6, 173664, Note_on_c, 4, 57, 100
6, 173760, Note_on_c, 4, 57, 0
6, 173760, Note_on_c, 4, 65, 0
6, 173760, Note_on_c, 4, 65, 100
6, 173760, Note_on_c, 4, 57, 100
6, 173856, Note_on_c, 4, 57, 0
6, 173856, Note_on_c, 4, 65, 0
6, 173856, Note_on_c, 4, 65, 100
6, 173856, Note_on_c, 4, 57, 100
6, 173952, Note_on_c, 4, 57, 0
6, 173952, Note_on_c, 4, 65, 0
6, 173952, Note_on_c, 4, 65, 100
6, 173952, Note_on_c, 4, 57, 100
6, 174048, Note_on_c, 4, 57, 0
6, 174048, Note_on_c, 4, 65, 0
6, 174048, Note_on_c, 4, 65, 100
6, 174048, Note_on_c, 4, 57, 100
6, 174144, Note_on_c, 4, 57, 0
6, 174144, Note_on_c, 4, 65, 0
6, 174144, Note_on_c, 4, 65, 100
6, 174144, Note_on_c, 4, 57, 100
6, 174240, Note_on_c, 4, 57, 0
6, 174240, Note_on_c, 4, 65, 0
6, 174240, Note_on_c, 4, 65, 100
6, 174240, Note_on_c, 4, 57, 100
6, 174336, Note_on_c, 4, 57, 0
6, 174336, Note_on_c, 4, 65, 0
6, 174336, Note_on_c, 4, 65, 100
6, 174336, Note_on_c, 4, 57, 100
6, 174432, Note_on_c, 4, 57, 0
6, 174432, Note_on_c, 4, 65, 0
6, 174432, Note_on_c, 4, 65, 100
6, 174432, Note_on_c, 4, 57, 100
6, 174528, Note_on_c, 4, 57, 0
6, 174528, Note_on_c, 4, 65, 0
6, 174528, Note_on_c, 4, 65, 100
6, 174528, Note_on_c, 4, 57, 100
6, 174624, Note_on_c, 4, 57, 0
6, 174624, Note_on_c, 4, 65, 0
6, 174624, Note_on_c, 4, 65, 100
6, 174624, Note_on_c, 4, 57, 100
6, 174720, Note_on_c, 4, 57, 0
6, 174720, Note_on_c, 4, 65, 0
6, 174720, Note_on_c, 4, 65, 100
6, 174720, Note_on_c, 4, 57, 100
6, 174816, Note_on_c, 4, 57, 0
6, 174816, Note_on_c, 4, 65, 0
6, 174816, Note_on_c, 4, 65, 100
6, 174816, Note_on_c, 4, 57, 100
6, 174912, Note_on_c, 4, 57, 0
6, 174912, Note_on_c, 4, 65, 0
6, 174912, Note_on_c, 4, 65, 100
6, 174912, Note_on_c, 4, 57, 100
6, 175008, Note_on_c, 4, 57, 0
6, 175008, Note_on_c, 4, 65, 0
6, 175008, Note_on_c, 4, 65, 100
6, 175008, Note_on_c, 4, 57, 100
6, 175104, Note_on_c, 4, 57, 0
6, 175104, Note_on_c, 4, 65, 0
6, 175104, Note_on_c, 4, 57, 100
6, 175104, Note_on_c, 4, 65, 100
6, 175200, Note_on_c, 4, 65, 0
6, 175200, Note_on_c, 4, 57, 0
6, 175200, Note_on_c, 4, 57, 100
6, 175200, Note_on_c, 4, 65, 100
6, 175296, Note_on_c, 4, 65, 0
6, 175296, Note_on_c, 4, 57, 0
6, 175296, Note_on_c, 4, 57, 100
6, 175296, Note_on_c, 4, 65, 100
6, 175392, Note_on_c, 4, 65, 0
6, 175392, Note_on_c, 4, 57, 0
6, 175392, Note_on_c, 4, 57, 100
6, 175392, Note_on_c, 4, 65, 100
6, 175488, Note_on_c, 4, 65, 0
6, 175488, Note_on_c, 4, 57, 0
6, 175488, Note_on_c, 4, 57, 100
6, 175488, Note_on_c, 4, 65, 100
6, 175584, Note_on_c, 4, 65, 0
6, 175584, Note_on_c, 4, 57, 0
6, 175584, Note_on_c, 4, 57, 100
6, 175584, Note_on_c, 4, 65, 100
6, 175680, Note_on_c, 4, 65, 0
6, 175680, Note_on_c, 4, 57, 0
6, 175680, Note_on_c, 4, 57, 100
6, 175680, Note_on_c, 4, 65, 100
6, 175776, Note_on_c, 4, 65, 0
6, 175776, Note_on_c, 4, 57, 0
6, 175776, Note_on_c, 4, 57, 100
6, 175776, Note_on_c, 4, 65, 100
6, 175872, Note_on_c, 4, 65, 0
6, 175872, Note_on_c, 4, 57, 0
6, 175872, Note_on_c, 4, 57, 100
6, 175872, Note_on_c, 4, 65, 100
6, 175968, Note_on_c, 4, 65, 0
6, 175968, Note_on_c, 4, 57, 0
6, 175968, Note_on_c, 4, 57, 100
6, 175968, Note_on_c, 4, 65, 100
6, 176064, Note_on_c, 4, 65, 0
6, 176064, Note_on_c, 4, 57, 0
6, 176064, Note_on_c, 4, 57, 100
6, 176064, Note_on_c, 4, 65, 100
6, 176160, Note_on_c, 4, 65, 0
6, 176160, Note_on_c, 4, 57, 0
6, 176160, Note_on_c, 4, 57, 100
6, 176160, Note_on_c, 4, 65, 100
6, 176256, Note_on_c, 4, 65, 0
6, 176256, Note_on_c, 4, 57, 0
6, 176256, Note_on_c, 4, 57, 100
6, 176256, Note_on_c, 4, 65, 100
6, 176352, Note_on_c, 4, 65, 0
6, 176352, Note_on_c, 4, 57, 0
6, 176352, Note_on_c, 4, 57, 100
6, 176352, Note_on_c, 4, 65, 100
6, 176448, Note_on_c, 4, 65, 0
6, 176448, Note_on_c, 4, 57, 0
6, 176448, Note_on_c, 4, 57, 100
6, 176448, Note_on_c, 4, 65, 100
6, 176544, Note_on_c, 4, 65, 0
6, 176544, Note_on_c, 4, 57, 0
6, 176544, Note_on_c, 4, 57, 100
6, 176544, Note_on_c, 4, 65, 100
6, 176640, Note_on_c, 4, 65, 0
6, 176640, Note_on_c, 4, 57, 0
6, 176640, Note_on_c, 4, 62, 100
6, 176640, Note_on_c, 4, 65, 100
6, 176736, Note_on_c, 4, 65, 0
6, 176736, Note_on_c, 4, 62, 0
6, 176736, Note_on_c, 4, 62, 100
6, 176736, Note_on_c, 4, 65, 100
6, 176832, Note_on_c, 4, 65, 0
6, 176832, Note_on_c, 4, 62, 0
6, 176832, Note_on_c, 4, 62, 100
6, 176832, Note_on_c, 4, 65, 100
6, 176928, Note_on_c, 4, 65, 0
6, 176928, Note_on_c, 4, 62, 0
6, 176928, Note_on_c, 4, 62, 100
6, 176928, Note_on_c, 4, 65, 100
6, 177024, Note_on_c, 4, 65, 0
6, 177024, Note_on_c, 4, 62, 0
6, 177024, Note_on_c, 4, 62, 100
6, 177024, Note_on_c, 4, 65, 100
6, 177120, Note_on_c, 4, 65, 0
6, 177120, Note_on_c, 4, 62, 0
6, 177120, Note_on_c, 4, 62, 100
6, 177120, Note_on_c, 4, 65, 100
6, 177216, Note_on_c, 4, 65, 0
6, 177216, Note_on_c, 4, 62, 0
6, 177216, Note_on_c, 4, 62, 100
6, 177216, Note_on_c, 4, 65, 100
6, 177312, Note_on_c, 4, 65, 0
6, 177312, Note_on_c, 4, 62, 0
6, 177312, Note_on_c, 4, 62, 100
6, 177312, Note_on_c, 4, 65, 100
6, 177408, Note_on_c, 4, 65, 0
6, 177408, Note_on_c, 4, 62, 0
6, 177408, Note_on_c, 4, 62, 100
6, 177408, Note_on_c, 4, 65, 100
6, 177504, Note_on_c, 4, 65, 0
6, 177504, Note_on_c, 4, 62, 0
6, 177504, Note_on_c, 4, 62, 100
6, 177504, Note_on_c, 4, 65, 100
6, 177600, Note_on_c, 4, 65, 0
6, 177600, Note_on_c, 4, 62, 0
6, 177600, Note_on_c, 4, 62, 100
6, 177600, Note_on_c, 4, 65, 100
6, 177696, Note_on_c, 4, 65, 0
6, 177696, Note_on_c, 4, 62, 0
6, 177696, Note_on_c, 4, 62, 100
6, 177696, Note_on_c, 4, 65, 100
6, 177792, Note_on_c, 4, 65, 0
6, 177792, Note_on_c, 4, 62, 0
6, 177792, Note_on_c, 4, 62, 100
6, 177792, Note_on_c, 4, 65, 100
6, 177888, Note_on_c, 4, 65, 0
6, 177888, Note_on_c, 4, 62, 0
6, 177888, Note_on_c, 4, 62, 100
6, 177888, Note_on_c, 4, 65, 100
6, 177984, Note_on_c, 4, 65, 0
6, 177984, Note_on_c, 4, 62, 0
6, 177984, Note_on_c, 4, 62, 100
6, 177984, Note_on_c, 4, 65, 100
6, 178080, Note_on_c, 4, 65, 0
6, 178080, Note_on_c, 4, 62, 0
6, 178080, Note_on_c, 4, 62, 100
6, 178080, Note_on_c, 4, 65, 100
6, 178176, Note_on_c, 4, 65, 0
6, 178176, Note_on_c, 4, 62, 0
6, 178176, Note_on_c, 4, 65, 100
6, 178176, Note_on_c, 4, 62, 100
6, 178272, Note_on_c, 4, 62, 0
6, 178272, Note_on_c, 4, 65, 0
6, 178272, Note_on_c, 4, 65, 100
6, 178272, Note_on_c, 4, 62, 100
6, 178368, Note_on_c, 4, 62, 0
6, 178368, Note_on_c, 4, 65, 0
6, 178368, Note_on_c, 4, 65, 100
6, 178368, Note_on_c, 4, 62, 100
6, 178464, Note_on_c, 4, 62, 0
6, 178464, Note_on_c, 4, 65, 0
6, 178464, Note_on_c, 4, 65, 100
6, 178464, Note_on_c, 4, 62, 100
6, 178560, Note_on_c, 4, 62, 0
6, 178560, Note_on_c, 4, 65, 0
6, 178560, Note_on_c, 4, 65, 100
6, 178560, Note_on_c, 4, 62, 100
6, 178656, Note_on_c, 4, 62, 0
6, 178656, Note_on_c, 4, 65, 0
6, 178656, Note_on_c, 4, 65, 100
6, 178656, Note_on_c, 4, 62, 100
6, 178752, Note_on_c, 4, 62, 0
6, 178752, Note_on_c, 4, 65, 0
6, 178752, Note_on_c, 4, 65, 100
6, 178752, Note_on_c, 4, 62, 100
6, 178848, Note_on_c, 4, 62, 0
6, 178848, Note_on_c, 4, 65, 0
6, 178848, Note_on_c, 4, 65, 100
6, 178848, Note_on_c, 4, 62, 100
6, 178944, Note_on_c, 4, 62, 0
6, 178944, Note_on_c, 4, 65, 0
6, 178944, Note_on_c, 4, 65, 100
6, 178944, Note_on_c, 4, 62, 100
6, 179040, Note_on_c, 4, 62, 0
6, 179040, Note_on_c, 4, 65, 0
6, 179040, Note_on_c, 4, 65, 100
6, 179040, Note_on_c, 4, 62, 100
6, 179136, Note_on_c, 4, 62, 0
6, 179136, Note_on_c, 4, 65, 0
6, 179136, Note_on_c, 4, 65, 100
6, 179136, Note_on_c, 4, 62, 100
6, 179232, Note_on_c, 4, 62, 0
6, 179232, Note_on_c, 4, 65, 0
6, 179232, Note_on_c, 4, 65, 100
6, 179232, Note_on_c, 4, 62, 100
6, 179328, Note_on_c, 4, 62, 0
6, 179328, Note_on_c, 4, 65, 0
6, 179328, Note_on_c, 4, 65, 100
6, 179328, Note_on_c, 4, 62, 100
6, 179424, Note_on_c, 4, 62, 0
6, 179424, Note_on_c, 4, 65, 0
6, 179424, Note_on_c, 4, 65, 100
6, 179424, Note_on_c, 4, 62, 100
6, 179520, Note_on_c, 4, 62, 0
6, 179520, Note_on_c, 4, 65, 0
6, 179520, Note_on_c, 4, 65, 100
6, 179520, Note_on_c, 4, 62, 100
6, 179616, Note_on_c, 4, 62, 0
6, 179616, Note_on_c, 4, 65, 0
6, 179616, Note_on_c, 4, 65, 100
6, 179616, Note_on_c, 4, 62, 100
6, 179712, Note_on_c, 4, 62, 0
6, 179712, Note_on_c, 4, 65, 0
6, 179712, Note_on_c, 4, 57, 100
6, 179712, Note_on_c, 4, 65, 100
6, 179808, Note_on_c, 4, 65, 0
6, 179808, Note_on_c, 4, 57, 0
6, 179808, Note_on_c, 4, 57, 100
6, 179808, Note_on_c, 4, 65, 100
6, 179904, Note_on_c, 4, 65, 0
6, 179904, Note_on_c, 4, 57, 0
6, 179904, Note_on_c, 4, 57, 100
6, 179904, Note_on_c, 4, 65, 100
6, 180000, Note_on_c, 4, 65, 0
6, 180000, Note_on_c, 4, 57, 0
6, 180000, Note_on_c, 4, 57, 100
6, 180000, Note_on_c, 4, 65, 100
6, 180096, Note_on_c, 4, 65, 0
6, 180096, Note_on_c, 4, 57, 0
6, 180096, Note_on_c, 4, 57, 100
6, 180096, Note_on_c, 4, 65, 100
6, 180192, Note_on_c, 4, 65, 0
6, 180192, Note_on_c, 4, 57, 0
6, 180192, Note_on_c, 4, 57, 100
6, 180192, Note_on_c, 4, 65, 100
6, 180288, Note_on_c, 4, 65, 0
6, 180288, Note_on_c, 4, 57, 0
6, 180288, Note_on_c, 4, 57, 100
6, 180288, Note_on_c, 4, 65, 100
6, 180384, Note_on_c, 4, 65, 0
6, 180384, Note_on_c, 4, 57, 0
6, 180384, Note_on_c, 4, 57, 100
6, 180384, Note_on_c, 4, 65, 100
6, 180480, Note_on_c, 4, 65, 0
6, 180480, Note_on_c, 4, 57, 0
6, 180480, Note_on_c, 4, 57, 100
6, 180480, Note_on_c, 4, 65, 100
6, 180576, Note_on_c, 4, 65, 0
6, 180576, Note_on_c, 4, 57, 0
6, 180576, Note_on_c, 4, 57, 100
6, 180576, Note_on_c, 4, 65, 100
6, 180672, Note_on_c, 4, 65, 0
6, 180672, Note_on_c, 4, 57, 0
6, 180672, Note_on_c, 4, 57, 100
6, 180672, Note_on_c, 4, 65, 100
6, 180768, Note_on_c, 4, 65, 0
6, 180768, Note_on_c, 4, 57, 0
6, 180768, Note_on_c, 4, 57, 100
6, 180768, Note_on_c, 4, 65, 100
6, 180864, Note_on_c, 4, 65, 0
6, 180864, Note_on_c, 4, 57, 0
6, 180864, Note_on_c, 4, 57, 100
6, 180864, Note_on_c, 4, 65, 100
6, 180960, Note_on_c, 4, 65, 0
6, 180960, Note_on_c, 4, 57, 0
6, 180960, Note_on_c, 4, 57, 100
6, 180960, Note_on_c, 4, 65, 100
6, 181056, Note_on_c, 4, 65, 0
6, 181056, Note_on_c, 4, 57, 0
6, 181056, Note_on_c, 4, 57, 100
6, 181056, Note_on_c, 4, 65, 100
6, 181152, Note_on_c, 4, 65, 0
6, 181152, Note_on_c, 4, 57, 0
6, 181152, Note_on_c, 4, 57, 100
6, 181152, Note_on_c, 4, 65, 100
6, 181248, Note_on_c, 4, 65, 0
6, 181248, Note_on_c, 4, 57, 0
6, 181248, Note_on_c, 4, 65, 100
6, 181248, Note_on_c, 4, 57, 100
6, 181344, Note_on_c, 4, 57, 0
6, 181344, Note_on_c, 4, 65, 0
6, 181344, Note_on_c, 4, 65, 100
6, 181344, Note_on_c, 4, 57, 100
6, 181440, Note_on_c, 4, 57, 0
6, 181440, Note_on_c, 4, 65, 0
6, 181440, Note_on_c, 4, 65, 100
6, 181440, Note_on_c, 4, 57, 100
6, 181536, Note_on_c, 4, 57, 0
6, 181536, Note_on_c, 4, 65, 0
6, 181536, Note_on_c, 4, 65, 100
6, 181536, Note_on_c, 4, 57, 100
6, 181632, Note_on_c, 4, 57, 0
6, 181632, Note_on_c, 4, 65, 0
6, 181632, Note_on_c, 4, 65, 100
6, 181632, Note_on_c, 4, 57, 100
6, 181728, Note_on_c, 4, 57, 0
6, 181728, Note_on_c, 4, 65, 0
6, 181728, Note_on_c, 4, 65, 100
6, 181728, Note_on_c, 4, 57, 100
6, 181824, Note_on_c, 4, 57, 0
6, 181824, Note_on_c, 4, 65, 0
6, 181824, Note_on_c, 4, 65, 100
6, 181824, Note_on_c, 4, 57, 100
6, 181920, Note_on_c, 4, 57, 0
6, 181920, Note_on_c, 4, 65, 0
6, 181920, Note_on_c, 4, 65, 100
6, 181920, Note_on_c, 4, 57, 100
6, 182016, Note_on_c, 4, 57, 0
6, 182016, Note_on_c, 4, 65, 0
6, 182016, Note_on_c, 4, 65, 100
6, 182016, Note_on_c, 4, 57, 100
6, 182112, Note_on_c, 4, 57, 0
6, 182112, Note_on_c, 4, 65, 0
6, 182112, Note_on_c, 4, 65, 100
6, 182112, Note_on_c, 4, 57, 100
6, 182208, Note_on_c, 4, 57, 0
6, 182208, Note_on_c, 4, 65, 0
6, 182208, Note_on_c, 4, 65, 100
6, 182208, Note_on_c, 4, 57, 100
6, 182304, Note_on_c, 4, 57, 0
6, 182304, Note_on_c, 4, 65, 0
6, 182304, Note_on_c, 4, 65, 100
6, 182304, Note_on_c, 4, 57, 100
6, 182400, Note_on_c, 4, 57, 0
6, 182400, Note_on_c, 4, 65, 0
6, 182400, Note_on_c, 4, 65, 100
6, 182400, Note_on_c, 4, 57, 100
6, 182496, Note_on_c, 4, 57, 0
6, 182496, Note_on_c, 4, 65, 0
6, 182496, Note_on_c, 4, 65, 100
6, 182496, Note_on_c, 4, 57, 100
6, 182592, Note_on_c, 4, 57, 0
6, 182592, Note_on_c, 4, 65, 0
6, 182592, Note_on_c, 4, 65, 100
6, 182592, Note_on_c, 4, 57, 100
6, 182688, Note_on_c, 4, 57, 0
6, 182688, Note_on_c, 4, 65, 0
6, 182688, Note_on_c, 4, 65, 100
6, 182688, Note_on_c, 4, 57, 100
6, 182784, Note_on_c, 4, 57, 0
6, 182784, Note_on_c, 4, 65, 0
6, 182784, Note_on_c, 4, 70, 100
6, 182784, Note_on_c, 4, 65, 100
6, 182784, Note_on_c, 4, 58, 100
6, 183168, Note_on_c, 4, 58, 0
6, 183168, Note_on_c, 4, 65, 0
6, 183168, Note_on_c, 4, 70, 0
6, 185856, Note_on_c, 4, 63, 120
6, 185952, Note_on_c, 4, 63, 0
6, 185952, Note_on_c, 4, 63, 120
6, 186048, Note_on_c, 4, 63, 0
6, 186048, Note_on_c, 4, 63, 120
6, 186144, Note_on_c, 4, 63, 0
6, 186144, Note_on_c, 4, 63, 120
6, 186240, Note_on_c, 4, 63, 0
6, 186240, Note_on_c, 4, 67, 120
6, 186336, Note_on_c, 4, 67, 0
6, 186336, Note_on_c, 4, 67, 120
6, 186432, Note_on_c, 4, 67, 0
6, 186432, Note_on_c, 4, 67, 120
6, 186528, Note_on_c, 4, 67, 0
6, 186528, Note_on_c, 4, 67, 120
6, 186624, Note_on_c, 4, 67, 0
6, 186624, Note_on_c, 4, 70, 120
6, 186720, Note_on_c, 4, 70, 0
6, 186720, Note_on_c, 4, 70, 120
6, 186816, Note_on_c, 4, 70, 0
6, 186816, Note_on_c, 4, 70, 120
6, 186912, Note_on_c, 4, 70, 0
6, 186912, Note_on_c, 4, 70, 120
6, 187008, Note_on_c, 4, 70, 0
6, 187008, Note_on_c, 4, 75, 120
6, 187104, Note_on_c, 4, 75, 0
6, 187104, Note_on_c, 4, 75, 120
6, 187200, Note_on_c, 4, 75, 0
6, 187200, Note_on_c, 4, 75, 120
6, 187296, Note_on_c, 4, 75, 0
6, 187296, Note_on_c, 4, 75, 120
6, 187392, Note_on_c, 4, 75, 0
6, 187392, Note_on_c, 4, 79, 120
6, 187488, Note_on_c, 4, 79, 0
6, 187488, Note_on_c, 4, 79, 120
6, 187584, Note_on_c, 4, 79, 0
6, 187584, Note_on_c, 4, 79, 120
6, 187680, Note_on_c, 4, 79, 0
6, 187680, Note_on_c, 4, 79, 120
6, 187776, Note_on_c, 4, 79, 0
6, 187776, Note_on_c, 4, 75, 120
6, 187872, Note_on_c, 4, 75, 0
6, 187872, Note_on_c, 4, 75, 120
6, 187968, Note_on_c, 4, 75, 0
6, 187968, Note_on_c, 4, 75, 120
6, 188064, Note_on_c, 4, 75, 0
6, 188064, Note_on_c, 4, 75, 120
6, 188160, Note_on_c, 4, 75, 0
6, 188160, Note_on_c, 4, 70, 120
6, 188256, Note_on_c, 4, 70, 0
6, 188256, Note_on_c, 4, 70, 120
6, 188352, Note_on_c, 4, 70, 0
6, 188352, Note_on_c, 4, 70, 120
6, 188448, Note_on_c, 4, 70, 0
6, 188448, Note_on_c, 4, 70, 120
6, 188544, Note_on_c, 4, 70, 0
6, 188544, Note_on_c, 4, 67, 120
6, 188640, Note_on_c, 4, 67, 0
6, 188640, Note_on_c, 4, 67, 120
6, 188736, Note_on_c, 4, 67, 0
6, 188736, Note_on_c, 4, 67, 120
6, 188832, Note_on_c, 4, 67, 0
6, 188832, Note_on_c, 4, 67, 120
6, 188928, Note_on_c, 4, 67, 0
6, 188928, Note_on_c, 4, 60, 120
6, 189080, Note_on_c, 4, 60, 0
6, 189120, Note_on_c, 4, 60, 120
6, 189424, Note_on_c, 4, 60, 0
6, 189504, Note_on_c, 4, 60, 120
6, 189808, Note_on_c, 4, 60, 0
6, 189888, Note_on_c, 4, 60, 120
6, 190192, Note_on_c, 4, 60, 0
6, 190272, Note_on_c, 4, 60, 120
6, 190616, Note_on_c, 4, 60, 0
6, 190656, Note_on_c, 4, 60, 120
6, 190960, Note_on_c, 4, 60, 0
6, 191040, Note_on_c, 4, 60, 120
6, 191344, Note_on_c, 4, 60, 0
6, 191424, Note_on_c, 4, 60, 120
6, 191728, Note_on_c, 4, 60, 0
6, 191808, Note_on_c, 4, 60, 120
6, 191960, Note_on_c, 4, 60, 0
6, 192000, Note_on_c, 4, 62, 120
6, 192096, Note_on_c, 4, 62, 0
6, 192096, Note_on_c, 4, 62, 120
6, 192192, Note_on_c, 4, 62, 0
6, 192192, Note_on_c, 4, 62, 120
6, 192288, Note_on_c, 4, 62, 0
6, 192288, Note_on_c, 4, 62, 120
6, 192384, Note_on_c, 4, 62, 0
6, 192384, Note_on_c, 4, 65, 120
6, 192480, Note_on_c, 4, 65, 0
6, 192480, Note_on_c, 4, 65, 120
6, 192576, Note_on_c, 4, 65, 0
6, 192576, Note_on_c, 4, 65, 120
6, 192672, Note_on_c, 4, 65, 0
6, 192672, Note_on_c, 4, 65, 120
6, 192768, Note_on_c, 4, 65, 0
6, 192768, Note_on_c, 4, 69, 120
6, 192864, Note_on_c, 4, 69, 0
6, 192864, Note_on_c, 4, 69, 120
6, 192960, Note_on_c, 4, 69, 0
6, 192960, Note_on_c, 4, 69, 120
6, 193056, Note_on_c, 4, 69, 0
6, 193056, Note_on_c, 4, 69, 120
6, 193152, Note_on_c, 4, 69, 0
6, 193152, Note_on_c, 4, 74, 120
6, 193248, Note_on_c, 4, 74, 0
6, 193248, Note_on_c, 4, 74, 120
6, 193344, Note_on_c, 4, 74, 0
6, 193344, Note_on_c, 4, 74, 120
6, 193440, Note_on_c, 4, 74, 0
6, 193440, Note_on_c, 4, 74, 120
6, 193536, Note_on_c, 4, 74, 0
6, 193536, Note_on_c, 4, 77, 120
6, 193632, Note_on_c, 4, 77, 0
6, 193632, Note_on_c, 4, 77, 120
6, 193728, Note_on_c, 4, 77, 0
6, 193728, Note_on_c, 4, 77, 120
6, 193824, Note_on_c, 4, 77, 0
6, 193824, Note_on_c, 4, 77, 120
6, 193920, Note_on_c, 4, 77, 0
6, 193920, Note_on_c, 4, 74, 120
6, 194016, Note_on_c, 4, 74, 0
6, 194016, Note_on_c, 4, 74, 120
6, 194112, Note_on_c, 4, 74, 0
6, 194112, Note_on_c, 4, 74, 120
6, 194208, Note_on_c, 4, 74, 0
6, 194208, Note_on_c, 4, 74, 120
6, 194304, Note_on_c, 4, 74, 0
6, 194304, Note_on_c, 4, 69, 120
6, 194400, Note_on_c, 4, 69, 0
6, 194400, Note_on_c, 4, 69, 120
6, 194496, Note_on_c, 4, 69, 0
6, 194496, Note_on_c, 4, 69, 120
6, 194592, Note_on_c, 4, 69, 0
6, 194592, Note_on_c, 4, 69, 120
6, 194688, Note_on_c, 4, 69, 0
6, 194688, Note_on_c, 4, 65, 120
6, 194784, Note_on_c, 4, 65, 0
6, 194784, Note_on_c, 4, 65, 120
6, 194880, Note_on_c, 4, 65, 0
6, 194880, Note_on_c, 4, 65, 120
6, 194976, Note_on_c, 4, 65, 0
6, 194976, Note_on_c, 4, 65, 120
6, 195072, Note_on_c, 4, 65, 0
6, 195072, Note_on_c, 4, 58, 120
6, 195224, Note_on_c, 4, 58, 0
6, 195264, Note_on_c, 4, 58, 120
6, 195568, Note_on_c, 4, 58, 0
6, 195648, Note_on_c, 4, 58, 120
6, 195952, Note_on_c, 4, 58, 0
6, 196032, Note_on_c, 4, 58, 120
6, 196336, Note_on_c, 4, 58, 0
6, 196416, Note_on_c, 4, 58, 120
6, 196760, Note_on_c, 4, 58, 0
6, 196800, Note_on_c, 4, 58, 120
6, 197104, Note_on_c, 4, 58, 0
6, 197184, Note_on_c, 4, 58, 120
6, 197488, Note_on_c, 4, 58, 0
6, 197568, Note_on_c, 4, 58, 120
6, 197872, Note_on_c, 4, 58, 0
6, 197952, Note_on_c, 4, 58, 120
6, 198104, Note_on_c, 4, 58, 0
6, 198144, Note_on_c, 4, 60, 120
6, 198240, Note_on_c, 4, 60, 0
6, 198240, Note_on_c, 4, 60, 120
6, 198336, Note_on_c, 4, 60, 0
6, 198336, Note_on_c, 4, 60, 120
6, 198432, Note_on_c, 4, 60, 0
6, 198432, Note_on_c, 4, 60, 120
6, 198528, Note_on_c, 4, 60, 0
6, 198528, Note_on_c, 4, 63, 120
6, 198624, Note_on_c, 4, 63, 0
6, 198624, Note_on_c, 4, 63, 120
6, 198720, Note_on_c, 4, 63, 0
6, 198720, Note_on_c, 4, 63, 120
6, 198816, Note_on_c, 4, 63, 0
6, 198816, Note_on_c, 4, 63, 120
6, 198912, Note_on_c, 4, 63, 0
6, 198912, Note_on_c, 4, 67, 120
6, 199008, Note_on_c, 4, 67, 0
6, 199008, Note_on_c, 4, 67, 120
6, 199104, Note_on_c, 4, 67, 0
6, 199104, Note_on_c, 4, 67, 120
6, 199200, Note_on_c, 4, 67, 0
6, 199200, Note_on_c, 4, 67, 120
6, 199296, Note_on_c, 4, 67, 0
6, 199296, Note_on_c, 4, 72, 120
6, 199392, Note_on_c, 4, 72, 0
6, 199392, Note_on_c, 4, 72, 120
6, 199488, Note_on_c, 4, 72, 0
6, 199488, Note_on_c, 4, 72, 120
6, 199584, Note_on_c, 4, 72, 0
6, 199584, Note_on_c, 4, 72, 120
6, 199680, Note_on_c, 4, 72, 0
6, 199680, Note_on_c, 4, 75, 120
6, 199776, Note_on_c, 4, 75, 0
6, 199776, Note_on_c, 4, 75, 120
6, 199872, Note_on_c, 4, 75, 0
6, 199872, Note_on_c, 4, 75, 120
6, 199968, Note_on_c, 4, 75, 0
6, 199968, Note_on_c, 4, 75, 120
6, 200064, Note_on_c, 4, 75, 0
6, 200064, Note_on_c, 4, 72, 120
6, 200160, Note_on_c, 4, 72, 0
6, 200160, Note_on_c, 4, 72, 120
6, 200256, Note_on_c, 4, 72, 0
6, 200256, Note_on_c, 4, 72, 120
6, 200352, Note_on_c, 4, 72, 0
6, 200352, Note_on_c, 4, 72, 120
6, 200448, Note_on_c, 4, 72, 0
6, 200448, Note_on_c, 4, 67, 120
6, 200544, Note_on_c, 4, 67, 0
6, 200544, Note_on_c, 4, 67, 120
6, 200640, Note_on_c, 4, 67, 0
6, 200640, Note_on_c, 4, 67, 120
6, 200736, Note_on_c, 4, 67, 0
6, 200736, Note_on_c, 4, 67, 120
6, 200832, Note_on_c, 4, 67, 0
6, 200832, Note_on_c, 4, 63, 120
6, 200928, Note_on_c, 4, 63, 0
6, 200928, Note_on_c, 4, 63, 120
6, 201024, Note_on_c, 4, 63, 0
6, 201024, Note_on_c, 4, 63, 120
6, 201120, Note_on_c, 4, 63, 0
6, 201120, Note_on_c, 4, 63, 120
6, 201216, Note_on_c, 4, 63, 0
6, 201216, Note_on_c, 4, 87, 120
6, 201312, Note_on_c, 4, 87, 0
6, 201312, Note_on_c, 4, 87, 120
6, 201408, Note_on_c, 4, 87, 0
6, 201408, Note_on_c, 4, 87, 120
6, 201504, Note_on_c, 4, 87, 0
6, 201504, Note_on_c, 4, 87, 120
6, 201600, Note_on_c, 4, 87, 0
6, 201600, Note_on_c, 4, 84, 120
6, 201696, Note_on_c, 4, 84, 0
6, 201696, Note_on_c, 4, 84, 120
6, 201792, Note_on_c, 4, 84, 0
6, 201792, Note_on_c, 4, 84, 120
6, 201888, Note_on_c, 4, 84, 0
6, 201888, Note_on_c, 4, 84, 120
6, 201984, Note_on_c, 4, 84, 0
6, 201984, Note_on_c, 4, 81, 120
6, 202080, Note_on_c, 4, 81, 0
6, 202080, Note_on_c, 4, 81, 120
6, 202176, Note_on_c, 4, 81, 0
6, 202176, Note_on_c, 4, 81, 120
6, 202272, Note_on_c, 4, 81, 0
6, 202272, Note_on_c, 4, 81, 120
6, 202368, Note_on_c, 4, 81, 0
6, 202368, Note_on_c, 4, 77, 120
6, 202464, Note_on_c, 4, 77, 0
6, 202464, Note_on_c, 4, 77, 120
6, 202560, Note_on_c, 4, 77, 0
6, 202560, Note_on_c, 4, 77, 120
6, 202656, Note_on_c, 4, 77, 0
6, 202656, Note_on_c, 4, 77, 120
6, 202752, Note_on_c, 4, 77, 0
6, 202752, Note_on_c, 4, 75, 120
6, 202752, Note_on_c, 4, 75, 120
6, 202848, Note_on_c, 4, 75, 0
6, 202848, Note_on_c, 4, 75, 0
6, 202848, Note_on_c, 4, 75, 120
6, 202944, Note_on_c, 4, 75, 0
6, 202944, Note_on_c, 4, 75, 120
6, 203040, Note_on_c, 4, 75, 0
6, 203040, Note_on_c, 4, 75, 120
6, 203136, Note_on_c, 4, 75, 0
6, 203136, Note_on_c, 4, 72, 120
6, 203232, Note_on_c, 4, 72, 0
6, 203232, Note_on_c, 4, 72, 120
6, 203328, Note_on_c, 4, 72, 0
6, 203328, Note_on_c, 4, 72, 120
6, 203424, Note_on_c, 4, 72, 0
6, 203424, Note_on_c, 4, 72, 120
6, 203520, Note_on_c, 4, 72, 0
6, 203520, Note_on_c, 4, 69, 120
6, 203616, Note_on_c, 4, 69, 0
6, 203616, Note_on_c, 4, 69, 120
6, 203712, Note_on_c, 4, 69, 0
6, 203712, Note_on_c, 4, 69, 120
6, 203808, Note_on_c, 4, 69, 0
6, 203808, Note_on_c, 4, 69, 120
6, 203904, Note_on_c, 4, 69, 0
6, 203904, Note_on_c, 4, 65, 120
6, 204000, Note_on_c, 4, 65, 0
6, 204000, Note_on_c, 4, 65, 120
6, 204096, Note_on_c, 4, 65, 0
6, 204096, Note_on_c, 4, 65, 120
6, 204192, Note_on_c, 4, 65, 0
6, 204192, Note_on_c, 4, 65, 120
6, 204288, Note_on_c, 4, 65, 0
6, 204288, Note_on_c, 4, 86, 120
6, 204384, Note_on_c, 4, 86, 0
6, 204384, Note_on_c, 4, 86, 120
6, 204480, Note_on_c, 4, 86, 0
6, 204480, Note_on_c, 4, 86, 120
6, 204576, Note_on_c, 4, 86, 0
6, 204576, Note_on_c, 4, 86, 120
6, 204672, Note_on_c, 4, 86, 0
6, 204672, Note_on_c, 4, 82, 120
6, 204768, Note_on_c, 4, 82, 0
6, 204768, Note_on_c, 4, 82, 120
6, 204864, Note_on_c, 4, 82, 0
6, 204864, Note_on_c, 4, 82, 120
6, 204960, Note_on_c, 4, 82, 0
6, 204960, Note_on_c, 4, 82, 120
6, 205056, Note_on_c, 4, 82, 0
6, 205056, Note_on_c, 4, 77, 120
6, 205152, Note_on_c, 4, 77, 0
6, 205152, Note_on_c, 4, 77, 120
6, 205248, Note_on_c, 4, 77, 0
6, 205248, Note_on_c, 4, 77, 120
6, 205344, Note_on_c, 4, 77, 0
6, 205344, Note_on_c, 4, 77, 120
6, 205440, Note_on_c, 4, 77, 0
6, 205440, Note_on_c, 4, 74, 120
6, 205536, Note_on_c, 4, 74, 0
6, 205536, Note_on_c, 4, 74, 120
6, 205632, Note_on_c, 4, 74, 0
6, 205632, Note_on_c, 4, 74, 120
6, 205728, Note_on_c, 4, 74, 0
6, 205728, Note_on_c, 4, 74, 120
6, 205824, Note_on_c, 4, 74, 0
6, 205824, Note_on_c, 4, 70, 120
6, 205920, Note_on_c, 4, 70, 0
6, 205920, Note_on_c, 4, 70, 120
6, 206016, Note_on_c, 4, 70, 0
6, 206016, Note_on_c, 4, 70, 120
6, 206112, Note_on_c, 4, 70, 0
6, 206112, Note_on_c, 4, 70, 120
6, 206208, Note_on_c, 4, 70, 0
6, 206208, Note_on_c, 4, 65, 120
6, 206304, Note_on_c, 4, 65, 0
6, 206304, Note_on_c, 4, 65, 120
6, 206400, Note_on_c, 4, 65, 0
6, 206400, Note_on_c, 4, 65, 120
6, 206496, Note_on_c, 4, 65, 0
6, 206496, Note_on_c, 4, 65, 120
6, 206592, Note_on_c, 4, 65, 0
6, 206592, Note_on_c, 4, 62, 120
6, 206688, Note_on_c, 4, 62, 0
6, 206688, Note_on_c, 4, 62, 120
6, 206784, Note_on_c, 4, 62, 0
6, 206784, Note_on_c, 4, 62, 120
6, 206880, Note_on_c, 4, 62, 0
6, 206880, Note_on_c, 4, 62, 120
6, 206976, Note_on_c, 4, 62, 0
6, 206976, Note_on_c, 4, 58, 120
6, 207072, Note_on_c, 4, 58, 0
6, 207072, Note_on_c, 4, 58, 120
6, 207168, Note_on_c, 4, 58, 0
6, 207168, Note_on_c, 4, 58, 120
6, 207264, Note_on_c, 4, 58, 0
6, 207264, Note_on_c, 4, 58, 120
6, 207360, Note_on_c, 4, 58, 0
6, 207360, Note_on_c, 4, 85, 120
6, 207456, Note_on_c, 4, 85, 0
6, 207456, Note_on_c, 4, 85, 120
6, 207552, Note_on_c, 4, 85, 0
6, 207552, Note_on_c, 4, 85, 120
6, 207648, Note_on_c, 4, 85, 0
6, 207648, Note_on_c, 4, 85, 120
6, 207744, Note_on_c, 4, 85, 0
6, 207744, Note_on_c, 4, 82, 120
6, 207840, Note_on_c, 4, 82, 0
6, 207840, Note_on_c, 4, 82, 120
6, 207936, Note_on_c, 4, 82, 0
6, 207936, Note_on_c, 4, 82, 120
6, 208032, Note_on_c, 4, 82, 0
6, 208032, Note_on_c, 4, 82, 120
6, 208128, Note_on_c, 4, 82, 0
6, 208128, Note_on_c, 4, 77, 120
6, 208224, Note_on_c, 4, 77, 0
6, 208224, Note_on_c, 4, 77, 120
6, 208320, Note_on_c, 4, 77, 0
6, 208320, Note_on_c, 4, 77, 120
6, 208416, Note_on_c, 4, 77, 0
6, 208416, Note_on_c, 4, 77, 120
6, 208512, Note_on_c, 4, 77, 0
6, 208512, Note_on_c, 4, 73, 120
6, 208608, Note_on_c, 4, 73, 0
6, 208608, Note_on_c, 4, 73, 120
6, 208704, Note_on_c, 4, 73, 0
6, 208704, Note_on_c, 4, 73, 120
6, 208800, Note_on_c, 4, 73, 0
6, 208800, Note_on_c, 4, 73, 120
6, 208896, Note_on_c, 4, 73, 0
6, 208896, Note_on_c, 4, 70, 120
6, 208992, Note_on_c, 4, 70, 0
6, 208992, Note_on_c, 4, 70, 120
6, 209088, Note_on_c, 4, 70, 0
6, 209088, Note_on_c, 4, 70, 120
6, 209184, Note_on_c, 4, 70, 0
6, 209184, Note_on_c, 4, 70, 120
6, 209280, Note_on_c, 4, 70, 0
6, 209280, Note_on_c, 4, 65, 120
6, 209376, Note_on_c, 4, 65, 0
6, 209376, Note_on_c, 4, 65, 120
6, 209472, Note_on_c, 4, 65, 0
6, 209472, Note_on_c, 4, 65, 120
6, 209568, Note_on_c, 4, 65, 0
6, 209568, Note_on_c, 4, 65, 120
6, 209664, Note_on_c, 4, 65, 0
6, 209664, Note_on_c, 4, 61, 120
6, 209760, Note_on_c, 4, 61, 0
6, 209760, Note_on_c, 4, 61, 120
6, 209856, Note_on_c, 4, 61, 0
6, 209856, Note_on_c, 4, 61, 120
6, 209952, Note_on_c, 4, 61, 0
6, 209952, Note_on_c, 4, 61, 120
6, 210048, Note_on_c, 4, 61, 0
6, 210048, Note_on_c, 4, 58, 120
6, 210144, Note_on_c, 4, 58, 0
6, 210144, Note_on_c, 4, 58, 120
6, 210240, Note_on_c, 4, 58, 0
6, 210240, Note_on_c, 4, 58, 120
6, 210336, Note_on_c, 4, 58, 0
6, 210336, Note_on_c, 4, 58, 120
6, 210432, Note_on_c, 4, 58, 0
6, 210432, Note_on_c, 4, 85, 120
6, 210528, Note_on_c, 4, 85, 0
6, 210528, Note_on_c, 4, 85, 120
6, 210624, Note_on_c, 4, 85, 0
6, 210624, Note_on_c, 4, 85, 120
6, 210720, Note_on_c, 4, 85, 0
6, 210720, Note_on_c, 4, 85, 120
6, 210816, Note_on_c, 4, 85, 0
6, 210816, Note_on_c, 4, 82, 120
6, 210912, Note_on_c, 4, 82, 0
6, 210912, Note_on_c, 4, 82, 120
6, 211008, Note_on_c, 4, 82, 0
6, 211008, Note_on_c, 4, 82, 120
6, 211104, Note_on_c, 4, 82, 0
6, 211104, Note_on_c, 4, 82, 120
6, 211200, Note_on_c, 4, 82, 0
6, 211200, Note_on_c, 4, 79, 120
6, 211296, Note_on_c, 4, 79, 0
6, 211296, Note_on_c, 4, 79, 120
6, 211392, Note_on_c, 4, 79, 0
6, 211392, Note_on_c, 4, 79, 120
6, 211488, Note_on_c, 4, 79, 0
6, 211488, Note_on_c, 4, 79, 120
6, 211584, Note_on_c, 4, 79, 0
6, 211584, Note_on_c, 4, 76, 120
6, 211680, Note_on_c, 4, 76, 0
6, 211680, Note_on_c, 4, 76, 120
6, 211776, Note_on_c, 4, 76, 0
6, 211776, Note_on_c, 4, 76, 120
6, 211872, Note_on_c, 4, 76, 0
6, 211872, Note_on_c, 4, 76, 120
6, 211968, Note_on_c, 4, 76, 0
6, 211968, Note_on_c, 4, 73, 120
6, 212064, Note_on_c, 4, 73, 0
6, 212064, Note_on_c, 4, 73, 120
6, 212160, Note_on_c, 4, 73, 0
6, 212160, Note_on_c, 4, 73, 120
6, 212256, Note_on_c, 4, 73, 0
6, 212256, Note_on_c, 4, 73, 120
6, 212352, Note_on_c, 4, 73, 0
6, 212352, Note_on_c, 4, 70, 120
6, 212448, Note_on_c, 4, 70, 0
6, 212448, Note_on_c, 4, 70, 120
6, 212544, Note_on_c, 4, 70, 0
6, 212544, Note_on_c, 4, 70, 120
6, 212640, Note_on_c, 4, 70, 0
6, 212640, Note_on_c, 4, 70, 120
6, 212736, Note_on_c, 4, 70, 0
6, 212736, Note_on_c, 4, 67, 120
6, 212832, Note_on_c, 4, 67, 0
6, 212832, Note_on_c, 4, 67, 120
6, 212928, Note_on_c, 4, 67, 0
6, 212928, Note_on_c, 4, 67, 120
6, 213024, Note_on_c, 4, 67, 0
6, 213024, Note_on_c, 4, 67, 120
6, 213120, Note_on_c, 4, 67, 0
6, 213120, Note_on_c, 4, 64, 120
6, 213216, Note_on_c, 4, 64, 0
6, 213216, Note_on_c, 4, 64, 120
6, 213312, Note_on_c, 4, 64, 0
6, 213312, Note_on_c, 4, 64, 120
6, 213408, Note_on_c, 4, 64, 0
6, 213408, Note_on_c, 4, 64, 120
6, 213504, Note_on_c, 4, 64, 0
6, 213504, Note_on_c, 4, 65, 120
6, 213600, Note_on_c, 4, 65, 0
6, 213600, Note_on_c, 4, 65, 122
6, 213696, Note_on_c, 4, 65, 0
6, 213696, Note_on_c, 4, 65, 124
6, 213792, Note_on_c, 4, 65, 0
6, 213792, Note_on_c, 4, 65, 127
6, 213888, Note_on_c, 4, 65, 0
6, 213888, Note_on_c, 4, 66, 127
6, 213984, Note_on_c, 4, 66, 0
6, 213984, Note_on_c, 4, 66, 126
6, 214080, Note_on_c, 4, 66, 0
6, 214080, Note_on_c, 4, 66, 125
6, 214176, Note_on_c, 4, 66, 0
6, 214176, Note_on_c, 4, 66, 124
6, 214272, Note_on_c, 4, 66, 0
6, 214272, Note_on_c, 4, 65, 123
6, 214368, Note_on_c, 4, 65, 0
6, 214368, Note_on_c, 4, 65, 122
6, 214464, Note_on_c, 4, 65, 0
6, 214464, Note_on_c, 4, 65, 121
6, 214560, Note_on_c, 4, 65, 0
6, 214560, Note_on_c, 4, 65, 120
6, 214656, Note_on_c, 4, 65, 0
6, 214656, Note_on_c, 4, 64, 119
6, 214752, Note_on_c, 4, 64, 0
6, 214752, Note_on_c, 4, 64, 118
6, 214848, Note_on_c, 4, 64, 0
6, 214848, Note_on_c, 4, 64, 117
6, 214944, Note_on_c, 4, 64, 0
6, 214944, Note_on_c, 4, 64, 116
6, 215040, Note_on_c, 4, 64, 0
6, 215040, Note_on_c, 4, 65, 115
6, 215268, Note_on_c, 4, 65, 0
6, 215424, Note_on_c, 4, 77, 92
6, 215616, Note_on_c, 4, 77, 0
6, 215808, Note_on_c, 4, 65, 92
6, 216056, Note_on_c, 4, 65, 0
6, 216576, Note_on_c, 4, 58, 80
6, 216880, Note_on_c, 4, 58, 0
6, 216960, Note_on_c, 4, 58, 80
6, 217572, Note_on_c, 4, 58, 0
6, 217728, Note_on_c, 4, 58, 80
6, 218416, Note_on_c, 4, 58, 0
6, 218496, Note_on_c, 4, 58, 80
6, 219108, Note_on_c, 4, 58, 0
6, 219264, Note_on_c, 4, 58, 80
6, 219952, Note_on_c, 4, 58, 0
6, 220032, Note_on_c, 4, 58, 80
6, 220644, Note_on_c, 4, 58, 0
6, 220800, Note_on_c, 4, 58, 80
6, 221488, Note_on_c, 4, 58, 0
6, 221568, Note_on_c, 4, 58, 80
6, 222180, Note_on_c, 4, 58, 0
6, 222336, Note_on_c, 4, 58, 80
6, 222912, Note_on_c, 4, 58, 0
6, 222912, Note_on_c, 4, 70, 100
6, 223064, Note_on_c, 4, 70, 0
6, 223104, Note_on_c, 4, 70, 100
6, 223256, Note_on_c, 4, 70, 0
6, 223296, Note_on_c, 4, 70, 100
6, 223448, Note_on_c, 4, 70, 0
6, 223488, Note_on_c, 4, 70, 100
6, 223680, Note_on_c, 4, 70, 0
6, 223680, Note_on_c, 4, 69, 100
6, 223832, Note_on_c, 4, 69, 0
6, 223872, Note_on_c, 4, 67, 100
6, 224024, Note_on_c, 4, 67, 0
6, 224064, Note_on_c, 4, 65, 100
6, 224216, Note_on_c, 4, 65, 0
6, 224256, Note_on_c, 4, 63, 100
6, 224448, Note_on_c, 4, 63, 0
6, 224448, Note_on_c, 4, 67, 100
6, 224600, Note_on_c, 4, 67, 0
6, 224640, Note_on_c, 4, 67, 100
6, 224792, Note_on_c, 4, 67, 0
6, 224832, Note_on_c, 4, 67, 100
6, 224984, Note_on_c, 4, 67, 0
6, 225024, Note_on_c, 4, 67, 100
6, 225216, Note_on_c, 4, 67, 0
6, 225216, Note_on_c, 4, 65, 100
6, 225368, Note_on_c, 4, 65, 0
6, 225408, Note_on_c, 4, 63, 100
6, 225560, Note_on_c, 4, 63, 0
6, 225600, Note_on_c, 4, 62, 100
6, 225752, Note_on_c, 4, 62, 0
6, 225792, Note_on_c, 4, 60, 100
6, 225984, Note_on_c, 4, 60, 0
6, 225984, Note_on_c, 4, 63, 100
6, 226136, Note_on_c, 4, 63, 0
6, 226176, Note_on_c, 4, 63, 100
6, 226328, Note_on_c, 4, 63, 0
6, 226368, Note_on_c, 4, 63, 100
6, 226520, Note_on_c, 4, 63, 0
6, 226560, Note_on_c, 4, 63, 100
6, 226752, Note_on_c, 4, 63, 0
6, 226752, Note_on_c, 4, 62, 100
6, 226904, Note_on_c, 4, 62, 0
6, 226944, Note_on_c, 4, 65, 100
6, 227096, Note_on_c, 4, 65, 0
6, 227136, Note_on_c, 4, 58, 100
6, 227288, Note_on_c, 4, 58, 0
6, 227328, Note_on_c, 4, 62, 100
6, 227520, Note_on_c, 4, 62, 0
6, 227520, Note_on_c, 4, 60, 100
6, 227672, Note_on_c, 4, 60, 0
6, 227712, Note_on_c, 4, 58, 100
6, 227864, Note_on_c, 4, 58, 0
6, 227904, Note_on_c, 4, 57, 100
6, 228056, Note_on_c, 4, 57, 0
6, 228096, Note_on_c, 4, 60, 120
6, 228288, Note_on_c, 4, 60, 0
6, 228288, Note_on_c, 4, 58, 120
6, 228440, Note_on_c, 4, 58, 0
6, 228480, Note_on_c, 4, 57, 120
6, 228632, Note_on_c, 4, 57, 0
6, 228672, Note_on_c, 4, 58, 120
6, 228824, Note_on_c, 4, 58, 0
6, 228864, Note_on_c, 4, 62, 120
6, 229056, Note_on_c, 4, 62, 0
6, 229056, Note_on_c, 4, 60, 120
6, 229208, Note_on_c, 4, 60, 0
6, 229248, Note_on_c, 4, 58, 120
6, 229400, Note_on_c, 4, 58, 0
6, 229440, Note_on_c, 4, 60, 120
6, 229592, Note_on_c, 4, 60, 0
6, 229632, Note_on_c, 4, 63, 120
6, 229824, Note_on_c, 4, 63, 0
6, 229824, Note_on_c, 4, 62, 120
6, 229976, Note_on_c, 4, 62, 0
6, 230016, Note_on_c, 4, 60, 120
6, 230168, Note_on_c, 4, 60, 0
6, 230208, Note_on_c, 4, 62, 120
6, 230360, Note_on_c, 4, 62, 0
6, 230400, Note_on_c, 4, 65, 120
6, 230592, Note_on_c, 4, 65, 0
6, 230592, Note_on_c, 4, 63, 120
6, 230744, Note_on_c, 4, 63, 0
6, 230784, Note_on_c, 4, 62, 120
6, 230936, Note_on_c, 4, 62, 0
6, 230976, Note_on_c, 4, 60, 120
6, 231128, Note_on_c, 4, 60, 0
6, 231168, Note_on_c, 4, 60, 120
6, 231360, Note_on_c, 4, 60, 0
6, 231360, Note_on_c, 4, 58, 120
6, 231512, Note_on_c, 4, 58, 0
6, 231552, Note_on_c, 4, 57, 120
6, 231704, Note_on_c, 4, 57, 0
6, 231744, Note_on_c, 4, 58, 120
6, 231896, Note_on_c, 4, 58, 0
6, 231936, Note_on_c, 4, 62, 120
6, 232128, Note_on_c, 4, 62, 0
6, 232128, Note_on_c, 4, 60, 120
6, 232280, Note_on_c, 4, 60, 0
6, 232320, Note_on_c, 4, 58, 120
6, 232472, Note_on_c, 4, 58, 0
6, 232512, Note_on_c, 4, 60, 120
6, 232664, Note_on_c, 4, 60, 0
6, 232704, Note_on_c, 4, 63, 120
6, 232896, Note_on_c, 4, 63, 0
6, 232896, Note_on_c, 4, 62, 120
6, 233048, Note_on_c, 4, 62, 0
6, 233088, Note_on_c, 4, 60, 120
6, 233240, Note_on_c, 4, 60, 0
6, 233280, Note_on_c, 4, 62, 120
6, 233432, Note_on_c, 4, 62, 0
6, 233472, Note_on_c, 4, 65, 120
6, 233664, Note_on_c, 4, 65, 0
6, 233664, Note_on_c, 4, 63, 120
6, 233816, Note_on_c, 4, 63, 0
6, 233856, Note_on_c, 4, 62, 120
6, 234008, Note_on_c, 4, 62, 0
6, 234048, Note_on_c, 4, 60, 120
6, 234200, Note_on_c, 4, 60, 0
6, 234240, Note_on_c, 4, 58, 120
6, 234432, Note_on_c, 4, 58, 0
6, 234432, Note_on_c, 4, 70, 120
6, 234584, Note_on_c, 4, 70, 0
6, 234624, Note_on_c, 4, 70, 120
6, 234776, Note_on_c, 4, 70, 0
6, 234816, Note_on_c, 4, 70, 120
6, 234968, Note_on_c, 4, 70, 0
6, 235008, Note_on_c, 4, 70, 120
6, 235200, Note_on_c, 4, 70, 0
6, 235200, Note_on_c, 4, 69, 120
6, 235352, Note_on_c, 4, 69, 0
6, 235392, Note_on_c, 4, 67, 120
6, 235544, Note_on_c, 4, 67, 0
6, 235584, Note_on_c, 4, 65, 120
6, 235736, Note_on_c, 4, 65, 0
6, 235776, Note_on_c, 4, 63, 120
6, 235968, Note_on_c, 4, 63, 0
6, 235968, Note_on_c, 4, 67, 120
6, 236120, Note_on_c, 4, 67, 0
6, 236160, Note_on_c, 4, 67, 120
6, 236312, Note_on_c, 4, 67, 0
6, 236352, Note_on_c, 4, 67, 120
6, 236504, Note_on_c, 4, 67, 0
6, 236544, Note_on_c, 4, 67, 120
6, 236736, Note_on_c, 4, 67, 0
6, 236736, Note_on_c, 4, 65, 120
6, 236888, Note_on_c, 4, 65, 0
6, 236928, Note_on_c, 4, 63, 120
6, 237080, Note_on_c, 4, 63, 0
6, 237120, Note_on_c, 4, 62, 120
6, 237272, Note_on_c, 4, 62, 0
6, 237312, Note_on_c, 4, 60, 120
6, 237504, Note_on_c, 4, 60, 0
6, 237504, Note_on_c, 4, 63, 120
6, 237656, Note_on_c, 4, 63, 0
6, 237696, Note_on_c, 4, 63, 120
6, 237848, Note_on_c, 4, 63, 0
6, 237888, Note_on_c, 4, 63, 120
6, 238040, Note_on_c, 4, 63, 0
6, 238080, Note_on_c, 4, 63, 120
6, 238272, Note_on_c, 4, 63, 0
6, 238272, Note_on_c, 4, 62, 120
6, 238424, Note_on_c, 4, 62, 0
6, 238464, Note_on_c, 4, 65, 120
6, 238616, Note_on_c, 4, 65, 0
6, 238656, Note_on_c, 4, 58, 120
6, 238808, Note_on_c, 4, 58, 0
6, 238848, Note_on_c, 4, 62, 120
6, 239040, Note_on_c, 4, 62, 0
6, 239040, Note_on_c, 4, 60, 120
6, 239192, Note_on_c, 4, 60, 0
6, 239232, Note_on_c, 4, 58, 120
6, 239384, Note_on_c, 4, 58, 0
6, 239424, Note_on_c, 4, 57, 120
6, 239576, Note_on_c, 4, 57, 0
6, 239616, Note_on_c, 4, 58, 120
6, 239808, Note_on_c, 4, 58, 0
6, 239808, Note_on_c, 4, 60, 120
6, 239904, Note_on_c, 4, 60, 0
6, 239904, Note_on_c, 4, 62, 120
6, 240000, Note_on_c, 4, 62, 0
6, 240000, Note_on_c, 4, 63, 120
6, 240096, Note_on_c, 4, 63, 0
6, 240096, Note_on_c, 4, 65, 120
6, 240192, Note_on_c, 4, 65, 0
6, 240192, Note_on_c, 4, 67, 120
6, 240288, Note_on_c, 4, 67, 0
6, 240288, Note_on_c, 4, 69, 120
6, 240384, Note_on_c, 4, 69, 0
6, 240384, Note_on_c, 4, 70, 120
6, 240688, Note_on_c, 4, 70, 0
6, 241152, Note_on_c, 4, 55, 120
6, 241344, Note_on_c, 4, 55, 0
6, 241344, Note_on_c, 4, 57, 120
6, 241440, Note_on_c, 4, 57, 0
6, 241440, Note_on_c, 4, 58, 120
6, 241536, Note_on_c, 4, 58, 0
6, 241536, Note_on_c, 4, 60, 120
6, 241632, Note_on_c, 4, 60, 0
6, 241632, Note_on_c, 4, 62, 120
6, 241728, Note_on_c, 4, 62, 0
6, 241728, Note_on_c, 4, 63, 120
6, 241824, Note_on_c, 4, 63, 0
6, 241824, Note_on_c, 4, 65, 120
6, 241920, Note_on_c, 4, 65, 0
6, 241920, Note_on_c, 4, 67, 120
6, 242224, Note_on_c, 4, 67, 0
6, 242688, Note_on_c, 4, 65, 120
6, 242956, Note_on_c, 4, 65, 0
6, 243072, Note_on_c, 4, 70, 120
6, 243072, Note_on_c, 4, 62, 120
6, 243340, Note_on_c, 4, 62, 0
6, 243340, Note_on_c, 4, 70, 0
6, 243456, Note_on_c, 4, 67, 120
6, 243724, Note_on_c, 4, 67, 0
6, 243840, Note_on_c, 4, 75, 120
6, 243840, Note_on_c, 4, 65, 120
6, 244108, Note_on_c, 4, 65, 0
6, 244108, Note_on_c, 4, 75, 0
6, 244224, Note_on_c, 4, 74, 120
6, 244224, Note_on_c, 4, 65, 120
6, 244376, Note_on_c, 4, 65, 0
6, 244376, Note_on_c, 4, 74, 0
6, 244416, Note_on_c, 4, 74, 120
6, 244416, Note_on_c, 4, 65, 120
6, 244720, Note_on_c, 4, 65, 0
6, 244720, Note_on_c, 4, 74, 0
6, 244800, Note_on_c, 4, 74, 120
6, 244800, Note_on_c, 4, 65, 120
6, 245104, Note_on_c, 4, 65, 0
6, 245104, Note_on_c, 4, 74, 0
6, 245184, Note_on_c, 4, 74, 120
6, 245184, Note_on_c, 4, 65, 120
6, 245488, Note_on_c, 4, 65, 0
6, 245488, Note_on_c, 4, 74, 0
6, 245568, Note_on_c, 4, 74, 120
6, 245568, Note_on_c, 4, 65, 120
6, 245760, Note_on_c, 4, 65, 0
6, 245760, Note_on_c, 4, 74, 0
6, 245760, Note_on_c, 4, 75, 120
6, 245760, Note_on_c, 4, 65, 120
6, 245912, Note_on_c, 4, 65, 0
6, 245912, Note_on_c, 4, 75, 0
6, 245952, Note_on_c, 4, 75, 120
6, 245952, Note_on_c, 4, 65, 120
6, 246256, Note_on_c, 4, 65, 0
6, 246256, Note_on_c, 4, 75, 0
6, 246336, Note_on_c, 4, 75, 120
6, 246336, Note_on_c, 4, 65, 120
6, 246640, Note_on_c, 4, 65, 0
6, 246640, Note_on_c, 4, 75, 0
6, 246720, Note_on_c, 4, 75, 120
6, 246720, Note_on_c, 4, 65, 120
6, 247024, Note_on_c, 4, 65, 0
6, 247024, Note_on_c, 4, 75, 0
6, 247104, Note_on_c, 4, 75, 120
6, 247104, Note_on_c, 4, 65, 120
6, 247256, Note_on_c, 4, 65, 0
6, 247256, Note_on_c, 4, 75, 0
6, 247296, Note_on_c, 4, 65, 120
6, 247296, Note_on_c, 4, 74, 120
6, 247448, Note_on_c, 4, 74, 0
6, 247448, Note_on_c, 4, 65, 0
6, 247488, Note_on_c, 4, 65, 120
6, 247488, Note_on_c, 4, 74, 120
6, 247792, Note_on_c, 4, 74, 0
6, 247792, Note_on_c, 4, 65, 0
6, 247872, Note_on_c, 4, 65, 120
6, 247872, Note_on_c, 4, 74, 120
6, 248176, Note_on_c, 4, 74, 0
6, 248176, Note_on_c, 4, 65, 0
6, 248256, Note_on_c, 4, 65, 120
6, 248256, Note_on_c, 4, 74, 120
6, 248560, Note_on_c, 4, 74, 0
6, 248560, Note_on_c, 4, 65, 0
6, 248640, Note_on_c, 4, 65, 120
6, 248640, Note_on_c, 4, 74, 120
6, 248832, Note_on_c, 4, 74, 0
6, 248832, Note_on_c, 4, 65, 0
6, 248832, Note_on_c, 4, 65, 120
6, 248832, Note_on_c, 4, 75, 120
6, 248984, Note_on_c, 4, 75, 0
6, 248984, Note_on_c, 4, 65, 0
6, 249024, Note_on_c, 4, 65, 120
6, 249024, Note_on_c, 4, 75, 120
6, 249328, Note_on_c, 4, 75, 0
6, 249328, Note_on_c, 4, 65, 0
6, 249408, Note_on_c, 4, 65, 120
6, 249408, Note_on_c, 4, 75, 120
6, 249712, Note_on_c, 4, 75, 0
6, 249712, Note_on_c, 4, 65, 0
6, 249792, Note_on_c, 4, 65, 120
6, 249792, Note_on_c, 4, 75, 120
6, 250096, Note_on_c, 4, 75, 0
6, 250096, Note_on_c, 4, 65, 0
6, 250176, Note_on_c, 4, 65, 120
6, 250176, Note_on_c, 4, 75, 120
6, 250328, Note_on_c, 4, 75, 0
6, 250328, Note_on_c, 4, 65, 0
6, 250368, Note_on_c, 4, 74, 120
6, 250368, Note_on_c, 4, 65, 120
6, 250672, Note_on_c, 4, 65, 0
6, 250672, Note_on_c, 4, 74, 0
6, 250752, Note_on_c, 4, 70, 127
6, 250848, Note_on_c, 4, 70, 0
6, 250848, Note_on_c, 4, 70, 127
6, 250944, Note_on_c, 4, 70, 0
6, 250944, Note_on_c, 4, 70, 127
6, 251040, Note_on_c, 4, 70, 0
6, 251040, Note_on_c, 4, 70, 127
6, 251136, Note_on_c, 4, 70, 0
6, 251136, Note_on_c, 4, 72, 127
6, 251232, Note_on_c, 4, 72, 0
6, 251232, Note_on_c, 4, 72, 127
6, 251328, Note_on_c, 4, 72, 0
6, 251328, Note_on_c, 4, 72, 127
6, 251424, Note_on_c, 4, 72, 0
6, 251424, Note_on_c, 4, 72, 127
6, 251520, Note_on_c, 4, 72, 0
6, 251520, Note_on_c, 4, 74, 127
6, 251616, Note_on_c, 4, 74, 0
6, 251616, Note_on_c, 4, 74, 127
6, 251712, Note_on_c, 4, 74, 0
6, 251712, Note_on_c, 4, 74, 127
6, 251808, Note_on_c, 4, 74, 0
6, 251808, Note_on_c, 4, 74, 127
6, 251904, Note_on_c, 4, 74, 0
6, 251904, Note_on_c, 4, 75, 127
6, 252000, Note_on_c, 4, 75, 0
6, 252000, Note_on_c, 4, 75, 127
6, 252096, Note_on_c, 4, 75, 0
6, 252096, Note_on_c, 4, 75, 126
6, 252192, Note_on_c, 4, 75, 0
6, 252192, Note_on_c, 4, 75, 126
6, 252288, Note_on_c, 4, 75, 0
6, 252288, Note_on_c, 4, 72, 125
6, 252384, Note_on_c, 4, 72, 0
6, 252384, Note_on_c, 4, 72, 125
6, 252480, Note_on_c, 4, 72, 0
6, 252480, Note_on_c, 4, 72, 124
6, 252576, Note_on_c, 4, 72, 0
6, 252576, Note_on_c, 4, 72, 124
6, 252672, Note_on_c, 4, 72, 0
6, 252672, Note_on_c, 4, 69, 123
6, 252768, Note_on_c, 4, 69, 0
6, 252768, Note_on_c, 4, 69, 123
6, 252864, Note_on_c, 4, 69, 0
6, 252864, Note_on_c, 4, 69, 123
6, 252960, Note_on_c, 4, 69, 0
6, 252960, Note_on_c, 4, 69, 122
6, 253056, Note_on_c, 4, 69, 0
6, 253056, Note_on_c, 4, 78, 122
6, 253152, Note_on_c, 4, 78, 0
6, 253152, Note_on_c, 4, 78, 121
6, 253248, Note_on_c, 4, 78, 0
6, 253248, Note_on_c, 4, 78, 121
6, 253344, Note_on_c, 4, 78, 0
6, 253344, Note_on_c, 4, 78, 120
6, 253440, Note_on_c, 4, 78, 0
6, 253440, Note_on_c, 4, 79, 96
6, 253728, Note_on_c, 4, 79, 0
6, 253824, Note_on_c, 4, 67, 120
6, 253920, Note_on_c, 4, 67, 0
6, 253920, Note_on_c, 4, 67, 120
6, 254016, Note_on_c, 4, 67, 0
6, 254016, Note_on_c, 4, 67, 120
6, 254112, Note_on_c, 4, 67, 0
6, 254112, Note_on_c, 4, 67, 120
6, 254208, Note_on_c, 4, 67, 0
6, 254208, Note_on_c, 4, 68, 120
6, 254304, Note_on_c, 4, 68, 0
6, 254304, Note_on_c, 4, 68, 120
6, 254400, Note_on_c, 4, 68, 0
6, 254400, Note_on_c, 4, 68, 120
6, 254496, Note_on_c, 4, 68, 0
6, 254496, Note_on_c, 4, 68, 120
6, 254592, Note_on_c, 4, 68, 0
6, 254592, Note_on_c, 4, 70, 120
6, 254688, Note_on_c, 4, 70, 0
6, 254688, Note_on_c, 4, 70, 120
6, 254784, Note_on_c, 4, 70, 0
6, 254784, Note_on_c, 4, 70, 120
6, 254880, Note_on_c, 4, 70, 0
6, 254880, Note_on_c, 4, 70, 120
6, 254976, Note_on_c, 4, 70, 0
6, 254976, Note_on_c, 4, 72, 120
6, 255072, Note_on_c, 4, 72, 0
6, 255072, Note_on_c, 4, 72, 120
6, 255168, Note_on_c, 4, 72, 0
6, 255168, Note_on_c, 4, 72, 120
6, 255264, Note_on_c, 4, 72, 0
6, 255264, Note_on_c, 4, 72, 120
6, 255360, Note_on_c, 4, 72, 0
6, 255360, Note_on_c, 4, 68, 120
6, 255456, Note_on_c, 4, 68, 0
6, 255456, Note_on_c, 4, 68, 120
6, 255552, Note_on_c, 4, 68, 0
6, 255552, Note_on_c, 4, 68, 120
6, 255648, Note_on_c, 4, 68, 0
6, 255648, Note_on_c, 4, 68, 120
6, 255744, Note_on_c, 4, 68, 0
6, 255744, Note_on_c, 4, 65, 120
6, 255840, Note_on_c, 4, 65, 0
6, 255840, Note_on_c, 4, 65, 120
6, 255936, Note_on_c, 4, 65, 0
6, 255936, Note_on_c, 4, 65, 120
6, 256032, Note_on_c, 4, 65, 0
6, 256032, Note_on_c, 4, 65, 120
6, 256128, Note_on_c, 4, 65, 0
6, 256128, Note_on_c, 4, 74, 120
6, 256224, Note_on_c, 4, 74, 0
6, 256224, Note_on_c, 4, 74, 120
6, 256320, Note_on_c, 4, 74, 0
6, 256320, Note_on_c, 4, 74, 120
6, 256416, Note_on_c, 4, 74, 0
6, 256416, Note_on_c, 4, 74, 120
6, 256512, Note_on_c, 4, 74, 0
6, 256512, Note_on_c, 4, 75, 96
6, 256800, Note_on_c, 4, 75, 0
6, 256896, Note_on_c, 4, 63, 120
6, 256992, Note_on_c, 4, 63, 0
6, 256992, Note_on_c, 4, 63, 120
6, 257088, Note_on_c, 4, 63, 0
6, 257088, Note_on_c, 4, 63, 120
6, 257184, Note_on_c, 4, 63, 0
6, 257184, Note_on_c, 4, 63, 120
6, 257280, Note_on_c, 4, 63, 0
6, 257280, Note_on_c, 4, 65, 120
6, 257376, Note_on_c, 4, 65, 0
6, 257376, Note_on_c, 4, 65, 120
6, 257472, Note_on_c, 4, 65, 0
6, 257472, Note_on_c, 4, 65, 120
6, 257568, Note_on_c, 4, 65, 0
6, 257568, Note_on_c, 4, 65, 120
6, 257664, Note_on_c, 4, 65, 0
6, 257664, Note_on_c, 4, 67, 120
6, 257760, Note_on_c, 4, 67, 0
6, 257760, Note_on_c, 4, 67, 120
6, 257856, Note_on_c, 4, 67, 0
6, 257856, Note_on_c, 4, 67, 120
6, 257952, Note_on_c, 4, 67, 0
6, 257952, Note_on_c, 4, 67, 120
6, 258048, Note_on_c, 4, 67, 0
6, 258048, Note_on_c, 4, 68, 120
6, 258144, Note_on_c, 4, 68, 0
6, 258144, Note_on_c, 4, 68, 120
6, 258240, Note_on_c, 4, 68, 0
6, 258240, Note_on_c, 4, 68, 120
6, 258336, Note_on_c, 4, 68, 0
6, 258336, Note_on_c, 4, 68, 120
6, 258432, Note_on_c, 4, 68, 0
6, 258432, Note_on_c, 4, 65, 120
6, 258528, Note_on_c, 4, 65, 0
6, 258528, Note_on_c, 4, 65, 120
6, 258624, Note_on_c, 4, 65, 0
6, 258624, Note_on_c, 4, 65, 120
6, 258720, Note_on_c, 4, 65, 0
6, 258720, Note_on_c, 4, 65, 120
6, 258816, Note_on_c, 4, 65, 0
6, 258816, Note_on_c, 4, 62, 120
6, 258912, Note_on_c, 4, 62, 0
6, 258912, Note_on_c, 4, 62, 120
6, 259008, Note_on_c, 4, 62, 0
6, 259008, Note_on_c, 4, 62, 120
6, 259104, Note_on_c, 4, 62, 0
6, 259104, Note_on_c, 4, 62, 120
6, 259200, Note_on_c, 4, 62, 0
6, 259200, Note_on_c, 4, 71, 120
6, 259296, Note_on_c, 4, 71, 0
6, 259296, Note_on_c, 4, 71, 120
6, 259392, Note_on_c, 4, 71, 0
6, 259392, Note_on_c, 4, 71, 120
6, 259488, Note_on_c, 4, 71, 0
6, 259488, Note_on_c, 4, 71, 120
6, 259584, Note_on_c, 4, 71, 0
6, 259584, Note_on_c, 4, 72, 120
6, 259736, Note_on_c, 4, 72, 0
6, 259776, Note_on_c, 4, 67, 120
6, 259928, Note_on_c, 4, 67, 0
6, 259968, Note_on_c, 4, 67, 120
6, 260120, Note_on_c, 4, 67, 0
6, 260160, Note_on_c, 4, 67, 120
6, 260312, Note_on_c, 4, 67, 0
6, 260352, Note_on_c, 4, 67, 120
6, 260504, Note_on_c, 4, 67, 0
6, 260544, Note_on_c, 4, 67, 120
6, 260696, Note_on_c, 4, 67, 0
6, 260736, Note_on_c, 4, 67, 120
6, 260888, Note_on_c, 4, 67, 0
6, 260928, Note_on_c, 4, 67, 120
6, 261080, Note_on_c, 4, 67, 0
6, 261120, Note_on_c, 4, 67, 120
6, 261272, Note_on_c, 4, 67, 0
6, 261312, Note_on_c, 4, 67, 120
6, 261464, Note_on_c, 4, 67, 0
6, 261504, Note_on_c, 4, 67, 120
6, 261656, Note_on_c, 4, 67, 0
6, 261696, Note_on_c, 4, 67, 120
6, 261848, Note_on_c, 4, 67, 0
6, 261888, Note_on_c, 4, 67, 120
6, 262040, Note_on_c, 4, 67, 0
6, 262080, Note_on_c, 4, 67, 120
6, 262232, Note_on_c, 4, 67, 0
6, 262272, Note_on_c, 4, 67, 120
6, 262424, Note_on_c, 4, 67, 0
6, 262464, Note_on_c, 4, 67, 120
6, 262616, Note_on_c, 4, 67, 0
6, 262656, Note_on_c, 4, 69, 120
6, 262808, Note_on_c, 4, 69, 0
6, 262848, Note_on_c, 4, 69, 120
6, 263000, Note_on_c, 4, 69, 0
6, 263040, Note_on_c, 4, 69, 120
6, 263192, Note_on_c, 4, 69, 0
6, 263232, Note_on_c, 4, 69, 120
6, 263384, Note_on_c, 4, 69, 0
6, 263424, Note_on_c, 4, 69, 120
6, 263576, Note_on_c, 4, 69, 0
6, 263616, Note_on_c, 4, 69, 120
6, 263768, Note_on_c, 4, 69, 0
6, 263808, Note_on_c, 4, 69, 120
6, 263960, Note_on_c, 4, 69, 0
6, 264000, Note_on_c, 4, 69, 120
6, 264152, Note_on_c, 4, 69, 0
6, 264192, Note_on_c, 4, 69, 120
6, 264344, Note_on_c, 4, 69, 0
6, 264384, Note_on_c, 4, 69, 120
6, 264536, Note_on_c, 4, 69, 0
6, 264576, Note_on_c, 4, 69, 120
6, 264728, Note_on_c, 4, 69, 0
6, 264768, Note_on_c, 4, 69, 120
6, 264920, Note_on_c, 4, 69, 0
6, 264960, Note_on_c, 4, 69, 120
6, 265112, Note_on_c, 4, 69, 0
6, 265152, Note_on_c, 4, 69, 120
6, 265304, Note_on_c, 4, 69, 0
6, 265344, Note_on_c, 4, 69, 120
6, 265496, Note_on_c, 4, 69, 0
6, 265536, Note_on_c, 4, 69, 120
6, 265688, Note_on_c, 4, 69, 0
6, 265728, Note_on_c, 4, 74, 120
6, 265880, Note_on_c, 4, 74, 0
6, 265920, Note_on_c, 4, 74, 120
6, 266072, Note_on_c, 4, 74, 0
6, 266112, Note_on_c, 4, 74, 120
6, 266264, Note_on_c, 4, 74, 0
6, 266304, Note_on_c, 4, 74, 120
6, 266456, Note_on_c, 4, 74, 0
6, 266496, Note_on_c, 4, 74, 120
6, 266648, Note_on_c, 4, 74, 0
6, 266688, Note_on_c, 4, 74, 120
6, 266840, Note_on_c, 4, 74, 0
6, 266880, Note_on_c, 4, 74, 120
6, 267032, Note_on_c, 4, 74, 0
6, 267072, Note_on_c, 4, 74, 120
6, 267224, Note_on_c, 4, 74, 0
6, 267264, Note_on_c, 4, 70, 120
6, 267416, Note_on_c, 4, 70, 0
6, 267456, Note_on_c, 4, 70, 120
6, 267608, Note_on_c, 4, 70, 0
6, 267648, Note_on_c, 4, 70, 120
6, 267800, Note_on_c, 4, 70, 0
6, 267840, Note_on_c, 4, 70, 120
6, 267992, Note_on_c, 4, 70, 0
6, 268032, Note_on_c, 4, 70, 120
6, 268184, Note_on_c, 4, 70, 0
6, 268224, Note_on_c, 4, 70, 120
6, 268376, Note_on_c, 4, 70, 0
6, 268416, Note_on_c, 4, 70, 120
6, 268568, Note_on_c, 4, 70, 0
6, 268608, Note_on_c, 4, 70, 120
6, 268760, Note_on_c, 4, 70, 0
6, 268800, Note_on_c, 4, 67, 120
6, 268952, Note_on_c, 4, 67, 0
6, 268992, Note_on_c, 4, 67, 120
6, 269144, Note_on_c, 4, 67, 0
6, 269184, Note_on_c, 4, 67, 120
6, 269336, Note_on_c, 4, 67, 0
6, 269376, Note_on_c, 4, 67, 120
6, 269528, Note_on_c, 4, 67, 0
6, 269568, Note_on_c, 4, 67, 120
6, 269720, Note_on_c, 4, 67, 0
6, 269760, Note_on_c, 4, 67, 120
6, 269912, Note_on_c, 4, 67, 0
6, 269952, Note_on_c, 4, 67, 120
6, 270104, Note_on_c, 4, 67, 0
6, 270144, Note_on_c, 4, 67, 120
6, 270296, Note_on_c, 4, 67, 0
6, 270336, Note_on_c, 4, 67, 120
6, 270488, Note_on_c, 4, 67, 0
6, 270528, Note_on_c, 4, 67, 120
6, 270680, Note_on_c, 4, 67, 0
6, 270720, Note_on_c, 4, 67, 120
6, 270872, Note_on_c, 4, 67, 0
6, 270912, Note_on_c, 4, 67, 120
6, 271064, Note_on_c, 4, 67, 0
6, 271104, Note_on_c, 4, 67, 120
6, 271256, Note_on_c, 4, 67, 0
6, 271296, Note_on_c, 4, 67, 120
6, 271448, Note_on_c, 4, 67, 0
6, 271488, Note_on_c, 4, 67, 120
6, 271640, Note_on_c, 4, 67, 0
6, 271680, Note_on_c, 4, 67, 120
6, 271832, Note_on_c, 4, 67, 0
6, 271872, Note_on_c, 4, 65, 120
6, 272024, Note_on_c, 4, 65, 0
6, 272064, Note_on_c, 4, 69, 120
6, 272216, Note_on_c, 4, 69, 0
6, 272256, Note_on_c, 4, 69, 120
6, 272408, Note_on_c, 4, 69, 0
6, 272448, Note_on_c, 4, 69, 120
6, 272600, Note_on_c, 4, 69, 0
6, 272640, Note_on_c, 4, 69, 120
6, 272792, Note_on_c, 4, 69, 0
6, 272832, Note_on_c, 4, 69, 120
6, 272984, Note_on_c, 4, 69, 0
6, 273024, Note_on_c, 4, 69, 120
6, 273176, Note_on_c, 4, 69, 0
6, 273216, Note_on_c, 4, 69, 120
6, 273368, Note_on_c, 4, 69, 0
6, 273408, Note_on_c, 4, 68, 120
6, 273560, Note_on_c, 4, 68, 0
6, 273600, Note_on_c, 4, 68, 120
6, 273752, Note_on_c, 4, 68, 0
6, 273792, Note_on_c, 4, 68, 120
6, 273944, Note_on_c, 4, 68, 0
6, 273984, Note_on_c, 4, 68, 120
6, 274136, Note_on_c, 4, 68, 0
6, 274176, Note_on_c, 4, 68, 120
6, 274328, Note_on_c, 4, 68, 0
6, 274368, Note_on_c, 4, 68, 120
6, 274520, Note_on_c, 4, 68, 0
6, 274560, Note_on_c, 4, 68, 120
6, 274712, Note_on_c, 4, 68, 0
6, 274752, Note_on_c, 4, 68, 120
6, 274904, Note_on_c, 4, 68, 0
6, 274944, Note_on_c, 4, 69, 120
6, 275248, Note_on_c, 4, 69, 0
6, 275328, Note_on_c, 4, 61, 64
6, 275632, Note_on_c, 4, 61, 0
6, 275712, Note_on_c, 4, 61, 64
6, 276016, Note_on_c, 4, 61, 0
6, 276096, Note_on_c, 4, 61, 64
6, 276400, Note_on_c, 4, 61, 0
6, 276864, Note_on_c, 4, 64, 64
6, 277168, Note_on_c, 4, 64, 0
6, 277248, Note_on_c, 4, 64, 64
6, 277552, Note_on_c, 4, 64, 0
6, 277632, Note_on_c, 4, 64, 64
6, 277936, Note_on_c, 4, 64, 0
6, 278400, Note_on_c, 4, 62, 64
6, 278704, Note_on_c, 4, 62, 0
6, 278784, Note_on_c, 4, 62, 64
6, 279088, Note_on_c, 4, 62, 0
6, 279168, Note_on_c, 4, 62, 64
6, 279472, Note_on_c, 4, 62, 0
6, 279936, Note_on_c, 4, 62, 64
6, 280240, Note_on_c, 4, 62, 0
6, 280320, Note_on_c, 4, 62, 64
6, 280624, Note_on_c, 4, 62, 0
6, 280704, Note_on_c, 4, 62, 64
6, 281008, Note_on_c, 4, 62, 0
6, 281088, Note_on_c, 4, 61, 64
6, 281392, Note_on_c, 4, 61, 0
6, 281472, Note_on_c, 4, 69, 120
6, 281568, Note_on_c, 4, 69, 0
6, 281568, Note_on_c, 4, 69, 120
6, 281664, Note_on_c, 4, 69, 0
6, 281664, Note_on_c, 4, 69, 120
6, 281760, Note_on_c, 4, 69, 0
6, 281760, Note_on_c, 4, 69, 120
6, 281856, Note_on_c, 4, 69, 0
6, 281856, Note_on_c, 4, 70, 120
6, 281952, Note_on_c, 4, 70, 0
6, 281952, Note_on_c, 4, 70, 120
6, 282048, Note_on_c, 4, 70, 0
6, 282048, Note_on_c, 4, 70, 120
6, 282144, Note_on_c, 4, 70, 0
6, 282144, Note_on_c, 4, 70, 120
6, 282240, Note_on_c, 4, 70, 0
6, 282240, Note_on_c, 4, 68, 120
6, 282336, Note_on_c, 4, 68, 0
6, 282336, Note_on_c, 4, 68, 120
6, 282432, Note_on_c, 4, 68, 0
6, 282432, Note_on_c, 4, 68, 120
6, 282528, Note_on_c, 4, 68, 0
6, 282528, Note_on_c, 4, 68, 120
6, 282624, Note_on_c, 4, 68, 0
6, 282624, Note_on_c, 4, 69, 120
6, 282720, Note_on_c, 4, 69, 0
6, 282720, Note_on_c, 4, 69, 119
6, 282816, Note_on_c, 4, 69, 0
6, 282816, Note_on_c, 4, 69, 117
6, 282912, Note_on_c, 4, 69, 0
6, 282912, Note_on_c, 4, 69, 116
6, 283008, Note_on_c, 4, 69, 0
6, 283008, Note_on_c, 4, 67, 115
6, 283104, Note_on_c, 4, 67, 0
6, 283104, Note_on_c, 4, 67, 114
6, 283200, Note_on_c, 4, 67, 0
6, 283200, Note_on_c, 4, 67, 112
6, 283296, Note_on_c, 4, 67, 0
6, 283296, Note_on_c, 4, 67, 111
6, 283392, Note_on_c, 4, 67, 0
6, 283392, Note_on_c, 4, 65, 110
6, 283488, Note_on_c, 4, 65, 0
6, 283488, Note_on_c, 4, 65, 109
6, 283584, Note_on_c, 4, 65, 0
6, 283584, Note_on_c, 4, 65, 107
6, 283680, Note_on_c, 4, 65, 0
6, 283680, Note_on_c, 4, 65, 106
6, 283776, Note_on_c, 4, 65, 0
6, 283776, Note_on_c, 4, 64, 105
6, 283872, Note_on_c, 4, 64, 0
6, 283872, Note_on_c, 4, 64, 104
6, 283968, Note_on_c, 4, 64, 0
6, 283968, Note_on_c, 4, 64, 102
6, 284064, Note_on_c, 4, 64, 0
6, 284064, Note_on_c, 4, 64, 101
6, 284160, Note_on_c, 4, 64, 0
6, 284160, Note_on_c, 4, 62, 100
6, 284464, Note_on_c, 4, 62, 0
6, 284544, Note_on_c, 4, 65, 64
6, 284848, Note_on_c, 4, 65, 0
6, 284928, Note_on_c, 4, 65, 64
6, 285232, Note_on_c, 4, 65, 0
6, 285312, Note_on_c, 4, 65, 64
6, 285616, Note_on_c, 4, 65, 0
6, 286080, Note_on_c, 4, 69, 64
6, 286384, Note_on_c, 4, 69, 0
6, 286464, Note_on_c, 4, 69, 64
6, 286768, Note_on_c, 4, 69, 0
6, 286848, Note_on_c, 4, 69, 64
6, 287152, Note_on_c, 4, 69, 0
6, 287616, Note_on_c, 4, 67, 64
6, 287920, Note_on_c, 4, 67, 0
6, 288000, Note_on_c, 4, 67, 64
6, 288304, Note_on_c, 4, 67, 0
6, 288384, Note_on_c, 4, 67, 64
6, 288688, Note_on_c, 4, 67, 0
6, 289152, Note_on_c, 4, 67, 64
6, 289456, Note_on_c, 4, 67, 0
6, 289536, Note_on_c, 4, 67, 64
6, 289840, Note_on_c, 4, 67, 0
6, 289920, Note_on_c, 4, 67, 64
6, 290224, Note_on_c, 4, 67, 0
6, 290304, Note_on_c, 4, 66, 120
6, 290608, Note_on_c, 4, 66, 0
6, 290688, Note_on_c, 4, 62, 120
6, 290784, Note_on_c, 4, 62, 0
6, 290784, Note_on_c, 4, 62, 120
6, 290880, Note_on_c, 4, 62, 0
6, 290880, Note_on_c, 4, 62, 120
6, 290976, Note_on_c, 4, 62, 0
6, 290976, Note_on_c, 4, 62, 120
6, 291072, Note_on_c, 4, 62, 0
6, 291072, Note_on_c, 4, 63, 120
6, 291168, Note_on_c, 4, 63, 0
6, 291168, Note_on_c, 4, 63, 120
6, 291264, Note_on_c, 4, 63, 0
6, 291264, Note_on_c, 4, 63, 120
6, 291360, Note_on_c, 4, 63, 0
6, 291360, Note_on_c, 4, 63, 120
6, 291456, Note_on_c, 4, 63, 0
6, 291456, Note_on_c, 4, 61, 120
6, 291552, Note_on_c, 4, 61, 0
6, 291552, Note_on_c, 4, 61, 120
6, 291648, Note_on_c, 4, 61, 0
6, 291648, Note_on_c, 4, 61, 120
6, 291744, Note_on_c, 4, 61, 0
6, 291744, Note_on_c, 4, 61, 120
6, 291840, Note_on_c, 4, 61, 0
6, 291840, Note_on_c, 4, 62, 120
6, 291936, Note_on_c, 4, 62, 0
6, 291936, Note_on_c, 4, 62, 120
6, 292032, Note_on_c, 4, 62, 0
6, 292032, Note_on_c, 4, 62, 120
6, 292128, Note_on_c, 4, 62, 0
6, 292128, Note_on_c, 4, 62, 120
6, 292224, Note_on_c, 4, 62, 0
6, 292224, Note_on_c, 4, 60, 120
6, 292320, Note_on_c, 4, 60, 0
6, 292320, Note_on_c, 4, 60, 120
6, 292416, Note_on_c, 4, 60, 0
6, 292416, Note_on_c, 4, 60, 120
6, 292512, Note_on_c, 4, 60, 0
6, 292512, Note_on_c, 4, 60, 120
6, 292608, Note_on_c, 4, 60, 0
6, 292608, Note_on_c, 4, 58, 120
6, 292704, Note_on_c, 4, 58, 0
6, 292704, Note_on_c, 4, 58, 120
6, 292800, Note_on_c, 4, 58, 0
6, 292800, Note_on_c, 4, 58, 120
6, 292896, Note_on_c, 4, 58, 0
6, 292896, Note_on_c, 4, 58, 120
6, 292992, Note_on_c, 4, 58, 0
6, 292992, Note_on_c, 4, 57, 120
6, 293088, Note_on_c, 4, 57, 0
6, 293088, Note_on_c, 4, 57, 120
6, 293184, Note_on_c, 4, 57, 0
6, 293184, Note_on_c, 4, 57, 120
6, 293280, Note_on_c, 4, 57, 0
6, 293280, Note_on_c, 4, 57, 120
6, 293376, Note_on_c, 4, 57, 0
6, 293376, Note_on_c, 4, 55, 120
6, 293760, Note_on_c, 4, 55, 0
6, 294336, Note_on_c, 4, 70, 120
6, 294488, Note_on_c, 4, 70, 0
6, 294528, Note_on_c, 4, 70, 120
6, 294720, Note_on_c, 4, 70, 0
6, 294720, Note_on_c, 4, 69, 120
6, 294912, Note_on_c, 4, 69, 0
6, 294912, Note_on_c, 4, 69, 120
6, 295680, Note_on_c, 4, 69, 0
6, 295872, Note_on_c, 4, 68, 120
6, 296024, Note_on_c, 4, 68, 0
6, 296064, Note_on_c, 4, 68, 120
6, 296256, Note_on_c, 4, 68, 0
6, 296256, Note_on_c, 4, 67, 120
6, 296448, Note_on_c, 4, 67, 0
6, 296448, Note_on_c, 4, 67, 120
6, 297216, Note_on_c, 4, 67, 0
6, 297408, Note_on_c, 4, 67, 120
6, 297560, Note_on_c, 4, 67, 0
6, 297600, Note_on_c, 4, 67, 120
6, 297792, Note_on_c, 4, 67, 0
6, 297792, Note_on_c, 4, 66, 120
6, 297984, Note_on_c, 4, 66, 0
6, 297984, Note_on_c, 4, 66, 120
6, 298596, Note_on_c, 4, 66, 0
6, 298944, Note_on_c, 4, 67, 120
6, 299096, Note_on_c, 4, 67, 0
6, 299136, Note_on_c, 4, 67, 120
6, 299328, Note_on_c, 4, 67, 0
6, 299328, Note_on_c, 4, 69, 120
6, 299520, Note_on_c, 4, 69, 0
6, 299520, Note_on_c, 4, 69, 120
6, 300288, Note_on_c, 4, 69, 0
6, 300480, Note_on_c, 4, 75, 120
6, 300632, Note_on_c, 4, 75, 0
6, 300672, Note_on_c, 4, 75, 120
6, 300864, Note_on_c, 4, 75, 0
6, 300864, Note_on_c, 4, 74, 120
6, 301056, Note_on_c, 4, 74, 0
6, 301056, Note_on_c, 4, 72, 120
6, 301824, Note_on_c, 4, 72, 0
6, 302016, Note_on_c, 4, 63, 96
6, 302168, Note_on_c, 4, 63, 0
6, 302208, Note_on_c, 4, 63, 96
6, 302400, Note_on_c, 4, 63, 0
6, 302400, Note_on_c, 4, 62, 96
6, 302592, Note_on_c, 4, 62, 0
6, 302592, Note_on_c, 4, 60, 96
6, 303360, Note_on_c, 4, 60, 0
6, 305664, Note_on_c, 4, 79, 120
6, 305816, Note_on_c, 4, 79, 0
6, 305856, Note_on_c, 4, 79, 120
6, 306160, Note_on_c, 4, 79, 0
6, 306240, Note_on_c, 4, 79, 120
6, 306544, Note_on_c, 4, 79, 0
6, 306624, Note_on_c, 4, 79, 120
6, 306928, Note_on_c, 4, 79, 0
6, 307008, Note_on_c, 4, 79, 120
6, 307160, Note_on_c, 4, 79, 0
6, 307200, Note_on_c, 4, 74, 120
6, 307352, Note_on_c, 4, 74, 0
6, 307392, Note_on_c, 4, 74, 120
6, 307696, Note_on_c, 4, 74, 0
6, 307776, Note_on_c, 4, 74, 120
6, 308080, Note_on_c, 4, 74, 0
6, 308160, Note_on_c, 4, 74, 120
6, 308464, Note_on_c, 4, 74, 0
6, 308544, Note_on_c, 4, 74, 120
6, 308696, Note_on_c, 4, 74, 0
6, 308736, Note_on_c, 4, 75, 120
6, 308888, Note_on_c, 4, 75, 0
6, 308928, Note_on_c, 4, 75, 120
6, 309232, Note_on_c, 4, 75, 0
6, 309312, Note_on_c, 4, 75, 120
6, 309616, Note_on_c, 4, 75, 0
6, 309696, Note_on_c, 4, 75, 120
6, 310000, Note_on_c, 4, 75, 0
6, 310080, Note_on_c, 4, 75, 120
6, 310232, Note_on_c, 4, 75, 0
6, 310272, Note_on_c, 4, 66, 120
6, 310424, Note_on_c, 4, 66, 0
6, 310464, Note_on_c, 4, 66, 120
6, 310768, Note_on_c, 4, 66, 0
6, 310848, Note_on_c, 4, 66, 120
6, 311152, Note_on_c, 4, 66, 0
6, 311232, Note_on_c, 4, 66, 120
6, 311536, Note_on_c, 4, 66, 0
6, 311616, Note_on_c, 4, 66, 120
6, 311768, Note_on_c, 4, 66, 0
6, 311808, Note_on_c, 4, 67, 120
6, 311960, Note_on_c, 4, 67, 0
6, 312000, Note_on_c, 4, 70, 120
6, 312152, Note_on_c, 4, 70, 0
6, 312192, Note_on_c, 4, 74, 120
6, 312344, Note_on_c, 4, 74, 0
6, 312384, Note_on_c, 4, 79, 120
6, 312536, Note_on_c, 4, 79, 0
6, 312576, Note_on_c, 4, 82, 120
6, 312672, Note_on_c, 4, 82, 0
6, 312672, Note_on_c, 4, 81, 120
6, 312768, Note_on_c, 4, 81, 0
6, 312768, Note_on_c, 4, 79, 120
6, 312864, Note_on_c, 4, 79, 0
6, 312864, Note_on_c, 4, 78, 120
6, 312960, Note_on_c, 4, 78, 0
6, 312960, Note_on_c, 4, 79, 120
6, 313152, Note_on_c, 4, 79, 0
6, 313344, Note_on_c, 4, 67, 120
6, 313496, Note_on_c, 4, 67, 0
6, 313536, Note_on_c, 4, 70, 120
6, 313688, Note_on_c, 4, 70, 0
6, 313728, Note_on_c, 4, 74, 120
6, 313880, Note_on_c, 4, 74, 0
6, 313920, Note_on_c, 4, 79, 120
6, 314072, Note_on_c, 4, 79, 0
6, 314112, Note_on_c, 4, 82, 120
6, 314208, Note_on_c, 4, 82, 0
6, 314208, Note_on_c, 4, 81, 120
6, 314304, Note_on_c, 4, 81, 0
6, 314304, Note_on_c, 4, 79, 120
6, 314400, Note_on_c, 4, 79, 0
6, 314400, Note_on_c, 4, 78, 120
6, 314496, Note_on_c, 4, 78, 0
6, 314496, Note_on_c, 4, 79, 120
6, 314688, Note_on_c, 4, 79, 0
6, 314880, Note_on_c, 4, 69, 120
6, 315032, Note_on_c, 4, 69, 0
6, 315072, Note_on_c, 4, 72, 120
6, 315224, Note_on_c, 4, 72, 0
6, 315264, Note_on_c, 4, 78, 120
6, 315416, Note_on_c, 4, 78, 0
6, 315456, Note_on_c, 4, 81, 120
6, 315608, Note_on_c, 4, 81, 0
6, 315648, Note_on_c, 4, 84, 120
6, 315744, Note_on_c, 4, 84, 0
6, 315744, Note_on_c, 4, 82, 120
6, 315840, Note_on_c, 4, 82, 0
6, 315840, Note_on_c, 4, 81, 120
6, 315936, Note_on_c, 4, 81, 0
6, 315936, Note_on_c, 4, 79, 120
6, 316032, Note_on_c, 4, 79, 0
6, 316032, Note_on_c, 4, 81, 120
6, 316224, Note_on_c, 4, 81, 0
6, 316416, Note_on_c, 4, 69, 120
6, 316568, Note_on_c, 4, 69, 0
6, 316608, Note_on_c, 4, 72, 120
6, 316760, Note_on_c, 4, 72, 0
6, 316800, Note_on_c, 4, 78, 120
6, 316952, Note_on_c, 4, 78, 0
6, 316992, Note_on_c, 4, 81, 120
6, 317144, Note_on_c, 4, 81, 0
6, 317184, Note_on_c, 4, 84, 120
6, 317280, Note_on_c, 4, 84, 0
6, 317280, Note_on_c, 4, 82, 120
6, 317376, Note_on_c, 4, 82, 0
6, 317376, Note_on_c, 4, 81, 120
6, 317472, Note_on_c, 4, 81, 0
6, 317472, Note_on_c, 4, 79, 120
6, 317568, Note_on_c, 4, 79, 0
6, 317568, Note_on_c, 4, 81, 120
6, 317760, Note_on_c, 4, 81, 0
6, 317952, Note_on_c, 4, 70, 120
6, 318104, Note_on_c, 4, 70, 0
6, 318144, Note_on_c, 4, 74, 120
6, 318296, Note_on_c, 4, 74, 0
6, 318336, Note_on_c, 4, 79, 120
6, 318488, Note_on_c, 4, 79, 0
6, 318528, Note_on_c, 4, 82, 120
6, 318680, Note_on_c, 4, 82, 0
6, 318720, Note_on_c, 4, 86, 120
6, 318816, Note_on_c, 4, 86, 0
6, 318816, Note_on_c, 4, 84, 120
6, 318912, Note_on_c, 4, 84, 0
6, 318912, Note_on_c, 4, 82, 120
6, 319008, Note_on_c, 4, 82, 0
6, 319008, Note_on_c, 4, 81, 120
6, 319104, Note_on_c, 4, 81, 0
6, 319104, Note_on_c, 4, 82, 120
6, 319296, Note_on_c, 4, 82, 0
6, 319488, Note_on_c, 4, 82, 120
6, 319584, Note_on_c, 4, 82, 0
6, 319584, Note_on_c, 4, 81, 120
6, 319680, Note_on_c, 4, 81, 0
6, 319680, Note_on_c, 4, 79, 120
6, 319776, Note_on_c, 4, 79, 0
6, 319776, Note_on_c, 4, 78, 120
6, 319872, Note_on_c, 4, 78, 0
6, 319872, Note_on_c, 4, 79, 120
6, 320064, Note_on_c, 4, 79, 0
6, 320256, Note_on_c, 4, 79, 120
6, 320352, Note_on_c, 4, 79, 0
6, 320352, Note_on_c, 4, 77, 120
6, 320448, Note_on_c, 4, 77, 0
6, 320448, Note_on_c, 4, 75, 120
6, 320544, Note_on_c, 4, 75, 0
6, 320544, Note_on_c, 4, 74, 120
6, 320640, Note_on_c, 4, 74, 0
6, 320640, Note_on_c, 4, 75, 120
6, 320736, Note_on_c, 4, 75, 0
6, 320736, Note_on_c, 4, 74, 120
6, 320832, Note_on_c, 4, 74, 0
6, 320832, Note_on_c, 4, 72, 120
6, 320928, Note_on_c, 4, 72, 0
6, 320928, Note_on_c, 4, 70, 120
6, 321024, Note_on_c, 4, 70, 0
6, 321024, Note_on_c, 4, 72, 120
6, 321224, Note_on_c, 4, 72, 0
6, 321312, Note_on_c, 4, 72, 120
6, 321388, Note_on_c, 4, 72, 0
6, 321408, Note_on_c, 4, 70, 120
6, 321608, Note_on_c, 4, 70, 0
6, 321696, Note_on_c, 4, 70, 120
6, 321772, Note_on_c, 4, 70, 0
6, 321792, Note_on_c, 4, 69, 120
6, 321992, Note_on_c, 4, 69, 0
6, 322080, Note_on_c, 4, 69, 120
6, 322156, Note_on_c, 4, 69, 0
6, 322176, Note_on_c, 4, 67, 120
6, 322376, Note_on_c, 4, 67, 0
6, 322464, Note_on_c, 4, 67, 120
6, 322540, Note_on_c, 4, 67, 0
6, 322560, Note_on_c, 4, 66, 120
6, 322752, Note_on_c, 4, 66, 0
6, 322944, Note_on_c, 4, 74, 96
6, 323136, Note_on_c, 4, 74, 0
6, 324096, Note_on_c, 4, 79, 120
6, 324248, Note_on_c, 4, 79, 0
6, 324288, Note_on_c, 4, 79, 120
6, 324592, Note_on_c, 4, 79, 0
6, 324672, Note_on_c, 4, 79, 120
6, 324976, Note_on_c, 4, 79, 0
6, 325056, Note_on_c, 4, 79, 120
6, 325360, Note_on_c, 4, 79, 0
6, 325440, Note_on_c, 4, 79, 120
6, 325592, Note_on_c, 4, 79, 0
6, 325632, Note_on_c, 4, 74, 120
6, 325784, Note_on_c, 4, 74, 0
6, 325824, Note_on_c, 4, 74, 120
6, 326128, Note_on_c, 4, 74, 0
6, 326208, Note_on_c, 4, 74, 120
6, 326512, Note_on_c, 4, 74, 0
6, 326592, Note_on_c, 4, 74, 120
6, 326896, Note_on_c, 4, 74, 0
6, 326976, Note_on_c, 4, 74, 120
6, 327128, Note_on_c, 4, 74, 0
6, 327168, Note_on_c, 4, 75, 120
6, 327320, Note_on_c, 4, 75, 0
6, 327360, Note_on_c, 4, 75, 120
6, 327664, Note_on_c, 4, 75, 0
6, 327744, Note_on_c, 4, 75, 120
6, 328048, Note_on_c, 4, 75, 0
6, 328128, Note_on_c, 4, 75, 120
6, 328432, Note_on_c, 4, 75, 0
6, 328512, Note_on_c, 4, 75, 120
6, 328664, Note_on_c, 4, 75, 0
6, 328704, Note_on_c, 4, 66, 120
6, 328856, Note_on_c, 4, 66, 0
6, 328896, Note_on_c, 4, 66, 120
6, 329200, Note_on_c, 4, 66, 0
6, 329280, Note_on_c, 4, 66, 120
6, 329584, Note_on_c, 4, 66, 0
6, 329664, Note_on_c, 4, 66, 120
6, 329968, Note_on_c, 4, 66, 0
6, 330048, Note_on_c, 4, 66, 120
6, 330200, Note_on_c, 4, 66, 0
6, 330240, Note_on_c, 4, 67, 120
6, 330508, Note_on_c, 4, 67, 0
6, 330624, Note_on_c, 4, 58, 64
6, 330928, Note_on_c, 4, 58, 0
6, 331008, Note_on_c, 4, 58, 64
6, 331312, Note_on_c, 4, 58, 0
6, 331392, Note_on_c, 4, 58, 64
6, 331696, Note_on_c, 4, 58, 0
6, 332160, Note_on_c, 4, 58, 64
6, 332464, Note_on_c, 4, 58, 0
6, 332544, Note_on_c, 4, 58, 64
6, 332848, Note_on_c, 4, 58, 0
6, 332928, Note_on_c, 4, 58, 64
6, 333232, Note_on_c, 4, 58, 0
6, 333696, Note_on_c, 4, 60, 64
6, 334000, Note_on_c, 4, 60, 0
6, 334080, Note_on_c, 4, 60, 64
6, 334384, Note_on_c, 4, 60, 0
6, 334464, Note_on_c, 4, 60, 64
6, 334768, Note_on_c, 4, 60, 0
6, 335232, Note_on_c, 4, 57, 64
6, 335536, Note_on_c, 4, 57, 0
6, 335616, Note_on_c, 4, 57, 64
6, 335920, Note_on_c, 4, 57, 0
6, 336000, Note_on_c, 4, 57, 64
6, 336304, Note_on_c, 4, 57, 0
6, 336768, Note_on_c, 4, 55, 64
6, 337072, Note_on_c, 4, 55, 0
6, 337152, Note_on_c, 4, 55, 64
6, 337456, Note_on_c, 4, 55, 0
6, 337536, Note_on_c, 4, 55, 64
6, 337840, Note_on_c, 4, 55, 0
6, 338304, Note_on_c, 4, 58, 64
6, 338608, Note_on_c, 4, 58, 0
6, 338688, Note_on_c, 4, 58, 64
6, 338992, Note_on_c, 4, 58, 0
6, 339072, Note_on_c, 4, 58, 64
6, 339376, Note_on_c, 4, 58, 0
6, 339840, Note_on_c, 4, 61, 64
6, 340144, Note_on_c, 4, 61, 0
6, 340224, Note_on_c, 4, 61, 64
6, 340528, Note_on_c, 4, 61, 0
6, 340608, Note_on_c, 4, 61, 64
6, 340912, Note_on_c, 4, 61, 0
6, 341376, Note_on_c, 4, 67, 64
6, 341680, Note_on_c, 4, 67, 0
6, 341760, Note_on_c, 4, 67, 64
6, 342064, Note_on_c, 4, 67, 0
6, 342144, Note_on_c, 4, 55, 64
6, 342448, Note_on_c, 4, 55, 0
6, 342528, Note_on_c, 4, 57, 64
6, 343104, Note_on_c, 4, 57, 0
6, 343104, Note_on_c, 4, 58, 61
6, 343296, Note_on_c, 4, 58, 0
6, 343296, Note_on_c, 4, 57, 60
6, 343488, Note_on_c, 4, 57, 0
6, 343488, Note_on_c, 4, 58, 59
6, 343680, Note_on_c, 4, 58, 0
6, 343680, Note_on_c, 4, 57, 58
6, 343872, Note_on_c, 4, 57, 0
6, 343872, Note_on_c, 4, 58, 57
6, 344064, Note_on_c, 4, 58, 0
6, 344064, Note_on_c, 4, 57, 56
6, 344640, Note_on_c, 4, 57, 0
6, 344640, Note_on_c, 4, 58, 53
6, 344832, Note_on_c, 4, 58, 0
6, 344832, Note_on_c, 4, 57, 52
6, 345024, Note_on_c, 4, 57, 0
6, 345024, Note_on_c, 4, 58, 51
6, 345216, Note_on_c, 4, 58, 0
6, 345216, Note_on_c, 4, 57, 50
6, 345408, Note_on_c, 4, 57, 0
6, 345408, Note_on_c, 4, 58, 49
6, 345600, Note_on_c, 4, 58, 0
6, 345600, Note_on_c, 4, 57, 48
6, 345904, Note_on_c, 4, 57, 0
6, 346368, Note_on_c, 4, 57, 42
6, 346672, Note_on_c, 4, 57, 0
6, 347136, Note_on_c, 4, 57, 32
6, 347440, Note_on_c, 4, 57, 0
6, 348672, Note_on_c, 4, 58, 100
6, 348672, Note_on_c, 4, 62, 100
6, 348768, Note_on_c, 4, 62, 0
6, 348768, Note_on_c, 4, 58, 0
6, 348768, Note_on_c, 4, 58, 100
6, 348768, Note_on_c, 4, 62, 100
6, 348864, Note_on_c, 4, 62, 0
6, 348864, Note_on_c, 4, 58, 0
6, 348864, Note_on_c, 4, 58, 100
6, 348864, Note_on_c, 4, 62, 100
6, 348960, Note_on_c, 4, 62, 0
6, 348960, Note_on_c, 4, 58, 0
6, 348960, Note_on_c, 4, 58, 100
6, 348960, Note_on_c, 4, 62, 100
6, 349056, Note_on_c, 4, 62, 0
6, 349056, Note_on_c, 4, 58, 0
6, 349056, Note_on_c, 4, 58, 100
6, 349056, Note_on_c, 4, 62, 100
6, 349152, Note_on_c, 4, 62, 0
6, 349152, Note_on_c, 4, 58, 0
6, 349152, Note_on_c, 4, 58, 100
6, 349152, Note_on_c, 4, 62, 100
6, 349248, Note_on_c, 4, 62, 0
6, 349248, Note_on_c, 4, 58, 0
6, 349248, Note_on_c, 4, 58, 100
6, 349248, Note_on_c, 4, 62, 100
6, 349344, Note_on_c, 4, 62, 0
6, 349344, Note_on_c, 4, 58, 0
6, 349344, Note_on_c, 4, 58, 100
6, 349344, Note_on_c, 4, 62, 100
6, 349440, Note_on_c, 4, 62, 0
6, 349440, Note_on_c, 4, 58, 0
6, 349440, Note_on_c, 4, 58, 100
6, 349440, Note_on_c, 4, 62, 100
6, 349536, Note_on_c, 4, 62, 0
6, 349536, Note_on_c, 4, 58, 0
6, 349536, Note_on_c, 4, 58, 100
6, 349536, Note_on_c, 4, 62, 100
6, 349632, Note_on_c, 4, 62, 0
6, 349632, Note_on_c, 4, 58, 0
6, 349632, Note_on_c, 4, 58, 100
6, 349632, Note_on_c, 4, 62, 100
6, 349728, Note_on_c, 4, 62, 0
6, 349728, Note_on_c, 4, 58, 0
6, 349728, Note_on_c, 4, 58, 100
6, 349728, Note_on_c, 4, 62, 100
6, 349824, Note_on_c, 4, 62, 0
6, 349824, Note_on_c, 4, 58, 0
6, 349824, Note_on_c, 4, 58, 100
6, 349824, Note_on_c, 4, 62, 100
6, 349920, Note_on_c, 4, 62, 0
6, 349920, Note_on_c, 4, 58, 0
6, 349920, Note_on_c, 4, 58, 100
6, 349920, Note_on_c, 4, 62, 100
6, 350016, Note_on_c, 4, 62, 0
6, 350016, Note_on_c, 4, 58, 0
6, 350016, Note_on_c, 4, 58, 100
6, 350016, Note_on_c, 4, 62, 100
6, 350112, Note_on_c, 4, 62, 0
6, 350112, Note_on_c, 4, 58, 0
6, 350112, Note_on_c, 4, 58, 100
6, 350112, Note_on_c, 4, 62, 100
6, 350208, Note_on_c, 4, 62, 0
6, 350208, Note_on_c, 4, 58, 0
6, 350208, Note_on_c, 4, 62, 100
6, 350208, Note_on_c, 4, 58, 100
6, 350304, Note_on_c, 4, 58, 0
6, 350304, Note_on_c, 4, 62, 0
6, 350304, Note_on_c, 4, 62, 100
6, 350304, Note_on_c, 4, 58, 100
6, 350400, Note_on_c, 4, 58, 0
6, 350400, Note_on_c, 4, 62, 0
6, 350400, Note_on_c, 4, 62, 100
6, 350400, Note_on_c, 4, 58, 100
6, 350496, Note_on_c, 4, 58, 0
6, 350496, Note_on_c, 4, 62, 0
6, 350496, Note_on_c, 4, 62, 100
6, 350496, Note_on_c, 4, 58, 100
6, 350592, Note_on_c, 4, 58, 0
6, 350592, Note_on_c, 4, 62, 0
6, 350592, Note_on_c, 4, 62, 100
6, 350592, Note_on_c, 4, 58, 100
6, 350688, Note_on_c, 4, 58, 0
6, 350688, Note_on_c, 4, 62, 0
6, 350688, Note_on_c, 4, 62, 100
6, 350688, Note_on_c, 4, 58, 100
6, 350784, Note_on_c, 4, 58, 0
6, 350784, Note_on_c, 4, 62, 0
6, 350784, Note_on_c, 4, 62, 100
6, 350784, Note_on_c, 4, 58, 100
6, 350880, Note_on_c, 4, 58, 0
6, 350880, Note_on_c, 4, 62, 0
6, 350880, Note_on_c, 4, 62, 100
6, 350880, Note_on_c, 4, 58, 100
6, 350976, Note_on_c, 4, 58, 0
6, 350976, Note_on_c, 4, 62, 0
6, 350976, Note_on_c, 4, 62, 100
6, 350976, Note_on_c, 4, 58, 100
6, 351072, Note_on_c, 4, 58, 0
6, 351072, Note_on_c, 4, 62, 0
6, 351072, Note_on_c, 4, 62, 100
6, 351072, Note_on_c, 4, 58, 100
6, 351168, Note_on_c, 4, 58, 0
6, 351168, Note_on_c, 4, 62, 0
6, 351168, Note_on_c, 4, 62, 100
6, 351168, Note_on_c, 4, 58, 100
6, 351264, Note_on_c, 4, 58, 0
6, 351264, Note_on_c, 4, 62, 0
6, 351264, Note_on_c, 4, 62, 100
6, 351264, Note_on_c, 4, 58, 100
6, 351360, Note_on_c, 4, 58, 0
6, 351360, Note_on_c, 4, 62, 0
6, 351360, Note_on_c, 4, 62, 100
6, 351360, Note_on_c, 4, 58, 100
6, 351456, Note_on_c, 4, 58, 0
6, 351456, Note_on_c, 4, 62, 0
6, 351456, Note_on_c, 4, 62, 100
6, 351456, Note_on_c, 4, 58, 100
6, 351552, Note_on_c, 4, 58, 0
6, 351552, Note_on_c, 4, 62, 0
6, 351552, Note_on_c, 4, 62, 100
6, 351552, Note_on_c, 4, 58, 100
6, 351648, Note_on_c, 4, 58, 0
6, 351648, Note_on_c, 4, 62, 0
6, 351648, Note_on_c, 4, 62, 100
6, 351648, Note_on_c, 4, 58, 100
6, 351744, Note_on_c, 4, 58, 0
6, 351744, Note_on_c, 4, 62, 0
6, 351744, Note_on_c, 4, 60, 100
6, 351744, Note_on_c, 4, 62, 100
6, 351840, Note_on_c, 4, 62, 0
6, 351840, Note_on_c, 4, 60, 0
6, 351840, Note_on_c, 4, 60, 100
6, 351840, Note_on_c, 4, 62, 100
6, 351936, Note_on_c, 4, 62, 0
6, 351936, Note_on_c, 4, 60, 0
6, 351936, Note_on_c, 4, 60, 100
6, 351936, Note_on_c, 4, 62, 100
6, 352032, Note_on_c, 4, 62, 0
6, 352032, Note_on_c, 4, 60, 0
6, 352032, Note_on_c, 4, 60, 100
6, 352032, Note_on_c, 4, 62, 100
6, 352128, Note_on_c, 4, 62, 0
6, 352128, Note_on_c, 4, 60, 0
6, 352128, Note_on_c, 4, 60, 100
6, 352128, Note_on_c, 4, 62, 100
6, 352224, Note_on_c, 4, 62, 0
6, 352224, Note_on_c, 4, 60, 0
6, 352224, Note_on_c, 4, 60, 100
6, 352224, Note_on_c, 4, 62, 100
6, 352320, Note_on_c, 4, 62, 0
6, 352320, Note_on_c, 4, 60, 0
6, 352320, Note_on_c, 4, 60, 100
6, 352320, Note_on_c, 4, 62, 100
6, 352416, Note_on_c, 4, 62, 0
6, 352416, Note_on_c, 4, 60, 0
6, 352416, Note_on_c, 4, 60, 100
6, 352416, Note_on_c, 4, 62, 100
6, 352512, Note_on_c, 4, 62, 0
6, 352512, Note_on_c, 4, 60, 0
6, 352512, Note_on_c, 4, 60, 100
6, 352512, Note_on_c, 4, 62, 100
6, 352608, Note_on_c, 4, 62, 0
6, 352608, Note_on_c, 4, 60, 0
6, 352608, Note_on_c, 4, 60, 100
6, 352608, Note_on_c, 4, 62, 100
6, 352704, Note_on_c, 4, 62, 0
6, 352704, Note_on_c, 4, 60, 0
6, 352704, Note_on_c, 4, 60, 100
6, 352704, Note_on_c, 4, 62, 100
6, 352800, Note_on_c, 4, 62, 0
6, 352800, Note_on_c, 4, 60, 0
6, 352800, Note_on_c, 4, 60, 100
6, 352800, Note_on_c, 4, 62, 100
6, 352896, Note_on_c, 4, 62, 0
6, 352896, Note_on_c, 4, 60, 0
6, 352896, Note_on_c, 4, 60, 100
6, 352896, Note_on_c, 4, 62, 100
6, 352992, Note_on_c, 4, 62, 0
6, 352992, Note_on_c, 4, 60, 0
6, 352992, Note_on_c, 4, 60, 100
6, 352992, Note_on_c, 4, 62, 100
6, 353088, Note_on_c, 4, 62, 0
6, 353088, Note_on_c, 4, 60, 0
6, 353088, Note_on_c, 4, 60, 100
6, 353088, Note_on_c, 4, 62, 100
6, 353184, Note_on_c, 4, 62, 0
6, 353184, Note_on_c, 4, 60, 0
6, 353184, Note_on_c, 4, 60, 100
6, 353184, Note_on_c, 4, 62, 100
6, 353280, Note_on_c, 4, 62, 0
6, 353280, Note_on_c, 4, 60, 0
6, 353280, Note_on_c, 4, 57, 100
6, 353280, Note_on_c, 4, 66, 100
6, 353376, Note_on_c, 4, 66, 0
6, 353376, Note_on_c, 4, 57, 0
6, 353376, Note_on_c, 4, 57, 100
6, 353376, Note_on_c, 4, 66, 100
6, 353472, Note_on_c, 4, 66, 0
6, 353472, Note_on_c, 4, 57, 0
6, 353472, Note_on_c, 4, 57, 100
6, 353472, Note_on_c, 4, 66, 100
6, 353568, Note_on_c, 4, 66, 0
6, 353568, Note_on_c, 4, 57, 0
6, 353568, Note_on_c, 4, 57, 100
6, 353568, Note_on_c, 4, 66, 100
6, 353664, Note_on_c, 4, 66, 0
6, 353664, Note_on_c, 4, 57, 0
6, 353664, Note_on_c, 4, 57, 100
6, 353664, Note_on_c, 4, 66, 100
6, 353760, Note_on_c, 4, 66, 0
6, 353760, Note_on_c, 4, 57, 0
6, 353760, Note_on_c, 4, 57, 100
6, 353760, Note_on_c, 4, 66, 100
6, 353856, Note_on_c, 4, 66, 0
6, 353856, Note_on_c, 4, 57, 0
6, 353856, Note_on_c, 4, 57, 100
6, 353856, Note_on_c, 4, 66, 100
6, 353952, Note_on_c, 4, 66, 0
6, 353952, Note_on_c, 4, 57, 0
6, 353952, Note_on_c, 4, 57, 100
6, 353952, Note_on_c, 4, 66, 100
6, 354048, Note_on_c, 4, 66, 0
6, 354048, Note_on_c, 4, 57, 0
6, 354048, Note_on_c, 4, 57, 100
6, 354048, Note_on_c, 4, 66, 100
6, 354144, Note_on_c, 4, 66, 0
6, 354144, Note_on_c, 4, 57, 0
6, 354144, Note_on_c, 4, 57, 100
6, 354144, Note_on_c, 4, 66, 100
6, 354240, Note_on_c, 4, 66, 0
6, 354240, Note_on_c, 4, 57, 0
6, 354240, Note_on_c, 4, 57, 100
6, 354240, Note_on_c, 4, 66, 100
6, 354336, Note_on_c, 4, 66, 0
6, 354336, Note_on_c, 4, 57, 0
6, 354336, Note_on_c, 4, 57, 100
6, 354336, Note_on_c, 4, 66, 100
6, 354432, Note_on_c, 4, 66, 0
6, 354432, Note_on_c, 4, 57, 0
6, 354432, Note_on_c, 4, 57, 100
6, 354432, Note_on_c, 4, 66, 100
6, 354528, Note_on_c, 4, 66, 0
6, 354528, Note_on_c, 4, 57, 0
6, 354528, Note_on_c, 4, 57, 100
6, 354528, Note_on_c, 4, 66, 100
6, 354624, Note_on_c, 4, 66, 0
6, 354624, Note_on_c, 4, 57, 0
6, 354624, Note_on_c, 4, 57, 100
6, 354624, Note_on_c, 4, 66, 100
6, 354720, Note_on_c, 4, 66, 0
6, 354720, Note_on_c, 4, 57, 0
6, 354720, Note_on_c, 4, 57, 100
6, 354720, Note_on_c, 4, 66, 100
6, 354816, Note_on_c, 4, 66, 0
6, 354816, Note_on_c, 4, 57, 0
6, 354816, Note_on_c, 4, 67, 100
6, 354816, Note_on_c, 4, 58, 100
6, 354912, Note_on_c, 4, 58, 0
6, 354912, Note_on_c, 4, 67, 0
6, 354912, Note_on_c, 4, 67, 100
6, 354912, Note_on_c, 4, 58, 100
6, 355008, Note_on_c, 4, 58, 0
6, 355008, Note_on_c, 4, 67, 0
6, 355008, Note_on_c, 4, 67, 100
6, 355008, Note_on_c, 4, 58, 100
6, 355104, Note_on_c, 4, 58, 0
6, 355104, Note_on_c, 4, 67, 0
6, 355104, Note_on_c, 4, 67, 100
6, 355104, Note_on_c, 4, 58, 100
6, 355200, Note_on_c, 4, 58, 0
6, 355200, Note_on_c, 4, 67, 0
6, 355200, Note_on_c, 4, 67, 100
6, 355200, Note_on_c, 4, 58, 100
6, 355296, Note_on_c, 4, 58, 0
6, 355296, Note_on_c, 4, 67, 0
6, 355296, Note_on_c, 4, 67, 100
6, 355296, Note_on_c, 4, 58, 100
6, 355392, Note_on_c, 4, 58, 0
6, 355392, Note_on_c, 4, 67, 0
6, 355392, Note_on_c, 4, 67, 100
6, 355392, Note_on_c, 4, 58, 100
6, 355488, Note_on_c, 4, 58, 0
6, 355488, Note_on_c, 4, 67, 0
6, 355488, Note_on_c, 4, 67, 100
6, 355488, Note_on_c, 4, 58, 100
6, 355584, Note_on_c, 4, 58, 0
6, 355584, Note_on_c, 4, 67, 0
6, 355584, Note_on_c, 4, 67, 100
6, 355584, Note_on_c, 4, 58, 100
6, 355680, Note_on_c, 4, 58, 0
6, 355680, Note_on_c, 4, 67, 0
6, 355680, Note_on_c, 4, 67, 100
6, 355680, Note_on_c, 4, 58, 100
6, 355776, Note_on_c, 4, 58, 0
6, 355776, Note_on_c, 4, 67, 0
6, 355776, Note_on_c, 4, 67, 100
6, 355776, Note_on_c, 4, 58, 100
6, 355872, Note_on_c, 4, 58, 0
6, 355872, Note_on_c, 4, 67, 0
6, 355872, Note_on_c, 4, 67, 100
6, 355872, Note_on_c, 4, 58, 100
6, 355968, Note_on_c, 4, 58, 0
6, 355968, Note_on_c, 4, 67, 0
6, 355968, Note_on_c, 4, 67, 100
6, 355968, Note_on_c, 4, 58, 100
6, 356064, Note_on_c, 4, 58, 0
6, 356064, Note_on_c, 4, 67, 0
6, 356064, Note_on_c, 4, 67, 100
6, 356064, Note_on_c, 4, 58, 100
6, 356160, Note_on_c, 4, 58, 0
6, 356160, Note_on_c, 4, 67, 0
6, 356160, Note_on_c, 4, 67, 100
6, 356160, Note_on_c, 4, 58, 100
6, 356256, Note_on_c, 4, 58, 0
6, 356256, Note_on_c, 4, 67, 0
6, 356256, Note_on_c, 4, 67, 100
6, 356256, Note_on_c, 4, 58, 100
6, 356352, Note_on_c, 4, 58, 0
6, 356352, Note_on_c, 4, 67, 0
6, 356352, Note_on_c, 4, 58, 100
6, 356352, Note_on_c, 4, 62, 100
6, 356448, Note_on_c, 4, 62, 0
6, 356448, Note_on_c, 4, 58, 0
6, 356448, Note_on_c, 4, 58, 100
6, 356448, Note_on_c, 4, 62, 100
6, 356544, Note_on_c, 4, 62, 0
6, 356544, Note_on_c, 4, 58, 0
6, 356544, Note_on_c, 4, 58, 100
6, 356544, Note_on_c, 4, 62, 100
6, 356640, Note_on_c, 4, 62, 0
6, 356640, Note_on_c, 4, 58, 0
6, 356640, Note_on_c, 4, 58, 100
6, 356640, Note_on_c, 4, 62, 100
6, 356736, Note_on_c, 4, 62, 0
6, 356736, Note_on_c, 4, 58, 0
6, 356736, Note_on_c, 4, 58, 100
6, 356736, Note_on_c, 4, 62, 100
6, 356832, Note_on_c, 4, 62, 0
6, 356832, Note_on_c, 4, 58, 0
6, 356832, Note_on_c, 4, 58, 100
6, 356832, Note_on_c, 4, 62, 100
6, 356928, Note_on_c, 4, 62, 0
6, 356928, Note_on_c, 4, 58, 0
6, 356928, Note_on_c, 4, 58, 100
6, 356928, Note_on_c, 4, 62, 100
6, 357024, Note_on_c, 4, 62, 0
6, 357024, Note_on_c, 4, 58, 0
6, 357024, Note_on_c, 4, 58, 100
6, 357024, Note_on_c, 4, 62, 100
6, 357120, Note_on_c, 4, 62, 0
6, 357120, Note_on_c, 4, 58, 0
6, 357120, Note_on_c, 4, 58, 100
6, 357120, Note_on_c, 4, 62, 100
6, 357216, Note_on_c, 4, 62, 0
6, 357216, Note_on_c, 4, 58, 0
6, 357216, Note_on_c, 4, 58, 100
6, 357216, Note_on_c, 4, 62, 100
6, 357312, Note_on_c, 4, 62, 0
6, 357312, Note_on_c, 4, 58, 0
6, 357312, Note_on_c, 4, 58, 100
6, 357312, Note_on_c, 4, 62, 100
6, 357408, Note_on_c, 4, 62, 0
6, 357408, Note_on_c, 4, 58, 0
6, 357408, Note_on_c, 4, 58, 100
6, 357408, Note_on_c, 4, 62, 100
6, 357504, Note_on_c, 4, 62, 0
6, 357504, Note_on_c, 4, 58, 0
6, 357504, Note_on_c, 4, 58, 100
6, 357504, Note_on_c, 4, 62, 100
6, 357600, Note_on_c, 4, 62, 0
6, 357600, Note_on_c, 4, 58, 0
6, 357600, Note_on_c, 4, 58, 100
6, 357600, Note_on_c, 4, 62, 100
6, 357696, Note_on_c, 4, 62, 0
6, 357696, Note_on_c, 4, 58, 0
6, 357696, Note_on_c, 4, 58, 100
6, 357696, Note_on_c, 4, 62, 100
6, 357792, Note_on_c, 4, 62, 0
6, 357792, Note_on_c, 4, 58, 0
6, 357792, Note_on_c, 4, 58, 100
6, 357792, Note_on_c, 4, 62, 100
6, 357888, Note_on_c, 4, 62, 0
6, 357888, Note_on_c, 4, 58, 0
6, 357888, Note_on_c, 4, 62, 100
6, 357888, Note_on_c, 4, 60, 100
6, 357984, Note_on_c, 4, 60, 0
6, 357984, Note_on_c, 4, 62, 0
6, 357984, Note_on_c, 4, 62, 100
6, 357984, Note_on_c, 4, 60, 100
6, 358080, Note_on_c, 4, 60, 0
6, 358080, Note_on_c, 4, 62, 0
6, 358080, Note_on_c, 4, 62, 100
6, 358080, Note_on_c, 4, 60, 100
6, 358176, Note_on_c, 4, 60, 0
6, 358176, Note_on_c, 4, 62, 0
6, 358176, Note_on_c, 4, 62, 100
6, 358176, Note_on_c, 4, 60, 100
6, 358272, Note_on_c, 4, 60, 0
6, 358272, Note_on_c, 4, 62, 0
6, 358272, Note_on_c, 4, 62, 100
6, 358272, Note_on_c, 4, 60, 100
6, 358368, Note_on_c, 4, 60, 0
6, 358368, Note_on_c, 4, 62, 0
6, 358368, Note_on_c, 4, 62, 100
6, 358368, Note_on_c, 4, 60, 100
6, 358464, Note_on_c, 4, 60, 0
6, 358464, Note_on_c, 4, 62, 0
6, 358464, Note_on_c, 4, 62, 100
6, 358464, Note_on_c, 4, 60, 100
6, 358560, Note_on_c, 4, 60, 0
6, 358560, Note_on_c, 4, 62, 0
6, 358560, Note_on_c, 4, 62, 100
6, 358560, Note_on_c, 4, 60, 100
6, 358656, Note_on_c, 4, 60, 0
6, 358656, Note_on_c, 4, 62, 0
6, 358656, Note_on_c, 4, 62, 100
6, 358656, Note_on_c, 4, 60, 100
6, 358752, Note_on_c, 4, 60, 0
6, 358752, Note_on_c, 4, 62, 0
6, 358752, Note_on_c, 4, 62, 100
6, 358752, Note_on_c, 4, 60, 100
6, 358848, Note_on_c, 4, 60, 0
6, 358848, Note_on_c, 4, 62, 0
6, 358848, Note_on_c, 4, 62, 100
6, 358848, Note_on_c, 4, 60, 100
6, 358944, Note_on_c, 4, 60, 0
6, 358944, Note_on_c, 4, 62, 0
6, 358944, Note_on_c, 4, 62, 100
6, 358944, Note_on_c, 4, 60, 100
6, 359040, Note_on_c, 4, 60, 0
6, 359040, Note_on_c, 4, 62, 0
6, 359040, Note_on_c, 4, 62, 100
6, 359040, Note_on_c, 4, 60, 100
6, 359136, Note_on_c, 4, 60, 0
6, 359136, Note_on_c, 4, 62, 0
6, 359136, Note_on_c, 4, 62, 100
6, 359136, Note_on_c, 4, 60, 100
6, 359232, Note_on_c, 4, 60, 0
6, 359232, Note_on_c, 4, 62, 0
6, 359232, Note_on_c, 4, 62, 100
6, 359232, Note_on_c, 4, 60, 100
6, 359328, Note_on_c, 4, 60, 0
6, 359328, Note_on_c, 4, 62, 0
6, 359328, Note_on_c, 4, 62, 100
6, 359328, Note_on_c, 4, 60, 100
6, 359424, Note_on_c, 4, 60, 0
6, 359424, Note_on_c, 4, 62, 0
6, 359424, Note_on_c, 4, 66, 100
6, 359424, Note_on_c, 4, 57, 100
6, 359520, Note_on_c, 4, 57, 0
6, 359520, Note_on_c, 4, 66, 0
6, 359520, Note_on_c, 4, 66, 100
6, 359520, Note_on_c, 4, 57, 100
6, 359616, Note_on_c, 4, 57, 0
6, 359616, Note_on_c, 4, 66, 0
6, 359616, Note_on_c, 4, 66, 100
6, 359616, Note_on_c, 4, 57, 100
6, 359712, Note_on_c, 4, 57, 0
6, 359712, Note_on_c, 4, 66, 0
6, 359712, Note_on_c, 4, 66, 100
6, 359712, Note_on_c, 4, 57, 100
6, 359808, Note_on_c, 4, 57, 0
6, 359808, Note_on_c, 4, 66, 0
6, 359808, Note_on_c, 4, 66, 100
6, 359808, Note_on_c, 4, 57, 100
6, 359904, Note_on_c, 4, 57, 0
6, 359904, Note_on_c, 4, 66, 0
6, 359904, Note_on_c, 4, 66, 100
6, 359904, Note_on_c, 4, 57, 100
6, 360000, Note_on_c, 4, 57, 0
6, 360000, Note_on_c, 4, 66, 0
6, 360000, Note_on_c, 4, 66, 100
6, 360000, Note_on_c, 4, 57, 100
6, 360096, Note_on_c, 4, 57, 0
6, 360096, Note_on_c, 4, 66, 0
6, 360096, Note_on_c, 4, 66, 100
6, 360096, Note_on_c, 4, 57, 100
6, 360192, Note_on_c, 4, 57, 0
6, 360192, Note_on_c, 4, 66, 0
6, 360192, Note_on_c, 4, 66, 100
6, 360192, Note_on_c, 4, 57, 100
6, 360288, Note_on_c, 4, 57, 0
6, 360288, Note_on_c, 4, 66, 0
6, 360288, Note_on_c, 4, 66, 100
6, 360288, Note_on_c, 4, 57, 100
6, 360384, Note_on_c, 4, 57, 0
6, 360384, Note_on_c, 4, 66, 0
6, 360384, Note_on_c, 4, 66, 100
6, 360384, Note_on_c, 4, 57, 100
6, 360480, Note_on_c, 4, 57, 0
6, 360480, Note_on_c, 4, 66, 0
6, 360480, Note_on_c, 4, 66, 100
6, 360480, Note_on_c, 4, 57, 100
6, 360576, Note_on_c, 4, 57, 0
6, 360576, Note_on_c, 4, 66, 0
6, 360576, Note_on_c, 4, 66, 100
6, 360576, Note_on_c, 4, 57, 100
6, 360672, Note_on_c, 4, 57, 0
6, 360672, Note_on_c, 4, 66, 0
6, 360672, Note_on_c, 4, 66, 100
6, 360672, Note_on_c, 4, 57, 100
6, 360768, Note_on_c, 4, 57, 0
6, 360768, Note_on_c, 4, 66, 0
6, 360768, Note_on_c, 4, 66, 100
6, 360768, Note_on_c, 4, 57, 100
6, 360864, Note_on_c, 4, 57, 0
6, 360864, Note_on_c, 4, 66, 0
6, 360864, Note_on_c, 4, 66, 100
6, 360864, Note_on_c, 4, 57, 100
6, 360960, Note_on_c, 4, 57, 0
6, 360960, Note_on_c, 4, 66, 0
6, 360960, Note_on_c, 4, 58, 120
6, 360960, Note_on_c, 4, 67, 120
6, 361264, Note_on_c, 4, 67, 0
6, 361264, Note_on_c, 4, 58, 0
6, 364032, Note_on_c, 4, 60, 120
6, 364128, Note_on_c, 4, 60, 0
6, 364128, Note_on_c, 4, 60, 120
6, 364224, Note_on_c, 4, 60, 0
6, 364224, Note_on_c, 4, 60, 120
6, 364320, Note_on_c, 4, 60, 0
6, 364320, Note_on_c, 4, 60, 120
6, 364416, Note_on_c, 4, 60, 0
6, 364416, Note_on_c, 4, 63, 120
6, 364512, Note_on_c, 4, 63, 0
6, 364512, Note_on_c, 4, 63, 120
6, 364608, Note_on_c, 4, 63, 0
6, 364608, Note_on_c, 4, 63, 120
6, 364704, Note_on_c, 4, 63, 0
6, 364704, Note_on_c, 4, 63, 120
6, 364800, Note_on_c, 4, 63, 0
6, 364800, Note_on_c, 4, 67, 120
6, 364896, Note_on_c, 4, 67, 0
6, 364896, Note_on_c, 4, 67, 120
6, 364992, Note_on_c, 4, 67, 0
6, 364992, Note_on_c, 4, 67, 120
6, 365088, Note_on_c, 4, 67, 0
6, 365088, Note_on_c, 4, 67, 120
6, 365184, Note_on_c, 4, 67, 0
6, 365184, Note_on_c, 4, 72, 120
6, 365280, Note_on_c, 4, 72, 0
6, 365280, Note_on_c, 4, 72, 120
6, 365376, Note_on_c, 4, 72, 0
6, 365376, Note_on_c, 4, 72, 120
6, 365472, Note_on_c, 4, 72, 0
6, 365472, Note_on_c, 4, 72, 120
6, 365568, Note_on_c, 4, 72, 0
6, 365568, Note_on_c, 4, 75, 120
6, 365664, Note_on_c, 4, 75, 0
6, 365664, Note_on_c, 4, 75, 120
6, 365760, Note_on_c, 4, 75, 0
6, 365760, Note_on_c, 4, 75, 120
6, 365856, Note_on_c, 4, 75, 0
6, 365856, Note_on_c, 4, 75, 120
6, 365952, Note_on_c, 4, 75, 0
6, 365952, Note_on_c, 4, 72, 120
6, 366048, Note_on_c, 4, 72, 0
6, 366048, Note_on_c, 4, 72, 120
6, 366144, Note_on_c, 4, 72, 0
6, 366144, Note_on_c, 4, 72, 120
6, 366240, Note_on_c, 4, 72, 0
6, 366240, Note_on_c, 4, 72, 120
6, 366336, Note_on_c, 4, 72, 0
6, 366336, Note_on_c, 4, 67, 120
6, 366432, Note_on_c, 4, 67, 0
6, 366432, Note_on_c, 4, 67, 120
6, 366528, Note_on_c, 4, 67, 0
6, 366528, Note_on_c, 4, 67, 120
6, 366624, Note_on_c, 4, 67, 0
6, 366624, Note_on_c, 4, 67, 120
6, 366720, Note_on_c, 4, 67, 0
6, 366720, Note_on_c, 4, 63, 120
6, 366816, Note_on_c, 4, 63, 0
6, 366816, Note_on_c, 4, 63, 120
6, 366912, Note_on_c, 4, 63, 0
6, 366912, Note_on_c, 4, 63, 120
6, 367008, Note_on_c, 4, 63, 0
6, 367008, Note_on_c, 4, 63, 120
6, 367104, Note_on_c, 4, 63, 0
6, 367104, Note_on_c, 4, 57, 100
6, 367256, Note_on_c, 4, 57, 0
6, 367296, Note_on_c, 4, 57, 100
6, 367600, Note_on_c, 4, 57, 0
6, 367680, Note_on_c, 4, 57, 100
6, 367984, Note_on_c, 4, 57, 0
6, 368064, Note_on_c, 4, 57, 100
6, 368368, Note_on_c, 4, 57, 0
6, 368448, Note_on_c, 4, 57, 100
6, 368792, Note_on_c, 4, 57, 0
6, 368832, Note_on_c, 4, 57, 100
6, 369136, Note_on_c, 4, 57, 0
6, 369216, Note_on_c, 4, 57, 100
6, 369520, Note_on_c, 4, 57, 0
6, 369600, Note_on_c, 4, 57, 100
6, 369904, Note_on_c, 4, 57, 0
6, 369984, Note_on_c, 4, 57, 100
6, 370136, Note_on_c, 4, 57, 0
6, 370176, Note_on_c, 4, 58, 120
6, 370272, Note_on_c, 4, 58, 0
6, 370272, Note_on_c, 4, 58, 120
6, 370368, Note_on_c, 4, 58, 0
6, 370368, Note_on_c, 4, 58, 120
6, 370464, Note_on_c, 4, 58, 0
6, 370464, Note_on_c, 4, 58, 120
6, 370560, Note_on_c, 4, 58, 0
6, 370560, Note_on_c, 4, 62, 120
6, 370656, Note_on_c, 4, 62, 0
6, 370656, Note_on_c, 4, 62, 120
6, 370752, Note_on_c, 4, 62, 0
6, 370752, Note_on_c, 4, 62, 120
6, 370848, Note_on_c, 4, 62, 0
6, 370848, Note_on_c, 4, 62, 120
6, 370944, Note_on_c, 4, 62, 0
6, 370944, Note_on_c, 4, 65, 120
6, 371040, Note_on_c, 4, 65, 0
6, 371040, Note_on_c, 4, 65, 120
6, 371136, Note_on_c, 4, 65, 0
6, 371136, Note_on_c, 4, 65, 120
6, 371232, Note_on_c, 4, 65, 0
6, 371232, Note_on_c, 4, 65, 120
6, 371328, Note_on_c, 4, 65, 0
6, 371328, Note_on_c, 4, 70, 120
6, 371424, Note_on_c, 4, 70, 0
6, 371424, Note_on_c, 4, 70, 120
6, 371520, Note_on_c, 4, 70, 0
6, 371520, Note_on_c, 4, 70, 120
6, 371616, Note_on_c, 4, 70, 0
6, 371616, Note_on_c, 4, 70, 120
6, 371712, Note_on_c, 4, 70, 0
6, 371712, Note_on_c, 4, 74, 120
6, 371808, Note_on_c, 4, 74, 0
6, 371808, Note_on_c, 4, 74, 120
6, 371904, Note_on_c, 4, 74, 0
6, 371904, Note_on_c, 4, 74, 120
6, 372000, Note_on_c, 4, 74, 0
6, 372000, Note_on_c, 4, 74, 120
6, 372096, Note_on_c, 4, 74, 0
6, 372096, Note_on_c, 4, 70, 120
6, 372192, Note_on_c, 4, 70, 0
6, 372192, Note_on_c, 4, 70, 120
6, 372288, Note_on_c, 4, 70, 0
6, 372288, Note_on_c, 4, 70, 120
6, 372384, Note_on_c, 4, 70, 0
6, 372384, Note_on_c, 4, 70, 120
6, 372480, Note_on_c, 4, 70, 0
6, 372480, Note_on_c, 4, 65, 120
6, 372576, Note_on_c, 4, 65, 0
6, 372576, Note_on_c, 4, 65, 120
6, 372672, Note_on_c, 4, 65, 0
6, 372672, Note_on_c, 4, 65, 120
6, 372768, Note_on_c, 4, 65, 0
6, 372768, Note_on_c, 4, 65, 120
6, 372864, Note_on_c, 4, 65, 0
6, 372864, Note_on_c, 4, 62, 120
6, 372960, Note_on_c, 4, 62, 0
6, 372960, Note_on_c, 4, 62, 120
6, 373056, Note_on_c, 4, 62, 0
6, 373056, Note_on_c, 4, 62, 120
6, 373152, Note_on_c, 4, 62, 0
6, 373152, Note_on_c, 4, 62, 120
6, 373248, Note_on_c, 4, 62, 0
6, 373248, Note_on_c, 4, 55, 120
6, 373400, Note_on_c, 4, 55, 0
6, 373440, Note_on_c, 4, 55, 120
6, 373744, Note_on_c, 4, 55, 0
6, 373824, Note_on_c, 4, 55, 120
6, 374128, Note_on_c, 4, 55, 0
6, 374208, Note_on_c, 4, 55, 120
6, 374512, Note_on_c, 4, 55, 0
6, 374592, Note_on_c, 4, 55, 120
6, 374936, Note_on_c, 4, 55, 0
6, 374976, Note_on_c, 4, 55, 120
6, 375280, Note_on_c, 4, 55, 0
6, 375360, Note_on_c, 4, 55, 120
6, 375664, Note_on_c, 4, 55, 0
6, 375744, Note_on_c, 4, 55, 120
6, 376048, Note_on_c, 4, 55, 0
6, 376128, Note_on_c, 4, 55, 120
6, 376280, Note_on_c, 4, 55, 0
6, 376320, Note_on_c, 4, 57, 120
6, 376416, Note_on_c, 4, 57, 0
6, 376416, Note_on_c, 4, 57, 120
6, 376512, Note_on_c, 4, 57, 0
6, 376512, Note_on_c, 4, 57, 120
6, 376608, Note_on_c, 4, 57, 0
6, 376608, Note_on_c, 4, 57, 120
6, 376704, Note_on_c, 4, 57, 0
6, 376704, Note_on_c, 4, 60, 120
6, 376800, Note_on_c, 4, 60, 0
6, 376800, Note_on_c, 4, 60, 120
6, 376896, Note_on_c, 4, 60, 0
6, 376896, Note_on_c, 4, 60, 120
6, 376992, Note_on_c, 4, 60, 0
6, 376992, Note_on_c, 4, 60, 120
6, 377088, Note_on_c, 4, 60, 0
6, 377088, Note_on_c, 4, 63, 120
6, 377184, Note_on_c, 4, 63, 0
6, 377184, Note_on_c, 4, 63, 120
6, 377280, Note_on_c, 4, 63, 0
6, 377280, Note_on_c, 4, 63, 120
6, 377376, Note_on_c, 4, 63, 0
6, 377376, Note_on_c, 4, 63, 120
6, 377472, Note_on_c, 4, 63, 0
6, 377472, Note_on_c, 4, 69, 120
6, 377568, Note_on_c, 4, 69, 0
6, 377568, Note_on_c, 4, 69, 120
6, 377664, Note_on_c, 4, 69, 0
6, 377664, Note_on_c, 4, 69, 120
6, 377760, Note_on_c, 4, 69, 0
6, 377760, Note_on_c, 4, 69, 120
6, 377856, Note_on_c, 4, 69, 0
6, 377856, Note_on_c, 4, 72, 120
6, 377952, Note_on_c, 4, 72, 0
6, 377952, Note_on_c, 4, 72, 120
6, 378048, Note_on_c, 4, 72, 0
6, 378048, Note_on_c, 4, 72, 120
6, 378144, Note_on_c, 4, 72, 0
6, 378144, Note_on_c, 4, 72, 120
6, 378240, Note_on_c, 4, 72, 0
6, 378240, Note_on_c, 4, 69, 120
6, 378336, Note_on_c, 4, 69, 0
6, 378336, Note_on_c, 4, 69, 120
6, 378432, Note_on_c, 4, 69, 0
6, 378432, Note_on_c, 4, 69, 120
6, 378528, Note_on_c, 4, 69, 0
6, 378528, Note_on_c, 4, 69, 120
6, 378624, Note_on_c, 4, 69, 0
6, 378624, Note_on_c, 4, 63, 120
6, 378720, Note_on_c, 4, 63, 0
6, 378720, Note_on_c, 4, 63, 120
6, 378816, Note_on_c, 4, 63, 0
6, 378816, Note_on_c, 4, 63, 120
6, 378912, Note_on_c, 4, 63, 0
6, 378912, Note_on_c, 4, 63, 120
6, 379008, Note_on_c, 4, 63, 0
6, 379008, Note_on_c, 4, 60, 120
6, 379104, Note_on_c, 4, 60, 0
6, 379104, Note_on_c, 4, 60, 120
6, 379200, Note_on_c, 4, 60, 0
6, 379200, Note_on_c, 4, 60, 120
6, 379296, Note_on_c, 4, 60, 0
6, 379296, Note_on_c, 4, 60, 120
6, 379392, Note_on_c, 4, 60, 0
6, 379392, Note_on_c, 4, 84, 120
6, 379488, Note_on_c, 4, 84, 0
6, 379488, Note_on_c, 4, 84, 120
6, 379584, Note_on_c, 4, 84, 0
6, 379584, Note_on_c, 4, 84, 120
6, 379680, Note_on_c, 4, 84, 0
6, 379680, Note_on_c, 4, 84, 120
6, 379776, Note_on_c, 4, 84, 0
6, 379776, Note_on_c, 4, 81, 120
6, 379872, Note_on_c, 4, 81, 0
6, 379872, Note_on_c, 4, 81, 120
6, 379968, Note_on_c, 4, 81, 0
6, 379968, Note_on_c, 4, 81, 120
6, 380064, Note_on_c, 4, 81, 0
6, 380064, Note_on_c, 4, 81, 120
6, 380160, Note_on_c, 4, 81, 0
6, 380160, Note_on_c, 4, 78, 120
6, 380256, Note_on_c, 4, 78, 0
6, 380256, Note_on_c, 4, 78, 120
6, 380352, Note_on_c, 4, 78, 0
6, 380352, Note_on_c, 4, 78, 120
6, 380448, Note_on_c, 4, 78, 0
6, 380448, Note_on_c, 4, 78, 120
6, 380544, Note_on_c, 4, 78, 0
6, 380544, Note_on_c, 4, 74, 120
6, 380640, Note_on_c, 4, 74, 0
6, 380640, Note_on_c, 4, 74, 120
6, 380736, Note_on_c, 4, 74, 0
6, 380736, Note_on_c, 4, 74, 120
6, 380832, Note_on_c, 4, 74, 0
6, 380832, Note_on_c, 4, 74, 120
6, 380928, Note_on_c, 4, 74, 0
6, 380928, Note_on_c, 4, 72, 120
6, 381024, Note_on_c, 4, 72, 0
6, 381024, Note_on_c, 4, 72, 120
6, 381120, Note_on_c, 4, 72, 0
6, 381120, Note_on_c, 4, 72, 120
6, 381216, Note_on_c, 4, 72, 0
6, 381216, Note_on_c, 4, 72, 120
6, 381312, Note_on_c, 4, 72, 0
6, 381312, Note_on_c, 4, 69, 120
6, 381408, Note_on_c, 4, 69, 0
6, 381408, Note_on_c, 4, 69, 120
6, 381504, Note_on_c, 4, 69, 0
6, 381504, Note_on_c, 4, 69, 120
6, 381600, Note_on_c, 4, 69, 0
6, 381600, Note_on_c, 4, 69, 120
6, 381696, Note_on_c, 4, 69, 0
6, 381696, Note_on_c, 4, 66, 120
6, 381792, Note_on_c, 4, 66, 0
6, 381792, Note_on_c, 4, 66, 120
6, 381888, Note_on_c, 4, 66, 0
6, 381888, Note_on_c, 4, 66, 120
6, 381984, Note_on_c, 4, 66, 0
6, 381984, Note_on_c, 4, 66, 120
6, 382080, Note_on_c, 4, 66, 0
6, 382080, Note_on_c, 4, 62, 120
6, 382176, Note_on_c, 4, 62, 0
6, 382176, Note_on_c, 4, 62, 120
6, 382272, Note_on_c, 4, 62, 0
6, 382272, Note_on_c, 4, 62, 120
6, 382368, Note_on_c, 4, 62, 0
6, 382368, Note_on_c, 4, 62, 120
6, 382464, Note_on_c, 4, 62, 0
6, 382464, Note_on_c, 4, 82, 120
6, 382560, Note_on_c, 4, 82, 0
6, 382560, Note_on_c, 4, 82, 120
6, 382656, Note_on_c, 4, 82, 0
6, 382656, Note_on_c, 4, 82, 120
6, 382752, Note_on_c, 4, 82, 0
6, 382752, Note_on_c, 4, 82, 120
6, 382848, Note_on_c, 4, 82, 0
6, 382848, Note_on_c, 4, 79, 120
6, 382944, Note_on_c, 4, 79, 0
6, 382944, Note_on_c, 4, 79, 120
6, 383040, Note_on_c, 4, 79, 0
6, 383040, Note_on_c, 4, 79, 120
6, 383136, Note_on_c, 4, 79, 0
6, 383136, Note_on_c, 4, 79, 120
6, 383232, Note_on_c, 4, 79, 0
6, 383232, Note_on_c, 4, 74, 120
6, 383328, Note_on_c, 4, 74, 0
6, 383328, Note_on_c, 4, 74, 120
6, 383424, Note_on_c, 4, 74, 0
6, 383424, Note_on_c, 4, 74, 120
6, 383520, Note_on_c, 4, 74, 0
6, 383520, Note_on_c, 4, 74, 120
6, 383616, Note_on_c, 4, 74, 0
6, 383616, Note_on_c, 4, 70, 120
6, 383712, Note_on_c, 4, 70, 0
6, 383712, Note_on_c, 4, 70, 120
6, 383808, Note_on_c, 4, 70, 0
6, 383808, Note_on_c, 4, 70, 120
6, 383904, Note_on_c, 4, 70, 0
6, 383904, Note_on_c, 4, 70, 120
6, 384000, Note_on_c, 4, 70, 0
6, 384000, Note_on_c, 4, 67, 120
6, 384096, Note_on_c, 4, 67, 0
6, 384096, Note_on_c, 4, 67, 120
6, 384192, Note_on_c, 4, 67, 0
6, 384192, Note_on_c, 4, 67, 120
6, 384288, Note_on_c, 4, 67, 0
6, 384288, Note_on_c, 4, 67, 120
6, 384384, Note_on_c, 4, 67, 0
6, 384384, Note_on_c, 4, 62, 120
6, 384480, Note_on_c, 4, 62, 0
6, 384480, Note_on_c, 4, 62, 120
6, 384576, Note_on_c, 4, 62, 0
6, 384576, Note_on_c, 4, 62, 120
6, 384672, Note_on_c, 4, 62, 0
6, 384672, Note_on_c, 4, 62, 120
6, 384768, Note_on_c, 4, 62, 0
6, 384768, Note_on_c, 4, 58, 120
6, 384864, Note_on_c, 4, 58, 0
6, 384864, Note_on_c, 4, 58, 120
6, 384960, Note_on_c, 4, 58, 0
6, 384960, Note_on_c, 4, 58, 120
6, 385056, Note_on_c, 4, 58, 0
6, 385056, Note_on_c, 4, 58, 120
6, 385152, Note_on_c, 4, 58, 0
6, 385152, Note_on_c, 4, 55, 120
6, 385248, Note_on_c, 4, 55, 0
6, 385248, Note_on_c, 4, 55, 120
6, 385344, Note_on_c, 4, 55, 0
6, 385344, Note_on_c, 4, 55, 120
6, 385440, Note_on_c, 4, 55, 0
6, 385440, Note_on_c, 4, 55, 120
6, 385536, Note_on_c, 4, 55, 0
6, 385536, Note_on_c, 4, 80, 120
6, 385632, Note_on_c, 4, 80, 0
6, 385632, Note_on_c, 4, 80, 120
6, 385728, Note_on_c, 4, 80, 0
6, 385728, Note_on_c, 4, 80, 120
6, 385824, Note_on_c, 4, 80, 0
6, 385824, Note_on_c, 4, 80, 120
6, 385920, Note_on_c, 4, 80, 0
6, 385920, Note_on_c, 4, 77, 120
6, 386016, Note_on_c, 4, 77, 0
6, 386016, Note_on_c, 4, 77, 120
6, 386112, Note_on_c, 4, 77, 0
6, 386112, Note_on_c, 4, 77, 120
6, 386208, Note_on_c, 4, 77, 0
6, 386208, Note_on_c, 4, 77, 120
6, 386304, Note_on_c, 4, 77, 0
6, 386304, Note_on_c, 4, 74, 120
6, 386400, Note_on_c, 4, 74, 0
6, 386400, Note_on_c, 4, 74, 120
6, 386496, Note_on_c, 4, 74, 0
6, 386496, Note_on_c, 4, 74, 120
6, 386592, Note_on_c, 4, 74, 0
6, 386592, Note_on_c, 4, 74, 120
6, 386688, Note_on_c, 4, 74, 0
6, 386688, Note_on_c, 4, 71, 120
6, 386784, Note_on_c, 4, 71, 0
6, 386784, Note_on_c, 4, 71, 120
6, 386880, Note_on_c, 4, 71, 0
6, 386880, Note_on_c, 4, 71, 120
6, 386976, Note_on_c, 4, 71, 0
6, 386976, Note_on_c, 4, 71, 120
6, 387072, Note_on_c, 4, 71, 0
6, 387072, Note_on_c, 4, 68, 120
6, 387168, Note_on_c, 4, 68, 0
6, 387168, Note_on_c, 4, 68, 120
6, 387264, Note_on_c, 4, 68, 0
6, 387264, Note_on_c, 4, 68, 120
6, 387360, Note_on_c, 4, 68, 0
6, 387360, Note_on_c, 4, 68, 120
6, 387456, Note_on_c, 4, 68, 0
6, 387456, Note_on_c, 4, 65, 120
6, 387552, Note_on_c, 4, 65, 0
6, 387552, Note_on_c, 4, 65, 120
6, 387648, Note_on_c, 4, 65, 0
6, 387648, Note_on_c, 4, 65, 120
6, 387744, Note_on_c, 4, 65, 0
6, 387744, Note_on_c, 4, 65, 120
6, 387840, Note_on_c, 4, 65, 0
6, 387840, Note_on_c, 4, 62, 120
6, 387936, Note_on_c, 4, 62, 0
6, 387936, Note_on_c, 4, 62, 120
6, 388032, Note_on_c, 4, 62, 0
6, 388032, Note_on_c, 4, 62, 120
6, 388128, Note_on_c, 4, 62, 0
6, 388128, Note_on_c, 4, 62, 120
6, 388224, Note_on_c, 4, 62, 0
6, 388224, Note_on_c, 4, 59, 120
6, 388320, Note_on_c, 4, 59, 0
6, 388320, Note_on_c, 4, 59, 120
6, 388416, Note_on_c, 4, 59, 0
6, 388416, Note_on_c, 4, 59, 120
6, 388512, Note_on_c, 4, 59, 0
6, 388512, Note_on_c, 4, 59, 120
6, 388608, Note_on_c, 4, 59, 0
6, 388608, Note_on_c, 4, 84, 120
6, 388704, Note_on_c, 4, 84, 0
6, 388704, Note_on_c, 4, 84, 120
6, 388800, Note_on_c, 4, 84, 0
6, 388800, Note_on_c, 4, 84, 120
6, 388896, Note_on_c, 4, 84, 0
6, 388896, Note_on_c, 4, 84, 120
6, 388992, Note_on_c, 4, 84, 0
6, 388992, Note_on_c, 4, 79, 120
6, 389088, Note_on_c, 4, 79, 0
6, 389088, Note_on_c, 4, 79, 120
6, 389184, Note_on_c, 4, 79, 0
6, 389184, Note_on_c, 4, 79, 120
6, 389280, Note_on_c, 4, 79, 0
6, 389280, Note_on_c, 4, 79, 120
6, 389376, Note_on_c, 4, 79, 0
6, 389376, Note_on_c, 4, 75, 120
6, 389472, Note_on_c, 4, 75, 0
6, 389472, Note_on_c, 4, 75, 120
6, 389568, Note_on_c, 4, 75, 0
6, 389568, Note_on_c, 4, 75, 120
6, 389664, Note_on_c, 4, 75, 0
6, 389664, Note_on_c, 4, 75, 120
6, 389760, Note_on_c, 4, 75, 0
6, 389760, Note_on_c, 4, 71, 120
6, 389856, Note_on_c, 4, 71, 0
6, 389856, Note_on_c, 4, 71, 120
6, 389952, Note_on_c, 4, 71, 0
6, 389952, Note_on_c, 4, 71, 120
6, 390048, Note_on_c, 4, 71, 0
6, 390048, Note_on_c, 4, 71, 120
6, 390144, Note_on_c, 4, 71, 0
6, 390144, Note_on_c, 4, 72, 120
6, 390240, Note_on_c, 4, 72, 0
6, 390240, Note_on_c, 4, 72, 120
6, 390336, Note_on_c, 4, 72, 0
6, 390336, Note_on_c, 4, 72, 120
6, 390432, Note_on_c, 4, 72, 0
6, 390432, Note_on_c, 4, 72, 120
6, 390528, Note_on_c, 4, 72, 0
6, 390528, Note_on_c, 4, 67, 120
6, 390624, Note_on_c, 4, 67, 0
6, 390624, Note_on_c, 4, 67, 120
6, 390720, Note_on_c, 4, 67, 0
6, 390720, Note_on_c, 4, 67, 120
6, 390816, Note_on_c, 4, 67, 0
6, 390816, Note_on_c, 4, 67, 120
6, 390912, Note_on_c, 4, 67, 0
6, 390912, Note_on_c, 4, 63, 120
6, 391008, Note_on_c, 4, 63, 0
6, 391008, Note_on_c, 4, 63, 120
6, 391104, Note_on_c, 4, 63, 0
6, 391104, Note_on_c, 4, 63, 120
6, 391200, Note_on_c, 4, 63, 0
6, 391200, Note_on_c, 4, 63, 120
6, 391296, Note_on_c, 4, 63, 0
6, 391296, Note_on_c, 4, 60, 120
6, 391392, Note_on_c, 4, 60, 0
6, 391392, Note_on_c, 4, 60, 120
6, 391488, Note_on_c, 4, 60, 0
6, 391488, Note_on_c, 4, 60, 120
6, 391584, Note_on_c, 4, 60, 0
6, 391584, Note_on_c, 4, 60, 120
6, 391680, Note_on_c, 4, 60, 0
6, 391680, Note_on_c, 4, 82, 120
6, 391776, Note_on_c, 4, 82, 0
6, 391776, Note_on_c, 4, 82, 120
6, 391872, Note_on_c, 4, 82, 0
6, 391872, Note_on_c, 4, 82, 120
6, 391968, Note_on_c, 4, 82, 0
6, 391968, Note_on_c, 4, 82, 120
6, 392064, Note_on_c, 4, 82, 0
6, 392064, Note_on_c, 4, 79, 120
6, 392160, Note_on_c, 4, 79, 0
6, 392160, Note_on_c, 4, 79, 120
6, 392256, Note_on_c, 4, 79, 0
6, 392256, Note_on_c, 4, 79, 120
6, 392352, Note_on_c, 4, 79, 0
6, 392352, Note_on_c, 4, 79, 120
6, 392448, Note_on_c, 4, 79, 0
6, 392448, Note_on_c, 4, 76, 120
6, 392544, Note_on_c, 4, 76, 0
6, 392544, Note_on_c, 4, 76, 120
6, 392640, Note_on_c, 4, 76, 0
6, 392640, Note_on_c, 4, 76, 120
6, 392736, Note_on_c, 4, 76, 0
6, 392736, Note_on_c, 4, 76, 120
6, 392832, Note_on_c, 4, 76, 0
6, 392832, Note_on_c, 4, 73, 120
6, 392928, Note_on_c, 4, 73, 0
6, 392928, Note_on_c, 4, 73, 120
6, 393024, Note_on_c, 4, 73, 0
6, 393024, Note_on_c, 4, 73, 120
6, 393120, Note_on_c, 4, 73, 0
6, 393120, Note_on_c, 4, 73, 120
6, 393216, Note_on_c, 4, 73, 0
6, 393216, Note_on_c, 4, 70, 120
6, 393312, Note_on_c, 4, 70, 0
6, 393312, Note_on_c, 4, 70, 120
6, 393408, Note_on_c, 4, 70, 0
6, 393408, Note_on_c, 4, 70, 120
6, 393504, Note_on_c, 4, 70, 0
6, 393504, Note_on_c, 4, 70, 120
6, 393600, Note_on_c, 4, 70, 0
6, 393600, Note_on_c, 4, 67, 120
6, 393696, Note_on_c, 4, 67, 0
6, 393696, Note_on_c, 4, 67, 120
6, 393792, Note_on_c, 4, 67, 0
6, 393792, Note_on_c, 4, 67, 120
6, 393888, Note_on_c, 4, 67, 0
6, 393888, Note_on_c, 4, 67, 120
6, 393984, Note_on_c, 4, 67, 0
6, 393984, Note_on_c, 4, 64, 120
6, 394080, Note_on_c, 4, 64, 0
6, 394080, Note_on_c, 4, 64, 120
6, 394176, Note_on_c, 4, 64, 0
6, 394176, Note_on_c, 4, 64, 120
6, 394272, Note_on_c, 4, 64, 0
6, 394272, Note_on_c, 4, 64, 120
6, 394368, Note_on_c, 4, 64, 0
6, 394368, Note_on_c, 4, 61, 120
6, 394464, Note_on_c, 4, 61, 0
6, 394464, Note_on_c, 4, 61, 120
6, 394560, Note_on_c, 4, 61, 0
6, 394560, Note_on_c, 4, 61, 120
6, 394656, Note_on_c, 4, 61, 0
6, 394656, Note_on_c, 4, 61, 120
6, 394752, Note_on_c, 4, 61, 0
6, 394752, Note_on_c, 4, 62, 120
6, 394848, Note_on_c, 4, 62, 0
6, 394848, Note_on_c, 4, 62, 120
6, 394944, Note_on_c, 4, 62, 0
6, 394944, Note_on_c, 4, 62, 120
6, 395040, Note_on_c, 4, 62, 0
6, 395040, Note_on_c, 4, 62, 120
6, 395136, Note_on_c, 4, 62, 0
6, 395136, Note_on_c, 4, 63, 120
6, 395232, Note_on_c, 4, 63, 0
6, 395232, Note_on_c, 4, 63, 120
6, 395328, Note_on_c, 4, 63, 0
6, 395328, Note_on_c, 4, 63, 120
6, 395424, Note_on_c, 4, 63, 0
6, 395424, Note_on_c, 4, 63, 120
6, 395520, Note_on_c, 4, 63, 0
6, 395520, Note_on_c, 4, 62, 120
6, 395616, Note_on_c, 4, 62, 0
6, 395616, Note_on_c, 4, 62, 120
6, 395712, Note_on_c, 4, 62, 0
6, 395712, Note_on_c, 4, 62, 120
6, 395808, Note_on_c, 4, 62, 0
6, 395808, Note_on_c, 4, 62, 120
6, 395904, Note_on_c, 4, 62, 0
6, 395904, Note_on_c, 4, 61, 120
6, 396000, Note_on_c, 4, 61, 0
6, 396000, Note_on_c, 4, 61, 120
6, 396096, Note_on_c, 4, 61, 0
6, 396096, Note_on_c, 4, 61, 120
6, 396192, Note_on_c, 4, 61, 0
6, 396192, Note_on_c, 4, 61, 120
6, 396288, Note_on_c, 4, 61, 0
6, 396288, Note_on_c, 4, 62, 120
6, 396516, Note_on_c, 4, 62, 0
6, 396672, Note_on_c, 4, 74, 77
6, 396900, Note_on_c, 4, 74, 0
6, 397056, Note_on_c, 4, 62, 77
6, 397284, Note_on_c, 4, 62, 0
6, 397824, Note_on_c, 4, 55, 64
6, 398128, Note_on_c, 4, 55, 0
6, 398208, Note_on_c, 4, 55, 64
6, 398820, Note_on_c, 4, 55, 0
6, 398976, Note_on_c, 4, 55, 64
6, 399664, Note_on_c, 4, 55, 0
6, 399744, Note_on_c, 4, 55, 64
6, 400356, Note_on_c, 4, 55, 0
6, 400512, Note_on_c, 4, 55, 64
6, 401200, Note_on_c, 4, 55, 0
6, 401280, Note_on_c, 4, 55, 64
6, 401892, Note_on_c, 4, 55, 0
6, 402048, Note_on_c, 4, 55, 64
6, 402736, Note_on_c, 4, 55, 0
6, 402816, Note_on_c, 4, 55, 64
6, 403428, Note_on_c, 4, 55, 0
6, 403584, Note_on_c, 4, 55, 64
6, 404160, Note_on_c, 4, 55, 0
6, 404160, Note_on_c, 4, 67, 80
6, 404312, Note_on_c, 4, 67, 0
6, 404352, Note_on_c, 4, 67, 80
6, 404504, Note_on_c, 4, 67, 0
6, 404544, Note_on_c, 4, 67, 80
6, 404696, Note_on_c, 4, 67, 0
6, 404736, Note_on_c, 4, 67, 80
6, 404928, Note_on_c, 4, 67, 0
6, 404928, Note_on_c, 4, 66, 80
6, 405080, Note_on_c, 4, 66, 0
6, 405120, Note_on_c, 4, 63, 80
6, 405272, Note_on_c, 4, 63, 0
6, 405312, Note_on_c, 4, 62, 80
6, 405464, Note_on_c, 4, 62, 0
6, 405504, Note_on_c, 4, 60, 80
6, 405696, Note_on_c, 4, 60, 0
6, 405696, Note_on_c, 4, 63, 80
6, 405848, Note_on_c, 4, 63, 0
6, 405888, Note_on_c, 4, 63, 80
6, 406040, Note_on_c, 4, 63, 0
6, 406080, Note_on_c, 4, 63, 80
6, 406232, Note_on_c, 4, 63, 0
6, 406272, Note_on_c, 4, 63, 80
6, 406464, Note_on_c, 4, 63, 0
6, 406464, Note_on_c, 4, 62, 80
6, 406616, Note_on_c, 4, 62, 0
6, 406656, Note_on_c, 4, 60, 80
6, 406808, Note_on_c, 4, 60, 0
6, 406848, Note_on_c, 4, 58, 80
6, 407000, Note_on_c, 4, 58, 0
6, 407040, Note_on_c, 4, 57, 80
6, 407232, Note_on_c, 4, 57, 0
6, 407232, Note_on_c, 4, 60, 80
6, 407384, Note_on_c, 4, 60, 0
6, 407424, Note_on_c, 4, 60, 80
6, 407576, Note_on_c, 4, 60, 0
6, 407616, Note_on_c, 4, 60, 80
6, 407768, Note_on_c, 4, 60, 0
6, 407808, Note_on_c, 4, 58, 80
6, 408000, Note_on_c, 4, 58, 0
6, 408000, Note_on_c, 4, 62, 80
6, 408152, Note_on_c, 4, 62, 0
6, 408192, Note_on_c, 4, 67, 80
6, 408344, Note_on_c, 4, 67, 0
6, 408384, Note_on_c, 4, 70, 80
6, 408536, Note_on_c, 4, 70, 0
6, 408576, Note_on_c, 4, 70, 80
6, 408768, Note_on_c, 4, 70, 0
6, 408768, Note_on_c, 4, 69, 80
6, 408920, Note_on_c, 4, 69, 0
6, 408960, Note_on_c, 4, 67, 80
6, 409112, Note_on_c, 4, 67, 0
6, 409152, Note_on_c, 4, 66, 80
6, 409304, Note_on_c, 4, 66, 0
6, 409344, Note_on_c, 4, 69, 100
6, 409536, Note_on_c, 4, 69, 0
6, 409536, Note_on_c, 4, 67, 100
6, 409688, Note_on_c, 4, 67, 0
6, 409728, Note_on_c, 4, 66, 100
6, 409880, Note_on_c, 4, 66, 0
6, 409920, Note_on_c, 4, 67, 100
6, 410072, Note_on_c, 4, 67, 0
6, 410112, Note_on_c, 4, 70, 100
6, 410304, Note_on_c, 4, 70, 0
6, 410304, Note_on_c, 4, 69, 100
6, 410456, Note_on_c, 4, 69, 0
6, 410496, Note_on_c, 4, 67, 100
6, 410648, Note_on_c, 4, 67, 0
6, 410688, Note_on_c, 4, 69, 100
6, 410840, Note_on_c, 4, 69, 0
6, 410880, Note_on_c, 4, 72, 100
6, 411072, Note_on_c, 4, 72, 0
6, 411072, Note_on_c, 4, 70, 100
6, 411224, Note_on_c, 4, 70, 0
6, 411264, Note_on_c, 4, 69, 100
6, 411416, Note_on_c, 4, 69, 0
6, 411456, Note_on_c, 4, 70, 100
6, 411608, Note_on_c, 4, 70, 0
6, 411648, Note_on_c, 4, 74, 100
6, 411840, Note_on_c, 4, 74, 0
6, 411840, Note_on_c, 4, 72, 100
6, 411992, Note_on_c, 4, 72, 0
6, 412032, Note_on_c, 4, 70, 100
6, 412184, Note_on_c, 4, 70, 0
6, 412224, Note_on_c, 4, 69, 100
6, 412376, Note_on_c, 4, 69, 0
6, 412416, Note_on_c, 4, 69, 100
6, 412608, Note_on_c, 4, 69, 0
6, 412608, Note_on_c, 4, 67, 100
6, 412760, Note_on_c, 4, 67, 0
6, 412800, Note_on_c, 4, 66, 100
6, 412952, Note_on_c, 4, 66, 0
6, 412992, Note_on_c, 4, 67, 100
6, 413144, Note_on_c, 4, 67, 0
6, 413184, Note_on_c, 4, 70, 100
6, 413376, Note_on_c, 4, 70, 0
6, 413376, Note_on_c, 4, 69, 100
6, 413528, Note_on_c, 4, 69, 0
6, 413568, Note_on_c, 4, 67, 100
6, 413720, Note_on_c, 4, 67, 0
6, 413760, Note_on_c, 4, 69, 100
6, 413912, Note_on_c, 4, 69, 0
6, 413952, Note_on_c, 4, 72, 100
6, 414144, Note_on_c, 4, 72, 0
6, 414144, Note_on_c, 4, 70, 100
6, 414296, Note_on_c, 4, 70, 0
6, 414336, Note_on_c, 4, 69, 100
6, 414488, Note_on_c, 4, 69, 0
6, 414528, Note_on_c, 4, 70, 100
6, 414680, Note_on_c, 4, 70, 0
6, 414720, Note_on_c, 4, 74, 100
6, 414912, Note_on_c, 4, 74, 0
6, 414912, Note_on_c, 4, 72, 103
6, 415064, Note_on_c, 4, 72, 0
6, 415104, Note_on_c, 4, 70, 105
6, 415256, Note_on_c, 4, 70, 0
6, 415296, Note_on_c, 4, 69, 108
6, 415448, Note_on_c, 4, 69, 0
6, 415488, Note_on_c, 4, 67, 110
6, 415680, Note_on_c, 4, 67, 0
6, 415680, Note_on_c, 4, 67, 113
6, 415832, Note_on_c, 4, 67, 0
6, 415872, Note_on_c, 4, 67, 115
6, 416024, Note_on_c, 4, 67, 0
6, 416064, Note_on_c, 4, 67, 118
6, 416216, Note_on_c, 4, 67, 0
6, 416256, Note_on_c, 4, 67, 120
6, 416448, Note_on_c, 4, 67, 0
6, 416448, Note_on_c, 4, 66, 120
6, 416600, Note_on_c, 4, 66, 0
6, 416640, Note_on_c, 4, 63, 120
6, 416792, Note_on_c, 4, 63, 0
6, 416832, Note_on_c, 4, 62, 120
6, 416984, Note_on_c, 4, 62, 0
6, 417024, Note_on_c, 4, 60, 120
6, 417216, Note_on_c, 4, 60, 0
6, 417216, Note_on_c, 4, 63, 120
6, 417368, Note_on_c, 4, 63, 0
6, 417408, Note_on_c, 4, 63, 120
6, 417560, Note_on_c, 4, 63, 0
6, 417600, Note_on_c, 4, 63, 120
6, 417752, Note_on_c, 4, 63, 0
6, 417792, Note_on_c, 4, 63, 120
6, 417984, Note_on_c, 4, 63, 0
6, 417984, Note_on_c, 4, 62, 120
6, 418136, Note_on_c, 4, 62, 0
6, 418176, Note_on_c, 4, 60, 120
6, 418328, Note_on_c, 4, 60, 0
6, 418368, Note_on_c, 4, 58, 120
6, 418520, Note_on_c, 4, 58, 0
6, 418560, Note_on_c, 4, 57, 120
6, 418752, Note_on_c, 4, 57, 0
6, 418752, Note_on_c, 4, 72, 120
6, 418904, Note_on_c, 4, 72, 0
6, 418944, Note_on_c, 4, 72, 120
6, 419096, Note_on_c, 4, 72, 0
6, 419136, Note_on_c, 4, 72, 120
6, 419288, Note_on_c, 4, 72, 0
6, 419328, Note_on_c, 4, 72, 120
6, 419520, Note_on_c, 4, 72, 0
6, 419520, Note_on_c, 4, 70, 120
6, 419672, Note_on_c, 4, 70, 0
6, 419712, Note_on_c, 4, 74, 120
6, 419864, Note_on_c, 4, 74, 0
6, 419904, Note_on_c, 4, 67, 120
6, 420056, Note_on_c, 4, 67, 0
6, 420096, Note_on_c, 4, 70, 120
6, 420288, Note_on_c, 4, 70, 0
6, 420288, Note_on_c, 4, 69, 120
6, 420440, Note_on_c, 4, 69, 0
6, 420480, Note_on_c, 4, 67, 120
6, 420632, Note_on_c, 4, 67, 0
6, 420672, Note_on_c, 4, 66, 120
6, 420824, Note_on_c, 4, 66, 0
6, 420864, Note_on_c, 4, 67, 120
6, 420960, Note_on_c, 4, 67, 0
6, 420960, Note_on_c, 4, 69, 120
6, 421056, Note_on_c, 4, 69, 0
6, 421056, Note_on_c, 4, 70, 120
6, 421152, Note_on_c, 4, 70, 0
6, 421152, Note_on_c, 4, 69, 120
6, 421248, Note_on_c, 4, 69, 0
6, 421248, Note_on_c, 4, 67, 120
6, 421344, Note_on_c, 4, 67, 0
6, 421344, Note_on_c, 4, 69, 120
6, 421440, Note_on_c, 4, 69, 0
6, 421440, Note_on_c, 4, 70, 120
6, 421536, Note_on_c, 4, 70, 0
6, 421536, Note_on_c, 4, 69, 120
6, 421632, Note_on_c, 4, 69, 0
6, 421632, Note_on_c, 4, 67, 120
6, 421936, Note_on_c, 4, 67, 0
6, 422400, Note_on_c, 4, 60, 120
6, 422496, Note_on_c, 4, 60, 0
6, 422496, Note_on_c, 4, 62, 120
6, 422592, Note_on_c, 4, 62, 0
6, 422592, Note_on_c, 4, 63, 120
6, 422688, Note_on_c, 4, 63, 0
6, 422688, Note_on_c, 4, 62, 120
6, 422784, Note_on_c, 4, 62, 0
6, 422784, Note_on_c, 4, 60, 120
6, 422880, Note_on_c, 4, 60, 0
6, 422880, Note_on_c, 4, 62, 120
6, 422976, Note_on_c, 4, 62, 0
6, 422976, Note_on_c, 4, 63, 120
6, 423072, Note_on_c, 4, 63, 0
6, 423072, Note_on_c, 4, 62, 120
6, 423168, Note_on_c, 4, 62, 0
6, 423168, Note_on_c, 4, 60, 120
6, 423472, Note_on_c, 4, 60, 0
6, 423936, Note_on_c, 4, 58, 120
6, 424164, Note_on_c, 4, 58, 0
6, 424320, Note_on_c, 4, 67, 120
6, 424320, Note_on_c, 4, 70, 120
6, 424548, Note_on_c, 4, 70, 0
6, 424548, Note_on_c, 4, 67, 0
6, 424704, Note_on_c, 4, 69, 120
6, 424932, Note_on_c, 4, 69, 0
6, 425088, Note_on_c, 4, 62, 120
6, 425088, Note_on_c, 4, 72, 120
6, 425316, Note_on_c, 4, 72, 0
6, 425316, Note_on_c, 4, 62, 0
6, 425472, Note_on_c, 4, 62, 100
6, 425472, Note_on_c, 4, 70, 100
6, 425624, Note_on_c, 4, 70, 0
6, 425624, Note_on_c, 4, 62, 0
6, 425664, Note_on_c, 4, 62, 100
6, 425664, Note_on_c, 4, 70, 100
6, 425968, Note_on_c, 4, 70, 0
6, 425968, Note_on_c, 4, 62, 0
6, 426048, Note_on_c, 4, 70, 100
6, 426048, Note_on_c, 4, 62, 100
6, 426352, Note_on_c, 4, 62, 0
6, 426352, Note_on_c, 4, 70, 0
6, 426432, Note_on_c, 4, 62, 100
6, 426432, Note_on_c, 4, 70, 100
6, 426736, Note_on_c, 4, 70, 0
6, 426736, Note_on_c, 4, 62, 0
6, 426816, Note_on_c, 4, 70, 100
6, 426816, Note_on_c, 4, 62, 100
6, 426968, Note_on_c, 4, 62, 0
6, 426968, Note_on_c, 4, 70, 0
6, 427008, Note_on_c, 4, 62, 100
6, 427008, Note_on_c, 4, 72, 100
6, 427160, Note_on_c, 4, 72, 0
6, 427160, Note_on_c, 4, 62, 0
6, 427200, Note_on_c, 4, 62, 100
6, 427200, Note_on_c, 4, 72, 100
6, 427504, Note_on_c, 4, 72, 0
6, 427504, Note_on_c, 4, 62, 0
6, 427584, Note_on_c, 4, 72, 100
6, 427584, Note_on_c, 4, 62, 100
6, 427888, Note_on_c, 4, 62, 0
6, 427888, Note_on_c, 4, 72, 0
6, 427968, Note_on_c, 4, 62, 100
6, 427968, Note_on_c, 4, 72, 100
6, 428272, Note_on_c, 4, 72, 0
6, 428272, Note_on_c, 4, 62, 0
6, 428352, Note_on_c, 4, 72, 100
6, 428352, Note_on_c, 4, 62, 100
6, 428504, Note_on_c, 4, 62, 0
6, 428504, Note_on_c, 4, 72, 0
6, 428544, Note_on_c, 4, 70, 100
6, 428544, Note_on_c, 4, 62, 100
6, 428696, Note_on_c, 4, 62, 0
6, 428696, Note_on_c, 4, 70, 0
6, 428736, Note_on_c, 4, 70, 100
6, 428736, Note_on_c, 4, 62, 100
6, 429040, Note_on_c, 4, 62, 0
6, 429040, Note_on_c, 4, 70, 0
6, 429120, Note_on_c, 4, 62, 100
6, 429120, Note_on_c, 4, 70, 100
6, 429424, Note_on_c, 4, 70, 0
6, 429424, Note_on_c, 4, 62, 0
6, 429504, Note_on_c, 4, 62, 100
6, 429504, Note_on_c, 4, 70, 100
6, 429808, Note_on_c, 4, 70, 0
6, 429808, Note_on_c, 4, 62, 0
6, 429888, Note_on_c, 4, 62, 100
6, 429888, Note_on_c, 4, 70, 100
6, 430040, Note_on_c, 4, 70, 0
6, 430040, Note_on_c, 4, 62, 0
6, 430080, Note_on_c, 4, 72, 100
6, 430080, Note_on_c, 4, 62, 100
6, 430232, Note_on_c, 4, 62, 0
6, 430232, Note_on_c, 4, 72, 0
6, 430272, Note_on_c, 4, 72, 100
6, 430272, Note_on_c, 4, 62, 100
6, 430576, Note_on_c, 4, 62, 0
6, 430576, Note_on_c, 4, 72, 0
6, 430656, Note_on_c, 4, 62, 100
6, 430656, Note_on_c, 4, 72, 100
6, 430960, Note_on_c, 4, 72, 0
6, 430960, Note_on_c, 4, 62, 0
6, 431040, Note_on_c, 4, 62, 100
6, 431040, Note_on_c, 4, 72, 100
6, 431344, Note_on_c, 4, 72, 0
6, 431344, Note_on_c, 4, 62, 0
6, 431424, Note_on_c, 4, 62, 100
6, 431424, Note_on_c, 4, 72, 100
6, 431576, Note_on_c, 4, 72, 0
6, 431576, Note_on_c, 4, 62, 0
6, 431616, Note_on_c, 4, 62, 96
6, 431616, Note_on_c, 4, 70, 96
6, 431920, Note_on_c, 4, 70, 0
6, 431920, Note_on_c, 4, 62, 0
6, 432000, Note_on_c, 4, 70, 120
6, 432096, Note_on_c, 4, 70, 0
6, 432096, Note_on_c, 4, 70, 120
6, 432192, Note_on_c, 4, 70, 0
6, 432192, Note_on_c, 4, 70, 120
6, 432288, Note_on_c, 4, 70, 0
6, 432288, Note_on_c, 4, 70, 120
6, 432384, Note_on_c, 4, 70, 0
6, 432384, Note_on_c, 4, 72, 120
6, 432480, Note_on_c, 4, 72, 0
6, 432480, Note_on_c, 4, 72, 120
6, 432576, Note_on_c, 4, 72, 0
6, 432576, Note_on_c, 4, 72, 120
6, 432672, Note_on_c, 4, 72, 0
6, 432672, Note_on_c, 4, 72, 120
6, 432768, Note_on_c, 4, 72, 0
6, 432768, Note_on_c, 4, 74, 120
6, 432864, Note_on_c, 4, 74, 0
6, 432864, Note_on_c, 4, 74, 120
6, 432960, Note_on_c, 4, 74, 0
6, 432960, Note_on_c, 4, 74, 120
6, 433056, Note_on_c, 4, 74, 0
6, 433056, Note_on_c, 4, 74, 120
6, 433152, Note_on_c, 4, 74, 0
6, 433152, Note_on_c, 4, 75, 120
6, 433248, Note_on_c, 4, 75, 0
6, 433248, Note_on_c, 4, 75, 120
6, 433344, Note_on_c, 4, 75, 0
6, 433344, Note_on_c, 4, 75, 120
6, 433440, Note_on_c, 4, 75, 0
6, 433440, Note_on_c, 4, 75, 120
6, 433536, Note_on_c, 4, 75, 0
6, 433536, Note_on_c, 4, 72, 120
6, 433632, Note_on_c, 4, 72, 0
6, 433632, Note_on_c, 4, 72, 120
6, 433728, Note_on_c, 4, 72, 0
6, 433728, Note_on_c, 4, 72, 120
6, 433824, Note_on_c, 4, 72, 0
6, 433824, Note_on_c, 4, 72, 120
6, 433920, Note_on_c, 4, 72, 0
6, 433920, Note_on_c, 4, 69, 120
6, 434016, Note_on_c, 4, 69, 0
6, 434016, Note_on_c, 4, 69, 120
6, 434112, Note_on_c, 4, 69, 0
6, 434112, Note_on_c, 4, 69, 120
6, 434208, Note_on_c, 4, 69, 0
6, 434208, Note_on_c, 4, 69, 120
6, 434304, Note_on_c, 4, 69, 0
6, 434304, Note_on_c, 4, 78, 120
6, 434400, Note_on_c, 4, 78, 0
6, 434400, Note_on_c, 4, 78, 120
6, 434496, Note_on_c, 4, 78, 0
6, 434496, Note_on_c, 4, 78, 120
6, 434592, Note_on_c, 4, 78, 0
6, 434592, Note_on_c, 4, 78, 120
6, 434688, Note_on_c, 4, 78, 0
6, 434688, Note_on_c, 4, 79, 120
6, 434840, Note_on_c, 4, 79, 0
6, 434880, Note_on_c, 4, 79, 120
6, 435184, Note_on_c, 4, 79, 0
6, 435264, Note_on_c, 4, 79, 120
6, 435568, Note_on_c, 4, 79, 0
6, 435648, Note_on_c, 4, 79, 120
6, 435952, Note_on_c, 4, 79, 0
6, 436032, Note_on_c, 4, 79, 120
6, 436224, Note_on_c, 4, 79, 0
6, 436224, Note_on_c, 4, 74, 120
6, 436376, Note_on_c, 4, 74, 0
6, 436416, Note_on_c, 4, 74, 120
6, 436720, Note_on_c, 4, 74, 0
6, 436800, Note_on_c, 4, 74, 120
6, 437104, Note_on_c, 4, 74, 0
6, 437184, Note_on_c, 4, 74, 120
6, 437488, Note_on_c, 4, 74, 0
6, 437568, Note_on_c, 4, 74, 120
6, 437760, Note_on_c, 4, 74, 0
6, 437760, Note_on_c, 4, 75, 120
6, 437912, Note_on_c, 4, 75, 0
6, 437952, Note_on_c, 4, 75, 120
6, 438256, Note_on_c, 4, 75, 0
6, 438336, Note_on_c, 4, 75, 120
6, 438640, Note_on_c, 4, 75, 0
6, 438720, Note_on_c, 4, 75, 120
6, 439024, Note_on_c, 4, 75, 0
6, 439104, Note_on_c, 4, 75, 120
6, 439256, Note_on_c, 4, 75, 0
6, 439296, Note_on_c, 4, 71, 120
6, 439448, Note_on_c, 4, 71, 0
6, 439488, Note_on_c, 4, 71, 120
6, 439792, Note_on_c, 4, 71, 0
6, 439872, Note_on_c, 4, 71, 120
6, 440176, Note_on_c, 4, 71, 0
6, 440256, Note_on_c, 4, 71, 120
6, 440560, Note_on_c, 4, 71, 0
6, 440640, Note_on_c, 4, 71, 120
6, 440792, Note_on_c, 4, 71, 0
6, 440832, Note_on_c, 4, 72, 120
6, 440984, Note_on_c, 4, 72, 0
6, 441024, Note_on_c, 4, 72, 120
6, 441328, Note_on_c, 4, 72, 0
6, 441408, Note_on_c, 4, 72, 120
6, 441712, Note_on_c, 4, 72, 0
6, 441792, Note_on_c, 4, 72, 120
6, 442096, Note_on_c, 4, 72, 0
6, 442176, Note_on_c, 4, 72, 120
6, 442328, Note_on_c, 4, 72, 0
6, 442368, Note_on_c, 4, 77, 115
6, 442368, Note_on_c, 4, 77, 115
6, 442368, Note_on_c, 4, 77, 115
6, 442368, Note_on_c, 4, 77, 115
6, 442520, Note_on_c, 4, 77, 0
6, 442520, Note_on_c, 4, 77, 0
6, 442520, Note_on_c, 4, 77, 0
6, 442520, Note_on_c, 4, 77, 0
6, 442560, Note_on_c, 4, 77, 120
6, 442864, Note_on_c, 4, 77, 0
6, 442944, Note_on_c, 4, 77, 120
6, 443248, Note_on_c, 4, 77, 0
6, 443328, Note_on_c, 4, 77, 120
6, 443632, Note_on_c, 4, 77, 0
6, 443712, Note_on_c, 4, 77, 120
6, 443864, Note_on_c, 4, 77, 0
6, 443904, Note_on_c, 4, 75, 120
6, 444056, Note_on_c, 4, 75, 0
6, 444096, Note_on_c, 4, 75, 120
6, 444400, Note_on_c, 4, 75, 0
6, 444480, Note_on_c, 4, 75, 120
6, 444632, Note_on_c, 4, 75, 0
6, 444672, Note_on_c, 4, 84, 120
6, 444824, Note_on_c, 4, 84, 0
6, 444864, Note_on_c, 4, 84, 120
6, 445168, Note_on_c, 4, 84, 0
6, 445248, Note_on_c, 4, 84, 120
6, 445400, Note_on_c, 4, 84, 0
6, 445440, Note_on_c, 4, 82, 120
6, 445592, Note_on_c, 4, 82, 0
6, 445632, Note_on_c, 4, 82, 120
6, 445936, Note_on_c, 4, 82, 0
6, 446016, Note_on_c, 4, 82, 120
6, 446168, Note_on_c, 4, 82, 0
6, 446208, Note_on_c, 4, 79, 120
6, 446360, Note_on_c, 4, 79, 0
6, 446400, Note_on_c, 4, 79, 120
6, 446704, Note_on_c, 4, 79, 0
6, 446784, Note_on_c, 4, 79, 120
6, 446936, Note_on_c, 4, 79, 0
6, 446976, Note_on_c, 4, 69, 120
6, 447128, Note_on_c, 4, 69, 0
6, 447168, Note_on_c, 4, 69, 120
6, 447472, Note_on_c, 4, 69, 0
6, 447552, Note_on_c, 4, 69, 120
6, 447704, Note_on_c, 4, 69, 0
6, 447744, Note_on_c, 4, 78, 120
6, 447896, Note_on_c, 4, 78, 0
6, 447936, Note_on_c, 4, 78, 120
6, 448240, Note_on_c, 4, 78, 0
6, 448320, Note_on_c, 4, 78, 120
6, 448472, Note_on_c, 4, 78, 0
6, 448512, Note_on_c, 4, 79, 120
6, 448896, Note_on_c, 4, 79, 0
6, 448896, Note_on_c, 4, 55, 120
6, 449040, Note_on_c, 4, 55, 0
6, 449184, Note_on_c, 4, 55, 120
6, 449232, Note_on_c, 4, 55, 0
6, 449280, Note_on_c, 4, 55, 120
6, 449548, Note_on_c, 4, 55, 0
6, 449664, Note_on_c, 4, 55, 120
6, 449932, Note_on_c, 4, 55, 0
6, 450048, Note_on_c, 4, 55, 96
6, 450144, Note_on_c, 4, 55, 0
6, 450144, Note_on_c, 4, 57, 96
6, 450240, Note_on_c, 4, 57, 0
6, 450240, Note_on_c, 4, 58, 96
6, 450336, Note_on_c, 4, 58, 0
6, 450336, Note_on_c, 4, 57, 96
6, 450432, Note_on_c, 4, 57, 0
6, 450432, Note_on_c, 4, 55, 96
6, 450528, Note_on_c, 4, 55, 0
6, 450528, Note_on_c, 4, 57, 96
6, 450624, Note_on_c, 4, 57, 0
6, 450624, Note_on_c, 4, 58, 96
6, 450720, Note_on_c, 4, 58, 0
6, 450720, Note_on_c, 4, 57, 96
6, 450816, Note_on_c, 4, 57, 0
6, 450816, Note_on_c, 4, 55, 96
6, 450912, Note_on_c, 4, 55, 0
6, 450912, Note_on_c, 4, 57, 96
6, 451008, Note_on_c, 4, 57, 0
6, 451008, Note_on_c, 4, 58, 96
6, 451104, Note_on_c, 4, 58, 0
6, 451104, Note_on_c, 4, 57, 96
6, 451200, Note_on_c, 4, 57, 0
6, 451200, Note_on_c, 4, 55, 96
6, 451296, Note_on_c, 4, 55, 0
6, 451296, Note_on_c, 4, 57, 96
6, 451392, Note_on_c, 4, 57, 0
6, 451392, Note_on_c, 4, 58, 96
6, 451488, Note_on_c, 4, 58, 0
6, 451488, Note_on_c, 4, 57, 96
6, 451584, Note_on_c, 4, 57, 0
6, 451584, Note_on_c, 4, 55, 96
6, 451680, Note_on_c, 4, 55, 0
6, 451680, Note_on_c, 4, 57, 96
6, 451776, Note_on_c, 4, 57, 0
6, 451776, Note_on_c, 4, 58, 96
6, 451872, Note_on_c, 4, 58, 0
6, 451872, Note_on_c, 4, 57, 96
6, 451968, Note_on_c, 4, 57, 0
6, 451968, Note_on_c, 4, 55, 96
6, 452064, Note_on_c, 4, 55, 0
6, 452064, Note_on_c, 4, 57, 96
6, 452160, Note_on_c, 4, 57, 0
6, 452160, Note_on_c, 4, 58, 96
6, 452256, Note_on_c, 4, 58, 0
6, 452256, Note_on_c, 4, 57, 96
6, 452352, Note_on_c, 4, 57, 0
6, 452352, Note_on_c, 4, 55, 96
6, 452448, Note_on_c, 4, 55, 0
6, 452448, Note_on_c, 4, 57, 96
6, 452544, Note_on_c, 4, 57, 0
6, 452544, Note_on_c, 4, 58, 96
6, 452640, Note_on_c, 4, 58, 0
6, 452640, Note_on_c, 4, 57, 96
6, 452736, Note_on_c, 4, 57, 0
6, 452736, Note_on_c, 4, 55, 96
6, 452832, Note_on_c, 4, 55, 0
6, 452832, Note_on_c, 4, 57, 96
6, 452928, Note_on_c, 4, 57, 0
6, 452928, Note_on_c, 4, 58, 96
6, 453024, Note_on_c, 4, 58, 0
6, 453024, Note_on_c, 4, 57, 96
6, 453120, Note_on_c, 4, 57, 0
6, 453120, Note_on_c, 4, 55, 96
6, 453216, Note_on_c, 4, 55, 0
6, 453216, Note_on_c, 4, 57, 96
6, 453312, Note_on_c, 4, 57, 0
6, 453312, Note_on_c, 4, 58, 96
6, 453408, Note_on_c, 4, 58, 0
6, 453408, Note_on_c, 4, 57, 96
6, 453504, Note_on_c, 4, 57, 0
6, 453504, Note_on_c, 4, 55, 96
6, 453600, Note_on_c, 4, 55, 0
6, 453600, Note_on_c, 4, 57, 96
6, 453696, Note_on_c, 4, 57, 0
6, 453696, Note_on_c, 4, 58, 96
6, 453792, Note_on_c, 4, 58, 0
6, 453792, Note_on_c, 4, 57, 96
6, 453888, Note_on_c, 4, 57, 0
6, 453888, Note_on_c, 4, 55, 96
6, 453984, Note_on_c, 4, 55, 0
6, 453984, Note_on_c, 4, 57, 96
6, 454080, Note_on_c, 4, 57, 0
6, 454080, Note_on_c, 4, 58, 96
6, 454176, Note_on_c, 4, 58, 0
6, 454176, Note_on_c, 4, 57, 96
6, 454272, Note_on_c, 4, 57, 0
6, 454272, Note_on_c, 4, 55, 96
6, 454368, Note_on_c, 4, 55, 0
6, 454368, Note_on_c, 4, 57, 96
6, 454464, Note_on_c, 4, 57, 0
6, 454464, Note_on_c, 4, 58, 96
6, 454560, Note_on_c, 4, 58, 0
6, 454560, Note_on_c, 4, 57, 96
6, 454656, Note_on_c, 4, 57, 0
6, 454656, Note_on_c, 4, 55, 96
6, 455040, Note_on_c, 4, 55, 0
6, 455040, End_track
7, 0, Start_track
7, 0, MIDI_port, 0
7, 0, Title_t, "Viola."
7, 0, Control_c, 5, 0, 0
7, 0, Program_c, 5, 48
7, 0, Control_c, 5, 10, 47
7, 0, Control_c, 5, 91, 127
7, 1536, Note_on_c, 5, 67, 120
7, 1688, Note_on_c, 5, 67, 0
7, 1728, Note_on_c, 5, 67, 120
7, 2032, Note_on_c, 5, 67, 0
7, 2112, Note_on_c, 5, 67, 120
7, 2416, Note_on_c, 5, 67, 0
7, 2496, Note_on_c, 5, 67, 120
7, 2800, Note_on_c, 5, 67, 0
7, 2880, Note_on_c, 5, 67, 120
7, 3032, Note_on_c, 5, 67, 0
7, 3072, Note_on_c, 5, 62, 120
7, 3224, Note_on_c, 5, 62, 0
7, 3264, Note_on_c, 5, 62, 120
7, 3568, Note_on_c, 5, 62, 0
7, 3648, Note_on_c, 5, 62, 120
7, 3952, Note_on_c, 5, 62, 0
7, 4032, Note_on_c, 5, 62, 120
7, 4336, Note_on_c, 5, 62, 0
7, 4416, Note_on_c, 5, 62, 120
7, 4568, Note_on_c, 5, 62, 0
7, 4608, Note_on_c, 5, 63, 120
7, 4760, Note_on_c, 5, 63, 0
7, 4800, Note_on_c, 5, 63, 120
7, 5104, Note_on_c, 5, 63, 0
7, 5184, Note_on_c, 5, 63, 120
7, 5488, Note_on_c, 5, 63, 0
7, 5568, Note_on_c, 5, 63, 120
7, 5872, Note_on_c, 5, 63, 0
7, 5952, Note_on_c, 5, 63, 120
7, 6104, Note_on_c, 5, 63, 0
7, 6144, Note_on_c, 5, 54, 120
7, 6296, Note_on_c, 5, 54, 0
7, 6336, Note_on_c, 5, 54, 120
7, 6640, Note_on_c, 5, 54, 0
7, 6720, Note_on_c, 5, 54, 120
7, 7024, Note_on_c, 5, 54, 0
7, 7104, Note_on_c, 5, 54, 120
7, 7408, Note_on_c, 5, 54, 0
7, 7488, Note_on_c, 5, 54, 120
7, 7640, Note_on_c, 5, 54, 0
7, 7680, Note_on_c, 5, 55, 120
7, 7984, Note_on_c, 5, 55, 0
7, 8448, Note_on_c, 5, 70, 120
7, 8544, Note_on_c, 5, 70, 0
7, 8544, Note_on_c, 5, 69, 120
7, 8640, Note_on_c, 5, 69, 0
7, 8640, Note_on_c, 5, 67, 120
7, 8736, Note_on_c, 5, 67, 0
7, 8736, Note_on_c, 5, 66, 120
7, 8832, Note_on_c, 5, 66, 0
7, 8832, Note_on_c, 5, 67, 120
7, 9136, Note_on_c, 5, 67, 0
7, 9984, Note_on_c, 5, 70, 120
7, 10080, Note_on_c, 5, 70, 0
7, 10080, Note_on_c, 5, 69, 120
7, 10176, Note_on_c, 5, 69, 0
7, 10176, Note_on_c, 5, 67, 120
7, 10272, Note_on_c, 5, 67, 0
7, 10272, Note_on_c, 5, 66, 120
7, 10368, Note_on_c, 5, 66, 0
7, 10368, Note_on_c, 5, 67, 120
7, 10672, Note_on_c, 5, 67, 0
7, 11520, Note_on_c, 5, 72, 120
7, 11616, Note_on_c, 5, 72, 0
7, 11616, Note_on_c, 5, 70, 120
7, 11712, Note_on_c, 5, 70, 0
7, 11712, Note_on_c, 5, 69, 120
7, 11808, Note_on_c, 5, 69, 0
7, 11808, Note_on_c, 5, 67, 120
7, 11904, Note_on_c, 5, 67, 0
7, 11904, Note_on_c, 5, 69, 120
7, 12208, Note_on_c, 5, 69, 0
7, 13056, Note_on_c, 5, 72, 120
7, 13152, Note_on_c, 5, 72, 0
7, 13152, Note_on_c, 5, 70, 120
7, 13248, Note_on_c, 5, 70, 0
7, 13248, Note_on_c, 5, 69, 120
7, 13344, Note_on_c, 5, 69, 0
7, 13344, Note_on_c, 5, 67, 120
7, 13420, Note_on_c, 5, 67, 0
7, 13440, Note_on_c, 5, 69, 120
7, 13744, Note_on_c, 5, 69, 0
7, 14592, Note_on_c, 5, 74, 120
7, 14688, Note_on_c, 5, 74, 0
7, 14688, Note_on_c, 5, 72, 120
7, 14784, Note_on_c, 5, 72, 0
7, 14784, Note_on_c, 5, 70, 120
7, 14880, Note_on_c, 5, 70, 0
7, 14880, Note_on_c, 5, 69, 120
7, 14976, Note_on_c, 5, 69, 0
7, 14976, Note_on_c, 5, 70, 120
7, 15168, Note_on_c, 5, 70, 0
7, 15360, Note_on_c, 5, 70, 120
7, 15456, Note_on_c, 5, 70, 0
7, 15456, Note_on_c, 5, 69, 120
7, 15552, Note_on_c, 5, 69, 0
7, 15552, Note_on_c, 5, 67, 120
7, 15648, Note_on_c, 5, 67, 0
7, 15648, Note_on_c, 5, 66, 120
7, 15744, Note_on_c, 5, 66, 0
7, 15744, Note_on_c, 5, 67, 120
7, 15936, Note_on_c, 5, 67, 0
7, 16128, Note_on_c, 5, 67, 120
7, 16224, Note_on_c, 5, 67, 0
7, 16224, Note_on_c, 5, 65, 120
7, 16320, Note_on_c, 5, 65, 0
7, 16320, Note_on_c, 5, 63, 120
7, 16416, Note_on_c, 5, 63, 0
7, 16416, Note_on_c, 5, 62, 120
7, 16512, Note_on_c, 5, 62, 0
7, 16512, Note_on_c, 5, 63, 120
7, 16608, Note_on_c, 5, 63, 0
7, 16608, Note_on_c, 5, 62, 120
7, 16704, Note_on_c, 5, 62, 0
7, 16704, Note_on_c, 5, 60, 120
7, 16800, Note_on_c, 5, 60, 0
7, 16800, Note_on_c, 5, 58, 120
7, 16896, Note_on_c, 5, 58, 0
7, 16896, Note_on_c, 5, 60, 120
7, 17164, Note_on_c, 5, 60, 0
7, 17280, Note_on_c, 5, 58, 120
7, 17548, Note_on_c, 5, 58, 0
7, 17664, Note_on_c, 5, 57, 120
7, 17932, Note_on_c, 5, 57, 0
7, 18048, Note_on_c, 5, 55, 120
7, 18316, Note_on_c, 5, 55, 0
7, 18432, Note_on_c, 5, 54, 120
7, 18700, Note_on_c, 5, 54, 0
7, 18816, Note_on_c, 5, 62, 96
7, 19084, Note_on_c, 5, 62, 0
7, 19968, Note_on_c, 5, 70, 120
7, 20120, Note_on_c, 5, 70, 0
7, 20160, Note_on_c, 5, 70, 120
7, 20464, Note_on_c, 5, 70, 0
7, 20544, Note_on_c, 5, 70, 120
7, 20848, Note_on_c, 5, 70, 0
7, 20928, Note_on_c, 5, 70, 120
7, 21232, Note_on_c, 5, 70, 0
7, 21312, Note_on_c, 5, 70, 120
7, 21464, Note_on_c, 5, 70, 0
7, 21504, Note_on_c, 5, 58, 100
7, 21656, Note_on_c, 5, 58, 0
7, 21696, Note_on_c, 5, 58, 100
7, 22000, Note_on_c, 5, 58, 0
7, 22080, Note_on_c, 5, 58, 100
7, 22384, Note_on_c, 5, 58, 0
7, 22464, Note_on_c, 5, 58, 100
7, 22768, Note_on_c, 5, 58, 0
7, 22848, Note_on_c, 5, 58, 100
7, 23000, Note_on_c, 5, 58, 0
7, 23040, Note_on_c, 5, 67, 120
7, 23192, Note_on_c, 5, 67, 0
7, 23232, Note_on_c, 5, 67, 120
7, 23536, Note_on_c, 5, 67, 0
7, 23616, Note_on_c, 5, 67, 120
7, 23920, Note_on_c, 5, 67, 0
7, 24000, Note_on_c, 5, 67, 120
7, 24304, Note_on_c, 5, 67, 0
7, 24384, Note_on_c, 5, 67, 120
7, 24536, Note_on_c, 5, 67, 0
7, 24576, Note_on_c, 5, 57, 100
7, 24576, Note_on_c, 5, 62, 100
7, 24728, Note_on_c, 5, 62, 0
7, 24728, Note_on_c, 5, 57, 0
7, 24768, Note_on_c, 5, 57, 100
7, 24768, Note_on_c, 5, 62, 100
7, 25072, Note_on_c, 5, 62, 0
7, 25072, Note_on_c, 5, 57, 0
7, 25152, Note_on_c, 5, 57, 100
7, 25152, Note_on_c, 5, 62, 100
7, 25456, Note_on_c, 5, 62, 0
7, 25456, Note_on_c, 5, 57, 0
7, 25536, Note_on_c, 5, 57, 100
7, 25536, Note_on_c, 5, 62, 100
7, 25840, Note_on_c, 5, 62, 0
7, 25840, Note_on_c, 5, 57, 0
7, 25920, Note_on_c, 5, 57, 100
7, 25920, Note_on_c, 5, 62, 100
7, 26072, Note_on_c, 5, 62, 0
7, 26072, Note_on_c, 5, 57, 0
7, 26112, Note_on_c, 5, 58, 120
7, 26112, Note_on_c, 5, 62, 120
7, 26380, Note_on_c, 5, 62, 0
7, 26380, Note_on_c, 5, 58, 0
7, 27648, Note_on_c, 5, 55, 64
7, 27952, Note_on_c, 5, 55, 0
7, 29184, Note_on_c, 5, 55, 64
7, 29488, Note_on_c, 5, 55, 0
7, 30720, Note_on_c, 5, 55, 64
7, 31024, Note_on_c, 5, 55, 0
7, 32256, Note_on_c, 5, 55, 64
7, 32560, Note_on_c, 5, 55, 0
7, 33792, Note_on_c, 5, 55, 64
7, 34096, Note_on_c, 5, 55, 0
7, 35328, Note_on_c, 5, 51, 64
7, 35632, Note_on_c, 5, 51, 0
7, 36864, Note_on_c, 5, 63, 64
7, 37168, Note_on_c, 5, 63, 0
7, 38400, Note_on_c, 5, 62, 51
7, 38704, Note_on_c, 5, 62, 0
7, 39936, Note_on_c, 5, 62, 51
7, 40240, Note_on_c, 5, 62, 0
7, 41472, Note_on_c, 5, 62, 51
7, 41776, Note_on_c, 5, 62, 0
7, 42240, Note_on_c, 5, 62, 41
7, 42544, Note_on_c, 5, 62, 0
7, 43008, Note_on_c, 5, 62, 33
7, 43312, Note_on_c, 5, 62, 0
7, 44544, Note_on_c, 5, 58, 100
7, 44544, Note_on_c, 5, 62, 100
7, 44640, Note_on_c, 5, 62, 0
7, 44640, Note_on_c, 5, 58, 0
7, 44640, Note_on_c, 5, 58, 100
7, 44640, Note_on_c, 5, 62, 100
7, 44736, Note_on_c, 5, 62, 0
7, 44736, Note_on_c, 5, 58, 0
7, 44736, Note_on_c, 5, 58, 100
7, 44736, Note_on_c, 5, 62, 100
7, 44832, Note_on_c, 5, 62, 0
7, 44832, Note_on_c, 5, 58, 0
7, 44832, Note_on_c, 5, 58, 100
7, 44832, Note_on_c, 5, 62, 100
7, 44928, Note_on_c, 5, 62, 0
7, 44928, Note_on_c, 5, 58, 0
7, 44928, Note_on_c, 5, 58, 100
7, 44928, Note_on_c, 5, 62, 100
7, 45024, Note_on_c, 5, 62, 0
7, 45024, Note_on_c, 5, 58, 0
7, 45024, Note_on_c, 5, 58, 100
7, 45024, Note_on_c, 5, 62, 100
7, 45120, Note_on_c, 5, 62, 0
7, 45120, Note_on_c, 5, 58, 0
7, 45120, Note_on_c, 5, 58, 100
7, 45120, Note_on_c, 5, 62, 100
7, 45216, Note_on_c, 5, 62, 0
7, 45216, Note_on_c, 5, 58, 0
7, 45216, Note_on_c, 5, 58, 100
7, 45216, Note_on_c, 5, 62, 100
7, 45312, Note_on_c, 5, 62, 0
7, 45312, Note_on_c, 5, 58, 0
7, 45312, Note_on_c, 5, 58, 100
7, 45312, Note_on_c, 5, 62, 100
7, 45408, Note_on_c, 5, 62, 0
7, 45408, Note_on_c, 5, 58, 0
7, 45408, Note_on_c, 5, 58, 100
7, 45408, Note_on_c, 5, 62, 100
7, 45504, Note_on_c, 5, 62, 0
7, 45504, Note_on_c, 5, 58, 0
7, 45504, Note_on_c, 5, 58, 100
7, 45504, Note_on_c, 5, 62, 100
7, 45600, Note_on_c, 5, 62, 0
7, 45600, Note_on_c, 5, 58, 0
7, 45600, Note_on_c, 5, 58, 100
7, 45600, Note_on_c, 5, 62, 100
7, 45696, Note_on_c, 5, 62, 0
7, 45696, Note_on_c, 5, 58, 0
7, 45696, Note_on_c, 5, 58, 100
7, 45696, Note_on_c, 5, 62, 100
7, 45792, Note_on_c, 5, 62, 0
7, 45792, Note_on_c, 5, 58, 0
7, 45792, Note_on_c, 5, 58, 100
7, 45792, Note_on_c, 5, 62, 100
7, 45888, Note_on_c, 5, 62, 0
7, 45888, Note_on_c, 5, 58, 0
7, 45888, Note_on_c, 5, 58, 100
7, 45888, Note_on_c, 5, 62, 100
7, 45984, Note_on_c, 5, 62, 0
7, 45984, Note_on_c, 5, 58, 0
7, 45984, Note_on_c, 5, 58, 100
7, 45984, Note_on_c, 5, 62, 100
7, 46080, Note_on_c, 5, 62, 0
7, 46080, Note_on_c, 5, 58, 0
7, 46080, Note_on_c, 5, 62, 100
7, 46080, Note_on_c, 5, 58, 100
7, 46176, Note_on_c, 5, 58, 0
7, 46176, Note_on_c, 5, 62, 0
7, 46176, Note_on_c, 5, 62, 100
7, 46176, Note_on_c, 5, 58, 100
7, 46272, Note_on_c, 5, 58, 0
7, 46272, Note_on_c, 5, 62, 0
7, 46272, Note_on_c, 5, 62, 100
7, 46272, Note_on_c, 5, 58, 100
7, 46368, Note_on_c, 5, 58, 0
7, 46368, Note_on_c, 5, 62, 0
7, 46368, Note_on_c, 5, 62, 100
7, 46368, Note_on_c, 5, 58, 100
7, 46464, Note_on_c, 5, 58, 0
7, 46464, Note_on_c, 5, 62, 0
7, 46464, Note_on_c, 5, 62, 100
7, 46464, Note_on_c, 5, 58, 100
7, 46560, Note_on_c, 5, 58, 0
7, 46560, Note_on_c, 5, 62, 0
7, 46560, Note_on_c, 5, 62, 100
7, 46560, Note_on_c, 5, 58, 100
7, 46656, Note_on_c, 5, 58, 0
7, 46656, Note_on_c, 5, 62, 0
7, 46656, Note_on_c, 5, 62, 100
7, 46656, Note_on_c, 5, 58, 100
7, 46752, Note_on_c, 5, 58, 0
7, 46752, Note_on_c, 5, 62, 0
7, 46752, Note_on_c, 5, 62, 100
7, 46752, Note_on_c, 5, 58, 100
7, 46848, Note_on_c, 5, 58, 0
7, 46848, Note_on_c, 5, 62, 0
7, 46848, Note_on_c, 5, 62, 100
7, 46848, Note_on_c, 5, 58, 100
7, 46944, Note_on_c, 5, 58, 0
7, 46944, Note_on_c, 5, 62, 0
7, 46944, Note_on_c, 5, 62, 100
7, 46944, Note_on_c, 5, 58, 100
7, 47040, Note_on_c, 5, 58, 0
7, 47040, Note_on_c, 5, 62, 0
7, 47040, Note_on_c, 5, 62, 100
7, 47040, Note_on_c, 5, 58, 100
7, 47136, Note_on_c, 5, 58, 0
7, 47136, Note_on_c, 5, 62, 0
7, 47136, Note_on_c, 5, 62, 100
7, 47136, Note_on_c, 5, 58, 100
7, 47232, Note_on_c, 5, 58, 0
7, 47232, Note_on_c, 5, 62, 0
7, 47232, Note_on_c, 5, 62, 100
7, 47232, Note_on_c, 5, 58, 100
7, 47328, Note_on_c, 5, 58, 0
7, 47328, Note_on_c, 5, 62, 0
7, 47328, Note_on_c, 5, 62, 100
7, 47328, Note_on_c, 5, 58, 100
7, 47424, Note_on_c, 5, 58, 0
7, 47424, Note_on_c, 5, 62, 0
7, 47424, Note_on_c, 5, 62, 100
7, 47424, Note_on_c, 5, 58, 100
7, 47520, Note_on_c, 5, 58, 0
7, 47520, Note_on_c, 5, 62, 0
7, 47520, Note_on_c, 5, 62, 100
7, 47520, Note_on_c, 5, 58, 100
7, 47616, Note_on_c, 5, 58, 0
7, 47616, Note_on_c, 5, 62, 0
7, 47616, Note_on_c, 5, 63, 100
7, 47616, Note_on_c, 5, 60, 100
7, 47712, Note_on_c, 5, 60, 0
7, 47712, Note_on_c, 5, 63, 0
7, 47712, Note_on_c, 5, 63, 100
7, 47712, Note_on_c, 5, 60, 100
7, 47808, Note_on_c, 5, 60, 0
7, 47808, Note_on_c, 5, 63, 0
7, 47808, Note_on_c, 5, 63, 100
7, 47808, Note_on_c, 5, 60, 100
7, 47904, Note_on_c, 5, 60, 0
7, 47904, Note_on_c, 5, 63, 0
7, 47904, Note_on_c, 5, 63, 100
7, 47904, Note_on_c, 5, 60, 100
7, 48000, Note_on_c, 5, 60, 0
7, 48000, Note_on_c, 5, 63, 0
7, 48000, Note_on_c, 5, 63, 100
7, 48000, Note_on_c, 5, 60, 100
7, 48096, Note_on_c, 5, 60, 0
7, 48096, Note_on_c, 5, 63, 0
7, 48096, Note_on_c, 5, 63, 100
7, 48096, Note_on_c, 5, 60, 100
7, 48192, Note_on_c, 5, 60, 0
7, 48192, Note_on_c, 5, 63, 0
7, 48192, Note_on_c, 5, 63, 100
7, 48192, Note_on_c, 5, 60, 100
7, 48288, Note_on_c, 5, 60, 0
7, 48288, Note_on_c, 5, 63, 0
7, 48288, Note_on_c, 5, 63, 100
7, 48288, Note_on_c, 5, 60, 100
7, 48384, Note_on_c, 5, 60, 0
7, 48384, Note_on_c, 5, 63, 0
7, 48384, Note_on_c, 5, 63, 100
7, 48384, Note_on_c, 5, 60, 100
7, 48480, Note_on_c, 5, 60, 0
7, 48480, Note_on_c, 5, 63, 0
7, 48480, Note_on_c, 5, 63, 100
7, 48480, Note_on_c, 5, 60, 100
7, 48576, Note_on_c, 5, 60, 0
7, 48576, Note_on_c, 5, 63, 0
7, 48576, Note_on_c, 5, 63, 100
7, 48576, Note_on_c, 5, 60, 100
7, 48672, Note_on_c, 5, 60, 0
7, 48672, Note_on_c, 5, 63, 0
7, 48672, Note_on_c, 5, 63, 100
7, 48672, Note_on_c, 5, 60, 100
7, 48768, Note_on_c, 5, 60, 0
7, 48768, Note_on_c, 5, 63, 0
7, 48768, Note_on_c, 5, 63, 100
7, 48768, Note_on_c, 5, 60, 100
7, 48864, Note_on_c, 5, 60, 0
7, 48864, Note_on_c, 5, 63, 0
7, 48864, Note_on_c, 5, 63, 100
7, 48864, Note_on_c, 5, 60, 100
7, 48960, Note_on_c, 5, 60, 0
7, 48960, Note_on_c, 5, 63, 0
7, 48960, Note_on_c, 5, 63, 100
7, 48960, Note_on_c, 5, 60, 100
7, 49056, Note_on_c, 5, 60, 0
7, 49056, Note_on_c, 5, 63, 0
7, 49056, Note_on_c, 5, 63, 100
7, 49056, Note_on_c, 5, 60, 100
7, 49152, Note_on_c, 5, 60, 0
7, 49152, Note_on_c, 5, 63, 0
7, 49152, Note_on_c, 5, 63, 100
7, 49152, Note_on_c, 5, 60, 100
7, 49248, Note_on_c, 5, 60, 0
7, 49248, Note_on_c, 5, 63, 0
7, 49248, Note_on_c, 5, 63, 100
7, 49248, Note_on_c, 5, 60, 100
7, 49344, Note_on_c, 5, 60, 0
7, 49344, Note_on_c, 5, 63, 0
7, 49344, Note_on_c, 5, 63, 100
7, 49344, Note_on_c, 5, 60, 100
7, 49440, Note_on_c, 5, 60, 0
7, 49440, Note_on_c, 5, 63, 0
7, 49440, Note_on_c, 5, 63, 100
7, 49440, Note_on_c, 5, 60, 100
7, 49536, Note_on_c, 5, 60, 0
7, 49536, Note_on_c, 5, 63, 0
7, 49536, Note_on_c, 5, 63, 100
7, 49536, Note_on_c, 5, 60, 100
7, 49632, Note_on_c, 5, 60, 0
7, 49632, Note_on_c, 5, 63, 0
7, 49632, Note_on_c, 5, 63, 100
7, 49632, Note_on_c, 5, 60, 100
7, 49728, Note_on_c, 5, 60, 0
7, 49728, Note_on_c, 5, 63, 0
7, 49728, Note_on_c, 5, 63, 100
7, 49728, Note_on_c, 5, 60, 100
7, 49824, Note_on_c, 5, 60, 0
7, 49824, Note_on_c, 5, 63, 0
7, 49824, Note_on_c, 5, 63, 100
7, 49824, Note_on_c, 5, 60, 100
7, 49920, Note_on_c, 5, 60, 0
7, 49920, Note_on_c, 5, 63, 0
7, 49920, Note_on_c, 5, 63, 100
7, 49920, Note_on_c, 5, 60, 100
7, 50016, Note_on_c, 5, 60, 0
7, 50016, Note_on_c, 5, 63, 0
7, 50016, Note_on_c, 5, 63, 100
7, 50016, Note_on_c, 5, 60, 100
7, 50112, Note_on_c, 5, 60, 0
7, 50112, Note_on_c, 5, 63, 0
7, 50112, Note_on_c, 5, 63, 100
7, 50112, Note_on_c, 5, 60, 100
7, 50208, Note_on_c, 5, 60, 0
7, 50208, Note_on_c, 5, 63, 0
7, 50208, Note_on_c, 5, 63, 100
7, 50208, Note_on_c, 5, 60, 100
7, 50304, Note_on_c, 5, 60, 0
7, 50304, Note_on_c, 5, 63, 0
7, 50304, Note_on_c, 5, 63, 100
7, 50304, Note_on_c, 5, 60, 100
7, 50400, Note_on_c, 5, 60, 0
7, 50400, Note_on_c, 5, 63, 0
7, 50400, Note_on_c, 5, 63, 100
7, 50400, Note_on_c, 5, 60, 100
7, 50496, Note_on_c, 5, 60, 0
7, 50496, Note_on_c, 5, 63, 0
7, 50496, Note_on_c, 5, 63, 100
7, 50496, Note_on_c, 5, 60, 100
7, 50592, Note_on_c, 5, 60, 0
7, 50592, Note_on_c, 5, 63, 0
7, 50592, Note_on_c, 5, 63, 100
7, 50592, Note_on_c, 5, 60, 100
7, 50688, Note_on_c, 5, 60, 0
7, 50688, Note_on_c, 5, 63, 0
7, 50688, Note_on_c, 5, 62, 100
7, 50688, Note_on_c, 5, 58, 100
7, 50784, Note_on_c, 5, 58, 0
7, 50784, Note_on_c, 5, 62, 0
7, 50784, Note_on_c, 5, 62, 100
7, 50784, Note_on_c, 5, 58, 100
7, 50880, Note_on_c, 5, 58, 0
7, 50880, Note_on_c, 5, 62, 0
7, 50880, Note_on_c, 5, 62, 100
7, 50880, Note_on_c, 5, 58, 100
7, 50976, Note_on_c, 5, 58, 0
7, 50976, Note_on_c, 5, 62, 0
7, 50976, Note_on_c, 5, 62, 100
7, 50976, Note_on_c, 5, 58, 100
7, 51072, Note_on_c, 5, 58, 0
7, 51072, Note_on_c, 5, 62, 0
7, 51072, Note_on_c, 5, 62, 100
7, 51072, Note_on_c, 5, 58, 100
7, 51168, Note_on_c, 5, 58, 0
7, 51168, Note_on_c, 5, 62, 0
7, 51168, Note_on_c, 5, 62, 100
7, 51168, Note_on_c, 5, 58, 100
7, 51264, Note_on_c, 5, 58, 0
7, 51264, Note_on_c, 5, 62, 0
7, 51264, Note_on_c, 5, 62, 100
7, 51264, Note_on_c, 5, 58, 100
7, 51360, Note_on_c, 5, 58, 0
7, 51360, Note_on_c, 5, 62, 0
7, 51360, Note_on_c, 5, 62, 100
7, 51360, Note_on_c, 5, 58, 100
7, 51456, Note_on_c, 5, 58, 0
7, 51456, Note_on_c, 5, 62, 0
7, 51456, Note_on_c, 5, 62, 100
7, 51456, Note_on_c, 5, 58, 100
7, 51552, Note_on_c, 5, 58, 0
7, 51552, Note_on_c, 5, 62, 0
7, 51552, Note_on_c, 5, 62, 100
7, 51552, Note_on_c, 5, 58, 100
7, 51648, Note_on_c, 5, 58, 0
7, 51648, Note_on_c, 5, 62, 0
7, 51648, Note_on_c, 5, 62, 100
7, 51648, Note_on_c, 5, 58, 100
7, 51744, Note_on_c, 5, 58, 0
7, 51744, Note_on_c, 5, 62, 0
7, 51744, Note_on_c, 5, 62, 100
7, 51744, Note_on_c, 5, 58, 100
7, 51840, Note_on_c, 5, 58, 0
7, 51840, Note_on_c, 5, 62, 0
7, 51840, Note_on_c, 5, 62, 100
7, 51840, Note_on_c, 5, 58, 100
7, 51936, Note_on_c, 5, 58, 0
7, 51936, Note_on_c, 5, 62, 0
7, 51936, Note_on_c, 5, 62, 100
7, 51936, Note_on_c, 5, 58, 100
7, 52032, Note_on_c, 5, 58, 0
7, 52032, Note_on_c, 5, 62, 0
7, 52032, Note_on_c, 5, 62, 100
7, 52032, Note_on_c, 5, 58, 100
7, 52128, Note_on_c, 5, 58, 0
7, 52128, Note_on_c, 5, 62, 0
7, 52128, Note_on_c, 5, 62, 100
7, 52128, Note_on_c, 5, 58, 100
7, 52224, Note_on_c, 5, 58, 0
7, 52224, Note_on_c, 5, 62, 0
7, 52224, Note_on_c, 5, 58, 100
7, 52224, Note_on_c, 5, 62, 100
7, 52320, Note_on_c, 5, 62, 0
7, 52320, Note_on_c, 5, 58, 0
7, 52320, Note_on_c, 5, 58, 100
7, 52320, Note_on_c, 5, 62, 100
7, 52416, Note_on_c, 5, 62, 0
7, 52416, Note_on_c, 5, 58, 0
7, 52416, Note_on_c, 5, 58, 100
7, 52416, Note_on_c, 5, 62, 100
7, 52512, Note_on_c, 5, 62, 0
7, 52512, Note_on_c, 5, 58, 0
7, 52512, Note_on_c, 5, 58, 100
7, 52512, Note_on_c, 5, 62, 100
7, 52608, Note_on_c, 5, 62, 0
7, 52608, Note_on_c, 5, 58, 0
7, 52608, Note_on_c, 5, 58, 100
7, 52608, Note_on_c, 5, 62, 100
7, 52704, Note_on_c, 5, 62, 0
7, 52704, Note_on_c, 5, 58, 0
7, 52704, Note_on_c, 5, 58, 100
7, 52704, Note_on_c, 5, 62, 100
7, 52800, Note_on_c, 5, 62, 0
7, 52800, Note_on_c, 5, 58, 0
7, 52800, Note_on_c, 5, 58, 100
7, 52800, Note_on_c, 5, 62, 100
7, 52896, Note_on_c, 5, 62, 0
7, 52896, Note_on_c, 5, 58, 0
7, 52896, Note_on_c, 5, 58, 100
7, 52896, Note_on_c, 5, 62, 100
7, 52992, Note_on_c, 5, 62, 0
7, 52992, Note_on_c, 5, 58, 0
7, 52992, Note_on_c, 5, 58, 100
7, 52992, Note_on_c, 5, 62, 100
7, 53088, Note_on_c, 5, 62, 0
7, 53088, Note_on_c, 5, 58, 0
7, 53088, Note_on_c, 5, 58, 100
7, 53088, Note_on_c, 5, 62, 100
7, 53184, Note_on_c, 5, 62, 0
7, 53184, Note_on_c, 5, 58, 0
7, 53184, Note_on_c, 5, 58, 100
7, 53184, Note_on_c, 5, 62, 100
7, 53280, Note_on_c, 5, 62, 0
7, 53280, Note_on_c, 5, 58, 0
7, 53280, Note_on_c, 5, 58, 100
7, 53280, Note_on_c, 5, 62, 100
7, 53376, Note_on_c, 5, 62, 0
7, 53376, Note_on_c, 5, 58, 0
7, 53376, Note_on_c, 5, 58, 100
7, 53376, Note_on_c, 5, 62, 100
7, 53472, Note_on_c, 5, 62, 0
7, 53472, Note_on_c, 5, 58, 0
7, 53472, Note_on_c, 5, 58, 100
7, 53472, Note_on_c, 5, 62, 100
7, 53568, Note_on_c, 5, 62, 0
7, 53568, Note_on_c, 5, 58, 0
7, 53568, Note_on_c, 5, 58, 100
7, 53568, Note_on_c, 5, 62, 100
7, 53664, Note_on_c, 5, 62, 0
7, 53664, Note_on_c, 5, 58, 0
7, 53664, Note_on_c, 5, 58, 100
7, 53664, Note_on_c, 5, 62, 100
7, 53760, Note_on_c, 5, 62, 0
7, 53760, Note_on_c, 5, 58, 0
7, 53760, Note_on_c, 5, 60, 100
7, 53760, Note_on_c, 5, 63, 100
7, 53856, Note_on_c, 5, 63, 0
7, 53856, Note_on_c, 5, 60, 0
7, 53856, Note_on_c, 5, 60, 100
7, 53856, Note_on_c, 5, 63, 100
7, 53952, Note_on_c, 5, 63, 0
7, 53952, Note_on_c, 5, 60, 0
7, 53952, Note_on_c, 5, 60, 100
7, 53952, Note_on_c, 5, 63, 100
7, 54048, Note_on_c, 5, 63, 0
7, 54048, Note_on_c, 5, 60, 0
7, 54048, Note_on_c, 5, 60, 100
7, 54048, Note_on_c, 5, 63, 100
7, 54144, Note_on_c, 5, 63, 0
7, 54144, Note_on_c, 5, 60, 0
7, 54144, Note_on_c, 5, 60, 100
7, 54144, Note_on_c, 5, 63, 100
7, 54240, Note_on_c, 5, 63, 0
7, 54240, Note_on_c, 5, 60, 0
7, 54240, Note_on_c, 5, 60, 100
7, 54240, Note_on_c, 5, 63, 100
7, 54336, Note_on_c, 5, 63, 0
7, 54336, Note_on_c, 5, 60, 0
7, 54336, Note_on_c, 5, 60, 100
7, 54336, Note_on_c, 5, 63, 100
7, 54432, Note_on_c, 5, 63, 0
7, 54432, Note_on_c, 5, 60, 0
7, 54432, Note_on_c, 5, 60, 100
7, 54432, Note_on_c, 5, 63, 100
7, 54528, Note_on_c, 5, 63, 0
7, 54528, Note_on_c, 5, 60, 0
7, 54528, Note_on_c, 5, 60, 100
7, 54528, Note_on_c, 5, 63, 100
7, 54624, Note_on_c, 5, 63, 0
7, 54624, Note_on_c, 5, 60, 0
7, 54624, Note_on_c, 5, 60, 100
7, 54624, Note_on_c, 5, 63, 100
7, 54720, Note_on_c, 5, 63, 0
7, 54720, Note_on_c, 5, 60, 0
7, 54720, Note_on_c, 5, 60, 100
7, 54720, Note_on_c, 5, 63, 100
7, 54816, Note_on_c, 5, 63, 0
7, 54816, Note_on_c, 5, 60, 0
7, 54816, Note_on_c, 5, 60, 100
7, 54816, Note_on_c, 5, 63, 100
7, 54912, Note_on_c, 5, 63, 0
7, 54912, Note_on_c, 5, 60, 0
7, 54912, Note_on_c, 5, 60, 100
7, 54912, Note_on_c, 5, 63, 100
7, 55008, Note_on_c, 5, 63, 0
7, 55008, Note_on_c, 5, 60, 0
7, 55008, Note_on_c, 5, 60, 100
7, 55008, Note_on_c, 5, 63, 100
7, 55104, Note_on_c, 5, 63, 0
7, 55104, Note_on_c, 5, 60, 0
7, 55104, Note_on_c, 5, 60, 100
7, 55104, Note_on_c, 5, 63, 100
7, 55200, Note_on_c, 5, 63, 0
7, 55200, Note_on_c, 5, 60, 0
7, 55200, Note_on_c, 5, 60, 100
7, 55200, Note_on_c, 5, 63, 100
7, 55296, Note_on_c, 5, 63, 0
7, 55296, Note_on_c, 5, 60, 0
7, 55296, Note_on_c, 5, 60, 100
7, 55296, Note_on_c, 5, 63, 100
7, 55392, Note_on_c, 5, 63, 0
7, 55392, Note_on_c, 5, 60, 0
7, 55392, Note_on_c, 5, 60, 100
7, 55392, Note_on_c, 5, 63, 100
7, 55488, Note_on_c, 5, 63, 0
7, 55488, Note_on_c, 5, 60, 0
7, 55488, Note_on_c, 5, 60, 100
7, 55488, Note_on_c, 5, 63, 100
7, 55584, Note_on_c, 5, 63, 0
7, 55584, Note_on_c, 5, 60, 0
7, 55584, Note_on_c, 5, 60, 100
7, 55584, Note_on_c, 5, 63, 100
7, 55680, Note_on_c, 5, 63, 0
7, 55680, Note_on_c, 5, 60, 0
7, 55680, Note_on_c, 5, 60, 100
7, 55680, Note_on_c, 5, 63, 100
7, 55776, Note_on_c, 5, 63, 0
7, 55776, Note_on_c, 5, 60, 0
7, 55776, Note_on_c, 5, 60, 100
7, 55776, Note_on_c, 5, 63, 100
7, 55872, Note_on_c, 5, 63, 0
7, 55872, Note_on_c, 5, 60, 0
7, 55872, Note_on_c, 5, 60, 100
7, 55872, Note_on_c, 5, 63, 100
7, 55968, Note_on_c, 5, 63, 0
7, 55968, Note_on_c, 5, 60, 0
7, 55968, Note_on_c, 5, 60, 100
7, 55968, Note_on_c, 5, 63, 100
7, 56064, Note_on_c, 5, 63, 0
7, 56064, Note_on_c, 5, 60, 0
7, 56064, Note_on_c, 5, 60, 100
7, 56064, Note_on_c, 5, 63, 100
7, 56160, Note_on_c, 5, 63, 0
7, 56160, Note_on_c, 5, 60, 0
7, 56160, Note_on_c, 5, 60, 100
7, 56160, Note_on_c, 5, 63, 100
7, 56256, Note_on_c, 5, 63, 0
7, 56256, Note_on_c, 5, 60, 0
7, 56256, Note_on_c, 5, 60, 100
7, 56256, Note_on_c, 5, 63, 100
7, 56352, Note_on_c, 5, 63, 0
7, 56352, Note_on_c, 5, 60, 0
7, 56352, Note_on_c, 5, 60, 100
7, 56352, Note_on_c, 5, 63, 100
7, 56448, Note_on_c, 5, 63, 0
7, 56448, Note_on_c, 5, 60, 0
7, 56448, Note_on_c, 5, 60, 100
7, 56448, Note_on_c, 5, 63, 100
7, 56544, Note_on_c, 5, 63, 0
7, 56544, Note_on_c, 5, 60, 0
7, 56544, Note_on_c, 5, 60, 100
7, 56544, Note_on_c, 5, 63, 100
7, 56640, Note_on_c, 5, 63, 0
7, 56640, Note_on_c, 5, 60, 0
7, 56640, Note_on_c, 5, 60, 100
7, 56640, Note_on_c, 5, 63, 100
7, 56736, Note_on_c, 5, 63, 0
7, 56736, Note_on_c, 5, 60, 0
7, 56736, Note_on_c, 5, 60, 100
7, 56736, Note_on_c, 5, 63, 100
7, 56832, Note_on_c, 5, 63, 0
7, 56832, Note_on_c, 5, 60, 0
7, 56832, Note_on_c, 5, 65, 120
7, 56896, Note_on_c, 5, 65, 0
7, 56896, Note_on_c, 5, 63, 120
7, 56960, Note_on_c, 5, 63, 0
7, 56960, Note_on_c, 5, 62, 120
7, 57156, Note_on_c, 5, 62, 0
7, 57216, Note_on_c, 5, 62, 120
7, 57348, Note_on_c, 5, 62, 0
7, 57408, Note_on_c, 5, 62, 120
7, 57540, Note_on_c, 5, 62, 0
7, 57600, Note_on_c, 5, 62, 120
7, 57868, Note_on_c, 5, 62, 0
7, 58368, Note_on_c, 5, 65, 120
7, 58432, Note_on_c, 5, 65, 0
7, 58432, Note_on_c, 5, 63, 120
7, 58496, Note_on_c, 5, 63, 0
7, 58496, Note_on_c, 5, 62, 120
7, 58692, Note_on_c, 5, 62, 0
7, 58752, Note_on_c, 5, 62, 120
7, 58884, Note_on_c, 5, 62, 0
7, 58944, Note_on_c, 5, 62, 120
7, 59076, Note_on_c, 5, 62, 0
7, 59136, Note_on_c, 5, 62, 120
7, 59404, Note_on_c, 5, 62, 0
7, 59904, Note_on_c, 5, 58, 120
7, 59968, Note_on_c, 5, 58, 0
7, 59968, Note_on_c, 5, 56, 120
7, 60032, Note_on_c, 5, 56, 0
7, 60032, Note_on_c, 5, 55, 120
7, 60228, Note_on_c, 5, 55, 0
7, 60288, Note_on_c, 5, 55, 120
7, 60420, Note_on_c, 5, 55, 0
7, 60480, Note_on_c, 5, 55, 120
7, 60612, Note_on_c, 5, 55, 0
7, 60672, Note_on_c, 5, 55, 120
7, 60940, Note_on_c, 5, 55, 0
7, 61440, Note_on_c, 5, 58, 120
7, 61504, Note_on_c, 5, 58, 0
7, 61504, Note_on_c, 5, 56, 120
7, 61568, Note_on_c, 5, 56, 0
7, 61568, Note_on_c, 5, 55, 120
7, 61764, Note_on_c, 5, 55, 0
7, 61824, Note_on_c, 5, 55, 120
7, 61956, Note_on_c, 5, 55, 0
7, 62016, Note_on_c, 5, 55, 120
7, 62148, Note_on_c, 5, 55, 0
7, 62208, Note_on_c, 5, 55, 120
7, 62476, Note_on_c, 5, 55, 0
7, 62976, Note_on_c, 5, 63, 120
7, 63040, Note_on_c, 5, 63, 0
7, 63040, Note_on_c, 5, 62, 120
7, 63104, Note_on_c, 5, 62, 0
7, 63104, Note_on_c, 5, 60, 120
7, 63300, Note_on_c, 5, 60, 0
7, 63360, Note_on_c, 5, 60, 120
7, 63492, Note_on_c, 5, 60, 0
7, 63552, Note_on_c, 5, 60, 120
7, 63684, Note_on_c, 5, 60, 0
7, 63744, Note_on_c, 5, 60, 120
7, 64012, Note_on_c, 5, 60, 0
7, 64512, Note_on_c, 5, 63, 120
7, 64576, Note_on_c, 5, 63, 0
7, 64576, Note_on_c, 5, 62, 120
7, 64640, Note_on_c, 5, 62, 0
7, 64640, Note_on_c, 5, 60, 120
7, 64836, Note_on_c, 5, 60, 0
7, 64896, Note_on_c, 5, 60, 120
7, 65028, Note_on_c, 5, 60, 0
7, 65088, Note_on_c, 5, 60, 120
7, 65220, Note_on_c, 5, 60, 0
7, 65280, Note_on_c, 5, 60, 120
7, 65548, Note_on_c, 5, 60, 0
7, 66048, Note_on_c, 5, 57, 120
7, 66112, Note_on_c, 5, 57, 0
7, 66112, Note_on_c, 5, 55, 120
7, 66176, Note_on_c, 5, 55, 0
7, 66176, Note_on_c, 5, 53, 120
7, 66372, Note_on_c, 5, 53, 0
7, 66432, Note_on_c, 5, 53, 120
7, 66564, Note_on_c, 5, 53, 0
7, 66624, Note_on_c, 5, 53, 120
7, 66756, Note_on_c, 5, 53, 0
7, 66816, Note_on_c, 5, 53, 120
7, 67084, Note_on_c, 5, 53, 0
7, 67584, Note_on_c, 5, 57, 120
7, 67648, Note_on_c, 5, 57, 0
7, 67648, Note_on_c, 5, 55, 120
7, 67712, Note_on_c, 5, 55, 0
7, 67712, Note_on_c, 5, 53, 120
7, 67908, Note_on_c, 5, 53, 0
7, 67968, Note_on_c, 5, 53, 120
7, 68100, Note_on_c, 5, 53, 0
7, 68160, Note_on_c, 5, 53, 120
7, 68292, Note_on_c, 5, 53, 0
7, 68352, Note_on_c, 5, 53, 120
7, 68620, Note_on_c, 5, 53, 0
7, 69120, Note_on_c, 5, 62, 120
7, 69184, Note_on_c, 5, 62, 0
7, 69184, Note_on_c, 5, 60, 120
7, 69248, Note_on_c, 5, 60, 0
7, 69248, Note_on_c, 5, 58, 120
7, 69444, Note_on_c, 5, 58, 0
7, 69504, Note_on_c, 5, 58, 120
7, 69636, Note_on_c, 5, 58, 0
7, 69696, Note_on_c, 5, 58, 120
7, 69828, Note_on_c, 5, 58, 0
7, 69888, Note_on_c, 5, 58, 120
7, 70156, Note_on_c, 5, 58, 0
7, 70656, Note_on_c, 5, 62, 120
7, 70720, Note_on_c, 5, 62, 0
7, 70720, Note_on_c, 5, 60, 120
7, 70784, Note_on_c, 5, 60, 0
7, 70784, Note_on_c, 5, 58, 120
7, 70980, Note_on_c, 5, 58, 0
7, 71040, Note_on_c, 5, 58, 120
7, 71172, Note_on_c, 5, 58, 0
7, 71232, Note_on_c, 5, 58, 120
7, 71364, Note_on_c, 5, 58, 0
7, 71424, Note_on_c, 5, 58, 120
7, 71692, Note_on_c, 5, 58, 0
7, 72192, Note_on_c, 5, 67, 120
7, 72256, Note_on_c, 5, 67, 0
7, 72256, Note_on_c, 5, 65, 120
7, 72320, Note_on_c, 5, 65, 0
7, 72320, Note_on_c, 5, 63, 120
7, 72516, Note_on_c, 5, 63, 0
7, 72576, Note_on_c, 5, 63, 120
7, 72708, Note_on_c, 5, 63, 0
7, 72768, Note_on_c, 5, 63, 120
7, 72900, Note_on_c, 5, 63, 0
7, 72960, Note_on_c, 5, 63, 120
7, 73228, Note_on_c, 5, 63, 0
7, 73728, Note_on_c, 5, 67, 120
7, 73792, Note_on_c, 5, 67, 0
7, 73792, Note_on_c, 5, 65, 120
7, 73856, Note_on_c, 5, 65, 0
7, 73856, Note_on_c, 5, 63, 120
7, 74052, Note_on_c, 5, 63, 0
7, 74112, Note_on_c, 5, 63, 120
7, 74244, Note_on_c, 5, 63, 0
7, 74304, Note_on_c, 5, 63, 120
7, 74436, Note_on_c, 5, 63, 0
7, 74496, Note_on_c, 5, 63, 120
7, 74764, Note_on_c, 5, 63, 0
7, 76800, Note_on_c, 5, 75, 120
7, 77068, Note_on_c, 5, 75, 0
7, 77184, Note_on_c, 5, 72, 120
7, 77452, Note_on_c, 5, 72, 0
7, 77568, Note_on_c, 5, 69, 120
7, 77836, Note_on_c, 5, 69, 0
7, 77952, Note_on_c, 5, 65, 120
7, 78220, Note_on_c, 5, 65, 0
7, 79872, Note_on_c, 5, 70, 120
7, 80140, Note_on_c, 5, 70, 0
7, 80256, Note_on_c, 5, 65, 120
7, 80524, Note_on_c, 5, 65, 0
7, 80640, Note_on_c, 5, 62, 120
7, 80908, Note_on_c, 5, 62, 0
7, 81024, Note_on_c, 5, 58, 120
7, 81292, Note_on_c, 5, 58, 0
7, 82944, Note_on_c, 5, 70, 120
7, 83212, Note_on_c, 5, 70, 0
7, 83328, Note_on_c, 5, 65, 120
7, 83596, Note_on_c, 5, 65, 0
7, 83712, Note_on_c, 5, 61, 120
7, 83980, Note_on_c, 5, 61, 0
7, 84096, Note_on_c, 5, 58, 120
7, 84364, Note_on_c, 5, 58, 0
7, 86016, Note_on_c, 5, 73, 120
7, 86284, Note_on_c, 5, 73, 0
7, 86400, Note_on_c, 5, 70, 120
7, 86668, Note_on_c, 5, 70, 0
7, 86784, Note_on_c, 5, 67, 120
7, 87052, Note_on_c, 5, 67, 0
7, 87168, Note_on_c, 5, 64, 120
7, 87436, Note_on_c, 5, 64, 0
7, 87552, Note_on_c, 5, 65, 115
7, 87936, Note_on_c, 5, 65, 0
7, 87936, Note_on_c, 5, 66, 115
7, 88320, Note_on_c, 5, 66, 0
7, 88320, Note_on_c, 5, 65, 115
7, 88704, Note_on_c, 5, 65, 0
7, 88704, Note_on_c, 5, 64, 115
7, 89088, Note_on_c, 5, 64, 0
7, 89088, Note_on_c, 5, 65, 115
7, 89336, Note_on_c, 5, 65, 0
7, 89472, Note_on_c, 5, 65, 92
7, 89664, Note_on_c, 5, 65, 0
7, 89856, Note_on_c, 5, 53, 92
7, 90104, Note_on_c, 5, 53, 0
7, 96768, Note_on_c, 5, 62, 80
7, 97016, Note_on_c, 5, 62, 0
7, 97152, Note_on_c, 5, 64, 80
7, 97400, Note_on_c, 5, 64, 0
7, 97536, Note_on_c, 5, 65, 80
7, 97784, Note_on_c, 5, 65, 0
7, 97920, Note_on_c, 5, 62, 80
7, 98168, Note_on_c, 5, 62, 0
7, 98304, Note_on_c, 5, 60, 80
7, 98552, Note_on_c, 5, 60, 0
7, 98688, Note_on_c, 5, 58, 80
7, 98936, Note_on_c, 5, 58, 0
7, 99072, Note_on_c, 5, 57, 80
7, 99320, Note_on_c, 5, 57, 0
7, 99456, Note_on_c, 5, 58, 80
7, 99704, Note_on_c, 5, 58, 0
7, 99840, Note_on_c, 5, 63, 80
7, 100088, Note_on_c, 5, 63, 0
7, 100224, Note_on_c, 5, 57, 80
7, 100472, Note_on_c, 5, 57, 0
7, 100608, Note_on_c, 5, 58, 80
7, 100856, Note_on_c, 5, 58, 0
7, 100992, Note_on_c, 5, 53, 80
7, 101240, Note_on_c, 5, 53, 0
7, 101376, Note_on_c, 5, 55, 80
7, 101568, Note_on_c, 5, 55, 0
7, 101568, Note_on_c, 5, 63, 80
7, 101720, Note_on_c, 5, 63, 0
7, 101760, Note_on_c, 5, 62, 80
7, 101912, Note_on_c, 5, 62, 0
7, 101952, Note_on_c, 5, 60, 80
7, 102104, Note_on_c, 5, 60, 0
7, 102144, Note_on_c, 5, 65, 100
7, 102296, Note_on_c, 5, 65, 0
7, 102336, Note_on_c, 5, 65, 100
7, 102640, Note_on_c, 5, 65, 0
7, 102720, Note_on_c, 5, 65, 100
7, 103064, Note_on_c, 5, 65, 0
7, 103104, Note_on_c, 5, 65, 100
7, 103408, Note_on_c, 5, 65, 0
7, 103488, Note_on_c, 5, 65, 100
7, 103792, Note_on_c, 5, 65, 0
7, 103872, Note_on_c, 5, 65, 100
7, 104176, Note_on_c, 5, 65, 0
7, 104256, Note_on_c, 5, 65, 100
7, 104600, Note_on_c, 5, 65, 0
7, 104640, Note_on_c, 5, 65, 100
7, 104944, Note_on_c, 5, 65, 0
7, 105024, Note_on_c, 5, 65, 100
7, 105328, Note_on_c, 5, 65, 0
7, 105408, Note_on_c, 5, 65, 100
7, 105712, Note_on_c, 5, 65, 0
7, 105792, Note_on_c, 5, 65, 100
7, 106136, Note_on_c, 5, 65, 0
7, 106176, Note_on_c, 5, 65, 80
7, 106480, Note_on_c, 5, 65, 0
7, 106560, Note_on_c, 5, 65, 80
7, 106864, Note_on_c, 5, 65, 0
7, 106944, Note_on_c, 5, 65, 80
7, 107248, Note_on_c, 5, 65, 0
7, 107328, Note_on_c, 5, 65, 80
7, 107712, Note_on_c, 5, 65, 0
7, 107712, Note_on_c, 5, 72, 120
7, 107864, Note_on_c, 5, 72, 0
7, 107904, Note_on_c, 5, 70, 120
7, 108056, Note_on_c, 5, 70, 0
7, 108096, Note_on_c, 5, 69, 120
7, 108248, Note_on_c, 5, 69, 0
7, 108288, Note_on_c, 5, 70, 120
7, 108536, Note_on_c, 5, 70, 0
7, 108672, Note_on_c, 5, 67, 120
7, 108920, Note_on_c, 5, 67, 0
7, 109056, Note_on_c, 5, 60, 120
7, 109304, Note_on_c, 5, 60, 0
7, 109440, Note_on_c, 5, 62, 120
7, 109688, Note_on_c, 5, 62, 0
7, 109824, Note_on_c, 5, 67, 120
7, 110016, Note_on_c, 5, 67, 0
7, 110016, Note_on_c, 5, 63, 120
7, 110168, Note_on_c, 5, 63, 0
7, 110208, Note_on_c, 5, 63, 120
7, 110360, Note_on_c, 5, 63, 0
7, 110400, Note_on_c, 5, 63, 120
7, 110552, Note_on_c, 5, 63, 0
7, 110592, Note_on_c, 5, 63, 120
7, 110784, Note_on_c, 5, 63, 0
7, 110784, Note_on_c, 5, 62, 120
7, 110936, Note_on_c, 5, 62, 0
7, 110976, Note_on_c, 5, 60, 120
7, 111128, Note_on_c, 5, 60, 0
7, 111168, Note_on_c, 5, 58, 120
7, 111320, Note_on_c, 5, 58, 0
7, 111360, Note_on_c, 5, 57, 120
7, 111552, Note_on_c, 5, 57, 0
7, 111552, Note_on_c, 5, 60, 120
7, 111704, Note_on_c, 5, 60, 0
7, 111744, Note_on_c, 5, 60, 120
7, 111896, Note_on_c, 5, 60, 0
7, 111936, Note_on_c, 5, 60, 120
7, 112088, Note_on_c, 5, 60, 0
7, 112128, Note_on_c, 5, 60, 120
7, 112320, Note_on_c, 5, 60, 0
7, 112320, Note_on_c, 5, 58, 120
7, 112472, Note_on_c, 5, 58, 0
7, 112512, Note_on_c, 5, 62, 120
7, 112664, Note_on_c, 5, 62, 0
7, 112704, Note_on_c, 5, 65, 120
7, 112856, Note_on_c, 5, 65, 0
7, 112896, Note_on_c, 5, 65, 120
7, 113088, Note_on_c, 5, 65, 0
7, 113088, Note_on_c, 5, 63, 120
7, 113240, Note_on_c, 5, 63, 0
7, 113280, Note_on_c, 5, 62, 120
7, 113432, Note_on_c, 5, 62, 0
7, 113472, Note_on_c, 5, 60, 120
7, 113624, Note_on_c, 5, 60, 0
7, 113664, Note_on_c, 5, 58, 120
7, 114008, Note_on_c, 5, 58, 0
7, 114624, Note_on_c, 5, 62, 96
7, 114748, Note_on_c, 5, 62, 0
7, 114816, Note_on_c, 5, 65, 96
7, 114940, Note_on_c, 5, 65, 0
7, 115008, Note_on_c, 5, 62, 96
7, 115132, Note_on_c, 5, 62, 0
7, 115200, Note_on_c, 5, 58, 120
7, 115544, Note_on_c, 5, 58, 0
7, 116160, Note_on_c, 5, 67, 96
7, 116284, Note_on_c, 5, 67, 0
7, 116352, Note_on_c, 5, 70, 96
7, 116476, Note_on_c, 5, 70, 0
7, 116544, Note_on_c, 5, 67, 96
7, 116668, Note_on_c, 5, 67, 0
7, 116736, Note_on_c, 5, 65, 120
7, 117004, Note_on_c, 5, 65, 0
7, 117120, Note_on_c, 5, 67, 120
7, 117388, Note_on_c, 5, 67, 0
7, 117504, Note_on_c, 5, 67, 120
7, 117772, Note_on_c, 5, 67, 0
7, 117888, Note_on_c, 5, 65, 120
7, 118156, Note_on_c, 5, 65, 0
7, 118272, Note_on_c, 5, 58, 96
7, 119040, Note_on_c, 5, 58, 0
7, 119424, Note_on_c, 5, 58, 96
7, 119520, Note_on_c, 5, 58, 0
7, 119520, Note_on_c, 5, 60, 96
7, 119616, Note_on_c, 5, 60, 0
7, 119616, Note_on_c, 5, 62, 96
7, 119712, Note_on_c, 5, 62, 0
7, 119712, Note_on_c, 5, 63, 96
7, 119808, Note_on_c, 5, 63, 0
7, 119808, Note_on_c, 5, 65, 96
7, 120576, Note_on_c, 5, 65, 0
7, 120960, Note_on_c, 5, 65, 96
7, 121056, Note_on_c, 5, 65, 0
7, 121056, Note_on_c, 5, 63, 96
7, 121152, Note_on_c, 5, 63, 0
7, 121152, Note_on_c, 5, 62, 96
7, 121248, Note_on_c, 5, 62, 0
7, 121248, Note_on_c, 5, 60, 96
7, 121344, Note_on_c, 5, 60, 0
7, 121344, Note_on_c, 5, 58, 96
7, 122112, Note_on_c, 5, 58, 0
7, 122496, Note_on_c, 5, 58, 96
7, 122592, Note_on_c, 5, 58, 0
7, 122592, Note_on_c, 5, 60, 96
7, 122688, Note_on_c, 5, 60, 0
7, 122688, Note_on_c, 5, 62, 96
7, 122784, Note_on_c, 5, 62, 0
7, 122784, Note_on_c, 5, 63, 96
7, 122880, Note_on_c, 5, 63, 0
7, 122880, Note_on_c, 5, 65, 96
7, 123648, Note_on_c, 5, 65, 0
7, 124032, Note_on_c, 5, 65, 96
7, 124128, Note_on_c, 5, 65, 0
7, 124128, Note_on_c, 5, 63, 96
7, 124224, Note_on_c, 5, 63, 0
7, 124224, Note_on_c, 5, 62, 96
7, 124320, Note_on_c, 5, 62, 0
7, 124320, Note_on_c, 5, 60, 96
7, 124416, Note_on_c, 5, 60, 0
7, 124416, Note_on_c, 5, 58, 120
7, 124720, Note_on_c, 5, 58, 0
7, 124800, Note_on_c, 5, 58, 120
7, 125184, Note_on_c, 5, 58, 0
7, 125184, Note_on_c, 5, 60, 120
7, 125568, Note_on_c, 5, 60, 0
7, 125568, Note_on_c, 5, 62, 120
7, 125952, Note_on_c, 5, 62, 0
7, 125952, Note_on_c, 5, 63, 120
7, 126336, Note_on_c, 5, 63, 0
7, 126336, Note_on_c, 5, 60, 120
7, 126720, Note_on_c, 5, 60, 0
7, 126720, Note_on_c, 5, 57, 120
7, 127104, Note_on_c, 5, 57, 0
7, 127104, Note_on_c, 5, 66, 120
7, 127488, Note_on_c, 5, 66, 0
7, 127488, Note_on_c, 5, 67, 120
7, 127640, Note_on_c, 5, 67, 0
7, 127680, Note_on_c, 5, 67, 120
7, 127984, Note_on_c, 5, 67, 0
7, 128064, Note_on_c, 5, 67, 120
7, 128368, Note_on_c, 5, 67, 0
7, 128448, Note_on_c, 5, 67, 120
7, 128752, Note_on_c, 5, 67, 0
7, 128832, Note_on_c, 5, 67, 120
7, 128984, Note_on_c, 5, 67, 0
7, 129024, Note_on_c, 5, 62, 120
7, 129176, Note_on_c, 5, 62, 0
7, 129216, Note_on_c, 5, 62, 120
7, 129520, Note_on_c, 5, 62, 0
7, 129600, Note_on_c, 5, 62, 120
7, 129904, Note_on_c, 5, 62, 0
7, 129984, Note_on_c, 5, 62, 120
7, 130288, Note_on_c, 5, 62, 0
7, 130368, Note_on_c, 5, 62, 120
7, 130520, Note_on_c, 5, 62, 0
7, 130560, Note_on_c, 5, 63, 120
7, 130712, Note_on_c, 5, 63, 0
7, 130752, Note_on_c, 5, 63, 120
7, 131056, Note_on_c, 5, 63, 0
7, 131136, Note_on_c, 5, 63, 120
7, 131440, Note_on_c, 5, 63, 0
7, 131520, Note_on_c, 5, 63, 120
7, 131824, Note_on_c, 5, 63, 0
7, 131904, Note_on_c, 5, 63, 120
7, 132056, Note_on_c, 5, 63, 0
7, 132096, Note_on_c, 5, 54, 120
7, 132248, Note_on_c, 5, 54, 0
7, 132288, Note_on_c, 5, 54, 120
7, 132592, Note_on_c, 5, 54, 0
7, 132672, Note_on_c, 5, 54, 120
7, 132976, Note_on_c, 5, 54, 0
7, 133056, Note_on_c, 5, 54, 120
7, 133360, Note_on_c, 5, 54, 0
7, 133440, Note_on_c, 5, 54, 120
7, 133592, Note_on_c, 5, 54, 0
7, 133632, Note_on_c, 5, 55, 120
7, 133936, Note_on_c, 5, 55, 0
7, 134400, Note_on_c, 5, 70, 120
7, 134496, Note_on_c, 5, 70, 0
7, 134496, Note_on_c, 5, 69, 120
7, 134592, Note_on_c, 5, 69, 0
7, 134592, Note_on_c, 5, 67, 120
7, 134688, Note_on_c, 5, 67, 0
7, 134688, Note_on_c, 5, 66, 120
7, 134784, Note_on_c, 5, 66, 0
7, 134784, Note_on_c, 5, 67, 120
7, 135088, Note_on_c, 5, 67, 0
7, 135936, Note_on_c, 5, 70, 120
7, 136032, Note_on_c, 5, 70, 0
7, 136032, Note_on_c, 5, 69, 120
7, 136128, Note_on_c, 5, 69, 0
7, 136128, Note_on_c, 5, 67, 120
7, 136224, Note_on_c, 5, 67, 0
7, 136224, Note_on_c, 5, 66, 120
7, 136320, Note_on_c, 5, 66, 0
7, 136320, Note_on_c, 5, 67, 120
7, 136624, Note_on_c, 5, 67, 0
7, 137472, Note_on_c, 5, 72, 120
7, 137568, Note_on_c, 5, 72, 0
7, 137568, Note_on_c, 5, 70, 120
7, 137664, Note_on_c, 5, 70, 0
7, 137664, Note_on_c, 5, 69, 120
7, 137760, Note_on_c, 5, 69, 0
7, 137760, Note_on_c, 5, 67, 120
7, 137856, Note_on_c, 5, 67, 0
7, 137856, Note_on_c, 5, 69, 120
7, 138160, Note_on_c, 5, 69, 0
7, 139008, Note_on_c, 5, 72, 120
7, 139104, Note_on_c, 5, 72, 0
7, 139104, Note_on_c, 5, 70, 120
7, 139200, Note_on_c, 5, 70, 0
7, 139200, Note_on_c, 5, 69, 120
7, 139296, Note_on_c, 5, 69, 0
7, 139296, Note_on_c, 5, 67, 120
7, 139372, Note_on_c, 5, 67, 0
7, 139392, Note_on_c, 5, 69, 120
7, 139696, Note_on_c, 5, 69, 0
7, 140544, Note_on_c, 5, 74, 120
7, 140640, Note_on_c, 5, 74, 0
7, 140640, Note_on_c, 5, 72, 120
7, 140736, Note_on_c, 5, 72, 0
7, 140736, Note_on_c, 5, 70, 120
7, 140832, Note_on_c, 5, 70, 0
7, 140832, Note_on_c, 5, 69, 120
7, 140928, Note_on_c, 5, 69, 0
7, 140928, Note_on_c, 5, 70, 120
7, 141120, Note_on_c, 5, 70, 0
7, 141312, Note_on_c, 5, 70, 120
7, 141408, Note_on_c, 5, 70, 0
7, 141408, Note_on_c, 5, 69, 120
7, 141504, Note_on_c, 5, 69, 0
7, 141504, Note_on_c, 5, 67, 120
7, 141600, Note_on_c, 5, 67, 0
7, 141600, Note_on_c, 5, 66, 120
7, 141696, Note_on_c, 5, 66, 0
7, 141696, Note_on_c, 5, 67, 120
7, 141888, Note_on_c, 5, 67, 0
7, 142080, Note_on_c, 5, 67, 120
7, 142176, Note_on_c, 5, 67, 0
7, 142176, Note_on_c, 5, 65, 120
7, 142272, Note_on_c, 5, 65, 0
7, 142272, Note_on_c, 5, 63, 120
7, 142368, Note_on_c, 5, 63, 0
7, 142368, Note_on_c, 5, 62, 120
7, 142464, Note_on_c, 5, 62, 0
7, 142464, Note_on_c, 5, 63, 120
7, 142560, Note_on_c, 5, 63, 0
7, 142560, Note_on_c, 5, 62, 120
7, 142656, Note_on_c, 5, 62, 0
7, 142656, Note_on_c, 5, 60, 120
7, 142752, Note_on_c, 5, 60, 0
7, 142752, Note_on_c, 5, 58, 120
7, 142848, Note_on_c, 5, 58, 0
7, 142848, Note_on_c, 5, 60, 120
7, 143116, Note_on_c, 5, 60, 0
7, 143232, Note_on_c, 5, 58, 120
7, 143500, Note_on_c, 5, 58, 0
7, 143616, Note_on_c, 5, 57, 120
7, 143884, Note_on_c, 5, 57, 0
7, 144000, Note_on_c, 5, 55, 120
7, 144268, Note_on_c, 5, 55, 0
7, 144384, Note_on_c, 5, 54, 120
7, 144652, Note_on_c, 5, 54, 0
7, 144768, Note_on_c, 5, 62, 96
7, 145036, Note_on_c, 5, 62, 0
7, 145920, Note_on_c, 5, 70, 120
7, 146072, Note_on_c, 5, 70, 0
7, 146112, Note_on_c, 5, 70, 120
7, 146416, Note_on_c, 5, 70, 0
7, 146496, Note_on_c, 5, 70, 120
7, 146800, Note_on_c, 5, 70, 0
7, 146880, Note_on_c, 5, 70, 120
7, 147184, Note_on_c, 5, 70, 0
7, 147264, Note_on_c, 5, 70, 120
7, 147416, Note_on_c, 5, 70, 0
7, 147456, Note_on_c, 5, 58, 100
7, 147608, Note_on_c, 5, 58, 0
7, 147648, Note_on_c, 5, 58, 100
7, 147952, Note_on_c, 5, 58, 0
7, 148032, Note_on_c, 5, 58, 100
7, 148336, Note_on_c, 5, 58, 0
7, 148416, Note_on_c, 5, 58, 100
7, 148720, Note_on_c, 5, 58, 0
7, 148800, Note_on_c, 5, 58, 100
7, 148952, Note_on_c, 5, 58, 0
7, 148992, Note_on_c, 5, 67, 120
7, 149144, Note_on_c, 5, 67, 0
7, 149184, Note_on_c, 5, 67, 120
7, 149488, Note_on_c, 5, 67, 0
7, 149568, Note_on_c, 5, 67, 120
7, 149872, Note_on_c, 5, 67, 0
7, 149952, Note_on_c, 5, 67, 120
7, 150256, Note_on_c, 5, 67, 0
7, 150336, Note_on_c, 5, 67, 120
7, 150488, Note_on_c, 5, 67, 0
7, 150528, Note_on_c, 5, 62, 100
7, 150528, Note_on_c, 5, 57, 100
7, 150680, Note_on_c, 5, 57, 0
7, 150680, Note_on_c, 5, 62, 0
7, 150720, Note_on_c, 5, 62, 100
7, 150720, Note_on_c, 5, 57, 100
7, 151024, Note_on_c, 5, 57, 0
7, 151024, Note_on_c, 5, 62, 0
7, 151104, Note_on_c, 5, 62, 100
7, 151104, Note_on_c, 5, 57, 100
7, 151408, Note_on_c, 5, 57, 0
7, 151408, Note_on_c, 5, 62, 0
7, 151488, Note_on_c, 5, 62, 100
7, 151488, Note_on_c, 5, 57, 100
7, 151792, Note_on_c, 5, 57, 0
7, 151792, Note_on_c, 5, 62, 0
7, 151872, Note_on_c, 5, 62, 100
7, 151872, Note_on_c, 5, 57, 100
7, 152024, Note_on_c, 5, 57, 0
7, 152024, Note_on_c, 5, 62, 0
7, 152064, Note_on_c, 5, 62, 120
7, 152064, Note_on_c, 5, 58, 120
7, 152332, Note_on_c, 5, 58, 0
7, 152332, Note_on_c, 5, 62, 0
7, 153600, Note_on_c, 5, 55, 64
7, 153904, Note_on_c, 5, 55, 0
7, 155136, Note_on_c, 5, 55, 64
7, 155440, Note_on_c, 5, 55, 0
7, 156672, Note_on_c, 5, 55, 64
7, 156976, Note_on_c, 5, 55, 0
7, 158208, Note_on_c, 5, 55, 64
7, 158512, Note_on_c, 5, 55, 0
7, 159744, Note_on_c, 5, 55, 64
7, 160048, Note_on_c, 5, 55, 0
7, 161280, Note_on_c, 5, 51, 64
7, 161584, Note_on_c, 5, 51, 0
7, 162816, Note_on_c, 5, 63, 64
7, 163120, Note_on_c, 5, 63, 0
7, 164352, Note_on_c, 5, 62, 51
7, 164656, Note_on_c, 5, 62, 0
7, 165888, Note_on_c, 5, 62, 51
7, 166192, Note_on_c, 5, 62, 0
7, 167424, Note_on_c, 5, 62, 51
7, 167728, Note_on_c, 5, 62, 0
7, 168192, Note_on_c, 5, 62, 41
7, 168496, Note_on_c, 5, 62, 0
7, 168960, Note_on_c, 5, 62, 33
7, 169264, Note_on_c, 5, 62, 0
7, 170496, Note_on_c, 5, 62, 100
7, 170496, Note_on_c, 5, 58, 100
7, 170592, Note_on_c, 5, 58, 0
7, 170592, Note_on_c, 5, 62, 0
7, 170592, Note_on_c, 5, 62, 100
7, 170592, Note_on_c, 5, 58, 100
7, 170688, Note_on_c, 5, 58, 0
7, 170688, Note_on_c, 5, 62, 0
7, 170688, Note_on_c, 5, 62, 100
7, 170688, Note_on_c, 5, 58, 100
7, 170784, Note_on_c, 5, 58, 0
7, 170784, Note_on_c, 5, 62, 0
7, 170784, Note_on_c, 5, 62, 100
7, 170784, Note_on_c, 5, 58, 100
7, 170880, Note_on_c, 5, 58, 0
7, 170880, Note_on_c, 5, 62, 0
7, 170880, Note_on_c, 5, 62, 100
7, 170880, Note_on_c, 5, 58, 100
7, 170976, Note_on_c, 5, 58, 0
7, 170976, Note_on_c, 5, 62, 0
7, 170976, Note_on_c, 5, 62, 100
7, 170976, Note_on_c, 5, 58, 100
7, 171072, Note_on_c, 5, 58, 0
7, 171072, Note_on_c, 5, 62, 0
7, 171072, Note_on_c, 5, 62, 100
7, 171072, Note_on_c, 5, 58, 100
7, 171168, Note_on_c, 5, 58, 0
7, 171168, Note_on_c, 5, 62, 0
7, 171168, Note_on_c, 5, 62, 100
7, 171168, Note_on_c, 5, 58, 100
7, 171264, Note_on_c, 5, 58, 0
7, 171264, Note_on_c, 5, 62, 0
7, 171264, Note_on_c, 5, 62, 100
7, 171264, Note_on_c, 5, 58, 100
7, 171360, Note_on_c, 5, 58, 0
7, 171360, Note_on_c, 5, 62, 0
7, 171360, Note_on_c, 5, 62, 100
7, 171360, Note_on_c, 5, 58, 100
7, 171456, Note_on_c, 5, 58, 0
7, 171456, Note_on_c, 5, 62, 0
7, 171456, Note_on_c, 5, 62, 100
7, 171456, Note_on_c, 5, 58, 100
7, 171552, Note_on_c, 5, 58, 0
7, 171552, Note_on_c, 5, 62, 0
7, 171552, Note_on_c, 5, 62, 100
7, 171552, Note_on_c, 5, 58, 100
7, 171648, Note_on_c, 5, 58, 0
7, 171648, Note_on_c, 5, 62, 0
7, 171648, Note_on_c, 5, 62, 100
7, 171648, Note_on_c, 5, 58, 100
7, 171744, Note_on_c, 5, 58, 0
7, 171744, Note_on_c, 5, 62, 0
7, 171744, Note_on_c, 5, 62, 100
7, 171744, Note_on_c, 5, 58, 100
7, 171840, Note_on_c, 5, 58, 0
7, 171840, Note_on_c, 5, 62, 0
7, 171840, Note_on_c, 5, 62, 100
7, 171840, Note_on_c, 5, 58, 100
7, 171936, Note_on_c, 5, 58, 0
7, 171936, Note_on_c, 5, 62, 0
7, 171936, Note_on_c, 5, 62, 100
7, 171936, Note_on_c, 5, 58, 100
7, 172032, Note_on_c, 5, 58, 0
7, 172032, Note_on_c, 5, 62, 0
7, 172032, Note_on_c, 5, 58, 100
7, 172032, Note_on_c, 5, 62, 100
7, 172128, Note_on_c, 5, 62, 0
7, 172128, Note_on_c, 5, 58, 0
7, 172128, Note_on_c, 5, 58, 100
7, 172128, Note_on_c, 5, 62, 100
7, 172224, Note_on_c, 5, 62, 0
7, 172224, Note_on_c, 5, 58, 0
7, 172224, Note_on_c, 5, 58, 100
7, 172224, Note_on_c, 5, 62, 100
7, 172320, Note_on_c, 5, 62, 0
7, 172320, Note_on_c, 5, 58, 0
7, 172320, Note_on_c, 5, 58, 100
7, 172320, Note_on_c, 5, 62, 100
7, 172416, Note_on_c, 5, 62, 0
7, 172416, Note_on_c, 5, 58, 0
7, 172416, Note_on_c, 5, 58, 100
7, 172416, Note_on_c, 5, 62, 100
7, 172512, Note_on_c, 5, 62, 0
7, 172512, Note_on_c, 5, 58, 0
7, 172512, Note_on_c, 5, 58, 100
7, 172512, Note_on_c, 5, 62, 100
7, 172608, Note_on_c, 5, 62, 0
7, 172608, Note_on_c, 5, 58, 0
7, 172608, Note_on_c, 5, 58, 100
7, 172608, Note_on_c, 5, 62, 100
7, 172704, Note_on_c, 5, 62, 0
7, 172704, Note_on_c, 5, 58, 0
7, 172704, Note_on_c, 5, 58, 100
7, 172704, Note_on_c, 5, 62, 100
7, 172800, Note_on_c, 5, 62, 0
7, 172800, Note_on_c, 5, 58, 0
7, 172800, Note_on_c, 5, 58, 100
7, 172800, Note_on_c, 5, 62, 100
7, 172896, Note_on_c, 5, 62, 0
7, 172896, Note_on_c, 5, 58, 0
7, 172896, Note_on_c, 5, 58, 100
7, 172896, Note_on_c, 5, 62, 100
7, 172992, Note_on_c, 5, 62, 0
7, 172992, Note_on_c, 5, 58, 0
7, 172992, Note_on_c, 5, 58, 100
7, 172992, Note_on_c, 5, 62, 100
7, 173088, Note_on_c, 5, 62, 0
7, 173088, Note_on_c, 5, 58, 0
7, 173088, Note_on_c, 5, 58, 100
7, 173088, Note_on_c, 5, 62, 100
7, 173184, Note_on_c, 5, 62, 0
7, 173184, Note_on_c, 5, 58, 0
7, 173184, Note_on_c, 5, 58, 100
7, 173184, Note_on_c, 5, 62, 100
7, 173280, Note_on_c, 5, 62, 0
7, 173280, Note_on_c, 5, 58, 0
7, 173280, Note_on_c, 5, 58, 100
7, 173280, Note_on_c, 5, 62, 100
7, 173376, Note_on_c, 5, 62, 0
7, 173376, Note_on_c, 5, 58, 0
7, 173376, Note_on_c, 5, 58, 100
7, 173376, Note_on_c, 5, 62, 100
7, 173472, Note_on_c, 5, 62, 0
7, 173472, Note_on_c, 5, 58, 0
7, 173472, Note_on_c, 5, 58, 100
7, 173472, Note_on_c, 5, 62, 100
7, 173568, Note_on_c, 5, 62, 0
7, 173568, Note_on_c, 5, 58, 0
7, 173568, Note_on_c, 5, 60, 100
7, 173568, Note_on_c, 5, 63, 100
7, 173664, Note_on_c, 5, 63, 0
7, 173664, Note_on_c, 5, 60, 0
7, 173664, Note_on_c, 5, 60, 100
7, 173664, Note_on_c, 5, 63, 100
7, 173760, Note_on_c, 5, 63, 0
7, 173760, Note_on_c, 5, 60, 0
7, 173760, Note_on_c, 5, 60, 100
7, 173760, Note_on_c, 5, 63, 100
7, 173856, Note_on_c, 5, 63, 0
7, 173856, Note_on_c, 5, 60, 0
7, 173856, Note_on_c, 5, 60, 100
7, 173856, Note_on_c, 5, 63, 100
7, 173952, Note_on_c, 5, 63, 0
7, 173952, Note_on_c, 5, 60, 0
7, 173952, Note_on_c, 5, 60, 100
7, 173952, Note_on_c, 5, 63, 100
7, 174048, Note_on_c, 5, 63, 0
7, 174048, Note_on_c, 5, 60, 0
7, 174048, Note_on_c, 5, 60, 100
7, 174048, Note_on_c, 5, 63, 100
7, 174144, Note_on_c, 5, 63, 0
7, 174144, Note_on_c, 5, 60, 0
7, 174144, Note_on_c, 5, 60, 100
7, 174144, Note_on_c, 5, 63, 100
7, 174240, Note_on_c, 5, 63, 0
7, 174240, Note_on_c, 5, 60, 0
7, 174240, Note_on_c, 5, 60, 100
7, 174240, Note_on_c, 5, 63, 100
7, 174336, Note_on_c, 5, 63, 0
7, 174336, Note_on_c, 5, 60, 0
7, 174336, Note_on_c, 5, 60, 100
7, 174336, Note_on_c, 5, 63, 100
7, 174432, Note_on_c, 5, 63, 0
7, 174432, Note_on_c, 5, 60, 0
7, 174432, Note_on_c, 5, 60, 100
7, 174432, Note_on_c, 5, 63, 100
7, 174528, Note_on_c, 5, 63, 0
7, 174528, Note_on_c, 5, 60, 0
7, 174528, Note_on_c, 5, 60, 100
7, 174528, Note_on_c, 5, 63, 100
7, 174624, Note_on_c, 5, 63, 0
7, 174624, Note_on_c, 5, 60, 0
7, 174624, Note_on_c, 5, 60, 100
7, 174624, Note_on_c, 5, 63, 100
7, 174720, Note_on_c, 5, 63, 0
7, 174720, Note_on_c, 5, 60, 0
7, 174720, Note_on_c, 5, 60, 100
7, 174720, Note_on_c, 5, 63, 100
7, 174816, Note_on_c, 5, 63, 0
7, 174816, Note_on_c, 5, 60, 0
7, 174816, Note_on_c, 5, 60, 100
7, 174816, Note_on_c, 5, 63, 100
7, 174912, Note_on_c, 5, 63, 0
7, 174912, Note_on_c, 5, 60, 0
7, 174912, Note_on_c, 5, 60, 100
7, 174912, Note_on_c, 5, 63, 100
7, 175008, Note_on_c, 5, 63, 0
7, 175008, Note_on_c, 5, 60, 0
7, 175008, Note_on_c, 5, 60, 100
7, 175008, Note_on_c, 5, 63, 100
7, 175104, Note_on_c, 5, 63, 0
7, 175104, Note_on_c, 5, 60, 0
7, 175104, Note_on_c, 5, 60, 100
7, 175104, Note_on_c, 5, 63, 100
7, 175200, Note_on_c, 5, 63, 0
7, 175200, Note_on_c, 5, 60, 0
7, 175200, Note_on_c, 5, 60, 100
7, 175200, Note_on_c, 5, 63, 100
7, 175296, Note_on_c, 5, 63, 0
7, 175296, Note_on_c, 5, 60, 0
7, 175296, Note_on_c, 5, 60, 100
7, 175296, Note_on_c, 5, 63, 100
7, 175392, Note_on_c, 5, 63, 0
7, 175392, Note_on_c, 5, 60, 0
7, 175392, Note_on_c, 5, 60, 100
7, 175392, Note_on_c, 5, 63, 100
7, 175488, Note_on_c, 5, 63, 0
7, 175488, Note_on_c, 5, 60, 0
7, 175488, Note_on_c, 5, 60, 100
7, 175488, Note_on_c, 5, 63, 100
7, 175584, Note_on_c, 5, 63, 0
7, 175584, Note_on_c, 5, 60, 0
7, 175584, Note_on_c, 5, 60, 100
7, 175584, Note_on_c, 5, 63, 100
7, 175680, Note_on_c, 5, 63, 0
7, 175680, Note_on_c, 5, 60, 0
7, 175680, Note_on_c, 5, 60, 100
7, 175680, Note_on_c, 5, 63, 100
7, 175776, Note_on_c, 5, 63, 0
7, 175776, Note_on_c, 5, 60, 0
7, 175776, Note_on_c, 5, 60, 100
7, 175776, Note_on_c, 5, 63, 100
7, 175872, Note_on_c, 5, 63, 0
7, 175872, Note_on_c, 5, 60, 0
7, 175872, Note_on_c, 5, 60, 100
7, 175872, Note_on_c, 5, 63, 100
7, 175968, Note_on_c, 5, 63, 0
7, 175968, Note_on_c, 5, 60, 0
7, 175968, Note_on_c, 5, 60, 100
7, 175968, Note_on_c, 5, 63, 100
7, 176064, Note_on_c, 5, 63, 0
7, 176064, Note_on_c, 5, 60, 0
7, 176064, Note_on_c, 5, 60, 100
7, 176064, Note_on_c, 5, 63, 100
7, 176160, Note_on_c, 5, 63, 0
7, 176160, Note_on_c, 5, 60, 0
7, 176160, Note_on_c, 5, 60, 100
7, 176160, Note_on_c, 5, 63, 100
7, 176256, Note_on_c, 5, 63, 0
7, 176256, Note_on_c, 5, 60, 0
7, 176256, Note_on_c, 5, 60, 100
7, 176256, Note_on_c, 5, 63, 100
7, 176352, Note_on_c, 5, 63, 0
7, 176352, Note_on_c, 5, 60, 0
7, 176352, Note_on_c, 5, 60, 100
7, 176352, Note_on_c, 5, 63, 100
7, 176448, Note_on_c, 5, 63, 0
7, 176448, Note_on_c, 5, 60, 0
7, 176448, Note_on_c, 5, 60, 100
7, 176448, Note_on_c, 5, 63, 100
7, 176544, Note_on_c, 5, 63, 0
7, 176544, Note_on_c, 5, 60, 0
7, 176544, Note_on_c, 5, 60, 100
7, 176544, Note_on_c, 5, 63, 100
7, 176640, Note_on_c, 5, 63, 0
7, 176640, Note_on_c, 5, 60, 0
7, 176640, Note_on_c, 5, 58, 100
7, 176640, Note_on_c, 5, 62, 100
7, 176736, Note_on_c, 5, 62, 0
7, 176736, Note_on_c, 5, 58, 0
7, 176736, Note_on_c, 5, 58, 100
7, 176736, Note_on_c, 5, 62, 100
7, 176832, Note_on_c, 5, 62, 0
7, 176832, Note_on_c, 5, 58, 0
7, 176832, Note_on_c, 5, 58, 100
7, 176832, Note_on_c, 5, 62, 100
7, 176928, Note_on_c, 5, 62, 0
7, 176928, Note_on_c, 5, 58, 0
7, 176928, Note_on_c, 5, 58, 100
7, 176928, Note_on_c, 5, 62, 100
7, 177024, Note_on_c, 5, 62, 0
7, 177024, Note_on_c, 5, 58, 0
7, 177024, Note_on_c, 5, 58, 100
7, 177024, Note_on_c, 5, 62, 100
7, 177120, Note_on_c, 5, 62, 0
7, 177120, Note_on_c, 5, 58, 0
7, 177120, Note_on_c, 5, 58, 100
7, 177120, Note_on_c, 5, 62, 100
7, 177216, Note_on_c, 5, 62, 0
7, 177216, Note_on_c, 5, 58, 0
7, 177216, Note_on_c, 5, 58, 100
7, 177216, Note_on_c, 5, 62, 100
7, 177312, Note_on_c, 5, 62, 0
7, 177312, Note_on_c, 5, 58, 0
7, 177312, Note_on_c, 5, 58, 100
7, 177312, Note_on_c, 5, 62, 100
7, 177408, Note_on_c, 5, 62, 0
7, 177408, Note_on_c, 5, 58, 0
7, 177408, Note_on_c, 5, 58, 100
7, 177408, Note_on_c, 5, 62, 100
7, 177504, Note_on_c, 5, 62, 0
7, 177504, Note_on_c, 5, 58, 0
7, 177504, Note_on_c, 5, 58, 100
7, 177504, Note_on_c, 5, 62, 100
7, 177600, Note_on_c, 5, 62, 0
7, 177600, Note_on_c, 5, 58, 0
7, 177600, Note_on_c, 5, 58, 100
7, 177600, Note_on_c, 5, 62, 100
7, 177696, Note_on_c, 5, 62, 0
7, 177696, Note_on_c, 5, 58, 0
7, 177696, Note_on_c, 5, 58, 100
7, 177696, Note_on_c, 5, 62, 100
7, 177792, Note_on_c, 5, 62, 0
7, 177792, Note_on_c, 5, 58, 0
7, 177792, Note_on_c, 5, 58, 100
7, 177792, Note_on_c, 5, 62, 100
7, 177888, Note_on_c, 5, 62, 0
7, 177888, Note_on_c, 5, 58, 0
7, 177888, Note_on_c, 5, 58, 100
7, 177888, Note_on_c, 5, 62, 100
7, 177984, Note_on_c, 5, 62, 0
7, 177984, Note_on_c, 5, 58, 0
7, 177984, Note_on_c, 5, 58, 100
7, 177984, Note_on_c, 5, 62, 100
7, 178080, Note_on_c, 5, 62, 0
7, 178080, Note_on_c, 5, 58, 0
7, 178080, Note_on_c, 5, 58, 100
7, 178080, Note_on_c, 5, 62, 100
7, 178176, Note_on_c, 5, 62, 0
7, 178176, Note_on_c, 5, 58, 0
7, 178176, Note_on_c, 5, 62, 100
7, 178176, Note_on_c, 5, 58, 100
7, 178272, Note_on_c, 5, 58, 0
7, 178272, Note_on_c, 5, 62, 0
7, 178272, Note_on_c, 5, 62, 100
7, 178272, Note_on_c, 5, 58, 100
7, 178368, Note_on_c, 5, 58, 0
7, 178368, Note_on_c, 5, 62, 0
7, 178368, Note_on_c, 5, 62, 100
7, 178368, Note_on_c, 5, 58, 100
7, 178464, Note_on_c, 5, 58, 0
7, 178464, Note_on_c, 5, 62, 0
7, 178464, Note_on_c, 5, 62, 100
7, 178464, Note_on_c, 5, 58, 100
7, 178560, Note_on_c, 5, 58, 0
7, 178560, Note_on_c, 5, 62, 0
7, 178560, Note_on_c, 5, 62, 100
7, 178560, Note_on_c, 5, 58, 100
7, 178656, Note_on_c, 5, 58, 0
7, 178656, Note_on_c, 5, 62, 0
7, 178656, Note_on_c, 5, 62, 100
7, 178656, Note_on_c, 5, 58, 100
7, 178752, Note_on_c, 5, 58, 0
7, 178752, Note_on_c, 5, 62, 0
7, 178752, Note_on_c, 5, 62, 100
7, 178752, Note_on_c, 5, 58, 100
7, 178848, Note_on_c, 5, 58, 0
7, 178848, Note_on_c, 5, 62, 0
7, 178848, Note_on_c, 5, 62, 100
7, 178848, Note_on_c, 5, 58, 100
7, 178944, Note_on_c, 5, 58, 0
7, 178944, Note_on_c, 5, 62, 0
7, 178944, Note_on_c, 5, 62, 100
7, 178944, Note_on_c, 5, 58, 100
7, 179040, Note_on_c, 5, 58, 0
7, 179040, Note_on_c, 5, 62, 0
7, 179040, Note_on_c, 5, 62, 100
7, 179040, Note_on_c, 5, 58, 100
7, 179136, Note_on_c, 5, 58, 0
7, 179136, Note_on_c, 5, 62, 0
7, 179136, Note_on_c, 5, 62, 100
7, 179136, Note_on_c, 5, 58, 100
7, 179232, Note_on_c, 5, 58, 0
7, 179232, Note_on_c, 5, 62, 0
7, 179232, Note_on_c, 5, 62, 100
7, 179232, Note_on_c, 5, 58, 100
7, 179328, Note_on_c, 5, 58, 0
7, 179328, Note_on_c, 5, 62, 0
7, 179328, Note_on_c, 5, 62, 100
7, 179328, Note_on_c, 5, 58, 100
7, 179424, Note_on_c, 5, 58, 0
7, 179424, Note_on_c, 5, 62, 0
7, 179424, Note_on_c, 5, 62, 100
7, 179424, Note_on_c, 5, 58, 100
7, 179520, Note_on_c, 5, 58, 0
7, 179520, Note_on_c, 5, 62, 0
7, 179520, Note_on_c, 5, 62, 100
7, 179520, Note_on_c, 5, 58, 100
7, 179616, Note_on_c, 5, 58, 0
7, 179616, Note_on_c, 5, 62, 0
7, 179616, Note_on_c, 5, 62, 100
7, 179616, Note_on_c, 5, 58, 100
7, 179712, Note_on_c, 5, 58, 0
7, 179712, Note_on_c, 5, 62, 0
7, 179712, Note_on_c, 5, 63, 100
7, 179712, Note_on_c, 5, 60, 100
7, 179808, Note_on_c, 5, 60, 0
7, 179808, Note_on_c, 5, 63, 0
7, 179808, Note_on_c, 5, 63, 100
7, 179808, Note_on_c, 5, 60, 100
7, 179904, Note_on_c, 5, 60, 0
7, 179904, Note_on_c, 5, 63, 0
7, 179904, Note_on_c, 5, 63, 100
7, 179904, Note_on_c, 5, 60, 100
7, 180000, Note_on_c, 5, 60, 0
7, 180000, Note_on_c, 5, 63, 0
7, 180000, Note_on_c, 5, 63, 100
7, 180000, Note_on_c, 5, 60, 100
7, 180096, Note_on_c, 5, 60, 0
7, 180096, Note_on_c, 5, 63, 0
7, 180096, Note_on_c, 5, 63, 100
7, 180096, Note_on_c, 5, 60, 100
7, 180192, Note_on_c, 5, 60, 0
7, 180192, Note_on_c, 5, 63, 0
7, 180192, Note_on_c, 5, 63, 100
7, 180192, Note_on_c, 5, 60, 100
7, 180288, Note_on_c, 5, 60, 0
7, 180288, Note_on_c, 5, 63, 0
7, 180288, Note_on_c, 5, 63, 100
7, 180288, Note_on_c, 5, 60, 100
7, 180384, Note_on_c, 5, 60, 0
7, 180384, Note_on_c, 5, 63, 0
7, 180384, Note_on_c, 5, 63, 100
7, 180384, Note_on_c, 5, 60, 100
7, 180480, Note_on_c, 5, 60, 0
7, 180480, Note_on_c, 5, 63, 0
7, 180480, Note_on_c, 5, 63, 100
7, 180480, Note_on_c, 5, 60, 100
7, 180576, Note_on_c, 5, 60, 0
7, 180576, Note_on_c, 5, 63, 0
7, 180576, Note_on_c, 5, 63, 100
7, 180576, Note_on_c, 5, 60, 100
7, 180672, Note_on_c, 5, 60, 0
7, 180672, Note_on_c, 5, 63, 0
7, 180672, Note_on_c, 5, 63, 100
7, 180672, Note_on_c, 5, 60, 100
7, 180768, Note_on_c, 5, 60, 0
7, 180768, Note_on_c, 5, 63, 0
7, 180768, Note_on_c, 5, 63, 100
7, 180768, Note_on_c, 5, 60, 100
7, 180864, Note_on_c, 5, 60, 0
7, 180864, Note_on_c, 5, 63, 0
7, 180864, Note_on_c, 5, 63, 100
7, 180864, Note_on_c, 5, 60, 100
7, 180960, Note_on_c, 5, 60, 0
7, 180960, Note_on_c, 5, 63, 0
7, 180960, Note_on_c, 5, 63, 100
7, 180960, Note_on_c, 5, 60, 100
7, 181056, Note_on_c, 5, 60, 0
7, 181056, Note_on_c, 5, 63, 0
7, 181056, Note_on_c, 5, 63, 100
7, 181056, Note_on_c, 5, 60, 100
7, 181152, Note_on_c, 5, 60, 0
7, 181152, Note_on_c, 5, 63, 0
7, 181152, Note_on_c, 5, 63, 100
7, 181152, Note_on_c, 5, 60, 100
7, 181248, Note_on_c, 5, 60, 0
7, 181248, Note_on_c, 5, 63, 0
7, 181248, Note_on_c, 5, 63, 100
7, 181248, Note_on_c, 5, 60, 100
7, 181344, Note_on_c, 5, 60, 0
7, 181344, Note_on_c, 5, 63, 0
7, 181344, Note_on_c, 5, 63, 100
7, 181344, Note_on_c, 5, 60, 100
7, 181440, Note_on_c, 5, 60, 0
7, 181440, Note_on_c, 5, 63, 0
7, 181440, Note_on_c, 5, 63, 100
7, 181440, Note_on_c, 5, 60, 100
7, 181536, Note_on_c, 5, 60, 0
7, 181536, Note_on_c, 5, 63, 0
7, 181536, Note_on_c, 5, 63, 100
7, 181536, Note_on_c, 5, 60, 100
7, 181632, Note_on_c, 5, 60, 0
7, 181632, Note_on_c, 5, 63, 0
7, 181632, Note_on_c, 5, 63, 100
7, 181632, Note_on_c, 5, 60, 100
7, 181728, Note_on_c, 5, 60, 0
7, 181728, Note_on_c, 5, 63, 0
7, 181728, Note_on_c, 5, 63, 100
7, 181728, Note_on_c, 5, 60, 100
7, 181824, Note_on_c, 5, 60, 0
7, 181824, Note_on_c, 5, 63, 0
7, 181824, Note_on_c, 5, 63, 100
7, 181824, Note_on_c, 5, 60, 100
7, 181920, Note_on_c, 5, 60, 0
7, 181920, Note_on_c, 5, 63, 0
7, 181920, Note_on_c, 5, 63, 100
7, 181920, Note_on_c, 5, 60, 100
7, 182016, Note_on_c, 5, 60, 0
7, 182016, Note_on_c, 5, 63, 0
7, 182016, Note_on_c, 5, 63, 100
7, 182016, Note_on_c, 5, 60, 100
7, 182112, Note_on_c, 5, 60, 0
7, 182112, Note_on_c, 5, 63, 0
7, 182112, Note_on_c, 5, 63, 100
7, 182112, Note_on_c, 5, 60, 100
7, 182208, Note_on_c, 5, 60, 0
7, 182208, Note_on_c, 5, 63, 0
7, 182208, Note_on_c, 5, 63, 100
7, 182208, Note_on_c, 5, 60, 100
7, 182304, Note_on_c, 5, 60, 0
7, 182304, Note_on_c, 5, 63, 0
7, 182304, Note_on_c, 5, 63, 100
7, 182304, Note_on_c, 5, 60, 100
7, 182400, Note_on_c, 5, 60, 0
7, 182400, Note_on_c, 5, 63, 0
7, 182400, Note_on_c, 5, 63, 100
7, 182400, Note_on_c, 5, 60, 100
7, 182496, Note_on_c, 5, 60, 0
7, 182496, Note_on_c, 5, 63, 0
7, 182496, Note_on_c, 5, 63, 100
7, 182496, Note_on_c, 5, 60, 100
7, 182592, Note_on_c, 5, 60, 0
7, 182592, Note_on_c, 5, 63, 0
7, 182592, Note_on_c, 5, 63, 100
7, 182592, Note_on_c, 5, 60, 100
7, 182688, Note_on_c, 5, 60, 0
7, 182688, Note_on_c, 5, 63, 0
7, 182688, Note_on_c, 5, 63, 100
7, 182688, Note_on_c, 5, 60, 100
7, 182784, Note_on_c, 5, 60, 0
7, 182784, Note_on_c, 5, 63, 0
7, 182784, Note_on_c, 5, 65, 120
7, 182848, Note_on_c, 5, 65, 0
7, 182848, Note_on_c, 5, 63, 120
7, 182912, Note_on_c, 5, 63, 0
7, 182912, Note_on_c, 5, 62, 120
7, 183108, Note_on_c, 5, 62, 0
7, 183168, Note_on_c, 5, 62, 120
7, 183300, Note_on_c, 5, 62, 0
7, 183360, Note_on_c, 5, 62, 120
7, 183492, Note_on_c, 5, 62, 0
7, 183552, Note_on_c, 5, 62, 120
7, 183820, Note_on_c, 5, 62, 0
7, 184320, Note_on_c, 5, 65, 120
7, 184384, Note_on_c, 5, 65, 0
7, 184384, Note_on_c, 5, 63, 120
7, 184448, Note_on_c, 5, 63, 0
7, 184448, Note_on_c, 5, 62, 120
7, 184644, Note_on_c, 5, 62, 0
7, 184704, Note_on_c, 5, 62, 120
7, 184836, Note_on_c, 5, 62, 0
7, 184896, Note_on_c, 5, 62, 120
7, 185028, Note_on_c, 5, 62, 0
7, 185088, Note_on_c, 5, 62, 120
7, 185356, Note_on_c, 5, 62, 0
7, 185856, Note_on_c, 5, 58, 120
7, 185920, Note_on_c, 5, 58, 0
7, 185920, Note_on_c, 5, 56, 120
7, 185984, Note_on_c, 5, 56, 0
7, 185984, Note_on_c, 5, 55, 120
7, 186180, Note_on_c, 5, 55, 0
7, 186240, Note_on_c, 5, 55, 120
7, 186372, Note_on_c, 5, 55, 0
7, 186432, Note_on_c, 5, 55, 120
7, 186564, Note_on_c, 5, 55, 0
7, 186624, Note_on_c, 5, 55, 120
7, 186892, Note_on_c, 5, 55, 0
7, 187392, Note_on_c, 5, 58, 120
7, 187456, Note_on_c, 5, 58, 0
7, 187456, Note_on_c, 5, 56, 120
7, 187520, Note_on_c, 5, 56, 0
7, 187520, Note_on_c, 5, 55, 120
7, 187716, Note_on_c, 5, 55, 0
7, 187776, Note_on_c, 5, 55, 120
7, 187908, Note_on_c, 5, 55, 0
7, 187968, Note_on_c, 5, 55, 120
7, 188100, Note_on_c, 5, 55, 0
7, 188160, Note_on_c, 5, 55, 120
7, 188428, Note_on_c, 5, 55, 0
7, 188928, Note_on_c, 5, 63, 120
7, 188992, Note_on_c, 5, 63, 0
7, 188992, Note_on_c, 5, 62, 120
7, 189056, Note_on_c, 5, 62, 0
7, 189056, Note_on_c, 5, 60, 120
7, 189252, Note_on_c, 5, 60, 0
7, 189312, Note_on_c, 5, 60, 120
7, 189444, Note_on_c, 5, 60, 0
7, 189504, Note_on_c, 5, 60, 120
7, 189636, Note_on_c, 5, 60, 0
7, 189696, Note_on_c, 5, 60, 120
7, 189964, Note_on_c, 5, 60, 0
7, 190464, Note_on_c, 5, 63, 120
7, 190528, Note_on_c, 5, 63, 0
7, 190528, Note_on_c, 5, 62, 120
7, 190592, Note_on_c, 5, 62, 0
7, 190592, Note_on_c, 5, 60, 120
7, 190788, Note_on_c, 5, 60, 0
7, 190848, Note_on_c, 5, 60, 120
7, 190980, Note_on_c, 5, 60, 0
7, 191040, Note_on_c, 5, 60, 120
7, 191172, Note_on_c, 5, 60, 0
7, 191232, Note_on_c, 5, 60, 120
7, 191500, Note_on_c, 5, 60, 0
7, 192000, Note_on_c, 5, 57, 120
7, 192064, Note_on_c, 5, 57, 0
7, 192064, Note_on_c, 5, 55, 120
7, 192128, Note_on_c, 5, 55, 0
7, 192128, Note_on_c, 5, 53, 120
7, 192324, Note_on_c, 5, 53, 0
7, 192384, Note_on_c, 5, 53, 120
7, 192516, Note_on_c, 5, 53, 0
7, 192576, Note_on_c, 5, 53, 120
7, 192708, Note_on_c, 5, 53, 0
7, 192768, Note_on_c, 5, 53, 120
7, 193036, Note_on_c, 5, 53, 0
7, 193536, Note_on_c, 5, 57, 120
7, 193600, Note_on_c, 5, 57, 0
7, 193600, Note_on_c, 5, 55, 120
7, 193664, Note_on_c, 5, 55, 0
7, 193664, Note_on_c, 5, 53, 120
7, 193860, Note_on_c, 5, 53, 0
7, 193920, Note_on_c, 5, 53, 120
7, 194052, Note_on_c, 5, 53, 0
7, 194112, Note_on_c, 5, 53, 120
7, 194244, Note_on_c, 5, 53, 0
7, 194304, Note_on_c, 5, 53, 120
7, 194572, Note_on_c, 5, 53, 0
7, 195072, Note_on_c, 5, 62, 120
7, 195136, Note_on_c, 5, 62, 0
7, 195136, Note_on_c, 5, 60, 120
7, 195200, Note_on_c, 5, 60, 0
7, 195200, Note_on_c, 5, 58, 120
7, 195396, Note_on_c, 5, 58, 0
7, 195456, Note_on_c, 5, 58, 120
7, 195588, Note_on_c, 5, 58, 0
7, 195648, Note_on_c, 5, 58, 120
7, 195780, Note_on_c, 5, 58, 0
7, 195840, Note_on_c, 5, 58, 120
7, 196108, Note_on_c, 5, 58, 0
7, 196608, Note_on_c, 5, 62, 120
7, 196672, Note_on_c, 5, 62, 0
7, 196672, Note_on_c, 5, 60, 120
7, 196736, Note_on_c, 5, 60, 0
7, 196736, Note_on_c, 5, 58, 120
7, 196932, Note_on_c, 5, 58, 0
7, 196992, Note_on_c, 5, 58, 120
7, 197124, Note_on_c, 5, 58, 0
7, 197184, Note_on_c, 5, 58, 120
7, 197316, Note_on_c, 5, 58, 0
7, 197376, Note_on_c, 5, 58, 120
7, 197644, Note_on_c, 5, 58, 0
7, 198144, Note_on_c, 5, 67, 120
7, 198208, Note_on_c, 5, 67, 0
7, 198208, Note_on_c, 5, 65, 120
7, 198272, Note_on_c, 5, 65, 0
7, 198272, Note_on_c, 5, 63, 120
7, 198468, Note_on_c, 5, 63, 0
7, 198528, Note_on_c, 5, 63, 120
7, 198660, Note_on_c, 5, 63, 0
7, 198720, Note_on_c, 5, 63, 120
7, 198852, Note_on_c, 5, 63, 0
7, 198912, Note_on_c, 5, 63, 120
7, 199180, Note_on_c, 5, 63, 0
7, 199680, Note_on_c, 5, 67, 120
7, 199744, Note_on_c, 5, 67, 0
7, 199744, Note_on_c, 5, 65, 120
7, 199808, Note_on_c, 5, 65, 0
7, 199808, Note_on_c, 5, 63, 120
7, 200004, Note_on_c, 5, 63, 0
7, 200064, Note_on_c, 5, 63, 120
7, 200196, Note_on_c, 5, 63, 0
7, 200256, Note_on_c, 5, 63, 120
7, 200388, Note_on_c, 5, 63, 0
7, 200448, Note_on_c, 5, 63, 120
7, 200716, Note_on_c, 5, 63, 0
7, 202752, Note_on_c, 5, 75, 120
7, 203020, Note_on_c, 5, 75, 0
7, 203136, Note_on_c, 5, 72, 120
7, 203404, Note_on_c, 5, 72, 0
7, 203520, Note_on_c, 5, 69, 120
7, 203788, Note_on_c, 5, 69, 0
7, 203904, Note_on_c, 5, 65, 120
7, 204172, Note_on_c, 5, 65, 0
7, 205824, Note_on_c, 5, 70, 120
7, 206092, Note_on_c, 5, 70, 0
7, 206208, Note_on_c, 5, 65, 120
7, 206476, Note_on_c, 5, 65, 0
7, 206592, Note_on_c, 5, 62, 120
7, 206860, Note_on_c, 5, 62, 0
7, 206976, Note_on_c, 5, 58, 120
7, 207244, Note_on_c, 5, 58, 0
7, 208896, Note_on_c, 5, 70, 120
7, 209164, Note_on_c, 5, 70, 0
7, 209280, Note_on_c, 5, 65, 120
7, 209548, Note_on_c, 5, 65, 0
7, 209664, Note_on_c, 5, 61, 120
7, 209932, Note_on_c, 5, 61, 0
7, 210048, Note_on_c, 5, 58, 120
7, 210316, Note_on_c, 5, 58, 0
7, 211968, Note_on_c, 5, 73, 120
7, 212236, Note_on_c, 5, 73, 0
7, 212352, Note_on_c, 5, 70, 120
7, 212620, Note_on_c, 5, 70, 0
7, 212736, Note_on_c, 5, 67, 120
7, 213004, Note_on_c, 5, 67, 0
7, 213120, Note_on_c, 5, 64, 120
7, 213388, Note_on_c, 5, 64, 0
7, 213504, Note_on_c, 5, 65, 115
7, 213888, Note_on_c, 5, 65, 0
7, 213888, Note_on_c, 5, 66, 115
7, 214272, Note_on_c, 5, 66, 0
7, 214272, Note_on_c, 5, 65, 115
7, 214656, Note_on_c, 5, 65, 0
7, 214656, Note_on_c, 5, 64, 115
7, 215040, Note_on_c, 5, 64, 0
7, 215040, Note_on_c, 5, 65, 115
7, 215288, Note_on_c, 5, 65, 0
7, 215424, Note_on_c, 5, 65, 92
7, 215616, Note_on_c, 5, 65, 0
7, 215808, Note_on_c, 5, 53, 92
7, 216056, Note_on_c, 5, 53, 0
7, 222720, Note_on_c, 5, 62, 80
7, 222968, Note_on_c, 5, 62, 0
7, 223104, Note_on_c, 5, 64, 80
7, 223352, Note_on_c, 5, 64, 0
7, 223488, Note_on_c, 5, 65, 80
7, 223736, Note_on_c, 5, 65, 0
7, 223872, Note_on_c, 5, 62, 80
7, 224120, Note_on_c, 5, 62, 0
7, 224256, Note_on_c, 5, 60, 80
7, 224504, Note_on_c, 5, 60, 0
7, 224640, Note_on_c, 5, 58, 80
7, 224888, Note_on_c, 5, 58, 0
7, 225024, Note_on_c, 5, 57, 80
7, 225272, Note_on_c, 5, 57, 0
7, 225408, Note_on_c, 5, 58, 80
7, 225656, Note_on_c, 5, 58, 0
7, 225792, Note_on_c, 5, 63, 80
7, 226040, Note_on_c, 5, 63, 0
7, 226176, Note_on_c, 5, 57, 80
7, 226424, Note_on_c, 5, 57, 0
7, 226560, Note_on_c, 5, 58, 80
7, 226808, Note_on_c, 5, 58, 0
7, 226944, Note_on_c, 5, 53, 80
7, 227192, Note_on_c, 5, 53, 0
7, 227328, Note_on_c, 5, 55, 80
7, 227520, Note_on_c, 5, 55, 0
7, 227520, Note_on_c, 5, 63, 80
7, 227672, Note_on_c, 5, 63, 0
7, 227712, Note_on_c, 5, 62, 80
7, 227864, Note_on_c, 5, 62, 0
7, 227904, Note_on_c, 5, 60, 80
7, 228056, Note_on_c, 5, 60, 0
7, 228096, Note_on_c, 5, 65, 100
7, 228248, Note_on_c, 5, 65, 0
7, 228288, Note_on_c, 5, 65, 100
7, 228592, Note_on_c, 5, 65, 0
7, 228672, Note_on_c, 5, 65, 100
7, 229016, Note_on_c, 5, 65, 0
7, 229056, Note_on_c, 5, 65, 100
7, 229360, Note_on_c, 5, 65, 0
7, 229440, Note_on_c, 5, 65, 100
7, 229744, Note_on_c, 5, 65, 0
7, 229824, Note_on_c, 5, 65, 100
7, 230128, Note_on_c, 5, 65, 0
7, 230208, Note_on_c, 5, 65, 100
7, 230552, Note_on_c, 5, 65, 0
7, 230592, Note_on_c, 5, 65, 100
7, 230896, Note_on_c, 5, 65, 0
7, 230976, Note_on_c, 5, 65, 100
7, 231280, Note_on_c, 5, 65, 0
7, 231360, Note_on_c, 5, 65, 100
7, 231664, Note_on_c, 5, 65, 0
7, 231744, Note_on_c, 5, 65, 100
7, 232088, Note_on_c, 5, 65, 0
7, 232128, Note_on_c, 5, 65, 80
7, 232432, Note_on_c, 5, 65, 0
7, 232512, Note_on_c, 5, 65, 80
7, 232816, Note_on_c, 5, 65, 0
7, 232896, Note_on_c, 5, 65, 80
7, 233200, Note_on_c, 5, 65, 0
7, 233280, Note_on_c, 5, 65, 80
7, 233664, Note_on_c, 5, 65, 0
7, 233664, Note_on_c, 5, 72, 120
7, 233816, Note_on_c, 5, 72, 0
7, 233856, Note_on_c, 5, 70, 120
7, 234008, Note_on_c, 5, 70, 0
7, 234048, Note_on_c, 5, 69, 120
7, 234200, Note_on_c, 5, 69, 0
7, 234240, Note_on_c, 5, 70, 120
7, 234488, Note_on_c, 5, 70, 0
7, 234624, Note_on_c, 5, 67, 120
7, 234872, Note_on_c, 5, 67, 0
7, 235008, Note_on_c, 5, 60, 120
7, 235256, Note_on_c, 5, 60, 0
7, 235392, Note_on_c, 5, 62, 120
7, 235640, Note_on_c, 5, 62, 0
7, 235776, Note_on_c, 5, 67, 120
7, 235968, Note_on_c, 5, 67, 0
7, 235968, Note_on_c, 5, 63, 120
7, 236120, Note_on_c, 5, 63, 0
7, 236160, Note_on_c, 5, 63, 120
7, 236312, Note_on_c, 5, 63, 0
7, 236352, Note_on_c, 5, 63, 120
7, 236504, Note_on_c, 5, 63, 0
7, 236544, Note_on_c, 5, 63, 120
7, 236736, Note_on_c, 5, 63, 0
7, 236736, Note_on_c, 5, 62, 120
7, 236888, Note_on_c, 5, 62, 0
7, 236928, Note_on_c, 5, 60, 120
7, 237080, Note_on_c, 5, 60, 0
7, 237120, Note_on_c, 5, 58, 120
7, 237272, Note_on_c, 5, 58, 0
7, 237312, Note_on_c, 5, 57, 120
7, 237504, Note_on_c, 5, 57, 0
7, 237504, Note_on_c, 5, 60, 120
7, 237656, Note_on_c, 5, 60, 0
7, 237696, Note_on_c, 5, 60, 120
7, 237848, Note_on_c, 5, 60, 0
7, 237888, Note_on_c, 5, 60, 120
7, 238040, Note_on_c, 5, 60, 0
7, 238080, Note_on_c, 5, 60, 120
7, 238272, Note_on_c, 5, 60, 0
7, 238272, Note_on_c, 5, 58, 120
7, 238424, Note_on_c, 5, 58, 0
7, 238464, Note_on_c, 5, 62, 120
7, 238616, Note_on_c, 5, 62, 0
7, 238656, Note_on_c, 5, 65, 120
7, 238808, Note_on_c, 5, 65, 0
7, 238848, Note_on_c, 5, 65, 120
7, 239040, Note_on_c, 5, 65, 0
7, 239040, Note_on_c, 5, 63, 120
7, 239192, Note_on_c, 5, 63, 0
7, 239232, Note_on_c, 5, 62, 120
7, 239384, Note_on_c, 5, 62, 0
7, 239424, Note_on_c, 5, 60, 120
7, 239576, Note_on_c, 5, 60, 0
7, 239616, Note_on_c, 5, 58, 120
7, 239960, Note_on_c, 5, 58, 0
7, 240576, Note_on_c, 5, 62, 96
7, 240700, Note_on_c, 5, 62, 0
7, 240768, Note_on_c, 5, 65, 96
7, 240892, Note_on_c, 5, 65, 0
7, 240960, Note_on_c, 5, 62, 96
7, 241084, Note_on_c, 5, 62, 0
7, 241152, Note_on_c, 5, 58, 120
7, 241496, Note_on_c, 5, 58, 0
7, 242112, Note_on_c, 5, 67, 96
7, 242236, Note_on_c, 5, 67, 0
7, 242304, Note_on_c, 5, 70, 96
7, 242428, Note_on_c, 5, 70, 0
7, 242496, Note_on_c, 5, 67, 96
7, 242620, Note_on_c, 5, 67, 0
7, 242688, Note_on_c, 5, 65, 120
7, 242956, Note_on_c, 5, 65, 0
7, 243072, Note_on_c, 5, 67, 120
7, 243340, Note_on_c, 5, 67, 0
7, 243456, Note_on_c, 5, 67, 120
7, 243724, Note_on_c, 5, 67, 0
7, 243840, Note_on_c, 5, 65, 120
7, 244108, Note_on_c, 5, 65, 0
7, 244224, Note_on_c, 5, 58, 96
7, 244992, Note_on_c, 5, 58, 0
7, 245376, Note_on_c, 5, 58, 96
7, 245472, Note_on_c, 5, 58, 0
7, 245472, Note_on_c, 5, 60, 96
7, 245568, Note_on_c, 5, 60, 0
7, 245568, Note_on_c, 5, 62, 96
7, 245664, Note_on_c, 5, 62, 0
7, 245664, Note_on_c, 5, 63, 96
7, 245760, Note_on_c, 5, 63, 0
7, 245760, Note_on_c, 5, 65, 96
7, 246528, Note_on_c, 5, 65, 0
7, 246912, Note_on_c, 5, 65, 96
7, 247008, Note_on_c, 5, 65, 0
7, 247008, Note_on_c, 5, 63, 96
7, 247104, Note_on_c, 5, 63, 0
7, 247104, Note_on_c, 5, 62, 96
7, 247200, Note_on_c, 5, 62, 0
7, 247200, Note_on_c, 5, 60, 96
7, 247296, Note_on_c, 5, 60, 0
7, 247296, Note_on_c, 5, 58, 96
7, 248064, Note_on_c, 5, 58, 0
7, 248448, Note_on_c, 5, 58, 96
7, 248544, Note_on_c, 5, 58, 0
7, 248544, Note_on_c, 5, 60, 96
7, 248640, Note_on_c, 5, 60, 0
7, 248640, Note_on_c, 5, 62, 96
7, 248736, Note_on_c, 5, 62, 0
7, 248736, Note_on_c, 5, 63, 96
7, 248832, Note_on_c, 5, 63, 0
7, 248832, Note_on_c, 5, 65, 96
7, 249600, Note_on_c, 5, 65, 0
7, 249984, Note_on_c, 5, 65, 96
7, 250080, Note_on_c, 5, 65, 0
7, 250080, Note_on_c, 5, 63, 96
7, 250176, Note_on_c, 5, 63, 0
7, 250176, Note_on_c, 5, 62, 96
7, 250272, Note_on_c, 5, 62, 0
7, 250272, Note_on_c, 5, 60, 96
7, 250368, Note_on_c, 5, 60, 0
7, 250368, Note_on_c, 5, 58, 120
7, 250672, Note_on_c, 5, 58, 0
7, 250752, Note_on_c, 5, 58, 120
7, 251136, Note_on_c, 5, 58, 0
7, 251136, Note_on_c, 5, 60, 120
7, 251520, Note_on_c, 5, 60, 0
7, 251520, Note_on_c, 5, 62, 120
7, 251904, Note_on_c, 5, 62, 0
7, 251904, Note_on_c, 5, 63, 120
7, 252288, Note_on_c, 5, 63, 0
7, 252288, Note_on_c, 5, 60, 120
7, 252672, Note_on_c, 5, 60, 0
7, 252672, Note_on_c, 5, 57, 120
7, 253056, Note_on_c, 5, 57, 0
7, 253056, Note_on_c, 5, 66, 120
7, 253440, Note_on_c, 5, 66, 0
7, 253440, Note_on_c, 5, 67, 120
7, 253728, Note_on_c, 5, 67, 0
7, 253824, Note_on_c, 5, 55, 120
7, 254208, Note_on_c, 5, 55, 0
7, 254208, Note_on_c, 5, 56, 120
7, 254592, Note_on_c, 5, 56, 0
7, 254592, Note_on_c, 5, 58, 120
7, 254976, Note_on_c, 5, 58, 0
7, 254976, Note_on_c, 5, 60, 120
7, 255360, Note_on_c, 5, 60, 0
7, 255360, Note_on_c, 5, 56, 120
7, 255744, Note_on_c, 5, 56, 0
7, 255744, Note_on_c, 5, 53, 120
7, 256128, Note_on_c, 5, 53, 0
7, 256128, Note_on_c, 5, 62, 120
7, 256512, Note_on_c, 5, 62, 0
7, 256512, Note_on_c, 5, 63, 120
7, 256800, Note_on_c, 5, 63, 0
7, 256896, Note_on_c, 5, 51, 120
7, 257280, Note_on_c, 5, 51, 0
7, 257280, Note_on_c, 5, 53, 120
7, 257664, Note_on_c, 5, 53, 0
7, 257664, Note_on_c, 5, 55, 120
7, 258048, Note_on_c, 5, 55, 0
7, 258048, Note_on_c, 5, 56, 120
7, 258432, Note_on_c, 5, 56, 0
7, 258432, Note_on_c, 5, 53, 120
7, 258816, Note_on_c, 5, 53, 0
7, 258816, Note_on_c, 5, 50, 120
7, 259200, Note_on_c, 5, 50, 0
7, 259200, Note_on_c, 5, 59, 120
7, 259584, Note_on_c, 5, 59, 0
7, 259584, Note_on_c, 5, 60, 120
7, 259736, Note_on_c, 5, 60, 0
7, 259776, Note_on_c, 5, 63, 120
7, 259928, Note_on_c, 5, 63, 0
7, 259968, Note_on_c, 5, 63, 120
7, 260120, Note_on_c, 5, 63, 0
7, 260160, Note_on_c, 5, 63, 120
7, 260312, Note_on_c, 5, 63, 0
7, 260352, Note_on_c, 5, 63, 120
7, 260504, Note_on_c, 5, 63, 0
7, 260544, Note_on_c, 5, 63, 120
7, 260696, Note_on_c, 5, 63, 0
7, 260736, Note_on_c, 5, 63, 120
7, 260888, Note_on_c, 5, 63, 0
7, 260928, Note_on_c, 5, 63, 120
7, 261080, Note_on_c, 5, 63, 0
7, 261120, Note_on_c, 5, 63, 120
7, 261272, Note_on_c, 5, 63, 0
7, 261312, Note_on_c, 5, 63, 120
7, 261464, Note_on_c, 5, 63, 0
7, 261504, Note_on_c, 5, 63, 120
7, 261656, Note_on_c, 5, 63, 0
7, 261696, Note_on_c, 5, 63, 120
7, 261848, Note_on_c, 5, 63, 0
7, 261888, Note_on_c, 5, 63, 120
7, 262040, Note_on_c, 5, 63, 0
7, 262080, Note_on_c, 5, 63, 120
7, 262232, Note_on_c, 5, 63, 0
7, 262272, Note_on_c, 5, 63, 120
7, 262424, Note_on_c, 5, 63, 0
7, 262464, Note_on_c, 5, 63, 120
7, 262616, Note_on_c, 5, 63, 0
7, 262656, Note_on_c, 5, 66, 120
7, 262808, Note_on_c, 5, 66, 0
7, 262848, Note_on_c, 5, 66, 120
7, 263000, Note_on_c, 5, 66, 0
7, 263040, Note_on_c, 5, 66, 120
7, 263192, Note_on_c, 5, 66, 0
7, 263232, Note_on_c, 5, 66, 120
7, 263384, Note_on_c, 5, 66, 0
7, 263424, Note_on_c, 5, 66, 120
7, 263576, Note_on_c, 5, 66, 0
7, 263616, Note_on_c, 5, 66, 120
7, 263768, Note_on_c, 5, 66, 0
7, 263808, Note_on_c, 5, 66, 120
7, 263960, Note_on_c, 5, 66, 0
7, 264000, Note_on_c, 5, 66, 120
7, 264152, Note_on_c, 5, 66, 0
7, 264192, Note_on_c, 5, 66, 120
7, 264344, Note_on_c, 5, 66, 0
7, 264384, Note_on_c, 5, 66, 120
7, 264536, Note_on_c, 5, 66, 0
7, 264576, Note_on_c, 5, 66, 120
7, 264728, Note_on_c, 5, 66, 0
7, 264768, Note_on_c, 5, 66, 120
7, 264920, Note_on_c, 5, 66, 0
7, 264960, Note_on_c, 5, 66, 120
7, 265112, Note_on_c, 5, 66, 0
7, 265152, Note_on_c, 5, 66, 120
7, 265304, Note_on_c, 5, 66, 0
7, 265344, Note_on_c, 5, 66, 120
7, 265496, Note_on_c, 5, 66, 0
7, 265536, Note_on_c, 5, 66, 120
7, 265688, Note_on_c, 5, 66, 0
7, 265728, Note_on_c, 5, 67, 120
7, 265880, Note_on_c, 5, 67, 0
7, 265920, Note_on_c, 5, 67, 120
7, 266072, Note_on_c, 5, 67, 0
7, 266112, Note_on_c, 5, 67, 120
7, 266264, Note_on_c, 5, 67, 0
7, 266304, Note_on_c, 5, 67, 120
7, 266456, Note_on_c, 5, 67, 0
7, 266496, Note_on_c, 5, 70, 120
7, 266648, Note_on_c, 5, 70, 0
7, 266688, Note_on_c, 5, 70, 120
7, 266840, Note_on_c, 5, 70, 0
7, 266880, Note_on_c, 5, 70, 120
7, 267032, Note_on_c, 5, 70, 0
7, 267072, Note_on_c, 5, 70, 120
7, 267224, Note_on_c, 5, 70, 0
7, 267264, Note_on_c, 5, 67, 120
7, 267416, Note_on_c, 5, 67, 0
7, 267456, Note_on_c, 5, 67, 120
7, 267608, Note_on_c, 5, 67, 0
7, 267648, Note_on_c, 5, 67, 120
7, 267800, Note_on_c, 5, 67, 0
7, 267840, Note_on_c, 5, 67, 120
7, 267992, Note_on_c, 5, 67, 0
7, 268032, Note_on_c, 5, 67, 120
7, 268184, Note_on_c, 5, 67, 0
7, 268224, Note_on_c, 5, 67, 120
7, 268376, Note_on_c, 5, 67, 0
7, 268416, Note_on_c, 5, 67, 120
7, 268568, Note_on_c, 5, 67, 0
7, 268608, Note_on_c, 5, 67, 120
7, 268760, Note_on_c, 5, 67, 0
7, 268800, Note_on_c, 5, 64, 120
7, 268952, Note_on_c, 5, 64, 0
7, 268992, Note_on_c, 5, 64, 120
7, 269144, Note_on_c, 5, 64, 0
7, 269184, Note_on_c, 5, 64, 120
7, 269336, Note_on_c, 5, 64, 0
7, 269376, Note_on_c, 5, 64, 120
7, 269528, Note_on_c, 5, 64, 0
7, 269568, Note_on_c, 5, 64, 120
7, 269720, Note_on_c, 5, 64, 0
7, 269760, Note_on_c, 5, 64, 120
7, 269912, Note_on_c, 5, 64, 0
7, 269952, Note_on_c, 5, 64, 120
7, 270104, Note_on_c, 5, 64, 0
7, 270144, Note_on_c, 5, 64, 120
7, 270296, Note_on_c, 5, 64, 0
7, 270336, Note_on_c, 5, 64, 120
7, 270488, Note_on_c, 5, 64, 0
7, 270528, Note_on_c, 5, 64, 120
7, 270680, Note_on_c, 5, 64, 0
7, 270720, Note_on_c, 5, 64, 120
7, 270872, Note_on_c, 5, 64, 0
7, 270912, Note_on_c, 5, 64, 120
7, 271064, Note_on_c, 5, 64, 0
7, 271104, Note_on_c, 5, 64, 120
7, 271256, Note_on_c, 5, 64, 0
7, 271296, Note_on_c, 5, 64, 120
7, 271448, Note_on_c, 5, 64, 0
7, 271488, Note_on_c, 5, 64, 120
7, 271640, Note_on_c, 5, 64, 0
7, 271680, Note_on_c, 5, 64, 120
7, 271832, Note_on_c, 5, 64, 0
7, 271872, Note_on_c, 5, 62, 120
7, 272024, Note_on_c, 5, 62, 0
7, 272064, Note_on_c, 5, 65, 120
7, 272216, Note_on_c, 5, 65, 0
7, 272256, Note_on_c, 5, 65, 120
7, 272408, Note_on_c, 5, 65, 0
7, 272448, Note_on_c, 5, 65, 120
7, 272600, Note_on_c, 5, 65, 0
7, 272640, Note_on_c, 5, 65, 120
7, 272792, Note_on_c, 5, 65, 0
7, 272832, Note_on_c, 5, 65, 120
7, 272984, Note_on_c, 5, 65, 0
7, 273024, Note_on_c, 5, 65, 120
7, 273176, Note_on_c, 5, 65, 0
7, 273216, Note_on_c, 5, 65, 120
7, 273368, Note_on_c, 5, 65, 0
7, 273408, Note_on_c, 5, 65, 120
7, 273560, Note_on_c, 5, 65, 0
7, 273600, Note_on_c, 5, 65, 120
7, 273752, Note_on_c, 5, 65, 0
7, 273792, Note_on_c, 5, 65, 120
7, 273944, Note_on_c, 5, 65, 0
7, 273984, Note_on_c, 5, 65, 120
7, 274136, Note_on_c, 5, 65, 0
7, 274176, Note_on_c, 5, 65, 120
7, 274328, Note_on_c, 5, 65, 0
7, 274368, Note_on_c, 5, 65, 120
7, 274520, Note_on_c, 5, 65, 0
7, 274560, Note_on_c, 5, 62, 120
7, 274712, Note_on_c, 5, 62, 0
7, 274752, Note_on_c, 5, 62, 120
7, 274904, Note_on_c, 5, 62, 0
7, 274944, Note_on_c, 5, 61, 120
7, 274944, Note_on_c, 5, 64, 120
7, 275248, Note_on_c, 5, 64, 0
7, 275248, Note_on_c, 5, 61, 0
7, 276480, Note_on_c, 5, 57, 51
7, 276864, Note_on_c, 5, 57, 0
7, 278016, Note_on_c, 5, 57, 41
7, 278400, Note_on_c, 5, 57, 0
7, 279552, Note_on_c, 5, 57, 41
7, 279936, Note_on_c, 5, 57, 0
7, 281088, Note_on_c, 5, 57, 41
7, 281392, Note_on_c, 5, 57, 0
7, 281472, Note_on_c, 5, 69, 120
7, 281856, Note_on_c, 5, 69, 0
7, 281856, Note_on_c, 5, 70, 120
7, 282240, Note_on_c, 5, 70, 0
7, 282240, Note_on_c, 5, 68, 120
7, 282624, Note_on_c, 5, 68, 0
7, 282624, Note_on_c, 5, 69, 120
7, 283008, Note_on_c, 5, 69, 0
7, 283008, Note_on_c, 5, 67, 115
7, 283392, Note_on_c, 5, 67, 0
7, 283392, Note_on_c, 5, 65, 110
7, 283776, Note_on_c, 5, 65, 0
7, 283776, Note_on_c, 5, 64, 105
7, 284160, Note_on_c, 5, 64, 0
7, 284160, Note_on_c, 5, 62, 100
7, 284464, Note_on_c, 5, 62, 0
7, 285696, Note_on_c, 5, 62, 51
7, 286080, Note_on_c, 5, 62, 0
7, 287232, Note_on_c, 5, 62, 41
7, 287616, Note_on_c, 5, 62, 0
7, 288768, Note_on_c, 5, 62, 41
7, 289152, Note_on_c, 5, 62, 0
7, 290304, Note_on_c, 5, 62, 80
7, 290608, Note_on_c, 5, 62, 0
7, 290688, Note_on_c, 5, 62, 80
7, 291072, Note_on_c, 5, 62, 0
7, 291072, Note_on_c, 5, 63, 80
7, 291456, Note_on_c, 5, 63, 0
7, 291456, Note_on_c, 5, 61, 80
7, 291840, Note_on_c, 5, 61, 0
7, 291840, Note_on_c, 5, 62, 80
7, 292224, Note_on_c, 5, 62, 0
7, 292224, Note_on_c, 5, 60, 80
7, 292608, Note_on_c, 5, 60, 0
7, 292608, Note_on_c, 5, 58, 80
7, 292992, Note_on_c, 5, 58, 0
7, 292992, Note_on_c, 5, 57, 80
7, 293376, Note_on_c, 5, 57, 0
7, 293376, Note_on_c, 5, 55, 120
7, 294144, Note_on_c, 5, 55, 0
7, 294336, Note_on_c, 5, 67, 120
7, 294488, Note_on_c, 5, 67, 0
7, 294528, Note_on_c, 5, 67, 120
7, 294720, Note_on_c, 5, 67, 0
7, 294720, Note_on_c, 5, 66, 120
7, 294912, Note_on_c, 5, 66, 0
7, 294912, Note_on_c, 5, 66, 120
7, 295680, Note_on_c, 5, 66, 0
7, 295872, Note_on_c, 5, 65, 120
7, 296024, Note_on_c, 5, 65, 0
7, 296064, Note_on_c, 5, 65, 120
7, 296256, Note_on_c, 5, 65, 0
7, 296256, Note_on_c, 5, 64, 120
7, 296448, Note_on_c, 5, 64, 0
7, 296448, Note_on_c, 5, 64, 120
7, 297216, Note_on_c, 5, 64, 0
7, 297408, Note_on_c, 5, 63, 120
7, 297560, Note_on_c, 5, 63, 0
7, 297600, Note_on_c, 5, 63, 120
7, 297792, Note_on_c, 5, 63, 0
7, 297792, Note_on_c, 5, 62, 120
7, 297984, Note_on_c, 5, 62, 0
7, 297984, Note_on_c, 5, 62, 120
7, 298752, Note_on_c, 5, 62, 0
7, 298944, Note_on_c, 5, 63, 120
7, 299096, Note_on_c, 5, 63, 0
7, 299136, Note_on_c, 5, 63, 120
7, 299328, Note_on_c, 5, 63, 0
7, 299328, Note_on_c, 5, 62, 120
7, 299520, Note_on_c, 5, 62, 0
7, 299520, Note_on_c, 5, 62, 120
7, 300288, Note_on_c, 5, 62, 0
7, 300480, Note_on_c, 5, 72, 120
7, 300632, Note_on_c, 5, 72, 0
7, 300672, Note_on_c, 5, 72, 120
7, 300864, Note_on_c, 5, 72, 0
7, 300864, Note_on_c, 5, 70, 120
7, 301056, Note_on_c, 5, 70, 0
7, 301056, Note_on_c, 5, 69, 120
7, 301824, Note_on_c, 5, 69, 0
7, 302016, Note_on_c, 5, 60, 96
7, 302168, Note_on_c, 5, 60, 0
7, 302208, Note_on_c, 5, 60, 96
7, 302400, Note_on_c, 5, 60, 0
7, 302400, Note_on_c, 5, 58, 96
7, 302592, Note_on_c, 5, 58, 0
7, 302592, Note_on_c, 5, 57, 96
7, 303360, Note_on_c, 5, 57, 0
7, 305664, Note_on_c, 5, 67, 120
7, 305816, Note_on_c, 5, 67, 0
7, 305856, Note_on_c, 5, 67, 120
7, 306160, Note_on_c, 5, 67, 0
7, 306240, Note_on_c, 5, 67, 120
7, 306544, Note_on_c, 5, 67, 0
7, 306624, Note_on_c, 5, 67, 120
7, 306928, Note_on_c, 5, 67, 0
7, 307008, Note_on_c, 5, 67, 120
7, 307160, Note_on_c, 5, 67, 0
7, 307200, Note_on_c, 5, 62, 120
7, 307352, Note_on_c, 5, 62, 0
7, 307392, Note_on_c, 5, 62, 120
7, 307696, Note_on_c, 5, 62, 0
7, 307776, Note_on_c, 5, 62, 120
7, 308080, Note_on_c, 5, 62, 0
7, 308160, Note_on_c, 5, 62, 120
7, 308464, Note_on_c, 5, 62, 0
7, 308544, Note_on_c, 5, 62, 120
7, 308696, Note_on_c, 5, 62, 0
7, 308736, Note_on_c, 5, 63, 120
7, 308888, Note_on_c, 5, 63, 0
7, 308928, Note_on_c, 5, 63, 120
7, 309232, Note_on_c, 5, 63, 0
7, 309312, Note_on_c, 5, 63, 120
7, 309616, Note_on_c, 5, 63, 0
7, 309696, Note_on_c, 5, 63, 120
7, 310000, Note_on_c, 5, 63, 0
7, 310080, Note_on_c, 5, 63, 120
7, 310232, Note_on_c, 5, 63, 0
7, 310272, Note_on_c, 5, 54, 120
7, 310424, Note_on_c, 5, 54, 0
7, 310464, Note_on_c, 5, 54, 120
7, 310768, Note_on_c, 5, 54, 0
7, 310848, Note_on_c, 5, 54, 120
7, 311152, Note_on_c, 5, 54, 0
7, 311232, Note_on_c, 5, 54, 120
7, 311536, Note_on_c, 5, 54, 0
7, 311616, Note_on_c, 5, 54, 120
7, 311768, Note_on_c, 5, 54, 0
7, 311808, Note_on_c, 5, 55, 120
7, 312112, Note_on_c, 5, 55, 0
7, 312576, Note_on_c, 5, 70, 120
7, 312672, Note_on_c, 5, 70, 0
7, 312672, Note_on_c, 5, 69, 120
7, 312768, Note_on_c, 5, 69, 0
7, 312768, Note_on_c, 5, 67, 120
7, 312864, Note_on_c, 5, 67, 0
7, 312864, Note_on_c, 5, 66, 120
7, 312960, Note_on_c, 5, 66, 0
7, 312960, Note_on_c, 5, 67, 120
7, 313264, Note_on_c, 5, 67, 0
7, 314112, Note_on_c, 5, 70, 120
7, 314208, Note_on_c, 5, 70, 0
7, 314208, Note_on_c, 5, 69, 120
7, 314304, Note_on_c, 5, 69, 0
7, 314304, Note_on_c, 5, 67, 120
7, 314400, Note_on_c, 5, 67, 0
7, 314400, Note_on_c, 5, 66, 120
7, 314496, Note_on_c, 5, 66, 0
7, 314496, Note_on_c, 5, 67, 120
7, 314800, Note_on_c, 5, 67, 0
7, 315648, Note_on_c, 5, 72, 120
7, 315744, Note_on_c, 5, 72, 0
7, 315744, Note_on_c, 5, 70, 120
7, 315840, Note_on_c, 5, 70, 0
7, 315840, Note_on_c, 5, 69, 120
7, 315936, Note_on_c, 5, 69, 0
7, 315936, Note_on_c, 5, 67, 120
7, 316032, Note_on_c, 5, 67, 0
7, 316032, Note_on_c, 5, 69, 120
7, 316336, Note_on_c, 5, 69, 0
7, 317184, Note_on_c, 5, 72, 120
7, 317280, Note_on_c, 5, 72, 0
7, 317280, Note_on_c, 5, 70, 120
7, 317376, Note_on_c, 5, 70, 0
7, 317376, Note_on_c, 5, 69, 120
7, 317472, Note_on_c, 5, 69, 0
7, 317472, Note_on_c, 5, 67, 120
7, 317548, Note_on_c, 5, 67, 0
7, 317568, Note_on_c, 5, 69, 120
7, 317872, Note_on_c, 5, 69, 0
7, 318720, Note_on_c, 5, 74, 120
7, 318816, Note_on_c, 5, 74, 0
7, 318816, Note_on_c, 5, 72, 120
7, 318912, Note_on_c, 5, 72, 0
7, 318912, Note_on_c, 5, 70, 120
7, 319008, Note_on_c, 5, 70, 0
7, 319008, Note_on_c, 5, 69, 120
7, 319104, Note_on_c, 5, 69, 0
7, 319104, Note_on_c, 5, 70, 120
7, 319296, Note_on_c, 5, 70, 0
7, 319488, Note_on_c, 5, 70, 120
7, 319584, Note_on_c, 5, 70, 0
7, 319584, Note_on_c, 5, 69, 120
7, 319680, Note_on_c, 5, 69, 0
7, 319680, Note_on_c, 5, 67, 120
7, 319776, Note_on_c, 5, 67, 0
7, 319776, Note_on_c, 5, 66, 120
7, 319872, Note_on_c, 5, 66, 0
7, 319872, Note_on_c, 5, 67, 120
7, 320064, Note_on_c, 5, 67, 0
7, 320256, Note_on_c, 5, 67, 120
7, 320352, Note_on_c, 5, 67, 0
7, 320352, Note_on_c, 5, 65, 120
7, 320448, Note_on_c, 5, 65, 0
7, 320448, Note_on_c, 5, 63, 120
7, 320544, Note_on_c, 5, 63, 0
7, 320544, Note_on_c, 5, 62, 120
7, 320640, Note_on_c, 5, 62, 0
7, 320640, Note_on_c, 5, 63, 120
7, 320736, Note_on_c, 5, 63, 0
7, 320736, Note_on_c, 5, 62, 120
7, 320832, Note_on_c, 5, 62, 0
7, 320832, Note_on_c, 5, 60, 120
7, 320928, Note_on_c, 5, 60, 0
7, 320928, Note_on_c, 5, 58, 120
7, 321024, Note_on_c, 5, 58, 0
7, 321024, Note_on_c, 5, 60, 120
7, 321292, Note_on_c, 5, 60, 0
7, 321408, Note_on_c, 5, 58, 120
7, 321676, Note_on_c, 5, 58, 0
7, 321792, Note_on_c, 5, 57, 120
7, 322060, Note_on_c, 5, 57, 0
7, 322176, Note_on_c, 5, 55, 120
7, 322444, Note_on_c, 5, 55, 0
7, 322560, Note_on_c, 5, 54, 120
7, 322828, Note_on_c, 5, 54, 0
7, 322944, Note_on_c, 5, 62, 96
7, 323212, Note_on_c, 5, 62, 0
7, 324096, Note_on_c, 5, 70, 120
7, 324248, Note_on_c, 5, 70, 0
7, 324288, Note_on_c, 5, 70, 120
7, 324592, Note_on_c, 5, 70, 0
7, 324672, Note_on_c, 5, 70, 120
7, 324976, Note_on_c, 5, 70, 0
7, 325056, Note_on_c, 5, 70, 120
7, 325360, Note_on_c, 5, 70, 0
7, 325440, Note_on_c, 5, 70, 120
7, 325592, Note_on_c, 5, 70, 0
7, 325632, Note_on_c, 5, 58, 100
7, 325784, Note_on_c, 5, 58, 0
7, 325824, Note_on_c, 5, 58, 100
7, 326128, Note_on_c, 5, 58, 0
7, 326208, Note_on_c, 5, 58, 100
7, 326512, Note_on_c, 5, 58, 0
7, 326592, Note_on_c, 5, 58, 100
7, 326896, Note_on_c, 5, 58, 0
7, 326976, Note_on_c, 5, 58, 100
7, 327128, Note_on_c, 5, 58, 0
7, 327168, Note_on_c, 5, 67, 120
7, 327320, Note_on_c, 5, 67, 0
7, 327360, Note_on_c, 5, 67, 120
7, 327664, Note_on_c, 5, 67, 0
7, 327744, Note_on_c, 5, 67, 120
7, 328048, Note_on_c, 5, 67, 0
7, 328128, Note_on_c, 5, 67, 120
7, 328432, Note_on_c, 5, 67, 0
7, 328512, Note_on_c, 5, 67, 120
7, 328664, Note_on_c, 5, 67, 0
7, 328704, Note_on_c, 5, 62, 100
7, 328704, Note_on_c, 5, 57, 100
7, 328856, Note_on_c, 5, 57, 0
7, 328856, Note_on_c, 5, 62, 0
7, 328896, Note_on_c, 5, 62, 100
7, 328896, Note_on_c, 5, 57, 100
7, 329200, Note_on_c, 5, 57, 0
7, 329200, Note_on_c, 5, 62, 0
7, 329280, Note_on_c, 5, 62, 100
7, 329280, Note_on_c, 5, 57, 100
7, 329584, Note_on_c, 5, 57, 0
7, 329584, Note_on_c, 5, 62, 0
7, 329664, Note_on_c, 5, 62, 100
7, 329664, Note_on_c, 5, 57, 100
7, 329968, Note_on_c, 5, 57, 0
7, 329968, Note_on_c, 5, 62, 0
7, 330048, Note_on_c, 5, 62, 100
7, 330048, Note_on_c, 5, 57, 100
7, 330200, Note_on_c, 5, 57, 0
7, 330200, Note_on_c, 5, 62, 0
7, 330240, Note_on_c, 5, 62, 120
7, 330240, Note_on_c, 5, 58, 120
7, 330508, Note_on_c, 5, 58, 0
7, 330508, Note_on_c, 5, 62, 0
7, 331776, Note_on_c, 5, 55, 64
7, 332080, Note_on_c, 5, 55, 0
7, 333312, Note_on_c, 5, 55, 64
7, 333616, Note_on_c, 5, 55, 0
7, 334848, Note_on_c, 5, 55, 64
7, 335152, Note_on_c, 5, 55, 0
7, 336384, Note_on_c, 5, 55, 64
7, 336688, Note_on_c, 5, 55, 0
7, 337920, Note_on_c, 5, 55, 64
7, 338224, Note_on_c, 5, 55, 0
7, 339456, Note_on_c, 5, 51, 64
7, 339760, Note_on_c, 5, 51, 0
7, 340992, Note_on_c, 5, 63, 64
7, 341296, Note_on_c, 5, 63, 0
7, 342528, Note_on_c, 5, 62, 51
7, 342832, Note_on_c, 5, 62, 0
7, 344064, Note_on_c, 5, 62, 51
7, 344368, Note_on_c, 5, 62, 0
7, 345600, Note_on_c, 5, 62, 51
7, 345904, Note_on_c, 5, 62, 0
7, 346368, Note_on_c, 5, 62, 41
7, 346672, Note_on_c, 5, 62, 0
7, 347136, Note_on_c, 5, 62, 33
7, 347440, Note_on_c, 5, 62, 0
7, 348672, Note_on_c, 5, 55, 100
7, 348672, Note_on_c, 5, 58, 100
7, 348768, Note_on_c, 5, 58, 0
7, 348768, Note_on_c, 5, 55, 0
7, 348768, Note_on_c, 5, 55, 100
7, 348768, Note_on_c, 5, 58, 100
7, 348864, Note_on_c, 5, 58, 0
7, 348864, Note_on_c, 5, 55, 0
7, 348864, Note_on_c, 5, 55, 100
7, 348864, Note_on_c, 5, 58, 100
7, 348960, Note_on_c, 5, 58, 0
7, 348960, Note_on_c, 5, 55, 0
7, 348960, Note_on_c, 5, 55, 100
7, 348960, Note_on_c, 5, 58, 100
7, 349056, Note_on_c, 5, 58, 0
7, 349056, Note_on_c, 5, 55, 0
7, 349056, Note_on_c, 5, 55, 100
7, 349056, Note_on_c, 5, 58, 100
7, 349152, Note_on_c, 5, 58, 0
7, 349152, Note_on_c, 5, 55, 0
7, 349152, Note_on_c, 5, 55, 100
7, 349152, Note_on_c, 5, 58, 100
7, 349248, Note_on_c, 5, 58, 0
7, 349248, Note_on_c, 5, 55, 0
7, 349248, Note_on_c, 5, 55, 100
7, 349248, Note_on_c, 5, 58, 100
7, 349344, Note_on_c, 5, 58, 0
7, 349344, Note_on_c, 5, 55, 0
7, 349344, Note_on_c, 5, 55, 100
7, 349344, Note_on_c, 5, 58, 100
7, 349440, Note_on_c, 5, 58, 0
7, 349440, Note_on_c, 5, 55, 0
7, 349440, Note_on_c, 5, 55, 100
7, 349440, Note_on_c, 5, 58, 100
7, 349536, Note_on_c, 5, 58, 0
7, 349536, Note_on_c, 5, 55, 0
7, 349536, Note_on_c, 5, 55, 100
7, 349536, Note_on_c, 5, 58, 100
7, 349632, Note_on_c, 5, 58, 0
7, 349632, Note_on_c, 5, 55, 0
7, 349632, Note_on_c, 5, 55, 100
7, 349632, Note_on_c, 5, 58, 100
7, 349728, Note_on_c, 5, 58, 0
7, 349728, Note_on_c, 5, 55, 0
7, 349728, Note_on_c, 5, 55, 100
7, 349728, Note_on_c, 5, 58, 100
7, 349824, Note_on_c, 5, 58, 0
7, 349824, Note_on_c, 5, 55, 0
7, 349824, Note_on_c, 5, 55, 100
7, 349824, Note_on_c, 5, 55, 100
7, 349824, Note_on_c, 5, 58, 100
7, 349920, Note_on_c, 5, 58, 0
7, 349920, Note_on_c, 5, 55, 0
7, 349920, Note_on_c, 5, 55, 0
7, 349920, Note_on_c, 5, 55, 100
7, 349920, Note_on_c, 5, 58, 100
7, 350016, Note_on_c, 5, 58, 0
7, 350016, Note_on_c, 5, 55, 0
7, 350016, Note_on_c, 5, 55, 100
7, 350016, Note_on_c, 5, 55, 100
7, 350016, Note_on_c, 5, 58, 100
7, 350112, Note_on_c, 5, 58, 0
7, 350112, Note_on_c, 5, 55, 0
7, 350112, Note_on_c, 5, 55, 0
7, 350112, Note_on_c, 5, 55, 100
7, 350112, Note_on_c, 5, 55, 100
7, 350112, Note_on_c, 5, 58, 100
7, 350208, Note_on_c, 5, 58, 0
7, 350208, Note_on_c, 5, 55, 0
7, 350208, Note_on_c, 5, 55, 0
7, 350208, Note_on_c, 5, 58, 100
7, 350208, Note_on_c, 5, 55, 100
7, 350304, Note_on_c, 5, 55, 0
7, 350304, Note_on_c, 5, 58, 0
7, 350304, Note_on_c, 5, 58, 100
7, 350304, Note_on_c, 5, 55, 100
7, 350400, Note_on_c, 5, 55, 0
7, 350400, Note_on_c, 5, 58, 0
7, 350400, Note_on_c, 5, 58, 100
7, 350400, Note_on_c, 5, 55, 100
7, 350496, Note_on_c, 5, 55, 0
7, 350496, Note_on_c, 5, 58, 0
7, 350496, Note_on_c, 5, 58, 100
7, 350496, Note_on_c, 5, 55, 100
7, 350592, Note_on_c, 5, 55, 0
7, 350592, Note_on_c, 5, 58, 0
7, 350592, Note_on_c, 5, 58, 100
7, 350592, Note_on_c, 5, 55, 100
7, 350688, Note_on_c, 5, 55, 0
7, 350688, Note_on_c, 5, 58, 0
7, 350688, Note_on_c, 5, 58, 100
7, 350688, Note_on_c, 5, 55, 100
7, 350784, Note_on_c, 5, 55, 0
7, 350784, Note_on_c, 5, 58, 0
7, 350784, Note_on_c, 5, 58, 100
7, 350784, Note_on_c, 5, 55, 100
7, 350880, Note_on_c, 5, 55, 0
7, 350880, Note_on_c, 5, 58, 0
7, 350880, Note_on_c, 5, 58, 100
7, 350880, Note_on_c, 5, 55, 100
7, 350976, Note_on_c, 5, 55, 0
7, 350976, Note_on_c, 5, 58, 0
7, 350976, Note_on_c, 5, 58, 100
7, 350976, Note_on_c, 5, 55, 100
7, 351072, Note_on_c, 5, 55, 0
7, 351072, Note_on_c, 5, 58, 0
7, 351072, Note_on_c, 5, 58, 100
7, 351072, Note_on_c, 5, 55, 100
7, 351168, Note_on_c, 5, 55, 0
7, 351168, Note_on_c, 5, 58, 0
7, 351168, Note_on_c, 5, 58, 100
7, 351168, Note_on_c, 5, 55, 100
7, 351264, Note_on_c, 5, 55, 0
7, 351264, Note_on_c, 5, 58, 0
7, 351264, Note_on_c, 5, 58, 100
7, 351264, Note_on_c, 5, 55, 100
7, 351360, Note_on_c, 5, 55, 0
7, 351360, Note_on_c, 5, 58, 0
7, 351360, Note_on_c, 5, 58, 100
7, 351360, Note_on_c, 5, 55, 100
7, 351360, Note_on_c, 5, 55, 100
7, 351456, Note_on_c, 5, 55, 0
7, 351456, Note_on_c, 5, 55, 0
7, 351456, Note_on_c, 5, 58, 0
7, 351456, Note_on_c, 5, 58, 100
7, 351456, Note_on_c, 5, 55, 100
7, 351552, Note_on_c, 5, 55, 0
7, 351552, Note_on_c, 5, 58, 0
7, 351552, Note_on_c, 5, 58, 100
7, 351552, Note_on_c, 5, 55, 100
7, 351552, Note_on_c, 5, 55, 100
7, 351648, Note_on_c, 5, 55, 0
7, 351648, Note_on_c, 5, 55, 0
7, 351648, Note_on_c, 5, 58, 0
7, 351648, Note_on_c, 5, 58, 100
7, 351648, Note_on_c, 5, 55, 100
7, 351648, Note_on_c, 5, 55, 100
7, 351744, Note_on_c, 5, 55, 0
7, 351744, Note_on_c, 5, 55, 0
7, 351744, Note_on_c, 5, 58, 0
7, 351744, Note_on_c, 5, 57, 100
7, 351744, Note_on_c, 5, 60, 100
7, 351840, Note_on_c, 5, 60, 0
7, 351840, Note_on_c, 5, 57, 0
7, 351840, Note_on_c, 5, 57, 100
7, 351840, Note_on_c, 5, 60, 100
7, 351936, Note_on_c, 5, 60, 0
7, 351936, Note_on_c, 5, 57, 0
7, 351936, Note_on_c, 5, 57, 100
7, 351936, Note_on_c, 5, 60, 100
7, 352032, Note_on_c, 5, 60, 0
7, 352032, Note_on_c, 5, 57, 0
7, 352032, Note_on_c, 5, 57, 100
7, 352032, Note_on_c, 5, 60, 100
7, 352128, Note_on_c, 5, 60, 0
7, 352128, Note_on_c, 5, 57, 0
7, 352128, Note_on_c, 5, 57, 100
7, 352128, Note_on_c, 5, 60, 100
7, 352224, Note_on_c, 5, 60, 0
7, 352224, Note_on_c, 5, 57, 0
7, 352224, Note_on_c, 5, 57, 100
7, 352224, Note_on_c, 5, 60, 100
7, 352320, Note_on_c, 5, 60, 0
7, 352320, Note_on_c, 5, 57, 0
7, 352320, Note_on_c, 5, 57, 100
7, 352320, Note_on_c, 5, 60, 100
7, 352416, Note_on_c, 5, 60, 0
7, 352416, Note_on_c, 5, 57, 0
7, 352416, Note_on_c, 5, 57, 100
7, 352416, Note_on_c, 5, 60, 100
7, 352512, Note_on_c, 5, 60, 0
7, 352512, Note_on_c, 5, 57, 0
7, 352512, Note_on_c, 5, 57, 100
7, 352512, Note_on_c, 5, 60, 100
7, 352608, Note_on_c, 5, 60, 0
7, 352608, Note_on_c, 5, 57, 0
7, 352608, Note_on_c, 5, 57, 100
7, 352608, Note_on_c, 5, 60, 100
7, 352704, Note_on_c, 5, 60, 0
7, 352704, Note_on_c, 5, 57, 0
7, 352704, Note_on_c, 5, 57, 100
7, 352704, Note_on_c, 5, 60, 100
7, 352800, Note_on_c, 5, 60, 0
7, 352800, Note_on_c, 5, 57, 0
7, 352800, Note_on_c, 5, 57, 100
7, 352800, Note_on_c, 5, 60, 100
7, 352896, Note_on_c, 5, 60, 0
7, 352896, Note_on_c, 5, 57, 0
7, 352896, Note_on_c, 5, 57, 100
7, 352896, Note_on_c, 5, 57, 100
7, 352896, Note_on_c, 5, 60, 100
7, 352992, Note_on_c, 5, 60, 0
7, 352992, Note_on_c, 5, 57, 0
7, 352992, Note_on_c, 5, 57, 0
7, 352992, Note_on_c, 5, 57, 100
7, 352992, Note_on_c, 5, 60, 100
7, 353088, Note_on_c, 5, 60, 0
7, 353088, Note_on_c, 5, 57, 0
7, 353088, Note_on_c, 5, 57, 100
7, 353088, Note_on_c, 5, 57, 100
7, 353088, Note_on_c, 5, 60, 100
7, 353184, Note_on_c, 5, 60, 0
7, 353184, Note_on_c, 5, 57, 0
7, 353184, Note_on_c, 5, 57, 0
7, 353184, Note_on_c, 5, 57, 100
7, 353184, Note_on_c, 5, 57, 100
7, 353184, Note_on_c, 5, 60, 100
7, 353280, Note_on_c, 5, 60, 0
7, 353280, Note_on_c, 5, 57, 0
7, 353280, Note_on_c, 5, 57, 0
7, 353280, Note_on_c, 5, 62, 100
7, 353280, Note_on_c, 5, 57, 100
7, 353376, Note_on_c, 5, 57, 0
7, 353376, Note_on_c, 5, 62, 0
7, 353376, Note_on_c, 5, 62, 100
7, 353376, Note_on_c, 5, 57, 100
7, 353472, Note_on_c, 5, 57, 0
7, 353472, Note_on_c, 5, 62, 0
7, 353472, Note_on_c, 5, 62, 100
7, 353472, Note_on_c, 5, 57, 100
7, 353568, Note_on_c, 5, 57, 0
7, 353568, Note_on_c, 5, 62, 0
7, 353568, Note_on_c, 5, 62, 100
7, 353568, Note_on_c, 5, 57, 100
7, 353664, Note_on_c, 5, 57, 0
7, 353664, Note_on_c, 5, 62, 0
7, 353664, Note_on_c, 5, 62, 100
7, 353664, Note_on_c, 5, 57, 100
7, 353760, Note_on_c, 5, 57, 0
7, 353760, Note_on_c, 5, 62, 0
7, 353760, Note_on_c, 5, 62, 100
7, 353760, Note_on_c, 5, 57, 100
7, 353856, Note_on_c, 5, 57, 0
7, 353856, Note_on_c, 5, 62, 0
7, 353856, Note_on_c, 5, 62, 100
7, 353856, Note_on_c, 5, 57, 100
7, 353952, Note_on_c, 5, 57, 0
7, 353952, Note_on_c, 5, 62, 0
7, 353952, Note_on_c, 5, 62, 100
7, 353952, Note_on_c, 5, 57, 100
7, 354048, Note_on_c, 5, 57, 0
7, 354048, Note_on_c, 5, 62, 0
7, 354048, Note_on_c, 5, 62, 100
7, 354048, Note_on_c, 5, 57, 100
7, 354144, Note_on_c, 5, 57, 0
7, 354144, Note_on_c, 5, 62, 0
7, 354144, Note_on_c, 5, 62, 100
7, 354144, Note_on_c, 5, 57, 100
7, 354240, Note_on_c, 5, 57, 0
7, 354240, Note_on_c, 5, 62, 0
7, 354240, Note_on_c, 5, 62, 100
7, 354240, Note_on_c, 5, 57, 100
7, 354336, Note_on_c, 5, 57, 0
7, 354336, Note_on_c, 5, 62, 0
7, 354336, Note_on_c, 5, 62, 100
7, 354336, Note_on_c, 5, 57, 100
7, 354432, Note_on_c, 5, 57, 0
7, 354432, Note_on_c, 5, 62, 0
7, 354432, Note_on_c, 5, 62, 100
7, 354432, Note_on_c, 5, 57, 100
7, 354432, Note_on_c, 5, 57, 100
7, 354528, Note_on_c, 5, 57, 0
7, 354528, Note_on_c, 5, 57, 0
7, 354528, Note_on_c, 5, 62, 0
7, 354528, Note_on_c, 5, 62, 100
7, 354528, Note_on_c, 5, 57, 100
7, 354624, Note_on_c, 5, 57, 0
7, 354624, Note_on_c, 5, 62, 0
7, 354624, Note_on_c, 5, 62, 100
7, 354624, Note_on_c, 5, 57, 100
7, 354624, Note_on_c, 5, 57, 100
7, 354720, Note_on_c, 5, 57, 0
7, 354720, Note_on_c, 5, 57, 0
7, 354720, Note_on_c, 5, 62, 0
7, 354720, Note_on_c, 5, 62, 100
7, 354720, Note_on_c, 5, 57, 100
7, 354720, Note_on_c, 5, 57, 100
7, 354816, Note_on_c, 5, 57, 0
7, 354816, Note_on_c, 5, 57, 0
7, 354816, Note_on_c, 5, 62, 0
7, 354816, Note_on_c, 5, 62, 100
7, 354816, Note_on_c, 5, 58, 100
7, 354912, Note_on_c, 5, 58, 0
7, 354912, Note_on_c, 5, 62, 0
7, 354912, Note_on_c, 5, 62, 100
7, 354912, Note_on_c, 5, 58, 100
7, 355008, Note_on_c, 5, 58, 0
7, 355008, Note_on_c, 5, 62, 0
7, 355008, Note_on_c, 5, 62, 100
7, 355008, Note_on_c, 5, 58, 100
7, 355104, Note_on_c, 5, 58, 0
7, 355104, Note_on_c, 5, 62, 0
7, 355104, Note_on_c, 5, 62, 100
7, 355104, Note_on_c, 5, 58, 100
7, 355200, Note_on_c, 5, 58, 0
7, 355200, Note_on_c, 5, 62, 0
7, 355200, Note_on_c, 5, 62, 100
7, 355200, Note_on_c, 5, 58, 100
7, 355296, Note_on_c, 5, 58, 0
7, 355296, Note_on_c, 5, 62, 0
7, 355296, Note_on_c, 5, 62, 100
7, 355296, Note_on_c, 5, 58, 100
7, 355392, Note_on_c, 5, 58, 0
7, 355392, Note_on_c, 5, 62, 0
7, 355392, Note_on_c, 5, 62, 100
7, 355392, Note_on_c, 5, 58, 100
7, 355488, Note_on_c, 5, 58, 0
7, 355488, Note_on_c, 5, 62, 0
7, 355488, Note_on_c, 5, 62, 100
7, 355488, Note_on_c, 5, 58, 100
7, 355584, Note_on_c, 5, 58, 0
7, 355584, Note_on_c, 5, 62, 0
7, 355584, Note_on_c, 5, 62, 100
7, 355584, Note_on_c, 5, 55, 100
7, 355680, Note_on_c, 5, 55, 0
7, 355680, Note_on_c, 5, 62, 0
7, 355680, Note_on_c, 5, 62, 100
7, 355680, Note_on_c, 5, 55, 100
7, 355776, Note_on_c, 5, 55, 0
7, 355776, Note_on_c, 5, 62, 0
7, 355776, Note_on_c, 5, 62, 100
7, 355776, Note_on_c, 5, 55, 100
7, 355872, Note_on_c, 5, 55, 0
7, 355872, Note_on_c, 5, 62, 0
7, 355872, Note_on_c, 5, 62, 100
7, 355872, Note_on_c, 5, 55, 100
7, 355968, Note_on_c, 5, 55, 0
7, 355968, Note_on_c, 5, 62, 0
7, 355968, Note_on_c, 5, 62, 100
7, 355968, Note_on_c, 5, 55, 100
7, 355968, Note_on_c, 5, 55, 100
7, 356064, Note_on_c, 5, 55, 0
7, 356064, Note_on_c, 5, 55, 0
7, 356064, Note_on_c, 5, 62, 0
7, 356064, Note_on_c, 5, 62, 100
7, 356064, Note_on_c, 5, 55, 100
7, 356160, Note_on_c, 5, 55, 0
7, 356160, Note_on_c, 5, 62, 0
7, 356160, Note_on_c, 5, 62, 100
7, 356160, Note_on_c, 5, 55, 100
7, 356160, Note_on_c, 5, 55, 100
7, 356256, Note_on_c, 5, 55, 0
7, 356256, Note_on_c, 5, 55, 0
7, 356256, Note_on_c, 5, 62, 0
7, 356256, Note_on_c, 5, 62, 100
7, 356256, Note_on_c, 5, 55, 100
7, 356256, Note_on_c, 5, 55, 100
7, 356352, Note_on_c, 5, 55, 0
7, 356352, Note_on_c, 5, 55, 0
7, 356352, Note_on_c, 5, 62, 0
7, 356352, Note_on_c, 5, 55, 100
7, 356352, Note_on_c, 5, 58, 100
7, 356448, Note_on_c, 5, 58, 0
7, 356448, Note_on_c, 5, 55, 0
7, 356448, Note_on_c, 5, 55, 100
7, 356448, Note_on_c, 5, 58, 100
7, 356544, Note_on_c, 5, 58, 0
7, 356544, Note_on_c, 5, 55, 0
7, 356544, Note_on_c, 5, 55, 100
7, 356544, Note_on_c, 5, 58, 100
7, 356640, Note_on_c, 5, 58, 0
7, 356640, Note_on_c, 5, 55, 0
7, 356640, Note_on_c, 5, 55, 100
7, 356640, Note_on_c, 5, 58, 100
7, 356736, Note_on_c, 5, 58, 0
7, 356736, Note_on_c, 5, 55, 0
7, 356736, Note_on_c, 5, 55, 100
7, 356736, Note_on_c, 5, 58, 100
7, 356832, Note_on_c, 5, 58, 0
7, 356832, Note_on_c, 5, 55, 0
7, 356832, Note_on_c, 5, 55, 100
7, 356832, Note_on_c, 5, 58, 100
7, 356928, Note_on_c, 5, 58, 0
7, 356928, Note_on_c, 5, 55, 0
7, 356928, Note_on_c, 5, 55, 100
7, 356928, Note_on_c, 5, 58, 100
7, 357024, Note_on_c, 5, 58, 0
7, 357024, Note_on_c, 5, 55, 0
7, 357024, Note_on_c, 5, 55, 100
7, 357024, Note_on_c, 5, 58, 100
7, 357120, Note_on_c, 5, 58, 0
7, 357120, Note_on_c, 5, 55, 0
7, 357120, Note_on_c, 5, 55, 100
7, 357120, Note_on_c, 5, 58, 100
7, 357216, Note_on_c, 5, 58, 0
7, 357216, Note_on_c, 5, 55, 0
7, 357216, Note_on_c, 5, 55, 100
7, 357216, Note_on_c, 5, 58, 100
7, 357312, Note_on_c, 5, 58, 0
7, 357312, Note_on_c, 5, 55, 0
7, 357312, Note_on_c, 5, 55, 100
7, 357312, Note_on_c, 5, 58, 100
7, 357408, Note_on_c, 5, 58, 0
7, 357408, Note_on_c, 5, 55, 0
7, 357408, Note_on_c, 5, 55, 100
7, 357408, Note_on_c, 5, 58, 100
7, 357504, Note_on_c, 5, 58, 0
7, 357504, Note_on_c, 5, 55, 0
7, 357504, Note_on_c, 5, 55, 100
7, 357504, Note_on_c, 5, 55, 100
7, 357504, Note_on_c, 5, 58, 100
7, 357600, Note_on_c, 5, 58, 0
7, 357600, Note_on_c, 5, 55, 0
7, 357600, Note_on_c, 5, 55, 0
7, 357600, Note_on_c, 5, 55, 100
7, 357600, Note_on_c, 5, 58, 100
7, 357696, Note_on_c, 5, 58, 0
7, 357696, Note_on_c, 5, 55, 0
7, 357696, Note_on_c, 5, 55, 100
7, 357696, Note_on_c, 5, 55, 100
7, 357696, Note_on_c, 5, 58, 100
7, 357792, Note_on_c, 5, 58, 0
7, 357792, Note_on_c, 5, 55, 0
7, 357792, Note_on_c, 5, 55, 0
7, 357792, Note_on_c, 5, 55, 100
7, 357792, Note_on_c, 5, 55, 100
7, 357792, Note_on_c, 5, 58, 100
7, 357888, Note_on_c, 5, 58, 0
7, 357888, Note_on_c, 5, 55, 0
7, 357888, Note_on_c, 5, 55, 0
7, 357888, Note_on_c, 5, 60, 100
7, 357888, Note_on_c, 5, 57, 100
7, 357984, Note_on_c, 5, 57, 0
7, 357984, Note_on_c, 5, 60, 0
7, 357984, Note_on_c, 5, 60, 100
7, 357984, Note_on_c, 5, 57, 100
7, 358080, Note_on_c, 5, 57, 0
7, 358080, Note_on_c, 5, 60, 0
7, 358080, Note_on_c, 5, 60, 100
7, 358080, Note_on_c, 5, 57, 100
7, 358176, Note_on_c, 5, 57, 0
7, 358176, Note_on_c, 5, 60, 0
7, 358176, Note_on_c, 5, 60, 100
7, 358176, Note_on_c, 5, 57, 100
7, 358272, Note_on_c, 5, 57, 0
7, 358272, Note_on_c, 5, 60, 0
7, 358272, Note_on_c, 5, 60, 100
7, 358272, Note_on_c, 5, 57, 100
7, 358368, Note_on_c, 5, 57, 0
7, 358368, Note_on_c, 5, 60, 0
7, 358368, Note_on_c, 5, 60, 100
7, 358368, Note_on_c, 5, 57, 100
7, 358464, Note_on_c, 5, 57, 0
7, 358464, Note_on_c, 5, 60, 0
7, 358464, Note_on_c, 5, 60, 100
7, 358464, Note_on_c, 5, 57, 100
7, 358560, Note_on_c, 5, 57, 0
7, 358560, Note_on_c, 5, 60, 0
7, 358560, Note_on_c, 5, 60, 100
7, 358560, Note_on_c, 5, 57, 100
7, 358656, Note_on_c, 5, 57, 0
7, 358656, Note_on_c, 5, 60, 0
7, 358656, Note_on_c, 5, 60, 100
7, 358656, Note_on_c, 5, 57, 100
7, 358752, Note_on_c, 5, 57, 0
7, 358752, Note_on_c, 5, 60, 0
7, 358752, Note_on_c, 5, 60, 100
7, 358752, Note_on_c, 5, 57, 100
7, 358848, Note_on_c, 5, 57, 0
7, 358848, Note_on_c, 5, 60, 0
7, 358848, Note_on_c, 5, 60, 100
7, 358848, Note_on_c, 5, 57, 100
7, 358944, Note_on_c, 5, 57, 0
7, 358944, Note_on_c, 5, 60, 0
7, 358944, Note_on_c, 5, 60, 100
7, 358944, Note_on_c, 5, 57, 100
7, 359040, Note_on_c, 5, 57, 0
7, 359040, Note_on_c, 5, 60, 0
7, 359040, Note_on_c, 5, 60, 100
7, 359040, Note_on_c, 5, 57, 100
7, 359040, Note_on_c, 5, 57, 100
7, 359136, Note_on_c, 5, 57, 0
7, 359136, Note_on_c, 5, 57, 0
7, 359136, Note_on_c, 5, 60, 0
7, 359136, Note_on_c, 5, 60, 100
7, 359136, Note_on_c, 5, 57, 100
7, 359232, Note_on_c, 5, 57, 0
7, 359232, Note_on_c, 5, 60, 0
7, 359232, Note_on_c, 5, 60, 100
7, 359232, Note_on_c, 5, 57, 100
7, 359232, Note_on_c, 5, 57, 100
7, 359328, Note_on_c, 5, 57, 0
7, 359328, Note_on_c, 5, 57, 0
7, 359328, Note_on_c, 5, 60, 0
7, 359328, Note_on_c, 5, 60, 100
7, 359328, Note_on_c, 5, 57, 100
7, 359328, Note_on_c, 5, 57, 100
7, 359424, Note_on_c, 5, 57, 0
7, 359424, Note_on_c, 5, 57, 0
7, 359424, Note_on_c, 5, 60, 0
7, 359424, Note_on_c, 5, 57, 100
7, 359424, Note_on_c, 5, 62, 100
7, 359520, Note_on_c, 5, 62, 0
7, 359520, Note_on_c, 5, 57, 0
7, 359520, Note_on_c, 5, 57, 100
7, 359520, Note_on_c, 5, 62, 100
7, 359616, Note_on_c, 5, 62, 0
7, 359616, Note_on_c, 5, 57, 0
7, 359616, Note_on_c, 5, 57, 100
7, 359616, Note_on_c, 5, 62, 100
7, 359712, Note_on_c, 5, 62, 0
7, 359712, Note_on_c, 5, 57, 0
7, 359712, Note_on_c, 5, 57, 100
7, 359712, Note_on_c, 5, 62, 100
7, 359808, Note_on_c, 5, 62, 0
7, 359808, Note_on_c, 5, 57, 0
7, 359808, Note_on_c, 5, 57, 100
7, 359808, Note_on_c, 5, 62, 100
7, 359904, Note_on_c, 5, 62, 0
7, 359904, Note_on_c, 5, 57, 0
7, 359904, Note_on_c, 5, 57, 100
7, 359904, Note_on_c, 5, 62, 100
7, 360000, Note_on_c, 5, 62, 0
7, 360000, Note_on_c, 5, 57, 0
7, 360000, Note_on_c, 5, 57, 100
7, 360000, Note_on_c, 5, 62, 100
7, 360096, Note_on_c, 5, 62, 0
7, 360096, Note_on_c, 5, 57, 0
7, 360096, Note_on_c, 5, 57, 100
7, 360096, Note_on_c, 5, 62, 100
7, 360192, Note_on_c, 5, 62, 0
7, 360192, Note_on_c, 5, 57, 0
7, 360192, Note_on_c, 5, 57, 100
7, 360192, Note_on_c, 5, 62, 100
7, 360288, Note_on_c, 5, 62, 0
7, 360288, Note_on_c, 5, 57, 0
7, 360288, Note_on_c, 5, 57, 100
7, 360288, Note_on_c, 5, 62, 100
7, 360384, Note_on_c, 5, 62, 0
7, 360384, Note_on_c, 5, 57, 0
7, 360384, Note_on_c, 5, 57, 100
7, 360384, Note_on_c, 5, 62, 100
7, 360480, Note_on_c, 5, 62, 0
7, 360480, Note_on_c, 5, 57, 0
7, 360480, Note_on_c, 5, 57, 100
7, 360480, Note_on_c, 5, 62, 100
7, 360576, Note_on_c, 5, 62, 0
7, 360576, Note_on_c, 5, 57, 0
7, 360576, Note_on_c, 5, 57, 100
7, 360576, Note_on_c, 5, 57, 100
7, 360576, Note_on_c, 5, 62, 100
7, 360672, Note_on_c, 5, 62, 0
7, 360672, Note_on_c, 5, 57, 0
7, 360672, Note_on_c, 5, 57, 0
7, 360672, Note_on_c, 5, 57, 100
7, 360672, Note_on_c, 5, 62, 100
7, 360768, Note_on_c, 5, 62, 0
7, 360768, Note_on_c, 5, 57, 0
7, 360768, Note_on_c, 5, 57, 100
7, 360768, Note_on_c, 5, 57, 100
7, 360768, Note_on_c, 5, 62, 100
7, 360864, Note_on_c, 5, 62, 0
7, 360864, Note_on_c, 5, 57, 0
7, 360864, Note_on_c, 5, 57, 0
7, 360864, Note_on_c, 5, 57, 100
7, 360864, Note_on_c, 5, 57, 100
7, 360864, Note_on_c, 5, 62, 100
7, 360960, Note_on_c, 5, 62, 0
7, 360960, Note_on_c, 5, 57, 0
7, 360960, Note_on_c, 5, 57, 0
7, 360960, Note_on_c, 5, 62, 120
7, 361024, Note_on_c, 5, 62, 0
7, 361024, Note_on_c, 5, 60, 120
7, 361088, Note_on_c, 5, 60, 0
7, 361088, Note_on_c, 5, 58, 120
7, 361304, Note_on_c, 5, 58, 0
7, 361344, Note_on_c, 5, 58, 120
7, 361468, Note_on_c, 5, 58, 0
7, 361536, Note_on_c, 5, 58, 120
7, 361660, Note_on_c, 5, 58, 0
7, 361728, Note_on_c, 5, 58, 120
7, 361976, Note_on_c, 5, 58, 0
7, 362496, Note_on_c, 5, 62, 120
7, 362560, Note_on_c, 5, 62, 0
7, 362560, Note_on_c, 5, 60, 120
7, 362624, Note_on_c, 5, 60, 0
7, 362624, Note_on_c, 5, 58, 120
7, 362840, Note_on_c, 5, 58, 0
7, 362880, Note_on_c, 5, 58, 120
7, 363004, Note_on_c, 5, 58, 0
7, 363072, Note_on_c, 5, 58, 120
7, 363196, Note_on_c, 5, 58, 0
7, 363264, Note_on_c, 5, 58, 120
7, 363512, Note_on_c, 5, 58, 0
7, 364032, Note_on_c, 5, 67, 120
7, 364096, Note_on_c, 5, 67, 0
7, 364096, Note_on_c, 5, 65, 120
7, 364160, Note_on_c, 5, 65, 0
7, 364160, Note_on_c, 5, 63, 120
7, 364376, Note_on_c, 5, 63, 0
7, 364416, Note_on_c, 5, 63, 120
7, 364540, Note_on_c, 5, 63, 0
7, 364608, Note_on_c, 5, 63, 120
7, 364732, Note_on_c, 5, 63, 0
7, 364800, Note_on_c, 5, 63, 120
7, 365048, Note_on_c, 5, 63, 0
7, 365568, Note_on_c, 5, 67, 120
7, 365632, Note_on_c, 5, 67, 0
7, 365632, Note_on_c, 5, 65, 120
7, 365696, Note_on_c, 5, 65, 0
7, 365696, Note_on_c, 5, 63, 120
7, 365912, Note_on_c, 5, 63, 0
7, 365952, Note_on_c, 5, 63, 120
7, 366076, Note_on_c, 5, 63, 0
7, 366144, Note_on_c, 5, 63, 120
7, 366268, Note_on_c, 5, 63, 0
7, 366336, Note_on_c, 5, 63, 120
7, 366584, Note_on_c, 5, 63, 0
7, 367104, Note_on_c, 5, 60, 120
7, 367168, Note_on_c, 5, 60, 0
7, 367168, Note_on_c, 5, 58, 120
7, 367232, Note_on_c, 5, 58, 0
7, 367232, Note_on_c, 5, 57, 120
7, 367448, Note_on_c, 5, 57, 0
7, 367488, Note_on_c, 5, 57, 120
7, 367612, Note_on_c, 5, 57, 0
7, 367680, Note_on_c, 5, 57, 120
7, 367804, Note_on_c, 5, 57, 0
7, 367872, Note_on_c, 5, 57, 120
7, 368120, Note_on_c, 5, 57, 0
7, 368640, Note_on_c, 5, 60, 120
7, 368704, Note_on_c, 5, 60, 0
7, 368704, Note_on_c, 5, 58, 120
7, 368768, Note_on_c, 5, 58, 0
7, 368768, Note_on_c, 5, 57, 120
7, 368984, Note_on_c, 5, 57, 0
7, 369024, Note_on_c, 5, 57, 120
7, 369148, Note_on_c, 5, 57, 0
7, 369216, Note_on_c, 5, 57, 120
7, 369340, Note_on_c, 5, 57, 0
7, 369408, Note_on_c, 5, 57, 120
7, 369656, Note_on_c, 5, 57, 0
7, 370176, Note_on_c, 5, 65, 120
7, 370240, Note_on_c, 5, 65, 0
7, 370240, Note_on_c, 5, 63, 120
7, 370304, Note_on_c, 5, 63, 0
7, 370304, Note_on_c, 5, 62, 120
7, 370520, Note_on_c, 5, 62, 0
7, 370560, Note_on_c, 5, 62, 120
7, 370684, Note_on_c, 5, 62, 0
7, 370752, Note_on_c, 5, 62, 120
7, 370876, Note_on_c, 5, 62, 0
7, 370944, Note_on_c, 5, 62, 120
7, 371192, Note_on_c, 5, 62, 0
7, 371712, Note_on_c, 5, 65, 120
7, 371776, Note_on_c, 5, 65, 0
7, 371776, Note_on_c, 5, 63, 120
7, 371840, Note_on_c, 5, 63, 0
7, 371840, Note_on_c, 5, 62, 120
7, 372056, Note_on_c, 5, 62, 0
7, 372096, Note_on_c, 5, 62, 120
7, 372220, Note_on_c, 5, 62, 0
7, 372288, Note_on_c, 5, 62, 120
7, 372412, Note_on_c, 5, 62, 0
7, 372480, Note_on_c, 5, 62, 120
7, 372728, Note_on_c, 5, 62, 0
7, 373248, Note_on_c, 5, 58, 120
7, 373312, Note_on_c, 5, 58, 0
7, 373312, Note_on_c, 5, 57, 120
7, 373376, Note_on_c, 5, 57, 0
7, 373376, Note_on_c, 5, 55, 120
7, 373592, Note_on_c, 5, 55, 0
7, 373632, Note_on_c, 5, 55, 120
7, 373756, Note_on_c, 5, 55, 0
7, 373824, Note_on_c, 5, 55, 120
7, 373948, Note_on_c, 5, 55, 0
7, 374016, Note_on_c, 5, 55, 120
7, 374264, Note_on_c, 5, 55, 0
7, 374784, Note_on_c, 5, 58, 120
7, 374848, Note_on_c, 5, 58, 0
7, 374848, Note_on_c, 5, 57, 120
7, 374912, Note_on_c, 5, 57, 0
7, 374912, Note_on_c, 5, 55, 120
7, 375128, Note_on_c, 5, 55, 0
7, 375168, Note_on_c, 5, 55, 120
7, 375292, Note_on_c, 5, 55, 0
7, 375360, Note_on_c, 5, 55, 120
7, 375484, Note_on_c, 5, 55, 0
7, 375552, Note_on_c, 5, 55, 120
7, 375800, Note_on_c, 5, 55, 0
7, 376320, Note_on_c, 5, 63, 120
7, 376384, Note_on_c, 5, 63, 0
7, 376384, Note_on_c, 5, 62, 120
7, 376448, Note_on_c, 5, 62, 0
7, 376448, Note_on_c, 5, 60, 120
7, 376664, Note_on_c, 5, 60, 0
7, 376704, Note_on_c, 5, 60, 120
7, 376828, Note_on_c, 5, 60, 0
7, 376896, Note_on_c, 5, 60, 120
7, 377020, Note_on_c, 5, 60, 0
7, 377088, Note_on_c, 5, 60, 120
7, 377336, Note_on_c, 5, 60, 0
7, 377856, Note_on_c, 5, 63, 120
7, 377920, Note_on_c, 5, 63, 0
7, 377920, Note_on_c, 5, 62, 120
7, 377984, Note_on_c, 5, 62, 0
7, 377984, Note_on_c, 5, 60, 120
7, 378200, Note_on_c, 5, 60, 0
7, 378240, Note_on_c, 5, 60, 120
7, 378364, Note_on_c, 5, 60, 0
7, 378432, Note_on_c, 5, 60, 120
7, 378556, Note_on_c, 5, 60, 0
7, 378624, Note_on_c, 5, 60, 120
7, 378872, Note_on_c, 5, 60, 0
7, 380928, Note_on_c, 5, 72, 120
7, 381196, Note_on_c, 5, 72, 0
7, 381312, Note_on_c, 5, 69, 120
7, 381580, Note_on_c, 5, 69, 0
7, 381696, Note_on_c, 5, 66, 120
7, 381964, Note_on_c, 5, 66, 0
7, 382080, Note_on_c, 5, 62, 120
7, 382348, Note_on_c, 5, 62, 0
7, 384000, Note_on_c, 5, 67, 120
7, 384268, Note_on_c, 5, 67, 0
7, 384384, Note_on_c, 5, 62, 120
7, 384652, Note_on_c, 5, 62, 0
7, 384768, Note_on_c, 5, 58, 120
7, 385036, Note_on_c, 5, 58, 0
7, 385152, Note_on_c, 5, 55, 120
7, 385420, Note_on_c, 5, 55, 0
7, 387072, Note_on_c, 5, 68, 120
7, 387340, Note_on_c, 5, 68, 0
7, 387456, Note_on_c, 5, 65, 120
7, 387724, Note_on_c, 5, 65, 0
7, 387840, Note_on_c, 5, 62, 120
7, 388108, Note_on_c, 5, 62, 0
7, 388224, Note_on_c, 5, 59, 120
7, 388492, Note_on_c, 5, 59, 0
7, 390144, Note_on_c, 5, 72, 120
7, 390412, Note_on_c, 5, 72, 0
7, 390528, Note_on_c, 5, 67, 120
7, 390796, Note_on_c, 5, 67, 0
7, 390912, Note_on_c, 5, 63, 120
7, 391180, Note_on_c, 5, 63, 0
7, 391296, Note_on_c, 5, 60, 120
7, 391564, Note_on_c, 5, 60, 0
7, 393216, Note_on_c, 5, 70, 120
7, 393484, Note_on_c, 5, 70, 0
7, 393600, Note_on_c, 5, 67, 120
7, 393868, Note_on_c, 5, 67, 0
7, 393984, Note_on_c, 5, 64, 120
7, 394252, Note_on_c, 5, 64, 0
7, 394368, Note_on_c, 5, 61, 120
7, 394636, Note_on_c, 5, 61, 0
7, 394752, Note_on_c, 5, 62, 120
7, 395136, Note_on_c, 5, 62, 0
7, 395136, Note_on_c, 5, 63, 120
7, 395520, Note_on_c, 5, 63, 0
7, 395520, Note_on_c, 5, 62, 120
7, 395904, Note_on_c, 5, 62, 0
7, 395904, Note_on_c, 5, 61, 120
7, 396288, Note_on_c, 5, 61, 0
7, 396288, Note_on_c, 5, 62, 120
7, 396516, Note_on_c, 5, 62, 0
7, 396672, Note_on_c, 5, 74, 77
7, 396900, Note_on_c, 5, 74, 0
7, 397056, Note_on_c, 5, 62, 77
7, 397284, Note_on_c, 5, 62, 0
7, 403968, Note_on_c, 5, 58, 64
7, 404236, Note_on_c, 5, 58, 0
7, 404352, Note_on_c, 5, 61, 64
7, 404620, Note_on_c, 5, 61, 0
7, 404736, Note_on_c, 5, 62, 64
7, 405004, Note_on_c, 5, 62, 0
7, 405120, Note_on_c, 5, 58, 64
7, 405388, Note_on_c, 5, 58, 0
7, 405504, Note_on_c, 5, 57, 64
7, 405772, Note_on_c, 5, 57, 0
7, 405888, Note_on_c, 5, 55, 64
7, 406156, Note_on_c, 5, 55, 0
7, 406272, Note_on_c, 5, 54, 64
7, 406540, Note_on_c, 5, 54, 0
7, 406656, Note_on_c, 5, 55, 64
7, 406924, Note_on_c, 5, 55, 0
7, 407040, Note_on_c, 5, 60, 64
7, 407308, Note_on_c, 5, 60, 0
7, 407424, Note_on_c, 5, 54, 64
7, 407692, Note_on_c, 5, 54, 0
7, 407808, Note_on_c, 5, 55, 64
7, 407940, Note_on_c, 5, 55, 0
7, 408000, Note_on_c, 5, 58, 64
7, 408268, Note_on_c, 5, 58, 0
7, 408384, Note_on_c, 5, 67, 64
7, 408516, Note_on_c, 5, 67, 0
7, 408576, Note_on_c, 5, 63, 80
7, 408728, Note_on_c, 5, 63, 0
7, 408768, Note_on_c, 5, 60, 80
7, 408920, Note_on_c, 5, 60, 0
7, 408960, Note_on_c, 5, 58, 80
7, 409112, Note_on_c, 5, 58, 0
7, 409152, Note_on_c, 5, 57, 80
7, 409304, Note_on_c, 5, 57, 0
7, 409344, Note_on_c, 5, 55, 80
7, 409496, Note_on_c, 5, 55, 0
7, 409536, Note_on_c, 5, 62, 80
7, 409840, Note_on_c, 5, 62, 0
7, 409920, Note_on_c, 5, 62, 100
7, 410264, Note_on_c, 5, 62, 0
7, 410304, Note_on_c, 5, 62, 100
7, 410608, Note_on_c, 5, 62, 0
7, 410688, Note_on_c, 5, 62, 100
7, 410992, Note_on_c, 5, 62, 0
7, 411072, Note_on_c, 5, 62, 100
7, 411376, Note_on_c, 5, 62, 0
7, 411456, Note_on_c, 5, 62, 100
7, 411800, Note_on_c, 5, 62, 0
7, 411840, Note_on_c, 5, 62, 100
7, 412144, Note_on_c, 5, 62, 0
7, 412224, Note_on_c, 5, 62, 100
7, 412528, Note_on_c, 5, 62, 0
7, 412608, Note_on_c, 5, 62, 100
7, 412912, Note_on_c, 5, 62, 0
7, 412992, Note_on_c, 5, 62, 100
7, 413336, Note_on_c, 5, 62, 0
7, 413376, Note_on_c, 5, 62, 100
7, 413680, Note_on_c, 5, 62, 0
7, 413760, Note_on_c, 5, 62, 100
7, 414064, Note_on_c, 5, 62, 0
7, 414144, Note_on_c, 5, 62, 100
7, 414448, Note_on_c, 5, 62, 0
7, 414528, Note_on_c, 5, 62, 100
7, 414912, Note_on_c, 5, 62, 0
7, 414912, Note_on_c, 5, 69, 103
7, 415064, Note_on_c, 5, 69, 0
7, 415104, Note_on_c, 5, 67, 105
7, 415256, Note_on_c, 5, 67, 0
7, 415296, Note_on_c, 5, 66, 108
7, 415448, Note_on_c, 5, 66, 0
7, 415488, Note_on_c, 5, 67, 110
7, 415792, Note_on_c, 5, 67, 0
7, 415872, Note_on_c, 5, 64, 115
7, 416176, Note_on_c, 5, 64, 0
7, 416256, Note_on_c, 5, 57, 120
7, 416560, Note_on_c, 5, 57, 0
7, 416640, Note_on_c, 5, 58, 120
7, 416944, Note_on_c, 5, 58, 0
7, 417024, Note_on_c, 5, 63, 120
7, 417216, Note_on_c, 5, 63, 0
7, 417216, Note_on_c, 5, 60, 120
7, 417368, Note_on_c, 5, 60, 0
7, 417408, Note_on_c, 5, 60, 120
7, 417560, Note_on_c, 5, 60, 0
7, 417600, Note_on_c, 5, 60, 120
7, 417752, Note_on_c, 5, 60, 0
7, 417792, Note_on_c, 5, 60, 120
7, 417984, Note_on_c, 5, 60, 0
7, 417984, Note_on_c, 5, 58, 120
7, 418136, Note_on_c, 5, 58, 0
7, 418176, Note_on_c, 5, 57, 120
7, 418328, Note_on_c, 5, 57, 0
7, 418368, Note_on_c, 5, 55, 120
7, 418520, Note_on_c, 5, 55, 0
7, 418560, Note_on_c, 5, 54, 120
7, 418864, Note_on_c, 5, 54, 0
7, 418944, Note_on_c, 5, 66, 120
7, 419248, Note_on_c, 5, 66, 0
7, 419328, Note_on_c, 5, 67, 120
7, 419788, Note_on_c, 5, 67, 0
7, 419904, Note_on_c, 5, 74, 120
7, 420056, Note_on_c, 5, 74, 0
7, 420096, Note_on_c, 5, 74, 120
7, 420288, Note_on_c, 5, 74, 0
7, 420288, Note_on_c, 5, 72, 120
7, 420440, Note_on_c, 5, 72, 0
7, 420480, Note_on_c, 5, 70, 120
7, 420632, Note_on_c, 5, 70, 0
7, 420672, Note_on_c, 5, 69, 120
7, 420824, Note_on_c, 5, 69, 0
7, 420864, Note_on_c, 5, 67, 120
7, 421248, Note_on_c, 5, 67, 0
7, 421824, Note_on_c, 5, 58, 96
7, 421936, Note_on_c, 5, 58, 0
7, 422016, Note_on_c, 5, 62, 96
7, 422128, Note_on_c, 5, 62, 0
7, 422208, Note_on_c, 5, 58, 96
7, 422320, Note_on_c, 5, 58, 0
7, 422400, Note_on_c, 5, 55, 120
7, 422784, Note_on_c, 5, 55, 0
7, 423360, Note_on_c, 5, 67, 96
7, 423472, Note_on_c, 5, 67, 0
7, 423552, Note_on_c, 5, 63, 96
7, 423664, Note_on_c, 5, 63, 0
7, 423744, Note_on_c, 5, 67, 96
7, 423856, Note_on_c, 5, 67, 0
7, 423936, Note_on_c, 5, 55, 120
7, 424164, Note_on_c, 5, 55, 0
7, 424320, Note_on_c, 5, 63, 120
7, 424548, Note_on_c, 5, 63, 0
7, 424704, Note_on_c, 5, 63, 120
7, 424932, Note_on_c, 5, 63, 0
7, 425088, Note_on_c, 5, 62, 120
7, 425316, Note_on_c, 5, 62, 0
7, 425472, Note_on_c, 5, 55, 120
7, 426240, Note_on_c, 5, 55, 0
7, 426624, Note_on_c, 5, 55, 120
7, 426720, Note_on_c, 5, 55, 0
7, 426720, Note_on_c, 5, 57, 120
7, 426816, Note_on_c, 5, 57, 0
7, 426816, Note_on_c, 5, 58, 120
7, 426912, Note_on_c, 5, 58, 0
7, 426912, Note_on_c, 5, 60, 120
7, 427008, Note_on_c, 5, 60, 0
7, 427008, Note_on_c, 5, 62, 120
7, 427776, Note_on_c, 5, 62, 0
7, 428160, Note_on_c, 5, 62, 120
7, 428256, Note_on_c, 5, 62, 0
7, 428256, Note_on_c, 5, 60, 120
7, 428352, Note_on_c, 5, 60, 0
7, 428352, Note_on_c, 5, 58, 120
7, 428448, Note_on_c, 5, 58, 0
7, 428448, Note_on_c, 5, 57, 120
7, 428544, Note_on_c, 5, 57, 0
7, 428544, Note_on_c, 5, 55, 120
7, 429312, Note_on_c, 5, 55, 0
7, 429696, Note_on_c, 5, 55, 120
7, 429792, Note_on_c, 5, 55, 0
7, 429792, Note_on_c, 5, 57, 120
7, 429888, Note_on_c, 5, 57, 0
7, 429888, Note_on_c, 5, 58, 120
7, 429984, Note_on_c, 5, 58, 0
7, 429984, Note_on_c, 5, 60, 120
7, 430080, Note_on_c, 5, 60, 0
7, 430080, Note_on_c, 5, 62, 120
7, 430848, Note_on_c, 5, 62, 0
7, 431232, Note_on_c, 5, 62, 120
7, 431328, Note_on_c, 5, 62, 0
7, 431328, Note_on_c, 5, 60, 120
7, 431424, Note_on_c, 5, 60, 0
7, 431424, Note_on_c, 5, 58, 120
7, 431520, Note_on_c, 5, 58, 0
7, 431520, Note_on_c, 5, 57, 120
7, 431616, Note_on_c, 5, 57, 0
7, 431616, Note_on_c, 5, 55, 120
7, 431920, Note_on_c, 5, 55, 0
7, 432000, Note_on_c, 5, 58, 120
7, 432384, Note_on_c, 5, 58, 0
7, 432384, Note_on_c, 5, 60, 120
7, 432768, Note_on_c, 5, 60, 0
7, 432768, Note_on_c, 5, 62, 120
7, 433152, Note_on_c, 5, 62, 0
7, 433152, Note_on_c, 5, 63, 120
7, 433536, Note_on_c, 5, 63, 0
7, 433536, Note_on_c, 5, 60, 120
7, 433920, Note_on_c, 5, 60, 0
7, 433920, Note_on_c, 5, 57, 120
7, 434304, Note_on_c, 5, 57, 0
7, 434304, Note_on_c, 5, 66, 120
7, 434688, Note_on_c, 5, 66, 0
7, 434688, Note_on_c, 5, 67, 120
7, 434992, Note_on_c, 5, 67, 0
7, 437760, Note_on_c, 5, 67, 120
7, 437912, Note_on_c, 5, 67, 0
7, 437952, Note_on_c, 5, 67, 120
7, 438256, Note_on_c, 5, 67, 0
7, 438336, Note_on_c, 5, 67, 120
7, 438640, Note_on_c, 5, 67, 0
7, 438720, Note_on_c, 5, 67, 120
7, 439024, Note_on_c, 5, 67, 0
7, 439104, Note_on_c, 5, 67, 120
7, 439256, Note_on_c, 5, 67, 0
7, 439296, Note_on_c, 5, 62, 120
7, 439448, Note_on_c, 5, 62, 0
7, 439488, Note_on_c, 5, 62, 120
7, 439792, Note_on_c, 5, 62, 0
7, 439872, Note_on_c, 5, 62, 120
7, 440176, Note_on_c, 5, 62, 0
7, 440256, Note_on_c, 5, 62, 120
7, 440560, Note_on_c, 5, 62, 0
7, 440640, Note_on_c, 5, 62, 120
7, 440792, Note_on_c, 5, 62, 0
7, 440832, Note_on_c, 5, 63, 120
7, 440984, Note_on_c, 5, 63, 0
7, 441024, Note_on_c, 5, 63, 120
7, 441328, Note_on_c, 5, 63, 0
7, 441408, Note_on_c, 5, 63, 120
7, 441712, Note_on_c, 5, 63, 0
7, 441792, Note_on_c, 5, 63, 120
7, 442096, Note_on_c, 5, 63, 0
7, 442176, Note_on_c, 5, 63, 120
7, 442328, Note_on_c, 5, 63, 0
7, 442368, Note_on_c, 5, 59, 120
7, 442520, Note_on_c, 5, 59, 0
7, 442560, Note_on_c, 5, 59, 120
7, 442864, Note_on_c, 5, 59, 0
7, 442944, Note_on_c, 5, 59, 120
7, 443248, Note_on_c, 5, 59, 0
7, 443328, Note_on_c, 5, 59, 120
7, 443632, Note_on_c, 5, 59, 0
7, 443712, Note_on_c, 5, 59, 120
7, 443864, Note_on_c, 5, 59, 0
7, 443904, Note_on_c, 5, 60, 120
7, 444056, Note_on_c, 5, 60, 0
7, 444096, Note_on_c, 5, 60, 120
7, 444400, Note_on_c, 5, 60, 0
7, 444480, Note_on_c, 5, 60, 120
7, 444632, Note_on_c, 5, 60, 0
7, 444672, Note_on_c, 5, 54, 120
7, 444824, Note_on_c, 5, 54, 0
7, 444864, Note_on_c, 5, 54, 120
7, 445168, Note_on_c, 5, 54, 0
7, 445248, Note_on_c, 5, 54, 120
7, 445400, Note_on_c, 5, 54, 0
7, 445440, Note_on_c, 5, 55, 120
7, 445592, Note_on_c, 5, 55, 0
7, 445632, Note_on_c, 5, 55, 120
7, 445936, Note_on_c, 5, 55, 0
7, 446016, Note_on_c, 5, 55, 120
7, 446168, Note_on_c, 5, 55, 0
7, 446208, Note_on_c, 5, 63, 120
7, 446360, Note_on_c, 5, 63, 0
7, 446400, Note_on_c, 5, 63, 120
7, 446704, Note_on_c, 5, 63, 0
7, 446784, Note_on_c, 5, 63, 120
7, 446936, Note_on_c, 5, 63, 0
7, 446976, Note_on_c, 5, 63, 120
7, 447128, Note_on_c, 5, 63, 0
7, 447168, Note_on_c, 5, 63, 120
7, 447472, Note_on_c, 5, 63, 0
7, 447552, Note_on_c, 5, 63, 120
7, 447704, Note_on_c, 5, 63, 0
7, 447744, Note_on_c, 5, 62, 120
7, 447896, Note_on_c, 5, 62, 0
7, 447936, Note_on_c, 5, 62, 120
7, 448240, Note_on_c, 5, 62, 0
7, 448320, Note_on_c, 5, 62, 120
7, 448472, Note_on_c, 5, 62, 0
7, 448512, Note_on_c, 5, 62, 120
7, 448816, Note_on_c, 5, 62, 0
7, 450048, Note_on_c, 5, 67, 120
7, 450352, Note_on_c, 5, 67, 0
7, 450432, Note_on_c, 5, 67, 120
7, 450660, Note_on_c, 5, 67, 0
7, 450720, Note_on_c, 5, 67, 120
7, 450796, Note_on_c, 5, 67, 0
7, 450816, Note_on_c, 5, 67, 120
7, 451120, Note_on_c, 5, 67, 0
7, 451200, Note_on_c, 5, 67, 120
7, 451504, Note_on_c, 5, 67, 0
7, 451584, Note_on_c, 5, 74, 120
7, 452196, Note_on_c, 5, 74, 0
7, 452352, Note_on_c, 5, 70, 120
7, 452656, Note_on_c, 5, 70, 0
7, 452736, Note_on_c, 5, 67, 120
7, 453040, Note_on_c, 5, 67, 0
7, 453120, Note_on_c, 5, 62, 120
7, 453424, Note_on_c, 5, 62, 0
7, 453504, Note_on_c, 5, 67, 120
7, 453808, Note_on_c, 5, 67, 0
7, 453888, Note_on_c, 5, 58, 120
7, 454192, Note_on_c, 5, 58, 0
7, 454272, Note_on_c, 5, 62, 120
7, 454576, Note_on_c, 5, 62, 0
7, 454656, Note_on_c, 5, 55, 120
7, 455040, Note_on_c, 5, 55, 0
7, 455040, End_track
8, 0, Start_track
8, 0, MIDI_port, 0
8, 0, Title_t, "Violoncello."
8, 0, Control_c, 6, 0, 0
8, 0, Program_c, 6, 48
8, 0, Control_c, 6, 10, 84
8, 0, Control_c, 6, 91, 127
8, 1536, Note_on_c, 6, 67, 120
8, 1688, Note_on_c, 6, 67, 0
8, 1728, Note_on_c, 6, 67, 120
8, 2032, Note_on_c, 6, 67, 0
8, 2112, Note_on_c, 6, 67, 120
8, 2416, Note_on_c, 6, 67, 0
8, 2496, Note_on_c, 6, 67, 120
8, 2800, Note_on_c, 6, 67, 0
8, 2880, Note_on_c, 6, 67, 120
8, 3032, Note_on_c, 6, 67, 0
8, 3072, Note_on_c, 6, 62, 120
8, 3224, Note_on_c, 6, 62, 0
8, 3264, Note_on_c, 6, 62, 120
8, 3568, Note_on_c, 6, 62, 0
8, 3648, Note_on_c, 6, 62, 120
8, 3952, Note_on_c, 6, 62, 0
8, 4032, Note_on_c, 6, 62, 120
8, 4336, Note_on_c, 6, 62, 0
8, 4416, Note_on_c, 6, 62, 120
8, 4568, Note_on_c, 6, 62, 0
8, 4608, Note_on_c, 6, 63, 120
8, 4760, Note_on_c, 6, 63, 0
8, 4800, Note_on_c, 6, 63, 120
8, 5104, Note_on_c, 6, 63, 0
8, 5184, Note_on_c, 6, 63, 120
8, 5488, Note_on_c, 6, 63, 0
8, 5568, Note_on_c, 6, 63, 120
8, 5872, Note_on_c, 6, 63, 0
8, 5952, Note_on_c, 6, 63, 120
8, 6104, Note_on_c, 6, 63, 0
8, 6144, Note_on_c, 6, 54, 120
8, 6296, Note_on_c, 6, 54, 0
8, 6336, Note_on_c, 6, 54, 120
8, 6640, Note_on_c, 6, 54, 0
8, 6720, Note_on_c, 6, 54, 120
8, 7024, Note_on_c, 6, 54, 0
8, 7104, Note_on_c, 6, 54, 120
8, 7408, Note_on_c, 6, 54, 0
8, 7488, Note_on_c, 6, 54, 120
8, 7640, Note_on_c, 6, 54, 0
8, 7680, Note_on_c, 6, 55, 120
8, 7984, Note_on_c, 6, 55, 0
8, 8448, Note_on_c, 6, 58, 120
8, 8544, Note_on_c, 6, 58, 0
8, 8544, Note_on_c, 6, 57, 120
8, 8640, Note_on_c, 6, 57, 0
8, 8640, Note_on_c, 6, 55, 120
8, 8736, Note_on_c, 6, 55, 0
8, 8736, Note_on_c, 6, 54, 120
8, 8832, Note_on_c, 6, 54, 0
8, 8832, Note_on_c, 6, 55, 120
8, 9136, Note_on_c, 6, 55, 0
8, 9984, Note_on_c, 6, 58, 120
8, 10080, Note_on_c, 6, 58, 0
8, 10080, Note_on_c, 6, 57, 120
8, 10176, Note_on_c, 6, 57, 0
8, 10176, Note_on_c, 6, 55, 120
8, 10272, Note_on_c, 6, 55, 0
8, 10272, Note_on_c, 6, 54, 120
8, 10368, Note_on_c, 6, 54, 0
8, 10368, Note_on_c, 6, 55, 120
8, 10672, Note_on_c, 6, 55, 0
8, 11520, Note_on_c, 6, 60, 120
8, 11616, Note_on_c, 6, 60, 0
8, 11616, Note_on_c, 6, 58, 120
8, 11712, Note_on_c, 6, 58, 0
8, 11712, Note_on_c, 6, 57, 120
8, 11808, Note_on_c, 6, 57, 0
8, 11808, Note_on_c, 6, 55, 120
8, 11904, Note_on_c, 6, 55, 0
8, 11904, Note_on_c, 6, 57, 120
8, 12208, Note_on_c, 6, 57, 0
8, 13056, Note_on_c, 6, 60, 120
8, 13152, Note_on_c, 6, 60, 0
8, 13152, Note_on_c, 6, 58, 120
8, 13248, Note_on_c, 6, 58, 0
8, 13248, Note_on_c, 6, 57, 120
8, 13344, Note_on_c, 6, 57, 0
8, 13344, Note_on_c, 6, 55, 120
8, 13420, Note_on_c, 6, 55, 0
8, 13440, Note_on_c, 6, 57, 120
8, 13744, Note_on_c, 6, 57, 0
8, 14592, Note_on_c, 6, 62, 120
8, 14688, Note_on_c, 6, 62, 0
8, 14688, Note_on_c, 6, 60, 120
8, 14784, Note_on_c, 6, 60, 0
8, 14784, Note_on_c, 6, 58, 120
8, 14880, Note_on_c, 6, 58, 0
8, 14880, Note_on_c, 6, 57, 120
8, 14976, Note_on_c, 6, 57, 0
8, 14976, Note_on_c, 6, 58, 120
8, 15168, Note_on_c, 6, 58, 0
8, 15360, Note_on_c, 6, 58, 120
8, 15456, Note_on_c, 6, 58, 0
8, 15456, Note_on_c, 6, 57, 120
8, 15552, Note_on_c, 6, 57, 0
8, 15552, Note_on_c, 6, 55, 120
8, 15648, Note_on_c, 6, 55, 0
8, 15648, Note_on_c, 6, 54, 120
8, 15744, Note_on_c, 6, 54, 0
8, 15744, Note_on_c, 6, 55, 120
8, 15936, Note_on_c, 6, 55, 0
8, 16128, Note_on_c, 6, 67, 120
8, 16224, Note_on_c, 6, 67, 0
8, 16224, Note_on_c, 6, 65, 120
8, 16320, Note_on_c, 6, 65, 0
8, 16320, Note_on_c, 6, 63, 120
8, 16416, Note_on_c, 6, 63, 0
8, 16416, Note_on_c, 6, 62, 120
8, 16512, Note_on_c, 6, 62, 0
8, 16512, Note_on_c, 6, 63, 120
8, 16608, Note_on_c, 6, 63, 0
8, 16608, Note_on_c, 6, 62, 120
8, 16704, Note_on_c, 6, 62, 0
8, 16704, Note_on_c, 6, 60, 120
8, 16800, Note_on_c, 6, 60, 0
8, 16800, Note_on_c, 6, 58, 120
8, 16896, Note_on_c, 6, 58, 0
8, 16896, Note_on_c, 6, 60, 120
8, 17164, Note_on_c, 6, 60, 0
8, 17280, Note_on_c, 6, 58, 120
8, 17548, Note_on_c, 6, 58, 0
8, 17664, Note_on_c, 6, 57, 120
8, 17932, Note_on_c, 6, 57, 0
8, 18048, Note_on_c, 6, 55, 120
8, 18316, Note_on_c, 6, 55, 0
8, 18432, Note_on_c, 6, 54, 120
8, 18700, Note_on_c, 6, 54, 0
8, 18816, Note_on_c, 6, 62, 96
8, 19084, Note_on_c, 6, 62, 0
8, 20352, Note_on_c, 6, 43, 120
8, 20620, Note_on_c, 6, 43, 0
8, 20736, Note_on_c, 6, 46, 120
8, 21004, Note_on_c, 6, 46, 0
8, 21120, Note_on_c, 6, 50, 120
8, 21388, Note_on_c, 6, 50, 0
8, 21888, Note_on_c, 6, 55, 120
8, 22156, Note_on_c, 6, 55, 0
8, 22272, Note_on_c, 6, 58, 120
8, 22540, Note_on_c, 6, 58, 0
8, 22656, Note_on_c, 6, 55, 120
8, 22924, Note_on_c, 6, 55, 0
8, 23424, Note_on_c, 6, 48, 120
8, 23692, Note_on_c, 6, 48, 0
8, 23808, Note_on_c, 6, 55, 120
8, 24076, Note_on_c, 6, 55, 0
8, 24192, Note_on_c, 6, 60, 120
8, 24460, Note_on_c, 6, 60, 0
8, 24960, Note_on_c, 6, 57, 120
8, 25228, Note_on_c, 6, 57, 0
8, 25344, Note_on_c, 6, 62, 120
8, 25612, Note_on_c, 6, 62, 0
8, 25728, Note_on_c, 6, 60, 120
8, 25996, Note_on_c, 6, 60, 0
8, 26112, Note_on_c, 6, 58, 120
8, 26380, Note_on_c, 6, 58, 0
8, 27648, Note_on_c, 6, 55, 64
8, 27952, Note_on_c, 6, 55, 0
8, 29184, Note_on_c, 6, 43, 64
8, 29488, Note_on_c, 6, 43, 0
8, 30720, Note_on_c, 6, 43, 64
8, 31024, Note_on_c, 6, 43, 0
8, 32256, Note_on_c, 6, 55, 64
8, 32560, Note_on_c, 6, 55, 0
8, 33792, Note_on_c, 6, 43, 64
8, 34096, Note_on_c, 6, 43, 0
8, 35328, Note_on_c, 6, 39, 64
8, 35632, Note_on_c, 6, 39, 0
8, 36864, Note_on_c, 6, 51, 64
8, 37168, Note_on_c, 6, 51, 0
8, 38400, Note_on_c, 6, 50, 51
8, 38704, Note_on_c, 6, 50, 0
8, 39936, Note_on_c, 6, 50, 51
8, 40240, Note_on_c, 6, 50, 0
8, 41472, Note_on_c, 6, 50, 51
8, 41776, Note_on_c, 6, 50, 0
8, 42240, Note_on_c, 6, 50, 41
8, 42544, Note_on_c, 6, 50, 0
8, 43008, Note_on_c, 6, 50, 33
8, 43312, Note_on_c, 6, 50, 0
8, 44544, Note_on_c, 6, 46, 120
8, 45232, Note_on_c, 6, 46, 0
8, 47616, Note_on_c, 6, 53, 120
8, 48996, Note_on_c, 6, 53, 0
8, 49152, Note_on_c, 6, 63, 120
8, 50532, Note_on_c, 6, 63, 0
8, 50688, Note_on_c, 6, 62, 120
8, 50752, Note_on_c, 6, 62, 0
8, 50752, Note_on_c, 6, 60, 120
8, 50816, Note_on_c, 6, 60, 0
8, 50816, Note_on_c, 6, 58, 120
8, 51012, Note_on_c, 6, 58, 0
8, 51072, Note_on_c, 6, 58, 120
8, 51204, Note_on_c, 6, 58, 0
8, 51264, Note_on_c, 6, 58, 120
8, 51396, Note_on_c, 6, 58, 0
8, 51456, Note_on_c, 6, 58, 120
8, 51724, Note_on_c, 6, 58, 0
8, 52224, Note_on_c, 6, 62, 120
8, 52288, Note_on_c, 6, 62, 0
8, 52288, Note_on_c, 6, 60, 120
8, 52352, Note_on_c, 6, 60, 0
8, 52352, Note_on_c, 6, 58, 120
8, 52548, Note_on_c, 6, 58, 0
8, 52608, Note_on_c, 6, 58, 120
8, 52740, Note_on_c, 6, 58, 0
8, 52800, Note_on_c, 6, 58, 120
8, 52932, Note_on_c, 6, 58, 0
8, 52992, Note_on_c, 6, 58, 120
8, 53260, Note_on_c, 6, 58, 0
8, 53760, Note_on_c, 6, 53, 120
8, 55140, Note_on_c, 6, 53, 0
8, 55296, Note_on_c, 6, 63, 120
8, 56676, Note_on_c, 6, 63, 0
8, 56832, Note_on_c, 6, 62, 120
8, 56896, Note_on_c, 6, 62, 0
8, 56896, Note_on_c, 6, 60, 120
8, 56960, Note_on_c, 6, 60, 0
8, 56960, Note_on_c, 6, 58, 120
8, 57156, Note_on_c, 6, 58, 0
8, 57216, Note_on_c, 6, 58, 120
8, 57348, Note_on_c, 6, 58, 0
8, 57408, Note_on_c, 6, 58, 120
8, 57540, Note_on_c, 6, 58, 0
8, 57600, Note_on_c, 6, 58, 120
8, 57868, Note_on_c, 6, 58, 0
8, 58368, Note_on_c, 6, 62, 120
8, 58432, Note_on_c, 6, 62, 0
8, 58432, Note_on_c, 6, 60, 120
8, 58496, Note_on_c, 6, 60, 0
8, 58496, Note_on_c, 6, 58, 120
8, 58692, Note_on_c, 6, 58, 0
8, 58752, Note_on_c, 6, 58, 120
8, 58884, Note_on_c, 6, 58, 0
8, 58944, Note_on_c, 6, 58, 120
8, 59076, Note_on_c, 6, 58, 0
8, 59136, Note_on_c, 6, 58, 120
8, 59404, Note_on_c, 6, 58, 0
8, 59904, Note_on_c, 6, 55, 120
8, 59968, Note_on_c, 6, 55, 0
8, 59968, Note_on_c, 6, 53, 120
8, 60032, Note_on_c, 6, 53, 0
8, 60032, Note_on_c, 6, 51, 120
8, 60228, Note_on_c, 6, 51, 0
8, 60288, Note_on_c, 6, 51, 120
8, 60420, Note_on_c, 6, 51, 0
8, 60480, Note_on_c, 6, 51, 120
8, 60612, Note_on_c, 6, 51, 0
8, 60672, Note_on_c, 6, 51, 120
8, 60940, Note_on_c, 6, 51, 0
8, 61440, Note_on_c, 6, 55, 120
8, 61504, Note_on_c, 6, 55, 0
8, 61504, Note_on_c, 6, 53, 120
8, 61568, Note_on_c, 6, 53, 0
8, 61568, Note_on_c, 6, 51, 120
8, 61764, Note_on_c, 6, 51, 0
8, 61824, Note_on_c, 6, 51, 120
8, 61956, Note_on_c, 6, 51, 0
8, 62016, Note_on_c, 6, 51, 120
8, 62148, Note_on_c, 6, 51, 0
8, 62208, Note_on_c, 6, 51, 120
8, 62476, Note_on_c, 6, 51, 0
8, 62976, Note_on_c, 6, 60, 120
8, 63040, Note_on_c, 6, 60, 0
8, 63040, Note_on_c, 6, 58, 120
8, 63104, Note_on_c, 6, 58, 0
8, 63104, Note_on_c, 6, 57, 120
8, 63300, Note_on_c, 6, 57, 0
8, 63360, Note_on_c, 6, 57, 120
8, 63492, Note_on_c, 6, 57, 0
8, 63552, Note_on_c, 6, 57, 120
8, 63684, Note_on_c, 6, 57, 0
8, 63744, Note_on_c, 6, 57, 120
8, 64012, Note_on_c, 6, 57, 0
8, 64512, Note_on_c, 6, 60, 120
8, 64576, Note_on_c, 6, 60, 0
8, 64576, Note_on_c, 6, 58, 120
8, 64640, Note_on_c, 6, 58, 0
8, 64640, Note_on_c, 6, 57, 120
8, 64836, Note_on_c, 6, 57, 0
8, 64896, Note_on_c, 6, 57, 120
8, 65028, Note_on_c, 6, 57, 0
8, 65088, Note_on_c, 6, 57, 120
8, 65220, Note_on_c, 6, 57, 0
8, 65280, Note_on_c, 6, 57, 120
8, 65548, Note_on_c, 6, 57, 0
8, 66048, Note_on_c, 6, 53, 120
8, 66112, Note_on_c, 6, 53, 0
8, 66112, Note_on_c, 6, 51, 120
8, 66176, Note_on_c, 6, 51, 0
8, 66176, Note_on_c, 6, 50, 120
8, 66372, Note_on_c, 6, 50, 0
8, 66432, Note_on_c, 6, 50, 120
8, 66564, Note_on_c, 6, 50, 0
8, 66624, Note_on_c, 6, 50, 120
8, 66756, Note_on_c, 6, 50, 0
8, 66816, Note_on_c, 6, 50, 120
8, 67084, Note_on_c, 6, 50, 0
8, 67584, Note_on_c, 6, 53, 120
8, 67648, Note_on_c, 6, 53, 0
8, 67648, Note_on_c, 6, 51, 120
8, 67712, Note_on_c, 6, 51, 0
8, 67712, Note_on_c, 6, 50, 120
8, 67908, Note_on_c, 6, 50, 0
8, 67968, Note_on_c, 6, 50, 120
8, 68100, Note_on_c, 6, 50, 0
8, 68160, Note_on_c, 6, 50, 120
8, 68292, Note_on_c, 6, 50, 0
8, 68352, Note_on_c, 6, 50, 120
8, 68620, Note_on_c, 6, 50, 0
8, 69120, Note_on_c, 6, 58, 120
8, 69184, Note_on_c, 6, 58, 0
8, 69184, Note_on_c, 6, 57, 120
8, 69248, Note_on_c, 6, 57, 0
8, 69248, Note_on_c, 6, 55, 120
8, 69444, Note_on_c, 6, 55, 0
8, 69504, Note_on_c, 6, 55, 120
8, 69636, Note_on_c, 6, 55, 0
8, 69696, Note_on_c, 6, 55, 120
8, 69828, Note_on_c, 6, 55, 0
8, 69888, Note_on_c, 6, 55, 120
8, 70156, Note_on_c, 6, 55, 0
8, 70656, Note_on_c, 6, 58, 120
8, 70720, Note_on_c, 6, 58, 0
8, 70720, Note_on_c, 6, 57, 120
8, 70784, Note_on_c, 6, 57, 0
8, 70784, Note_on_c, 6, 55, 120
8, 70980, Note_on_c, 6, 55, 0
8, 71040, Note_on_c, 6, 55, 120
8, 71172, Note_on_c, 6, 55, 0
8, 71232, Note_on_c, 6, 55, 120
8, 71364, Note_on_c, 6, 55, 0
8, 71424, Note_on_c, 6, 55, 120
8, 71692, Note_on_c, 6, 55, 0
8, 72192, Note_on_c, 6, 51, 120
8, 72256, Note_on_c, 6, 51, 0
8, 72256, Note_on_c, 6, 50, 120
8, 72320, Note_on_c, 6, 50, 0
8, 72320, Note_on_c, 6, 48, 120
8, 72516, Note_on_c, 6, 48, 0
8, 72576, Note_on_c, 6, 48, 120
8, 72708, Note_on_c, 6, 48, 0
8, 72768, Note_on_c, 6, 48, 120
8, 72900, Note_on_c, 6, 48, 0
8, 72960, Note_on_c, 6, 48, 120
8, 73228, Note_on_c, 6, 48, 0
8, 73728, Note_on_c, 6, 51, 120
8, 73792, Note_on_c, 6, 51, 0
8, 73792, Note_on_c, 6, 50, 120
8, 73856, Note_on_c, 6, 50, 0
8, 73856, Note_on_c, 6, 48, 120
8, 74052, Note_on_c, 6, 48, 0
8, 74112, Note_on_c, 6, 48, 120
8, 74244, Note_on_c, 6, 48, 0
8, 74304, Note_on_c, 6, 48, 120
8, 74436, Note_on_c, 6, 48, 0
8, 74496, Note_on_c, 6, 48, 120
8, 74764, Note_on_c, 6, 48, 0
8, 76800, Note_on_c, 6, 63, 120
8, 77068, Note_on_c, 6, 63, 0
8, 77184, Note_on_c, 6, 60, 120
8, 77452, Note_on_c, 6, 60, 0
8, 77568, Note_on_c, 6, 57, 120
8, 77836, Note_on_c, 6, 57, 0
8, 77952, Note_on_c, 6, 53, 120
8, 78220, Note_on_c, 6, 53, 0
8, 79872, Note_on_c, 6, 58, 120
8, 80140, Note_on_c, 6, 58, 0
8, 80256, Note_on_c, 6, 53, 120
8, 80524, Note_on_c, 6, 53, 0
8, 80640, Note_on_c, 6, 50, 120
8, 80908, Note_on_c, 6, 50, 0
8, 81024, Note_on_c, 6, 46, 120
8, 81292, Note_on_c, 6, 46, 0
8, 82944, Note_on_c, 6, 58, 120
8, 83212, Note_on_c, 6, 58, 0
8, 83328, Note_on_c, 6, 53, 120
8, 83596, Note_on_c, 6, 53, 0
8, 83712, Note_on_c, 6, 49, 120
8, 83980, Note_on_c, 6, 49, 0
8, 84096, Note_on_c, 6, 46, 120
8, 84364, Note_on_c, 6, 46, 0
8, 86016, Note_on_c, 6, 61, 120
8, 86284, Note_on_c, 6, 61, 0
8, 86400, Note_on_c, 6, 58, 120
8, 86668, Note_on_c, 6, 58, 0
8, 86784, Note_on_c, 6, 55, 120
8, 87052, Note_on_c, 6, 55, 0
8, 87168, Note_on_c, 6, 52, 120
8, 87436, Note_on_c, 6, 52, 0
8, 87552, Note_on_c, 6, 53, 115
8, 87936, Note_on_c, 6, 53, 0
8, 87936, Note_on_c, 6, 54, 115
8, 88320, Note_on_c, 6, 54, 0
8, 88320, Note_on_c, 6, 53, 115
8, 88704, Note_on_c, 6, 53, 0
8, 88704, Note_on_c, 6, 52, 115
8, 89088, Note_on_c, 6, 52, 0
8, 89088, Note_on_c, 6, 53, 115
8, 89336, Note_on_c, 6, 53, 0
8, 89472, Note_on_c, 6, 53, 92
8, 89664, Note_on_c, 6, 53, 0
8, 89856, Note_on_c, 6, 41, 92
8, 90104, Note_on_c, 6, 41, 0
8, 90624, Note_on_c, 6, 50, 80
8, 90872, Note_on_c, 6, 50, 0
8, 91008, Note_on_c, 6, 46, 80
8, 91256, Note_on_c, 6, 46, 0
8, 91392, Note_on_c, 6, 51, 80
8, 91640, Note_on_c, 6, 51, 0
8, 91776, Note_on_c, 6, 46, 80
8, 92024, Note_on_c, 6, 46, 0
8, 92160, Note_on_c, 6, 53, 80
8, 92408, Note_on_c, 6, 53, 0
8, 92544, Note_on_c, 6, 46, 80
8, 92792, Note_on_c, 6, 46, 0
8, 92928, Note_on_c, 6, 55, 80
8, 93176, Note_on_c, 6, 55, 0
8, 93312, Note_on_c, 6, 51, 80
8, 93560, Note_on_c, 6, 51, 0
8, 93696, Note_on_c, 6, 50, 80
8, 93944, Note_on_c, 6, 50, 0
8, 94080, Note_on_c, 6, 46, 80
8, 94328, Note_on_c, 6, 46, 0
8, 94464, Note_on_c, 6, 51, 80
8, 94712, Note_on_c, 6, 51, 0
8, 94848, Note_on_c, 6, 46, 80
8, 95096, Note_on_c, 6, 46, 0
8, 95232, Note_on_c, 6, 53, 80
8, 95480, Note_on_c, 6, 53, 0
8, 95616, Note_on_c, 6, 46, 80
8, 95864, Note_on_c, 6, 46, 0
8, 96000, Note_on_c, 6, 55, 80
8, 96248, Note_on_c, 6, 55, 0
8, 96384, Note_on_c, 6, 51, 80
8, 96632, Note_on_c, 6, 51, 0
8, 96768, Note_on_c, 6, 50, 80
8, 97016, Note_on_c, 6, 50, 0
8, 97152, Note_on_c, 6, 52, 80
8, 97400, Note_on_c, 6, 52, 0
8, 97536, Note_on_c, 6, 53, 80
8, 97784, Note_on_c, 6, 53, 0
8, 97920, Note_on_c, 6, 50, 80
8, 98168, Note_on_c, 6, 50, 0
8, 98304, Note_on_c, 6, 48, 80
8, 98552, Note_on_c, 6, 48, 0
8, 98688, Note_on_c, 6, 46, 80
8, 98936, Note_on_c, 6, 46, 0
8, 99072, Note_on_c, 6, 45, 80
8, 99320, Note_on_c, 6, 45, 0
8, 99456, Note_on_c, 6, 46, 80
8, 99704, Note_on_c, 6, 46, 0
8, 99840, Note_on_c, 6, 51, 80
8, 100088, Note_on_c, 6, 51, 0
8, 100224, Note_on_c, 6, 57, 80
8, 100472, Note_on_c, 6, 57, 0
8, 100608, Note_on_c, 6, 58, 80
8, 100856, Note_on_c, 6, 58, 0
8, 100992, Note_on_c, 6, 50, 80
8, 101240, Note_on_c, 6, 50, 0
8, 101376, Note_on_c, 6, 51, 80
8, 101624, Note_on_c, 6, 51, 0
8, 101760, Note_on_c, 6, 53, 80
8, 102008, Note_on_c, 6, 53, 0
8, 102144, Note_on_c, 6, 58, 120
8, 102392, Note_on_c, 6, 58, 0
8, 102528, Note_on_c, 6, 53, 120
8, 102776, Note_on_c, 6, 53, 0
8, 102912, Note_on_c, 6, 57, 120
8, 103160, Note_on_c, 6, 57, 0
8, 103296, Note_on_c, 6, 53, 120
8, 103544, Note_on_c, 6, 53, 0
8, 103680, Note_on_c, 6, 58, 120
8, 103928, Note_on_c, 6, 58, 0
8, 104064, Note_on_c, 6, 53, 120
8, 104312, Note_on_c, 6, 53, 0
8, 104448, Note_on_c, 6, 60, 120
8, 104696, Note_on_c, 6, 60, 0
8, 104832, Note_on_c, 6, 53, 120
8, 105080, Note_on_c, 6, 53, 0
8, 105216, Note_on_c, 6, 62, 120
8, 105464, Note_on_c, 6, 62, 0
8, 105600, Note_on_c, 6, 53, 120
8, 105848, Note_on_c, 6, 53, 0
8, 105984, Note_on_c, 6, 57, 120
8, 106232, Note_on_c, 6, 57, 0
8, 106368, Note_on_c, 6, 53, 120
8, 106616, Note_on_c, 6, 53, 0
8, 106752, Note_on_c, 6, 58, 120
8, 107000, Note_on_c, 6, 58, 0
8, 107136, Note_on_c, 6, 53, 120
8, 107384, Note_on_c, 6, 53, 0
8, 107520, Note_on_c, 6, 60, 120
8, 107768, Note_on_c, 6, 60, 0
8, 107904, Note_on_c, 6, 53, 120
8, 108152, Note_on_c, 6, 53, 0
8, 108288, Note_on_c, 6, 62, 120
8, 108536, Note_on_c, 6, 62, 0
8, 108672, Note_on_c, 6, 63, 120
8, 108920, Note_on_c, 6, 63, 0
8, 109056, Note_on_c, 6, 65, 120
8, 109304, Note_on_c, 6, 65, 0
8, 109440, Note_on_c, 6, 62, 120
8, 109688, Note_on_c, 6, 62, 0
8, 109824, Note_on_c, 6, 60, 120
8, 110072, Note_on_c, 6, 60, 0
8, 110208, Note_on_c, 6, 57, 120
8, 110456, Note_on_c, 6, 57, 0
8, 110592, Note_on_c, 6, 58, 120
8, 110840, Note_on_c, 6, 58, 0
8, 110976, Note_on_c, 6, 46, 120
8, 111224, Note_on_c, 6, 46, 0
8, 111360, Note_on_c, 6, 53, 120
8, 111608, Note_on_c, 6, 53, 0
8, 111744, Note_on_c, 6, 54, 120
8, 111992, Note_on_c, 6, 54, 0
8, 112128, Note_on_c, 6, 55, 120
8, 112376, Note_on_c, 6, 55, 0
8, 112512, Note_on_c, 6, 50, 120
8, 112760, Note_on_c, 6, 50, 0
8, 112896, Note_on_c, 6, 51, 120
8, 113144, Note_on_c, 6, 51, 0
8, 113280, Note_on_c, 6, 53, 120
8, 113528, Note_on_c, 6, 53, 0
8, 113664, Note_on_c, 6, 46, 120
8, 114008, Note_on_c, 6, 46, 0
8, 114624, Note_on_c, 6, 58, 120
8, 114748, Note_on_c, 6, 58, 0
8, 114816, Note_on_c, 6, 62, 120
8, 114940, Note_on_c, 6, 62, 0
8, 115008, Note_on_c, 6, 58, 120
8, 115132, Note_on_c, 6, 58, 0
8, 115200, Note_on_c, 6, 55, 120
8, 115544, Note_on_c, 6, 55, 0
8, 116160, Note_on_c, 6, 51, 120
8, 116284, Note_on_c, 6, 51, 0
8, 116352, Note_on_c, 6, 55, 120
8, 116476, Note_on_c, 6, 55, 0
8, 116544, Note_on_c, 6, 51, 120
8, 116668, Note_on_c, 6, 51, 0
8, 116736, Note_on_c, 6, 50, 120
8, 117004, Note_on_c, 6, 50, 0
8, 117120, Note_on_c, 6, 55, 120
8, 117388, Note_on_c, 6, 55, 0
8, 117504, Note_on_c, 6, 51, 120
8, 117772, Note_on_c, 6, 51, 0
8, 117888, Note_on_c, 6, 53, 120
8, 118156, Note_on_c, 6, 53, 0
8, 118272, Note_on_c, 6, 46, 120
8, 119040, Note_on_c, 6, 46, 0
8, 119424, Note_on_c, 6, 46, 120
8, 119520, Note_on_c, 6, 46, 0
8, 119520, Note_on_c, 6, 48, 120
8, 119616, Note_on_c, 6, 48, 0
8, 119616, Note_on_c, 6, 50, 120
8, 119712, Note_on_c, 6, 50, 0
8, 119712, Note_on_c, 6, 51, 120
8, 119808, Note_on_c, 6, 51, 0
8, 119808, Note_on_c, 6, 53, 120
8, 120576, Note_on_c, 6, 53, 0
8, 120960, Note_on_c, 6, 53, 120
8, 121056, Note_on_c, 6, 53, 0
8, 121056, Note_on_c, 6, 51, 120
8, 121152, Note_on_c, 6, 51, 0
8, 121152, Note_on_c, 6, 50, 120
8, 121248, Note_on_c, 6, 50, 0
8, 121248, Note_on_c, 6, 48, 120
8, 121344, Note_on_c, 6, 48, 0
8, 121344, Note_on_c, 6, 46, 120
8, 122112, Note_on_c, 6, 46, 0
8, 122496, Note_on_c, 6, 46, 120
8, 122592, Note_on_c, 6, 46, 0
8, 122592, Note_on_c, 6, 48, 120
8, 122688, Note_on_c, 6, 48, 0
8, 122688, Note_on_c, 6, 50, 120
8, 122784, Note_on_c, 6, 50, 0
8, 122784, Note_on_c, 6, 51, 120
8, 122880, Note_on_c, 6, 51, 0
8, 122880, Note_on_c, 6, 53, 120
8, 123648, Note_on_c, 6, 53, 0
8, 124032, Note_on_c, 6, 53, 120
8, 124128, Note_on_c, 6, 53, 0
8, 124128, Note_on_c, 6, 51, 120
8, 124224, Note_on_c, 6, 51, 0
8, 124224, Note_on_c, 6, 50, 120
8, 124320, Note_on_c, 6, 50, 0
8, 124320, Note_on_c, 6, 48, 120
8, 124416, Note_on_c, 6, 48, 0
8, 124416, Note_on_c, 6, 46, 120
8, 124720, Note_on_c, 6, 46, 0
8, 124800, Note_on_c, 6, 58, 120
8, 125184, Note_on_c, 6, 58, 0
8, 125184, Note_on_c, 6, 60, 120
8, 125568, Note_on_c, 6, 60, 0
8, 125568, Note_on_c, 6, 62, 120
8, 125952, Note_on_c, 6, 62, 0
8, 125952, Note_on_c, 6, 63, 120
8, 126336, Note_on_c, 6, 63, 0
8, 126336, Note_on_c, 6, 60, 120
8, 126720, Note_on_c, 6, 60, 0
8, 126720, Note_on_c, 6, 57, 120
8, 127104, Note_on_c, 6, 57, 0
8, 127104, Note_on_c, 6, 66, 120
8, 127488, Note_on_c, 6, 66, 0
8, 127488, Note_on_c, 6, 67, 120
8, 127640, Note_on_c, 6, 67, 0
8, 127680, Note_on_c, 6, 67, 120
8, 127984, Note_on_c, 6, 67, 0
8, 128064, Note_on_c, 6, 67, 120
8, 128368, Note_on_c, 6, 67, 0
8, 128448, Note_on_c, 6, 67, 120
8, 128752, Note_on_c, 6, 67, 0
8, 128832, Note_on_c, 6, 67, 120
8, 128984, Note_on_c, 6, 67, 0
8, 129024, Note_on_c, 6, 62, 120
8, 129176, Note_on_c, 6, 62, 0
8, 129216, Note_on_c, 6, 62, 120
8, 129520, Note_on_c, 6, 62, 0
8, 129600, Note_on_c, 6, 62, 120
8, 129904, Note_on_c, 6, 62, 0
8, 129984, Note_on_c, 6, 62, 120
8, 130288, Note_on_c, 6, 62, 0
8, 130368, Note_on_c, 6, 62, 120
8, 130520, Note_on_c, 6, 62, 0
8, 130560, Note_on_c, 6, 63, 120
8, 130712, Note_on_c, 6, 63, 0
8, 130752, Note_on_c, 6, 63, 120
8, 131056, Note_on_c, 6, 63, 0
8, 131136, Note_on_c, 6, 63, 120
8, 131440, Note_on_c, 6, 63, 0
8, 131520, Note_on_c, 6, 63, 120
8, 131824, Note_on_c, 6, 63, 0
8, 131904, Note_on_c, 6, 63, 120
8, 132056, Note_on_c, 6, 63, 0
8, 132096, Note_on_c, 6, 54, 120
8, 132248, Note_on_c, 6, 54, 0
8, 132288, Note_on_c, 6, 54, 120
8, 132592, Note_on_c, 6, 54, 0
8, 132672, Note_on_c, 6, 54, 120
8, 132976, Note_on_c, 6, 54, 0
8, 133056, Note_on_c, 6, 54, 120
8, 133360, Note_on_c, 6, 54, 0
8, 133440, Note_on_c, 6, 54, 120
8, 133592, Note_on_c, 6, 54, 0
8, 133632, Note_on_c, 6, 55, 120
8, 133936, Note_on_c, 6, 55, 0
8, 134400, Note_on_c, 6, 58, 120
8, 134496, Note_on_c, 6, 58, 0
8, 134496, Note_on_c, 6, 57, 120
8, 134592, Note_on_c, 6, 57, 0
8, 134592, Note_on_c, 6, 55, 120
8, 134688, Note_on_c, 6, 55, 0
8, 134688, Note_on_c, 6, 54, 120
8, 134784, Note_on_c, 6, 54, 0
8, 134784, Note_on_c, 6, 55, 120
8, 135088, Note_on_c, 6, 55, 0
8, 135936, Note_on_c, 6, 58, 120
8, 136032, Note_on_c, 6, 58, 0
8, 136032, Note_on_c, 6, 57, 120
8, 136128, Note_on_c, 6, 57, 0
8, 136128, Note_on_c, 6, 55, 120
8, 136224, Note_on_c, 6, 55, 0
8, 136224, Note_on_c, 6, 54, 120
8, 136320, Note_on_c, 6, 54, 0
8, 136320, Note_on_c, 6, 55, 120
8, 136624, Note_on_c, 6, 55, 0
8, 137472, Note_on_c, 6, 60, 120
8, 137568, Note_on_c, 6, 60, 0
8, 137568, Note_on_c, 6, 58, 120
8, 137664, Note_on_c, 6, 58, 0
8, 137664, Note_on_c, 6, 57, 120
8, 137760, Note_on_c, 6, 57, 0
8, 137760, Note_on_c, 6, 55, 120
8, 137856, Note_on_c, 6, 55, 0
8, 137856, Note_on_c, 6, 57, 120
8, 138160, Note_on_c, 6, 57, 0
8, 139008, Note_on_c, 6, 60, 120
8, 139104, Note_on_c, 6, 60, 0
8, 139104, Note_on_c, 6, 58, 120
8, 139200, Note_on_c, 6, 58, 0
8, 139200, Note_on_c, 6, 57, 120
8, 139296, Note_on_c, 6, 57, 0
8, 139296, Note_on_c, 6, 55, 120
8, 139372, Note_on_c, 6, 55, 0
8, 139392, Note_on_c, 6, 57, 120
8, 139696, Note_on_c, 6, 57, 0
8, 140544, Note_on_c, 6, 62, 120
8, 140640, Note_on_c, 6, 62, 0
8, 140640, Note_on_c, 6, 60, 120
8, 140736, Note_on_c, 6, 60, 0
8, 140736, Note_on_c, 6, 58, 120
8, 140832, Note_on_c, 6, 58, 0
8, 140832, Note_on_c, 6, 57, 120
8, 140928, Note_on_c, 6, 57, 0
8, 140928, Note_on_c, 6, 58, 120
8, 141120, Note_on_c, 6, 58, 0
8, 141312, Note_on_c, 6, 58, 120
8, 141408, Note_on_c, 6, 58, 0
8, 141408, Note_on_c, 6, 57, 120
8, 141504, Note_on_c, 6, 57, 0
8, 141504, Note_on_c, 6, 55, 120
8, 141600, Note_on_c, 6, 55, 0
8, 141600, Note_on_c, 6, 54, 120
8, 141696, Note_on_c, 6, 54, 0
8, 141696, Note_on_c, 6, 55, 120
8, 141888, Note_on_c, 6, 55, 0
8, 142080, Note_on_c, 6, 67, 120
8, 142176, Note_on_c, 6, 67, 0
8, 142176, Note_on_c, 6, 65, 120
8, 142272, Note_on_c, 6, 65, 0
8, 142272, Note_on_c, 6, 63, 120
8, 142368, Note_on_c, 6, 63, 0
8, 142368, Note_on_c, 6, 62, 120
8, 142464, Note_on_c, 6, 62, 0
8, 142464, Note_on_c, 6, 63, 120
8, 142560, Note_on_c, 6, 63, 0
8, 142560, Note_on_c, 6, 62, 120
8, 142656, Note_on_c, 6, 62, 0
8, 142656, Note_on_c, 6, 60, 120
8, 142752, Note_on_c, 6, 60, 0
8, 142752, Note_on_c, 6, 58, 120
8, 142848, Note_on_c, 6, 58, 0
8, 142848, Note_on_c, 6, 60, 120
8, 143116, Note_on_c, 6, 60, 0
8, 143232, Note_on_c, 6, 58, 120
8, 143500, Note_on_c, 6, 58, 0
8, 143616, Note_on_c, 6, 57, 120
8, 143884, Note_on_c, 6, 57, 0
8, 144000, Note_on_c, 6, 55, 120
8, 144268, Note_on_c, 6, 55, 0
8, 144384, Note_on_c, 6, 54, 120
8, 144652, Note_on_c, 6, 54, 0
8, 144768, Note_on_c, 6, 62, 96
8, 145036, Note_on_c, 6, 62, 0
8, 146304, Note_on_c, 6, 43, 120
8, 146572, Note_on_c, 6, 43, 0
8, 146688, Note_on_c, 6, 46, 120
8, 146956, Note_on_c, 6, 46, 0
8, 147072, Note_on_c, 6, 50, 120
8, 147340, Note_on_c, 6, 50, 0
8, 147840, Note_on_c, 6, 55, 120
8, 148108, Note_on_c, 6, 55, 0
8, 148224, Note_on_c, 6, 58, 120
8, 148492, Note_on_c, 6, 58, 0
8, 148608, Note_on_c, 6, 55, 120
8, 148876, Note_on_c, 6, 55, 0
8, 149376, Note_on_c, 6, 48, 120
8, 149644, Note_on_c, 6, 48, 0
8, 149760, Note_on_c, 6, 55, 120
8, 150028, Note_on_c, 6, 55, 0
8, 150144, Note_on_c, 6, 60, 120
8, 150412, Note_on_c, 6, 60, 0
8, 150912, Note_on_c, 6, 57, 120
8, 151180, Note_on_c, 6, 57, 0
8, 151296, Note_on_c, 6, 62, 120
8, 151564, Note_on_c, 6, 62, 0
8, 151680, Note_on_c, 6, 60, 120
8, 151948, Note_on_c, 6, 60, 0
8, 152064, Note_on_c, 6, 58, 120
8, 152332, Note_on_c, 6, 58, 0
8, 153600, Note_on_c, 6, 55, 64
8, 153904, Note_on_c, 6, 55, 0
8, 155136, Note_on_c, 6, 43, 64
8, 155440, Note_on_c, 6, 43, 0
8, 156672, Note_on_c, 6, 43, 64
8, 156976, Note_on_c, 6, 43, 0
8, 158208, Note_on_c, 6, 55, 64
8, 158512, Note_on_c, 6, 55, 0
8, 159744, Note_on_c, 6, 43, 64
8, 160048, Note_on_c, 6, 43, 0
8, 161280, Note_on_c, 6, 39, 64
8, 161584, Note_on_c, 6, 39, 0
8, 162816, Note_on_c, 6, 51, 64
8, 163120, Note_on_c, 6, 51, 0
8, 164352, Note_on_c, 6, 50, 51
8, 164656, Note_on_c, 6, 50, 0
8, 165888, Note_on_c, 6, 50, 51
8, 166192, Note_on_c, 6, 50, 0
8, 167424, Note_on_c, 6, 50, 51
8, 167728, Note_on_c, 6, 50, 0
8, 168192, Note_on_c, 6, 50, 41
8, 168496, Note_on_c, 6, 50, 0
8, 168960, Note_on_c, 6, 50, 33
8, 169264, Note_on_c, 6, 50, 0
8, 170496, Note_on_c, 6, 46, 120
8, 171184, Note_on_c, 6, 46, 0
8, 173568, Note_on_c, 6, 53, 120
8, 174948, Note_on_c, 6, 53, 0
8, 175104, Note_on_c, 6, 63, 120
8, 176484, Note_on_c, 6, 63, 0
8, 176640, Note_on_c, 6, 62, 120
8, 176704, Note_on_c, 6, 62, 0
8, 176704, Note_on_c, 6, 60, 120
8, 176768, Note_on_c, 6, 60, 0
8, 176768, Note_on_c, 6, 58, 120
8, 176964, Note_on_c, 6, 58, 0
8, 177024, Note_on_c, 6, 58, 120
8, 177156, Note_on_c, 6, 58, 0
8, 177216, Note_on_c, 6, 58, 120
8, 177348, Note_on_c, 6, 58, 0
8, 177408, Note_on_c, 6, 58, 120
8, 177676, Note_on_c, 6, 58, 0
8, 178176, Note_on_c, 6, 62, 120
8, 178240, Note_on_c, 6, 62, 0
8, 178240, Note_on_c, 6, 60, 120
8, 178304, Note_on_c, 6, 60, 0
8, 178304, Note_on_c, 6, 58, 120
8, 178500, Note_on_c, 6, 58, 0
8, 178560, Note_on_c, 6, 58, 120
8, 178692, Note_on_c, 6, 58, 0
8, 178752, Note_on_c, 6, 58, 120
8, 178884, Note_on_c, 6, 58, 0
8, 178944, Note_on_c, 6, 58, 120
8, 179212, Note_on_c, 6, 58, 0
8, 179712, Note_on_c, 6, 53, 120
8, 181092, Note_on_c, 6, 53, 0
8, 181248, Note_on_c, 6, 63, 120
8, 182628, Note_on_c, 6, 63, 0
8, 182784, Note_on_c, 6, 62, 120
8, 182848, Note_on_c, 6, 62, 0
8, 182848, Note_on_c, 6, 60, 120
8, 182912, Note_on_c, 6, 60, 0
8, 182912, Note_on_c, 6, 58, 120
8, 183108, Note_on_c, 6, 58, 0
8, 183168, Note_on_c, 6, 58, 120
8, 183300, Note_on_c, 6, 58, 0
8, 183360, Note_on_c, 6, 58, 120
8, 183492, Note_on_c, 6, 58, 0
8, 183552, Note_on_c, 6, 58, 120
8, 183820, Note_on_c, 6, 58, 0
8, 184320, Note_on_c, 6, 62, 120
8, 184384, Note_on_c, 6, 62, 0
8, 184384, Note_on_c, 6, 60, 120
8, 184448, Note_on_c, 6, 60, 0
8, 184448, Note_on_c, 6, 58, 120
8, 184644, Note_on_c, 6, 58, 0
8, 184704, Note_on_c, 6, 58, 120
8, 184836, Note_on_c, 6, 58, 0
8, 184896, Note_on_c, 6, 58, 120
8, 185028, Note_on_c, 6, 58, 0
8, 185088, Note_on_c, 6, 58, 120
8, 185356, Note_on_c, 6, 58, 0
8, 185856, Note_on_c, 6, 55, 120
8, 185920, Note_on_c, 6, 55, 0
8, 185920, Note_on_c, 6, 53, 120
8, 185984, Note_on_c, 6, 53, 0
8, 185984, Note_on_c, 6, 51, 120
8, 186180, Note_on_c, 6, 51, 0
8, 186240, Note_on_c, 6, 51, 120
8, 186372, Note_on_c, 6, 51, 0
8, 186432, Note_on_c, 6, 51, 120
8, 186564, Note_on_c, 6, 51, 0
8, 186624, Note_on_c, 6, 51, 120
8, 186892, Note_on_c, 6, 51, 0
8, 187392, Note_on_c, 6, 55, 120
8, 187456, Note_on_c, 6, 55, 0
8, 187456, Note_on_c, 6, 53, 120
8, 187520, Note_on_c, 6, 53, 0
8, 187520, Note_on_c, 6, 51, 120
8, 187716, Note_on_c, 6, 51, 0
8, 187776, Note_on_c, 6, 51, 120
8, 187908, Note_on_c, 6, 51, 0
8, 187968, Note_on_c, 6, 51, 120
8, 188100, Note_on_c, 6, 51, 0
8, 188160, Note_on_c, 6, 51, 120
8, 188428, Note_on_c, 6, 51, 0
8, 188928, Note_on_c, 6, 60, 120
8, 188992, Note_on_c, 6, 60, 0
8, 188992, Note_on_c, 6, 58, 120
8, 189056, Note_on_c, 6, 58, 0
8, 189056, Note_on_c, 6, 57, 120
8, 189252, Note_on_c, 6, 57, 0
8, 189312, Note_on_c, 6, 57, 120
8, 189444, Note_on_c, 6, 57, 0
8, 189504, Note_on_c, 6, 57, 120
8, 189636, Note_on_c, 6, 57, 0
8, 189696, Note_on_c, 6, 57, 120
8, 189964, Note_on_c, 6, 57, 0
8, 190464, Note_on_c, 6, 60, 120
8, 190528, Note_on_c, 6, 60, 0
8, 190528, Note_on_c, 6, 58, 120
8, 190592, Note_on_c, 6, 58, 0
8, 190592, Note_on_c, 6, 57, 120
8, 190788, Note_on_c, 6, 57, 0
8, 190848, Note_on_c, 6, 57, 120
8, 190980, Note_on_c, 6, 57, 0
8, 191040, Note_on_c, 6, 57, 120
8, 191172, Note_on_c, 6, 57, 0
8, 191232, Note_on_c, 6, 57, 120
8, 191500, Note_on_c, 6, 57, 0
8, 192000, Note_on_c, 6, 53, 120
8, 192064, Note_on_c, 6, 53, 0
8, 192064, Note_on_c, 6, 51, 120
8, 192128, Note_on_c, 6, 51, 0
8, 192128, Note_on_c, 6, 50, 120
8, 192324, Note_on_c, 6, 50, 0
8, 192384, Note_on_c, 6, 50, 120
8, 192516, Note_on_c, 6, 50, 0
8, 192576, Note_on_c, 6, 50, 120
8, 192708, Note_on_c, 6, 50, 0
8, 192768, Note_on_c, 6, 50, 120
8, 193036, Note_on_c, 6, 50, 0
8, 193536, Note_on_c, 6, 53, 120
8, 193600, Note_on_c, 6, 53, 0
8, 193600, Note_on_c, 6, 51, 120
8, 193664, Note_on_c, 6, 51, 0
8, 193664, Note_on_c, 6, 50, 120
8, 193860, Note_on_c, 6, 50, 0
8, 193920, Note_on_c, 6, 50, 120
8, 194052, Note_on_c, 6, 50, 0
8, 194112, Note_on_c, 6, 50, 120
8, 194244, Note_on_c, 6, 50, 0
8, 194304, Note_on_c, 6, 50, 120
8, 194572, Note_on_c, 6, 50, 0
8, 195072, Note_on_c, 6, 58, 120
8, 195136, Note_on_c, 6, 58, 0
8, 195136, Note_on_c, 6, 57, 120
8, 195200, Note_on_c, 6, 57, 0
8, 195200, Note_on_c, 6, 55, 120
8, 195396, Note_on_c, 6, 55, 0
8, 195456, Note_on_c, 6, 55, 120
8, 195588, Note_on_c, 6, 55, 0
8, 195648, Note_on_c, 6, 55, 120
8, 195780, Note_on_c, 6, 55, 0
8, 195840, Note_on_c, 6, 55, 120
8, 196108, Note_on_c, 6, 55, 0
8, 196608, Note_on_c, 6, 58, 120
8, 196672, Note_on_c, 6, 58, 0
8, 196672, Note_on_c, 6, 57, 120
8, 196736, Note_on_c, 6, 57, 0
8, 196736, Note_on_c, 6, 55, 120
8, 196932, Note_on_c, 6, 55, 0
8, 196992, Note_on_c, 6, 55, 120
8, 197124, Note_on_c, 6, 55, 0
8, 197184, Note_on_c, 6, 55, 120
8, 197316, Note_on_c, 6, 55, 0
8, 197376, Note_on_c, 6, 55, 120
8, 197644, Note_on_c, 6, 55, 0
8, 198144, Note_on_c, 6, 51, 120
8, 198208, Note_on_c, 6, 51, 0
8, 198208, Note_on_c, 6, 50, 120
8, 198272, Note_on_c, 6, 50, 0
8, 198272, Note_on_c, 6, 48, 120
8, 198468, Note_on_c, 6, 48, 0
8, 198528, Note_on_c, 6, 48, 120
8, 198660, Note_on_c, 6, 48, 0
8, 198720, Note_on_c, 6, 48, 120
8, 198852, Note_on_c, 6, 48, 0
8, 198912, Note_on_c, 6, 48, 120
8, 199180, Note_on_c, 6, 48, 0
8, 199680, Note_on_c, 6, 51, 120
8, 199744, Note_on_c, 6, 51, 0
8, 199744, Note_on_c, 6, 50, 120
8, 199808, Note_on_c, 6, 50, 0
8, 199808, Note_on_c, 6, 48, 120
8, 200004, Note_on_c, 6, 48, 0
8, 200064, Note_on_c, 6, 48, 120
8, 200196, Note_on_c, 6, 48, 0
8, 200256, Note_on_c, 6, 48, 120
8, 200388, Note_on_c, 6, 48, 0
8, 200448, Note_on_c, 6, 48, 120
8, 200716, Note_on_c, 6, 48, 0
8, 202752, Note_on_c, 6, 63, 120
8, 203020, Note_on_c, 6, 63, 0
8, 203136, Note_on_c, 6, 60, 120
8, 203404, Note_on_c, 6, 60, 0
8, 203520, Note_on_c, 6, 57, 120
8, 203788, Note_on_c, 6, 57, 0
8, 203904, Note_on_c, 6, 53, 120
8, 204172, Note_on_c, 6, 53, 0
8, 205824, Note_on_c, 6, 58, 120
8, 206092, Note_on_c, 6, 58, 0
8, 206208, Note_on_c, 6, 53, 120
8, 206476, Note_on_c, 6, 53, 0
8, 206592, Note_on_c, 6, 50, 120
8, 206860, Note_on_c, 6, 50, 0
8, 206976, Note_on_c, 6, 46, 120
8, 207244, Note_on_c, 6, 46, 0
8, 208896, Note_on_c, 6, 58, 120
8, 209164, Note_on_c, 6, 58, 0
8, 209280, Note_on_c, 6, 53, 120
8, 209548, Note_on_c, 6, 53, 0
8, 209664, Note_on_c, 6, 49, 120
8, 209932, Note_on_c, 6, 49, 0
8, 210048, Note_on_c, 6, 46, 120
8, 210316, Note_on_c, 6, 46, 0
8, 211968, Note_on_c, 6, 61, 120
8, 212236, Note_on_c, 6, 61, 0
8, 212352, Note_on_c, 6, 58, 120
8, 212620, Note_on_c, 6, 58, 0
8, 212736, Note_on_c, 6, 55, 120
8, 213004, Note_on_c, 6, 55, 0
8, 213120, Note_on_c, 6, 52, 120
8, 213388, Note_on_c, 6, 52, 0
8, 213504, Note_on_c, 6, 53, 115
8, 213888, Note_on_c, 6, 53, 0
8, 213888, Note_on_c, 6, 54, 115
8, 214272, Note_on_c, 6, 54, 0
8, 214272, Note_on_c, 6, 53, 115
8, 214656, Note_on_c, 6, 53, 0
8, 214656, Note_on_c, 6, 52, 115
8, 215040, Note_on_c, 6, 52, 0
8, 215040, Note_on_c, 6, 53, 115
8, 215288, Note_on_c, 6, 53, 0
8, 215424, Note_on_c, 6, 53, 92
8, 215616, Note_on_c, 6, 53, 0
8, 215808, Note_on_c, 6, 41, 92
8, 216056, Note_on_c, 6, 41, 0
8, 216576, Note_on_c, 6, 50, 80
8, 216824, Note_on_c, 6, 50, 0
8, 216960, Note_on_c, 6, 46, 80
8, 217208, Note_on_c, 6, 46, 0
8, 217344, Note_on_c, 6, 51, 80
8, 217592, Note_on_c, 6, 51, 0
8, 217728, Note_on_c, 6, 46, 80
8, 217976, Note_on_c, 6, 46, 0
8, 218112, Note_on_c, 6, 53, 80
8, 218360, Note_on_c, 6, 53, 0
8, 218496, Note_on_c, 6, 46, 80
8, 218744, Note_on_c, 6, 46, 0
8, 218880, Note_on_c, 6, 55, 80
8, 219128, Note_on_c, 6, 55, 0
8, 219264, Note_on_c, 6, 51, 80
8, 219512, Note_on_c, 6, 51, 0
8, 219648, Note_on_c, 6, 50, 80
8, 219896, Note_on_c, 6, 50, 0
8, 220032, Note_on_c, 6, 46, 80
8, 220280, Note_on_c, 6, 46, 0
8, 220416, Note_on_c, 6, 51, 80
8, 220664, Note_on_c, 6, 51, 0
8, 220800, Note_on_c, 6, 46, 80
8, 221048, Note_on_c, 6, 46, 0
8, 221184, Note_on_c, 6, 53, 80
8, 221432, Note_on_c, 6, 53, 0
8, 221568, Note_on_c, 6, 46, 80
8, 221816, Note_on_c, 6, 46, 0
8, 221952, Note_on_c, 6, 55, 80
8, 222200, Note_on_c, 6, 55, 0
8, 222336, Note_on_c, 6, 51, 80
8, 222584, Note_on_c, 6, 51, 0
8, 222720, Note_on_c, 6, 50, 80
8, 222968, Note_on_c, 6, 50, 0
8, 223104, Note_on_c, 6, 52, 80
8, 223352, Note_on_c, 6, 52, 0
8, 223488, Note_on_c, 6, 53, 80
8, 223736, Note_on_c, 6, 53, 0
8, 223872, Note_on_c, 6, 50, 80
8, 224120, Note_on_c, 6, 50, 0
8, 224256, Note_on_c, 6, 48, 80
8, 224504, Note_on_c, 6, 48, 0
8, 224640, Note_on_c, 6, 46, 80
8, 224888, Note_on_c, 6, 46, 0
8, 225024, Note_on_c, 6, 45, 80
8, 225272, Note_on_c, 6, 45, 0
8, 225408, Note_on_c, 6, 46, 80
8, 225656, Note_on_c, 6, 46, 0
8, 225792, Note_on_c, 6, 51, 80
8, 226040, Note_on_c, 6, 51, 0
8, 226176, Note_on_c, 6, 57, 80
8, 226424, Note_on_c, 6, 57, 0
8, 226560, Note_on_c, 6, 58, 80
8, 226808, Note_on_c, 6, 58, 0
8, 226944, Note_on_c, 6, 50, 80
8, 227192, Note_on_c, 6, 50, 0
8, 227328, Note_on_c, 6, 51, 80
8, 227576, Note_on_c, 6, 51, 0
8, 227712, Note_on_c, 6, 53, 80
8, 227960, Note_on_c, 6, 53, 0
8, 228096, Note_on_c, 6, 58, 120
8, 228344, Note_on_c, 6, 58, 0
8, 228480, Note_on_c, 6, 53, 120
8, 228728, Note_on_c, 6, 53, 0
8, 228864, Note_on_c, 6, 57, 120
8, 229112, Note_on_c, 6, 57, 0
8, 229248, Note_on_c, 6, 53, 120
8, 229496, Note_on_c, 6, 53, 0
8, 229632, Note_on_c, 6, 58, 120
8, 229880, Note_on_c, 6, 58, 0
8, 230016, Note_on_c, 6, 53, 120
8, 230264, Note_on_c, 6, 53, 0
8, 230400, Note_on_c, 6, 60, 120
8, 230648, Note_on_c, 6, 60, 0
8, 230784, Note_on_c, 6, 53, 120
8, 231032, Note_on_c, 6, 53, 0
8, 231168, Note_on_c, 6, 62, 120
8, 231416, Note_on_c, 6, 62, 0
8, 231552, Note_on_c, 6, 53, 120
8, 231800, Note_on_c, 6, 53, 0
8, 231936, Note_on_c, 6, 57, 120
8, 232184, Note_on_c, 6, 57, 0
8, 232320, Note_on_c, 6, 53, 120
8, 232568, Note_on_c, 6, 53, 0
8, 232704, Note_on_c, 6, 58, 120
8, 232952, Note_on_c, 6, 58, 0
8, 233088, Note_on_c, 6, 53, 120
8, 233336, Note_on_c, 6, 53, 0
8, 233472, Note_on_c, 6, 60, 120
8, 233720, Note_on_c, 6, 60, 0
8, 233856, Note_on_c, 6, 53, 120
8, 234104, Note_on_c, 6, 53, 0
8, 234240, Note_on_c, 6, 62, 120
8, 234488, Note_on_c, 6, 62, 0
8, 234624, Note_on_c, 6, 63, 120
8, 234872, Note_on_c, 6, 63, 0
8, 235008, Note_on_c, 6, 65, 120
8, 235256, Note_on_c, 6, 65, 0
8, 235392, Note_on_c, 6, 62, 120
8, 235640, Note_on_c, 6, 62, 0
8, 235776, Note_on_c, 6, 60, 120
8, 236024, Note_on_c, 6, 60, 0
8, 236160, Note_on_c, 6, 57, 120
8, 236408, Note_on_c, 6, 57, 0
8, 236544, Note_on_c, 6, 58, 120
8, 236792, Note_on_c, 6, 58, 0
8, 236928, Note_on_c, 6, 46, 120
8, 237176, Note_on_c, 6, 46, 0
8, 237312, Note_on_c, 6, 53, 120
8, 237560, Note_on_c, 6, 53, 0
8, 237696, Note_on_c, 6, 54, 120
8, 237944, Note_on_c, 6, 54, 0
8, 238080, Note_on_c, 6, 55, 120
8, 238328, Note_on_c, 6, 55, 0
8, 238464, Note_on_c, 6, 50, 120
8, 238712, Note_on_c, 6, 50, 0
8, 238848, Note_on_c, 6, 51, 120
8, 239096, Note_on_c, 6, 51, 0
8, 239232, Note_on_c, 6, 53, 120
8, 239480, Note_on_c, 6, 53, 0
8, 239616, Note_on_c, 6, 46, 120
8, 239960, Note_on_c, 6, 46, 0
8, 240576, Note_on_c, 6, 58, 120
8, 240700, Note_on_c, 6, 58, 0
8, 240768, Note_on_c, 6, 62, 120
8, 240892, Note_on_c, 6, 62, 0
8, 240960, Note_on_c, 6, 58, 120
8, 241084, Note_on_c, 6, 58, 0
8, 241152, Note_on_c, 6, 55, 120
8, 241496, Note_on_c, 6, 55, 0
8, 242112, Note_on_c, 6, 51, 120
8, 242236, Note_on_c, 6, 51, 0
8, 242304, Note_on_c, 6, 55, 120
8, 242428, Note_on_c, 6, 55, 0
8, 242496, Note_on_c, 6, 51, 120
8, 242620, Note_on_c, 6, 51, 0
8, 242688, Note_on_c, 6, 50, 120
8, 242956, Note_on_c, 6, 50, 0
8, 243072, Note_on_c, 6, 55, 120
8, 243340, Note_on_c, 6, 55, 0
8, 243456, Note_on_c, 6, 51, 120
8, 243724, Note_on_c, 6, 51, 0
8, 243840, Note_on_c, 6, 53, 120
8, 244108, Note_on_c, 6, 53, 0
8, 244224, Note_on_c, 6, 46, 120
8, 244992, Note_on_c, 6, 46, 0
8, 245376, Note_on_c, 6, 46, 120
8, 245472, Note_on_c, 6, 46, 0
8, 245472, Note_on_c, 6, 48, 120
8, 245568, Note_on_c, 6, 48, 0
8, 245568, Note_on_c, 6, 50, 120
8, 245664, Note_on_c, 6, 50, 0
8, 245664, Note_on_c, 6, 51, 120
8, 245760, Note_on_c, 6, 51, 0
8, 245760, Note_on_c, 6, 53, 120
8, 246528, Note_on_c, 6, 53, 0
8, 246912, Note_on_c, 6, 53, 120
8, 247008, Note_on_c, 6, 53, 0
8, 247008, Note_on_c, 6, 51, 120
8, 247104, Note_on_c, 6, 51, 0
8, 247104, Note_on_c, 6, 50, 120
8, 247200, Note_on_c, 6, 50, 0
8, 247200, Note_on_c, 6, 48, 120
8, 247296, Note_on_c, 6, 48, 0
8, 247296, Note_on_c, 6, 46, 120
8, 248064, Note_on_c, 6, 46, 0
8, 248448, Note_on_c, 6, 46, 120
8, 248544, Note_on_c, 6, 46, 0
8, 248544, Note_on_c, 6, 48, 120
8, 248640, Note_on_c, 6, 48, 0
8, 248640, Note_on_c, 6, 50, 120
8, 248736, Note_on_c, 6, 50, 0
8, 248736, Note_on_c, 6, 51, 120
8, 248832, Note_on_c, 6, 51, 0
8, 248832, Note_on_c, 6, 53, 120
8, 249600, Note_on_c, 6, 53, 0
8, 249984, Note_on_c, 6, 53, 120
8, 250080, Note_on_c, 6, 53, 0
8, 250080, Note_on_c, 6, 51, 120
8, 250176, Note_on_c, 6, 51, 0
8, 250176, Note_on_c, 6, 50, 120
8, 250272, Note_on_c, 6, 50, 0
8, 250272, Note_on_c, 6, 48, 120
8, 250368, Note_on_c, 6, 48, 0
8, 250368, Note_on_c, 6, 46, 120
8, 250672, Note_on_c, 6, 46, 0
8, 250752, Note_on_c, 6, 58, 120
8, 251136, Note_on_c, 6, 58, 0
8, 251136, Note_on_c, 6, 60, 120
8, 251520, Note_on_c, 6, 60, 0
8, 251520, Note_on_c, 6, 62, 120
8, 251904, Note_on_c, 6, 62, 0
8, 251904, Note_on_c, 6, 63, 120
8, 252288, Note_on_c, 6, 63, 0
8, 252288, Note_on_c, 6, 60, 120
8, 252672, Note_on_c, 6, 60, 0
8, 252672, Note_on_c, 6, 57, 120
8, 253056, Note_on_c, 6, 57, 0
8, 253056, Note_on_c, 6, 66, 120
8, 253440, Note_on_c, 6, 66, 0
8, 253440, Note_on_c, 6, 67, 120
8, 253728, Note_on_c, 6, 67, 0
8, 253824, Note_on_c, 6, 55, 120
8, 254208, Note_on_c, 6, 55, 0
8, 254208, Note_on_c, 6, 56, 120
8, 254592, Note_on_c, 6, 56, 0
8, 254592, Note_on_c, 6, 58, 120
8, 254976, Note_on_c, 6, 58, 0
8, 254976, Note_on_c, 6, 60, 120
8, 255360, Note_on_c, 6, 60, 0
8, 255360, Note_on_c, 6, 56, 120
8, 255744, Note_on_c, 6, 56, 0
8, 255744, Note_on_c, 6, 53, 120
8, 256128, Note_on_c, 6, 53, 0
8, 256128, Note_on_c, 6, 62, 120
8, 256512, Note_on_c, 6, 62, 0
8, 256512, Note_on_c, 6, 63, 120
8, 256800, Note_on_c, 6, 63, 0
8, 256896, Note_on_c, 6, 51, 120
8, 257280, Note_on_c, 6, 51, 0
8, 257280, Note_on_c, 6, 53, 120
8, 257664, Note_on_c, 6, 53, 0
8, 257664, Note_on_c, 6, 55, 120
8, 258048, Note_on_c, 6, 55, 0
8, 258048, Note_on_c, 6, 56, 120
8, 258432, Note_on_c, 6, 56, 0
8, 258432, Note_on_c, 6, 53, 120
8, 258816, Note_on_c, 6, 53, 0
8, 258816, Note_on_c, 6, 50, 120
8, 259200, Note_on_c, 6, 50, 0
8, 259200, Note_on_c, 6, 59, 120
8, 259584, Note_on_c, 6, 59, 0
8, 259584, Note_on_c, 6, 60, 120
8, 259888, Note_on_c, 6, 60, 0
8, 260352, Note_on_c, 6, 60, 120
8, 260656, Note_on_c, 6, 60, 0
8, 260736, Note_on_c, 6, 55, 120
8, 261040, Note_on_c, 6, 55, 0
8, 261120, Note_on_c, 6, 63, 120
8, 261424, Note_on_c, 6, 63, 0
8, 261696, Note_on_c, 6, 55, 120
8, 261848, Note_on_c, 6, 55, 0
8, 261888, Note_on_c, 6, 60, 120
8, 262192, Note_on_c, 6, 60, 0
8, 262272, Note_on_c, 6, 63, 120
8, 262576, Note_on_c, 6, 63, 0
8, 262656, Note_on_c, 6, 48, 120
8, 262960, Note_on_c, 6, 48, 0
8, 263232, Note_on_c, 6, 57, 120
8, 263384, Note_on_c, 6, 57, 0
8, 263424, Note_on_c, 6, 62, 120
8, 263728, Note_on_c, 6, 62, 0
8, 263808, Note_on_c, 6, 57, 120
8, 264112, Note_on_c, 6, 57, 0
8, 264192, Note_on_c, 6, 66, 120
8, 264496, Note_on_c, 6, 66, 0
8, 264768, Note_on_c, 6, 57, 120
8, 264920, Note_on_c, 6, 57, 0
8, 264960, Note_on_c, 6, 62, 120
8, 265264, Note_on_c, 6, 62, 0
8, 265344, Note_on_c, 6, 60, 120
8, 265648, Note_on_c, 6, 60, 0
8, 265728, Note_on_c, 6, 58, 120
8, 266032, Note_on_c, 6, 58, 0
8, 266304, Note_on_c, 6, 50, 120
8, 266456, Note_on_c, 6, 50, 0
8, 266496, Note_on_c, 6, 55, 120
8, 266800, Note_on_c, 6, 55, 0
8, 266880, Note_on_c, 6, 50, 120
8, 267184, Note_on_c, 6, 50, 0
8, 267264, Note_on_c, 6, 58, 120
8, 267568, Note_on_c, 6, 58, 0
8, 267840, Note_on_c, 6, 50, 120
8, 267992, Note_on_c, 6, 50, 0
8, 268032, Note_on_c, 6, 55, 120
8, 268336, Note_on_c, 6, 55, 0
8, 268416, Note_on_c, 6, 50, 120
8, 268720, Note_on_c, 6, 50, 0
8, 268800, Note_on_c, 6, 58, 120
8, 269104, Note_on_c, 6, 58, 0
8, 269376, Note_on_c, 6, 58, 120
8, 269528, Note_on_c, 6, 58, 0
8, 269568, Note_on_c, 6, 55, 120
8, 269872, Note_on_c, 6, 55, 0
8, 269952, Note_on_c, 6, 58, 120
8, 270256, Note_on_c, 6, 58, 0
8, 270336, Note_on_c, 6, 52, 120
8, 270640, Note_on_c, 6, 52, 0
8, 270912, Note_on_c, 6, 64, 120
8, 271064, Note_on_c, 6, 64, 0
8, 271104, Note_on_c, 6, 61, 120
8, 271408, Note_on_c, 6, 61, 0
8, 271488, Note_on_c, 6, 57, 120
8, 271792, Note_on_c, 6, 57, 0
8, 271872, Note_on_c, 6, 62, 120
8, 272176, Note_on_c, 6, 62, 0
8, 272448, Note_on_c, 6, 57, 120
8, 272600, Note_on_c, 6, 57, 0
8, 272640, Note_on_c, 6, 53, 120
8, 272944, Note_on_c, 6, 53, 0
8, 273024, Note_on_c, 6, 50, 120
8, 273328, Note_on_c, 6, 50, 0
8, 273408, Note_on_c, 6, 46, 120
8, 273712, Note_on_c, 6, 46, 0
8, 273984, Note_on_c, 6, 46, 120
8, 274136, Note_on_c, 6, 46, 0
8, 274176, Note_on_c, 6, 58, 120
8, 274480, Note_on_c, 6, 58, 0
8, 274560, Note_on_c, 6, 46, 120
8, 274864, Note_on_c, 6, 46, 0
8, 274944, Note_on_c, 6, 45, 120
8, 275248, Note_on_c, 6, 45, 0
8, 276480, Note_on_c, 6, 45, 51
8, 276864, Note_on_c, 6, 45, 0
8, 278016, Note_on_c, 6, 45, 41
8, 278400, Note_on_c, 6, 45, 0
8, 279552, Note_on_c, 6, 45, 41
8, 279936, Note_on_c, 6, 45, 0
8, 281088, Note_on_c, 6, 45, 41
8, 281392, Note_on_c, 6, 45, 0
8, 281472, Note_on_c, 6, 57, 120
8, 281856, Note_on_c, 6, 57, 0
8, 281856, Note_on_c, 6, 58, 120
8, 282240, Note_on_c, 6, 58, 0
8, 282240, Note_on_c, 6, 56, 120
8, 282624, Note_on_c, 6, 56, 0
8, 282624, Note_on_c, 6, 57, 120
8, 283008, Note_on_c, 6, 57, 0
8, 283008, Note_on_c, 6, 55, 115
8, 283392, Note_on_c, 6, 55, 0
8, 283392, Note_on_c, 6, 53, 110
8, 283776, Note_on_c, 6, 53, 0
8, 283776, Note_on_c, 6, 52, 105
8, 284160, Note_on_c, 6, 52, 0
8, 284160, Note_on_c, 6, 50, 100
8, 284464, Note_on_c, 6, 50, 0
8, 285696, Note_on_c, 6, 50, 51
8, 286080, Note_on_c, 6, 50, 0
8, 287232, Note_on_c, 6, 50, 41
8, 287616, Note_on_c, 6, 50, 0
8, 288768, Note_on_c, 6, 50, 41
8, 289152, Note_on_c, 6, 50, 0
8, 290304, Note_on_c, 6, 50, 80
8, 290608, Note_on_c, 6, 50, 0
8, 290688, Note_on_c, 6, 62, 120
8, 291072, Note_on_c, 6, 62, 0
8, 291072, Note_on_c, 6, 63, 120
8, 291456, Note_on_c, 6, 63, 0
8, 291456, Note_on_c, 6, 61, 120
8, 291840, Note_on_c, 6, 61, 0
8, 291840, Note_on_c, 6, 62, 120
8, 292224, Note_on_c, 6, 62, 0
8, 292224, Note_on_c, 6, 60, 120
8, 292608, Note_on_c, 6, 60, 0
8, 292608, Note_on_c, 6, 58, 120
8, 292992, Note_on_c, 6, 58, 0
8, 292992, Note_on_c, 6, 57, 120
8, 293376, Note_on_c, 6, 57, 0
8, 293376, Note_on_c, 6, 55, 96
8, 294144, Note_on_c, 6, 55, 0
8, 305664, Note_on_c, 6, 67, 120
8, 305816, Note_on_c, 6, 67, 0
8, 305856, Note_on_c, 6, 67, 120
8, 306160, Note_on_c, 6, 67, 0
8, 306240, Note_on_c, 6, 67, 120
8, 306544, Note_on_c, 6, 67, 0
8, 306624, Note_on_c, 6, 67, 120
8, 306928, Note_on_c, 6, 67, 0
8, 307008, Note_on_c, 6, 67, 120
8, 307160, Note_on_c, 6, 67, 0
8, 307200, Note_on_c, 6, 62, 120
8, 307352, Note_on_c, 6, 62, 0
8, 307392, Note_on_c, 6, 62, 120
8, 307696, Note_on_c, 6, 62, 0
8, 307776, Note_on_c, 6, 62, 120
8, 308080, Note_on_c, 6, 62, 0
8, 308160, Note_on_c, 6, 62, 120
8, 308464, Note_on_c, 6, 62, 0
8, 308544, Note_on_c, 6, 62, 120
8, 308696, Note_on_c, 6, 62, 0
8, 308736, Note_on_c, 6, 63, 120
8, 308888, Note_on_c, 6, 63, 0
8, 308928, Note_on_c, 6, 63, 120
8, 309232, Note_on_c, 6, 63, 0
8, 309312, Note_on_c, 6, 63, 120
8, 309616, Note_on_c, 6, 63, 0
8, 309696, Note_on_c, 6, 63, 120
8, 310000, Note_on_c, 6, 63, 0
8, 310080, Note_on_c, 6, 63, 120
8, 310232, Note_on_c, 6, 63, 0
8, 310272, Note_on_c, 6, 54, 120
8, 310424, Note_on_c, 6, 54, 0
8, 310464, Note_on_c, 6, 54, 120
8, 310768, Note_on_c, 6, 54, 0
8, 310848, Note_on_c, 6, 54, 120
8, 311152, Note_on_c, 6, 54, 0
8, 311232, Note_on_c, 6, 54, 120
8, 311536, Note_on_c, 6, 54, 0
8, 311616, Note_on_c, 6, 54, 120
8, 311768, Note_on_c, 6, 54, 0
8, 311808, Note_on_c, 6, 55, 120
8, 312112, Note_on_c, 6, 55, 0
8, 312576, Note_on_c, 6, 58, 120
8, 312672, Note_on_c, 6, 58, 0
8, 312672, Note_on_c, 6, 57, 120
8, 312768, Note_on_c, 6, 57, 0
8, 312768, Note_on_c, 6, 55, 120
8, 312864, Note_on_c, 6, 55, 0
8, 312864, Note_on_c, 6, 54, 120
8, 312960, Note_on_c, 6, 54, 0
8, 312960, Note_on_c, 6, 55, 120
8, 313264, Note_on_c, 6, 55, 0
8, 314112, Note_on_c, 6, 58, 120
8, 314208, Note_on_c, 6, 58, 0
8, 314208, Note_on_c, 6, 57, 120
8, 314304, Note_on_c, 6, 57, 0
8, 314304, Note_on_c, 6, 55, 120
8, 314400, Note_on_c, 6, 55, 0
8, 314400, Note_on_c, 6, 54, 120
8, 314496, Note_on_c, 6, 54, 0
8, 314496, Note_on_c, 6, 55, 120
8, 314800, Note_on_c, 6, 55, 0
8, 315648, Note_on_c, 6, 60, 120
8, 315744, Note_on_c, 6, 60, 0
8, 315744, Note_on_c, 6, 58, 120
8, 315840, Note_on_c, 6, 58, 0
8, 315840, Note_on_c, 6, 57, 120
8, 315936, Note_on_c, 6, 57, 0
8, 315936, Note_on_c, 6, 55, 120
8, 316032, Note_on_c, 6, 55, 0
8, 316032, Note_on_c, 6, 57, 120
8, 316336, Note_on_c, 6, 57, 0
8, 317184, Note_on_c, 6, 60, 120
8, 317280, Note_on_c, 6, 60, 0
8, 317280, Note_on_c, 6, 58, 120
8, 317376, Note_on_c, 6, 58, 0
8, 317376, Note_on_c, 6, 57, 120
8, 317472, Note_on_c, 6, 57, 0
8, 317472, Note_on_c, 6, 55, 120
8, 317548, Note_on_c, 6, 55, 0
8, 317568, Note_on_c, 6, 57, 120
8, 317872, Note_on_c, 6, 57, 0
8, 318720, Note_on_c, 6, 62, 120
8, 318816, Note_on_c, 6, 62, 0
8, 318816, Note_on_c, 6, 60, 120
8, 318912, Note_on_c, 6, 60, 0
8, 318912, Note_on_c, 6, 58, 120
8, 319008, Note_on_c, 6, 58, 0
8, 319008, Note_on_c, 6, 57, 120
8, 319104, Note_on_c, 6, 57, 0
8, 319104, Note_on_c, 6, 58, 120
8, 319296, Note_on_c, 6, 58, 0
8, 319488, Note_on_c, 6, 58, 120
8, 319584, Note_on_c, 6, 58, 0
8, 319584, Note_on_c, 6, 57, 120
8, 319680, Note_on_c, 6, 57, 0
8, 319680, Note_on_c, 6, 55, 120
8, 319776, Note_on_c, 6, 55, 0
8, 319776, Note_on_c, 6, 54, 120
8, 319872, Note_on_c, 6, 54, 0
8, 319872, Note_on_c, 6, 55, 120
8, 320064, Note_on_c, 6, 55, 0
8, 320256, Note_on_c, 6, 67, 120
8, 320352, Note_on_c, 6, 67, 0
8, 320352, Note_on_c, 6, 65, 120
8, 320448, Note_on_c, 6, 65, 0
8, 320448, Note_on_c, 6, 63, 120
8, 320544, Note_on_c, 6, 63, 0
8, 320544, Note_on_c, 6, 62, 120
8, 320640, Note_on_c, 6, 62, 0
8, 320640, Note_on_c, 6, 63, 120
8, 320736, Note_on_c, 6, 63, 0
8, 320736, Note_on_c, 6, 62, 120
8, 320832, Note_on_c, 6, 62, 0
8, 320832, Note_on_c, 6, 60, 120
8, 320928, Note_on_c, 6, 60, 0
8, 320928, Note_on_c, 6, 58, 120
8, 321024, Note_on_c, 6, 58, 0
8, 321024, Note_on_c, 6, 60, 120
8, 321292, Note_on_c, 6, 60, 0
8, 321408, Note_on_c, 6, 58, 120
8, 321676, Note_on_c, 6, 58, 0
8, 321792, Note_on_c, 6, 57, 120
8, 322060, Note_on_c, 6, 57, 0
8, 322176, Note_on_c, 6, 55, 120
8, 322444, Note_on_c, 6, 55, 0
8, 322560, Note_on_c, 6, 54, 120
8, 322828, Note_on_c, 6, 54, 0
8, 322944, Note_on_c, 6, 62, 96
8, 323212, Note_on_c, 6, 62, 0
8, 324480, Note_on_c, 6, 43, 120
8, 324748, Note_on_c, 6, 43, 0
8, 324864, Note_on_c, 6, 46, 120
8, 325132, Note_on_c, 6, 46, 0
8, 325248, Note_on_c, 6, 50, 120
8, 325516, Note_on_c, 6, 50, 0
8, 326016, Note_on_c, 6, 55, 120
8, 326284, Note_on_c, 6, 55, 0
8, 326400, Note_on_c, 6, 58, 120
8, 326668, Note_on_c, 6, 58, 0
8, 326784, Note_on_c, 6, 55, 120
8, 327052, Note_on_c, 6, 55, 0
8, 327552, Note_on_c, 6, 48, 120
8, 327820, Note_on_c, 6, 48, 0
8, 327936, Note_on_c, 6, 55, 120
8, 328204, Note_on_c, 6, 55, 0
8, 328320, Note_on_c, 6, 60, 120
8, 328588, Note_on_c, 6, 60, 0
8, 329088, Note_on_c, 6, 57, 120
8, 329356, Note_on_c, 6, 57, 0
8, 329472, Note_on_c, 6, 62, 120
8, 329740, Note_on_c, 6, 62, 0
8, 329856, Note_on_c, 6, 60, 120
8, 330124, Note_on_c, 6, 60, 0
8, 330240, Note_on_c, 6, 58, 120
8, 330508, Note_on_c, 6, 58, 0
8, 331776, Note_on_c, 6, 55, 64
8, 332080, Note_on_c, 6, 55, 0
8, 333312, Note_on_c, 6, 43, 64
8, 333616, Note_on_c, 6, 43, 0
8, 334848, Note_on_c, 6, 43, 64
8, 335152, Note_on_c, 6, 43, 0
8, 336384, Note_on_c, 6, 55, 64
8, 336688, Note_on_c, 6, 55, 0
8, 337920, Note_on_c, 6, 43, 64
8, 338224, Note_on_c, 6, 43, 0
8, 339456, Note_on_c, 6, 39, 64
8, 339760, Note_on_c, 6, 39, 0
8, 340992, Note_on_c, 6, 51, 64
8, 341296, Note_on_c, 6, 51, 0
8, 342528, Note_on_c, 6, 50, 51
8, 342832, Note_on_c, 6, 50, 0
8, 344064, Note_on_c, 6, 50, 51
8, 344368, Note_on_c, 6, 50, 0
8, 345600, Note_on_c, 6, 50, 51
8, 345904, Note_on_c, 6, 50, 0
8, 346368, Note_on_c, 6, 50, 41
8, 346672, Note_on_c, 6, 50, 0
8, 347136, Note_on_c, 6, 50, 33
8, 347440, Note_on_c, 6, 50, 0
8, 348672, Note_on_c, 6, 43, 120
8, 349440, Note_on_c, 6, 43, 0
8, 351744, Note_on_c, 6, 50, 120
8, 353280, Note_on_c, 6, 50, 0
8, 353280, Note_on_c, 6, 60, 120
8, 354816, Note_on_c, 6, 60, 0
8, 354816, Note_on_c, 6, 58, 120
8, 354880, Note_on_c, 6, 58, 0
8, 354880, Note_on_c, 6, 57, 120
8, 354944, Note_on_c, 6, 57, 0
8, 354944, Note_on_c, 6, 55, 120
8, 355160, Note_on_c, 6, 55, 0
8, 355200, Note_on_c, 6, 55, 120
8, 355324, Note_on_c, 6, 55, 0
8, 355392, Note_on_c, 6, 55, 120
8, 355516, Note_on_c, 6, 55, 0
8, 355584, Note_on_c, 6, 55, 120
8, 355832, Note_on_c, 6, 55, 0
8, 356352, Note_on_c, 6, 58, 120
8, 356416, Note_on_c, 6, 58, 0
8, 356416, Note_on_c, 6, 57, 120
8, 356480, Note_on_c, 6, 57, 0
8, 356480, Note_on_c, 6, 55, 120
8, 356696, Note_on_c, 6, 55, 0
8, 356736, Note_on_c, 6, 55, 120
8, 356860, Note_on_c, 6, 55, 0
8, 356928, Note_on_c, 6, 55, 120
8, 357052, Note_on_c, 6, 55, 0
8, 357120, Note_on_c, 6, 55, 120
8, 357368, Note_on_c, 6, 55, 0
8, 357888, Note_on_c, 6, 50, 120
8, 359424, Note_on_c, 6, 50, 0
8, 359424, Note_on_c, 6, 60, 120
8, 360960, Note_on_c, 6, 60, 0
8, 360960, Note_on_c, 6, 58, 120
8, 361024, Note_on_c, 6, 58, 0
8, 361024, Note_on_c, 6, 57, 120
8, 361088, Note_on_c, 6, 57, 0
8, 361088, Note_on_c, 6, 55, 120
8, 361304, Note_on_c, 6, 55, 0
8, 361344, Note_on_c, 6, 55, 120
8, 361468, Note_on_c, 6, 55, 0
8, 361536, Note_on_c, 6, 55, 120
8, 361660, Note_on_c, 6, 55, 0
8, 361728, Note_on_c, 6, 55, 120
8, 361976, Note_on_c, 6, 55, 0
8, 362496, Note_on_c, 6, 58, 120
8, 362560, Note_on_c, 6, 58, 0
8, 362560, Note_on_c, 6, 57, 120
8, 362624, Note_on_c, 6, 57, 0
8, 362624, Note_on_c, 6, 55, 120
8, 362840, Note_on_c, 6, 55, 0
8, 362880, Note_on_c, 6, 55, 120
8, 363004, Note_on_c, 6, 55, 0
8, 363072, Note_on_c, 6, 55, 120
8, 363196, Note_on_c, 6, 55, 0
8, 363264, Note_on_c, 6, 55, 120
8, 363512, Note_on_c, 6, 55, 0
8, 364032, Note_on_c, 6, 63, 120
8, 364096, Note_on_c, 6, 63, 0
8, 364096, Note_on_c, 6, 62, 120
8, 364160, Note_on_c, 6, 62, 0
8, 364160, Note_on_c, 6, 60, 120
8, 364376, Note_on_c, 6, 60, 0
8, 364416, Note_on_c, 6, 60, 120
8, 364540, Note_on_c, 6, 60, 0
8, 364608, Note_on_c, 6, 60, 120
8, 364732, Note_on_c, 6, 60, 0
8, 364800, Note_on_c, 6, 60, 120
8, 365048, Note_on_c, 6, 60, 0
8, 365568, Note_on_c, 6, 63, 120
8, 365632, Note_on_c, 6, 63, 0
8, 365632, Note_on_c, 6, 62, 120
8, 365696, Note_on_c, 6, 62, 0
8, 365696, Note_on_c, 6, 60, 120
8, 365912, Note_on_c, 6, 60, 0
8, 365952, Note_on_c, 6, 60, 120
8, 366076, Note_on_c, 6, 60, 0
8, 366144, Note_on_c, 6, 60, 120
8, 366268, Note_on_c, 6, 60, 0
8, 366336, Note_on_c, 6, 60, 120
8, 366584, Note_on_c, 6, 60, 0
8, 367104, Note_on_c, 6, 57, 120
8, 367168, Note_on_c, 6, 57, 0
8, 367168, Note_on_c, 6, 55, 120
8, 367232, Note_on_c, 6, 55, 0
8, 367232, Note_on_c, 6, 53, 120
8, 367448, Note_on_c, 6, 53, 0
8, 367488, Note_on_c, 6, 53, 120
8, 367612, Note_on_c, 6, 53, 0
8, 367680, Note_on_c, 6, 53, 120
8, 367804, Note_on_c, 6, 53, 0
8, 367872, Note_on_c, 6, 53, 120
8, 368120, Note_on_c, 6, 53, 0
8, 368640, Note_on_c, 6, 57, 120
8, 368704, Note_on_c, 6, 57, 0
8, 368704, Note_on_c, 6, 55, 120
8, 368768, Note_on_c, 6, 55, 0
8, 368768, Note_on_c, 6, 53, 120
8, 368984, Note_on_c, 6, 53, 0
8, 369024, Note_on_c, 6, 53, 120
8, 369148, Note_on_c, 6, 53, 0
8, 369216, Note_on_c, 6, 53, 120
8, 369340, Note_on_c, 6, 53, 0
8, 369408, Note_on_c, 6, 53, 120
8, 369656, Note_on_c, 6, 53, 0
8, 370176, Note_on_c, 6, 62, 120
8, 370240, Note_on_c, 6, 62, 0
8, 370240, Note_on_c, 6, 60, 120
8, 370304, Note_on_c, 6, 60, 0
8, 370304, Note_on_c, 6, 58, 120
8, 370520, Note_on_c, 6, 58, 0
8, 370560, Note_on_c, 6, 58, 120
8, 370684, Note_on_c, 6, 58, 0
8, 370752, Note_on_c, 6, 58, 120
8, 370876, Note_on_c, 6, 58, 0
8, 370944, Note_on_c, 6, 58, 120
8, 371192, Note_on_c, 6, 58, 0
8, 371712, Note_on_c, 6, 62, 120
8, 371776, Note_on_c, 6, 62, 0
8, 371776, Note_on_c, 6, 60, 120
8, 371840, Note_on_c, 6, 60, 0
8, 371840, Note_on_c, 6, 58, 120
8, 372056, Note_on_c, 6, 58, 0
8, 372096, Note_on_c, 6, 58, 120
8, 372220, Note_on_c, 6, 58, 0
8, 372288, Note_on_c, 6, 58, 120
8, 372412, Note_on_c, 6, 58, 0
8, 372480, Note_on_c, 6, 58, 120
8, 372728, Note_on_c, 6, 58, 0
8, 373248, Note_on_c, 6, 55, 120
8, 373312, Note_on_c, 6, 55, 0
8, 373312, Note_on_c, 6, 53, 120
8, 373376, Note_on_c, 6, 53, 0
8, 373376, Note_on_c, 6, 51, 120
8, 373592, Note_on_c, 6, 51, 0
8, 373632, Note_on_c, 6, 51, 120
8, 373756, Note_on_c, 6, 51, 0
8, 373824, Note_on_c, 6, 51, 120
8, 373948, Note_on_c, 6, 51, 0
8, 374016, Note_on_c, 6, 51, 120
8, 374264, Note_on_c, 6, 51, 0
8, 374784, Note_on_c, 6, 55, 120
8, 374848, Note_on_c, 6, 55, 0
8, 374848, Note_on_c, 6, 53, 120
8, 374912, Note_on_c, 6, 53, 0
8, 374912, Note_on_c, 6, 51, 120
8, 375128, Note_on_c, 6, 51, 0
8, 375168, Note_on_c, 6, 51, 120
8, 375292, Note_on_c, 6, 51, 0
8, 375360, Note_on_c, 6, 51, 120
8, 375484, Note_on_c, 6, 51, 0
8, 375552, Note_on_c, 6, 51, 120
8, 375800, Note_on_c, 6, 51, 0
8, 376320, Note_on_c, 6, 60, 120
8, 376384, Note_on_c, 6, 60, 0
8, 376384, Note_on_c, 6, 58, 120
8, 376448, Note_on_c, 6, 58, 0
8, 376448, Note_on_c, 6, 57, 120
8, 376664, Note_on_c, 6, 57, 0
8, 376704, Note_on_c, 6, 57, 120
8, 376828, Note_on_c, 6, 57, 0
8, 376896, Note_on_c, 6, 57, 120
8, 377020, Note_on_c, 6, 57, 0
8, 377088, Note_on_c, 6, 57, 120
8, 377336, Note_on_c, 6, 57, 0
8, 377856, Note_on_c, 6, 60, 120
8, 377920, Note_on_c, 6, 60, 0
8, 377920, Note_on_c, 6, 58, 120
8, 377984, Note_on_c, 6, 58, 0
8, 377984, Note_on_c, 6, 57, 120
8, 378200, Note_on_c, 6, 57, 0
8, 378240, Note_on_c, 6, 57, 120
8, 378364, Note_on_c, 6, 57, 0
8, 378432, Note_on_c, 6, 57, 120
8, 378556, Note_on_c, 6, 57, 0
8, 378624, Note_on_c, 6, 57, 120
8, 378872, Note_on_c, 6, 57, 0
8, 380928, Note_on_c, 6, 60, 120
8, 381196, Note_on_c, 6, 60, 0
8, 381312, Note_on_c, 6, 57, 120
8, 381580, Note_on_c, 6, 57, 0
8, 381696, Note_on_c, 6, 54, 120
8, 381964, Note_on_c, 6, 54, 0
8, 382080, Note_on_c, 6, 50, 120
8, 382348, Note_on_c, 6, 50, 0
8, 384000, Note_on_c, 6, 55, 120
8, 384268, Note_on_c, 6, 55, 0
8, 384384, Note_on_c, 6, 50, 120
8, 384652, Note_on_c, 6, 50, 0
8, 384768, Note_on_c, 6, 46, 120
8, 385036, Note_on_c, 6, 46, 0
8, 385152, Note_on_c, 6, 43, 120
8, 385420, Note_on_c, 6, 43, 0
8, 387072, Note_on_c, 6, 56, 120
8, 387340, Note_on_c, 6, 56, 0
8, 387456, Note_on_c, 6, 53, 120
8, 387724, Note_on_c, 6, 53, 0
8, 387840, Note_on_c, 6, 50, 120
8, 388108, Note_on_c, 6, 50, 0
8, 388224, Note_on_c, 6, 47, 120
8, 388492, Note_on_c, 6, 47, 0
8, 390144, Note_on_c, 6, 60, 120
8, 390412, Note_on_c, 6, 60, 0
8, 390528, Note_on_c, 6, 55, 120
8, 390796, Note_on_c, 6, 55, 0
8, 390912, Note_on_c, 6, 51, 120
8, 391180, Note_on_c, 6, 51, 0
8, 391296, Note_on_c, 6, 48, 120
8, 391564, Note_on_c, 6, 48, 0
8, 393216, Note_on_c, 6, 58, 120
8, 393484, Note_on_c, 6, 58, 0
8, 393600, Note_on_c, 6, 55, 120
8, 393868, Note_on_c, 6, 55, 0
8, 393984, Note_on_c, 6, 52, 120
8, 394252, Note_on_c, 6, 52, 0
8, 394368, Note_on_c, 6, 49, 120
8, 394636, Note_on_c, 6, 49, 0
8, 394752, Note_on_c, 6, 50, 120
8, 395136, Note_on_c, 6, 50, 0
8, 395136, Note_on_c, 6, 51, 120
8, 395520, Note_on_c, 6, 51, 0
8, 395520, Note_on_c, 6, 50, 120
8, 395904, Note_on_c, 6, 50, 0
8, 395904, Note_on_c, 6, 49, 120
8, 396288, Note_on_c, 6, 49, 0
8, 396288, Note_on_c, 6, 50, 120
8, 396516, Note_on_c, 6, 50, 0
8, 396672, Note_on_c, 6, 62, 77
8, 396900, Note_on_c, 6, 62, 0
8, 397056, Note_on_c, 6, 50, 77
8, 397284, Note_on_c, 6, 50, 0
8, 397824, Note_on_c, 6, 58, 64
8, 398052, Note_on_c, 6, 58, 0
8, 398208, Note_on_c, 6, 55, 64
8, 398436, Note_on_c, 6, 55, 0
8, 398592, Note_on_c, 6, 60, 64
8, 398820, Note_on_c, 6, 60, 0
8, 398976, Note_on_c, 6, 55, 64
8, 399204, Note_on_c, 6, 55, 0
8, 399360, Note_on_c, 6, 62, 64
8, 399588, Note_on_c, 6, 62, 0
8, 399744, Note_on_c, 6, 55, 64
8, 399972, Note_on_c, 6, 55, 0
8, 400128, Note_on_c, 6, 63, 64
8, 400356, Note_on_c, 6, 63, 0
8, 400512, Note_on_c, 6, 60, 64
8, 400740, Note_on_c, 6, 60, 0
8, 400896, Note_on_c, 6, 58, 64
8, 401124, Note_on_c, 6, 58, 0
8, 401280, Note_on_c, 6, 43, 64
8, 401508, Note_on_c, 6, 43, 0
8, 401664, Note_on_c, 6, 48, 64
8, 401892, Note_on_c, 6, 48, 0
8, 402048, Note_on_c, 6, 43, 64
8, 402276, Note_on_c, 6, 43, 0
8, 402432, Note_on_c, 6, 50, 64
8, 402660, Note_on_c, 6, 50, 0
8, 402816, Note_on_c, 6, 43, 64
8, 403044, Note_on_c, 6, 43, 0
8, 403200, Note_on_c, 6, 51, 64
8, 403428, Note_on_c, 6, 51, 0
8, 403584, Note_on_c, 6, 48, 64
8, 403812, Note_on_c, 6, 48, 0
8, 403968, Note_on_c, 6, 46, 64
8, 404236, Note_on_c, 6, 46, 0
8, 404352, Note_on_c, 6, 49, 64
8, 404620, Note_on_c, 6, 49, 0
8, 404736, Note_on_c, 6, 50, 64
8, 405004, Note_on_c, 6, 50, 0
8, 405120, Note_on_c, 6, 58, 64
8, 405388, Note_on_c, 6, 58, 0
8, 405504, Note_on_c, 6, 57, 64
8, 405772, Note_on_c, 6, 57, 0
8, 405888, Note_on_c, 6, 55, 64
8, 406156, Note_on_c, 6, 55, 0
8, 406272, Note_on_c, 6, 54, 64
8, 406540, Note_on_c, 6, 54, 0
8, 406656, Note_on_c, 6, 55, 64
8, 406924, Note_on_c, 6, 55, 0
8, 407040, Note_on_c, 6, 48, 64
8, 407308, Note_on_c, 6, 48, 0
8, 407424, Note_on_c, 6, 42, 64
8, 407692, Note_on_c, 6, 42, 0
8, 407808, Note_on_c, 6, 43, 64
8, 408076, Note_on_c, 6, 43, 0
8, 408192, Note_on_c, 6, 51, 64
8, 408460, Note_on_c, 6, 51, 0
8, 408576, Note_on_c, 6, 48, 64
8, 408844, Note_on_c, 6, 48, 0
8, 408960, Note_on_c, 6, 50, 64
8, 409228, Note_on_c, 6, 50, 0
8, 409344, Note_on_c, 6, 55, 100
8, 409612, Note_on_c, 6, 55, 0
8, 409728, Note_on_c, 6, 50, 100
8, 409996, Note_on_c, 6, 50, 0
8, 410112, Note_on_c, 6, 54, 80
8, 410380, Note_on_c, 6, 54, 0
8, 410496, Note_on_c, 6, 50, 80
8, 410764, Note_on_c, 6, 50, 0
8, 410880, Note_on_c, 6, 55, 80
8, 411148, Note_on_c, 6, 55, 0
8, 411264, Note_on_c, 6, 50, 80
8, 411532, Note_on_c, 6, 50, 0
8, 411648, Note_on_c, 6, 57, 80
8, 411916, Note_on_c, 6, 57, 0
8, 412032, Note_on_c, 6, 50, 80
8, 412300, Note_on_c, 6, 50, 0
8, 412416, Note_on_c, 6, 58, 80
8, 412684, Note_on_c, 6, 58, 0
8, 412800, Note_on_c, 6, 50, 80
8, 413068, Note_on_c, 6, 50, 0
8, 413184, Note_on_c, 6, 54, 80
8, 413452, Note_on_c, 6, 54, 0
8, 413568, Note_on_c, 6, 50, 80
8, 413836, Note_on_c, 6, 50, 0
8, 413952, Note_on_c, 6, 55, 80
8, 414220, Note_on_c, 6, 55, 0
8, 414336, Note_on_c, 6, 50, 80
8, 414604, Note_on_c, 6, 50, 0
8, 414720, Note_on_c, 6, 57, 80
8, 414988, Note_on_c, 6, 57, 0
8, 415104, Note_on_c, 6, 50, 84
8, 415372, Note_on_c, 6, 50, 0
8, 415488, Note_on_c, 6, 58, 88
8, 415756, Note_on_c, 6, 58, 0
8, 415872, Note_on_c, 6, 49, 92
8, 416140, Note_on_c, 6, 49, 0
8, 416256, Note_on_c, 6, 50, 96
8, 416524, Note_on_c, 6, 50, 0
8, 416640, Note_on_c, 6, 46, 96
8, 416908, Note_on_c, 6, 46, 0
8, 417024, Note_on_c, 6, 45, 96
8, 417292, Note_on_c, 6, 45, 0
8, 417408, Note_on_c, 6, 54, 96
8, 417676, Note_on_c, 6, 54, 0
8, 417792, Note_on_c, 6, 55, 96
8, 418060, Note_on_c, 6, 55, 0
8, 418176, Note_on_c, 6, 43, 96
8, 418444, Note_on_c, 6, 43, 0
8, 418560, Note_on_c, 6, 50, 96
8, 418828, Note_on_c, 6, 50, 0
8, 418944, Note_on_c, 6, 50, 96
8, 419212, Note_on_c, 6, 50, 0
8, 419328, Note_on_c, 6, 51, 96
8, 419596, Note_on_c, 6, 51, 0
8, 419712, Note_on_c, 6, 46, 96
8, 419980, Note_on_c, 6, 46, 0
8, 420096, Note_on_c, 6, 48, 96
8, 420364, Note_on_c, 6, 48, 0
8, 420480, Note_on_c, 6, 50, 96
8, 420748, Note_on_c, 6, 50, 0
8, 420864, Note_on_c, 6, 43, 120
8, 421248, Note_on_c, 6, 43, 0
8, 421824, Note_on_c, 6, 55, 120
8, 421936, Note_on_c, 6, 55, 0
8, 422016, Note_on_c, 6, 58, 120
8, 422128, Note_on_c, 6, 58, 0
8, 422208, Note_on_c, 6, 55, 120
8, 422320, Note_on_c, 6, 55, 0
8, 422400, Note_on_c, 6, 51, 120
8, 422784, Note_on_c, 6, 51, 0
8, 423360, Note_on_c, 6, 51, 120
8, 423472, Note_on_c, 6, 51, 0
8, 423552, Note_on_c, 6, 55, 120
8, 423664, Note_on_c, 6, 55, 0
8, 423744, Note_on_c, 6, 51, 120
8, 423856, Note_on_c, 6, 51, 0
8, 423936, Note_on_c, 6, 50, 120
8, 424164, Note_on_c, 6, 50, 0
8, 424320, Note_on_c, 6, 51, 120
8, 424548, Note_on_c, 6, 51, 0
8, 424704, Note_on_c, 6, 48, 120
8, 424932, Note_on_c, 6, 48, 0
8, 425088, Note_on_c, 6, 50, 120
8, 425316, Note_on_c, 6, 50, 0
8, 425472, Note_on_c, 6, 55, 120
8, 426240, Note_on_c, 6, 55, 0
8, 426624, Note_on_c, 6, 55, 120
8, 426720, Note_on_c, 6, 55, 0
8, 426720, Note_on_c, 6, 57, 120
8, 426816, Note_on_c, 6, 57, 0
8, 426816, Note_on_c, 6, 58, 120
8, 426912, Note_on_c, 6, 58, 0
8, 426912, Note_on_c, 6, 60, 120
8, 427008, Note_on_c, 6, 60, 0
8, 427008, Note_on_c, 6, 62, 120
8, 427776, Note_on_c, 6, 62, 0
8, 428160, Note_on_c, 6, 62, 120
8, 428256, Note_on_c, 6, 62, 0
8, 428256, Note_on_c, 6, 60, 120
8, 428352, Note_on_c, 6, 60, 0
8, 428352, Note_on_c, 6, 58, 120
8, 428448, Note_on_c, 6, 58, 0
8, 428448, Note_on_c, 6, 57, 120
8, 428544, Note_on_c, 6, 57, 0
8, 428544, Note_on_c, 6, 55, 120
8, 429312, Note_on_c, 6, 55, 0
8, 429696, Note_on_c, 6, 55, 120
8, 429792, Note_on_c, 6, 55, 0
8, 429792, Note_on_c, 6, 57, 120
8, 429888, Note_on_c, 6, 57, 0
8, 429888, Note_on_c, 6, 58, 120
8, 429984, Note_on_c, 6, 58, 0
8, 429984, Note_on_c, 6, 60, 120
8, 430080, Note_on_c, 6, 60, 0
8, 430080, Note_on_c, 6, 62, 120
8, 430848, Note_on_c, 6, 62, 0
8, 431232, Note_on_c, 6, 62, 120
8, 431328, Note_on_c, 6, 62, 0
8, 431328, Note_on_c, 6, 60, 120
8, 431424, Note_on_c, 6, 60, 0
8, 431424, Note_on_c, 6, 58, 120
8, 431520, Note_on_c, 6, 58, 0
8, 431520, Note_on_c, 6, 57, 120
8, 431616, Note_on_c, 6, 57, 0
8, 431616, Note_on_c, 6, 55, 120
8, 431920, Note_on_c, 6, 55, 0
8, 432000, Note_on_c, 6, 58, 120
8, 432384, Note_on_c, 6, 58, 0
8, 432384, Note_on_c, 6, 60, 120
8, 432768, Note_on_c, 6, 60, 0
8, 432768, Note_on_c, 6, 62, 120
8, 433152, Note_on_c, 6, 62, 0
8, 433152, Note_on_c, 6, 63, 120
8, 433536, Note_on_c, 6, 63, 0
8, 433536, Note_on_c, 6, 60, 120
8, 433920, Note_on_c, 6, 60, 0
8, 433920, Note_on_c, 6, 57, 120
8, 434304, Note_on_c, 6, 57, 0
8, 434304, Note_on_c, 6, 66, 120
8, 434688, Note_on_c, 6, 66, 0
8, 434688, Note_on_c, 6, 67, 120
8, 434992, Note_on_c, 6, 67, 0
8, 437760, Note_on_c, 6, 67, 120
8, 438064, Note_on_c, 6, 67, 0
8, 438144, Note_on_c, 6, 67, 120
8, 438448, Note_on_c, 6, 67, 0
8, 438528, Note_on_c, 6, 67, 120
8, 438832, Note_on_c, 6, 67, 0
8, 438912, Note_on_c, 6, 67, 120
8, 439216, Note_on_c, 6, 67, 0
8, 439296, Note_on_c, 6, 62, 120
8, 439600, Note_on_c, 6, 62, 0
8, 439680, Note_on_c, 6, 62, 120
8, 439984, Note_on_c, 6, 62, 0
8, 440064, Note_on_c, 6, 62, 120
8, 440368, Note_on_c, 6, 62, 0
8, 440448, Note_on_c, 6, 62, 120
8, 440752, Note_on_c, 6, 62, 0
8, 440832, Note_on_c, 6, 63, 120
8, 441136, Note_on_c, 6, 63, 0
8, 441216, Note_on_c, 6, 63, 120
8, 441520, Note_on_c, 6, 63, 0
8, 441600, Note_on_c, 6, 63, 120
8, 441904, Note_on_c, 6, 63, 0
8, 441984, Note_on_c, 6, 63, 120
8, 442288, Note_on_c, 6, 63, 0
8, 442368, Note_on_c, 6, 59, 120
8, 442520, Note_on_c, 6, 59, 0
8, 442560, Note_on_c, 6, 59, 120
8, 442864, Note_on_c, 6, 59, 0
8, 442944, Note_on_c, 6, 59, 120
8, 443248, Note_on_c, 6, 59, 0
8, 443328, Note_on_c, 6, 59, 120
8, 443632, Note_on_c, 6, 59, 0
8, 443712, Note_on_c, 6, 59, 120
8, 443864, Note_on_c, 6, 59, 0
8, 443904, Note_on_c, 6, 60, 120
8, 444208, Note_on_c, 6, 60, 0
8, 444288, Note_on_c, 6, 60, 120
8, 444592, Note_on_c, 6, 60, 0
8, 444672, Note_on_c, 6, 54, 120
8, 444976, Note_on_c, 6, 54, 0
8, 445056, Note_on_c, 6, 54, 120
8, 445360, Note_on_c, 6, 54, 0
8, 445440, Note_on_c, 6, 55, 120
8, 445744, Note_on_c, 6, 55, 0
8, 445824, Note_on_c, 6, 55, 120
8, 446128, Note_on_c, 6, 55, 0
8, 446208, Note_on_c, 6, 63, 120
8, 446512, Note_on_c, 6, 63, 0
8, 446592, Note_on_c, 6, 63, 120
8, 446896, Note_on_c, 6, 63, 0
8, 446976, Note_on_c, 6, 60, 120
8, 447280, Note_on_c, 6, 60, 0
8, 447360, Note_on_c, 6, 60, 120
8, 447664, Note_on_c, 6, 60, 0
8, 447744, Note_on_c, 6, 62, 120
8, 448048, Note_on_c, 6, 62, 0
8, 448128, Note_on_c, 6, 62, 120
8, 448432, Note_on_c, 6, 62, 0
8, 448512, Note_on_c, 6, 55, 120
8, 448816, Note_on_c, 6, 55, 0
8, 450048, Note_on_c, 6, 55, 120
8, 450352, Note_on_c, 6, 55, 0
8, 450432, Note_on_c, 6, 55, 120
8, 450660, Note_on_c, 6, 55, 0
8, 450720, Note_on_c, 6, 55, 120
8, 450796, Note_on_c, 6, 55, 0
8, 450816, Note_on_c, 6, 55, 120
8, 451120, Note_on_c, 6, 55, 0
8, 451200, Note_on_c, 6, 55, 120
8, 451504, Note_on_c, 6, 55, 0
8, 451584, Note_on_c, 6, 62, 120
8, 452196, Note_on_c, 6, 62, 0
8, 452352, Note_on_c, 6, 58, 120
8, 452656, Note_on_c, 6, 58, 0
8, 452736, Note_on_c, 6, 55, 120
8, 453040, Note_on_c, 6, 55, 0
8, 453120, Note_on_c, 6, 50, 120
8, 453424, Note_on_c, 6, 50, 0
8, 453504, Note_on_c, 6, 55, 120
8, 453808, Note_on_c, 6, 55, 0
8, 453888, Note_on_c, 6, 46, 120
8, 454192, Note_on_c, 6, 46, 0
8, 454272, Note_on_c, 6, 50, 120
8, 454576, Note_on_c, 6, 50, 0
8, 454656, Note_on_c, 6, 43, 120
8, 455040, Note_on_c, 6, 43, 0
8, 455040, End_track
9, 0, Start_track
9, 0, MIDI_port, 0
9, 0, Title_t, "Basso."
9, 0, Control_c, 7, 0, 0
9, 0, Program_c, 7, 48
9, 0, Control_c, 7, 10, 30
9, 0, Control_c, 7, 91, 127
9, 1536, Note_on_c, 7, 55, 120
9, 1688, Note_on_c, 7, 55, 0
9, 1728, Note_on_c, 7, 55, 120
9, 2032, Note_on_c, 7, 55, 0
9, 2112, Note_on_c, 7, 55, 120
9, 2416, Note_on_c, 7, 55, 0
9, 2496, Note_on_c, 7, 55, 120
9, 2800, Note_on_c, 7, 55, 0
9, 2880, Note_on_c, 7, 55, 120
9, 3032, Note_on_c, 7, 55, 0
9, 3072, Note_on_c, 7, 50, 120
9, 3224, Note_on_c, 7, 50, 0
9, 3264, Note_on_c, 7, 50, 120
9, 3568, Note_on_c, 7, 50, 0
9, 3648, Note_on_c, 7, 50, 120
9, 3952, Note_on_c, 7, 50, 0
9, 4032, Note_on_c, 7, 50, 120
9, 4336, Note_on_c, 7, 50, 0
9, 4416, Note_on_c, 7, 50, 120
9, 4568, Note_on_c, 7, 50, 0
9, 4608, Note_on_c, 7, 51, 120
9, 4760, Note_on_c, 7, 51, 0
9, 4800, Note_on_c, 7, 51, 120
9, 5104, Note_on_c, 7, 51, 0
9, 5184, Note_on_c, 7, 51, 120
9, 5488, Note_on_c, 7, 51, 0
9, 5568, Note_on_c, 7, 51, 120
9, 5872, Note_on_c, 7, 51, 0
9, 5952, Note_on_c, 7, 51, 120
9, 6104, Note_on_c, 7, 51, 0
9, 6144, Note_on_c, 7, 42, 120
9, 6296, Note_on_c, 7, 42, 0
9, 6336, Note_on_c, 7, 42, 120
9, 6640, Note_on_c, 7, 42, 0
9, 6720, Note_on_c, 7, 42, 120
9, 7024, Note_on_c, 7, 42, 0
9, 7104, Note_on_c, 7, 42, 120
9, 7408, Note_on_c, 7, 42, 0
9, 7488, Note_on_c, 7, 42, 120
9, 7640, Note_on_c, 7, 42, 0
9, 7680, Note_on_c, 7, 43, 96
9, 7984, Note_on_c, 7, 43, 0
9, 8448, Note_on_c, 7, 46, 96
9, 8544, Note_on_c, 7, 46, 0
9, 8544, Note_on_c, 7, 45, 96
9, 8640, Note_on_c, 7, 45, 0
9, 8640, Note_on_c, 7, 43, 96
9, 8736, Note_on_c, 7, 43, 0
9, 8736, Note_on_c, 7, 42, 96
9, 8832, Note_on_c, 7, 42, 0
9, 8832, Note_on_c, 7, 43, 96
9, 9136, Note_on_c, 7, 43, 0
9, 9984, Note_on_c, 7, 46, 96
9, 10080, Note_on_c, 7, 46, 0
9, 10080, Note_on_c, 7, 45, 96
9, 10176, Note_on_c, 7, 45, 0
9, 10176, Note_on_c, 7, 43, 96
9, 10272, Note_on_c, 7, 43, 0
9, 10272, Note_on_c, 7, 42, 96
9, 10368, Note_on_c, 7, 42, 0
9, 10368, Note_on_c, 7, 43, 96
9, 10672, Note_on_c, 7, 43, 0
9, 11520, Note_on_c, 7, 48, 96
9, 11616, Note_on_c, 7, 48, 0
9, 11616, Note_on_c, 7, 46, 96
9, 11712, Note_on_c, 7, 46, 0
9, 11712, Note_on_c, 7, 45, 96
9, 11808, Note_on_c, 7, 45, 0
9, 11808, Note_on_c, 7, 43, 96
9, 11904, Note_on_c, 7, 43, 0
9, 11904, Note_on_c, 7, 45, 96
9, 12208, Note_on_c, 7, 45, 0
9, 13056, Note_on_c, 7, 48, 96
9, 13152, Note_on_c, 7, 48, 0
9, 13152, Note_on_c, 7, 46, 96
9, 13248, Note_on_c, 7, 46, 0
9, 13248, Note_on_c, 7, 45, 96
9, 13344, Note_on_c, 7, 45, 0
9, 13344, Note_on_c, 7, 43, 96
9, 13420, Note_on_c, 7, 43, 0
9, 13440, Note_on_c, 7, 45, 96
9, 13744, Note_on_c, 7, 45, 0
9, 14592, Note_on_c, 7, 50, 96
9, 14688, Note_on_c, 7, 50, 0
9, 14688, Note_on_c, 7, 48, 96
9, 14784, Note_on_c, 7, 48, 0
9, 14784, Note_on_c, 7, 46, 96
9, 14880, Note_on_c, 7, 46, 0
9, 14880, Note_on_c, 7, 45, 96
9, 14976, Note_on_c, 7, 45, 0
9, 14976, Note_on_c, 7, 46, 96
9, 15168, Note_on_c, 7, 46, 0
9, 15360, Note_on_c, 7, 46, 96
9, 15456, Note_on_c, 7, 46, 0
9, 15456, Note_on_c, 7, 45, 96
9, 15552, Note_on_c, 7, 45, 0
9, 15552, Note_on_c, 7, 43, 96
9, 15648, Note_on_c, 7, 43, 0
9, 15648, Note_on_c, 7, 42, 96
9, 15744, Note_on_c, 7, 42, 0
9, 15744, Note_on_c, 7, 43, 96
9, 15936, Note_on_c, 7, 43, 0
9, 16128, Note_on_c, 7, 55, 96
9, 16224, Note_on_c, 7, 55, 0
9, 16224, Note_on_c, 7, 53, 96
9, 16320, Note_on_c, 7, 53, 0
9, 16320, Note_on_c, 7, 51, 96
9, 16416, Note_on_c, 7, 51, 0
9, 16416, Note_on_c, 7, 50, 96
9, 16512, Note_on_c, 7, 50, 0
9, 16512, Note_on_c, 7, 51, 96
9, 16608, Note_on_c, 7, 51, 0
9, 16608, Note_on_c, 7, 50, 96
9, 16704, Note_on_c, 7, 50, 0
9, 16704, Note_on_c, 7, 48, 96
9, 16800, Note_on_c, 7, 48, 0
9, 16800, Note_on_c, 7, 46, 96
9, 16896, Note_on_c, 7, 46, 0
9, 16896, Note_on_c, 7, 48, 96
9, 17164, Note_on_c, 7, 48, 0
9, 17280, Note_on_c, 7, 46, 96
9, 17548, Note_on_c, 7, 46, 0
9, 17664, Note_on_c, 7, 45, 96
9, 17932, Note_on_c, 7, 45, 0
9, 18048, Note_on_c, 7, 43, 96
9, 18316, Note_on_c, 7, 43, 0
9, 18432, Note_on_c, 7, 42, 96
9, 18700, Note_on_c, 7, 42, 0
9, 18816, Note_on_c, 7, 50, 77
9, 19084, Note_on_c, 7, 50, 0
9, 20352, Note_on_c, 7, 31, 96
9, 20620, Note_on_c, 7, 31, 0
9, 20736, Note_on_c, 7, 34, 96
9, 21004, Note_on_c, 7, 34, 0
9, 21120, Note_on_c, 7, 38, 96
9, 21388, Note_on_c, 7, 38, 0
9, 21888, Note_on_c, 7, 43, 96
9, 22156, Note_on_c, 7, 43, 0
9, 22272, Note_on_c, 7, 46, 96
9, 22540, Note_on_c, 7, 46, 0
9, 22656, Note_on_c, 7, 43, 96
9, 22924, Note_on_c, 7, 43, 0
9, 23424, Note_on_c, 7, 36, 96
9, 23692, Note_on_c, 7, 36, 0
9, 23808, Note_on_c, 7, 43, 96
9, 24076, Note_on_c, 7, 43, 0
9, 24192, Note_on_c, 7, 48, 96
9, 24460, Note_on_c, 7, 48, 0
9, 24960, Note_on_c, 7, 45, 96
9, 25228, Note_on_c, 7, 45, 0
9, 25344, Note_on_c, 7, 50, 96
9, 25612, Note_on_c, 7, 50, 0
9, 25728, Note_on_c, 7, 48, 96
9, 25996, Note_on_c, 7, 48, 0
9, 26112, Note_on_c, 7, 46, 96
9, 26380, Note_on_c, 7, 46, 0
9, 27648, Note_on_c, 7, 43, 51
9, 27952, Note_on_c, 7, 43, 0
9, 29184, Note_on_c, 7, 31, 51
9, 29488, Note_on_c, 7, 31, 0
9, 30720, Note_on_c, 7, 31, 51
9, 31024, Note_on_c, 7, 31, 0
9, 32256, Note_on_c, 7, 43, 51
9, 32560, Note_on_c, 7, 43, 0
9, 33792, Note_on_c, 7, 31, 51
9, 34096, Note_on_c, 7, 31, 0
9, 35328, Note_on_c, 7, 27, 51
9, 35632, Note_on_c, 7, 27, 0
9, 36864, Note_on_c, 7, 39, 51
9, 37168, Note_on_c, 7, 39, 0
9, 38400, Note_on_c, 7, 38, 51
9, 38704, Note_on_c, 7, 38, 0
9, 39936, Note_on_c, 7, 38, 51
9, 40240, Note_on_c, 7, 38, 0
9, 41472, Note_on_c, 7, 38, 51
9, 41776, Note_on_c, 7, 38, 0
9, 42240, Note_on_c, 7, 38, 41
9, 42544, Note_on_c, 7, 38, 0
9, 43008, Note_on_c, 7, 38, 33
9, 43312, Note_on_c, 7, 38, 0
9, 44544, Note_on_c, 7, 34, 96
9, 45232, Note_on_c, 7, 34, 0
9, 47616, Note_on_c, 7, 41, 96
9, 48996, Note_on_c, 7, 41, 0
9, 49152, Note_on_c, 7, 51, 96
9, 50532, Note_on_c, 7, 51, 0
9, 50688, Note_on_c, 7, 50, 96
9, 50752, Note_on_c, 7, 50, 0
9, 50752, Note_on_c, 7, 48, 96
9, 50816, Note_on_c, 7, 48, 0
9, 50816, Note_on_c, 7, 46, 96
9, 51012, Note_on_c, 7, 46, 0
9, 51072, Note_on_c, 7, 46, 96
9, 51204, Note_on_c, 7, 46, 0
9, 51264, Note_on_c, 7, 46, 96
9, 51396, Note_on_c, 7, 46, 0
9, 51456, Note_on_c, 7, 46, 96
9, 51724, Note_on_c, 7, 46, 0
9, 52224, Note_on_c, 7, 50, 96
9, 52288, Note_on_c, 7, 50, 0
9, 52288, Note_on_c, 7, 48, 96
9, 52352, Note_on_c, 7, 48, 0
9, 52352, Note_on_c, 7, 46, 96
9, 52548, Note_on_c, 7, 46, 0
9, 52608, Note_on_c, 7, 46, 96
9, 52740, Note_on_c, 7, 46, 0
9, 52800, Note_on_c, 7, 46, 96
9, 52932, Note_on_c, 7, 46, 0
9, 52992, Note_on_c, 7, 46, 96
9, 53260, Note_on_c, 7, 46, 0
9, 53760, Note_on_c, 7, 41, 96
9, 55140, Note_on_c, 7, 41, 0
9, 55296, Note_on_c, 7, 51, 96
9, 56676, Note_on_c, 7, 51, 0
9, 56832, Note_on_c, 7, 50, 96
9, 56896, Note_on_c, 7, 50, 0
9, 56896, Note_on_c, 7, 48, 96
9, 56960, Note_on_c, 7, 48, 0
9, 56960, Note_on_c, 7, 46, 96
9, 57156, Note_on_c, 7, 46, 0
9, 57216, Note_on_c, 7, 46, 96
9, 57348, Note_on_c, 7, 46, 0
9, 57408, Note_on_c, 7, 46, 96
9, 57540, Note_on_c, 7, 46, 0
9, 57600, Note_on_c, 7, 46, 96
9, 57868, Note_on_c, 7, 46, 0
9, 58368, Note_on_c, 7, 50, 96
9, 58432, Note_on_c, 7, 50, 0
9, 58432, Note_on_c, 7, 48, 96
9, 58496, Note_on_c, 7, 48, 0
9, 58496, Note_on_c, 7, 46, 96
9, 58692, Note_on_c, 7, 46, 0
9, 58752, Note_on_c, 7, 46, 96
9, 58884, Note_on_c, 7, 46, 0
9, 58944, Note_on_c, 7, 46, 96
9, 59076, Note_on_c, 7, 46, 0
9, 59136, Note_on_c, 7, 46, 96
9, 59404, Note_on_c, 7, 46, 0
9, 59904, Note_on_c, 7, 43, 77
9, 59968, Note_on_c, 7, 43, 0
9, 59968, Note_on_c, 7, 41, 77
9, 60032, Note_on_c, 7, 41, 0
9, 60032, Note_on_c, 7, 39, 77
9, 60228, Note_on_c, 7, 39, 0
9, 60288, Note_on_c, 7, 39, 77
9, 60420, Note_on_c, 7, 39, 0
9, 60480, Note_on_c, 7, 39, 77
9, 60612, Note_on_c, 7, 39, 0
9, 60672, Note_on_c, 7, 39, 77
9, 60940, Note_on_c, 7, 39, 0
9, 61440, Note_on_c, 7, 43, 77
9, 61504, Note_on_c, 7, 43, 0
9, 61504, Note_on_c, 7, 41, 77
9, 61568, Note_on_c, 7, 41, 0
9, 61568, Note_on_c, 7, 39, 77
9, 61764, Note_on_c, 7, 39, 0
9, 61824, Note_on_c, 7, 39, 77
9, 61956, Note_on_c, 7, 39, 0
9, 62016, Note_on_c, 7, 39, 77
9, 62148, Note_on_c, 7, 39, 0
9, 62208, Note_on_c, 7, 39, 77
9, 62476, Note_on_c, 7, 39, 0
9, 62976, Note_on_c, 7, 48, 77
9, 63040, Note_on_c, 7, 48, 0
9, 63040, Note_on_c, 7, 46, 77
9, 63104, Note_on_c, 7, 46, 0
9, 63104, Note_on_c, 7, 45, 77
9, 63300, Note_on_c, 7, 45, 0
9, 63360, Note_on_c, 7, 45, 77
9, 63492, Note_on_c, 7, 45, 0
9, 63552, Note_on_c, 7, 45, 77
9, 63684, Note_on_c, 7, 45, 0
9, 63744, Note_on_c, 7, 45, 77
9, 64012, Note_on_c, 7, 45, 0
9, 64512, Note_on_c, 7, 48, 77
9, 64576, Note_on_c, 7, 48, 0
9, 64576, Note_on_c, 7, 46, 77
9, 64640, Note_on_c, 7, 46, 0
9, 64640, Note_on_c, 7, 45, 77
9, 64836, Note_on_c, 7, 45, 0
9, 64896, Note_on_c, 7, 45, 77
9, 65028, Note_on_c, 7, 45, 0
9, 65088, Note_on_c, 7, 45, 77
9, 65220, Note_on_c, 7, 45, 0
9, 65280, Note_on_c, 7, 45, 77
9, 65548, Note_on_c, 7, 45, 0
9, 66048, Note_on_c, 7, 41, 77
9, 66112, Note_on_c, 7, 41, 0
9, 66112, Note_on_c, 7, 39, 77
9, 66176, Note_on_c, 7, 39, 0
9, 66176, Note_on_c, 7, 38, 77
9, 66372, Note_on_c, 7, 38, 0
9, 66432, Note_on_c, 7, 38, 77
9, 66564, Note_on_c, 7, 38, 0
9, 66624, Note_on_c, 7, 38, 77
9, 66756, Note_on_c, 7, 38, 0
9, 66816, Note_on_c, 7, 38, 77
9, 67084, Note_on_c, 7, 38, 0
9, 67584, Note_on_c, 7, 41, 77
9, 67648, Note_on_c, 7, 41, 0
9, 67648, Note_on_c, 7, 39, 77
9, 67712, Note_on_c, 7, 39, 0
9, 67712, Note_on_c, 7, 38, 77
9, 67908, Note_on_c, 7, 38, 0
9, 67968, Note_on_c, 7, 38, 77
9, 68100, Note_on_c, 7, 38, 0
9, 68160, Note_on_c, 7, 38, 77
9, 68292, Note_on_c, 7, 38, 0
9, 68352, Note_on_c, 7, 38, 77
9, 68620, Note_on_c, 7, 38, 0
9, 69120, Note_on_c, 7, 46, 77
9, 69184, Note_on_c, 7, 46, 0
9, 69184, Note_on_c, 7, 45, 77
9, 69248, Note_on_c, 7, 45, 0
9, 69248, Note_on_c, 7, 43, 77
9, 69444, Note_on_c, 7, 43, 0
9, 69504, Note_on_c, 7, 43, 77
9, 69636, Note_on_c, 7, 43, 0
9, 69696, Note_on_c, 7, 43, 77
9, 69828, Note_on_c, 7, 43, 0
9, 69888, Note_on_c, 7, 43, 77
9, 70156, Note_on_c, 7, 43, 0
9, 70656, Note_on_c, 7, 46, 77
9, 70720, Note_on_c, 7, 46, 0
9, 70720, Note_on_c, 7, 45, 77
9, 70784, Note_on_c, 7, 45, 0
9, 70784, Note_on_c, 7, 43, 77
9, 70980, Note_on_c, 7, 43, 0
9, 71040, Note_on_c, 7, 43, 77
9, 71172, Note_on_c, 7, 43, 0
9, 71232, Note_on_c, 7, 43, 77
9, 71364, Note_on_c, 7, 43, 0
9, 71424, Note_on_c, 7, 43, 77
9, 71692, Note_on_c, 7, 43, 0
9, 72192, Note_on_c, 7, 39, 77
9, 72256, Note_on_c, 7, 39, 0
9, 72256, Note_on_c, 7, 38, 77
9, 72320, Note_on_c, 7, 38, 0
9, 72320, Note_on_c, 7, 36, 77
9, 72516, Note_on_c, 7, 36, 0
9, 72576, Note_on_c, 7, 36, 77
9, 72708, Note_on_c, 7, 36, 0
9, 72768, Note_on_c, 7, 36, 77
9, 72900, Note_on_c, 7, 36, 0
9, 72960, Note_on_c, 7, 36, 77
9, 73228, Note_on_c, 7, 36, 0
9, 73728, Note_on_c, 7, 39, 77
9, 73792, Note_on_c, 7, 39, 0
9, 73792, Note_on_c, 7, 38, 77
9, 73856, Note_on_c, 7, 38, 0
9, 73856, Note_on_c, 7, 36, 77
9, 74052, Note_on_c, 7, 36, 0
9, 74112, Note_on_c, 7, 36, 77
9, 74244, Note_on_c, 7, 36, 0
9, 74304, Note_on_c, 7, 36, 77
9, 74436, Note_on_c, 7, 36, 0
9, 74496, Note_on_c, 7, 36, 77
9, 74764, Note_on_c, 7, 36, 0
9, 76800, Note_on_c, 7, 51, 120
9, 77068, Note_on_c, 7, 51, 0
9, 77184, Note_on_c, 7, 48, 120
9, 77452, Note_on_c, 7, 48, 0
9, 77568, Note_on_c, 7, 45, 120
9, 77836, Note_on_c, 7, 45, 0
9, 77952, Note_on_c, 7, 41, 120
9, 78220, Note_on_c, 7, 41, 0
9, 79872, Note_on_c, 7, 46, 120
9, 80140, Note_on_c, 7, 46, 0
9, 80256, Note_on_c, 7, 41, 120
9, 80524, Note_on_c, 7, 41, 0
9, 80640, Note_on_c, 7, 38, 120
9, 80908, Note_on_c, 7, 38, 0
9, 81024, Note_on_c, 7, 34, 120
9, 81292, Note_on_c, 7, 34, 0
9, 82944, Note_on_c, 7, 46, 96
9, 83212, Note_on_c, 7, 46, 0
9, 83328, Note_on_c, 7, 41, 96
9, 83596, Note_on_c, 7, 41, 0
9, 83712, Note_on_c, 7, 37, 96
9, 83980, Note_on_c, 7, 37, 0
9, 84096, Note_on_c, 7, 34, 96
9, 84364, Note_on_c, 7, 34, 0
9, 86016, Note_on_c, 7, 49, 96
9, 86284, Note_on_c, 7, 49, 0
9, 86400, Note_on_c, 7, 46, 96
9, 86668, Note_on_c, 7, 46, 0
9, 86784, Note_on_c, 7, 43, 96
9, 87052, Note_on_c, 7, 43, 0
9, 87168, Note_on_c, 7, 40, 96
9, 87436, Note_on_c, 7, 40, 0
9, 87552, Note_on_c, 7, 41, 92
9, 87936, Note_on_c, 7, 41, 0
9, 87936, Note_on_c, 7, 42, 92
9, 88320, Note_on_c, 7, 42, 0
9, 88320, Note_on_c, 7, 41, 92
9, 88704, Note_on_c, 7, 41, 0
9, 88704, Note_on_c, 7, 40, 92
9, 89088, Note_on_c, 7, 40, 0
9, 89088, Note_on_c, 7, 41, 92
9, 89336, Note_on_c, 7, 41, 0
9, 89472, Note_on_c, 7, 41, 74
9, 89664, Note_on_c, 7, 41, 0
9, 89856, Note_on_c, 7, 29, 74
9, 90104, Note_on_c, 7, 29, 0
9, 90624, Note_on_c, 7, 38, 64
9, 90872, Note_on_c, 7, 38, 0
9, 91008, Note_on_c, 7, 34, 64
9, 91256, Note_on_c, 7, 34, 0
9, 91392, Note_on_c, 7, 39, 64
9, 91640, Note_on_c, 7, 39, 0
9, 91776, Note_on_c, 7, 34, 64
9, 92024, Note_on_c, 7, 34, 0
9, 92160, Note_on_c, 7, 41, 64
9, 92408, Note_on_c, 7, 41, 0
9, 92544, Note_on_c, 7, 34, 64
9, 92792, Note_on_c, 7, 34, 0
9, 92928, Note_on_c, 7, 43, 64
9, 93176, Note_on_c, 7, 43, 0
9, 93312, Note_on_c, 7, 39, 64
9, 93560, Note_on_c, 7, 39, 0
9, 93696, Note_on_c, 7, 38, 64
9, 93944, Note_on_c, 7, 38, 0
9, 94080, Note_on_c, 7, 34, 64
9, 94328, Note_on_c, 7, 34, 0
9, 94464, Note_on_c, 7, 39, 64
9, 94712, Note_on_c, 7, 39, 0
9, 94848, Note_on_c, 7, 34, 64
9, 95096, Note_on_c, 7, 34, 0
9, 95232, Note_on_c, 7, 41, 64
9, 95480, Note_on_c, 7, 41, 0
9, 95616, Note_on_c, 7, 34, 64
9, 95864, Note_on_c, 7, 34, 0
9, 96000, Note_on_c, 7, 43, 64
9, 96248, Note_on_c, 7, 43, 0
9, 96384, Note_on_c, 7, 39, 64
9, 96632, Note_on_c, 7, 39, 0
9, 96768, Note_on_c, 7, 38, 64
9, 97016, Note_on_c, 7, 38, 0
9, 97152, Note_on_c, 7, 40, 64
9, 97400, Note_on_c, 7, 40, 0
9, 97536, Note_on_c, 7, 41, 64
9, 97784, Note_on_c, 7, 41, 0
9, 97920, Note_on_c, 7, 38, 64
9, 98168, Note_on_c, 7, 38, 0
9, 98304, Note_on_c, 7, 36, 64
9, 98552, Note_on_c, 7, 36, 0
9, 98688, Note_on_c, 7, 34, 64
9, 98936, Note_on_c, 7, 34, 0
9, 99072, Note_on_c, 7, 33, 64
9, 99320, Note_on_c, 7, 33, 0
9, 99456, Note_on_c, 7, 34, 64
9, 99704, Note_on_c, 7, 34, 0
9, 99840, Note_on_c, 7, 39, 64
9, 100088, Note_on_c, 7, 39, 0
9, 100224, Note_on_c, 7, 45, 64
9, 100472, Note_on_c, 7, 45, 0
9, 100608, Note_on_c, 7, 46, 64
9, 100856, Note_on_c, 7, 46, 0
9, 100992, Note_on_c, 7, 38, 64
9, 101240, Note_on_c, 7, 38, 0
9, 101376, Note_on_c, 7, 39, 64
9, 101624, Note_on_c, 7, 39, 0
9, 101760, Note_on_c, 7, 41, 64
9, 102008, Note_on_c, 7, 41, 0
9, 102144, Note_on_c, 7, 46, 96
9, 102392, Note_on_c, 7, 46, 0
9, 102528, Note_on_c, 7, 41, 96
9, 102776, Note_on_c, 7, 41, 0
9, 102912, Note_on_c, 7, 45, 96
9, 103160, Note_on_c, 7, 45, 0
9, 103296, Note_on_c, 7, 41, 96
9, 103544, Note_on_c, 7, 41, 0
9, 103680, Note_on_c, 7, 46, 96
9, 103928, Note_on_c, 7, 46, 0
9, 104064, Note_on_c, 7, 41, 96
9, 104312, Note_on_c, 7, 41, 0
9, 104448, Note_on_c, 7, 48, 96
9, 104696, Note_on_c, 7, 48, 0
9, 104832, Note_on_c, 7, 41, 96
9, 105080, Note_on_c, 7, 41, 0
9, 105216, Note_on_c, 7, 50, 96
9, 105464, Note_on_c, 7, 50, 0
9, 105600, Note_on_c, 7, 41, 96
9, 105848, Note_on_c, 7, 41, 0
9, 105984, Note_on_c, 7, 45, 96
9, 106232, Note_on_c, 7, 45, 0
9, 106368, Note_on_c, 7, 41, 96
9, 106616, Note_on_c, 7, 41, 0
9, 106752, Note_on_c, 7, 46, 96
9, 107000, Note_on_c, 7, 46, 0
9, 107136, Note_on_c, 7, 41, 96
9, 107384, Note_on_c, 7, 41, 0
9, 107520, Note_on_c, 7, 48, 96
9, 107768, Note_on_c, 7, 48, 0
9, 107904, Note_on_c, 7, 41, 96
9, 108152, Note_on_c, 7, 41, 0
9, 108288, Note_on_c, 7, 50, 96
9, 108536, Note_on_c, 7, 50, 0
9, 108672, Note_on_c, 7, 51, 96
9, 108920, Note_on_c, 7, 51, 0
9, 109056, Note_on_c, 7, 53, 96
9, 109304, Note_on_c, 7, 53, 0
9, 109440, Note_on_c, 7, 50, 96
9, 109688, Note_on_c, 7, 50, 0
9, 109824, Note_on_c, 7, 48, 96
9, 110072, Note_on_c, 7, 48, 0
9, 110208, Note_on_c, 7, 45, 96
9, 110456, Note_on_c, 7, 45, 0
9, 110592, Note_on_c, 7, 46, 96
9, 110840, Note_on_c, 7, 46, 0
9, 110976, Note_on_c, 7, 34, 96
9, 111224, Note_on_c, 7, 34, 0
9, 111360, Note_on_c, 7, 41, 96
9, 111608, Note_on_c, 7, 41, 0
9, 111744, Note_on_c, 7, 42, 96
9, 111992, Note_on_c, 7, 42, 0
9, 112128, Note_on_c, 7, 43, 96
9, 112376, Note_on_c, 7, 43, 0
9, 112512, Note_on_c, 7, 38, 96
9, 112760, Note_on_c, 7, 38, 0
9, 112896, Note_on_c, 7, 39, 96
9, 113144, Note_on_c, 7, 39, 0
9, 113280, Note_on_c, 7, 41, 96
9, 113528, Note_on_c, 7, 41, 0
9, 113664, Note_on_c, 7, 34, 120
9, 114008, Note_on_c, 7, 34, 0
9, 114624, Note_on_c, 7, 46, 120
9, 114748, Note_on_c, 7, 46, 0
9, 114816, Note_on_c, 7, 50, 120
9, 114940, Note_on_c, 7, 50, 0
9, 115008, Note_on_c, 7, 46, 120
9, 115132, Note_on_c, 7, 46, 0
9, 115200, Note_on_c, 7, 43, 120
9, 115544, Note_on_c, 7, 43, 0
9, 116160, Note_on_c, 7, 39, 120
9, 116284, Note_on_c, 7, 39, 0
9, 116352, Note_on_c, 7, 43, 120
9, 116476, Note_on_c, 7, 43, 0
9, 116544, Note_on_c, 7, 39, 120
9, 116668, Note_on_c, 7, 39, 0
9, 116736, Note_on_c, 7, 38, 120
9, 117004, Note_on_c, 7, 38, 0
9, 117120, Note_on_c, 7, 43, 120
9, 117388, Note_on_c, 7, 43, 0
9, 117504, Note_on_c, 7, 39, 120
9, 117772, Note_on_c, 7, 39, 0
9, 117888, Note_on_c, 7, 41, 120
9, 118156, Note_on_c, 7, 41, 0
9, 118272, Note_on_c, 7, 34, 120
9, 119040, Note_on_c, 7, 34, 0
9, 119424, Note_on_c, 7, 34, 120
9, 119520, Note_on_c, 7, 34, 0
9, 119520, Note_on_c, 7, 36, 120
9, 119616, Note_on_c, 7, 36, 0
9, 119616, Note_on_c, 7, 38, 120
9, 119712, Note_on_c, 7, 38, 0
9, 119712, Note_on_c, 7, 39, 120
9, 119808, Note_on_c, 7, 39, 0
9, 119808, Note_on_c, 7, 41, 120
9, 120576, Note_on_c, 7, 41, 0
9, 120960, Note_on_c, 7, 41, 120
9, 121056, Note_on_c, 7, 41, 0
9, 121056, Note_on_c, 7, 39, 120
9, 121152, Note_on_c, 7, 39, 0
9, 121152, Note_on_c, 7, 38, 120
9, 121248, Note_on_c, 7, 38, 0
9, 121248, Note_on_c, 7, 36, 120
9, 121344, Note_on_c, 7, 36, 0
9, 121344, Note_on_c, 7, 34, 120
9, 122112, Note_on_c, 7, 34, 0
9, 122496, Note_on_c, 7, 34, 120
9, 122592, Note_on_c, 7, 34, 0
9, 122592, Note_on_c, 7, 36, 120
9, 122688, Note_on_c, 7, 36, 0
9, 122688, Note_on_c, 7, 38, 120
9, 122784, Note_on_c, 7, 38, 0
9, 122784, Note_on_c, 7, 39, 120
9, 122880, Note_on_c, 7, 39, 0
9, 122880, Note_on_c, 7, 41, 120
9, 123648, Note_on_c, 7, 41, 0
9, 124032, Note_on_c, 7, 41, 120
9, 124128, Note_on_c, 7, 41, 0
9, 124128, Note_on_c, 7, 39, 120
9, 124224, Note_on_c, 7, 39, 0
9, 124224, Note_on_c, 7, 38, 120
9, 124320, Note_on_c, 7, 38, 0
9, 124320, Note_on_c, 7, 36, 120
9, 124416, Note_on_c, 7, 36, 0
9, 124416, Note_on_c, 7, 34, 120
9, 124720, Note_on_c, 7, 34, 0
9, 124800, Note_on_c, 7, 46, 120
9, 125184, Note_on_c, 7, 46, 0
9, 125184, Note_on_c, 7, 48, 120
9, 125568, Note_on_c, 7, 48, 0
9, 125568, Note_on_c, 7, 50, 120
9, 125952, Note_on_c, 7, 50, 0
9, 125952, Note_on_c, 7, 51, 120
9, 126336, Note_on_c, 7, 51, 0
9, 126336, Note_on_c, 7, 48, 120
9, 126720, Note_on_c, 7, 48, 0
9, 126720, Note_on_c, 7, 45, 120
9, 127104, Note_on_c, 7, 45, 0
9, 127104, Note_on_c, 7, 54, 120
9, 127488, Note_on_c, 7, 54, 0
9, 127488, Note_on_c, 7, 55, 120
9, 127640, Note_on_c, 7, 55, 0
9, 127680, Note_on_c, 7, 55, 120
9, 127984, Note_on_c, 7, 55, 0
9, 128064, Note_on_c, 7, 55, 120
9, 128368, Note_on_c, 7, 55, 0
9, 128448, Note_on_c, 7, 55, 120
9, 128752, Note_on_c, 7, 55, 0
9, 128832, Note_on_c, 7, 55, 120
9, 128984, Note_on_c, 7, 55, 0
9, 129024, Note_on_c, 7, 50, 120
9, 129176, Note_on_c, 7, 50, 0
9, 129216, Note_on_c, 7, 50, 120
9, 129520, Note_on_c, 7, 50, 0
9, 129600, Note_on_c, 7, 50, 120
9, 129904, Note_on_c, 7, 50, 0
9, 129984, Note_on_c, 7, 50, 120
9, 130288, Note_on_c, 7, 50, 0
9, 130368, Note_on_c, 7, 50, 120
9, 130520, Note_on_c, 7, 50, 0
9, 130560, Note_on_c, 7, 51, 120
9, 130712, Note_on_c, 7, 51, 0
9, 130752, Note_on_c, 7, 51, 120
9, 131056, Note_on_c, 7, 51, 0
9, 131136, Note_on_c, 7, 51, 120
9, 131440, Note_on_c, 7, 51, 0
9, 131520, Note_on_c, 7, 51, 120
9, 131824, Note_on_c, 7, 51, 0
9, 131904, Note_on_c, 7, 51, 120
9, 132056, Note_on_c, 7, 51, 0
9, 132096, Note_on_c, 7, 42, 120
9, 132248, Note_on_c, 7, 42, 0
9, 132288, Note_on_c, 7, 42, 120
9, 132592, Note_on_c, 7, 42, 0
9, 132672, Note_on_c, 7, 42, 120
9, 132976, Note_on_c, 7, 42, 0
9, 133056, Note_on_c, 7, 42, 120
9, 133360, Note_on_c, 7, 42, 0
9, 133440, Note_on_c, 7, 42, 120
9, 133592, Note_on_c, 7, 42, 0
9, 133632, Note_on_c, 7, 43, 96
9, 133936, Note_on_c, 7, 43, 0
9, 134400, Note_on_c, 7, 46, 96
9, 134496, Note_on_c, 7, 46, 0
9, 134496, Note_on_c, 7, 45, 96
9, 134592, Note_on_c, 7, 45, 0
9, 134592, Note_on_c, 7, 43, 96
9, 134688, Note_on_c, 7, 43, 0
9, 134688, Note_on_c, 7, 42, 96
9, 134784, Note_on_c, 7, 42, 0
9, 134784, Note_on_c, 7, 43, 96
9, 135088, Note_on_c, 7, 43, 0
9, 135936, Note_on_c, 7, 46, 96
9, 136032, Note_on_c, 7, 46, 0
9, 136032, Note_on_c, 7, 45, 96
9, 136128, Note_on_c, 7, 45, 0
9, 136128, Note_on_c, 7, 43, 96
9, 136224, Note_on_c, 7, 43, 0
9, 136224, Note_on_c, 7, 42, 96
9, 136320, Note_on_c, 7, 42, 0
9, 136320, Note_on_c, 7, 43, 96
9, 136624, Note_on_c, 7, 43, 0
9, 137472, Note_on_c, 7, 48, 96
9, 137568, Note_on_c, 7, 48, 0
9, 137568, Note_on_c, 7, 46, 96
9, 137664, Note_on_c, 7, 46, 0
9, 137664, Note_on_c, 7, 45, 96
9, 137760, Note_on_c, 7, 45, 0
9, 137760, Note_on_c, 7, 43, 96
9, 137856, Note_on_c, 7, 43, 0
9, 137856, Note_on_c, 7, 45, 96
9, 138160, Note_on_c, 7, 45, 0
9, 139008, Note_on_c, 7, 48, 96
9, 139104, Note_on_c, 7, 48, 0
9, 139104, Note_on_c, 7, 46, 96
9, 139200, Note_on_c, 7, 46, 0
9, 139200, Note_on_c, 7, 45, 96
9, 139296, Note_on_c, 7, 45, 0
9, 139296, Note_on_c, 7, 43, 96
9, 139372, Note_on_c, 7, 43, 0
9, 139392, Note_on_c, 7, 45, 96
9, 139696, Note_on_c, 7, 45, 0
9, 140544, Note_on_c, 7, 50, 96
9, 140640, Note_on_c, 7, 50, 0
9, 140640, Note_on_c, 7, 48, 96
9, 140736, Note_on_c, 7, 48, 0
9, 140736, Note_on_c, 7, 46, 96
9, 140832, Note_on_c, 7, 46, 0
9, 140832, Note_on_c, 7, 45, 96
9, 140928, Note_on_c, 7, 45, 0
9, 140928, Note_on_c, 7, 46, 96
9, 141120, Note_on_c, 7, 46, 0
9, 141312, Note_on_c, 7, 46, 96
9, 141408, Note_on_c, 7, 46, 0
9, 141408, Note_on_c, 7, 45, 96
9, 141504, Note_on_c, 7, 45, 0
9, 141504, Note_on_c, 7, 43, 96
9, 141600, Note_on_c, 7, 43, 0
9, 141600, Note_on_c, 7, 42, 96
9, 141696, Note_on_c, 7, 42, 0
9, 141696, Note_on_c, 7, 43, 96
9, 141888, Note_on_c, 7, 43, 0
9, 142080, Note_on_c, 7, 55, 96
9, 142176, Note_on_c, 7, 55, 0
9, 142176, Note_on_c, 7, 53, 96
9, 142272, Note_on_c, 7, 53, 0
9, 142272, Note_on_c, 7, 51, 96
9, 142368, Note_on_c, 7, 51, 0
9, 142368, Note_on_c, 7, 50, 96
9, 142464, Note_on_c, 7, 50, 0
9, 142464, Note_on_c, 7, 51, 96
9, 142560, Note_on_c, 7, 51, 0
9, 142560, Note_on_c, 7, 50, 96
9, 142656, Note_on_c, 7, 50, 0
9, 142656, Note_on_c, 7, 48, 96
9, 142752, Note_on_c, 7, 48, 0
9, 142752, Note_on_c, 7, 46, 96
9, 142848, Note_on_c, 7, 46, 0
9, 142848, Note_on_c, 7, 48, 96
9, 143116, Note_on_c, 7, 48, 0
9, 143232, Note_on_c, 7, 46, 96
9, 143500, Note_on_c, 7, 46, 0
9, 143616, Note_on_c, 7, 45, 96
9, 143884, Note_on_c, 7, 45, 0
9, 144000, Note_on_c, 7, 43, 96
9, 144268, Note_on_c, 7, 43, 0
9, 144384, Note_on_c, 7, 42, 96
9, 144652, Note_on_c, 7, 42, 0
9, 144768, Note_on_c, 7, 50, 77
9, 145036, Note_on_c, 7, 50, 0
9, 146304, Note_on_c, 7, 31, 96
9, 146572, Note_on_c, 7, 31, 0
9, 146688, Note_on_c, 7, 34, 96
9, 146956, Note_on_c, 7, 34, 0
9, 147072, Note_on_c, 7, 38, 96
9, 147340, Note_on_c, 7, 38, 0
9, 147840, Note_on_c, 7, 43, 96
9, 148108, Note_on_c, 7, 43, 0
9, 148224, Note_on_c, 7, 46, 96
9, 148492, Note_on_c, 7, 46, 0
9, 148608, Note_on_c, 7, 43, 96
9, 148876, Note_on_c, 7, 43, 0
9, 149376, Note_on_c, 7, 36, 96
9, 149644, Note_on_c, 7, 36, 0
9, 149760, Note_on_c, 7, 43, 96
9, 150028, Note_on_c, 7, 43, 0
9, 150144, Note_on_c, 7, 48, 96
9, 150412, Note_on_c, 7, 48, 0
9, 150912, Note_on_c, 7, 45, 96
9, 151180, Note_on_c, 7, 45, 0
9, 151296, Note_on_c, 7, 50, 96
9, 151564, Note_on_c, 7, 50, 0
9, 151680, Note_on_c, 7, 48, 96
9, 151948, Note_on_c, 7, 48, 0
9, 152064, Note_on_c, 7, 46, 96
9, 152332, Note_on_c, 7, 46, 0
9, 153600, Note_on_c, 7, 43, 51
9, 153904, Note_on_c, 7, 43, 0
9, 155136, Note_on_c, 7, 31, 51
9, 155440, Note_on_c, 7, 31, 0
9, 156672, Note_on_c, 7, 31, 51
9, 156976, Note_on_c, 7, 31, 0
9, 158208, Note_on_c, 7, 43, 51
9, 158512, Note_on_c, 7, 43, 0
9, 159744, Note_on_c, 7, 31, 51
9, 160048, Note_on_c, 7, 31, 0
9, 161280, Note_on_c, 7, 27, 51
9, 161584, Note_on_c, 7, 27, 0
9, 162816, Note_on_c, 7, 39, 51
9, 163120, Note_on_c, 7, 39, 0
9, 164352, Note_on_c, 7, 38, 51
9, 164656, Note_on_c, 7, 38, 0
9, 165888, Note_on_c, 7, 38, 51
9, 166192, Note_on_c, 7, 38, 0
9, 167424, Note_on_c, 7, 38, 51
9, 167728, Note_on_c, 7, 38, 0
9, 168192, Note_on_c, 7, 38, 41
9, 168496, Note_on_c, 7, 38, 0
9, 168960, Note_on_c, 7, 38, 33
9, 169264, Note_on_c, 7, 38, 0
9, 170496, Note_on_c, 7, 34, 96
9, 171184, Note_on_c, 7, 34, 0
9, 173568, Note_on_c, 7, 41, 96
9, 174948, Note_on_c, 7, 41, 0
9, 175104, Note_on_c, 7, 51, 96
9, 176484, Note_on_c, 7, 51, 0
9, 176640, Note_on_c, 7, 50, 96
9, 176704, Note_on_c, 7, 50, 0
9, 176704, Note_on_c, 7, 48, 96
9, 176768, Note_on_c, 7, 48, 0
9, 176768, Note_on_c, 7, 46, 96
9, 176964, Note_on_c, 7, 46, 0
9, 177024, Note_on_c, 7, 46, 96
9, 177156, Note_on_c, 7, 46, 0
9, 177216, Note_on_c, 7, 46, 96
9, 177348, Note_on_c, 7, 46, 0
9, 177408, Note_on_c, 7, 46, 96
9, 177676, Note_on_c, 7, 46, 0
9, 178176, Note_on_c, 7, 50, 96
9, 178240, Note_on_c, 7, 50, 0
9, 178240, Note_on_c, 7, 48, 96
9, 178304, Note_on_c, 7, 48, 0
9, 178304, Note_on_c, 7, 46, 96
9, 178500, Note_on_c, 7, 46, 0
9, 178560, Note_on_c, 7, 46, 96
9, 178692, Note_on_c, 7, 46, 0
9, 178752, Note_on_c, 7, 46, 96
9, 178884, Note_on_c, 7, 46, 0
9, 178944, Note_on_c, 7, 46, 96
9, 179212, Note_on_c, 7, 46, 0
9, 179712, Note_on_c, 7, 41, 96
9, 181092, Note_on_c, 7, 41, 0
9, 181248, Note_on_c, 7, 51, 96
9, 182628, Note_on_c, 7, 51, 0
9, 182784, Note_on_c, 7, 50, 96
9, 182848, Note_on_c, 7, 50, 0
9, 182848, Note_on_c, 7, 48, 96
9, 182912, Note_on_c, 7, 48, 0
9, 182912, Note_on_c, 7, 46, 96
9, 183108, Note_on_c, 7, 46, 0
9, 183168, Note_on_c, 7, 46, 96
9, 183300, Note_on_c, 7, 46, 0
9, 183360, Note_on_c, 7, 46, 96
9, 183492, Note_on_c, 7, 46, 0
9, 183552, Note_on_c, 7, 46, 96
9, 183820, Note_on_c, 7, 46, 0
9, 184320, Note_on_c, 7, 50, 96
9, 184384, Note_on_c, 7, 50, 0
9, 184384, Note_on_c, 7, 48, 96
9, 184448, Note_on_c, 7, 48, 0
9, 184448, Note_on_c, 7, 46, 96
9, 184644, Note_on_c, 7, 46, 0
9, 184704, Note_on_c, 7, 46, 96
9, 184836, Note_on_c, 7, 46, 0
9, 184896, Note_on_c, 7, 46, 96
9, 185028, Note_on_c, 7, 46, 0
9, 185088, Note_on_c, 7, 46, 96
9, 185356, Note_on_c, 7, 46, 0
9, 185856, Note_on_c, 7, 43, 77
9, 185920, Note_on_c, 7, 43, 0
9, 185920, Note_on_c, 7, 41, 77
9, 185984, Note_on_c, 7, 41, 0
9, 185984, Note_on_c, 7, 39, 77
9, 186180, Note_on_c, 7, 39, 0
9, 186240, Note_on_c, 7, 39, 77
9, 186372, Note_on_c, 7, 39, 0
9, 186432, Note_on_c, 7, 39, 77
9, 186564, Note_on_c, 7, 39, 0
9, 186624, Note_on_c, 7, 39, 77
9, 186892, Note_on_c, 7, 39, 0
9, 187392, Note_on_c, 7, 43, 77
9, 187456, Note_on_c, 7, 43, 0
9, 187456, Note_on_c, 7, 41, 77
9, 187520, Note_on_c, 7, 41, 0
9, 187520, Note_on_c, 7, 39, 77
9, 187716, Note_on_c, 7, 39, 0
9, 187776, Note_on_c, 7, 39, 77
9, 187908, Note_on_c, 7, 39, 0
9, 187968, Note_on_c, 7, 39, 77
9, 188100, Note_on_c, 7, 39, 0
9, 188160, Note_on_c, 7, 39, 77
9, 188428, Note_on_c, 7, 39, 0
9, 188928, Note_on_c, 7, 48, 77
9, 188992, Note_on_c, 7, 48, 0
9, 188992, Note_on_c, 7, 46, 77
9, 189056, Note_on_c, 7, 46, 0
9, 189056, Note_on_c, 7, 45, 77
9, 189252, Note_on_c, 7, 45, 0
9, 189312, Note_on_c, 7, 45, 77
9, 189444, Note_on_c, 7, 45, 0
9, 189504, Note_on_c, 7, 45, 77
9, 189636, Note_on_c, 7, 45, 0
9, 189696, Note_on_c, 7, 45, 77
9, 189964, Note_on_c, 7, 45, 0
9, 190464, Note_on_c, 7, 48, 77
9, 190528, Note_on_c, 7, 48, 0
9, 190528, Note_on_c, 7, 46, 77
9, 190592, Note_on_c, 7, 46, 0
9, 190592, Note_on_c, 7, 45, 77
9, 190788, Note_on_c, 7, 45, 0
9, 190848, Note_on_c, 7, 45, 77
9, 190980, Note_on_c, 7, 45, 0
9, 191040, Note_on_c, 7, 45, 77
9, 191172, Note_on_c, 7, 45, 0
9, 191232, Note_on_c, 7, 45, 77
9, 191500, Note_on_c, 7, 45, 0
9, 192000, Note_on_c, 7, 41, 77
9, 192064, Note_on_c, 7, 41, 0
9, 192064, Note_on_c, 7, 39, 77
9, 192128, Note_on_c, 7, 39, 0
9, 192128, Note_on_c, 7, 38, 77
9, 192324, Note_on_c, 7, 38, 0
9, 192384, Note_on_c, 7, 38, 77
9, 192516, Note_on_c, 7, 38, 0
9, 192576, Note_on_c, 7, 38, 77
9, 192708, Note_on_c, 7, 38, 0
9, 192768, Note_on_c, 7, 38, 77
9, 193036, Note_on_c, 7, 38, 0
9, 193536, Note_on_c, 7, 41, 77
9, 193600, Note_on_c, 7, 41, 0
9, 193600, Note_on_c, 7, 39, 77
9, 193664, Note_on_c, 7, 39, 0
9, 193664, Note_on_c, 7, 38, 77
9, 193860, Note_on_c, 7, 38, 0
9, 193920, Note_on_c, 7, 38, 77
9, 194052, Note_on_c, 7, 38, 0
9, 194112, Note_on_c, 7, 38, 77
9, 194244, Note_on_c, 7, 38, 0
9, 194304, Note_on_c, 7, 38, 77
9, 194572, Note_on_c, 7, 38, 0
9, 195072, Note_on_c, 7, 46, 77
9, 195136, Note_on_c, 7, 46, 0
9, 195136, Note_on_c, 7, 45, 77
9, 195200, Note_on_c, 7, 45, 0
9, 195200, Note_on_c, 7, 43, 77
9, 195396, Note_on_c, 7, 43, 0
9, 195456, Note_on_c, 7, 43, 77
9, 195588, Note_on_c, 7, 43, 0
9, 195648, Note_on_c, 7, 43, 77
9, 195780, Note_on_c, 7, 43, 0
9, 195840, Note_on_c, 7, 43, 77
9, 196108, Note_on_c, 7, 43, 0
9, 196608, Note_on_c, 7, 46, 77
9, 196672, Note_on_c, 7, 46, 0
9, 196672, Note_on_c, 7, 45, 77
9, 196736, Note_on_c, 7, 45, 0
9, 196736, Note_on_c, 7, 43, 77
9, 196932, Note_on_c, 7, 43, 0
9, 196992, Note_on_c, 7, 43, 77
9, 197124, Note_on_c, 7, 43, 0
9, 197184, Note_on_c, 7, 43, 77
9, 197316, Note_on_c, 7, 43, 0
9, 197376, Note_on_c, 7, 43, 77
9, 197644, Note_on_c, 7, 43, 0
9, 198144, Note_on_c, 7, 39, 77
9, 198208, Note_on_c, 7, 39, 0
9, 198208, Note_on_c, 7, 38, 77
9, 198272, Note_on_c, 7, 38, 0
9, 198272, Note_on_c, 7, 36, 77
9, 198468, Note_on_c, 7, 36, 0
9, 198528, Note_on_c, 7, 36, 77
9, 198660, Note_on_c, 7, 36, 0
9, 198720, Note_on_c, 7, 36, 77
9, 198852, Note_on_c, 7, 36, 0
9, 198912, Note_on_c, 7, 36, 77
9, 199180, Note_on_c, 7, 36, 0
9, 199680, Note_on_c, 7, 39, 77
9, 199744, Note_on_c, 7, 39, 0
9, 199744, Note_on_c, 7, 38, 77
9, 199808, Note_on_c, 7, 38, 0
9, 199808, Note_on_c, 7, 36, 77
9, 200004, Note_on_c, 7, 36, 0
9, 200064, Note_on_c, 7, 36, 77
9, 200196, Note_on_c, 7, 36, 0
9, 200256, Note_on_c, 7, 36, 77
9, 200388, Note_on_c, 7, 36, 0
9, 200448, Note_on_c, 7, 36, 77
9, 200716, Note_on_c, 7, 36, 0
9, 202752, Note_on_c, 7, 51, 120
9, 203020, Note_on_c, 7, 51, 0
9, 203136, Note_on_c, 7, 48, 120
9, 203404, Note_on_c, 7, 48, 0
9, 203520, Note_on_c, 7, 45, 120
9, 203788, Note_on_c, 7, 45, 0
9, 203904, Note_on_c, 7, 41, 120
9, 204172, Note_on_c, 7, 41, 0
9, 205824, Note_on_c, 7, 46, 120
9, 206092, Note_on_c, 7, 46, 0
9, 206208, Note_on_c, 7, 41, 120
9, 206476, Note_on_c, 7, 41, 0
9, 206592, Note_on_c, 7, 38, 120
9, 206860, Note_on_c, 7, 38, 0
9, 206976, Note_on_c, 7, 34, 120
9, 207244, Note_on_c, 7, 34, 0
9, 208896, Note_on_c, 7, 46, 96
9, 209164, Note_on_c, 7, 46, 0
9, 209280, Note_on_c, 7, 41, 96
9, 209548, Note_on_c, 7, 41, 0
9, 209664, Note_on_c, 7, 37, 96
9, 209932, Note_on_c, 7, 37, 0
9, 210048, Note_on_c, 7, 34, 96
9, 210316, Note_on_c, 7, 34, 0
9, 211968, Note_on_c, 7, 49, 96
9, 212236, Note_on_c, 7, 49, 0
9, 212352, Note_on_c, 7, 46, 96
9, 212620, Note_on_c, 7, 46, 0
9, 212736, Note_on_c, 7, 43, 96
9, 213004, Note_on_c, 7, 43, 0
9, 213120, Note_on_c, 7, 40, 96
9, 213388, Note_on_c, 7, 40, 0
9, 213504, Note_on_c, 7, 41, 92
9, 213888, Note_on_c, 7, 41, 0
9, 213888, Note_on_c, 7, 42, 92
9, 214272, Note_on_c, 7, 42, 0
9, 214272, Note_on_c, 7, 41, 92
9, 214656, Note_on_c, 7, 41, 0
9, 214656, Note_on_c, 7, 40, 92
9, 215040, Note_on_c, 7, 40, 0
9, 215040, Note_on_c, 7, 41, 92
9, 215288, Note_on_c, 7, 41, 0
9, 215424, Note_on_c, 7, 41, 74
9, 215616, Note_on_c, 7, 41, 0
9, 215808, Note_on_c, 7, 29, 74
9, 216056, Note_on_c, 7, 29, 0
9, 216576, Note_on_c, 7, 38, 64
9, 216824, Note_on_c, 7, 38, 0
9, 216960, Note_on_c, 7, 34, 64
9, 217208, Note_on_c, 7, 34, 0
9, 217344, Note_on_c, 7, 39, 64
9, 217592, Note_on_c, 7, 39, 0
9, 217728, Note_on_c, 7, 34, 64
9, 217976, Note_on_c, 7, 34, 0
9, 218112, Note_on_c, 7, 41, 64
9, 218360, Note_on_c, 7, 41, 0
9, 218496, Note_on_c, 7, 34, 64
9, 218744, Note_on_c, 7, 34, 0
9, 218880, Note_on_c, 7, 43, 64
9, 219128, Note_on_c, 7, 43, 0
9, 219264, Note_on_c, 7, 39, 64
9, 219512, Note_on_c, 7, 39, 0
9, 219648, Note_on_c, 7, 38, 64
9, 219896, Note_on_c, 7, 38, 0
9, 220032, Note_on_c, 7, 34, 64
9, 220280, Note_on_c, 7, 34, 0
9, 220416, Note_on_c, 7, 39, 64
9, 220664, Note_on_c, 7, 39, 0
9, 220800, Note_on_c, 7, 34, 64
9, 221048, Note_on_c, 7, 34, 0
9, 221184, Note_on_c, 7, 41, 64
9, 221432, Note_on_c, 7, 41, 0
9, 221568, Note_on_c, 7, 34, 64
9, 221816, Note_on_c, 7, 34, 0
9, 221952, Note_on_c, 7, 43, 64
9, 222200, Note_on_c, 7, 43, 0
9, 222336, Note_on_c, 7, 39, 64
9, 222584, Note_on_c, 7, 39, 0
9, 222720, Note_on_c, 7, 38, 64
9, 222968, Note_on_c, 7, 38, 0
9, 223104, Note_on_c, 7, 40, 64
9, 223352, Note_on_c, 7, 40, 0
9, 223488, Note_on_c, 7, 41, 64
9, 223736, Note_on_c, 7, 41, 0
9, 223872, Note_on_c, 7, 38, 64
9, 224120, Note_on_c, 7, 38, 0
9, 224256, Note_on_c, 7, 36, 64
9, 224504, Note_on_c, 7, 36, 0
9, 224640, Note_on_c, 7, 34, 64
9, 224888, Note_on_c, 7, 34, 0
9, 225024, Note_on_c, 7, 33, 64
9, 225272, Note_on_c, 7, 33, 0
9, 225408, Note_on_c, 7, 34, 64
9, 225656, Note_on_c, 7, 34, 0
9, 225792, Note_on_c, 7, 39, 64
9, 226040, Note_on_c, 7, 39, 0
9, 226176, Note_on_c, 7, 45, 64
9, 226424, Note_on_c, 7, 45, 0
9, 226560, Note_on_c, 7, 46, 64
9, 226808, Note_on_c, 7, 46, 0
9, 226944, Note_on_c, 7, 38, 64
9, 227192, Note_on_c, 7, 38, 0
9, 227328, Note_on_c, 7, 39, 64
9, 227576, Note_on_c, 7, 39, 0
9, 227712, Note_on_c, 7, 41, 64
9, 227960, Note_on_c, 7, 41, 0
9, 228096, Note_on_c, 7, 46, 96
9, 228344, Note_on_c, 7, 46, 0
9, 228480, Note_on_c, 7, 41, 96
9, 228728, Note_on_c, 7, 41, 0
9, 228864, Note_on_c, 7, 45, 96
9, 229112, Note_on_c, 7, 45, 0
9, 229248, Note_on_c, 7, 41, 96
9, 229496, Note_on_c, 7, 41, 0
9, 229632, Note_on_c, 7, 46, 96
9, 229880, Note_on_c, 7, 46, 0
9, 230016, Note_on_c, 7, 41, 96
9, 230264, Note_on_c, 7, 41, 0
9, 230400, Note_on_c, 7, 48, 96
9, 230648, Note_on_c, 7, 48, 0
9, 230784, Note_on_c, 7, 41, 96
9, 231032, Note_on_c, 7, 41, 0
9, 231168, Note_on_c, 7, 50, 96
9, 231416, Note_on_c, 7, 50, 0
9, 231552, Note_on_c, 7, 41, 96
9, 231800, Note_on_c, 7, 41, 0
9, 231936, Note_on_c, 7, 45, 96
9, 232184, Note_on_c, 7, 45, 0
9, 232320, Note_on_c, 7, 41, 96
9, 232568, Note_on_c, 7, 41, 0
9, 232704, Note_on_c, 7, 46, 96
9, 232952, Note_on_c, 7, 46, 0
9, 233088, Note_on_c, 7, 41, 96
9, 233336, Note_on_c, 7, 41, 0
9, 233472, Note_on_c, 7, 48, 96
9, 233720, Note_on_c, 7, 48, 0
9, 233856, Note_on_c, 7, 41, 96
9, 234104, Note_on_c, 7, 41, 0
9, 234240, Note_on_c, 7, 50, 96
9, 234488, Note_on_c, 7, 50, 0
9, 234624, Note_on_c, 7, 51, 96
9, 234872, Note_on_c, 7, 51, 0
9, 235008, Note_on_c, 7, 53, 96
9, 235256, Note_on_c, 7, 53, 0
9, 235392, Note_on_c, 7, 50, 96
9, 235640, Note_on_c, 7, 50, 0
9, 235776, Note_on_c, 7, 48, 96
9, 236024, Note_on_c, 7, 48, 0
9, 236160, Note_on_c, 7, 45, 96
9, 236408, Note_on_c, 7, 45, 0
9, 236544, Note_on_c, 7, 46, 96
9, 236792, Note_on_c, 7, 46, 0
9, 236928, Note_on_c, 7, 34, 96
9, 237176, Note_on_c, 7, 34, 0
9, 237312, Note_on_c, 7, 41, 96
9, 237560, Note_on_c, 7, 41, 0
9, 237696, Note_on_c, 7, 42, 96
9, 237944, Note_on_c, 7, 42, 0
9, 238080, Note_on_c, 7, 43, 96
9, 238328, Note_on_c, 7, 43, 0
9, 238464, Note_on_c, 7, 38, 96
9, 238712, Note_on_c, 7, 38, 0
9, 238848, Note_on_c, 7, 39, 96
9, 239096, Note_on_c, 7, 39, 0
9, 239232, Note_on_c, 7, 41, 96
9, 239480, Note_on_c, 7, 41, 0
9, 239616, Note_on_c, 7, 34, 120
9, 239960, Note_on_c, 7, 34, 0
9, 240576, Note_on_c, 7, 46, 120
9, 240700, Note_on_c, 7, 46, 0
9, 240768, Note_on_c, 7, 50, 120
9, 240892, Note_on_c, 7, 50, 0
9, 240960, Note_on_c, 7, 46, 120
9, 241084, Note_on_c, 7, 46, 0
9, 241152, Note_on_c, 7, 43, 120
9, 241496, Note_on_c, 7, 43, 0
9, 242112, Note_on_c, 7, 39, 120
9, 242236, Note_on_c, 7, 39, 0
9, 242304, Note_on_c, 7, 43, 120
9, 242428, Note_on_c, 7, 43, 0
9, 242496, Note_on_c, 7, 39, 120
9, 242620, Note_on_c, 7, 39, 0
9, 242688, Note_on_c, 7, 38, 120
9, 242956, Note_on_c, 7, 38, 0
9, 243072, Note_on_c, 7, 43, 120
9, 243340, Note_on_c, 7, 43, 0
9, 243456, Note_on_c, 7, 39, 120
9, 243724, Note_on_c, 7, 39, 0
9, 243840, Note_on_c, 7, 41, 120
9, 244108, Note_on_c, 7, 41, 0
9, 244224, Note_on_c, 7, 34, 120
9, 244992, Note_on_c, 7, 34, 0
9, 245376, Note_on_c, 7, 34, 120
9, 245472, Note_on_c, 7, 34, 0
9, 245472, Note_on_c, 7, 36, 120
9, 245568, Note_on_c, 7, 36, 0
9, 245568, Note_on_c, 7, 38, 120
9, 245664, Note_on_c, 7, 38, 0
9, 245664, Note_on_c, 7, 39, 120
9, 245760, Note_on_c, 7, 39, 0
9, 245760, Note_on_c, 7, 41, 120
9, 246528, Note_on_c, 7, 41, 0
9, 246912, Note_on_c, 7, 41, 120
9, 247008, Note_on_c, 7, 41, 0
9, 247008, Note_on_c, 7, 39, 120
9, 247104, Note_on_c, 7, 39, 0
9, 247104, Note_on_c, 7, 38, 120
9, 247200, Note_on_c, 7, 38, 0
9, 247200, Note_on_c, 7, 36, 120
9, 247296, Note_on_c, 7, 36, 0
9, 247296, Note_on_c, 7, 34, 120
9, 248064, Note_on_c, 7, 34, 0
9, 248448, Note_on_c, 7, 34, 120
9, 248544, Note_on_c, 7, 34, 0
9, 248544, Note_on_c, 7, 36, 120
9, 248640, Note_on_c, 7, 36, 0
9, 248640, Note_on_c, 7, 38, 120
9, 248736, Note_on_c, 7, 38, 0
9, 248736, Note_on_c, 7, 39, 120
9, 248832, Note_on_c, 7, 39, 0
9, 248832, Note_on_c, 7, 41, 120
9, 249600, Note_on_c, 7, 41, 0
9, 249984, Note_on_c, 7, 41, 120
9, 250080, Note_on_c, 7, 41, 0
9, 250080, Note_on_c, 7, 39, 120
9, 250176, Note_on_c, 7, 39, 0
9, 250176, Note_on_c, 7, 38, 120
9, 250272, Note_on_c, 7, 38, 0
9, 250272, Note_on_c, 7, 36, 120
9, 250368, Note_on_c, 7, 36, 0
9, 250368, Note_on_c, 7, 34, 120
9, 250672, Note_on_c, 7, 34, 0
9, 250752, Note_on_c, 7, 46, 120
9, 251136, Note_on_c, 7, 46, 0
9, 251136, Note_on_c, 7, 48, 120
9, 251520, Note_on_c, 7, 48, 0
9, 251520, Note_on_c, 7, 50, 120
9, 251904, Note_on_c, 7, 50, 0
9, 251904, Note_on_c, 7, 51, 120
9, 252288, Note_on_c, 7, 51, 0
9, 252288, Note_on_c, 7, 48, 120
9, 252672, Note_on_c, 7, 48, 0
9, 252672, Note_on_c, 7, 45, 120
9, 253056, Note_on_c, 7, 45, 0
9, 253056, Note_on_c, 7, 54, 120
9, 253440, Note_on_c, 7, 54, 0
9, 253440, Note_on_c, 7, 55, 120
9, 253728, Note_on_c, 7, 55, 0
9, 253824, Note_on_c, 7, 43, 120
9, 254208, Note_on_c, 7, 43, 0
9, 254208, Note_on_c, 7, 44, 120
9, 254592, Note_on_c, 7, 44, 0
9, 254592, Note_on_c, 7, 46, 120
9, 254976, Note_on_c, 7, 46, 0
9, 254976, Note_on_c, 7, 48, 120
9, 255360, Note_on_c, 7, 48, 0
9, 255360, Note_on_c, 7, 44, 120
9, 255744, Note_on_c, 7, 44, 0
9, 255744, Note_on_c, 7, 41, 120
9, 256128, Note_on_c, 7, 41, 0
9, 256128, Note_on_c, 7, 50, 120
9, 256512, Note_on_c, 7, 50, 0
9, 256512, Note_on_c, 7, 51, 120
9, 256800, Note_on_c, 7, 51, 0
9, 256896, Note_on_c, 7, 39, 120
9, 257280, Note_on_c, 7, 39, 0
9, 257280, Note_on_c, 7, 41, 120
9, 257664, Note_on_c, 7, 41, 0
9, 257664, Note_on_c, 7, 43, 120
9, 258048, Note_on_c, 7, 43, 0
9, 258048, Note_on_c, 7, 44, 120
9, 258432, Note_on_c, 7, 44, 0
9, 258432, Note_on_c, 7, 41, 120
9, 258816, Note_on_c, 7, 41, 0
9, 258816, Note_on_c, 7, 38, 120
9, 259200, Note_on_c, 7, 38, 0
9, 259200, Note_on_c, 7, 47, 120
9, 259584, Note_on_c, 7, 47, 0
9, 259584, Note_on_c, 7, 48, 96
9, 259888, Note_on_c, 7, 48, 0
9, 260352, Note_on_c, 7, 48, 96
9, 260656, Note_on_c, 7, 48, 0
9, 260736, Note_on_c, 7, 43, 96
9, 261040, Note_on_c, 7, 43, 0
9, 261120, Note_on_c, 7, 51, 96
9, 261424, Note_on_c, 7, 51, 0
9, 261696, Note_on_c, 7, 43, 96
9, 261848, Note_on_c, 7, 43, 0
9, 261888, Note_on_c, 7, 48, 96
9, 262192, Note_on_c, 7, 48, 0
9, 262272, Note_on_c, 7, 51, 96
9, 262576, Note_on_c, 7, 51, 0
9, 262656, Note_on_c, 7, 36, 96
9, 262960, Note_on_c, 7, 36, 0
9, 263232, Note_on_c, 7, 45, 96
9, 263384, Note_on_c, 7, 45, 0
9, 263424, Note_on_c, 7, 50, 96
9, 263728, Note_on_c, 7, 50, 0
9, 263808, Note_on_c, 7, 45, 96
9, 264112, Note_on_c, 7, 45, 0
9, 264192, Note_on_c, 7, 54, 96
9, 264496, Note_on_c, 7, 54, 0
9, 264768, Note_on_c, 7, 45, 96
9, 264920, Note_on_c, 7, 45, 0
9, 264960, Note_on_c, 7, 50, 96
9, 265264, Note_on_c, 7, 50, 0
9, 265344, Note_on_c, 7, 48, 96
9, 265648, Note_on_c, 7, 48, 0
9, 265728, Note_on_c, 7, 46, 96
9, 266032, Note_on_c, 7, 46, 0
9, 266304, Note_on_c, 7, 38, 96
9, 266456, Note_on_c, 7, 38, 0
9, 266496, Note_on_c, 7, 43, 96
9, 266800, Note_on_c, 7, 43, 0
9, 266880, Note_on_c, 7, 38, 96
9, 267184, Note_on_c, 7, 38, 0
9, 267264, Note_on_c, 7, 46, 96
9, 267568, Note_on_c, 7, 46, 0
9, 267840, Note_on_c, 7, 38, 96
9, 267992, Note_on_c, 7, 38, 0
9, 268032, Note_on_c, 7, 43, 96
9, 268336, Note_on_c, 7, 43, 0
9, 268416, Note_on_c, 7, 38, 96
9, 268720, Note_on_c, 7, 38, 0
9, 268800, Note_on_c, 7, 46, 96
9, 269104, Note_on_c, 7, 46, 0
9, 269376, Note_on_c, 7, 46, 96
9, 269528, Note_on_c, 7, 46, 0
9, 269568, Note_on_c, 7, 43, 96
9, 269872, Note_on_c, 7, 43, 0
9, 269952, Note_on_c, 7, 46, 96
9, 270256, Note_on_c, 7, 46, 0
9, 270336, Note_on_c, 7, 40, 96
9, 270640, Note_on_c, 7, 40, 0
9, 270912, Note_on_c, 7, 52, 96
9, 271064, Note_on_c, 7, 52, 0
9, 271104, Note_on_c, 7, 49, 96
9, 271408, Note_on_c, 7, 49, 0
9, 271488, Note_on_c, 7, 45, 96
9, 271792, Note_on_c, 7, 45, 0
9, 271872, Note_on_c, 7, 50, 96
9, 272176, Note_on_c, 7, 50, 0
9, 272448, Note_on_c, 7, 45, 96
9, 272600, Note_on_c, 7, 45, 0
9, 272640, Note_on_c, 7, 41, 96
9, 272944, Note_on_c, 7, 41, 0
9, 273024, Note_on_c, 7, 38, 96
9, 273328, Note_on_c, 7, 38, 0
9, 273408, Note_on_c, 7, 34, 96
9, 273712, Note_on_c, 7, 34, 0
9, 273984, Note_on_c, 7, 34, 96
9, 274136, Note_on_c, 7, 34, 0
9, 274176, Note_on_c, 7, 46, 96
9, 274480, Note_on_c, 7, 46, 0
9, 274560, Note_on_c, 7, 34, 96
9, 274864, Note_on_c, 7, 34, 0
9, 274944, Note_on_c, 7, 33, 96
9, 275248, Note_on_c, 7, 33, 0
9, 276480, Note_on_c, 7, 33, 51
9, 276864, Note_on_c, 7, 33, 0
9, 278016, Note_on_c, 7, 33, 41
9, 278400, Note_on_c, 7, 33, 0
9, 279552, Note_on_c, 7, 33, 41
9, 279936, Note_on_c, 7, 33, 0
9, 281088, Note_on_c, 7, 33, 41
9, 281392, Note_on_c, 7, 33, 0
9, 281472, Note_on_c, 7, 45, 96
9, 281856, Note_on_c, 7, 45, 0
9, 281856, Note_on_c, 7, 46, 96
9, 282240, Note_on_c, 7, 46, 0
9, 282240, Note_on_c, 7, 44, 96
9, 282624, Note_on_c, 7, 44, 0
9, 282624, Note_on_c, 7, 45, 96
9, 283008, Note_on_c, 7, 45, 0
9, 283008, Note_on_c, 7, 43, 92
9, 283392, Note_on_c, 7, 43, 0
9, 283392, Note_on_c, 7, 41, 88
9, 283776, Note_on_c, 7, 41, 0
9, 283776, Note_on_c, 7, 40, 84
9, 284160, Note_on_c, 7, 40, 0
9, 284160, Note_on_c, 7, 38, 80
9, 284464, Note_on_c, 7, 38, 0
9, 285696, Note_on_c, 7, 38, 51
9, 286080, Note_on_c, 7, 38, 0
9, 287232, Note_on_c, 7, 38, 41
9, 287616, Note_on_c, 7, 38, 0
9, 288768, Note_on_c, 7, 38, 41
9, 289152, Note_on_c, 7, 38, 0
9, 290304, Note_on_c, 7, 38, 64
9, 290608, Note_on_c, 7, 38, 0
9, 290688, Note_on_c, 7, 50, 96
9, 291072, Note_on_c, 7, 50, 0
9, 291072, Note_on_c, 7, 51, 96
9, 291456, Note_on_c, 7, 51, 0
9, 291456, Note_on_c, 7, 49, 96
9, 291840, Note_on_c, 7, 49, 0
9, 291840, Note_on_c, 7, 50, 96
9, 292224, Note_on_c, 7, 50, 0
9, 292224, Note_on_c, 7, 48, 96
9, 292608, Note_on_c, 7, 48, 0
9, 292608, Note_on_c, 7, 46, 96
9, 292992, Note_on_c, 7, 46, 0
9, 292992, Note_on_c, 7, 45, 96
9, 293376, Note_on_c, 7, 45, 0
9, 293376, Note_on_c, 7, 43, 77
9, 294144, Note_on_c, 7, 43, 0
9, 305664, Note_on_c, 7, 55, 120
9, 305816, Note_on_c, 7, 55, 0
9, 305856, Note_on_c, 7, 55, 120
9, 306160, Note_on_c, 7, 55, 0
9, 306240, Note_on_c, 7, 55, 120
9, 306544, Note_on_c, 7, 55, 0
9, 306624, Note_on_c, 7, 55, 120
9, 306928, Note_on_c, 7, 55, 0
9, 307008, Note_on_c, 7, 55, 120
9, 307160, Note_on_c, 7, 55, 0
9, 307200, Note_on_c, 7, 50, 120
9, 307352, Note_on_c, 7, 50, 0
9, 307392, Note_on_c, 7, 50, 120
9, 307696, Note_on_c, 7, 50, 0
9, 307776, Note_on_c, 7, 50, 120
9, 308080, Note_on_c, 7, 50, 0
9, 308160, Note_on_c, 7, 50, 120
9, 308464, Note_on_c, 7, 50, 0
9, 308544, Note_on_c, 7, 50, 120
9, 308696, Note_on_c, 7, 50, 0
9, 308736, Note_on_c, 7, 51, 120
9, 308888, Note_on_c, 7, 51, 0
9, 308928, Note_on_c, 7, 51, 120
9, 309232, Note_on_c, 7, 51, 0
9, 309312, Note_on_c, 7, 51, 120
9, 309616, Note_on_c, 7, 51, 0
9, 309696, Note_on_c, 7, 51, 120
9, 310000, Note_on_c, 7, 51, 0
9, 310080, Note_on_c, 7, 51, 120
9, 310232, Note_on_c, 7, 51, 0
9, 310272, Note_on_c, 7, 42, 120
9, 310424, Note_on_c, 7, 42, 0
9, 310464, Note_on_c, 7, 42, 120
9, 310768, Note_on_c, 7, 42, 0
9, 310848, Note_on_c, 7, 42, 120
9, 311152, Note_on_c, 7, 42, 0
9, 311232, Note_on_c, 7, 42, 120
9, 311536, Note_on_c, 7, 42, 0
9, 311616, Note_on_c, 7, 42, 120
9, 311768, Note_on_c, 7, 42, 0
9, 311808, Note_on_c, 7, 43, 96
9, 312112, Note_on_c, 7, 43, 0
9, 312576, Note_on_c, 7, 46, 96
9, 312672, Note_on_c, 7, 46, 0
9, 312672, Note_on_c, 7, 45, 96
9, 312768, Note_on_c, 7, 45, 0
9, 312768, Note_on_c, 7, 43, 96
9, 312864, Note_on_c, 7, 43, 0
9, 312864, Note_on_c, 7, 42, 96
9, 312960, Note_on_c, 7, 42, 0
9, 312960, Note_on_c, 7, 43, 96
9, 313264, Note_on_c, 7, 43, 0
9, 314112, Note_on_c, 7, 46, 96
9, 314208, Note_on_c, 7, 46, 0
9, 314208, Note_on_c, 7, 45, 96
9, 314304, Note_on_c, 7, 45, 0
9, 314304, Note_on_c, 7, 43, 96
9, 314400, Note_on_c, 7, 43, 0
9, 314400, Note_on_c, 7, 42, 96
9, 314496, Note_on_c, 7, 42, 0
9, 314496, Note_on_c, 7, 43, 96
9, 314800, Note_on_c, 7, 43, 0
9, 315648, Note_on_c, 7, 48, 96
9, 315744, Note_on_c, 7, 48, 0
9, 315744, Note_on_c, 7, 46, 96
9, 315840, Note_on_c, 7, 46, 0
9, 315840, Note_on_c, 7, 45, 96
9, 315936, Note_on_c, 7, 45, 0
9, 315936, Note_on_c, 7, 43, 96
9, 316032, Note_on_c, 7, 43, 0
9, 316032, Note_on_c, 7, 45, 96
9, 316336, Note_on_c, 7, 45, 0
9, 317184, Note_on_c, 7, 48, 96
9, 317280, Note_on_c, 7, 48, 0
9, 317280, Note_on_c, 7, 46, 96
9, 317376, Note_on_c, 7, 46, 0
9, 317376, Note_on_c, 7, 45, 96
9, 317472, Note_on_c, 7, 45, 0
9, 317472, Note_on_c, 7, 43, 96
9, 317548, Note_on_c, 7, 43, 0
9, 317568, Note_on_c, 7, 45, 96
9, 317872, Note_on_c, 7, 45, 0
9, 318720, Note_on_c, 7, 50, 96
9, 318816, Note_on_c, 7, 50, 0
9, 318816, Note_on_c, 7, 48, 96
9, 318912, Note_on_c, 7, 48, 0
9, 318912, Note_on_c, 7, 46, 96
9, 319008, Note_on_c, 7, 46, 0
9, 319008, Note_on_c, 7, 45, 96
9, 319104, Note_on_c, 7, 45, 0
9, 319104, Note_on_c, 7, 46, 96
9, 319296, Note_on_c, 7, 46, 0
9, 319488, Note_on_c, 7, 46, 96
9, 319584, Note_on_c, 7, 46, 0
9, 319584, Note_on_c, 7, 45, 96
9, 319680, Note_on_c, 7, 45, 0
9, 319680, Note_on_c, 7, 43, 96
9, 319776, Note_on_c, 7, 43, 0
9, 319776, Note_on_c, 7, 42, 96
9, 319872, Note_on_c, 7, 42, 0
9, 319872, Note_on_c, 7, 43, 96
9, 320064, Note_on_c, 7, 43, 0
9, 320256, Note_on_c, 7, 55, 96
9, 320352, Note_on_c, 7, 55, 0
9, 320352, Note_on_c, 7, 53, 96
9, 320448, Note_on_c, 7, 53, 0
9, 320448, Note_on_c, 7, 51, 96
9, 320544, Note_on_c, 7, 51, 0
9, 320544, Note_on_c, 7, 50, 96
9, 320640, Note_on_c, 7, 50, 0
9, 320640, Note_on_c, 7, 51, 96
9, 320736, Note_on_c, 7, 51, 0
9, 320736, Note_on_c, 7, 50, 96
9, 320832, Note_on_c, 7, 50, 0
9, 320832, Note_on_c, 7, 48, 96
9, 320928, Note_on_c, 7, 48, 0
9, 320928, Note_on_c, 7, 46, 96
9, 321024, Note_on_c, 7, 46, 0
9, 321024, Note_on_c, 7, 48, 96
9, 321292, Note_on_c, 7, 48, 0
9, 321408, Note_on_c, 7, 46, 96
9, 321676, Note_on_c, 7, 46, 0
9, 321792, Note_on_c, 7, 45, 96
9, 322060, Note_on_c, 7, 45, 0
9, 322176, Note_on_c, 7, 43, 96
9, 322444, Note_on_c, 7, 43, 0
9, 322560, Note_on_c, 7, 42, 96
9, 322828, Note_on_c, 7, 42, 0
9, 322944, Note_on_c, 7, 50, 77
9, 323212, Note_on_c, 7, 50, 0
9, 324480, Note_on_c, 7, 31, 96
9, 324748, Note_on_c, 7, 31, 0
9, 324864, Note_on_c, 7, 34, 96
9, 325132, Note_on_c, 7, 34, 0
9, 325248, Note_on_c, 7, 38, 96
9, 325516, Note_on_c, 7, 38, 0
9, 326016, Note_on_c, 7, 43, 96
9, 326284, Note_on_c, 7, 43, 0
9, 326400, Note_on_c, 7, 46, 96
9, 326668, Note_on_c, 7, 46, 0
9, 326784, Note_on_c, 7, 43, 96
9, 327052, Note_on_c, 7, 43, 0
9, 327552, Note_on_c, 7, 36, 96
9, 327820, Note_on_c, 7, 36, 0
9, 327936, Note_on_c, 7, 43, 96
9, 328204, Note_on_c, 7, 43, 0
9, 328320, Note_on_c, 7, 48, 96
9, 328588, Note_on_c, 7, 48, 0
9, 329088, Note_on_c, 7, 45, 96
9, 329356, Note_on_c, 7, 45, 0
9, 329472, Note_on_c, 7, 50, 96
9, 329740, Note_on_c, 7, 50, 0
9, 329856, Note_on_c, 7, 48, 96
9, 330124, Note_on_c, 7, 48, 0
9, 330240, Note_on_c, 7, 46, 96
9, 330508, Note_on_c, 7, 46, 0
9, 331776, Note_on_c, 7, 43, 51
9, 332080, Note_on_c, 7, 43, 0
9, 333312, Note_on_c, 7, 31, 51
9, 333616, Note_on_c, 7, 31, 0
9, 334848, Note_on_c, 7, 31, 51
9, 335152, Note_on_c, 7, 31, 0
9, 336384, Note_on_c, 7, 43, 51
9, 336688, Note_on_c, 7, 43, 0
9, 337920, Note_on_c, 7, 31, 51
9, 338224, Note_on_c, 7, 31, 0
9, 339456, Note_on_c, 7, 27, 51
9, 339760, Note_on_c, 7, 27, 0
9, 340992, Note_on_c, 7, 39, 51
9, 341296, Note_on_c, 7, 39, 0
9, 342528, Note_on_c, 7, 38, 51
9, 342832, Note_on_c, 7, 38, 0
9, 344064, Note_on_c, 7, 38, 51
9, 344368, Note_on_c, 7, 38, 0
9, 345600, Note_on_c, 7, 38, 51
9, 345904, Note_on_c, 7, 38, 0
9, 346368, Note_on_c, 7, 38, 41
9, 346672, Note_on_c, 7, 38, 0
9, 347136, Note_on_c, 7, 38, 33
9, 347440, Note_on_c, 7, 38, 0
9, 348672, Note_on_c, 7, 31, 96
9, 349440, Note_on_c, 7, 31, 0
9, 351744, Note_on_c, 7, 38, 96
9, 353280, Note_on_c, 7, 38, 0
9, 353280, Note_on_c, 7, 48, 96
9, 354816, Note_on_c, 7, 48, 0
9, 354816, Note_on_c, 7, 46, 120
9, 354880, Note_on_c, 7, 46, 0
9, 354880, Note_on_c, 7, 45, 120
9, 354944, Note_on_c, 7, 45, 0
9, 354944, Note_on_c, 7, 43, 120
9, 355160, Note_on_c, 7, 43, 0
9, 355200, Note_on_c, 7, 43, 120
9, 355324, Note_on_c, 7, 43, 0
9, 355392, Note_on_c, 7, 43, 120
9, 355516, Note_on_c, 7, 43, 0
9, 355584, Note_on_c, 7, 43, 120
9, 355832, Note_on_c, 7, 43, 0
9, 356352, Note_on_c, 7, 46, 120
9, 356416, Note_on_c, 7, 46, 0
9, 356416, Note_on_c, 7, 45, 120
9, 356480, Note_on_c, 7, 45, 0
9, 356480, Note_on_c, 7, 43, 120
9, 356696, Note_on_c, 7, 43, 0
9, 356736, Note_on_c, 7, 43, 120
9, 356860, Note_on_c, 7, 43, 0
9, 356928, Note_on_c, 7, 43, 120
9, 357052, Note_on_c, 7, 43, 0
9, 357120, Note_on_c, 7, 43, 120
9, 357368, Note_on_c, 7, 43, 0
9, 357888, Note_on_c, 7, 38, 96
9, 359424, Note_on_c, 7, 38, 0
9, 359424, Note_on_c, 7, 48, 96
9, 360960, Note_on_c, 7, 48, 0
9, 360960, Note_on_c, 7, 46, 120
9, 361024, Note_on_c, 7, 46, 0
9, 361024, Note_on_c, 7, 45, 120
9, 361088, Note_on_c, 7, 45, 0
9, 361088, Note_on_c, 7, 43, 120
9, 361304, Note_on_c, 7, 43, 0
9, 361344, Note_on_c, 7, 43, 120
9, 361468, Note_on_c, 7, 43, 0
9, 361536, Note_on_c, 7, 43, 120
9, 361660, Note_on_c, 7, 43, 0
9, 361728, Note_on_c, 7, 43, 120
9, 361976, Note_on_c, 7, 43, 0
9, 362496, Note_on_c, 7, 46, 120
9, 362560, Note_on_c, 7, 46, 0
9, 362560, Note_on_c, 7, 45, 120
9, 362624, Note_on_c, 7, 45, 0
9, 362624, Note_on_c, 7, 43, 120
9, 362840, Note_on_c, 7, 43, 0
9, 362880, Note_on_c, 7, 43, 120
9, 363004, Note_on_c, 7, 43, 0
9, 363072, Note_on_c, 7, 43, 120
9, 363196, Note_on_c, 7, 43, 0
9, 363264, Note_on_c, 7, 43, 120
9, 363512, Note_on_c, 7, 43, 0
9, 364032, Note_on_c, 7, 51, 120
9, 364096, Note_on_c, 7, 51, 0
9, 364096, Note_on_c, 7, 50, 120
9, 364160, Note_on_c, 7, 50, 0
9, 364160, Note_on_c, 7, 48, 120
9, 364376, Note_on_c, 7, 48, 0
9, 364416, Note_on_c, 7, 48, 120
9, 364540, Note_on_c, 7, 48, 0
9, 364608, Note_on_c, 7, 48, 120
9, 364732, Note_on_c, 7, 48, 0
9, 364800, Note_on_c, 7, 48, 120
9, 365048, Note_on_c, 7, 48, 0
9, 365568, Note_on_c, 7, 51, 120
9, 365632, Note_on_c, 7, 51, 0
9, 365632, Note_on_c, 7, 50, 120
9, 365696, Note_on_c, 7, 50, 0
9, 365696, Note_on_c, 7, 48, 120
9, 365912, Note_on_c, 7, 48, 0
9, 365952, Note_on_c, 7, 48, 120
9, 366076, Note_on_c, 7, 48, 0
9, 366144, Note_on_c, 7, 48, 120
9, 366268, Note_on_c, 7, 48, 0
9, 366336, Note_on_c, 7, 48, 120
9, 366584, Note_on_c, 7, 48, 0
9, 367104, Note_on_c, 7, 45, 120
9, 367168, Note_on_c, 7, 45, 0
9, 367168, Note_on_c, 7, 43, 120
9, 367232, Note_on_c, 7, 43, 0
9, 367232, Note_on_c, 7, 41, 120
9, 367448, Note_on_c, 7, 41, 0
9, 367488, Note_on_c, 7, 41, 120
9, 367612, Note_on_c, 7, 41, 0
9, 367680, Note_on_c, 7, 41, 120
9, 367804, Note_on_c, 7, 41, 0
9, 367872, Note_on_c, 7, 41, 120
9, 368120, Note_on_c, 7, 41, 0
9, 368640, Note_on_c, 7, 45, 120
9, 368704, Note_on_c, 7, 45, 0
9, 368704, Note_on_c, 7, 43, 120
9, 368768, Note_on_c, 7, 43, 0
9, 368768, Note_on_c, 7, 41, 120
9, 368984, Note_on_c, 7, 41, 0
9, 369024, Note_on_c, 7, 41, 120
9, 369148, Note_on_c, 7, 41, 0
9, 369216, Note_on_c, 7, 41, 120
9, 369340, Note_on_c, 7, 41, 0
9, 369408, Note_on_c, 7, 41, 120
9, 369656, Note_on_c, 7, 41, 0
9, 370176, Note_on_c, 7, 50, 120
9, 370240, Note_on_c, 7, 50, 0
9, 370240, Note_on_c, 7, 48, 120
9, 370304, Note_on_c, 7, 48, 0
9, 370304, Note_on_c, 7, 46, 120
9, 370520, Note_on_c, 7, 46, 0
9, 370560, Note_on_c, 7, 46, 120
9, 370684, Note_on_c, 7, 46, 0
9, 370752, Note_on_c, 7, 46, 120
9, 370876, Note_on_c, 7, 46, 0
9, 370944, Note_on_c, 7, 46, 120
9, 371192, Note_on_c, 7, 46, 0
9, 371712, Note_on_c, 7, 50, 120
9, 371776, Note_on_c, 7, 50, 0
9, 371776, Note_on_c, 7, 48, 120
9, 371840, Note_on_c, 7, 48, 0
9, 371840, Note_on_c, 7, 46, 120
9, 372056, Note_on_c, 7, 46, 0
9, 372096, Note_on_c, 7, 46, 120
9, 372220, Note_on_c, 7, 46, 0
9, 372288, Note_on_c, 7, 46, 120
9, 372412, Note_on_c, 7, 46, 0
9, 372480, Note_on_c, 7, 46, 120
9, 372728, Note_on_c, 7, 46, 0
9, 373248, Note_on_c, 7, 43, 120
9, 373312, Note_on_c, 7, 43, 0
9, 373312, Note_on_c, 7, 41, 120
9, 373376, Note_on_c, 7, 41, 0
9, 373376, Note_on_c, 7, 39, 120
9, 373592, Note_on_c, 7, 39, 0
9, 373632, Note_on_c, 7, 39, 120
9, 373756, Note_on_c, 7, 39, 0
9, 373824, Note_on_c, 7, 39, 120
9, 373948, Note_on_c, 7, 39, 0
9, 374016, Note_on_c, 7, 39, 120
9, 374264, Note_on_c, 7, 39, 0
9, 374784, Note_on_c, 7, 43, 120
9, 374848, Note_on_c, 7, 43, 0
9, 374848, Note_on_c, 7, 41, 120
9, 374912, Note_on_c, 7, 41, 0
9, 374912, Note_on_c, 7, 39, 120
9, 375128, Note_on_c, 7, 39, 0
9, 375168, Note_on_c, 7, 39, 120
9, 375292, Note_on_c, 7, 39, 0
9, 375360, Note_on_c, 7, 39, 120
9, 375484, Note_on_c, 7, 39, 0
9, 375552, Note_on_c, 7, 39, 120
9, 375800, Note_on_c, 7, 39, 0
9, 376320, Note_on_c, 7, 48, 120
9, 376384, Note_on_c, 7, 48, 0
9, 376384, Note_on_c, 7, 46, 120
9, 376448, Note_on_c, 7, 46, 0
9, 376448, Note_on_c, 7, 45, 120
9, 376664, Note_on_c, 7, 45, 0
9, 376704, Note_on_c, 7, 45, 120
9, 376828, Note_on_c, 7, 45, 0
9, 376896, Note_on_c, 7, 45, 120
9, 377020, Note_on_c, 7, 45, 0
9, 377088, Note_on_c, 7, 45, 120
9, 377336, Note_on_c, 7, 45, 0
9, 377856, Note_on_c, 7, 48, 120
9, 377920, Note_on_c, 7, 48, 0
9, 377920, Note_on_c, 7, 46, 120
9, 377984, Note_on_c, 7, 46, 0
9, 377984, Note_on_c, 7, 45, 120
9, 378200, Note_on_c, 7, 45, 0
9, 378240, Note_on_c, 7, 45, 120
9, 378364, Note_on_c, 7, 45, 0
9, 378432, Note_on_c, 7, 45, 120
9, 378556, Note_on_c, 7, 45, 0
9, 378624, Note_on_c, 7, 45, 120
9, 378872, Note_on_c, 7, 45, 0
9, 380928, Note_on_c, 7, 48, 96
9, 381196, Note_on_c, 7, 48, 0
9, 381312, Note_on_c, 7, 45, 96
9, 381580, Note_on_c, 7, 45, 0
9, 381696, Note_on_c, 7, 42, 96
9, 381964, Note_on_c, 7, 42, 0
9, 382080, Note_on_c, 7, 38, 96
9, 382348, Note_on_c, 7, 38, 0
9, 384000, Note_on_c, 7, 43, 96
9, 384268, Note_on_c, 7, 43, 0
9, 384384, Note_on_c, 7, 38, 96
9, 384652, Note_on_c, 7, 38, 0
9, 384768, Note_on_c, 7, 34, 96
9, 385036, Note_on_c, 7, 34, 0
9, 385152, Note_on_c, 7, 31, 96
9, 385420, Note_on_c, 7, 31, 0
9, 387072, Note_on_c, 7, 44, 96
9, 387340, Note_on_c, 7, 44, 0
9, 387456, Note_on_c, 7, 41, 96
9, 387724, Note_on_c, 7, 41, 0
9, 387840, Note_on_c, 7, 38, 96
9, 388108, Note_on_c, 7, 38, 0
9, 388224, Note_on_c, 7, 35, 96
9, 388492, Note_on_c, 7, 35, 0
9, 390144, Note_on_c, 7, 48, 96
9, 390412, Note_on_c, 7, 48, 0
9, 390528, Note_on_c, 7, 43, 96
9, 390796, Note_on_c, 7, 43, 0
9, 390912, Note_on_c, 7, 39, 96
9, 391180, Note_on_c, 7, 39, 0
9, 391296, Note_on_c, 7, 36, 96
9, 391564, Note_on_c, 7, 36, 0
9, 393216, Note_on_c, 7, 46, 96
9, 393484, Note_on_c, 7, 46, 0
9, 393600, Note_on_c, 7, 43, 96
9, 393868, Note_on_c, 7, 43, 0
9, 393984, Note_on_c, 7, 40, 96
9, 394252, Note_on_c, 7, 40, 0
9, 394368, Note_on_c, 7, 37, 96
9, 394636, Note_on_c, 7, 37, 0
9, 394752, Note_on_c, 7, 38, 77
9, 395136, Note_on_c, 7, 38, 0
9, 395136, Note_on_c, 7, 39, 77
9, 395520, Note_on_c, 7, 39, 0
9, 395520, Note_on_c, 7, 38, 77
9, 395904, Note_on_c, 7, 38, 0
9, 395904, Note_on_c, 7, 37, 77
9, 396288, Note_on_c, 7, 37, 0
9, 396288, Note_on_c, 7, 38, 77
9, 396516, Note_on_c, 7, 38, 0
9, 396672, Note_on_c, 7, 50, 50
9, 396900, Note_on_c, 7, 50, 0
9, 397056, Note_on_c, 7, 38, 50
9, 397284, Note_on_c, 7, 38, 0
9, 397824, Note_on_c, 7, 46, 64
9, 398052, Note_on_c, 7, 46, 0
9, 398208, Note_on_c, 7, 43, 64
9, 398436, Note_on_c, 7, 43, 0
9, 398592, Note_on_c, 7, 48, 64
9, 398820, Note_on_c, 7, 48, 0
9, 398976, Note_on_c, 7, 43, 64
9, 399204, Note_on_c, 7, 43, 0
9, 399360, Note_on_c, 7, 50, 64
9, 399588, Note_on_c, 7, 50, 0
9, 399744, Note_on_c, 7, 43, 64
9, 399972, Note_on_c, 7, 43, 0
9, 400128, Note_on_c, 7, 51, 64
9, 400356, Note_on_c, 7, 51, 0
9, 400512, Note_on_c, 7, 48, 64
9, 400740, Note_on_c, 7, 48, 0
9, 400896, Note_on_c, 7, 46, 64
9, 401124, Note_on_c, 7, 46, 0
9, 401280, Note_on_c, 7, 31, 64
9, 401508, Note_on_c, 7, 31, 0
9, 401664, Note_on_c, 7, 36, 64
9, 401892, Note_on_c, 7, 36, 0
9, 402048, Note_on_c, 7, 31, 64
9, 402276, Note_on_c, 7, 31, 0
9, 402432, Note_on_c, 7, 38, 64
9, 402660, Note_on_c, 7, 38, 0
9, 402816, Note_on_c, 7, 31, 64
9, 403044, Note_on_c, 7, 31, 0
9, 403200, Note_on_c, 7, 39, 64
9, 403428, Note_on_c, 7, 39, 0
9, 403584, Note_on_c, 7, 36, 64
9, 403812, Note_on_c, 7, 36, 0
9, 403968, Note_on_c, 7, 34, 64
9, 404236, Note_on_c, 7, 34, 0
9, 404352, Note_on_c, 7, 37, 64
9, 404620, Note_on_c, 7, 37, 0
9, 404736, Note_on_c, 7, 38, 64
9, 405004, Note_on_c, 7, 38, 0
9, 405120, Note_on_c, 7, 46, 64
9, 405388, Note_on_c, 7, 46, 0
9, 405504, Note_on_c, 7, 45, 64
9, 405772, Note_on_c, 7, 45, 0
9, 405888, Note_on_c, 7, 43, 64
9, 406156, Note_on_c, 7, 43, 0
9, 406272, Note_on_c, 7, 42, 64
9, 406540, Note_on_c, 7, 42, 0
9, 406656, Note_on_c, 7, 43, 64
9, 406924, Note_on_c, 7, 43, 0
9, 407040, Note_on_c, 7, 36, 64
9, 407308, Note_on_c, 7, 36, 0
9, 407424, Note_on_c, 7, 30, 64
9, 407692, Note_on_c, 7, 30, 0
9, 407808, Note_on_c, 7, 31, 64
9, 408076, Note_on_c, 7, 31, 0
9, 408192, Note_on_c, 7, 39, 64
9, 408460, Note_on_c, 7, 39, 0
9, 408576, Note_on_c, 7, 36, 64
9, 408844, Note_on_c, 7, 36, 0
9, 408960, Note_on_c, 7, 38, 64
9, 409228, Note_on_c, 7, 38, 0
9, 409344, Note_on_c, 7, 43, 100
9, 409612, Note_on_c, 7, 43, 0
9, 409728, Note_on_c, 7, 38, 100
9, 409996, Note_on_c, 7, 38, 0
9, 410112, Note_on_c, 7, 42, 80
9, 410380, Note_on_c, 7, 42, 0
9, 410496, Note_on_c, 7, 38, 80
9, 410764, Note_on_c, 7, 38, 0
9, 410880, Note_on_c, 7, 43, 80
9, 411148, Note_on_c, 7, 43, 0
9, 411264, Note_on_c, 7, 38, 80
9, 411532, Note_on_c, 7, 38, 0
9, 411648, Note_on_c, 7, 45, 80
9, 411916, Note_on_c, 7, 45, 0
9, 412032, Note_on_c, 7, 38, 80
9, 412300, Note_on_c, 7, 38, 0
9, 412416, Note_on_c, 7, 46, 80
9, 412684, Note_on_c, 7, 46, 0
9, 412800, Note_on_c, 7, 38, 80
9, 413068, Note_on_c, 7, 38, 0
9, 413184, Note_on_c, 7, 42, 80
9, 413452, Note_on_c, 7, 42, 0
9, 413568, Note_on_c, 7, 38, 80
9, 413836, Note_on_c, 7, 38, 0
9, 413952, Note_on_c, 7, 43, 80
9, 414220, Note_on_c, 7, 43, 0
9, 414336, Note_on_c, 7, 38, 80
9, 414604, Note_on_c, 7, 38, 0
9, 414720, Note_on_c, 7, 45, 80
9, 414988, Note_on_c, 7, 45, 0
9, 415104, Note_on_c, 7, 38, 84
9, 415372, Note_on_c, 7, 38, 0
9, 415488, Note_on_c, 7, 46, 88
9, 415756, Note_on_c, 7, 46, 0
9, 415872, Note_on_c, 7, 37, 92
9, 416140, Note_on_c, 7, 37, 0
9, 416256, Note_on_c, 7, 38, 96
9, 416524, Note_on_c, 7, 38, 0
9, 416640, Note_on_c, 7, 34, 96
9, 416908, Note_on_c, 7, 34, 0
9, 417024, Note_on_c, 7, 33, 96
9, 417292, Note_on_c, 7, 33, 0
9, 417408, Note_on_c, 7, 42, 96
9, 417676, Note_on_c, 7, 42, 0
9, 417792, Note_on_c, 7, 43, 96
9, 418060, Note_on_c, 7, 43, 0
9, 418176, Note_on_c, 7, 31, 96
9, 418444, Note_on_c, 7, 31, 0
9, 418560, Note_on_c, 7, 38, 96
9, 418828, Note_on_c, 7, 38, 0
9, 418944, Note_on_c, 7, 38, 96
9, 419212, Note_on_c, 7, 38, 0
9, 419328, Note_on_c, 7, 39, 96
9, 419596, Note_on_c, 7, 39, 0
9, 419712, Note_on_c, 7, 34, 96
9, 419980, Note_on_c, 7, 34, 0
9, 420096, Note_on_c, 7, 36, 96
9, 420364, Note_on_c, 7, 36, 0
9, 420480, Note_on_c, 7, 38, 96
9, 420748, Note_on_c, 7, 38, 0
9, 420864, Note_on_c, 7, 31, 120
9, 421248, Note_on_c, 7, 31, 0
9, 421824, Note_on_c, 7, 43, 120
9, 421936, Note_on_c, 7, 43, 0
9, 422016, Note_on_c, 7, 46, 120
9, 422128, Note_on_c, 7, 46, 0
9, 422208, Note_on_c, 7, 43, 120
9, 422320, Note_on_c, 7, 43, 0
9, 422400, Note_on_c, 7, 39, 120
9, 422784, Note_on_c, 7, 39, 0
9, 423360, Note_on_c, 7, 39, 120
9, 423472, Note_on_c, 7, 39, 0
9, 423552, Note_on_c, 7, 43, 120
9, 423664, Note_on_c, 7, 43, 0
9, 423744, Note_on_c, 7, 39, 120
9, 423856, Note_on_c, 7, 39, 0
9, 423936, Note_on_c, 7, 38, 120
9, 424164, Note_on_c, 7, 38, 0
9, 424320, Note_on_c, 7, 39, 120
9, 424548, Note_on_c, 7, 39, 0
9, 424704, Note_on_c, 7, 36, 120
9, 424932, Note_on_c, 7, 36, 0
9, 425088, Note_on_c, 7, 38, 120
9, 425316, Note_on_c, 7, 38, 0
9, 425472, Note_on_c, 7, 43, 120
9, 426240, Note_on_c, 7, 43, 0
9, 426624, Note_on_c, 7, 43, 120
9, 426720, Note_on_c, 7, 43, 0
9, 426720, Note_on_c, 7, 45, 120
9, 426816, Note_on_c, 7, 45, 0
9, 426816, Note_on_c, 7, 46, 120
9, 426912, Note_on_c, 7, 46, 0
9, 426912, Note_on_c, 7, 48, 120
9, 427008, Note_on_c, 7, 48, 0
9, 427008, Note_on_c, 7, 50, 120
9, 427776, Note_on_c, 7, 50, 0
9, 428160, Note_on_c, 7, 50, 120
9, 428256, Note_on_c, 7, 50, 0
9, 428256, Note_on_c, 7, 48, 120
9, 428352, Note_on_c, 7, 48, 0
9, 428352, Note_on_c, 7, 46, 120
9, 428448, Note_on_c, 7, 46, 0
9, 428448, Note_on_c, 7, 45, 120
9, 428544, Note_on_c, 7, 45, 0
9, 428544, Note_on_c, 7, 43, 120
9, 429312, Note_on_c, 7, 43, 0
9, 429696, Note_on_c, 7, 43, 120
9, 429792, Note_on_c, 7, 43, 0
9, 429792, Note_on_c, 7, 45, 120
9, 429888, Note_on_c, 7, 45, 0
9, 429888, Note_on_c, 7, 46, 120
9, 429984, Note_on_c, 7, 46, 0
9, 429984, Note_on_c, 7, 48, 120
9, 430080, Note_on_c, 7, 48, 0
9, 430080, Note_on_c, 7, 50, 120
9, 430848, Note_on_c, 7, 50, 0
9, 431232, Note_on_c, 7, 50, 120
9, 431328, Note_on_c, 7, 50, 0
9, 431328, Note_on_c, 7, 48, 120
9, 431424, Note_on_c, 7, 48, 0
9, 431424, Note_on_c, 7, 46, 120
9, 431520, Note_on_c, 7, 46, 0
9, 431520, Note_on_c, 7, 45, 120
9, 431616, Note_on_c, 7, 45, 0
9, 431616, Note_on_c, 7, 43, 96
9, 431920, Note_on_c, 7, 43, 0
9, 432000, Note_on_c, 7, 46, 96
9, 432384, Note_on_c, 7, 46, 0
9, 432384, Note_on_c, 7, 48, 96
9, 432768, Note_on_c, 7, 48, 0
9, 432768, Note_on_c, 7, 50, 96
9, 433152, Note_on_c, 7, 50, 0
9, 433152, Note_on_c, 7, 51, 96
9, 433536, Note_on_c, 7, 51, 0
9, 433536, Note_on_c, 7, 48, 96
9, 433920, Note_on_c, 7, 48, 0
9, 433920, Note_on_c, 7, 45, 96
9, 434304, Note_on_c, 7, 45, 0
9, 434304, Note_on_c, 7, 54, 96
9, 434688, Note_on_c, 7, 54, 0
9, 434688, Note_on_c, 7, 55, 120
9, 434992, Note_on_c, 7, 55, 0
9, 437760, Note_on_c, 7, 55, 120
9, 438064, Note_on_c, 7, 55, 0
9, 438144, Note_on_c, 7, 55, 120
9, 438448, Note_on_c, 7, 55, 0
9, 438528, Note_on_c, 7, 55, 120
9, 438832, Note_on_c, 7, 55, 0
9, 438912, Note_on_c, 7, 55, 120
9, 439216, Note_on_c, 7, 55, 0
9, 439296, Note_on_c, 7, 50, 120
9, 439600, Note_on_c, 7, 50, 0
9, 439680, Note_on_c, 7, 50, 120
9, 439984, Note_on_c, 7, 50, 0
9, 440064, Note_on_c, 7, 50, 120
9, 440368, Note_on_c, 7, 50, 0
9, 440448, Note_on_c, 7, 50, 120
9, 440752, Note_on_c, 7, 50, 0
9, 440832, Note_on_c, 7, 51, 120
9, 441136, Note_on_c, 7, 51, 0
9, 441216, Note_on_c, 7, 51, 120
9, 441520, Note_on_c, 7, 51, 0
9, 441600, Note_on_c, 7, 51, 120
9, 441904, Note_on_c, 7, 51, 0
9, 441984, Note_on_c, 7, 51, 120
9, 442288, Note_on_c, 7, 51, 0
9, 442368, Note_on_c, 7, 47, 120
9, 442520, Note_on_c, 7, 47, 0
9, 442560, Note_on_c, 7, 47, 120
9, 442864, Note_on_c, 7, 47, 0
9, 442944, Note_on_c, 7, 47, 120
9, 443248, Note_on_c, 7, 47, 0
9, 443328, Note_on_c, 7, 47, 120
9, 443632, Note_on_c, 7, 47, 0
9, 443712, Note_on_c, 7, 47, 120
9, 443864, Note_on_c, 7, 47, 0
9, 443904, Note_on_c, 7, 48, 120
9, 443904, Note_on_c, 7, 48, 120
9, 444208, Note_on_c, 7, 48, 0
9, 444208, Note_on_c, 7, 48, 0
9, 444288, Note_on_c, 7, 48, 120
9, 444592, Note_on_c, 7, 48, 0
9, 444672, Note_on_c, 7, 42, 120
9, 444976, Note_on_c, 7, 42, 0
9, 445056, Note_on_c, 7, 42, 120
9, 445360, Note_on_c, 7, 42, 0
9, 445440, Note_on_c, 7, 43, 120
9, 445744, Note_on_c, 7, 43, 0
9, 445824, Note_on_c, 7, 43, 120
9, 446128, Note_on_c, 7, 43, 0
9, 446208, Note_on_c, 7, 51, 120
9, 446512, Note_on_c, 7, 51, 0
9, 446592, Note_on_c, 7, 51, 120
9, 446896, Note_on_c, 7, 51, 0
9, 446976, Note_on_c, 7, 48, 120
9, 447280, Note_on_c, 7, 48, 0
9, 447360, Note_on_c, 7, 48, 120
9, 447664, Note_on_c, 7, 48, 0
9, 447744, Note_on_c, 7, 50, 120
9, 448048, Note_on_c, 7, 50, 0
9, 448128, Note_on_c, 7, 50, 120
9, 448432, Note_on_c, 7, 50, 0
9, 448512, Note_on_c, 7, 43, 120
9, 448816, Note_on_c, 7, 43, 0
9, 450048, Note_on_c, 7, 43, 120
9, 450352, Note_on_c, 7, 43, 0
9, 450432, Note_on_c, 7, 43, 120
9, 450660, Note_on_c, 7, 43, 0
9, 450720, Note_on_c, 7, 43, 120
9, 450796, Note_on_c, 7, 43, 0
9, 450816, Note_on_c, 7, 43, 120
9, 451120, Note_on_c, 7, 43, 0
9, 451200, Note_on_c, 7, 43, 120
9, 451504, Note_on_c, 7, 43, 0
9, 451584, Note_on_c, 7, 50, 120
9, 452196, Note_on_c, 7, 50, 0
9, 452352, Note_on_c, 7, 46, 120
9, 452656, Note_on_c, 7, 46, 0
9, 452736, Note_on_c, 7, 43, 120
9, 453040, Note_on_c, 7, 43, 0
9, 453120, Note_on_c, 7, 38, 120
9, 453424, Note_on_c, 7, 38, 0
9, 453504, Note_on_c, 7, 43, 120
9, 453808, Note_on_c, 7, 43, 0
9, 453888, Note_on_c, 7, 34, 120
9, 454192, Note_on_c, 7, 34, 0
9, 454272, Note_on_c, 7, 38, 120
9, 454576, Note_on_c, 7, 38, 0
9, 454656, Note_on_c, 7, 31, 120
9, 455040, Note_on_c, 7, 31, 0
9, 455040, End_track
10, 0, Start_track
10, 0, MIDI_port, 0
10, 0, Title_t, "Symphony No. 25"
10, 0, End_track
11, 0, Start_track
11, 0, MIDI_port, 0
11, 0, Title_t, "Allegro con brio."
11, 0, End_track
12, 0, Start_track
12, 0, MIDI_port, 0
12, 0, Title_t, "Composed by Wolfgang Amageus Mozart"
12, 0, End_track
13, 0, Start_track
13, 0, MIDI_port, 0
13, 0, Title_t, "Sequenced by Jason M. Stone"
13, 0, End_track
14, 0, Start_track
14, 0, MIDI_port, 0
14, 0, Title_t, "May 31, 1995"
14, 0, End_track
0, 0, End_of_file
